0, 0, Header, 1, 1, 192
1, 0, Start_track
1, 0, Title_t, "Melody"
1, 0, Tempo, 357142
1, 0, Key_signature, -3, "major"
1, 0, Time_signature, 4, 2, 24, 8
1, 882, Note_on_c, 0, 58, 96
1, 966, Note_off_c, 0, 58, 96
1, 1068, Note_on_c, 0, 58, 93
1, 1150, Note_off_c, 0, 58, 93
1, 1156, Note_on_c, 0, 63, 102
1, 1251, Note_off_c, 0, 63, 102
1, 1265, Note_on_c, 0, 65, 103
1, 1360, Note_off_c, 0, 65, 103
1, 1370, Note_on_c, 0, 62, 91
1, 1480, Note_off_c, 0, 62, 91
1, 1494, Note_on_c, 0, 63, 102
1, 1553, Note_off_c, 0, 63, 102
1, 1560, Note_on_c, 0, 65, 99
1, 1692, Note_off_c, 0, 65, 99
1, 1696, Note_on_c, 0, 62, 86
1, 1764, Note_off_c, 0, 62, 86
1, 1776, Note_on_c, 0, 65, 100
1, 1917, Note_off_c, 0, 65, 100
1, 1928, Note_on_c, 0, 62, 84
1, 1969, Note_off_c, 0, 62, 84
1, 1981, Note_on_c, 0, 64, 104
1, 2105, Note_off_c, 0, 64, 104
1, 2118, Note_on_c, 0, 61, 91
1, 2191, Note_off_c, 0, 61, 91
1, 2201, Note_on_c, 0, 64, 103
1, 2313, Note_off_c, 0, 64, 103
1, 2340, Note_on_c, 0, 61, 95
1, 2392, Note_off_c, 0, 61, 95
1, 2414, Note_on_c, 0, 63, 97
1, 2736, Note_off_c, 0, 63, 97
1, 2760, Note_on_c, 0, 60, 91
1, 2817, Note_off_c, 0, 60, 91
1, 2859, Note_on_c, 0, 67, 108
1, 2959, Note_off_c, 0, 67, 108
1, 2960, Note_on_c, 0, 65, 104
1, 3040, Note_off_c, 0, 65, 104
1, 3058, Note_on_c, 0, 63, 101
1, 3143, Note_off_c, 0, 63, 101
1, 3158, Note_on_c, 0, 60, 102
1, 3240, Note_off_c, 0, 60, 102
1, 3247, Note_on_c, 0, 56, 92
1, 3346, Note_off_c, 0, 56, 92
1, 3354, Note_on_c, 0, 60, 87
1, 3437, Note_off_c, 0, 60, 87
1, 3447, Note_on_c, 0, 63, 105
1, 3544, Note_off_c, 0, 63, 105
1, 3568, Note_on_c, 0, 67, 104
1, 3678, Note_off_c, 0, 67, 104
1, 3685, Note_on_c, 0, 66, 104
1, 3780, Note_off_c, 0, 66, 104
1, 3790, Note_on_c, 0, 62, 104
1, 3880, Note_off_c, 0, 62, 104
1, 3891, Note_on_c, 0, 58, 102
1, 3967, Note_off_c, 0, 58, 102
1, 3990, Note_on_c, 0, 57, 103
1, 4060, Note_off_c, 0, 57, 103
1, 4092, Note_on_c, 0, 56, 99
1, 4169, Note_off_c, 0, 56, 99
1, 4193, Note_on_c, 0, 60, 101
1, 4258, Note_off_c, 0, 60, 101
1, 4267, Note_on_c, 0, 59, 89
1, 4368, Note_off_c, 0, 59, 89
1, 4383, Note_on_c, 0, 57, 95
1, 4428, Note_off_c, 0, 57, 95
1, 4443, Note_on_c, 0, 58, 99
1, 4572, Note_off_c, 0, 58, 99
1, 4596, Note_on_c, 0, 51, 91
1, 4795, Note_off_c, 0, 51, 91
1, 4807, Note_on_c, 0, 51, 94
1, 4862, Note_off_c, 0, 51, 94
1, 5715, Note_on_c, 0, 55, 101
1, 5805, Note_off_c, 0, 55, 101
1, 5813, Note_on_c, 0, 56, 105
1, 5842, Note_off_c, 0, 56, 105
1, 5854, Note_on_c, 0, 55, 95
1, 5882, Note_off_c, 0, 55, 95
1, 6030, Note_on_c, 0, 55, 103
1, 6074, Note_off_c, 0, 55, 103
1, 6084, Note_on_c, 0, 56, 105
1, 6190, Note_off_c, 0, 56, 105
1, 6206, Note_on_c, 0, 54, 99
1, 6273, Note_off_c, 0, 54, 99
1, 6714, Note_on_c, 0, 54, 101
1, 6776, Note_off_c, 0, 54, 101
1, 6783, Note_on_c, 0, 55, 101
1, 6823, Note_off_c, 0, 55, 101
1, 6833, Note_on_c, 0, 61, 104
1, 6918, Note_off_c, 0, 61, 104
1, 6927, Note_on_c, 0, 58, 102
1, 7097, Note_off_c, 0, 58, 102
1, 7119, Note_on_c, 0, 61, 103
1, 7230, Note_off_c, 0, 61, 103
1, 7251, Note_on_c, 0, 59, 83
1, 7293, Note_off_c, 0, 59, 83
1, 7317, Note_on_c, 0, 60, 95
1, 7505, Note_off_c, 0, 60, 95
1, 7527, Note_on_c, 0, 61, 101
1, 7600, Note_off_c, 0, 61, 101
1, 7615, Note_on_c, 0, 62, 103
1, 7678, Note_off_c, 0, 62, 103
1, 7704, Note_on_c, 0, 63, 100
1, 7797, Note_off_c, 0, 63, 100
1, 7818, Note_on_c, 0, 65, 101
1, 7887, Note_off_c, 0, 65, 101
1, 7917, Note_on_c, 0, 60, 90
1, 7987, Note_off_c, 0, 60, 90
1, 8000, Note_on_c, 0, 61, 92
1, 8071, Note_off_c, 0, 61, 92
1, 8092, Note_on_c, 0, 63, 101
1, 8209, Note_off_c, 0, 63, 101
1, 8219, Note_on_c, 0, 65, 103
1, 8283, Note_off_c, 0, 65, 103
1, 8330, Note_on_c, 0, 60, 83
1, 8407, Note_off_c, 0, 60, 83
1, 8416, Note_on_c, 0, 61, 93
1, 8467, Note_off_c, 0, 61, 93
1, 8497, Note_on_c, 0, 63, 102
1, 8602, Note_off_c, 0, 63, 102
1, 8611, Note_on_c, 0, 65, 103
1, 8690, Note_off_c, 0, 65, 103
1, 8711, Note_on_c, 0, 60, 92
1, 8806, Note_off_c, 0, 60, 92
1, 8812, Note_on_c, 0, 61, 92
1, 8870, Note_off_c, 0, 61, 92
1, 8883, Note_on_c, 0, 63, 100
1, 9011, Note_off_c, 0, 63, 100
1, 9018, Note_on_c, 0, 65, 100
1, 9090, Note_off_c, 0, 65, 100
1, 9106, Note_on_c, 0, 63, 95
1, 9212, Note_off_c, 0, 63, 95
1, 9216, Note_on_c, 0, 65, 86
1, 9469, Note_off_c, 0, 65, 86
1, 10488, Note_on_c, 0, 66, 113
1, 10598, Note_off_c, 0, 66, 113
1, 10607, Note_on_c, 0, 65, 101
1, 10663, Note_off_c, 0, 65, 101
1, 10688, Note_on_c, 0, 63, 101
1, 10786, Note_off_c, 0, 63, 101
1, 10796, Note_on_c, 0, 65, 93
1, 11076, Note_off_c, 0, 65, 93
1, 11310, Note_on_c, 0, 62, 105
1, 11417, Note_off_c, 0, 62, 105
1, 11692, Note_on_c, 0, 58, 95
1, 11760, Note_off_c, 0, 58, 95
1, 11764, Note_on_c, 0, 60, 100
1, 11855, Note_off_c, 0, 60, 100
1, 11860, Note_on_c, 0, 61, 100
1, 11963, Note_off_c, 0, 61, 100
1, 11980, Note_on_c, 0, 63, 104
1, 12050, Note_off_c, 0, 63, 104
1, 12084, Note_on_c, 0, 59, 92
1, 12174, Note_off_c, 0, 59, 92
1, 12182, Note_on_c, 0, 60, 98
1, 12246, Note_off_c, 0, 60, 98
1, 12270, Note_on_c, 0, 55, 101
1, 12372, Note_off_c, 0, 55, 101
1, 12382, Note_on_c, 0, 58, 105
1, 12460, Note_off_c, 0, 58, 105
1, 12585, Note_on_c, 0, 56, 104
1, 12636, Note_off_c, 0, 56, 104
1, 12643, Note_on_c, 0, 57, 98
1, 12810, Note_off_c, 0, 57, 98
1, 12850, Note_on_c, 0, 60, 105
1, 12960, Note_off_c, 0, 60, 105
1, 12966, Note_on_c, 0, 57, 100
1, 13243, Note_off_c, 0, 57, 100
1, 13251, Note_on_c, 0, 60, 102
1, 13360, Note_off_c, 0, 60, 102
1, 13369, Note_on_c, 0, 63, 95
1, 13628, Note_off_c, 0, 63, 95
1, 13639, Note_on_c, 0, 60, 93
1, 13749, Note_off_c, 0, 60, 93
1, 13755, Note_on_c, 0, 53, 95
1, 13950, Note_off_c, 0, 53, 95
1, 13958, Note_on_c, 0, 53, 99
1, 14024, Note_off_c, 0, 53, 99
1, 14826, Note_on_c, 0, 50, 101
1, 14932, Note_off_c, 0, 50, 101
1, 14988, Note_on_c, 0, 51, 105
1, 15058, Note_off_c, 0, 51, 105
1, 15148, Note_on_c, 0, 55, 103
1, 15190, Note_off_c, 0, 55, 103
1, 15263, Note_on_c, 0, 60, 100
1, 15341, Note_off_c, 0, 60, 100
1, 15392, Note_on_c, 0, 57, 100
1, 15456, Note_off_c, 0, 57, 100
1, 16017, Note_on_c, 0, 60, 101
1, 16069, Note_off_c, 0, 60, 101
1, 16094, Note_on_c, 0, 56, 94
1, 16184, Note_off_c, 0, 56, 94
1, 16212, Note_on_c, 0, 60, 94
1, 16278, Note_off_c, 0, 60, 94
1, 16314, Note_on_c, 0, 63, 103
1, 16384, Note_off_c, 0, 63, 103
1, 16409, Note_on_c, 0, 66, 107
1, 16478, Note_off_c, 0, 66, 107
1, 16510, Note_on_c, 0, 67, 104
1, 16589, Note_off_c, 0, 67, 104
1, 16599, Note_on_c, 0, 68, 100
1, 16688, Note_off_c, 0, 68, 100
1, 17234, Note_on_c, 0, 66, 91
1, 17273, Note_off_c, 0, 66, 91
1, 17397, Note_on_c, 0, 70, 115
1, 17467, Note_off_c, 0, 70, 115
1, 17491, Note_on_c, 0, 75, 122
1, 17604, Note_off_c, 0, 75, 122
1, 17610, Note_on_c, 0, 74, 112
1, 17675, Note_off_c, 0, 74, 112
1, 17686, Note_on_c, 0, 77, 116
1, 17791, Note_off_c, 0, 77, 116
1, 17795, Note_on_c, 0, 75, 119
1, 17880, Note_off_c, 0, 75, 119
1, 17938, Note_on_c, 0, 70, 101
1, 18029, Note_off_c, 0, 70, 101
1, 18099, Note_on_c, 0, 68, 95
1, 18257, Note_off_c, 0, 68, 95
1, 18281, Note_on_c, 0, 72, 110
1, 18386, Note_off_c, 0, 72, 110
1, 18488, Note_on_c, 0, 70, 97
1, 18761, Note_off_c, 0, 70, 97
1, 18807, Note_on_c, 0, 67, 101
1, 18857, Note_off_c, 0, 67, 101
1, 18888, Note_on_c, 0, 63, 101
1, 19013, Note_off_c, 0, 63, 101
1, 19024, Note_on_c, 0, 61, 102
1, 19070, Note_off_c, 0, 61, 102
1, 19187, Note_on_c, 0, 61, 92
1, 19439, Note_off_c, 0, 61, 92
1, 19448, Note_on_c, 0, 65, 101
1, 19543, Note_off_c, 0, 65, 101
1, 19566, Note_on_c, 0, 68, 99
1, 19661, Note_off_c, 0, 68, 99
1, 19673, Note_on_c, 0, 67, 98
1, 19759, Note_off_c, 0, 67, 98
1, 19776, Note_on_c, 0, 63, 95
1, 19837, Note_off_c, 0, 63, 95
1, 19849, Note_on_c, 0, 65, 101
1, 19972, Note_off_c, 0, 65, 101
1, 19981, Note_on_c, 0, 60, 91
1, 20035, Note_off_c, 0, 60, 91
1, 20043, Note_on_c, 0, 63, 95
1, 20350, Note_off_c, 0, 63, 95
1, 20366, Note_on_c, 0, 60, 88
1, 20425, Note_off_c, 0, 60, 88
1, 20434, Note_on_c, 0, 65, 103
1, 20550, Note_off_c, 0, 65, 103
1, 20574, Note_on_c, 0, 63, 98
1, 20631, Note_off_c, 0, 63, 98
1, 21739, Note_on_c, 0, 56, 100
1, 21798, Note_off_c, 0, 56, 100
1, 21830, Note_on_c, 0, 60, 88
1, 21918, Note_off_c, 0, 60, 88
1, 21941, Note_on_c, 0, 63, 101
1, 22009, Note_off_c, 0, 63, 101
1, 22045, Note_on_c, 0, 65, 103
1, 22165, Note_off_c, 0, 65, 103
1, 22185, Note_on_c, 0, 63, 97
1, 22241, Note_off_c, 0, 63, 97
1, 22327, Note_on_c, 0, 66, 104
1, 22418, Note_off_c, 0, 66, 104
1, 22450, Note_on_c, 0, 63, 101
1, 22529, Note_off_c, 0, 63, 101
1, 22600, Note_on_c, 0, 63, 95
1, 22906, Note_off_c, 0, 63, 95
1, 23445, Note_on_c, 0, 63, 94
1, 23502, Note_off_c, 0, 63, 94
1, 23516, Note_on_c, 0, 67, 89
1, 23571, Note_off_c, 0, 67, 89
1, 23585, Note_on_c, 0, 72, 119
1, 23713, Note_off_c, 0, 72, 119
1, 23730, Note_on_c, 0, 75, 118
1, 23849, Note_off_c, 0, 75, 118
1, 23903, Note_on_c, 0, 72, 114
1, 24022, Note_off_c, 0, 72, 114
1, 24070, Note_on_c, 0, 66, 100
1, 24199, Note_off_c, 0, 66, 100
1, 24372, Note_on_c, 0, 63, 96
1, 24546, Note_off_c, 0, 63, 96
1, 24556, Note_on_c, 0, 60, 96
1, 24666, Note_off_c, 0, 60, 96
1, 24682, Note_on_c, 0, 63, 85
1, 24739, Note_off_c, 0, 63, 85
1, 24769, Note_on_c, 0, 67, 107
1, 24840, Note_off_c, 0, 67, 107
1, 24868, Note_on_c, 0, 72, 115
1, 24964, Note_off_c, 0, 72, 115
1, 24973, Note_on_c, 0, 67, 99
1, 25061, Note_off_c, 0, 67, 99
1, 25080, Note_on_c, 0, 65, 104
1, 25146, Note_off_c, 0, 65, 104
1, 25172, Note_on_c, 0, 63, 99
1, 25264, Note_off_c, 0, 63, 99
1, 25283, Note_on_c, 0, 60, 97
1, 25340, Note_off_c, 0, 60, 97
1, 25374, Note_on_c, 0, 63, 104
1, 25448, Note_off_c, 0, 63, 104
1, 25460, Note_on_c, 0, 66, 105
1, 25527, Note_off_c, 0, 66, 105
1, 25528, Note_on_c, 0, 67, 103
1, 25644, Note_off_c, 0, 67, 103
1, 25650, Note_on_c, 0, 66, 102
1, 25724, Note_off_c, 0, 66, 102
1, 25727, Note_on_c, 0, 67, 102
1, 25940, Note_off_c, 0, 67, 102
1, 25949, Note_on_c, 0, 63, 106
1, 26051, Note_off_c, 0, 63, 106
1, 26056, Note_on_c, 0, 58, 102
1, 26132, Note_off_c, 0, 58, 102
1, 26148, Note_on_c, 0, 55, 101
1, 26254, Note_off_c, 0, 55, 101
1, 26261, Note_on_c, 0, 56, 97
1, 26292, Note_off_c, 0, 56, 97
1, 26312, Note_on_c, 0, 58, 101
1, 26428, Note_off_c, 0, 58, 101
1, 26435, Note_on_c, 0, 63, 88
1, 26668, Note_off_c, 0, 63, 88
1, 26838, Note_on_c, 0, 67, 87
1, 26907, Note_off_c, 0, 67, 87
1, 26914, Note_on_c, 0, 72, 106
1, 27017, Note_off_c, 0, 72, 106
1, 27247, Note_on_c, 0, 67, 88
1, 27318, Note_off_c, 0, 67, 88
1, 27320, Note_on_c, 0, 72, 100
1, 27413, Note_off_c, 0, 72, 100
1, 27508, Note_on_c, 0, 75, 121
1, 27754, Note_off_c, 0, 75, 121
1, 27759, Note_on_c, 0, 72, 100
1, 27828, Note_off_c, 0, 72, 100
1, 27961, Note_on_c, 0, 75, 111
1, 28250, Note_off_c, 0, 75, 111
1, 28292, Note_on_c, 0, 72, 114
1, 28365, Note_off_c, 0, 72, 114
1, 28398, Note_on_c, 0, 67, 97
1, 28483, Note_off_c, 0, 67, 97
1, 28516, Note_on_c, 0, 63, 98
1, 28583, Note_off_c, 0, 63, 98
1, 29184, Note_on_c, 0, 67, 99
1, 29259, Note_off_c, 0, 67, 99
1, 29288, Note_on_c, 0, 70, 113
1, 29367, Note_off_c, 0, 70, 113
1, 29378, Note_on_c, 0, 67, 100
1, 29463, Note_off_c, 0, 67, 100
1, 29485, Note_on_c, 0, 65, 104
1, 29553, Note_off_c, 0, 65, 104
1, 29574, Note_on_c, 0, 63, 100
1, 29642, Note_off_c, 0, 63, 100
1, 29652, Note_on_c, 0, 65, 100
1, 29684, Note_off_c, 0, 65, 100
1, 29690, Note_on_c, 0, 63, 102
1, 29741, Note_off_c, 0, 63, 102
1, 29756, Note_on_c, 0, 62, 98
1, 29853, Note_off_c, 0, 62, 98
1, 29863, Note_on_c, 0, 65, 103
1, 29946, Note_off_c, 0, 65, 103
1, 29960, Note_on_c, 0, 63, 104
1, 30065, Note_off_c, 0, 63, 104
1, 30105, Note_on_c, 0, 58, 98
1, 30170, Note_off_c, 0, 58, 98
1, 30241, Note_on_c, 0, 58, 88
1, 30423, Note_off_c, 0, 58, 88
1, 30438, Note_on_c, 0, 58, 97
1, 30500, Note_off_c, 0, 58, 97
1, 31483, Note_on_c, 0, 70, 116
1, 31585, Note_off_c, 0, 70, 116
1, 31595, Note_on_c, 0, 72, 92
1, 31624, Note_off_c, 0, 72, 92
1, 31633, Note_on_c, 0, 70, 112
1, 31692, Note_off_c, 0, 70, 112
1, 31709, Note_on_c, 0, 68, 86
1, 31793, Note_off_c, 0, 68, 86
1, 32285, Note_on_c, 0, 67, 92
1, 32432, Note_off_c, 0, 67, 92
1, 32443, Note_on_c, 0, 70, 112
1, 32552, Note_off_c, 0, 70, 112
1, 32560, Note_on_c, 0, 71, 112
1, 32652, Note_off_c, 0, 71, 112
1, 32661, Note_on_c, 0, 72, 113
1, 32761, Note_off_c, 0, 72, 113
1, 32769, Note_on_c, 0, 73, 105
1, 32831, Note_off_c, 0, 73, 105
1, 32843, Note_on_c, 0, 74, 116
1, 32953, Note_off_c, 0, 74, 116
1, 32962, Note_on_c, 0, 75, 115
1, 33046, Note_off_c, 0, 75, 115
1, 33058, Note_on_c, 0, 77, 116
1, 33146, Note_off_c, 0, 77, 116
1, 33156, Note_on_c, 0, 75, 115
1, 33248, Note_off_c, 0, 75, 115
1, 33253, Note_on_c, 0, 74, 110
1, 33345, Note_off_c, 0, 74, 110
1, 33347, Note_on_c, 0, 77, 114
1, 33431, Note_off_c, 0, 77, 114
1, 33446, Note_on_c, 0, 75, 113
1, 33542, Note_off_c, 0, 75, 113
1, 33747, Note_on_c, 0, 72, 111
1, 33806, Note_off_c, 0, 72, 111
1, 33813, Note_on_c, 0, 75, 112
1, 33913, Note_off_c, 0, 75, 112
1, 33917, Note_on_c, 0, 77, 112
1, 33959, Note_off_c, 0, 77, 112
1, 33964, Note_on_c, 0, 75, 115
1, 34021, Note_off_c, 0, 75, 115
1, 34028, Note_on_c, 0, 72, 103
1, 34119, Note_off_c, 0, 72, 103
1, 34140, Note_on_c, 0, 75, 111
1, 34198, Note_off_c, 0, 75, 111
1, 34206, Note_on_c, 0, 77, 110
1, 34334, Note_off_c, 0, 77, 110
1, 34340, Note_on_c, 0, 75, 107
1, 34418, Note_off_c, 0, 75, 107
1, 34483, Note_on_c, 0, 75, 94
1, 34781, Note_off_c, 0, 75, 94
1, 35241, Note_on_c, 0, 71, 103
1, 35296, Note_off_c, 0, 71, 103
1, 35322, Note_on_c, 0, 82, 108
1, 35448, Note_off_c, 0, 82, 108
1, 35454, Note_on_c, 0, 80, 110
1, 35550, Note_off_c, 0, 80, 110
1, 36494, Note_on_c, 0, 79, 112
1, 36579, Note_off_c, 0, 79, 112
1, 36669, Note_on_c, 0, 84, 114
1, 36792, Note_off_c, 0, 84, 114
1, 36802, Note_on_c, 0, 86, 111
1, 36880, Note_off_c, 0, 86, 111
1, 37360, Note_on_c, 0, 79, 96
1, 37418, Note_off_c, 0, 79, 96
1, 37438, Note_on_c, 0, 85, 112
1, 37548, Note_off_c, 0, 85, 112
1, 37553, Note_on_c, 0, 86, 118
1, 37638, Note_off_c, 0, 86, 118
1, 37657, Note_on_c, 0, 84, 105
1, 38295, Note_off_c, 0, 84, 105
1, 38422, Note_on_c, 0, 79, 113
1, 38511, Note_off_c, 0, 79, 113
1, 38514, Note_on_c, 0, 80, 103
1, 38542, Note_off_c, 0, 80, 103
1, 38547, Note_on_c, 0, 79, 111
1, 38592, Note_off_c, 0, 79, 111
1, 38598, Note_on_c, 0, 75, 111
1, 38692, Note_off_c, 0, 75, 111
1, 38704, Note_on_c, 0, 79, 115
1, 38779, Note_off_c, 0, 79, 115
1, 38786, Note_on_c, 0, 77, 109
1, 38876, Note_off_c, 0, 77, 109
1, 38883, Note_on_c, 0, 79, 110
1, 38904, Note_off_c, 0, 79, 110
1, 38908, Note_on_c, 0, 77, 113
1, 38964, Note_off_c, 0, 77, 113
1, 38981, Note_on_c, 0, 72, 105
1, 39059, Note_off_c, 0, 72, 105
1, 39071, Note_on_c, 0, 75, 115
1, 39160, Note_off_c, 0, 75, 115
1, 39170, Note_on_c, 0, 74, 114
1, 39272, Note_off_c, 0, 74, 114
1, 39307, Note_on_c, 0, 70, 101
1, 39370, Note_off_c, 0, 70, 101
1, 39460, Note_on_c, 0, 70, 107
1, 39655, Note_off_c, 0, 70, 107
1, 39930, Note_on_c, 0, 74, 115
1, 40050, Note_off_c, 0, 74, 115
1, 40333, Note_on_c, 0, 77, 113
1, 40451, Note_off_c, 0, 77, 113
1, 40459, Note_on_c, 0, 75, 110
1, 40527, Note_off_c, 0, 75, 110
1, 41046, Note_on_c, 0, 69, 97
1, 41104, Note_off_c, 0, 69, 97
1, 41116, Note_on_c, 0, 72, 74
1, 41227, Note_off_c, 0, 72, 74
1, 41246, Note_on_c, 0, 75, 109
1, 41297, Note_off_c, 0, 75, 109
1, 41304, Note_on_c, 0, 79, 109
1, 41497, Note_off_c, 0, 79, 109
1, 41509, Note_on_c, 0, 75, 116
1, 41604, Note_off_c, 0, 75, 116
1, 41632, Note_on_c, 0, 70, 102
1, 41723, Note_off_c, 0, 70, 102
1, 41893, Note_on_c, 0, 68, 95
1, 41990, Note_off_c, 0, 68, 95
1, 42002, Note_on_c, 0, 66, 90
1, 42037, Note_off_c, 0, 66, 90
1, 42059, Note_on_c, 0, 67, 100
1, 42169, Note_off_c, 0, 67, 100
1, 42186, Note_on_c, 0, 70, 93
1, 42476, Note_off_c, 0, 70, 93
1, 43375, Note_on_c, 0, 79, 119
1, 43468, Note_off_c, 0, 79, 119
1, 43471, Note_on_c, 0, 80, 116
1, 43519, Note_off_c, 0, 80, 116
1, 43521, Note_on_c, 0, 81, 117
1, 43560, Note_off_c, 0, 81, 117
1, 43562, Note_on_c, 0, 82, 110
1, 43608, Note_off_c, 0, 82, 110
1, 43627, Note_on_c, 0, 83, 112
1, 43656, Note_off_c, 0, 83, 112
1, 43661, Note_on_c, 0, 84, 112
1, 43701, Note_off_c, 0, 84, 112
1, 43708, Note_on_c, 0, 85, 120
1, 43750, Note_off_c, 0, 85, 120
1, 43754, Note_on_c, 0, 86, 111
1, 43793, Note_off_c, 0, 86, 111
1, 43797, Note_on_c, 0, 87, 111
1, 43856, Note_off_c, 0, 87, 111
1, 43866, Note_on_c, 0, 86, 112
1, 43908, Note_off_c, 0, 86, 112
1, 43915, Note_on_c, 0, 85, 114
1, 43963, Note_off_c, 0, 85, 114
1, 43970, Note_on_c, 0, 84, 111
1, 44046, Note_off_c, 0, 84, 111
1, 44547, Note_on_c, 0, 82, 111
1, 44727, Note_off_c, 0, 82, 111
1, 44737, Note_on_c, 0, 79, 115
1, 44832, Note_off_c, 0, 79, 115
1, 44839, Note_on_c, 0, 82, 110
1, 44927, Note_off_c, 0, 82, 110
1, 44941, Note_on_c, 0, 80, 109
1, 45033, Note_off_c, 0, 80, 109
1, 45075, Note_on_c, 0, 75, 103
1, 45144, Note_off_c, 0, 75, 103
1, 45325, Note_on_c, 0, 77, 113
1, 45445, Note_off_c, 0, 77, 113
1, 45458, Note_on_c, 0, 73, 100
1, 45523, Note_off_c, 0, 73, 100
1, 45649, Note_on_c, 0, 75, 113
1, 45762, Note_off_c, 0, 75, 113
1, 45832, Note_on_c, 0, 72, 94
1, 45890, Note_off_c, 0, 72, 94
1, 46080, Note_on_c, 0, 73, 110
1, 46175, Note_off_c, 0, 73, 110
1, 46280, Note_on_c, 0, 74, 116
1, 46392, Note_off_c, 0, 74, 116
1, 46477, Note_on_c, 0, 75, 112
1, 46785, Note_off_c, 0, 75, 112
1, 46803, Note_on_c, 0, 72, 97
1, 46862, Note_off_c, 0, 72, 97
1, 46871, Note_on_c, 0, 77, 108
1, 46985, Note_off_c, 0, 77, 108
1, 46991, Note_on_c, 0, 75, 114
1, 47060, Note_off_c, 0, 75, 114
1, 47626, Note_on_c, 0, 71, 115
1, 47746, Note_off_c, 0, 71, 115
1, 47754, Note_on_c, 0, 70, 111
1, 47823, Note_off_c, 0, 70, 111
1, 48422, Note_on_c, 0, 66, 98
1, 48513, Note_off_c, 0, 66, 98
1, 48522, Note_on_c, 0, 67, 91
1, 48574, Note_off_c, 0, 67, 91
1, 48587, Note_on_c, 0, 68, 94
1, 48704, Note_off_c, 0, 68, 94
1, 48887, Note_on_c, 0, 66, 95
1, 48961, Note_off_c, 0, 66, 95
1, 48991, Note_on_c, 0, 67, 87
1, 49068, Note_off_c, 0, 67, 87
1, 49082, Note_on_c, 0, 70, 108
1, 49151, Note_off_c, 0, 70, 108
1, 49162, Note_on_c, 0, 74, 115
1, 49250, Note_off_c, 0, 74, 115
1, 49261, Note_on_c, 0, 77, 115
1, 49343, Note_off_c, 0, 77, 115
1, 49350, Note_on_c, 0, 76, 110
1, 49429, Note_off_c, 0, 76, 110
1, 49444, Note_on_c, 0, 74, 114
1, 49507, Note_off_c, 0, 74, 114
1, 49515, Note_on_c, 0, 75, 111
1, 49625, Note_off_c, 0, 75, 111
1, 49663, Note_on_c, 0, 72, 100
1, 49704, Note_off_c, 0, 72, 100
1, 49904, Note_on_c, 0, 69, 102
1, 49996, Note_off_c, 0, 69, 102
1, 50088, Note_on_c, 0, 75, 117
1, 50196, Note_off_c, 0, 75, 117
1, 50212, Note_on_c, 0, 79, 116
1, 50303, Note_off_c, 0, 79, 116
1, 50313, Note_on_c, 0, 78, 105
1, 50379, Note_off_c, 0, 78, 105
1, 50409, Note_on_c, 0, 74, 116
1, 50483, Note_off_c, 0, 74, 116
1, 50496, Note_on_c, 0, 70, 103
1, 50581, Note_off_c, 0, 70, 103
1, 50596, Note_on_c, 0, 69, 104
1, 50654, Note_off_c, 0, 69, 104
1, 50668, Note_on_c, 0, 68, 94
1, 50757, Note_off_c, 0, 68, 94
1, 50787, Note_on_c, 0, 72, 110
1, 50847, Note_off_c, 0, 72, 110
1, 50866, Note_on_c, 0, 71, 103
1, 50943, Note_off_c, 0, 71, 103
1, 50997, Note_on_c, 0, 65, 93
1, 51036, Note_off_c, 0, 65, 93
1, 51065, Note_on_c, 0, 70, 104
1, 51135, Note_off_c, 0, 70, 104
1, 51351, Note_on_c, 0, 70, 93
1, 51417, Note_off_c, 0, 70, 93
1, 51421, Note_on_c, 0, 75, 115
1, 51532, Note_off_c, 0, 75, 115
1, 51542, Note_on_c, 0, 70, 80
1, 51628, Note_off_c, 0, 70, 80
1, 51720, Note_on_c, 0, 75, 108
1, 51821, Note_off_c, 0, 75, 108
1, 51939, Note_on_c, 0, 75, 118
1, 52000, Note_off_c, 0, 75, 118
1, 52011, Note_on_c, 0, 78, 113
1, 52108, Note_off_c, 0, 78, 113
1, 52116, Note_on_c, 0, 79, 113
1, 52183, Note_off_c, 0, 79, 113
1, 52187, Note_on_c, 0, 75, 114
1, 52312, Note_off_c, 0, 75, 114
1, 52314, Note_on_c, 0, 77, 102
1, 52384, Note_off_c, 0, 77, 102
1, 52467, Note_on_c, 0, 75, 90
1, 52727, Note_off_c, 0, 75, 90
1, 53305, Note_on_c, 0, 87, 117
1, 53411, Note_off_c, 0, 87, 117
1, 54068, Note_on_c, 0, 87, 119
1, 54183, Note_off_c, 0, 87, 119
1, 54276, Note_on_c, 0, 85, 116
1, 54371, Note_off_c, 0, 85, 116
1, 54381, Note_on_c, 0, 84, 116
1, 54457, Note_off_c, 0, 84, 116
1, 54476, Note_on_c, 0, 82, 106
1, 54581, Note_off_c, 0, 82, 106
1, 54599, Note_on_c, 0, 84, 114
1, 54673, Note_off_c, 0, 84, 114
1, 54764, Note_on_c, 0, 82, 104
1, 55023, Note_off_c, 0, 82, 104
1, 55047, Note_on_c, 0, 80, 109
1, 55127, Note_off_c, 0, 80, 109
1, 55141, Note_on_c, 0, 78, 115
1, 55211, Note_off_c, 0, 78, 115
1, 55234, Note_on_c, 0, 75, 112
1, 55351, Note_off_c, 0, 75, 112
1, 55363, Note_on_c, 0, 77, 109
1, 55431, Note_off_c, 0, 77, 109
1, 55516, Note_on_c, 0, 75, 102
1, 55800, Note_off_c, 0, 75, 102
1, 56332, Note_on_c, 0, 78, 119
1, 56376, Note_off_c, 0, 78, 119
1, 56379, Note_on_c, 0, 79, 105
1, 56413, Note_off_c, 0, 79, 105
1, 56416, Note_on_c, 0, 78, 113
1, 56450, Note_off_c, 0, 78, 113
1, 56453, Note_on_c, 0, 75, 114
1, 56531, Note_off_c, 0, 75, 114
1, 56538, Note_on_c, 0, 77, 114
1, 56583, Note_off_c, 0, 77, 114
1, 56585, Note_on_c, 0, 79, 101
1, 56606, Note_off_c, 0, 79, 101
1, 56608, Note_on_c, 0, 77, 109
1, 56635, Note_off_c, 0, 77, 109
1, 56637, Note_on_c, 0, 73, 112
1, 56710, Note_off_c, 0, 73, 112
1, 56716, Note_on_c, 0, 75, 116
1, 56834, Note_off_c, 0, 75, 116
1, 56846, Note_on_c, 0, 75, 116
1, 56899, Note_off_c, 0, 75, 116
1, 56909, Note_on_c, 0, 77, 111
1, 56987, Note_off_c, 0, 77, 111
1, 57365, Note_on_c, 0, 75, 104
1, 57441, Note_off_c, 0, 75, 104
1, 57445, Note_on_c, 0, 78, 118
1, 57502, Note_off_c, 0, 78, 118
1, 57504, Note_on_c, 0, 79, 109
1, 57532, Note_off_c, 0, 79, 109
1, 57538, Note_on_c, 0, 77, 109
1, 57560, Note_off_c, 0, 77, 109
1, 57564, Note_on_c, 0, 75, 110
1, 57620, Note_off_c, 0, 75, 110
1, 57625, Note_on_c, 0, 77, 111
1, 57735, Note_off_c, 0, 77, 111
1, 57744, Note_on_c, 0, 75, 108
1, 57999, Note_off_c, 0, 75, 108
1, 58007, Note_on_c, 0, 77, 110
1, 58104, Note_off_c, 0, 77, 110
1, 58496, Note_on_c, 0, 75, 101
1, 58567, Note_off_c, 0, 75, 101
1, 58568, Note_on_c, 0, 78, 114
1, 58738, Note_off_c, 0, 78, 114
1, 58752, Note_on_c, 0, 75, 112
1, 58885, Note_off_c, 0, 75, 112
1, 58890, Note_on_c, 0, 73, 95
1, 58936, Note_off_c, 0, 73, 95
1, 58951, Note_on_c, 0, 75, 110
1, 59235, Note_off_c, 0, 75, 110
1, 59523, Note_on_c, 0, 81, 112
1, 59625, Note_off_c, 0, 81, 112
1, 59637, Note_on_c, 0, 80, 111
1, 59719, Note_off_c, 0, 80, 111
1, 59729, Note_on_c, 0, 78, 116
1, 59836, Note_off_c, 0, 78, 116
1, 59843, Note_on_c, 0, 75, 106
1, 59912, Note_off_c, 0, 75, 106
1, 60810, Note_on_c, 0, 81, 106
1, 60942, Note_off_c, 0, 81, 106
1, 60947, Note_on_c, 0, 80, 97
1, 60984, Note_off_c, 0, 80, 97
1, 60990, Note_on_c, 0, 78, 111
1, 61118, Note_off_c, 0, 78, 111
1, 61124, Note_on_c, 0, 75, 117
1, 61359, Note_off_c, 0, 75, 117
1, 61373, Note_on_c, 0, 72, 103
1, 61475, Note_off_c, 0, 72, 103
1, 61567, Note_on_c, 0, 79, 115
1, 61671, Note_off_c, 0, 79, 115
1, 61675, Note_on_c, 0, 84, 118
1, 61768, Note_off_c, 0, 84, 118
1, 61779, Note_on_c, 0, 79, 111
1, 61861, Note_off_c, 0, 79, 111
1, 61869, Note_on_c, 0, 77, 114
1, 61946, Note_off_c, 0, 77, 114
1, 61954, Note_on_c, 0, 75, 114
1, 62032, Note_off_c, 0, 75, 114
1, 62037, Note_on_c, 0, 77, 99
1, 62068, Note_off_c, 0, 77, 99
1, 62071, Note_on_c, 0, 75, 115
1, 62122, Note_off_c, 0, 75, 115
1, 62128, Note_on_c, 0, 72, 105
1, 62231, Note_off_c, 0, 72, 105
1, 62237, Note_on_c, 0, 75, 112
1, 62488, Note_off_c, 0, 75, 112
1, 62525, Note_on_c, 0, 72, 102
1, 62563, Note_off_c, 0, 72, 102
1, 62627, Note_on_c, 0, 79, 109
1, 62681, Note_off_c, 0, 79, 109
1, 62693, Note_on_c, 0, 84, 113
1, 62801, Note_off_c, 0, 84, 113
1, 62809, Note_on_c, 0, 87, 96
1, 62895, Note_off_c, 0, 87, 96
1, 63739, Note_on_c, 0, 91, 127
1, 63831, Note_off_c, 0, 91, 127
1, 64199, Note_on_c, 0, 91, 99
1, 64497, Note_off_c, 0, 91, 99
1, 64512, Note_on_c, 0, 91, 114
1, 64604, Note_off_c, 0, 91, 114
1, 65331, Note_on_c, 0, 87, 111
1, 65425, Note_off_c, 0, 87, 111
1, 66098, Note_on_c, 0, 85, 120
1, 66215, Note_off_c, 0, 85, 120
1, 66228, Note_on_c, 0, 83, 112
1, 66297, Note_off_c, 0, 83, 112
1, 66321, Note_on_c, 0, 82, 99
1, 66393, Note_off_c, 0, 82, 99
1, 66863, Note_on_c, 0, 80, 111
1, 66943, Note_off_c, 0, 80, 111
1, 66951, Note_on_c, 0, 81, 91
1, 66979, Note_off_c, 0, 81, 91
1, 66989, Note_on_c, 0, 80, 106
1, 67044, Note_off_c, 0, 80, 106
1, 67045, Note_on_c, 0, 78, 107
1, 67137, Note_off_c, 0, 78, 107
1, 67147, Note_on_c, 0, 79, 109
1, 67221, Note_off_c, 0, 79, 109
1, 67239, Note_on_c, 0, 80, 115
1, 67347, Note_off_c, 0, 80, 115
1, 67360, Note_on_c, 0, 78, 99
1, 67408, Note_off_c, 0, 78, 99
1, 67414, Note_on_c, 0, 79, 114
1, 67500, Note_off_c, 0, 79, 114
1, 67517, Note_on_c, 0, 75, 114
1, 67595, Note_off_c, 0, 75, 114
1, 67608, Note_on_c, 0, 77, 107
1, 67682, Note_off_c, 0, 77, 107
1, 67687, Note_on_c, 0, 79, 80
1, 67711, Note_off_c, 0, 79, 80
1, 67718, Note_on_c, 0, 77, 109
1, 67786, Note_off_c, 0, 77, 109
1, 67796, Note_on_c, 0, 73, 109
1, 67874, Note_off_c, 0, 73, 109
1, 67892, Note_on_c, 0, 77, 113
1, 67960, Note_off_c, 0, 77, 113
1, 67965, Note_on_c, 0, 76, 109
1, 68064, Note_off_c, 0, 76, 109
1, 68101, Note_on_c, 0, 72, 94
1, 68148, Note_off_c, 0, 72, 94
1, 68163, Note_on_c, 0, 75, 117
1, 68255, Note_off_c, 0, 75, 117
1, 68267, Note_on_c, 0, 74, 113
1, 68356, Note_off_c, 0, 74, 113
1, 68364, Note_on_c, 0, 73, 108
1, 68469, Note_off_c, 0, 73, 108
1, 68554, Note_on_c, 0, 65, 95
1, 68631, Note_off_c, 0, 65, 95
1, 68730, Note_on_c, 0, 68, 95
1, 68889, Note_off_c, 0, 68, 95
1, 68927, Note_on_c, 0, 72, 108
1, 69007, Note_off_c, 0, 72, 108
1, 69105, Note_on_c, 0, 75, 108
1, 69383, Note_off_c, 0, 75, 108
1, 69412, Note_on_c, 0, 72, 110
1, 69465, Note_off_c, 0, 72, 110
1, 69489, Note_on_c, 0, 67, 95
1, 69586, Note_off_c, 0, 67, 95
1, 69609, Note_on_c, 0, 65, 97
1, 69668, Note_off_c, 0, 65, 97
1, 70336, Note_on_c, 0, 63, 100
1, 70387, Note_off_c, 0, 63, 100
1, 70390, Note_on_c, 0, 60, 87
1, 70460, Note_off_c, 0, 60, 87
1, 70479, Note_on_c, 0, 67, 101
1, 70575, Note_off_c, 0, 67, 101
1, 70592, Note_on_c, 0, 70, 115
1, 70704, Note_off_c, 0, 70, 115
1, 71073, Note_on_c, 0, 67, 105
1, 71151, Note_off_c, 0, 67, 105
1, 71160, Note_on_c, 0, 68, 93
1, 71245, Note_off_c, 0, 68, 93
1, 71259, Note_on_c, 0, 63, 86
1, 71522, Note_off_c, 0, 63, 86
1, 72182, Note_on_c, 0, 66, 98
1, 72252, Note_off_c, 0, 66, 98
1, 72264, Note_on_c, 0, 67, 84
1, 72307, Note_off_c, 0, 67, 84
1, 72337, Note_on_c, 0, 70, 100
1, 72360, Note_off_c, 0, 70, 100
1, 72365, Note_on_c, 0, 74, 114
1, 72437, Note_off_c, 0, 74, 114
1, 72459, Note_on_c, 0, 77, 112
1, 72550, Note_off_c, 0, 77, 112
1, 72765, Note_on_c, 0, 70, 102
1, 72814, Note_off_c, 0, 70, 102
1, 72834, Note_on_c, 0, 74, 110
1, 72914, Note_off_c, 0, 74, 110
1, 72989, Note_on_c, 0, 77, 108
1, 73042, Note_off_c, 0, 77, 108
1, 73045, Note_on_c, 0, 79, 110
1, 73076, Note_off_c, 0, 79, 110
1, 73079, Note_on_c, 0, 77, 105
1, 73100, Note_off_c, 0, 77, 105
1, 73107, Note_on_c, 0, 74, 111
1, 73175, Note_off_c, 0, 74, 111
1, 73198, Note_on_c, 0, 76, 111
1, 73285, Note_off_c, 0, 76, 111
1, 73329, Note_on_c, 0, 72, 86
1, 73378, Note_off_c, 0, 72, 86
1, 73674, Note_on_c, 0, 75, 104
1, 73709, Note_off_c, 0, 75, 104
1, 73713, Note_on_c, 0, 72, 96
1, 73759, Note_off_c, 0, 72, 96
1, 73782, Note_on_c, 0, 79, 105
1, 73836, Note_off_c, 0, 79, 105
1, 73839, Note_on_c, 0, 84, 113
1, 73909, Note_off_c, 0, 84, 113
1, 73926, Note_on_c, 0, 79, 112
1, 74105, Note_off_c, 0, 79, 112
1, 74128, Note_on_c, 0, 72, 99
1, 74194, Note_off_c, 0, 72, 99
1, 74307, Note_on_c, 0, 75, 109
1, 74481, Note_off_c, 0, 75, 109
1, 74495, Note_on_c, 0, 72, 105
1, 74597, Note_off_c, 0, 72, 105
1, 74687, Note_on_c, 0, 79, 115
1, 74792, Note_off_c, 0, 79, 115
1, 74796, Note_on_c, 0, 82, 106
1, 74880, Note_off_c, 0, 82, 106
1, 74887, Note_on_c, 0, 79, 112
1, 74978, Note_off_c, 0, 79, 112
1, 74984, Note_on_c, 0, 77, 109
1, 75056, Note_off_c, 0, 77, 109
1, 75062, Note_on_c, 0, 75, 109
1, 75160, Note_off_c, 0, 75, 109
1, 75173, Note_on_c, 0, 70, 80
1, 75253, Note_off_c, 0, 70, 80
1, 75419, Note_on_c, 0, 75, 111
1, 75512, Note_off_c, 0, 75, 111
1, 75514, Note_on_c, 0, 77, 113
1, 75568, Note_off_c, 0, 77, 113
1, 75573, Note_on_c, 0, 75, 108
1, 75607, Note_off_c, 0, 75, 108
1, 75617, Note_on_c, 0, 74, 107
1, 75703, Note_off_c, 0, 74, 107
1, 75711, Note_on_c, 0, 77, 111
1, 75791, Note_off_c, 0, 77, 111
1, 75798, Note_on_c, 0, 75, 108
1, 75896, Note_off_c, 0, 75, 108
1, 75917, Note_on_c, 0, 66, 75
1, 76019, Note_off_c, 0, 66, 75
1, 76090, Note_on_c, 0, 70, 98
1, 76175, Note_off_c, 0, 70, 98
1, 76183, Note_on_c, 0, 74, 113
1, 76282, Note_off_c, 0, 74, 113
1, 76288, Note_on_c, 0, 77, 113
1, 76368, Note_off_c, 0, 77, 113
1, 76373, Note_on_c, 0, 76, 105
1, 76479, Note_off_c, 0, 76, 105
1, 76492, Note_on_c, 0, 74, 110
1, 76552, Note_off_c, 0, 74, 110
1, 76563, Note_on_c, 0, 75, 115
1, 76649, Note_off_c, 0, 75, 115
1, 77115, Note_on_c, 0, 69, 106
1, 77187, Note_off_c, 0, 69, 106
1, 77193, Note_on_c, 0, 74, 111
1, 77229, Note_off_c, 0, 74, 111
1, 77234, Note_on_c, 0, 75, 113
1, 77258, Note_off_c, 0, 75, 113
1, 77264, Note_on_c, 0, 79, 111
1, 77305, Note_off_c, 0, 79, 111
1, 77315, Note_on_c, 0, 78, 106
1, 77384, Note_off_c, 0, 78, 106
1, 77410, Note_on_c, 0, 74, 100
1, 77468, Note_off_c, 0, 74, 100
1, 78045, Note_on_c, 0, 77, 112
1, 78097, Note_off_c, 0, 77, 112
1, 78100, Note_on_c, 0, 79, 115
1, 78131, Note_off_c, 0, 79, 115
1, 78135, Note_on_c, 0, 77, 107
1, 78173, Note_off_c, 0, 77, 107
1, 78181, Note_on_c, 0, 74, 99
1, 78225, Note_off_c, 0, 74, 99
1, 78242, Note_on_c, 0, 76, 112
1, 78296, Note_off_c, 0, 76, 112
1, 78299, Note_on_c, 0, 79, 110
1, 78324, Note_off_c, 0, 79, 110
1, 78327, Note_on_c, 0, 76, 114
1, 78376, Note_off_c, 0, 76, 114
1, 78378, Note_on_c, 0, 74, 116
1, 78450, Note_off_c, 0, 74, 116
1, 78457, Note_on_c, 0, 75, 115
1, 78542, Note_off_c, 0, 75, 115
1, 78566, Note_on_c, 0, 70, 107
1, 78627, Note_off_c, 0, 70, 107
1, 78640, Note_on_c, 0, 67, 88
1, 78732, Note_off_c, 0, 67, 88
1, 78740, Note_on_c, 0, 68, 90
1, 78780, Note_off_c, 0, 68, 90
1, 78793, Note_on_c, 0, 70, 112
1, 78887, Note_off_c, 0, 70, 112
1, 79268, Note_on_c, 0, 75, 106
1, 79332, Note_off_c, 0, 75, 106
1, 79342, Note_on_c, 0, 79, 117
1, 79442, Note_off_c, 0, 79, 117
1, 79457, Note_on_c, 0, 82, 108
1, 79534, Note_off_c, 0, 82, 108
1, 80277, Note_on_c, 0, 85, 114
1, 80397, Note_off_c, 0, 85, 114
1, 80466, Note_on_c, 0, 84, 111
1, 80558, Note_off_c, 0, 84, 111
1, 80568, Note_on_c, 0, 83, 114
1, 80666, Note_off_c, 0, 83, 114
1, 80683, Note_on_c, 0, 81, 112
1, 80780, Note_off_c, 0, 81, 112
1, 81760, Note_on_c, 0, 84, 109
1, 82016, Note_off_c, 0, 84, 109
1, 82067, Note_on_c, 0, 82, 110
1, 82149, Note_off_c, 0, 82, 110
1, 82173, Note_on_c, 0, 80, 106
1, 82283, Note_off_c, 0, 80, 106
1, 82303, Note_on_c, 0, 82, 107
1, 82371, Note_off_c, 0, 82, 107
1, 82460, Note_on_c, 0, 80, 102
1, 82688, Note_off_c, 0, 80, 102
1, 82710, Note_on_c, 0, 78, 111
1, 82802, Note_off_c, 0, 78, 111
1, 82812, Note_on_c, 0, 77, 110
1, 82897, Note_off_c, 0, 77, 110
1, 82915, Note_on_c, 0, 75, 111
1, 83008, Note_off_c, 0, 75, 111
1, 83011, Note_on_c, 0, 77, 107
1, 83082, Note_off_c, 0, 77, 107
1, 83092, Note_on_c, 0, 75, 104
1, 83181, Note_off_c, 0, 75, 104
1, 83189, Note_on_c, 0, 77, 97
1, 83503, Note_off_c, 0, 77, 97
1, 84108, Note_on_c, 0, 75, 108
1, 84172, Note_off_c, 0, 75, 108
1, 84181, Note_on_c, 0, 79, 111
1, 84266, Note_off_c, 0, 79, 111
1, 84735, Note_on_c, 0, 82, 113
1, 84854, Note_off_c, 0, 82, 113
1, 85035, Note_on_c, 0, 79, 106
1, 85111, Note_off_c, 0, 79, 106
1, 85126, Note_on_c, 0, 82, 109
1, 85234, Note_off_c, 0, 82, 109
1, 85247, Note_on_c, 0, 86, 102
1, 85563, Note_off_c, 0, 86, 102
1, 86044, Note_on_c, 0, 84, 114
1, 86137, Note_off_c, 0, 84, 114
1, 86202, Note_on_c, 0, 87, 104
1, 86284, Note_off_c, 0, 87, 104
1, 86315, Note_on_c, 0, 85, 112
1, 86364, Note_off_c, 0, 85, 112
1, 86368, Note_on_c, 0, 84, 110
1, 86404, Note_off_c, 0, 84, 110
1, 86408, Note_on_c, 0, 83, 118
1, 86494, Note_off_c, 0, 83, 118
1, 86514, Note_on_c, 0, 86, 111
1, 86589, Note_off_c, 0, 86, 111
1, 86598, Note_on_c, 0, 84, 112
1, 86690, Note_off_c, 0, 84, 112
1, 86707, Note_on_c, 0, 79, 112
1, 86800, Note_off_c, 0, 79, 112
1, 86804, Note_on_c, 0, 77, 101
1, 86893, Note_off_c, 0, 77, 101
1, 86900, Note_on_c, 0, 75, 105
1, 86957, Note_off_c, 0, 75, 105
1, 86966, Note_on_c, 0, 79, 111
1, 87074, Note_off_c, 0, 79, 111
1, 87112, Note_on_c, 0, 72, 95
1, 87182, Note_off_c, 0, 72, 95
1, 87258, Note_on_c, 0, 75, 114
1, 87358, Note_off_c, 0, 75, 114
1, 87365, Note_on_c, 0, 74, 111
1, 87469, Note_off_c, 0, 74, 111
1, 87482, Note_on_c, 0, 70, 105
1, 87734, Note_off_c, 0, 70, 105
1, 88064, Note_on_c, 0, 72, 110
1, 88195, Note_off_c, 0, 72, 110
1, 88220, Note_on_c, 0, 77, 112
1, 88383, Note_off_c, 0, 77, 112
1, 88389, Note_on_c, 0, 75, 102
1, 88436, Note_off_c, 0, 75, 102
1, 88443, Note_on_c, 0, 79, 112
1, 88539, Note_off_c, 0, 79, 112
1, 88578, Note_on_c, 0, 72, 91
1, 88627, Note_off_c, 0, 72, 91
1, 89145, Note_on_c, 0, 75, 105
1, 89194, Note_off_c, 0, 75, 105
1, 89218, Note_on_c, 0, 78, 101
1, 89296, Note_off_c, 0, 78, 101
1, 89303, Note_on_c, 0, 79, 111
1, 89386, Note_off_c, 0, 79, 111
1, 89401, Note_on_c, 0, 80, 109
1, 89487, Note_off_c, 0, 80, 109
1, 89503, Note_on_c, 0, 81, 116
1, 89578, Note_off_c, 0, 81, 116
1, 89590, Note_on_c, 0, 82, 108
1, 89676, Note_off_c, 0, 82, 108
1, 89698, Note_on_c, 0, 75, 104
1, 89753, Note_off_c, 0, 75, 104
1, 89772, Note_on_c, 0, 78, 100
1, 89869, Note_off_c, 0, 78, 100
1, 89878, Note_on_c, 0, 79, 110
1, 89950, Note_off_c, 0, 79, 110
1, 89965, Note_on_c, 0, 75, 107
1, 90049, Note_off_c, 0, 75, 107
1, 90058, Note_on_c, 0, 77, 110
1, 90102, Note_off_c, 0, 77, 110
1, 90110, Note_on_c, 0, 75, 105
1, 90147, Note_off_c, 0, 75, 105
1, 90153, Note_on_c, 0, 73, 107
1, 90267, Note_off_c, 0, 73, 107
1, 90273, Note_on_c, 0, 70, 101
1, 90322, Note_off_c, 0, 70, 101
1, 90334, Note_on_c, 0, 73, 113
1, 90459, Note_off_c, 0, 73, 113
1, 90466, Note_on_c, 0, 75, 105
1, 90736, Note_off_c, 0, 75, 105
1, 91336, Note_on_c, 0, 70, 112
1, 91396, Note_off_c, 0, 70, 112
1, 91405, Note_on_c, 0, 73, 114
1, 91521, Note_off_c, 0, 73, 114
1, 91546, Note_on_c, 0, 77, 112
1, 91630, Note_off_c, 0, 77, 112
1, 91721, Note_on_c, 0, 72, 107
1, 91799, Note_off_c, 0, 72, 107
1, 91889, Note_on_c, 0, 75, 97
1, 92135, Note_off_c, 0, 75, 97
1, 92164, Note_on_c, 0, 73, 109
1, 92253, Note_off_c, 0, 73, 109
1, 92351, Note_on_c, 0, 65, 94
1, 92436, Note_off_c, 0, 65, 94
1, 92527, Note_on_c, 0, 68, 96
1, 92693, Note_off_c, 0, 68, 96
1, 92721, Note_on_c, 0, 72, 104
1, 92822, Note_off_c, 0, 72, 104
1, 92897, Note_on_c, 0, 75, 101
1, 93167, Note_off_c, 0, 75, 101
1, 93735, Note_on_c, 0, 68, 93
1, 93802, Note_off_c, 0, 68, 93
1, 93811, Note_on_c, 0, 72, 96
1, 93895, Note_off_c, 0, 72, 96
1, 93912, Note_on_c, 0, 75, 110
1, 93982, Note_off_c, 0, 75, 110
1, 94000, Note_on_c, 0, 77, 114
1, 94074, Note_off_c, 0, 77, 114
1, 94098, Note_on_c, 0, 75, 112
1, 94177, Note_off_c, 0, 75, 112
1, 94190, Note_on_c, 0, 72, 102
1, 94268, Note_off_c, 0, 72, 102
1, 94359, Note_on_c, 0, 75, 98
1, 94611, Note_off_c, 0, 75, 98
1, 95356, Note_on_c, 0, 68, 89
1, 95422, Note_off_c, 0, 68, 89
1, 95426, Note_on_c, 0, 71, 9
1, 95548, Note_off_c, 0, 71, 9
1, 95557, Note_on_c, 0, 75, 9
1, 95658, Note_off_c, 0, 75, 9
1, 96093, Note_on_c, 0, 67, 98
1, 96148, Note_off_c, 0, 67, 98
1, 96152, Note_on_c, 0, 70, 113
1, 96296, Note_off_c, 0, 70, 113
1, 96301, Note_on_c, 0, 74, 116
1, 96341, Note_off_c, 0, 74, 116
1, 96346, Note_on_c, 0, 77, 120
1, 96455, Note_off_c, 0, 77, 120
1, 96478, Note_on_c, 0, 74, 121
1, 96559, Note_off_c, 0, 74, 121
1, 96636, Note_on_c, 0, 77, 109
1, 96812, Note_off_c, 0, 77, 109
1, 96817, Note_on_c, 0, 79, 123
1, 96861, Note_off_c, 0, 79, 123
1, 96865, Note_on_c, 0, 77, 114
1, 96906, Note_off_c, 0, 77, 114
1, 96919, Note_on_c, 0, 76, 111
1, 96993, Note_off_c, 0, 76, 111
1, 97003, Note_on_c, 0, 72, 107
1, 97072, Note_off_c, 0, 72, 107
1, 97084, Note_on_c, 0, 75, 116
1, 97167, Note_off_c, 0, 75, 116
1, 97274, Note_on_c, 0, 78, 116
1, 97345, Note_off_c, 0, 78, 116
1, 97355, Note_on_c, 0, 79, 112
1, 97838, Note_off_c, 0, 79, 112
1, 97914, Note_on_c, 0, 75, 115
1, 97983, Note_off_c, 0, 75, 115
1, 97992, Note_on_c, 0, 78, 115
1, 98082, Note_off_c, 0, 78, 115
1, 98090, Note_on_c, 0, 79, 118
1, 98167, Note_off_c, 0, 79, 118
1, 98175, Note_on_c, 0, 80, 117
1, 98279, Note_off_c, 0, 80, 117
1, 98288, Note_on_c, 0, 79, 118
1, 98358, Note_off_c, 0, 79, 118
1, 98384, Note_on_c, 0, 75, 114
1, 98457, Note_off_c, 0, 75, 114
1, 98467, Note_on_c, 0, 79, 115
1, 98502, Note_off_c, 0, 79, 115
1, 98507, Note_on_c, 0, 75, 117
1, 98538, Note_off_c, 0, 75, 117
1, 98542, Note_on_c, 0, 73, 115
1, 98639, Note_off_c, 0, 73, 115
1, 98655, Note_on_c, 0, 75, 121
1, 98757, Note_off_c, 0, 75, 121
1, 98757, End_track
0, 0, End_of_file
