0, 0, Header, 1, 1, 20160
1, 0, Start_track
1, 0, Title_t, "Melody"
1, 0, Tempo, 983606
1, 0, Key_signature, -3, "major"
1, 0, Time_signature, 4, 2, 24, 8
1, 179635, Note_on_c, 0, 62, 111
1, 183483, Note_off_c, 0, 62, 111
1, 184319, Note_on_c, 0, 63, 104
1, 189673, Note_off_c, 0, 63, 104
1, 199711, Note_on_c, 0, 64, 106
1, 204470, Note_off_c, 0, 64, 106
1, 204737, Note_on_c, 0, 60, 91
1, 206640, Note_off_c, 0, 60, 91
1, 206877, Note_on_c, 0, 65, 115
1, 229839, Note_off_c, 0, 65, 115
1, 230314, Note_on_c, 0, 63, 99
1, 236738, Note_off_c, 0, 63, 99
1, 237689, Note_on_c, 0, 60, 98
1, 262674, Note_off_c, 0, 60, 98
1, 270812, Note_on_c, 0, 55, 111
1, 273405, Note_off_c, 0, 55, 111
1, 274241, Note_on_c, 0, 56, 102
1, 279260, Note_off_c, 0, 56, 102
1, 279594, Note_on_c, 0, 53, 88
1, 314813, Note_off_c, 0, 53, 88
1, 343507, Note_on_c, 0, 56, 110
1, 346936, Note_off_c, 0, 56, 110
1, 347186, Note_on_c, 0, 60, 115
1, 351870, Note_off_c, 0, 60, 115
1, 352204, Note_on_c, 0, 63, 114
1, 356470, Note_off_c, 0, 63, 114
1, 371528, Note_on_c, 0, 63, 105
1, 374790, Note_off_c, 0, 63, 105
1, 376212, Note_on_c, 0, 65, 126
1, 377634, Note_off_c, 0, 65, 126
1, 377634, Note_on_c, 0, 67, 117
1, 381816, Note_off_c, 0, 67, 117
1, 381899, Note_on_c, 0, 65, 123
1, 384408, Note_off_c, 0, 65, 123
1, 384658, Note_on_c, 0, 67, 113
1, 427657, Note_off_c, 0, 67, 113
1, 427991, Note_on_c, 0, 66, 110
1, 433094, Note_off_c, 0, 66, 110
1, 436607, Note_on_c, 0, 65, 105
1, 460365, Note_off_c, 0, 65, 105
1, 461536, Note_on_c, 0, 63, 98
1, 465551, Note_off_c, 0, 63, 98
1, 466052, Note_on_c, 0, 59, 105
1, 470067, Note_off_c, 0, 59, 105
1, 470317, Note_on_c, 0, 56, 107
1, 475838, Note_off_c, 0, 56, 107
1, 476005, Note_on_c, 0, 55, 98
1, 483450, Note_off_c, 0, 55, 98
1, 483868, Note_on_c, 0, 53, 87
1, 502690, Note_off_c, 0, 53, 87
1, 528869, Note_on_c, 0, 54, 87
1, 530177, Note_off_c, 0, 54, 87
1, 530236, Note_on_c, 0, 55, 107
1, 534311, Note_off_c, 0, 55, 107
1, 534311, Note_on_c, 0, 58, 88
1, 535917, Note_off_c, 0, 58, 88
1, 536303, Note_on_c, 0, 60, 114
1, 541895, Note_on_c, 0, 58, 101
1, 541895, Note_off_c, 0, 60, 114
1, 543858, Note_off_c, 0, 58, 101
1, 543858, Note_on_c, 0, 63, 110
1, 550877, Note_off_c, 0, 63, 110
1, 551471, Note_on_c, 0, 63, 101
1, 580918, Note_off_c, 0, 63, 101
1, 615183, Note_on_c, 0, 62, 112
1, 620001, Note_off_c, 0, 62, 112
1, 620417, Note_on_c, 0, 67, 119
1, 626960, Note_off_c, 0, 67, 119
1, 635823, Note_on_c, 0, 62, 111
1, 640403, Note_off_c, 0, 62, 111
1, 640700, Note_on_c, 0, 58, 113
1, 645280, Note_off_c, 0, 58, 113
1, 645458, Note_on_c, 0, 55, 112
1, 657117, Note_off_c, 0, 55, 112
1, 658901, Note_on_c, 0, 61, 111
1, 664730, Note_off_c, 0, 61, 111
1, 700899, Note_on_c, 0, 60, 114
1, 705598, Note_off_c, 0, 60, 114
1, 705835, Note_on_c, 0, 63, 110
1, 710713, Note_off_c, 0, 63, 110
1, 710891, Note_on_c, 0, 60, 110
1, 716185, Note_off_c, 0, 60, 110
1, 716779, Note_on_c, 0, 56, 116
1, 722668, Note_off_c, 0, 56, 116
1, 722846, Note_on_c, 0, 58, 113
1, 735695, Note_off_c, 0, 58, 113
1, 736051, Note_on_c, 0, 55, 103
1, 740988, Note_off_c, 0, 55, 103
1, 741106, Note_on_c, 0, 56, 113
1, 749850, Note_off_c, 0, 56, 113
1, 749957, Note_on_c, 0, 55, 107
1, 751964, Note_off_c, 0, 55, 107
1, 752131, Note_on_c, 0, 54, 105
1, 754808, Note_off_c, 0, 54, 105
1, 755023, Note_on_c, 0, 53, 101
1, 793155, Note_off_c, 0, 53, 101
1, 819746, Note_on_c, 0, 55, 113
1, 823612, Note_off_c, 0, 55, 113
1, 823790, Note_on_c, 0, 53, 109
1, 828965, Note_off_c, 0, 53, 109
1, 829202, Note_on_c, 0, 52, 91
1, 833425, Note_off_c, 0, 52, 91
1, 833841, Note_on_c, 0, 53, 110
1, 840682, Note_off_c, 0, 53, 110
1, 841217, Note_on_c, 0, 58, 115
1, 846214, Note_off_c, 0, 58, 115
1, 846273, Note_on_c, 0, 56, 102
1, 848890, Note_off_c, 0, 56, 102
1, 849187, Note_on_c, 0, 58, 108
1, 876135, Note_off_c, 0, 58, 108
1, 920216, Note_on_c, 0, 51, 117
1, 923309, Note_off_c, 0, 51, 117
1, 923487, Note_on_c, 0, 50, 116
1, 932588, Note_off_c, 0, 50, 116
1, 933004, Note_on_c, 0, 58, 103
1, 935740, Note_off_c, 0, 58, 103
1, 936037, Note_on_c, 0, 56, 117
1, 956560, Note_off_c, 0, 56, 117
1, 956857, Note_on_c, 0, 62, 92
1, 959177, Note_off_c, 0, 62, 92
1, 959295, Note_on_c, 0, 61, 101
1, 960841, Note_off_c, 0, 61, 101
1, 961019, Note_on_c, 0, 59, 113
1, 963339, Note_off_c, 0, 59, 113
1, 963457, Note_on_c, 0, 58, 113
1, 971369, Note_off_c, 0, 58, 113
1, 971547, Note_on_c, 0, 56, 111
1, 974045, Note_off_c, 0, 56, 111
1, 974223, Note_on_c, 0, 54, 107
1, 981897, Note_off_c, 0, 54, 107
1, 982670, Note_on_c, 0, 56, 98
1, 986120, Note_off_c, 0, 56, 98
1, 986357, Note_on_c, 0, 58, 107
1, 987963, Note_off_c, 0, 58, 107
1, 988260, Note_on_c, 0, 56, 115
1, 992424, Note_off_c, 0, 56, 115
1, 992780, Note_on_c, 0, 61, 102
1, 996944, Note_off_c, 0, 61, 102
1, 1016991, Note_on_c, 0, 58, 114
1, 1020738, Note_off_c, 0, 58, 114
1, 1020856, Note_on_c, 0, 55, 89
1, 1023414, Note_off_c, 0, 55, 89
1, 1024008, Note_on_c, 0, 57, 77
1, 1026387, Note_off_c, 0, 57, 77
1, 1026922, Note_on_c, 0, 60, 110
1, 1031681, Note_off_c, 0, 60, 110
1, 1031859, Note_on_c, 0, 55, 80
1, 1034000, Note_off_c, 0, 55, 80
1, 1034416, Note_on_c, 0, 58, 114
1, 1039770, Note_off_c, 0, 58, 114
1, 1040126, Note_on_c, 0, 60, 97
1, 1052618, Note_off_c, 0, 60, 97
1, 1095212, Note_on_c, 0, 58, 103
1, 1100090, Note_off_c, 0, 58, 103
1, 1100327, Note_on_c, 0, 60, 114
1, 1107049, Note_off_c, 0, 60, 114
1, 1107346, Note_on_c, 0, 58, 109
1, 1111926, Note_off_c, 0, 58, 109
1, 1119719, Note_on_c, 0, 58, 104
1, 1124299, Note_off_c, 0, 58, 104
1, 1127630, Note_on_c, 0, 63, 113
1, 1129712, Note_off_c, 0, 63, 113
1, 1129848, Note_on_c, 0, 65, 121
1, 1134951, Note_off_c, 0, 65, 121
1, 1135160, Note_on_c, 0, 61, 95
1, 1136749, Note_off_c, 0, 61, 95
1, 1137167, Note_on_c, 0, 62, 108
1, 1141349, Note_off_c, 0, 62, 108
1, 1141558, Note_on_c, 0, 58, 110
1, 1154357, Note_off_c, 0, 58, 110
1, 1167616, Note_on_c, 0, 60, 103
1, 1170418, Note_off_c, 0, 60, 103
1, 1170543, Note_on_c, 0, 63, 101
1, 1173261, Note_off_c, 0, 63, 101
1, 1173511, Note_on_c, 0, 65, 120
1, 1178530, Note_off_c, 0, 65, 120
1, 1179115, Note_on_c, 0, 63, 88
1, 1180369, Note_off_c, 0, 63, 88
1, 1180536, Note_on_c, 0, 65, 126
1, 1182920, Note_off_c, 0, 65, 126
1, 1183129, Note_on_c, 0, 67, 115
1, 1208347, Note_off_c, 0, 67, 115
1, 1208559, Note_on_c, 0, 65, 107
1, 1210483, Note_off_c, 0, 65, 107
1, 1210650, Note_on_c, 0, 63, 101
1, 1213034, Note_off_c, 0, 63, 101
1, 1213201, Note_on_c, 0, 60, 93
1, 1224369, Note_off_c, 0, 60, 93
1, 1258250, Note_on_c, 0, 62, 112
1, 1263896, Note_off_c, 0, 62, 112
1, 1264230, Note_on_c, 0, 66, 120
1, 1266488, Note_off_c, 0, 66, 120
1, 1266529, Note_on_c, 0, 67, 117
1, 1276107, Note_off_c, 0, 67, 117
1, 1277236, Note_on_c, 0, 62, 99
1, 1283008, Note_off_c, 0, 62, 99
1, 1283342, Note_on_c, 0, 58, 87
1, 1285266, Note_off_c, 0, 58, 87
1, 1285349, Note_on_c, 0, 61, 9
1, 1301327, Note_off_c, 0, 61, 9
1, 1304087, Note_on_c, 0, 67, 114
1, 1309148, Note_off_c, 0, 67, 114
1, 1311155, Note_on_c, 0, 61, 97
1, 1318475, Note_off_c, 0, 61, 97
1, 1342693, Note_on_c, 0, 58, 109
1, 1347377, Note_off_c, 0, 58, 109
1, 1355575, Note_on_c, 0, 58, 106
1, 1361263, Note_off_c, 0, 58, 106
1, 1370758, Note_on_c, 0, 59, 83
1, 1371929, Note_off_c, 0, 59, 83
1, 1372012, Note_on_c, 0, 60, 118
1, 1376947, Note_off_c, 0, 60, 118
1, 1377197, Note_on_c, 0, 65, 123
1, 1384977, Note_off_c, 0, 65, 123
1, 1386273, Note_on_c, 0, 59, 106
1, 1394429, Note_off_c, 0, 59, 106
1, 1394638, Note_on_c, 0, 57, 96
1, 1397482, Note_off_c, 0, 57, 96
1, 1397607, Note_on_c, 0, 58, 105
1, 1428392, Note_off_c, 0, 58, 105
1, 1464573, Note_on_c, 0, 62, 114
1, 1468755, Note_off_c, 0, 62, 114
1, 1469173, Note_on_c, 0, 63, 110
1, 1474234, Note_off_c, 0, 63, 110
1, 1474652, Note_on_c, 0, 64, 107
1, 1480047, Note_off_c, 0, 64, 107
1, 1480214, Note_on_c, 0, 63, 98
1, 1482389, Note_off_c, 0, 63, 98
1, 1482598, Note_on_c, 0, 65, 114
1, 1510915, Note_off_c, 0, 65, 114
1, 1511040, Note_on_c, 0, 63, 94
1, 1520074, Note_off_c, 0, 63, 94
1, 1520324, Note_on_c, 0, 60, 107
1, 1552950, Note_off_c, 0, 60, 107
1, 1553326, Note_on_c, 0, 55, 107
1, 1556839, Note_off_c, 0, 55, 107
1, 1557006, Note_on_c, 0, 56, 108
1, 1562192, Note_off_c, 0, 56, 108
1, 1562401, Note_on_c, 0, 53, 97
1, 1589756, Note_off_c, 0, 53, 97
1, 1627510, Note_on_c, 0, 56, 108
1, 1631852, Note_off_c, 0, 56, 108
1, 1632208, Note_on_c, 0, 60, 115
1, 1637324, Note_off_c, 0, 60, 115
1, 1637680, Note_on_c, 0, 63, 109
1, 1641457, Note_off_c, 0, 63, 109
1, 1659601, Note_on_c, 0, 60, 97
1, 1662783, Note_off_c, 0, 60, 97
1, 1662961, Note_on_c, 0, 68, 119
1, 1664477, Note_off_c, 0, 68, 119
1, 1664566, Note_on_c, 0, 70, 116
1, 1669503, Note_off_c, 0, 70, 116
1, 1669651, Note_on_c, 0, 68, 119
1, 1671614, Note_off_c, 0, 68, 119
1, 1671732, Note_on_c, 0, 70, 120
1, 1695081, Note_off_c, 0, 70, 120
1, 1697877, Note_on_c, 0, 68, 111
1, 1700078, Note_off_c, 0, 68, 111
1, 1700167, Note_on_c, 0, 70, 110
1, 1702070, Note_off_c, 0, 70, 110
1, 1702129, Note_on_c, 0, 68, 110
1, 1703497, Note_off_c, 0, 68, 110
1, 1703586, Note_on_c, 0, 66, 111
1, 1707006, Note_off_c, 0, 66, 111
1, 1707184, Note_on_c, 0, 68, 116
1, 1720450, Note_off_c, 0, 68, 116
1, 1721104, Note_on_c, 0, 66, 113
1, 1725000, Note_off_c, 0, 66, 113
1, 1725446, Note_on_c, 0, 63, 94
1, 1730472, Note_off_c, 0, 63, 94
1, 1730947, Note_on_c, 0, 61, 88
1, 1733386, Note_off_c, 0, 61, 88
1, 1733475, Note_on_c, 0, 63, 94
1, 1747038, Note_off_c, 0, 63, 94
1, 1777437, Note_on_c, 0, 56, 92
1, 1780411, Note_off_c, 0, 56, 92
1, 1780500, Note_on_c, 0, 60, 98
1, 1782522, Note_off_c, 0, 60, 98
1, 1782611, Note_on_c, 0, 63, 107
1, 1785139, Note_off_c, 0, 63, 107
1, 1785406, Note_on_c, 0, 66, 123
1, 1789897, Note_off_c, 0, 66, 123
1, 1790164, Note_on_c, 0, 63, 93
1, 1791978, Note_off_c, 0, 63, 93
1, 1792156, Note_on_c, 0, 68, 120
1, 1796409, Note_off_c, 0, 68, 120
1, 1796557, Note_on_c, 0, 66, 115
1, 1800572, Note_off_c, 0, 66, 115
1, 1801018, Note_on_c, 0, 63, 94
1, 1805806, Note_off_c, 0, 63, 94
1, 1805865, Note_on_c, 0, 62, 88
1, 1807917, Note_off_c, 0, 62, 88
1, 1808273, Note_on_c, 0, 65, 125
1, 1810206, Note_off_c, 0, 65, 125
1, 1810295, Note_on_c, 0, 67, 119
1, 1814429, Note_off_c, 0, 67, 119
1, 1814547, Note_on_c, 0, 70, 113
1, 1851727, Note_off_c, 0, 70, 113
1, 1879849, Note_on_c, 0, 67, 122
1, 1883488, Note_off_c, 0, 67, 122
1, 1883948, Note_on_c, 0, 70, 110
1, 1886876, Note_off_c, 0, 70, 110
1, 1900656, Note_on_c, 0, 67, 114
1, 1902648, Note_off_c, 0, 67, 114
1, 1902766, Note_on_c, 0, 70, 114
1, 1905978, Note_off_c, 0, 70, 114
1, 1906186, Note_on_c, 0, 74, 114
1, 1911926, Note_off_c, 0, 74, 114
1, 1912848, Note_on_c, 0, 74, 114
1, 1921176, Note_off_c, 0, 74, 114
1, 1921473, Note_on_c, 0, 67, 111
1, 1924863, Note_off_c, 0, 67, 111
1, 1928997, Note_on_c, 0, 70, 125
1, 1931911, Note_off_c, 0, 70, 125
1, 1931970, Note_on_c, 0, 72, 118
1, 1935450, Note_off_c, 0, 72, 118
1, 1935539, Note_on_c, 0, 70, 116
1, 1937442, Note_off_c, 0, 70, 116
1, 1937501, Note_on_c, 0, 72, 117
1, 1939345, Note_off_c, 0, 72, 117
1, 1939463, Note_on_c, 0, 73, 113
1, 1967553, Note_off_c, 0, 73, 113
1, 1967839, Note_on_c, 0, 72, 96
1, 2002461, Note_off_c, 0, 72, 96
1, 2019950, Note_on_c, 0, 75, 118
1, 2024590, Note_off_c, 0, 75, 118
1, 2025125, Note_on_c, 0, 72, 112
1, 2030895, Note_off_c, 0, 72, 112
1, 2031251, Note_on_c, 0, 68, 123
1, 2036069, Note_off_c, 0, 68, 123
1, 2036306, Note_on_c, 0, 70, 120
1, 2043801, Note_off_c, 0, 70, 120
1, 2044038, Note_on_c, 0, 67, 118
1, 2046417, Note_off_c, 0, 67, 118
1, 2046595, Note_on_c, 0, 68, 114
1, 2051711, Note_off_c, 0, 68, 114
1, 2051829, Note_on_c, 0, 65, 110
1, 2083715, Note_off_c, 0, 65, 110
1, 2103049, Note_on_c, 0, 67, 119
1, 2104863, Note_off_c, 0, 67, 119
1, 2104952, Note_on_c, 0, 65, 118
1, 2106736, Note_off_c, 0, 65, 118
1, 2106854, Note_on_c, 0, 64, 111
1, 2109084, Note_off_c, 0, 64, 111
1, 2116520, Note_on_c, 0, 67, 122
1, 2119762, Note_off_c, 0, 67, 122
1, 2120029, Note_on_c, 0, 65, 117
1, 2123717, Note_off_c, 0, 65, 117
1, 2123925, Note_on_c, 0, 64, 99
1, 2126691, Note_off_c, 0, 64, 99
1, 2126809, Note_on_c, 0, 65, 105
1, 2129367, Note_off_c, 0, 65, 105
1, 2141502, Note_on_c, 0, 68, 123
1, 2144000, Note_off_c, 0, 68, 123
1, 2144029, Note_on_c, 0, 70, 118
1, 2159050, Note_off_c, 0, 70, 118
1, 2159555, Note_on_c, 0, 69, 116
1, 2164462, Note_off_c, 0, 69, 116
1, 2165175, Note_on_c, 0, 63, 76
1, 2167405, Note_off_c, 0, 63, 76
1, 2167583, Note_on_c, 0, 68, 105
1, 2187184, Note_off_c, 0, 68, 105
1, 2238328, Note_on_c, 0, 70, 122
1, 2243180, Note_off_c, 0, 70, 122
1, 2243305, Note_on_c, 0, 68, 123
1, 2256355, Note_off_c, 0, 68, 123
1, 2259283, Note_on_c, 0, 73, 118
1, 2262587, Note_off_c, 0, 73, 118
1, 2262754, Note_on_c, 0, 70, 118
1, 2273964, Note_off_c, 0, 70, 118
1, 2274173, Note_on_c, 0, 68, 123
1, 2277853, Note_off_c, 0, 68, 123
1, 2277978, Note_on_c, 0, 66, 112
1, 2279692, Note_off_c, 0, 66, 112
1, 2279817, Note_on_c, 0, 63, 102
1, 2282284, Note_off_c, 0, 63, 102
1, 2282660, Note_on_c, 0, 58, 112
1, 2286968, Note_off_c, 0, 58, 112
1, 2287344, Note_on_c, 0, 56, 115
1, 2292698, Note_off_c, 0, 56, 115
1, 2292865, Note_on_c, 0, 55, 96
1, 2322479, Note_off_c, 0, 55, 96
1, 2322646, Note_on_c, 0, 58, 109
1, 2330802, Note_off_c, 0, 58, 109
1, 2330969, Note_on_c, 0, 63, 91
1, 2345943, Note_off_c, 0, 63, 91
1, 2365518, Note_on_c, 0, 67, 125
1, 2366940, Note_off_c, 0, 67, 125
1, 2367107, Note_on_c, 0, 68, 121
1, 2368152, Note_off_c, 0, 68, 121
1, 2368235, Note_on_c, 0, 70, 119
1, 2369071, Note_off_c, 0, 70, 119
1, 2369196, Note_on_c, 0, 74, 117
1, 2371873, Note_off_c, 0, 74, 117
1, 2372040, Note_on_c, 0, 77, 117
1, 2374591, Note_off_c, 0, 77, 117
1, 2374716, Note_on_c, 0, 74, 110
1, 2396592, Note_off_c, 0, 74, 110
1, 2421289, Note_on_c, 0, 71, 104
1, 2422062, Note_off_c, 0, 71, 104
1, 2422210, Note_on_c, 0, 73, 124
1, 2423637, Note_off_c, 0, 73, 124
1, 2423726, Note_on_c, 0, 72, 117
1, 2428633, Note_off_c, 0, 72, 117
1, 2429525, Note_on_c, 0, 72, 110
1, 2457156, Note_off_c, 0, 72, 110
1, 2457448, Note_on_c, 0, 75, 106
1, 2471920, Note_off_c, 0, 75, 106
1, 2501654, Note_on_c, 0, 72, 119
1, 2505223, Note_off_c, 0, 72, 119
1, 2505371, Note_on_c, 0, 68, 123
1, 2508494, Note_off_c, 0, 68, 123
1, 2508553, Note_on_c, 0, 70, 118
1, 2513639, Note_off_c, 0, 70, 118
1, 2514085, Note_on_c, 0, 67, 118
1, 2516672, Note_off_c, 0, 67, 118
1, 2516880, Note_on_c, 0, 68, 9
1, 2532109, Note_off_c, 0, 68, 9
1, 2556916, Note_on_c, 0, 67, 122
1, 2562151, Note_off_c, 0, 67, 122
1, 2562240, Note_on_c, 0, 69, 121
1, 2564054, Note_off_c, 0, 69, 121
1, 2564113, Note_on_c, 0, 70, 120
1, 2580413, Note_off_c, 0, 70, 120
1, 2580591, Note_on_c, 0, 66, 106
1, 2581751, Note_off_c, 0, 66, 106
1, 2581869, Note_on_c, 0, 67, 118
1, 2587014, Note_off_c, 0, 67, 118
1, 2587132, Note_on_c, 0, 68, 125
1, 2592158, Note_off_c, 0, 68, 125
1, 2592247, Note_on_c, 0, 67, 122
1, 2600248, Note_off_c, 0, 67, 122
1, 2600720, Note_on_c, 0, 63, 102
1, 2602685, Note_off_c, 0, 63, 102
1, 2602956, Note_on_c, 0, 58, 105
1, 2604315, Note_off_c, 0, 58, 105
1, 2604691, Note_on_c, 0, 56, 111
1, 2614834, Note_off_c, 0, 56, 111
1, 2614938, Note_on_c, 0, 58, 112
1, 2616527, Note_off_c, 0, 58, 112
1, 2616631, Note_on_c, 0, 56, 112
1, 2618262, Note_off_c, 0, 56, 112
1, 2618366, Note_on_c, 0, 54, 111
1, 2620164, Note_off_c, 0, 54, 111
1, 2620205, Note_on_c, 0, 55, 108
1, 2623216, Note_off_c, 0, 55, 108
1, 2632669, Note_on_c, 0, 55, 104
1, 2634990, Note_off_c, 0, 55, 104
1, 2635129, Note_on_c, 0, 57, 109
1, 2636199, Note_off_c, 0, 57, 109
1, 2636327, Note_on_c, 0, 63, 115
1, 2639401, Note_off_c, 0, 63, 115
1, 2639547, Note_on_c, 0, 58, 105
1, 2641638, Note_off_c, 0, 58, 105
1, 2641763, Note_on_c, 0, 61, 111
1, 2644921, Note_off_c, 0, 61, 111
1, 2645067, Note_on_c, 0, 63, 101
1, 2657636, Note_off_c, 0, 63, 101
1, 2678909, Note_on_c, 0, 58, 116
1, 2682582, Note_off_c, 0, 58, 116
1, 2682582, Note_on_c, 0, 56, 119
1, 2686746, Note_off_c, 0, 56, 119
1, 2687228, Note_on_c, 0, 63, 102
1, 2699337, Note_off_c, 0, 63, 102
1, 2720788, Note_on_c, 0, 55, 89
1, 2725071, Note_off_c, 0, 55, 89
1, 2729978, Note_on_c, 0, 55, 114
1, 2731943, Note_off_c, 0, 55, 114
1, 2732059, Note_on_c, 0, 56, 114
1, 2733585, Note_off_c, 0, 56, 114
1, 2733664, Note_on_c, 0, 58, 118
1, 2735860, Note_off_c, 0, 58, 118
1, 2735984, Note_on_c, 0, 54, 109
1, 2737761, Note_off_c, 0, 54, 109
1, 2737916, Note_on_c, 0, 55, 111
1, 2739547, Note_off_c, 0, 55, 111
1, 2739730, Note_on_c, 0, 57, 97
1, 2741187, Note_off_c, 0, 57, 97
1, 2742049, Note_on_c, 0, 61, 122
1, 2744666, Note_off_c, 0, 61, 122
1, 2744844, Note_on_c, 0, 65, 117
1, 2747669, Note_off_c, 0, 65, 117
1, 2747698, Note_on_c, 0, 64, 116
1, 2749869, Note_off_c, 0, 64, 116
1, 2749928, Note_on_c, 0, 62, 106
1, 2751831, Note_off_c, 0, 62, 106
1, 2751890, Note_on_c, 0, 63, 107
1, 2755637, Note_off_c, 0, 63, 107
1, 2756945, Note_on_c, 0, 61, 79
1, 2758105, Note_off_c, 0, 61, 79
1, 2758164, Note_on_c, 0, 63, 104
1, 2759978, Note_off_c, 0, 63, 104
1, 2760007, Note_on_c, 0, 62, 107
1, 2761613, Note_off_c, 0, 62, 107
1, 2761761, Note_on_c, 0, 61, 108
1, 2763545, Note_off_c, 0, 61, 108
1, 2763634, Note_on_c, 0, 62, 104
1, 2765150, Note_off_c, 0, 62, 104
1, 2765179, Note_on_c, 0, 65, 123
1, 2767885, Note_off_c, 0, 65, 123
1, 2767974, Note_on_c, 0, 68, 114
1, 2769520, Note_off_c, 0, 68, 114
1, 2769638, Note_on_c, 0, 72, 122
1, 2772166, Note_off_c, 0, 72, 122
1, 2772255, Note_on_c, 0, 70, 121
1, 2774128, Note_off_c, 0, 70, 121
1, 2774217, Note_on_c, 0, 71, 119
1, 2776150, Note_off_c, 0, 71, 119
1, 2776268, Note_on_c, 0, 67, 120
1, 2778290, Note_off_c, 0, 67, 120
1, 2778408, Note_on_c, 0, 63, 107
1, 2780490, Note_off_c, 0, 63, 107
1, 2780579, Note_on_c, 0, 62, 110
1, 2782482, Note_off_c, 0, 62, 110
1, 2782630, Note_on_c, 0, 61, 109
1, 2785277, Note_off_c, 0, 61, 109
1, 2785455, Note_on_c, 0, 65, 117
1, 2788221, Note_off_c, 0, 65, 117
1, 2788221, Note_on_c, 0, 64, 113
1, 2790481, Note_off_c, 0, 64, 113
1, 2791310, Note_on_c, 0, 60, 97
1, 2792857, Note_off_c, 0, 60, 97
1, 2792978, Note_on_c, 0, 63, 88
1, 2811062, Note_off_c, 0, 63, 88
1, 2842056, Note_on_c, 0, 63, 119
1, 2845863, Note_off_c, 0, 63, 119
1, 2846457, Note_on_c, 0, 65, 125
1, 2850888, Note_off_c, 0, 65, 125
1, 2862012, Note_on_c, 0, 66, 115
1, 2866354, Note_off_c, 0, 66, 115
1, 2866472, Note_on_c, 0, 65, 116
1, 2869297, Note_off_c, 0, 65, 116
1, 2869802, Note_on_c, 0, 63, 100
1, 2872895, Note_off_c, 0, 63, 100
1, 2888678, Note_on_c, 0, 63, 104
1, 2891731, Note_off_c, 0, 63, 104
1, 2891856, Note_on_c, 0, 68, 126
1, 2895997, Note_off_c, 0, 68, 126
1, 2896122, Note_on_c, 0, 70, 126
1, 2899426, Note_off_c, 0, 70, 126
1, 2899467, Note_on_c, 0, 71, 119
1, 2901349, Note_off_c, 0, 71, 119
1, 2901432, Note_on_c, 0, 72, 116
1, 2918163, Note_off_c, 0, 72, 116
1, 2918667, Note_on_c, 0, 68, 116
1, 2924407, Note_off_c, 0, 68, 116
1, 2925329, Note_on_c, 0, 63, 94
1, 2928303, Note_off_c, 0, 63, 94
1, 2929016, Note_on_c, 0, 70, 122
1, 2936154, Note_off_c, 0, 70, 122
1, 2936391, Note_on_c, 0, 68, 120
1, 2941150, Note_off_c, 0, 68, 120
1, 2943410, Note_on_c, 0, 68, 110
1, 2957955, Note_off_c, 0, 68, 110
1, 2961078, Note_on_c, 0, 71, 119
1, 2963100, Note_off_c, 0, 71, 119
1, 2963129, Note_on_c, 0, 70, 118
1, 2966490, Note_off_c, 0, 70, 118
1, 2966608, Note_on_c, 0, 68, 123
1, 2969255, Note_off_c, 0, 68, 123
1, 2997512, Note_on_c, 0, 71, 124
1, 3000843, Note_off_c, 0, 71, 124
1, 3000932, Note_on_c, 0, 70, 125
1, 3003162, Note_off_c, 0, 70, 125
1, 3003340, Note_on_c, 0, 68, 121
1, 3006939, Note_off_c, 0, 68, 121
1, 3008710, Note_on_c, 0, 75, 118
1, 3038868, Note_off_c, 0, 75, 118
1, 3058366, Note_on_c, 0, 73, 119
1, 3064731, Note_off_c, 0, 73, 119
1, 3064820, Note_on_c, 0, 71, 108
1, 3067497, Note_off_c, 0, 71, 108
1, 3067675, Note_on_c, 0, 73, 122
1, 3077907, Note_off_c, 0, 73, 122
1, 3080405, Note_on_c, 0, 70, 123
1, 3082992, Note_off_c, 0, 70, 123
1, 3083056, Note_on_c, 0, 72, 107
1, 3084185, Note_off_c, 0, 72, 107
1, 3084247, Note_on_c, 0, 70, 120
1, 3085439, Note_off_c, 0, 70, 120
1, 3085543, Note_on_c, 0, 68, 123
1, 3089976, Note_off_c, 0, 68, 123
1, 3090247, Note_on_c, 0, 70, 115
1, 3101875, Note_off_c, 0, 70, 115
1, 3102167, Note_on_c, 0, 68, 120
1, 3106412, Note_off_c, 0, 68, 120
1, 3106579, Note_on_c, 0, 70, 118
1, 3110448, Note_off_c, 0, 70, 118
1, 3110845, Note_on_c, 0, 66, 114
1, 3112831, Note_off_c, 0, 66, 114
1, 3113115, Note_on_c, 0, 67, 107
1, 3143097, Note_off_c, 0, 67, 107
1, 3165078, Note_on_c, 0, 58, 106
1, 3167874, Note_off_c, 0, 58, 106
1, 3168111, Note_on_c, 0, 60, 105
1, 3171948, Note_off_c, 0, 60, 105
1, 3172513, Note_on_c, 0, 63, 110
1, 3176647, Note_off_c, 0, 63, 110
1, 3176944, Note_on_c, 0, 65, 125
1, 3181138, Note_off_c, 0, 65, 125
1, 3181703, Note_on_c, 0, 67, 123
1, 3185807, Note_off_c, 0, 67, 123
1, 3186193, Note_on_c, 0, 70, 119
1, 3189286, Note_off_c, 0, 70, 119
1, 3191130, Note_on_c, 0, 74, 114
1, 3196632, Note_off_c, 0, 74, 114
1, 3196899, Note_on_c, 0, 70, 113
1, 3199576, Note_off_c, 0, 70, 113
1, 3199694, Note_on_c, 0, 74, 107
1, 3212424, Note_off_c, 0, 74, 107
1, 3239610, Note_on_c, 0, 65, 112
1, 3241097, Note_off_c, 0, 65, 112
1, 3241245, Note_on_c, 0, 67, 118
1, 3244725, Note_off_c, 0, 67, 118
1, 3244903, Note_on_c, 0, 70, 103
1, 3245944, Note_off_c, 0, 70, 103
1, 3245973, Note_on_c, 0, 72, 118
1, 3250761, Note_off_c, 0, 72, 118
1, 3250969, Note_on_c, 0, 70, 109
1, 3252456, Note_off_c, 0, 70, 109
1, 3252723, Note_on_c, 0, 72, 118
1, 3254329, Note_off_c, 0, 72, 118
1, 3254477, Note_on_c, 0, 73, 119
1, 3266166, Note_off_c, 0, 73, 119
1, 3266641, Note_on_c, 0, 72, 114
1, 3271876, Note_off_c, 0, 72, 114
1, 3272411, Note_on_c, 0, 65, 116
1, 3277884, Note_off_c, 0, 65, 116
1, 3280144, Note_on_c, 0, 65, 104
1, 3294213, Note_off_c, 0, 65, 104
1, 3324276, Note_on_c, 0, 60, 114
1, 3326994, Note_off_c, 0, 60, 114
1, 3327161, Note_on_c, 0, 64, 108
1, 3332347, Note_off_c, 0, 64, 108
1, 3332670, Note_on_c, 0, 72, 111
1, 3346114, Note_off_c, 0, 72, 111
1, 3363098, Note_on_c, 0, 60, 115
1, 3366459, Note_off_c, 0, 60, 115
1, 3366905, Note_on_c, 0, 67, 121
1, 3369195, Note_off_c, 0, 67, 121
1, 3369373, Note_on_c, 0, 68, 124
1, 3370771, Note_off_c, 0, 68, 124
1, 3370860, Note_on_c, 0, 67, 119
1, 3372376, Note_off_c, 0, 67, 119
1, 3372554, Note_on_c, 0, 65, 115
1, 3376361, Note_off_c, 0, 65, 115
1, 3376509, Note_on_c, 0, 67, 103
1, 3388674, Note_off_c, 0, 67, 103
1, 3418597, Note_on_c, 0, 60, 113
1, 3421006, Note_off_c, 0, 60, 113
1, 3421214, Note_on_c, 0, 62, 106
1, 3423742, Note_off_c, 0, 62, 106
1, 3441410, Note_on_c, 0, 58, 101
1, 3444176, Note_off_c, 0, 58, 101
1, 3444562, Note_on_c, 0, 62, 109
1, 3447566, Note_off_c, 0, 62, 109
1, 3448309, Note_on_c, 0, 61, 119
1, 3450391, Note_off_c, 0, 61, 119
1, 3450480, Note_on_c, 0, 62, 116
1, 3454584, Note_off_c, 0, 62, 116
1, 3454762, Note_on_c, 0, 65, 126
1, 3459580, Note_off_c, 0, 65, 126
1, 3485595, Note_on_c, 0, 58, 107
1, 3489652, Note_off_c, 0, 58, 107
1, 3490153, Note_on_c, 0, 60, 80
1, 3494754, Note_off_c, 0, 60, 80
1, 3496134, Note_on_c, 0, 63, 106
1, 3500526, Note_off_c, 0, 63, 106
1, 3501069, Note_on_c, 0, 67, 123
1, 3505962, Note_off_c, 0, 67, 123
1, 3506380, Note_on_c, 0, 70, 119
1, 3512152, Note_off_c, 0, 70, 119
1, 3512486, Note_on_c, 0, 68, 119
1, 3518300, Note_off_c, 0, 68, 119
1, 3520014, Note_on_c, 0, 60, 89
1, 3525451, Note_off_c, 0, 60, 89
1, 3527271, Note_on_c, 0, 60, 94
1, 3539406, Note_off_c, 0, 60, 94
1, 3540194, Note_on_c, 0, 67, 122
1, 3540952, Note_off_c, 0, 67, 122
1, 3540981, Note_on_c, 0, 68, 125
1, 3542587, Note_off_c, 0, 68, 125
1, 3542611, Note_on_c, 0, 67, 120
1, 3545016, Note_off_c, 0, 67, 120
1, 3549790, Note_on_c, 0, 66, 110
1, 3561711, Note_off_c, 0, 66, 110
1, 3562424, Note_on_c, 0, 62, 107
1, 3564773, Note_off_c, 0, 62, 107
1, 3564891, Note_on_c, 0, 58, 107
1, 3566943, Note_off_c, 0, 58, 107
1, 3567121, Note_on_c, 0, 56, 109
1, 3572653, Note_off_c, 0, 56, 109
1, 3572771, Note_on_c, 0, 58, 102
1, 3585382, Note_off_c, 0, 58, 102
1, 3620133, Note_on_c, 0, 58, 106
1, 3621728, Note_off_c, 0, 58, 106
1, 3621768, Note_on_c, 0, 60, 108
1, 3622984, Note_off_c, 0, 60, 108
1, 3623014, Note_on_c, 0, 62, 108
1, 3624844, Note_off_c, 0, 62, 108
1, 3625263, Note_on_c, 0, 65, 117
1, 3628044, Note_off_c, 0, 65, 117
1, 3628389, Note_on_c, 0, 62, 97
1, 3629474, Note_off_c, 0, 62, 97
1, 3629518, Note_on_c, 0, 63, 94
1, 3630797, Note_off_c, 0, 63, 94
1, 3630826, Note_on_c, 0, 62, 98
1, 3631822, Note_off_c, 0, 62, 98
1, 3631834, Note_on_c, 0, 67, 122
1, 3634932, Note_off_c, 0, 67, 122
1, 3634942, Note_on_c, 0, 68, 116
1, 3636659, Note_off_c, 0, 68, 116
1, 3637252, Note_on_c, 0, 70, 120
1, 3639184, Note_off_c, 0, 70, 120
1, 3639309, Note_on_c, 0, 66, 115
1, 3641902, Note_off_c, 0, 66, 115
1, 3641964, Note_on_c, 0, 67, 122
1, 3644473, Note_off_c, 0, 67, 122
1, 3644514, Note_on_c, 0, 68, 109
1, 3645580, Note_off_c, 0, 68, 109
1, 3645642, Note_on_c, 0, 70, 101
1, 3647210, Note_off_c, 0, 70, 101
1, 3647314, Note_on_c, 0, 74, 114
1, 3650618, Note_off_c, 0, 74, 114
1, 3650722, Note_on_c, 0, 72, 110
1, 3652667, Note_off_c, 0, 72, 110
1, 3652876, Note_on_c, 0, 74, 112
1, 3655281, Note_off_c, 0, 74, 112
1, 3655573, Note_on_c, 0, 72, 119
1, 3657664, Note_off_c, 0, 72, 119
1, 3657873, Note_on_c, 0, 70, 119
1, 3660550, Note_off_c, 0, 70, 119
1, 3660696, Note_on_c, 0, 67, 116
1, 3663519, Note_off_c, 0, 67, 116
1, 3663811, Note_on_c, 0, 62, 102
1, 3666362, Note_off_c, 0, 62, 102
1, 3666529, Note_on_c, 0, 58, 102
1, 3668139, Note_off_c, 0, 58, 102
1, 3668243, Note_on_c, 0, 65, 122
1, 3672655, Note_off_c, 0, 65, 122
1, 3672720, Note_on_c, 0, 70, 118
1, 3675664, Note_off_c, 0, 70, 118
1, 3675842, Note_on_c, 0, 65, 110
1, 3687293, Note_off_c, 0, 65, 110
1, 3720294, Note_on_c, 0, 67, 86
1, 3721799, Note_off_c, 0, 67, 86
1, 3722137, Note_on_c, 0, 68, 123
1, 3723951, Note_off_c, 0, 68, 123
1, 3724055, Note_on_c, 0, 65, 115
1, 3725676, Note_off_c, 0, 65, 115
1, 3725750, Note_on_c, 0, 63, 104
1, 3726865, Note_off_c, 0, 63, 104
1, 3726909, Note_on_c, 0, 64, 110
1, 3728604, Note_off_c, 0, 64, 110
1, 3728946, Note_on_c, 0, 67, 117
1, 3730121, Note_off_c, 0, 67, 117
1, 3730161, Note_on_c, 0, 70, 116
1, 3730856, Note_off_c, 0, 70, 116
1, 3730921, Note_on_c, 0, 73, 120
1, 3732824, Note_off_c, 0, 73, 120
1, 3732879, Note_on_c, 0, 72, 116
1, 3735005, Note_off_c, 0, 72, 116
1, 3735015, Note_on_c, 0, 71, 117
1, 3736272, Note_off_c, 0, 71, 117
1, 3736312, Note_on_c, 0, 72, 118
1, 3737712, Note_off_c, 0, 72, 118
1, 3737732, Note_on_c, 0, 74, 111
1, 3738488, Note_off_c, 0, 74, 111
1, 3738600, Note_on_c, 0, 79, 108
1, 3740726, Note_off_c, 0, 79, 108
1, 3740777, Note_on_c, 0, 76, 122
1, 3742811, Note_off_c, 0, 76, 122
1, 3742841, Note_on_c, 0, 77, 114
1, 3744415, Note_off_c, 0, 77, 114
1, 3775439, Note_on_c, 0, 84, 111
1, 3787336, Note_off_c, 0, 84, 111
1, 3802357, Note_on_c, 0, 79, 119
1, 3807324, Note_off_c, 0, 79, 119
1, 3808246, Note_on_c, 0, 77, 116
1, 3812469, Note_off_c, 0, 77, 116
1, 3814473, Note_on_c, 0, 77, 113
1, 3826561, Note_off_c, 0, 77, 113
1, 3827370, Note_on_c, 0, 75, 112
1, 3830612, Note_off_c, 0, 75, 112
1, 3844044, Note_on_c, 0, 74, 117
1, 3845884, Note_off_c, 0, 74, 117
1, 3845946, Note_on_c, 0, 76, 120
1, 3847514, Note_off_c, 0, 76, 120
1, 3847597, Note_on_c, 0, 74, 118
1, 3849207, Note_off_c, 0, 74, 118
1, 3849353, Note_on_c, 0, 72, 120
1, 3852887, Note_off_c, 0, 72, 120
1, 3854403, Note_on_c, 0, 74, 114
1, 3866360, Note_off_c, 0, 74, 114
1, 3866438, Note_on_c, 0, 79, 108
1, 3869721, Note_off_c, 0, 79, 108
1, 3870139, Note_on_c, 0, 73, 114
1, 3872042, Note_off_c, 0, 73, 114
1, 3872104, Note_on_c, 0, 74, 114
1, 3888333, Note_off_c, 0, 74, 114
1, 3888688, Note_on_c, 0, 72, 114
1, 3893268, Note_off_c, 0, 72, 114
1, 3893853, Note_on_c, 0, 74, 115
1, 3900399, Note_off_c, 0, 74, 115
1, 3900482, Note_on_c, 0, 72, 116
1, 3903828, Note_off_c, 0, 72, 116
1, 3906024, Note_on_c, 0, 75, 113
1, 3919973, Note_off_c, 0, 75, 113
1, 3920244, Note_on_c, 0, 72, 116
1, 3924175, Note_off_c, 0, 72, 116
1, 3924321, Note_on_c, 0, 68, 121
1, 3928713, Note_off_c, 0, 68, 121
1, 3928984, Note_on_c, 0, 65, 109
1, 3931849, Note_off_c, 0, 65, 109
1, 3957518, Note_on_c, 0, 73, 116
1, 3980034, Note_off_c, 0, 73, 116
1, 3980093, Note_on_c, 0, 74, 114
1, 3994638, Note_off_c, 0, 74, 114
1, 3994786, Note_on_c, 0, 72, 109
1, 4008290, Note_off_c, 0, 72, 109
1, 4022507, Note_on_c, 0, 68, 123
1, 4025897, Note_off_c, 0, 68, 123
1, 4025956, Note_on_c, 0, 67, 121
1, 4029168, Note_off_c, 0, 67, 121
1, 4040411, Note_on_c, 0, 70, 124
1, 4041972, Note_off_c, 0, 70, 124
1, 4042031, Note_on_c, 0, 72, 118
1, 4043205, Note_off_c, 0, 72, 118
1, 4043234, Note_on_c, 0, 70, 119
1, 4044037, Note_off_c, 0, 70, 119
1, 4044170, Note_on_c, 0, 68, 122
1, 4047575, Note_off_c, 0, 68, 122
1, 4047768, Note_on_c, 0, 70, 120
1, 4054698, Note_off_c, 0, 70, 120
1, 4054831, Note_on_c, 0, 66, 109
1, 4056422, Note_off_c, 0, 66, 109
1, 4056570, Note_on_c, 0, 62, 101
1, 4057863, Note_off_c, 0, 62, 101
1, 4057981, Note_on_c, 0, 58, 109
1, 4059393, Note_off_c, 0, 58, 109
1, 4059422, Note_on_c, 0, 56, 107
1, 4062693, Note_off_c, 0, 56, 107
1, 4062737, Note_on_c, 0, 60, 107
1, 4065250, Note_off_c, 0, 60, 107
1, 4068388, Note_on_c, 0, 55, 97
1, 4070128, Note_off_c, 0, 55, 97
1, 4070365, Note_on_c, 0, 58, 115
1, 4074648, Note_off_c, 0, 58, 115
1, 4074692, Note_on_c, 0, 56, 106
1, 4077488, Note_off_c, 0, 56, 106
1, 4107696, Note_on_c, 0, 60, 102
1, 4111920, Note_off_c, 0, 60, 102
1, 4112631, Note_on_c, 0, 63, 99
1, 4116479, Note_off_c, 0, 63, 99
1, 4117064, Note_on_c, 0, 68, 123
1, 4121748, Note_off_c, 0, 68, 123
1, 4129988, Note_on_c, 0, 72, 120
1, 4132685, Note_off_c, 0, 72, 120
1, 4132734, Note_on_c, 0, 73, 118
1, 4133998, Note_off_c, 0, 73, 118
1, 4134027, Note_on_c, 0, 72, 117
1, 4135082, Note_off_c, 0, 72, 117
1, 4135104, Note_on_c, 0, 68, 122
1, 4138420, Note_off_c, 0, 68, 122
1, 4138472, Note_on_c, 0, 70, 123
1, 4142056, Note_off_c, 0, 70, 123
1, 4142219, Note_on_c, 0, 72, 117
1, 4146903, Note_off_c, 0, 72, 117
1, 4147051, Note_on_c, 0, 68, 118
1, 4150947, Note_off_c, 0, 68, 118
1, 4151623, Note_on_c, 0, 63, 100
1, 4155207, Note_off_c, 0, 63, 100
1, 4207818, Note_on_c, 0, 63, 100
1, 4210762, Note_off_c, 0, 63, 100
1, 4211029, Note_on_c, 0, 68, 124
1, 4215312, Note_off_c, 0, 68, 124
1, 4215401, Note_on_c, 0, 70, 122
1, 4219446, Note_off_c, 0, 70, 122
1, 4219743, Note_on_c, 0, 70, 121
1, 4223699, Note_off_c, 0, 70, 121
1, 4223965, Note_on_c, 0, 68, 122
1, 4225847, Note_off_c, 0, 68, 122
1, 4225867, Note_on_c, 0, 70, 113
1, 4226431, Note_off_c, 0, 70, 113
1, 4226493, Note_on_c, 0, 72, 118
1, 4231282, Note_off_c, 0, 72, 118
1, 4231458, Note_on_c, 0, 75, 110
1, 4244099, Note_off_c, 0, 75, 110
1, 4269233, Note_on_c, 0, 63, 99
1, 4272415, Note_off_c, 0, 63, 99
1, 4272652, Note_on_c, 0, 68, 122
1, 4276875, Note_off_c, 0, 68, 122
1, 4289189, Note_on_c, 0, 63, 88
1, 4292996, Note_off_c, 0, 63, 88
1, 4293442, Note_on_c, 0, 68, 124
1, 4297725, Note_off_c, 0, 68, 124
1, 4297933, Note_on_c, 0, 70, 118
1, 4302186, Note_off_c, 0, 70, 118
1, 4302602, Note_on_c, 0, 70, 122
1, 4306141, Note_off_c, 0, 70, 122
1, 4306289, Note_on_c, 0, 72, 113
1, 4307568, Note_off_c, 0, 72, 113
1, 4307612, Note_on_c, 0, 70, 122
1, 4308831, Note_off_c, 0, 70, 122
1, 4308935, Note_on_c, 0, 68, 122
1, 4312593, Note_off_c, 0, 68, 122
1, 4312994, Note_on_c, 0, 70, 119
1, 4320712, Note_off_c, 0, 70, 119
1, 4320816, Note_on_c, 0, 72, 110
1, 4322258, Note_off_c, 0, 72, 110
1, 4322302, Note_on_c, 0, 70, 119
1, 4323253, Note_off_c, 0, 70, 119
1, 4323327, Note_on_c, 0, 68, 119
1, 4326108, Note_off_c, 0, 68, 119
1, 4342675, Note_on_c, 0, 68, 120
1, 4344697, Note_off_c, 0, 68, 120
1, 4344860, Note_on_c, 0, 71, 113
1, 4348622, Note_off_c, 0, 71, 113
1, 4348666, Note_on_c, 0, 75, 116
1, 4367375, Note_off_c, 0, 75, 116
1, 4369442, Note_on_c, 0, 73, 119
1, 4370765, Note_off_c, 0, 73, 119
1, 4370869, Note_on_c, 0, 72, 117
1, 4372475, Note_off_c, 0, 72, 117
1, 4372504, Note_on_c, 0, 71, 120
1, 4374050, Note_off_c, 0, 71, 120
1, 4374094, Note_on_c, 0, 70, 119
1, 4388460, Note_off_c, 0, 70, 119
1, 4435367, Note_on_c, 0, 67, 109
1, 4437925, Note_off_c, 0, 67, 109
1, 4438311, Note_on_c, 0, 70, 120
1, 4442653, Note_off_c, 0, 70, 120
1, 4442831, Note_on_c, 0, 72, 118
1, 4447143, Note_off_c, 0, 72, 118
1, 4447260, Note_on_c, 0, 67, 115
1, 4449539, Note_off_c, 0, 67, 115
1, 4449664, Note_on_c, 0, 70, 115
1, 4464826, Note_off_c, 0, 70, 115
1, 4465411, Note_on_c, 0, 67, 118
1, 4470848, Note_off_c, 0, 67, 118
1, 4471182, Note_on_c, 0, 65, 116
1, 4477707, Note_off_c, 0, 65, 116
1, 4477805, Note_on_c, 0, 70, 103
1, 4489702, Note_off_c, 0, 70, 103
1, 4510666, Note_on_c, 0, 62, 111
1, 4515434, Note_off_c, 0, 62, 111
1, 4515852, Note_on_c, 0, 63, 106
1, 4520662, Note_off_c, 0, 63, 106
1, 4535281, Note_on_c, 0, 62, 97
1, 4536619, Note_off_c, 0, 62, 97
1, 4536660, Note_on_c, 0, 64, 108
1, 4538479, Note_off_c, 0, 64, 108
1, 4539372, Note_on_c, 0, 65, 121
1, 4543580, Note_off_c, 0, 65, 121
1, 4543643, Note_on_c, 0, 63, 98
1, 4546550, Note_off_c, 0, 63, 98
1, 4546612, Note_on_c, 0, 64, 91
1, 4561586, Note_off_c, 0, 64, 91
1, 4591765, Note_on_c, 0, 65, 85
1, 4595822, Note_off_c, 0, 65, 85
1, 4596156, Note_on_c, 0, 68, 123
1, 4601677, Note_off_c, 0, 68, 123
1, 4601802, Note_on_c, 0, 71, 119
1, 4602554, Note_off_c, 0, 71, 119
1, 4602679, Note_on_c, 0, 72, 113
1, 4610626, Note_off_c, 0, 72, 113
1, 4610667, Note_on_c, 0, 70, 114
1, 4637562, Note_off_c, 0, 70, 114
1, 4637938, Note_on_c, 0, 67, 109
1, 4640154, Note_off_c, 0, 67, 109
1, 4640446, Note_on_c, 0, 64, 107
1, 4643457, Note_off_c, 0, 64, 107
1, 4643624, Note_on_c, 0, 61, 104
1, 4653704, Note_off_c, 0, 61, 104
1, 4684632, Note_on_c, 0, 60, 113
1, 4688855, Note_off_c, 0, 60, 113
1, 4688973, Note_on_c, 0, 62, 90
1, 4692274, Note_off_c, 0, 62, 90
1, 4695397, Note_on_c, 0, 67, 125
1, 4697568, Note_off_c, 0, 67, 125
1, 4697657, Note_on_c, 0, 68, 126
1, 4700096, Note_off_c, 0, 68, 126
1, 4700125, Note_on_c, 0, 67, 122
1, 4701166, Note_off_c, 0, 67, 122
1, 4701210, Note_on_c, 0, 65, 117
1, 4705180, Note_off_c, 0, 65, 117
1, 4706830, Note_on_c, 0, 64, 99
1, 4710979, Note_off_c, 0, 64, 99
1, 4711127, Note_on_c, 0, 67, 122
1, 4716570, Note_off_c, 0, 67, 122
1, 4717060, Note_on_c, 0, 64, 98
1, 4721268, Note_off_c, 0, 64, 98
1, 4721357, Note_on_c, 0, 65, 122
1, 4727216, Note_off_c, 0, 65, 122
1, 4728212, Note_on_c, 0, 67, 116
1, 4733670, Note_off_c, 0, 67, 116
1, 4733907, Note_on_c, 0, 65, 115
1, 4737193, Note_off_c, 0, 65, 115
1, 4737624, Note_on_c, 0, 68, 124
1, 4740420, Note_off_c, 0, 68, 124
1, 4740538, Note_on_c, 0, 70, 117
1, 4768319, Note_off_c, 0, 70, 117
1, 4768549, Note_on_c, 0, 69, 116
1, 4772480, Note_off_c, 0, 69, 116
1, 4826468, Note_on_c, 0, 68, 122
1, 4830096, Note_off_c, 0, 68, 122
1, 4830185, Note_on_c, 0, 67, 120
1, 4831612, Note_off_c, 0, 67, 120
1, 4831701, Note_on_c, 0, 65, 114
1, 4834497, Note_off_c, 0, 65, 114
1, 4845259, Note_on_c, 0, 66, 121
1, 4848668, Note_off_c, 0, 66, 121
1, 4848668, Note_on_c, 0, 65, 114
1, 4851219, Note_off_c, 0, 65, 114
1, 4851344, Note_on_c, 0, 63, 100
1, 4854146, Note_off_c, 0, 63, 100
1, 4857555, Note_on_c, 0, 61, 114
1, 4859667, Note_off_c, 0, 61, 114
1, 4859771, Note_on_c, 0, 63, 103
1, 4860858, Note_off_c, 0, 63, 103
1, 4860941, Note_on_c, 0, 61, 110
1, 4861944, Note_off_c, 0, 61, 110
1, 4862027, Note_on_c, 0, 60, 110
1, 4862863, Note_off_c, 0, 60, 110
1, 4862946, Note_on_c, 0, 58, 112
1, 4865643, Note_off_c, 0, 58, 112
1, 4865726, Note_on_c, 0, 57, 112
1, 4867566, Note_off_c, 0, 57, 112
1, 4867796, Note_on_c, 0, 56, 105
1, 4870347, Note_off_c, 0, 56, 105
1, 4870451, Note_on_c, 0, 60, 108
1, 4873065, Note_off_c, 0, 60, 108
1, 4873169, Note_on_c, 0, 55, 100
1, 4875365, Note_off_c, 0, 55, 100
1, 4875532, Note_on_c, 0, 53, 99
1, 4877246, Note_off_c, 0, 53, 99
1, 4877580, Note_on_c, 0, 58, 112
1, 4880633, Note_off_c, 0, 58, 112
1, 4880779, Note_on_c, 0, 55, 106
1, 4882619, Note_off_c, 0, 55, 106
1, 4882702, Note_on_c, 0, 56, 108
1, 4885713, Note_off_c, 0, 56, 108
1, 4885796, Note_on_c, 0, 58, 110
1, 4887887, Note_off_c, 0, 58, 110
1, 4888096, Note_on_c, 0, 61, 120
1, 4891107, Note_off_c, 0, 61, 120
1, 4891211, Note_on_c, 0, 59, 118
1, 4893657, Note_off_c, 0, 59, 118
1, 4893719, Note_on_c, 0, 58, 114
1, 4895977, Note_off_c, 0, 58, 114
1, 4896060, Note_on_c, 0, 56, 115
1, 4897733, Note_off_c, 0, 56, 115
1, 4897774, Note_on_c, 0, 55, 115
1, 4900911, Note_off_c, 0, 55, 115
1, 4901287, Note_on_c, 0, 60, 112
1, 4904005, Note_off_c, 0, 60, 112
1, 4904172, Note_on_c, 0, 53, 84
1, 4907141, Note_off_c, 0, 53, 84
1, 4907224, Note_on_c, 0, 60, 113
1, 4909691, Note_off_c, 0, 60, 113
1, 4910379, Note_on_c, 0, 51, 97
1, 4921563, Note_off_c, 0, 51, 97
1, 4953045, Note_on_c, 0, 58, 116
1, 4955763, Note_off_c, 0, 58, 116
1, 4955867, Note_on_c, 0, 56, 103
1, 4957581, Note_off_c, 0, 56, 103
1, 4957581, Note_on_c, 0, 60, 100
1, 4958501, Note_off_c, 0, 60, 100
1, 4958501, Note_on_c, 0, 63, 104
1, 4959839, Note_off_c, 0, 63, 104
1, 4960194, Note_on_c, 0, 65, 123
1, 4962933, Note_off_c, 0, 65, 123
1, 4964647, Note_on_c, 0, 63, 111
1, 4966445, Note_off_c, 0, 63, 111
1, 4966549, Note_on_c, 0, 67, 122
1, 4968075, Note_off_c, 0, 67, 122
1, 4968158, Note_on_c, 0, 70, 115
1, 4969078, Note_off_c, 0, 70, 115
1, 4969245, Note_on_c, 0, 74, 117
1, 4971001, Note_off_c, 0, 74, 117
1, 4971105, Note_on_c, 0, 70, 121
1, 4973510, Note_off_c, 0, 70, 121
1, 4992458, Note_on_c, 0, 70, 105
1, 4994465, Note_off_c, 0, 70, 105
1, 4994757, Note_on_c, 0, 74, 119
1, 4998605, Note_off_c, 0, 74, 119
1, 4998855, Note_on_c, 0, 77, 120
1, 5015084, Note_off_c, 0, 77, 120
1, 5033802, Note_on_c, 0, 79, 118
1, 5037211, Note_off_c, 0, 79, 118
1, 5037273, Note_on_c, 0, 80, 125
1, 5052582, Note_off_c, 0, 80, 125
1, 5053042, Note_on_c, 0, 79, 117
1, 5057120, Note_off_c, 0, 79, 117
1, 5057872, Note_on_c, 0, 75, 119
1, 5063477, Note_off_c, 0, 75, 119
1, 5064886, Note_on_c, 0, 75, 113
1, 5078955, Note_off_c, 0, 75, 113
1, 5112415, Note_on_c, 0, 84, 117
1, 5125130, Note_off_c, 0, 84, 117
1, 5152485, Note_on_c, 0, 82, 127
1, 5166623, Note_off_c, 0, 82, 127
1, 5177121, Note_on_c, 0, 80, 126
1, 5182098, Note_off_c, 0, 80, 126
1, 5182098, Note_on_c, 0, 77, 115
1, 5183603, Note_off_c, 0, 77, 115
1, 5183770, Note_on_c, 0, 78, 120
1, 5196569, Note_off_c, 0, 78, 120
1, 5197175, Note_on_c, 0, 75, 117
1, 5202319, Note_off_c, 0, 75, 117
1, 5202507, Note_on_c, 0, 72, 118
1, 5204431, Note_off_c, 0, 72, 118
1, 5204849, Note_on_c, 0, 73, 120
1, 5220994, Note_off_c, 0, 73, 120
1, 5230781, Note_on_c, 0, 70, 113
1, 5233374, Note_off_c, 0, 70, 113
1, 5233562, Note_on_c, 0, 72, 121
1, 5234754, Note_off_c, 0, 72, 121
1, 5234816, Note_on_c, 0, 70, 124
1, 5236259, Note_off_c, 0, 70, 124
1, 5236363, Note_on_c, 0, 68, 124
1, 5240190, Note_off_c, 0, 68, 124
1, 5240461, Note_on_c, 0, 66, 123
1, 5242092, Note_off_c, 0, 66, 123
1, 5242154, Note_on_c, 0, 67, 125
1, 5249348, Note_off_c, 0, 67, 125
1, 5249578, Note_on_c, 0, 62, 101
1, 5251062, Note_off_c, 0, 62, 101
1, 5251145, Note_on_c, 0, 58, 107
1, 5252567, Note_off_c, 0, 58, 107
1, 5252692, Note_on_c, 0, 56, 118
1, 5254846, Note_off_c, 0, 56, 118
1, 5255013, Note_on_c, 0, 58, 116
1, 5257543, Note_off_c, 0, 58, 116
1, 5257584, Note_on_c, 0, 54, 89
1, 5258776, Note_off_c, 0, 54, 89
1, 5258817, Note_on_c, 0, 55, 103
1, 5263209, Note_off_c, 0, 55, 103
1, 5263690, Note_on_c, 0, 63, 102
1, 5277744, Note_off_c, 0, 63, 102
1, 5310433, Note_on_c, 0, 58, 98
1, 5312712, Note_off_c, 0, 58, 98
1, 5312816, Note_on_c, 0, 63, 115
1, 5320784, Note_off_c, 0, 63, 115
1, 5322436, Note_on_c, 0, 61, 111
1, 5326012, Note_off_c, 0, 61, 111
1, 5326116, Note_on_c, 0, 63, 115
1, 5333770, Note_off_c, 0, 63, 115
1, 5334062, Note_on_c, 0, 58, 98
1, 5335651, Note_off_c, 0, 58, 98
1, 5335797, Note_on_c, 0, 61, 112
1, 5338557, Note_off_c, 0, 61, 112
1, 5338619, Note_on_c, 0, 63, 112
1, 5340773, Note_off_c, 0, 63, 112
1, 5349536, Note_on_c, 0, 61, 113
1, 5352213, Note_off_c, 0, 61, 113
1, 5352359, Note_on_c, 0, 63, 107
1, 5356792, Note_off_c, 0, 63, 107
1, 5359218, Note_on_c, 0, 58, 83
1, 5361727, Note_off_c, 0, 58, 83
1, 5361831, Note_on_c, 0, 61, 114
1, 5364152, Note_off_c, 0, 61, 114
1, 5364319, Note_on_c, 0, 63, 101
1, 5368020, Note_off_c, 0, 63, 101
1, 5368940, Note_on_c, 0, 72, 124
1, 5372913, Note_off_c, 0, 72, 124
1, 5372954, Note_on_c, 0, 70, 112
1, 5375191, Note_off_c, 0, 70, 112
1, 5375400, Note_on_c, 0, 71, 121
1, 5376989, Note_off_c, 0, 71, 121
1, 5377156, Note_on_c, 0, 72, 121
1, 5383974, Note_off_c, 0, 72, 121
1, 5383974, Note_on_c, 0, 70, 124
1, 5387048, Note_off_c, 0, 70, 124
1, 5387173, Note_on_c, 0, 72, 117
1, 5390498, Note_off_c, 0, 72, 117
1, 5390686, Note_on_c, 0, 68, 124
1, 5394722, Note_off_c, 0, 68, 124
1, 5395014, Note_on_c, 0, 63, 96
1, 5398653, Note_off_c, 0, 63, 96
1, 5399322, Note_on_c, 0, 63, 94
1, 5410866, Note_off_c, 0, 63, 94
1, 5410866, End_track
0, 0, End_of_file
