0, 0, Header, 1, 1, 20160
1, 0, Start_track
1, 0, Title_t, "Melody"
1, 0, Tempo, 1000000
1, 0, Key_signature, -3, "major"
1, 0, Time_signature, 4, 2, 24, 8
1, 112704, Note_on_c, 0, 58, 109
1, 116077, Note_off_c, 0, 58, 109
1, 117139, Note_on_c, 0, 70, 113
1, 127086, Note_off_c, 0, 70, 113
1, 133756, Note_on_c, 0, 58, 99
1, 137266, Note_off_c, 0, 58, 99
1, 138436, Note_on_c, 0, 70, 111
1, 150255, Note_off_c, 0, 70, 111
1, 152712, Note_on_c, 0, 68, 114
1, 155754, Note_off_c, 0, 68, 114
1, 156456, Note_on_c, 0, 72, 112
1, 160434, Note_off_c, 0, 72, 112
1, 161245, Note_on_c, 0, 68, 109
1, 167498, Note_off_c, 0, 68, 109
1, 167827, Note_on_c, 0, 68, 101
1, 179758, Note_off_c, 0, 68, 101
1, 213988, Note_on_c, 0, 70, 117
1, 216456, Note_off_c, 0, 70, 117
1, 216949, Note_on_c, 0, 72, 113
1, 218347, Note_off_c, 0, 72, 113
1, 218511, Note_on_c, 0, 70, 118
1, 220238, Note_off_c, 0, 70, 118
1, 220402, Note_on_c, 0, 68, 123
1, 223858, Note_off_c, 0, 68, 123
1, 224639, Note_on_c, 0, 72, 113
1, 226531, Note_off_c, 0, 72, 113
1, 258553, Note_on_c, 0, 63, 103
1, 261361, Note_off_c, 0, 63, 103
1, 262180, Note_on_c, 0, 68, 122
1, 266041, Note_off_c, 0, 68, 122
1, 266392, Note_on_c, 0, 72, 113
1, 270429, Note_off_c, 0, 72, 113
1, 271014, Note_on_c, 0, 68, 119
1, 275051, Note_off_c, 0, 68, 119
1, 283886, Note_on_c, 0, 63, 112
1, 287162, Note_off_c, 0, 63, 112
1, 287688, Note_on_c, 0, 63, 115
1, 290438, Note_off_c, 0, 63, 115
1, 291315, Note_on_c, 0, 68, 119
1, 295469, Note_off_c, 0, 68, 119
1, 296346, Note_on_c, 0, 68, 119
1, 299096, Note_off_c, 0, 68, 119
1, 299681, Note_on_c, 0, 68, 121
1, 301436, Note_off_c, 0, 68, 121
1, 302313, Note_on_c, 0, 70, 114
1, 306818, Note_off_c, 0, 70, 114
1, 307227, Note_on_c, 0, 72, 116
1, 312142, Note_off_c, 0, 72, 116
1, 324137, Note_on_c, 0, 63, 111
1, 327296, Note_off_c, 0, 63, 111
1, 338179, Note_on_c, 0, 63, 93
1, 340695, Note_off_c, 0, 63, 93
1, 341338, Note_on_c, 0, 68, 119
1, 344848, Note_off_c, 0, 68, 119
1, 345199, Note_on_c, 0, 68, 119
1, 347832, Note_off_c, 0, 68, 119
1, 348212, Note_on_c, 0, 68, 116
1, 349499, Note_off_c, 0, 68, 116
1, 350067, Note_on_c, 0, 70, 117
1, 354757, Note_off_c, 0, 70, 117
1, 355349, Note_on_c, 0, 71, 121
1, 360059, Note_off_c, 0, 71, 121
1, 368662, Note_on_c, 0, 70, 114
1, 370472, Note_off_c, 0, 70, 114
1, 370801, Note_on_c, 0, 68, 119
1, 373845, Note_off_c, 0, 68, 119
1, 375696, Note_on_c, 0, 70, 115
1, 384953, Note_off_c, 0, 70, 115
1, 385076, Note_on_c, 0, 72, 113
1, 386392, Note_off_c, 0, 72, 113
1, 386556, Note_on_c, 0, 70, 117
1, 388119, Note_off_c, 0, 70, 117
1, 388242, Note_on_c, 0, 68, 120
1, 391368, Note_off_c, 0, 68, 120
1, 414408, Note_on_c, 0, 68, 113
1, 416794, Note_off_c, 0, 68, 113
1, 416876, Note_on_c, 0, 70, 118
1, 418727, Note_off_c, 0, 70, 118
1, 418809, Note_on_c, 0, 73, 116
1, 421359, Note_off_c, 0, 73, 116
1, 421564, Note_on_c, 0, 70, 114
1, 434359, Note_off_c, 0, 70, 114
1, 434647, Note_on_c, 0, 68, 120
1, 438473, Note_off_c, 0, 68, 120
1, 438678, Note_on_c, 0, 66, 114
1, 442339, Note_off_c, 0, 66, 114
1, 442544, Note_on_c, 0, 63, 101
1, 445999, Note_off_c, 0, 63, 101
1, 446328, Note_on_c, 0, 58, 108
1, 450154, Note_off_c, 0, 58, 108
1, 450606, Note_on_c, 0, 56, 109
1, 454062, Note_off_c, 0, 56, 109
1, 455172, Note_on_c, 0, 63, 103
1, 469366, Note_off_c, 0, 63, 103
1, 470929, Note_on_c, 0, 56, 116
1, 473808, Note_off_c, 0, 56, 116
1, 474178, Note_on_c, 0, 63, 101
1, 478127, Note_off_c, 0, 63, 101
1, 478661, Note_on_c, 0, 55, 90
1, 504416, Note_off_c, 0, 55, 90
1, 541526, Note_on_c, 0, 58, 102
1, 543212, Note_off_c, 0, 58, 102
1, 543664, Note_on_c, 0, 60, 107
1, 545104, Note_off_c, 0, 60, 107
1, 545350, Note_on_c, 0, 62, 103
1, 546872, Note_off_c, 0, 62, 103
1, 547571, Note_on_c, 0, 65, 118
1, 549916, Note_off_c, 0, 65, 118
1, 550245, Note_on_c, 0, 62, 98
1, 551520, Note_off_c, 0, 62, 98
1, 551684, Note_on_c, 0, 63, 98
1, 553082, Note_off_c, 0, 63, 98
1, 553123, Note_on_c, 0, 67, 104
1, 556743, Note_off_c, 0, 67, 104
1, 569497, Note_on_c, 0, 66, 80
1, 571142, Note_off_c, 0, 66, 80
1, 571471, Note_on_c, 0, 68, 118
1, 573528, Note_off_c, 0, 68, 118
1, 573610, Note_on_c, 0, 67, 117
1, 574868, Note_off_c, 0, 67, 117
1, 574897, Note_on_c, 0, 66, 113
1, 576067, Note_off_c, 0, 66, 113
1, 576271, Note_on_c, 0, 67, 112
1, 577177, Note_off_c, 0, 67, 112
1, 577323, Note_on_c, 0, 74, 110
1, 579107, Note_off_c, 0, 74, 110
1, 579778, Note_on_c, 0, 67, 118
1, 583480, Note_off_c, 0, 67, 118
1, 598649, Note_on_c, 0, 68, 120
1, 600265, Note_off_c, 0, 68, 120
1, 600265, Note_on_c, 0, 67, 113
1, 601013, Note_off_c, 0, 67, 113
1, 601013, Note_on_c, 0, 65, 103
1, 601867, Note_off_c, 0, 65, 103
1, 602792, Note_on_c, 0, 64, 106
1, 604300, Note_off_c, 0, 64, 106
1, 604365, Note_on_c, 0, 67, 113
1, 605871, Note_off_c, 0, 67, 113
1, 605914, Note_on_c, 0, 70, 113
1, 606513, Note_off_c, 0, 70, 113
1, 606554, Note_on_c, 0, 73, 118
1, 608261, Note_off_c, 0, 73, 118
1, 608399, Note_on_c, 0, 72, 113
1, 610212, Note_off_c, 0, 72, 113
1, 610343, Note_on_c, 0, 71, 115
1, 611571, Note_off_c, 0, 71, 115
1, 611644, Note_on_c, 0, 72, 116
1, 613326, Note_off_c, 0, 72, 116
1, 613359, Note_on_c, 0, 78, 111
1, 615786, Note_off_c, 0, 78, 111
1, 615847, Note_on_c, 0, 77, 118
1, 617184, Note_off_c, 0, 77, 118
1, 617266, Note_on_c, 0, 76, 119
1, 620495, Note_off_c, 0, 76, 119
1, 651928, Note_on_c, 0, 65, 95
1, 655384, Note_off_c, 0, 65, 95
1, 664517, Note_on_c, 0, 65, 119
1, 667643, Note_off_c, 0, 65, 119
1, 668032, Note_on_c, 0, 68, 121
1, 671689, Note_off_c, 0, 68, 121
1, 671923, Note_on_c, 0, 72, 116
1, 684298, Note_off_c, 0, 72, 116
1, 684510, Note_on_c, 0, 67, 113
1, 686155, Note_off_c, 0, 67, 113
1, 686237, Note_on_c, 0, 70, 105
1, 713905, Note_off_c, 0, 70, 105
1, 714439, Note_on_c, 0, 67, 112
1, 717442, Note_off_c, 0, 67, 112
1, 717627, Note_on_c, 0, 68, 113
1, 722625, Note_off_c, 0, 68, 113
1, 722686, Note_on_c, 0, 65, 110
1, 728199, Note_off_c, 0, 65, 110
1, 728980, Note_on_c, 0, 65, 96
1, 741981, Note_off_c, 0, 65, 96
1, 768415, Note_on_c, 0, 59, 114
1, 769669, Note_off_c, 0, 59, 114
1, 769751, Note_on_c, 0, 60, 114
1, 776087, Note_off_c, 0, 60, 114
1, 776136, Note_on_c, 0, 62, 94
1, 777835, Note_off_c, 0, 62, 94
1, 777898, Note_on_c, 0, 60, 106
1, 780150, Note_off_c, 0, 60, 106
1, 780208, Note_on_c, 0, 59, 106
1, 781904, Note_off_c, 0, 59, 106
1, 781925, Note_on_c, 0, 60, 100
1, 784249, Note_off_c, 0, 60, 100
1, 791819, Note_on_c, 0, 59, 109
1, 793115, Note_off_c, 0, 59, 109
1, 793279, Note_on_c, 0, 60, 109
1, 796138, Note_off_c, 0, 60, 109
1, 796632, Note_on_c, 0, 67, 121
1, 800918, Note_off_c, 0, 67, 121
1, 801020, Note_on_c, 0, 65, 111
1, 805452, Note_off_c, 0, 65, 111
1, 805876, Note_on_c, 0, 64, 96
1, 809957, Note_off_c, 0, 64, 96
1, 810721, Note_on_c, 0, 65, 103
1, 814835, Note_off_c, 0, 65, 103
1, 816809, Note_on_c, 0, 69, 113
1, 819113, Note_off_c, 0, 69, 113
1, 819277, Note_on_c, 0, 70, 112
1, 842070, Note_off_c, 0, 70, 112
1, 842327, Note_on_c, 0, 69, 111
1, 846627, Note_off_c, 0, 69, 111
1, 850342, Note_on_c, 0, 68, 102
1, 868627, Note_off_c, 0, 68, 102
1, 909541, Note_on_c, 0, 66, 115
1, 915547, Note_off_c, 0, 66, 115
1, 915817, Note_on_c, 0, 65, 96
1, 917396, Note_off_c, 0, 65, 96
1, 930932, Note_on_c, 0, 66, 112
1, 935540, Note_off_c, 0, 66, 112
1, 935828, Note_on_c, 0, 65, 111
1, 940538, Note_off_c, 0, 65, 111
1, 940764, Note_on_c, 0, 63, 97
1, 943973, Note_off_c, 0, 63, 97
1, 948087, Note_on_c, 0, 70, 118
1, 950246, Note_off_c, 0, 70, 118
1, 950328, Note_on_c, 0, 72, 111
1, 951603, Note_off_c, 0, 72, 111
1, 951705, Note_on_c, 0, 70, 118
1, 954235, Note_off_c, 0, 70, 118
1, 954379, Note_on_c, 0, 68, 119
1, 965343, Note_off_c, 0, 68, 119
1, 966063, Note_on_c, 0, 70, 113
1, 969889, Note_off_c, 0, 70, 113
1, 970279, Note_on_c, 0, 68, 114
1, 973200, Note_off_c, 0, 68, 114
1, 973282, Note_on_c, 0, 70, 111
1, 977293, Note_off_c, 0, 70, 111
1, 977539, Note_on_c, 0, 66, 111
1, 978937, Note_off_c, 0, 66, 111
1, 979148, Note_on_c, 0, 67, 103
1, 999072, Note_off_c, 0, 67, 103
1, 1033780, Note_on_c, 0, 70, 119
1, 1035940, Note_off_c, 0, 70, 119
1, 1035940, Note_on_c, 0, 72, 118
1, 1037976, Note_off_c, 0, 72, 118
1, 1038058, Note_on_c, 0, 74, 112
1, 1040464, Note_off_c, 0, 74, 112
1, 1050400, Note_on_c, 0, 70, 105
1, 1051634, Note_off_c, 0, 70, 105
1, 1051634, Note_on_c, 0, 72, 114
1, 1052860, Note_off_c, 0, 72, 114
1, 1052860, Note_on_c, 0, 74, 113
1, 1054831, Note_off_c, 0, 74, 113
1, 1054924, Note_on_c, 0, 77, 114
1, 1056837, Note_off_c, 0, 77, 114
1, 1056898, Note_on_c, 0, 74, 106
1, 1081460, Note_off_c, 0, 74, 106
1, 1096435, Note_on_c, 0, 84, 117
1, 1100713, Note_off_c, 0, 84, 117
1, 1121243, Note_on_c, 0, 78, 112
1, 1123817, Note_off_c, 0, 78, 112
1, 1124636, Note_on_c, 0, 79, 110
1, 1139264, Note_off_c, 0, 79, 110
1, 1146914, Note_on_c, 0, 78, 121
1, 1152674, Note_off_c, 0, 78, 121
1, 1152838, Note_on_c, 0, 77, 111
1, 1156612, Note_off_c, 0, 77, 111
1, 1158484, Note_on_c, 0, 77, 106
1, 1168753, Note_off_c, 0, 77, 106
1, 1169162, Note_on_c, 0, 75, 113
1, 1173228, Note_off_c, 0, 75, 113
1, 1173549, Note_on_c, 0, 72, 114
1, 1176094, Note_off_c, 0, 72, 114
1, 1195211, Note_on_c, 0, 66, 119
1, 1197350, Note_off_c, 0, 66, 119
1, 1197514, Note_on_c, 0, 65, 117
1, 1198563, Note_off_c, 0, 65, 117
1, 1198606, Note_on_c, 0, 63, 103
1, 1200231, Note_off_c, 0, 63, 103
1, 1200325, Note_on_c, 0, 60, 105
1, 1203081, Note_off_c, 0, 60, 105
1, 1203498, Note_on_c, 0, 63, 99
1, 1206398, Note_off_c, 0, 63, 99
1, 1224500, Note_on_c, 0, 58, 95
1, 1225158, Note_off_c, 0, 58, 95
1, 1225158, Note_on_c, 0, 60, 103
1, 1225898, Note_off_c, 0, 60, 103
1, 1226091, Note_on_c, 0, 62, 104
1, 1227115, Note_off_c, 0, 62, 104
1, 1227721, Note_on_c, 0, 58, 108
1, 1229430, Note_off_c, 0, 58, 108
1, 1229948, Note_on_c, 0, 63, 104
1, 1231593, Note_off_c, 0, 63, 104
1, 1232210, Note_on_c, 0, 65, 119
1, 1233649, Note_off_c, 0, 65, 119
1, 1233771, Note_on_c, 0, 70, 118
1, 1235548, Note_off_c, 0, 70, 118
1, 1235602, Note_on_c, 0, 65, 113
1, 1253951, Note_off_c, 0, 65, 113
1, 1259957, Note_on_c, 0, 70, 115
1, 1264788, Note_off_c, 0, 70, 115
1, 1264788, Note_on_c, 0, 68, 106
1, 1268152, Note_off_c, 0, 68, 106
1, 1268561, Note_on_c, 0, 73, 118
1, 1272159, Note_off_c, 0, 73, 118
1, 1272451, Note_on_c, 0, 69, 118
1, 1274264, Note_off_c, 0, 69, 118
1, 1274381, Note_on_c, 0, 70, 120
1, 1285001, Note_off_c, 0, 70, 120
1, 1285937, Note_on_c, 0, 66, 113
1, 1289213, Note_off_c, 0, 66, 113
1, 1289476, Note_on_c, 0, 62, 104
1, 1293718, Note_off_c, 0, 62, 104
1, 1294039, Note_on_c, 0, 58, 105
1, 1297228, Note_off_c, 0, 58, 105
1, 1297432, Note_on_c, 0, 65, 118
1, 1302727, Note_off_c, 0, 65, 118
1, 1303399, Note_on_c, 0, 63, 81
1, 1308197, Note_off_c, 0, 63, 81
1, 1309513, Note_on_c, 0, 63, 97
1, 1321566, Note_off_c, 0, 63, 97
1, 1348280, Note_on_c, 0, 60, 102
1, 1349390, Note_off_c, 0, 60, 102
1, 1349534, Note_on_c, 0, 63, 103
1, 1350994, Note_off_c, 0, 63, 103
1, 1351281, Note_on_c, 0, 67, 123
1, 1353255, Note_off_c, 0, 67, 123
1, 1354036, Note_on_c, 0, 72, 122
1, 1357039, Note_off_c, 0, 72, 122
1, 1357244, Note_on_c, 0, 70, 124
1, 1359383, Note_off_c, 0, 70, 124
1, 1361495, Note_on_c, 0, 70, 126
1, 1363367, Note_off_c, 0, 70, 126
1, 1363454, Note_on_c, 0, 73, 118
1, 1375683, Note_off_c, 0, 73, 118
1, 1376999, Note_on_c, 0, 70, 122
1, 1381124, Note_off_c, 0, 70, 122
1, 1381738, Note_on_c, 0, 68, 122
1, 1386506, Note_off_c, 0, 68, 122
1, 1386857, Note_on_c, 0, 66, 105
1, 1388758, Note_off_c, 0, 66, 105
1, 1389226, Note_on_c, 0, 68, 122
1, 1393994, Note_off_c, 0, 68, 122
1, 1394140, Note_on_c, 0, 66, 107
1, 1396070, Note_off_c, 0, 66, 107
1, 1396321, Note_on_c, 0, 68, 114
1, 1428947, Note_off_c, 0, 68, 114
1, 1433801, Note_on_c, 0, 69, 114
1, 1438738, Note_off_c, 0, 69, 114
1, 1439602, Note_on_c, 0, 68, 121
1, 1441679, Note_off_c, 0, 68, 121
1, 1441843, Note_on_c, 0, 66, 116
1, 1443262, Note_off_c, 0, 66, 116
1, 1443405, Note_on_c, 0, 63, 104
1, 1445482, Note_off_c, 0, 63, 104
1, 1445872, Note_on_c, 0, 61, 105
1, 1454306, Note_off_c, 0, 61, 105
1, 1454594, Note_on_c, 0, 63, 104
1, 1461238, Note_off_c, 0, 63, 104
1, 1461423, Note_on_c, 0, 61, 95
1, 1463294, Note_off_c, 0, 61, 95
1, 1463704, Note_on_c, 0, 63, 92
1, 1481375, Note_off_c, 0, 63, 92
1, 1481843, Note_on_c, 0, 61, 89
1, 1485061, Note_off_c, 0, 61, 89
1, 1485148, Note_on_c, 0, 63, 105
1, 1490911, Note_off_c, 0, 63, 105
1, 1491700, Note_on_c, 0, 67, 116
1, 1496615, Note_off_c, 0, 67, 116
1, 1554750, Note_on_c, 0, 58, 113
1, 1559440, Note_off_c, 0, 58, 113
1, 1559769, Note_on_c, 0, 51, 96
1, 1578735, Note_off_c, 0, 51, 96
1, 1579228, Note_on_c, 0, 54, 103
1, 1584041, Note_off_c, 0, 54, 103
1, 1590377, Note_on_c, 0, 56, 115
1, 1596713, Note_off_c, 0, 56, 115
1, 1596877, Note_on_c, 0, 54, 98
1, 1600291, Note_off_c, 0, 54, 98
1, 1600332, Note_on_c, 0, 56, 118
1, 1608519, Note_off_c, 0, 56, 118
1, 1608576, Note_on_c, 0, 54, 100
1, 1610984, Note_off_c, 0, 54, 100
1, 1611027, Note_on_c, 0, 56, 115
1, 1621724, Note_off_c, 0, 56, 115
1, 1622120, Note_on_c, 0, 58, 120
1, 1626245, Note_off_c, 0, 58, 120
1, 1626625, Note_on_c, 0, 56, 117
1, 1630311, Note_off_c, 0, 56, 117
1, 1630896, Note_on_c, 0, 53, 101
1, 1632856, Note_off_c, 0, 53, 101
1, 1633002, Note_on_c, 0, 55, 105
1, 1649503, Note_off_c, 0, 55, 105
1, 1649854, Note_on_c, 0, 58, 103
1, 1652926, Note_off_c, 0, 58, 103
1, 1653569, Note_on_c, 0, 63, 112
1, 1660502, Note_off_c, 0, 63, 112
1, 1660765, Note_on_c, 0, 61, 107
1, 1663954, Note_off_c, 0, 61, 107
1, 1720391, Note_on_c, 0, 63, 102
1, 1722965, Note_off_c, 0, 63, 102
1, 1723637, Note_on_c, 0, 66, 116
1, 1729517, Note_off_c, 0, 66, 116
1, 1734900, Note_on_c, 0, 63, 97
1, 1744233, Note_off_c, 0, 63, 97
1, 1744437, Note_on_c, 0, 66, 117
1, 1749088, Note_off_c, 0, 66, 117
1, 1770714, Note_on_c, 0, 63, 106
1, 1773141, Note_off_c, 0, 63, 106
1, 1773367, Note_on_c, 0, 58, 99
1, 1774704, Note_off_c, 0, 58, 99
1, 1774848, Note_on_c, 0, 61, 115
1, 1777913, Note_off_c, 0, 61, 115
1, 1778159, Note_on_c, 0, 63, 110
1, 1780586, Note_off_c, 0, 63, 110
1, 1786066, Note_on_c, 0, 63, 115
1, 1789401, Note_off_c, 0, 63, 115
1, 1789635, Note_on_c, 0, 66, 117
1, 1793087, Note_off_c, 0, 66, 117
1, 1793174, Note_on_c, 0, 60, 90
1, 1796216, Note_off_c, 0, 60, 90
1, 1796443, Note_on_c, 0, 61, 110
1, 1799528, Note_off_c, 0, 61, 110
1, 1799569, Note_on_c, 0, 63, 106
1, 1805205, Note_off_c, 0, 63, 106
1, 1805369, Note_on_c, 0, 61, 94
1, 1807364, Note_off_c, 0, 61, 94
1, 1807466, Note_on_c, 0, 63, 108
1, 1816620, Note_off_c, 0, 63, 108
1, 1816764, Note_on_c, 0, 61, 103
1, 1818101, Note_off_c, 0, 61, 103
1, 1818245, Note_on_c, 0, 63, 103
1, 1827790, Note_off_c, 0, 63, 103
1, 1827995, Note_on_c, 0, 72, 119
1, 1832232, Note_off_c, 0, 72, 119
1, 1832396, Note_on_c, 0, 70, 119
1, 1835934, Note_off_c, 0, 70, 119
1, 1900686, Note_on_c, 0, 63, 103
1, 1903114, Note_off_c, 0, 63, 103
1, 1920270, Note_on_c, 0, 63, 107
1, 1921909, Note_off_c, 0, 63, 107
1, 1921969, Note_on_c, 0, 64, 105
1, 1923467, Note_off_c, 0, 64, 105
1, 1923565, Note_on_c, 0, 63, 104
1, 1924943, Note_off_c, 0, 63, 104
1, 1925210, Note_on_c, 0, 60, 102
1, 1928007, Note_off_c, 0, 60, 102
1, 1928212, Note_on_c, 0, 63, 96
1, 1930186, Note_off_c, 0, 63, 96
1, 1930576, Note_on_c, 0, 66, 118
1, 1933785, Note_off_c, 0, 66, 118
1, 1933928, Note_on_c, 0, 68, 120
1, 1935717, Note_off_c, 0, 68, 120
1, 1935799, Note_on_c, 0, 70, 122
1, 1938288, Note_off_c, 0, 70, 122
1, 1938390, Note_on_c, 0, 66, 111
1, 1940632, Note_off_c, 0, 66, 111
1, 1941105, Note_on_c, 0, 63, 97
1, 1942935, Note_off_c, 0, 63, 97
1, 1943243, Note_on_c, 0, 60, 100
1, 1945382, Note_off_c, 0, 60, 100
1, 1945752, Note_on_c, 0, 68, 121
1, 1947767, Note_off_c, 0, 68, 121
1, 1947849, Note_on_c, 0, 72, 96
1, 1948712, Note_off_c, 0, 72, 96
1, 1948814, Note_on_c, 0, 70, 112
1, 1950320, Note_off_c, 0, 70, 112
1, 1950583, Note_on_c, 0, 66, 117
1, 1953772, Note_off_c, 0, 66, 117
1, 1953903, Note_on_c, 0, 68, 122
1, 1958174, Note_off_c, 0, 68, 122
1, 1958393, Note_on_c, 0, 70, 113
1, 1960236, Note_off_c, 0, 70, 113
1, 1960294, Note_on_c, 0, 68, 119
1, 1961274, Note_off_c, 0, 68, 119
1, 1961347, Note_on_c, 0, 66, 115
1, 1963965, Note_off_c, 0, 66, 115
1, 1963994, Note_on_c, 0, 67, 120
1, 1971834, Note_off_c, 0, 67, 120
1, 1972228, Note_on_c, 0, 63, 97
1, 1974319, Note_off_c, 0, 63, 97
1, 1974640, Note_on_c, 0, 58, 95
1, 1977799, Note_off_c, 0, 58, 95
1, 2001551, Note_on_c, 0, 63, 114
1, 2003505, Note_off_c, 0, 63, 114
1, 2003587, Note_on_c, 0, 64, 110
1, 2005520, Note_off_c, 0, 64, 110
1, 2005581, Note_on_c, 0, 63, 107
1, 2006630, Note_off_c, 0, 63, 107
1, 2006938, Note_on_c, 0, 58, 105
1, 2009118, Note_off_c, 0, 58, 105
1, 2009303, Note_on_c, 0, 60, 100
1, 2011833, Note_off_c, 0, 60, 100
1, 2011879, Note_on_c, 0, 62, 86
1, 2013063, Note_off_c, 0, 62, 86
1, 2013121, Note_on_c, 0, 60, 92
1, 2014349, Note_off_c, 0, 60, 92
1, 2014509, Note_on_c, 0, 58, 106
1, 2016893, Note_off_c, 0, 58, 106
1, 2017156, Note_on_c, 0, 63, 110
1, 2019306, Note_off_c, 0, 63, 110
1, 2019349, Note_on_c, 0, 64, 108
1, 2021060, Note_off_c, 0, 64, 108
1, 2021133, Note_on_c, 0, 63, 106
1, 2022230, Note_off_c, 0, 63, 106
1, 2022698, Note_on_c, 0, 58, 103
1, 2024263, Note_off_c, 0, 58, 103
1, 2024423, Note_on_c, 0, 60, 110
1, 2026865, Note_off_c, 0, 60, 110
1, 2027040, Note_on_c, 0, 63, 103
1, 2028619, Note_off_c, 0, 63, 103
1, 2028677, Note_on_c, 0, 60, 108
1, 2029876, Note_off_c, 0, 60, 108
1, 2029963, Note_on_c, 0, 58, 108
1, 2032011, Note_off_c, 0, 58, 108
1, 2032201, Note_on_c, 0, 63, 114
1, 2034643, Note_off_c, 0, 63, 114
1, 2034672, Note_on_c, 0, 64, 109
1, 2036968, Note_off_c, 0, 64, 109
1, 2037055, Note_on_c, 0, 60, 111
1, 2039629, Note_off_c, 0, 60, 111
1, 2040111, Note_on_c, 0, 63, 111
1, 2043402, Note_off_c, 0, 63, 111
1, 2043504, Note_on_c, 0, 64, 104
1, 2045946, Note_off_c, 0, 64, 104
1, 2045975, Note_on_c, 0, 63, 107
1, 2047028, Note_off_c, 0, 63, 107
1, 2047115, Note_on_c, 0, 60, 100
1, 2049470, Note_off_c, 0, 60, 100
1, 2050055, Note_on_c, 0, 63, 93
1, 2051605, Note_off_c, 0, 63, 93
1, 2051795, Note_on_c, 0, 65, 123
1, 2055364, Note_off_c, 0, 65, 123
1, 2055466, Note_on_c, 0, 63, 104
1, 2058113, Note_off_c, 0, 63, 104
1, 2058200, Note_on_c, 0, 64, 103
1, 2060087, Note_off_c, 0, 64, 103
1, 2060160, Note_on_c, 0, 63, 109
1, 2061432, Note_off_c, 0, 63, 109
1, 2061475, Note_on_c, 0, 60, 108
1, 2064634, Note_off_c, 0, 60, 108
1, 2064751, Note_on_c, 0, 63, 93
1, 2066316, Note_off_c, 0, 63, 93
1, 2066447, Note_on_c, 0, 66, 118
1, 2069621, Note_off_c, 0, 66, 118
1, 2069694, Note_on_c, 0, 63, 107
1, 2072531, Note_off_c, 0, 63, 107
1, 2072589, Note_on_c, 0, 64, 102
1, 2074066, Note_off_c, 0, 64, 102
1, 2074139, Note_on_c, 0, 63, 104
1, 2075397, Note_off_c, 0, 63, 104
1, 2075557, Note_on_c, 0, 60, 110
1, 2078146, Note_off_c, 0, 60, 110
1, 2078189, Note_on_c, 0, 63, 86
1, 2079827, Note_off_c, 0, 63, 86
1, 2080031, Note_on_c, 0, 65, 123
1, 2083380, Note_off_c, 0, 65, 123
1, 2083453, Note_on_c, 0, 63, 104
1, 2087607, Note_off_c, 0, 63, 104
1, 2087724, Note_on_c, 0, 64, 108
1, 2089435, Note_off_c, 0, 64, 108
1, 2089493, Note_on_c, 0, 63, 109
1, 2090151, Note_off_c, 0, 63, 109
1, 2090180, Note_on_c, 0, 60, 110
1, 2093471, Note_off_c, 0, 60, 110
1, 2093529, Note_on_c, 0, 63, 89
1, 2095035, Note_off_c, 0, 63, 89
1, 2095093, Note_on_c, 0, 66, 120
1, 2097930, Note_off_c, 0, 66, 120
1, 2098164, Note_on_c, 0, 68, 124
1, 2102377, Note_off_c, 0, 68, 124
1, 2102555, Note_on_c, 0, 72, 102
1, 2103439, Note_off_c, 0, 72, 102
1, 2103531, Note_on_c, 0, 68, 121
1, 2104672, Note_off_c, 0, 68, 121
1, 2104730, Note_on_c, 0, 66, 113
1, 2107260, Note_off_c, 0, 66, 113
1, 2107377, Note_on_c, 0, 68, 118
1, 2110917, Note_off_c, 0, 68, 118
1, 2111034, Note_on_c, 0, 72, 97
1, 2111955, Note_off_c, 0, 72, 97
1, 2112013, Note_on_c, 0, 68, 103
1, 2112963, Note_off_c, 0, 68, 103
1, 2113036, Note_on_c, 0, 66, 119
1, 2114937, Note_off_c, 0, 66, 119
1, 2115127, Note_on_c, 0, 68, 120
1, 2118316, Note_off_c, 0, 68, 120
1, 2118389, Note_on_c, 0, 72, 97
1, 2119690, Note_off_c, 0, 72, 97
1, 2119836, Note_on_c, 0, 68, 110
1, 2121079, Note_off_c, 0, 68, 110
1, 2121181, Note_on_c, 0, 66, 110
1, 2123287, Note_off_c, 0, 66, 110
1, 2123360, Note_on_c, 0, 68, 119
1, 2126695, Note_off_c, 0, 68, 119
1, 2126797, Note_on_c, 0, 72, 93
1, 2128011, Note_off_c, 0, 72, 93
1, 2128142, Note_on_c, 0, 68, 113
1, 2129224, Note_off_c, 0, 68, 113
1, 2129297, Note_on_c, 0, 66, 113
1, 2130876, Note_off_c, 0, 66, 113
1, 2130949, Note_on_c, 0, 67, 115
1, 2136537, Note_off_c, 0, 67, 115
1, 2136654, Note_on_c, 0, 75, 119
1, 2140515, Note_off_c, 0, 75, 119
1, 2219922, Note_on_c, 0, 77, 125
1, 2225435, Note_off_c, 0, 77, 125
1, 2260365, Note_on_c, 0, 87, 120
1, 2265055, Note_off_c, 0, 87, 120
1, 2269580, Note_on_c, 0, 87, 110
1, 2281758, Note_off_c, 0, 87, 110
1, 2317922, Note_on_c, 0, 80, 120
1, 2334214, Note_off_c, 0, 80, 120
1, 2342278, Note_on_c, 0, 78, 116
1, 2346433, Note_off_c, 0, 78, 116
1, 2346721, Note_on_c, 0, 77, 121
1, 2350053, Note_off_c, 0, 77, 121
1, 2350423, Note_on_c, 0, 75, 98
1, 2354742, Note_off_c, 0, 75, 98
1, 2354947, Note_on_c, 0, 77, 107
1, 2355852, Note_off_c, 0, 77, 107
1, 2356098, Note_on_c, 0, 78, 122
1, 2358114, Note_off_c, 0, 78, 122
1, 2358114, Note_on_c, 0, 77, 119
1, 2360994, Note_off_c, 0, 77, 119
1, 2362104, Note_on_c, 0, 75, 109
1, 2373912, Note_off_c, 0, 75, 109
1, 2401354, Note_on_c, 0, 73, 121
1, 2404844, Note_off_c, 0, 73, 121
1, 2404844, Note_on_c, 0, 72, 120
1, 2406306, Note_off_c, 0, 72, 120
1, 2406423, Note_on_c, 0, 71, 119
1, 2407447, Note_off_c, 0, 71, 119
1, 2407593, Note_on_c, 0, 70, 121
1, 2431759, Note_off_c, 0, 70, 121
1, 2434216, Note_on_c, 0, 68, 123
1, 2437756, Note_off_c, 0, 68, 123
1, 2438165, Note_on_c, 0, 66, 114
1, 2441178, Note_off_c, 0, 66, 114
1, 2443986, Note_on_c, 0, 63, 98
1, 2456946, Note_off_c, 0, 63, 98
1, 2493107, Note_on_c, 0, 66, 102
1, 2494920, Note_off_c, 0, 66, 102
1, 2495241, Note_on_c, 0, 67, 115
1, 2498137, Note_off_c, 0, 67, 115
1, 2498224, Note_on_c, 0, 70, 100
1, 2499043, Note_off_c, 0, 70, 100
1, 2499218, Note_on_c, 0, 72, 119
1, 2502582, Note_off_c, 0, 72, 119
1, 2502816, Note_on_c, 0, 70, 113
1, 2504074, Note_off_c, 0, 70, 113
1, 2504220, Note_on_c, 0, 75, 120
1, 2507818, Note_off_c, 0, 75, 120
1, 2508842, Note_on_c, 0, 63, 96
1, 2510480, Note_off_c, 0, 63, 96
1, 2529584, Note_on_c, 0, 63, 101
1, 2532041, Note_off_c, 0, 63, 101
1, 2532216, Note_on_c, 0, 66, 100
1, 2538623, Note_off_c, 0, 66, 100
1, 2543625, Note_on_c, 0, 68, 117
1, 2551144, Note_off_c, 0, 68, 117
1, 2551465, Note_on_c, 0, 66, 106
1, 2553717, Note_off_c, 0, 66, 106
1, 2553951, Note_on_c, 0, 68, 115
1, 2568755, Note_off_c, 0, 68, 115
1, 2574489, Note_on_c, 0, 66, 118
1, 2576361, Note_off_c, 0, 66, 118
1, 2576448, Note_on_c, 0, 65, 113
1, 2577910, Note_off_c, 0, 65, 113
1, 2577997, Note_on_c, 0, 64, 106
1, 2579576, Note_off_c, 0, 64, 106
1, 2579722, Note_on_c, 0, 63, 98
1, 2581594, Note_off_c, 0, 63, 98
1, 2593794, Note_on_c, 0, 70, 124
1, 2596222, Note_off_c, 0, 70, 124
1, 2596397, Note_on_c, 0, 68, 120
1, 2598532, Note_off_c, 0, 68, 120
1, 2598619, Note_on_c, 0, 70, 121
1, 2600901, Note_off_c, 0, 70, 121
1, 2601047, Note_on_c, 0, 68, 110
1, 2603065, Note_off_c, 0, 68, 110
1, 2604089, Note_on_c, 0, 66, 89
1, 2606341, Note_off_c, 0, 66, 89
1, 2606575, Note_on_c, 0, 67, 118
1, 2609120, Note_off_c, 0, 67, 118
1, 2609295, Note_on_c, 0, 68, 120
1, 2611723, Note_off_c, 0, 68, 120
1, 2611869, Note_on_c, 0, 66, 105
1, 2613653, Note_off_c, 0, 66, 105
1, 2613711, Note_on_c, 0, 67, 121
1, 2616285, Note_off_c, 0, 67, 121
1, 2616460, Note_on_c, 0, 63, 102
1, 2618625, Note_off_c, 0, 63, 102
1, 2618771, Note_on_c, 0, 58, 107
1, 2621433, Note_off_c, 0, 58, 107
1, 2621520, Note_on_c, 0, 57, 107
1, 2623889, Note_off_c, 0, 57, 107
1, 2623976, Note_on_c, 0, 56, 98
1, 2626492, Note_off_c, 0, 56, 98
1, 2626609, Note_on_c, 0, 60, 114
1, 2629388, Note_off_c, 0, 60, 114
1, 2629415, Note_on_c, 0, 59, 109
1, 2631307, Note_off_c, 0, 59, 109
1, 2632212, Note_on_c, 0, 58, 107
1, 2636847, Note_off_c, 0, 58, 107
1, 2636847, Note_on_c, 0, 51, 93
1, 2640533, Note_off_c, 0, 51, 93
1, 2678713, Note_on_c, 0, 56, 114
1, 2681316, Note_off_c, 0, 56, 114
1, 2681433, Note_on_c, 0, 58, 107
1, 2682895, Note_off_c, 0, 58, 107
1, 2683041, Note_on_c, 0, 60, 103
1, 2688716, Note_off_c, 0, 60, 103
1, 2688862, Note_on_c, 0, 63, 113
1, 2692021, Note_off_c, 0, 63, 113
1, 2692196, Note_on_c, 0, 63, 109
1, 2698720, Note_off_c, 0, 63, 109
1, 2701821, Note_on_c, 0, 63, 113
1, 2711622, Note_off_c, 0, 63, 113
1, 2711856, Note_on_c, 0, 65, 121
1, 2715834, Note_off_c, 0, 65, 121
1, 2740800, Note_on_c, 0, 66, 116
1, 2743824, Note_off_c, 0, 66, 116
1, 2743926, Note_on_c, 0, 68, 118
1, 2746847, Note_off_c, 0, 68, 118
1, 2747032, Note_on_c, 0, 67, 118
1, 2748122, Note_off_c, 0, 67, 118
1, 2748266, Note_on_c, 0, 69, 110
1, 2750693, Note_off_c, 0, 69, 110
1, 2750837, Note_on_c, 0, 70, 119
1, 2753141, Note_off_c, 0, 70, 119
1, 2753326, Note_on_c, 0, 66, 113
1, 2755444, Note_off_c, 0, 66, 113
1, 2755505, Note_on_c, 0, 67, 121
1, 2759166, Note_off_c, 0, 67, 121
1, 2759268, Note_on_c, 0, 70, 102
1, 2760605, Note_off_c, 0, 70, 102
1, 2760728, Note_on_c, 0, 73, 121
1, 2763628, Note_off_c, 0, 73, 121
1, 2763689, Note_on_c, 0, 70, 110
1, 2765170, Note_off_c, 0, 70, 110
1, 2765252, Note_on_c, 0, 72, 116
1, 2766836, Note_off_c, 0, 72, 116
1, 2766897, Note_on_c, 0, 73, 121
1, 2770414, Note_off_c, 0, 73, 121
1, 2770558, Note_on_c, 0, 70, 121
1, 2773623, Note_off_c, 0, 70, 121
1, 2773725, Note_on_c, 0, 68, 112
1, 2775597, Note_off_c, 0, 68, 112
1, 2775699, Note_on_c, 0, 70, 118
1, 2781253, Note_off_c, 0, 70, 118
1, 2781314, Note_on_c, 0, 68, 118
1, 2783967, Note_off_c, 0, 68, 118
1, 2784090, Note_on_c, 0, 66, 105
1, 2785776, Note_off_c, 0, 66, 105
1, 2786002, Note_on_c, 0, 68, 118
1, 2791741, Note_off_c, 0, 68, 118
1, 2791823, Note_on_c, 0, 66, 111
1, 2793736, Note_off_c, 0, 66, 111
1, 2793797, Note_on_c, 0, 63, 100
1, 2795874, Note_off_c, 0, 63, 100
1, 2796059, Note_on_c, 0, 61, 104
1, 2799988, Note_off_c, 0, 61, 104
1, 2800214, Note_on_c, 0, 63, 108
1, 2808031, Note_off_c, 0, 63, 108
1, 2808195, Note_on_c, 0, 61, 101
1, 2810005, Note_off_c, 0, 61, 101
1, 2810149, Note_on_c, 0, 63, 110
1, 2819879, Note_off_c, 0, 63, 110
1, 2820064, Note_on_c, 0, 58, 115
1, 2822409, Note_off_c, 0, 58, 115
1, 2822511, Note_on_c, 0, 56, 108
1, 2824856, Note_off_c, 0, 56, 108
1, 2824917, Note_on_c, 0, 58, 117
1, 2827138, Note_off_c, 0, 58, 117
1, 2827261, Note_on_c, 0, 56, 115
1, 2829770, Note_off_c, 0, 56, 115
1, 2829852, Note_on_c, 0, 54, 109
1, 2832073, Note_off_c, 0, 54, 109
1, 2832834, Note_on_c, 0, 51, 102
1, 2859494, Note_off_c, 0, 51, 102
1, 2859666, Note_on_c, 0, 54, 109
1, 2864815, Note_off_c, 0, 54, 109
1, 2864990, Note_on_c, 0, 56, 104
1, 2870197, Note_off_c, 0, 56, 104
1, 2908410, Note_on_c, 0, 63, 114
1, 2914211, Note_off_c, 0, 63, 114
1, 2919106, Note_on_c, 0, 61, 106
1, 2924701, Note_off_c, 0, 61, 106
1, 2924906, Note_on_c, 0, 63, 109
1, 2933422, Note_off_c, 0, 63, 109
1, 2944126, Note_on_c, 0, 58, 98
1, 2945735, Note_off_c, 0, 58, 98
1, 2945822, Note_on_c, 0, 61, 116
1, 2949040, Note_off_c, 0, 61, 116
1, 2949186, Note_on_c, 0, 63, 109
1, 2952258, Note_off_c, 0, 63, 109
1, 2959792, Note_on_c, 0, 58, 98
1, 2961046, Note_off_c, 0, 58, 98
1, 2961272, Note_on_c, 0, 61, 111
1, 2963781, Note_off_c, 0, 61, 111
1, 2963925, Note_on_c, 0, 63, 114
1, 2970199, Note_off_c, 0, 63, 114
1, 2971243, Note_on_c, 0, 61, 115
1, 2975075, Note_off_c, 0, 61, 115
1, 2975221, Note_on_c, 0, 63, 112
1, 2980867, Note_off_c, 0, 63, 112
1, 2982242, Note_on_c, 0, 61, 116
1, 2985489, Note_off_c, 0, 61, 116
1, 2985693, Note_on_c, 0, 63, 107
1, 2997659, Note_off_c, 0, 63, 107
1, 3009449, Note_on_c, 0, 56, 108
1, 3010707, Note_off_c, 0, 56, 108
1, 3010794, Note_on_c, 0, 60, 114
1, 3014085, Note_off_c, 0, 60, 114
1, 3014158, Note_on_c, 0, 63, 114
1, 3020404, Note_off_c, 0, 63, 114
1, 3021954, Note_on_c, 0, 60, 116
1, 3024250, Note_off_c, 0, 60, 116
1, 3024396, Note_on_c, 0, 63, 108
1, 3036274, Note_off_c, 0, 63, 108
1, 3070950, Note_on_c, 0, 60, 98
1, 3073542, Note_off_c, 0, 60, 98
1, 3075105, Note_on_c, 0, 63, 111
1, 3077532, Note_off_c, 0, 63, 111
1, 3077593, Note_on_c, 0, 64, 103
1, 3079115, Note_off_c, 0, 64, 103
1, 3079197, Note_on_c, 0, 63, 105
1, 3080205, Note_off_c, 0, 63, 105
1, 3080307, Note_on_c, 0, 60, 108
1, 3083372, Note_off_c, 0, 60, 108
1, 3083392, Note_on_c, 0, 63, 95
1, 3084832, Note_off_c, 0, 63, 95
1, 3084955, Note_on_c, 0, 67, 123
1, 3088246, Note_off_c, 0, 67, 123
1, 3088369, Note_on_c, 0, 70, 119
1, 3091207, Note_off_c, 0, 70, 119
1, 3091741, Note_on_c, 0, 67, 118
1, 3095279, Note_off_c, 0, 67, 118
1, 3097727, Note_on_c, 0, 60, 94
1, 3099701, Note_off_c, 0, 60, 94
1, 3103342, Note_on_c, 0, 63, 104
1, 3113360, Note_off_c, 0, 63, 104
1, 3138560, Note_on_c, 0, 63, 111
1, 3139917, Note_off_c, 0, 63, 111
1, 3139978, Note_on_c, 0, 64, 110
1, 3141418, Note_off_c, 0, 64, 110
1, 3141479, Note_on_c, 0, 63, 106
1, 3142569, Note_off_c, 0, 63, 106
1, 3142686, Note_on_c, 0, 60, 108
1, 3145582, Note_off_c, 0, 60, 108
1, 3145669, Note_on_c, 0, 63, 107
1, 3146883, Note_off_c, 0, 63, 107
1, 3147687, Note_on_c, 0, 66, 117
1, 3150759, Note_off_c, 0, 66, 117
1, 3151022, Note_on_c, 0, 63, 105
1, 3152323, Note_off_c, 0, 63, 105
1, 3152366, Note_on_c, 0, 68, 122
1, 3155540, Note_off_c, 0, 68, 122
1, 3155661, Note_on_c, 0, 66, 106
1, 3156938, Note_off_c, 0, 66, 106
1, 3156998, Note_on_c, 0, 68, 116
1, 3161101, Note_off_c, 0, 68, 116
1, 3161159, Note_on_c, 0, 66, 83
1, 3162204, Note_off_c, 0, 66, 83
1, 3162266, Note_on_c, 0, 68, 121
1, 3169808, Note_off_c, 0, 68, 121
1, 3169888, Note_on_c, 0, 66, 99
1, 3170923, Note_off_c, 0, 66, 99
1, 3171134, Note_on_c, 0, 68, 120
1, 3175368, Note_off_c, 0, 68, 120
1, 3175418, Note_on_c, 0, 70, 106
1, 3178445, Note_off_c, 0, 70, 106
1, 3178626, Note_on_c, 0, 66, 108
1, 3182347, Note_off_c, 0, 66, 108
1, 3201355, Note_on_c, 0, 66, 124
1, 3203296, Note_off_c, 0, 66, 124
1, 3203336, Note_on_c, 0, 65, 127
1, 3205488, Note_off_c, 0, 65, 127
1, 3205518, Note_on_c, 0, 66, 78
1, 3207217, Note_off_c, 0, 66, 78
1, 3211764, Note_on_c, 0, 63, 114
1, 3217381, Note_off_c, 0, 63, 114
1, 3217439, Note_on_c, 0, 62, 114
1, 3218887, Note_off_c, 0, 62, 114
1, 3218945, Note_on_c, 0, 61, 112
1, 3221592, Note_off_c, 0, 61, 112
1, 3222191, Note_on_c, 0, 58, 116
1, 3224897, Note_off_c, 0, 58, 116
1, 3225131, Note_on_c, 0, 56, 112
1, 3228056, Note_off_c, 0, 56, 112
1, 3248947, Note_on_c, 0, 58, 107
1, 3249852, Note_off_c, 0, 58, 107
1, 3249934, Note_on_c, 0, 56, 105
1, 3251168, Note_off_c, 0, 56, 105
1, 3251229, Note_on_c, 0, 55, 104
1, 3254849, Note_off_c, 0, 55, 104
1, 3255034, Note_on_c, 0, 58, 105
1, 3256741, Note_off_c, 0, 58, 105
1, 3256967, Note_on_c, 0, 63, 114
1, 3259991, Note_off_c, 0, 63, 114
1, 3260135, Note_on_c, 0, 58, 106
1, 3261883, Note_off_c, 0, 58, 106
1, 3262026, Note_on_c, 0, 61, 111
1, 3264247, Note_off_c, 0, 61, 111
1, 3264349, Note_on_c, 0, 65, 118
1, 3266858, Note_off_c, 0, 65, 118
1, 3266919, Note_on_c, 0, 64, 116
1, 3269223, Note_off_c, 0, 64, 116
1, 3269387, Note_on_c, 0, 62, 107
1, 3270785, Note_off_c, 0, 62, 107
1, 3270949, Note_on_c, 0, 63, 113
1, 3274528, Note_off_c, 0, 63, 113
1, 3295737, Note_on_c, 0, 58, 119
1, 3298164, Note_off_c, 0, 58, 119
1, 3298266, Note_on_c, 0, 60, 113
1, 3299994, Note_off_c, 0, 60, 113
1, 3300158, Note_on_c, 0, 63, 114
1, 3302235, Note_off_c, 0, 63, 114
1, 3302379, Note_on_c, 0, 66, 121
1, 3304415, Note_off_c, 0, 66, 121
1, 3304620, Note_on_c, 0, 67, 118
1, 3308261, Note_off_c, 0, 67, 118
1, 3308672, Note_on_c, 0, 73, 120
1, 3312210, Note_off_c, 0, 73, 120
1, 3312312, Note_on_c, 0, 72, 113
1, 3314533, Note_off_c, 0, 72, 113
1, 3314594, Note_on_c, 0, 73, 124
1, 3316630, Note_off_c, 0, 73, 124
1, 3316691, Note_on_c, 0, 72, 117
1, 3318871, Note_off_c, 0, 72, 117
1, 3318912, Note_on_c, 0, 70, 120
1, 3321524, Note_off_c, 0, 70, 120
1, 3321750, Note_on_c, 0, 69, 114
1, 3324259, Note_off_c, 0, 69, 114
1, 3325513, Note_on_c, 0, 68, 120
1, 3333330, Note_off_c, 0, 68, 120
1, 3333494, Note_on_c, 0, 70, 116
1, 3336044, Note_off_c, 0, 70, 116
1, 3336187, Note_on_c, 0, 68, 117
1, 3338470, Note_off_c, 0, 68, 117
1, 3338675, Note_on_c, 0, 66, 112
1, 3341061, Note_off_c, 0, 66, 112
1, 3341143, Note_on_c, 0, 63, 107
1, 3343364, Note_off_c, 0, 63, 107
1, 3343384, Note_on_c, 0, 58, 109
1, 3345749, Note_off_c, 0, 58, 109
1, 3345810, Note_on_c, 0, 57, 109
1, 3348155, Note_off_c, 0, 57, 109
1, 3348196, Note_on_c, 0, 56, 103
1, 3350582, Note_off_c, 0, 56, 103
1, 3358810, Note_on_c, 0, 61, 120
1, 3361196, Note_off_c, 0, 61, 120
1, 3361319, Note_on_c, 0, 59, 111
1, 3362841, Note_off_c, 0, 59, 111
1, 3363581, Note_on_c, 0, 61, 119
1, 3365597, Note_off_c, 0, 61, 119
1, 3365699, Note_on_c, 0, 59, 115
1, 3367776, Note_off_c, 0, 59, 115
1, 3367961, Note_on_c, 0, 58, 113
1, 3369668, Note_off_c, 0, 58, 113
1, 3370058, Note_on_c, 0, 56, 109
1, 3372794, Note_off_c, 0, 56, 109
1, 3372938, Note_on_c, 0, 55, 97
1, 3374131, Note_off_c, 0, 55, 97
1, 3377669, Note_on_c, 0, 55, 98
1, 3380754, Note_off_c, 0, 55, 98
1, 3382152, Note_on_c, 0, 60, 116
1, 3385320, Note_off_c, 0, 60, 116
1, 3385381, Note_on_c, 0, 58, 103
1, 3386738, Note_off_c, 0, 58, 103
1, 3387046, Note_on_c, 0, 63, 114
1, 3393958, Note_off_c, 0, 63, 114
1, 3396529, Note_on_c, 0, 61, 106
1, 3398935, Note_off_c, 0, 61, 106
1, 3398976, Note_on_c, 0, 63, 111
1, 3405085, Note_off_c, 0, 63, 111
1, 3405496, Note_on_c, 0, 59, 92
1, 3407059, Note_off_c, 0, 59, 92
1, 3407182, Note_on_c, 0, 61, 113
1, 3409424, Note_off_c, 0, 61, 113
1, 3409609, Note_on_c, 0, 63, 112
1, 3414628, Note_off_c, 0, 63, 112
1, 3414771, Note_on_c, 0, 58, 91
1, 3415881, Note_off_c, 0, 58, 91
1, 3416539, Note_on_c, 0, 61, 116
1, 3419295, Note_off_c, 0, 61, 116
1, 3419418, Note_on_c, 0, 63, 109
1, 3429580, Note_off_c, 0, 63, 109
1, 3442951, Note_on_c, 0, 63, 114
1, 3445069, Note_off_c, 0, 63, 114
1, 3445233, Note_on_c, 0, 66, 120
1, 3447125, Note_off_c, 0, 66, 120
1, 3447166, Note_on_c, 0, 68, 119
1, 3452535, Note_off_c, 0, 68, 119
1, 3452637, Note_on_c, 0, 63, 108
1, 3454056, Note_off_c, 0, 63, 108
1, 3454241, Note_on_c, 0, 66, 113
1, 3456010, Note_off_c, 0, 66, 113
1, 3456400, Note_on_c, 0, 68, 120
1, 3466521, Note_off_c, 0, 68, 120
1, 3466596, Note_on_c, 0, 70, 116
1, 3467883, Note_off_c, 0, 70, 116
1, 3467912, Note_on_c, 0, 68, 114
1, 3468716, Note_off_c, 0, 68, 114
1, 3468759, Note_on_c, 0, 66, 113
1, 3470836, Note_off_c, 0, 66, 113
1, 3470894, Note_on_c, 0, 68, 120
1, 3476906, Note_off_c, 0, 68, 120
1, 3477023, Note_on_c, 0, 70, 110
1, 3478617, Note_off_c, 0, 70, 110
1, 3478646, Note_on_c, 0, 68, 118
1, 3479772, Note_off_c, 0, 68, 118
1, 3479889, Note_on_c, 0, 66, 114
1, 3481746, Note_off_c, 0, 66, 114
1, 3481833, Note_on_c, 0, 68, 118
1, 3485460, Note_off_c, 0, 68, 118
1, 3494471, Note_on_c, 0, 70, 117
1, 3496431, Note_off_c, 0, 70, 117
1, 3496518, Note_on_c, 0, 68, 120
1, 3497424, Note_off_c, 0, 68, 120
1, 3497526, Note_on_c, 0, 66, 113
1, 3498740, Note_off_c, 0, 66, 113
1, 3498798, Note_on_c, 0, 63, 108
1, 3502542, Note_off_c, 0, 63, 108
1, 3507779, Note_on_c, 0, 63, 114
1, 3509168, Note_off_c, 0, 63, 114
1, 3509197, Note_on_c, 0, 66, 117
1, 3510586, Note_off_c, 0, 66, 117
1, 3510703, Note_on_c, 0, 68, 116
1, 3511683, Note_off_c, 0, 68, 116
1, 3511712, Note_on_c, 0, 70, 118
1, 3513306, Note_off_c, 0, 70, 118
1, 3513335, Note_on_c, 0, 68, 119
1, 3514505, Note_off_c, 0, 68, 119
1, 3514578, Note_on_c, 0, 66, 114
1, 3516318, Note_off_c, 0, 66, 114
1, 3516361, Note_on_c, 0, 63, 110
1, 3520559, Note_off_c, 0, 63, 110
1, 3520602, Note_on_c, 0, 66, 117
1, 3522094, Note_off_c, 0, 66, 117
1, 3522123, Note_on_c, 0, 68, 120
1, 3523424, Note_off_c, 0, 68, 120
1, 3523497, Note_on_c, 0, 70, 116
1, 3525310, Note_off_c, 0, 70, 116
1, 3525339, Note_on_c, 0, 68, 115
1, 3526011, Note_off_c, 0, 68, 115
1, 3526040, Note_on_c, 0, 66, 117
1, 3528263, Note_off_c, 0, 66, 117
1, 3528453, Note_on_c, 0, 63, 110
1, 3530910, Note_off_c, 0, 63, 110
1, 3532063, Note_on_c, 0, 66, 117
1, 3533742, Note_off_c, 0, 66, 117
1, 3533827, Note_on_c, 0, 68, 116
1, 3534793, Note_off_c, 0, 68, 116
1, 3534916, Note_on_c, 0, 70, 116
1, 3536335, Note_off_c, 0, 70, 116
1, 3536520, Note_on_c, 0, 68, 121
1, 3537589, Note_off_c, 0, 68, 121
1, 3537856, Note_on_c, 0, 66, 115
1, 3540612, Note_off_c, 0, 66, 115
1, 3563365, Note_on_c, 0, 63, 110
1, 3565500, Note_off_c, 0, 63, 110
1, 3565587, Note_on_c, 0, 67, 113
1, 3568951, Note_off_c, 0, 67, 113
1, 3578686, Note_on_c, 0, 63, 112
1, 3580846, Note_off_c, 0, 63, 112
1, 3580990, Note_on_c, 0, 61, 116
1, 3582738, Note_off_c, 0, 61, 116
1, 3582861, Note_on_c, 0, 63, 111
1, 3584568, Note_off_c, 0, 63, 111
1, 3584773, Note_on_c, 0, 67, 123
1, 3587282, Note_off_c, 0, 67, 123
1, 3587343, Note_on_c, 0, 68, 120
1, 3591107, Note_off_c, 0, 68, 120
1, 3601989, Note_on_c, 0, 63, 109
1, 3603717, Note_off_c, 0, 63, 109
1, 3603819, Note_on_c, 0, 61, 114
1, 3605444, Note_off_c, 0, 61, 114
1, 3605464, Note_on_c, 0, 63, 106
1, 3607192, Note_off_c, 0, 63, 106
1, 3607253, Note_on_c, 0, 67, 124
1, 3609042, Note_off_c, 0, 67, 124
1, 3609124, Note_on_c, 0, 68, 121
1, 3611016, Note_off_c, 0, 68, 121
1, 3611077, Note_on_c, 0, 67, 120
1, 3613072, Note_off_c, 0, 67, 120
1, 3613216, Note_on_c, 0, 63, 109
1, 3614799, Note_off_c, 0, 63, 109
1, 3615087, Note_on_c, 0, 61, 110
1, 3617843, Note_off_c, 0, 61, 110
1, 3625756, Note_on_c, 0, 63, 102
1, 3626926, Note_off_c, 0, 63, 102
1, 3626926, Note_on_c, 0, 61, 108
1, 3628505, Note_off_c, 0, 61, 108
1, 3628651, Note_on_c, 0, 63, 101
1, 3630377, Note_off_c, 0, 63, 101
1, 3630464, Note_on_c, 0, 67, 124
1, 3632234, Note_off_c, 0, 67, 124
1, 3632263, Note_on_c, 0, 68, 121
1, 3633842, Note_off_c, 0, 68, 121
1, 3633856, Note_on_c, 0, 67, 120
1, 3635231, Note_off_c, 0, 67, 120
1, 3635333, Note_on_c, 0, 63, 104
1, 3636722, Note_off_c, 0, 63, 104
1, 3636795, Note_on_c, 0, 61, 111
1, 3638360, Note_off_c, 0, 61, 111
1, 3638389, Note_on_c, 0, 60, 113
1, 3639310, Note_off_c, 0, 60, 113
1, 3640026, Note_on_c, 0, 55, 111
1, 3641401, Note_off_c, 0, 55, 111
1, 3641459, Note_on_c, 0, 53, 113
1, 3642614, Note_off_c, 0, 53, 113
1, 3642657, Note_on_c, 0, 51, 116
1, 3644675, Note_off_c, 0, 51, 116
1, 3644909, Note_on_c, 0, 49, 121
1, 3646913, Note_off_c, 0, 49, 121
1, 3646927, Note_on_c, 0, 51, 105
1, 3650437, Note_off_c, 0, 51, 105
1, 3672673, Note_on_c, 0, 58, 9
1, 3681889, Note_off_c, 0, 58, 9
1, 3682156, Note_on_c, 0, 63, 112
1, 3687998, Note_off_c, 0, 63, 112
1, 3688100, Note_on_c, 0, 66, 121
1, 3691021, Note_off_c, 0, 66, 121
1, 3691103, Note_on_c, 0, 67, 116
1, 3699681, Note_off_c, 0, 67, 116
1, 3699742, Note_on_c, 0, 70, 112
1, 3702169, Note_off_c, 0, 70, 112
1, 3702436, Note_on_c, 0, 75, 112
1, 3707949, Note_off_c, 0, 75, 112
1, 3762442, Note_on_c, 0, 79, 117
1, 3768634, Note_off_c, 0, 79, 117
1, 3784414, Note_on_c, 0, 75, 114
1, 3790528, Note_off_c, 0, 75, 114
1, 3790820, Note_on_c, 0, 73, 97
1, 3793277, Note_off_c, 0, 73, 97
1, 3793423, Note_on_c, 0, 75, 115
1, 3803516, Note_off_c, 0, 75, 115
1, 3803720, Note_on_c, 0, 78, 114
1, 3809161, Note_off_c, 0, 78, 114
1, 3809424, Note_on_c, 0, 75, 109
1, 3811998, Note_off_c, 0, 75, 109
1, 3860541, Note_on_c, 0, 71, 121
1, 3861939, Note_off_c, 0, 71, 121
1, 3862021, Note_on_c, 0, 73, 121
1, 3865003, Note_off_c, 0, 73, 121
1, 3865064, Note_on_c, 0, 72, 115
1, 3866195, Note_off_c, 0, 72, 115
1, 3866215, Note_on_c, 0, 73, 118
1, 3868745, Note_off_c, 0, 73, 118
1, 3868847, Note_on_c, 0, 72, 115
1, 3872303, Note_off_c, 0, 72, 115
1, 3872385, Note_on_c, 0, 70, 118
1, 3877507, Note_off_c, 0, 70, 118
1, 3877589, Note_on_c, 0, 72, 115
1, 3878987, Note_off_c, 0, 72, 115
1, 3879048, Note_on_c, 0, 70, 120
1, 3881907, Note_off_c, 0, 70, 120
1, 3881989, Note_on_c, 0, 68, 118
1, 3886699, Note_off_c, 0, 68, 118
1, 3886760, Note_on_c, 0, 67, 116
1, 3891203, Note_off_c, 0, 67, 116
1, 3891655, Note_on_c, 0, 63, 101
1, 3898464, Note_off_c, 0, 63, 101
1, 3898608, Note_on_c, 0, 60, 80
1, 3900891, Note_off_c, 0, 60, 80
1, 3900973, Note_on_c, 0, 63, 109
1, 3911526, Note_off_c, 0, 63, 109
1, 3911587, Note_on_c, 0, 61, 111
1, 3914261, Note_off_c, 0, 61, 111
1, 3914322, Note_on_c, 0, 63, 107
1, 3915412, Note_off_c, 0, 63, 107
1, 3915494, Note_on_c, 0, 61, 116
1, 3917057, Note_off_c, 0, 61, 116
1, 3917118, Note_on_c, 0, 58, 115
1, 3921026, Note_off_c, 0, 58, 115
1, 3921190, Note_on_c, 0, 56, 116
1, 3931393, Note_off_c, 0, 56, 116
1, 3931598, Note_on_c, 0, 54, 111
1, 3934622, Note_off_c, 0, 54, 111
1, 3934765, Note_on_c, 0, 51, 94
1, 3935896, Note_off_c, 0, 51, 94
1, 3958565, Note_on_c, 0, 58, 102
1, 3960971, Note_off_c, 0, 58, 102
1, 3976315, Note_on_c, 0, 58, 108
1, 3979825, Note_off_c, 0, 58, 108
1, 3980000, Note_on_c, 0, 60, 95
1, 3982837, Note_off_c, 0, 60, 95
1, 3983012, Note_on_c, 0, 63, 100
1, 3984591, Note_off_c, 0, 63, 100
1, 3985293, Note_on_c, 0, 66, 116
1, 3988599, Note_off_c, 0, 66, 116
1, 3989330, Note_on_c, 0, 68, 119
1, 3992197, Note_off_c, 0, 68, 119
1, 3992314, Note_on_c, 0, 70, 110
1, 3995737, Note_off_c, 0, 70, 110
1, 3995883, Note_on_c, 0, 68, 118
1, 3999013, Note_off_c, 0, 68, 118
1, 3999334, Note_on_c, 0, 66, 111
1, 4005273, Note_off_c, 0, 66, 111
1, 4008725, Note_on_c, 0, 63, 104
1, 4012060, Note_off_c, 0, 63, 104
1, 4012206, Note_on_c, 0, 60, 106
1, 4013902, Note_off_c, 0, 60, 106
1, 4014139, Note_on_c, 0, 63, 95
1, 4015620, Note_off_c, 0, 63, 95
1, 4026072, Note_on_c, 0, 63, 99
1, 4029026, Note_off_c, 0, 63, 99
1, 4033268, Note_on_c, 0, 64, 92
1, 4035052, Note_off_c, 0, 64, 92
1, 4035315, Note_on_c, 0, 67, 122
1, 4038591, Note_off_c, 0, 67, 122
1, 4038971, Note_on_c, 0, 68, 123
1, 4044061, Note_off_c, 0, 68, 123
1, 4044178, Note_on_c, 0, 70, 122
1, 4048449, Note_off_c, 0, 70, 122
1, 4048887, Note_on_c, 0, 70, 118
1, 4055820, Note_off_c, 0, 70, 118
1, 4055966, Note_on_c, 0, 68, 108
1, 4058511, Note_off_c, 0, 68, 108
1, 4058657, Note_on_c, 0, 70, 112
1, 4070272, Note_off_c, 0, 70, 112
1, 4116498, Note_on_c, 0, 68, 116
1, 4121120, Note_off_c, 0, 68, 116
1, 4121588, Note_on_c, 0, 63, 97
1, 4123606, Note_off_c, 0, 63, 97
1, 4145431, Note_on_c, 0, 63, 101
1, 4148737, Note_off_c, 0, 63, 101
1, 4152218, Note_on_c, 0, 60, 90
1, 4153768, Note_off_c, 0, 60, 90
1, 4153914, Note_on_c, 0, 63, 95
1, 4155230, Note_off_c, 0, 63, 95
1, 4155405, Note_on_c, 0, 66, 116
1, 4158038, Note_off_c, 0, 66, 116
1, 4158272, Note_on_c, 0, 68, 116
1, 4161080, Note_off_c, 0, 68, 116
1, 4164532, Note_on_c, 0, 70, 117
1, 4167662, Note_off_c, 0, 70, 117
1, 4168481, Note_on_c, 0, 63, 98
1, 4170733, Note_off_c, 0, 63, 98
1, 4171288, Note_on_c, 0, 60, 91
1, 4173687, Note_off_c, 0, 60, 91
1, 4182890, Note_on_c, 0, 63, 94
1, 4184165, Note_off_c, 0, 63, 94
1, 4184247, Note_on_c, 0, 67, 117
1, 4187373, Note_off_c, 0, 67, 117
1, 4187455, Note_on_c, 0, 65, 105
1, 4189985, Note_off_c, 0, 65, 105
1, 4194963, Note_on_c, 0, 63, 107
1, 4197719, Note_off_c, 0, 63, 107
1, 4197801, Note_on_c, 0, 61, 98
1, 4201318, Note_off_c, 0, 61, 98
1, 4202161, Note_on_c, 0, 58, 107
1, 4207653, Note_off_c, 0, 58, 107
1, 4211109, Note_on_c, 0, 58, 110
1, 4212610, Note_off_c, 0, 58, 110
1, 4212774, Note_on_c, 0, 61, 113
1, 4214769, Note_off_c, 0, 61, 113
1, 4214871, Note_on_c, 0, 63, 107
1, 4222873, Note_off_c, 0, 63, 107
1, 4222955, Note_on_c, 0, 61, 106
1, 4224765, Note_off_c, 0, 61, 106
1, 4224826, Note_on_c, 0, 63, 110
1, 4231820, Note_off_c, 0, 63, 110
1, 4231890, Note_on_c, 0, 58, 96
1, 4232815, Note_off_c, 0, 58, 96
1, 4232865, Note_on_c, 0, 61, 114
1, 4234997, Note_off_c, 0, 61, 114
1, 4235048, Note_on_c, 0, 63, 109
1, 4241548, Note_off_c, 0, 63, 109
1, 4241548, Note_on_c, 0, 58, 99
1, 4243029, Note_off_c, 0, 58, 99
1, 4243162, Note_on_c, 0, 61, 117
1, 4245314, Note_off_c, 0, 61, 117
1, 4245500, Note_on_c, 0, 63, 104
1, 4255710, Note_off_c, 0, 63, 104
1, 4272942, Note_on_c, 0, 66, 113
1, 4275575, Note_off_c, 0, 66, 113
1, 4275692, Note_on_c, 0, 68, 110
1, 4278149, Note_off_c, 0, 68, 110
1, 4339341, Note_on_c, 0, 66, 113
1, 4341027, Note_off_c, 0, 66, 113
1, 4341212, Note_on_c, 0, 67, 114
1, 4344812, Note_off_c, 0, 67, 114
1, 4344914, Note_on_c, 0, 70, 107
1, 4346271, Note_off_c, 0, 70, 107
1, 4346312, Note_on_c, 0, 72, 116
1, 4349418, Note_off_c, 0, 72, 116
1, 4349520, Note_on_c, 0, 70, 102
1, 4350774, Note_off_c, 0, 70, 102
1, 4350815, Note_on_c, 0, 73, 120
1, 4354353, Note_off_c, 0, 73, 120
1, 4354455, Note_on_c, 0, 72, 115
1, 4356471, Note_off_c, 0, 72, 115
1, 4357314, Note_on_c, 0, 70, 109
1, 4362498, Note_off_c, 0, 70, 109
1, 4390109, Note_on_c, 0, 75, 124
1, 4393532, Note_off_c, 0, 75, 124
1, 4394175, Note_on_c, 0, 75, 111
1, 4397598, Note_off_c, 0, 75, 111
1, 4397802, Note_on_c, 0, 73, 108
1, 4399323, Note_off_c, 0, 73, 108
1, 4399498, Note_on_c, 0, 75, 116
1, 4404120, Note_off_c, 0, 75, 116
1, 4404237, Note_on_c, 0, 78, 112
1, 4406519, Note_off_c, 0, 78, 112
1, 4406957, Note_on_c, 0, 75, 116
1, 4416524, Note_off_c, 0, 75, 116
1, 4416670, Note_on_c, 0, 73, 112
1, 4418805, Note_off_c, 0, 73, 112
1, 4419009, Note_on_c, 0, 75, 114
1, 4421759, Note_off_c, 0, 75, 114
1, 4421846, Note_on_c, 0, 73, 106
1, 4423835, Note_off_c, 0, 73, 106
1, 4449581, Note_on_c, 0, 80, 118
1, 4454847, Note_off_c, 0, 80, 118
1, 4458416, Note_on_c, 0, 78, 113
1, 4463682, Note_off_c, 0, 78, 113
1, 4468392, Note_on_c, 0, 75, 112
1, 4478983, Note_off_c, 0, 75, 112
1, 4479129, Note_on_c, 0, 73, 116
1, 4483517, Note_off_c, 0, 73, 116
1, 4483985, Note_on_c, 0, 70, 115
1, 4488402, Note_off_c, 0, 70, 115
1, 4489250, Note_on_c, 0, 69, 114
1, 4491151, Note_off_c, 0, 69, 114
1, 4491297, Note_on_c, 0, 70, 114
1, 4493286, Note_off_c, 0, 70, 114
1, 4493403, Note_on_c, 0, 69, 106
1, 4495392, Note_off_c, 0, 69, 106
1, 4495713, Note_on_c, 0, 63, 102
1, 4499370, Note_off_c, 0, 63, 102
1, 4500276, Note_on_c, 0, 68, 119
1, 4504840, Note_off_c, 0, 68, 119
1, 4505191, Note_on_c, 0, 70, 113
1, 4509491, Note_off_c, 0, 70, 113
1, 4509637, Note_on_c, 0, 66, 117
1, 4511450, Note_off_c, 0, 66, 117
1, 4511450, Note_on_c, 0, 67, 117
1, 4518852, Note_off_c, 0, 67, 117
1, 4519173, Note_on_c, 0, 63, 99
1, 4524848, Note_off_c, 0, 63, 99
1, 4528505, Note_on_c, 0, 61, 104
1, 4539300, Note_off_c, 0, 61, 104
1, 4539475, Note_on_c, 0, 63, 113
1, 4544419, Note_off_c, 0, 63, 113
1, 4545677, Note_on_c, 0, 58, 83
1, 4547754, Note_off_c, 0, 58, 83
1, 4547871, Note_on_c, 0, 61, 104
1, 4556531, Note_off_c, 0, 61, 104
1, 4556677, Note_on_c, 0, 63, 104
1, 4558578, Note_off_c, 0, 63, 104
1, 4558695, Note_on_c, 0, 66, 111
1, 4564809, Note_off_c, 0, 66, 111
1, 4565072, Note_on_c, 0, 68, 117
1, 4580636, Note_off_c, 0, 68, 117
1, 4580817, Note_on_c, 0, 66, 101
1, 4582524, Note_off_c, 0, 66, 101
1, 4582647, Note_on_c, 0, 63, 104
1, 4584683, Note_off_c, 0, 63, 104
1, 4584991, Note_on_c, 0, 58, 96
1, 4586410, Note_off_c, 0, 58, 96
1, 4587088, Note_on_c, 0, 61, 109
1, 4590091, Note_off_c, 0, 61, 109
1, 4590317, Note_on_c, 0, 63, 105
1, 4594431, Note_off_c, 0, 63, 105
1, 4613233, Note_on_c, 0, 58, 106
1, 4614775, Note_off_c, 0, 58, 106
1, 4614836, Note_on_c, 0, 57, 95
1, 4616646, Note_off_c, 0, 57, 95
1, 4616707, Note_on_c, 0, 55, 93
1, 4617591, Note_off_c, 0, 55, 93
1, 4617693, Note_on_c, 0, 56, 95
1, 4618906, Note_off_c, 0, 56, 95
1, 4619029, Note_on_c, 0, 60, 94
1, 4621477, Note_off_c, 0, 60, 94
1, 4621682, Note_on_c, 0, 63, 113
1, 4624438, Note_off_c, 0, 63, 113
1, 4624561, Note_on_c, 0, 66, 113
1, 4627441, Note_off_c, 0, 66, 113
1, 4627564, Note_on_c, 0, 65, 111
1, 4630320, Note_off_c, 0, 65, 111
1, 4651454, Note_on_c, 0, 63, 102
1, 4654087, Note_off_c, 0, 63, 102
1, 4654233, Note_on_c, 0, 60, 97
1, 4656515, Note_off_c, 0, 60, 97
1, 4656749, Note_on_c, 0, 63, 103
1, 4658972, Note_off_c, 0, 63, 103
1, 4659089, Note_on_c, 0, 66, 118
1, 4661137, Note_off_c, 0, 66, 118
1, 4661195, Note_on_c, 0, 67, 122
1, 4666080, Note_off_c, 0, 67, 122
1, 4666197, Note_on_c, 0, 63, 100
1, 4668479, Note_off_c, 0, 63, 100
1, 4724266, Note_on_c, 0, 68, 114
1, 4728956, Note_off_c, 0, 68, 114
1, 4730190, Note_on_c, 0, 63, 101
1, 4731959, Note_off_c, 0, 63, 101
1, 4732144, Note_on_c, 0, 68, 101
1, 4734386, Note_off_c, 0, 68, 101
1, 4734509, Note_on_c, 0, 72, 117
1, 4737635, Note_off_c, 0, 72, 117
1, 4737676, Note_on_c, 0, 73, 103
1, 4738642, Note_off_c, 0, 73, 103
1, 4738703, Note_on_c, 0, 72, 115
1, 4739875, Note_off_c, 0, 72, 115
1, 4739936, Note_on_c, 0, 68, 119
1, 4741972, Note_off_c, 0, 68, 119
1, 4742116, Note_on_c, 0, 70, 118
1, 4744255, Note_off_c, 0, 70, 118
1, 4744399, Note_on_c, 0, 72, 114
1, 4745653, Note_off_c, 0, 72, 114
1, 4745714, Note_on_c, 0, 70, 116
1, 4746845, Note_off_c, 0, 70, 116
1, 4746968, Note_on_c, 0, 67, 122
1, 4749251, Note_off_c, 0, 67, 122
1, 4749333, Note_on_c, 0, 68, 118
1, 4755278, Note_off_c, 0, 68, 118
1, 4755545, Note_on_c, 0, 66, 112
1, 4758219, Note_off_c, 0, 66, 112
1, 4758548, Note_on_c, 0, 63, 97
1, 4760934, Note_off_c, 0, 63, 97
1, 4787882, Note_on_c, 0, 70, 116
1, 4791420, Note_off_c, 0, 70, 116
1, 4791543, Note_on_c, 0, 72, 104
1, 4792139, Note_off_c, 0, 72, 104
1, 4792221, Note_on_c, 0, 75, 117
1, 4795368, Note_off_c, 0, 75, 117
1, 4821450, Note_on_c, 0, 70, 117
1, 4823688, Note_off_c, 0, 70, 117
1, 4823790, Note_on_c, 0, 72, 110
1, 4825545, Note_off_c, 0, 72, 110
1, 4825603, Note_on_c, 0, 70, 117
1, 4827314, Note_off_c, 0, 70, 117
1, 4827343, Note_on_c, 0, 69, 113
1, 4829639, Note_off_c, 0, 69, 113
1, 4829712, Note_on_c, 0, 72, 107
1, 4832359, Note_off_c, 0, 72, 107
1, 4832446, Note_on_c, 0, 70, 118
1, 4834420, Note_off_c, 0, 70, 118
1, 4834493, Note_on_c, 0, 67, 110
1, 4836979, Note_off_c, 0, 67, 110
1, 4837066, Note_on_c, 0, 63, 97
1, 4839728, Note_off_c, 0, 63, 97
1, 4851577, Note_on_c, 0, 70, 119
1, 4853902, Note_off_c, 0, 70, 119
1, 4854004, Note_on_c, 0, 72, 111
1, 4855540, Note_off_c, 0, 72, 111
1, 4855613, Note_on_c, 0, 70, 115
1, 4856505, Note_off_c, 0, 70, 115
1, 4856563, Note_on_c, 0, 69, 113
1, 4858479, Note_off_c, 0, 69, 113
1, 4858508, Note_on_c, 0, 72, 109
1, 4860760, Note_off_c, 0, 72, 109
1, 4860803, Note_on_c, 0, 73, 111
1, 4861958, Note_off_c, 0, 73, 111
1, 4862045, Note_on_c, 0, 72, 111
1, 4863156, Note_off_c, 0, 72, 111
1, 4863214, Note_on_c, 0, 69, 113
1, 4865130, Note_off_c, 0, 69, 113
1, 4865173, Note_on_c, 0, 70, 114
1, 4875851, Note_off_c, 0, 70, 114
1, 4882872, Note_on_c, 0, 70, 9
1, 4884451, Note_off_c, 0, 70, 9
1, 4884494, Note_on_c, 0, 72, 72
1, 4885678, Note_off_c, 0, 72, 72
1, 4885765, Note_on_c, 0, 70, 121
1, 4887403, Note_off_c, 0, 70, 121
1, 4887534, Note_on_c, 0, 68, 121
1, 4889976, Note_off_c, 0, 68, 121
1, 4890063, Note_on_c, 0, 72, 113
1, 4892579, Note_off_c, 0, 72, 113
1, 4892666, Note_on_c, 0, 70, 121
1, 4894801, Note_off_c, 0, 70, 121
1, 4894874, Note_on_c, 0, 68, 119
1, 4897316, Note_off_c, 0, 68, 119
1, 4897520, Note_on_c, 0, 66, 103
1, 4900328, Note_off_c, 0, 66, 103
1, 4910530, Note_on_c, 0, 70, 123
1, 4912652, Note_off_c, 0, 70, 123
1, 4912672, Note_on_c, 0, 72, 114
1, 4914090, Note_off_c, 0, 72, 114
1, 4914100, Note_on_c, 0, 70, 119
1, 4915196, Note_off_c, 0, 70, 119
1, 4915218, Note_on_c, 0, 68, 122
1, 4917500, Note_off_c, 0, 68, 122
1, 4917573, Note_on_c, 0, 72, 118
1, 4919401, Note_off_c, 0, 72, 118
1, 4919444, Note_on_c, 0, 73, 116
1, 4921214, Note_off_c, 0, 73, 116
1, 4921228, Note_on_c, 0, 72, 117
1, 4922091, Note_off_c, 0, 72, 117
1, 4922137, Note_on_c, 0, 70, 118
1, 4924523, Note_off_c, 0, 70, 118
1, 4924564, Note_on_c, 0, 73, 117
1, 4936042, Note_off_c, 0, 73, 117
1, 4941267, Note_on_c, 0, 70, 120
1, 4942890, Note_off_c, 0, 70, 120
1, 4942937, Note_on_c, 0, 72, 112
1, 4944385, Note_off_c, 0, 72, 112
1, 4944465, Note_on_c, 0, 70, 123
1, 4946204, Note_off_c, 0, 70, 123
1, 4946294, Note_on_c, 0, 68, 121
1, 4948878, Note_off_c, 0, 68, 121
1, 4948928, Note_on_c, 0, 72, 119
1, 4951392, Note_off_c, 0, 72, 119
1, 4951402, Note_on_c, 0, 70, 120
1, 4953986, Note_off_c, 0, 70, 120
1, 4954177, Note_on_c, 0, 68, 120
1, 4956138, Note_off_c, 0, 68, 120
1, 4956188, Note_on_c, 0, 66, 114
1, 4958360, Note_off_c, 0, 66, 114
1, 4971062, Note_on_c, 0, 70, 118
1, 4973284, Note_off_c, 0, 70, 118
1, 4973294, Note_on_c, 0, 72, 110
1, 4974762, Note_off_c, 0, 72, 110
1, 4974790, Note_on_c, 0, 70, 111
1, 4977320, Note_off_c, 0, 70, 111
1, 4977381, Note_on_c, 0, 69, 104
1, 4979808, Note_off_c, 0, 69, 104
1, 4979849, Note_on_c, 0, 70, 111
1, 4981803, Note_off_c, 0, 70, 111
1, 4981823, Note_on_c, 0, 72, 113
1, 4985258, Note_off_c, 0, 72, 113
1, 4985308, Note_on_c, 0, 69, 109
1, 4986675, Note_off_c, 0, 69, 109
1, 4986695, Note_on_c, 0, 70, 120
1, 4989329, Note_off_c, 0, 70, 120
1, 4989349, Note_on_c, 0, 72, 114
1, 4990636, Note_off_c, 0, 72, 114
1, 4990666, Note_on_c, 0, 70, 117
1, 4995966, Note_off_c, 0, 70, 117
1, 4996006, Note_on_c, 0, 72, 118
1, 4999123, Note_off_c, 0, 72, 118
1, 4999153, Note_on_c, 0, 70, 122
1, 5003688, Note_off_c, 0, 70, 122
1, 5003728, Note_on_c, 0, 72, 115
1, 5005306, Note_off_c, 0, 72, 115
1, 5005346, Note_on_c, 0, 70, 122
1, 5007387, Note_off_c, 0, 70, 122
1, 5007437, Note_on_c, 0, 69, 115
1, 5009337, Note_off_c, 0, 69, 115
1, 5009367, Note_on_c, 0, 70, 117
1, 5010956, Note_off_c, 0, 70, 117
1, 5011006, Note_on_c, 0, 75, 119
1, 5013741, Note_off_c, 0, 75, 119
1, 5013775, Note_on_c, 0, 70, 120
1, 5020957, Note_off_c, 0, 70, 120
1, 5020986, Note_on_c, 0, 69, 118
1, 5022346, Note_off_c, 0, 69, 118
1, 5022367, Note_on_c, 0, 70, 115
1, 5025172, Note_off_c, 0, 70, 115
1, 5025225, Note_on_c, 0, 72, 115
1, 5028004, Note_off_c, 0, 72, 115
1, 5028077, Note_on_c, 0, 70, 117
1, 5032480, Note_off_c, 0, 70, 117
1, 5032523, Note_on_c, 0, 72, 110
1, 5033707, Note_off_c, 0, 72, 110
1, 5033750, Note_on_c, 0, 70, 119
1, 5035066, Note_off_c, 0, 70, 119
1, 5035109, Note_on_c, 0, 66, 109
1, 5037332, Note_off_c, 0, 66, 109
1, 5040226, Note_on_c, 0, 68, 117
1, 5048680, Note_off_c, 0, 68, 117
1, 5048741, Note_on_c, 0, 66, 98
1, 5049872, Note_off_c, 0, 66, 98
1, 5050016, Note_on_c, 0, 68, 120
1, 5058244, Note_off_c, 0, 68, 120
1, 5058285, Note_on_c, 0, 66, 90
1, 5059827, Note_off_c, 0, 66, 90
1, 5059929, Note_on_c, 0, 68, 122
1, 5068157, Note_off_c, 0, 68, 122
1, 5068259, Note_on_c, 0, 66, 93
1, 5069740, Note_off_c, 0, 66, 93
1, 5069859, Note_on_c, 0, 70, 115
1, 5073925, Note_off_c, 0, 70, 115
1, 5074188, Note_on_c, 0, 63, 97
1, 5076470, Note_off_c, 0, 63, 97
1, 5105840, Note_on_c, 0, 63, 116
1, 5108329, Note_off_c, 0, 63, 116
1, 5108493, Note_on_c, 0, 65, 123
1, 5110200, Note_off_c, 0, 65, 123
1, 5110302, Note_on_c, 0, 67, 118
1, 5114025, Note_off_c, 0, 67, 118
1, 5115711, Note_on_c, 0, 63, 107
1, 5119249, Note_off_c, 0, 63, 107
1, 5124247, Note_on_c, 0, 63, 96
1, 5138585, Note_off_c, 0, 63, 96
1, 5138667, Note_on_c, 0, 63, 118
1, 5143542, Note_off_c, 0, 63, 118
1, 5186371, Note_on_c, 0, 62, 114
1, 5189004, Note_off_c, 0, 62, 114
1, 5189127, Note_on_c, 0, 63, 117
1, 5192089, Note_off_c, 0, 63, 117
1, 5192408, Note_on_c, 0, 63, 105
1, 5208382, Note_off_c, 0, 63, 105
1, 5208674, Note_on_c, 0, 63, 100
1, 5219967, Note_off_c, 0, 63, 100
1, 5220142, Note_on_c, 0, 63, 111
1, 5227865, Note_off_c, 0, 63, 111
1, 5227982, Note_on_c, 0, 63, 110
1, 5234008, Note_off_c, 0, 63, 110
1, 5234183, Note_on_c, 0, 63, 120
1, 5238630, Note_off_c, 0, 63, 120
1, 5256432, Note_on_c, 0, 63, 105
1, 5260217, Note_off_c, 0, 63, 105
1, 5260340, Note_on_c, 0, 63, 116
1, 5265647, Note_off_c, 0, 63, 116
1, 5265811, Note_on_c, 0, 63, 99
1, 5270460, Note_off_c, 0, 63, 99
1, 5270624, Note_on_c, 0, 63, 119
1, 5275190, Note_off_c, 0, 63, 119
1, 5275272, Note_on_c, 0, 66, 115
1, 5278481, Note_off_c, 0, 66, 115
1, 5281692, Note_on_c, 0, 63, 106
1, 5290059, Note_off_c, 0, 63, 106
1, 5290176, Note_on_c, 0, 61, 105
1, 5292106, Note_off_c, 0, 61, 105
1, 5292223, Note_on_c, 0, 63, 115
1, 5295295, Note_off_c, 0, 63, 115
1, 5295499, Note_on_c, 0, 58, 107
1, 5298658, Note_off_c, 0, 58, 107
1, 5340767, Note_on_c, 0, 58, 110
1, 5342824, Note_off_c, 0, 58, 110
1, 5342968, Note_on_c, 0, 59, 98
1, 5344325, Note_off_c, 0, 59, 98
1, 5344427, Note_on_c, 0, 61, 93
1, 5345435, Note_off_c, 0, 61, 93
1, 5345640, Note_on_c, 0, 63, 112
1, 5348293, Note_off_c, 0, 63, 112
1, 5350720, Note_on_c, 0, 66, 118
1, 5354052, Note_off_c, 0, 66, 118
1, 5354175, Note_on_c, 0, 63, 100
1, 5356437, Note_off_c, 0, 63, 100
1, 5357506, Note_on_c, 0, 61, 94
1, 5359439, Note_off_c, 0, 61, 94
1, 5371555, Note_on_c, 0, 61, 110
1, 5374291, Note_off_c, 0, 61, 110
1, 5374435, Note_on_c, 0, 63, 102
1, 5376471, Note_off_c, 0, 63, 102
1, 5376717, Note_on_c, 0, 66, 115
1, 5379494, Note_off_c, 0, 66, 115
1, 5380954, Note_on_c, 0, 68, 124
1, 5384080, Note_off_c, 0, 68, 124
1, 5384203, Note_on_c, 0, 66, 111
1, 5386918, Note_off_c, 0, 66, 111
1, 5387082, Note_on_c, 0, 63, 101
1, 5390291, Note_off_c, 0, 63, 101
1, 5390414, Note_on_c, 0, 58, 96
1, 5394116, Note_off_c, 0, 58, 96
1, 5394116, Note_on_c, 0, 61, 88
1, 5396584, Note_off_c, 0, 61, 88
1, 5396584, Note_on_c, 0, 63, 103
1, 5400451, Note_off_c, 0, 63, 103
1, 5402829, Note_on_c, 0, 61, 98
1, 5404433, Note_off_c, 0, 61, 98
1, 5404523, Note_on_c, 0, 63, 108
1, 5407361, Note_off_c, 0, 63, 108
1, 5407381, Note_on_c, 0, 61, 106
1, 5410960, Note_off_c, 0, 61, 106
1, 5411042, Note_on_c, 0, 63, 111
1, 5413757, Note_off_c, 0, 63, 111
1, 5413859, Note_on_c, 0, 66, 115
1, 5416533, Note_off_c, 0, 66, 115
1, 5416635, Note_on_c, 0, 68, 117
1, 5420358, Note_off_c, 0, 68, 117
1, 5420687, Note_on_c, 0, 70, 116
1, 5424369, Note_off_c, 0, 70, 116
1, 5424427, Note_on_c, 0, 68, 94
1, 5426840, Note_off_c, 0, 68, 94
1, 5427205, Note_on_c, 0, 70, 115
1, 5430920, Note_off_c, 0, 70, 115
1, 5430989, Note_on_c, 0, 68, 121
1, 5434198, Note_off_c, 0, 68, 121
1, 5434259, Note_on_c, 0, 66, 110
1, 5437180, Note_off_c, 0, 66, 110
1, 5437591, Note_on_c, 0, 63, 102
1, 5440861, Note_off_c, 0, 63, 102
1, 5442157, Note_on_c, 0, 61, 104
1, 5445777, Note_off_c, 0, 61, 104
1, 5445838, Note_on_c, 0, 63, 92
1, 5447936, Note_off_c, 0, 63, 92
1, 5448244, Note_on_c, 0, 61, 100
1, 5452276, Note_off_c, 0, 61, 100
1, 5452625, Note_on_c, 0, 63, 110
1, 5455463, Note_off_c, 0, 63, 110
1, 5455627, Note_on_c, 0, 66, 117
1, 5457807, Note_off_c, 0, 66, 117
1, 5457951, Note_on_c, 0, 68, 118
1, 5461715, Note_off_c, 0, 68, 118
1, 5461879, Note_on_c, 0, 70, 116
1, 5465972, Note_off_c, 0, 70, 116
1, 5466054, Note_on_c, 0, 68, 95
1, 5468255, Note_off_c, 0, 68, 95
1, 5468440, Note_on_c, 0, 70, 118
1, 5472677, Note_off_c, 0, 70, 118
1, 5472862, Note_on_c, 0, 68, 118
1, 5476256, Note_off_c, 0, 68, 118
1, 5476379, Note_on_c, 0, 66, 106
1, 5478333, Note_off_c, 0, 66, 106
1, 5478477, Note_on_c, 0, 63, 100
1, 5481994, Note_off_c, 0, 63, 100
1, 5482487, Note_on_c, 0, 61, 109
1, 5485510, Note_off_c, 0, 61, 109
1, 5485633, Note_on_c, 0, 63, 103
1, 5488636, Note_off_c, 0, 63, 103
1, 5488780, Note_on_c, 0, 61, 92
1, 5491166, Note_off_c, 0, 61, 92
1, 5491248, Note_on_c, 0, 63, 109
1, 5496061, Note_off_c, 0, 63, 109
1, 5496184, Note_on_c, 0, 61, 94
1, 5498220, Note_off_c, 0, 61, 94
1, 5498343, Note_on_c, 0, 63, 111
1, 5501222, Note_off_c, 0, 63, 111
1, 5501222, Note_on_c, 0, 66, 112
1, 5505583, Note_off_c, 0, 66, 112
1, 5505665, Note_on_c, 0, 63, 96
1, 5507700, Note_off_c, 0, 63, 96
1, 5507700, Note_on_c, 0, 66, 112
1, 5511401, Note_off_c, 0, 66, 112
1, 5511488, Note_on_c, 0, 68, 118
1, 5515101, Note_off_c, 0, 68, 118
1, 5515218, Note_on_c, 0, 66, 113
1, 5517938, Note_off_c, 0, 66, 113
1, 5517996, Note_on_c, 0, 63, 110
1, 5521345, Note_off_c, 0, 63, 110
1, 5521418, Note_on_c, 0, 61, 108
1, 5524943, Note_off_c, 0, 61, 108
1, 5525030, Note_on_c, 0, 63, 97
1, 5527078, Note_off_c, 0, 63, 97
1, 5527151, Note_on_c, 0, 61, 108
1, 5530486, Note_off_c, 0, 61, 108
1, 5530588, Note_on_c, 0, 63, 109
1, 5535225, Note_off_c, 0, 63, 109
1, 5535415, Note_on_c, 0, 61, 108
1, 5538048, Note_off_c, 0, 61, 108
1, 5538106, Note_on_c, 0, 63, 114
1, 5540651, Note_off_c, 0, 63, 114
1, 5540768, Note_on_c, 0, 66, 110
1, 5545229, Note_off_c, 0, 66, 110
1, 5545236, Note_on_c, 0, 63, 101
1, 5547254, Note_off_c, 0, 63, 101
1, 5547349, Note_on_c, 0, 66, 114
1, 5549338, Note_off_c, 0, 66, 114
1, 5549924, Note_on_c, 0, 68, 118
1, 5552886, Note_off_c, 0, 68, 118
1, 5566278, Note_on_c, 0, 63, 114
1, 5569631, Note_off_c, 0, 63, 114
1, 5569733, Note_on_c, 0, 66, 109
1, 5573682, Note_off_c, 0, 66, 109
1, 5573887, Note_on_c, 0, 63, 69
1, 5576437, Note_off_c, 0, 63, 69
1, 5576560, Note_on_c, 0, 66, 116
1, 5580304, Note_off_c, 0, 66, 116
1, 5580530, Note_on_c, 0, 68, 118
1, 5584623, Note_off_c, 0, 68, 118
1, 5584705, Note_on_c, 0, 66, 78
1, 5586885, Note_off_c, 0, 66, 78
1, 5587049, Note_on_c, 0, 68, 120
1, 5590422, Note_off_c, 0, 68, 120
1, 5590504, Note_on_c, 0, 69, 114
1, 5594021, Note_off_c, 0, 69, 114
1, 5594062, Note_on_c, 0, 66, 107
1, 5596160, Note_off_c, 0, 66, 107
1, 5596242, Note_on_c, 0, 69, 117
1, 5599656, Note_off_c, 0, 69, 117
1, 5599717, Note_on_c, 0, 68, 118
1, 5601527, Note_off_c, 0, 68, 118
1, 5601638, Note_on_c, 0, 70, 117
1, 5631304, Note_off_c, 0, 70, 117
1, 5659186, Note_on_c, 0, 68, 120
1, 5661146, Note_off_c, 0, 68, 120
1, 5661203, Note_on_c, 0, 70, 120
1, 5684695, Note_off_c, 0, 70, 120
1, 5699753, Note_on_c, 0, 68, 121
1, 5701769, Note_off_c, 0, 68, 121
1, 5701974, Note_on_c, 0, 70, 114
1, 5719953, Note_off_c, 0, 70, 114
1, 5739728, Note_on_c, 0, 69, 119
1, 5742595, Note_off_c, 0, 69, 119
1, 5742712, Note_on_c, 0, 68, 124
1, 5751518, Note_off_c, 0, 68, 124
1, 5752220, Note_on_c, 0, 66, 117
1, 5754355, Note_off_c, 0, 66, 117
1, 5754420, Note_on_c, 0, 63, 113
1, 5762407, Note_off_c, 0, 63, 113
1, 5763767, Note_on_c, 0, 61, 120
1, 5765392, Note_off_c, 0, 61, 120
1, 5765453, Note_on_c, 0, 58, 119
1, 5771974, Note_off_c, 0, 58, 119
1, 5772015, Note_on_c, 0, 56, 119
1, 5773948, Note_off_c, 0, 56, 119
1, 5774030, Note_on_c, 0, 54, 112
1, 5777897, Note_off_c, 0, 54, 112
1, 5778107, Note_on_c, 0, 51, 113
1, 5798382, Note_off_c, 0, 51, 113
1, 5820417, Note_on_c, 0, 53, 107
1, 5821898, Note_off_c, 0, 53, 107
1, 5821980, Note_on_c, 0, 55, 104
1, 5829961, Note_off_c, 0, 55, 104
1, 5830372, Note_on_c, 0, 58, 91
1, 5831565, Note_off_c, 0, 58, 91
1, 5831667, Note_on_c, 0, 63, 106
1, 5838702, Note_off_c, 0, 63, 106
1, 5839195, Note_on_c, 0, 58, 89
1, 5841149, Note_off_c, 0, 58, 89
1, 5841231, Note_on_c, 0, 61, 115
1, 5847464, Note_off_c, 0, 61, 115
1, 5847608, Note_on_c, 0, 63, 103
1, 5871594, Note_off_c, 0, 63, 103
1, 5891301, Note_on_c, 0, 58, 113
1, 5896505, Note_off_c, 0, 58, 113
1, 5896710, Note_on_c, 0, 56, 114
1, 5902264, Note_off_c, 0, 56, 114
1, 5903066, Note_on_c, 0, 54, 112
1, 5910903, Note_off_c, 0, 54, 112
1, 5912343, Note_on_c, 0, 51, 109
1, 5915490, Note_off_c, 0, 51, 109
1, 5915716, Note_on_c, 0, 51, 112
1, 5918739, Note_off_c, 0, 51, 112
1, 5918853, Note_on_c, 0, 49, 105
1, 5922393, Note_off_c, 0, 49, 105
1, 5923223, Note_on_c, 0, 51, 91
1, 5948978, Note_off_c, 0, 51, 91
1, 5948978, End_track
0, 0, End_of_file
