0, 0, Header, 1, 1, 192
1, 0, Start_track
1, 0, Title_t, "Melody"
1, 0, Tempo, 428571
1, 0, Key_signature, -1, "major"
1, 0, Time_signature, 4, 2, 24, 8
1, 1154, Note_on_c, 0, 64, 107
1, 1200, Note_off_c, 0, 64, 107
1, 1207, Note_on_c, 0, 60, 106
1, 1234, Note_off_c, 0, 60, 106
1, 1245, Note_on_c, 0, 58, 106
1, 1295, Note_off_c, 0, 58, 106
1, 1299, Note_on_c, 0, 62, 104
1, 1356, Note_off_c, 0, 62, 104
1, 1448, Note_on_c, 0, 60, 106
1, 1501, Note_off_c, 0, 60, 106
1, 1524, Note_on_c, 0, 58, 98
1, 1564, Note_off_c, 0, 58, 98
1, 1573, Note_on_c, 0, 61, 98
1, 1615, Note_off_c, 0, 61, 98
1, 1628, Note_on_c, 0, 63, 112
1, 1678, Note_off_c, 0, 63, 112
1, 1683, Note_on_c, 0, 61, 113
1, 1719, Note_off_c, 0, 61, 113
1, 1730, Note_on_c, 0, 60, 108
1, 1764, Note_off_c, 0, 60, 108
1, 1774, Note_on_c, 0, 58, 108
1, 1800, Note_off_c, 0, 58, 108
1, 1812, Note_on_c, 0, 57, 109
1, 1865, Note_off_c, 0, 57, 109
1, 2210, Note_on_c, 0, 60, 100
1, 2258, Note_off_c, 0, 60, 100
1, 2314, Note_on_c, 0, 57, 96
1, 2338, Note_off_c, 0, 57, 96
1, 2347, Note_on_c, 0, 60, 84
1, 2385, Note_off_c, 0, 60, 84
1, 2391, Note_on_c, 0, 64, 105
1, 2454, Note_off_c, 0, 64, 105
1, 2458, Note_on_c, 0, 67, 112
1, 2529, Note_off_c, 0, 67, 112
1, 2741, Note_on_c, 0, 64, 99
1, 2765, Note_off_c, 0, 64, 99
1, 2767, Note_on_c, 0, 60, 93
1, 2785, Note_off_c, 0, 60, 93
1, 2856, Note_on_c, 0, 64, 97
1, 2916, Note_off_c, 0, 64, 97
1, 2926, Note_on_c, 0, 67, 104
1, 2963, Note_off_c, 0, 67, 104
1, 3001, Note_on_c, 0, 64, 99
1, 3028, Note_off_c, 0, 64, 99
1, 3031, Note_on_c, 0, 65, 105
1, 3073, Note_off_c, 0, 65, 105
1, 3079, Note_on_c, 0, 69, 113
1, 3155, Note_off_c, 0, 69, 113
1, 3165, Note_on_c, 0, 74, 115
1, 3226, Note_off_c, 0, 74, 115
1, 3232, Note_on_c, 0, 72, 117
1, 3289, Note_off_c, 0, 72, 117
1, 3747, Note_on_c, 0, 67, 107
1, 3788, Note_off_c, 0, 67, 107
1, 4033, Note_on_c, 0, 69, 87
1, 4079, Note_off_c, 0, 69, 87
1, 4093, Note_on_c, 0, 71, 115
1, 4149, Note_off_c, 0, 71, 115
1, 4157, Note_on_c, 0, 75, 115
1, 4305, Note_off_c, 0, 75, 115
1, 4314, Note_on_c, 0, 71, 118
1, 4495, Note_off_c, 0, 71, 118
1, 4505, Note_on_c, 0, 74, 106
1, 4637, Note_off_c, 0, 74, 106
1, 4643, Note_on_c, 0, 71, 109
1, 4683, Note_off_c, 0, 71, 109
1, 4688, Note_on_c, 0, 74, 108
1, 4750, Note_off_c, 0, 74, 108
1, 4763, Note_on_c, 0, 67, 107
1, 4805, Note_off_c, 0, 67, 107
1, 5374, Note_on_c, 0, 70, 113
1, 5410, Note_off_c, 0, 70, 113
1, 5417, Note_on_c, 0, 69, 119
1, 5462, Note_off_c, 0, 69, 119
1, 5466, Note_on_c, 0, 67, 116
1, 5511, Note_off_c, 0, 67, 116
1, 5513, Note_on_c, 0, 65, 113
1, 5547, Note_off_c, 0, 65, 113
1, 5554, Note_on_c, 0, 64, 106
1, 5605, Note_off_c, 0, 64, 106
1, 5817, Note_on_c, 0, 67, 116
1, 5862, Note_off_c, 0, 67, 116
1, 5868, Note_on_c, 0, 65, 118
1, 5915, Note_off_c, 0, 65, 118
1, 5924, Note_on_c, 0, 64, 107
1, 5959, Note_off_c, 0, 64, 107
1, 5965, Note_on_c, 0, 62, 110
1, 6008, Note_off_c, 0, 62, 110
1, 6019, Note_on_c, 0, 60, 104
1, 6051, Note_off_c, 0, 60, 104
1, 6065, Note_on_c, 0, 60, 99
1, 6103, Note_off_c, 0, 60, 99
1, 6161, Note_on_c, 0, 62, 106
1, 6216, Note_off_c, 0, 62, 106
1, 6240, Note_on_c, 0, 55, 92
1, 6277, Note_off_c, 0, 55, 92
1, 6308, Note_on_c, 0, 60, 108
1, 6356, Note_off_c, 0, 60, 108
1, 6794, Note_on_c, 0, 57, 100
1, 6820, Note_off_c, 0, 57, 100
1, 6828, Note_on_c, 0, 60, 106
1, 6896, Note_off_c, 0, 60, 106
1, 7339, Note_on_c, 0, 63, 115
1, 7377, Note_off_c, 0, 63, 115
1, 7388, Note_on_c, 0, 62, 117
1, 7423, Note_off_c, 0, 62, 117
1, 7429, Note_on_c, 0, 60, 115
1, 7473, Note_off_c, 0, 60, 115
1, 7477, Note_on_c, 0, 58, 116
1, 7510, Note_off_c, 0, 58, 116
1, 7523, Note_on_c, 0, 56, 107
1, 7553, Note_off_c, 0, 56, 107
1, 7556, Note_on_c, 0, 57, 107
1, 7594, Note_off_c, 0, 57, 107
1, 7606, Note_on_c, 0, 60, 114
1, 7665, Note_off_c, 0, 60, 114
1, 7666, Note_on_c, 0, 57, 111
1, 7700, Note_off_c, 0, 57, 111
1, 7704, Note_on_c, 0, 58, 114
1, 7763, Note_off_c, 0, 58, 114
1, 7769, Note_on_c, 0, 55, 114
1, 7786, Note_off_c, 0, 55, 114
1, 7789, Note_on_c, 0, 57, 111
1, 7829, Note_off_c, 0, 57, 111
1, 8202, Note_on_c, 0, 69, 119
1, 8257, Note_off_c, 0, 69, 119
1, 8272, Note_on_c, 0, 72, 120
1, 8370, Note_off_c, 0, 72, 120
1, 8380, Note_on_c, 0, 70, 115
1, 8455, Note_off_c, 0, 70, 115
1, 8842, Note_on_c, 0, 69, 122
1, 8946, Note_off_c, 0, 69, 122
1, 8961, Note_on_c, 0, 67, 105
1, 9005, Note_off_c, 0, 67, 105
1, 9021, Note_on_c, 0, 70, 114
1, 9128, Note_off_c, 0, 70, 114
1, 9137, Note_on_c, 0, 69, 122
1, 9207, Note_off_c, 0, 69, 122
1, 9239, Note_on_c, 0, 63, 106
1, 9323, Note_off_c, 0, 63, 106
1, 9329, Note_on_c, 0, 64, 108
1, 9423, Note_off_c, 0, 64, 108
1, 9429, Note_on_c, 0, 66, 115
1, 9599, Note_off_c, 0, 66, 115
1, 9609, Note_on_c, 0, 69, 122
1, 9716, Note_off_c, 0, 69, 122
1, 9723, Note_on_c, 0, 66, 112
1, 9819, Note_off_c, 0, 66, 112
1, 9990, Note_on_c, 0, 62, 95
1, 10017, Note_off_c, 0, 62, 95
1, 10027, Note_on_c, 0, 64, 104
1, 10080, Note_off_c, 0, 64, 104
1, 10092, Note_on_c, 0, 61, 100
1, 10124, Note_off_c, 0, 61, 100
1, 10129, Note_on_c, 0, 62, 102
1, 10154, Note_off_c, 0, 62, 102
1, 10162, Note_on_c, 0, 64, 98
1, 10193, Note_off_c, 0, 64, 98
1, 10204, Note_on_c, 0, 66, 114
1, 10330, Note_off_c, 0, 66, 114
1, 10335, Note_on_c, 0, 69, 119
1, 10387, Note_off_c, 0, 69, 119
1, 10406, Note_on_c, 0, 64, 93
1, 10606, Note_off_c, 0, 64, 93
1, 11138, Note_on_c, 0, 68, 121
1, 11234, Note_off_c, 0, 68, 121
1, 11241, Note_on_c, 0, 67, 117
1, 11338, Note_off_c, 0, 67, 117
1, 11355, Note_on_c, 0, 65, 122
1, 11432, Note_off_c, 0, 65, 122
1, 11624, Note_on_c, 0, 62, 106
1, 11646, Note_off_c, 0, 62, 106
1, 11652, Note_on_c, 0, 60, 104
1, 11709, Note_off_c, 0, 60, 104
1, 11717, Note_on_c, 0, 59, 91
1, 11773, Note_off_c, 0, 59, 91
1, 11804, Note_on_c, 0, 65, 127
1, 11872, Note_off_c, 0, 65, 127
1, 11874, Note_on_c, 0, 67, 100
1, 11903, Note_off_c, 0, 67, 100
1, 11908, Note_on_c, 0, 68, 119
1, 11956, Note_off_c, 0, 68, 119
1, 11962, Note_on_c, 0, 65, 114
1, 12009, Note_off_c, 0, 65, 114
1, 12053, Note_on_c, 0, 60, 98
1, 12077, Note_off_c, 0, 60, 98
1, 12098, Note_on_c, 0, 67, 117
1, 12241, Note_off_c, 0, 67, 117
1, 12246, Note_on_c, 0, 65, 103
1, 12273, Note_off_c, 0, 65, 103
1, 12278, Note_on_c, 0, 67, 117
1, 12355, Note_off_c, 0, 67, 117
1, 12360, Note_on_c, 0, 65, 113
1, 12423, Note_off_c, 0, 65, 113
1, 13043, Note_on_c, 0, 67, 115
1, 13148, Note_off_c, 0, 67, 115
1, 13152, Note_on_c, 0, 72, 116
1, 13512, Note_off_c, 0, 72, 116
1, 13601, Note_on_c, 0, 70, 114
1, 13661, Note_off_c, 0, 70, 114
1, 13667, Note_on_c, 0, 72, 112
1, 13704, Note_off_c, 0, 72, 112
1, 13710, Note_on_c, 0, 75, 113
1, 13753, Note_off_c, 0, 75, 113
1, 13756, Note_on_c, 0, 72, 112
1, 14261, Note_off_c, 0, 72, 112
1, 14291, Note_on_c, 0, 69, 124
1, 14362, Note_off_c, 0, 69, 124
1, 14404, Note_on_c, 0, 64, 102
1, 14465, Note_off_c, 0, 64, 102
1, 14480, Note_on_c, 0, 67, 119
1, 14558, Note_off_c, 0, 67, 119
1, 14574, Note_on_c, 0, 65, 111
1, 14660, Note_off_c, 0, 65, 111
1, 14696, Note_on_c, 0, 60, 104
1, 14760, Note_off_c, 0, 60, 104
1, 14795, Note_on_c, 0, 57, 97
1, 14932, Note_off_c, 0, 57, 97
1, 14960, Note_on_c, 0, 60, 98
1, 15032, Note_off_c, 0, 60, 98
1, 15045, Note_on_c, 0, 64, 103
1, 15114, Note_off_c, 0, 64, 103
1, 15124, Note_on_c, 0, 67, 118
1, 15244, Note_off_c, 0, 67, 118
1, 15258, Note_on_c, 0, 65, 117
1, 15320, Note_off_c, 0, 65, 117
1, 15917, Note_on_c, 0, 62, 100
1, 15961, Note_off_c, 0, 62, 100
1, 16081, Note_on_c, 0, 60, 99
1, 16119, Note_off_c, 0, 60, 99
1, 16128, Note_on_c, 0, 62, 93
1, 16166, Note_off_c, 0, 62, 93
1, 16179, Note_on_c, 0, 64, 106
1, 16221, Note_off_c, 0, 64, 106
1, 16228, Note_on_c, 0, 61, 103
1, 16261, Note_off_c, 0, 61, 103
1, 16272, Note_on_c, 0, 62, 99
1, 16303, Note_off_c, 0, 62, 99
1, 16309, Note_on_c, 0, 64, 101
1, 16342, Note_off_c, 0, 64, 101
1, 16348, Note_on_c, 0, 65, 120
1, 16406, Note_off_c, 0, 65, 120
1, 16411, Note_on_c, 0, 67, 114
1, 16446, Note_off_c, 0, 67, 114
1, 16449, Note_on_c, 0, 69, 123
1, 16515, Note_off_c, 0, 69, 123
1, 16620, Note_on_c, 0, 76, 99
1, 16645, Note_off_c, 0, 76, 99
1, 16650, Note_on_c, 0, 75, 113
1, 16696, Note_off_c, 0, 75, 113
1, 16703, Note_on_c, 0, 74, 110
1, 16724, Note_off_c, 0, 74, 110
1, 16729, Note_on_c, 0, 73, 118
1, 16788, Note_off_c, 0, 73, 118
1, 16791, Note_on_c, 0, 76, 112
1, 16833, Note_off_c, 0, 76, 112
1, 16837, Note_on_c, 0, 74, 111
1, 16895, Note_off_c, 0, 74, 111
1, 16904, Note_on_c, 0, 69, 108
1, 16961, Note_off_c, 0, 69, 108
1, 17494, Note_on_c, 0, 74, 110
1, 17556, Note_off_c, 0, 74, 110
1, 17558, Note_on_c, 0, 77, 115
1, 17648, Note_off_c, 0, 77, 115
1, 17656, Note_on_c, 0, 74, 108
1, 17700, Note_off_c, 0, 74, 108
1, 17950, Note_on_c, 0, 67, 116
1, 17998, Note_off_c, 0, 67, 116
1, 18001, Note_on_c, 0, 70, 112
1, 18048, Note_off_c, 0, 70, 112
1, 18052, Note_on_c, 0, 67, 115
1, 18090, Note_off_c, 0, 67, 115
1, 18095, Note_on_c, 0, 65, 116
1, 18148, Note_off_c, 0, 65, 116
1, 18155, Note_on_c, 0, 64, 99
1, 18218, Note_off_c, 0, 64, 99
1, 18236, Note_on_c, 0, 67, 118
1, 18301, Note_off_c, 0, 67, 118
1, 18347, Note_on_c, 0, 75, 120
1, 18408, Note_off_c, 0, 75, 120
1, 18416, Note_on_c, 0, 73, 111
1, 18473, Note_off_c, 0, 73, 111
1, 18919, Note_on_c, 0, 75, 121
1, 19030, Note_off_c, 0, 75, 121
1, 19033, Note_on_c, 0, 74, 114
1, 19069, Note_off_c, 0, 74, 114
1, 19080, Note_on_c, 0, 73, 122
1, 19126, Note_off_c, 0, 73, 122
1, 19135, Note_on_c, 0, 72, 123
1, 19210, Note_off_c, 0, 72, 123
1, 19220, Note_on_c, 0, 70, 120
1, 19284, Note_off_c, 0, 70, 120
1, 19308, Note_on_c, 0, 69, 122
1, 19380, Note_off_c, 0, 69, 122
1, 19396, Note_on_c, 0, 70, 115
1, 19434, Note_off_c, 0, 70, 115
1, 19441, Note_on_c, 0, 69, 123
1, 19478, Note_off_c, 0, 69, 123
1, 19484, Note_on_c, 0, 67, 116
1, 19563, Note_off_c, 0, 67, 116
1, 19578, Note_on_c, 0, 69, 121
1, 19613, Note_off_c, 0, 69, 121
1, 19614, Note_on_c, 0, 67, 116
1, 19659, Note_off_c, 0, 67, 116
1, 19666, Note_on_c, 0, 66, 115
1, 19750, Note_off_c, 0, 66, 115
1, 19768, Note_on_c, 0, 63, 109
1, 19847, Note_off_c, 0, 63, 109
1, 19865, Note_on_c, 0, 62, 106
1, 19933, Note_off_c, 0, 62, 106
1, 19959, Note_on_c, 0, 60, 107
1, 20039, Note_off_c, 0, 60, 107
1, 20067, Note_on_c, 0, 58, 95
1, 20260, Note_off_c, 0, 58, 95
1, 20349, Note_on_c, 0, 72, 119
1, 20433, Note_off_c, 0, 72, 119
1, 20452, Note_on_c, 0, 70, 114
1, 20543, Note_off_c, 0, 70, 114
1, 20557, Note_on_c, 0, 69, 121
1, 20669, Note_off_c, 0, 69, 121
1, 20681, Note_on_c, 0, 67, 109
1, 20734, Note_off_c, 0, 67, 109
1, 20793, Note_on_c, 0, 70, 97
1, 21015, Note_off_c, 0, 70, 97
1, 21282, Note_on_c, 0, 69, 124
1, 21360, Note_off_c, 0, 69, 124
1, 21376, Note_on_c, 0, 67, 118
1, 21478, Note_off_c, 0, 67, 118
1, 21501, Note_on_c, 0, 65, 114
1, 21552, Note_off_c, 0, 65, 114
1, 21753, Note_on_c, 0, 67, 118
1, 21800, Note_off_c, 0, 67, 118
1, 21807, Note_on_c, 0, 68, 114
1, 21851, Note_off_c, 0, 68, 114
1, 21858, Note_on_c, 0, 67, 113
1, 21880, Note_off_c, 0, 67, 113
1, 21890, Note_on_c, 0, 65, 119
1, 21940, Note_off_c, 0, 65, 119
1, 21965, Note_on_c, 0, 67, 103
1, 22225, Note_off_c, 0, 67, 103
1, 22717, Note_on_c, 0, 64, 114
1, 22797, Note_off_c, 0, 64, 114
1, 22890, Note_on_c, 0, 64, 108
1, 23371, Note_off_c, 0, 64, 108
1, 23395, Note_on_c, 0, 66, 119
1, 23456, Note_off_c, 0, 66, 119
1, 23781, Note_on_c, 0, 64, 107
1, 23840, Note_off_c, 0, 64, 107
1, 23860, Note_on_c, 0, 69, 125
1, 23957, Note_off_c, 0, 69, 125
1, 24184, Note_on_c, 0, 58, 111
1, 24236, Note_off_c, 0, 58, 111
1, 24268, Note_on_c, 0, 61, 110
1, 24376, Note_off_c, 0, 61, 110
1, 24392, Note_on_c, 0, 64, 110
1, 24464, Note_off_c, 0, 64, 110
1, 24952, Note_on_c, 0, 62, 109
1, 25014, Note_off_c, 0, 62, 109
1, 25129, Note_on_c, 0, 66, 121
1, 25189, Note_off_c, 0, 66, 121
1, 25210, Note_on_c, 0, 69, 126
1, 25296, Note_off_c, 0, 69, 126
1, 25313, Note_on_c, 0, 71, 121
1, 25391, Note_off_c, 0, 71, 121
1, 25400, Note_on_c, 0, 68, 119
1, 25502, Note_off_c, 0, 68, 119
1, 25593, Note_on_c, 0, 64, 105
1, 25625, Note_off_c, 0, 64, 105
1, 25628, Note_on_c, 0, 65, 97
1, 25670, Note_off_c, 0, 65, 97
1, 25675, Note_on_c, 0, 64, 104
1, 25698, Note_off_c, 0, 64, 104
1, 25711, Note_on_c, 0, 62, 111
1, 25776, Note_off_c, 0, 62, 111
1, 25803, Note_on_c, 0, 64, 103
1, 26194, Note_off_c, 0, 64, 103
1, 26464, Note_on_c, 0, 64, 99
1, 26500, Note_off_c, 0, 64, 99
1, 26508, Note_on_c, 0, 66, 117
1, 26572, Note_off_c, 0, 66, 117
1, 26590, Note_on_c, 0, 68, 122
1, 26687, Note_off_c, 0, 68, 122
1, 26704, Note_on_c, 0, 69, 113
1, 26748, Note_off_c, 0, 69, 113
1, 27116, Note_on_c, 0, 71, 123
1, 27220, Note_off_c, 0, 71, 123
1, 27230, Note_on_c, 0, 69, 122
1, 27303, Note_off_c, 0, 69, 122
1, 27364, Note_on_c, 0, 61, 97
1, 27433, Note_off_c, 0, 61, 97
1, 27446, Note_on_c, 0, 62, 108
1, 27552, Note_off_c, 0, 62, 108
1, 27612, Note_on_c, 0, 64, 105
1, 27768, Note_off_c, 0, 64, 105
1, 27797, Note_on_c, 0, 66, 117
1, 27882, Note_off_c, 0, 66, 117
1, 27897, Note_on_c, 0, 64, 93
1, 28132, Note_off_c, 0, 64, 93
1, 28665, Note_on_c, 0, 64, 103
1, 28705, Note_off_c, 0, 64, 103
1, 28713, Note_on_c, 0, 68, 107
1, 28759, Note_off_c, 0, 68, 107
1, 28764, Note_on_c, 0, 72, 109
1, 28798, Note_off_c, 0, 72, 109
1, 28804, Note_on_c, 0, 76, 112
1, 28856, Note_off_c, 0, 76, 112
1, 28861, Note_on_c, 0, 73, 107
1, 29032, Note_off_c, 0, 73, 107
1, 29040, Note_on_c, 0, 76, 106
1, 29266, Note_off_c, 0, 76, 106
1, 29702, Note_on_c, 0, 72, 115
1, 29767, Note_off_c, 0, 72, 115
1, 29769, Note_on_c, 0, 75, 93
1, 29802, Note_off_c, 0, 75, 93
1, 29807, Note_on_c, 0, 76, 111
1, 29844, Note_off_c, 0, 76, 111
1, 29851, Note_on_c, 0, 77, 117
1, 29897, Note_off_c, 0, 77, 117
1, 29907, Note_on_c, 0, 76, 109
1, 29938, Note_off_c, 0, 76, 109
1, 29945, Note_on_c, 0, 74, 113
1, 29991, Note_off_c, 0, 74, 113
1, 29994, Note_on_c, 0, 72, 121
1, 30055, Note_off_c, 0, 72, 121
1, 30186, Note_on_c, 0, 67, 106
1, 30251, Note_off_c, 0, 67, 106
1, 30297, Note_on_c, 0, 69, 122
1, 30422, Note_off_c, 0, 69, 122
1, 30429, Note_on_c, 0, 67, 111
1, 30460, Note_off_c, 0, 67, 111
1, 30478, Note_on_c, 0, 64, 106
1, 30518, Note_off_c, 0, 64, 106
1, 30529, Note_on_c, 0, 62, 108
1, 30560, Note_off_c, 0, 62, 108
1, 30568, Note_on_c, 0, 61, 99
1, 30625, Note_off_c, 0, 61, 99
1, 30639, Note_on_c, 0, 57, 104
1, 30683, Note_off_c, 0, 57, 104
1, 31130, Note_on_c, 0, 64, 104
1, 31182, Note_off_c, 0, 64, 104
1, 31192, Note_on_c, 0, 61, 101
1, 31233, Note_off_c, 0, 61, 101
1, 31243, Note_on_c, 0, 62, 95
1, 31272, Note_off_c, 0, 62, 95
1, 31279, Note_on_c, 0, 64, 96
1, 31305, Note_off_c, 0, 64, 96
1, 31310, Note_on_c, 0, 65, 118
1, 31379, Note_off_c, 0, 65, 118
1, 31380, Note_on_c, 0, 67, 101
1, 31399, Note_off_c, 0, 67, 101
1, 31403, Note_on_c, 0, 69, 120
1, 31454, Note_off_c, 0, 69, 120
1, 31464, Note_on_c, 0, 65, 114
1, 31497, Note_off_c, 0, 65, 114
1, 31517, Note_on_c, 0, 62, 93
1, 31556, Note_off_c, 0, 62, 93
1, 31700, Note_on_c, 0, 67, 114
1, 31731, Note_off_c, 0, 67, 114
1, 31735, Note_on_c, 0, 68, 114
1, 31763, Note_off_c, 0, 68, 114
1, 31767, Note_on_c, 0, 67, 108
1, 31789, Note_off_c, 0, 67, 108
1, 31794, Note_on_c, 0, 65, 113
1, 31835, Note_off_c, 0, 65, 113
1, 31837, Note_on_c, 0, 67, 112
1, 31862, Note_off_c, 0, 67, 112
1, 31867, Note_on_c, 0, 68, 112
1, 31901, Note_off_c, 0, 68, 112
1, 31904, Note_on_c, 0, 67, 107
1, 31933, Note_off_c, 0, 67, 107
1, 31938, Note_on_c, 0, 65, 115
1, 31970, Note_off_c, 0, 65, 115
1, 31978, Note_on_c, 0, 70, 99
1, 32192, Note_off_c, 0, 70, 99
1, 32520, Note_on_c, 0, 67, 100
1, 32545, Note_off_c, 0, 67, 100
1, 32552, Note_on_c, 0, 66, 100
1, 32597, Note_off_c, 0, 66, 100
1, 32601, Note_on_c, 0, 67, 93
1, 32633, Note_off_c, 0, 67, 93
1, 32643, Note_on_c, 0, 69, 113
1, 32691, Note_off_c, 0, 69, 113
1, 32699, Note_on_c, 0, 66, 111
1, 32732, Note_off_c, 0, 66, 111
1, 32734, Note_on_c, 0, 67, 110
1, 32773, Note_off_c, 0, 67, 110
1, 32778, Note_on_c, 0, 69, 113
1, 32818, Note_off_c, 0, 69, 113
1, 32823, Note_on_c, 0, 70, 116
1, 32868, Note_off_c, 0, 70, 116
1, 32872, Note_on_c, 0, 72, 113
1, 32908, Note_off_c, 0, 72, 113
1, 32909, Note_on_c, 0, 74, 110
1, 32984, Note_off_c, 0, 74, 110
1, 33752, Note_on_c, 0, 77, 120
1, 33851, Note_off_c, 0, 77, 120
1, 33856, Note_on_c, 0, 74, 110
1, 33887, Note_off_c, 0, 74, 110
1, 33891, Note_on_c, 0, 70, 111
1, 33913, Note_off_c, 0, 70, 111
1, 33918, Note_on_c, 0, 67, 109
1, 33958, Note_off_c, 0, 67, 109
1, 34106, Note_on_c, 0, 76, 105
1, 34213, Note_off_c, 0, 76, 105
1, 34223, Note_on_c, 0, 72, 113
1, 34271, Note_off_c, 0, 72, 113
1, 34274, Note_on_c, 0, 67, 114
1, 34285, Note_off_c, 0, 67, 114
1, 34287, Note_on_c, 0, 65, 118
1, 34340, Note_off_c, 0, 65, 118
1, 34348, Note_on_c, 0, 74, 106
1, 34398, Note_off_c, 0, 74, 106
1, 34402, Note_on_c, 0, 70, 100
1, 34430, Note_off_c, 0, 70, 100
1, 34678, Note_on_c, 0, 72, 119
1, 34728, Note_off_c, 0, 72, 119
1, 34731, Note_on_c, 0, 71, 117
1, 34767, Note_off_c, 0, 71, 117
1, 34770, Note_on_c, 0, 70, 108
1, 34813, Note_off_c, 0, 70, 108
1, 34818, Note_on_c, 0, 67, 113
1, 34861, Note_off_c, 0, 67, 113
1, 34865, Note_on_c, 0, 65, 110
1, 34912, Note_off_c, 0, 65, 110
1, 34931, Note_on_c, 0, 63, 100
1, 34965, Note_off_c, 0, 63, 100
1, 34974, Note_on_c, 0, 64, 99
1, 35009, Note_off_c, 0, 64, 99
1, 35020, Note_on_c, 0, 67, 97
1, 35043, Note_off_c, 0, 67, 97
1, 35055, Note_on_c, 0, 70, 116
1, 35096, Note_off_c, 0, 70, 116
1, 35102, Note_on_c, 0, 75, 117
1, 35144, Note_off_c, 0, 75, 117
1, 35150, Note_on_c, 0, 73, 112
1, 35198, Note_off_c, 0, 73, 112
1, 35203, Note_on_c, 0, 70, 102
1, 35229, Note_off_c, 0, 70, 102
1, 35234, Note_on_c, 0, 72, 112
1, 35317, Note_off_c, 0, 72, 112
1, 35544, Note_on_c, 0, 60, 90
1, 35581, Note_off_c, 0, 60, 90
1, 35590, Note_on_c, 0, 62, 96
1, 35633, Note_off_c, 0, 62, 96
1, 35670, Note_on_c, 0, 64, 107
1, 35773, Note_off_c, 0, 64, 107
1, 35784, Note_on_c, 0, 65, 122
1, 35851, Note_off_c, 0, 65, 122
1, 36314, Note_on_c, 0, 64, 109
1, 36345, Note_off_c, 0, 64, 109
1, 36354, Note_on_c, 0, 62, 106
1, 36391, Note_off_c, 0, 62, 106
1, 36398, Note_on_c, 0, 61, 101
1, 36486, Note_off_c, 0, 61, 101
1, 36498, Note_on_c, 0, 62, 94
1, 36786, Note_off_c, 0, 62, 94
1, 36977, Note_on_c, 0, 65, 123
1, 37080, Note_off_c, 0, 65, 123
1, 37187, Note_on_c, 0, 61, 91
1, 37432, Note_off_c, 0, 61, 91
1, 37828, Note_on_c, 0, 64, 107
1, 37902, Note_off_c, 0, 64, 107
1, 38019, Note_on_c, 0, 62, 100
1, 38080, Note_off_c, 0, 62, 100
1, 38086, Note_on_c, 0, 65, 110
1, 38559, Note_off_c, 0, 65, 110
1, 38696, Note_on_c, 0, 62, 90
1, 38770, Note_off_c, 0, 62, 90
1, 38784, Note_on_c, 0, 64, 108
1, 38859, Note_off_c, 0, 64, 108
1, 38872, Note_on_c, 0, 65, 120
1, 38955, Note_off_c, 0, 65, 120
1, 38972, Note_on_c, 0, 67, 114
1, 39061, Note_off_c, 0, 67, 114
1, 39074, Note_on_c, 0, 65, 106
1, 39313, Note_off_c, 0, 65, 106
1, 39720, Note_on_c, 0, 64, 92
1, 39773, Note_off_c, 0, 64, 92
1, 39802, Note_on_c, 0, 74, 116
1, 39901, Note_off_c, 0, 74, 116
1, 39906, Note_on_c, 0, 73, 117
1, 39987, Note_off_c, 0, 73, 117
1, 39996, Note_on_c, 0, 72, 116
1, 40092, Note_off_c, 0, 72, 116
1, 40669, Note_on_c, 0, 70, 111
1, 40730, Note_off_c, 0, 70, 111
1, 40739, Note_on_c, 0, 69, 120
1, 40787, Note_off_c, 0, 69, 120
1, 40792, Note_on_c, 0, 71, 116
1, 40824, Note_off_c, 0, 71, 116
1, 40834, Note_on_c, 0, 72, 112
1, 40910, Note_off_c, 0, 72, 112
1, 40915, Note_on_c, 0, 71, 115
1, 40935, Note_off_c, 0, 71, 115
1, 40939, Note_on_c, 0, 70, 109
1, 40960, Note_off_c, 0, 70, 109
1, 40964, Note_on_c, 0, 69, 119
1, 41069, Note_off_c, 0, 69, 119
1, 41085, Note_on_c, 0, 67, 113
1, 41133, Note_off_c, 0, 67, 113
1, 41144, Note_on_c, 0, 66, 111
1, 41194, Note_off_c, 0, 66, 111
1, 41224, Note_on_c, 0, 62, 98
1, 41255, Note_off_c, 0, 62, 98
1, 41625, Note_on_c, 0, 67, 105
1, 41692, Note_off_c, 0, 67, 105
1, 41714, Note_on_c, 0, 70, 101
1, 41794, Note_off_c, 0, 70, 101
1, 41805, Note_on_c, 0, 74, 111
1, 41893, Note_off_c, 0, 74, 111
1, 41900, Note_on_c, 0, 77, 111
1, 42321, Note_off_c, 0, 77, 111
1, 42348, Note_on_c, 0, 73, 110
1, 42398, Note_off_c, 0, 73, 110
1, 42402, Note_on_c, 0, 72, 113
1, 42418, Note_off_c, 0, 72, 113
1, 42419, Note_on_c, 0, 70, 103
1, 42473, Note_off_c, 0, 70, 103
1, 42476, Note_on_c, 0, 75, 116
1, 42576, Note_off_c, 0, 75, 116
1, 42581, Note_on_c, 0, 73, 112
1, 42637, Note_off_c, 0, 73, 112
1, 43017, Note_on_c, 0, 72, 115
1, 43119, Note_off_c, 0, 72, 115
1, 43126, Note_on_c, 0, 69, 123
1, 43216, Note_off_c, 0, 69, 123
1, 43244, Note_on_c, 0, 64, 89
1, 43457, Note_off_c, 0, 64, 89
1, 43896, Note_on_c, 0, 71, 113
1, 43970, Note_off_c, 0, 71, 113
1, 43988, Note_on_c, 0, 74, 109
1, 44108, Note_off_c, 0, 74, 109
1, 44113, Note_on_c, 0, 73, 113
1, 44138, Note_off_c, 0, 73, 113
1, 44144, Note_on_c, 0, 72, 114
1, 44173, Note_off_c, 0, 72, 114
1, 44175, Note_on_c, 0, 71, 115
1, 44257, Note_off_c, 0, 71, 115
1, 44731, Note_on_c, 0, 67, 110
1, 44798, Note_off_c, 0, 67, 110
1, 45206, Note_on_c, 0, 67, 111
1, 45260, Note_off_c, 0, 67, 111
1, 45261, Note_on_c, 0, 69, 107
1, 45300, Note_off_c, 0, 69, 107
1, 45306, Note_on_c, 0, 71, 118
1, 45359, Note_off_c, 0, 71, 118
1, 45365, Note_on_c, 0, 72, 106
1, 45402, Note_off_c, 0, 72, 106
1, 45404, Note_on_c, 0, 74, 112
1, 45461, Note_off_c, 0, 74, 112
1, 45466, Note_on_c, 0, 73, 115
1, 45486, Note_off_c, 0, 73, 115
1, 45490, Note_on_c, 0, 72, 115
1, 45508, Note_off_c, 0, 72, 115
1, 45511, Note_on_c, 0, 71, 118
1, 45642, Note_off_c, 0, 71, 118
1, 45651, Note_on_c, 0, 67, 107
1, 45674, Note_off_c, 0, 67, 107
1, 45680, Note_on_c, 0, 69, 120
1, 45745, Note_off_c, 0, 69, 120
1, 45749, Note_on_c, 0, 67, 105
1, 45797, Note_off_c, 0, 67, 105
1, 46148, Note_on_c, 0, 70, 109
1, 46192, Note_off_c, 0, 70, 109
1, 46197, Note_on_c, 0, 72, 111
1, 46241, Note_off_c, 0, 72, 111
1, 46244, Note_on_c, 0, 73, 114
1, 46287, Note_off_c, 0, 73, 114
1, 46292, Note_on_c, 0, 72, 112
1, 46308, Note_off_c, 0, 72, 112
1, 46316, Note_on_c, 0, 70, 109
1, 46352, Note_off_c, 0, 70, 109
1, 46617, Note_on_c, 0, 75, 110
1, 46729, Note_off_c, 0, 75, 110
1, 46742, Note_on_c, 0, 73, 106
1, 46790, Note_off_c, 0, 73, 106
1, 46791, Note_on_c, 0, 75, 115
1, 46922, Note_off_c, 0, 75, 115
1, 46930, Note_on_c, 0, 76, 110
1, 46955, Note_off_c, 0, 76, 110
1, 46959, Note_on_c, 0, 75, 114
1, 47000, Note_off_c, 0, 75, 114
1, 47004, Note_on_c, 0, 73, 111
1, 47105, Note_off_c, 0, 73, 111
1, 47114, Note_on_c, 0, 75, 116
1, 47185, Note_off_c, 0, 75, 116
1, 47670, Note_on_c, 0, 67, 106
1, 47702, Note_off_c, 0, 67, 106
1, 47706, Note_on_c, 0, 69, 100
1, 47747, Note_off_c, 0, 69, 100
1, 47764, Note_on_c, 0, 71, 108
1, 47827, Note_off_c, 0, 71, 108
1, 47857, Note_on_c, 0, 74, 108
1, 47914, Note_off_c, 0, 74, 108
1, 47918, Note_on_c, 0, 73, 113
1, 47943, Note_off_c, 0, 73, 113
1, 47949, Note_on_c, 0, 72, 114
1, 47967, Note_off_c, 0, 72, 114
1, 47973, Note_on_c, 0, 71, 116
1, 48025, Note_off_c, 0, 71, 116
1, 48027, Note_on_c, 0, 67, 111
1, 48074, Note_off_c, 0, 67, 111
1, 48415, Note_on_c, 0, 72, 117
1, 48461, Note_off_c, 0, 72, 117
1, 48466, Note_on_c, 0, 76, 101
1, 48497, Note_off_c, 0, 76, 101
1, 48505, Note_on_c, 0, 70, 110
1, 48549, Note_off_c, 0, 70, 110
1, 48558, Note_on_c, 0, 74, 107
1, 48602, Note_off_c, 0, 74, 107
1, 48605, Note_on_c, 0, 72, 114
1, 48648, Note_off_c, 0, 72, 114
1, 48653, Note_on_c, 0, 68, 115
1, 48687, Note_off_c, 0, 68, 115
1, 48698, Note_on_c, 0, 64, 107
1, 48745, Note_off_c, 0, 64, 107
1, 48753, Note_on_c, 0, 60, 106
1, 48787, Note_off_c, 0, 60, 106
1, 48795, Note_on_c, 0, 58, 104
1, 48843, Note_off_c, 0, 58, 104
1, 49052, Note_on_c, 0, 60, 103
1, 49083, Note_off_c, 0, 60, 103
1, 49085, Note_on_c, 0, 57, 95
1, 49148, Note_off_c, 0, 57, 95
1, 49227, Note_on_c, 0, 60, 99
1, 49265, Note_off_c, 0, 60, 99
1, 49294, Note_on_c, 0, 65, 119
1, 49369, Note_off_c, 0, 65, 119
1, 49384, Note_on_c, 0, 67, 114
1, 49460, Note_off_c, 0, 67, 114
1, 49473, Note_on_c, 0, 69, 120
1, 49561, Note_off_c, 0, 69, 120
1, 49573, Note_on_c, 0, 65, 116
1, 49645, Note_off_c, 0, 65, 116
1, 49676, Note_on_c, 0, 60, 102
1, 49745, Note_off_c, 0, 60, 102
1, 49854, Note_on_c, 0, 60, 102
1, 49942, Note_off_c, 0, 60, 102
1, 50042, Note_on_c, 0, 63, 101
1, 50292, Note_off_c, 0, 63, 101
1, 50301, Note_on_c, 0, 61, 102
1, 50345, Note_off_c, 0, 61, 102
1, 50353, Note_on_c, 0, 63, 102
1, 50402, Note_off_c, 0, 63, 102
1, 50409, Note_on_c, 0, 60, 96
1, 50643, Note_off_c, 0, 60, 96
1, 50643, End_track
0, 0, End_of_file
