0, 0, Header, 1, 1, 192
1, 0, Start_track
1, 0, Title_t, "Melody"
1, 0, Tempo, 273972
1, 0, Key_signature, -2, "major"
1, 0, Time_signature, 4, 2, 24, 8
1, 7248, Note_on_c, 0, 65, 104
1, 7345, Note_off_c, 0, 65, 104
1, 7453, Note_on_c, 0, 63, 109
1, 7573, Note_off_c, 0, 63, 109
1, 7597, Note_on_c, 0, 58, 103
1, 7653, Note_off_c, 0, 58, 103
1, 7669, Note_on_c, 0, 61, 104
1, 7833, Note_off_c, 0, 61, 104
1, 7867, Note_on_c, 0, 63, 114
1, 7958, Note_off_c, 0, 63, 114
1, 8090, Note_on_c, 0, 58, 106
1, 8222, Note_off_c, 0, 58, 106
1, 8305, Note_on_c, 0, 58, 98
1, 8642, Note_off_c, 0, 58, 98
1, 10179, Note_on_c, 0, 50, 90
1, 10290, Note_off_c, 0, 50, 90
1, 10363, Note_on_c, 0, 57, 113
1, 10464, Note_off_c, 0, 57, 113
1, 10484, Note_on_c, 0, 60, 110
1, 10561, Note_off_c, 0, 60, 110
1, 10583, Note_on_c, 0, 58, 111
1, 10674, Note_off_c, 0, 58, 111
1, 10700, Note_on_c, 0, 55, 103
1, 10768, Note_off_c, 0, 55, 103
1, 10886, Note_on_c, 0, 58, 106
1, 10949, Note_off_c, 0, 58, 106
1, 10964, Note_on_c, 0, 61, 106
1, 11162, Note_off_c, 0, 61, 106
1, 11171, Note_on_c, 0, 60, 112
1, 11276, Note_off_c, 0, 60, 112
1, 11287, Note_on_c, 0, 58, 100
1, 11348, Note_off_c, 0, 58, 100
1, 11361, Note_on_c, 0, 60, 105
1, 11629, Note_off_c, 0, 60, 105
1, 11657, Note_on_c, 0, 58, 109
1, 11750, Note_off_c, 0, 58, 109
1, 11766, Note_on_c, 0, 56, 107
1, 11861, Note_off_c, 0, 56, 107
1, 11879, Note_on_c, 0, 60, 106
1, 11967, Note_off_c, 0, 60, 106
1, 11980, Note_on_c, 0, 59, 101
1, 12054, Note_off_c, 0, 59, 101
1, 12076, Note_on_c, 0, 57, 103
1, 12146, Note_off_c, 0, 57, 103
1, 12156, Note_on_c, 0, 58, 111
1, 12266, Note_off_c, 0, 58, 111
1, 12279, Note_on_c, 0, 54, 102
1, 12394, Note_off_c, 0, 54, 102
1, 12403, Note_on_c, 0, 55, 97
1, 12469, Note_off_c, 0, 55, 97
1, 12488, Note_on_c, 0, 58, 109
1, 12536, Note_off_c, 0, 58, 109
1, 12550, Note_on_c, 0, 61, 107
1, 12662, Note_off_c, 0, 61, 107
1, 12710, Note_on_c, 0, 56, 103
1, 12748, Note_off_c, 0, 56, 103
1, 12775, Note_on_c, 0, 61, 113
1, 12870, Note_off_c, 0, 61, 113
1, 12882, Note_on_c, 0, 62, 114
1, 12961, Note_off_c, 0, 62, 114
1, 12973, Note_on_c, 0, 58, 110
1, 13058, Note_off_c, 0, 58, 110
1, 13074, Note_on_c, 0, 60, 112
1, 13158, Note_off_c, 0, 60, 112
1, 13169, Note_on_c, 0, 55, 107
1, 13256, Note_off_c, 0, 55, 107
1, 13271, Note_on_c, 0, 58, 104
1, 13449, Note_off_c, 0, 58, 104
1, 13474, Note_on_c, 0, 58, 96
1, 13531, Note_off_c, 0, 58, 96
1, 14669, Note_on_c, 0, 65, 109
1, 14733, Note_off_c, 0, 65, 109
1, 14740, Note_on_c, 0, 62, 108
1, 14845, Note_off_c, 0, 62, 108
1, 14855, Note_on_c, 0, 60, 110
1, 14955, Note_off_c, 0, 60, 110
1, 14974, Note_on_c, 0, 59, 105
1, 15070, Note_off_c, 0, 59, 105
1, 15106, Note_on_c, 0, 55, 102
1, 15170, Note_off_c, 0, 55, 102
1, 15377, Note_on_c, 0, 60, 111
1, 15497, Note_off_c, 0, 60, 111
1, 15533, Note_on_c, 0, 58, 111
1, 15608, Note_off_c, 0, 58, 111
1, 15619, Note_on_c, 0, 60, 108
1, 15647, Note_off_c, 0, 60, 108
1, 15655, Note_on_c, 0, 58, 111
1, 15674, Note_off_c, 0, 58, 111
1, 15681, Note_on_c, 0, 55, 111
1, 15758, Note_off_c, 0, 55, 111
1, 15792, Note_on_c, 0, 57, 115
1, 15872, Note_off_c, 0, 57, 115
1, 15883, Note_on_c, 0, 53, 98
1, 15964, Note_off_c, 0, 53, 98
1, 16582, Note_on_c, 0, 50, 102
1, 16672, Note_off_c, 0, 50, 102
1, 16749, Note_on_c, 0, 56, 114
1, 16857, Note_off_c, 0, 56, 114
1, 16864, Note_on_c, 0, 58, 113
1, 16958, Note_off_c, 0, 58, 113
1, 16976, Note_on_c, 0, 54, 107
1, 17065, Note_off_c, 0, 54, 107
1, 17068, Note_on_c, 0, 55, 107
1, 17156, Note_off_c, 0, 55, 107
1, 17159, Note_on_c, 0, 60, 114
1, 17254, Note_off_c, 0, 60, 114
1, 17268, Note_on_c, 0, 58, 113
1, 17351, Note_off_c, 0, 58, 113
1, 17366, Note_on_c, 0, 57, 108
1, 17469, Note_off_c, 0, 57, 108
1, 17483, Note_on_c, 0, 60, 106
1, 17549, Note_off_c, 0, 60, 106
1, 17568, Note_on_c, 0, 63, 108
1, 17704, Note_off_c, 0, 63, 108
1, 17779, Note_on_c, 0, 68, 108
1, 17976, Note_off_c, 0, 68, 108
1, 17985, Note_on_c, 0, 67, 110
1, 18076, Note_off_c, 0, 67, 110
1, 18082, Note_on_c, 0, 66, 114
1, 18174, Note_off_c, 0, 66, 114
1, 18188, Note_on_c, 0, 65, 112
1, 18277, Note_off_c, 0, 65, 112
1, 18289, Note_on_c, 0, 62, 113
1, 18375, Note_off_c, 0, 62, 113
1, 18379, Note_on_c, 0, 58, 112
1, 18479, Note_off_c, 0, 58, 112
1, 18562, Note_on_c, 0, 63, 112
1, 18685, Note_off_c, 0, 63, 112
1, 18752, Note_on_c, 0, 58, 110
1, 18864, Note_off_c, 0, 58, 110
1, 18877, Note_on_c, 0, 55, 102
1, 18934, Note_off_c, 0, 55, 102
1, 18947, Note_on_c, 0, 61, 106
1, 19239, Note_off_c, 0, 61, 106
1, 19272, Note_on_c, 0, 58, 108
1, 19338, Note_off_c, 0, 58, 108
1, 19350, Note_on_c, 0, 60, 112
1, 19375, Note_off_c, 0, 60, 112
1, 19384, Note_on_c, 0, 62, 117
1, 19424, Note_off_c, 0, 62, 117
1, 19431, Note_on_c, 0, 60, 112
1, 19486, Note_off_c, 0, 60, 112
1, 19499, Note_on_c, 0, 58, 114
1, 19528, Note_off_c, 0, 58, 114
1, 19539, Note_on_c, 0, 57, 113
1, 19647, Note_off_c, 0, 57, 113
1, 19662, Note_on_c, 0, 58, 102
1, 19969, Note_off_c, 0, 58, 102
1, 20897, Note_on_c, 0, 62, 114
1, 21007, Note_off_c, 0, 62, 114
1, 21032, Note_on_c, 0, 66, 102
1, 21122, Note_off_c, 0, 66, 102
1, 21720, Note_on_c, 0, 60, 107
1, 21798, Note_off_c, 0, 60, 107
1, 21904, Note_on_c, 0, 64, 111
1, 22021, Note_off_c, 0, 64, 111
1, 22053, Note_on_c, 0, 60, 102
1, 22088, Note_off_c, 0, 60, 102
1, 22105, Note_on_c, 0, 62, 99
1, 22446, Note_off_c, 0, 62, 99
1, 22865, Note_on_c, 0, 59, 98
1, 22962, Note_off_c, 0, 59, 98
1, 23074, Note_on_c, 0, 67, 114
1, 23184, Note_off_c, 0, 67, 114
1, 23215, Note_on_c, 0, 62, 107
1, 23272, Note_off_c, 0, 62, 107
1, 23290, Note_on_c, 0, 65, 111
1, 23378, Note_off_c, 0, 65, 111
1, 23408, Note_on_c, 0, 67, 111
1, 23500, Note_off_c, 0, 67, 111
1, 24473, Note_on_c, 0, 64, 105
1, 24578, Note_off_c, 0, 64, 105
1, 24583, Note_on_c, 0, 65, 93
1, 24632, Note_off_c, 0, 65, 93
1, 24636, Note_on_c, 0, 67, 110
1, 24743, Note_off_c, 0, 67, 110
1, 24750, Note_on_c, 0, 69, 118
1, 24854, Note_off_c, 0, 69, 118
1, 24864, Note_on_c, 0, 70, 114
1, 24997, Note_off_c, 0, 70, 114
1, 25005, Note_on_c, 0, 72, 98
1, 25067, Note_off_c, 0, 72, 98
1, 25076, Note_on_c, 0, 74, 118
1, 25168, Note_off_c, 0, 74, 118
1, 25172, Note_on_c, 0, 72, 116
1, 25253, Note_off_c, 0, 72, 116
1, 25266, Note_on_c, 0, 70, 117
1, 25363, Note_off_c, 0, 70, 117
1, 25369, Note_on_c, 0, 67, 105
1, 25444, Note_off_c, 0, 67, 105
1, 26016, Note_on_c, 0, 67, 113
1, 26115, Note_off_c, 0, 67, 113
1, 26129, Note_on_c, 0, 63, 110
1, 26218, Note_off_c, 0, 63, 110
1, 26228, Note_on_c, 0, 60, 109
1, 26312, Note_off_c, 0, 60, 109
1, 26324, Note_on_c, 0, 58, 109
1, 26413, Note_off_c, 0, 58, 109
1, 26423, Note_on_c, 0, 57, 112
1, 26512, Note_off_c, 0, 57, 112
1, 26630, Note_on_c, 0, 65, 110
1, 26721, Note_off_c, 0, 65, 110
1, 26742, Note_on_c, 0, 60, 102
1, 26803, Note_off_c, 0, 60, 102
1, 26812, Note_on_c, 0, 63, 110
1, 26934, Note_off_c, 0, 63, 110
1, 26947, Note_on_c, 0, 65, 106
1, 27025, Note_off_c, 0, 65, 106
1, 27722, Note_on_c, 0, 61, 102
1, 27856, Note_off_c, 0, 61, 102
1, 27927, Note_on_c, 0, 65, 92
1, 27976, Note_off_c, 0, 65, 92
1, 28001, Note_on_c, 0, 70, 114
1, 28114, Note_off_c, 0, 70, 114
1, 28134, Note_on_c, 0, 65, 95
1, 28215, Note_off_c, 0, 65, 95
1, 28344, Note_on_c, 0, 60, 108
1, 28374, Note_off_c, 0, 60, 108
1, 28387, Note_on_c, 0, 63, 106
1, 28546, Note_off_c, 0, 63, 106
1, 28564, Note_on_c, 0, 70, 113
1, 28789, Note_off_c, 0, 70, 113
1, 29538, Note_on_c, 0, 63, 103
1, 29663, Note_off_c, 0, 63, 103
1, 29727, Note_on_c, 0, 70, 115
1, 29872, Note_off_c, 0, 70, 115
1, 29928, Note_on_c, 0, 64, 104
1, 30104, Note_off_c, 0, 64, 104
1, 30120, Note_on_c, 0, 70, 111
1, 31010, Note_off_c, 0, 70, 111
1, 31100, Note_on_c, 0, 68, 108
1, 31214, Note_off_c, 0, 68, 108
1, 31227, Note_on_c, 0, 67, 92
1, 31299, Note_off_c, 0, 67, 92
1, 31326, Note_on_c, 0, 68, 106
1, 31414, Note_off_c, 0, 68, 106
1, 31432, Note_on_c, 0, 67, 112
1, 31502, Note_off_c, 0, 67, 112
1, 31515, Note_on_c, 0, 65, 107
1, 31589, Note_off_c, 0, 65, 107
1, 31620, Note_on_c, 0, 63, 108
1, 31678, Note_off_c, 0, 63, 108
1, 31690, Note_on_c, 0, 60, 108
1, 31802, Note_off_c, 0, 60, 108
1, 31815, Note_on_c, 0, 61, 98
1, 31875, Note_off_c, 0, 61, 98
1, 31890, Note_on_c, 0, 62, 111
1, 31978, Note_off_c, 0, 62, 111
1, 31985, Note_on_c, 0, 58, 107
1, 32066, Note_off_c, 0, 58, 107
1, 32078, Note_on_c, 0, 56, 109
1, 32170, Note_off_c, 0, 56, 109
1, 32186, Note_on_c, 0, 58, 101
1, 32559, Note_off_c, 0, 58, 101
1, 33568, Note_on_c, 0, 70, 117
1, 33661, Note_off_c, 0, 70, 117
1, 33671, Note_on_c, 0, 74, 116
1, 33799, Note_off_c, 0, 74, 116
1, 33808, Note_on_c, 0, 75, 110
1, 33855, Note_off_c, 0, 75, 110
1, 33860, Note_on_c, 0, 77, 118
1, 33989, Note_off_c, 0, 77, 118
1, 34004, Note_on_c, 0, 79, 116
1, 34087, Note_off_c, 0, 79, 116
1, 35322, Note_on_c, 0, 73, 118
1, 35394, Note_off_c, 0, 73, 118
1, 35409, Note_on_c, 0, 74, 108
1, 35507, Note_off_c, 0, 74, 108
1, 35543, Note_on_c, 0, 77, 102
1, 35587, Note_off_c, 0, 77, 102
1, 35601, Note_on_c, 0, 80, 119
1, 35697, Note_off_c, 0, 80, 119
1, 35716, Note_on_c, 0, 79, 117
1, 35795, Note_off_c, 0, 79, 117
1, 35805, Note_on_c, 0, 77, 114
1, 35886, Note_off_c, 0, 77, 114
1, 35904, Note_on_c, 0, 75, 116
1, 35994, Note_off_c, 0, 75, 116
1, 36019, Note_on_c, 0, 72, 105
1, 36076, Note_off_c, 0, 72, 105
1, 36085, Note_on_c, 0, 73, 106
1, 36157, Note_off_c, 0, 73, 106
1, 36179, Note_on_c, 0, 74, 120
1, 36277, Note_off_c, 0, 74, 120
1, 36295, Note_on_c, 0, 70, 110
1, 36369, Note_off_c, 0, 70, 110
1, 36392, Note_on_c, 0, 65, 103
1, 36452, Note_off_c, 0, 65, 103
1, 36466, Note_on_c, 0, 64, 106
1, 36558, Note_off_c, 0, 64, 106
1, 36573, Note_on_c, 0, 62, 107
1, 36602, Note_off_c, 0, 62, 107
1, 36616, Note_on_c, 0, 63, 104
1, 36654, Note_off_c, 0, 63, 104
1, 36672, Note_on_c, 0, 67, 110
1, 36789, Note_off_c, 0, 67, 110
1, 36807, Note_on_c, 0, 66, 101
1, 36903, Note_off_c, 0, 66, 101
1, 36914, Note_on_c, 0, 64, 100
1, 36976, Note_off_c, 0, 64, 100
1, 36985, Note_on_c, 0, 65, 109
1, 37062, Note_off_c, 0, 65, 109
1, 37078, Note_on_c, 0, 61, 105
1, 37158, Note_off_c, 0, 61, 105
1, 37251, Note_on_c, 0, 65, 105
1, 37302, Note_off_c, 0, 65, 105
1, 37331, Note_on_c, 0, 70, 114
1, 37585, Note_off_c, 0, 70, 114
1, 37610, Note_on_c, 0, 67, 104
1, 37652, Note_off_c, 0, 67, 104
1, 37661, Note_on_c, 0, 63, 104
1, 37701, Note_off_c, 0, 63, 104
1, 37705, Note_on_c, 0, 60, 105
1, 37762, Note_off_c, 0, 60, 105
1, 37770, Note_on_c, 0, 61, 105
1, 37862, Note_off_c, 0, 61, 105
1, 37880, Note_on_c, 0, 68, 103
1, 37955, Note_off_c, 0, 68, 103
1, 38659, Note_on_c, 0, 65, 114
1, 38739, Note_off_c, 0, 65, 114
1, 38757, Note_on_c, 0, 64, 105
1, 38967, Note_off_c, 0, 64, 105
1, 38994, Note_on_c, 0, 67, 108
1, 39061, Note_off_c, 0, 67, 108
1, 39076, Note_on_c, 0, 63, 91
1, 39137, Note_off_c, 0, 63, 91
1, 39217, Note_on_c, 0, 60, 95
1, 39256, Note_off_c, 0, 60, 95
1, 39287, Note_on_c, 0, 65, 113
1, 39373, Note_off_c, 0, 65, 113
1, 39400, Note_on_c, 0, 62, 104
1, 39476, Note_off_c, 0, 62, 104
1, 39492, Note_on_c, 0, 63, 111
1, 39568, Note_off_c, 0, 63, 111
1, 39599, Note_on_c, 0, 65, 112
1, 39656, Note_off_c, 0, 65, 112
1, 39683, Note_on_c, 0, 61, 101
1, 39772, Note_off_c, 0, 61, 101
1, 39788, Note_on_c, 0, 62, 99
1, 39846, Note_off_c, 0, 62, 99
1, 39858, Note_on_c, 0, 63, 111
1, 39963, Note_off_c, 0, 63, 111
1, 39985, Note_on_c, 0, 61, 105
1, 40037, Note_off_c, 0, 61, 105
1, 40050, Note_on_c, 0, 62, 114
1, 40146, Note_off_c, 0, 62, 114
1, 40157, Note_on_c, 0, 58, 114
1, 40236, Note_off_c, 0, 58, 114
1, 40249, Note_on_c, 0, 53, 106
1, 40346, Note_off_c, 0, 53, 106
1, 40362, Note_on_c, 0, 51, 107
1, 40704, Note_off_c, 0, 51, 107
1, 40726, Note_on_c, 0, 58, 112
1, 40797, Note_off_c, 0, 58, 112
1, 40817, Note_on_c, 0, 51, 108
1, 40917, Note_off_c, 0, 51, 108
1, 40929, Note_on_c, 0, 52, 110
1, 41112, Note_off_c, 0, 52, 110
1, 41129, Note_on_c, 0, 53, 109
1, 41472, Note_off_c, 0, 53, 109
1, 42081, Note_on_c, 0, 53, 111
1, 42156, Note_off_c, 0, 53, 111
1, 42166, Note_on_c, 0, 51, 106
1, 42270, Note_off_c, 0, 51, 106
1, 42282, Note_on_c, 0, 55, 106
1, 42334, Note_off_c, 0, 55, 106
1, 42350, Note_on_c, 0, 58, 113
1, 42459, Note_off_c, 0, 58, 113
1, 42477, Note_on_c, 0, 61, 108
1, 42571, Note_off_c, 0, 61, 108
1, 42586, Note_on_c, 0, 57, 113
1, 42665, Note_off_c, 0, 57, 113
1, 42695, Note_on_c, 0, 60, 113
1, 42765, Note_off_c, 0, 60, 113
1, 42774, Note_on_c, 0, 57, 103
1, 42831, Note_off_c, 0, 57, 103
1, 42887, Note_on_c, 0, 58, 105
1, 42920, Note_off_c, 0, 58, 105
1, 42949, Note_on_c, 0, 62, 116
1, 43033, Note_off_c, 0, 62, 116
1, 43049, Note_on_c, 0, 58, 108
1, 43118, Note_off_c, 0, 58, 108
1, 43149, Note_on_c, 0, 65, 115
1, 43262, Note_off_c, 0, 65, 115
1, 43267, Note_on_c, 0, 62, 106
1, 43336, Note_off_c, 0, 62, 106
1, 43343, Note_on_c, 0, 58, 111
1, 43416, Note_off_c, 0, 58, 111
1, 43442, Note_on_c, 0, 63, 105
1, 43789, Note_off_c, 0, 63, 105
1, 43896, Note_on_c, 0, 61, 114
1, 44018, Note_off_c, 0, 61, 114
1, 44026, Note_on_c, 0, 58, 109
1, 44088, Note_off_c, 0, 58, 109
1, 44099, Note_on_c, 0, 60, 116
1, 44228, Note_off_c, 0, 60, 116
1, 44301, Note_on_c, 0, 58, 113
1, 44408, Note_off_c, 0, 58, 113
1, 44423, Note_on_c, 0, 53, 101
1, 44465, Note_off_c, 0, 53, 101
1, 44468, Note_on_c, 0, 57, 109
1, 44582, Note_off_c, 0, 57, 109
1, 44594, Note_on_c, 0, 58, 101
1, 44905, Note_off_c, 0, 58, 101
1, 45785, Note_on_c, 0, 64, 109
1, 45849, Note_off_c, 0, 64, 109
1, 45941, Note_on_c, 0, 67, 110
1, 46043, Note_off_c, 0, 67, 110
1, 46600, Note_on_c, 0, 66, 100
1, 46683, Note_off_c, 0, 66, 100
1, 46797, Note_on_c, 0, 69, 115
1, 46923, Note_off_c, 0, 69, 115
1, 46989, Note_on_c, 0, 74, 118
1, 47678, Note_off_c, 0, 74, 118
1, 47775, Note_on_c, 0, 71, 114
1, 47888, Note_off_c, 0, 71, 114
1, 47909, Note_on_c, 0, 74, 101
1, 47950, Note_off_c, 0, 74, 101
1, 47961, Note_on_c, 0, 79, 120
1, 48067, Note_off_c, 0, 79, 120
1, 48076, Note_on_c, 0, 78, 115
1, 48143, Note_off_c, 0, 78, 115
1, 48153, Note_on_c, 0, 77, 117
1, 48271, Note_off_c, 0, 77, 117
1, 48362, Note_on_c, 0, 74, 118
1, 48437, Note_off_c, 0, 74, 118
1, 48439, Note_on_c, 0, 75, 109
1, 48479, Note_off_c, 0, 75, 109
1, 48486, Note_on_c, 0, 74, 119
1, 48536, Note_off_c, 0, 74, 119
1, 48542, Note_on_c, 0, 72, 113
1, 48658, Note_off_c, 0, 72, 113
1, 48672, Note_on_c, 0, 71, 115
1, 48754, Note_off_c, 0, 71, 115
1, 49473, Note_on_c, 0, 74, 119
1, 49577, Note_off_c, 0, 74, 119
1, 49588, Note_on_c, 0, 81, 104
1, 49943, Note_off_c, 0, 81, 104
1, 50217, Note_on_c, 0, 79, 119
1, 50333, Note_off_c, 0, 79, 119
1, 50354, Note_on_c, 0, 82, 113
1, 50693, Note_off_c, 0, 82, 113
1, 51210, Note_on_c, 0, 79, 117
1, 51295, Note_off_c, 0, 79, 117
1, 51297, Note_on_c, 0, 81, 110
1, 51329, Note_off_c, 0, 81, 110
1, 51332, Note_on_c, 0, 79, 115
1, 51375, Note_off_c, 0, 79, 115
1, 51381, Note_on_c, 0, 75, 107
1, 51517, Note_off_c, 0, 75, 107
1, 51528, Note_on_c, 0, 77, 98
1, 51562, Note_off_c, 0, 77, 98
1, 51580, Note_on_c, 0, 82, 119
1, 51691, Note_off_c, 0, 82, 119
1, 51705, Note_on_c, 0, 84, 116
1, 51814, Note_off_c, 0, 84, 116
1, 52673, Note_on_c, 0, 84, 127
1, 52777, Note_off_c, 0, 84, 127
1, 52792, Note_on_c, 0, 86, 115
1, 53788, Note_off_c, 0, 86, 115
1, 54255, Note_on_c, 0, 82, 119
1, 54366, Note_off_c, 0, 82, 119
1, 54376, Note_on_c, 0, 80, 95
1, 54445, Note_off_c, 0, 80, 95
1, 54463, Note_on_c, 0, 82, 117
1, 54557, Note_off_c, 0, 82, 117
1, 54574, Note_on_c, 0, 80, 115
1, 54651, Note_off_c, 0, 80, 115
1, 54659, Note_on_c, 0, 77, 114
1, 54744, Note_off_c, 0, 77, 114
1, 54752, Note_on_c, 0, 79, 116
1, 54799, Note_off_c, 0, 79, 116
1, 54806, Note_on_c, 0, 77, 107
1, 54843, Note_off_c, 0, 77, 107
1, 54849, Note_on_c, 0, 76, 113
1, 54940, Note_off_c, 0, 76, 113
1, 54957, Note_on_c, 0, 79, 119
1, 55026, Note_off_c, 0, 79, 119
1, 55045, Note_on_c, 0, 77, 118
1, 55106, Note_off_c, 0, 77, 118
1, 55112, Note_on_c, 0, 76, 117
1, 55135, Note_off_c, 0, 76, 117
1, 55143, Note_on_c, 0, 74, 118
1, 55236, Note_off_c, 0, 74, 118
1, 55240, Note_on_c, 0, 70, 111
1, 55337, Note_off_c, 0, 70, 111
1, 55353, Note_on_c, 0, 68, 100
1, 55588, Note_off_c, 0, 68, 100
1, 55603, Note_on_c, 0, 72, 113
1, 55724, Note_off_c, 0, 72, 113
1, 55789, Note_on_c, 0, 70, 115
1, 55897, Note_off_c, 0, 70, 115
1, 55921, Note_on_c, 0, 66, 99
1, 56001, Note_off_c, 0, 66, 99
1, 56558, Note_on_c, 0, 66, 100
1, 56690, Note_off_c, 0, 66, 100
1, 56717, Note_on_c, 0, 70, 119
1, 56816, Note_off_c, 0, 70, 119
1, 56828, Note_on_c, 0, 72, 119
1, 56898, Note_off_c, 0, 72, 119
1, 56913, Note_on_c, 0, 73, 119
1, 57046, Note_off_c, 0, 73, 119
1, 57060, Note_on_c, 0, 74, 113
1, 57114, Note_off_c, 0, 74, 113
1, 57123, Note_on_c, 0, 75, 120
1, 57228, Note_off_c, 0, 75, 120
1, 57250, Note_on_c, 0, 73, 116
1, 57334, Note_off_c, 0, 73, 116
1, 57344, Note_on_c, 0, 74, 119
1, 57430, Note_off_c, 0, 74, 119
1, 57474, Note_on_c, 0, 70, 110
1, 57526, Note_off_c, 0, 70, 110
1, 57553, Note_on_c, 0, 65, 102
1, 57623, Note_off_c, 0, 65, 102
1, 57649, Note_on_c, 0, 64, 103
1, 57709, Note_off_c, 0, 64, 103
1, 57802, Note_on_c, 0, 67, 112
1, 57909, Note_off_c, 0, 67, 112
1, 57916, Note_on_c, 0, 66, 106
1, 57985, Note_off_c, 0, 66, 106
1, 58090, Note_on_c, 0, 65, 108
1, 58210, Note_off_c, 0, 65, 108
1, 58440, Note_on_c, 0, 70, 115
1, 58568, Note_off_c, 0, 70, 115
1, 58603, Note_on_c, 0, 65, 91
1, 58650, Note_off_c, 0, 65, 91
1, 59202, Note_on_c, 0, 72, 116
1, 59322, Note_off_c, 0, 72, 116
1, 59338, Note_on_c, 0, 69, 107
1, 59427, Note_off_c, 0, 69, 107
1, 60094, Note_on_c, 0, 74, 111
1, 60126, Note_off_c, 0, 74, 111
1, 60133, Note_on_c, 0, 72, 111
1, 60198, Note_off_c, 0, 72, 111
1, 60209, Note_on_c, 0, 71, 110
1, 60287, Note_off_c, 0, 71, 110
1, 60747, Note_on_c, 0, 72, 117
1, 60854, Note_off_c, 0, 72, 117
1, 60864, Note_on_c, 0, 74, 117
1, 60897, Note_off_c, 0, 74, 117
1, 60906, Note_on_c, 0, 72, 114
1, 60960, Note_off_c, 0, 72, 114
1, 60966, Note_on_c, 0, 69, 109
1, 61050, Note_off_c, 0, 69, 109
1, 61059, Note_on_c, 0, 72, 101
1, 61115, Note_off_c, 0, 72, 101
1, 61123, Note_on_c, 0, 75, 118
1, 61248, Note_off_c, 0, 75, 118
1, 61255, Note_on_c, 0, 79, 122
1, 61346, Note_off_c, 0, 79, 122
1, 61350, Note_on_c, 0, 78, 118
1, 61437, Note_off_c, 0, 78, 118
1, 61483, Note_on_c, 0, 76, 116
1, 61527, Note_off_c, 0, 76, 116
1, 61531, Note_on_c, 0, 77, 117
1, 61601, Note_off_c, 0, 77, 117
1, 61611, Note_on_c, 0, 74, 120
1, 61708, Note_off_c, 0, 74, 120
1, 61711, Note_on_c, 0, 70, 106
1, 61806, Note_off_c, 0, 70, 106
1, 61806, Note_on_c, 0, 74, 117
1, 61888, Note_off_c, 0, 74, 117
1, 61895, Note_on_c, 0, 77, 119
1, 62011, Note_off_c, 0, 77, 119
1, 62016, Note_on_c, 0, 74, 113
1, 62077, Note_off_c, 0, 74, 113
1, 62083, Note_on_c, 0, 75, 122
1, 62189, Note_off_c, 0, 75, 122
1, 62196, Note_on_c, 0, 72, 115
1, 62279, Note_off_c, 0, 72, 115
1, 62287, Note_on_c, 0, 70, 120
1, 62369, Note_off_c, 0, 70, 120
1, 62486, Note_on_c, 0, 73, 119
1, 62560, Note_off_c, 0, 73, 119
1, 62567, Note_on_c, 0, 72, 117
1, 62642, Note_off_c, 0, 72, 117
1, 62649, Note_on_c, 0, 70, 120
1, 62759, Note_off_c, 0, 70, 120
1, 62781, Note_on_c, 0, 65, 107
1, 62823, Note_off_c, 0, 65, 107
1, 62839, Note_on_c, 0, 64, 96
1, 62944, Note_off_c, 0, 64, 96
1, 62960, Note_on_c, 0, 62, 101
1, 63031, Note_off_c, 0, 62, 101
1, 63039, Note_on_c, 0, 63, 108
1, 63129, Note_off_c, 0, 63, 108
1, 63147, Note_on_c, 0, 61, 107
1, 63216, Note_off_c, 0, 61, 107
1, 63230, Note_on_c, 0, 62, 104
1, 63324, Note_off_c, 0, 62, 104
1, 63346, Note_on_c, 0, 65, 92
1, 63380, Note_off_c, 0, 65, 92
1, 63391, Note_on_c, 0, 70, 111
1, 63709, Note_off_c, 0, 70, 111
1, 63716, Note_on_c, 0, 65, 100
1, 63754, Note_off_c, 0, 65, 100
1, 63767, Note_on_c, 0, 72, 117
1, 63879, Note_off_c, 0, 72, 117
1, 63896, Note_on_c, 0, 65, 95
1, 63937, Note_off_c, 0, 65, 95
1, 65040, Note_on_c, 0, 77, 109
1, 65208, Note_off_c, 0, 77, 109
1, 65233, Note_on_c, 0, 82, 119
1, 65336, Note_off_c, 0, 82, 119
1, 65360, Note_on_c, 0, 86, 113
1, 65923, Note_off_c, 0, 86, 113
1, 66020, Note_on_c, 0, 82, 114
1, 66124, Note_off_c, 0, 82, 114
1, 66144, Note_on_c, 0, 77, 106
1, 66205, Note_off_c, 0, 77, 106
1, 66730, Note_on_c, 0, 80, 116
1, 66837, Note_off_c, 0, 80, 116
1, 66844, Note_on_c, 0, 79, 117
1, 66878, Note_off_c, 0, 79, 117
1, 66888, Note_on_c, 0, 78, 114
1, 66918, Note_off_c, 0, 78, 114
1, 66924, Note_on_c, 0, 77, 118
1, 67417, Note_off_c, 0, 77, 118
1, 67497, Note_on_c, 0, 75, 121
1, 67592, Note_off_c, 0, 75, 121
1, 67600, Note_on_c, 0, 77, 116
1, 67684, Note_off_c, 0, 77, 116
1, 67695, Note_on_c, 0, 73, 114
1, 67785, Note_off_c, 0, 73, 114
1, 67794, Note_on_c, 0, 74, 117
1, 67875, Note_off_c, 0, 74, 117
1, 67885, Note_on_c, 0, 70, 111
1, 67986, Note_off_c, 0, 70, 111
1, 67997, Note_on_c, 0, 65, 106
1, 68043, Note_off_c, 0, 65, 106
1, 68049, Note_on_c, 0, 64, 102
1, 68159, Note_off_c, 0, 64, 102
1, 68189, Note_on_c, 0, 62, 90
1, 68247, Note_off_c, 0, 62, 90
1, 68257, Note_on_c, 0, 63, 107
1, 68341, Note_off_c, 0, 63, 107
1, 68357, Note_on_c, 0, 61, 108
1, 68430, Note_off_c, 0, 61, 108
1, 68439, Note_on_c, 0, 62, 105
1, 68546, Note_off_c, 0, 62, 105
1, 68564, Note_on_c, 0, 65, 100
1, 68593, Note_off_c, 0, 65, 100
1, 68603, Note_on_c, 0, 70, 116
1, 68713, Note_off_c, 0, 70, 116
1, 68724, Note_on_c, 0, 72, 113
1, 68777, Note_off_c, 0, 72, 113
1, 68791, Note_on_c, 0, 67, 100
1, 68858, Note_off_c, 0, 67, 100
1, 68883, Note_on_c, 0, 70, 104
1, 69234, Note_off_c, 0, 70, 104
1, 69835, Note_on_c, 0, 74, 115
1, 69913, Note_off_c, 0, 74, 115
1, 70076, Note_on_c, 0, 78, 114
1, 70199, Note_off_c, 0, 78, 114
1, 70206, Note_on_c, 0, 79, 118
1, 70241, Note_off_c, 0, 79, 118
1, 70244, Note_on_c, 0, 80, 115
1, 70266, Note_off_c, 0, 80, 115
1, 70278, Note_on_c, 0, 81, 116
1, 70372, Note_off_c, 0, 81, 116
1, 70380, Note_on_c, 0, 80, 114
1, 70405, Note_off_c, 0, 80, 114
1, 70413, Note_on_c, 0, 79, 118
1, 70464, Note_off_c, 0, 79, 118
1, 70473, Note_on_c, 0, 78, 118
1, 70557, Note_off_c, 0, 78, 118
1, 70584, Note_on_c, 0, 74, 108
1, 70655, Note_off_c, 0, 74, 108
1, 71359, Note_on_c, 0, 79, 118
1, 71444, Note_off_c, 0, 79, 118
1, 71477, Note_on_c, 0, 83, 118
1, 71582, Note_off_c, 0, 83, 118
1, 71631, Note_on_c, 0, 89, 117
1, 71707, Note_off_c, 0, 89, 117
1, 71903, Note_on_c, 0, 85, 115
1, 72014, Note_off_c, 0, 85, 115
1, 72101, Note_on_c, 0, 86, 118
1, 72210, Note_off_c, 0, 86, 118
1, 72306, Note_on_c, 0, 83, 115
1, 72421, Note_off_c, 0, 83, 115
1, 72511, Note_on_c, 0, 79, 114
1, 72612, Note_off_c, 0, 79, 114
1, 72713, Note_on_c, 0, 81, 113
1, 72776, Note_off_c, 0, 81, 113
1, 72782, Note_on_c, 0, 82, 110
1, 72824, Note_off_c, 0, 82, 110
1, 72830, Note_on_c, 0, 81, 111
1, 72872, Note_off_c, 0, 81, 111
1, 72882, Note_on_c, 0, 79, 115
1, 72969, Note_off_c, 0, 79, 115
1, 72993, Note_on_c, 0, 82, 112
1, 73324, Note_off_c, 0, 82, 112
1, 73791, Note_on_c, 0, 78, 115
1, 73863, Note_off_c, 0, 78, 115
1, 73868, Note_on_c, 0, 80, 113
1, 73956, Note_off_c, 0, 80, 113
1, 73970, Note_on_c, 0, 81, 116
1, 74067, Note_off_c, 0, 81, 116
1, 74071, Note_on_c, 0, 80, 113
1, 74103, Note_off_c, 0, 80, 113
1, 74113, Note_on_c, 0, 79, 116
1, 74169, Note_off_c, 0, 79, 116
1, 74179, Note_on_c, 0, 78, 113
1, 74294, Note_off_c, 0, 78, 113
1, 74297, Note_on_c, 0, 79, 115
1, 74833, Note_off_c, 0, 79, 115
1, 74924, Note_on_c, 0, 75, 111
1, 74975, Note_off_c, 0, 75, 111
1, 74981, Note_on_c, 0, 77, 108
1, 75048, Note_off_c, 0, 77, 108
1, 75058, Note_on_c, 0, 75, 114
1, 75108, Note_off_c, 0, 75, 114
1, 75116, Note_on_c, 0, 72, 109
1, 75216, Note_off_c, 0, 72, 109
1, 75331, Note_on_c, 0, 79, 116
1, 75396, Note_off_c, 0, 79, 116
1, 75403, Note_on_c, 0, 82, 112
1, 75495, Note_off_c, 0, 82, 112
1, 75503, Note_on_c, 0, 79, 114
1, 75613, Note_off_c, 0, 79, 114
1, 75621, Note_on_c, 0, 80, 94
1, 75670, Note_off_c, 0, 80, 94
1, 75682, Note_on_c, 0, 81, 116
1, 75770, Note_off_c, 0, 81, 116
1, 75783, Note_on_c, 0, 77, 96
1, 75850, Note_off_c, 0, 77, 96
1, 75870, Note_on_c, 0, 79, 118
1, 75962, Note_off_c, 0, 79, 118
1, 75970, Note_on_c, 0, 75, 115
1, 76070, Note_off_c, 0, 75, 115
1, 76081, Note_on_c, 0, 72, 102
1, 76152, Note_off_c, 0, 72, 102
1, 76247, Note_on_c, 0, 77, 117
1, 76341, Note_off_c, 0, 77, 117
1, 76346, Note_on_c, 0, 75, 120
1, 76447, Note_off_c, 0, 75, 120
1, 76461, Note_on_c, 0, 74, 119
1, 76537, Note_off_c, 0, 74, 119
1, 76564, Note_on_c, 0, 70, 107
1, 76635, Note_off_c, 0, 70, 107
1, 76655, Note_on_c, 0, 65, 107
1, 76713, Note_off_c, 0, 65, 107
1, 76727, Note_on_c, 0, 64, 108
1, 76790, Note_off_c, 0, 64, 108
1, 76801, Note_on_c, 0, 62, 108
1, 76831, Note_off_c, 0, 62, 108
1, 76852, Note_on_c, 0, 63, 110
1, 76905, Note_off_c, 0, 63, 110
1, 76924, Note_on_c, 0, 67, 115
1, 77015, Note_off_c, 0, 67, 115
1, 77020, Note_on_c, 0, 66, 107
1, 77093, Note_off_c, 0, 66, 107
1, 77115, Note_on_c, 0, 64, 106
1, 77190, Note_off_c, 0, 64, 106
1, 77204, Note_on_c, 0, 65, 113
1, 77295, Note_off_c, 0, 65, 113
1, 77306, Note_on_c, 0, 62, 111
1, 77387, Note_off_c, 0, 62, 111
1, 77400, Note_on_c, 0, 63, 103
1, 77509, Note_off_c, 0, 63, 103
1, 77521, Note_on_c, 0, 61, 94
1, 77566, Note_off_c, 0, 61, 94
1, 77578, Note_on_c, 0, 62, 104
1, 77904, Note_off_c, 0, 62, 104
1, 77931, Note_on_c, 0, 70, 115
1, 78071, Note_off_c, 0, 70, 115
1, 78674, Note_on_c, 0, 63, 102
1, 78796, Note_off_c, 0, 63, 102
1, 78804, Note_on_c, 0, 65, 90
1, 78846, Note_off_c, 0, 65, 90
1, 78865, Note_on_c, 0, 70, 116
1, 78973, Note_off_c, 0, 70, 116
1, 79069, Note_on_c, 0, 74, 118
1, 79636, Note_off_c, 0, 74, 118
1, 79837, Note_on_c, 0, 75, 117
1, 80111, Note_off_c, 0, 75, 117
1, 80150, Note_on_c, 0, 72, 78
1, 80191, Note_off_c, 0, 72, 78
1, 80191, Note_on_c, 0, 73, 114
1, 80316, Note_off_c, 0, 73, 114
1, 80334, Note_on_c, 0, 74, 117
1, 80449, Note_off_c, 0, 74, 117
1, 80496, Note_on_c, 0, 70, 113
1, 80626, Note_off_c, 0, 70, 113
1, 80698, Note_on_c, 0, 70, 99
1, 81053, Note_off_c, 0, 70, 99
1, 81888, Note_on_c, 0, 77, 117
1, 81993, Note_off_c, 0, 77, 117
1, 81998, Note_on_c, 0, 79, 107
1, 82065, Note_off_c, 0, 79, 107
1, 82078, Note_on_c, 0, 82, 117
1, 82174, Note_off_c, 0, 82, 117
1, 82194, Note_on_c, 0, 84, 118
1, 82291, Note_off_c, 0, 84, 118
1, 82306, Note_on_c, 0, 86, 117
1, 82645, Note_off_c, 0, 86, 117
1, 83190, Note_on_c, 0, 91, 110
1, 83505, Note_off_c, 0, 91, 110
1, 83970, Note_on_c, 0, 89, 115
1, 84087, Note_off_c, 0, 89, 115
1, 84353, Note_on_c, 0, 87, 120
1, 84485, Note_off_c, 0, 87, 120
1, 84584, Note_on_c, 0, 85, 113
1, 85403, Note_off_c, 0, 85, 113
1, 85499, Note_on_c, 0, 82, 115
1, 85625, Note_off_c, 0, 82, 115
1, 85646, Note_on_c, 0, 80, 117
1, 85721, Note_off_c, 0, 80, 117
1, 85802, Note_on_c, 0, 80, 110
1, 86079, Note_off_c, 0, 80, 110
1, 86092, Note_on_c, 0, 79, 121
1, 86164, Note_off_c, 0, 79, 121
1, 86189, Note_on_c, 0, 78, 117
1, 86257, Note_off_c, 0, 78, 117
1, 86268, Note_on_c, 0, 77, 120
1, 86342, Note_off_c, 0, 77, 120
1, 86359, Note_on_c, 0, 76, 122
1, 86420, Note_off_c, 0, 76, 122
1, 86444, Note_on_c, 0, 75, 122
1, 86541, Note_off_c, 0, 75, 122
1, 86550, Note_on_c, 0, 79, 120
1, 86632, Note_off_c, 0, 79, 120
1, 86644, Note_on_c, 0, 74, 118
1, 86737, Note_off_c, 0, 74, 118
1, 86741, Note_on_c, 0, 72, 102
1, 86784, Note_off_c, 0, 72, 102
1, 86823, Note_on_c, 0, 77, 118
1, 86911, Note_off_c, 0, 77, 118
1, 86923, Note_on_c, 0, 75, 123
1, 87001, Note_off_c, 0, 75, 123
1, 87022, Note_on_c, 0, 74, 120
1, 87089, Note_off_c, 0, 74, 120
1, 87105, Note_on_c, 0, 70, 112
1, 87183, Note_off_c, 0, 70, 112
1, 87202, Note_on_c, 0, 65, 108
1, 87264, Note_off_c, 0, 65, 108
1, 87286, Note_on_c, 0, 64, 113
1, 87348, Note_off_c, 0, 64, 113
1, 87365, Note_on_c, 0, 62, 114
1, 87399, Note_off_c, 0, 62, 114
1, 87416, Note_on_c, 0, 63, 112
1, 87456, Note_off_c, 0, 63, 112
1, 87479, Note_on_c, 0, 67, 113
1, 87577, Note_off_c, 0, 67, 113
1, 87596, Note_on_c, 0, 66, 111
1, 87663, Note_off_c, 0, 66, 111
1, 87752, Note_on_c, 0, 65, 115
1, 87858, Note_off_c, 0, 65, 115
1, 87942, Note_on_c, 0, 63, 110
1, 88063, Note_off_c, 0, 63, 110
1, 88137, Note_on_c, 0, 62, 115
1, 88240, Note_off_c, 0, 62, 115
1, 88254, Note_on_c, 0, 70, 115
1, 88543, Note_off_c, 0, 70, 115
1, 89038, Note_on_c, 0, 70, 120
1, 89114, Note_off_c, 0, 70, 120
1, 89121, Note_on_c, 0, 72, 112
1, 89165, Note_off_c, 0, 72, 112
1, 89180, Note_on_c, 0, 70, 119
1, 89249, Note_off_c, 0, 70, 119
1, 89258, Note_on_c, 0, 68, 104
1, 89334, Note_off_c, 0, 68, 104
1, 89364, Note_on_c, 0, 72, 119
1, 89482, Note_off_c, 0, 72, 119
1, 89941, Note_on_c, 0, 70, 116
1, 90061, Note_off_c, 0, 70, 116
1, 90074, Note_on_c, 0, 74, 119
1, 90158, Note_off_c, 0, 74, 119
1, 90625, Note_on_c, 0, 70, 113
1, 90691, Note_off_c, 0, 70, 113
1, 90702, Note_on_c, 0, 75, 122
1, 90800, Note_off_c, 0, 75, 122
1, 90823, Note_on_c, 0, 79, 122
1, 90912, Note_off_c, 0, 79, 122
1, 91428, Note_on_c, 0, 74, 120
1, 91561, Note_off_c, 0, 74, 120
1, 91621, Note_on_c, 0, 82, 116
1, 91716, Note_off_c, 0, 82, 116
1, 91757, Note_on_c, 0, 75, 118
1, 91844, Note_off_c, 0, 75, 118
1, 91927, Note_on_c, 0, 82, 119
1, 92027, Note_off_c, 0, 82, 119
1, 92102, Note_on_c, 0, 75, 120
1, 92161, Note_off_c, 0, 75, 120
1, 92167, Note_on_c, 0, 76, 117
1, 92317, Note_off_c, 0, 76, 117
1, 92337, Note_on_c, 0, 82, 115
1, 92816, Note_off_c, 0, 82, 115
1, 92927, Note_on_c, 0, 80, 109
1, 93024, Note_off_c, 0, 80, 109
1, 93033, Note_on_c, 0, 81, 116
1, 93066, Note_off_c, 0, 81, 116
1, 93072, Note_on_c, 0, 80, 113
1, 93121, Note_off_c, 0, 80, 113
1, 93131, Note_on_c, 0, 77, 120
1, 93218, Note_off_c, 0, 77, 120
1, 93238, Note_on_c, 0, 75, 121
1, 93321, Note_off_c, 0, 75, 121
1, 93327, Note_on_c, 0, 74, 121
1, 93418, Note_off_c, 0, 74, 121
1, 93457, Note_on_c, 0, 70, 108
1, 93524, Note_off_c, 0, 70, 108
1, 93585, Note_on_c, 0, 70, 105
1, 93889, Note_off_c, 0, 70, 105
1, 94373, Note_on_c, 0, 76, 122
1, 94425, Note_off_c, 0, 76, 122
1, 94440, Note_on_c, 0, 79, 120
1, 94540, Note_off_c, 0, 79, 120
1, 94555, Note_on_c, 0, 76, 120
1, 94648, Note_off_c, 0, 76, 120
1, 94936, Note_on_c, 0, 78, 120
1, 94976, Note_off_c, 0, 78, 120
1, 94978, Note_on_c, 0, 79, 119
1, 95006, Note_off_c, 0, 79, 119
1, 95014, Note_on_c, 0, 81, 113
1, 95057, Note_off_c, 0, 81, 113
1, 95085, Note_on_c, 0, 90, 108
1, 95167, Note_off_c, 0, 90, 108
1, 95237, Note_on_c, 0, 61, 95
1, 95266, Note_off_c, 0, 61, 95
1, 95273, Note_on_c, 0, 59, 87
1, 95312, Note_off_c, 0, 59, 87
1, 95325, Note_on_c, 0, 57, 107
1, 95408, Note_off_c, 0, 57, 107
1, 95908, Note_on_c, 0, 55, 114
1, 95999, Note_off_c, 0, 55, 114
1, 96012, Note_on_c, 0, 57, 109
1, 96107, Note_off_c, 0, 57, 109
1, 96197, Note_on_c, 0, 57, 107
1, 96229, Note_off_c, 0, 57, 107
1, 96235, Note_on_c, 0, 60, 103
1, 96279, Note_off_c, 0, 60, 103
1, 96297, Note_on_c, 0, 62, 117
1, 96383, Note_off_c, 0, 62, 117
1, 96388, Note_on_c, 0, 58, 104
1, 96524, Note_off_c, 0, 58, 104
1, 96536, Note_on_c, 0, 59, 101
1, 96594, Note_off_c, 0, 59, 101
1, 96604, Note_on_c, 0, 62, 107
1, 96650, Note_off_c, 0, 62, 107
1, 96666, Note_on_c, 0, 67, 112
1, 97306, Note_off_c, 0, 67, 112
1, 97412, Note_on_c, 0, 64, 104
1, 97486, Note_off_c, 0, 64, 104
1, 97491, Note_on_c, 0, 67, 102
1, 97562, Note_off_c, 0, 67, 102
1, 97579, Note_on_c, 0, 70, 121
1, 97676, Note_off_c, 0, 70, 121
1, 97680, Note_on_c, 0, 72, 117
1, 97763, Note_off_c, 0, 72, 117
1, 97772, Note_on_c, 0, 74, 123
1, 97871, Note_off_c, 0, 74, 123
1, 97876, Note_on_c, 0, 72, 110
1, 97950, Note_off_c, 0, 72, 110
1, 97957, Note_on_c, 0, 74, 118
1, 98048, Note_off_c, 0, 74, 118
1, 98050, Note_on_c, 0, 72, 116
1, 98140, Note_off_c, 0, 72, 116
1, 98146, Note_on_c, 0, 70, 118
1, 98249, Note_off_c, 0, 70, 118
1, 98263, Note_on_c, 0, 67, 111
1, 98335, Note_off_c, 0, 67, 111
1, 98870, Note_on_c, 0, 63, 105
1, 98985, Note_off_c, 0, 63, 105
1, 99056, Note_on_c, 0, 70, 113
1, 99182, Note_off_c, 0, 70, 113
1, 99266, Note_on_c, 0, 77, 119
1, 99356, Note_off_c, 0, 77, 119
1, 99371, Note_on_c, 0, 74, 116
1, 99436, Note_off_c, 0, 74, 116
1, 99446, Note_on_c, 0, 75, 117
1, 99539, Note_off_c, 0, 75, 117
1, 99545, Note_on_c, 0, 77, 90
1, 99600, Note_off_c, 0, 77, 90
1, 99610, Note_on_c, 0, 80, 121
1, 99714, Note_off_c, 0, 80, 121
1, 99721, Note_on_c, 0, 78, 118
1, 99800, Note_off_c, 0, 78, 118
1, 99810, Note_on_c, 0, 77, 116
1, 99898, Note_off_c, 0, 77, 116
1, 99903, Note_on_c, 0, 75, 124
1, 99985, Note_off_c, 0, 75, 124
1, 99991, Note_on_c, 0, 74, 119
1, 100084, Note_off_c, 0, 74, 119
1, 100091, Note_on_c, 0, 70, 105
1, 100169, Note_off_c, 0, 70, 105
1, 100528, Note_on_c, 0, 74, 119
1, 100629, Note_off_c, 0, 74, 119
1, 100642, Note_on_c, 0, 75, 115
1, 100727, Note_off_c, 0, 75, 115
1, 100809, Note_on_c, 0, 70, 107
1, 100901, Note_off_c, 0, 70, 107
1, 101452, Note_on_c, 0, 76, 118
1, 101574, Note_off_c, 0, 76, 118
1, 101623, Note_on_c, 0, 77, 123
1, 101751, Note_off_c, 0, 77, 123
1, 101764, Note_on_c, 0, 76, 107
1, 101818, Note_off_c, 0, 76, 107
1, 101824, Note_on_c, 0, 77, 123
1, 101915, Note_off_c, 0, 77, 123
1, 101941, Note_on_c, 0, 76, 111
1, 102045, Note_off_c, 0, 76, 111
1, 102101, Note_on_c, 0, 75, 110
1, 102200, Note_off_c, 0, 75, 110
1, 102285, Note_on_c, 0, 77, 107
1, 102362, Note_off_c, 0, 77, 107
1, 102553, Note_on_c, 0, 80, 118
1, 102634, Note_off_c, 0, 80, 118
1, 102648, Note_on_c, 0, 79, 101
1, 102704, Note_off_c, 0, 79, 101
1, 102724, Note_on_c, 0, 80, 120
1, 103182, Note_off_c, 0, 80, 120
1, 103307, Note_on_c, 0, 86, 120
1, 103405, Note_off_c, 0, 86, 120
1, 103424, Note_on_c, 0, 79, 111
1, 103455, Note_off_c, 0, 79, 111
1, 103458, Note_on_c, 0, 77, 114
1, 103496, Note_off_c, 0, 77, 114
1, 103502, Note_on_c, 0, 75, 119
1, 103592, Note_off_c, 0, 75, 119
1, 103600, Note_on_c, 0, 77, 113
1, 103855, Note_off_c, 0, 77, 113
1, 103862, Note_on_c, 0, 75, 118
1, 103968, Note_off_c, 0, 75, 118
1, 103980, Note_on_c, 0, 72, 117
1, 104014, Note_off_c, 0, 72, 117
1, 104016, Note_on_c, 0, 70, 119
1, 104148, Note_off_c, 0, 70, 119
1, 104153, Note_on_c, 0, 68, 106
1, 104237, Note_off_c, 0, 68, 106
1, 104588, Note_on_c, 0, 65, 114
1, 104648, Note_off_c, 0, 65, 114
1, 104660, Note_on_c, 0, 64, 112
1, 104764, Note_off_c, 0, 64, 112
1, 104777, Note_on_c, 0, 63, 111
1, 104859, Note_off_c, 0, 63, 111
1, 104886, Note_on_c, 0, 67, 113
1, 104960, Note_off_c, 0, 67, 113
1, 105074, Note_on_c, 0, 60, 105
1, 105125, Note_off_c, 0, 60, 105
1, 105148, Note_on_c, 0, 65, 112
1, 105242, Note_off_c, 0, 65, 112
1, 105260, Note_on_c, 0, 62, 104
1, 105331, Note_off_c, 0, 62, 104
1, 105343, Note_on_c, 0, 63, 98
1, 105413, Note_off_c, 0, 63, 98
1, 105427, Note_on_c, 0, 65, 100
1, 105463, Note_off_c, 0, 65, 100
1, 105488, Note_on_c, 0, 68, 110
1, 105598, Note_off_c, 0, 68, 110
1, 105607, Note_on_c, 0, 66, 117
1, 105703, Note_off_c, 0, 66, 117
1, 105714, Note_on_c, 0, 65, 113
1, 105785, Note_off_c, 0, 65, 113
1, 105794, Note_on_c, 0, 63, 110
1, 105867, Note_off_c, 0, 63, 110
1, 105882, Note_on_c, 0, 62, 118
1, 105959, Note_off_c, 0, 62, 118
1, 105996, Note_on_c, 0, 70, 115
1, 106127, Note_off_c, 0, 70, 115
1, 106127, End_track
0, 0, End_of_file
