0, 0, Header, 1, 1, 192
1, 0, Start_track
1, 0, Title_t, "Melody"
1, 0, Tempo, 303030
1, 0, Key_signature, -3, "major"
1, 0, Time_signature, 4, 2, 24, 8
1, 2074, Note_on_c, 0, 70, 112
1, 2149, Note_off_c, 0, 70, 112
1, 2154, Note_on_c, 0, 73, 117
1, 2253, Note_off_c, 0, 73, 117
1, 2267, Note_on_c, 0, 75, 107
1, 2336, Note_off_c, 0, 75, 107
1, 2679, Note_on_c, 0, 63, 110
1, 2730, Note_off_c, 0, 63, 110
1, 2735, Note_on_c, 0, 66, 114
1, 2828, Note_off_c, 0, 66, 114
1, 2949, Note_on_c, 0, 68, 113
1, 3302, Note_off_c, 0, 68, 113
1, 3688, Note_on_c, 0, 63, 100
1, 3741, Note_off_c, 0, 63, 100
1, 3757, Note_on_c, 0, 67, 118
1, 3869, Note_off_c, 0, 67, 118
1, 3887, Note_on_c, 0, 70, 101
1, 3951, Note_off_c, 0, 70, 101
1, 4673, Note_on_c, 0, 67, 101
1, 4713, Note_off_c, 0, 67, 101
1, 4757, Note_on_c, 0, 70, 103
1, 4802, Note_off_c, 0, 70, 103
1, 5263, Note_on_c, 0, 70, 106
1, 5332, Note_off_c, 0, 70, 106
1, 5332, Note_on_c, 0, 75, 117
1, 5451, Note_off_c, 0, 75, 117
1, 5465, Note_on_c, 0, 70, 95
1, 5525, Note_off_c, 0, 70, 95
1, 5852, Note_on_c, 0, 70, 113
1, 5907, Note_off_c, 0, 70, 113
1, 5908, Note_on_c, 0, 73, 113
1, 5977, Note_off_c, 0, 73, 113
1, 6122, Note_on_c, 0, 75, 113
1, 6453, Note_off_c, 0, 75, 113
1, 6469, Note_on_c, 0, 73, 103
1, 6520, Note_off_c, 0, 73, 103
1, 6532, Note_on_c, 0, 77, 119
1, 6651, Note_off_c, 0, 77, 119
1, 6662, Note_on_c, 0, 70, 106
1, 6752, Note_off_c, 0, 70, 106
1, 7610, Note_on_c, 0, 70, 117
1, 7670, Note_off_c, 0, 70, 117
1, 7673, Note_on_c, 0, 75, 119
1, 7809, Note_off_c, 0, 75, 119
1, 7820, Note_on_c, 0, 70, 107
1, 7875, Note_off_c, 0, 70, 107
1, 7887, Note_on_c, 0, 73, 115
1, 7988, Note_off_c, 0, 73, 115
1, 8388, Note_on_c, 0, 70, 104
1, 8467, Note_off_c, 0, 70, 104
1, 8470, Note_on_c, 0, 75, 116
1, 8574, Note_off_c, 0, 75, 116
1, 8590, Note_on_c, 0, 73, 114
1, 8669, Note_off_c, 0, 73, 114
1, 8672, Note_on_c, 0, 70, 116
1, 8780, Note_off_c, 0, 70, 116
1, 8785, Note_on_c, 0, 68, 113
1, 9193, Note_off_c, 0, 68, 113
1, 9251, Note_on_c, 0, 70, 116
1, 9548, Note_off_c, 0, 70, 116
1, 9548, Note_on_c, 0, 68, 112
1, 9649, Note_off_c, 0, 68, 112
1, 9654, Note_on_c, 0, 65, 116
1, 9703, Note_off_c, 0, 65, 116
1, 9710, Note_on_c, 0, 67, 118
1, 9857, Note_off_c, 0, 67, 118
1, 9862, Note_on_c, 0, 63, 106
1, 9990, Note_off_c, 0, 63, 106
1, 10006, Note_on_c, 0, 61, 102
1, 10048, Note_off_c, 0, 61, 102
1, 10053, Note_on_c, 0, 63, 108
1, 10389, Note_off_c, 0, 63, 108
1, 11354, Note_on_c, 0, 63, 117
1, 11425, Note_off_c, 0, 63, 117
1, 11447, Note_on_c, 0, 63, 119
1, 11518, Note_off_c, 0, 63, 119
1, 11545, Note_on_c, 0, 63, 115
1, 11624, Note_off_c, 0, 63, 115
1, 11662, Note_on_c, 0, 67, 116
1, 11777, Note_off_c, 0, 67, 116
1, 11782, Note_on_c, 0, 70, 93
1, 11813, Note_off_c, 0, 70, 93
1, 11835, Note_on_c, 0, 72, 116
1, 11961, Note_off_c, 0, 72, 116
1, 11970, Note_on_c, 0, 75, 113
1, 12244, Note_off_c, 0, 75, 113
1, 12251, Note_on_c, 0, 73, 112
1, 12363, Note_off_c, 0, 73, 112
1, 12377, Note_on_c, 0, 72, 114
1, 12461, Note_off_c, 0, 72, 114
1, 12462, Note_on_c, 0, 70, 118
1, 12574, Note_off_c, 0, 70, 118
1, 12588, Note_on_c, 0, 72, 109
1, 12663, Note_off_c, 0, 72, 109
1, 12854, Note_on_c, 0, 63, 116
1, 12944, Note_off_c, 0, 63, 116
1, 13043, Note_on_c, 0, 63, 115
1, 13157, Note_off_c, 0, 63, 115
1, 13263, Note_on_c, 0, 63, 118
1, 13542, Note_off_c, 0, 63, 118
1, 13567, Note_on_c, 0, 67, 115
1, 13640, Note_off_c, 0, 67, 115
1, 13652, Note_on_c, 0, 65, 117
1, 13771, Note_off_c, 0, 65, 117
1, 13791, Note_on_c, 0, 61, 111
1, 13855, Note_off_c, 0, 61, 111
1, 14765, Note_on_c, 0, 63, 113
1, 14829, Note_off_c, 0, 63, 113
1, 15148, Note_on_c, 0, 63, 102
1, 15206, Note_off_c, 0, 63, 102
1, 15224, Note_on_c, 0, 68, 117
1, 15354, Note_off_c, 0, 68, 117
1, 15365, Note_on_c, 0, 70, 96
1, 15405, Note_off_c, 0, 70, 96
1, 15425, Note_on_c, 0, 72, 117
1, 15562, Note_off_c, 0, 72, 117
1, 15572, Note_on_c, 0, 75, 101
1, 15610, Note_off_c, 0, 75, 101
1, 15624, Note_on_c, 0, 78, 113
1, 15736, Note_off_c, 0, 78, 113
1, 15745, Note_on_c, 0, 77, 124
1, 15811, Note_off_c, 0, 77, 124
1, 15822, Note_on_c, 0, 75, 118
1, 15913, Note_off_c, 0, 75, 118
1, 15924, Note_on_c, 0, 73, 113
1, 16209, Note_off_c, 0, 73, 113
1, 16218, Note_on_c, 0, 72, 113
1, 16311, Note_off_c, 0, 72, 113
1, 16318, Note_on_c, 0, 71, 116
1, 16395, Note_off_c, 0, 71, 116
1, 16396, Note_on_c, 0, 70, 115
1, 16489, Note_off_c, 0, 70, 115
1, 17088, Note_on_c, 0, 63, 109
1, 17150, Note_off_c, 0, 63, 109
1, 17159, Note_on_c, 0, 65, 123
1, 17201, Note_off_c, 0, 65, 123
1, 17225, Note_on_c, 0, 67, 119
1, 17304, Note_off_c, 0, 67, 119
1, 17307, Note_on_c, 0, 70, 110
1, 18162, Note_off_c, 0, 70, 110
1, 18171, Note_on_c, 0, 72, 111
1, 18244, Note_off_c, 0, 72, 111
1, 18356, Note_on_c, 0, 66, 115
1, 18464, Note_off_c, 0, 66, 115
1, 18473, Note_on_c, 0, 65, 119
1, 18535, Note_off_c, 0, 65, 119
1, 18571, Note_on_c, 0, 63, 106
1, 18648, Note_off_c, 0, 63, 106
1, 18671, Note_on_c, 0, 60, 108
1, 18728, Note_off_c, 0, 60, 108
1, 18735, Note_on_c, 0, 63, 116
1, 18832, Note_off_c, 0, 63, 116
1, 18841, Note_on_c, 0, 66, 118
1, 18934, Note_off_c, 0, 66, 118
1, 18952, Note_on_c, 0, 65, 118
1, 19051, Note_off_c, 0, 65, 118
1, 19054, Note_on_c, 0, 63, 109
1, 19316, Note_off_c, 0, 63, 109
1, 19327, Note_on_c, 0, 65, 121
1, 19422, Note_off_c, 0, 65, 121
1, 20041, Note_on_c, 0, 72, 119
1, 20105, Note_off_c, 0, 72, 119
1, 20700, Note_on_c, 0, 73, 123
1, 20793, Note_off_c, 0, 73, 123
1, 20890, Note_on_c, 0, 72, 113
1, 20987, Note_off_c, 0, 72, 113
1, 21101, Note_on_c, 0, 73, 121
1, 21222, Note_off_c, 0, 73, 121
1, 21223, Note_on_c, 0, 72, 113
1, 21296, Note_off_c, 0, 72, 113
1, 21395, Note_on_c, 0, 70, 115
1, 21509, Note_off_c, 0, 70, 115
1, 21591, Note_on_c, 0, 72, 109
1, 21686, Note_off_c, 0, 72, 109
1, 21796, Note_on_c, 0, 70, 109
1, 21862, Note_off_c, 0, 70, 109
1, 21869, Note_on_c, 0, 73, 114
1, 21983, Note_off_c, 0, 73, 114
1, 21992, Note_on_c, 0, 70, 117
1, 22052, Note_off_c, 0, 70, 117
1, 22057, Note_on_c, 0, 72, 115
1, 22145, Note_off_c, 0, 72, 115
1, 22253, Note_on_c, 0, 73, 112
1, 22368, Note_off_c, 0, 73, 112
1, 22458, Note_on_c, 0, 72, 112
1, 22572, Note_off_c, 0, 72, 112
1, 22579, Note_on_c, 0, 70, 114
1, 22643, Note_off_c, 0, 70, 114
1, 22650, Note_on_c, 0, 72, 115
1, 22683, Note_off_c, 0, 72, 115
1, 22694, Note_on_c, 0, 73, 113
1, 22767, Note_off_c, 0, 73, 113
1, 22772, Note_on_c, 0, 72, 111
1, 22841, Note_off_c, 0, 72, 111
1, 22938, Note_on_c, 0, 70, 115
1, 23212, Note_off_c, 0, 70, 115
1, 23221, Note_on_c, 0, 72, 111
1, 23311, Note_off_c, 0, 72, 111
1, 23419, Note_on_c, 0, 66, 118
1, 23525, Note_off_c, 0, 66, 118
1, 23536, Note_on_c, 0, 65, 119
1, 23613, Note_off_c, 0, 65, 119
1, 23622, Note_on_c, 0, 63, 105
1, 23717, Note_off_c, 0, 63, 105
1, 23750, Note_on_c, 0, 60, 102
1, 23803, Note_off_c, 0, 60, 102
1, 23805, Note_on_c, 0, 65, 127
1, 23856, Note_off_c, 0, 65, 127
1, 23861, Note_on_c, 0, 66, 116
1, 23918, Note_off_c, 0, 66, 116
1, 23941, Note_on_c, 0, 65, 118
1, 23996, Note_off_c, 0, 65, 118
1, 24010, Note_on_c, 0, 63, 110
1, 24094, Note_off_c, 0, 63, 110
1, 24099, Note_on_c, 0, 65, 115
1, 24192, Note_off_c, 0, 65, 115
1, 24201, Note_on_c, 0, 63, 112
1, 24291, Note_off_c, 0, 63, 112
1, 24307, Note_on_c, 0, 65, 112
1, 24391, Note_off_c, 0, 65, 112
1, 24497, Note_on_c, 0, 63, 108
1, 24780, Note_off_c, 0, 63, 108
1, 24794, Note_on_c, 0, 61, 118
1, 24860, Note_off_c, 0, 61, 118
1, 24871, Note_on_c, 0, 60, 102
1, 24948, Note_off_c, 0, 60, 102
1, 25655, Note_on_c, 0, 58, 116
1, 25697, Note_off_c, 0, 58, 116
1, 25703, Note_on_c, 0, 56, 120
1, 25736, Note_off_c, 0, 56, 120
1, 25742, Note_on_c, 0, 55, 112
1, 25778, Note_off_c, 0, 55, 112
1, 26242, Note_on_c, 0, 53, 104
1, 26290, Note_off_c, 0, 53, 104
1, 26294, Note_on_c, 0, 55, 98
1, 26338, Note_off_c, 0, 55, 98
1, 26350, Note_on_c, 0, 62, 111
1, 26408, Note_off_c, 0, 62, 111
1, 26411, Note_on_c, 0, 65, 124
1, 26480, Note_off_c, 0, 65, 124
1, 26489, Note_on_c, 0, 64, 112
1, 26542, Note_off_c, 0, 64, 112
1, 26576, Note_on_c, 0, 68, 115
1, 26599, Note_off_c, 0, 68, 115
1, 26600, Note_on_c, 0, 70, 112
1, 26620, Note_off_c, 0, 70, 112
1, 26620, Note_on_c, 0, 73, 114
1, 26688, Note_off_c, 0, 73, 114
1, 26697, Note_on_c, 0, 72, 116
1, 26787, Note_off_c, 0, 72, 116
1, 26794, Note_on_c, 0, 70, 117
1, 26869, Note_off_c, 0, 70, 117
1, 26881, Note_on_c, 0, 68, 116
1, 26969, Note_off_c, 0, 68, 116
1, 27215, Note_on_c, 0, 63, 105
1, 27262, Note_off_c, 0, 63, 105
1, 27269, Note_on_c, 0, 67, 119
1, 27399, Note_off_c, 0, 67, 119
1, 27408, Note_on_c, 0, 68, 114
1, 27510, Note_off_c, 0, 68, 114
1, 27979, Note_on_c, 0, 64, 119
1, 28050, Note_off_c, 0, 64, 119
1, 28054, Note_on_c, 0, 65, 120
1, 28138, Note_off_c, 0, 65, 120
1, 28165, Note_on_c, 0, 62, 113
1, 28245, Note_off_c, 0, 62, 113
1, 28250, Note_on_c, 0, 58, 103
1, 28352, Note_off_c, 0, 58, 103
1, 28712, Note_on_c, 0, 62, 104
1, 28780, Note_off_c, 0, 62, 104
1, 28787, Note_on_c, 0, 65, 118
1, 28897, Note_off_c, 0, 65, 118
1, 28906, Note_on_c, 0, 67, 115
1, 28994, Note_off_c, 0, 67, 115
1, 28999, Note_on_c, 0, 64, 109
1, 29113, Note_off_c, 0, 64, 109
1, 29124, Note_on_c, 0, 62, 101
1, 29184, Note_off_c, 0, 62, 101
1, 29197, Note_on_c, 0, 63, 117
1, 29290, Note_off_c, 0, 63, 117
1, 29308, Note_on_c, 0, 60, 116
1, 29388, Note_off_c, 0, 60, 116
1, 29399, Note_on_c, 0, 56, 107
1, 29525, Note_off_c, 0, 56, 107
1, 29602, Note_on_c, 0, 54, 113
1, 29671, Note_off_c, 0, 54, 113
1, 29689, Note_on_c, 0, 61, 116
1, 29769, Note_off_c, 0, 61, 116
1, 29787, Note_on_c, 0, 59, 106
1, 29867, Note_off_c, 0, 59, 106
1, 29890, Note_on_c, 0, 57, 104
1, 29950, Note_off_c, 0, 57, 104
1, 29955, Note_on_c, 0, 58, 117
1, 30032, Note_off_c, 0, 58, 117
1, 30062, Note_on_c, 0, 51, 108
1, 30383, Note_off_c, 0, 51, 108
1, 31336, Note_on_c, 0, 57, 117
1, 31366, Note_off_c, 0, 57, 117
1, 31369, Note_on_c, 0, 55, 117
1, 31415, Note_off_c, 0, 55, 117
1, 31427, Note_on_c, 0, 51, 118
1, 31486, Note_off_c, 0, 51, 118
1, 31491, Note_on_c, 0, 49, 119
1, 31844, Note_off_c, 0, 49, 119
1, 31882, Note_on_c, 0, 56, 112
1, 31973, Note_off_c, 0, 56, 112
1, 32456, Note_on_c, 0, 56, 113
1, 32492, Note_off_c, 0, 56, 113
1, 32497, Note_on_c, 0, 55, 117
1, 32542, Note_off_c, 0, 55, 117
1, 32545, Note_on_c, 0, 53, 116
1, 32592, Note_off_c, 0, 53, 116
1, 32595, Note_on_c, 0, 56, 120
1, 32618, Note_off_c, 0, 56, 120
1, 32621, Note_on_c, 0, 59, 118
1, 32665, Note_off_c, 0, 59, 118
1, 32679, Note_on_c, 0, 63, 113
1, 32712, Note_off_c, 0, 63, 113
1, 32737, Note_on_c, 0, 70, 116
1, 32773, Note_off_c, 0, 70, 116
1, 32776, Note_on_c, 0, 67, 117
1, 32805, Note_off_c, 0, 67, 117
1, 32818, Note_on_c, 0, 65, 119
1, 32906, Note_off_c, 0, 65, 119
1, 33378, Note_on_c, 0, 65, 120
1, 33479, Note_off_c, 0, 65, 120
1, 33497, Note_on_c, 0, 63, 92
1, 33546, Note_off_c, 0, 63, 92
1, 33685, Note_on_c, 0, 63, 103
1, 33742, Note_off_c, 0, 63, 103
1, 33756, Note_on_c, 0, 66, 119
1, 33811, Note_off_c, 0, 66, 119
1, 33831, Note_on_c, 0, 68, 118
1, 33876, Note_off_c, 0, 68, 118
1, 33881, Note_on_c, 0, 67, 118
1, 33915, Note_off_c, 0, 67, 118
1, 33920, Note_on_c, 0, 69, 115
1, 33945, Note_off_c, 0, 69, 115
1, 33954, Note_on_c, 0, 70, 117
1, 33972, Note_off_c, 0, 70, 117
1, 33984, Note_on_c, 0, 71, 118
1, 34024, Note_off_c, 0, 71, 118
1, 34035, Note_on_c, 0, 72, 115
1, 34119, Note_off_c, 0, 72, 115
1, 34126, Note_on_c, 0, 73, 116
1, 34177, Note_off_c, 0, 73, 116
1, 34184, Note_on_c, 0, 72, 114
1, 34244, Note_off_c, 0, 72, 114
1, 34247, Note_on_c, 0, 71, 116
1, 34300, Note_off_c, 0, 71, 116
1, 34320, Note_on_c, 0, 70, 114
1, 34671, Note_off_c, 0, 70, 114
1, 35454, Note_on_c, 0, 67, 123
1, 35538, Note_off_c, 0, 67, 123
1, 35576, Note_on_c, 0, 75, 120
1, 35636, Note_off_c, 0, 75, 120
1, 35647, Note_on_c, 0, 73, 113
1, 35757, Note_off_c, 0, 73, 113
1, 35758, Note_on_c, 0, 74, 110
1, 35785, Note_off_c, 0, 74, 110
1, 35790, Note_on_c, 0, 73, 119
1, 35821, Note_off_c, 0, 73, 119
1, 35828, Note_on_c, 0, 72, 116
1, 35851, Note_off_c, 0, 72, 116
1, 35856, Note_on_c, 0, 69, 113
1, 35922, Note_off_c, 0, 69, 113
1, 35947, Note_on_c, 0, 72, 119
1, 36031, Note_off_c, 0, 72, 119
1, 36032, Note_on_c, 0, 70, 119
1, 36112, Note_off_c, 0, 70, 119
1, 36128, Note_on_c, 0, 67, 116
1, 36197, Note_off_c, 0, 67, 116
1, 36213, Note_on_c, 0, 63, 102
1, 36271, Note_off_c, 0, 63, 102
1, 36349, Note_on_c, 0, 60, 102
1, 36383, Note_off_c, 0, 60, 102
1, 36405, Note_on_c, 0, 68, 117
1, 36496, Note_off_c, 0, 68, 117
1, 36503, Note_on_c, 0, 70, 111
1, 36580, Note_off_c, 0, 70, 111
1, 36581, Note_on_c, 0, 67, 118
1, 36687, Note_off_c, 0, 67, 118
1, 36690, Note_on_c, 0, 65, 119
1, 36765, Note_off_c, 0, 65, 119
1, 36768, Note_on_c, 0, 63, 110
1, 36834, Note_off_c, 0, 63, 110
1, 36982, Note_on_c, 0, 62, 103
1, 37057, Note_off_c, 0, 62, 103
1, 37066, Note_on_c, 0, 65, 117
1, 37148, Note_off_c, 0, 65, 117
1, 37166, Note_on_c, 0, 62, 105
1, 37237, Note_off_c, 0, 62, 105
1, 37249, Note_on_c, 0, 63, 105
1, 37306, Note_off_c, 0, 63, 105
1, 37322, Note_on_c, 0, 65, 119
1, 37426, Note_off_c, 0, 65, 119
1, 37440, Note_on_c, 0, 67, 115
1, 37520, Note_off_c, 0, 67, 115
1, 37523, Note_on_c, 0, 63, 109
1, 37633, Note_off_c, 0, 63, 109
1, 37655, Note_on_c, 0, 58, 102
1, 37687, Note_off_c, 0, 58, 102
1, 37700, Note_on_c, 0, 61, 9
1, 37806, Note_off_c, 0, 61, 9
1, 37813, Note_on_c, 0, 63, 9
1, 38153, Note_off_c, 0, 63, 9
1, 39215, Note_on_c, 0, 70, 116
1, 39354, Note_off_c, 0, 70, 116
1, 39370, Note_on_c, 0, 73, 101
1, 39401, Note_off_c, 0, 73, 101
1, 39402, Note_on_c, 0, 75, 118
1, 39514, Note_off_c, 0, 75, 118
1, 39523, Note_on_c, 0, 73, 114
1, 39589, Note_off_c, 0, 73, 114
1, 40146, Note_on_c, 0, 75, 116
1, 40269, Note_off_c, 0, 75, 116
1, 40333, Note_on_c, 0, 78, 113
1, 40494, Note_off_c, 0, 78, 113
1, 40505, Note_on_c, 0, 77, 108
1, 40530, Note_off_c, 0, 77, 108
1, 40539, Note_on_c, 0, 75, 116
1, 40651, Note_off_c, 0, 75, 116
1, 40662, Note_on_c, 0, 73, 111
1, 40742, Note_off_c, 0, 73, 111
1, 40832, Note_on_c, 0, 75, 110
1, 41107, Note_off_c, 0, 75, 110
1, 41110, Note_on_c, 0, 73, 115
1, 41192, Note_off_c, 0, 73, 115
1, 41210, Note_on_c, 0, 70, 116
1, 41312, Note_off_c, 0, 70, 116
1, 41317, Note_on_c, 0, 69, 113
1, 41418, Note_off_c, 0, 69, 113
1, 41421, Note_on_c, 0, 67, 111
1, 41490, Note_off_c, 0, 67, 111
1, 41495, Note_on_c, 0, 68, 115
1, 41634, Note_off_c, 0, 68, 115
1, 41646, Note_on_c, 0, 65, 102
1, 41679, Note_off_c, 0, 65, 102
1, 41684, Note_on_c, 0, 66, 113
1, 41788, Note_off_c, 0, 66, 113
1, 41800, Note_on_c, 0, 63, 110
1, 41866, Note_off_c, 0, 63, 110
1, 41875, Note_on_c, 0, 60, 103
1, 41992, Note_off_c, 0, 60, 103
1, 42063, Note_on_c, 0, 65, 119
1, 42186, Note_off_c, 0, 65, 119
1, 42191, Note_on_c, 0, 63, 107
1, 42229, Note_off_c, 0, 63, 107
1, 42233, Note_on_c, 0, 65, 122
1, 42289, Note_off_c, 0, 65, 122
1, 42293, Note_on_c, 0, 66, 115
1, 42357, Note_off_c, 0, 66, 115
1, 42366, Note_on_c, 0, 63, 109
1, 42722, Note_off_c, 0, 63, 109
1, 43775, Note_on_c, 0, 59, 107
1, 43794, Note_off_c, 0, 59, 107
1, 43796, Note_on_c, 0, 60, 109
1, 43839, Note_off_c, 0, 60, 109
1, 43845, Note_on_c, 0, 62, 109
1, 43886, Note_off_c, 0, 62, 109
1, 43895, Note_on_c, 0, 63, 101
1, 43936, Note_off_c, 0, 63, 101
1, 43948, Note_on_c, 0, 65, 123
1, 44005, Note_off_c, 0, 65, 123
1, 44013, Note_on_c, 0, 67, 117
1, 44033, Note_off_c, 0, 67, 117
1, 44042, Note_on_c, 0, 68, 118
1, 44083, Note_off_c, 0, 68, 118
1, 44102, Note_on_c, 0, 69, 112
1, 44142, Note_off_c, 0, 69, 112
1, 44151, Note_on_c, 0, 70, 117
1, 44207, Note_off_c, 0, 70, 117
1, 44213, Note_on_c, 0, 66, 111
1, 44249, Note_off_c, 0, 66, 111
1, 44258, Note_on_c, 0, 67, 119
1, 44287, Note_off_c, 0, 67, 119
1, 44311, Note_on_c, 0, 74, 110
1, 44387, Note_off_c, 0, 74, 110
1, 45014, Note_on_c, 0, 77, 123
1, 45076, Note_off_c, 0, 77, 123
1, 45081, Note_on_c, 0, 76, 120
1, 45106, Note_off_c, 0, 76, 120
1, 45115, Note_on_c, 0, 75, 117
1, 45209, Note_off_c, 0, 75, 117
1, 45210, Note_on_c, 0, 72, 113
1, 45299, Note_off_c, 0, 72, 113
1, 45330, Note_on_c, 0, 68, 100
1, 45401, Note_off_c, 0, 68, 100
1, 45430, Note_on_c, 0, 65, 102
1, 45492, Note_off_c, 0, 65, 102
1, 45512, Note_on_c, 0, 74, 113
1, 45607, Note_off_c, 0, 74, 113
1, 45609, Note_on_c, 0, 76, 111
1, 45651, Note_off_c, 0, 76, 111
1, 45652, Note_on_c, 0, 74, 111
1, 45695, Note_off_c, 0, 74, 111
1, 45704, Note_on_c, 0, 70, 118
1, 45803, Note_off_c, 0, 70, 118
1, 45810, Note_on_c, 0, 72, 113
1, 45923, Note_off_c, 0, 72, 113
1, 45926, Note_on_c, 0, 74, 104
1, 45971, Note_off_c, 0, 74, 104
1, 45974, Note_on_c, 0, 72, 112
1, 46003, Note_off_c, 0, 72, 112
1, 46004, Note_on_c, 0, 68, 114
1, 46073, Note_off_c, 0, 68, 114
1, 46078, Note_on_c, 0, 65, 118
1, 46178, Note_off_c, 0, 65, 118
1, 46188, Note_on_c, 0, 63, 113
1, 46252, Note_off_c, 0, 63, 113
1, 46261, Note_on_c, 0, 62, 113
1, 46345, Note_off_c, 0, 62, 113
1, 46354, Note_on_c, 0, 65, 108
1, 46428, Note_off_c, 0, 65, 108
1, 46439, Note_on_c, 0, 70, 116
1, 46563, Note_off_c, 0, 70, 116
1, 46565, Note_on_c, 0, 68, 115
1, 46639, Note_off_c, 0, 68, 115
1, 46648, Note_on_c, 0, 67, 116
1, 46757, Note_off_c, 0, 67, 116
1, 46763, Note_on_c, 0, 63, 105
1, 46831, Note_off_c, 0, 63, 105
1, 46843, Note_on_c, 0, 61, 108
1, 46933, Note_off_c, 0, 61, 108
1, 46948, Note_on_c, 0, 63, 110
1, 47290, Note_off_c, 0, 63, 110
1, 48240, Note_on_c, 0, 67, 118
1, 48320, Note_off_c, 0, 67, 118
1, 48334, Note_on_c, 0, 68, 98
1, 48363, Note_off_c, 0, 68, 98
1, 48364, Note_on_c, 0, 70, 117
1, 48413, Note_off_c, 0, 70, 117
1, 48429, Note_on_c, 0, 66, 116
1, 48476, Note_off_c, 0, 66, 116
1, 48479, Note_on_c, 0, 67, 115
1, 48513, Note_off_c, 0, 67, 115
1, 48522, Note_on_c, 0, 70, 97
1, 48547, Note_off_c, 0, 70, 97
1, 48560, Note_on_c, 0, 75, 118
1, 48631, Note_off_c, 0, 75, 118
1, 48653, Note_on_c, 0, 73, 108
1, 48735, Note_off_c, 0, 73, 108
1, 49284, Note_on_c, 0, 70, 115
1, 49412, Note_off_c, 0, 70, 115
1, 49419, Note_on_c, 0, 72, 109
1, 49452, Note_off_c, 0, 72, 109
1, 49455, Note_on_c, 0, 70, 112
1, 49489, Note_off_c, 0, 70, 112
1, 49494, Note_on_c, 0, 67, 117
1, 49608, Note_off_c, 0, 67, 117
1, 49608, Note_on_c, 0, 75, 117
1, 49688, Note_off_c, 0, 75, 117
1, 49697, Note_on_c, 0, 76, 116
1, 49750, Note_off_c, 0, 76, 116
1, 49757, Note_on_c, 0, 75, 115
1, 49795, Note_off_c, 0, 75, 115
1, 49807, Note_on_c, 0, 70, 110
1, 49876, Note_off_c, 0, 70, 110
1, 49877, Note_on_c, 0, 73, 113
1, 49985, Note_off_c, 0, 73, 113
1, 49985, Note_on_c, 0, 74, 104
1, 50018, Note_off_c, 0, 74, 104
1, 50025, Note_on_c, 0, 73, 113
1, 50065, Note_off_c, 0, 73, 113
1, 50066, Note_on_c, 0, 70, 118
1, 50191, Note_off_c, 0, 70, 118
1, 50192, Note_on_c, 0, 68, 114
1, 50307, Note_off_c, 0, 68, 114
1, 50316, Note_on_c, 0, 72, 105
1, 50343, Note_off_c, 0, 72, 105
1, 50344, Note_on_c, 0, 70, 110
1, 50367, Note_off_c, 0, 70, 110
1, 50374, Note_on_c, 0, 68, 116
1, 50403, Note_off_c, 0, 68, 116
1, 50408, Note_on_c, 0, 66, 115
1, 50444, Note_off_c, 0, 66, 115
1, 50462, Note_on_c, 0, 68, 114
1, 50759, Note_off_c, 0, 68, 114
1, 50769, Note_on_c, 0, 66, 108
1, 50801, Note_off_c, 0, 66, 108
1, 50809, Note_on_c, 0, 68, 118
1, 50863, Note_off_c, 0, 68, 118
1, 50872, Note_on_c, 0, 69, 112
1, 50929, Note_off_c, 0, 69, 112
1, 50932, Note_on_c, 0, 68, 115
1, 50972, Note_off_c, 0, 68, 115
1, 50979, Note_on_c, 0, 63, 109
1, 51028, Note_off_c, 0, 63, 109
1, 51030, Note_on_c, 0, 61, 109
1, 51132, Note_off_c, 0, 61, 109
1, 51150, Note_on_c, 0, 63, 104
1, 51484, Note_off_c, 0, 63, 104
1, 52874, Note_on_c, 0, 66, 99
1, 52916, Note_off_c, 0, 66, 99
1, 52917, Note_on_c, 0, 67, 104
1, 53014, Note_off_c, 0, 67, 104
1, 53037, Note_on_c, 0, 74, 114
1, 53108, Note_off_c, 0, 74, 114
1, 53130, Note_on_c, 0, 77, 119
1, 53236, Note_off_c, 0, 77, 119
1, 53239, Note_on_c, 0, 76, 120
1, 53262, Note_off_c, 0, 76, 120
1, 53273, Note_on_c, 0, 75, 117
1, 53326, Note_off_c, 0, 75, 117
1, 53337, Note_on_c, 0, 74, 112
1, 53403, Note_off_c, 0, 74, 112
1, 53430, Note_on_c, 0, 72, 111
1, 53512, Note_off_c, 0, 72, 111
1, 53521, Note_on_c, 0, 70, 118
1, 53612, Note_off_c, 0, 70, 118
1, 53628, Note_on_c, 0, 68, 116
1, 53725, Note_off_c, 0, 68, 116
1, 53737, Note_on_c, 0, 67, 116
1, 53814, Note_off_c, 0, 67, 116
1, 53819, Note_on_c, 0, 65, 118
1, 53899, Note_off_c, 0, 65, 118
1, 53911, Note_on_c, 0, 64, 110
1, 53990, Note_off_c, 0, 64, 110
1, 54001, Note_on_c, 0, 67, 113
1, 54074, Note_off_c, 0, 67, 113
1, 54075, Note_on_c, 0, 70, 117
1, 54176, Note_off_c, 0, 70, 117
1, 54190, Note_on_c, 0, 73, 117
1, 54270, Note_off_c, 0, 73, 117
1, 54275, Note_on_c, 0, 72, 112
1, 54381, Note_off_c, 0, 72, 112
1, 54461, Note_on_c, 0, 68, 116
1, 54552, Note_off_c, 0, 68, 116
1, 54561, Note_on_c, 0, 72, 111
1, 54610, Note_off_c, 0, 72, 111
1, 54621, Note_on_c, 0, 68, 115
1, 54666, Note_off_c, 0, 68, 115
1, 54667, Note_on_c, 0, 65, 107
1, 54753, Note_off_c, 0, 65, 107
1, 54805, Note_on_c, 0, 70, 117
1, 54919, Note_off_c, 0, 70, 117
1, 54945, Note_on_c, 0, 68, 114
1, 55003, Note_off_c, 0, 68, 114
1, 55017, Note_on_c, 0, 67, 112
1, 55061, Note_off_c, 0, 67, 112
1, 55084, Note_on_c, 0, 68, 112
1, 55337, Note_off_c, 0, 68, 112
1, 55395, Note_on_c, 0, 67, 114
1, 55698, Note_off_c, 0, 67, 114
1, 55701, Note_on_c, 0, 68, 115
1, 55778, Note_off_c, 0, 68, 115
1, 55785, Note_on_c, 0, 67, 117
1, 55910, Note_off_c, 0, 67, 117
1, 55921, Note_on_c, 0, 63, 104
1, 56011, Note_off_c, 0, 63, 104
1, 56069, Note_on_c, 0, 63, 111
1, 56418, Note_off_c, 0, 63, 111
1, 57246, Note_on_c, 0, 58, 117
1, 57281, Note_off_c, 0, 58, 117
1, 57282, Note_on_c, 0, 60, 117
1, 57303, Note_off_c, 0, 60, 117
1, 57305, Note_on_c, 0, 61, 118
1, 57351, Note_off_c, 0, 61, 118
1, 57363, Note_on_c, 0, 58, 115
1, 57406, Note_off_c, 0, 58, 115
1, 57422, Note_on_c, 0, 64, 116
1, 57456, Note_off_c, 0, 64, 116
1, 57458, Note_on_c, 0, 65, 121
1, 57492, Note_off_c, 0, 65, 121
1, 57496, Note_on_c, 0, 67, 115
1, 57517, Note_off_c, 0, 67, 115
1, 57517, Note_on_c, 0, 70, 110
1, 57536, Note_off_c, 0, 70, 110
1, 57537, Note_on_c, 0, 72, 114
1, 57577, Note_off_c, 0, 72, 114
1, 57598, Note_on_c, 0, 70, 110
1, 57631, Note_off_c, 0, 70, 110
1, 57662, Note_on_c, 0, 75, 119
1, 57700, Note_off_c, 0, 75, 119
1, 57701, Note_on_c, 0, 73, 114
1, 57795, Note_off_c, 0, 73, 114
1, 57802, Note_on_c, 0, 72, 109
1, 57866, Note_off_c, 0, 72, 109
1, 58385, Note_on_c, 0, 75, 119
1, 58523, Note_off_c, 0, 75, 119
1, 58573, Note_on_c, 0, 66, 109
1, 58706, Note_off_c, 0, 66, 109
1, 58709, Note_on_c, 0, 78, 102
1, 58754, Note_off_c, 0, 78, 102
1, 58763, Note_on_c, 0, 75, 118
1, 58889, Note_off_c, 0, 75, 118
1, 58899, Note_on_c, 0, 73, 110
1, 58993, Note_off_c, 0, 73, 110
1, 59154, Note_on_c, 0, 72, 116
1, 59201, Note_off_c, 0, 72, 116
1, 59212, Note_on_c, 0, 73, 115
1, 59358, Note_off_c, 0, 73, 115
1, 59368, Note_on_c, 0, 72, 114
1, 59459, Note_off_c, 0, 72, 114
1, 59461, Note_on_c, 0, 71, 113
1, 59538, Note_off_c, 0, 71, 113
1, 59543, Note_on_c, 0, 70, 115
1, 59645, Note_off_c, 0, 70, 115
1, 59654, Note_on_c, 0, 68, 114
1, 59740, Note_off_c, 0, 68, 114
1, 59763, Note_on_c, 0, 63, 97
1, 59840, Note_off_c, 0, 63, 97
1, 59849, Note_on_c, 0, 60, 102
1, 59907, Note_off_c, 0, 60, 102
1, 59929, Note_on_c, 0, 66, 111
1, 60048, Note_off_c, 0, 66, 111
1, 60057, Note_on_c, 0, 63, 98
1, 60110, Note_off_c, 0, 63, 98
1, 60119, Note_on_c, 0, 65, 116
1, 60251, Note_off_c, 0, 65, 116
1, 60267, Note_on_c, 0, 63, 105
1, 60294, Note_off_c, 0, 63, 105
1, 60312, Note_on_c, 0, 66, 114
1, 60451, Note_off_c, 0, 66, 114
1, 60458, Note_on_c, 0, 63, 96
1, 60487, Note_off_c, 0, 63, 96
1, 60496, Note_on_c, 0, 65, 118
1, 60600, Note_off_c, 0, 65, 118
1, 60620, Note_on_c, 0, 63, 109
1, 60882, Note_off_c, 0, 63, 109
1, 60891, Note_on_c, 0, 65, 118
1, 60981, Note_off_c, 0, 65, 118
1, 61825, Note_on_c, 0, 66, 113
1, 61946, Note_off_c, 0, 66, 113
1, 61997, Note_on_c, 0, 65, 119
1, 62120, Note_off_c, 0, 65, 119
1, 62125, Note_on_c, 0, 63, 111
1, 62375, Note_off_c, 0, 63, 111
1, 62384, Note_on_c, 0, 65, 119
1, 62481, Note_off_c, 0, 65, 119
1, 62955, Note_on_c, 0, 61, 117
1, 63074, Note_off_c, 0, 61, 117
1, 63079, Note_on_c, 0, 58, 108
1, 63132, Note_off_c, 0, 58, 108
1, 63143, Note_on_c, 0, 60, 114
1, 63269, Note_off_c, 0, 60, 114
1, 63278, Note_on_c, 0, 58, 109
1, 63323, Note_off_c, 0, 58, 109
1, 63328, Note_on_c, 0, 60, 116
1, 63372, Note_off_c, 0, 60, 116
1, 63383, Note_on_c, 0, 61, 110
1, 63620, Note_off_c, 0, 61, 110
1, 63658, Note_on_c, 0, 58, 112
1, 63700, Note_off_c, 0, 58, 112
1, 63709, Note_on_c, 0, 60, 113
1, 63823, Note_off_c, 0, 60, 113
1, 63843, Note_on_c, 0, 58, 108
1, 63949, Note_off_c, 0, 58, 108
1, 63991, Note_on_c, 0, 56, 113
1, 64255, Note_off_c, 0, 56, 113
1, 64275, Note_on_c, 0, 58, 113
1, 64357, Note_off_c, 0, 58, 113
1, 64983, Note_on_c, 0, 54, 110
1, 65020, Note_off_c, 0, 54, 110
1, 65025, Note_on_c, 0, 55, 112
1, 65139, Note_off_c, 0, 55, 112
1, 65143, Note_on_c, 0, 58, 113
1, 65297, Note_off_c, 0, 58, 113
1, 65331, Note_on_c, 0, 51, 109
1, 65676, Note_off_c, 0, 51, 109
1, 66446, Note_on_c, 0, 63, 117
1, 66521, Note_off_c, 0, 63, 117
1, 66530, Note_on_c, 0, 67, 112
1, 66658, Note_off_c, 0, 67, 112
1, 66663, Note_on_c, 0, 70, 106
1, 66708, Note_off_c, 0, 70, 106
1, 66713, Note_on_c, 0, 75, 121
1, 66815, Note_off_c, 0, 75, 121
1, 66824, Note_on_c, 0, 73, 114
1, 66947, Note_off_c, 0, 73, 114
1, 66956, Note_on_c, 0, 72, 113
1, 67018, Note_off_c, 0, 72, 113
1, 67029, Note_on_c, 0, 71, 112
1, 67111, Note_off_c, 0, 71, 112
1, 67123, Note_on_c, 0, 70, 119
1, 67203, Note_off_c, 0, 70, 119
1, 67215, Note_on_c, 0, 68, 115
1, 67295, Note_off_c, 0, 68, 115
1, 67304, Note_on_c, 0, 63, 105
1, 67390, Note_off_c, 0, 63, 105
1, 67408, Note_on_c, 0, 60, 101
1, 67459, Note_off_c, 0, 60, 101
1, 67471, Note_on_c, 0, 66, 114
1, 67590, Note_off_c, 0, 66, 114
1, 67597, Note_on_c, 0, 63, 93
1, 67642, Note_off_c, 0, 63, 93
1, 67649, Note_on_c, 0, 66, 115
1, 67763, Note_off_c, 0, 66, 115
1, 67768, Note_on_c, 0, 67, 116
1, 67859, Note_off_c, 0, 67, 116
1, 67862, Note_on_c, 0, 63, 108
1, 67953, Note_off_c, 0, 63, 108
1, 67956, Note_on_c, 0, 65, 116
1, 68040, Note_off_c, 0, 65, 116
1, 68041, Note_on_c, 0, 60, 97
1, 68142, Note_off_c, 0, 60, 97
1, 68226, Note_on_c, 0, 63, 107
1, 68509, Note_off_c, 0, 63, 107
1, 69112, Note_on_c, 0, 63, 97
1, 69152, Note_off_c, 0, 63, 97
1, 69183, Note_on_c, 0, 68, 114
1, 69274, Note_off_c, 0, 68, 114
1, 69285, Note_on_c, 0, 71, 114
1, 69349, Note_off_c, 0, 71, 114
1, 69349, Note_on_c, 0, 72, 114
1, 69514, Note_off_c, 0, 72, 114
1, 69523, Note_on_c, 0, 68, 105
1, 69581, Note_off_c, 0, 68, 105
1, 69715, Note_on_c, 0, 68, 110
1, 69762, Note_off_c, 0, 68, 110
1, 69785, Note_on_c, 0, 73, 113
1, 69878, Note_off_c, 0, 73, 113
1, 69894, Note_on_c, 0, 68, 109
1, 69939, Note_off_c, 0, 68, 109
1, 70091, Note_on_c, 0, 68, 109
1, 70135, Note_off_c, 0, 68, 109
1, 70153, Note_on_c, 0, 74, 114
1, 70243, Note_off_c, 0, 74, 114
1, 70257, Note_on_c, 0, 68, 100
1, 70308, Note_off_c, 0, 68, 100
1, 70324, Note_on_c, 0, 74, 114
1, 70425, Note_off_c, 0, 74, 114
1, 70436, Note_on_c, 0, 75, 114
1, 70542, Note_off_c, 0, 75, 114
1, 70602, Note_on_c, 0, 78, 109
1, 70714, Note_off_c, 0, 78, 109
1, 70791, Note_on_c, 0, 77, 121
1, 70871, Note_off_c, 0, 77, 121
1, 70894, Note_on_c, 0, 75, 114
1, 71000, Note_off_c, 0, 75, 114
1, 71102, Note_on_c, 0, 73, 112
1, 71216, Note_off_c, 0, 73, 112
1, 71278, Note_on_c, 0, 72, 111
1, 71472, Note_off_c, 0, 72, 111
1, 71481, Note_on_c, 0, 71, 114
1, 71572, Note_off_c, 0, 71, 114
1, 71579, Note_on_c, 0, 69, 107
1, 71648, Note_off_c, 0, 69, 107
1, 71649, Note_on_c, 0, 70, 116
1, 71930, Note_off_c, 0, 70, 116
1, 71935, Note_on_c, 0, 68, 113
1, 72014, Note_off_c, 0, 68, 113
1, 72023, Note_on_c, 0, 67, 117
1, 72059, Note_off_c, 0, 67, 117
1, 72062, Note_on_c, 0, 68, 118
1, 72100, Note_off_c, 0, 68, 118
1, 72105, Note_on_c, 0, 67, 116
1, 72136, Note_off_c, 0, 67, 116
1, 72145, Note_on_c, 0, 65, 118
1, 72190, Note_off_c, 0, 65, 118
1, 72197, Note_on_c, 0, 64, 111
1, 72279, Note_off_c, 0, 64, 111
1, 72760, Note_on_c, 0, 67, 117
1, 72798, Note_off_c, 0, 67, 117
1, 72803, Note_on_c, 0, 68, 118
1, 72839, Note_off_c, 0, 68, 118
1, 72840, Note_on_c, 0, 67, 116
1, 72876, Note_off_c, 0, 67, 116
1, 72887, Note_on_c, 0, 65, 110
1, 72931, Note_off_c, 0, 65, 110
1, 73061, Note_on_c, 0, 65, 117
1, 73119, Note_off_c, 0, 65, 117
1, 73131, Note_on_c, 0, 70, 118
1, 73245, Note_off_c, 0, 70, 118
1, 73253, Note_on_c, 0, 72, 103
1, 73295, Note_off_c, 0, 72, 103
1, 73298, Note_on_c, 0, 70, 119
1, 73329, Note_off_c, 0, 70, 119
1, 73330, Note_on_c, 0, 68, 117
1, 73436, Note_off_c, 0, 68, 117
1, 73450, Note_on_c, 0, 73, 114
1, 73525, Note_off_c, 0, 73, 114
1, 73552, Note_on_c, 0, 76, 115
1, 73594, Note_off_c, 0, 76, 115
1, 73599, Note_on_c, 0, 73, 115
1, 73639, Note_off_c, 0, 73, 115
1, 73644, Note_on_c, 0, 70, 116
1, 73706, Note_off_c, 0, 70, 116
1, 73717, Note_on_c, 0, 72, 113
1, 74139, Note_off_c, 0, 72, 113
1, 74144, Note_on_c, 0, 73, 99
1, 74204, Note_off_c, 0, 73, 99
1, 74211, Note_on_c, 0, 72, 111
1, 74249, Note_off_c, 0, 72, 111
1, 74254, Note_on_c, 0, 70, 118
1, 74356, Note_off_c, 0, 70, 118
1, 74389, Note_on_c, 0, 63, 103
1, 74427, Note_off_c, 0, 63, 103
1, 75011, Note_on_c, 0, 73, 117
1, 75147, Note_off_c, 0, 73, 117
1, 75147, Note_on_c, 0, 72, 111
1, 75185, Note_off_c, 0, 72, 111
1, 75197, Note_on_c, 0, 70, 116
1, 75318, Note_off_c, 0, 70, 116
1, 75323, Note_on_c, 0, 72, 9
1, 75567, Note_off_c, 0, 72, 9
1, 75581, Note_on_c, 0, 73, 9
1, 75700, Note_off_c, 0, 73, 9
1, 75703, Note_on_c, 0, 72, 114
1, 75756, Note_off_c, 0, 72, 114
1, 75757, Note_on_c, 0, 70, 118
1, 75872, Note_off_c, 0, 70, 118
1, 75872, Note_on_c, 0, 72, 113
1, 75943, Note_off_c, 0, 72, 113
1, 76351, Note_on_c, 0, 73, 116
1, 76474, Note_off_c, 0, 73, 116
1, 76479, Note_on_c, 0, 72, 110
1, 76512, Note_off_c, 0, 72, 110
1, 76519, Note_on_c, 0, 70, 118
1, 76633, Note_off_c, 0, 70, 118
1, 76638, Note_on_c, 0, 72, 115
1, 76816, Note_off_c, 0, 72, 115
1, 76819, Note_on_c, 0, 73, 115
1, 76859, Note_off_c, 0, 73, 115
1, 76859, Note_on_c, 0, 72, 119
1, 76906, Note_off_c, 0, 72, 119
1, 76906, Note_on_c, 0, 70, 118
1, 77001, Note_off_c, 0, 70, 118
1, 77019, Note_on_c, 0, 73, 117
1, 77101, Note_off_c, 0, 73, 117
1, 77104, Note_on_c, 0, 73, 110
1, 77140, Note_off_c, 0, 73, 110
1, 77149, Note_on_c, 0, 72, 111
1, 77187, Note_off_c, 0, 72, 111
1, 77194, Note_on_c, 0, 70, 117
1, 77263, Note_off_c, 0, 70, 117
1, 77264, Note_on_c, 0, 72, 113
1, 77383, Note_off_c, 0, 72, 113
1, 77392, Note_on_c, 0, 70, 115
1, 77439, Note_off_c, 0, 70, 115
1, 77824, Note_on_c, 0, 73, 119
1, 77934, Note_off_c, 0, 73, 119
1, 77955, Note_on_c, 0, 72, 109
1, 78006, Note_off_c, 0, 72, 109
1, 78007, Note_on_c, 0, 70, 118
1, 78121, Note_off_c, 0, 70, 118
1, 78124, Note_on_c, 0, 72, 113
1, 78197, Note_off_c, 0, 72, 113
1, 78754, Note_on_c, 0, 75, 118
1, 78869, Note_off_c, 0, 75, 118
1, 79483, Note_on_c, 0, 79, 120
1, 79595, Note_off_c, 0, 79, 120
1, 79675, Note_on_c, 0, 79, 116
1, 80127, Note_off_c, 0, 79, 116
1, 80224, Note_on_c, 0, 75, 120
1, 80273, Note_off_c, 0, 75, 120
1, 80274, Note_on_c, 0, 76, 122
1, 80323, Note_off_c, 0, 76, 122
1, 80335, Note_on_c, 0, 75, 120
1, 80408, Note_off_c, 0, 75, 120
1, 80422, Note_on_c, 0, 74, 111
1, 80512, Note_off_c, 0, 74, 111
1, 80526, Note_on_c, 0, 77, 120
1, 80612, Note_off_c, 0, 77, 120
1, 80619, Note_on_c, 0, 75, 119
1, 80698, Note_off_c, 0, 75, 119
1, 80714, Note_on_c, 0, 70, 111
1, 80791, Note_off_c, 0, 70, 111
1, 80800, Note_on_c, 0, 67, 96
1, 80880, Note_off_c, 0, 67, 96
1, 80926, Note_on_c, 0, 70, 86
1, 80962, Note_off_c, 0, 70, 86
1, 81008, Note_on_c, 0, 74, 114
1, 81086, Note_off_c, 0, 74, 114
1, 81099, Note_on_c, 0, 72, 114
1, 81144, Note_off_c, 0, 72, 114
1, 81166, Note_on_c, 0, 71, 116
1, 81204, Note_off_c, 0, 71, 116
1, 81213, Note_on_c, 0, 70, 118
1, 81262, Note_off_c, 0, 70, 118
1, 81284, Note_on_c, 0, 70, 113
1, 81314, Note_off_c, 0, 70, 113
1, 81317, Note_on_c, 0, 69, 116
1, 81374, Note_off_c, 0, 69, 116
1, 81381, Note_on_c, 0, 68, 119
1, 81476, Note_off_c, 0, 68, 119
1, 81483, Note_on_c, 0, 72, 111
1, 81576, Note_off_c, 0, 72, 111
1, 81588, Note_on_c, 0, 67, 111
1, 81667, Note_off_c, 0, 67, 111
1, 81681, Note_on_c, 0, 65, 114
1, 81726, Note_off_c, 0, 65, 114
1, 81730, Note_on_c, 0, 70, 116
1, 81836, Note_off_c, 0, 70, 116
1, 81847, Note_on_c, 0, 67, 115
1, 81915, Note_off_c, 0, 67, 115
1, 81936, Note_on_c, 0, 68, 105
1, 82052, Note_off_c, 0, 68, 105
1, 82064, Note_on_c, 0, 70, 96
1, 82097, Note_off_c, 0, 70, 96
1, 82111, Note_on_c, 0, 73, 115
1, 82202, Note_off_c, 0, 73, 115
1, 82207, Note_on_c, 0, 71, 108
1, 82278, Note_off_c, 0, 71, 108
1, 82279, Note_on_c, 0, 73, 111
1, 82370, Note_off_c, 0, 73, 111
1, 82384, Note_on_c, 0, 71, 114
1, 82457, Note_off_c, 0, 71, 114
1, 82471, Note_on_c, 0, 70, 116
1, 82561, Note_off_c, 0, 70, 116
1, 82568, Note_on_c, 0, 66, 115
1, 82643, Note_off_c, 0, 66, 115
1, 82663, Note_on_c, 0, 62, 108
1, 82754, Note_off_c, 0, 62, 108
1, 82791, Note_on_c, 0, 58, 116
1, 82833, Note_off_c, 0, 58, 116
1, 82846, Note_on_c, 0, 63, 115
1, 82958, Note_off_c, 0, 63, 115
1, 82983, Note_on_c, 0, 58, 108
1, 83017, Note_off_c, 0, 58, 108
1, 83020, Note_on_c, 0, 61, 110
1, 83336, Note_off_c, 0, 61, 110
1, 84408, Note_on_c, 0, 58, 118
1, 84442, Note_off_c, 0, 58, 118
1, 84445, Note_on_c, 0, 61, 118
1, 84502, Note_off_c, 0, 61, 118
1, 84509, Note_on_c, 0, 63, 115
1, 84702, Note_off_c, 0, 63, 115
1, 84764, Note_on_c, 0, 58, 112
1, 84795, Note_off_c, 0, 58, 112
1, 84801, Note_on_c, 0, 61, 117
1, 84845, Note_off_c, 0, 61, 117
1, 84846, Note_on_c, 0, 63, 116
1, 85104, Note_off_c, 0, 63, 116
1, 85122, Note_on_c, 0, 58, 112
1, 85177, Note_off_c, 0, 58, 112
1, 85189, Note_on_c, 0, 61, 116
1, 85227, Note_off_c, 0, 61, 116
1, 85234, Note_on_c, 0, 60, 118
1, 85275, Note_off_c, 0, 60, 118
1, 85287, Note_on_c, 0, 58, 112
1, 85457, Note_off_c, 0, 58, 112
1, 85462, Note_on_c, 0, 60, 113
1, 85499, Note_off_c, 0, 60, 113
1, 85502, Note_on_c, 0, 63, 115
1, 85569, Note_off_c, 0, 63, 115
1, 85575, Note_on_c, 0, 61, 110
1, 85634, Note_off_c, 0, 61, 110
1, 86067, Note_on_c, 0, 58, 108
1, 86108, Note_off_c, 0, 58, 108
1, 86108, Note_on_c, 0, 61, 117
1, 86162, Note_off_c, 0, 61, 117
1, 86168, Note_on_c, 0, 63, 115
1, 86339, Note_off_c, 0, 63, 115
1, 86341, Note_on_c, 0, 60, 114
1, 86392, Note_off_c, 0, 60, 114
1, 86408, Note_on_c, 0, 58, 114
1, 86630, Note_off_c, 0, 58, 114
1, 86642, Note_on_c, 0, 60, 111
1, 86671, Note_off_c, 0, 60, 111
1, 86691, Note_on_c, 0, 63, 114
1, 86737, Note_off_c, 0, 63, 114
1, 86766, Note_on_c, 0, 58, 113
1, 86792, Note_off_c, 0, 58, 113
1, 86800, Note_on_c, 0, 60, 114
1, 86825, Note_off_c, 0, 60, 114
1, 86832, Note_on_c, 0, 61, 114
1, 86869, Note_off_c, 0, 61, 114
1, 86878, Note_on_c, 0, 63, 115
1, 86928, Note_off_c, 0, 63, 115
1, 86940, Note_on_c, 0, 61, 113
1, 86999, Note_off_c, 0, 61, 113
1, 87482, Note_on_c, 0, 63, 114
1, 87527, Note_off_c, 0, 63, 114
1, 87532, Note_on_c, 0, 66, 120
1, 87585, Note_off_c, 0, 66, 120
1, 87606, Note_on_c, 0, 68, 113
1, 87830, Note_off_c, 0, 68, 113
1, 87841, Note_on_c, 0, 66, 115
1, 87874, Note_off_c, 0, 66, 115
1, 87892, Note_on_c, 0, 68, 113
1, 87951, Note_off_c, 0, 68, 113
1, 87952, Note_on_c, 0, 66, 116
1, 87992, Note_off_c, 0, 66, 116
1, 88002, Note_on_c, 0, 63, 108
1, 88044, Note_off_c, 0, 63, 108
1, 88055, Note_on_c, 0, 61, 115
1, 88083, Note_off_c, 0, 61, 115
1, 88089, Note_on_c, 0, 58, 115
1, 88144, Note_off_c, 0, 58, 115
1, 88149, Note_on_c, 0, 60, 113
1, 88176, Note_off_c, 0, 60, 113
1, 88196, Note_on_c, 0, 55, 115
1, 88256, Note_off_c, 0, 55, 115
1, 88266, Note_on_c, 0, 52, 111
1, 88297, Note_off_c, 0, 52, 111
1, 88302, Note_on_c, 0, 53, 116
1, 88345, Note_off_c, 0, 53, 116
1, 88356, Note_on_c, 0, 56, 115
1, 88399, Note_off_c, 0, 56, 115
1, 88411, Note_on_c, 0, 60, 110
1, 88449, Note_off_c, 0, 60, 110
1, 88449, Note_on_c, 0, 63, 117
1, 88486, Note_off_c, 0, 63, 117
1, 88498, Note_on_c, 0, 70, 113
1, 88533, Note_off_c, 0, 70, 113
1, 88543, Note_on_c, 0, 68, 117
1, 88570, Note_off_c, 0, 68, 117
1, 88577, Note_on_c, 0, 66, 115
1, 88635, Note_off_c, 0, 66, 115
1, 89038, Note_on_c, 0, 58, 109
1, 89067, Note_off_c, 0, 58, 109
1, 89078, Note_on_c, 0, 61, 116
1, 89121, Note_off_c, 0, 61, 116
1, 89129, Note_on_c, 0, 63, 115
1, 89346, Note_off_c, 0, 63, 115
1, 89357, Note_on_c, 0, 61, 114
1, 89397, Note_off_c, 0, 61, 114
1, 89400, Note_on_c, 0, 63, 115
1, 89573, Note_off_c, 0, 63, 115
1, 89602, Note_on_c, 0, 58, 115
1, 89656, Note_off_c, 0, 58, 115
1, 89665, Note_on_c, 0, 60, 119
1, 89698, Note_off_c, 0, 60, 119
1, 89708, Note_on_c, 0, 64, 114
1, 89750, Note_off_c, 0, 64, 114
1, 89775, Note_on_c, 0, 65, 123
1, 89815, Note_off_c, 0, 65, 123
1, 89816, Note_on_c, 0, 67, 113
1, 89835, Note_off_c, 0, 67, 113
1, 89846, Note_on_c, 0, 72, 115
1, 89886, Note_off_c, 0, 72, 115
1, 89886, Note_on_c, 0, 75, 120
1, 89944, Note_off_c, 0, 75, 120
1, 89950, Note_on_c, 0, 73, 111
1, 90034, Note_off_c, 0, 73, 111
1, 90754, Note_on_c, 0, 63, 122
1, 90795, Note_off_c, 0, 63, 122
1, 90802, Note_on_c, 0, 66, 112
1, 90913, Note_off_c, 0, 66, 112
1, 90925, Note_on_c, 0, 63, 112
1, 91307, Note_off_c, 0, 63, 112
1, 91312, Note_on_c, 0, 61, 105
1, 91358, Note_off_c, 0, 61, 105
1, 91381, Note_on_c, 0, 63, 113
1, 91774, Note_off_c, 0, 63, 113
1, 91792, Note_on_c, 0, 58, 115
1, 91842, Note_off_c, 0, 58, 115
1, 91856, Note_on_c, 0, 60, 114
1, 91888, Note_off_c, 0, 60, 114
1, 91890, Note_on_c, 0, 63, 117
1, 91950, Note_off_c, 0, 63, 117
1, 91955, Note_on_c, 0, 61, 118
1, 91995, Note_off_c, 0, 61, 118
1, 91998, Note_on_c, 0, 60, 116
1, 92023, Note_off_c, 0, 60, 116
1, 92035, Note_on_c, 0, 63, 113
1, 92096, Note_off_c, 0, 63, 113
1, 92103, Note_on_c, 0, 66, 117
1, 92141, Note_off_c, 0, 66, 117
1, 92145, Note_on_c, 0, 67, 114
1, 92165, Note_off_c, 0, 67, 114
1, 92168, Note_on_c, 0, 70, 109
1, 92190, Note_off_c, 0, 70, 109
1, 92190, Note_on_c, 0, 75, 113
1, 92235, Note_off_c, 0, 75, 113
1, 92249, Note_on_c, 0, 72, 123
1, 92277, Note_off_c, 0, 72, 123
1, 92280, Note_on_c, 0, 73, 114
1, 92314, Note_off_c, 0, 73, 114
1, 92527, Note_on_c, 0, 63, 92
1, 92568, Note_off_c, 0, 63, 92
1, 92599, Note_on_c, 0, 60, 118
1, 92632, Note_off_c, 0, 60, 118
1, 92641, Note_on_c, 0, 62, 111
1, 92677, Note_off_c, 0, 62, 111
1, 92704, Note_on_c, 0, 63, 111
1, 92749, Note_off_c, 0, 63, 111
1, 92769, Note_on_c, 0, 58, 118
1, 92800, Note_off_c, 0, 58, 118
1, 92801, Note_on_c, 0, 60, 114
1, 92816, Note_off_c, 0, 60, 114
1, 92824, Note_on_c, 0, 62, 119
1, 92848, Note_off_c, 0, 62, 119
1, 92850, Note_on_c, 0, 63, 116
1, 92884, Note_off_c, 0, 63, 116
1, 92893, Note_on_c, 0, 66, 115
1, 92931, Note_off_c, 0, 66, 115
1, 92938, Note_on_c, 0, 67, 116
1, 92967, Note_off_c, 0, 67, 116
1, 92969, Note_on_c, 0, 70, 116
1, 92993, Note_off_c, 0, 70, 116
1, 92999, Note_on_c, 0, 67, 112
1, 93025, Note_off_c, 0, 67, 112
1, 93030, Note_on_c, 0, 72, 110
1, 93053, Note_off_c, 0, 72, 110
1, 93054, Note_on_c, 0, 74, 116
1, 93087, Note_off_c, 0, 74, 116
1, 93087, Note_on_c, 0, 73, 108
1, 93132, Note_off_c, 0, 73, 108
1, 93497, Note_on_c, 0, 58, 119
1, 93526, Note_off_c, 0, 58, 119
1, 93529, Note_on_c, 0, 60, 111
1, 93582, Note_off_c, 0, 60, 111
1, 93587, Note_on_c, 0, 61, 114
1, 93670, Note_off_c, 0, 61, 114
1, 93683, Note_on_c, 0, 60, 108
1, 93723, Note_off_c, 0, 60, 108
1, 93733, Note_on_c, 0, 58, 117
1, 93835, Note_off_c, 0, 58, 117
1, 93848, Note_on_c, 0, 60, 116
1, 93917, Note_off_c, 0, 60, 116
1, 93926, Note_on_c, 0, 58, 115
1, 93977, Note_off_c, 0, 58, 115
1, 93983, Note_on_c, 0, 64, 120
1, 94026, Note_off_c, 0, 64, 120
1, 94037, Note_on_c, 0, 65, 122
1, 94110, Note_on_c, 0, 68, 111
1, 94110, Note_off_c, 0, 65, 122
1, 94130, Note_off_c, 0, 68, 111
1, 94148, Note_on_c, 0, 71, 110
1, 94194, Note_off_c, 0, 71, 110
1, 94219, Note_on_c, 0, 70, 114
1, 94265, Note_off_c, 0, 70, 114
1, 94268, Note_on_c, 0, 72, 108
1, 94299, Note_off_c, 0, 72, 108
1, 94301, Note_on_c, 0, 77, 118
1, 94360, Note_off_c, 0, 77, 118
1, 94365, Note_on_c, 0, 72, 112
1, 94427, Note_off_c, 0, 72, 112
1, 94830, Note_on_c, 0, 57, 111
1, 94879, Note_off_c, 0, 57, 111
1, 94892, Note_on_c, 0, 60, 111
1, 94943, Note_off_c, 0, 60, 111
1, 94945, Note_on_c, 0, 57, 110
1, 94969, Note_off_c, 0, 57, 110
1, 94973, Note_on_c, 0, 58, 118
1, 95008, Note_off_c, 0, 58, 118
1, 95012, Note_on_c, 0, 55, 116
1, 95053, Note_off_c, 0, 55, 116
1, 95071, Note_on_c, 0, 53, 119
1, 95096, Note_off_c, 0, 53, 119
1, 95102, Note_on_c, 0, 52, 114
1, 95162, Note_off_c, 0, 52, 114
1, 95172, Note_on_c, 0, 53, 116
1, 95244, Note_off_c, 0, 53, 116
1, 95247, Note_on_c, 0, 52, 113
1, 95296, Note_off_c, 0, 52, 113
1, 95298, Note_on_c, 0, 53, 116
1, 95335, Note_off_c, 0, 53, 116
1, 95337, Note_on_c, 0, 55, 112
1, 95355, Note_off_c, 0, 55, 112
1, 95358, Note_on_c, 0, 61, 114
1, 95374, Note_off_c, 0, 61, 114
1, 95375, Note_on_c, 0, 60, 113
1, 95397, Note_off_c, 0, 60, 113
1, 95402, Note_on_c, 0, 71, 118
1, 95452, Note_off_c, 0, 71, 118
1, 95474, Note_on_c, 0, 71, 109
1, 95527, Note_off_c, 0, 71, 109
1, 95534, Note_on_c, 0, 63, 115
1, 95558, Note_off_c, 0, 63, 115
1, 95560, Note_on_c, 0, 62, 111
1, 95588, Note_off_c, 0, 62, 111
1, 95588, Note_on_c, 0, 65, 121
1, 95631, Note_off_c, 0, 65, 121
1, 95642, Note_on_c, 0, 72, 108
1, 95679, Note_off_c, 0, 72, 108
1, 95685, Note_on_c, 0, 73, 100
1, 95720, Note_off_c, 0, 73, 100
1, 95728, Note_on_c, 0, 65, 118
1, 95764, Note_off_c, 0, 65, 118
1, 95777, Note_on_c, 0, 72, 113
1, 95812, Note_off_c, 0, 72, 113
1, 95815, Note_on_c, 0, 74, 109
1, 95847, Note_off_c, 0, 74, 109
1, 95852, Note_on_c, 0, 78, 111
1, 95876, Note_off_c, 0, 78, 111
1, 95882, Note_on_c, 0, 77, 121
1, 95980, Note_off_c, 0, 77, 121
1, 96464, Note_on_c, 0, 75, 109
1, 96597, Note_off_c, 0, 75, 109
1, 97199, Note_on_c, 0, 86, 117
1, 97295, Note_off_c, 0, 86, 117
1, 97388, Note_on_c, 0, 86, 118
1, 97443, Note_off_c, 0, 86, 118
1, 97449, Note_on_c, 0, 87, 113
1, 97477, Note_off_c, 0, 87, 113
1, 97478, Note_on_c, 0, 86, 119
1, 97580, Note_off_c, 0, 86, 119
1, 98119, Note_on_c, 0, 81, 117
1, 98162, Note_off_c, 0, 81, 117
1, 98164, Note_on_c, 0, 82, 112
1, 98575, Note_off_c, 0, 82, 112
1, 98668, Note_on_c, 0, 79, 116
1, 98816, Note_off_c, 0, 79, 116
1, 98819, Note_on_c, 0, 80, 116
1, 98892, Note_off_c, 0, 80, 116
1, 98969, Note_on_c, 0, 66, 103
1, 99197, Note_off_c, 0, 66, 103
1, 99207, Note_on_c, 0, 79, 118
1, 99258, Note_off_c, 0, 79, 118
1, 99258, Note_on_c, 0, 75, 117
1, 99345, Note_off_c, 0, 75, 117
1, 99431, Note_on_c, 0, 73, 116
1, 99641, Note_off_c, 0, 73, 116
1, 99643, Note_on_c, 0, 72, 112
1, 99723, Note_off_c, 0, 72, 112
1, 99726, Note_on_c, 0, 71, 112
1, 99816, Note_off_c, 0, 71, 112
1, 99827, Note_on_c, 0, 70, 118
1, 99917, Note_off_c, 0, 70, 118
1, 99920, Note_on_c, 0, 68, 112
1, 100005, Note_off_c, 0, 68, 112
1, 100014, Note_on_c, 0, 63, 104
1, 100085, Note_off_c, 0, 63, 104
1, 100119, Note_on_c, 0, 60, 108
1, 100157, Note_off_c, 0, 60, 108
1, 100161, Note_on_c, 0, 65, 118
1, 100203, Note_off_c, 0, 65, 118
1, 100206, Note_on_c, 0, 67, 117
1, 100354, Note_off_c, 0, 67, 117
1, 100356, Note_on_c, 0, 70, 115
1, 100454, Note_off_c, 0, 70, 115
1, 100536, Note_on_c, 0, 63, 119
1, 100621, Note_off_c, 0, 63, 119
1, 101028, Note_on_c, 0, 60, 115
1, 101062, Note_off_c, 0, 60, 115
1, 101067, Note_on_c, 0, 61, 116
1, 101202, Note_off_c, 0, 61, 116
1, 101214, Note_on_c, 0, 63, 113
1, 101592, Note_off_c, 0, 63, 113
1, 101598, Note_on_c, 0, 58, 100
1, 101638, Note_off_c, 0, 58, 100
1, 101640, Note_on_c, 0, 61, 114
1, 101780, Note_off_c, 0, 61, 114
1, 101793, Note_on_c, 0, 63, 109
1, 101832, Note_off_c, 0, 63, 109
1, 101843, Note_on_c, 0, 66, 116
1, 101971, Note_off_c, 0, 66, 116
1, 101985, Note_on_c, 0, 63, 101
1, 102296, Note_off_c, 0, 63, 101
1, 102296, End_track
0, 0, End_of_file
