0, 0, Header, 1, 1, 192
1, 0, Start_track
1, 0, Title_t, "Melody"
1, 0, Tempo, 247933
1, 0, Key_signature, -3, "major"
1, 0, Time_signature, 4, 2, 24, 8
1, 3405, Note_on_c, 0, 81, 116
1, 3717, Note_off_c, 0, 81, 116
1, 3735, Note_on_c, 0, 82, 113
1, 4256, Note_off_c, 0, 82, 113
1, 4376, Note_on_c, 0, 81, 122
1, 4432, Note_off_c, 0, 81, 122
1, 4436, Note_on_c, 0, 82, 118
1, 4473, Note_off_c, 0, 82, 118
1, 4484, Note_on_c, 0, 81, 120
1, 4537, Note_off_c, 0, 81, 120
1, 4568, Note_on_c, 0, 80, 107
1, 4729, Note_off_c, 0, 80, 107
1, 4752, Note_on_c, 0, 79, 109
1, 4930, Note_off_c, 0, 79, 109
1, 4944, Note_on_c, 0, 78, 116
1, 5105, Note_off_c, 0, 78, 116
1, 5161, Note_on_c, 0, 77, 117
1, 5304, Note_off_c, 0, 77, 117
1, 5319, Note_on_c, 0, 75, 120
1, 5437, Note_off_c, 0, 75, 120
1, 5467, Note_on_c, 0, 72, 106
1, 5566, Note_off_c, 0, 72, 106
1, 5681, Note_on_c, 0, 72, 89
1, 6114, Note_off_c, 0, 72, 89
1, 6333, Note_on_c, 0, 70, 102
1, 6427, Note_off_c, 0, 70, 102
1, 6439, Note_on_c, 0, 72, 105
1, 6508, Note_off_c, 0, 72, 105
1, 6519, Note_on_c, 0, 75, 117
1, 6635, Note_off_c, 0, 75, 117
1, 6649, Note_on_c, 0, 77, 125
1, 6720, Note_off_c, 0, 77, 125
1, 6720, Note_on_c, 0, 78, 110
1, 6778, Note_off_c, 0, 78, 110
1, 6826, Note_on_c, 0, 75, 115
1, 6900, Note_off_c, 0, 75, 115
1, 6915, Note_on_c, 0, 77, 121
1, 7022, Note_off_c, 0, 77, 121
1, 7096, Note_on_c, 0, 77, 117
1, 7214, Note_off_c, 0, 77, 117
1, 7228, Note_on_c, 0, 75, 111
1, 7297, Note_off_c, 0, 75, 111
1, 7309, Note_on_c, 0, 72, 80
1, 7446, Note_off_c, 0, 72, 80
1, 7488, Note_on_c, 0, 75, 97
1, 7825, Note_off_c, 0, 75, 97
1, 8306, Note_on_c, 0, 72, 111
1, 8375, Note_off_c, 0, 72, 111
1, 8390, Note_on_c, 0, 75, 109
1, 8418, Note_off_c, 0, 75, 109
1, 8425, Note_on_c, 0, 79, 102
1, 8465, Note_off_c, 0, 79, 102
1, 8468, Note_on_c, 0, 84, 118
1, 8573, Note_off_c, 0, 84, 118
1, 8648, Note_on_c, 0, 79, 117
1, 8799, Note_off_c, 0, 79, 117
1, 8840, Note_on_c, 0, 82, 104
1, 9018, Note_off_c, 0, 82, 104
1, 9366, Note_on_c, 0, 66, 98
1, 9401, Note_off_c, 0, 66, 98
1, 9410, Note_on_c, 0, 68, 112
1, 9438, Note_off_c, 0, 68, 112
1, 9441, Note_on_c, 0, 70, 112
1, 9532, Note_off_c, 0, 70, 112
1, 9552, Note_on_c, 0, 75, 127
1, 9616, Note_off_c, 0, 75, 127
1, 9628, Note_on_c, 0, 79, 113
1, 9719, Note_off_c, 0, 79, 113
1, 9731, Note_on_c, 0, 82, 117
1, 9810, Note_off_c, 0, 82, 117
1, 9821, Note_on_c, 0, 81, 113
1, 9915, Note_off_c, 0, 81, 113
1, 9924, Note_on_c, 0, 82, 117
1, 9991, Note_off_c, 0, 82, 117
1, 10009, Note_on_c, 0, 80, 109
1, 10105, Note_off_c, 0, 80, 109
1, 10120, Note_on_c, 0, 82, 113
1, 10192, Note_off_c, 0, 82, 113
1, 10210, Note_on_c, 0, 79, 109
1, 10309, Note_off_c, 0, 79, 109
1, 10326, Note_on_c, 0, 82, 113
1, 10381, Note_off_c, 0, 82, 113
1, 10393, Note_on_c, 0, 78, 106
1, 10478, Note_off_c, 0, 78, 106
1, 10590, Note_on_c, 0, 77, 105
1, 10797, Note_off_c, 0, 77, 105
1, 10967, Note_on_c, 0, 73, 112
1, 11093, Note_off_c, 0, 73, 112
1, 11097, Note_on_c, 0, 74, 118
1, 11147, Note_off_c, 0, 74, 118
1, 11164, Note_on_c, 0, 79, 115
1, 11265, Note_off_c, 0, 79, 115
1, 11279, Note_on_c, 0, 76, 108
1, 11346, Note_off_c, 0, 76, 108
1, 11375, Note_on_c, 0, 77, 118
1, 11468, Note_off_c, 0, 77, 118
1, 11475, Note_on_c, 0, 74, 110
1, 11525, Note_off_c, 0, 74, 110
1, 11548, Note_on_c, 0, 70, 106
1, 11630, Note_off_c, 0, 70, 106
1, 11653, Note_on_c, 0, 68, 108
1, 11733, Note_off_c, 0, 68, 108
1, 11759, Note_on_c, 0, 65, 107
1, 11844, Note_off_c, 0, 65, 107
1, 11869, Note_on_c, 0, 62, 92
1, 11946, Note_off_c, 0, 62, 92
1, 12070, Note_on_c, 0, 62, 89
1, 12243, Note_off_c, 0, 62, 89
1, 12694, Note_on_c, 0, 73, 121
1, 12796, Note_off_c, 0, 73, 121
1, 12811, Note_on_c, 0, 74, 112
1, 12852, Note_off_c, 0, 74, 112
1, 12878, Note_on_c, 0, 77, 119
1, 12987, Note_off_c, 0, 77, 119
1, 13010, Note_on_c, 0, 74, 109
1, 13049, Note_off_c, 0, 74, 109
1, 13075, Note_on_c, 0, 79, 116
1, 13180, Note_off_c, 0, 79, 116
1, 13198, Note_on_c, 0, 76, 111
1, 13258, Note_off_c, 0, 76, 111
1, 13264, Note_on_c, 0, 77, 123
1, 13365, Note_off_c, 0, 77, 123
1, 13382, Note_on_c, 0, 75, 107
1, 13430, Note_off_c, 0, 75, 107
1, 13447, Note_on_c, 0, 72, 111
1, 13554, Note_off_c, 0, 72, 111
1, 13579, Note_on_c, 0, 70, 94
1, 13631, Note_off_c, 0, 70, 94
1, 13661, Note_on_c, 0, 75, 103
1, 13841, Note_off_c, 0, 75, 103
1, 13861, Note_on_c, 0, 72, 105
1, 13919, Note_off_c, 0, 72, 105
1, 14067, Note_on_c, 0, 75, 118
1, 14161, Note_off_c, 0, 75, 118
1, 14354, Note_on_c, 0, 78, 123
1, 14447, Note_off_c, 0, 78, 123
1, 14454, Note_on_c, 0, 77, 103
1, 14528, Note_off_c, 0, 77, 103
1, 14554, Note_on_c, 0, 75, 113
1, 14612, Note_off_c, 0, 75, 113
1, 14637, Note_on_c, 0, 72, 106
1, 14742, Note_off_c, 0, 72, 106
1, 14835, Note_on_c, 0, 75, 107
1, 15016, Note_off_c, 0, 75, 107
1, 15137, Note_on_c, 0, 72, 96
1, 15421, Note_off_c, 0, 72, 96
1, 15781, Note_on_c, 0, 79, 121
1, 15915, Note_off_c, 0, 79, 121
1, 15959, Note_on_c, 0, 79, 118
1, 16064, Note_off_c, 0, 79, 118
1, 16105, Note_on_c, 0, 79, 115
1, 16223, Note_off_c, 0, 79, 115
1, 16284, Note_on_c, 0, 76, 115
1, 16356, Note_off_c, 0, 76, 115
1, 16384, Note_on_c, 0, 79, 99
1, 16662, Note_off_c, 0, 79, 99
1, 17078, Note_on_c, 0, 64, 100
1, 17128, Note_off_c, 0, 64, 100
1, 17131, Note_on_c, 0, 70, 118
1, 17203, Note_off_c, 0, 70, 118
1, 17228, Note_on_c, 0, 72, 116
1, 17284, Note_off_c, 0, 72, 116
1, 17320, Note_on_c, 0, 76, 115
1, 17406, Note_off_c, 0, 76, 115
1, 17426, Note_on_c, 0, 79, 118
1, 17489, Note_off_c, 0, 79, 118
1, 17509, Note_on_c, 0, 83, 116
1, 17581, Note_off_c, 0, 83, 116
1, 17600, Note_on_c, 0, 84, 120
1, 17669, Note_off_c, 0, 84, 120
1, 17680, Note_on_c, 0, 82, 115
1, 17777, Note_off_c, 0, 82, 115
1, 17807, Note_on_c, 0, 79, 113
1, 17859, Note_off_c, 0, 79, 113
1, 17898, Note_on_c, 0, 76, 108
1, 17961, Note_off_c, 0, 76, 108
1, 17978, Note_on_c, 0, 72, 99
1, 18026, Note_off_c, 0, 72, 99
1, 18051, Note_on_c, 0, 79, 113
1, 18147, Note_off_c, 0, 79, 113
1, 18158, Note_on_c, 0, 82, 113
1, 18229, Note_off_c, 0, 82, 113
1, 18244, Note_on_c, 0, 80, 111
1, 18372, Note_off_c, 0, 80, 111
1, 18398, Note_on_c, 0, 79, 109
1, 18491, Note_off_c, 0, 79, 109
1, 18514, Note_on_c, 0, 77, 113
1, 18594, Note_off_c, 0, 77, 113
1, 18619, Note_on_c, 0, 76, 119
1, 18767, Note_off_c, 0, 76, 119
1, 18901, Note_on_c, 0, 79, 101
1, 19183, Note_off_c, 0, 79, 101
1, 19555, Note_on_c, 0, 79, 116
1, 19671, Note_off_c, 0, 79, 116
1, 19680, Note_on_c, 0, 80, 112
1, 19736, Note_off_c, 0, 80, 112
1, 19759, Note_on_c, 0, 82, 118
1, 19834, Note_off_c, 0, 82, 118
1, 19854, Note_on_c, 0, 80, 113
1, 19936, Note_off_c, 0, 80, 113
1, 19943, Note_on_c, 0, 79, 110
1, 20044, Note_off_c, 0, 79, 110
1, 20069, Note_on_c, 0, 77, 109
1, 20129, Note_off_c, 0, 77, 109
1, 20149, Note_on_c, 0, 80, 115
1, 20258, Note_off_c, 0, 80, 115
1, 20267, Note_on_c, 0, 79, 112
1, 20327, Note_off_c, 0, 79, 112
1, 20349, Note_on_c, 0, 77, 111
1, 20432, Note_off_c, 0, 77, 111
1, 20444, Note_on_c, 0, 76, 118
1, 20529, Note_off_c, 0, 76, 118
1, 20538, Note_on_c, 0, 79, 115
1, 20631, Note_off_c, 0, 79, 115
1, 20645, Note_on_c, 0, 77, 115
1, 20719, Note_off_c, 0, 77, 115
1, 20737, Note_on_c, 0, 76, 111
1, 20833, Note_off_c, 0, 76, 111
1, 20842, Note_on_c, 0, 77, 111
1, 20902, Note_off_c, 0, 77, 111
1, 20916, Note_on_c, 0, 79, 113
1, 21021, Note_off_c, 0, 79, 113
1, 21035, Note_on_c, 0, 77, 110
1, 21109, Note_off_c, 0, 77, 110
1, 21124, Note_on_c, 0, 80, 115
1, 21201, Note_off_c, 0, 80, 115
1, 21223, Note_on_c, 0, 77, 111
1, 21297, Note_off_c, 0, 77, 111
1, 21320, Note_on_c, 0, 75, 117
1, 21389, Note_off_c, 0, 75, 117
1, 21398, Note_on_c, 0, 71, 108
1, 21450, Note_off_c, 0, 71, 108
1, 21470, Note_on_c, 0, 68, 108
1, 21561, Note_off_c, 0, 68, 108
1, 21673, Note_on_c, 0, 75, 118
1, 21982, Note_off_c, 0, 75, 118
1, 21994, Note_on_c, 0, 77, 99
1, 22460, Note_off_c, 0, 77, 99
1, 22840, Note_on_c, 0, 75, 120
1, 22887, Note_off_c, 0, 75, 120
1, 22904, Note_on_c, 0, 78, 108
1, 22932, Note_off_c, 0, 78, 108
1, 22943, Note_on_c, 0, 75, 119
1, 22998, Note_off_c, 0, 75, 119
1, 23013, Note_on_c, 0, 74, 119
1, 23123, Note_off_c, 0, 74, 119
1, 23217, Note_on_c, 0, 75, 117
1, 23354, Note_off_c, 0, 75, 117
1, 23385, Note_on_c, 0, 72, 109
1, 23478, Note_off_c, 0, 72, 109
1, 23573, Note_on_c, 0, 74, 120
1, 23707, Note_off_c, 0, 74, 120
1, 23921, Note_on_c, 0, 74, 110
1, 24052, Note_off_c, 0, 74, 110
1, 24200, Note_on_c, 0, 72, 93
1, 24647, Note_off_c, 0, 72, 93
1, 24757, Note_on_c, 0, 72, 110
1, 24821, Note_off_c, 0, 72, 110
1, 24843, Note_on_c, 0, 74, 117
1, 24922, Note_off_c, 0, 74, 117
1, 24937, Note_on_c, 0, 79, 116
1, 25014, Note_off_c, 0, 79, 116
1, 25042, Note_on_c, 0, 82, 114
1, 25087, Note_off_c, 0, 82, 114
1, 25104, Note_on_c, 0, 86, 116
1, 25194, Note_off_c, 0, 86, 116
1, 25206, Note_on_c, 0, 84, 111
1, 25264, Note_off_c, 0, 84, 111
1, 25282, Note_on_c, 0, 82, 111
1, 25364, Note_off_c, 0, 82, 111
1, 25384, Note_on_c, 0, 79, 104
1, 25463, Note_off_c, 0, 79, 104
1, 25492, Note_on_c, 0, 72, 94
1, 25793, Note_off_c, 0, 72, 94
1, 26045, Note_on_c, 0, 72, 113
1, 26128, Note_off_c, 0, 72, 113
1, 26145, Note_on_c, 0, 75, 116
1, 26212, Note_off_c, 0, 75, 116
1, 26232, Note_on_c, 0, 79, 119
1, 26329, Note_off_c, 0, 79, 119
1, 26335, Note_on_c, 0, 82, 115
1, 26412, Note_off_c, 0, 82, 115
1, 26426, Note_on_c, 0, 80, 115
1, 26501, Note_off_c, 0, 80, 115
1, 26526, Note_on_c, 0, 77, 110
1, 26590, Note_off_c, 0, 77, 110
1, 26611, Note_on_c, 0, 74, 105
1, 26800, Note_off_c, 0, 74, 105
1, 26806, Note_on_c, 0, 79, 119
1, 26886, Note_off_c, 0, 79, 119
1, 26909, Note_on_c, 0, 75, 107
1, 26976, Note_off_c, 0, 75, 107
1, 26990, Note_on_c, 0, 77, 112
1, 27089, Note_off_c, 0, 77, 112
1, 27107, Note_on_c, 0, 75, 118
1, 27178, Note_off_c, 0, 75, 118
1, 27195, Note_on_c, 0, 77, 108
1, 27297, Note_off_c, 0, 77, 108
1, 27317, Note_on_c, 0, 75, 95
1, 27364, Note_off_c, 0, 75, 95
1, 27376, Note_on_c, 0, 77, 113
1, 27485, Note_off_c, 0, 77, 113
1, 27496, Note_on_c, 0, 75, 118
1, 27557, Note_off_c, 0, 75, 118
1, 27568, Note_on_c, 0, 72, 105
1, 27661, Note_off_c, 0, 72, 105
1, 27685, Note_on_c, 0, 70, 90
1, 27735, Note_off_c, 0, 70, 90
1, 27753, Note_on_c, 0, 75, 92
1, 27993, Note_off_c, 0, 75, 92
1, 28058, Note_on_c, 0, 66, 102
1, 28105, Note_off_c, 0, 66, 102
1, 28116, Note_on_c, 0, 70, 109
1, 28158, Note_off_c, 0, 70, 109
1, 28162, Note_on_c, 0, 71, 107
1, 28227, Note_off_c, 0, 71, 107
1, 28233, Note_on_c, 0, 72, 116
1, 28325, Note_off_c, 0, 72, 116
1, 28332, Note_on_c, 0, 71, 99
1, 28424, Note_off_c, 0, 71, 99
1, 28426, Note_on_c, 0, 72, 110
1, 28502, Note_off_c, 0, 72, 110
1, 28517, Note_on_c, 0, 70, 89
1, 28886, Note_off_c, 0, 70, 89
1, 28886, End_track
0, 0, End_of_file
