0, 0, Header, 1, 1, 18480
1, 0, Start_track
1, 0, Title_t, "Melody"
1, 0, Tempo, 882352
1, 0, Key_signature, -5, "major"
1, 0, Time_signature, 4, 2, 24, 8
1, 2917, Note_on_c, 0, 55, 113
1, 17749, Note_off_c, 0, 55, 113
1, 18478, Note_on_c, 0, 56, 99
1, 42793, Note_off_c, 0, 56, 99
1, 42793, Note_on_c, 0, 67, 81
1, 45346, Note_off_c, 0, 67, 81
1, 45710, Note_on_c, 0, 70, 94
1, 56165, Note_off_c, 0, 70, 94
1, 56165, Note_on_c, 0, 68, 73
1, 97258, Note_off_c, 0, 68, 73
1, 109051, Note_on_c, 0, 53, 92
1, 114278, Note_off_c, 0, 53, 92
1, 114399, Note_on_c, 0, 54, 92
1, 118654, Note_off_c, 0, 54, 92
1, 118654, Note_on_c, 0, 57, 86
1, 122787, Note_on_c, 0, 60, 81
1, 122787, Note_off_c, 0, 57, 86
1, 128744, Note_off_c, 0, 60, 81
1, 128744, Note_on_c, 0, 63, 89
1, 134701, Note_off_c, 0, 63, 89
1, 134822, Note_on_c, 0, 60, 82
1, 139320, Note_off_c, 0, 60, 82
1, 139563, Note_on_c, 0, 61, 71
1, 163392, Note_off_c, 0, 61, 71
1, 191818, Note_on_c, 0, 63, 104
1, 196263, Note_off_c, 0, 63, 104
1, 196604, Note_on_c, 0, 65, 84
1, 229259, Note_off_c, 0, 65, 84
1, 229259, Note_on_c, 0, 61, 91
1, 233875, Note_off_c, 0, 61, 91
1, 233875, Note_on_c, 0, 58, 101
1, 240542, Note_on_c, 0, 64, 94
1, 240542, Note_off_c, 0, 58, 101
1, 243790, Note_off_c, 0, 64, 94
1, 244131, Note_on_c, 0, 65, 78
1, 307048, Note_off_c, 0, 65, 78
1, 323803, Note_on_c, 0, 56, 104
1, 328419, Note_off_c, 0, 56, 104
1, 328419, Note_on_c, 0, 58, 109
1, 334813, Note_on_c, 0, 61, 81
1, 334813, Note_off_c, 0, 58, 109
1, 339311, Note_off_c, 0, 61, 81
1, 339432, Note_on_c, 0, 63, 92
1, 344903, Note_off_c, 0, 63, 92
1, 345510, Note_on_c, 0, 65, 86
1, 351710, Note_on_c, 0, 61, 73
1, 351710, Note_off_c, 0, 65, 86
1, 373472, Note_off_c, 0, 61, 73
1, 373472, Note_on_c, 0, 63, 93
1, 381374, Note_off_c, 0, 63, 93
1, 381374, Note_on_c, 0, 65, 102
1, 389155, Note_off_c, 0, 65, 102
1, 389276, Note_on_c, 0, 68, 89
1, 441798, Note_off_c, 0, 68, 89
1, 442041, Note_on_c, 0, 61, 87
1, 446661, Note_off_c, 0, 61, 87
1, 446782, Note_on_c, 0, 63, 90
1, 450307, Note_on_c, 0, 58, 91
1, 450307, Note_off_c, 0, 63, 90
1, 455272, Note_off_c, 0, 58, 91
1, 455272, Note_on_c, 0, 61, 73
1, 475275, Note_off_c, 0, 61, 73
1, 509127, Note_on_c, 0, 71, 111
1, 512033, Note_off_c, 0, 71, 111
1, 512374, Note_on_c, 0, 73, 125
1, 516306, Note_off_c, 0, 73, 125
1, 516306, Note_on_c, 0, 68, 113
1, 520751, Note_off_c, 0, 68, 113
1, 520921, Note_on_c, 0, 65, 100
1, 525024, Note_off_c, 0, 65, 100
1, 525024, Note_on_c, 0, 60, 100
1, 528272, Note_on_c, 0, 61, 82
1, 528272, Note_off_c, 0, 60, 100
1, 537846, Note_off_c, 0, 61, 82
1, 537846, Note_on_c, 0, 58, 91
1, 544684, Note_off_c, 0, 58, 91
1, 546222, Note_on_c, 0, 66, 88
1, 549470, Note_off_c, 0, 66, 88
1, 549470, Note_on_c, 0, 61, 83
1, 553402, Note_off_c, 0, 61, 83
1, 553402, Note_on_c, 0, 58, 88
1, 558531, Note_off_c, 0, 58, 88
1, 558531, Note_on_c, 0, 54, 87
1, 563853, Note_off_c, 0, 54, 87
1, 563853, Note_on_c, 0, 53, 96
1, 569080, Note_off_c, 0, 53, 96
1, 569080, Note_on_c, 0, 56, 92
1, 572970, Note_off_c, 0, 56, 92
1, 572970, Note_on_c, 0, 52, 92
1, 578076, Note_off_c, 0, 52, 92
1, 578076, Note_on_c, 0, 56, 89
1, 582696, Note_off_c, 0, 56, 89
1, 582696, Note_on_c, 0, 51, 82
1, 596556, Note_off_c, 0, 51, 82
1, 619534, Note_on_c, 0, 55, 107
1, 626828, Note_off_c, 0, 55, 107
1, 626949, Note_on_c, 0, 56, 102
1, 630961, Note_off_c, 0, 56, 102
1, 630961, Note_on_c, 0, 60, 91
1, 635581, Note_off_c, 0, 60, 91
1, 635581, Note_on_c, 0, 61, 94
1, 639228, Note_off_c, 0, 61, 94
1, 639908, Note_on_c, 0, 67, 97
1, 642267, Note_off_c, 0, 67, 97
1, 642267, Note_on_c, 0, 69, 97
1, 645184, Note_off_c, 0, 69, 97
1, 646399, Note_on_c, 0, 68, 90
1, 651189, Note_off_c, 0, 68, 90
1, 651189, Note_on_c, 0, 65, 84
1, 655377, Note_off_c, 0, 65, 84
1, 655377, Note_on_c, 0, 60, 70
1, 669482, Note_off_c, 0, 60, 70
1, 688038, Note_on_c, 0, 58, 78
1, 690469, Note_off_c, 0, 58, 78
1, 690469, Note_on_c, 0, 59, 92
1, 691867, Note_off_c, 0, 59, 92
1, 691867, Note_on_c, 0, 60, 92
1, 693447, Note_off_c, 0, 60, 92
1, 693447, Note_on_c, 0, 63, 94
1, 695392, Note_off_c, 0, 63, 94
1, 695392, Note_on_c, 0, 65, 110
1, 699768, Note_off_c, 0, 65, 110
1, 700011, Note_on_c, 0, 66, 104
1, 704083, Note_off_c, 0, 66, 104
1, 704265, Note_on_c, 0, 72, 100
1, 708094, Note_off_c, 0, 72, 100
1, 708094, Note_on_c, 0, 69, 101
1, 712592, Note_off_c, 0, 69, 101
1, 712713, Note_on_c, 0, 70, 82
1, 716421, Note_off_c, 0, 70, 82
1, 716421, Note_on_c, 0, 65, 75
1, 722317, Note_off_c, 0, 65, 75
1, 722377, Note_on_c, 0, 61, 67
1, 724747, Note_off_c, 0, 61, 67
1, 724747, Note_on_c, 0, 58, 85
1, 728698, Note_off_c, 0, 58, 85
1, 728819, Note_on_c, 0, 56, 86
1, 730156, Note_off_c, 0, 56, 86
1, 730216, Note_on_c, 0, 57, 86
1, 731674, Note_off_c, 0, 57, 86
1, 731917, Note_on_c, 0, 56, 84
1, 733375, Note_off_c, 0, 56, 84
1, 733375, Note_on_c, 0, 54, 79
1, 737630, Note_on_c, 0, 63, 86
1, 737630, Note_off_c, 0, 54, 79
1, 738785, Note_off_c, 0, 63, 86
1, 738785, Note_on_c, 0, 65, 79
1, 742432, Note_off_c, 0, 65, 79
1, 742432, Note_on_c, 0, 61, 76
1, 745897, Note_off_c, 0, 61, 76
1, 745897, Note_on_c, 0, 55, 79
1, 752887, Note_off_c, 0, 55, 79
1, 752887, Note_on_c, 0, 63, 89
1, 754589, Note_off_c, 0, 63, 89
1, 754589, Note_on_c, 0, 65, 81
1, 758114, Note_off_c, 0, 65, 81
1, 758114, Note_on_c, 0, 64, 79
1, 759451, Note_off_c, 0, 64, 79
1, 759511, Note_on_c, 0, 61, 85
1, 760179, Note_off_c, 0, 61, 85
1, 760179, Note_on_c, 0, 59, 90
1, 761151, Note_off_c, 0, 59, 90
1, 761151, Note_on_c, 0, 55, 85
1, 765710, Note_off_c, 0, 55, 85
1, 765892, Note_on_c, 0, 56, 89
1, 770512, Note_off_c, 0, 56, 89
1, 770512, Note_on_c, 0, 65, 76
1, 775922, Note_off_c, 0, 65, 76
1, 776408, Note_on_c, 0, 63, 79
1, 776833, Note_off_c, 0, 63, 79
1, 776833, Note_on_c, 0, 61, 81
1, 777866, Note_off_c, 0, 61, 81
1, 778048, Note_on_c, 0, 59, 88
1, 780114, Note_off_c, 0, 59, 88
1, 780114, Note_on_c, 0, 56, 89
1, 783457, Note_off_c, 0, 56, 89
1, 783457, Note_on_c, 0, 57, 81
1, 789171, Note_off_c, 0, 57, 81
1, 789171, Note_on_c, 0, 63, 91
1, 791116, Note_off_c, 0, 63, 91
1, 791176, Note_on_c, 0, 65, 82
1, 795492, Note_off_c, 0, 65, 82
1, 795492, Note_on_c, 0, 63, 78
1, 796282, Note_on_c, 0, 59, 83
1, 796282, Note_off_c, 0, 63, 78
1, 797254, Note_off_c, 0, 59, 83
1, 797436, Note_on_c, 0, 58, 92
1, 798226, Note_off_c, 0, 58, 92
1, 798651, Note_on_c, 0, 57, 84
1, 802176, Note_off_c, 0, 57, 84
1, 802479, Note_on_c, 0, 58, 76
1, 814150, Note_off_c, 0, 58, 76
1, 835126, Note_on_c, 0, 60, 106
1, 840255, Note_off_c, 0, 60, 106
1, 840682, Note_on_c, 0, 61, 107
1, 846067, Note_on_c, 0, 65, 108
1, 846067, Note_off_c, 0, 61, 107
1, 851025, Note_off_c, 0, 65, 108
1, 851025, Note_on_c, 0, 69, 114
1, 857179, Note_off_c, 0, 69, 114
1, 857179, Note_on_c, 0, 70, 111
1, 857520, Note_off_c, 0, 70, 111
1, 857605, Note_on_c, 0, 71, 114
1, 859998, Note_off_c, 0, 71, 114
1, 860168, Note_on_c, 0, 72, 113
1, 864100, Note_off_c, 0, 72, 113
1, 864100, Note_on_c, 0, 70, 101
1, 867946, Note_off_c, 0, 70, 101
1, 867946, Note_on_c, 0, 65, 84
1, 872391, Note_off_c, 0, 65, 84
1, 872391, Note_on_c, 0, 61, 76
1, 876408, Note_off_c, 0, 61, 76
1, 876451, Note_on_c, 0, 67, 88
1, 878213, Note_off_c, 0, 67, 88
1, 878273, Note_on_c, 0, 69, 87
1, 879124, Note_off_c, 0, 69, 87
1, 879245, Note_on_c, 0, 67, 87
1, 881068, Note_off_c, 0, 67, 87
1, 881068, Note_on_c, 0, 65, 81
1, 884350, Note_off_c, 0, 65, 81
1, 885140, Note_on_c, 0, 61, 76
1, 888422, Note_off_c, 0, 61, 76
1, 888422, Note_on_c, 0, 55, 87
1, 893467, Note_off_c, 0, 55, 87
1, 893527, Note_on_c, 0, 54, 95
1, 899909, Note_on_c, 0, 60, 78
1, 899909, Note_off_c, 0, 54, 95
1, 900881, Note_off_c, 0, 60, 78
1, 901245, Note_on_c, 0, 63, 77
1, 905986, Note_off_c, 0, 63, 77
1, 906107, Note_on_c, 0, 58, 78
1, 911638, Note_off_c, 0, 58, 78
1, 911638, Note_on_c, 0, 65, 70
1, 916987, Note_off_c, 0, 65, 70
1, 916987, Note_on_c, 0, 63, 69
1, 926105, Note_off_c, 0, 63, 69
1, 952734, Note_on_c, 0, 58, 95
1, 958687, Note_off_c, 0, 58, 95
1, 958687, Note_on_c, 0, 61, 79
1, 962091, Note_off_c, 0, 61, 79
1, 962091, Note_on_c, 0, 65, 98
1, 966893, Note_off_c, 0, 65, 98
1, 967683, Note_on_c, 0, 68, 112
1, 972181, Note_on_c, 0, 66, 96
1, 972181, Note_off_c, 0, 68, 112
1, 976375, Note_off_c, 0, 66, 96
1, 976435, Note_on_c, 0, 65, 75
1, 980690, Note_off_c, 0, 65, 75
1, 980690, Note_on_c, 0, 63, 89
1, 985066, Note_off_c, 0, 63, 89
1, 985066, Note_on_c, 0, 62, 89
1, 989078, Note_off_c, 0, 62, 89
1, 989078, Note_on_c, 0, 59, 90
1, 993515, Note_off_c, 0, 59, 90
1, 993758, Note_on_c, 0, 58, 86
1, 998013, Note_off_c, 0, 58, 86
1, 998013, Note_on_c, 0, 56, 97
1, 1002511, Note_on_c, 0, 55, 93
1, 1002511, Note_off_c, 0, 56, 97
1, 1008103, Note_off_c, 0, 55, 93
1, 1008103, Note_on_c, 0, 58, 82
1, 1011081, Note_off_c, 0, 58, 82
1, 1011263, Note_on_c, 0, 61, 88
1, 1015579, Note_off_c, 0, 61, 88
1, 1016308, Note_on_c, 0, 62, 83
1, 1017341, Note_off_c, 0, 62, 83
1, 1017827, Note_on_c, 0, 64, 88
1, 1024392, Note_off_c, 0, 64, 88
1, 1025547, Note_on_c, 0, 56, 89
1, 1029012, Note_off_c, 0, 56, 89
1, 1029012, Note_on_c, 0, 58, 84
1, 1035273, Note_off_c, 0, 58, 84
1, 1035273, Note_on_c, 0, 61, 67
1, 1052537, Note_off_c, 0, 61, 67
1, 1080183, Note_on_c, 0, 66, 103
1, 1081465, Note_off_c, 0, 66, 103
1, 1081465, Note_on_c, 0, 68, 99
1, 1084969, Note_off_c, 0, 68, 99
1, 1084969, Note_on_c, 0, 66, 81
1, 1090012, Note_off_c, 0, 66, 81
1, 1090012, Note_on_c, 0, 65, 85
1, 1094542, Note_off_c, 0, 65, 85
1, 1094542, Note_on_c, 0, 63, 89
1, 1096251, Note_off_c, 0, 63, 89
1, 1096421, Note_on_c, 0, 64, 88
1, 1099413, Note_off_c, 0, 64, 88
1, 1099413, Note_on_c, 0, 63, 87
1, 1102832, Note_off_c, 0, 63, 87
1, 1102832, Note_on_c, 0, 61, 82
1, 1107277, Note_off_c, 0, 61, 82
1, 1107277, Note_on_c, 0, 57, 91
1, 1111636, Note_off_c, 0, 57, 91
1, 1111721, Note_on_c, 0, 56, 83
1, 1121038, Note_off_c, 0, 56, 83
1, 1121379, Note_on_c, 0, 58, 90
1, 1126679, Note_off_c, 0, 58, 90
1, 1129756, Note_on_c, 0, 61, 65
1, 1139501, Note_off_c, 0, 61, 65
1, 1152891, Note_on_c, 0, 58, 94
1, 1157328, Note_off_c, 0, 58, 94
1, 1157753, Note_on_c, 0, 59, 85
1, 1158968, Note_off_c, 0, 59, 85
1, 1159150, Note_on_c, 0, 60, 76
1, 1160365, Note_off_c, 0, 60, 76
1, 1160365, Note_on_c, 0, 63, 81
1, 1162249, Note_off_c, 0, 63, 81
1, 1162370, Note_on_c, 0, 66, 94
1, 1165652, Note_off_c, 0, 66, 94
1, 1167475, Note_on_c, 0, 69, 108
1, 1169602, Note_off_c, 0, 69, 108
1, 1169905, Note_on_c, 0, 70, 101
1, 1172762, Note_off_c, 0, 70, 101
1, 1172822, Note_on_c, 0, 69, 99
1, 1177016, Note_off_c, 0, 69, 99
1, 1177198, Note_on_c, 0, 68, 70
1, 1180723, Note_off_c, 0, 68, 70
1, 1180783, Note_on_c, 0, 67, 95
1, 1184673, Note_off_c, 0, 67, 95
1, 1184916, Note_on_c, 0, 66, 70
1, 1195858, Note_off_c, 0, 66, 70
1, 1225888, Note_on_c, 0, 63, 111
1, 1232453, Note_off_c, 0, 63, 111
1, 1232453, Note_on_c, 0, 65, 110
1, 1238410, Note_off_c, 0, 65, 110
1, 1238531, Note_on_c, 0, 68, 94
1, 1243880, Note_off_c, 0, 68, 94
1, 1244731, Note_on_c, 0, 70, 104
1, 1246311, Note_off_c, 0, 70, 104
1, 1246554, Note_on_c, 0, 68, 103
1, 1248134, Note_off_c, 0, 68, 103
1, 1248134, Note_on_c, 0, 66, 81
1, 1251538, Note_off_c, 0, 66, 81
1, 1252267, Note_on_c, 0, 68, 105
1, 1254212, Note_off_c, 0, 68, 105
1, 1254698, Note_on_c, 0, 70, 10
1, 1256035, Note_off_c, 0, 70, 10
1, 1256035, Note_on_c, 0, 68, 10
1, 1258588, Note_off_c, 0, 68, 10
1, 1259074, Note_on_c, 0, 66, 84
1, 1260897, Note_on_c, 0, 65, 86
1, 1260897, Note_off_c, 0, 66, 84
1, 1267827, Note_off_c, 0, 65, 86
1, 1267827, Note_on_c, 0, 63, 75
1, 1298100, Note_off_c, 0, 63, 75
1, 1341625, Note_on_c, 0, 58, 94
1, 1346852, Note_on_c, 0, 61, 117
1, 1346852, Note_off_c, 0, 58, 94
1, 1353052, Note_off_c, 0, 61, 117
1, 1353416, Note_on_c, 0, 63, 90
1, 1357671, Note_off_c, 0, 63, 90
1, 1357671, Note_on_c, 0, 65, 114
1, 1362655, Note_off_c, 0, 65, 114
1, 1362776, Note_on_c, 0, 66, 93
1, 1366180, Note_off_c, 0, 66, 93
1, 1367274, Note_on_c, 0, 68, 124
1, 1372380, Note_off_c, 0, 68, 124
1, 1372380, Note_on_c, 0, 66, 97
1, 1376027, Note_off_c, 0, 66, 97
1, 1376027, Note_on_c, 0, 73, 122
1, 1380768, Note_off_c, 0, 73, 122
1, 1380889, Note_on_c, 0, 69, 111
1, 1385387, Note_off_c, 0, 69, 111
1, 1385387, Note_on_c, 0, 68, 80
1, 1386238, Note_off_c, 0, 68, 80
1, 1386238, Note_on_c, 0, 70, 83
1, 1388061, Note_off_c, 0, 70, 83
1, 1388182, Note_on_c, 0, 68, 87
1, 1389276, Note_off_c, 0, 68, 87
1, 1389397, Note_on_c, 0, 66, 94
1, 1392801, Note_off_c, 0, 66, 94
1, 1392801, Note_on_c, 0, 61, 100
1, 1397542, Note_off_c, 0, 61, 100
1, 1397542, Note_on_c, 0, 57, 93
1, 1401432, Note_off_c, 0, 57, 93
1, 1401432, Note_on_c, 0, 59, 95
1, 1406416, Note_off_c, 0, 59, 95
1, 1406537, Note_on_c, 0, 66, 86
1, 1411521, Note_off_c, 0, 66, 86
1, 1411642, Note_on_c, 0, 65, 89
1, 1415046, Note_off_c, 0, 65, 89
1, 1415046, Note_on_c, 0, 63, 87
1, 1419422, Note_off_c, 0, 63, 87
1, 1419422, Note_on_c, 0, 54, 81
1, 1455895, Note_off_c, 0, 54, 81
1, 1488721, Note_on_c, 0, 57, 89
1, 1492854, Note_off_c, 0, 57, 89
1, 1494069, Note_on_c, 0, 60, 112
1, 1502579, Note_off_c, 0, 60, 112
1, 1505010, Note_on_c, 0, 61, 103
1, 1512791, Note_off_c, 0, 61, 103
1, 1515222, Note_on_c, 0, 60, 85
1, 1520814, Note_off_c, 0, 60, 85
1, 1520814, Note_on_c, 0, 61, 91
1, 1525190, Note_off_c, 0, 61, 91
1, 1525190, Note_on_c, 0, 60, 71
1, 1529810, Note_off_c, 0, 60, 71
1, 1530053, Note_on_c, 0, 61, 95
1, 1533457, Note_off_c, 0, 61, 95
1, 1533457, Note_on_c, 0, 60, 81
1, 1536861, Note_off_c, 0, 60, 81
1, 1537833, Note_on_c, 0, 61, 94
1, 1541966, Note_off_c, 0, 61, 94
1, 1541966, Note_on_c, 0, 64, 97
1, 1545613, Note_off_c, 0, 64, 97
1, 1545613, Note_on_c, 0, 65, 104
1, 1548774, Note_off_c, 0, 65, 104
1, 1549704, Note_on_c, 0, 68, 117
1, 1552952, Note_off_c, 0, 68, 117
1, 1553293, Note_on_c, 0, 71, 108
1, 1556199, Note_off_c, 0, 71, 108
1, 1556199, Note_on_c, 0, 72, 98
1, 1559105, Note_off_c, 0, 72, 98
1, 1559788, Note_on_c, 0, 68, 105
1, 1563207, Note_off_c, 0, 68, 105
1, 1563719, Note_on_c, 0, 63, 93
1, 1567309, Note_on_c, 0, 60, 87
1, 1567309, Note_off_c, 0, 63, 93
1, 1571925, Note_off_c, 0, 60, 87
1, 1571925, Note_on_c, 0, 68, 96
1, 1573805, Note_off_c, 0, 68, 96
1, 1573805, Note_on_c, 0, 70, 83
1, 1577737, Note_on_c, 0, 68, 89
1, 1577737, Note_off_c, 0, 70, 83
1, 1582011, Note_off_c, 0, 68, 89
1, 1582011, Note_on_c, 0, 62, 77
1, 1589704, Note_off_c, 0, 62, 77
1, 1609798, Note_on_c, 0, 57, 95
1, 1614661, Note_off_c, 0, 57, 95
1, 1614661, Note_on_c, 0, 58, 94
1, 1617700, Note_off_c, 0, 58, 94
1, 1617700, Note_on_c, 0, 62, 87
1, 1619645, Note_off_c, 0, 62, 87
1, 1619645, Note_on_c, 0, 65, 92
1, 1624021, Note_off_c, 0, 65, 92
1, 1624021, Note_on_c, 0, 68, 103
1, 1626695, Note_off_c, 0, 68, 103
1, 1626695, Note_on_c, 0, 70, 95
1, 1628397, Note_off_c, 0, 70, 95
1, 1628518, Note_on_c, 0, 68, 100
1, 1629490, Note_off_c, 0, 68, 100
1, 1629490, Note_on_c, 0, 66, 93
1, 1632772, Note_off_c, 0, 66, 93
1, 1634230, Note_on_c, 0, 73, 117
1, 1638363, Note_off_c, 0, 73, 117
1, 1638363, Note_on_c, 0, 70, 107
1, 1641767, Note_off_c, 0, 70, 107
1, 1641767, Note_on_c, 0, 66, 84
1, 1646265, Note_off_c, 0, 66, 84
1, 1646629, Note_on_c, 0, 65, 95
1, 1650276, Note_off_c, 0, 65, 95
1, 1650276, Note_on_c, 0, 61, 83
1, 1654166, Note_off_c, 0, 61, 83
1, 1654166, Note_on_c, 0, 58, 88
1, 1658542, Note_off_c, 0, 58, 88
1, 1661459, Note_on_c, 0, 65, 100
1, 1662796, Note_off_c, 0, 65, 100
1, 1662796, Note_on_c, 0, 66, 83
1, 1664741, Note_off_c, 0, 66, 83
1, 1664741, Note_on_c, 0, 68, 98
1, 1668631, Note_off_c, 0, 68, 98
1, 1668631, Note_on_c, 0, 64, 85
1, 1673007, Note_off_c, 0, 64, 85
1, 1673007, Note_on_c, 0, 61, 77
1, 1676289, Note_off_c, 0, 61, 77
1, 1676532, Note_on_c, 0, 63, 74
1, 1688811, Note_off_c, 0, 63, 74
1, 1700725, Note_on_c, 0, 55, 107
1, 1706317, Note_off_c, 0, 55, 107
1, 1706317, Note_on_c, 0, 59, 91
1, 1710085, Note_off_c, 0, 59, 91
1, 1710085, Note_on_c, 0, 63, 102
1, 1714097, Note_off_c, 0, 63, 102
1, 1714097, Note_on_c, 0, 69, 116
1, 1718717, Note_off_c, 0, 69, 116
1, 1718960, Note_on_c, 0, 63, 98
1, 1722485, Note_off_c, 0, 63, 98
1, 1722485, Note_on_c, 0, 59, 90
1, 1725889, Note_off_c, 0, 59, 90
1, 1726010, Note_on_c, 0, 57, 99
1, 1730873, Note_off_c, 0, 57, 99
1, 1731724, Note_on_c, 0, 56, 102
1, 1735128, Note_off_c, 0, 56, 102
1, 1735857, Note_on_c, 0, 66, 101
1, 1737923, Note_off_c, 0, 66, 101
1, 1738044, Note_on_c, 0, 68, 90
1, 1742177, Note_off_c, 0, 68, 90
1, 1742177, Note_on_c, 0, 65, 85
1, 1746918, Note_off_c, 0, 65, 85
1, 1746918, Note_on_c, 0, 60, 80
1, 1758224, Note_off_c, 0, 60, 80
1, 1785579, Note_on_c, 0, 54, 107
1, 1787645, Note_off_c, 0, 54, 107
1, 1787645, Note_on_c, 0, 55, 114
1, 1792386, Note_off_c, 0, 55, 114
1, 1792386, Note_on_c, 0, 56, 113
1, 1796641, Note_off_c, 0, 56, 113
1, 1796884, Note_on_c, 0, 60, 90
1, 1800774, Note_off_c, 0, 60, 90
1, 1800998, Note_on_c, 0, 61, 101
1, 1805528, Note_off_c, 0, 61, 101
1, 1805757, Note_on_c, 0, 64, 101
1, 1810012, Note_off_c, 0, 64, 101
1, 1810133, Note_on_c, 0, 65, 111
1, 1814023, Note_off_c, 0, 65, 111
1, 1814074, Note_on_c, 0, 67, 90
1, 1817749, Note_off_c, 0, 67, 90
1, 1817749, Note_on_c, 0, 68, 117
1, 1821339, Note_off_c, 0, 68, 117
1, 1822108, Note_on_c, 0, 70, 114
1, 1826296, Note_off_c, 0, 70, 114
1, 1826723, Note_on_c, 0, 66, 107
1, 1830313, Note_off_c, 0, 66, 107
1, 1830483, Note_on_c, 0, 61, 88
1, 1834244, Note_off_c, 0, 61, 88
1, 1834500, Note_on_c, 0, 58, 95
1, 1838859, Note_off_c, 0, 58, 95
1, 1839115, Note_on_c, 0, 67, 107
1, 1841166, Note_off_c, 0, 67, 107
1, 1841336, Note_on_c, 0, 68, 94
1, 1844669, Note_off_c, 0, 68, 94
1, 1845352, Note_on_c, 0, 65, 94
1, 1849455, Note_off_c, 0, 65, 94
1, 1849455, Note_on_c, 0, 61, 82
1, 1852703, Note_off_c, 0, 61, 82
1, 1852703, Note_on_c, 0, 58, 93
1, 1857148, Note_on_c, 0, 65, 103
1, 1857148, Note_off_c, 0, 58, 93
1, 1859370, Note_off_c, 0, 65, 103
1, 1859540, Note_on_c, 0, 66, 94
1, 1861762, Note_off_c, 0, 66, 94
1, 1862018, Note_on_c, 0, 65, 86
1, 1866121, Note_off_c, 0, 65, 86
1, 1866121, Note_on_c, 0, 61, 82
1, 1870737, Note_off_c, 0, 61, 82
1, 1870737, Note_on_c, 0, 58, 101
1, 1875011, Note_off_c, 0, 58, 101
1, 1875267, Note_on_c, 0, 57, 104
1, 1878088, Note_off_c, 0, 57, 104
1, 1878088, Note_on_c, 0, 58, 102
1, 1879883, Note_off_c, 0, 58, 102
1, 1879883, Note_on_c, 0, 59, 103
1, 1881507, Note_off_c, 0, 59, 103
1, 1881934, Note_on_c, 0, 60, 86
1, 1884669, Note_off_c, 0, 60, 86
1, 1884925, Note_on_c, 0, 57, 91
1, 1889199, Note_off_c, 0, 57, 91
1, 1889284, Note_on_c, 0, 58, 99
1, 1893472, Note_off_c, 0, 58, 99
1, 1893472, Note_on_c, 0, 53, 105
1, 1898259, Note_off_c, 0, 53, 105
1, 1898686, Note_on_c, 0, 54, 104
1, 1899369, Note_off_c, 0, 54, 104
1, 1899625, Note_on_c, 0, 55, 94
1, 1900223, Note_off_c, 0, 55, 94
1, 1900308, Note_on_c, 0, 56, 98
1, 1904240, Note_off_c, 0, 56, 98
1, 1904240, Note_on_c, 0, 53, 93
1, 1909283, Note_off_c, 0, 53, 93
1, 1909283, Note_on_c, 0, 54, 99
1, 1913813, Note_off_c, 0, 54, 99
1, 1913898, Note_on_c, 0, 55, 93
1, 1919198, Note_off_c, 0, 55, 93
1, 1919198, Note_on_c, 0, 58, 86
1, 1922531, Note_off_c, 0, 58, 86
1, 1922531, Note_on_c, 0, 61, 88
1, 1928942, Note_off_c, 0, 61, 88
1, 1929112, Note_on_c, 0, 64, 94
1, 1931078, Note_off_c, 0, 64, 94
1, 1931505, Note_on_c, 0, 65, 91
1, 1935522, Note_off_c, 0, 65, 91
1, 1935522, Note_on_c, 0, 58, 92
1, 1940907, Note_off_c, 0, 58, 92
1, 1940907, Note_on_c, 0, 61, 82
1, 1945181, Note_off_c, 0, 61, 82
1, 1948514, Note_on_c, 0, 65, 87
1, 1951335, Note_off_c, 0, 65, 87
1, 1953215, Note_on_c, 0, 58, 83
1, 1965012, Note_off_c, 0, 58, 83
1, 1993222, Note_on_c, 0, 58, 114
1, 1998265, Note_off_c, 0, 58, 114
1, 1998692, Note_on_c, 0, 61, 114
1, 2003222, Note_off_c, 0, 61, 114
1, 2003222, Note_on_c, 0, 65, 105
1, 2006555, Note_off_c, 0, 65, 105
1, 2006725, Note_on_c, 0, 69, 127
1, 2011512, Note_off_c, 0, 69, 127
1, 2012195, Note_on_c, 0, 72, 125
1, 2016383, Note_off_c, 0, 72, 125
1, 2016383, Note_on_c, 0, 70, 119
1, 2020486, Note_off_c, 0, 70, 119
1, 2020486, Note_on_c, 0, 77, 119
1, 2025529, Note_off_c, 0, 77, 119
1, 2025614, Note_on_c, 0, 73, 119
1, 2030144, Note_off_c, 0, 73, 119
1, 2030229, Note_on_c, 0, 69, 121
1, 2034588, Note_off_c, 0, 69, 121
1, 2035613, Note_on_c, 0, 70, 105
1, 2036553, Note_off_c, 0, 70, 105
1, 2036980, Note_on_c, 0, 71, 103
1, 2038860, Note_off_c, 0, 71, 103
1, 2039116, Note_on_c, 0, 72, 99
1, 2042620, Note_off_c, 0, 72, 99
1, 2042961, Note_on_c, 0, 70, 100
1, 2046465, Note_on_c, 0, 65, 99
1, 2046465, Note_off_c, 0, 70, 100
1, 2049371, Note_off_c, 0, 65, 99
1, 2049371, Note_on_c, 0, 61, 89
1, 2052106, Note_off_c, 0, 61, 89
1, 2052106, Note_on_c, 0, 58, 99
1, 2055012, Note_off_c, 0, 58, 99
1, 2055353, Note_on_c, 0, 56, 95
1, 2058772, Note_off_c, 0, 56, 95
1, 2059284, Note_on_c, 0, 55, 102
1, 2061763, Note_off_c, 0, 55, 102
1, 2062019, Note_on_c, 0, 54, 103
1, 2068344, Note_off_c, 0, 54, 103
1, 2068344, Note_on_c, 0, 61, 88
1, 2070224, Note_off_c, 0, 61, 88
1, 2070224, Note_on_c, 0, 63, 83
1, 2074754, Note_off_c, 0, 63, 83
1, 2074924, Note_on_c, 0, 58, 86
1, 2082361, Note_off_c, 0, 58, 86
1, 2083044, Note_on_c, 0, 64, 94
1, 2084240, Note_off_c, 0, 64, 94
1, 2084667, Note_on_c, 0, 65, 91
1, 2087060, Note_off_c, 0, 65, 91
1, 2087145, Note_on_c, 0, 66, 89
1, 2088598, Note_off_c, 0, 66, 89
1, 2088683, Note_on_c, 0, 67, 90
1, 2089452, Note_off_c, 0, 67, 90
1, 2089537, Note_on_c, 0, 68, 89
1, 2093811, Note_off_c, 0, 68, 89
1, 2094067, Note_on_c, 0, 63, 77
1, 2105949, Note_off_c, 0, 63, 77
1, 2143391, Note_on_c, 0, 65, 110
1, 2148007, Note_off_c, 0, 65, 110
1, 2148348, Note_on_c, 0, 63, 89
1, 2152707, Note_off_c, 0, 63, 89
1, 2152707, Note_on_c, 0, 60, 87
1, 2157152, Note_off_c, 0, 60, 87
1, 2158263, Note_on_c, 0, 61, 95
1, 2159716, Note_off_c, 0, 61, 95
1, 2159972, Note_on_c, 0, 62, 95
1, 2163476, Note_off_c, 0, 62, 95
1, 2164245, Note_on_c, 0, 70, 89
1, 2168348, Note_off_c, 0, 70, 89
1, 2168348, Note_on_c, 0, 68, 99
1, 2169373, Note_off_c, 0, 68, 99
1, 2169543, Note_on_c, 0, 70, 89
1, 2170996, Note_off_c, 0, 70, 89
1, 2171166, Note_on_c, 0, 68, 96
1, 2172533, Note_off_c, 0, 68, 96
1, 2172703, Note_on_c, 0, 65, 89
1, 2176122, Note_off_c, 0, 65, 89
1, 2176207, Note_on_c, 0, 67, 96
1, 2181678, Note_off_c, 0, 67, 96
1, 2184242, Note_on_c, 0, 73, 112
1, 2189029, Note_off_c, 0, 73, 112
1, 2189572, Note_on_c, 0, 77, 105
1, 2193675, Note_off_c, 0, 77, 105
1, 2193815, Note_on_c, 0, 75, 111
1, 2197832, Note_off_c, 0, 75, 111
1, 2197832, Note_on_c, 0, 72, 106
1, 2202448, Note_off_c, 0, 72, 106
1, 2202960, Note_on_c, 0, 69, 59
1, 2206464, Note_off_c, 0, 69, 59
1, 2206464, Note_on_c, 0, 66, 100
1, 2210396, Note_off_c, 0, 66, 100
1, 2210823, Note_on_c, 0, 65, 102
1, 2216636, Note_on_c, 0, 72, 104
1, 2216636, Note_off_c, 0, 65, 102
1, 2218003, Note_off_c, 0, 72, 104
1, 2218430, Note_on_c, 0, 73, 100
1, 2220909, Note_off_c, 0, 73, 100
1, 2221165, Note_on_c, 0, 68, 95
1, 2225268, Note_off_c, 0, 68, 95
1, 2225268, Note_on_c, 0, 65, 92
1, 2229798, Note_off_c, 0, 65, 92
1, 2229798, Note_on_c, 0, 61, 87
1, 2234243, Note_off_c, 0, 61, 87
1, 2234584, Note_on_c, 0, 58, 93
1, 2238687, Note_off_c, 0, 58, 93
1, 2239114, Note_on_c, 0, 57, 89
1, 2243388, Note_off_c, 0, 57, 89
1, 2243900, Note_on_c, 0, 56, 83
1, 2255269, Note_off_c, 0, 56, 83
1, 2291002, Note_on_c, 0, 54, 81
1, 2291685, Note_off_c, 0, 54, 81
1, 2291855, Note_on_c, 0, 55, 114
1, 2296471, Note_off_c, 0, 55, 114
1, 2296983, Note_on_c, 0, 56, 113
1, 2301086, Note_off_c, 0, 56, 113
1, 2301086, Note_on_c, 0, 58, 105
1, 2305018, Note_off_c, 0, 58, 105
1, 2305445, Note_on_c, 0, 59, 109
1, 2310232, Note_off_c, 0, 59, 109
1, 2310488, Note_on_c, 0, 63, 107
1, 2313810, Note_on_c, 0, 66, 113
1, 2313810, Note_off_c, 0, 63, 107
1, 2317396, Note_off_c, 0, 66, 113
1, 2317882, Note_on_c, 0, 65, 107
1, 2318976, Note_off_c, 0, 65, 107
1, 2319158, Note_on_c, 0, 67, 106
1, 2320495, Note_off_c, 0, 67, 106
1, 2320981, Note_on_c, 0, 69, 100
1, 2323838, Note_off_c, 0, 69, 100
1, 2325114, Note_on_c, 0, 72, 82
1, 2326329, Note_off_c, 0, 72, 82
1, 2326572, Note_on_c, 0, 70, 88
1, 2327970, Note_off_c, 0, 70, 88
1, 2328273, Note_on_c, 0, 68, 102
1, 2331920, Note_off_c, 0, 68, 102
1, 2331920, Note_on_c, 0, 66, 106
1, 2337512, Note_off_c, 0, 66, 106
1, 2337512, Note_on_c, 0, 63, 89
1, 2340186, Note_off_c, 0, 63, 89
1, 2340186, Note_on_c, 0, 65, 105
1, 2346447, Note_off_c, 0, 65, 105
1, 2346447, Note_on_c, 0, 68, 102
1, 2350580, Note_off_c, 0, 68, 102
1, 2350580, Note_on_c, 0, 61, 88
1, 2355260, Note_off_c, 0, 61, 88
1, 2355746, Note_on_c, 0, 59, 91
1, 2359697, Note_off_c, 0, 59, 91
1, 2361338, Note_on_c, 0, 58, 86
1, 2375015, Note_off_c, 0, 58, 86
1, 2388995, Note_on_c, 0, 57, 98
1, 2392371, Note_off_c, 0, 57, 98
1, 2392755, Note_on_c, 0, 58, 102
1, 2395789, Note_off_c, 0, 58, 102
1, 2396088, Note_on_c, 0, 61, 96
1, 2398225, Note_off_c, 0, 61, 96
1, 2398609, Note_on_c, 0, 65, 112
1, 2402968, Note_off_c, 0, 65, 112
1, 2403096, Note_on_c, 0, 64, 89
1, 2404549, Note_off_c, 0, 64, 89
1, 2404549, Note_on_c, 0, 66, 112
1, 2408224, Note_off_c, 0, 66, 112
1, 2408608, Note_on_c, 0, 70, 113
1, 2412027, Note_off_c, 0, 70, 113
1, 2412069, Note_on_c, 0, 73, 119
1, 2415189, Note_off_c, 0, 73, 119
1, 2416984, Note_on_c, 0, 77, 109
1, 2420617, Note_off_c, 0, 77, 109
1, 2420787, Note_on_c, 0, 73, 110
1, 2423095, Note_off_c, 0, 73, 110
1, 2423223, Note_on_c, 0, 70, 90
1, 2425018, Note_off_c, 0, 70, 90
1, 2425274, Note_on_c, 0, 66, 89
1, 2427197, Note_off_c, 0, 66, 89
1, 2427197, Note_on_c, 0, 61, 92
1, 2429462, Note_off_c, 0, 61, 92
1, 2430316, Note_on_c, 0, 60, 85
1, 2431641, Note_off_c, 0, 60, 85
1, 2432324, Note_on_c, 0, 58, 99
1, 2434375, Note_off_c, 0, 58, 99
1, 2435144, Note_on_c, 0, 57, 90
1, 2436169, Note_off_c, 0, 57, 90
1, 2436468, Note_on_c, 0, 56, 100
1, 2439460, Note_off_c, 0, 56, 100
1, 2439972, Note_on_c, 0, 55, 96
1, 2443434, Note_off_c, 0, 55, 96
1, 2443647, Note_on_c, 0, 54, 99
1, 2447066, Note_off_c, 0, 54, 99
1, 2447279, Note_on_c, 0, 58, 95
1, 2450356, Note_off_c, 0, 58, 95
1, 2450398, Note_on_c, 0, 53, 97
1, 2454586, Note_off_c, 0, 53, 97
1, 2454714, Note_on_c, 0, 51, 93
1, 2458347, Note_off_c, 0, 51, 93
1, 2458817, Note_on_c, 0, 50, 104
1, 2462706, Note_off_c, 0, 50, 104
1, 2463090, Note_on_c, 0, 49, 98
1, 2475784, Note_off_c, 0, 49, 98
1, 2492560, Note_on_c, 0, 61, 110
1, 2497787, Note_off_c, 0, 61, 110
1, 2497787, Note_on_c, 0, 63, 113
1, 2503136, Note_off_c, 0, 63, 113
1, 2503136, Note_on_c, 0, 65, 111
1, 2507839, Note_off_c, 0, 65, 111
1, 2507839, Note_on_c, 0, 66, 92
1, 2508993, Note_off_c, 0, 66, 92
1, 2509078, Note_on_c, 0, 68, 121
1, 2511215, Note_off_c, 0, 68, 121
1, 2511941, Note_on_c, 0, 70, 10
1, 2513052, Note_off_c, 0, 70, 10
1, 2513393, Note_on_c, 0, 68, 112
1, 2514675, Note_off_c, 0, 68, 112
1, 2515108, Note_on_c, 0, 66, 97
1, 2519028, Note_off_c, 0, 66, 97
1, 2521398, Note_on_c, 0, 68, 107
1, 2523221, Note_off_c, 0, 68, 107
1, 2523221, Note_on_c, 0, 70, 92
1, 2524771, Note_off_c, 0, 70, 92
1, 2524771, Note_on_c, 0, 68, 96
1, 2526138, Note_off_c, 0, 68, 96
1, 2526138, Note_on_c, 0, 66, 86
1, 2530058, Note_off_c, 0, 66, 86
1, 2530058, Note_on_c, 0, 73, 118
1, 2534890, Note_off_c, 0, 73, 118
1, 2535345, Note_on_c, 0, 68, 100
1, 2539265, Note_off_c, 0, 68, 100
1, 2539356, Note_on_c, 0, 61, 69
1, 2550206, Note_off_c, 0, 61, 69
1, 2564333, Note_on_c, 0, 61, 88
1, 2568692, Note_off_c, 0, 61, 88
1, 2569717, Note_on_c, 0, 68, 109
1, 2571170, Note_off_c, 0, 68, 109
1, 2571170, Note_on_c, 0, 70, 101
1, 2572623, Note_off_c, 0, 70, 101
1, 2572793, Note_on_c, 0, 68, 108
1, 2574075, Note_off_c, 0, 68, 108
1, 2574673, Note_on_c, 0, 66, 102
1, 2577665, Note_off_c, 0, 66, 102
1, 2579545, Note_on_c, 0, 68, 119
1, 2580741, Note_off_c, 0, 68, 119
1, 2581424, Note_on_c, 0, 70, 102
1, 2582877, Note_off_c, 0, 70, 102
1, 2582877, Note_on_c, 0, 68, 100
1, 2584672, Note_off_c, 0, 68, 100
1, 2584757, Note_on_c, 0, 66, 85
1, 2588176, Note_off_c, 0, 66, 85
1, 2588945, Note_on_c, 0, 72, 90
1, 2590398, Note_off_c, 0, 72, 90
1, 2590739, Note_on_c, 0, 73, 112
1, 2594243, Note_off_c, 0, 73, 112
1, 2594328, Note_on_c, 0, 68, 103
1, 2597405, Note_off_c, 0, 68, 103
1, 2597746, Note_on_c, 0, 61, 69
1, 2607833, Note_off_c, 0, 61, 69
1, 2621681, Note_on_c, 0, 61, 78
1, 2626040, Note_off_c, 0, 61, 78
1, 2626125, Note_on_c, 0, 68, 90
1, 2627321, Note_off_c, 0, 68, 90
1, 2627662, Note_on_c, 0, 70, 104
1, 2629286, Note_off_c, 0, 70, 104
1, 2629286, Note_on_c, 0, 68, 112
1, 2630824, Note_off_c, 0, 68, 112
1, 2631336, Note_on_c, 0, 66, 95
1, 2635011, Note_off_c, 0, 66, 95
1, 2635011, Note_on_c, 0, 72, 75
1, 2636635, Note_off_c, 0, 72, 75
1, 2637233, Note_on_c, 0, 73, 111
1, 2640054, Note_off_c, 0, 73, 111
1, 2640054, Note_on_c, 0, 68, 105
1, 2642960, Note_off_c, 0, 68, 105
1, 2643130, Note_on_c, 0, 61, 82
1, 2645951, Note_off_c, 0, 61, 82
1, 2645951, Note_on_c, 0, 67, 95
1, 2647575, Note_off_c, 0, 67, 95
1, 2647575, Note_on_c, 0, 68, 106
1, 2650139, Note_off_c, 0, 68, 106
1, 2650139, Note_on_c, 0, 66, 97
1, 2653558, Note_off_c, 0, 66, 97
1, 2653558, Note_on_c, 0, 61, 88
1, 2656720, Note_off_c, 0, 61, 88
1, 2657061, Note_on_c, 0, 56, 82
1, 2670311, Note_off_c, 0, 56, 82
1, 2694033, Note_on_c, 0, 54, 65
1, 2694716, Note_off_c, 0, 54, 65
1, 2694929, Note_on_c, 0, 55, 109
1, 2700015, Note_off_c, 0, 55, 109
1, 2700271, Note_on_c, 0, 56, 105
1, 2704502, Note_on_c, 0, 60, 103
1, 2704502, Note_off_c, 0, 56, 105
1, 2708733, Note_off_c, 0, 60, 103
1, 2708733, Note_on_c, 0, 61, 100
1, 2712793, Note_off_c, 0, 61, 100
1, 2713092, Note_on_c, 0, 65, 105
1, 2717238, Note_off_c, 0, 65, 105
1, 2717494, Note_on_c, 0, 67, 117
1, 2720400, Note_off_c, 0, 67, 117
1, 2720784, Note_on_c, 0, 68, 118
1, 2722408, Note_off_c, 0, 68, 118
1, 2723305, Note_on_c, 0, 70, 113
1, 2724929, Note_off_c, 0, 70, 113
1, 2725228, Note_on_c, 0, 71, 118
1, 2726766, Note_off_c, 0, 71, 118
1, 2726894, Note_on_c, 0, 72, 121
1, 2731082, Note_off_c, 0, 72, 121
1, 2731082, Note_on_c, 0, 68, 114
1, 2735099, Note_off_c, 0, 68, 114
1, 2735227, Note_on_c, 0, 63, 98
1, 2740142, Note_off_c, 0, 63, 98
1, 2740142, Note_on_c, 0, 60, 92
1, 2744459, Note_off_c, 0, 60, 92
1, 2744501, Note_on_c, 0, 61, 95
1, 2749843, Note_off_c, 0, 61, 95
1, 2749928, Note_on_c, 0, 62, 97
1, 2755057, Note_off_c, 0, 62, 97
1, 2757664, Note_on_c, 0, 69, 108
1, 2758647, Note_off_c, 0, 69, 108
1, 2758946, Note_on_c, 0, 70, 101
1, 2761211, Note_off_c, 0, 70, 101
1, 2761424, Note_on_c, 0, 67, 102
1, 2763689, Note_off_c, 0, 67, 102
1, 2763902, Note_on_c, 0, 68, 91
1, 2767406, Note_off_c, 0, 68, 91
1, 2767662, Note_on_c, 0, 65, 92
1, 2772064, Note_off_c, 0, 65, 92
1, 2772064, Note_on_c, 0, 62, 83
1, 2775868, Note_off_c, 0, 62, 83
1, 2775953, Note_on_c, 0, 58, 95
1, 2779842, Note_off_c, 0, 58, 95
1, 2780098, Note_on_c, 0, 56, 79
1, 2789715, Note_off_c, 0, 56, 79
1, 2803136, Note_on_c, 0, 53, 98
1, 2807923, Note_off_c, 0, 53, 98
1, 2808093, Note_on_c, 0, 54, 92
1, 2812538, Note_off_c, 0, 54, 92
1, 2812708, Note_on_c, 0, 58, 95
1, 2817837, Note_off_c, 0, 58, 95
1, 2818007, Note_on_c, 0, 61, 96
1, 2822537, Note_off_c, 0, 61, 96
1, 2822878, Note_on_c, 0, 64, 106
1, 2825870, Note_off_c, 0, 64, 106
1, 2825955, Note_on_c, 0, 65, 97
1, 2830656, Note_off_c, 0, 65, 97
1, 2830656, Note_on_c, 0, 61, 87
1, 2834246, Note_off_c, 0, 61, 87
1, 2834246, Note_on_c, 0, 58, 94
1, 2842025, Note_off_c, 0, 58, 94
1, 2842281, Note_on_c, 0, 61, 85
1, 2848265, Note_off_c, 0, 61, 85
1, 2848948, Note_on_c, 0, 64, 96
1, 2850743, Note_off_c, 0, 64, 96
1, 2851854, Note_on_c, 0, 65, 68
1, 2861855, Note_off_c, 0, 65, 68
1, 2874981, Note_on_c, 0, 55, 102
1, 2880573, Note_off_c, 0, 55, 102
1, 2880573, Note_on_c, 0, 59, 82
1, 2883612, Note_off_c, 0, 59, 82
1, 2883855, Note_on_c, 0, 63, 93
1, 2888657, Note_off_c, 0, 63, 93
1, 2888657, Note_on_c, 0, 64, 108
1, 2890419, Note_off_c, 0, 64, 108
1, 2890662, Note_on_c, 0, 65, 107
1, 2894005, Note_off_c, 0, 65, 107
1, 2894369, Note_on_c, 0, 61, 89
1, 2897104, Note_off_c, 0, 61, 89
1, 2897286, Note_on_c, 0, 57, 99
1, 2903304, Note_off_c, 0, 57, 99
1, 2903304, Note_on_c, 0, 55, 85
1, 2906586, Note_off_c, 0, 55, 85
1, 2906829, Note_on_c, 0, 56, 104
1, 2911084, Note_off_c, 0, 56, 104
1, 2911691, Note_on_c, 0, 66, 104
1, 2912846, Note_off_c, 0, 66, 104
1, 2912846, Note_on_c, 0, 68, 100
1, 2916554, Note_off_c, 0, 68, 100
1, 2916554, Note_on_c, 0, 66, 90
1, 2920626, Note_off_c, 0, 66, 90
1, 2920929, Note_on_c, 0, 58, 87
1, 2924697, Note_off_c, 0, 58, 87
1, 2925103, Note_on_c, 0, 64, 83
1, 2928095, Note_off_c, 0, 64, 83
1, 2928343, Note_on_c, 0, 65, 97
1, 2932233, Note_off_c, 0, 65, 97
1, 2932453, Note_on_c, 0, 64, 86
1, 2935957, Note_off_c, 0, 64, 86
1, 2936127, Note_on_c, 0, 63, 88
1, 2940401, Note_off_c, 0, 63, 88
1, 2941084, Note_on_c, 0, 62, 88
1, 2945016, Note_off_c, 0, 62, 88
1, 2945870, Note_on_c, 0, 61, 76
1, 2953563, Note_off_c, 0, 61, 76
1, 2969548, Note_on_c, 0, 54, 63
1, 2971257, Note_off_c, 0, 54, 63
1, 2971427, Note_on_c, 0, 55, 105
1, 2976556, Note_off_c, 0, 55, 105
1, 2976556, Note_on_c, 0, 56, 110
1, 2981685, Note_off_c, 0, 56, 110
1, 2982197, Note_on_c, 0, 67, 101
1, 2985103, Note_off_c, 0, 67, 101
1, 2985273, Note_on_c, 0, 70, 117
1, 2991769, Note_off_c, 0, 70, 117
1, 2992452, Note_on_c, 0, 68, 78
1, 3013994, Note_off_c, 0, 68, 78
1, 3029970, Note_on_c, 0, 56, 88
1, 3030821, Note_on_c, 0, 57, 109
1, 3030821, Note_off_c, 0, 56, 88
1, 3035441, Note_off_c, 0, 57, 109
1, 3035805, Note_on_c, 0, 59, 106
1, 3038115, Note_off_c, 0, 59, 106
1, 3038844, Note_on_c, 0, 62, 106
1, 3041275, Note_off_c, 0, 62, 106
1, 3041275, Note_on_c, 0, 64, 111
1, 3042490, Note_off_c, 0, 64, 111
1, 3043341, Note_on_c, 0, 66, 115
1, 3046137, Note_off_c, 0, 66, 115
1, 3046744, Note_on_c, 0, 65, 97
1, 3050512, Note_off_c, 0, 65, 97
1, 3050512, Note_on_c, 0, 63, 87
1, 3054645, Note_off_c, 0, 63, 87
1, 3054645, Note_on_c, 0, 60, 83
1, 3059386, Note_off_c, 0, 60, 83
1, 3060723, Note_on_c, 0, 61, 95
1, 3062181, Note_on_c, 0, 63, 94
1, 3062181, Note_off_c, 0, 61, 95
1, 3065342, Note_off_c, 0, 63, 94
1, 3065342, Note_on_c, 0, 65, 87
1, 3069718, Note_off_c, 0, 65, 87
1, 3069718, Note_on_c, 0, 61, 68
1, 3085888, Note_off_c, 0, 61, 68
1, 3113243, Note_on_c, 0, 58, 111
1, 3122483, Note_off_c, 0, 58, 111
1, 3122483, Note_on_c, 0, 62, 97
1, 3124914, Note_off_c, 0, 62, 97
1, 3125643, Note_on_c, 0, 65, 108
1, 3135734, Note_off_c, 0, 65, 108
1, 3135977, Note_on_c, 0, 58, 96
1, 3143636, Note_off_c, 0, 58, 96
1, 3144122, Note_on_c, 0, 61, 101
1, 3151416, Note_off_c, 0, 61, 101
1, 3152510, Note_on_c, 0, 65, 101
1, 3158224, Note_off_c, 0, 65, 101
1, 3158224, Note_on_c, 0, 58, 95
1, 3164302, Note_off_c, 0, 58, 95
1, 3164302, Note_on_c, 0, 61, 91
1, 3170259, Note_off_c, 0, 61, 91
1, 3171231, Note_on_c, 0, 65, 96
1, 3175729, Note_off_c, 0, 65, 96
1, 3175850, Note_on_c, 0, 58, 85
1, 3182172, Note_off_c, 0, 58, 85
1, 3182293, Note_on_c, 0, 61, 89
1, 3188979, Note_off_c, 0, 61, 89
1, 3189586, Note_on_c, 0, 65, 98
1, 3193111, Note_off_c, 0, 65, 98
1, 3193232, Note_on_c, 0, 58, 81
1, 3197244, Note_off_c, 0, 58, 81
1, 3197244, Note_on_c, 0, 61, 71
1, 3214143, Note_off_c, 0, 61, 71
1, 3247577, Note_on_c, 0, 58, 99
1, 3253777, Note_off_c, 0, 58, 99
1, 3253898, Note_on_c, 0, 61, 81
1, 3257545, Note_on_c, 0, 65, 112
1, 3257545, Note_off_c, 0, 61, 81
1, 3262043, Note_off_c, 0, 65, 112
1, 3262407, Note_on_c, 0, 64, 97
1, 3266297, Note_off_c, 0, 64, 97
1, 3266297, Note_on_c, 0, 63, 97
1, 3269822, Note_off_c, 0, 63, 97
1, 3269998, Note_on_c, 0, 61, 82
1, 3272391, Note_off_c, 0, 61, 82
1, 3272391, Note_on_c, 0, 63, 89
1, 3273929, Note_off_c, 0, 63, 89
1, 3274270, Note_on_c, 0, 61, 95
1, 3275979, Note_off_c, 0, 61, 95
1, 3275979, Note_on_c, 0, 58, 86
1, 3280424, Note_off_c, 0, 58, 86
1, 3282304, Note_on_c, 0, 61, 95
1, 3285381, Note_off_c, 0, 61, 95
1, 3285381, Note_on_c, 0, 58, 68
1, 3311539, Note_off_c, 0, 58, 68
1, 3318204, Note_on_c, 0, 64, 105
1, 3321537, Note_off_c, 0, 64, 105
1, 3322137, Note_on_c, 0, 66, 114
1, 3324530, Note_off_c, 0, 66, 114
1, 3324615, Note_on_c, 0, 67, 115
1, 3326410, Note_off_c, 0, 67, 115
1, 3326751, Note_on_c, 0, 68, 118
1, 3331367, Note_off_c, 0, 68, 118
1, 3331367, Note_on_c, 0, 66, 105
1, 3335384, Note_off_c, 0, 66, 105
1, 3335982, Note_on_c, 0, 65, 84
1, 3339657, Note_off_c, 0, 65, 84
1, 3339827, Note_on_c, 0, 63, 95
1, 3344186, Note_off_c, 0, 63, 95
1, 3344336, Note_on_c, 0, 60, 87
1, 3348469, Note_off_c, 0, 60, 87
1, 3348955, Note_on_c, 0, 61, 93
1, 3352967, Note_off_c, 0, 61, 93
1, 3353331, Note_on_c, 0, 62, 96
1, 3358194, Note_off_c, 0, 62, 96
1, 3358801, Note_on_c, 0, 68, 103
1, 3359773, Note_off_c, 0, 68, 103
1, 3360137, Note_on_c, 0, 70, 92
1, 3364149, Note_off_c, 0, 70, 92
1, 3364635, Note_on_c, 0, 68, 94
1, 3368039, Note_on_c, 0, 65, 93
1, 3368039, Note_off_c, 0, 68, 94
1, 3372415, Note_off_c, 0, 65, 93
1, 3372536, Note_on_c, 0, 61, 93
1, 3374846, Note_on_c, 0, 62, 91
1, 3374846, Note_off_c, 0, 61, 93
1, 3377277, Note_off_c, 0, 62, 91
1, 3377277, Note_on_c, 0, 56, 96
1, 3381775, Note_off_c, 0, 56, 96
1, 3381775, Note_on_c, 0, 53, 96
1, 3386151, Note_off_c, 0, 53, 96
1, 3386272, Note_on_c, 0, 54, 101
1, 3390648, Note_off_c, 0, 54, 101
1, 3390648, Note_on_c, 0, 55, 97
1, 3396483, Note_off_c, 0, 55, 97
1, 3396483, Note_on_c, 0, 58, 93
1, 3400616, Note_off_c, 0, 58, 93
1, 3401102, Note_on_c, 0, 61, 89
1, 3405478, Note_off_c, 0, 61, 89
1, 3405842, Note_on_c, 0, 60, 81
1, 3407057, Note_off_c, 0, 60, 81
1, 3408029, Note_on_c, 0, 64, 93
1, 3413864, Note_off_c, 0, 64, 93
1, 3440368, Note_on_c, 0, 56, 102
1, 3445474, Note_off_c, 0, 56, 102
1, 3445717, Note_on_c, 0, 57, 99
1, 3449729, Note_off_c, 0, 57, 99
1, 3450580, Note_on_c, 0, 58, 94
1, 3455200, Note_off_c, 0, 58, 94
1, 3455564, Note_on_c, 0, 65, 91
1, 3459940, Note_off_c, 0, 65, 91
1, 3459940, Note_on_c, 0, 60, 79
1, 3464560, Note_off_c, 0, 60, 79
1, 3464560, Note_on_c, 0, 63, 87
1, 3468549, Note_off_c, 0, 63, 87
1, 3468549, Note_on_c, 0, 61, 72
1, 3630287, Note_off_c, 0, 61, 72
1, 3630287, End_track
0, 0, End_of_file
