0, 0, Header, 1, 1, 192
1, 0, Start_track
1, 0, Title_t, "Melody"
1, 0, Tempo, 472440
1, 0, Key_signature, 0, "major"
1, 0, Time_signature, 4, 2, 24, 8
1, 1206, Note_on_c, 0, 60, 92
1, 1230, Note_off_c, 0, 60, 92
1, 1261, Note_on_c, 0, 62, 105
1, 1280, Note_off_c, 0, 62, 105
1, 1314, Note_on_c, 0, 64, 104
1, 1360, Note_off_c, 0, 64, 104
1, 1587, Note_on_c, 0, 64, 111
1, 1624, Note_off_c, 0, 64, 111
1, 1635, Note_on_c, 0, 65, 123
1, 1683, Note_off_c, 0, 65, 123
1, 1687, Note_on_c, 0, 67, 122
1, 1750, Note_off_c, 0, 67, 122
1, 1955, Note_on_c, 0, 67, 110
1, 2001, Note_off_c, 0, 67, 110
1, 2019, Note_on_c, 0, 69, 116
1, 2072, Note_off_c, 0, 69, 116
1, 2082, Note_on_c, 0, 70, 115
1, 2139, Note_off_c, 0, 70, 115
1, 2198, Note_on_c, 0, 71, 106
1, 2214, Note_off_c, 0, 71, 106
1, 2216, Note_on_c, 0, 69, 115
1, 2244, Note_off_c, 0, 69, 115
1, 2472, Note_on_c, 0, 72, 111
1, 2528, Note_off_c, 0, 72, 111
1, 2533, Note_on_c, 0, 69, 118
1, 2591, Note_off_c, 0, 69, 118
1, 2631, Note_on_c, 0, 63, 112
1, 2684, Note_off_c, 0, 63, 112
1, 2916, Note_on_c, 0, 60, 102
1, 2952, Note_off_c, 0, 60, 102
1, 2959, Note_on_c, 0, 62, 109
1, 3010, Note_off_c, 0, 62, 109
1, 3038, Note_on_c, 0, 57, 116
1, 3086, Note_off_c, 0, 57, 116
1, 3109, Note_on_c, 0, 60, 112
1, 3163, Note_off_c, 0, 60, 112
1, 3238, Note_on_c, 0, 62, 105
1, 3304, Note_off_c, 0, 62, 105
1, 3370, Note_on_c, 0, 60, 113
1, 3438, Note_off_c, 0, 60, 113
1, 3668, Note_on_c, 0, 60, 102
1, 3713, Note_off_c, 0, 60, 102
1, 3720, Note_on_c, 0, 64, 115
1, 3753, Note_off_c, 0, 64, 115
1, 3764, Note_on_c, 0, 67, 119
1, 3811, Note_off_c, 0, 67, 119
1, 3831, Note_on_c, 0, 69, 123
1, 3880, Note_off_c, 0, 69, 123
1, 3888, Note_on_c, 0, 71, 116
1, 3938, Note_off_c, 0, 71, 116
1, 3939, Note_on_c, 0, 72, 115
1, 3979, Note_off_c, 0, 72, 115
1, 4006, Note_on_c, 0, 69, 120
1, 4052, Note_off_c, 0, 69, 120
1, 4076, Note_on_c, 0, 63, 115
1, 4123, Note_off_c, 0, 63, 115
1, 4124, Note_on_c, 0, 64, 114
1, 4176, Note_off_c, 0, 64, 114
1, 4180, Note_on_c, 0, 62, 103
1, 4204, Note_off_c, 0, 62, 103
1, 4213, Note_on_c, 0, 57, 111
1, 4312, Note_off_c, 0, 57, 111
1, 4332, Note_on_c, 0, 60, 108
1, 4387, Note_off_c, 0, 60, 108
1, 4409, Note_on_c, 0, 62, 107
1, 4506, Note_off_c, 0, 62, 107
1, 4516, Note_on_c, 0, 60, 104
1, 4571, Note_off_c, 0, 60, 104
1, 4588, Note_on_c, 0, 69, 121
1, 4662, Note_off_c, 0, 69, 121
1, 4706, Note_on_c, 0, 62, 112
1, 4727, Note_off_c, 0, 62, 112
1, 4736, Note_on_c, 0, 63, 110
1, 4777, Note_off_c, 0, 63, 110
1, 4781, Note_on_c, 0, 62, 92
1, 4852, Note_off_c, 0, 62, 92
1, 4891, Note_on_c, 0, 57, 101
1, 4938, Note_off_c, 0, 57, 101
1, 4955, Note_on_c, 0, 60, 108
1, 5062, Note_off_c, 0, 60, 108
1, 5079, Note_on_c, 0, 62, 109
1, 5101, Note_off_c, 0, 62, 109
1, 5108, Note_on_c, 0, 60, 114
1, 5133, Note_off_c, 0, 60, 114
1, 5141, Note_on_c, 0, 59, 113
1, 5159, Note_off_c, 0, 59, 113
1, 5166, Note_on_c, 0, 58, 104
1, 5245, Note_off_c, 0, 58, 104
1, 5269, Note_on_c, 0, 56, 111
1, 5312, Note_off_c, 0, 56, 111
1, 5336, Note_on_c, 0, 57, 103
1, 5409, Note_off_c, 0, 57, 103
1, 5441, Note_on_c, 0, 69, 118
1, 5492, Note_off_c, 0, 69, 118
1, 5507, Note_on_c, 0, 66, 111
1, 5591, Note_off_c, 0, 66, 111
1, 5691, Note_on_c, 0, 71, 106
1, 5857, Note_off_c, 0, 71, 106
1, 5888, Note_on_c, 0, 69, 117
1, 5974, Note_off_c, 0, 69, 117
1, 6086, Note_on_c, 0, 73, 108
1, 6131, Note_off_c, 0, 73, 108
1, 6133, Note_on_c, 0, 74, 112
1, 6165, Note_off_c, 0, 74, 112
1, 6399, Note_on_c, 0, 69, 116
1, 6454, Note_off_c, 0, 69, 116
1, 6457, Note_on_c, 0, 71, 117
1, 6512, Note_off_c, 0, 71, 117
1, 6536, Note_on_c, 0, 74, 102
1, 6569, Note_off_c, 0, 74, 102
1, 6571, Note_on_c, 0, 71, 106
1, 6598, Note_off_c, 0, 71, 106
1, 6610, Note_on_c, 0, 67, 113
1, 6651, Note_off_c, 0, 67, 113
1, 6660, Note_on_c, 0, 69, 118
1, 6776, Note_off_c, 0, 69, 118
1, 6801, Note_on_c, 0, 64, 107
1, 6826, Note_off_c, 0, 64, 107
1, 6843, Note_on_c, 0, 67, 108
1, 7001, Note_off_c, 0, 67, 108
1, 7015, Note_on_c, 0, 69, 120
1, 7148, Note_off_c, 0, 69, 120
1, 7203, Note_on_c, 0, 72, 106
1, 7283, Note_off_c, 0, 72, 106
1, 7289, Note_on_c, 0, 67, 112
1, 7315, Note_off_c, 0, 67, 112
1, 7320, Note_on_c, 0, 69, 114
1, 7368, Note_off_c, 0, 69, 114
1, 7431, Note_on_c, 0, 63, 110
1, 7481, Note_off_c, 0, 63, 110
1, 8006, Note_on_c, 0, 67, 117
1, 8053, Note_off_c, 0, 67, 117
1, 8067, Note_on_c, 0, 69, 124
1, 8120, Note_off_c, 0, 69, 124
1, 8131, Note_on_c, 0, 67, 119
1, 8184, Note_off_c, 0, 67, 119
1, 8225, Note_on_c, 0, 71, 112
1, 8242, Note_off_c, 0, 71, 112
1, 8245, Note_on_c, 0, 72, 113
1, 8284, Note_off_c, 0, 72, 113
1, 8294, Note_on_c, 0, 69, 122
1, 8353, Note_off_c, 0, 69, 122
1, 8423, Note_on_c, 0, 63, 110
1, 8485, Note_off_c, 0, 63, 110
1, 8850, Note_on_c, 0, 64, 104
1, 8961, Note_off_c, 0, 64, 104
1, 8965, Note_on_c, 0, 67, 120
1, 9006, Note_off_c, 0, 67, 120
1, 9012, Note_on_c, 0, 69, 120
1, 9075, Note_off_c, 0, 69, 120
1, 9079, Note_on_c, 0, 67, 116
1, 9122, Note_off_c, 0, 67, 116
1, 9128, Note_on_c, 0, 70, 104
1, 9139, Note_off_c, 0, 70, 104
1, 9141, Note_on_c, 0, 72, 109
1, 9191, Note_off_c, 0, 72, 109
1, 9208, Note_on_c, 0, 69, 117
1, 9266, Note_off_c, 0, 69, 117
1, 9335, Note_on_c, 0, 63, 117
1, 9368, Note_off_c, 0, 63, 117
1, 9371, Note_on_c, 0, 62, 110
1, 9408, Note_off_c, 0, 62, 110
1, 9638, Note_on_c, 0, 60, 114
1, 9664, Note_off_c, 0, 60, 114
1, 9670, Note_on_c, 0, 62, 110
1, 9686, Note_off_c, 0, 62, 110
1, 9691, Note_on_c, 0, 60, 115
1, 9709, Note_off_c, 0, 60, 115
1, 9717, Note_on_c, 0, 59, 116
1, 9770, Note_off_c, 0, 59, 116
1, 9775, Note_on_c, 0, 60, 105
1, 9829, Note_off_c, 0, 60, 105
1, 9846, Note_on_c, 0, 70, 115
1, 9893, Note_off_c, 0, 70, 115
1, 9903, Note_on_c, 0, 68, 122
1, 9954, Note_off_c, 0, 68, 122
1, 9967, Note_on_c, 0, 62, 92
1, 10010, Note_off_c, 0, 62, 92
1, 10018, Note_on_c, 0, 67, 113
1, 10073, Note_off_c, 0, 67, 113
1, 10089, Note_on_c, 0, 65, 115
1, 10142, Note_off_c, 0, 65, 115
1, 10159, Note_on_c, 0, 62, 104
1, 10193, Note_off_c, 0, 62, 104
1, 10219, Note_on_c, 0, 56, 112
1, 10271, Note_off_c, 0, 56, 112
1, 10276, Note_on_c, 0, 55, 109
1, 10335, Note_off_c, 0, 55, 109
1, 10361, Note_on_c, 0, 64, 105
1, 10401, Note_off_c, 0, 64, 105
1, 10427, Note_on_c, 0, 59, 105
1, 10460, Note_off_c, 0, 59, 105
1, 10471, Note_on_c, 0, 62, 107
1, 10533, Note_off_c, 0, 62, 107
1, 10544, Note_on_c, 0, 60, 105
1, 10602, Note_off_c, 0, 60, 105
1, 10745, Note_on_c, 0, 71, 109
1, 10808, Note_off_c, 0, 71, 109
1, 10824, Note_on_c, 0, 67, 101
1, 10858, Note_off_c, 0, 67, 101
1, 10864, Note_on_c, 0, 69, 117
1, 10934, Note_off_c, 0, 69, 117
1, 10939, Note_on_c, 0, 67, 116
1, 10995, Note_off_c, 0, 67, 116
1, 11116, Note_on_c, 0, 76, 116
1, 11135, Note_off_c, 0, 76, 116
1, 11140, Note_on_c, 0, 77, 111
1, 11179, Note_off_c, 0, 77, 111
1, 11199, Note_on_c, 0, 70, 112
1, 11260, Note_off_c, 0, 70, 112
1, 11314, Note_on_c, 0, 74, 111
1, 11357, Note_off_c, 0, 74, 111
1, 11424, Note_on_c, 0, 69, 117
1, 11470, Note_off_c, 0, 69, 117
1, 11497, Note_on_c, 0, 71, 116
1, 11540, Note_off_c, 0, 71, 116
1, 11561, Note_on_c, 0, 64, 102
1, 11598, Note_off_c, 0, 64, 102
1, 11617, Note_on_c, 0, 66, 109
1, 11672, Note_off_c, 0, 66, 109
1, 11681, Note_on_c, 0, 69, 114
1, 11741, Note_off_c, 0, 69, 114
1, 11798, Note_on_c, 0, 57, 117
1, 11951, Note_off_c, 0, 57, 117
1, 11957, Note_on_c, 0, 56, 104
1, 12037, Note_off_c, 0, 56, 104
1, 12044, Note_on_c, 0, 64, 112
1, 12112, Note_off_c, 0, 64, 112
1, 12170, Note_on_c, 0, 57, 108
1, 12250, Note_off_c, 0, 57, 108
1, 12266, Note_on_c, 0, 60, 111
1, 12343, Note_off_c, 0, 60, 111
1, 12359, Note_on_c, 0, 60, 111
1, 12518, Note_off_c, 0, 60, 111
1, 12547, Note_on_c, 0, 60, 106
1, 12658, Note_off_c, 0, 60, 106
1, 12827, Note_on_c, 0, 62, 116
1, 12869, Note_off_c, 0, 62, 116
1, 12870, Note_on_c, 0, 64, 115
1, 12919, Note_off_c, 0, 64, 115
1, 12931, Note_on_c, 0, 67, 121
1, 12982, Note_off_c, 0, 67, 121
1, 12991, Note_on_c, 0, 69, 122
1, 13044, Note_off_c, 0, 69, 122
1, 13056, Note_on_c, 0, 72, 117
1, 13099, Note_off_c, 0, 72, 117
1, 13123, Note_on_c, 0, 72, 114
1, 13215, Note_off_c, 0, 72, 114
1, 13216, Note_on_c, 0, 74, 101
1, 13228, Note_off_c, 0, 74, 101
1, 13229, Note_on_c, 0, 72, 111
1, 13255, Note_off_c, 0, 72, 111
1, 13259, Note_on_c, 0, 69, 121
1, 13312, Note_off_c, 0, 69, 121
1, 13336, Note_on_c, 0, 72, 113
1, 13509, Note_off_c, 0, 72, 113
1, 13522, Note_on_c, 0, 74, 113
1, 13573, Note_off_c, 0, 74, 113
1, 13576, Note_on_c, 0, 76, 120
1, 13604, Note_off_c, 0, 76, 120
1, 13799, Note_on_c, 0, 69, 100
1, 13835, Note_off_c, 0, 69, 100
1, 13838, Note_on_c, 0, 72, 104
1, 13881, Note_off_c, 0, 72, 104
1, 13916, Note_on_c, 0, 71, 112
1, 13937, Note_off_c, 0, 71, 112
1, 13941, Note_on_c, 0, 72, 113
1, 13984, Note_off_c, 0, 72, 113
1, 13994, Note_on_c, 0, 74, 107
1, 14008, Note_off_c, 0, 74, 107
1, 14010, Note_on_c, 0, 72, 108
1, 14029, Note_off_c, 0, 72, 108
1, 14035, Note_on_c, 0, 69, 118
1, 14092, Note_off_c, 0, 69, 118
1, 14150, Note_on_c, 0, 72, 110
1, 14219, Note_off_c, 0, 72, 110
1, 14293, Note_on_c, 0, 78, 110
1, 14305, Note_off_c, 0, 78, 110
1, 14309, Note_on_c, 0, 79, 117
1, 14365, Note_off_c, 0, 79, 117
1, 14578, Note_on_c, 0, 72, 110
1, 14616, Note_off_c, 0, 72, 110
1, 14671, Note_on_c, 0, 72, 113
1, 14717, Note_off_c, 0, 72, 113
1, 14720, Note_on_c, 0, 74, 113
1, 14734, Note_off_c, 0, 74, 113
1, 14736, Note_on_c, 0, 72, 110
1, 14752, Note_off_c, 0, 72, 110
1, 14762, Note_on_c, 0, 69, 117
1, 14813, Note_off_c, 0, 69, 117
1, 14851, Note_on_c, 0, 72, 113
1, 14933, Note_off_c, 0, 72, 113
1, 15030, Note_on_c, 0, 81, 110
1, 15074, Note_off_c, 0, 81, 110
1, 15282, Note_on_c, 0, 71, 110
1, 15297, Note_off_c, 0, 71, 110
1, 15300, Note_on_c, 0, 72, 110
1, 15344, Note_off_c, 0, 72, 110
1, 15396, Note_on_c, 0, 72, 113
1, 15440, Note_off_c, 0, 72, 113
1, 15441, Note_on_c, 0, 74, 109
1, 15462, Note_off_c, 0, 74, 109
1, 15463, Note_on_c, 0, 72, 114
1, 15493, Note_off_c, 0, 72, 114
1, 15496, Note_on_c, 0, 69, 120
1, 15557, Note_off_c, 0, 69, 120
1, 15594, Note_on_c, 0, 72, 110
1, 15668, Note_off_c, 0, 72, 110
1, 15751, Note_on_c, 0, 84, 111
1, 15794, Note_off_c, 0, 84, 111
1, 16118, Note_on_c, 0, 81, 111
1, 16151, Note_off_c, 0, 81, 111
1, 16207, Note_on_c, 0, 76, 114
1, 16253, Note_off_c, 0, 76, 114
1, 16304, Note_on_c, 0, 72, 108
1, 16351, Note_off_c, 0, 72, 108
1, 16379, Note_on_c, 0, 67, 110
1, 16427, Note_off_c, 0, 67, 110
1, 16460, Note_on_c, 0, 74, 106
1, 16504, Note_off_c, 0, 74, 106
1, 16523, Note_on_c, 0, 72, 103
1, 16572, Note_off_c, 0, 72, 103
1, 16587, Note_on_c, 0, 67, 114
1, 16626, Note_off_c, 0, 67, 114
1, 16635, Note_on_c, 0, 64, 106
1, 16684, Note_off_c, 0, 64, 106
1, 16689, Note_on_c, 0, 60, 109
1, 16737, Note_off_c, 0, 60, 109
1, 16743, Note_on_c, 0, 57, 111
1, 16853, Note_off_c, 0, 57, 111
1, 16858, Note_on_c, 0, 56, 108
1, 16894, Note_off_c, 0, 56, 108
1, 16905, Note_on_c, 0, 59, 102
1, 16990, Note_off_c, 0, 59, 102
1, 16992, Note_on_c, 0, 62, 109
1, 17120, Note_off_c, 0, 62, 109
1, 17130, Note_on_c, 0, 58, 116
1, 17179, Note_off_c, 0, 58, 116
1, 17191, Note_on_c, 0, 62, 110
1, 17235, Note_off_c, 0, 62, 110
1, 17255, Note_on_c, 0, 65, 114
1, 17296, Note_off_c, 0, 65, 114
1, 17343, Note_on_c, 0, 70, 114
1, 17377, Note_off_c, 0, 70, 114
1, 17396, Note_on_c, 0, 68, 119
1, 17430, Note_off_c, 0, 68, 119
1, 17442, Note_on_c, 0, 69, 119
1, 17493, Note_off_c, 0, 69, 119
1, 17513, Note_on_c, 0, 64, 106
1, 17554, Note_off_c, 0, 64, 106
1, 17576, Note_on_c, 0, 67, 115
1, 17628, Note_off_c, 0, 67, 115
1, 17635, Note_on_c, 0, 61, 91
1, 17668, Note_off_c, 0, 61, 91
1, 17695, Note_on_c, 0, 61, 105
1, 17746, Note_off_c, 0, 61, 105
1, 17767, Note_on_c, 0, 57, 105
1, 17858, Note_off_c, 0, 57, 105
1, 17878, Note_on_c, 0, 55, 105
1, 17958, Note_off_c, 0, 55, 105
1, 17982, Note_on_c, 0, 53, 105
1, 18050, Note_off_c, 0, 53, 105
1, 18091, Note_on_c, 0, 54, 105
1, 18165, Note_off_c, 0, 54, 105
1, 18199, Note_on_c, 0, 59, 106
1, 18261, Note_off_c, 0, 59, 106
1, 18277, Note_on_c, 0, 57, 103
1, 18360, Note_off_c, 0, 57, 103
1, 18383, Note_on_c, 0, 64, 106
1, 18439, Note_off_c, 0, 64, 106
1, 18440, Note_on_c, 0, 60, 108
1, 18542, Note_off_c, 0, 60, 108
1, 18555, Note_on_c, 0, 57, 109
1, 18603, Note_off_c, 0, 57, 109
1, 18615, Note_on_c, 0, 62, 93
1, 18820, Note_off_c, 0, 62, 93
1, 18958, Note_on_c, 0, 61, 102
1, 19029, Note_off_c, 0, 61, 102
1, 19031, Note_on_c, 0, 64, 115
1, 19080, Note_off_c, 0, 64, 115
1, 19092, Note_on_c, 0, 67, 121
1, 19125, Note_off_c, 0, 67, 121
1, 19132, Note_on_c, 0, 69, 119
1, 19178, Note_off_c, 0, 69, 119
1, 19189, Note_on_c, 0, 72, 115
1, 19241, Note_off_c, 0, 72, 115
1, 19314, Note_on_c, 0, 69, 118
1, 19385, Note_off_c, 0, 69, 118
1, 19626, Note_on_c, 0, 60, 103
1, 19672, Note_off_c, 0, 60, 103
1, 19675, Note_on_c, 0, 63, 108
1, 19702, Note_off_c, 0, 63, 108
1, 19706, Note_on_c, 0, 67, 114
1, 19722, Note_off_c, 0, 67, 114
1, 19730, Note_on_c, 0, 69, 116
1, 19761, Note_off_c, 0, 69, 116
1, 19771, Note_on_c, 0, 72, 111
1, 19857, Note_off_c, 0, 72, 111
1, 19861, Note_on_c, 0, 69, 120
1, 19919, Note_off_c, 0, 69, 120
1, 20033, Note_on_c, 0, 63, 107
1, 20057, Note_off_c, 0, 63, 107
1, 20065, Note_on_c, 0, 64, 105
1, 20088, Note_off_c, 0, 64, 105
1, 20099, Note_on_c, 0, 67, 105
1, 20117, Note_off_c, 0, 67, 105
1, 20121, Note_on_c, 0, 69, 110
1, 20150, Note_off_c, 0, 69, 110
1, 20158, Note_on_c, 0, 72, 112
1, 20367, Note_off_c, 0, 72, 112
1, 20381, Note_on_c, 0, 74, 109
1, 20399, Note_off_c, 0, 74, 109
1, 20405, Note_on_c, 0, 72, 111
1, 20422, Note_off_c, 0, 72, 111
1, 20427, Note_on_c, 0, 71, 113
1, 20440, Note_off_c, 0, 71, 113
1, 20444, Note_on_c, 0, 70, 114
1, 20468, Note_off_c, 0, 70, 114
1, 20485, Note_on_c, 0, 67, 116
1, 20523, Note_off_c, 0, 67, 116
1, 20539, Note_on_c, 0, 64, 106
1, 20577, Note_off_c, 0, 64, 106
1, 20589, Note_on_c, 0, 61, 106
1, 20627, Note_off_c, 0, 61, 106
1, 20633, Note_on_c, 0, 60, 109
1, 20681, Note_off_c, 0, 60, 109
1, 20688, Note_on_c, 0, 58, 110
1, 20718, Note_off_c, 0, 58, 110
1, 20725, Note_on_c, 0, 57, 109
1, 20765, Note_off_c, 0, 57, 109
1, 20781, Note_on_c, 0, 59, 110
1, 20810, Note_off_c, 0, 59, 110
1, 20813, Note_on_c, 0, 60, 108
1, 20863, Note_off_c, 0, 60, 108
1, 20876, Note_on_c, 0, 69, 115
1, 20931, Note_off_c, 0, 69, 115
1, 20960, Note_on_c, 0, 64, 104
1, 20994, Note_off_c, 0, 64, 104
1, 21003, Note_on_c, 0, 67, 112
1, 21059, Note_off_c, 0, 67, 112
1, 21094, Note_on_c, 0, 64, 107
1, 21147, Note_off_c, 0, 64, 107
1, 21153, Note_on_c, 0, 65, 109
1, 21223, Note_off_c, 0, 65, 109
1, 21464, Note_on_c, 0, 57, 107
1, 21501, Note_off_c, 0, 57, 107
1, 21531, Note_on_c, 0, 60, 111
1, 21569, Note_off_c, 0, 60, 111
1, 21584, Note_on_c, 0, 64, 106
1, 21637, Note_off_c, 0, 64, 106
1, 21666, Note_on_c, 0, 56, 114
1, 22047, Note_off_c, 0, 56, 114
1, 22056, Note_on_c, 0, 62, 101
1, 22167, Note_off_c, 0, 62, 101
1, 22175, Note_on_c, 0, 59, 91
1, 22204, Note_off_c, 0, 59, 91
1, 22511, Note_on_c, 0, 55, 108
1, 22535, Note_off_c, 0, 55, 108
1, 22552, Note_on_c, 0, 57, 103
1, 22612, Note_off_c, 0, 57, 103
1, 22621, Note_on_c, 0, 60, 113
1, 22676, Note_off_c, 0, 60, 113
1, 22690, Note_on_c, 0, 62, 111
1, 22760, Note_off_c, 0, 62, 111
1, 22778, Note_on_c, 0, 64, 110
1, 22876, Note_off_c, 0, 64, 110
1, 22903, Note_on_c, 0, 67, 116
1, 22972, Note_off_c, 0, 67, 116
1, 22982, Note_on_c, 0, 69, 123
1, 23098, Note_off_c, 0, 69, 123
1, 23111, Note_on_c, 0, 67, 103
1, 23145, Note_off_c, 0, 67, 103
1, 23166, Note_on_c, 0, 69, 110
1, 23212, Note_off_c, 0, 69, 110
1, 23216, Note_on_c, 0, 70, 107
1, 23258, Note_off_c, 0, 70, 107
1, 23261, Note_on_c, 0, 71, 115
1, 23293, Note_off_c, 0, 71, 115
1, 23650, Note_on_c, 0, 64, 111
1, 23703, Note_off_c, 0, 64, 111
1, 23721, Note_on_c, 0, 69, 122
1, 23831, Note_off_c, 0, 69, 122
1, 23842, Note_on_c, 0, 71, 117
1, 23914, Note_off_c, 0, 71, 117
1, 23921, Note_on_c, 0, 72, 107
1, 24012, Note_off_c, 0, 72, 107
1, 24060, Note_on_c, 0, 66, 9
1, 24171, Note_off_c, 0, 66, 9
1, 24178, Note_on_c, 0, 69, 127
1, 24270, Note_off_c, 0, 69, 127
1, 24304, Note_on_c, 0, 63, 118
1, 24408, Note_off_c, 0, 63, 118
1, 24439, Note_on_c, 0, 57, 121
1, 24472, Note_off_c, 0, 57, 121
1, 24498, Note_on_c, 0, 62, 118
1, 24598, Note_off_c, 0, 62, 118
1, 24611, Note_on_c, 0, 60, 110
1, 25355, Note_off_c, 0, 60, 110
1, 25355, End_track
0, 0, End_of_file
