0, 0, Header, 1, 1, 192
1, 0, Start_track
1, 0, Title_t, "Melody"
1, 0, Tempo, 322580
1, 0, Key_signature, -1, "major"
1, 0, Time_signature, 4, 2, 24, 8
1, 2574, Note_on_c, 0, 60, 77
1, 2615, Note_off_c, 0, 60, 77
1, 2624, Note_on_c, 0, 61, 107
1, 2668, Note_off_c, 0, 61, 107
1, 2678, Note_on_c, 0, 62, 101
1, 2759, Note_off_c, 0, 62, 101
1, 2769, Note_on_c, 0, 65, 110
1, 2853, Note_off_c, 0, 65, 110
1, 2957, Note_on_c, 0, 64, 103
1, 3030, Note_off_c, 0, 64, 103
1, 3038, Note_on_c, 0, 67, 117
1, 3152, Note_off_c, 0, 67, 117
1, 3166, Note_on_c, 0, 70, 70
1, 3224, Note_off_c, 0, 70, 70
1, 3231, Note_on_c, 0, 74, 114
1, 3335, Note_off_c, 0, 74, 114
1, 3345, Note_on_c, 0, 73, 119
1, 3425, Note_off_c, 0, 73, 119
1, 3528, Note_on_c, 0, 70, 120
1, 3603, Note_off_c, 0, 70, 120
1, 3609, Note_on_c, 0, 67, 109
1, 3692, Note_off_c, 0, 67, 109
1, 3694, Note_on_c, 0, 68, 111
1, 3782, Note_off_c, 0, 68, 111
1, 3801, Note_on_c, 0, 69, 118
1, 3894, Note_off_c, 0, 69, 118
1, 3919, Note_on_c, 0, 65, 100
1, 4001, Note_off_c, 0, 65, 100
1, 4121, Note_on_c, 0, 61, 105
1, 4208, Note_off_c, 0, 61, 105
1, 4217, Note_on_c, 0, 60, 108
1, 4297, Note_off_c, 0, 60, 108
1, 4313, Note_on_c, 0, 57, 106
1, 4376, Note_off_c, 0, 57, 106
1, 4389, Note_on_c, 0, 58, 100
1, 4451, Note_off_c, 0, 58, 100
1, 4462, Note_on_c, 0, 62, 90
1, 4493, Note_off_c, 0, 62, 90
1, 4503, Note_on_c, 0, 65, 101
1, 4566, Note_off_c, 0, 65, 101
1, 4583, Note_on_c, 0, 69, 114
1, 4679, Note_off_c, 0, 69, 114
1, 4694, Note_on_c, 0, 67, 113
1, 4765, Note_off_c, 0, 67, 113
1, 4779, Note_on_c, 0, 65, 91
1, 4867, Note_off_c, 0, 65, 91
1, 4878, Note_on_c, 0, 64, 101
1, 4955, Note_off_c, 0, 64, 101
1, 4961, Note_on_c, 0, 67, 97
1, 5008, Note_off_c, 0, 67, 97
1, 5009, Note_on_c, 0, 69, 88
1, 5031, Note_off_c, 0, 69, 88
1, 5035, Note_on_c, 0, 67, 97
1, 5072, Note_off_c, 0, 67, 97
1, 5079, Note_on_c, 0, 65, 93
1, 5144, Note_off_c, 0, 65, 93
1, 5150, Note_on_c, 0, 64, 101
1, 5251, Note_off_c, 0, 64, 101
1, 5264, Note_on_c, 0, 62, 95
1, 5318, Note_off_c, 0, 62, 95
1, 5334, Note_on_c, 0, 60, 95
1, 5426, Note_off_c, 0, 60, 95
1, 6021, Note_on_c, 0, 57, 104
1, 6104, Note_off_c, 0, 57, 104
1, 6113, Note_on_c, 0, 58, 101
1, 6150, Note_off_c, 0, 58, 101
1, 6156, Note_on_c, 0, 62, 96
1, 6201, Note_off_c, 0, 62, 96
1, 6211, Note_on_c, 0, 65, 107
1, 6263, Note_off_c, 0, 65, 107
1, 6263, Note_on_c, 0, 69, 108
1, 6307, Note_off_c, 0, 69, 108
1, 6308, Note_on_c, 0, 72, 125
1, 6366, Note_off_c, 0, 72, 125
1, 6374, Note_on_c, 0, 70, 108
1, 6444, Note_off_c, 0, 70, 108
1, 6450, Note_on_c, 0, 67, 113
1, 6498, Note_off_c, 0, 67, 113
1, 6502, Note_on_c, 0, 64, 101
1, 6540, Note_off_c, 0, 64, 101
1, 6541, Note_on_c, 0, 61, 101
1, 6588, Note_off_c, 0, 61, 101
1, 6597, Note_on_c, 0, 60, 102
1, 6635, Note_off_c, 0, 60, 102
1, 6641, Note_on_c, 0, 59, 112
1, 6681, Note_off_c, 0, 59, 112
1, 6690, Note_on_c, 0, 58, 107
1, 6733, Note_off_c, 0, 58, 107
1, 6738, Note_on_c, 0, 56, 99
1, 6766, Note_off_c, 0, 56, 99
1, 6770, Note_on_c, 0, 57, 98
1, 6817, Note_off_c, 0, 57, 98
1, 6830, Note_on_c, 0, 60, 101
1, 6865, Note_off_c, 0, 60, 101
1, 6871, Note_on_c, 0, 67, 105
1, 6954, Note_off_c, 0, 67, 105
1, 6975, Note_on_c, 0, 64, 108
1, 7054, Note_off_c, 0, 64, 108
1, 7064, Note_on_c, 0, 67, 100
1, 7106, Note_off_c, 0, 67, 100
1, 7109, Note_on_c, 0, 69, 84
1, 7126, Note_off_c, 0, 69, 84
1, 7129, Note_on_c, 0, 67, 101
1, 7170, Note_off_c, 0, 67, 101
1, 7176, Note_on_c, 0, 65, 100
1, 7229, Note_off_c, 0, 65, 100
1, 7232, Note_on_c, 0, 72, 123
1, 7336, Note_off_c, 0, 72, 123
1, 7343, Note_on_c, 0, 69, 116
1, 7419, Note_off_c, 0, 69, 116
1, 7427, Note_on_c, 0, 65, 90
1, 7534, Note_off_c, 0, 65, 90
1, 7626, Note_on_c, 0, 67, 116
1, 7731, Note_off_c, 0, 67, 116
1, 7735, Note_on_c, 0, 65, 107
1, 7806, Note_off_c, 0, 65, 107
1, 7943, Note_on_c, 0, 61, 106
1, 8005, Note_off_c, 0, 61, 106
1, 8013, Note_on_c, 0, 60, 107
1, 8102, Note_off_c, 0, 60, 107
1, 8113, Note_on_c, 0, 58, 107
1, 8211, Note_off_c, 0, 58, 107
1, 8217, Note_on_c, 0, 55, 96
1, 8305, Note_off_c, 0, 55, 96
1, 8313, Note_on_c, 0, 56, 106
1, 8385, Note_off_c, 0, 56, 106
1, 8417, Note_on_c, 0, 57, 108
1, 8506, Note_off_c, 0, 57, 108
1, 8516, Note_on_c, 0, 60, 104
1, 8578, Note_off_c, 0, 60, 104
1, 8598, Note_on_c, 0, 55, 109
1, 8684, Note_off_c, 0, 55, 109
1, 8695, Note_on_c, 0, 53, 103
1, 8759, Note_off_c, 0, 53, 103
1, 8766, Note_on_c, 0, 54, 111
1, 8892, Note_off_c, 0, 54, 111
1, 8904, Note_on_c, 0, 57, 99
1, 8965, Note_off_c, 0, 57, 99
1, 8972, Note_on_c, 0, 60, 106
1, 9068, Note_off_c, 0, 60, 106
1, 9091, Note_on_c, 0, 63, 106
1, 9162, Note_off_c, 0, 63, 106
1, 9170, Note_on_c, 0, 62, 96
1, 9273, Note_off_c, 0, 62, 96
1, 9285, Note_on_c, 0, 58, 106
1, 9354, Note_off_c, 0, 58, 106
1, 9359, Note_on_c, 0, 55, 95
1, 9389, Note_off_c, 0, 55, 95
1, 9393, Note_on_c, 0, 57, 93
1, 9426, Note_off_c, 0, 57, 93
1, 9430, Note_on_c, 0, 55, 92
1, 9465, Note_off_c, 0, 55, 92
1, 9470, Note_on_c, 0, 53, 100
1, 9531, Note_off_c, 0, 53, 100
1, 9551, Note_on_c, 0, 60, 105
1, 9638, Note_off_c, 0, 60, 105
1, 10041, Note_on_c, 0, 57, 109
1, 10136, Note_off_c, 0, 57, 109
1, 10141, Note_on_c, 0, 58, 105
1, 10215, Note_off_c, 0, 58, 105
1, 10217, Note_on_c, 0, 59, 101
1, 10248, Note_off_c, 0, 59, 101
1, 10255, Note_on_c, 0, 60, 98
1, 10288, Note_off_c, 0, 60, 98
1, 10299, Note_on_c, 0, 63, 99
1, 10330, Note_off_c, 0, 63, 99
1, 10342, Note_on_c, 0, 68, 112
1, 10385, Note_off_c, 0, 68, 112
1, 10387, Note_on_c, 0, 70, 107
1, 10413, Note_off_c, 0, 70, 107
1, 10420, Note_on_c, 0, 72, 107
1, 10462, Note_off_c, 0, 72, 107
1, 10466, Note_on_c, 0, 75, 110
1, 10500, Note_off_c, 0, 75, 110
1, 10506, Note_on_c, 0, 80, 115
1, 10606, Note_off_c, 0, 80, 115
1, 10613, Note_on_c, 0, 77, 126
1, 10695, Note_off_c, 0, 77, 126
1, 10705, Note_on_c, 0, 75, 108
1, 10800, Note_off_c, 0, 75, 108
1, 10804, Note_on_c, 0, 73, 124
1, 10879, Note_off_c, 0, 73, 124
1, 10889, Note_on_c, 0, 72, 113
1, 10978, Note_off_c, 0, 72, 113
1, 10987, Note_on_c, 0, 70, 118
1, 11072, Note_off_c, 0, 70, 118
1, 11077, Note_on_c, 0, 69, 97
1, 11101, Note_off_c, 0, 69, 97
1, 11102, Note_on_c, 0, 70, 100
1, 11141, Note_off_c, 0, 70, 100
1, 11145, Note_on_c, 0, 68, 106
1, 11179, Note_off_c, 0, 68, 106
1, 11182, Note_on_c, 0, 67, 107
1, 11249, Note_off_c, 0, 67, 107
1, 11253, Note_on_c, 0, 70, 118
1, 11351, Note_off_c, 0, 70, 118
1, 11369, Note_on_c, 0, 68, 121
1, 11438, Note_off_c, 0, 68, 121
1, 11451, Note_on_c, 0, 63, 106
1, 11570, Note_off_c, 0, 63, 106
1, 11584, Note_on_c, 0, 60, 84
1, 11634, Note_off_c, 0, 60, 84
1, 11647, Note_on_c, 0, 67, 111
1, 11757, Note_off_c, 0, 67, 111
1, 11769, Note_on_c, 0, 65, 92
1, 11949, Note_off_c, 0, 65, 92
1, 12336, Note_on_c, 0, 57, 112
1, 12424, Note_off_c, 0, 57, 112
1, 12430, Note_on_c, 0, 59, 105
1, 12530, Note_off_c, 0, 59, 105
1, 12533, Note_on_c, 0, 62, 108
1, 12601, Note_off_c, 0, 62, 108
1, 12615, Note_on_c, 0, 65, 112
1, 12715, Note_off_c, 0, 65, 112
1, 12722, Note_on_c, 0, 69, 127
1, 12807, Note_off_c, 0, 69, 127
1, 12814, Note_on_c, 0, 69, 105
1, 12858, Note_off_c, 0, 69, 105
1, 12867, Note_on_c, 0, 67, 98
1, 12908, Note_off_c, 0, 67, 98
1, 12917, Note_on_c, 0, 65, 100
1, 12981, Note_off_c, 0, 65, 100
1, 12990, Note_on_c, 0, 64, 109
1, 13092, Note_off_c, 0, 64, 109
1, 13107, Note_on_c, 0, 67, 90
1, 13163, Note_off_c, 0, 67, 90
1, 13172, Note_on_c, 0, 71, 120
1, 13264, Note_off_c, 0, 71, 120
1, 13286, Note_on_c, 0, 74, 111
1, 13556, Note_off_c, 0, 74, 111
1, 13568, Note_on_c, 0, 72, 120
1, 13691, Note_off_c, 0, 72, 120
1, 13697, Note_on_c, 0, 70, 97
1, 13880, Note_off_c, 0, 70, 97
1, 14272, Note_on_c, 0, 61, 102
1, 14349, Note_off_c, 0, 61, 102
1, 14357, Note_on_c, 0, 62, 88
1, 14386, Note_off_c, 0, 62, 88
1, 14404, Note_on_c, 0, 65, 89
1, 14431, Note_off_c, 0, 65, 89
1, 14436, Note_on_c, 0, 69, 104
1, 14508, Note_off_c, 0, 69, 104
1, 14514, Note_on_c, 0, 72, 121
1, 14617, Note_off_c, 0, 72, 121
1, 14624, Note_on_c, 0, 70, 113
1, 14706, Note_off_c, 0, 70, 113
1, 14818, Note_on_c, 0, 65, 108
1, 14893, Note_off_c, 0, 65, 108
1, 14903, Note_on_c, 0, 69, 121
1, 15006, Note_off_c, 0, 69, 121
1, 15013, Note_on_c, 0, 72, 116
1, 15073, Note_off_c, 0, 72, 116
1, 15083, Note_on_c, 0, 66, 101
1, 15181, Note_off_c, 0, 66, 101
1, 15194, Note_on_c, 0, 67, 111
1, 15263, Note_off_c, 0, 67, 111
1, 15374, Note_on_c, 0, 60, 99
1, 15491, Note_off_c, 0, 60, 99
1, 15500, Note_on_c, 0, 61, 89
1, 15576, Note_off_c, 0, 61, 89
1, 15589, Note_on_c, 0, 62, 97
1, 15657, Note_off_c, 0, 62, 97
1, 15663, Note_on_c, 0, 70, 112
1, 15776, Note_off_c, 0, 70, 112
1, 15852, Note_on_c, 0, 69, 117
1, 15972, Note_off_c, 0, 69, 117
1, 16052, Note_on_c, 0, 65, 107
1, 16169, Note_off_c, 0, 65, 107
1, 16473, Note_on_c, 0, 60, 96
1, 16578, Note_off_c, 0, 60, 96
1, 16589, Note_on_c, 0, 62, 84
1, 16636, Note_off_c, 0, 62, 84
1, 16636, Note_on_c, 0, 65, 100
1, 16768, Note_off_c, 0, 65, 100
1, 16778, Note_on_c, 0, 65, 88
1, 16993, Note_off_c, 0, 65, 88
1, 17007, Note_on_c, 0, 65, 92
1, 17130, Note_off_c, 0, 65, 92
1, 17178, Note_on_c, 0, 65, 107
1, 17260, Note_off_c, 0, 65, 107
1, 17264, Note_on_c, 0, 65, 104
1, 17403, Note_off_c, 0, 65, 104
1, 17445, Note_on_c, 0, 65, 103
1, 17594, Note_off_c, 0, 65, 103
1, 17640, Note_on_c, 0, 65, 88
1, 17793, Note_off_c, 0, 65, 88
1, 18105, Note_on_c, 0, 69, 123
1, 18193, Note_off_c, 0, 69, 123
1, 18205, Note_on_c, 0, 65, 103
1, 18296, Note_off_c, 0, 65, 103
1, 18313, Note_on_c, 0, 60, 111
1, 18380, Note_off_c, 0, 60, 111
1, 18393, Note_on_c, 0, 58, 102
1, 18491, Note_off_c, 0, 58, 102
1, 18507, Note_on_c, 0, 62, 101
1, 18549, Note_off_c, 0, 62, 101
1, 18576, Note_on_c, 0, 65, 106
1, 18667, Note_off_c, 0, 65, 106
1, 18674, Note_on_c, 0, 69, 118
1, 18754, Note_off_c, 0, 69, 118
1, 18854, Note_on_c, 0, 67, 119
1, 18931, Note_off_c, 0, 67, 119
1, 18938, Note_on_c, 0, 65, 98
1, 19037, Note_off_c, 0, 65, 98
1, 19054, Note_on_c, 0, 64, 105
1, 19114, Note_off_c, 0, 64, 105
1, 19137, Note_on_c, 0, 60, 93
1, 19232, Note_off_c, 0, 60, 93
1, 19821, Note_on_c, 0, 61, 106
1, 19914, Note_off_c, 0, 61, 106
1, 19919, Note_on_c, 0, 62, 95
1, 20008, Note_off_c, 0, 62, 95
1, 20017, Note_on_c, 0, 65, 109
1, 20102, Note_off_c, 0, 65, 109
1, 20122, Note_on_c, 0, 62, 83
1, 20183, Note_off_c, 0, 62, 83
1, 20201, Note_on_c, 0, 61, 103
1, 20291, Note_off_c, 0, 61, 103
1, 20299, Note_on_c, 0, 62, 100
1, 20388, Note_off_c, 0, 62, 100
1, 20397, Note_on_c, 0, 67, 108
1, 20464, Note_off_c, 0, 67, 108
1, 20964, Note_on_c, 0, 61, 105
1, 21041, Note_off_c, 0, 61, 105
1, 21048, Note_on_c, 0, 62, 106
1, 21141, Note_off_c, 0, 62, 106
1, 21153, Note_on_c, 0, 69, 118
1, 21231, Note_off_c, 0, 69, 118
1, 21254, Note_on_c, 0, 62, 105
1, 21340, Note_off_c, 0, 62, 105
1, 21350, Note_on_c, 0, 61, 88
1, 21419, Note_off_c, 0, 61, 88
1, 21430, Note_on_c, 0, 62, 107
1, 21529, Note_off_c, 0, 62, 107
1, 21545, Note_on_c, 0, 70, 116
1, 21618, Note_off_c, 0, 70, 116
1, 22117, Note_on_c, 0, 61, 109
1, 22177, Note_off_c, 0, 61, 109
1, 22181, Note_on_c, 0, 62, 108
1, 22280, Note_off_c, 0, 62, 108
1, 22294, Note_on_c, 0, 72, 122
1, 22369, Note_off_c, 0, 72, 122
1, 22372, Note_on_c, 0, 70, 124
1, 22484, Note_off_c, 0, 70, 124
1, 22490, Note_on_c, 0, 68, 96
1, 22539, Note_off_c, 0, 68, 96
1, 22553, Note_on_c, 0, 69, 125
1, 22667, Note_off_c, 0, 69, 125
1, 22678, Note_on_c, 0, 63, 103
1, 22756, Note_off_c, 0, 63, 103
1, 22762, Note_on_c, 0, 67, 99
1, 22787, Note_off_c, 0, 67, 99
1, 22795, Note_on_c, 0, 70, 94
1, 22822, Note_off_c, 0, 70, 94
1, 22828, Note_on_c, 0, 67, 98
1, 22871, Note_off_c, 0, 67, 98
1, 22876, Note_on_c, 0, 65, 97
1, 22931, Note_off_c, 0, 65, 97
1, 22944, Note_on_c, 0, 63, 110
1, 23041, Note_off_c, 0, 63, 110
1, 23060, Note_on_c, 0, 60, 105
1, 23127, Note_off_c, 0, 60, 105
1, 23140, Note_on_c, 0, 55, 99
1, 23220, Note_off_c, 0, 55, 99
1, 23227, Note_on_c, 0, 56, 104
1, 23302, Note_off_c, 0, 56, 104
1, 23315, Note_on_c, 0, 57, 103
1, 23426, Note_off_c, 0, 57, 103
1, 23438, Note_on_c, 0, 53, 106
1, 23504, Note_off_c, 0, 53, 106
1, 23516, Note_on_c, 0, 51, 90
1, 23621, Note_off_c, 0, 51, 90
1, 23636, Note_on_c, 0, 53, 105
1, 23697, Note_off_c, 0, 53, 105
1, 23715, Note_on_c, 0, 50, 107
1, 23833, Note_off_c, 0, 50, 107
1, 23908, Note_on_c, 0, 53, 103
1, 24001, Note_off_c, 0, 53, 103
1, 24019, Note_on_c, 0, 57, 99
1, 24079, Note_off_c, 0, 57, 99
1, 24096, Note_on_c, 0, 60, 106
1, 24184, Note_off_c, 0, 60, 106
1, 24203, Note_on_c, 0, 57, 89
1, 24271, Note_off_c, 0, 57, 89
1, 24285, Note_on_c, 0, 58, 103
1, 24384, Note_off_c, 0, 58, 103
1, 24398, Note_on_c, 0, 65, 105
1, 24474, Note_off_c, 0, 65, 105
1, 24490, Note_on_c, 0, 61, 87
1, 24553, Note_off_c, 0, 61, 87
1, 24569, Note_on_c, 0, 58, 102
1, 24648, Note_off_c, 0, 58, 102
1, 24660, Note_on_c, 0, 55, 96
1, 24757, Note_off_c, 0, 55, 96
1, 24768, Note_on_c, 0, 53, 99
1, 24830, Note_off_c, 0, 53, 99
1, 24843, Note_on_c, 0, 60, 100
1, 24962, Note_off_c, 0, 60, 100
1, 24972, Note_on_c, 0, 59, 105
1, 25046, Note_off_c, 0, 59, 105
1, 25064, Note_on_c, 0, 58, 105
1, 25135, Note_off_c, 0, 58, 105
1, 25150, Note_on_c, 0, 56, 100
1, 25242, Note_off_c, 0, 56, 100
1, 25254, Note_on_c, 0, 57, 96
1, 25317, Note_off_c, 0, 57, 96
1, 25321, Note_on_c, 0, 60, 91
1, 25357, Note_off_c, 0, 60, 91
1, 25364, Note_on_c, 0, 64, 94
1, 25406, Note_off_c, 0, 64, 94
1, 25415, Note_on_c, 0, 67, 113
1, 25512, Note_off_c, 0, 67, 113
1, 25529, Note_on_c, 0, 65, 84
1, 25599, Note_off_c, 0, 65, 84
1, 25625, Note_on_c, 0, 62, 96
1, 25729, Note_off_c, 0, 62, 96
1, 26115, Note_on_c, 0, 61, 101
1, 26193, Note_off_c, 0, 61, 101
1, 26198, Note_on_c, 0, 62, 88
1, 26236, Note_off_c, 0, 62, 88
1, 26252, Note_on_c, 0, 65, 89
1, 26296, Note_off_c, 0, 65, 89
1, 26303, Note_on_c, 0, 69, 100
1, 26357, Note_off_c, 0, 69, 100
1, 26365, Note_on_c, 0, 72, 124
1, 26463, Note_off_c, 0, 72, 124
1, 26478, Note_on_c, 0, 70, 122
1, 26565, Note_off_c, 0, 70, 122
1, 26573, Note_on_c, 0, 67, 94
1, 26669, Note_off_c, 0, 67, 94
1, 26676, Note_on_c, 0, 68, 120
1, 26752, Note_off_c, 0, 68, 120
1, 26761, Note_on_c, 0, 69, 123
1, 26854, Note_off_c, 0, 69, 123
1, 26864, Note_on_c, 0, 65, 108
1, 26941, Note_off_c, 0, 65, 108
1, 26948, Note_on_c, 0, 62, 81
1, 27035, Note_off_c, 0, 62, 81
1, 27054, Note_on_c, 0, 61, 107
1, 27121, Note_off_c, 0, 61, 107
1, 27133, Note_on_c, 0, 60, 108
1, 27239, Note_off_c, 0, 60, 108
1, 27257, Note_on_c, 0, 58, 106
1, 27425, Note_off_c, 0, 58, 106
1, 27445, Note_on_c, 0, 60, 100
1, 27502, Note_off_c, 0, 60, 100
1, 27641, Note_on_c, 0, 58, 107
1, 27720, Note_off_c, 0, 58, 107
1, 27731, Note_on_c, 0, 60, 106
1, 27812, Note_off_c, 0, 60, 106
1, 27832, Note_on_c, 0, 57, 94
1, 27898, Note_off_c, 0, 57, 94
1, 27907, Note_on_c, 0, 58, 106
1, 28018, Note_off_c, 0, 58, 106
1, 28022, Note_on_c, 0, 60, 105
1, 28083, Note_off_c, 0, 60, 105
1, 28089, Note_on_c, 0, 57, 94
1, 28174, Note_off_c, 0, 57, 94
1, 28188, Note_on_c, 0, 58, 107
1, 28274, Note_off_c, 0, 58, 107
1, 28282, Note_on_c, 0, 60, 100
1, 28435, Note_off_c, 0, 60, 100
1, 28435, End_track
0, 0, End_of_file
