0, 0, Header, 1, 1, 192
1, 0, Start_track
1, 0, Title_t, "Melody"
1, 0, Tempo, 198019
1, 0, Key_signature, -3, "major"
1, 0, Time_signature, 4, 2, 24, 8
1, 3765, Note_on_c, 0, 82, 115
1, 4936, Note_off_c, 0, 82, 115
1, 5082, Note_on_c, 0, 78, 107
1, 5169, Note_off_c, 0, 78, 107
1, 5184, Note_on_c, 0, 79, 92
1, 5263, Note_off_c, 0, 79, 92
1, 5294, Note_on_c, 0, 75, 108
1, 5365, Note_off_c, 0, 75, 108
1, 5392, Note_on_c, 0, 72, 92
1, 5479, Note_off_c, 0, 72, 92
1, 5479, Note_on_c, 0, 75, 90
1, 5688, Note_off_c, 0, 75, 90
1, 5786, Note_on_c, 0, 72, 104
1, 5896, Note_off_c, 0, 72, 104
1, 6050, Note_on_c, 0, 78, 111
1, 6148, Note_off_c, 0, 78, 111
1, 6171, Note_on_c, 0, 79, 100
1, 6227, Note_off_c, 0, 79, 100
1, 6285, Note_on_c, 0, 75, 91
1, 6383, Note_off_c, 0, 75, 91
1, 6413, Note_on_c, 0, 72, 108
1, 6510, Note_off_c, 0, 72, 108
1, 6612, Note_on_c, 0, 78, 107
1, 6710, Note_off_c, 0, 78, 107
1, 6795, Note_on_c, 0, 75, 110
1, 6893, Note_off_c, 0, 75, 110
1, 6973, Note_on_c, 0, 77, 98
1, 7103, Note_off_c, 0, 77, 98
1, 7328, Note_on_c, 0, 68, 96
1, 7383, Note_off_c, 0, 68, 96
1, 7386, Note_on_c, 0, 73, 120
1, 7477, Note_off_c, 0, 73, 120
1, 7508, Note_on_c, 0, 74, 114
1, 7571, Note_off_c, 0, 74, 114
1, 7574, Note_on_c, 0, 77, 112
1, 7665, Note_off_c, 0, 77, 112
1, 7678, Note_on_c, 0, 74, 105
1, 7759, Note_off_c, 0, 74, 105
1, 7759, Note_on_c, 0, 79, 110
1, 7855, Note_off_c, 0, 79, 110
1, 7865, Note_on_c, 0, 77, 101
1, 7947, Note_off_c, 0, 77, 101
1, 7960, Note_on_c, 0, 82, 111
1, 8060, Note_off_c, 0, 82, 111
1, 8065, Note_on_c, 0, 81, 115
1, 8164, Note_off_c, 0, 81, 115
1, 8172, Note_on_c, 0, 80, 105
1, 8274, Note_off_c, 0, 80, 105
1, 8278, Note_on_c, 0, 77, 106
1, 8331, Note_off_c, 0, 77, 106
1, 8357, Note_on_c, 0, 74, 104
1, 8440, Note_off_c, 0, 74, 104
1, 8461, Note_on_c, 0, 70, 98
1, 8552, Note_off_c, 0, 70, 98
1, 8559, Note_on_c, 0, 68, 98
1, 8618, Note_off_c, 0, 68, 98
1, 8629, Note_on_c, 0, 65, 94
1, 8720, Note_off_c, 0, 65, 94
1, 8764, Note_on_c, 0, 62, 103
1, 8815, Note_off_c, 0, 62, 103
1, 8859, Note_on_c, 0, 65, 93
1, 8946, Note_off_c, 0, 65, 93
1, 9051, Note_on_c, 0, 65, 115
1, 9138, Note_off_c, 0, 65, 115
1, 9201, Note_on_c, 0, 68, 93
1, 9264, Note_off_c, 0, 68, 93
1, 9331, Note_on_c, 0, 75, 93
1, 9540, Note_off_c, 0, 75, 93
1, 9784, Note_on_c, 0, 75, 96
1, 9882, Note_off_c, 0, 75, 96
1, 9899, Note_on_c, 0, 79, 109
1, 9982, Note_off_c, 0, 79, 109
1, 9982, Note_on_c, 0, 82, 123
1, 10070, Note_off_c, 0, 82, 123
1, 10070, Note_on_c, 0, 86, 92
1, 10164, Note_off_c, 0, 86, 92
1, 10172, Note_on_c, 0, 87, 99
1, 11708, Note_off_c, 0, 87, 99
1, 11730, Note_on_c, 0, 86, 111
1, 11896, Note_off_c, 0, 86, 111
1, 11907, Note_on_c, 0, 85, 122
1, 11994, Note_off_c, 0, 85, 122
1, 12001, Note_on_c, 0, 84, 117
1, 12111, Note_off_c, 0, 84, 117
1, 12118, Note_on_c, 0, 83, 116
1, 12212, Note_on_c, 0, 82, 118
1, 12212, Note_off_c, 0, 83, 116
1, 12287, Note_off_c, 0, 82, 118
1, 12298, Note_on_c, 0, 81, 118
1, 12392, Note_off_c, 0, 81, 118
1, 12392, Note_on_c, 0, 80, 112
1, 12483, Note_off_c, 0, 80, 112
1, 12486, Note_on_c, 0, 79, 100
1, 12569, Note_off_c, 0, 79, 100
1, 12576, Note_on_c, 0, 78, 113
1, 12678, Note_off_c, 0, 78, 113
1, 12689, Note_on_c, 0, 77, 107
1, 12780, Note_off_c, 0, 77, 107
1, 12791, Note_on_c, 0, 76, 116
1, 12862, Note_off_c, 0, 76, 116
1, 12865, Note_on_c, 0, 75, 115
1, 12928, Note_off_c, 0, 75, 115
1, 12935, Note_on_c, 0, 74, 116
1, 13053, Note_off_c, 0, 74, 116
1, 13053, Note_on_c, 0, 73, 121
1, 13147, Note_off_c, 0, 73, 121
1, 13154, Note_on_c, 0, 72, 106
1, 13312, Note_off_c, 0, 72, 106
1, 13422, Note_on_c, 0, 82, 119
1, 13524, Note_off_c, 0, 82, 119
1, 14245, Note_on_c, 0, 68, 97
1, 14329, Note_off_c, 0, 68, 97
1, 14334, Note_on_c, 0, 73, 127
1, 14417, Note_off_c, 0, 73, 127
1, 14417, Note_on_c, 0, 74, 118
1, 14496, Note_off_c, 0, 74, 118
1, 14515, Note_on_c, 0, 77, 114
1, 14609, Note_off_c, 0, 77, 114
1, 14612, Note_on_c, 0, 74, 113
1, 14687, Note_off_c, 0, 74, 113
1, 14702, Note_on_c, 0, 77, 109
1, 14781, Note_off_c, 0, 77, 109
1, 14784, Note_on_c, 0, 74, 105
1, 14875, Note_off_c, 0, 74, 105
1, 14898, Note_on_c, 0, 77, 102
1, 14965, Note_off_c, 0, 77, 102
1, 14968, Note_on_c, 0, 79, 96
1, 15059, Note_off_c, 0, 79, 96
1, 15073, Note_on_c, 0, 79, 107
1, 15164, Note_off_c, 0, 79, 107
1, 15168, Note_on_c, 0, 77, 107
1, 15255, Note_off_c, 0, 77, 107
1, 15282, Note_on_c, 0, 74, 112
1, 15373, Note_off_c, 0, 74, 112
1, 15376, Note_on_c, 0, 75, 105
1, 15467, Note_off_c, 0, 75, 105
1, 15498, Note_on_c, 0, 75, 100
1, 15624, Note_off_c, 0, 75, 100
1, 15703, Note_on_c, 0, 62, 103
1, 15758, Note_off_c, 0, 62, 103
1, 15781, Note_on_c, 0, 67, 100
1, 15828, Note_off_c, 0, 67, 100
1, 15847, Note_on_c, 0, 70, 118
1, 15922, Note_off_c, 0, 70, 118
1, 15929, Note_on_c, 0, 72, 116
1, 16012, Note_off_c, 0, 72, 116
1, 16027, Note_on_c, 0, 75, 112
1, 16114, Note_off_c, 0, 75, 112
1, 16117, Note_on_c, 0, 72, 110
1, 16196, Note_off_c, 0, 72, 110
1, 16215, Note_on_c, 0, 79, 114
1, 16313, Note_off_c, 0, 79, 114
1, 16320, Note_on_c, 0, 80, 112
1, 16383, Note_off_c, 0, 80, 112
1, 16386, Note_on_c, 0, 81, 112
1, 16480, Note_off_c, 0, 81, 112
1, 16487, Note_on_c, 0, 82, 113
1, 16578, Note_off_c, 0, 82, 113
1, 16585, Note_on_c, 0, 79, 106
1, 16719, Note_off_c, 0, 79, 106
1, 16766, Note_on_c, 0, 78, 95
1, 16932, Note_off_c, 0, 78, 95
1, 16932, End_track
0, 0, End_of_file
