0, 0, Header, 1, 1, 192
1, 0, Start_track
1, 0, Title_t, "Melody"
1, 0, Tempo, 324324
1, 0, Key_signature, -1, "major"
1, 0, Time_signature, 4, 2, 24, 8
1, 2181, Note_on_c, 0, 60, 113
1, 2238, Note_off_c, 0, 60, 113
1, 2256, Note_on_c, 0, 62, 92
1, 2350, Note_off_c, 0, 62, 92
1, 2367, Note_on_c, 0, 65, 115
1, 2448, Note_off_c, 0, 65, 115
1, 2454, Note_on_c, 0, 67, 123
1, 2563, Note_off_c, 0, 67, 123
1, 2569, Note_on_c, 0, 65, 93
1, 2631, Note_off_c, 0, 65, 93
1, 2639, Note_on_c, 0, 67, 122
1, 2746, Note_off_c, 0, 67, 122
1, 2754, Note_on_c, 0, 65, 88
1, 2802, Note_off_c, 0, 65, 88
1, 2822, Note_on_c, 0, 67, 120
1, 2923, Note_off_c, 0, 67, 120
1, 2935, Note_on_c, 0, 65, 93
1, 3001, Note_off_c, 0, 65, 93
1, 3008, Note_on_c, 0, 67, 118
1, 3123, Note_off_c, 0, 67, 118
1, 3127, Note_on_c, 0, 65, 93
1, 3198, Note_off_c, 0, 65, 93
1, 3213, Note_on_c, 0, 72, 104
1, 3296, Note_off_c, 0, 72, 104
1, 3308, Note_on_c, 0, 67, 117
1, 3386, Note_off_c, 0, 67, 117
1, 3571, Note_on_c, 0, 67, 109
1, 3667, Note_off_c, 0, 67, 109
1, 3671, Note_on_c, 0, 65, 82
1, 3747, Note_off_c, 0, 65, 82
1, 3753, Note_on_c, 0, 67, 115
1, 3851, Note_off_c, 0, 67, 115
1, 3861, Note_on_c, 0, 65, 85
1, 3928, Note_off_c, 0, 65, 85
1, 3940, Note_on_c, 0, 72, 121
1, 4034, Note_off_c, 0, 72, 121
1, 4047, Note_on_c, 0, 67, 112
1, 4118, Note_off_c, 0, 67, 112
1, 4140, Note_on_c, 0, 65, 85
1, 4207, Note_off_c, 0, 65, 85
1, 4261, Note_on_c, 0, 64, 92
1, 4311, Note_off_c, 0, 64, 92
1, 4322, Note_on_c, 0, 65, 107
1, 4437, Note_off_c, 0, 65, 107
1, 4516, Note_on_c, 0, 65, 105
1, 4593, Note_off_c, 0, 65, 105
1, 4628, Note_on_c, 0, 65, 103
1, 4707, Note_off_c, 0, 65, 103
1, 4712, Note_on_c, 0, 67, 106
1, 4895, Note_off_c, 0, 67, 106
1, 4920, Note_on_c, 0, 60, 91
1, 5022, Note_off_c, 0, 60, 91
1, 5030, Note_on_c, 0, 62, 88
1, 5079, Note_off_c, 0, 62, 88
1, 5097, Note_on_c, 0, 65, 105
1, 5200, Note_off_c, 0, 65, 105
1, 5212, Note_on_c, 0, 64, 86
1, 5262, Note_off_c, 0, 64, 86
1, 5280, Note_on_c, 0, 67, 112
1, 5324, Note_off_c, 0, 67, 112
1, 5328, Note_on_c, 0, 69, 93
1, 5344, Note_off_c, 0, 69, 93
1, 5348, Note_on_c, 0, 67, 102
1, 5398, Note_off_c, 0, 67, 102
1, 5416, Note_on_c, 0, 65, 93
1, 5460, Note_off_c, 0, 65, 93
1, 5473, Note_on_c, 0, 64, 106
1, 5558, Note_off_c, 0, 64, 106
1, 5566, Note_on_c, 0, 62, 101
1, 5634, Note_off_c, 0, 62, 101
1, 5774, Note_on_c, 0, 58, 107
1, 5834, Note_off_c, 0, 58, 107
1, 5848, Note_on_c, 0, 57, 106
1, 5949, Note_off_c, 0, 57, 106
1, 5963, Note_on_c, 0, 59, 97
1, 6019, Note_off_c, 0, 59, 97
1, 6025, Note_on_c, 0, 60, 89
1, 6108, Note_off_c, 0, 60, 89
1, 6137, Note_on_c, 0, 65, 106
1, 6207, Note_off_c, 0, 65, 106
1, 6215, Note_on_c, 0, 64, 87
1, 6292, Note_off_c, 0, 64, 87
1, 6299, Note_on_c, 0, 65, 107
1, 6389, Note_off_c, 0, 65, 107
1, 6395, Note_on_c, 0, 69, 117
1, 6492, Note_off_c, 0, 69, 117
1, 6502, Note_on_c, 0, 72, 118
1, 6590, Note_off_c, 0, 72, 118
1, 6593, Note_on_c, 0, 74, 117
1, 6678, Note_off_c, 0, 74, 117
1, 6693, Note_on_c, 0, 70, 113
1, 6761, Note_off_c, 0, 70, 113
1, 6770, Note_on_c, 0, 67, 93
1, 6860, Note_off_c, 0, 67, 93
1, 6960, Note_on_c, 0, 72, 118
1, 7071, Note_off_c, 0, 72, 118
1, 7129, Note_on_c, 0, 70, 110
1, 7236, Note_off_c, 0, 70, 110
1, 7285, Note_on_c, 0, 67, 114
1, 7317, Note_off_c, 0, 67, 114
1, 7323, Note_on_c, 0, 69, 110
1, 7430, Note_off_c, 0, 69, 110
1, 7441, Note_on_c, 0, 70, 94
1, 7483, Note_off_c, 0, 70, 94
1, 7487, Note_on_c, 0, 71, 100
1, 7526, Note_off_c, 0, 71, 100
1, 7535, Note_on_c, 0, 72, 98
1, 7607, Note_off_c, 0, 72, 98
1, 7635, Note_on_c, 0, 65, 104
1, 7698, Note_off_c, 0, 65, 104
1, 7751, Note_on_c, 0, 60, 84
1, 7808, Note_off_c, 0, 60, 84
1, 7815, Note_on_c, 0, 61, 96
1, 7891, Note_off_c, 0, 61, 96
1, 7907, Note_on_c, 0, 62, 95
1, 7975, Note_off_c, 0, 62, 95
1, 7998, Note_on_c, 0, 65, 99
1, 8077, Note_off_c, 0, 65, 99
1, 8093, Note_on_c, 0, 62, 98
1, 8173, Note_off_c, 0, 62, 98
1, 8263, Note_on_c, 0, 64, 106
1, 8291, Note_off_c, 0, 64, 106
1, 8294, Note_on_c, 0, 65, 100
1, 8380, Note_off_c, 0, 65, 100
1, 8390, Note_on_c, 0, 67, 107
1, 8454, Note_off_c, 0, 67, 107
1, 8462, Note_on_c, 0, 69, 97
1, 8627, Note_off_c, 0, 69, 97
1, 8634, Note_on_c, 0, 67, 91
1, 8733, Note_off_c, 0, 67, 91
1, 8826, Note_on_c, 0, 68, 110
1, 8973, Note_off_c, 0, 68, 110
1, 9508, Note_on_c, 0, 63, 105
1, 9591, Note_off_c, 0, 63, 105
1, 9592, Note_on_c, 0, 68, 118
1, 9680, Note_off_c, 0, 68, 118
1, 9690, Note_on_c, 0, 70, 123
1, 9763, Note_off_c, 0, 70, 123
1, 9779, Note_on_c, 0, 69, 103
1, 9795, Note_off_c, 0, 69, 103
1, 9798, Note_on_c, 0, 70, 111
1, 9841, Note_off_c, 0, 70, 111
1, 9845, Note_on_c, 0, 68, 99
1, 9878, Note_off_c, 0, 68, 99
1, 9884, Note_on_c, 0, 65, 98
1, 9938, Note_off_c, 0, 65, 98
1, 9945, Note_on_c, 0, 63, 112
1, 10042, Note_off_c, 0, 63, 112
1, 10053, Note_on_c, 0, 61, 105
1, 10121, Note_off_c, 0, 61, 105
1, 10251, Note_on_c, 0, 58, 111
1, 10315, Note_off_c, 0, 58, 111
1, 10327, Note_on_c, 0, 56, 106
1, 10432, Note_off_c, 0, 56, 106
1, 10453, Note_on_c, 0, 63, 102
1, 10512, Note_off_c, 0, 63, 102
1, 10526, Note_on_c, 0, 60, 92
1, 10593, Note_off_c, 0, 60, 92
1, 10632, Note_on_c, 0, 55, 109
1, 10714, Note_off_c, 0, 55, 109
1, 10811, Note_on_c, 0, 63, 101
1, 10875, Note_off_c, 0, 63, 101
1, 10888, Note_on_c, 0, 60, 89
1, 10968, Note_off_c, 0, 60, 89
1, 10997, Note_on_c, 0, 54, 104
1, 11120, Note_off_c, 0, 54, 104
1, 11194, Note_on_c, 0, 63, 98
1, 11251, Note_off_c, 0, 63, 98
1, 11273, Note_on_c, 0, 60, 85
1, 11343, Note_off_c, 0, 60, 85
1, 11367, Note_on_c, 0, 53, 105
1, 11508, Note_off_c, 0, 53, 105
1, 11557, Note_on_c, 0, 59, 107
1, 11632, Note_off_c, 0, 59, 107
1, 11644, Note_on_c, 0, 62, 91
1, 11724, Note_off_c, 0, 62, 91
1, 11739, Note_on_c, 0, 67, 117
1, 11809, Note_off_c, 0, 67, 117
1, 11820, Note_on_c, 0, 64, 94
1, 11955, Note_off_c, 0, 64, 94
1, 12313, Note_on_c, 0, 60, 105
1, 12403, Note_off_c, 0, 60, 105
1, 12419, Note_on_c, 0, 64, 87
1, 12491, Note_off_c, 0, 64, 87
1, 12503, Note_on_c, 0, 69, 124
1, 12588, Note_off_c, 0, 69, 124
1, 12595, Note_on_c, 0, 65, 91
1, 12795, Note_off_c, 0, 65, 91
1, 13075, Note_on_c, 0, 62, 112
1, 13148, Note_off_c, 0, 62, 112
1, 13166, Note_on_c, 0, 65, 107
1, 13265, Note_off_c, 0, 65, 107
1, 13273, Note_on_c, 0, 69, 115
1, 13333, Note_off_c, 0, 69, 115
1, 13336, Note_on_c, 0, 72, 121
1, 13455, Note_off_c, 0, 72, 121
1, 13467, Note_on_c, 0, 69, 97
1, 13525, Note_off_c, 0, 69, 97
1, 13529, Note_on_c, 0, 70, 119
1, 13644, Note_off_c, 0, 70, 119
1, 13652, Note_on_c, 0, 74, 120
1, 13727, Note_off_c, 0, 74, 120
1, 13735, Note_on_c, 0, 77, 116
1, 13831, Note_off_c, 0, 77, 116
1, 13841, Note_on_c, 0, 76, 113
1, 13917, Note_off_c, 0, 76, 113
1, 13921, Note_on_c, 0, 72, 105
1, 13953, Note_off_c, 0, 72, 105
1, 13958, Note_on_c, 0, 74, 107
1, 13989, Note_off_c, 0, 74, 107
1, 13996, Note_on_c, 0, 72, 105
1, 14031, Note_off_c, 0, 72, 105
1, 14036, Note_on_c, 0, 69, 109
1, 14095, Note_off_c, 0, 69, 109
1, 14104, Note_on_c, 0, 70, 118
1, 14198, Note_off_c, 0, 70, 118
1, 14208, Note_on_c, 0, 67, 119
1, 14276, Note_off_c, 0, 67, 119
1, 14282, Note_on_c, 0, 64, 103
1, 14332, Note_off_c, 0, 64, 103
1, 14343, Note_on_c, 0, 61, 101
1, 14384, Note_off_c, 0, 61, 101
1, 14396, Note_on_c, 0, 60, 102
1, 14418, Note_off_c, 0, 60, 102
1, 14423, Note_on_c, 0, 59, 112
1, 14459, Note_off_c, 0, 59, 112
1, 14467, Note_on_c, 0, 58, 109
1, 14532, Note_off_c, 0, 58, 109
1, 14541, Note_on_c, 0, 56, 98
1, 14578, Note_off_c, 0, 56, 98
1, 14583, Note_on_c, 0, 57, 101
1, 14624, Note_off_c, 0, 57, 101
1, 14633, Note_on_c, 0, 60, 96
1, 14661, Note_off_c, 0, 60, 96
1, 14670, Note_on_c, 0, 64, 102
1, 14703, Note_off_c, 0, 64, 102
1, 14712, Note_on_c, 0, 67, 106
1, 14767, Note_off_c, 0, 67, 106
1, 14784, Note_on_c, 0, 62, 96
1, 14977, Note_off_c, 0, 62, 96
1, 14988, Note_on_c, 0, 60, 96
1, 15045, Note_off_c, 0, 60, 96
1, 15085, Note_on_c, 0, 65, 107
1, 15183, Note_off_c, 0, 65, 107
1, 15251, Note_on_c, 0, 65, 91
1, 15426, Note_off_c, 0, 65, 91
1, 15703, Note_on_c, 0, 57, 113
1, 15806, Note_off_c, 0, 57, 113
1, 15819, Note_on_c, 0, 58, 101
1, 15909, Note_off_c, 0, 58, 101
1, 15916, Note_on_c, 0, 62, 110
1, 15989, Note_off_c, 0, 62, 110
1, 15993, Note_on_c, 0, 65, 104
1, 16095, Note_off_c, 0, 65, 104
1, 16106, Note_on_c, 0, 69, 118
1, 16186, Note_off_c, 0, 69, 118
1, 16196, Note_on_c, 0, 72, 121
1, 16261, Note_off_c, 0, 72, 121
1, 16265, Note_on_c, 0, 74, 113
1, 16291, Note_off_c, 0, 74, 113
1, 16296, Note_on_c, 0, 73, 117
1, 16329, Note_off_c, 0, 73, 117
1, 16335, Note_on_c, 0, 71, 115
1, 16393, Note_off_c, 0, 71, 115
1, 16396, Note_on_c, 0, 70, 122
1, 16478, Note_off_c, 0, 70, 122
1, 16483, Note_on_c, 0, 68, 118
1, 16545, Note_off_c, 0, 68, 118
1, 16551, Note_on_c, 0, 69, 114
1, 16659, Note_off_c, 0, 69, 114
1, 16675, Note_on_c, 0, 72, 118
1, 16757, Note_off_c, 0, 72, 118
1, 16766, Note_on_c, 0, 77, 113
1, 16866, Note_off_c, 0, 77, 113
1, 16877, Note_on_c, 0, 76, 116
1, 16949, Note_off_c, 0, 76, 116
1, 16957, Note_on_c, 0, 72, 85
1, 16985, Note_off_c, 0, 72, 85
1, 16988, Note_on_c, 0, 74, 84
1, 17008, Note_off_c, 0, 74, 84
1, 17015, Note_on_c, 0, 72, 100
1, 17049, Note_off_c, 0, 72, 100
1, 17051, Note_on_c, 0, 69, 108
1, 17131, Note_off_c, 0, 69, 108
1, 17136, Note_on_c, 0, 74, 122
1, 17236, Note_off_c, 0, 74, 122
1, 17242, Note_on_c, 0, 70, 119
1, 17310, Note_off_c, 0, 70, 119
1, 17438, Note_on_c, 0, 68, 118
1, 17521, Note_off_c, 0, 68, 118
1, 17530, Note_on_c, 0, 69, 118
1, 17624, Note_off_c, 0, 69, 118
1, 17633, Note_on_c, 0, 67, 117
1, 17700, Note_off_c, 0, 67, 117
1, 17713, Note_on_c, 0, 64, 94
1, 17794, Note_off_c, 0, 64, 94
1, 17822, Note_on_c, 0, 60, 100
1, 17884, Note_off_c, 0, 60, 100
1, 17896, Note_on_c, 0, 67, 108
1, 18000, Note_off_c, 0, 67, 108
1, 18012, Note_on_c, 0, 65, 101
1, 18079, Note_off_c, 0, 65, 101
1, 18099, Note_on_c, 0, 62, 87
1, 18181, Note_off_c, 0, 62, 87
1, 18187, Note_on_c, 0, 57, 90
1, 18382, Note_off_c, 0, 57, 90
1, 18769, Note_on_c, 0, 57, 112
1, 18906, Note_off_c, 0, 57, 112
1, 18917, Note_on_c, 0, 59, 104
1, 18950, Note_off_c, 0, 59, 104
1, 18957, Note_on_c, 0, 60, 99
1, 18985, Note_off_c, 0, 60, 99
1, 18998, Note_on_c, 0, 64, 96
1, 19031, Note_off_c, 0, 64, 96
1, 19040, Note_on_c, 0, 69, 119
1, 19136, Note_off_c, 0, 69, 119
1, 19145, Note_on_c, 0, 67, 119
1, 19198, Note_off_c, 0, 67, 119
1, 19214, Note_on_c, 0, 64, 98
1, 19264, Note_off_c, 0, 64, 98
1, 19267, Note_on_c, 0, 61, 95
1, 19319, Note_off_c, 0, 61, 95
1, 19327, Note_on_c, 0, 60, 99
1, 19355, Note_off_c, 0, 60, 99
1, 19362, Note_on_c, 0, 58, 109
1, 19416, Note_off_c, 0, 58, 109
1, 19427, Note_on_c, 0, 57, 111
1, 19556, Note_off_c, 0, 57, 111
1, 19601, Note_on_c, 0, 65, 106
1, 19691, Note_off_c, 0, 65, 106
1, 19704, Note_on_c, 0, 62, 97
1, 19790, Note_off_c, 0, 62, 97
1, 20101, Note_on_c, 0, 60, 107
1, 20171, Note_off_c, 0, 60, 107
1, 20175, Note_on_c, 0, 58, 100
1, 20277, Note_off_c, 0, 58, 100
1, 20302, Note_on_c, 0, 62, 101
1, 20341, Note_off_c, 0, 62, 101
1, 20353, Note_on_c, 0, 65, 107
1, 20465, Note_off_c, 0, 65, 107
1, 20483, Note_on_c, 0, 67, 119
1, 20560, Note_off_c, 0, 67, 119
1, 20564, Note_on_c, 0, 69, 118
1, 20657, Note_off_c, 0, 69, 118
1, 20664, Note_on_c, 0, 68, 118
1, 20747, Note_off_c, 0, 68, 118
1, 20753, Note_on_c, 0, 67, 96
1, 20848, Note_off_c, 0, 67, 96
1, 20861, Note_on_c, 0, 66, 105
1, 20934, Note_off_c, 0, 66, 105
1, 20940, Note_on_c, 0, 65, 107
1, 21041, Note_off_c, 0, 65, 107
1, 21049, Note_on_c, 0, 64, 108
1, 21114, Note_off_c, 0, 64, 108
1, 21123, Note_on_c, 0, 63, 105
1, 21239, Note_off_c, 0, 63, 105
1, 21252, Note_on_c, 0, 67, 95
1, 21302, Note_off_c, 0, 67, 95
1, 21320, Note_on_c, 0, 70, 118
1, 21425, Note_off_c, 0, 70, 118
1, 21431, Note_on_c, 0, 74, 121
1, 21506, Note_off_c, 0, 74, 121
1, 21512, Note_on_c, 0, 72, 118
1, 21614, Note_off_c, 0, 72, 118
1, 21622, Note_on_c, 0, 67, 92
1, 21687, Note_off_c, 0, 67, 92
1, 21696, Note_on_c, 0, 71, 121
1, 21815, Note_off_c, 0, 71, 121
1, 21821, Note_on_c, 0, 67, 119
1, 21888, Note_off_c, 0, 67, 119
1, 21895, Note_on_c, 0, 63, 86
1, 21962, Note_off_c, 0, 63, 86
1, 22006, Note_on_c, 0, 59, 104
1, 22088, Note_off_c, 0, 59, 104
1, 22097, Note_on_c, 0, 55, 104
1, 22244, Note_off_c, 0, 55, 104
1, 22266, Note_on_c, 0, 53, 100
1, 22393, Note_off_c, 0, 53, 100
1, 22393, Note_on_c, 0, 60, 96
1, 22475, Note_off_c, 0, 60, 96
1, 22480, Note_on_c, 0, 62, 96
1, 22555, Note_off_c, 0, 62, 96
1, 23524, Note_on_c, 0, 61, 115
1, 23608, Note_off_c, 0, 61, 115
1, 23616, Note_on_c, 0, 65, 117
1, 23704, Note_off_c, 0, 65, 117
1, 23713, Note_on_c, 0, 69, 100
1, 23773, Note_off_c, 0, 69, 100
1, 23780, Note_on_c, 0, 72, 127
1, 23911, Note_off_c, 0, 72, 127
1, 23914, Note_on_c, 0, 70, 123
1, 23993, Note_off_c, 0, 70, 123
1, 23999, Note_on_c, 0, 69, 122
1, 24118, Note_off_c, 0, 69, 122
1, 24126, Note_on_c, 0, 71, 117
1, 24173, Note_off_c, 0, 71, 117
1, 24180, Note_on_c, 0, 72, 118
1, 24288, Note_off_c, 0, 72, 118
1, 24292, Note_on_c, 0, 77, 112
1, 24369, Note_off_c, 0, 77, 112
1, 24375, Note_on_c, 0, 74, 116
1, 24475, Note_off_c, 0, 74, 116
1, 24485, Note_on_c, 0, 71, 113
1, 24546, Note_off_c, 0, 71, 113
1, 24547, Note_on_c, 0, 69, 100
1, 24574, Note_off_c, 0, 69, 100
1, 24580, Note_on_c, 0, 70, 106
1, 24618, Note_off_c, 0, 70, 106
1, 24621, Note_on_c, 0, 69, 107
1, 24660, Note_off_c, 0, 69, 107
1, 24673, Note_on_c, 0, 66, 97
1, 24715, Note_off_c, 0, 66, 97
1, 24737, Note_on_c, 0, 74, 118
1, 24845, Note_off_c, 0, 74, 118
1, 24866, Note_on_c, 0, 69, 97
1, 24924, Note_off_c, 0, 69, 97
1, 24931, Note_on_c, 0, 70, 120
1, 25038, Note_off_c, 0, 70, 120
1, 25043, Note_on_c, 0, 67, 117
1, 25122, Note_off_c, 0, 67, 117
1, 25126, Note_on_c, 0, 64, 92
1, 25211, Note_off_c, 0, 64, 92
1, 25232, Note_on_c, 0, 61, 103
1, 25300, Note_off_c, 0, 61, 103
1, 25305, Note_on_c, 0, 60, 90
1, 25394, Note_off_c, 0, 60, 90
1, 25418, Note_on_c, 0, 58, 109
1, 25488, Note_off_c, 0, 58, 109
1, 25494, Note_on_c, 0, 57, 108
1, 25594, Note_off_c, 0, 57, 108
1, 25598, Note_on_c, 0, 58, 105
1, 25633, Note_off_c, 0, 58, 105
1, 25641, Note_on_c, 0, 59, 107
1, 25691, Note_off_c, 0, 59, 107
1, 25700, Note_on_c, 0, 60, 93
1, 25786, Note_off_c, 0, 60, 93
1, 25794, Note_on_c, 0, 65, 109
1, 25875, Note_off_c, 0, 65, 109
1, 25884, Note_on_c, 0, 64, 87
1, 25972, Note_off_c, 0, 64, 87
1, 25978, Note_on_c, 0, 65, 109
1, 26054, Note_off_c, 0, 65, 109
1, 26062, Note_on_c, 0, 68, 118
1, 26159, Note_off_c, 0, 68, 118
1, 26166, Note_on_c, 0, 71, 116
1, 26242, Note_off_c, 0, 71, 116
1, 26247, Note_on_c, 0, 74, 118
1, 26355, Note_off_c, 0, 74, 118
1, 26368, Note_on_c, 0, 69, 92
1, 26421, Note_off_c, 0, 69, 92
1, 26433, Note_on_c, 0, 70, 116
1, 26533, Note_off_c, 0, 70, 116
1, 26548, Note_on_c, 0, 71, 109
1, 26630, Note_off_c, 0, 71, 109
1, 26636, Note_on_c, 0, 72, 118
1, 26812, Note_off_c, 0, 72, 118
1, 26821, Note_on_c, 0, 70, 117
1, 26912, Note_off_c, 0, 70, 117
1, 26919, Note_on_c, 0, 67, 115
1, 26980, Note_off_c, 0, 67, 115
1, 26984, Note_on_c, 0, 69, 116
1, 27103, Note_off_c, 0, 69, 116
1, 27106, Note_on_c, 0, 70, 105
1, 27144, Note_off_c, 0, 70, 105
1, 27150, Note_on_c, 0, 71, 105
1, 27186, Note_off_c, 0, 71, 105
1, 27190, Note_on_c, 0, 72, 113
1, 27297, Note_off_c, 0, 72, 113
1, 27297, Note_on_c, 0, 67, 113
1, 27340, Note_off_c, 0, 67, 113
1, 27344, Note_on_c, 0, 68, 112
1, 27496, Note_off_c, 0, 68, 112
1, 27897, Note_on_c, 0, 61, 105
1, 27964, Note_off_c, 0, 61, 105
1, 27975, Note_on_c, 0, 62, 91
1, 28016, Note_off_c, 0, 62, 91
1, 28017, Note_on_c, 0, 65, 85
1, 28049, Note_off_c, 0, 65, 85
1, 28057, Note_on_c, 0, 69, 100
1, 28133, Note_off_c, 0, 69, 100
1, 28147, Note_on_c, 0, 72, 119
1, 28253, Note_off_c, 0, 72, 119
1, 28340, Note_on_c, 0, 70, 116
1, 28436, Note_off_c, 0, 70, 116
1, 28641, Note_on_c, 0, 77, 120
1, 28723, Note_off_c, 0, 77, 120
1, 28732, Note_on_c, 0, 72, 122
1, 28825, Note_off_c, 0, 72, 122
1, 28829, Note_on_c, 0, 70, 118
1, 28907, Note_off_c, 0, 70, 118
1, 28908, Note_on_c, 0, 69, 120
1, 29018, Note_off_c, 0, 69, 120
1, 29022, Note_on_c, 0, 70, 115
1, 29067, Note_off_c, 0, 70, 115
1, 29073, Note_on_c, 0, 71, 114
1, 29116, Note_off_c, 0, 71, 114
1, 29120, Note_on_c, 0, 72, 110
1, 29206, Note_off_c, 0, 72, 110
1, 29212, Note_on_c, 0, 69, 115
1, 29297, Note_off_c, 0, 69, 115
1, 29299, Note_on_c, 0, 65, 106
1, 29411, Note_off_c, 0, 65, 106
1, 29440, Note_on_c, 0, 64, 87
1, 29484, Note_off_c, 0, 64, 87
1, 29487, Note_on_c, 0, 67, 114
1, 29602, Note_off_c, 0, 67, 114
1, 29608, Note_on_c, 0, 65, 78
1, 30925, Note_off_c, 0, 65, 78
1, 30925, End_track
0, 0, End_of_file
