0, 0, Header, 1, 1, 192
1, 0, Start_track
1, 0, Title_t, "Melody"
1, 0, Tempo, 301507
1, 0, Key_signature, -3, "major"
1, 0, Time_signature, 4, 2, 24, 8
1, 2387, Note_on_c, 0, 78, 118
1, 2488, Note_off_c, 0, 78, 118
1, 2513, Note_on_c, 0, 79, 110
1, 2580, Note_off_c, 0, 79, 110
1, 2593, Note_on_c, 0, 78, 99
1, 2628, Note_off_c, 0, 78, 99
1, 2635, Note_on_c, 0, 79, 91
1, 2659, Note_off_c, 0, 79, 91
1, 2684, Note_on_c, 0, 78, 86
1, 2726, Note_off_c, 0, 78, 86
1, 2750, Note_on_c, 0, 77, 101
1, 2851, Note_off_c, 0, 77, 101
1, 2969, Note_on_c, 0, 75, 111
1, 3048, Note_off_c, 0, 75, 111
1, 3068, Note_on_c, 0, 72, 101
1, 3149, Note_off_c, 0, 72, 101
1, 3174, Note_on_c, 0, 70, 104
1, 3262, Note_off_c, 0, 70, 104
1, 3328, Note_on_c, 0, 75, 94
1, 3586, Note_off_c, 0, 75, 94
1, 3646, Note_on_c, 0, 67, 73
1, 3694, Note_off_c, 0, 67, 73
1, 3712, Note_on_c, 0, 70, 112
1, 3830, Note_off_c, 0, 70, 112
1, 3848, Note_on_c, 0, 72, 102
1, 3920, Note_off_c, 0, 72, 102
1, 3938, Note_on_c, 0, 75, 117
1, 4019, Note_off_c, 0, 75, 117
1, 4035, Note_on_c, 0, 79, 106
1, 4094, Note_off_c, 0, 79, 106
1, 4136, Note_on_c, 0, 74, 88
1, 4376, Note_off_c, 0, 74, 88
1, 4669, Note_on_c, 0, 66, 92
1, 4802, Note_off_c, 0, 66, 92
1, 4818, Note_on_c, 0, 72, 87
1, 5339, Note_off_c, 0, 72, 87
1, 6032, Note_on_c, 0, 84, 127
1, 6148, Note_off_c, 0, 84, 127
1, 6157, Note_on_c, 0, 82, 104
1, 6210, Note_off_c, 0, 82, 104
1, 6226, Note_on_c, 0, 79, 116
1, 6320, Note_off_c, 0, 79, 116
1, 6338, Note_on_c, 0, 77, 120
1, 6417, Note_off_c, 0, 77, 120
1, 6420, Note_on_c, 0, 75, 113
1, 6490, Note_off_c, 0, 75, 113
1, 6512, Note_on_c, 0, 72, 118
1, 6587, Note_off_c, 0, 72, 118
1, 6607, Note_on_c, 0, 70, 112
1, 6703, Note_off_c, 0, 70, 112
1, 6723, Note_on_c, 0, 67, 107
1, 6804, Note_off_c, 0, 67, 107
1, 6809, Note_on_c, 0, 65, 100
1, 6903, Note_off_c, 0, 65, 100
1, 6938, Note_on_c, 0, 64, 81
1, 6958, Note_off_c, 0, 64, 81
1, 6985, Note_on_c, 0, 70, 115
1, 7105, Note_off_c, 0, 70, 115
1, 7112, Note_on_c, 0, 75, 114
1, 7171, Note_off_c, 0, 75, 114
1, 7189, Note_on_c, 0, 80, 106
1, 7338, Note_off_c, 0, 80, 106
1, 7517, Note_on_c, 0, 67, 93
1, 7555, Note_off_c, 0, 67, 93
1, 7575, Note_on_c, 0, 70, 114
1, 7661, Note_off_c, 0, 70, 114
1, 7683, Note_on_c, 0, 72, 105
1, 7751, Note_off_c, 0, 72, 105
1, 7760, Note_on_c, 0, 80, 112
1, 7852, Note_off_c, 0, 80, 112
1, 7872, Note_on_c, 0, 80, 113
1, 7942, Note_off_c, 0, 80, 113
1, 7956, Note_on_c, 0, 79, 111
1, 8068, Note_off_c, 0, 79, 111
1, 8239, Note_on_c, 0, 72, 68
1, 8287, Note_off_c, 0, 72, 68
1, 8303, Note_on_c, 0, 76, 118
1, 8413, Note_off_c, 0, 76, 118
1, 8431, Note_on_c, 0, 79, 110
1, 8484, Note_off_c, 0, 79, 110
1, 8509, Note_on_c, 0, 74, 107
1, 8614, Note_off_c, 0, 74, 107
1, 8623, Note_on_c, 0, 75, 112
1, 8682, Note_off_c, 0, 75, 112
1, 8702, Note_on_c, 0, 79, 106
1, 8809, Note_off_c, 0, 79, 106
1, 8897, Note_on_c, 0, 67, 84
1, 8994, Note_off_c, 0, 67, 84
1, 9091, Note_on_c, 0, 72, 88
1, 9388, Note_off_c, 0, 72, 88
1, 9633, Note_on_c, 0, 79, 113
1, 9716, Note_off_c, 0, 79, 113
1, 9719, Note_on_c, 0, 82, 108
1, 9765, Note_off_c, 0, 82, 108
1, 9781, Note_on_c, 0, 79, 109
1, 9902, Note_off_c, 0, 79, 109
1, 9914, Note_on_c, 0, 79, 82
1, 9991, Note_off_c, 0, 79, 82
1, 10026, Note_on_c, 0, 79, 111
1, 10096, Note_off_c, 0, 79, 111
1, 10101, Note_on_c, 0, 82, 103
1, 10136, Note_off_c, 0, 82, 103
1, 10147, Note_on_c, 0, 79, 108
1, 10191, Note_off_c, 0, 79, 108
1, 10205, Note_on_c, 0, 78, 111
1, 10310, Note_off_c, 0, 78, 111
1, 10402, Note_on_c, 0, 78, 108
1, 10512, Note_off_c, 0, 78, 108
1, 10609, Note_on_c, 0, 78, 112
1, 10719, Note_off_c, 0, 78, 112
1, 10776, Note_on_c, 0, 78, 114
1, 10859, Note_off_c, 0, 78, 114
1, 10871, Note_on_c, 0, 82, 98
1, 10909, Note_off_c, 0, 82, 98
1, 10921, Note_on_c, 0, 78, 91
1, 10965, Note_off_c, 0, 78, 91
1, 10972, Note_on_c, 0, 77, 114
1, 11106, Note_off_c, 0, 77, 114
1, 11148, Note_on_c, 0, 77, 113
1, 11294, Note_off_c, 0, 77, 113
1, 11349, Note_on_c, 0, 77, 116
1, 11476, Note_off_c, 0, 77, 116
1, 11535, Note_on_c, 0, 82, 112
1, 11636, Note_off_c, 0, 82, 112
1, 11654, Note_on_c, 0, 79, 112
1, 11724, Note_off_c, 0, 79, 112
1, 11740, Note_on_c, 0, 77, 114
1, 11828, Note_off_c, 0, 77, 114
1, 11848, Note_on_c, 0, 75, 113
1, 11905, Note_off_c, 0, 75, 113
1, 11930, Note_on_c, 0, 74, 111
1, 12035, Note_off_c, 0, 74, 111
1, 12055, Note_on_c, 0, 75, 116
1, 12106, Note_off_c, 0, 75, 116
1, 12126, Note_on_c, 0, 74, 112
1, 12246, Note_off_c, 0, 74, 112
1, 12290, Note_on_c, 0, 67, 91
1, 12349, Note_off_c, 0, 67, 91
1, 12365, Note_on_c, 0, 69, 74
1, 12424, Note_off_c, 0, 69, 74
1, 12425, Note_on_c, 0, 70, 70
1, 12478, Note_off_c, 0, 70, 70
1, 12487, Note_on_c, 0, 74, 114
1, 12590, Note_off_c, 0, 74, 114
1, 12617, Note_on_c, 0, 75, 107
1, 12689, Note_off_c, 0, 75, 107
1, 12705, Note_on_c, 0, 72, 82
1, 12806, Note_off_c, 0, 72, 82
1, 12854, Note_on_c, 0, 74, 115
1, 12948, Note_off_c, 0, 74, 115
1, 12984, Note_on_c, 0, 72, 101
1, 13059, Note_off_c, 0, 72, 101
1, 13077, Note_on_c, 0, 79, 111
1, 13152, Note_off_c, 0, 79, 111
1, 13168, Note_on_c, 0, 76, 110
1, 13225, Note_off_c, 0, 76, 110
1, 13250, Note_on_c, 0, 77, 112
1, 13338, Note_off_c, 0, 77, 112
1, 13350, Note_on_c, 0, 75, 111
1, 13425, Note_off_c, 0, 75, 111
1, 13449, Note_on_c, 0, 72, 107
1, 13554, Note_off_c, 0, 72, 107
1, 13568, Note_on_c, 0, 68, 89
1, 13606, Note_off_c, 0, 68, 89
1, 13628, Note_on_c, 0, 65, 91
1, 13786, Note_off_c, 0, 65, 91
1, 14126, Note_on_c, 0, 84, 123
1, 14220, Note_off_c, 0, 84, 123
1, 14295, Note_on_c, 0, 79, 122
1, 14363, Note_off_c, 0, 79, 122
1, 14396, Note_on_c, 0, 82, 117
1, 14488, Note_off_c, 0, 82, 117
1, 14500, Note_on_c, 0, 79, 117
1, 14553, Note_off_c, 0, 79, 117
1, 14569, Note_on_c, 0, 75, 115
1, 14648, Note_off_c, 0, 75, 115
1, 14683, Note_on_c, 0, 72, 101
1, 14747, Note_off_c, 0, 72, 101
1, 14761, Note_on_c, 0, 75, 101
1, 14982, Note_off_c, 0, 75, 101
1, 15131, Note_on_c, 0, 69, 92
1, 15143, Note_off_c, 0, 69, 92
1, 15144, Note_on_c, 0, 70, 109
1, 15297, Note_off_c, 0, 70, 109
1, 15328, Note_on_c, 0, 72, 110
1, 15461, Note_off_c, 0, 72, 110
1, 15520, Note_on_c, 0, 75, 114
1, 15647, Note_off_c, 0, 75, 114
1, 15674, Note_on_c, 0, 79, 109
1, 15797, Note_off_c, 0, 79, 109
1, 15826, Note_on_c, 0, 82, 102
1, 16062, Note_off_c, 0, 82, 102
1, 16084, Note_on_c, 0, 79, 107
1, 16204, Note_off_c, 0, 79, 107
1, 16228, Note_on_c, 0, 74, 98
1, 16337, Note_off_c, 0, 74, 98
1, 16392, Note_on_c, 0, 74, 91
1, 16881, Note_off_c, 0, 74, 91
1, 16897, Note_on_c, 0, 69, 79
1, 16952, Note_off_c, 0, 69, 79
1, 16976, Note_on_c, 0, 72, 93
1, 17319, Note_off_c, 0, 72, 93
1, 17993, Note_on_c, 0, 70, 121
1, 18089, Note_off_c, 0, 70, 121
1, 18114, Note_on_c, 0, 72, 115
1, 18182, Note_off_c, 0, 72, 115
1, 18204, Note_on_c, 0, 69, 119
1, 18285, Note_off_c, 0, 69, 119
1, 18294, Note_on_c, 0, 70, 115
1, 18366, Note_off_c, 0, 70, 115
1, 18388, Note_on_c, 0, 66, 101
1, 18476, Note_off_c, 0, 66, 101
1, 18488, Note_on_c, 0, 67, 98
1, 18563, Note_off_c, 0, 67, 98
1, 18570, Note_on_c, 0, 58, 89
1, 18671, Note_off_c, 0, 58, 89
1, 18700, Note_on_c, 0, 60, 87
1, 18746, Note_off_c, 0, 60, 87
1, 18766, Note_on_c, 0, 63, 97
1, 18871, Note_off_c, 0, 63, 97
1, 18880, Note_on_c, 0, 66, 90
1, 18918, Note_off_c, 0, 66, 90
1, 18942, Note_on_c, 0, 70, 117
1, 19023, Note_off_c, 0, 70, 117
1, 19061, Note_on_c, 0, 75, 109
1, 19120, Note_off_c, 0, 75, 109
1, 19153, Note_on_c, 0, 79, 116
1, 19226, Note_off_c, 0, 79, 116
1, 19255, Note_on_c, 0, 82, 113
1, 19315, Note_off_c, 0, 82, 113
1, 19342, Note_on_c, 0, 80, 105
1, 19737, Note_off_c, 0, 80, 105
1, 19814, Note_on_c, 0, 80, 113
1, 19934, Note_off_c, 0, 80, 113
1, 19943, Note_on_c, 0, 79, 91
1, 19955, Note_off_c, 0, 79, 91
1, 20073, Note_on_c, 0, 79, 110
1, 20241, Note_off_c, 0, 79, 110
1, 20414, Note_on_c, 0, 79, 97
1, 21012, Note_off_c, 0, 79, 97
1, 21047, Note_on_c, 0, 78, 105
1, 21187, Note_off_c, 0, 78, 105
1, 21249, Note_on_c, 0, 79, 110
1, 21356, Note_off_c, 0, 79, 110
1, 21372, Note_on_c, 0, 75, 112
1, 21440, Note_off_c, 0, 75, 112
1, 21471, Note_on_c, 0, 72, 99
1, 21580, Note_off_c, 0, 72, 99
1, 21628, Note_on_c, 0, 75, 94
1, 21809, Note_off_c, 0, 75, 94
1, 22025, Note_on_c, 0, 71, 117
1, 22128, Note_off_c, 0, 71, 117
1, 22140, Note_on_c, 0, 72, 105
1, 22176, Note_off_c, 0, 72, 105
1, 22203, Note_on_c, 0, 75, 115
1, 22345, Note_off_c, 0, 75, 115
1, 22398, Note_on_c, 0, 79, 113
1, 22505, Note_off_c, 0, 79, 113
1, 22584, Note_on_c, 0, 79, 114
1, 22704, Note_off_c, 0, 79, 114
1, 22764, Note_on_c, 0, 79, 108
1, 22932, Note_off_c, 0, 79, 108
1, 23005, Note_on_c, 0, 75, 103
1, 23180, Note_off_c, 0, 75, 103
1, 23209, Note_on_c, 0, 82, 102
1, 23724, Note_off_c, 0, 82, 102
1, 23788, Note_on_c, 0, 79, 109
1, 23885, Note_off_c, 0, 79, 109
1, 23921, Note_on_c, 0, 77, 113
1, 24065, Note_off_c, 0, 77, 113
1, 24079, Note_on_c, 0, 75, 107
1, 24335, Note_off_c, 0, 75, 107
1, 24359, Note_on_c, 0, 72, 111
1, 24493, Note_off_c, 0, 72, 111
1, 24502, Note_on_c, 0, 68, 95
1, 24540, Note_off_c, 0, 68, 95
1, 24564, Note_on_c, 0, 66, 101
1, 24647, Note_off_c, 0, 66, 101
1, 24680, Note_on_c, 0, 63, 83
1, 24728, Note_off_c, 0, 63, 83
1, 24739, Note_on_c, 0, 70, 115
1, 24825, Note_off_c, 0, 70, 115
1, 24843, Note_on_c, 0, 72, 105
1, 24903, Note_off_c, 0, 72, 105
1, 24927, Note_on_c, 0, 75, 116
1, 25024, Note_off_c, 0, 75, 116
1, 25060, Note_on_c, 0, 79, 101
1, 25281, Note_off_c, 0, 79, 101
1, 25329, Note_on_c, 0, 70, 115
1, 25439, Note_off_c, 0, 70, 115
1, 25453, Note_on_c, 0, 75, 104
1, 25608, Note_off_c, 0, 75, 104
1, 25890, Note_on_c, 0, 70, 117
1, 25997, Note_off_c, 0, 70, 117
1, 26015, Note_on_c, 0, 72, 111
1, 26077, Note_off_c, 0, 72, 111
1, 26097, Note_on_c, 0, 75, 116
1, 26185, Note_off_c, 0, 75, 116
1, 26199, Note_on_c, 0, 79, 110
1, 26280, Note_off_c, 0, 79, 110
1, 26280, Note_on_c, 0, 82, 106
1, 26409, Note_off_c, 0, 82, 106
1, 26412, Note_on_c, 0, 75, 105
1, 26454, Note_off_c, 0, 75, 105
1, 26470, Note_on_c, 0, 79, 111
1, 26567, Note_off_c, 0, 79, 111
1, 26594, Note_on_c, 0, 72, 105
1, 26647, Note_off_c, 0, 72, 105
1, 26665, Note_on_c, 0, 75, 110
1, 26762, Note_off_c, 0, 75, 110
1, 26776, Note_on_c, 0, 72, 114
1, 26864, Note_off_c, 0, 72, 114
1, 26869, Note_on_c, 0, 70, 101
1, 27015, Note_off_c, 0, 70, 101
1, 27035, Note_on_c, 0, 75, 92
1, 27328, Note_off_c, 0, 75, 92
1, 27328, End_track
0, 0, End_of_file
