0, 0, Header, 1, 1, 840
1, 0, Start_track
1, 0, Title_t, "Melody"
1, 0, Tempo, 483870
1, 0, Key_signature, 0, "major"
1, 0, Time_signature, 4, 2, 24, 8
1, 7756, Note_on_c, 0, 71, 117
1, 7954, Note_off_c, 0, 71, 117
1, 7996, Note_on_c, 0, 74, 116
1, 8144, Note_off_c, 0, 74, 116
1, 8190, Note_on_c, 0, 72, 114
1, 8381, Note_off_c, 0, 72, 114
1, 8437, Note_on_c, 0, 67, 115
1, 8635, Note_off_c, 0, 67, 115
1, 8673, Note_on_c, 0, 64, 104
1, 8991, Note_off_c, 0, 64, 104
1, 10503, Note_on_c, 0, 59, 116
1, 10644, Note_off_c, 0, 59, 116
1, 10718, Note_on_c, 0, 62, 101
1, 10884, Note_off_c, 0, 62, 101
1, 10944, Note_on_c, 0, 61, 106
1, 11068, Note_off_c, 0, 61, 106
1, 11085, Note_on_c, 0, 60, 103
1, 11364, Note_off_c, 0, 60, 103
1, 11385, Note_on_c, 0, 64, 101
1, 11533, Note_off_c, 0, 64, 101
1, 11586, Note_on_c, 0, 67, 106
1, 11795, Note_off_c, 0, 67, 106
1, 11841, Note_on_c, 0, 69, 120
1, 11989, Note_off_c, 0, 69, 120
1, 12035, Note_on_c, 0, 71, 118
1, 12183, Note_off_c, 0, 71, 118
1, 12214, Note_on_c, 0, 72, 112
1, 12366, Note_off_c, 0, 72, 112
1, 12433, Note_on_c, 0, 69, 118
1, 12581, Note_off_c, 0, 69, 118
1, 12641, Note_on_c, 0, 70, 108
1, 12814, Note_off_c, 0, 70, 108
1, 12867, Note_on_c, 0, 68, 115
1, 12990, Note_off_c, 0, 68, 115
1, 13004, Note_on_c, 0, 70, 111
1, 13078, Note_off_c, 0, 70, 111
1, 13106, Note_on_c, 0, 68, 108
1, 13205, Note_off_c, 0, 68, 108
1, 13215, Note_on_c, 0, 66, 103
1, 13300, Note_off_c, 0, 66, 103
1, 13342, Note_on_c, 0, 62, 108
1, 13540, Note_off_c, 0, 62, 108
1, 13589, Note_on_c, 0, 60, 111
1, 13709, Note_off_c, 0, 60, 111
1, 13737, Note_on_c, 0, 59, 110
1, 13807, Note_off_c, 0, 59, 110
1, 13863, Note_on_c, 0, 58, 113
1, 13994, Note_off_c, 0, 58, 113
1, 14057, Note_on_c, 0, 56, 111
1, 14212, Note_off_c, 0, 56, 111
1, 14467, Note_on_c, 0, 60, 103
1, 14707, Note_off_c, 0, 60, 103
1, 14753, Note_on_c, 0, 56, 110
1, 15163, Note_off_c, 0, 56, 110
1, 15223, Note_on_c, 0, 55, 111
1, 15442, Note_off_c, 0, 55, 111
1, 15544, Note_on_c, 0, 54, 107
1, 15901, Note_off_c, 0, 54, 107
1, 16177, Note_on_c, 0, 60, 104
1, 16435, Note_off_c, 0, 60, 104
1, 16590, Note_on_c, 0, 57, 107
1, 16823, Note_off_c, 0, 57, 107
1, 16872, Note_on_c, 0, 55, 101
1, 17226, Note_off_c, 0, 55, 101
1, 17484, Note_on_c, 0, 59, 109
1, 17831, Note_off_c, 0, 59, 109
1, 18011, Note_on_c, 0, 55, 105
1, 18340, Note_off_c, 0, 55, 105
1, 18474, Note_on_c, 0, 52, 110
1, 18838, Note_off_c, 0, 52, 110
1, 19156, Note_on_c, 0, 52, 109
1, 19318, Note_off_c, 0, 52, 109
1, 19335, Note_on_c, 0, 51, 111
1, 19742, Note_off_c, 0, 51, 111
1, 19770, Note_on_c, 0, 52, 107
1, 20145, Note_off_c, 0, 52, 107
1, 20230, Note_on_c, 0, 57, 105
1, 21066, Note_off_c, 0, 57, 105
1, 22213, Note_on_c, 0, 55, 113
1, 22358, Note_off_c, 0, 55, 113
1, 22418, Note_on_c, 0, 57, 105
1, 22687, Note_off_c, 0, 57, 105
1, 22711, Note_on_c, 0, 59, 107
1, 22813, Note_off_c, 0, 59, 107
1, 22848, Note_on_c, 0, 62, 102
1, 23021, Note_off_c, 0, 62, 102
1, 23077, Note_on_c, 0, 60, 98
1, 23261, Note_off_c, 0, 60, 98
1, 23385, Note_on_c, 0, 64, 94
1, 23523, Note_off_c, 0, 64, 94
1, 23583, Note_on_c, 0, 67, 110
1, 23745, Note_off_c, 0, 67, 110
1, 23783, Note_on_c, 0, 69, 117
1, 23992, Note_off_c, 0, 69, 117
1, 24045, Note_on_c, 0, 71, 109
1, 24169, Note_off_c, 0, 71, 109
1, 24232, Note_on_c, 0, 74, 110
1, 24402, Note_off_c, 0, 74, 110
1, 24440, Note_on_c, 0, 73, 106
1, 24624, Note_off_c, 0, 73, 106
1, 24655, Note_on_c, 0, 72, 108
1, 24810, Note_off_c, 0, 72, 108
1, 24838, Note_on_c, 0, 69, 120
1, 25008, Note_off_c, 0, 69, 120
1, 25025, Note_on_c, 0, 70, 117
1, 25258, Note_off_c, 0, 70, 117
1, 25282, Note_on_c, 0, 69, 108
1, 25501, Note_off_c, 0, 69, 108
1, 27155, Note_on_c, 0, 70, 111
1, 27208, Note_off_c, 0, 70, 111
1, 27225, Note_on_c, 0, 72, 108
1, 27271, Note_off_c, 0, 72, 108
1, 27292, Note_on_c, 0, 70, 113
1, 27394, Note_off_c, 0, 70, 113
1, 27468, Note_on_c, 0, 67, 117
1, 27655, Note_off_c, 0, 67, 117
1, 27683, Note_on_c, 0, 68, 121
1, 27934, Note_off_c, 0, 68, 121
1, 27958, Note_on_c, 0, 69, 122
1, 28177, Note_off_c, 0, 69, 122
1, 28297, Note_on_c, 0, 64, 113
1, 28481, Note_off_c, 0, 64, 113
1, 28509, Note_on_c, 0, 67, 116
1, 28749, Note_off_c, 0, 67, 116
1, 28787, Note_on_c, 0, 66, 115
1, 29052, Note_off_c, 0, 66, 115
1, 29122, Note_on_c, 0, 64, 107
1, 29348, Note_off_c, 0, 64, 107
1, 29394, Note_on_c, 0, 60, 115
1, 29581, Note_off_c, 0, 60, 115
1, 29662, Note_on_c, 0, 57, 108
1, 30080, Note_off_c, 0, 57, 108
1, 30179, Note_on_c, 0, 62, 103
1, 30600, Note_off_c, 0, 62, 103
1, 31517, Note_on_c, 0, 61, 104
1, 31651, Note_off_c, 0, 61, 104
1, 31665, Note_on_c, 0, 64, 109
1, 31831, Note_off_c, 0, 64, 109
1, 32093, Note_on_c, 0, 67, 118
1, 32450, Note_off_c, 0, 67, 118
1, 34288, Note_on_c, 0, 62, 114
1, 34394, Note_off_c, 0, 62, 114
1, 34422, Note_on_c, 0, 63, 114
1, 34574, Note_off_c, 0, 63, 114
1, 34630, Note_on_c, 0, 64, 116
1, 34867, Note_off_c, 0, 64, 116
1, 34905, Note_on_c, 0, 67, 121
1, 35153, Note_off_c, 0, 67, 121
1, 35181, Note_on_c, 0, 69, 122
1, 35407, Note_off_c, 0, 69, 122
1, 35555, Note_on_c, 0, 72, 112
1, 35806, Note_off_c, 0, 72, 112
1, 35827, Note_on_c, 0, 74, 100
1, 35880, Note_off_c, 0, 74, 100
1, 35915, Note_on_c, 0, 72, 103
1, 35968, Note_off_c, 0, 72, 103
1, 36035, Note_on_c, 0, 69, 121
1, 36304, Note_off_c, 0, 69, 121
1, 36346, Note_on_c, 0, 70, 112
1, 36647, Note_off_c, 0, 70, 112
1, 36820, Note_on_c, 0, 74, 112
1, 37142, Note_off_c, 0, 74, 112
1, 37184, Note_on_c, 0, 69, 118
1, 37492, Note_off_c, 0, 69, 118
1, 37669, Note_on_c, 0, 67, 112
1, 37902, Note_off_c, 0, 67, 112
1, 38100, Note_on_c, 0, 62, 101
1, 38365, Note_off_c, 0, 62, 101
1, 38478, Note_on_c, 0, 65, 112
1, 38708, Note_off_c, 0, 65, 112
1, 38785, Note_on_c, 0, 64, 108
1, 39234, Note_off_c, 0, 64, 108
1, 39570, Note_on_c, 0, 63, 104
1, 40062, Note_off_c, 0, 63, 104
1, 40186, Note_on_c, 0, 62, 103
1, 40848, Note_off_c, 0, 62, 103
1, 41666, Note_on_c, 0, 57, 105
1, 41832, Note_off_c, 0, 57, 105
1, 41899, Note_on_c, 0, 60, 109
1, 42154, Note_off_c, 0, 60, 109
1, 42239, Note_on_c, 0, 65, 117
1, 42440, Note_off_c, 0, 65, 117
1, 42525, Note_on_c, 0, 63, 102
1, 42677, Note_off_c, 0, 63, 102
1, 42751, Note_on_c, 0, 67, 117
1, 43027, Note_off_c, 0, 67, 117
1, 43097, Note_on_c, 0, 64, 99
1, 43210, Note_off_c, 0, 64, 99
1, 43220, Note_on_c, 0, 65, 116
1, 43496, Note_off_c, 0, 65, 116
1, 43595, Note_on_c, 0, 69, 120
1, 43924, Note_off_c, 0, 69, 120
1, 44094, Note_on_c, 0, 72, 110
1, 44434, Note_off_c, 0, 72, 110
1, 44497, Note_on_c, 0, 74, 112
1, 44861, Note_off_c, 0, 74, 112
1, 44951, Note_on_c, 0, 72, 109
1, 45245, Note_off_c, 0, 72, 109
1, 45438, Note_on_c, 0, 74, 116
1, 45611, Note_off_c, 0, 74, 116
1, 45623, Note_on_c, 0, 75, 114
1, 45852, Note_off_c, 0, 75, 114
1, 45932, Note_on_c, 0, 72, 108
1, 46153, Note_off_c, 0, 72, 108
1, 46185, Note_on_c, 0, 74, 106
1, 46547, Note_off_c, 0, 74, 106
1, 46793, Note_on_c, 0, 67, 116
1, 46949, Note_off_c, 0, 67, 116
1, 46969, Note_on_c, 0, 68, 115
1, 47205, Note_off_c, 0, 68, 115
1, 47229, Note_on_c, 0, 70, 115
1, 47338, Note_off_c, 0, 70, 115
1, 47355, Note_on_c, 0, 71, 115
1, 47468, Note_off_c, 0, 71, 115
1, 47496, Note_on_c, 0, 72, 114
1, 47782, Note_off_c, 0, 72, 114
1, 47849, Note_on_c, 0, 68, 122
1, 48118, Note_off_c, 0, 68, 122
1, 48213, Note_on_c, 0, 65, 111
1, 48305, Note_off_c, 0, 65, 111
1, 48343, Note_on_c, 0, 64, 100
1, 48544, Note_off_c, 0, 64, 100
1, 48717, Note_on_c, 0, 67, 111
1, 48911, Note_off_c, 0, 67, 111
1, 48978, Note_on_c, 0, 64, 107
1, 49229, Note_off_c, 0, 64, 107
1, 49477, Note_on_c, 0, 55, 111
1, 49700, Note_off_c, 0, 55, 111
1, 50061, Note_on_c, 0, 62, 104
1, 50309, Note_off_c, 0, 62, 104
1, 50397, Note_on_c, 0, 60, 102
1, 50687, Note_off_c, 0, 60, 102
1, 51973, Note_on_c, 0, 68, 121
1, 52054, Note_off_c, 0, 68, 121
1, 52100, Note_on_c, 0, 70, 115
1, 52241, Note_off_c, 0, 70, 115
1, 52276, Note_on_c, 0, 68, 113
1, 52605, Note_off_c, 0, 68, 113
1, 52842, Note_on_c, 0, 62, 105
1, 53086, Note_off_c, 0, 62, 105
1, 53440, Note_on_c, 0, 67, 108
1, 53776, Note_off_c, 0, 67, 108
1, 53836, Note_on_c, 0, 64, 104
1, 54246, Note_off_c, 0, 64, 104
1, 55273, Note_on_c, 0, 71, 118
1, 55517, Note_off_c, 0, 71, 118
1, 55541, Note_on_c, 0, 69, 118
1, 55824, Note_off_c, 0, 69, 118
1, 56153, Note_on_c, 0, 57, 111
1, 56404, Note_off_c, 0, 57, 111
1, 56754, Note_on_c, 0, 65, 109
1, 56945, Note_off_c, 0, 65, 109
1, 57394, Note_on_c, 0, 64, 105
1, 57673, Note_off_c, 0, 64, 105
1, 57963, Note_on_c, 0, 55, 104
1, 58210, Note_off_c, 0, 55, 104
1, 58535, Note_on_c, 0, 62, 107
1, 58758, Note_off_c, 0, 62, 107
1, 58807, Note_on_c, 0, 60, 88
1, 59455, Note_off_c, 0, 60, 88
1, 60167, Note_on_c, 0, 63, 113
1, 60290, Note_off_c, 0, 63, 113
1, 60339, Note_on_c, 0, 64, 117
1, 60533, Note_off_c, 0, 64, 117
1, 60554, Note_on_c, 0, 67, 123
1, 60759, Note_off_c, 0, 67, 123
1, 60790, Note_on_c, 0, 69, 124
1, 61084, Note_off_c, 0, 69, 124
1, 61151, Note_on_c, 0, 73, 113
1, 61338, Note_off_c, 0, 73, 113
1, 61355, Note_on_c, 0, 74, 116
1, 61592, Note_off_c, 0, 74, 116
1, 61808, Note_on_c, 0, 72, 121
1, 62006, Note_off_c, 0, 72, 121
1, 62342, Note_on_c, 0, 67, 116
1, 62558, Note_off_c, 0, 67, 116
1, 62667, Note_on_c, 0, 64, 111
1, 62936, Note_off_c, 0, 64, 111
1, 62957, Note_on_c, 0, 60, 113
1, 63038, Note_off_c, 0, 60, 113
1, 63055, Note_on_c, 0, 62, 109
1, 63118, Note_off_c, 0, 62, 109
1, 63149, Note_on_c, 0, 60, 108
1, 63234, Note_off_c, 0, 60, 108
1, 63294, Note_on_c, 0, 57, 109
1, 63573, Note_off_c, 0, 57, 109
1, 63672, Note_on_c, 0, 62, 112
1, 63898, Note_off_c, 0, 62, 112
1, 63939, Note_on_c, 0, 60, 109
1, 64180, Note_off_c, 0, 60, 109
1, 65001, Note_on_c, 0, 60, 114
1, 65084, Note_off_c, 0, 60, 114
1, 65111, Note_on_c, 0, 62, 109
1, 65166, Note_off_c, 0, 62, 109
1, 65193, Note_on_c, 0, 60, 112
1, 65278, Note_off_c, 0, 60, 112
1, 65283, Note_on_c, 0, 59, 116
1, 65363, Note_off_c, 0, 59, 116
1, 65395, Note_on_c, 0, 58, 118
1, 65609, Note_off_c, 0, 58, 118
1, 65644, Note_on_c, 0, 57, 113
1, 65795, Note_off_c, 0, 57, 113
1, 65868, Note_on_c, 0, 56, 115
1, 66117, Note_off_c, 0, 56, 115
1, 66227, Note_on_c, 0, 68, 121
1, 66499, Note_off_c, 0, 68, 121
1, 66556, Note_on_c, 0, 65, 111
1, 66790, Note_off_c, 0, 65, 111
1, 66913, Note_on_c, 0, 62, 107
1, 67154, Note_off_c, 0, 62, 107
1, 67383, Note_on_c, 0, 61, 105
1, 67627, Note_off_c, 0, 61, 105
1, 67974, Note_on_c, 0, 69, 114
1, 68225, Note_off_c, 0, 69, 114
1, 68358, Note_on_c, 0, 67, 107
1, 68564, Note_off_c, 0, 67, 107
1, 68921, Note_on_c, 0, 66, 108
1, 69160, Note_off_c, 0, 66, 108
1, 69507, Note_on_c, 0, 74, 105
1, 69761, Note_off_c, 0, 74, 105
1, 70063, Note_on_c, 0, 72, 110
1, 70297, Note_off_c, 0, 72, 110
1, 70669, Note_on_c, 0, 71, 114
1, 70953, Note_off_c, 0, 71, 114
1, 71240, Note_on_c, 0, 79, 104
1, 71559, Note_off_c, 0, 79, 104
1, 71818, Note_on_c, 0, 77, 113
1, 72127, Note_off_c, 0, 77, 113
1, 72399, Note_on_c, 0, 76, 111
1, 72643, Note_off_c, 0, 76, 111
1, 73121, Note_on_c, 0, 67, 106
1, 73647, Note_off_c, 0, 67, 106
1, 74805, Note_on_c, 0, 76, 112
1, 75056, Note_off_c, 0, 76, 112
1, 75267, Note_on_c, 0, 79, 104
1, 75506, Note_off_c, 0, 79, 104
1, 75742, Note_on_c, 0, 84, 108
1, 75958, Note_off_c, 0, 84, 108
1, 76099, Note_on_c, 0, 79, 104
1, 76257, Note_off_c, 0, 79, 104
1, 76481, Note_on_c, 0, 75, 116
1, 76753, Note_off_c, 0, 75, 116
1, 76765, Note_on_c, 0, 76, 110
1, 76951, Note_off_c, 0, 76, 110
1, 77071, Note_on_c, 0, 72, 107
1, 77254, Note_off_c, 0, 72, 107
1, 77357, Note_on_c, 0, 67, 113
1, 77543, Note_off_c, 0, 67, 113
1, 77636, Note_on_c, 0, 64, 108
1, 77807, Note_off_c, 0, 64, 108
1, 77837, Note_on_c, 0, 61, 106
1, 77907, Note_off_c, 0, 61, 106
1, 77929, Note_on_c, 0, 60, 114
1, 78004, Note_off_c, 0, 60, 114
1, 78031, Note_on_c, 0, 58, 115
1, 78235, Note_off_c, 0, 58, 115
1, 78290, Note_on_c, 0, 57, 107
1, 78481, Note_off_c, 0, 57, 107
1, 78722, Note_on_c, 0, 60, 102
1, 78868, Note_off_c, 0, 60, 102
1, 78915, Note_on_c, 0, 55, 109
1, 79096, Note_off_c, 0, 55, 109
1, 79138, Note_on_c, 0, 54, 106
1, 79296, Note_off_c, 0, 54, 106
1, 79371, Note_on_c, 0, 53, 105
1, 79549, Note_off_c, 0, 53, 105
1, 79609, Note_on_c, 0, 52, 111
1, 79777, Note_off_c, 0, 52, 111
1, 79839, Note_on_c, 0, 51, 113
1, 80022, Note_off_c, 0, 51, 113
1, 80079, Note_on_c, 0, 50, 114
1, 80343, Note_off_c, 0, 50, 114
1, 80511, Note_on_c, 0, 58, 113
1, 80785, Note_off_c, 0, 58, 113
1, 80880, Note_on_c, 0, 56, 114
1, 81152, Note_off_c, 0, 56, 114
1, 81214, Note_on_c, 0, 57, 111
1, 81493, Note_off_c, 0, 57, 111
1, 81611, Note_on_c, 0, 69, 109
1, 81976, Note_off_c, 0, 69, 109
1, 82036, Note_on_c, 0, 68, 116
1, 82267, Note_off_c, 0, 68, 116
1, 82327, Note_on_c, 0, 67, 110
1, 82546, Note_off_c, 0, 67, 110
1, 82606, Note_on_c, 0, 66, 109
1, 82893, Note_off_c, 0, 66, 109
1, 82955, Note_on_c, 0, 71, 106
1, 83184, Note_off_c, 0, 71, 106
1, 83221, Note_on_c, 0, 70, 103
1, 83477, Note_off_c, 0, 70, 103
1, 83519, Note_on_c, 0, 69, 110
1, 83770, Note_off_c, 0, 69, 110
1, 83883, Note_on_c, 0, 64, 92
1, 84218, Note_off_c, 0, 64, 92
1, 84286, Note_on_c, 0, 60, 97
1, 85132, Note_off_c, 0, 60, 97
1, 85280, Note_on_c, 0, 57, 113
1, 85528, Note_off_c, 0, 57, 113
1, 85627, Note_on_c, 0, 62, 102
1, 85867, Note_off_c, 0, 62, 102
1, 87195, Note_on_c, 0, 60, 99
1, 87464, Note_off_c, 0, 60, 99
1, 87478, Note_on_c, 0, 64, 117
1, 87757, Note_off_c, 0, 64, 117
1, 87792, Note_on_c, 0, 67, 123
1, 88061, Note_off_c, 0, 67, 123
1, 88107, Note_on_c, 0, 69, 127
1, 88595, Note_off_c, 0, 69, 127
1, 88641, Note_on_c, 0, 67, 116
1, 88864, Note_off_c, 0, 67, 116
1, 89033, Note_on_c, 0, 72, 116
1, 89899, Note_off_c, 0, 72, 116
1, 89979, Note_on_c, 0, 74, 115
1, 90291, Note_off_c, 0, 74, 115
1, 90346, Note_on_c, 0, 72, 110
1, 90502, Note_off_c, 0, 72, 110
1, 90873, Note_on_c, 0, 81, 104
1, 91074, Note_off_c, 0, 81, 104
1, 91357, Note_on_c, 0, 74, 118
1, 91417, Note_off_c, 0, 74, 118
1, 91431, Note_on_c, 0, 75, 118
1, 91671, Note_off_c, 0, 75, 118
1, 91918, Note_on_c, 0, 72, 116
1, 92130, Note_off_c, 0, 72, 116
1, 93497, Note_on_c, 0, 66, 103
1, 93624, Note_off_c, 0, 66, 103
1, 93925, Note_on_c, 0, 70, 114
1, 94112, Note_off_c, 0, 70, 114
1, 94140, Note_on_c, 0, 72, 106
1, 94217, Note_off_c, 0, 72, 106
1, 94241, Note_on_c, 0, 71, 108
1, 94322, Note_off_c, 0, 71, 108
1, 94343, Note_on_c, 0, 69, 120
1, 94562, Note_off_c, 0, 69, 120
1, 94611, Note_on_c, 0, 72, 110
1, 94742, Note_off_c, 0, 72, 110
1, 94788, Note_on_c, 0, 70, 108
1, 94947, Note_off_c, 0, 70, 108
1, 95021, Note_on_c, 0, 67, 113
1, 95155, Note_off_c, 0, 67, 113
1, 95268, Note_on_c, 0, 64, 102
1, 95420, Note_off_c, 0, 64, 102
1, 95444, Note_on_c, 0, 60, 102
1, 95536, Note_off_c, 0, 60, 102
1, 95557, Note_on_c, 0, 59, 114
1, 95652, Note_off_c, 0, 59, 114
1, 95680, Note_on_c, 0, 58, 116
1, 95889, Note_off_c, 0, 58, 116
1, 95920, Note_on_c, 0, 56, 109
1, 96121, Note_off_c, 0, 56, 109
1, 96248, Note_on_c, 0, 60, 101
1, 96361, Note_off_c, 0, 60, 101
1, 96467, Note_on_c, 0, 67, 110
1, 96714, Note_off_c, 0, 67, 110
1, 96784, Note_on_c, 0, 64, 103
1, 96883, Note_off_c, 0, 64, 103
1, 96950, Note_on_c, 0, 65, 110
1, 97088, Note_off_c, 0, 65, 110
1, 97109, Note_on_c, 0, 69, 111
1, 97183, Note_off_c, 0, 69, 111
1, 97243, Note_on_c, 0, 72, 93
1, 97349, Note_off_c, 0, 72, 93
1, 97380, Note_on_c, 0, 76, 110
1, 97620, Note_off_c, 0, 76, 110
1, 97651, Note_on_c, 0, 79, 89
1, 97842, Note_off_c, 0, 79, 89
1, 98058, Note_on_c, 0, 74, 99
1, 98306, Note_off_c, 0, 74, 99
1, 98422, Note_on_c, 0, 77, 106
1, 98634, Note_off_c, 0, 77, 106
1, 98676, Note_on_c, 0, 76, 103
1, 98895, Note_off_c, 0, 76, 103
1, 98983, Note_on_c, 0, 72, 104
1, 99252, Note_off_c, 0, 72, 104
1, 99375, Note_on_c, 0, 68, 117
1, 99608, Note_off_c, 0, 68, 117
1, 99765, Note_on_c, 0, 74, 103
1, 99958, Note_off_c, 0, 74, 103
1, 100112, Note_on_c, 0, 72, 103
1, 100312, Note_off_c, 0, 72, 103
1, 100428, Note_on_c, 0, 68, 114
1, 100656, Note_off_c, 0, 68, 114
1, 100763, Note_on_c, 0, 62, 103
1, 100916, Note_off_c, 0, 62, 103
1, 101009, Note_on_c, 0, 60, 103
1, 101165, Note_off_c, 0, 60, 103
1, 101177, Note_on_c, 0, 59, 111
1, 101287, Note_off_c, 0, 59, 111
1, 101294, Note_on_c, 0, 58, 111
1, 101422, Note_off_c, 0, 58, 111
1, 101429, Note_on_c, 0, 57, 113
1, 101521, Note_off_c, 0, 57, 113
1, 101535, Note_on_c, 0, 56, 114
1, 101612, Note_off_c, 0, 56, 114
1, 101647, Note_on_c, 0, 55, 105
1, 101838, Note_off_c, 0, 55, 105
1, 102029, Note_on_c, 0, 64, 102
1, 102158, Note_off_c, 0, 64, 102
1, 102182, Note_on_c, 0, 55, 102
1, 102412, Note_off_c, 0, 55, 102
1, 102520, Note_on_c, 0, 52, 103
1, 103026, Note_off_c, 0, 52, 103
1, 104312, Note_on_c, 0, 59, 112
1, 104563, Note_off_c, 0, 59, 112
1, 104603, Note_on_c, 0, 60, 113
1, 104854, Note_off_c, 0, 60, 113
1, 104892, Note_on_c, 0, 64, 110
1, 105138, Note_off_c, 0, 64, 110
1, 105169, Note_on_c, 0, 67, 121
1, 105411, Note_off_c, 0, 67, 121
1, 105440, Note_on_c, 0, 69, 120
1, 105757, Note_off_c, 0, 69, 120
1, 105854, Note_on_c, 0, 68, 110
1, 105974, Note_off_c, 0, 68, 110
1, 105977, Note_on_c, 0, 71, 116
1, 106244, Note_off_c, 0, 71, 116
1, 106407, Note_on_c, 0, 70, 51
1, 106590, Note_off_c, 0, 70, 51
1, 106597, Note_on_c, 0, 71, 113
1, 106866, Note_off_c, 0, 71, 113
1, 107004, Note_on_c, 0, 70, 112
1, 107132, Note_off_c, 0, 70, 112
1, 107142, Note_on_c, 0, 71, 111
1, 107363, Note_off_c, 0, 71, 111
1, 107390, Note_on_c, 0, 70, 109
1, 107528, Note_off_c, 0, 70, 109
1, 107858, Note_on_c, 0, 64, 103
1, 108084, Note_off_c, 0, 64, 103
1, 108184, Note_on_c, 0, 69, 105
1, 108571, Note_off_c, 0, 69, 105
1, 108727, Note_on_c, 0, 71, 113
1, 108986, Note_off_c, 0, 71, 113
1, 109018, Note_on_c, 0, 72, 105
1, 109340, Note_off_c, 0, 72, 105
1, 109502, Note_on_c, 0, 69, 114
1, 109767, Note_off_c, 0, 69, 114
1, 109908, Note_on_c, 0, 63, 109
1, 110173, Note_off_c, 0, 63, 109
1, 110190, Note_on_c, 0, 62, 91
1, 110331, Note_off_c, 0, 62, 91
1, 110451, Note_on_c, 0, 60, 96
1, 110546, Note_off_c, 0, 60, 96
1, 110631, Note_on_c, 0, 62, 98
1, 111403, Note_off_c, 0, 62, 98
1, 111619, Note_on_c, 0, 57, 102
1, 111785, Note_off_c, 0, 57, 102
1, 112118, Note_on_c, 0, 60, 108
1, 112288, Note_off_c, 0, 60, 108
1, 112606, Note_on_c, 0, 69, 112
1, 112907, Note_off_c, 0, 69, 112
1, 113225, Note_on_c, 0, 63, 110
1, 113412, Note_off_c, 0, 63, 110
1, 113890, Note_on_c, 0, 57, 109
1, 114052, Note_off_c, 0, 57, 109
1, 114271, Note_on_c, 0, 60, 108
1, 114497, Note_off_c, 0, 60, 108
1, 114783, Note_on_c, 0, 69, 118
1, 115041, Note_off_c, 0, 69, 118
1, 115413, Note_on_c, 0, 63, 110
1, 115614, Note_off_c, 0, 63, 110
1, 115922, Note_on_c, 0, 57, 99
1, 116283, Note_off_c, 0, 57, 99
1, 116357, Note_on_c, 0, 60, 103
1, 116870, Note_off_c, 0, 60, 103
1, 117908, Note_on_c, 0, 69, 121
1, 118106, Note_off_c, 0, 69, 121
1, 118421, Note_on_c, 0, 63, 106
1, 118757, Note_off_c, 0, 63, 106
1, 119068, Note_on_c, 0, 57, 103
1, 119291, Note_off_c, 0, 57, 103
1, 119556, Note_on_c, 0, 60, 105
1, 119889, Note_off_c, 0, 60, 105
1, 121132, Note_on_c, 0, 69, 122
1, 121298, Note_off_c, 0, 69, 122
1, 121797, Note_on_c, 0, 63, 108
1, 122041, Note_off_c, 0, 63, 108
1, 122388, Note_on_c, 0, 57, 100
1, 122678, Note_off_c, 0, 57, 100
1, 122911, Note_on_c, 0, 60, 97
1, 123414, Note_off_c, 0, 60, 97
1, 123467, Note_on_c, 0, 59, 108
1, 123605, Note_off_c, 0, 59, 108
1, 123636, Note_on_c, 0, 57, 104
1, 123781, Note_off_c, 0, 57, 104
1, 124075, Note_on_c, 0, 69, 116
1, 124319, Note_off_c, 0, 69, 116
1, 124581, Note_on_c, 0, 62, 107
1, 124775, Note_off_c, 0, 62, 107
1, 125132, Note_on_c, 0, 57, 102
1, 125355, Note_off_c, 0, 57, 102
1, 125737, Note_on_c, 0, 60, 106
1, 126027, Note_off_c, 0, 60, 106
1, 126856, Note_on_c, 0, 59, 114
1, 127004, Note_off_c, 0, 59, 114
1, 127018, Note_on_c, 0, 60, 112
1, 127092, Note_off_c, 0, 60, 112
1, 127109, Note_on_c, 0, 62, 107
1, 127215, Note_off_c, 0, 62, 107
1, 127261, Note_on_c, 0, 67, 110
1, 127402, Note_off_c, 0, 67, 110
1, 127462, Note_on_c, 0, 71, 117
1, 127748, Note_off_c, 0, 71, 117
1, 127833, Note_on_c, 0, 74, 114
1, 128034, Note_off_c, 0, 74, 114
1, 128274, Note_on_c, 0, 71, 115
1, 128429, Note_off_c, 0, 71, 115
1, 128613, Note_on_c, 0, 67, 118
1, 128783, Note_off_c, 0, 67, 118
1, 128832, Note_on_c, 0, 64, 113
1, 129030, Note_off_c, 0, 64, 113
1, 129068, Note_on_c, 0, 60, 115
1, 129199, Note_off_c, 0, 60, 115
1, 129259, Note_on_c, 0, 58, 117
1, 129421, Note_off_c, 0, 58, 117
1, 129491, Note_on_c, 0, 55, 113
1, 129572, Note_off_c, 0, 55, 113
1, 129621, Note_on_c, 0, 50, 106
1, 129723, Note_off_c, 0, 50, 106
1, 129761, Note_on_c, 0, 57, 106
1, 129849, Note_off_c, 0, 57, 106
1, 129887, Note_on_c, 0, 64, 102
1, 130092, Note_off_c, 0, 64, 102
1, 130127, Note_on_c, 0, 60, 105
1, 130364, Note_off_c, 0, 60, 105
1, 130456, Note_on_c, 0, 55, 109
1, 130622, Note_off_c, 0, 55, 109
1, 130866, Note_on_c, 0, 64, 107
1, 131071, Note_off_c, 0, 64, 107
1, 132243, Note_on_c, 0, 53, 108
1, 132370, Note_off_c, 0, 53, 108
1, 132614, Note_on_c, 0, 58, 112
1, 132805, Note_off_c, 0, 58, 112
1, 132957, Note_on_c, 0, 62, 105
1, 133162, Note_off_c, 0, 62, 105
1, 133239, Note_on_c, 0, 65, 115
1, 133440, Note_off_c, 0, 65, 115
1, 133549, Note_on_c, 0, 70, 112
1, 133683, Note_off_c, 0, 70, 112
1, 133814, Note_on_c, 0, 74, 110
1, 134012, Note_off_c, 0, 74, 110
1, 134249, Note_on_c, 0, 79, 98
1, 134426, Note_off_c, 0, 79, 98
1, 134670, Note_on_c, 0, 80, 102
1, 134850, Note_off_c, 0, 80, 102
1, 135083, Note_on_c, 0, 80, 100
1, 135114, Note_off_c, 0, 80, 100
1, 135128, Note_on_c, 0, 81, 106
1, 135252, Note_off_c, 0, 81, 106
1, 135503, Note_on_c, 0, 69, 112
1, 135687, Note_off_c, 0, 69, 112
1, 135931, Note_on_c, 0, 71, 111
1, 136154, Note_off_c, 0, 71, 111
1, 136274, Note_on_c, 0, 72, 105
1, 136454, Note_off_c, 0, 72, 105
1, 136634, Note_on_c, 0, 68, 114
1, 136843, Note_off_c, 0, 68, 114
1, 136967, Note_on_c, 0, 71, 112
1, 137151, Note_off_c, 0, 71, 112
1, 137310, Note_on_c, 0, 69, 119
1, 137469, Note_off_c, 0, 69, 119
1, 137628, Note_on_c, 0, 64, 99
1, 137727, Note_off_c, 0, 64, 99
1, 137843, Note_on_c, 0, 66, 113
1, 138083, Note_off_c, 0, 66, 113
1, 138221, Note_on_c, 0, 64, 106
1, 138408, Note_off_c, 0, 64, 106
1, 138617, Note_on_c, 0, 60, 109
1, 138826, Note_off_c, 0, 60, 109
1, 139268, Note_on_c, 0, 62, 108
1, 139611, Note_off_c, 0, 62, 108
1, 141141, Note_on_c, 0, 59, 119
1, 141300, Note_off_c, 0, 59, 119
1, 141346, Note_on_c, 0, 62, 110
1, 141459, Note_off_c, 0, 62, 110
1, 141544, Note_on_c, 0, 65, 123
1, 141731, Note_off_c, 0, 65, 123
1, 141773, Note_on_c, 0, 64, 117
1, 141928, Note_off_c, 0, 64, 117
1, 141977, Note_on_c, 0, 67, 123
1, 142143, Note_off_c, 0, 67, 123
1, 142196, Note_on_c, 0, 71, 121
1, 142383, Note_off_c, 0, 71, 121
1, 142439, Note_on_c, 0, 74, 116
1, 142605, Note_off_c, 0, 74, 116
1, 142626, Note_on_c, 0, 72, 115
1, 142711, Note_off_c, 0, 72, 115
1, 142749, Note_on_c, 0, 74, 108
1, 142837, Note_off_c, 0, 74, 108
1, 142861, Note_on_c, 0, 72, 115
1, 142931, Note_off_c, 0, 72, 115
1, 142987, Note_on_c, 0, 69, 118
1, 143327, Note_off_c, 0, 69, 118
1, 143390, Note_on_c, 0, 70, 119
1, 143659, Note_off_c, 0, 70, 119
1, 143871, Note_on_c, 0, 62, 113
1, 144083, Note_off_c, 0, 62, 113
1, 144249, Note_on_c, 0, 66, 116
1, 144465, Note_off_c, 0, 66, 116
1, 144507, Note_on_c, 0, 69, 117
1, 144786, Note_off_c, 0, 69, 117
1, 144895, Note_on_c, 0, 62, 115
1, 145270, Note_off_c, 0, 62, 115
1, 145319, Note_on_c, 0, 54, 113
1, 145460, Note_off_c, 0, 54, 113
1, 145498, Note_on_c, 0, 57, 108
1, 145579, Note_off_c, 0, 57, 108
1, 145614, Note_on_c, 0, 54, 114
1, 145755, Note_off_c, 0, 54, 114
1, 145822, Note_on_c, 0, 57, 114
1, 145928, Note_off_c, 0, 57, 114
1, 145959, Note_on_c, 0, 62, 113
1, 146022, Note_off_c, 0, 62, 113
1, 146057, Note_on_c, 0, 58, 115
1, 146152, Note_off_c, 0, 58, 115
1, 146205, Note_on_c, 0, 62, 103
1, 146332, Note_off_c, 0, 62, 103
1, 146363, Note_on_c, 0, 65, 104
1, 146483, Note_off_c, 0, 65, 104
1, 146603, Note_on_c, 0, 66, 109
1, 146730, Note_off_c, 0, 66, 109
1, 146807, Note_on_c, 0, 70, 115
1, 146906, Note_off_c, 0, 70, 115
1, 146941, Note_on_c, 0, 66, 114
1, 147026, Note_off_c, 0, 66, 114
1, 147061, Note_on_c, 0, 70, 108
1, 147128, Note_off_c, 0, 70, 108
1, 147170, Note_on_c, 0, 74, 105
1, 147272, Note_off_c, 0, 74, 105
1, 147310, Note_on_c, 0, 70, 117
1, 147444, Note_off_c, 0, 70, 117
1, 147497, Note_on_c, 0, 74, 112
1, 147557, Note_off_c, 0, 74, 112
1, 147617, Note_on_c, 0, 78, 120
1, 147843, Note_off_c, 0, 78, 120
1, 148703, Note_on_c, 0, 78, 112
1, 148745, Note_off_c, 0, 78, 112
1, 148776, Note_on_c, 0, 79, 109
1, 148907, Note_off_c, 0, 79, 109
1, 149296, Note_on_c, 0, 76, 116
1, 149469, Note_off_c, 0, 76, 116
1, 149607, Note_on_c, 0, 72, 114
1, 149808, Note_off_c, 0, 72, 114
1, 149946, Note_on_c, 0, 68, 124
1, 150335, Note_off_c, 0, 68, 124
1, 150335, Note_on_c, 0, 70, 123
1, 150398, Note_off_c, 0, 70, 123
1, 150412, Note_on_c, 0, 71, 123
1, 150521, Note_off_c, 0, 71, 123
1, 150588, Note_on_c, 0, 72, 118
1, 150733, Note_off_c, 0, 72, 118
1, 150796, Note_on_c, 0, 69, 125
1, 150976, Note_off_c, 0, 69, 125
1, 151022, Note_on_c, 0, 64, 111
1, 151188, Note_off_c, 0, 64, 111
1, 151230, Note_on_c, 0, 60, 113
1, 151385, Note_off_c, 0, 60, 113
1, 151452, Note_on_c, 0, 58, 119
1, 151600, Note_off_c, 0, 58, 119
1, 151667, Note_on_c, 0, 56, 107
1, 151744, Note_off_c, 0, 56, 107
1, 151786, Note_on_c, 0, 55, 113
1, 151892, Note_off_c, 0, 55, 113
1, 151934, Note_on_c, 0, 56, 106
1, 152058, Note_off_c, 0, 56, 106
1, 152082, Note_on_c, 0, 59, 111
1, 152167, Note_off_c, 0, 59, 111
1, 152220, Note_on_c, 0, 63, 106
1, 152258, Note_off_c, 0, 63, 106
1, 152360, Note_on_c, 0, 67, 110
1, 152590, Note_off_c, 0, 67, 110
1, 152816, Note_on_c, 0, 65, 114
1, 153042, Note_off_c, 0, 65, 114
1, 153109, Note_on_c, 0, 62, 110
1, 153293, Note_off_c, 0, 62, 110
1, 153657, Note_on_c, 0, 56, 110
1, 154269, Note_off_c, 0, 56, 110
1, 155399, Note_on_c, 0, 63, 109
1, 155469, Note_off_c, 0, 63, 109
1, 155479, Note_on_c, 0, 64, 108
1, 155556, Note_off_c, 0, 64, 108
1, 155754, Note_on_c, 0, 59, 113
1, 155938, Note_off_c, 0, 59, 113
1, 155984, Note_on_c, 0, 62, 105
1, 156210, Note_off_c, 0, 62, 105
1, 156273, Note_on_c, 0, 60, 108
1, 156521, Note_off_c, 0, 60, 108
1, 156680, Note_on_c, 0, 71, 111
1, 156931, Note_off_c, 0, 71, 111
1, 157072, Note_on_c, 0, 68, 118
1, 157245, Note_off_c, 0, 68, 118
1, 157266, Note_on_c, 0, 69, 113
1, 157538, Note_off_c, 0, 69, 113
1, 157658, Note_on_c, 0, 64, 106
1, 157870, Note_off_c, 0, 64, 106
1, 157951, Note_on_c, 0, 67, 110
1, 158188, Note_off_c, 0, 67, 110
1, 158301, Note_on_c, 0, 64, 104
1, 158524, Note_off_c, 0, 64, 104
1, 158630, Note_on_c, 0, 60, 109
1, 158888, Note_off_c, 0, 60, 109
1, 158955, Note_on_c, 0, 59, 111
1, 159241, Note_off_c, 0, 59, 111
1, 159340, Note_on_c, 0, 58, 118
1, 159782, Note_off_c, 0, 58, 118
1, 159859, Note_on_c, 0, 57, 108
1, 160153, Note_off_c, 0, 57, 108
1, 160238, Note_on_c, 0, 56, 114
1, 160716, Note_off_c, 0, 56, 114
1, 161002, Note_on_c, 0, 63, 111
1, 161037, Note_off_c, 0, 63, 111
1, 161054, Note_on_c, 0, 64, 106
1, 161199, Note_off_c, 0, 64, 106
1, 161422, Note_on_c, 0, 57, 111
1, 161708, Note_off_c, 0, 57, 111
1, 162885, Note_on_c, 0, 62, 106
1, 162995, Note_off_c, 0, 62, 106
1, 163017, Note_on_c, 0, 64, 106
1, 163222, Note_off_c, 0, 64, 106
1, 163516, Note_on_c, 0, 57, 109
1, 163955, Note_off_c, 0, 57, 109
1, 164273, Note_on_c, 0, 61, 105
1, 164404, Note_off_c, 0, 61, 105
1, 164408, Note_on_c, 0, 63, 103
1, 164592, Note_off_c, 0, 63, 103
1, 164818, Note_on_c, 0, 57, 107
1, 165197, Note_off_c, 0, 57, 107
1, 165450, Note_on_c, 0, 60, 103
1, 165642, Note_off_c, 0, 60, 103
1, 165642, Note_on_c, 0, 62, 102
1, 165925, Note_off_c, 0, 62, 102
1, 165999, Note_on_c, 0, 60, 105
1, 166339, Note_off_c, 0, 60, 105
1, 166962, Note_on_c, 0, 60, 111
1, 167047, Note_off_c, 0, 60, 111
1, 167074, Note_on_c, 0, 62, 104
1, 167124, Note_off_c, 0, 62, 104
1, 167154, Note_on_c, 0, 60, 110
1, 167242, Note_off_c, 0, 60, 110
1, 167262, Note_on_c, 0, 59, 108
1, 167415, Note_off_c, 0, 59, 108
1, 167430, Note_on_c, 0, 60, 107
1, 167578, Note_off_c, 0, 60, 107
1, 167680, Note_on_c, 0, 69, 115
1, 167903, Note_off_c, 0, 69, 115
1, 167982, Note_on_c, 0, 65, 112
1, 168092, Note_off_c, 0, 65, 112
1, 168152, Note_on_c, 0, 62, 111
1, 168513, Note_off_c, 0, 62, 111
1, 168591, Note_on_c, 0, 59, 114
1, 168817, Note_off_c, 0, 59, 114
1, 169319, Note_on_c, 0, 64, 103
1, 169505, Note_off_c, 0, 64, 103
1, 169610, Note_on_c, 0, 60, 96
1, 170758, Note_off_c, 0, 60, 96
1, 170758, End_track
0, 0, End_of_file
