0, 0, Header, 1, 1, 192
1, 0, Start_track
1, 0, Title_t, "Melody"
1, 0, Tempo, 223048
1, 0, Key_signature, -4, "major"
1, 0, Time_signature, 4, 2, 24, 8
1, 3256, Note_on_c, 0, 80, 106
1, 3983, Note_off_c, 0, 80, 106
1, 3990, Note_on_c, 0, 77, 107
1, 4109, Note_off_c, 0, 77, 107
1, 4172, Note_on_c, 0, 80, 91
1, 4354, Note_off_c, 0, 80, 91
1, 4393, Note_on_c, 0, 77, 104
1, 4537, Note_off_c, 0, 77, 104
1, 4581, Note_on_c, 0, 80, 103
1, 4730, Note_off_c, 0, 80, 103
1, 4787, Note_on_c, 0, 77, 96
1, 4906, Note_off_c, 0, 77, 96
1, 4948, Note_on_c, 0, 80, 110
1, 5060, Note_off_c, 0, 80, 110
1, 5139, Note_on_c, 0, 77, 93
1, 5316, Note_off_c, 0, 77, 93
1, 5375, Note_on_c, 0, 83, 107
1, 5494, Note_off_c, 0, 83, 107
1, 5566, Note_on_c, 0, 84, 106
1, 5660, Note_off_c, 0, 84, 106
1, 5704, Note_on_c, 0, 80, 96
1, 5858, Note_off_c, 0, 80, 96
1, 5874, Note_on_c, 0, 77, 93
1, 5916, Note_off_c, 0, 77, 93
1, 6010, Note_on_c, 0, 80, 98
1, 6397, Note_off_c, 0, 80, 98
1, 6494, Note_on_c, 0, 77, 117
1, 6613, Note_off_c, 0, 77, 117
1, 6620, Note_on_c, 0, 75, 115
1, 6704, Note_off_c, 0, 75, 115
1, 6704, Note_on_c, 0, 72, 111
1, 6784, Note_off_c, 0, 72, 111
1, 6857, Note_on_c, 0, 75, 114
1, 6944, Note_off_c, 0, 75, 114
1, 7028, Note_on_c, 0, 67, 110
1, 7084, Note_off_c, 0, 67, 110
1, 7084, Note_on_c, 0, 70, 113
1, 8036, Note_off_c, 0, 70, 113
1, 8036, Note_on_c, 0, 68, 109
1, 8229, Note_off_c, 0, 68, 109
1, 8243, Note_on_c, 0, 75, 109
1, 8713, Note_off_c, 0, 75, 109
1, 8818, Note_on_c, 0, 70, 111
1, 8993, Note_off_c, 0, 70, 111
1, 9003, Note_on_c, 0, 68, 103
1, 9182, Note_off_c, 0, 68, 103
1, 9189, Note_on_c, 0, 75, 113
1, 9371, Note_off_c, 0, 75, 113
1, 9553, Note_on_c, 0, 68, 99
1, 9668, Note_off_c, 0, 68, 99
1, 9748, Note_on_c, 0, 70, 115
1, 10116, Note_off_c, 0, 70, 115
1, 10165, Note_on_c, 0, 68, 89
1, 10316, Note_off_c, 0, 68, 89
1, 10319, Note_on_c, 0, 75, 98
1, 10663, Note_off_c, 0, 75, 98
1, 10884, Note_on_c, 0, 70, 108
1, 11263, Note_off_c, 0, 70, 108
1, 11277, Note_on_c, 0, 68, 95
1, 11438, Note_off_c, 0, 68, 95
1, 11466, Note_on_c, 0, 77, 112
1, 11792, Note_off_c, 0, 77, 112
1, 11830, Note_on_c, 0, 70, 110
1, 11931, Note_off_c, 0, 70, 110
1, 11952, Note_on_c, 0, 72, 94
1, 12008, Note_off_c, 0, 72, 94
1, 12008, Note_on_c, 0, 75, 112
1, 12155, Note_off_c, 0, 75, 112
1, 12646, Note_on_c, 0, 85, 99
1, 12768, Note_off_c, 0, 85, 99
1, 12792, Note_on_c, 0, 87, 109
1, 13322, Note_off_c, 0, 87, 109
1, 13322, Note_on_c, 0, 84, 126
1, 13448, Note_off_c, 0, 84, 126
1, 13451, Note_on_c, 0, 82, 114
1, 13535, Note_off_c, 0, 82, 114
1, 13538, Note_on_c, 0, 79, 109
1, 13625, Note_off_c, 0, 79, 109
1, 13632, Note_on_c, 0, 77, 113
1, 13705, Note_off_c, 0, 77, 113
1, 13712, Note_on_c, 0, 75, 101
1, 13768, Note_off_c, 0, 75, 101
1, 13887, Note_on_c, 0, 79, 111
1, 13988, Note_on_c, 0, 80, 113
1, 13988, Note_off_c, 0, 79, 111
1, 14054, Note_off_c, 0, 80, 113
1, 14068, Note_on_c, 0, 81, 125
1, 14180, Note_off_c, 0, 81, 125
1, 14187, Note_on_c, 0, 82, 114
1, 14243, Note_off_c, 0, 82, 114
1, 14257, Note_on_c, 0, 83, 114
1, 14365, Note_off_c, 0, 83, 114
1, 14365, Note_on_c, 0, 84, 113
1, 14445, Note_off_c, 0, 84, 113
1, 14452, Note_on_c, 0, 82, 117
1, 14532, Note_off_c, 0, 82, 117
1, 14532, Note_on_c, 0, 83, 110
1, 14581, Note_off_c, 0, 83, 110
1, 14588, Note_on_c, 0, 81, 115
1, 14654, Note_on_c, 0, 82, 102
1, 14654, Note_off_c, 0, 81, 115
1, 14724, Note_off_c, 0, 82, 102
1, 14724, Note_on_c, 0, 80, 110
1, 14808, Note_off_c, 0, 80, 110
1, 14825, Note_on_c, 0, 77, 116
1, 14916, Note_off_c, 0, 77, 116
1, 14954, Note_on_c, 0, 75, 112
1, 15006, Note_off_c, 0, 75, 112
1, 15037, Note_on_c, 0, 72, 96
1, 15110, Note_off_c, 0, 72, 96
1, 15121, Note_on_c, 0, 68, 98
1, 15213, Note_off_c, 0, 68, 98
1, 15390, Note_on_c, 0, 80, 112
1, 15734, Note_off_c, 0, 80, 112
1, 15765, Note_on_c, 0, 76, 123
1, 15884, Note_off_c, 0, 76, 123
1, 15968, Note_on_c, 0, 71, 116
1, 16112, Note_off_c, 0, 71, 116
1, 16147, Note_on_c, 0, 68, 88
1, 16319, Note_off_c, 0, 68, 88
1, 16340, Note_on_c, 0, 71, 109
1, 16508, Note_off_c, 0, 71, 109
1, 16518, Note_on_c, 0, 68, 90
1, 16693, Note_off_c, 0, 68, 90
1, 16703, Note_on_c, 0, 77, 116
1, 16755, Note_off_c, 0, 77, 116
1, 16769, Note_on_c, 0, 75, 95
1, 16891, Note_off_c, 0, 75, 95
1, 17010, Note_on_c, 0, 75, 99
1, 17168, Note_off_c, 0, 75, 99
1, 17477, Note_on_c, 0, 71, 120
1, 17571, Note_off_c, 0, 71, 120
1, 17578, Note_on_c, 0, 75, 106
1, 17655, Note_off_c, 0, 75, 106
1, 17662, Note_on_c, 0, 77, 110
1, 17781, Note_off_c, 0, 77, 110
1, 17791, Note_on_c, 0, 75, 102
1, 17861, Note_off_c, 0, 75, 102
1, 17861, Note_on_c, 0, 80, 97
1, 17959, Note_off_c, 0, 80, 97
1, 17962, Note_on_c, 0, 82, 114
1, 18046, Note_off_c, 0, 82, 114
1, 18046, Note_on_c, 0, 80, 111
1, 18130, Note_off_c, 0, 80, 111
1, 18133, Note_on_c, 0, 77, 110
1, 18238, Note_off_c, 0, 77, 110
1, 18241, Note_on_c, 0, 75, 103
1, 18318, Note_off_c, 0, 75, 103
1, 18335, Note_on_c, 0, 72, 114
1, 18412, Note_off_c, 0, 72, 114
1, 18419, Note_on_c, 0, 70, 121
1, 18499, Note_off_c, 0, 70, 121
1, 18516, Note_on_c, 0, 68, 97
1, 18593, Note_off_c, 0, 68, 97
1, 18607, Note_on_c, 0, 65, 107
1, 18691, Note_off_c, 0, 65, 107
1, 18701, Note_on_c, 0, 63, 100
1, 18764, Note_off_c, 0, 63, 100
1, 18971, Note_on_c, 0, 63, 105
1, 19139, Note_off_c, 0, 63, 105
1, 19332, Note_on_c, 0, 70, 112
1, 19437, Note_off_c, 0, 70, 112
1, 19444, Note_on_c, 0, 72, 104
1, 19507, Note_off_c, 0, 72, 104
1, 19514, Note_on_c, 0, 75, 101
1, 19622, Note_off_c, 0, 75, 101
1, 19622, Note_on_c, 0, 72, 100
1, 19720, Note_off_c, 0, 72, 100
1, 19720, Note_on_c, 0, 80, 110
1, 19832, Note_off_c, 0, 80, 110
1, 20035, Note_on_c, 0, 77, 117
1, 20122, Note_off_c, 0, 77, 117
1, 20129, Note_on_c, 0, 75, 104
1, 20195, Note_off_c, 0, 75, 104
1, 20205, Note_on_c, 0, 72, 107
1, 20254, Note_off_c, 0, 72, 107
1, 20275, Note_on_c, 0, 70, 117
1, 20426, Note_off_c, 0, 70, 117
1, 20475, Note_on_c, 0, 75, 105
1, 20619, Note_off_c, 0, 75, 105
1, 20682, Note_on_c, 0, 75, 112
1, 20794, Note_off_c, 0, 75, 112
1, 20864, Note_on_c, 0, 75, 113
1, 20993, Note_off_c, 0, 75, 113
1, 21000, Note_on_c, 0, 74, 90
1, 21070, Note_off_c, 0, 74, 90
1, 21407, Note_on_c, 0, 79, 115
1, 21526, Note_off_c, 0, 79, 115
1, 21536, Note_on_c, 0, 80, 113
1, 21788, Note_off_c, 0, 80, 113
1, 21788, Note_on_c, 0, 77, 108
1, 21889, Note_off_c, 0, 77, 108
1, 21955, Note_on_c, 0, 80, 109
1, 22144, Note_off_c, 0, 80, 109
1, 22298, Note_on_c, 0, 77, 108
1, 22368, Note_off_c, 0, 77, 108
1, 22368, Note_on_c, 0, 74, 113
1, 22448, Note_off_c, 0, 74, 113
1, 22469, Note_on_c, 0, 71, 117
1, 22556, Note_off_c, 0, 71, 117
1, 22559, Note_on_c, 0, 68, 110
1, 22653, Note_off_c, 0, 68, 110
1, 22653, Note_on_c, 0, 65, 108
1, 22733, Note_off_c, 0, 65, 108
1, 22754, Note_on_c, 0, 62, 102
1, 22820, Note_off_c, 0, 62, 102
1, 22841, Note_on_c, 0, 65, 107
1, 22921, Note_off_c, 0, 65, 107
1, 22942, Note_on_c, 0, 59, 87
1, 23012, Note_off_c, 0, 59, 87
1, 23022, Note_on_c, 0, 62, 102
1, 23113, Note_off_c, 0, 62, 102
1, 23113, Note_on_c, 0, 65, 102
1, 23207, Note_on_c, 0, 68, 105
1, 23207, Note_off_c, 0, 65, 102
1, 23284, Note_off_c, 0, 68, 105
1, 23287, Note_on_c, 0, 71, 114
1, 23392, Note_off_c, 0, 71, 114
1, 23392, Note_on_c, 0, 77, 110
1, 23469, Note_off_c, 0, 77, 110
1, 23472, Note_on_c, 0, 75, 99
1, 23647, Note_off_c, 0, 75, 99
1, 23745, Note_on_c, 0, 67, 94
1, 23822, Note_off_c, 0, 67, 94
1, 23846, Note_on_c, 0, 71, 115
1, 23937, Note_off_c, 0, 71, 115
1, 23965, Note_on_c, 0, 72, 107
1, 24017, Note_off_c, 0, 72, 107
1, 24020, Note_on_c, 0, 75, 107
1, 24093, Note_off_c, 0, 75, 107
1, 24096, Note_on_c, 0, 72, 105
1, 24197, Note_off_c, 0, 72, 105
1, 24214, Note_on_c, 0, 79, 108
1, 24326, Note_off_c, 0, 79, 108
1, 24326, Note_on_c, 0, 76, 104
1, 24406, Note_off_c, 0, 76, 104
1, 24416, Note_on_c, 0, 77, 100
1, 24507, Note_off_c, 0, 77, 100
1, 24507, Note_on_c, 0, 75, 101
1, 24580, Note_off_c, 0, 75, 101
1, 24590, Note_on_c, 0, 72, 105
1, 24688, Note_off_c, 0, 72, 105
1, 24698, Note_on_c, 0, 68, 98
1, 24782, Note_off_c, 0, 68, 98
1, 24782, Note_on_c, 0, 65, 98
1, 24855, Note_off_c, 0, 65, 98
1, 24949, Note_on_c, 0, 76, 101
1, 25008, Note_off_c, 0, 76, 101
1, 25008, Note_on_c, 0, 77, 99
1, 25081, Note_off_c, 0, 77, 99
1, 25081, Note_on_c, 0, 76, 96
1, 25151, Note_off_c, 0, 76, 96
1, 25154, Note_on_c, 0, 77, 94
1, 25312, Note_off_c, 0, 77, 94
1, 25322, Note_on_c, 0, 74, 101
1, 25392, Note_on_c, 0, 75, 107
1, 25392, Note_off_c, 0, 74, 101
1, 25455, Note_off_c, 0, 75, 107
1, 25455, Note_on_c, 0, 74, 104
1, 25500, Note_off_c, 0, 74, 104
1, 25514, Note_on_c, 0, 75, 87
1, 25700, Note_off_c, 0, 75, 87
1, 25717, Note_on_c, 0, 73, 104
1, 25762, Note_off_c, 0, 73, 104
1, 25762, Note_on_c, 0, 74, 106
1, 25821, Note_off_c, 0, 74, 106
1, 25835, Note_on_c, 0, 73, 107
1, 25894, Note_off_c, 0, 73, 107
1, 25915, Note_on_c, 0, 74, 91
1, 26069, Note_off_c, 0, 74, 91
1, 26104, Note_on_c, 0, 72, 118
1, 26177, Note_off_c, 0, 72, 118
1, 26180, Note_on_c, 0, 73, 110
1, 26250, Note_on_c, 0, 72, 111
1, 26250, Note_off_c, 0, 73, 110
1, 26309, Note_off_c, 0, 72, 111
1, 26316, Note_on_c, 0, 73, 79
1, 26456, Note_off_c, 0, 73, 79
1, 26677, Note_on_c, 0, 70, 112
1, 26722, Note_off_c, 0, 70, 112
1, 26732, Note_on_c, 0, 71, 124
1, 26805, Note_off_c, 0, 71, 124
1, 26808, Note_on_c, 0, 72, 108
1, 26860, Note_off_c, 0, 72, 108
1, 26874, Note_on_c, 0, 71, 104
1, 26965, Note_off_c, 0, 71, 104
1, 26975, Note_on_c, 0, 72, 102
1, 27041, Note_off_c, 0, 72, 102
1, 27055, Note_on_c, 0, 71, 107
1, 27149, Note_off_c, 0, 71, 107
1, 27166, Note_on_c, 0, 72, 98
1, 27239, Note_off_c, 0, 72, 98
1, 27246, Note_on_c, 0, 71, 110
1, 27305, Note_off_c, 0, 71, 110
1, 27308, Note_on_c, 0, 72, 99
1, 27381, Note_off_c, 0, 72, 99
1, 27412, Note_on_c, 0, 71, 112
1, 27499, Note_off_c, 0, 71, 112
1, 27499, Note_on_c, 0, 72, 107
1, 27565, Note_off_c, 0, 72, 107
1, 27572, Note_on_c, 0, 71, 109
1, 27656, Note_off_c, 0, 71, 109
1, 27659, Note_on_c, 0, 72, 107
1, 27715, Note_off_c, 0, 72, 107
1, 27729, Note_on_c, 0, 71, 112
1, 27746, Note_off_c, 0, 71, 112
1, 27756, Note_on_c, 0, 72, 95
1, 27945, Note_off_c, 0, 72, 95
1, 28306, Note_on_c, 0, 80, 123
1, 28446, Note_off_c, 0, 80, 123
1, 28467, Note_on_c, 0, 80, 111
1, 28625, Note_off_c, 0, 80, 111
1, 28635, Note_on_c, 0, 77, 115
1, 28736, Note_off_c, 0, 77, 115
1, 28736, Note_on_c, 0, 75, 110
1, 28820, Note_off_c, 0, 75, 110
1, 28827, Note_on_c, 0, 72, 106
1, 28893, Note_off_c, 0, 72, 106
1, 28917, Note_on_c, 0, 70, 112
1, 29004, Note_off_c, 0, 70, 112
1, 29091, Note_on_c, 0, 75, 103
1, 29308, Note_off_c, 0, 75, 103
1, 29701, Note_on_c, 0, 62, 103
1, 29792, Note_off_c, 0, 62, 103
1, 29806, Note_on_c, 0, 65, 108
1, 29900, Note_off_c, 0, 65, 108
1, 29900, Note_on_c, 0, 59, 77
1, 29973, Note_off_c, 0, 59, 77
1, 29987, Note_on_c, 0, 62, 95
1, 30071, Note_off_c, 0, 62, 95
1, 30081, Note_on_c, 0, 65, 104
1, 30186, Note_off_c, 0, 65, 104
1, 30193, Note_on_c, 0, 68, 101
1, 30256, Note_off_c, 0, 68, 101
1, 30287, Note_on_c, 0, 71, 121
1, 30371, Note_off_c, 0, 71, 121
1, 30388, Note_on_c, 0, 74, 122
1, 30451, Note_off_c, 0, 74, 122
1, 30472, Note_on_c, 0, 72, 100
1, 30644, Note_off_c, 0, 72, 100
1, 30658, Note_on_c, 0, 79, 114
1, 30826, Note_off_c, 0, 79, 114
1, 30840, Note_on_c, 0, 82, 119
1, 30938, Note_off_c, 0, 82, 119
1, 31247, Note_on_c, 0, 83, 110
1, 31362, Note_off_c, 0, 83, 110
1, 31362, Note_on_c, 0, 84, 111
1, 31439, Note_off_c, 0, 84, 111
1, 31456, Note_on_c, 0, 79, 113
1, 31536, Note_off_c, 0, 79, 113
1, 31536, Note_on_c, 0, 82, 114
1, 31623, Note_off_c, 0, 82, 114
1, 31630, Note_on_c, 0, 80, 117
1, 31707, Note_off_c, 0, 80, 117
1, 31735, Note_on_c, 0, 77, 111
1, 31815, Note_off_c, 0, 77, 111
1, 31815, Note_on_c, 0, 75, 113
1, 31899, Note_off_c, 0, 75, 113
1, 31902, Note_on_c, 0, 72, 115
1, 31993, Note_off_c, 0, 72, 115
1, 32000, Note_on_c, 0, 70, 123
1, 32087, Note_off_c, 0, 70, 123
1, 32108, Note_on_c, 0, 68, 108
1, 32192, Note_off_c, 0, 68, 108
1, 32195, Note_on_c, 0, 65, 104
1, 32360, Note_off_c, 0, 65, 104
1, 32402, Note_on_c, 0, 73, 113
1, 32489, Note_off_c, 0, 73, 113
1, 32499, Note_on_c, 0, 75, 108
1, 32565, Note_off_c, 0, 75, 108
1, 32579, Note_on_c, 0, 71, 114
1, 32677, Note_off_c, 0, 71, 114
1, 32687, Note_on_c, 0, 72, 108
1, 32771, Note_off_c, 0, 72, 108
1, 32771, Note_on_c, 0, 63, 95
1, 32855, Note_off_c, 0, 63, 95
1, 32855, Note_on_c, 0, 66, 97
1, 32907, Note_off_c, 0, 66, 97
1, 32910, Note_on_c, 0, 67, 100
1, 32941, Note_on_c, 0, 71, 120
1, 32941, Note_off_c, 0, 67, 100
1, 33046, Note_off_c, 0, 71, 120
1, 33046, Note_on_c, 0, 72, 112
1, 33126, Note_off_c, 0, 72, 112
1, 33129, Note_on_c, 0, 75, 111
1, 33206, Note_off_c, 0, 75, 111
1, 33220, Note_on_c, 0, 72, 109
1, 33297, Note_off_c, 0, 72, 109
1, 33325, Note_on_c, 0, 79, 111
1, 33398, Note_off_c, 0, 79, 111
1, 33412, Note_on_c, 0, 80, 115
1, 33499, Note_off_c, 0, 80, 115
1, 33506, Note_on_c, 0, 81, 127
1, 33593, Note_off_c, 0, 81, 127
1, 33596, Note_on_c, 0, 82, 116
1, 33680, Note_off_c, 0, 82, 116
1, 33683, Note_on_c, 0, 83, 112
1, 33760, Note_off_c, 0, 83, 112
1, 33763, Note_on_c, 0, 84, 110
1, 33847, Note_off_c, 0, 84, 110
1, 33854, Note_on_c, 0, 82, 111
1, 33927, Note_off_c, 0, 82, 111
1, 33951, Note_on_c, 0, 81, 123
1, 34070, Note_off_c, 0, 81, 123
1, 34077, Note_on_c, 0, 80, 107
1, 34175, Note_off_c, 0, 80, 107
1, 34175, End_track
0, 0, End_of_file
