0, 0, Header, 1, 1, 192
1, 0, Start_track
1, 0, Title_t, "Melody"
1, 0, Tempo, 209059
1, 0, Key_signature, -2, "major"
1, 0, Time_signature, 4, 2, 24, 8
1, 3049, Note_on_c, 0, 78, 122
1, 3160, Note_off_c, 0, 78, 122
1, 3175, Note_on_c, 0, 79, 110
1, 3905, Note_off_c, 0, 79, 110
1, 3973, Note_on_c, 0, 77, 108
1, 4027, Note_off_c, 0, 77, 108
1, 4035, Note_on_c, 0, 74, 105
1, 4132, Note_off_c, 0, 74, 105
1, 4143, Note_on_c, 0, 70, 105
1, 4202, Note_off_c, 0, 70, 105
1, 4237, Note_on_c, 0, 67, 109
1, 4310, Note_off_c, 0, 67, 109
1, 4321, Note_on_c, 0, 65, 98
1, 4384, Note_off_c, 0, 65, 98
1, 4391, Note_on_c, 0, 73, 113
1, 4529, Note_off_c, 0, 73, 113
1, 4538, Note_on_c, 0, 72, 99
1, 4601, Note_off_c, 0, 72, 99
1, 4606, Note_on_c, 0, 73, 111
1, 4778, Note_off_c, 0, 73, 111
1, 4796, Note_on_c, 0, 72, 107
1, 4891, Note_off_c, 0, 72, 107
1, 4906, Note_on_c, 0, 70, 101
1, 4957, Note_off_c, 0, 70, 101
1, 4971, Note_on_c, 0, 67, 108
1, 5086, Note_off_c, 0, 67, 108
1, 5112, Note_on_c, 0, 65, 95
1, 5155, Note_off_c, 0, 65, 95
1, 5160, Note_on_c, 0, 70, 104
1, 5443, Note_off_c, 0, 70, 104
1, 5476, Note_on_c, 0, 65, 100
1, 5778, Note_off_c, 0, 65, 100
1, 6115, Note_on_c, 0, 82, 100
1, 6829, Note_off_c, 0, 82, 100
1, 6896, Note_on_c, 0, 79, 117
1, 7018, Note_off_c, 0, 79, 117
1, 7021, Note_on_c, 0, 82, 98
1, 7058, Note_off_c, 0, 82, 98
1, 7067, Note_on_c, 0, 79, 102
1, 7120, Note_off_c, 0, 79, 102
1, 7125, Note_on_c, 0, 82, 93
1, 7159, Note_off_c, 0, 82, 93
1, 7169, Note_on_c, 0, 79, 110
1, 7255, Note_off_c, 0, 79, 110
1, 7272, Note_on_c, 0, 77, 108
1, 7387, Note_off_c, 0, 77, 108
1, 7392, Note_on_c, 0, 79, 112
1, 7471, Note_off_c, 0, 79, 112
1, 7477, Note_on_c, 0, 77, 99
1, 7500, Note_off_c, 0, 77, 99
1, 7511, Note_on_c, 0, 79, 105
1, 7536, Note_off_c, 0, 79, 105
1, 7559, Note_on_c, 0, 77, 101
1, 7626, Note_off_c, 0, 77, 101
1, 7653, Note_on_c, 0, 75, 104
1, 7710, Note_off_c, 0, 75, 104
1, 7752, Note_on_c, 0, 77, 106
1, 7801, Note_off_c, 0, 77, 106
1, 7824, Note_on_c, 0, 75, 104
1, 7854, Note_off_c, 0, 75, 104
1, 7861, Note_on_c, 0, 77, 103
1, 7910, Note_off_c, 0, 77, 103
1, 7923, Note_on_c, 0, 75, 99
1, 7997, Note_off_c, 0, 75, 99
1, 8019, Note_on_c, 0, 72, 107
1, 8124, Note_off_c, 0, 72, 107
1, 8135, Note_on_c, 0, 75, 106
1, 8189, Note_off_c, 0, 75, 106
1, 8207, Note_on_c, 0, 74, 102
1, 8433, Note_off_c, 0, 74, 102
1, 8541, Note_on_c, 0, 70, 95
1, 8594, Note_off_c, 0, 70, 95
1, 8617, Note_on_c, 0, 72, 111
1, 8710, Note_off_c, 0, 72, 111
1, 8732, Note_on_c, 0, 74, 111
1, 8777, Note_off_c, 0, 74, 111
1, 8799, Note_on_c, 0, 77, 99
1, 8889, Note_off_c, 0, 77, 99
1, 8908, Note_on_c, 0, 74, 102
1, 8985, Note_off_c, 0, 74, 102
1, 8995, Note_on_c, 0, 79, 115
1, 9093, Note_off_c, 0, 79, 115
1, 9100, Note_on_c, 0, 77, 104
1, 9147, Note_off_c, 0, 77, 104
1, 9165, Note_on_c, 0, 74, 106
1, 9259, Note_off_c, 0, 74, 106
1, 9292, Note_on_c, 0, 70, 95
1, 9342, Note_off_c, 0, 70, 95
1, 9350, Note_on_c, 0, 67, 102
1, 9449, Note_off_c, 0, 67, 102
1, 9475, Note_on_c, 0, 65, 99
1, 9552, Note_off_c, 0, 65, 99
1, 9567, Note_on_c, 0, 73, 115
1, 9665, Note_off_c, 0, 73, 115
1, 9671, Note_on_c, 0, 74, 110
1, 9728, Note_off_c, 0, 74, 110
1, 9738, Note_on_c, 0, 75, 112
1, 9845, Note_off_c, 0, 75, 112
1, 10021, Note_on_c, 0, 65, 110
1, 10063, Note_off_c, 0, 65, 110
1, 10069, Note_on_c, 0, 67, 106
1, 10117, Note_off_c, 0, 67, 106
1, 10129, Note_on_c, 0, 72, 112
1, 10227, Note_off_c, 0, 72, 112
1, 10245, Note_on_c, 0, 75, 107
1, 10303, Note_off_c, 0, 75, 107
1, 10324, Note_on_c, 0, 79, 120
1, 10430, Note_off_c, 0, 79, 120
1, 10444, Note_on_c, 0, 82, 108
1, 10491, Note_off_c, 0, 82, 108
1, 10500, Note_on_c, 0, 86, 117
1, 11073, Note_off_c, 0, 86, 117
1, 11091, Note_on_c, 0, 84, 104
1, 11184, Note_off_c, 0, 84, 104
1, 11208, Note_on_c, 0, 82, 103
1, 11297, Note_off_c, 0, 82, 103
1, 11379, Note_on_c, 0, 79, 98
1, 11766, Note_off_c, 0, 79, 98
1, 12167, Note_on_c, 0, 67, 108
1, 12209, Note_off_c, 0, 67, 108
1, 12231, Note_on_c, 0, 70, 113
1, 12318, Note_off_c, 0, 70, 113
1, 12344, Note_on_c, 0, 74, 112
1, 12386, Note_off_c, 0, 74, 112
1, 12411, Note_on_c, 0, 79, 123
1, 12517, Note_off_c, 0, 79, 123
1, 12715, Note_on_c, 0, 67, 106
1, 12774, Note_off_c, 0, 67, 106
1, 12784, Note_on_c, 0, 69, 125
1, 12894, Note_off_c, 0, 69, 125
1, 12915, Note_on_c, 0, 72, 113
1, 12957, Note_off_c, 0, 72, 113
1, 12991, Note_on_c, 0, 77, 107
1, 13098, Note_off_c, 0, 77, 107
1, 13102, Note_on_c, 0, 81, 101
1, 13152, Note_off_c, 0, 81, 101
1, 13163, Note_on_c, 0, 84, 109
1, 13257, Note_off_c, 0, 84, 109
1, 13343, Note_on_c, 0, 84, 106
1, 13456, Note_off_c, 0, 84, 106
1, 13543, Note_on_c, 0, 84, 100
1, 13836, Note_off_c, 0, 84, 100
1, 13861, Note_on_c, 0, 81, 109
1, 13939, Note_off_c, 0, 81, 109
1, 13957, Note_on_c, 0, 83, 113
1, 14119, Note_off_c, 0, 83, 113
1, 14126, Note_on_c, 0, 84, 107
1, 14203, Note_off_c, 0, 84, 107
1, 14323, Note_on_c, 0, 79, 120
1, 14455, Note_off_c, 0, 79, 120
1, 14458, Note_on_c, 0, 80, 109
1, 14625, Note_off_c, 0, 80, 109
1, 14633, Note_on_c, 0, 79, 104
1, 14866, Note_off_c, 0, 79, 104
1, 14896, Note_on_c, 0, 77, 104
1, 14991, Note_off_c, 0, 77, 104
1, 15005, Note_on_c, 0, 79, 117
1, 15086, Note_off_c, 0, 79, 117
1, 15092, Note_on_c, 0, 80, 99
1, 15177, Note_off_c, 0, 80, 99
1, 15185, Note_on_c, 0, 80, 113
1, 15444, Note_off_c, 0, 80, 113
1, 15450, Note_on_c, 0, 79, 112
1, 15581, Note_off_c, 0, 79, 112
1, 15700, Note_on_c, 0, 72, 119
1, 15722, Note_off_c, 0, 72, 119
1, 15726, Note_on_c, 0, 73, 114
1, 15786, Note_off_c, 0, 73, 114
1, 15791, Note_on_c, 0, 74, 105
1, 15830, Note_off_c, 0, 74, 105
1, 15845, Note_on_c, 0, 77, 111
1, 15930, Note_off_c, 0, 77, 111
1, 16042, Note_on_c, 0, 77, 109
1, 16160, Note_off_c, 0, 77, 109
1, 16230, Note_on_c, 0, 80, 115
1, 16297, Note_off_c, 0, 80, 115
1, 16310, Note_on_c, 0, 79, 112
1, 16357, Note_off_c, 0, 79, 112
1, 16364, Note_on_c, 0, 77, 108
1, 16397, Note_off_c, 0, 77, 108
1, 16402, Note_on_c, 0, 73, 116
1, 16540, Note_off_c, 0, 73, 116
1, 16548, Note_on_c, 0, 74, 100
1, 16590, Note_off_c, 0, 74, 100
1, 16593, Note_on_c, 0, 77, 108
1, 16719, Note_off_c, 0, 77, 108
1, 16770, Note_on_c, 0, 77, 113
1, 16881, Note_off_c, 0, 77, 113
1, 16976, Note_on_c, 0, 80, 117
1, 17054, Note_off_c, 0, 80, 117
1, 17059, Note_on_c, 0, 79, 114
1, 17101, Note_off_c, 0, 79, 114
1, 17112, Note_on_c, 0, 77, 114
1, 17143, Note_off_c, 0, 77, 114
1, 17173, Note_on_c, 0, 73, 120
1, 17251, Note_off_c, 0, 73, 120
1, 17266, Note_on_c, 0, 74, 101
1, 17313, Note_off_c, 0, 74, 101
1, 17350, Note_on_c, 0, 77, 107
1, 17447, Note_off_c, 0, 77, 107
1, 17541, Note_on_c, 0, 77, 111
1, 17652, Note_off_c, 0, 77, 111
1, 17723, Note_on_c, 0, 80, 116
1, 17805, Note_off_c, 0, 80, 116
1, 17815, Note_on_c, 0, 79, 112
1, 17869, Note_off_c, 0, 79, 112
1, 17882, Note_on_c, 0, 77, 106
1, 17905, Note_off_c, 0, 77, 106
1, 17918, Note_on_c, 0, 73, 118
1, 18003, Note_off_c, 0, 73, 118
1, 18022, Note_on_c, 0, 74, 108
1, 18073, Note_off_c, 0, 74, 108
1, 18112, Note_on_c, 0, 82, 97
1, 18206, Note_off_c, 0, 82, 97
1, 18215, Note_on_c, 0, 81, 102
1, 18285, Note_off_c, 0, 81, 102
1, 18288, Note_on_c, 0, 82, 96
1, 18367, Note_off_c, 0, 82, 96
1, 18382, Note_on_c, 0, 81, 102
1, 18461, Note_off_c, 0, 81, 102
1, 18471, Note_on_c, 0, 80, 104
1, 18556, Note_off_c, 0, 80, 104
1, 18585, Note_on_c, 0, 77, 106
1, 18638, Note_off_c, 0, 77, 106
1, 18651, Note_on_c, 0, 74, 100
1, 18744, Note_off_c, 0, 74, 100
1, 18759, Note_on_c, 0, 72, 94
1, 18794, Note_off_c, 0, 72, 94
1, 18796, Note_on_c, 0, 74, 80
1, 18843, Note_off_c, 0, 74, 80
1, 18844, Note_on_c, 0, 79, 100
1, 19095, Note_off_c, 0, 79, 100
1, 19262, Note_on_c, 0, 63, 104
1, 19348, Note_off_c, 0, 63, 104
1, 19365, Note_on_c, 0, 67, 105
1, 19440, Note_off_c, 0, 67, 105
1, 19450, Note_on_c, 0, 70, 111
1, 19543, Note_off_c, 0, 70, 111
1, 19553, Note_on_c, 0, 75, 104
1, 19627, Note_off_c, 0, 75, 104
1, 19634, Note_on_c, 0, 79, 118
1, 19739, Note_off_c, 0, 79, 118
1, 19756, Note_on_c, 0, 82, 107
1, 19790, Note_off_c, 0, 82, 107
1, 19806, Note_on_c, 0, 87, 98
1, 20327, Note_off_c, 0, 87, 98
1, 20382, Note_on_c, 0, 86, 118
1, 20539, Note_off_c, 0, 86, 118
1, 20809, Note_on_c, 0, 75, 115
1, 20984, Note_off_c, 0, 75, 115
1, 20993, Note_on_c, 0, 74, 121
1, 21134, Note_off_c, 0, 74, 121
1, 21369, Note_on_c, 0, 62, 120
1, 21434, Note_off_c, 0, 62, 120
1, 21437, Note_on_c, 0, 63, 108
1, 21586, Note_off_c, 0, 63, 108
1, 21593, Note_on_c, 0, 62, 105
1, 21711, Note_off_c, 0, 62, 105
1, 22180, Note_on_c, 0, 72, 127
1, 22245, Note_off_c, 0, 72, 127
1, 22255, Note_on_c, 0, 73, 120
1, 22586, Note_off_c, 0, 73, 120
1, 22608, Note_on_c, 0, 72, 112
1, 23101, Note_off_c, 0, 72, 112
1, 23152, Note_on_c, 0, 70, 112
1, 23266, Note_off_c, 0, 70, 112
1, 23376, Note_on_c, 0, 72, 120
1, 23489, Note_off_c, 0, 72, 120
1, 23492, Note_on_c, 0, 73, 112
1, 23715, Note_off_c, 0, 73, 112
1, 23746, Note_on_c, 0, 70, 111
1, 23868, Note_off_c, 0, 70, 111
1, 23927, Note_on_c, 0, 72, 115
1, 23974, Note_off_c, 0, 72, 115
1, 23975, Note_on_c, 0, 73, 112
1, 24103, Note_off_c, 0, 73, 112
1, 24146, Note_on_c, 0, 70, 105
1, 24205, Note_off_c, 0, 70, 105
1, 24307, Note_on_c, 0, 77, 113
1, 24445, Note_off_c, 0, 77, 113
1, 24503, Note_on_c, 0, 75, 107
1, 24624, Note_off_c, 0, 75, 107
1, 24713, Note_on_c, 0, 73, 110
1, 24868, Note_off_c, 0, 73, 110
1, 24909, Note_on_c, 0, 70, 112
1, 25047, Note_off_c, 0, 70, 112
1, 25127, Note_on_c, 0, 73, 110
1, 25267, Note_off_c, 0, 73, 110
1, 25322, Note_on_c, 0, 70, 103
1, 25452, Note_off_c, 0, 70, 103
1, 25497, Note_on_c, 0, 73, 114
1, 25654, Note_off_c, 0, 73, 114
1, 25702, Note_on_c, 0, 70, 94
1, 25752, Note_off_c, 0, 70, 94
1, 25812, Note_on_c, 0, 77, 104
1, 25961, Note_off_c, 0, 77, 104
1, 26012, Note_on_c, 0, 75, 100
1, 26217, Note_off_c, 0, 75, 100
1, 26263, Note_on_c, 0, 73, 116
1, 26393, Note_off_c, 0, 73, 116
1, 26403, Note_on_c, 0, 70, 107
1, 26470, Note_off_c, 0, 70, 107
1, 26491, Note_on_c, 0, 67, 111
1, 26596, Note_off_c, 0, 67, 111
1, 26603, Note_on_c, 0, 65, 100
1, 26642, Note_off_c, 0, 65, 100
1, 26657, Note_on_c, 0, 70, 111
1, 26775, Note_off_c, 0, 70, 111
1, 26872, Note_on_c, 0, 70, 107
1, 27042, Note_off_c, 0, 70, 107
1, 27063, Note_on_c, 0, 67, 113
1, 27185, Note_off_c, 0, 67, 113
1, 27194, Note_on_c, 0, 65, 104
1, 27260, Note_off_c, 0, 65, 104
1, 27431, Note_on_c, 0, 70, 96
1, 27704, Note_off_c, 0, 70, 96
1, 27933, Note_on_c, 0, 67, 105
1, 27992, Note_off_c, 0, 67, 105
1, 28018, Note_on_c, 0, 70, 112
1, 28101, Note_off_c, 0, 70, 112
1, 28124, Note_on_c, 0, 74, 113
1, 28211, Note_off_c, 0, 74, 113
1, 28214, Note_on_c, 0, 77, 102
1, 28376, Note_off_c, 0, 77, 102
1, 28376, End_track
0, 0, End_of_file
