0, 0, Header, 1, 1, 192
1, 0, Start_track
1, 0, Title_t, "Melody"
1, 0, Tempo, 193548
1, 0, Key_signature, -4, "major"
1, 0, Time_signature, 4, 2, 24, 8
1, 4650, Note_on_c, 0, 80, 124
1, 4787, Note_off_c, 0, 80, 124
1, 4819, Note_on_c, 0, 77, 118
1, 4889, Note_off_c, 0, 77, 118
1, 4903, Note_on_c, 0, 80, 120
1, 5064, Note_off_c, 0, 80, 120
1, 5076, Note_on_c, 0, 77, 115
1, 5185, Note_off_c, 0, 77, 115
1, 5209, Note_on_c, 0, 75, 112
1, 5279, Note_off_c, 0, 75, 112
1, 5297, Note_on_c, 0, 77, 114
1, 5440, Note_off_c, 0, 77, 114
1, 5460, Note_on_c, 0, 75, 116
1, 5576, Note_off_c, 0, 75, 116
1, 5586, Note_on_c, 0, 72, 109
1, 5678, Note_off_c, 0, 72, 109
1, 5689, Note_on_c, 0, 75, 113
1, 5844, Note_off_c, 0, 75, 113
1, 5848, Note_on_c, 0, 72, 120
1, 5989, Note_off_c, 0, 72, 120
1, 6043, Note_on_c, 0, 72, 113
1, 6209, Note_off_c, 0, 72, 113
1, 6239, Note_on_c, 0, 69, 118
1, 6339, Note_off_c, 0, 69, 118
1, 6439, Note_on_c, 0, 69, 111
1, 6679, Note_off_c, 0, 69, 111
1, 6704, Note_on_c, 0, 65, 91
1, 7027, Note_off_c, 0, 65, 91
1, 7384, Note_on_c, 0, 83, 122
1, 7506, Note_off_c, 0, 83, 122
1, 7521, Note_on_c, 0, 84, 127
1, 7652, Note_off_c, 0, 84, 127
1, 7677, Note_on_c, 0, 82, 109
1, 7793, Note_off_c, 0, 82, 109
1, 7805, Note_on_c, 0, 80, 113
1, 7871, Note_off_c, 0, 80, 113
1, 7891, Note_on_c, 0, 77, 113
1, 7955, Note_off_c, 0, 77, 113
1, 7966, Note_on_c, 0, 74, 116
1, 8055, Note_off_c, 0, 74, 116
1, 8086, Note_on_c, 0, 70, 114
1, 8156, Note_off_c, 0, 70, 114
1, 8321, Note_on_c, 0, 72, 125
1, 8436, Note_off_c, 0, 72, 125
1, 8448, Note_on_c, 0, 73, 120
1, 8522, Note_off_c, 0, 73, 120
1, 8527, Note_on_c, 0, 74, 114
1, 8604, Note_off_c, 0, 74, 114
1, 8618, Note_on_c, 0, 72, 115
1, 8715, Note_off_c, 0, 72, 115
1, 8719, Note_on_c, 0, 80, 115
1, 8832, Note_off_c, 0, 80, 115
1, 8843, Note_on_c, 0, 77, 116
1, 8894, Note_off_c, 0, 77, 116
1, 8911, Note_on_c, 0, 74, 111
1, 9039, Note_off_c, 0, 74, 111
1, 9050, Note_on_c, 0, 70, 109
1, 9116, Note_off_c, 0, 70, 109
1, 9123, Note_on_c, 0, 68, 95
1, 9199, Note_off_c, 0, 68, 95
1, 9298, Note_on_c, 0, 72, 122
1, 9414, Note_off_c, 0, 72, 122
1, 9425, Note_on_c, 0, 70, 110
1, 9479, Note_off_c, 0, 70, 110
1, 9484, Note_on_c, 0, 79, 111
1, 9658, Note_off_c, 0, 79, 111
1, 9673, Note_on_c, 0, 74, 112
1, 9775, Note_off_c, 0, 74, 112
1, 9783, Note_on_c, 0, 77, 101
1, 10059, Note_off_c, 0, 77, 101
1, 10552, Note_on_c, 0, 63, 101
1, 10578, Note_off_c, 0, 63, 101
1, 10583, Note_on_c, 0, 67, 112
1, 10614, Note_off_c, 0, 67, 112
1, 10628, Note_on_c, 0, 70, 122
1, 10737, Note_off_c, 0, 70, 122
1, 10876, Note_on_c, 0, 67, 101
1, 10916, Note_off_c, 0, 67, 101
1, 10926, Note_on_c, 0, 70, 118
1, 10980, Note_off_c, 0, 70, 118
1, 10992, Note_on_c, 0, 75, 121
1, 11091, Note_off_c, 0, 75, 121
1, 11320, Note_on_c, 0, 70, 112
1, 11367, Note_off_c, 0, 70, 112
1, 11374, Note_on_c, 0, 75, 108
1, 11421, Note_off_c, 0, 75, 108
1, 11435, Note_on_c, 0, 79, 107
1, 11556, Note_off_c, 0, 79, 107
1, 11657, Note_on_c, 0, 75, 115
1, 11697, Note_off_c, 0, 75, 115
1, 11709, Note_on_c, 0, 79, 117
1, 11749, Note_off_c, 0, 79, 117
1, 11749, Note_on_c, 0, 82, 116
1, 11800, Note_off_c, 0, 82, 116
1, 11808, Note_on_c, 0, 87, 125
1, 12089, Note_off_c, 0, 87, 125
1, 12104, Note_on_c, 0, 84, 115
1, 12330, Note_off_c, 0, 84, 115
1, 12342, Note_on_c, 0, 79, 120
1, 12447, Note_off_c, 0, 79, 120
1, 12461, Note_on_c, 0, 82, 114
1, 12577, Note_off_c, 0, 82, 114
1, 12643, Note_on_c, 0, 80, 121
1, 12733, Note_off_c, 0, 80, 121
1, 12738, Note_on_c, 0, 75, 106
1, 12822, Note_off_c, 0, 75, 106
1, 12842, Note_on_c, 0, 72, 109
1, 12905, Note_off_c, 0, 72, 109
1, 12910, Note_on_c, 0, 75, 124
1, 13002, Note_off_c, 0, 75, 124
1, 13014, Note_on_c, 0, 72, 117
1, 13087, Note_off_c, 0, 72, 117
1, 13099, Note_on_c, 0, 79, 117
1, 13195, Note_off_c, 0, 79, 117
1, 13203, Note_on_c, 0, 77, 114
1, 13273, Note_off_c, 0, 77, 114
1, 13290, Note_on_c, 0, 76, 124
1, 13370, Note_off_c, 0, 76, 124
1, 13384, Note_on_c, 0, 77, 118
1, 13455, Note_off_c, 0, 77, 118
1, 13495, Note_on_c, 0, 68, 100
1, 13615, Note_off_c, 0, 68, 100
1, 13653, Note_on_c, 0, 71, 112
1, 13752, Note_off_c, 0, 71, 112
1, 13764, Note_on_c, 0, 72, 114
1, 13856, Note_off_c, 0, 72, 114
1, 13870, Note_on_c, 0, 77, 111
1, 13950, Note_off_c, 0, 77, 111
1, 13961, Note_on_c, 0, 72, 111
1, 14045, Note_off_c, 0, 72, 111
1, 14047, Note_on_c, 0, 77, 116
1, 14169, Note_off_c, 0, 77, 116
1, 14443, Note_on_c, 0, 73, 117
1, 14578, Note_off_c, 0, 73, 117
1, 14590, Note_on_c, 0, 75, 111
1, 14633, Note_off_c, 0, 75, 111
1, 14637, Note_on_c, 0, 77, 114
1, 14746, Note_off_c, 0, 77, 114
1, 14754, Note_on_c, 0, 81, 91
1, 14801, Note_off_c, 0, 81, 91
1, 14808, Note_on_c, 0, 82, 105
1, 14917, Note_off_c, 0, 82, 105
1, 14924, Note_on_c, 0, 79, 107
1, 14998, Note_off_c, 0, 79, 107
1, 15009, Note_on_c, 0, 82, 106
1, 15124, Note_off_c, 0, 82, 106
1, 15139, Note_on_c, 0, 79, 106
1, 15301, Note_off_c, 0, 79, 106
1, 15315, Note_on_c, 0, 77, 118
1, 15379, Note_off_c, 0, 77, 118
1, 15394, Note_on_c, 0, 74, 111
1, 15493, Note_off_c, 0, 74, 111
1, 15572, Note_on_c, 0, 77, 103
1, 15760, Note_off_c, 0, 77, 103
1, 15795, Note_on_c, 0, 72, 110
1, 15930, Note_off_c, 0, 72, 110
1, 15963, Note_on_c, 0, 75, 109
1, 16135, Note_off_c, 0, 75, 109
1, 16558, Note_on_c, 0, 83, 123
1, 16654, Note_off_c, 0, 83, 123
1, 16661, Note_on_c, 0, 84, 116
1, 17314, Note_off_c, 0, 84, 116
1, 17355, Note_on_c, 0, 83, 121
1, 17464, Note_off_c, 0, 83, 121
1, 17468, Note_on_c, 0, 84, 114
1, 17514, Note_off_c, 0, 84, 114
1, 17534, Note_on_c, 0, 79, 112
1, 17600, Note_off_c, 0, 79, 112
1, 17600, Note_on_c, 0, 80, 111
1, 17710, Note_off_c, 0, 80, 111
1, 17721, Note_on_c, 0, 74, 115
1, 17787, Note_off_c, 0, 74, 115
1, 17797, Note_on_c, 0, 75, 110
1, 17884, Note_off_c, 0, 75, 110
1, 17892, Note_on_c, 0, 71, 109
1, 17971, Note_off_c, 0, 71, 109
1, 17985, Note_on_c, 0, 72, 117
1, 18071, Note_off_c, 0, 72, 117
1, 18092, Note_on_c, 0, 68, 108
1, 18250, Note_off_c, 0, 68, 108
1, 18280, Note_on_c, 0, 71, 117
1, 18364, Note_off_c, 0, 71, 117
1, 18381, Note_on_c, 0, 72, 118
1, 18450, Note_off_c, 0, 72, 118
1, 18467, Note_on_c, 0, 75, 119
1, 18550, Note_off_c, 0, 75, 119
1, 18570, Note_on_c, 0, 72, 110
1, 18639, Note_off_c, 0, 72, 110
1, 18666, Note_on_c, 0, 79, 110
1, 18824, Note_off_c, 0, 79, 110
1, 18842, Note_on_c, 0, 75, 113
1, 19016, Note_off_c, 0, 75, 113
1, 19047, Note_on_c, 0, 77, 107
1, 19265, Note_off_c, 0, 77, 107
1, 19912, Note_on_c, 0, 80, 119
1, 20061, Note_off_c, 0, 80, 119
1, 20089, Note_on_c, 0, 77, 106
1, 20139, Note_off_c, 0, 77, 106
1, 20160, Note_on_c, 0, 80, 115
1, 20337, Note_off_c, 0, 80, 115
1, 20364, Note_on_c, 0, 77, 118
1, 20499, Note_off_c, 0, 77, 118
1, 20507, Note_on_c, 0, 74, 115
1, 20590, Note_off_c, 0, 74, 115
1, 20595, Note_on_c, 0, 70, 111
1, 20684, Note_off_c, 0, 70, 111
1, 20699, Note_on_c, 0, 68, 106
1, 20762, Note_off_c, 0, 68, 106
1, 20780, Note_on_c, 0, 65, 105
1, 20850, Note_off_c, 0, 65, 105
1, 20932, Note_on_c, 0, 72, 123
1, 21041, Note_off_c, 0, 72, 123
1, 21045, Note_on_c, 0, 70, 108
1, 21125, Note_off_c, 0, 70, 108
1, 21136, Note_on_c, 0, 79, 106
1, 21241, Note_off_c, 0, 79, 106
1, 21252, Note_on_c, 0, 77, 109
1, 21302, Note_off_c, 0, 77, 109
1, 21336, Note_on_c, 0, 82, 108
1, 21419, Note_off_c, 0, 82, 108
1, 21433, Note_on_c, 0, 80, 111
1, 21500, Note_off_c, 0, 80, 111
1, 21524, Note_on_c, 0, 77, 116
1, 21595, Note_off_c, 0, 77, 116
1, 21612, Note_on_c, 0, 74, 116
1, 21689, Note_off_c, 0, 74, 116
1, 21713, Note_on_c, 0, 70, 118
1, 21786, Note_off_c, 0, 70, 118
1, 21800, Note_on_c, 0, 68, 105
1, 21870, Note_off_c, 0, 68, 105
1, 21893, Note_on_c, 0, 65, 104
1, 21998, Note_off_c, 0, 65, 104
1, 22009, Note_on_c, 0, 62, 98
1, 22069, Note_off_c, 0, 62, 98
1, 22102, Note_on_c, 0, 70, 118
1, 22316, Note_off_c, 0, 70, 118
1, 22670, Note_on_c, 0, 82, 104
1, 23234, Note_off_c, 0, 82, 104
1, 23451, Note_on_c, 0, 73, 123
1, 23534, Note_off_c, 0, 73, 123
1, 23546, Note_on_c, 0, 75, 117
1, 23625, Note_off_c, 0, 75, 117
1, 23637, Note_on_c, 0, 77, 117
1, 23716, Note_off_c, 0, 77, 117
1, 23740, Note_on_c, 0, 82, 104
1, 23800, Note_off_c, 0, 82, 104
1, 23807, Note_on_c, 0, 80, 108
1, 23863, Note_off_c, 0, 80, 108
1, 23883, Note_on_c, 0, 82, 102
1, 23927, Note_off_c, 0, 82, 102
1, 23939, Note_on_c, 0, 80, 109
1, 23983, Note_off_c, 0, 80, 109
1, 23990, Note_on_c, 0, 77, 114
1, 24072, Note_off_c, 0, 77, 114
1, 24090, Note_on_c, 0, 75, 112
1, 24134, Note_off_c, 0, 75, 112
1, 24141, Note_on_c, 0, 73, 112
1, 24195, Note_off_c, 0, 73, 112
1, 24209, Note_on_c, 0, 70, 110
1, 24288, Note_off_c, 0, 70, 110
1, 24292, Note_on_c, 0, 68, 95
1, 24339, Note_off_c, 0, 68, 95
1, 24356, Note_on_c, 0, 73, 116
1, 24544, Note_off_c, 0, 73, 116
1, 24574, Note_on_c, 0, 70, 121
1, 24690, Note_off_c, 0, 70, 121
1, 24880, Note_on_c, 0, 85, 113
1, 25107, Note_off_c, 0, 85, 113
1, 25122, Note_on_c, 0, 82, 107
1, 25205, Note_off_c, 0, 82, 107
1, 25222, Note_on_c, 0, 80, 117
1, 25302, Note_off_c, 0, 80, 117
1, 25310, Note_on_c, 0, 76, 118
1, 25403, Note_off_c, 0, 76, 118
1, 25415, Note_on_c, 0, 73, 109
1, 25489, Note_off_c, 0, 73, 109
1, 25506, Note_on_c, 0, 80, 105
1, 25796, Note_off_c, 0, 80, 105
1, 25865, Note_on_c, 0, 73, 118
1, 25972, Note_off_c, 0, 73, 118
1, 25989, Note_on_c, 0, 75, 116
1, 26045, Note_off_c, 0, 75, 116
1, 26056, Note_on_c, 0, 77, 116
1, 26142, Note_off_c, 0, 77, 116
1, 26153, Note_on_c, 0, 73, 118
1, 26229, Note_off_c, 0, 73, 118
1, 26243, Note_on_c, 0, 72, 110
1, 26565, Note_off_c, 0, 72, 110
1, 26599, Note_on_c, 0, 71, 111
1, 26724, Note_off_c, 0, 71, 111
1, 26731, Note_on_c, 0, 72, 114
1, 26804, Note_off_c, 0, 72, 114
1, 26816, Note_on_c, 0, 75, 123
1, 26942, Note_off_c, 0, 75, 123
1, 26947, Note_on_c, 0, 72, 110
1, 27008, Note_off_c, 0, 72, 110
1, 27022, Note_on_c, 0, 79, 106
1, 27167, Note_off_c, 0, 79, 106
1, 27180, Note_on_c, 0, 71, 112
1, 27293, Note_off_c, 0, 71, 112
1, 27303, Note_on_c, 0, 72, 115
1, 27369, Note_off_c, 0, 72, 115
1, 27379, Note_on_c, 0, 75, 118
1, 27459, Note_off_c, 0, 75, 118
1, 27470, Note_on_c, 0, 72, 118
1, 27529, Note_off_c, 0, 72, 118
1, 27564, Note_on_c, 0, 79, 108
1, 27627, Note_off_c, 0, 79, 108
1, 27651, Note_on_c, 0, 77, 107
1, 27694, Note_off_c, 0, 77, 107
1, 27750, Note_on_c, 0, 71, 112
1, 27834, Note_off_c, 0, 71, 112
1, 27855, Note_on_c, 0, 72, 115
1, 27912, Note_off_c, 0, 72, 115
1, 27927, Note_on_c, 0, 75, 116
1, 28003, Note_off_c, 0, 75, 116
1, 28030, Note_on_c, 0, 72, 117
1, 28113, Note_off_c, 0, 72, 117
1, 28140, Note_on_c, 0, 79, 105
1, 28207, Note_off_c, 0, 79, 105
1, 28227, Note_on_c, 0, 77, 107
1, 28286, Note_off_c, 0, 77, 107
1, 28373, Note_on_c, 0, 71, 117
1, 28424, Note_off_c, 0, 71, 117
1, 28434, Note_on_c, 0, 72, 119
1, 28493, Note_off_c, 0, 72, 119
1, 28508, Note_on_c, 0, 75, 117
1, 28597, Note_off_c, 0, 75, 117
1, 28609, Note_on_c, 0, 72, 115
1, 28692, Note_off_c, 0, 72, 115
1, 28713, Note_on_c, 0, 79, 109
1, 28764, Note_off_c, 0, 79, 109
1, 28789, Note_on_c, 0, 77, 113
1, 28855, Note_off_c, 0, 77, 113
1, 28882, Note_on_c, 0, 71, 111
1, 28995, Note_off_c, 0, 71, 111
1, 29000, Note_on_c, 0, 72, 115
1, 29061, Note_off_c, 0, 72, 115
1, 29078, Note_on_c, 0, 75, 121
1, 29144, Note_off_c, 0, 75, 121
1, 29165, Note_on_c, 0, 72, 114
1, 29257, Note_off_c, 0, 72, 114
1, 29272, Note_on_c, 0, 79, 109
1, 29361, Note_off_c, 0, 79, 109
1, 29375, Note_on_c, 0, 77, 114
1, 29438, Note_off_c, 0, 77, 114
1, 29452, Note_on_c, 0, 75, 117
1, 29555, Note_off_c, 0, 75, 117
1, 29570, Note_on_c, 0, 72, 111
1, 29643, Note_off_c, 0, 72, 111
1, 29825, Note_on_c, 0, 72, 120
1, 29935, Note_off_c, 0, 72, 120
1, 29952, Note_on_c, 0, 75, 113
1, 30015, Note_off_c, 0, 75, 113
1, 30043, Note_on_c, 0, 72, 108
1, 30392, Note_off_c, 0, 72, 108
1, 30412, Note_on_c, 0, 75, 117
1, 30494, Note_off_c, 0, 75, 117
1, 30525, Note_on_c, 0, 72, 110
1, 30581, Note_off_c, 0, 72, 110
1, 30606, Note_on_c, 0, 75, 114
1, 30689, Note_off_c, 0, 75, 114
1, 30782, Note_on_c, 0, 72, 108
1, 31058, Note_off_c, 0, 72, 108
1, 31085, Note_on_c, 0, 69, 99
1, 31391, Note_off_c, 0, 69, 99
1, 31804, Note_on_c, 0, 76, 112
1, 31976, Note_off_c, 0, 76, 112
1, 31990, Note_on_c, 0, 77, 112
1, 32581, Note_off_c, 0, 77, 112
1, 32670, Note_on_c, 0, 75, 119
1, 32777, Note_off_c, 0, 75, 119
1, 32801, Note_on_c, 0, 73, 115
1, 32868, Note_off_c, 0, 73, 115
1, 32892, Note_on_c, 0, 82, 114
1, 32971, Note_off_c, 0, 82, 114
1, 32985, Note_on_c, 0, 80, 110
1, 33052, Note_off_c, 0, 80, 110
1, 33072, Note_on_c, 0, 79, 114
1, 33143, Note_off_c, 0, 79, 114
1, 33145, Note_on_c, 0, 77, 108
1, 33234, Note_off_c, 0, 77, 108
1, 33264, Note_on_c, 0, 75, 114
1, 33361, Note_off_c, 0, 75, 114
1, 33435, Note_on_c, 0, 75, 110
1, 33676, Note_off_c, 0, 75, 110
1, 33827, Note_on_c, 0, 71, 113
1, 33916, Note_off_c, 0, 71, 113
1, 33927, Note_on_c, 0, 72, 120
1, 33973, Note_off_c, 0, 72, 120
1, 33998, Note_on_c, 0, 75, 118
1, 34091, Note_off_c, 0, 75, 118
1, 34102, Note_on_c, 0, 72, 116
1, 34186, Note_off_c, 0, 72, 116
1, 34203, Note_on_c, 0, 80, 105
1, 34630, Note_off_c, 0, 80, 105
1, 34630, End_track
0, 0, End_of_file
