0, 0, Header, 1, 1, 192
1, 0, Start_track
1, 0, Title_t, "Melody"
1, 0, Tempo, 222222
1, 0, Key_signature, -4, "major"
1, 0, Time_signature, 4, 2, 24, 8
1, 2194, Note_on_c, 0, 53, 90
1, 2246, Note_off_c, 0, 53, 90
1, 2271, Note_on_c, 0, 63, 116
1, 3149, Note_off_c, 0, 63, 116
1, 3267, Note_on_c, 0, 59, 98
1, 3469, Note_off_c, 0, 59, 98
1, 3485, Note_on_c, 0, 60, 100
1, 3674, Note_off_c, 0, 60, 100
1, 3689, Note_on_c, 0, 63, 104
1, 3871, Note_off_c, 0, 63, 104
1, 3926, Note_on_c, 0, 59, 91
1, 4080, Note_off_c, 0, 59, 91
1, 4089, Note_on_c, 0, 60, 98
1, 4267, Note_off_c, 0, 60, 98
1, 4280, Note_on_c, 0, 63, 109
1, 4464, Note_off_c, 0, 63, 109
1, 4482, Note_on_c, 0, 59, 96
1, 4685, Note_off_c, 0, 59, 96
1, 4695, Note_on_c, 0, 60, 100
1, 4866, Note_off_c, 0, 60, 100
1, 4872, Note_on_c, 0, 65, 106
1, 5038, Note_off_c, 0, 65, 106
1, 5069, Note_on_c, 0, 59, 98
1, 5248, Note_off_c, 0, 59, 98
1, 5264, Note_on_c, 0, 60, 98
1, 5437, Note_off_c, 0, 60, 98
1, 5457, Note_on_c, 0, 63, 101
1, 5662, Note_off_c, 0, 63, 101
1, 5666, Note_on_c, 0, 53, 100
1, 5818, Note_off_c, 0, 53, 100
1, 5861, Note_on_c, 0, 51, 92
1, 6027, Note_off_c, 0, 51, 92
1, 6045, Note_on_c, 0, 56, 99
1, 6396, Note_off_c, 0, 56, 99
1, 6415, Note_on_c, 0, 51, 101
1, 6548, Note_off_c, 0, 51, 101
1, 6554, Note_on_c, 0, 53, 86
1, 6620, Note_off_c, 0, 53, 86
1, 6627, Note_on_c, 0, 56, 107
1, 6746, Note_off_c, 0, 56, 107
1, 6755, Note_on_c, 0, 60, 105
1, 6815, Note_off_c, 0, 60, 105
1, 6821, Note_on_c, 0, 63, 105
1, 7009, Note_off_c, 0, 63, 105
1, 7031, Note_on_c, 0, 51, 118
1, 7134, Note_off_c, 0, 51, 118
1, 7141, Note_on_c, 0, 53, 98
1, 7212, Note_off_c, 0, 53, 98
1, 7219, Note_on_c, 0, 56, 101
1, 7330, Note_off_c, 0, 56, 101
1, 7339, Note_on_c, 0, 60, 107
1, 7394, Note_off_c, 0, 60, 107
1, 7400, Note_on_c, 0, 63, 111
1, 7569, Note_off_c, 0, 63, 111
1, 7582, Note_on_c, 0, 63, 112
1, 7903, Note_off_c, 0, 63, 112
1, 7929, Note_on_c, 0, 51, 92
1, 8154, Note_off_c, 0, 51, 92
1, 8494, Note_on_c, 0, 58, 93
1, 8524, Note_off_c, 0, 58, 93
1, 8527, Note_on_c, 0, 65, 123
1, 8675, Note_off_c, 0, 65, 123
1, 8676, Note_on_c, 0, 64, 113
1, 8768, Note_off_c, 0, 64, 113
1, 8769, Note_on_c, 0, 65, 122
1, 8872, Note_off_c, 0, 65, 122
1, 8874, Note_on_c, 0, 64, 113
1, 8957, Note_off_c, 0, 64, 113
1, 8960, Note_on_c, 0, 65, 123
1, 9073, Note_off_c, 0, 65, 123
1, 9080, Note_on_c, 0, 64, 109
1, 9151, Note_off_c, 0, 64, 109
1, 9155, Note_on_c, 0, 65, 108
1, 9501, Note_off_c, 0, 65, 108
1, 9507, Note_on_c, 0, 60, 105
1, 9691, Note_off_c, 0, 60, 105
1, 9700, Note_on_c, 0, 65, 106
1, 10073, Note_off_c, 0, 65, 106
1, 10080, Note_on_c, 0, 65, 104
1, 10170, Note_off_c, 0, 65, 104
1, 10425, Note_on_c, 0, 63, 104
1, 10468, Note_off_c, 0, 63, 104
1, 10471, Note_on_c, 0, 65, 123
1, 10581, Note_off_c, 0, 65, 123
1, 10588, Note_on_c, 0, 64, 111
1, 10676, Note_off_c, 0, 64, 111
1, 10679, Note_on_c, 0, 65, 117
1, 11049, Note_off_c, 0, 65, 117
1, 11059, Note_on_c, 0, 60, 108
1, 11230, Note_off_c, 0, 60, 108
1, 11237, Note_on_c, 0, 65, 108
1, 11586, Note_off_c, 0, 65, 108
1, 11597, Note_on_c, 0, 65, 119
1, 11731, Note_off_c, 0, 65, 119
1, 11743, Note_on_c, 0, 60, 109
1, 11801, Note_off_c, 0, 60, 109
1, 11808, Note_on_c, 0, 61, 107
1, 11903, Note_off_c, 0, 61, 107
1, 11911, Note_on_c, 0, 58, 107
1, 11983, Note_off_c, 0, 58, 107
1, 11988, Note_on_c, 0, 55, 101
1, 12099, Note_off_c, 0, 55, 101
1, 12112, Note_on_c, 0, 51, 97
1, 12175, Note_off_c, 0, 51, 97
1, 12201, Note_on_c, 0, 60, 109
1, 12305, Note_off_c, 0, 60, 109
1, 12307, Note_on_c, 0, 58, 101
1, 12364, Note_off_c, 0, 58, 101
1, 12369, Note_on_c, 0, 63, 120
1, 12483, Note_off_c, 0, 63, 120
1, 12488, Note_on_c, 0, 62, 116
1, 12566, Note_off_c, 0, 62, 116
1, 12574, Note_on_c, 0, 61, 109
1, 12661, Note_off_c, 0, 61, 109
1, 12671, Note_on_c, 0, 58, 101
1, 12755, Note_off_c, 0, 58, 101
1, 12768, Note_on_c, 0, 55, 103
1, 12867, Note_off_c, 0, 55, 103
1, 12877, Note_on_c, 0, 51, 96
1, 12928, Note_off_c, 0, 51, 96
1, 12950, Note_on_c, 0, 58, 96
1, 13170, Note_off_c, 0, 58, 96
1, 13523, Note_on_c, 0, 55, 109
1, 13582, Note_off_c, 0, 55, 109
1, 13585, Note_on_c, 0, 56, 100
1, 13699, Note_off_c, 0, 56, 100
1, 13741, Note_on_c, 0, 55, 115
1, 13789, Note_off_c, 0, 55, 115
1, 13793, Note_on_c, 0, 56, 103
1, 13875, Note_off_c, 0, 56, 103
1, 13883, Note_on_c, 0, 55, 104
1, 14001, Note_off_c, 0, 55, 104
1, 14003, Note_on_c, 0, 56, 99
1, 14084, Note_off_c, 0, 56, 99
1, 14097, Note_on_c, 0, 53, 100
1, 14195, Note_off_c, 0, 53, 100
1, 14201, Note_on_c, 0, 56, 98
1, 14276, Note_off_c, 0, 56, 98
1, 14282, Note_on_c, 0, 55, 100
1, 14382, Note_off_c, 0, 55, 100
1, 14386, Note_on_c, 0, 56, 92
1, 14455, Note_off_c, 0, 56, 92
1, 14461, Note_on_c, 0, 55, 98
1, 14560, Note_off_c, 0, 55, 98
1, 14564, Note_on_c, 0, 56, 94
1, 14643, Note_off_c, 0, 56, 94
1, 14649, Note_on_c, 0, 55, 98
1, 14762, Note_off_c, 0, 55, 98
1, 14767, Note_on_c, 0, 56, 92
1, 14843, Note_off_c, 0, 56, 92
1, 14845, Note_on_c, 0, 53, 89
1, 14948, Note_off_c, 0, 53, 89
1, 14955, Note_on_c, 0, 56, 93
1, 15036, Note_off_c, 0, 56, 93
1, 15042, Note_on_c, 0, 55, 99
1, 15136, Note_off_c, 0, 55, 99
1, 15138, Note_on_c, 0, 56, 92
1, 15227, Note_off_c, 0, 56, 92
1, 15232, Note_on_c, 0, 55, 98
1, 15319, Note_off_c, 0, 55, 98
1, 15319, Note_on_c, 0, 56, 91
1, 15407, Note_off_c, 0, 56, 91
1, 15419, Note_on_c, 0, 54, 109
1, 15520, Note_off_c, 0, 54, 109
1, 15523, Note_on_c, 0, 56, 95
1, 15619, Note_off_c, 0, 56, 95
1, 15631, Note_on_c, 0, 58, 96
1, 15736, Note_off_c, 0, 58, 96
1, 15737, Note_on_c, 0, 56, 96
1, 15824, Note_off_c, 0, 56, 96
1, 15827, Note_on_c, 0, 55, 102
1, 15931, Note_off_c, 0, 55, 102
1, 15935, Note_on_c, 0, 56, 94
1, 15998, Note_off_c, 0, 56, 94
1, 16007, Note_on_c, 0, 55, 100
1, 16101, Note_off_c, 0, 55, 100
1, 16106, Note_on_c, 0, 56, 94
1, 16188, Note_off_c, 0, 56, 94
1, 16204, Note_on_c, 0, 55, 102
1, 16335, Note_off_c, 0, 55, 102
1, 16339, Note_on_c, 0, 56, 95
1, 16364, Note_off_c, 0, 56, 95
1, 16367, Note_on_c, 0, 60, 107
1, 16524, Note_off_c, 0, 60, 107
1, 16532, Note_on_c, 0, 56, 99
1, 16590, Note_off_c, 0, 56, 99
1, 16598, Note_on_c, 0, 55, 110
1, 16658, Note_off_c, 0, 55, 110
1, 16664, Note_on_c, 0, 56, 96
1, 16760, Note_off_c, 0, 56, 96
1, 16769, Note_on_c, 0, 55, 99
1, 16865, Note_off_c, 0, 55, 99
1, 16871, Note_on_c, 0, 56, 92
1, 16956, Note_off_c, 0, 56, 92
1, 16962, Note_on_c, 0, 55, 110
1, 17041, Note_off_c, 0, 55, 110
1, 17046, Note_on_c, 0, 56, 97
1, 17114, Note_off_c, 0, 56, 97
1, 17128, Note_on_c, 0, 51, 103
1, 17256, Note_off_c, 0, 51, 103
1, 17265, Note_on_c, 0, 56, 102
1, 17325, Note_off_c, 0, 56, 102
1, 17333, Note_on_c, 0, 55, 106
1, 17448, Note_off_c, 0, 55, 106
1, 17451, Note_on_c, 0, 56, 97
1, 17522, Note_off_c, 0, 56, 97
1, 17530, Note_on_c, 0, 55, 101
1, 17612, Note_off_c, 0, 55, 101
1, 17615, Note_on_c, 0, 56, 101
1, 17703, Note_off_c, 0, 56, 101
1, 17711, Note_on_c, 0, 55, 116
1, 17825, Note_off_c, 0, 55, 116
1, 17832, Note_on_c, 0, 56, 98
1, 17909, Note_off_c, 0, 56, 98
1, 17921, Note_on_c, 0, 63, 115
1, 18046, Note_off_c, 0, 63, 115
1, 18054, Note_on_c, 0, 56, 101
1, 18117, Note_off_c, 0, 56, 101
1, 18120, Note_on_c, 0, 55, 112
1, 18241, Note_off_c, 0, 55, 112
1, 18244, Note_on_c, 0, 56, 95
1, 18301, Note_off_c, 0, 56, 95
1, 18315, Note_on_c, 0, 60, 110
1, 18425, Note_off_c, 0, 60, 110
1, 18428, Note_on_c, 0, 56, 99
1, 18496, Note_off_c, 0, 56, 99
1, 18502, Note_on_c, 0, 55, 99
1, 18605, Note_off_c, 0, 55, 99
1, 18606, Note_on_c, 0, 56, 93
1, 18685, Note_off_c, 0, 56, 93
1, 18688, Note_on_c, 0, 65, 119
1, 18806, Note_off_c, 0, 65, 119
1, 18814, Note_on_c, 0, 56, 96
1, 18882, Note_off_c, 0, 56, 96
1, 18885, Note_on_c, 0, 55, 101
1, 18999, Note_off_c, 0, 55, 101
1, 19005, Note_on_c, 0, 56, 93
1, 19068, Note_off_c, 0, 56, 93
1, 19077, Note_on_c, 0, 63, 117
1, 19209, Note_off_c, 0, 63, 117
1, 19215, Note_on_c, 0, 56, 96
1, 19273, Note_off_c, 0, 56, 96
1, 19276, Note_on_c, 0, 55, 103
1, 19395, Note_off_c, 0, 55, 103
1, 19397, Note_on_c, 0, 56, 97
1, 19459, Note_off_c, 0, 56, 97
1, 19462, Note_on_c, 0, 60, 110
1, 19583, Note_off_c, 0, 60, 110
1, 19591, Note_on_c, 0, 57, 106
1, 19644, Note_off_c, 0, 57, 106
1, 19651, Note_on_c, 0, 58, 105
1, 19792, Note_off_c, 0, 58, 105
1, 19795, Note_on_c, 0, 57, 99
1, 19844, Note_off_c, 0, 57, 99
1, 19851, Note_on_c, 0, 58, 103
1, 19964, Note_off_c, 0, 58, 103
1, 19970, Note_on_c, 0, 56, 98
1, 20033, Note_off_c, 0, 56, 98
1, 20038, Note_on_c, 0, 53, 109
1, 20137, Note_off_c, 0, 53, 109
1, 20143, Note_on_c, 0, 51, 96
1, 20202, Note_off_c, 0, 51, 96
1, 20215, Note_on_c, 0, 56, 93
1, 20361, Note_off_c, 0, 56, 93
1, 20751, Note_on_c, 0, 53, 102
1, 20782, Note_off_c, 0, 53, 102
1, 20786, Note_on_c, 0, 57, 103
1, 20811, Note_off_c, 0, 57, 103
1, 20812, Note_on_c, 0, 66, 122
1, 20848, Note_off_c, 0, 66, 122
1, 20855, Note_on_c, 0, 68, 118
1, 21661, Note_off_c, 0, 68, 118
1, 21760, Note_on_c, 0, 65, 127
1, 21934, Note_off_c, 0, 65, 127
1, 22119, Note_on_c, 0, 67, 93
1, 22145, Note_off_c, 0, 67, 93
1, 22149, Note_on_c, 0, 68, 123
1, 22330, Note_off_c, 0, 68, 123
1, 22440, Note_on_c, 0, 65, 124
1, 22589, Note_off_c, 0, 65, 124
1, 22720, Note_on_c, 0, 71, 119
1, 22823, Note_off_c, 0, 71, 119
1, 22831, Note_on_c, 0, 72, 114
1, 22903, Note_off_c, 0, 72, 114
1, 22904, Note_on_c, 0, 71, 110
1, 22967, Note_off_c, 0, 71, 110
1, 22973, Note_on_c, 0, 72, 110
1, 23004, Note_off_c, 0, 72, 110
1, 23008, Note_on_c, 0, 71, 113
1, 23064, Note_off_c, 0, 71, 113
1, 23067, Note_on_c, 0, 70, 119
1, 23224, Note_off_c, 0, 70, 119
1, 23261, Note_on_c, 0, 68, 113
1, 23437, Note_off_c, 0, 68, 113
1, 23453, Note_on_c, 0, 65, 107
1, 23634, Note_off_c, 0, 65, 107
1, 23646, Note_on_c, 0, 72, 111
1, 23888, Note_off_c, 0, 72, 111
1, 23930, Note_on_c, 0, 65, 105
1, 24229, Note_off_c, 0, 65, 105
1, 24238, Note_on_c, 0, 60, 111
1, 24352, Note_off_c, 0, 60, 111
1, 24355, Note_on_c, 0, 61, 113
1, 24423, Note_off_c, 0, 61, 113
1, 24424, Note_on_c, 0, 62, 119
1, 24513, Note_off_c, 0, 62, 119
1, 24516, Note_on_c, 0, 63, 121
1, 24580, Note_off_c, 0, 63, 121
1, 24590, Note_on_c, 0, 60, 112
1, 24680, Note_off_c, 0, 60, 112
1, 24685, Note_on_c, 0, 58, 106
1, 24757, Note_off_c, 0, 58, 106
1, 24766, Note_on_c, 0, 56, 106
1, 24866, Note_off_c, 0, 56, 106
1, 24873, Note_on_c, 0, 53, 98
1, 24940, Note_off_c, 0, 53, 98
1, 24969, Note_on_c, 0, 60, 109
1, 25071, Note_off_c, 0, 60, 109
1, 25072, Note_on_c, 0, 61, 110
1, 25140, Note_off_c, 0, 61, 110
1, 25142, Note_on_c, 0, 62, 118
1, 25217, Note_off_c, 0, 62, 118
1, 25219, Note_on_c, 0, 63, 122
1, 25332, Note_off_c, 0, 63, 122
1, 25338, Note_on_c, 0, 60, 113
1, 25426, Note_off_c, 0, 60, 113
1, 25429, Note_on_c, 0, 58, 103
1, 25503, Note_off_c, 0, 58, 103
1, 25505, Note_on_c, 0, 56, 106
1, 25597, Note_off_c, 0, 56, 106
1, 25598, Note_on_c, 0, 53, 97
1, 25704, Note_off_c, 0, 53, 97
1, 25708, Note_on_c, 0, 51, 111
1, 25825, Note_off_c, 0, 51, 111
1, 25831, Note_on_c, 0, 53, 97
1, 25893, Note_off_c, 0, 53, 97
1, 25899, Note_on_c, 0, 56, 101
1, 26018, Note_off_c, 0, 56, 101
1, 26308, Note_on_c, 0, 51, 121
1, 26386, Note_off_c, 0, 51, 121
1, 26392, Note_on_c, 0, 53, 112
1, 26494, Note_off_c, 0, 53, 112
1, 26500, Note_on_c, 0, 57, 112
1, 26595, Note_off_c, 0, 57, 112
1, 26601, Note_on_c, 0, 60, 110
1, 26656, Note_off_c, 0, 60, 110
1, 26661, Note_on_c, 0, 65, 118
1, 26935, Note_off_c, 0, 65, 118
1, 26939, Note_on_c, 0, 63, 118
1, 27036, Note_off_c, 0, 63, 118
1, 27041, Note_on_c, 0, 60, 122
1, 27131, Note_off_c, 0, 60, 122
1, 27133, Note_on_c, 0, 56, 104
1, 27224, Note_off_c, 0, 56, 104
1, 27231, Note_on_c, 0, 53, 116
1, 27334, Note_off_c, 0, 53, 116
1, 27339, Note_on_c, 0, 51, 93
1, 27398, Note_off_c, 0, 51, 93
1, 27403, Note_on_c, 0, 56, 97
1, 27585, Note_off_c, 0, 56, 97
1, 27585, End_track
0, 0, End_of_file
