0, 0, Header, 1, 1, 192
1, 0, Start_track
1, 0, Title_t, "Melody"
1, 0, Tempo, 292682
1, 0, Key_signature, -2, "major"
1, 0, Time_signature, 4, 2, 24, 8
1, 4732, Note_on_c, 0, 60, 106
1, 4756, Note_off_c, 0, 60, 106
1, 4762, Note_on_c, 0, 61, 105
1, 4842, Note_off_c, 0, 61, 105
1, 4852, Note_on_c, 0, 62, 102
1, 4929, Note_off_c, 0, 62, 102
1, 4939, Note_on_c, 0, 65, 115
1, 5016, Note_off_c, 0, 65, 115
1, 5033, Note_on_c, 0, 67, 108
1, 5132, Note_off_c, 0, 67, 108
1, 5140, Note_on_c, 0, 65, 105
1, 5219, Note_off_c, 0, 65, 105
1, 5243, Note_on_c, 0, 74, 96
1, 5329, Note_off_c, 0, 74, 96
1, 5337, Note_on_c, 0, 73, 109
1, 5413, Note_off_c, 0, 73, 109
1, 5418, Note_on_c, 0, 72, 107
1, 5539, Note_off_c, 0, 72, 107
1, 5543, Note_on_c, 0, 71, 104
1, 5620, Note_off_c, 0, 71, 104
1, 5629, Note_on_c, 0, 70, 103
1, 5720, Note_off_c, 0, 70, 103
1, 5732, Note_on_c, 0, 65, 107
1, 5802, Note_off_c, 0, 65, 107
1, 5812, Note_on_c, 0, 62, 96
1, 5892, Note_off_c, 0, 62, 96
1, 5894, Note_on_c, 0, 60, 95
1, 5954, Note_off_c, 0, 60, 95
1, 5965, Note_on_c, 0, 58, 103
1, 6099, Note_off_c, 0, 58, 103
1, 6115, Note_on_c, 0, 55, 103
1, 6181, Note_off_c, 0, 55, 103
1, 6200, Note_on_c, 0, 53, 92
1, 6260, Note_off_c, 0, 53, 92
1, 6316, Note_on_c, 0, 60, 100
1, 6369, Note_off_c, 0, 60, 100
1, 6380, Note_on_c, 0, 58, 93
1, 6478, Note_off_c, 0, 58, 93
1, 6491, Note_on_c, 0, 61, 92
1, 6554, Note_off_c, 0, 61, 92
1, 6571, Note_on_c, 0, 65, 110
1, 6677, Note_off_c, 0, 65, 110
1, 6750, Note_on_c, 0, 65, 106
1, 6850, Note_off_c, 0, 65, 106
1, 6874, Note_on_c, 0, 70, 104
1, 6943, Note_off_c, 0, 70, 104
1, 6963, Note_on_c, 0, 65, 98
1, 7031, Note_off_c, 0, 65, 98
1, 7067, Note_on_c, 0, 70, 101
1, 7131, Note_off_c, 0, 70, 101
1, 7136, Note_on_c, 0, 73, 105
1, 7224, Note_off_c, 0, 73, 105
1, 7233, Note_on_c, 0, 72, 105
1, 7287, Note_off_c, 0, 72, 105
1, 7292, Note_on_c, 0, 71, 103
1, 7324, Note_off_c, 0, 71, 103
1, 7325, Note_on_c, 0, 70, 105
1, 7424, Note_off_c, 0, 70, 105
1, 7429, Note_on_c, 0, 67, 112
1, 7492, Note_off_c, 0, 67, 112
1, 7518, Note_on_c, 0, 61, 102
1, 7584, Note_off_c, 0, 61, 102
1, 7597, Note_on_c, 0, 60, 97
1, 7629, Note_off_c, 0, 60, 97
1, 7636, Note_on_c, 0, 59, 103
1, 7664, Note_off_c, 0, 59, 103
1, 7676, Note_on_c, 0, 58, 103
1, 7779, Note_off_c, 0, 58, 103
1, 7829, Note_on_c, 0, 56, 103
1, 7874, Note_off_c, 0, 56, 103
1, 7901, Note_on_c, 0, 57, 93
1, 7969, Note_off_c, 0, 57, 93
1, 7996, Note_on_c, 0, 58, 100
1, 8052, Note_off_c, 0, 58, 100
1, 8104, Note_on_c, 0, 59, 93
1, 8165, Note_off_c, 0, 59, 93
1, 8198, Note_on_c, 0, 60, 95
1, 8250, Note_off_c, 0, 60, 95
1, 8272, Note_on_c, 0, 62, 96
1, 8334, Note_off_c, 0, 62, 96
1, 8384, Note_on_c, 0, 59, 92
1, 8443, Note_off_c, 0, 59, 92
1, 8477, Note_on_c, 0, 60, 86
1, 8533, Note_off_c, 0, 60, 86
1, 8567, Note_on_c, 0, 62, 95
1, 8627, Note_off_c, 0, 62, 95
1, 8650, Note_on_c, 0, 64, 96
1, 8728, Note_off_c, 0, 64, 96
1, 8749, Note_on_c, 0, 65, 110
1, 8824, Note_off_c, 0, 65, 110
1, 8833, Note_on_c, 0, 67, 110
1, 8946, Note_off_c, 0, 67, 110
1, 8971, Note_on_c, 0, 64, 94
1, 9035, Note_off_c, 0, 64, 94
1, 9045, Note_on_c, 0, 65, 108
1, 9123, Note_off_c, 0, 65, 108
1, 9132, Note_on_c, 0, 67, 104
1, 9219, Note_off_c, 0, 67, 104
1, 9620, Note_on_c, 0, 67, 106
1, 9684, Note_off_c, 0, 67, 106
1, 9734, Note_on_c, 0, 68, 111
1, 9801, Note_off_c, 0, 68, 111
1, 9865, Note_on_c, 0, 64, 87
1, 9927, Note_off_c, 0, 64, 87
1, 9970, Note_on_c, 0, 65, 108
1, 10069, Note_off_c, 0, 65, 108
1, 10129, Note_on_c, 0, 61, 95
1, 10202, Note_off_c, 0, 61, 95
1, 10301, Note_on_c, 0, 62, 97
1, 10383, Note_off_c, 0, 62, 97
1, 10496, Note_on_c, 0, 58, 101
1, 10554, Note_off_c, 0, 58, 101
1, 10570, Note_on_c, 0, 59, 94
1, 10640, Note_off_c, 0, 59, 94
1, 10681, Note_on_c, 0, 55, 96
1, 10746, Note_off_c, 0, 55, 96
1, 10764, Note_on_c, 0, 56, 97
1, 10828, Note_off_c, 0, 56, 97
1, 10889, Note_on_c, 0, 62, 96
1, 10946, Note_off_c, 0, 62, 96
1, 10961, Note_on_c, 0, 58, 93
1, 11113, Note_off_c, 0, 58, 93
1, 11446, Note_on_c, 0, 55, 100
1, 11468, Note_off_c, 0, 55, 100
1, 11483, Note_on_c, 0, 58, 102
1, 11547, Note_off_c, 0, 58, 102
1, 11553, Note_on_c, 0, 62, 91
1, 11622, Note_off_c, 0, 62, 91
1, 11634, Note_on_c, 0, 65, 113
1, 11719, Note_off_c, 0, 65, 113
1, 11738, Note_on_c, 0, 64, 102
1, 11811, Note_off_c, 0, 64, 102
1, 11823, Note_on_c, 0, 67, 111
1, 11902, Note_off_c, 0, 67, 111
1, 11917, Note_on_c, 0, 70, 102
1, 12005, Note_off_c, 0, 70, 102
1, 12025, Note_on_c, 0, 74, 104
1, 12110, Note_off_c, 0, 74, 104
1, 12121, Note_on_c, 0, 72, 104
1, 12156, Note_off_c, 0, 72, 104
1, 12159, Note_on_c, 0, 74, 103
1, 12202, Note_off_c, 0, 74, 103
1, 12207, Note_on_c, 0, 72, 103
1, 12245, Note_off_c, 0, 72, 103
1, 12257, Note_on_c, 0, 71, 102
1, 12294, Note_off_c, 0, 71, 102
1, 12304, Note_on_c, 0, 70, 96
1, 12331, Note_off_c, 0, 70, 96
1, 12339, Note_on_c, 0, 67, 102
1, 12362, Note_off_c, 0, 67, 102
1, 12375, Note_on_c, 0, 64, 96
1, 12401, Note_off_c, 0, 64, 96
1, 12410, Note_on_c, 0, 61, 95
1, 12460, Note_off_c, 0, 61, 95
1, 12475, Note_on_c, 0, 60, 99
1, 12542, Note_off_c, 0, 60, 99
1, 12600, Note_on_c, 0, 69, 105
1, 12669, Note_off_c, 0, 69, 105
1, 12689, Note_on_c, 0, 64, 96
1, 12759, Note_off_c, 0, 64, 96
1, 12784, Note_on_c, 0, 60, 96
1, 12829, Note_off_c, 0, 60, 96
1, 12832, Note_on_c, 0, 59, 98
1, 12850, Note_off_c, 0, 59, 98
1, 12860, Note_on_c, 0, 58, 95
1, 12943, Note_off_c, 0, 58, 95
1, 12974, Note_on_c, 0, 56, 105
1, 13041, Note_off_c, 0, 56, 105
1, 13069, Note_on_c, 0, 57, 93
1, 13113, Note_off_c, 0, 57, 93
1, 13152, Note_on_c, 0, 60, 91
1, 13211, Note_off_c, 0, 60, 91
1, 13237, Note_on_c, 0, 67, 102
1, 13317, Note_off_c, 0, 67, 102
1, 13339, Note_on_c, 0, 64, 94
1, 13419, Note_off_c, 0, 64, 94
1, 13430, Note_on_c, 0, 65, 100
1, 13508, Note_off_c, 0, 65, 100
1, 13532, Note_on_c, 0, 69, 104
1, 13595, Note_off_c, 0, 69, 104
1, 13617, Note_on_c, 0, 72, 101
1, 13700, Note_off_c, 0, 72, 101
1, 13729, Note_on_c, 0, 76, 90
1, 13791, Note_off_c, 0, 76, 90
1, 13854, Note_on_c, 0, 77, 86
1, 13882, Note_off_c, 0, 77, 86
1, 13901, Note_on_c, 0, 79, 92
1, 14036, Note_off_c, 0, 79, 92
1, 14099, Note_on_c, 0, 75, 99
1, 14131, Note_off_c, 0, 75, 99
1, 14136, Note_on_c, 0, 76, 92
1, 14196, Note_off_c, 0, 76, 92
1, 14256, Note_on_c, 0, 70, 95
1, 14307, Note_off_c, 0, 70, 95
1, 14320, Note_on_c, 0, 71, 96
1, 14375, Note_off_c, 0, 71, 96
1, 14423, Note_on_c, 0, 67, 97
1, 14547, Note_off_c, 0, 67, 97
1, 14589, Note_on_c, 0, 69, 98
1, 14694, Note_off_c, 0, 69, 98
1, 14743, Note_on_c, 0, 65, 99
1, 14858, Note_off_c, 0, 65, 99
1, 14916, Note_on_c, 0, 62, 96
1, 15026, Note_off_c, 0, 62, 96
1, 15105, Note_on_c, 0, 59, 98
1, 15186, Note_off_c, 0, 59, 98
1, 15300, Note_on_c, 0, 55, 101
1, 15347, Note_off_c, 0, 55, 101
1, 15384, Note_on_c, 0, 64, 95
1, 15511, Note_off_c, 0, 64, 95
1, 15920, Note_on_c, 0, 60, 107
1, 15958, Note_off_c, 0, 60, 107
1, 15965, Note_on_c, 0, 62, 102
1, 15984, Note_off_c, 0, 62, 102
1, 15996, Note_on_c, 0, 60, 102
1, 16026, Note_off_c, 0, 60, 102
1, 16042, Note_on_c, 0, 59, 105
1, 16096, Note_off_c, 0, 59, 105
1, 16114, Note_on_c, 0, 58, 104
1, 16185, Note_off_c, 0, 58, 104
1, 16215, Note_on_c, 0, 56, 109
1, 16289, Note_off_c, 0, 56, 109
1, 16308, Note_on_c, 0, 57, 95
1, 16387, Note_off_c, 0, 57, 95
1, 16414, Note_on_c, 0, 60, 96
1, 16474, Note_off_c, 0, 60, 96
1, 16498, Note_on_c, 0, 65, 110
1, 16579, Note_off_c, 0, 65, 110
1, 16585, Note_on_c, 0, 66, 106
1, 16664, Note_off_c, 0, 66, 106
1, 16685, Note_on_c, 0, 63, 97
1, 16763, Note_off_c, 0, 63, 97
1, 16800, Note_on_c, 0, 59, 98
1, 16862, Note_off_c, 0, 59, 98
1, 16884, Note_on_c, 0, 58, 95
1, 16970, Note_off_c, 0, 58, 95
1, 16981, Note_on_c, 0, 65, 110
1, 17056, Note_off_c, 0, 65, 110
1, 17084, Note_on_c, 0, 62, 95
1, 17143, Note_off_c, 0, 62, 95
1, 17191, Note_on_c, 0, 57, 96
1, 17263, Note_off_c, 0, 57, 96
1, 17276, Note_on_c, 0, 60, 96
1, 17373, Note_off_c, 0, 60, 96
1, 17430, Note_on_c, 0, 58, 94
1, 17914, Note_off_c, 0, 58, 94
1, 17919, Note_on_c, 0, 60, 91
1, 17971, Note_off_c, 0, 60, 91
1, 17979, Note_on_c, 0, 62, 94
1, 18038, Note_off_c, 0, 62, 94
1, 18044, Note_on_c, 0, 65, 106
1, 18129, Note_off_c, 0, 65, 106
1, 18150, Note_on_c, 0, 69, 110
1, 18211, Note_off_c, 0, 69, 110
1, 18229, Note_on_c, 0, 72, 101
1, 18328, Note_off_c, 0, 72, 101
1, 18341, Note_on_c, 0, 69, 105
1, 18403, Note_off_c, 0, 69, 105
1, 18423, Note_on_c, 0, 70, 100
1, 18505, Note_off_c, 0, 70, 100
1, 18526, Note_on_c, 0, 72, 102
1, 18572, Note_off_c, 0, 72, 102
1, 18582, Note_on_c, 0, 70, 100
1, 18606, Note_off_c, 0, 70, 100
1, 18625, Note_on_c, 0, 69, 101
1, 18679, Note_off_c, 0, 69, 101
1, 18721, Note_on_c, 0, 70, 103
1, 18822, Note_off_c, 0, 70, 103
1, 18851, Note_on_c, 0, 72, 91
1, 18887, Note_off_c, 0, 72, 91
1, 18891, Note_on_c, 0, 70, 97
1, 18904, Note_off_c, 0, 70, 97
1, 18906, Note_on_c, 0, 69, 103
1, 18968, Note_off_c, 0, 69, 103
1, 19010, Note_on_c, 0, 70, 103
1, 19129, Note_off_c, 0, 70, 103
1, 19137, Note_on_c, 0, 72, 91
1, 19163, Note_off_c, 0, 72, 91
1, 19181, Note_on_c, 0, 69, 101
1, 19275, Note_off_c, 0, 69, 101
1, 19310, Note_on_c, 0, 70, 106
1, 19419, Note_off_c, 0, 70, 106
1, 19430, Note_on_c, 0, 72, 99
1, 19461, Note_off_c, 0, 72, 99
1, 19476, Note_on_c, 0, 70, 99
1, 19515, Note_off_c, 0, 70, 99
1, 19536, Note_on_c, 0, 69, 97
1, 19595, Note_off_c, 0, 69, 97
1, 19613, Note_on_c, 0, 70, 106
1, 19763, Note_off_c, 0, 70, 106
1, 19770, Note_on_c, 0, 67, 101
1, 19851, Note_off_c, 0, 67, 101
1, 19894, Note_on_c, 0, 68, 101
1, 19963, Note_off_c, 0, 68, 101
1, 19974, Note_on_c, 0, 69, 98
1, 20055, Note_off_c, 0, 69, 98
1, 20099, Note_on_c, 0, 71, 103
1, 20139, Note_off_c, 0, 71, 103
1, 20152, Note_on_c, 0, 72, 103
1, 20254, Note_off_c, 0, 72, 103
1, 20279, Note_on_c, 0, 69, 110
1, 20343, Note_off_c, 0, 69, 110
1, 20360, Note_on_c, 0, 64, 91
1, 20459, Note_off_c, 0, 64, 91
1, 20494, Note_on_c, 0, 64, 87
1, 20527, Note_off_c, 0, 64, 87
1, 20532, Note_on_c, 0, 67, 102
1, 20649, Note_off_c, 0, 67, 102
1, 20666, Note_on_c, 0, 64, 87
1, 20710, Note_off_c, 0, 64, 87
1, 20713, Note_on_c, 0, 65, 106
1, 20820, Note_off_c, 0, 65, 106
1, 20886, Note_on_c, 0, 76, 99
1, 20944, Note_off_c, 0, 76, 99
1, 21039, Note_on_c, 0, 71, 98
1, 21069, Note_off_c, 0, 71, 98
1, 21073, Note_on_c, 0, 72, 104
1, 21124, Note_off_c, 0, 72, 104
1, 21357, Note_on_c, 0, 73, 102
1, 21396, Note_off_c, 0, 73, 102
1, 21399, Note_on_c, 0, 74, 96
1, 21444, Note_off_c, 0, 74, 96
1, 21524, Note_on_c, 0, 70, 96
1, 21576, Note_off_c, 0, 70, 96
1, 21660, Note_on_c, 0, 71, 95
1, 21704, Note_off_c, 0, 71, 95
1, 21783, Note_on_c, 0, 67, 100
1, 21842, Note_off_c, 0, 67, 100
1, 21915, Note_on_c, 0, 68, 104
1, 21982, Note_off_c, 0, 68, 104
1, 22084, Note_on_c, 0, 64, 90
1, 22139, Note_off_c, 0, 64, 90
1, 22176, Note_on_c, 0, 65, 94
1, 22236, Note_off_c, 0, 65, 94
1, 22290, Note_on_c, 0, 61, 85
1, 22335, Note_off_c, 0, 61, 85
1, 22377, Note_on_c, 0, 62, 87
1, 22426, Note_off_c, 0, 62, 87
1, 22477, Note_on_c, 0, 58, 96
1, 22518, Note_off_c, 0, 58, 96
1, 22571, Note_on_c, 0, 59, 99
1, 22616, Note_off_c, 0, 59, 99
1, 22651, Note_on_c, 0, 55, 100
1, 22702, Note_off_c, 0, 55, 100
1, 22752, Note_on_c, 0, 56, 100
1, 22806, Note_off_c, 0, 56, 100
1, 23203, Note_on_c, 0, 58, 103
1, 23278, Note_off_c, 0, 58, 103
1, 23300, Note_on_c, 0, 62, 98
1, 23351, Note_off_c, 0, 62, 98
1, 23370, Note_on_c, 0, 65, 111
1, 23465, Note_off_c, 0, 65, 111
1, 23482, Note_on_c, 0, 69, 112
1, 23566, Note_off_c, 0, 69, 112
1, 23575, Note_on_c, 0, 67, 101
1, 23601, Note_off_c, 0, 67, 101
1, 23608, Note_on_c, 0, 68, 100
1, 23639, Note_off_c, 0, 68, 100
1, 23648, Note_on_c, 0, 67, 97
1, 23667, Note_off_c, 0, 67, 97
1, 23685, Note_on_c, 0, 65, 99
1, 23743, Note_off_c, 0, 65, 99
1, 23769, Note_on_c, 0, 64, 93
1, 23848, Note_off_c, 0, 64, 93
1, 23868, Note_on_c, 0, 67, 104
1, 23951, Note_off_c, 0, 67, 104
1, 23956, Note_on_c, 0, 70, 103
1, 24038, Note_off_c, 0, 70, 103
1, 24048, Note_on_c, 0, 73, 105
1, 24144, Note_off_c, 0, 73, 105
1, 24153, Note_on_c, 0, 74, 102
1, 24245, Note_off_c, 0, 74, 102
1, 24262, Note_on_c, 0, 70, 102
1, 24329, Note_off_c, 0, 70, 102
1, 24344, Note_on_c, 0, 67, 106
1, 24433, Note_off_c, 0, 67, 106
1, 24440, Note_on_c, 0, 64, 96
1, 24498, Note_off_c, 0, 64, 96
1, 24549, Note_on_c, 0, 72, 89
1, 24568, Note_off_c, 0, 72, 89
1, 24579, Note_on_c, 0, 74, 98
1, 24610, Note_off_c, 0, 74, 98
1, 24620, Note_on_c, 0, 72, 101
1, 24683, Note_off_c, 0, 72, 101
1, 24699, Note_on_c, 0, 70, 102
1, 24800, Note_off_c, 0, 70, 102
1, 24831, Note_on_c, 0, 67, 109
1, 24901, Note_off_c, 0, 67, 109
1, 24913, Note_on_c, 0, 64, 99
1, 25012, Note_off_c, 0, 64, 99
1, 25017, Note_on_c, 0, 61, 99
1, 25104, Note_off_c, 0, 61, 99
1, 25114, Note_on_c, 0, 60, 101
1, 25186, Note_off_c, 0, 60, 101
1, 25191, Note_on_c, 0, 58, 101
1, 25275, Note_off_c, 0, 58, 101
1, 25292, Note_on_c, 0, 57, 105
1, 25411, Note_off_c, 0, 57, 105
1, 25419, Note_on_c, 0, 59, 102
1, 25481, Note_off_c, 0, 59, 102
1, 25488, Note_on_c, 0, 60, 96
1, 25553, Note_off_c, 0, 60, 96
1, 25574, Note_on_c, 0, 69, 112
1, 25654, Note_off_c, 0, 69, 112
1, 25696, Note_on_c, 0, 64, 97
1, 25756, Note_off_c, 0, 64, 97
1, 25782, Note_on_c, 0, 60, 95
1, 25841, Note_off_c, 0, 60, 95
1, 25869, Note_on_c, 0, 57, 102
1, 25947, Note_off_c, 0, 57, 102
1, 25953, Note_on_c, 0, 58, 101
1, 26026, Note_off_c, 0, 58, 101
1, 26043, Note_on_c, 0, 59, 93
1, 26131, Note_off_c, 0, 59, 93
1, 26176, Note_on_c, 0, 65, 109
1, 26215, Note_off_c, 0, 65, 109
1, 26229, Note_on_c, 0, 69, 110
1, 26325, Note_off_c, 0, 69, 110
1, 26354, Note_on_c, 0, 66, 101
1, 26410, Note_off_c, 0, 66, 101
1, 26424, Note_on_c, 0, 67, 106
1, 26510, Note_off_c, 0, 67, 106
1, 26529, Note_on_c, 0, 71, 100
1, 26589, Note_off_c, 0, 71, 100
1, 26657, Note_on_c, 0, 74, 101
1, 26736, Note_off_c, 0, 74, 101
1, 26762, Note_on_c, 0, 77, 100
1, 26810, Note_off_c, 0, 77, 100
1, 26817, Note_on_c, 0, 79, 100
1, 26879, Note_off_c, 0, 79, 100
1, 26944, Note_on_c, 0, 76, 101
1, 27003, Note_off_c, 0, 76, 101
1, 27124, Note_on_c, 0, 71, 100
1, 27152, Note_off_c, 0, 71, 100
1, 27158, Note_on_c, 0, 72, 101
1, 27211, Note_off_c, 0, 72, 101
1, 27301, Note_on_c, 0, 68, 106
1, 27325, Note_off_c, 0, 68, 106
1, 27331, Note_on_c, 0, 69, 104
1, 27387, Note_off_c, 0, 69, 104
1, 27484, Note_on_c, 0, 65, 96
1, 27557, Note_off_c, 0, 65, 96
1, 27583, Note_on_c, 0, 60, 94
1, 27660, Note_off_c, 0, 60, 94
1, 27714, Note_on_c, 0, 65, 105
1, 27782, Note_off_c, 0, 65, 105
1, 27969, Note_on_c, 0, 65, 98
1, 28118, Note_off_c, 0, 65, 98
1, 28463, Note_on_c, 0, 58, 106
1, 28513, Note_off_c, 0, 58, 106
1, 28525, Note_on_c, 0, 60, 100
1, 28595, Note_off_c, 0, 60, 100
1, 28625, Note_on_c, 0, 65, 109
1, 28724, Note_off_c, 0, 65, 109
1, 28740, Note_on_c, 0, 69, 110
1, 28853, Note_off_c, 0, 69, 110
1, 28875, Note_on_c, 0, 72, 107
1, 28978, Note_off_c, 0, 72, 107
1, 29012, Note_on_c, 0, 68, 113
1, 29062, Note_off_c, 0, 68, 113
1, 29073, Note_on_c, 0, 67, 111
1, 29141, Note_off_c, 0, 67, 111
1, 29146, Note_on_c, 0, 68, 109
1, 29187, Note_off_c, 0, 68, 109
1, 29296, Note_on_c, 0, 74, 105
1, 29374, Note_off_c, 0, 74, 105
1, 29434, Note_on_c, 0, 77, 105
1, 29511, Note_off_c, 0, 77, 105
1, 29987, Note_on_c, 0, 81, 105
1, 30021, Note_off_c, 0, 81, 105
1, 30027, Note_on_c, 0, 82, 101
1, 30067, Note_off_c, 0, 82, 101
1, 30163, Note_on_c, 0, 77, 96
1, 30221, Note_off_c, 0, 77, 96
1, 30288, Note_on_c, 0, 73, 100
1, 30317, Note_off_c, 0, 73, 100
1, 30318, Note_on_c, 0, 74, 102
1, 30394, Note_off_c, 0, 74, 102
1, 30441, Note_on_c, 0, 70, 98
1, 30525, Note_off_c, 0, 70, 98
1, 30557, Note_on_c, 0, 67, 103
1, 30631, Note_off_c, 0, 67, 103
1, 30753, Note_on_c, 0, 71, 100
1, 30812, Note_off_c, 0, 71, 100
1, 30820, Note_on_c, 0, 72, 104
1, 30898, Note_off_c, 0, 72, 104
1, 30915, Note_on_c, 0, 69, 106
1, 31007, Note_off_c, 0, 69, 106
1, 31019, Note_on_c, 0, 70, 99
1, 31103, Note_off_c, 0, 70, 99
1, 31121, Note_on_c, 0, 67, 107
1, 31195, Note_off_c, 0, 67, 107
1, 31199, Note_on_c, 0, 68, 113
1, 31300, Note_off_c, 0, 68, 113
1, 31316, Note_on_c, 0, 65, 109
1, 31383, Note_off_c, 0, 65, 109
1, 31407, Note_on_c, 0, 61, 97
1, 31463, Note_off_c, 0, 61, 97
1, 31488, Note_on_c, 0, 60, 99
1, 31512, Note_off_c, 0, 60, 99
1, 31530, Note_on_c, 0, 59, 101
1, 31554, Note_off_c, 0, 59, 101
1, 31566, Note_on_c, 0, 58, 103
1, 31666, Note_off_c, 0, 58, 103
1, 31699, Note_on_c, 0, 56, 107
1, 31778, Note_off_c, 0, 56, 107
1, 31787, Note_on_c, 0, 55, 100
1, 31853, Note_off_c, 0, 55, 100
1, 31881, Note_on_c, 0, 60, 96
1, 31950, Note_off_c, 0, 60, 96
1, 31971, Note_on_c, 0, 58, 100
1, 32056, Note_off_c, 0, 58, 100
1, 32082, Note_on_c, 0, 56, 101
1, 32172, Note_off_c, 0, 56, 101
1, 32191, Note_on_c, 0, 57, 106
1, 32270, Note_off_c, 0, 57, 106
1, 32284, Note_on_c, 0, 60, 94
1, 32342, Note_off_c, 0, 60, 94
1, 32378, Note_on_c, 0, 55, 101
1, 32442, Note_off_c, 0, 55, 101
1, 32475, Note_on_c, 0, 60, 98
1, 32536, Note_off_c, 0, 60, 98
1, 32563, Note_on_c, 0, 53, 100
1, 32762, Note_off_c, 0, 53, 100
1, 33229, Note_on_c, 0, 53, 101
1, 33374, Note_off_c, 0, 53, 101
1, 33432, Note_on_c, 0, 58, 101
1, 33476, Note_off_c, 0, 58, 101
1, 33627, Note_on_c, 0, 52, 101
1, 33759, Note_off_c, 0, 52, 101
1, 33813, Note_on_c, 0, 60, 98
1, 33853, Note_off_c, 0, 60, 98
1, 34080, Note_on_c, 0, 50, 109
1, 34318, Note_off_c, 0, 50, 109
1, 34785, Note_on_c, 0, 55, 107
1, 34846, Note_off_c, 0, 55, 107
1, 34854, Note_on_c, 0, 56, 104
1, 34923, Note_off_c, 0, 56, 104
1, 34939, Note_on_c, 0, 59, 98
1, 35013, Note_off_c, 0, 59, 98
1, 35049, Note_on_c, 0, 62, 100
1, 35134, Note_off_c, 0, 62, 100
1, 35150, Note_on_c, 0, 65, 110
1, 35239, Note_off_c, 0, 65, 110
1, 35249, Note_on_c, 0, 62, 100
1, 35325, Note_off_c, 0, 62, 100
1, 35346, Note_on_c, 0, 60, 101
1, 35380, Note_off_c, 0, 60, 101
1, 35386, Note_on_c, 0, 59, 102
1, 35426, Note_off_c, 0, 59, 102
1, 35440, Note_on_c, 0, 58, 105
1, 35514, Note_off_c, 0, 58, 105
1, 35530, Note_on_c, 0, 55, 102
1, 35610, Note_off_c, 0, 55, 102
1, 35634, Note_on_c, 0, 60, 95
1, 35711, Note_off_c, 0, 60, 95
1, 35749, Note_on_c, 0, 57, 95
1, 35833, Note_off_c, 0, 57, 95
1, 35922, Note_on_c, 0, 58, 96
1, 36027, Note_off_c, 0, 58, 96
1, 36466, Note_on_c, 0, 59, 91
1, 36522, Note_off_c, 0, 59, 91
1, 36568, Note_on_c, 0, 62, 95
1, 36632, Note_off_c, 0, 62, 95
1, 36636, Note_on_c, 0, 65, 108
1, 36723, Note_off_c, 0, 65, 108
1, 36739, Note_on_c, 0, 64, 97
1, 36824, Note_off_c, 0, 64, 97
1, 36832, Note_on_c, 0, 67, 112
1, 36904, Note_off_c, 0, 67, 112
1, 36921, Note_on_c, 0, 64, 95
1, 36995, Note_off_c, 0, 64, 95
1, 37025, Note_on_c, 0, 60, 101
1, 37087, Note_off_c, 0, 60, 101
1, 37101, Note_on_c, 0, 57, 106
1, 37178, Note_off_c, 0, 57, 106
1, 37199, Note_on_c, 0, 58, 102
1, 37256, Note_off_c, 0, 58, 102
1, 37265, Note_on_c, 0, 59, 98
1, 37295, Note_off_c, 0, 59, 98
1, 37305, Note_on_c, 0, 60, 96
1, 37374, Note_off_c, 0, 60, 96
1, 37399, Note_on_c, 0, 57, 104
1, 37469, Note_off_c, 0, 57, 104
1, 37495, Note_on_c, 0, 53, 104
1, 37596, Note_off_c, 0, 53, 104
1, 37637, Note_on_c, 0, 60, 98
1, 37675, Note_off_c, 0, 60, 98
1, 37683, Note_on_c, 0, 62, 95
1, 37766, Note_off_c, 0, 62, 95
1, 37808, Note_on_c, 0, 57, 101
1, 37888, Note_off_c, 0, 57, 101
1, 38001, Note_on_c, 0, 53, 103
1, 38078, Note_off_c, 0, 53, 103
1, 38182, Note_on_c, 0, 57, 103
1, 38259, Note_off_c, 0, 57, 103
1, 38355, Note_on_c, 0, 59, 101
1, 38435, Note_off_c, 0, 59, 101
1, 38535, Note_on_c, 0, 62, 94
1, 38627, Note_off_c, 0, 62, 94
1, 38740, Note_on_c, 0, 65, 111
1, 38820, Note_off_c, 0, 65, 111
1, 38932, Note_on_c, 0, 69, 113
1, 39025, Note_off_c, 0, 69, 113
1, 39130, Note_on_c, 0, 71, 105
1, 39213, Note_off_c, 0, 71, 105
1, 39317, Note_on_c, 0, 74, 105
1, 39387, Note_off_c, 0, 74, 105
1, 39527, Note_on_c, 0, 79, 91
1, 39568, Note_off_c, 0, 79, 91
1, 39593, Note_on_c, 0, 76, 95
1, 39666, Note_off_c, 0, 76, 95
1, 39710, Note_on_c, 0, 72, 9
1, 39786, Note_off_c, 0, 72, 9
1, 39877, Note_on_c, 0, 74, 99
1, 39951, Note_off_c, 0, 74, 99
1, 39984, Note_on_c, 0, 70, 99
1, 40076, Note_off_c, 0, 70, 99
1, 40109, Note_on_c, 0, 67, 105
1, 40185, Note_off_c, 0, 67, 105
1, 40269, Note_on_c, 0, 72, 102
1, 40338, Note_off_c, 0, 72, 102
1, 40366, Note_on_c, 0, 69, 108
1, 40455, Note_off_c, 0, 69, 108
1, 40516, Note_on_c, 0, 64, 94
1, 40584, Note_off_c, 0, 64, 94
1, 40672, Note_on_c, 0, 69, 104
1, 40740, Note_off_c, 0, 69, 104
1, 40774, Note_on_c, 0, 64, 93
1, 40863, Note_off_c, 0, 64, 93
1, 40880, Note_on_c, 0, 63, 92
1, 40987, Note_off_c, 0, 63, 92
1, 41464, Note_on_c, 0, 60, 100
1, 41481, Note_off_c, 0, 60, 100
1, 41483, Note_on_c, 0, 62, 102
1, 41559, Note_off_c, 0, 62, 102
1, 41639, Note_on_c, 0, 67, 102
1, 41683, Note_off_c, 0, 67, 102
1, 41700, Note_on_c, 0, 67, 105
1, 41820, Note_off_c, 0, 67, 105
1, 42196, Note_on_c, 0, 59, 94
1, 42249, Note_off_c, 0, 59, 94
1, 42254, Note_on_c, 0, 62, 98
1, 42323, Note_off_c, 0, 62, 98
1, 42341, Note_on_c, 0, 65, 99
1, 42385, Note_off_c, 0, 65, 99
1, 42419, Note_on_c, 0, 67, 107
1, 42488, Note_off_c, 0, 67, 107
1, 42512, Note_on_c, 0, 67, 109
1, 42643, Note_off_c, 0, 67, 109
1, 43013, Note_on_c, 0, 59, 99
1, 43075, Note_off_c, 0, 59, 99
1, 43128, Note_on_c, 0, 62, 103
1, 43206, Note_off_c, 0, 62, 103
1, 43236, Note_on_c, 0, 65, 114
1, 43336, Note_off_c, 0, 65, 114
1, 43386, Note_on_c, 0, 67, 114
1, 43473, Note_off_c, 0, 67, 114
1, 43554, Note_on_c, 0, 70, 108
1, 43650, Note_off_c, 0, 70, 108
1, 43724, Note_on_c, 0, 61, 98
1, 43898, Note_off_c, 0, 61, 98
1, 44507, Note_on_c, 0, 60, 103
1, 44622, Note_off_c, 0, 60, 103
1, 44634, Note_on_c, 0, 62, 101
1, 44749, Note_off_c, 0, 62, 101
1, 44791, Note_on_c, 0, 64, 100
1, 44923, Note_off_c, 0, 64, 100
1, 44945, Note_on_c, 0, 65, 108
1, 45029, Note_off_c, 0, 65, 108
1, 45106, Note_on_c, 0, 62, 96
1, 45237, Note_off_c, 0, 62, 96
1, 45247, Note_on_c, 0, 64, 94
1, 45363, Note_off_c, 0, 64, 94
1, 45375, Note_on_c, 0, 65, 109
1, 45498, Note_off_c, 0, 65, 109
1, 45512, Note_on_c, 0, 67, 105
1, 45631, Note_off_c, 0, 67, 105
1, 45701, Note_on_c, 0, 64, 90
1, 45790, Note_off_c, 0, 64, 90
1, 45806, Note_on_c, 0, 65, 106
1, 45914, Note_off_c, 0, 65, 106
1, 45959, Note_on_c, 0, 67, 108
1, 46072, Note_off_c, 0, 67, 108
1, 46096, Note_on_c, 0, 68, 108
1, 46235, Note_off_c, 0, 68, 108
1, 46252, Note_on_c, 0, 67, 108
1, 46361, Note_off_c, 0, 67, 108
1, 46379, Note_on_c, 0, 68, 113
1, 46495, Note_off_c, 0, 68, 113
1, 46548, Note_on_c, 0, 70, 101
1, 46653, Note_off_c, 0, 70, 101
1, 46674, Note_on_c, 0, 71, 101
1, 46777, Note_off_c, 0, 71, 101
1, 46830, Note_on_c, 0, 73, 101
1, 46938, Note_off_c, 0, 73, 101
1, 46964, Note_on_c, 0, 74, 96
1, 47069, Note_off_c, 0, 74, 96
1, 47147, Note_on_c, 0, 76, 97
1, 47220, Note_off_c, 0, 76, 97
1, 47242, Note_on_c, 0, 74, 95
1, 47299, Note_off_c, 0, 74, 95
1, 47316, Note_on_c, 0, 76, 96
1, 47377, Note_off_c, 0, 76, 96
1, 47532, Note_on_c, 0, 74, 97
1, 47698, Note_off_c, 0, 74, 97
1, 47698, Note_on_c, 0, 74, 80
1, 47698, Note_off_c, 0, 74, 80
1, 48118, Note_on_c, 0, 67, 101
1, 48172, Note_off_c, 0, 67, 101
1, 48201, Note_on_c, 0, 69, 109
1, 48277, Note_off_c, 0, 69, 109
1, 48303, Note_on_c, 0, 72, 107
1, 48395, Note_off_c, 0, 72, 107
1, 48416, Note_on_c, 0, 69, 108
1, 48508, Note_off_c, 0, 69, 108
1, 48534, Note_on_c, 0, 64, 94
1, 48574, Note_off_c, 0, 64, 94
1, 48600, Note_on_c, 0, 67, 114
1, 48688, Note_off_c, 0, 67, 114
1, 48714, Note_on_c, 0, 64, 104
1, 48767, Note_off_c, 0, 64, 104
1, 48793, Note_on_c, 0, 61, 94
1, 48819, Note_off_c, 0, 61, 94
1, 48831, Note_on_c, 0, 62, 92
1, 48856, Note_off_c, 0, 62, 92
1, 48869, Note_on_c, 0, 60, 95
1, 48895, Note_off_c, 0, 60, 95
1, 48905, Note_on_c, 0, 57, 103
1, 48961, Note_off_c, 0, 57, 103
1, 48979, Note_on_c, 0, 58, 105
1, 49132, Note_off_c, 0, 58, 105
1, 49153, Note_on_c, 0, 69, 114
1, 49248, Note_off_c, 0, 69, 114
1, 49310, Note_on_c, 0, 64, 97
1, 49423, Note_off_c, 0, 64, 97
1, 49495, Note_on_c, 0, 61, 101
1, 49563, Note_off_c, 0, 61, 101
1, 49664, Note_on_c, 0, 62, 98
1, 49768, Note_off_c, 0, 62, 98
1, 50249, Note_on_c, 0, 64, 97
1, 50297, Note_off_c, 0, 64, 97
1, 50302, Note_on_c, 0, 65, 112
1, 50383, Note_off_c, 0, 65, 112
1, 50400, Note_on_c, 0, 69, 109
1, 50472, Note_off_c, 0, 69, 109
1, 50488, Note_on_c, 0, 68, 107
1, 50529, Note_off_c, 0, 68, 107
1, 50546, Note_on_c, 0, 69, 99
1, 50590, Note_off_c, 0, 69, 99
1, 50693, Note_on_c, 0, 74, 103
1, 50770, Note_off_c, 0, 74, 103
1, 50806, Note_on_c, 0, 69, 111
1, 50864, Note_off_c, 0, 69, 111
1, 50886, Note_on_c, 0, 65, 101
1, 50970, Note_off_c, 0, 65, 101
1, 51002, Note_on_c, 0, 62, 97
1, 51064, Note_off_c, 0, 62, 97
1, 51084, Note_on_c, 0, 59, 98
1, 51177, Note_off_c, 0, 59, 98
1, 51193, Note_on_c, 0, 58, 98
1, 51466, Note_off_c, 0, 58, 98
1, 51483, Note_on_c, 0, 55, 98
1, 51539, Note_off_c, 0, 55, 98
1, 51547, Note_on_c, 0, 57, 98
1, 51615, Note_off_c, 0, 57, 98
1, 51627, Note_on_c, 0, 58, 100
1, 51656, Note_off_c, 0, 58, 100
1, 51666, Note_on_c, 0, 60, 95
1, 51696, Note_off_c, 0, 60, 95
1, 51724, Note_on_c, 0, 63, 91
1, 51756, Note_off_c, 0, 63, 91
1, 51774, Note_on_c, 0, 69, 106
1, 51887, Note_off_c, 0, 69, 106
1, 51929, Note_on_c, 0, 65, 107
1, 52021, Note_off_c, 0, 65, 107
1, 52137, Note_on_c, 0, 65, 109
1, 52225, Note_off_c, 0, 65, 109
1, 52337, Note_on_c, 0, 60, 100
1, 52381, Note_off_c, 0, 60, 100
1, 52405, Note_on_c, 0, 65, 103
1, 52493, Note_off_c, 0, 65, 103
1, 52893, Note_on_c, 0, 62, 99
1, 52969, Note_off_c, 0, 62, 99
1, 52987, Note_on_c, 0, 65, 108
1, 53052, Note_off_c, 0, 65, 108
1, 53088, Note_on_c, 0, 69, 112
1, 53140, Note_off_c, 0, 69, 112
1, 53156, Note_on_c, 0, 72, 105
1, 53251, Note_off_c, 0, 72, 105
1, 53280, Note_on_c, 0, 77, 97
1, 53358, Note_off_c, 0, 77, 97
1, 53378, Note_on_c, 0, 76, 99
1, 53444, Note_off_c, 0, 76, 99
1, 53458, Note_on_c, 0, 75, 101
1, 53543, Note_off_c, 0, 75, 101
1, 53549, Note_on_c, 0, 74, 102
1, 53625, Note_off_c, 0, 74, 102
1, 53659, Note_on_c, 0, 62, 93
1, 53709, Note_off_c, 0, 62, 93
1, 53722, Note_on_c, 0, 65, 101
1, 53792, Note_off_c, 0, 65, 101
1, 53852, Note_on_c, 0, 69, 109
1, 53904, Note_off_c, 0, 69, 109
1, 53925, Note_on_c, 0, 72, 104
1, 53971, Note_off_c, 0, 72, 104
1, 53979, Note_on_c, 0, 74, 99
1, 54011, Note_off_c, 0, 74, 99
1, 54021, Note_on_c, 0, 72, 103
1, 54049, Note_off_c, 0, 72, 103
1, 54055, Note_on_c, 0, 71, 101
1, 54103, Note_off_c, 0, 71, 101
1, 54113, Note_on_c, 0, 70, 98
1, 54204, Note_off_c, 0, 70, 98
1, 54233, Note_on_c, 0, 65, 109
1, 54306, Note_off_c, 0, 65, 109
1, 54319, Note_on_c, 0, 62, 96
1, 54397, Note_off_c, 0, 62, 96
1, 54434, Note_on_c, 0, 59, 98
1, 54475, Note_off_c, 0, 59, 98
1, 54495, Note_on_c, 0, 58, 102
1, 54586, Note_off_c, 0, 58, 102
1, 54606, Note_on_c, 0, 55, 103
1, 54693, Note_off_c, 0, 55, 103
1, 54714, Note_on_c, 0, 53, 99
1, 54794, Note_off_c, 0, 53, 99
1, 54812, Note_on_c, 0, 60, 96
1, 54882, Note_off_c, 0, 60, 96
1, 54899, Note_on_c, 0, 58, 98
1, 54969, Note_off_c, 0, 58, 98
1, 55025, Note_on_c, 0, 65, 108
1, 55095, Note_off_c, 0, 65, 108
1, 55191, Note_on_c, 0, 61, 98
1, 55274, Note_off_c, 0, 61, 98
1, 55298, Note_on_c, 0, 58, 98
1, 55399, Note_off_c, 0, 58, 98
1, 55443, Note_on_c, 0, 67, 102
1, 55513, Note_off_c, 0, 67, 102
1, 55618, Note_on_c, 0, 65, 103
1, 55682, Note_off_c, 0, 65, 103
1, 56320, Note_on_c, 0, 69, 83
1, 56341, Note_off_c, 0, 69, 83
1, 56342, Note_on_c, 0, 70, 98
1, 56416, Note_off_c, 0, 70, 98
1, 56519, Note_on_c, 0, 67, 107
1, 56591, Note_off_c, 0, 67, 107
1, 56620, Note_on_c, 0, 69, 108
1, 56715, Note_off_c, 0, 69, 108
1, 56759, Note_on_c, 0, 72, 105
1, 56850, Note_off_c, 0, 72, 105
1, 56871, Note_on_c, 0, 69, 110
1, 56960, Note_off_c, 0, 69, 110
1, 56972, Note_on_c, 0, 64, 96
1, 57001, Note_off_c, 0, 64, 96
1, 57006, Note_on_c, 0, 63, 97
1, 57044, Note_off_c, 0, 63, 97
1, 57049, Note_on_c, 0, 64, 99
1, 57134, Note_off_c, 0, 64, 99
1, 57160, Note_on_c, 0, 60, 96
1, 57264, Note_off_c, 0, 60, 96
1, 57289, Note_on_c, 0, 67, 109
1, 57389, Note_off_c, 0, 67, 109
1, 57435, Note_on_c, 0, 64, 95
1, 57528, Note_off_c, 0, 64, 95
1, 57536, Note_on_c, 0, 65, 110
1, 57672, Note_off_c, 0, 65, 110
1, 57706, Note_on_c, 0, 64, 101
1, 57789, Note_off_c, 0, 64, 101
1, 57889, Note_on_c, 0, 60, 98
1, 57978, Note_off_c, 0, 60, 98
1, 58042, Note_on_c, 0, 57, 99
1, 58129, Note_off_c, 0, 57, 99
1, 58154, Note_on_c, 0, 55, 102
1, 58313, Note_off_c, 0, 55, 102
1, 58326, Note_on_c, 0, 56, 104
1, 58462, Note_off_c, 0, 56, 104
1, 58492, Note_on_c, 0, 58, 97
1, 58562, Note_off_c, 0, 58, 97
1, 58666, Note_on_c, 0, 59, 99
1, 58747, Note_off_c, 0, 59, 99
1, 58854, Note_on_c, 0, 61, 94
1, 58958, Note_off_c, 0, 61, 94
1, 59010, Note_on_c, 0, 62, 94
1, 59097, Note_off_c, 0, 62, 94
1, 59161, Note_on_c, 0, 64, 82
1, 59234, Note_off_c, 0, 64, 82
1, 59267, Note_on_c, 0, 65, 106
1, 59358, Note_off_c, 0, 65, 106
1, 59443, Note_on_c, 0, 67, 102
1, 59519, Note_off_c, 0, 67, 102
1, 59531, Note_on_c, 0, 68, 104
1, 59644, Note_off_c, 0, 68, 104
1, 59714, Note_on_c, 0, 71, 94
1, 59811, Note_off_c, 0, 71, 94
1, 59859, Note_on_c, 0, 70, 96
1, 59962, Note_off_c, 0, 70, 96
1, 59998, Note_on_c, 0, 62, 92
1, 60181, Note_off_c, 0, 62, 92
1, 60997, Note_on_c, 0, 72, 107
1, 61042, Note_off_c, 0, 72, 107
1, 61047, Note_on_c, 0, 74, 94
1, 61065, Note_off_c, 0, 74, 94
1, 61078, Note_on_c, 0, 72, 109
1, 61116, Note_off_c, 0, 72, 109
1, 61125, Note_on_c, 0, 71, 109
1, 61158, Note_off_c, 0, 71, 109
1, 61167, Note_on_c, 0, 70, 111
1, 61274, Note_off_c, 0, 70, 111
1, 61287, Note_on_c, 0, 69, 114
1, 61376, Note_off_c, 0, 69, 114
1, 61397, Note_on_c, 0, 64, 96
1, 61485, Note_off_c, 0, 64, 96
1, 61494, Note_on_c, 0, 65, 84
1, 61538, Note_off_c, 0, 65, 84
1, 61542, Note_on_c, 0, 67, 115
1, 61646, Note_off_c, 0, 67, 115
1, 61688, Note_on_c, 0, 64, 89
1, 61732, Note_off_c, 0, 64, 89
1, 61736, Note_on_c, 0, 65, 115
1, 61847, Note_off_c, 0, 65, 115
1, 61865, Note_on_c, 0, 64, 102
1, 61935, Note_off_c, 0, 64, 102
1, 61965, Note_on_c, 0, 60, 94
1, 62034, Note_off_c, 0, 60, 94
1, 62040, Note_on_c, 0, 57, 99
1, 62112, Note_off_c, 0, 57, 99
1, 62142, Note_on_c, 0, 60, 99
1, 62174, Note_off_c, 0, 60, 99
1, 62186, Note_on_c, 0, 62, 98
1, 62267, Note_off_c, 0, 62, 98
1, 62279, Note_on_c, 0, 57, 101
1, 62380, Note_off_c, 0, 57, 101
1, 62417, Note_on_c, 0, 53, 101
1, 62600, Note_off_c, 0, 53, 101
1, 62612, Note_on_c, 0, 50, 114
1, 62871, Note_off_c, 0, 50, 114
1, 62885, Note_on_c, 0, 59, 103
1, 62988, Note_off_c, 0, 59, 103
1, 63056, Note_on_c, 0, 62, 98
1, 63329, Note_off_c, 0, 62, 98
1, 63366, Note_on_c, 0, 60, 90
1, 63424, Note_off_c, 0, 60, 90
1, 63462, Note_on_c, 0, 57, 98
1, 63555, Note_off_c, 0, 57, 98
1, 63604, Note_on_c, 0, 59, 94
1, 63759, Note_off_c, 0, 59, 94
1, 64174, Note_on_c, 0, 69, 115
1, 64263, Note_off_c, 0, 69, 115
1, 64529, Note_on_c, 0, 66, 109
1, 64637, Note_off_c, 0, 66, 109
1, 64647, Note_on_c, 0, 67, 104
1, 64775, Note_off_c, 0, 67, 104
1, 64784, Note_on_c, 0, 66, 100
1, 64893, Note_off_c, 0, 66, 100
1, 64949, Note_on_c, 0, 58, 103
1, 65034, Note_off_c, 0, 58, 103
1, 65119, Note_on_c, 0, 62, 95
1, 65157, Note_off_c, 0, 62, 95
1, 65187, Note_on_c, 0, 64, 95
1, 65241, Note_off_c, 0, 64, 95
1, 65498, Note_on_c, 0, 64, 95
1, 65577, Note_off_c, 0, 64, 95
1, 65604, Note_on_c, 0, 63, 92
1, 65711, Note_off_c, 0, 63, 92
1, 65773, Note_on_c, 0, 58, 96
1, 65841, Note_off_c, 0, 58, 96
1, 65851, Note_on_c, 0, 63, 97
1, 65980, Note_off_c, 0, 63, 97
1, 66140, Note_on_c, 0, 62, 98
1, 66324, Note_off_c, 0, 62, 98
1, 66327, Note_on_c, 0, 61, 88
1, 66401, Note_off_c, 0, 61, 88
1, 66823, Note_on_c, 0, 67, 109
1, 66855, Note_off_c, 0, 67, 109
1, 66869, Note_on_c, 0, 69, 112
1, 66918, Note_off_c, 0, 69, 112
1, 66927, Note_on_c, 0, 71, 101
1, 66949, Note_off_c, 0, 71, 101
1, 66962, Note_on_c, 0, 69, 110
1, 67008, Note_off_c, 0, 69, 110
1, 67028, Note_on_c, 0, 67, 107
1, 67085, Note_off_c, 0, 67, 107
1, 67113, Note_on_c, 0, 72, 110
1, 67230, Note_off_c, 0, 72, 110
1, 67259, Note_on_c, 0, 69, 109
1, 67335, Note_off_c, 0, 69, 109
1, 67440, Note_on_c, 0, 61, 90
1, 67829, Note_off_c, 0, 61, 90
1, 68327, Note_on_c, 0, 67, 102
1, 68379, Note_off_c, 0, 67, 102
1, 68431, Note_on_c, 0, 69, 99
1, 68531, Note_off_c, 0, 69, 99
1, 68541, Note_on_c, 0, 67, 104
1, 68646, Note_off_c, 0, 67, 104
1, 68692, Note_on_c, 0, 72, 105
1, 68867, Note_off_c, 0, 72, 105
1, 68871, Note_on_c, 0, 69, 108
1, 68983, Note_off_c, 0, 69, 108
1, 68993, Note_on_c, 0, 68, 107
1, 69061, Note_off_c, 0, 68, 107
1, 69113, Note_on_c, 0, 56, 96
1, 69198, Note_off_c, 0, 56, 96
1, 69214, Note_on_c, 0, 58, 96
1, 69338, Note_off_c, 0, 58, 96
1, 69363, Note_on_c, 0, 60, 87
1, 69867, Note_off_c, 0, 60, 87
1, 69954, Note_on_c, 0, 67, 101
1, 70046, Note_off_c, 0, 67, 101
1, 70092, Note_on_c, 0, 64, 95
1, 70200, Note_off_c, 0, 64, 95
1, 70214, Note_on_c, 0, 65, 110
1, 70339, Note_off_c, 0, 65, 110
1, 70351, Note_on_c, 0, 64, 96
1, 70436, Note_off_c, 0, 64, 96
1, 70454, Note_on_c, 0, 60, 97
1, 70566, Note_off_c, 0, 60, 97
1, 70596, Note_on_c, 0, 59, 98
1, 70712, Note_off_c, 0, 59, 98
1, 70729, Note_on_c, 0, 62, 99
1, 70828, Note_off_c, 0, 62, 99
1, 70849, Note_on_c, 0, 57, 103
1, 70953, Note_off_c, 0, 57, 103
1, 70973, Note_on_c, 0, 55, 105
1, 71109, Note_off_c, 0, 55, 105
1, 71119, Note_on_c, 0, 56, 106
1, 71230, Note_off_c, 0, 56, 106
1, 71262, Note_on_c, 0, 52, 102
1, 71418, Note_off_c, 0, 52, 102
1, 71430, Note_on_c, 0, 53, 106
1, 71555, Note_off_c, 0, 53, 106
1, 71987, Note_on_c, 0, 58, 106
1, 72055, Note_off_c, 0, 58, 106
1, 72079, Note_on_c, 0, 62, 100
1, 72135, Note_off_c, 0, 62, 100
1, 72165, Note_on_c, 0, 65, 111
1, 72257, Note_off_c, 0, 65, 111
1, 72282, Note_on_c, 0, 62, 85
1, 72352, Note_off_c, 0, 62, 85
1, 72368, Note_on_c, 0, 63, 96
1, 72446, Note_off_c, 0, 63, 96
1, 72455, Note_on_c, 0, 64, 91
1, 72517, Note_off_c, 0, 64, 91
1, 72535, Note_on_c, 0, 67, 105
1, 72612, Note_off_c, 0, 67, 105
1, 72638, Note_on_c, 0, 70, 98
1, 72706, Note_off_c, 0, 70, 98
1, 72720, Note_on_c, 0, 74, 94
1, 72804, Note_off_c, 0, 74, 94
1, 72812, Note_on_c, 0, 72, 98
1, 72895, Note_off_c, 0, 72, 98
1, 72921, Note_on_c, 0, 69, 99
1, 73002, Note_off_c, 0, 69, 99
1, 73008, Note_on_c, 0, 70, 95
1, 73076, Note_off_c, 0, 70, 95
1, 73089, Note_on_c, 0, 67, 103
1, 73176, Note_off_c, 0, 67, 103
1, 73194, Note_on_c, 0, 64, 92
1, 73287, Note_off_c, 0, 64, 92
1, 73309, Note_on_c, 0, 60, 91
1, 73445, Note_off_c, 0, 60, 91
1, 73453, Note_on_c, 0, 57, 96
1, 73653, Note_off_c, 0, 57, 96
1, 73681, Note_on_c, 0, 58, 100
1, 73809, Note_off_c, 0, 58, 100
1, 73842, Note_on_c, 0, 69, 100
1, 73929, Note_off_c, 0, 69, 100
1, 74046, Note_on_c, 0, 64, 90
1, 74138, Note_off_c, 0, 64, 90
1, 74204, Note_on_c, 0, 60, 98
1, 74308, Note_off_c, 0, 60, 98
1, 74408, Note_on_c, 0, 73, 102
1, 74440, Note_off_c, 0, 73, 102
1, 74448, Note_on_c, 0, 74, 101
1, 74516, Note_off_c, 0, 74, 101
1, 74601, Note_on_c, 0, 69, 104
1, 74651, Note_off_c, 0, 69, 104
1, 74759, Note_on_c, 0, 64, 97
1, 74846, Note_off_c, 0, 64, 97
1, 74954, Note_on_c, 0, 65, 109
1, 75031, Note_off_c, 0, 65, 109
1, 75463, Note_on_c, 0, 62, 98
1, 75543, Note_off_c, 0, 62, 98
1, 75573, Note_on_c, 0, 65, 100
1, 75658, Note_off_c, 0, 65, 100
1, 75708, Note_on_c, 0, 69, 105
1, 75815, Note_off_c, 0, 69, 105
1, 75853, Note_on_c, 0, 73, 100
1, 75871, Note_off_c, 0, 73, 100
1, 75883, Note_on_c, 0, 74, 101
1, 75944, Note_off_c, 0, 74, 101
1, 76021, Note_on_c, 0, 69, 107
1, 76094, Note_off_c, 0, 69, 107
1, 76203, Note_on_c, 0, 65, 108
1, 76273, Note_off_c, 0, 65, 108
1, 76339, Note_on_c, 0, 60, 96
1, 76375, Note_off_c, 0, 60, 96
1, 76399, Note_on_c, 0, 64, 95
1, 76469, Note_off_c, 0, 64, 95
1, 76506, Note_on_c, 0, 65, 111
1, 76586, Note_off_c, 0, 65, 111
1, 76707, Note_on_c, 0, 61, 102
1, 76752, Note_off_c, 0, 61, 102
1, 76760, Note_on_c, 0, 62, 100
1, 76813, Note_off_c, 0, 62, 100
1, 76826, Note_on_c, 0, 72, 99
1, 76870, Note_off_c, 0, 72, 99
1, 76883, Note_on_c, 0, 70, 104
1, 76948, Note_off_c, 0, 70, 104
1, 76958, Note_on_c, 0, 67, 101
1, 77035, Note_off_c, 0, 67, 101
1, 77055, Note_on_c, 0, 68, 108
1, 77120, Note_off_c, 0, 68, 108
1, 77136, Note_on_c, 0, 69, 99
1, 77213, Note_off_c, 0, 69, 99
1, 77242, Note_on_c, 0, 65, 99
1, 77291, Note_off_c, 0, 65, 99
1, 77356, Note_on_c, 0, 60, 103
1, 77384, Note_off_c, 0, 60, 103
1, 77396, Note_on_c, 0, 62, 105
1, 77430, Note_off_c, 0, 62, 105
1, 77436, Note_on_c, 0, 60, 101
1, 77477, Note_off_c, 0, 60, 101
1, 77485, Note_on_c, 0, 59, 105
1, 77518, Note_off_c, 0, 59, 105
1, 77523, Note_on_c, 0, 58, 103
1, 77559, Note_off_c, 0, 58, 103
1, 77567, Note_on_c, 0, 57, 108
1, 77611, Note_off_c, 0, 57, 108
1, 77624, Note_on_c, 0, 56, 107
1, 77666, Note_off_c, 0, 56, 107
1, 77726, Note_on_c, 0, 57, 101
1, 77782, Note_off_c, 0, 57, 101
1, 77800, Note_on_c, 0, 60, 101
1, 77853, Note_off_c, 0, 60, 101
1, 77870, Note_on_c, 0, 57, 100
1, 77931, Note_off_c, 0, 57, 100
1, 77931, End_track
0, 0, End_of_file
