0, 0, Header, 1, 1, 2520
1, 0, Start_track
1, 0, Title_t, "Melody"
1, 0, Tempo, 731707
1, 0, Key_signature, -4, "major"
1, 0, Time_signature, 4, 2, 24, 8
1, 24010, Note_on_c, 0, 56, 84
1, 24229, Note_off_c, 0, 56, 84
1, 24308, Note_on_c, 0, 58, 108
1, 24467, Note_off_c, 0, 58, 108
1, 24511, Note_on_c, 0, 60, 108
1, 25045, Note_off_c, 0, 60, 108
1, 25325, Note_on_c, 0, 51, 124
1, 26393, Note_off_c, 0, 51, 124
1, 26584, Note_on_c, 0, 51, 109
1, 30829, Note_off_c, 0, 51, 109
1, 31601, Note_on_c, 0, 50, 104
1, 32380, Note_off_c, 0, 50, 104
1, 32439, Note_on_c, 0, 51, 106
1, 33138, Note_off_c, 0, 51, 106
1, 33357, Note_on_c, 0, 53, 94
1, 36855, Note_off_c, 0, 53, 94
1, 41763, Note_on_c, 0, 51, 92
1, 42002, Note_off_c, 0, 51, 92
1, 42111, Note_on_c, 0, 52, 118
1, 42730, Note_off_c, 0, 52, 118
1, 42869, Note_on_c, 0, 53, 117
1, 43628, Note_off_c, 0, 53, 117
1, 43767, Note_on_c, 0, 54, 108
1, 44426, Note_off_c, 0, 54, 108
1, 44685, Note_on_c, 0, 55, 86
1, 49491, Note_off_c, 0, 55, 86
1, 51318, Note_on_c, 0, 55, 105
1, 52161, Note_off_c, 0, 55, 105
1, 52371, Note_on_c, 0, 54, 99
1, 52666, Note_off_c, 0, 54, 99
1, 52764, Note_on_c, 0, 53, 111
1, 53045, Note_off_c, 0, 53, 111
1, 53185, Note_on_c, 0, 52, 112
1, 53452, Note_off_c, 0, 52, 112
1, 53620, Note_on_c, 0, 51, 110
1, 54238, Note_off_c, 0, 51, 110
1, 54533, Note_on_c, 0, 55, 89
1, 58412, Note_off_c, 0, 55, 89
1, 64791, Note_on_c, 0, 54, 113
1, 65662, Note_off_c, 0, 54, 113
1, 65730, Note_on_c, 0, 55, 111
1, 66320, Note_off_c, 0, 55, 111
1, 66521, Note_on_c, 0, 56, 111
1, 68264, Note_off_c, 0, 56, 111
1, 68502, Note_on_c, 0, 56, 112
1, 69710, Note_off_c, 0, 56, 112
1, 69948, Note_on_c, 0, 56, 101
1, 72829, Note_off_c, 0, 56, 101
1, 73222, Note_on_c, 0, 53, 111
1, 74318, Note_off_c, 0, 53, 111
1, 74471, Note_on_c, 0, 54, 110
1, 74990, Note_off_c, 0, 54, 110
1, 75069, Note_on_c, 0, 55, 109
1, 75538, Note_off_c, 0, 55, 109
1, 75587, Note_on_c, 0, 56, 113
1, 76246, Note_off_c, 0, 56, 113
1, 76455, Note_on_c, 0, 61, 105
1, 77164, Note_off_c, 0, 61, 105
1, 77713, Note_on_c, 0, 53, 89
1, 82112, Note_off_c, 0, 53, 89
1, 87003, Note_on_c, 0, 53, 119
1, 87733, Note_off_c, 0, 53, 119
1, 87817, Note_on_c, 0, 54, 111
1, 88294, Note_off_c, 0, 54, 111
1, 88561, Note_on_c, 0, 55, 114
1, 89263, Note_off_c, 0, 55, 114
1, 89403, Note_on_c, 0, 58, 117
1, 90077, Note_off_c, 0, 58, 117
1, 90203, Note_on_c, 0, 57, 118
1, 90835, Note_off_c, 0, 57, 118
1, 91017, Note_on_c, 0, 56, 118
1, 91621, Note_off_c, 0, 56, 118
1, 91817, Note_on_c, 0, 61, 104
1, 92435, Note_off_c, 0, 61, 104
1, 92983, Note_on_c, 0, 52, 92
1, 97396, Note_off_c, 0, 52, 92
1, 102077, Note_on_c, 0, 56, 114
1, 102864, Note_off_c, 0, 56, 114
1, 103052, Note_on_c, 0, 58, 121
1, 103901, Note_off_c, 0, 58, 121
1, 103970, Note_on_c, 0, 59, 104
1, 104309, Note_off_c, 0, 59, 104
1, 104388, Note_on_c, 0, 60, 83
1, 113644, Note_off_c, 0, 60, 83
1, 115913, Note_on_c, 0, 53, 119
1, 116622, Note_off_c, 0, 53, 119
1, 116721, Note_on_c, 0, 54, 105
1, 117150, Note_off_c, 0, 54, 105
1, 117289, Note_on_c, 0, 56, 107
1, 117758, Note_off_c, 0, 56, 107
1, 117857, Note_on_c, 0, 58, 115
1, 118496, Note_off_c, 0, 58, 115
1, 118775, Note_on_c, 0, 60, 117
1, 119434, Note_off_c, 0, 60, 117
1, 119683, Note_on_c, 0, 61, 125
1, 120292, Note_off_c, 0, 61, 125
1, 120441, Note_on_c, 0, 63, 100
1, 121120, Note_off_c, 0, 63, 100
1, 121249, Note_on_c, 0, 66, 100
1, 121898, Note_off_c, 0, 66, 100
1, 122087, Note_on_c, 0, 64, 114
1, 122986, Note_off_c, 0, 64, 114
1, 123235, Note_on_c, 0, 59, 87
1, 123934, Note_off_c, 0, 59, 87
1, 124023, Note_on_c, 0, 60, 97
1, 124592, Note_off_c, 0, 60, 97
1, 124811, Note_on_c, 0, 63, 91
1, 125480, Note_off_c, 0, 63, 91
1, 125589, Note_on_c, 0, 58, 102
1, 126188, Note_off_c, 0, 58, 102
1, 126357, Note_on_c, 0, 55, 100
1, 126926, Note_off_c, 0, 55, 100
1, 127005, Note_on_c, 0, 56, 104
1, 129034, Note_off_c, 0, 56, 104
1, 130723, Note_on_c, 0, 56, 89
1, 131172, Note_off_c, 0, 56, 89
1, 131211, Note_on_c, 0, 54, 93
1, 131490, Note_off_c, 0, 54, 93
1, 131599, Note_on_c, 0, 53, 107
1, 131898, Note_off_c, 0, 53, 107
1, 131987, Note_on_c, 0, 52, 111
1, 132246, Note_off_c, 0, 52, 111
1, 132425, Note_on_c, 0, 51, 116
1, 133114, Note_off_c, 0, 51, 116
1, 133176, Note_on_c, 0, 63, 99
1, 133685, Note_off_c, 0, 63, 99
1, 133972, Note_on_c, 0, 60, 101
1, 134411, Note_off_c, 0, 60, 101
1, 134690, Note_on_c, 0, 58, 100
1, 135149, Note_off_c, 0, 58, 100
1, 135418, Note_on_c, 0, 57, 95
1, 135837, Note_off_c, 0, 57, 95
1, 136136, Note_on_c, 0, 56, 106
1, 136765, Note_off_c, 0, 56, 106
1, 137004, Note_on_c, 0, 55, 89
1, 138963, Note_off_c, 0, 55, 89
1, 139392, Note_on_c, 0, 53, 96
1, 139941, Note_off_c, 0, 53, 96
1, 140040, Note_on_c, 0, 51, 93
1, 140579, Note_off_c, 0, 51, 93
1, 140748, Note_on_c, 0, 53, 104
1, 141447, Note_off_c, 0, 53, 104
1, 141646, Note_on_c, 0, 51, 100
1, 142265, Note_off_c, 0, 51, 100
1, 142314, Note_on_c, 0, 53, 97
1, 143283, Note_off_c, 0, 53, 97
1, 146921, Note_on_c, 0, 48, 113
1, 147810, Note_off_c, 0, 48, 113
1, 147959, Note_on_c, 0, 51, 111
1, 148668, Note_off_c, 0, 51, 111
1, 148797, Note_on_c, 0, 53, 115
1, 149366, Note_off_c, 0, 53, 115
1, 149785, Note_on_c, 0, 54, 103
1, 150454, Note_off_c, 0, 54, 103
1, 150454, Note_on_c, 0, 55, 95
1, 151003, Note_off_c, 0, 55, 95
1, 151072, Note_on_c, 0, 51, 104
1, 151631, Note_off_c, 0, 51, 104
1, 151770, Note_on_c, 0, 53, 112
1, 152289, Note_off_c, 0, 53, 112
1, 152458, Note_on_c, 0, 55, 97
1, 153287, Note_off_c, 0, 55, 97
1, 153496, Note_on_c, 0, 51, 103
1, 153945, Note_off_c, 0, 51, 103
1, 154014, Note_on_c, 0, 53, 101
1, 154563, Note_off_c, 0, 53, 101
1, 154902, Note_on_c, 0, 55, 90
1, 157940, Note_off_c, 0, 55, 90
1, 160588, Note_on_c, 0, 50, 105
1, 160957, Note_off_c, 0, 50, 105
1, 160996, Note_on_c, 0, 51, 107
1, 161115, Note_off_c, 0, 51, 107
1, 161204, Note_on_c, 0, 53, 105
1, 161343, Note_off_c, 0, 53, 105
1, 161432, Note_on_c, 0, 56, 110
1, 161641, Note_off_c, 0, 56, 110
1, 161690, Note_on_c, 0, 58, 106
1, 161849, Note_off_c, 0, 58, 106
1, 162018, Note_on_c, 0, 61, 117
1, 162447, Note_off_c, 0, 61, 117
1, 162506, Note_on_c, 0, 60, 107
1, 163105, Note_off_c, 0, 60, 107
1, 163244, Note_on_c, 0, 58, 100
1, 163673, Note_off_c, 0, 58, 100
1, 163782, Note_on_c, 0, 56, 105
1, 164301, Note_off_c, 0, 56, 105
1, 164460, Note_on_c, 0, 54, 110
1, 165199, Note_off_c, 0, 54, 110
1, 165308, Note_on_c, 0, 53, 118
1, 165987, Note_off_c, 0, 53, 118
1, 166296, Note_on_c, 0, 55, 98
1, 166905, Note_off_c, 0, 55, 98
1, 166984, Note_on_c, 0, 56, 90
1, 171882, Note_off_c, 0, 56, 90
1, 173211, Note_on_c, 0, 54, 115
1, 173840, Note_off_c, 0, 54, 115
1, 174069, Note_on_c, 0, 53, 114
1, 174668, Note_off_c, 0, 53, 114
1, 174797, Note_on_c, 0, 56, 116
1, 175286, Note_off_c, 0, 56, 116
1, 175475, Note_on_c, 0, 61, 105
1, 175924, Note_off_c, 0, 61, 105
1, 176212, Note_on_c, 0, 53, 99
1, 178475, Note_off_c, 0, 53, 99
1, 180262, Note_on_c, 0, 51, 104
1, 180781, Note_off_c, 0, 51, 104
1, 180960, Note_on_c, 0, 54, 96
1, 181499, Note_off_c, 0, 54, 96
1, 181688, Note_on_c, 0, 51, 105
1, 182147, Note_off_c, 0, 51, 105
1, 182216, Note_on_c, 0, 52, 108
1, 182885, Note_off_c, 0, 52, 108
1, 182995, Note_on_c, 0, 55, 97
1, 183479, Note_off_c, 0, 55, 97
1, 183626, Note_on_c, 0, 60, 100
1, 184328, Note_off_c, 0, 60, 100
1, 184559, Note_on_c, 0, 58, 90
1, 185149, Note_off_c, 0, 58, 90
1, 185416, Note_on_c, 0, 56, 110
1, 186491, Note_off_c, 0, 56, 110
1, 186968, Note_on_c, 0, 56, 101
1, 190496, Note_off_c, 0, 56, 101
1, 192975, Note_on_c, 0, 56, 118
1, 193704, Note_off_c, 0, 56, 118
1, 193833, Note_on_c, 0, 61, 106
1, 194312, Note_off_c, 0, 61, 106
1, 194921, Note_on_c, 0, 56, 104
1, 196090, Note_off_c, 0, 56, 104
1, 196124, Note_on_c, 0, 55, 93
1, 196208, Note_off_c, 0, 55, 93
1, 196242, Note_on_c, 0, 54, 96
1, 196396, Note_off_c, 0, 54, 96
1, 196405, Note_on_c, 0, 53, 101
1, 196674, Note_off_c, 0, 53, 101
1, 196723, Note_on_c, 0, 52, 101
1, 199022, Note_off_c, 0, 52, 101
1, 202640, Note_on_c, 0, 56, 121
1, 203519, Note_off_c, 0, 56, 121
1, 203618, Note_on_c, 0, 58, 116
1, 204107, Note_off_c, 0, 58, 116
1, 204146, Note_on_c, 0, 59, 102
1, 204585, Note_off_c, 0, 59, 102
1, 204663, Note_on_c, 0, 60, 10
1, 211661, Note_off_c, 0, 60, 10
1, 215769, Note_on_c, 0, 54, 115
1, 216588, Note_off_c, 0, 54, 115
1, 216657, Note_on_c, 0, 55, 106
1, 217866, Note_off_c, 0, 55, 106
1, 218015, Note_on_c, 0, 57, 117
1, 218314, Note_off_c, 0, 57, 117
1, 218413, Note_on_c, 0, 58, 115
1, 219072, Note_off_c, 0, 58, 115
1, 219201, Note_on_c, 0, 60, 116
1, 219710, Note_off_c, 0, 60, 116
1, 219789, Note_on_c, 0, 61, 124
1, 220448, Note_off_c, 0, 61, 124
1, 220857, Note_on_c, 0, 64, 127
1, 221556, Note_off_c, 0, 64, 127
1, 221725, Note_on_c, 0, 67, 112
1, 222394, Note_off_c, 0, 67, 112
1, 222883, Note_on_c, 0, 66, 98
1, 223062, Note_off_c, 0, 66, 98
1, 223101, Note_on_c, 0, 67, 109
1, 223630, Note_off_c, 0, 67, 109
1, 224049, Note_on_c, 0, 66, 98
1, 224148, Note_off_c, 0, 66, 98
1, 224187, Note_on_c, 0, 67, 103
1, 224836, Note_off_c, 0, 67, 103
1, 225145, Note_on_c, 0, 65, 107
1, 225684, Note_off_c, 0, 65, 107
1, 225883, Note_on_c, 0, 60, 97
1, 228611, Note_off_c, 0, 60, 97
1, 231529, Note_on_c, 0, 53, 118
1, 232308, Note_off_c, 0, 53, 118
1, 232527, Note_on_c, 0, 56, 121
1, 233256, Note_off_c, 0, 56, 121
1, 233305, Note_on_c, 0, 57, 108
1, 233704, Note_off_c, 0, 57, 108
1, 233783, Note_on_c, 0, 58, 115
1, 234102, Note_off_c, 0, 58, 115
1, 234271, Note_on_c, 0, 59, 108
1, 235070, Note_off_c, 0, 59, 108
1, 235469, Note_on_c, 0, 63, 106
1, 236078, Note_off_c, 0, 63, 106
1, 236207, Note_on_c, 0, 61, 115
1, 236876, Note_off_c, 0, 61, 115
1, 237141, Note_on_c, 0, 53, 102
1, 239207, Note_off_c, 0, 53, 102
1, 241073, Note_on_c, 0, 53, 119
1, 241702, Note_off_c, 0, 53, 119
1, 241961, Note_on_c, 0, 56, 116
1, 242530, Note_off_c, 0, 56, 116
1, 242599, Note_on_c, 0, 63, 88
1, 243038, Note_off_c, 0, 63, 88
1, 243157, Note_on_c, 0, 61, 107
1, 243756, Note_off_c, 0, 61, 107
1, 244005, Note_on_c, 0, 56, 114
1, 244524, Note_off_c, 0, 56, 114
1, 244793, Note_on_c, 0, 58, 100
1, 245172, Note_off_c, 0, 58, 100
1, 245301, Note_on_c, 0, 59, 100
1, 245410, Note_off_c, 0, 59, 100
1, 245459, Note_on_c, 0, 60, 94
1, 246028, Note_off_c, 0, 60, 94
1, 246377, Note_on_c, 0, 59, 85
1, 246496, Note_off_c, 0, 59, 85
1, 246515, Note_on_c, 0, 60, 90
1, 247064, Note_off_c, 0, 60, 90
1, 247583, Note_on_c, 0, 60, 86
1, 251721, Note_off_c, 0, 60, 86
1, 255733, Note_on_c, 0, 54, 114
1, 256435, Note_off_c, 0, 54, 114
1, 256547, Note_on_c, 0, 55, 105
1, 257039, Note_off_c, 0, 55, 105
1, 257165, Note_on_c, 0, 58, 110
1, 257825, Note_off_c, 0, 58, 110
1, 258007, Note_on_c, 0, 55, 101
1, 258456, Note_off_c, 0, 55, 101
1, 258568, Note_on_c, 0, 61, 117
1, 259214, Note_off_c, 0, 61, 117
1, 259424, Note_on_c, 0, 58, 110
1, 259958, Note_off_c, 0, 58, 110
1, 260211, Note_on_c, 0, 63, 113
1, 260646, Note_off_c, 0, 63, 113
1, 260702, Note_on_c, 0, 64, 111
1, 264848, Note_off_c, 0, 64, 111
1, 265255, Note_on_c, 0, 67, 109
1, 265606, Note_off_c, 0, 67, 109
1, 265830, Note_on_c, 0, 65, 113
1, 266237, Note_off_c, 0, 65, 113
1, 266391, Note_on_c, 0, 60, 109
1, 266854, Note_off_c, 0, 60, 109
1, 267205, Note_on_c, 0, 56, 107
1, 268301, Note_off_c, 0, 56, 107
1, 268455, Note_on_c, 0, 60, 81
1, 271125, Note_off_c, 0, 60, 81
1, 273331, Note_on_c, 0, 59, 103
1, 274216, Note_off_c, 0, 59, 103
1, 274286, Note_on_c, 0, 60, 119
1, 275199, Note_off_c, 0, 60, 119
1, 275353, Note_on_c, 0, 66, 112
1, 275830, Note_off_c, 0, 66, 112
1, 275858, Note_on_c, 0, 67, 104
1, 276884, Note_off_c, 0, 67, 104
1, 277080, Note_on_c, 0, 65, 95
1, 280003, Note_off_c, 0, 65, 95
1, 282448, Note_on_c, 0, 65, 113
1, 283178, Note_off_c, 0, 65, 113
1, 283346, Note_on_c, 0, 61, 110
1, 284020, Note_off_c, 0, 61, 110
1, 284301, Note_on_c, 0, 53, 114
1, 284961, Note_off_c, 0, 53, 114
1, 285228, Note_on_c, 0, 56, 113
1, 285832, Note_off_c, 0, 56, 113
1, 285944, Note_on_c, 0, 58, 96
1, 288108, Note_off_c, 0, 58, 96
1, 290928, Note_on_c, 0, 67, 113
1, 291247, Note_off_c, 0, 67, 113
1, 291296, Note_on_c, 0, 68, 113
1, 291505, Note_off_c, 0, 68, 113
1, 291584, Note_on_c, 0, 67, 112
1, 291833, Note_off_c, 0, 67, 112
1, 291872, Note_on_c, 0, 65, 116
1, 292271, Note_off_c, 0, 65, 116
1, 292350, Note_on_c, 0, 67, 118
1, 293039, Note_off_c, 0, 67, 118
1, 293168, Note_on_c, 0, 65, 119
1, 293727, Note_off_c, 0, 65, 119
1, 293836, Note_on_c, 0, 62, 121
1, 294625, Note_off_c, 0, 62, 121
1, 294774, Note_on_c, 0, 61, 118
1, 295483, Note_off_c, 0, 61, 118
1, 295542, Note_on_c, 0, 63, 99
1, 296221, Note_off_c, 0, 63, 99
1, 296301, Note_on_c, 0, 60, 95
1, 298840, Note_off_c, 0, 60, 95
1, 300578, Note_on_c, 0, 53, 109
1, 300997, Note_off_c, 0, 53, 109
1, 301056, Note_on_c, 0, 55, 103
1, 301375, Note_off_c, 0, 55, 103
1, 301404, Note_on_c, 0, 56, 109
1, 301753, Note_off_c, 0, 56, 109
1, 301834, Note_on_c, 0, 59, 105
1, 302663, Note_off_c, 0, 59, 105
1, 302751, Note_on_c, 0, 61, 123
1, 303310, Note_off_c, 0, 61, 123
1, 303603, Note_on_c, 0, 59, 97
1, 303832, Note_off_c, 0, 59, 97
1, 303978, Note_on_c, 0, 61, 115
1, 304737, Note_off_c, 0, 61, 115
1, 305026, Note_on_c, 0, 59, 95
1, 305755, Note_off_c, 0, 59, 95
1, 305794, Note_on_c, 0, 60, 96
1, 306463, Note_off_c, 0, 60, 96
1, 306502, Note_on_c, 0, 63, 99
1, 306861, Note_off_c, 0, 63, 99
1, 307140, Note_on_c, 0, 58, 106
1, 307629, Note_off_c, 0, 58, 106
1, 307728, Note_on_c, 0, 56, 107
1, 308437, Note_off_c, 0, 56, 107
1, 308726, Note_on_c, 0, 51, 96
1, 313064, Note_off_c, 0, 51, 96
1, 313443, Note_on_c, 0, 52, 118
1, 314182, Note_off_c, 0, 52, 118
1, 314241, Note_on_c, 0, 53, 93
1, 318719, Note_off_c, 0, 53, 93
1, 322687, Note_on_c, 0, 52, 122
1, 323286, Note_off_c, 0, 52, 122
1, 323345, Note_on_c, 0, 53, 115
1, 324084, Note_off_c, 0, 53, 115
1, 324163, Note_on_c, 0, 54, 107
1, 324762, Note_off_c, 0, 54, 107
1, 324841, Note_on_c, 0, 55, 98
1, 327579, Note_off_c, 0, 55, 98
1, 330487, Note_on_c, 0, 48, 104
1, 331176, Note_off_c, 0, 48, 104
1, 331325, Note_on_c, 0, 51, 109
1, 332004, Note_off_c, 0, 51, 109
1, 332213, Note_on_c, 0, 55, 104
1, 333252, Note_off_c, 0, 55, 104
1, 333461, Note_on_c, 0, 58, 101
1, 334310, Note_off_c, 0, 58, 101
1, 334399, Note_on_c, 0, 56, 103
1, 336188, Note_off_c, 0, 56, 103
1, 340856, Note_on_c, 0, 56, 114
1, 341775, Note_off_c, 0, 56, 114
1, 341834, Note_on_c, 0, 57, 113
1, 342403, Note_off_c, 0, 57, 113
1, 342462, Note_on_c, 0, 58, 113
1, 342941, Note_off_c, 0, 58, 113
1, 343020, Note_on_c, 0, 60, 108
1, 343669, Note_off_c, 0, 60, 108
1, 343808, Note_on_c, 0, 63, 104
1, 344467, Note_off_c, 0, 63, 104
1, 344606, Note_on_c, 0, 61, 119
1, 345215, Note_off_c, 0, 61, 119
1, 345412, Note_on_c, 0, 58, 97
1, 349039, Note_off_c, 0, 58, 97
1, 352397, Note_on_c, 0, 57, 116
1, 353240, Note_off_c, 0, 57, 116
1, 353409, Note_on_c, 0, 58, 117
1, 354218, Note_off_c, 0, 58, 117
1, 354307, Note_on_c, 0, 59, 111
1, 355546, Note_off_c, 0, 59, 111
1, 355715, Note_on_c, 0, 60, 106
1, 358673, Note_off_c, 0, 60, 106
1, 358731, Note_on_c, 0, 61, 121
1, 359012, Note_off_c, 0, 61, 121
1, 359068, Note_on_c, 0, 62, 120
1, 359447, Note_off_c, 0, 62, 120
1, 359615, Note_on_c, 0, 63, 98
1, 360205, Note_off_c, 0, 63, 98
1, 361863, Note_on_c, 0, 53, 108
1, 362284, Note_off_c, 0, 53, 108
1, 362466, Note_on_c, 0, 54, 104
1, 362943, Note_off_c, 0, 54, 104
1, 363139, Note_on_c, 0, 57, 110
1, 363602, Note_off_c, 0, 57, 110
1, 363826, Note_on_c, 0, 60, 116
1, 364388, Note_off_c, 0, 60, 116
1, 364584, Note_on_c, 0, 63, 104
1, 365132, Note_off_c, 0, 63, 104
1, 365272, Note_on_c, 0, 61, 103
1, 368153, Note_off_c, 0, 61, 103
1, 371175, Note_on_c, 0, 60, 117
1, 371990, Note_off_c, 0, 60, 117
1, 372228, Note_on_c, 0, 58, 102
1, 373071, Note_off_c, 0, 58, 102
1, 373366, Note_on_c, 0, 64, 125
1, 373886, Note_off_c, 0, 64, 125
1, 373956, Note_on_c, 0, 65, 118
1, 374560, Note_off_c, 0, 65, 118
1, 374658, Note_on_c, 0, 61, 114
1, 375234, Note_off_c, 0, 61, 114
1, 375482, Note_on_c, 0, 60, 103
1, 375731, Note_off_c, 0, 60, 103
1, 375840, Note_on_c, 0, 58, 97
1, 376299, Note_off_c, 0, 58, 97
1, 376418, Note_on_c, 0, 63, 88
1, 379666, Note_off_c, 0, 63, 88
1, 380665, Note_on_c, 0, 54, 89
1, 381044, Note_off_c, 0, 54, 89
1, 381103, Note_on_c, 0, 55, 105
1, 381222, Note_off_c, 0, 55, 105
1, 381291, Note_on_c, 0, 56, 117
1, 381350, Note_off_c, 0, 56, 117
1, 381429, Note_on_c, 0, 57, 118
1, 381978, Note_off_c, 0, 57, 118
1, 382137, Note_on_c, 0, 60, 108
1, 382476, Note_off_c, 0, 60, 108
1, 382665, Note_on_c, 0, 63, 96
1, 383154, Note_off_c, 0, 63, 96
1, 383293, Note_on_c, 0, 65, 116
1, 383922, Note_off_c, 0, 65, 116
1, 383991, Note_on_c, 0, 66, 117
1, 384680, Note_off_c, 0, 66, 117
1, 384829, Note_on_c, 0, 64, 115
1, 385538, Note_off_c, 0, 64, 115
1, 385657, Note_on_c, 0, 65, 92
1, 390335, Note_off_c, 0, 65, 92
1, 393278, Note_on_c, 0, 56, 110
1, 393657, Note_off_c, 0, 56, 110
1, 393682, Note_on_c, 0, 57, 113
1, 393991, Note_off_c, 0, 57, 113
1, 394005, Note_on_c, 0, 58, 108
1, 394567, Note_off_c, 0, 58, 108
1, 394763, Note_on_c, 0, 61, 120
1, 395325, Note_off_c, 0, 61, 120
1, 395399, Note_on_c, 0, 65, 115
1, 396058, Note_off_c, 0, 65, 115
1, 396237, Note_on_c, 0, 53, 103
1, 398429, Note_off_c, 0, 53, 103
1, 398724, Note_on_c, 0, 54, 106
1, 399398, Note_off_c, 0, 54, 106
1, 399496, Note_on_c, 0, 55, 112
1, 400283, Note_off_c, 0, 55, 112
1, 400367, Note_on_c, 0, 63, 77
1, 401379, Note_off_c, 0, 63, 77
1, 402232, Note_on_c, 0, 60, 87
1, 403300, Note_off_c, 0, 60, 87
1, 403936, Note_on_c, 0, 51, 87
1, 404652, Note_off_c, 0, 51, 87
1, 405109, Note_on_c, 0, 56, 10
1, 415624, Note_off_c, 0, 56, 10
1, 418782, Note_on_c, 0, 56, 105
1, 419921, Note_off_c, 0, 56, 105
1, 420120, Note_on_c, 0, 53, 116
1, 420959, Note_off_c, 0, 53, 116
1, 421258, Note_on_c, 0, 52, 112
1, 421957, Note_off_c, 0, 52, 112
1, 422116, Note_on_c, 0, 51, 106
1, 423175, Note_off_c, 0, 51, 106
1, 423434, Note_on_c, 0, 49, 107
1, 424413, Note_off_c, 0, 49, 107
1, 424552, Note_on_c, 0, 48, 103
1, 427330, Note_off_c, 0, 48, 103
1, 427330, End_track
0, 0, End_of_file
