0, 0, Header, 1, 1, 840
1, 0, Start_track
1, 0, Title_t, "Melody"
1, 0, Tempo, 508474
1, 0, Key_signature, -4, "major"
1, 0, Time_signature, 4, 2, 24, 8
1, 12669, Note_on_c, 0, 67, 117
1, 13174, Note_off_c, 0, 67, 117
1, 13227, Note_on_c, 0, 68, 97
1, 14170, Note_off_c, 0, 68, 97
1, 14372, Note_on_c, 0, 65, 118
1, 14783, Note_off_c, 0, 65, 118
1, 14911, Note_on_c, 0, 62, 120
1, 15187, Note_off_c, 0, 62, 120
1, 15227, Note_on_c, 0, 61, 113
1, 15463, Note_off_c, 0, 61, 113
1, 15523, Note_on_c, 0, 63, 117
1, 15738, Note_off_c, 0, 63, 117
1, 15758, Note_on_c, 0, 60, 111
1, 15953, Note_off_c, 0, 60, 111
1, 16007, Note_on_c, 0, 58, 92
1, 16683, Note_off_c, 0, 58, 92
1, 19042, Note_on_c, 0, 62, 125
1, 19348, Note_off_c, 0, 62, 125
1, 19376, Note_on_c, 0, 63, 127
1, 19745, Note_off_c, 0, 63, 127
1, 19826, Note_on_c, 0, 66, 109
1, 20219, Note_off_c, 0, 66, 109
1, 20439, Note_on_c, 0, 66, 118
1, 20712, Note_off_c, 0, 66, 118
1, 20769, Note_on_c, 0, 67, 108
1, 21003, Note_off_c, 0, 67, 108
1, 21122, Note_on_c, 0, 65, 105
1, 21452, Note_off_c, 0, 65, 105
1, 21558, Note_on_c, 0, 63, 108
1, 21826, Note_off_c, 0, 63, 108
1, 21853, Note_on_c, 0, 68, 113
1, 22059, Note_off_c, 0, 68, 113
1, 22159, Note_on_c, 0, 65, 102
1, 22427, Note_off_c, 0, 65, 102
1, 22580, Note_on_c, 0, 59, 99
1, 22987, Note_off_c, 0, 59, 99
1, 23034, Note_on_c, 0, 60, 84
1, 23772, Note_off_c, 0, 60, 84
1, 25760, Note_on_c, 0, 63, 118
1, 26242, Note_off_c, 0, 63, 118
1, 26255, Note_on_c, 0, 65, 110
1, 26588, Note_off_c, 0, 65, 110
1, 26665, Note_on_c, 0, 61, 107
1, 26826, Note_off_c, 0, 61, 107
1, 26927, Note_on_c, 0, 68, 121
1, 27401, Note_off_c, 0, 68, 121
1, 27445, Note_on_c, 0, 65, 95
1, 27641, Note_off_c, 0, 65, 95
1, 27674, Note_on_c, 0, 64, 118
1, 28201, Note_off_c, 0, 64, 118
1, 28320, Note_on_c, 0, 60, 93
1, 28449, Note_off_c, 0, 60, 93
1, 28487, Note_on_c, 0, 63, 113
1, 29076, Note_off_c, 0, 63, 113
1, 29123, Note_on_c, 0, 60, 102
1, 29276, Note_off_c, 0, 60, 102
1, 29347, Note_on_c, 0, 56, 98
1, 29860, Note_off_c, 0, 56, 98
1, 30315, Note_on_c, 0, 54, 101
1, 30708, Note_off_c, 0, 54, 101
1, 30765, Note_on_c, 0, 56, 98
1, 31575, Note_off_c, 0, 56, 98
1, 33603, Note_on_c, 0, 55, 105
1, 33852, Note_off_c, 0, 55, 105
1, 33871, Note_on_c, 0, 58, 100
1, 34115, Note_off_c, 0, 58, 100
1, 34138, Note_on_c, 0, 61, 115
1, 34420, Note_off_c, 0, 61, 115
1, 34602, Note_on_c, 0, 62, 115
1, 34846, Note_off_c, 0, 62, 115
1, 34869, Note_on_c, 0, 65, 108
1, 35070, Note_off_c, 0, 65, 108
1, 35233, Note_on_c, 0, 68, 115
1, 35592, Note_off_c, 0, 68, 115
1, 35678, Note_on_c, 0, 70, 103
1, 35927, Note_off_c, 0, 70, 103
1, 36243, Note_on_c, 0, 61, 108
1, 36578, Note_off_c, 0, 61, 108
1, 36654, Note_on_c, 0, 61, 101
1, 37677, Note_off_c, 0, 61, 101
1, 39439, Note_on_c, 0, 58, 105
1, 39688, Note_off_c, 0, 58, 105
1, 39817, Note_on_c, 0, 60, 117
1, 40095, Note_off_c, 0, 60, 117
1, 40176, Note_on_c, 0, 61, 110
1, 40588, Note_off_c, 0, 61, 110
1, 40664, Note_on_c, 0, 63, 120
1, 41004, Note_off_c, 0, 63, 120
1, 41047, Note_on_c, 0, 64, 121
1, 41406, Note_off_c, 0, 64, 121
1, 41535, Note_on_c, 0, 67, 104
1, 41755, Note_off_c, 0, 67, 104
1, 41822, Note_on_c, 0, 68, 111
1, 42143, Note_off_c, 0, 68, 111
1, 42291, Note_on_c, 0, 56, 84
1, 43149, Note_off_c, 0, 56, 84
1, 43283, Note_on_c, 0, 59, 88
1, 44088, Note_off_c, 0, 59, 88
1, 44135, Note_on_c, 0, 58, 102
1, 44945, Note_off_c, 0, 58, 102
1, 44997, Note_on_c, 0, 56, 78
1, 45193, Note_off_c, 0, 56, 78
1, 45264, Note_on_c, 0, 60, 96
1, 45748, Note_off_c, 0, 60, 96
1, 45819, Note_on_c, 0, 63, 105
1, 46097, Note_off_c, 0, 63, 105
1, 47521, Note_on_c, 0, 55, 106
1, 47795, Note_off_c, 0, 55, 106
1, 47800, Note_on_c, 0, 57, 110
1, 47965, Note_off_c, 0, 57, 110
1, 48030, Note_on_c, 0, 60, 113
1, 48284, Note_off_c, 0, 60, 113
1, 48352, Note_on_c, 0, 62, 121
1, 48572, Note_off_c, 0, 62, 121
1, 48720, Note_on_c, 0, 65, 108
1, 48907, Note_off_c, 0, 65, 108
1, 48964, Note_on_c, 0, 67, 100
1, 49184, Note_off_c, 0, 67, 100
1, 49294, Note_on_c, 0, 62, 111
1, 49514, Note_off_c, 0, 62, 111
1, 49629, Note_on_c, 0, 65, 105
1, 49806, Note_off_c, 0, 65, 105
1, 49887, Note_on_c, 0, 60, 106
1, 50054, Note_off_c, 0, 60, 106
1, 50183, Note_on_c, 0, 62, 110
1, 50370, Note_off_c, 0, 62, 110
1, 50422, Note_on_c, 0, 57, 100
1, 50613, Note_off_c, 0, 57, 100
1, 50699, Note_on_c, 0, 60, 113
1, 50962, Note_off_c, 0, 60, 113
1, 51038, Note_on_c, 0, 55, 103
1, 51349, Note_off_c, 0, 55, 103
1, 52936, Note_on_c, 0, 55, 105
1, 53036, Note_off_c, 0, 55, 105
1, 53069, Note_on_c, 0, 57, 103
1, 53155, Note_off_c, 0, 57, 103
1, 53178, Note_on_c, 0, 62, 113
1, 53312, Note_off_c, 0, 62, 113
1, 53350, Note_on_c, 0, 64, 100
1, 53421, Note_off_c, 0, 64, 100
1, 53480, Note_on_c, 0, 68, 96
1, 53628, Note_off_c, 0, 68, 96
1, 53651, Note_on_c, 0, 67, 117
1, 53830, Note_off_c, 0, 67, 117
1, 53844, Note_on_c, 0, 68, 118
1, 54102, Note_off_c, 0, 68, 118
1, 54159, Note_on_c, 0, 68, 106
1, 54962, Note_off_c, 0, 68, 106
1, 55000, Note_on_c, 0, 68, 107
1, 55297, Note_off_c, 0, 68, 107
1, 55543, Note_on_c, 0, 68, 90
1, 55713, Note_off_c, 0, 68, 90
1, 55780, Note_on_c, 0, 65, 98
1, 55957, Note_off_c, 0, 65, 98
1, 56031, Note_on_c, 0, 61, 117
1, 56467, Note_off_c, 0, 61, 117
1, 56553, Note_on_c, 0, 62, 118
1, 56826, Note_off_c, 0, 62, 118
1, 57075, Note_on_c, 0, 67, 113
1, 57391, Note_off_c, 0, 67, 113
1, 57490, Note_on_c, 0, 65, 106
1, 57830, Note_off_c, 0, 65, 106
1, 58084, Note_on_c, 0, 66, 116
1, 58200, Note_off_c, 0, 66, 116
1, 58216, Note_on_c, 0, 67, 117
1, 58382, Note_off_c, 0, 67, 117
1, 58546, Note_on_c, 0, 70, 105
1, 58785, Note_off_c, 0, 70, 105
1, 58871, Note_on_c, 0, 63, 114
1, 59115, Note_off_c, 0, 63, 114
1, 59162, Note_on_c, 0, 62, 106
1, 59310, Note_off_c, 0, 62, 106
1, 59362, Note_on_c, 0, 63, 107
1, 59923, Note_off_c, 0, 63, 107
1, 61586, Note_on_c, 0, 64, 122
1, 61873, Note_off_c, 0, 64, 122
1, 61892, Note_on_c, 0, 65, 112
1, 62357, Note_off_c, 0, 65, 112
1, 62457, Note_on_c, 0, 58, 99
1, 62922, Note_off_c, 0, 58, 99
1, 63003, Note_on_c, 0, 59, 92
1, 63271, Note_off_c, 0, 59, 92
1, 63510, Note_on_c, 0, 60, 114
1, 63730, Note_off_c, 0, 60, 114
1, 63821, Note_on_c, 0, 55, 110
1, 64036, Note_off_c, 0, 55, 110
1, 64059, Note_on_c, 0, 57, 96
1, 64322, Note_off_c, 0, 57, 96
1, 64437, Note_on_c, 0, 60, 114
1, 64772, Note_off_c, 0, 60, 114
1, 64911, Note_on_c, 0, 65, 114
1, 65189, Note_off_c, 0, 65, 114
1, 65390, Note_on_c, 0, 60, 106
1, 65735, Note_off_c, 0, 60, 106
1, 65874, Note_on_c, 0, 60, 100
1, 66919, Note_off_c, 0, 60, 100
1, 68017, Note_on_c, 0, 56, 99
1, 68242, Note_off_c, 0, 56, 99
1, 68304, Note_on_c, 0, 60, 103
1, 68529, Note_off_c, 0, 60, 103
1, 68586, Note_on_c, 0, 61, 116
1, 68801, Note_off_c, 0, 61, 116
1, 68863, Note_on_c, 0, 62, 116
1, 69184, Note_off_c, 0, 62, 116
1, 69231, Note_on_c, 0, 58, 83
1, 69379, Note_off_c, 0, 58, 83
1, 69402, Note_on_c, 0, 61, 113
1, 69603, Note_off_c, 0, 61, 113
1, 69655, Note_on_c, 0, 62, 117
1, 70005, Note_off_c, 0, 62, 117
1, 70048, Note_on_c, 0, 59, 83
1, 70206, Note_off_c, 0, 59, 83
1, 70249, Note_on_c, 0, 61, 105
1, 70479, Note_off_c, 0, 61, 105
1, 70541, Note_on_c, 0, 62, 121
1, 70819, Note_off_c, 0, 62, 121
1, 70900, Note_on_c, 0, 58, 90
1, 71005, Note_off_c, 0, 58, 90
1, 71067, Note_on_c, 0, 62, 113
1, 71335, Note_off_c, 0, 62, 113
1, 71354, Note_on_c, 0, 63, 122
1, 71632, Note_off_c, 0, 63, 122
1, 71655, Note_on_c, 0, 60, 106
1, 71818, Note_off_c, 0, 60, 106
1, 71861, Note_on_c, 0, 63, 105
1, 72551, Note_off_c, 0, 63, 105
1, 73255, Note_on_c, 0, 64, 116
1, 73475, Note_off_c, 0, 64, 116
1, 73489, Note_on_c, 0, 65, 111
1, 73810, Note_off_c, 0, 65, 111
1, 74136, Note_on_c, 0, 56, 107
1, 74572, Note_off_c, 0, 56, 107
1, 74634, Note_on_c, 0, 58, 102
1, 74721, Note_off_c, 0, 58, 102
1, 74744, Note_on_c, 0, 56, 105
1, 74895, Note_off_c, 0, 56, 105
1, 74919, Note_on_c, 0, 55, 107
1, 75192, Note_off_c, 0, 55, 107
1, 75210, Note_on_c, 0, 56, 112
1, 75338, Note_off_c, 0, 56, 112
1, 75375, Note_on_c, 0, 56, 110
1, 75690, Note_off_c, 0, 56, 110
1, 75756, Note_on_c, 0, 63, 118
1, 75976, Note_off_c, 0, 63, 118
1, 76216, Note_on_c, 0, 60, 114
1, 76502, Note_off_c, 0, 60, 114
1, 77936, Note_on_c, 0, 65, 119
1, 78156, Note_off_c, 0, 65, 119
1, 78223, Note_on_c, 0, 63, 118
1, 78486, Note_off_c, 0, 63, 118
1, 78725, Note_on_c, 0, 67, 117
1, 78930, Note_off_c, 0, 67, 117
1, 78936, Note_on_c, 0, 68, 114
1, 79209, Note_off_c, 0, 68, 114
1, 79346, Note_on_c, 0, 65, 102
1, 79590, Note_off_c, 0, 65, 102
1, 79647, Note_on_c, 0, 63, 111
1, 79963, Note_off_c, 0, 63, 111
1, 80183, Note_on_c, 0, 70, 110
1, 80422, Note_off_c, 0, 70, 110
1, 80724, Note_on_c, 0, 65, 108
1, 81021, Note_off_c, 0, 65, 108
1, 81097, Note_on_c, 0, 63, 118
1, 81360, Note_off_c, 0, 63, 118
1, 81451, Note_on_c, 0, 58, 92
1, 81685, Note_off_c, 0, 58, 92
1, 81711, Note_on_c, 0, 61, 112
1, 82003, Note_off_c, 0, 61, 112
1, 82041, Note_on_c, 0, 60, 115
1, 82237, Note_off_c, 0, 60, 115
1, 82292, Note_on_c, 0, 56, 106
1, 82555, Note_off_c, 0, 56, 106
1, 82598, Note_on_c, 0, 54, 97
1, 83106, Note_off_c, 0, 54, 97
1, 84285, Note_on_c, 0, 63, 123
1, 84418, Note_off_c, 0, 63, 123
1, 84421, Note_on_c, 0, 65, 120
1, 84622, Note_off_c, 0, 65, 120
1, 85175, Note_on_c, 0, 58, 87
1, 85385, Note_off_c, 0, 58, 87
1, 85443, Note_on_c, 0, 61, 114
1, 85673, Note_off_c, 0, 61, 114
1, 85759, Note_on_c, 0, 58, 93
1, 85931, Note_off_c, 0, 58, 93
1, 85965, Note_on_c, 0, 63, 112
1, 86737, Note_off_c, 0, 63, 112
1, 86765, Note_on_c, 0, 65, 97
1, 87819, Note_off_c, 0, 65, 97
1, 88154, Note_on_c, 0, 54, 97
1, 88460, Note_off_c, 0, 54, 97
1, 88488, Note_on_c, 0, 53, 92
1, 89015, Note_off_c, 0, 53, 92
1, 89038, Note_on_c, 0, 51, 105
1, 89165, Note_off_c, 0, 51, 105
1, 89665, Note_on_c, 0, 51, 106
1, 89806, Note_off_c, 0, 51, 106
1, 89954, Note_on_c, 0, 51, 89
1, 90075, Note_off_c, 0, 51, 89
1, 92114, Note_on_c, 0, 56, 100
1, 92329, Note_off_c, 0, 56, 100
1, 92381, Note_on_c, 0, 59, 92
1, 92505, Note_off_c, 0, 59, 92
1, 92600, Note_on_c, 0, 61, 112
1, 93093, Note_off_c, 0, 61, 112
1, 93203, Note_on_c, 0, 61, 108
1, 93672, Note_off_c, 0, 61, 108
1, 94669, Note_on_c, 0, 56, 98
1, 94889, Note_off_c, 0, 56, 98
1, 94927, Note_on_c, 0, 58, 115
1, 95166, Note_off_c, 0, 58, 115
1, 95194, Note_on_c, 0, 61, 113
1, 95400, Note_off_c, 0, 61, 113
1, 95452, Note_on_c, 0, 62, 121
1, 95744, Note_off_c, 0, 62, 121
1, 95782, Note_on_c, 0, 61, 114
1, 96050, Note_off_c, 0, 61, 114
1, 96102, Note_on_c, 0, 61, 112
1, 96289, Note_off_c, 0, 61, 112
1, 96308, Note_on_c, 0, 60, 101
1, 96533, Note_off_c, 0, 60, 101
1, 97453, Note_on_c, 0, 56, 99
1, 97635, Note_off_c, 0, 56, 99
1, 97711, Note_on_c, 0, 59, 107
1, 98180, Note_off_c, 0, 59, 107
1, 98285, Note_on_c, 0, 62, 119
1, 98500, Note_off_c, 0, 62, 119
1, 98538, Note_on_c, 0, 63, 9
1, 99142, Note_off_c, 0, 63, 9
1, 99181, Note_on_c, 0, 59, 82
1, 99393, Note_off_c, 0, 59, 82
1, 99423, Note_on_c, 0, 60, 109
1, 99830, Note_off_c, 0, 60, 109
1, 100237, Note_on_c, 0, 63, 107
1, 100658, Note_off_c, 0, 63, 107
1, 101607, Note_on_c, 0, 56, 110
1, 101813, Note_off_c, 0, 56, 110
1, 101860, Note_on_c, 0, 57, 107
1, 102128, Note_off_c, 0, 57, 107
1, 102185, Note_on_c, 0, 60, 107
1, 102386, Note_off_c, 0, 60, 107
1, 102419, Note_on_c, 0, 62, 115
1, 102687, Note_off_c, 0, 62, 115
1, 102768, Note_on_c, 0, 65, 102
1, 103046, Note_off_c, 0, 65, 102
1, 103084, Note_on_c, 0, 67, 91
1, 103438, Note_off_c, 0, 67, 91
1, 103514, Note_on_c, 0, 62, 109
1, 103772, Note_off_c, 0, 62, 109
1, 103829, Note_on_c, 0, 61, 99
1, 104135, Note_off_c, 0, 61, 99
1, 104178, Note_on_c, 0, 60, 103
1, 104403, Note_off_c, 0, 60, 103
1, 104470, Note_on_c, 0, 57, 95
1, 104853, Note_off_c, 0, 57, 95
1, 104910, Note_on_c, 0, 55, 113
1, 105202, Note_off_c, 0, 55, 113
1, 105211, Note_on_c, 0, 56, 109
1, 105690, Note_off_c, 0, 56, 109
1, 106975, Note_on_c, 0, 66, 117
1, 107090, Note_off_c, 0, 66, 117
1, 107128, Note_on_c, 0, 67, 117
1, 107252, Note_off_c, 0, 67, 117
1, 107285, Note_on_c, 0, 66, 109
1, 107390, Note_off_c, 0, 66, 109
1, 107433, Note_on_c, 0, 65, 107
1, 107572, Note_off_c, 0, 65, 107
1, 107711, Note_on_c, 0, 62, 109
1, 107917, Note_off_c, 0, 62, 109
1, 107998, Note_on_c, 0, 67, 101
1, 108266, Note_off_c, 0, 67, 101
1, 108553, Note_on_c, 0, 55, 106
1, 108802, Note_off_c, 0, 55, 106
1, 108830, Note_on_c, 0, 63, 114
1, 109084, Note_off_c, 0, 63, 114
1, 109136, Note_on_c, 0, 60, 109
1, 109366, Note_off_c, 0, 60, 109
1, 109413, Note_on_c, 0, 59, 92
1, 109748, Note_off_c, 0, 59, 92
1, 111057, Note_on_c, 0, 51, 99
1, 111522, Note_off_c, 0, 51, 99
1, 111641, Note_on_c, 0, 61, 112
1, 111842, Note_off_c, 0, 61, 112
1, 111875, Note_on_c, 0, 60, 116
1, 112296, Note_off_c, 0, 60, 116
1, 112578, Note_on_c, 0, 56, 106
1, 112952, Note_off_c, 0, 56, 106
1, 112990, Note_on_c, 0, 58, 94
1, 113095, Note_off_c, 0, 58, 94
1, 113142, Note_on_c, 0, 56, 100
1, 113257, Note_off_c, 0, 56, 100
1, 113324, Note_on_c, 0, 55, 97
1, 113549, Note_off_c, 0, 55, 97
1, 113606, Note_on_c, 0, 56, 111
1, 113917, Note_off_c, 0, 56, 111
1, 116099, Note_on_c, 0, 64, 120
1, 116240, Note_off_c, 0, 64, 120
1, 116260, Note_on_c, 0, 65, 108
1, 116610, Note_off_c, 0, 65, 108
1, 116653, Note_on_c, 0, 68, 109
1, 116878, Note_off_c, 0, 68, 109
1, 116897, Note_on_c, 0, 70, 110
1, 117189, Note_off_c, 0, 70, 110
1, 117236, Note_on_c, 0, 71, 104
1, 117619, Note_off_c, 0, 71, 104
1, 117647, Note_on_c, 0, 72, 102
1, 118299, Note_off_c, 0, 72, 102
1, 118370, Note_on_c, 0, 68, 102
1, 118523, Note_off_c, 0, 68, 102
1, 118642, Note_on_c, 0, 70, 114
1, 118881, Note_off_c, 0, 70, 114
1, 118943, Note_on_c, 0, 71, 105
1, 119216, Note_off_c, 0, 71, 105
1, 122016, Note_on_c, 0, 65, 110
1, 122557, Note_off_c, 0, 65, 110
1, 122739, Note_on_c, 0, 68, 108
1, 122820, Note_off_c, 0, 68, 108
1, 122877, Note_on_c, 0, 71, 106
1, 123303, Note_off_c, 0, 71, 106
1, 123418, Note_on_c, 0, 68, 105
1, 124185, Note_off_c, 0, 68, 105
1, 124501, Note_on_c, 0, 65, 109
1, 125009, Note_off_c, 0, 65, 109
1, 125095, Note_on_c, 0, 63, 100
1, 125238, Note_off_c, 0, 63, 100
1, 125362, Note_on_c, 0, 68, 112
1, 125865, Note_off_c, 0, 68, 112
1, 125929, Note_on_c, 0, 63, 114
1, 126055, Note_off_c, 0, 63, 114
1, 126090, Note_on_c, 0, 61, 102
1, 126189, Note_off_c, 0, 61, 102
1, 126213, Note_on_c, 0, 59, 91
1, 126644, Note_off_c, 0, 59, 91
1, 127041, Note_on_c, 0, 61, 105
1, 127453, Note_off_c, 0, 61, 105
1, 127520, Note_on_c, 0, 63, 106
1, 128152, Note_off_c, 0, 63, 106
1, 130002, Note_on_c, 0, 67, 114
1, 130193, Note_off_c, 0, 67, 114
1, 130202, Note_on_c, 0, 68, 110
1, 130595, Note_off_c, 0, 68, 110
1, 130614, Note_on_c, 0, 70, 96
1, 130700, Note_off_c, 0, 70, 96
1, 130719, Note_on_c, 0, 68, 90
1, 130805, Note_off_c, 0, 68, 90
1, 131107, Note_on_c, 0, 67, 114
1, 131337, Note_off_c, 0, 67, 114
1, 131356, Note_on_c, 0, 68, 114
1, 131696, Note_off_c, 0, 68, 114
1, 131743, Note_on_c, 0, 70, 91
1, 131910, Note_off_c, 0, 70, 91
1, 131972, Note_on_c, 0, 66, 87
1, 132250, Note_off_c, 0, 66, 87
1, 132446, Note_on_c, 0, 67, 115
1, 132733, Note_off_c, 0, 67, 115
1, 132756, Note_on_c, 0, 68, 109
1, 133077, Note_off_c, 0, 68, 109
1, 133148, Note_on_c, 0, 70, 88
1, 133335, Note_off_c, 0, 70, 88
1, 133368, Note_on_c, 0, 65, 89
1, 133598, Note_off_c, 0, 65, 89
1, 133617, Note_on_c, 0, 67, 114
1, 133837, Note_off_c, 0, 67, 114
1, 133856, Note_on_c, 0, 68, 114
1, 134210, Note_off_c, 0, 68, 114
1, 134238, Note_on_c, 0, 70, 99
1, 134324, Note_off_c, 0, 70, 99
1, 134367, Note_on_c, 0, 68, 97
1, 134443, Note_off_c, 0, 68, 97
1, 134548, Note_on_c, 0, 66, 99
1, 134883, Note_off_c, 0, 66, 99
1, 135439, Note_on_c, 0, 65, 100
1, 135841, Note_off_c, 0, 65, 100
1, 135927, Note_on_c, 0, 68, 108
1, 136094, Note_off_c, 0, 68, 108
1, 136209, Note_on_c, 0, 64, 116
1, 136693, Note_off_c, 0, 64, 116
1, 136745, Note_on_c, 0, 62, 94
1, 136860, Note_off_c, 0, 62, 94
1, 136912, Note_on_c, 0, 63, 103
1, 137420, Note_off_c, 0, 63, 103
1, 139515, Note_on_c, 0, 63, 117
1, 139785, Note_off_c, 0, 63, 117
1, 139799, Note_on_c, 0, 65, 108
1, 140055, Note_off_c, 0, 65, 108
1, 140117, Note_on_c, 0, 68, 109
1, 140380, Note_off_c, 0, 68, 109
1, 141991, Note_on_c, 0, 58, 94
1, 142235, Note_off_c, 0, 58, 94
1, 142282, Note_on_c, 0, 61, 113
1, 142516, Note_off_c, 0, 61, 113
1, 142554, Note_on_c, 0, 63, 119
1, 142741, Note_off_c, 0, 63, 119
1, 142793, Note_on_c, 0, 61, 95
1, 143560, Note_off_c, 0, 61, 95
1, 147086, Note_on_c, 0, 63, 114
1, 147433, Note_off_c, 0, 63, 114
1, 147453, Note_on_c, 0, 65, 106
1, 147662, Note_off_c, 0, 65, 106
1, 147695, Note_on_c, 0, 68, 108
1, 147877, Note_off_c, 0, 68, 108
1, 147929, Note_on_c, 0, 70, 106
1, 148418, Note_off_c, 0, 70, 106
1, 148802, Note_on_c, 0, 70, 106
1, 149031, Note_off_c, 0, 70, 106
1, 149050, Note_on_c, 0, 71, 108
1, 149452, Note_off_c, 0, 71, 108
1, 149636, Note_on_c, 0, 70, 103
1, 150125, Note_off_c, 0, 70, 103
1, 150151, Note_on_c, 0, 68, 93
1, 150937, Note_off_c, 0, 68, 93
1, 150975, Note_on_c, 0, 70, 93
1, 151042, Note_off_c, 0, 70, 93
1, 151080, Note_on_c, 0, 68, 114
1, 151171, Note_off_c, 0, 68, 114
1, 151228, Note_on_c, 0, 65, 108
1, 151506, Note_off_c, 0, 65, 108
1, 152973, Note_on_c, 0, 57, 103
1, 153279, Note_off_c, 0, 57, 103
1, 153336, Note_on_c, 0, 58, 92
1, 153470, Note_off_c, 0, 58, 92
1, 153508, Note_on_c, 0, 59, 85
1, 153757, Note_off_c, 0, 59, 85
1, 153766, Note_on_c, 0, 60, 111
1, 154020, Note_off_c, 0, 60, 111
1, 154039, Note_on_c, 0, 61, 107
1, 154317, Note_off_c, 0, 61, 107
1, 154369, Note_on_c, 0, 59, 84
1, 154570, Note_off_c, 0, 59, 84
1, 154570, Note_on_c, 0, 62, 112
1, 154929, Note_off_c, 0, 62, 112
1, 154996, Note_on_c, 0, 59, 81
1, 155077, Note_off_c, 0, 59, 81
1, 155134, Note_on_c, 0, 63, 108
1, 155551, Note_off_c, 0, 63, 108
1, 155699, Note_on_c, 0, 59, 84
1, 155838, Note_off_c, 0, 59, 84
1, 155924, Note_on_c, 0, 64, 113
1, 156187, Note_off_c, 0, 64, 113
1, 156234, Note_on_c, 0, 65, 107
1, 156651, Note_off_c, 0, 65, 107
1, 156794, Note_on_c, 0, 58, 96
1, 157110, Note_off_c, 0, 58, 96
1, 157153, Note_on_c, 0, 57, 103
1, 157349, Note_off_c, 0, 57, 103
1, 157406, Note_on_c, 0, 60, 108
1, 157621, Note_off_c, 0, 60, 108
1, 157712, Note_on_c, 0, 61, 103
1, 157922, Note_off_c, 0, 61, 103
1, 157936, Note_on_c, 0, 65, 114
1, 158233, Note_off_c, 0, 65, 114
1, 158244, Note_on_c, 0, 66, 96
1, 158435, Note_off_c, 0, 66, 96
1, 158499, Note_on_c, 0, 65, 105
1, 158700, Note_off_c, 0, 65, 105
1, 158776, Note_on_c, 0, 63, 115
1, 159020, Note_off_c, 0, 63, 115
1, 159053, Note_on_c, 0, 62, 105
1, 159172, Note_off_c, 0, 62, 105
1, 159280, Note_on_c, 0, 65, 102
1, 159395, Note_off_c, 0, 65, 102
1, 159497, Note_on_c, 0, 60, 105
1, 159693, Note_off_c, 0, 60, 105
1, 159750, Note_on_c, 0, 58, 96
1, 159965, Note_off_c, 0, 58, 96
1, 160017, Note_on_c, 0, 60, 100
1, 160621, Note_off_c, 0, 60, 100
1, 161939, Note_on_c, 0, 55, 112
1, 162260, Note_off_c, 0, 55, 112
1, 162269, Note_on_c, 0, 56, 109
1, 162547, Note_off_c, 0, 56, 109
1, 162761, Note_on_c, 0, 65, 112
1, 162998, Note_off_c, 0, 65, 112
1, 163028, Note_on_c, 0, 67, 114
1, 163191, Note_off_c, 0, 67, 114
1, 163217, Note_on_c, 0, 68, 115
1, 163427, Note_off_c, 0, 68, 115
1, 163457, Note_on_c, 0, 67, 100
1, 163586, Note_off_c, 0, 67, 100
1, 163611, Note_on_c, 0, 65, 101
1, 163793, Note_off_c, 0, 65, 101
1, 163893, Note_on_c, 0, 67, 110
1, 164199, Note_off_c, 0, 67, 110
1, 164419, Note_on_c, 0, 56, 101
1, 165147, Note_off_c, 0, 56, 101
1, 165199, Note_on_c, 0, 55, 100
1, 165438, Note_off_c, 0, 55, 100
1, 165476, Note_on_c, 0, 63, 113
1, 165787, Note_off_c, 0, 63, 113
1, 165830, Note_on_c, 0, 60, 103
1, 166208, Note_off_c, 0, 60, 103
1, 166222, Note_on_c, 0, 61, 109
1, 166413, Note_off_c, 0, 61, 109
1, 166460, Note_on_c, 0, 63, 116
1, 166709, Note_off_c, 0, 63, 116
1, 166819, Note_on_c, 0, 60, 109
1, 167111, Note_off_c, 0, 60, 109
1, 167173, Note_on_c, 0, 58, 91
1, 167623, Note_off_c, 0, 58, 91
1, 169190, Note_on_c, 0, 52, 99
1, 169362, Note_off_c, 0, 52, 99
1, 169400, Note_on_c, 0, 53, 101
1, 169577, Note_off_c, 0, 53, 101
1, 169610, Note_on_c, 0, 54, 105
1, 169840, Note_off_c, 0, 54, 105
1, 170012, Note_on_c, 0, 53, 94
1, 170083, Note_off_c, 0, 53, 94
1, 170083, Note_on_c, 0, 57, 103
1, 170356, Note_off_c, 0, 57, 103
1, 170418, Note_on_c, 0, 53, 108
1, 170465, Note_off_c, 0, 53, 108
1, 170465, Note_on_c, 0, 60, 114
1, 170743, Note_off_c, 0, 60, 114
1, 170800, Note_on_c, 0, 53, 98
1, 170900, Note_off_c, 0, 53, 98
1, 170900, Note_on_c, 0, 63, 111
1, 171178, Note_off_c, 0, 63, 111
1, 171302, Note_on_c, 0, 65, 113
1, 171640, Note_off_c, 0, 65, 113
1, 171663, Note_on_c, 0, 66, 107
1, 171986, Note_off_c, 0, 66, 107
1, 172043, Note_on_c, 0, 64, 98
1, 172134, Note_off_c, 0, 64, 98
1, 172167, Note_on_c, 0, 65, 105
1, 172394, Note_off_c, 0, 65, 105
1, 172417, Note_on_c, 0, 58, 81
1, 172654, Note_off_c, 0, 58, 81
1, 172697, Note_on_c, 0, 60, 102
1, 173373, Note_off_c, 0, 60, 102
1, 174395, Note_on_c, 0, 66, 113
1, 174774, Note_off_c, 0, 66, 113
1, 174795, Note_on_c, 0, 68, 112
1, 174977, Note_off_c, 0, 68, 112
1, 174995, Note_on_c, 0, 70, 89
1, 175067, Note_off_c, 0, 70, 89
1, 175076, Note_on_c, 0, 68, 96
1, 175242, Note_off_c, 0, 68, 96
1, 175268, Note_on_c, 0, 65, 83
1, 175407, Note_off_c, 0, 65, 83
1, 175517, Note_on_c, 0, 61, 109
1, 175934, Note_off_c, 0, 61, 109
1, 177281, Note_on_c, 0, 72, 106
1, 177678, Note_off_c, 0, 72, 106
1, 177745, Note_on_c, 0, 70, 110
1, 177979, Note_off_c, 0, 70, 110
1, 178041, Note_on_c, 0, 60, 108
1, 178106, Note_off_c, 0, 60, 108
1, 178117, Note_on_c, 0, 61, 104
1, 178604, Note_off_c, 0, 61, 104
1, 178628, Note_on_c, 0, 55, 89
1, 178781, Note_off_c, 0, 55, 89
1, 178836, Note_on_c, 0, 60, 115
1, 179325, Note_off_c, 0, 60, 115
1, 179456, Note_on_c, 0, 67, 111
1, 179638, Note_off_c, 0, 67, 111
1, 179657, Note_on_c, 0, 68, 107
1, 180011, Note_off_c, 0, 68, 107
1, 180054, Note_on_c, 0, 70, 85
1, 180183, Note_off_c, 0, 70, 85
1, 180197, Note_on_c, 0, 68, 84
1, 180240, Note_off_c, 0, 68, 84
1, 180273, Note_on_c, 0, 65, 92
1, 180460, Note_off_c, 0, 65, 92
1, 180522, Note_on_c, 0, 58, 103
1, 181008, Note_off_c, 0, 58, 103
1, 181036, Note_on_c, 0, 59, 82
1, 181266, Note_off_c, 0, 59, 82
1, 181309, Note_on_c, 0, 60, 107
1, 181834, Note_off_c, 0, 60, 107
1, 182776, Note_on_c, 0, 56, 99
1, 182939, Note_off_c, 0, 56, 99
1, 182979, Note_on_c, 0, 57, 107
1, 183079, Note_off_c, 0, 57, 107
1, 183107, Note_on_c, 0, 59, 100
1, 183835, Note_off_c, 0, 59, 100
1, 183878, Note_on_c, 0, 60, 112
1, 184338, Note_off_c, 0, 60, 112
1, 184419, Note_on_c, 0, 61, 105
1, 185018, Note_off_c, 0, 61, 105
1, 185039, Note_on_c, 0, 58, 84
1, 185190, Note_off_c, 0, 58, 84
1, 185223, Note_on_c, 0, 60, 107
1, 185805, Note_off_c, 0, 60, 107
1, 185857, Note_on_c, 0, 58, 85
1, 185967, Note_off_c, 0, 58, 85
1, 186002, Note_on_c, 0, 61, 112
1, 186337, Note_off_c, 0, 61, 112
1, 186387, Note_on_c, 0, 58, 88
1, 186904, Note_off_c, 0, 58, 88
1, 186935, Note_on_c, 0, 60, 87
1, 187145, Note_off_c, 0, 60, 87
1, 187207, Note_on_c, 0, 60, 111
1, 187686, Note_off_c, 0, 60, 111
1, 187738, Note_on_c, 0, 56, 104
1, 187925, Note_off_c, 0, 56, 104
1, 188006, Note_on_c, 0, 54, 102
1, 188485, Note_off_c, 0, 54, 102
1, 189475, Note_on_c, 0, 63, 123
1, 189590, Note_off_c, 0, 63, 123
1, 189611, Note_on_c, 0, 64, 123
1, 190138, Note_off_c, 0, 64, 123
1, 190152, Note_on_c, 0, 65, 108
1, 190516, Note_off_c, 0, 65, 108
1, 190583, Note_on_c, 0, 63, 123
1, 190827, Note_off_c, 0, 63, 123
1, 190865, Note_on_c, 0, 64, 113
1, 191138, Note_off_c, 0, 64, 113
1, 191205, Note_on_c, 0, 61, 103
1, 191396, Note_off_c, 0, 61, 103
1, 191448, Note_on_c, 0, 63, 117
1, 191970, Note_off_c, 0, 63, 117
1, 192051, Note_on_c, 0, 60, 93
1, 192238, Note_off_c, 0, 60, 93
1, 192285, Note_on_c, 0, 61, 110
1, 192754, Note_off_c, 0, 61, 110
1, 192849, Note_on_c, 0, 56, 105
1, 193050, Note_off_c, 0, 56, 105
1, 193088, Note_on_c, 0, 52, 86
1, 193364, Note_off_c, 0, 52, 86
1, 193930, Note_on_c, 0, 64, 121
1, 194145, Note_off_c, 0, 64, 121
1, 194173, Note_on_c, 0, 65, 106
1, 194499, Note_off_c, 0, 65, 106
1, 194527, Note_on_c, 0, 61, 93
1, 195203, Note_off_c, 0, 61, 93
1, 196986, Note_on_c, 0, 56, 101
1, 197292, Note_off_c, 0, 56, 101
1, 197315, Note_on_c, 0, 59, 91
1, 197794, Note_off_c, 0, 59, 91
1, 197846, Note_on_c, 0, 61, 9
1, 198133, Note_off_c, 0, 61, 9
1, 198156, Note_on_c, 0, 62, 121
1, 198640, Note_off_c, 0, 62, 121
1, 198663, Note_on_c, 0, 63, 122
1, 198936, Note_off_c, 0, 63, 122
1, 199031, Note_on_c, 0, 61, 118
1, 199131, Note_off_c, 0, 61, 118
1, 199140, Note_on_c, 0, 63, 118
1, 199307, Note_off_c, 0, 63, 118
1, 199326, Note_on_c, 0, 61, 94
1, 199450, Note_off_c, 0, 61, 94
1, 199934, Note_on_c, 0, 62, 120
1, 200413, Note_off_c, 0, 62, 120
1, 200470, Note_on_c, 0, 62, 121
1, 200704, Note_off_c, 0, 62, 121
1, 200732, Note_on_c, 0, 63, 124
1, 201014, Note_off_c, 0, 63, 124
1, 201316, Note_on_c, 0, 56, 102
1, 201713, Note_off_c, 0, 56, 102
1, 202475, Note_on_c, 0, 56, 103
1, 202906, Note_off_c, 0, 56, 103
1, 202992, Note_on_c, 0, 58, 83
1, 203639, Note_off_c, 0, 58, 83
1, 204918, Note_on_c, 0, 54, 108
1, 205124, Note_off_c, 0, 54, 108
1, 205157, Note_on_c, 0, 56, 108
1, 205382, Note_off_c, 0, 56, 108
1, 205463, Note_on_c, 0, 60, 118
1, 205717, Note_off_c, 0, 60, 118
1, 205798, Note_on_c, 0, 63, 117
1, 206095, Note_off_c, 0, 63, 117
1, 206219, Note_on_c, 0, 66, 114
1, 206367, Note_off_c, 0, 66, 114
1, 206381, Note_on_c, 0, 67, 117
1, 206553, Note_off_c, 0, 67, 117
1, 206759, Note_on_c, 0, 66, 118
1, 206883, Note_off_c, 0, 66, 118
1, 206887, Note_on_c, 0, 67, 111
1, 207069, Note_off_c, 0, 67, 111
1, 207227, Note_on_c, 0, 66, 118
1, 207394, Note_off_c, 0, 66, 118
1, 207398, Note_on_c, 0, 67, 108
1, 207604, Note_off_c, 0, 67, 108
1, 207695, Note_on_c, 0, 65, 112
1, 207953, Note_off_c, 0, 65, 112
1, 208058, Note_on_c, 0, 72, 112
1, 208225, Note_off_c, 0, 72, 112
1, 208397, Note_on_c, 0, 67, 114
1, 208612, Note_off_c, 0, 67, 114
1, 208688, Note_on_c, 0, 65, 103
1, 208879, Note_off_c, 0, 65, 103
1, 208955, Note_on_c, 0, 67, 112
1, 209477, Note_off_c, 0, 67, 112
1, 210718, Note_on_c, 0, 61, 118
1, 210881, Note_off_c, 0, 61, 118
1, 210904, Note_on_c, 0, 62, 110
1, 211359, Note_off_c, 0, 62, 110
1, 211613, Note_on_c, 0, 68, 122
1, 212058, Note_off_c, 0, 68, 122
1, 212144, Note_on_c, 0, 68, 111
1, 212647, Note_off_c, 0, 68, 111
1, 213948, Note_on_c, 0, 55, 121
1, 214024, Note_off_c, 0, 55, 121
1, 214045, Note_on_c, 0, 57, 119
1, 214160, Note_off_c, 0, 57, 119
1, 214207, Note_on_c, 0, 62, 120
1, 214408, Note_off_c, 0, 62, 120
1, 214451, Note_on_c, 0, 65, 108
1, 214542, Note_off_c, 0, 65, 108
1, 214604, Note_on_c, 0, 67, 94
1, 214704, Note_off_c, 0, 67, 94
1, 214737, Note_on_c, 0, 68, 101
1, 214861, Note_off_c, 0, 68, 101
1, 214916, Note_on_c, 0, 68, 119
1, 215438, Note_off_c, 0, 68, 119
1, 215521, Note_on_c, 0, 68, 112
1, 216120, Note_off_c, 0, 68, 112
1, 217433, Note_on_c, 0, 64, 124
1, 217557, Note_off_c, 0, 64, 124
1, 217576, Note_on_c, 0, 65, 118
1, 217926, Note_off_c, 0, 65, 118
1, 217978, Note_on_c, 0, 68, 117
1, 218193, Note_off_c, 0, 68, 117
1, 218279, Note_on_c, 0, 70, 112
1, 218451, Note_off_c, 0, 70, 112
1, 218465, Note_on_c, 0, 71, 108
1, 218795, Note_off_c, 0, 71, 108
1, 218924, Note_on_c, 0, 72, 110
1, 219067, Note_off_c, 0, 72, 110
1, 219107, Note_on_c, 0, 72, 104
1, 219540, Note_off_c, 0, 72, 104
1, 219599, Note_on_c, 0, 71, 106
1, 219853, Note_off_c, 0, 71, 106
1, 219946, Note_on_c, 0, 68, 124
1, 220449, Note_off_c, 0, 68, 124
1, 220506, Note_on_c, 0, 63, 117
1, 220745, Note_off_c, 0, 63, 117
1, 220759, Note_on_c, 0, 68, 104
1, 221372, Note_off_c, 0, 68, 104
1, 222206, Note_on_c, 0, 65, 123
1, 222450, Note_off_c, 0, 65, 123
1, 222545, Note_on_c, 0, 63, 119
1, 222669, Note_off_c, 0, 63, 119
1, 222731, Note_on_c, 0, 68, 119
1, 222937, Note_off_c, 0, 68, 119
1, 223263, Note_on_c, 0, 61, 115
1, 223502, Note_off_c, 0, 61, 115
1, 223569, Note_on_c, 0, 68, 119
1, 223727, Note_off_c, 0, 68, 119
1, 224105, Note_on_c, 0, 60, 121
1, 224469, Note_off_c, 0, 60, 121
1, 224747, Note_on_c, 0, 59, 113
1, 225058, Note_off_c, 0, 59, 113
1, 225086, Note_on_c, 0, 58, 105
1, 225436, Note_off_c, 0, 58, 105
1, 225495, Note_on_c, 0, 53, 99
1, 225731, Note_off_c, 0, 53, 99
1, 225794, Note_on_c, 0, 56, 108
1, 226279, Note_off_c, 0, 56, 108
1, 226279, End_track
0, 0, End_of_file
