0, 0, Header, 1, 1, 192
1, 0, Start_track
1, 0, Title_t, "Melody"
1, 0, Tempo, 425531
1, 0, Key_signature, 1, "major"
1, 0, Time_signature, 4, 2, 24, 8
1, 4201, Note_on_c, 0, 59, 97
1, 4246, Note_off_c, 0, 59, 97
1, 4255, Note_on_c, 0, 60, 104
1, 4407, Note_off_c, 0, 60, 104
1, 4408, Note_on_c, 0, 59, 102
1, 4448, Note_off_c, 0, 59, 102
1, 4450, Note_on_c, 0, 60, 108
1, 4592, Note_off_c, 0, 60, 108
1, 4601, Note_on_c, 0, 59, 97
1, 4768, Note_off_c, 0, 59, 97
1, 4855, Note_on_c, 0, 60, 108
1, 4973, Note_off_c, 0, 60, 108
1, 4980, Note_on_c, 0, 59, 98
1, 5014, Note_off_c, 0, 59, 98
1, 5020, Note_on_c, 0, 60, 102
1, 5165, Note_off_c, 0, 60, 102
1, 5189, Note_on_c, 0, 59, 95
1, 5317, Note_off_c, 0, 59, 95
1, 5808, Note_on_c, 0, 59, 105
1, 5991, Note_off_c, 0, 59, 105
1, 5998, Note_on_c, 0, 60, 105
1, 6141, Note_off_c, 0, 60, 105
1, 6152, Note_on_c, 0, 59, 101
1, 6313, Note_off_c, 0, 59, 101
1, 6331, Note_on_c, 0, 61, 111
1, 6486, Note_off_c, 0, 61, 111
1, 6508, Note_on_c, 0, 64, 109
1, 6686, Note_off_c, 0, 64, 109
1, 6702, Note_on_c, 0, 62, 109
1, 6849, Note_off_c, 0, 62, 109
1, 6907, Note_on_c, 0, 59, 101
1, 6972, Note_off_c, 0, 59, 101
1, 7115, Note_on_c, 0, 57, 105
1, 7175, Note_off_c, 0, 57, 105
1, 7189, Note_on_c, 0, 52, 101
1, 7346, Note_off_c, 0, 52, 101
1, 7691, Note_on_c, 0, 57, 103
1, 7766, Note_off_c, 0, 57, 103
1, 7766, Note_on_c, 0, 59, 98
1, 7878, Note_off_c, 0, 59, 98
1, 7895, Note_on_c, 0, 62, 109
1, 7997, Note_off_c, 0, 62, 109
1, 8104, Note_on_c, 0, 53, 89
1, 8242, Note_off_c, 0, 53, 89
1, 8473, Note_on_c, 0, 57, 102
1, 8548, Note_off_c, 0, 57, 102
1, 8556, Note_on_c, 0, 59, 105
1, 8647, Note_off_c, 0, 59, 105
1, 8657, Note_on_c, 0, 62, 111
1, 8749, Note_off_c, 0, 62, 111
1, 8873, Note_on_c, 0, 52, 104
1, 8915, Note_off_c, 0, 52, 104
1, 8929, Note_on_c, 0, 55, 109
1, 9048, Note_off_c, 0, 55, 109
1, 9118, Note_on_c, 0, 54, 95
1, 9286, Note_off_c, 0, 54, 95
1, 9801, Note_on_c, 0, 55, 118
1, 9876, Note_off_c, 0, 55, 118
1, 9881, Note_on_c, 0, 56, 112
1, 10008, Note_off_c, 0, 56, 112
1, 10020, Note_on_c, 0, 59, 103
1, 10059, Note_off_c, 0, 59, 103
1, 10070, Note_on_c, 0, 65, 113
1, 10188, Note_off_c, 0, 65, 113
1, 10198, Note_on_c, 0, 63, 106
1, 10241, Note_off_c, 0, 63, 106
1, 10253, Note_on_c, 0, 64, 118
1, 10379, Note_off_c, 0, 64, 118
1, 10395, Note_on_c, 0, 60, 111
1, 10460, Note_off_c, 0, 60, 111
1, 10471, Note_on_c, 0, 59, 100
1, 10491, Note_off_c, 0, 59, 100
1, 10495, Note_on_c, 0, 60, 99
1, 10536, Note_off_c, 0, 60, 99
1, 10545, Note_on_c, 0, 59, 97
1, 10589, Note_off_c, 0, 59, 97
1, 10598, Note_on_c, 0, 57, 99
1, 10649, Note_off_c, 0, 57, 99
1, 10663, Note_on_c, 0, 59, 92
1, 10779, Note_off_c, 0, 59, 92
1, 10799, Note_on_c, 0, 52, 90
1, 11026, Note_off_c, 0, 52, 90
1, 11053, Note_on_c, 0, 54, 103
1, 11172, Note_off_c, 0, 54, 103
1, 11231, Note_on_c, 0, 59, 94
1, 11364, Note_off_c, 0, 59, 94
1, 11378, Note_on_c, 0, 57, 90
1, 11589, Note_off_c, 0, 57, 90
1, 11946, Note_on_c, 0, 55, 105
1, 12019, Note_off_c, 0, 55, 105
1, 12025, Note_on_c, 0, 56, 114
1, 12148, Note_off_c, 0, 56, 114
1, 12155, Note_on_c, 0, 59, 105
1, 12202, Note_off_c, 0, 59, 105
1, 12212, Note_on_c, 0, 62, 115
1, 12355, Note_off_c, 0, 62, 115
1, 12412, Note_on_c, 0, 65, 109
1, 12518, Note_off_c, 0, 65, 109
1, 12527, Note_on_c, 0, 63, 103
1, 12566, Note_off_c, 0, 63, 103
1, 12572, Note_on_c, 0, 64, 105
1, 12753, Note_off_c, 0, 64, 105
1, 13132, Note_on_c, 0, 62, 113
1, 13190, Note_off_c, 0, 62, 113
1, 13202, Note_on_c, 0, 63, 114
1, 13297, Note_off_c, 0, 63, 114
1, 13314, Note_on_c, 0, 61, 104
1, 13357, Note_off_c, 0, 61, 104
1, 13363, Note_on_c, 0, 62, 95
1, 13558, Note_off_c, 0, 62, 95
1, 13579, Note_on_c, 0, 61, 101
1, 13702, Note_off_c, 0, 61, 101
1, 13707, Note_on_c, 0, 59, 91
1, 13759, Note_off_c, 0, 59, 91
1, 13767, Note_on_c, 0, 60, 90
1, 13936, Note_off_c, 0, 60, 90
1, 13970, Note_on_c, 0, 59, 94
1, 14092, Note_off_c, 0, 59, 94
1, 14168, Note_on_c, 0, 58, 94
1, 14282, Note_off_c, 0, 58, 94
1, 14475, Note_on_c, 0, 56, 106
1, 14527, Note_off_c, 0, 56, 106
1, 14534, Note_on_c, 0, 57, 101
1, 14649, Note_off_c, 0, 57, 101
1, 14659, Note_on_c, 0, 54, 99
1, 14728, Note_off_c, 0, 54, 99
1, 14738, Note_on_c, 0, 50, 89
1, 14858, Note_off_c, 0, 50, 89
1, 14949, Note_on_c, 0, 56, 99
1, 14986, Note_off_c, 0, 56, 99
1, 14986, Note_on_c, 0, 57, 91
1, 15230, Note_off_c, 0, 57, 91
1, 15251, Note_on_c, 0, 54, 99
1, 15281, Note_off_c, 0, 54, 99
1, 15292, Note_on_c, 0, 55, 99
1, 15360, Note_off_c, 0, 55, 99
1, 15376, Note_on_c, 0, 53, 80
1, 15429, Note_off_c, 0, 53, 80
1, 15442, Note_on_c, 0, 52, 95
1, 15493, Note_off_c, 0, 52, 95
1, 16220, Note_on_c, 0, 55, 107
1, 16272, Note_off_c, 0, 55, 107
1, 16302, Note_on_c, 0, 56, 104
1, 16413, Note_off_c, 0, 56, 104
1, 16423, Note_on_c, 0, 59, 108
1, 16480, Note_off_c, 0, 59, 108
1, 16485, Note_on_c, 0, 62, 107
1, 16599, Note_off_c, 0, 62, 107
1, 17170, Note_on_c, 0, 55, 105
1, 17233, Note_off_c, 0, 55, 105
1, 17249, Note_on_c, 0, 59, 100
1, 17343, Note_off_c, 0, 59, 100
1, 17355, Note_on_c, 0, 60, 120
1, 17436, Note_off_c, 0, 60, 120
1, 17445, Note_on_c, 0, 61, 103
1, 17588, Note_off_c, 0, 61, 103
1, 17626, Note_on_c, 0, 64, 114
1, 17759, Note_off_c, 0, 64, 114
1, 17764, Note_on_c, 0, 61, 97
1, 17805, Note_off_c, 0, 61, 97
1, 17810, Note_on_c, 0, 62, 99
1, 17938, Note_off_c, 0, 62, 99
1, 17949, Note_on_c, 0, 64, 106
1, 18011, Note_off_c, 0, 64, 106
1, 18028, Note_on_c, 0, 65, 103
1, 18138, Note_off_c, 0, 65, 103
1, 18539, Note_on_c, 0, 62, 102
1, 18603, Note_off_c, 0, 62, 102
1, 18612, Note_on_c, 0, 63, 106
1, 18721, Note_off_c, 0, 63, 106
1, 18732, Note_on_c, 0, 64, 110
1, 18828, Note_off_c, 0, 64, 110
1, 18853, Note_on_c, 0, 59, 94
1, 18916, Note_off_c, 0, 59, 94
1, 18933, Note_on_c, 0, 54, 94
1, 19020, Note_off_c, 0, 54, 94
1, 19050, Note_on_c, 0, 57, 99
1, 19136, Note_off_c, 0, 57, 99
1, 19147, Note_on_c, 0, 56, 97
1, 19246, Note_off_c, 0, 56, 97
1, 19272, Note_on_c, 0, 52, 91
1, 19336, Note_off_c, 0, 52, 91
1, 19389, Note_on_c, 0, 56, 89
1, 19448, Note_off_c, 0, 56, 89
1, 19456, Note_on_c, 0, 60, 89
1, 19535, Note_off_c, 0, 60, 89
1, 19561, Note_on_c, 0, 60, 98
1, 19650, Note_off_c, 0, 60, 98
1, 19754, Note_on_c, 0, 52, 96
1, 19867, Note_off_c, 0, 52, 96
1, 19877, Note_on_c, 0, 54, 86
1, 20032, Note_off_c, 0, 54, 86
1, 20465, Note_on_c, 0, 56, 94
1, 20581, Note_off_c, 0, 56, 94
1, 20582, Note_on_c, 0, 59, 87
1, 21067, Note_off_c, 0, 59, 87
1, 21092, Note_on_c, 0, 62, 97
1, 21198, Note_off_c, 0, 62, 97
1, 21262, Note_on_c, 0, 60, 103
1, 21388, Note_off_c, 0, 60, 103
1, 21421, Note_on_c, 0, 51, 91
1, 21650, Note_off_c, 0, 51, 91
1, 22379, Note_on_c, 0, 51, 98
1, 22405, Note_off_c, 0, 51, 98
1, 22410, Note_on_c, 0, 50, 100
1, 22440, Note_off_c, 0, 50, 100
1, 22460, Note_on_c, 0, 49, 98
1, 22571, Note_off_c, 0, 49, 98
1, 22578, Note_on_c, 0, 50, 99
1, 22638, Note_off_c, 0, 50, 99
1, 22650, Note_on_c, 0, 62, 102
1, 22749, Note_off_c, 0, 62, 102
1, 22769, Note_on_c, 0, 59, 95
1, 22827, Note_off_c, 0, 59, 95
1, 22836, Note_on_c, 0, 59, 89
1, 23002, Note_off_c, 0, 59, 89
1, 23023, Note_on_c, 0, 57, 99
1, 23121, Note_off_c, 0, 57, 99
1, 23132, Note_on_c, 0, 52, 97
1, 23193, Note_off_c, 0, 52, 97
1, 23208, Note_on_c, 0, 52, 110
1, 23279, Note_off_c, 0, 52, 110
1, 23730, Note_on_c, 0, 50, 103
1, 23782, Note_off_c, 0, 50, 103
1, 23806, Note_on_c, 0, 54, 106
1, 23916, Note_off_c, 0, 54, 106
1, 23926, Note_on_c, 0, 55, 108
1, 23972, Note_off_c, 0, 55, 108
1, 23988, Note_on_c, 0, 57, 100
1, 24104, Note_off_c, 0, 57, 100
1, 24111, Note_on_c, 0, 59, 101
1, 24158, Note_off_c, 0, 59, 101
1, 24174, Note_on_c, 0, 55, 105
1, 24300, Note_off_c, 0, 55, 105
1, 24672, Note_on_c, 0, 55, 118
1, 24747, Note_off_c, 0, 55, 118
1, 24762, Note_on_c, 0, 56, 112
1, 24872, Note_off_c, 0, 56, 112
1, 24883, Note_on_c, 0, 54, 98
1, 24922, Note_off_c, 0, 54, 98
1, 24943, Note_on_c, 0, 59, 102
1, 25056, Note_off_c, 0, 59, 102
1, 25140, Note_on_c, 0, 65, 101
1, 25258, Note_off_c, 0, 65, 101
1, 25265, Note_on_c, 0, 64, 115
1, 25381, Note_off_c, 0, 64, 115
1, 25450, Note_on_c, 0, 67, 91
1, 25720, Note_off_c, 0, 67, 91
1, 25879, Note_on_c, 0, 58, 101
1, 26025, Note_off_c, 0, 58, 101
1, 26035, Note_on_c, 0, 55, 98
1, 26080, Note_off_c, 0, 55, 98
1, 26086, Note_on_c, 0, 57, 90
1, 26258, Note_off_c, 0, 57, 90
1, 26603, Note_on_c, 0, 55, 114
1, 26657, Note_off_c, 0, 55, 114
1, 26670, Note_on_c, 0, 59, 108
1, 26777, Note_off_c, 0, 59, 108
1, 26785, Note_on_c, 0, 60, 122
1, 26858, Note_off_c, 0, 60, 122
1, 26866, Note_on_c, 0, 61, 9
1, 26963, Note_off_c, 0, 61, 9
1, 26972, Note_on_c, 0, 62, 109
1, 27031, Note_off_c, 0, 62, 109
1, 27038, Note_on_c, 0, 61, 108
1, 27170, Note_off_c, 0, 61, 108
1, 27176, Note_on_c, 0, 58, 103
1, 27229, Note_off_c, 0, 58, 103
1, 27249, Note_on_c, 0, 61, 107
1, 27323, Note_off_c, 0, 61, 107
1, 27336, Note_on_c, 0, 60, 98
1, 27403, Note_off_c, 0, 60, 98
1, 27422, Note_on_c, 0, 55, 109
1, 27561, Note_off_c, 0, 55, 109
1, 27624, Note_on_c, 0, 55, 96
1, 27770, Note_off_c, 0, 55, 96
1, 28502, Note_on_c, 0, 54, 101
1, 28781, Note_off_c, 0, 54, 101
1, 28803, Note_on_c, 0, 59, 103
1, 28878, Note_off_c, 0, 59, 103
1, 28903, Note_on_c, 0, 62, 116
1, 28973, Note_off_c, 0, 62, 116
1, 29077, Note_on_c, 0, 62, 103
1, 29160, Note_off_c, 0, 62, 103
1, 29201, Note_on_c, 0, 59, 86
1, 29244, Note_off_c, 0, 59, 86
1, 29266, Note_on_c, 0, 62, 115
1, 29322, Note_off_c, 0, 62, 115
1, 29365, Note_on_c, 0, 59, 81
1, 29429, Note_off_c, 0, 59, 81
1, 29445, Note_on_c, 0, 62, 106
1, 29520, Note_off_c, 0, 62, 106
1, 29534, Note_on_c, 0, 59, 88
1, 29624, Note_off_c, 0, 59, 88
1, 29638, Note_on_c, 0, 62, 105
1, 29704, Note_off_c, 0, 62, 105
1, 29715, Note_on_c, 0, 59, 87
1, 29880, Note_off_c, 0, 59, 87
1, 29889, Note_on_c, 0, 62, 95
1, 30046, Note_off_c, 0, 62, 95
1, 30519, Note_on_c, 0, 58, 100
1, 30545, Note_off_c, 0, 58, 100
1, 30546, Note_on_c, 0, 60, 97
1, 30584, Note_off_c, 0, 60, 97
1, 30587, Note_on_c, 0, 59, 95
1, 30618, Note_off_c, 0, 59, 95
1, 30629, Note_on_c, 0, 57, 92
1, 30662, Note_off_c, 0, 57, 92
1, 30683, Note_on_c, 0, 64, 112
1, 30783, Note_off_c, 0, 64, 112
1, 30793, Note_on_c, 0, 60, 93
1, 30837, Note_off_c, 0, 60, 93
1, 30843, Note_on_c, 0, 59, 93
1, 30873, Note_off_c, 0, 59, 93
1, 30879, Note_on_c, 0, 57, 96
1, 30900, Note_off_c, 0, 57, 96
1, 30938, Note_on_c, 0, 63, 102
1, 31012, Note_off_c, 0, 63, 102
1, 31065, Note_on_c, 0, 60, 97
1, 31101, Note_off_c, 0, 60, 97
1, 31104, Note_on_c, 0, 59, 94
1, 31140, Note_off_c, 0, 59, 94
1, 31148, Note_on_c, 0, 57, 95
1, 31187, Note_off_c, 0, 57, 95
1, 31190, Note_on_c, 0, 62, 99
1, 31246, Note_off_c, 0, 62, 99
1, 31258, Note_on_c, 0, 59, 89
1, 31446, Note_off_c, 0, 59, 89
1, 31929, Note_on_c, 0, 58, 96
1, 32032, Note_off_c, 0, 58, 96
1, 32039, Note_on_c, 0, 59, 100
1, 32093, Note_off_c, 0, 59, 100
1, 32112, Note_on_c, 0, 62, 112
1, 32255, Note_off_c, 0, 62, 112
1, 32294, Note_on_c, 0, 65, 107
1, 32358, Note_off_c, 0, 65, 107
1, 32370, Note_on_c, 0, 66, 107
1, 32487, Note_off_c, 0, 66, 107
1, 32499, Note_on_c, 0, 62, 98
1, 32539, Note_off_c, 0, 62, 98
1, 32568, Note_on_c, 0, 64, 112
1, 32652, Note_off_c, 0, 64, 112
1, 32663, Note_on_c, 0, 65, 98
1, 32744, Note_off_c, 0, 65, 98
1, 32747, Note_on_c, 0, 62, 104
1, 32877, Note_off_c, 0, 62, 104
1, 32886, Note_on_c, 0, 62, 104
1, 33002, Note_off_c, 0, 62, 104
1, 33073, Note_on_c, 0, 64, 108
1, 33170, Note_off_c, 0, 64, 108
1, 33174, Note_on_c, 0, 65, 96
1, 33242, Note_off_c, 0, 65, 96
1, 33251, Note_on_c, 0, 62, 98
1, 33318, Note_off_c, 0, 62, 98
1, 33338, Note_on_c, 0, 64, 107
1, 33435, Note_off_c, 0, 64, 107
1, 33454, Note_on_c, 0, 60, 100
1, 33496, Note_off_c, 0, 60, 100
1, 33506, Note_on_c, 0, 55, 96
1, 33646, Note_off_c, 0, 55, 96
1, 33665, Note_on_c, 0, 50, 84
1, 33711, Note_off_c, 0, 50, 84
1, 33724, Note_on_c, 0, 54, 92
1, 33869, Note_off_c, 0, 54, 92
1, 34291, Note_on_c, 0, 69, 103
1, 34419, Note_off_c, 0, 69, 103
1, 34424, Note_on_c, 0, 67, 91
1, 34483, Note_off_c, 0, 67, 91
1, 34488, Note_on_c, 0, 68, 86
1, 34715, Note_off_c, 0, 68, 86
1, 35343, Note_on_c, 0, 63, 91
1, 35374, Note_off_c, 0, 63, 91
1, 35378, Note_on_c, 0, 64, 112
1, 35414, Note_off_c, 0, 64, 112
1, 35420, Note_on_c, 0, 65, 108
1, 35463, Note_off_c, 0, 65, 108
1, 35467, Note_on_c, 0, 69, 94
1, 35529, Note_off_c, 0, 69, 94
1, 35634, Note_on_c, 0, 69, 89
1, 35795, Note_off_c, 0, 69, 89
1, 35814, Note_on_c, 0, 65, 97
1, 35874, Note_off_c, 0, 65, 97
1, 35890, Note_on_c, 0, 57, 88
1, 35981, Note_off_c, 0, 57, 88
1, 35994, Note_on_c, 0, 57, 82
1, 36189, Note_off_c, 0, 57, 82
1, 36389, Note_on_c, 0, 58, 89
1, 36447, Note_off_c, 0, 58, 89
1, 36452, Note_on_c, 0, 60, 89
1, 36521, Note_off_c, 0, 60, 89
1, 36531, Note_on_c, 0, 64, 102
1, 36586, Note_off_c, 0, 64, 102
1, 36598, Note_on_c, 0, 64, 90
1, 36758, Note_off_c, 0, 64, 90
1, 36770, Note_on_c, 0, 60, 91
1, 36813, Note_off_c, 0, 60, 91
1, 36849, Note_on_c, 0, 52, 87
1, 36931, Note_off_c, 0, 52, 87
1, 36951, Note_on_c, 0, 52, 89
1, 37142, Note_off_c, 0, 52, 89
1, 37678, Note_on_c, 0, 55, 101
1, 37751, Note_off_c, 0, 55, 101
1, 37756, Note_on_c, 0, 59, 101
1, 37852, Note_off_c, 0, 59, 101
1, 37863, Note_on_c, 0, 62, 93
1, 38049, Note_off_c, 0, 62, 93
1, 38056, Note_on_c, 0, 59, 101
1, 38085, Note_off_c, 0, 59, 101
1, 38089, Note_on_c, 0, 58, 103
1, 38112, Note_off_c, 0, 58, 103
1, 38117, Note_on_c, 0, 52, 96
1, 38254, Note_off_c, 0, 52, 96
1, 38259, Note_on_c, 0, 53, 94
1, 38299, Note_off_c, 0, 53, 94
1, 38308, Note_on_c, 0, 54, 91
1, 38489, Note_off_c, 0, 54, 91
1, 38838, Note_on_c, 0, 55, 97
1, 38987, Note_off_c, 0, 55, 97
1, 38992, Note_on_c, 0, 59, 103
1, 39076, Note_off_c, 0, 59, 103
1, 39081, Note_on_c, 0, 62, 106
1, 39201, Note_off_c, 0, 62, 106
1, 39216, Note_on_c, 0, 64, 117
1, 39291, Note_off_c, 0, 64, 117
1, 39296, Note_on_c, 0, 62, 97
1, 39326, Note_off_c, 0, 62, 97
1, 39329, Note_on_c, 0, 64, 102
1, 39355, Note_off_c, 0, 64, 102
1, 39357, Note_on_c, 0, 62, 101
1, 39399, Note_off_c, 0, 62, 101
1, 39408, Note_on_c, 0, 59, 94
1, 39448, Note_off_c, 0, 59, 94
1, 39449, Note_on_c, 0, 57, 97
1, 39598, Note_off_c, 0, 57, 97
1, 39608, Note_on_c, 0, 55, 102
1, 39638, Note_off_c, 0, 55, 102
1, 39659, Note_on_c, 0, 62, 97
1, 39774, Note_off_c, 0, 62, 97
1, 39788, Note_on_c, 0, 58, 99
1, 39835, Note_off_c, 0, 58, 99
1, 39840, Note_on_c, 0, 59, 91
1, 39946, Note_off_c, 0, 59, 91
1, 40710, Note_on_c, 0, 55, 96
1, 40835, Note_off_c, 0, 55, 96
1, 40854, Note_on_c, 0, 59, 100
1, 40912, Note_on_c, 0, 62, 113
1, 40912, Note_off_c, 0, 59, 100
1, 41056, Note_off_c, 0, 62, 113
1, 41074, Note_on_c, 0, 64, 114
1, 41134, Note_off_c, 0, 64, 114
1, 41141, Note_on_c, 0, 65, 116
1, 41238, Note_off_c, 0, 65, 116
1, 41280, Note_on_c, 0, 62, 100
1, 41396, Note_off_c, 0, 62, 100
1, 41443, Note_on_c, 0, 64, 113
1, 41492, Note_off_c, 0, 64, 113
1, 41495, Note_on_c, 0, 65, 102
1, 41565, Note_off_c, 0, 65, 102
1, 41577, Note_on_c, 0, 62, 99
1, 41662, Note_off_c, 0, 62, 99
1, 41687, Note_on_c, 0, 65, 102
1, 41793, Note_off_c, 0, 65, 102
1, 41827, Note_on_c, 0, 65, 102
1, 41920, Note_off_c, 0, 65, 102
1, 41947, Note_on_c, 0, 62, 99
1, 42033, Note_off_c, 0, 62, 99
1, 42046, Note_on_c, 0, 64, 104
1, 42206, Note_off_c, 0, 64, 104
1, 42680, Note_on_c, 0, 55, 97
1, 42818, Note_off_c, 0, 55, 97
1, 42825, Note_on_c, 0, 56, 98
1, 42869, Note_off_c, 0, 56, 98
1, 42882, Note_on_c, 0, 59, 94
1, 43001, Note_off_c, 0, 59, 94
1, 43021, Note_on_c, 0, 62, 99
1, 43057, Note_off_c, 0, 62, 99
1, 43064, Note_on_c, 0, 65, 105
1, 43197, Note_off_c, 0, 65, 105
1, 43212, Note_on_c, 0, 62, 102
1, 43245, Note_off_c, 0, 62, 102
1, 43254, Note_on_c, 0, 64, 112
1, 43387, Note_off_c, 0, 64, 112
1, 43396, Note_on_c, 0, 59, 98
1, 43448, Note_off_c, 0, 59, 98
1, 43462, Note_on_c, 0, 54, 98
1, 43578, Note_off_c, 0, 54, 98
1, 43583, Note_on_c, 0, 55, 99
1, 43633, Note_off_c, 0, 55, 99
1, 43644, Note_on_c, 0, 56, 97
1, 43764, Note_off_c, 0, 56, 97
1, 44242, Note_on_c, 0, 59, 105
1, 44271, Note_off_c, 0, 59, 105
1, 44276, Note_on_c, 0, 60, 97
1, 44541, Note_off_c, 0, 60, 97
1, 44553, Note_on_c, 0, 58, 110
1, 44577, Note_off_c, 0, 58, 110
1, 44583, Note_on_c, 0, 55, 109
1, 44608, Note_off_c, 0, 55, 109
1, 44626, Note_on_c, 0, 52, 99
1, 44735, Note_off_c, 0, 52, 99
1, 44752, Note_on_c, 0, 51, 95
1, 44907, Note_off_c, 0, 51, 95
1, 44924, Note_on_c, 0, 51, 97
1, 44990, Note_off_c, 0, 51, 97
1, 45013, Note_on_c, 0, 60, 92
1, 45311, Note_off_c, 0, 60, 92
1, 45322, Note_on_c, 0, 57, 108
1, 45343, Note_off_c, 0, 57, 108
1, 45348, Note_on_c, 0, 56, 113
1, 45372, Note_off_c, 0, 56, 113
1, 45381, Note_on_c, 0, 50, 92
1, 45555, Note_off_c, 0, 50, 92
1, 45573, Note_on_c, 0, 59, 101
1, 45745, Note_off_c, 0, 59, 101
1, 45778, Note_on_c, 0, 57, 101
1, 45898, Note_off_c, 0, 57, 101
1, 46275, Note_on_c, 0, 53, 99
1, 46319, Note_off_c, 0, 53, 99
1, 46327, Note_on_c, 0, 55, 106
1, 46458, Note_off_c, 0, 55, 106
1, 46467, Note_on_c, 0, 53, 100
1, 46501, Note_off_c, 0, 53, 100
1, 46508, Note_on_c, 0, 54, 108
1, 46635, Note_off_c, 0, 54, 108
1, 47261, Note_on_c, 0, 55, 110
1, 47425, Note_off_c, 0, 55, 110
1, 47440, Note_on_c, 0, 58, 109
1, 47533, Note_off_c, 0, 58, 109
1, 47537, Note_on_c, 0, 59, 101
1, 47603, Note_off_c, 0, 59, 101
1, 47612, Note_on_c, 0, 62, 110
1, 47647, Note_off_c, 0, 62, 110
1, 47656, Note_on_c, 0, 64, 119
1, 47804, Note_off_c, 0, 64, 119
1, 47856, Note_on_c, 0, 67, 88
1, 48167, Note_off_c, 0, 67, 88
1, 48176, Note_on_c, 0, 70, 103
1, 48242, Note_off_c, 0, 70, 103
1, 48248, Note_on_c, 0, 71, 106
1, 48301, Note_off_c, 0, 71, 106
1, 48837, Note_on_c, 0, 69, 117
1, 48954, Note_off_c, 0, 69, 117
1, 48965, Note_on_c, 0, 70, 100
1, 49071, Note_off_c, 0, 70, 100
1, 49118, Note_on_c, 0, 69, 105
1, 49184, Note_off_c, 0, 69, 105
1, 49238, Note_on_c, 0, 67, 103
1, 49268, Note_off_c, 0, 67, 103
1, 49273, Note_on_c, 0, 69, 100
1, 49326, Note_off_c, 0, 69, 100
1, 49330, Note_on_c, 0, 67, 100
1, 49353, Note_off_c, 0, 67, 100
1, 49355, Note_on_c, 0, 65, 101
1, 49376, Note_off_c, 0, 65, 101
1, 49378, Note_on_c, 0, 64, 105
1, 49499, Note_off_c, 0, 64, 105
1, 49693, Note_on_c, 0, 58, 102
1, 49794, Note_off_c, 0, 58, 102
1, 49880, Note_on_c, 0, 59, 99
1, 49949, Note_off_c, 0, 59, 99
1, 49963, Note_on_c, 0, 62, 109
1, 50073, Note_off_c, 0, 62, 109
1, 50082, Note_on_c, 0, 60, 108
1, 50169, Note_off_c, 0, 60, 108
1, 50212, Note_on_c, 0, 52, 101
1, 50281, Note_off_c, 0, 52, 101
1, 50644, Note_on_c, 0, 64, 117
1, 50692, Note_off_c, 0, 64, 117
1, 50697, Note_on_c, 0, 66, 102
1, 50818, Note_off_c, 0, 66, 102
1, 50833, Note_on_c, 0, 64, 112
1, 50902, Note_off_c, 0, 64, 112
1, 50913, Note_on_c, 0, 62, 101
1, 51088, Note_off_c, 0, 62, 101
1, 51190, Note_on_c, 0, 60, 102
1, 51274, Note_off_c, 0, 60, 102
1, 51285, Note_on_c, 0, 59, 91
1, 51395, Note_off_c, 0, 59, 91
1, 51402, Note_on_c, 0, 52, 98
1, 51449, Note_off_c, 0, 52, 98
1, 51460, Note_on_c, 0, 54, 98
1, 51582, Note_off_c, 0, 54, 98
1, 51593, Note_on_c, 0, 55, 104
1, 51680, Note_off_c, 0, 55, 104
1, 52793, Note_on_c, 0, 66, 113
1, 52819, Note_off_c, 0, 66, 113
1, 52823, Note_on_c, 0, 67, 105
1, 52942, Note_off_c, 0, 67, 105
1, 52965, Note_on_c, 0, 67, 101
1, 53115, Note_off_c, 0, 67, 101
1, 53134, Note_on_c, 0, 67, 100
1, 53297, Note_off_c, 0, 67, 100
1, 53308, Note_on_c, 0, 62, 110
1, 53344, Note_off_c, 0, 62, 110
1, 53349, Note_on_c, 0, 60, 100
1, 53385, Note_off_c, 0, 60, 100
1, 53406, Note_on_c, 0, 58, 89
1, 53505, Note_off_c, 0, 58, 89
1, 53572, Note_on_c, 0, 59, 94
1, 53702, Note_off_c, 0, 59, 94
1, 53932, Note_on_c, 0, 67, 107
1, 54045, Note_off_c, 0, 67, 107
1, 54055, Note_on_c, 0, 62, 118
1, 54082, Note_off_c, 0, 62, 118
1, 54087, Note_on_c, 0, 60, 121
1, 54125, Note_off_c, 0, 60, 121
1, 54131, Note_on_c, 0, 58, 98
1, 54195, Note_off_c, 0, 58, 98
1, 54232, Note_on_c, 0, 59, 113
1, 54284, Note_off_c, 0, 59, 113
1, 54294, Note_on_c, 0, 59, 105
1, 54383, Note_off_c, 0, 59, 105
1, 54420, Note_on_c, 0, 67, 103
1, 54614, Note_off_c, 0, 67, 103
1, 54625, Note_on_c, 0, 67, 104
1, 54791, Note_off_c, 0, 67, 104
1, 54802, Note_on_c, 0, 62, 110
1, 54864, Note_off_c, 0, 62, 110
1, 54882, Note_on_c, 0, 58, 93
1, 54998, Note_off_c, 0, 58, 93
1, 55040, Note_on_c, 0, 59, 100
1, 55146, Note_off_c, 0, 59, 100
1, 55544, Note_on_c, 0, 59, 95
1, 55603, Note_off_c, 0, 59, 95
1, 55616, Note_on_c, 0, 60, 117
1, 55695, Note_off_c, 0, 60, 117
1, 55727, Note_on_c, 0, 61, 114
1, 55800, Note_off_c, 0, 61, 114
1, 55855, Note_on_c, 0, 60, 114
1, 55937, Note_off_c, 0, 60, 114
1, 55982, Note_on_c, 0, 61, 109
1, 56067, Note_off_c, 0, 61, 109
1, 56138, Note_on_c, 0, 62, 110
1, 56365, Note_off_c, 0, 62, 110
1, 56380, Note_on_c, 0, 59, 98
1, 56464, Note_off_c, 0, 59, 98
1, 56970, Note_on_c, 0, 53, 102
1, 56993, Note_off_c, 0, 53, 102
1, 57000, Note_on_c, 0, 55, 106
1, 57025, Note_off_c, 0, 55, 106
1, 57035, Note_on_c, 0, 53, 102
1, 57064, Note_off_c, 0, 53, 102
1, 57074, Note_on_c, 0, 50, 97
1, 57104, Note_off_c, 0, 50, 97
1, 57115, Note_on_c, 0, 56, 109
1, 57242, Note_off_c, 0, 56, 109
1, 57251, Note_on_c, 0, 53, 98
1, 57300, Note_off_c, 0, 53, 98
1, 57323, Note_on_c, 0, 59, 101
1, 57428, Note_off_c, 0, 59, 101
1, 57438, Note_on_c, 0, 56, 103
1, 57492, Note_off_c, 0, 56, 103
1, 57504, Note_on_c, 0, 62, 108
1, 57621, Note_off_c, 0, 62, 108
1, 57646, Note_on_c, 0, 59, 101
1, 57680, Note_off_c, 0, 59, 101
1, 57689, Note_on_c, 0, 60, 108
1, 57807, Note_off_c, 0, 60, 108
1, 57816, Note_on_c, 0, 62, 110
1, 57882, Note_off_c, 0, 62, 110
1, 57895, Note_on_c, 0, 59, 96
1, 57918, Note_off_c, 0, 59, 96
1, 57922, Note_on_c, 0, 60, 98
1, 57972, Note_off_c, 0, 60, 98
1, 57977, Note_on_c, 0, 59, 99
1, 58004, Note_off_c, 0, 59, 99
1, 58014, Note_on_c, 0, 57, 102
1, 58042, Note_off_c, 0, 57, 102
1, 58063, Note_on_c, 0, 52, 103
1, 58182, Note_off_c, 0, 52, 103
1, 58182, Note_on_c, 0, 55, 108
1, 58255, Note_off_c, 0, 55, 108
1, 58261, Note_on_c, 0, 54, 103
1, 58352, Note_off_c, 0, 54, 103
1, 58622, Note_on_c, 0, 59, 105
1, 58755, Note_off_c, 0, 59, 105
1, 58767, Note_on_c, 0, 55, 108
1, 58812, Note_off_c, 0, 55, 108
1, 58814, Note_on_c, 0, 56, 117
1, 58926, Note_off_c, 0, 56, 117
1, 58941, Note_on_c, 0, 53, 111
1, 58992, Note_off_c, 0, 53, 111
1, 59016, Note_on_c, 0, 62, 114
1, 59137, Note_off_c, 0, 62, 114
1, 59144, Note_on_c, 0, 63, 113
1, 59177, Note_off_c, 0, 63, 113
1, 59190, Note_on_c, 0, 64, 117
1, 59315, Note_off_c, 0, 64, 117
1, 59323, Note_on_c, 0, 60, 116
1, 59383, Note_off_c, 0, 60, 116
1, 59400, Note_on_c, 0, 59, 98
1, 59512, Note_off_c, 0, 59, 98
1, 59531, Note_on_c, 0, 57, 97
1, 59575, Note_off_c, 0, 57, 97
1, 59588, Note_on_c, 0, 59, 94
1, 59741, Note_off_c, 0, 59, 94
1, 60812, Note_on_c, 0, 67, 124
1, 60846, Note_off_c, 0, 67, 124
1, 60849, Note_on_c, 0, 69, 117
1, 60920, Note_off_c, 0, 69, 117
1, 60967, Note_on_c, 0, 67, 122
1, 61025, Note_off_c, 0, 67, 122
1, 61025, Note_on_c, 0, 69, 108
1, 61080, Note_off_c, 0, 69, 108
1, 61108, Note_on_c, 0, 71, 105
1, 61173, Note_off_c, 0, 71, 105
1, 61185, Note_on_c, 0, 72, 102
1, 61218, Note_off_c, 0, 72, 102
1, 61221, Note_on_c, 0, 71, 99
1, 61241, Note_off_c, 0, 71, 99
1, 61244, Note_on_c, 0, 69, 105
1, 61265, Note_off_c, 0, 69, 105
1, 61302, Note_on_c, 0, 71, 101
1, 61375, Note_off_c, 0, 71, 101
1, 61401, Note_on_c, 0, 66, 114
1, 61430, Note_off_c, 0, 66, 114
1, 61441, Note_on_c, 0, 64, 116
1, 61474, Note_off_c, 0, 64, 116
1, 61486, Note_on_c, 0, 62, 104
1, 61518, Note_off_c, 0, 62, 104
1, 61536, Note_on_c, 0, 64, 111
1, 61622, Note_off_c, 0, 64, 111
1, 61647, Note_on_c, 0, 60, 100
1, 61686, Note_off_c, 0, 60, 100
1, 61691, Note_on_c, 0, 59, 102
1, 61720, Note_off_c, 0, 59, 102
1, 61730, Note_on_c, 0, 57, 101
1, 61775, Note_off_c, 0, 57, 101
1, 61778, Note_on_c, 0, 59, 91
1, 61965, Note_off_c, 0, 59, 91
1, 62348, Note_on_c, 0, 53, 105
1, 62403, Note_off_c, 0, 53, 105
1, 62411, Note_on_c, 0, 54, 111
1, 62556, Note_off_c, 0, 54, 111
1, 62561, Note_on_c, 0, 57, 102
1, 62593, Note_off_c, 0, 57, 102
1, 62596, Note_on_c, 0, 62, 106
1, 62774, Note_off_c, 0, 62, 106
1, 62787, Note_on_c, 0, 56, 101
1, 62820, Note_off_c, 0, 56, 101
1, 63122, Note_on_c, 0, 54, 110
1, 63167, Note_off_c, 0, 54, 110
1, 63176, Note_on_c, 0, 58, 100
1, 63347, Note_off_c, 0, 58, 100
1, 63362, Note_on_c, 0, 62, 119
1, 63492, Note_off_c, 0, 62, 119
1, 63504, Note_on_c, 0, 64, 117
1, 63565, Note_off_c, 0, 64, 117
1, 63574, Note_on_c, 0, 62, 114
1, 63602, Note_off_c, 0, 62, 114
1, 63603, Note_on_c, 0, 64, 113
1, 63637, Note_off_c, 0, 64, 113
1, 63646, Note_on_c, 0, 62, 111
1, 63682, Note_off_c, 0, 62, 111
1, 63699, Note_on_c, 0, 59, 104
1, 63735, Note_off_c, 0, 59, 104
1, 63746, Note_on_c, 0, 57, 105
1, 63876, Note_off_c, 0, 57, 105
1, 63895, Note_on_c, 0, 54, 102
1, 63933, Note_off_c, 0, 54, 102
1, 63940, Note_on_c, 0, 55, 111
1, 64050, Note_off_c, 0, 55, 111
1, 64061, Note_on_c, 0, 62, 112
1, 64112, Note_off_c, 0, 62, 112
1, 64131, Note_on_c, 0, 59, 95
1, 64332, Note_off_c, 0, 59, 95
1, 65005, Note_on_c, 0, 56, 111
1, 65132, Note_off_c, 0, 56, 111
1, 65137, Note_on_c, 0, 59, 108
1, 65256, Note_off_c, 0, 59, 108
1, 65287, Note_on_c, 0, 62, 120
1, 65413, Note_off_c, 0, 62, 120
1, 65454, Note_on_c, 0, 67, 111
1, 65588, Note_off_c, 0, 67, 111
1, 65603, Note_on_c, 0, 67, 103
1, 65841, Note_off_c, 0, 67, 103
1, 65865, Note_on_c, 0, 64, 118
1, 65982, Note_off_c, 0, 64, 118
1, 66054, Note_on_c, 0, 67, 113
1, 66203, Note_off_c, 0, 67, 113
1, 66448, Note_on_c, 0, 62, 117
1, 66560, Note_off_c, 0, 62, 117
1, 66574, Note_on_c, 0, 64, 102
1, 66611, Note_off_c, 0, 64, 102
1, 66623, Note_on_c, 0, 65, 109
1, 66748, Note_off_c, 0, 65, 109
1, 66768, Note_on_c, 0, 65, 108
1, 66942, Note_off_c, 0, 65, 108
1, 66949, Note_on_c, 0, 62, 103
1, 66990, Note_off_c, 0, 62, 103
1, 67002, Note_on_c, 0, 65, 104
1, 67174, Note_off_c, 0, 65, 104
1, 67189, Note_on_c, 0, 64, 104
1, 67362, Note_off_c, 0, 64, 104
1, 67683, Note_on_c, 0, 55, 109
1, 67772, Note_off_c, 0, 55, 109
1, 67783, Note_on_c, 0, 56, 111
1, 67896, Note_off_c, 0, 56, 111
1, 67914, Note_on_c, 0, 59, 103
1, 67948, Note_off_c, 0, 59, 103
1, 67960, Note_on_c, 0, 65, 112
1, 68064, Note_off_c, 0, 65, 112
1, 68075, Note_on_c, 0, 63, 109
1, 68123, Note_off_c, 0, 63, 109
1, 68140, Note_on_c, 0, 64, 113
1, 68251, Note_off_c, 0, 64, 113
1, 68282, Note_on_c, 0, 59, 104
1, 68363, Note_off_c, 0, 59, 104
1, 68392, Note_on_c, 0, 58, 104
1, 68432, Note_off_c, 0, 58, 104
1, 68432, Note_on_c, 0, 59, 101
1, 68463, Note_off_c, 0, 59, 101
1, 68471, Note_on_c, 0, 58, 97
1, 68503, Note_off_c, 0, 58, 97
1, 68533, Note_on_c, 0, 64, 115
1, 68657, Note_off_c, 0, 64, 115
1, 68938, Note_on_c, 0, 59, 101
1, 69021, Note_off_c, 0, 59, 101
1, 69092, Note_on_c, 0, 62, 125
1, 69161, Note_off_c, 0, 62, 125
1, 69166, Note_on_c, 0, 63, 118
1, 69244, Note_off_c, 0, 63, 118
1, 69260, Note_on_c, 0, 60, 106
1, 69289, Note_off_c, 0, 60, 106
1, 69300, Note_on_c, 0, 59, 102
1, 69327, Note_off_c, 0, 59, 102
1, 69334, Note_on_c, 0, 57, 103
1, 69356, Note_off_c, 0, 57, 103
1, 69365, Note_on_c, 0, 55, 101
1, 69394, Note_off_c, 0, 55, 101
1, 69402, Note_on_c, 0, 62, 108
1, 69491, Note_off_c, 0, 62, 108
1, 69776, Note_on_c, 0, 63, 113
1, 69820, Note_off_c, 0, 63, 113
1, 69835, Note_on_c, 0, 64, 111
1, 69963, Note_off_c, 0, 64, 111
1, 69970, Note_on_c, 0, 62, 96
1, 70015, Note_off_c, 0, 62, 96
1, 70041, Note_on_c, 0, 57, 102
1, 70149, Note_off_c, 0, 57, 102
1, 70159, Note_on_c, 0, 56, 105
1, 70209, Note_off_c, 0, 56, 105
1, 70219, Note_on_c, 0, 57, 98
1, 70404, Note_off_c, 0, 57, 98
1, 70520, Note_on_c, 0, 54, 111
1, 70574, Note_off_c, 0, 54, 111
1, 70591, Note_on_c, 0, 55, 104
1, 70755, Note_off_c, 0, 55, 104
1, 70783, Note_on_c, 0, 55, 106
1, 70943, Note_off_c, 0, 55, 106
1, 70957, Note_on_c, 0, 50, 106
1, 71038, Note_off_c, 0, 50, 106
1, 71483, Note_on_c, 0, 56, 105
1, 71606, Note_off_c, 0, 56, 105
1, 71621, Note_on_c, 0, 59, 110
1, 71725, Note_off_c, 0, 59, 110
1, 71751, Note_on_c, 0, 62, 120
1, 71890, Note_off_c, 0, 62, 120
1, 71948, Note_on_c, 0, 67, 111
1, 72048, Note_off_c, 0, 67, 111
1, 72071, Note_on_c, 0, 67, 101
1, 72297, Note_off_c, 0, 67, 101
1, 72311, Note_on_c, 0, 69, 110
1, 72372, Note_off_c, 0, 69, 110
1, 72379, Note_on_c, 0, 71, 114
1, 72443, Note_off_c, 0, 71, 114
1, 73001, Note_on_c, 0, 60, 93
1, 73032, Note_off_c, 0, 60, 93
1, 73049, Note_on_c, 0, 72, 90
1, 73828, Note_off_c, 0, 72, 90
1, 73843, Note_on_c, 0, 71, 98
1, 73948, Note_off_c, 0, 71, 98
1, 73968, Note_on_c, 0, 67, 103
1, 74044, Note_off_c, 0, 67, 103
1, 74114, Note_on_c, 0, 72, 100
1, 74203, Note_off_c, 0, 72, 100
1, 74232, Note_on_c, 0, 71, 99
1, 74315, Note_off_c, 0, 71, 99
1, 74338, Note_on_c, 0, 67, 109
1, 74497, Note_off_c, 0, 67, 109
1, 74916, Note_on_c, 0, 55, 105
1, 74979, Note_off_c, 0, 55, 105
1, 74996, Note_on_c, 0, 59, 109
1, 75078, Note_off_c, 0, 59, 109
1, 75113, Note_on_c, 0, 62, 127
1, 75212, Note_off_c, 0, 62, 127
1, 75300, Note_on_c, 0, 64, 113
1, 75340, Note_off_c, 0, 64, 113
1, 75345, Note_on_c, 0, 67, 111
1, 75428, Note_off_c, 0, 67, 111
1, 75440, Note_on_c, 0, 67, 102
1, 75669, Note_off_c, 0, 67, 102
1, 75715, Note_on_c, 0, 58, 107
1, 75831, Note_off_c, 0, 58, 107
1, 75850, Note_on_c, 0, 55, 110
1, 75928, Note_off_c, 0, 55, 110
1, 75944, Note_on_c, 0, 58, 103
1, 76038, Note_off_c, 0, 58, 103
1, 76054, Note_on_c, 0, 59, 99
1, 76120, Note_off_c, 0, 59, 99
1, 76127, Note_on_c, 0, 59, 104
1, 76269, Note_off_c, 0, 59, 104
1, 76269, End_track
0, 0, End_of_file
