0, 0, Header, 1, 1, 192
1, 0, Start_track
1, 0, Title_t, "Melody"
1, 0, Tempo, 287081
1, 0, Key_signature, -4, "major"
1, 0, Time_signature, 4, 2, 24, 8
1, 1646, Note_on_c, 0, 75, 109
1, 1766, Note_off_c, 0, 75, 109
1, 1785, Note_on_c, 0, 80, 113
1, 1862, Note_off_c, 0, 80, 113
1, 1961, Note_on_c, 0, 72, 103
1, 2046, Note_off_c, 0, 72, 103
1, 2057, Note_on_c, 0, 75, 113
1, 2128, Note_off_c, 0, 75, 113
1, 2170, Note_on_c, 0, 68, 102
1, 2232, Note_off_c, 0, 68, 102
1, 2250, Note_on_c, 0, 72, 111
1, 2319, Note_off_c, 0, 72, 111
1, 2439, Note_on_c, 0, 63, 97
1, 2526, Note_off_c, 0, 63, 97
1, 2615, Note_on_c, 0, 64, 97
1, 2708, Note_off_c, 0, 64, 97
1, 2822, Note_on_c, 0, 65, 82
1, 2983, Note_off_c, 0, 65, 82
1, 3390, Note_on_c, 0, 75, 121
1, 3492, Note_off_c, 0, 75, 121
1, 3589, Note_on_c, 0, 77, 121
1, 3674, Note_off_c, 0, 77, 121
1, 3705, Note_on_c, 0, 72, 110
1, 3782, Note_off_c, 0, 72, 110
1, 3808, Note_on_c, 0, 75, 115
1, 3883, Note_off_c, 0, 75, 115
1, 3970, Note_on_c, 0, 72, 110
1, 4042, Note_off_c, 0, 72, 110
1, 4084, Note_on_c, 0, 68, 110
1, 4163, Note_off_c, 0, 68, 110
1, 4184, Note_on_c, 0, 67, 103
1, 4257, Note_off_c, 0, 67, 103
1, 4289, Note_on_c, 0, 70, 106
1, 4358, Note_off_c, 0, 70, 106
1, 4453, Note_on_c, 0, 68, 112
1, 4521, Note_off_c, 0, 68, 112
1, 4537, Note_on_c, 0, 67, 105
1, 4646, Note_off_c, 0, 67, 105
1, 4654, Note_on_c, 0, 65, 101
1, 4716, Note_off_c, 0, 65, 101
1, 4718, Note_on_c, 0, 70, 104
1, 4805, Note_off_c, 0, 70, 104
1, 4886, Note_on_c, 0, 66, 104
1, 4994, Note_off_c, 0, 66, 104
1, 5087, Note_on_c, 0, 65, 106
1, 5182, Note_off_c, 0, 65, 106
1, 5198, Note_on_c, 0, 63, 98
1, 5259, Note_off_c, 0, 63, 98
1, 5269, Note_on_c, 0, 60, 104
1, 5412, Note_off_c, 0, 60, 104
1, 5469, Note_on_c, 0, 63, 100
1, 5549, Note_off_c, 0, 63, 100
1, 5579, Note_on_c, 0, 65, 104
1, 5636, Note_off_c, 0, 65, 104
1, 5652, Note_on_c, 0, 63, 99
1, 5731, Note_off_c, 0, 63, 99
1, 5834, Note_on_c, 0, 63, 90
1, 6071, Note_off_c, 0, 63, 90
1, 6413, Note_on_c, 0, 75, 112
1, 6511, Note_off_c, 0, 75, 112
1, 6539, Note_on_c, 0, 77, 111
1, 6603, Note_off_c, 0, 77, 111
1, 6611, Note_on_c, 0, 80, 127
1, 6721, Note_off_c, 0, 80, 127
1, 6732, Note_on_c, 0, 75, 116
1, 6799, Note_off_c, 0, 75, 116
1, 6800, Note_on_c, 0, 77, 116
1, 6899, Note_off_c, 0, 77, 116
1, 6908, Note_on_c, 0, 72, 111
1, 6996, Note_off_c, 0, 72, 111
1, 7079, Note_on_c, 0, 75, 116
1, 7160, Note_off_c, 0, 75, 116
1, 7177, Note_on_c, 0, 72, 108
1, 7279, Note_off_c, 0, 72, 108
1, 7287, Note_on_c, 0, 68, 105
1, 7345, Note_off_c, 0, 68, 105
1, 7361, Note_on_c, 0, 67, 105
1, 7460, Note_off_c, 0, 67, 105
1, 7468, Note_on_c, 0, 70, 108
1, 7534, Note_off_c, 0, 70, 108
1, 7548, Note_on_c, 0, 68, 111
1, 7637, Note_off_c, 0, 68, 111
1, 7728, Note_on_c, 0, 70, 108
1, 7839, Note_off_c, 0, 70, 108
1, 7909, Note_on_c, 0, 70, 105
1, 8023, Note_off_c, 0, 70, 105
1, 8104, Note_on_c, 0, 66, 98
1, 8199, Note_off_c, 0, 66, 98
1, 8216, Note_on_c, 0, 63, 99
1, 8374, Note_off_c, 0, 63, 99
1, 8485, Note_on_c, 0, 65, 89
1, 8700, Note_off_c, 0, 65, 89
1, 8994, Note_on_c, 0, 69, 104
1, 9056, Note_off_c, 0, 69, 104
1, 9057, Note_on_c, 0, 71, 108
1, 9156, Note_off_c, 0, 71, 108
1, 9225, Note_on_c, 0, 70, 96
1, 9421, Note_off_c, 0, 70, 96
1, 9620, Note_on_c, 0, 70, 97
1, 9804, Note_off_c, 0, 70, 97
1, 9984, Note_on_c, 0, 70, 109
1, 10093, Note_off_c, 0, 70, 109
1, 10118, Note_on_c, 0, 73, 111
1, 10221, Note_off_c, 0, 73, 111
1, 10291, Note_on_c, 0, 70, 101
1, 10351, Note_off_c, 0, 70, 101
1, 10368, Note_on_c, 0, 73, 112
1, 10463, Note_off_c, 0, 73, 112
1, 10486, Note_on_c, 0, 70, 98
1, 10531, Note_off_c, 0, 70, 98
1, 10538, Note_on_c, 0, 76, 98
1, 10557, Note_off_c, 0, 76, 98
1, 10572, Note_on_c, 0, 77, 107
1, 10638, Note_off_c, 0, 77, 107
1, 10954, Note_on_c, 0, 70, 116
1, 11037, Note_off_c, 0, 70, 116
1, 11093, Note_on_c, 0, 70, 114
1, 11200, Note_off_c, 0, 70, 114
1, 11221, Note_on_c, 0, 68, 101
1, 11297, Note_off_c, 0, 68, 101
1, 11308, Note_on_c, 0, 65, 97
1, 11391, Note_off_c, 0, 65, 97
1, 11490, Note_on_c, 0, 70, 114
1, 11588, Note_off_c, 0, 70, 114
1, 11631, Note_on_c, 0, 70, 109
1, 11685, Note_off_c, 0, 70, 109
1, 11796, Note_on_c, 0, 70, 108
1, 11877, Note_off_c, 0, 70, 108
1, 11903, Note_on_c, 0, 68, 107
1, 12003, Note_off_c, 0, 68, 107
1, 12020, Note_on_c, 0, 67, 102
1, 12087, Note_off_c, 0, 67, 102
1, 12110, Note_on_c, 0, 65, 95
1, 12176, Note_off_c, 0, 65, 95
1, 12261, Note_on_c, 0, 68, 105
1, 12340, Note_off_c, 0, 68, 105
1, 12433, Note_on_c, 0, 62, 98
1, 12493, Note_off_c, 0, 62, 98
1, 12510, Note_on_c, 0, 68, 89
1, 12552, Note_off_c, 0, 68, 89
1, 12563, Note_on_c, 0, 70, 86
1, 12621, Note_off_c, 0, 70, 86
1, 12621, Note_on_c, 0, 74, 109
1, 12723, Note_off_c, 0, 74, 109
1, 12822, Note_on_c, 0, 58, 100
1, 12862, Note_off_c, 0, 58, 100
1, 12871, Note_on_c, 0, 62, 97
1, 12917, Note_off_c, 0, 62, 97
1, 12928, Note_on_c, 0, 65, 95
1, 12980, Note_off_c, 0, 65, 95
1, 12992, Note_on_c, 0, 70, 93
1, 13109, Note_off_c, 0, 70, 93
1, 13172, Note_on_c, 0, 70, 107
1, 13285, Note_off_c, 0, 70, 107
1, 13371, Note_on_c, 0, 70, 92
1, 13596, Note_off_c, 0, 70, 92
1, 13962, Note_on_c, 0, 70, 98
1, 14080, Note_off_c, 0, 70, 98
1, 14305, Note_on_c, 0, 71, 101
1, 14434, Note_off_c, 0, 71, 101
1, 14562, Note_on_c, 0, 70, 98
1, 14649, Note_off_c, 0, 70, 98
1, 14741, Note_on_c, 0, 70, 97
1, 14869, Note_off_c, 0, 70, 97
1, 14952, Note_on_c, 0, 70, 83
1, 15148, Note_off_c, 0, 70, 83
1, 15157, Note_on_c, 0, 68, 94
1, 15242, Note_off_c, 0, 68, 94
1, 15550, Note_on_c, 0, 63, 114
1, 15648, Note_off_c, 0, 63, 114
1, 15664, Note_on_c, 0, 65, 101
1, 15726, Note_off_c, 0, 65, 101
1, 15734, Note_on_c, 0, 68, 109
1, 15835, Note_off_c, 0, 68, 109
1, 15854, Note_on_c, 0, 72, 108
1, 15907, Note_off_c, 0, 72, 108
1, 15924, Note_on_c, 0, 75, 115
1, 16035, Note_off_c, 0, 75, 115
1, 16054, Note_on_c, 0, 72, 92
1, 16107, Note_off_c, 0, 72, 92
1, 16112, Note_on_c, 0, 68, 108
1, 16212, Note_off_c, 0, 68, 108
1, 16282, Note_on_c, 0, 70, 106
1, 16396, Note_off_c, 0, 70, 106
1, 16424, Note_on_c, 0, 68, 104
1, 16534, Note_off_c, 0, 68, 104
1, 16589, Note_on_c, 0, 70, 109
1, 16657, Note_off_c, 0, 70, 109
1, 16670, Note_on_c, 0, 67, 99
1, 16826, Note_off_c, 0, 67, 99
1, 16853, Note_on_c, 0, 68, 105
1, 16933, Note_off_c, 0, 68, 105
1, 16968, Note_on_c, 0, 70, 106
1, 17025, Note_off_c, 0, 70, 106
1, 17048, Note_on_c, 0, 67, 105
1, 17146, Note_off_c, 0, 67, 105
1, 17163, Note_on_c, 0, 68, 102
1, 17281, Note_off_c, 0, 68, 102
1, 17334, Note_on_c, 0, 65, 95
1, 17485, Note_off_c, 0, 65, 95
1, 17541, Note_on_c, 0, 63, 87
1, 17591, Note_off_c, 0, 63, 87
1, 17597, Note_on_c, 0, 65, 88
1, 17773, Note_off_c, 0, 65, 88
1, 18015, Note_on_c, 0, 56, 92
1, 18072, Note_off_c, 0, 56, 92
1, 18084, Note_on_c, 0, 60, 88
1, 18153, Note_off_c, 0, 60, 88
1, 18159, Note_on_c, 0, 63, 105
1, 18257, Note_off_c, 0, 63, 105
1, 18362, Note_on_c, 0, 68, 108
1, 18458, Note_off_c, 0, 68, 108
1, 18471, Note_on_c, 0, 70, 109
1, 18524, Note_off_c, 0, 70, 109
1, 18549, Note_on_c, 0, 68, 106
1, 18663, Note_off_c, 0, 68, 106
1, 18720, Note_on_c, 0, 70, 86
1, 18928, Note_off_c, 0, 70, 86
1, 19084, Note_on_c, 0, 73, 109
1, 19178, Note_off_c, 0, 73, 109
1, 19188, Note_on_c, 0, 71, 105
1, 19275, Note_off_c, 0, 71, 105
1, 19284, Note_on_c, 0, 70, 107
1, 19369, Note_off_c, 0, 70, 107
1, 19411, Note_on_c, 0, 68, 105
1, 19504, Note_off_c, 0, 68, 105
1, 19577, Note_on_c, 0, 70, 105
1, 19639, Note_off_c, 0, 70, 105
1, 19668, Note_on_c, 0, 64, 100
1, 19800, Note_off_c, 0, 64, 100
1, 19833, Note_on_c, 0, 61, 85
1, 20031, Note_off_c, 0, 61, 85
1, 20163, Note_on_c, 0, 56, 91
1, 20205, Note_off_c, 0, 56, 91
1, 20224, Note_on_c, 0, 61, 97
1, 20323, Note_off_c, 0, 61, 97
1, 20341, Note_on_c, 0, 65, 102
1, 20398, Note_off_c, 0, 65, 102
1, 20411, Note_on_c, 0, 68, 109
1, 20512, Note_off_c, 0, 68, 109
1, 20540, Note_on_c, 0, 65, 94
1, 20589, Note_off_c, 0, 65, 94
1, 20598, Note_on_c, 0, 68, 89
1, 20820, Note_off_c, 0, 68, 89
1, 21158, Note_on_c, 0, 68, 107
1, 21216, Note_off_c, 0, 68, 107
1, 21233, Note_on_c, 0, 70, 101
1, 21256, Note_off_c, 0, 70, 101
1, 21275, Note_on_c, 0, 68, 100
1, 21328, Note_off_c, 0, 68, 100
1, 21348, Note_on_c, 0, 73, 110
1, 21447, Note_off_c, 0, 73, 110
1, 21530, Note_on_c, 0, 68, 108
1, 21594, Note_off_c, 0, 68, 108
1, 21603, Note_on_c, 0, 70, 105
1, 21624, Note_off_c, 0, 70, 105
1, 21632, Note_on_c, 0, 68, 102
1, 21694, Note_off_c, 0, 68, 102
1, 21705, Note_on_c, 0, 71, 107
1, 21792, Note_off_c, 0, 71, 107
1, 21879, Note_on_c, 0, 68, 104
1, 21948, Note_off_c, 0, 68, 104
1, 22027, Note_on_c, 0, 70, 108
1, 22104, Note_off_c, 0, 70, 108
1, 22199, Note_on_c, 0, 68, 99
1, 22287, Note_off_c, 0, 68, 99
1, 22306, Note_on_c, 0, 65, 103
1, 22385, Note_off_c, 0, 65, 103
1, 22409, Note_on_c, 0, 68, 103
1, 22504, Note_off_c, 0, 68, 103
1, 22585, Note_on_c, 0, 58, 88
1, 22678, Note_off_c, 0, 58, 88
1, 22679, Note_on_c, 0, 61, 105
1, 22764, Note_off_c, 0, 61, 105
1, 22775, Note_on_c, 0, 65, 104
1, 22850, Note_off_c, 0, 65, 104
1, 22973, Note_on_c, 0, 65, 92
1, 23124, Note_off_c, 0, 65, 92
1, 23203, Note_on_c, 0, 65, 87
1, 23404, Note_off_c, 0, 65, 87
1, 23591, Note_on_c, 0, 72, 110
1, 23697, Note_off_c, 0, 72, 110
1, 23727, Note_on_c, 0, 77, 117
1, 23834, Note_off_c, 0, 77, 117
1, 23895, Note_on_c, 0, 75, 112
1, 23959, Note_off_c, 0, 75, 112
1, 23974, Note_on_c, 0, 73, 108
1, 24069, Note_off_c, 0, 73, 108
1, 24084, Note_on_c, 0, 72, 108
1, 24153, Note_off_c, 0, 72, 108
1, 24162, Note_on_c, 0, 70, 107
1, 24255, Note_off_c, 0, 70, 107
1, 24271, Note_on_c, 0, 68, 103
1, 24331, Note_off_c, 0, 68, 103
1, 24347, Note_on_c, 0, 72, 109
1, 24418, Note_off_c, 0, 72, 109
1, 24534, Note_on_c, 0, 72, 108
1, 24609, Note_off_c, 0, 72, 108
1, 24739, Note_on_c, 0, 58, 97
1, 24801, Note_off_c, 0, 58, 97
1, 24816, Note_on_c, 0, 62, 88
1, 24883, Note_off_c, 0, 62, 88
1, 24894, Note_on_c, 0, 65, 106
1, 24973, Note_off_c, 0, 65, 106
1, 25004, Note_on_c, 0, 68, 103
1, 25070, Note_off_c, 0, 68, 103
1, 25083, Note_on_c, 0, 67, 103
1, 25190, Note_off_c, 0, 67, 103
1, 25218, Note_on_c, 0, 73, 111
1, 25283, Note_off_c, 0, 73, 111
1, 25371, Note_on_c, 0, 70, 103
1, 25441, Note_off_c, 0, 70, 103
1, 25445, Note_on_c, 0, 67, 104
1, 25528, Note_off_c, 0, 67, 104
1, 25568, Note_on_c, 0, 63, 85
1, 25630, Note_off_c, 0, 63, 85
1, 25638, Note_on_c, 0, 72, 109
1, 25751, Note_off_c, 0, 72, 109
1, 25757, Note_on_c, 0, 68, 90
1, 25809, Note_off_c, 0, 68, 90
1, 25809, Note_on_c, 0, 67, 84
1, 26018, Note_off_c, 0, 67, 84
1, 26018, End_track
0, 0, End_of_file
