0, 0, Header, 1, 1, 192
1, 0, Start_track
1, 0, Title_t, "Melody"
1, 0, Tempo, 458015
1, 0, Key_signature, -1, "major"
1, 0, Time_signature, 4, 2, 24, 8
1, 1055, Note_on_c, 0, 72, 94
1, 1192, Note_off_c, 0, 72, 94
1, 1200, Note_on_c, 0, 74, 94
1, 1436, Note_off_c, 0, 74, 94
1, 1482, Note_on_c, 0, 72, 117
1, 1541, Note_off_c, 0, 72, 117
1, 1548, Note_on_c, 0, 74, 119
1, 1606, Note_off_c, 0, 74, 119
1, 1609, Note_on_c, 0, 77, 100
1, 1975, Note_off_c, 0, 77, 100
1, 2029, Note_on_c, 0, 68, 101
1, 2406, Note_off_c, 0, 68, 101
1, 2609, Note_on_c, 0, 72, 122
1, 2696, Note_off_c, 0, 72, 122
1, 2708, Note_on_c, 0, 74, 121
1, 2788, Note_off_c, 0, 74, 121
1, 2797, Note_on_c, 0, 72, 114
1, 2886, Note_off_c, 0, 72, 114
1, 2903, Note_on_c, 0, 68, 108
1, 2980, Note_off_c, 0, 68, 108
1, 3055, Note_on_c, 0, 69, 109
1, 3171, Note_off_c, 0, 69, 109
1, 3208, Note_on_c, 0, 69, 88
1, 3895, Note_off_c, 0, 69, 88
1, 4019, Note_on_c, 0, 69, 114
1, 4089, Note_off_c, 0, 69, 114
1, 4092, Note_on_c, 0, 71, 115
1, 4167, Note_off_c, 0, 71, 115
1, 4170, Note_on_c, 0, 72, 110
1, 4205, Note_off_c, 0, 72, 110
1, 4224, Note_on_c, 0, 74, 115
1, 4287, Note_off_c, 0, 74, 115
1, 4292, Note_on_c, 0, 72, 112
1, 4460, Note_off_c, 0, 72, 112
1, 4526, Note_on_c, 0, 67, 105
1, 4550, Note_off_c, 0, 67, 105
1, 4550, Note_on_c, 0, 68, 104
1, 4720, Note_off_c, 0, 68, 104
1, 4758, Note_on_c, 0, 65, 96
1, 4828, Note_off_c, 0, 65, 96
1, 4920, Note_on_c, 0, 65, 91
1, 5006, Note_off_c, 0, 65, 91
1, 5061, Note_on_c, 0, 65, 92
1, 5330, Note_off_c, 0, 65, 92
1, 5566, Note_on_c, 0, 69, 110
1, 5671, Note_off_c, 0, 69, 110
1, 5677, Note_on_c, 0, 70, 105
1, 5772, Note_off_c, 0, 70, 105
1, 5775, Note_on_c, 0, 71, 105
1, 5853, Note_off_c, 0, 71, 105
1, 5866, Note_on_c, 0, 72, 114
1, 5940, Note_off_c, 0, 72, 114
1, 5982, Note_on_c, 0, 60, 97
1, 6029, Note_off_c, 0, 60, 97
1, 6033, Note_on_c, 0, 62, 96
1, 6070, Note_off_c, 0, 62, 96
1, 6079, Note_on_c, 0, 65, 90
1, 6678, Note_off_c, 0, 65, 90
1, 7054, Note_on_c, 0, 72, 120
1, 7159, Note_off_c, 0, 72, 120
1, 7208, Note_on_c, 0, 74, 111
1, 7377, Note_off_c, 0, 74, 111
1, 7397, Note_on_c, 0, 74, 109
1, 7542, Note_off_c, 0, 74, 109
1, 7557, Note_on_c, 0, 72, 119
1, 7624, Note_off_c, 0, 72, 119
1, 7648, Note_on_c, 0, 77, 103
1, 7764, Note_off_c, 0, 77, 103
1, 7805, Note_on_c, 0, 77, 99
1, 7955, Note_off_c, 0, 77, 99
1, 7989, Note_on_c, 0, 77, 97
1, 8418, Note_off_c, 0, 77, 97
1, 8574, Note_on_c, 0, 72, 123
1, 8664, Note_off_c, 0, 72, 123
1, 8668, Note_on_c, 0, 73, 119
1, 8736, Note_off_c, 0, 73, 119
1, 8753, Note_on_c, 0, 74, 97
1, 8845, Note_off_c, 0, 74, 97
1, 8854, Note_on_c, 0, 72, 118
1, 8933, Note_off_c, 0, 72, 118
1, 8943, Note_on_c, 0, 69, 104
1, 9042, Note_off_c, 0, 69, 104
1, 9046, Note_on_c, 0, 72, 123
1, 9115, Note_off_c, 0, 72, 123
1, 9123, Note_on_c, 0, 76, 103
1, 9298, Note_off_c, 0, 76, 103
1, 9328, Note_on_c, 0, 64, 110
1, 9420, Note_off_c, 0, 64, 110
1, 9514, Note_on_c, 0, 66, 93
1, 9626, Note_off_c, 0, 66, 93
1, 9798, Note_on_c, 0, 68, 102
1, 9867, Note_off_c, 0, 68, 102
1, 9885, Note_on_c, 0, 71, 105
1, 9963, Note_off_c, 0, 71, 105
1, 9980, Note_on_c, 0, 69, 107
1, 10039, Note_off_c, 0, 69, 107
1, 10053, Note_on_c, 0, 72, 118
1, 10152, Note_off_c, 0, 72, 118
1, 10155, Note_on_c, 0, 64, 98
1, 10231, Note_off_c, 0, 64, 98
1, 10257, Note_on_c, 0, 71, 94
1, 10445, Note_off_c, 0, 71, 94
1, 10455, Note_on_c, 0, 69, 93
1, 10561, Note_off_c, 0, 69, 93
1, 10590, Note_on_c, 0, 74, 114
1, 10669, Note_off_c, 0, 74, 114
1, 10769, Note_on_c, 0, 74, 114
1, 10823, Note_off_c, 0, 74, 114
1, 10913, Note_on_c, 0, 74, 111
1, 11003, Note_off_c, 0, 74, 111
1, 11017, Note_on_c, 0, 74, 101
1, 11108, Note_off_c, 0, 74, 101
1, 11354, Note_on_c, 0, 72, 123
1, 11465, Note_off_c, 0, 72, 123
1, 11476, Note_on_c, 0, 69, 99
1, 11539, Note_off_c, 0, 69, 99
1, 11547, Note_on_c, 0, 72, 118
1, 11633, Note_off_c, 0, 72, 118
1, 11648, Note_on_c, 0, 69, 112
1, 11717, Note_off_c, 0, 69, 112
1, 11737, Note_on_c, 0, 72, 112
1, 11884, Note_off_c, 0, 72, 112
1, 11909, Note_on_c, 0, 69, 98
1, 12031, Note_off_c, 0, 69, 98
1, 12040, Note_on_c, 0, 70, 96
1, 12179, Note_off_c, 0, 70, 96
1, 12209, Note_on_c, 0, 77, 98
1, 12377, Note_off_c, 0, 77, 98
1, 12404, Note_on_c, 0, 69, 113
1, 12441, Note_off_c, 0, 69, 113
1, 12443, Note_on_c, 0, 69, 92
1, 12508, Note_off_c, 0, 69, 92
1, 12959, Note_on_c, 0, 68, 112
1, 13030, Note_off_c, 0, 68, 112
1, 13030, Note_on_c, 0, 69, 90
1, 13502, Note_off_c, 0, 69, 90
1, 13511, Note_on_c, 0, 65, 93
1, 13580, Note_off_c, 0, 65, 93
1, 13584, Note_on_c, 0, 68, 95
1, 13717, Note_off_c, 0, 68, 95
1, 13722, Note_on_c, 0, 67, 109
1, 13781, Note_off_c, 0, 67, 109
1, 13884, Note_on_c, 0, 67, 91
1, 14149, Note_off_c, 0, 67, 91
1, 14343, Note_on_c, 0, 65, 96
1, 14497, Note_off_c, 0, 65, 96
1, 14506, Note_on_c, 0, 58, 95
1, 14544, Note_off_c, 0, 58, 95
1, 14549, Note_on_c, 0, 61, 110
1, 14642, Note_off_c, 0, 61, 110
1, 14665, Note_on_c, 0, 65, 96
1, 14720, Note_off_c, 0, 65, 96
1, 14726, Note_on_c, 0, 69, 103
1, 14829, Note_off_c, 0, 69, 103
1, 14842, Note_on_c, 0, 65, 93
1, 14913, Note_off_c, 0, 65, 93
1, 14919, Note_on_c, 0, 69, 110
1, 15027, Note_off_c, 0, 69, 110
1, 15031, Note_on_c, 0, 65, 101
1, 15090, Note_off_c, 0, 65, 101
1, 15101, Note_on_c, 0, 67, 106
1, 15201, Note_off_c, 0, 67, 106
1, 15246, Note_on_c, 0, 67, 92
1, 15379, Note_off_c, 0, 67, 92
1, 15423, Note_on_c, 0, 67, 86
1, 15811, Note_off_c, 0, 67, 86
1, 16031, Note_on_c, 0, 81, 91
1, 16139, Note_off_c, 0, 81, 91
1, 16151, Note_on_c, 0, 77, 107
1, 16222, Note_off_c, 0, 77, 107
1, 16232, Note_on_c, 0, 75, 107
1, 16326, Note_off_c, 0, 75, 107
1, 16329, Note_on_c, 0, 74, 116
1, 16406, Note_off_c, 0, 74, 116
1, 16421, Note_on_c, 0, 72, 118
1, 16507, Note_off_c, 0, 72, 118
1, 16510, Note_on_c, 0, 77, 105
1, 16600, Note_off_c, 0, 77, 105
1, 16601, Note_on_c, 0, 68, 102
1, 16695, Note_off_c, 0, 68, 102
1, 16712, Note_on_c, 0, 74, 105
1, 16913, Note_off_c, 0, 74, 105
1, 16984, Note_on_c, 0, 65, 103
1, 17097, Note_off_c, 0, 65, 103
1, 17097, Note_on_c, 0, 60, 102
1, 17160, Note_off_c, 0, 60, 102
1, 17352, Note_on_c, 0, 74, 114
1, 17457, Note_off_c, 0, 74, 114
1, 17470, Note_on_c, 0, 69, 110
1, 17543, Note_off_c, 0, 69, 110
1, 17572, Note_on_c, 0, 70, 106
1, 17613, Note_off_c, 0, 70, 106
1, 17617, Note_on_c, 0, 71, 111
1, 17652, Note_off_c, 0, 71, 111
1, 17659, Note_on_c, 0, 72, 119
1, 17737, Note_off_c, 0, 72, 119
1, 17841, Note_on_c, 0, 60, 87
1, 17898, Note_off_c, 0, 60, 87
1, 17944, Note_on_c, 0, 62, 105
1, 18018, Note_off_c, 0, 62, 105
1, 18025, Note_on_c, 0, 69, 79
1, 18477, Note_off_c, 0, 69, 79
1, 18499, Note_on_c, 0, 65, 96
1, 18595, Note_off_c, 0, 65, 96
1, 18603, Note_on_c, 0, 62, 108
1, 18677, Note_off_c, 0, 62, 108
1, 18685, Note_on_c, 0, 65, 84
1, 18840, Note_off_c, 0, 65, 84
1, 18854, Note_on_c, 0, 62, 107
1, 18948, Note_off_c, 0, 62, 107
1, 18960, Note_on_c, 0, 65, 86
1, 19196, Note_off_c, 0, 65, 86
1, 19493, Note_on_c, 0, 72, 117
1, 19554, Note_off_c, 0, 72, 117
1, 19594, Note_on_c, 0, 74, 120
1, 19654, Note_off_c, 0, 74, 120
1, 19693, Note_on_c, 0, 77, 108
1, 19854, Note_off_c, 0, 77, 108
1, 19872, Note_on_c, 0, 74, 112
1, 19965, Note_off_c, 0, 74, 112
1, 19988, Note_on_c, 0, 77, 109
1, 20054, Note_off_c, 0, 77, 109
1, 20077, Note_on_c, 0, 74, 110
1, 20253, Note_off_c, 0, 74, 110
1, 20647, Note_on_c, 0, 72, 118
1, 20748, Note_off_c, 0, 72, 118
1, 20771, Note_on_c, 0, 73, 118
1, 20871, Note_off_c, 0, 73, 118
1, 20940, Note_on_c, 0, 74, 104
1, 21019, Note_off_c, 0, 74, 104
1, 21024, Note_on_c, 0, 72, 120
1, 21098, Note_off_c, 0, 72, 120
1, 21137, Note_on_c, 0, 65, 95
1, 21198, Note_off_c, 0, 65, 95
1, 21209, Note_on_c, 0, 69, 115
1, 21294, Note_off_c, 0, 69, 115
1, 21427, Note_on_c, 0, 69, 109
1, 21527, Note_off_c, 0, 69, 109
1, 21589, Note_on_c, 0, 69, 92
1, 21910, Note_off_c, 0, 69, 92
1, 21972, Note_on_c, 0, 72, 116
1, 22044, Note_off_c, 0, 72, 116
1, 22101, Note_on_c, 0, 72, 110
1, 22259, Note_off_c, 0, 72, 110
1, 22279, Note_on_c, 0, 72, 121
1, 22349, Note_off_c, 0, 72, 121
1, 22358, Note_on_c, 0, 74, 110
1, 22460, Note_off_c, 0, 74, 110
1, 22467, Note_on_c, 0, 72, 117
1, 22535, Note_off_c, 0, 72, 117
1, 22562, Note_on_c, 0, 74, 111
1, 22628, Note_off_c, 0, 74, 111
1, 22640, Note_on_c, 0, 65, 95
1, 22715, Note_off_c, 0, 65, 95
1, 22716, Note_on_c, 0, 69, 106
1, 22789, Note_off_c, 0, 69, 106
1, 22826, Note_on_c, 0, 65, 100
1, 22901, Note_off_c, 0, 65, 100
1, 22910, Note_on_c, 0, 62, 110
1, 23006, Note_off_c, 0, 62, 110
1, 23026, Note_on_c, 0, 58, 96
1, 23091, Note_off_c, 0, 58, 96
1, 23104, Note_on_c, 0, 65, 91
1, 23497, Note_off_c, 0, 65, 91
1, 23713, Note_on_c, 0, 68, 97
1, 23813, Note_off_c, 0, 68, 97
1, 23815, Note_on_c, 0, 69, 116
1, 23891, Note_off_c, 0, 69, 116
1, 23910, Note_on_c, 0, 67, 98
1, 24120, Note_off_c, 0, 67, 98
1, 24133, Note_on_c, 0, 65, 98
1, 24201, Note_off_c, 0, 65, 98
1, 24219, Note_on_c, 0, 62, 93
1, 24279, Note_off_c, 0, 62, 93
1, 24286, Note_on_c, 0, 65, 91
1, 24660, Note_off_c, 0, 65, 91
1, 25257, Note_on_c, 0, 77, 107
1, 25306, Note_off_c, 0, 77, 107
1, 25309, Note_on_c, 0, 78, 105
1, 25350, Note_off_c, 0, 78, 105
1, 25355, Note_on_c, 0, 77, 96
1, 25432, Note_off_c, 0, 77, 96
1, 25437, Note_on_c, 0, 80, 115
1, 25493, Note_off_c, 0, 80, 115
1, 25543, Note_on_c, 0, 79, 114
1, 25617, Note_off_c, 0, 79, 114
1, 25625, Note_on_c, 0, 77, 125
1, 25717, Note_off_c, 0, 77, 125
1, 25740, Note_on_c, 0, 74, 110
1, 25822, Note_off_c, 0, 74, 110
1, 25823, Note_on_c, 0, 77, 117
1, 25894, Note_off_c, 0, 77, 117
1, 25954, Note_on_c, 0, 77, 120
1, 26028, Note_off_c, 0, 77, 120
1, 26122, Note_on_c, 0, 77, 110
1, 26322, Note_off_c, 0, 77, 110
1, 26333, Note_on_c, 0, 72, 125
1, 26394, Note_off_c, 0, 72, 125
1, 26422, Note_on_c, 0, 74, 100
1, 26508, Note_off_c, 0, 74, 100
1, 26513, Note_on_c, 0, 68, 115
1, 26584, Note_off_c, 0, 68, 115
1, 26589, Note_on_c, 0, 69, 97
1, 26751, Note_off_c, 0, 69, 97
1, 26792, Note_on_c, 0, 72, 117
1, 26893, Note_off_c, 0, 72, 117
1, 27081, Note_on_c, 0, 65, 109
1, 27131, Note_off_c, 0, 65, 109
1, 27139, Note_on_c, 0, 69, 107
1, 27222, Note_off_c, 0, 69, 107
1, 27254, Note_on_c, 0, 72, 122
1, 27329, Note_off_c, 0, 72, 122
1, 27336, Note_on_c, 0, 76, 107
1, 27446, Note_off_c, 0, 76, 107
1, 27456, Note_on_c, 0, 69, 108
1, 27523, Note_off_c, 0, 69, 108
1, 27583, Note_on_c, 0, 71, 109
1, 27649, Note_off_c, 0, 71, 109
1, 27726, Note_on_c, 0, 72, 94
1, 28087, Note_off_c, 0, 72, 94
1, 28296, Note_on_c, 0, 69, 106
1, 28669, Note_off_c, 0, 69, 106
1, 28693, Note_on_c, 0, 71, 118
1, 28757, Note_off_c, 0, 71, 118
1, 28806, Note_on_c, 0, 72, 127
1, 28872, Note_off_c, 0, 72, 127
1, 28931, Note_on_c, 0, 74, 116
1, 29009, Note_off_c, 0, 74, 116
1, 29057, Note_on_c, 0, 74, 113
1, 29164, Note_off_c, 0, 74, 113
1, 29196, Note_on_c, 0, 74, 112
1, 29448, Note_off_c, 0, 74, 112
1, 29633, Note_on_c, 0, 72, 125
1, 29705, Note_off_c, 0, 72, 125
1, 29766, Note_on_c, 0, 75, 110
1, 29849, Note_off_c, 0, 75, 110
1, 29858, Note_on_c, 0, 74, 114
1, 29933, Note_off_c, 0, 74, 114
1, 29948, Note_on_c, 0, 72, 123
1, 30009, Note_off_c, 0, 72, 123
1, 30015, Note_on_c, 0, 69, 116
1, 30042, Note_off_c, 0, 69, 116
1, 30054, Note_on_c, 0, 72, 101
1, 30249, Note_off_c, 0, 72, 101
1, 30395, Note_on_c, 0, 70, 114
1, 30460, Note_off_c, 0, 70, 114
1, 30515, Note_on_c, 0, 77, 118
1, 30598, Note_off_c, 0, 77, 118
1, 30613, Note_on_c, 0, 73, 113
1, 30705, Note_off_c, 0, 73, 113
1, 30710, Note_on_c, 0, 70, 110
1, 30769, Note_off_c, 0, 70, 110
1, 30783, Note_on_c, 0, 67, 112
1, 30888, Note_off_c, 0, 67, 112
1, 30900, Note_on_c, 0, 69, 111
1, 30963, Note_off_c, 0, 69, 111
1, 30973, Note_on_c, 0, 72, 120
1, 31069, Note_off_c, 0, 72, 120
1, 31079, Note_on_c, 0, 69, 112
1, 31135, Note_off_c, 0, 69, 112
1, 31153, Note_on_c, 0, 68, 110
1, 31220, Note_off_c, 0, 68, 110
1, 31312, Note_on_c, 0, 67, 105
1, 31385, Note_off_c, 0, 67, 105
1, 31461, Note_on_c, 0, 67, 107
1, 31723, Note_off_c, 0, 67, 107
1, 31754, Note_on_c, 0, 69, 111
1, 31864, Note_off_c, 0, 69, 111
1, 31868, Note_on_c, 0, 65, 115
1, 31911, Note_off_c, 0, 65, 115
1, 31921, Note_on_c, 0, 67, 111
1, 32027, Note_off_c, 0, 67, 111
1, 32073, Note_on_c, 0, 67, 115
1, 32174, Note_off_c, 0, 67, 115
1, 32239, Note_on_c, 0, 67, 101
1, 32492, Note_off_c, 0, 67, 101
1, 32829, Note_on_c, 0, 65, 112
1, 32897, Note_off_c, 0, 65, 112
1, 32910, Note_on_c, 0, 68, 107
1, 33008, Note_off_c, 0, 68, 107
1, 33022, Note_on_c, 0, 69, 117
1, 33093, Note_off_c, 0, 69, 117
1, 33103, Note_on_c, 0, 68, 109
1, 33183, Note_off_c, 0, 68, 109
1, 33189, Note_on_c, 0, 69, 110
1, 33252, Note_off_c, 0, 69, 110
1, 33262, Note_on_c, 0, 68, 113
1, 33289, Note_off_c, 0, 68, 113
1, 33296, Note_on_c, 0, 69, 112
1, 33334, Note_off_c, 0, 69, 112
1, 33337, Note_on_c, 0, 68, 113
1, 33364, Note_off_c, 0, 68, 113
1, 33369, Note_on_c, 0, 69, 112
1, 33428, Note_off_c, 0, 69, 112
1, 33452, Note_on_c, 0, 63, 101
1, 33494, Note_off_c, 0, 63, 101
1, 33501, Note_on_c, 0, 67, 112
1, 33571, Note_off_c, 0, 67, 112
1, 33605, Note_on_c, 0, 67, 96
1, 33662, Note_off_c, 0, 67, 96
1, 33703, Note_on_c, 0, 67, 92
1, 34038, Note_off_c, 0, 67, 92
1, 34322, Note_on_c, 0, 81, 111
1, 34414, Note_off_c, 0, 81, 111
1, 34418, Note_on_c, 0, 77, 116
1, 34496, Note_off_c, 0, 77, 116
1, 34514, Note_on_c, 0, 75, 120
1, 34596, Note_off_c, 0, 75, 120
1, 34601, Note_on_c, 0, 74, 113
1, 34787, Note_off_c, 0, 74, 113
1, 34811, Note_on_c, 0, 72, 121
1, 34884, Note_off_c, 0, 72, 121
1, 34915, Note_on_c, 0, 74, 117
1, 34991, Note_off_c, 0, 74, 117
1, 34993, Note_on_c, 0, 77, 109
1, 35207, Note_off_c, 0, 77, 109
1, 35207, Note_on_c, 0, 74, 122
1, 35292, Note_off_c, 0, 74, 122
1, 35326, Note_on_c, 0, 68, 111
1, 35399, Note_off_c, 0, 68, 111
1, 35407, Note_on_c, 0, 67, 106
1, 35495, Note_off_c, 0, 67, 106
1, 35506, Note_on_c, 0, 65, 110
1, 35577, Note_off_c, 0, 65, 110
1, 35585, Note_on_c, 0, 67, 100
1, 35722, Note_off_c, 0, 67, 100
1, 35771, Note_on_c, 0, 67, 111
1, 35844, Note_off_c, 0, 67, 111
1, 35871, Note_on_c, 0, 68, 108
1, 35909, Note_off_c, 0, 68, 108
1, 35938, Note_on_c, 0, 70, 117
1, 35978, Note_off_c, 0, 70, 117
1, 35979, Note_on_c, 0, 71, 121
1, 36005, Note_off_c, 0, 71, 121
1, 36012, Note_on_c, 0, 72, 116
1, 36060, Note_off_c, 0, 72, 116
1, 36072, Note_on_c, 0, 74, 115
1, 36112, Note_off_c, 0, 74, 115
1, 36118, Note_on_c, 0, 72, 111
1, 36313, Note_off_c, 0, 72, 111
1, 36373, Note_on_c, 0, 60, 107
1, 36441, Note_off_c, 0, 60, 107
1, 36455, Note_on_c, 0, 62, 98
1, 36524, Note_off_c, 0, 62, 98
1, 36556, Note_on_c, 0, 65, 101
1, 36950, Note_off_c, 0, 65, 101
1, 37366, Note_on_c, 0, 69, 92
1, 37732, Note_off_c, 0, 69, 92
1, 37752, Note_on_c, 0, 72, 97
1, 37811, Note_off_c, 0, 72, 97
1, 37811, End_track
0, 0, End_of_file
