0, 0, Header, 1, 1, 192
1, 0, Start_track
1, 0, Title_t, "Melody"
1, 0, Tempo, 451127
1, 0, Key_signature, -3, "major"
1, 0, Time_signature, 4, 2, 24, 8
1, 2397, Note_on_c, 0, 70, 104
1, 2569, Note_off_c, 0, 70, 104
1, 2605, Note_on_c, 0, 67, 103
1, 2674, Note_off_c, 0, 67, 103
1, 2688, Note_on_c, 0, 72, 117
1, 2743, Note_off_c, 0, 72, 117
1, 2787, Note_on_c, 0, 75, 114
1, 2862, Note_off_c, 0, 75, 114
1, 2885, Note_on_c, 0, 68, 106
1, 2959, Note_off_c, 0, 68, 106
1, 2984, Note_on_c, 0, 67, 106
1, 3050, Note_off_c, 0, 67, 106
1, 3058, Note_on_c, 0, 65, 97
1, 3333, Note_off_c, 0, 65, 97
1, 3442, Note_on_c, 0, 67, 112
1, 3524, Note_off_c, 0, 67, 112
1, 3554, Note_on_c, 0, 72, 111
1, 3605, Note_off_c, 0, 72, 111
1, 3640, Note_on_c, 0, 68, 108
1, 3726, Note_off_c, 0, 68, 108
1, 3748, Note_on_c, 0, 67, 102
1, 3826, Note_off_c, 0, 67, 102
1, 3832, Note_on_c, 0, 66, 86
1, 3974, Note_off_c, 0, 66, 86
1, 4133, Note_on_c, 0, 70, 116
1, 4201, Note_off_c, 0, 70, 116
1, 4225, Note_on_c, 0, 67, 102
1, 4283, Note_off_c, 0, 67, 102
1, 4321, Note_on_c, 0, 75, 113
1, 4384, Note_off_c, 0, 75, 113
1, 4407, Note_on_c, 0, 70, 108
1, 4496, Note_off_c, 0, 70, 108
1, 4505, Note_on_c, 0, 71, 106
1, 4578, Note_off_c, 0, 71, 106
1, 4584, Note_on_c, 0, 72, 113
1, 4654, Note_off_c, 0, 72, 113
1, 4783, Note_on_c, 0, 68, 103
1, 4855, Note_off_c, 0, 68, 103
1, 4886, Note_on_c, 0, 66, 95
1, 4950, Note_off_c, 0, 66, 95
1, 4976, Note_on_c, 0, 67, 82
1, 5279, Note_off_c, 0, 67, 82
1, 5516, Note_on_c, 0, 71, 127
1, 5554, Note_off_c, 0, 71, 127
1, 5557, Note_on_c, 0, 72, 124
1, 5600, Note_off_c, 0, 72, 124
1, 5665, Note_on_c, 0, 68, 114
1, 5727, Note_off_c, 0, 68, 114
1, 5746, Note_on_c, 0, 72, 113
1, 5858, Note_off_c, 0, 72, 113
1, 5929, Note_on_c, 0, 65, 89
1, 6214, Note_off_c, 0, 65, 89
1, 6240, Note_on_c, 0, 64, 109
1, 6305, Note_off_c, 0, 64, 109
1, 6319, Note_on_c, 0, 63, 103
1, 6391, Note_off_c, 0, 63, 103
1, 6423, Note_on_c, 0, 58, 86
1, 6489, Note_off_c, 0, 58, 86
1, 6492, Note_on_c, 0, 62, 85
1, 6667, Note_off_c, 0, 62, 85
1, 6683, Note_on_c, 0, 72, 119
1, 6778, Note_off_c, 0, 72, 119
1, 6794, Note_on_c, 0, 68, 110
1, 6860, Note_off_c, 0, 68, 110
1, 6872, Note_on_c, 0, 65, 103
1, 6958, Note_off_c, 0, 65, 103
1, 6978, Note_on_c, 0, 70, 119
1, 7061, Note_off_c, 0, 70, 119
1, 7081, Note_on_c, 0, 66, 103
1, 7167, Note_off_c, 0, 66, 103
1, 7264, Note_on_c, 0, 67, 83
1, 7468, Note_off_c, 0, 67, 83
1, 7543, Note_on_c, 0, 66, 93
1, 7612, Note_off_c, 0, 66, 93
1, 7620, Note_on_c, 0, 70, 104
1, 7682, Note_off_c, 0, 70, 104
1, 7721, Note_on_c, 0, 75, 110
1, 7790, Note_off_c, 0, 75, 110
1, 7818, Note_on_c, 0, 72, 108
1, 7894, Note_off_c, 0, 72, 108
1, 7911, Note_on_c, 0, 67, 104
1, 7980, Note_off_c, 0, 67, 104
1, 7990, Note_on_c, 0, 70, 88
1, 8191, Note_off_c, 0, 70, 88
1, 8465, Note_on_c, 0, 66, 108
1, 8558, Note_off_c, 0, 66, 108
1, 8651, Note_on_c, 0, 66, 92
1, 8720, Note_off_c, 0, 66, 92
1, 8725, Note_on_c, 0, 74, 107
1, 9036, Note_off_c, 0, 74, 107
1, 9075, Note_on_c, 0, 70, 105
1, 9304, Note_off_c, 0, 70, 105
1, 9310, Note_on_c, 0, 71, 101
1, 9409, Note_off_c, 0, 71, 101
1, 9440, Note_on_c, 0, 69, 96
1, 9717, Note_off_c, 0, 69, 96
1, 9821, Note_on_c, 0, 65, 101
1, 10105, Note_off_c, 0, 65, 101
1, 10120, Note_on_c, 0, 62, 90
1, 10342, Note_off_c, 0, 62, 90
1, 10661, Note_on_c, 0, 73, 117
1, 10739, Note_off_c, 0, 73, 117
1, 10742, Note_on_c, 0, 74, 121
1, 10811, Note_off_c, 0, 74, 121
1, 10845, Note_on_c, 0, 69, 115
1, 10914, Note_off_c, 0, 69, 115
1, 10920, Note_on_c, 0, 70, 117
1, 11008, Note_off_c, 0, 70, 117
1, 11018, Note_on_c, 0, 71, 113
1, 11085, Note_off_c, 0, 71, 113
1, 11092, Note_on_c, 0, 72, 124
1, 11176, Note_off_c, 0, 72, 124
1, 11199, Note_on_c, 0, 69, 117
1, 11265, Note_off_c, 0, 69, 117
1, 11289, Note_on_c, 0, 70, 99
1, 11427, Note_off_c, 0, 70, 99
1, 11471, Note_on_c, 0, 67, 106
1, 11546, Note_off_c, 0, 67, 106
1, 11565, Note_on_c, 0, 63, 102
1, 11644, Note_off_c, 0, 63, 102
1, 11652, Note_on_c, 0, 62, 91
1, 11946, Note_off_c, 0, 62, 91
1, 11955, Note_on_c, 0, 65, 94
1, 12227, Note_off_c, 0, 65, 94
1, 12400, Note_on_c, 0, 67, 105
1, 12499, Note_off_c, 0, 67, 105
1, 12588, Note_on_c, 0, 70, 118
1, 12688, Note_off_c, 0, 70, 118
1, 12714, Note_on_c, 0, 67, 100
1, 12778, Note_off_c, 0, 67, 100
1, 12788, Note_on_c, 0, 63, 82
1, 12965, Note_off_c, 0, 63, 82
1, 13251, Note_on_c, 0, 74, 111
1, 13302, Note_off_c, 0, 74, 111
1, 13306, Note_on_c, 0, 72, 111
1, 13345, Note_off_c, 0, 72, 111
1, 13348, Note_on_c, 0, 70, 112
1, 13395, Note_off_c, 0, 70, 112
1, 13398, Note_on_c, 0, 68, 102
1, 13424, Note_off_c, 0, 68, 102
1, 13428, Note_on_c, 0, 65, 107
1, 13476, Note_off_c, 0, 65, 107
1, 13481, Note_on_c, 0, 62, 95
1, 13522, Note_off_c, 0, 62, 95
1, 13523, Note_on_c, 0, 60, 87
1, 13596, Note_off_c, 0, 60, 87
1, 13605, Note_on_c, 0, 70, 112
1, 13670, Note_off_c, 0, 70, 112
1, 13707, Note_on_c, 0, 58, 83
1, 13794, Note_off_c, 0, 58, 83
1, 13806, Note_on_c, 0, 62, 89
1, 13865, Note_off_c, 0, 62, 89
1, 13887, Note_on_c, 0, 65, 100
1, 13983, Note_off_c, 0, 65, 100
1, 14080, Note_on_c, 0, 65, 97
1, 14187, Note_off_c, 0, 65, 97
1, 14276, Note_on_c, 0, 65, 90
1, 14446, Note_off_c, 0, 65, 90
1, 14802, Note_on_c, 0, 74, 111
1, 14848, Note_off_c, 0, 74, 111
1, 14849, Note_on_c, 0, 81, 105
1, 14883, Note_off_c, 0, 81, 105
1, 14975, Note_on_c, 0, 75, 123
1, 15021, Note_off_c, 0, 75, 123
1, 15050, Note_on_c, 0, 72, 122
1, 15102, Note_off_c, 0, 72, 122
1, 15174, Note_on_c, 0, 68, 113
1, 15233, Note_off_c, 0, 68, 113
1, 15240, Note_on_c, 0, 67, 115
1, 15291, Note_off_c, 0, 67, 115
1, 15370, Note_on_c, 0, 65, 108
1, 15431, Note_off_c, 0, 65, 108
1, 15437, Note_on_c, 0, 70, 119
1, 15501, Note_off_c, 0, 70, 119
1, 15644, Note_on_c, 0, 70, 96
1, 15801, Note_off_c, 0, 70, 96
1, 15833, Note_on_c, 0, 70, 101
1, 15993, Note_off_c, 0, 70, 101
1, 16024, Note_on_c, 0, 66, 102
1, 16112, Note_off_c, 0, 66, 102
1, 16139, Note_on_c, 0, 72, 113
1, 16208, Note_off_c, 0, 72, 113
1, 16413, Note_on_c, 0, 70, 116
1, 16496, Note_off_c, 0, 70, 116
1, 16529, Note_on_c, 0, 67, 100
1, 16589, Note_off_c, 0, 67, 100
1, 16600, Note_on_c, 0, 68, 111
1, 16665, Note_off_c, 0, 68, 111
1, 16725, Note_on_c, 0, 60, 101
1, 16795, Note_off_c, 0, 60, 101
1, 16807, Note_on_c, 0, 62, 93
1, 16889, Note_off_c, 0, 62, 93
1, 16912, Note_on_c, 0, 65, 108
1, 16974, Note_off_c, 0, 65, 108
1, 16994, Note_on_c, 0, 63, 84
1, 17188, Note_off_c, 0, 63, 84
1, 17497, Note_on_c, 0, 70, 117
1, 17569, Note_off_c, 0, 70, 117
1, 17575, Note_on_c, 0, 72, 120
1, 17628, Note_off_c, 0, 72, 120
1, 17632, Note_on_c, 0, 73, 110
1, 17688, Note_off_c, 0, 73, 110
1, 17692, Note_on_c, 0, 72, 120
1, 17764, Note_off_c, 0, 72, 120
1, 17770, Note_on_c, 0, 70, 104
1, 17947, Note_off_c, 0, 70, 104
1, 17978, Note_on_c, 0, 66, 103
1, 18024, Note_off_c, 0, 66, 103
1, 18031, Note_on_c, 0, 67, 110
1, 18080, Note_off_c, 0, 67, 110
1, 18084, Note_on_c, 0, 68, 115
1, 18123, Note_off_c, 0, 68, 115
1, 18125, Note_on_c, 0, 69, 114
1, 18161, Note_off_c, 0, 69, 114
1, 18163, Note_on_c, 0, 72, 107
1, 18448, Note_off_c, 0, 72, 107
1, 18456, Note_on_c, 0, 70, 114
1, 18512, Note_off_c, 0, 70, 114
1, 18536, Note_on_c, 0, 62, 92
1, 18836, Note_off_c, 0, 62, 92
1, 18849, Note_on_c, 0, 63, 94
1, 18915, Note_off_c, 0, 63, 94
1, 18921, Note_on_c, 0, 64, 91
1, 19180, Note_off_c, 0, 64, 91
1, 19296, Note_on_c, 0, 65, 106
1, 19384, Note_off_c, 0, 65, 106
1, 19397, Note_on_c, 0, 68, 110
1, 19463, Note_off_c, 0, 68, 110
1, 19477, Note_on_c, 0, 72, 112
1, 19548, Note_off_c, 0, 72, 112
1, 19577, Note_on_c, 0, 68, 108
1, 19653, Note_off_c, 0, 68, 108
1, 19676, Note_on_c, 0, 67, 104
1, 19762, Note_off_c, 0, 67, 104
1, 19765, Note_on_c, 0, 70, 114
1, 19834, Note_off_c, 0, 70, 114
1, 19846, Note_on_c, 0, 62, 95
1, 19959, Note_off_c, 0, 62, 95
1, 19966, Note_on_c, 0, 64, 110
1, 20027, Note_off_c, 0, 64, 110
1, 20039, Note_on_c, 0, 65, 94
1, 20231, Note_off_c, 0, 65, 94
1, 20376, Note_on_c, 0, 60, 86
1, 20424, Note_off_c, 0, 60, 86
1, 20425, Note_on_c, 0, 64, 108
1, 20528, Note_off_c, 0, 64, 108
1, 20553, Note_on_c, 0, 60, 88
1, 20590, Note_off_c, 0, 60, 88
1, 20606, Note_on_c, 0, 65, 106
1, 20724, Note_off_c, 0, 65, 106
1, 20808, Note_on_c, 0, 75, 98
1, 21087, Note_off_c, 0, 75, 98
1, 21213, Note_on_c, 0, 64, 112
1, 21315, Note_off_c, 0, 64, 112
1, 21328, Note_on_c, 0, 65, 100
1, 21512, Note_off_c, 0, 65, 100
1, 21591, Note_on_c, 0, 75, 123
1, 21666, Note_off_c, 0, 75, 123
1, 21692, Note_on_c, 0, 72, 120
1, 21758, Note_off_c, 0, 72, 120
1, 21774, Note_on_c, 0, 69, 118
1, 21851, Note_off_c, 0, 69, 118
1, 21881, Note_on_c, 0, 66, 109
1, 21959, Note_off_c, 0, 66, 109
1, 21969, Note_on_c, 0, 63, 107
1, 22033, Note_off_c, 0, 63, 107
1, 22070, Note_on_c, 0, 60, 102
1, 22140, Note_off_c, 0, 60, 102
1, 22165, Note_on_c, 0, 74, 120
1, 22253, Note_off_c, 0, 74, 120
1, 22262, Note_on_c, 0, 72, 116
1, 22338, Note_off_c, 0, 72, 116
1, 22347, Note_on_c, 0, 70, 98
1, 22539, Note_off_c, 0, 70, 98
1, 22728, Note_on_c, 0, 66, 108
1, 22782, Note_off_c, 0, 66, 108
1, 22787, Note_on_c, 0, 67, 117
1, 22848, Note_off_c, 0, 67, 117
1, 22853, Note_on_c, 0, 68, 112
1, 22910, Note_off_c, 0, 68, 112
1, 22913, Note_on_c, 0, 69, 113
1, 22977, Note_off_c, 0, 69, 113
1, 22979, Note_on_c, 0, 70, 120
1, 23028, Note_off_c, 0, 70, 120
1, 23032, Note_on_c, 0, 71, 108
1, 23082, Note_off_c, 0, 71, 108
1, 23084, Note_on_c, 0, 72, 96
1, 23336, Note_off_c, 0, 72, 96
1, 23579, Note_on_c, 0, 66, 103
1, 23656, Note_off_c, 0, 66, 103
1, 23657, Note_on_c, 0, 67, 110
1, 23697, Note_off_c, 0, 67, 110
1, 23704, Note_on_c, 0, 66, 95
1, 23741, Note_off_c, 0, 66, 95
1, 23774, Note_on_c, 0, 66, 102
1, 23837, Note_off_c, 0, 66, 102
1, 23842, Note_on_c, 0, 65, 102
1, 23957, Note_off_c, 0, 65, 102
1, 23973, Note_on_c, 0, 63, 87
1, 24150, Note_off_c, 0, 63, 87
1, 24252, Note_on_c, 0, 66, 105
1, 24341, Note_off_c, 0, 66, 105
1, 24347, Note_on_c, 0, 67, 115
1, 24426, Note_off_c, 0, 67, 115
1, 24434, Note_on_c, 0, 68, 118
1, 24501, Note_off_c, 0, 68, 118
1, 24507, Note_on_c, 0, 69, 116
1, 24555, Note_off_c, 0, 69, 116
1, 24566, Note_on_c, 0, 70, 105
1, 24793, Note_off_c, 0, 70, 105
1, 24819, Note_on_c, 0, 66, 105
1, 24922, Note_off_c, 0, 66, 105
1, 24930, Note_on_c, 0, 67, 92
1, 25209, Note_off_c, 0, 67, 92
1, 25239, Note_on_c, 0, 60, 90
1, 25276, Note_off_c, 0, 60, 90
1, 25288, Note_on_c, 0, 65, 95
1, 25527, Note_off_c, 0, 65, 95
1, 25541, Note_on_c, 0, 63, 10
1, 26334, Note_off_c, 0, 63, 10
1, 26334, End_track
0, 0, End_of_file
