0, 0, Header, 1, 1, 192
1, 0, Start_track
1, 0, Title_t, "Melody"
1, 0, Tempo, 342857
1, 0, Key_signature, -2, "major"
1, 0, Time_signature, 4, 2, 24, 8
1, 1762, Note_on_c, 0, 58, 107
1, 1822, Note_off_c, 0, 58, 107
1, 1830, Note_on_c, 0, 62, 103
1, 1871, Note_off_c, 0, 62, 103
1, 1892, Note_on_c, 0, 65, 117
1, 1959, Note_off_c, 0, 65, 117
1, 1965, Note_on_c, 0, 67, 111
1, 2032, Note_off_c, 0, 67, 111
1, 2036, Note_on_c, 0, 70, 117
1, 2149, Note_off_c, 0, 70, 117
1, 2169, Note_on_c, 0, 74, 120
1, 2224, Note_off_c, 0, 74, 120
1, 2246, Note_on_c, 0, 72, 125
1, 2336, Note_off_c, 0, 72, 125
1, 2370, Note_on_c, 0, 74, 113
1, 2421, Note_off_c, 0, 74, 113
1, 2433, Note_on_c, 0, 72, 124
1, 2486, Note_off_c, 0, 72, 124
1, 2496, Note_on_c, 0, 74, 114
1, 2526, Note_off_c, 0, 74, 114
1, 2547, Note_on_c, 0, 72, 121
1, 2599, Note_off_c, 0, 72, 121
1, 2610, Note_on_c, 0, 70, 120
1, 2659, Note_off_c, 0, 70, 120
1, 2677, Note_on_c, 0, 68, 110
1, 2722, Note_off_c, 0, 68, 110
1, 2727, Note_on_c, 0, 67, 107
1, 2754, Note_off_c, 0, 67, 107
1, 2779, Note_on_c, 0, 65, 116
1, 2839, Note_off_c, 0, 65, 116
1, 2871, Note_on_c, 0, 63, 108
1, 2913, Note_off_c, 0, 63, 108
1, 2924, Note_on_c, 0, 65, 119
1, 2988, Note_off_c, 0, 65, 119
1, 3009, Note_on_c, 0, 63, 104
1, 3058, Note_off_c, 0, 63, 104
1, 3069, Note_on_c, 0, 65, 119
1, 3107, Note_off_c, 0, 65, 119
1, 3117, Note_on_c, 0, 63, 107
1, 3175, Note_off_c, 0, 63, 107
1, 3202, Note_on_c, 0, 62, 97
1, 3279, Note_off_c, 0, 62, 97
1, 3390, Note_on_c, 0, 58, 107
1, 3475, Note_off_c, 0, 58, 107
1, 3493, Note_on_c, 0, 62, 99
1, 3538, Note_off_c, 0, 62, 99
1, 3561, Note_on_c, 0, 65, 121
1, 3626, Note_off_c, 0, 65, 121
1, 3687, Note_on_c, 0, 74, 118
1, 3754, Note_off_c, 0, 74, 118
1, 3765, Note_on_c, 0, 72, 119
1, 3858, Note_off_c, 0, 72, 119
1, 3896, Note_on_c, 0, 68, 106
1, 3953, Note_off_c, 0, 68, 106
1, 3964, Note_on_c, 0, 67, 105
1, 4036, Note_off_c, 0, 67, 105
1, 4041, Note_on_c, 0, 70, 111
1, 4132, Note_off_c, 0, 70, 111
1, 4259, Note_on_c, 0, 62, 104
1, 4318, Note_off_c, 0, 62, 104
1, 4320, Note_on_c, 0, 65, 115
1, 4409, Note_off_c, 0, 65, 115
1, 4438, Note_on_c, 0, 70, 117
1, 4507, Note_off_c, 0, 70, 117
1, 4524, Note_on_c, 0, 68, 109
1, 4598, Note_off_c, 0, 68, 109
1, 4646, Note_on_c, 0, 63, 84
1, 4696, Note_on_c, 0, 67, 115
1, 4696, Note_off_c, 0, 63, 84
1, 4780, Note_off_c, 0, 67, 115
1, 4792, Note_on_c, 0, 63, 95
1, 4859, Note_off_c, 0, 63, 95
1, 4892, Note_on_c, 0, 65, 121
1, 4983, Note_off_c, 0, 65, 121
1, 5043, Note_on_c, 0, 63, 91
1, 5090, Note_off_c, 0, 63, 91
1, 5093, Note_on_c, 0, 65, 120
1, 5189, Note_off_c, 0, 65, 120
1, 5209, Note_on_c, 0, 63, 98
1, 5346, Note_off_c, 0, 63, 98
1, 5600, Note_on_c, 0, 78, 125
1, 5689, Note_off_c, 0, 78, 125
1, 5699, Note_on_c, 0, 77, 125
1, 5769, Note_off_c, 0, 77, 125
1, 5797, Note_on_c, 0, 75, 119
1, 5856, Note_off_c, 0, 75, 119
1, 5890, Note_on_c, 0, 72, 118
1, 5964, Note_off_c, 0, 72, 118
1, 6077, Note_on_c, 0, 70, 115
1, 6169, Note_off_c, 0, 70, 115
1, 6271, Note_on_c, 0, 70, 107
1, 6451, Note_off_c, 0, 70, 107
1, 6630, Note_on_c, 0, 65, 112
1, 6731, Note_off_c, 0, 65, 112
1, 6758, Note_on_c, 0, 74, 119
1, 6824, Note_off_c, 0, 74, 119
1, 6837, Note_on_c, 0, 75, 122
1, 6951, Note_off_c, 0, 75, 122
1, 6966, Note_on_c, 0, 74, 118
1, 7027, Note_off_c, 0, 74, 118
1, 7057, Note_on_c, 0, 67, 92
1, 7354, Note_off_c, 0, 67, 92
1, 7566, Note_on_c, 0, 74, 111
1, 8083, Note_off_c, 0, 74, 111
1, 8121, Note_on_c, 0, 71, 119
1, 8205, Note_off_c, 0, 71, 119
1, 8248, Note_on_c, 0, 72, 120
1, 8353, Note_off_c, 0, 72, 120
1, 8361, Note_on_c, 0, 73, 122
1, 8426, Note_off_c, 0, 73, 122
1, 8440, Note_on_c, 0, 74, 104
1, 8493, Note_off_c, 0, 74, 104
1, 8515, Note_on_c, 0, 70, 117
1, 8629, Note_off_c, 0, 70, 117
1, 8641, Note_on_c, 0, 70, 112
1, 8669, Note_off_c, 0, 70, 112
1, 8683, Note_on_c, 0, 72, 127
1, 8717, Note_off_c, 0, 72, 127
1, 8738, Note_on_c, 0, 70, 113
1, 8800, Note_off_c, 0, 70, 113
1, 8833, Note_on_c, 0, 73, 115
1, 8924, Note_off_c, 0, 73, 115
1, 8946, Note_on_c, 0, 72, 122
1, 9021, Note_off_c, 0, 72, 122
1, 9054, Note_on_c, 0, 70, 115
1, 9132, Note_off_c, 0, 70, 115
1, 9156, Note_on_c, 0, 67, 113
1, 9207, Note_off_c, 0, 67, 113
1, 9222, Note_on_c, 0, 70, 115
1, 9281, Note_off_c, 0, 70, 115
1, 9289, Note_on_c, 0, 67, 109
1, 9320, Note_off_c, 0, 67, 109
1, 9345, Note_on_c, 0, 70, 104
1, 9633, Note_off_c, 0, 70, 104
1, 9646, Note_on_c, 0, 65, 113
1, 9738, Note_off_c, 0, 65, 113
1, 9742, Note_on_c, 0, 68, 109
1, 9906, Note_off_c, 0, 68, 109
1, 9911, Note_on_c, 0, 60, 107
1, 10005, Note_off_c, 0, 60, 107
1, 10021, Note_on_c, 0, 63, 102
1, 10102, Note_off_c, 0, 63, 102
1, 10111, Note_on_c, 0, 62, 101
1, 10298, Note_off_c, 0, 62, 101
1, 10298, End_track
0, 0, End_of_file
