0, 0, Header, 1, 1, 360
1, 0, Start_track
1, 0, Title_t, "Melody"
1, 0, Tempo, 526315
1, 0, Key_signature, -2, "major"
1, 0, Time_signature, 4, 2, 24, 8
1, 3674, Note_on_c, 0, 70, 100
1, 3729, Note_off_c, 0, 70, 100
1, 3729, Note_on_c, 0, 68, 113
1, 3801, Note_off_c, 0, 68, 113
1, 3837, Note_on_c, 0, 65, 115
1, 3915, Note_off_c, 0, 65, 115
1, 3918, Note_on_c, 0, 62, 117
1, 4009, Note_off_c, 0, 62, 117
1, 4019, Note_on_c, 0, 58, 97
1, 4085, Note_off_c, 0, 58, 97
1, 4092, Note_on_c, 0, 63, 121
1, 4187, Note_off_c, 0, 63, 121
1, 4190, Note_on_c, 0, 65, 111
1, 4273, Note_off_c, 0, 65, 111
1, 4278, Note_on_c, 0, 61, 111
1, 4341, Note_off_c, 0, 61, 111
1, 4345, Note_on_c, 0, 62, 115
1, 4460, Note_off_c, 0, 62, 115
1, 4473, Note_on_c, 0, 60, 110
1, 4828, Note_off_c, 0, 60, 110
1, 4832, Note_on_c, 0, 60, 113
1, 5161, Note_off_c, 0, 60, 113
1, 5190, Note_on_c, 0, 60, 110
1, 5346, Note_off_c, 0, 60, 110
1, 5352, Note_on_c, 0, 60, 107
1, 5474, Note_off_c, 0, 60, 107
1, 5575, Note_on_c, 0, 60, 111
1, 5717, Note_off_c, 0, 60, 111
1, 5731, Note_on_c, 0, 56, 92
1, 5806, Note_off_c, 0, 56, 92
1, 5854, Note_on_c, 0, 53, 95
1, 6084, Note_off_c, 0, 53, 95
1, 7142, Note_on_c, 0, 61, 100
1, 7187, Note_off_c, 0, 61, 100
1, 7190, Note_on_c, 0, 62, 104
1, 7368, Note_off_c, 0, 62, 104
1, 7383, Note_on_c, 0, 62, 112
1, 7539, Note_off_c, 0, 62, 112
1, 7561, Note_on_c, 0, 62, 116
1, 7705, Note_off_c, 0, 62, 116
1, 7731, Note_on_c, 0, 62, 110
1, 7985, Note_off_c, 0, 62, 110
1, 8014, Note_on_c, 0, 63, 113
1, 8107, Note_off_c, 0, 63, 113
1, 8107, Note_on_c, 0, 65, 108
1, 8222, Note_off_c, 0, 65, 108
1, 8229, Note_on_c, 0, 74, 93
1, 8352, Note_off_c, 0, 74, 93
1, 8363, Note_on_c, 0, 70, 105
1, 8682, Note_off_c, 0, 70, 105
1, 8693, Note_on_c, 0, 65, 102
1, 8754, Note_off_c, 0, 65, 102
1, 8765, Note_on_c, 0, 72, 102
1, 8878, Note_off_c, 0, 72, 102
1, 8895, Note_on_c, 0, 68, 110
1, 8996, Note_off_c, 0, 68, 110
1, 9158, Note_on_c, 0, 70, 105
1, 9259, Note_off_c, 0, 70, 105
1, 9316, Note_on_c, 0, 68, 104
1, 9415, Note_off_c, 0, 68, 104
1, 9444, Note_on_c, 0, 69, 101
1, 9477, Note_off_c, 0, 69, 101
1, 9514, Note_on_c, 0, 65, 101
1, 9724, Note_off_c, 0, 65, 101
1, 9785, Note_on_c, 0, 70, 104
1, 9852, Note_off_c, 0, 70, 104
1, 9865, Note_on_c, 0, 68, 103
1, 9957, Note_off_c, 0, 68, 103
1, 9964, Note_on_c, 0, 65, 106
1, 10030, Note_off_c, 0, 65, 106
1, 10034, Note_on_c, 0, 61, 114
1, 10133, Note_off_c, 0, 61, 114
1, 10146, Note_on_c, 0, 58, 92
1, 10201, Note_off_c, 0, 58, 92
1, 10203, Note_on_c, 0, 63, 120
1, 10295, Note_off_c, 0, 63, 120
1, 10302, Note_on_c, 0, 61, 114
1, 10363, Note_off_c, 0, 61, 114
1, 10363, Note_on_c, 0, 56, 104
1, 10470, Note_off_c, 0, 56, 104
1, 10549, Note_on_c, 0, 58, 101
1, 10648, Note_off_c, 0, 58, 101
1, 10652, Note_on_c, 0, 53, 107
1, 10716, Note_off_c, 0, 53, 107
1, 10727, Note_on_c, 0, 49, 105
1, 10792, Note_off_c, 0, 49, 105
1, 10816, Note_on_c, 0, 53, 104
1, 10907, Note_off_c, 0, 53, 104
1, 10912, Note_on_c, 0, 51, 106
1, 10989, Note_off_c, 0, 51, 106
1, 11018, Note_on_c, 0, 53, 97
1, 11071, Note_off_c, 0, 53, 97
1, 11076, Note_on_c, 0, 55, 93
1, 11278, Note_off_c, 0, 55, 93
1, 12132, Note_on_c, 0, 65, 100
1, 12192, Note_off_c, 0, 65, 100
1, 12192, Note_on_c, 0, 67, 103
1, 12305, Note_off_c, 0, 67, 103
1, 12305, Note_on_c, 0, 63, 111
1, 12362, Note_off_c, 0, 63, 111
1, 12367, Note_on_c, 0, 65, 114
1, 12458, Note_off_c, 0, 65, 114
1, 12459, Note_on_c, 0, 63, 120
1, 12530, Note_off_c, 0, 63, 120
1, 12531, Note_on_c, 0, 58, 90
1, 12592, Note_off_c, 0, 58, 90
1, 12633, Note_on_c, 0, 55, 94
1, 12708, Note_off_c, 0, 55, 94
1, 12715, Note_on_c, 0, 63, 122
1, 12804, Note_off_c, 0, 63, 122
1, 12817, Note_on_c, 0, 62, 113
1, 12912, Note_off_c, 0, 62, 113
1, 12913, Note_on_c, 0, 58, 101
1, 12986, Note_off_c, 0, 58, 101
1, 13007, Note_on_c, 0, 53, 99
1, 13062, Note_off_c, 0, 53, 99
1, 13062, Note_on_c, 0, 56, 104
1, 13161, Note_off_c, 0, 56, 104
1, 13161, Note_on_c, 0, 53, 108
1, 13216, Note_off_c, 0, 53, 108
1, 13227, Note_on_c, 0, 48, 102
1, 13334, Note_off_c, 0, 48, 102
1, 13347, Note_on_c, 0, 51, 106
1, 13416, Note_off_c, 0, 51, 106
1, 13435, Note_on_c, 0, 50, 99
1, 13520, Note_off_c, 0, 50, 99
1, 13533, Note_on_c, 0, 53, 100
1, 13602, Note_off_c, 0, 53, 100
1, 13625, Note_on_c, 0, 58, 96
1, 13702, Note_off_c, 0, 58, 96
1, 13711, Note_on_c, 0, 60, 115
1, 13782, Note_off_c, 0, 60, 115
1, 13787, Note_on_c, 0, 62, 115
1, 13872, Note_off_c, 0, 62, 115
1, 13881, Note_on_c, 0, 65, 104
1, 13954, Note_off_c, 0, 65, 104
1, 13963, Note_on_c, 0, 70, 106
1, 14052, Note_off_c, 0, 70, 106
1, 14055, Note_on_c, 0, 72, 104
1, 14118, Note_off_c, 0, 72, 104
1, 14145, Note_on_c, 0, 74, 99
1, 14242, Note_off_c, 0, 74, 99
1, 14242, Note_on_c, 0, 70, 103
1, 14351, Note_off_c, 0, 70, 103
1, 15372, Note_on_c, 0, 68, 118
1, 15512, Note_off_c, 0, 68, 118
1, 15556, Note_on_c, 0, 68, 117
1, 15756, Note_off_c, 0, 68, 117
1, 15756, Note_on_c, 0, 73, 97
1, 15819, Note_off_c, 0, 73, 97
1, 16601, Note_on_c, 0, 73, 111
1, 16734, Note_off_c, 0, 73, 111
1, 16739, Note_on_c, 0, 72, 112
1, 17110, Note_off_c, 0, 72, 112
1, 17147, Note_on_c, 0, 68, 102
1, 17232, Note_off_c, 0, 68, 102
1, 17291, Note_on_c, 0, 63, 99
1, 17600, Note_off_c, 0, 63, 99
1, 18046, Note_on_c, 0, 75, 96
1, 18147, Note_off_c, 0, 75, 96
1, 18152, Note_on_c, 0, 74, 109
1, 18582, Note_off_c, 0, 74, 109
1, 18585, Note_on_c, 0, 70, 96
1, 18652, Note_off_c, 0, 70, 96
1, 18683, Note_on_c, 0, 65, 100
1, 19074, Note_off_c, 0, 65, 100
1, 19081, Note_on_c, 0, 68, 112
1, 19221, Note_on_c, 0, 67, 110
1, 19221, Note_off_c, 0, 68, 112
1, 19405, Note_off_c, 0, 67, 110
1, 19420, Note_on_c, 0, 63, 118
1, 19525, Note_off_c, 0, 63, 118
1, 19528, Note_on_c, 0, 60, 113
1, 19744, Note_off_c, 0, 60, 113
1, 19751, Note_on_c, 0, 67, 108
1, 19842, Note_off_c, 0, 67, 108
1, 19847, Note_on_c, 0, 65, 107
1, 20003, Note_off_c, 0, 65, 107
1, 20012, Note_on_c, 0, 62, 109
1, 20103, Note_off_c, 0, 62, 109
1, 20106, Note_on_c, 0, 58, 90
1, 20401, Note_off_c, 0, 58, 90
1, 20653, Note_on_c, 0, 53, 97
1, 20726, Note_off_c, 0, 53, 97
1, 20729, Note_on_c, 0, 56, 100
1, 20792, Note_on_c, 0, 58, 104
1, 20792, Note_off_c, 0, 56, 100
1, 20847, Note_off_c, 0, 58, 104
1, 20848, Note_on_c, 0, 60, 111
1, 20965, Note_off_c, 0, 60, 111
1, 20965, Note_on_c, 0, 63, 119
1, 21064, Note_off_c, 0, 63, 119
1, 21064, Note_on_c, 0, 62, 112
1, 21159, Note_off_c, 0, 62, 112
1, 21174, Note_on_c, 0, 65, 97
1, 21221, Note_off_c, 0, 65, 97
1, 21226, Note_on_c, 0, 70, 106
1, 21319, Note_off_c, 0, 70, 106
1, 21338, Note_on_c, 0, 72, 105
1, 21410, Note_off_c, 0, 72, 105
1, 21411, Note_on_c, 0, 74, 102
1, 21512, Note_off_c, 0, 74, 102
1, 21608, Note_on_c, 0, 74, 103
1, 21699, Note_off_c, 0, 74, 103
1, 21717, Note_on_c, 0, 70, 106
1, 21873, Note_off_c, 0, 70, 106
1, 21934, Note_on_c, 0, 72, 107
1, 22070, Note_off_c, 0, 72, 107
1, 22116, Note_on_c, 0, 72, 106
1, 22231, Note_off_c, 0, 72, 106
1, 22244, Note_on_c, 0, 68, 115
1, 22395, Note_off_c, 0, 68, 115
1, 23017, Note_on_c, 0, 70, 114
1, 23101, Note_off_c, 0, 70, 114
1, 23115, Note_on_c, 0, 70, 119
1, 23188, Note_off_c, 0, 70, 119
1, 23189, Note_on_c, 0, 72, 112
1, 23276, Note_off_c, 0, 72, 112
1, 23283, Note_on_c, 0, 70, 107
1, 23368, Note_off_c, 0, 70, 107
1, 23380, Note_on_c, 0, 71, 106
1, 23461, Note_off_c, 0, 71, 106
1, 23464, Note_on_c, 0, 70, 109
1, 23533, Note_off_c, 0, 70, 109
1, 23534, Note_on_c, 0, 69, 110
1, 23617, Note_off_c, 0, 69, 110
1, 23618, Note_on_c, 0, 70, 107
1, 23709, Note_off_c, 0, 70, 107
1, 23730, Note_on_c, 0, 68, 112
1, 23809, Note_off_c, 0, 68, 112
1, 23812, Note_on_c, 0, 67, 111
1, 23883, Note_off_c, 0, 67, 111
1, 23884, Note_on_c, 0, 66, 104
1, 23981, Note_off_c, 0, 66, 104
1, 23986, Note_on_c, 0, 67, 115
1, 24101, Note_off_c, 0, 67, 115
1, 24101, Note_on_c, 0, 66, 109
1, 24134, Note_off_c, 0, 66, 109
1, 24141, Note_on_c, 0, 67, 108
1, 24190, Note_off_c, 0, 67, 108
1, 24195, Note_on_c, 0, 66, 108
1, 24248, Note_off_c, 0, 66, 108
1, 24257, Note_on_c, 0, 65, 113
1, 24328, Note_off_c, 0, 65, 113
1, 24359, Note_on_c, 0, 64, 123
1, 24450, Note_off_c, 0, 64, 123
1, 24450, Note_on_c, 0, 63, 118
1, 24537, Note_off_c, 0, 63, 118
1, 24546, Note_on_c, 0, 65, 94
1, 24613, Note_off_c, 0, 65, 94
1, 24622, Note_on_c, 0, 66, 106
1, 24705, Note_off_c, 0, 66, 106
1, 24744, Note_on_c, 0, 64, 106
1, 24790, Note_off_c, 0, 64, 106
1, 24797, Note_on_c, 0, 65, 112
1, 24866, Note_off_c, 0, 65, 112
1, 24871, Note_on_c, 0, 64, 121
1, 24978, Note_off_c, 0, 64, 121
1, 24988, Note_on_c, 0, 63, 120
1, 25071, Note_off_c, 0, 63, 120
1, 25084, Note_on_c, 0, 67, 111
1, 25158, Note_off_c, 0, 67, 111
1, 25176, Note_on_c, 0, 65, 114
1, 25247, Note_off_c, 0, 65, 114
1, 25258, Note_on_c, 0, 62, 115
1, 25335, Note_off_c, 0, 62, 115
1, 25338, Note_on_c, 0, 58, 91
1, 25417, Note_off_c, 0, 58, 91
1, 25422, Note_on_c, 0, 56, 94
1, 25503, Note_off_c, 0, 56, 94
1, 25504, Note_on_c, 0, 63, 119
1, 25603, Note_off_c, 0, 63, 119
1, 25603, Note_on_c, 0, 65, 108
1, 25674, Note_off_c, 0, 65, 108
1, 25674, Note_on_c, 0, 62, 113
1, 25771, Note_off_c, 0, 62, 113
1, 25784, Note_on_c, 0, 53, 103
1, 25859, Note_off_c, 0, 53, 103
1, 25860, Note_on_c, 0, 60, 116
1, 25951, Note_off_c, 0, 60, 116
1, 25972, Note_on_c, 0, 56, 105
1, 26051, Note_off_c, 0, 56, 105
1, 26052, Note_on_c, 0, 53, 107
1, 26117, Note_off_c, 0, 53, 107
1, 26196, Note_on_c, 0, 51, 104
1, 26269, Note_off_c, 0, 51, 104
1, 26294, Note_on_c, 0, 48, 97
1, 26361, Note_off_c, 0, 48, 97
1, 26362, Note_on_c, 0, 50, 98
1, 26465, Note_off_c, 0, 50, 98
1, 26486, Note_on_c, 0, 58, 99
1, 26748, Note_off_c, 0, 58, 99
1, 26839, Note_on_c, 0, 58, 101
1, 26918, Note_off_c, 0, 58, 101
1, 26918, Note_on_c, 0, 61, 116
1, 27051, Note_off_c, 0, 61, 116
1, 27384, Note_on_c, 0, 57, 99
1, 27416, Note_off_c, 0, 57, 99
1, 27422, Note_on_c, 0, 59, 106
1, 27480, Note_off_c, 0, 59, 106
1, 27482, Note_on_c, 0, 61, 112
1, 27535, Note_off_c, 0, 61, 112
1, 27535, Note_on_c, 0, 63, 118
1, 27648, Note_off_c, 0, 63, 118
1, 27651, Note_on_c, 0, 65, 112
1, 27730, Note_off_c, 0, 65, 112
1, 27733, Note_on_c, 0, 63, 116
1, 27818, Note_off_c, 0, 63, 116
1, 27820, Note_on_c, 0, 61, 113
1, 27905, Note_off_c, 0, 61, 113
1, 27916, Note_on_c, 0, 58, 94
1, 27973, Note_off_c, 0, 58, 94
1, 27980, Note_on_c, 0, 63, 120
1, 28095, Note_off_c, 0, 63, 120
1, 28104, Note_on_c, 0, 61, 112
1, 28181, Note_off_c, 0, 61, 112
1, 28181, Note_on_c, 0, 58, 99
1, 28264, Note_off_c, 0, 58, 99
1, 28265, Note_on_c, 0, 56, 96
1, 28328, Note_off_c, 0, 56, 96
1, 28343, Note_on_c, 0, 63, 122
1, 28456, Note_off_c, 0, 63, 122
1, 28463, Note_on_c, 0, 65, 110
1, 28558, Note_off_c, 0, 65, 110
1, 28607, Note_on_c, 0, 70, 106
1, 28700, Note_off_c, 0, 70, 106
1, 28716, Note_on_c, 0, 75, 112
1, 28802, Note_off_c, 0, 75, 112
1, 28819, Note_on_c, 0, 70, 110
1, 28850, Note_off_c, 0, 70, 110
1, 28870, Note_on_c, 0, 67, 109
1, 28921, Note_off_c, 0, 67, 109
1, 28928, Note_on_c, 0, 66, 107
1, 28977, Note_off_c, 0, 66, 107
1, 28977, Note_on_c, 0, 63, 104
1, 29024, Note_off_c, 0, 63, 104
1, 29041, Note_on_c, 0, 68, 109
1, 29136, Note_off_c, 0, 68, 109
1, 29143, Note_on_c, 0, 70, 102
1, 29218, Note_off_c, 0, 70, 102
1, 29231, Note_on_c, 0, 66, 109
1, 29300, Note_off_c, 0, 66, 109
1, 29307, Note_on_c, 0, 67, 107
1, 29398, Note_off_c, 0, 67, 107
1, 29402, Note_on_c, 0, 63, 119
1, 29573, Note_off_c, 0, 63, 119
1, 30577, Note_on_c, 0, 70, 112
1, 30654, Note_off_c, 0, 70, 112
1, 30659, Note_on_c, 0, 68, 116
1, 30756, Note_off_c, 0, 68, 116
1, 30759, Note_on_c, 0, 67, 114
1, 30844, Note_off_c, 0, 67, 114
1, 30849, Note_on_c, 0, 65, 112
1, 30938, Note_off_c, 0, 65, 112
1, 30955, Note_on_c, 0, 67, 97
1, 31014, Note_off_c, 0, 67, 97
1, 31017, Note_on_c, 0, 68, 113
1, 31114, Note_off_c, 0, 68, 113
1, 31125, Note_on_c, 0, 70, 109
1, 31192, Note_off_c, 0, 70, 109
1, 31199, Note_on_c, 0, 67, 111
1, 31290, Note_on_c, 0, 70, 108
1, 31290, Note_off_c, 0, 67, 111
1, 31381, Note_off_c, 0, 70, 108
1, 31381, Note_on_c, 0, 68, 115
1, 31468, Note_off_c, 0, 68, 115
1, 31533, Note_on_c, 0, 67, 111
1, 31634, Note_off_c, 0, 67, 111
1, 31637, Note_on_c, 0, 66, 107
1, 31712, Note_off_c, 0, 66, 107
1, 31727, Note_on_c, 0, 65, 112
1, 31806, Note_off_c, 0, 65, 112
1, 31807, Note_on_c, 0, 64, 120
1, 31900, Note_off_c, 0, 64, 120
1, 31901, Note_on_c, 0, 63, 119
1, 31990, Note_off_c, 0, 63, 119
1, 31990, Note_on_c, 0, 62, 105
1, 32065, Note_off_c, 0, 62, 105
1, 32076, Note_on_c, 0, 56, 114
1, 32153, Note_off_c, 0, 56, 114
1, 32153, Note_on_c, 0, 53, 108
1, 32236, Note_off_c, 0, 53, 108
1, 32237, Note_on_c, 0, 58, 104
1, 32304, Note_off_c, 0, 58, 104
1, 32311, Note_on_c, 0, 60, 110
1, 32386, Note_off_c, 0, 60, 110
1, 32386, Note_on_c, 0, 62, 115
1, 32477, Note_off_c, 0, 62, 115
1, 32482, Note_on_c, 0, 65, 109
1, 32585, Note_off_c, 0, 65, 109
1, 32585, Note_on_c, 0, 61, 111
1, 32769, Note_off_c, 0, 61, 111
1, 33064, Note_on_c, 0, 65, 112
1, 33109, Note_off_c, 0, 65, 112
1, 33110, Note_on_c, 0, 66, 107
1, 33173, Note_off_c, 0, 66, 107
1, 33173, Note_on_c, 0, 68, 109
1, 33252, Note_off_c, 0, 68, 109
1, 33252, Note_on_c, 0, 70, 107
1, 33341, Note_off_c, 0, 70, 107
1, 33376, Note_on_c, 0, 73, 102
1, 33501, Note_off_c, 0, 73, 102
1, 33538, Note_on_c, 0, 70, 107
1, 33607, Note_off_c, 0, 70, 107
1, 33608, Note_on_c, 0, 68, 112
1, 33701, Note_off_c, 0, 68, 112
1, 33718, Note_on_c, 0, 66, 109
1, 33805, Note_off_c, 0, 66, 109
1, 33818, Note_on_c, 0, 68, 94
1, 33875, Note_off_c, 0, 68, 94
1, 33883, Note_on_c, 0, 70, 107
1, 33956, Note_off_c, 0, 70, 107
1, 33965, Note_on_c, 0, 71, 99
1, 34001, Note_off_c, 0, 71, 99
1, 34005, Note_on_c, 0, 73, 104
1, 34038, Note_off_c, 0, 73, 104
1, 34133, Note_on_c, 0, 75, 98
1, 34208, Note_off_c, 0, 75, 98
1, 34229, Note_on_c, 0, 72, 105
1, 34314, Note_off_c, 0, 72, 105
1, 34329, Note_on_c, 0, 70, 107
1, 34416, Note_off_c, 0, 70, 107
1, 34419, Note_on_c, 0, 68, 113
1, 34510, Note_off_c, 0, 68, 113
1, 34513, Note_on_c, 0, 70, 91
1, 34602, Note_off_c, 0, 70, 91
1, 34607, Note_on_c, 0, 72, 107
1, 34692, Note_off_c, 0, 72, 107
1, 34692, Note_on_c, 0, 68, 90
1, 34751, Note_off_c, 0, 68, 90
1, 34751, Note_on_c, 0, 70, 104
1, 34836, Note_off_c, 0, 70, 104
1, 34849, Note_on_c, 0, 68, 113
1, 34964, Note_off_c, 0, 68, 113
1, 34971, Note_on_c, 0, 65, 111
1, 35056, Note_off_c, 0, 65, 111
1, 35071, Note_on_c, 0, 61, 97
1, 35124, Note_off_c, 0, 61, 97
1, 35137, Note_on_c, 0, 68, 110
1, 35234, Note_off_c, 0, 68, 110
1, 35234, Note_on_c, 0, 65, 111
1, 35303, Note_off_c, 0, 65, 111
1, 35322, Note_on_c, 0, 61, 114
1, 35460, Note_off_c, 0, 61, 114
1, 35495, Note_on_c, 0, 63, 119
1, 35594, Note_off_c, 0, 63, 119
1, 35594, Note_on_c, 0, 65, 110
1, 35661, Note_off_c, 0, 65, 110
1, 35661, Note_on_c, 0, 60, 111
1, 35752, Note_off_c, 0, 60, 111
1, 35752, Note_on_c, 0, 62, 112
1, 35839, Note_off_c, 0, 62, 112
1, 35864, Note_on_c, 0, 58, 98
1, 36011, Note_off_c, 0, 58, 98
1, 36752, Note_on_c, 0, 70, 115
1, 36873, Note_off_c, 0, 70, 115
1, 36920, Note_on_c, 0, 77, 113
1, 36977, Note_off_c, 0, 77, 113
1, 36977, Note_on_c, 0, 79, 119
1, 37298, Note_off_c, 0, 79, 119
1, 37311, Note_on_c, 0, 77, 103
1, 37412, Note_off_c, 0, 77, 103
1, 37431, Note_on_c, 0, 74, 102
1, 37522, Note_off_c, 0, 74, 102
1, 37680, Note_on_c, 0, 75, 107
1, 37785, Note_off_c, 0, 75, 107
1, 37800, Note_on_c, 0, 74, 108
1, 37921, Note_off_c, 0, 74, 108
1, 37950, Note_on_c, 0, 70, 115
1, 38049, Note_off_c, 0, 70, 115
1, 38054, Note_on_c, 0, 70, 110
1, 38155, Note_off_c, 0, 70, 110
1, 38170, Note_on_c, 0, 68, 114
1, 38312, Note_off_c, 0, 68, 114
1, 38369, Note_on_c, 0, 70, 116
1, 38514, Note_off_c, 0, 70, 116
1, 38524, Note_on_c, 0, 67, 81
1, 38569, Note_off_c, 0, 67, 81
1, 39079, Note_on_c, 0, 70, 114
1, 39172, Note_off_c, 0, 70, 114
1, 39181, Note_on_c, 0, 68, 116
1, 39254, Note_off_c, 0, 68, 116
1, 39277, Note_on_c, 0, 65, 115
1, 39346, Note_off_c, 0, 65, 115
1, 39357, Note_on_c, 0, 58, 102
1, 39434, Note_off_c, 0, 58, 102
1, 39441, Note_on_c, 0, 62, 95
1, 39514, Note_off_c, 0, 62, 95
1, 39517, Note_on_c, 0, 72, 103
1, 39618, Note_on_c, 0, 68, 115
1, 39618, Note_off_c, 0, 72, 103
1, 39703, Note_off_c, 0, 68, 115
1, 39703, Note_on_c, 0, 67, 108
1, 39776, Note_off_c, 0, 67, 108
1, 39793, Note_on_c, 0, 65, 110
1, 39890, Note_off_c, 0, 65, 110
1, 39950, Note_on_c, 0, 70, 105
1, 40021, Note_off_c, 0, 70, 105
1, 40040, Note_on_c, 0, 72, 110
1, 40129, Note_off_c, 0, 72, 110
1, 40132, Note_on_c, 0, 68, 115
1, 40175, Note_off_c, 0, 68, 115
1, 40178, Note_on_c, 0, 67, 112
1, 40225, Note_off_c, 0, 67, 112
1, 40234, Note_on_c, 0, 67, 110
1, 40307, Note_off_c, 0, 67, 110
1, 40316, Note_on_c, 0, 65, 111
1, 40405, Note_off_c, 0, 65, 111
1, 40428, Note_on_c, 0, 58, 95
1, 40519, Note_off_c, 0, 58, 95
1, 40546, Note_on_c, 0, 70, 99
1, 40587, Note_off_c, 0, 70, 99
1, 40587, Note_on_c, 0, 72, 104
1, 40660, Note_off_c, 0, 72, 104
1, 40669, Note_on_c, 0, 68, 114
1, 40698, Note_off_c, 0, 68, 114
1, 40698, Note_on_c, 0, 67, 113
1, 40755, Note_off_c, 0, 67, 113
1, 40764, Note_on_c, 0, 67, 109
1, 40855, Note_off_c, 0, 67, 109
1, 40860, Note_on_c, 0, 65, 114
1, 40929, Note_off_c, 0, 65, 114
1, 40942, Note_on_c, 0, 58, 100
1, 40977, Note_off_c, 0, 58, 100
1, 41032, Note_on_c, 0, 70, 111
1, 41095, Note_off_c, 0, 70, 111
1, 41108, Note_on_c, 0, 72, 106
1, 41173, Note_off_c, 0, 72, 106
1, 41200, Note_on_c, 0, 67, 112
1, 41249, Note_off_c, 0, 67, 112
1, 41254, Note_on_c, 0, 68, 111
1, 41289, Note_off_c, 0, 68, 111
1, 41289, Note_on_c, 0, 67, 112
1, 41362, Note_off_c, 0, 67, 112
1, 41362, Note_on_c, 0, 65, 111
1, 41457, Note_off_c, 0, 65, 111
1, 41464, Note_on_c, 0, 62, 99
1, 41543, Note_off_c, 0, 62, 99
1, 41544, Note_on_c, 0, 58, 101
1, 41645, Note_off_c, 0, 58, 101
1, 41645, Note_on_c, 0, 72, 105
1, 41736, Note_on_c, 0, 68, 116
1, 41736, Note_off_c, 0, 72, 105
1, 41823, Note_off_c, 0, 68, 116
1, 41824, Note_on_c, 0, 67, 113
1, 41901, Note_off_c, 0, 67, 113
1, 41906, Note_on_c, 0, 65, 114
1, 42003, Note_off_c, 0, 65, 114
1, 42034, Note_on_c, 0, 58, 97
1, 42099, Note_off_c, 0, 58, 97
1, 42099, Note_on_c, 0, 70, 107
1, 42166, Note_off_c, 0, 70, 107
1, 42169, Note_on_c, 0, 72, 101
1, 42264, Note_on_c, 0, 67, 114
1, 42264, Note_off_c, 0, 72, 101
1, 42363, Note_off_c, 0, 67, 114
1, 42363, Note_on_c, 0, 67, 109
1, 42446, Note_off_c, 0, 67, 109
1, 42468, Note_on_c, 0, 65, 113
1, 42542, Note_off_c, 0, 65, 113
1, 42547, Note_on_c, 0, 61, 104
1, 42608, Note_off_c, 0, 61, 104
1, 42615, Note_on_c, 0, 70, 99
1, 42861, Note_off_c, 0, 70, 99
1, 43520, Note_on_c, 0, 63, 127
1, 43602, Note_off_c, 0, 63, 127
1, 43630, Note_on_c, 0, 68, 118
1, 43702, Note_off_c, 0, 68, 118
1, 43703, Note_on_c, 0, 65, 118
1, 43802, Note_off_c, 0, 65, 118
1, 43805, Note_on_c, 0, 63, 119
1, 43898, Note_off_c, 0, 63, 119
1, 43901, Note_on_c, 0, 61, 118
1, 44014, Note_on_c, 0, 56, 110
1, 44014, Note_off_c, 0, 61, 118
1, 44063, Note_off_c, 0, 56, 110
1, 44063, Note_on_c, 0, 63, 122
1, 44152, Note_off_c, 0, 63, 122
1, 44161, Note_on_c, 0, 65, 114
1, 44232, Note_off_c, 0, 65, 114
1, 44232, Note_on_c, 0, 66, 111
1, 44321, Note_off_c, 0, 66, 111
1, 44330, Note_on_c, 0, 68, 116
1, 44405, Note_off_c, 0, 68, 116
1, 44405, Note_on_c, 0, 65, 110
1, 44500, Note_off_c, 0, 65, 110
1, 44503, Note_on_c, 0, 68, 111
1, 44572, Note_off_c, 0, 68, 111
1, 44572, Note_on_c, 0, 73, 111
1, 44665, Note_off_c, 0, 73, 111
1, 44670, Note_on_c, 0, 75, 119
1, 44763, Note_off_c, 0, 75, 119
1, 44774, Note_on_c, 0, 77, 107
1, 44928, Note_off_c, 0, 77, 107
1, 44935, Note_on_c, 0, 75, 115
1, 45036, Note_off_c, 0, 75, 115
1, 45041, Note_on_c, 0, 73, 111
1, 45168, Note_off_c, 0, 73, 111
1, 45177, Note_on_c, 0, 73, 105
1, 45288, Note_off_c, 0, 73, 105
1, 45296, Note_on_c, 0, 68, 119
1, 45376, Note_off_c, 0, 68, 119
1, 45387, Note_on_c, 0, 67, 102
1, 45430, Note_off_c, 0, 67, 102
1, 45824, Note_on_c, 0, 78, 120
1, 45892, Note_off_c, 0, 78, 120
1, 45898, Note_on_c, 0, 79, 117
1, 46265, Note_off_c, 0, 79, 117
1, 46265, Note_on_c, 0, 75, 121
1, 46388, Note_off_c, 0, 75, 121
1, 46393, Note_on_c, 0, 70, 107
1, 46456, Note_off_c, 0, 70, 107
1, 46465, Note_on_c, 0, 68, 118
1, 46556, Note_off_c, 0, 68, 118
1, 46566, Note_on_c, 0, 67, 114
1, 46622, Note_off_c, 0, 67, 114
1, 46637, Note_on_c, 0, 63, 121
1, 46714, Note_off_c, 0, 63, 121
1, 46742, Note_on_c, 0, 58, 99
1, 46822, Note_off_c, 0, 58, 99
1, 46835, Note_on_c, 0, 55, 102
1, 46890, Note_off_c, 0, 55, 102
1, 46903, Note_on_c, 0, 65, 109
1, 47153, Note_off_c, 0, 65, 109
1, 47722, Note_on_c, 0, 58, 101
1, 47797, Note_off_c, 0, 58, 101
1, 47804, Note_on_c, 0, 63, 120
1, 47879, Note_off_c, 0, 63, 120
1, 47879, Note_on_c, 0, 65, 115
1, 47972, Note_off_c, 0, 65, 115
1, 47977, Note_on_c, 0, 62, 118
1, 48058, Note_off_c, 0, 62, 118
1, 48061, Note_on_c, 0, 60, 116
1, 48152, Note_off_c, 0, 60, 116
1, 48161, Note_on_c, 0, 58, 101
1, 48224, Note_off_c, 0, 58, 101
1, 48231, Note_on_c, 0, 53, 95
1, 48312, Note_off_c, 0, 53, 95
1, 48317, Note_on_c, 0, 56, 104
1, 48406, Note_off_c, 0, 56, 104
1, 48413, Note_on_c, 0, 58, 104
1, 48482, Note_off_c, 0, 58, 104
1, 48501, Note_on_c, 0, 60, 116
1, 48570, Note_off_c, 0, 60, 116
1, 48570, Note_on_c, 0, 63, 118
1, 48683, Note_off_c, 0, 63, 118
1, 48684, Note_on_c, 0, 62, 110
1, 48892, Note_off_c, 0, 62, 110
1, 49118, Note_on_c, 0, 58, 101
1, 49219, Note_off_c, 0, 58, 101
1, 49232, Note_on_c, 0, 62, 122
1, 49359, Note_off_c, 0, 62, 122
1, 49364, Note_on_c, 0, 65, 115
1, 49469, Note_off_c, 0, 65, 115
1, 49500, Note_on_c, 0, 70, 110
1, 49601, Note_off_c, 0, 70, 110
1, 49610, Note_on_c, 0, 72, 107
1, 49723, Note_off_c, 0, 72, 107
1, 49742, Note_on_c, 0, 73, 111
1, 49853, Note_off_c, 0, 73, 111
1, 49853, Note_on_c, 0, 72, 107
1, 49954, Note_off_c, 0, 72, 107
1, 49959, Note_on_c, 0, 70, 109
1, 50248, Note_off_c, 0, 70, 109
1, 50265, Note_on_c, 0, 72, 100
1, 50370, Note_off_c, 0, 72, 100
1, 50371, Note_on_c, 0, 73, 102
1, 50434, Note_off_c, 0, 73, 102
1, 50439, Note_on_c, 0, 72, 104
1, 50703, Note_off_c, 0, 72, 104
1, 50706, Note_on_c, 0, 70, 103
1, 50775, Note_off_c, 0, 70, 103
1, 50784, Note_on_c, 0, 72, 101
1, 50976, Note_off_c, 0, 72, 101
1, 50983, Note_on_c, 0, 68, 111
1, 51159, Note_off_c, 0, 68, 111
1, 51168, Note_on_c, 0, 71, 104
1, 51281, Note_off_c, 0, 71, 104
1, 51281, Note_on_c, 0, 70, 105
1, 51332, Note_off_c, 0, 70, 105
1, 51349, Note_on_c, 0, 68, 111
1, 51511, Note_off_c, 0, 68, 111
1, 51514, Note_on_c, 0, 68, 110
1, 51619, Note_off_c, 0, 68, 110
1, 51619, Note_on_c, 0, 70, 103
1, 51680, Note_off_c, 0, 70, 103
1, 51680, Note_on_c, 0, 71, 102
1, 51785, Note_off_c, 0, 71, 102
1, 51788, Note_on_c, 0, 73, 98
1, 51871, Note_off_c, 0, 73, 98
1, 51880, Note_on_c, 0, 70, 103
1, 52054, Note_off_c, 0, 70, 103
1, 52073, Note_on_c, 0, 73, 99
1, 52138, Note_off_c, 0, 73, 99
1, 52232, Note_on_c, 0, 66, 99
1, 52426, Note_off_c, 0, 66, 99
1, 52615, Note_on_c, 0, 65, 115
1, 52690, Note_off_c, 0, 65, 115
1, 52701, Note_on_c, 0, 63, 122
1, 52798, Note_off_c, 0, 63, 122
1, 52805, Note_on_c, 0, 62, 115
1, 52953, Note_off_c, 0, 62, 115
1, 52962, Note_on_c, 0, 62, 111
1, 53118, Note_off_c, 0, 62, 111
1, 53135, Note_on_c, 0, 63, 111
1, 53206, Note_off_c, 0, 63, 111
1, 53221, Note_on_c, 0, 65, 102
1, 53304, Note_off_c, 0, 65, 102
1, 53304, Note_on_c, 0, 63, 119
1, 53385, Note_off_c, 0, 63, 119
1, 53385, Note_on_c, 0, 62, 115
1, 53468, Note_off_c, 0, 62, 115
1, 53493, Note_on_c, 0, 60, 116
1, 53582, Note_off_c, 0, 60, 116
1, 53683, Note_on_c, 0, 67, 105
1, 53776, Note_off_c, 0, 67, 105
1, 53776, Note_on_c, 0, 69, 106
1, 53871, Note_off_c, 0, 69, 106
1, 53884, Note_on_c, 0, 70, 91
1, 54277, Note_off_c, 0, 70, 91
1, 54284, Note_on_c, 0, 72, 93
1, 54305, Note_off_c, 0, 72, 93
1, 54305, Note_on_c, 0, 70, 93
1, 54326, Note_off_c, 0, 70, 93
1, 54333, Note_on_c, 0, 72, 89
1, 54368, Note_off_c, 0, 72, 89
1, 54368, Note_on_c, 0, 70, 89
1, 54389, Note_off_c, 0, 70, 89
1, 54400, Note_on_c, 0, 72, 89
1, 54427, Note_off_c, 0, 72, 89
1, 54438, Note_on_c, 0, 70, 97
1, 54463, Note_off_c, 0, 70, 97
1, 54468, Note_on_c, 0, 72, 98
1, 54503, Note_off_c, 0, 72, 98
1, 54516, Note_on_c, 0, 70, 99
1, 54543, Note_off_c, 0, 70, 99
1, 54550, Note_on_c, 0, 72, 102
1, 54575, Note_off_c, 0, 72, 102
1, 54582, Note_on_c, 0, 70, 102
1, 54603, Note_off_c, 0, 70, 102
1, 54620, Note_on_c, 0, 72, 103
1, 54649, Note_off_c, 0, 72, 103
1, 54656, Note_on_c, 0, 70, 102
1, 54683, Note_off_c, 0, 70, 102
1, 54683, Note_on_c, 0, 72, 103
1, 54724, Note_off_c, 0, 72, 103
1, 54724, Note_on_c, 0, 70, 103
1, 54755, Note_off_c, 0, 70, 103
1, 54755, Note_on_c, 0, 72, 101
1, 54784, Note_off_c, 0, 72, 101
1, 54793, Note_on_c, 0, 70, 104
1, 54826, Note_off_c, 0, 70, 104
1, 54826, Note_on_c, 0, 72, 100
1, 54867, Note_off_c, 0, 72, 100
1, 54872, Note_on_c, 0, 70, 103
1, 54893, Note_off_c, 0, 70, 103
1, 54893, Note_on_c, 0, 72, 98
1, 54936, Note_off_c, 0, 72, 98
1, 54936, Note_on_c, 0, 70, 97
1, 54963, Note_off_c, 0, 70, 97
1, 54963, Note_on_c, 0, 72, 94
1, 54998, Note_off_c, 0, 72, 94
1, 55005, Note_on_c, 0, 70, 93
1, 55024, Note_off_c, 0, 70, 93
1, 55031, Note_on_c, 0, 72, 90
1, 55054, Note_off_c, 0, 72, 90
1, 55054, Note_on_c, 0, 70, 86
1, 55087, Note_off_c, 0, 70, 86
1, 55104, Note_on_c, 0, 72, 86
1, 55121, Note_off_c, 0, 72, 86
1, 55134, Note_on_c, 0, 70, 81
1, 55163, Note_off_c, 0, 70, 81
1, 55164, Note_on_c, 0, 72, 83
1, 55193, Note_off_c, 0, 72, 83
1, 55200, Note_on_c, 0, 70, 80
1, 55231, Note_off_c, 0, 70, 80
1, 55231, Note_on_c, 0, 72, 84
1, 55264, Note_off_c, 0, 72, 84
1, 55264, Note_on_c, 0, 70, 78
1, 55297, Note_off_c, 0, 70, 78
1, 55308, Note_on_c, 0, 72, 77
1, 55329, Note_off_c, 0, 72, 77
1, 55332, Note_on_c, 0, 70, 77
1, 55359, Note_off_c, 0, 70, 77
1, 55366, Note_on_c, 0, 72, 71
1, 55403, Note_off_c, 0, 72, 71
1, 55416, Note_on_c, 0, 70, 73
1, 55445, Note_off_c, 0, 70, 73
1, 55466, Note_on_c, 0, 72, 73
1, 55493, Note_off_c, 0, 72, 73
1, 55494, Note_on_c, 0, 70, 73
1, 55519, Note_off_c, 0, 70, 73
1, 55519, Note_on_c, 0, 72, 76
1, 55550, Note_off_c, 0, 72, 76
1, 55559, Note_on_c, 0, 70, 70
1, 55598, Note_off_c, 0, 70, 70
1, 55601, Note_on_c, 0, 72, 74
1, 55636, Note_off_c, 0, 72, 74
1, 55639, Note_on_c, 0, 70, 73
1, 55676, Note_off_c, 0, 70, 73
1, 55677, Note_on_c, 0, 72, 75
1, 55708, Note_off_c, 0, 72, 75
1, 55709, Note_on_c, 0, 70, 70
1, 55748, Note_off_c, 0, 70, 70
1, 55751, Note_on_c, 0, 72, 69
1, 55806, Note_off_c, 0, 72, 69
1, 55819, Note_on_c, 0, 73, 78
1, 55892, Note_off_c, 0, 73, 78
1, 55892, End_track
0, 0, End_of_file
