0, 0, Header, 1, 1, 192
1, 0, Start_track
1, 0, Title_t, "Melody"
1, 0, Tempo, 357142
1, 0, Key_signature, -2, "major"
1, 0, Time_signature, 4, 2, 24, 8
1, 446, Note_on_c, 0, 57, 113
1, 535, Note_off_c, 0, 57, 113
1, 538, Note_on_c, 0, 60, 98
1, 581, Note_off_c, 0, 60, 98
1, 582, Note_on_c, 0, 58, 107
1, 634, Note_off_c, 0, 58, 107
1, 637, Note_on_c, 0, 65, 99
1, 687, Note_off_c, 0, 65, 99
1, 689, Note_on_c, 0, 68, 97
1, 723, Note_off_c, 0, 68, 97
1, 727, Note_on_c, 0, 65, 101
1, 779, Note_off_c, 0, 65, 101
1, 780, Note_on_c, 0, 70, 95
1, 822, Note_off_c, 0, 70, 95
1, 835, Note_on_c, 0, 70, 93
1, 877, Note_off_c, 0, 70, 93
1, 882, Note_on_c, 0, 72, 87
1, 910, Note_off_c, 0, 72, 87
1, 911, Note_on_c, 0, 68, 98
1, 959, Note_off_c, 0, 68, 98
1, 963, Note_on_c, 0, 65, 102
1, 1001, Note_off_c, 0, 65, 102
1, 1007, Note_on_c, 0, 64, 107
1, 1050, Note_off_c, 0, 64, 107
1, 1057, Note_on_c, 0, 63, 107
1, 1109, Note_off_c, 0, 63, 107
1, 1110, Note_on_c, 0, 67, 99
1, 1145, Note_off_c, 0, 67, 99
1, 1146, Note_on_c, 0, 65, 102
1, 1194, Note_off_c, 0, 65, 102
1, 1195, Note_on_c, 0, 63, 108
1, 1243, Note_off_c, 0, 63, 108
1, 1249, Note_on_c, 0, 62, 106
1, 1281, Note_off_c, 0, 62, 106
1, 1283, Note_on_c, 0, 60, 102
1, 1324, Note_off_c, 0, 60, 102
1, 1328, Note_on_c, 0, 59, 95
1, 1386, Note_off_c, 0, 59, 95
1, 1386, Note_on_c, 0, 53, 92
1, 1423, Note_off_c, 0, 53, 92
1, 1430, Note_on_c, 0, 56, 99
1, 1459, Note_off_c, 0, 56, 99
1, 1461, Note_on_c, 0, 60, 104
1, 1509, Note_off_c, 0, 60, 104
1, 1513, Note_on_c, 0, 59, 99
1, 1554, Note_off_c, 0, 59, 99
1, 1554, Note_on_c, 0, 60, 99
1, 1603, Note_off_c, 0, 60, 99
1, 1605, Note_on_c, 0, 65, 97
1, 1643, Note_off_c, 0, 65, 97
1, 1643, Note_on_c, 0, 68, 98
1, 1694, Note_off_c, 0, 68, 98
1, 1695, Note_on_c, 0, 67, 95
1, 1754, Note_off_c, 0, 67, 95
1, 1759, Note_on_c, 0, 62, 90
1, 1795, Note_off_c, 0, 62, 90
1, 1799, Note_on_c, 0, 63, 99
1, 1838, Note_off_c, 0, 63, 99
1, 1842, Note_on_c, 0, 65, 96
1, 1890, Note_off_c, 0, 65, 96
1, 1898, Note_on_c, 0, 67, 88
1, 2094, Note_off_c, 0, 67, 88
1, 2490, Note_on_c, 0, 68, 104
1, 2532, Note_off_c, 0, 68, 104
1, 2532, Note_on_c, 0, 67, 99
1, 2680, Note_off_c, 0, 67, 99
1, 2693, Note_on_c, 0, 68, 103
1, 2727, Note_off_c, 0, 68, 103
1, 2730, Note_on_c, 0, 67, 97
1, 2842, Note_off_c, 0, 67, 97
1, 2853, Note_on_c, 0, 67, 100
1, 2881, Note_off_c, 0, 67, 100
1, 3269, Note_on_c, 0, 68, 97
1, 3300, Note_off_c, 0, 68, 97
1, 3307, Note_on_c, 0, 67, 98
1, 3428, Note_off_c, 0, 67, 98
1, 3435, Note_on_c, 0, 68, 92
1, 3470, Note_off_c, 0, 68, 92
1, 3483, Note_on_c, 0, 67, 96
1, 3644, Note_off_c, 0, 67, 96
1, 3647, Note_on_c, 0, 67, 89
1, 3767, Note_off_c, 0, 67, 89
1, 3774, Note_on_c, 0, 67, 94
1, 3858, Note_off_c, 0, 67, 94
1, 3881, Note_on_c, 0, 67, 97
1, 4016, Note_off_c, 0, 67, 97
1, 4016, Note_on_c, 0, 72, 96
1, 4051, Note_off_c, 0, 72, 96
1, 4128, Note_on_c, 0, 67, 95
1, 4238, Note_off_c, 0, 67, 95
1, 4266, Note_on_c, 0, 65, 98
1, 4401, Note_off_c, 0, 65, 98
1, 4410, Note_on_c, 0, 65, 99
1, 4447, Note_off_c, 0, 65, 99
1, 4823, Note_on_c, 0, 65, 97
1, 4841, Note_off_c, 0, 65, 97
1, 4847, Note_on_c, 0, 67, 98
1, 4982, Note_off_c, 0, 67, 98
1, 4989, Note_on_c, 0, 64, 98
1, 5019, Note_off_c, 0, 64, 98
1, 5026, Note_on_c, 0, 65, 100
1, 5164, Note_off_c, 0, 65, 100
1, 5184, Note_on_c, 0, 65, 102
1, 5221, Note_off_c, 0, 65, 102
1, 5503, Note_on_c, 0, 66, 101
1, 5543, Note_off_c, 0, 66, 101
1, 5546, Note_on_c, 0, 64, 107
1, 5588, Note_off_c, 0, 64, 107
1, 5593, Note_on_c, 0, 65, 100
1, 5627, Note_off_c, 0, 65, 100
1, 5637, Note_on_c, 0, 67, 97
1, 5683, Note_off_c, 0, 67, 97
1, 5687, Note_on_c, 0, 68, 96
1, 5733, Note_off_c, 0, 68, 96
1, 5736, Note_on_c, 0, 71, 91
1, 5781, Note_off_c, 0, 71, 91
1, 5782, Note_on_c, 0, 67, 96
1, 5833, Note_off_c, 0, 67, 96
1, 5837, Note_on_c, 0, 70, 94
1, 5880, Note_off_c, 0, 70, 94
1, 5887, Note_on_c, 0, 68, 93
1, 5936, Note_off_c, 0, 68, 93
1, 5936, Note_on_c, 0, 65, 93
1, 5985, Note_off_c, 0, 65, 93
1, 5985, Note_on_c, 0, 67, 96
1, 6041, Note_off_c, 0, 67, 96
1, 6043, Note_on_c, 0, 66, 98
1, 6085, Note_off_c, 0, 66, 98
1, 6087, Note_on_c, 0, 65, 97
1, 6126, Note_off_c, 0, 65, 97
1, 6136, Note_on_c, 0, 64, 108
1, 6178, Note_off_c, 0, 64, 108
1, 6184, Note_on_c, 0, 63, 100
1, 6226, Note_off_c, 0, 63, 100
1, 6232, Note_on_c, 0, 61, 100
1, 6278, Note_off_c, 0, 61, 100
1, 6278, Note_on_c, 0, 58, 98
1, 6324, Note_off_c, 0, 58, 98
1, 6327, Note_on_c, 0, 56, 100
1, 6369, Note_off_c, 0, 56, 100
1, 6374, Note_on_c, 0, 55, 96
1, 6413, Note_off_c, 0, 55, 96
1, 6419, Note_on_c, 0, 57, 92
1, 6462, Note_off_c, 0, 57, 92
1, 6471, Note_on_c, 0, 59, 93
1, 6518, Note_off_c, 0, 59, 93
1, 6521, Note_on_c, 0, 62, 97
1, 6556, Note_off_c, 0, 62, 97
1, 6570, Note_on_c, 0, 59, 97
1, 6613, Note_off_c, 0, 59, 97
1, 6619, Note_on_c, 0, 60, 93
1, 6672, Note_off_c, 0, 60, 93
1, 6672, Note_on_c, 0, 64, 90
1, 6709, Note_off_c, 0, 64, 90
1, 6715, Note_on_c, 0, 67, 89
1, 6757, Note_off_c, 0, 67, 89
1, 6760, Note_on_c, 0, 71, 95
1, 6819, Note_off_c, 0, 71, 95
1, 6819, Note_on_c, 0, 74, 97
1, 6864, Note_off_c, 0, 74, 97
1, 6865, Note_on_c, 0, 72, 98
1, 6913, Note_off_c, 0, 72, 98
1, 6919, Note_on_c, 0, 67, 94
1, 6947, Note_off_c, 0, 67, 94
1, 6952, Note_on_c, 0, 69, 96
1, 7005, Note_off_c, 0, 69, 96
1, 7006, Note_on_c, 0, 65, 97
1, 7054, Note_off_c, 0, 65, 97
1, 7056, Note_on_c, 0, 64, 99
1, 7087, Note_off_c, 0, 64, 99
1, 7089, Note_on_c, 0, 62, 95
1, 7131, Note_off_c, 0, 62, 95
1, 7134, Note_on_c, 0, 67, 96
1, 7190, Note_off_c, 0, 67, 96
1, 7192, Note_on_c, 0, 66, 97
1, 7231, Note_off_c, 0, 66, 97
1, 7238, Note_on_c, 0, 65, 97
1, 7283, Note_off_c, 0, 65, 97
1, 7284, Note_on_c, 0, 64, 106
1, 7324, Note_off_c, 0, 64, 106
1, 7330, Note_on_c, 0, 63, 106
1, 7372, Note_off_c, 0, 63, 106
1, 7379, Note_on_c, 0, 61, 100
1, 7432, Note_off_c, 0, 61, 100
1, 7436, Note_on_c, 0, 58, 97
1, 7482, Note_off_c, 0, 58, 97
1, 7485, Note_on_c, 0, 56, 99
1, 7536, Note_off_c, 0, 56, 99
1, 7536, Note_on_c, 0, 55, 98
1, 7571, Note_off_c, 0, 55, 98
1, 7578, Note_on_c, 0, 57, 92
1, 7620, Note_off_c, 0, 57, 92
1, 7626, Note_on_c, 0, 59, 92
1, 7665, Note_off_c, 0, 59, 92
1, 7674, Note_on_c, 0, 63, 97
1, 7709, Note_off_c, 0, 63, 97
1, 7716, Note_on_c, 0, 67, 96
1, 7761, Note_off_c, 0, 67, 96
1, 7771, Note_on_c, 0, 66, 97
1, 7820, Note_off_c, 0, 66, 97
1, 7823, Note_on_c, 0, 65, 95
1, 7851, Note_off_c, 0, 65, 95
1, 7856, Note_on_c, 0, 64, 105
1, 7901, Note_off_c, 0, 64, 105
1, 7901, Note_on_c, 0, 63, 107
1, 7950, Note_off_c, 0, 63, 107
1, 7953, Note_on_c, 0, 61, 98
1, 8006, Note_off_c, 0, 61, 98
1, 8015, Note_on_c, 0, 59, 91
1, 8060, Note_off_c, 0, 59, 91
1, 8061, Note_on_c, 0, 56, 91
1, 8095, Note_off_c, 0, 56, 91
1, 8110, Note_on_c, 0, 60, 100
1, 8233, Note_off_c, 0, 60, 100
1, 8683, Note_on_c, 0, 64, 95
1, 8703, Note_off_c, 0, 64, 95
1, 8706, Note_on_c, 0, 67, 98
1, 8862, Note_off_c, 0, 67, 98
1, 8877, Note_on_c, 0, 65, 104
1, 8933, Note_off_c, 0, 65, 104
1, 8942, Note_on_c, 0, 67, 99
1, 8988, Note_off_c, 0, 67, 99
1, 8988, Note_on_c, 0, 68, 103
1, 9028, Note_off_c, 0, 68, 103
1, 9034, Note_on_c, 0, 65, 96
1, 9071, Note_off_c, 0, 65, 96
1, 9075, Note_on_c, 0, 69, 101
1, 9121, Note_off_c, 0, 69, 101
1, 9131, Note_on_c, 0, 69, 93
1, 9166, Note_off_c, 0, 69, 93
1, 9173, Note_on_c, 0, 68, 98
1, 9210, Note_off_c, 0, 68, 98
1, 9214, Note_on_c, 0, 69, 97
1, 9259, Note_off_c, 0, 69, 97
1, 9262, Note_on_c, 0, 67, 100
1, 9308, Note_off_c, 0, 67, 100
1, 9312, Note_on_c, 0, 66, 99
1, 9353, Note_off_c, 0, 66, 99
1, 9353, Note_on_c, 0, 65, 98
1, 9384, Note_off_c, 0, 65, 98
1, 9387, Note_on_c, 0, 64, 106
1, 9440, Note_off_c, 0, 64, 106
1, 9441, Note_on_c, 0, 63, 107
1, 9483, Note_off_c, 0, 63, 107
1, 9489, Note_on_c, 0, 61, 101
1, 9532, Note_off_c, 0, 61, 101
1, 9533, Note_on_c, 0, 58, 96
1, 9573, Note_off_c, 0, 58, 96
1, 9583, Note_on_c, 0, 56, 98
1, 9639, Note_off_c, 0, 56, 98
1, 9639, Note_on_c, 0, 55, 101
1, 9672, Note_off_c, 0, 55, 101
1, 9675, Note_on_c, 0, 57, 95
1, 9711, Note_off_c, 0, 57, 95
1, 9717, Note_on_c, 0, 59, 93
1, 9759, Note_off_c, 0, 59, 93
1, 9766, Note_on_c, 0, 62, 97
1, 9812, Note_off_c, 0, 62, 97
1, 9819, Note_on_c, 0, 59, 95
1, 9861, Note_off_c, 0, 59, 95
1, 9866, Note_on_c, 0, 60, 98
1, 9910, Note_off_c, 0, 60, 98
1, 9913, Note_on_c, 0, 64, 101
1, 9962, Note_off_c, 0, 64, 101
1, 9968, Note_on_c, 0, 67, 98
1, 10021, Note_off_c, 0, 67, 98
1, 10021, Note_on_c, 0, 63, 103
1, 10060, Note_off_c, 0, 63, 103
1, 10061, Note_on_c, 0, 64, 101
1, 10106, Note_off_c, 0, 64, 101
1, 10106, Note_on_c, 0, 67, 93
1, 10152, Note_off_c, 0, 67, 93
1, 10153, Note_on_c, 0, 70, 91
1, 10177, Note_off_c, 0, 70, 91
1, 10195, Note_on_c, 0, 75, 110
1, 10521, Note_off_c, 0, 75, 110
1, 10524, Note_on_c, 0, 72, 94
1, 10592, Note_off_c, 0, 72, 94
1, 10654, Note_on_c, 0, 68, 105
1, 10710, Note_on_c, 0, 67, 95
1, 10710, Note_off_c, 0, 68, 105
1, 10738, Note_off_c, 0, 67, 95
1, 10738, Note_on_c, 0, 66, 91
1, 10781, Note_off_c, 0, 66, 91
1, 10783, Note_on_c, 0, 70, 96
1, 10842, Note_off_c, 0, 70, 96
1, 10842, Note_on_c, 0, 68, 99
1, 10885, Note_off_c, 0, 68, 99
1, 10888, Note_on_c, 0, 64, 96
1, 10927, Note_off_c, 0, 64, 96
1, 10939, Note_on_c, 0, 61, 100
1, 10964, Note_off_c, 0, 61, 100
1, 10973, Note_on_c, 0, 67, 97
1, 11013, Note_off_c, 0, 67, 97
1, 11019, Note_on_c, 0, 66, 97
1, 11062, Note_off_c, 0, 66, 97
1, 11071, Note_on_c, 0, 65, 98
1, 11113, Note_off_c, 0, 65, 98
1, 11120, Note_on_c, 0, 64, 106
1, 11160, Note_off_c, 0, 64, 106
1, 11164, Note_on_c, 0, 63, 104
1, 11203, Note_off_c, 0, 63, 104
1, 11204, Note_on_c, 0, 60, 102
1, 11253, Note_off_c, 0, 60, 102
1, 11254, Note_on_c, 0, 56, 99
1, 11294, Note_off_c, 0, 56, 99
1, 11298, Note_on_c, 0, 53, 99
1, 11340, Note_off_c, 0, 53, 99
1, 11343, Note_on_c, 0, 58, 103
1, 11380, Note_off_c, 0, 58, 103
1, 11383, Note_on_c, 0, 53, 99
1, 11422, Note_off_c, 0, 53, 99
1, 11431, Note_on_c, 0, 46, 101
1, 11484, Note_off_c, 0, 46, 101
1, 11484, Note_on_c, 0, 53, 108
1, 11516, Note_off_c, 0, 53, 108
1, 11517, Note_on_c, 0, 50, 104
1, 11550, Note_off_c, 0, 50, 104
1, 11558, Note_on_c, 0, 46, 110
1, 11605, Note_off_c, 0, 46, 110
1, 11606, Note_on_c, 0, 44, 116
1, 11794, Note_off_c, 0, 44, 116
1, 12739, Note_on_c, 0, 55, 9
1, 12776, Note_off_c, 0, 55, 9
1, 12782, Note_on_c, 0, 57, 9
1, 12836, Note_off_c, 0, 57, 9
1, 12841, Note_on_c, 0, 62, 9
1, 12876, Note_off_c, 0, 62, 9
1, 12876, Note_on_c, 0, 59, 9
1, 12919, Note_off_c, 0, 59, 9
1, 12924, Note_on_c, 0, 60, 9
1, 12976, Note_off_c, 0, 60, 9
1, 12978, Note_on_c, 0, 64, 9
1, 13024, Note_off_c, 0, 64, 9
1, 13027, Note_on_c, 0, 67, 9
1, 13072, Note_off_c, 0, 67, 9
1, 13072, Note_on_c, 0, 72, 9
1, 13107, Note_off_c, 0, 72, 9
1, 13112, Note_on_c, 0, 74, 9
1, 13171, Note_off_c, 0, 74, 9
1, 13171, Note_on_c, 0, 72, 9
1, 13202, Note_off_c, 0, 72, 9
1, 13217, Note_on_c, 0, 67, 9
1, 13259, Note_off_c, 0, 67, 9
1, 13259, Note_on_c, 0, 69, 9
1, 13304, Note_on_c, 0, 65, 9
1, 13304, Note_off_c, 0, 69, 9
1, 13350, Note_off_c, 0, 65, 9
1, 13350, Note_on_c, 0, 64, 9
1, 13395, Note_off_c, 0, 64, 9
1, 13402, Note_on_c, 0, 62, 9
1, 13434, Note_off_c, 0, 62, 9
1, 13436, Note_on_c, 0, 67, 9
1, 13490, Note_off_c, 0, 67, 9
1, 13490, Note_on_c, 0, 66, 9
1, 13536, Note_off_c, 0, 66, 9
1, 13542, Note_on_c, 0, 65, 9
1, 13584, Note_off_c, 0, 65, 9
1, 13588, Note_on_c, 0, 64, 9
1, 13637, Note_off_c, 0, 64, 9
1, 13646, Note_on_c, 0, 63, 9
1, 13685, Note_off_c, 0, 63, 9
1, 13692, Note_on_c, 0, 61, 9
1, 13738, Note_off_c, 0, 61, 9
1, 13741, Note_on_c, 0, 59, 9
1, 13773, Note_off_c, 0, 59, 9
1, 13782, Note_on_c, 0, 56, 9
1, 13830, Note_off_c, 0, 56, 9
1, 13834, Note_on_c, 0, 55, 9
1, 13873, Note_off_c, 0, 55, 9
1, 13886, Note_on_c, 0, 56, 9
1, 13918, Note_off_c, 0, 56, 9
1, 13930, Note_on_c, 0, 59, 9
1, 13951, Note_off_c, 0, 59, 9
1, 13963, Note_on_c, 0, 57, 9
1, 14002, Note_off_c, 0, 57, 9
1, 14002, Note_on_c, 0, 59, 9
1, 14050, Note_off_c, 0, 59, 9
1, 14056, Note_on_c, 0, 60, 9
1, 14102, Note_off_c, 0, 60, 9
1, 14103, Note_on_c, 0, 64, 9
1, 14142, Note_off_c, 0, 64, 9
1, 14143, Note_on_c, 0, 67, 9
1, 14191, Note_off_c, 0, 67, 9
1, 14206, Note_on_c, 0, 72, 9
1, 14259, Note_off_c, 0, 72, 9
1, 14271, Note_on_c, 0, 72, 9
1, 14324, Note_off_c, 0, 72, 9
1, 14659, Note_on_c, 0, 70, 9
1, 14674, Note_off_c, 0, 70, 9
1, 14678, Note_on_c, 0, 72, 9
1, 14726, Note_off_c, 0, 72, 9
1, 14732, Note_on_c, 0, 70, 9
1, 14797, Note_off_c, 0, 70, 9
1, 14814, Note_on_c, 0, 70, 9
1, 14829, Note_off_c, 0, 70, 9
1, 14830, Note_on_c, 0, 72, 9
1, 14869, Note_on_c, 0, 75, 9
1, 14869, Note_off_c, 0, 72, 9
1, 15510, Note_off_c, 0, 75, 9
1, 15538, Note_on_c, 0, 74, 9
1, 15630, Note_off_c, 0, 74, 9
1, 15642, Note_on_c, 0, 69, 9
1, 15729, Note_off_c, 0, 69, 9
1, 15743, Note_on_c, 0, 72, 9
1, 15830, Note_off_c, 0, 72, 9
1, 15837, Note_on_c, 0, 70, 9
1, 15883, Note_off_c, 0, 70, 9
1, 15917, Note_on_c, 0, 65, 9
1, 15985, Note_off_c, 0, 65, 9
1, 15986, Note_on_c, 0, 62, 9
1, 16042, Note_off_c, 0, 62, 9
1, 16048, Note_on_c, 0, 60, 9
1, 16088, Note_off_c, 0, 60, 9
1, 16098, Note_on_c, 0, 58, 9
1, 16293, Note_off_c, 0, 58, 9
1, 16609, Note_on_c, 0, 53, 9
1, 16640, Note_off_c, 0, 53, 9
1, 16640, Note_on_c, 0, 58, 9
1, 16692, Note_off_c, 0, 58, 9
1, 16695, Note_on_c, 0, 58, 9
1, 16741, Note_off_c, 0, 58, 9
1, 16741, Note_on_c, 0, 53, 9
1, 16773, Note_off_c, 0, 53, 9
1, 16776, Note_on_c, 0, 57, 9
1, 16822, Note_off_c, 0, 57, 9
1, 16835, Note_on_c, 0, 58, 9
1, 16880, Note_off_c, 0, 58, 9
1, 16884, Note_on_c, 0, 58, 9
1, 16927, Note_off_c, 0, 58, 9
1, 16972, Note_on_c, 0, 57, 9
1, 17011, Note_off_c, 0, 57, 9
1, 17011, Note_on_c, 0, 59, 9
1, 17062, Note_off_c, 0, 59, 9
1, 17065, Note_on_c, 0, 69, 9
1, 17116, Note_off_c, 0, 69, 9
1, 17116, Note_on_c, 0, 70, 9
1, 17162, Note_off_c, 0, 70, 9
1, 17162, Note_on_c, 0, 72, 9
1, 17208, Note_off_c, 0, 72, 9
1, 17208, Note_on_c, 0, 68, 9
1, 17259, Note_off_c, 0, 68, 9
1, 17265, Note_on_c, 0, 66, 9
1, 17300, Note_off_c, 0, 66, 9
1, 17303, Note_on_c, 0, 64, 9
1, 17356, Note_off_c, 0, 64, 9
1, 17356, Note_on_c, 0, 63, 9
1, 17398, Note_off_c, 0, 63, 9
1, 17398, Note_on_c, 0, 67, 9
1, 17444, Note_off_c, 0, 67, 9
1, 17447, Note_on_c, 0, 65, 9
1, 17486, Note_off_c, 0, 65, 9
1, 17487, Note_on_c, 0, 61, 9
1, 17532, Note_off_c, 0, 61, 9
1, 17534, Note_on_c, 0, 58, 9
1, 17558, Note_off_c, 0, 58, 9
1, 17567, Note_on_c, 0, 56, 9
1, 17625, Note_off_c, 0, 56, 9
1, 17646, Note_on_c, 0, 65, 9
1, 17689, Note_off_c, 0, 65, 9
1, 17695, Note_on_c, 0, 61, 9
1, 17737, Note_off_c, 0, 61, 9
1, 17738, Note_on_c, 0, 58, 9
1, 17778, Note_off_c, 0, 58, 9
1, 17778, Note_on_c, 0, 55, 9
1, 17815, Note_off_c, 0, 55, 9
1, 17827, Note_on_c, 0, 56, 9
1, 17875, Note_off_c, 0, 56, 9
1, 17882, Note_on_c, 0, 61, 9
1, 17929, Note_off_c, 0, 61, 9
1, 17929, Note_on_c, 0, 59, 9
1, 17973, Note_off_c, 0, 59, 9
1, 17979, Note_on_c, 0, 57, 9
1, 18021, Note_off_c, 0, 57, 9
1, 18023, Note_on_c, 0, 55, 9
1, 18058, Note_off_c, 0, 55, 9
1, 18063, Note_on_c, 0, 57, 9
1, 18094, Note_off_c, 0, 57, 9
1, 18098, Note_on_c, 0, 59, 9
1, 18143, Note_off_c, 0, 59, 9
1, 18151, Note_on_c, 0, 61, 9
1, 18200, Note_off_c, 0, 61, 9
1, 18217, Note_on_c, 0, 68, 9
1, 18251, Note_off_c, 0, 68, 9
1, 18258, Note_on_c, 0, 66, 98
1, 18307, Note_off_c, 0, 66, 98
1, 18310, Note_on_c, 0, 65, 98
1, 18359, Note_off_c, 0, 65, 98
1, 18369, Note_on_c, 0, 64, 112
1, 18415, Note_off_c, 0, 64, 112
1, 18419, Note_on_c, 0, 63, 109
1, 18459, Note_off_c, 0, 63, 109
1, 18466, Note_on_c, 0, 65, 101
1, 18492, Note_off_c, 0, 65, 101
1, 18499, Note_on_c, 0, 68, 98
1, 18536, Note_off_c, 0, 68, 98
1, 18536, Note_on_c, 0, 72, 84
1, 18567, Note_off_c, 0, 72, 84
1, 18568, Note_on_c, 0, 75, 94
1, 18610, Note_off_c, 0, 75, 94
1, 18611, Note_on_c, 0, 79, 99
1, 18929, Note_off_c, 0, 79, 99
1, 18996, Note_on_c, 0, 77, 94
1, 19033, Note_off_c, 0, 77, 94
1, 19087, Note_on_c, 0, 73, 100
1, 19193, Note_off_c, 0, 73, 100
1, 19207, Note_on_c, 0, 71, 104
1, 19300, Note_off_c, 0, 71, 104
1, 19362, Note_on_c, 0, 67, 100
1, 19480, Note_off_c, 0, 67, 100
1, 19481, Note_on_c, 0, 65, 9
1, 19565, Note_off_c, 0, 65, 9
1, 19632, Note_on_c, 0, 61, 9
1, 19741, Note_off_c, 0, 61, 9
1, 19748, Note_on_c, 0, 59, 9
1, 19841, Note_off_c, 0, 59, 9
1, 19897, Note_on_c, 0, 55, 9
1, 20049, Note_off_c, 0, 55, 9
1, 20438, Note_on_c, 0, 68, 9
1, 20486, Note_off_c, 0, 68, 9
1, 20490, Note_on_c, 0, 68, 9
1, 20536, Note_off_c, 0, 68, 9
1, 20540, Note_on_c, 0, 67, 9
1, 20625, Note_off_c, 0, 67, 9
1, 20634, Note_on_c, 0, 68, 9
1, 20682, Note_off_c, 0, 68, 9
1, 20691, Note_on_c, 0, 68, 9
1, 20737, Note_off_c, 0, 68, 9
1, 20737, Note_on_c, 0, 67, 9
1, 20833, Note_off_c, 0, 67, 9
1, 20836, Note_on_c, 0, 68, 9
1, 20875, Note_off_c, 0, 68, 9
1, 20877, Note_on_c, 0, 68, 9
1, 20916, Note_off_c, 0, 68, 9
1, 20927, Note_on_c, 0, 67, 9
1, 21020, Note_off_c, 0, 67, 9
1, 21035, Note_on_c, 0, 68, 9
1, 21078, Note_off_c, 0, 68, 9
1, 21082, Note_on_c, 0, 67, 9
1, 21124, Note_off_c, 0, 67, 9
1, 21127, Note_on_c, 0, 67, 9
1, 21220, Note_off_c, 0, 67, 9
1, 21221, Note_on_c, 0, 68, 9
1, 21256, Note_off_c, 0, 68, 9
1, 21266, Note_on_c, 0, 67, 9
1, 21303, Note_off_c, 0, 67, 9
1, 21307, Note_on_c, 0, 67, 9
1, 21395, Note_off_c, 0, 67, 9
1, 21401, Note_on_c, 0, 68, 94
1, 21454, Note_off_c, 0, 68, 94
1, 21458, Note_on_c, 0, 67, 100
1, 21495, Note_off_c, 0, 67, 100
1, 21495, Note_on_c, 0, 67, 98
1, 21604, Note_off_c, 0, 67, 98
1, 21608, Note_on_c, 0, 68, 98
1, 21648, Note_off_c, 0, 68, 98
1, 21649, Note_on_c, 0, 67, 99
1, 21748, Note_off_c, 0, 67, 99
1, 21755, Note_on_c, 0, 68, 95
1, 21795, Note_off_c, 0, 68, 95
1, 21802, Note_on_c, 0, 70, 97
1, 21830, Note_off_c, 0, 70, 97
1, 21842, Note_on_c, 0, 70, 97
1, 21902, Note_off_c, 0, 70, 97
1, 21916, Note_on_c, 0, 68, 96
1, 21976, Note_off_c, 0, 68, 96
1, 21977, Note_on_c, 0, 70, 96
1, 22003, Note_off_c, 0, 70, 96
1, 22017, Note_on_c, 0, 70, 95
1, 22059, Note_off_c, 0, 70, 95
1, 22063, Note_on_c, 0, 68, 93
1, 22126, Note_off_c, 0, 68, 93
1, 22126, Note_on_c, 0, 70, 92
1, 22165, Note_off_c, 0, 70, 92
1, 22177, Note_on_c, 0, 70, 98
1, 22255, Note_off_c, 0, 70, 98
1, 22258, Note_on_c, 0, 68, 95
1, 22309, Note_off_c, 0, 68, 95
1, 22321, Note_on_c, 0, 69, 92
1, 22353, Note_off_c, 0, 69, 92
1, 22359, Note_on_c, 0, 70, 97
1, 22410, Note_off_c, 0, 70, 97
1, 22413, Note_on_c, 0, 70, 98
1, 22453, Note_off_c, 0, 70, 98
1, 22460, Note_on_c, 0, 68, 99
1, 22523, Note_off_c, 0, 68, 99
1, 22532, Note_on_c, 0, 70, 94
1, 22578, Note_off_c, 0, 70, 94
1, 22586, Note_on_c, 0, 70, 83
1, 22645, Note_off_c, 0, 70, 83
1, 22645, Note_on_c, 0, 68, 95
1, 22673, Note_off_c, 0, 68, 95
1, 22680, Note_on_c, 0, 70, 97
1, 22720, Note_off_c, 0, 70, 97
1, 22725, Note_on_c, 0, 72, 98
1, 22774, Note_off_c, 0, 72, 98
1, 22786, Note_on_c, 0, 72, 94
1, 22836, Note_off_c, 0, 72, 94
1, 22837, Note_on_c, 0, 68, 96
1, 22872, Note_off_c, 0, 68, 96
1, 22875, Note_on_c, 0, 70, 97
1, 22917, Note_off_c, 0, 70, 97
1, 22922, Note_on_c, 0, 72, 100
1, 22963, Note_off_c, 0, 72, 100
1, 22967, Note_on_c, 0, 72, 102
1, 23001, Note_off_c, 0, 72, 102
1, 23008, Note_on_c, 0, 68, 95
1, 23050, Note_off_c, 0, 68, 95
1, 23064, Note_on_c, 0, 70, 96
1, 23100, Note_off_c, 0, 70, 96
1, 23105, Note_on_c, 0, 72, 92
1, 23137, Note_off_c, 0, 72, 92
1, 23142, Note_on_c, 0, 70, 96
1, 23184, Note_off_c, 0, 70, 96
1, 23253, Note_on_c, 0, 70, 95
1, 23283, Note_off_c, 0, 70, 95
1, 23287, Note_on_c, 0, 68, 101
1, 23333, Note_off_c, 0, 68, 101
1, 23336, Note_on_c, 0, 67, 99
1, 23374, Note_off_c, 0, 67, 99
1, 23821, Note_on_c, 0, 45, 9
1, 23863, Note_off_c, 0, 45, 9
1, 23866, Note_on_c, 0, 51, 9
1, 23914, Note_off_c, 0, 51, 9
1, 23932, Note_on_c, 0, 56, 9
1, 23955, Note_off_c, 0, 56, 9
1, 23956, Note_on_c, 0, 51, 9
1, 23996, Note_off_c, 0, 51, 9
1, 23996, Note_on_c, 0, 53, 9
1, 24044, Note_off_c, 0, 53, 9
1, 24051, Note_on_c, 0, 56, 9
1, 24093, Note_off_c, 0, 56, 9
1, 24096, Note_on_c, 0, 62, 9
1, 24149, Note_off_c, 0, 62, 9
1, 24152, Note_on_c, 0, 59, 9
1, 24181, Note_off_c, 0, 59, 9
1, 24184, Note_on_c, 0, 62, 9
1, 24225, Note_off_c, 0, 62, 9
1, 24232, Note_on_c, 0, 65, 9
1, 24278, Note_off_c, 0, 65, 9
1, 24279, Note_on_c, 0, 68, 9
1, 24344, Note_off_c, 0, 68, 9
1, 24347, Note_on_c, 0, 67, 9
1, 24386, Note_off_c, 0, 67, 9
1, 24390, Note_on_c, 0, 68, 9
1, 24424, Note_off_c, 0, 68, 9
1, 24427, Note_on_c, 0, 69, 9
1, 24462, Note_off_c, 0, 69, 9
1, 24462, Note_on_c, 0, 63, 9
1, 24481, Note_off_c, 0, 63, 9
1, 24484, Note_on_c, 0, 60, 9
1, 24513, Note_off_c, 0, 60, 9
1, 24519, Note_on_c, 0, 65, 9
1, 24566, Note_off_c, 0, 65, 9
1, 24568, Note_on_c, 0, 64, 106
1, 24615, Note_off_c, 0, 64, 106
1, 24619, Note_on_c, 0, 63, 109
1, 24666, Note_off_c, 0, 63, 109
1, 24668, Note_on_c, 0, 67, 97
1, 24720, Note_off_c, 0, 67, 97
1, 24727, Note_on_c, 0, 65, 103
1, 24763, Note_off_c, 0, 65, 103
1, 24765, Note_on_c, 0, 63, 108
1, 24805, Note_off_c, 0, 63, 108
1, 24808, Note_on_c, 0, 62, 105
1, 24846, Note_off_c, 0, 62, 105
1, 24855, Note_on_c, 0, 60, 102
1, 24893, Note_off_c, 0, 60, 102
1, 24895, Note_on_c, 0, 58, 97
1, 24934, Note_off_c, 0, 58, 97
1, 24948, Note_on_c, 0, 53, 97
1, 24996, Note_off_c, 0, 53, 97
1, 24996, Note_on_c, 0, 56, 102
1, 25049, Note_off_c, 0, 56, 102
1, 25051, Note_on_c, 0, 61, 104
1, 25094, Note_off_c, 0, 61, 104
1, 25098, Note_on_c, 0, 59, 97
1, 25153, Note_off_c, 0, 59, 97
1, 25153, Note_on_c, 0, 61, 103
1, 25188, Note_off_c, 0, 61, 103
1, 25193, Note_on_c, 0, 65, 101
1, 25237, Note_off_c, 0, 65, 101
1, 25241, Note_on_c, 0, 68, 100
1, 25287, Note_off_c, 0, 68, 100
1, 25291, Note_on_c, 0, 68, 103
1, 25331, Note_off_c, 0, 68, 103
1, 25341, Note_on_c, 0, 72, 95
1, 25372, Note_off_c, 0, 72, 95
1, 25383, Note_on_c, 0, 68, 90
1, 25419, Note_off_c, 0, 68, 90
1, 25425, Note_on_c, 0, 71, 90
1, 25459, Note_off_c, 0, 71, 90
1, 25459, Note_on_c, 0, 73, 94
1, 25515, Note_off_c, 0, 73, 94
1, 25521, Note_on_c, 0, 73, 94
1, 25560, Note_off_c, 0, 73, 94
1, 25567, Note_on_c, 0, 71, 81
1, 25596, Note_off_c, 0, 71, 81
1, 25599, Note_on_c, 0, 73, 88
1, 25642, Note_off_c, 0, 73, 88
1, 25649, Note_on_c, 0, 70, 98
1, 25699, Note_off_c, 0, 70, 98
1, 25702, Note_on_c, 0, 66, 97
1, 25743, Note_off_c, 0, 66, 97
1, 25748, Note_on_c, 0, 61, 102
1, 25783, Note_off_c, 0, 61, 102
1, 25801, Note_on_c, 0, 59, 100
1, 25839, Note_off_c, 0, 59, 100
1, 25839, Note_on_c, 0, 65, 103
1, 25880, Note_off_c, 0, 65, 103
1, 25888, Note_on_c, 0, 64, 110
1, 25925, Note_off_c, 0, 64, 110
1, 25934, Note_on_c, 0, 63, 107
1, 25977, Note_off_c, 0, 63, 107
1, 25981, Note_on_c, 0, 67, 100
1, 26024, Note_off_c, 0, 67, 100
1, 26025, Note_on_c, 0, 65, 98
1, 26072, Note_off_c, 0, 65, 98
1, 26077, Note_on_c, 0, 63, 108
1, 26124, Note_off_c, 0, 63, 108
1, 26126, Note_on_c, 0, 62, 106
1, 26167, Note_off_c, 0, 62, 106
1, 26172, Note_on_c, 0, 60, 99
1, 26210, Note_off_c, 0, 60, 99
1, 26235, Note_on_c, 0, 59, 98
1, 26271, Note_off_c, 0, 59, 98
1, 26272, Note_on_c, 0, 60, 102
1, 26307, Note_off_c, 0, 60, 102
1, 26311, Note_on_c, 0, 63, 99
1, 26348, Note_off_c, 0, 63, 99
1, 26348, Note_on_c, 0, 67, 93
1, 26378, Note_off_c, 0, 67, 93
1, 26378, Note_on_c, 0, 71, 91
1, 26401, Note_off_c, 0, 71, 91
1, 26402, Note_on_c, 0, 75, 99
1, 26437, Note_off_c, 0, 75, 99
1, 26443, Note_on_c, 0, 79, 94
1, 26525, Note_off_c, 0, 79, 94
1, 26937, Note_on_c, 0, 77, 97
1, 26968, Note_off_c, 0, 77, 97
1, 26970, Note_on_c, 0, 79, 107
1, 27091, Note_off_c, 0, 79, 107
1, 27098, Note_on_c, 0, 79, 96
1, 27194, Note_off_c, 0, 79, 96
1, 27206, Note_on_c, 0, 79, 105
1, 27424, Note_off_c, 0, 79, 105
1, 27669, Note_on_c, 0, 77, 102
1, 27713, Note_off_c, 0, 77, 102
1, 27717, Note_on_c, 0, 79, 106
1, 27842, Note_off_c, 0, 79, 106
1, 27849, Note_on_c, 0, 79, 107
1, 27942, Note_off_c, 0, 79, 107
1, 27952, Note_on_c, 0, 79, 108
1, 28038, Note_off_c, 0, 79, 108
1, 28053, Note_on_c, 0, 76, 112
1, 28098, Note_off_c, 0, 76, 112
1, 28102, Note_on_c, 0, 72, 95
1, 28265, Note_off_c, 0, 72, 95
1, 28427, Note_on_c, 0, 77, 100
1, 28442, Note_off_c, 0, 77, 100
1, 28447, Note_on_c, 0, 79, 107
1, 28614, Note_off_c, 0, 79, 107
1, 28619, Note_on_c, 0, 79, 106
1, 28713, Note_off_c, 0, 79, 106
1, 28720, Note_on_c, 0, 79, 106
1, 28813, Note_off_c, 0, 79, 106
1, 28819, Note_on_c, 0, 75, 101
1, 28910, Note_off_c, 0, 75, 101
1, 28918, Note_on_c, 0, 72, 97
1, 28992, Note_off_c, 0, 72, 97
1, 29007, Note_on_c, 0, 68, 107
1, 29068, Note_off_c, 0, 68, 107
1, 29068, Note_on_c, 0, 67, 104
1, 29156, Note_off_c, 0, 67, 104
1, 29164, Note_on_c, 0, 65, 104
1, 29221, Note_off_c, 0, 65, 104
1, 29230, Note_on_c, 0, 64, 101
1, 29258, Note_off_c, 0, 64, 101
1, 29283, Note_on_c, 0, 69, 105
1, 29322, Note_off_c, 0, 69, 105
1, 29329, Note_on_c, 0, 69, 97
1, 29372, Note_off_c, 0, 69, 97
1, 29378, Note_on_c, 0, 68, 99
1, 29417, Note_off_c, 0, 68, 99
1, 29423, Note_on_c, 0, 67, 99
1, 29466, Note_off_c, 0, 67, 99
1, 29474, Note_on_c, 0, 66, 100
1, 29518, Note_off_c, 0, 66, 100
1, 29527, Note_on_c, 0, 67, 92
1, 29567, Note_off_c, 0, 67, 92
1, 29568, Note_on_c, 0, 68, 95
1, 29622, Note_off_c, 0, 68, 95
1, 29622, Note_on_c, 0, 66, 95
1, 29671, Note_off_c, 0, 66, 95
1, 29677, Note_on_c, 0, 67, 100
1, 29718, Note_off_c, 0, 67, 100
1, 29723, Note_on_c, 0, 66, 100
1, 29772, Note_off_c, 0, 66, 100
1, 29776, Note_on_c, 0, 65, 101
1, 29817, Note_off_c, 0, 65, 101
1, 29817, Note_on_c, 0, 64, 104
1, 29868, Note_off_c, 0, 64, 104
1, 29872, Note_on_c, 0, 63, 9
1, 29913, Note_off_c, 0, 63, 9
1, 29917, Note_on_c, 0, 65, 9
1, 29958, Note_off_c, 0, 65, 9
1, 29964, Note_on_c, 0, 67, 9
1, 29999, Note_off_c, 0, 67, 9
1, 29999, Note_on_c, 0, 64, 9
1, 30034, Note_off_c, 0, 64, 9
1, 30042, Note_on_c, 0, 65, 9
1, 30071, Note_off_c, 0, 65, 9
1, 30073, Note_on_c, 0, 64, 9
1, 30131, Note_off_c, 0, 64, 9
1, 30136, Note_on_c, 0, 63, 9
1, 30164, Note_off_c, 0, 63, 9
1, 30176, Note_on_c, 0, 65, 9
1, 30196, Note_off_c, 0, 65, 9
1, 30205, Note_on_c, 0, 67, 9
1, 30233, Note_off_c, 0, 67, 9
1, 30235, Note_on_c, 0, 65, 9
1, 30284, Note_off_c, 0, 65, 9
1, 30287, Note_on_c, 0, 63, 9
1, 30321, Note_off_c, 0, 63, 9
1, 30324, Note_on_c, 0, 62, 9
1, 30359, Note_off_c, 0, 62, 9
1, 30373, Note_on_c, 0, 60, 9
1, 30419, Note_off_c, 0, 60, 9
1, 30422, Note_on_c, 0, 59, 9
1, 30456, Note_off_c, 0, 59, 9
1, 30475, Note_on_c, 0, 54, 9
1, 30511, Note_off_c, 0, 54, 9
1, 30532, Note_on_c, 0, 56, 9
1, 30569, Note_off_c, 0, 56, 9
1, 30575, Note_on_c, 0, 65, 9
1, 30606, Note_off_c, 0, 65, 9
1, 30609, Note_on_c, 0, 59, 9
1, 30661, Note_off_c, 0, 59, 9
1, 30674, Note_on_c, 0, 60, 9
1, 30708, Note_on_c, 0, 66, 9
1, 30708, Note_off_c, 0, 60, 9
1, 30750, Note_off_c, 0, 66, 9
1, 30754, Note_on_c, 0, 68, 9
1, 30802, Note_off_c, 0, 68, 9
1, 30809, Note_on_c, 0, 67, 9
1, 30828, Note_off_c, 0, 67, 9
1, 30835, Note_on_c, 0, 69, 9
1, 30869, Note_off_c, 0, 69, 9
1, 30874, Note_on_c, 0, 65, 93
1, 30912, Note_off_c, 0, 65, 93
1, 30913, Note_on_c, 0, 66, 97
1, 30943, Note_off_c, 0, 66, 97
1, 30945, Note_on_c, 0, 67, 95
1, 30974, Note_off_c, 0, 67, 95
1, 30994, Note_on_c, 0, 65, 106
1, 31037, Note_off_c, 0, 65, 106
1, 31044, Note_on_c, 0, 62, 85
1, 31079, Note_off_c, 0, 62, 85
1, 31079, Note_on_c, 0, 59, 9
1, 31117, Note_off_c, 0, 59, 9
1, 31117, Note_on_c, 0, 55, 9
1, 31171, Note_off_c, 0, 55, 9
1, 31178, Note_on_c, 0, 57, 9
1, 31304, Note_off_c, 0, 57, 9
1, 31792, Note_on_c, 0, 55, 9
1, 31832, Note_off_c, 0, 55, 9
1, 31836, Note_on_c, 0, 56, 9
1, 31891, Note_off_c, 0, 56, 9
1, 31897, Note_on_c, 0, 62, 9
1, 31935, Note_off_c, 0, 62, 9
1, 31940, Note_on_c, 0, 59, 9
1, 31990, Note_off_c, 0, 59, 9
1, 31992, Note_on_c, 0, 62, 9
1, 32027, Note_off_c, 0, 62, 9
1, 32030, Note_on_c, 0, 65, 9
1, 32062, Note_off_c, 0, 65, 9
1, 32066, Note_on_c, 0, 68, 9
1, 32115, Note_off_c, 0, 68, 9
1, 32123, Note_on_c, 0, 67, 9
1, 32165, Note_off_c, 0, 67, 9
1, 32172, Note_on_c, 0, 68, 9
1, 32202, Note_off_c, 0, 68, 9
1, 32209, Note_on_c, 0, 69, 9
1, 32260, Note_off_c, 0, 69, 9
1, 32298, Note_on_c, 0, 65, 9
1, 32358, Note_off_c, 0, 65, 9
1, 32365, Note_on_c, 0, 67, 9
1, 32407, Note_off_c, 0, 67, 9
1, 32682, Note_on_c, 0, 66, 9
1, 32699, Note_off_c, 0, 66, 9
1, 32708, Note_on_c, 0, 67, 9
1, 32892, Note_off_c, 0, 67, 9
1, 32901, Note_on_c, 0, 63, 9
1, 32950, Note_off_c, 0, 63, 9
1, 32953, Note_on_c, 0, 65, 9
1, 32991, Note_off_c, 0, 65, 9
1, 32993, Note_on_c, 0, 67, 9
1, 33024, Note_off_c, 0, 67, 9
1, 33034, Note_on_c, 0, 67, 9
1, 33074, Note_off_c, 0, 67, 9
1, 33088, Note_on_c, 0, 63, 9
1, 33116, Note_off_c, 0, 63, 9
1, 33128, Note_on_c, 0, 65, 9
1, 33157, Note_off_c, 0, 65, 9
1, 33162, Note_on_c, 0, 67, 9
1, 33210, Note_off_c, 0, 67, 9
1, 33212, Note_on_c, 0, 67, 9
1, 33247, Note_off_c, 0, 67, 9
1, 33248, Note_on_c, 0, 65, 9
1, 33301, Note_off_c, 0, 65, 9
1, 33302, Note_on_c, 0, 67, 9
1, 33353, Note_off_c, 0, 67, 9
1, 33354, Note_on_c, 0, 68, 9
1, 33388, Note_off_c, 0, 68, 9
1, 33390, Note_on_c, 0, 67, 9
1, 33438, Note_off_c, 0, 67, 9
1, 33449, Note_on_c, 0, 72, 9
1, 33484, Note_off_c, 0, 72, 9
1, 33495, Note_on_c, 0, 67, 9
1, 33541, Note_off_c, 0, 67, 9
1, 33547, Note_on_c, 0, 68, 9
1, 33591, Note_off_c, 0, 68, 9
1, 33593, Note_on_c, 0, 67, 9
1, 33625, Note_off_c, 0, 67, 9
1, 33627, Note_on_c, 0, 65, 9
1, 33679, Note_off_c, 0, 65, 9
1, 33691, Note_on_c, 0, 67, 9
1, 33742, Note_off_c, 0, 67, 9
1, 33747, Note_on_c, 0, 68, 9
1, 33785, Note_off_c, 0, 68, 9
1, 33787, Note_on_c, 0, 67, 9
1, 33830, Note_off_c, 0, 67, 9
1, 33830, Note_on_c, 0, 65, 9
1, 33908, Note_off_c, 0, 65, 9
1, 34248, Note_on_c, 0, 53, 121
1, 34290, Note_off_c, 0, 53, 121
1, 34290, Note_on_c, 0, 56, 120
1, 34334, Note_off_c, 0, 56, 120
1, 34352, Note_on_c, 0, 58, 127
1, 34392, Note_off_c, 0, 58, 127
1, 34399, Note_on_c, 0, 59, 9
1, 34457, Note_off_c, 0, 59, 9
1, 34484, Note_on_c, 0, 65, 9
1, 34526, Note_off_c, 0, 65, 9
1, 34535, Note_on_c, 0, 68, 9
1, 34569, Note_off_c, 0, 68, 9
1, 34587, Note_on_c, 0, 64, 9
1, 34631, Note_off_c, 0, 64, 9
1, 34635, Note_on_c, 0, 65, 9
1, 34673, Note_off_c, 0, 65, 9
1, 34687, Note_on_c, 0, 67, 9
1, 34721, Note_off_c, 0, 67, 9
1, 34734, Note_on_c, 0, 64, 9
1, 34774, Note_off_c, 0, 64, 9
1, 34778, Note_on_c, 0, 65, 9
1, 34818, Note_off_c, 0, 65, 9
1, 34825, Note_on_c, 0, 67, 9
1, 34852, Note_off_c, 0, 67, 9
1, 34853, Note_on_c, 0, 68, 9
1, 34901, Note_off_c, 0, 68, 9
1, 34917, Note_on_c, 0, 70, 9
1, 34945, Note_off_c, 0, 70, 9
1, 34948, Note_on_c, 0, 72, 9
1, 35002, Note_off_c, 0, 72, 9
1, 35016, Note_on_c, 0, 68, 9
1, 35055, Note_off_c, 0, 68, 9
1, 35059, Note_on_c, 0, 67, 9
1, 35093, Note_off_c, 0, 67, 9
1, 35093, Note_on_c, 0, 70, 9
1, 35139, Note_off_c, 0, 70, 9
1, 35145, Note_on_c, 0, 68, 9
1, 35190, Note_off_c, 0, 68, 9
1, 35204, Note_on_c, 0, 65, 9
1, 35232, Note_off_c, 0, 65, 9
1, 35239, Note_on_c, 0, 67, 9
1, 35283, Note_off_c, 0, 67, 9
1, 35284, Note_on_c, 0, 66, 9
1, 35343, Note_off_c, 0, 66, 9
1, 35343, Note_on_c, 0, 65, 9
1, 35382, Note_off_c, 0, 65, 9
1, 35389, Note_on_c, 0, 64, 9
1, 35420, Note_off_c, 0, 64, 9
1, 35424, Note_on_c, 0, 63, 9
1, 35471, Note_off_c, 0, 63, 9
1, 35481, Note_on_c, 0, 62, 9
1, 35516, Note_off_c, 0, 62, 9
1, 35519, Note_on_c, 0, 60, 9
1, 35557, Note_off_c, 0, 60, 9
1, 35561, Note_on_c, 0, 62, 9
1, 35603, Note_off_c, 0, 62, 9
1, 35605, Note_on_c, 0, 63, 9
1, 35651, Note_off_c, 0, 63, 9
1, 35653, Note_on_c, 0, 65, 9
1, 35717, Note_off_c, 0, 65, 9
1, 35717, Note_on_c, 0, 62, 9
1, 35745, Note_off_c, 0, 62, 9
1, 35751, Note_on_c, 0, 60, 9
1, 35800, Note_off_c, 0, 60, 9
1, 35801, Note_on_c, 0, 56, 9
1, 35844, Note_off_c, 0, 56, 9
1, 35852, Note_on_c, 0, 53, 9
1, 35889, Note_off_c, 0, 53, 9
1, 35897, Note_on_c, 0, 58, 9
1, 35950, Note_off_c, 0, 58, 9
1, 35953, Note_on_c, 0, 53, 9
1, 35990, Note_off_c, 0, 53, 9
1, 35995, Note_on_c, 0, 46, 9
1, 36035, Note_on_c, 0, 53, 9
1, 36035, Note_off_c, 0, 46, 9
1, 36083, Note_off_c, 0, 53, 9
1, 36084, Note_on_c, 0, 50, 9
1, 36108, Note_off_c, 0, 50, 9
1, 36108, Note_on_c, 0, 46, 9
1, 36154, Note_off_c, 0, 46, 9
1, 36167, Note_on_c, 0, 45, 9
1, 36216, Note_off_c, 0, 45, 9
1, 36222, Note_on_c, 0, 44, 9
1, 36331, Note_off_c, 0, 44, 9
1, 36692, Note_on_c, 0, 67, 9
1, 36734, Note_off_c, 0, 67, 9
1, 36735, Note_on_c, 0, 69, 9
1, 36782, Note_off_c, 0, 69, 9
1, 36790, Note_on_c, 0, 71, 9
1, 36833, Note_off_c, 0, 71, 9
1, 36839, Note_on_c, 0, 67, 9
1, 36870, Note_off_c, 0, 67, 9
1, 36873, Note_on_c, 0, 69, 9
1, 36920, Note_off_c, 0, 69, 9
1, 36922, Note_on_c, 0, 65, 9
1, 36959, Note_off_c, 0, 65, 9
1, 36966, Note_on_c, 0, 64, 9
1, 37011, Note_off_c, 0, 64, 9
1, 37015, Note_on_c, 0, 62, 9
1, 37047, Note_off_c, 0, 62, 9
1, 37053, Note_on_c, 0, 67, 9
1, 37090, Note_off_c, 0, 67, 9
1, 37094, Note_on_c, 0, 66, 9
1, 37151, Note_off_c, 0, 66, 9
1, 37157, Note_on_c, 0, 65, 9
1, 37189, Note_off_c, 0, 65, 9
1, 37192, Note_on_c, 0, 64, 9
1, 37238, Note_off_c, 0, 64, 9
1, 37238, Note_on_c, 0, 63, 9
1, 37287, Note_off_c, 0, 63, 9
1, 37289, Note_on_c, 0, 61, 9
1, 37328, Note_off_c, 0, 61, 9
1, 37332, Note_on_c, 0, 58, 9
1, 37387, Note_off_c, 0, 58, 9
1, 37391, Note_on_c, 0, 55, 9
1, 37437, Note_off_c, 0, 55, 9
1, 37449, Note_on_c, 0, 57, 9
1, 37495, Note_off_c, 0, 57, 9
1, 37498, Note_on_c, 0, 59, 9
1, 37551, Note_off_c, 0, 59, 9
1, 37555, Note_on_c, 0, 62, 9
1, 37591, Note_off_c, 0, 62, 9
1, 37618, Note_on_c, 0, 59, 9
1, 37654, Note_off_c, 0, 59, 9
1, 37658, Note_on_c, 0, 60, 9
1, 37704, Note_off_c, 0, 60, 9
1, 37707, Note_on_c, 0, 64, 9
1, 37744, Note_off_c, 0, 64, 9
1, 37750, Note_on_c, 0, 67, 9
1, 37792, Note_off_c, 0, 67, 9
1, 37804, Note_on_c, 0, 72, 9
1, 39592, Note_off_c, 0, 72, 9
1, 39818, Note_on_c, 0, 69, 9
1, 39846, Note_off_c, 0, 69, 9
1, 39866, Note_on_c, 0, 72, 9
1, 40638, Note_off_c, 0, 72, 9
1, 40700, Note_on_c, 0, 45, 9
1, 40737, Note_off_c, 0, 45, 9
1, 40757, Note_on_c, 0, 53, 9
1, 40786, Note_off_c, 0, 53, 9
1, 40786, Note_on_c, 0, 57, 9
1, 40823, Note_off_c, 0, 57, 9
1, 40828, Note_on_c, 0, 57, 9
1, 40870, Note_off_c, 0, 57, 9
1, 40880, Note_on_c, 0, 53, 9
1, 40921, Note_off_c, 0, 53, 9
1, 40921, Note_on_c, 0, 58, 9
1, 40961, Note_off_c, 0, 58, 9
1, 40961, Note_on_c, 0, 59, 9
1, 41008, Note_off_c, 0, 59, 9
1, 41015, Note_on_c, 0, 69, 9
1, 41058, Note_off_c, 0, 69, 9
1, 41058, Note_on_c, 0, 65, 9
1, 41108, Note_off_c, 0, 65, 9
1, 41113, Note_on_c, 0, 69, 9
1, 41161, Note_off_c, 0, 69, 9
1, 41163, Note_on_c, 0, 65, 9
1, 41211, Note_off_c, 0, 65, 9
1, 41215, Note_on_c, 0, 69, 9
1, 41257, Note_off_c, 0, 69, 9
1, 41261, Note_on_c, 0, 70, 9
1, 41302, Note_off_c, 0, 70, 9
1, 41303, Note_on_c, 0, 72, 9
1, 41345, Note_off_c, 0, 72, 9
1, 41348, Note_on_c, 0, 69, 9
1, 41405, Note_off_c, 0, 69, 9
1, 41408, Note_on_c, 0, 70, 9
1, 41447, Note_off_c, 0, 70, 9
1, 41457, Note_on_c, 0, 72, 9
1, 41497, Note_off_c, 0, 72, 9
1, 41512, Note_on_c, 0, 69, 9
1, 41553, Note_off_c, 0, 69, 9
1, 41557, Note_on_c, 0, 72, 9
1, 41599, Note_off_c, 0, 72, 9
1, 41603, Note_on_c, 0, 74, 9
1, 41724, Note_off_c, 0, 74, 9
1, 42040, Note_on_c, 0, 74, 9
1, 42072, Note_off_c, 0, 74, 9
1, 42075, Note_on_c, 0, 73, 9
1, 42157, Note_off_c, 0, 73, 9
1, 42164, Note_on_c, 0, 77, 9
1, 42724, Note_on_c, 0, 75, 9
1, 42724, Note_off_c, 0, 77, 9
1, 42780, Note_off_c, 0, 75, 9
1, 42783, Note_on_c, 0, 76, 9
1, 42875, Note_off_c, 0, 76, 9
1, 42910, Note_on_c, 0, 71, 9
1, 42958, Note_off_c, 0, 71, 9
1, 42970, Note_on_c, 0, 67, 9
1, 43018, Note_off_c, 0, 67, 9
1, 43053, Note_on_c, 0, 64, 9
1, 43077, Note_off_c, 0, 64, 9
1, 43100, Note_on_c, 0, 70, 9
1, 43208, Note_off_c, 0, 70, 9
1, 43215, Note_on_c, 0, 69, 9
1, 43250, Note_off_c, 0, 69, 9
1, 43250, Note_on_c, 0, 70, 9
1, 43303, Note_off_c, 0, 70, 9
1, 43326, Note_on_c, 0, 67, 9
1, 43374, Note_off_c, 0, 67, 9
1, 43383, Note_on_c, 0, 67, 9
1, 43436, Note_off_c, 0, 67, 9
1, 43438, Note_on_c, 0, 67, 9
1, 43473, Note_off_c, 0, 67, 9
1, 43477, Note_on_c, 0, 68, 9
1, 43504, Note_off_c, 0, 68, 9
1, 43504, Note_on_c, 0, 66, 9
1, 43543, Note_off_c, 0, 66, 9
1, 43544, Note_on_c, 0, 65, 9
1, 43579, Note_off_c, 0, 65, 9
1, 43580, Note_on_c, 0, 64, 9
1, 43625, Note_off_c, 0, 64, 9
1, 43632, Note_on_c, 0, 63, 9
1, 43666, Note_off_c, 0, 63, 9
1, 43673, Note_on_c, 0, 65, 9
1, 43725, Note_off_c, 0, 65, 9
1, 43732, Note_on_c, 0, 67, 9
1, 43805, Note_off_c, 0, 67, 9
1, 43824, Note_on_c, 0, 65, 9
1, 43874, Note_off_c, 0, 65, 9
1, 43874, Note_on_c, 0, 64, 9
1, 43924, Note_off_c, 0, 64, 9
1, 43925, Note_on_c, 0, 63, 9
1, 43978, Note_off_c, 0, 63, 9
1, 43981, Note_on_c, 0, 67, 9
1, 44027, Note_off_c, 0, 67, 9
1, 44033, Note_on_c, 0, 66, 9
1, 44076, Note_off_c, 0, 66, 9
1, 44083, Note_on_c, 0, 64, 9
1, 44117, Note_off_c, 0, 64, 9
1, 44120, Note_on_c, 0, 63, 9
1, 44166, Note_off_c, 0, 63, 9
1, 44171, Note_on_c, 0, 60, 9
1, 44215, Note_off_c, 0, 60, 9
1, 44249, Note_on_c, 0, 59, 9
1, 44293, Note_off_c, 0, 59, 9
1, 44320, Note_on_c, 0, 59, 9
1, 44359, Note_off_c, 0, 59, 9
1, 44360, Note_on_c, 0, 63, 9
1, 44399, Note_off_c, 0, 63, 9
1, 44411, Note_on_c, 0, 67, 9
1, 44450, Note_off_c, 0, 67, 9
1, 44462, Note_on_c, 0, 63, 9
1, 44498, Note_off_c, 0, 63, 9
1, 44505, Note_on_c, 0, 59, 9
1, 44546, Note_off_c, 0, 59, 9
1, 44558, Note_on_c, 0, 55, 9
1, 44604, Note_off_c, 0, 55, 9
1, 44613, Note_on_c, 0, 60, 9
1, 44645, Note_off_c, 0, 60, 9
1, 44652, Note_on_c, 0, 63, 9
1, 44686, Note_off_c, 0, 63, 9
1, 44687, Note_on_c, 0, 67, 9
1, 44715, Note_off_c, 0, 67, 9
1, 44720, Note_on_c, 0, 72, 9
1, 44786, Note_off_c, 0, 72, 9
1, 44793, Note_on_c, 0, 75, 9
1, 44949, Note_off_c, 0, 75, 9
1, 45308, Note_on_c, 0, 77, 9
1, 45444, Note_off_c, 0, 77, 9
1, 45446, Note_on_c, 0, 75, 9
1, 45517, Note_off_c, 0, 75, 9
1, 45573, Note_on_c, 0, 74, 9
1, 45657, Note_off_c, 0, 74, 9
1, 45660, Note_on_c, 0, 72, 9
1, 45721, Note_off_c, 0, 72, 9
1, 45771, Note_on_c, 0, 70, 9
1, 45902, Note_off_c, 0, 70, 9
1, 45929, Note_on_c, 0, 68, 9
1, 45970, Note_off_c, 0, 68, 9
1, 45980, Note_on_c, 0, 67, 9
1, 46074, Note_off_c, 0, 67, 9
1, 46094, Note_on_c, 0, 65, 9
1, 46142, Note_off_c, 0, 65, 9
1, 46147, Note_on_c, 0, 64, 9
1, 46187, Note_off_c, 0, 64, 9
1, 46188, Note_on_c, 0, 65, 9
1, 46227, Note_off_c, 0, 65, 9
1, 46229, Note_on_c, 0, 67, 9
1, 46276, Note_off_c, 0, 67, 9
1, 46276, Note_on_c, 0, 64, 9
1, 46314, Note_off_c, 0, 64, 9
1, 46345, Note_on_c, 0, 58, 9
1, 46386, Note_off_c, 0, 58, 9
1, 46390, Note_on_c, 0, 60, 9
1, 46427, Note_off_c, 0, 60, 9
1, 46427, Note_on_c, 0, 64, 9
1, 46467, Note_off_c, 0, 64, 9
1, 46474, Note_on_c, 0, 67, 9
1, 46497, Note_off_c, 0, 67, 9
1, 46506, Note_on_c, 0, 71, 9
1, 46527, Note_off_c, 0, 71, 9
1, 46557, Note_on_c, 0, 75, 9
1, 46789, Note_off_c, 0, 75, 9
1, 46791, Note_on_c, 0, 73, 9
1, 46864, Note_off_c, 0, 73, 9
1, 46908, Note_on_c, 0, 71, 9
1, 46920, Note_off_c, 0, 71, 9
1, 46926, Note_on_c, 0, 72, 9
1, 47004, Note_off_c, 0, 72, 9
1, 47009, Note_on_c, 0, 68, 9
1, 47057, Note_off_c, 0, 68, 9
1, 47059, Note_on_c, 0, 65, 9
1, 47268, Note_off_c, 0, 65, 9
1, 47577, Note_on_c, 0, 67, 9
1, 47628, Note_off_c, 0, 67, 9
1, 47638, Note_on_c, 0, 64, 9
1, 47682, Note_off_c, 0, 64, 9
1, 47694, Note_on_c, 0, 65, 9
1, 47807, Note_off_c, 0, 65, 9
1, 47816, Note_on_c, 0, 67, 9
1, 47865, Note_off_c, 0, 67, 9
1, 47869, Note_on_c, 0, 64, 9
1, 47901, Note_off_c, 0, 64, 9
1, 47909, Note_on_c, 0, 65, 9
1, 47974, Note_off_c, 0, 65, 9
1, 47980, Note_on_c, 0, 65, 9
1, 48019, Note_off_c, 0, 65, 9
1, 48026, Note_on_c, 0, 67, 9
1, 48080, Note_off_c, 0, 67, 9
1, 48098, Note_on_c, 0, 64, 9
1, 48155, Note_off_c, 0, 64, 9
1, 48159, Note_on_c, 0, 65, 9
1, 48307, Note_off_c, 0, 65, 9
1, 48327, Note_on_c, 0, 67, 9
1, 48390, Note_off_c, 0, 67, 9
1, 48395, Note_on_c, 0, 68, 9
1, 48458, Note_off_c, 0, 68, 9
1, 48473, Note_on_c, 0, 67, 9
1, 48632, Note_off_c, 0, 67, 9
1, 48638, Note_on_c, 0, 67, 9
1, 48700, Note_off_c, 0, 67, 9
1, 48703, Note_on_c, 0, 69, 9
1, 48871, Note_off_c, 0, 69, 9
1, 48874, Note_on_c, 0, 69, 9
1, 48903, Note_off_c, 0, 69, 9
1, 48905, Note_on_c, 0, 71, 9
1, 48991, Note_off_c, 0, 71, 9
1, 49016, Note_on_c, 0, 72, 9
1, 49118, Note_off_c, 0, 72, 9
1, 49122, Note_on_c, 0, 74, 9
1, 49230, Note_off_c, 0, 74, 9
1, 49231, Note_on_c, 0, 75, 9
1, 49440, Note_off_c, 0, 75, 9
1, 49715, Note_on_c, 0, 67, 9
1, 49809, Note_off_c, 0, 67, 9
1, 49836, Note_on_c, 0, 75, 9
1, 49896, Note_off_c, 0, 75, 9
1, 49926, Note_on_c, 0, 71, 9
1, 49997, Note_off_c, 0, 71, 9
1, 50013, Note_on_c, 0, 74, 9
1, 50089, Note_off_c, 0, 74, 9
1, 50096, Note_on_c, 0, 72, 9
1, 50165, Note_off_c, 0, 72, 9
1, 50169, Note_on_c, 0, 67, 9
1, 50247, Note_off_c, 0, 67, 9
1, 50250, Note_on_c, 0, 63, 9
1, 50328, Note_off_c, 0, 63, 9
1, 50332, Note_on_c, 0, 60, 9
1, 50400, Note_off_c, 0, 60, 9
1, 50400, Note_on_c, 0, 70, 9
1, 50451, Note_off_c, 0, 70, 9
1, 50460, Note_on_c, 0, 68, 9
1, 50497, Note_off_c, 0, 68, 9
1, 50498, Note_on_c, 0, 64, 9
1, 50542, Note_off_c, 0, 64, 9
1, 50543, Note_on_c, 0, 59, 9
1, 50584, Note_off_c, 0, 59, 9
1, 50584, Note_on_c, 0, 58, 9
1, 50627, Note_off_c, 0, 58, 9
1, 50627, Note_on_c, 0, 56, 9
1, 50707, Note_off_c, 0, 56, 9
1, 50753, Note_on_c, 0, 52, 9
1, 50795, Note_off_c, 0, 52, 9
1, 50796, Note_on_c, 0, 55, 9
1, 50957, Note_off_c, 0, 55, 9
1, 50957, End_track
0, 0, End_of_file
