0, 0, Header, 1, 1, 840
1, 0, Start_track
1, 0, Note_on_c, 0, 57, 103
1, 194, Note_off_c, 0, 57, 103
1, 194, Note_on_c, 0, 55, 95
1, 366, Note_on_c, 0, 60, 92
1, 366, Note_off_c, 0, 55, 95
1, 613, Note_off_c, 0, 60, 92
1, 635, Note_on_c, 0, 57, 95
1, 833, Note_off_c, 0, 57, 95
1, 833, Note_on_c, 0, 53, 97
1, 993, Note_off_c, 0, 53, 97
1, 1007, Note_on_c, 0, 55, 100
1, 1276, Note_off_c, 0, 55, 100
1, 1283, Note_on_c, 0, 51, 102
1, 1455, Note_off_c, 0, 51, 102
1, 1455, Note_on_c, 0, 50, 98
1, 1619, Note_off_c, 0, 50, 98
1, 1619, Note_on_c, 0, 48, 90
1, 1776, Note_off_c, 0, 48, 90
1, 1877, Note_on_c, 0, 53, 103
1, 2079, Note_off_c, 0, 53, 103
1, 2084, Note_on_c, 0, 50, 95
1, 2275, Note_off_c, 0, 50, 95
1, 2280, Note_on_c, 0, 51, 92
1, 2455, Note_on_c, 0, 53, 99
1, 2455, Note_off_c, 0, 51, 92
1, 2646, Note_off_c, 0, 53, 99
1, 2678, Note_on_c, 0, 55, 89
1, 2861, Note_off_c, 0, 55, 89
1, 2874, Note_on_c, 0, 58, 96
1, 3092, Note_off_c, 0, 58, 96
1, 3092, Note_on_c, 0, 57, 92
1, 3245, Note_off_c, 0, 57, 92
1, 4162, Note_on_c, 0, 61, 93
1, 4293, Note_off_c, 0, 61, 93
1, 4307, Note_on_c, 0, 65, 114
1, 4527, Note_off_c, 0, 65, 114
1, 4541, Note_on_c, 0, 61, 117
1, 4724, Note_off_c, 0, 61, 117
1, 4738, Note_on_c, 0, 58, 92
1, 4912, Note_off_c, 0, 58, 92
1, 4912, Note_on_c, 0, 53, 85
1, 5092, Note_off_c, 0, 53, 85
1, 5144, Note_on_c, 0, 63, 114
1, 5346, Note_off_c, 0, 63, 114
1, 5372, Note_on_c, 0, 60, 108
1, 5555, Note_off_c, 0, 60, 108
1, 5555, Note_on_c, 0, 56, 105
1, 5719, Note_off_c, 0, 56, 105
1, 5730, Note_on_c, 0, 53, 91
1, 5924, Note_off_c, 0, 53, 91
1, 5998, Note_on_c, 0, 58, 99
1, 6162, Note_off_c, 0, 58, 99
1, 6210, Note_on_c, 0, 53, 107
1, 6348, Note_off_c, 0, 53, 107
1, 6377, Note_on_c, 0, 49, 104
1, 6537, Note_off_c, 0, 49, 104
1, 6563, Note_on_c, 0, 53, 100
1, 6716, Note_off_c, 0, 53, 100
1, 6753, Note_on_c, 0, 51, 99
1, 7175, Note_off_c, 0, 51, 99
1, 7234, Note_on_c, 0, 46, 99
1, 7466, Note_off_c, 0, 46, 99
1, 7503, Note_on_c, 0, 44, 112
1, 7966, Note_off_c, 0, 44, 112
1, 11676, Note_on_c, 0, 74, 114
1, 11859, Note_off_c, 0, 74, 114
1, 11922, Note_on_c, 0, 75, 117
1, 12112, Note_off_c, 0, 75, 117
1, 12112, Note_on_c, 0, 74, 109
1, 12317, Note_off_c, 0, 74, 109
1, 12320, Note_on_c, 0, 70, 109
1, 12495, Note_off_c, 0, 70, 109
1, 12509, Note_on_c, 0, 65, 104
1, 12688, Note_off_c, 0, 65, 104
1, 12699, Note_on_c, 0, 66, 111
1, 12897, Note_on_c, 0, 65, 112
1, 12897, Note_off_c, 0, 66, 111
1, 13087, Note_off_c, 0, 65, 112
1, 13120, Note_on_c, 0, 62, 114
1, 13322, Note_off_c, 0, 62, 114
1, 13359, Note_on_c, 0, 58, 98
1, 13531, Note_off_c, 0, 58, 98
1, 13546, Note_on_c, 0, 63, 88
1, 19816, Note_off_c, 0, 63, 88
1, 19837, Note_on_c, 0, 63, 99
1, 20348, Note_off_c, 0, 63, 99
1, 20390, Note_on_c, 0, 63, 101
1, 20666, Note_off_c, 0, 63, 101
1, 20687, Note_on_c, 0, 63, 106
1, 21048, Note_off_c, 0, 63, 106
1, 21090, Note_on_c, 0, 63, 110
1, 21558, Note_off_c, 0, 63, 110
1, 21589, Note_on_c, 0, 63, 111
1, 21982, Note_off_c, 0, 63, 111
1, 22024, Note_on_c, 0, 63, 100
1, 22588, Note_off_c, 0, 63, 100
1, 24845, Note_on_c, 0, 74, 105
1, 24999, Note_off_c, 0, 74, 105
1, 25020, Note_on_c, 0, 72, 106
1, 25089, Note_off_c, 0, 72, 106
1, 25104, Note_on_c, 0, 70, 110
1, 25231, Note_off_c, 0, 70, 110
1, 25278, Note_on_c, 0, 68, 114
1, 25565, Note_off_c, 0, 68, 114
1, 25698, Note_on_c, 0, 72, 103
1, 25878, Note_off_c, 0, 72, 103
1, 25888, Note_on_c, 0, 70, 107
1, 25957, Note_off_c, 0, 70, 107
1, 25983, Note_on_c, 0, 68, 109
1, 26158, Note_off_c, 0, 68, 109
1, 26189, Note_on_c, 0, 66, 109
1, 26444, Note_off_c, 0, 66, 109
1, 26502, Note_on_c, 0, 70, 92
1, 26629, Note_off_c, 0, 70, 92
1, 26650, Note_on_c, 0, 68, 105
1, 26756, Note_off_c, 0, 68, 105
1, 26771, Note_on_c, 0, 66, 108
1, 26898, Note_off_c, 0, 66, 108
1, 26932, Note_on_c, 0, 65, 110
1, 27003, Note_off_c, 0, 65, 110
1, 27017, Note_on_c, 0, 64, 117
1, 27589, Note_off_c, 0, 64, 117
1, 27598, Note_on_c, 0, 72, 100
1, 35401, Note_off_c, 0, 72, 100
1, 37879, Title_t, "Melody"
1, 37879, Tempo, 458015
1, 37879, Key_signature, -3, "major"
1, 37879, Time_signature, 4, 2, 24, 8
1, 38115, Note_on_c, 0, 70, 108
1, 38306, Note_on_c, 0, 68, 111
1, 38306, Note_off_c, 0, 70, 108
1, 38534, Note_off_c, 0, 68, 111
1, 38565, Note_on_c, 0, 66, 111
1, 38756, Note_off_c, 0, 66, 111
1, 38782, Note_on_c, 0, 65, 115
1, 38947, Note_off_c, 0, 65, 115
1, 38978, Note_on_c, 0, 63, 122
1, 39190, Note_off_c, 0, 63, 122
1, 39221, Note_on_c, 0, 62, 113
1, 39370, Note_off_c, 0, 62, 113
1, 39391, Note_on_c, 0, 65, 113
1, 39587, Note_off_c, 0, 65, 113
1, 39608, Note_on_c, 0, 63, 121
1, 39773, Note_off_c, 0, 63, 121
1, 39788, Note_on_c, 0, 62, 118
1, 39984, Note_off_c, 0, 62, 118
1, 39999, Note_on_c, 0, 58, 100
1, 40185, Note_on_c, 0, 53, 102
1, 40185, Note_off_c, 0, 58, 100
1, 40397, Note_off_c, 0, 53, 102
1, 40412, Note_on_c, 0, 54, 101
1, 41051, Note_off_c, 0, 54, 101
1, 41051, Note_on_c, 0, 63, 94
1, 47091, Note_off_c, 0, 63, 94
1, 50636, Note_on_c, 0, 53, 90
1, 51077, Note_off_c, 0, 53, 90
1, 51082, Note_on_c, 0, 60, 111
1, 51443, Note_off_c, 0, 60, 111
1, 51443, Note_on_c, 0, 62, 114
1, 51884, Note_off_c, 0, 62, 114
1, 51910, Note_on_c, 0, 63, 116
1, 52303, Note_off_c, 0, 63, 116
1, 52313, Note_on_c, 0, 65, 105
1, 52605, Note_off_c, 0, 65, 105
1, 52727, Note_on_c, 0, 61, 111
1, 52849, Note_off_c, 0, 61, 111
1, 52864, Note_on_c, 0, 62, 108
1, 53140, Note_off_c, 0, 62, 108
1, 53177, Note_on_c, 0, 60, 107
1, 53379, Note_off_c, 0, 60, 107
1, 55737, Note_on_c, 0, 53, 94
1, 56168, Note_off_c, 0, 53, 94
1, 56183, Note_on_c, 0, 60, 113
1, 56555, Note_off_c, 0, 60, 113
1, 56560, Note_on_c, 0, 62, 116
1, 56953, Note_off_c, 0, 62, 116
1, 56974, Note_on_c, 0, 63, 114
1, 57325, Note_off_c, 0, 63, 114
1, 57388, Note_on_c, 0, 65, 106
1, 57749, Note_off_c, 0, 65, 106
1, 57844, Note_on_c, 0, 61, 112
1, 57945, Note_off_c, 0, 61, 112
1, 57950, Note_on_c, 0, 62, 110
1, 58216, Note_off_c, 0, 62, 110
1, 58231, Note_on_c, 0, 60, 93
1, 58348, Note_off_c, 0, 60, 93
1, 58369, Note_on_c, 0, 61, 102
1, 58549, Note_off_c, 0, 61, 102
1, 64596, Note_on_c, 0, 60, 111
1, 64862, Note_off_c, 0, 60, 111
1, 64883, Note_on_c, 0, 62, 114
1, 65170, Note_off_c, 0, 62, 114
1, 65179, Note_on_c, 0, 63, 116
1, 65599, Note_off_c, 0, 63, 116
1, 65635, Note_on_c, 0, 65, 111
1, 65941, Note_off_c, 0, 65, 111
1, 66004, Note_on_c, 0, 61, 111
1, 66127, Note_off_c, 0, 61, 111
1, 66134, Note_on_c, 0, 62, 113
1, 66429, Note_off_c, 0, 62, 113
1, 66440, Note_on_c, 0, 67, 106
1, 66574, Note_off_c, 0, 67, 106
1, 67746, Note_on_c, 0, 53, 98
1, 67969, Note_off_c, 0, 53, 98
1, 67984, Note_on_c, 0, 60, 97
1, 68276, Note_off_c, 0, 60, 97
1, 68318, Note_on_c, 0, 62, 111
1, 68738, Note_off_c, 0, 62, 111
1, 68743, Note_on_c, 0, 63, 114
1, 69131, Note_off_c, 0, 63, 114
1, 69141, Note_on_c, 0, 65, 108
1, 69433, Note_off_c, 0, 65, 108
1, 69518, Note_on_c, 0, 61, 108
1, 69661, Note_off_c, 0, 61, 108
1, 69698, Note_on_c, 0, 62, 111
1, 69958, Note_off_c, 0, 62, 111
1, 69979, Note_on_c, 0, 60, 108
1, 70175, Note_off_c, 0, 60, 108
1, 71063, Note_on_c, 0, 53, 96
1, 71238, Note_off_c, 0, 53, 96
1, 71264, Note_on_c, 0, 60, 106
1, 71476, Note_off_c, 0, 60, 106
1, 71507, Note_on_c, 0, 62, 109
1, 71687, Note_off_c, 0, 62, 109
1, 71687, Note_on_c, 0, 63, 114
1, 71905, Note_off_c, 0, 63, 114
1, 71931, Note_on_c, 0, 65, 105
1, 72085, Note_off_c, 0, 65, 105
1, 72191, Note_on_c, 0, 61, 99
1, 72292, Note_off_c, 0, 61, 99
1, 72302, Note_on_c, 0, 62, 102
1, 72525, Note_off_c, 0, 62, 102
1, 72562, Note_on_c, 0, 65, 108
1, 72742, Note_off_c, 0, 65, 108
1, 72981, Note_on_c, 0, 70, 108
1, 73327, Note_off_c, 0, 70, 108
1, 73332, Note_on_c, 0, 69, 103
1, 73523, Note_off_c, 0, 69, 103
1, 75673, Note_on_c, 0, 53, 97
1, 75784, Note_off_c, 0, 53, 97
1, 75805, Note_on_c, 0, 60, 108
1, 76044, Note_off_c, 0, 60, 108
1, 76049, Note_on_c, 0, 62, 116
1, 76261, Note_off_c, 0, 62, 116
1, 76287, Note_on_c, 0, 63, 115
1, 76643, Note_off_c, 0, 63, 115
1, 76653, Note_on_c, 0, 65, 109
1, 76833, Note_off_c, 0, 65, 109
1, 76875, Note_on_c, 0, 61, 108
1, 77024, Note_off_c, 0, 61, 108
1, 77029, Note_on_c, 0, 62, 110
1, 77284, Note_off_c, 0, 62, 110
1, 77310, Note_on_c, 0, 60, 110
1, 77634, Note_off_c, 0, 60, 110
1, 78980, Note_on_c, 0, 70, 112
1, 79123, Note_off_c, 0, 70, 112
1, 79149, Note_on_c, 0, 69, 111
1, 79314, Note_off_c, 0, 69, 111
1, 79377, Note_on_c, 0, 65, 100
1, 79515, Note_off_c, 0, 65, 100
1, 79525, Note_on_c, 0, 67, 108
1, 79759, Note_off_c, 0, 67, 108
1, 79780, Note_on_c, 0, 63, 117
1, 79971, Note_off_c, 0, 63, 117
1, 79992, Note_on_c, 0, 62, 113
1, 80151, Note_off_c, 0, 62, 113
1, 80188, Note_on_c, 0, 60, 111
1, 80368, Note_off_c, 0, 60, 111
1, 80421, Note_on_c, 0, 65, 109
1, 80798, Note_on_c, 0, 67, 106
1, 80798, Note_off_c, 0, 65, 109
1, 80989, Note_off_c, 0, 67, 106
1, 81228, Note_on_c, 0, 62, 115
1, 81366, Note_off_c, 0, 62, 115
1, 81381, Note_on_c, 0, 63, 115
1, 81641, Note_off_c, 0, 63, 115
1, 81656, Note_on_c, 0, 60, 95
1, 82672, Note_off_c, 0, 60, 95
1, 84084, Note_on_c, 0, 68, 114
1, 84323, Note_off_c, 0, 68, 114
1, 84345, Note_on_c, 0, 73, 100
1, 84494, Note_off_c, 0, 73, 100
1, 85429, Note_on_c, 0, 70, 109
1, 85683, Note_off_c, 0, 70, 109
1, 85727, Note_on_c, 0, 66, 105
1, 85891, Note_off_c, 0, 66, 105
1, 86340, Note_on_c, 0, 63, 117
1, 86557, Note_off_c, 0, 63, 117
1, 86583, Note_on_c, 0, 68, 110
1, 86743, Note_off_c, 0, 68, 110
1, 86986, Note_on_c, 0, 65, 112
1, 87146, Note_off_c, 0, 65, 112
1, 87329, Note_on_c, 0, 61, 107
1, 87512, Note_off_c, 0, 61, 107
1, 87523, Note_on_c, 0, 58, 89
1, 87762, Note_off_c, 0, 58, 89
1, 87762, Note_on_c, 0, 63, 117
1, 87979, Note_off_c, 0, 63, 117
1, 87979, Note_on_c, 0, 60, 108
1, 88154, Note_off_c, 0, 60, 108
1, 88168, Note_on_c, 0, 56, 100
1, 88362, Note_off_c, 0, 56, 100
1, 88384, Note_on_c, 0, 51, 102
1, 88548, Note_off_c, 0, 51, 102
1, 92159, Note_on_c, 0, 67, 116
1, 92368, Note_off_c, 0, 67, 116
1, 92368, Note_on_c, 0, 68, 113
1, 92723, Note_off_c, 0, 68, 113
1, 92794, Note_on_c, 0, 73, 102
1, 92973, Note_off_c, 0, 73, 102
1, 93014, Note_on_c, 0, 70, 108
1, 93223, Note_off_c, 0, 70, 108
1, 93248, Note_on_c, 0, 66, 108
1, 93423, Note_off_c, 0, 66, 108
1, 93438, Note_on_c, 0, 65, 110
1, 93603, Note_off_c, 0, 65, 110
1, 93618, Note_on_c, 0, 64, 120
1, 93830, Note_off_c, 0, 64, 120
1, 93845, Note_on_c, 0, 63, 116
1, 94020, Note_off_c, 0, 63, 116
1, 94030, Note_on_c, 0, 65, 108
1, 94226, Note_off_c, 0, 65, 108
1, 94226, Note_on_c, 0, 66, 102
1, 94428, Note_off_c, 0, 66, 102
1, 94497, Note_on_c, 0, 68, 113
1, 94662, Note_off_c, 0, 68, 113
1, 94683, Note_on_c, 0, 65, 112
1, 94848, Note_off_c, 0, 65, 112
1, 94858, Note_on_c, 0, 64, 115
1, 95060, Note_off_c, 0, 64, 115
1, 95065, Note_on_c, 0, 63, 111
1, 95277, Note_off_c, 0, 63, 111
1, 95282, Note_on_c, 0, 68, 110
1, 95473, Note_off_c, 0, 68, 110
1, 95478, Note_on_c, 0, 66, 107
1, 95674, Note_off_c, 0, 66, 107
1, 95684, Note_on_c, 0, 61, 112
1, 95880, Note_off_c, 0, 61, 112
1, 95890, Note_on_c, 0, 58, 103
1, 96023, Note_off_c, 0, 58, 103
1, 96028, Note_on_c, 0, 56, 100
1, 96235, Note_off_c, 0, 56, 100
1, 96282, Note_on_c, 0, 63, 118
1, 96489, Note_off_c, 0, 63, 118
1, 96504, Note_on_c, 0, 61, 112
1, 96674, Note_off_c, 0, 61, 112
1, 96674, Note_on_c, 0, 58, 93
1, 96886, Note_off_c, 0, 58, 93
1, 97104, Note_on_c, 0, 56, 106
1, 97316, Note_off_c, 0, 56, 106
1, 97337, Note_on_c, 0, 54, 105
1, 97523, Note_off_c, 0, 54, 105
1, 97560, Note_on_c, 0, 49, 108
1, 97756, Note_off_c, 0, 49, 108
1, 97756, Note_on_c, 0, 54, 107
1, 97936, Note_off_c, 0, 54, 107
1, 97979, Note_on_c, 0, 50, 123
1, 98065, Note_on_c, 0, 51, 115
1, 98065, Note_off_c, 0, 50, 123
1, 98326, Note_off_c, 0, 51, 115
1, 98344, Note_on_c, 0, 46, 114
1, 98509, Note_off_c, 0, 46, 114
1, 98524, Note_on_c, 0, 44, 114
1, 98992, Note_off_c, 0, 44, 114
1, 105727, Note_on_c, 0, 70, 112
1, 105944, Note_off_c, 0, 70, 112
1, 105951, Note_on_c, 0, 69, 114
1, 106130, Note_off_c, 0, 69, 114
1, 106159, Note_on_c, 0, 65, 102
1, 106353, Note_off_c, 0, 65, 102
1, 106353, Note_on_c, 0, 67, 109
1, 106959, Note_on_c, 0, 70, 105
1, 106959, Note_off_c, 0, 67, 109
1, 107176, Note_off_c, 0, 70, 105
1, 107176, Note_on_c, 0, 69, 112
1, 107340, Note_off_c, 0, 69, 112
1, 107399, Note_on_c, 0, 65, 95
1, 107578, Note_off_c, 0, 65, 95
1, 107585, Note_on_c, 0, 67, 110
1, 108228, Note_off_c, 0, 67, 110
1, 108228, Note_on_c, 0, 70, 108
1, 108392, Note_off_c, 0, 70, 108
1, 108399, Note_on_c, 0, 69, 109
1, 108601, Note_off_c, 0, 69, 109
1, 108645, Note_on_c, 0, 65, 116
1, 108847, Note_on_c, 0, 67, 109
1, 108847, Note_off_c, 0, 65, 116
1, 109498, Note_off_c, 0, 67, 109
1, 109512, Note_on_c, 0, 70, 108
1, 109706, Note_off_c, 0, 70, 108
1, 109713, Note_on_c, 0, 69, 111
1, 109922, Note_off_c, 0, 69, 111
1, 109936, Note_on_c, 0, 65, 109
1, 110123, Note_off_c, 0, 65, 109
1, 110123, Note_on_c, 0, 67, 107
1, 110355, Note_off_c, 0, 67, 107
1, 110355, Note_on_c, 0, 70, 106
1, 110534, Note_off_c, 0, 70, 106
1, 110534, Note_on_c, 0, 69, 110
1, 110751, Note_on_c, 0, 65, 104
1, 110751, Note_off_c, 0, 69, 110
1, 110953, Note_off_c, 0, 65, 104
1, 110953, Note_on_c, 0, 67, 110
1, 111514, Note_off_c, 0, 67, 110
1, 111558, Note_on_c, 0, 65, 98
1, 111707, Note_off_c, 0, 65, 98
1, 111721, Note_on_c, 0, 67, 111
1, 111968, Note_off_c, 0, 67, 111
1, 111997, Note_on_c, 0, 70, 105
1, 112169, Note_off_c, 0, 70, 105
1, 112206, Note_on_c, 0, 69, 109
1, 112385, Note_off_c, 0, 69, 109
1, 112392, Note_on_c, 0, 65, 111
1, 112579, Note_off_c, 0, 65, 111
1, 112616, Note_on_c, 0, 67, 107
1, 113267, Note_off_c, 0, 67, 107
1, 113281, Note_on_c, 0, 65, 116
1, 113468, Note_off_c, 0, 65, 116
1, 113468, Note_on_c, 0, 67, 106
1, 113715, Note_on_c, 0, 70, 107
1, 113715, Note_off_c, 0, 67, 106
1, 113872, Note_off_c, 0, 70, 107
1, 113886, Note_on_c, 0, 69, 104
1, 114110, Note_off_c, 0, 69, 104
1, 114124, Note_on_c, 0, 65, 100
1, 114273, Note_off_c, 0, 65, 100
1, 114280, Note_on_c, 0, 67, 106
1, 114489, Note_off_c, 0, 67, 106
1, 114496, Note_on_c, 0, 66, 105
1, 114743, Note_off_c, 0, 66, 105
1, 114757, Note_on_c, 0, 65, 106
1, 114951, Note_off_c, 0, 65, 106
1, 114958, Note_on_c, 0, 64, 119
1, 115167, Note_off_c, 0, 64, 119
1, 115167, Note_on_c, 0, 63, 116
1, 115376, Note_on_c, 0, 65, 104
1, 115376, Note_off_c, 0, 63, 116
1, 115585, Note_off_c, 0, 65, 104
1, 115607, Note_on_c, 0, 67, 107
1, 115809, Note_off_c, 0, 67, 107
1, 115809, Note_on_c, 0, 70, 106
1, 115988, Note_off_c, 0, 70, 106
1, 116017, Note_on_c, 0, 69, 107
1, 116181, Note_off_c, 0, 69, 107
1, 116210, Note_on_c, 0, 65, 98
1, 116367, Note_off_c, 0, 65, 98
1, 116381, Note_on_c, 0, 67, 107
1, 116620, Note_off_c, 0, 67, 107
1, 116627, Note_on_c, 0, 64, 119
1, 116941, Note_off_c, 0, 64, 119
1, 119156, Note_on_c, 0, 70, 111
1, 119343, Note_off_c, 0, 70, 111
1, 119343, Note_on_c, 0, 72, 103
1, 119522, Note_off_c, 0, 72, 103
1, 119522, Note_on_c, 0, 76, 116
1, 119739, Note_off_c, 0, 76, 116
1, 119739, Note_on_c, 0, 77, 100
1, 119971, Note_off_c, 0, 77, 100
1, 119984, Note_on_c, 0, 76, 108
1, 120157, Note_off_c, 0, 76, 108
1, 120157, Note_on_c, 0, 70, 103
1, 120364, Note_off_c, 0, 70, 103
1, 120392, Note_on_c, 0, 67, 92
1, 120572, Note_off_c, 0, 67, 92
1, 120599, Note_on_c, 0, 69, 112
1, 120785, Note_off_c, 0, 69, 112
1, 120806, Note_on_c, 0, 66, 105
1, 120971, Note_off_c, 0, 66, 105
1, 120986, Note_on_c, 0, 65, 110
1, 121236, Note_off_c, 0, 65, 110
1, 121236, Note_on_c, 0, 64, 119
1, 121395, Note_off_c, 0, 64, 119
1, 121410, Note_on_c, 0, 63, 114
1, 121596, Note_off_c, 0, 63, 114
1, 121611, Note_on_c, 0, 65, 106
1, 121781, Note_off_c, 0, 65, 106
1, 121802, Note_on_c, 0, 66, 103
1, 121985, Note_off_c, 0, 66, 103
1, 122016, Note_on_c, 0, 68, 112
1, 122255, Note_off_c, 0, 68, 112
1, 122269, Note_on_c, 0, 65, 112
1, 122444, Note_off_c, 0, 65, 112
1, 122462, Note_on_c, 0, 64, 120
1, 122675, Note_off_c, 0, 64, 120
1, 122675, Note_on_c, 0, 63, 116
1, 122877, Note_on_c, 0, 67, 107
1, 122877, Note_off_c, 0, 63, 116
1, 123094, Note_off_c, 0, 67, 107
1, 123105, Note_on_c, 0, 66, 108
1, 123280, Note_off_c, 0, 66, 108
1, 123313, Note_on_c, 0, 61, 111
1, 123520, Note_off_c, 0, 61, 111
1, 123530, Note_on_c, 0, 58, 101
1, 123710, Note_off_c, 0, 58, 101
1, 123731, Note_on_c, 0, 56, 104
1, 123901, Note_on_c, 0, 63, 118
1, 123901, Note_off_c, 0, 56, 104
1, 124066, Note_off_c, 0, 63, 118
1, 124097, Note_on_c, 0, 61, 109
1, 124277, Note_off_c, 0, 61, 109
1, 124287, Note_on_c, 0, 58, 106
1, 124372, Note_off_c, 0, 58, 106
1, 124382, Note_on_c, 0, 56, 99
1, 124477, Note_off_c, 0, 56, 99
1, 124503, Note_on_c, 0, 63, 119
1, 124689, Note_off_c, 0, 63, 119
1, 124699, Note_on_c, 0, 61, 116
1, 124842, Note_off_c, 0, 61, 116
1, 124847, Note_on_c, 0, 58, 109
1, 124969, Note_off_c, 0, 58, 109
1, 124984, Note_on_c, 0, 56, 110
1, 125111, Note_off_c, 0, 56, 110
1, 125126, Note_on_c, 0, 63, 115
1, 125275, Note_off_c, 0, 63, 115
1, 125275, Note_on_c, 0, 61, 114
1, 125402, Note_off_c, 0, 61, 114
1, 125423, Note_on_c, 0, 58, 104
1, 125561, Note_off_c, 0, 58, 104
1, 125582, Note_on_c, 0, 56, 101
1, 125709, Note_off_c, 0, 56, 101
1, 125709, Note_on_c, 0, 63, 119
1, 125884, Note_on_c, 0, 61, 114
1, 125884, Note_off_c, 0, 63, 119
1, 126011, Note_off_c, 0, 61, 114
1, 126016, Note_on_c, 0, 58, 106
1, 126117, Note_off_c, 0, 58, 106
1, 126132, Note_on_c, 0, 56, 101
1, 126249, Note_off_c, 0, 56, 101
1, 126286, Note_on_c, 0, 63, 115
1, 126472, Note_off_c, 0, 63, 115
1, 126472, Note_on_c, 0, 61, 106
1, 126589, Note_off_c, 0, 61, 106
1, 126599, Note_on_c, 0, 58, 106
1, 126716, Note_off_c, 0, 58, 106
1, 126731, Note_on_c, 0, 56, 102
1, 126842, Note_off_c, 0, 56, 102
1, 126857, Note_on_c, 0, 63, 116
1, 127022, Note_off_c, 0, 63, 116
1, 127032, Note_on_c, 0, 61, 110
1, 127191, Note_off_c, 0, 61, 110
1, 127196, Note_on_c, 0, 58, 107
1, 127318, Note_off_c, 0, 58, 107
1, 127318, Note_on_c, 0, 56, 104
1, 127397, Note_off_c, 0, 56, 104
1, 127407, Note_on_c, 0, 63, 112
1, 127811, Note_off_c, 0, 63, 112
1, 128944, Note_on_c, 0, 63, 119
1, 129066, Note_off_c, 0, 63, 119
1, 129087, Note_on_c, 0, 62, 114
1, 129209, Note_off_c, 0, 62, 114
1, 129235, Note_on_c, 0, 59, 101
1, 129362, Note_off_c, 0, 59, 101
1, 129383, Note_on_c, 0, 56, 103
1, 129510, Note_off_c, 0, 56, 103
1, 129557, Note_on_c, 0, 63, 104
1, 129748, Note_off_c, 0, 63, 104
1, 129758, Note_on_c, 0, 62, 112
1, 129896, Note_off_c, 0, 62, 112
1, 129906, Note_on_c, 0, 59, 98
1, 130065, Note_off_c, 0, 59, 98
1, 130065, Note_on_c, 0, 56, 102
1, 130155, Note_off_c, 0, 56, 102
1, 130155, Note_on_c, 0, 63, 117
1, 130389, Note_off_c, 0, 63, 117
1, 130399, Note_on_c, 0, 62, 115
1, 130516, Note_off_c, 0, 62, 115
1, 130526, Note_on_c, 0, 59, 101
1, 130621, Note_off_c, 0, 59, 101
1, 130636, Note_on_c, 0, 56, 101
1, 130731, Note_off_c, 0, 56, 101
1, 130762, Note_on_c, 0, 63, 115
1, 130985, Note_off_c, 0, 63, 115
1, 130990, Note_on_c, 0, 62, 113
1, 131133, Note_off_c, 0, 62, 113
1, 131138, Note_on_c, 0, 59, 101
1, 131239, Note_off_c, 0, 59, 101
1, 131265, Note_on_c, 0, 56, 107
1, 131355, Note_off_c, 0, 56, 107
1, 131360, Note_on_c, 0, 63, 118
1, 131540, Note_off_c, 0, 63, 118
1, 131555, Note_on_c, 0, 62, 108
1, 131704, Note_off_c, 0, 62, 108
1, 131704, Note_on_c, 0, 59, 101
1, 131805, Note_off_c, 0, 59, 101
1, 131831, Note_on_c, 0, 56, 105
1, 131926, Note_off_c, 0, 56, 105
1, 131979, Note_on_c, 0, 63, 115
1, 132159, Note_off_c, 0, 63, 115
1, 132180, Note_on_c, 0, 62, 112
1, 132291, Note_off_c, 0, 62, 112
1, 132301, Note_on_c, 0, 59, 103
1, 132407, Note_off_c, 0, 59, 103
1, 132422, Note_on_c, 0, 56, 103
1, 132533, Note_off_c, 0, 56, 103
1, 132559, Note_on_c, 0, 63, 116
1, 132739, Note_off_c, 0, 63, 116
1, 132749, Note_on_c, 0, 61, 114
1, 132898, Note_off_c, 0, 61, 114
1, 132908, Note_on_c, 0, 58, 108
1, 133041, Note_off_c, 0, 58, 108
1, 133067, Note_on_c, 0, 56, 112
1, 133178, Note_off_c, 0, 56, 112
1, 133178, Note_on_c, 0, 63, 117
1, 133358, Note_off_c, 0, 63, 117
1, 133373, Note_on_c, 0, 61, 114
1, 133500, Note_off_c, 0, 61, 114
1, 133515, Note_on_c, 0, 58, 108
1, 133637, Note_off_c, 0, 58, 108
1, 133642, Note_on_c, 0, 56, 116
1, 133753, Note_off_c, 0, 56, 116
1, 133753, Note_on_c, 0, 63, 115
1, 134343, Note_off_c, 0, 63, 115
1, 135545, Note_on_c, 0, 63, 117
1, 135949, Note_off_c, 0, 63, 117
1, 135949, Note_on_c, 0, 65, 110
1, 136181, Note_off_c, 0, 65, 110
1, 136398, Note_on_c, 0, 65, 110
1, 136832, Note_off_c, 0, 65, 110
1, 136839, Note_on_c, 0, 67, 109
1, 137160, Note_off_c, 0, 67, 109
1, 137946, Note_on_c, 0, 67, 106
1, 138050, Note_off_c, 0, 67, 106
1, 138087, Note_on_c, 0, 69, 111
1, 138281, Note_off_c, 0, 69, 111
1, 138318, Note_on_c, 0, 67, 110
1, 138520, Note_off_c, 0, 67, 110
1, 138549, Note_on_c, 0, 65, 110
1, 138773, Note_off_c, 0, 65, 110
1, 138780, Note_on_c, 0, 70, 108
1, 139034, Note_off_c, 0, 70, 108
1, 139101, Note_on_c, 0, 68, 108
1, 139325, Note_off_c, 0, 68, 108
1, 139339, Note_on_c, 0, 66, 105
1, 139548, Note_off_c, 0, 66, 105
1, 139592, Note_on_c, 0, 71, 102
1, 139861, Note_off_c, 0, 71, 102
1, 139928, Note_on_c, 0, 69, 108
1, 140160, Note_off_c, 0, 69, 108
1, 140204, Note_on_c, 0, 67, 106
1, 140597, Note_off_c, 0, 67, 106
1, 142524, Note_on_c, 0, 73, 106
1, 142718, Note_off_c, 0, 73, 106
1, 142755, Note_on_c, 0, 71, 107
1, 142942, Note_off_c, 0, 71, 107
1, 142986, Note_on_c, 0, 70, 111
1, 143173, Note_off_c, 0, 70, 111
1, 143210, Note_on_c, 0, 69, 111
1, 143374, Note_off_c, 0, 69, 111
1, 143403, Note_on_c, 0, 68, 110
1, 143612, Note_off_c, 0, 68, 110
1, 143626, Note_on_c, 0, 67, 108
1, 143783, Note_off_c, 0, 67, 108
1, 143835, Note_on_c, 0, 66, 107
1, 144022, Note_off_c, 0, 66, 107
1, 144044, Note_on_c, 0, 65, 112
1, 144231, Note_off_c, 0, 65, 112
1, 144290, Note_on_c, 0, 64, 117
1, 144439, Note_off_c, 0, 64, 117
1, 144476, Note_on_c, 0, 63, 114
1, 144625, Note_on_c, 0, 67, 106
1, 144625, Note_off_c, 0, 63, 114
1, 144834, Note_off_c, 0, 67, 106
1, 144893, Note_on_c, 0, 63, 115
1, 145065, Note_off_c, 0, 63, 115
1, 145087, Note_on_c, 0, 62, 112
1, 145266, Note_off_c, 0, 62, 112
1, 145273, Note_on_c, 0, 61, 111
1, 145445, Note_off_c, 0, 61, 111
1, 145482, Note_on_c, 0, 64, 119
1, 145706, Note_off_c, 0, 64, 119
1, 145728, Note_on_c, 0, 63, 115
1, 145900, Note_off_c, 0, 63, 115
1, 145914, Note_on_c, 0, 62, 102
1, 146063, Note_off_c, 0, 62, 102
1, 146063, Note_on_c, 0, 65, 113
1, 146310, Note_off_c, 0, 65, 113
1, 146332, Note_on_c, 0, 64, 119
1, 146511, Note_off_c, 0, 64, 119
1, 146518, Note_on_c, 0, 63, 114
1, 146705, Note_off_c, 0, 63, 114
1, 146727, Note_on_c, 0, 66, 105
1, 146936, Note_off_c, 0, 66, 105
1, 146958, Note_on_c, 0, 65, 108
1, 147182, Note_off_c, 0, 65, 108
1, 147226, Note_on_c, 0, 64, 110
1, 147405, Note_off_c, 0, 64, 110
1, 147419, Note_on_c, 0, 65, 111
1, 147658, Note_off_c, 0, 65, 111
1, 147665, Note_on_c, 0, 64, 105
1, 147822, Note_off_c, 0, 64, 105
1, 147829, Note_on_c, 0, 65, 112
1, 148023, Note_off_c, 0, 65, 112
1, 148080, Note_on_c, 0, 66, 91
1, 148596, Note_off_c, 0, 66, 91
1, 148654, Note_on_c, 0, 66, 106
1, 148866, Note_off_c, 0, 66, 106
1, 148892, Note_on_c, 0, 67, 93
1, 149482, Note_off_c, 0, 67, 93
1, 149508, Note_on_c, 0, 67, 108
1, 149726, Note_off_c, 0, 67, 108
1, 149768, Note_on_c, 0, 68, 97
1, 150289, Note_off_c, 0, 68, 97
1, 150336, Note_on_c, 0, 68, 108
1, 150596, Note_off_c, 0, 68, 108
1, 151229, Note_on_c, 0, 69, 111
1, 151383, Note_off_c, 0, 69, 111
1, 151393, Note_on_c, 0, 68, 95
1, 151558, Note_off_c, 0, 68, 95
1, 151569, Note_on_c, 0, 69, 105
1, 151980, Note_off_c, 0, 69, 105
1, 151982, Note_on_c, 0, 70, 108
1, 152216, Note_off_c, 0, 70, 108
1, 152231, Note_on_c, 0, 69, 95
1, 152364, Note_off_c, 0, 69, 95
1, 152401, Note_on_c, 0, 70, 105
1, 152794, Note_off_c, 0, 70, 105
1, 152825, Note_on_c, 0, 71, 109
1, 153043, Note_off_c, 0, 71, 109
1, 153053, Note_on_c, 0, 70, 98
1, 153207, Note_off_c, 0, 70, 98
1, 153212, Note_on_c, 0, 71, 102
1, 153414, Note_off_c, 0, 71, 102
1, 153467, Note_on_c, 0, 72, 109
1, 153626, Note_off_c, 0, 72, 109
1, 155175, Note_on_c, 0, 71, 105
1, 155308, Note_off_c, 0, 71, 105
1, 155323, Note_on_c, 0, 72, 99
1, 155477, Note_off_c, 0, 72, 99
1, 155583, Note_on_c, 0, 79, 106
1, 155726, Note_off_c, 0, 79, 106
1, 155750, Note_on_c, 0, 80, 106
1, 155962, Note_off_c, 0, 80, 106
1, 155996, Note_on_c, 0, 79, 104
1, 156326, Note_off_c, 0, 79, 104
1, 156602, Note_on_c, 0, 70, 106
1, 156804, Note_off_c, 0, 70, 106
1, 156848, Note_on_c, 0, 66, 101
1, 157035, Note_off_c, 0, 66, 101
1, 157057, Note_on_c, 0, 65, 109
1, 157214, Note_off_c, 0, 65, 109
1, 157236, Note_on_c, 0, 64, 119
1, 157400, Note_off_c, 0, 64, 119
1, 157444, Note_on_c, 0, 63, 117
1, 157586, Note_off_c, 0, 63, 117
1, 157608, Note_on_c, 0, 65, 110
1, 157780, Note_on_c, 0, 66, 105
1, 157780, Note_off_c, 0, 65, 110
1, 157967, Note_off_c, 0, 66, 105
1, 157996, Note_on_c, 0, 68, 112
1, 158183, Note_off_c, 0, 68, 112
1, 158190, Note_on_c, 0, 65, 111
1, 158392, Note_off_c, 0, 65, 111
1, 158406, Note_on_c, 0, 64, 117
1, 158555, Note_off_c, 0, 64, 117
1, 158577, Note_on_c, 0, 63, 115
1, 158764, Note_off_c, 0, 63, 115
1, 158797, Note_on_c, 0, 67, 105
1, 158957, Note_off_c, 0, 67, 105
1, 158968, Note_on_c, 0, 66, 112
1, 159181, Note_off_c, 0, 66, 112
1, 159203, Note_on_c, 0, 61, 117
1, 159382, Note_off_c, 0, 61, 117
1, 159415, Note_on_c, 0, 58, 110
1, 159564, Note_off_c, 0, 58, 110
1, 159586, Note_on_c, 0, 56, 113
1, 159780, Note_off_c, 0, 56, 113
1, 159806, Note_on_c, 0, 63, 117
1, 160019, Note_off_c, 0, 63, 117
1, 160041, Note_on_c, 0, 61, 120
1, 160209, Note_off_c, 0, 61, 120
1, 160227, Note_on_c, 0, 58, 107
1, 160365, Note_off_c, 0, 58, 107
1, 160421, Note_on_c, 0, 49, 110
1, 160619, Note_off_c, 0, 49, 110
1, 160626, Note_on_c, 0, 57, 110
1, 160816, Note_off_c, 0, 57, 110
1, 160823, Note_on_c, 0, 52, 115
1, 160998, Note_off_c, 0, 52, 115
1, 161020, Note_on_c, 0, 46, 121
1, 161214, Note_off_c, 0, 46, 121
1, 161214, Note_on_c, 0, 53, 113
1, 161404, Note_off_c, 0, 53, 113
1, 161466, Note_on_c, 0, 45, 119
1, 161812, Note_off_c, 0, 45, 119
1, 161833, Note_on_c, 0, 46, 116
1, 162088, Note_off_c, 0, 46, 116
1, 162300, Note_on_c, 0, 45, 120
1, 162614, Note_off_c, 0, 45, 120
1, 162614, Note_on_c, 0, 46, 113
1, 162885, Note_off_c, 0, 46, 113
1, 162959, Note_on_c, 0, 48, 115
1, 163544, Note_off_c, 0, 48, 115
1, 164600, Note_on_c, 0, 74, 100
1, 164658, Note_off_c, 0, 74, 100
1, 164671, Note_on_c, 0, 73, 108
1, 164761, Note_off_c, 0, 73, 108
1, 164771, Note_on_c, 0, 72, 110
1, 164824, Note_off_c, 0, 72, 110
1, 164839, Note_on_c, 0, 71, 113
1, 164913, Note_off_c, 0, 71, 113
1, 164923, Note_on_c, 0, 70, 114
1, 165077, Note_off_c, 0, 70, 114
1, 165407, Note_on_c, 0, 73, 96
1, 165492, Note_off_c, 0, 73, 96
1, 165502, Note_on_c, 0, 71, 97
1, 165587, Note_on_c, 0, 70, 103
1, 165587, Note_off_c, 0, 71, 97
1, 165656, Note_off_c, 0, 70, 103
1, 165666, Note_on_c, 0, 68, 114
1, 165868, Note_off_c, 0, 68, 114
1, 166261, Note_on_c, 0, 69, 110
1, 166340, Note_on_c, 0, 68, 104
1, 166340, Note_off_c, 0, 69, 110
1, 166430, Note_off_c, 0, 68, 104
1, 166445, Note_on_c, 0, 67, 110
1, 166524, Note_off_c, 0, 67, 110
1, 166529, Note_on_c, 0, 66, 109
1, 166694, Note_off_c, 0, 66, 109
1, 167678, Note_on_c, 0, 46, 113
1, 167805, Note_off_c, 0, 46, 113
1, 167820, Note_on_c, 0, 48, 111
1, 167947, Note_off_c, 0, 48, 111
1, 167952, Note_on_c, 0, 50, 108
1, 168058, Note_off_c, 0, 50, 108
1, 168063, Note_on_c, 0, 51, 111
1, 168158, Note_off_c, 0, 51, 111
1, 168184, Note_on_c, 0, 49, 110
1, 168317, Note_off_c, 0, 49, 110
1, 169062, Note_on_c, 0, 49, 112
1, 169211, Note_off_c, 0, 49, 112
1, 169211, Note_on_c, 0, 51, 111
1, 169338, Note_off_c, 0, 51, 111
1, 169375, Note_on_c, 0, 54, 109
1, 169582, Note_off_c, 0, 54, 109
1, 170002, Note_on_c, 0, 54, 107
1, 170108, Note_off_c, 0, 54, 107
1, 170134, Note_on_c, 0, 56, 101
1, 170235, Note_off_c, 0, 56, 101
1, 170275, Note_on_c, 0, 57, 100
1, 170469, Note_off_c, 0, 57, 100
1, 171030, Note_on_c, 0, 52, 106
1, 171147, Note_off_c, 0, 52, 106
1, 171183, Note_on_c, 0, 54, 106
1, 171289, Note_off_c, 0, 54, 106
1, 171298, Note_on_c, 0, 56, 102
1, 171342, Note_off_c, 0, 56, 102
1, 171349, Note_on_c, 0, 57, 108
1, 171438, Note_off_c, 0, 57, 108
1, 172500, Note_on_c, 0, 70, 120
1, 172687, Note_off_c, 0, 70, 120
1, 172694, Note_on_c, 0, 69, 112
1, 172888, Note_off_c, 0, 69, 112
1, 172917, Note_on_c, 0, 68, 115
1, 173096, Note_off_c, 0, 68, 115
1, 173125, Note_on_c, 0, 67, 110
1, 173282, Note_off_c, 0, 67, 110
1, 173334, Note_on_c, 0, 66, 112
1, 173551, Note_off_c, 0, 66, 112
1, 173551, Note_on_c, 0, 65, 115
1, 173708, Note_off_c, 0, 65, 115
1, 173722, Note_on_c, 0, 64, 120
1, 173924, Note_off_c, 0, 64, 120
1, 173938, Note_on_c, 0, 63, 116
1, 174095, Note_off_c, 0, 63, 116
1, 174117, Note_on_c, 0, 67, 110
1, 174296, Note_off_c, 0, 67, 110
1, 174303, Note_on_c, 0, 69, 106
1, 174475, Note_off_c, 0, 69, 106
1, 174482, Note_on_c, 0, 67, 102
1, 174549, Note_off_c, 0, 67, 102
1, 174549, Note_on_c, 0, 69, 110
1, 174683, Note_off_c, 0, 69, 110
1, 174735, Note_on_c, 0, 66, 109
1, 174922, Note_off_c, 0, 66, 109
1, 174989, Note_on_c, 0, 61, 117
1, 175176, Note_off_c, 0, 61, 117
1, 175183, Note_on_c, 0, 58, 106
1, 175332, Note_off_c, 0, 58, 106
1, 175369, Note_on_c, 0, 56, 104
1, 175526, Note_off_c, 0, 56, 104
1, 175570, Note_on_c, 0, 64, 120
1, 175764, Note_off_c, 0, 64, 120
1, 175793, Note_on_c, 0, 61, 118
1, 175957, Note_off_c, 0, 61, 118
1, 175964, Note_on_c, 0, 57, 102
1, 176166, Note_off_c, 0, 57, 102
1, 176398, Note_on_c, 0, 59, 102
1, 176607, Note_off_c, 0, 59, 102
1, 176607, Note_on_c, 0, 54, 105
1, 176809, Note_off_c, 0, 54, 105
1, 176816, Note_on_c, 0, 53, 112
1, 177003, Note_off_c, 0, 53, 112
1, 177010, Note_on_c, 0, 52, 114
1, 177219, Note_off_c, 0, 52, 114
1, 177241, Note_on_c, 0, 51, 110
1, 177480, Note_off_c, 0, 51, 110
1, 177622, Note_on_c, 0, 59, 98
1, 177824, Note_off_c, 0, 59, 98
1, 177853, Note_on_c, 0, 61, 116
1, 178055, Note_off_c, 0, 61, 116
1, 178055, Note_on_c, 0, 63, 116
1, 178287, Note_off_c, 0, 63, 116
1, 178287, Note_on_c, 0, 61, 115
1, 178496, Note_off_c, 0, 61, 115
1, 178503, Note_on_c, 0, 57, 99
1, 178675, Note_off_c, 0, 57, 99
1, 178907, Note_on_c, 0, 59, 102
1, 179094, Note_off_c, 0, 59, 102
1, 179108, Note_on_c, 0, 61, 115
1, 179280, Note_off_c, 0, 61, 115
1, 179287, Note_on_c, 0, 66, 107
1, 179444, Note_off_c, 0, 66, 107
1, 179488, Note_on_c, 0, 68, 106
1, 179581, Note_off_c, 0, 68, 106
1, 179697, Note_on_c, 0, 73, 102
1, 179869, Note_off_c, 0, 73, 102
1, 179906, Note_on_c, 0, 72, 102
1, 179980, Note_off_c, 0, 72, 102
1, 180009, Note_on_c, 0, 70, 104
1, 180091, Note_off_c, 0, 70, 104
1, 180120, Note_on_c, 0, 68, 112
1, 180434, Note_off_c, 0, 68, 112
1, 181646, Note_on_c, 0, 73, 110
1, 181825, Note_off_c, 0, 73, 110
1, 181825, Note_on_c, 0, 71, 102
1, 181892, Note_off_c, 0, 71, 102
1, 181899, Note_on_c, 0, 69, 109
1, 181996, Note_off_c, 0, 69, 109
1, 182003, Note_on_c, 0, 68, 111
1, 182220, Note_off_c, 0, 68, 111
1, 182257, Note_on_c, 0, 73, 100
1, 182429, Note_off_c, 0, 73, 100
1, 182466, Note_on_c, 0, 71, 102
1, 182525, Note_off_c, 0, 71, 102
1, 182532, Note_on_c, 0, 69, 106
1, 182644, Note_off_c, 0, 69, 106
1, 182666, Note_on_c, 0, 68, 110
1, 182868, Note_off_c, 0, 68, 110
1, 182905, Note_on_c, 0, 73, 103
1, 183114, Note_on_c, 0, 71, 102
1, 183114, Note_off_c, 0, 73, 103
1, 183188, Note_off_c, 0, 71, 102
1, 183195, Note_on_c, 0, 69, 108
1, 183322, Note_off_c, 0, 69, 108
1, 183322, Note_on_c, 0, 68, 109
1, 183539, Note_off_c, 0, 68, 109
1, 183561, Note_on_c, 0, 73, 100
1, 183733, Note_off_c, 0, 73, 100
1, 183733, Note_on_c, 0, 71, 99
1, 183792, Note_off_c, 0, 71, 99
1, 183799, Note_on_c, 0, 69, 104
1, 183933, Note_off_c, 0, 69, 104
1, 183947, Note_on_c, 0, 68, 111
1, 184164, Note_off_c, 0, 68, 111
1, 184164, Note_on_c, 0, 73, 100
1, 184373, Note_on_c, 0, 71, 99
1, 184373, Note_off_c, 0, 73, 100
1, 184455, Note_off_c, 0, 71, 99
1, 184455, Note_on_c, 0, 69, 104
1, 184574, Note_off_c, 0, 69, 104
1, 184581, Note_on_c, 0, 68, 109
1, 184783, Note_off_c, 0, 68, 109
1, 184827, Note_on_c, 0, 73, 103
1, 185036, Note_off_c, 0, 73, 103
1, 185043, Note_on_c, 0, 71, 94
1, 185102, Note_off_c, 0, 71, 94
1, 185116, Note_on_c, 0, 69, 107
1, 185235, Note_off_c, 0, 69, 107
1, 185242, Note_on_c, 0, 68, 112
1, 185399, Note_off_c, 0, 68, 112
1, 185421, Note_on_c, 0, 73, 103
1, 185623, Note_off_c, 0, 73, 103
1, 185623, Note_on_c, 0, 71, 97
1, 185697, Note_off_c, 0, 71, 97
1, 185697, Note_on_c, 0, 69, 103
1, 185824, Note_off_c, 0, 69, 103
1, 185824, Note_on_c, 0, 68, 108
1, 186011, Note_off_c, 0, 68, 108
1, 186055, Note_on_c, 0, 73, 102
1, 186227, Note_off_c, 0, 73, 102
1, 186241, Note_on_c, 0, 71, 105
1, 186338, Note_off_c, 0, 71, 105
1, 186338, Note_on_c, 0, 69, 107
1, 186450, Note_off_c, 0, 69, 107
1, 186450, Note_on_c, 0, 68, 107
1, 186629, Note_off_c, 0, 68, 107
1, 186696, Note_on_c, 0, 73, 102
1, 186875, Note_off_c, 0, 73, 102
1, 186889, Note_on_c, 0, 71, 95
1, 186978, Note_off_c, 0, 71, 95
1, 187007, Note_on_c, 0, 69, 108
1, 187126, Note_off_c, 0, 69, 108
1, 187144, Note_on_c, 0, 68, 112
1, 187211, Note_off_c, 0, 68, 112
1, 187218, Note_on_c, 0, 67, 109
1, 188262, Note_off_c, 0, 67, 109
1, 189467, Note_on_c, 0, 67, 115
1, 189684, Note_off_c, 0, 67, 115
1, 189871, Note_on_c, 0, 77, 110
1, 189975, Note_off_c, 0, 77, 110
1, 190027, Note_on_c, 0, 79, 112
1, 193111, Note_off_c, 0, 79, 112
1, 193118, Note_on_c, 0, 74, 109
1, 193365, Note_off_c, 0, 74, 109
1, 193365, Note_on_c, 0, 71, 112
1, 193529, Note_off_c, 0, 71, 112
1, 193577, Note_on_c, 0, 67, 107
1, 193981, Note_off_c, 0, 67, 107
1, 195026, Note_on_c, 0, 63, 116
1, 195228, Note_off_c, 0, 63, 116
1, 195238, Note_on_c, 0, 69, 86
1, 195339, Note_off_c, 0, 69, 86
1, 195418, Note_on_c, 0, 71, 101
1, 195785, Note_off_c, 0, 71, 101
1, 195870, Note_on_c, 0, 75, 110
1, 196003, Note_off_c, 0, 75, 110
1, 196056, Note_on_c, 0, 77, 98
1, 196210, Note_off_c, 0, 77, 98
1, 196210, Note_on_c, 0, 75, 107
1, 196369, Note_off_c, 0, 75, 107
1, 196475, Note_on_c, 0, 71, 107
1, 196629, Note_off_c, 0, 71, 107
1, 196647, Note_on_c, 0, 69, 111
1, 196790, Note_off_c, 0, 69, 111
1, 196877, Note_on_c, 0, 75, 101
1, 197047, Note_off_c, 0, 75, 101
1, 197062, Note_on_c, 0, 71, 108
1, 197221, Note_off_c, 0, 71, 108
1, 197279, Note_on_c, 0, 68, 96
1, 197428, Note_off_c, 0, 68, 96
1, 197449, Note_on_c, 0, 69, 114
1, 197635, Note_off_c, 0, 69, 114
1, 197650, Note_on_c, 0, 65, 112
1, 197846, Note_off_c, 0, 65, 112
1, 197861, Note_on_c, 0, 62, 118
1, 198031, Note_off_c, 0, 62, 118
1, 198062, Note_on_c, 0, 58, 108
1, 198258, Note_off_c, 0, 58, 108
1, 198279, Note_on_c, 0, 63, 117
1, 198449, Note_off_c, 0, 63, 117
1, 198466, Note_on_c, 0, 67, 106
1, 198657, Note_off_c, 0, 67, 106
1, 198701, Note_on_c, 0, 71, 102
1, 198881, Note_off_c, 0, 71, 102
1, 198909, Note_on_c, 0, 75, 110
1, 199079, Note_off_c, 0, 75, 110
1, 199142, Note_on_c, 0, 79, 115
1, 199322, Note_off_c, 0, 79, 115
1, 199332, Note_on_c, 0, 81, 113
1, 201589, Note_off_c, 0, 81, 113
1, 201631, Note_on_c, 0, 79, 104
1, 201833, Note_off_c, 0, 79, 104
1, 201838, Note_on_c, 0, 74, 115
1, 202040, Note_off_c, 0, 74, 115
1, 202050, Note_on_c, 0, 70, 113
1, 202241, Note_off_c, 0, 70, 113
1, 202262, Note_on_c, 0, 67, 102
1, 202416, Note_off_c, 0, 67, 102
1, 202431, Note_on_c, 0, 69, 116
1, 202601, Note_off_c, 0, 69, 116
1, 202648, Note_on_c, 0, 65, 116
1, 202823, Note_off_c, 0, 65, 116
1, 202844, Note_on_c, 0, 62, 118
1, 203072, Note_off_c, 0, 62, 118
1, 203082, Note_on_c, 0, 58, 108
1, 203262, Note_off_c, 0, 58, 108
1, 203267, Note_on_c, 0, 63, 116
1, 203868, Note_off_c, 0, 63, 116
1, 204948, Note_on_c, 0, 79, 115
1, 205043, Note_off_c, 0, 79, 115
1, 205128, Note_on_c, 0, 81, 115
1, 206607, Note_off_c, 0, 81, 115
1, 206612, Note_on_c, 0, 70, 108
1, 206782, Note_off_c, 0, 70, 108
1, 206782, Note_on_c, 0, 75, 111
1, 207229, Note_off_c, 0, 75, 111
1, 207685, Note_on_c, 0, 47, 112
1, 207875, Note_on_c, 0, 51, 115
1, 207875, Note_off_c, 0, 47, 112
1, 208087, Note_off_c, 0, 51, 115
1, 208098, Note_on_c, 0, 58, 101
1, 208321, Note_off_c, 0, 58, 101
1, 208748, Note_on_c, 0, 53, 112
1, 208928, Note_off_c, 0, 53, 112
1, 208949, Note_on_c, 0, 52, 119
1, 209119, Note_off_c, 0, 52, 119
1, 209140, Note_on_c, 0, 51, 112
1, 209331, Note_off_c, 0, 51, 112
1, 209340, Note_on_c, 0, 55, 101
1, 209553, Note_off_c, 0, 55, 101
1, 209553, Note_on_c, 0, 59, 105
1, 209755, Note_off_c, 0, 59, 105
1, 209755, Note_on_c, 0, 61, 118
1, 209935, Note_off_c, 0, 61, 118
1, 209956, Note_on_c, 0, 63, 118
1, 210147, Note_off_c, 0, 63, 118
1, 210147, Note_on_c, 0, 61, 116
1, 210370, Note_off_c, 0, 61, 116
1, 210370, Note_on_c, 0, 57, 105
1, 210572, Note_off_c, 0, 57, 105
1, 210582, Note_on_c, 0, 53, 110
1, 210773, Note_off_c, 0, 53, 110
1, 210794, Note_on_c, 0, 59, 100
1, 210974, Note_on_c, 0, 63, 112
1, 210974, Note_off_c, 0, 59, 100
1, 211176, Note_off_c, 0, 63, 112
1, 211218, Note_on_c, 0, 67, 109
1, 211398, Note_off_c, 0, 67, 109
1, 211419, Note_on_c, 0, 71, 110
1, 211610, Note_off_c, 0, 71, 110
1, 211631, Note_on_c, 0, 67, 113
1, 211822, Note_off_c, 0, 67, 113
1, 211853, Note_on_c, 0, 66, 106
1, 212033, Note_off_c, 0, 66, 106
1, 212033, Note_on_c, 0, 68, 112
1, 212224, Note_off_c, 0, 68, 112
1, 212245, Note_on_c, 0, 71, 110
1, 212425, Note_off_c, 0, 71, 110
1, 212435, Note_on_c, 0, 73, 101
1, 212637, Note_off_c, 0, 73, 101
1, 212647, Note_on_c, 0, 74, 108
1, 212849, Note_off_c, 0, 74, 108
1, 212870, Note_on_c, 0, 75, 110
1, 213061, Note_off_c, 0, 75, 110
1, 213082, Note_on_c, 0, 73, 103
1, 213262, Note_on_c, 0, 71, 108
1, 213262, Note_off_c, 0, 73, 103
1, 213453, Note_off_c, 0, 71, 108
1, 213484, Note_on_c, 0, 70, 111
1, 213643, Note_off_c, 0, 70, 111
1, 213664, Note_on_c, 0, 69, 110
1, 213876, Note_off_c, 0, 69, 110
1, 213886, Note_on_c, 0, 68, 113
1, 214141, Note_off_c, 0, 68, 113
1, 214162, Note_on_c, 0, 67, 110
1, 214257, Note_off_c, 0, 67, 110
1, 214299, Note_on_c, 0, 67, 119
1, 214448, Note_off_c, 0, 67, 119
1, 215384, Note_on_c, 0, 67, 116
1, 215533, Note_off_c, 0, 67, 116
1, 215586, Note_on_c, 0, 67, 118
1, 215777, Note_off_c, 0, 67, 118
1, 216628, Note_on_c, 0, 67, 115
1, 216787, Note_off_c, 0, 67, 115
1, 216840, Note_on_c, 0, 67, 109
1, 216989, Note_off_c, 0, 67, 109
1, 217042, Note_on_c, 0, 67, 113
1, 217201, Note_off_c, 0, 67, 113
1, 217243, Note_on_c, 0, 67, 117
1, 217423, Note_off_c, 0, 67, 117
1, 217838, Note_on_c, 0, 67, 109
1, 227345, Note_off_c, 0, 67, 109
1, 228335, Note_on_c, 0, 67, 116
1, 228547, Note_off_c, 0, 67, 116
1, 228547, Note_on_c, 0, 68, 114
1, 228738, Note_off_c, 0, 68, 114
1, 228738, Note_on_c, 0, 73, 103
1, 228876, Note_on_c, 0, 74, 102
1, 228876, Note_off_c, 0, 73, 103
1, 229067, Note_off_c, 0, 74, 102
1, 229109, Note_on_c, 0, 67, 108
1, 231174, Note_off_c, 0, 67, 108
1, 231178, Note_on_c, 0, 62, 99
1, 231305, Note_off_c, 0, 62, 99
1, 231327, Note_on_c, 0, 67, 110
1, 232457, Note_off_c, 0, 67, 110
1, 232479, Note_on_c, 0, 67, 113
1, 232636, Note_off_c, 0, 67, 113
1, 232647, Note_on_c, 0, 60, 108
1, 232751, Note_off_c, 0, 60, 108
1, 232762, Note_on_c, 0, 62, 112
1, 232863, Note_off_c, 0, 62, 112
1, 232866, Note_on_c, 0, 64, 107
1, 232933, Note_off_c, 0, 64, 107
1, 232966, Note_on_c, 0, 67, 112
1, 233078, Note_off_c, 0, 67, 112
1, 233078, Note_on_c, 0, 64, 116
1, 233141, Note_off_c, 0, 64, 116
1, 233148, Note_on_c, 0, 63, 112
1, 233469, Note_off_c, 0, 63, 112
1, 233521, Note_on_c, 0, 67, 105
1, 233648, Note_off_c, 0, 67, 105
1, 233677, Note_on_c, 0, 65, 105
1, 233819, Note_off_c, 0, 65, 105
1, 233863, Note_on_c, 0, 65, 121
1, 233960, Note_off_c, 0, 65, 121
1, 234843, Note_on_c, 0, 67, 117
1, 235022, Note_off_c, 0, 67, 117
1, 235051, Note_on_c, 0, 67, 113
1, 235208, Note_off_c, 0, 67, 113
1, 235208, Note_on_c, 0, 68, 109
1, 235380, Note_off_c, 0, 68, 109
1, 235394, Note_on_c, 0, 67, 111
1, 235558, Note_off_c, 0, 67, 111
1, 235580, Note_on_c, 0, 67, 114
1, 235729, Note_off_c, 0, 67, 114
1, 235758, Note_on_c, 0, 67, 115
1, 235907, Note_off_c, 0, 67, 115
1, 235966, Note_on_c, 0, 66, 110
1, 236130, Note_off_c, 0, 66, 110
1, 236137, Note_on_c, 0, 67, 112
1, 236286, Note_off_c, 0, 67, 112
1, 236349, Note_on_c, 0, 75, 97
1, 236607, Note_off_c, 0, 75, 97
1, 236614, Note_on_c, 0, 70, 114
1, 236655, Note_off_c, 0, 70, 114
1, 236662, Note_on_c, 0, 68, 104
1, 236706, Note_off_c, 0, 68, 104
1, 236747, Note_on_c, 0, 67, 107
1, 237151, Note_off_c, 0, 67, 107
1, 238386, Note_on_c, 0, 67, 117
1, 238535, Note_off_c, 0, 67, 117
1, 238542, Note_on_c, 0, 70, 118
1, 238729, Note_off_c, 0, 70, 118
1, 238751, Note_on_c, 0, 67, 106
1, 239566, Note_off_c, 0, 67, 106
1, 239588, Note_on_c, 0, 67, 118
1, 239730, Note_off_c, 0, 67, 118
1, 239767, Note_on_c, 0, 67, 114
1, 239954, Note_off_c, 0, 67, 114
1, 239976, Note_on_c, 0, 66, 111
1, 240125, Note_off_c, 0, 66, 111
1, 240169, Note_on_c, 0, 65, 115
1, 240356, Note_off_c, 0, 65, 115
1, 240415, Note_on_c, 0, 64, 120
1, 240632, Note_off_c, 0, 64, 120
1, 240654, Note_on_c, 0, 63, 116
1, 240811, Note_off_c, 0, 63, 116
1, 240818, Note_on_c, 0, 66, 100
1, 241005, Note_off_c, 0, 66, 100
1, 241034, Note_on_c, 0, 70, 105
1, 241243, Note_off_c, 0, 70, 105
1, 241310, Note_on_c, 0, 75, 115
1, 241504, Note_off_c, 0, 75, 115
1, 241504, Note_on_c, 0, 77, 107
1, 241698, Note_off_c, 0, 77, 107
1, 241720, Note_on_c, 0, 75, 116
1, 241877, Note_off_c, 0, 75, 116
1, 241891, Note_on_c, 0, 70, 113
1, 242138, Note_off_c, 0, 70, 113
1, 242152, Note_on_c, 0, 67, 102
1, 242331, Note_off_c, 0, 67, 102
1, 242338, Note_on_c, 0, 69, 116
1, 242562, Note_off_c, 0, 69, 116
1, 242562, Note_on_c, 0, 65, 118
1, 242764, Note_off_c, 0, 65, 118
1, 242764, Note_on_c, 0, 60, 113
1, 242996, Note_off_c, 0, 60, 113
1, 243010, Note_on_c, 0, 58, 104
1, 243197, Note_off_c, 0, 58, 104
1, 243197, Note_on_c, 0, 63, 121
1, 243414, Note_off_c, 0, 63, 121
1, 243428, Note_on_c, 0, 61, 118
1, 243637, Note_off_c, 0, 61, 118
1, 243637, Note_on_c, 0, 58, 104
1, 243831, Note_off_c, 0, 58, 104
1, 243845, Note_on_c, 0, 54, 106
1, 244024, Note_off_c, 0, 54, 106
1, 244046, Note_on_c, 0, 57, 114
1, 244255, Note_off_c, 0, 57, 114
1, 244262, Note_on_c, 0, 53, 111
1, 244434, Note_off_c, 0, 53, 111
1, 244441, Note_on_c, 0, 49, 115
1, 244673, Note_off_c, 0, 49, 115
1, 244680, Note_on_c, 0, 53, 118
1, 244852, Note_on_c, 0, 51, 118
1, 244852, Note_off_c, 0, 53, 118
1, 244979, Note_off_c, 0, 51, 118
1, 245001, Note_on_c, 0, 51, 119
1, 245218, Note_off_c, 0, 51, 119
1, 245218, Note_on_c, 0, 46, 118
1, 245509, Note_off_c, 0, 46, 118
1, 245516, Note_on_c, 0, 45, 127
1, 245665, Note_off_c, 0, 45, 127
1, 245698, Note_on_c, 0, 45, 117
1, 246008, Note_off_c, 0, 45, 117
1, 246041, Note_on_c, 0, 57, 105
1, 246336, Note_off_c, 0, 57, 105
1, 246425, Note_on_c, 0, 53, 101
1, 246522, Note_off_c, 0, 53, 101
1, 246536, Note_on_c, 0, 55, 99
1, 247149, Note_off_c, 0, 55, 99
1, 248301, Note_on_c, 0, 67, 114
1, 248473, Note_off_c, 0, 67, 114
1, 248473, Note_on_c, 0, 70, 110
1, 248637, Note_off_c, 0, 70, 110
1, 248659, Note_on_c, 0, 69, 111
1, 248861, Note_off_c, 0, 69, 111
1, 248890, Note_on_c, 0, 67, 101
1, 249092, Note_off_c, 0, 67, 101
1, 249129, Note_on_c, 0, 67, 110
1, 249293, Note_off_c, 0, 67, 110
1, 249322, Note_on_c, 0, 67, 105
1, 249441, Note_off_c, 0, 67, 105
1, 249478, Note_on_c, 0, 66, 106
1, 249687, Note_off_c, 0, 66, 106
1, 249694, Note_on_c, 0, 67, 115
1, 249911, Note_off_c, 0, 67, 115
1, 249948, Note_on_c, 0, 67, 109
1, 250105, Note_off_c, 0, 67, 109
1, 250112, Note_on_c, 0, 66, 109
1, 250261, Note_off_c, 0, 66, 109
1, 250305, Note_on_c, 0, 65, 112
1, 250499, Note_off_c, 0, 65, 112
1, 250521, Note_on_c, 0, 64, 121
1, 250723, Note_off_c, 0, 64, 121
1, 250737, Note_on_c, 0, 63, 117
1, 250924, Note_off_c, 0, 63, 117
1, 250938, Note_on_c, 0, 65, 112
1, 251095, Note_off_c, 0, 65, 112
1, 251109, Note_on_c, 0, 66, 105
1, 251318, Note_off_c, 0, 66, 105
1, 251385, Note_on_c, 0, 64, 109
1, 251572, Note_off_c, 0, 64, 109
1, 251586, Note_on_c, 0, 65, 115
1, 251750, Note_off_c, 0, 65, 115
1, 251750, Note_on_c, 0, 64, 118
1, 251892, Note_off_c, 0, 64, 118
1, 251906, Note_on_c, 0, 63, 118
1, 252100, Note_off_c, 0, 63, 118
1, 252137, Note_on_c, 0, 67, 112
1, 252346, Note_off_c, 0, 67, 112
1, 252360, Note_on_c, 0, 66, 115
1, 252547, Note_off_c, 0, 66, 115
1, 252591, Note_on_c, 0, 61, 118
1, 252770, Note_off_c, 0, 61, 118
1, 252777, Note_on_c, 0, 58, 111
1, 252956, Note_off_c, 0, 58, 111
1, 252963, Note_on_c, 0, 56, 109
1, 253120, Note_off_c, 0, 56, 109
1, 253120, Note_on_c, 0, 62, 119
1, 253329, Note_off_c, 0, 62, 119
1, 253358, Note_on_c, 0, 61, 113
1, 253545, Note_off_c, 0, 61, 113
1, 253545, Note_on_c, 0, 58, 104
1, 253762, Note_off_c, 0, 58, 104
1, 253784, Note_on_c, 0, 53, 103
1, 253963, Note_off_c, 0, 53, 103
1, 253963, Note_on_c, 0, 56, 108
1, 254135, Note_off_c, 0, 56, 108
1, 254164, Note_on_c, 0, 60, 114
1, 254373, Note_off_c, 0, 60, 114
1, 254373, Note_on_c, 0, 65, 111
1, 254567, Note_off_c, 0, 65, 111
1, 255712, Note_on_c, 0, 67, 109
1, 255854, Note_off_c, 0, 67, 109
1, 255906, Note_on_c, 0, 67, 113
1, 256003, Note_off_c, 0, 67, 113
1, 256047, Note_on_c, 0, 72, 109
1, 256219, Note_off_c, 0, 72, 109
1, 257618, Note_on_c, 0, 58, 113
1, 257835, Note_off_c, 0, 58, 113
1, 257842, Note_on_c, 0, 65, 110
1, 258036, Note_off_c, 0, 65, 110
1, 258043, Note_on_c, 0, 70, 114
1, 258230, Note_off_c, 0, 70, 114
1, 258439, Note_on_c, 0, 60, 116
1, 258663, Note_off_c, 0, 60, 116
1, 258715, Note_on_c, 0, 67, 116
1, 258887, Note_off_c, 0, 67, 116
1, 258909, Note_on_c, 0, 60, 103
1, 259088, Note_off_c, 0, 60, 103
1, 259754, Note_on_c, 0, 58, 118
1, 259896, Note_off_c, 0, 58, 118
1, 259955, Note_on_c, 0, 65, 104
1, 260127, Note_off_c, 0, 65, 104
1, 260127, Note_on_c, 0, 70, 107
1, 260284, Note_off_c, 0, 70, 107
1, 260538, Note_on_c, 0, 60, 115
1, 260702, Note_off_c, 0, 60, 115
1, 260716, Note_on_c, 0, 67, 108
1, 260918, Note_off_c, 0, 67, 108
1, 260925, Note_on_c, 0, 72, 105
1, 261097, Note_off_c, 0, 72, 105
1, 261740, Note_on_c, 0, 61, 113
1, 261912, Note_off_c, 0, 61, 113
1, 261941, Note_on_c, 0, 67, 103
1, 262128, Note_off_c, 0, 67, 103
1, 262165, Note_on_c, 0, 73, 103
1, 262344, Note_off_c, 0, 73, 103
1, 262980, Note_on_c, 0, 63, 114
1, 263144, Note_off_c, 0, 63, 114
1, 263158, Note_on_c, 0, 68, 101
1, 263375, Note_off_c, 0, 68, 101
1, 263404, Note_on_c, 0, 75, 98
1, 263576, Note_off_c, 0, 75, 98
1, 264753, Note_on_c, 0, 63, 120
1, 264997, Note_off_c, 0, 63, 120
1, 265050, Note_on_c, 0, 65, 102
1, 265145, Note_off_c, 0, 65, 102
1, 265219, Note_on_c, 0, 70, 109
1, 265357, Note_off_c, 0, 70, 109
1, 265388, Note_on_c, 0, 63, 115
1, 265568, Note_off_c, 0, 63, 115
1, 265599, Note_on_c, 0, 65, 104
1, 265769, Note_off_c, 0, 65, 104
1, 265769, Note_on_c, 0, 68, 109
1, 265981, Note_off_c, 0, 68, 109
1, 265990, Note_on_c, 0, 71, 102
1, 266128, Note_off_c, 0, 71, 102
1, 266139, Note_on_c, 0, 74, 104
1, 266266, Note_off_c, 0, 74, 104
1, 266266, Note_on_c, 0, 76, 111
1, 266361, Note_off_c, 0, 76, 111
1, 266382, Note_on_c, 0, 77, 97
1, 269320, Note_off_c, 0, 77, 97
1, 269500, Note_on_c, 0, 75, 123
1, 269776, Note_off_c, 0, 75, 123
1, 269821, Note_on_c, 0, 70, 89
1, 270165, Note_off_c, 0, 70, 89
1, 271209, Note_on_c, 0, 75, 106
1, 271340, Note_off_c, 0, 75, 106
1, 271340, Note_on_c, 0, 77, 103
1, 272032, Note_off_c, 0, 77, 103
1, 272032, Note_on_c, 0, 75, 118
1, 272230, Note_off_c, 0, 75, 118
1, 272230, Note_on_c, 0, 71, 108
1, 272421, Note_off_c, 0, 71, 108
1, 272435, Note_on_c, 0, 69, 114
1, 272614, Note_off_c, 0, 69, 114
1, 272614, Note_on_c, 0, 65, 110
1, 272826, Note_off_c, 0, 65, 110
1, 272837, Note_on_c, 0, 61, 108
1, 272964, Note_off_c, 0, 61, 108
1, 272974, Note_on_c, 0, 60, 96
1, 273108, Note_off_c, 0, 60, 96
1, 273137, Note_on_c, 0, 70, 108
1, 273290, Note_off_c, 0, 70, 108
1, 273323, Note_on_c, 0, 65, 113
1, 273536, Note_off_c, 0, 65, 113
1, 274493, Note_on_c, 0, 75, 119
1, 274599, Note_off_c, 0, 75, 119
1, 274641, Note_on_c, 0, 77, 102
1, 275141, Note_off_c, 0, 77, 102
1, 275162, Note_on_c, 0, 76, 122
1, 275342, Note_off_c, 0, 76, 122
1, 275363, Note_on_c, 0, 75, 115
1, 275522, Note_off_c, 0, 75, 115
1, 275522, Note_on_c, 0, 70, 107
1, 275702, Note_off_c, 0, 70, 107
1, 275702, Note_on_c, 0, 66, 112
1, 275904, Note_off_c, 0, 66, 112
1, 275925, Note_on_c, 0, 65, 111
1, 276137, Note_off_c, 0, 65, 111
1, 276168, Note_on_c, 0, 69, 114
1, 276359, Note_off_c, 0, 69, 114
1, 276369, Note_on_c, 0, 66, 111
1, 276581, Note_off_c, 0, 66, 111
1, 276591, Note_on_c, 0, 65, 116
1, 276793, Note_off_c, 0, 65, 116
1, 276814, Note_on_c, 0, 64, 122
1, 276994, Note_off_c, 0, 64, 122
1, 276994, Note_on_c, 0, 63, 114
1, 277153, Note_off_c, 0, 63, 114
1, 277163, Note_on_c, 0, 65, 114
1, 277407, Note_off_c, 0, 65, 114
1, 277417, Note_on_c, 0, 66, 113
1, 277587, Note_off_c, 0, 66, 113
1, 277587, Note_on_c, 0, 68, 117
1, 277778, Note_off_c, 0, 68, 117
1, 277788, Note_on_c, 0, 65, 118
1, 277990, Note_off_c, 0, 65, 118
1, 278011, Note_on_c, 0, 64, 122
1, 278202, Note_off_c, 0, 64, 122
1, 278212, Note_on_c, 0, 63, 120
1, 278414, Note_off_c, 0, 63, 120
1, 278414, Note_on_c, 0, 67, 112
1, 278637, Note_off_c, 0, 67, 112
1, 278658, Note_on_c, 0, 66, 112
1, 278849, Note_off_c, 0, 66, 112
1, 278880, Note_on_c, 0, 61, 116
1, 279039, Note_off_c, 0, 61, 116
1, 279039, Note_on_c, 0, 58, 112
1, 279209, Note_off_c, 0, 58, 112
1, 279229, Note_on_c, 0, 56, 108
1, 279408, Note_off_c, 0, 56, 108
1, 279445, Note_on_c, 0, 63, 122
1, 279654, Note_off_c, 0, 63, 122
1, 279654, Note_on_c, 0, 61, 117
1, 279803, Note_off_c, 0, 61, 117
1, 279803, Note_on_c, 0, 58, 101
1, 279997, Note_off_c, 0, 58, 101
1, 280011, Note_on_c, 0, 53, 98
1, 280213, Note_off_c, 0, 53, 98
1, 280227, Note_on_c, 0, 57, 109
1, 280406, Note_off_c, 0, 57, 109
1, 280435, Note_on_c, 0, 60, 116
1, 280682, Note_off_c, 0, 60, 116
1, 280689, Note_on_c, 0, 65, 116
1, 280853, Note_off_c, 0, 65, 116
1, 280905, Note_on_c, 0, 69, 113
1, 281114, Note_off_c, 0, 69, 113
1, 281256, Note_on_c, 0, 72, 110
1, 281330, Note_off_c, 0, 72, 110
1, 281367, Note_on_c, 0, 73, 99
1, 281438, Note_off_c, 0, 73, 99
1, 281531, Note_on_c, 0, 73, 107
1, 282474, Note_off_c, 0, 73, 107
1, 282497, Note_on_c, 0, 71, 99
1, 282656, Note_off_c, 0, 71, 99
1, 282685, Note_on_c, 0, 68, 112
1, 283343, Note_off_c, 0, 68, 112
1, 284389, Note_on_c, 0, 72, 113
1, 284516, Note_off_c, 0, 72, 113
1, 284516, Note_on_c, 0, 74, 111
1, 284899, Note_off_c, 0, 74, 111
1, 285048, Note_on_c, 0, 69, 112
1, 285239, Note_off_c, 0, 69, 112
1, 285260, Note_on_c, 0, 68, 118
1, 285483, Note_off_c, 0, 68, 118
1, 285525, Note_on_c, 0, 67, 115
1, 285684, Note_off_c, 0, 67, 115
1, 285705, Note_on_c, 0, 66, 111
1, 285907, Note_off_c, 0, 66, 111
1, 285917, Note_on_c, 0, 68, 117
1, 286087, Note_off_c, 0, 68, 117
1, 286097, Note_on_c, 0, 67, 111
1, 286288, Note_off_c, 0, 67, 111
1, 286309, Note_on_c, 0, 66, 113
1, 286511, Note_off_c, 0, 66, 113
1, 286521, Note_on_c, 0, 65, 115
1, 286733, Note_off_c, 0, 65, 115
1, 286764, Note_on_c, 0, 64, 120
1, 286955, Note_off_c, 0, 64, 120
1, 286976, Note_on_c, 0, 63, 119
1, 287135, Note_off_c, 0, 63, 119
1, 287156, Note_on_c, 0, 65, 111
1, 287336, Note_off_c, 0, 65, 111
1, 287346, Note_on_c, 0, 66, 112
1, 287548, Note_off_c, 0, 66, 112
1, 287548, Note_on_c, 0, 64, 107
1, 287760, Note_off_c, 0, 64, 107
1, 287781, Note_on_c, 0, 65, 118
1, 287951, Note_off_c, 0, 65, 118
1, 287961, Note_on_c, 0, 64, 118
1, 288173, Note_off_c, 0, 64, 118
1, 288183, Note_on_c, 0, 63, 117
1, 288321, Note_off_c, 0, 63, 117
1, 288352, Note_on_c, 0, 67, 110
1, 288564, Note_off_c, 0, 67, 110
1, 288595, Note_on_c, 0, 66, 111
1, 288775, Note_off_c, 0, 66, 111
1, 288785, Note_on_c, 0, 61, 116
1, 288955, Note_off_c, 0, 61, 116
1, 288986, Note_on_c, 0, 58, 110
1, 289166, Note_off_c, 0, 58, 110
1, 289208, Note_on_c, 0, 56, 110
1, 289426, Note_off_c, 0, 56, 110
1, 289426, Note_on_c, 0, 63, 121
1, 289585, Note_off_c, 0, 63, 121
1, 289627, Note_on_c, 0, 61, 118
1, 289797, Note_off_c, 0, 61, 118
1, 289812, Note_on_c, 0, 58, 105
1, 289987, Note_off_c, 0, 58, 105
1, 289987, Note_on_c, 0, 54, 99
1, 290141, Note_off_c, 0, 54, 99
1, 290156, Note_on_c, 0, 56, 104
1, 290390, Note_off_c, 0, 56, 104
1, 290395, Note_on_c, 0, 55, 102
1, 290623, Note_off_c, 0, 55, 102
1, 290644, Note_on_c, 0, 54, 104
1, 290809, Note_off_c, 0, 54, 104
1, 290835, Note_on_c, 0, 56, 106
1, 291031, Note_off_c, 0, 56, 106
1, 291057, Note_on_c, 0, 55, 103
1, 291275, Note_off_c, 0, 55, 103
1, 291285, Note_on_c, 0, 58, 95
1, 291439, Note_off_c, 0, 58, 95
1, 291444, Note_on_c, 0, 61, 101
1, 291571, Note_off_c, 0, 61, 101
1, 292976, Note_on_c, 0, 68, 118
1, 293082, Note_off_c, 0, 68, 118
1, 293124, Note_on_c, 0, 68, 118
1, 293315, Note_off_c, 0, 68, 118
1, 293336, Note_on_c, 0, 68, 118
1, 293538, Note_off_c, 0, 68, 118
1, 293599, Note_on_c, 0, 53, 118
1, 293726, Note_off_c, 0, 53, 118
1, 293738, Note_on_c, 0, 68, 114
1, 294142, Note_off_c, 0, 68, 114
1, 294322, Note_on_c, 0, 67, 99
1, 294428, Note_off_c, 0, 67, 99
1, 294428, Note_on_c, 0, 68, 118
1, 294821, Note_off_c, 0, 68, 118
1, 294895, Note_on_c, 0, 68, 119
1, 295256, Note_off_c, 0, 68, 119
1, 295309, Note_on_c, 0, 68, 116
1, 295617, Note_off_c, 0, 68, 116
1, 295627, Note_on_c, 0, 65, 115
1, 295818, Note_off_c, 0, 65, 115
1, 296073, Note_on_c, 0, 65, 114
1, 296403, Note_off_c, 0, 65, 114
1, 296403, Note_on_c, 0, 63, 116
1, 296658, Note_off_c, 0, 63, 116
1, 296679, Note_on_c, 0, 65, 112
1, 297349, Note_off_c, 0, 65, 112
1, 297370, Note_on_c, 0, 63, 119
1, 297561, Note_off_c, 0, 63, 119
1, 297570, Note_on_c, 0, 58, 101
1, 298479, Note_off_c, 0, 58, 101
1, 299716, Note_on_c, 0, 70, 116
1, 299859, Note_off_c, 0, 70, 116
1, 299901, Note_on_c, 0, 68, 118
1, 300066, Note_off_c, 0, 68, 118
1, 300066, Note_on_c, 0, 73, 106
1, 300252, Note_off_c, 0, 73, 106
1, 300283, Note_on_c, 0, 70, 113
1, 300479, Note_off_c, 0, 70, 113
1, 300494, Note_on_c, 0, 66, 112
1, 300669, Note_off_c, 0, 66, 112
1, 300679, Note_on_c, 0, 65, 115
1, 300849, Note_off_c, 0, 65, 115
1, 300880, Note_on_c, 0, 64, 119
1, 301087, Note_off_c, 0, 64, 119
1, 301108, Note_on_c, 0, 63, 118
1, 301283, Note_off_c, 0, 63, 118
1, 301283, Note_on_c, 0, 65, 111
1, 301479, Note_off_c, 0, 65, 111
1, 301494, Note_on_c, 0, 66, 109
1, 301664, Note_off_c, 0, 66, 109
1, 301685, Note_on_c, 0, 68, 112
1, 301881, Note_off_c, 0, 68, 112
1, 301918, Note_on_c, 0, 65, 114
1, 302114, Note_off_c, 0, 65, 114
1, 302129, Note_on_c, 0, 64, 121
1, 302288, Note_off_c, 0, 64, 121
1, 302319, Note_on_c, 0, 63, 117
1, 302489, Note_off_c, 0, 63, 117
1, 302512, Note_on_c, 0, 67, 112
1, 302682, Note_off_c, 0, 67, 112
1, 302695, Note_on_c, 0, 66, 117
1, 302891, Note_off_c, 0, 66, 117
1, 302928, Note_on_c, 0, 61, 123
1, 303114, Note_off_c, 0, 61, 123
1, 303129, Note_on_c, 0, 58, 114
1, 303262, Note_off_c, 0, 58, 114
1, 303277, Note_on_c, 0, 56, 111
1, 303479, Note_off_c, 0, 56, 111
1, 303500, Note_on_c, 0, 63, 118
1, 303728, Note_off_c, 0, 63, 118
1, 303749, Note_on_c, 0, 61, 123
1, 303924, Note_off_c, 0, 61, 123
1, 303955, Note_on_c, 0, 56, 109
1, 304162, Note_off_c, 0, 56, 109
1, 304374, Note_on_c, 0, 58, 113
1, 304554, Note_off_c, 0, 58, 113
1, 304580, Note_on_c, 0, 54, 116
1, 304776, Note_off_c, 0, 54, 116
1, 304797, Note_on_c, 0, 49, 112
1, 304983, Note_off_c, 0, 49, 112
1, 304988, Note_on_c, 0, 54, 116
1, 305200, Note_off_c, 0, 54, 116
1, 305215, Note_on_c, 0, 51, 121
1, 305513, Note_off_c, 0, 51, 121
1, 305539, Note_on_c, 0, 46, 121
1, 305821, Note_off_c, 0, 46, 121
1, 305842, Note_on_c, 0, 44, 120
1, 306619, Note_off_c, 0, 44, 120
1, 307779, Note_on_c, 0, 45, 119
1, 308013, Note_off_c, 0, 45, 119
1, 308028, Note_on_c, 0, 51, 113
1, 308203, Note_off_c, 0, 51, 113
1, 309874, Note_on_c, 0, 48, 114
1, 310076, Note_off_c, 0, 48, 114
1, 310076, Note_on_c, 0, 53, 114
1, 310283, Note_off_c, 0, 53, 114
1, 311113, Note_on_c, 0, 44, 122
1, 311304, Note_off_c, 0, 44, 122
1, 311314, Note_on_c, 0, 51, 116
1, 311537, Note_off_c, 0, 51, 116
1, 312021, Note_on_c, 0, 46, 116
1, 312255, Note_off_c, 0, 46, 116
1, 312260, Note_on_c, 0, 53, 114
1, 312467, Note_off_c, 0, 53, 114
1, 312802, Note_on_c, 0, 48, 115
1, 313052, Note_off_c, 0, 48, 115
1, 313073, Note_on_c, 0, 55, 106
1, 313387, Note_off_c, 0, 55, 106
1, 314020, Note_on_c, 0, 44, 116
1, 314232, Note_off_c, 0, 44, 116
1, 314247, Note_on_c, 0, 51, 111
1, 314459, Note_off_c, 0, 51, 111
1, 315294, Note_on_c, 0, 45, 115
1, 315496, Note_off_c, 0, 45, 115
1, 315496, Note_on_c, 0, 51, 107
1, 315698, Note_off_c, 0, 51, 107
1, 315900, Note_on_c, 0, 46, 115
1, 316112, Note_off_c, 0, 46, 115
1, 316149, Note_on_c, 0, 53, 115
1, 316351, Note_off_c, 0, 53, 115
1, 316500, Note_on_c, 0, 48, 112
1, 316718, Note_off_c, 0, 48, 112
1, 316760, Note_on_c, 0, 55, 108
1, 316956, Note_off_c, 0, 55, 108
1, 316971, Note_on_c, 0, 50, 113
1, 317151, Note_off_c, 0, 50, 113
1, 317188, Note_on_c, 0, 57, 110
1, 317454, Note_off_c, 0, 57, 110
1, 317501, Note_on_c, 0, 52, 109
1, 317761, Note_off_c, 0, 52, 109
1, 317798, Note_on_c, 0, 59, 102
1, 318053, Note_off_c, 0, 59, 102
1, 318058, Note_on_c, 0, 54, 108
1, 318340, Note_off_c, 0, 54, 108
1, 318345, Note_on_c, 0, 61, 108
1, 318664, Note_off_c, 0, 61, 108
1, 318664, Note_on_c, 0, 56, 109
1, 318924, Note_off_c, 0, 56, 109
1, 318924, Note_on_c, 0, 63, 117
1, 319152, Note_off_c, 0, 63, 117
1, 319167, Note_on_c, 0, 58, 100
1, 319422, Note_off_c, 0, 58, 100
1, 319453, Note_on_c, 0, 60, 116
1, 319687, Note_off_c, 0, 60, 116
1, 319697, Note_on_c, 0, 65, 113
1, 319979, Note_off_c, 0, 65, 113
1, 319989, Note_on_c, 0, 61, 111
1, 320271, Note_off_c, 0, 61, 111
1, 320286, Note_on_c, 0, 67, 113
1, 320552, Note_off_c, 0, 67, 113
1, 320562, Note_on_c, 0, 64, 116
1, 320838, Note_off_c, 0, 64, 116
1, 320838, Note_on_c, 0, 69, 112
1, 321098, Note_off_c, 0, 69, 112
1, 321103, Note_on_c, 0, 66, 112
1, 321315, Note_off_c, 0, 66, 112
1, 321336, Note_on_c, 0, 71, 104
1, 321596, Note_off_c, 0, 71, 104
1, 321601, Note_on_c, 0, 68, 115
1, 321851, Note_off_c, 0, 68, 115
1, 321852, Note_on_c, 0, 73, 102
1, 322084, Note_off_c, 0, 73, 102
1, 322967, Note_on_c, 0, 44, 119
1, 323229, Note_off_c, 0, 44, 119
1, 323229, Note_on_c, 0, 51, 115
1, 323491, Note_off_c, 0, 51, 115
1, 323520, Note_on_c, 0, 49, 115
1, 323774, Note_off_c, 0, 49, 115
1, 323774, Note_on_c, 0, 54, 119
1, 324021, Note_off_c, 0, 54, 119
1, 324065, Note_on_c, 0, 50, 117
1, 324319, Note_off_c, 0, 50, 117
1, 324333, Note_on_c, 0, 59, 99
1, 324587, Note_off_c, 0, 59, 99
1, 324587, Note_on_c, 0, 51, 113
1, 324893, Note_off_c, 0, 51, 113
1, 324900, Note_on_c, 0, 59, 106
1, 325124, Note_off_c, 0, 59, 106
1, 325124, Note_on_c, 0, 50, 118
1, 325326, Note_off_c, 0, 50, 118
1, 325363, Note_on_c, 0, 55, 115
1, 325587, Note_off_c, 0, 55, 115
1, 325609, Note_on_c, 0, 48, 120
1, 325833, Note_off_c, 0, 48, 120
1, 325862, Note_on_c, 0, 53, 118
1, 326101, Note_off_c, 0, 53, 118
1, 326954, Note_on_c, 0, 44, 117
1, 327216, Note_off_c, 0, 44, 117
1, 327245, Note_on_c, 0, 51, 113
1, 327484, Note_off_c, 0, 51, 113
1, 327506, Note_on_c, 0, 49, 112
1, 327753, Note_off_c, 0, 49, 112
1, 327775, Note_on_c, 0, 54, 109
1, 328051, Note_off_c, 0, 54, 109
1, 328065, Note_on_c, 0, 52, 112
1, 328297, Note_off_c, 0, 52, 112
1, 328371, Note_on_c, 0, 59, 106
1, 328618, Note_off_c, 0, 59, 106
1, 328618, Note_on_c, 0, 54, 101
1, 328865, Note_off_c, 0, 54, 101
1, 328913, Note_on_c, 0, 61, 111
1, 329160, Note_off_c, 0, 61, 111
1, 329163, Note_on_c, 0, 56, 104
1, 329413, Note_off_c, 0, 56, 104
1, 329469, Note_on_c, 0, 61, 107
1, 329738, Note_off_c, 0, 61, 107
1, 329745, Note_on_c, 0, 59, 104
1, 329977, Note_off_c, 0, 59, 104
1, 329977, Note_on_c, 0, 63, 119
1, 330194, Note_off_c, 0, 63, 119
1, 330216, Note_on_c, 0, 61, 110
1, 330463, Note_off_c, 0, 61, 110
1, 330512, Note_on_c, 0, 66, 108
1, 330783, Note_off_c, 0, 66, 108
1, 330814, Note_on_c, 0, 67, 115
1, 331058, Note_off_c, 0, 67, 115
1, 331627, Note_on_c, 0, 61, 116
1, 331802, Note_off_c, 0, 61, 116
1, 331854, Note_on_c, 0, 63, 102
1, 331971, Note_off_c, 0, 63, 102
1, 332008, Note_on_c, 0, 66, 112
1, 332188, Note_off_c, 0, 66, 112
1, 332209, Note_on_c, 0, 68, 115
1, 332395, Note_off_c, 0, 68, 115
1, 332410, Note_on_c, 0, 63, 120
1, 332628, Note_off_c, 0, 63, 120
1, 332670, Note_on_c, 0, 66, 98
1, 332835, Note_off_c, 0, 66, 98
1, 332850, Note_on_c, 0, 68, 114
1, 333041, Note_off_c, 0, 68, 114
1, 333083, Note_on_c, 0, 71, 102
1, 333269, Note_off_c, 0, 71, 102
1, 333359, Note_on_c, 0, 75, 118
1, 333566, Note_off_c, 0, 75, 118
1, 334412, Note_on_c, 0, 75, 126
1, 334678, Note_off_c, 0, 75, 126
1, 336088, Note_on_c, 0, 61, 119
1, 336221, Note_off_c, 0, 61, 119
1, 336226, Note_on_c, 0, 59, 119
1, 336295, Note_off_c, 0, 59, 119
1, 336295, Note_on_c, 0, 61, 119
1, 336428, Note_off_c, 0, 61, 119
1, 336939, Note_on_c, 0, 75, 119
1, 337247, Note_off_c, 0, 75, 119
1, 338253, Note_on_c, 0, 75, 121
1, 338593, Note_off_c, 0, 75, 121
1, 339107, Note_on_c, 0, 57, 114
1, 339287, Note_off_c, 0, 57, 114
1, 339304, Note_on_c, 0, 69, 115
1, 339681, Note_off_c, 0, 69, 115
1, 340186, Note_on_c, 0, 75, 122
1, 340484, Note_off_c, 0, 75, 122
1, 341048, Note_on_c, 0, 75, 123
1, 341340, Note_off_c, 0, 75, 123
1, 341579, Note_on_c, 0, 75, 120
1, 341935, Note_off_c, 0, 75, 120
1, 342406, Note_on_c, 0, 57, 120
1, 342672, Note_off_c, 0, 57, 120
1, 342690, Note_on_c, 0, 70, 120
1, 342886, Note_off_c, 0, 70, 120
1, 343460, Note_on_c, 0, 45, 125
1, 343640, Note_off_c, 0, 45, 125
1, 343640, Note_on_c, 0, 51, 113
1, 343815, Note_off_c, 0, 51, 113
1, 343852, Note_on_c, 0, 57, 112
1, 344027, Note_off_c, 0, 57, 112
1, 344064, Note_on_c, 0, 49, 114
1, 344255, Note_off_c, 0, 49, 114
1, 344281, Note_on_c, 0, 50, 109
1, 344467, Note_off_c, 0, 50, 109
1, 344488, Note_on_c, 0, 53, 114
1, 344647, Note_off_c, 0, 53, 114
1, 344678, Note_on_c, 0, 52, 116
1, 344869, Note_off_c, 0, 52, 116
1, 344884, Note_on_c, 0, 51, 113
1, 345049, Note_off_c, 0, 51, 113
1, 345096, Note_on_c, 0, 55, 111
1, 345245, Note_off_c, 0, 55, 111
1, 345260, Note_on_c, 0, 58, 105
1, 345467, Note_off_c, 0, 58, 105
1, 345493, Note_on_c, 0, 61, 118
1, 345679, Note_off_c, 0, 61, 118
1, 345684, Note_on_c, 0, 63, 119
1, 345880, Note_off_c, 0, 63, 119
1, 345890, Note_on_c, 0, 65, 107
1, 346060, Note_off_c, 0, 65, 107
1, 346065, Note_on_c, 0, 67, 113
1, 346277, Note_off_c, 0, 67, 113
1, 346330, Note_on_c, 0, 71, 106
1, 346510, Note_off_c, 0, 71, 106
1, 346525, Note_on_c, 0, 75, 124
1, 346817, Note_off_c, 0, 75, 124
1, 347503, Note_on_c, 0, 45, 120
1, 347715, Note_off_c, 0, 45, 120
1, 348034, Note_on_c, 0, 75, 101
1, 348278, Note_off_c, 0, 75, 101
1, 348815, Note_on_c, 0, 45, 118
1, 349027, Note_off_c, 0, 45, 118
1, 349186, Note_on_c, 0, 75, 123
1, 349489, Note_off_c, 0, 75, 123
1, 350031, Note_on_c, 0, 75, 124
1, 350254, Note_off_c, 0, 75, 124
1, 350509, Note_on_c, 0, 45, 119
1, 350839, Note_off_c, 0, 45, 119
1, 351465, Note_on_c, 0, 49, 116
1, 351645, Note_off_c, 0, 49, 116
1, 351654, Note_on_c, 0, 50, 118
1, 351861, Note_off_c, 0, 50, 118
1, 351878, Note_on_c, 0, 53, 111
1, 352048, Note_off_c, 0, 53, 111
1, 352069, Note_on_c, 0, 52, 120
1, 352244, Note_off_c, 0, 52, 120
1, 352275, Note_on_c, 0, 51, 116
1, 352498, Note_off_c, 0, 51, 116
1, 352498, Note_on_c, 0, 53, 108
1, 352705, Note_off_c, 0, 53, 108
1, 352705, Note_on_c, 0, 55, 110
1, 352896, Note_off_c, 0, 55, 110
1, 352917, Note_on_c, 0, 58, 106
1, 353113, Note_off_c, 0, 58, 106
1, 353113, Note_on_c, 0, 57, 110
1, 353309, Note_off_c, 0, 57, 110
1, 353319, Note_on_c, 0, 53, 106
1, 353484, Note_off_c, 0, 53, 106
1, 353510, Note_on_c, 0, 58, 109
1, 353717, Note_off_c, 0, 58, 109
1, 353727, Note_on_c, 0, 55, 104
1, 353907, Note_off_c, 0, 55, 104
1, 353917, Note_on_c, 0, 60, 119
1, 354129, Note_off_c, 0, 60, 119
1, 354129, Note_on_c, 0, 62, 121
1, 354347, Note_off_c, 0, 62, 121
1, 354347, Note_on_c, 0, 63, 121
1, 354527, Note_off_c, 0, 63, 121
1, 354558, Note_on_c, 0, 65, 105
1, 354707, Note_off_c, 0, 65, 105
1, 354738, Note_on_c, 0, 67, 115
1, 354940, Note_off_c, 0, 67, 115
1, 354966, Note_on_c, 0, 70, 113
1, 355125, Note_off_c, 0, 70, 113
1, 355140, Note_on_c, 0, 69, 112
1, 355352, Note_off_c, 0, 69, 112
1, 355831, Note_on_c, 0, 75, 122
1, 356017, Note_off_c, 0, 75, 122
1, 356607, Note_on_c, 0, 45, 118
1, 356825, Note_off_c, 0, 45, 118
1, 356990, Note_on_c, 0, 51, 113
1, 357261, Note_off_c, 0, 51, 113
1, 357410, Note_on_c, 0, 55, 113
1, 357676, Note_off_c, 0, 55, 113
1, 357856, Note_on_c, 0, 59, 102
1, 358127, Note_off_c, 0, 59, 102
1, 358318, Note_on_c, 0, 63, 117
1, 358525, Note_off_c, 0, 63, 117
1, 358695, Note_on_c, 0, 67, 115
1, 358897, Note_off_c, 0, 67, 115
1, 359072, Note_on_c, 0, 71, 106
1, 359290, Note_off_c, 0, 71, 106
1, 359439, Note_on_c, 0, 75, 118
1, 359646, Note_off_c, 0, 75, 118
1, 359688, Note_on_c, 0, 75, 126
1, 360161, Note_off_c, 0, 75, 126
1, 360161, End_track
0, 0, End_of_file
