0, 0, Header, 1, 1, 192
1, 0, Start_track
1, 0, Title_t, "Melody"
1, 0, Tempo, 242914
1, 0, Key_signature, -3, "major"
1, 0, Time_signature, 4, 2, 24, 8
1, 3028, Note_on_c, 0, 75, 109
1, 4454, Note_off_c, 0, 75, 109
1, 4454, Note_on_c, 0, 72, 112
1, 4507, Note_off_c, 0, 72, 112
1, 4513, Note_on_c, 0, 71, 114
1, 4561, Note_off_c, 0, 71, 114
1, 4566, Note_on_c, 0, 70, 114
1, 5429, Note_off_c, 0, 70, 114
1, 5484, Note_on_c, 0, 70, 114
1, 5606, Note_off_c, 0, 70, 114
1, 5661, Note_on_c, 0, 70, 113
1, 5822, Note_off_c, 0, 70, 113
1, 5875, Note_on_c, 0, 75, 104
1, 6711, Note_off_c, 0, 75, 104
1, 6735, Note_on_c, 0, 72, 106
1, 6800, Note_off_c, 0, 72, 106
1, 6800, Note_on_c, 0, 70, 112
1, 7066, Note_off_c, 0, 70, 112
1, 7107, Note_on_c, 0, 70, 112
1, 7398, Note_off_c, 0, 70, 112
1, 7446, Note_on_c, 0, 72, 103
1, 7506, Note_off_c, 0, 72, 103
1, 7506, Note_on_c, 0, 65, 104
1, 7552, Note_off_c, 0, 65, 104
1, 7553, Note_on_c, 0, 70, 118
1, 7657, Note_off_c, 0, 70, 118
1, 7696, Note_on_c, 0, 65, 116
1, 7876, Note_off_c, 0, 65, 116
1, 8584, Note_on_c, 0, 70, 110
1, 8718, Note_off_c, 0, 70, 110
1, 8723, Note_on_c, 0, 74, 101
1, 8772, Note_off_c, 0, 74, 101
1, 8780, Note_on_c, 0, 75, 104
1, 9242, Note_off_c, 0, 75, 104
1, 9252, Note_on_c, 0, 73, 109
1, 9320, Note_off_c, 0, 73, 109
1, 9345, Note_on_c, 0, 71, 114
1, 9412, Note_off_c, 0, 71, 114
1, 9429, Note_on_c, 0, 70, 109
1, 9501, Note_off_c, 0, 70, 109
1, 9514, Note_on_c, 0, 69, 114
1, 9586, Note_off_c, 0, 69, 114
1, 9615, Note_on_c, 0, 68, 116
1, 9686, Note_off_c, 0, 68, 116
1, 9718, Note_on_c, 0, 67, 115
1, 9785, Note_off_c, 0, 67, 115
1, 9807, Note_on_c, 0, 66, 111
1, 9890, Note_off_c, 0, 66, 111
1, 9902, Note_on_c, 0, 67, 105
1, 9973, Note_off_c, 0, 67, 105
1, 9994, Note_on_c, 0, 68, 118
1, 10072, Note_off_c, 0, 68, 118
1, 10092, Note_on_c, 0, 66, 101
1, 10166, Note_off_c, 0, 66, 101
1, 10187, Note_on_c, 0, 67, 115
1, 10268, Note_off_c, 0, 67, 115
1, 10279, Note_on_c, 0, 66, 112
1, 10362, Note_off_c, 0, 66, 112
1, 10379, Note_on_c, 0, 65, 117
1, 10458, Note_off_c, 0, 65, 117
1, 10466, Note_on_c, 0, 64, 123
1, 10537, Note_off_c, 0, 64, 123
1, 10561, Note_on_c, 0, 63, 119
1, 10633, Note_off_c, 0, 63, 119
1, 10655, Note_on_c, 0, 61, 117
1, 10721, Note_off_c, 0, 61, 117
1, 10757, Note_on_c, 0, 56, 109
1, 10822, Note_off_c, 0, 56, 109
1, 10834, Note_on_c, 0, 51, 106
1, 10895, Note_off_c, 0, 51, 106
1, 10914, Note_on_c, 0, 53, 120
1, 10949, Note_off_c, 0, 53, 120
1, 10955, Note_on_c, 0, 58, 112
1, 11011, Note_off_c, 0, 58, 112
1, 11022, Note_on_c, 0, 53, 120
1, 11086, Note_off_c, 0, 53, 120
1, 11105, Note_on_c, 0, 49, 113
1, 11180, Note_off_c, 0, 49, 113
1, 11212, Note_on_c, 0, 53, 116
1, 11294, Note_off_c, 0, 53, 116
1, 11314, Note_on_c, 0, 51, 116
1, 11448, Note_off_c, 0, 51, 116
1, 11480, Note_on_c, 0, 46, 118
1, 11574, Note_off_c, 0, 46, 118
1, 11615, Note_on_c, 0, 44, 118
1, 11866, Note_off_c, 0, 44, 118
1, 12520, Note_on_c, 0, 67, 116
1, 12623, Note_off_c, 0, 67, 116
1, 12632, Note_on_c, 0, 65, 115
1, 12710, Note_off_c, 0, 65, 115
1, 12710, Note_on_c, 0, 67, 114
1, 13091, Note_off_c, 0, 67, 114
1, 13119, Note_on_c, 0, 67, 114
1, 13348, Note_off_c, 0, 67, 114
1, 13382, Note_on_c, 0, 66, 111
1, 13469, Note_off_c, 0, 66, 111
1, 13502, Note_on_c, 0, 68, 113
1, 13617, Note_on_c, 0, 67, 112
1, 13617, Note_off_c, 0, 68, 113
1, 13688, Note_off_c, 0, 67, 112
1, 13688, Note_on_c, 0, 63, 120
1, 13757, Note_off_c, 0, 63, 120
1, 13762, Note_on_c, 0, 59, 104
1, 13823, Note_off_c, 0, 59, 104
1, 13823, Note_on_c, 0, 56, 110
1, 13902, Note_off_c, 0, 56, 110
1, 13926, Note_on_c, 0, 63, 120
1, 14036, Note_off_c, 0, 63, 120
1, 14048, Note_on_c, 0, 62, 117
1, 14120, Note_off_c, 0, 62, 117
1, 14120, Note_on_c, 0, 59, 102
1, 14206, Note_off_c, 0, 59, 102
1, 14225, Note_on_c, 0, 55, 104
1, 14323, Note_off_c, 0, 55, 104
1, 14329, Note_on_c, 0, 60, 118
1, 14400, Note_off_c, 0, 60, 118
1, 14405, Note_on_c, 0, 62, 116
1, 14452, Note_off_c, 0, 62, 116
1, 14457, Note_on_c, 0, 63, 119
1, 14571, Note_off_c, 0, 63, 119
1, 14577, Note_on_c, 0, 65, 96
1, 14653, Note_off_c, 0, 65, 96
1, 14663, Note_on_c, 0, 67, 110
1, 14752, Note_off_c, 0, 67, 110
1, 14752, Note_on_c, 0, 68, 112
1, 14846, Note_off_c, 0, 68, 112
1, 14846, Note_on_c, 0, 67, 110
1, 14933, Note_off_c, 0, 67, 110
1, 14944, Note_on_c, 0, 65, 114
1, 15040, Note_off_c, 0, 65, 114
1, 15054, Note_on_c, 0, 64, 117
1, 15146, Note_off_c, 0, 64, 117
1, 15156, Note_on_c, 0, 65, 102
1, 15206, Note_off_c, 0, 65, 102
1, 15226, Note_on_c, 0, 67, 111
1, 15301, Note_off_c, 0, 67, 111
1, 15317, Note_on_c, 0, 68, 114
1, 15403, Note_off_c, 0, 68, 114
1, 15406, Note_on_c, 0, 65, 114
1, 15509, Note_off_c, 0, 65, 114
1, 15509, Note_on_c, 0, 67, 96
1, 15593, Note_off_c, 0, 67, 96
1, 15598, Note_on_c, 0, 68, 115
1, 15669, Note_off_c, 0, 68, 115
1, 15678, Note_on_c, 0, 70, 109
1, 15764, Note_off_c, 0, 70, 109
1, 15784, Note_on_c, 0, 72, 104
1, 15873, Note_off_c, 0, 72, 104
1, 15887, Note_on_c, 0, 75, 120
1, 15966, Note_off_c, 0, 75, 120
1, 15966, Note_on_c, 0, 72, 104
1, 16068, Note_off_c, 0, 72, 104
1, 16071, Note_on_c, 0, 68, 115
1, 16150, Note_off_c, 0, 68, 115
1, 16159, Note_on_c, 0, 67, 111
1, 16231, Note_off_c, 0, 67, 111
1, 16240, Note_on_c, 0, 70, 106
1, 16331, Note_off_c, 0, 70, 106
1, 16347, Note_on_c, 0, 68, 117
1, 16415, Note_off_c, 0, 68, 117
1, 16419, Note_on_c, 0, 64, 107
1, 16503, Note_off_c, 0, 64, 107
1, 16519, Note_on_c, 0, 66, 114
1, 16552, Note_off_c, 0, 66, 114
1, 16552, Note_on_c, 0, 67, 112
1, 16611, Note_off_c, 0, 67, 112
1, 16629, Note_on_c, 0, 66, 110
1, 16715, Note_off_c, 0, 66, 110
1, 16728, Note_on_c, 0, 65, 110
1, 16802, Note_off_c, 0, 65, 110
1, 16802, Note_on_c, 0, 64, 117
1, 16899, Note_off_c, 0, 64, 117
1, 16907, Note_on_c, 0, 63, 114
1, 17004, Note_on_c, 0, 65, 94
1, 17004, Note_off_c, 0, 63, 114
1, 17067, Note_off_c, 0, 65, 94
1, 17077, Note_on_c, 0, 67, 111
1, 17183, Note_off_c, 0, 67, 111
1, 17191, Note_on_c, 0, 63, 121
1, 17283, Note_off_c, 0, 63, 121
1, 17291, Note_on_c, 0, 63, 119
1, 17342, Note_off_c, 0, 63, 119
1, 17352, Note_on_c, 0, 61, 103
1, 17381, Note_off_c, 0, 61, 103
1, 17381, Note_on_c, 0, 63, 120
1, 17438, Note_off_c, 0, 63, 120
1, 17448, Note_on_c, 0, 60, 114
1, 17578, Note_off_c, 0, 60, 114
1, 18153, Note_on_c, 0, 72, 113
1, 18247, Note_off_c, 0, 72, 113
1, 18247, Note_on_c, 0, 70, 115
1, 18313, Note_off_c, 0, 70, 115
1, 18389, Note_on_c, 0, 72, 110
1, 18541, Note_off_c, 0, 72, 110
1, 18542, Note_on_c, 0, 70, 110
1, 18672, Note_off_c, 0, 70, 110
1, 18693, Note_on_c, 0, 72, 110
1, 18924, Note_off_c, 0, 72, 110
1, 18936, Note_on_c, 0, 72, 115
1, 19073, Note_off_c, 0, 72, 115
1, 19099, Note_on_c, 0, 71, 117
1, 19439, Note_off_c, 0, 71, 117
1, 19468, Note_on_c, 0, 71, 112
1, 19551, Note_off_c, 0, 71, 112
1, 19557, Note_on_c, 0, 70, 112
1, 19631, Note_off_c, 0, 70, 112
1, 19642, Note_on_c, 0, 69, 112
1, 19705, Note_off_c, 0, 69, 112
1, 19721, Note_on_c, 0, 68, 112
1, 19820, Note_off_c, 0, 68, 112
1, 19831, Note_on_c, 0, 70, 110
1, 19905, Note_off_c, 0, 70, 110
1, 19915, Note_on_c, 0, 68, 111
1, 19987, Note_off_c, 0, 68, 111
1, 19992, Note_on_c, 0, 67, 110
1, 20061, Note_off_c, 0, 67, 110
1, 20069, Note_on_c, 0, 66, 107
1, 20143, Note_off_c, 0, 66, 107
1, 20143, Note_on_c, 0, 68, 112
1, 20254, Note_off_c, 0, 68, 112
1, 20273, Note_on_c, 0, 67, 110
1, 20364, Note_off_c, 0, 67, 110
1, 20365, Note_on_c, 0, 66, 107
1, 20452, Note_on_c, 0, 65, 111
1, 20452, Note_off_c, 0, 66, 107
1, 20535, Note_off_c, 0, 65, 111
1, 20539, Note_on_c, 0, 64, 124
1, 20611, Note_off_c, 0, 64, 124
1, 20623, Note_on_c, 0, 63, 116
1, 20701, Note_off_c, 0, 63, 116
1, 20717, Note_on_c, 0, 65, 111
1, 20801, Note_off_c, 0, 65, 111
1, 20801, Note_on_c, 0, 67, 110
1, 20875, Note_off_c, 0, 67, 110
1, 20880, Note_on_c, 0, 66, 108
1, 20913, Note_off_c, 0, 66, 108
1, 20913, Note_on_c, 0, 63, 113
1, 20992, Note_off_c, 0, 63, 113
1, 20994, Note_on_c, 0, 65, 114
1, 21093, Note_off_c, 0, 65, 114
1, 21099, Note_on_c, 0, 63, 116
1, 21172, Note_off_c, 0, 63, 116
1, 21177, Note_on_c, 0, 58, 99
1, 21249, Note_off_c, 0, 58, 99
1, 21274, Note_on_c, 0, 55, 103
1, 21358, Note_off_c, 0, 55, 103
1, 21364, Note_on_c, 0, 63, 122
1, 21425, Note_off_c, 0, 63, 122
1, 21490, Note_on_c, 0, 54, 108
1, 21558, Note_off_c, 0, 54, 108
1, 21558, Note_on_c, 0, 56, 105
1, 21637, Note_off_c, 0, 56, 105
1, 22195, Note_on_c, 0, 45, 118
1, 22277, Note_off_c, 0, 45, 118
1, 22281, Note_on_c, 0, 51, 111
1, 22337, Note_off_c, 0, 51, 111
1, 22359, Note_on_c, 0, 58, 107
1, 22431, Note_off_c, 0, 58, 107
1, 22471, Note_on_c, 0, 48, 117
1, 22539, Note_off_c, 0, 48, 117
1, 22556, Note_on_c, 0, 50, 104
1, 22640, Note_off_c, 0, 50, 104
1, 22675, Note_on_c, 0, 53, 112
1, 22759, Note_off_c, 0, 53, 112
1, 22759, Note_on_c, 0, 52, 114
1, 22828, Note_off_c, 0, 52, 114
1, 22833, Note_on_c, 0, 51, 113
1, 22914, Note_off_c, 0, 51, 113
1, 22932, Note_on_c, 0, 56, 97
1, 23008, Note_off_c, 0, 56, 97
1, 23037, Note_on_c, 0, 59, 101
1, 23133, Note_off_c, 0, 59, 101
1, 23139, Note_on_c, 0, 61, 116
1, 23222, Note_off_c, 0, 61, 116
1, 23222, Note_on_c, 0, 62, 118
1, 23317, Note_off_c, 0, 62, 118
1, 23323, Note_on_c, 0, 61, 115
1, 23417, Note_off_c, 0, 61, 115
1, 23423, Note_on_c, 0, 59, 96
1, 23504, Note_off_c, 0, 59, 96
1, 23504, Note_on_c, 0, 56, 99
1, 23546, Note_off_c, 0, 56, 99
1, 23585, Note_on_c, 0, 61, 110
1, 23681, Note_off_c, 0, 61, 110
1, 23881, Note_on_c, 0, 71, 111
1, 23960, Note_off_c, 0, 71, 111
1, 23974, Note_on_c, 0, 66, 104
1, 24073, Note_off_c, 0, 66, 104
1, 24149, Note_on_c, 0, 68, 114
1, 24251, Note_off_c, 0, 68, 114
1, 24251, Note_on_c, 0, 71, 107
1, 24298, Note_off_c, 0, 71, 107
1, 24298, Note_on_c, 0, 72, 98
1, 24335, Note_off_c, 0, 72, 98
1, 24335, Note_on_c, 0, 73, 104
1, 24419, Note_off_c, 0, 73, 104
1, 24602, Note_on_c, 0, 72, 107
1, 24694, Note_off_c, 0, 72, 107
1, 24696, Note_on_c, 0, 71, 104
1, 24726, Note_off_c, 0, 71, 104
1, 24726, Note_on_c, 0, 70, 103
1, 24753, Note_off_c, 0, 70, 103
1, 24755, Note_on_c, 0, 66, 103
1, 24796, Note_off_c, 0, 66, 103
1, 24968, Note_on_c, 0, 72, 109
1, 24997, Note_off_c, 0, 72, 109
1, 25006, Note_on_c, 0, 71, 108
1, 25031, Note_off_c, 0, 71, 108
1, 25042, Note_on_c, 0, 70, 113
1, 25105, Note_off_c, 0, 70, 113
1, 25121, Note_on_c, 0, 67, 107
1, 25161, Note_off_c, 0, 67, 107
1, 25167, Note_on_c, 0, 66, 107
1, 25202, Note_off_c, 0, 66, 107
1, 25214, Note_on_c, 0, 63, 116
1, 25325, Note_off_c, 0, 63, 116
1, 25341, Note_on_c, 0, 55, 101
1, 25396, Note_off_c, 0, 55, 101
1, 25420, Note_on_c, 0, 65, 117
1, 25511, Note_off_c, 0, 65, 117
1, 25512, Note_on_c, 0, 63, 118
1, 25593, Note_off_c, 0, 63, 118
1, 25593, Note_on_c, 0, 59, 100
1, 25641, Note_off_c, 0, 59, 100
1, 25659, Note_on_c, 0, 56, 99
1, 25734, Note_off_c, 0, 56, 99
1, 25773, Note_on_c, 0, 63, 121
1, 25880, Note_off_c, 0, 63, 121
1, 25888, Note_on_c, 0, 62, 110
1, 25995, Note_off_c, 0, 62, 110
1, 26001, Note_on_c, 0, 59, 102
1, 26045, Note_off_c, 0, 59, 102
1, 26045, Note_on_c, 0, 55, 102
1, 26129, Note_off_c, 0, 55, 102
1, 26142, Note_on_c, 0, 60, 114
1, 26237, Note_off_c, 0, 60, 114
1, 26262, Note_on_c, 0, 62, 114
1, 26348, Note_off_c, 0, 62, 114
1, 26356, Note_on_c, 0, 63, 116
1, 26447, Note_off_c, 0, 63, 116
1, 26461, Note_on_c, 0, 65, 107
1, 26526, Note_off_c, 0, 65, 107
1, 26532, Note_on_c, 0, 66, 91
1, 26605, Note_off_c, 0, 66, 91
1, 26610, Note_on_c, 0, 67, 91
1, 26693, Note_off_c, 0, 67, 91
1, 26709, Note_on_c, 0, 68, 114
1, 26801, Note_off_c, 0, 68, 114
1, 26807, Note_on_c, 0, 66, 93
1, 26888, Note_off_c, 0, 66, 93
1, 26897, Note_on_c, 0, 67, 109
1, 26955, Note_off_c, 0, 67, 109
1, 26959, Note_on_c, 0, 66, 108
1, 27041, Note_off_c, 0, 66, 108
1, 27049, Note_on_c, 0, 65, 111
1, 27132, Note_off_c, 0, 65, 111
1, 27141, Note_on_c, 0, 64, 119
1, 27217, Note_off_c, 0, 64, 119
1, 27217, Note_on_c, 0, 63, 119
1, 27315, Note_off_c, 0, 63, 119
1, 27341, Note_on_c, 0, 60, 113
1, 27410, Note_off_c, 0, 60, 113
1, 27424, Note_on_c, 0, 56, 106
1, 27507, Note_off_c, 0, 56, 106
1, 27521, Note_on_c, 0, 51, 104
1, 27590, Note_off_c, 0, 51, 104
1, 27603, Note_on_c, 0, 58, 92
1, 27912, Note_off_c, 0, 58, 92
1, 28469, Note_on_c, 0, 70, 116
1, 28574, Note_off_c, 0, 70, 116
1, 28578, Note_on_c, 0, 68, 109
1, 28727, Note_off_c, 0, 68, 109
1, 28733, Note_on_c, 0, 70, 111
1, 28868, Note_off_c, 0, 70, 111
1, 28868, Note_on_c, 0, 68, 116
1, 28989, Note_off_c, 0, 68, 116
1, 29005, Note_on_c, 0, 69, 101
1, 29033, Note_off_c, 0, 69, 101
1, 29039, Note_on_c, 0, 70, 110
1, 29130, Note_off_c, 0, 70, 110
1, 29142, Note_on_c, 0, 68, 113
1, 29276, Note_off_c, 0, 68, 113
1, 29324, Note_on_c, 0, 70, 109
1, 29411, Note_on_c, 0, 66, 100
1, 29411, Note_off_c, 0, 70, 109
1, 29464, Note_off_c, 0, 66, 100
1, 29470, Note_on_c, 0, 70, 110
1, 29648, Note_off_c, 0, 70, 110
1, 29653, Note_on_c, 0, 75, 102
1, 30508, Note_off_c, 0, 75, 102
1, 30636, Note_on_c, 0, 67, 112
1, 30773, Note_off_c, 0, 67, 112
1, 30778, Note_on_c, 0, 69, 115
1, 30896, Note_off_c, 0, 69, 115
1, 31326, Note_on_c, 0, 67, 112
1, 31433, Note_off_c, 0, 67, 112
1, 31603, Note_on_c, 0, 75, 112
1, 31682, Note_off_c, 0, 75, 112
1, 31796, Note_on_c, 0, 77, 105
1, 31838, Note_off_c, 0, 77, 105
1, 31838, Note_on_c, 0, 79, 110
1, 31866, Note_off_c, 0, 79, 110
1, 31866, Note_on_c, 0, 81, 112
1, 32410, Note_off_c, 0, 81, 112
1, 32410, Note_on_c, 0, 79, 108
1, 32459, Note_off_c, 0, 79, 108
1, 32463, Note_on_c, 0, 70, 93
1, 32526, Note_off_c, 0, 70, 93
1, 32537, Note_on_c, 0, 74, 112
1, 32620, Note_off_c, 0, 74, 112
1, 32627, Note_on_c, 0, 70, 113
1, 32715, Note_off_c, 0, 70, 113
1, 32728, Note_on_c, 0, 67, 103
1, 32773, Note_off_c, 0, 67, 103
1, 32773, Note_on_c, 0, 69, 112
1, 32871, Note_off_c, 0, 69, 112
1, 32887, Note_on_c, 0, 65, 116
1, 32952, Note_off_c, 0, 65, 116
1, 32952, Note_on_c, 0, 62, 119
1, 33052, Note_off_c, 0, 62, 119
1, 33072, Note_on_c, 0, 58, 108
1, 33124, Note_off_c, 0, 58, 108
1, 33144, Note_on_c, 0, 63, 117
1, 33240, Note_off_c, 0, 63, 117
1, 33240, Note_on_c, 0, 60, 115
1, 33309, Note_off_c, 0, 60, 115
1, 33334, Note_on_c, 0, 56, 109
1, 33415, Note_off_c, 0, 56, 109
1, 33427, Note_on_c, 0, 53, 91
1, 33478, Note_off_c, 0, 53, 91
1, 33492, Note_on_c, 0, 57, 109
1, 33604, Note_off_c, 0, 57, 109
1, 33637, Note_on_c, 0, 53, 118
1, 33710, Note_off_c, 0, 53, 118
1, 33724, Note_on_c, 0, 45, 115
1, 33798, Note_off_c, 0, 45, 115
1, 33805, Note_on_c, 0, 53, 117
1, 33881, Note_off_c, 0, 53, 117
1, 33894, Note_on_c, 0, 50, 116
1, 33976, Note_off_c, 0, 50, 116
1, 33977, Note_on_c, 0, 51, 114
1, 34045, Note_off_c, 0, 51, 114
1, 34068, Note_on_c, 0, 46, 115
1, 34171, Note_off_c, 0, 46, 115
1, 34171, Note_on_c, 0, 44, 118
1, 34446, Note_off_c, 0, 44, 118
1, 35412, Note_on_c, 0, 70, 116
1, 35568, Note_off_c, 0, 70, 116
1, 35568, Note_on_c, 0, 72, 109
1, 35657, Note_off_c, 0, 72, 109
1, 35678, Note_on_c, 0, 70, 108
1, 35754, Note_on_c, 0, 71, 110
1, 35754, Note_off_c, 0, 70, 108
1, 35830, Note_off_c, 0, 71, 110
1, 35830, Note_on_c, 0, 70, 111
1, 35918, Note_off_c, 0, 70, 111
1, 35931, Note_on_c, 0, 69, 112
1, 36029, Note_off_c, 0, 69, 112
1, 36035, Note_on_c, 0, 70, 112
1, 36118, Note_off_c, 0, 70, 112
1, 36122, Note_on_c, 0, 68, 114
1, 36208, Note_off_c, 0, 68, 114
1, 36209, Note_on_c, 0, 67, 111
1, 36298, Note_off_c, 0, 67, 111
1, 36312, Note_on_c, 0, 66, 105
1, 36376, Note_off_c, 0, 66, 105
1, 36376, Note_on_c, 0, 68, 114
1, 36475, Note_off_c, 0, 68, 114
1, 36483, Note_on_c, 0, 67, 110
1, 36572, Note_off_c, 0, 67, 110
1, 36574, Note_on_c, 0, 66, 108
1, 36642, Note_off_c, 0, 66, 108
1, 36643, Note_on_c, 0, 65, 111
1, 36732, Note_off_c, 0, 65, 111
1, 36735, Note_on_c, 0, 64, 121
1, 36818, Note_off_c, 0, 64, 121
1, 36830, Note_on_c, 0, 63, 117
1, 36920, Note_off_c, 0, 63, 117
1, 36934, Note_on_c, 0, 65, 112
1, 37022, Note_off_c, 0, 65, 112
1, 37022, Note_on_c, 0, 67, 111
1, 37101, Note_off_c, 0, 67, 111
1, 37117, Note_on_c, 0, 63, 113
1, 37199, Note_off_c, 0, 63, 113
1, 37202, Note_on_c, 0, 65, 114
1, 37278, Note_off_c, 0, 65, 114
1, 37286, Note_on_c, 0, 64, 120
1, 37368, Note_off_c, 0, 64, 120
1, 37369, Note_on_c, 0, 63, 115
1, 37458, Note_off_c, 0, 63, 115
1, 37498, Note_on_c, 0, 67, 112
1, 37561, Note_off_c, 0, 67, 112
1, 37563, Note_on_c, 0, 65, 113
1, 37655, Note_off_c, 0, 65, 113
1, 37665, Note_on_c, 0, 62, 115
1, 37709, Note_off_c, 0, 62, 115
1, 37709, Note_on_c, 0, 59, 100
1, 37843, Note_off_c, 0, 59, 100
1, 37843, Note_on_c, 0, 55, 102
1, 37924, Note_off_c, 0, 55, 102
1, 37936, Note_on_c, 0, 63, 121
1, 38031, Note_off_c, 0, 63, 121
1, 38031, Note_on_c, 0, 62, 111
1, 38109, Note_off_c, 0, 62, 111
1, 38129, Note_on_c, 0, 59, 98
1, 38203, Note_off_c, 0, 59, 98
1, 38209, Note_on_c, 0, 55, 99
1, 38281, Note_off_c, 0, 55, 99
1, 38323, Note_on_c, 0, 62, 120
1, 38376, Note_off_c, 0, 62, 120
1, 38376, Note_on_c, 0, 63, 119
1, 39026, Note_off_c, 0, 63, 119
1, 39028, Note_on_c, 0, 62, 117
1, 39062, Note_off_c, 0, 62, 117
1, 39068, Note_on_c, 0, 64, 120
1, 39105, Note_off_c, 0, 64, 120
1, 39113, Note_on_c, 0, 61, 111
1, 39168, Note_off_c, 0, 61, 111
1, 39182, Note_on_c, 0, 59, 103
1, 39226, Note_off_c, 0, 59, 103
1, 39235, Note_on_c, 0, 58, 102
1, 39285, Note_off_c, 0, 58, 102
1, 39287, Note_on_c, 0, 56, 102
1, 39331, Note_off_c, 0, 56, 102
1, 39331, Note_on_c, 0, 63, 119
1, 39399, Note_off_c, 0, 63, 119
1, 39404, Note_on_c, 0, 61, 113
1, 39426, Note_off_c, 0, 61, 113
1, 39426, Note_on_c, 0, 59, 104
1, 39498, Note_off_c, 0, 59, 104
1, 39515, Note_on_c, 0, 58, 103
1, 39540, Note_off_c, 0, 58, 103
1, 39541, Note_on_c, 0, 56, 102
1, 39566, Note_off_c, 0, 56, 102
1, 39568, Note_on_c, 0, 63, 119
1, 39629, Note_off_c, 0, 63, 119
1, 39631, Note_on_c, 0, 61, 115
1, 39682, Note_off_c, 0, 61, 115
1, 39694, Note_on_c, 0, 59, 104
1, 39751, Note_off_c, 0, 59, 104
1, 39773, Note_on_c, 0, 58, 105
1, 39833, Note_off_c, 0, 58, 105
1, 40245, Note_on_c, 0, 63, 121
1, 40309, Note_off_c, 0, 63, 121
1, 40320, Note_on_c, 0, 61, 113
1, 40377, Note_off_c, 0, 61, 113
1, 40387, Note_on_c, 0, 59, 102
1, 40447, Note_off_c, 0, 59, 102
1, 40455, Note_on_c, 0, 58, 105
1, 40510, Note_off_c, 0, 58, 105
1, 40513, Note_on_c, 0, 63, 120
1, 40576, Note_on_c, 0, 61, 118
1, 40576, Note_off_c, 0, 63, 120
1, 40637, Note_off_c, 0, 61, 118
1, 40656, Note_on_c, 0, 59, 104
1, 40714, Note_off_c, 0, 59, 104
1, 40714, Note_on_c, 0, 58, 106
1, 40774, Note_off_c, 0, 58, 106
1, 40778, Note_on_c, 0, 63, 120
1, 40837, Note_off_c, 0, 63, 120
1, 40838, Note_on_c, 0, 61, 119
1, 40895, Note_off_c, 0, 61, 119
1, 40895, Note_on_c, 0, 59, 106
1, 40961, Note_off_c, 0, 59, 106
1, 40973, Note_on_c, 0, 58, 108
1, 41028, Note_off_c, 0, 58, 108
1, 41039, Note_on_c, 0, 63, 120
1, 41110, Note_off_c, 0, 63, 120
1, 41118, Note_on_c, 0, 61, 113
1, 41177, Note_off_c, 0, 61, 113
1, 41182, Note_on_c, 0, 59, 105
1, 41248, Note_off_c, 0, 59, 105
1, 41249, Note_on_c, 0, 58, 112
1, 41392, Note_off_c, 0, 58, 112
1, 41884, Note_on_c, 0, 66, 119
1, 41936, Note_off_c, 0, 66, 119
1, 41938, Note_on_c, 0, 68, 117
1, 42562, Note_off_c, 0, 68, 117
1, 42578, Note_on_c, 0, 67, 113
1, 42708, Note_off_c, 0, 67, 113
1, 42745, Note_on_c, 0, 68, 116
1, 42856, Note_off_c, 0, 68, 116
1, 42867, Note_on_c, 0, 64, 123
1, 42963, Note_off_c, 0, 64, 123
1, 42976, Note_on_c, 0, 66, 118
1, 43042, Note_off_c, 0, 66, 118
1, 43046, Note_on_c, 0, 68, 105
1, 43144, Note_off_c, 0, 68, 105
1, 43149, Note_on_c, 0, 65, 114
1, 43235, Note_off_c, 0, 65, 114
1, 43245, Note_on_c, 0, 61, 119
1, 43326, Note_off_c, 0, 61, 119
1, 43337, Note_on_c, 0, 59, 104
1, 43404, Note_off_c, 0, 59, 104
1, 43415, Note_on_c, 0, 55, 103
1, 43482, Note_on_c, 0, 62, 122
1, 43482, Note_off_c, 0, 55, 103
1, 43611, Note_off_c, 0, 62, 122
1, 43611, Note_on_c, 0, 61, 114
1, 43698, Note_off_c, 0, 61, 114
1, 43698, Note_on_c, 0, 56, 107
1, 43790, Note_off_c, 0, 56, 107
1, 43798, Note_on_c, 0, 50, 106
1, 43874, Note_off_c, 0, 50, 106
1, 43874, Note_on_c, 0, 59, 104
1, 43962, Note_off_c, 0, 59, 104
1, 43991, Note_on_c, 0, 53, 116
1, 44066, Note_off_c, 0, 53, 116
1, 44076, Note_on_c, 0, 49, 109
1, 44152, Note_off_c, 0, 49, 109
1, 44155, Note_on_c, 0, 53, 117
1, 44237, Note_off_c, 0, 53, 117
1, 44242, Note_on_c, 0, 51, 111
1, 44370, Note_off_c, 0, 51, 111
1, 44406, Note_on_c, 0, 53, 100
1, 44492, Note_off_c, 0, 53, 100
1, 44527, Note_on_c, 0, 55, 107
1, 44718, Note_off_c, 0, 55, 107
1, 45080, Note_on_c, 0, 51, 115
1, 45143, Note_off_c, 0, 51, 115
1, 45143, Note_on_c, 0, 53, 111
1, 45199, Note_off_c, 0, 53, 111
1, 45209, Note_on_c, 0, 56, 104
1, 45268, Note_off_c, 0, 56, 104
1, 45270, Note_on_c, 0, 59, 102
1, 45310, Note_off_c, 0, 59, 102
1, 45330, Note_on_c, 0, 53, 112
1, 45386, Note_off_c, 0, 53, 112
1, 45405, Note_on_c, 0, 56, 95
1, 45471, Note_off_c, 0, 56, 95
1, 45480, Note_on_c, 0, 55, 96
1, 45513, Note_off_c, 0, 55, 96
1, 45526, Note_on_c, 0, 59, 102
1, 45604, Note_off_c, 0, 59, 102
1, 45641, Note_on_c, 0, 63, 120
1, 45710, Note_off_c, 0, 63, 120
1, 45720, Note_on_c, 0, 59, 101
1, 45789, Note_off_c, 0, 59, 101
1, 45809, Note_on_c, 0, 63, 114
1, 45892, Note_off_c, 0, 63, 114
1, 45898, Note_on_c, 0, 65, 111
1, 45958, Note_off_c, 0, 65, 111
1, 45978, Note_on_c, 0, 68, 114
1, 46062, Note_off_c, 0, 68, 114
1, 46075, Note_on_c, 0, 63, 116
1, 46165, Note_off_c, 0, 63, 116
1, 46181, Note_on_c, 0, 65, 109
1, 46234, Note_off_c, 0, 65, 109
1, 46260, Note_on_c, 0, 68, 113
1, 46324, Note_off_c, 0, 68, 113
1, 46328, Note_on_c, 0, 71, 106
1, 46418, Note_off_c, 0, 71, 106
1, 46421, Note_on_c, 0, 75, 98
1, 46507, Note_off_c, 0, 75, 98
1, 46515, Note_on_c, 0, 71, 110
1, 46582, Note_on_c, 0, 70, 114
1, 46582, Note_off_c, 0, 71, 110
1, 46731, Note_off_c, 0, 70, 114
1, 47158, Note_on_c, 0, 67, 111
1, 47260, Note_off_c, 0, 67, 111
1, 47260, Note_on_c, 0, 70, 92
1, 47329, Note_off_c, 0, 70, 92
1, 47329, Note_on_c, 0, 72, 99
1, 47423, Note_off_c, 0, 72, 99
1, 47447, Note_on_c, 0, 75, 9
1, 47528, Note_off_c, 0, 75, 9
1, 47569, Note_on_c, 0, 78, 113
1, 47651, Note_off_c, 0, 78, 113
1, 47651, Note_on_c, 0, 80, 110
1, 47699, Note_off_c, 0, 80, 110
1, 47699, Note_on_c, 0, 81, 117
1, 49688, Note_off_c, 0, 81, 117
1, 49688, Note_on_c, 0, 67, 113
1, 49784, Note_off_c, 0, 67, 113
1, 49784, Note_on_c, 0, 69, 103
1, 49864, Note_off_c, 0, 69, 103
1, 49884, Note_on_c, 0, 72, 110
1, 49987, Note_off_c, 0, 72, 110
1, 49987, Note_on_c, 0, 75, 111
1, 50090, Note_off_c, 0, 75, 111
1, 50117, Note_on_c, 0, 79, 112
1, 50183, Note_on_c, 0, 81, 113
1, 50183, Note_off_c, 0, 79, 112
1, 50492, Note_off_c, 0, 81, 113
1, 50987, Note_on_c, 0, 67, 115
1, 51099, Note_off_c, 0, 67, 115
1, 51099, Note_on_c, 0, 69, 91
1, 51165, Note_off_c, 0, 69, 91
1, 51167, Note_on_c, 0, 72, 108
1, 51256, Note_off_c, 0, 72, 108
1, 51285, Note_on_c, 0, 75, 112
1, 51367, Note_off_c, 0, 75, 112
1, 51369, Note_on_c, 0, 79, 115
1, 51497, Note_off_c, 0, 79, 115
1, 51497, Note_on_c, 0, 82, 119
1, 52260, Note_off_c, 0, 82, 119
1, 52262, Note_on_c, 0, 67, 115
1, 52367, Note_off_c, 0, 67, 115
1, 52367, Note_on_c, 0, 70, 100
1, 52440, Note_off_c, 0, 70, 100
1, 52449, Note_on_c, 0, 72, 107
1, 52549, Note_off_c, 0, 72, 107
1, 52562, Note_on_c, 0, 75, 113
1, 52662, Note_off_c, 0, 75, 113
1, 52662, Note_on_c, 0, 79, 113
1, 52767, Note_off_c, 0, 79, 113
1, 52767, Note_on_c, 0, 81, 115
1, 53436, Note_off_c, 0, 81, 115
1, 54060, Note_on_c, 0, 63, 125
1, 54195, Note_off_c, 0, 63, 125
1, 54199, Note_on_c, 0, 65, 100
1, 54270, Note_on_c, 0, 68, 114
1, 54270, Note_off_c, 0, 65, 100
1, 54361, Note_off_c, 0, 68, 114
1, 54361, Note_on_c, 0, 71, 105
1, 54459, Note_off_c, 0, 71, 105
1, 54459, Note_on_c, 0, 75, 112
1, 54566, Note_on_c, 0, 77, 104
1, 54566, Note_off_c, 0, 75, 112
1, 54657, Note_off_c, 0, 77, 104
1, 54663, Note_on_c, 0, 75, 107
1, 54752, Note_off_c, 0, 75, 107
1, 54761, Note_on_c, 0, 71, 111
1, 54843, Note_off_c, 0, 71, 111
1, 54852, Note_on_c, 0, 70, 114
1, 54918, Note_off_c, 0, 70, 114
1, 54938, Note_on_c, 0, 69, 111
1, 55038, Note_off_c, 0, 69, 111
1, 55058, Note_on_c, 0, 68, 114
1, 55122, Note_off_c, 0, 68, 114
1, 55140, Note_on_c, 0, 70, 111
1, 55201, Note_on_c, 0, 68, 116
1, 55201, Note_off_c, 0, 70, 111
1, 55301, Note_off_c, 0, 68, 116
1, 55314, Note_on_c, 0, 67, 112
1, 55401, Note_off_c, 0, 67, 112
1, 55412, Note_on_c, 0, 66, 104
1, 55492, Note_off_c, 0, 66, 104
1, 55494, Note_on_c, 0, 67, 116
1, 55585, Note_off_c, 0, 67, 116
1, 55585, Note_on_c, 0, 67, 111
1, 55669, Note_off_c, 0, 67, 111
1, 55673, Note_on_c, 0, 66, 111
1, 55760, Note_off_c, 0, 66, 111
1, 55762, Note_on_c, 0, 65, 113
1, 55840, Note_off_c, 0, 65, 113
1, 55844, Note_on_c, 0, 64, 123
1, 55944, Note_off_c, 0, 64, 123
1, 55948, Note_on_c, 0, 63, 120
1, 56035, Note_off_c, 0, 63, 120
1, 56048, Note_on_c, 0, 65, 114
1, 56112, Note_off_c, 0, 65, 114
1, 56118, Note_on_c, 0, 67, 115
1, 56198, Note_off_c, 0, 67, 115
1, 56225, Note_on_c, 0, 63, 116
1, 56286, Note_on_c, 0, 65, 118
1, 56286, Note_off_c, 0, 63, 116
1, 56366, Note_off_c, 0, 65, 118
1, 56382, Note_on_c, 0, 62, 122
1, 56464, Note_off_c, 0, 62, 122
1, 56473, Note_on_c, 0, 59, 107
1, 56534, Note_on_c, 0, 55, 112
1, 56534, Note_off_c, 0, 59, 107
1, 56614, Note_off_c, 0, 55, 112
1, 56627, Note_on_c, 0, 63, 124
1, 56739, Note_off_c, 0, 63, 124
1, 56741, Note_on_c, 0, 62, 119
1, 56839, Note_off_c, 0, 62, 119
1, 56850, Note_on_c, 0, 59, 105
1, 56914, Note_off_c, 0, 59, 105
1, 56914, Note_on_c, 0, 55, 100
1, 57014, Note_off_c, 0, 55, 100
1, 57014, Note_on_c, 0, 57, 113
1, 57103, Note_off_c, 0, 57, 113
1, 57116, Note_on_c, 0, 53, 120
1, 57187, Note_off_c, 0, 53, 120
1, 57187, Note_on_c, 0, 46, 123
1, 57262, Note_off_c, 0, 46, 123
1, 57262, Note_on_c, 0, 53, 121
1, 57340, Note_off_c, 0, 53, 121
1, 57388, Note_on_c, 0, 43, 123
1, 57536, Note_off_c, 0, 43, 123
1, 57559, Note_on_c, 0, 62, 122
1, 57662, Note_off_c, 0, 62, 122
1, 57705, Note_on_c, 0, 59, 117
1, 57867, Note_off_c, 0, 59, 117
1, 58220, Note_on_c, 0, 46, 122
1, 58275, Note_off_c, 0, 46, 122
1, 58275, Note_on_c, 0, 58, 103
1, 58327, Note_off_c, 0, 58, 103
1, 58345, Note_on_c, 0, 69, 97
1, 58356, Note_off_c, 0, 69, 97
1, 58356, Note_on_c, 0, 70, 104
1, 58404, Note_off_c, 0, 70, 104
1, 58409, Note_on_c, 0, 58, 113
1, 58457, Note_off_c, 0, 58, 113
1, 58469, Note_on_c, 0, 48, 119
1, 58556, Note_off_c, 0, 48, 119
1, 58578, Note_on_c, 0, 53, 104
1, 58655, Note_off_c, 0, 53, 104
1, 58658, Note_on_c, 0, 57, 114
1, 58728, Note_off_c, 0, 57, 114
1, 58728, Note_on_c, 0, 61, 111
1, 58815, Note_off_c, 0, 61, 111
1, 58840, Note_on_c, 0, 70, 109
1, 58946, Note_off_c, 0, 70, 109
1, 58946, Note_on_c, 0, 68, 119
1, 59026, Note_off_c, 0, 68, 119
1, 59026, Note_on_c, 0, 66, 111
1, 59122, Note_off_c, 0, 66, 111
1, 59122, Note_on_c, 0, 70, 100
1, 59167, Note_off_c, 0, 70, 100
1, 59167, Note_on_c, 0, 68, 111
1, 59221, Note_off_c, 0, 68, 111
1, 59224, Note_on_c, 0, 63, 124
1, 59311, Note_off_c, 0, 63, 124
1, 59314, Note_on_c, 0, 65, 103
1, 59365, Note_off_c, 0, 65, 103
1, 59413, Note_on_c, 0, 69, 113
1, 59492, Note_off_c, 0, 69, 113
1, 59492, Note_on_c, 0, 71, 108
1, 59562, Note_off_c, 0, 71, 108
1, 59570, Note_on_c, 0, 67, 117
1, 59694, Note_off_c, 0, 67, 117
1, 59703, Note_on_c, 0, 65, 115
1, 59728, Note_off_c, 0, 65, 115
1, 59728, Note_on_c, 0, 68, 112
1, 59871, Note_off_c, 0, 68, 112
1, 59872, Note_on_c, 0, 71, 108
1, 59918, Note_off_c, 0, 71, 108
1, 59918, Note_on_c, 0, 70, 116
1, 59977, Note_off_c, 0, 70, 116
1, 59997, Note_on_c, 0, 71, 109
1, 60024, Note_on_c, 0, 69, 112
1, 60024, Note_off_c, 0, 71, 109
1, 60127, Note_off_c, 0, 69, 112
1, 60127, Note_on_c, 0, 68, 112
1, 60204, Note_off_c, 0, 68, 112
1, 60204, Note_on_c, 0, 67, 113
1, 60294, Note_off_c, 0, 67, 113
1, 60294, Note_on_c, 0, 66, 112
1, 60374, Note_off_c, 0, 66, 112
1, 60374, Note_on_c, 0, 67, 102
1, 60477, Note_off_c, 0, 67, 102
1, 60499, Note_on_c, 0, 68, 116
1, 60657, Note_off_c, 0, 68, 116
1, 60657, Note_on_c, 0, 66, 98
1, 60703, Note_off_c, 0, 66, 98
1, 60719, Note_on_c, 0, 68, 116
1, 60810, Note_off_c, 0, 68, 116
1, 60810, Note_on_c, 0, 66, 112
1, 60872, Note_off_c, 0, 66, 112
1, 60874, Note_on_c, 0, 61, 115
1, 61000, Note_off_c, 0, 61, 115
1, 61457, Note_on_c, 0, 54, 113
1, 61527, Note_off_c, 0, 54, 113
1, 61536, Note_on_c, 0, 56, 109
1, 61615, Note_off_c, 0, 56, 109
1, 61629, Note_on_c, 0, 58, 105
1, 61664, Note_off_c, 0, 58, 105
1, 61672, Note_on_c, 0, 59, 103
1, 61697, Note_off_c, 0, 59, 103
1, 61698, Note_on_c, 0, 61, 119
1, 61817, Note_off_c, 0, 61, 119
1, 61844, Note_on_c, 0, 59, 102
1, 61902, Note_off_c, 0, 59, 102
1, 61902, Note_on_c, 0, 61, 110
1, 61992, Note_off_c, 0, 61, 110
1, 62019, Note_on_c, 0, 66, 114
1, 62085, Note_off_c, 0, 66, 114
1, 62099, Note_on_c, 0, 68, 121
1, 62240, Note_off_c, 0, 68, 121
1, 62270, Note_on_c, 0, 66, 108
1, 62320, Note_off_c, 0, 66, 108
1, 62320, Note_on_c, 0, 68, 110
1, 62440, Note_off_c, 0, 68, 110
1, 62460, Note_on_c, 0, 71, 112
1, 62526, Note_off_c, 0, 71, 112
1, 62538, Note_on_c, 0, 73, 107
1, 62752, Note_off_c, 0, 73, 107
1, 63043, Note_on_c, 0, 74, 106
1, 63089, Note_off_c, 0, 74, 106
1, 63095, Note_on_c, 0, 73, 111
1, 63145, Note_off_c, 0, 73, 111
1, 63175, Note_on_c, 0, 71, 113
1, 63234, Note_off_c, 0, 71, 113
1, 63234, Note_on_c, 0, 70, 117
1, 63548, Note_off_c, 0, 70, 117
1, 63610, Note_on_c, 0, 74, 105
1, 63724, Note_off_c, 0, 74, 105
1, 63740, Note_on_c, 0, 70, 112
1, 63901, Note_off_c, 0, 70, 112
1, 64115, Note_on_c, 0, 74, 109
1, 64192, Note_off_c, 0, 74, 109
1, 64203, Note_on_c, 0, 70, 115
1, 64275, Note_off_c, 0, 70, 115
1, 64307, Note_on_c, 0, 68, 117
1, 64381, Note_off_c, 0, 68, 117
1, 64382, Note_on_c, 0, 66, 107
1, 64462, Note_off_c, 0, 66, 107
1, 64462, Note_on_c, 0, 68, 103
1, 64518, Note_off_c, 0, 68, 103
1, 64537, Note_on_c, 0, 70, 106
1, 64620, Note_off_c, 0, 70, 106
1, 64628, Note_on_c, 0, 73, 106
1, 64728, Note_off_c, 0, 73, 106
1, 64737, Note_on_c, 0, 74, 109
1, 64945, Note_off_c, 0, 74, 109
1, 65046, Note_on_c, 0, 74, 107
1, 65175, Note_off_c, 0, 74, 107
1, 65194, Note_on_c, 0, 70, 112
1, 65314, Note_off_c, 0, 70, 112
1, 65362, Note_on_c, 0, 75, 108
1, 65534, Note_off_c, 0, 75, 108
1, 65550, Note_on_c, 0, 73, 110
1, 65570, Note_off_c, 0, 73, 110
1, 65571, Note_on_c, 0, 72, 109
1, 65593, Note_off_c, 0, 72, 109
1, 65593, Note_on_c, 0, 71, 111
1, 65623, Note_off_c, 0, 71, 111
1, 65626, Note_on_c, 0, 70, 114
1, 65901, Note_off_c, 0, 70, 114
1, 66105, Note_on_c, 0, 70, 115
1, 66277, Note_off_c, 0, 70, 115
1, 66287, Note_on_c, 0, 68, 113
1, 66329, Note_off_c, 0, 68, 113
1, 66329, Note_on_c, 0, 70, 104
1, 66358, Note_off_c, 0, 70, 104
1, 66358, Note_on_c, 0, 68, 113
1, 66456, Note_off_c, 0, 68, 113
1, 66475, Note_on_c, 0, 70, 109
1, 66531, Note_off_c, 0, 70, 109
1, 66531, Note_on_c, 0, 68, 113
1, 66634, Note_off_c, 0, 68, 113
1, 66653, Note_on_c, 0, 67, 112
1, 66704, Note_off_c, 0, 67, 112
1, 66705, Note_on_c, 0, 66, 109
1, 66788, Note_off_c, 0, 66, 109
1, 66810, Note_on_c, 0, 68, 115
1, 66895, Note_off_c, 0, 68, 115
1, 66903, Note_on_c, 0, 67, 110
1, 66978, Note_off_c, 0, 67, 110
1, 66979, Note_on_c, 0, 66, 111
1, 67070, Note_off_c, 0, 66, 111
1, 67079, Note_on_c, 0, 65, 115
1, 67177, Note_off_c, 0, 65, 115
1, 67183, Note_on_c, 0, 64, 125
1, 67265, Note_off_c, 0, 64, 125
1, 67281, Note_on_c, 0, 63, 119
1, 67366, Note_off_c, 0, 63, 119
1, 67375, Note_on_c, 0, 65, 105
1, 67412, Note_off_c, 0, 65, 105
1, 67418, Note_on_c, 0, 67, 110
1, 67509, Note_off_c, 0, 67, 110
1, 67539, Note_on_c, 0, 63, 110
1, 67632, Note_off_c, 0, 63, 110
1, 67632, Note_on_c, 0, 65, 115
1, 67857, Note_off_c, 0, 65, 115
1, 67981, Note_on_c, 0, 75, 107
1, 68069, Note_off_c, 0, 75, 107
1, 68070, Note_on_c, 0, 73, 105
1, 68089, Note_off_c, 0, 73, 105
1, 68089, Note_on_c, 0, 72, 113
1, 68184, Note_off_c, 0, 72, 113
1, 68656, Note_on_c, 0, 72, 105
1, 68718, Note_off_c, 0, 72, 105
1, 68722, Note_on_c, 0, 74, 109
1, 68792, Note_off_c, 0, 74, 109
1, 68792, Note_on_c, 0, 77, 105
1, 69513, Note_off_c, 0, 77, 105
1, 69522, Note_on_c, 0, 80, 95
1, 69723, Note_off_c, 0, 80, 95
1, 69777, Note_on_c, 0, 75, 103
1, 69854, Note_off_c, 0, 75, 103
1, 69871, Note_on_c, 0, 77, 100
1, 69932, Note_off_c, 0, 77, 100
1, 69949, Note_on_c, 0, 75, 106
1, 70013, Note_off_c, 0, 75, 106
1, 70024, Note_on_c, 0, 71, 109
1, 70125, Note_off_c, 0, 71, 109
1, 70162, Note_on_c, 0, 68, 107
1, 70224, Note_off_c, 0, 68, 107
1, 70232, Note_on_c, 0, 69, 115
1, 70286, Note_off_c, 0, 69, 115
1, 70300, Note_on_c, 0, 65, 119
1, 70382, Note_off_c, 0, 65, 119
1, 70382, Note_on_c, 0, 62, 120
1, 70501, Note_off_c, 0, 62, 120
1, 70507, Note_on_c, 0, 58, 107
1, 70561, Note_off_c, 0, 58, 107
1, 70572, Note_on_c, 0, 63, 124
1, 70678, Note_off_c, 0, 63, 124
1, 70682, Note_on_c, 0, 62, 118
1, 70764, Note_off_c, 0, 62, 118
1, 70764, Note_on_c, 0, 59, 104
1, 70812, Note_off_c, 0, 59, 104
1, 70821, Note_on_c, 0, 55, 102
1, 70908, Note_off_c, 0, 55, 102
1, 70941, Note_on_c, 0, 60, 119
1, 71034, Note_off_c, 0, 60, 119
1, 71053, Note_on_c, 0, 62, 120
1, 71132, Note_off_c, 0, 62, 120
1, 71136, Note_on_c, 0, 63, 121
1, 71221, Note_off_c, 0, 63, 121
1, 71221, Note_on_c, 0, 65, 116
1, 71280, Note_off_c, 0, 65, 116
1, 71280, Note_on_c, 0, 66, 109
1, 71386, Note_off_c, 0, 66, 109
1, 71400, Note_on_c, 0, 67, 109
1, 71466, Note_off_c, 0, 67, 109
1, 71470, Note_on_c, 0, 68, 120
1, 71545, Note_off_c, 0, 68, 120
1, 71559, Note_on_c, 0, 66, 101
1, 71646, Note_off_c, 0, 66, 101
1, 71660, Note_on_c, 0, 67, 117
1, 71737, Note_off_c, 0, 67, 117
1, 71749, Note_on_c, 0, 66, 114
1, 71837, Note_off_c, 0, 66, 114
1, 71843, Note_on_c, 0, 65, 119
1, 71925, Note_off_c, 0, 65, 119
1, 71937, Note_on_c, 0, 64, 127
1, 72016, Note_off_c, 0, 64, 127
1, 72016, Note_on_c, 0, 63, 123
1, 72109, Note_off_c, 0, 63, 123
1, 72118, Note_on_c, 0, 65, 115
1, 72184, Note_off_c, 0, 65, 115
1, 72184, Note_on_c, 0, 67, 113
1, 72261, Note_off_c, 0, 67, 113
1, 72298, Note_on_c, 0, 63, 119
1, 72351, Note_off_c, 0, 63, 119
1, 72367, Note_on_c, 0, 65, 119
1, 72460, Note_off_c, 0, 65, 119
1, 72460, Note_on_c, 0, 63, 122
1, 72537, Note_off_c, 0, 63, 122
1, 72537, Note_on_c, 0, 59, 104
1, 72607, Note_off_c, 0, 59, 104
1, 73094, Note_on_c, 0, 74, 108
1, 73174, Note_off_c, 0, 74, 108
1, 73183, Note_on_c, 0, 73, 115
1, 73215, Note_off_c, 0, 73, 115
1, 73223, Note_on_c, 0, 72, 116
1, 73260, Note_off_c, 0, 72, 116
1, 73263, Note_on_c, 0, 71, 110
1, 73342, Note_off_c, 0, 71, 110
1, 73348, Note_on_c, 0, 72, 101
1, 73378, Note_off_c, 0, 72, 101
1, 73381, Note_on_c, 0, 69, 117
1, 73451, Note_off_c, 0, 69, 117
1, 73454, Note_on_c, 0, 68, 115
1, 73531, Note_off_c, 0, 68, 115
1, 73558, Note_on_c, 0, 67, 117
1, 73653, Note_off_c, 0, 67, 117
1, 73667, Note_on_c, 0, 66, 114
1, 73747, Note_off_c, 0, 66, 114
1, 73753, Note_on_c, 0, 68, 118
1, 73864, Note_off_c, 0, 68, 118
1, 73864, Note_on_c, 0, 67, 114
1, 73996, Note_off_c, 0, 67, 114
1, 74010, Note_on_c, 0, 66, 111
1, 74050, Note_off_c, 0, 66, 111
1, 74062, Note_on_c, 0, 65, 117
1, 74099, Note_off_c, 0, 65, 117
1, 74105, Note_on_c, 0, 64, 126
1, 74195, Note_off_c, 0, 64, 126
1, 74199, Note_on_c, 0, 63, 116
1, 74500, Note_off_c, 0, 63, 116
1, 74500, End_track
0, 0, End_of_file
