0, 0, Header, 1, 1, 840
1, 0, Start_track
1, 0, Title_t, "Melody"
1, 0, Tempo, 472440
1, 0, Key_signature, -1, "major"
1, 0, Time_signature, 4, 2, 24, 8
1, 7152, Note_on_c, 0, 72, 122
1, 7967, Note_off_c, 0, 72, 122
1, 7977, Note_on_c, 0, 69, 120
1, 8554, Note_off_c, 0, 69, 120
1, 8582, Note_on_c, 0, 67, 110
1, 9500, Note_off_c, 0, 67, 110
1, 9616, Note_on_c, 0, 64, 118
1, 10163, Note_off_c, 0, 64, 118
1, 10266, Note_on_c, 0, 65, 115
1, 10575, Note_off_c, 0, 65, 115
1, 10652, Note_on_c, 0, 55, 106
1, 11162, Note_off_c, 0, 55, 106
1, 11358, Note_on_c, 0, 57, 107
1, 12018, Note_off_c, 0, 57, 107
1, 13834, Note_on_c, 0, 72, 120
1, 14473, Note_off_c, 0, 72, 120
1, 14473, Note_on_c, 0, 69, 119
1, 14906, Note_off_c, 0, 69, 119
1, 15153, Note_on_c, 0, 67, 116
1, 16732, Note_off_c, 0, 67, 116
1, 17217, Note_on_c, 0, 76, 118
1, 18011, Note_off_c, 0, 76, 118
1, 18011, Note_on_c, 0, 74, 116
1, 18630, Note_off_c, 0, 74, 116
1, 18630, Note_on_c, 0, 70, 115
1, 19847, Note_off_c, 0, 70, 115
1, 20652, Note_on_c, 0, 69, 120
1, 21436, Note_off_c, 0, 69, 120
1, 21436, Note_on_c, 0, 67, 116
1, 21962, Note_off_c, 0, 67, 116
1, 21972, Note_on_c, 0, 60, 115
1, 22622, Note_off_c, 0, 60, 115
1, 24314, Note_on_c, 0, 72, 117
1, 24448, Note_off_c, 0, 72, 117
1, 24448, Note_on_c, 0, 74, 117
1, 24767, Note_off_c, 0, 74, 117
1, 24767, Note_on_c, 0, 72, 118
1, 25221, Note_off_c, 0, 72, 118
1, 25365, Note_on_c, 0, 65, 120
1, 25808, Note_off_c, 0, 65, 120
1, 25942, Note_on_c, 0, 71, 112
1, 26055, Note_off_c, 0, 71, 112
1, 26065, Note_on_c, 0, 74, 121
1, 26477, Note_off_c, 0, 74, 121
1, 26507, Note_on_c, 0, 72, 116
1, 26888, Note_off_c, 0, 72, 116
1, 27042, Note_on_c, 0, 66, 121
1, 27485, Note_off_c, 0, 66, 121
1, 27639, Note_on_c, 0, 70, 115
1, 27690, Note_off_c, 0, 70, 115
1, 27700, Note_on_c, 0, 72, 112
1, 27772, Note_off_c, 0, 72, 112
1, 27772, Note_on_c, 0, 74, 116
1, 28205, Note_off_c, 0, 74, 116
1, 28215, Note_on_c, 0, 72, 118
1, 28617, Note_off_c, 0, 72, 118
1, 28751, Note_on_c, 0, 67, 116
1, 29184, Note_off_c, 0, 67, 116
1, 29400, Note_on_c, 0, 74, 117
1, 29885, Note_off_c, 0, 74, 117
1, 29885, Note_on_c, 0, 72, 118
1, 30266, Note_off_c, 0, 72, 118
1, 30472, Note_on_c, 0, 70, 119
1, 30802, Note_off_c, 0, 70, 119
1, 31039, Note_on_c, 0, 72, 121
1, 31575, Note_off_c, 0, 72, 121
1, 31575, Note_on_c, 0, 70, 115
1, 31987, Note_off_c, 0, 70, 115
1, 32172, Note_on_c, 0, 69, 118
1, 32522, Note_off_c, 0, 69, 118
1, 32748, Note_on_c, 0, 67, 117
1, 33264, Note_off_c, 0, 67, 117
1, 33264, Note_on_c, 0, 65, 123
1, 33800, Note_off_c, 0, 65, 123
1, 33810, Note_on_c, 0, 63, 121
1, 34955, Note_off_c, 0, 63, 121
1, 34955, Note_on_c, 0, 61, 115
1, 35471, Note_off_c, 0, 61, 115
1, 35491, Note_on_c, 0, 64, 105
1, 36791, Note_off_c, 0, 64, 105
1, 38648, Note_on_c, 0, 72, 120
1, 38895, Note_off_c, 0, 72, 120
1, 38895, Note_on_c, 0, 70, 113
1, 39266, Note_off_c, 0, 70, 113
1, 39286, Note_on_c, 0, 69, 118
1, 40400, Note_off_c, 0, 69, 118
1, 40400, Note_on_c, 0, 67, 118
1, 40647, Note_off_c, 0, 67, 118
1, 40647, Note_on_c, 0, 65, 121
1, 40946, Note_off_c, 0, 65, 121
1, 40946, Note_on_c, 0, 63, 124
1, 41771, Note_off_c, 0, 63, 124
1, 41771, Note_on_c, 0, 61, 115
1, 42307, Note_off_c, 0, 61, 115
1, 42307, Note_on_c, 0, 64, 117
1, 43411, Note_off_c, 0, 64, 117
1, 43421, Note_on_c, 0, 61, 107
1, 43968, Note_off_c, 0, 61, 107
1, 43978, Note_on_c, 0, 57, 101
1, 45288, Note_off_c, 0, 57, 101
1, 45535, Note_on_c, 0, 69, 119
1, 46133, Note_off_c, 0, 69, 119
1, 46133, Note_on_c, 0, 66, 112
1, 46535, Note_off_c, 0, 66, 112
1, 46535, Note_on_c, 0, 62, 115
1, 47226, Note_off_c, 0, 62, 115
1, 48351, Note_on_c, 0, 76, 121
1, 48619, Note_off_c, 0, 76, 121
1, 48629, Note_on_c, 0, 73, 118
1, 49041, Note_off_c, 0, 73, 118
1, 49057, Note_on_c, 0, 69, 107
1, 50491, Note_off_c, 0, 69, 107
1, 50666, Note_on_c, 0, 72, 120
1, 50913, Note_off_c, 0, 72, 120
1, 50913, Note_on_c, 0, 69, 110
1, 51207, Note_off_c, 0, 69, 110
1, 51207, Note_on_c, 0, 65, 121
1, 51815, Note_off_c, 0, 65, 121
1, 51974, Note_on_c, 0, 74, 113
1, 52221, Note_off_c, 0, 74, 113
1, 52231, Note_on_c, 0, 69, 111
1, 52509, Note_off_c, 0, 69, 111
1, 52529, Note_on_c, 0, 65, 107
1, 53323, Note_off_c, 0, 65, 107
1, 54479, Note_on_c, 0, 70, 114
1, 54654, Note_off_c, 0, 70, 114
1, 54664, Note_on_c, 0, 72, 121
1, 54891, Note_off_c, 0, 72, 121
1, 54891, Note_on_c, 0, 69, 110
1, 55004, Note_off_c, 0, 69, 110
1, 55004, Note_on_c, 0, 67, 114
1, 55251, Note_off_c, 0, 67, 114
1, 55251, Note_on_c, 0, 66, 114
1, 55509, Note_off_c, 0, 66, 114
1, 55519, Note_on_c, 0, 63, 125
1, 55694, Note_off_c, 0, 63, 125
1, 55694, Note_on_c, 0, 62, 115
1, 55890, Note_off_c, 0, 62, 115
1, 55956, Note_on_c, 0, 60, 115
1, 56115, Note_off_c, 0, 60, 115
1, 56177, Note_on_c, 0, 58, 111
1, 56404, Note_off_c, 0, 58, 111
1, 56433, Note_on_c, 0, 56, 93
1, 56582, Note_off_c, 0, 56, 93
1, 56650, Note_on_c, 0, 57, 107
1, 56835, Note_off_c, 0, 57, 107
1, 56880, Note_on_c, 0, 56, 115
1, 57029, Note_off_c, 0, 56, 115
1, 57111, Note_on_c, 0, 55, 112
1, 57245, Note_off_c, 0, 55, 112
1, 57267, Note_on_c, 0, 58, 115
1, 57483, Note_on_c, 0, 62, 115
1, 57483, Note_off_c, 0, 58, 115
1, 57679, Note_off_c, 0, 62, 115
1, 57709, Note_on_c, 0, 65, 116
1, 57874, Note_off_c, 0, 65, 116
1, 57874, Note_on_c, 0, 69, 118
1, 58049, Note_off_c, 0, 69, 118
1, 58079, Note_on_c, 0, 67, 114
1, 58192, Note_off_c, 0, 67, 114
1, 58192, Note_on_c, 0, 65, 120
1, 58336, Note_off_c, 0, 65, 120
1, 58346, Note_on_c, 0, 62, 113
1, 58531, Note_off_c, 0, 62, 113
1, 58551, Note_on_c, 0, 65, 124
1, 58736, Note_off_c, 0, 65, 124
1, 58736, Note_on_c, 0, 64, 119
1, 59024, Note_off_c, 0, 64, 119
1, 59204, Note_on_c, 0, 73, 116
1, 59432, Note_off_c, 0, 73, 116
1, 59468, Note_on_c, 0, 72, 115
1, 59722, Note_off_c, 0, 72, 115
1, 59827, Note_on_c, 0, 61, 116
1, 59993, Note_off_c, 0, 61, 116
1, 60047, Note_on_c, 0, 70, 107
1, 60274, Note_off_c, 0, 70, 107
1, 60321, Note_on_c, 0, 69, 98
1, 60568, Note_off_c, 0, 69, 98
1, 60629, Note_on_c, 0, 58, 109
1, 60832, Note_off_c, 0, 58, 109
1, 60861, Note_on_c, 0, 61, 117
1, 61119, Note_off_c, 0, 61, 117
1, 61144, Note_on_c, 0, 65, 107
1, 61402, Note_off_c, 0, 65, 107
1, 61639, Note_on_c, 0, 61, 120
1, 61958, Note_off_c, 0, 61, 120
1, 61958, Note_on_c, 0, 60, 109
1, 62339, Note_off_c, 0, 60, 109
1, 63959, Note_on_c, 0, 57, 109
1, 64134, Note_off_c, 0, 57, 109
1, 64185, Note_on_c, 0, 58, 115
1, 64391, Note_off_c, 0, 58, 115
1, 64545, Note_on_c, 0, 70, 116
1, 65783, Note_off_c, 0, 70, 116
1, 65783, Note_on_c, 0, 69, 120
1, 66123, Note_off_c, 0, 69, 120
1, 66308, Note_on_c, 0, 63, 115
1, 67422, Note_off_c, 0, 63, 115
1, 67535, Note_on_c, 0, 62, 114
1, 67958, Note_off_c, 0, 62, 114
1, 67958, Note_on_c, 0, 61, 118
1, 68381, Note_off_c, 0, 61, 118
1, 68453, Note_on_c, 0, 70, 115
1, 68741, Note_off_c, 0, 70, 115
1, 68842, Note_on_c, 0, 70, 89
1, 68929, Note_off_c, 0, 70, 89
1, 68929, Note_on_c, 0, 71, 92
1, 69052, Note_off_c, 0, 71, 92
1, 69070, Note_on_c, 0, 69, 88
1, 69141, Note_off_c, 0, 69, 88
1, 69141, Note_on_c, 0, 68, 113
1, 69337, Note_on_c, 0, 67, 116
1, 69337, Note_off_c, 0, 68, 113
1, 69625, Note_off_c, 0, 67, 116
1, 69707, Note_on_c, 0, 65, 123
1, 70068, Note_off_c, 0, 65, 123
1, 70161, Note_on_c, 0, 62, 118
1, 70439, Note_off_c, 0, 62, 118
1, 70631, Note_on_c, 0, 68, 95
1, 70713, Note_off_c, 0, 68, 95
1, 70728, Note_on_c, 0, 69, 102
1, 70779, Note_off_c, 0, 69, 102
1, 70789, Note_on_c, 0, 68, 106
1, 70850, Note_off_c, 0, 68, 106
1, 70880, Note_on_c, 0, 67, 111
1, 70931, Note_off_c, 0, 67, 111
1, 70981, Note_on_c, 0, 65, 123
1, 71228, Note_off_c, 0, 65, 123
1, 71300, Note_on_c, 0, 63, 121
1, 71661, Note_off_c, 0, 63, 121
1, 71774, Note_on_c, 0, 60, 118
1, 72104, Note_off_c, 0, 60, 118
1, 72254, Note_on_c, 0, 66, 110
1, 72522, Note_off_c, 0, 66, 110
1, 72556, Note_on_c, 0, 63, 125
1, 72896, Note_off_c, 0, 63, 125
1, 72957, Note_on_c, 0, 62, 118
1, 73338, Note_off_c, 0, 62, 118
1, 73388, Note_on_c, 0, 58, 109
1, 73649, Note_off_c, 0, 58, 109
1, 73753, Note_on_c, 0, 53, 111
1, 74114, Note_off_c, 0, 53, 111
1, 74227, Note_on_c, 0, 51, 113
1, 74552, Note_off_c, 0, 51, 113
1, 75193, Note_on_c, 0, 58, 111
1, 75595, Note_off_c, 0, 58, 111
1, 76802, Note_on_c, 0, 57, 111
1, 76998, Note_off_c, 0, 57, 111
1, 76998, Note_on_c, 0, 59, 107
1, 77194, Note_off_c, 0, 59, 107
1, 77201, Note_on_c, 0, 61, 105
1, 77338, Note_off_c, 0, 61, 105
1, 77388, Note_on_c, 0, 64, 112
1, 77584, Note_off_c, 0, 64, 112
1, 77625, Note_on_c, 0, 69, 116
1, 77831, Note_off_c, 0, 69, 116
1, 77841, Note_on_c, 0, 67, 113
1, 78037, Note_off_c, 0, 67, 113
1, 78037, Note_on_c, 0, 65, 122
1, 78233, Note_off_c, 0, 65, 122
1, 78253, Note_on_c, 0, 61, 101
1, 78376, Note_off_c, 0, 61, 101
1, 78437, Note_on_c, 0, 64, 112
1, 78653, Note_off_c, 0, 64, 112
1, 78663, Note_on_c, 0, 63, 116
1, 78838, Note_off_c, 0, 63, 116
1, 78845, Note_on_c, 0, 62, 118
1, 78972, Note_off_c, 0, 62, 118
1, 79033, Note_on_c, 0, 57, 111
1, 79189, Note_off_c, 0, 57, 111
1, 79276, Note_on_c, 0, 53, 118
1, 79421, Note_off_c, 0, 53, 118
1, 79464, Note_on_c, 0, 51, 111
1, 79540, Note_off_c, 0, 51, 111
1, 79682, Note_on_c, 0, 59, 111
1, 80074, Note_off_c, 0, 59, 111
1, 80146, Note_on_c, 0, 62, 119
1, 80362, Note_off_c, 0, 62, 119
1, 80568, Note_on_c, 0, 65, 124
1, 80867, Note_off_c, 0, 65, 124
1, 80949, Note_on_c, 0, 67, 122
1, 81165, Note_off_c, 0, 67, 122
1, 81325, Note_on_c, 0, 76, 118
1, 81669, Note_off_c, 0, 76, 118
1, 81708, Note_on_c, 0, 73, 102
1, 82056, Note_off_c, 0, 73, 102
1, 82205, Note_on_c, 0, 69, 120
1, 82555, Note_off_c, 0, 69, 120
1, 82627, Note_on_c, 0, 65, 107
1, 82967, Note_off_c, 0, 65, 107
1, 83059, Note_on_c, 0, 67, 119
1, 83399, Note_off_c, 0, 67, 119
1, 83481, Note_on_c, 0, 62, 115
1, 83677, Note_off_c, 0, 62, 115
1, 85503, Note_on_c, 0, 69, 113
1, 85740, Note_off_c, 0, 69, 113
1, 85781, Note_on_c, 0, 72, 114
1, 85987, Note_off_c, 0, 72, 114
1, 86041, Note_on_c, 0, 70, 115
1, 86309, Note_off_c, 0, 70, 115
1, 86370, Note_on_c, 0, 69, 114
1, 86682, Note_off_c, 0, 69, 114
1, 86830, Note_on_c, 0, 69, 101
1, 87211, Note_off_c, 0, 69, 101
1, 89535, Note_on_c, 0, 69, 116
1, 89875, Note_off_c, 0, 69, 116
1, 89964, Note_on_c, 0, 74, 111
1, 90225, Note_off_c, 0, 74, 111
1, 90482, Note_on_c, 0, 68, 118
1, 90783, Note_off_c, 0, 68, 118
1, 90837, Note_on_c, 0, 67, 106
1, 91152, Note_off_c, 0, 67, 106
1, 91228, Note_on_c, 0, 62, 106
1, 91387, Note_off_c, 0, 62, 106
1, 91502, Note_on_c, 0, 65, 115
1, 91987, Note_off_c, 0, 65, 115
1, 91987, Note_on_c, 0, 65, 110
1, 92234, Note_off_c, 0, 65, 110
1, 92234, Note_on_c, 0, 65, 110
1, 92275, Note_off_c, 0, 65, 110
1, 92316, Note_on_c, 0, 62, 119
1, 92739, Note_off_c, 0, 62, 119
1, 94035, Note_on_c, 0, 68, 119
1, 94262, Note_off_c, 0, 68, 119
1, 94268, Note_on_c, 0, 69, 107
1, 94387, Note_off_c, 0, 69, 107
1, 94401, Note_on_c, 0, 70, 124
1, 94582, Note_off_c, 0, 70, 124
1, 94640, Note_on_c, 0, 68, 104
1, 94814, Note_off_c, 0, 68, 104
1, 94872, Note_on_c, 0, 69, 116
1, 95006, Note_off_c, 0, 69, 116
1, 95125, Note_on_c, 0, 68, 119
1, 95328, Note_off_c, 0, 68, 119
1, 95349, Note_on_c, 0, 67, 116
1, 95497, Note_off_c, 0, 67, 116
1, 95583, Note_on_c, 0, 65, 124
1, 95696, Note_off_c, 0, 65, 124
1, 95753, Note_on_c, 0, 64, 111
1, 95938, Note_off_c, 0, 64, 111
1, 95989, Note_on_c, 0, 62, 118
1, 96174, Note_off_c, 0, 62, 118
1, 96206, Note_on_c, 0, 61, 115
1, 96329, Note_off_c, 0, 61, 115
1, 96423, Note_on_c, 0, 59, 111
1, 96502, Note_off_c, 0, 59, 111
1, 96543, Note_on_c, 0, 62, 117
1, 96749, Note_off_c, 0, 62, 117
1, 96766, Note_on_c, 0, 65, 123
1, 96907, Note_off_c, 0, 65, 123
1, 96953, Note_on_c, 0, 64, 114
1, 97092, Note_off_c, 0, 64, 114
1, 97148, Note_on_c, 0, 62, 105
1, 97333, Note_off_c, 0, 62, 105
1, 97340, Note_on_c, 0, 67, 115
1, 97525, Note_off_c, 0, 67, 115
1, 97610, Note_on_c, 0, 64, 109
1, 97785, Note_off_c, 0, 64, 109
1, 97802, Note_on_c, 0, 65, 126
1, 97889, Note_off_c, 0, 65, 126
1, 97901, Note_on_c, 0, 66, 112
1, 97998, Note_off_c, 0, 66, 112
1, 97999, Note_on_c, 0, 65, 125
1, 98093, Note_off_c, 0, 65, 125
1, 98201, Note_on_c, 0, 64, 114
1, 98324, Note_off_c, 0, 64, 114
1, 98399, Note_on_c, 0, 62, 117
1, 98553, Note_on_c, 0, 61, 112
1, 98553, Note_off_c, 0, 62, 117
1, 98759, Note_off_c, 0, 61, 112
1, 98779, Note_on_c, 0, 64, 116
1, 98954, Note_off_c, 0, 64, 116
1, 98954, Note_on_c, 0, 62, 114
1, 99150, Note_off_c, 0, 62, 114
1, 99212, Note_on_c, 0, 65, 121
1, 99366, Note_off_c, 0, 65, 121
1, 99366, Note_on_c, 0, 64, 114
1, 99613, Note_off_c, 0, 64, 114
1, 99788, Note_on_c, 0, 67, 118
1, 99984, Note_off_c, 0, 67, 118
1, 100025, Note_on_c, 0, 69, 113
1, 100221, Note_off_c, 0, 69, 113
1, 100221, Note_on_c, 0, 70, 114
1, 100406, Note_off_c, 0, 70, 114
1, 100406, Note_on_c, 0, 72, 116
1, 100633, Note_off_c, 0, 72, 116
1, 100633, Note_on_c, 0, 69, 108
1, 100829, Note_off_c, 0, 69, 108
1, 100849, Note_on_c, 0, 65, 120
1, 101034, Note_off_c, 0, 65, 120
1, 101057, Note_on_c, 0, 62, 114
1, 101209, Note_off_c, 0, 62, 114
1, 101245, Note_on_c, 0, 58, 103
1, 101368, Note_off_c, 0, 58, 103
1, 101476, Note_on_c, 0, 64, 115
1, 101878, Note_off_c, 0, 64, 115
1, 101939, Note_on_c, 0, 65, 122
1, 102300, Note_off_c, 0, 65, 122
1, 102341, Note_on_c, 0, 66, 112
1, 102671, Note_off_c, 0, 66, 112
1, 102732, Note_on_c, 0, 67, 117
1, 103041, Note_off_c, 0, 67, 117
1, 103175, Note_on_c, 0, 62, 114
1, 103525, Note_off_c, 0, 62, 114
1, 103607, Note_on_c, 0, 63, 123
1, 103906, Note_off_c, 0, 63, 123
1, 104289, Note_on_c, 0, 56, 106
1, 104445, Note_off_c, 0, 56, 106
1, 104488, Note_on_c, 0, 57, 109
1, 104622, Note_off_c, 0, 57, 109
1, 104802, Note_on_c, 0, 68, 119
1, 105070, Note_off_c, 0, 68, 119
1, 105080, Note_on_c, 0, 66, 101
1, 105255, Note_off_c, 0, 66, 101
1, 105255, Note_on_c, 0, 61, 107
1, 105492, Note_off_c, 0, 61, 107
1, 105522, Note_on_c, 0, 69, 112
1, 105718, Note_off_c, 0, 69, 112
1, 105718, Note_on_c, 0, 68, 115
1, 105934, Note_off_c, 0, 68, 115
1, 106016, Note_on_c, 0, 66, 119
1, 106150, Note_off_c, 0, 66, 119
1, 106150, Note_on_c, 0, 65, 123
1, 106366, Note_off_c, 0, 65, 123
1, 106386, Note_on_c, 0, 63, 67
1, 106582, Note_off_c, 0, 63, 67
1, 106582, Note_on_c, 0, 62, 114
1, 107005, Note_off_c, 0, 62, 114
1, 111102, Note_on_c, 0, 72, 121
1, 111267, Note_off_c, 0, 72, 121
1, 111267, Note_on_c, 0, 70, 111
1, 111560, Note_off_c, 0, 70, 111
1, 111560, Note_on_c, 0, 75, 119
1, 111726, Note_off_c, 0, 75, 119
1, 111802, Note_on_c, 0, 73, 114
1, 111967, Note_off_c, 0, 73, 114
1, 112008, Note_on_c, 0, 69, 111
1, 112214, Note_off_c, 0, 69, 111
1, 112283, Note_on_c, 0, 64, 108
1, 112451, Note_off_c, 0, 64, 108
1, 112451, Note_on_c, 0, 63, 111
1, 112667, Note_on_c, 0, 61, 113
1, 112667, Note_off_c, 0, 63, 111
1, 112863, Note_off_c, 0, 61, 113
1, 112888, Note_on_c, 0, 60, 117
1, 113015, Note_off_c, 0, 60, 117
1, 113058, Note_on_c, 0, 58, 105
1, 113221, Note_off_c, 0, 58, 105
1, 113284, Note_on_c, 0, 57, 105
1, 113769, Note_off_c, 0, 57, 105
1, 118919, Note_on_c, 0, 65, 126
1, 119166, Note_off_c, 0, 65, 126
1, 119228, Note_on_c, 0, 67, 121
1, 119403, Note_off_c, 0, 67, 121
1, 119403, Note_on_c, 0, 69, 102
1, 119609, Note_off_c, 0, 69, 102
1, 119640, Note_on_c, 0, 73, 102
1, 119748, Note_off_c, 0, 73, 102
1, 119748, Note_on_c, 0, 74, 112
1, 120060, Note_off_c, 0, 74, 112
1, 120154, Note_on_c, 0, 72, 111
1, 120773, Note_off_c, 0, 72, 111
1, 120919, Note_on_c, 0, 77, 116
1, 121405, Note_off_c, 0, 77, 116
1, 121845, Note_on_c, 0, 74, 116
1, 122247, Note_off_c, 0, 74, 116
1, 122370, Note_on_c, 0, 70, 110
1, 122700, Note_off_c, 0, 70, 110
1, 122864, Note_on_c, 0, 69, 99
1, 123016, Note_off_c, 0, 69, 99
1, 123041, Note_on_c, 0, 70, 94
1, 123128, Note_off_c, 0, 70, 94
1, 123146, Note_on_c, 0, 69, 101
1, 123295, Note_off_c, 0, 69, 101
1, 123326, Note_on_c, 0, 67, 117
1, 123532, Note_off_c, 0, 67, 117
1, 123625, Note_on_c, 0, 72, 119
1, 123955, Note_off_c, 0, 72, 119
1, 124109, Note_on_c, 0, 69, 117
1, 124418, Note_off_c, 0, 69, 117
1, 124541, Note_on_c, 0, 67, 116
1, 124912, Note_off_c, 0, 67, 116
1, 124973, Note_on_c, 0, 65, 118
1, 125313, Note_off_c, 0, 65, 118
1, 125395, Note_on_c, 0, 64, 113
1, 125745, Note_off_c, 0, 64, 113
1, 125796, Note_on_c, 0, 62, 112
1, 126012, Note_off_c, 0, 62, 112
1, 126104, Note_on_c, 0, 59, 95
1, 126470, Note_off_c, 0, 59, 95
1, 126488, Note_on_c, 0, 61, 98
1, 126681, Note_off_c, 0, 61, 98
1, 126712, Note_on_c, 0, 62, 109
1, 127052, Note_off_c, 0, 62, 109
1, 127144, Note_on_c, 0, 61, 109
1, 127525, Note_off_c, 0, 61, 109
1, 127542, Note_on_c, 0, 64, 103
1, 127686, Note_off_c, 0, 64, 103
1, 127874, Note_on_c, 0, 67, 121
1, 128317, Note_off_c, 0, 67, 121
1, 128368, Note_on_c, 0, 69, 109
1, 128656, Note_off_c, 0, 69, 109
1, 128831, Note_on_c, 0, 70, 105
1, 129357, Note_off_c, 0, 70, 105
1, 129491, Note_on_c, 0, 69, 112
1, 129986, Note_off_c, 0, 69, 112
1, 130109, Note_on_c, 0, 65, 115
1, 130635, Note_off_c, 0, 65, 115
1, 132781, Note_on_c, 0, 67, 117
1, 133008, Note_on_c, 0, 65, 124
1, 133008, Note_off_c, 0, 67, 117
1, 133193, Note_off_c, 0, 65, 124
1, 133193, Note_on_c, 0, 64, 108
1, 133420, Note_off_c, 0, 64, 108
1, 133473, Note_on_c, 0, 62, 115
1, 133648, Note_off_c, 0, 62, 115
1, 133707, Note_on_c, 0, 61, 116
1, 134099, Note_on_c, 0, 61, 114
1, 134099, Note_off_c, 0, 61, 116
1, 134160, Note_off_c, 0, 61, 114
1, 134160, Note_on_c, 0, 64, 111
1, 134459, Note_off_c, 0, 64, 111
1, 134551, Note_on_c, 0, 67, 115
1, 134974, Note_off_c, 0, 67, 115
1, 134974, Note_on_c, 0, 69, 115
1, 135293, Note_off_c, 0, 69, 115
1, 135403, Note_on_c, 0, 70, 111
1, 135784, Note_off_c, 0, 70, 111
1, 135848, Note_on_c, 0, 69, 111
1, 136157, Note_off_c, 0, 69, 111
1, 136249, Note_on_c, 0, 68, 111
1, 136599, Note_off_c, 0, 68, 111
1, 136671, Note_on_c, 0, 69, 108
1, 136959, Note_off_c, 0, 69, 108
1, 137048, Note_on_c, 0, 76, 112
1, 137259, Note_off_c, 0, 76, 112
1, 137336, Note_on_c, 0, 77, 107
1, 137655, Note_off_c, 0, 77, 107
1, 137876, Note_on_c, 0, 73, 112
1, 138237, Note_off_c, 0, 73, 112
1, 138387, Note_on_c, 0, 76, 112
1, 138673, Note_off_c, 0, 76, 112
1, 138908, Note_on_c, 0, 75, 103
1, 139207, Note_off_c, 0, 75, 103
1, 139287, Note_on_c, 0, 69, 108
1, 139606, Note_off_c, 0, 69, 108
1, 139692, Note_on_c, 0, 67, 114
1, 140042, Note_off_c, 0, 67, 114
1, 140052, Note_on_c, 0, 65, 122
1, 140402, Note_off_c, 0, 65, 122
1, 140459, Note_on_c, 0, 69, 109
1, 140964, Note_off_c, 0, 69, 109
1, 141191, Note_on_c, 0, 62, 111
1, 141717, Note_off_c, 0, 62, 111
1, 141717, Note_on_c, 0, 67, 119
1, 142119, Note_off_c, 0, 67, 119
1, 143960, Note_on_c, 0, 74, 112
1, 144166, Note_off_c, 0, 74, 112
1, 144197, Note_on_c, 0, 72, 113
1, 144485, Note_off_c, 0, 72, 113
1, 144495, Note_on_c, 0, 70, 110
1, 144660, Note_off_c, 0, 70, 110
1, 144660, Note_on_c, 0, 69, 115
1, 144804, Note_off_c, 0, 69, 115
1, 144804, Note_on_c, 0, 67, 113
1, 145041, Note_off_c, 0, 67, 113
1, 145041, Note_on_c, 0, 65, 116
1, 145175, Note_off_c, 0, 65, 116
1, 145216, Note_on_c, 0, 64, 112
1, 145380, Note_off_c, 0, 64, 112
1, 145380, Note_on_c, 0, 63, 114
1, 145545, Note_off_c, 0, 63, 114
1, 145596, Note_on_c, 0, 67, 112
1, 145792, Note_off_c, 0, 67, 112
1, 145825, Note_on_c, 0, 62, 116
1, 145999, Note_off_c, 0, 62, 116
1, 146013, Note_on_c, 0, 60, 119
1, 146223, Note_off_c, 0, 60, 119
1, 146223, Note_on_c, 0, 65, 121
1, 146388, Note_off_c, 0, 65, 121
1, 146411, Note_on_c, 0, 62, 108
1, 146592, Note_off_c, 0, 62, 108
1, 146602, Note_on_c, 0, 57, 112
1, 146758, Note_off_c, 0, 57, 112
1, 146787, Note_on_c, 0, 55, 110
1, 146941, Note_off_c, 0, 55, 110
1, 147035, Note_on_c, 0, 58, 113
1, 147231, Note_off_c, 0, 58, 113
1, 147267, Note_on_c, 0, 60, 117
1, 147390, Note_off_c, 0, 60, 117
1, 147425, Note_on_c, 0, 62, 115
1, 147631, Note_off_c, 0, 62, 115
1, 147631, Note_on_c, 0, 65, 116
1, 147827, Note_off_c, 0, 65, 116
1, 147889, Note_on_c, 0, 72, 103
1, 148332, Note_off_c, 0, 72, 103
1, 148332, Note_on_c, 0, 69, 103
1, 148507, Note_off_c, 0, 69, 103
1, 148548, Note_on_c, 0, 67, 113
1, 148702, Note_off_c, 0, 67, 113
1, 148743, Note_on_c, 0, 64, 114
1, 148928, Note_off_c, 0, 64, 114
1, 148948, Note_on_c, 0, 67, 115
1, 149175, Note_off_c, 0, 67, 115
1, 149175, Note_on_c, 0, 66, 111
1, 149340, Note_off_c, 0, 66, 111
1, 149360, Note_on_c, 0, 70, 111
1, 149576, Note_off_c, 0, 70, 111
1, 149576, Note_on_c, 0, 65, 117
1, 149699, Note_off_c, 0, 65, 117
1, 149719, Note_on_c, 0, 63, 117
1, 149915, Note_off_c, 0, 63, 117
1, 149957, Note_on_c, 0, 58, 111
1, 150122, Note_off_c, 0, 58, 111
1, 150141, Note_on_c, 0, 60, 115
1, 150295, Note_off_c, 0, 60, 115
1, 150295, Note_on_c, 0, 62, 113
1, 150511, Note_off_c, 0, 62, 113
1, 150540, Note_on_c, 0, 58, 109
1, 150686, Note_off_c, 0, 58, 109
1, 150729, Note_on_c, 0, 57, 111
1, 150852, Note_off_c, 0, 57, 111
1, 150886, Note_on_c, 0, 55, 106
1, 151009, Note_off_c, 0, 55, 106
1, 151157, Note_on_c, 0, 60, 113
1, 151332, Note_off_c, 0, 60, 113
1, 151336, Note_on_c, 0, 59, 110
1, 151453, Note_off_c, 0, 59, 110
1, 151501, Note_on_c, 0, 58, 106
1, 151758, Note_off_c, 0, 58, 106
1, 151772, Note_on_c, 0, 57, 108
1, 151968, Note_off_c, 0, 57, 108
1, 151980, Note_on_c, 0, 55, 113
1, 152152, Note_off_c, 0, 55, 113
1, 152184, Note_on_c, 0, 57, 107
1, 152390, Note_off_c, 0, 57, 107
1, 152406, Note_on_c, 0, 58, 108
1, 152529, Note_off_c, 0, 58, 108
1, 152570, Note_on_c, 0, 60, 113
1, 152745, Note_off_c, 0, 60, 113
1, 152775, Note_on_c, 0, 57, 106
1, 152950, Note_off_c, 0, 57, 106
1, 153032, Note_on_c, 0, 55, 101
1, 153228, Note_off_c, 0, 55, 101
1, 153289, Note_on_c, 0, 50, 111
1, 153722, Note_off_c, 0, 50, 111
1, 153903, Note_on_c, 0, 54, 109
1, 154505, Note_off_c, 0, 54, 109
1, 154519, Note_on_c, 0, 52, 119
1, 154814, Note_off_c, 0, 52, 119
1, 154833, Note_on_c, 0, 51, 109
1, 154994, Note_off_c, 0, 51, 109
1, 155039, Note_on_c, 0, 49, 114
1, 155432, Note_off_c, 0, 49, 114
1, 155506, Note_on_c, 0, 52, 99
1, 155727, Note_off_c, 0, 52, 99
1, 155766, Note_on_c, 0, 60, 115
1, 155940, Note_off_c, 0, 60, 115
1, 155949, Note_on_c, 0, 58, 109
1, 156289, Note_off_c, 0, 58, 109
1, 157259, Note_on_c, 0, 57, 107
1, 157434, Note_off_c, 0, 57, 107
1, 157434, Note_on_c, 0, 59, 112
1, 157599, Note_off_c, 0, 59, 112
1, 157640, Note_on_c, 0, 61, 112
1, 157805, Note_off_c, 0, 61, 112
1, 157805, Note_on_c, 0, 62, 117
1, 158032, Note_off_c, 0, 62, 117
1, 158032, Note_on_c, 0, 64, 112
1, 158238, Note_off_c, 0, 64, 112
1, 158238, Note_on_c, 0, 67, 100
1, 158630, Note_off_c, 0, 67, 100
1, 158630, Note_on_c, 0, 68, 119
1, 158877, Note_off_c, 0, 68, 119
1, 158877, Note_on_c, 0, 69, 114
1, 159031, Note_off_c, 0, 69, 114
1, 159031, Note_on_c, 0, 70, 113
1, 159289, Note_off_c, 0, 70, 113
1, 159310, Note_on_c, 0, 68, 108
1, 159429, Note_on_c, 0, 69, 113
1, 159429, Note_off_c, 0, 68, 108
1, 159565, Note_off_c, 0, 69, 113
1, 159669, Note_on_c, 0, 65, 121
1, 159813, Note_off_c, 0, 65, 121
1, 159813, Note_on_c, 0, 64, 116
1, 160060, Note_off_c, 0, 64, 116
1, 160071, Note_on_c, 0, 62, 106
1, 160216, Note_off_c, 0, 62, 106
1, 160307, Note_on_c, 0, 67, 112
1, 160668, Note_off_c, 0, 67, 112
1, 161493, Note_on_c, 0, 72, 123
1, 161678, Note_off_c, 0, 72, 123
1, 161678, Note_on_c, 0, 70, 108
1, 161915, Note_off_c, 0, 70, 108
1, 161949, Note_on_c, 0, 75, 116
1, 162141, Note_off_c, 0, 75, 116
1, 162171, Note_on_c, 0, 73, 110
1, 162325, Note_off_c, 0, 73, 110
1, 162325, Note_on_c, 0, 69, 111
1, 162552, Note_off_c, 0, 69, 111
1, 162562, Note_on_c, 0, 67, 111
1, 162747, Note_off_c, 0, 67, 111
1, 162747, Note_on_c, 0, 72, 115
1, 163149, Note_on_c, 0, 72, 102
1, 163149, Note_off_c, 0, 72, 115
1, 163365, Note_off_c, 0, 72, 102
1, 163365, Note_on_c, 0, 70, 105
1, 163571, Note_off_c, 0, 70, 105
1, 163571, Note_on_c, 0, 69, 111
1, 163777, Note_off_c, 0, 69, 111
1, 163787, Note_on_c, 0, 65, 121
1, 163962, Note_off_c, 0, 65, 121
1, 163962, Note_on_c, 0, 64, 116
1, 164209, Note_off_c, 0, 64, 116
1, 164310, Note_on_c, 0, 63, 112
1, 164353, Note_off_c, 0, 63, 112
1, 164389, Note_on_c, 0, 67, 117
1, 164599, Note_off_c, 0, 67, 117
1, 164599, Note_on_c, 0, 65, 118
1, 164764, Note_off_c, 0, 65, 118
1, 164785, Note_on_c, 0, 61, 113
1, 164904, Note_off_c, 0, 61, 113
1, 164932, Note_on_c, 0, 58, 96
1, 165075, Note_off_c, 0, 58, 96
1, 165187, Note_on_c, 0, 64, 117
1, 165341, Note_off_c, 0, 64, 117
1, 165411, Note_on_c, 0, 62, 108
1, 165586, Note_off_c, 0, 62, 108
1, 165613, Note_on_c, 0, 57, 108
1, 165763, Note_off_c, 0, 57, 108
1, 165792, Note_on_c, 0, 55, 108
1, 165948, Note_off_c, 0, 55, 108
1, 165981, Note_on_c, 0, 52, 113
1, 166507, Note_off_c, 0, 52, 113
1, 166530, Note_on_c, 0, 51, 119
1, 166696, Note_off_c, 0, 51, 119
1, 166786, Note_on_c, 0, 55, 113
1, 166927, Note_off_c, 0, 55, 113
1, 166932, Note_on_c, 0, 58, 106
1, 167035, Note_off_c, 0, 58, 106
1, 167055, Note_on_c, 0, 62, 115
1, 167197, Note_off_c, 0, 62, 115
1, 167197, Note_on_c, 0, 65, 106
1, 167265, Note_off_c, 0, 65, 106
1, 167268, Note_on_c, 0, 68, 108
1, 167326, Note_off_c, 0, 68, 108
1, 167336, Note_on_c, 0, 72, 109
1, 167472, Note_off_c, 0, 72, 109
1, 167516, Note_on_c, 0, 67, 106
1, 167763, Note_off_c, 0, 67, 106
1, 168526, Note_on_c, 0, 67, 114
1, 168732, Note_off_c, 0, 67, 114
1, 168732, Note_on_c, 0, 69, 115
1, 168917, Note_off_c, 0, 69, 115
1, 168917, Note_on_c, 0, 70, 111
1, 169123, Note_off_c, 0, 70, 111
1, 169123, Note_on_c, 0, 72, 117
1, 169319, Note_off_c, 0, 72, 117
1, 169319, Note_on_c, 0, 69, 113
1, 169453, Note_off_c, 0, 69, 113
1, 169453, Note_on_c, 0, 67, 105
1, 169525, Note_off_c, 0, 67, 105
1, 169589, Note_on_c, 0, 64, 115
1, 169805, Note_off_c, 0, 64, 115
1, 169864, Note_on_c, 0, 61, 111
1, 170096, Note_off_c, 0, 61, 111
1, 170112, Note_on_c, 0, 65, 116
1, 170370, Note_off_c, 0, 65, 116
1, 170370, Note_on_c, 0, 62, 109
1, 170700, Note_off_c, 0, 62, 109
1, 170803, Note_on_c, 0, 74, 110
1, 171178, Note_off_c, 0, 74, 110
1, 171194, Note_on_c, 0, 72, 95
1, 171451, Note_off_c, 0, 72, 95
1, 171451, Note_on_c, 0, 69, 112
1, 171636, Note_off_c, 0, 69, 112
1, 171645, Note_on_c, 0, 72, 114
1, 171923, Note_off_c, 0, 72, 114
1, 171923, Note_on_c, 0, 68, 115
1, 172108, Note_off_c, 0, 68, 115
1, 172108, Note_on_c, 0, 67, 113
1, 172355, Note_off_c, 0, 67, 113
1, 172355, Note_on_c, 0, 66, 116
1, 172478, Note_off_c, 0, 66, 116
1, 172509, Note_on_c, 0, 68, 115
1, 172725, Note_off_c, 0, 68, 115
1, 172735, Note_on_c, 0, 65, 117
1, 172869, Note_off_c, 0, 65, 117
1, 172891, Note_on_c, 0, 61, 114
1, 173021, Note_off_c, 0, 61, 114
1, 173062, Note_on_c, 0, 57, 106
1, 173219, Note_off_c, 0, 57, 106
1, 173558, Note_on_c, 0, 58, 108
1, 173774, Note_off_c, 0, 58, 108
1, 173774, Note_on_c, 0, 60, 118
1, 173949, Note_off_c, 0, 60, 118
1, 173949, Note_on_c, 0, 62, 110
1, 174083, Note_off_c, 0, 62, 110
1, 174196, Note_on_c, 0, 65, 115
1, 174381, Note_off_c, 0, 65, 115
1, 174422, Note_on_c, 0, 70, 114
1, 174690, Note_off_c, 0, 70, 114
1, 174741, Note_on_c, 0, 70, 110
1, 175029, Note_off_c, 0, 70, 110
1, 176835, Note_on_c, 0, 60, 120
1, 176958, Note_off_c, 0, 60, 120
1, 176978, Note_on_c, 0, 60, 120
1, 177153, Note_off_c, 0, 60, 120
1, 177164, Note_on_c, 0, 60, 120
1, 177485, Note_off_c, 0, 60, 120
1, 177513, Note_on_c, 0, 65, 115
1, 177874, Note_off_c, 0, 65, 115
1, 177936, Note_on_c, 0, 65, 120
1, 178255, Note_off_c, 0, 65, 120
1, 178460, Note_on_c, 0, 69, 119
1, 178697, Note_off_c, 0, 69, 119
1, 178893, Note_on_c, 0, 69, 114
1, 179120, Note_off_c, 0, 69, 114
1, 179305, Note_on_c, 0, 72, 113
1, 179552, Note_off_c, 0, 72, 113
1, 179748, Note_on_c, 0, 72, 104
1, 180078, Note_off_c, 0, 72, 104
1, 180108, Note_on_c, 0, 79, 107
1, 180342, Note_off_c, 0, 79, 107
1, 180390, Note_on_c, 0, 79, 104
1, 180722, Note_off_c, 0, 79, 104
1, 180747, Note_on_c, 0, 79, 116
1, 180881, Note_off_c, 0, 79, 116
1, 181004, Note_on_c, 0, 76, 123
1, 181179, Note_off_c, 0, 76, 123
1, 181364, Note_on_c, 0, 76, 125
1, 181580, Note_off_c, 0, 76, 125
1, 181807, Note_on_c, 0, 72, 118
1, 182034, Note_off_c, 0, 72, 118
1, 182215, Note_on_c, 0, 72, 115
1, 182442, Note_off_c, 0, 72, 115
1, 182616, Note_on_c, 0, 69, 114
1, 182853, Note_off_c, 0, 69, 114
1, 183060, Note_on_c, 0, 69, 114
1, 183276, Note_off_c, 0, 69, 114
1, 183448, Note_on_c, 0, 76, 120
1, 183609, Note_off_c, 0, 76, 120
1, 183634, Note_on_c, 0, 76, 99
1, 183786, Note_off_c, 0, 76, 99
1, 183842, Note_on_c, 0, 76, 116
1, 183996, Note_off_c, 0, 76, 116
1, 184058, Note_on_c, 0, 76, 115
1, 184130, Note_off_c, 0, 76, 115
1, 184253, Note_on_c, 0, 73, 116
1, 184480, Note_off_c, 0, 73, 116
1, 184621, Note_on_c, 0, 73, 112
1, 184848, Note_off_c, 0, 73, 112
1, 185120, Note_on_c, 0, 69, 112
1, 185347, Note_off_c, 0, 69, 112
1, 185532, Note_on_c, 0, 70, 113
1, 185769, Note_off_c, 0, 70, 113
1, 185933, Note_on_c, 0, 67, 111
1, 186160, Note_off_c, 0, 67, 111
1, 186377, Note_on_c, 0, 67, 105
1, 186624, Note_off_c, 0, 67, 105
1, 186799, Note_on_c, 0, 73, 113
1, 186933, Note_off_c, 0, 73, 113
1, 186983, Note_on_c, 0, 73, 101
1, 187117, Note_off_c, 0, 73, 101
1, 187180, Note_on_c, 0, 73, 108
1, 187272, Note_off_c, 0, 73, 108
1, 187353, Note_on_c, 0, 73, 116
1, 187497, Note_off_c, 0, 73, 116
1, 187621, Note_on_c, 0, 70, 107
1, 187827, Note_off_c, 0, 70, 107
1, 188013, Note_on_c, 0, 70, 111
1, 188240, Note_off_c, 0, 70, 111
1, 188425, Note_on_c, 0, 69, 112
1, 189033, Note_off_c, 0, 69, 112
1, 189259, Note_on_c, 0, 63, 106
1, 189413, Note_off_c, 0, 63, 106
1, 189434, Note_on_c, 0, 64, 111
1, 189618, Note_off_c, 0, 64, 111
1, 189618, Note_on_c, 0, 67, 111
1, 189834, Note_off_c, 0, 67, 111
1, 189844, Note_on_c, 0, 65, 113
1, 190029, Note_off_c, 0, 65, 113
1, 190044, Note_on_c, 0, 64, 110
1, 190196, Note_off_c, 0, 64, 110
1, 190235, Note_on_c, 0, 62, 112
1, 190431, Note_off_c, 0, 62, 112
1, 190473, Note_on_c, 0, 58, 109
1, 190632, Note_off_c, 0, 58, 109
1, 190644, Note_on_c, 0, 57, 98
1, 190811, Note_off_c, 0, 57, 98
1, 190923, Note_on_c, 0, 63, 123
1, 191056, Note_off_c, 0, 63, 123
1, 191056, Note_on_c, 0, 63, 118
1, 191128, Note_off_c, 0, 63, 118
1, 191128, Note_on_c, 0, 65, 119
1, 191303, Note_off_c, 0, 65, 119
1, 191303, Note_on_c, 0, 68, 103
1, 191581, Note_off_c, 0, 68, 103
1, 191714, Note_on_c, 0, 74, 119
1, 192271, Note_off_c, 0, 74, 119
1, 192280, Note_on_c, 0, 72, 118
1, 192341, Note_off_c, 0, 72, 118
1, 192341, Note_on_c, 0, 70, 121
1, 192475, Note_off_c, 0, 70, 121
1, 192484, Note_on_c, 0, 69, 120
1, 192721, Note_off_c, 0, 69, 120
1, 192721, Note_on_c, 0, 67, 113
1, 192855, Note_off_c, 0, 67, 113
1, 192864, Note_on_c, 0, 65, 117
1, 193049, Note_off_c, 0, 65, 117
1, 193090, Note_on_c, 0, 63, 118
1, 193255, Note_off_c, 0, 63, 118
1, 193296, Note_on_c, 0, 62, 119
1, 193521, Note_off_c, 0, 62, 119
1, 193521, Note_on_c, 0, 63, 98
1, 193613, Note_off_c, 0, 63, 98
1, 194770, Note_on_c, 0, 65, 114
1, 195162, Note_off_c, 0, 65, 114
1, 195171, Note_on_c, 0, 70, 112
1, 195470, Note_off_c, 0, 70, 112
1, 195547, Note_on_c, 0, 75, 111
1, 195844, Note_off_c, 0, 75, 111
1, 195944, Note_on_c, 0, 74, 108
1, 196274, Note_off_c, 0, 74, 108
1, 196386, Note_on_c, 0, 70, 112
1, 196705, Note_off_c, 0, 70, 112
1, 196840, Note_on_c, 0, 69, 116
1, 197170, Note_off_c, 0, 69, 116
1, 197262, Note_on_c, 0, 67, 109
1, 197550, Note_off_c, 0, 67, 109
1, 197581, Note_on_c, 0, 63, 112
1, 197918, Note_off_c, 0, 63, 112
1, 198096, Note_on_c, 0, 64, 111
1, 198364, Note_off_c, 0, 64, 111
1, 198364, Note_on_c, 0, 67, 113
1, 199158, Note_off_c, 0, 67, 113
1, 199168, Note_on_c, 0, 65, 113
1, 199632, Note_off_c, 0, 65, 113
1, 199719, Note_on_c, 0, 59, 110
1, 200183, Note_off_c, 0, 59, 110
1, 201126, Note_on_c, 0, 55, 118
1, 201291, Note_off_c, 0, 55, 118
1, 201291, Note_on_c, 0, 57, 118
1, 201466, Note_off_c, 0, 57, 118
1, 201507, Note_on_c, 0, 61, 110
1, 201692, Note_off_c, 0, 61, 110
1, 201909, Note_on_c, 0, 61, 119
1, 202094, Note_off_c, 0, 61, 119
1, 202103, Note_on_c, 0, 65, 111
1, 202309, Note_off_c, 0, 65, 111
1, 202339, Note_on_c, 0, 69, 112
1, 202566, Note_off_c, 0, 69, 112
1, 202572, Note_on_c, 0, 74, 117
1, 202775, Note_off_c, 0, 74, 117
1, 202793, Note_on_c, 0, 73, 113
1, 202978, Note_off_c, 0, 73, 113
1, 202987, Note_on_c, 0, 70, 113
1, 203141, Note_off_c, 0, 70, 113
1, 203153, Note_on_c, 0, 73, 120
1, 203367, Note_off_c, 0, 73, 120
1, 203389, Note_on_c, 0, 71, 110
1, 203616, Note_off_c, 0, 71, 110
1, 203687, Note_on_c, 0, 68, 104
1, 203831, Note_off_c, 0, 68, 104
1, 203851, Note_on_c, 0, 63, 109
1, 204150, Note_off_c, 0, 63, 109
1, 204247, Note_on_c, 0, 64, 118
1, 204329, Note_off_c, 0, 64, 118
1, 204329, Note_on_c, 0, 65, 117
1, 204445, Note_off_c, 0, 65, 117
1, 204475, Note_on_c, 0, 66, 117
1, 204633, Note_off_c, 0, 66, 117
1, 204633, Note_on_c, 0, 67, 108
1, 204860, Note_off_c, 0, 67, 108
1, 204860, Note_on_c, 0, 64, 115
1, 205045, Note_off_c, 0, 64, 115
1, 205103, Note_on_c, 0, 60, 105
1, 205221, Note_off_c, 0, 60, 105
1, 205228, Note_on_c, 0, 61, 117
1, 205362, Note_off_c, 0, 61, 117
1, 205385, Note_on_c, 0, 62, 112
1, 205465, Note_off_c, 0, 62, 112
1, 205465, Note_on_c, 0, 64, 105
1, 205619, Note_off_c, 0, 64, 105
1, 205659, Note_on_c, 0, 67, 117
1, 205824, Note_off_c, 0, 67, 117
1, 206073, Note_on_c, 0, 70, 111
1, 206269, Note_off_c, 0, 70, 111
1, 206298, Note_on_c, 0, 65, 118
1, 206494, Note_off_c, 0, 65, 118
1, 206495, Note_on_c, 0, 67, 110
1, 206793, Note_off_c, 0, 67, 110
1, 206793, Note_on_c, 0, 69, 115
1, 208041, Note_off_c, 0, 69, 115
1, 208186, Note_on_c, 0, 69, 112
1, 209052, Note_off_c, 0, 69, 112
1, 209845, Note_on_c, 0, 69, 116
1, 210072, Note_off_c, 0, 69, 116
1, 210309, Note_on_c, 0, 77, 118
1, 210794, Note_off_c, 0, 77, 118
1, 210856, Note_on_c, 0, 76, 124
1, 211372, Note_off_c, 0, 76, 124
1, 211494, Note_on_c, 0, 69, 110
1, 212290, Note_off_c, 0, 69, 110
1, 214107, Note_on_c, 0, 69, 113
1, 214715, Note_off_c, 0, 69, 113
1, 214747, Note_on_c, 0, 69, 111
1, 215232, Note_off_c, 0, 69, 111
1, 215394, Note_on_c, 0, 69, 113
1, 215559, Note_off_c, 0, 69, 113
1, 215559, Note_on_c, 0, 69, 113
1, 215765, Note_off_c, 0, 69, 113
1, 215899, Note_on_c, 0, 69, 112
1, 216198, Note_off_c, 0, 69, 112
1, 216389, Note_on_c, 0, 77, 106
1, 216773, Note_off_c, 0, 77, 106
1, 216815, Note_on_c, 0, 76, 109
1, 217145, Note_off_c, 0, 76, 109
1, 217156, Note_on_c, 0, 73, 111
1, 217868, Note_off_c, 0, 73, 111
1, 217877, Note_on_c, 0, 69, 109
1, 218062, Note_off_c, 0, 69, 109
1, 218073, Note_on_c, 0, 71, 111
1, 218258, Note_off_c, 0, 71, 111
1, 218298, Note_on_c, 0, 73, 111
1, 218483, Note_off_c, 0, 73, 111
1, 218514, Note_on_c, 0, 69, 106
1, 218710, Note_off_c, 0, 69, 106
1, 218758, Note_on_c, 0, 66, 106
1, 218866, Note_off_c, 0, 66, 106
1, 218894, Note_on_c, 0, 67, 106
1, 219048, Note_off_c, 0, 67, 106
1, 219048, Note_on_c, 0, 69, 102
1, 219120, Note_off_c, 0, 69, 102
1, 219120, Note_on_c, 0, 69, 107
1, 219336, Note_off_c, 0, 69, 107
1, 219389, Note_on_c, 0, 65, 111
1, 219729, Note_off_c, 0, 65, 111
1, 219759, Note_on_c, 0, 62, 109
1, 220097, Note_off_c, 0, 62, 109
1, 221821, Note_on_c, 0, 67, 106
1, 222005, Note_off_c, 0, 67, 106
1, 222005, Note_on_c, 0, 69, 113
1, 222221, Note_off_c, 0, 69, 113
1, 222221, Note_on_c, 0, 70, 103
1, 222365, Note_off_c, 0, 70, 103
1, 222448, Note_on_c, 0, 72, 112
1, 222664, Note_off_c, 0, 72, 112
1, 222664, Note_on_c, 0, 69, 112
1, 223262, Note_off_c, 0, 69, 112
1, 223271, Note_on_c, 0, 67, 107
1, 223549, Note_off_c, 0, 67, 107
1, 223649, Note_on_c, 0, 74, 106
1, 223943, Note_off_c, 0, 74, 106
1, 224075, Note_on_c, 0, 72, 104
1, 224322, Note_on_c, 0, 70, 103
1, 224322, Note_off_c, 0, 72, 104
1, 224507, Note_off_c, 0, 70, 103
1, 224507, Note_on_c, 0, 69, 103
1, 224691, Note_off_c, 0, 69, 103
1, 224691, Note_on_c, 0, 67, 101
1, 224838, Note_off_c, 0, 67, 101
1, 224845, Note_on_c, 0, 65, 104
1, 225041, Note_off_c, 0, 65, 104
1, 225105, Note_on_c, 0, 64, 102
1, 225184, Note_off_c, 0, 64, 102
1, 225206, Note_on_c, 0, 63, 104
1, 225391, Note_off_c, 0, 63, 104
1, 225398, Note_on_c, 0, 67, 102
1, 225525, Note_off_c, 0, 67, 102
1, 225575, Note_on_c, 0, 62, 110
1, 225716, Note_off_c, 0, 62, 110
1, 225752, Note_on_c, 0, 60, 111
1, 225888, Note_off_c, 0, 60, 111
1, 225971, Note_on_c, 0, 65, 111
1, 226141, Note_off_c, 0, 65, 111
1, 226160, Note_on_c, 0, 61, 116
1, 226325, Note_off_c, 0, 61, 116
1, 226359, Note_on_c, 0, 56, 103
1, 226491, Note_off_c, 0, 56, 103
1, 226554, Note_on_c, 0, 55, 101
1, 226704, Note_off_c, 0, 55, 101
1, 226793, Note_on_c, 0, 58, 107
1, 227185, Note_off_c, 0, 58, 107
1, 227361, Note_on_c, 0, 60, 113
1, 227701, Note_off_c, 0, 60, 113
1, 227730, Note_on_c, 0, 62, 110
1, 228039, Note_off_c, 0, 62, 110
1, 228195, Note_on_c, 0, 65, 113
1, 228576, Note_off_c, 0, 65, 113
1, 228636, Note_on_c, 0, 72, 109
1, 229740, Note_off_c, 0, 72, 109
1, 229896, Note_on_c, 0, 70, 110
1, 230205, Note_off_c, 0, 70, 110
1, 230338, Note_on_c, 0, 68, 109
1, 230688, Note_off_c, 0, 68, 109
1, 230781, Note_on_c, 0, 65, 112
1, 231018, Note_off_c, 0, 65, 112
1, 231062, Note_on_c, 0, 61, 104
1, 231248, Note_off_c, 0, 61, 104
1, 231280, Note_on_c, 0, 58, 91
1, 231479, Note_off_c, 0, 58, 91
1, 231592, Note_on_c, 0, 67, 106
1, 232015, Note_off_c, 0, 67, 106
1, 233336, Note_on_c, 0, 65, 110
1, 233635, Note_off_c, 0, 65, 110
1, 233636, Note_on_c, 0, 64, 112
1, 234048, Note_off_c, 0, 64, 112
1, 234107, Note_on_c, 0, 73, 105
1, 234353, Note_off_c, 0, 73, 105
1, 234369, Note_on_c, 0, 68, 97
1, 234528, Note_off_c, 0, 68, 97
1, 234538, Note_on_c, 0, 66, 102
1, 234638, Note_off_c, 0, 66, 102
1, 234643, Note_on_c, 0, 64, 103
1, 234703, Note_off_c, 0, 64, 103
1, 234703, Note_on_c, 0, 63, 99
1, 234950, Note_off_c, 0, 63, 99
1, 235036, Note_on_c, 0, 60, 109
1, 235195, Note_off_c, 0, 60, 109
1, 235269, Note_on_c, 0, 63, 109
1, 235795, Note_off_c, 0, 63, 109
1, 235846, Note_on_c, 0, 72, 113
1, 236145, Note_off_c, 0, 72, 113
1, 236196, Note_on_c, 0, 68, 84
1, 236332, Note_off_c, 0, 68, 84
1, 236390, Note_on_c, 0, 63, 111
1, 236648, Note_off_c, 0, 63, 111
1, 236918, Note_on_c, 0, 62, 111
1, 237526, Note_off_c, 0, 62, 111
1, 237763, Note_on_c, 0, 67, 111
1, 237969, Note_off_c, 0, 67, 111
1, 237969, Note_on_c, 0, 69, 109
1, 238194, Note_off_c, 0, 69, 109
1, 238194, Note_on_c, 0, 70, 106
1, 238379, Note_off_c, 0, 70, 106
1, 238379, Note_on_c, 0, 72, 111
1, 238574, Note_off_c, 0, 72, 111
1, 238574, Note_on_c, 0, 69, 110
1, 238759, Note_off_c, 0, 69, 110
1, 238790, Note_on_c, 0, 65, 114
1, 238996, Note_off_c, 0, 65, 114
1, 239043, Note_on_c, 0, 62, 101
1, 239200, Note_off_c, 0, 62, 101
1, 239225, Note_on_c, 0, 59, 99
1, 239375, Note_off_c, 0, 59, 99
1, 239449, Note_on_c, 0, 64, 109
1, 239624, Note_off_c, 0, 64, 109
1, 239657, Note_on_c, 0, 61, 108
1, 239814, Note_off_c, 0, 61, 108
1, 239838, Note_on_c, 0, 62, 108
1, 240013, Note_off_c, 0, 62, 108
1, 240054, Note_on_c, 0, 64, 109
1, 240229, Note_off_c, 0, 64, 109
1, 240229, Note_on_c, 0, 65, 109
1, 240424, Note_off_c, 0, 65, 109
1, 240424, Note_on_c, 0, 65, 110
1, 240485, Note_off_c, 0, 65, 110
1, 240485, Note_on_c, 0, 67, 107
1, 240669, Note_on_c, 0, 69, 108
1, 240669, Note_off_c, 0, 67, 107
1, 240834, Note_off_c, 0, 69, 108
1, 240896, Note_on_c, 0, 70, 105
1, 241030, Note_off_c, 0, 70, 105
1, 241134, Note_on_c, 0, 72, 100
1, 241577, Note_off_c, 0, 72, 100
1, 241625, Note_on_c, 0, 77, 104
1, 242306, Note_off_c, 0, 77, 104
1, 243257, Note_on_c, 0, 72, 104
1, 243731, Note_off_c, 0, 72, 104
1, 243896, Note_on_c, 0, 77, 105
1, 244319, Note_off_c, 0, 77, 105
1, 244443, Note_on_c, 0, 71, 108
1, 244618, Note_off_c, 0, 71, 108
1, 244618, Note_on_c, 0, 72, 108
1, 244896, Note_off_c, 0, 72, 108
1, 244951, Note_on_c, 0, 77, 112
1, 245473, Note_off_c, 0, 77, 112
1, 245636, Note_on_c, 0, 72, 106
1, 246007, Note_off_c, 0, 72, 106
1, 246063, Note_on_c, 0, 77, 112
1, 246498, Note_off_c, 0, 77, 112
1, 246635, Note_on_c, 0, 71, 108
1, 246769, Note_off_c, 0, 71, 108
1, 246769, Note_on_c, 0, 73, 102
1, 247099, Note_off_c, 0, 73, 102
1, 247254, Note_on_c, 0, 77, 111
1, 247635, Note_off_c, 0, 77, 111
1, 247798, Note_on_c, 0, 73, 107
1, 248241, Note_off_c, 0, 73, 107
1, 248323, Note_on_c, 0, 77, 110
1, 248740, Note_off_c, 0, 77, 110
1, 248973, Note_on_c, 0, 73, 100
1, 249375, Note_off_c, 0, 73, 100
1, 249468, Note_on_c, 0, 77, 109
1, 249923, Note_off_c, 0, 77, 109
1, 250158, Note_on_c, 0, 72, 103
1, 250219, Note_off_c, 0, 72, 103
1, 250260, Note_on_c, 0, 74, 102
1, 250559, Note_off_c, 0, 74, 102
1, 250706, Note_on_c, 0, 77, 108
1, 251068, Note_off_c, 0, 77, 108
1, 251259, Note_on_c, 0, 74, 101
1, 251702, Note_off_c, 0, 74, 101
1, 251768, Note_on_c, 0, 77, 101
1, 252242, Note_off_c, 0, 77, 101
1, 252361, Note_on_c, 0, 69, 106
1, 252401, Note_off_c, 0, 69, 106
1, 252401, Note_on_c, 0, 70, 101
1, 252452, Note_off_c, 0, 70, 101
1, 252483, Note_on_c, 0, 74, 106
1, 252730, Note_off_c, 0, 74, 106
1, 252924, Note_on_c, 0, 77, 110
1, 253409, Note_off_c, 0, 77, 110
1, 253460, Note_on_c, 0, 69, 107
1, 253521, Note_off_c, 0, 69, 107
1, 253531, Note_on_c, 0, 70, 104
1, 253634, Note_on_c, 0, 73, 107
1, 253634, Note_off_c, 0, 70, 104
1, 253902, Note_off_c, 0, 73, 107
1, 254035, Note_on_c, 0, 77, 109
1, 254427, Note_off_c, 0, 77, 109
1, 254593, Note_on_c, 0, 70, 108
1, 254726, Note_off_c, 0, 70, 108
1, 254726, Note_on_c, 0, 73, 104
1, 255025, Note_off_c, 0, 73, 104
1, 255200, Note_on_c, 0, 77, 111
1, 255654, Note_off_c, 0, 77, 111
1, 255715, Note_on_c, 0, 73, 101
1, 256086, Note_off_c, 0, 73, 101
1, 256378, Note_on_c, 0, 77, 106
1, 256788, Note_off_c, 0, 77, 106
1, 257510, Note_on_c, 0, 72, 106
1, 257850, Note_off_c, 0, 72, 106
1, 257941, Note_on_c, 0, 77, 108
1, 258291, Note_off_c, 0, 77, 108
1, 258363, Note_on_c, 0, 72, 107
1, 258569, Note_off_c, 0, 72, 107
1, 258569, Note_on_c, 0, 73, 100
1, 258796, Note_off_c, 0, 73, 100
1, 258858, Note_on_c, 0, 77, 112
1, 259239, Note_off_c, 0, 77, 112
1, 259258, Note_on_c, 0, 72, 108
1, 259567, Note_off_c, 0, 72, 108
1, 259671, Note_on_c, 0, 77, 114
1, 260032, Note_off_c, 0, 77, 114
1, 260165, Note_on_c, 0, 72, 111
1, 260443, Note_off_c, 0, 72, 111
1, 260557, Note_on_c, 0, 77, 115
1, 261052, Note_off_c, 0, 77, 115
1, 261319, Note_on_c, 0, 76, 111
1, 261463, Note_off_c, 0, 76, 111
1, 261464, Note_on_c, 0, 77, 117
1, 261586, Note_off_c, 0, 77, 117
1, 261586, Note_on_c, 0, 76, 113
1, 261802, Note_off_c, 0, 76, 113
1, 261802, Note_on_c, 0, 75, 111
1, 262080, Note_off_c, 0, 75, 111
1, 262172, Note_on_c, 0, 72, 113
1, 262553, Note_off_c, 0, 72, 113
1, 262667, Note_on_c, 0, 70, 104
1, 262986, Note_off_c, 0, 70, 104
1, 263099, Note_on_c, 0, 69, 111
1, 263480, Note_off_c, 0, 69, 111
1, 263580, Note_on_c, 0, 67, 108
1, 263899, Note_off_c, 0, 67, 108
1, 263950, Note_on_c, 0, 65, 109
1, 264290, Note_off_c, 0, 65, 109
1, 264322, Note_on_c, 0, 64, 112
1, 264662, Note_off_c, 0, 64, 112
1, 264703, Note_on_c, 0, 63, 99
1, 265105, Note_off_c, 0, 63, 99
1, 265301, Note_on_c, 0, 70, 103
1, 265538, Note_off_c, 0, 70, 103
1, 265702, Note_on_c, 0, 74, 111
1, 266300, Note_off_c, 0, 74, 111
1, 266300, Note_on_c, 0, 72, 113
1, 266733, Note_off_c, 0, 72, 113
1, 266827, Note_on_c, 0, 65, 104
1, 267462, Note_off_c, 0, 65, 104
1, 268807, Note_on_c, 0, 70, 106
1, 268929, Note_off_c, 0, 70, 106
1, 268929, Note_on_c, 0, 71, 101
1, 269414, Note_off_c, 0, 71, 101
1, 269435, Note_on_c, 0, 67, 104
1, 269703, Note_off_c, 0, 67, 104
1, 269703, Note_on_c, 0, 66, 110
1, 269961, Note_off_c, 0, 66, 110
1, 270025, Note_on_c, 0, 62, 108
1, 270154, Note_off_c, 0, 62, 108
1, 270154, Note_on_c, 0, 66, 98
1, 270329, Note_off_c, 0, 66, 98
1, 270372, Note_on_c, 0, 67, 109
1, 270568, Note_off_c, 0, 67, 109
1, 270585, Note_on_c, 0, 69, 109
1, 270739, Note_off_c, 0, 69, 109
1, 270809, Note_on_c, 0, 66, 106
1, 270943, Note_off_c, 0, 66, 106
1, 270943, Note_on_c, 0, 67, 105
1, 271200, Note_off_c, 0, 67, 105
1, 271200, Note_on_c, 0, 69, 109
1, 271416, Note_off_c, 0, 69, 109
1, 271457, Note_on_c, 0, 70, 104
1, 271591, Note_off_c, 0, 70, 104
1, 271591, Note_on_c, 0, 71, 106
1, 271642, Note_off_c, 0, 71, 106
1, 271681, Note_on_c, 0, 72, 105
1, 271740, Note_off_c, 0, 72, 105
1, 271747, Note_on_c, 0, 74, 111
1, 271865, Note_off_c, 0, 74, 111
1, 272040, Note_on_c, 0, 70, 105
1, 272256, Note_off_c, 0, 70, 105
1, 272266, Note_on_c, 0, 69, 104
1, 272420, Note_off_c, 0, 69, 104
1, 272450, Note_on_c, 0, 67, 104
1, 272635, Note_off_c, 0, 67, 104
1, 272636, Note_on_c, 0, 66, 110
1, 272861, Note_on_c, 0, 67, 105
1, 272861, Note_off_c, 0, 66, 110
1, 273046, Note_off_c, 0, 67, 105
1, 273046, Note_on_c, 0, 72, 108
1, 273241, Note_off_c, 0, 72, 108
1, 273241, Note_on_c, 0, 70, 104
1, 273413, Note_off_c, 0, 70, 104
1, 273413, Note_on_c, 0, 65, 106
1, 273565, Note_off_c, 0, 65, 106
1, 273688, Note_on_c, 0, 67, 98
1, 273746, Note_on_c, 0, 68, 114
1, 273746, Note_off_c, 0, 67, 98
1, 273914, Note_off_c, 0, 68, 114
1, 273975, Note_on_c, 0, 69, 108
1, 274045, Note_off_c, 0, 69, 108
1, 274050, Note_on_c, 0, 67, 111
1, 274265, Note_off_c, 0, 67, 111
1, 274392, Note_on_c, 0, 71, 112
1, 274588, Note_off_c, 0, 71, 112
1, 274659, Note_on_c, 0, 67, 105
1, 274855, Note_off_c, 0, 67, 105
1, 274856, Note_on_c, 0, 66, 109
1, 275258, Note_off_c, 0, 66, 109
1, 275287, Note_on_c, 0, 69, 109
1, 275493, Note_off_c, 0, 69, 109
1, 275514, Note_on_c, 0, 65, 109
1, 275689, Note_off_c, 0, 65, 109
1, 275689, Note_on_c, 0, 64, 113
1, 275916, Note_off_c, 0, 64, 113
1, 275916, Note_on_c, 0, 63, 109
1, 276112, Note_off_c, 0, 63, 109
1, 276122, Note_on_c, 0, 67, 107
1, 276349, Note_off_c, 0, 67, 107
1, 276358, Note_on_c, 0, 63, 108
1, 276523, Note_off_c, 0, 63, 108
1, 276564, Note_on_c, 0, 62, 104
1, 276749, Note_off_c, 0, 62, 104
1, 276769, Note_on_c, 0, 61, 113
1, 276944, Note_off_c, 0, 61, 113
1, 276965, Note_on_c, 0, 65, 112
1, 277202, Note_off_c, 0, 65, 112
1, 277235, Note_on_c, 0, 61, 111
1, 277432, Note_off_c, 0, 61, 111
1, 277432, Note_on_c, 0, 60, 113
1, 277615, Note_off_c, 0, 60, 113
1, 277622, Note_on_c, 0, 59, 106
1, 277776, Note_off_c, 0, 59, 106
1, 277816, Note_on_c, 0, 63, 108
1, 278012, Note_off_c, 0, 63, 108
1, 278040, Note_on_c, 0, 59, 102
1, 278168, Note_off_c, 0, 59, 102
1, 278228, Note_on_c, 0, 58, 106
1, 278372, Note_off_c, 0, 58, 106
1, 278384, Note_on_c, 0, 57, 111
1, 278552, Note_off_c, 0, 57, 111
1, 278617, Note_on_c, 0, 61, 115
1, 278705, Note_off_c, 0, 61, 115
1, 278762, Note_on_c, 0, 56, 97
1, 278999, Note_off_c, 0, 56, 97
1, 279032, Note_on_c, 0, 55, 105
1, 279325, Note_off_c, 0, 55, 105
1, 279449, Note_on_c, 0, 59, 105
1, 279562, Note_off_c, 0, 59, 105
1, 279610, Note_on_c, 0, 55, 103
1, 279769, Note_off_c, 0, 55, 103
1, 279783, Note_on_c, 0, 54, 104
1, 279949, Note_off_c, 0, 54, 104
1, 279982, Note_on_c, 0, 53, 104
1, 280219, Note_off_c, 0, 53, 104
1, 280250, Note_on_c, 0, 57, 107
1, 280446, Note_off_c, 0, 57, 107
1, 280452, Note_on_c, 0, 53, 109
1, 280633, Note_off_c, 0, 53, 109
1, 280658, Note_on_c, 0, 52, 111
1, 280766, Note_off_c, 0, 52, 111
1, 280776, Note_on_c, 0, 51, 109
1, 281084, Note_off_c, 0, 51, 109
1, 282049, Note_on_c, 0, 51, 110
1, 282241, Note_off_c, 0, 51, 110
1, 282244, Note_on_c, 0, 50, 105
1, 282458, Note_off_c, 0, 50, 105
1, 282534, Note_on_c, 0, 49, 112
1, 282704, Note_off_c, 0, 49, 112
1, 282714, Note_on_c, 0, 53, 110
1, 282902, Note_off_c, 0, 53, 110
1, 282902, Note_on_c, 0, 49, 116
1, 283141, Note_off_c, 0, 49, 116
1, 283206, Note_on_c, 0, 48, 112
1, 283336, Note_off_c, 0, 48, 112
1, 283343, Note_on_c, 0, 47, 107
1, 283437, Note_off_c, 0, 47, 107
1, 283509, Note_on_c, 0, 47, 108
1, 283661, Note_off_c, 0, 47, 108
1, 283661, Note_on_c, 0, 51, 123
1, 283846, Note_off_c, 0, 51, 123
1, 283892, Note_on_c, 0, 47, 117
1, 284060, Note_off_c, 0, 47, 117
1, 284060, Note_on_c, 0, 46, 116
1, 284281, Note_off_c, 0, 46, 116
1, 284311, Note_on_c, 0, 45, 117
1, 284708, Note_off_c, 0, 45, 117
1, 284829, Note_on_c, 0, 50, 109
1, 285117, Note_off_c, 0, 50, 109
1, 285117, Note_on_c, 0, 53, 106
1, 285375, Note_off_c, 0, 53, 106
1, 285447, Note_on_c, 0, 57, 101
1, 285612, Note_off_c, 0, 57, 101
1, 285700, Note_on_c, 0, 62, 100
1, 285924, Note_off_c, 0, 62, 100
1, 285971, Note_on_c, 0, 65, 114
1, 286198, Note_off_c, 0, 65, 114
1, 286250, Note_on_c, 0, 69, 105
1, 286477, Note_off_c, 0, 69, 105
1, 286522, Note_on_c, 0, 75, 107
1, 286721, Note_off_c, 0, 75, 107
1, 286786, Note_on_c, 0, 77, 107
1, 287613, Note_off_c, 0, 77, 107
1, 288063, Note_on_c, 0, 77, 105
1, 288279, Note_off_c, 0, 77, 105
1, 288279, Note_on_c, 0, 76, 104
1, 288464, Note_off_c, 0, 76, 104
1, 288464, Note_on_c, 0, 74, 105
1, 288701, Note_off_c, 0, 74, 105
1, 288865, Note_on_c, 0, 72, 114
1, 289195, Note_off_c, 0, 72, 114
1, 289350, Note_on_c, 0, 70, 108
1, 289628, Note_off_c, 0, 70, 108
1, 289669, Note_on_c, 0, 69, 109
1, 290123, Note_off_c, 0, 69, 109
1, 290147, Note_on_c, 0, 65, 106
1, 290397, Note_off_c, 0, 65, 106
1, 290503, Note_on_c, 0, 67, 107
1, 290802, Note_off_c, 0, 67, 107
1, 291875, Note_on_c, 0, 62, 117
1, 292225, Note_off_c, 0, 62, 117
1, 292225, Note_on_c, 0, 74, 110
1, 292596, Note_off_c, 0, 74, 110
1, 292596, Note_on_c, 0, 74, 114
1, 292977, Note_off_c, 0, 74, 114
1, 292998, Note_on_c, 0, 72, 108
1, 293331, Note_off_c, 0, 72, 108
1, 293596, Note_on_c, 0, 65, 113
1, 294122, Note_off_c, 0, 65, 113
1, 294760, Note_on_c, 0, 74, 112
1, 295296, Note_off_c, 0, 74, 112
1, 295296, Note_on_c, 0, 66, 112
1, 295946, Note_off_c, 0, 66, 112
1, 296462, Note_on_c, 0, 74, 114
1, 296967, Note_off_c, 0, 74, 114
1, 297071, Note_on_c, 0, 67, 106
1, 297628, Note_off_c, 0, 67, 106
1, 298082, Note_on_c, 0, 72, 109
1, 298143, Note_off_c, 0, 72, 109
1, 298152, Note_on_c, 0, 74, 110
1, 298585, Note_off_c, 0, 74, 110
1, 298585, Note_on_c, 0, 72, 101
1, 298884, Note_off_c, 0, 72, 101
1, 298973, Note_on_c, 0, 79, 99
1, 299540, Note_off_c, 0, 79, 99
1, 299812, Note_on_c, 0, 76, 99
1, 300338, Note_off_c, 0, 76, 99
1, 300417, Note_on_c, 0, 72, 104
1, 301213, Note_off_c, 0, 72, 104
1, 301988, Note_on_c, 0, 69, 104
1, 302101, Note_off_c, 0, 69, 104
1, 302120, Note_on_c, 0, 70, 96
1, 302285, Note_off_c, 0, 70, 96
1, 302306, Note_on_c, 0, 71, 102
1, 302490, Note_off_c, 0, 71, 102
1, 302490, Note_on_c, 0, 72, 103
1, 302902, Note_off_c, 0, 72, 103
1, 303067, Note_on_c, 0, 69, 108
1, 303221, Note_off_c, 0, 69, 108
1, 303345, Note_on_c, 0, 70, 112
1, 303654, Note_off_c, 0, 70, 112
1, 303746, Note_on_c, 0, 70, 106
1, 304045, Note_off_c, 0, 70, 106
1, 304046, Note_on_c, 0, 69, 110
1, 304427, Note_off_c, 0, 69, 110
1, 304601, Note_on_c, 0, 67, 111
1, 305416, Note_off_c, 0, 67, 111
1, 305509, Note_on_c, 0, 65, 107
1, 305963, Note_off_c, 0, 65, 107
1, 306332, Note_on_c, 0, 62, 112
1, 306631, Note_off_c, 0, 62, 112
1, 306661, Note_on_c, 0, 61, 110
1, 307114, Note_off_c, 0, 61, 110
1, 307114, Note_on_c, 0, 64, 105
1, 307413, Note_off_c, 0, 64, 105
1, 307505, Note_on_c, 0, 67, 107
1, 307886, Note_off_c, 0, 67, 107
1, 308032, Note_on_c, 0, 69, 115
1, 308382, Note_off_c, 0, 69, 115
1, 308423, Note_on_c, 0, 68, 102
1, 308760, Note_off_c, 0, 68, 102
1, 308789, Note_on_c, 0, 67, 108
1, 309405, Note_off_c, 0, 67, 108
1, 309709, Note_on_c, 0, 64, 118
1, 310049, Note_off_c, 0, 64, 118
1, 310078, Note_on_c, 0, 61, 114
1, 310480, Note_off_c, 0, 61, 114
1, 310534, Note_on_c, 0, 57, 105
1, 310737, Note_off_c, 0, 57, 105
1, 310813, Note_on_c, 0, 62, 108
1, 311040, Note_off_c, 0, 62, 108
1, 311056, Note_on_c, 0, 65, 111
1, 311208, Note_off_c, 0, 65, 111
1, 311251, Note_on_c, 0, 64, 119
1, 311388, Note_off_c, 0, 64, 119
1, 311460, Note_on_c, 0, 62, 101
1, 311570, Note_off_c, 0, 62, 101
1, 311635, Note_on_c, 0, 67, 105
1, 311841, Note_off_c, 0, 67, 105
1, 311892, Note_on_c, 0, 67, 102
1, 312026, Note_off_c, 0, 67, 102
1, 312510, Note_on_c, 0, 60, 108
1, 312737, Note_off_c, 0, 60, 108
1, 312748, Note_on_c, 0, 63, 112
1, 312871, Note_off_c, 0, 63, 112
1, 312871, Note_on_c, 0, 62, 111
1, 313118, Note_off_c, 0, 62, 111
1, 313353, Note_on_c, 0, 65, 111
1, 313549, Note_off_c, 0, 65, 111
1, 313580, Note_on_c, 0, 61, 114
1, 313765, Note_off_c, 0, 61, 114
1, 313765, Note_on_c, 0, 62, 109
1, 313939, Note_off_c, 0, 62, 109
1, 313939, Note_on_c, 0, 63, 110
1, 314196, Note_off_c, 0, 63, 110
1, 314196, Note_on_c, 0, 62, 108
1, 314381, Note_off_c, 0, 62, 108
1, 314418, Note_on_c, 0, 58, 101
1, 314541, Note_off_c, 0, 58, 101
1, 314589, Note_on_c, 0, 53, 102
1, 314784, Note_off_c, 0, 53, 102
1, 314798, Note_on_c, 0, 52, 102
1, 314946, Note_off_c, 0, 52, 102
1, 314984, Note_on_c, 0, 50, 108
1, 315216, Note_off_c, 0, 50, 108
1, 315355, Note_on_c, 0, 53, 99
1, 315498, Note_off_c, 0, 53, 99
1, 315498, Note_on_c, 0, 57, 105
1, 315642, Note_off_c, 0, 57, 105
1, 315642, Note_on_c, 0, 56, 99
1, 315683, Note_off_c, 0, 56, 99
1, 315734, Note_on_c, 0, 60, 112
1, 315899, Note_off_c, 0, 60, 112
1, 315929, Note_on_c, 0, 58, 107
1, 316114, Note_off_c, 0, 58, 107
1, 316152, Note_on_c, 0, 61, 111
1, 316262, Note_off_c, 0, 61, 111
1, 316267, Note_on_c, 0, 62, 104
1, 316410, Note_off_c, 0, 62, 104
1, 316460, Note_on_c, 0, 63, 106
1, 316535, Note_off_c, 0, 63, 106
1, 316535, Note_on_c, 0, 65, 104
1, 316679, Note_off_c, 0, 65, 104
1, 316679, Note_on_c, 0, 70, 110
1, 316957, Note_off_c, 0, 70, 110
1, 317865, Note_on_c, 0, 69, 113
1, 318381, Note_off_c, 0, 69, 113
1, 318598, Note_on_c, 0, 77, 88
1, 318837, Note_off_c, 0, 77, 88
1, 319008, Note_on_c, 0, 73, 111
1, 319224, Note_off_c, 0, 73, 111
1, 319286, Note_on_c, 0, 76, 10
1, 319564, Note_off_c, 0, 76, 10
1, 319605, Note_on_c, 0, 73, 108
1, 319737, Note_off_c, 0, 73, 108
1, 319780, Note_on_c, 0, 69, 108
1, 319955, Note_off_c, 0, 69, 108
1, 319990, Note_on_c, 0, 65, 113
1, 320060, Note_off_c, 0, 65, 113
1, 320128, Note_on_c, 0, 64, 118
1, 320447, Note_off_c, 0, 64, 118
1, 320447, Note_on_c, 0, 62, 112
1, 320705, Note_off_c, 0, 62, 112
1, 321778, Note_on_c, 0, 73, 115
1, 322757, Note_off_c, 0, 73, 115
1, 322757, Note_on_c, 0, 72, 115
1, 322911, Note_off_c, 0, 72, 115
1, 322922, Note_on_c, 0, 69, 109
1, 323118, Note_off_c, 0, 69, 109
1, 323130, Note_on_c, 0, 71, 119
1, 323233, Note_on_c, 0, 73, 117
1, 323233, Note_off_c, 0, 71, 119
1, 323506, Note_off_c, 0, 73, 117
1, 323600, Note_on_c, 0, 69, 108
1, 323723, Note_off_c, 0, 69, 108
1, 323733, Note_on_c, 0, 65, 113
1, 323918, Note_off_c, 0, 65, 113
1, 323941, Note_on_c, 0, 62, 119
1, 324169, Note_off_c, 0, 62, 119
1, 324488, Note_on_c, 0, 65, 115
1, 324591, Note_off_c, 0, 65, 115
1, 324629, Note_on_c, 0, 68, 116
1, 324804, Note_off_c, 0, 68, 116
1, 324824, Note_on_c, 0, 70, 115
1, 325030, Note_off_c, 0, 70, 115
1, 325070, Note_on_c, 0, 65, 117
1, 325214, Note_off_c, 0, 65, 117
1, 325241, Note_on_c, 0, 63, 115
1, 325371, Note_off_c, 0, 63, 115
1, 325388, Note_on_c, 0, 64, 110
1, 325563, Note_off_c, 0, 64, 110
1, 325563, Note_on_c, 0, 66, 118
1, 325738, Note_off_c, 0, 66, 118
1, 325759, Note_on_c, 0, 62, 117
1, 325993, Note_off_c, 0, 62, 117
1, 326014, Note_on_c, 0, 58, 113
1, 326106, Note_off_c, 0, 58, 113
1, 326160, Note_on_c, 0, 60, 122
1, 326335, Note_off_c, 0, 60, 122
1, 326344, Note_on_c, 0, 62, 114
1, 326467, Note_off_c, 0, 62, 114
1, 326526, Note_on_c, 0, 57, 118
1, 326605, Note_off_c, 0, 57, 118
1, 326615, Note_on_c, 0, 56, 110
1, 326676, Note_off_c, 0, 56, 110
1, 326734, Note_on_c, 0, 54, 116
1, 326868, Note_off_c, 0, 54, 116
1, 326913, Note_on_c, 0, 56, 110
1, 327025, Note_off_c, 0, 56, 110
1, 327155, Note_on_c, 0, 58, 119
1, 327340, Note_off_c, 0, 58, 119
1, 327390, Note_on_c, 0, 56, 119
1, 327586, Note_off_c, 0, 56, 119
1, 327587, Note_on_c, 0, 57, 110
1, 328030, Note_off_c, 0, 57, 110
1, 328080, Note_on_c, 0, 58, 112
1, 328430, Note_off_c, 0, 58, 112
1, 328431, Note_on_c, 0, 60, 114
1, 328812, Note_off_c, 0, 60, 114
1, 328935, Note_on_c, 0, 69, 108
1, 329698, Note_off_c, 0, 69, 108
1, 329769, Note_on_c, 0, 70, 110
1, 330068, Note_off_c, 0, 70, 110
1, 330069, Note_on_c, 0, 72, 115
1, 330481, Note_off_c, 0, 72, 115
1, 330578, Note_on_c, 0, 57, 107
1, 331300, Note_off_c, 0, 57, 107
1, 331440, Note_on_c, 0, 58, 107
1, 331780, Note_off_c, 0, 58, 107
1, 331819, Note_on_c, 0, 60, 112
1, 331984, Note_off_c, 0, 60, 112
1, 332749, Note_on_c, 0, 45, 127
1, 333068, Note_off_c, 0, 45, 127
1, 333450, Note_on_c, 0, 57, 109
1, 333862, Note_off_c, 0, 57, 109
1, 333975, Note_on_c, 0, 62, 114
1, 334273, Note_off_c, 0, 62, 114
1, 334273, Note_on_c, 0, 62, 108
1, 334345, Note_off_c, 0, 62, 108
1, 334500, Note_on_c, 0, 69, 119
1, 334850, Note_off_c, 0, 69, 119
1, 335004, Note_on_c, 0, 74, 112
1, 335602, Note_off_c, 0, 74, 112
1, 336779, Note_on_c, 0, 69, 114
1, 337006, Note_off_c, 0, 69, 114
1, 337020, Note_on_c, 0, 74, 111
1, 337228, Note_off_c, 0, 74, 111
1, 337333, Note_on_c, 0, 77, 103
1, 337588, Note_off_c, 0, 77, 103
1, 337671, Note_on_c, 0, 79, 110
1, 338304, Note_off_c, 0, 79, 110
1, 338581, Note_on_c, 0, 77, 109
1, 339179, Note_off_c, 0, 77, 109
1, 339366, Note_on_c, 0, 73, 107
1, 339591, Note_on_c, 0, 76, 119
1, 339591, Note_off_c, 0, 73, 107
1, 340138, Note_off_c, 0, 76, 119
1, 340179, Note_on_c, 0, 74, 117
1, 340818, Note_off_c, 0, 74, 117
1, 341035, Note_on_c, 0, 67, 116
1, 341520, Note_off_c, 0, 67, 116
1, 341561, Note_on_c, 0, 69, 117
1, 341860, Note_off_c, 0, 69, 117
1, 341994, Note_on_c, 0, 70, 109
1, 342386, Note_off_c, 0, 70, 109
1, 342530, Note_on_c, 0, 60, 118
1, 343118, Note_off_c, 0, 60, 118
1, 343251, Note_on_c, 0, 72, 118
1, 343911, Note_off_c, 0, 72, 118
1, 343972, Note_on_c, 0, 72, 119
1, 344364, Note_off_c, 0, 72, 119
1, 345273, Note_on_c, 0, 69, 117
1, 345509, Note_on_c, 0, 70, 113
1, 345509, Note_off_c, 0, 69, 117
1, 345725, Note_off_c, 0, 70, 113
1, 345808, Note_on_c, 0, 72, 118
1, 346066, Note_off_c, 0, 72, 118
1, 346199, Note_on_c, 0, 65, 112
1, 346776, Note_off_c, 0, 65, 112
1, 347075, Note_on_c, 0, 77, 109
1, 347577, Note_off_c, 0, 77, 109
1, 347837, Note_on_c, 0, 70, 117
1, 348280, Note_off_c, 0, 70, 117
1, 348280, Note_on_c, 0, 72, 115
1, 348599, Note_off_c, 0, 72, 115
1, 348712, Note_on_c, 0, 74, 114
1, 349197, Note_off_c, 0, 74, 114
1, 349227, Note_on_c, 0, 70, 114
1, 349588, Note_off_c, 0, 70, 114
1, 350867, Note_on_c, 0, 68, 111
1, 351032, Note_off_c, 0, 68, 111
1, 351073, Note_on_c, 0, 72, 116
1, 351238, Note_off_c, 0, 72, 116
1, 351238, Note_on_c, 0, 70, 115
1, 351681, Note_off_c, 0, 70, 115
1, 351742, Note_on_c, 0, 69, 114
1, 352072, Note_off_c, 0, 69, 114
1, 352207, Note_on_c, 0, 67, 113
1, 352340, Note_off_c, 0, 67, 113
1, 352340, Note_on_c, 0, 68, 116
1, 352990, Note_off_c, 0, 68, 116
1, 353031, Note_on_c, 0, 65, 117
1, 353392, Note_off_c, 0, 65, 117
1, 353451, Note_on_c, 0, 61, 114
1, 353717, Note_off_c, 0, 61, 114
1, 353824, Note_on_c, 0, 60, 117
1, 354288, Note_off_c, 0, 60, 117
1, 354288, Note_on_c, 0, 58, 109
1, 354556, Note_off_c, 0, 58, 109
1, 354577, Note_on_c, 0, 60, 116
1, 354845, Note_off_c, 0, 60, 116
1, 354845, Note_on_c, 0, 65, 108
1, 355051, Note_off_c, 0, 65, 108
1, 355131, Note_on_c, 0, 69, 112
1, 355326, Note_off_c, 0, 69, 112
1, 355329, Note_on_c, 0, 73, 111
1, 355426, Note_off_c, 0, 73, 111
1, 355594, Note_on_c, 0, 77, 102
1, 356277, Note_off_c, 0, 77, 102
1, 356386, Note_on_c, 0, 72, 120
1, 356644, Note_off_c, 0, 72, 120
1, 356800, Note_on_c, 0, 72, 119
1, 357068, Note_off_c, 0, 72, 119
1, 357190, Note_on_c, 0, 69, 114
1, 357633, Note_off_c, 0, 69, 114
1, 358193, Note_on_c, 0, 68, 95
1, 358290, Note_off_c, 0, 68, 95
1, 358315, Note_on_c, 0, 69, 98
1, 358412, Note_off_c, 0, 69, 98
1, 358422, Note_on_c, 0, 70, 104
1, 358505, Note_off_c, 0, 70, 104
1, 358548, Note_on_c, 0, 72, 84
1, 358627, Note_off_c, 0, 72, 84
1, 358804, Note_on_c, 0, 77, 90
1, 358981, Note_off_c, 0, 77, 90
1, 359205, Note_on_c, 0, 77, 120
1, 359359, Note_off_c, 0, 77, 120
1, 359668, Note_on_c, 0, 72, 120
1, 359843, Note_off_c, 0, 72, 120
1, 360112, Note_on_c, 0, 72, 115
1, 360297, Note_off_c, 0, 72, 115
1, 360482, Note_on_c, 0, 67, 117
1, 360585, Note_off_c, 0, 67, 117
1, 360585, Note_on_c, 0, 69, 116
1, 360966, Note_off_c, 0, 69, 116
1, 360966, Note_on_c, 0, 69, 118
1, 361244, Note_off_c, 0, 69, 118
1, 361336, Note_on_c, 0, 65, 119
1, 361759, Note_off_c, 0, 65, 119
1, 362119, Note_on_c, 0, 69, 97
1, 362521, Note_off_c, 0, 69, 97
1, 362685, Note_on_c, 0, 72, 111
1, 362975, Note_off_c, 0, 72, 111
1, 363087, Note_on_c, 0, 70, 114
1, 363468, Note_off_c, 0, 70, 114
1, 363777, Note_on_c, 0, 71, 114
1, 363916, Note_off_c, 0, 71, 114
1, 363916, Note_on_c, 0, 75, 110
1, 364228, Note_off_c, 0, 75, 110
1, 364260, Note_on_c, 0, 77, 111
1, 364604, Note_off_c, 0, 77, 111
1, 364766, Note_on_c, 0, 77, 111
1, 365137, Note_off_c, 0, 77, 111
1, 365497, Note_on_c, 0, 72, 118
1, 365744, Note_off_c, 0, 72, 118
1, 365751, Note_on_c, 0, 72, 113
1, 365965, Note_off_c, 0, 72, 113
1, 366044, Note_on_c, 0, 72, 114
1, 366307, Note_off_c, 0, 72, 114
1, 366308, Note_on_c, 0, 71, 112
1, 366627, Note_off_c, 0, 71, 112
1, 366689, Note_on_c, 0, 64, 103
1, 366832, Note_off_c, 0, 64, 103
1, 366967, Note_on_c, 0, 71, 112
1, 367152, Note_off_c, 0, 71, 112
1, 367169, Note_on_c, 0, 70, 110
1, 367539, Note_off_c, 0, 70, 110
1, 367638, Note_on_c, 0, 70, 105
1, 367916, Note_off_c, 0, 70, 105
1, 367965, Note_on_c, 0, 69, 103
1, 368677, Note_off_c, 0, 69, 103
1, 368677, End_track
0, 0, End_of_file
