0, 0, Header, 1, 1, 192
1, 0, Start_track
1, 0, Title_t, "Melody"
1, 0, Tempo, 222222
1, 0, Key_signature, -4, "major"
1, 0, Time_signature, 4, 2, 24, 8
1, 2944, Note_on_c, 0, 67, 102
1, 3062, Note_off_c, 0, 67, 102
1, 3190, Note_on_c, 0, 67, 100
1, 3506, Note_off_c, 0, 67, 100
1, 3559, Note_on_c, 0, 67, 97
1, 3777, Note_off_c, 0, 67, 97
1, 3812, Note_on_c, 0, 67, 96
1, 4041, Note_off_c, 0, 67, 96
1, 4058, Note_on_c, 0, 67, 97
1, 4343, Note_off_c, 0, 67, 97
1, 4343, Note_on_c, 0, 65, 98
1, 4427, Note_off_c, 0, 65, 98
1, 4430, Note_on_c, 0, 63, 102
1, 4526, Note_off_c, 0, 63, 102
1, 4545, Note_on_c, 0, 60, 99
1, 4746, Note_off_c, 0, 60, 99
1, 4746, Note_on_c, 0, 63, 105
1, 4862, Note_off_c, 0, 63, 105
1, 4871, Note_on_c, 0, 61, 97
1, 4911, Note_off_c, 0, 61, 97
1, 4911, Note_on_c, 0, 62, 103
1, 5422, Note_off_c, 0, 62, 103
1, 5517, Note_on_c, 0, 60, 100
1, 5619, Note_off_c, 0, 60, 100
1, 5626, Note_on_c, 0, 58, 97
1, 5728, Note_off_c, 0, 58, 97
1, 5728, Note_on_c, 0, 55, 94
1, 5911, Note_off_c, 0, 55, 94
1, 5911, Note_on_c, 0, 58, 90
1, 5999, Note_off_c, 0, 58, 90
1, 6026, Note_on_c, 0, 55, 93
1, 6253, Note_off_c, 0, 55, 93
1, 6310, Note_on_c, 0, 53, 93
1, 6400, Note_off_c, 0, 53, 93
1, 6411, Note_on_c, 0, 50, 88
1, 6527, Note_off_c, 0, 50, 88
1, 6527, Note_on_c, 0, 53, 97
1, 6648, Note_off_c, 0, 53, 97
1, 6692, Note_on_c, 0, 55, 88
1, 6780, Note_off_c, 0, 55, 88
1, 6807, Note_on_c, 0, 58, 88
1, 7096, Note_off_c, 0, 58, 88
1, 8484, Note_on_c, 0, 51, 97
1, 8543, Note_off_c, 0, 51, 97
1, 8574, Note_on_c, 0, 53, 98
1, 8671, Note_off_c, 0, 53, 98
1, 8682, Note_on_c, 0, 56, 94
1, 8751, Note_off_c, 0, 56, 94
1, 8770, Note_on_c, 0, 59, 89
1, 8869, Note_off_c, 0, 59, 89
1, 8881, Note_on_c, 0, 53, 94
1, 8990, Note_off_c, 0, 53, 94
1, 8995, Note_on_c, 0, 56, 91
1, 9071, Note_off_c, 0, 56, 91
1, 9071, Note_on_c, 0, 59, 90
1, 9153, Note_off_c, 0, 59, 90
1, 9173, Note_on_c, 0, 63, 102
1, 9264, Note_on_c, 0, 59, 91
1, 9264, Note_off_c, 0, 63, 102
1, 9361, Note_off_c, 0, 59, 91
1, 9361, Note_on_c, 0, 63, 102
1, 9436, Note_off_c, 0, 63, 102
1, 9436, Note_on_c, 0, 65, 100
1, 9531, Note_off_c, 0, 65, 100
1, 9561, Note_on_c, 0, 68, 102
1, 9643, Note_off_c, 0, 68, 102
1, 9648, Note_on_c, 0, 63, 109
1, 9733, Note_off_c, 0, 63, 109
1, 9733, Note_on_c, 0, 65, 101
1, 9832, Note_off_c, 0, 65, 101
1, 9838, Note_on_c, 0, 68, 98
1, 9945, Note_off_c, 0, 68, 98
1, 9945, Note_on_c, 0, 71, 102
1, 10027, Note_off_c, 0, 71, 102
1, 10027, Note_on_c, 0, 75, 93
1, 10266, Note_off_c, 0, 75, 93
1, 10302, Note_on_c, 0, 73, 96
1, 10358, Note_off_c, 0, 73, 96
1, 10358, Note_on_c, 0, 71, 102
1, 10412, Note_off_c, 0, 71, 102
1, 10417, Note_on_c, 0, 70, 99
1, 10611, Note_off_c, 0, 70, 99
1, 10622, Note_on_c, 0, 68, 101
1, 10802, Note_off_c, 0, 68, 101
1, 10804, Note_on_c, 0, 63, 105
1, 11003, Note_off_c, 0, 63, 105
1, 11003, Note_on_c, 0, 65, 98
1, 11183, Note_off_c, 0, 65, 98
1, 11183, Note_on_c, 0, 67, 103
1, 11265, Note_off_c, 0, 67, 103
1, 11275, Note_on_c, 0, 70, 101
1, 11421, Note_off_c, 0, 70, 101
1, 11438, Note_on_c, 0, 70, 97
1, 11492, Note_off_c, 0, 70, 97
1, 11501, Note_on_c, 0, 72, 95
1, 11582, Note_off_c, 0, 72, 95
1, 11595, Note_on_c, 0, 67, 75
1, 11808, Note_off_c, 0, 67, 75
1, 11850, Note_on_c, 0, 63, 102
1, 12242, Note_off_c, 0, 63, 102
1, 12245, Note_on_c, 0, 58, 86
1, 12338, Note_off_c, 0, 58, 86
1, 12352, Note_on_c, 0, 65, 101
1, 12444, Note_off_c, 0, 65, 101
1, 12444, Note_on_c, 0, 61, 100
1, 12524, Note_on_c, 0, 58, 89
1, 12524, Note_off_c, 0, 61, 100
1, 12611, Note_off_c, 0, 58, 89
1, 12620, Note_on_c, 0, 53, 80
1, 12702, Note_off_c, 0, 53, 80
1, 12702, Note_on_c, 0, 56, 96
1, 12784, Note_off_c, 0, 56, 96
1, 12799, Note_on_c, 0, 54, 88
1, 12879, Note_off_c, 0, 54, 88
1, 12882, Note_on_c, 0, 55, 89
1, 12987, Note_off_c, 0, 55, 89
1, 12990, Note_on_c, 0, 63, 103
1, 13251, Note_off_c, 0, 63, 103
1, 13836, Note_on_c, 0, 75, 103
1, 13961, Note_off_c, 0, 75, 103
1, 13961, Note_on_c, 0, 76, 107
1, 14056, Note_off_c, 0, 76, 107
1, 14056, Note_on_c, 0, 77, 106
1, 14158, Note_on_c, 0, 76, 109
1, 14158, Note_off_c, 0, 77, 106
1, 14256, Note_off_c, 0, 76, 109
1, 14262, Note_on_c, 0, 75, 100
1, 14344, Note_off_c, 0, 75, 100
1, 14344, Note_on_c, 0, 70, 98
1, 14414, Note_off_c, 0, 70, 98
1, 14424, Note_on_c, 0, 67, 99
1, 14514, Note_off_c, 0, 67, 99
1, 14525, Note_on_c, 0, 63, 93
1, 14616, Note_off_c, 0, 63, 93
1, 14616, Note_on_c, 0, 68, 101
1, 14705, Note_off_c, 0, 68, 101
1, 14714, Note_on_c, 0, 70, 99
1, 14817, Note_off_c, 0, 70, 99
1, 14818, Note_on_c, 0, 66, 97
1, 14917, Note_off_c, 0, 66, 97
1, 14917, Note_on_c, 0, 67, 99
1, 15024, Note_off_c, 0, 67, 99
1, 15024, Note_on_c, 0, 63, 107
1, 15115, Note_off_c, 0, 63, 107
1, 15204, Note_on_c, 0, 65, 94
1, 15703, Note_off_c, 0, 65, 94
1, 15785, Note_on_c, 0, 65, 97
1, 16114, Note_off_c, 0, 65, 97
1, 16185, Note_on_c, 0, 65, 97
1, 16314, Note_off_c, 0, 65, 97
1, 16314, Note_on_c, 0, 70, 97
1, 16401, Note_off_c, 0, 70, 97
1, 16402, Note_on_c, 0, 67, 96
1, 16491, Note_off_c, 0, 67, 96
1, 16491, Note_on_c, 0, 65, 100
1, 16568, Note_off_c, 0, 65, 100
1, 16568, Note_on_c, 0, 63, 106
1, 16666, Note_off_c, 0, 63, 106
1, 16676, Note_on_c, 0, 65, 98
1, 16761, Note_off_c, 0, 65, 98
1, 16761, Note_on_c, 0, 67, 97
1, 16867, Note_off_c, 0, 67, 97
1, 16867, Note_on_c, 0, 63, 95
1, 16962, Note_on_c, 0, 65, 97
1, 16962, Note_off_c, 0, 63, 95
1, 17046, Note_off_c, 0, 65, 97
1, 17049, Note_on_c, 0, 64, 107
1, 17135, Note_off_c, 0, 64, 107
1, 17135, Note_on_c, 0, 63, 102
1, 17255, Note_off_c, 0, 63, 102
1, 17255, Note_on_c, 0, 67, 96
1, 17359, Note_off_c, 0, 67, 96
1, 17359, Note_on_c, 0, 65, 98
1, 17443, Note_off_c, 0, 65, 98
1, 17443, Note_on_c, 0, 62, 102
1, 17539, Note_on_c, 0, 58, 86
1, 17539, Note_off_c, 0, 62, 102
1, 17645, Note_off_c, 0, 58, 86
1, 17645, Note_on_c, 0, 55, 91
1, 17730, Note_off_c, 0, 55, 91
1, 17730, Note_on_c, 0, 63, 105
1, 17834, Note_off_c, 0, 63, 105
1, 17834, Note_on_c, 0, 65, 99
1, 17915, Note_off_c, 0, 65, 99
1, 17915, Note_on_c, 0, 62, 102
1, 18020, Note_off_c, 0, 62, 102
1, 18026, Note_on_c, 0, 60, 99
1, 18127, Note_off_c, 0, 60, 99
1, 18127, Note_on_c, 0, 58, 90
1, 18217, Note_off_c, 0, 58, 90
1, 18217, Note_on_c, 0, 60, 98
1, 18319, Note_off_c, 0, 60, 98
1, 18325, Note_on_c, 0, 62, 99
1, 18406, Note_off_c, 0, 62, 99
1, 18406, Note_on_c, 0, 58, 87
1, 18504, Note_off_c, 0, 58, 87
1, 18517, Note_on_c, 0, 60, 99
1, 18607, Note_off_c, 0, 60, 99
1, 18610, Note_on_c, 0, 58, 89
1, 18700, Note_off_c, 0, 58, 89
1, 18700, Note_on_c, 0, 55, 93
1, 18812, Note_off_c, 0, 55, 93
1, 18824, Note_on_c, 0, 53, 83
1, 18891, Note_off_c, 0, 53, 83
1, 18900, Note_on_c, 0, 58, 86
1, 19168, Note_off_c, 0, 58, 86
1, 20149, Note_on_c, 0, 51, 101
1, 20231, Note_off_c, 0, 51, 101
1, 20231, Note_on_c, 0, 53, 98
1, 20302, Note_off_c, 0, 53, 98
1, 20302, Note_on_c, 0, 56, 96
1, 20369, Note_off_c, 0, 56, 96
1, 20369, Note_on_c, 0, 59, 95
1, 20423, Note_off_c, 0, 59, 95
1, 20426, Note_on_c, 0, 53, 98
1, 20563, Note_off_c, 0, 53, 98
1, 20734, Note_on_c, 0, 53, 97
1, 20800, Note_on_c, 0, 56, 100
1, 20800, Note_off_c, 0, 53, 97
1, 20875, Note_off_c, 0, 56, 100
1, 20875, Note_on_c, 0, 59, 92
1, 20927, Note_off_c, 0, 59, 92
1, 20927, Note_on_c, 0, 63, 99
1, 21004, Note_off_c, 0, 63, 99
1, 21017, Note_on_c, 0, 56, 83
1, 21144, Note_off_c, 0, 56, 83
1, 21317, Note_on_c, 0, 56, 93
1, 21389, Note_off_c, 0, 56, 93
1, 21389, Note_on_c, 0, 59, 93
1, 21452, Note_off_c, 0, 59, 93
1, 21452, Note_on_c, 0, 63, 107
1, 21504, Note_off_c, 0, 63, 107
1, 21504, Note_on_c, 0, 64, 96
1, 21545, Note_off_c, 0, 64, 96
1, 21557, Note_on_c, 0, 59, 85
1, 21678, Note_off_c, 0, 59, 85
1, 21856, Note_on_c, 0, 59, 96
1, 21935, Note_off_c, 0, 59, 96
1, 21940, Note_on_c, 0, 63, 104
1, 22001, Note_off_c, 0, 63, 104
1, 22001, Note_on_c, 0, 65, 97
1, 22049, Note_off_c, 0, 65, 97
1, 22049, Note_on_c, 0, 68, 100
1, 22126, Note_off_c, 0, 68, 100
1, 22126, Note_on_c, 0, 63, 85
1, 22244, Note_off_c, 0, 63, 85
1, 22426, Note_on_c, 0, 63, 106
1, 22491, Note_off_c, 0, 63, 106
1, 22491, Note_on_c, 0, 65, 98
1, 22552, Note_on_c, 0, 68, 99
1, 22552, Note_off_c, 0, 65, 98
1, 22605, Note_off_c, 0, 68, 99
1, 22619, Note_on_c, 0, 71, 92
1, 22692, Note_off_c, 0, 71, 92
1, 22703, Note_on_c, 0, 65, 89
1, 22818, Note_off_c, 0, 65, 89
1, 23004, Note_on_c, 0, 65, 101
1, 23075, Note_off_c, 0, 65, 101
1, 23075, Note_on_c, 0, 68, 99
1, 23123, Note_off_c, 0, 68, 99
1, 23123, Note_on_c, 0, 71, 91
1, 23184, Note_off_c, 0, 71, 91
1, 23184, Note_on_c, 0, 75, 86
1, 23320, Note_off_c, 0, 75, 86
1, 23889, Note_on_c, 0, 75, 90
1, 23969, Note_off_c, 0, 75, 90
1, 23969, Note_on_c, 0, 73, 95
1, 24015, Note_off_c, 0, 73, 95
1, 24015, Note_on_c, 0, 71, 100
1, 24070, Note_off_c, 0, 71, 100
1, 24070, Note_on_c, 0, 70, 96
1, 24156, Note_off_c, 0, 70, 96
1, 24156, Note_on_c, 0, 69, 99
1, 24248, Note_off_c, 0, 69, 99
1, 24255, Note_on_c, 0, 68, 97
1, 24410, Note_off_c, 0, 68, 97
1, 24653, Note_on_c, 0, 66, 98
1, 24736, Note_off_c, 0, 66, 98
1, 24736, Note_on_c, 0, 67, 100
1, 24827, Note_off_c, 0, 67, 100
1, 24827, Note_on_c, 0, 68, 104
1, 24915, Note_off_c, 0, 68, 104
1, 24937, Note_on_c, 0, 66, 86
1, 25017, Note_off_c, 0, 66, 86
1, 25021, Note_on_c, 0, 67, 101
1, 25107, Note_off_c, 0, 67, 101
1, 25107, Note_on_c, 0, 66, 97
1, 25206, Note_off_c, 0, 66, 97
1, 25206, Note_on_c, 0, 65, 100
1, 25298, Note_off_c, 0, 65, 100
1, 25302, Note_on_c, 0, 64, 112
1, 25404, Note_off_c, 0, 64, 112
1, 25404, Note_on_c, 0, 63, 105
1, 25501, Note_off_c, 0, 63, 105
1, 25501, Note_on_c, 0, 65, 102
1, 25587, Note_off_c, 0, 65, 102
1, 25587, Note_on_c, 0, 67, 96
1, 25683, Note_off_c, 0, 67, 96
1, 25683, Note_on_c, 0, 63, 96
1, 25769, Note_on_c, 0, 65, 103
1, 25769, Note_off_c, 0, 63, 96
1, 25841, Note_off_c, 0, 65, 103
1, 25841, Note_on_c, 0, 64, 108
1, 25919, Note_off_c, 0, 64, 108
1, 25927, Note_on_c, 0, 63, 105
1, 26031, Note_off_c, 0, 63, 105
1, 26045, Note_on_c, 0, 67, 99
1, 26142, Note_off_c, 0, 67, 99
1, 26144, Note_on_c, 0, 65, 102
1, 26230, Note_off_c, 0, 65, 102
1, 26230, Note_on_c, 0, 62, 102
1, 26339, Note_off_c, 0, 62, 102
1, 26339, Note_on_c, 0, 58, 91
1, 26430, Note_off_c, 0, 58, 91
1, 26430, Note_on_c, 0, 56, 83
1, 26541, Note_off_c, 0, 56, 83
1, 26541, Note_on_c, 0, 65, 108
1, 26637, Note_off_c, 0, 65, 108
1, 26637, Note_on_c, 0, 67, 102
1, 26723, Note_off_c, 0, 67, 102
1, 26731, Note_on_c, 0, 68, 101
1, 26798, Note_off_c, 0, 68, 101
1, 26809, Note_on_c, 0, 70, 100
1, 26894, Note_off_c, 0, 70, 100
1, 26904, Note_on_c, 0, 67, 94
1, 26987, Note_off_c, 0, 67, 94
1, 27003, Note_on_c, 0, 70, 94
1, 27102, Note_off_c, 0, 70, 94
1, 27105, Note_on_c, 0, 68, 102
1, 27197, Note_off_c, 0, 68, 102
1, 27197, Note_on_c, 0, 64, 94
1, 27293, Note_off_c, 0, 64, 94
1, 27305, Note_on_c, 0, 67, 97
1, 27391, Note_off_c, 0, 67, 97
1, 27391, Note_on_c, 0, 66, 98
1, 27473, Note_off_c, 0, 66, 98
1, 27481, Note_on_c, 0, 65, 97
1, 27563, Note_on_c, 0, 64, 107
1, 27563, Note_off_c, 0, 65, 97
1, 27665, Note_off_c, 0, 64, 107
1, 27668, Note_on_c, 0, 63, 103
1, 27762, Note_off_c, 0, 63, 103
1, 27762, Note_on_c, 0, 60, 98
1, 27852, Note_off_c, 0, 60, 98
1, 27852, Note_on_c, 0, 58, 88
1, 27953, Note_off_c, 0, 58, 88
1, 27954, Note_on_c, 0, 56, 88
1, 28024, Note_off_c, 0, 56, 88
1, 28024, Note_on_c, 0, 60, 99
1, 28321, Note_off_c, 0, 60, 99
1, 28431, Note_on_c, 0, 60, 98
1, 28710, Note_off_c, 0, 60, 98
1, 28710, Note_on_c, 0, 67, 97
1, 28943, Note_off_c, 0, 67, 97
1, 28978, Note_on_c, 0, 65, 98
1, 29102, Note_off_c, 0, 65, 98
1, 29102, Note_on_c, 0, 63, 104
1, 29197, Note_off_c, 0, 63, 104
1, 29204, Note_on_c, 0, 62, 101
1, 29387, Note_off_c, 0, 62, 101
1, 29387, Note_on_c, 0, 60, 95
1, 29605, Note_off_c, 0, 60, 95
1, 30707, Note_on_c, 0, 51, 102
1, 30785, Note_off_c, 0, 51, 102
1, 30785, Note_on_c, 0, 53, 96
1, 30881, Note_off_c, 0, 53, 96
1, 30886, Note_on_c, 0, 56, 93
1, 30983, Note_off_c, 0, 56, 93
1, 31001, Note_on_c, 0, 59, 91
1, 31087, Note_on_c, 0, 55, 100
1, 31087, Note_off_c, 0, 59, 91
1, 31164, Note_off_c, 0, 55, 100
1, 31187, Note_on_c, 0, 56, 88
1, 31260, Note_off_c, 0, 56, 88
1, 31282, Note_on_c, 0, 59, 91
1, 31389, Note_off_c, 0, 59, 91
1, 31391, Note_on_c, 0, 63, 106
1, 31434, Note_off_c, 0, 63, 106
1, 31470, Note_on_c, 0, 67, 98
1, 31572, Note_off_c, 0, 67, 98
1, 31587, Note_on_c, 0, 63, 94
1, 31657, Note_off_c, 0, 63, 94
1, 31657, Note_on_c, 0, 65, 99
1, 31759, Note_off_c, 0, 65, 99
1, 31772, Note_on_c, 0, 67, 98
1, 31862, Note_off_c, 0, 67, 98
1, 31862, Note_on_c, 0, 68, 101
1, 31963, Note_off_c, 0, 68, 101
1, 31965, Note_on_c, 0, 70, 97
1, 32031, Note_off_c, 0, 70, 97
1, 32041, Note_on_c, 0, 71, 97
1, 32126, Note_off_c, 0, 71, 97
1, 32129, Note_on_c, 0, 73, 85
1, 32210, Note_off_c, 0, 73, 85
1, 32250, Note_on_c, 0, 75, 90
1, 32505, Note_off_c, 0, 75, 90
1, 32515, Note_on_c, 0, 73, 94
1, 32550, Note_on_c, 0, 71, 98
1, 32550, Note_off_c, 0, 73, 94
1, 32606, Note_off_c, 0, 71, 98
1, 32612, Note_on_c, 0, 70, 100
1, 32759, Note_off_c, 0, 70, 100
1, 32803, Note_on_c, 0, 70, 98
1, 32953, Note_off_c, 0, 70, 98
1, 32973, Note_on_c, 0, 70, 99
1, 33146, Note_off_c, 0, 70, 99
1, 33168, Note_on_c, 0, 75, 91
1, 33365, Note_off_c, 0, 75, 91
1, 33366, Note_on_c, 0, 68, 102
1, 33532, Note_off_c, 0, 68, 102
1, 33558, Note_on_c, 0, 72, 68
1, 33691, Note_off_c, 0, 72, 68
1, 33761, Note_on_c, 0, 67, 95
1, 34069, Note_off_c, 0, 67, 95
1, 34351, Note_on_c, 0, 68, 101
1, 34400, Note_off_c, 0, 68, 101
1, 34439, Note_on_c, 0, 70, 100
1, 34503, Note_off_c, 0, 70, 100
1, 34527, Note_on_c, 0, 67, 98
1, 34606, Note_off_c, 0, 67, 98
1, 34620, Note_on_c, 0, 66, 97
1, 34701, Note_off_c, 0, 66, 97
1, 34705, Note_on_c, 0, 65, 100
1, 34807, Note_off_c, 0, 65, 100
1, 34808, Note_on_c, 0, 64, 102
1, 34886, Note_off_c, 0, 64, 102
1, 34891, Note_on_c, 0, 63, 104
1, 34995, Note_off_c, 0, 63, 104
1, 34995, Note_on_c, 0, 65, 99
1, 35081, Note_on_c, 0, 67, 98
1, 35081, Note_off_c, 0, 65, 99
1, 35167, Note_off_c, 0, 67, 98
1, 35167, Note_on_c, 0, 63, 96
1, 35254, Note_off_c, 0, 63, 96
1, 35257, Note_on_c, 0, 65, 102
1, 35365, Note_off_c, 0, 65, 102
1, 35365, Note_on_c, 0, 64, 107
1, 35445, Note_off_c, 0, 64, 107
1, 35454, Note_on_c, 0, 63, 103
1, 35540, Note_off_c, 0, 63, 103
1, 35540, Note_on_c, 0, 67, 96
1, 35643, Note_off_c, 0, 67, 96
1, 35643, Note_on_c, 0, 65, 97
1, 35745, Note_off_c, 0, 65, 97
1, 35745, Note_on_c, 0, 61, 96
1, 35812, Note_off_c, 0, 61, 96
1, 35812, Note_on_c, 0, 59, 91
1, 35894, Note_off_c, 0, 59, 91
1, 35908, Note_on_c, 0, 56, 79
1, 35975, Note_off_c, 0, 56, 79
1, 35991, Note_on_c, 0, 63, 107
1, 36074, Note_off_c, 0, 63, 107
1, 36114, Note_on_c, 0, 61, 101
1, 36181, Note_off_c, 0, 61, 101
1, 36181, Note_on_c, 0, 59, 96
1, 36270, Note_off_c, 0, 59, 96
1, 36288, Note_on_c, 0, 55, 91
1, 36389, Note_off_c, 0, 55, 91
1, 36389, Note_on_c, 0, 56, 93
1, 36641, Note_off_c, 0, 56, 93
1, 37236, Note_on_c, 0, 47, 106
1, 37327, Note_off_c, 0, 47, 106
1, 37327, Note_on_c, 0, 51, 104
1, 37438, Note_off_c, 0, 51, 104
1, 37438, Note_on_c, 0, 59, 95
1, 37538, Note_off_c, 0, 59, 95
1, 37538, Note_on_c, 0, 49, 104
1, 37623, Note_off_c, 0, 49, 104
1, 37623, Note_on_c, 0, 50, 98
1, 37719, Note_off_c, 0, 50, 98
1, 37719, Note_on_c, 0, 53, 97
1, 37800, Note_on_c, 0, 52, 96
1, 37800, Note_off_c, 0, 53, 97
1, 37875, Note_off_c, 0, 52, 96
1, 37883, Note_on_c, 0, 51, 99
1, 37988, Note_off_c, 0, 51, 99
1, 37999, Note_on_c, 0, 55, 97
1, 38084, Note_off_c, 0, 55, 97
1, 38084, Note_on_c, 0, 59, 95
1, 38162, Note_off_c, 0, 59, 95
1, 38180, Note_on_c, 0, 62, 105
1, 38246, Note_off_c, 0, 62, 105
1, 38258, Note_on_c, 0, 63, 104
1, 38353, Note_off_c, 0, 63, 104
1, 38353, Note_on_c, 0, 62, 97
1, 38439, Note_off_c, 0, 62, 97
1, 38439, Note_on_c, 0, 58, 89
1, 38562, Note_off_c, 0, 58, 89
1, 38575, Note_on_c, 0, 56, 94
1, 38637, Note_off_c, 0, 56, 94
1, 38651, Note_on_c, 0, 63, 105
1, 38694, Note_off_c, 0, 63, 105
1, 38694, Note_on_c, 0, 65, 101
1, 38739, Note_off_c, 0, 65, 101
1, 38739, Note_on_c, 0, 63, 104
1, 38782, Note_off_c, 0, 63, 104
1, 38782, Note_on_c, 0, 60, 97
1, 38855, Note_off_c, 0, 60, 97
1, 38859, Note_on_c, 0, 56, 94
1, 38984, Note_on_c, 0, 53, 79
1, 38984, Note_off_c, 0, 56, 94
1, 39031, Note_off_c, 0, 53, 79
1, 39037, Note_on_c, 0, 58, 93
1, 39080, Note_off_c, 0, 58, 93
1, 39085, Note_on_c, 0, 59, 89
1, 39131, Note_off_c, 0, 59, 89
1, 39131, Note_on_c, 0, 58, 89
1, 39166, Note_off_c, 0, 58, 89
1, 39166, Note_on_c, 0, 55, 89
1, 39245, Note_off_c, 0, 55, 89
1, 39246, Note_on_c, 0, 56, 88
1, 39342, Note_off_c, 0, 56, 88
1, 39342, Note_on_c, 0, 58, 90
1, 39426, Note_off_c, 0, 58, 90
1, 39443, Note_on_c, 0, 60, 99
1, 39540, Note_off_c, 0, 60, 99
1, 39543, Note_on_c, 0, 63, 106
1, 39630, Note_off_c, 0, 63, 106
1, 39636, Note_on_c, 0, 65, 78
1, 39716, Note_off_c, 0, 65, 78
1, 39718, Note_on_c, 0, 67, 80
1, 39800, Note_off_c, 0, 67, 80
1, 39800, Note_on_c, 0, 70, 102
1, 39895, Note_off_c, 0, 70, 102
1, 39909, Note_on_c, 0, 67, 82
1, 40000, Note_off_c, 0, 67, 82
1, 40000, Note_on_c, 0, 68, 103
1, 40099, Note_off_c, 0, 68, 103
1, 40099, Note_on_c, 0, 70, 98
1, 40189, Note_off_c, 0, 70, 98
1, 40194, Note_on_c, 0, 67, 98
1, 40393, Note_off_c, 0, 67, 98
1, 40394, Note_on_c, 0, 63, 84
1, 40544, Note_off_c, 0, 63, 84
1, 40583, Note_on_c, 0, 60, 100
1, 40754, Note_off_c, 0, 60, 100
1, 40780, Note_on_c, 0, 63, 88
1, 41219, Note_off_c, 0, 63, 88
1, 41878, Note_on_c, 0, 46, 92
1, 41937, Note_off_c, 0, 46, 92
1, 41939, Note_on_c, 0, 50, 96
1, 42014, Note_off_c, 0, 50, 96
1, 42026, Note_on_c, 0, 53, 96
1, 42107, Note_off_c, 0, 53, 96
1, 42143, Note_on_c, 0, 52, 91
1, 42241, Note_off_c, 0, 52, 91
1, 42250, Note_on_c, 0, 50, 84
1, 42321, Note_on_c, 0, 51, 98
1, 42321, Note_off_c, 0, 50, 84
1, 42417, Note_off_c, 0, 51, 98
1, 42432, Note_on_c, 0, 53, 97
1, 42505, Note_off_c, 0, 53, 97
1, 42505, Note_on_c, 0, 55, 88
1, 42605, Note_off_c, 0, 55, 88
1, 42617, Note_on_c, 0, 58, 87
1, 42709, Note_off_c, 0, 58, 87
1, 42713, Note_on_c, 0, 57, 91
1, 42806, Note_off_c, 0, 57, 91
1, 42836, Note_on_c, 0, 55, 89
1, 42931, Note_off_c, 0, 55, 89
1, 42931, Note_on_c, 0, 56, 92
1, 43003, Note_off_c, 0, 56, 92
1, 43006, Note_on_c, 0, 55, 91
1, 43061, Note_off_c, 0, 55, 91
1, 43077, Note_on_c, 0, 54, 90
1, 43169, Note_off_c, 0, 54, 90
1, 43196, Note_on_c, 0, 56, 93
1, 43297, Note_off_c, 0, 56, 93
1, 43305, Note_on_c, 0, 55, 91
1, 43400, Note_off_c, 0, 55, 91
1, 43400, Note_on_c, 0, 54, 93
1, 43497, Note_off_c, 0, 54, 93
1, 43498, Note_on_c, 0, 53, 90
1, 43610, Note_off_c, 0, 53, 90
1, 43610, Note_on_c, 0, 52, 97
1, 43701, Note_off_c, 0, 52, 97
1, 43701, Note_on_c, 0, 51, 93
1, 43788, Note_off_c, 0, 51, 93
1, 43788, Note_on_c, 0, 53, 87
1, 43892, Note_off_c, 0, 53, 87
1, 43892, Note_on_c, 0, 55, 91
1, 43983, Note_off_c, 0, 55, 91
1, 43983, Note_on_c, 0, 58, 85
1, 44072, Note_off_c, 0, 58, 85
1, 44072, Note_on_c, 0, 57, 81
1, 44231, Note_off_c, 0, 57, 81
1, 44252, Note_on_c, 0, 58, 91
1, 44367, Note_off_c, 0, 58, 91
1, 44439, Note_on_c, 0, 60, 102
1, 44545, Note_off_c, 0, 60, 102
1, 44546, Note_on_c, 0, 62, 104
1, 44641, Note_off_c, 0, 62, 104
1, 44641, Note_on_c, 0, 63, 105
1, 44727, Note_off_c, 0, 63, 105
1, 44732, Note_on_c, 0, 64, 108
1, 44830, Note_off_c, 0, 64, 108
1, 44833, Note_on_c, 0, 65, 99
1, 44923, Note_off_c, 0, 65, 99
1, 44923, Note_on_c, 0, 64, 108
1, 45009, Note_on_c, 0, 63, 105
1, 45009, Note_off_c, 0, 64, 108
1, 45113, Note_off_c, 0, 63, 105
1, 45120, Note_on_c, 0, 67, 97
1, 45212, Note_off_c, 0, 67, 97
1, 45212, Note_on_c, 0, 66, 99
1, 45309, Note_off_c, 0, 66, 99
1, 45318, Note_on_c, 0, 61, 104
1, 45395, Note_off_c, 0, 61, 104
1, 45395, Note_on_c, 0, 58, 95
1, 45481, Note_off_c, 0, 58, 95
1, 45498, Note_on_c, 0, 56, 91
1, 45556, Note_off_c, 0, 56, 91
1, 45589, Note_on_c, 0, 63, 106
1, 45683, Note_off_c, 0, 63, 106
1, 45699, Note_on_c, 0, 61, 99
1, 45786, Note_off_c, 0, 61, 99
1, 45786, Note_on_c, 0, 56, 94
1, 45883, Note_off_c, 0, 56, 94
1, 45883, Note_on_c, 0, 53, 85
1, 45979, Note_off_c, 0, 53, 85
1, 45979, Note_on_c, 0, 58, 89
1, 46075, Note_off_c, 0, 58, 89
1, 46087, Note_on_c, 0, 54, 96
1, 46145, Note_off_c, 0, 54, 96
1, 46157, Note_on_c, 0, 53, 95
1, 46271, Note_off_c, 0, 53, 95
1, 46271, Note_on_c, 0, 52, 97
1, 46357, Note_off_c, 0, 52, 97
1, 46357, Note_on_c, 0, 51, 96
1, 46457, Note_off_c, 0, 51, 96
1, 46457, Note_on_c, 0, 53, 89
1, 46553, Note_off_c, 0, 53, 89
1, 46555, Note_on_c, 0, 54, 93
1, 46728, Note_off_c, 0, 54, 93
1, 47137, Note_on_c, 0, 56, 99
1, 47229, Note_off_c, 0, 56, 99
1, 47231, Note_on_c, 0, 58, 95
1, 47336, Note_off_c, 0, 58, 95
1, 47336, Note_on_c, 0, 59, 94
1, 47455, Note_off_c, 0, 59, 94
1, 48289, Note_on_c, 0, 46, 118
1, 48364, Note_off_c, 0, 46, 118
1, 48375, Note_on_c, 0, 51, 99
1, 48449, Note_off_c, 0, 51, 99
1, 48462, Note_on_c, 0, 55, 94
1, 48521, Note_off_c, 0, 55, 94
1, 48537, Note_on_c, 0, 58, 91
1, 48576, Note_off_c, 0, 58, 91
1, 48591, Note_on_c, 0, 58, 95
1, 48633, Note_off_c, 0, 58, 95
1, 48670, Note_on_c, 0, 61, 101
1, 48802, Note_off_c, 0, 61, 101
1, 48802, Note_on_c, 0, 56, 96
1, 48859, Note_off_c, 0, 56, 96
1, 48891, Note_on_c, 0, 53, 97
1, 48998, Note_off_c, 0, 53, 97
1, 49010, Note_on_c, 0, 51, 86
1, 49065, Note_off_c, 0, 51, 86
1, 49070, Note_on_c, 0, 53, 96
1, 49165, Note_off_c, 0, 53, 96
1, 49165, Note_on_c, 0, 55, 93
1, 49235, Note_off_c, 0, 55, 93
1, 49239, Note_on_c, 0, 58, 92
1, 49348, Note_off_c, 0, 58, 92
1, 49825, Note_on_c, 0, 51, 101
1, 49917, Note_off_c, 0, 51, 101
1, 49918, Note_on_c, 0, 53, 99
1, 49999, Note_off_c, 0, 53, 99
1, 50001, Note_on_c, 0, 55, 99
1, 50084, Note_off_c, 0, 55, 99
1, 50116, Note_on_c, 0, 58, 94
1, 50205, Note_off_c, 0, 58, 94
1, 50205, Note_on_c, 0, 53, 98
1, 50307, Note_off_c, 0, 53, 98
1, 50307, Note_on_c, 0, 55, 95
1, 50409, Note_off_c, 0, 55, 95
1, 50412, Note_on_c, 0, 56, 93
1, 50513, Note_off_c, 0, 56, 93
1, 50513, Note_on_c, 0, 58, 95
1, 50615, Note_off_c, 0, 58, 95
1, 50615, Note_on_c, 0, 55, 95
1, 50696, Note_off_c, 0, 55, 95
1, 50696, Note_on_c, 0, 58, 92
1, 50769, Note_off_c, 0, 58, 92
1, 50769, Note_on_c, 0, 63, 104
1, 50863, Note_off_c, 0, 63, 104
1, 50871, Note_on_c, 0, 65, 102
1, 50944, Note_off_c, 0, 65, 102
1, 50946, Note_on_c, 0, 67, 90
1, 51159, Note_off_c, 0, 67, 90
1, 51345, Note_on_c, 0, 67, 93
1, 51456, Note_off_c, 0, 67, 93
1, 51456, Note_on_c, 0, 68, 9
1, 51575, Note_off_c, 0, 68, 9
1, 51618, Note_on_c, 0, 72, 104
1, 51739, Note_off_c, 0, 72, 104
1, 51739, Note_on_c, 0, 75, 113
1, 51832, Note_off_c, 0, 75, 113
1, 51883, Note_on_c, 0, 79, 111
1, 53141, Note_off_c, 0, 79, 111
1, 53277, Note_on_c, 0, 75, 105
1, 53435, Note_off_c, 0, 75, 105
1, 53444, Note_on_c, 0, 75, 108
1, 53559, Note_off_c, 0, 75, 108
1, 53573, Note_on_c, 0, 72, 106
1, 53701, Note_off_c, 0, 72, 106
1, 53724, Note_on_c, 0, 72, 101
1, 53843, Note_off_c, 0, 72, 101
1, 53847, Note_on_c, 0, 67, 106
1, 54094, Note_off_c, 0, 67, 106
1, 54436, Note_on_c, 0, 67, 112
1, 54526, Note_off_c, 0, 67, 112
1, 54526, Note_on_c, 0, 69, 99
1, 54629, Note_off_c, 0, 69, 99
1, 54629, Note_on_c, 0, 72, 106
1, 54723, Note_off_c, 0, 72, 106
1, 54723, Note_on_c, 0, 75, 106
1, 54829, Note_off_c, 0, 75, 106
1, 54837, Note_on_c, 0, 79, 114
1, 54913, Note_off_c, 0, 79, 114
1, 54913, Note_on_c, 0, 81, 107
1, 55520, Note_off_c, 0, 81, 107
1, 55576, Note_on_c, 0, 79, 96
1, 55628, Note_off_c, 0, 79, 96
1, 55647, Note_on_c, 0, 71, 98
1, 55696, Note_off_c, 0, 71, 98
1, 55696, Note_on_c, 0, 75, 111
1, 55786, Note_off_c, 0, 75, 111
1, 55794, Note_on_c, 0, 70, 110
1, 55863, Note_off_c, 0, 70, 110
1, 55863, Note_on_c, 0, 67, 91
1, 55937, Note_off_c, 0, 67, 91
1, 55986, Note_on_c, 0, 69, 109
1, 56077, Note_off_c, 0, 69, 109
1, 56077, Note_on_c, 0, 65, 111
1, 56172, Note_off_c, 0, 65, 111
1, 56172, Note_on_c, 0, 62, 115
1, 56263, Note_off_c, 0, 62, 115
1, 56271, Note_on_c, 0, 58, 97
1, 56331, Note_off_c, 0, 58, 97
1, 56365, Note_on_c, 0, 63, 117
1, 56462, Note_off_c, 0, 63, 117
1, 56467, Note_on_c, 0, 62, 112
1, 56556, Note_off_c, 0, 62, 112
1, 56556, Note_on_c, 0, 58, 101
1, 56655, Note_off_c, 0, 58, 101
1, 56667, Note_on_c, 0, 55, 91
1, 56751, Note_off_c, 0, 55, 91
1, 56751, Note_on_c, 0, 63, 117
1, 56849, Note_off_c, 0, 63, 117
1, 56850, Note_on_c, 0, 61, 109
1, 56955, Note_off_c, 0, 61, 109
1, 56955, Note_on_c, 0, 59, 96
1, 57116, Note_off_c, 0, 59, 96
1, 57144, Note_on_c, 0, 58, 106
1, 57207, Note_off_c, 0, 58, 106
1, 57225, Note_on_c, 0, 55, 94
1, 57310, Note_off_c, 0, 55, 94
1, 57325, Note_on_c, 0, 56, 98
1, 57422, Note_off_c, 0, 56, 98
1, 57424, Note_on_c, 0, 58, 99
1, 57510, Note_off_c, 0, 58, 99
1, 57518, Note_on_c, 0, 59, 102
1, 57606, Note_off_c, 0, 59, 102
1, 57612, Note_on_c, 0, 61, 114
1, 57695, Note_off_c, 0, 61, 114
1, 57695, Note_on_c, 0, 63, 113
1, 57797, Note_off_c, 0, 63, 113
1, 57797, Note_on_c, 0, 65, 108
1, 57892, Note_off_c, 0, 65, 108
1, 57892, Note_on_c, 0, 66, 106
1, 57982, Note_off_c, 0, 66, 106
1, 57985, Note_on_c, 0, 68, 111
1, 58073, Note_off_c, 0, 68, 111
1, 58083, Note_on_c, 0, 70, 107
1, 58187, Note_off_c, 0, 70, 107
1, 58196, Note_on_c, 0, 71, 107
1, 58277, Note_off_c, 0, 71, 107
1, 58277, Note_on_c, 0, 73, 102
1, 58553, Note_off_c, 0, 73, 102
1, 58948, Note_on_c, 0, 73, 107
1, 58977, Note_off_c, 0, 73, 107
1, 58995, Note_on_c, 0, 73, 106
1, 59082, Note_off_c, 0, 73, 106
1, 59083, Note_on_c, 0, 70, 109
1, 59192, Note_off_c, 0, 70, 109
1, 59244, Note_on_c, 0, 73, 106
1, 59314, Note_off_c, 0, 73, 106
1, 59314, Note_on_c, 0, 66, 96
1, 59406, Note_off_c, 0, 66, 96
1, 59428, Note_on_c, 0, 58, 100
1, 59541, Note_off_c, 0, 58, 100
1, 59612, Note_on_c, 0, 73, 106
1, 59667, Note_off_c, 0, 73, 106
1, 59696, Note_on_c, 0, 73, 107
1, 59821, Note_off_c, 0, 73, 107
1, 59828, Note_on_c, 0, 70, 109
1, 59989, Note_off_c, 0, 70, 109
1, 59994, Note_on_c, 0, 73, 107
1, 60085, Note_off_c, 0, 73, 107
1, 60114, Note_on_c, 0, 73, 108
1, 60175, Note_off_c, 0, 73, 108
1, 60221, Note_on_c, 0, 67, 110
1, 60388, Note_off_c, 0, 67, 110
1, 60414, Note_on_c, 0, 73, 105
1, 60458, Note_off_c, 0, 73, 105
1, 60492, Note_on_c, 0, 73, 99
1, 60581, Note_off_c, 0, 73, 99
1, 60581, Note_on_c, 0, 67, 112
1, 60715, Note_off_c, 0, 67, 112
1, 60784, Note_on_c, 0, 73, 103
1, 60837, Note_off_c, 0, 73, 103
1, 60857, Note_on_c, 0, 73, 104
1, 60943, Note_off_c, 0, 73, 104
1, 60943, Note_on_c, 0, 67, 109
1, 61083, Note_off_c, 0, 67, 109
1, 61155, Note_on_c, 0, 73, 102
1, 61216, Note_off_c, 0, 73, 102
1, 61254, Note_on_c, 0, 73, 99
1, 61344, Note_off_c, 0, 73, 99
1, 61352, Note_on_c, 0, 67, 111
1, 61485, Note_off_c, 0, 67, 111
1, 61485, Note_on_c, 0, 73, 102
1, 61686, Note_off_c, 0, 73, 102
1, 62306, Note_on_c, 0, 73, 113
1, 62347, Note_off_c, 0, 73, 113
1, 62392, Note_on_c, 0, 73, 99
1, 62480, Note_off_c, 0, 73, 99
1, 62491, Note_on_c, 0, 70, 110
1, 62621, Note_off_c, 0, 70, 110
1, 62669, Note_on_c, 0, 73, 102
1, 62739, Note_off_c, 0, 73, 102
1, 62746, Note_on_c, 0, 73, 90
1, 62864, Note_off_c, 0, 73, 90
1, 62900, Note_on_c, 0, 70, 102
1, 63096, Note_on_c, 0, 72, 111
1, 63096, Note_off_c, 0, 70, 102
1, 63159, Note_off_c, 0, 72, 111
1, 63181, Note_on_c, 0, 72, 105
1, 63248, Note_off_c, 0, 72, 105
1, 63248, Note_on_c, 0, 68, 116
1, 63384, Note_off_c, 0, 68, 116
1, 63444, Note_on_c, 0, 72, 109
1, 63530, Note_off_c, 0, 72, 109
1, 63542, Note_on_c, 0, 72, 102
1, 63619, Note_off_c, 0, 72, 102
1, 63620, Note_on_c, 0, 68, 111
1, 63783, Note_off_c, 0, 68, 111
1, 63830, Note_on_c, 0, 72, 106
1, 63921, Note_off_c, 0, 72, 106
1, 63927, Note_on_c, 0, 72, 103
1, 63998, Note_off_c, 0, 72, 103
1, 64019, Note_on_c, 0, 68, 113
1, 64217, Note_off_c, 0, 68, 113
1, 64221, Note_on_c, 0, 72, 100
1, 64400, Note_off_c, 0, 72, 100
1, 64400, Note_on_c, 0, 79, 114
1, 64797, Note_off_c, 0, 79, 114
1, 65272, Note_on_c, 0, 44, 114
1, 65367, Note_off_c, 0, 44, 114
1, 65367, Note_on_c, 0, 51, 109
1, 65461, Note_off_c, 0, 51, 109
1, 65466, Note_on_c, 0, 58, 101
1, 65535, Note_off_c, 0, 58, 101
1, 65540, Note_on_c, 0, 49, 103
1, 65638, Note_off_c, 0, 49, 103
1, 65638, Note_on_c, 0, 50, 99
1, 65712, Note_off_c, 0, 50, 99
1, 65712, Note_on_c, 0, 53, 106
1, 65815, Note_off_c, 0, 53, 106
1, 65815, Note_on_c, 0, 52, 108
1, 65920, Note_off_c, 0, 52, 108
1, 65921, Note_on_c, 0, 51, 102
1, 66024, Note_off_c, 0, 51, 102
1, 66024, Note_on_c, 0, 55, 95
1, 66109, Note_off_c, 0, 55, 95
1, 66125, Note_on_c, 0, 58, 97
1, 66209, Note_off_c, 0, 58, 97
1, 66227, Note_on_c, 0, 58, 103
1, 66306, Note_off_c, 0, 58, 103
1, 66306, Note_on_c, 0, 55, 101
1, 66382, Note_off_c, 0, 55, 101
1, 66394, Note_on_c, 0, 56, 100
1, 66486, Note_off_c, 0, 56, 100
1, 66511, Note_on_c, 0, 59, 98
1, 66596, Note_off_c, 0, 59, 98
1, 66596, Note_on_c, 0, 63, 114
1, 66684, Note_off_c, 0, 63, 114
1, 66684, Note_on_c, 0, 58, 98
1, 66777, Note_off_c, 0, 58, 98
1, 66788, Note_on_c, 0, 59, 97
1, 66871, Note_off_c, 0, 59, 97
1, 66871, Note_on_c, 0, 63, 105
1, 66971, Note_off_c, 0, 63, 105
1, 66971, Note_on_c, 0, 65, 100
1, 67057, Note_off_c, 0, 65, 100
1, 67066, Note_on_c, 0, 67, 109
1, 67164, Note_off_c, 0, 67, 109
1, 67169, Note_on_c, 0, 70, 107
1, 67248, Note_off_c, 0, 70, 107
1, 67443, Note_on_c, 0, 70, 108
1, 67567, Note_off_c, 0, 70, 108
1, 67579, Note_on_c, 0, 67, 101
1, 67752, Note_off_c, 0, 67, 101
1, 67832, Note_on_c, 0, 67, 109
1, 67930, Note_off_c, 0, 67, 109
1, 67946, Note_on_c, 0, 63, 104
1, 68104, Note_off_c, 0, 63, 104
1, 68213, Note_on_c, 0, 63, 114
1, 68327, Note_off_c, 0, 63, 114
1, 68344, Note_on_c, 0, 59, 90
1, 68515, Note_off_c, 0, 59, 90
1, 68569, Note_on_c, 0, 59, 100
1, 68635, Note_off_c, 0, 59, 100
1, 68700, Note_on_c, 0, 58, 100
1, 68862, Note_off_c, 0, 58, 100
1, 68944, Note_on_c, 0, 58, 99
1, 69046, Note_off_c, 0, 58, 99
1, 69062, Note_on_c, 0, 55, 104
1, 69267, Note_off_c, 0, 55, 104
1, 69734, Note_on_c, 0, 70, 115
1, 69830, Note_off_c, 0, 70, 115
1, 69830, Note_on_c, 0, 69, 112
1, 69890, Note_off_c, 0, 69, 112
1, 69909, Note_on_c, 0, 68, 111
1, 70011, Note_off_c, 0, 68, 111
1, 70017, Note_on_c, 0, 67, 110
1, 70117, Note_off_c, 0, 67, 110
1, 70119, Note_on_c, 0, 65, 89
1, 70211, Note_off_c, 0, 65, 89
1, 70211, Note_on_c, 0, 70, 107
1, 70296, Note_off_c, 0, 70, 107
1, 70314, Note_on_c, 0, 67, 110
1, 70418, Note_off_c, 0, 67, 110
1, 70418, Note_on_c, 0, 68, 111
1, 70488, Note_off_c, 0, 68, 111
1, 70498, Note_on_c, 0, 72, 100
1, 70595, Note_off_c, 0, 72, 100
1, 70609, Note_on_c, 0, 75, 98
1, 70676, Note_off_c, 0, 75, 98
1, 70678, Note_on_c, 0, 79, 105
1, 70773, Note_off_c, 0, 79, 105
1, 70773, Note_on_c, 0, 80, 107
1, 70869, Note_off_c, 0, 80, 107
1, 70869, Note_on_c, 0, 79, 107
1, 70964, Note_off_c, 0, 79, 107
1, 70975, Note_on_c, 0, 75, 107
1, 71038, Note_on_c, 0, 72, 102
1, 71038, Note_off_c, 0, 75, 107
1, 71126, Note_off_c, 0, 72, 102
1, 71139, Note_on_c, 0, 68, 99
1, 71191, Note_off_c, 0, 68, 99
1, 71221, Note_on_c, 0, 67, 108
1, 71347, Note_off_c, 0, 67, 108
1, 71347, Note_on_c, 0, 65, 112
1, 71425, Note_off_c, 0, 65, 112
1, 71425, Note_on_c, 0, 64, 103
1, 71536, Note_off_c, 0, 64, 103
1, 71536, Note_on_c, 0, 65, 98
1, 71620, Note_off_c, 0, 65, 98
1, 71620, Note_on_c, 0, 70, 109
1, 71723, Note_off_c, 0, 70, 109
1, 71728, Note_on_c, 0, 67, 93
1, 71791, Note_off_c, 0, 67, 93
1, 71791, Note_on_c, 0, 68, 114
1, 71873, Note_off_c, 0, 68, 114
1, 71888, Note_on_c, 0, 66, 89
1, 71961, Note_off_c, 0, 66, 89
1, 71973, Note_on_c, 0, 67, 107
1, 72071, Note_off_c, 0, 67, 107
1, 72074, Note_on_c, 0, 66, 106
1, 72179, Note_off_c, 0, 66, 106
1, 72179, Note_on_c, 0, 65, 108
1, 72277, Note_off_c, 0, 65, 108
1, 72283, Note_on_c, 0, 64, 118
1, 72365, Note_off_c, 0, 64, 118
1, 72365, Note_on_c, 0, 63, 115
1, 72471, Note_off_c, 0, 63, 115
1, 72471, Note_on_c, 0, 65, 104
1, 72553, Note_off_c, 0, 65, 104
1, 72553, Note_on_c, 0, 67, 105
1, 72649, Note_off_c, 0, 67, 105
1, 72651, Note_on_c, 0, 70, 108
1, 72727, Note_off_c, 0, 70, 108
1, 72727, Note_on_c, 0, 68, 108
1, 72821, Note_off_c, 0, 68, 108
1, 72838, Note_on_c, 0, 64, 100
1, 72919, Note_on_c, 0, 67, 105
1, 72919, Note_off_c, 0, 64, 100
1, 73027, Note_off_c, 0, 67, 105
1, 73028, Note_on_c, 0, 66, 106
1, 73116, Note_off_c, 0, 66, 106
1, 73116, Note_on_c, 0, 65, 105
1, 73211, Note_off_c, 0, 65, 105
1, 73227, Note_on_c, 0, 64, 115
1, 73311, Note_off_c, 0, 64, 115
1, 73311, Note_on_c, 0, 63, 114
1, 73424, Note_off_c, 0, 63, 114
1, 74247, Note_on_c, 0, 67, 113
1, 74310, Note_off_c, 0, 67, 113
1, 74353, Note_on_c, 0, 67, 116
1, 74395, Note_off_c, 0, 67, 116
1, 74447, Note_on_c, 0, 67, 111
1, 74542, Note_off_c, 0, 67, 111
1, 74553, Note_on_c, 0, 72, 105
1, 74648, Note_off_c, 0, 72, 105
1, 74648, Note_on_c, 0, 68, 101
1, 74751, Note_off_c, 0, 68, 101
1, 74751, Note_on_c, 0, 65, 104
1, 74820, Note_off_c, 0, 65, 104
1, 74820, Note_on_c, 0, 67, 110
1, 74877, Note_off_c, 0, 67, 110
1, 74924, Note_on_c, 0, 67, 113
1, 74967, Note_off_c, 0, 67, 113
1, 75007, Note_on_c, 0, 67, 108
1, 75103, Note_off_c, 0, 67, 108
1, 75107, Note_on_c, 0, 72, 103
1, 75191, Note_off_c, 0, 72, 103
1, 75204, Note_on_c, 0, 68, 107
1, 75308, Note_off_c, 0, 68, 107
1, 75308, Note_on_c, 0, 65, 103
1, 75397, Note_on_c, 0, 67, 111
1, 75397, Note_off_c, 0, 65, 103
1, 75487, Note_off_c, 0, 67, 111
1, 75506, Note_on_c, 0, 67, 114
1, 75546, Note_off_c, 0, 67, 114
1, 75602, Note_on_c, 0, 67, 102
1, 75691, Note_off_c, 0, 67, 102
1, 75691, Note_on_c, 0, 72, 104
1, 75775, Note_off_c, 0, 72, 104
1, 75775, Note_on_c, 0, 68, 111
1, 75869, Note_off_c, 0, 68, 111
1, 75869, Note_on_c, 0, 65, 100
1, 75953, Note_off_c, 0, 65, 100
1, 75965, Note_on_c, 0, 67, 109
1, 76049, Note_off_c, 0, 67, 109
1, 76086, Note_on_c, 0, 67, 116
1, 76129, Note_off_c, 0, 67, 116
1, 76178, Note_on_c, 0, 67, 109
1, 76272, Note_off_c, 0, 67, 109
1, 76272, Note_on_c, 0, 72, 104
1, 76358, Note_off_c, 0, 72, 104
1, 76377, Note_on_c, 0, 68, 104
1, 76453, Note_off_c, 0, 68, 104
1, 76457, Note_on_c, 0, 65, 100
1, 76527, Note_off_c, 0, 65, 100
1, 76558, Note_on_c, 0, 67, 111
1, 76589, Note_off_c, 0, 67, 111
1, 76607, Note_on_c, 0, 67, 116
1, 76629, Note_off_c, 0, 67, 116
1, 76651, Note_on_c, 0, 67, 108
1, 76696, Note_off_c, 0, 67, 108
1, 76718, Note_on_c, 0, 72, 102
1, 76792, Note_off_c, 0, 72, 102
1, 76792, Note_on_c, 0, 68, 105
1, 76863, Note_off_c, 0, 68, 105
1, 76869, Note_on_c, 0, 65, 109
1, 76929, Note_off_c, 0, 65, 109
1, 76931, Note_on_c, 0, 67, 109
1, 76979, Note_off_c, 0, 67, 109
1, 76997, Note_on_c, 0, 67, 115
1, 77029, Note_off_c, 0, 67, 115
1, 77045, Note_on_c, 0, 67, 110
1, 77102, Note_off_c, 0, 67, 110
1, 77111, Note_on_c, 0, 72, 106
1, 77186, Note_off_c, 0, 72, 106
1, 77190, Note_on_c, 0, 68, 108
1, 77250, Note_off_c, 0, 68, 108
1, 77252, Note_on_c, 0, 65, 109
1, 77306, Note_off_c, 0, 65, 109
1, 77306, Note_on_c, 0, 67, 110
1, 77350, Note_off_c, 0, 67, 110
1, 77372, Note_on_c, 0, 67, 116
1, 77406, Note_off_c, 0, 67, 116
1, 77431, Note_on_c, 0, 67, 110
1, 77498, Note_off_c, 0, 67, 110
1, 77498, Note_on_c, 0, 72, 102
1, 77567, Note_off_c, 0, 72, 102
1, 77567, Note_on_c, 0, 68, 111
1, 77619, Note_off_c, 0, 68, 111
1, 77619, Note_on_c, 0, 65, 107
1, 77685, Note_off_c, 0, 65, 107
1, 77704, Note_on_c, 0, 67, 110
1, 77753, Note_off_c, 0, 67, 110
1, 77766, Note_on_c, 0, 67, 115
1, 77798, Note_off_c, 0, 67, 115
1, 77822, Note_on_c, 0, 67, 108
1, 77877, Note_off_c, 0, 67, 108
1, 77887, Note_on_c, 0, 72, 94
1, 77944, Note_on_c, 0, 68, 89
1, 77944, Note_off_c, 0, 72, 94
1, 78000, Note_off_c, 0, 68, 89
1, 78000, Note_on_c, 0, 65, 104
1, 78068, Note_off_c, 0, 65, 104
1, 78079, Note_on_c, 0, 67, 111
1, 78110, Note_off_c, 0, 67, 111
1, 78133, Note_on_c, 0, 67, 111
1, 78156, Note_off_c, 0, 67, 111
1, 78180, Note_on_c, 0, 67, 109
1, 78340, Note_off_c, 0, 67, 109
1, 78869, Note_on_c, 0, 67, 116
1, 78936, Note_off_c, 0, 67, 116
1, 78945, Note_on_c, 0, 67, 119
1, 78968, Note_off_c, 0, 67, 119
1, 78981, Note_on_c, 0, 67, 107
1, 79045, Note_off_c, 0, 67, 107
1, 79056, Note_on_c, 0, 72, 103
1, 79115, Note_off_c, 0, 72, 103
1, 79115, Note_on_c, 0, 69, 106
1, 79165, Note_off_c, 0, 69, 106
1, 79166, Note_on_c, 0, 65, 111
1, 79212, Note_off_c, 0, 65, 111
1, 79218, Note_on_c, 0, 67, 107
1, 79270, Note_off_c, 0, 67, 107
1, 79284, Note_on_c, 0, 67, 113
1, 79314, Note_off_c, 0, 67, 113
1, 79358, Note_on_c, 0, 67, 109
1, 79393, Note_off_c, 0, 67, 109
1, 79421, Note_on_c, 0, 72, 105
1, 79489, Note_off_c, 0, 72, 105
1, 79507, Note_on_c, 0, 69, 104
1, 79556, Note_off_c, 0, 69, 104
1, 79556, Note_on_c, 0, 65, 105
1, 79615, Note_off_c, 0, 65, 105
1, 79615, Note_on_c, 0, 67, 111
1, 79651, Note_off_c, 0, 67, 111
1, 79668, Note_on_c, 0, 67, 116
1, 79696, Note_off_c, 0, 67, 116
1, 79720, Note_on_c, 0, 67, 110
1, 79766, Note_off_c, 0, 67, 110
1, 79803, Note_on_c, 0, 72, 106
1, 79864, Note_off_c, 0, 72, 106
1, 79864, Note_on_c, 0, 69, 110
1, 79918, Note_off_c, 0, 69, 110
1, 79918, Note_on_c, 0, 65, 106
1, 79983, Note_off_c, 0, 65, 106
1, 79983, Note_on_c, 0, 67, 108
1, 80027, Note_off_c, 0, 67, 108
1, 80058, Note_on_c, 0, 67, 114
1, 80089, Note_off_c, 0, 67, 114
1, 80117, Note_on_c, 0, 67, 108
1, 80170, Note_off_c, 0, 67, 108
1, 80181, Note_on_c, 0, 72, 106
1, 80252, Note_off_c, 0, 72, 106
1, 80252, Note_on_c, 0, 69, 109
1, 80317, Note_off_c, 0, 69, 109
1, 80317, Note_on_c, 0, 65, 106
1, 80371, Note_on_c, 0, 67, 114
1, 80371, Note_off_c, 0, 65, 106
1, 80414, Note_off_c, 0, 67, 114
1, 80448, Note_on_c, 0, 67, 112
1, 80477, Note_off_c, 0, 67, 112
1, 80500, Note_on_c, 0, 67, 109
1, 80545, Note_off_c, 0, 67, 109
1, 80564, Note_on_c, 0, 72, 104
1, 80624, Note_off_c, 0, 72, 104
1, 80624, Note_on_c, 0, 69, 107
1, 80688, Note_off_c, 0, 69, 107
1, 80696, Note_on_c, 0, 65, 104
1, 80752, Note_off_c, 0, 65, 104
1, 80755, Note_on_c, 0, 67, 110
1, 80795, Note_off_c, 0, 67, 110
1, 80808, Note_on_c, 0, 67, 116
1, 80841, Note_off_c, 0, 67, 116
1, 80879, Note_on_c, 0, 67, 105
1, 80927, Note_off_c, 0, 67, 105
1, 80945, Note_on_c, 0, 72, 117
1, 80993, Note_off_c, 0, 72, 117
1, 80993, Note_on_c, 0, 69, 111
1, 81042, Note_off_c, 0, 69, 111
1, 81056, Note_on_c, 0, 65, 108
1, 81118, Note_off_c, 0, 65, 108
1, 81127, Note_on_c, 0, 67, 111
1, 81164, Note_off_c, 0, 67, 111
1, 81183, Note_on_c, 0, 67, 112
1, 81210, Note_off_c, 0, 67, 112
1, 81223, Note_on_c, 0, 67, 106
1, 81468, Note_off_c, 0, 67, 106
1, 81895, Note_on_c, 0, 68, 118
1, 81936, Note_off_c, 0, 68, 118
1, 81942, Note_on_c, 0, 68, 115
1, 81970, Note_off_c, 0, 68, 115
1, 81977, Note_on_c, 0, 68, 111
1, 82026, Note_off_c, 0, 68, 111
1, 82065, Note_on_c, 0, 73, 101
1, 82131, Note_off_c, 0, 73, 101
1, 82134, Note_on_c, 0, 70, 109
1, 82198, Note_off_c, 0, 70, 109
1, 82198, Note_on_c, 0, 66, 100
1, 82246, Note_off_c, 0, 66, 100
1, 82267, Note_on_c, 0, 68, 113
1, 82285, Note_off_c, 0, 68, 113
1, 82297, Note_on_c, 0, 68, 114
1, 82350, Note_off_c, 0, 68, 114
1, 82358, Note_on_c, 0, 68, 112
1, 82392, Note_off_c, 0, 68, 112
1, 82409, Note_on_c, 0, 73, 105
1, 82466, Note_off_c, 0, 73, 105
1, 82487, Note_on_c, 0, 70, 109
1, 82541, Note_off_c, 0, 70, 109
1, 82545, Note_on_c, 0, 66, 99
1, 82587, Note_off_c, 0, 66, 99
1, 82621, Note_on_c, 0, 68, 103
1, 82649, Note_off_c, 0, 68, 103
1, 82668, Note_on_c, 0, 68, 110
1, 82696, Note_off_c, 0, 68, 110
1, 82717, Note_on_c, 0, 68, 110
1, 82746, Note_off_c, 0, 68, 110
1, 82792, Note_on_c, 0, 73, 99
1, 82845, Note_off_c, 0, 73, 99
1, 82852, Note_on_c, 0, 70, 106
1, 82901, Note_off_c, 0, 70, 106
1, 82912, Note_on_c, 0, 66, 104
1, 82954, Note_off_c, 0, 66, 104
1, 82954, Note_on_c, 0, 68, 104
1, 82988, Note_off_c, 0, 68, 104
1, 83006, Note_on_c, 0, 68, 111
1, 83035, Note_off_c, 0, 68, 111
1, 83062, Note_on_c, 0, 68, 109
1, 83108, Note_off_c, 0, 68, 109
1, 83109, Note_on_c, 0, 73, 102
1, 83169, Note_off_c, 0, 73, 102
1, 83200, Note_on_c, 0, 70, 108
1, 83253, Note_off_c, 0, 70, 108
1, 83253, Note_on_c, 0, 66, 106
1, 83307, Note_off_c, 0, 66, 106
1, 83350, Note_on_c, 0, 68, 111
1, 83393, Note_off_c, 0, 68, 111
1, 83402, Note_on_c, 0, 68, 114
1, 83439, Note_off_c, 0, 68, 114
1, 83453, Note_on_c, 0, 68, 111
1, 83503, Note_off_c, 0, 68, 111
1, 83526, Note_on_c, 0, 73, 101
1, 83591, Note_off_c, 0, 73, 101
1, 83597, Note_on_c, 0, 70, 108
1, 83654, Note_off_c, 0, 70, 108
1, 83654, Note_on_c, 0, 66, 106
1, 83711, Note_off_c, 0, 66, 106
1, 83732, Note_on_c, 0, 68, 113
1, 83769, Note_off_c, 0, 68, 113
1, 83784, Note_on_c, 0, 68, 116
1, 83810, Note_off_c, 0, 68, 116
1, 83825, Note_on_c, 0, 68, 112
1, 83869, Note_off_c, 0, 68, 112
1, 83884, Note_on_c, 0, 73, 107
1, 83948, Note_off_c, 0, 73, 107
1, 83948, Note_on_c, 0, 70, 105
1, 84007, Note_off_c, 0, 70, 105
1, 84012, Note_on_c, 0, 66, 100
1, 84083, Note_off_c, 0, 66, 100
1, 84106, Note_on_c, 0, 68, 105
1, 84358, Note_off_c, 0, 68, 105
1, 84885, Note_on_c, 0, 66, 111
1, 84972, Note_off_c, 0, 66, 111
1, 84972, Note_on_c, 0, 67, 111
1, 85055, Note_on_c, 0, 68, 112
1, 85055, Note_off_c, 0, 67, 111
1, 85162, Note_off_c, 0, 68, 112
1, 85179, Note_on_c, 0, 66, 103
1, 85263, Note_off_c, 0, 66, 103
1, 85273, Note_on_c, 0, 67, 111
1, 85390, Note_off_c, 0, 67, 111
1, 85391, Note_on_c, 0, 66, 110
1, 85497, Note_off_c, 0, 66, 110
1, 85504, Note_on_c, 0, 65, 114
1, 85605, Note_off_c, 0, 65, 114
1, 85605, Note_on_c, 0, 64, 119
1, 85688, Note_off_c, 0, 64, 119
1, 85688, Note_on_c, 0, 63, 118
1, 85779, Note_off_c, 0, 63, 118
1, 85782, Note_on_c, 0, 65, 113
1, 85878, Note_off_c, 0, 65, 113
1, 85878, Note_on_c, 0, 67, 111
1, 85967, Note_off_c, 0, 67, 111
1, 85967, Note_on_c, 0, 63, 107
1, 86051, Note_off_c, 0, 63, 107
1, 86051, Note_on_c, 0, 65, 113
1, 86154, Note_off_c, 0, 65, 113
1, 86154, Note_on_c, 0, 64, 118
1, 86241, Note_off_c, 0, 64, 118
1, 86246, Note_on_c, 0, 63, 117
1, 86350, Note_off_c, 0, 63, 117
1, 86350, Note_on_c, 0, 67, 109
1, 86452, Note_off_c, 0, 67, 109
1, 86459, Note_on_c, 0, 65, 111
1, 86539, Note_off_c, 0, 65, 111
1, 86539, Note_on_c, 0, 61, 114
1, 86621, Note_off_c, 0, 61, 114
1, 86630, Note_on_c, 0, 58, 106
1, 86723, Note_off_c, 0, 58, 106
1, 86723, Note_on_c, 0, 56, 100
1, 86782, Note_off_c, 0, 56, 100
1, 86791, Note_on_c, 0, 62, 117
1, 86891, Note_off_c, 0, 62, 117
1, 86891, Note_on_c, 0, 61, 114
1, 86987, Note_off_c, 0, 61, 114
1, 86987, Note_on_c, 0, 56, 119
1, 87091, Note_off_c, 0, 56, 119
1, 87091, Note_on_c, 0, 53, 118
1, 87178, Note_off_c, 0, 53, 118
1, 87178, Note_on_c, 0, 57, 113
1, 87266, Note_off_c, 0, 57, 113
1, 87266, Note_on_c, 0, 53, 113
1, 87327, Note_off_c, 0, 53, 113
1, 87330, Note_on_c, 0, 49, 109
1, 87395, Note_off_c, 0, 49, 109
1, 87395, Note_on_c, 0, 53, 107
1, 87570, Note_off_c, 0, 53, 107
1, 88039, Note_on_c, 0, 44, 124
1, 88095, Note_off_c, 0, 44, 124
1, 88105, Note_on_c, 0, 51, 113
1, 88178, Note_off_c, 0, 51, 113
1, 88201, Note_on_c, 0, 55, 118
1, 88290, Note_on_c, 0, 46, 112
1, 88290, Note_off_c, 0, 55, 118
1, 88350, Note_off_c, 0, 46, 112
1, 88436, Note_on_c, 0, 53, 102
1, 88498, Note_off_c, 0, 53, 102
1, 88498, Note_on_c, 0, 56, 105
1, 88587, Note_off_c, 0, 56, 105
1, 88611, Note_on_c, 0, 58, 116
1, 88674, Note_off_c, 0, 58, 116
1, 88694, Note_on_c, 0, 58, 102
1, 88768, Note_off_c, 0, 58, 102
1, 88781, Note_on_c, 0, 53, 94
1, 88869, Note_off_c, 0, 53, 94
1, 88869, Note_on_c, 0, 56, 107
1, 88953, Note_off_c, 0, 56, 107
1, 88983, Note_on_c, 0, 58, 114
1, 89068, Note_off_c, 0, 58, 114
1, 89079, Note_on_c, 0, 58, 101
1, 89138, Note_off_c, 0, 58, 101
1, 89174, Note_on_c, 0, 58, 108
1, 89250, Note_off_c, 0, 58, 108
1, 89250, Note_on_c, 0, 65, 106
1, 89314, Note_off_c, 0, 65, 106
1, 89363, Note_on_c, 0, 70, 114
1, 89430, Note_off_c, 0, 70, 114
1, 89446, Note_on_c, 0, 70, 118
1, 89521, Note_off_c, 0, 70, 118
1, 89523, Note_on_c, 0, 72, 103
1, 89599, Note_off_c, 0, 72, 103
1, 89608, Note_on_c, 0, 68, 109
1, 89695, Note_off_c, 0, 68, 109
1, 89723, Note_on_c, 0, 72, 105
1, 89804, Note_off_c, 0, 72, 105
1, 89804, Note_on_c, 0, 70, 101
1, 89879, Note_off_c, 0, 70, 101
1, 89900, Note_on_c, 0, 72, 109
1, 90013, Note_on_c, 0, 79, 111
1, 90013, Note_off_c, 0, 72, 109
1, 90924, Note_off_c, 0, 79, 111
1, 90968, Note_on_c, 0, 75, 110
1, 91088, Note_off_c, 0, 75, 110
1, 91103, Note_on_c, 0, 72, 78
1, 91311, Note_off_c, 0, 72, 78
1, 91835, Note_on_c, 0, 67, 113
1, 91912, Note_off_c, 0, 67, 113
1, 91912, Note_on_c, 0, 70, 113
1, 91996, Note_off_c, 0, 70, 113
1, 91996, Note_on_c, 0, 72, 105
1, 92094, Note_off_c, 0, 72, 105
1, 92112, Note_on_c, 0, 75, 114
1, 92193, Note_off_c, 0, 75, 114
1, 92208, Note_on_c, 0, 77, 99
1, 92286, Note_off_c, 0, 77, 99
1, 92294, Note_on_c, 0, 75, 111
1, 92399, Note_off_c, 0, 75, 111
1, 92409, Note_on_c, 0, 72, 103
1, 92496, Note_off_c, 0, 72, 103
1, 92496, Note_on_c, 0, 70, 109
1, 92600, Note_off_c, 0, 70, 109
1, 92600, Note_on_c, 0, 75, 107
1, 92694, Note_on_c, 0, 72, 107
1, 92694, Note_off_c, 0, 75, 107
1, 92785, Note_off_c, 0, 72, 107
1, 92785, Note_on_c, 0, 70, 106
1, 92900, Note_on_c, 0, 66, 108
1, 92900, Note_off_c, 0, 70, 106
1, 92997, Note_off_c, 0, 66, 108
1, 92999, Note_on_c, 0, 65, 114
1, 93095, Note_off_c, 0, 65, 114
1, 93095, Note_on_c, 0, 63, 119
1, 93177, Note_off_c, 0, 63, 119
1, 93177, Note_on_c, 0, 60, 98
1, 93265, Note_off_c, 0, 60, 98
1, 93265, Note_on_c, 0, 65, 113
1, 93336, Note_off_c, 0, 65, 113
1, 93352, Note_on_c, 0, 60, 100
1, 93440, Note_off_c, 0, 60, 100
1, 93440, Note_on_c, 0, 63, 117
1, 93532, Note_off_c, 0, 63, 117
1, 93541, Note_on_c, 0, 65, 111
1, 93623, Note_off_c, 0, 65, 111
1, 93623, Note_on_c, 0, 66, 109
1, 93727, Note_off_c, 0, 66, 109
1, 93743, Note_on_c, 0, 68, 108
1, 93826, Note_off_c, 0, 68, 108
1, 93826, Note_on_c, 0, 70, 108
1, 93877, Note_off_c, 0, 70, 108
1, 93934, Note_on_c, 0, 75, 94
1, 94021, Note_off_c, 0, 75, 94
1, 94021, Note_on_c, 0, 72, 103
1, 94250, Note_off_c, 0, 72, 103
1, 94426, Note_on_c, 0, 70, 108
1, 94701, Note_off_c, 0, 70, 108
1, 94701, Note_on_c, 0, 66, 108
1, 94798, Note_off_c, 0, 66, 108
1, 94817, Note_on_c, 0, 65, 110
1, 94893, Note_off_c, 0, 65, 110
1, 94893, Note_on_c, 0, 63, 117
1, 94979, Note_off_c, 0, 63, 117
1, 94988, Note_on_c, 0, 62, 98
1, 95087, Note_off_c, 0, 62, 98
1, 95090, Note_on_c, 0, 63, 101
1, 95177, Note_off_c, 0, 63, 101
1, 95183, Note_on_c, 0, 68, 113
1, 95270, Note_off_c, 0, 68, 113
1, 95290, Note_on_c, 0, 66, 107
1, 95383, Note_off_c, 0, 66, 107
1, 95383, Note_on_c, 0, 62, 115
1, 95471, Note_off_c, 0, 62, 115
1, 95471, Note_on_c, 0, 58, 89
1, 95564, Note_off_c, 0, 58, 89
1, 95564, Note_on_c, 0, 65, 112
1, 95660, Note_off_c, 0, 65, 112
1, 95660, Note_on_c, 0, 63, 111
1, 95740, Note_off_c, 0, 63, 111
1, 95740, Note_on_c, 0, 58, 100
1, 95837, Note_off_c, 0, 58, 100
1, 95842, Note_on_c, 0, 54, 105
1, 95957, Note_off_c, 0, 54, 105
1, 95957, Note_on_c, 0, 53, 109
1, 96136, Note_off_c, 0, 53, 109
1, 96136, Note_on_c, 0, 51, 101
1, 96222, Note_off_c, 0, 51, 101
1, 96233, Note_on_c, 0, 53, 102
1, 96554, Note_off_c, 0, 53, 102
1, 97566, Note_on_c, 0, 46, 116
1, 97629, Note_off_c, 0, 46, 116
1, 97644, Note_on_c, 0, 51, 112
1, 97721, Note_off_c, 0, 51, 112
1, 97754, Note_on_c, 0, 55, 107
1, 97860, Note_off_c, 0, 55, 107
1, 97860, Note_on_c, 0, 49, 108
1, 97952, Note_off_c, 0, 49, 108
1, 97953, Note_on_c, 0, 53, 100
1, 98005, Note_off_c, 0, 53, 100
1, 98020, Note_on_c, 0, 56, 106
1, 98111, Note_off_c, 0, 56, 106
1, 98124, Note_on_c, 0, 61, 115
1, 98209, Note_off_c, 0, 61, 115
1, 98224, Note_on_c, 0, 58, 104
1, 98315, Note_off_c, 0, 58, 104
1, 98333, Note_on_c, 0, 70, 108
1, 98401, Note_off_c, 0, 70, 108
1, 98401, Note_on_c, 0, 67, 111
1, 98482, Note_off_c, 0, 67, 111
1, 98495, Note_on_c, 0, 70, 109
1, 98586, Note_off_c, 0, 70, 109
1, 98586, Note_on_c, 0, 61, 106
1, 98687, Note_off_c, 0, 61, 106
1, 98687, Note_on_c, 0, 65, 103
1, 98761, Note_off_c, 0, 65, 103
1, 98761, Note_on_c, 0, 68, 114
1, 98846, Note_off_c, 0, 68, 114
1, 98882, Note_on_c, 0, 73, 105
1, 98985, Note_off_c, 0, 73, 105
1, 98985, Note_on_c, 0, 70, 109
1, 99064, Note_off_c, 0, 70, 109
1, 99064, Note_on_c, 0, 67, 111
1, 99153, Note_off_c, 0, 67, 111
1, 99153, Note_on_c, 0, 63, 113
1, 99248, Note_off_c, 0, 63, 113
1, 99248, Note_on_c, 0, 58, 93
1, 99345, Note_off_c, 0, 58, 93
1, 99345, Note_on_c, 0, 65, 114
1, 99439, Note_off_c, 0, 65, 114
1, 99439, Note_on_c, 0, 64, 120
1, 99520, Note_off_c, 0, 64, 120
1, 99520, Note_on_c, 0, 63, 115
1, 99622, Note_off_c, 0, 63, 115
1, 99622, Note_on_c, 0, 67, 110
1, 99702, Note_off_c, 0, 67, 110
1, 99702, Note_on_c, 0, 63, 115
1, 99798, Note_off_c, 0, 63, 115
1, 99812, Note_on_c, 0, 65, 109
1, 99916, Note_off_c, 0, 65, 109
1, 99916, Note_on_c, 0, 68, 109
1, 100018, Note_off_c, 0, 68, 109
1, 100022, Note_on_c, 0, 72, 101
1, 100093, Note_off_c, 0, 72, 101
1, 100094, Note_on_c, 0, 77, 96
1, 102175, Note_off_c, 0, 77, 96
1, 102179, Note_on_c, 0, 75, 120
1, 102357, Note_off_c, 0, 75, 120
1, 102388, Note_on_c, 0, 72, 95
1, 102724, Note_off_c, 0, 72, 95
1, 103570, Note_on_c, 0, 63, 127
1, 103646, Note_off_c, 0, 63, 127
1, 103654, Note_on_c, 0, 65, 112
1, 103716, Note_off_c, 0, 65, 112
1, 103719, Note_on_c, 0, 68, 113
1, 103787, Note_off_c, 0, 68, 113
1, 103787, Note_on_c, 0, 71, 97
1, 103846, Note_off_c, 0, 71, 97
1, 103910, Note_on_c, 0, 79, 117
1, 104835, Note_off_c, 0, 79, 117
1, 104835, Note_on_c, 0, 75, 122
1, 104953, Note_off_c, 0, 75, 122
1, 105038, Note_on_c, 0, 71, 115
1, 105158, Note_off_c, 0, 71, 115
1, 105241, Note_on_c, 0, 70, 111
1, 105403, Note_off_c, 0, 70, 111
1, 105403, Note_on_c, 0, 68, 118
1, 105605, Note_off_c, 0, 68, 118
1, 105605, Note_on_c, 0, 70, 112
1, 105708, Note_on_c, 0, 67, 102
1, 105708, Note_off_c, 0, 70, 112
1, 106023, Note_off_c, 0, 67, 102
1, 106550, Note_on_c, 0, 70, 120
1, 106626, Note_off_c, 0, 70, 120
1, 106648, Note_on_c, 0, 70, 121
1, 106735, Note_on_c, 0, 72, 119
1, 106735, Note_off_c, 0, 70, 121
1, 106831, Note_off_c, 0, 72, 119
1, 106842, Note_on_c, 0, 70, 108
1, 106914, Note_off_c, 0, 70, 108
1, 106914, Note_on_c, 0, 68, 118
1, 107025, Note_off_c, 0, 68, 118
1, 107033, Note_on_c, 0, 65, 116
1, 107093, Note_off_c, 0, 65, 116
1, 107117, Note_on_c, 0, 65, 109
1, 107179, Note_off_c, 0, 65, 109
1, 107180, Note_on_c, 0, 68, 112
1, 107266, Note_off_c, 0, 68, 112
1, 107294, Note_on_c, 0, 70, 109
1, 107388, Note_off_c, 0, 70, 109
1, 107407, Note_on_c, 0, 70, 120
1, 107462, Note_off_c, 0, 70, 120
1, 107489, Note_on_c, 0, 70, 107
1, 107547, Note_off_c, 0, 70, 107
1, 107559, Note_on_c, 0, 70, 115
1, 107648, Note_off_c, 0, 70, 115
1, 107661, Note_on_c, 0, 72, 109
1, 107765, Note_off_c, 0, 72, 109
1, 107783, Note_on_c, 0, 70, 121
1, 107840, Note_off_c, 0, 70, 121
1, 107840, Note_on_c, 0, 72, 113
1, 107935, Note_off_c, 0, 72, 113
1, 107940, Note_on_c, 0, 72, 105
1, 108017, Note_off_c, 0, 72, 105
1, 108018, Note_on_c, 0, 70, 115
1, 108097, Note_off_c, 0, 70, 115
1, 108097, Note_on_c, 0, 69, 105
1, 108185, Note_off_c, 0, 69, 105
1, 108187, Note_on_c, 0, 68, 104
1, 108265, Note_off_c, 0, 68, 104
1, 108274, Note_on_c, 0, 70, 103
1, 108335, Note_off_c, 0, 70, 103
1, 108413, Note_on_c, 0, 67, 109
1, 108463, Note_off_c, 0, 67, 109
1, 108463, Note_on_c, 0, 66, 109
1, 108507, Note_off_c, 0, 66, 109
1, 108507, Note_on_c, 0, 67, 102
1, 108581, Note_on_c, 0, 68, 115
1, 108581, Note_off_c, 0, 67, 102
1, 108682, Note_off_c, 0, 68, 115
1, 108692, Note_on_c, 0, 66, 108
1, 108747, Note_off_c, 0, 66, 108
1, 108747, Note_on_c, 0, 67, 112
1, 108829, Note_off_c, 0, 67, 112
1, 108870, Note_on_c, 0, 66, 110
1, 108937, Note_on_c, 0, 65, 111
1, 108937, Note_off_c, 0, 66, 110
1, 109056, Note_off_c, 0, 65, 111
1, 109058, Note_on_c, 0, 64, 121
1, 109149, Note_off_c, 0, 64, 121
1, 109149, Note_on_c, 0, 63, 118
1, 109230, Note_on_c, 0, 65, 108
1, 109230, Note_off_c, 0, 63, 118
1, 109311, Note_off_c, 0, 65, 108
1, 109311, Note_on_c, 0, 66, 108
1, 109416, Note_off_c, 0, 66, 108
1, 109416, Note_on_c, 0, 68, 114
1, 109504, Note_off_c, 0, 68, 114
1, 109504, Note_on_c, 0, 65, 110
1, 109584, Note_off_c, 0, 65, 110
1, 109595, Note_on_c, 0, 66, 99
1, 109673, Note_off_c, 0, 66, 99
1, 109673, Note_on_c, 0, 70, 100
1, 109792, Note_off_c, 0, 70, 100
1, 109806, Note_on_c, 0, 74, 103
1, 109871, Note_off_c, 0, 74, 103
1, 109871, Note_on_c, 0, 77, 99
1, 110608, Note_off_c, 0, 77, 99
1, 110608, Note_on_c, 0, 74, 107
1, 111750, Note_off_c, 0, 74, 107
1, 111750, End_track
0, 0, End_of_file
