0, 0, Header, 1, 1, 192
1, 0, Start_track
1, 0, Title_t, "Melody"
1, 0, Tempo, 372670
1, 0, Key_signature, -2, "major"
1, 0, Time_signature, 4, 2, 24, 8
1, 1899, Note_on_c, 0, 63, 120
1, 1985, Note_off_c, 0, 63, 120
1, 2053, Note_on_c, 0, 68, 117
1, 2103, Note_off_c, 0, 68, 117
1, 2113, Note_on_c, 0, 70, 109
1, 2162, Note_off_c, 0, 70, 109
1, 2176, Note_on_c, 0, 73, 118
1, 2204, Note_off_c, 0, 73, 118
1, 2220, Note_on_c, 0, 75, 126
1, 2426, Note_off_c, 0, 75, 126
1, 2452, Note_on_c, 0, 71, 106
1, 2475, Note_off_c, 0, 71, 106
1, 2491, Note_on_c, 0, 73, 105
1, 2531, Note_off_c, 0, 73, 105
1, 2565, Note_on_c, 0, 70, 111
1, 2678, Note_off_c, 0, 70, 111
1, 2700, Note_on_c, 0, 68, 109
1, 2749, Note_off_c, 0, 68, 109
1, 3438, Note_on_c, 0, 63, 121
1, 3497, Note_off_c, 0, 63, 121
1, 3604, Note_on_c, 0, 67, 113
1, 3647, Note_off_c, 0, 67, 113
1, 3665, Note_on_c, 0, 70, 112
1, 3713, Note_off_c, 0, 70, 112
1, 3746, Note_on_c, 0, 74, 118
1, 3774, Note_off_c, 0, 74, 118
1, 3783, Note_on_c, 0, 75, 123
1, 3951, Note_off_c, 0, 75, 123
1, 3991, Note_on_c, 0, 73, 105
1, 4022, Note_off_c, 0, 73, 105
1, 4102, Note_on_c, 0, 70, 110
1, 4200, Note_off_c, 0, 70, 110
1, 4229, Note_on_c, 0, 68, 111
1, 4252, Note_off_c, 0, 68, 111
1, 4341, Note_on_c, 0, 65, 116
1, 4387, Note_off_c, 0, 65, 116
1, 4467, Note_on_c, 0, 63, 115
1, 4588, Note_off_c, 0, 63, 115
1, 4598, Note_on_c, 0, 61, 115
1, 4657, Note_off_c, 0, 61, 115
1, 4728, Note_on_c, 0, 58, 88
1, 4841, Note_off_c, 0, 58, 88
1, 5443, Note_on_c, 0, 69, 117
1, 5483, Note_off_c, 0, 69, 117
1, 5494, Note_on_c, 0, 67, 113
1, 5531, Note_off_c, 0, 67, 113
1, 5548, Note_on_c, 0, 65, 112
1, 5571, Note_off_c, 0, 65, 112
1, 5597, Note_on_c, 0, 63, 119
1, 5634, Note_off_c, 0, 63, 119
1, 5653, Note_on_c, 0, 62, 104
1, 5718, Note_off_c, 0, 62, 104
1, 6172, Note_on_c, 0, 68, 118
1, 6225, Note_off_c, 0, 68, 118
1, 6230, Note_on_c, 0, 67, 111
1, 6244, Note_off_c, 0, 67, 111
1, 6256, Note_on_c, 0, 66, 113
1, 6306, Note_off_c, 0, 66, 113
1, 6320, Note_on_c, 0, 68, 116
1, 6381, Note_off_c, 0, 68, 116
1, 6389, Note_on_c, 0, 67, 110
1, 6432, Note_off_c, 0, 67, 110
1, 6445, Note_on_c, 0, 66, 109
1, 6492, Note_off_c, 0, 66, 109
1, 6497, Note_on_c, 0, 65, 97
1, 6515, Note_off_c, 0, 65, 97
1, 6520, Note_on_c, 0, 64, 122
1, 6571, Note_off_c, 0, 64, 122
1, 6578, Note_on_c, 0, 63, 119
1, 6617, Note_off_c, 0, 63, 119
1, 6629, Note_on_c, 0, 65, 113
1, 6652, Note_off_c, 0, 65, 113
1, 6657, Note_on_c, 0, 66, 109
1, 6702, Note_off_c, 0, 66, 109
1, 6707, Note_on_c, 0, 64, 103
1, 6744, Note_off_c, 0, 64, 103
1, 6749, Note_on_c, 0, 65, 116
1, 6799, Note_off_c, 0, 65, 116
1, 6807, Note_on_c, 0, 64, 122
1, 6853, Note_off_c, 0, 64, 122
1, 6860, Note_on_c, 0, 63, 119
1, 6899, Note_off_c, 0, 63, 119
1, 6905, Note_on_c, 0, 67, 112
1, 6956, Note_off_c, 0, 67, 112
1, 6969, Note_on_c, 0, 65, 113
1, 6995, Note_off_c, 0, 65, 113
1, 6999, Note_on_c, 0, 63, 119
1, 7043, Note_off_c, 0, 63, 119
1, 7051, Note_on_c, 0, 62, 117
1, 7080, Note_off_c, 0, 62, 117
1, 7088, Note_on_c, 0, 60, 107
1, 7143, Note_off_c, 0, 60, 107
1, 7144, Note_on_c, 0, 58, 102
1, 7172, Note_off_c, 0, 58, 102
1, 7181, Note_on_c, 0, 54, 101
1, 7207, Note_off_c, 0, 54, 101
1, 7214, Note_on_c, 0, 53, 106
1, 7263, Note_off_c, 0, 53, 106
1, 7268, Note_on_c, 0, 51, 101
1, 7303, Note_off_c, 0, 51, 101
1, 7309, Note_on_c, 0, 50, 100
1, 7359, Note_off_c, 0, 50, 100
1, 7371, Note_on_c, 0, 53, 100
1, 7396, Note_off_c, 0, 53, 100
1, 7405, Note_on_c, 0, 57, 102
1, 7438, Note_off_c, 0, 57, 102
1, 7485, Note_on_c, 0, 58, 93
1, 7681, Note_off_c, 0, 58, 93
1, 8478, Note_on_c, 0, 62, 119
1, 8507, Note_off_c, 0, 62, 119
1, 8510, Note_on_c, 0, 63, 120
1, 8551, Note_off_c, 0, 63, 120
1, 8574, Note_on_c, 0, 69, 114
1, 8620, Note_off_c, 0, 69, 114
1, 8628, Note_on_c, 0, 70, 110
1, 8693, Note_off_c, 0, 70, 110
1, 8814, Note_on_c, 0, 58, 95
1, 8926, Note_off_c, 0, 58, 95
1, 8935, Note_on_c, 0, 66, 118
1, 8970, Note_off_c, 0, 66, 118
1, 8976, Note_on_c, 0, 67, 109
1, 9292, Note_off_c, 0, 67, 109
1, 9313, Note_on_c, 0, 62, 121
1, 9381, Note_off_c, 0, 62, 121
1, 9396, Note_on_c, 0, 65, 100
1, 9422, Note_off_c, 0, 65, 100
1, 9429, Note_on_c, 0, 66, 100
1, 9458, Note_off_c, 0, 66, 100
1, 9466, Note_on_c, 0, 65, 108
1, 9505, Note_off_c, 0, 65, 108
1, 9515, Note_on_c, 0, 63, 118
1, 9588, Note_off_c, 0, 63, 118
1, 9608, Note_on_c, 0, 58, 99
1, 9676, Note_off_c, 0, 58, 99
1, 9696, Note_on_c, 0, 55, 96
1, 9744, Note_off_c, 0, 55, 96
1, 9758, Note_on_c, 0, 62, 117
1, 9854, Note_off_c, 0, 62, 117
1, 9863, Note_on_c, 0, 61, 116
1, 9949, Note_off_c, 0, 61, 116
1, 9979, Note_on_c, 0, 57, 98
1, 10047, Note_off_c, 0, 57, 98
1, 10082, Note_on_c, 0, 55, 93
1, 10121, Note_off_c, 0, 55, 93
1, 10146, Note_on_c, 0, 58, 92
1, 10238, Note_off_c, 0, 58, 92
1, 10257, Note_on_c, 0, 60, 117
1, 10334, Note_off_c, 0, 60, 117
1, 10345, Note_on_c, 0, 62, 116
1, 10448, Note_off_c, 0, 62, 116
1, 10458, Note_on_c, 0, 65, 115
1, 10519, Note_off_c, 0, 65, 115
1, 10537, Note_on_c, 0, 61, 113
1, 10652, Note_off_c, 0, 61, 113
1, 10666, Note_on_c, 0, 63, 95
1, 10713, Note_off_c, 0, 63, 95
1, 10721, Note_on_c, 0, 65, 110
1, 10829, Note_off_c, 0, 65, 110
1, 10844, Note_on_c, 0, 68, 113
1, 10919, Note_off_c, 0, 68, 113
1, 10938, Note_on_c, 0, 66, 107
1, 11042, Note_off_c, 0, 66, 107
1, 11050, Note_on_c, 0, 68, 88
1, 11088, Note_off_c, 0, 68, 88
1, 11108, Note_on_c, 0, 70, 105
1, 11205, Note_off_c, 0, 70, 105
1, 11233, Note_on_c, 0, 73, 107
1, 11307, Note_off_c, 0, 73, 107
1, 11333, Note_on_c, 0, 71, 108
1, 11409, Note_off_c, 0, 71, 108
1, 11426, Note_on_c, 0, 69, 112
1, 11511, Note_off_c, 0, 69, 112
1, 11521, Note_on_c, 0, 68, 111
1, 11611, Note_off_c, 0, 68, 111
1, 11634, Note_on_c, 0, 66, 106
1, 11702, Note_off_c, 0, 66, 106
1, 11716, Note_on_c, 0, 65, 108
1, 11818, Note_off_c, 0, 65, 108
1, 11839, Note_on_c, 0, 67, 86
1, 11874, Note_off_c, 0, 67, 86
1, 11897, Note_on_c, 0, 68, 111
1, 11996, Note_off_c, 0, 68, 111
1, 12099, Note_on_c, 0, 70, 109
1, 12190, Note_off_c, 0, 70, 109
1, 12201, Note_on_c, 0, 66, 109
1, 12275, Note_off_c, 0, 66, 109
1, 12294, Note_on_c, 0, 62, 116
1, 12412, Note_off_c, 0, 62, 116
1, 12465, Note_on_c, 0, 63, 110
1, 12661, Note_off_c, 0, 63, 110
1, 13744, Note_on_c, 0, 65, 121
1, 13811, Note_off_c, 0, 65, 121
1, 13846, Note_on_c, 0, 69, 113
1, 13914, Note_off_c, 0, 69, 113
1, 13949, Note_on_c, 0, 74, 107
1, 14029, Note_off_c, 0, 74, 107
1, 14041, Note_on_c, 0, 70, 108
1, 14115, Note_off_c, 0, 70, 108
1, 14137, Note_on_c, 0, 65, 115
1, 14208, Note_off_c, 0, 65, 115
1, 14219, Note_on_c, 0, 62, 120
1, 14361, Note_off_c, 0, 62, 120
1, 14377, Note_on_c, 0, 63, 118
1, 14497, Note_off_c, 0, 63, 118
1, 14511, Note_on_c, 0, 62, 115
1, 14570, Note_off_c, 0, 62, 115
1, 14599, Note_on_c, 0, 58, 92
1, 14689, Note_off_c, 0, 58, 92
1, 14778, Note_on_c, 0, 56, 104
1, 14805, Note_off_c, 0, 56, 104
1, 14809, Note_on_c, 0, 57, 98
1, 14920, Note_off_c, 0, 57, 98
1, 15302, Note_on_c, 0, 53, 109
1, 15355, Note_off_c, 0, 53, 109
1, 15361, Note_on_c, 0, 54, 100
1, 15398, Note_off_c, 0, 54, 100
1, 15412, Note_on_c, 0, 56, 92
1, 15457, Note_off_c, 0, 56, 92
1, 15471, Note_on_c, 0, 62, 119
1, 15499, Note_off_c, 0, 62, 119
1, 15507, Note_on_c, 0, 63, 117
1, 15569, Note_off_c, 0, 63, 117
1, 15587, Note_on_c, 0, 66, 109
1, 15666, Note_off_c, 0, 66, 109
1, 15680, Note_on_c, 0, 69, 107
1, 15749, Note_off_c, 0, 69, 107
1, 15781, Note_on_c, 0, 74, 104
1, 15845, Note_off_c, 0, 74, 104
1, 15889, Note_on_c, 0, 77, 106
1, 15955, Note_off_c, 0, 77, 106
1, 15971, Note_on_c, 0, 75, 114
1, 16057, Note_off_c, 0, 75, 114
1, 16069, Note_on_c, 0, 77, 106
1, 16101, Note_off_c, 0, 77, 106
1, 16109, Note_on_c, 0, 75, 113
1, 16174, Note_off_c, 0, 75, 113
1, 16180, Note_on_c, 0, 74, 102
1, 16248, Note_off_c, 0, 74, 102
1, 16273, Note_on_c, 0, 72, 104
1, 16333, Note_off_c, 0, 72, 104
1, 16365, Note_on_c, 0, 71, 107
1, 16443, Note_off_c, 0, 71, 107
1, 16477, Note_on_c, 0, 67, 97
1, 16507, Note_off_c, 0, 67, 97
1, 16516, Note_on_c, 0, 69, 111
1, 16603, Note_off_c, 0, 69, 111
1, 16621, Note_on_c, 0, 65, 115
1, 16691, Note_off_c, 0, 65, 115
1, 16718, Note_on_c, 0, 62, 117
1, 16809, Note_off_c, 0, 62, 117
1, 16817, Note_on_c, 0, 60, 114
1, 16891, Note_off_c, 0, 60, 114
1, 16903, Note_on_c, 0, 59, 97
1, 17006, Note_off_c, 0, 59, 97
1, 17068, Note_on_c, 0, 56, 92
1, 17091, Note_off_c, 0, 56, 92
1, 17101, Note_on_c, 0, 57, 97
1, 17170, Note_off_c, 0, 57, 97
1, 17193, Note_on_c, 0, 53, 101
1, 17261, Note_off_c, 0, 53, 101
1, 17288, Note_on_c, 0, 50, 95
1, 17386, Note_off_c, 0, 50, 95
1, 17392, Note_on_c, 0, 48, 91
1, 17449, Note_off_c, 0, 48, 91
1, 17486, Note_on_c, 0, 47, 92
1, 17632, Note_off_c, 0, 47, 92
1, 17653, Note_on_c, 0, 55, 98
1, 17791, Note_off_c, 0, 55, 98
1, 17806, Note_on_c, 0, 52, 90
1, 17990, Note_off_c, 0, 52, 90
1, 18810, Note_on_c, 0, 64, 124
1, 18869, Note_off_c, 0, 64, 124
1, 18873, Note_on_c, 0, 65, 113
1, 18899, Note_off_c, 0, 65, 113
1, 18907, Note_on_c, 0, 67, 111
1, 18948, Note_off_c, 0, 67, 111
1, 18958, Note_on_c, 0, 64, 121
1, 19018, Note_off_c, 0, 64, 121
1, 19029, Note_on_c, 0, 57, 101
1, 19057, Note_off_c, 0, 57, 101
1, 19078, Note_on_c, 0, 60, 106
1, 19106, Note_off_c, 0, 60, 106
1, 19116, Note_on_c, 0, 64, 113
1, 19151, Note_off_c, 0, 64, 113
1, 19154, Note_on_c, 0, 67, 104
1, 19170, Note_off_c, 0, 67, 104
1, 19178, Note_on_c, 0, 69, 118
1, 19217, Note_off_c, 0, 69, 118
1, 19221, Note_on_c, 0, 70, 105
1, 19229, Note_off_c, 0, 70, 105
1, 19236, Note_on_c, 0, 74, 105
1, 19284, Note_off_c, 0, 74, 105
1, 19285, Note_on_c, 0, 72, 105
1, 19298, Note_off_c, 0, 72, 105
1, 19320, Note_on_c, 0, 70, 112
1, 19362, Note_off_c, 0, 70, 112
1, 19369, Note_on_c, 0, 69, 111
1, 19412, Note_off_c, 0, 69, 111
1, 19421, Note_on_c, 0, 67, 113
1, 19457, Note_off_c, 0, 67, 113
1, 19463, Note_on_c, 0, 65, 116
1, 19497, Note_off_c, 0, 65, 116
1, 19508, Note_on_c, 0, 64, 122
1, 19561, Note_off_c, 0, 64, 122
1, 19569, Note_on_c, 0, 63, 113
1, 19603, Note_off_c, 0, 63, 113
1, 19613, Note_on_c, 0, 65, 113
1, 19645, Note_off_c, 0, 65, 113
1, 19655, Note_on_c, 0, 67, 113
1, 19688, Note_off_c, 0, 67, 113
1, 19699, Note_on_c, 0, 63, 110
1, 19724, Note_off_c, 0, 63, 110
1, 19729, Note_on_c, 0, 64, 112
1, 19737, Note_off_c, 0, 64, 112
1, 19741, Note_on_c, 0, 65, 115
1, 19775, Note_off_c, 0, 65, 115
1, 19781, Note_on_c, 0, 64, 122
1, 19822, Note_off_c, 0, 64, 122
1, 19831, Note_on_c, 0, 63, 119
1, 19868, Note_off_c, 0, 63, 119
1, 19879, Note_on_c, 0, 67, 107
1, 19918, Note_off_c, 0, 67, 107
1, 19925, Note_on_c, 0, 65, 114
1, 19969, Note_off_c, 0, 65, 114
1, 19981, Note_on_c, 0, 63, 116
1, 20025, Note_off_c, 0, 63, 116
1, 20035, Note_on_c, 0, 58, 100
1, 20069, Note_off_c, 0, 58, 100
1, 20081, Note_on_c, 0, 55, 99
1, 20110, Note_off_c, 0, 55, 99
1, 20119, Note_on_c, 0, 60, 116
1, 20215, Note_off_c, 0, 60, 116
1, 20436, Note_on_c, 0, 62, 117
1, 20498, Note_off_c, 0, 62, 117
1, 20519, Note_on_c, 0, 63, 118
1, 20613, Note_off_c, 0, 63, 118
1, 20629, Note_on_c, 0, 65, 114
1, 20688, Note_off_c, 0, 65, 114
1, 20707, Note_on_c, 0, 65, 112
1, 20741, Note_off_c, 0, 65, 112
1, 20756, Note_on_c, 0, 66, 107
1, 20793, Note_off_c, 0, 66, 107
1, 20798, Note_on_c, 0, 67, 95
1, 20825, Note_off_c, 0, 67, 95
1, 20836, Note_on_c, 0, 66, 107
1, 20866, Note_off_c, 0, 66, 107
1, 20878, Note_on_c, 0, 65, 110
1, 20977, Note_off_c, 0, 65, 110
1, 21007, Note_on_c, 0, 70, 108
1, 21066, Note_off_c, 0, 70, 108
1, 21480, Note_on_c, 0, 65, 117
1, 21533, Note_off_c, 0, 65, 117
1, 21540, Note_on_c, 0, 62, 118
1, 21598, Note_off_c, 0, 62, 118
1, 21604, Note_on_c, 0, 63, 110
1, 21818, Note_off_c, 0, 63, 110
1, 21868, Note_on_c, 0, 68, 113
1, 21914, Note_off_c, 0, 68, 113
1, 21925, Note_on_c, 0, 67, 109
1, 21961, Note_off_c, 0, 67, 109
1, 21975, Note_on_c, 0, 66, 103
1, 22031, Note_off_c, 0, 66, 103
1, 22244, Note_on_c, 0, 64, 121
1, 22300, Note_off_c, 0, 64, 121
1, 22311, Note_on_c, 0, 65, 109
1, 22361, Note_off_c, 0, 65, 109
1, 22368, Note_on_c, 0, 66, 106
1, 22418, Note_off_c, 0, 66, 106
1, 22628, Note_on_c, 0, 64, 123
1, 22678, Note_off_c, 0, 64, 123
1, 22689, Note_on_c, 0, 65, 111
1, 22733, Note_off_c, 0, 65, 111
1, 22735, Note_on_c, 0, 66, 106
1, 22769, Note_off_c, 0, 66, 106
1, 22781, Note_on_c, 0, 64, 104
1, 22807, Note_off_c, 0, 64, 104
1, 22811, Note_on_c, 0, 65, 116
1, 22863, Note_off_c, 0, 65, 116
1, 22865, Note_on_c, 0, 64, 122
1, 22912, Note_off_c, 0, 64, 122
1, 22917, Note_on_c, 0, 63, 117
1, 22955, Note_off_c, 0, 63, 117
1, 22965, Note_on_c, 0, 67, 110
1, 23003, Note_off_c, 0, 67, 110
1, 23017, Note_on_c, 0, 65, 112
1, 23049, Note_off_c, 0, 65, 112
1, 23057, Note_on_c, 0, 62, 115
1, 23108, Note_off_c, 0, 62, 115
1, 23120, Note_on_c, 0, 59, 100
1, 23169, Note_off_c, 0, 59, 100
1, 23197, Note_on_c, 0, 63, 119
1, 23250, Note_off_c, 0, 63, 119
1, 23259, Note_on_c, 0, 62, 113
1, 23309, Note_off_c, 0, 62, 113
1, 23320, Note_on_c, 0, 55, 101
1, 23376, Note_off_c, 0, 55, 101
1, 23384, Note_on_c, 0, 60, 114
1, 23437, Note_off_c, 0, 60, 114
1, 23447, Note_on_c, 0, 62, 115
1, 23486, Note_off_c, 0, 62, 115
1, 23491, Note_on_c, 0, 63, 116
1, 23538, Note_off_c, 0, 63, 116
1, 23546, Note_on_c, 0, 64, 118
1, 23575, Note_off_c, 0, 64, 118
1, 23578, Note_on_c, 0, 65, 111
1, 23620, Note_off_c, 0, 65, 111
1, 23630, Note_on_c, 0, 64, 120
1, 23677, Note_off_c, 0, 64, 120
1, 23686, Note_on_c, 0, 63, 116
1, 23733, Note_off_c, 0, 63, 116
1, 23739, Note_on_c, 0, 67, 108
1, 23777, Note_off_c, 0, 67, 108
1, 23787, Note_on_c, 0, 65, 110
1, 23818, Note_off_c, 0, 65, 110
1, 23826, Note_on_c, 0, 63, 115
1, 23873, Note_off_c, 0, 63, 115
1, 23879, Note_on_c, 0, 62, 113
1, 23907, Note_off_c, 0, 62, 113
1, 23909, Note_on_c, 0, 60, 109
1, 23953, Note_off_c, 0, 60, 109
1, 23964, Note_on_c, 0, 57, 101
1, 24009, Note_off_c, 0, 57, 101
1, 24015, Note_on_c, 0, 60, 105
1, 24051, Note_off_c, 0, 60, 105
1, 24061, Note_on_c, 0, 62, 104
1, 24099, Note_off_c, 0, 62, 104
1, 24110, Note_on_c, 0, 65, 98
1, 24148, Note_off_c, 0, 65, 98
1, 24157, Note_on_c, 0, 70, 109
1, 24295, Note_off_c, 0, 70, 109
1, 24308, Note_on_c, 0, 65, 98
1, 24353, Note_off_c, 0, 65, 98
1, 24364, Note_on_c, 0, 68, 114
1, 24404, Note_off_c, 0, 68, 114
1, 24406, Note_on_c, 0, 67, 108
1, 24415, Note_off_c, 0, 67, 108
1, 24420, Note_on_c, 0, 62, 104
1, 24638, Note_off_c, 0, 62, 104
1, 24750, Note_on_c, 0, 63, 119
1, 24795, Note_off_c, 0, 63, 119
1, 24817, Note_on_c, 0, 70, 110
1, 24872, Note_off_c, 0, 70, 110
1, 24934, Note_on_c, 0, 70, 107
1, 25079, Note_off_c, 0, 70, 107
1, 25108, Note_on_c, 0, 64, 120
1, 25161, Note_off_c, 0, 64, 120
1, 25171, Note_on_c, 0, 70, 107
1, 25245, Note_off_c, 0, 70, 107
1, 25310, Note_on_c, 0, 70, 108
1, 25475, Note_off_c, 0, 70, 108
1, 25491, Note_on_c, 0, 65, 110
1, 25547, Note_off_c, 0, 65, 110
1, 25561, Note_on_c, 0, 70, 110
1, 25628, Note_off_c, 0, 70, 110
1, 25701, Note_on_c, 0, 70, 92
1, 25894, Note_off_c, 0, 70, 92
1, 26831, Note_on_c, 0, 65, 116
1, 26896, Note_off_c, 0, 65, 116
1, 26901, Note_on_c, 0, 67, 99
1, 26945, Note_off_c, 0, 67, 99
1, 26960, Note_on_c, 0, 70, 108
1, 27016, Note_off_c, 0, 70, 108
1, 27058, Note_on_c, 0, 72, 88
1, 27080, Note_off_c, 0, 72, 88
1, 27088, Note_on_c, 0, 75, 122
1, 27212, Note_off_c, 0, 75, 122
1, 27249, Note_on_c, 0, 72, 104
1, 27261, Note_off_c, 0, 72, 104
1, 27263, Note_on_c, 0, 73, 109
1, 27331, Note_off_c, 0, 73, 109
1, 27375, Note_on_c, 0, 70, 113
1, 27585, Note_off_c, 0, 70, 113
1, 28004, Note_on_c, 0, 63, 120
1, 28068, Note_off_c, 0, 63, 120
1, 28079, Note_on_c, 0, 65, 103
1, 28108, Note_off_c, 0, 65, 103
1, 28131, Note_on_c, 0, 68, 109
1, 28198, Note_off_c, 0, 68, 109
1, 28242, Note_on_c, 0, 72, 106
1, 28268, Note_off_c, 0, 72, 106
1, 28272, Note_on_c, 0, 73, 109
1, 28381, Note_off_c, 0, 73, 109
1, 28401, Note_on_c, 0, 70, 112
1, 28504, Note_off_c, 0, 70, 112
1, 28524, Note_on_c, 0, 66, 111
1, 28617, Note_off_c, 0, 66, 111
1, 28663, Note_on_c, 0, 63, 118
1, 28787, Note_off_c, 0, 63, 118
1, 28893, Note_on_c, 0, 66, 110
1, 28984, Note_off_c, 0, 66, 110
1, 28990, Note_on_c, 0, 65, 113
1, 29072, Note_off_c, 0, 65, 113
1, 29076, Note_on_c, 0, 62, 115
1, 29150, Note_off_c, 0, 62, 115
1, 29169, Note_on_c, 0, 59, 97
1, 29272, Note_off_c, 0, 59, 97
1, 29355, Note_on_c, 0, 60, 112
1, 29442, Note_off_c, 0, 60, 112
1, 29459, Note_on_c, 0, 62, 115
1, 29541, Note_off_c, 0, 62, 115
1, 29552, Note_on_c, 0, 63, 117
1, 29652, Note_off_c, 0, 63, 117
1, 29658, Note_on_c, 0, 64, 120
1, 29738, Note_off_c, 0, 64, 120
1, 29744, Note_on_c, 0, 65, 112
1, 29838, Note_off_c, 0, 65, 112
1, 29855, Note_on_c, 0, 61, 112
1, 29917, Note_off_c, 0, 61, 112
1, 29960, Note_on_c, 0, 57, 98
1, 30053, Note_off_c, 0, 57, 98
1, 30107, Note_on_c, 0, 58, 89
1, 30223, Note_off_c, 0, 58, 89
1, 30237, Note_on_c, 0, 60, 113
1, 30317, Note_off_c, 0, 60, 113
1, 30332, Note_on_c, 0, 62, 117
1, 30421, Note_off_c, 0, 62, 117
1, 30446, Note_on_c, 0, 65, 112
1, 30509, Note_off_c, 0, 65, 112
1, 30521, Note_on_c, 0, 70, 111
1, 30622, Note_off_c, 0, 70, 111
1, 30711, Note_on_c, 0, 68, 9
1, 30805, Note_off_c, 0, 68, 9
1, 30813, Note_on_c, 0, 70, 107
1, 30864, Note_off_c, 0, 70, 107
1, 30898, Note_on_c, 0, 64, 103
1, 30926, Note_off_c, 0, 64, 103
1, 30932, Note_on_c, 0, 67, 111
1, 30996, Note_off_c, 0, 67, 111
1, 31024, Note_on_c, 0, 63, 117
1, 31087, Note_off_c, 0, 63, 117
1, 31202, Note_on_c, 0, 60, 114
1, 31273, Note_off_c, 0, 60, 114
1, 31294, Note_on_c, 0, 60, 115
1, 31365, Note_off_c, 0, 60, 115
1, 31367, Note_on_c, 0, 61, 113
1, 31384, Note_off_c, 0, 61, 113
1, 31387, Note_on_c, 0, 62, 116
1, 31412, Note_off_c, 0, 62, 116
1, 31418, Note_on_c, 0, 61, 118
1, 31438, Note_off_c, 0, 61, 118
1, 31446, Note_on_c, 0, 60, 110
1, 31570, Note_off_c, 0, 60, 110
1, 31586, Note_on_c, 0, 55, 96
1, 31648, Note_off_c, 0, 55, 96
1, 31650, Note_on_c, 0, 60, 109
1, 31673, Note_off_c, 0, 60, 109
1, 31676, Note_on_c, 0, 62, 116
1, 31761, Note_off_c, 0, 62, 116
1, 31773, Note_on_c, 0, 65, 94
1, 31942, Note_off_c, 0, 65, 94
1, 32966, Note_on_c, 0, 68, 124
1, 33010, Note_off_c, 0, 68, 124
1, 33012, Note_on_c, 0, 67, 113
1, 33075, Note_off_c, 0, 67, 113
1, 33104, Note_on_c, 0, 68, 113
1, 33196, Note_off_c, 0, 68, 113
1, 33202, Note_on_c, 0, 67, 111
1, 33320, Note_off_c, 0, 67, 111
1, 33325, Note_on_c, 0, 68, 113
1, 33388, Note_off_c, 0, 68, 113
1, 33389, Note_on_c, 0, 67, 113
1, 33454, Note_off_c, 0, 67, 113
1, 33459, Note_on_c, 0, 68, 111
1, 33532, Note_off_c, 0, 68, 111
1, 33535, Note_on_c, 0, 67, 112
1, 33635, Note_off_c, 0, 67, 112
1, 33655, Note_on_c, 0, 62, 103
1, 33717, Note_off_c, 0, 62, 103
1, 33738, Note_on_c, 0, 65, 105
1, 33945, Note_off_c, 0, 65, 105
1, 34486, Note_on_c, 0, 67, 116
1, 34536, Note_off_c, 0, 67, 116
1, 34543, Note_on_c, 0, 68, 110
1, 35067, Note_off_c, 0, 68, 110
1, 35081, Note_on_c, 0, 66, 106
1, 35159, Note_off_c, 0, 66, 106
1, 35193, Note_on_c, 0, 61, 111
1, 35275, Note_off_c, 0, 61, 111
1, 35343, Note_on_c, 0, 63, 94
1, 35705, Note_off_c, 0, 63, 94
1, 35819, Note_on_c, 0, 68, 119
1, 35875, Note_off_c, 0, 68, 119
1, 35880, Note_on_c, 0, 67, 111
1, 35895, Note_off_c, 0, 67, 111
1, 35902, Note_on_c, 0, 66, 108
1, 35939, Note_off_c, 0, 66, 108
1, 35951, Note_on_c, 0, 68, 114
1, 35988, Note_off_c, 0, 68, 114
1, 35997, Note_on_c, 0, 67, 109
1, 36026, Note_off_c, 0, 67, 109
1, 36045, Note_on_c, 0, 66, 108
1, 36075, Note_off_c, 0, 66, 108
1, 36089, Note_on_c, 0, 65, 107
1, 36121, Note_off_c, 0, 65, 107
1, 36137, Note_on_c, 0, 64, 119
1, 36182, Note_off_c, 0, 64, 119
1, 36194, Note_on_c, 0, 63, 119
1, 36256, Note_off_c, 0, 63, 119
1, 36262, Note_on_c, 0, 65, 112
1, 36284, Note_off_c, 0, 65, 112
1, 36289, Note_on_c, 0, 66, 108
1, 36318, Note_off_c, 0, 66, 108
1, 36341, Note_on_c, 0, 64, 107
1, 36367, Note_off_c, 0, 64, 107
1, 36386, Note_on_c, 0, 65, 115
1, 36425, Note_off_c, 0, 65, 115
1, 36431, Note_on_c, 0, 64, 120
1, 36465, Note_off_c, 0, 64, 120
1, 36473, Note_on_c, 0, 63, 118
1, 36514, Note_off_c, 0, 63, 118
1, 36528, Note_on_c, 0, 67, 109
1, 36563, Note_off_c, 0, 67, 109
1, 36571, Note_on_c, 0, 65, 108
1, 36606, Note_off_c, 0, 65, 108
1, 36615, Note_on_c, 0, 62, 115
1, 36670, Note_off_c, 0, 62, 115
1, 36691, Note_on_c, 0, 55, 103
1, 36729, Note_off_c, 0, 55, 103
1, 36753, Note_on_c, 0, 63, 118
1, 36797, Note_off_c, 0, 63, 118
1, 36807, Note_on_c, 0, 61, 113
1, 36859, Note_off_c, 0, 61, 113
1, 36869, Note_on_c, 0, 58, 119
1, 36890, Note_off_c, 0, 58, 119
1, 36898, Note_on_c, 0, 57, 104
1, 36924, Note_off_c, 0, 57, 104
1, 36938, Note_on_c, 0, 56, 102
1, 36983, Note_off_c, 0, 56, 102
1, 36994, Note_on_c, 0, 58, 105
1, 37023, Note_off_c, 0, 58, 105
1, 37028, Note_on_c, 0, 61, 117
1, 37078, Note_off_c, 0, 61, 117
1, 37080, Note_on_c, 0, 63, 114
1, 37121, Note_off_c, 0, 63, 114
1, 37129, Note_on_c, 0, 65, 110
1, 37168, Note_off_c, 0, 65, 110
1, 37178, Note_on_c, 0, 68, 108
1, 37221, Note_off_c, 0, 68, 108
1, 37227, Note_on_c, 0, 70, 103
1, 37262, Note_off_c, 0, 70, 103
1, 37275, Note_on_c, 0, 73, 102
1, 37310, Note_off_c, 0, 73, 102
1, 37323, Note_on_c, 0, 70, 109
1, 37411, Note_off_c, 0, 70, 109
1, 37416, Note_on_c, 0, 73, 105
1, 37449, Note_off_c, 0, 73, 105
1, 37500, Note_on_c, 0, 68, 111
1, 37600, Note_off_c, 0, 68, 111
1, 37606, Note_on_c, 0, 73, 103
1, 37653, Note_off_c, 0, 73, 103
1, 37703, Note_on_c, 0, 66, 109
1, 37790, Note_off_c, 0, 66, 109
1, 37816, Note_on_c, 0, 73, 97
1, 37867, Note_off_c, 0, 73, 97
1, 37902, Note_on_c, 0, 65, 113
1, 37987, Note_off_c, 0, 65, 113
1, 38018, Note_on_c, 0, 73, 105
1, 38055, Note_off_c, 0, 73, 105
1, 38080, Note_on_c, 0, 64, 119
1, 38181, Note_off_c, 0, 64, 119
1, 38196, Note_on_c, 0, 73, 92
1, 38238, Note_off_c, 0, 73, 92
1, 38276, Note_on_c, 0, 63, 117
1, 38374, Note_off_c, 0, 63, 117
1, 38391, Note_on_c, 0, 73, 100
1, 38429, Note_off_c, 0, 73, 100
1, 38497, Note_on_c, 0, 62, 111
1, 38559, Note_off_c, 0, 62, 111
1, 38574, Note_on_c, 0, 70, 99
1, 38618, Note_off_c, 0, 70, 99
1, 38651, Note_on_c, 0, 70, 106
1, 38754, Note_off_c, 0, 70, 106
1, 39142, Note_on_c, 0, 70, 115
1, 39211, Note_off_c, 0, 70, 115
1, 39228, Note_on_c, 0, 72, 100
1, 39259, Note_off_c, 0, 72, 100
1, 39266, Note_on_c, 0, 74, 103
1, 39319, Note_off_c, 0, 74, 103
1, 39327, Note_on_c, 0, 73, 93
1, 39414, Note_off_c, 0, 73, 93
1, 39423, Note_on_c, 0, 77, 101
1, 39520, Note_off_c, 0, 77, 101
1, 39598, Note_on_c, 0, 72, 104
1, 39672, Note_off_c, 0, 72, 104
1, 39712, Note_on_c, 0, 77, 93
1, 39863, Note_off_c, 0, 77, 93
1, 39949, Note_on_c, 0, 70, 107
1, 40059, Note_off_c, 0, 70, 107
1, 40090, Note_on_c, 0, 77, 93
1, 40245, Note_off_c, 0, 77, 93
1, 40330, Note_on_c, 0, 69, 104
1, 40426, Note_off_c, 0, 69, 104
1, 40435, Note_on_c, 0, 73, 90
1, 40485, Note_off_c, 0, 73, 90
1, 40499, Note_on_c, 0, 77, 96
1, 40625, Note_off_c, 0, 77, 96
1, 40847, Note_on_c, 0, 70, 109
1, 40875, Note_off_c, 0, 70, 109
1, 40890, Note_on_c, 0, 73, 104
1, 40955, Note_off_c, 0, 73, 104
1, 40964, Note_on_c, 0, 76, 109
1, 41449, Note_off_c, 0, 76, 109
1, 41676, Note_on_c, 0, 73, 105
1, 41754, Note_off_c, 0, 73, 105
1, 41788, Note_on_c, 0, 76, 119
1, 41855, Note_off_c, 0, 76, 119
1, 41884, Note_on_c, 0, 73, 103
1, 41964, Note_off_c, 0, 73, 103
1, 41978, Note_on_c, 0, 69, 106
1, 42049, Note_off_c, 0, 69, 106
1, 42072, Note_on_c, 0, 65, 113
1, 42166, Note_off_c, 0, 65, 113
1, 42453, Note_on_c, 0, 70, 111
1, 42476, Note_off_c, 0, 70, 111
1, 42494, Note_on_c, 0, 72, 105
1, 42559, Note_off_c, 0, 72, 105
1, 42579, Note_on_c, 0, 75, 107
1, 42638, Note_off_c, 0, 75, 107
1, 42673, Note_on_c, 0, 72, 105
1, 42738, Note_off_c, 0, 72, 105
1, 42758, Note_on_c, 0, 68, 113
1, 42836, Note_off_c, 0, 68, 113
1, 42867, Note_on_c, 0, 64, 120
1, 42953, Note_off_c, 0, 64, 120
1, 42975, Note_on_c, 0, 63, 117
1, 43056, Note_off_c, 0, 63, 117
1, 43069, Note_on_c, 0, 61, 109
1, 43140, Note_off_c, 0, 61, 109
1, 43154, Note_on_c, 0, 63, 118
1, 43225, Note_off_c, 0, 63, 118
1, 43233, Note_on_c, 0, 64, 120
1, 43347, Note_off_c, 0, 64, 120
1, 43363, Note_on_c, 0, 66, 88
1, 43399, Note_off_c, 0, 66, 88
1, 43420, Note_on_c, 0, 68, 113
1, 43514, Note_off_c, 0, 68, 113
1, 43532, Note_on_c, 0, 72, 98
1, 43594, Note_off_c, 0, 72, 98
1, 43632, Note_on_c, 0, 75, 103
1, 43709, Note_off_c, 0, 75, 103
1, 43734, Note_on_c, 0, 73, 107
1, 43811, Note_off_c, 0, 73, 107
1, 43825, Note_on_c, 0, 72, 105
1, 43904, Note_off_c, 0, 72, 105
1, 43919, Note_on_c, 0, 70, 112
1, 43998, Note_off_c, 0, 70, 112
1, 44015, Note_on_c, 0, 69, 111
1, 44095, Note_off_c, 0, 69, 111
1, 44124, Note_on_c, 0, 72, 105
1, 44169, Note_off_c, 0, 72, 105
1, 44206, Note_on_c, 0, 68, 114
1, 44293, Note_off_c, 0, 68, 114
1, 44314, Note_on_c, 0, 67, 109
1, 44385, Note_off_c, 0, 67, 109
1, 44405, Note_on_c, 0, 66, 108
1, 44482, Note_off_c, 0, 66, 108
1, 44490, Note_on_c, 0, 68, 113
1, 44572, Note_off_c, 0, 68, 113
1, 44587, Note_on_c, 0, 65, 114
1, 44676, Note_off_c, 0, 65, 114
1, 44683, Note_on_c, 0, 63, 117
1, 44768, Note_off_c, 0, 63, 117
1, 44774, Note_on_c, 0, 58, 95
1, 44880, Note_off_c, 0, 58, 95
1, 44894, Note_on_c, 0, 55, 103
1, 44947, Note_off_c, 0, 55, 103
1, 44957, Note_on_c, 0, 60, 110
1, 44980, Note_off_c, 0, 60, 110
1, 44985, Note_on_c, 0, 61, 114
1, 44997, Note_off_c, 0, 61, 114
1, 45004, Note_on_c, 0, 62, 117
1, 45075, Note_off_c, 0, 62, 117
1, 45135, Note_on_c, 0, 67, 109
1, 45235, Note_off_c, 0, 67, 109
1, 45268, Note_on_c, 0, 70, 96
1, 45433, Note_off_c, 0, 70, 96
1, 45833, Note_on_c, 0, 70, 116
1, 45907, Note_off_c, 0, 70, 116
1, 45956, Note_on_c, 0, 70, 114
1, 46028, Note_off_c, 0, 70, 114
1, 46048, Note_on_c, 0, 70, 111
1, 46119, Note_off_c, 0, 70, 111
1, 46136, Note_on_c, 0, 71, 108
1, 46167, Note_off_c, 0, 71, 108
1, 46172, Note_on_c, 0, 72, 108
1, 46226, Note_off_c, 0, 72, 108
1, 46228, Note_on_c, 0, 73, 108
1, 46239, Note_off_c, 0, 73, 108
1, 46244, Note_on_c, 0, 74, 102
1, 46267, Note_off_c, 0, 74, 102
1, 46281, Note_on_c, 0, 70, 109
1, 46349, Note_off_c, 0, 70, 109
1, 46363, Note_on_c, 0, 68, 114
1, 46437, Note_off_c, 0, 68, 114
1, 46448, Note_on_c, 0, 65, 114
1, 46518, Note_off_c, 0, 65, 114
1, 46526, Note_on_c, 0, 63, 116
1, 46613, Note_off_c, 0, 63, 116
1, 46622, Note_on_c, 0, 61, 114
1, 46690, Note_off_c, 0, 61, 114
1, 46701, Note_on_c, 0, 58, 101
1, 46778, Note_off_c, 0, 58, 101
1, 46780, Note_on_c, 0, 57, 108
1, 46788, Note_off_c, 0, 57, 108
1, 47276, Note_on_c, 0, 72, 108
1, 47320, Note_off_c, 0, 72, 108
1, 47328, Note_on_c, 0, 73, 102
1, 47348, Note_off_c, 0, 73, 102
1, 47353, Note_on_c, 0, 72, 98
1, 47369, Note_off_c, 0, 72, 98
1, 47376, Note_on_c, 0, 70, 110
1, 47438, Note_off_c, 0, 70, 110
1, 47464, Note_on_c, 0, 68, 113
1, 47558, Note_off_c, 0, 68, 113
1, 47575, Note_on_c, 0, 65, 109
1, 47634, Note_off_c, 0, 65, 109
1, 47654, Note_on_c, 0, 72, 103
1, 47668, Note_off_c, 0, 72, 103
1, 47674, Note_on_c, 0, 73, 107
1, 47707, Note_off_c, 0, 73, 107
1, 47710, Note_on_c, 0, 74, 105
1, 47736, Note_off_c, 0, 74, 105
1, 47739, Note_on_c, 0, 73, 107
1, 47765, Note_off_c, 0, 73, 107
1, 47766, Note_on_c, 0, 70, 108
1, 47816, Note_off_c, 0, 70, 108
1, 47827, Note_on_c, 0, 68, 114
1, 47898, Note_off_c, 0, 68, 114
1, 47903, Note_on_c, 0, 69, 103
1, 47917, Note_off_c, 0, 69, 103
1, 47919, Note_on_c, 0, 68, 108
1, 47951, Note_off_c, 0, 68, 108
1, 47958, Note_on_c, 0, 65, 106
1, 48024, Note_off_c, 0, 65, 106
1, 48041, Note_on_c, 0, 73, 105
1, 48078, Note_off_c, 0, 73, 105
1, 48086, Note_on_c, 0, 74, 106
1, 48103, Note_off_c, 0, 74, 106
1, 48109, Note_on_c, 0, 73, 107
1, 48129, Note_off_c, 0, 73, 107
1, 48147, Note_on_c, 0, 70, 106
1, 48192, Note_off_c, 0, 70, 106
1, 48210, Note_on_c, 0, 68, 112
1, 48280, Note_off_c, 0, 68, 112
1, 48285, Note_on_c, 0, 70, 107
1, 48302, Note_off_c, 0, 70, 107
1, 48306, Note_on_c, 0, 68, 100
1, 48322, Note_off_c, 0, 68, 100
1, 48336, Note_on_c, 0, 65, 111
1, 48407, Note_off_c, 0, 65, 111
1, 48423, Note_on_c, 0, 73, 104
1, 48469, Note_off_c, 0, 73, 104
1, 48477, Note_on_c, 0, 74, 100
1, 48497, Note_off_c, 0, 74, 100
1, 48502, Note_on_c, 0, 73, 102
1, 48525, Note_off_c, 0, 73, 102
1, 48535, Note_on_c, 0, 70, 107
1, 48574, Note_off_c, 0, 70, 107
1, 48597, Note_on_c, 0, 68, 113
1, 48688, Note_off_c, 0, 68, 113
1, 48702, Note_on_c, 0, 70, 106
1, 48774, Note_off_c, 0, 70, 106
1, 48799, Note_on_c, 0, 73, 109
1, 48875, Note_off_c, 0, 73, 109
1, 48905, Note_on_c, 0, 75, 116
1, 48963, Note_off_c, 0, 75, 116
1, 48986, Note_on_c, 0, 74, 122
1, 49017, Note_off_c, 0, 74, 122
1, 49022, Note_on_c, 0, 75, 121
1, 49102, Note_off_c, 0, 75, 121
1, 49106, Note_on_c, 0, 74, 119
1, 49144, Note_off_c, 0, 74, 119
1, 49146, Note_on_c, 0, 75, 127
1, 49362, Note_off_c, 0, 75, 127
1, 49383, Note_on_c, 0, 73, 104
1, 49460, Note_off_c, 0, 73, 104
1, 49486, Note_on_c, 0, 70, 106
1, 49557, Note_off_c, 0, 70, 106
1, 49574, Note_on_c, 0, 68, 114
1, 49649, Note_off_c, 0, 68, 114
1, 49663, Note_on_c, 0, 65, 114
1, 49738, Note_off_c, 0, 65, 114
1, 49747, Note_on_c, 0, 63, 116
1, 49835, Note_off_c, 0, 63, 116
1, 49854, Note_on_c, 0, 55, 98
1, 49910, Note_off_c, 0, 55, 98
1, 49933, Note_on_c, 0, 60, 108
1, 49953, Note_off_c, 0, 60, 108
1, 49961, Note_on_c, 0, 62, 113
1, 50054, Note_off_c, 0, 62, 113
1, 50062, Note_on_c, 0, 65, 101
1, 50107, Note_off_c, 0, 65, 101
1, 50112, Note_on_c, 0, 67, 111
1, 50224, Note_off_c, 0, 67, 111
1, 50247, Note_on_c, 0, 70, 82
1, 50429, Note_off_c, 0, 70, 82
1, 51080, Note_on_c, 0, 70, 115
1, 51177, Note_off_c, 0, 70, 115
1, 51194, Note_on_c, 0, 65, 109
1, 51251, Note_off_c, 0, 65, 109
1, 51272, Note_on_c, 0, 69, 112
1, 51350, Note_off_c, 0, 69, 112
1, 51381, Note_on_c, 0, 74, 105
1, 51434, Note_off_c, 0, 74, 105
1, 51475, Note_on_c, 0, 70, 108
1, 51559, Note_off_c, 0, 70, 108
1, 51574, Note_on_c, 0, 65, 116
1, 51633, Note_off_c, 0, 65, 116
1, 51653, Note_on_c, 0, 62, 119
1, 51742, Note_off_c, 0, 62, 119
1, 51839, Note_on_c, 0, 63, 121
1, 51936, Note_off_c, 0, 63, 121
1, 51941, Note_on_c, 0, 61, 113
1, 52042, Note_off_c, 0, 61, 113
1, 52050, Note_on_c, 0, 59, 100
1, 52124, Note_off_c, 0, 59, 100
1, 52211, Note_on_c, 0, 60, 112
1, 52305, Note_off_c, 0, 60, 112
1, 52322, Note_on_c, 0, 62, 119
1, 52390, Note_off_c, 0, 62, 119
1, 52394, Note_on_c, 0, 63, 119
1, 52515, Note_off_c, 0, 63, 119
1, 52598, Note_on_c, 0, 64, 119
1, 52701, Note_off_c, 0, 64, 119
1, 52709, Note_on_c, 0, 66, 107
1, 52787, Note_off_c, 0, 66, 107
1, 52801, Note_on_c, 0, 68, 114
1, 52900, Note_off_c, 0, 68, 114
1, 52984, Note_on_c, 0, 69, 110
1, 53080, Note_off_c, 0, 69, 110
1, 53094, Note_on_c, 0, 71, 111
1, 53162, Note_off_c, 0, 71, 111
1, 53186, Note_on_c, 0, 73, 100
1, 53275, Note_off_c, 0, 73, 100
1, 53376, Note_on_c, 0, 62, 116
1, 53456, Note_off_c, 0, 62, 116
1, 53466, Note_on_c, 0, 64, 121
1, 53544, Note_off_c, 0, 64, 121
1, 53564, Note_on_c, 0, 66, 111
1, 53646, Note_off_c, 0, 66, 111
1, 53751, Note_on_c, 0, 67, 109
1, 53836, Note_off_c, 0, 67, 109
1, 53844, Note_on_c, 0, 69, 112
1, 53912, Note_off_c, 0, 69, 112
1, 53948, Note_on_c, 0, 71, 110
1, 54035, Note_off_c, 0, 71, 110
1, 54065, Note_on_c, 0, 70, 111
1, 54152, Note_off_c, 0, 70, 111
1, 54242, Note_on_c, 0, 65, 109
1, 54299, Note_off_c, 0, 65, 109
1, 54328, Note_on_c, 0, 69, 113
1, 54411, Note_off_c, 0, 69, 113
1, 54452, Note_on_c, 0, 70, 112
1, 54504, Note_off_c, 0, 70, 112
1, 54509, Note_on_c, 0, 69, 113
1, 54532, Note_off_c, 0, 69, 113
1, 54540, Note_on_c, 0, 68, 109
1, 54574, Note_off_c, 0, 68, 109
1, 57583, Note_on_c, 0, 68, 122
1, 57624, Note_off_c, 0, 68, 122
1, 57630, Note_on_c, 0, 67, 117
1, 57659, Note_off_c, 0, 67, 117
1, 57669, Note_on_c, 0, 66, 114
1, 57703, Note_off_c, 0, 66, 114
1, 57708, Note_on_c, 0, 68, 118
1, 57758, Note_off_c, 0, 68, 118
1, 57764, Note_on_c, 0, 67, 113
1, 57804, Note_off_c, 0, 67, 113
1, 57812, Note_on_c, 0, 66, 115
1, 57856, Note_off_c, 0, 66, 115
1, 57861, Note_on_c, 0, 65, 115
1, 57890, Note_off_c, 0, 65, 115
1, 57899, Note_on_c, 0, 64, 123
1, 57955, Note_off_c, 0, 64, 123
1, 57960, Note_on_c, 0, 63, 121
1, 57996, Note_off_c, 0, 63, 121
1, 58007, Note_on_c, 0, 65, 117
1, 58033, Note_off_c, 0, 65, 117
1, 58035, Note_on_c, 0, 66, 116
1, 58085, Note_off_c, 0, 66, 116
1, 58093, Note_on_c, 0, 64, 118
1, 58127, Note_off_c, 0, 64, 118
1, 58136, Note_on_c, 0, 65, 118
1, 58175, Note_off_c, 0, 65, 118
1, 58183, Note_on_c, 0, 64, 124
1, 58220, Note_off_c, 0, 64, 124
1, 58228, Note_on_c, 0, 63, 120
1, 58280, Note_off_c, 0, 63, 120
1, 58283, Note_on_c, 0, 67, 114
1, 58329, Note_off_c, 0, 67, 114
1, 58332, Note_on_c, 0, 65, 119
1, 58364, Note_off_c, 0, 65, 119
1, 58375, Note_on_c, 0, 63, 118
1, 58423, Note_off_c, 0, 63, 118
1, 58427, Note_on_c, 0, 65, 100
1, 58478, Note_off_c, 0, 65, 100
1, 58480, Note_on_c, 0, 55, 100
1, 58496, Note_off_c, 0, 55, 100
1, 58507, Note_on_c, 0, 60, 120
1, 58577, Note_off_c, 0, 60, 120
1, 58584, Note_on_c, 0, 57, 92
1, 58603, Note_off_c, 0, 57, 92
1, 58608, Note_on_c, 0, 59, 120
1, 58650, Note_off_c, 0, 59, 120
1, 58653, Note_on_c, 0, 61, 121
1, 58732, Note_off_c, 0, 61, 121
1, 58740, Note_on_c, 0, 60, 95
1, 58757, Note_off_c, 0, 60, 95
1, 58770, Note_on_c, 0, 56, 95
1, 58796, Note_off_c, 0, 56, 95
1, 58801, Note_on_c, 0, 53, 110
1, 58846, Note_off_c, 0, 53, 110
1, 58857, Note_on_c, 0, 52, 108
1, 58897, Note_off_c, 0, 52, 108
1, 58902, Note_on_c, 0, 51, 104
1, 58953, Note_off_c, 0, 51, 104
1, 58958, Note_on_c, 0, 52, 105
1, 58975, Note_off_c, 0, 52, 105
1, 58986, Note_on_c, 0, 55, 101
1, 59035, Note_off_c, 0, 55, 101
1, 59074, Note_on_c, 0, 58, 109
1, 59108, Note_off_c, 0, 58, 109
1, 59120, Note_on_c, 0, 60, 121
1, 59163, Note_off_c, 0, 60, 121
1, 59175, Note_on_c, 0, 62, 106
1, 59201, Note_off_c, 0, 62, 106
1, 59209, Note_on_c, 0, 65, 99
1, 59241, Note_off_c, 0, 65, 99
1, 59252, Note_on_c, 0, 70, 117
1, 59300, Note_off_c, 0, 70, 117
1, 59312, Note_on_c, 0, 65, 118
1, 59347, Note_off_c, 0, 65, 118
1, 59356, Note_on_c, 0, 62, 119
1, 59398, Note_off_c, 0, 62, 119
1, 59405, Note_on_c, 0, 58, 99
1, 59428, Note_off_c, 0, 58, 99
1, 59432, Note_on_c, 0, 63, 120
1, 59477, Note_off_c, 0, 63, 120
1, 59485, Note_on_c, 0, 62, 118
1, 59534, Note_off_c, 0, 62, 118
1, 59557, Note_on_c, 0, 55, 104
1, 59584, Note_off_c, 0, 55, 104
1, 59592, Note_on_c, 0, 56, 105
1, 59617, Note_off_c, 0, 56, 105
1, 59623, Note_on_c, 0, 60, 122
1, 59670, Note_off_c, 0, 60, 122
1, 59678, Note_on_c, 0, 62, 120
1, 59710, Note_off_c, 0, 62, 120
1, 59721, Note_on_c, 0, 63, 122
1, 59764, Note_off_c, 0, 63, 122
1, 59768, Note_on_c, 0, 64, 124
1, 59797, Note_off_c, 0, 64, 124
1, 59803, Note_on_c, 0, 65, 116
1, 59843, Note_off_c, 0, 65, 116
1, 59847, Note_on_c, 0, 64, 121
1, 59889, Note_off_c, 0, 64, 121
1, 59899, Note_on_c, 0, 63, 121
1, 59949, Note_off_c, 0, 63, 121
1, 59953, Note_on_c, 0, 67, 115
1, 60005, Note_off_c, 0, 67, 115
1, 60012, Note_on_c, 0, 65, 119
1, 60038, Note_off_c, 0, 65, 119
1, 60046, Note_on_c, 0, 62, 122
1, 60080, Note_off_c, 0, 62, 122
1, 60093, Note_on_c, 0, 58, 111
1, 60125, Note_off_c, 0, 58, 111
1, 60134, Note_on_c, 0, 56, 107
1, 60163, Note_off_c, 0, 56, 107
1, 60171, Note_on_c, 0, 62, 122
1, 60208, Note_off_c, 0, 62, 122
1, 60217, Note_on_c, 0, 61, 119
1, 60267, Note_off_c, 0, 61, 119
1, 60275, Note_on_c, 0, 57, 103
1, 60294, Note_off_c, 0, 57, 103
1, 60354, Note_on_c, 0, 58, 95
1, 60516, Note_off_c, 0, 58, 95
1, 63226, Note_on_c, 0, 45, 122
1, 63279, Note_off_c, 0, 45, 122
1, 63323, Note_on_c, 0, 51, 109
1, 63368, Note_off_c, 0, 51, 109
1, 63414, Note_on_c, 0, 50, 112
1, 63496, Note_off_c, 0, 50, 112
1, 63515, Note_on_c, 0, 55, 95
1, 63562, Note_off_c, 0, 55, 95
1, 63608, Note_on_c, 0, 57, 98
1, 63680, Note_off_c, 0, 57, 98
1, 63697, Note_on_c, 0, 63, 112
1, 63765, Note_off_c, 0, 63, 112
1, 63803, Note_on_c, 0, 62, 115
1, 63894, Note_off_c, 0, 62, 115
1, 63905, Note_on_c, 0, 70, 107
1, 63985, Note_off_c, 0, 70, 107
1, 64011, Note_on_c, 0, 69, 106
1, 64082, Note_off_c, 0, 69, 106
1, 64098, Note_on_c, 0, 70, 107
1, 64187, Note_off_c, 0, 70, 107
1, 64202, Note_on_c, 0, 69, 105
1, 64282, Note_off_c, 0, 69, 105
1, 64296, Note_on_c, 0, 67, 107
1, 64371, Note_off_c, 0, 67, 107
1, 64386, Note_on_c, 0, 66, 105
1, 64471, Note_off_c, 0, 66, 105
1, 64491, Note_on_c, 0, 63, 111
1, 64577, Note_off_c, 0, 63, 111
1, 64587, Note_on_c, 0, 62, 112
1, 64672, Note_off_c, 0, 62, 112
1, 64681, Note_on_c, 0, 60, 108
1, 64755, Note_off_c, 0, 60, 108
1, 64771, Note_on_c, 0, 59, 89
1, 64856, Note_off_c, 0, 59, 89
1, 64867, Note_on_c, 0, 62, 110
1, 64935, Note_off_c, 0, 62, 110
1, 64956, Note_on_c, 0, 65, 104
1, 65041, Note_off_c, 0, 65, 104
1, 65057, Note_on_c, 0, 67, 105
1, 65130, Note_off_c, 0, 67, 105
1, 65146, Note_on_c, 0, 70, 103
1, 65244, Note_off_c, 0, 70, 103
1, 65255, Note_on_c, 0, 68, 107
1, 65303, Note_off_c, 0, 68, 107
1, 65370, Note_on_c, 0, 75, 101
1, 65429, Note_off_c, 0, 75, 101
1, 65547, Note_on_c, 0, 71, 103
1, 65637, Note_off_c, 0, 71, 103
1, 65725, Note_on_c, 0, 70, 103
1, 65790, Note_off_c, 0, 70, 103
1, 65798, Note_on_c, 0, 71, 100
1, 65817, Note_off_c, 0, 71, 100
1, 65825, Note_on_c, 0, 70, 103
1, 65842, Note_off_c, 0, 70, 103
1, 65850, Note_on_c, 0, 68, 105
1, 65910, Note_off_c, 0, 68, 105
1, 65933, Note_on_c, 0, 64, 117
1, 66010, Note_off_c, 0, 64, 117
1, 66027, Note_on_c, 0, 59, 96
1, 66069, Note_off_c, 0, 59, 96
1, 66105, Note_on_c, 0, 58, 94
1, 66182, Note_off_c, 0, 58, 94
1, 66205, Note_on_c, 0, 56, 99
1, 66273, Note_off_c, 0, 56, 99
1, 66282, Note_on_c, 0, 55, 96
1, 66394, Note_off_c, 0, 55, 96
1, 69162, Note_on_c, 0, 68, 116
1, 69206, Note_off_c, 0, 68, 116
1, 69210, Note_on_c, 0, 67, 110
1, 69245, Note_off_c, 0, 67, 110
1, 69249, Note_on_c, 0, 65, 110
1, 69298, Note_off_c, 0, 65, 110
1, 69303, Note_on_c, 0, 63, 112
1, 69329, Note_off_c, 0, 63, 112
1, 69340, Note_on_c, 0, 62, 115
1, 69389, Note_off_c, 0, 62, 115
1, 69400, Note_on_c, 0, 61, 110
1, 69453, Note_off_c, 0, 61, 110
1, 69459, Note_on_c, 0, 56, 100
1, 69521, Note_off_c, 0, 56, 100
1, 69525, Note_on_c, 0, 55, 102
1, 69548, Note_off_c, 0, 55, 102
1, 69558, Note_on_c, 0, 54, 105
1, 69584, Note_off_c, 0, 54, 105
1, 69586, Note_on_c, 0, 51, 112
1, 69608, Note_off_c, 0, 51, 112
1, 69615, Note_on_c, 0, 50, 112
1, 69635, Note_off_c, 0, 50, 112
1, 69649, Note_on_c, 0, 49, 106
1, 69814, Note_off_c, 0, 49, 106
1, 69971, Note_on_c, 0, 68, 110
1, 70018, Note_off_c, 0, 68, 110
1, 70025, Note_on_c, 0, 67, 105
1, 70046, Note_off_c, 0, 67, 105
1, 70055, Note_on_c, 0, 66, 103
1, 70079, Note_off_c, 0, 66, 103
1, 70102, Note_on_c, 0, 68, 108
1, 70159, Note_off_c, 0, 68, 108
1, 70162, Note_on_c, 0, 67, 103
1, 70194, Note_off_c, 0, 67, 103
1, 70199, Note_on_c, 0, 66, 105
1, 70243, Note_off_c, 0, 66, 105
1, 70251, Note_on_c, 0, 65, 108
1, 70295, Note_off_c, 0, 65, 108
1, 70304, Note_on_c, 0, 64, 117
1, 70341, Note_off_c, 0, 64, 117
1, 70348, Note_on_c, 0, 63, 112
1, 70401, Note_off_c, 0, 63, 112
1, 70413, Note_on_c, 0, 65, 105
1, 70442, Note_off_c, 0, 65, 105
1, 70447, Note_on_c, 0, 66, 104
1, 70482, Note_off_c, 0, 66, 104
1, 70489, Note_on_c, 0, 64, 102
1, 70521, Note_off_c, 0, 64, 102
1, 70526, Note_on_c, 0, 65, 112
1, 70560, Note_off_c, 0, 65, 112
1, 70565, Note_on_c, 0, 64, 118
1, 70600, Note_off_c, 0, 64, 118
1, 70605, Note_on_c, 0, 65, 108
1, 70621, Note_off_c, 0, 65, 108
1, 70629, Note_on_c, 0, 63, 111
1, 70667, Note_off_c, 0, 63, 111
1, 70671, Note_on_c, 0, 67, 106
1, 70706, Note_off_c, 0, 67, 106
1, 70720, Note_on_c, 0, 65, 109
1, 70743, Note_off_c, 0, 65, 109
1, 70757, Note_on_c, 0, 61, 112
1, 70806, Note_off_c, 0, 61, 112
1, 70811, Note_on_c, 0, 58, 103
1, 70838, Note_off_c, 0, 58, 103
1, 70842, Note_on_c, 0, 56, 104
1, 70891, Note_off_c, 0, 56, 104
1, 70896, Note_on_c, 0, 63, 107
1, 70940, Note_off_c, 0, 63, 107
1, 70948, Note_on_c, 0, 61, 106
1, 70996, Note_off_c, 0, 61, 106
1, 71010, Note_on_c, 0, 58, 94
1, 71036, Note_off_c, 0, 58, 94
1, 71050, Note_on_c, 0, 54, 94
1, 71086, Note_off_c, 0, 54, 94
1, 71092, Note_on_c, 0, 58, 98
1, 71125, Note_off_c, 0, 58, 98
1, 71130, Note_on_c, 0, 54, 100
1, 71165, Note_off_c, 0, 54, 100
1, 71168, Note_on_c, 0, 53, 105
1, 71203, Note_off_c, 0, 53, 105
1, 71215, Note_on_c, 0, 52, 109
1, 71266, Note_off_c, 0, 52, 109
1, 71271, Note_on_c, 0, 51, 98
1, 71300, Note_off_c, 0, 51, 98
1, 71321, Note_on_c, 0, 55, 91
1, 71361, Note_off_c, 0, 55, 91
1, 71366, Note_on_c, 0, 57, 103
1, 71391, Note_off_c, 0, 57, 103
1, 71401, Note_on_c, 0, 61, 113
1, 71438, Note_off_c, 0, 61, 113
1, 71444, Note_on_c, 0, 63, 111
1, 71483, Note_off_c, 0, 63, 111
1, 71491, Note_on_c, 0, 61, 112
1, 71534, Note_off_c, 0, 61, 112
1, 71545, Note_on_c, 0, 58, 93
1, 71580, Note_off_c, 0, 58, 93
1, 71591, Note_on_c, 0, 55, 103
1, 71611, Note_off_c, 0, 55, 103
1, 71617, Note_on_c, 0, 60, 111
1, 71655, Note_off_c, 0, 60, 111
1, 71662, Note_on_c, 0, 62, 114
1, 71702, Note_off_c, 0, 62, 114
1, 71710, Note_on_c, 0, 63, 114
1, 71737, Note_off_c, 0, 63, 114
1, 71747, Note_on_c, 0, 60, 100
1, 71775, Note_off_c, 0, 60, 100
1, 71780, Note_on_c, 0, 63, 96
1, 71787, Note_off_c, 0, 63, 96
1, 71793, Note_on_c, 0, 65, 112
1, 71836, Note_off_c, 0, 65, 112
1, 71840, Note_on_c, 0, 64, 118
1, 71877, Note_off_c, 0, 64, 118
1, 71887, Note_on_c, 0, 63, 113
1, 71924, Note_off_c, 0, 63, 113
1, 71936, Note_on_c, 0, 67, 107
1, 71974, Note_off_c, 0, 67, 107
1, 71981, Note_on_c, 0, 65, 110
1, 72018, Note_off_c, 0, 65, 110
1, 72028, Note_on_c, 0, 61, 109
1, 72082, Note_off_c, 0, 61, 109
1, 72099, Note_on_c, 0, 53, 92
1, 72141, Note_off_c, 0, 53, 92
1, 72162, Note_on_c, 0, 58, 97
1, 72272, Note_off_c, 0, 58, 97
1, 72272, End_track
0, 0, End_of_file
