0, 0, Header, 1, 1, 192
1, 0, Start_track
1, 0, Title_t, "Melody"
1, 0, Tempo, 226415
1, 0, Key_signature, 0, "major"
1, 0, Time_signature, 4, 2, 24, 8
1, 5074, Note_on_c, 0, 63, 124
1, 5337, Note_off_c, 0, 63, 124
1, 5408, Note_on_c, 0, 63, 119
1, 5487, Note_off_c, 0, 63, 119
1, 5500, Note_on_c, 0, 61, 100
1, 5610, Note_off_c, 0, 61, 100
1, 5668, Note_on_c, 0, 63, 122
1, 5813, Note_off_c, 0, 63, 122
1, 6193, Note_on_c, 0, 60, 107
1, 6276, Note_off_c, 0, 60, 107
1, 6365, Note_on_c, 0, 63, 123
1, 6473, Note_off_c, 0, 63, 123
1, 6555, Note_on_c, 0, 63, 113
1, 6653, Note_off_c, 0, 63, 113
1, 6762, Note_on_c, 0, 63, 123
1, 7008, Note_off_c, 0, 63, 123
1, 7021, Note_on_c, 0, 60, 102
1, 7153, Note_off_c, 0, 60, 102
1, 7175, Note_on_c, 0, 63, 121
1, 7283, Note_off_c, 0, 63, 121
1, 7302, Note_on_c, 0, 64, 115
1, 7484, Note_off_c, 0, 64, 115
1, 7682, Note_on_c, 0, 55, 99
1, 7750, Note_off_c, 0, 55, 99
1, 7767, Note_on_c, 0, 58, 93
1, 7855, Note_off_c, 0, 58, 93
1, 7873, Note_on_c, 0, 63, 124
1, 7966, Note_off_c, 0, 63, 124
1, 8055, Note_on_c, 0, 63, 117
1, 8165, Note_off_c, 0, 63, 117
1, 8230, Note_on_c, 0, 63, 114
1, 8496, Note_off_c, 0, 63, 114
1, 8508, Note_on_c, 0, 60, 104
1, 8604, Note_off_c, 0, 60, 104
1, 8664, Note_on_c, 0, 64, 115
1, 8771, Note_off_c, 0, 64, 115
1, 8781, Note_on_c, 0, 65, 106
1, 8888, Note_off_c, 0, 65, 106
1, 8894, Note_on_c, 0, 66, 100
1, 9007, Note_off_c, 0, 66, 100
1, 9025, Note_on_c, 0, 67, 109
1, 9146, Note_off_c, 0, 67, 109
1, 9187, Note_on_c, 0, 65, 103
1, 9290, Note_off_c, 0, 65, 103
1, 9324, Note_on_c, 0, 65, 112
1, 9431, Note_off_c, 0, 65, 112
1, 9434, Note_on_c, 0, 64, 111
1, 9534, Note_off_c, 0, 64, 111
1, 9558, Note_on_c, 0, 60, 108
1, 9620, Note_off_c, 0, 60, 108
1, 9626, Note_on_c, 0, 56, 92
1, 9715, Note_off_c, 0, 56, 92
1, 9725, Note_on_c, 0, 53, 95
1, 9787, Note_off_c, 0, 53, 95
1, 9835, Note_on_c, 0, 58, 98
1, 9973, Note_off_c, 0, 58, 98
1, 9979, Note_on_c, 0, 55, 97
1, 10103, Note_off_c, 0, 55, 97
1, 10158, Note_on_c, 0, 55, 88
1, 10497, Note_off_c, 0, 55, 88
1, 11317, Note_on_c, 0, 55, 111
1, 11427, Note_off_c, 0, 55, 111
1, 11437, Note_on_c, 0, 58, 97
1, 11488, Note_off_c, 0, 58, 97
1, 11501, Note_on_c, 0, 59, 95
1, 11594, Note_off_c, 0, 59, 95
1, 11614, Note_on_c, 0, 61, 110
1, 11707, Note_off_c, 0, 61, 110
1, 11713, Note_on_c, 0, 63, 112
1, 11778, Note_off_c, 0, 63, 112
1, 11795, Note_on_c, 0, 65, 111
1, 11874, Note_off_c, 0, 65, 111
1, 11874, Note_on_c, 0, 66, 107
1, 11939, Note_off_c, 0, 66, 107
1, 11956, Note_on_c, 0, 68, 96
1, 12049, Note_off_c, 0, 68, 96
1, 12049, Note_on_c, 0, 71, 104
1, 12107, Note_off_c, 0, 71, 104
1, 12113, Note_on_c, 0, 72, 114
1, 12254, Note_off_c, 0, 72, 114
1, 12264, Note_on_c, 0, 71, 111
1, 12430, Note_off_c, 0, 71, 111
1, 12471, Note_on_c, 0, 68, 113
1, 12595, Note_off_c, 0, 68, 113
1, 12619, Note_on_c, 0, 70, 110
1, 12743, Note_off_c, 0, 70, 110
1, 12743, Note_on_c, 0, 69, 111
1, 12850, Note_off_c, 0, 69, 111
1, 12853, Note_on_c, 0, 66, 109
1, 13015, Note_off_c, 0, 66, 109
1, 13021, Note_on_c, 0, 67, 103
1, 13187, Note_off_c, 0, 67, 103
1, 13211, Note_on_c, 0, 65, 109
1, 13394, Note_off_c, 0, 65, 109
1, 13394, Note_on_c, 0, 67, 99
1, 13546, Note_off_c, 0, 67, 99
1, 13570, Note_on_c, 0, 64, 110
1, 13698, Note_off_c, 0, 64, 110
1, 13698, Note_on_c, 0, 67, 105
1, 13749, Note_off_c, 0, 67, 105
1, 13780, Note_on_c, 0, 66, 103
1, 13869, Note_off_c, 0, 66, 103
1, 13889, Note_on_c, 0, 64, 113
1, 13940, Note_off_c, 0, 64, 113
1, 13950, Note_on_c, 0, 65, 110
1, 14026, Note_off_c, 0, 65, 110
1, 14039, Note_on_c, 0, 64, 115
1, 14115, Note_off_c, 0, 64, 115
1, 14139, Note_on_c, 0, 63, 112
1, 14239, Note_off_c, 0, 63, 112
1, 14255, Note_on_c, 0, 65, 108
1, 14323, Note_off_c, 0, 65, 108
1, 14324, Note_on_c, 0, 64, 113
1, 14410, Note_on_c, 0, 62, 107
1, 14410, Note_off_c, 0, 64, 113
1, 14489, Note_off_c, 0, 62, 107
1, 14506, Note_on_c, 0, 63, 117
1, 14613, Note_off_c, 0, 63, 117
1, 14623, Note_on_c, 0, 60, 107
1, 14695, Note_off_c, 0, 60, 107
1, 14695, Note_on_c, 0, 62, 103
1, 14999, Note_off_c, 0, 62, 103
1, 15279, Note_on_c, 0, 62, 116
1, 15396, Note_off_c, 0, 62, 116
1, 15454, Note_on_c, 0, 65, 115
1, 15561, Note_off_c, 0, 65, 115
1, 15571, Note_on_c, 0, 64, 109
1, 15633, Note_off_c, 0, 64, 109
1, 15660, Note_on_c, 0, 65, 111
1, 15753, Note_off_c, 0, 65, 111
1, 15770, Note_on_c, 0, 64, 117
1, 15859, Note_off_c, 0, 64, 117
1, 15862, Note_on_c, 0, 60, 104
1, 15979, Note_off_c, 0, 60, 104
1, 15979, Note_on_c, 0, 55, 95
1, 16027, Note_off_c, 0, 55, 95
1, 16051, Note_on_c, 0, 59, 96
1, 16168, Note_off_c, 0, 59, 96
1, 16181, Note_on_c, 0, 55, 97
1, 16219, Note_off_c, 0, 55, 97
1, 16232, Note_on_c, 0, 60, 96
1, 16553, Note_off_c, 0, 60, 96
1, 17086, Note_on_c, 0, 60, 117
1, 17172, Note_off_c, 0, 60, 117
1, 17178, Note_on_c, 0, 62, 110
1, 17267, Note_off_c, 0, 62, 110
1, 17273, Note_on_c, 0, 64, 99
1, 17342, Note_off_c, 0, 64, 99
1, 17362, Note_on_c, 0, 67, 113
1, 17479, Note_off_c, 0, 67, 113
1, 17479, Note_on_c, 0, 64, 106
1, 17537, Note_off_c, 0, 64, 106
1, 17550, Note_on_c, 0, 65, 117
1, 17615, Note_off_c, 0, 65, 117
1, 17618, Note_on_c, 0, 66, 99
1, 17669, Note_off_c, 0, 66, 99
1, 17693, Note_on_c, 0, 65, 112
1, 17776, Note_off_c, 0, 65, 112
1, 17776, Note_on_c, 0, 64, 110
1, 17834, Note_off_c, 0, 64, 110
1, 17851, Note_on_c, 0, 62, 113
1, 17958, Note_off_c, 0, 62, 113
1, 17967, Note_on_c, 0, 60, 102
1, 18021, Note_off_c, 0, 60, 102
1, 18029, Note_on_c, 0, 59, 96
1, 18105, Note_off_c, 0, 59, 96
1, 18118, Note_on_c, 0, 58, 100
1, 18207, Note_off_c, 0, 58, 100
1, 18231, Note_on_c, 0, 55, 97
1, 18296, Note_off_c, 0, 55, 97
1, 18316, Note_on_c, 0, 57, 98
1, 18388, Note_off_c, 0, 57, 98
1, 18422, Note_on_c, 0, 55, 101
1, 18525, Note_off_c, 0, 55, 101
1, 18525, Note_on_c, 0, 50, 95
1, 18628, Note_off_c, 0, 50, 95
1, 18634, Note_on_c, 0, 53, 102
1, 18720, Note_off_c, 0, 53, 102
1, 18735, Note_on_c, 0, 52, 103
1, 18793, Note_off_c, 0, 52, 103
1, 18818, Note_on_c, 0, 55, 103
1, 18906, Note_off_c, 0, 55, 103
1, 18919, Note_on_c, 0, 57, 92
1, 19010, Note_off_c, 0, 57, 92
1, 19010, Note_on_c, 0, 62, 115
1, 19105, Note_off_c, 0, 62, 115
1, 19129, Note_on_c, 0, 57, 92
1, 19182, Note_off_c, 0, 57, 92
1, 19192, Note_on_c, 0, 58, 97
1, 19254, Note_off_c, 0, 58, 97
1, 19278, Note_on_c, 0, 62, 106
1, 19362, Note_off_c, 0, 62, 106
1, 19370, Note_on_c, 0, 65, 92
1, 19459, Note_off_c, 0, 65, 92
1, 19460, Note_on_c, 0, 69, 108
1, 19563, Note_off_c, 0, 69, 108
1, 19582, Note_on_c, 0, 66, 100
1, 19651, Note_off_c, 0, 66, 100
1, 19666, Note_on_c, 0, 67, 101
1, 19768, Note_off_c, 0, 67, 101
1, 19778, Note_on_c, 0, 69, 106
1, 19838, Note_off_c, 0, 69, 106
1, 19853, Note_on_c, 0, 66, 104
1, 19936, Note_off_c, 0, 66, 104
1, 19944, Note_on_c, 0, 62, 114
1, 20016, Note_off_c, 0, 62, 114
1, 20028, Note_on_c, 0, 58, 96
1, 20107, Note_off_c, 0, 58, 96
1, 20176, Note_on_c, 0, 55, 92
1, 20241, Note_off_c, 0, 55, 92
1, 20251, Note_on_c, 0, 65, 113
1, 20340, Note_on_c, 0, 62, 106
1, 20340, Note_off_c, 0, 65, 113
1, 20388, Note_off_c, 0, 62, 106
1, 20388, Note_on_c, 0, 64, 117
1, 20519, Note_off_c, 0, 64, 117
1, 20529, Note_on_c, 0, 62, 118
1, 20601, Note_off_c, 0, 62, 118
1, 20601, Note_on_c, 0, 60, 108
1, 20680, Note_off_c, 0, 60, 108
1, 20693, Note_on_c, 0, 58, 103
1, 20765, Note_off_c, 0, 58, 103
1, 20771, Note_on_c, 0, 57, 93
1, 20912, Note_off_c, 0, 57, 93
1, 21005, Note_on_c, 0, 60, 108
1, 21072, Note_off_c, 0, 60, 108
1, 21210, Note_on_c, 0, 65, 112
1, 21267, Note_off_c, 0, 65, 112
1, 21363, Note_on_c, 0, 67, 100
1, 21473, Note_off_c, 0, 67, 100
1, 21538, Note_on_c, 0, 69, 110
1, 21721, Note_off_c, 0, 69, 110
1, 21741, Note_on_c, 0, 65, 102
1, 21844, Note_off_c, 0, 65, 102
1, 21923, Note_on_c, 0, 67, 102
1, 22102, Note_off_c, 0, 67, 102
1, 22129, Note_on_c, 0, 65, 93
1, 22243, Note_off_c, 0, 65, 93
1, 22246, Note_on_c, 0, 68, 116
1, 22327, Note_off_c, 0, 68, 116
1, 22425, Note_on_c, 0, 62, 96
1, 22677, Note_off_c, 0, 62, 96
1, 23611, Note_on_c, 0, 55, 97
1, 23669, Note_off_c, 0, 55, 97
1, 23674, Note_on_c, 0, 58, 90
1, 23748, Note_off_c, 0, 58, 90
1, 23754, Note_on_c, 0, 59, 95
1, 23830, Note_off_c, 0, 59, 95
1, 23836, Note_on_c, 0, 63, 125
1, 23988, Note_off_c, 0, 63, 125
1, 24050, Note_on_c, 0, 64, 105
1, 24178, Note_off_c, 0, 64, 105
1, 24261, Note_on_c, 0, 63, 113
1, 24371, Note_off_c, 0, 63, 113
1, 24443, Note_on_c, 0, 64, 106
1, 24571, Note_off_c, 0, 64, 106
1, 24598, Note_on_c, 0, 63, 108
1, 24826, Note_off_c, 0, 63, 108
1, 24915, Note_on_c, 0, 64, 112
1, 25056, Note_off_c, 0, 64, 112
1, 25229, Note_on_c, 0, 55, 100
1, 25308, Note_off_c, 0, 55, 100
1, 25308, Note_on_c, 0, 57, 99
1, 25370, Note_off_c, 0, 57, 99
1, 25387, Note_on_c, 0, 63, 114
1, 25476, Note_off_c, 0, 63, 114
1, 25500, Note_on_c, 0, 59, 87
1, 25569, Note_off_c, 0, 59, 87
1, 25582, Note_on_c, 0, 64, 117
1, 25710, Note_off_c, 0, 64, 117
1, 25720, Note_on_c, 0, 59, 93
1, 25778, Note_off_c, 0, 59, 93
1, 25778, Note_on_c, 0, 63, 111
1, 25867, Note_off_c, 0, 63, 111
1, 25880, Note_on_c, 0, 59, 85
1, 25949, Note_off_c, 0, 59, 85
1, 25955, Note_on_c, 0, 64, 118
1, 26051, Note_off_c, 0, 64, 118
1, 26161, Note_on_c, 0, 55, 99
1, 26264, Note_off_c, 0, 55, 99
1, 26284, Note_on_c, 0, 57, 94
1, 26377, Note_off_c, 0, 57, 94
1, 26421, Note_on_c, 0, 60, 113
1, 26542, Note_off_c, 0, 60, 113
1, 26663, Note_on_c, 0, 57, 96
1, 26770, Note_off_c, 0, 57, 96
1, 26832, Note_on_c, 0, 60, 112
1, 26921, Note_off_c, 0, 60, 112
1, 27107, Note_on_c, 0, 60, 113
1, 27224, Note_off_c, 0, 60, 113
1, 27289, Note_on_c, 0, 63, 118
1, 27410, Note_off_c, 0, 63, 118
1, 27465, Note_on_c, 0, 64, 108
1, 27579, Note_off_c, 0, 64, 108
1, 27672, Note_on_c, 0, 55, 104
1, 27820, Note_off_c, 0, 55, 104
1, 27861, Note_on_c, 0, 57, 101
1, 27989, Note_off_c, 0, 57, 101
1, 28040, Note_on_c, 0, 60, 115
1, 28150, Note_off_c, 0, 60, 115
1, 28191, Note_on_c, 0, 62, 93
1, 28291, Note_off_c, 0, 62, 93
1, 28363, Note_on_c, 0, 60, 94
1, 28480, Note_off_c, 0, 60, 94
1, 28798, Note_on_c, 0, 55, 96
1, 28922, Note_off_c, 0, 55, 96
1, 28980, Note_on_c, 0, 57, 99
1, 29083, Note_off_c, 0, 57, 99
1, 29148, Note_on_c, 0, 60, 108
1, 29286, Note_off_c, 0, 60, 108
1, 29362, Note_on_c, 0, 62, 121
1, 29479, Note_off_c, 0, 62, 121
1, 29527, Note_on_c, 0, 63, 121
1, 29731, Note_off_c, 0, 63, 121
1, 29731, Note_on_c, 0, 64, 101
1, 29869, Note_off_c, 0, 64, 101
1, 29945, Note_on_c, 0, 67, 108
1, 30076, Note_off_c, 0, 67, 108
1, 30297, Note_on_c, 0, 69, 114
1, 30466, Note_off_c, 0, 69, 114
1, 30701, Note_on_c, 0, 65, 108
1, 30880, Note_off_c, 0, 65, 108
1, 30890, Note_on_c, 0, 69, 117
1, 30986, Note_off_c, 0, 69, 117
1, 31006, Note_on_c, 0, 68, 111
1, 31092, Note_off_c, 0, 68, 111
1, 31092, Note_on_c, 0, 64, 106
1, 31296, Note_off_c, 0, 64, 106
1, 31306, Note_on_c, 0, 63, 103
1, 31420, Note_off_c, 0, 63, 103
1, 31471, Note_on_c, 0, 66, 107
1, 31547, Note_off_c, 0, 66, 107
1, 31560, Note_on_c, 0, 65, 106
1, 31643, Note_off_c, 0, 65, 106
1, 31653, Note_on_c, 0, 62, 102
1, 31732, Note_off_c, 0, 62, 102
1, 31749, Note_on_c, 0, 61, 103
1, 31811, Note_off_c, 0, 61, 103
1, 31811, Note_on_c, 0, 64, 110
1, 31939, Note_off_c, 0, 64, 110
1, 31966, Note_on_c, 0, 63, 113
1, 32042, Note_off_c, 0, 63, 113
1, 32066, Note_on_c, 0, 60, 98
1, 32110, Note_off_c, 0, 60, 98
1, 32123, Note_on_c, 0, 56, 94
1, 32178, Note_off_c, 0, 56, 94
1, 32181, Note_on_c, 0, 62, 102
1, 32568, Note_off_c, 0, 62, 102
1, 32737, Note_on_c, 0, 62, 115
1, 32799, Note_off_c, 0, 62, 115
1, 32812, Note_on_c, 0, 64, 112
1, 32891, Note_off_c, 0, 64, 112
1, 32901, Note_on_c, 0, 62, 108
1, 32990, Note_off_c, 0, 62, 108
1, 33001, Note_on_c, 0, 61, 105
1, 33099, Note_off_c, 0, 61, 105
1, 33103, Note_on_c, 0, 62, 101
1, 33164, Note_off_c, 0, 62, 101
1, 33181, Note_on_c, 0, 64, 108
1, 33281, Note_off_c, 0, 64, 108
1, 33283, Note_on_c, 0, 61, 105
1, 33359, Note_off_c, 0, 61, 105
1, 33361, Note_on_c, 0, 62, 111
1, 33459, Note_off_c, 0, 62, 111
1, 33459, Note_on_c, 0, 64, 108
1, 33550, Note_off_c, 0, 64, 108
1, 33567, Note_on_c, 0, 65, 101
1, 33633, Note_off_c, 0, 65, 101
1, 33655, Note_on_c, 0, 67, 93
1, 33723, Note_off_c, 0, 67, 93
1, 33730, Note_on_c, 0, 64, 102
1, 33920, Note_off_c, 0, 64, 102
1, 33929, Note_on_c, 0, 64, 110
1, 34113, Note_off_c, 0, 64, 110
1, 34122, Note_on_c, 0, 60, 107
1, 34237, Note_off_c, 0, 60, 107
1, 34266, Note_on_c, 0, 55, 95
1, 34339, Note_off_c, 0, 55, 95
1, 34343, Note_on_c, 0, 57, 98
1, 34414, Note_off_c, 0, 57, 98
1, 34414, Note_on_c, 0, 59, 99
1, 34482, Note_off_c, 0, 59, 99
1, 34494, Note_on_c, 0, 62, 107
1, 34626, Note_off_c, 0, 62, 107
1, 34640, Note_on_c, 0, 59, 90
1, 34686, Note_off_c, 0, 59, 90
1, 34695, Note_on_c, 0, 62, 105
1, 34857, Note_off_c, 0, 62, 105
1, 34864, Note_on_c, 0, 61, 107
1, 34999, Note_off_c, 0, 61, 107
1, 35001, Note_on_c, 0, 59, 102
1, 35035, Note_off_c, 0, 59, 102
1, 35040, Note_on_c, 0, 61, 110
1, 35187, Note_off_c, 0, 61, 110
1, 35189, Note_on_c, 0, 59, 95
1, 35225, Note_off_c, 0, 59, 95
1, 35229, Note_on_c, 0, 60, 99
1, 35361, Note_off_c, 0, 60, 99
1, 35365, Note_on_c, 0, 59, 92
1, 35399, Note_off_c, 0, 59, 92
1, 35402, Note_on_c, 0, 60, 101
1, 35557, Note_off_c, 0, 60, 101
1, 35563, Note_on_c, 0, 58, 90
1, 35602, Note_off_c, 0, 58, 90
1, 35607, Note_on_c, 0, 59, 104
1, 35688, Note_off_c, 0, 59, 104
1, 35717, Note_on_c, 0, 55, 89
1, 35790, Note_off_c, 0, 55, 89
1, 36109, Note_on_c, 0, 70, 114
1, 36185, Note_off_c, 0, 70, 114
1, 36234, Note_on_c, 0, 71, 95
1, 36327, Note_off_c, 0, 71, 95
1, 36327, Note_on_c, 0, 68, 97
1, 36356, Note_off_c, 0, 68, 97
1, 36380, Note_on_c, 0, 70, 116
1, 36488, Note_off_c, 0, 70, 116
1, 36507, Note_on_c, 0, 68, 92
1, 36561, Note_off_c, 0, 68, 92
1, 36585, Note_on_c, 0, 70, 115
1, 36690, Note_on_c, 0, 68, 97
1, 36690, Note_off_c, 0, 70, 115
1, 36744, Note_off_c, 0, 68, 97
1, 36758, Note_on_c, 0, 69, 111
1, 36871, Note_off_c, 0, 69, 111
1, 36875, Note_on_c, 0, 66, 87
1, 36926, Note_off_c, 0, 66, 87
1, 36926, Note_on_c, 0, 69, 110
1, 37041, Note_off_c, 0, 69, 110
1, 37065, Note_on_c, 0, 66, 98
1, 37124, Note_off_c, 0, 66, 98
1, 37141, Note_on_c, 0, 68, 109
1, 37266, Note_off_c, 0, 68, 109
1, 37268, Note_on_c, 0, 65, 97
1, 37339, Note_off_c, 0, 65, 97
1, 37346, Note_on_c, 0, 68, 109
1, 37439, Note_off_c, 0, 68, 109
1, 37443, Note_on_c, 0, 65, 95
1, 37497, Note_off_c, 0, 65, 95
1, 37506, Note_on_c, 0, 67, 101
1, 37555, Note_off_c, 0, 67, 101
1, 37567, Note_on_c, 0, 68, 105
1, 37601, Note_off_c, 0, 68, 105
1, 37610, Note_on_c, 0, 67, 98
1, 37681, Note_off_c, 0, 67, 98
1, 37682, Note_on_c, 0, 65, 101
1, 37780, Note_off_c, 0, 65, 101
1, 37783, Note_on_c, 0, 67, 94
1, 37844, Note_off_c, 0, 67, 94
1, 37861, Note_on_c, 0, 70, 113
1, 37998, Note_off_c, 0, 70, 113
1, 38005, Note_on_c, 0, 67, 99
1, 38046, Note_off_c, 0, 67, 99
1, 38053, Note_on_c, 0, 69, 117
1, 38146, Note_off_c, 0, 69, 117
1, 38155, Note_on_c, 0, 69, 112
1, 38268, Note_off_c, 0, 69, 112
1, 38272, Note_on_c, 0, 67, 104
1, 38353, Note_off_c, 0, 67, 104
1, 38365, Note_on_c, 0, 66, 106
1, 38446, Note_off_c, 0, 66, 106
1, 38453, Note_on_c, 0, 65, 102
1, 38551, Note_off_c, 0, 65, 102
1, 38560, Note_on_c, 0, 64, 107
1, 38631, Note_off_c, 0, 64, 107
1, 38658, Note_on_c, 0, 63, 108
1, 38731, Note_off_c, 0, 63, 108
1, 38760, Note_on_c, 0, 65, 109
1, 38809, Note_off_c, 0, 65, 109
1, 38813, Note_on_c, 0, 64, 107
1, 38923, Note_off_c, 0, 64, 107
1, 38923, Note_on_c, 0, 62, 100
1, 39001, Note_off_c, 0, 62, 100
1, 39023, Note_on_c, 0, 64, 115
1, 39106, Note_off_c, 0, 64, 115
1, 39386, Note_on_c, 0, 64, 113
1, 39479, Note_off_c, 0, 64, 113
1, 39510, Note_on_c, 0, 65, 107
1, 39603, Note_off_c, 0, 65, 107
1, 39603, Note_on_c, 0, 61, 102
1, 39674, Note_off_c, 0, 61, 102
1, 39688, Note_on_c, 0, 64, 115
1, 39774, Note_off_c, 0, 64, 115
1, 39774, Note_on_c, 0, 62, 112
1, 39879, Note_off_c, 0, 62, 112
1, 39906, Note_on_c, 0, 57, 95
1, 39979, Note_off_c, 0, 57, 95
1, 39979, Note_on_c, 0, 60, 104
1, 40057, Note_off_c, 0, 60, 104
1, 40057, Note_on_c, 0, 62, 107
1, 40167, Note_off_c, 0, 62, 107
1, 40174, Note_on_c, 0, 59, 99
1, 40260, Note_off_c, 0, 59, 99
1, 40264, Note_on_c, 0, 57, 100
1, 40310, Note_off_c, 0, 57, 100
1, 40319, Note_on_c, 0, 55, 100
1, 40422, Note_off_c, 0, 55, 100
1, 40429, Note_on_c, 0, 54, 102
1, 40522, Note_off_c, 0, 54, 102
1, 40529, Note_on_c, 0, 55, 104
1, 40612, Note_off_c, 0, 55, 104
1, 40621, Note_on_c, 0, 57, 94
1, 40721, Note_off_c, 0, 57, 94
1, 40733, Note_on_c, 0, 60, 102
1, 40816, Note_off_c, 0, 60, 102
1, 40833, Note_on_c, 0, 64, 104
1, 40909, Note_off_c, 0, 64, 104
1, 40909, Note_on_c, 0, 67, 114
1, 41019, Note_off_c, 0, 67, 114
1, 41028, Note_on_c, 0, 64, 97
1, 41126, Note_off_c, 0, 64, 97
1, 41795, Note_on_c, 0, 67, 111
1, 41873, Note_off_c, 0, 67, 111
1, 41887, Note_on_c, 0, 68, 100
1, 42005, Note_off_c, 0, 68, 100
1, 42041, Note_on_c, 0, 70, 124
1, 42168, Note_off_c, 0, 70, 124
1, 42246, Note_on_c, 0, 67, 111
1, 42339, Note_off_c, 0, 67, 111
1, 42466, Note_on_c, 0, 70, 115
1, 42569, Note_off_c, 0, 70, 115
1, 42628, Note_on_c, 0, 67, 100
1, 42743, Note_off_c, 0, 67, 100
1, 42833, Note_on_c, 0, 63, 118
1, 42955, Note_off_c, 0, 63, 118
1, 42965, Note_on_c, 0, 64, 113
1, 43073, Note_off_c, 0, 64, 113
1, 43136, Note_on_c, 0, 63, 119
1, 43239, Note_off_c, 0, 63, 119
1, 43339, Note_on_c, 0, 64, 112
1, 43422, Note_off_c, 0, 64, 112
1, 43498, Note_on_c, 0, 70, 103
1, 43606, Note_off_c, 0, 70, 103
1, 43714, Note_on_c, 0, 67, 108
1, 43780, Note_off_c, 0, 67, 108
1, 43871, Note_on_c, 0, 70, 106
1, 43971, Note_off_c, 0, 70, 106
1, 44059, Note_on_c, 0, 67, 93
1, 44137, Note_off_c, 0, 67, 93
1, 44137, Note_on_c, 0, 63, 117
1, 44228, Note_off_c, 0, 63, 117
1, 44323, Note_on_c, 0, 64, 111
1, 44418, Note_off_c, 0, 64, 111
1, 44516, Note_on_c, 0, 67, 106
1, 44604, Note_off_c, 0, 67, 106
1, 44690, Note_on_c, 0, 72, 117
1, 44800, Note_off_c, 0, 72, 117
1, 44891, Note_on_c, 0, 70, 106
1, 44986, Note_off_c, 0, 70, 106
1, 45099, Note_on_c, 0, 70, 89
1, 45194, Note_off_c, 0, 70, 89
1, 45255, Note_on_c, 0, 69, 110
1, 45385, Note_off_c, 0, 69, 110
1, 45480, Note_on_c, 0, 70, 85
1, 45605, Note_off_c, 0, 70, 85
1, 45676, Note_on_c, 0, 69, 109
1, 45799, Note_off_c, 0, 69, 109
1, 45897, Note_on_c, 0, 69, 108
1, 45975, Note_off_c, 0, 69, 108
1, 46066, Note_on_c, 0, 70, 109
1, 46149, Note_off_c, 0, 70, 109
1, 46176, Note_on_c, 0, 72, 100
1, 46269, Note_off_c, 0, 72, 100
1, 46293, Note_on_c, 0, 68, 112
1, 46376, Note_off_c, 0, 68, 112
1, 46398, Note_on_c, 0, 69, 106
1, 46454, Note_off_c, 0, 69, 106
1, 46461, Note_on_c, 0, 65, 96
1, 46556, Note_off_c, 0, 65, 96
1, 46642, Note_on_c, 0, 69, 95
1, 46755, Note_off_c, 0, 69, 95
1, 46848, Note_on_c, 0, 68, 112
1, 46956, Note_off_c, 0, 68, 112
1, 47056, Note_on_c, 0, 69, 91
1, 47151, Note_off_c, 0, 69, 91
1, 47217, Note_on_c, 0, 68, 111
1, 47330, Note_off_c, 0, 68, 111
1, 47408, Note_on_c, 0, 68, 95
1, 47503, Note_off_c, 0, 68, 95
1, 47616, Note_on_c, 0, 68, 111
1, 47689, Note_off_c, 0, 68, 111
1, 47959, Note_on_c, 0, 67, 94
1, 48025, Note_off_c, 0, 67, 94
1, 48061, Note_on_c, 0, 67, 92
1, 48112, Note_off_c, 0, 67, 92
1, 48136, Note_on_c, 0, 67, 101
1, 48251, Note_off_c, 0, 67, 101
1, 48327, Note_on_c, 0, 67, 102
1, 48395, Note_off_c, 0, 67, 102
1, 48407, Note_on_c, 0, 67, 116
1, 48456, Note_off_c, 0, 67, 116
1, 48480, Note_on_c, 0, 67, 110
1, 48575, Note_off_c, 0, 67, 110
1, 48666, Note_on_c, 0, 67, 105
1, 48732, Note_off_c, 0, 67, 105
1, 48768, Note_on_c, 0, 67, 114
1, 48834, Note_off_c, 0, 67, 114
1, 48939, Note_on_c, 0, 67, 109
1, 49022, Note_off_c, 0, 67, 109
1, 49120, Note_on_c, 0, 55, 99
1, 49211, Note_off_c, 0, 55, 99
1, 49319, Note_on_c, 0, 57, 105
1, 49397, Note_off_c, 0, 57, 105
1, 49529, Note_on_c, 0, 59, 103
1, 49622, Note_off_c, 0, 59, 103
1, 49693, Note_on_c, 0, 60, 113
1, 49769, Note_off_c, 0, 60, 113
1, 49889, Note_on_c, 0, 62, 117
1, 49962, Note_off_c, 0, 62, 117
1, 50080, Note_on_c, 0, 64, 108
1, 50148, Note_off_c, 0, 64, 108
1, 50172, Note_on_c, 0, 64, 108
1, 50235, Note_off_c, 0, 64, 108
1, 50274, Note_on_c, 0, 65, 112
1, 50392, Note_off_c, 0, 65, 112
1, 50404, Note_on_c, 0, 63, 113
1, 50460, Note_off_c, 0, 63, 113
1, 50464, Note_on_c, 0, 64, 106
1, 50599, Note_off_c, 0, 64, 106
1, 50606, Note_on_c, 0, 60, 109
1, 50697, Note_off_c, 0, 60, 109
1, 50701, Note_on_c, 0, 55, 90
1, 50767, Note_off_c, 0, 55, 90
1, 50784, Note_on_c, 0, 53, 94
1, 50845, Note_off_c, 0, 53, 94
1, 50852, Note_on_c, 0, 58, 100
1, 50940, Note_off_c, 0, 58, 100
1, 50984, Note_on_c, 0, 55, 92
1, 51015, Note_off_c, 0, 55, 92
1, 51054, Note_on_c, 0, 57, 101
1, 51149, Note_off_c, 0, 57, 101
1, 51163, Note_on_c, 0, 55, 95
1, 51229, Note_off_c, 0, 55, 95
1, 51238, Note_on_c, 0, 53, 105
1, 51301, Note_off_c, 0, 53, 105
1, 51630, Note_on_c, 0, 64, 118
1, 51735, Note_off_c, 0, 64, 118
1, 51737, Note_on_c, 0, 62, 115
1, 51805, Note_off_c, 0, 62, 115
1, 51814, Note_on_c, 0, 57, 100
1, 51890, Note_off_c, 0, 57, 100
1, 51892, Note_on_c, 0, 58, 91
1, 51936, Note_off_c, 0, 58, 91
1, 51980, Note_on_c, 0, 60, 109
1, 52078, Note_off_c, 0, 60, 109
1, 52097, Note_on_c, 0, 58, 101
1, 52170, Note_off_c, 0, 58, 101
1, 52174, Note_on_c, 0, 59, 103
1, 52252, Note_off_c, 0, 59, 103
1, 52274, Note_on_c, 0, 62, 110
1, 52377, Note_off_c, 0, 62, 110
1, 52389, Note_on_c, 0, 65, 103
1, 52467, Note_off_c, 0, 65, 103
1, 52496, Note_on_c, 0, 68, 118
1, 52582, Note_off_c, 0, 68, 118
1, 52584, Note_on_c, 0, 67, 112
1, 52670, Note_off_c, 0, 67, 112
1, 52677, Note_on_c, 0, 65, 113
1, 52780, Note_off_c, 0, 65, 113
1, 52780, Note_on_c, 0, 64, 112
1, 52871, Note_off_c, 0, 64, 112
1, 52878, Note_on_c, 0, 62, 117
1, 52934, Note_off_c, 0, 62, 117
1, 52946, Note_on_c, 0, 59, 111
1, 52990, Note_off_c, 0, 59, 111
1, 52992, Note_on_c, 0, 55, 98
1, 53095, Note_off_c, 0, 55, 98
1, 53122, Note_on_c, 0, 59, 107
1, 53262, Note_off_c, 0, 59, 107
1, 53270, Note_on_c, 0, 60, 112
1, 53432, Note_off_c, 0, 60, 112
1, 53442, Note_on_c, 0, 59, 98
1, 53500, Note_off_c, 0, 59, 98
1, 53515, Note_on_c, 0, 63, 123
1, 53692, Note_off_c, 0, 63, 123
1, 53714, Note_on_c, 0, 64, 114
1, 53809, Note_off_c, 0, 64, 114
1, 53909, Note_on_c, 0, 67, 110
1, 54078, Note_off_c, 0, 67, 110
1, 54085, Note_on_c, 0, 71, 107
1, 54188, Note_off_c, 0, 71, 107
1, 54298, Note_on_c, 0, 72, 113
1, 54391, Note_off_c, 0, 72, 113
1, 54677, Note_on_c, 0, 75, 116
1, 54721, Note_off_c, 0, 75, 116
1, 54724, Note_on_c, 0, 76, 122
1, 54842, Note_off_c, 0, 76, 122
1, 55083, Note_on_c, 0, 72, 118
1, 55178, Note_off_c, 0, 72, 118
1, 55451, Note_on_c, 0, 69, 112
1, 55505, Note_off_c, 0, 69, 112
1, 55524, Note_on_c, 0, 70, 107
1, 55605, Note_off_c, 0, 70, 107
1, 55833, Note_on_c, 0, 67, 108
1, 55936, Note_off_c, 0, 67, 108
1, 56204, Note_on_c, 0, 69, 118
1, 56324, Note_off_c, 0, 69, 118
1, 56338, Note_on_c, 0, 68, 107
1, 56406, Note_off_c, 0, 68, 107
1, 56519, Note_on_c, 0, 69, 121
1, 56612, Note_off_c, 0, 69, 121
1, 56614, Note_on_c, 0, 70, 116
1, 56712, Note_off_c, 0, 70, 116
1, 56712, Note_on_c, 0, 67, 99
1, 56751, Note_off_c, 0, 67, 99
1, 56760, Note_on_c, 0, 69, 114
1, 56883, Note_off_c, 0, 69, 114
1, 56900, Note_on_c, 0, 67, 96
1, 57126, Note_off_c, 0, 67, 96
1, 57539, Note_on_c, 0, 69, 116
1, 57630, Note_off_c, 0, 69, 116
1, 57654, Note_on_c, 0, 69, 116
1, 57730, Note_off_c, 0, 69, 116
1, 57747, Note_on_c, 0, 67, 107
1, 57884, Note_off_c, 0, 67, 107
1, 57906, Note_on_c, 0, 69, 107
1, 57989, Note_off_c, 0, 69, 107
1, 58310, Note_on_c, 0, 57, 101
1, 58368, Note_off_c, 0, 57, 101
1, 58392, Note_on_c, 0, 57, 104
1, 58492, Note_off_c, 0, 57, 104
1, 58508, Note_on_c, 0, 55, 98
1, 58643, Note_off_c, 0, 55, 98
1, 58670, Note_on_c, 0, 57, 98
1, 58721, Note_off_c, 0, 57, 98
1, 59038, Note_on_c, 0, 69, 117
1, 59129, Note_off_c, 0, 69, 117
1, 59143, Note_on_c, 0, 69, 113
1, 59236, Note_off_c, 0, 69, 113
1, 59270, Note_on_c, 0, 67, 101
1, 59324, Note_off_c, 0, 67, 101
1, 59336, Note_on_c, 0, 69, 112
1, 59422, Note_off_c, 0, 69, 112
1, 59431, Note_on_c, 0, 70, 111
1, 59546, Note_off_c, 0, 70, 111
1, 59546, Note_on_c, 0, 67, 104
1, 59597, Note_off_c, 0, 67, 104
1, 59611, Note_on_c, 0, 69, 114
1, 59704, Note_off_c, 0, 69, 114
1, 59704, Note_on_c, 0, 67, 106
1, 59795, Note_off_c, 0, 67, 106
1, 59795, Note_on_c, 0, 65, 99
1, 59937, Note_off_c, 0, 65, 99
1, 59947, Note_on_c, 0, 62, 81
1, 59986, Note_off_c, 0, 62, 81
1, 59987, Note_on_c, 0, 63, 112
1, 60100, Note_off_c, 0, 63, 112
1, 60112, Note_on_c, 0, 64, 116
1, 60180, Note_off_c, 0, 64, 116
1, 60182, Note_on_c, 0, 65, 102
1, 60300, Note_off_c, 0, 65, 102
1, 60323, Note_on_c, 0, 66, 98
1, 60367, Note_off_c, 0, 66, 98
1, 60367, Note_on_c, 0, 67, 108
1, 60458, Note_off_c, 0, 67, 108
1, 60497, Note_on_c, 0, 64, 103
1, 60533, Note_off_c, 0, 64, 103
1, 60545, Note_on_c, 0, 65, 113
1, 60640, Note_off_c, 0, 65, 113
1, 60647, Note_on_c, 0, 66, 95
1, 60686, Note_off_c, 0, 66, 95
1, 60686, Note_on_c, 0, 65, 113
1, 60762, Note_off_c, 0, 65, 113
1, 60774, Note_on_c, 0, 64, 103
1, 60860, Note_off_c, 0, 64, 103
1, 60860, Note_on_c, 0, 60, 107
1, 60938, Note_off_c, 0, 60, 107
1, 61122, Note_on_c, 0, 65, 114
1, 61247, Note_off_c, 0, 65, 114
1, 61259, Note_on_c, 0, 62, 100
1, 61342, Note_off_c, 0, 62, 100
1, 61425, Note_on_c, 0, 66, 112
1, 61491, Note_off_c, 0, 66, 112
1, 61508, Note_on_c, 0, 67, 109
1, 61537, Note_off_c, 0, 67, 109
1, 61549, Note_on_c, 0, 66, 101
1, 61622, Note_off_c, 0, 66, 101
1, 61630, Note_on_c, 0, 63, 96
1, 61674, Note_off_c, 0, 63, 96
1, 61691, Note_on_c, 0, 69, 119
1, 61774, Note_off_c, 0, 69, 119
1, 61808, Note_on_c, 0, 69, 114
1, 61879, Note_off_c, 0, 69, 114
1, 61886, Note_on_c, 0, 68, 109
1, 61949, Note_off_c, 0, 68, 109
1, 62010, Note_on_c, 0, 69, 105
1, 62066, Note_off_c, 0, 69, 105
1, 62085, Note_on_c, 0, 70, 90
1, 62176, Note_off_c, 0, 70, 90
1, 62195, Note_on_c, 0, 65, 108
1, 62276, Note_off_c, 0, 65, 108
1, 62620, Note_on_c, 0, 62, 118
1, 62735, Note_off_c, 0, 62, 118
1, 62742, Note_on_c, 0, 63, 112
1, 62825, Note_off_c, 0, 63, 112
1, 62825, Note_on_c, 0, 64, 115
1, 62923, Note_off_c, 0, 64, 115
1, 62937, Note_on_c, 0, 62, 119
1, 63023, Note_off_c, 0, 62, 119
1, 63045, Note_on_c, 0, 61, 105
1, 63128, Note_off_c, 0, 61, 105
1, 63137, Note_on_c, 0, 58, 106
1, 63193, Note_off_c, 0, 58, 106
1, 63197, Note_on_c, 0, 55, 106
1, 63258, Note_off_c, 0, 55, 106
1, 63275, Note_on_c, 0, 56, 93
1, 63348, Note_off_c, 0, 56, 93
1, 63379, Note_on_c, 0, 57, 101
1, 63472, Note_off_c, 0, 57, 101
1, 63491, Note_on_c, 0, 52, 96
1, 63552, Note_on_c, 0, 55, 102
1, 63552, Note_off_c, 0, 52, 96
1, 63679, Note_off_c, 0, 55, 102
1, 63703, Note_on_c, 0, 52, 93
1, 63752, Note_off_c, 0, 52, 93
1, 63764, Note_on_c, 0, 53, 108
1, 63857, Note_off_c, 0, 53, 108
1, 63866, Note_on_c, 0, 57, 98
1, 63907, Note_off_c, 0, 57, 98
1, 63941, Note_on_c, 0, 61, 99
1, 64004, Note_off_c, 0, 61, 99
1, 64028, Note_on_c, 0, 62, 97
1, 64096, Note_off_c, 0, 62, 97
1, 64110, Note_on_c, 0, 64, 100
1, 64151, Note_off_c, 0, 64, 100
1, 64163, Note_on_c, 0, 65, 113
1, 64223, Note_off_c, 0, 65, 113
1, 64257, Note_on_c, 0, 61, 103
1, 64325, Note_off_c, 0, 61, 103
1, 64332, Note_on_c, 0, 62, 112
1, 64423, Note_off_c, 0, 62, 112
1, 64432, Note_on_c, 0, 64, 115
1, 64515, Note_off_c, 0, 64, 115
1, 64527, Note_on_c, 0, 61, 103
1, 64625, Note_off_c, 0, 61, 103
1, 64641, Note_on_c, 0, 56, 107
1, 64730, Note_off_c, 0, 56, 107
1, 64746, Note_on_c, 0, 53, 107
1, 64805, Note_on_c, 0, 56, 89
1, 64805, Note_off_c, 0, 53, 107
1, 64866, Note_off_c, 0, 56, 89
1, 64883, Note_on_c, 0, 60, 103
1, 64951, Note_off_c, 0, 60, 103
1, 64992, Note_on_c, 0, 57, 99
1, 65075, Note_off_c, 0, 57, 99
1, 65084, Note_on_c, 0, 53, 105
1, 65165, Note_off_c, 0, 53, 105
1, 65165, Note_on_c, 0, 50, 96
1, 65256, Note_off_c, 0, 50, 96
1, 65268, Note_on_c, 0, 59, 109
1, 65354, Note_off_c, 0, 59, 109
1, 65363, Note_on_c, 0, 57, 102
1, 65426, Note_off_c, 0, 57, 102
1, 65433, Note_on_c, 0, 54, 109
1, 65533, Note_off_c, 0, 54, 109
1, 66394, Note_on_c, 0, 67, 113
1, 66521, Note_off_c, 0, 67, 113
1, 66567, Note_on_c, 0, 72, 114
1, 66697, Note_off_c, 0, 72, 114
1, 66704, Note_on_c, 0, 71, 116
1, 66792, Note_off_c, 0, 71, 116
1, 66801, Note_on_c, 0, 67, 107
1, 66889, Note_off_c, 0, 67, 107
1, 66977, Note_on_c, 0, 70, 114
1, 67095, Note_off_c, 0, 70, 114
1, 67102, Note_on_c, 0, 67, 99
1, 67165, Note_off_c, 0, 67, 99
1, 67165, Note_on_c, 0, 69, 106
1, 67288, Note_off_c, 0, 69, 106
1, 67302, Note_on_c, 0, 68, 110
1, 67373, Note_off_c, 0, 68, 110
1, 67387, Note_on_c, 0, 67, 108
1, 67458, Note_off_c, 0, 67, 108
1, 67467, Note_on_c, 0, 66, 111
1, 67553, Note_off_c, 0, 66, 111
1, 67577, Note_on_c, 0, 65, 108
1, 67650, Note_off_c, 0, 65, 108
1, 67679, Note_on_c, 0, 62, 106
1, 67723, Note_off_c, 0, 62, 106
1, 67752, Note_on_c, 0, 64, 117
1, 67867, Note_off_c, 0, 64, 117
1, 68086, Note_on_c, 0, 64, 117
1, 68154, Note_off_c, 0, 64, 117
1, 68156, Note_on_c, 0, 61, 102
1, 68215, Note_off_c, 0, 61, 102
1, 68227, Note_on_c, 0, 56, 89
1, 68303, Note_off_c, 0, 56, 89
1, 68305, Note_on_c, 0, 58, 92
1, 68378, Note_off_c, 0, 58, 92
1, 68400, Note_on_c, 0, 60, 100
1, 68483, Note_off_c, 0, 60, 100
1, 68524, Note_on_c, 0, 62, 114
1, 68617, Note_off_c, 0, 62, 114
1, 68634, Note_on_c, 0, 58, 106
1, 68702, Note_off_c, 0, 58, 106
1, 68709, Note_on_c, 0, 55, 107
1, 68782, Note_off_c, 0, 55, 107
1, 68912, Note_on_c, 0, 53, 112
1, 68995, Note_off_c, 0, 53, 112
1, 69016, Note_on_c, 0, 51, 95
1, 69060, Note_off_c, 0, 51, 95
1, 69069, Note_on_c, 0, 52, 97
1, 69162, Note_off_c, 0, 52, 97
1, 69195, Note_on_c, 0, 61, 113
1, 69298, Note_off_c, 0, 61, 113
1, 69299, Note_on_c, 0, 58, 91
1, 69377, Note_off_c, 0, 58, 91
1, 69400, Note_on_c, 0, 59, 105
1, 69441, Note_off_c, 0, 59, 105
1, 69448, Note_on_c, 0, 60, 112
1, 69534, Note_off_c, 0, 60, 112
1, 69644, Note_on_c, 0, 60, 111
1, 69747, Note_off_c, 0, 60, 111
1, 69838, Note_on_c, 0, 65, 114
1, 69921, Note_off_c, 0, 65, 114
1, 70053, Note_on_c, 0, 65, 109
1, 70153, Note_off_c, 0, 65, 109
1, 70236, Note_on_c, 0, 68, 105
1, 70292, Note_off_c, 0, 68, 105
1, 70300, Note_on_c, 0, 69, 111
1, 70389, Note_off_c, 0, 69, 111
1, 70401, Note_on_c, 0, 70, 115
1, 70482, Note_off_c, 0, 70, 115
1, 70509, Note_on_c, 0, 69, 112
1, 70602, Note_off_c, 0, 69, 112
1, 70619, Note_on_c, 0, 67, 99
1, 70675, Note_off_c, 0, 67, 99
1, 70699, Note_on_c, 0, 65, 88
1, 70762, Note_off_c, 0, 65, 88
1, 70781, Note_on_c, 0, 67, 107
1, 70869, Note_off_c, 0, 67, 107
1, 70883, Note_on_c, 0, 64, 109
1, 70946, Note_off_c, 0, 64, 109
1, 70968, Note_on_c, 0, 65, 114
1, 71049, Note_off_c, 0, 65, 114
1, 71083, Note_on_c, 0, 67, 109
1, 71139, Note_off_c, 0, 67, 109
1, 71158, Note_on_c, 0, 68, 116
1, 71256, Note_off_c, 0, 68, 116
1, 71270, Note_on_c, 0, 65, 106
1, 71331, Note_off_c, 0, 65, 106
1, 71353, Note_on_c, 0, 67, 112
1, 71451, Note_off_c, 0, 67, 112
1, 71453, Note_on_c, 0, 65, 108
1, 71534, Note_off_c, 0, 65, 108
1, 71546, Note_on_c, 0, 60, 102
1, 71637, Note_off_c, 0, 60, 102
1, 71655, Note_on_c, 0, 58, 86
1, 71709, Note_off_c, 0, 58, 86
1, 71709, Note_on_c, 0, 63, 123
1, 71807, Note_off_c, 0, 63, 123
1, 71830, Note_on_c, 0, 60, 92
1, 71874, Note_off_c, 0, 60, 92
1, 71890, Note_on_c, 0, 62, 109
1, 72017, Note_off_c, 0, 62, 109
1, 72479, Note_on_c, 0, 55, 108
1, 72594, Note_off_c, 0, 55, 108
1, 72625, Note_on_c, 0, 60, 118
1, 72780, Note_off_c, 0, 60, 118
1, 72787, Note_on_c, 0, 63, 127
1, 72983, Note_off_c, 0, 63, 127
1, 73000, Note_on_c, 0, 64, 119
1, 73150, Note_off_c, 0, 64, 119
1, 73162, Note_on_c, 0, 55, 102
1, 73307, Note_off_c, 0, 55, 102
1, 73321, Note_on_c, 0, 57, 100
1, 73407, Note_off_c, 0, 57, 100
1, 73419, Note_on_c, 0, 60, 101
1, 73603, Note_off_c, 0, 60, 101
1, 73612, Note_on_c, 0, 63, 114
1, 73799, Note_off_c, 0, 63, 114
1, 73816, Note_on_c, 0, 64, 88
1, 73995, Note_off_c, 0, 64, 88
1, 74201, Note_on_c, 0, 55, 113
1, 74287, Note_off_c, 0, 55, 113
1, 74309, Note_on_c, 0, 57, 105
1, 74375, Note_off_c, 0, 57, 105
1, 74375, Note_on_c, 0, 60, 100
1, 74480, Note_off_c, 0, 60, 100
1, 74489, Note_on_c, 0, 63, 114
1, 74565, Note_off_c, 0, 63, 114
1, 74589, Note_on_c, 0, 64, 115
1, 74687, Note_off_c, 0, 64, 115
1, 74701, Note_on_c, 0, 60, 104
1, 74787, Note_off_c, 0, 60, 104
1, 74787, Note_on_c, 0, 67, 107
1, 74863, Note_off_c, 0, 67, 107
1, 74892, Note_on_c, 0, 67, 116
1, 74963, Note_off_c, 0, 67, 116
1, 74990, Note_on_c, 0, 67, 99
1, 75039, Note_off_c, 0, 67, 99
1, 75046, Note_on_c, 0, 64, 90
1, 75119, Note_off_c, 0, 64, 90
1, 75128, Note_on_c, 0, 61, 91
1, 75152, Note_off_c, 0, 61, 91
1, 75164, Note_on_c, 0, 63, 115
1, 75284, Note_off_c, 0, 63, 115
1, 75525, Note_on_c, 0, 55, 99
1, 75684, Note_off_c, 0, 55, 99
1, 75696, Note_on_c, 0, 57, 101
1, 75828, Note_off_c, 0, 57, 101
1, 75837, Note_on_c, 0, 55, 92
1, 75891, Note_off_c, 0, 55, 92
1, 75891, Note_on_c, 0, 60, 102
1, 76015, Note_off_c, 0, 60, 102
1, 76015, Note_on_c, 0, 58, 98
1, 76051, Note_off_c, 0, 58, 98
1, 76064, Note_on_c, 0, 63, 123
1, 76217, Note_off_c, 0, 63, 123
1, 76217, Note_on_c, 0, 60, 94
1, 76256, Note_off_c, 0, 60, 94
1, 76269, Note_on_c, 0, 64, 117
1, 76389, Note_off_c, 0, 64, 117
1, 76398, Note_on_c, 0, 60, 109
1, 76474, Note_off_c, 0, 60, 109
1, 76488, Note_on_c, 0, 55, 104
1, 76559, Note_off_c, 0, 55, 104
1, 76571, Note_on_c, 0, 53, 100
1, 76628, Note_off_c, 0, 53, 100
1, 76657, Note_on_c, 0, 58, 105
1, 76775, Note_off_c, 0, 58, 105
1, 76789, Note_on_c, 0, 55, 95
1, 76833, Note_off_c, 0, 55, 95
1, 76842, Note_on_c, 0, 58, 103
1, 76898, Note_off_c, 0, 58, 103
1, 76915, Note_on_c, 0, 58, 104
1, 77010, Note_off_c, 0, 58, 104
1, 77027, Note_on_c, 0, 55, 102
1, 77120, Note_off_c, 0, 55, 102
1, 77139, Note_on_c, 0, 58, 102
1, 77247, Note_off_c, 0, 58, 102
1, 77254, Note_on_c, 0, 55, 102
1, 77332, Note_off_c, 0, 55, 102
1, 77332, Note_on_c, 0, 53, 105
1, 77408, Note_off_c, 0, 53, 105
1, 77437, Note_on_c, 0, 52, 98
1, 77513, Note_off_c, 0, 52, 98
1, 77533, Note_on_c, 0, 53, 96
1, 77601, Note_off_c, 0, 53, 96
1, 77624, Note_on_c, 0, 58, 103
1, 77690, Note_off_c, 0, 58, 103
1, 77704, Note_on_c, 0, 62, 104
1, 77799, Note_off_c, 0, 62, 104
1, 77801, Note_on_c, 0, 59, 106
1, 77882, Note_off_c, 0, 59, 106
1, 77882, Note_on_c, 0, 60, 105
1, 77980, Note_off_c, 0, 60, 105
1, 77987, Note_on_c, 0, 64, 99
1, 78055, Note_off_c, 0, 64, 99
1, 78074, Note_on_c, 0, 67, 83
1, 78135, Note_off_c, 0, 67, 83
1, 78137, Note_on_c, 0, 71, 112
1, 78245, Note_off_c, 0, 71, 112
1, 78274, Note_on_c, 0, 67, 97
1, 78352, Note_off_c, 0, 67, 97
1, 78662, Note_on_c, 0, 70, 115
1, 78762, Note_off_c, 0, 70, 115
1, 78818, Note_on_c, 0, 67, 106
1, 78918, Note_off_c, 0, 67, 106
1, 79021, Note_on_c, 0, 70, 112
1, 79131, Note_off_c, 0, 70, 112
1, 79207, Note_on_c, 0, 67, 100
1, 79298, Note_off_c, 0, 67, 100
1, 79305, Note_on_c, 0, 70, 111
1, 79428, Note_off_c, 0, 70, 111
1, 79450, Note_on_c, 0, 67, 92
1, 79533, Note_off_c, 0, 67, 92
1, 79993, Note_on_c, 0, 67, 114
1, 80096, Note_off_c, 0, 67, 114
1, 80123, Note_on_c, 0, 69, 118
1, 80223, Note_off_c, 0, 69, 118
1, 80279, Note_on_c, 0, 69, 123
1, 80355, Note_off_c, 0, 69, 123
1, 80364, Note_on_c, 0, 70, 114
1, 80455, Note_off_c, 0, 70, 114
1, 80496, Note_on_c, 0, 70, 114
1, 80611, Note_off_c, 0, 70, 114
1, 80645, Note_on_c, 0, 68, 117
1, 80763, Note_off_c, 0, 68, 117
1, 80763, Note_on_c, 0, 67, 107
1, 80846, Note_off_c, 0, 67, 107
1, 80924, Note_on_c, 0, 64, 114
1, 80995, Note_off_c, 0, 64, 114
1, 81034, Note_on_c, 0, 65, 111
1, 81161, Note_off_c, 0, 65, 111
1, 81192, Note_on_c, 0, 63, 117
1, 81305, Note_off_c, 0, 63, 117
1, 81317, Note_on_c, 0, 64, 115
1, 81430, Note_off_c, 0, 64, 115
1, 81474, Note_on_c, 0, 62, 113
1, 81587, Note_off_c, 0, 62, 113
1, 81591, Note_on_c, 0, 61, 104
1, 81704, Note_off_c, 0, 61, 104
1, 81787, Note_on_c, 0, 58, 99
1, 81914, Note_off_c, 0, 58, 99
1, 81918, Note_on_c, 0, 57, 94
1, 82053, Note_off_c, 0, 57, 94
1, 82067, Note_on_c, 0, 57, 102
1, 82128, Note_off_c, 0, 57, 102
1, 82152, Note_on_c, 0, 50, 101
1, 82262, Note_off_c, 0, 50, 101
1, 82262, Note_on_c, 0, 53, 104
1, 82353, Note_off_c, 0, 53, 104
1, 82360, Note_on_c, 0, 55, 107
1, 82416, Note_off_c, 0, 55, 107
1, 82440, Note_on_c, 0, 57, 98
1, 82526, Note_on_c, 0, 61, 109
1, 82526, Note_off_c, 0, 57, 98
1, 82619, Note_off_c, 0, 61, 109
1, 82619, Note_on_c, 0, 64, 120
1, 82744, Note_off_c, 0, 64, 120
1, 82758, Note_on_c, 0, 65, 114
1, 82807, Note_off_c, 0, 65, 114
1, 82807, Note_on_c, 0, 66, 105
1, 82861, Note_off_c, 0, 66, 105
1, 82868, Note_on_c, 0, 67, 113
1, 82995, Note_off_c, 0, 67, 113
1, 83024, Note_on_c, 0, 64, 107
1, 83117, Note_off_c, 0, 64, 107
1, 83144, Note_on_c, 0, 65, 108
1, 83276, Note_off_c, 0, 65, 108
1, 83295, Note_on_c, 0, 57, 95
1, 83327, Note_off_c, 0, 57, 95
1, 83339, Note_on_c, 0, 59, 92
1, 83371, Note_off_c, 0, 59, 92
1, 83381, Note_on_c, 0, 64, 102
1, 83641, Note_off_c, 0, 64, 102
1, 84971, Note_on_c, 0, 64, 120
1, 85092, Note_off_c, 0, 64, 120
1, 85105, Note_on_c, 0, 66, 112
1, 85191, Note_off_c, 0, 66, 112
1, 85201, Note_on_c, 0, 67, 112
1, 85329, Note_off_c, 0, 67, 112
1, 85367, Note_on_c, 0, 64, 118
1, 85453, Note_off_c, 0, 64, 118
1, 85453, Note_on_c, 0, 65, 115
1, 85522, Note_off_c, 0, 65, 115
1, 85539, Note_on_c, 0, 66, 110
1, 85599, Note_off_c, 0, 66, 110
1, 85600, Note_on_c, 0, 67, 119
1, 85684, Note_off_c, 0, 67, 119
1, 85709, Note_on_c, 0, 64, 119
1, 85766, Note_off_c, 0, 64, 119
1, 85772, Note_on_c, 0, 65, 110
1, 85820, Note_off_c, 0, 65, 110
1, 85830, Note_on_c, 0, 66, 113
1, 85883, Note_off_c, 0, 66, 113
1, 85891, Note_on_c, 0, 67, 117
1, 85944, Note_off_c, 0, 67, 117
1, 85961, Note_on_c, 0, 64, 38
1, 86040, Note_off_c, 0, 64, 38
1, 86040, Note_on_c, 0, 65, 108
1, 86104, Note_on_c, 0, 66, 109
1, 86104, Note_off_c, 0, 65, 108
1, 86155, Note_off_c, 0, 66, 109
1, 86165, Note_on_c, 0, 67, 112
1, 86223, Note_off_c, 0, 67, 112
1, 86240, Note_on_c, 0, 64, 117
1, 86310, Note_off_c, 0, 64, 117
1, 86315, Note_on_c, 0, 65, 107
1, 86375, Note_on_c, 0, 66, 106
1, 86375, Note_off_c, 0, 65, 107
1, 86445, Note_off_c, 0, 66, 106
1, 86451, Note_on_c, 0, 67, 105
1, 86523, Note_off_c, 0, 67, 105
1, 86528, Note_on_c, 0, 63, 110
1, 86614, Note_off_c, 0, 63, 110
1, 86614, Note_on_c, 0, 64, 111
1, 86679, Note_off_c, 0, 64, 111
1, 86679, Note_on_c, 0, 66, 107
1, 86789, Note_off_c, 0, 66, 107
1, 86827, Note_on_c, 0, 63, 118
1, 86882, Note_off_c, 0, 63, 118
1, 86899, Note_on_c, 0, 64, 112
1, 86971, Note_off_c, 0, 64, 112
1, 86971, Note_on_c, 0, 66, 106
1, 87085, Note_off_c, 0, 66, 106
1, 87112, Note_on_c, 0, 63, 119
1, 87177, Note_off_c, 0, 63, 119
1, 87183, Note_on_c, 0, 64, 109
1, 87245, Note_off_c, 0, 64, 109
1, 87255, Note_on_c, 0, 66, 103
1, 87348, Note_off_c, 0, 66, 103
1, 87398, Note_on_c, 0, 63, 111
1, 87479, Note_off_c, 0, 63, 111
1, 87479, Note_on_c, 0, 64, 106
1, 87550, Note_off_c, 0, 64, 106
1, 87557, Note_on_c, 0, 67, 102
1, 87628, Note_off_c, 0, 67, 102
1, 87642, Note_on_c, 0, 65, 119
1, 87757, Note_off_c, 0, 65, 119
1, 87764, Note_on_c, 0, 62, 105
1, 87850, Note_off_c, 0, 62, 105
1, 88416, Note_on_c, 0, 65, 116
1, 88543, Note_off_c, 0, 65, 116
1, 88555, Note_on_c, 0, 62, 110
1, 88633, Note_off_c, 0, 62, 110
1, 88726, Note_on_c, 0, 62, 97
1, 88804, Note_off_c, 0, 62, 97
1, 88821, Note_on_c, 0, 64, 115
1, 88958, Note_off_c, 0, 64, 115
1, 88967, Note_on_c, 0, 62, 106
1, 89001, Note_off_c, 0, 62, 106
1, 89015, Note_on_c, 0, 64, 116
1, 89118, Note_off_c, 0, 64, 116
1, 89137, Note_on_c, 0, 62, 111
1, 89186, Note_off_c, 0, 62, 111
1, 89190, Note_on_c, 0, 65, 116
1, 89300, Note_off_c, 0, 65, 116
1, 89312, Note_on_c, 0, 62, 108
1, 89398, Note_off_c, 0, 62, 108
1, 89405, Note_on_c, 0, 57, 99
1, 89483, Note_off_c, 0, 57, 99
1, 89588, Note_on_c, 0, 59, 95
1, 89821, Note_off_c, 0, 59, 95
1, 90456, Note_on_c, 0, 67, 116
1, 90547, Note_off_c, 0, 67, 116
1, 90647, Note_on_c, 0, 67, 112
1, 90735, Note_off_c, 0, 67, 112
1, 90833, Note_on_c, 0, 67, 109
1, 90926, Note_off_c, 0, 67, 109
1, 91108, Note_on_c, 0, 67, 111
1, 91189, Note_off_c, 0, 67, 111
1, 91292, Note_on_c, 0, 67, 112
1, 91383, Note_off_c, 0, 67, 112
1, 91501, Note_on_c, 0, 67, 116
1, 91599, Note_off_c, 0, 67, 116
1, 91763, Note_on_c, 0, 69, 114
1, 91863, Note_off_c, 0, 69, 114
1, 91956, Note_on_c, 0, 67, 106
1, 92097, Note_off_c, 0, 67, 106
1, 92154, Note_on_c, 0, 67, 103
1, 92304, Note_off_c, 0, 67, 103
1, 92354, Note_on_c, 0, 67, 111
1, 92488, Note_off_c, 0, 67, 111
1, 92627, Note_on_c, 0, 67, 115
1, 92727, Note_off_c, 0, 67, 115
1, 92800, Note_on_c, 0, 67, 115
1, 92900, Note_off_c, 0, 67, 115
1, 92971, Note_on_c, 0, 67, 112
1, 93076, Note_off_c, 0, 67, 112
1, 93167, Note_on_c, 0, 67, 110
1, 93260, Note_off_c, 0, 67, 110
1, 93353, Note_on_c, 0, 67, 110
1, 93446, Note_off_c, 0, 67, 110
1, 93731, Note_on_c, 0, 69, 115
1, 93819, Note_off_c, 0, 69, 115
1, 93941, Note_on_c, 0, 69, 115
1, 94034, Note_off_c, 0, 69, 115
1, 94113, Note_on_c, 0, 69, 117
1, 94223, Note_off_c, 0, 69, 117
1, 94321, Note_on_c, 0, 69, 110
1, 94431, Note_off_c, 0, 69, 110
1, 94517, Note_on_c, 0, 69, 112
1, 94583, Note_off_c, 0, 69, 112
1, 94583, Note_on_c, 0, 70, 115
1, 94718, Note_off_c, 0, 70, 115
1, 94749, Note_on_c, 0, 69, 103
1, 94827, Note_off_c, 0, 69, 103
1, 94890, Note_on_c, 0, 69, 112
1, 95084, Note_off_c, 0, 69, 112
1, 95086, Note_on_c, 0, 68, 109
1, 95164, Note_off_c, 0, 68, 109
1, 95311, Note_on_c, 0, 68, 107
1, 95473, Note_off_c, 0, 68, 107
1, 95490, Note_on_c, 0, 67, 109
1, 95563, Note_off_c, 0, 67, 109
1, 95671, Note_on_c, 0, 67, 109
1, 95870, Note_off_c, 0, 67, 109
1, 95870, Note_on_c, 0, 66, 110
1, 95926, Note_off_c, 0, 66, 110
1, 96049, Note_on_c, 0, 66, 110
1, 96258, Note_off_c, 0, 66, 110
1, 96260, Note_on_c, 0, 61, 110
1, 96365, Note_off_c, 0, 61, 110
1, 96438, Note_on_c, 0, 61, 111
1, 96642, Note_off_c, 0, 61, 111
1, 96690, Note_on_c, 0, 57, 87
1, 96777, Note_off_c, 0, 57, 87
1, 96855, Note_on_c, 0, 64, 107
1, 96958, Note_off_c, 0, 64, 107
1, 97546, Note_on_c, 0, 64, 112
1, 97829, Note_off_c, 0, 64, 112
1, 97841, Note_on_c, 0, 63, 121
1, 97922, Note_off_c, 0, 63, 121
1, 97934, Note_on_c, 0, 64, 112
1, 98010, Note_off_c, 0, 64, 112
1, 98029, Note_on_c, 0, 55, 97
1, 98097, Note_off_c, 0, 55, 97
1, 98097, Note_on_c, 0, 57, 100
1, 98173, Note_off_c, 0, 57, 100
1, 98175, Note_on_c, 0, 60, 106
1, 98280, Note_off_c, 0, 60, 106
1, 98292, Note_on_c, 0, 59, 95
1, 98353, Note_off_c, 0, 59, 95
1, 98362, Note_on_c, 0, 63, 120
1, 98485, Note_off_c, 0, 63, 120
1, 98576, Note_on_c, 0, 64, 114
1, 98699, Note_off_c, 0, 64, 114
1, 99075, Note_on_c, 0, 64, 113
1, 99316, Note_off_c, 0, 64, 113
1, 99343, Note_on_c, 0, 63, 121
1, 99421, Note_off_c, 0, 63, 121
1, 99440, Note_on_c, 0, 64, 110
1, 99550, Note_on_c, 0, 55, 99
1, 99550, Note_off_c, 0, 64, 110
1, 99596, Note_off_c, 0, 55, 99
1, 99618, Note_on_c, 0, 57, 96
1, 99694, Note_off_c, 0, 57, 96
1, 99708, Note_on_c, 0, 60, 106
1, 99843, Note_off_c, 0, 60, 106
1, 99845, Note_on_c, 0, 57, 93
1, 99879, Note_off_c, 0, 57, 93
1, 99906, Note_on_c, 0, 63, 118
1, 100021, Note_off_c, 0, 63, 118
1, 100114, Note_on_c, 0, 64, 114
1, 100205, Note_off_c, 0, 64, 114
1, 100601, Note_on_c, 0, 64, 106
1, 100896, Note_off_c, 0, 64, 106
1, 100918, Note_on_c, 0, 65, 111
1, 101004, Note_off_c, 0, 65, 111
1, 101013, Note_on_c, 0, 63, 109
1, 101054, Note_off_c, 0, 63, 109
1, 101063, Note_on_c, 0, 64, 112
1, 101181, Note_off_c, 0, 64, 112
1, 101195, Note_on_c, 0, 60, 110
1, 101263, Note_off_c, 0, 60, 110
1, 101267, Note_on_c, 0, 55, 104
1, 101348, Note_off_c, 0, 55, 104
1, 101379, Note_on_c, 0, 53, 91
1, 101430, Note_off_c, 0, 53, 91
1, 101444, Note_on_c, 0, 58, 100
1, 101478, Note_off_c, 0, 58, 100
1, 101495, Note_on_c, 0, 59, 101
1, 101618, Note_off_c, 0, 59, 101
1, 101637, Note_on_c, 0, 60, 111
1, 101752, Note_off_c, 0, 60, 111
1, 101806, Note_on_c, 0, 59, 108
1, 101975, Note_off_c, 0, 59, 108
1, 101989, Note_on_c, 0, 60, 113
1, 102104, Note_off_c, 0, 60, 113
1, 102219, Note_on_c, 0, 59, 102
1, 102361, Note_off_c, 0, 59, 102
1, 102388, Note_on_c, 0, 60, 107
1, 102493, Note_off_c, 0, 60, 107
1, 102707, Note_on_c, 0, 64, 113
1, 102746, Note_off_c, 0, 64, 113
1, 102750, Note_on_c, 0, 67, 102
1, 102794, Note_off_c, 0, 67, 102
1, 102897, Note_on_c, 0, 67, 109
1, 103167, Note_off_c, 0, 67, 109
1, 103186, Note_on_c, 0, 65, 116
1, 103294, Note_off_c, 0, 65, 116
1, 103303, Note_on_c, 0, 67, 102
1, 103362, Note_off_c, 0, 67, 102
1, 103384, Note_on_c, 0, 63, 123
1, 103497, Note_off_c, 0, 63, 123
1, 103519, Note_on_c, 0, 60, 110
1, 103587, Note_off_c, 0, 60, 110
1, 103616, Note_on_c, 0, 55, 92
1, 103682, Note_off_c, 0, 55, 92
1, 103682, Note_on_c, 0, 54, 86
1, 103738, Note_off_c, 0, 54, 86
1, 103755, Note_on_c, 0, 60, 112
1, 103853, Note_off_c, 0, 60, 112
1, 104049, Note_on_c, 0, 55, 98
1, 104132, Note_off_c, 0, 55, 98
1, 104264, Note_on_c, 0, 67, 117
1, 104352, Note_off_c, 0, 67, 117
1, 104467, Note_on_c, 0, 67, 109
1, 104705, Note_off_c, 0, 67, 109
1, 104709, Note_on_c, 0, 65, 112
1, 104827, Note_off_c, 0, 65, 112
1, 104829, Note_on_c, 0, 67, 112
1, 104915, Note_off_c, 0, 67, 112
1, 104929, Note_on_c, 0, 63, 123
1, 105027, Note_off_c, 0, 63, 123
1, 105044, Note_on_c, 0, 60, 107
1, 105098, Note_off_c, 0, 60, 107
1, 105125, Note_on_c, 0, 55, 91
1, 105206, Note_off_c, 0, 55, 91
1, 105271, Note_on_c, 0, 60, 107
1, 105438, Note_off_c, 0, 60, 107
1, 105448, Note_on_c, 0, 62, 116
1, 105553, Note_off_c, 0, 62, 116
1, 105592, Note_on_c, 0, 63, 112
1, 105788, Note_off_c, 0, 63, 112
1, 106053, Note_on_c, 0, 63, 126
1, 106148, Note_off_c, 0, 63, 126
1, 106155, Note_on_c, 0, 64, 111
1, 106246, Note_on_c, 0, 65, 121
1, 106246, Note_off_c, 0, 64, 111
1, 106361, Note_off_c, 0, 65, 121
1, 106361, Note_on_c, 0, 64, 97
1, 106422, Note_off_c, 0, 64, 97
1, 106422, Note_on_c, 0, 67, 109
1, 106527, Note_off_c, 0, 67, 109
1, 106765, Note_on_c, 0, 65, 112
1, 106883, Note_off_c, 0, 65, 112
1, 106891, Note_on_c, 0, 67, 104
1, 106929, Note_off_c, 0, 67, 104
1, 106937, Note_on_c, 0, 65, 100
1, 107002, Note_off_c, 0, 65, 100
1, 107147, Note_on_c, 0, 64, 111
1, 107260, Note_off_c, 0, 64, 111
1, 107530, Note_on_c, 0, 64, 118
1, 107648, Note_off_c, 0, 64, 118
1, 107677, Note_on_c, 0, 64, 116
1, 107765, Note_off_c, 0, 64, 116
1, 107789, Note_on_c, 0, 63, 112
1, 107852, Note_off_c, 0, 63, 112
1, 107880, Note_on_c, 0, 64, 105
1, 107966, Note_off_c, 0, 64, 105
1, 107979, Note_on_c, 0, 67, 110
1, 108075, Note_off_c, 0, 67, 110
1, 108085, Note_on_c, 0, 64, 108
1, 108192, Note_off_c, 0, 64, 108
1, 108223, Note_on_c, 0, 65, 112
1, 108312, Note_off_c, 0, 65, 112
1, 108329, Note_on_c, 0, 62, 114
1, 108415, Note_off_c, 0, 62, 114
1, 108439, Note_on_c, 0, 63, 101
1, 108525, Note_off_c, 0, 63, 101
1, 108673, Note_on_c, 0, 63, 84
1, 108756, Note_off_c, 0, 63, 84
1, 108783, Note_on_c, 0, 63, 111
1, 108893, Note_off_c, 0, 63, 111
1, 108934, Note_on_c, 0, 62, 108
1, 108972, Note_off_c, 0, 62, 108
1, 108989, Note_on_c, 0, 63, 97
1, 109044, Note_off_c, 0, 63, 97
1, 109075, Note_on_c, 0, 65, 114
1, 109171, Note_off_c, 0, 65, 114
1, 109191, Note_on_c, 0, 62, 114
1, 109280, Note_off_c, 0, 62, 114
1, 109304, Note_on_c, 0, 62, 105
1, 109359, Note_off_c, 0, 62, 105
1, 109383, Note_on_c, 0, 65, 109
1, 109486, Note_off_c, 0, 65, 109
1, 109496, Note_on_c, 0, 61, 97
1, 109530, Note_off_c, 0, 61, 97
1, 109550, Note_on_c, 0, 63, 109
1, 109615, Note_off_c, 0, 63, 109
1, 109621, Note_on_c, 0, 61, 101
1, 109683, Note_off_c, 0, 61, 101
1, 109683, Note_on_c, 0, 59, 98
1, 109752, Note_off_c, 0, 59, 98
1, 109752, Note_on_c, 0, 60, 94
1, 109817, Note_off_c, 0, 60, 94
1, 109861, Note_on_c, 0, 67, 105
1, 109957, Note_off_c, 0, 67, 105
1, 109981, Note_on_c, 0, 65, 98
1, 110036, Note_off_c, 0, 65, 98
1, 110395, Note_on_c, 0, 65, 110
1, 110493, Note_off_c, 0, 65, 110
1, 110539, Note_on_c, 0, 67, 103
1, 110782, Note_off_c, 0, 67, 103
1, 110784, Note_on_c, 0, 65, 108
1, 110887, Note_off_c, 0, 65, 108
1, 110887, Note_on_c, 0, 67, 105
1, 110978, Note_off_c, 0, 67, 105
1, 110997, Note_on_c, 0, 63, 105
1, 111097, Note_off_c, 0, 63, 105
1, 111099, Note_on_c, 0, 64, 109
1, 111160, Note_off_c, 0, 64, 109
1, 111174, Note_on_c, 0, 65, 112
1, 111287, Note_off_c, 0, 65, 112
1, 111287, Note_on_c, 0, 63, 114
1, 111365, Note_off_c, 0, 63, 114
1, 111365, Note_on_c, 0, 64, 117
1, 111480, Note_off_c, 0, 64, 117
1, 111480, Note_on_c, 0, 60, 114
1, 111566, Note_off_c, 0, 60, 114
1, 111570, Note_on_c, 0, 55, 97
1, 111651, Note_off_c, 0, 55, 97
1, 111660, Note_on_c, 0, 53, 101
1, 111726, Note_off_c, 0, 53, 101
1, 111726, Note_on_c, 0, 58, 103
1, 111826, Note_off_c, 0, 58, 103
1, 111830, Note_on_c, 0, 55, 95
1, 111898, Note_off_c, 0, 55, 95
1, 111915, Note_on_c, 0, 51, 98
1, 112013, Note_off_c, 0, 51, 98
1, 112027, Note_on_c, 0, 55, 104
1, 112108, Note_off_c, 0, 55, 104
1, 112115, Note_on_c, 0, 52, 103
1, 112210, Note_off_c, 0, 52, 103
1, 112214, Note_on_c, 0, 53, 102
1, 112253, Note_off_c, 0, 53, 102
1, 112257, Note_on_c, 0, 55, 100
1, 112313, Note_off_c, 0, 55, 100
1, 112313, Note_on_c, 0, 58, 105
1, 112364, Note_off_c, 0, 58, 105
1, 112383, Note_on_c, 0, 62, 116
1, 112474, Note_off_c, 0, 62, 116
1, 112474, Note_on_c, 0, 69, 109
1, 112557, Note_off_c, 0, 69, 109
1, 112565, Note_on_c, 0, 70, 101
1, 112643, Note_off_c, 0, 70, 101
1, 112659, Note_on_c, 0, 62, 98
1, 112740, Note_off_c, 0, 62, 98
1, 112764, Note_on_c, 0, 66, 96
1, 112827, Note_on_c, 0, 69, 110
1, 112827, Note_off_c, 0, 66, 96
1, 112954, Note_off_c, 0, 69, 110
1, 112985, Note_on_c, 0, 65, 117
1, 113034, Note_off_c, 0, 65, 117
1, 113049, Note_on_c, 0, 62, 114
1, 113121, Note_off_c, 0, 62, 114
1, 113134, Note_on_c, 0, 58, 90
1, 113201, Note_off_c, 0, 58, 90
1, 113225, Note_on_c, 0, 67, 112
1, 113348, Note_off_c, 0, 67, 112
1, 113355, Note_on_c, 0, 64, 103
1, 113433, Note_off_c, 0, 64, 103
1, 113440, Note_on_c, 0, 60, 90
1, 113518, Note_off_c, 0, 60, 90
1, 113527, Note_on_c, 0, 58, 93
1, 113605, Note_off_c, 0, 58, 93
1, 113614, Note_on_c, 0, 65, 110
1, 113722, Note_off_c, 0, 65, 110
1, 113722, Note_on_c, 0, 62, 116
1, 113795, Note_off_c, 0, 62, 116
1, 113795, Note_on_c, 0, 58, 99
1, 113878, Note_off_c, 0, 58, 99
1, 113882, Note_on_c, 0, 55, 89
1, 113921, Note_off_c, 0, 55, 89
1, 113955, Note_on_c, 0, 64, 115
1, 114063, Note_off_c, 0, 64, 115
1, 114075, Note_on_c, 0, 61, 112
1, 114173, Note_off_c, 0, 61, 112
1, 114187, Note_on_c, 0, 58, 93
1, 114247, Note_off_c, 0, 58, 93
1, 114260, Note_on_c, 0, 57, 90
1, 114313, Note_off_c, 0, 57, 90
1, 114337, Note_on_c, 0, 62, 116
1, 114432, Note_off_c, 0, 62, 116
1, 114456, Note_on_c, 0, 59, 103
1, 114512, Note_off_c, 0, 59, 103
1, 114521, Note_on_c, 0, 57, 103
1, 114581, Note_off_c, 0, 57, 103
1, 114587, Note_on_c, 0, 58, 95
1, 114630, Note_off_c, 0, 58, 95
1, 114630, Note_on_c, 0, 59, 85
1, 114666, Note_off_c, 0, 59, 85
1, 114689, Note_on_c, 0, 60, 112
1, 114824, Note_off_c, 0, 60, 112
1, 114831, Note_on_c, 0, 57, 109
1, 114897, Note_off_c, 0, 57, 109
1, 114906, Note_on_c, 0, 53, 109
1, 115006, Note_off_c, 0, 53, 109
1, 115015, Note_on_c, 0, 50, 98
1, 115103, Note_off_c, 0, 50, 98
1, 115103, Note_on_c, 0, 59, 99
1, 115171, Note_off_c, 0, 59, 99
1, 115461, Note_on_c, 0, 58, 104
1, 115564, Note_off_c, 0, 58, 104
1, 115570, Note_on_c, 0, 55, 103
1, 115656, Note_off_c, 0, 55, 103
1, 115669, Note_on_c, 0, 50, 97
1, 115734, Note_off_c, 0, 50, 97
1, 115737, Note_on_c, 0, 58, 97
1, 115813, Note_off_c, 0, 58, 97
1, 116010, Note_on_c, 0, 58, 104
1, 116051, Note_off_c, 0, 58, 104
1, 116055, Note_on_c, 0, 55, 110
1, 116099, Note_off_c, 0, 55, 110
1, 116115, Note_on_c, 0, 50, 110
1, 116189, Note_on_c, 0, 52, 109
1, 116189, Note_off_c, 0, 50, 110
1, 116228, Note_off_c, 0, 52, 109
1, 116245, Note_on_c, 0, 58, 107
1, 116293, Note_off_c, 0, 58, 107
1, 116308, Note_on_c, 0, 55, 110
1, 116346, Note_off_c, 0, 55, 110
1, 116356, Note_on_c, 0, 52, 111
1, 116390, Note_off_c, 0, 52, 111
1, 116402, Note_on_c, 0, 50, 109
1, 116431, Note_off_c, 0, 50, 109
1, 116436, Note_on_c, 0, 52, 105
1, 116479, Note_off_c, 0, 52, 105
1, 116491, Note_on_c, 0, 58, 104
1, 116553, Note_off_c, 0, 58, 104
1, 116553, Note_on_c, 0, 55, 107
1, 116599, Note_off_c, 0, 55, 107
1, 116604, Note_on_c, 0, 50, 102
1, 116650, Note_off_c, 0, 50, 102
1, 116652, Note_on_c, 0, 52, 106
1, 116688, Note_off_c, 0, 52, 106
1, 116696, Note_on_c, 0, 58, 107
1, 116737, Note_off_c, 0, 58, 107
1, 116745, Note_on_c, 0, 55, 110
1, 116794, Note_off_c, 0, 55, 110
1, 116801, Note_on_c, 0, 50, 109
1, 116854, Note_off_c, 0, 50, 109
1, 116854, Note_on_c, 0, 52, 109
1, 116945, Note_off_c, 0, 52, 109
1, 117390, Note_on_c, 0, 58, 106
1, 117490, Note_off_c, 0, 58, 106
1, 117494, Note_on_c, 0, 55, 99
1, 117575, Note_off_c, 0, 55, 99
1, 117597, Note_on_c, 0, 52, 98
1, 117670, Note_off_c, 0, 52, 98
1, 117679, Note_on_c, 0, 48, 95
1, 117738, Note_on_c, 0, 57, 95
1, 117738, Note_off_c, 0, 48, 95
1, 117838, Note_off_c, 0, 57, 95
1, 117867, Note_on_c, 0, 53, 98
1, 117945, Note_off_c, 0, 53, 98
1, 117962, Note_on_c, 0, 55, 96
1, 118050, Note_off_c, 0, 55, 96
1, 118072, Note_on_c, 0, 57, 100
1, 118153, Note_off_c, 0, 57, 100
1, 118170, Note_on_c, 0, 59, 101
1, 118256, Note_off_c, 0, 59, 101
1, 118268, Note_on_c, 0, 60, 114
1, 118341, Note_off_c, 0, 60, 114
1, 118341, Note_on_c, 0, 62, 105
1, 118456, Note_off_c, 0, 62, 105
1, 118458, Note_on_c, 0, 64, 98
1, 118509, Note_off_c, 0, 64, 98
1, 118531, Note_on_c, 0, 67, 111
1, 118651, Note_on_c, 0, 64, 100
1, 118651, Note_off_c, 0, 67, 111
1, 118690, Note_off_c, 0, 64, 100
1, 118717, Note_on_c, 0, 65, 113
1, 118808, Note_off_c, 0, 65, 113
1, 118817, Note_on_c, 0, 67, 96
1, 118844, Note_off_c, 0, 67, 96
1, 118859, Note_on_c, 0, 65, 104
1, 118915, Note_off_c, 0, 65, 104
1, 118942, Note_on_c, 0, 64, 105
1, 119020, Note_off_c, 0, 64, 105
1, 119042, Note_on_c, 0, 62, 110
1, 119118, Note_off_c, 0, 62, 110
1, 119127, Note_on_c, 0, 60, 102
1, 119215, Note_off_c, 0, 60, 102
1, 119234, Note_on_c, 0, 58, 100
1, 119312, Note_off_c, 0, 58, 100
1, 119319, Note_on_c, 0, 57, 92
1, 119412, Note_off_c, 0, 57, 92
1, 119421, Note_on_c, 0, 60, 106
1, 119507, Note_off_c, 0, 60, 106
1, 119511, Note_on_c, 0, 62, 102
1, 119567, Note_off_c, 0, 62, 102
1, 119576, Note_on_c, 0, 64, 95
1, 119647, Note_off_c, 0, 64, 95
1, 119661, Note_on_c, 0, 67, 108
1, 119786, Note_off_c, 0, 67, 108
1, 119805, Note_on_c, 0, 64, 113
1, 119886, Note_off_c, 0, 64, 113
1, 119898, Note_on_c, 0, 65, 98
1, 119959, Note_off_c, 0, 65, 98
1, 119966, Note_on_c, 0, 66, 89
1, 120025, Note_off_c, 0, 66, 89
1, 120039, Note_on_c, 0, 68, 101
1, 120164, Note_off_c, 0, 68, 101
1, 120164, Note_on_c, 0, 64, 109
1, 120245, Note_off_c, 0, 64, 109
1, 120247, Note_on_c, 0, 67, 111
1, 120342, Note_off_c, 0, 67, 111
1, 120359, Note_on_c, 0, 62, 107
1, 120408, Note_off_c, 0, 62, 107
1, 120415, Note_on_c, 0, 64, 113
1, 120525, Note_off_c, 0, 64, 113
1, 120529, Note_on_c, 0, 67, 104
1, 120575, Note_off_c, 0, 67, 104
1, 120589, Note_on_c, 0, 68, 108
1, 120709, Note_off_c, 0, 68, 108
1, 120772, Note_on_c, 0, 67, 92
1, 120833, Note_off_c, 0, 67, 92
1, 120833, Note_on_c, 0, 56, 108
1, 120936, Note_off_c, 0, 56, 108
1, 120953, Note_on_c, 0, 52, 99
1, 121056, Note_off_c, 0, 52, 99
1, 121069, Note_on_c, 0, 56, 101
1, 121145, Note_off_c, 0, 56, 101
1, 121148, Note_on_c, 0, 50, 98
1, 121218, Note_off_c, 0, 50, 98
1, 121218, Note_on_c, 0, 64, 108
1, 121299, Note_off_c, 0, 64, 108
1, 121301, Note_on_c, 0, 59, 86
1, 121379, Note_off_c, 0, 59, 86
1, 121395, Note_on_c, 0, 62, 117
1, 121505, Note_off_c, 0, 62, 117
1, 121508, Note_on_c, 0, 56, 108
1, 121618, Note_off_c, 0, 56, 108
1, 121620, Note_on_c, 0, 59, 100
1, 121683, Note_off_c, 0, 59, 100
1, 122172, Note_on_c, 0, 60, 108
1, 122292, Note_off_c, 0, 60, 108
1, 122346, Note_on_c, 0, 62, 117
1, 122461, Note_off_c, 0, 62, 117
1, 122539, Note_on_c, 0, 64, 116
1, 122649, Note_off_c, 0, 64, 116
1, 122747, Note_on_c, 0, 65, 104
1, 122860, Note_off_c, 0, 65, 104
1, 122948, Note_on_c, 0, 67, 89
1, 123039, Note_off_c, 0, 67, 89
1, 123107, Note_on_c, 0, 69, 110
1, 123198, Note_off_c, 0, 69, 110
1, 123298, Note_on_c, 0, 69, 98
1, 123352, Note_off_c, 0, 69, 98
1, 123361, Note_on_c, 0, 70, 113
1, 123474, Note_off_c, 0, 70, 113
1, 123501, Note_on_c, 0, 68, 109
1, 123601, Note_off_c, 0, 68, 109
1, 123701, Note_on_c, 0, 69, 105
1, 123888, Note_off_c, 0, 69, 105
1, 124289, Note_on_c, 0, 69, 107
1, 124399, Note_off_c, 0, 69, 107
1, 124406, Note_on_c, 0, 65, 107
1, 124484, Note_off_c, 0, 65, 107
1, 124496, Note_on_c, 0, 62, 108
1, 124599, Note_off_c, 0, 62, 108
1, 124633, Note_on_c, 0, 67, 108
1, 124746, Note_off_c, 0, 67, 108
1, 124822, Note_on_c, 0, 67, 108
1, 124913, Note_off_c, 0, 67, 108
1, 125011, Note_on_c, 0, 63, 119
1, 125089, Note_off_c, 0, 63, 119
1, 125101, Note_on_c, 0, 64, 108
1, 125194, Note_off_c, 0, 64, 108
1, 125221, Note_on_c, 0, 65, 111
1, 125326, Note_off_c, 0, 65, 111
1, 125335, Note_on_c, 0, 64, 116
1, 125426, Note_off_c, 0, 64, 116
1, 125524, Note_on_c, 0, 60, 111
1, 125595, Note_off_c, 0, 60, 111
1, 125614, Note_on_c, 0, 55, 89
1, 125695, Note_off_c, 0, 55, 89
1, 125695, Note_on_c, 0, 53, 88
1, 125773, Note_off_c, 0, 53, 88
1, 125826, Note_on_c, 0, 59, 99
1, 125986, Note_off_c, 0, 59, 99
1, 125986, Note_on_c, 0, 60, 107
1, 126077, Note_off_c, 0, 60, 107
1, 126136, Note_on_c, 0, 63, 116
1, 126342, Note_off_c, 0, 63, 116
1, 126349, Note_on_c, 0, 64, 108
1, 126452, Note_off_c, 0, 64, 108
1, 126523, Note_on_c, 0, 66, 105
1, 126705, Note_off_c, 0, 66, 105
1, 126712, Note_on_c, 0, 67, 101
1, 126800, Note_off_c, 0, 67, 101
1, 126927, Note_on_c, 0, 71, 113
1, 127091, Note_off_c, 0, 71, 113
1, 127122, Note_on_c, 0, 67, 89
1, 127220, Note_off_c, 0, 67, 89
1, 127320, Note_on_c, 0, 72, 114
1, 127406, Note_off_c, 0, 72, 114
1, 127693, Note_on_c, 0, 67, 109
1, 127822, Note_off_c, 0, 67, 109
1, 128083, Note_on_c, 0, 69, 112
1, 128219, Note_off_c, 0, 69, 112
1, 128452, Note_on_c, 0, 64, 113
1, 128595, Note_off_c, 0, 64, 113
1, 128863, Note_on_c, 0, 67, 105
1, 128991, Note_off_c, 0, 67, 105
1, 129233, Note_on_c, 0, 69, 108
1, 129364, Note_off_c, 0, 69, 108
1, 129625, Note_on_c, 0, 67, 104
1, 129740, Note_off_c, 0, 67, 104
1, 129989, Note_on_c, 0, 70, 114
1, 130116, Note_off_c, 0, 70, 114
1, 130377, Note_on_c, 0, 68, 107
1, 130486, Note_off_c, 0, 68, 107
1, 130782, Note_on_c, 0, 67, 107
1, 130905, Note_off_c, 0, 67, 107
1, 131170, Note_on_c, 0, 64, 113
1, 131289, Note_off_c, 0, 64, 113
1, 131548, Note_on_c, 0, 65, 113
1, 131651, Note_off_c, 0, 65, 113
1, 131924, Note_on_c, 0, 62, 112
1, 131997, Note_off_c, 0, 62, 112
1, 132122, Note_on_c, 0, 64, 115
1, 132225, Note_off_c, 0, 64, 115
1, 132229, Note_on_c, 0, 60, 96
1, 132295, Note_off_c, 0, 60, 96
1, 132297, Note_on_c, 0, 62, 108
1, 132385, Note_off_c, 0, 62, 108
1, 132394, Note_on_c, 0, 59, 98
1, 132480, Note_off_c, 0, 59, 98
1, 132487, Note_on_c, 0, 55, 96
1, 132590, Note_off_c, 0, 55, 96
1, 132590, Note_on_c, 0, 53, 89
1, 132676, Note_off_c, 0, 53, 89
1, 132703, Note_on_c, 0, 57, 105
1, 132784, Note_off_c, 0, 57, 105
1, 132801, Note_on_c, 0, 59, 98
1, 132867, Note_off_c, 0, 59, 98
1, 132867, Note_on_c, 0, 61, 102
1, 132980, Note_off_c, 0, 61, 102
1, 132987, Note_on_c, 0, 62, 109
1, 133078, Note_off_c, 0, 62, 109
1, 133095, Note_on_c, 0, 64, 117
1, 133203, Note_off_c, 0, 64, 117
1, 133212, Note_on_c, 0, 65, 109
1, 133271, Note_off_c, 0, 65, 109
1, 133278, Note_on_c, 0, 67, 109
1, 133376, Note_off_c, 0, 67, 109
1, 133390, Note_on_c, 0, 69, 112
1, 133451, Note_off_c, 0, 69, 112
1, 133463, Note_on_c, 0, 72, 113
1, 133551, Note_off_c, 0, 72, 113
1, 133819, Note_on_c, 0, 67, 109
1, 133912, Note_off_c, 0, 67, 109
1, 134197, Note_on_c, 0, 69, 111
1, 134285, Note_off_c, 0, 69, 111
1, 134619, Note_on_c, 0, 64, 111
1, 134710, Note_off_c, 0, 64, 111
1, 135007, Note_on_c, 0, 67, 107
1, 135095, Note_off_c, 0, 67, 107
1, 135378, Note_on_c, 0, 69, 111
1, 135478, Note_off_c, 0, 69, 111
1, 135770, Note_on_c, 0, 67, 109
1, 135858, Note_off_c, 0, 67, 109
1, 136162, Note_on_c, 0, 70, 112
1, 136270, Note_off_c, 0, 70, 112
1, 136573, Note_on_c, 0, 67, 106
1, 136676, Note_off_c, 0, 67, 106
1, 136960, Note_on_c, 0, 64, 112
1, 137046, Note_off_c, 0, 64, 112
1, 137336, Note_on_c, 0, 65, 109
1, 137449, Note_off_c, 0, 65, 109
1, 137456, Note_on_c, 0, 62, 105
1, 137522, Note_off_c, 0, 62, 105
1, 137522, Note_on_c, 0, 64, 110
1, 137640, Note_off_c, 0, 64, 110
1, 137654, Note_on_c, 0, 61, 97
1, 137708, Note_off_c, 0, 61, 97
1, 137720, Note_on_c, 0, 62, 109
1, 137823, Note_off_c, 0, 62, 109
1, 137827, Note_on_c, 0, 64, 115
1, 137945, Note_off_c, 0, 64, 115
1, 137957, Note_on_c, 0, 66, 103
1, 138020, Note_off_c, 0, 66, 103
1, 138039, Note_on_c, 0, 67, 105
1, 138098, Note_off_c, 0, 67, 105
1, 138125, Note_on_c, 0, 69, 107
1, 138203, Note_off_c, 0, 69, 107
1, 138203, Note_on_c, 0, 72, 108
1, 138303, Note_off_c, 0, 72, 108
1, 138310, Note_on_c, 0, 71, 110
1, 138408, Note_off_c, 0, 71, 110
1, 138430, Note_on_c, 0, 67, 94
1, 138471, Note_off_c, 0, 67, 94
1, 138478, Note_on_c, 0, 69, 112
1, 138564, Note_off_c, 0, 69, 112
1, 138581, Note_on_c, 0, 65, 107
1, 138667, Note_off_c, 0, 65, 107
1, 138679, Note_on_c, 0, 64, 103
1, 138762, Note_off_c, 0, 64, 103
1, 138774, Note_on_c, 0, 67, 107
1, 138857, Note_off_c, 0, 67, 107
1, 138857, Note_on_c, 0, 65, 109
1, 138952, Note_off_c, 0, 65, 109
1, 138964, Note_on_c, 0, 62, 114
1, 139055, Note_off_c, 0, 62, 114
1, 139077, Note_on_c, 0, 61, 102
1, 139143, Note_off_c, 0, 61, 102
1, 139143, Note_on_c, 0, 64, 118
1, 139261, Note_off_c, 0, 64, 118
1, 139261, Note_on_c, 0, 62, 106
1, 139347, Note_off_c, 0, 62, 106
1, 139553, Note_on_c, 0, 64, 101
1, 139621, Note_off_c, 0, 64, 101
1, 139623, Note_on_c, 0, 68, 117
1, 139785, Note_off_c, 0, 68, 117
1, 139922, Note_on_c, 0, 68, 97
1, 140229, Note_off_c, 0, 68, 97
1, 140243, Note_on_c, 0, 66, 91
1, 140321, Note_off_c, 0, 66, 91
1, 140321, Note_on_c, 0, 68, 88
1, 140399, Note_off_c, 0, 68, 88
1, 140413, Note_on_c, 0, 70, 103
1, 140523, Note_off_c, 0, 70, 103
1, 140532, Note_on_c, 0, 66, 101
1, 140630, Note_off_c, 0, 66, 101
1, 140630, Note_on_c, 0, 68, 103
1, 140701, Note_off_c, 0, 68, 103
1, 140718, Note_on_c, 0, 68, 102
1, 140801, Note_off_c, 0, 68, 102
1, 140810, Note_on_c, 0, 63, 103
1, 140933, Note_off_c, 0, 63, 103
1, 141336, Note_on_c, 0, 68, 114
1, 141422, Note_off_c, 0, 68, 114
1, 141508, Note_on_c, 0, 68, 103
1, 141820, Note_off_c, 0, 68, 103
1, 141856, Note_on_c, 0, 66, 104
1, 141919, Note_off_c, 0, 66, 104
1, 141933, Note_on_c, 0, 68, 88
1, 142016, Note_off_c, 0, 68, 88
1, 142016, Note_on_c, 0, 70, 96
1, 142114, Note_off_c, 0, 70, 96
1, 142126, Note_on_c, 0, 66, 92
1, 142189, Note_off_c, 0, 66, 92
1, 142201, Note_on_c, 0, 68, 102
1, 142262, Note_off_c, 0, 68, 102
1, 142284, Note_on_c, 0, 66, 100
1, 142377, Note_off_c, 0, 66, 100
1, 142396, Note_on_c, 0, 61, 107
1, 142499, Note_off_c, 0, 61, 107
1, 142513, Note_on_c, 0, 59, 92
1, 142554, Note_off_c, 0, 59, 92
1, 142557, Note_on_c, 0, 63, 114
1, 142684, Note_off_c, 0, 63, 114
1, 142706, Note_on_c, 0, 61, 102
1, 142742, Note_off_c, 0, 61, 102
1, 142761, Note_on_c, 0, 63, 114
1, 142859, Note_off_c, 0, 63, 114
1, 142863, Note_on_c, 0, 67, 107
1, 142944, Note_off_c, 0, 67, 107
1, 142947, Note_on_c, 0, 66, 103
1, 143035, Note_off_c, 0, 66, 103
1, 143048, Note_on_c, 0, 68, 104
1, 143124, Note_off_c, 0, 68, 104
1, 143137, Note_on_c, 0, 66, 100
1, 143247, Note_off_c, 0, 66, 100
1, 143250, Note_on_c, 0, 61, 109
1, 143338, Note_off_c, 0, 61, 109
1, 143360, Note_on_c, 0, 58, 97
1, 143411, Note_off_c, 0, 58, 97
1, 143425, Note_on_c, 0, 63, 105
1, 143528, Note_off_c, 0, 63, 105
1, 143532, Note_on_c, 0, 61, 105
1, 143640, Note_off_c, 0, 61, 105
1, 143654, Note_on_c, 0, 56, 100
1, 143703, Note_off_c, 0, 56, 100
1, 143727, Note_on_c, 0, 54, 97
1, 143903, Note_off_c, 0, 54, 97
1, 143940, Note_on_c, 0, 55, 102
1, 144028, Note_off_c, 0, 55, 102
1, 144133, Note_on_c, 0, 58, 106
1, 144201, Note_off_c, 0, 58, 106
1, 144214, Note_on_c, 0, 55, 94
1, 144295, Note_off_c, 0, 55, 94
1, 144315, Note_on_c, 0, 56, 102
1, 144406, Note_off_c, 0, 56, 102
1, 144419, Note_on_c, 0, 58, 101
1, 144482, Note_off_c, 0, 58, 101
1, 144508, Note_on_c, 0, 59, 99
1, 144584, Note_off_c, 0, 59, 99
1, 144586, Note_on_c, 0, 64, 110
1, 144701, Note_off_c, 0, 64, 110
1, 144713, Note_on_c, 0, 65, 100
1, 144789, Note_off_c, 0, 65, 100
1, 144808, Note_on_c, 0, 67, 99
1, 144876, Note_off_c, 0, 67, 99
1, 144885, Note_on_c, 0, 68, 105
1, 144966, Note_off_c, 0, 68, 105
1, 144975, Note_on_c, 0, 70, 94
1, 145075, Note_off_c, 0, 70, 94
1, 145089, Note_on_c, 0, 71, 104
1, 145202, Note_off_c, 0, 71, 104
1, 145209, Note_on_c, 0, 66, 100
1, 145272, Note_off_c, 0, 66, 100
1, 145286, Note_on_c, 0, 62, 104
1, 145384, Note_off_c, 0, 62, 104
1, 145398, Note_on_c, 0, 59, 96
1, 145471, Note_off_c, 0, 59, 96
1, 145485, Note_on_c, 0, 64, 111
1, 145580, Note_off_c, 0, 64, 111
1, 145587, Note_on_c, 0, 61, 112
1, 145680, Note_off_c, 0, 61, 112
1, 145702, Note_on_c, 0, 59, 100
1, 145775, Note_off_c, 0, 59, 100
1, 145787, Note_on_c, 0, 54, 93
1, 145878, Note_off_c, 0, 54, 93
1, 145880, Note_on_c, 0, 55, 102
1, 145966, Note_off_c, 0, 55, 102
1, 145985, Note_on_c, 0, 72, 113
1, 146073, Note_off_c, 0, 72, 113
1, 146129, Note_on_c, 0, 72, 109
1, 146224, Note_off_c, 0, 72, 109
1, 146243, Note_on_c, 0, 67, 101
1, 146319, Note_off_c, 0, 67, 101
1, 146358, Note_on_c, 0, 67, 100
1, 146436, Note_off_c, 0, 67, 100
1, 146448, Note_on_c, 0, 67, 98
1, 146534, Note_off_c, 0, 67, 98
1, 146565, Note_on_c, 0, 67, 97
1, 146606, Note_off_c, 0, 67, 97
1, 146650, Note_on_c, 0, 69, 105
1, 146750, Note_off_c, 0, 69, 105
1, 146826, Note_on_c, 0, 69, 85
1, 146944, Note_off_c, 0, 69, 85
1, 146971, Note_on_c, 0, 62, 106
1, 147034, Note_off_c, 0, 62, 106
1, 147117, Note_on_c, 0, 62, 105
1, 147220, Note_off_c, 0, 62, 105
1, 147296, Note_on_c, 0, 62, 108
1, 147332, Note_off_c, 0, 62, 108
1, 147341, Note_on_c, 0, 64, 89
1, 147407, Note_off_c, 0, 64, 89
1, 147432, Note_on_c, 0, 67, 108
1, 147487, Note_off_c, 0, 67, 108
1, 147554, Note_on_c, 0, 67, 106
1, 147622, Note_off_c, 0, 67, 106
1, 147673, Note_on_c, 0, 67, 97
1, 147759, Note_off_c, 0, 67, 97
1, 147825, Note_on_c, 0, 69, 104
1, 147948, Note_off_c, 0, 69, 104
1, 147952, Note_on_c, 0, 67, 89
1, 148057, Note_off_c, 0, 67, 89
1, 148219, Note_on_c, 0, 46, 105
1, 148366, Note_off_c, 0, 46, 105
1, 148393, Note_on_c, 0, 53, 96
1, 148493, Note_off_c, 0, 53, 96
1, 148505, Note_on_c, 0, 58, 102
1, 148628, Note_off_c, 0, 58, 102
1, 148645, Note_on_c, 0, 59, 106
1, 148728, Note_off_c, 0, 59, 106
1, 148732, Note_on_c, 0, 65, 109
1, 148830, Note_off_c, 0, 65, 109
1, 148834, Note_on_c, 0, 70, 115
1, 148984, Note_off_c, 0, 70, 115
1, 148998, Note_on_c, 0, 68, 109
1, 149096, Note_off_c, 0, 68, 109
1, 149115, Note_on_c, 0, 67, 95
1, 149469, Note_off_c, 0, 67, 95
1, 149816, Note_on_c, 0, 64, 116
1, 149897, Note_off_c, 0, 64, 116
1, 149899, Note_on_c, 0, 65, 106
1, 150026, Note_off_c, 0, 65, 106
1, 150035, Note_on_c, 0, 63, 109
1, 150094, Note_off_c, 0, 63, 109
1, 150098, Note_on_c, 0, 64, 112
1, 150223, Note_off_c, 0, 64, 112
1, 150232, Note_on_c, 0, 60, 102
1, 150308, Note_off_c, 0, 60, 102
1, 150308, Note_on_c, 0, 55, 90
1, 150408, Note_off_c, 0, 55, 90
1, 150430, Note_on_c, 0, 53, 96
1, 150471, Note_off_c, 0, 53, 96
1, 150488, Note_on_c, 0, 58, 100
1, 150593, Note_off_c, 0, 58, 100
1, 150610, Note_on_c, 0, 55, 90
1, 150654, Note_off_c, 0, 55, 90
1, 150676, Note_on_c, 0, 58, 100
1, 150776, Note_off_c, 0, 58, 100
1, 150783, Note_on_c, 0, 55, 88
1, 150834, Note_off_c, 0, 55, 88
1, 150853, Note_on_c, 0, 60, 108
1, 150990, Note_off_c, 0, 60, 108
1, 150999, Note_on_c, 0, 58, 90
1, 151030, Note_off_c, 0, 58, 90
1, 151034, Note_on_c, 0, 60, 100
1, 151206, Note_off_c, 0, 60, 100
1, 151215, Note_on_c, 0, 57, 90
1, 151264, Note_off_c, 0, 57, 90
1, 151286, Note_on_c, 0, 62, 115
1, 151443, Note_off_c, 0, 62, 115
1, 151457, Note_on_c, 0, 64, 114
1, 151560, Note_off_c, 0, 64, 114
1, 151577, Note_on_c, 0, 65, 112
1, 151655, Note_off_c, 0, 65, 112
1, 151770, Note_on_c, 0, 64, 115
1, 151853, Note_off_c, 0, 64, 115
1, 152170, Note_on_c, 0, 67, 108
1, 152258, Note_off_c, 0, 67, 108
1, 152336, Note_on_c, 0, 67, 106
1, 152424, Note_off_c, 0, 67, 106
1, 152529, Note_on_c, 0, 67, 103
1, 152620, Note_off_c, 0, 67, 103
1, 152725, Note_on_c, 0, 66, 84
1, 152769, Note_off_c, 0, 66, 84
1, 152781, Note_on_c, 0, 67, 105
1, 152869, Note_off_c, 0, 67, 105
1, 152987, Note_on_c, 0, 67, 104
1, 153080, Note_off_c, 0, 67, 104
1, 153177, Note_on_c, 0, 67, 107
1, 153317, Note_off_c, 0, 67, 107
1, 153738, Note_on_c, 0, 67, 109
1, 153819, Note_off_c, 0, 67, 109
1, 153875, Note_on_c, 0, 67, 102
1, 153961, Note_off_c, 0, 67, 102
1, 154059, Note_on_c, 0, 67, 111
1, 154142, Note_off_c, 0, 67, 111
1, 154274, Note_on_c, 0, 67, 90
1, 154342, Note_off_c, 0, 67, 90
1, 154355, Note_on_c, 0, 67, 103
1, 154483, Note_off_c, 0, 67, 103
1, 154857, Note_on_c, 0, 63, 124
1, 154960, Note_off_c, 0, 63, 124
1, 155052, Note_on_c, 0, 60, 79
1, 155079, Note_off_c, 0, 60, 79
1, 155121, Note_on_c, 0, 63, 107
1, 155352, Note_off_c, 0, 63, 107
1, 155440, Note_on_c, 0, 60, 105
1, 155518, Note_off_c, 0, 60, 105
1, 155933, Note_on_c, 0, 66, 112
1, 156028, Note_off_c, 0, 66, 112
1, 156109, Note_on_c, 0, 67, 115
1, 156190, Note_off_c, 0, 67, 115
1, 156300, Note_on_c, 0, 63, 121
1, 156391, Note_off_c, 0, 63, 121
1, 156422, Note_on_c, 0, 64, 117
1, 156490, Note_off_c, 0, 64, 117
1, 156613, Note_on_c, 0, 60, 97
1, 156900, Note_off_c, 0, 60, 97
1, 156902, Note_on_c, 0, 55, 94
1, 156965, Note_off_c, 0, 55, 94
1, 156979, Note_on_c, 0, 57, 98
1, 157050, Note_off_c, 0, 57, 98
1, 157062, Note_on_c, 0, 60, 98
1, 157157, Note_off_c, 0, 60, 98
1, 157169, Note_on_c, 0, 63, 107
1, 157240, Note_off_c, 0, 63, 107
1, 157257, Note_on_c, 0, 64, 116
1, 157370, Note_off_c, 0, 64, 116
1, 157392, Note_on_c, 0, 60, 104
1, 157443, Note_off_c, 0, 60, 104
1, 157455, Note_on_c, 0, 64, 115
1, 157578, Note_off_c, 0, 64, 115
1, 157592, Note_on_c, 0, 60, 112
1, 157653, Note_off_c, 0, 60, 112
1, 157741, Note_on_c, 0, 55, 95
1, 157844, Note_off_c, 0, 55, 95
1, 157844, Note_on_c, 0, 60, 111
1, 157939, Note_off_c, 0, 60, 111
1, 158226, Note_on_c, 0, 64, 109
1, 158314, Note_off_c, 0, 64, 109
1, 158429, Note_on_c, 0, 64, 114
1, 158532, Note_off_c, 0, 64, 114
1, 158630, Note_on_c, 0, 67, 105
1, 158819, Note_off_c, 0, 67, 105
1, 159072, Note_on_c, 0, 65, 113
1, 159190, Note_off_c, 0, 65, 113
1, 159335, Note_on_c, 0, 67, 108
1, 159433, Note_off_c, 0, 67, 108
1, 159553, Note_on_c, 0, 60, 100
1, 159651, Note_off_c, 0, 60, 100
1, 159705, Note_on_c, 0, 63, 115
1, 159813, Note_off_c, 0, 63, 115
1, 159822, Note_on_c, 0, 64, 107
1, 159917, Note_off_c, 0, 64, 107
1, 159921, Note_on_c, 0, 67, 110
1, 159987, Note_off_c, 0, 67, 110
1, 160001, Note_on_c, 0, 64, 100
1, 160077, Note_off_c, 0, 64, 100
1, 160180, Note_on_c, 0, 67, 98
1, 160418, Note_off_c, 0, 67, 98
1, 160600, Note_on_c, 0, 65, 107
1, 160846, Note_off_c, 0, 65, 107
1, 160869, Note_on_c, 0, 62, 90
1, 160924, Note_off_c, 0, 62, 90
1, 160928, Note_on_c, 0, 67, 109
1, 160999, Note_off_c, 0, 67, 109
1, 161119, Note_on_c, 0, 60, 108
1, 161195, Note_off_c, 0, 60, 108
1, 161308, Note_on_c, 0, 63, 121
1, 161371, Note_off_c, 0, 63, 121
1, 161398, Note_on_c, 0, 64, 113
1, 161496, Note_off_c, 0, 64, 113
1, 161496, Note_on_c, 0, 67, 114
1, 161557, Note_off_c, 0, 67, 114
1, 161568, Note_on_c, 0, 64, 98
1, 161728, Note_off_c, 0, 64, 98
1, 161776, Note_on_c, 0, 67, 101
1, 161987, Note_off_c, 0, 67, 101
1, 162208, Note_on_c, 0, 65, 114
1, 162301, Note_off_c, 0, 65, 114
1, 162465, Note_on_c, 0, 67, 108
1, 162551, Note_off_c, 0, 67, 108
1, 162664, Note_on_c, 0, 60, 107
1, 162742, Note_off_c, 0, 60, 107
1, 162835, Note_on_c, 0, 63, 118
1, 162901, Note_off_c, 0, 63, 118
1, 162937, Note_on_c, 0, 64, 116
1, 163052, Note_off_c, 0, 64, 116
1, 163066, Note_on_c, 0, 60, 112
1, 163127, Note_off_c, 0, 60, 112
1, 163139, Note_on_c, 0, 55, 99
1, 163227, Note_off_c, 0, 55, 99
1, 163244, Note_on_c, 0, 53, 97
1, 163330, Note_off_c, 0, 53, 97
1, 163337, Note_on_c, 0, 58, 106
1, 163381, Note_off_c, 0, 58, 106
1, 163398, Note_on_c, 0, 59, 103
1, 163491, Note_off_c, 0, 59, 103
1, 163495, Note_on_c, 0, 60, 111
1, 163598, Note_off_c, 0, 60, 111
1, 163819, Note_on_c, 0, 55, 98
1, 163912, Note_off_c, 0, 55, 98
1, 164007, Note_on_c, 0, 57, 100
1, 164100, Note_off_c, 0, 57, 100
1, 164213, Note_on_c, 0, 60, 111
1, 164311, Note_off_c, 0, 60, 111
1, 164470, Note_on_c, 0, 63, 93
1, 164538, Note_off_c, 0, 63, 93
1, 164545, Note_on_c, 0, 65, 111
1, 164562, Note_off_c, 0, 65, 111
1, 164574, Note_on_c, 0, 66, 105
1, 164650, Note_off_c, 0, 66, 105
1, 164723, Note_on_c, 0, 67, 106
1, 164983, Note_off_c, 0, 67, 106
1, 164985, Note_on_c, 0, 64, 110
1, 165184, Note_off_c, 0, 64, 110
1, 165193, Note_on_c, 0, 60, 93
1, 165318, Note_off_c, 0, 60, 93
1, 165325, Note_on_c, 0, 55, 92
1, 165480, Note_off_c, 0, 55, 92
1, 165504, Note_on_c, 0, 58, 92
1, 165644, Note_off_c, 0, 58, 92
1, 165671, Note_on_c, 0, 55, 81
1, 165774, Note_off_c, 0, 55, 81
1, 165798, Note_on_c, 0, 58, 70
1, 167321, Note_off_c, 0, 58, 70
1, 167321, End_track
0, 0, End_of_file
