0, 0, Header, 1, 1, 27720
1, 0, Start_track
1, 0, Title_t, "Melody"
1, 0, Tempo, 857142
1, 0, Key_signature, -5, "major"
1, 0, Time_signature, 4, 2, 24, 8
1, 219196, Note_on_c, 0, 70, 88
1, 221343, Note_off_c, 0, 70, 88
1, 221627, Note_on_c, 0, 73, 111
1, 323267, Note_off_c, 0, 73, 111
1, 325775, Note_on_c, 0, 69, 111
1, 328678, Note_off_c, 0, 69, 111
1, 328942, Note_on_c, 0, 70, 109
1, 332110, Note_off_c, 0, 70, 109
1, 333694, Note_on_c, 0, 66, 98
1, 360358, Note_off_c, 0, 66, 98
1, 361777, Note_on_c, 0, 63, 107
1, 365373, Note_off_c, 0, 63, 107
1, 365373, Note_on_c, 0, 64, 105
1, 376989, Note_off_c, 0, 64, 105
1, 379118, Note_on_c, 0, 62, 106
1, 383083, Note_off_c, 0, 62, 106
1, 383388, Note_on_c, 0, 61, 102
1, 386063, Note_off_c, 0, 61, 102
1, 407875, Note_on_c, 0, 73, 112
1, 414739, Note_off_c, 0, 73, 112
1, 432955, Note_on_c, 0, 70, 114
1, 441667, Note_off_c, 0, 70, 114
1, 444846, Note_on_c, 0, 65, 119
1, 448694, Note_off_c, 0, 65, 119
1, 449057, Note_on_c, 0, 66, 100
1, 467801, Note_off_c, 0, 66, 100
1, 470188, Note_on_c, 0, 63, 122
1, 472065, Note_off_c, 0, 63, 122
1, 472551, Note_on_c, 0, 64, 108
1, 486807, Note_off_c, 0, 64, 108
1, 489710, Note_on_c, 0, 58, 98
1, 497365, Note_off_c, 0, 58, 98
1, 500128, Note_on_c, 0, 64, 114
1, 502380, Note_off_c, 0, 64, 114
1, 502644, Note_on_c, 0, 65, 101
1, 523500, Note_off_c, 0, 65, 101
1, 524157, Note_on_c, 0, 56, 102
1, 538149, Note_off_c, 0, 56, 102
1, 552539, Note_on_c, 0, 59, 87
1, 596627, Note_off_c, 0, 59, 87
1, 730211, Note_on_c, 0, 58, 99
1, 736810, Note_off_c, 0, 58, 99
1, 738394, Note_on_c, 0, 61, 99
1, 745258, Note_off_c, 0, 61, 99
1, 746842, Note_on_c, 0, 64, 112
1, 753442, Note_off_c, 0, 64, 112
1, 755290, Note_on_c, 0, 61, 89
1, 763210, Note_off_c, 0, 61, 89
1, 766906, Note_on_c, 0, 63, 117
1, 773506, Note_off_c, 0, 63, 117
1, 783010, Note_on_c, 0, 58, 88
1, 790665, Note_off_c, 0, 58, 88
1, 792777, Note_on_c, 0, 61, 98
1, 799113, Note_off_c, 0, 61, 98
1, 802726, Note_on_c, 0, 64, 119
1, 806422, Note_off_c, 0, 64, 119
1, 808022, Note_on_c, 0, 65, 100
1, 814093, Note_off_c, 0, 65, 100
1, 838711, Note_on_c, 0, 58, 97
1, 843726, Note_off_c, 0, 58, 97
1, 844782, Note_on_c, 0, 61, 104
1, 850326, Note_off_c, 0, 61, 104
1, 852042, Note_on_c, 0, 63, 118
1, 860396, Note_off_c, 0, 63, 118
1, 860753, Note_on_c, 0, 64, 111
1, 867793, Note_off_c, 0, 64, 111
1, 868409, Note_on_c, 0, 65, 116
1, 877889, Note_off_c, 0, 65, 116
1, 878638, Note_on_c, 0, 66, 102
1, 887019, Note_on_c, 0, 67, 104
1, 887019, Note_off_c, 0, 66, 102
1, 895730, Note_off_c, 0, 67, 104
1, 898105, Note_on_c, 0, 68, 110
1, 907608, Note_off_c, 0, 68, 110
1, 907608, Note_on_c, 0, 73, 102
1, 916056, Note_off_c, 0, 73, 102
1, 916056, Note_on_c, 0, 67, 103
1, 921600, Note_off_c, 0, 67, 103
1, 922392, Note_on_c, 0, 66, 107
1, 927408, Note_off_c, 0, 66, 107
1, 927408, Note_on_c, 0, 64, 112
1, 932160, Note_off_c, 0, 64, 112
1, 933028, Note_on_c, 0, 61, 97
1, 936988, Note_off_c, 0, 61, 97
1, 940161, Note_on_c, 0, 64, 112
1, 942226, Note_off_c, 0, 64, 112
1, 943164, Note_on_c, 0, 65, 105
1, 948608, Note_off_c, 0, 65, 105
1, 950109, Note_on_c, 0, 56, 89
1, 985027, Note_off_c, 0, 56, 89
1, 1061997, Note_on_c, 0, 56, 98
1, 1068943, Note_off_c, 0, 56, 98
1, 1071008, Note_on_c, 0, 56, 90
1, 1076827, Note_off_c, 0, 56, 90
1, 1077765, Note_on_c, 0, 57, 105
1, 1083209, Note_off_c, 0, 57, 105
1, 1084898, Note_on_c, 0, 57, 101
1, 1091844, Note_off_c, 0, 57, 101
1, 1093345, Note_on_c, 0, 58, 103
1, 1098601, Note_off_c, 0, 58, 103
1, 1100290, Note_on_c, 0, 58, 101
1, 1106672, Note_off_c, 0, 58, 101
1, 1113054, Note_on_c, 0, 62, 109
1, 1118686, Note_off_c, 0, 62, 109
1, 1119624, Note_on_c, 0, 62, 112
1, 1125443, Note_off_c, 0, 62, 112
1, 1126006, Note_on_c, 0, 65, 115
1, 1131638, Note_off_c, 0, 65, 115
1, 1132952, Note_on_c, 0, 65, 112
1, 1138208, Note_off_c, 0, 65, 112
1, 1140836, Note_on_c, 0, 68, 101
1, 1145717, Note_off_c, 0, 68, 101
1, 1150973, Note_on_c, 0, 70, 117
1, 1154352, Note_off_c, 0, 70, 117
1, 1154727, Note_on_c, 0, 71, 109
1, 1159795, Note_off_c, 0, 71, 109
1, 1163549, Note_on_c, 0, 70, 108
1, 1169368, Note_off_c, 0, 70, 108
1, 1170494, Note_on_c, 0, 65, 105
1, 1175562, Note_off_c, 0, 65, 105
1, 1176312, Note_on_c, 0, 68, 105
1, 1181756, Note_off_c, 0, 68, 105
1, 1182506, Note_on_c, 0, 66, 105
1, 1189076, Note_off_c, 0, 66, 105
1, 1192267, Note_on_c, 0, 66, 105
1, 1197335, Note_off_c, 0, 66, 105
1, 1197710, Note_on_c, 0, 65, 102
1, 1201934, Note_off_c, 0, 65, 102
1, 1202778, Note_on_c, 0, 66, 95
1, 1208785, Note_off_c, 0, 66, 95
1, 1210474, Note_on_c, 0, 66, 103
1, 1216106, Note_off_c, 0, 66, 103
1, 1216481, Note_on_c, 0, 62, 87
1, 1221549, Note_off_c, 0, 62, 87
1, 1224552, Note_on_c, 0, 65, 114
1, 1230934, Note_off_c, 0, 65, 114
1, 1231309, Note_on_c, 0, 63, 107
1, 1236002, Note_off_c, 0, 63, 107
1, 1236788, Note_on_c, 0, 58, 95
1, 1242926, Note_off_c, 0, 58, 95
1, 1243718, Note_on_c, 0, 54, 98
1, 1248074, Note_off_c, 0, 54, 98
1, 1251771, Note_on_c, 0, 61, 101
1, 1256839, Note_off_c, 0, 61, 101
1, 1257965, Note_on_c, 0, 63, 102
1, 1262095, Note_off_c, 0, 63, 102
1, 1263596, Note_on_c, 0, 60, 101
1, 1269978, Note_off_c, 0, 60, 101
1, 1270541, Note_on_c, 0, 56, 98
1, 1276548, Note_off_c, 0, 56, 98
1, 1277835, Note_on_c, 0, 54, 93
1, 1290771, Note_off_c, 0, 54, 93
1, 1344319, Note_on_c, 0, 52, 98
1, 1353893, Note_off_c, 0, 52, 98
1, 1355958, Note_on_c, 0, 53, 91
1, 1360839, Note_off_c, 0, 53, 91
1, 1362340, Note_on_c, 0, 56, 106
1, 1368910, Note_off_c, 0, 56, 106
1, 1371913, Note_on_c, 0, 58, 97
1, 1379422, Note_off_c, 0, 58, 97
1, 1382988, Note_on_c, 0, 61, 96
1, 1399696, Note_off_c, 0, 61, 96
1, 1400822, Note_on_c, 0, 58, 94
1, 1410959, Note_off_c, 0, 58, 94
1, 1413775, Note_on_c, 0, 61, 103
1, 1420721, Note_off_c, 0, 61, 103
1, 1420721, Note_on_c, 0, 63, 97
1, 1424100, Note_off_c, 0, 63, 97
1, 1424475, Note_on_c, 0, 61, 94
1, 1428229, Note_off_c, 0, 61, 94
1, 1429918, Note_on_c, 0, 58, 92
1, 1439492, Note_off_c, 0, 58, 92
1, 1441181, Note_on_c, 0, 61, 102
1, 1445123, Note_off_c, 0, 61, 102
1, 1446437, Note_on_c, 0, 63, 97
1, 1447938, Note_off_c, 0, 63, 97
1, 1447938, Note_on_c, 0, 61, 93
1, 1451504, Note_off_c, 0, 61, 93
1, 1452630, Note_on_c, 0, 58, 88
1, 1457886, Note_off_c, 0, 58, 88
1, 1459012, Note_on_c, 0, 61, 100
1, 1463329, Note_off_c, 0, 61, 100
1, 1463516, Note_on_c, 0, 63, 99
1, 1466707, Note_off_c, 0, 63, 99
1, 1467270, Note_on_c, 0, 61, 95
1, 1470086, Note_off_c, 0, 61, 95
1, 1472338, Note_on_c, 0, 58, 98
1, 1477219, Note_off_c, 0, 58, 98
1, 1479096, Note_on_c, 0, 64, 104
1, 1484352, Note_off_c, 0, 64, 104
1, 1486417, Note_on_c, 0, 65, 107
1, 1494114, Note_off_c, 0, 65, 107
1, 1494864, Note_on_c, 0, 66, 99
1, 1502748, Note_off_c, 0, 66, 99
1, 1504625, Note_on_c, 0, 67, 91
1, 1512697, Note_off_c, 0, 67, 91
1, 1514386, Note_on_c, 0, 68, 95
1, 1519830, Note_off_c, 0, 68, 95
1, 1519830, Note_on_c, 0, 64, 103
1, 1523772, Note_off_c, 0, 64, 103
1, 1524335, Note_on_c, 0, 65, 98
1, 1528089, Note_off_c, 0, 65, 98
1, 1529778, Note_on_c, 0, 61, 97
1, 1532969, Note_off_c, 0, 61, 97
1, 1532969, Note_on_c, 0, 63, 91
1, 1534470, Note_off_c, 0, 63, 91
1, 1535033, Note_on_c, 0, 61, 92
1, 1538975, Note_off_c, 0, 61, 92
1, 1540101, Note_on_c, 0, 58, 88
1, 1545169, Note_off_c, 0, 58, 88
1, 1545356, Note_on_c, 0, 61, 94
1, 1551926, Note_off_c, 0, 61, 94
1, 1555868, Note_on_c, 0, 61, 88
1, 1573139, Note_off_c, 0, 61, 88
1, 1621949, Note_on_c, 0, 72, 101
1, 1624765, Note_off_c, 0, 72, 101
1, 1625891, Note_on_c, 0, 73, 96
1, 1705302, Note_off_c, 0, 73, 96
1, 1705677, Note_on_c, 0, 72, 102
1, 1708493, Note_off_c, 0, 72, 102
1, 1709243, Note_on_c, 0, 70, 79
1, 1711120, Note_off_c, 0, 70, 79
1, 1711870, Note_on_c, 0, 68, 95
1, 1713747, Note_off_c, 0, 68, 95
1, 1714591, Note_on_c, 0, 64, 87
1, 1742311, Note_off_c, 0, 64, 87
1, 1742844, Note_on_c, 0, 61, 86
1, 1771942, Note_off_c, 0, 61, 86
1, 1772692, Note_on_c, 0, 58, 95
1, 1791465, Note_off_c, 0, 58, 95
1, 1792122, Note_on_c, 0, 62, 107
1, 1797941, Note_off_c, 0, 62, 107
1, 1846657, Note_on_c, 0, 49, 82
1, 1853415, Note_off_c, 0, 49, 82
1, 1853790, Note_on_c, 0, 56, 97
1, 1873501, Note_off_c, 0, 56, 97
1, 1874064, Note_on_c, 0, 58, 107
1, 1881948, Note_off_c, 0, 58, 107
1, 1884200, Note_on_c, 0, 58, 90
1, 1911984, Note_off_c, 0, 58, 90
1, 1912734, Note_on_c, 0, 61, 106
1, 1928879, Note_off_c, 0, 61, 106
1, 1929066, Note_on_c, 0, 58, 97
1, 1939766, Note_off_c, 0, 58, 97
1, 1940704, Note_on_c, 0, 64, 106
1, 1947462, Note_off_c, 0, 64, 106
1, 1949151, Note_on_c, 0, 65, 98
1, 1956284, Note_off_c, 0, 65, 98
1, 1959287, Note_on_c, 0, 66, 105
1, 1967171, Note_off_c, 0, 66, 105
1, 1974153, Note_on_c, 0, 65, 103
1, 1983164, Note_off_c, 0, 65, 103
1, 1987820, Note_on_c, 0, 63, 111
1, 1995329, Note_off_c, 0, 63, 111
1, 1998332, Note_on_c, 0, 61, 95
1, 2005278, Note_off_c, 0, 61, 95
1, 2017105, Note_on_c, 0, 59, 92
1, 2038694, Note_off_c, 0, 59, 92
1, 2041322, Note_on_c, 0, 57, 91
1, 2052304, Note_off_c, 0, 57, 91
1, 2052585, Note_on_c, 0, 58, 100
1, 2059155, Note_off_c, 0, 58, 100
1, 2080932, Note_on_c, 0, 68, 106
1, 2087878, Note_off_c, 0, 68, 106
1, 2109279, Note_on_c, 0, 68, 96
1, 2117914, Note_off_c, 0, 68, 96
1, 2135936, Note_on_c, 0, 68, 97
1, 2143633, Note_off_c, 0, 68, 97
1, 2164095, Note_on_c, 0, 66, 96
1, 2192818, Note_off_c, 0, 66, 96
1, 2193756, Note_on_c, 0, 64, 93
1, 2211215, Note_off_c, 0, 64, 93
1, 2212404, Note_on_c, 0, 66, 100
1, 2223492, Note_off_c, 0, 66, 100
1, 2226796, Note_on_c, 0, 67, 101
1, 2230175, Note_off_c, 0, 67, 101
1, 2230175, Note_on_c, 0, 68, 82
1, 2235994, Note_off_c, 0, 68, 82
1, 2238246, Note_on_c, 0, 66, 100
1, 2247069, Note_off_c, 0, 66, 100
1, 2259271, Note_on_c, 0, 64, 110
1, 2264715, Note_off_c, 0, 64, 110
1, 2265465, Note_on_c, 0, 61, 96
1, 2271660, Note_off_c, 0, 61, 96
1, 2276165, Note_on_c, 0, 58, 94
1, 2282172, Note_off_c, 0, 58, 94
1, 2283298, Note_on_c, 0, 56, 85
1, 2308829, Note_off_c, 0, 56, 85
1, 2566751, Note_on_c, 0, 73, 106
1, 2573086, Note_off_c, 0, 73, 106
1, 2578894, Note_on_c, 0, 76, 124
1, 2585494, Note_off_c, 0, 76, 124
1, 2589301, Note_on_c, 0, 73, 106
1, 2594932, Note_off_c, 0, 73, 106
1, 2597560, Note_on_c, 0, 76, 120
1, 2602628, Note_off_c, 0, 76, 120
1, 2603378, Note_on_c, 0, 73, 97
1, 2607695, Note_off_c, 0, 73, 97
1, 2609384, Note_on_c, 0, 76, 127
1, 2613326, Note_off_c, 0, 76, 127
1, 2616142, Note_on_c, 0, 73, 106
1, 2619145, Note_off_c, 0, 73, 106
1, 2661948, Note_on_c, 0, 71, 119
1, 2666829, Note_off_c, 0, 71, 119
1, 2668330, Note_on_c, 0, 68, 91
1, 2672835, Note_off_c, 0, 68, 91
1, 2675650, Note_on_c, 0, 71, 114
1, 2680531, Note_off_c, 0, 71, 114
1, 2682783, Note_on_c, 0, 68, 89
1, 2686537, Note_off_c, 0, 68, 89
1, 2687851, Note_on_c, 0, 71, 109
1, 2693107, Note_off_c, 0, 71, 109
1, 2694045, Note_on_c, 0, 68, 82
1, 2697236, Note_off_c, 0, 68, 82
1, 2701178, Note_on_c, 0, 67, 109
1, 2705308, Note_off_c, 0, 67, 109
1, 2705871, Note_on_c, 0, 66, 90
1, 2708874, Note_off_c, 0, 66, 90
1, 2712440, Note_on_c, 0, 64, 103
1, 2715068, Note_off_c, 0, 64, 103
1, 2716194, Note_on_c, 0, 61, 85
1, 2719760, Note_off_c, 0, 61, 85
1, 2723139, Note_on_c, 0, 66, 107
1, 2728395, Note_off_c, 0, 66, 107
1, 2729621, Note_on_c, 0, 63, 117
1, 2732525, Note_off_c, 0, 63, 117
1, 2733185, Note_on_c, 0, 64, 103
1, 2736220, Note_off_c, 0, 64, 103
1, 2737672, Note_on_c, 0, 61, 96
1, 2741499, Note_off_c, 0, 61, 96
1, 2743347, Note_on_c, 0, 56, 95
1, 2747307, Note_off_c, 0, 56, 95
1, 2748099, Note_on_c, 0, 59, 86
1, 2752851, Note_off_c, 0, 59, 86
1, 2753511, Note_on_c, 0, 61, 100
1, 2758394, Note_off_c, 0, 61, 100
1, 2760770, Note_on_c, 0, 61, 84
1, 2794693, Note_off_c, 0, 61, 84
1, 2795130, Note_on_c, 0, 63, 108
1, 2797288, Note_off_c, 0, 63, 108
1, 2797945, Note_on_c, 0, 65, 100
1, 2804797, Note_off_c, 0, 65, 100
1, 2933687, Note_on_c, 0, 61, 94
1, 2942135, Note_off_c, 0, 61, 94
1, 2946535, Note_on_c, 0, 64, 116
1, 2948036, Note_off_c, 0, 64, 116
1, 2948206, Note_on_c, 0, 65, 113
1, 2954410, Note_off_c, 0, 65, 113
1, 2973946, Note_on_c, 0, 66, 114
1, 2983846, Note_off_c, 0, 66, 114
1, 2992821, Note_on_c, 0, 58, 97
1, 2999553, Note_off_c, 0, 58, 97
1, 3003134, Note_on_c, 0, 63, 116
1, 3005856, Note_off_c, 0, 63, 116
1, 3006152, Note_on_c, 0, 65, 113
1, 3014864, Note_off_c, 0, 65, 113
1, 3023972, Note_on_c, 0, 53, 83
1, 3041132, Note_off_c, 0, 53, 83
1, 3089180, Note_on_c, 0, 64, 115
1, 3093668, Note_off_c, 0, 64, 115
1, 3096440, Note_on_c, 0, 66, 110
1, 3102248, Note_off_c, 0, 66, 110
1, 3103303, Note_on_c, 0, 67, 88
1, 3108979, Note_off_c, 0, 67, 88
1, 3110826, Note_on_c, 0, 64, 112
1, 3115842, Note_off_c, 0, 64, 112
1, 3128514, Note_on_c, 0, 56, 90
1, 3136434, Note_off_c, 0, 56, 90
1, 3137358, Note_on_c, 0, 58, 90
1, 3166002, Note_off_c, 0, 58, 90
1, 3186066, Note_on_c, 0, 56, 93
1, 3190422, Note_off_c, 0, 56, 93
1, 3192270, Note_on_c, 0, 58, 94
1, 3197022, Note_off_c, 0, 58, 94
1, 3198473, Note_on_c, 0, 61, 98
1, 3203489, Note_off_c, 0, 61, 98
1, 3205205, Note_on_c, 0, 64, 115
1, 3208373, Note_off_c, 0, 64, 115
1, 3209033, Note_on_c, 0, 65, 112
1, 3214313, Note_off_c, 0, 65, 112
1, 3217480, Note_on_c, 0, 66, 105
1, 3220912, Note_off_c, 0, 66, 105
1, 3226720, Note_on_c, 0, 56, 95
1, 3230679, Note_off_c, 0, 56, 95
1, 3231867, Note_on_c, 0, 64, 114
1, 3235299, Note_off_c, 0, 64, 114
1, 3235563, Note_on_c, 0, 65, 109
1, 3238995, Note_off_c, 0, 65, 109
1, 3242955, Note_on_c, 0, 56, 96
1, 3246519, Note_off_c, 0, 56, 96
1, 3249951, Note_on_c, 0, 58, 97
1, 3255363, Note_off_c, 0, 58, 97
1, 3257871, Note_on_c, 0, 58, 95
1, 3259191, Note_off_c, 0, 58, 95
1, 3259587, Note_on_c, 0, 59, 100
1, 3263547, Note_off_c, 0, 59, 100
1, 3264339, Note_on_c, 0, 58, 89
1, 3266451, Note_off_c, 0, 58, 89
1, 3266715, Note_on_c, 0, 56, 89
1, 3270411, Note_off_c, 0, 56, 89
1, 3274107, Note_on_c, 0, 58, 99
1, 3279783, Note_off_c, 0, 58, 99
1, 3281103, Note_on_c, 0, 53, 82
1, 3283743, Note_off_c, 0, 53, 82
1, 3285722, Note_on_c, 0, 56, 90
1, 3302090, Note_off_c, 0, 56, 90
1, 3318722, Note_on_c, 0, 56, 99
1, 3321758, Note_off_c, 0, 56, 99
1, 3322946, Note_on_c, 0, 53, 93
1, 3325454, Note_off_c, 0, 53, 93
1, 3326357, Note_on_c, 0, 54, 100
1, 3328601, Note_off_c, 0, 54, 100
1, 3328656, Note_on_c, 0, 57, 91
1, 3330372, Note_off_c, 0, 57, 91
1, 3331788, Note_on_c, 0, 59, 92
1, 3334164, Note_off_c, 0, 59, 92
1, 3334824, Note_on_c, 0, 64, 98
1, 3337860, Note_off_c, 0, 64, 98
1, 3337860, Note_on_c, 0, 69, 111
1, 3341687, Note_off_c, 0, 69, 111
1, 3341687, Note_on_c, 0, 66, 103
1, 3344195, Note_off_c, 0, 66, 103
1, 3344723, Note_on_c, 0, 62, 101
1, 3346571, Note_off_c, 0, 62, 101
1, 3347495, Note_on_c, 0, 59, 98
1, 3350003, Note_off_c, 0, 59, 98
1, 3350003, Note_on_c, 0, 64, 109
1, 3352379, Note_off_c, 0, 64, 109
1, 3352775, Note_on_c, 0, 61, 99
1, 3355546, Note_off_c, 0, 61, 99
1, 3355546, Note_on_c, 0, 63, 103
1, 3358054, Note_off_c, 0, 63, 103
1, 3358978, Note_on_c, 0, 67, 102
1, 3361881, Note_off_c, 0, 67, 102
1, 3362013, Note_on_c, 0, 67, 102
1, 3365049, Note_off_c, 0, 67, 102
1, 3365841, Note_on_c, 0, 65, 103
1, 3367953, Note_off_c, 0, 65, 103
1, 3368217, Note_on_c, 0, 62, 104
1, 3370329, Note_off_c, 0, 62, 104
1, 3370704, Note_on_c, 0, 58, 94
1, 3372581, Note_off_c, 0, 58, 94
1, 3373238, Note_on_c, 0, 55, 98
1, 3374948, Note_off_c, 0, 55, 98
1, 3374948, Note_on_c, 0, 63, 104
1, 3377852, Note_off_c, 0, 63, 104
1, 3377931, Note_on_c, 0, 60, 102
1, 3380183, Note_off_c, 0, 60, 102
1, 3380558, Note_on_c, 0, 61, 107
1, 3382904, Note_off_c, 0, 61, 107
1, 3383129, Note_on_c, 0, 58, 99
1, 3385901, Note_off_c, 0, 58, 99
1, 3386376, Note_on_c, 0, 52, 104
1, 3389755, Note_off_c, 0, 52, 104
1, 3390036, Note_on_c, 0, 56, 100
1, 3392382, Note_off_c, 0, 56, 100
1, 3392757, Note_on_c, 0, 55, 101
1, 3395854, Note_off_c, 0, 55, 101
1, 3396604, Note_on_c, 0, 54, 101
1, 3400828, Note_off_c, 0, 54, 101
1, 3448465, Note_on_c, 0, 54, 93
1, 3455329, Note_off_c, 0, 54, 93
1, 3456780, Note_on_c, 0, 57, 93
1, 3459024, Note_off_c, 0, 57, 93
1, 3460080, Note_on_c, 0, 58, 99
1, 3465360, Note_off_c, 0, 58, 99
1, 3465888, Note_on_c, 0, 61, 105
1, 3474600, Note_off_c, 0, 61, 105
1, 3474864, Note_on_c, 0, 63, 114
1, 3483576, Note_off_c, 0, 63, 114
1, 3484236, Note_on_c, 0, 61, 92
1, 3492552, Note_off_c, 0, 61, 92
1, 3492684, Note_on_c, 0, 64, 92
1, 3561060, Note_off_c, 0, 64, 92
1, 3562115, Note_on_c, 0, 63, 100
1, 3566735, Note_off_c, 0, 63, 100
1, 3567527, Note_on_c, 0, 61, 92
1, 3572147, Note_off_c, 0, 61, 92
1, 3573203, Note_on_c, 0, 64, 106
1, 3578615, Note_off_c, 0, 64, 106
1, 3579274, Note_on_c, 0, 63, 98
1, 3583498, Note_off_c, 0, 63, 98
1, 3584553, Note_on_c, 0, 61, 93
1, 3589437, Note_off_c, 0, 61, 93
1, 3589833, Note_on_c, 0, 64, 117
1, 3596037, Note_off_c, 0, 64, 117
1, 3596828, Note_on_c, 0, 63, 109
1, 3601052, Note_off_c, 0, 63, 109
1, 3601415, Note_on_c, 0, 61, 86
1, 3610050, Note_off_c, 0, 61, 86
1, 3611082, Note_on_c, 0, 63, 111
1, 3613334, Note_off_c, 0, 63, 111
1, 3613589, Note_on_c, 0, 65, 103
1, 3617945, Note_off_c, 0, 65, 103
1, 3622697, Note_on_c, 0, 63, 105
1, 3627845, Note_off_c, 0, 63, 105
1, 3633257, Note_on_c, 0, 61, 104
1, 3638273, Note_off_c, 0, 61, 104
1, 3641440, Note_on_c, 0, 58, 92
1, 3645928, Note_off_c, 0, 58, 92
1, 3650416, Note_on_c, 0, 56, 92
1, 3655696, Note_off_c, 0, 56, 92
1, 3661899, Note_on_c, 0, 49, 96
1, 3667179, Note_off_c, 0, 49, 96
1, 3669557, Note_on_c, 0, 52, 99
1, 3671528, Note_off_c, 0, 52, 99
1, 3671665, Note_on_c, 0, 53, 96
1, 3675625, Note_off_c, 0, 53, 96
1, 3676944, Note_on_c, 0, 56, 81
1, 3701100, Note_off_c, 0, 56, 81
1, 3815939, Note_on_c, 0, 71, 104
1, 3823166, Note_off_c, 0, 71, 104
1, 3823776, Note_on_c, 0, 70, 86
1, 3828375, Note_off_c, 0, 70, 86
1, 3898701, Note_on_c, 0, 71, 111
1, 3904509, Note_off_c, 0, 71, 111
1, 3909393, Note_on_c, 0, 71, 112
1, 3913748, Note_off_c, 0, 71, 112
1, 3914804, Note_on_c, 0, 72, 102
1, 3919292, Note_off_c, 0, 72, 102
1, 3920347, Note_on_c, 0, 71, 108
1, 3924702, Note_off_c, 0, 71, 108
1, 3925494, Note_on_c, 0, 71, 9
1, 3931830, Note_off_c, 0, 71, 9
1, 4001743, Note_on_c, 0, 70, 104
1, 4003714, Note_off_c, 0, 70, 104
1, 4004277, Note_on_c, 0, 71, 96
1, 4008313, Note_off_c, 0, 71, 96
1, 4008785, Note_on_c, 0, 68, 83
1, 4012745, Note_off_c, 0, 68, 83
1, 4018817, Note_on_c, 0, 70, 97
1, 4020929, Note_off_c, 0, 70, 97
1, 4021457, Note_on_c, 0, 71, 99
1, 4026473, Note_off_c, 0, 71, 99
1, 4027132, Note_on_c, 0, 68, 82
1, 4031487, Note_off_c, 0, 68, 82
1, 4082967, Note_on_c, 0, 68, 84
1, 4085871, Note_off_c, 0, 68, 84
1, 4087454, Note_on_c, 0, 68, 90
1, 4089434, Note_off_c, 0, 68, 90
1, 4093394, Note_on_c, 0, 70, 95
1, 4095110, Note_off_c, 0, 70, 95
1, 4096034, Note_on_c, 0, 71, 98
1, 4100522, Note_off_c, 0, 71, 98
1, 4101313, Note_on_c, 0, 68, 78
1, 4103161, Note_off_c, 0, 68, 78
1, 4105405, Note_on_c, 0, 70, 91
1, 4107121, Note_off_c, 0, 70, 91
1, 4107121, Note_on_c, 0, 71, 99
1, 4110553, Note_off_c, 0, 71, 99
1, 4111872, Note_on_c, 0, 68, 82
1, 4113984, Note_off_c, 0, 68, 82
1, 4119660, Note_on_c, 0, 70, 87
1, 4122036, Note_off_c, 0, 70, 87
1, 4122168, Note_on_c, 0, 71, 93
1, 4126788, Note_off_c, 0, 71, 93
1, 4128900, Note_on_c, 0, 68, 84
1, 4131143, Note_off_c, 0, 68, 84
1, 4137279, Note_on_c, 0, 70, 102
1, 4138874, Note_off_c, 0, 70, 102
1, 4138929, Note_on_c, 0, 71, 95
1, 4141965, Note_off_c, 0, 71, 95
1, 4145661, Note_on_c, 0, 71, 106
1, 4148961, Note_off_c, 0, 71, 106
1, 4158209, Note_on_c, 0, 70, 112
1, 4159710, Note_off_c, 0, 70, 112
1, 4159783, Note_on_c, 0, 71, 109
1, 4163083, Note_off_c, 0, 71, 109
1, 4170785, Note_on_c, 0, 70, 108
1, 4172286, Note_off_c, 0, 70, 108
1, 4172453, Note_on_c, 0, 71, 107
1, 4174960, Note_off_c, 0, 71, 107
1, 4176148, Note_on_c, 0, 68, 87
1, 4177996, Note_off_c, 0, 68, 87
1, 4183012, Note_on_c, 0, 70, 103
1, 4184068, Note_off_c, 0, 70, 103
1, 4184991, Note_on_c, 0, 71, 94
1, 4188026, Note_off_c, 0, 71, 94
1, 4188686, Note_on_c, 0, 68, 75
1, 4191457, Note_off_c, 0, 68, 75
1, 4195813, Note_on_c, 0, 70, 104
1, 4197529, Note_off_c, 0, 70, 104
1, 4198057, Note_on_c, 0, 71, 103
1, 4200565, Note_off_c, 0, 71, 103
1, 4202413, Note_on_c, 0, 68, 77
1, 4206109, Note_off_c, 0, 68, 77
1, 4210767, Note_on_c, 0, 70, 101
1, 4212081, Note_off_c, 0, 70, 101
1, 4212840, Note_on_c, 0, 71, 91
1, 4216932, Note_off_c, 0, 71, 91
1, 4218251, Note_on_c, 0, 68, 82
1, 4221287, Note_off_c, 0, 68, 82
1, 4226699, Note_on_c, 0, 71, 93
1, 4229471, Note_off_c, 0, 71, 93
1, 4236071, Note_on_c, 0, 68, 86
1, 4240559, Note_off_c, 0, 68, 86
1, 4245589, Note_on_c, 0, 70, 104
1, 4246903, Note_off_c, 0, 70, 104
1, 4247422, Note_on_c, 0, 71, 108
1, 4251514, Note_off_c, 0, 71, 108
1, 4256926, Note_on_c, 0, 68, 97
1, 4260622, Note_off_c, 0, 68, 97
1, 4265902, Note_on_c, 0, 70, 90
1, 4268278, Note_off_c, 0, 70, 90
1, 4268542, Note_on_c, 0, 71, 90
1, 4329262, Note_off_c, 0, 71, 90
1, 4330582, Note_on_c, 0, 70, 104
1, 4333750, Note_off_c, 0, 70, 104
1, 4334805, Note_on_c, 0, 68, 103
1, 4337576, Note_off_c, 0, 68, 103
1, 4338632, Note_on_c, 0, 66, 102
1, 4340875, Note_off_c, 0, 66, 102
1, 4344521, Note_on_c, 0, 63, 115
1, 4346773, Note_off_c, 0, 63, 115
1, 4347054, Note_on_c, 0, 64, 108
1, 4350714, Note_off_c, 0, 64, 108
1, 4351432, Note_on_c, 0, 61, 91
1, 4355392, Note_off_c, 0, 61, 91
1, 4470364, Note_on_c, 0, 58, 90
1, 4477095, Note_off_c, 0, 58, 90
1, 4479471, Note_on_c, 0, 61, 106
1, 4491351, Note_off_c, 0, 61, 106
1, 4505343, Note_on_c, 0, 63, 105
1, 4509435, Note_off_c, 0, 63, 105
1, 4510094, Note_on_c, 0, 65, 112
1, 4516694, Note_off_c, 0, 65, 112
1, 4534250, Note_on_c, 0, 61, 91
1, 4554842, Note_off_c, 0, 61, 91
1, 4555238, Note_on_c, 0, 59, 72
1, 4616354, Note_off_c, 0, 59, 72
1, 4733437, Note_on_c, 0, 76, 125
1, 4741885, Note_off_c, 0, 76, 125
1, 4816729, Note_on_c, 0, 73, 107
1, 4825441, Note_off_c, 0, 73, 107
1, 4880748, Note_on_c, 0, 70, 111
1, 4888536, Note_off_c, 0, 70, 111
1, 4889855, Note_on_c, 0, 68, 81
1, 4893023, Note_off_c, 0, 68, 81
1, 4903864, Note_on_c, 0, 70, 106
1, 4908651, Note_off_c, 0, 70, 106
1, 4909258, Note_on_c, 0, 68, 102
1, 4914142, Note_off_c, 0, 68, 102
1, 4916121, Note_on_c, 0, 61, 95
1, 4922325, Note_off_c, 0, 61, 95
1, 4922985, Note_on_c, 0, 58, 88
1, 4926153, Note_off_c, 0, 58, 88
1, 4933242, Note_on_c, 0, 63, 97
1, 4935119, Note_off_c, 0, 63, 97
1, 4935391, Note_on_c, 0, 65, 103
1, 4942123, Note_off_c, 0, 65, 103
1, 4942815, Note_on_c, 0, 68, 78
1, 4980831, Note_off_c, 0, 68, 78
1, 5048790, Note_on_c, 0, 71, 110
1, 5060804, Note_off_c, 0, 71, 110
1, 5060991, Note_on_c, 0, 70, 93
1, 5064088, Note_off_c, 0, 70, 93
1, 5064557, Note_on_c, 0, 69, 92
1, 5067748, Note_off_c, 0, 69, 92
1, 5068686, Note_on_c, 0, 68, 98
1, 5074693, Note_off_c, 0, 68, 98
1, 5076007, Note_on_c, 0, 66, 104
1, 5080512, Note_off_c, 0, 66, 104
1, 5081075, Note_on_c, 0, 65, 99
1, 5086519, Note_off_c, 0, 65, 99
1, 5088020, Note_on_c, 0, 63, 109
1, 5092619, Note_off_c, 0, 63, 109
1, 5093557, Note_on_c, 0, 62, 98
1, 5101817, Note_off_c, 0, 62, 98
1, 5107448, Note_on_c, 0, 59, 84
1, 5115802, Note_off_c, 0, 59, 84
1, 5116271, Note_on_c, 0, 58, 96
1, 5119650, Note_off_c, 0, 58, 96
1, 5120307, Note_on_c, 0, 59, 87
1, 5136076, Note_off_c, 0, 59, 87
1, 5137142, Note_on_c, 0, 58, 96
1, 5144745, Note_off_c, 0, 58, 96
1, 5145180, Note_on_c, 0, 56, 95
1, 5148465, Note_off_c, 0, 56, 95
1, 5148934, Note_on_c, 0, 54, 95
1, 5152876, Note_off_c, 0, 54, 95
1, 5153439, Note_on_c, 0, 51, 90
1, 5157381, Note_off_c, 0, 51, 90
1, 5158601, Note_on_c, 0, 54, 90
1, 5162543, Note_off_c, 0, 54, 90
1, 5163293, Note_on_c, 0, 58, 94
1, 5166953, Note_off_c, 0, 58, 94
1, 5167827, Note_on_c, 0, 54, 90
1, 5170995, Note_off_c, 0, 54, 90
1, 5171787, Note_on_c, 0, 58, 100
1, 5174955, Note_off_c, 0, 58, 100
1, 5176539, Note_on_c, 0, 61, 107
1, 5179970, Note_off_c, 0, 61, 107
1, 5180234, Note_on_c, 0, 58, 86
1, 5183138, Note_off_c, 0, 58, 86
1, 5184062, Note_on_c, 0, 61, 106
1, 5187890, Note_off_c, 0, 61, 106
1, 5188814, Note_on_c, 0, 66, 101
1, 5193170, Note_off_c, 0, 66, 101
1, 5193698, Note_on_c, 0, 61, 93
1, 5195941, Note_off_c, 0, 61, 93
1, 5196997, Note_on_c, 0, 66, 103
1, 5200825, Note_off_c, 0, 66, 103
1, 5206369, Note_on_c, 0, 69, 109
1, 5208349, Note_off_c, 0, 69, 109
1, 5209141, Note_on_c, 0, 70, 108
1, 5215477, Note_off_c, 0, 70, 108
1, 5215873, Note_on_c, 0, 66, 104
1, 5219437, Note_off_c, 0, 66, 104
1, 5219569, Note_on_c, 0, 61, 101
1, 5223265, Note_off_c, 0, 61, 101
1, 5223529, Note_on_c, 0, 58, 91
1, 5228809, Note_off_c, 0, 58, 91
1, 5238972, Note_on_c, 0, 61, 104
1, 5242536, Note_off_c, 0, 61, 104
1, 5242800, Note_on_c, 0, 66, 100
1, 5246364, Note_off_c, 0, 66, 100
1, 5246891, Note_on_c, 0, 60, 101
1, 5252435, Note_off_c, 0, 60, 101
1, 5342723, Note_on_c, 0, 66, 110
1, 5347343, Note_off_c, 0, 66, 110
1, 5348135, Note_on_c, 0, 65, 106
1, 5351171, Note_off_c, 0, 65, 106
1, 5351963, Note_on_c, 0, 66, 108
1, 5355395, Note_off_c, 0, 66, 108
1, 5356055, Note_on_c, 0, 65, 109
1, 5359751, Note_off_c, 0, 65, 109
1, 5360279, Note_on_c, 0, 61, 104
1, 5363579, Note_off_c, 0, 61, 104
1, 5364370, Note_on_c, 0, 58, 88
1, 5368330, Note_off_c, 0, 58, 88
1, 5368990, Note_on_c, 0, 61, 89
1, 5400802, Note_off_c, 0, 61, 89
1, 5401330, Note_on_c, 0, 66, 101
1, 5404498, Note_off_c, 0, 66, 101
1, 5405026, Note_on_c, 0, 65, 101
1, 5408326, Note_off_c, 0, 65, 101
1, 5408722, Note_on_c, 0, 66, 100
1, 5412022, Note_off_c, 0, 66, 100
1, 5412154, Note_on_c, 0, 65, 102
1, 5415058, Note_off_c, 0, 65, 102
1, 5415190, Note_on_c, 0, 61, 97
1, 5418226, Note_off_c, 0, 61, 97
1, 5418358, Note_on_c, 0, 58, 92
1, 5422450, Note_on_c, 0, 61, 94
1, 5422450, Note_off_c, 0, 58, 92
1, 5436705, Note_off_c, 0, 61, 94
1, 5480367, Note_on_c, 0, 65, 111
1, 5482713, Note_off_c, 0, 65, 111
1, 5482994, Note_on_c, 0, 66, 107
1, 5486373, Note_off_c, 0, 66, 107
1, 5486936, Note_on_c, 0, 62, 99
1, 5489094, Note_off_c, 0, 62, 99
1, 5489831, Note_on_c, 0, 65, 109
1, 5492141, Note_off_c, 0, 65, 109
1, 5493065, Note_on_c, 0, 63, 107
1, 5495309, Note_off_c, 0, 63, 107
1, 5496133, Note_on_c, 0, 58, 96
1, 5498291, Note_off_c, 0, 58, 96
1, 5499135, Note_on_c, 0, 54, 97
1, 5501481, Note_off_c, 0, 54, 97
1, 5502231, Note_on_c, 0, 61, 104
1, 5504389, Note_off_c, 0, 61, 104
1, 5505233, Note_on_c, 0, 63, 108
1, 5508142, Note_off_c, 0, 63, 108
1, 5508329, Note_on_c, 0, 60, 93
1, 5510957, Note_off_c, 0, 60, 93
1, 5511520, Note_on_c, 0, 58, 98
1, 5514711, Note_off_c, 0, 58, 98
1, 5515101, Note_on_c, 0, 56, 99
1, 5517675, Note_off_c, 0, 56, 99
1, 5518598, Note_on_c, 0, 55, 96
1, 5521238, Note_off_c, 0, 55, 96
1, 5521568, Note_on_c, 0, 54, 98
1, 5523614, Note_off_c, 0, 54, 98
1, 5524002, Note_on_c, 0, 51, 84
1, 5526818, Note_off_c, 0, 51, 84
1, 5527944, Note_on_c, 0, 53, 96
1, 5531229, Note_off_c, 0, 53, 96
1, 5531994, Note_on_c, 0, 51, 91
1, 5533512, Note_off_c, 0, 51, 91
1, 5534502, Note_on_c, 0, 52, 92
1, 5535624, Note_off_c, 0, 52, 92
1, 5536484, Note_on_c, 0, 53, 95
1, 5538549, Note_off_c, 0, 53, 95
1, 5538642, Note_on_c, 0, 54, 96
1, 5541270, Note_off_c, 0, 54, 96
1, 5541739, Note_on_c, 0, 56, 91
1, 5544367, Note_off_c, 0, 56, 91
1, 5545211, Note_on_c, 0, 58, 85
1, 5547745, Note_off_c, 0, 58, 85
1, 5548308, Note_on_c, 0, 61, 100
1, 5550842, Note_off_c, 0, 61, 100
1, 5551405, Note_on_c, 0, 60, 99
1, 5553094, Note_off_c, 0, 60, 99
1, 5553751, Note_on_c, 0, 65, 86
1, 5557599, Note_off_c, 0, 65, 86
1, 5558819, Note_on_c, 0, 68, 101
1, 5564920, Note_off_c, 0, 68, 101
1, 5601997, Note_on_c, 0, 70, 103
1, 5604191, Note_off_c, 0, 70, 103
1, 5604191, Note_on_c, 0, 73, 103
1, 5609471, Note_off_c, 0, 73, 103
1, 5635210, Note_on_c, 0, 70, 102
1, 5655142, Note_off_c, 0, 70, 102
1, 5656066, Note_on_c, 0, 68, 77
1, 5662270, Note_off_c, 0, 68, 77
1, 5662930, Note_on_c, 0, 63, 112
1, 5668870, Note_off_c, 0, 63, 112
1, 5669529, Note_on_c, 0, 64, 95
1, 5681145, Note_off_c, 0, 64, 95
1, 5681541, Note_on_c, 0, 63, 82
1, 5736981, Note_off_c, 0, 63, 82
1, 5738036, Note_on_c, 0, 61, 84
1, 5745956, Note_off_c, 0, 61, 84
1, 5747936, Note_on_c, 0, 63, 112
1, 5754536, Note_off_c, 0, 63, 112
1, 5757176, Note_on_c, 0, 58, 93
1, 5763248, Note_off_c, 0, 58, 93
1, 5797039, Note_on_c, 0, 54, 91
1, 5802451, Note_off_c, 0, 54, 91
1, 5803771, Note_on_c, 0, 58, 99
1, 5821459, Note_off_c, 0, 58, 99
1, 5830303, Note_on_c, 0, 56, 86
1, 5850631, Note_off_c, 0, 56, 86
1, 5852611, Note_on_c, 0, 54, 88
1, 5859211, Note_off_c, 0, 54, 88
1, 5859211, Note_on_c, 0, 58, 9
1, 5875975, Note_off_c, 0, 58, 9
1, 5887591, Note_on_c, 0, 61, 110
1, 5905411, Note_off_c, 0, 61, 110
1, 5908183, Note_on_c, 0, 58, 93
1, 5916499, Note_off_c, 0, 58, 93
1, 5918479, Note_on_c, 0, 64, 120
1, 5925607, Note_off_c, 0, 64, 120
1, 5926926, Note_on_c, 0, 65, 107
1, 5932470, Note_off_c, 0, 65, 107
1, 5939334, Note_on_c, 0, 66, 103
1, 5946198, Note_off_c, 0, 66, 103
1, 5950554, Note_on_c, 0, 65, 115
1, 5959002, Note_off_c, 0, 65, 115
1, 5964282, Note_on_c, 0, 63, 110
1, 5973126, Note_off_c, 0, 63, 110
1, 5977482, Note_on_c, 0, 61, 103
1, 5987382, Note_off_c, 0, 61, 103
1, 5992794, Note_on_c, 0, 60, 107
1, 6002166, Note_off_c, 0, 60, 107
1, 6003486, Note_on_c, 0, 59, 105
1, 6011406, Note_off_c, 0, 59, 105
1, 6012198, Note_on_c, 0, 58, 96
1, 6019458, Note_off_c, 0, 58, 96
1, 6021042, Note_on_c, 0, 54, 97
1, 6030150, Note_off_c, 0, 54, 97
1, 6031470, Note_on_c, 0, 57, 104
1, 6032922, Note_off_c, 0, 57, 104
1, 6033714, Note_on_c, 0, 58, 103
1, 6044010, Note_off_c, 0, 58, 103
1, 6068825, Note_on_c, 0, 49, 98
1, 6074633, Note_off_c, 0, 49, 98
1, 6077537, Note_on_c, 0, 49, 109
1, 6085589, Note_off_c, 0, 49, 109
1, 6086248, Note_on_c, 0, 51, 105
1, 6092188, Note_off_c, 0, 51, 105
1, 6094168, Note_on_c, 0, 51, 96
1, 6102616, Note_off_c, 0, 51, 96
1, 6103707, Note_on_c, 0, 52, 110
1, 6109714, Note_off_c, 0, 52, 110
1, 6112911, Note_on_c, 0, 52, 93
1, 6142215, Note_off_c, 0, 52, 93
1, 6193827, Note_on_c, 0, 49, 106
1, 6197919, Note_off_c, 0, 49, 106
1, 6199766, Note_on_c, 0, 49, 110
1, 6205838, Note_off_c, 0, 49, 110
1, 6207422, Note_on_c, 0, 51, 105
1, 6211778, Note_off_c, 0, 51, 105
1, 6213493, Note_on_c, 0, 51, 103
1, 6219433, Note_off_c, 0, 51, 103
1, 6221017, Note_on_c, 0, 52, 107
1, 6226693, Note_off_c, 0, 52, 107
1, 6228145, Note_on_c, 0, 52, 106
1, 6236857, Note_off_c, 0, 52, 106
1, 6238440, Note_on_c, 0, 53, 114
1, 6244116, Note_off_c, 0, 53, 114
1, 6247020, Note_on_c, 0, 53, 103
1, 6254280, Note_off_c, 0, 53, 103
1, 6254807, Note_on_c, 0, 54, 104
1, 6259823, Note_off_c, 0, 54, 104
1, 6261935, Note_on_c, 0, 54, 109
1, 6268403, Note_off_c, 0, 54, 109
1, 6269987, Note_on_c, 0, 55, 104
1, 6273682, Note_off_c, 0, 55, 104
1, 6276322, Note_on_c, 0, 58, 105
1, 6281602, Note_off_c, 0, 58, 105
1, 6286882, Note_on_c, 0, 57, 107
1, 6290050, Note_off_c, 0, 57, 107
1, 6290710, Note_on_c, 0, 56, 106
1, 6294538, Note_off_c, 0, 56, 106
1, 6297706, Note_on_c, 0, 55, 103
1, 6301798, Note_off_c, 0, 55, 103
1, 6303645, Note_on_c, 0, 56, 108
1, 6308793, Note_off_c, 0, 56, 108
1, 6310773, Note_on_c, 0, 53, 105
1, 6316581, Note_off_c, 0, 53, 105
1, 6318033, Note_on_c, 0, 53, 98
1, 6321861, Note_off_c, 0, 53, 98
1, 6323577, Note_on_c, 0, 56, 102
1, 6327536, Note_off_c, 0, 56, 102
1, 6328988, Note_on_c, 0, 58, 103
1, 6334400, Note_off_c, 0, 58, 103
1, 6339944, Note_on_c, 0, 59, 97
1, 6345751, Note_off_c, 0, 59, 97
1, 6347335, Note_on_c, 0, 54, 101
1, 6351163, Note_off_c, 0, 54, 101
1, 6358687, Note_on_c, 0, 59, 104
1, 6362779, Note_off_c, 0, 59, 104
1, 6367398, Note_on_c, 0, 59, 106
1, 6376374, Note_off_c, 0, 59, 106
1, 6379410, Note_on_c, 0, 57, 103
1, 6382842, Note_off_c, 0, 57, 103
1, 6383370, Note_on_c, 0, 58, 92
1, 6412674, Note_off_c, 0, 58, 92
1, 6467718, Note_on_c, 0, 53, 108
1, 6476166, Note_off_c, 0, 53, 108
1, 6477090, Note_on_c, 0, 54, 107
1, 6487254, Note_off_c, 0, 54, 107
1, 6489234, Note_on_c, 0, 51, 102
1, 6496098, Note_off_c, 0, 51, 102
1, 6497682, Note_on_c, 0, 54, 107
1, 6504414, Note_off_c, 0, 54, 107
1, 6505470, Note_on_c, 0, 58, 114
1, 6515898, Note_off_c, 0, 58, 114
1, 6516822, Note_on_c, 0, 54, 94
1, 6523818, Note_off_c, 0, 54, 94
1, 6524874, Note_on_c, 0, 58, 112
1, 6532398, Note_off_c, 0, 58, 112
1, 6533718, Note_on_c, 0, 61, 104
1, 6542562, Note_off_c, 0, 61, 104
1, 6542958, Note_on_c, 0, 58, 94
1, 6549689, Note_off_c, 0, 58, 94
1, 6552329, Note_on_c, 0, 61, 111
1, 6559853, Note_off_c, 0, 61, 111
1, 6564737, Note_on_c, 0, 64, 113
1, 6566981, Note_off_c, 0, 64, 113
1, 6567641, Note_on_c, 0, 65, 118
1, 6571865, Note_off_c, 0, 65, 118
1, 6571996, Note_on_c, 0, 61, 100
1, 6578596, Note_off_c, 0, 61, 100
1, 6579124, Note_on_c, 0, 65, 125
1, 6588892, Note_off_c, 0, 65, 125
1, 6589486, Note_on_c, 0, 65, 117
1, 6592522, Note_off_c, 0, 65, 117
1, 6592852, Note_on_c, 0, 68, 89
1, 6669676, Note_off_c, 0, 68, 89
1, 6691852, Note_on_c, 0, 66, 115
1, 6698716, Note_off_c, 0, 66, 115
1, 6700299, Note_on_c, 0, 64, 122
1, 6702939, Note_off_c, 0, 64, 122
1, 6703203, Note_on_c, 0, 65, 113
1, 6707955, Note_off_c, 0, 65, 113
1, 6709539, Note_on_c, 0, 61, 107
1, 6716534, Note_off_c, 0, 61, 107
1, 6719834, Note_on_c, 0, 56, 106
1, 6723002, Note_off_c, 0, 56, 106
1, 6723397, Note_on_c, 0, 61, 96
1, 6745177, Note_off_c, 0, 61, 96
1, 6756265, Note_on_c, 0, 59, 113
1, 6761017, Note_off_c, 0, 59, 113
1, 6761413, Note_on_c, 0, 61, 103
1, 6782268, Note_off_c, 0, 61, 103
1, 6783324, Note_on_c, 0, 58, 118
1, 6787679, Note_off_c, 0, 58, 118
1, 6788867, Note_on_c, 0, 61, 103
1, 6809063, Note_off_c, 0, 61, 103
1, 6811043, Note_on_c, 0, 56, 104
1, 6817510, Note_off_c, 0, 56, 104
1, 6842062, Note_on_c, 0, 59, 115
1, 6848530, Note_off_c, 0, 59, 115
1, 6848926, Note_on_c, 0, 56, 100
1, 6856450, Note_off_c, 0, 56, 100
1, 6858298, Note_on_c, 0, 59, 104
1, 6866482, Note_off_c, 0, 59, 104
1, 6868858, Note_on_c, 0, 56, 102
1, 6895918, Note_off_c, 0, 56, 102
1, 6897897, Note_on_c, 0, 54, 109
1, 6912285, Note_off_c, 0, 54, 109
1, 6914132, Note_on_c, 0, 52, 108
1, 6922184, Note_off_c, 0, 52, 108
1, 6922720, Note_on_c, 0, 52, 107
1, 6926944, Note_off_c, 0, 52, 107
1, 6927859, Note_on_c, 0, 53, 91
1, 7009567, Note_off_c, 0, 53, 91
1, 7009567, End_track
0, 0, End_of_file
