0, 0, Header, 1, 1, 2520
1, 0, Start_track
1, 0, Title_t, "Melody"
1, 0, Tempo, 476190
1, 0, Key_signature, -1, "major"
1, 0, Time_signature, 4, 2, 24, 8
1, 47282, Note_on_c, 0, 67, 73
1, 47498, Note_off_c, 0, 67, 73
1, 47519, Note_on_c, 0, 68, 116
1, 52746, Note_off_c, 0, 68, 116
1, 57238, Note_on_c, 0, 65, 111
1, 62227, Note_off_c, 0, 65, 111
1, 64883, Note_on_c, 0, 60, 114
1, 66697, Note_off_c, 0, 60, 114
1, 69915, Note_on_c, 0, 62, 114
1, 71578, Note_off_c, 0, 62, 114
1, 74947, Note_on_c, 0, 53, 102
1, 76502, Note_off_c, 0, 53, 102
1, 76610, Note_on_c, 0, 55, 94
1, 77258, Note_off_c, 0, 55, 94
1, 80087, Note_on_c, 0, 68, 109
1, 84774, Note_off_c, 0, 68, 109
1, 87392, Note_on_c, 0, 60, 118
1, 88590, Note_off_c, 0, 60, 118
1, 89849, Note_on_c, 0, 62, 110
1, 93456, Note_off_c, 0, 62, 110
1, 97387, Note_on_c, 0, 48, 103
1, 99007, Note_off_c, 0, 48, 103
1, 99114, Note_on_c, 0, 50, 97
1, 99891, Note_off_c, 0, 50, 97
1, 102245, Note_on_c, 0, 53, 113
1, 103649, Note_off_c, 0, 53, 113
1, 107234, Note_on_c, 0, 57, 113
1, 108443, Note_off_c, 0, 57, 113
1, 111488, Note_on_c, 0, 60, 120
1, 112395, Note_off_c, 0, 60, 120
1, 114554, Note_on_c, 0, 65, 114
1, 115418, Note_off_c, 0, 65, 114
1, 117145, Note_on_c, 0, 69, 116
1, 118203, Note_off_c, 0, 69, 116
1, 119671, Note_on_c, 0, 70, 115
1, 120707, Note_off_c, 0, 70, 115
1, 122175, Note_on_c, 0, 69, 109
1, 123125, Note_off_c, 0, 69, 109
1, 124701, Note_on_c, 0, 61, 100
1, 125867, Note_off_c, 0, 61, 100
1, 127141, Note_on_c, 0, 61, 110
1, 128393, Note_off_c, 0, 61, 110
1, 129602, Note_on_c, 0, 61, 101
1, 130789, Note_off_c, 0, 61, 101
1, 132041, Note_on_c, 0, 61, 99
1, 133207, Note_off_c, 0, 61, 99
1, 134654, Note_on_c, 0, 61, 103
1, 136878, Note_off_c, 0, 61, 103
1, 137137, Note_on_c, 0, 61, 102
1, 138303, Note_off_c, 0, 61, 102
1, 139685, Note_on_c, 0, 61, 103
1, 141953, Note_off_c, 0, 61, 103
1, 142169, Note_on_c, 0, 61, 97
1, 143573, Note_off_c, 0, 61, 97
1, 144026, Note_on_c, 0, 61, 111
1, 144674, Note_off_c, 0, 61, 111
1, 146229, Note_on_c, 0, 61, 116
1, 147006, Note_off_c, 0, 61, 116
1, 148842, Note_on_c, 0, 56, 100
1, 149425, Note_off_c, 0, 56, 100
1, 149468, Note_on_c, 0, 61, 99
1, 151822, Note_off_c, 0, 61, 99
1, 151951, Note_on_c, 0, 63, 106
1, 154413, Note_off_c, 0, 63, 106
1, 154542, Note_on_c, 0, 61, 98
1, 154736, Note_off_c, 0, 61, 98
1, 154865, Note_on_c, 0, 60, 102
1, 156031, Note_off_c, 0, 60, 102
1, 159508, Note_on_c, 0, 60, 113
1, 161819, Note_off_c, 0, 60, 113
1, 161840, Note_on_c, 0, 62, 104
1, 163870, Note_off_c, 0, 62, 104
1, 164321, Note_on_c, 0, 59, 99
1, 165626, Note_off_c, 0, 59, 99
1, 169204, Note_on_c, 0, 59, 98
1, 171752, Note_off_c, 0, 59, 98
1, 171968, Note_on_c, 0, 61, 103
1, 174236, Note_off_c, 0, 61, 103
1, 174344, Note_on_c, 0, 58, 97
1, 178232, Note_off_c, 0, 58, 97
1, 191105, Note_on_c, 0, 56, 100
1, 192141, Note_off_c, 0, 56, 100
1, 192400, Note_on_c, 0, 57, 101
1, 193544, Note_off_c, 0, 57, 101
1, 193673, Note_on_c, 0, 60, 116
1, 194601, Note_off_c, 0, 60, 116
1, 194903, Note_on_c, 0, 63, 103
1, 195918, Note_off_c, 0, 63, 103
1, 196069, Note_on_c, 0, 65, 115
1, 196889, Note_off_c, 0, 65, 115
1, 196953, Note_on_c, 0, 66, 104
1, 198680, Note_off_c, 0, 66, 104
1, 198723, Note_on_c, 0, 64, 96
1, 199370, Note_off_c, 0, 64, 96
1, 199456, Note_on_c, 0, 65, 108
1, 201119, Note_off_c, 0, 65, 108
1, 201227, Note_on_c, 0, 62, 114
1, 201939, Note_off_c, 0, 62, 114
1, 202198, Note_on_c, 0, 58, 94
1, 204012, Note_off_c, 0, 58, 94
1, 204163, Note_on_c, 0, 54, 90
1, 204551, Note_off_c, 0, 54, 90
1, 204637, Note_on_c, 0, 60, 104
1, 206105, Note_off_c, 0, 60, 104
1, 206234, Note_on_c, 0, 63, 127
1, 206968, Note_off_c, 0, 63, 127
1, 207119, Note_on_c, 0, 62, 99
1, 208631, Note_off_c, 0, 62, 99
1, 208825, Note_on_c, 0, 60, 106
1, 209537, Note_off_c, 0, 60, 106
1, 209580, Note_on_c, 0, 55, 101
1, 211005, Note_off_c, 0, 55, 101
1, 211264, Note_on_c, 0, 56, 104
1, 211912, Note_off_c, 0, 56, 104
1, 211976, Note_on_c, 0, 60, 96
1, 213790, Note_off_c, 0, 60, 96
1, 213919, Note_on_c, 0, 63, 85
1, 214243, Note_off_c, 0, 63, 85
1, 215020, Note_on_c, 0, 67, 110
1, 216510, Note_off_c, 0, 67, 110
1, 216531, Note_on_c, 0, 66, 101
1, 216833, Note_off_c, 0, 66, 101
1, 216854, Note_on_c, 0, 65, 101
1, 217350, Note_off_c, 0, 65, 101
1, 217522, Note_on_c, 0, 64, 98
1, 218558, Note_off_c, 0, 64, 98
1, 218730, Note_on_c, 0, 67, 112
1, 219939, Note_off_c, 0, 67, 112
1, 219960, Note_on_c, 0, 66, 92
1, 221536, Note_off_c, 0, 66, 92
1, 221600, Note_on_c, 0, 64, 95
1, 222032, Note_off_c, 0, 64, 95
1, 222204, Note_on_c, 0, 65, 111
1, 223478, Note_off_c, 0, 65, 111
1, 224190, Note_on_c, 0, 60, 118
1, 224816, Note_off_c, 0, 60, 118
1, 225377, Note_on_c, 0, 57, 102
1, 226327, Note_off_c, 0, 57, 102
1, 226434, Note_on_c, 0, 57, 108
1, 227146, Note_off_c, 0, 57, 108
1, 227534, Note_on_c, 0, 58, 93
1, 228592, Note_off_c, 0, 58, 93
1, 228980, Note_on_c, 0, 58, 102
1, 229649, Note_off_c, 0, 58, 102
1, 230081, Note_on_c, 0, 60, 113
1, 230966, Note_off_c, 0, 60, 113
1, 232305, Note_on_c, 0, 62, 114
1, 233125, Note_off_c, 0, 62, 114
1, 234788, Note_on_c, 0, 66, 107
1, 235868, Note_off_c, 0, 66, 107
1, 237574, Note_on_c, 0, 69, 115
1, 238416, Note_off_c, 0, 69, 115
1, 239776, Note_on_c, 0, 70, 110
1, 240229, Note_off_c, 0, 70, 110
1, 240466, Note_on_c, 0, 72, 121
1, 244246, Note_off_c, 0, 72, 121
1, 244505, Note_on_c, 0, 69, 99
1, 244829, Note_off_c, 0, 69, 99
1, 244915, Note_on_c, 0, 70, 112
1, 246729, Note_off_c, 0, 70, 112
1, 247131, Note_on_c, 0, 61, 116
1, 247899, Note_off_c, 0, 61, 116
1, 255325, Note_on_c, 0, 69, 86
1, 255627, Note_off_c, 0, 69, 86
1, 255734, Note_on_c, 0, 70, 115
1, 256058, Note_off_c, 0, 70, 115
1, 256144, Note_on_c, 0, 69, 113
1, 256532, Note_off_c, 0, 69, 113
1, 256596, Note_on_c, 0, 68, 102
1, 256898, Note_off_c, 0, 68, 102
1, 257913, Note_on_c, 0, 69, 116
1, 258129, Note_off_c, 0, 69, 116
1, 258258, Note_on_c, 0, 70, 115
1, 258517, Note_off_c, 0, 70, 115
1, 258538, Note_on_c, 0, 69, 115
1, 258926, Note_off_c, 0, 69, 115
1, 260135, Note_on_c, 0, 69, 114
1, 260567, Note_off_c, 0, 69, 114
1, 260653, Note_on_c, 0, 70, 112
1, 260955, Note_off_c, 0, 70, 112
1, 260998, Note_on_c, 0, 69, 111
1, 261559, Note_off_c, 0, 69, 111
1, 263006, Note_on_c, 0, 69, 112
1, 264431, Note_off_c, 0, 69, 112
1, 264495, Note_on_c, 0, 68, 100
1, 265186, Note_off_c, 0, 68, 100
1, 265186, Note_on_c, 0, 69, 110
1, 266870, Note_off_c, 0, 69, 110
1, 267237, Note_on_c, 0, 59, 105
1, 267962, Note_off_c, 0, 59, 105
1, 267962, Note_on_c, 0, 58, 105
1, 268384, Note_off_c, 0, 58, 105
1, 270432, Note_on_c, 0, 59, 104
1, 271317, Note_off_c, 0, 59, 104
1, 274600, Note_on_c, 0, 59, 101
1, 275312, Note_off_c, 0, 59, 101
1, 279783, Note_on_c, 0, 59, 103
1, 280517, Note_off_c, 0, 59, 103
1, 283087, Note_on_c, 0, 60, 116
1, 284123, Note_off_c, 0, 60, 116
1, 287795, Note_on_c, 0, 68, 91
1, 288097, Note_off_c, 0, 68, 91
1, 288097, Note_on_c, 0, 69, 117
1, 289652, Note_off_c, 0, 69, 117
1, 289738, Note_on_c, 0, 68, 98
1, 290256, Note_off_c, 0, 68, 98
1, 290428, Note_on_c, 0, 69, 111
1, 295309, Note_off_c, 0, 69, 111
1, 295395, Note_on_c, 0, 67, 110
1, 297317, Note_off_c, 0, 67, 110
1, 297403, Note_on_c, 0, 65, 102
1, 298007, Note_off_c, 0, 65, 102
1, 298093, Note_on_c, 0, 67, 103
1, 303061, Note_off_c, 0, 67, 103
1, 303233, Note_on_c, 0, 69, 111
1, 304853, Note_off_c, 0, 69, 111
1, 304961, Note_on_c, 0, 63, 120
1, 306192, Note_off_c, 0, 63, 120
1, 306205, Note_on_c, 0, 62, 113
1, 306589, Note_off_c, 0, 62, 113
1, 322094, Note_on_c, 0, 73, 105
1, 322616, Note_off_c, 0, 73, 105
1, 322692, Note_on_c, 0, 68, 109
1, 323198, Note_off_c, 0, 68, 109
1, 323520, Note_on_c, 0, 64, 113
1, 323980, Note_off_c, 0, 64, 113
1, 324256, Note_on_c, 0, 57, 100
1, 324640, Note_off_c, 0, 57, 100
1, 324655, Note_on_c, 0, 66, 105
1, 325591, Note_off_c, 0, 66, 105
1, 325591, Note_on_c, 0, 61, 116
1, 326005, Note_off_c, 0, 61, 116
1, 326358, Note_on_c, 0, 67, 110
1, 326926, Note_off_c, 0, 67, 110
1, 326972, Note_on_c, 0, 60, 108
1, 327693, Note_off_c, 0, 60, 108
1, 327708, Note_on_c, 0, 67, 111
1, 328214, Note_off_c, 0, 67, 111
1, 328306, Note_on_c, 0, 65, 115
1, 328889, Note_off_c, 0, 65, 115
1, 328950, Note_on_c, 0, 63, 121
1, 329502, Note_off_c, 0, 63, 121
1, 329686, Note_on_c, 0, 58, 104
1, 330177, Note_off_c, 0, 58, 104
1, 330253, Note_on_c, 0, 55, 97
1, 330637, Note_off_c, 0, 55, 97
1, 330729, Note_on_c, 0, 63, 119
1, 331297, Note_off_c, 0, 63, 119
1, 331389, Note_on_c, 0, 60, 108
1, 331926, Note_off_c, 0, 60, 108
1, 332018, Note_on_c, 0, 58, 102
1, 332586, Note_off_c, 0, 58, 102
1, 332693, Note_on_c, 0, 55, 106
1, 333261, Note_off_c, 0, 55, 106
1, 333307, Note_on_c, 0, 60, 110
1, 333737, Note_off_c, 0, 60, 110
1, 333798, Note_on_c, 0, 62, 108
1, 334289, Note_off_c, 0, 62, 108
1, 334411, Note_on_c, 0, 63, 112
1, 334871, Note_off_c, 0, 63, 112
1, 334947, Note_on_c, 0, 65, 114
1, 335407, Note_off_c, 0, 65, 114
1, 335499, Note_on_c, 0, 61, 116
1, 335775, Note_off_c, 0, 61, 116
1, 335913, Note_on_c, 0, 62, 117
1, 336419, Note_off_c, 0, 62, 117
1, 338159, Note_on_c, 0, 53, 101
1, 340254, Note_off_c, 0, 53, 101
1, 340578, Note_on_c, 0, 56, 102
1, 342846, Note_off_c, 0, 56, 102
1, 343018, Note_on_c, 0, 53, 99
1, 345458, Note_off_c, 0, 53, 99
1, 345587, Note_on_c, 0, 57, 96
1, 348200, Note_off_c, 0, 57, 96
1, 354940, Note_on_c, 0, 57, 108
1, 355738, Note_off_c, 0, 57, 108
1, 355845, Note_on_c, 0, 58, 102
1, 357054, Note_off_c, 0, 58, 102
1, 357118, Note_on_c, 0, 59, 93
1, 357744, Note_off_c, 0, 59, 93
1, 357938, Note_on_c, 0, 58, 99
1, 358564, Note_off_c, 0, 58, 99
1, 358628, Note_on_c, 0, 57, 104
1, 359924, Note_off_c, 0, 57, 104
1, 360075, Note_on_c, 0, 55, 101
1, 360809, Note_off_c, 0, 55, 101
1, 360938, Note_on_c, 0, 54, 94
1, 362342, Note_off_c, 0, 54, 94
1, 362493, Note_on_c, 0, 63, 114
1, 363400, Note_off_c, 0, 63, 114
1, 363507, Note_on_c, 0, 62, 105
1, 364738, Note_off_c, 0, 62, 105
1, 365126, Note_on_c, 0, 57, 105
1, 365666, Note_off_c, 0, 57, 105
1, 365817, Note_on_c, 0, 60, 109
1, 367393, Note_off_c, 0, 60, 109
1, 367522, Note_on_c, 0, 57, 108
1, 368321, Note_off_c, 0, 57, 108
1, 368536, Note_on_c, 0, 58, 91
1, 369054, Note_off_c, 0, 58, 91
1, 369167, Note_on_c, 0, 62, 100
1, 369735, Note_off_c, 0, 62, 100
1, 369982, Note_on_c, 0, 65, 112
1, 370673, Note_off_c, 0, 65, 112
1, 371277, Note_on_c, 0, 69, 109
1, 372464, Note_off_c, 0, 69, 109
1, 372658, Note_on_c, 0, 70, 93
1, 373025, Note_off_c, 0, 70, 93
1, 373025, Note_on_c, 0, 69, 99
1, 373478, Note_off_c, 0, 69, 99
1, 373478, Note_on_c, 0, 67, 101
1, 373780, Note_off_c, 0, 67, 101
1, 373888, Note_on_c, 0, 66, 97
1, 375011, Note_off_c, 0, 66, 97
1, 375529, Note_on_c, 0, 69, 107
1, 376047, Note_off_c, 0, 69, 107
1, 376608, Note_on_c, 0, 67, 97
1, 376953, Note_off_c, 0, 67, 97
1, 376996, Note_on_c, 0, 68, 92
1, 377233, Note_off_c, 0, 68, 92
1, 377341, Note_on_c, 0, 67, 92
1, 377708, Note_off_c, 0, 67, 92
1, 377792, Note_on_c, 0, 62, 88
1, 378590, Note_off_c, 0, 62, 88
1, 378895, Note_on_c, 0, 65, 109
1, 379240, Note_off_c, 0, 65, 109
1, 379283, Note_on_c, 0, 67, 101
1, 379650, Note_off_c, 0, 67, 101
1, 379736, Note_on_c, 0, 65, 93
1, 380189, Note_off_c, 0, 65, 93
1, 380261, Note_on_c, 0, 62, 84
1, 380767, Note_off_c, 0, 62, 84
1, 380889, Note_on_c, 0, 65, 84
1, 381273, Note_off_c, 0, 65, 84
1, 381380, Note_on_c, 0, 67, 104
1, 381671, Note_off_c, 0, 67, 104
1, 381732, Note_on_c, 0, 65, 106
1, 382069, Note_off_c, 0, 65, 106
1, 382453, Note_on_c, 0, 61, 84
1, 383236, Note_off_c, 0, 61, 84
1, 383404, Note_on_c, 0, 63, 85
1, 383711, Note_off_c, 0, 63, 85
1, 383864, Note_on_c, 0, 64, 102
1, 384263, Note_off_c, 0, 64, 102
1, 384263, Note_on_c, 0, 63, 101
1, 384616, Note_off_c, 0, 63, 101
1, 384754, Note_on_c, 0, 61, 103
1, 385690, Note_off_c, 0, 61, 103
1, 385736, Note_on_c, 0, 59, 89
1, 385981, Note_off_c, 0, 59, 89
1, 386057, Note_on_c, 0, 60, 108
1, 386702, Note_off_c, 0, 60, 108
1, 388729, Note_on_c, 0, 65, 112
1, 389389, Note_off_c, 0, 65, 112
1, 389435, Note_on_c, 0, 64, 104
1, 389849, Note_off_c, 0, 64, 104
1, 389941, Note_on_c, 0, 65, 114
1, 390570, Note_off_c, 0, 65, 114
1, 390708, Note_on_c, 0, 60, 110
1, 391168, Note_off_c, 0, 60, 110
1, 391275, Note_on_c, 0, 57, 95
1, 391904, Note_off_c, 0, 57, 95
1, 392042, Note_on_c, 0, 53, 89
1, 392395, Note_off_c, 0, 53, 89
1, 392548, Note_on_c, 0, 58, 101
1, 392885, Note_off_c, 0, 58, 101
1, 393084, Note_on_c, 0, 62, 109
1, 393590, Note_off_c, 0, 62, 109
1, 393697, Note_on_c, 0, 60, 105
1, 394188, Note_off_c, 0, 60, 105
1, 394280, Note_on_c, 0, 58, 104
1, 394817, Note_off_c, 0, 58, 104
1, 394878, Note_on_c, 0, 57, 101
1, 395369, Note_off_c, 0, 57, 101
1, 395445, Note_on_c, 0, 55, 98
1, 395905, Note_off_c, 0, 55, 98
1, 396150, Note_on_c, 0, 54, 94
1, 396964, Note_off_c, 0, 54, 94
1, 397501, Note_on_c, 0, 57, 102
1, 398115, Note_off_c, 0, 57, 102
1, 398161, Note_on_c, 0, 54, 89
1, 398452, Note_off_c, 0, 54, 89
1, 398544, Note_on_c, 0, 55, 101
1, 399173, Note_off_c, 0, 55, 101
1, 399265, Note_on_c, 0, 57, 102
1, 399910, Note_off_c, 0, 57, 102
1, 400017, Note_on_c, 0, 58, 99
1, 400477, Note_off_c, 0, 58, 99
1, 400507, Note_on_c, 0, 60, 106
1, 401136, Note_off_c, 0, 60, 106
1, 401197, Note_on_c, 0, 62, 96
1, 401765, Note_off_c, 0, 62, 96
1, 401887, Note_on_c, 0, 65, 112
1, 402578, Note_off_c, 0, 65, 112
1, 402639, Note_on_c, 0, 64, 102
1, 402992, Note_off_c, 0, 64, 102
1, 403038, Note_on_c, 0, 67, 93
1, 403391, Note_off_c, 0, 67, 93
1, 403979, Note_on_c, 0, 72, 116
1, 404793, Note_off_c, 0, 72, 116
1, 415017, Note_on_c, 0, 77, 124
1, 416245, Note_off_c, 0, 77, 124
1, 417412, Note_on_c, 0, 75, 112
1, 418471, Note_off_c, 0, 75, 112
1, 419838, Note_on_c, 0, 72, 125
1, 420913, Note_off_c, 0, 72, 125
1, 422336, Note_on_c, 0, 70, 117
1, 423173, Note_off_c, 0, 70, 117
1, 425136, Note_on_c, 0, 65, 107
1, 425934, Note_off_c, 0, 65, 107
1, 426256, Note_on_c, 0, 68, 112
1, 426471, Note_off_c, 0, 68, 112
1, 426486, Note_on_c, 0, 69, 107
1, 427392, Note_off_c, 0, 69, 107
1, 427530, Note_on_c, 0, 70, 109
1, 428082, Note_off_c, 0, 70, 109
1, 428619, Note_on_c, 0, 72, 109
1, 430155, Note_off_c, 0, 72, 109
1, 430277, Note_on_c, 0, 74, 99
1, 430998, Note_off_c, 0, 74, 99
1, 431166, Note_on_c, 0, 72, 112
1, 432917, Note_off_c, 0, 72, 112
1, 433608, Note_on_c, 0, 65, 105
1, 435082, Note_off_c, 0, 65, 105
1, 435460, Note_on_c, 0, 67, 84
1, 435767, Note_off_c, 0, 67, 84
1, 435803, Note_on_c, 0, 69, 109
1, 437769, Note_off_c, 0, 69, 109
1, 437835, Note_on_c, 0, 70, 95
1, 438267, Note_off_c, 0, 70, 95
1, 438288, Note_on_c, 0, 69, 108
1, 440340, Note_off_c, 0, 69, 108
1, 440469, Note_on_c, 0, 70, 100
1, 440879, Note_off_c, 0, 70, 100
1, 440922, Note_on_c, 0, 69, 111
1, 442671, Note_off_c, 0, 69, 111
1, 442800, Note_on_c, 0, 70, 102
1, 443232, Note_off_c, 0, 70, 102
1, 443296, Note_on_c, 0, 69, 105
1, 445499, Note_off_c, 0, 69, 105
1, 445563, Note_on_c, 0, 70, 97
1, 445973, Note_off_c, 0, 70, 97
1, 446102, Note_on_c, 0, 68, 110
1, 447765, Note_off_c, 0, 68, 110
1, 447851, Note_on_c, 0, 70, 94
1, 448369, Note_off_c, 0, 70, 94
1, 448390, Note_on_c, 0, 68, 108
1, 450355, Note_off_c, 0, 68, 108
1, 450506, Note_on_c, 0, 70, 92
1, 450851, Note_off_c, 0, 70, 92
1, 450959, Note_on_c, 0, 68, 110
1, 452687, Note_off_c, 0, 68, 110
1, 452849, Note_on_c, 0, 62, 115
1, 453459, Note_off_c, 0, 62, 115
1, 453507, Note_on_c, 0, 61, 116
1, 454014, Note_off_c, 0, 61, 116
1, 455913, Note_on_c, 0, 62, 119
1, 456704, Note_off_c, 0, 62, 119
1, 456738, Note_on_c, 0, 61, 114
1, 457198, Note_off_c, 0, 61, 114
1, 467112, Note_on_c, 0, 60, 113
1, 467652, Note_off_c, 0, 60, 113
1, 467652, Note_on_c, 0, 65, 110
1, 468148, Note_off_c, 0, 65, 110
1, 468256, Note_on_c, 0, 69, 115
1, 468860, Note_off_c, 0, 69, 115
1, 468946, Note_on_c, 0, 67, 119
1, 469421, Note_off_c, 0, 67, 119
1, 469615, Note_on_c, 0, 65, 112
1, 470176, Note_off_c, 0, 65, 112
1, 470240, Note_on_c, 0, 69, 115
1, 470758, Note_off_c, 0, 69, 115
1, 470801, Note_on_c, 0, 67, 107
1, 471341, Note_off_c, 0, 67, 107
1, 471341, Note_on_c, 0, 69, 106
1, 471881, Note_off_c, 0, 69, 106
1, 471945, Note_on_c, 0, 70, 109
1, 472593, Note_off_c, 0, 70, 109
1, 472636, Note_on_c, 0, 72, 109
1, 473132, Note_off_c, 0, 72, 109
1, 473240, Note_on_c, 0, 69, 107
1, 473736, Note_off_c, 0, 69, 107
1, 473908, Note_on_c, 0, 65, 115
1, 474383, Note_off_c, 0, 65, 115
1, 474491, Note_on_c, 0, 60, 105
1, 475031, Note_off_c, 0, 60, 105
1, 475074, Note_on_c, 0, 58, 102
1, 475506, Note_off_c, 0, 58, 102
1, 475700, Note_on_c, 0, 65, 117
1, 476132, Note_off_c, 0, 65, 117
1, 476326, Note_on_c, 0, 60, 104
1, 476779, Note_off_c, 0, 60, 104
1, 476800, Note_on_c, 0, 63, 110
1, 477318, Note_off_c, 0, 63, 110
1, 477447, Note_on_c, 0, 68, 110
1, 477965, Note_on_c, 0, 65, 116
1, 477965, Note_off_c, 0, 68, 110
1, 478548, Note_off_c, 0, 65, 116
1, 478720, Note_on_c, 0, 68, 114
1, 479216, Note_off_c, 0, 68, 114
1, 479302, Note_on_c, 0, 66, 110
1, 479842, Note_off_c, 0, 66, 110
1, 479949, Note_on_c, 0, 63, 122
1, 480510, Note_off_c, 0, 63, 122
1, 480596, Note_on_c, 0, 70, 106
1, 481157, Note_off_c, 0, 70, 106
1, 481351, Note_on_c, 0, 63, 116
1, 481718, Note_off_c, 0, 63, 116
1, 481782, Note_on_c, 0, 58, 105
1, 482450, Note_off_c, 0, 58, 105
1, 482450, Note_on_c, 0, 67, 105
1, 482987, Note_off_c, 0, 67, 105
1, 483002, Note_on_c, 0, 66, 106
1, 483601, Note_off_c, 0, 66, 106
1, 483677, Note_on_c, 0, 65, 113
1, 484214, Note_off_c, 0, 65, 113
1, 484705, Note_on_c, 0, 67, 109
1, 485196, Note_off_c, 0, 67, 109
1, 485242, Note_on_c, 0, 65, 110
1, 485963, Note_off_c, 0, 65, 110
1, 486039, Note_on_c, 0, 60, 106
1, 486622, Note_off_c, 0, 60, 106
1, 486698, Note_on_c, 0, 58, 105
1, 487189, Note_off_c, 0, 58, 105
1, 487235, Note_on_c, 0, 64, 113
1, 487619, Note_off_c, 0, 64, 113
1, 487697, Note_on_c, 0, 61, 109
1, 488393, Note_off_c, 0, 61, 109
1, 488523, Note_on_c, 0, 62, 104
1, 489029, Note_off_c, 0, 62, 104
1, 489136, Note_on_c, 0, 68, 109
1, 489735, Note_off_c, 0, 68, 109
1, 489781, Note_on_c, 0, 65, 108
1, 490257, Note_off_c, 0, 65, 108
1, 490318, Note_on_c, 0, 67, 107
1, 491101, Note_off_c, 0, 67, 107
1, 491131, Note_on_c, 0, 67, 104
1, 491514, Note_on_c, 0, 68, 113
1, 491514, Note_off_c, 0, 67, 104
1, 492235, Note_off_c, 0, 68, 113
1, 492296, Note_on_c, 0, 68, 115
1, 492726, Note_off_c, 0, 68, 115
1, 492726, Note_on_c, 0, 70, 109
1, 493417, Note_off_c, 0, 70, 109
1, 493585, Note_on_c, 0, 66, 106
1, 494015, Note_off_c, 0, 66, 106
1, 494137, Note_on_c, 0, 61, 107
1, 494628, Note_on_c, 0, 67, 101
1, 494628, Note_off_c, 0, 61, 107
1, 495150, Note_off_c, 0, 67, 101
1, 495380, Note_on_c, 0, 62, 111
1, 496055, Note_off_c, 0, 62, 111
1, 496101, Note_on_c, 0, 60, 109
1, 496653, Note_off_c, 0, 60, 109
1, 496745, Note_on_c, 0, 58, 104
1, 497374, Note_off_c, 0, 58, 104
1, 497481, Note_on_c, 0, 53, 103
1, 498033, Note_off_c, 0, 53, 103
1, 498033, Note_on_c, 0, 58, 106
1, 498724, Note_off_c, 0, 58, 106
1, 498754, Note_on_c, 0, 56, 101
1, 499076, Note_off_c, 0, 56, 101
1, 499229, Note_on_c, 0, 57, 110
1, 499751, Note_off_c, 0, 57, 110
1, 499797, Note_on_c, 0, 60, 107
1, 500273, Note_off_c, 0, 60, 107
1, 500288, Note_on_c, 0, 65, 107
1, 500933, Note_off_c, 0, 65, 107
1, 500994, Note_on_c, 0, 67, 110
1, 501454, Note_off_c, 0, 67, 110
1, 501592, Note_on_c, 0, 69, 110
1, 502206, Note_off_c, 0, 69, 110
1, 502313, Note_on_c, 0, 65, 103
1, 502758, Note_off_c, 0, 65, 103
1, 502880, Note_on_c, 0, 67, 110
1, 503540, Note_off_c, 0, 67, 110
1, 503601, Note_on_c, 0, 65, 120
1, 504046, Note_off_c, 0, 65, 120
1, 504092, Note_on_c, 0, 60, 116
1, 504783, Note_off_c, 0, 60, 116
1, 513108, Note_on_c, 0, 64, 114
1, 513568, Note_off_c, 0, 64, 114
1, 513844, Note_on_c, 0, 68, 116
1, 514243, Note_off_c, 0, 68, 116
1, 514243, Note_on_c, 0, 64, 111
1, 514703, Note_off_c, 0, 64, 111
1, 514730, Note_on_c, 0, 66, 109
1, 515075, Note_off_c, 0, 66, 109
1, 515183, Note_on_c, 0, 64, 116
1, 515507, Note_off_c, 0, 64, 116
1, 515571, Note_on_c, 0, 59, 99
1, 516003, Note_off_c, 0, 59, 99
1, 516543, Note_on_c, 0, 63, 119
1, 516888, Note_off_c, 0, 63, 119
1, 517039, Note_on_c, 0, 65, 115
1, 517319, Note_off_c, 0, 65, 115
1, 517362, Note_on_c, 0, 67, 109
1, 517794, Note_off_c, 0, 67, 109
1, 517837, Note_on_c, 0, 63, 113
1, 517988, Note_off_c, 0, 63, 113
1, 518117, Note_on_c, 0, 65, 114
1, 518376, Note_off_c, 0, 65, 114
1, 518462, Note_on_c, 0, 63, 110
1, 518786, Note_off_c, 0, 63, 110
1, 518952, Note_on_c, 0, 58, 111
1, 519658, Note_off_c, 0, 58, 111
1, 530133, Note_on_c, 0, 58, 99
1, 530470, Note_off_c, 0, 58, 99
1, 530500, Note_on_c, 0, 55, 100
1, 530653, Note_off_c, 0, 55, 100
1, 530775, Note_on_c, 0, 57, 106
1, 531143, Note_off_c, 0, 57, 106
1, 531147, Note_on_c, 0, 60, 114
1, 531557, Note_off_c, 0, 60, 114
1, 531557, Note_on_c, 0, 62, 109
1, 531697, Note_off_c, 0, 62, 109
1, 531718, Note_on_c, 0, 63, 110
1, 531912, Note_off_c, 0, 63, 110
1, 531985, Note_on_c, 0, 65, 113
1, 532415, Note_off_c, 0, 65, 113
1, 532445, Note_on_c, 0, 64, 113
1, 532660, Note_off_c, 0, 64, 113
1, 532690, Note_on_c, 0, 62, 113
1, 532997, Note_off_c, 0, 62, 113
1, 533012, Note_on_c, 0, 61, 108
1, 533257, Note_off_c, 0, 61, 108
1, 533472, Note_on_c, 0, 58, 114
1, 533917, Note_off_c, 0, 58, 114
1, 534055, Note_on_c, 0, 59, 100
1, 534270, Note_off_c, 0, 59, 100
1, 534392, Note_on_c, 0, 62, 112
1, 534729, Note_off_c, 0, 62, 112
1, 534775, Note_on_c, 0, 60, 106
1, 535066, Note_off_c, 0, 60, 106
1, 535173, Note_on_c, 0, 55, 104
1, 535449, Note_off_c, 0, 55, 104
1, 535571, Note_on_c, 0, 52, 98
1, 535862, Note_off_c, 0, 52, 98
1, 535897, Note_on_c, 0, 58, 105
1, 536059, Note_off_c, 0, 58, 105
1, 536091, Note_on_c, 0, 55, 110
1, 536231, Note_off_c, 0, 55, 110
1, 536317, Note_on_c, 0, 57, 102
1, 536500, Note_off_c, 0, 57, 102
1, 536618, Note_on_c, 0, 55, 104
1, 536844, Note_off_c, 0, 55, 104
1, 536952, Note_on_c, 0, 53, 122
1, 537157, Note_off_c, 0, 53, 122
1, 537265, Note_on_c, 0, 51, 112
1, 537524, Note_off_c, 0, 51, 112
1, 537664, Note_on_c, 0, 55, 101
1, 537832, Note_off_c, 0, 55, 101
1, 537954, Note_on_c, 0, 58, 108
1, 538199, Note_off_c, 0, 58, 108
1, 538342, Note_on_c, 0, 60, 104
1, 538695, Note_off_c, 0, 60, 104
1, 538741, Note_on_c, 0, 55, 101
1, 539002, Note_off_c, 0, 55, 101
1, 539086, Note_on_c, 0, 49, 98
1, 539362, Note_off_c, 0, 49, 98
1, 539784, Note_on_c, 0, 58, 102
1, 540075, Note_off_c, 0, 58, 102
1, 540136, Note_on_c, 0, 61, 99
1, 540381, Note_off_c, 0, 61, 99
1, 540503, Note_on_c, 0, 65, 95
1, 540794, Note_off_c, 0, 65, 95
1, 540840, Note_on_c, 0, 66, 101
1, 541116, Note_off_c, 0, 66, 101
1, 541116, Note_on_c, 0, 69, 105
1, 541423, Note_off_c, 0, 69, 105
1, 541423, Note_on_c, 0, 65, 112
1, 541714, Note_off_c, 0, 65, 112
1, 541806, Note_on_c, 0, 60, 104
1, 542051, Note_off_c, 0, 60, 104
1, 542097, Note_on_c, 0, 57, 107
1, 542465, Note_off_c, 0, 57, 107
1, 542587, Note_on_c, 0, 51, 110
1, 542909, Note_off_c, 0, 51, 110
1, 542924, Note_on_c, 0, 54, 105
1, 543200, Note_off_c, 0, 54, 105
1, 543215, Note_on_c, 0, 51, 115
1, 543629, Note_off_c, 0, 51, 115
1, 543721, Note_on_c, 0, 49, 117
1, 544028, Note_off_c, 0, 49, 117
1, 544135, Note_on_c, 0, 58, 104
1, 544426, Note_off_c, 0, 58, 104
1, 544487, Note_on_c, 0, 56, 103
1, 544732, Note_off_c, 0, 56, 103
1, 544732, Note_on_c, 0, 52, 105
1, 545023, Note_off_c, 0, 52, 105
1, 545130, Note_on_c, 0, 57, 102
1, 545514, Note_off_c, 0, 57, 102
1, 545775, Note_on_c, 0, 55, 105
1, 546051, Note_off_c, 0, 55, 105
1, 546158, Note_on_c, 0, 59, 97
1, 546465, Note_off_c, 0, 59, 97
1, 546541, Note_on_c, 0, 62, 97
1, 546817, Note_off_c, 0, 62, 97
1, 546924, Note_on_c, 0, 68, 107
1, 547323, Note_off_c, 0, 68, 107
1, 547353, Note_on_c, 0, 64, 100
1, 547552, Note_off_c, 0, 64, 100
1, 547644, Note_on_c, 0, 62, 109
1, 547889, Note_off_c, 0, 62, 109
1, 548057, Note_on_c, 0, 59, 100
1, 548287, Note_off_c, 0, 59, 100
1, 548287, Note_on_c, 0, 64, 104
1, 548548, Note_off_c, 0, 64, 104
1, 548594, Note_on_c, 0, 60, 102
1, 548931, Note_off_c, 0, 60, 102
1, 548961, Note_on_c, 0, 63, 108
1, 549145, Note_off_c, 0, 63, 108
1, 549160, Note_on_c, 0, 67, 104
1, 549528, Note_off_c, 0, 67, 104
1, 549589, Note_on_c, 0, 65, 108
1, 549834, Note_off_c, 0, 65, 108
1, 549926, Note_on_c, 0, 62, 108
1, 550110, Note_off_c, 0, 62, 108
1, 550232, Note_on_c, 0, 58, 101
1, 550523, Note_off_c, 0, 58, 101
1, 550691, Note_on_c, 0, 56, 103
1, 550890, Note_off_c, 0, 56, 103
1, 550890, Note_on_c, 0, 63, 111
1, 551089, Note_off_c, 0, 63, 111
1, 551104, Note_on_c, 0, 62, 112
1, 551426, Note_off_c, 0, 62, 112
1, 551518, Note_on_c, 0, 60, 103
1, 552316, Note_off_c, 0, 60, 103
1, 554635, Note_on_c, 0, 60, 113
1, 555141, Note_off_c, 0, 60, 113
1, 555171, Note_on_c, 0, 62, 111
1, 555524, Note_off_c, 0, 62, 111
1, 555616, Note_on_c, 0, 63, 119
1, 556092, Note_off_c, 0, 63, 119
1, 556199, Note_on_c, 0, 65, 113
1, 556736, Note_off_c, 0, 65, 113
1, 556766, Note_on_c, 0, 62, 113
1, 557057, Note_off_c, 0, 62, 113
1, 557195, Note_on_c, 0, 60, 111
1, 557548, Note_off_c, 0, 60, 111
1, 557609, Note_on_c, 0, 59, 113
1, 557977, Note_off_c, 0, 59, 113
1, 558069, Note_on_c, 0, 55, 124
1, 558483, Note_off_c, 0, 55, 124
1, 558590, Note_on_c, 0, 58, 112
1, 558927, Note_off_c, 0, 58, 112
1, 558942, Note_on_c, 0, 55, 105
1, 559279, Note_off_c, 0, 55, 105
1, 559386, Note_on_c, 0, 57, 107
1, 559677, Note_off_c, 0, 57, 107
1, 559815, Note_on_c, 0, 62, 109
1, 560183, Note_off_c, 0, 62, 109
1, 560183, Note_on_c, 0, 65, 108
1, 560459, Note_off_c, 0, 65, 108
1, 560505, Note_on_c, 0, 63, 114
1, 560935, Note_off_c, 0, 63, 114
1, 560996, Note_on_c, 0, 62, 112
1, 561303, Note_off_c, 0, 62, 112
1, 561349, Note_on_c, 0, 60, 107
1, 561610, Note_off_c, 0, 60, 107
1, 561640, Note_on_c, 0, 58, 105
1, 561931, Note_off_c, 0, 58, 105
1, 561992, Note_on_c, 0, 57, 106
1, 562406, Note_off_c, 0, 57, 106
1, 562436, Note_on_c, 0, 55, 104
1, 562712, Note_off_c, 0, 55, 104
1, 562865, Note_on_c, 0, 52, 118
1, 563172, Note_off_c, 0, 52, 118
1, 563294, Note_on_c, 0, 50, 110
1, 563708, Note_off_c, 0, 50, 110
1, 563723, Note_on_c, 0, 48, 113
1, 563953, Note_off_c, 0, 48, 113
1, 563999, Note_on_c, 0, 46, 116
1, 564336, Note_off_c, 0, 46, 116
1, 564612, Note_on_c, 0, 46, 114
1, 564965, Note_off_c, 0, 46, 114
1, 564995, Note_on_c, 0, 45, 116
1, 565594, Note_off_c, 0, 45, 116
1, 565609, Note_on_c, 0, 44, 125
1, 567068, Note_off_c, 0, 44, 125
1, 580413, Note_on_c, 0, 56, 108
1, 581255, Note_off_c, 0, 56, 108
1, 581319, Note_on_c, 0, 53, 106
1, 582744, Note_off_c, 0, 53, 106
1, 583888, Note_on_c, 0, 57, 100
1, 586285, Note_off_c, 0, 57, 100
1, 588639, Note_on_c, 0, 58, 96
1, 590950, Note_off_c, 0, 58, 96
1, 593844, Note_on_c, 0, 60, 106
1, 596306, Note_off_c, 0, 60, 106
1, 600885, Note_on_c, 0, 61, 117
1, 601792, Note_off_c, 0, 61, 117
1, 604664, Note_on_c, 0, 61, 111
1, 605808, Note_off_c, 0, 61, 111
1, 606715, Note_on_c, 0, 62, 109
1, 608075, Note_off_c, 0, 62, 109
1, 609803, Note_on_c, 0, 61, 101
1, 610947, Note_off_c, 0, 61, 101
1, 611854, Note_on_c, 0, 62, 106
1, 613279, Note_off_c, 0, 62, 106
1, 614899, Note_on_c, 0, 61, 100
1, 616173, Note_off_c, 0, 61, 100
1, 616345, Note_on_c, 0, 62, 96
1, 617252, Note_off_c, 0, 62, 96
1, 617619, Note_on_c, 0, 69, 107
1, 618785, Note_off_c, 0, 69, 107
1, 618936, Note_on_c, 0, 67, 102
1, 619627, Note_off_c, 0, 67, 102
1, 619843, Note_on_c, 0, 65, 105
1, 621290, Note_off_c, 0, 65, 105
1, 621570, Note_on_c, 0, 61, 109
1, 622282, Note_off_c, 0, 61, 109
1, 622411, Note_on_c, 0, 58, 97
1, 624160, Note_off_c, 0, 58, 97
1, 624311, Note_on_c, 0, 53, 90
1, 624721, Note_off_c, 0, 53, 90
1, 624721, Note_on_c, 0, 60, 98
1, 627075, Note_off_c, 0, 60, 98
1, 629991, Note_on_c, 0, 62, 106
1, 631762, Note_off_c, 0, 62, 106
1, 634354, Note_on_c, 0, 57, 10
1, 635239, Note_off_c, 0, 57, 10
1, 635260, Note_on_c, 0, 58, 100
1, 636880, Note_off_c, 0, 58, 100
1, 636988, Note_on_c, 0, 57, 110
1, 637916, Note_off_c, 0, 57, 110
1, 638002, Note_on_c, 0, 55, 100
1, 639276, Note_off_c, 0, 55, 100
1, 640226, Note_on_c, 0, 61, 104
1, 642926, Note_off_c, 0, 61, 104
1, 645669, Note_on_c, 0, 57, 109
1, 647051, Note_off_c, 0, 57, 109
1, 647115, Note_on_c, 0, 55, 103
1, 647741, Note_off_c, 0, 55, 103
1, 647913, Note_on_c, 0, 53, 108
1, 649295, Note_off_c, 0, 53, 108
1, 650547, Note_on_c, 0, 60, 111
1, 651843, Note_off_c, 0, 60, 111
1, 653225, Note_on_c, 0, 60, 108
1, 654585, Note_off_c, 0, 60, 108
1, 655859, Note_on_c, 0, 60, 108
1, 657133, Note_off_c, 0, 60, 108
1, 660718, Note_on_c, 0, 62, 109
1, 662597, Note_off_c, 0, 62, 109
1, 662834, Note_on_c, 0, 57, 95
1, 663525, Note_off_c, 0, 57, 95
1, 663589, Note_on_c, 0, 58, 95
1, 665079, Note_off_c, 0, 58, 95
1, 665143, Note_on_c, 0, 60, 113
1, 666136, Note_off_c, 0, 60, 113
1, 675942, Note_on_c, 0, 56, 104
1, 677605, Note_off_c, 0, 56, 104
1, 677734, Note_on_c, 0, 55, 102
1, 678295, Note_off_c, 0, 55, 102
1, 678403, Note_on_c, 0, 53, 103
1, 680001, Note_off_c, 0, 53, 103
1, 680994, Note_on_c, 0, 60, 113
1, 682398, Note_off_c, 0, 60, 113
1, 683585, Note_on_c, 0, 60, 113
1, 684816, Note_off_c, 0, 60, 113
1, 686198, Note_on_c, 0, 60, 99
1, 688357, Note_off_c, 0, 60, 99
1, 691316, Note_on_c, 0, 62, 114
1, 692871, Note_off_c, 0, 62, 114
1, 693108, Note_on_c, 0, 55, 98
1, 693885, Note_off_c, 0, 55, 98
1, 693928, Note_on_c, 0, 56, 99
1, 695720, Note_off_c, 0, 56, 99
1, 695957, Note_on_c, 0, 60, 116
1, 696691, Note_off_c, 0, 60, 116
1, 703948, Note_on_c, 0, 57, 113
1, 705632, Note_off_c, 0, 57, 113
1, 705761, Note_on_c, 0, 55, 103
1, 706473, Note_off_c, 0, 55, 103
1, 706537, Note_on_c, 0, 53, 100
1, 707768, Note_off_c, 0, 53, 100
1, 708999, Note_on_c, 0, 60, 114
1, 710230, Note_off_c, 0, 60, 114
1, 711612, Note_on_c, 0, 60, 113
1, 712886, Note_off_c, 0, 60, 113
1, 714160, Note_on_c, 0, 60, 102
1, 716795, Note_off_c, 0, 60, 102
1, 719387, Note_on_c, 0, 62, 112
1, 721093, Note_off_c, 0, 62, 112
1, 721330, Note_on_c, 0, 57, 108
1, 721978, Note_off_c, 0, 57, 108
1, 722085, Note_on_c, 0, 58, 103
1, 723532, Note_off_c, 0, 58, 103
1, 723985, Note_on_c, 0, 68, 106
1, 724935, Note_off_c, 0, 68, 106
1, 724962, Note_on_c, 0, 67, 108
1, 725437, Note_off_c, 0, 67, 108
1, 726479, Note_on_c, 0, 64, 112
1, 727559, Note_off_c, 0, 64, 112
1, 728995, Note_on_c, 0, 59, 100
1, 730096, Note_off_c, 0, 59, 100
1, 731532, Note_on_c, 0, 56, 102
1, 732590, Note_off_c, 0, 56, 102
1, 734296, Note_on_c, 0, 63, 122
1, 735570, Note_off_c, 0, 63, 122
1, 737330, Note_on_c, 0, 58, 103
1, 738669, Note_off_c, 0, 58, 103
1, 741477, Note_on_c, 0, 60, 116
1, 742449, Note_off_c, 0, 60, 116
1, 745365, Note_on_c, 0, 65, 117
1, 745905, Note_off_c, 0, 65, 117
1, 746077, Note_on_c, 0, 69, 116
1, 746919, Note_off_c, 0, 69, 116
1, 749640, Note_on_c, 0, 67, 112
1, 750396, Note_off_c, 0, 67, 112
1, 750471, Note_on_c, 0, 62, 107
1, 751486, Note_off_c, 0, 62, 107
1, 754347, Note_on_c, 0, 64, 113
1, 755254, Note_off_c, 0, 64, 113
1, 755340, Note_on_c, 0, 60, 111
1, 756009, Note_off_c, 0, 60, 111
1, 759249, Note_on_c, 0, 62, 110
1, 759961, Note_off_c, 0, 62, 110
1, 760220, Note_on_c, 0, 65, 113
1, 760760, Note_off_c, 0, 65, 113
1, 764172, Note_on_c, 0, 64, 112
1, 764971, Note_off_c, 0, 64, 112
1, 765122, Note_on_c, 0, 67, 111
1, 765791, Note_off_c, 0, 67, 111
1, 768534, Note_on_c, 0, 69, 112
1, 769678, Note_off_c, 0, 69, 112
1, 769837, Note_on_c, 0, 67, 101
1, 770374, Note_off_c, 0, 67, 101
1, 770450, Note_on_c, 0, 65, 113
1, 771801, Note_off_c, 0, 65, 113
1, 771939, Note_on_c, 0, 64, 102
1, 772384, Note_off_c, 0, 64, 102
1, 772537, Note_on_c, 0, 67, 113
1, 773765, Note_off_c, 0, 67, 113
1, 773933, Note_on_c, 0, 64, 103
1, 774301, Note_off_c, 0, 64, 103
1, 774469, Note_on_c, 0, 65, 111
1, 775621, Note_off_c, 0, 65, 111
1, 775713, Note_on_c, 0, 67, 108
1, 776127, Note_off_c, 0, 67, 108
1, 776157, Note_on_c, 0, 65, 115
1, 776571, Note_off_c, 0, 65, 115
1, 776632, Note_on_c, 0, 64, 111
1, 777507, Note_off_c, 0, 64, 111
1, 777645, Note_on_c, 0, 62, 111
1, 778505, Note_off_c, 0, 62, 111
1, 778597, Note_on_c, 0, 61, 97
1, 779718, Note_off_c, 0, 61, 97
1, 779779, Note_on_c, 0, 62, 102
1, 780270, Note_off_c, 0, 62, 102
1, 780316, Note_on_c, 0, 64, 110
1, 781114, Note_off_c, 0, 64, 110
1, 782219, Note_on_c, 0, 65, 117
1, 783094, Note_off_c, 0, 65, 117
1, 783155, Note_on_c, 0, 62, 107
1, 783677, Note_off_c, 0, 62, 107
1, 783723, Note_on_c, 0, 58, 104
1, 784629, Note_off_c, 0, 58, 104
1, 784844, Note_on_c, 0, 55, 100
1, 785519, Note_off_c, 0, 55, 100
1, 785734, Note_on_c, 0, 56, 96
1, 786041, Note_off_c, 0, 56, 96
1, 786148, Note_on_c, 0, 59, 98
1, 786885, Note_off_c, 0, 59, 98
1, 787990, Note_on_c, 0, 64, 109
1, 789019, Note_off_c, 0, 64, 109
1, 789234, Note_on_c, 0, 62, 104
1, 790201, Note_off_c, 0, 62, 104
1, 790293, Note_on_c, 0, 60, 104
1, 791844, Note_off_c, 0, 60, 104
1, 792166, Note_on_c, 0, 62, 93
1, 792596, Note_off_c, 0, 62, 93
1, 792734, Note_on_c, 0, 63, 121
1, 794316, Note_off_c, 0, 63, 121
1, 794838, Note_on_c, 0, 59, 92
1, 795421, Note_off_c, 0, 59, 92
1, 795467, Note_on_c, 0, 62, 114
1, 796787, Note_off_c, 0, 62, 114
1, 796909, Note_on_c, 0, 60, 105
1, 797569, Note_off_c, 0, 60, 105
1, 798106, Note_on_c, 0, 55, 101
1, 799165, Note_off_c, 0, 55, 101
1, 799303, Note_on_c, 0, 58, 107
1, 799902, Note_off_c, 0, 58, 107
1, 799978, Note_on_c, 0, 55, 96
1, 800607, Note_off_c, 0, 55, 96
1, 802511, Note_on_c, 0, 57, 113
1, 803125, Note_off_c, 0, 57, 113
1, 803401, Note_on_c, 0, 60, 98
1, 804061, Note_off_c, 0, 60, 98
1, 804245, Note_on_c, 0, 63, 119
1, 804859, Note_off_c, 0, 63, 119
1, 804859, Note_on_c, 0, 65, 103
1, 805504, Note_off_c, 0, 65, 103
1, 806471, Note_on_c, 0, 66, 112
1, 807223, Note_off_c, 0, 66, 112
1, 807345, Note_on_c, 0, 64, 108
1, 807959, Note_off_c, 0, 64, 108
1, 808051, Note_on_c, 0, 65, 117
1, 808726, Note_off_c, 0, 65, 117
1, 808848, Note_on_c, 0, 62, 113
1, 809400, Note_off_c, 0, 62, 113
1, 809507, Note_on_c, 0, 58, 101
1, 810029, Note_off_c, 0, 58, 101
1, 810059, Note_on_c, 0, 55, 96
1, 810565, Note_off_c, 0, 55, 96
1, 811738, Note_on_c, 0, 60, 111
1, 812407, Note_off_c, 0, 60, 111
1, 812461, Note_on_c, 0, 62, 107
1, 813011, Note_off_c, 0, 62, 107
1, 813129, Note_on_c, 0, 63, 114
1, 813831, Note_off_c, 0, 63, 114
1, 813928, Note_on_c, 0, 65, 113
1, 814705, Note_off_c, 0, 65, 113
1, 814748, Note_on_c, 0, 62, 112
1, 815352, Note_off_c, 0, 62, 112
1, 815481, Note_on_c, 0, 60, 107
1, 815848, Note_off_c, 0, 60, 107
1, 817440, Note_on_c, 0, 58, 110
1, 817992, Note_off_c, 0, 58, 110
1, 818038, Note_on_c, 0, 60, 100
1, 818637, Note_off_c, 0, 60, 100
1, 818775, Note_on_c, 0, 61, 109
1, 819404, Note_off_c, 0, 61, 109
1, 819511, Note_on_c, 0, 63, 104
1, 820079, Note_off_c, 0, 63, 104
1, 820263, Note_on_c, 0, 65, 114
1, 820984, Note_off_c, 0, 65, 114
1, 821045, Note_on_c, 0, 61, 103
1, 821597, Note_off_c, 0, 61, 103
1, 822825, Note_on_c, 0, 63, 117
1, 823577, Note_off_c, 0, 63, 117
1, 823607, Note_on_c, 0, 61, 110
1, 824144, Note_off_c, 0, 61, 110
1, 824236, Note_on_c, 0, 56, 100
1, 824865, Note_off_c, 0, 56, 100
1, 824957, Note_on_c, 0, 58, 99
1, 825448, Note_off_c, 0, 58, 99
1, 826323, Note_on_c, 0, 61, 112
1, 826799, Note_off_c, 0, 61, 112
1, 826952, Note_on_c, 0, 63, 107
1, 827597, Note_off_c, 0, 63, 107
1, 827658, Note_on_c, 0, 60, 108
1, 828210, Note_off_c, 0, 60, 108
1, 828340, Note_on_c, 0, 61, 101
1, 828728, Note_off_c, 0, 61, 101
1, 828803, Note_on_c, 0, 58, 108
1, 829353, Note_off_c, 0, 58, 108
1, 829461, Note_on_c, 0, 53, 103
1, 829914, Note_off_c, 0, 53, 103
1, 830594, Note_on_c, 0, 56, 108
1, 831306, Note_off_c, 0, 56, 108
1, 831467, Note_on_c, 0, 49, 112
1, 832007, Note_off_c, 0, 49, 112
1, 832061, Note_on_c, 0, 53, 108
1, 832601, Note_off_c, 0, 53, 108
1, 832816, Note_on_c, 0, 56, 106
1, 833464, Note_off_c, 0, 56, 106
1, 833572, Note_on_c, 0, 55, 105
1, 833917, Note_off_c, 0, 55, 105
1, 835580, Note_on_c, 0, 58, 104
1, 836357, Note_off_c, 0, 58, 104
1, 836497, Note_on_c, 0, 55, 101
1, 836972, Note_off_c, 0, 55, 101
1, 837058, Note_on_c, 0, 57, 108
1, 837651, Note_off_c, 0, 57, 108
1, 837813, Note_on_c, 0, 55, 98
1, 838309, Note_off_c, 0, 55, 98
1, 838395, Note_on_c, 0, 54, 99
1, 838913, Note_off_c, 0, 54, 99
1, 839010, Note_on_c, 0, 57, 99
1, 839571, Note_off_c, 0, 57, 99
1, 839646, Note_on_c, 0, 60, 115
1, 840304, Note_off_c, 0, 60, 115
1, 840379, Note_on_c, 0, 63, 120
1, 840854, Note_off_c, 0, 63, 120
1, 841869, Note_on_c, 0, 62, 124
1, 842279, Note_off_c, 0, 62, 124
1, 842387, Note_on_c, 0, 66, 107
1, 842883, Note_off_c, 0, 66, 107
1, 843439, Note_on_c, 0, 69, 114
1, 843961, Note_off_c, 0, 69, 114
1, 844129, Note_on_c, 0, 61, 113
1, 844388, Note_off_c, 0, 61, 113
1, 844520, Note_on_c, 0, 72, 116
1, 847837, Note_off_c, 0, 72, 116
1, 850371, Note_on_c, 0, 72, 117
1, 850847, Note_off_c, 0, 72, 117
1, 850893, Note_on_c, 0, 69, 114
1, 851169, Note_off_c, 0, 69, 114
1, 851169, Note_on_c, 0, 65, 113
1, 851430, Note_off_c, 0, 65, 113
1, 851552, Note_on_c, 0, 60, 110
1, 851859, Note_off_c, 0, 60, 110
1, 851896, Note_on_c, 0, 61, 111
1, 852306, Note_off_c, 0, 61, 111
1, 852503, Note_on_c, 0, 72, 118
1, 854822, Note_off_c, 0, 72, 118
1, 856430, Note_on_c, 0, 72, 108
1, 856787, Note_off_c, 0, 72, 108
1, 856787, Note_on_c, 0, 69, 114
1, 857048, Note_off_c, 0, 69, 114
1, 857063, Note_on_c, 0, 65, 110
1, 857385, Note_off_c, 0, 65, 110
1, 857461, Note_on_c, 0, 60, 106
1, 857691, Note_off_c, 0, 60, 106
1, 857752, Note_on_c, 0, 61, 108
1, 858013, Note_off_c, 0, 61, 108
1, 858135, Note_on_c, 0, 65, 107
1, 858488, Note_off_c, 0, 65, 107
1, 858718, Note_on_c, 0, 69, 105
1, 859209, Note_off_c, 0, 69, 105
1, 859347, Note_on_c, 0, 72, 107
1, 859761, Note_off_c, 0, 72, 107
1, 861527, Note_on_c, 0, 72, 107
1, 861788, Note_off_c, 0, 72, 107
1, 861895, Note_on_c, 0, 69, 119
1, 862156, Note_off_c, 0, 69, 119
1, 862324, Note_on_c, 0, 65, 107
1, 862677, Note_off_c, 0, 65, 107
1, 862907, Note_on_c, 0, 60, 115
1, 863214, Note_off_c, 0, 60, 115
1, 863275, Note_on_c, 0, 61, 114
1, 863612, Note_off_c, 0, 61, 114
1, 863688, Note_on_c, 0, 65, 110
1, 863979, Note_off_c, 0, 65, 110
1, 863979, Note_on_c, 0, 69, 116
1, 864270, Note_off_c, 0, 69, 116
1, 864331, Note_on_c, 0, 72, 116
1, 864853, Note_off_c, 0, 72, 116
1, 866957, Note_on_c, 0, 72, 113
1, 867417, Note_off_c, 0, 72, 113
1, 867478, Note_on_c, 0, 70, 106
1, 867954, Note_off_c, 0, 70, 106
1, 868107, Note_on_c, 0, 66, 110
1, 868368, Note_off_c, 0, 66, 110
1, 868414, Note_on_c, 0, 65, 115
1, 868721, Note_off_c, 0, 65, 115
1, 868736, Note_on_c, 0, 62, 115
1, 869181, Note_off_c, 0, 62, 115
1, 870640, Note_on_c, 0, 62, 119
1, 870885, Note_off_c, 0, 62, 119
1, 870946, Note_on_c, 0, 65, 112
1, 871237, Note_off_c, 0, 65, 112
1, 871252, Note_on_c, 0, 67, 109
1, 871559, Note_off_c, 0, 67, 109
1, 871712, Note_on_c, 0, 65, 113
1, 872080, Note_off_c, 0, 65, 113
1, 872233, Note_on_c, 0, 62, 110
1, 872570, Note_off_c, 0, 62, 110
1, 872662, Note_on_c, 0, 58, 111
1, 872969, Note_off_c, 0, 58, 111
1, 873015, Note_on_c, 0, 55, 107
1, 873352, Note_off_c, 0, 55, 107
1, 873367, Note_on_c, 0, 64, 112
1, 873935, Note_off_c, 0, 64, 112
1, 874472, Note_on_c, 0, 64, 112
1, 874902, Note_off_c, 0, 64, 112
1, 874917, Note_on_c, 0, 60, 113
1, 875162, Note_off_c, 0, 60, 113
1, 875208, Note_on_c, 0, 62, 109
1, 875883, Note_off_c, 0, 62, 109
1, 875950, Note_on_c, 0, 64, 109
1, 876155, Note_off_c, 0, 64, 109
1, 876220, Note_on_c, 0, 58, 117
1, 876511, Note_off_c, 0, 58, 117
1, 876526, Note_on_c, 0, 55, 118
1, 876780, Note_off_c, 0, 55, 118
1, 876780, Note_on_c, 0, 52, 116
1, 877117, Note_off_c, 0, 52, 116
1, 877154, Note_on_c, 0, 55, 123
1, 877461, Note_off_c, 0, 55, 123
1, 877534, Note_on_c, 0, 53, 123
1, 877856, Note_off_c, 0, 53, 123
1, 877951, Note_on_c, 0, 55, 111
1, 878135, Note_off_c, 0, 55, 111
1, 878266, Note_on_c, 0, 57, 105
1, 878634, Note_off_c, 0, 57, 105
1, 878664, Note_on_c, 0, 60, 107
1, 878986, Note_off_c, 0, 60, 107
1, 878998, Note_on_c, 0, 62, 110
1, 879320, Note_off_c, 0, 62, 110
1, 879580, Note_on_c, 0, 57, 119
1, 879871, Note_off_c, 0, 57, 119
1, 880000, Note_on_c, 0, 58, 110
1, 880399, Note_off_c, 0, 58, 110
1, 880525, Note_on_c, 0, 65, 111
1, 880893, Note_off_c, 0, 65, 111
1, 881061, Note_on_c, 0, 69, 104
1, 881521, Note_off_c, 0, 69, 104
1, 881705, Note_on_c, 0, 72, 102
1, 882841, Note_off_c, 0, 72, 102
1, 896419, Note_on_c, 0, 70, 114
1, 897678, Note_off_c, 0, 70, 114
1, 900385, Note_on_c, 0, 70, 112
1, 901270, Note_off_c, 0, 70, 112
1, 901453, Note_on_c, 0, 70, 96
1, 902209, Note_off_c, 0, 70, 96
1, 902284, Note_on_c, 0, 70, 108
1, 902845, Note_off_c, 0, 70, 108
1, 903061, Note_on_c, 0, 70, 113
1, 903698, Note_off_c, 0, 70, 113
1, 904233, Note_on_c, 0, 68, 110
1, 904924, Note_off_c, 0, 68, 110
1, 905523, Note_on_c, 0, 65, 92
1, 906045, Note_off_c, 0, 65, 92
1, 906521, Note_on_c, 0, 67, 99
1, 907826, Note_off_c, 0, 67, 99
1, 908087, Note_on_c, 0, 65, 106
1, 908639, Note_off_c, 0, 65, 106
1, 908823, Note_on_c, 0, 63, 101
1, 910681, Note_off_c, 0, 63, 101
1, 910865, Note_on_c, 0, 60, 96
1, 911295, Note_off_c, 0, 60, 96
1, 911540, Note_on_c, 0, 62, 104
1, 912738, Note_off_c, 0, 62, 104
1, 913997, Note_on_c, 0, 60, 104
1, 915118, Note_off_c, 0, 60, 104
1, 916531, Note_on_c, 0, 56, 95
1, 917790, Note_off_c, 0, 56, 95
1, 919172, Note_on_c, 0, 53, 98
1, 920354, Note_off_c, 0, 53, 98
1, 921598, Note_on_c, 0, 55, 88
1, 922688, Note_off_c, 0, 55, 88
1, 926266, Note_on_c, 0, 67, 101
1, 928032, Note_off_c, 0, 67, 101
1, 931952, Note_on_c, 0, 66, 112
1, 932416, Note_off_c, 0, 66, 112
1, 932516, Note_on_c, 0, 67, 106
1, 933222, Note_off_c, 0, 67, 106
1, 933390, Note_on_c, 0, 67, 111
1, 934204, Note_off_c, 0, 67, 111
1, 934368, Note_on_c, 0, 67, 104
1, 935296, Note_off_c, 0, 67, 104
1, 936783, Note_on_c, 0, 67, 94
1, 938580, Note_off_c, 0, 67, 94
1, 940822, Note_on_c, 0, 67, 106
1, 941574, Note_off_c, 0, 67, 106
1, 943401, Note_on_c, 0, 67, 112
1, 944245, Note_off_c, 0, 67, 112
1, 945934, Note_on_c, 0, 67, 75
1, 946195, Note_off_c, 0, 67, 75
1, 946594, Note_on_c, 0, 67, 111
1, 948053, Note_off_c, 0, 67, 111
1, 948099, Note_on_c, 0, 67, 98
1, 948913, Note_off_c, 0, 67, 98
1, 948974, Note_on_c, 0, 64, 108
1, 950049, Note_off_c, 0, 64, 108
1, 951922, Note_on_c, 0, 65, 10
1, 953273, Note_off_c, 0, 65, 10
1, 953365, Note_on_c, 0, 67, 103
1, 953718, Note_off_c, 0, 67, 103
1, 953825, Note_on_c, 0, 65, 109
1, 954316, Note_off_c, 0, 65, 109
1, 954546, Note_on_c, 0, 62, 104
1, 955667, Note_off_c, 0, 62, 104
1, 955820, Note_on_c, 0, 58, 94
1, 956756, Note_off_c, 0, 58, 94
1, 956771, Note_on_c, 0, 64, 105
1, 959105, Note_off_c, 0, 64, 105
1, 962069, Note_on_c, 0, 64, 112
1, 963328, Note_off_c, 0, 64, 112
1, 963450, Note_on_c, 0, 65, 113
1, 963803, Note_off_c, 0, 65, 113
1, 963895, Note_on_c, 0, 64, 109
1, 964202, Note_off_c, 0, 64, 109
1, 964278, Note_on_c, 0, 60, 109
1, 965814, Note_off_c, 0, 60, 109
1, 966090, Note_on_c, 0, 62, 121
1, 966750, Note_off_c, 0, 62, 121
1, 967011, Note_on_c, 0, 58, 100
1, 968239, Note_off_c, 0, 58, 100
1, 968623, Note_on_c, 0, 60, 115
1, 969329, Note_off_c, 0, 60, 115
1, 969728, Note_on_c, 0, 57, 108
1, 971079, Note_off_c, 0, 57, 108
1, 971463, Note_on_c, 0, 58, 114
1, 972507, Note_off_c, 0, 58, 114
1, 972569, Note_on_c, 0, 57, 105
1, 973908, Note_off_c, 0, 57, 105
1, 974718, Note_on_c, 0, 55, 100
1, 976945, Note_off_c, 0, 55, 100
1, 980016, Note_on_c, 0, 57, 116
1, 980983, Note_off_c, 0, 57, 116
1, 982058, Note_on_c, 0, 60, 94
1, 987234, Note_off_c, 0, 60, 94
1, 987286, Note_on_c, 0, 62, 114
1, 988376, Note_off_c, 0, 62, 114
1, 1002868, Note_on_c, 0, 65, 99
1, 1003298, Note_off_c, 0, 65, 99
1, 1003466, Note_on_c, 0, 69, 117
1, 1004387, Note_off_c, 0, 69, 117
1, 1005231, Note_on_c, 0, 68, 109
1, 1007412, Note_off_c, 0, 68, 109
1, 1008287, Note_on_c, 0, 69, 111
1, 1009469, Note_off_c, 0, 69, 111
1, 1009576, Note_on_c, 0, 68, 106
1, 1010697, Note_off_c, 0, 68, 106
1, 1011173, Note_on_c, 0, 69, 110
1, 1012801, Note_off_c, 0, 69, 110
1, 1013446, Note_on_c, 0, 69, 105
1, 1014045, Note_off_c, 0, 69, 105
1, 1014229, Note_on_c, 0, 70, 84
1, 1014904, Note_off_c, 0, 70, 84
1, 1015026, Note_on_c, 0, 69, 111
1, 1015655, Note_off_c, 0, 69, 111
1, 1016591, Note_on_c, 0, 65, 111
1, 1017589, Note_off_c, 0, 65, 111
1, 1017619, Note_on_c, 0, 60, 103
1, 1018494, Note_off_c, 0, 60, 103
1, 1019123, Note_on_c, 0, 63, 114
1, 1020029, Note_off_c, 0, 63, 114
1, 1020121, Note_on_c, 0, 60, 96
1, 1021226, Note_off_c, 0, 60, 96
1, 1021809, Note_on_c, 0, 63, 115
1, 1022930, Note_off_c, 0, 63, 115
1, 1023498, Note_on_c, 0, 60, 90
1, 1026631, Note_off_c, 0, 60, 90
1, 1029180, Note_on_c, 0, 60, 102
1, 1029825, Note_off_c, 0, 60, 102
1, 1030040, Note_on_c, 0, 62, 118
1, 1030869, Note_off_c, 0, 62, 118
1, 1031145, Note_on_c, 0, 63, 121
1, 1032005, Note_off_c, 0, 63, 121
1, 1032250, Note_on_c, 0, 65, 118
1, 1033079, Note_off_c, 0, 65, 118
1, 1033171, Note_on_c, 0, 67, 109
1, 1034092, Note_off_c, 0, 67, 109
1, 1034460, Note_on_c, 0, 69, 113
1, 1035350, Note_off_c, 0, 69, 113
1, 1035872, Note_on_c, 0, 70, 112
1, 1036732, Note_off_c, 0, 70, 112
1, 1037115, Note_on_c, 0, 72, 112
1, 1038359, Note_off_c, 0, 72, 112
1, 1038481, Note_on_c, 0, 74, 105
1, 1039494, Note_off_c, 0, 74, 105
1, 1039616, Note_on_c, 0, 73, 114
1, 1040168, Note_off_c, 0, 73, 114
1, 1040168, Note_on_c, 0, 72, 115
1, 1040905, Note_off_c, 0, 72, 115
1, 1041304, Note_on_c, 0, 69, 102
1, 1042194, Note_off_c, 0, 69, 102
1, 1042409, Note_on_c, 0, 72, 114
1, 1043207, Note_off_c, 0, 72, 114
1, 1044159, Note_on_c, 0, 72, 111
1, 1044896, Note_off_c, 0, 72, 111
1, 1044928, Note_on_c, 0, 70, 105
1, 1045640, Note_off_c, 0, 70, 105
1, 1046031, Note_on_c, 0, 65, 108
1, 1046676, Note_off_c, 0, 65, 108
1, 1046914, Note_on_c, 0, 60, 100
1, 1047605, Note_off_c, 0, 60, 100
1, 1047929, Note_on_c, 0, 68, 104
1, 1048512, Note_off_c, 0, 68, 104
1, 1049052, Note_on_c, 0, 62, 96
1, 1050801, Note_off_c, 0, 62, 96
1, 1062633, Note_on_c, 0, 67, 118
1, 1063262, Note_off_c, 0, 67, 118
1, 1063369, Note_on_c, 0, 67, 124
1, 1064014, Note_off_c, 0, 67, 124
1, 1064106, Note_on_c, 0, 67, 115
1, 1065042, Note_off_c, 0, 67, 115
1, 1065118, Note_on_c, 0, 65, 121
1, 1065809, Note_off_c, 0, 65, 121
1, 1065931, Note_on_c, 0, 65, 116
1, 1066453, Note_off_c, 0, 65, 116
1, 1066591, Note_on_c, 0, 65, 120
1, 1067620, Note_off_c, 0, 65, 120
1, 1067773, Note_on_c, 0, 64, 117
1, 1068356, Note_off_c, 0, 64, 117
1, 1068417, Note_on_c, 0, 67, 106
1, 1068801, Note_off_c, 0, 67, 106
1, 1068877, Note_on_c, 0, 64, 116
1, 1069476, Note_off_c, 0, 64, 116
1, 1069583, Note_on_c, 0, 65, 119
1, 1070212, Note_off_c, 0, 65, 119
1, 1070273, Note_on_c, 0, 67, 109
1, 1070902, Note_off_c, 0, 67, 109
1, 1071040, Note_on_c, 0, 64, 109
1, 1071577, Note_off_c, 0, 64, 109
1, 1071699, Note_on_c, 0, 65, 121
1, 1072282, Note_off_c, 0, 65, 121
1, 1072312, Note_on_c, 0, 62, 115
1, 1072680, Note_off_c, 0, 62, 115
1, 1072802, Note_on_c, 0, 58, 109
1, 1073293, Note_off_c, 0, 58, 109
1, 1073323, Note_on_c, 0, 55, 94
1, 1073829, Note_off_c, 0, 55, 94
1, 1074259, Note_on_c, 0, 64, 112
1, 1075149, Note_off_c, 0, 64, 112
1, 1075406, Note_on_c, 0, 60, 120
1, 1075730, Note_off_c, 0, 60, 120
1, 1075773, Note_on_c, 0, 62, 112
1, 1076356, Note_off_c, 0, 62, 112
1, 1076420, Note_on_c, 0, 63, 125
1, 1077068, Note_off_c, 0, 63, 125
1, 1077262, Note_on_c, 0, 66, 104
1, 1077780, Note_off_c, 0, 66, 104
1, 1077974, Note_on_c, 0, 69, 119
1, 1078492, Note_off_c, 0, 69, 119
1, 1078816, Note_on_c, 0, 74, 111
1, 1079485, Note_off_c, 0, 74, 111
1, 1079528, Note_on_c, 0, 72, 108
1, 1079895, Note_off_c, 0, 72, 108
1, 1079938, Note_on_c, 0, 70, 107
1, 1081190, Note_off_c, 0, 70, 107
1, 1081643, Note_on_c, 0, 66, 95
1, 1081967, Note_off_c, 0, 66, 95
1, 1082031, Note_on_c, 0, 69, 119
1, 1082657, Note_off_c, 0, 69, 119
1, 1082765, Note_on_c, 0, 67, 110
1, 1083067, Note_off_c, 0, 67, 110
1, 1083153, Note_on_c, 0, 62, 109
1, 1083693, Note_off_c, 0, 62, 109
1, 1083801, Note_on_c, 0, 58, 121
1, 1084017, Note_off_c, 0, 58, 121
1, 1084643, Note_on_c, 0, 65, 113
1, 1085334, Note_off_c, 0, 65, 113
1, 1085420, Note_on_c, 0, 62, 106
1, 1085808, Note_off_c, 0, 62, 106
1, 1085876, Note_on_c, 0, 64, 119
1, 1086306, Note_off_c, 0, 64, 119
1, 1086367, Note_on_c, 0, 60, 112
1, 1086889, Note_off_c, 0, 60, 112
1, 1086973, Note_on_c, 0, 55, 100
1, 1087534, Note_off_c, 0, 55, 100
1, 1087836, Note_on_c, 0, 58, 111
1, 1088224, Note_off_c, 0, 58, 111
1, 1088375, Note_on_c, 0, 60, 113
1, 1088655, Note_off_c, 0, 60, 113
1, 1088741, Note_on_c, 0, 57, 109
1, 1089065, Note_off_c, 0, 57, 109
1, 1089453, Note_on_c, 0, 62, 107
1, 1089949, Note_off_c, 0, 62, 107
1, 1090078, Note_on_c, 0, 58, 106
1, 1090358, Note_off_c, 0, 58, 106
1, 1090358, Note_on_c, 0, 53, 113
1, 1090768, Note_off_c, 0, 53, 113
1, 1090854, Note_on_c, 0, 50, 109
1, 1091221, Note_off_c, 0, 50, 109
1, 1091285, Note_on_c, 0, 54, 116
1, 1091544, Note_off_c, 0, 54, 116
1, 1091608, Note_on_c, 0, 52, 114
1, 1092385, Note_off_c, 0, 52, 114
1, 1098905, Note_on_c, 0, 62, 114
1, 1099381, Note_off_c, 0, 62, 114
1, 1099473, Note_on_c, 0, 60, 120
1, 1099857, Note_off_c, 0, 60, 120
1, 1099918, Note_on_c, 0, 62, 119
1, 1100225, Note_off_c, 0, 62, 119
1, 1100301, Note_on_c, 0, 60, 114
1, 1100592, Note_off_c, 0, 60, 114
1, 1100668, Note_on_c, 0, 62, 117
1, 1100944, Note_off_c, 0, 62, 117
1, 1100974, Note_on_c, 0, 60, 112
1, 1101250, Note_off_c, 0, 60, 112
1, 1101326, Note_on_c, 0, 62, 117
1, 1101648, Note_off_c, 0, 62, 117
1, 1101740, Note_on_c, 0, 60, 117
1, 1102124, Note_off_c, 0, 60, 117
1, 1102231, Note_on_c, 0, 62, 119
1, 1103121, Note_off_c, 0, 62, 119
1, 1103151, Note_on_c, 0, 60, 114
1, 1103642, Note_off_c, 0, 60, 114
1, 1103703, Note_on_c, 0, 59, 113
1, 1104102, Note_off_c, 0, 59, 113
1, 1104117, Note_on_c, 0, 60, 112
1, 1104746, Note_off_c, 0, 60, 112
1, 1104792, Note_on_c, 0, 69, 115
1, 1105944, Note_off_c, 0, 69, 115
1, 1109138, Note_on_c, 0, 60, 89
1, 1109291, Note_off_c, 0, 60, 89
1, 1109337, Note_on_c, 0, 62, 120
1, 1109767, Note_off_c, 0, 62, 120
1, 1109813, Note_on_c, 0, 60, 117
1, 1110197, Note_off_c, 0, 60, 117
1, 1110227, Note_on_c, 0, 62, 112
1, 1110595, Note_off_c, 0, 62, 112
1, 1110641, Note_on_c, 0, 60, 115
1, 1110932, Note_off_c, 0, 60, 115
1, 1111008, Note_on_c, 0, 62, 114
1, 1111422, Note_off_c, 0, 62, 114
1, 1111437, Note_on_c, 0, 60, 113
1, 1111652, Note_off_c, 0, 60, 113
1, 1111805, Note_on_c, 0, 62, 114
1, 1112772, Note_off_c, 0, 62, 114
1, 1112940, Note_on_c, 0, 60, 110
1, 1113462, Note_off_c, 0, 60, 110
1, 1113523, Note_on_c, 0, 59, 113
1, 1113922, Note_off_c, 0, 59, 113
1, 1113922, Note_on_c, 0, 60, 112
1, 1114444, Note_off_c, 0, 60, 112
1, 1114735, Note_on_c, 0, 67, 116
1, 1115948, Note_off_c, 0, 67, 116
1, 1119450, Note_on_c, 0, 58, 103
1, 1119757, Note_off_c, 0, 58, 103
1, 1119757, Note_on_c, 0, 60, 110
1, 1120018, Note_off_c, 0, 60, 110
1, 1120156, Note_on_c, 0, 58, 118
1, 1120371, Note_off_c, 0, 58, 118
1, 1120539, Note_on_c, 0, 60, 111
1, 1120738, Note_off_c, 0, 60, 111
1, 1120768, Note_on_c, 0, 58, 115
1, 1121075, Note_off_c, 0, 58, 115
1, 1121197, Note_on_c, 0, 60, 110
1, 1121365, Note_off_c, 0, 60, 110
1, 1121457, Note_on_c, 0, 58, 116
1, 1121748, Note_off_c, 0, 58, 116
1, 1121809, Note_on_c, 0, 60, 108
1, 1122054, Note_off_c, 0, 60, 108
1, 1122084, Note_on_c, 0, 58, 123
1, 1122375, Note_off_c, 0, 58, 123
1, 1122482, Note_on_c, 0, 60, 109
1, 1122773, Note_off_c, 0, 60, 109
1, 1122880, Note_on_c, 0, 58, 115
1, 1123294, Note_off_c, 0, 58, 115
1, 1123432, Note_on_c, 0, 56, 111
1, 1124230, Note_off_c, 0, 56, 111
1, 1124352, Note_on_c, 0, 57, 113
1, 1124951, Note_off_c, 0, 57, 113
1, 1125534, Note_on_c, 0, 65, 118
1, 1134442, Note_off_c, 0, 65, 118
1, 1134534, Note_on_c, 0, 63, 109
1, 1134994, Note_off_c, 0, 63, 109
1, 1135086, Note_on_c, 0, 65, 112
1, 1135976, Note_off_c, 0, 65, 112
1, 1136006, Note_on_c, 0, 69, 111
1, 1136528, Note_off_c, 0, 69, 111
1, 1136696, Note_on_c, 0, 57, 104
1, 1137202, Note_off_c, 0, 57, 104
1, 1142793, Note_on_c, 0, 58, 113
1, 1143484, Note_off_c, 0, 58, 113
1, 1143868, Note_on_c, 0, 56, 114
1, 1144559, Note_off_c, 0, 56, 114
1, 1144635, Note_on_c, 0, 57, 116
1, 1145356, Note_off_c, 0, 57, 116
1, 1145509, Note_on_c, 0, 60, 110
1, 1146215, Note_off_c, 0, 60, 110
1, 1146307, Note_on_c, 0, 63, 108
1, 1146890, Note_off_c, 0, 63, 108
1, 1146936, Note_on_c, 0, 65, 117
1, 1154800, Note_off_c, 0, 65, 117
1, 1154846, Note_on_c, 0, 63, 112
1, 1155306, Note_off_c, 0, 63, 112
1, 1155720, Note_on_c, 0, 69, 118
1, 1156610, Note_off_c, 0, 69, 118
1, 1156778, Note_on_c, 0, 63, 122
1, 1158006, Note_off_c, 0, 63, 122
1, 1166008, Note_on_c, 0, 58, 115
1, 1166776, Note_off_c, 0, 58, 115
1, 1166776, Note_on_c, 0, 53, 109
1, 1167298, Note_off_c, 0, 53, 109
1, 1167405, Note_on_c, 0, 55, 112
1, 1168050, Note_off_c, 0, 55, 112
1, 1168218, Note_on_c, 0, 56, 115
1, 1169062, Note_off_c, 0, 56, 115
1, 1169215, Note_on_c, 0, 60, 121
1, 1169814, Note_off_c, 0, 60, 121
1, 1169936, Note_on_c, 0, 64, 110
1, 1170504, Note_off_c, 0, 64, 110
1, 1170580, Note_on_c, 0, 66, 110
1, 1171048, Note_off_c, 0, 66, 110
1, 1171117, Note_on_c, 0, 67, 116
1, 1172960, Note_off_c, 0, 67, 116
1, 1173075, Note_on_c, 0, 67, 110
1, 1175286, Note_off_c, 0, 67, 110
1, 1175339, Note_on_c, 0, 64, 112
1, 1175723, Note_off_c, 0, 64, 112
1, 1175845, Note_on_c, 0, 67, 114
1, 1176566, Note_off_c, 0, 67, 114
1, 1176673, Note_on_c, 0, 64, 112
1, 1177133, Note_off_c, 0, 64, 112
1, 1177317, Note_on_c, 0, 60, 110
1, 1177931, Note_on_c, 0, 56, 110
1, 1177931, Note_off_c, 0, 60, 110
1, 1178468, Note_off_c, 0, 56, 110
1, 1178468, Note_on_c, 0, 62, 115
1, 1179189, Note_off_c, 0, 62, 115
1, 1179296, Note_on_c, 0, 58, 115
1, 1179741, Note_off_c, 0, 58, 115
1, 1179925, Note_on_c, 0, 54, 124
1, 1180309, Note_off_c, 0, 54, 124
1, 1180401, Note_on_c, 0, 50, 106
1, 1180877, Note_off_c, 0, 50, 106
1, 1180984, Note_on_c, 0, 52, 112
1, 1181813, Note_off_c, 0, 52, 112
1, 1181843, Note_on_c, 0, 55, 109
1, 1182319, Note_off_c, 0, 55, 109
1, 1182472, Note_on_c, 0, 48, 116
1, 1183178, Note_off_c, 0, 48, 116
1, 1191165, Note_on_c, 0, 60, 108
1, 1192869, Note_off_c, 0, 60, 108
1, 1192899, Note_on_c, 0, 58, 93
1, 1193144, Note_off_c, 0, 58, 93
1, 1193205, Note_on_c, 0, 62, 110
1, 1195447, Note_off_c, 0, 62, 110
1, 1195631, Note_on_c, 0, 58, 97
1, 1196015, Note_off_c, 0, 58, 97
1, 1196260, Note_on_c, 0, 63, 113
1, 1197488, Note_off_c, 0, 63, 113
1, 1198901, Note_on_c, 0, 62, 111
1, 1200114, Note_off_c, 0, 62, 111
1, 1201250, Note_on_c, 0, 66, 97
1, 1202494, Note_off_c, 0, 66, 97
1, 1203569, Note_on_c, 0, 69, 111
1, 1204951, Note_off_c, 0, 69, 111
1, 1206348, Note_on_c, 0, 70, 95
1, 1208989, Note_off_c, 0, 70, 95
1, 1213535, Note_on_c, 0, 69, 113
1, 1214118, Note_off_c, 0, 69, 113
1, 1214486, Note_on_c, 0, 70, 104
1, 1215545, Note_off_c, 0, 70, 104
1, 1215683, Note_on_c, 0, 69, 105
1, 1216497, Note_off_c, 0, 69, 105
1, 1216942, Note_on_c, 0, 69, 109
1, 1217295, Note_off_c, 0, 69, 109
1, 1217325, Note_on_c, 0, 70, 101
1, 1218016, Note_off_c, 0, 70, 101
1, 1218184, Note_on_c, 0, 69, 97
1, 1218890, Note_off_c, 0, 69, 97
1, 1219458, Note_on_c, 0, 69, 106
1, 1219657, Note_off_c, 0, 69, 106
1, 1219703, Note_on_c, 0, 70, 105
1, 1220563, Note_off_c, 0, 70, 105
1, 1220716, Note_on_c, 0, 69, 97
1, 1221576, Note_off_c, 0, 69, 97
1, 1221975, Note_on_c, 0, 69, 105
1, 1222159, Note_off_c, 0, 69, 105
1, 1222159, Note_on_c, 0, 70, 100
1, 1222988, Note_off_c, 0, 70, 100
1, 1223095, Note_on_c, 0, 69, 98
1, 1223985, Note_off_c, 0, 69, 98
1, 1224768, Note_on_c, 0, 69, 104
1, 1224967, Note_off_c, 0, 69, 104
1, 1224982, Note_on_c, 0, 70, 98
1, 1225949, Note_off_c, 0, 70, 98
1, 1226087, Note_on_c, 0, 69, 99
1, 1226870, Note_off_c, 0, 69, 99
1, 1227545, Note_on_c, 0, 69, 105
1, 1227744, Note_off_c, 0, 69, 105
1, 1227897, Note_on_c, 0, 70, 104
1, 1228511, Note_off_c, 0, 70, 104
1, 1228603, Note_on_c, 0, 69, 104
1, 1229202, Note_off_c, 0, 69, 104
1, 1229294, Note_on_c, 0, 65, 108
1, 1230031, Note_off_c, 0, 65, 108
1, 1230491, Note_on_c, 0, 60, 89
1, 1230997, Note_off_c, 0, 60, 89
1, 1231043, Note_on_c, 0, 63, 106
1, 1231258, Note_off_c, 0, 63, 106
1, 1231396, Note_on_c, 0, 64, 105
1, 1231995, Note_off_c, 0, 64, 105
1, 1232286, Note_on_c, 0, 65, 107
1, 1233253, Note_off_c, 0, 65, 107
1, 1233514, Note_on_c, 0, 65, 111
1, 1234251, Note_off_c, 0, 65, 111
1, 1234343, Note_on_c, 0, 64, 101
1, 1234819, Note_off_c, 0, 64, 101
1, 1235110, Note_on_c, 0, 65, 103
1, 1237997, Note_off_c, 0, 65, 103
1, 1238319, Note_on_c, 0, 63, 108
1, 1238994, Note_off_c, 0, 63, 108
1, 1239116, Note_on_c, 0, 65, 112
1, 1239853, Note_off_c, 0, 65, 112
1, 1239991, Note_on_c, 0, 62, 111
1, 1240774, Note_off_c, 0, 62, 111
1, 1241004, Note_on_c, 0, 65, 111
1, 1241741, Note_off_c, 0, 65, 111
1, 1241894, Note_on_c, 0, 61, 106
1, 1242508, Note_off_c, 0, 61, 106
1, 1242876, Note_on_c, 0, 65, 108
1, 1243628, Note_off_c, 0, 65, 108
1, 1243781, Note_on_c, 0, 60, 101
1, 1244395, Note_off_c, 0, 60, 101
1, 1244502, Note_on_c, 0, 58, 99
1, 1245024, Note_off_c, 0, 58, 99
1, 1245592, Note_on_c, 0, 53, 109
1, 1246237, Note_off_c, 0, 53, 109
1, 1246237, Note_on_c, 0, 48, 101
1, 1246836, Note_off_c, 0, 48, 101
1, 1247081, Note_on_c, 0, 56, 108
1, 1247418, Note_off_c, 0, 56, 108
1, 1247510, Note_on_c, 0, 57, 110
1, 1248093, Note_off_c, 0, 57, 110
1, 1248323, Note_on_c, 0, 53, 106
1, 1249213, Note_off_c, 0, 53, 106
1, 1249381, Note_on_c, 0, 48, 98
1, 1249903, Note_off_c, 0, 48, 98
1, 1250041, Note_on_c, 0, 51, 97
1, 1255278, Note_off_c, 0, 51, 97
1, 1255278, End_track
0, 0, End_of_file
