0, 0, Header, 1, 1, 20160
1, 0, Start_track
1, 0, Note_on_c, 0, 59, 90
1, 4722, Note_off_c, 0, 59, 90
1, 4985, Note_on_c, 0, 61, 106
1, 6915, Note_off_c, 0, 61, 106
1, 7629, Note_on_c, 0, 62, 98
1, 10011, Note_off_c, 0, 62, 98
1, 10159, Note_on_c, 0, 64, 102
1, 14787, Note_off_c, 0, 64, 102
1, 15083, Note_on_c, 0, 62, 97
1, 19797, Note_off_c, 0, 62, 97
1, 20019, Note_on_c, 0, 61, 95
1, 24647, Note_off_c, 0, 61, 95
1, 25375, Note_on_c, 0, 62, 92
1, 33434, Note_off_c, 0, 62, 92
1, 38385, Note_on_c, 0, 57, 93
1, 40631, Note_off_c, 0, 57, 93
1, 40806, Note_on_c, 0, 62, 94
1, 47897, Note_off_c, 0, 62, 94
1, 56648, Note_on_c, 0, 59, 102
1, 58857, Note_off_c, 0, 59, 102
1, 59264, Note_on_c, 0, 62, 108
1, 61436, Note_off_c, 0, 62, 108
1, 63768, Note_on_c, 0, 59, 100
1, 66014, Note_off_c, 0, 59, 100
1, 66211, Note_on_c, 0, 62, 99
1, 71839, Note_off_c, 0, 62, 99
1, 76030, Title_t, "Melody"
1, 76030, Tempo, 1666666
1, 76030, Key_signature, 2, "major"
1, 76030, Time_signature, 4, 2, 24, 8
1, 78253, Note_on_c, 0, 59, 103
1, 80061, Note_off_c, 0, 59, 103
1, 80649, Note_on_c, 0, 62, 111
1, 82588, Note_off_c, 0, 62, 111
1, 82860, Note_on_c, 0, 59, 100
1, 84703, Note_off_c, 0, 59, 100
1, 85247, Note_on_c, 0, 62, 111
1, 87344, Note_off_c, 0, 62, 111
1, 87545, Note_on_c, 0, 59, 100
1, 89748, Note_off_c, 0, 59, 100
1, 89949, Note_on_c, 0, 55, 106
1, 92283, Note_off_c, 0, 55, 106
1, 92423, Note_on_c, 0, 62, 110
1, 94222, Note_off_c, 0, 62, 110
1, 95915, Note_on_c, 0, 55, 101
1, 98398, Note_off_c, 0, 55, 101
1, 98582, Note_on_c, 0, 62, 101
1, 103374, Note_off_c, 0, 62, 101
1, 107885, Note_on_c, 0, 55, 102
1, 110026, Note_off_c, 0, 55, 102
1, 110728, Note_on_c, 0, 62, 108
1, 112623, Note_off_c, 0, 62, 108
1, 113395, Note_on_c, 0, 55, 85
1, 115045, Note_off_c, 0, 55, 85
1, 116076, Note_on_c, 0, 62, 113
1, 118001, Note_off_c, 0, 62, 113
1, 118383, Note_on_c, 0, 55, 106
1, 120407, Note_off_c, 0, 55, 106
1, 121274, Note_on_c, 0, 50, 94
1, 122801, Note_off_c, 0, 50, 94
1, 123204, Note_on_c, 0, 53, 105
1, 125240, Note_off_c, 0, 53, 105
1, 125468, Note_on_c, 0, 50, 90
1, 126872, Note_off_c, 0, 50, 90
1, 127152, Note_on_c, 0, 58, 100
1, 128793, Note_off_c, 0, 58, 100
1, 129061, Note_on_c, 0, 53, 90
1, 130557, Note_off_c, 0, 53, 90
1, 130750, Note_on_c, 0, 62, 110
1, 132095, Note_off_c, 0, 62, 110
1, 132626, Note_on_c, 0, 58, 99
1, 134086, Note_off_c, 0, 58, 99
1, 134218, Note_on_c, 0, 65, 110
1, 135967, Note_off_c, 0, 65, 110
1, 136198, Note_on_c, 0, 62, 111
1, 137736, Note_off_c, 0, 62, 111
1, 138987, Note_on_c, 0, 70, 109
1, 140891, Note_off_c, 0, 70, 109
1, 140969, Note_on_c, 0, 65, 112
1, 142531, Note_off_c, 0, 65, 112
1, 144061, Note_on_c, 0, 72, 101
1, 144549, Note_off_c, 0, 72, 101
1, 144603, Note_on_c, 0, 74, 118
1, 146515, Note_off_c, 0, 74, 118
1, 147663, Note_on_c, 0, 70, 106
1, 149787, Note_off_c, 0, 70, 106
1, 150085, Note_on_c, 0, 65, 97
1, 152051, Note_off_c, 0, 65, 97
1, 152366, Note_on_c, 0, 69, 114
1, 154858, Note_off_c, 0, 69, 114
1, 203532, Note_on_c, 0, 45, 105
1, 206247, Note_off_c, 0, 45, 105
1, 220774, Note_on_c, 0, 71, 120
1, 222650, Note_off_c, 0, 71, 120
1, 223180, Note_on_c, 0, 69, 105
1, 224587, Note_off_c, 0, 69, 105
1, 224944, Note_on_c, 0, 64, 92
1, 226585, Note_off_c, 0, 64, 92
1, 226782, Note_on_c, 0, 67, 113
1, 228730, Note_off_c, 0, 67, 113
1, 228808, Note_on_c, 0, 66, 105
1, 230835, Note_off_c, 0, 66, 105
1, 231168, Note_on_c, 0, 62, 107
1, 232484, Note_off_c, 0, 62, 107
1, 232843, Note_on_c, 0, 57, 96
1, 234931, Note_off_c, 0, 57, 96
1, 235220, Note_on_c, 0, 54, 98
1, 236448, Note_off_c, 0, 54, 98
1, 236684, Note_on_c, 0, 60, 117
1, 239167, Note_off_c, 0, 60, 117
1, 239386, Note_on_c, 0, 62, 119
1, 240535, Note_off_c, 0, 62, 119
1, 240657, Note_on_c, 0, 64, 116
1, 243263, Note_off_c, 0, 64, 116
1, 243546, Note_on_c, 0, 60, 98
1, 244849, Note_off_c, 0, 60, 98
1, 245074, Note_on_c, 0, 57, 100
1, 247505, Note_off_c, 0, 57, 100
1, 247677, Note_on_c, 0, 52, 86
1, 248750, Note_off_c, 0, 52, 86
1, 248959, Note_on_c, 0, 55, 103
1, 251489, Note_off_c, 0, 55, 103
1, 251778, Note_on_c, 0, 52, 92
1, 253111, Note_off_c, 0, 52, 92
1, 253509, Note_on_c, 0, 54, 100
1, 255422, Note_off_c, 0, 54, 100
1, 255790, Note_on_c, 0, 62, 99
1, 261249, Note_off_c, 0, 62, 99
1, 271700, Note_on_c, 0, 65, 112
1, 272261, Note_off_c, 0, 65, 112
1, 272327, Note_on_c, 0, 62, 115
1, 273274, Note_off_c, 0, 62, 115
1, 273394, Note_on_c, 0, 63, 116
1, 274087, Note_off_c, 0, 63, 116
1, 274473, Note_on_c, 0, 63, 116
1, 275160, Note_off_c, 0, 63, 116
1, 275220, Note_on_c, 0, 62, 120
1, 276028, Note_off_c, 0, 62, 120
1, 276549, Note_on_c, 0, 58, 105
1, 277413, Note_off_c, 0, 58, 105
1, 277598, Note_on_c, 0, 54, 103
1, 278782, Note_off_c, 0, 54, 103
1, 279387, Note_on_c, 0, 60, 103
1, 280111, Note_off_c, 0, 60, 103
1, 280267, Note_on_c, 0, 58, 107
1, 281135, Note_off_c, 0, 58, 107
1, 281237, Note_on_c, 0, 54, 103
1, 282075, Note_off_c, 0, 54, 103
1, 282207, Note_on_c, 0, 50, 92
1, 282719, Note_off_c, 0, 50, 92
1, 282803, Note_on_c, 0, 58, 101
1, 283852, Note_off_c, 0, 58, 101
1, 283960, Note_on_c, 0, 54, 101
1, 284732, Note_off_c, 0, 54, 101
1, 284949, Note_on_c, 0, 50, 102
1, 285902, Note_off_c, 0, 50, 102
1, 286046, Note_on_c, 0, 51, 106
1, 287023, Note_off_c, 0, 51, 106
1, 310171, Note_on_c, 0, 60, 93
1, 311516, Note_off_c, 0, 60, 93
1, 312639, Note_on_c, 0, 54, 108
1, 315144, Note_off_c, 0, 54, 108
1, 321661, Note_on_c, 0, 57, 101
1, 324610, Note_off_c, 0, 57, 101
1, 330164, Note_on_c, 0, 59, 98
1, 335607, Note_off_c, 0, 59, 98
1, 335829, Note_on_c, 0, 58, 95
1, 336680, Note_off_c, 0, 58, 95
1, 337395, Note_on_c, 0, 54, 87
1, 338234, Note_off_c, 0, 54, 87
1, 338604, Note_on_c, 0, 61, 111
1, 339912, Note_off_c, 0, 61, 111
1, 340109, Note_on_c, 0, 62, 97
1, 343367, Note_off_c, 0, 62, 97
1, 344490, Note_on_c, 0, 57, 95
1, 346872, Note_off_c, 0, 57, 95
1, 347563, Note_on_c, 0, 59, 96
1, 352981, Note_off_c, 0, 59, 96
1, 353301, Note_on_c, 0, 57, 100
1, 355337, Note_off_c, 0, 57, 100
1, 356238, Note_on_c, 0, 58, 97
1, 359224, Note_off_c, 0, 58, 97
1, 365333, Note_on_c, 0, 58, 91
1, 368776, Note_off_c, 0, 58, 91
1, 374638, Note_on_c, 0, 58, 95
1, 377841, Note_off_c, 0, 58, 95
1, 383562, Note_on_c, 0, 58, 97
1, 386018, Note_off_c, 0, 58, 97
1, 392769, Note_on_c, 0, 58, 97
1, 398767, Note_off_c, 0, 58, 97
1, 399087, Note_on_c, 0, 60, 106
1, 401407, Note_off_c, 0, 60, 106
1, 401592, Note_on_c, 0, 62, 99
1, 407565, Note_off_c, 0, 62, 99
1, 407799, Note_on_c, 0, 58, 102
1, 410563, Note_off_c, 0, 58, 102
1, 410758, Note_on_c, 0, 55, 94
1, 426286, Note_off_c, 0, 55, 94
1, 426286, Note_on_c, 0, 56, 88
1, 437011, Note_off_c, 0, 56, 88
1, 438457, Note_on_c, 0, 56, 90
1, 441388, Note_off_c, 0, 56, 90
1, 447584, Note_on_c, 0, 55, 107
1, 448400, Note_off_c, 0, 55, 107
1, 448531, Note_on_c, 0, 56, 91
1, 451129, Note_off_c, 0, 56, 91
1, 456165, Note_on_c, 0, 56, 89
1, 459695, Note_off_c, 0, 56, 89
1, 465804, Note_on_c, 0, 56, 91
1, 471247, Note_off_c, 0, 56, 91
1, 472245, Note_on_c, 0, 58, 104
1, 474895, Note_off_c, 0, 58, 104
1, 475257, Note_on_c, 0, 60, 109
1, 480885, Note_off_c, 0, 60, 109
1, 481107, Note_on_c, 0, 58, 101
1, 484291, Note_off_c, 0, 58, 101
1, 484587, Note_on_c, 0, 54, 90
1, 499571, Note_off_c, 0, 54, 90
1, 500558, Note_on_c, 0, 55, 105
1, 503125, Note_off_c, 0, 55, 105
1, 509615, Note_on_c, 0, 55, 108
1, 512335, Note_off_c, 0, 55, 108
1, 518356, Note_on_c, 0, 52, 84
1, 520638, Note_off_c, 0, 52, 84
1, 521357, Note_on_c, 0, 55, 105
1, 524341, Note_off_c, 0, 55, 105
1, 530485, Note_on_c, 0, 55, 104
1, 533293, Note_off_c, 0, 55, 104
1, 540121, Note_on_c, 0, 55, 104
1, 542999, Note_off_c, 0, 55, 104
1, 543244, Note_on_c, 0, 57, 103
1, 544911, Note_off_c, 0, 57, 103
1, 548799, Note_on_c, 0, 58, 100
1, 551677, Note_off_c, 0, 58, 100
1, 551940, Note_on_c, 0, 61, 102
1, 553388, Note_off_c, 0, 61, 102
1, 557838, Note_on_c, 0, 64, 117
1, 560497, Note_off_c, 0, 64, 117
1, 561120, Note_on_c, 0, 67, 110
1, 562410, Note_off_c, 0, 67, 110
1, 567307, Note_on_c, 0, 69, 110
1, 570194, Note_off_c, 0, 69, 110
1, 570545, Note_on_c, 0, 70, 111
1, 571800, Note_off_c, 0, 70, 111
1, 594971, Note_on_c, 0, 69, 114
1, 604625, Note_off_c, 0, 69, 114
1, 619967, Note_on_c, 0, 69, 121
1, 622793, Note_off_c, 0, 69, 121
1, 623354, Note_on_c, 0, 68, 109
1, 625899, Note_off_c, 0, 68, 109
1, 627513, Note_on_c, 0, 69, 121
1, 629759, Note_off_c, 0, 69, 121
1, 632532, Note_on_c, 0, 69, 120
1, 634550, Note_off_c, 0, 69, 120
1, 634585, Note_on_c, 0, 71, 121
1, 636305, Note_off_c, 0, 71, 121
1, 644941, Note_on_c, 0, 66, 112
1, 650979, Note_off_c, 0, 66, 112
1, 651277, Note_on_c, 0, 67, 119
1, 652224, Note_off_c, 0, 67, 119
1, 652329, Note_on_c, 0, 69, 107
1, 659104, Note_off_c, 0, 69, 107
1, 659472, Note_on_c, 0, 68, 98
1, 665352, Note_off_c, 0, 68, 98
1, 665633, Note_on_c, 0, 67, 83
1, 685110, Note_off_c, 0, 67, 83
1, 697668, Note_on_c, 0, 70, 119
1, 699897, Note_off_c, 0, 70, 119
1, 700528, Note_on_c, 0, 67, 118
1, 702020, Note_off_c, 0, 67, 118
1, 702160, Note_on_c, 0, 63, 118
1, 704529, Note_off_c, 0, 63, 118
1, 704862, Note_on_c, 0, 58, 108
1, 706582, Note_off_c, 0, 58, 108
1, 706739, Note_on_c, 0, 65, 113
1, 708880, Note_off_c, 0, 65, 113
1, 709740, Note_on_c, 0, 63, 121
1, 710793, Note_off_c, 0, 63, 121
1, 711021, Note_on_c, 0, 58, 108
1, 713215, Note_off_c, 0, 58, 108
1, 714566, Note_on_c, 0, 51, 79
1, 716216, Note_off_c, 0, 51, 79
1, 716514, Note_on_c, 0, 53, 105
1, 722658, Note_off_c, 0, 53, 105
1, 722991, Note_on_c, 0, 51, 97
1, 725659, Note_off_c, 0, 51, 97
1, 726448, Note_on_c, 0, 52, 102
1, 728817, Note_off_c, 0, 52, 102
1, 729290, Note_on_c, 0, 57, 102
1, 731747, Note_off_c, 0, 57, 102
1, 732062, Note_on_c, 0, 54, 83
1, 744402, Note_off_c, 0, 54, 83
1, 751512, Note_on_c, 0, 57, 103
1, 754474, Note_off_c, 0, 57, 103
1, 754782, Note_on_c, 0, 62, 123
1, 757361, Note_off_c, 0, 62, 123
1, 758138, Note_on_c, 0, 57, 100
1, 760433, Note_off_c, 0, 57, 100
1, 760852, Note_on_c, 0, 64, 119
1, 762789, Note_off_c, 0, 64, 119
1, 762916, Note_on_c, 0, 69, 113
1, 764899, Note_off_c, 0, 69, 113
1, 765092, Note_on_c, 0, 66, 103
1, 769138, Note_off_c, 0, 66, 103
1, 769243, Note_on_c, 0, 64, 101
1, 770700, Note_off_c, 0, 64, 101
1, 771463, Note_on_c, 0, 69, 113
1, 773437, Note_off_c, 0, 69, 113
1, 773779, Note_on_c, 0, 66, 106
1, 778308, Note_off_c, 0, 66, 106
1, 778536, Note_on_c, 0, 64, 114
1, 780695, Note_off_c, 0, 64, 114
1, 781221, Note_on_c, 0, 69, 113
1, 782888, Note_off_c, 0, 69, 113
1, 784081, Note_on_c, 0, 66, 116
1, 785204, Note_off_c, 0, 66, 116
1, 785332, Note_on_c, 0, 67, 106
1, 790009, Note_off_c, 0, 67, 106
1, 790218, Note_on_c, 0, 64, 111
1, 791193, Note_off_c, 0, 64, 111
1, 791402, Note_on_c, 0, 60, 111
1, 792772, Note_off_c, 0, 60, 111
1, 793068, Note_on_c, 0, 57, 102
1, 795425, Note_off_c, 0, 57, 102
1, 795634, Note_on_c, 0, 60, 110
1, 797831, Note_off_c, 0, 60, 110
1, 798164, Note_on_c, 0, 64, 109
1, 800718, Note_off_c, 0, 64, 109
1, 800841, Note_on_c, 0, 67, 111
1, 802285, Note_off_c, 0, 67, 111
1, 802531, Note_on_c, 0, 71, 120
1, 805369, Note_off_c, 0, 71, 120
1, 806060, Note_on_c, 0, 69, 109
1, 807195, Note_off_c, 0, 69, 109
1, 812983, Note_on_c, 0, 66, 114
1, 815241, Note_off_c, 0, 66, 114
1, 815302, Note_on_c, 0, 67, 107
1, 817190, Note_off_c, 0, 67, 107
1, 817825, Note_on_c, 0, 64, 117
1, 820598, Note_off_c, 0, 64, 117
1, 820984, Note_on_c, 0, 60, 111
1, 822511, Note_off_c, 0, 60, 111
1, 822862, Note_on_c, 0, 57, 98
1, 825337, Note_off_c, 0, 57, 98
1, 826161, Note_on_c, 0, 60, 111
1, 827605, Note_off_c, 0, 60, 111
1, 827827, Note_on_c, 0, 64, 107
1, 830172, Note_off_c, 0, 64, 107
1, 830826, Note_on_c, 0, 67, 103
1, 831554, Note_off_c, 0, 67, 103
1, 832655, Note_on_c, 0, 71, 116
1, 835533, Note_off_c, 0, 71, 116
1, 835901, Note_on_c, 0, 72, 115
1, 837200, Note_off_c, 0, 72, 115
1, 837515, Note_on_c, 0, 69, 94
1, 839779, Note_off_c, 0, 69, 94
1, 846432, Note_on_c, 0, 68, 118
1, 847924, Note_off_c, 0, 68, 118
1, 848011, Note_on_c, 0, 71, 114
1, 849529, Note_off_c, 0, 71, 114
1, 849660, Note_on_c, 0, 69, 114
1, 850923, Note_off_c, 0, 69, 114
1, 851089, Note_on_c, 0, 64, 103
1, 852256, Note_off_c, 0, 64, 103
1, 852536, Note_on_c, 0, 67, 111
1, 855713, Note_off_c, 0, 67, 111
1, 856143, Note_on_c, 0, 64, 84
1, 856827, Note_off_c, 0, 64, 84
1, 857204, Note_on_c, 0, 66, 112
1, 858274, Note_off_c, 0, 66, 112
1, 858348, Note_on_c, 0, 67, 104
1, 858821, Note_off_c, 0, 67, 104
1, 858885, Note_on_c, 0, 66, 107
1, 860152, Note_off_c, 0, 66, 107
1, 860242, Note_on_c, 0, 64, 110
1, 861901, Note_off_c, 0, 64, 110
1, 862069, Note_on_c, 0, 62, 109
1, 864609, Note_off_c, 0, 62, 109
1, 864870, Note_on_c, 0, 61, 110
1, 866765, Note_off_c, 0, 61, 110
1, 866887, Note_on_c, 0, 60, 102
1, 869011, Note_off_c, 0, 60, 102
1, 869221, Note_on_c, 0, 59, 97
1, 871204, Note_off_c, 0, 59, 97
1, 871625, Note_on_c, 0, 57, 98
1, 873468, Note_off_c, 0, 57, 98
1, 873977, Note_on_c, 0, 55, 97
1, 875872, Note_off_c, 0, 55, 97
1, 876152, Note_on_c, 0, 54, 85
1, 878451, Note_off_c, 0, 54, 85
1, 878889, Note_on_c, 0, 57, 105
1, 880117, Note_off_c, 0, 57, 105
1, 881618, Note_on_c, 0, 60, 96
1, 883321, Note_off_c, 0, 60, 96
1, 883536, Note_on_c, 0, 62, 106
1, 884302, Note_off_c, 0, 62, 106
1, 884380, Note_on_c, 0, 63, 106
1, 885236, Note_off_c, 0, 63, 106
1, 885405, Note_on_c, 0, 60, 88
1, 887935, Note_off_c, 0, 60, 88
1, 888181, Note_on_c, 0, 61, 93
1, 889316, Note_off_c, 0, 61, 93
1, 889513, Note_on_c, 0, 62, 111
1, 891203, Note_off_c, 0, 62, 111
1, 894066, Note_on_c, 0, 50, 89
1, 896365, Note_off_c, 0, 50, 89
1, 899191, Note_on_c, 0, 54, 96
1, 901139, Note_off_c, 0, 54, 96
1, 904211, Note_on_c, 0, 57, 99
1, 905983, Note_off_c, 0, 57, 99
1, 909230, Note_on_c, 0, 62, 108
1, 911617, Note_off_c, 0, 62, 108
1, 913758, Note_on_c, 0, 64, 111
1, 916970, Note_off_c, 0, 64, 111
1, 917584, Note_on_c, 0, 58, 93
1, 918373, Note_off_c, 0, 58, 93
1, 918930, Note_on_c, 0, 66, 101
1, 921620, Note_off_c, 0, 66, 101
1, 921879, Note_on_c, 0, 64, 103
1, 923434, Note_off_c, 0, 64, 103
1, 923791, Note_on_c, 0, 62, 88
1, 925481, Note_off_c, 0, 62, 88
1, 926554, Note_on_c, 0, 59, 99
1, 927985, Note_off_c, 0, 59, 99
1, 931449, Note_on_c, 0, 59, 104
1, 932505, Note_off_c, 0, 59, 104
1, 936600, Note_on_c, 0, 59, 96
1, 937513, Note_off_c, 0, 59, 96
1, 940870, Note_on_c, 0, 59, 104
1, 941598, Note_off_c, 0, 59, 104
1, 945918, Note_on_c, 0, 58, 99
1, 946670, Note_off_c, 0, 58, 99
1, 950372, Note_on_c, 0, 59, 103
1, 951359, Note_off_c, 0, 59, 103
1, 955432, Note_on_c, 0, 57, 107
1, 956407, Note_off_c, 0, 57, 107
1, 957431, Note_on_c, 0, 58, 106
1, 958455, Note_off_c, 0, 58, 106
1, 971859, Note_on_c, 0, 83, 119
1, 974093, Note_off_c, 0, 83, 119
1, 995791, Note_on_c, 0, 58, 105
1, 997913, Note_off_c, 0, 58, 105
1, 1000850, Note_on_c, 0, 81, 124
1, 1002874, Note_off_c, 0, 81, 124
1, 1005614, Note_on_c, 0, 58, 108
1, 1007909, Note_off_c, 0, 58, 108
1, 1010525, Note_on_c, 0, 81, 125
1, 1012944, Note_off_c, 0, 81, 125
1, 1015708, Note_on_c, 0, 58, 105
1, 1018250, Note_off_c, 0, 58, 105
1, 1020891, Note_on_c, 0, 81, 121
1, 1023112, Note_off_c, 0, 81, 121
1, 1024124, Note_on_c, 0, 58, 103
1, 1026049, Note_off_c, 0, 58, 103
1, 1028542, Note_on_c, 0, 81, 118
1, 1030467, Note_off_c, 0, 81, 118
1, 1030936, Note_on_c, 0, 58, 105
1, 1032910, Note_off_c, 0, 58, 105
1, 1035600, Note_on_c, 0, 57, 104
1, 1037624, Note_off_c, 0, 57, 104
1, 1040808, Note_on_c, 0, 61, 109
1, 1043523, Note_off_c, 0, 61, 109
1, 1045497, Note_on_c, 0, 64, 89
1, 1054457, Note_off_c, 0, 64, 89
1, 1098002, Note_on_c, 0, 66, 118
1, 1100371, Note_off_c, 0, 66, 118
1, 1101580, Note_on_c, 0, 67, 117
1, 1103875, Note_off_c, 0, 67, 117
1, 1104763, Note_on_c, 0, 63, 111
1, 1106762, Note_off_c, 0, 63, 111
1, 1107896, Note_on_c, 0, 65, 115
1, 1109599, Note_off_c, 0, 65, 115
1, 1109747, Note_on_c, 0, 66, 105
1, 1111351, Note_off_c, 0, 66, 105
1, 1111809, Note_on_c, 0, 65, 113
1, 1113845, Note_off_c, 0, 65, 113
1, 1114792, Note_on_c, 0, 64, 108
1, 1116459, Note_off_c, 0, 64, 108
1, 1117090, Note_on_c, 0, 60, 110
1, 1118511, Note_off_c, 0, 60, 110
1, 1119142, Note_on_c, 0, 57, 100
1, 1120950, Note_off_c, 0, 57, 100
1, 1122038, Note_on_c, 0, 52, 86
1, 1123652, Note_off_c, 0, 52, 86
1, 1124389, Note_on_c, 0, 62, 97
1, 1131217, Note_off_c, 0, 62, 97
1, 1135763, Note_on_c, 0, 59, 97
1, 1137606, Note_off_c, 0, 59, 97
1, 1137851, Note_on_c, 0, 54, 103
1, 1139395, Note_off_c, 0, 54, 103
1, 1141466, Note_on_c, 0, 61, 117
1, 1143080, Note_off_c, 0, 61, 117
1, 1144122, Note_on_c, 0, 59, 102
1, 1145693, Note_off_c, 0, 59, 102
1, 1146107, Note_on_c, 0, 57, 103
1, 1147818, Note_off_c, 0, 57, 103
1, 1148327, Note_on_c, 0, 56, 97
1, 1149555, Note_off_c, 0, 56, 97
1, 1150526, Note_on_c, 0, 55, 102
1, 1151822, Note_off_c, 0, 55, 102
1, 1152673, Note_on_c, 0, 57, 105
1, 1154326, Note_off_c, 0, 57, 105
1, 1154795, Note_on_c, 0, 59, 98
1, 1156782, Note_off_c, 0, 59, 98
1, 1157510, Note_on_c, 0, 61, 110
1, 1159089, Note_off_c, 0, 61, 110
1, 1160236, Note_on_c, 0, 63, 116
1, 1162050, Note_off_c, 0, 63, 116
1, 1162790, Note_on_c, 0, 64, 112
1, 1163974, Note_off_c, 0, 64, 112
1, 1164541, Note_on_c, 0, 66, 115
1, 1166071, Note_off_c, 0, 66, 115
1, 1166848, Note_on_c, 0, 63, 105
1, 1167884, Note_off_c, 0, 63, 105
1, 1168155, Note_on_c, 0, 64, 113
1, 1169685, Note_off_c, 0, 64, 113
1, 1169919, Note_on_c, 0, 66, 112
1, 1171474, Note_off_c, 0, 66, 112
1, 1171906, Note_on_c, 0, 67, 113
1, 1173782, Note_off_c, 0, 67, 113
1, 1174078, Note_on_c, 0, 69, 114
1, 1175917, Note_off_c, 0, 69, 114
1, 1176410, Note_on_c, 0, 69, 118
1, 1177120, Note_off_c, 0, 69, 118
1, 1177242, Note_on_c, 0, 70, 111
1, 1178453, Note_off_c, 0, 70, 111
1, 1179278, Note_on_c, 0, 72, 115
1, 1180726, Note_off_c, 0, 72, 115
1, 1182279, Note_on_c, 0, 69, 113
1, 1184332, Note_off_c, 0, 69, 113
1, 1184507, Note_on_c, 0, 68, 95
1, 1186797, Note_off_c, 0, 68, 95
1, 1186957, Note_on_c, 0, 69, 109
1, 1189030, Note_off_c, 0, 69, 109
1, 1189671, Note_on_c, 0, 57, 94
1, 1191645, Note_off_c, 0, 57, 94
1, 1192397, Note_on_c, 0, 64, 113
1, 1193396, Note_off_c, 0, 64, 113
1, 1193593, Note_on_c, 0, 66, 109
1, 1195493, Note_off_c, 0, 66, 109
1, 1196369, Note_on_c, 0, 64, 105
1, 1198417, Note_off_c, 0, 64, 105
1, 1198960, Note_on_c, 0, 64, 107
1, 1200700, Note_off_c, 0, 64, 107
1, 1201354, Note_on_c, 0, 62, 101
1, 1203180, Note_off_c, 0, 62, 101
1, 1203649, Note_on_c, 0, 62, 99
1, 1205315, Note_off_c, 0, 62, 99
1, 1205796, Note_on_c, 0, 61, 96
1, 1207610, Note_off_c, 0, 61, 96
1, 1208042, Note_on_c, 0, 61, 101
1, 1209597, Note_off_c, 0, 61, 101
1, 1210037, Note_on_c, 0, 59, 92
1, 1211616, Note_off_c, 0, 59, 92
1, 1212002, Note_on_c, 0, 59, 91
1, 1212582, Note_off_c, 0, 59, 91
1, 1212761, Note_on_c, 0, 57, 96
1, 1213521, Note_off_c, 0, 57, 96
1, 1213967, Note_on_c, 0, 57, 97
1, 1215409, Note_off_c, 0, 57, 97
1, 1216012, Note_on_c, 0, 57, 97
1, 1217556, Note_off_c, 0, 57, 97
1, 1218274, Note_on_c, 0, 54, 98
1, 1219678, Note_off_c, 0, 54, 98
1, 1220362, Note_on_c, 0, 54, 97
1, 1221801, Note_off_c, 0, 54, 97
1, 1222710, Note_on_c, 0, 52, 93
1, 1224067, Note_off_c, 0, 52, 93
1, 1224992, Note_on_c, 0, 52, 94
1, 1226460, Note_off_c, 0, 52, 94
1, 1227406, Note_on_c, 0, 50, 88
1, 1229573, Note_off_c, 0, 50, 88
1, 1237986, Note_on_c, 0, 50, 100
1, 1240244, Note_off_c, 0, 50, 100
1, 1241885, Note_on_c, 0, 46, 88
1, 1243822, Note_off_c, 0, 46, 88
1, 1244587, Note_on_c, 0, 57, 98
1, 1246426, Note_off_c, 0, 57, 98
1, 1248092, Note_on_c, 0, 69, 113
1, 1250264, Note_off_c, 0, 69, 113
1, 1250584, Note_on_c, 0, 67, 113
1, 1252176, Note_off_c, 0, 67, 113
1, 1252620, Note_on_c, 0, 67, 112
1, 1254236, Note_off_c, 0, 67, 112
1, 1254616, Note_on_c, 0, 65, 115
1, 1256195, Note_off_c, 0, 65, 115
1, 1256809, Note_on_c, 0, 66, 112
1, 1258406, Note_off_c, 0, 66, 112
1, 1258836, Note_on_c, 0, 64, 110
1, 1260363, Note_off_c, 0, 64, 110
1, 1260775, Note_on_c, 0, 64, 111
1, 1262293, Note_off_c, 0, 64, 111
1, 1262661, Note_on_c, 0, 62, 109
1, 1264249, Note_off_c, 0, 62, 109
1, 1264863, Note_on_c, 0, 62, 107
1, 1266372, Note_off_c, 0, 62, 107
1, 1267319, Note_on_c, 0, 59, 96
1, 1269311, Note_off_c, 0, 59, 96
1, 1269793, Note_on_c, 0, 58, 99
1, 1271767, Note_off_c, 0, 58, 99
1, 1272293, Note_on_c, 0, 57, 100
1, 1273750, Note_off_c, 0, 57, 100
1, 1274566, Note_on_c, 0, 57, 98
1, 1275856, Note_off_c, 0, 57, 98
1, 1276789, Note_on_c, 0, 55, 100
1, 1278237, Note_off_c, 0, 55, 100
1, 1278725, Note_on_c, 0, 55, 100
1, 1280487, Note_off_c, 0, 55, 100
1, 1281331, Note_on_c, 0, 54, 97
1, 1282761, Note_off_c, 0, 54, 97
1, 1283366, Note_on_c, 0, 64, 103
1, 1285112, Note_off_c, 0, 64, 103
1, 1285322, Note_on_c, 0, 61, 99
1, 1287314, Note_off_c, 0, 61, 99
1, 1287507, Note_on_c, 0, 62, 85
1, 1299198, Note_off_c, 0, 62, 85
1, 1345014, Note_on_c, 0, 57, 99
1, 1348038, Note_off_c, 0, 57, 99
1, 1348223, Note_on_c, 0, 59, 99
1, 1351345, Note_off_c, 0, 59, 99
1, 1351554, Note_on_c, 0, 61, 95
1, 1357342, Note_off_c, 0, 61, 95
1, 1359213, Note_on_c, 0, 62, 105
1, 1361512, Note_off_c, 0, 62, 105
1, 1362653, Note_on_c, 0, 61, 76
1, 1366743, Note_off_c, 0, 61, 76
1, 1367796, Note_on_c, 0, 61, 92
1, 1368884, Note_off_c, 0, 61, 92
1, 1369129, Note_on_c, 0, 62, 106
1, 1372569, Note_off_c, 0, 62, 106
1, 1372849, Note_on_c, 0, 61, 93
1, 1378589, Note_off_c, 0, 61, 93
1, 1379135, Note_on_c, 0, 55, 87
1, 1394341, Note_off_c, 0, 55, 87
1, 1427864, Note_on_c, 0, 57, 88
1, 1430135, Note_off_c, 0, 57, 88
1, 1430776, Note_on_c, 0, 59, 94
1, 1433145, Note_off_c, 0, 59, 94
1, 1440624, Note_on_c, 0, 62, 116
1, 1444573, Note_off_c, 0, 62, 116
1, 1444721, Note_on_c, 0, 61, 89
1, 1451558, Note_off_c, 0, 61, 89
1, 1451878, Note_on_c, 0, 62, 118
1, 1455457, Note_off_c, 0, 62, 118
1, 1455679, Note_on_c, 0, 61, 97
1, 1461578, Note_off_c, 0, 61, 97
1, 1472057, Note_on_c, 0, 55, 90
1, 1492630, Note_off_c, 0, 55, 90
1, 1513046, Note_on_c, 0, 57, 101
1, 1514946, Note_off_c, 0, 57, 101
1, 1518772, Note_on_c, 0, 57, 103
1, 1520351, Note_off_c, 0, 57, 103
1, 1521264, Note_on_c, 0, 54, 96
1, 1522942, Note_off_c, 0, 54, 96
1, 1523460, Note_on_c, 0, 57, 106
1, 1525039, Note_off_c, 0, 57, 106
1, 1525359, Note_on_c, 0, 62, 110
1, 1527161, Note_off_c, 0, 62, 110
1, 1530024, Note_on_c, 0, 62, 110
1, 1531949, Note_off_c, 0, 62, 110
1, 1535084, Note_on_c, 0, 54, 95
1, 1538046, Note_off_c, 0, 54, 95
1, 1538428, Note_on_c, 0, 57, 98
1, 1539921, Note_off_c, 0, 57, 98
1, 1540612, Note_on_c, 0, 62, 108
1, 1542809, Note_off_c, 0, 62, 108
1, 1545857, Note_on_c, 0, 54, 94
1, 1548325, Note_off_c, 0, 54, 94
1, 1548596, Note_on_c, 0, 57, 103
1, 1550324, Note_off_c, 0, 57, 103
1, 1550533, Note_on_c, 0, 62, 114
1, 1552693, Note_off_c, 0, 62, 114
1, 1568368, Note_on_c, 0, 55, 100
1, 1570528, Note_off_c, 0, 55, 100
1, 1570774, Note_on_c, 0, 59, 96
1, 1572896, Note_off_c, 0, 59, 96
1, 1573821, Note_on_c, 0, 62, 114
1, 1575363, Note_off_c, 0, 62, 114
1, 1577004, Note_on_c, 0, 55, 93
1, 1578608, Note_off_c, 0, 55, 93
1, 1578879, Note_on_c, 0, 59, 104
1, 1580471, Note_off_c, 0, 59, 104
1, 1580754, Note_on_c, 0, 62, 116
1, 1583062, Note_off_c, 0, 62, 116
1, 1585615, Note_on_c, 0, 55, 98
1, 1588230, Note_off_c, 0, 55, 98
1, 1588510, Note_on_c, 0, 59, 105
1, 1590195, Note_off_c, 0, 59, 105
1, 1590668, Note_on_c, 0, 62, 118
1, 1592528, Note_off_c, 0, 62, 118
1, 1604148, Note_on_c, 0, 59, 108
1, 1605640, Note_off_c, 0, 59, 108
1, 1606166, Note_on_c, 0, 60, 110
1, 1607465, Note_off_c, 0, 60, 110
1, 1607886, Note_on_c, 0, 56, 95
1, 1608754, Note_off_c, 0, 56, 95
1, 1608964, Note_on_c, 0, 59, 106
1, 1610298, Note_off_c, 0, 59, 106
1, 1610534, Note_on_c, 0, 57, 104
1, 1611648, Note_off_c, 0, 57, 104
1, 1612200, Note_on_c, 0, 52, 92
1, 1613472, Note_off_c, 0, 52, 92
1, 1613533, Note_on_c, 0, 55, 103
1, 1615235, Note_off_c, 0, 55, 103
1, 1615919, Note_on_c, 0, 54, 98
1, 1618190, Note_off_c, 0, 54, 98
1, 1618609, Note_on_c, 0, 57, 103
1, 1620435, Note_off_c, 0, 57, 103
1, 1620815, Note_on_c, 0, 60, 106
1, 1623290, Note_off_c, 0, 60, 106
1, 1623676, Note_on_c, 0, 62, 118
1, 1625185, Note_off_c, 0, 62, 118
1, 1626097, Note_on_c, 0, 63, 84
1, 1628010, Note_off_c, 0, 63, 84
1, 1628501, Note_on_c, 0, 65, 109
1, 1630115, Note_off_c, 0, 65, 109
1, 1630518, Note_on_c, 0, 62, 107
1, 1632677, Note_off_c, 0, 62, 107
1, 1635380, Note_on_c, 0, 66, 109
1, 1637784, Note_off_c, 0, 66, 109
1, 1640399, Note_on_c, 0, 69, 109
1, 1642259, Note_off_c, 0, 69, 109
1, 1645384, Note_on_c, 0, 74, 110
1, 1646754, Note_off_c, 0, 74, 110
1, 1646914, Note_on_c, 0, 73, 111
1, 1647889, Note_off_c, 0, 73, 111
1, 1648024, Note_on_c, 0, 72, 121
1, 1649208, Note_off_c, 0, 72, 121
1, 1649356, Note_on_c, 0, 71, 112
1, 1650318, Note_off_c, 0, 71, 112
1, 1650490, Note_on_c, 0, 69, 106
1, 1651588, Note_off_c, 0, 69, 106
1, 1651725, Note_on_c, 0, 67, 107
1, 1652793, Note_off_c, 0, 67, 107
1, 1652919, Note_on_c, 0, 66, 107
1, 1654131, Note_off_c, 0, 66, 107
1, 1654299, Note_on_c, 0, 64, 109
1, 1655523, Note_off_c, 0, 64, 109
1, 1655637, Note_on_c, 0, 62, 107
1, 1656922, Note_off_c, 0, 62, 107
1, 1657145, Note_on_c, 0, 61, 111
1, 1658400, Note_off_c, 0, 61, 111
1, 1658502, Note_on_c, 0, 60, 109
1, 1659310, Note_off_c, 0, 60, 109
1, 1659527, Note_on_c, 0, 59, 104
1, 1660589, Note_off_c, 0, 59, 104
1, 1660721, Note_on_c, 0, 57, 99
1, 1661457, Note_off_c, 0, 57, 99
1, 1661668, Note_on_c, 0, 55, 102
1, 1663496, Note_off_c, 0, 55, 102
1, 1663658, Note_on_c, 0, 57, 97
1, 1664683, Note_off_c, 0, 57, 97
1, 1665091, Note_on_c, 0, 60, 100
1, 1666047, Note_off_c, 0, 60, 100
1, 1666222, Note_on_c, 0, 65, 113
1, 1667442, Note_off_c, 0, 65, 113
1, 1668708, Note_on_c, 0, 63, 120
1, 1669670, Note_off_c, 0, 63, 120
1, 1669892, Note_on_c, 0, 65, 106
1, 1670953, Note_off_c, 0, 65, 106
1, 1670977, Note_on_c, 0, 62, 111
1, 1671779, Note_off_c, 0, 62, 111
1, 1672235, Note_on_c, 0, 60, 103
1, 1673000, Note_off_c, 0, 60, 103
1, 1673259, Note_on_c, 0, 58, 102
1, 1674048, Note_off_c, 0, 58, 102
1, 1674430, Note_on_c, 0, 54, 101
1, 1675726, Note_off_c, 0, 54, 101
1, 1676059, Note_on_c, 0, 53, 102
1, 1679440, Note_off_c, 0, 53, 102
1, 1679699, Note_on_c, 0, 52, 96
1, 1681710, Note_off_c, 0, 52, 96
1, 1681872, Note_on_c, 0, 50, 75
1, 1693317, Note_off_c, 0, 50, 75
1, 1729414, Note_on_c, 0, 62, 119
1, 1732043, Note_off_c, 0, 62, 119
1, 1732191, Note_on_c, 0, 61, 110
1, 1734758, Note_off_c, 0, 61, 110
1, 1735251, Note_on_c, 0, 60, 108
1, 1737596, Note_off_c, 0, 60, 108
1, 1737867, Note_on_c, 0, 62, 122
1, 1739841, Note_off_c, 0, 62, 122
1, 1740655, Note_on_c, 0, 59, 100
1, 1742716, Note_off_c, 0, 59, 100
1, 1744604, Note_on_c, 0, 62, 119
1, 1747171, Note_off_c, 0, 62, 119
1, 1748281, Note_on_c, 0, 67, 113
1, 1750478, Note_off_c, 0, 67, 113
1, 1752539, Note_on_c, 0, 70, 120
1, 1754427, Note_off_c, 0, 70, 120
1, 1754464, Note_on_c, 0, 71, 112
1, 1756636, Note_off_c, 0, 71, 112
1, 1756759, Note_on_c, 0, 70, 113
1, 1759708, Note_off_c, 0, 70, 113
1, 1760744, Note_on_c, 0, 69, 83
1, 1780591, Note_off_c, 0, 69, 83
1, 1802018, Note_on_c, 0, 69, 119
1, 1803499, Note_off_c, 0, 69, 119
1, 1803721, Note_on_c, 0, 72, 112
1, 1805276, Note_off_c, 0, 72, 112
1, 1806658, Note_on_c, 0, 66, 115
1, 1808435, Note_off_c, 0, 66, 115
1, 1808706, Note_on_c, 0, 69, 111
1, 1809890, Note_off_c, 0, 69, 111
1, 1811543, Note_on_c, 0, 63, 123
1, 1813246, Note_off_c, 0, 63, 123
1, 1813394, Note_on_c, 0, 66, 104
1, 1814332, Note_off_c, 0, 66, 104
1, 1815985, Note_on_c, 0, 60, 115
1, 1817836, Note_off_c, 0, 60, 115
1, 1818033, Note_on_c, 0, 63, 107
1, 1818971, Note_off_c, 0, 63, 107
1, 1820797, Note_on_c, 0, 57, 107
1, 1822204, Note_off_c, 0, 57, 107
1, 1822524, Note_on_c, 0, 60, 114
1, 1823955, Note_off_c, 0, 60, 114
1, 1825732, Note_on_c, 0, 54, 109
1, 1827410, Note_off_c, 0, 54, 109
1, 1827755, Note_on_c, 0, 57, 102
1, 1828865, Note_off_c, 0, 57, 102
1, 1830617, Note_on_c, 0, 51, 103
1, 1832196, Note_off_c, 0, 51, 103
1, 1832590, Note_on_c, 0, 54, 104
1, 1833873, Note_off_c, 0, 54, 104
1, 1836168, Note_on_c, 0, 57, 108
1, 1837772, Note_off_c, 0, 57, 108
1, 1837920, Note_on_c, 0, 63, 113
1, 1839154, Note_off_c, 0, 63, 113
1, 1841696, Note_on_c, 0, 59, 85
1, 1850780, Note_off_c, 0, 59, 85
1, 1861765, Note_on_c, 0, 55, 106
1, 1863357, Note_off_c, 0, 55, 106
1, 1863566, Note_on_c, 0, 59, 107
1, 1864849, Note_off_c, 0, 59, 107
1, 1865009, Note_on_c, 0, 62, 118
1, 1866798, Note_off_c, 0, 62, 118
1, 1868180, Note_on_c, 0, 67, 115
1, 1870031, Note_off_c, 0, 67, 115
1, 1871820, Note_on_c, 0, 67, 114
1, 1873634, Note_off_c, 0, 67, 114
1, 1875411, Note_on_c, 0, 71, 120
1, 1878891, Note_off_c, 0, 71, 120
1, 1879236, Note_on_c, 0, 67, 111
1, 1880964, Note_off_c, 0, 67, 111
1, 1893587, Note_on_c, 0, 67, 113
1, 1895070, Note_off_c, 0, 67, 113
1, 1895175, Note_on_c, 0, 69, 112
1, 1895780, Note_off_c, 0, 69, 112
1, 1895858, Note_on_c, 0, 71, 114
1, 1897183, Note_off_c, 0, 71, 114
1, 1897340, Note_on_c, 0, 67, 106
1, 1898524, Note_off_c, 0, 67, 106
1, 1898629, Note_on_c, 0, 69, 114
1, 1899673, Note_off_c, 0, 69, 114
1, 1899830, Note_on_c, 0, 67, 111
1, 1900549, Note_off_c, 0, 67, 111
1, 1900654, Note_on_c, 0, 64, 112
1, 1902023, Note_off_c, 0, 64, 112
1, 1902172, Note_on_c, 0, 59, 101
1, 1902944, Note_off_c, 0, 59, 101
1, 1903259, Note_on_c, 0, 66, 110
1, 1904435, Note_off_c, 0, 66, 110
1, 1904601, Note_on_c, 0, 64, 114
1, 1905513, Note_off_c, 0, 64, 114
1, 1905653, Note_on_c, 0, 62, 114
1, 1906873, Note_off_c, 0, 62, 114
1, 1907153, Note_on_c, 0, 61, 117
1, 1908364, Note_off_c, 0, 61, 117
1, 1908574, Note_on_c, 0, 60, 110
1, 1909521, Note_off_c, 0, 60, 110
1, 1911750, Note_on_c, 0, 59, 108
1, 1912776, Note_off_c, 0, 59, 108
1, 1912942, Note_on_c, 0, 58, 107
1, 1914197, Note_off_c, 0, 58, 107
1, 1917681, Note_on_c, 0, 57, 98
1, 1922543, Note_off_c, 0, 57, 98
1, 1930836, Note_on_c, 0, 57, 109
1, 1932144, Note_off_c, 0, 57, 109
1, 1932267, Note_on_c, 0, 55, 105
1, 1933019, Note_off_c, 0, 55, 105
1, 1933191, Note_on_c, 0, 54, 102
1, 1934227, Note_off_c, 0, 54, 102
1, 1934399, Note_on_c, 0, 55, 97
1, 1935312, Note_off_c, 0, 55, 97
1, 1935497, Note_on_c, 0, 57, 97
1, 1936188, Note_off_c, 0, 57, 97
1, 1936582, Note_on_c, 0, 61, 98
1, 1937631, Note_off_c, 0, 61, 98
1, 1937806, Note_on_c, 0, 66, 114
1, 1939338, Note_off_c, 0, 66, 114
1, 1946479, Note_on_c, 0, 63, 121
1, 1947778, Note_off_c, 0, 63, 121
1, 1947865, Note_on_c, 0, 66, 112
1, 1948839, Note_off_c, 0, 66, 112
1, 1949005, Note_on_c, 0, 64, 113
1, 1949979, Note_off_c, 0, 64, 113
1, 1950119, Note_on_c, 0, 62, 114
1, 1950952, Note_off_c, 0, 62, 114
1, 1951197, Note_on_c, 0, 61, 109
1, 1952057, Note_off_c, 0, 61, 109
1, 1952171, Note_on_c, 0, 59, 107
1, 1953215, Note_off_c, 0, 59, 107
1, 1953478, Note_on_c, 0, 57, 102
1, 1954425, Note_off_c, 0, 57, 102
1, 1954670, Note_on_c, 0, 56, 102
1, 1955389, Note_off_c, 0, 56, 102
1, 1955538, Note_on_c, 0, 55, 104
1, 1956389, Note_off_c, 0, 55, 104
1, 1956564, Note_on_c, 0, 57, 105
1, 1957538, Note_off_c, 0, 57, 105
1, 1957669, Note_on_c, 0, 54, 104
1, 1958529, Note_off_c, 0, 54, 104
1, 1958722, Note_on_c, 0, 51, 86
1, 1959450, Note_off_c, 0, 51, 86
1, 1959748, Note_on_c, 0, 54, 105
1, 1961047, Note_off_c, 0, 54, 105
1, 1961309, Note_on_c, 0, 51, 98
1, 1962117, Note_off_c, 0, 51, 98
1, 1962829, Note_on_c, 0, 52, 99
1, 1963522, Note_off_c, 0, 52, 99
1, 1963669, Note_on_c, 0, 54, 105
1, 1964871, Note_off_c, 0, 54, 105
1, 1965099, Note_on_c, 0, 55, 102
1, 1965994, Note_off_c, 0, 55, 102
1, 1966283, Note_on_c, 0, 57, 102
1, 1966958, Note_off_c, 0, 57, 102
1, 1967187, Note_on_c, 0, 59, 102
1, 1968051, Note_off_c, 0, 59, 102
1, 1968334, Note_on_c, 0, 62, 114
1, 1969555, Note_off_c, 0, 62, 114
1, 1969777, Note_on_c, 0, 61, 108
1, 1970616, Note_off_c, 0, 61, 108
1, 1970715, Note_on_c, 0, 59, 104
1, 1971849, Note_off_c, 0, 59, 104
1, 1972084, Note_on_c, 0, 57, 102
1, 1973182, Note_off_c, 0, 57, 102
1, 1973931, Note_on_c, 0, 56, 96
1, 1975396, Note_off_c, 0, 56, 96
1, 1975660, Note_on_c, 0, 59, 95
1, 1976524, Note_off_c, 0, 59, 95
1, 1976844, Note_on_c, 0, 66, 110
1, 1978522, Note_off_c, 0, 66, 110
1, 1980762, Note_on_c, 0, 66, 111
1, 1981757, Note_off_c, 0, 66, 111
1, 1981871, Note_on_c, 0, 67, 105
1, 1983204, Note_off_c, 0, 67, 105
1, 1983298, Note_on_c, 0, 69, 108
1, 1984486, Note_off_c, 0, 69, 108
1, 1984867, Note_on_c, 0, 74, 109
1, 1986170, Note_off_c, 0, 74, 109
1, 1986314, Note_on_c, 0, 73, 113
1, 1987261, Note_off_c, 0, 73, 113
1, 1987363, Note_on_c, 0, 72, 111
1, 1987960, Note_off_c, 0, 72, 111
1, 1988080, Note_on_c, 0, 71, 111
1, 1988967, Note_off_c, 0, 71, 111
1, 1989069, Note_on_c, 0, 69, 110
1, 1989750, Note_off_c, 0, 69, 110
1, 1989858, Note_on_c, 0, 68, 111
1, 1990654, Note_off_c, 0, 68, 111
1, 1990961, Note_on_c, 0, 66, 112
1, 1991703, Note_off_c, 0, 66, 112
1, 1991733, Note_on_c, 0, 64, 115
1, 1992272, Note_off_c, 0, 64, 115
1, 1992346, Note_on_c, 0, 62, 111
1, 1993048, Note_off_c, 0, 62, 111
1, 1993153, Note_on_c, 0, 61, 104
1, 1993780, Note_off_c, 0, 61, 104
1, 1994008, Note_on_c, 0, 59, 96
1, 1994793, Note_off_c, 0, 59, 96
1, 1994867, Note_on_c, 0, 57, 94
1, 1995354, Note_off_c, 0, 57, 94
1, 1995459, Note_on_c, 0, 55, 107
1, 1996152, Note_off_c, 0, 55, 107
1, 1996257, Note_on_c, 0, 54, 105
1, 1996831, Note_off_c, 0, 54, 105
1, 1996918, Note_on_c, 0, 52, 98
1, 1997980, Note_off_c, 0, 52, 98
1, 1998475, Note_on_c, 0, 51, 98
1, 1999286, Note_off_c, 0, 51, 98
1, 2011271, Note_on_c, 0, 57, 109
1, 2012554, Note_off_c, 0, 57, 109
1, 2013023, Note_on_c, 0, 62, 119
1, 2014751, Note_off_c, 0, 62, 119
1, 2015590, Note_on_c, 0, 57, 95
1, 2016157, Note_off_c, 0, 57, 95
1, 2016268, Note_on_c, 0, 64, 120
1, 2018168, Note_off_c, 0, 64, 120
1, 2019086, Note_on_c, 0, 57, 94
1, 2020051, Note_off_c, 0, 57, 94
1, 2020201, Note_on_c, 0, 66, 112
1, 2021631, Note_off_c, 0, 66, 112
1, 2021745, Note_on_c, 0, 69, 114
1, 2022481, Note_off_c, 0, 69, 114
1, 2022541, Note_on_c, 0, 66, 110
1, 2023277, Note_off_c, 0, 66, 110
1, 2023373, Note_on_c, 0, 69, 106
1, 2024085, Note_off_c, 0, 69, 106
1, 2024229, Note_on_c, 0, 66, 107
1, 2025116, Note_off_c, 0, 66, 107
1, 2025254, Note_on_c, 0, 69, 99
1, 2025754, Note_off_c, 0, 69, 99
1, 2025832, Note_on_c, 0, 66, 107
1, 2026791, Note_off_c, 0, 66, 107
1, 2026881, Note_on_c, 0, 69, 102
1, 2027574, Note_off_c, 0, 69, 102
1, 2027700, Note_on_c, 0, 66, 109
1, 2028683, Note_off_c, 0, 66, 109
1, 2028803, Note_on_c, 0, 69, 99
1, 2029400, Note_off_c, 0, 69, 99
1, 2029454, Note_on_c, 0, 66, 103
1, 2030437, Note_off_c, 0, 66, 103
1, 2030563, Note_on_c, 0, 69, 98
1, 2030894, Note_off_c, 0, 69, 98
1, 2031141, Note_on_c, 0, 66, 105
1, 2032112, Note_off_c, 0, 66, 105
1, 2032250, Note_on_c, 0, 69, 99
1, 2032726, Note_off_c, 0, 69, 99
1, 2032834, Note_on_c, 0, 66, 101
1, 2033727, Note_off_c, 0, 66, 101
1, 2033847, Note_on_c, 0, 69, 96
1, 2034583, Note_off_c, 0, 69, 96
1, 2034649, Note_on_c, 0, 66, 101
1, 2035560, Note_off_c, 0, 66, 101
1, 2035710, Note_on_c, 0, 69, 93
1, 2036343, Note_off_c, 0, 69, 93
1, 2036481, Note_on_c, 0, 66, 96
1, 2037392, Note_off_c, 0, 66, 96
1, 2037573, Note_on_c, 0, 69, 90
1, 2038085, Note_off_c, 0, 69, 90
1, 2038211, Note_on_c, 0, 66, 88
1, 2038754, Note_off_c, 0, 66, 88
1, 2038905, Note_on_c, 0, 69, 83
1, 2039312, Note_off_c, 0, 69, 83
1, 2039458, Note_on_c, 0, 66, 95
1, 2040351, Note_off_c, 0, 66, 95
1, 2051697, Note_on_c, 0, 68, 100
1, 2052368, Note_off_c, 0, 68, 100
1, 2052482, Note_on_c, 0, 66, 113
1, 2053223, Note_off_c, 0, 66, 113
1, 2053275, Note_on_c, 0, 69, 115
1, 2054082, Note_off_c, 0, 69, 115
1, 2054173, Note_on_c, 0, 66, 113
1, 2054891, Note_off_c, 0, 66, 113
1, 2055023, Note_on_c, 0, 69, 111
1, 2055837, Note_off_c, 0, 69, 111
1, 2055951, Note_on_c, 0, 66, 113
1, 2056838, Note_off_c, 0, 66, 113
1, 2056934, Note_on_c, 0, 69, 108
1, 2057676, Note_off_c, 0, 69, 108
1, 2057724, Note_on_c, 0, 66, 107
1, 2058460, Note_off_c, 0, 66, 107
1, 2058550, Note_on_c, 0, 69, 105
1, 2059388, Note_off_c, 0, 69, 105
1, 2059472, Note_on_c, 0, 66, 100
1, 2060190, Note_off_c, 0, 66, 100
1, 2060292, Note_on_c, 0, 69, 102
1, 2060979, Note_off_c, 0, 69, 102
1, 2061075, Note_on_c, 0, 66, 107
1, 2062034, Note_off_c, 0, 66, 107
1, 2062109, Note_on_c, 0, 69, 98
1, 2062631, Note_off_c, 0, 69, 98
1, 2062690, Note_on_c, 0, 66, 106
1, 2063951, Note_off_c, 0, 66, 106
1, 2064089, Note_on_c, 0, 67, 111
1, 2064843, Note_off_c, 0, 67, 111
1, 2064987, Note_on_c, 0, 64, 117
1, 2065952, Note_off_c, 0, 64, 117
1, 2066060, Note_on_c, 0, 67, 107
1, 2066633, Note_off_c, 0, 67, 107
1, 2066795, Note_on_c, 0, 64, 113
1, 2067537, Note_off_c, 0, 64, 113
1, 2067633, Note_on_c, 0, 67, 108
1, 2068423, Note_off_c, 0, 67, 108
1, 2068513, Note_on_c, 0, 64, 113
1, 2069647, Note_off_c, 0, 64, 113
1, 2069761, Note_on_c, 0, 67, 104
1, 2070424, Note_off_c, 0, 67, 104
1, 2070502, Note_on_c, 0, 64, 108
1, 2071395, Note_off_c, 0, 64, 108
1, 2071473, Note_on_c, 0, 67, 106
1, 2072160, Note_off_c, 0, 67, 106
1, 2072328, Note_on_c, 0, 64, 115
1, 2073341, Note_off_c, 0, 64, 115
1, 2073455, Note_on_c, 0, 67, 105
1, 2074106, Note_off_c, 0, 67, 105
1, 2074202, Note_on_c, 0, 64, 107
1, 2075004, Note_off_c, 0, 64, 107
1, 2075136, Note_on_c, 0, 67, 100
1, 2076813, Note_off_c, 0, 67, 100
1, 2076975, Note_on_c, 0, 64, 105
1, 2077566, Note_off_c, 0, 64, 105
1, 2077692, Note_on_c, 0, 66, 110
1, 2078633, Note_off_c, 0, 66, 110
1, 2078780, Note_on_c, 0, 62, 111
1, 2079482, Note_off_c, 0, 62, 111
1, 2079596, Note_on_c, 0, 66, 106
1, 2080342, Note_off_c, 0, 66, 106
1, 2080438, Note_on_c, 0, 62, 108
1, 2080947, Note_off_c, 0, 62, 108
1, 2081017, Note_on_c, 0, 66, 109
1, 2081806, Note_off_c, 0, 66, 109
1, 2081898, Note_on_c, 0, 62, 110
1, 2082573, Note_off_c, 0, 62, 110
1, 2082757, Note_on_c, 0, 66, 105
1, 2083318, Note_off_c, 0, 66, 105
1, 2083410, Note_on_c, 0, 62, 107
1, 2084384, Note_off_c, 0, 62, 107
1, 2084972, Note_on_c, 0, 62, 103
1, 2085810, Note_off_c, 0, 62, 103
1, 2089284, Note_on_c, 0, 64, 115
1, 2090430, Note_off_c, 0, 64, 115
1, 2090604, Note_on_c, 0, 60, 114
1, 2091430, Note_off_c, 0, 60, 114
1, 2091478, Note_on_c, 0, 64, 115
1, 2092220, Note_off_c, 0, 64, 115
1, 2092298, Note_on_c, 0, 60, 110
1, 2093347, Note_off_c, 0, 60, 110
1, 2093407, Note_on_c, 0, 64, 107
1, 2093950, Note_off_c, 0, 64, 107
1, 2094040, Note_on_c, 0, 60, 106
1, 2094987, Note_off_c, 0, 60, 106
1, 2095161, Note_on_c, 0, 64, 114
1, 2096042, Note_off_c, 0, 64, 114
1, 2096156, Note_on_c, 0, 60, 109
1, 2097127, Note_off_c, 0, 60, 109
1, 2097259, Note_on_c, 0, 64, 112
1, 2098055, Note_off_c, 0, 64, 112
1, 2098217, Note_on_c, 0, 60, 108
1, 2099079, Note_off_c, 0, 60, 108
1, 2099163, Note_on_c, 0, 64, 113
1, 2100110, Note_off_c, 0, 64, 113
1, 2100182, Note_on_c, 0, 60, 110
1, 2100912, Note_off_c, 0, 60, 110
1, 2100990, Note_on_c, 0, 64, 111
1, 2101883, Note_off_c, 0, 64, 111
1, 2101991, Note_on_c, 0, 60, 108
1, 2102739, Note_off_c, 0, 60, 108
1, 2102841, Note_on_c, 0, 64, 113
1, 2103758, Note_off_c, 0, 64, 113
1, 2103908, Note_on_c, 0, 60, 106
1, 2104553, Note_off_c, 0, 60, 106
1, 2104782, Note_on_c, 0, 64, 111
1, 2105687, Note_off_c, 0, 64, 111
1, 2105825, Note_on_c, 0, 60, 107
1, 2106657, Note_off_c, 0, 60, 107
1, 2106735, Note_on_c, 0, 64, 110
1, 2108008, Note_off_c, 0, 64, 110
1, 2108134, Note_on_c, 0, 60, 100
1, 2108749, Note_off_c, 0, 60, 100
1, 2108809, Note_on_c, 0, 64, 100
1, 2109708, Note_off_c, 0, 64, 100
1, 2109804, Note_on_c, 0, 60, 103
1, 2111728, Note_off_c, 0, 60, 103
1, 2123458, Note_on_c, 0, 62, 111
1, 2124284, Note_off_c, 0, 62, 111
1, 2124374, Note_on_c, 0, 59, 112
1, 2125297, Note_off_c, 0, 59, 112
1, 2125393, Note_on_c, 0, 62, 115
1, 2126020, Note_off_c, 0, 62, 115
1, 2126122, Note_on_c, 0, 59, 111
1, 2127123, Note_off_c, 0, 59, 111
1, 2127243, Note_on_c, 0, 62, 114
1, 2128063, Note_off_c, 0, 62, 114
1, 2128135, Note_on_c, 0, 59, 110
1, 2129142, Note_off_c, 0, 59, 110
1, 2129347, Note_on_c, 0, 62, 98
1, 2129775, Note_off_c, 0, 62, 98
1, 2129943, Note_on_c, 0, 59, 112
1, 2130974, Note_off_c, 0, 59, 112
1, 2131155, Note_on_c, 0, 62, 107
1, 2131830, Note_off_c, 0, 62, 107
1, 2131950, Note_on_c, 0, 59, 111
1, 2132975, Note_off_c, 0, 59, 111
1, 2133168, Note_on_c, 0, 62, 109
1, 2133837, Note_off_c, 0, 62, 109
1, 2133939, Note_on_c, 0, 59, 109
1, 2135007, Note_off_c, 0, 59, 109
1, 2135278, Note_on_c, 0, 62, 108
1, 2136026, Note_off_c, 0, 62, 108
1, 2136074, Note_on_c, 0, 59, 106
1, 2136743, Note_off_c, 0, 59, 106
1, 2137289, Note_on_c, 0, 62, 10
1, 2138067, Note_off_c, 0, 62, 10
1, 2138254, Note_on_c, 0, 58, 42
1, 2139193, Note_off_c, 0, 58, 42
1, 2139390, Note_on_c, 0, 62, 107
1, 2140298, Note_off_c, 0, 62, 107
1, 2140359, Note_on_c, 0, 58, 104
1, 2141464, Note_off_c, 0, 58, 104
1, 2141578, Note_on_c, 0, 62, 104
1, 2142433, Note_off_c, 0, 62, 104
1, 2142533, Note_on_c, 0, 58, 108
1, 2143322, Note_off_c, 0, 58, 108
1, 2143675, Note_on_c, 0, 62, 104
1, 2144634, Note_off_c, 0, 62, 104
1, 2144796, Note_on_c, 0, 58, 105
1, 2145598, Note_off_c, 0, 58, 105
1, 2145815, Note_on_c, 0, 62, 108
1, 2146708, Note_off_c, 0, 62, 108
1, 2146792, Note_on_c, 0, 58, 107
1, 2147594, Note_off_c, 0, 58, 107
1, 2147696, Note_on_c, 0, 62, 109
1, 2148715, Note_off_c, 0, 62, 109
1, 2148835, Note_on_c, 0, 58, 103
1, 2149866, Note_off_c, 0, 58, 103
1, 2149962, Note_on_c, 0, 62, 109
1, 2150752, Note_off_c, 0, 62, 109
1, 2150890, Note_on_c, 0, 58, 108
1, 2151867, Note_off_c, 0, 58, 108
1, 2151957, Note_on_c, 0, 62, 105
1, 2152765, Note_off_c, 0, 62, 105
1, 2152849, Note_on_c, 0, 58, 107
1, 2153766, Note_off_c, 0, 58, 107
1, 2153844, Note_on_c, 0, 62, 108
1, 2154839, Note_off_c, 0, 62, 108
1, 2154941, Note_on_c, 0, 58, 106
1, 2155930, Note_off_c, 0, 58, 106
1, 2156050, Note_on_c, 0, 62, 107
1, 2156828, Note_off_c, 0, 62, 107
1, 2156930, Note_on_c, 0, 58, 106
1, 2157961, Note_off_c, 0, 58, 106
1, 2158039, Note_on_c, 0, 62, 109
1, 2158829, Note_off_c, 0, 62, 109
1, 2158925, Note_on_c, 0, 58, 105
1, 2159799, Note_off_c, 0, 58, 105
1, 2160082, Note_on_c, 0, 62, 110
1, 2161107, Note_off_c, 0, 62, 110
1, 2161448, Note_on_c, 0, 69, 93
1, 2162281, Note_off_c, 0, 69, 93
1, 2162421, Note_on_c, 0, 62, 105
1, 2163189, Note_off_c, 0, 62, 105
1, 2163662, Note_on_c, 0, 57, 105
1, 2164504, Note_off_c, 0, 57, 105
1, 2164613, Note_on_c, 0, 62, 110
1, 2165473, Note_off_c, 0, 62, 110
1, 2165736, Note_on_c, 0, 57, 105
1, 2166582, Note_off_c, 0, 57, 105
1, 2166753, Note_on_c, 0, 62, 106
1, 2167687, Note_off_c, 0, 62, 106
1, 2167792, Note_on_c, 0, 57, 106
1, 2168624, Note_off_c, 0, 57, 106
1, 2168756, Note_on_c, 0, 62, 108
1, 2169739, Note_off_c, 0, 62, 108
1, 2169871, Note_on_c, 0, 57, 104
1, 2170764, Note_off_c, 0, 57, 104
1, 2170890, Note_on_c, 0, 62, 106
1, 2171801, Note_off_c, 0, 62, 106
1, 2172045, Note_on_c, 0, 69, 97
1, 2172949, Note_off_c, 0, 69, 97
1, 2173221, Note_on_c, 0, 62, 101
1, 2173773, Note_off_c, 0, 62, 101
1, 2173878, Note_on_c, 0, 57, 103
1, 2174975, Note_off_c, 0, 57, 103
1, 2175084, Note_on_c, 0, 62, 107
1, 2176009, Note_off_c, 0, 62, 107
1, 2176263, Note_on_c, 0, 57, 103
1, 2177123, Note_off_c, 0, 57, 103
1, 2177237, Note_on_c, 0, 62, 106
1, 2178176, Note_off_c, 0, 62, 106
1, 2178319, Note_on_c, 0, 57, 104
1, 2179145, Note_off_c, 0, 57, 104
1, 2179271, Note_on_c, 0, 62, 101
1, 2180139, Note_off_c, 0, 62, 101
1, 2180543, Note_on_c, 0, 57, 102
1, 2181466, Note_off_c, 0, 57, 102
1, 2181586, Note_on_c, 0, 62, 98
1, 2182473, Note_off_c, 0, 62, 98
1, 2182832, Note_on_c, 0, 57, 100
1, 2183578, Note_off_c, 0, 57, 100
1, 2183814, Note_on_c, 0, 62, 106
1, 2184823, Note_off_c, 0, 62, 106
1, 2185038, Note_on_c, 0, 57, 106
1, 2185906, Note_off_c, 0, 57, 106
1, 2186015, Note_on_c, 0, 54, 107
1, 2187024, Note_off_c, 0, 54, 107
1, 2187073, Note_on_c, 0, 50, 110
1, 2187963, Note_off_c, 0, 50, 110
1, 2188134, Note_on_c, 0, 57, 113
1, 2188954, Note_off_c, 0, 57, 113
1, 2189032, Note_on_c, 0, 54, 109
1, 2189997, Note_off_c, 0, 54, 109
1, 2190159, Note_on_c, 0, 52, 108
1, 2191106, Note_off_c, 0, 52, 108
1, 2191236, Note_on_c, 0, 54, 93
1, 2197493, Note_off_c, 0, 54, 93
1, 2197789, Note_on_c, 0, 54, 91
1, 2198887, Note_off_c, 0, 54, 91
1, 2213963, Note_on_c, 0, 55, 106
1, 2216771, Note_off_c, 0, 55, 106
1, 2217016, Note_on_c, 0, 57, 105
1, 2218964, Note_off_c, 0, 57, 105
1, 2219349, Note_on_c, 0, 57, 114
1, 2220446, Note_off_c, 0, 57, 114
1, 2220595, Note_on_c, 0, 58, 105
1, 2221542, Note_off_c, 0, 58, 105
1, 2222490, Note_on_c, 0, 59, 103
1, 2224578, Note_off_c, 0, 59, 103
1, 2225262, Note_on_c, 0, 62, 116
1, 2227561, Note_off_c, 0, 62, 116
1, 2228441, Note_on_c, 0, 64, 110
1, 2230946, Note_off_c, 0, 64, 110
1, 2231538, Note_on_c, 0, 64, 115
1, 2232315, Note_off_c, 0, 64, 115
1, 2232463, Note_on_c, 0, 66, 108
1, 2234153, Note_off_c, 0, 66, 108
1, 2234634, Note_on_c, 0, 69, 119
1, 2236756, Note_off_c, 0, 69, 119
1, 2238545, Note_on_c, 0, 69, 117
1, 2240260, Note_off_c, 0, 69, 117
1, 2241926, Note_on_c, 0, 68, 119
1, 2243172, Note_off_c, 0, 68, 119
1, 2243344, Note_on_c, 0, 67, 112
1, 2244158, Note_off_c, 0, 67, 112
1, 2246071, Note_on_c, 0, 66, 103
1, 2247934, Note_off_c, 0, 66, 103
1, 2248896, Note_on_c, 0, 67, 111
1, 2251006, Note_off_c, 0, 67, 111
1, 2251277, Note_on_c, 0, 62, 113
1, 2253264, Note_off_c, 0, 62, 113
1, 2253399, Note_on_c, 0, 58, 97
1, 2255299, Note_off_c, 0, 58, 97
1, 2255706, Note_on_c, 0, 53, 86
1, 2257236, Note_off_c, 0, 53, 86
1, 2257359, Note_on_c, 0, 60, 110
1, 2259691, Note_off_c, 0, 60, 110
1, 2259925, Note_on_c, 0, 57, 102
1, 2261381, Note_off_c, 0, 57, 102
1, 2261677, Note_on_c, 0, 58, 96
1, 2262281, Note_off_c, 0, 58, 96
1, 2262787, Note_on_c, 0, 62, 102
1, 2263552, Note_off_c, 0, 62, 102
1, 2263712, Note_on_c, 0, 65, 100
1, 2264773, Note_off_c, 0, 65, 100
1, 2264884, Note_on_c, 0, 69, 116
1, 2266834, Note_off_c, 0, 69, 116
1, 2267006, Note_on_c, 0, 67, 94
1, 2268400, Note_off_c, 0, 67, 94
1, 2268535, Note_on_c, 0, 69, 113
1, 2270855, Note_off_c, 0, 69, 113
1, 2271022, Note_on_c, 0, 67, 97
1, 2276656, Note_off_c, 0, 67, 97
1, 2282343, Note_on_c, 0, 63, 123
1, 2283694, Note_off_c, 0, 63, 123
1, 2283816, Note_on_c, 0, 65, 112
1, 2285615, Note_off_c, 0, 65, 112
1, 2285702, Note_on_c, 0, 62, 110
1, 2286360, Note_off_c, 0, 62, 110
1, 2286456, Note_on_c, 0, 58, 102
1, 2287281, Note_off_c, 0, 58, 102
1, 2287465, Note_on_c, 0, 55, 101
1, 2288553, Note_off_c, 0, 55, 101
1, 2289018, Note_on_c, 0, 64, 120
1, 2291756, Note_off_c, 0, 64, 120
1, 2291861, Note_on_c, 0, 62, 114
1, 2293405, Note_off_c, 0, 62, 114
1, 2293536, Note_on_c, 0, 58, 87
1, 2302874, Note_off_c, 0, 58, 87
1, 2329190, Note_on_c, 0, 69, 106
1, 2331744, Note_off_c, 0, 69, 106
1, 2332126, Note_on_c, 0, 68, 97
1, 2333644, Note_off_c, 0, 68, 97
1, 2334026, Note_on_c, 0, 69, 99
1, 2336062, Note_off_c, 0, 69, 99
1, 2338518, Note_on_c, 0, 57, 86
1, 2340949, Note_off_c, 0, 57, 86
1, 2343281, Note_on_c, 0, 57, 91
1, 2345934, Note_off_c, 0, 57, 91
1, 2348698, Note_on_c, 0, 67, 108
1, 2351290, Note_off_c, 0, 67, 108
1, 2351487, Note_on_c, 0, 66, 99
1, 2353202, Note_off_c, 0, 66, 99
1, 2353461, Note_on_c, 0, 67, 107
1, 2355682, Note_off_c, 0, 67, 107
1, 2358311, Note_on_c, 0, 57, 93
1, 2360828, Note_off_c, 0, 57, 93
1, 2363839, Note_on_c, 0, 57, 95
1, 2365838, Note_off_c, 0, 57, 95
1, 2368701, Note_on_c, 0, 66, 104
1, 2371823, Note_off_c, 0, 66, 104
1, 2371995, Note_on_c, 0, 65, 93
1, 2373130, Note_off_c, 0, 65, 93
1, 2373512, Note_on_c, 0, 66, 107
1, 2375758, Note_off_c, 0, 66, 107
1, 2378702, Note_on_c, 0, 57, 94
1, 2380975, Note_off_c, 0, 57, 94
1, 2384178, Note_on_c, 0, 66, 105
1, 2386293, Note_off_c, 0, 66, 105
1, 2386424, Note_on_c, 0, 67, 99
1, 2387328, Note_off_c, 0, 67, 99
1, 2387477, Note_on_c, 0, 66, 96
1, 2388925, Note_off_c, 0, 66, 96
1, 2388995, Note_on_c, 0, 64, 97
1, 2391821, Note_off_c, 0, 64, 97
1, 2391908, Note_on_c, 0, 62, 96
1, 2393444, Note_off_c, 0, 62, 96
1, 2393803, Note_on_c, 0, 63, 105
1, 2396541, Note_off_c, 0, 63, 105
1, 2396725, Note_on_c, 0, 60, 107
1, 2398840, Note_off_c, 0, 60, 107
1, 2399289, Note_on_c, 0, 59, 86
1, 2401436, Note_off_c, 0, 59, 86
1, 2401707, Note_on_c, 0, 57, 92
1, 2403373, Note_off_c, 0, 57, 92
1, 2403665, Note_on_c, 0, 55, 94
1, 2404985, Note_off_c, 0, 55, 94
1, 2406069, Note_on_c, 0, 52, 86
1, 2407031, Note_off_c, 0, 52, 86
1, 2407086, Note_on_c, 0, 55, 95
1, 2408678, Note_off_c, 0, 55, 95
1, 2409087, Note_on_c, 0, 59, 93
1, 2410491, Note_off_c, 0, 59, 93
1, 2410666, Note_on_c, 0, 55, 92
1, 2412193, Note_off_c, 0, 55, 92
1, 2412403, Note_on_c, 0, 59, 91
1, 2413982, Note_off_c, 0, 59, 91
1, 2414210, Note_on_c, 0, 62, 105
1, 2415824, Note_off_c, 0, 62, 105
1, 2416131, Note_on_c, 0, 59, 92
1, 2417149, Note_off_c, 0, 59, 92
1, 2417737, Note_on_c, 0, 62, 108
1, 2419483, Note_off_c, 0, 62, 108
1, 2420065, Note_on_c, 0, 67, 94
1, 2421681, Note_off_c, 0, 67, 94
1, 2421829, Note_on_c, 0, 62, 95
1, 2423125, Note_off_c, 0, 62, 95
1, 2423264, Note_on_c, 0, 67, 99
1, 2424668, Note_off_c, 0, 67, 99
1, 2425940, Note_on_c, 0, 69, 98
1, 2426756, Note_off_c, 0, 69, 98
1, 2426887, Note_on_c, 0, 71, 97
1, 2434180, Note_off_c, 0, 71, 97
1, 2448449, Note_on_c, 0, 71, 108
1, 2450337, Note_off_c, 0, 71, 108
1, 2450608, Note_on_c, 0, 67, 110
1, 2452434, Note_off_c, 0, 67, 110
1, 2452717, Note_on_c, 0, 62, 113
1, 2454704, Note_off_c, 0, 62, 113
1, 2455111, Note_on_c, 0, 59, 84
1, 2456839, Note_off_c, 0, 59, 84
1, 2461895, Note_on_c, 0, 62, 116
1, 2464049, Note_off_c, 0, 62, 116
1, 2464302, Note_on_c, 0, 67, 105
1, 2465840, Note_off_c, 0, 67, 105
1, 2466123, Note_on_c, 0, 61, 115
1, 2468685, Note_off_c, 0, 61, 115
1, 2492084, Note_on_c, 0, 57, 91
1, 2494682, Note_off_c, 0, 57, 91
1, 2495191, Note_on_c, 0, 62, 105
1, 2497683, Note_off_c, 0, 62, 105
1, 2504950, Note_on_c, 0, 64, 110
1, 2506371, Note_off_c, 0, 64, 110
1, 2506493, Note_on_c, 0, 66, 107
1, 2511478, Note_off_c, 0, 66, 107
1, 2511776, Note_on_c, 0, 62, 117
1, 2513759, Note_off_c, 0, 62, 117
1, 2531504, Note_on_c, 0, 57, 97
1, 2534342, Note_off_c, 0, 57, 97
1, 2534712, Note_on_c, 0, 62, 119
1, 2537624, Note_off_c, 0, 62, 119
1, 2544190, Note_on_c, 0, 71, 120
1, 2546954, Note_off_c, 0, 71, 120
1, 2547371, Note_on_c, 0, 69, 100
1, 2548266, Note_off_c, 0, 69, 100
1, 2553567, Note_on_c, 0, 65, 120
1, 2557007, Note_off_c, 0, 65, 120
1, 2557516, Note_on_c, 0, 62, 109
1, 2558428, Note_off_c, 0, 62, 109
1, 2567529, Note_on_c, 0, 57, 100
1, 2570109, Note_off_c, 0, 57, 100
1, 2570310, Note_on_c, 0, 62, 121
1, 2572337, Note_off_c, 0, 62, 121
1, 2573908, Note_on_c, 0, 64, 111
1, 2575408, Note_off_c, 0, 64, 111
1, 2575522, Note_on_c, 0, 66, 112
1, 2577654, Note_off_c, 0, 66, 112
1, 2583736, Note_on_c, 0, 67, 107
1, 2590248, Note_off_c, 0, 67, 107
1, 2590476, Note_on_c, 0, 66, 106
1, 2593038, Note_off_c, 0, 66, 106
1, 2593476, Note_on_c, 0, 62, 116
1, 2600585, Note_off_c, 0, 62, 116
1, 2601796, Note_on_c, 0, 57, 88
1, 2603867, Note_off_c, 0, 57, 88
1, 2604130, Note_on_c, 0, 59, 101
1, 2606587, Note_off_c, 0, 59, 101
1, 2611259, Note_on_c, 0, 57, 99
1, 2613789, Note_off_c, 0, 57, 99
1, 2614146, Note_on_c, 0, 61, 120
1, 2616441, Note_off_c, 0, 61, 120
1, 2620803, Note_on_c, 0, 57, 97
1, 2623892, Note_off_c, 0, 57, 97
1, 2624085, Note_on_c, 0, 62, 121
1, 2626683, Note_off_c, 0, 62, 121
1, 2631251, Note_on_c, 0, 57, 97
1, 2634324, Note_off_c, 0, 57, 97
1, 2634410, Note_on_c, 0, 64, 116
1, 2637594, Note_off_c, 0, 64, 116
1, 2644530, Note_on_c, 0, 66, 113
1, 2647516, Note_off_c, 0, 66, 113
1, 2655240, Note_on_c, 0, 69, 101
1, 2679113, Note_off_c, 0, 69, 101
1, 2683432, Note_on_c, 0, 66, 99
1, 2685740, Note_off_c, 0, 66, 99
1, 2686011, Note_on_c, 0, 67, 108
1, 2688356, Note_off_c, 0, 67, 108
1, 2688578, Note_on_c, 0, 69, 108
1, 2690392, Note_off_c, 0, 69, 108
1, 2690515, Note_on_c, 0, 71, 105
1, 2692465, Note_off_c, 0, 71, 105
1, 2692687, Note_on_c, 0, 69, 102
1, 2694624, Note_off_c, 0, 69, 102
1, 2694767, Note_on_c, 0, 67, 105
1, 2696899, Note_off_c, 0, 67, 105
1, 2697855, Note_on_c, 0, 66, 110
1, 2699768, Note_off_c, 0, 66, 110
1, 2700408, Note_on_c, 0, 64, 109
1, 2702314, Note_off_c, 0, 64, 109
1, 2702603, Note_on_c, 0, 66, 110
1, 2704117, Note_off_c, 0, 66, 110
1, 2704496, Note_on_c, 0, 67, 107
1, 2705575, Note_off_c, 0, 67, 107
1, 2705914, Note_on_c, 0, 69, 103
1, 2707241, Note_off_c, 0, 69, 103
1, 2707464, Note_on_c, 0, 71, 110
1, 2708791, Note_off_c, 0, 71, 110
1, 2708996, Note_on_c, 0, 69, 105
1, 2710432, Note_off_c, 0, 69, 105
1, 2710619, Note_on_c, 0, 67, 110
1, 2712393, Note_off_c, 0, 67, 110
1, 2712761, Note_on_c, 0, 66, 104
1, 2714665, Note_off_c, 0, 66, 104
1, 2714972, Note_on_c, 0, 64, 108
1, 2716455, Note_off_c, 0, 64, 108
1, 2717148, Note_on_c, 0, 62, 110
1, 2718648, Note_off_c, 0, 62, 110
1, 2719402, Note_on_c, 0, 64, 107
1, 2720674, Note_off_c, 0, 64, 107
1, 2721578, Note_on_c, 0, 66, 109
1, 2722956, Note_off_c, 0, 66, 109
1, 2723219, Note_on_c, 0, 67, 110
1, 2724570, Note_off_c, 0, 67, 110
1, 2724667, Note_on_c, 0, 66, 111
1, 2726223, Note_off_c, 0, 66, 111
1, 2726379, Note_on_c, 0, 64, 115
1, 2727851, Note_off_c, 0, 64, 115
1, 2728104, Note_on_c, 0, 62, 109
1, 2730113, Note_off_c, 0, 62, 109
1, 2730332, Note_on_c, 0, 61, 110
1, 2731876, Note_off_c, 0, 61, 110
1, 2732534, Note_on_c, 0, 60, 87
1, 2741223, Note_off_c, 0, 60, 87
1, 2767650, Note_on_c, 0, 69, 97
1, 2768685, Note_off_c, 0, 69, 97
1, 2768790, Note_on_c, 0, 71, 95
1, 2772932, Note_off_c, 0, 71, 95
1, 2773072, Note_on_c, 0, 74, 93
1, 2803862, Note_off_c, 0, 74, 93
1, 2804458, Note_on_c, 0, 69, 97
1, 2805046, Note_off_c, 0, 69, 97
1, 2805116, Note_on_c, 0, 71, 96
1, 2806757, Note_off_c, 0, 71, 96
1, 2841137, Note_on_c, 0, 58, 92
1, 2843032, Note_off_c, 0, 58, 92
1, 2843549, Note_on_c, 0, 59, 94
1, 2845120, Note_off_c, 0, 59, 94
1, 2846278, Note_on_c, 0, 62, 101
1, 2848393, Note_off_c, 0, 62, 101
1, 2848744, Note_on_c, 0, 64, 103
1, 2850420, Note_off_c, 0, 64, 103
1, 2851464, Note_on_c, 0, 65, 105
1, 2853570, Note_off_c, 0, 65, 105
1, 2854043, Note_on_c, 0, 66, 103
1, 2856202, Note_off_c, 0, 66, 103
1, 2856605, Note_on_c, 0, 64, 101
1, 2858202, Note_off_c, 0, 64, 101
1, 2858904, Note_on_c, 0, 65, 106
1, 2861256, Note_off_c, 0, 65, 106
1, 2861607, Note_on_c, 0, 64, 98
1, 2863186, Note_off_c, 0, 64, 98
1, 2864231, Note_on_c, 0, 65, 101
1, 2866193, Note_off_c, 0, 65, 101
1, 2866625, Note_on_c, 0, 63, 94
1, 2868143, Note_off_c, 0, 63, 94
1, 2869204, Note_on_c, 0, 64, 97
1, 2871129, Note_off_c, 0, 64, 97
1, 2872233, Note_on_c, 0, 62, 99
1, 2873453, Note_off_c, 0, 62, 99
1, 2874541, Note_on_c, 0, 63, 99
1, 2876287, Note_off_c, 0, 63, 99
1, 2877243, Note_on_c, 0, 61, 97
1, 2878463, Note_off_c, 0, 61, 97
1, 2879647, Note_on_c, 0, 62, 100
1, 2881595, Note_off_c, 0, 62, 100
1, 2882341, Note_on_c, 0, 59, 96
1, 2883815, Note_off_c, 0, 59, 96
1, 2884394, Note_on_c, 0, 55, 91
1, 2887176, Note_off_c, 0, 55, 91
1, 2887626, Note_on_c, 0, 50, 75
1, 2888959, Note_off_c, 0, 50, 75
1, 2889403, Note_on_c, 0, 57, 93
1, 2892143, Note_off_c, 0, 57, 93
1, 2892862, Note_on_c, 0, 54, 97
1, 2894547, Note_off_c, 0, 54, 97
1, 2896969, Note_on_c, 0, 59, 87
1, 2897864, Note_off_c, 0, 59, 87
1, 2898004, Note_on_c, 0, 62, 95
1, 2899408, Note_off_c, 0, 62, 95
1, 2900558, Note_on_c, 0, 64, 101
1, 2901755, Note_off_c, 0, 64, 101
1, 2901890, Note_on_c, 0, 65, 98
1, 2903111, Note_off_c, 0, 65, 98
1, 2903703, Note_on_c, 0, 65, 108
1, 2905492, Note_off_c, 0, 65, 108
1, 2905837, Note_on_c, 0, 64, 100
1, 2907182, Note_off_c, 0, 64, 100
1, 2908354, Note_on_c, 0, 64, 105
1, 2910156, Note_off_c, 0, 64, 105
1, 2910748, Note_on_c, 0, 62, 96
1, 2912982, Note_off_c, 0, 62, 96
1, 2913994, Note_on_c, 0, 62, 97
1, 2915487, Note_off_c, 0, 62, 97
1, 2915727, Note_on_c, 0, 58, 90
1, 2918921, Note_off_c, 0, 58, 90
1, 2919254, Note_on_c, 0, 61, 95
1, 2920974, Note_off_c, 0, 61, 95
1, 2921272, Note_on_c, 0, 57, 93
1, 2924308, Note_off_c, 0, 57, 93
1, 2924465, Note_on_c, 0, 55, 75
1, 2934084, Note_off_c, 0, 55, 75
1, 2968247, Note_on_c, 0, 53, 99
1, 2972641, Note_off_c, 0, 53, 99
1, 2973085, Note_on_c, 0, 54, 93
1, 2977084, Note_off_c, 0, 54, 93
1, 2982712, Note_on_c, 0, 57, 98
1, 2986562, Note_off_c, 0, 57, 98
1, 2992535, Note_on_c, 0, 54, 99
1, 2995201, Note_off_c, 0, 54, 99
1, 3003396, Note_on_c, 0, 57, 99
1, 3007543, Note_off_c, 0, 57, 99
1, 3015496, Note_on_c, 0, 54, 95
1, 3021324, Note_off_c, 0, 54, 95
1, 3022026, Note_on_c, 0, 57, 97
1, 3024940, Note_off_c, 0, 57, 97
1, 3025782, Note_on_c, 0, 59, 94
1, 3031504, Note_off_c, 0, 59, 94
1, 3031960, Note_on_c, 0, 57, 92
1, 3035260, Note_off_c, 0, 57, 92
1, 3035731, Note_on_c, 0, 58, 100
1, 3037261, Note_off_c, 0, 58, 100
1, 3037365, Note_on_c, 0, 60, 90
1, 3042069, Note_off_c, 0, 60, 90
1, 3042700, Note_on_c, 0, 59, 98
1, 3045859, Note_off_c, 0, 59, 98
1, 3048562, Note_on_c, 0, 57, 95
1, 3052985, Note_off_c, 0, 57, 95
1, 3054143, Note_on_c, 0, 56, 83
1, 3059690, Note_off_c, 0, 56, 83
1, 3060743, Note_on_c, 0, 55, 79
1, 3078683, Note_off_c, 0, 55, 79
1, 3105576, Note_on_c, 0, 55, 98
1, 3109121, Note_off_c, 0, 55, 98
1, 3109928, Note_on_c, 0, 57, 96
1, 3114948, Note_off_c, 0, 57, 96
1, 3115860, Note_on_c, 0, 55, 92
1, 3119897, Note_off_c, 0, 55, 92
1, 3121233, Note_on_c, 0, 57, 103
1, 3123585, Note_off_c, 0, 57, 103
1, 3123701, Note_on_c, 0, 58, 94
1, 3126263, Note_off_c, 0, 58, 94
1, 3127496, Note_on_c, 0, 56, 92
1, 3130216, Note_off_c, 0, 56, 92
1, 3132024, Note_on_c, 0, 57, 96
1, 3136043, Note_off_c, 0, 57, 96
1, 3138114, Note_on_c, 0, 55, 99
1, 3142014, Note_off_c, 0, 55, 99
1, 3143840, Note_on_c, 0, 54, 79
1, 3169611, Note_off_c, 0, 54, 79
1, 3190272, Note_on_c, 0, 54, 106
1, 3193851, Note_off_c, 0, 54, 106
1, 3194344, Note_on_c, 0, 53, 88
1, 3199997, Note_off_c, 0, 53, 88
1, 3200712, Note_on_c, 0, 54, 103
1, 3203896, Note_off_c, 0, 54, 103
1, 3204779, Note_on_c, 0, 54, 104
1, 3206218, Note_off_c, 0, 54, 104
1, 3206323, Note_on_c, 0, 55, 92
1, 3213906, Note_off_c, 0, 55, 92
1, 3214706, Note_on_c, 0, 51, 87
1, 3224679, Note_off_c, 0, 51, 87
1, 3225641, Note_on_c, 0, 53, 102
1, 3227072, Note_off_c, 0, 53, 102
1, 3227269, Note_on_c, 0, 54, 90
1, 3235514, Note_off_c, 0, 54, 90
1, 3236205, Note_on_c, 0, 53, 93
1, 3242598, Note_off_c, 0, 53, 93
1, 3242894, Note_on_c, 0, 52, 78
1, 3266962, Note_off_c, 0, 52, 78
1, 3289639, Note_on_c, 0, 70, 112
1, 3290279, Note_off_c, 0, 70, 112
1, 3290410, Note_on_c, 0, 67, 113
1, 3291401, Note_off_c, 0, 67, 113
1, 3291506, Note_on_c, 0, 65, 112
1, 3292383, Note_off_c, 0, 65, 112
1, 3292453, Note_on_c, 0, 63, 113
1, 3293128, Note_off_c, 0, 63, 113
1, 3293180, Note_on_c, 0, 67, 110
1, 3294057, Note_off_c, 0, 67, 110
1, 3294135, Note_on_c, 0, 65, 112
1, 3294854, Note_off_c, 0, 65, 112
1, 3294941, Note_on_c, 0, 63, 116
1, 3295976, Note_off_c, 0, 63, 116
1, 3296151, Note_on_c, 0, 58, 97
1, 3296747, Note_off_c, 0, 58, 97
1, 3296799, Note_on_c, 0, 63, 116
1, 3297861, Note_off_c, 0, 63, 116
1, 3298001, Note_on_c, 0, 60, 108
1, 3298641, Note_off_c, 0, 60, 108
1, 3298781, Note_on_c, 0, 58, 107
1, 3299465, Note_off_c, 0, 58, 107
1, 3299693, Note_on_c, 0, 55, 104
1, 3300583, Note_off_c, 0, 55, 104
1, 3300661, Note_on_c, 0, 53, 106
1, 3301218, Note_off_c, 0, 53, 106
1, 3301327, Note_on_c, 0, 51, 109
1, 3302152, Note_off_c, 0, 51, 109
1, 3302475, Note_on_c, 0, 58, 106
1, 3303277, Note_off_c, 0, 58, 106
1, 3303391, Note_on_c, 0, 55, 105
1, 3303958, Note_off_c, 0, 55, 105
1, 3304042, Note_on_c, 0, 53, 108
1, 3304560, Note_off_c, 0, 53, 108
1, 3304698, Note_on_c, 0, 51, 110
1, 3305874, Note_off_c, 0, 51, 110
1, 3306103, Note_on_c, 0, 48, 105
1, 3306462, Note_off_c, 0, 48, 105
1, 3306542, Note_on_c, 0, 49, 113
1, 3307472, Note_off_c, 0, 49, 113
1, 3307549, Note_on_c, 0, 48, 114
1, 3308146, Note_off_c, 0, 48, 114
1, 3308260, Note_on_c, 0, 46, 115
1, 3309328, Note_off_c, 0, 46, 115
1, 3309424, Note_on_c, 0, 45, 120
1, 3312689, Note_off_c, 0, 45, 120
1, 3340494, Note_on_c, 0, 57, 92
1, 3341424, Note_off_c, 0, 57, 92
1, 3341968, Note_on_c, 0, 62, 98
1, 3345285, Note_off_c, 0, 62, 98
1, 3345794, Note_on_c, 0, 57, 93
1, 3346812, Note_off_c, 0, 57, 93
1, 3346969, Note_on_c, 0, 64, 102
1, 3348355, Note_off_c, 0, 64, 102
1, 3348512, Note_on_c, 0, 65, 92
1, 3352093, Note_off_c, 0, 65, 92
1, 3352461, Note_on_c, 0, 66, 103
1, 3355181, Note_off_c, 0, 66, 103
1, 3356076, Note_on_c, 0, 57, 97
1, 3357006, Note_off_c, 0, 57, 97
1, 3361473, Note_on_c, 0, 57, 91
1, 3362780, Note_off_c, 0, 57, 91
1, 3363028, Note_on_c, 0, 62, 97
1, 3366286, Note_off_c, 0, 62, 97
1, 3366878, Note_on_c, 0, 57, 89
1, 3367964, Note_off_c, 0, 57, 89
1, 3368141, Note_on_c, 0, 65, 97
1, 3371555, Note_off_c, 0, 65, 97
1, 3372064, Note_on_c, 0, 66, 103
1, 3373205, Note_off_c, 0, 66, 103
1, 3376924, Note_on_c, 0, 57, 96
1, 3378405, Note_off_c, 0, 57, 96
1, 3382083, Note_on_c, 0, 57, 99
1, 3383440, Note_off_c, 0, 57, 99
1, 3383662, Note_on_c, 0, 62, 97
1, 3386648, Note_off_c, 0, 62, 97
1, 3387339, Note_on_c, 0, 57, 89
1, 3388499, Note_off_c, 0, 57, 89
1, 3388721, Note_on_c, 0, 65, 96
1, 3391757, Note_off_c, 0, 65, 96
1, 3394151, Note_on_c, 0, 66, 103
1, 3396323, Note_off_c, 0, 66, 103
1, 3399458, Note_on_c, 0, 66, 94
1, 3401161, Note_off_c, 0, 66, 94
1, 3402765, Note_on_c, 0, 67, 95
1, 3404690, Note_off_c, 0, 67, 95
1, 3405035, Note_on_c, 0, 66, 94
1, 3407404, Note_off_c, 0, 66, 94
1, 3407996, Note_on_c, 0, 64, 104
1, 3409501, Note_off_c, 0, 64, 104
1, 3409970, Note_on_c, 0, 62, 96
1, 3411747, Note_off_c, 0, 62, 96
1, 3413277, Note_on_c, 0, 61, 103
1, 3414881, Note_off_c, 0, 61, 103
1, 3415448, Note_on_c, 0, 60, 102
1, 3417447, Note_off_c, 0, 60, 102
1, 3420186, Note_on_c, 0, 64, 104
1, 3422432, Note_off_c, 0, 64, 104
1, 3425381, Note_on_c, 0, 69, 108
1, 3426609, Note_off_c, 0, 69, 108
1, 3426819, Note_on_c, 0, 71, 97
1, 3430821, Note_off_c, 0, 71, 97
1, 3430996, Note_on_c, 0, 74, 115
1, 3433313, Note_off_c, 0, 74, 115
1, 3435279, Note_on_c, 0, 71, 106
1, 3436718, Note_off_c, 0, 71, 106
1, 3440299, Note_on_c, 0, 69, 96
1, 3442510, Note_off_c, 0, 69, 96
1, 3445564, Note_on_c, 0, 68, 87
1, 3446757, Note_off_c, 0, 68, 87
1, 3447424, Note_on_c, 0, 69, 79
1, 3455428, Note_off_c, 0, 69, 79
1, 3478494, Note_on_c, 0, 57, 105
1, 3479459, Note_off_c, 0, 57, 105
1, 3479599, Note_on_c, 0, 59, 102
1, 3481687, Note_off_c, 0, 59, 102
1, 3488831, Note_on_c, 0, 62, 101
1, 3495870, Note_off_c, 0, 62, 101
1, 3496133, Note_on_c, 0, 59, 91
1, 3499661, Note_off_c, 0, 59, 91
1, 3500328, Note_on_c, 0, 62, 101
1, 3507419, Note_off_c, 0, 62, 101
1, 3534909, Note_on_c, 0, 59, 98
1, 3537998, Note_off_c, 0, 59, 98
1, 3538629, Note_on_c, 0, 62, 112
1, 3540243, Note_off_c, 0, 62, 112
1, 3542243, Note_on_c, 0, 66, 116
1, 3543526, Note_off_c, 0, 66, 116
1, 3544019, Note_on_c, 0, 66, 102
1, 3546931, Note_off_c, 0, 66, 102
1, 3547209, Note_on_c, 0, 64, 102
1, 3552247, Note_off_c, 0, 64, 102
1, 3552598, Note_on_c, 0, 59, 97
1, 3558285, Note_off_c, 0, 59, 97
1, 3558758, Note_on_c, 0, 57, 94
1, 3562321, Note_off_c, 0, 57, 94
1, 3562952, Note_on_c, 0, 58, 106
1, 3566743, Note_off_c, 0, 58, 106
1, 3573922, Note_on_c, 0, 62, 111
1, 3580259, Note_off_c, 0, 62, 111
1, 3580838, Note_on_c, 0, 58, 94
1, 3584261, Note_off_c, 0, 58, 94
1, 3584410, Note_on_c, 0, 63, 116
1, 3585113, Note_off_c, 0, 63, 116
1, 3585137, Note_on_c, 0, 64, 109
1, 3588494, Note_off_c, 0, 64, 109
1, 3590296, Note_on_c, 0, 46, 103
1, 3601602, Note_off_c, 0, 46, 103
1, 3632014, Note_on_c, 0, 63, 123
1, 3634112, Note_off_c, 0, 63, 123
1, 3634186, Note_on_c, 0, 64, 102
1, 3638111, Note_off_c, 0, 64, 102
1, 3638481, Note_on_c, 0, 62, 108
1, 3643911, Note_off_c, 0, 62, 108
1, 3644775, Note_on_c, 0, 57, 87
1, 3666794, Note_off_c, 0, 57, 87
1, 3673508, Note_on_c, 0, 63, 119
1, 3674668, Note_off_c, 0, 63, 119
1, 3674890, Note_on_c, 0, 64, 102
1, 3679950, Note_off_c, 0, 64, 102
1, 3680320, Note_on_c, 0, 62, 109
1, 3685775, Note_off_c, 0, 62, 109
1, 3688144, Note_on_c, 0, 57, 100
1, 3688958, Note_off_c, 0, 57, 100
1, 3689229, Note_on_c, 0, 56, 96
1, 3705126, Note_off_c, 0, 56, 96
1, 3716456, Note_on_c, 0, 63, 127
1, 3719023, Note_off_c, 0, 63, 127
1, 3719097, Note_on_c, 0, 64, 105
1, 3722478, Note_off_c, 0, 64, 105
1, 3722798, Note_on_c, 0, 62, 110
1, 3728451, Note_off_c, 0, 62, 110
1, 3729463, Note_on_c, 0, 55, 102
1, 3741460, Note_off_c, 0, 55, 102
1, 3751250, Note_on_c, 0, 55, 109
1, 3752908, Note_off_c, 0, 55, 109
1, 3753118, Note_on_c, 0, 52, 98
1, 3754320, Note_off_c, 0, 52, 98
1, 3754469, Note_on_c, 0, 55, 106
1, 3756250, Note_off_c, 0, 55, 106
1, 3756355, Note_on_c, 0, 59, 108
1, 3757917, Note_off_c, 0, 59, 108
1, 3758039, Note_on_c, 0, 55, 100
1, 3759311, Note_off_c, 0, 55, 100
1, 3759495, Note_on_c, 0, 59, 108
1, 3761083, Note_off_c, 0, 59, 108
1, 3761407, Note_on_c, 0, 62, 117
1, 3763039, Note_off_c, 0, 62, 117
1, 3763232, Note_on_c, 0, 59, 103
1, 3764013, Note_off_c, 0, 59, 103
1, 3764261, Note_on_c, 0, 62, 119
1, 3766137, Note_off_c, 0, 62, 119
1, 3766334, Note_on_c, 0, 67, 113
1, 3767987, Note_off_c, 0, 67, 113
1, 3768531, Note_on_c, 0, 62, 81
1, 3769189, Note_off_c, 0, 62, 81
1, 3769733, Note_on_c, 0, 67, 115
1, 3771462, Note_off_c, 0, 67, 115
1, 3774033, Note_on_c, 0, 71, 108
1, 3787795, Note_off_c, 0, 71, 108
1, 3798792, Note_on_c, 0, 71, 117
1, 3800273, Note_off_c, 0, 71, 117
1, 3800495, Note_on_c, 0, 73, 115
1, 3812788, Note_off_c, 0, 73, 115
1, 3813036, Note_on_c, 0, 74, 111
1, 3858677, Note_off_c, 0, 74, 111
1, 3866120, Note_on_c, 0, 72, 125
1, 3869209, Note_off_c, 0, 72, 125
1, 3869489, Note_on_c, 0, 70, 115
1, 3875633, Note_off_c, 0, 70, 115
1, 3879986, Note_on_c, 0, 66, 112
1, 3882303, Note_off_c, 0, 66, 112
1, 3882724, Note_on_c, 0, 68, 108
1, 3889148, Note_off_c, 0, 68, 108
1, 3893361, Note_on_c, 0, 70, 113
1, 3895572, Note_off_c, 0, 70, 113
1, 3895958, Note_on_c, 0, 72, 120
1, 3899960, Note_off_c, 0, 72, 120
1, 3900240, Note_on_c, 0, 69, 111
1, 3905049, Note_off_c, 0, 69, 111
1, 3905716, Note_on_c, 0, 62, 120
1, 3907980, Note_off_c, 0, 62, 120
1, 3908173, Note_on_c, 0, 64, 118
1, 3912895, Note_off_c, 0, 64, 118
1, 3913621, Note_on_c, 0, 66, 113
1, 3915867, Note_off_c, 0, 66, 113
1, 3916064, Note_on_c, 0, 68, 106
1, 3920137, Note_off_c, 0, 68, 106
1, 3920556, Note_on_c, 0, 64, 121
1, 3922061, Note_off_c, 0, 64, 121
1, 3922307, Note_on_c, 0, 59, 104
1, 3923837, Note_off_c, 0, 59, 104
1, 3924281, Note_on_c, 0, 56, 81
1, 3934723, Note_off_c, 0, 56, 81
1, 3944276, Note_on_c, 0, 57, 102
1, 3950842, Note_off_c, 0, 57, 102
1, 3951088, Note_on_c, 0, 59, 101
1, 3957234, Note_off_c, 0, 59, 101
1, 3957999, Note_on_c, 0, 60, 112
1, 3958986, Note_off_c, 0, 60, 112
1, 3959282, Note_on_c, 0, 61, 100
1, 3964071, Note_off_c, 0, 61, 100
1, 3964391, Note_on_c, 0, 62, 101
1, 3971426, Note_off_c, 0, 62, 101
1, 3971796, Note_on_c, 0, 63, 102
1, 3978263, Note_off_c, 0, 63, 102
1, 3978583, Note_on_c, 0, 64, 88
1, 4030916, Note_off_c, 0, 64, 88
1, 4030916, End_track
0, 0, End_of_file
