0, 0, Header, 1, 1, 192
1, 0, Start_track
1, 0, Title_t, "Melody"
1, 0, Tempo, 491803
1, 0, Key_signature, -1, "major"
1, 0, Time_signature, 4, 2, 24, 8
1, 1392, Note_on_c, 0, 67, 95
1, 1428, Note_off_c, 0, 67, 95
1, 1441, Note_on_c, 0, 68, 104
1, 2680, Note_off_c, 0, 68, 104
1, 2699, Note_on_c, 0, 65, 115
1, 2748, Note_off_c, 0, 65, 115
1, 2755, Note_on_c, 0, 60, 113
1, 2798, Note_off_c, 0, 60, 113
1, 2807, Note_on_c, 0, 62, 114
1, 2867, Note_off_c, 0, 62, 114
1, 2870, Note_on_c, 0, 65, 118
1, 2920, Note_off_c, 0, 65, 118
1, 2931, Note_on_c, 0, 68, 113
1, 3020, Note_off_c, 0, 68, 113
1, 3510, Note_on_c, 0, 67, 110
1, 3532, Note_off_c, 0, 67, 110
1, 3534, Note_on_c, 0, 68, 112
1, 3866, Note_off_c, 0, 68, 112
1, 3866, Note_on_c, 0, 65, 115
1, 3921, Note_off_c, 0, 65, 115
1, 3924, Note_on_c, 0, 60, 106
1, 3953, Note_off_c, 0, 60, 106
1, 3959, Note_on_c, 0, 67, 112
1, 4005, Note_off_c, 0, 67, 112
1, 4009, Note_on_c, 0, 65, 117
1, 4040, Note_off_c, 0, 65, 117
1, 4051, Note_on_c, 0, 60, 111
1, 4104, Note_off_c, 0, 60, 111
1, 4106, Note_on_c, 0, 58, 105
1, 4132, Note_off_c, 0, 58, 105
1, 4134, Note_on_c, 0, 63, 118
1, 4187, Note_off_c, 0, 63, 118
1, 4190, Note_on_c, 0, 61, 105
1, 4217, Note_off_c, 0, 61, 105
1, 4223, Note_on_c, 0, 62, 113
1, 4273, Note_off_c, 0, 62, 113
1, 4275, Note_on_c, 0, 58, 106
1, 4306, Note_off_c, 0, 58, 106
1, 4322, Note_on_c, 0, 53, 109
1, 4383, Note_off_c, 0, 53, 109
1, 4390, Note_on_c, 0, 51, 95
1, 4417, Note_off_c, 0, 51, 95
1, 4422, Note_on_c, 0, 53, 107
1, 4463, Note_off_c, 0, 53, 107
1, 4468, Note_on_c, 0, 56, 106
1, 4514, Note_off_c, 0, 56, 106
1, 4523, Note_on_c, 0, 51, 109
1, 4559, Note_off_c, 0, 51, 109
1, 4566, Note_on_c, 0, 53, 105
1, 4607, Note_off_c, 0, 53, 105
1, 4611, Note_on_c, 0, 58, 102
1, 4642, Note_off_c, 0, 58, 102
1, 4648, Note_on_c, 0, 62, 112
1, 4696, Note_off_c, 0, 62, 112
1, 4701, Note_on_c, 0, 60, 113
1, 4730, Note_off_c, 0, 60, 113
1, 4737, Note_on_c, 0, 62, 107
1, 4776, Note_off_c, 0, 62, 107
1, 4786, Note_on_c, 0, 63, 115
1, 4826, Note_off_c, 0, 63, 115
1, 4831, Note_on_c, 0, 65, 108
1, 4858, Note_off_c, 0, 65, 108
1, 4859, Note_on_c, 0, 62, 109
1, 4938, Note_off_c, 0, 62, 109
1, 5069, Note_on_c, 0, 68, 112
1, 5209, Note_off_c, 0, 68, 112
1, 5432, Note_on_c, 0, 68, 119
1, 5562, Note_off_c, 0, 68, 119
1, 5781, Note_on_c, 0, 68, 115
1, 5838, Note_off_c, 0, 68, 115
1, 5964, Note_on_c, 0, 68, 120
1, 6016, Note_off_c, 0, 68, 120
1, 6155, Note_on_c, 0, 67, 111
1, 6220, Note_off_c, 0, 67, 111
1, 6235, Note_on_c, 0, 65, 112
1, 6316, Note_off_c, 0, 65, 112
1, 6323, Note_on_c, 0, 68, 98
1, 6350, Note_off_c, 0, 68, 98
1, 6356, Note_on_c, 0, 65, 114
1, 6397, Note_on_c, 0, 62, 113
1, 6397, Note_off_c, 0, 65, 114
1, 6481, Note_off_c, 0, 62, 113
1, 6592, Note_on_c, 0, 68, 112
1, 6703, Note_off_c, 0, 68, 112
1, 6716, Note_on_c, 0, 68, 112
1, 6763, Note_off_c, 0, 68, 112
1, 6798, Note_on_c, 0, 67, 111
1, 6817, Note_off_c, 0, 67, 111
1, 6823, Note_on_c, 0, 68, 107
1, 6894, Note_off_c, 0, 68, 107
1, 6913, Note_on_c, 0, 68, 110
1, 6969, Note_off_c, 0, 68, 110
1, 7033, Note_on_c, 0, 68, 112
1, 7096, Note_off_c, 0, 68, 112
1, 7183, Note_on_c, 0, 68, 116
1, 7252, Note_off_c, 0, 68, 116
1, 7386, Note_on_c, 0, 67, 114
1, 7399, Note_off_c, 0, 67, 114
1, 7403, Note_on_c, 0, 68, 111
1, 7461, Note_off_c, 0, 68, 111
1, 7566, Note_on_c, 0, 68, 107
1, 7626, Note_off_c, 0, 68, 107
1, 7766, Note_on_c, 0, 67, 105
1, 7796, Note_off_c, 0, 67, 105
1, 7805, Note_on_c, 0, 68, 106
1, 7878, Note_off_c, 0, 68, 106
1, 7894, Note_on_c, 0, 68, 109
1, 7941, Note_off_c, 0, 68, 109
1, 8086, Note_on_c, 0, 62, 109
1, 8131, Note_off_c, 0, 62, 109
1, 8278, Note_on_c, 0, 65, 116
1, 8324, Note_off_c, 0, 65, 116
1, 8525, Note_on_c, 0, 65, 104
1, 8598, Note_off_c, 0, 65, 104
1, 8712, Note_on_c, 0, 65, 107
1, 8796, Note_off_c, 0, 65, 107
1, 8922, Note_on_c, 0, 67, 112
1, 8955, Note_off_c, 0, 67, 112
1, 8967, Note_on_c, 0, 68, 106
1, 9031, Note_off_c, 0, 68, 106
1, 9034, Note_on_c, 0, 65, 109
1, 9099, Note_off_c, 0, 65, 109
1, 9103, Note_on_c, 0, 63, 94
1, 9217, Note_off_c, 0, 63, 94
1, 9229, Note_on_c, 0, 60, 109
1, 9281, Note_off_c, 0, 60, 109
1, 9286, Note_on_c, 0, 58, 95
1, 9411, Note_off_c, 0, 58, 95
1, 9434, Note_on_c, 0, 53, 91
1, 9471, Note_off_c, 0, 53, 91
1, 9492, Note_on_c, 0, 55, 95
1, 9513, Note_off_c, 0, 55, 95
1, 9523, Note_on_c, 0, 57, 96
1, 9601, Note_off_c, 0, 57, 96
1, 9673, Note_on_c, 0, 53, 92
1, 9796, Note_off_c, 0, 53, 92
1, 9816, Note_on_c, 0, 53, 92
1, 9843, Note_off_c, 0, 53, 92
1, 10621, Note_on_c, 0, 56, 107
1, 10648, Note_off_c, 0, 56, 107
1, 10654, Note_on_c, 0, 57, 102
1, 10718, Note_off_c, 0, 57, 102
1, 10732, Note_on_c, 0, 60, 115
1, 10792, Note_off_c, 0, 60, 115
1, 10807, Note_on_c, 0, 62, 113
1, 10924, Note_off_c, 0, 62, 113
1, 10935, Note_on_c, 0, 60, 104
1, 10983, Note_off_c, 0, 60, 104
1, 10993, Note_on_c, 0, 62, 113
1, 11123, Note_off_c, 0, 62, 113
1, 11138, Note_on_c, 0, 60, 102
1, 11184, Note_off_c, 0, 60, 102
1, 11206, Note_on_c, 0, 63, 115
1, 11296, Note_off_c, 0, 63, 115
1, 11574, Note_on_c, 0, 60, 98
1, 11762, Note_off_c, 0, 60, 98
1, 11959, Note_on_c, 0, 62, 100
1, 12072, Note_off_c, 0, 62, 100
1, 12087, Note_on_c, 0, 65, 92
1, 12134, Note_off_c, 0, 65, 92
1, 12148, Note_on_c, 0, 67, 104
1, 12211, Note_off_c, 0, 67, 104
1, 12346, Note_on_c, 0, 67, 113
1, 12374, Note_off_c, 0, 67, 113
1, 12377, Note_on_c, 0, 68, 115
1, 12477, Note_off_c, 0, 68, 115
1, 12480, Note_on_c, 0, 65, 112
1, 12518, Note_off_c, 0, 65, 112
1, 12525, Note_on_c, 0, 68, 114
1, 12564, Note_off_c, 0, 68, 114
1, 12570, Note_on_c, 0, 65, 110
1, 12585, Note_off_c, 0, 65, 110
1, 12592, Note_on_c, 0, 68, 113
1, 12630, Note_off_c, 0, 68, 113
1, 12636, Note_on_c, 0, 65, 107
1, 12659, Note_off_c, 0, 65, 107
1, 12663, Note_on_c, 0, 68, 111
1, 12698, Note_off_c, 0, 68, 111
1, 12705, Note_on_c, 0, 65, 115
1, 12722, Note_off_c, 0, 65, 115
1, 12729, Note_on_c, 0, 68, 111
1, 12762, Note_off_c, 0, 68, 111
1, 12766, Note_on_c, 0, 65, 113
1, 12785, Note_off_c, 0, 65, 113
1, 12792, Note_on_c, 0, 68, 104
1, 12822, Note_off_c, 0, 68, 104
1, 12829, Note_on_c, 0, 65, 113
1, 12848, Note_off_c, 0, 65, 113
1, 12860, Note_on_c, 0, 68, 105
1, 12888, Note_off_c, 0, 68, 105
1, 12895, Note_on_c, 0, 65, 111
1, 12914, Note_off_c, 0, 65, 111
1, 12921, Note_on_c, 0, 68, 103
1, 12951, Note_off_c, 0, 68, 103
1, 12954, Note_on_c, 0, 65, 104
1, 12968, Note_off_c, 0, 65, 104
1, 12983, Note_on_c, 0, 68, 103
1, 13008, Note_off_c, 0, 68, 103
1, 13015, Note_on_c, 0, 65, 100
1, 13034, Note_off_c, 0, 65, 100
1, 13041, Note_on_c, 0, 68, 100
1, 13061, Note_off_c, 0, 68, 100
1, 13065, Note_on_c, 0, 65, 99
1, 13079, Note_off_c, 0, 65, 99
1, 13083, Note_on_c, 0, 62, 109
1, 13153, Note_off_c, 0, 62, 109
1, 13157, Note_on_c, 0, 60, 108
1, 13200, Note_off_c, 0, 60, 108
1, 14162, Note_on_c, 0, 71, 121
1, 14189, Note_off_c, 0, 71, 121
1, 14192, Note_on_c, 0, 72, 127
1, 14219, Note_off_c, 0, 72, 127
1, 14344, Note_on_c, 0, 71, 122
1, 14396, Note_off_c, 0, 71, 122
1, 14525, Note_on_c, 0, 70, 117
1, 14590, Note_off_c, 0, 70, 117
1, 14738, Note_on_c, 0, 68, 113
1, 14820, Note_off_c, 0, 68, 113
1, 14832, Note_on_c, 0, 71, 91
1, 14854, Note_off_c, 0, 71, 91
1, 14864, Note_on_c, 0, 68, 90
1, 14918, Note_off_c, 0, 68, 90
1, 14946, Note_on_c, 0, 65, 100
1, 14984, Note_off_c, 0, 65, 100
1, 15003, Note_on_c, 0, 67, 111
1, 15100, Note_off_c, 0, 67, 111
1, 15115, Note_on_c, 0, 65, 116
1, 15170, Note_off_c, 0, 65, 116
1, 15179, Note_on_c, 0, 62, 123
1, 15204, Note_off_c, 0, 62, 123
1, 15219, Note_on_c, 0, 63, 114
1, 15303, Note_off_c, 0, 63, 114
1, 15314, Note_on_c, 0, 60, 112
1, 15363, Note_off_c, 0, 60, 112
1, 15386, Note_on_c, 0, 58, 105
1, 15444, Note_off_c, 0, 58, 105
1, 15571, Note_on_c, 0, 53, 102
1, 15623, Note_off_c, 0, 53, 102
1, 15769, Note_on_c, 0, 57, 103
1, 15861, Note_off_c, 0, 57, 103
1, 15958, Note_on_c, 0, 58, 102
1, 16032, Note_off_c, 0, 58, 102
1, 16073, Note_on_c, 0, 59, 95
1, 16131, Note_off_c, 0, 59, 95
1, 16174, Note_on_c, 0, 60, 108
1, 16250, Note_off_c, 0, 60, 108
1, 16264, Note_on_c, 0, 62, 104
1, 16308, Note_off_c, 0, 62, 104
1, 16333, Note_on_c, 0, 60, 105
1, 16428, Note_off_c, 0, 60, 105
1, 16550, Note_on_c, 0, 52, 106
1, 16636, Note_off_c, 0, 52, 106
1, 16643, Note_on_c, 0, 53, 101
1, 16684, Note_off_c, 0, 53, 101
1, 16742, Note_on_c, 0, 55, 98
1, 16796, Note_off_c, 0, 55, 98
1, 16850, Note_on_c, 0, 56, 100
1, 16907, Note_off_c, 0, 56, 100
1, 16954, Note_on_c, 0, 57, 99
1, 17046, Note_off_c, 0, 57, 99
1, 17058, Note_on_c, 0, 58, 98
1, 17128, Note_off_c, 0, 58, 98
1, 17153, Note_on_c, 0, 57, 105
1, 17208, Note_off_c, 0, 57, 105
1, 17219, Note_on_c, 0, 54, 93
1, 17274, Note_off_c, 0, 54, 93
1, 17289, Note_on_c, 0, 57, 105
1, 17355, Note_off_c, 0, 57, 105
1, 17362, Note_on_c, 0, 55, 98
1, 17408, Note_off_c, 0, 55, 98
1, 17414, Note_on_c, 0, 57, 89
1, 17444, Note_off_c, 0, 57, 89
1, 17450, Note_on_c, 0, 55, 95
1, 17485, Note_off_c, 0, 55, 95
1, 17496, Note_on_c, 0, 54, 97
1, 17542, Note_off_c, 0, 54, 97
1, 17550, Note_on_c, 0, 55, 90
1, 17704, Note_off_c, 0, 55, 90
1, 17877, Note_on_c, 0, 58, 103
1, 17907, Note_off_c, 0, 58, 103
1, 17907, Note_on_c, 0, 60, 102
1, 17959, Note_off_c, 0, 60, 102
1, 17974, Note_on_c, 0, 58, 104
1, 18015, Note_off_c, 0, 58, 104
1, 18029, Note_on_c, 0, 58, 101
1, 18065, Note_off_c, 0, 58, 101
1, 18076, Note_on_c, 0, 57, 100
1, 18136, Note_off_c, 0, 57, 100
1, 18148, Note_on_c, 0, 59, 91
1, 18286, Note_off_c, 0, 59, 91
1, 18539, Note_on_c, 0, 67, 116
1, 18559, Note_off_c, 0, 67, 116
1, 18574, Note_on_c, 0, 69, 113
1, 18655, Note_off_c, 0, 69, 113
1, 18662, Note_on_c, 0, 67, 110
1, 18711, Note_off_c, 0, 67, 110
1, 18734, Note_on_c, 0, 67, 108
1, 18789, Note_off_c, 0, 67, 108
1, 18800, Note_on_c, 0, 65, 106
1, 18844, Note_off_c, 0, 65, 106
1, 18859, Note_on_c, 0, 67, 97
1, 19144, Note_off_c, 0, 67, 97
1, 19147, Note_on_c, 0, 64, 96
1, 19183, Note_off_c, 0, 64, 96
1, 19190, Note_on_c, 0, 65, 109
1, 19237, Note_off_c, 0, 65, 109
1, 19252, Note_on_c, 0, 62, 96
1, 19296, Note_off_c, 0, 62, 96
1, 19366, Note_on_c, 0, 64, 106
1, 19415, Note_off_c, 0, 64, 106
1, 19424, Note_on_c, 0, 60, 101
1, 19462, Note_off_c, 0, 60, 101
1, 19557, Note_on_c, 0, 62, 102
1, 19617, Note_off_c, 0, 62, 102
1, 19632, Note_on_c, 0, 58, 94
1, 19668, Note_off_c, 0, 58, 94
1, 19750, Note_on_c, 0, 60, 108
1, 19799, Note_off_c, 0, 60, 108
1, 19811, Note_on_c, 0, 57, 100
1, 19866, Note_off_c, 0, 57, 100
1, 19945, Note_on_c, 0, 58, 102
1, 19992, Note_off_c, 0, 58, 102
1, 20007, Note_on_c, 0, 55, 96
1, 20048, Note_off_c, 0, 55, 96
1, 20135, Note_on_c, 0, 53, 108
1, 20509, Note_off_c, 0, 53, 108
1, 20509, End_track
0, 0, End_of_file
