0, 0, Header, 1, 1, 192
1, 0, Start_track
1, 0, Title_t, "Melody"
1, 0, Tempo, 283018
1, 0, Key_signature, -5, "major"
1, 0, Time_signature, 4, 2, 24, 8
1, 5627, Note_on_c, 0, 51, 114
1, 5707, Note_off_c, 0, 51, 114
1, 5806, Note_on_c, 0, 58, 110
1, 5969, Note_off_c, 0, 58, 110
1, 6423, Note_on_c, 0, 51, 111
1, 6521, Note_off_c, 0, 51, 111
1, 6603, Note_on_c, 0, 58, 112
1, 6725, Note_off_c, 0, 58, 112
1, 6728, Note_on_c, 0, 63, 117
1, 6805, Note_off_c, 0, 63, 117
1, 7254, Note_on_c, 0, 51, 91
1, 7321, Note_off_c, 0, 51, 91
1, 7369, Note_on_c, 0, 58, 103
1, 7498, Note_off_c, 0, 58, 103
1, 7553, Note_on_c, 0, 63, 118
1, 7716, Note_off_c, 0, 63, 118
1, 7719, Note_on_c, 0, 58, 97
1, 7758, Note_off_c, 0, 58, 97
1, 7770, Note_on_c, 0, 65, 105
1, 7976, Note_off_c, 0, 65, 105
1, 8565, Note_on_c, 0, 63, 116
1, 8690, Note_off_c, 0, 63, 116
1, 8758, Note_on_c, 0, 68, 120
1, 8878, Note_off_c, 0, 68, 120
1, 8981, Note_on_c, 0, 65, 99
1, 9094, Note_off_c, 0, 65, 99
1, 9149, Note_on_c, 0, 68, 113
1, 9281, Note_off_c, 0, 68, 113
1, 9286, Note_on_c, 0, 68, 106
1, 9360, Note_off_c, 0, 68, 106
1, 9367, Note_on_c, 0, 63, 98
1, 9478, Note_off_c, 0, 63, 98
1, 9558, Note_on_c, 0, 68, 110
1, 9697, Note_off_c, 0, 68, 110
1, 9752, Note_on_c, 0, 65, 101
1, 9872, Note_off_c, 0, 65, 101
1, 9968, Note_on_c, 0, 66, 109
1, 10045, Note_off_c, 0, 66, 109
1, 10162, Note_on_c, 0, 68, 107
1, 10268, Note_off_c, 0, 68, 107
1, 10572, Note_on_c, 0, 71, 122
1, 10656, Note_off_c, 0, 71, 122
1, 10667, Note_on_c, 0, 70, 110
1, 10701, Note_off_c, 0, 70, 110
1, 10703, Note_on_c, 0, 71, 109
1, 10725, Note_off_c, 0, 71, 109
1, 10727, Note_on_c, 0, 69, 105
1, 10750, Note_off_c, 0, 69, 105
1, 10758, Note_on_c, 0, 68, 106
1, 10835, Note_off_c, 0, 68, 106
1, 10879, Note_on_c, 0, 66, 106
1, 10953, Note_off_c, 0, 66, 106
1, 10980, Note_on_c, 0, 65, 100
1, 11060, Note_off_c, 0, 65, 100
1, 11065, Note_on_c, 0, 66, 106
1, 11144, Note_off_c, 0, 66, 106
1, 11156, Note_on_c, 0, 65, 104
1, 11249, Note_off_c, 0, 65, 104
1, 11254, Note_on_c, 0, 63, 118
1, 11340, Note_off_c, 0, 63, 118
1, 11355, Note_on_c, 0, 62, 118
1, 11439, Note_off_c, 0, 62, 118
1, 11542, Note_on_c, 0, 57, 111
1, 11672, Note_off_c, 0, 57, 111
1, 11730, Note_on_c, 0, 59, 103
1, 11829, Note_off_c, 0, 59, 103
1, 11939, Note_on_c, 0, 64, 116
1, 12052, Note_off_c, 0, 64, 116
1, 12072, Note_on_c, 0, 59, 101
1, 12106, Note_off_c, 0, 59, 101
1, 12126, Note_on_c, 0, 66, 109
1, 12224, Note_off_c, 0, 66, 109
1, 12325, Note_on_c, 0, 69, 115
1, 12423, Note_off_c, 0, 69, 115
1, 12513, Note_on_c, 0, 70, 101
1, 12790, Note_off_c, 0, 70, 101
1, 13259, Note_on_c, 0, 65, 98
1, 13295, Note_off_c, 0, 65, 98
1, 13336, Note_on_c, 0, 68, 119
1, 13427, Note_off_c, 0, 68, 119
1, 13454, Note_on_c, 0, 66, 102
1, 13507, Note_off_c, 0, 66, 102
1, 13561, Note_on_c, 0, 62, 98
1, 13608, Note_off_c, 0, 62, 98
1, 13616, Note_on_c, 0, 65, 114
1, 13683, Note_off_c, 0, 65, 114
1, 13707, Note_on_c, 0, 64, 106
1, 13800, Note_off_c, 0, 64, 106
1, 13818, Note_on_c, 0, 62, 104
1, 13866, Note_off_c, 0, 62, 104
1, 13886, Note_on_c, 0, 63, 118
1, 13992, Note_off_c, 0, 63, 118
1, 14036, Note_on_c, 0, 58, 97
1, 14082, Note_off_c, 0, 58, 97
1, 14092, Note_on_c, 0, 61, 123
1, 14191, Note_off_c, 0, 61, 123
1, 14218, Note_on_c, 0, 58, 110
1, 14283, Note_off_c, 0, 58, 110
1, 14288, Note_on_c, 0, 54, 98
1, 14394, Note_off_c, 0, 54, 98
1, 14418, Note_on_c, 0, 51, 96
1, 14443, Note_off_c, 0, 51, 96
1, 14484, Note_on_c, 0, 60, 124
1, 14599, Note_off_c, 0, 60, 124
1, 14605, Note_on_c, 0, 58, 110
1, 14673, Note_off_c, 0, 58, 110
1, 14690, Note_on_c, 0, 56, 106
1, 14764, Note_off_c, 0, 56, 106
1, 14812, Note_on_c, 0, 54, 103
1, 14889, Note_off_c, 0, 54, 103
1, 14897, Note_on_c, 0, 53, 95
1, 14964, Note_off_c, 0, 53, 95
1, 15024, Note_on_c, 0, 56, 105
1, 15077, Note_off_c, 0, 56, 105
1, 15083, Note_on_c, 0, 58, 98
1, 15167, Note_off_c, 0, 58, 98
1, 15179, Note_on_c, 0, 60, 111
1, 15251, Note_off_c, 0, 60, 111
1, 15263, Note_on_c, 0, 63, 124
1, 15373, Note_off_c, 0, 63, 124
1, 15386, Note_on_c, 0, 60, 113
1, 15477, Note_off_c, 0, 60, 113
1, 15487, Note_on_c, 0, 61, 101
1, 15543, Note_off_c, 0, 61, 101
1, 15565, Note_on_c, 0, 63, 108
1, 15640, Note_off_c, 0, 63, 108
1, 15684, Note_on_c, 0, 64, 115
1, 15744, Note_off_c, 0, 64, 115
1, 15762, Note_on_c, 0, 65, 100
1, 15837, Note_off_c, 0, 65, 100
1, 15864, Note_on_c, 0, 70, 113
1, 15965, Note_off_c, 0, 70, 113
1, 15971, Note_on_c, 0, 68, 110
1, 16051, Note_off_c, 0, 68, 110
1, 16082, Note_on_c, 0, 66, 103
1, 16159, Note_off_c, 0, 66, 103
1, 16477, Note_on_c, 0, 68, 116
1, 16575, Note_off_c, 0, 68, 116
1, 16585, Note_on_c, 0, 65, 101
1, 16624, Note_off_c, 0, 65, 101
1, 16634, Note_on_c, 0, 66, 111
1, 16713, Note_off_c, 0, 66, 111
1, 16735, Note_on_c, 0, 67, 100
1, 16762, Note_off_c, 0, 67, 100
1, 16772, Note_on_c, 0, 66, 109
1, 16820, Note_off_c, 0, 66, 109
1, 16832, Note_on_c, 0, 65, 106
1, 16933, Note_off_c, 0, 65, 106
1, 17153, Note_on_c, 0, 63, 124
1, 17242, Note_off_c, 0, 63, 124
1, 17245, Note_on_c, 0, 61, 122
1, 17343, Note_off_c, 0, 61, 122
1, 17348, Note_on_c, 0, 60, 108
1, 17403, Note_off_c, 0, 60, 108
1, 17416, Note_on_c, 0, 58, 105
1, 17515, Note_off_c, 0, 58, 105
1, 17544, Note_on_c, 0, 61, 120
1, 17618, Note_off_c, 0, 61, 120
1, 17626, Note_on_c, 0, 57, 110
1, 17689, Note_off_c, 0, 57, 110
1, 17689, Note_on_c, 0, 58, 108
1, 17809, Note_off_c, 0, 58, 108
1, 17821, Note_on_c, 0, 56, 105
1, 17915, Note_off_c, 0, 56, 105
1, 18013, Note_on_c, 0, 61, 122
1, 18126, Note_off_c, 0, 61, 122
1, 18227, Note_on_c, 0, 58, 108
1, 18321, Note_off_c, 0, 58, 108
1, 18333, Note_on_c, 0, 56, 108
1, 18408, Note_off_c, 0, 56, 108
1, 18442, Note_on_c, 0, 54, 103
1, 18519, Note_off_c, 0, 54, 103
1, 18537, Note_on_c, 0, 56, 105
1, 18597, Note_off_c, 0, 56, 105
1, 18624, Note_on_c, 0, 58, 103
1, 18737, Note_off_c, 0, 58, 103
1, 18737, Note_on_c, 0, 61, 103
1, 18797, Note_off_c, 0, 61, 103
1, 18807, Note_on_c, 0, 62, 120
1, 18906, Note_off_c, 0, 62, 120
1, 18928, Note_on_c, 0, 60, 117
1, 18991, Note_off_c, 0, 60, 117
1, 19192, Note_on_c, 0, 64, 116
1, 19300, Note_off_c, 0, 64, 116
1, 19310, Note_on_c, 0, 62, 114
1, 19380, Note_off_c, 0, 62, 114
1, 19392, Note_on_c, 0, 60, 117
1, 19495, Note_off_c, 0, 60, 117
1, 19505, Note_on_c, 0, 57, 116
1, 19591, Note_off_c, 0, 57, 116
1, 19597, Note_on_c, 0, 55, 96
1, 19684, Note_off_c, 0, 55, 96
1, 19690, Note_on_c, 0, 60, 122
1, 19788, Note_off_c, 0, 60, 122
1, 19810, Note_on_c, 0, 57, 109
1, 19956, Note_off_c, 0, 57, 109
1, 19978, Note_on_c, 0, 55, 103
1, 20064, Note_off_c, 0, 55, 103
1, 20100, Note_on_c, 0, 60, 119
1, 20182, Note_off_c, 0, 60, 119
1, 20187, Note_on_c, 0, 57, 105
1, 20307, Note_off_c, 0, 57, 105
1, 20372, Note_on_c, 0, 52, 104
1, 20475, Note_off_c, 0, 52, 104
1, 20485, Note_on_c, 0, 53, 109
1, 20534, Note_off_c, 0, 53, 109
1, 20554, Note_on_c, 0, 57, 104
1, 20645, Note_off_c, 0, 57, 104
1, 20688, Note_on_c, 0, 61, 99
1, 20729, Note_off_c, 0, 61, 99
1, 20735, Note_on_c, 0, 64, 110
1, 20859, Note_off_c, 0, 64, 110
1, 20869, Note_on_c, 0, 65, 111
1, 20931, Note_off_c, 0, 65, 111
1, 21259, Note_on_c, 0, 68, 113
1, 21442, Note_off_c, 0, 68, 113
1, 21455, Note_on_c, 0, 68, 111
1, 21638, Note_off_c, 0, 68, 111
1, 21657, Note_on_c, 0, 70, 115
1, 21847, Note_off_c, 0, 70, 115
1, 21856, Note_on_c, 0, 71, 117
1, 22043, Note_off_c, 0, 71, 117
1, 22054, Note_on_c, 0, 69, 109
1, 22118, Note_off_c, 0, 69, 109
1, 22129, Note_on_c, 0, 68, 94
1, 22217, Note_off_c, 0, 68, 94
1, 22223, Note_on_c, 0, 66, 109
1, 22305, Note_off_c, 0, 66, 109
1, 22310, Note_on_c, 0, 65, 105
1, 22406, Note_off_c, 0, 65, 105
1, 22422, Note_on_c, 0, 62, 116
1, 22530, Note_off_c, 0, 62, 116
1, 22533, Note_on_c, 0, 61, 96
1, 22574, Note_off_c, 0, 61, 96
1, 22881, Note_on_c, 0, 61, 120
1, 23008, Note_off_c, 0, 61, 120
1, 23029, Note_on_c, 0, 57, 106
1, 23093, Note_off_c, 0, 57, 106
1, 23094, Note_on_c, 0, 59, 106
1, 23186, Note_off_c, 0, 59, 106
1, 23197, Note_on_c, 0, 57, 114
1, 23277, Note_off_c, 0, 57, 114
1, 23471, Note_on_c, 0, 56, 113
1, 23581, Note_off_c, 0, 56, 113
1, 23594, Note_on_c, 0, 58, 112
1, 23664, Note_off_c, 0, 58, 112
1, 23667, Note_on_c, 0, 60, 119
1, 23789, Note_off_c, 0, 60, 119
1, 23798, Note_on_c, 0, 64, 104
1, 23849, Note_off_c, 0, 64, 104
1, 23862, Note_on_c, 0, 68, 117
1, 23970, Note_off_c, 0, 68, 117
1, 24251, Note_on_c, 0, 68, 113
1, 24357, Note_off_c, 0, 68, 113
1, 24451, Note_on_c, 0, 71, 118
1, 24545, Note_off_c, 0, 71, 118
1, 24644, Note_on_c, 0, 70, 112
1, 24679, Note_off_c, 0, 70, 112
1, 24692, Note_on_c, 0, 71, 111
1, 24841, Note_off_c, 0, 71, 111
1, 24849, Note_on_c, 0, 70, 108
1, 24945, Note_off_c, 0, 70, 108
1, 24980, Note_on_c, 0, 68, 111
1, 25066, Note_off_c, 0, 68, 111
1, 25066, Note_on_c, 0, 66, 105
1, 25156, Note_off_c, 0, 66, 105
1, 25173, Note_on_c, 0, 68, 111
1, 25259, Note_off_c, 0, 68, 111
1, 25266, Note_on_c, 0, 66, 111
1, 25330, Note_off_c, 0, 66, 111
1, 25349, Note_on_c, 0, 64, 102
1, 25427, Note_off_c, 0, 64, 102
1, 25444, Note_on_c, 0, 65, 112
1, 25538, Note_off_c, 0, 65, 112
1, 25561, Note_on_c, 0, 63, 119
1, 25645, Note_off_c, 0, 63, 119
1, 25650, Note_on_c, 0, 62, 105
1, 25730, Note_off_c, 0, 62, 105
1, 25749, Note_on_c, 0, 65, 116
1, 25823, Note_off_c, 0, 65, 116
1, 25836, Note_on_c, 0, 64, 97
1, 25920, Note_off_c, 0, 64, 97
1, 25943, Note_on_c, 0, 62, 97
1, 25994, Note_off_c, 0, 62, 97
1, 26013, Note_on_c, 0, 63, 117
1, 26139, Note_off_c, 0, 63, 117
1, 26146, Note_on_c, 0, 58, 107
1, 26216, Note_off_c, 0, 58, 107
1, 26231, Note_on_c, 0, 54, 101
1, 26303, Note_off_c, 0, 54, 101
1, 26314, Note_on_c, 0, 51, 90
1, 26365, Note_off_c, 0, 51, 90
1, 26420, Note_on_c, 0, 61, 118
1, 26514, Note_off_c, 0, 61, 118
1, 26549, Note_on_c, 0, 58, 107
1, 26604, Note_off_c, 0, 58, 107
1, 26613, Note_on_c, 0, 56, 108
1, 26677, Note_off_c, 0, 56, 108
1, 27023, Note_on_c, 0, 56, 105
1, 27103, Note_off_c, 0, 56, 105
1, 27124, Note_on_c, 0, 58, 110
1, 27202, Note_off_c, 0, 58, 110
1, 27203, Note_on_c, 0, 60, 113
1, 27311, Note_off_c, 0, 60, 113
1, 27326, Note_on_c, 0, 63, 106
1, 27396, Note_off_c, 0, 63, 106
1, 27397, Note_on_c, 0, 67, 109
1, 27517, Note_off_c, 0, 67, 109
1, 27583, Note_on_c, 0, 63, 118
1, 27712, Note_off_c, 0, 63, 118
1, 27721, Note_on_c, 0, 65, 96
1, 27785, Note_off_c, 0, 65, 96
1, 27790, Note_on_c, 0, 67, 104
1, 27876, Note_off_c, 0, 67, 104
1, 27907, Note_on_c, 0, 63, 111
1, 27977, Note_off_c, 0, 63, 111
1, 27984, Note_on_c, 0, 65, 106
1, 28094, Note_off_c, 0, 65, 106
1, 28115, Note_on_c, 0, 67, 101
1, 28185, Note_off_c, 0, 67, 101
1, 28198, Note_on_c, 0, 68, 109
1, 28282, Note_off_c, 0, 68, 109
1, 28315, Note_on_c, 0, 65, 102
1, 28372, Note_off_c, 0, 65, 102
1, 28381, Note_on_c, 0, 61, 115
1, 28491, Note_off_c, 0, 61, 115
1, 28522, Note_on_c, 0, 58, 83
1, 28555, Note_off_c, 0, 58, 83
1, 28562, Note_on_c, 0, 63, 114
1, 28699, Note_off_c, 0, 63, 114
1, 28988, Note_on_c, 0, 69, 119
1, 29088, Note_off_c, 0, 69, 119
1, 29097, Note_on_c, 0, 65, 97
1, 29150, Note_off_c, 0, 65, 97
1, 29155, Note_on_c, 0, 67, 109
1, 29286, Note_off_c, 0, 67, 109
1, 29289, Note_on_c, 0, 69, 118
1, 29371, Note_off_c, 0, 69, 118
1, 29489, Note_on_c, 0, 65, 111
1, 29559, Note_off_c, 0, 65, 111
1, 29559, Note_on_c, 0, 67, 103
1, 29663, Note_off_c, 0, 67, 103
1, 29668, Note_on_c, 0, 69, 111
1, 29734, Note_off_c, 0, 69, 111
1, 29741, Note_on_c, 0, 68, 108
1, 29880, Note_off_c, 0, 68, 108
1, 29954, Note_on_c, 0, 68, 103
1, 30103, Note_off_c, 0, 68, 103
1, 30162, Note_on_c, 0, 70, 113
1, 30280, Note_off_c, 0, 70, 113
1, 30295, Note_on_c, 0, 68, 99
1, 30336, Note_off_c, 0, 68, 99
1, 30345, Note_on_c, 0, 70, 111
1, 30500, Note_off_c, 0, 70, 111
1, 30553, Note_on_c, 0, 71, 115
1, 30673, Note_off_c, 0, 71, 115
1, 30684, Note_on_c, 0, 70, 95
1, 30725, Note_off_c, 0, 70, 95
1, 30734, Note_on_c, 0, 71, 114
1, 30852, Note_off_c, 0, 71, 114
1, 30922, Note_on_c, 0, 73, 108
1, 31069, Note_off_c, 0, 73, 108
1, 31076, Note_on_c, 0, 72, 93
1, 31111, Note_off_c, 0, 72, 93
1, 31112, Note_on_c, 0, 73, 108
1, 31289, Note_off_c, 0, 73, 108
1, 31341, Note_on_c, 0, 73, 110
1, 31392, Note_off_c, 0, 73, 110
1, 31404, Note_on_c, 0, 74, 114
1, 31543, Note_off_c, 0, 74, 114
1, 31545, Note_on_c, 0, 73, 114
1, 31659, Note_off_c, 0, 73, 114
1, 31659, Note_on_c, 0, 71, 111
1, 31737, Note_off_c, 0, 71, 111
1, 31744, Note_on_c, 0, 70, 102
1, 32023, Note_off_c, 0, 70, 102
1, 32466, Note_on_c, 0, 65, 100
1, 32503, Note_off_c, 0, 65, 100
1, 32564, Note_on_c, 0, 68, 113
1, 32650, Note_off_c, 0, 68, 113
1, 32665, Note_on_c, 0, 66, 111
1, 32726, Note_off_c, 0, 66, 111
1, 32737, Note_on_c, 0, 62, 113
1, 32827, Note_off_c, 0, 62, 113
1, 32866, Note_on_c, 0, 58, 98
1, 32911, Note_off_c, 0, 58, 98
1, 32911, Note_on_c, 0, 65, 108
1, 33052, Note_off_c, 0, 65, 108
1, 33053, Note_on_c, 0, 63, 121
1, 33133, Note_off_c, 0, 63, 121
1, 33142, Note_on_c, 0, 58, 102
1, 33234, Note_off_c, 0, 58, 102
1, 33254, Note_on_c, 0, 55, 87
1, 33309, Note_off_c, 0, 55, 87
1, 33331, Note_on_c, 0, 61, 122
1, 33416, Note_off_c, 0, 61, 122
1, 33416, Note_on_c, 0, 63, 113
1, 33518, Note_off_c, 0, 63, 113
1, 33520, Note_on_c, 0, 60, 120
1, 33639, Note_off_c, 0, 60, 120
1, 33639, Note_on_c, 0, 58, 107
1, 33722, Note_off_c, 0, 58, 107
1, 33730, Note_on_c, 0, 56, 99
1, 33846, Note_off_c, 0, 56, 99
1, 33915, Note_on_c, 0, 56, 105
1, 34034, Note_off_c, 0, 56, 105
1, 34133, Note_on_c, 0, 61, 116
1, 34279, Note_off_c, 0, 61, 116
1, 34279, Note_on_c, 0, 58, 97
1, 34323, Note_off_c, 0, 58, 97
1, 34331, Note_on_c, 0, 61, 119
1, 34447, Note_off_c, 0, 61, 119
1, 34447, Note_on_c, 0, 58, 107
1, 34510, Note_off_c, 0, 58, 107
1, 34510, Note_on_c, 0, 64, 118
1, 34615, Note_off_c, 0, 64, 118
1, 34628, Note_on_c, 0, 65, 110
1, 34719, Note_off_c, 0, 65, 110
1, 34724, Note_on_c, 0, 66, 115
1, 34845, Note_off_c, 0, 66, 115
1, 34845, Note_on_c, 0, 65, 114
1, 34933, Note_off_c, 0, 65, 114
1, 35027, Note_on_c, 0, 61, 122
1, 35110, Note_off_c, 0, 61, 122
1, 35115, Note_on_c, 0, 58, 101
1, 35250, Note_off_c, 0, 58, 101
1, 35258, Note_on_c, 0, 55, 90
1, 35293, Note_off_c, 0, 55, 90
1, 35304, Note_on_c, 0, 63, 122
1, 35439, Note_off_c, 0, 63, 122
1, 35452, Note_on_c, 0, 58, 95
1, 35499, Note_off_c, 0, 58, 95
1, 35504, Note_on_c, 0, 63, 107
1, 35758, Note_off_c, 0, 63, 107
1, 36871, Note_on_c, 0, 69, 119
1, 36998, Note_off_c, 0, 69, 119
1, 36998, Note_on_c, 0, 71, 118
1, 37083, Note_off_c, 0, 71, 118
1, 37085, Note_on_c, 0, 73, 118
1, 37226, Note_off_c, 0, 73, 118
1, 37226, Note_on_c, 0, 69, 95
1, 37270, Note_off_c, 0, 69, 95
1, 37281, Note_on_c, 0, 71, 120
1, 37427, Note_off_c, 0, 71, 120
1, 37435, Note_on_c, 0, 69, 114
1, 37515, Note_off_c, 0, 69, 114
1, 37700, Note_on_c, 0, 68, 120
1, 37813, Note_off_c, 0, 68, 120
1, 37813, Note_on_c, 0, 70, 106
1, 37890, Note_off_c, 0, 70, 106
1, 37903, Note_on_c, 0, 72, 115
1, 38005, Note_off_c, 0, 72, 115
1, 38010, Note_on_c, 0, 68, 93
1, 38051, Note_off_c, 0, 68, 93
1, 38056, Note_on_c, 0, 70, 116
1, 38213, Note_off_c, 0, 70, 116
1, 38224, Note_on_c, 0, 68, 117
1, 38287, Note_off_c, 0, 68, 117
1, 38480, Note_on_c, 0, 69, 111
1, 38590, Note_off_c, 0, 69, 111
1, 38684, Note_on_c, 0, 73, 116
1, 38794, Note_off_c, 0, 73, 116
1, 38810, Note_on_c, 0, 69, 106
1, 38881, Note_off_c, 0, 69, 106
1, 38892, Note_on_c, 0, 64, 110
1, 38999, Note_off_c, 0, 64, 110
1, 38999, Note_on_c, 0, 59, 101
1, 39059, Note_off_c, 0, 59, 101
1, 39089, Note_on_c, 0, 66, 106
1, 39163, Note_off_c, 0, 66, 106
1, 39187, Note_on_c, 0, 64, 119
1, 39264, Note_off_c, 0, 64, 119
1, 39383, Note_on_c, 0, 68, 116
1, 39460, Note_off_c, 0, 68, 116
1, 39484, Note_on_c, 0, 65, 108
1, 39555, Note_off_c, 0, 65, 108
1, 39568, Note_on_c, 0, 61, 122
1, 39648, Note_off_c, 0, 61, 122
1, 39653, Note_on_c, 0, 58, 99
1, 39769, Note_off_c, 0, 58, 99
1, 39793, Note_on_c, 0, 55, 94
1, 39826, Note_off_c, 0, 55, 94
1, 39826, Note_on_c, 0, 63, 119
1, 39972, Note_off_c, 0, 63, 119
1, 40043, Note_on_c, 0, 60, 122
1, 40145, Note_off_c, 0, 60, 122
1, 40145, Note_on_c, 0, 63, 116
1, 40258, Note_off_c, 0, 63, 116
1, 40258, Note_on_c, 0, 60, 106
1, 40354, Note_off_c, 0, 60, 106
1, 40354, Note_on_c, 0, 58, 9
1, 40434, Note_off_c, 0, 58, 9
1, 40436, Note_on_c, 0, 56, 9
1, 40546, Note_off_c, 0, 56, 9
1, 40562, Note_on_c, 0, 58, 113
1, 40631, Note_off_c, 0, 58, 113
1, 40631, Note_on_c, 0, 60, 115
1, 40750, Note_on_c, 0, 63, 97
1, 40750, Note_off_c, 0, 60, 115
1, 40827, Note_off_c, 0, 63, 97
1, 40851, Note_on_c, 0, 68, 122
1, 40942, Note_off_c, 0, 68, 122
1, 40964, Note_on_c, 0, 68, 104
1, 41033, Note_off_c, 0, 68, 104
1, 41063, Note_on_c, 0, 67, 102
1, 41129, Note_off_c, 0, 67, 102
1, 41156, Note_on_c, 0, 67, 108
1, 41219, Note_off_c, 0, 67, 108
1, 41263, Note_on_c, 0, 66, 103
1, 41318, Note_off_c, 0, 66, 103
1, 41342, Note_on_c, 0, 66, 102
1, 41413, Note_off_c, 0, 66, 102
1, 41446, Note_on_c, 0, 65, 103
1, 41504, Note_off_c, 0, 65, 103
1, 41515, Note_on_c, 0, 65, 105
1, 41589, Note_off_c, 0, 65, 105
1, 41613, Note_on_c, 0, 63, 123
1, 41701, Note_off_c, 0, 63, 123
1, 41714, Note_on_c, 0, 63, 119
1, 41808, Note_off_c, 0, 63, 119
1, 41821, Note_on_c, 0, 58, 103
1, 41917, Note_off_c, 0, 58, 103
1, 41925, Note_on_c, 0, 58, 93
1, 42013, Note_off_c, 0, 58, 93
1, 42024, Note_on_c, 0, 61, 118
1, 42209, Note_off_c, 0, 61, 118
1, 42527, Note_on_c, 0, 58, 101
1, 42612, Note_off_c, 0, 58, 101
1, 42642, Note_on_c, 0, 63, 113
1, 42677, Note_off_c, 0, 63, 113
1, 42681, Note_on_c, 0, 65, 107
1, 42724, Note_off_c, 0, 65, 107
1, 42726, Note_on_c, 0, 70, 116
1, 42795, Note_off_c, 0, 70, 116
1, 42797, Note_on_c, 0, 68, 119
1, 42996, Note_off_c, 0, 68, 119
1, 43009, Note_on_c, 0, 70, 112
1, 43139, Note_off_c, 0, 70, 112
1, 43197, Note_on_c, 0, 65, 113
1, 43293, Note_off_c, 0, 65, 113
1, 43400, Note_on_c, 0, 61, 122
1, 43527, Note_off_c, 0, 61, 122
1, 43621, Note_on_c, 0, 63, 118
1, 43734, Note_off_c, 0, 63, 118
1, 43747, Note_on_c, 0, 65, 104
1, 43788, Note_off_c, 0, 65, 104
1, 44031, Note_on_c, 0, 65, 113
1, 44094, Note_off_c, 0, 65, 113
1, 44202, Note_on_c, 0, 62, 125
1, 44282, Note_off_c, 0, 62, 125
1, 44406, Note_on_c, 0, 64, 117
1, 44516, Note_off_c, 0, 64, 117
1, 44834, Note_on_c, 0, 64, 120
1, 44953, Note_off_c, 0, 64, 120
1, 44964, Note_on_c, 0, 55, 89
1, 45005, Note_off_c, 0, 55, 89
1, 45029, Note_on_c, 0, 60, 113
1, 45150, Note_off_c, 0, 60, 113
1, 45163, Note_on_c, 0, 55, 85
1, 45196, Note_off_c, 0, 55, 85
1, 45212, Note_on_c, 0, 62, 124
1, 45331, Note_off_c, 0, 62, 124
1, 45350, Note_on_c, 0, 64, 110
1, 45405, Note_off_c, 0, 64, 110
1, 45629, Note_on_c, 0, 64, 118
1, 45725, Note_off_c, 0, 64, 118
1, 45736, Note_on_c, 0, 60, 115
1, 45819, Note_off_c, 0, 60, 115
1, 45830, Note_on_c, 0, 62, 121
1, 45926, Note_off_c, 0, 62, 121
1, 45939, Note_on_c, 0, 64, 119
1, 46024, Note_off_c, 0, 64, 119
1, 46228, Note_on_c, 0, 64, 112
1, 46352, Note_off_c, 0, 64, 112
1, 46399, Note_on_c, 0, 68, 109
1, 46540, Note_off_c, 0, 68, 109
1, 46595, Note_on_c, 0, 64, 111
1, 46716, Note_off_c, 0, 64, 111
1, 46751, Note_on_c, 0, 59, 101
1, 46789, Note_off_c, 0, 59, 101
1, 46791, Note_on_c, 0, 66, 108
1, 46912, Note_off_c, 0, 66, 108
1, 46936, Note_on_c, 0, 68, 112
1, 46999, Note_off_c, 0, 68, 112
1, 47201, Note_on_c, 0, 71, 122
1, 47311, Note_off_c, 0, 71, 122
1, 47327, Note_on_c, 0, 68, 98
1, 47376, Note_off_c, 0, 68, 98
1, 47384, Note_on_c, 0, 69, 115
1, 47497, Note_off_c, 0, 69, 115
1, 47508, Note_on_c, 0, 71, 116
1, 47596, Note_off_c, 0, 71, 116
1, 47717, Note_on_c, 0, 69, 113
1, 47783, Note_off_c, 0, 69, 113
1, 47879, Note_on_c, 0, 68, 108
1, 47939, Note_off_c, 0, 68, 108
1, 48027, Note_on_c, 0, 64, 109
1, 48121, Note_off_c, 0, 64, 109
1, 48137, Note_on_c, 0, 66, 105
1, 48181, Note_off_c, 0, 66, 105
1, 48283, Note_on_c, 0, 68, 112
1, 48368, Note_off_c, 0, 68, 112
1, 48439, Note_on_c, 0, 66, 107
1, 48513, Note_off_c, 0, 66, 107
1, 48648, Note_on_c, 0, 65, 109
1, 48725, Note_off_c, 0, 65, 109
1, 48725, Note_on_c, 0, 61, 111
1, 48772, Note_off_c, 0, 61, 111
1, 48882, Note_on_c, 0, 63, 117
1, 48992, Note_off_c, 0, 63, 117
1, 49008, Note_on_c, 0, 65, 97
1, 49115, Note_off_c, 0, 65, 97
1, 49164, Note_on_c, 0, 61, 121
1, 49263, Note_off_c, 0, 61, 121
1, 49263, Note_on_c, 0, 63, 103
1, 49337, Note_off_c, 0, 63, 103
1, 49395, Note_on_c, 0, 65, 112
1, 49533, Note_off_c, 0, 65, 112
1, 49549, Note_on_c, 0, 61, 116
1, 49609, Note_off_c, 0, 61, 116
1, 49700, Note_on_c, 0, 59, 105
1, 49796, Note_off_c, 0, 59, 105
1, 49834, Note_on_c, 0, 56, 89
1, 49886, Note_off_c, 0, 56, 89
1, 49944, Note_on_c, 0, 59, 103
1, 50060, Note_off_c, 0, 59, 103
1, 50060, Note_on_c, 0, 56, 97
1, 50118, Note_off_c, 0, 56, 97
1, 50209, Note_on_c, 0, 59, 102
1, 50330, Note_off_c, 0, 59, 102
1, 50335, Note_on_c, 0, 56, 88
1, 50431, Note_off_c, 0, 56, 88
1, 50450, Note_on_c, 0, 58, 98
1, 50693, Note_off_c, 0, 58, 98
1, 51111, Note_on_c, 0, 69, 108
1, 51144, Note_off_c, 0, 69, 108
1, 51160, Note_on_c, 0, 71, 107
1, 51184, Note_off_c, 0, 71, 107
1, 51208, Note_on_c, 0, 69, 100
1, 51224, Note_off_c, 0, 69, 100
1, 51243, Note_on_c, 0, 66, 104
1, 51281, Note_off_c, 0, 66, 104
1, 51314, Note_on_c, 0, 69, 113
1, 51352, Note_off_c, 0, 69, 113
1, 51363, Note_on_c, 0, 71, 99
1, 51387, Note_off_c, 0, 71, 99
1, 51403, Note_on_c, 0, 69, 100
1, 51427, Note_off_c, 0, 69, 100
1, 51441, Note_on_c, 0, 66, 92
1, 51476, Note_off_c, 0, 66, 92
1, 51497, Note_on_c, 0, 69, 107
1, 51534, Note_off_c, 0, 69, 107
1, 51535, Note_on_c, 0, 71, 101
1, 51576, Note_off_c, 0, 71, 101
1, 51577, Note_on_c, 0, 69, 106
1, 51606, Note_off_c, 0, 69, 106
1, 51625, Note_on_c, 0, 66, 91
1, 51670, Note_off_c, 0, 66, 91
1, 51709, Note_on_c, 0, 69, 112
1, 51738, Note_off_c, 0, 69, 112
1, 51743, Note_on_c, 0, 71, 99
1, 51766, Note_off_c, 0, 71, 99
1, 51781, Note_on_c, 0, 69, 93
1, 51822, Note_off_c, 0, 69, 93
1, 51829, Note_on_c, 0, 66, 92
1, 51878, Note_off_c, 0, 66, 92
1, 51901, Note_on_c, 0, 69, 99
1, 52038, Note_off_c, 0, 69, 99
1, 52051, Note_on_c, 0, 66, 97
1, 52117, Note_off_c, 0, 66, 97
1, 52131, Note_on_c, 0, 70, 106
1, 52235, Note_off_c, 0, 70, 106
1, 52869, Note_on_c, 0, 67, 110
1, 52979, Note_off_c, 0, 67, 110
1, 52986, Note_on_c, 0, 70, 107
1, 53076, Note_off_c, 0, 70, 107
1, 53081, Note_on_c, 0, 67, 98
1, 53173, Note_off_c, 0, 67, 98
1, 53188, Note_on_c, 0, 65, 116
1, 53254, Note_off_c, 0, 65, 116
1, 53257, Note_on_c, 0, 63, 123
1, 53386, Note_off_c, 0, 63, 123
1, 53386, Note_on_c, 0, 58, 110
1, 53456, Note_off_c, 0, 58, 110
1, 53477, Note_on_c, 0, 56, 103
1, 53557, Note_off_c, 0, 56, 103
1, 53574, Note_on_c, 0, 58, 109
1, 53656, Note_off_c, 0, 58, 109
1, 53677, Note_on_c, 0, 60, 105
1, 53791, Note_off_c, 0, 60, 105
1, 53885, Note_on_c, 0, 63, 125
1, 53969, Note_off_c, 0, 63, 125
1, 53996, Note_on_c, 0, 60, 109
1, 54057, Note_off_c, 0, 60, 109
1, 54064, Note_on_c, 0, 61, 118
1, 54146, Note_off_c, 0, 61, 118
1, 54155, Note_on_c, 0, 63, 125
1, 54265, Note_off_c, 0, 63, 125
1, 54290, Note_on_c, 0, 65, 107
1, 54358, Note_off_c, 0, 65, 107
1, 54381, Note_on_c, 0, 67, 100
1, 54445, Note_off_c, 0, 67, 100
1, 54456, Note_on_c, 0, 70, 105
1, 54552, Note_off_c, 0, 70, 105
1, 54555, Note_on_c, 0, 75, 110
1, 54631, Note_off_c, 0, 75, 110
1, 54631, Note_on_c, 0, 77, 117
1, 54664, Note_off_c, 0, 77, 117
1, 54671, Note_on_c, 0, 79, 113
1, 54939, Note_off_c, 0, 79, 113
1, 54947, Note_on_c, 0, 80, 106
1, 55317, Note_off_c, 0, 80, 106
1, 56506, Note_on_c, 0, 53, 119
1, 56559, Note_off_c, 0, 53, 119
1, 56568, Note_on_c, 0, 56, 114
1, 56629, Note_off_c, 0, 56, 114
1, 56629, Note_on_c, 0, 53, 107
1, 56680, Note_off_c, 0, 53, 107
1, 56683, Note_on_c, 0, 56, 108
1, 56757, Note_off_c, 0, 56, 108
1, 56768, Note_on_c, 0, 61, 118
1, 56831, Note_off_c, 0, 61, 118
1, 56838, Note_on_c, 0, 58, 107
1, 56887, Note_off_c, 0, 58, 107
1, 56887, Note_on_c, 0, 61, 118
1, 56946, Note_off_c, 0, 61, 118
1, 56965, Note_on_c, 0, 65, 114
1, 57016, Note_off_c, 0, 65, 114
1, 57031, Note_on_c, 0, 61, 115
1, 57060, Note_off_c, 0, 61, 115
1, 57071, Note_on_c, 0, 65, 112
1, 57132, Note_off_c, 0, 65, 112
1, 57147, Note_on_c, 0, 68, 107
1, 57200, Note_off_c, 0, 68, 107
1, 57209, Note_on_c, 0, 65, 108
1, 57248, Note_off_c, 0, 65, 108
1, 57249, Note_on_c, 0, 68, 108
1, 57310, Note_off_c, 0, 68, 108
1, 57331, Note_on_c, 0, 66, 102
1, 57561, Note_off_c, 0, 66, 102
1, 58102, Note_on_c, 0, 66, 113
1, 58174, Note_off_c, 0, 66, 113
1, 58266, Note_on_c, 0, 70, 117
1, 58360, Note_off_c, 0, 70, 117
1, 58458, Note_on_c, 0, 68, 114
1, 58544, Note_off_c, 0, 68, 114
1, 58861, Note_on_c, 0, 72, 122
1, 58975, Note_off_c, 0, 72, 122
1, 59254, Note_on_c, 0, 69, 117
1, 59340, Note_off_c, 0, 69, 117
1, 59367, Note_on_c, 0, 67, 102
1, 59465, Note_off_c, 0, 67, 102
1, 59638, Note_on_c, 0, 65, 115
1, 59732, Note_off_c, 0, 65, 115
1, 59736, Note_on_c, 0, 60, 112
1, 59821, Note_off_c, 0, 60, 112
1, 59826, Note_on_c, 0, 57, 112
1, 59936, Note_off_c, 0, 57, 112
1, 59938, Note_on_c, 0, 53, 98
1, 59990, Note_off_c, 0, 53, 98
1, 59990, Note_on_c, 0, 61, 125
1, 60125, Note_off_c, 0, 61, 125
1, 60316, Note_on_c, 0, 62, 107
1, 60382, Note_off_c, 0, 62, 107
1, 60395, Note_on_c, 0, 63, 123
1, 60522, Note_off_c, 0, 63, 123
1, 60524, Note_on_c, 0, 61, 113
1, 60584, Note_off_c, 0, 61, 113
1, 60589, Note_on_c, 0, 63, 125
1, 60696, Note_off_c, 0, 63, 125
1, 60720, Note_on_c, 0, 62, 115
1, 60769, Note_off_c, 0, 62, 115
1, 60769, Note_on_c, 0, 64, 119
1, 60857, Note_off_c, 0, 64, 119
1, 60873, Note_on_c, 0, 61, 125
1, 60947, Note_off_c, 0, 61, 125
1, 60958, Note_on_c, 0, 57, 109
1, 61043, Note_off_c, 0, 57, 109
1, 61054, Note_on_c, 0, 54, 97
1, 61142, Note_off_c, 0, 54, 97
1, 61146, Note_on_c, 0, 59, 106
1, 61259, Note_off_c, 0, 59, 106
1, 61272, Note_on_c, 0, 55, 99
1, 61327, Note_off_c, 0, 55, 99
1, 61343, Note_on_c, 0, 56, 105
1, 61417, Note_off_c, 0, 56, 105
1, 61450, Note_on_c, 0, 58, 111
1, 61513, Note_off_c, 0, 58, 111
1, 61540, Note_on_c, 0, 59, 103
1, 61609, Note_off_c, 0, 59, 103
1, 61636, Note_on_c, 0, 64, 115
1, 61719, Note_off_c, 0, 64, 115
1, 61735, Note_on_c, 0, 65, 105
1, 61809, Note_off_c, 0, 65, 105
1, 61828, Note_on_c, 0, 67, 103
1, 61891, Note_off_c, 0, 67, 103
1, 61926, Note_on_c, 0, 68, 93
1, 61984, Note_off_c, 0, 68, 93
1, 62014, Note_on_c, 0, 70, 77
1, 62077, Note_off_c, 0, 70, 77
1, 62104, Note_on_c, 0, 71, 110
1, 62170, Note_off_c, 0, 71, 110
1, 62205, Note_on_c, 0, 70, 109
1, 62285, Note_off_c, 0, 70, 109
1, 62296, Note_on_c, 0, 66, 107
1, 62379, Note_off_c, 0, 66, 107
1, 62379, Note_on_c, 0, 62, 106
1, 62456, Note_off_c, 0, 62, 106
1, 62469, Note_on_c, 0, 63, 119
1, 62579, Note_off_c, 0, 63, 119
1, 62609, Note_on_c, 0, 67, 105
1, 62766, Note_off_c, 0, 67, 105
1, 62788, Note_on_c, 0, 65, 115
1, 62862, Note_off_c, 0, 65, 115
1, 62870, Note_on_c, 0, 63, 119
1, 62950, Note_off_c, 0, 63, 119
1, 62985, Note_on_c, 0, 58, 115
1, 63032, Note_off_c, 0, 58, 115
1, 63032, Note_on_c, 0, 54, 103
1, 63159, Note_off_c, 0, 54, 103
1, 63175, Note_on_c, 0, 58, 105
1, 63216, Note_off_c, 0, 58, 105
1, 63218, Note_on_c, 0, 61, 121
1, 63342, Note_off_c, 0, 61, 121
1, 63380, Note_on_c, 0, 58, 102
1, 63410, Note_off_c, 0, 58, 102
1, 63412, Note_on_c, 0, 60, 112
1, 63625, Note_off_c, 0, 60, 112
1, 64167, Note_on_c, 0, 63, 122
1, 64255, Note_off_c, 0, 63, 122
1, 64257, Note_on_c, 0, 61, 119
1, 64295, Note_off_c, 0, 61, 119
1, 64305, Note_on_c, 0, 58, 110
1, 64349, Note_off_c, 0, 58, 110
1, 64360, Note_on_c, 0, 56, 104
1, 64418, Note_off_c, 0, 56, 104
1, 64481, Note_on_c, 0, 63, 126
1, 64544, Note_off_c, 0, 63, 126
1, 64546, Note_on_c, 0, 61, 116
1, 64579, Note_off_c, 0, 61, 116
1, 64587, Note_on_c, 0, 59, 110
1, 64620, Note_off_c, 0, 59, 110
1, 64642, Note_on_c, 0, 56, 108
1, 64697, Note_off_c, 0, 56, 108
1, 64716, Note_on_c, 0, 63, 122
1, 64843, Note_off_c, 0, 63, 122
1, 64859, Note_on_c, 0, 60, 119
1, 64936, Note_off_c, 0, 60, 119
1, 64944, Note_on_c, 0, 58, 105
1, 65010, Note_off_c, 0, 58, 105
1, 65026, Note_on_c, 0, 56, 85
1, 65067, Note_off_c, 0, 56, 85
1, 65089, Note_on_c, 0, 60, 113
1, 65246, Note_off_c, 0, 60, 113
1, 65326, Note_on_c, 0, 56, 102
1, 65397, Note_off_c, 0, 56, 102
1, 65491, Note_on_c, 0, 60, 119
1, 65623, Note_off_c, 0, 60, 119
1, 65710, Note_on_c, 0, 58, 103
1, 65746, Note_off_c, 0, 58, 103
1, 65750, Note_on_c, 0, 58, 98
1, 65783, Note_off_c, 0, 58, 98
1, 65841, Note_on_c, 0, 61, 117
1, 65984, Note_off_c, 0, 61, 117
1, 66004, Note_on_c, 0, 58, 100
1, 66039, Note_off_c, 0, 58, 100
1, 66039, Note_on_c, 0, 60, 113
1, 66180, Note_off_c, 0, 60, 113
1, 66191, Note_on_c, 0, 58, 98
1, 66234, Note_off_c, 0, 58, 98
1, 66234, Note_on_c, 0, 63, 120
1, 66352, Note_off_c, 0, 63, 120
1, 66371, Note_on_c, 0, 58, 101
1, 66410, Note_off_c, 0, 58, 101
1, 66421, Note_on_c, 0, 65, 105
1, 66574, Note_off_c, 0, 65, 105
1, 66856, Note_on_c, 0, 66, 108
1, 66922, Note_off_c, 0, 66, 108
1, 66946, Note_on_c, 0, 66, 105
1, 67015, Note_off_c, 0, 66, 105
1, 67026, Note_on_c, 0, 65, 107
1, 67109, Note_off_c, 0, 65, 107
1, 67119, Note_on_c, 0, 63, 116
1, 67197, Note_off_c, 0, 63, 116
1, 67228, Note_on_c, 0, 61, 116
1, 67306, Note_off_c, 0, 61, 116
1, 67329, Note_on_c, 0, 63, 109
1, 67376, Note_off_c, 0, 63, 109
1, 67379, Note_on_c, 0, 65, 111
1, 67464, Note_off_c, 0, 65, 111
1, 67508, Note_on_c, 0, 70, 93
1, 67552, Note_off_c, 0, 70, 93
1, 67587, Note_on_c, 0, 73, 110
1, 67700, Note_off_c, 0, 73, 110
1, 67700, Note_on_c, 0, 70, 105
1, 67758, Note_off_c, 0, 70, 105
1, 67877, Note_on_c, 0, 70, 115
1, 67954, Note_off_c, 0, 70, 115
1, 68064, Note_on_c, 0, 68, 112
1, 68155, Note_off_c, 0, 68, 112
1, 68238, Note_on_c, 0, 70, 112
1, 68321, Note_off_c, 0, 70, 112
1, 68442, Note_on_c, 0, 68, 106
1, 68519, Note_off_c, 0, 68, 106
1, 68618, Note_on_c, 0, 69, 108
1, 68689, Note_off_c, 0, 69, 108
1, 68805, Note_on_c, 0, 72, 121
1, 68871, Note_off_c, 0, 72, 121
1, 69014, Note_on_c, 0, 70, 107
1, 69080, Note_off_c, 0, 70, 107
1, 69176, Note_on_c, 0, 72, 117
1, 69250, Note_off_c, 0, 72, 117
1, 69380, Note_on_c, 0, 72, 115
1, 69454, Note_off_c, 0, 72, 115
1, 69564, Note_on_c, 0, 69, 107
1, 69613, Note_off_c, 0, 69, 107
1, 69815, Note_on_c, 0, 72, 124
1, 69903, Note_off_c, 0, 72, 124
1, 69958, Note_on_c, 0, 65, 91
1, 69993, Note_off_c, 0, 65, 91
1, 70031, Note_on_c, 0, 69, 103
1, 70105, Note_off_c, 0, 69, 103
1, 70196, Note_on_c, 0, 69, 107
1, 70284, Note_off_c, 0, 69, 107
1, 70383, Note_on_c, 0, 72, 113
1, 70457, Note_off_c, 0, 72, 113
1, 70678, Note_on_c, 0, 69, 109
1, 70747, Note_off_c, 0, 69, 109
1, 70868, Note_on_c, 0, 69, 118
1, 70951, Note_off_c, 0, 69, 118
1, 71058, Note_on_c, 0, 71, 123
1, 71152, Note_off_c, 0, 71, 123
1, 71257, Note_on_c, 0, 68, 105
1, 71315, Note_off_c, 0, 68, 105
1, 71431, Note_on_c, 0, 71, 120
1, 71533, Note_off_c, 0, 71, 120
1, 71624, Note_on_c, 0, 69, 105
1, 71690, Note_off_c, 0, 69, 105
1, 71806, Note_on_c, 0, 68, 110
1, 71894, Note_off_c, 0, 68, 110
1, 71988, Note_on_c, 0, 71, 120
1, 72071, Note_off_c, 0, 71, 120
1, 72184, Note_on_c, 0, 69, 111
1, 72244, Note_off_c, 0, 69, 111
1, 72371, Note_on_c, 0, 68, 111
1, 72431, Note_off_c, 0, 68, 111
1, 72552, Note_on_c, 0, 64, 106
1, 72615, Note_off_c, 0, 64, 106
1, 72742, Note_on_c, 0, 66, 103
1, 72794, Note_off_c, 0, 66, 103
1, 72918, Note_on_c, 0, 68, 115
1, 72987, Note_off_c, 0, 68, 115
1, 73100, Note_on_c, 0, 67, 103
1, 73130, Note_off_c, 0, 67, 103
1, 73134, Note_on_c, 0, 65, 116
1, 73186, Note_off_c, 0, 65, 116
1, 73289, Note_on_c, 0, 61, 122
1, 73363, Note_off_c, 0, 61, 122
1, 73468, Note_on_c, 0, 63, 112
1, 73562, Note_off_c, 0, 63, 112
1, 73653, Note_on_c, 0, 65, 104
1, 73722, Note_off_c, 0, 65, 104
1, 73846, Note_on_c, 0, 68, 117
1, 73909, Note_off_c, 0, 68, 117
1, 74044, Note_on_c, 0, 61, 115
1, 74104, Note_off_c, 0, 61, 115
1, 74225, Note_on_c, 0, 63, 121
1, 74330, Note_off_c, 0, 63, 121
1, 74426, Note_on_c, 0, 65, 112
1, 74536, Note_off_c, 0, 65, 112
1, 74677, Note_on_c, 0, 68, 113
1, 74779, Note_off_c, 0, 68, 113
1, 74914, Note_on_c, 0, 61, 117
1, 75013, Note_off_c, 0, 61, 117
1, 75177, Note_on_c, 0, 63, 117
1, 75278, Note_off_c, 0, 63, 117
1, 75480, Note_on_c, 0, 65, 111
1, 75589, Note_off_c, 0, 65, 111
1, 75823, Note_on_c, 0, 69, 107
1, 76116, Note_off_c, 0, 69, 107
1, 76829, Note_on_c, 0, 68, 121
1, 76920, Note_off_c, 0, 68, 121
1, 76933, Note_on_c, 0, 67, 113
1, 76999, Note_off_c, 0, 67, 113
1, 77137, Note_on_c, 0, 70, 121
1, 77208, Note_off_c, 0, 70, 121
1, 77227, Note_on_c, 0, 67, 112
1, 77279, Note_off_c, 0, 67, 112
1, 77312, Note_on_c, 0, 63, 123
1, 77381, Note_off_c, 0, 63, 123
1, 77389, Note_on_c, 0, 65, 110
1, 77460, Note_off_c, 0, 65, 110
1, 77473, Note_on_c, 0, 67, 110
1, 77544, Note_off_c, 0, 67, 110
1, 77552, Note_on_c, 0, 63, 115
1, 77615, Note_off_c, 0, 63, 115
1, 77653, Note_on_c, 0, 65, 119
1, 77730, Note_off_c, 0, 65, 119
1, 77743, Note_on_c, 0, 63, 124
1, 77798, Note_off_c, 0, 63, 124
1, 77809, Note_on_c, 0, 58, 109
1, 77858, Note_off_c, 0, 58, 109
1, 77863, Note_on_c, 0, 55, 110
1, 77898, Note_off_c, 0, 55, 110
1, 77950, Note_on_c, 0, 64, 116
1, 78016, Note_off_c, 0, 64, 116
1, 78051, Note_on_c, 0, 69, 108
1, 78131, Note_off_c, 0, 69, 108
1, 78197, Note_on_c, 0, 66, 107
1, 78238, Note_off_c, 0, 66, 107
1, 78240, Note_on_c, 0, 64, 106
1, 78306, Note_off_c, 0, 64, 106
1, 78333, Note_on_c, 0, 59, 103
1, 78374, Note_off_c, 0, 59, 103
1, 78415, Note_on_c, 0, 64, 110
1, 78478, Note_off_c, 0, 64, 110
1, 78478, Note_on_c, 0, 61, 119
1, 78561, Note_off_c, 0, 61, 119
1, 78566, Note_on_c, 0, 59, 107
1, 78599, Note_off_c, 0, 59, 107
1, 78618, Note_on_c, 0, 57, 107
1, 78698, Note_off_c, 0, 57, 107
1, 78712, Note_on_c, 0, 54, 103
1, 78783, Note_off_c, 0, 54, 103
1, 78801, Note_on_c, 0, 59, 106
1, 78875, Note_off_c, 0, 59, 106
1, 78928, Note_on_c, 0, 52, 111
1, 78955, Note_off_c, 0, 52, 111
1, 78964, Note_on_c, 0, 54, 105
1, 79009, Note_off_c, 0, 54, 105
1, 79046, Note_on_c, 0, 59, 100
1, 79093, Note_off_c, 0, 59, 100
1, 79094, Note_on_c, 0, 57, 107
1, 79137, Note_off_c, 0, 57, 107
1, 79182, Note_on_c, 0, 59, 100
1, 79223, Note_off_c, 0, 59, 100
1, 79228, Note_on_c, 0, 58, 105
1, 79269, Note_off_c, 0, 58, 105
1, 79272, Note_on_c, 0, 70, 106
1, 79317, Note_off_c, 0, 70, 106
1, 79328, Note_on_c, 0, 65, 101
1, 79381, Note_off_c, 0, 65, 101
1, 79412, Note_on_c, 0, 67, 106
1, 79492, Note_off_c, 0, 67, 106
1, 79497, Note_on_c, 0, 65, 98
1, 79569, Note_off_c, 0, 65, 98
1, 79586, Note_on_c, 0, 63, 119
1, 79633, Note_off_c, 0, 63, 119
1, 79650, Note_on_c, 0, 58, 105
1, 79689, Note_off_c, 0, 58, 105
1, 79734, Note_on_c, 0, 63, 121
1, 79814, Note_off_c, 0, 63, 121
1, 79821, Note_on_c, 0, 61, 116
1, 79878, Note_off_c, 0, 61, 116
1, 79887, Note_on_c, 0, 58, 105
1, 79942, Note_off_c, 0, 58, 105
1, 79971, Note_on_c, 0, 54, 106
1, 80016, Note_off_c, 0, 54, 106
1, 80033, Note_on_c, 0, 52, 110
1, 80064, Note_off_c, 0, 52, 110
1, 80099, Note_on_c, 0, 56, 111
1, 80132, Note_off_c, 0, 56, 111
1, 80145, Note_on_c, 0, 54, 103
1, 80178, Note_off_c, 0, 54, 103
1, 80197, Note_on_c, 0, 46, 110
1, 80232, Note_off_c, 0, 46, 110
1, 80247, Note_on_c, 0, 51, 113
1, 80294, Note_off_c, 0, 51, 113
1, 80323, Note_on_c, 0, 46, 119
1, 80376, Note_off_c, 0, 46, 119
1, 80409, Note_on_c, 0, 44, 127
1, 80468, Note_off_c, 0, 44, 127
1, 80997, Note_on_c, 0, 46, 119
1, 81089, Note_off_c, 0, 46, 119
1, 81112, Note_on_c, 0, 53, 111
1, 81159, Note_off_c, 0, 53, 111
1, 81174, Note_on_c, 0, 58, 104
1, 81317, Note_off_c, 0, 58, 104
1, 81370, Note_on_c, 0, 70, 109
1, 81480, Note_off_c, 0, 70, 109
1, 81507, Note_on_c, 0, 65, 107
1, 81562, Note_off_c, 0, 65, 107
1, 81573, Note_on_c, 0, 58, 100
1, 81681, Note_off_c, 0, 58, 100
1, 81749, Note_on_c, 0, 63, 103
1, 81827, Note_off_c, 0, 63, 103
1, 81860, Note_on_c, 0, 58, 114
1, 81940, Note_off_c, 0, 58, 114
1, 81963, Note_on_c, 0, 63, 102
1, 82033, Note_off_c, 0, 63, 102
1, 82046, Note_on_c, 0, 68, 106
1, 82110, Note_off_c, 0, 68, 106
1, 82127, Note_on_c, 0, 68, 107
1, 82213, Note_off_c, 0, 68, 107
1, 82230, Note_on_c, 0, 68, 110
1, 82281, Note_off_c, 0, 68, 110
1, 82292, Note_on_c, 0, 66, 101
1, 82394, Note_off_c, 0, 66, 101
1, 82419, Note_on_c, 0, 63, 120
1, 82485, Note_off_c, 0, 63, 120
1, 82492, Note_on_c, 0, 58, 101
1, 82602, Note_off_c, 0, 58, 101
1, 82663, Note_on_c, 0, 63, 119
1, 82796, Note_off_c, 0, 63, 119
1, 82819, Note_on_c, 0, 58, 102
1, 82872, Note_off_c, 0, 58, 102
1, 82895, Note_on_c, 0, 60, 115
1, 83015, Note_off_c, 0, 60, 115
1, 83087, Note_on_c, 0, 61, 117
1, 83167, Note_off_c, 0, 61, 117
1, 83275, Note_on_c, 0, 63, 115
1, 83349, Note_off_c, 0, 63, 115
1, 83443, Note_on_c, 0, 65, 112
1, 83541, Note_off_c, 0, 65, 112
1, 83647, Note_on_c, 0, 66, 110
1, 83735, Note_off_c, 0, 66, 110
1, 83772, Note_on_c, 0, 68, 96
1, 83825, Note_off_c, 0, 68, 96
1, 83832, Note_on_c, 0, 70, 104
1, 83936, Note_off_c, 0, 70, 104
1, 83945, Note_on_c, 0, 66, 113
1, 84031, Note_off_c, 0, 66, 113
1, 84052, Note_on_c, 0, 65, 105
1, 84189, Note_off_c, 0, 65, 105
1, 84196, Note_on_c, 0, 63, 106
1, 84300, Note_off_c, 0, 63, 106
1, 84323, Note_on_c, 0, 65, 118
1, 84407, Note_off_c, 0, 65, 118
1, 84785, Note_on_c, 0, 71, 108
1, 84873, Note_off_c, 0, 71, 108
1, 84876, Note_on_c, 0, 70, 108
1, 84907, Note_off_c, 0, 70, 108
1, 84914, Note_on_c, 0, 69, 111
1, 84967, Note_off_c, 0, 69, 111
1, 84978, Note_on_c, 0, 68, 112
1, 85050, Note_off_c, 0, 68, 112
1, 85079, Note_on_c, 0, 66, 107
1, 85140, Note_off_c, 0, 66, 107
1, 85153, Note_on_c, 0, 65, 103
1, 85223, Note_off_c, 0, 65, 103
1, 85244, Note_on_c, 0, 63, 126
1, 85320, Note_off_c, 0, 63, 126
1, 85339, Note_on_c, 0, 62, 118
1, 85411, Note_off_c, 0, 62, 118
1, 85442, Note_on_c, 0, 59, 107
1, 85508, Note_off_c, 0, 59, 107
1, 85519, Note_on_c, 0, 58, 107
1, 85601, Note_off_c, 0, 58, 107
1, 85630, Note_on_c, 0, 56, 111
1, 85681, Note_off_c, 0, 56, 111
1, 85704, Note_on_c, 0, 54, 103
1, 85808, Note_off_c, 0, 54, 103
1, 85817, Note_on_c, 0, 56, 108
1, 85895, Note_off_c, 0, 56, 108
1, 85908, Note_on_c, 0, 58, 95
1, 85992, Note_off_c, 0, 58, 95
1, 86025, Note_on_c, 0, 61, 116
1, 86088, Note_off_c, 0, 61, 116
1, 86095, Note_on_c, 0, 58, 101
1, 86178, Note_off_c, 0, 58, 101
1, 86195, Note_on_c, 0, 59, 103
1, 86251, Note_off_c, 0, 59, 103
1, 86257, Note_on_c, 0, 63, 115
1, 86369, Note_off_c, 0, 63, 115
1, 86374, Note_on_c, 0, 66, 90
1, 86442, Note_off_c, 0, 66, 90
1, 86449, Note_on_c, 0, 67, 108
1, 86537, Note_off_c, 0, 67, 108
1, 86550, Note_on_c, 0, 69, 115
1, 86599, Note_off_c, 0, 69, 115
1, 86604, Note_on_c, 0, 68, 113
1, 86708, Note_off_c, 0, 68, 113
1, 87013, Note_on_c, 0, 68, 114
1, 87095, Note_off_c, 0, 68, 114
1, 87120, Note_on_c, 0, 70, 107
1, 87179, Note_off_c, 0, 70, 107
1, 87190, Note_on_c, 0, 71, 110
1, 87314, Note_off_c, 0, 71, 110
1, 87327, Note_on_c, 0, 69, 94
1, 87374, Note_off_c, 0, 69, 94
1, 87385, Note_on_c, 0, 70, 104
1, 87463, Note_off_c, 0, 70, 104
1, 87718, Note_on_c, 0, 65, 95
1, 87759, Note_off_c, 0, 65, 95
1, 87794, Note_on_c, 0, 68, 118
1, 87892, Note_off_c, 0, 68, 118
1, 87895, Note_on_c, 0, 66, 100
1, 87934, Note_off_c, 0, 66, 100
1, 87934, Note_on_c, 0, 65, 105
1, 87965, Note_off_c, 0, 65, 105
1, 87980, Note_on_c, 0, 61, 116
1, 88076, Note_off_c, 0, 61, 116
1, 88113, Note_on_c, 0, 58, 103
1, 88148, Note_off_c, 0, 58, 103
1, 88149, Note_on_c, 0, 62, 120
1, 88243, Note_off_c, 0, 62, 120
1, 88327, Note_on_c, 0, 65, 113
1, 88454, Note_off_c, 0, 65, 113
1, 88454, Note_on_c, 0, 63, 119
1, 88532, Note_off_c, 0, 63, 119
1, 88532, Note_on_c, 0, 58, 105
1, 88628, Note_off_c, 0, 58, 105
1, 88655, Note_on_c, 0, 54, 96
1, 88706, Note_off_c, 0, 54, 96
1, 88715, Note_on_c, 0, 61, 118
1, 88821, Note_off_c, 0, 61, 118
1, 88828, Note_on_c, 0, 63, 118
1, 88918, Note_off_c, 0, 63, 118
1, 88923, Note_on_c, 0, 60, 109
1, 89013, Note_off_c, 0, 60, 109
1, 89016, Note_on_c, 0, 63, 121
1, 89086, Note_off_c, 0, 63, 121
1, 89107, Note_on_c, 0, 60, 111
1, 89215, Note_off_c, 0, 60, 111
1, 89215, Note_on_c, 0, 58, 108
1, 89285, Note_off_c, 0, 58, 108
1, 89314, Note_on_c, 0, 56, 97
1, 89386, Note_off_c, 0, 56, 97
1, 89391, Note_on_c, 0, 63, 119
1, 89481, Note_off_c, 0, 63, 119
1, 89490, Note_on_c, 0, 60, 111
1, 89564, Note_off_c, 0, 60, 111
1, 89564, Note_on_c, 0, 63, 121
1, 89672, Note_off_c, 0, 63, 121
1, 89679, Note_on_c, 0, 60, 102
1, 89757, Note_off_c, 0, 60, 102
1, 89776, Note_on_c, 0, 58, 107
1, 89835, Note_off_c, 0, 58, 107
1, 89852, Note_on_c, 0, 56, 106
1, 89922, Note_off_c, 0, 56, 106
1, 89953, Note_on_c, 0, 63, 120
1, 90031, Note_off_c, 0, 63, 120
1, 90036, Note_on_c, 0, 60, 108
1, 90136, Note_off_c, 0, 60, 108
1, 90141, Note_on_c, 0, 63, 117
1, 90229, Note_off_c, 0, 63, 117
1, 90256, Note_on_c, 0, 58, 103
1, 90303, Note_off_c, 0, 58, 103
1, 90535, Note_on_c, 0, 63, 123
1, 90623, Note_off_c, 0, 63, 123
1, 90624, Note_on_c, 0, 60, 112
1, 90712, Note_off_c, 0, 60, 112
1, 90713, Note_on_c, 0, 63, 119
1, 90787, Note_off_c, 0, 63, 119
1, 90787, Note_on_c, 0, 61, 117
1, 90871, Note_off_c, 0, 61, 117
1, 90898, Note_on_c, 0, 63, 122
1, 90976, Note_off_c, 0, 63, 122
1, 90977, Note_on_c, 0, 61, 117
1, 91063, Note_off_c, 0, 61, 117
1, 91078, Note_on_c, 0, 63, 118
1, 91162, Note_off_c, 0, 63, 118
1, 91167, Note_on_c, 0, 59, 101
1, 91253, Note_off_c, 0, 59, 101
1, 91274, Note_on_c, 0, 63, 118
1, 91366, Note_off_c, 0, 63, 118
1, 91369, Note_on_c, 0, 59, 102
1, 91439, Note_off_c, 0, 59, 102
1, 91458, Note_on_c, 0, 63, 113
1, 91524, Note_off_c, 0, 63, 113
1, 91539, Note_on_c, 0, 58, 108
1, 91623, Note_off_c, 0, 58, 108
1, 91640, Note_on_c, 0, 63, 114
1, 91710, Note_off_c, 0, 63, 114
1, 91715, Note_on_c, 0, 58, 104
1, 91791, Note_off_c, 0, 58, 104
1, 92052, Note_on_c, 0, 63, 122
1, 92116, Note_off_c, 0, 63, 122
1, 92121, Note_on_c, 0, 58, 105
1, 92215, Note_off_c, 0, 58, 105
1, 92215, Note_on_c, 0, 63, 123
1, 92287, Note_off_c, 0, 63, 123
1, 92312, Note_on_c, 0, 58, 105
1, 92390, Note_off_c, 0, 58, 105
1, 92409, Note_on_c, 0, 63, 119
1, 92487, Note_off_c, 0, 63, 119
1, 92498, Note_on_c, 0, 58, 106
1, 92574, Note_off_c, 0, 58, 106
1, 92583, Note_on_c, 0, 63, 117
1, 92665, Note_off_c, 0, 63, 117
1, 92672, Note_on_c, 0, 58, 108
1, 92748, Note_off_c, 0, 58, 108
1, 92759, Note_on_c, 0, 62, 109
1, 92833, Note_off_c, 0, 62, 109
1, 92834, Note_on_c, 0, 58, 103
1, 92922, Note_off_c, 0, 58, 103
1, 92941, Note_on_c, 0, 62, 109
1, 93013, Note_off_c, 0, 62, 109
1, 93040, Note_on_c, 0, 58, 105
1, 93130, Note_off_c, 0, 58, 105
1, 93145, Note_on_c, 0, 62, 112
1, 93223, Note_off_c, 0, 62, 112
1, 93223, Note_on_c, 0, 58, 102
1, 93313, Note_off_c, 0, 58, 102
1, 93519, Note_on_c, 0, 60, 122
1, 93605, Note_off_c, 0, 60, 122
1, 93616, Note_on_c, 0, 55, 104
1, 93686, Note_off_c, 0, 55, 104
1, 93686, Note_on_c, 0, 60, 115
1, 93792, Note_off_c, 0, 60, 115
1, 93793, Note_on_c, 0, 55, 102
1, 93873, Note_off_c, 0, 55, 102
1, 93904, Note_on_c, 0, 60, 115
1, 93976, Note_off_c, 0, 60, 115
1, 93977, Note_on_c, 0, 57, 105
1, 94071, Note_off_c, 0, 57, 105
1, 94071, Note_on_c, 0, 60, 118
1, 94155, Note_off_c, 0, 60, 118
1, 94172, Note_on_c, 0, 57, 107
1, 94240, Note_off_c, 0, 57, 107
1, 94261, Note_on_c, 0, 60, 110
1, 94345, Note_off_c, 0, 60, 110
1, 94354, Note_on_c, 0, 55, 100
1, 94430, Note_off_c, 0, 55, 100
1, 94443, Note_on_c, 0, 60, 114
1, 94531, Note_off_c, 0, 60, 114
1, 94544, Note_on_c, 0, 53, 103
1, 94634, Note_off_c, 0, 53, 103
1, 94634, Note_on_c, 0, 60, 116
1, 94708, Note_off_c, 0, 60, 116
1, 94727, Note_on_c, 0, 52, 106
1, 94821, Note_off_c, 0, 52, 106
1, 95045, Note_on_c, 0, 59, 111
1, 95086, Note_off_c, 0, 59, 111
1, 95115, Note_on_c, 0, 56, 109
1, 95199, Note_off_c, 0, 56, 109
1, 95212, Note_on_c, 0, 59, 107
1, 95290, Note_off_c, 0, 59, 107
1, 95299, Note_on_c, 0, 56, 112
1, 95377, Note_off_c, 0, 56, 112
1, 95402, Note_on_c, 0, 59, 104
1, 95468, Note_off_c, 0, 59, 104
1, 95487, Note_on_c, 0, 54, 106
1, 95581, Note_off_c, 0, 54, 106
1, 95602, Note_on_c, 0, 59, 103
1, 95655, Note_off_c, 0, 59, 103
1, 95666, Note_on_c, 0, 56, 108
1, 95750, Note_off_c, 0, 56, 108
1, 95761, Note_on_c, 0, 59, 103
1, 95837, Note_off_c, 0, 59, 103
1, 95850, Note_on_c, 0, 57, 108
1, 95938, Note_off_c, 0, 57, 108
1, 95957, Note_on_c, 0, 59, 105
1, 96021, Note_off_c, 0, 59, 105
1, 96024, Note_on_c, 0, 56, 109
1, 96108, Note_off_c, 0, 56, 109
1, 96324, Note_on_c, 0, 56, 117
1, 96379, Note_off_c, 0, 56, 117
1, 96388, Note_on_c, 0, 57, 112
1, 96466, Note_off_c, 0, 57, 112
1, 96708, Note_on_c, 0, 55, 106
1, 96796, Note_off_c, 0, 55, 106
1, 96896, Note_on_c, 0, 53, 112
1, 97002, Note_off_c, 0, 53, 112
1, 97065, Note_on_c, 0, 53, 103
1, 97131, Note_off_c, 0, 53, 103
1, 97142, Note_on_c, 0, 54, 103
1, 97177, Note_off_c, 0, 54, 103
1, 97180, Note_on_c, 0, 57, 104
1, 97235, Note_off_c, 0, 57, 104
1, 97244, Note_on_c, 0, 53, 101
1, 97342, Note_off_c, 0, 53, 101
1, 97349, Note_on_c, 0, 54, 106
1, 97425, Note_off_c, 0, 54, 106
1, 97454, Note_on_c, 0, 56, 109
1, 97520, Note_off_c, 0, 56, 109
1, 97553, Note_on_c, 0, 58, 105
1, 97627, Note_off_c, 0, 58, 105
1, 97658, Note_on_c, 0, 59, 104
1, 97717, Note_off_c, 0, 59, 104
1, 97720, Note_on_c, 0, 61, 113
1, 97810, Note_off_c, 0, 61, 113
1, 97835, Note_on_c, 0, 63, 120
1, 97911, Note_off_c, 0, 63, 120
1, 97934, Note_on_c, 0, 65, 110
1, 98008, Note_off_c, 0, 65, 110
1, 98021, Note_on_c, 0, 65, 115
1, 98095, Note_off_c, 0, 65, 115
1, 98120, Note_on_c, 0, 66, 114
1, 98222, Note_off_c, 0, 66, 114
1, 98222, Note_on_c, 0, 64, 109
1, 98283, Note_off_c, 0, 64, 109
1, 98300, Note_on_c, 0, 65, 116
1, 98390, Note_off_c, 0, 65, 116
1, 98390, Note_on_c, 0, 61, 122
1, 98470, Note_off_c, 0, 61, 122
1, 98491, Note_on_c, 0, 58, 101
1, 98569, Note_off_c, 0, 58, 101
1, 98592, Note_on_c, 0, 55, 88
1, 98645, Note_off_c, 0, 55, 88
1, 98684, Note_on_c, 0, 63, 124
1, 98770, Note_off_c, 0, 63, 124
1, 98775, Note_on_c, 0, 61, 119
1, 98849, Note_off_c, 0, 61, 119
1, 98870, Note_on_c, 0, 60, 111
1, 98974, Note_off_c, 0, 60, 111
1, 98979, Note_on_c, 0, 58, 108
1, 99045, Note_off_c, 0, 58, 108
1, 99060, Note_on_c, 0, 56, 108
1, 99136, Note_off_c, 0, 56, 108
1, 99252, Note_on_c, 0, 65, 107
1, 99418, Note_off_c, 0, 65, 107
1, 99426, Note_on_c, 0, 63, 105
1, 99678, Note_off_c, 0, 63, 105
1, 100926, Note_on_c, 0, 69, 121
1, 101048, Note_off_c, 0, 69, 121
1, 101057, Note_on_c, 0, 72, 125
1, 101311, Note_off_c, 0, 72, 125
1, 101314, Note_on_c, 0, 69, 116
1, 101424, Note_off_c, 0, 69, 116
1, 101424, Note_on_c, 0, 65, 112
1, 101518, Note_off_c, 0, 65, 112
1, 101878, Note_on_c, 0, 68, 118
1, 102015, Note_off_c, 0, 68, 118
1, 102015, Note_on_c, 0, 72, 118
1, 102272, Note_off_c, 0, 72, 118
1, 102297, Note_on_c, 0, 68, 116
1, 102367, Note_off_c, 0, 68, 116
1, 102381, Note_on_c, 0, 69, 114
1, 102481, Note_off_c, 0, 69, 114
1, 102844, Note_on_c, 0, 72, 116
1, 102952, Note_off_c, 0, 72, 116
1, 102955, Note_on_c, 0, 69, 114
1, 103181, Note_off_c, 0, 69, 114
1, 103190, Note_on_c, 0, 65, 114
1, 103302, Note_off_c, 0, 65, 114
1, 103329, Note_on_c, 0, 68, 113
1, 103415, Note_off_c, 0, 68, 113
1, 103769, Note_on_c, 0, 68, 117
1, 103900, Note_off_c, 0, 68, 117
1, 103915, Note_on_c, 0, 71, 116
1, 104163, Note_on_c, 0, 68, 118
1, 104163, Note_off_c, 0, 71, 116
1, 104287, Note_off_c, 0, 68, 118
1, 104302, Note_on_c, 0, 65, 119
1, 104378, Note_off_c, 0, 65, 119
1, 104726, Note_on_c, 0, 68, 118
1, 104860, Note_off_c, 0, 68, 118
1, 104861, Note_on_c, 0, 71, 121
1, 105113, Note_off_c, 0, 71, 121
1, 105113, Note_on_c, 0, 68, 113
1, 105225, Note_off_c, 0, 68, 113
1, 105248, Note_on_c, 0, 70, 114
1, 105322, Note_off_c, 0, 70, 114
1, 105720, Note_on_c, 0, 70, 119
1, 105840, Note_off_c, 0, 70, 119
1, 105843, Note_on_c, 0, 67, 103
1, 105871, Note_off_c, 0, 67, 103
1, 105878, Note_on_c, 0, 69, 112
1, 105956, Note_off_c, 0, 69, 112
1, 105987, Note_on_c, 0, 73, 115
1, 106077, Note_off_c, 0, 73, 115
1, 106088, Note_on_c, 0, 69, 110
1, 106214, Note_off_c, 0, 69, 110
1, 106229, Note_on_c, 0, 64, 101
1, 106288, Note_off_c, 0, 64, 101
1, 106288, Note_on_c, 0, 71, 107
1, 106378, Note_off_c, 0, 71, 107
1, 106389, Note_on_c, 0, 66, 108
1, 106471, Note_off_c, 0, 66, 108
1, 106478, Note_on_c, 0, 61, 118
1, 106560, Note_off_c, 0, 61, 118
1, 106583, Note_on_c, 0, 59, 99
1, 106638, Note_off_c, 0, 59, 99
1, 106685, Note_on_c, 0, 66, 114
1, 106774, Note_off_c, 0, 66, 114
1, 106774, Note_on_c, 0, 61, 118
1, 106848, Note_off_c, 0, 61, 118
1, 106970, Note_on_c, 0, 67, 110
1, 107036, Note_off_c, 0, 67, 110
1, 107067, Note_on_c, 0, 67, 124
1, 107114, Note_off_c, 0, 67, 124
1, 107153, Note_on_c, 0, 67, 111
1, 107208, Note_on_c, 0, 65, 114
1, 107208, Note_off_c, 0, 67, 111
1, 107302, Note_off_c, 0, 65, 114
1, 107329, Note_on_c, 0, 63, 121
1, 107411, Note_off_c, 0, 63, 121
1, 107411, Note_on_c, 0, 58, 107
1, 107493, Note_off_c, 0, 58, 107
1, 107524, Note_on_c, 0, 63, 123
1, 107583, Note_off_c, 0, 63, 123
1, 107583, Note_on_c, 0, 60, 116
1, 107709, Note_off_c, 0, 60, 116
1, 107799, Note_on_c, 0, 61, 121
1, 107917, Note_off_c, 0, 61, 121
1, 107972, Note_on_c, 0, 63, 126
1, 108054, Note_off_c, 0, 63, 126
1, 108164, Note_on_c, 0, 65, 112
1, 108250, Note_off_c, 0, 65, 112
1, 108490, Note_on_c, 0, 65, 112
1, 108558, Note_off_c, 0, 65, 112
1, 108603, Note_on_c, 0, 64, 100
1, 108658, Note_off_c, 0, 64, 100
1, 108675, Note_on_c, 0, 67, 115
1, 108741, Note_off_c, 0, 67, 115
1, 108758, Note_on_c, 0, 62, 111
1, 108817, Note_off_c, 0, 62, 111
1, 108829, Note_on_c, 0, 64, 105
1, 108870, Note_off_c, 0, 64, 105
1, 108870, Note_on_c, 0, 66, 108
1, 108931, Note_off_c, 0, 66, 108
1, 108932, Note_on_c, 0, 60, 111
1, 109004, Note_off_c, 0, 60, 111
1, 109004, Note_on_c, 0, 62, 101
1, 109039, Note_off_c, 0, 62, 101
1, 109048, Note_on_c, 0, 64, 116
1, 109111, Note_off_c, 0, 64, 116
1, 109116, Note_on_c, 0, 58, 108
1, 109177, Note_off_c, 0, 58, 108
1, 109188, Note_on_c, 0, 60, 114
1, 109233, Note_off_c, 0, 60, 114
1, 109234, Note_on_c, 0, 62, 112
1, 109279, Note_off_c, 0, 62, 112
1, 109296, Note_on_c, 0, 56, 107
1, 109359, Note_off_c, 0, 56, 107
1, 109376, Note_on_c, 0, 58, 108
1, 109415, Note_off_c, 0, 58, 108
1, 109420, Note_on_c, 0, 60, 113
1, 109484, Note_off_c, 0, 60, 113
1, 109495, Note_on_c, 0, 56, 99
1, 109540, Note_off_c, 0, 56, 99
1, 109551, Note_on_c, 0, 54, 102
1, 109598, Note_off_c, 0, 54, 102
1, 109598, Note_on_c, 0, 58, 105
1, 109651, Note_off_c, 0, 58, 105
1, 109668, Note_on_c, 0, 52, 103
1, 109727, Note_off_c, 0, 52, 103
1, 109734, Note_on_c, 0, 54, 102
1, 109787, Note_off_c, 0, 54, 102
1, 109792, Note_on_c, 0, 55, 106
1, 109845, Note_off_c, 0, 55, 106
1, 109860, Note_on_c, 0, 50, 111
1, 109923, Note_off_c, 0, 50, 111
1, 109924, Note_on_c, 0, 52, 110
1, 109965, Note_off_c, 0, 52, 110
1, 109968, Note_on_c, 0, 54, 108
1, 110034, Note_off_c, 0, 54, 108
1, 110041, Note_on_c, 0, 48, 110
1, 110121, Note_off_c, 0, 48, 110
1, 110432, Note_on_c, 0, 49, 116
1, 110520, Note_off_c, 0, 49, 116
1, 110531, Note_on_c, 0, 51, 107
1, 110597, Note_off_c, 0, 51, 107
1, 110600, Note_on_c, 0, 53, 112
1, 110678, Note_off_c, 0, 53, 112
1, 110720, Note_on_c, 0, 56, 112
1, 110805, Note_off_c, 0, 56, 112
1, 110818, Note_on_c, 0, 54, 110
1, 110904, Note_off_c, 0, 54, 110
1, 111138, Note_on_c, 0, 52, 119
1, 111187, Note_off_c, 0, 52, 119
1, 111208, Note_on_c, 0, 53, 105
1, 111304, Note_off_c, 0, 53, 105
1, 111309, Note_on_c, 0, 51, 112
1, 111370, Note_off_c, 0, 51, 112
1, 111401, Note_on_c, 0, 50, 107
1, 111473, Note_off_c, 0, 50, 107
1, 111494, Note_on_c, 0, 53, 117
1, 111553, Note_off_c, 0, 53, 117
1, 111570, Note_on_c, 0, 52, 109
1, 111666, Note_off_c, 0, 52, 109
1, 111685, Note_on_c, 0, 50, 106
1, 111740, Note_off_c, 0, 50, 106
1, 111779, Note_on_c, 0, 51, 114
1, 111855, Note_off_c, 0, 51, 114
1, 111876, Note_on_c, 0, 53, 107
1, 111929, Note_off_c, 0, 53, 107
1, 111964, Note_on_c, 0, 54, 105
1, 112034, Note_off_c, 0, 54, 105
1, 112061, Note_on_c, 0, 56, 108
1, 112125, Note_off_c, 0, 56, 108
1, 112150, Note_on_c, 0, 58, 104
1, 112232, Note_off_c, 0, 58, 104
1, 112259, Note_on_c, 0, 61, 106
1, 112310, Note_off_c, 0, 61, 106
1, 112310, Note_on_c, 0, 65, 113
1, 112420, Note_off_c, 0, 65, 113
1, 112435, Note_on_c, 0, 63, 119
1, 112523, Note_off_c, 0, 63, 119
1, 112540, Note_on_c, 0, 62, 111
1, 112610, Note_off_c, 0, 62, 111
1, 112621, Note_on_c, 0, 63, 110
1, 112693, Note_off_c, 0, 63, 110
1, 112727, Note_on_c, 0, 68, 104
1, 112869, Note_off_c, 0, 68, 104
1, 113608, Note_on_c, 0, 44, 125
1, 113771, Note_off_c, 0, 44, 125
1, 113779, Note_on_c, 0, 46, 117
1, 113956, Note_off_c, 0, 46, 117
1, 113964, Note_on_c, 0, 48, 107
1, 114160, Note_off_c, 0, 48, 107
1, 114170, Note_on_c, 0, 49, 112
1, 114325, Note_off_c, 0, 49, 112
1, 114339, Note_on_c, 0, 51, 111
1, 114485, Note_off_c, 0, 51, 111
1, 114513, Note_on_c, 0, 53, 104
1, 114670, Note_off_c, 0, 53, 104
1, 114686, Note_on_c, 0, 54, 106
1, 114849, Note_off_c, 0, 54, 106
1, 114873, Note_on_c, 0, 56, 107
1, 115036, Note_off_c, 0, 56, 107
1, 115060, Note_on_c, 0, 58, 106
1, 115181, Note_off_c, 0, 58, 106
1, 115455, Note_on_c, 0, 59, 109
1, 115621, Note_off_c, 0, 59, 109
1, 115634, Note_on_c, 0, 61, 118
1, 115797, Note_off_c, 0, 61, 118
1, 115819, Note_on_c, 0, 63, 119
1, 116007, Note_off_c, 0, 63, 119
1, 116023, Note_on_c, 0, 65, 114
1, 116180, Note_off_c, 0, 65, 114
1, 116191, Note_on_c, 0, 66, 109
1, 116362, Note_off_c, 0, 66, 109
1, 116395, Note_on_c, 0, 68, 103
1, 116563, Note_off_c, 0, 68, 103
1, 116568, Note_on_c, 0, 70, 105
1, 116781, Note_off_c, 0, 70, 105
1, 116781, Note_on_c, 0, 72, 110
1, 116955, Note_off_c, 0, 72, 110
1, 116974, Note_on_c, 0, 73, 113
1, 117057, Note_off_c, 0, 73, 113
1, 117380, Note_on_c, 0, 75, 114
1, 117507, Note_off_c, 0, 75, 114
1, 117529, Note_on_c, 0, 77, 110
1, 117675, Note_off_c, 0, 77, 110
1, 117697, Note_on_c, 0, 79, 126
1, 117890, Note_off_c, 0, 79, 126
1, 117890, Note_on_c, 0, 81, 121
1, 118089, Note_off_c, 0, 81, 121
1, 118108, Note_on_c, 0, 82, 114
1, 118271, Note_off_c, 0, 82, 114
1, 118271, Note_on_c, 0, 85, 116
1, 118453, Note_off_c, 0, 85, 116
1, 118461, Note_on_c, 0, 84, 115
1, 118962, Note_off_c, 0, 84, 115
1, 119535, Note_on_c, 0, 69, 109
1, 119640, Note_off_c, 0, 69, 109
1, 119653, Note_on_c, 0, 71, 110
1, 119719, Note_off_c, 0, 71, 110
1, 119719, Note_on_c, 0, 73, 110
1, 119840, Note_off_c, 0, 73, 110
1, 119864, Note_on_c, 0, 70, 97
1, 119899, Note_off_c, 0, 70, 97
1, 119899, Note_on_c, 0, 71, 109
1, 120034, Note_off_c, 0, 71, 109
1, 120039, Note_on_c, 0, 66, 103
1, 120097, Note_off_c, 0, 66, 103
1, 120110, Note_on_c, 0, 64, 104
1, 120231, Note_off_c, 0, 64, 104
1, 120233, Note_on_c, 0, 59, 102
1, 120288, Note_off_c, 0, 59, 102
1, 120296, Note_on_c, 0, 66, 105
1, 120392, Note_off_c, 0, 66, 105
1, 120405, Note_on_c, 0, 61, 108
1, 120496, Note_off_c, 0, 61, 108
1, 120501, Note_on_c, 0, 63, 120
1, 120584, Note_off_c, 0, 63, 120
1, 120608, Note_on_c, 0, 67, 109
1, 120699, Note_off_c, 0, 67, 109
1, 120710, Note_on_c, 0, 66, 108
1, 120781, Note_off_c, 0, 66, 108
1, 120811, Note_on_c, 0, 64, 106
1, 120871, Note_off_c, 0, 64, 106
1, 120890, Note_on_c, 0, 65, 109
1, 120984, Note_off_c, 0, 65, 109
1, 120984, Note_on_c, 0, 61, 118
1, 121055, Note_off_c, 0, 61, 118
1, 121057, Note_on_c, 0, 58, 102
1, 121142, Note_off_c, 0, 58, 102
1, 121155, Note_on_c, 0, 56, 9
1, 121224, Note_off_c, 0, 56, 9
1, 121265, Note_on_c, 0, 63, 115
1, 121359, Note_off_c, 0, 63, 115
1, 121364, Note_on_c, 0, 61, 117
1, 121447, Note_off_c, 0, 61, 117
1, 121460, Note_on_c, 0, 60, 114
1, 121551, Note_off_c, 0, 60, 114
1, 121551, Note_on_c, 0, 58, 105
1, 121620, Note_off_c, 0, 58, 105
1, 121642, Note_on_c, 0, 56, 107
1, 121719, Note_off_c, 0, 56, 107
1, 121738, Note_on_c, 0, 58, 106
1, 121804, Note_off_c, 0, 58, 106
1, 121831, Note_on_c, 0, 60, 113
1, 121908, Note_off_c, 0, 60, 113
1, 121910, Note_on_c, 0, 63, 115
1, 121987, Note_off_c, 0, 63, 115
1, 122014, Note_on_c, 0, 60, 110
1, 122097, Note_off_c, 0, 60, 110
1, 122099, Note_on_c, 0, 62, 107
1, 122148, Note_off_c, 0, 62, 107
1, 122156, Note_on_c, 0, 63, 117
1, 122266, Note_off_c, 0, 63, 117
1, 122274, Note_on_c, 0, 65, 103
1, 122340, Note_off_c, 0, 65, 103
1, 122359, Note_on_c, 0, 68, 101
1, 122469, Note_off_c, 0, 68, 101
1, 122482, Note_on_c, 0, 65, 91
1, 122540, Note_off_c, 0, 65, 91
1, 122546, Note_on_c, 0, 70, 116
1, 122604, Note_off_c, 0, 70, 116
1, 122608, Note_on_c, 0, 71, 119
1, 122665, Note_off_c, 0, 71, 119
1, 122919, Note_on_c, 0, 71, 115
1, 123032, Note_off_c, 0, 71, 115
1, 123043, Note_on_c, 0, 68, 107
1, 123103, Note_off_c, 0, 68, 107
1, 123122, Note_on_c, 0, 63, 117
1, 123218, Note_off_c, 0, 63, 117
1, 123298, Note_on_c, 0, 70, 108
1, 123392, Note_off_c, 0, 70, 108
1, 123416, Note_on_c, 0, 67, 105
1, 123487, Note_off_c, 0, 67, 105
1, 123503, Note_on_c, 0, 61, 111
1, 123616, Note_off_c, 0, 61, 111
1, 123674, Note_on_c, 0, 69, 112
1, 123784, Note_off_c, 0, 69, 112
1, 123797, Note_on_c, 0, 66, 108
1, 123868, Note_off_c, 0, 66, 108
1, 123868, Note_on_c, 0, 61, 105
1, 123987, Note_off_c, 0, 61, 105
1, 123989, Note_on_c, 0, 59, 88
1, 124052, Note_off_c, 0, 59, 88
1, 124074, Note_on_c, 0, 68, 103
1, 124173, Note_off_c, 0, 68, 103
1, 124422, Note_on_c, 0, 68, 114
1, 124527, Note_off_c, 0, 68, 114
1, 124543, Note_on_c, 0, 66, 109
1, 124617, Note_off_c, 0, 66, 109
1, 124625, Note_on_c, 0, 61, 113
1, 124721, Note_off_c, 0, 61, 113
1, 124737, Note_on_c, 0, 59, 100
1, 124792, Note_off_c, 0, 59, 100
1, 124839, Note_on_c, 0, 67, 104
1, 124944, Note_off_c, 0, 67, 104
1, 124952, Note_on_c, 0, 63, 119
1, 125021, Note_off_c, 0, 63, 119
1, 125032, Note_on_c, 0, 58, 107
1, 125112, Note_off_c, 0, 58, 107
1, 125125, Note_on_c, 0, 55, 98
1, 125183, Note_off_c, 0, 55, 98
1, 125205, Note_on_c, 0, 65, 112
1, 125299, Note_off_c, 0, 65, 112
1, 125301, Note_on_c, 0, 60, 115
1, 125375, Note_off_c, 0, 60, 115
1, 125394, Note_on_c, 0, 58, 106
1, 125474, Note_off_c, 0, 58, 106
1, 125482, Note_on_c, 0, 55, 100
1, 125552, Note_off_c, 0, 55, 100
1, 125561, Note_on_c, 0, 51, 108
1, 125667, Note_off_c, 0, 51, 108
1, 125682, Note_on_c, 0, 58, 110
1, 125758, Note_off_c, 0, 58, 110
1, 125759, Note_on_c, 0, 53, 103
1, 125837, Note_off_c, 0, 53, 103
1, 126077, Note_on_c, 0, 53, 118
1, 126149, Note_off_c, 0, 53, 118
1, 126160, Note_on_c, 0, 56, 110
1, 126250, Note_off_c, 0, 56, 110
1, 126250, Note_on_c, 0, 53, 103
1, 126314, Note_off_c, 0, 53, 103
1, 126321, Note_on_c, 0, 55, 103
1, 126409, Note_off_c, 0, 55, 103
1, 126424, Note_on_c, 0, 58, 105
1, 126488, Note_off_c, 0, 58, 105
1, 126493, Note_on_c, 0, 63, 115
1, 126599, Note_off_c, 0, 63, 115
1, 126600, Note_on_c, 0, 65, 102
1, 126668, Note_off_c, 0, 65, 102
1, 126675, Note_on_c, 0, 69, 111
1, 126802, Note_off_c, 0, 69, 111
1, 126802, Note_on_c, 0, 67, 103
1, 126863, Note_off_c, 0, 67, 103
1, 126868, Note_on_c, 0, 65, 108
1, 126980, Note_off_c, 0, 65, 108
1, 126985, Note_on_c, 0, 60, 112
1, 127048, Note_off_c, 0, 60, 112
1, 127048, Note_on_c, 0, 55, 110
1, 127093, Note_off_c, 0, 55, 110
1, 127096, Note_on_c, 0, 57, 112
1, 127184, Note_off_c, 0, 57, 112
1, 127191, Note_on_c, 0, 55, 102
1, 127236, Note_off_c, 0, 55, 102
1, 127241, Note_on_c, 0, 53, 106
1, 127339, Note_off_c, 0, 53, 106
1, 127348, Note_on_c, 0, 48, 101
1, 127411, Note_off_c, 0, 48, 101
1, 127412, Note_on_c, 0, 56, 107
1, 127543, Note_off_c, 0, 56, 107
1, 127749, Note_on_c, 0, 56, 115
1, 127786, Note_off_c, 0, 56, 115
1, 127789, Note_on_c, 0, 53, 103
1, 127891, Note_off_c, 0, 53, 103
1, 127924, Note_on_c, 0, 56, 112
1, 127990, Note_off_c, 0, 56, 112
1, 127993, Note_on_c, 0, 60, 114
1, 128124, Note_off_c, 0, 60, 114
1, 128132, Note_on_c, 0, 58, 95
1, 128168, Note_off_c, 0, 58, 95
1, 128168, Note_on_c, 0, 61, 118
1, 128294, Note_off_c, 0, 61, 118
1, 128305, Note_on_c, 0, 58, 93
1, 128346, Note_off_c, 0, 58, 93
1, 128351, Note_on_c, 0, 61, 119
1, 128465, Note_off_c, 0, 61, 119
1, 128545, Note_on_c, 0, 63, 116
1, 128651, Note_off_c, 0, 63, 116
1, 128729, Note_on_c, 0, 63, 116
1, 128837, Note_off_c, 0, 63, 116
1, 128945, Note_on_c, 0, 66, 103
1, 129049, Note_off_c, 0, 66, 103
1, 129318, Note_on_c, 0, 64, 116
1, 129426, Note_off_c, 0, 64, 116
1, 129638, Note_on_c, 0, 68, 114
1, 129724, Note_off_c, 0, 68, 114
1, 129735, Note_on_c, 0, 64, 102
1, 129839, Note_off_c, 0, 64, 102
1, 129862, Note_on_c, 0, 68, 114
1, 129923, Note_off_c, 0, 68, 114
1, 129934, Note_on_c, 0, 66, 110
1, 129995, Note_on_c, 0, 62, 114
1, 129995, Note_off_c, 0, 66, 110
1, 130030, Note_off_c, 0, 62, 114
1, 130049, Note_on_c, 0, 59, 100
1, 130079, Note_off_c, 0, 59, 100
1, 130115, Note_on_c, 0, 64, 108
1, 130339, Note_off_c, 0, 64, 108
1, 130543, Note_on_c, 0, 62, 114
1, 130572, Note_off_c, 0, 62, 114
1, 130572, Note_on_c, 0, 64, 114
1, 130601, Note_off_c, 0, 64, 114
1, 130601, Note_on_c, 0, 66, 108
1, 130648, Note_off_c, 0, 66, 108
1, 130651, Note_on_c, 0, 62, 106
1, 130719, Note_off_c, 0, 62, 106
1, 130734, Note_on_c, 0, 59, 110
1, 130763, Note_off_c, 0, 59, 110
1, 130778, Note_on_c, 0, 64, 112
1, 130821, Note_off_c, 0, 64, 112
1, 130828, Note_on_c, 0, 62, 122
1, 130861, Note_off_c, 0, 62, 122
1, 130870, Note_on_c, 0, 58, 104
1, 130929, Note_off_c, 0, 58, 104
1, 130933, Note_on_c, 0, 56, 110
1, 130992, Note_off_c, 0, 56, 110
1, 130996, Note_on_c, 0, 52, 103
1, 131047, Note_off_c, 0, 52, 103
1, 131051, Note_on_c, 0, 56, 103
1, 131096, Note_off_c, 0, 56, 103
1, 131114, Note_on_c, 0, 54, 99
1, 131155, Note_off_c, 0, 54, 99
1, 131171, Note_on_c, 0, 50, 101
1, 131206, Note_off_c, 0, 50, 101
1, 131212, Note_on_c, 0, 55, 98
1, 131314, Note_off_c, 0, 55, 98
1, 132645, Note_on_c, 0, 71, 112
1, 132718, Note_off_c, 0, 71, 112
1, 132730, Note_on_c, 0, 71, 114
1, 132786, Note_off_c, 0, 71, 114
1, 132799, Note_on_c, 0, 71, 110
1, 132850, Note_off_c, 0, 71, 110
1, 132883, Note_on_c, 0, 69, 111
1, 132981, Note_off_c, 0, 69, 111
1, 132989, Note_on_c, 0, 69, 110
1, 133024, Note_off_c, 0, 69, 110
1, 133032, Note_on_c, 0, 69, 97
1, 133092, Note_off_c, 0, 69, 97
1, 133101, Note_on_c, 0, 69, 107
1, 133152, Note_off_c, 0, 69, 107
1, 133172, Note_on_c, 0, 68, 111
1, 133245, Note_off_c, 0, 68, 111
1, 133269, Note_on_c, 0, 68, 111
1, 133346, Note_off_c, 0, 68, 111
1, 133359, Note_on_c, 0, 68, 110
1, 133400, Note_off_c, 0, 68, 110
1, 133459, Note_on_c, 0, 68, 115
1, 133510, Note_off_c, 0, 68, 115
1, 133523, Note_on_c, 0, 68, 108
1, 133560, Note_off_c, 0, 68, 108
1, 133627, Note_on_c, 0, 68, 103
1, 133680, Note_off_c, 0, 68, 103
1, 133693, Note_on_c, 0, 68, 108
1, 133744, Note_off_c, 0, 68, 108
1, 133778, Note_on_c, 0, 68, 106
1, 133829, Note_off_c, 0, 68, 106
1, 133856, Note_on_c, 0, 66, 104
1, 133930, Note_off_c, 0, 66, 104
1, 133964, Note_on_c, 0, 66, 103
1, 134045, Note_off_c, 0, 66, 103
1, 134060, Note_on_c, 0, 65, 116
1, 134137, Note_off_c, 0, 65, 116
1, 134164, Note_on_c, 0, 65, 114
1, 134235, Note_off_c, 0, 65, 114
1, 134287, Note_on_c, 0, 65, 118
1, 134349, Note_off_c, 0, 65, 118
1, 134354, Note_on_c, 0, 64, 110
1, 134626, Note_off_c, 0, 64, 110
1, 134868, Note_on_c, 0, 63, 125
1, 135043, Note_off_c, 0, 63, 125
1, 135045, Note_on_c, 0, 60, 112
1, 135103, Note_off_c, 0, 60, 112
1, 135109, Note_on_c, 0, 56, 108
1, 135162, Note_off_c, 0, 56, 108
1, 135173, Note_on_c, 0, 54, 102
1, 135229, Note_off_c, 0, 54, 102
1, 135251, Note_on_c, 0, 62, 113
1, 135354, Note_off_c, 0, 62, 113
1, 135360, Note_on_c, 0, 61, 106
1, 135431, Note_off_c, 0, 61, 106
1, 135616, Note_on_c, 0, 61, 119
1, 135791, Note_off_c, 0, 61, 119
1, 135793, Note_on_c, 0, 58, 105
1, 135846, Note_off_c, 0, 58, 105
1, 135866, Note_on_c, 0, 54, 101
1, 135917, Note_off_c, 0, 54, 101
1, 135929, Note_on_c, 0, 51, 96
1, 135977, Note_off_c, 0, 51, 96
1, 136000, Note_on_c, 0, 60, 106
1, 136135, Note_off_c, 0, 60, 106
1, 136208, Note_on_c, 0, 61, 119
1, 136357, Note_off_c, 0, 61, 119
1, 136358, Note_on_c, 0, 58, 101
1, 136400, Note_off_c, 0, 58, 101
1, 136412, Note_on_c, 0, 54, 99
1, 136465, Note_off_c, 0, 54, 99
1, 136489, Note_on_c, 0, 63, 95
1, 136536, Note_off_c, 0, 63, 95
1, 136538, Note_on_c, 0, 60, 117
1, 136652, Note_off_c, 0, 60, 117
1, 136885, Note_on_c, 0, 56, 113
1, 136958, Note_off_c, 0, 56, 113
1, 136973, Note_on_c, 0, 56, 111
1, 137011, Note_off_c, 0, 56, 111
1, 137033, Note_on_c, 0, 56, 104
1, 137092, Note_off_c, 0, 56, 104
1, 137105, Note_on_c, 0, 56, 114
1, 137156, Note_off_c, 0, 56, 114
1, 137173, Note_on_c, 0, 58, 108
1, 137261, Note_off_c, 0, 58, 108
1, 137274, Note_on_c, 0, 58, 109
1, 137339, Note_off_c, 0, 58, 109
1, 137350, Note_on_c, 0, 60, 120
1, 137485, Note_off_c, 0, 60, 120
1, 137489, Note_on_c, 0, 58, 103
1, 137509, Note_off_c, 0, 58, 103
1, 137509, Note_on_c, 0, 61, 121
1, 137641, Note_off_c, 0, 61, 121
1, 137646, Note_on_c, 0, 58, 97
1, 137686, Note_off_c, 0, 58, 97
1, 137688, Note_on_c, 0, 63, 118
1, 137804, Note_off_c, 0, 63, 118
1, 137813, Note_on_c, 0, 58, 97
1, 137851, Note_on_c, 0, 64, 106
1, 137851, Note_off_c, 0, 58, 97
1, 137993, Note_off_c, 0, 64, 106
1, 138001, Note_on_c, 0, 65, 104
1, 138064, Note_off_c, 0, 65, 104
1, 138285, Note_on_c, 0, 66, 109
1, 138391, Note_off_c, 0, 66, 109
1, 138395, Note_on_c, 0, 64, 105
1, 138440, Note_off_c, 0, 64, 105
1, 138453, Note_on_c, 0, 65, 115
1, 138578, Note_off_c, 0, 65, 115
1, 138578, Note_on_c, 0, 61, 118
1, 138641, Note_off_c, 0, 61, 118
1, 138649, Note_on_c, 0, 58, 96
1, 138774, Note_off_c, 0, 58, 96
1, 138803, Note_on_c, 0, 54, 108
1, 138829, Note_off_c, 0, 54, 108
1, 138841, Note_on_c, 0, 63, 122
1, 138942, Note_off_c, 0, 63, 122
1, 138947, Note_on_c, 0, 61, 115
1, 139043, Note_off_c, 0, 61, 115
1, 139128, Note_on_c, 0, 58, 108
1, 139187, Note_off_c, 0, 58, 108
1, 139220, Note_on_c, 0, 59, 100
1, 139261, Note_off_c, 0, 59, 100
1, 139272, Note_on_c, 0, 63, 114
1, 139331, Note_off_c, 0, 63, 114
1, 139336, Note_on_c, 0, 65, 106
1, 139385, Note_off_c, 0, 65, 106
1, 139414, Note_on_c, 0, 70, 116
1, 139517, Note_off_c, 0, 70, 116
1, 139523, Note_on_c, 0, 67, 94
1, 139582, Note_off_c, 0, 67, 94
1, 139590, Note_on_c, 0, 68, 111
1, 139688, Note_off_c, 0, 68, 111
1, 139699, Note_on_c, 0, 70, 107
1, 139791, Note_off_c, 0, 70, 107
1, 139800, Note_on_c, 0, 67, 107
1, 139888, Note_off_c, 0, 67, 107
1, 139890, Note_on_c, 0, 63, 118
1, 139963, Note_off_c, 0, 63, 118
1, 139982, Note_on_c, 0, 58, 99
1, 140067, Note_off_c, 0, 58, 99
1, 140082, Note_on_c, 0, 55, 81
1, 140127, Note_off_c, 0, 55, 81
1, 140147, Note_on_c, 0, 66, 100
1, 140261, Note_off_c, 0, 66, 100
1, 140331, Note_on_c, 0, 66, 102
1, 140433, Note_off_c, 0, 66, 102
1, 140529, Note_on_c, 0, 65, 104
1, 140639, Note_off_c, 0, 65, 104
1, 140717, Note_on_c, 0, 65, 111
1, 140788, Note_off_c, 0, 65, 111
1, 140898, Note_on_c, 0, 63, 116
1, 140993, Note_off_c, 0, 63, 116
1, 141268, Note_on_c, 0, 65, 110
1, 141416, Note_off_c, 0, 65, 110
1, 141474, Note_on_c, 0, 65, 112
1, 141591, Note_off_c, 0, 65, 112
1, 141638, Note_on_c, 0, 58, 96
1, 141658, Note_off_c, 0, 58, 96
1, 141659, Note_on_c, 0, 62, 116
1, 141753, Note_off_c, 0, 62, 116
1, 141800, Note_on_c, 0, 58, 101
1, 141837, Note_off_c, 0, 58, 101
1, 141838, Note_on_c, 0, 62, 114
1, 141951, Note_off_c, 0, 62, 114
1, 141978, Note_on_c, 0, 58, 93
1, 142013, Note_off_c, 0, 58, 93
1, 142022, Note_on_c, 0, 64, 103
1, 142213, Note_off_c, 0, 64, 103
1, 142384, Note_on_c, 0, 67, 108
1, 142508, Note_off_c, 0, 67, 108
1, 142514, Note_on_c, 0, 67, 103
1, 142556, Note_off_c, 0, 67, 103
1, 142564, Note_on_c, 0, 67, 106
1, 142667, Note_off_c, 0, 67, 106
1, 142763, Note_on_c, 0, 65, 105
1, 142876, Note_off_c, 0, 65, 105
1, 142981, Note_on_c, 0, 65, 101
1, 143102, Note_off_c, 0, 65, 101
1, 143147, Note_on_c, 0, 69, 111
1, 143282, Note_off_c, 0, 69, 111
1, 143737, Note_on_c, 0, 73, 115
1, 143803, Note_off_c, 0, 73, 115
1, 143809, Note_on_c, 0, 74, 115
1, 143862, Note_off_c, 0, 74, 115
1, 143866, Note_on_c, 0, 73, 108
1, 143900, Note_off_c, 0, 73, 108
1, 143904, Note_on_c, 0, 71, 114
1, 144011, Note_off_c, 0, 71, 114
1, 144016, Note_on_c, 0, 70, 108
1, 144087, Note_off_c, 0, 70, 108
1, 144088, Note_on_c, 0, 69, 108
1, 144164, Note_off_c, 0, 69, 108
1, 144199, Note_on_c, 0, 68, 109
1, 144288, Note_off_c, 0, 68, 109
1, 144299, Note_on_c, 0, 67, 101
1, 144368, Note_off_c, 0, 67, 101
1, 144394, Note_on_c, 0, 66, 110
1, 144454, Note_off_c, 0, 66, 110
1, 144462, Note_on_c, 0, 65, 110
1, 144549, Note_off_c, 0, 65, 110
1, 144776, Note_on_c, 0, 68, 116
1, 144846, Note_off_c, 0, 68, 116
1, 144862, Note_on_c, 0, 65, 110
1, 144953, Note_off_c, 0, 65, 110
1, 144955, Note_on_c, 0, 66, 98
1, 145024, Note_off_c, 0, 66, 98
1, 145046, Note_on_c, 0, 68, 111
1, 145153, Note_off_c, 0, 68, 111
1, 145164, Note_on_c, 0, 65, 99
1, 145202, Note_off_c, 0, 65, 99
1, 145214, Note_on_c, 0, 66, 101
1, 145273, Note_off_c, 0, 66, 101
1, 145286, Note_on_c, 0, 68, 100
1, 145402, Note_off_c, 0, 68, 100
1, 145415, Note_on_c, 0, 69, 108
1, 145477, Note_off_c, 0, 69, 108
1, 145515, Note_on_c, 0, 71, 107
1, 145555, Note_off_c, 0, 71, 107
1, 145557, Note_on_c, 0, 73, 110
1, 145666, Note_off_c, 0, 73, 110
1, 145699, Note_on_c, 0, 69, 105
1, 145764, Note_off_c, 0, 69, 105
1, 145777, Note_on_c, 0, 68, 97
1, 145855, Note_off_c, 0, 68, 97
1, 145861, Note_on_c, 0, 69, 100
1, 145928, Note_off_c, 0, 69, 100
1, 145950, Note_on_c, 0, 68, 103
1, 146044, Note_off_c, 0, 68, 103
1, 146073, Note_on_c, 0, 66, 100
1, 146154, Note_off_c, 0, 66, 100
1, 146177, Note_on_c, 0, 65, 105
1, 146239, Note_off_c, 0, 65, 105
1, 146265, Note_on_c, 0, 66, 105
1, 146331, Note_off_c, 0, 66, 105
1, 146339, Note_on_c, 0, 65, 101
1, 146397, Note_off_c, 0, 65, 101
1, 146432, Note_on_c, 0, 63, 115
1, 146520, Note_off_c, 0, 63, 115
1, 146524, Note_on_c, 0, 61, 118
1, 146615, Note_off_c, 0, 61, 118
1, 146814, Note_on_c, 0, 57, 116
1, 146910, Note_off_c, 0, 57, 116
1, 146918, Note_on_c, 0, 56, 109
1, 146988, Note_off_c, 0, 56, 109
1, 147000, Note_on_c, 0, 57, 114
1, 147087, Note_off_c, 0, 57, 114
1, 147089, Note_on_c, 0, 56, 108
1, 147194, Note_off_c, 0, 56, 108
1, 147206, Note_on_c, 0, 54, 110
1, 147287, Note_off_c, 0, 54, 110
1, 147295, Note_on_c, 0, 53, 107
1, 147362, Note_off_c, 0, 53, 107
1, 147373, Note_on_c, 0, 51, 109
1, 147462, Note_off_c, 0, 51, 109
1, 147471, Note_on_c, 0, 50, 104
1, 147577, Note_off_c, 0, 50, 104
1, 147578, Note_on_c, 0, 53, 108
1, 147669, Note_off_c, 0, 53, 108
1, 147672, Note_on_c, 0, 52, 111
1, 147744, Note_off_c, 0, 52, 111
1, 147748, Note_on_c, 0, 50, 108
1, 147811, Note_off_c, 0, 50, 108
1, 147820, Note_on_c, 0, 51, 113
1, 147907, Note_off_c, 0, 51, 113
1, 147940, Note_on_c, 0, 53, 108
1, 147967, Note_off_c, 0, 53, 108
1, 147976, Note_on_c, 0, 54, 105
1, 148029, Note_off_c, 0, 54, 105
1, 148051, Note_on_c, 0, 56, 100
1, 148176, Note_off_c, 0, 56, 100
1, 148184, Note_on_c, 0, 58, 106
1, 148283, Note_off_c, 0, 58, 106
1, 148331, Note_on_c, 0, 61, 106
1, 148380, Note_off_c, 0, 61, 106
1, 148384, Note_on_c, 0, 65, 112
1, 148498, Note_off_c, 0, 65, 112
1, 148503, Note_on_c, 0, 63, 119
1, 148574, Note_off_c, 0, 63, 119
1, 148755, Note_on_c, 0, 68, 110
1, 148862, Note_off_c, 0, 68, 110
1, 149119, Note_on_c, 0, 69, 115
1, 149242, Note_off_c, 0, 69, 115
1, 149251, Note_on_c, 0, 72, 119
1, 149489, Note_off_c, 0, 72, 119
1, 149494, Note_on_c, 0, 69, 108
1, 149600, Note_off_c, 0, 69, 108
1, 149624, Note_on_c, 0, 72, 112
1, 149776, Note_off_c, 0, 72, 112
1, 150068, Note_on_c, 0, 68, 111
1, 150162, Note_off_c, 0, 68, 111
1, 150163, Note_on_c, 0, 72, 120
1, 150280, Note_off_c, 0, 72, 120
1, 150576, Note_on_c, 0, 69, 113
1, 150646, Note_off_c, 0, 69, 113
1, 150658, Note_on_c, 0, 73, 112
1, 150746, Note_off_c, 0, 73, 112
1, 150831, Note_on_c, 0, 69, 111
1, 150912, Note_off_c, 0, 69, 111
1, 150914, Note_on_c, 0, 73, 115
1, 151030, Note_off_c, 0, 73, 115
1, 151124, Note_on_c, 0, 69, 109
1, 151166, Note_off_c, 0, 69, 109
1, 151190, Note_on_c, 0, 72, 113
1, 151332, Note_off_c, 0, 72, 113
1, 151370, Note_on_c, 0, 68, 109
1, 151471, Note_off_c, 0, 68, 109
1, 151483, Note_on_c, 0, 72, 112
1, 151624, Note_off_c, 0, 72, 112
1, 151671, Note_on_c, 0, 68, 84
1, 151711, Note_off_c, 0, 68, 84
1, 151731, Note_on_c, 0, 72, 107
1, 151820, Note_off_c, 0, 72, 107
1, 151916, Note_on_c, 0, 68, 105
1, 152041, Note_off_c, 0, 68, 105
1, 152101, Note_on_c, 0, 70, 112
1, 152249, Note_off_c, 0, 70, 112
1, 152487, Note_on_c, 0, 70, 116
1, 152583, Note_off_c, 0, 70, 116
1, 152663, Note_on_c, 0, 68, 109
1, 152765, Note_off_c, 0, 68, 109
1, 152868, Note_on_c, 0, 71, 111
1, 153009, Note_off_c, 0, 71, 111
1, 153170, Note_on_c, 0, 70, 111
1, 153408, Note_off_c, 0, 70, 111
1, 153698, Note_on_c, 0, 68, 119
1, 153785, Note_off_c, 0, 68, 119
1, 153905, Note_on_c, 0, 65, 100
1, 153953, Note_off_c, 0, 65, 100
1, 153954, Note_on_c, 0, 66, 110
1, 154138, Note_off_c, 0, 66, 110
1, 154157, Note_on_c, 0, 68, 114
1, 154267, Note_off_c, 0, 68, 114
1, 154278, Note_on_c, 0, 65, 109
1, 154525, Note_off_c, 0, 65, 109
1, 154837, Note_on_c, 0, 63, 125
1, 154947, Note_off_c, 0, 63, 125
1, 154952, Note_on_c, 0, 62, 120
1, 154986, Note_off_c, 0, 62, 120
1, 154991, Note_on_c, 0, 61, 117
1, 155022, Note_off_c, 0, 61, 117
1, 155024, Note_on_c, 0, 58, 113
1, 155067, Note_off_c, 0, 58, 113
1, 155070, Note_on_c, 0, 57, 107
1, 155455, Note_off_c, 0, 57, 107
1, 155468, Note_on_c, 0, 58, 108
1, 155600, Note_off_c, 0, 58, 108
1, 155821, Note_on_c, 0, 60, 118
1, 155969, Note_off_c, 0, 60, 118
1, 155971, Note_on_c, 0, 61, 115
1, 156081, Note_off_c, 0, 61, 115
1, 156122, Note_on_c, 0, 65, 112
1, 156263, Note_off_c, 0, 65, 112
1, 156265, Note_on_c, 0, 68, 112
1, 156378, Note_off_c, 0, 68, 112
1, 156430, Note_on_c, 0, 72, 113
1, 156576, Note_off_c, 0, 72, 113
1, 156585, Note_on_c, 0, 74, 111
1, 156652, Note_off_c, 0, 74, 111
1, 156667, Note_on_c, 0, 75, 110
1, 157119, Note_off_c, 0, 75, 110
1, 157132, Note_on_c, 0, 73, 110
1, 157313, Note_off_c, 0, 73, 110
1, 157318, Note_on_c, 0, 69, 111
1, 157686, Note_off_c, 0, 69, 111
1, 157698, Note_on_c, 0, 70, 109
1, 158051, Note_off_c, 0, 70, 109
1, 158062, Note_on_c, 0, 71, 116
1, 158175, Note_off_c, 0, 71, 116
1, 158179, Note_on_c, 0, 70, 106
1, 158253, Note_off_c, 0, 70, 106
1, 158253, End_track
0, 0, End_of_file
