0, 0, Header, 1, 1, 192
1, 0, Start_track
1, 0, Title_t, "Melody"
1, 0, Tempo, 342857
1, 0, Key_signature, -5, "major"
1, 0, Time_signature, 4, 2, 24, 8
1, 2768, Note_on_c, 0, 68, 90
1, 2861, Note_off_c, 0, 68, 90
1, 2941, Note_on_c, 0, 68, 100
1, 3033, Note_off_c, 0, 68, 100
1, 3122, Note_on_c, 0, 68, 92
1, 3221, Note_off_c, 0, 68, 92
1, 3312, Note_on_c, 0, 68, 89
1, 3435, Note_off_c, 0, 68, 89
1, 3527, Note_on_c, 0, 68, 90
1, 3705, Note_off_c, 0, 68, 90
1, 3791, Note_on_c, 0, 64, 81
1, 3950, Note_off_c, 0, 64, 81
1, 3971, Note_on_c, 0, 65, 79
1, 4166, Note_off_c, 0, 65, 79
1, 4276, Note_on_c, 0, 70, 113
1, 4333, Note_off_c, 0, 70, 113
1, 4375, Note_on_c, 0, 68, 101
1, 4474, Note_off_c, 0, 68, 101
1, 4541, Note_on_c, 0, 64, 96
1, 4634, Note_off_c, 0, 64, 96
1, 4666, Note_on_c, 0, 65, 83
1, 4876, Note_off_c, 0, 65, 83
1, 5032, Note_on_c, 0, 70, 104
1, 5089, Note_off_c, 0, 70, 104
1, 5105, Note_on_c, 0, 68, 96
1, 5202, Note_off_c, 0, 68, 96
1, 5308, Note_on_c, 0, 64, 95
1, 5407, Note_off_c, 0, 64, 95
1, 5480, Note_on_c, 0, 65, 83
1, 5707, Note_off_c, 0, 65, 83
1, 5804, Note_on_c, 0, 70, 102
1, 5845, Note_off_c, 0, 70, 102
1, 5865, Note_on_c, 0, 73, 103
1, 5987, Note_off_c, 0, 73, 103
1, 6054, Note_on_c, 0, 70, 101
1, 6144, Note_off_c, 0, 70, 101
1, 6179, Note_on_c, 0, 68, 81
1, 6398, Note_off_c, 0, 68, 81
1, 7013, Note_on_c, 0, 68, 113
1, 7107, Note_off_c, 0, 68, 113
1, 7123, Note_on_c, 0, 70, 106
1, 7181, Note_off_c, 0, 70, 106
1, 7189, Note_on_c, 0, 73, 120
1, 7266, Note_off_c, 0, 73, 120
1, 7291, Note_on_c, 0, 75, 113
1, 7363, Note_off_c, 0, 75, 113
1, 7372, Note_on_c, 0, 76, 116
1, 7482, Note_off_c, 0, 76, 116
1, 7493, Note_on_c, 0, 77, 101
1, 7559, Note_off_c, 0, 77, 101
1, 7568, Note_on_c, 0, 70, 99
1, 7676, Note_off_c, 0, 70, 99
1, 7754, Note_on_c, 0, 73, 115
1, 7848, Note_off_c, 0, 73, 115
1, 7862, Note_on_c, 0, 70, 103
1, 7908, Note_off_c, 0, 70, 103
1, 7922, Note_on_c, 0, 69, 97
1, 8034, Note_off_c, 0, 69, 97
1, 8066, Note_on_c, 0, 68, 91
1, 8254, Note_off_c, 0, 68, 91
1, 8338, Note_on_c, 0, 64, 83
1, 8478, Note_off_c, 0, 64, 83
1, 8516, Note_on_c, 0, 65, 91
1, 8602, Note_off_c, 0, 65, 91
1, 8628, Note_on_c, 0, 58, 85
1, 8673, Note_off_c, 0, 58, 85
1, 8684, Note_on_c, 0, 61, 90
1, 8781, Note_off_c, 0, 61, 90
1, 8814, Note_on_c, 0, 65, 88
1, 8866, Note_off_c, 0, 65, 88
1, 8867, Note_on_c, 0, 68, 98
1, 8993, Note_off_c, 0, 68, 98
1, 9007, Note_on_c, 0, 70, 84
1, 9196, Note_off_c, 0, 70, 84
1, 9772, Note_on_c, 0, 65, 106
1, 9821, Note_off_c, 0, 65, 106
1, 9839, Note_on_c, 0, 68, 116
1, 9989, Note_off_c, 0, 68, 116
1, 10032, Note_on_c, 0, 71, 120
1, 10126, Note_off_c, 0, 71, 120
1, 10133, Note_on_c, 0, 73, 123
1, 10199, Note_off_c, 0, 73, 123
1, 10215, Note_on_c, 0, 71, 119
1, 10306, Note_off_c, 0, 71, 119
1, 10314, Note_on_c, 0, 73, 113
1, 10392, Note_off_c, 0, 73, 113
1, 10412, Note_on_c, 0, 71, 116
1, 10501, Note_off_c, 0, 71, 116
1, 10594, Note_on_c, 0, 70, 93
1, 10983, Note_off_c, 0, 70, 93
1, 11281, Note_on_c, 0, 65, 105
1, 11330, Note_off_c, 0, 65, 105
1, 11340, Note_on_c, 0, 68, 119
1, 11435, Note_off_c, 0, 68, 119
1, 11530, Note_on_c, 0, 71, 120
1, 11632, Note_off_c, 0, 71, 120
1, 11636, Note_on_c, 0, 73, 122
1, 11716, Note_off_c, 0, 73, 122
1, 11723, Note_on_c, 0, 71, 116
1, 11820, Note_off_c, 0, 71, 116
1, 11830, Note_on_c, 0, 73, 112
1, 11902, Note_off_c, 0, 73, 112
1, 11920, Note_on_c, 0, 70, 101
1, 11982, Note_off_c, 0, 70, 101
1, 11988, Note_on_c, 0, 71, 103
1, 12074, Note_off_c, 0, 71, 103
1, 12093, Note_on_c, 0, 70, 97
1, 12200, Note_off_c, 0, 70, 97
1, 12225, Note_on_c, 0, 68, 88
1, 12495, Note_off_c, 0, 68, 88
1, 12777, Note_on_c, 0, 65, 100
1, 12844, Note_off_c, 0, 65, 100
1, 12857, Note_on_c, 0, 68, 116
1, 12966, Note_off_c, 0, 68, 116
1, 13044, Note_on_c, 0, 73, 94
1, 13249, Note_off_c, 0, 73, 94
1, 13367, Note_on_c, 0, 71, 108
1, 13416, Note_off_c, 0, 71, 108
1, 13430, Note_on_c, 0, 70, 102
1, 13539, Note_off_c, 0, 70, 102
1, 13550, Note_on_c, 0, 68, 91
1, 13591, Note_off_c, 0, 68, 91
1, 13640, Note_on_c, 0, 64, 84
1, 13744, Note_off_c, 0, 64, 84
1, 13795, Note_on_c, 0, 65, 91
1, 13892, Note_off_c, 0, 65, 91
1, 13908, Note_on_c, 0, 68, 106
1, 13967, Note_off_c, 0, 68, 106
1, 13980, Note_on_c, 0, 70, 104
1, 14074, Note_off_c, 0, 70, 104
1, 14082, Note_on_c, 0, 71, 86
1, 14111, Note_off_c, 0, 71, 86
1, 14117, Note_on_c, 0, 70, 97
1, 14160, Note_off_c, 0, 70, 97
1, 14172, Note_on_c, 0, 68, 98
1, 14280, Note_off_c, 0, 68, 98
1, 14297, Note_on_c, 0, 61, 89
1, 14536, Note_off_c, 0, 61, 89
1, 14556, Note_on_c, 0, 64, 103
1, 14588, Note_off_c, 0, 64, 103
1, 14591, Note_on_c, 0, 65, 97
1, 14666, Note_off_c, 0, 65, 97
1, 14668, Note_on_c, 0, 68, 98
1, 14898, Note_off_c, 0, 68, 98
1, 14915, Note_on_c, 0, 70, 105
1, 15029, Note_off_c, 0, 70, 105
1, 15046, Note_on_c, 0, 73, 123
1, 15114, Note_off_c, 0, 73, 123
1, 15228, Note_on_c, 0, 73, 90
1, 15461, Note_off_c, 0, 73, 90
1, 15684, Note_on_c, 0, 71, 116
1, 15741, Note_off_c, 0, 71, 116
1, 15750, Note_on_c, 0, 72, 116
1, 16001, Note_off_c, 0, 72, 116
1, 16043, Note_on_c, 0, 72, 111
1, 16184, Note_off_c, 0, 72, 111
1, 16194, Note_on_c, 0, 68, 88
1, 16234, Note_off_c, 0, 68, 88
1, 16363, Note_on_c, 0, 72, 109
1, 16415, Note_off_c, 0, 72, 109
1, 16424, Note_on_c, 0, 74, 108
1, 16539, Note_off_c, 0, 74, 108
1, 16544, Note_on_c, 0, 72, 106
1, 16606, Note_off_c, 0, 72, 106
1, 16622, Note_on_c, 0, 70, 107
1, 16712, Note_off_c, 0, 70, 107
1, 16754, Note_on_c, 0, 68, 105
1, 16847, Note_off_c, 0, 68, 105
1, 16938, Note_on_c, 0, 67, 110
1, 17167, Note_off_c, 0, 67, 110
1, 17195, Note_on_c, 0, 68, 102
1, 17283, Note_off_c, 0, 68, 102
1, 17300, Note_on_c, 0, 69, 102
1, 17356, Note_off_c, 0, 69, 102
1, 17372, Note_on_c, 0, 68, 103
1, 17456, Note_off_c, 0, 68, 103
1, 17489, Note_on_c, 0, 69, 92
1, 17546, Note_off_c, 0, 69, 92
1, 17551, Note_on_c, 0, 67, 90
1, 17642, Note_off_c, 0, 67, 90
1, 17679, Note_on_c, 0, 60, 83
1, 17727, Note_off_c, 0, 60, 83
1, 17768, Note_on_c, 0, 63, 88
1, 17848, Note_off_c, 0, 63, 88
1, 17878, Note_on_c, 0, 67, 97
1, 17936, Note_off_c, 0, 67, 97
1, 17965, Note_on_c, 0, 72, 105
1, 18046, Note_off_c, 0, 72, 105
1, 18081, Note_on_c, 0, 72, 111
1, 18166, Note_off_c, 0, 72, 111
1, 18239, Note_on_c, 0, 72, 87
1, 18531, Note_off_c, 0, 72, 87
1, 19084, Note_on_c, 0, 76, 119
1, 19173, Note_off_c, 0, 76, 119
1, 19181, Note_on_c, 0, 77, 124
1, 19318, Note_off_c, 0, 77, 124
1, 19391, Note_on_c, 0, 70, 97
1, 19463, Note_off_c, 0, 70, 97
1, 19484, Note_on_c, 0, 72, 98
1, 19573, Note_off_c, 0, 72, 98
1, 19586, Note_on_c, 0, 74, 106
1, 19648, Note_off_c, 0, 74, 106
1, 19651, Note_on_c, 0, 79, 98
1, 19683, Note_off_c, 0, 79, 98
1, 19686, Note_on_c, 0, 77, 103
1, 19770, Note_off_c, 0, 77, 103
1, 19794, Note_on_c, 0, 72, 116
1, 19886, Note_off_c, 0, 72, 116
1, 19970, Note_on_c, 0, 70, 81
1, 20150, Note_off_c, 0, 70, 81
1, 20424, Note_on_c, 0, 70, 112
1, 20525, Note_off_c, 0, 70, 112
1, 20552, Note_on_c, 0, 72, 120
1, 20610, Note_off_c, 0, 72, 120
1, 20615, Note_on_c, 0, 75, 121
1, 20724, Note_off_c, 0, 75, 121
1, 20742, Note_on_c, 0, 72, 103
1, 20795, Note_off_c, 0, 72, 103
1, 20808, Note_on_c, 0, 75, 125
1, 20910, Note_off_c, 0, 75, 125
1, 20929, Note_on_c, 0, 75, 112
1, 20995, Note_off_c, 0, 75, 112
1, 21003, Note_on_c, 0, 80, 127
1, 21118, Note_off_c, 0, 80, 127
1, 21185, Note_on_c, 0, 68, 101
1, 21292, Note_off_c, 0, 68, 101
1, 21312, Note_on_c, 0, 70, 86
1, 21560, Note_off_c, 0, 70, 86
1, 21893, Note_on_c, 0, 80, 85
1, 22902, Note_off_c, 0, 80, 85
1, 22956, Note_on_c, 0, 70, 121
1, 23089, Note_off_c, 0, 70, 121
1, 23101, Note_on_c, 0, 64, 99
1, 23147, Note_off_c, 0, 64, 99
1, 23153, Note_on_c, 0, 65, 94
1, 23255, Note_off_c, 0, 65, 94
1, 23292, Note_on_c, 0, 72, 77
1, 23329, Note_off_c, 0, 72, 77
1, 23336, Note_on_c, 0, 73, 124
1, 23430, Note_off_c, 0, 73, 124
1, 23444, Note_on_c, 0, 75, 111
1, 23511, Note_off_c, 0, 75, 111
1, 23524, Note_on_c, 0, 76, 115
1, 23598, Note_off_c, 0, 76, 115
1, 23614, Note_on_c, 0, 77, 109
1, 23712, Note_off_c, 0, 77, 109
1, 23739, Note_on_c, 0, 73, 113
1, 23820, Note_off_c, 0, 73, 113
1, 23841, Note_on_c, 0, 70, 99
1, 23890, Note_off_c, 0, 70, 99
1, 23902, Note_on_c, 0, 69, 87
1, 23983, Note_off_c, 0, 69, 87
1, 24021, Note_on_c, 0, 68, 90
1, 24271, Note_off_c, 0, 68, 90
1, 24312, Note_on_c, 0, 64, 98
1, 24426, Note_off_c, 0, 64, 98
1, 24484, Note_on_c, 0, 65, 105
1, 24568, Note_off_c, 0, 65, 105
1, 24610, Note_on_c, 0, 68, 100
1, 24667, Note_off_c, 0, 68, 100
1, 24689, Note_on_c, 0, 65, 95
1, 24753, Note_off_c, 0, 65, 95
1, 24771, Note_on_c, 0, 63, 90
1, 24827, Note_off_c, 0, 63, 90
1, 24838, Note_on_c, 0, 61, 90
1, 24976, Note_off_c, 0, 61, 90
1, 24988, Note_on_c, 0, 56, 89
1, 25048, Note_off_c, 0, 56, 89
1, 25166, Note_on_c, 0, 64, 102
1, 25219, Note_off_c, 0, 64, 102
1, 25231, Note_on_c, 0, 65, 108
1, 25351, Note_off_c, 0, 65, 108
1, 25353, Note_on_c, 0, 68, 93
1, 25405, Note_off_c, 0, 68, 93
1, 25427, Note_on_c, 0, 70, 113
1, 25520, Note_off_c, 0, 70, 113
1, 25533, Note_on_c, 0, 73, 121
1, 25603, Note_off_c, 0, 73, 121
1, 25615, Note_on_c, 0, 76, 126
1, 25703, Note_off_c, 0, 76, 126
1, 25756, Note_on_c, 0, 76, 120
1, 25872, Note_off_c, 0, 76, 120
1, 25917, Note_on_c, 0, 76, 120
1, 26164, Note_off_c, 0, 76, 120
1, 26180, Note_on_c, 0, 75, 118
1, 26292, Note_off_c, 0, 75, 118
1, 26382, Note_on_c, 0, 73, 123
1, 26476, Note_off_c, 0, 73, 123
1, 26494, Note_on_c, 0, 70, 97
1, 26549, Note_off_c, 0, 70, 97
1, 26566, Note_on_c, 0, 73, 116
1, 26666, Note_off_c, 0, 73, 116
1, 26693, Note_on_c, 0, 73, 113
1, 26743, Note_off_c, 0, 73, 113
1, 26762, Note_on_c, 0, 73, 109
1, 26864, Note_off_c, 0, 73, 109
1, 26897, Note_on_c, 0, 70, 103
1, 26940, Note_off_c, 0, 70, 103
1, 27000, Note_on_c, 0, 64, 98
1, 27082, Note_off_c, 0, 64, 98
1, 27148, Note_on_c, 0, 65, 94
1, 27248, Note_off_c, 0, 65, 94
1, 27264, Note_on_c, 0, 68, 97
1, 27305, Note_off_c, 0, 68, 97
1, 27342, Note_on_c, 0, 73, 118
1, 27448, Note_off_c, 0, 73, 118
1, 27457, Note_on_c, 0, 76, 103
1, 27487, Note_off_c, 0, 76, 103
1, 27490, Note_on_c, 0, 73, 96
1, 27633, Note_off_c, 0, 73, 96
1, 27658, Note_on_c, 0, 68, 83
1, 27711, Note_off_c, 0, 68, 83
1, 27711, End_track
0, 0, End_of_file
