0, 0, Header, 1, 1, 192
1, 0, Start_track
1, 0, Title_t, "Melody"
1, 0, Tempo, 259740
1, 0, Key_signature, -3, "major"
1, 0, Time_signature, 4, 2, 24, 8
1, 3325, Note_on_c, 0, 68, 102
1, 3419, Note_off_c, 0, 68, 102
1, 3468, Note_on_c, 0, 67, 103
1, 3573, Note_off_c, 0, 67, 103
1, 3708, Note_on_c, 0, 73, 127
1, 3768, Note_off_c, 0, 73, 127
1, 3780, Note_on_c, 0, 74, 126
1, 3891, Note_off_c, 0, 74, 126
1, 4020, Note_on_c, 0, 72, 96
1, 4232, Note_off_c, 0, 72, 96
1, 4255, Note_on_c, 0, 72, 98
1, 4342, Note_off_c, 0, 72, 98
1, 4487, Note_on_c, 0, 70, 89
1, 4527, Note_off_c, 0, 70, 89
1, 4537, Note_on_c, 0, 71, 97
1, 4642, Note_off_c, 0, 71, 97
1, 4781, Note_on_c, 0, 70, 92
1, 5006, Note_off_c, 0, 70, 92
1, 5044, Note_on_c, 0, 70, 94
1, 5106, Note_off_c, 0, 70, 94
1, 5228, Note_on_c, 0, 69, 111
1, 5292, Note_off_c, 0, 69, 111
1, 5410, Note_on_c, 0, 68, 104
1, 5465, Note_off_c, 0, 68, 104
1, 5600, Note_on_c, 0, 67, 109
1, 5677, Note_off_c, 0, 67, 109
1, 5725, Note_on_c, 0, 72, 104
1, 5800, Note_off_c, 0, 72, 104
1, 5872, Note_on_c, 0, 67, 99
1, 5927, Note_off_c, 0, 67, 99
1, 5940, Note_on_c, 0, 66, 88
1, 5980, Note_off_c, 0, 66, 88
1, 5996, Note_on_c, 0, 65, 99
1, 6075, Note_off_c, 0, 65, 99
1, 6090, Note_on_c, 0, 64, 94
1, 6138, Note_off_c, 0, 64, 94
1, 6159, Note_on_c, 0, 63, 107
1, 6281, Note_off_c, 0, 63, 107
1, 6320, Note_on_c, 0, 60, 87
1, 6609, Note_off_c, 0, 60, 87
1, 7118, Note_on_c, 0, 72, 109
1, 7190, Note_off_c, 0, 72, 109
1, 7200, Note_on_c, 0, 71, 87
1, 7282, Note_off_c, 0, 71, 87
1, 7294, Note_on_c, 0, 72, 107
1, 7381, Note_off_c, 0, 72, 107
1, 7507, Note_on_c, 0, 72, 105
1, 7614, Note_off_c, 0, 72, 105
1, 7621, Note_on_c, 0, 71, 97
1, 7681, Note_off_c, 0, 71, 97
1, 7700, Note_on_c, 0, 72, 111
1, 7772, Note_off_c, 0, 72, 111
1, 7892, Note_on_c, 0, 72, 101
1, 7977, Note_off_c, 0, 72, 101
1, 8002, Note_on_c, 0, 71, 98
1, 8059, Note_off_c, 0, 71, 98
1, 8066, Note_on_c, 0, 72, 108
1, 8138, Note_off_c, 0, 72, 108
1, 8287, Note_on_c, 0, 72, 110
1, 8374, Note_off_c, 0, 72, 110
1, 8416, Note_on_c, 0, 67, 103
1, 8476, Note_off_c, 0, 67, 103
1, 8613, Note_on_c, 0, 67, 90
1, 8898, Note_off_c, 0, 67, 90
1, 9551, Note_on_c, 0, 67, 108
1, 9608, Note_off_c, 0, 67, 108
1, 9638, Note_on_c, 0, 72, 115
1, 9699, Note_off_c, 0, 72, 115
1, 9730, Note_on_c, 0, 75, 118
1, 9794, Note_off_c, 0, 75, 118
1, 9809, Note_on_c, 0, 79, 113
1, 9894, Note_off_c, 0, 79, 113
1, 9987, Note_on_c, 0, 79, 104
1, 10082, Note_off_c, 0, 79, 104
1, 10198, Note_on_c, 0, 79, 105
1, 10288, Note_off_c, 0, 79, 105
1, 10327, Note_on_c, 0, 78, 89
1, 10381, Note_off_c, 0, 78, 89
1, 10397, Note_on_c, 0, 77, 106
1, 10460, Note_off_c, 0, 77, 106
1, 10491, Note_on_c, 0, 76, 116
1, 10567, Note_off_c, 0, 76, 116
1, 10594, Note_on_c, 0, 75, 107
1, 10698, Note_off_c, 0, 75, 107
1, 10728, Note_on_c, 0, 74, 101
1, 10830, Note_off_c, 0, 74, 101
1, 10887, Note_on_c, 0, 74, 103
1, 11144, Note_off_c, 0, 74, 103
1, 11159, Note_on_c, 0, 72, 101
1, 11243, Note_off_c, 0, 72, 101
1, 11264, Note_on_c, 0, 71, 84
1, 11309, Note_off_c, 0, 71, 84
1, 11322, Note_on_c, 0, 72, 99
1, 11398, Note_off_c, 0, 72, 99
1, 11527, Note_on_c, 0, 72, 99
1, 11602, Note_off_c, 0, 72, 99
1, 11721, Note_on_c, 0, 72, 103
1, 11811, Note_off_c, 0, 72, 103
1, 11829, Note_on_c, 0, 71, 88
1, 11918, Note_off_c, 0, 71, 88
1, 11934, Note_on_c, 0, 70, 77
1, 11986, Note_off_c, 0, 70, 77
1, 12020, Note_on_c, 0, 69, 87
1, 12092, Note_off_c, 0, 69, 87
1, 12110, Note_on_c, 0, 68, 96
1, 12159, Note_off_c, 0, 68, 96
1, 12211, Note_on_c, 0, 67, 100
1, 12287, Note_off_c, 0, 67, 100
1, 12424, Note_on_c, 0, 72, 100
1, 12644, Note_off_c, 0, 72, 100
1, 12666, Note_on_c, 0, 67, 103
1, 12733, Note_off_c, 0, 67, 103
1, 12770, Note_on_c, 0, 63, 88
1, 12836, Note_off_c, 0, 63, 88
1, 12864, Note_on_c, 0, 65, 97
1, 13014, Note_off_c, 0, 65, 97
1, 13041, Note_on_c, 0, 63, 108
1, 13102, Note_off_c, 0, 63, 108
1, 13230, Note_on_c, 0, 61, 97
1, 13285, Note_off_c, 0, 61, 97
1, 13366, Note_on_c, 0, 63, 110
1, 13436, Note_off_c, 0, 63, 110
1, 13546, Note_on_c, 0, 60, 90
1, 13597, Note_off_c, 0, 60, 90
1, 13625, Note_on_c, 0, 63, 103
1, 13762, Note_off_c, 0, 63, 103
1, 13787, Note_on_c, 0, 60, 94
1, 13862, Note_off_c, 0, 60, 94
1, 13901, Note_on_c, 0, 62, 97
1, 13944, Note_off_c, 0, 62, 97
1, 13957, Note_on_c, 0, 63, 108
1, 14041, Note_off_c, 0, 63, 108
1, 14078, Note_on_c, 0, 60, 93
1, 14144, Note_off_c, 0, 60, 93
1, 14163, Note_on_c, 0, 62, 103
1, 14232, Note_off_c, 0, 62, 103
1, 14257, Note_on_c, 0, 63, 110
1, 14358, Note_off_c, 0, 63, 110
1, 14379, Note_on_c, 0, 63, 107
1, 14455, Note_off_c, 0, 63, 107
1, 14491, Note_on_c, 0, 60, 94
1, 14570, Note_off_c, 0, 60, 94
1, 14698, Note_on_c, 0, 60, 93
1, 15010, Note_off_c, 0, 60, 93
1, 15541, Note_on_c, 0, 60, 99
1, 15607, Note_off_c, 0, 60, 99
1, 15610, Note_on_c, 0, 61, 106
1, 15692, Note_off_c, 0, 61, 106
1, 15735, Note_on_c, 0, 64, 114
1, 15816, Note_off_c, 0, 64, 114
1, 15911, Note_on_c, 0, 67, 111
1, 16072, Note_off_c, 0, 67, 111
1, 16185, Note_on_c, 0, 67, 89
1, 16524, Note_off_c, 0, 67, 89
1, 16557, Note_on_c, 0, 67, 105
1, 16624, Note_off_c, 0, 67, 105
1, 16634, Note_on_c, 0, 68, 115
1, 16754, Note_off_c, 0, 68, 115
1, 16829, Note_on_c, 0, 67, 114
1, 16916, Note_off_c, 0, 67, 114
1, 17029, Note_on_c, 0, 74, 123
1, 17118, Note_off_c, 0, 74, 123
1, 17130, Note_on_c, 0, 73, 105
1, 17185, Note_off_c, 0, 73, 105
1, 17203, Note_on_c, 0, 72, 99
1, 17290, Note_off_c, 0, 72, 99
1, 17303, Note_on_c, 0, 71, 91
1, 17337, Note_off_c, 0, 71, 91
1, 17379, Note_on_c, 0, 70, 98
1, 17469, Note_off_c, 0, 70, 98
1, 17503, Note_on_c, 0, 68, 94
1, 17558, Note_off_c, 0, 68, 94
1, 17570, Note_on_c, 0, 69, 102
1, 17657, Note_off_c, 0, 69, 102
1, 17669, Note_on_c, 0, 67, 86
1, 17706, Note_off_c, 0, 67, 86
1, 17713, Note_on_c, 0, 68, 97
1, 17753, Note_off_c, 0, 68, 97
1, 17777, Note_on_c, 0, 67, 104
1, 17844, Note_off_c, 0, 67, 104
1, 17886, Note_on_c, 0, 63, 107
1, 17935, Note_off_c, 0, 63, 107
1, 17954, Note_on_c, 0, 60, 100
1, 18041, Note_off_c, 0, 60, 100
1, 18170, Note_on_c, 0, 63, 102
1, 18375, Note_off_c, 0, 63, 102
1, 18539, Note_on_c, 0, 74, 119
1, 18813, Note_off_c, 0, 74, 119
1, 18847, Note_on_c, 0, 74, 119
1, 18910, Note_off_c, 0, 74, 119
1, 18926, Note_on_c, 0, 72, 102
1, 18990, Note_off_c, 0, 72, 102
1, 19059, Note_on_c, 0, 68, 102
1, 19117, Note_off_c, 0, 68, 102
1, 19243, Note_on_c, 0, 67, 91
1, 19570, Note_off_c, 0, 67, 91
1, 19683, Note_on_c, 0, 65, 100
1, 19778, Note_off_c, 0, 65, 100
1, 19854, Note_on_c, 0, 68, 109
1, 19918, Note_off_c, 0, 68, 109
1, 20071, Note_on_c, 0, 70, 106
1, 20158, Note_off_c, 0, 70, 106
1, 20222, Note_on_c, 0, 67, 102
1, 20282, Note_off_c, 0, 67, 102
1, 20361, Note_on_c, 0, 65, 108
1, 20431, Note_off_c, 0, 65, 108
1, 20453, Note_on_c, 0, 63, 113
1, 20543, Note_off_c, 0, 63, 113
1, 20656, Note_on_c, 0, 63, 103
1, 20758, Note_off_c, 0, 63, 103
1, 20863, Note_on_c, 0, 66, 102
1, 20927, Note_off_c, 0, 66, 102
1, 20930, Note_on_c, 0, 67, 103
1, 21049, Note_off_c, 0, 67, 103
1, 21144, Note_on_c, 0, 62, 94
1, 21432, Note_off_c, 0, 62, 94
1, 21803, Note_on_c, 0, 74, 117
1, 22091, Note_off_c, 0, 74, 117
1, 22110, Note_on_c, 0, 72, 99
1, 22135, Note_off_c, 0, 72, 99
1, 22157, Note_on_c, 0, 74, 120
1, 22205, Note_off_c, 0, 74, 120
1, 22218, Note_on_c, 0, 72, 89
1, 22296, Note_off_c, 0, 72, 89
1, 22330, Note_on_c, 0, 74, 110
1, 22399, Note_off_c, 0, 74, 110
1, 22413, Note_on_c, 0, 72, 93
1, 22445, Note_off_c, 0, 72, 93
1, 22455, Note_on_c, 0, 74, 103
1, 22518, Note_off_c, 0, 74, 103
1, 22525, Note_on_c, 0, 72, 100
1, 22567, Note_off_c, 0, 72, 100
1, 22576, Note_on_c, 0, 74, 113
1, 22672, Note_off_c, 0, 74, 113
1, 22793, Note_on_c, 0, 72, 94
1, 22849, Note_off_c, 0, 72, 94
1, 22865, Note_on_c, 0, 74, 116
1, 22949, Note_off_c, 0, 74, 116
1, 22958, Note_on_c, 0, 73, 97
1, 22981, Note_off_c, 0, 73, 97
1, 22991, Note_on_c, 0, 74, 98
1, 23019, Note_off_c, 0, 74, 98
1, 23039, Note_on_c, 0, 72, 92
1, 23092, Note_off_c, 0, 72, 92
1, 23105, Note_on_c, 0, 74, 109
1, 23268, Note_off_c, 0, 74, 109
1, 23290, Note_on_c, 0, 70, 91
1, 23324, Note_off_c, 0, 70, 91
1, 23333, Note_on_c, 0, 72, 106
1, 23403, Note_off_c, 0, 72, 106
1, 23438, Note_on_c, 0, 74, 119
1, 23519, Note_off_c, 0, 74, 119
1, 23528, Note_on_c, 0, 72, 105
1, 23551, Note_off_c, 0, 72, 105
1, 23559, Note_on_c, 0, 73, 99
1, 23587, Note_off_c, 0, 73, 99
1, 23599, Note_on_c, 0, 72, 106
1, 23649, Note_off_c, 0, 72, 106
1, 23674, Note_on_c, 0, 74, 118
1, 23796, Note_off_c, 0, 74, 118
1, 23807, Note_on_c, 0, 72, 99
1, 23831, Note_off_c, 0, 72, 99
1, 23838, Note_on_c, 0, 73, 97
1, 23897, Note_off_c, 0, 73, 97
1, 23904, Note_on_c, 0, 72, 109
1, 23972, Note_off_c, 0, 72, 109
1, 23998, Note_on_c, 0, 74, 122
1, 24082, Note_off_c, 0, 74, 122
1, 24087, Note_on_c, 0, 72, 108
1, 24110, Note_off_c, 0, 72, 108
1, 24119, Note_on_c, 0, 73, 107
1, 24142, Note_off_c, 0, 73, 107
1, 24154, Note_on_c, 0, 72, 94
1, 24207, Note_off_c, 0, 72, 94
1, 24247, Note_on_c, 0, 74, 115
1, 24383, Note_off_c, 0, 74, 115
1, 24398, Note_on_c, 0, 73, 98
1, 24446, Note_off_c, 0, 73, 98
1, 24461, Note_on_c, 0, 72, 97
1, 24562, Note_off_c, 0, 72, 97
1, 24579, Note_on_c, 0, 71, 85
1, 24638, Note_off_c, 0, 71, 85
1, 24654, Note_on_c, 0, 70, 93
1, 24737, Note_off_c, 0, 70, 93
1, 24744, Note_on_c, 0, 68, 93
1, 24889, Note_off_c, 0, 68, 93
1, 24961, Note_on_c, 0, 67, 102
1, 25035, Note_off_c, 0, 67, 102
1, 25127, Note_on_c, 0, 67, 93
1, 25298, Note_off_c, 0, 67, 93
1, 25403, Note_on_c, 0, 67, 105
1, 25484, Note_off_c, 0, 67, 105
1, 25497, Note_on_c, 0, 68, 98
1, 25572, Note_off_c, 0, 68, 98
1, 25582, Note_on_c, 0, 67, 98
1, 25674, Note_off_c, 0, 67, 98
1, 25793, Note_on_c, 0, 67, 111
1, 25850, Note_off_c, 0, 67, 111
1, 25869, Note_on_c, 0, 68, 96
1, 25961, Note_off_c, 0, 68, 96
1, 25973, Note_on_c, 0, 67, 106
1, 26048, Note_off_c, 0, 67, 106
1, 26192, Note_on_c, 0, 67, 115
1, 26270, Note_off_c, 0, 67, 115
1, 26289, Note_on_c, 0, 68, 101
1, 26362, Note_off_c, 0, 68, 101
1, 26375, Note_on_c, 0, 67, 108
1, 26445, Note_off_c, 0, 67, 108
1, 26556, Note_on_c, 0, 72, 106
1, 26746, Note_off_c, 0, 72, 106
1, 26856, Note_on_c, 0, 72, 107
1, 26934, Note_off_c, 0, 72, 107
1, 26970, Note_on_c, 0, 72, 102
1, 27033, Note_off_c, 0, 72, 102
1, 27122, Note_on_c, 0, 67, 101
1, 27189, Note_off_c, 0, 67, 101
1, 27309, Note_on_c, 0, 63, 114
1, 27419, Note_off_c, 0, 63, 114
1, 27449, Note_on_c, 0, 60, 100
1, 27516, Note_off_c, 0, 60, 100
1, 27642, Note_on_c, 0, 55, 105
1, 27999, Note_off_c, 0, 55, 105
1, 27999, End_track
0, 0, End_of_file
