0, 0, Header, 1, 1, 192
1, 0, Start_track
1, 0, Title_t, "Melody"
1, 0, Tempo, 241935
1, 0, Key_signature, 0, "major"
1, 0, Time_signature, 4, 2, 24, 8
1, 3055, Note_on_c, 0, 67, 97
1, 3134, Note_off_c, 0, 67, 97
1, 3210, Note_on_c, 0, 68, 106
1, 3325, Note_off_c, 0, 68, 106
1, 3341, Note_on_c, 0, 67, 96
1, 3488, Note_off_c, 0, 67, 96
1, 3789, Note_on_c, 0, 67, 101
1, 3903, Note_off_c, 0, 67, 101
1, 3951, Note_on_c, 0, 68, 104
1, 4056, Note_off_c, 0, 68, 104
1, 4113, Note_on_c, 0, 70, 86
1, 4179, Note_off_c, 0, 70, 86
1, 4587, Note_on_c, 0, 70, 99
1, 4643, Note_off_c, 0, 70, 99
1, 4652, Note_on_c, 0, 67, 97
1, 4681, Note_off_c, 0, 67, 97
1, 4694, Note_on_c, 0, 68, 105
1, 4889, Note_off_c, 0, 68, 105
1, 4907, Note_on_c, 0, 67, 103
1, 4954, Note_off_c, 0, 67, 103
1, 4962, Note_on_c, 0, 68, 91
1, 5105, Note_off_c, 0, 68, 91
1, 5134, Note_on_c, 0, 73, 114
1, 5273, Note_off_c, 0, 73, 114
1, 5283, Note_on_c, 0, 74, 114
1, 5385, Note_off_c, 0, 74, 114
1, 5436, Note_on_c, 0, 72, 104
1, 5492, Note_off_c, 0, 72, 104
1, 5506, Note_on_c, 0, 69, 87
1, 5670, Note_off_c, 0, 69, 87
1, 5713, Note_on_c, 0, 64, 88
1, 5794, Note_off_c, 0, 64, 88
1, 5810, Note_on_c, 0, 67, 94
1, 6110, Note_off_c, 0, 67, 94
1, 6453, Note_on_c, 0, 75, 124
1, 6539, Note_off_c, 0, 75, 124
1, 6566, Note_on_c, 0, 75, 115
1, 6795, Note_off_c, 0, 75, 115
1, 6801, Note_on_c, 0, 76, 104
1, 6927, Note_off_c, 0, 76, 104
1, 6952, Note_on_c, 0, 74, 103
1, 7026, Note_off_c, 0, 74, 103
1, 7038, Note_on_c, 0, 72, 104
1, 7141, Note_off_c, 0, 72, 104
1, 7235, Note_on_c, 0, 69, 105
1, 7323, Note_off_c, 0, 69, 105
1, 7331, Note_on_c, 0, 70, 93
1, 7348, Note_off_c, 0, 70, 93
1, 7351, Note_on_c, 0, 68, 88
1, 7377, Note_off_c, 0, 68, 88
1, 7387, Note_on_c, 0, 69, 99
1, 7456, Note_off_c, 0, 69, 99
1, 7463, Note_on_c, 0, 68, 95
1, 7535, Note_off_c, 0, 68, 95
1, 7562, Note_on_c, 0, 65, 87
1, 7595, Note_off_c, 0, 65, 87
1, 7609, Note_on_c, 0, 63, 83
1, 7711, Note_off_c, 0, 63, 83
1, 7719, Note_on_c, 0, 64, 81
1, 7791, Note_off_c, 0, 64, 81
1, 7795, Note_on_c, 0, 67, 100
1, 7906, Note_off_c, 0, 67, 100
1, 7982, Note_on_c, 0, 64, 89
1, 8067, Note_off_c, 0, 64, 89
1, 8105, Note_on_c, 0, 68, 73
1, 8152, Note_off_c, 0, 68, 73
1, 8162, Note_on_c, 0, 72, 114
1, 8276, Note_off_c, 0, 72, 114
1, 8301, Note_on_c, 0, 72, 116
1, 8391, Note_off_c, 0, 72, 116
1, 8464, Note_on_c, 0, 72, 91
1, 8742, Note_off_c, 0, 72, 91
1, 9118, Note_on_c, 0, 75, 122
1, 9205, Note_off_c, 0, 75, 122
1, 9281, Note_on_c, 0, 76, 111
1, 9421, Note_off_c, 0, 76, 111
1, 9443, Note_on_c, 0, 72, 102
1, 9556, Note_off_c, 0, 72, 102
1, 9588, Note_on_c, 0, 75, 101
1, 9675, Note_off_c, 0, 75, 101
1, 9705, Note_on_c, 0, 76, 111
1, 9845, Note_off_c, 0, 76, 111
1, 9853, Note_on_c, 0, 76, 116
1, 9937, Note_off_c, 0, 76, 116
1, 9954, Note_on_c, 0, 76, 99
1, 10127, Note_off_c, 0, 76, 99
1, 10162, Note_on_c, 0, 72, 94
1, 10438, Note_off_c, 0, 72, 94
1, 10604, Note_on_c, 0, 75, 119
1, 10746, Note_off_c, 0, 75, 119
1, 10789, Note_on_c, 0, 76, 116
1, 10918, Note_off_c, 0, 76, 116
1, 10943, Note_on_c, 0, 72, 108
1, 11062, Note_off_c, 0, 72, 108
1, 11096, Note_on_c, 0, 75, 115
1, 11180, Note_off_c, 0, 75, 115
1, 11194, Note_on_c, 0, 76, 120
1, 11270, Note_off_c, 0, 76, 120
1, 11284, Note_on_c, 0, 76, 116
1, 11368, Note_off_c, 0, 76, 116
1, 11387, Note_on_c, 0, 76, 118
1, 11527, Note_off_c, 0, 76, 118
1, 11564, Note_on_c, 0, 76, 115
1, 11662, Note_off_c, 0, 76, 115
1, 11704, Note_on_c, 0, 72, 95
1, 11820, Note_off_c, 0, 72, 95
1, 11865, Note_on_c, 0, 72, 92
1, 12138, Note_off_c, 0, 72, 92
1, 12479, Note_on_c, 0, 75, 104
1, 12653, Note_off_c, 0, 75, 104
1, 12687, Note_on_c, 0, 76, 116
1, 12957, Note_off_c, 0, 76, 116
1, 12982, Note_on_c, 0, 74, 117
1, 13054, Note_off_c, 0, 74, 117
1, 13084, Note_on_c, 0, 72, 105
1, 13205, Note_off_c, 0, 72, 105
1, 13232, Note_on_c, 0, 69, 103
1, 13321, Note_off_c, 0, 69, 103
1, 13333, Note_on_c, 0, 68, 86
1, 13349, Note_off_c, 0, 68, 86
1, 13359, Note_on_c, 0, 69, 95
1, 13418, Note_off_c, 0, 69, 95
1, 13441, Note_on_c, 0, 68, 94
1, 13495, Note_off_c, 0, 68, 94
1, 13501, Note_on_c, 0, 69, 82
1, 13547, Note_off_c, 0, 69, 82
1, 13574, Note_on_c, 0, 65, 91
1, 13602, Note_off_c, 0, 65, 91
1, 13613, Note_on_c, 0, 63, 97
1, 13707, Note_off_c, 0, 63, 97
1, 13732, Note_on_c, 0, 65, 78
1, 13802, Note_off_c, 0, 65, 78
1, 13831, Note_on_c, 0, 67, 107
1, 13938, Note_off_c, 0, 67, 107
1, 13992, Note_on_c, 0, 67, 108
1, 14106, Note_off_c, 0, 67, 108
1, 14182, Note_on_c, 0, 68, 109
1, 14321, Note_off_c, 0, 68, 109
1, 14341, Note_on_c, 0, 67, 94
1, 14423, Note_off_c, 0, 67, 94
1, 14496, Note_on_c, 0, 72, 91
1, 14781, Note_off_c, 0, 72, 91
1, 15149, Note_on_c, 0, 68, 104
1, 15236, Note_off_c, 0, 68, 104
1, 15312, Note_on_c, 0, 67, 101
1, 15324, Note_off_c, 0, 67, 101
1, 15338, Note_on_c, 0, 68, 104
1, 15410, Note_off_c, 0, 68, 104
1, 15497, Note_on_c, 0, 67, 115
1, 15577, Note_off_c, 0, 67, 115
1, 15601, Note_on_c, 0, 67, 106
1, 15683, Note_off_c, 0, 67, 106
1, 15707, Note_on_c, 0, 68, 113
1, 15975, Note_off_c, 0, 68, 113
1, 15993, Note_on_c, 0, 68, 110
1, 16074, Note_off_c, 0, 68, 110
1, 16093, Note_on_c, 0, 67, 109
1, 16253, Note_off_c, 0, 67, 109
1, 16263, Note_on_c, 0, 74, 118
1, 16386, Note_off_c, 0, 74, 118
1, 16419, Note_on_c, 0, 72, 110
1, 16537, Note_off_c, 0, 72, 110
1, 16595, Note_on_c, 0, 68, 110
1, 16834, Note_off_c, 0, 68, 110
1, 16857, Note_on_c, 0, 67, 101
1, 17083, Note_off_c, 0, 67, 101
1, 17228, Note_on_c, 0, 69, 96
1, 17328, Note_off_c, 0, 69, 96
1, 17347, Note_on_c, 0, 72, 101
1, 17399, Note_off_c, 0, 72, 101
1, 17410, Note_on_c, 0, 75, 119
1, 17533, Note_off_c, 0, 75, 119
1, 17553, Note_on_c, 0, 79, 104
1, 17707, Note_off_c, 0, 79, 104
1, 17741, Note_on_c, 0, 74, 119
1, 17811, Note_off_c, 0, 74, 119
1, 17819, Note_on_c, 0, 75, 119
1, 17985, Note_off_c, 0, 75, 119
1, 18010, Note_on_c, 0, 73, 111
1, 18128, Note_off_c, 0, 73, 111
1, 18182, Note_on_c, 0, 65, 97
1, 18370, Note_off_c, 0, 65, 97
1, 18376, Note_on_c, 0, 68, 92
1, 18669, Note_off_c, 0, 68, 92
1, 18757, Note_on_c, 0, 70, 120
1, 19048, Note_off_c, 0, 70, 120
1, 19073, Note_on_c, 0, 68, 106
1, 19134, Note_off_c, 0, 68, 106
1, 19147, Note_on_c, 0, 67, 103
1, 19257, Note_off_c, 0, 67, 103
1, 19323, Note_on_c, 0, 65, 81
1, 19437, Note_off_c, 0, 65, 81
1, 19448, Note_on_c, 0, 70, 103
1, 19702, Note_off_c, 0, 70, 103
1, 19735, Note_on_c, 0, 66, 90
1, 19853, Note_off_c, 0, 66, 90
1, 19894, Note_on_c, 0, 65, 104
1, 20042, Note_off_c, 0, 65, 104
1, 20053, Note_on_c, 0, 63, 96
1, 20132, Note_off_c, 0, 63, 96
1, 20198, Note_on_c, 0, 63, 99
1, 20276, Note_off_c, 0, 63, 99
1, 20288, Note_on_c, 0, 67, 106
1, 20381, Note_off_c, 0, 67, 106
1, 20405, Note_on_c, 0, 70, 102
1, 20474, Note_off_c, 0, 70, 102
1, 20484, Note_on_c, 0, 75, 113
1, 20645, Note_off_c, 0, 75, 113
1, 20676, Note_on_c, 0, 74, 113
1, 20807, Note_off_c, 0, 74, 113
1, 21038, Note_on_c, 0, 67, 101
1, 21101, Note_off_c, 0, 67, 101
1, 21106, Note_on_c, 0, 68, 118
1, 21408, Note_off_c, 0, 68, 118
1, 21432, Note_on_c, 0, 67, 87
1, 21789, Note_off_c, 0, 67, 87
1, 22402, Note_on_c, 0, 76, 111
1, 22560, Note_off_c, 0, 76, 111
1, 22594, Note_on_c, 0, 79, 124
1, 22687, Note_off_c, 0, 79, 124
1, 22729, Note_on_c, 0, 79, 119
1, 22829, Note_off_c, 0, 79, 119
1, 22887, Note_on_c, 0, 79, 125
1, 22951, Note_off_c, 0, 79, 125
1, 22993, Note_on_c, 0, 79, 127
1, 23103, Note_off_c, 0, 79, 127
1, 23171, Note_on_c, 0, 79, 118
1, 23313, Note_off_c, 0, 79, 118
1, 23361, Note_on_c, 0, 79, 121
1, 23529, Note_off_c, 0, 79, 121
1, 23536, Note_on_c, 0, 80, 96
1, 23635, Note_off_c, 0, 80, 96
1, 23668, Note_on_c, 0, 77, 115
1, 23754, Note_off_c, 0, 77, 115
1, 23760, Note_on_c, 0, 76, 112
1, 23827, Note_off_c, 0, 76, 112
1, 23839, Note_on_c, 0, 74, 116
1, 23916, Note_off_c, 0, 74, 116
1, 23936, Note_on_c, 0, 72, 117
1, 24020, Note_off_c, 0, 72, 117
1, 24041, Note_on_c, 0, 71, 102
1, 24095, Note_off_c, 0, 71, 102
1, 24113, Note_on_c, 0, 70, 107
1, 24212, Note_off_c, 0, 70, 107
1, 24233, Note_on_c, 0, 69, 101
1, 24303, Note_off_c, 0, 69, 101
1, 24330, Note_on_c, 0, 68, 103
1, 24469, Note_off_c, 0, 68, 103
1, 24507, Note_on_c, 0, 67, 105
1, 24876, Note_off_c, 0, 67, 105
1, 24894, Note_on_c, 0, 75, 119
1, 25013, Note_off_c, 0, 75, 119
1, 25026, Note_on_c, 0, 76, 119
1, 25171, Note_off_c, 0, 76, 119
1, 25185, Note_on_c, 0, 74, 111
1, 25246, Note_off_c, 0, 74, 111
1, 25259, Note_on_c, 0, 75, 109
1, 25287, Note_off_c, 0, 75, 109
1, 25292, Note_on_c, 0, 74, 85
1, 25313, Note_off_c, 0, 74, 85
1, 25318, Note_on_c, 0, 72, 101
1, 25375, Note_off_c, 0, 72, 101
1, 25381, Note_on_c, 0, 70, 97
1, 25417, Note_off_c, 0, 70, 97
1, 25431, Note_on_c, 0, 68, 111
1, 25639, Note_off_c, 0, 68, 111
1, 25652, Note_on_c, 0, 67, 103
1, 25737, Note_off_c, 0, 67, 103
1, 25745, Note_on_c, 0, 68, 90
1, 25781, Note_off_c, 0, 68, 90
1, 25787, Note_on_c, 0, 65, 92
1, 25827, Note_off_c, 0, 65, 92
1, 25839, Note_on_c, 0, 63, 105
1, 25912, Note_off_c, 0, 63, 105
1, 25955, Note_on_c, 0, 65, 88
1, 26021, Note_off_c, 0, 65, 88
1, 26032, Note_on_c, 0, 67, 89
1, 26211, Note_off_c, 0, 67, 89
1, 26219, Note_on_c, 0, 68, 114
1, 26418, Note_off_c, 0, 68, 114
1, 26432, Note_on_c, 0, 67, 114
1, 26603, Note_off_c, 0, 67, 114
1, 26719, Note_on_c, 0, 72, 102
1, 27003, Note_off_c, 0, 72, 102
1, 27293, Note_on_c, 0, 81, 92
1, 27366, Note_off_c, 0, 81, 92
1, 27574, Note_on_c, 0, 84, 121
1, 27696, Note_off_c, 0, 84, 121
1, 28131, Note_on_c, 0, 79, 111
1, 28311, Note_off_c, 0, 79, 111
1, 28340, Note_on_c, 0, 84, 110
1, 28526, Note_off_c, 0, 84, 110
1, 28904, Note_on_c, 0, 79, 104
1, 29089, Note_off_c, 0, 79, 104
1, 29113, Note_on_c, 0, 84, 111
1, 29278, Note_off_c, 0, 84, 111
1, 29666, Note_on_c, 0, 79, 102
1, 29843, Note_off_c, 0, 79, 102
1, 29870, Note_on_c, 0, 84, 104
1, 30039, Note_off_c, 0, 84, 104
1, 30436, Note_on_c, 0, 79, 105
1, 30597, Note_off_c, 0, 79, 105
1, 30621, Note_on_c, 0, 84, 113
1, 30792, Note_off_c, 0, 84, 113
1, 30810, Note_on_c, 0, 86, 112
1, 30936, Note_off_c, 0, 86, 112
1, 30976, Note_on_c, 0, 87, 107
1, 31149, Note_off_c, 0, 87, 107
1, 31184, Note_on_c, 0, 86, 123
1, 31302, Note_off_c, 0, 86, 123
1, 31326, Note_on_c, 0, 84, 118
1, 31481, Note_off_c, 0, 84, 118
1, 31528, Note_on_c, 0, 82, 122
1, 31747, Note_off_c, 0, 82, 122
1, 31776, Note_on_c, 0, 80, 122
1, 31865, Note_off_c, 0, 80, 122
1, 31873, Note_on_c, 0, 79, 111
1, 31889, Note_off_c, 0, 79, 111
1, 31901, Note_on_c, 0, 77, 94
1, 31960, Note_off_c, 0, 77, 94
1, 31968, Note_on_c, 0, 75, 115
1, 32103, Note_off_c, 0, 75, 115
1, 32124, Note_on_c, 0, 75, 114
1, 32318, Note_off_c, 0, 75, 114
1, 32332, Note_on_c, 0, 72, 110
1, 32432, Note_off_c, 0, 72, 110
1, 32440, Note_on_c, 0, 74, 113
1, 32510, Note_off_c, 0, 74, 113
1, 32531, Note_on_c, 0, 72, 115
1, 32640, Note_off_c, 0, 72, 115
1, 32661, Note_on_c, 0, 70, 105
1, 32915, Note_off_c, 0, 70, 105
1, 32929, Note_on_c, 0, 67, 103
1, 33100, Note_off_c, 0, 67, 103
1, 33513, Note_on_c, 0, 75, 108
1, 33671, Note_off_c, 0, 75, 108
1, 33690, Note_on_c, 0, 76, 119
1, 33846, Note_off_c, 0, 76, 119
1, 33884, Note_on_c, 0, 79, 102
1, 34074, Note_off_c, 0, 79, 102
1, 34079, Note_on_c, 0, 77, 114
1, 34138, Note_off_c, 0, 77, 114
1, 34144, Note_on_c, 0, 76, 118
1, 34230, Note_off_c, 0, 76, 118
1, 34236, Note_on_c, 0, 77, 118
1, 34370, Note_off_c, 0, 77, 118
1, 34391, Note_on_c, 0, 75, 104
1, 34441, Note_off_c, 0, 75, 104
1, 34461, Note_on_c, 0, 76, 100
1, 34634, Note_off_c, 0, 76, 100
1, 34651, Note_on_c, 0, 79, 118
1, 34765, Note_off_c, 0, 79, 118
1, 34783, Note_on_c, 0, 77, 112
1, 34931, Note_off_c, 0, 77, 112
1, 34955, Note_on_c, 0, 75, 111
1, 35029, Note_off_c, 0, 75, 111
1, 35035, Note_on_c, 0, 76, 112
1, 35189, Note_off_c, 0, 76, 112
1, 35243, Note_on_c, 0, 79, 120
1, 35519, Note_off_c, 0, 79, 120
1, 35538, Note_on_c, 0, 77, 119
1, 35622, Note_off_c, 0, 77, 119
1, 35630, Note_on_c, 0, 76, 114
1, 35697, Note_off_c, 0, 76, 114
1, 35711, Note_on_c, 0, 74, 113
1, 35781, Note_off_c, 0, 74, 113
1, 35789, Note_on_c, 0, 75, 101
1, 35815, Note_off_c, 0, 75, 101
1, 35839, Note_on_c, 0, 73, 106
1, 35897, Note_off_c, 0, 73, 106
1, 35906, Note_on_c, 0, 71, 101
1, 35980, Note_off_c, 0, 71, 101
1, 35992, Note_on_c, 0, 70, 109
1, 36101, Note_off_c, 0, 70, 109
1, 36114, Note_on_c, 0, 69, 99
1, 36177, Note_off_c, 0, 69, 99
1, 36194, Note_on_c, 0, 68, 92
1, 36298, Note_off_c, 0, 68, 92
1, 36363, Note_on_c, 0, 67, 106
1, 36467, Note_off_c, 0, 67, 106
1, 36488, Note_on_c, 0, 65, 99
1, 36520, Note_off_c, 0, 65, 99
1, 36543, Note_on_c, 0, 64, 98
1, 36628, Note_off_c, 0, 64, 98
1, 36628, Note_on_c, 0, 65, 91
1, 36698, Note_off_c, 0, 65, 91
1, 36730, Note_on_c, 0, 67, 110
1, 36849, Note_off_c, 0, 67, 110
1, 36891, Note_on_c, 0, 67, 106
1, 37021, Note_off_c, 0, 67, 106
1, 37086, Note_on_c, 0, 68, 111
1, 37187, Note_off_c, 0, 68, 111
1, 37204, Note_on_c, 0, 69, 94
1, 37303, Note_off_c, 0, 69, 94
1, 37518, Note_on_c, 0, 68, 84
1, 37641, Note_off_c, 0, 68, 84
1, 37670, Note_on_c, 0, 74, 117
1, 37766, Note_off_c, 0, 74, 117
1, 37771, Note_on_c, 0, 75, 92
1, 37790, Note_off_c, 0, 75, 92
1, 37795, Note_on_c, 0, 73, 93
1, 37815, Note_off_c, 0, 73, 93
1, 37827, Note_on_c, 0, 74, 104
1, 37889, Note_off_c, 0, 74, 104
1, 37901, Note_on_c, 0, 72, 110
1, 37995, Note_off_c, 0, 72, 110
1, 38013, Note_on_c, 0, 71, 102
1, 38072, Note_off_c, 0, 71, 102
1, 38085, Note_on_c, 0, 70, 96
1, 38157, Note_off_c, 0, 70, 96
1, 38168, Note_on_c, 0, 69, 100
1, 38263, Note_off_c, 0, 69, 100
1, 38273, Note_on_c, 0, 68, 106
1, 38387, Note_off_c, 0, 68, 106
1, 38442, Note_on_c, 0, 68, 106
1, 38590, Note_off_c, 0, 68, 106
1, 38637, Note_on_c, 0, 67, 101
1, 38749, Note_off_c, 0, 67, 101
1, 38769, Note_on_c, 0, 73, 117
1, 38870, Note_off_c, 0, 73, 117
1, 38878, Note_on_c, 0, 74, 115
1, 39010, Note_off_c, 0, 74, 115
1, 39019, Note_on_c, 0, 72, 104
1, 39389, Note_off_c, 0, 72, 104
1, 39619, Note_on_c, 0, 72, 106
1, 39718, Note_off_c, 0, 72, 106
1, 39838, Note_on_c, 0, 79, 122
1, 40151, Note_off_c, 0, 79, 122
1, 40191, Note_on_c, 0, 80, 124
1, 40557, Note_off_c, 0, 80, 124
1, 40569, Note_on_c, 0, 79, 123
1, 40739, Note_off_c, 0, 79, 123
1, 40755, Note_on_c, 0, 77, 118
1, 40897, Note_off_c, 0, 77, 118
1, 40913, Note_on_c, 0, 76, 114
1, 41033, Note_off_c, 0, 76, 114
1, 41079, Note_on_c, 0, 74, 109
1, 41156, Note_off_c, 0, 74, 109
1, 41165, Note_on_c, 0, 72, 115
1, 41258, Note_off_c, 0, 72, 115
1, 41271, Note_on_c, 0, 71, 97
1, 41333, Note_off_c, 0, 71, 97
1, 41345, Note_on_c, 0, 70, 100
1, 41483, Note_off_c, 0, 70, 100
1, 41487, Note_on_c, 0, 68, 97
1, 41545, Note_off_c, 0, 68, 97
1, 41555, Note_on_c, 0, 69, 101
1, 41694, Note_off_c, 0, 69, 101
1, 41733, Note_on_c, 0, 67, 105
1, 41850, Note_off_c, 0, 67, 105
1, 41856, Note_on_c, 0, 65, 95
1, 41925, Note_off_c, 0, 65, 95
1, 41933, Note_on_c, 0, 64, 98
1, 42029, Note_off_c, 0, 64, 98
1, 42048, Note_on_c, 0, 63, 104
1, 42153, Note_off_c, 0, 63, 104
1, 42309, Note_on_c, 0, 73, 110
1, 42404, Note_off_c, 0, 73, 110
1, 42409, Note_on_c, 0, 74, 113
1, 42714, Note_off_c, 0, 74, 113
1, 42727, Note_on_c, 0, 72, 100
1, 42799, Note_off_c, 0, 72, 100
1, 42886, Note_on_c, 0, 70, 93
1, 43117, Note_off_c, 0, 70, 93
1, 43470, Note_on_c, 0, 71, 102
1, 43528, Note_off_c, 0, 71, 102
1, 43538, Note_on_c, 0, 73, 86
1, 43565, Note_off_c, 0, 73, 86
1, 43573, Note_on_c, 0, 74, 84
1, 43658, Note_off_c, 0, 74, 84
1, 43685, Note_on_c, 0, 82, 123
1, 43956, Note_off_c, 0, 82, 123
1, 43991, Note_on_c, 0, 79, 107
1, 44404, Note_off_c, 0, 79, 107
1, 44437, Note_on_c, 0, 77, 121
1, 44534, Note_off_c, 0, 77, 121
1, 44546, Note_on_c, 0, 76, 109
1, 44626, Note_off_c, 0, 76, 109
1, 44630, Note_on_c, 0, 75, 115
1, 44732, Note_off_c, 0, 75, 115
1, 44753, Note_on_c, 0, 77, 113
1, 44890, Note_off_c, 0, 77, 113
1, 44955, Note_on_c, 0, 75, 115
1, 45198, Note_off_c, 0, 75, 115
1, 45221, Note_on_c, 0, 74, 103
1, 45366, Note_off_c, 0, 74, 103
1, 45417, Note_on_c, 0, 69, 107
1, 45617, Note_off_c, 0, 69, 107
1, 45629, Note_on_c, 0, 72, 99
1, 45905, Note_off_c, 0, 72, 99
1, 46186, Note_on_c, 0, 75, 111
1, 46358, Note_off_c, 0, 75, 111
1, 46371, Note_on_c, 0, 76, 111
1, 46513, Note_off_c, 0, 76, 111
1, 46530, Note_on_c, 0, 69, 89
1, 46722, Note_off_c, 0, 69, 89
1, 46734, Note_on_c, 0, 75, 118
1, 46911, Note_off_c, 0, 75, 118
1, 46920, Note_on_c, 0, 76, 106
1, 47070, Note_off_c, 0, 76, 106
1, 47080, Note_on_c, 0, 69, 99
1, 47242, Note_off_c, 0, 69, 99
1, 47675, Note_on_c, 0, 75, 107
1, 47848, Note_off_c, 0, 75, 107
1, 47879, Note_on_c, 0, 76, 10
1, 48026, Note_off_c, 0, 76, 10
1, 48046, Note_on_c, 0, 79, 119
1, 48184, Note_off_c, 0, 79, 119
1, 48192, Note_on_c, 0, 76, 112
1, 48286, Note_off_c, 0, 76, 112
1, 48296, Note_on_c, 0, 74, 114
1, 48439, Note_off_c, 0, 74, 114
1, 48459, Note_on_c, 0, 72, 117
1, 48579, Note_off_c, 0, 72, 117
1, 48619, Note_on_c, 0, 67, 104
1, 48779, Note_off_c, 0, 67, 104
1, 49218, Note_on_c, 0, 76, 122
1, 49379, Note_off_c, 0, 76, 122
1, 49411, Note_on_c, 0, 79, 119
1, 49539, Note_off_c, 0, 79, 119
1, 49551, Note_on_c, 0, 81, 112
1, 49698, Note_off_c, 0, 81, 112
1, 49740, Note_on_c, 0, 84, 121
1, 49973, Note_off_c, 0, 84, 121
1, 50007, Note_on_c, 0, 81, 115
1, 50177, Note_off_c, 0, 81, 115
1, 50201, Note_on_c, 0, 79, 123
1, 50317, Note_off_c, 0, 79, 123
1, 50347, Note_on_c, 0, 77, 115
1, 50460, Note_off_c, 0, 77, 115
1, 50498, Note_on_c, 0, 72, 114
1, 50570, Note_off_c, 0, 72, 114
1, 50591, Note_on_c, 0, 75, 121
1, 50701, Note_off_c, 0, 75, 121
1, 50740, Note_on_c, 0, 75, 111
1, 50828, Note_off_c, 0, 75, 111
1, 50842, Note_on_c, 0, 75, 122
1, 50945, Note_off_c, 0, 75, 122
1, 50960, Note_on_c, 0, 74, 116
1, 51079, Note_off_c, 0, 74, 116
1, 51101, Note_on_c, 0, 72, 94
1, 51233, Note_off_c, 0, 72, 94
1, 51276, Note_on_c, 0, 72, 102
1, 51436, Note_off_c, 0, 72, 102
1, 51436, End_track
0, 0, End_of_file
