0, 0, Header, 1, 1, 192
1, 0, Start_track
1, 0, Title_t, "Melody"
1, 0, Tempo, 382165
1, 0, Key_signature, -4, "major"
1, 0, Time_signature, 4, 2, 24, 8
1, 1114, Note_on_c, 0, 62, 105
1, 1244, Note_off_c, 0, 62, 105
1, 1282, Note_on_c, 0, 65, 107
1, 1374, Note_off_c, 0, 65, 107
1, 1401, Note_on_c, 0, 65, 103
1, 1464, Note_off_c, 0, 65, 103
1, 2385, Note_on_c, 0, 60, 105
1, 2458, Note_off_c, 0, 60, 105
1, 2460, Note_on_c, 0, 62, 109
1, 2512, Note_off_c, 0, 62, 109
1, 2516, Note_on_c, 0, 65, 111
1, 2576, Note_off_c, 0, 65, 111
1, 2581, Note_on_c, 0, 67, 112
1, 2663, Note_off_c, 0, 67, 112
1, 2665, Note_on_c, 0, 62, 94
1, 2696, Note_off_c, 0, 62, 94
1, 2702, Note_on_c, 0, 65, 94
1, 2938, Note_off_c, 0, 65, 94
1, 3695, Note_on_c, 0, 60, 103
1, 3838, Note_off_c, 0, 60, 103
1, 3903, Note_on_c, 0, 61, 106
1, 3947, Note_off_c, 0, 61, 106
1, 3950, Note_on_c, 0, 62, 103
1, 4016, Note_off_c, 0, 62, 103
1, 4022, Note_on_c, 0, 65, 119
1, 4083, Note_off_c, 0, 65, 119
1, 4100, Note_on_c, 0, 67, 118
1, 4224, Note_off_c, 0, 67, 118
1, 4270, Note_on_c, 0, 68, 107
1, 4406, Note_off_c, 0, 68, 107
1, 4409, Note_on_c, 0, 65, 103
1, 4468, Note_off_c, 0, 65, 103
1, 5215, Note_on_c, 0, 65, 123
1, 5376, Note_off_c, 0, 65, 123
1, 5415, Note_on_c, 0, 68, 126
1, 5536, Note_off_c, 0, 68, 126
1, 5555, Note_on_c, 0, 72, 103
1, 5596, Note_off_c, 0, 72, 103
1, 5603, Note_on_c, 0, 75, 117
1, 5732, Note_off_c, 0, 75, 117
1, 5746, Note_on_c, 0, 73, 111
1, 6174, Note_off_c, 0, 73, 111
1, 6552, Note_on_c, 0, 70, 98
1, 6581, Note_off_c, 0, 70, 98
1, 6586, Note_on_c, 0, 71, 120
1, 6634, Note_off_c, 0, 71, 120
1, 6644, Note_on_c, 0, 73, 127
1, 6677, Note_off_c, 0, 73, 127
1, 6681, Note_on_c, 0, 72, 118
1, 6721, Note_off_c, 0, 72, 118
1, 6724, Note_on_c, 0, 68, 122
1, 6767, Note_off_c, 0, 68, 122
1, 6773, Note_on_c, 0, 65, 116
1, 6854, Note_off_c, 0, 65, 116
1, 6891, Note_on_c, 0, 61, 113
1, 6967, Note_off_c, 0, 61, 113
1, 6979, Note_on_c, 0, 63, 108
1, 7061, Note_off_c, 0, 63, 108
1, 7069, Note_on_c, 0, 61, 116
1, 7136, Note_off_c, 0, 61, 116
1, 7149, Note_on_c, 0, 56, 99
1, 7249, Note_off_c, 0, 56, 99
1, 7257, Note_on_c, 0, 58, 100
1, 7297, Note_off_c, 0, 58, 100
1, 7307, Note_on_c, 0, 60, 89
1, 7413, Note_off_c, 0, 60, 89
1, 7445, Note_on_c, 0, 60, 103
1, 7490, Note_off_c, 0, 60, 103
1, 8269, Note_on_c, 0, 72, 119
1, 8305, Note_off_c, 0, 72, 119
1, 8308, Note_on_c, 0, 74, 117
1, 8376, Note_off_c, 0, 74, 117
1, 8382, Note_on_c, 0, 77, 115
1, 8431, Note_off_c, 0, 77, 115
1, 8456, Note_on_c, 0, 76, 100
1, 8491, Note_off_c, 0, 76, 100
1, 8502, Note_on_c, 0, 73, 115
1, 8536, Note_off_c, 0, 73, 115
1, 8539, Note_on_c, 0, 69, 108
1, 8561, Note_off_c, 0, 69, 108
1, 8567, Note_on_c, 0, 65, 108
1, 8613, Note_off_c, 0, 65, 108
1, 8624, Note_on_c, 0, 67, 119
1, 8713, Note_off_c, 0, 67, 119
1, 8714, Note_on_c, 0, 68, 109
1, 8759, Note_off_c, 0, 68, 109
1, 8807, Note_on_c, 0, 65, 89
1, 8901, Note_off_c, 0, 65, 89
1, 8943, Note_on_c, 0, 65, 101
1, 9005, Note_off_c, 0, 65, 101
1, 9784, Note_on_c, 0, 62, 113
1, 9909, Note_off_c, 0, 62, 113
1, 9918, Note_on_c, 0, 60, 95
1, 9960, Note_off_c, 0, 60, 95
1, 9972, Note_on_c, 0, 65, 119
1, 10066, Note_off_c, 0, 65, 119
1, 10080, Note_on_c, 0, 69, 120
1, 10155, Note_off_c, 0, 69, 120
1, 10165, Note_on_c, 0, 72, 118
1, 10251, Note_off_c, 0, 72, 118
1, 10260, Note_on_c, 0, 70, 123
1, 10331, Note_off_c, 0, 70, 123
1, 10339, Note_on_c, 0, 69, 122
1, 10417, Note_off_c, 0, 69, 122
1, 10426, Note_on_c, 0, 70, 116
1, 10473, Note_off_c, 0, 70, 116
1, 10480, Note_on_c, 0, 67, 112
1, 10531, Note_off_c, 0, 67, 112
1, 10541, Note_on_c, 0, 65, 109
1, 10588, Note_off_c, 0, 65, 109
1, 10666, Note_on_c, 0, 64, 104
1, 10713, Note_off_c, 0, 64, 104
1, 10727, Note_on_c, 0, 63, 108
1, 10818, Note_off_c, 0, 63, 108
1, 10832, Note_on_c, 0, 60, 106
1, 10895, Note_off_c, 0, 60, 106
1, 10913, Note_on_c, 0, 57, 106
1, 11006, Note_off_c, 0, 57, 106
1, 11038, Note_on_c, 0, 53, 103
1, 11082, Note_off_c, 0, 53, 103
1, 11089, Note_on_c, 0, 58, 103
1, 11200, Note_off_c, 0, 58, 103
1, 11225, Note_on_c, 0, 61, 109
1, 11292, Note_off_c, 0, 61, 109
1, 11299, Note_on_c, 0, 62, 97
1, 11350, Note_off_c, 0, 62, 97
1, 11354, Note_on_c, 0, 65, 102
1, 11391, Note_off_c, 0, 65, 102
1, 11399, Note_on_c, 0, 67, 105
1, 11462, Note_off_c, 0, 67, 105
1, 11489, Note_on_c, 0, 68, 121
1, 11600, Note_off_c, 0, 68, 121
1, 11642, Note_on_c, 0, 68, 113
1, 11746, Note_off_c, 0, 68, 113
1, 11786, Note_on_c, 0, 67, 118
1, 11844, Note_off_c, 0, 67, 118
1, 11853, Note_on_c, 0, 68, 118
1, 12009, Note_off_c, 0, 68, 118
1, 12060, Note_on_c, 0, 59, 111
1, 12148, Note_off_c, 0, 59, 111
1, 12161, Note_on_c, 0, 68, 107
1, 12221, Note_off_c, 0, 68, 107
1, 12239, Note_on_c, 0, 58, 96
1, 12384, Note_off_c, 0, 58, 96
1, 12406, Note_on_c, 0, 68, 120
1, 12545, Note_off_c, 0, 68, 120
1, 12547, Note_on_c, 0, 65, 96
1, 12586, Note_off_c, 0, 65, 96
1, 12596, Note_on_c, 0, 67, 112
1, 12705, Note_off_c, 0, 67, 112
1, 12713, Note_on_c, 0, 65, 107
1, 12766, Note_off_c, 0, 65, 107
1, 12794, Note_on_c, 0, 60, 93
1, 12884, Note_off_c, 0, 60, 93
1, 12905, Note_on_c, 0, 56, 98
1, 12962, Note_off_c, 0, 56, 98
1, 12967, Note_on_c, 0, 58, 102
1, 13079, Note_off_c, 0, 58, 102
1, 13114, Note_on_c, 0, 60, 105
1, 13197, Note_off_c, 0, 60, 105
1, 13296, Note_on_c, 0, 53, 96
1, 13522, Note_off_c, 0, 53, 96
1, 13558, Note_on_c, 0, 56, 103
1, 13697, Note_off_c, 0, 56, 103
1, 13744, Note_on_c, 0, 58, 84
1, 13940, Note_off_c, 0, 58, 84
1, 14340, Note_on_c, 0, 53, 96
1, 14423, Note_off_c, 0, 53, 96
1, 14436, Note_on_c, 0, 56, 115
1, 14500, Note_off_c, 0, 56, 115
1, 14508, Note_on_c, 0, 60, 97
1, 14601, Note_off_c, 0, 60, 97
1, 14607, Note_on_c, 0, 65, 115
1, 14677, Note_off_c, 0, 65, 115
1, 14687, Note_on_c, 0, 68, 119
1, 14790, Note_off_c, 0, 68, 119
1, 14833, Note_on_c, 0, 69, 103
1, 14876, Note_off_c, 0, 69, 103
1, 14881, Note_on_c, 0, 72, 115
1, 14952, Note_off_c, 0, 72, 115
1, 14979, Note_on_c, 0, 72, 106
1, 15061, Note_off_c, 0, 72, 106
1, 15066, Note_on_c, 0, 77, 99
1, 15415, Note_off_c, 0, 77, 99
1, 15747, Note_on_c, 0, 72, 94
1, 15805, Note_off_c, 0, 72, 94
1, 15819, Note_on_c, 0, 78, 113
1, 15918, Note_off_c, 0, 78, 113
1, 15936, Note_on_c, 0, 76, 103
1, 16008, Note_off_c, 0, 76, 103
1, 16017, Note_on_c, 0, 70, 100
1, 16096, Note_off_c, 0, 70, 100
1, 16119, Note_on_c, 0, 73, 99
1, 16178, Note_off_c, 0, 73, 99
1, 16188, Note_on_c, 0, 75, 112
1, 16296, Note_off_c, 0, 75, 112
1, 16305, Note_on_c, 0, 73, 117
1, 16386, Note_off_c, 0, 73, 117
1, 16389, Note_on_c, 0, 72, 112
1, 16444, Note_off_c, 0, 72, 112
1, 16454, Note_on_c, 0, 73, 109
1, 16500, Note_off_c, 0, 73, 109
1, 16508, Note_on_c, 0, 68, 111
1, 16567, Note_off_c, 0, 68, 111
1, 16569, Note_on_c, 0, 65, 94
1, 16667, Note_off_c, 0, 65, 94
1, 16675, Note_on_c, 0, 67, 110
1, 16750, Note_off_c, 0, 67, 110
1, 16756, Note_on_c, 0, 68, 121
1, 16865, Note_off_c, 0, 68, 121
1, 16869, Note_on_c, 0, 65, 109
1, 16932, Note_off_c, 0, 65, 109
1, 16935, Note_on_c, 0, 60, 94
1, 17062, Note_off_c, 0, 60, 94
1, 17066, Note_on_c, 0, 56, 90
1, 17118, Note_off_c, 0, 56, 90
1, 17127, Note_on_c, 0, 58, 92
1, 17234, Note_off_c, 0, 58, 92
1, 17271, Note_on_c, 0, 55, 84
1, 17301, Note_off_c, 0, 55, 84
1, 17306, Note_on_c, 0, 56, 103
1, 17451, Note_off_c, 0, 56, 103
1, 17453, Note_on_c, 0, 66, 116
1, 17507, Note_off_c, 0, 66, 116
1, 17512, Note_on_c, 0, 68, 121
1, 17706, Note_off_c, 0, 68, 121
1, 17715, Note_on_c, 0, 67, 109
1, 17759, Note_off_c, 0, 67, 109
1, 17765, Note_on_c, 0, 68, 102
1, 17796, Note_off_c, 0, 68, 102
1, 17801, Note_on_c, 0, 67, 112
1, 17847, Note_off_c, 0, 67, 112
1, 17851, Note_on_c, 0, 65, 111
1, 17910, Note_off_c, 0, 65, 111
1, 17914, Note_on_c, 0, 64, 95
1, 18017, Note_off_c, 0, 64, 95
1, 18025, Note_on_c, 0, 67, 105
1, 18077, Note_off_c, 0, 67, 105
1, 18083, Note_on_c, 0, 70, 112
1, 18223, Note_off_c, 0, 70, 112
1, 18230, Note_on_c, 0, 72, 120
1, 18267, Note_off_c, 0, 72, 120
1, 18275, Note_on_c, 0, 73, 117
1, 18484, Note_off_c, 0, 73, 117
1, 18500, Note_on_c, 0, 72, 102
1, 18591, Note_off_c, 0, 72, 102
1, 18621, Note_on_c, 0, 65, 114
1, 18664, Note_off_c, 0, 65, 114
1, 18672, Note_on_c, 0, 66, 105
1, 18865, Note_off_c, 0, 66, 105
1, 18868, Note_on_c, 0, 64, 99
1, 18974, Note_off_c, 0, 64, 99
1, 18974, Note_on_c, 0, 58, 96
1, 19173, Note_off_c, 0, 58, 96
1, 19178, Note_on_c, 0, 63, 109
1, 19250, Note_off_c, 0, 63, 109
1, 19263, Note_on_c, 0, 61, 98
1, 19359, Note_off_c, 0, 61, 98
1, 19436, Note_on_c, 0, 60, 94
1, 19556, Note_off_c, 0, 60, 94
1, 19574, Note_on_c, 0, 60, 99
1, 19612, Note_off_c, 0, 60, 99
1, 20345, Note_on_c, 0, 61, 105
1, 20388, Note_off_c, 0, 61, 105
1, 20391, Note_on_c, 0, 62, 106
1, 20476, Note_off_c, 0, 62, 106
1, 20525, Note_on_c, 0, 62, 100
1, 20562, Note_off_c, 0, 62, 100
1, 20591, Note_on_c, 0, 65, 111
1, 20698, Note_off_c, 0, 65, 111
1, 20705, Note_on_c, 0, 67, 107
1, 20760, Note_off_c, 0, 67, 107
1, 20773, Note_on_c, 0, 68, 121
1, 20915, Note_off_c, 0, 68, 121
1, 20965, Note_on_c, 0, 65, 104
1, 21076, Note_off_c, 0, 65, 104
1, 21102, Note_on_c, 0, 65, 98
1, 21172, Note_off_c, 0, 65, 98
1, 21874, Note_on_c, 0, 62, 97
1, 22013, Note_off_c, 0, 62, 97
1, 22124, Note_on_c, 0, 65, 106
1, 22298, Note_off_c, 0, 65, 106
1, 22306, Note_on_c, 0, 68, 115
1, 22478, Note_off_c, 0, 68, 115
1, 22505, Note_on_c, 0, 70, 112
1, 22627, Note_off_c, 0, 70, 112
1, 22646, Note_on_c, 0, 70, 109
1, 22699, Note_off_c, 0, 70, 109
1, 22713, Note_on_c, 0, 70, 119
1, 22760, Note_off_c, 0, 70, 119
1, 22762, Note_on_c, 0, 71, 114
1, 22812, Note_off_c, 0, 71, 114
1, 22841, Note_on_c, 0, 71, 111
1, 22884, Note_off_c, 0, 71, 111
1, 22888, Note_on_c, 0, 72, 110
1, 22953, Note_off_c, 0, 72, 110
1, 22969, Note_on_c, 0, 74, 111
1, 23005, Note_off_c, 0, 74, 111
1, 23007, Note_on_c, 0, 72, 114
1, 23025, Note_off_c, 0, 72, 114
1, 23030, Note_on_c, 0, 69, 118
1, 23073, Note_off_c, 0, 69, 118
1, 23075, Note_on_c, 0, 65, 109
1, 23177, Note_off_c, 0, 65, 109
1, 23200, Note_on_c, 0, 63, 110
1, 23289, Note_off_c, 0, 63, 110
1, 23308, Note_on_c, 0, 61, 105
1, 23376, Note_off_c, 0, 61, 105
1, 23386, Note_on_c, 0, 62, 99
1, 23457, Note_off_c, 0, 62, 99
1, 23476, Note_on_c, 0, 65, 112
1, 23530, Note_off_c, 0, 65, 112
1, 23538, Note_on_c, 0, 69, 102
1, 23588, Note_off_c, 0, 69, 102
1, 23594, Note_on_c, 0, 72, 115
1, 23633, Note_off_c, 0, 72, 115
1, 23668, Note_on_c, 0, 70, 115
1, 23739, Note_off_c, 0, 70, 115
1, 23793, Note_on_c, 0, 62, 86
1, 23846, Note_off_c, 0, 62, 86
1, 23852, Note_on_c, 0, 63, 106
1, 23939, Note_off_c, 0, 63, 106
1, 23962, Note_on_c, 0, 64, 102
1, 24013, Note_off_c, 0, 64, 102
1, 24023, Note_on_c, 0, 69, 117
1, 24149, Note_off_c, 0, 69, 117
1, 24153, Note_on_c, 0, 68, 114
1, 24218, Note_off_c, 0, 68, 114
1, 24226, Note_on_c, 0, 64, 94
1, 24316, Note_off_c, 0, 64, 94
1, 24352, Note_on_c, 0, 60, 90
1, 24391, Note_off_c, 0, 60, 90
1, 24401, Note_on_c, 0, 67, 117
1, 24504, Note_off_c, 0, 67, 117
1, 24526, Note_on_c, 0, 70, 116
1, 24588, Note_off_c, 0, 70, 116
1, 24593, Note_on_c, 0, 69, 100
1, 24710, Note_off_c, 0, 69, 100
1, 24717, Note_on_c, 0, 67, 96
1, 24775, Note_off_c, 0, 67, 96
1, 24783, Note_on_c, 0, 72, 107
1, 24892, Note_off_c, 0, 72, 107
1, 24913, Note_on_c, 0, 65, 92
1, 25018, Note_off_c, 0, 65, 92
1, 25182, Note_on_c, 0, 68, 121
1, 25329, Note_off_c, 0, 68, 121
1, 25377, Note_on_c, 0, 77, 110
1, 25468, Note_off_c, 0, 77, 110
1, 25508, Note_on_c, 0, 78, 113
1, 25549, Note_off_c, 0, 78, 113
1, 25553, Note_on_c, 0, 80, 112
1, 25750, Note_off_c, 0, 80, 112
1, 25756, Note_on_c, 0, 79, 103
1, 25807, Note_off_c, 0, 79, 103
1, 25812, Note_on_c, 0, 77, 102
1, 25861, Note_off_c, 0, 77, 102
1, 25870, Note_on_c, 0, 76, 105
1, 26129, Note_off_c, 0, 76, 105
1, 26143, Note_on_c, 0, 79, 103
1, 26200, Note_off_c, 0, 79, 103
1, 26205, Note_on_c, 0, 77, 108
1, 26262, Note_off_c, 0, 77, 108
1, 26271, Note_on_c, 0, 72, 106
1, 26322, Note_off_c, 0, 72, 106
1, 26520, Note_on_c, 0, 75, 114
1, 26581, Note_off_c, 0, 75, 114
1, 26586, Note_on_c, 0, 74, 111
1, 26629, Note_off_c, 0, 74, 111
1, 26633, Note_on_c, 0, 73, 115
1, 26675, Note_off_c, 0, 73, 115
1, 26684, Note_on_c, 0, 72, 109
1, 26730, Note_off_c, 0, 72, 109
1, 26736, Note_on_c, 0, 70, 117
1, 26780, Note_off_c, 0, 70, 117
1, 26783, Note_on_c, 0, 69, 114
1, 26813, Note_off_c, 0, 69, 114
1, 26818, Note_on_c, 0, 68, 114
1, 26862, Note_off_c, 0, 68, 114
1, 26867, Note_on_c, 0, 67, 110
1, 26915, Note_off_c, 0, 67, 110
1, 26918, Note_on_c, 0, 65, 108
1, 26967, Note_off_c, 0, 65, 108
1, 27161, Note_on_c, 0, 60, 99
1, 27205, Note_off_c, 0, 60, 99
1, 27214, Note_on_c, 0, 64, 104
1, 27321, Note_off_c, 0, 64, 104
1, 27330, Note_on_c, 0, 67, 115
1, 27362, Note_off_c, 0, 67, 115
1, 27367, Note_on_c, 0, 65, 112
1, 27411, Note_off_c, 0, 65, 112
1, 27416, Note_on_c, 0, 60, 94
1, 27460, Note_off_c, 0, 60, 94
1, 27463, Note_on_c, 0, 56, 109
1, 27497, Note_off_c, 0, 56, 109
1, 27520, Note_on_c, 0, 63, 111
1, 27566, Note_off_c, 0, 63, 111
1, 27569, Note_on_c, 0, 62, 104
1, 27601, Note_off_c, 0, 62, 104
1, 27603, Note_on_c, 0, 61, 100
1, 27640, Note_off_c, 0, 61, 100
1, 27681, Note_on_c, 0, 58, 96
1, 27724, Note_off_c, 0, 58, 96
1, 27730, Note_on_c, 0, 61, 105
1, 27784, Note_off_c, 0, 61, 105
1, 27789, Note_on_c, 0, 58, 99
1, 27847, Note_off_c, 0, 58, 99
1, 27850, Note_on_c, 0, 60, 92
1, 28052, Note_off_c, 0, 60, 92
1, 28246, Note_on_c, 0, 60, 102
1, 28378, Note_off_c, 0, 60, 102
1, 28392, Note_on_c, 0, 62, 97
1, 28441, Note_off_c, 0, 62, 97
1, 28451, Note_on_c, 0, 64, 100
1, 28548, Note_off_c, 0, 64, 100
1, 28559, Note_on_c, 0, 67, 114
1, 28634, Note_off_c, 0, 67, 114
1, 28644, Note_on_c, 0, 65, 102
1, 28751, Note_off_c, 0, 65, 102
1, 28760, Note_on_c, 0, 60, 105
1, 28821, Note_off_c, 0, 60, 105
1, 28824, Note_on_c, 0, 56, 95
1, 28961, Note_off_c, 0, 56, 95
1, 28968, Note_on_c, 0, 58, 91
1, 29006, Note_off_c, 0, 58, 91
1, 29007, Note_on_c, 0, 60, 103
1, 29125, Note_off_c, 0, 60, 103
1, 29144, Note_on_c, 0, 59, 95
1, 29188, Note_off_c, 0, 59, 95
1, 29196, Note_on_c, 0, 60, 92
1, 29314, Note_off_c, 0, 60, 92
1, 29346, Note_on_c, 0, 61, 113
1, 29441, Note_off_c, 0, 61, 113
1, 29455, Note_on_c, 0, 62, 96
1, 29527, Note_off_c, 0, 62, 96
1, 29537, Note_on_c, 0, 63, 104
1, 29595, Note_off_c, 0, 63, 104
1, 29611, Note_on_c, 0, 63, 104
1, 29678, Note_off_c, 0, 63, 104
1, 29787, Note_on_c, 0, 64, 107
1, 29929, Note_off_c, 0, 64, 107
1, 29934, Note_on_c, 0, 63, 103
1, 29972, Note_off_c, 0, 63, 103
1, 29982, Note_on_c, 0, 64, 100
1, 30075, Note_off_c, 0, 64, 100
1, 30088, Note_on_c, 0, 65, 116
1, 30157, Note_off_c, 0, 65, 116
1, 30162, Note_on_c, 0, 66, 114
1, 30229, Note_off_c, 0, 66, 114
1, 30232, Note_on_c, 0, 67, 113
1, 30280, Note_off_c, 0, 67, 113
1, 30281, Note_on_c, 0, 69, 115
1, 30341, Note_off_c, 0, 69, 115
1, 30345, Note_on_c, 0, 66, 106
1, 30412, Note_off_c, 0, 66, 106
1, 30419, Note_on_c, 0, 67, 110
1, 30462, Note_off_c, 0, 67, 110
1, 30469, Note_on_c, 0, 69, 49
1, 30538, Note_off_c, 0, 69, 49
1, 30542, Note_on_c, 0, 67, 109
1, 30655, Note_off_c, 0, 67, 109
1, 30680, Note_on_c, 0, 60, 83
1, 30907, Note_off_c, 0, 60, 83
1, 31090, Note_on_c, 0, 68, 121
1, 31230, Note_off_c, 0, 68, 121
1, 31288, Note_on_c, 0, 65, 109
1, 31418, Note_off_c, 0, 65, 109
1, 31420, Note_on_c, 0, 68, 117
1, 31522, Note_on_c, 0, 67, 118
1, 31522, Note_off_c, 0, 68, 117
1, 31564, Note_off_c, 0, 67, 118
1, 31564, Note_on_c, 0, 65, 98
1, 31629, Note_off_c, 0, 65, 98
1, 31662, Note_on_c, 0, 77, 112
1, 31769, Note_off_c, 0, 77, 112
1, 31817, Note_on_c, 0, 65, 88
1, 31839, Note_off_c, 0, 65, 88
1, 31870, Note_on_c, 0, 68, 119
1, 31945, Note_off_c, 0, 68, 119
1, 32000, Note_on_c, 0, 68, 112
1, 32043, Note_off_c, 0, 68, 112
1, 32076, Note_on_c, 0, 65, 92
1, 32266, Note_off_c, 0, 65, 92
1, 32275, Note_on_c, 0, 62, 88
1, 32346, Note_off_c, 0, 62, 88
1, 32626, Note_on_c, 0, 68, 118
1, 32755, Note_off_c, 0, 68, 118
1, 32804, Note_on_c, 0, 65, 116
1, 32867, Note_off_c, 0, 65, 116
1, 32958, Note_on_c, 0, 68, 126
1, 33032, Note_off_c, 0, 68, 126
1, 33038, Note_on_c, 0, 67, 123
1, 33097, Note_off_c, 0, 67, 123
1, 33101, Note_on_c, 0, 65, 98
1, 33149, Note_off_c, 0, 65, 98
1, 33176, Note_on_c, 0, 64, 113
1, 33209, Note_off_c, 0, 64, 113
1, 33215, Note_on_c, 0, 77, 109
1, 33292, Note_off_c, 0, 77, 109
1, 33358, Note_on_c, 0, 72, 104
1, 33422, Note_off_c, 0, 72, 104
1, 33429, Note_on_c, 0, 75, 115
1, 33482, Note_off_c, 0, 75, 115
1, 33483, Note_on_c, 0, 77, 117
1, 33538, Note_off_c, 0, 77, 117
1, 33547, Note_on_c, 0, 76, 114
1, 33579, Note_off_c, 0, 76, 114
1, 33582, Note_on_c, 0, 74, 100
1, 33619, Note_off_c, 0, 74, 100
1, 33621, Note_on_c, 0, 72, 110
1, 33725, Note_off_c, 0, 72, 110
1, 33740, Note_on_c, 0, 68, 120
1, 33804, Note_off_c, 0, 68, 120
1, 33812, Note_on_c, 0, 67, 108
1, 33882, Note_off_c, 0, 67, 108
1, 33891, Note_on_c, 0, 65, 91
1, 33930, Note_off_c, 0, 65, 91
1, 33932, Note_on_c, 0, 68, 112
1, 33977, Note_off_c, 0, 68, 112
1, 33980, Note_on_c, 0, 70, 110
1, 34169, Note_off_c, 0, 70, 110
1, 34186, Note_on_c, 0, 70, 106
1, 34314, Note_off_c, 0, 70, 106
1, 34328, Note_on_c, 0, 68, 101
1, 34370, Note_off_c, 0, 68, 101
1, 34380, Note_on_c, 0, 70, 108
1, 34526, Note_off_c, 0, 70, 108
1, 34530, Note_on_c, 0, 72, 114
1, 34573, Note_off_c, 0, 72, 114
1, 34700, Note_on_c, 0, 65, 106
1, 34936, Note_off_c, 0, 65, 106
1, 35143, Note_on_c, 0, 69, 123
1, 35228, Note_off_c, 0, 69, 123
1, 35234, Note_on_c, 0, 70, 118
1, 35276, Note_off_c, 0, 70, 118
1, 35279, Note_on_c, 0, 69, 115
1, 35301, Note_off_c, 0, 69, 115
1, 35303, Note_on_c, 0, 67, 112
1, 35338, Note_off_c, 0, 67, 112
1, 35343, Note_on_c, 0, 65, 106
1, 35456, Note_off_c, 0, 65, 106
1, 35469, Note_on_c, 0, 63, 102
1, 35530, Note_off_c, 0, 63, 102
1, 35534, Note_on_c, 0, 62, 99
1, 35657, Note_off_c, 0, 62, 99
1, 35722, Note_on_c, 0, 72, 116
1, 35851, Note_off_c, 0, 72, 116
1, 35857, Note_on_c, 0, 70, 114
1, 35893, Note_off_c, 0, 70, 114
1, 35900, Note_on_c, 0, 71, 111
1, 35934, Note_off_c, 0, 71, 111
1, 35940, Note_on_c, 0, 70, 111
1, 36044, Note_off_c, 0, 70, 111
1, 36054, Note_on_c, 0, 65, 112
1, 36118, Note_off_c, 0, 65, 112
1, 36122, Note_on_c, 0, 62, 105
1, 36188, Note_off_c, 0, 62, 105
1, 36193, Note_on_c, 0, 61, 106
1, 36257, Note_off_c, 0, 61, 106
1, 36261, Note_on_c, 0, 60, 103
1, 36301, Note_off_c, 0, 60, 103
1, 36303, Note_on_c, 0, 59, 103
1, 36373, Note_off_c, 0, 59, 103
1, 36377, Note_on_c, 0, 67, 115
1, 36414, Note_off_c, 0, 67, 115
1, 36418, Note_on_c, 0, 68, 120
1, 36510, Note_off_c, 0, 68, 120
1, 36510, Note_on_c, 0, 65, 111
1, 36576, Note_off_c, 0, 65, 111
1, 36582, Note_on_c, 0, 69, 95
1, 36619, Note_off_c, 0, 69, 95
1, 36663, Note_on_c, 0, 59, 103
1, 36694, Note_off_c, 0, 59, 103
1, 36699, Note_on_c, 0, 58, 96
1, 36756, Note_off_c, 0, 58, 96
1, 36764, Note_on_c, 0, 66, 106
1, 36796, Note_off_c, 0, 66, 106
1, 36803, Note_on_c, 0, 67, 114
1, 36887, Note_off_c, 0, 67, 114
1, 36899, Note_on_c, 0, 64, 98
1, 36941, Note_off_c, 0, 64, 98
1, 36949, Note_on_c, 0, 60, 96
1, 36981, Note_off_c, 0, 60, 96
1, 36989, Note_on_c, 0, 58, 102
1, 37012, Note_off_c, 0, 58, 102
1, 37053, Note_on_c, 0, 56, 98
1, 37172, Note_off_c, 0, 56, 98
1, 37245, Note_on_c, 0, 65, 106
1, 37429, Note_off_c, 0, 65, 106
1, 37439, Note_on_c, 0, 67, 103
1, 37632, Note_off_c, 0, 67, 103
1, 37644, Note_on_c, 0, 68, 117
1, 37776, Note_off_c, 0, 68, 117
1, 37847, Note_on_c, 0, 60, 93
1, 37944, Note_off_c, 0, 60, 93
1, 37988, Note_on_c, 0, 60, 95
1, 38052, Note_off_c, 0, 60, 95
1, 38766, Note_on_c, 0, 65, 119
1, 38863, Note_off_c, 0, 65, 119
1, 39004, Note_on_c, 0, 68, 116
1, 39154, Note_off_c, 0, 68, 116
1, 39158, Note_on_c, 0, 70, 94
1, 39200, Note_off_c, 0, 70, 94
1, 39209, Note_on_c, 0, 71, 105
1, 39244, Note_off_c, 0, 71, 105
1, 39253, Note_on_c, 0, 72, 114
1, 39327, Note_off_c, 0, 72, 114
1, 39388, Note_on_c, 0, 65, 93
1, 39517, Note_off_c, 0, 65, 93
1, 39531, Note_on_c, 0, 68, 116
1, 39594, Note_off_c, 0, 68, 116
1, 40285, Note_on_c, 0, 72, 109
1, 40357, Note_off_c, 0, 72, 109
1, 40369, Note_on_c, 0, 74, 108
1, 40586, Note_off_c, 0, 74, 108
1, 40609, Note_on_c, 0, 72, 105
1, 40662, Note_off_c, 0, 72, 105
1, 40670, Note_on_c, 0, 68, 111
1, 40729, Note_off_c, 0, 68, 111
1, 40741, Note_on_c, 0, 60, 85
1, 41126, Note_off_c, 0, 60, 85
1, 41134, Note_on_c, 0, 64, 103
1, 41264, Note_off_c, 0, 64, 103
1, 41324, Note_on_c, 0, 67, 108
1, 41467, Note_off_c, 0, 67, 108
1, 41472, Note_on_c, 0, 68, 111
1, 41515, Note_off_c, 0, 68, 111
1, 41526, Note_on_c, 0, 70, 112
1, 41635, Note_off_c, 0, 70, 112
1, 41651, Note_on_c, 0, 67, 106
1, 41717, Note_off_c, 0, 67, 106
1, 41736, Note_on_c, 0, 68, 117
1, 41851, Note_off_c, 0, 68, 117
1, 41859, Note_on_c, 0, 72, 87
1, 41898, Note_off_c, 0, 72, 87
1, 41903, Note_on_c, 0, 76, 110
1, 42048, Note_off_c, 0, 76, 110
1, 42059, Note_on_c, 0, 79, 98
1, 42312, Note_off_c, 0, 79, 98
1, 42345, Note_on_c, 0, 77, 104
1, 42441, Note_off_c, 0, 77, 104
1, 42444, Note_on_c, 0, 72, 81
1, 42497, Note_off_c, 0, 72, 81
1, 42508, Note_on_c, 0, 75, 107
1, 42621, Note_off_c, 0, 75, 107
1, 42632, Note_on_c, 0, 73, 102
1, 42684, Note_off_c, 0, 73, 102
1, 42702, Note_on_c, 0, 68, 106
1, 42853, Note_off_c, 0, 68, 106
1, 42890, Note_on_c, 0, 72, 104
1, 43029, Note_off_c, 0, 72, 104
1, 43043, Note_on_c, 0, 72, 101
1, 43095, Note_off_c, 0, 72, 101
1, 43598, Note_on_c, 0, 71, 106
1, 43695, Note_off_c, 0, 71, 106
1, 43719, Note_on_c, 0, 74, 108
1, 43784, Note_off_c, 0, 74, 108
1, 43792, Note_on_c, 0, 77, 112
1, 44244, Note_off_c, 0, 77, 112
1, 44247, Note_on_c, 0, 72, 107
1, 44364, Note_off_c, 0, 72, 107
1, 44387, Note_on_c, 0, 70, 114
1, 44440, Note_off_c, 0, 70, 114
1, 44462, Note_on_c, 0, 68, 114
1, 44578, Note_off_c, 0, 68, 114
1, 44588, Note_on_c, 0, 70, 85
1, 44628, Note_off_c, 0, 70, 85
1, 44639, Note_on_c, 0, 72, 106
1, 44756, Note_off_c, 0, 72, 106
1, 44758, Note_on_c, 0, 68, 120
1, 44846, Note_off_c, 0, 68, 120
1, 44858, Note_on_c, 0, 67, 109
1, 44901, Note_off_c, 0, 67, 109
1, 44904, Note_on_c, 0, 68, 109
1, 44943, Note_off_c, 0, 68, 109
1, 44947, Note_on_c, 0, 67, 114
1, 44998, Note_off_c, 0, 67, 114
1, 45001, Note_on_c, 0, 65, 91
1, 45043, Note_off_c, 0, 65, 91
1, 45056, Note_on_c, 0, 64, 90
1, 45141, Note_off_c, 0, 64, 90
1, 45157, Note_on_c, 0, 67, 115
1, 45226, Note_off_c, 0, 67, 115
1, 45233, Note_on_c, 0, 65, 99
1, 45338, Note_off_c, 0, 65, 99
1, 45366, Note_on_c, 0, 60, 103
1, 45409, Note_off_c, 0, 60, 103
1, 45410, Note_on_c, 0, 56, 103
1, 45499, Note_off_c, 0, 56, 103
1, 45534, Note_on_c, 0, 58, 94
1, 45599, Note_off_c, 0, 58, 94
1, 45611, Note_on_c, 0, 60, 97
1, 45727, Note_off_c, 0, 60, 97
1, 45754, Note_on_c, 0, 60, 105
1, 45802, Note_off_c, 0, 60, 105
1, 46553, Note_on_c, 0, 61, 109
1, 46601, Note_off_c, 0, 61, 109
1, 46609, Note_on_c, 0, 62, 97
1, 46689, Note_off_c, 0, 62, 97
1, 46775, Note_on_c, 0, 65, 113
1, 46890, Note_off_c, 0, 65, 113
1, 46899, Note_on_c, 0, 67, 109
1, 46960, Note_off_c, 0, 67, 109
1, 46965, Note_on_c, 0, 69, 115
1, 47089, Note_off_c, 0, 69, 115
1, 47145, Note_on_c, 0, 65, 107
1, 47263, Note_off_c, 0, 65, 107
1, 47274, Note_on_c, 0, 69, 115
1, 47344, Note_off_c, 0, 69, 115
1, 47351, Note_on_c, 0, 67, 103
1, 47395, Note_off_c, 0, 67, 103
1, 47402, Note_on_c, 0, 69, 99
1, 47435, Note_off_c, 0, 69, 99
1, 47436, Note_on_c, 0, 67, 105
1, 47475, Note_off_c, 0, 67, 105
1, 47479, Note_on_c, 0, 65, 108
1, 47525, Note_off_c, 0, 65, 108
1, 47531, Note_on_c, 0, 63, 110
1, 47630, Note_off_c, 0, 63, 110
1, 47655, Note_on_c, 0, 60, 99
1, 47720, Note_off_c, 0, 60, 99
1, 47729, Note_on_c, 0, 57, 96
1, 47805, Note_off_c, 0, 57, 96
1, 47818, Note_on_c, 0, 53, 85
1, 47868, Note_off_c, 0, 53, 85
1, 47878, Note_on_c, 0, 58, 96
1, 48114, Note_off_c, 0, 58, 96
1, 48118, Note_on_c, 0, 60, 96
1, 48164, Note_off_c, 0, 60, 96
1, 48173, Note_on_c, 0, 61, 94
1, 48208, Note_off_c, 0, 61, 94
1, 48216, Note_on_c, 0, 65, 103
1, 48245, Note_off_c, 0, 65, 103
1, 48254, Note_on_c, 0, 67, 116
1, 48313, Note_off_c, 0, 67, 116
1, 48319, Note_on_c, 0, 68, 116
1, 48454, Note_off_c, 0, 68, 116
1, 48460, Note_on_c, 0, 65, 111
1, 48547, Note_off_c, 0, 65, 111
1, 48623, Note_on_c, 0, 68, 111
1, 48712, Note_off_c, 0, 68, 111
1, 48717, Note_on_c, 0, 69, 107
1, 48814, Note_off_c, 0, 69, 107
1, 48821, Note_on_c, 0, 65, 98
1, 48888, Note_off_c, 0, 65, 98
1, 48910, Note_on_c, 0, 62, 86
1, 49003, Note_off_c, 0, 62, 86
1, 49038, Note_on_c, 0, 57, 92
1, 49081, Note_off_c, 0, 57, 92
1, 49092, Note_on_c, 0, 60, 88
1, 49209, Note_off_c, 0, 60, 88
1, 49221, Note_on_c, 0, 62, 101
1, 49265, Note_off_c, 0, 62, 101
1, 49274, Note_on_c, 0, 64, 98
1, 49376, Note_off_c, 0, 64, 98
1, 49410, Note_on_c, 0, 67, 116
1, 49480, Note_off_c, 0, 67, 116
1, 49486, Note_on_c, 0, 65, 110
1, 49533, Note_off_c, 0, 65, 110
1, 49541, Note_on_c, 0, 60, 96
1, 49583, Note_off_c, 0, 60, 96
1, 49583, Note_on_c, 0, 58, 112
1, 49627, Note_off_c, 0, 58, 112
1, 49633, Note_on_c, 0, 56, 103
1, 49676, Note_off_c, 0, 56, 103
1, 49695, Note_on_c, 0, 60, 89
1, 49910, Note_off_c, 0, 60, 89
1, 49979, Note_on_c, 0, 61, 109
1, 50022, Note_off_c, 0, 61, 109
1, 50028, Note_on_c, 0, 60, 98
1, 50069, Note_off_c, 0, 60, 98
1, 50073, Note_on_c, 0, 58, 96
1, 50100, Note_off_c, 0, 58, 96
1, 50104, Note_on_c, 0, 57, 95
1, 50141, Note_off_c, 0, 57, 95
1, 50143, Note_on_c, 0, 56, 96
1, 50177, Note_off_c, 0, 56, 96
1, 50184, Note_on_c, 0, 55, 107
1, 50206, Note_off_c, 0, 55, 107
1, 50211, Note_on_c, 0, 53, 104
1, 50256, Note_off_c, 0, 53, 104
1, 50278, Note_on_c, 0, 56, 99
1, 50418, Note_off_c, 0, 56, 99
1, 50418, End_track
0, 0, End_of_file
