0, 0, Header, 1, 1, 192
1, 0, Start_track
1, 0, Title_t, "Melody"
1, 0, Tempo, 465116
1, 0, Key_signature, -2, "major"
1, 0, Time_signature, 4, 2, 24, 8
1, 3045, Note_on_c, 0, 67, 113
1, 3153, Note_off_c, 0, 67, 113
1, 3227, Note_on_c, 0, 72, 115
1, 3416, Note_off_c, 0, 72, 115
1, 3422, Note_on_c, 0, 69, 113
1, 3548, Note_off_c, 0, 69, 113
1, 3548, Note_on_c, 0, 65, 110
1, 3612, Note_off_c, 0, 65, 110
1, 3617, Note_on_c, 0, 62, 96
1, 3803, Note_off_c, 0, 62, 96
1, 3803, Note_on_c, 0, 61, 110
1, 3977, Note_off_c, 0, 61, 110
1, 3977, Note_on_c, 0, 60, 106
1, 4100, Note_off_c, 0, 60, 106
1, 4108, Note_on_c, 0, 62, 102
1, 4153, Note_off_c, 0, 62, 102
1, 4153, Note_on_c, 0, 60, 105
1, 4186, Note_off_c, 0, 60, 105
1, 4190, Note_on_c, 0, 57, 101
1, 4310, Note_off_c, 0, 57, 101
1, 4310, Note_on_c, 0, 58, 104
1, 4383, Note_off_c, 0, 58, 104
1, 4386, Note_on_c, 0, 59, 109
1, 4520, Note_off_c, 0, 59, 109
1, 4520, Note_on_c, 0, 71, 106
1, 4713, Note_off_c, 0, 71, 106
1, 4713, Note_on_c, 0, 69, 124
1, 4778, Note_off_c, 0, 69, 124
1, 4778, Note_on_c, 0, 67, 111
1, 4909, Note_off_c, 0, 67, 111
1, 4909, Note_on_c, 0, 63, 111
1, 4971, Note_off_c, 0, 63, 111
1, 4973, Note_on_c, 0, 62, 94
1, 5041, Note_on_c, 0, 60, 96
1, 5041, Note_off_c, 0, 62, 94
1, 5098, Note_off_c, 0, 60, 96
1, 5098, Note_on_c, 0, 62, 82
1, 5335, Note_off_c, 0, 62, 82
1, 5624, Note_on_c, 0, 59, 102
1, 5669, Note_off_c, 0, 59, 102
1, 5669, Note_on_c, 0, 60, 102
1, 5709, Note_off_c, 0, 60, 102
1, 5709, Note_on_c, 0, 62, 109
1, 5756, Note_off_c, 0, 62, 109
1, 5756, Note_on_c, 0, 59, 103
1, 5885, Note_off_c, 0, 59, 103
1, 5915, Note_on_c, 0, 60, 96
1, 6061, Note_off_c, 0, 60, 96
1, 6106, Note_on_c, 0, 67, 114
1, 6157, Note_off_c, 0, 67, 114
1, 6157, Note_on_c, 0, 65, 103
1, 6196, Note_on_c, 0, 64, 100
1, 6196, Note_off_c, 0, 65, 103
1, 6241, Note_off_c, 0, 64, 100
1, 6243, Note_on_c, 0, 62, 96
1, 6289, Note_off_c, 0, 62, 96
1, 6301, Note_on_c, 0, 63, 98
1, 6340, Note_off_c, 0, 63, 98
1, 6346, Note_on_c, 0, 65, 95
1, 6387, Note_off_c, 0, 65, 95
1, 6387, Note_on_c, 0, 67, 96
1, 6431, Note_off_c, 0, 67, 96
1, 6431, Note_on_c, 0, 70, 97
1, 6479, Note_off_c, 0, 70, 97
1, 6479, Note_on_c, 0, 74, 113
1, 6666, Note_off_c, 0, 74, 113
1, 6666, Note_on_c, 0, 72, 114
1, 6756, Note_off_c, 0, 72, 114
1, 6789, Note_on_c, 0, 70, 117
1, 6834, Note_off_c, 0, 70, 117
1, 6862, Note_on_c, 0, 67, 109
1, 6927, Note_off_c, 0, 67, 109
1, 6986, Note_on_c, 0, 63, 106
1, 7060, Note_off_c, 0, 63, 106
1, 7060, Note_on_c, 0, 60, 93
1, 7147, Note_off_c, 0, 60, 93
1, 7177, Note_on_c, 0, 55, 103
1, 7229, Note_off_c, 0, 55, 103
1, 7229, Note_on_c, 0, 58, 105
1, 7339, Note_off_c, 0, 58, 105
1, 7357, Note_on_c, 0, 63, 100
1, 7429, Note_off_c, 0, 63, 100
1, 7436, Note_on_c, 0, 57, 105
1, 7617, Note_off_c, 0, 57, 105
1, 7617, Note_on_c, 0, 66, 109
1, 7690, Note_off_c, 0, 66, 109
1, 7690, Note_on_c, 0, 65, 97
1, 7748, Note_off_c, 0, 65, 97
1, 7748, Note_on_c, 0, 63, 94
1, 7814, Note_off_c, 0, 63, 94
1, 7814, Note_on_c, 0, 62, 92
1, 7945, Note_off_c, 0, 62, 92
1, 7949, Note_on_c, 0, 53, 96
1, 8020, Note_off_c, 0, 53, 96
1, 8020, Note_on_c, 0, 54, 98
1, 8123, Note_off_c, 0, 54, 98
1, 8126, Note_on_c, 0, 55, 92
1, 8369, Note_off_c, 0, 55, 92
1, 8589, Note_on_c, 0, 68, 120
1, 8703, Note_off_c, 0, 68, 120
1, 8703, Note_on_c, 0, 66, 112
1, 8787, Note_off_c, 0, 66, 112
1, 8787, Note_on_c, 0, 61, 108
1, 8846, Note_off_c, 0, 61, 108
1, 8851, Note_on_c, 0, 58, 104
1, 8913, Note_off_c, 0, 58, 104
1, 8913, Note_on_c, 0, 56, 106
1, 8989, Note_off_c, 0, 56, 106
1, 8989, Note_on_c, 0, 54, 102
1, 9174, Note_off_c, 0, 54, 102
1, 9174, Note_on_c, 0, 55, 110
1, 9377, Note_off_c, 0, 55, 110
1, 9377, Note_on_c, 0, 67, 112
1, 9478, Note_off_c, 0, 67, 112
1, 9491, Note_on_c, 0, 67, 115
1, 9558, Note_off_c, 0, 67, 115
1, 9558, Note_on_c, 0, 64, 99
1, 9624, Note_off_c, 0, 64, 99
1, 9638, Note_on_c, 0, 60, 96
1, 9690, Note_off_c, 0, 60, 96
1, 9690, Note_on_c, 0, 57, 101
1, 9749, Note_off_c, 0, 57, 101
1, 9749, Note_on_c, 0, 62, 88
1, 9935, Note_off_c, 0, 62, 88
1, 9935, Note_on_c, 0, 67, 114
1, 10064, Note_off_c, 0, 67, 114
1, 10068, Note_on_c, 0, 64, 103
1, 10136, Note_off_c, 0, 64, 103
1, 10136, Note_on_c, 0, 60, 102
1, 10193, Note_off_c, 0, 60, 102
1, 10193, Note_on_c, 0, 57, 102
1, 10246, Note_on_c, 0, 62, 104
1, 10246, Note_off_c, 0, 57, 102
1, 10318, Note_off_c, 0, 62, 104
1, 10323, Note_on_c, 0, 59, 99
1, 10501, Note_off_c, 0, 59, 99
1, 10501, Note_on_c, 0, 55, 96
1, 10676, Note_off_c, 0, 55, 96
1, 10708, Note_on_c, 0, 67, 116
1, 10782, Note_off_c, 0, 67, 116
1, 10905, Note_on_c, 0, 76, 112
1, 10973, Note_off_c, 0, 76, 112
1, 11017, Note_on_c, 0, 76, 102
1, 11093, Note_off_c, 0, 76, 102
1, 11093, Note_on_c, 0, 70, 94
1, 11276, Note_off_c, 0, 70, 94
1, 11282, Note_on_c, 0, 67, 94
1, 11472, Note_off_c, 0, 67, 94
1, 11472, Note_on_c, 0, 65, 100
1, 11603, Note_off_c, 0, 65, 100
1, 11610, Note_on_c, 0, 60, 84
1, 11675, Note_off_c, 0, 60, 84
1, 11675, Note_on_c, 0, 64, 92
1, 11795, Note_off_c, 0, 64, 92
1, 11795, Note_on_c, 0, 67, 87
1, 11896, Note_off_c, 0, 67, 87
1, 12254, Note_on_c, 0, 72, 119
1, 12374, Note_off_c, 0, 72, 119
1, 12375, Note_on_c, 0, 67, 98
1, 12450, Note_off_c, 0, 67, 98
1, 12450, Note_on_c, 0, 75, 116
1, 12559, Note_off_c, 0, 75, 116
1, 12565, Note_on_c, 0, 72, 111
1, 12637, Note_off_c, 0, 72, 111
1, 12637, Note_on_c, 0, 70, 113
1, 12676, Note_off_c, 0, 70, 113
1, 12676, Note_on_c, 0, 69, 111
1, 12716, Note_off_c, 0, 69, 111
1, 12716, Note_on_c, 0, 68, 110
1, 12754, Note_off_c, 0, 68, 110
1, 12754, Note_on_c, 0, 67, 96
1, 12827, Note_off_c, 0, 67, 96
1, 12896, Note_on_c, 0, 63, 112
1, 12947, Note_off_c, 0, 63, 112
1, 12947, Note_on_c, 0, 60, 106
1, 12999, Note_off_c, 0, 60, 106
1, 13010, Note_on_c, 0, 55, 107
1, 13120, Note_off_c, 0, 55, 107
1, 13120, Note_on_c, 0, 56, 107
1, 13205, Note_off_c, 0, 56, 107
1, 13208, Note_on_c, 0, 57, 108
1, 13268, Note_off_c, 0, 57, 108
1, 13268, Note_on_c, 0, 65, 93
1, 13332, Note_off_c, 0, 65, 93
1, 13332, Note_on_c, 0, 63, 92
1, 13394, Note_off_c, 0, 63, 92
1, 13401, Note_on_c, 0, 68, 109
1, 13459, Note_off_c, 0, 68, 109
1, 13460, Note_on_c, 0, 66, 108
1, 13513, Note_off_c, 0, 66, 108
1, 13513, Note_on_c, 0, 71, 112
1, 13589, Note_off_c, 0, 71, 112
1, 13599, Note_on_c, 0, 69, 118
1, 13665, Note_off_c, 0, 69, 118
1, 13665, Note_on_c, 0, 74, 110
1, 13731, Note_off_c, 0, 74, 110
1, 13731, Note_on_c, 0, 72, 102
1, 13780, Note_off_c, 0, 72, 102
1, 13780, Note_on_c, 0, 77, 114
1, 13868, Note_off_c, 0, 77, 114
1, 13884, Note_on_c, 0, 75, 114
1, 13925, Note_off_c, 0, 75, 114
1, 13957, Note_on_c, 0, 74, 93
1, 14084, Note_off_c, 0, 74, 93
1, 14092, Note_on_c, 0, 65, 88
1, 14159, Note_off_c, 0, 65, 88
1, 14159, Note_on_c, 0, 67, 90
1, 14212, Note_off_c, 0, 67, 90
1, 14218, Note_on_c, 0, 65, 87
1, 14283, Note_off_c, 0, 65, 87
1, 14284, Note_on_c, 0, 68, 84
1, 14538, Note_off_c, 0, 68, 84
1, 14856, Note_on_c, 0, 67, 119
1, 14914, Note_off_c, 0, 67, 119
1, 14914, Note_on_c, 0, 66, 120
1, 14946, Note_off_c, 0, 66, 120
1, 14946, Note_on_c, 0, 65, 112
1, 14994, Note_off_c, 0, 65, 112
1, 14996, Note_on_c, 0, 64, 110
1, 15032, Note_off_c, 0, 64, 110
1, 15032, Note_on_c, 0, 63, 101
1, 15080, Note_on_c, 0, 58, 103
1, 15080, Note_off_c, 0, 63, 101
1, 15111, Note_off_c, 0, 58, 103
1, 15111, Note_on_c, 0, 62, 106
1, 15163, Note_off_c, 0, 62, 106
1, 15163, Note_on_c, 0, 60, 101
1, 15196, Note_off_c, 0, 60, 101
1, 15201, Note_on_c, 0, 59, 101
1, 15232, Note_on_c, 0, 62, 100
1, 15232, Note_off_c, 0, 59, 101
1, 15263, Note_off_c, 0, 62, 100
1, 15263, Note_on_c, 0, 65, 114
1, 15291, Note_on_c, 0, 70, 104
1, 15291, Note_off_c, 0, 65, 114
1, 15343, Note_off_c, 0, 70, 104
1, 15347, Note_on_c, 0, 68, 114
1, 15387, Note_off_c, 0, 68, 114
1, 15387, Note_on_c, 0, 67, 103
1, 15437, Note_off_c, 0, 67, 103
1, 15437, Note_on_c, 0, 65, 104
1, 15484, Note_off_c, 0, 65, 104
1, 15493, Note_on_c, 0, 66, 96
1, 15629, Note_off_c, 0, 66, 96
1, 15629, Note_on_c, 0, 63, 98
1, 15689, Note_off_c, 0, 63, 98
1, 16035, Note_on_c, 0, 58, 97
1, 16063, Note_on_c, 0, 62, 106
1, 16063, Note_off_c, 0, 58, 97
1, 16246, Note_off_c, 0, 62, 106
1, 16251, Note_on_c, 0, 61, 101
1, 16344, Note_off_c, 0, 61, 101
1, 16398, Note_on_c, 0, 53, 87
1, 16634, Note_off_c, 0, 53, 87
1, 16793, Note_on_c, 0, 61, 109
1, 16840, Note_off_c, 0, 61, 109
1, 16840, Note_on_c, 0, 62, 98
1, 16898, Note_off_c, 0, 62, 98
1, 16899, Note_on_c, 0, 65, 101
1, 16934, Note_off_c, 0, 65, 101
1, 16934, Note_on_c, 0, 69, 105
1, 16981, Note_off_c, 0, 69, 105
1, 16981, Note_on_c, 0, 72, 107
1, 17020, Note_off_c, 0, 72, 107
1, 17026, Note_on_c, 0, 76, 107
1, 17148, Note_off_c, 0, 76, 107
1, 17162, Note_on_c, 0, 74, 109
1, 17216, Note_off_c, 0, 74, 109
1, 17489, Note_on_c, 0, 61, 111
1, 17532, Note_off_c, 0, 61, 111
1, 17548, Note_on_c, 0, 62, 99
1, 17600, Note_off_c, 0, 62, 99
1, 17600, Note_on_c, 0, 65, 105
1, 17655, Note_off_c, 0, 65, 105
1, 17655, Note_on_c, 0, 69, 104
1, 17718, Note_off_c, 0, 69, 104
1, 17721, Note_on_c, 0, 72, 117
1, 17787, Note_off_c, 0, 72, 117
1, 17804, Note_on_c, 0, 71, 106
1, 17907, Note_off_c, 0, 71, 106
1, 17928, Note_on_c, 0, 67, 100
1, 18010, Note_off_c, 0, 67, 100
1, 18301, Note_on_c, 0, 70, 116
1, 18351, Note_off_c, 0, 70, 116
1, 18352, Note_on_c, 0, 69, 115
1, 18390, Note_off_c, 0, 69, 115
1, 18390, Note_on_c, 0, 68, 117
1, 18442, Note_off_c, 0, 68, 117
1, 18442, Note_on_c, 0, 67, 113
1, 18489, Note_off_c, 0, 67, 113
1, 18489, Note_on_c, 0, 66, 103
1, 18697, Note_off_c, 0, 66, 103
1, 18697, Note_on_c, 0, 68, 116
1, 18747, Note_off_c, 0, 68, 116
1, 18755, Note_on_c, 0, 70, 113
1, 18813, Note_off_c, 0, 70, 113
1, 18813, Note_on_c, 0, 66, 114
1, 18856, Note_off_c, 0, 66, 114
1, 18856, Note_on_c, 0, 63, 101
1, 18903, Note_off_c, 0, 63, 101
1, 18903, Note_on_c, 0, 58, 105
1, 18938, Note_off_c, 0, 58, 105
1, 18938, Note_on_c, 0, 61, 100
1, 19039, Note_off_c, 0, 61, 100
1, 19057, Note_on_c, 0, 59, 92
1, 19126, Note_off_c, 0, 59, 92
1, 19126, Note_on_c, 0, 60, 92
1, 19272, Note_off_c, 0, 60, 92
1, 19272, Note_on_c, 0, 58, 100
1, 19311, Note_off_c, 0, 58, 100
1, 19312, Note_on_c, 0, 57, 101
1, 19405, Note_off_c, 0, 57, 101
1, 19424, Note_on_c, 0, 65, 103
1, 19476, Note_off_c, 0, 65, 103
1, 19476, Note_on_c, 0, 63, 95
1, 19519, Note_off_c, 0, 63, 95
1, 19519, Note_on_c, 0, 68, 113
1, 19566, Note_off_c, 0, 68, 113
1, 19566, Note_on_c, 0, 66, 105
1, 19613, Note_off_c, 0, 66, 105
1, 19615, Note_on_c, 0, 71, 108
1, 19658, Note_off_c, 0, 71, 108
1, 19658, Note_on_c, 0, 69, 107
1, 19696, Note_off_c, 0, 69, 107
1, 19696, Note_on_c, 0, 74, 107
1, 19755, Note_off_c, 0, 74, 107
1, 19762, Note_on_c, 0, 72, 99
1, 19804, Note_off_c, 0, 72, 99
1, 19809, Note_on_c, 0, 77, 107
1, 19856, Note_off_c, 0, 77, 107
1, 19856, Note_on_c, 0, 76, 101
1, 19901, Note_off_c, 0, 76, 101
1, 19901, Note_on_c, 0, 75, 100
1, 20009, Note_off_c, 0, 75, 100
1, 20011, Note_on_c, 0, 73, 105
1, 20219, Note_off_c, 0, 73, 105
1, 20219, Note_on_c, 0, 74, 107
1, 20261, Note_off_c, 0, 74, 107
1, 20285, Note_on_c, 0, 76, 102
1, 20336, Note_off_c, 0, 76, 102
1, 20337, Note_on_c, 0, 74, 109
1, 20377, Note_off_c, 0, 74, 109
1, 20377, Note_on_c, 0, 73, 104
1, 20422, Note_off_c, 0, 73, 104
1, 20422, Note_on_c, 0, 71, 101
1, 20462, Note_off_c, 0, 71, 101
1, 20462, Note_on_c, 0, 69, 109
1, 20505, Note_off_c, 0, 69, 109
1, 20505, Note_on_c, 0, 68, 109
1, 20548, Note_off_c, 0, 68, 109
1, 20548, Note_on_c, 0, 67, 109
1, 20587, Note_off_c, 0, 67, 109
1, 20593, Note_on_c, 0, 71, 103
1, 20642, Note_off_c, 0, 71, 103
1, 20647, Note_on_c, 0, 66, 112
1, 20694, Note_off_c, 0, 66, 112
1, 20694, Note_on_c, 0, 65, 97
1, 20739, Note_off_c, 0, 65, 97
1, 20748, Note_on_c, 0, 64, 99
1, 20781, Note_off_c, 0, 64, 99
1, 20792, Note_on_c, 0, 58, 99
1, 20835, Note_off_c, 0, 58, 99
1, 20835, Note_on_c, 0, 63, 99
1, 20878, Note_off_c, 0, 63, 99
1, 20887, Note_on_c, 0, 65, 100
1, 20932, Note_off_c, 0, 65, 100
1, 20932, Note_on_c, 0, 66, 89
1, 20977, Note_off_c, 0, 66, 89
1, 20977, Note_on_c, 0, 68, 108
1, 21024, Note_off_c, 0, 68, 108
1, 21024, Note_on_c, 0, 70, 110
1, 21072, Note_off_c, 0, 70, 110
1, 21078, Note_on_c, 0, 66, 106
1, 21115, Note_off_c, 0, 66, 106
1, 21125, Note_on_c, 0, 63, 99
1, 21175, Note_off_c, 0, 63, 99
1, 21175, Note_on_c, 0, 58, 100
1, 21208, Note_off_c, 0, 58, 100
1, 21208, Note_on_c, 0, 62, 100
1, 21267, Note_off_c, 0, 62, 100
1, 21267, Note_on_c, 0, 59, 94
1, 21306, Note_off_c, 0, 59, 94
1, 21309, Note_on_c, 0, 61, 100
1, 21361, Note_off_c, 0, 61, 100
1, 21363, Note_on_c, 0, 59, 99
1, 21391, Note_off_c, 0, 59, 99
1, 21391, Note_on_c, 0, 60, 96
1, 21463, Note_off_c, 0, 60, 96
1, 21519, Note_on_c, 0, 69, 107
1, 21593, Note_off_c, 0, 69, 107
1, 21595, Note_on_c, 0, 62, 95
1, 21669, Note_off_c, 0, 62, 95
1, 21721, Note_on_c, 0, 62, 99
1, 21744, Note_off_c, 0, 62, 99
1, 22093, Note_on_c, 0, 60, 99
1, 22167, Note_off_c, 0, 60, 99
1, 22169, Note_on_c, 0, 64, 100
1, 22224, Note_off_c, 0, 64, 100
1, 22224, Note_on_c, 0, 67, 101
1, 22288, Note_off_c, 0, 67, 101
1, 22292, Note_on_c, 0, 69, 103
1, 22354, Note_off_c, 0, 69, 103
1, 22354, Note_on_c, 0, 72, 112
1, 22476, Note_off_c, 0, 72, 112
1, 22476, Note_on_c, 0, 69, 103
1, 22516, Note_off_c, 0, 69, 103
1, 22516, Note_on_c, 0, 65, 104
1, 22554, Note_off_c, 0, 65, 104
1, 22554, Note_on_c, 0, 63, 97
1, 22641, Note_off_c, 0, 63, 97
1, 22675, Note_on_c, 0, 60, 93
1, 22907, Note_off_c, 0, 60, 93
1, 22926, Note_on_c, 0, 57, 105
1, 23070, Note_off_c, 0, 57, 105
1, 23070, Note_on_c, 0, 55, 99
1, 23114, Note_off_c, 0, 55, 99
1, 23114, Note_on_c, 0, 60, 99
1, 23211, Note_off_c, 0, 60, 99
1, 23245, Note_on_c, 0, 67, 110
1, 23501, Note_off_c, 0, 67, 110
1, 23501, Note_on_c, 0, 66, 108
1, 23529, Note_off_c, 0, 66, 108
1, 23529, Note_on_c, 0, 65, 99
1, 23560, Note_off_c, 0, 65, 99
1, 23560, Note_on_c, 0, 63, 98
1, 23593, Note_off_c, 0, 63, 98
1, 23593, Note_on_c, 0, 60, 97
1, 23630, Note_off_c, 0, 60, 97
1, 23640, Note_on_c, 0, 65, 98
1, 23766, Note_off_c, 0, 65, 98
1, 23835, Note_on_c, 0, 60, 85
1, 23888, Note_off_c, 0, 60, 85
1, 23889, Note_on_c, 0, 64, 89
1, 23984, Note_off_c, 0, 64, 89
1, 24015, Note_on_c, 0, 67, 86
1, 24202, Note_off_c, 0, 67, 86
1, 24455, Note_on_c, 0, 60, 109
1, 24510, Note_off_c, 0, 60, 109
1, 24510, Note_on_c, 0, 59, 102
1, 24555, Note_off_c, 0, 59, 102
1, 24555, Note_on_c, 0, 60, 97
1, 24604, Note_off_c, 0, 60, 97
1, 24604, Note_on_c, 0, 62, 99
1, 24652, Note_off_c, 0, 62, 99
1, 24659, Note_on_c, 0, 63, 104
1, 24700, Note_off_c, 0, 63, 104
1, 24703, Note_on_c, 0, 65, 95
1, 24751, Note_off_c, 0, 65, 95
1, 24751, Note_on_c, 0, 62, 94
1, 24794, Note_off_c, 0, 62, 94
1, 24794, Note_on_c, 0, 63, 97
1, 24831, Note_off_c, 0, 63, 97
1, 24831, Note_on_c, 0, 60, 97
1, 24880, Note_off_c, 0, 60, 97
1, 24891, Note_on_c, 0, 62, 99
1, 24941, Note_off_c, 0, 62, 99
1, 24941, Note_on_c, 0, 63, 104
1, 24971, Note_on_c, 0, 65, 105
1, 24971, Note_off_c, 0, 63, 104
1, 25014, Note_off_c, 0, 65, 105
1, 25014, Note_on_c, 0, 66, 110
1, 25054, Note_off_c, 0, 66, 110
1, 25054, Note_on_c, 0, 68, 109
1, 25105, Note_off_c, 0, 68, 109
1, 25111, Note_on_c, 0, 65, 9
1, 25157, Note_off_c, 0, 65, 9
1, 25162, Note_on_c, 0, 66, 47
1, 25212, Note_off_c, 0, 66, 47
1, 25212, Note_on_c, 0, 63, 96
1, 25253, Note_off_c, 0, 63, 96
1, 25254, Note_on_c, 0, 65, 93
1, 25287, Note_off_c, 0, 65, 93
1, 25287, Note_on_c, 0, 66, 95
1, 25330, Note_off_c, 0, 66, 95
1, 25330, Note_on_c, 0, 68, 113
1, 25379, Note_off_c, 0, 68, 113
1, 25380, Note_on_c, 0, 70, 109
1, 25432, Note_on_c, 0, 66, 106
1, 25432, Note_off_c, 0, 70, 109
1, 25479, Note_off_c, 0, 66, 106
1, 25479, Note_on_c, 0, 63, 97
1, 25522, Note_off_c, 0, 63, 97
1, 25531, Note_on_c, 0, 58, 105
1, 25553, Note_off_c, 0, 58, 105
1, 25573, Note_on_c, 0, 61, 106
1, 25618, Note_off_c, 0, 61, 106
1, 25622, Note_on_c, 0, 59, 101
1, 25665, Note_off_c, 0, 59, 101
1, 25665, Note_on_c, 0, 60, 97
1, 25715, Note_off_c, 0, 60, 97
1, 25730, Note_on_c, 0, 58, 101
1, 25772, Note_off_c, 0, 58, 101
1, 25775, Note_on_c, 0, 57, 97
1, 25814, Note_off_c, 0, 57, 97
1, 25814, Note_on_c, 0, 60, 98
1, 25854, Note_on_c, 0, 63, 98
1, 25854, Note_off_c, 0, 60, 98
1, 25901, Note_off_c, 0, 63, 98
1, 25901, Note_on_c, 0, 65, 109
1, 25944, Note_off_c, 0, 65, 109
1, 25944, Note_on_c, 0, 68, 123
1, 25987, Note_off_c, 0, 68, 123
1, 25987, Note_on_c, 0, 66, 113
1, 26030, Note_off_c, 0, 66, 113
1, 26030, Note_on_c, 0, 65, 103
1, 26080, Note_on_c, 0, 63, 108
1, 26080, Note_off_c, 0, 65, 103
1, 26125, Note_off_c, 0, 63, 108
1, 26127, Note_on_c, 0, 62, 94
1, 26273, Note_off_c, 0, 62, 94
1, 26273, Note_on_c, 0, 53, 93
1, 26323, Note_off_c, 0, 53, 93
1, 26323, Note_on_c, 0, 54, 103
1, 26420, Note_off_c, 0, 54, 103
1, 26456, Note_on_c, 0, 55, 96
1, 26627, Note_off_c, 0, 55, 96
1, 27045, Note_on_c, 0, 67, 122
1, 27307, Note_off_c, 0, 67, 122
1, 27307, Note_on_c, 0, 66, 117
1, 27547, Note_off_c, 0, 66, 117
1, 27547, Note_on_c, 0, 78, 87
1, 27634, Note_off_c, 0, 78, 87
1, 27681, Note_on_c, 0, 79, 96
1, 27863, Note_on_c, 0, 76, 107
1, 27863, Note_off_c, 0, 79, 96
1, 28035, Note_off_c, 0, 76, 107
1, 28035, Note_on_c, 0, 72, 107
1, 28224, Note_off_c, 0, 72, 107
1, 28233, Note_on_c, 0, 69, 122
1, 28372, Note_off_c, 0, 69, 122
1, 28383, Note_on_c, 0, 65, 106
1, 28477, Note_off_c, 0, 65, 106
1, 28626, Note_on_c, 0, 77, 110
1, 28745, Note_off_c, 0, 77, 110
1, 28759, Note_on_c, 0, 65, 97
1, 28823, Note_off_c, 0, 65, 97
1, 28823, Note_on_c, 0, 76, 110
1, 28945, Note_off_c, 0, 76, 110
1, 28945, Note_on_c, 0, 65, 94
1, 29006, Note_off_c, 0, 65, 94
1, 29012, Note_on_c, 0, 74, 111
1, 29140, Note_off_c, 0, 74, 111
1, 29146, Note_on_c, 0, 65, 92
1, 29211, Note_off_c, 0, 65, 92
1, 29215, Note_on_c, 0, 72, 112
1, 29346, Note_off_c, 0, 72, 112
1, 29346, Note_on_c, 0, 67, 111
1, 29410, Note_off_c, 0, 67, 111
1, 29412, Note_on_c, 0, 65, 98
1, 29470, Note_off_c, 0, 65, 98
1, 29470, Note_on_c, 0, 60, 94
1, 29530, Note_off_c, 0, 60, 94
1, 29537, Note_on_c, 0, 64, 107
1, 29619, Note_off_c, 0, 64, 107
1, 29631, Note_on_c, 0, 65, 103
1, 29734, Note_on_c, 0, 64, 98
1, 29734, Note_off_c, 0, 65, 103
1, 29808, Note_off_c, 0, 64, 98
1, 30160, Note_on_c, 0, 62, 111
1, 30202, Note_off_c, 0, 62, 111
1, 30216, Note_on_c, 0, 59, 101
1, 30254, Note_on_c, 0, 60, 91
1, 30254, Note_off_c, 0, 59, 101
1, 30304, Note_off_c, 0, 60, 91
1, 30304, Note_on_c, 0, 62, 95
1, 30342, Note_off_c, 0, 62, 95
1, 30342, Note_on_c, 0, 63, 113
1, 30389, Note_on_c, 0, 64, 108
1, 30389, Note_off_c, 0, 63, 113
1, 30432, Note_off_c, 0, 64, 108
1, 30436, Note_on_c, 0, 65, 106
1, 30495, Note_off_c, 0, 65, 106
1, 30495, Note_on_c, 0, 66, 106
1, 30530, Note_off_c, 0, 66, 106
1, 30535, Note_on_c, 0, 67, 103
1, 30592, Note_off_c, 0, 67, 103
1, 30592, Note_on_c, 0, 69, 118
1, 30627, Note_off_c, 0, 69, 118
1, 30627, Note_on_c, 0, 70, 106
1, 30684, Note_on_c, 0, 72, 95
1, 30684, Note_off_c, 0, 70, 106
1, 30712, Note_off_c, 0, 72, 95
1, 30712, Note_on_c, 0, 74, 106
1, 30849, Note_off_c, 0, 74, 106
1, 30854, Note_on_c, 0, 63, 103
1, 30913, Note_off_c, 0, 63, 103
1, 31169, Note_on_c, 0, 62, 115
1, 31218, Note_off_c, 0, 62, 115
1, 31221, Note_on_c, 0, 63, 106
1, 31267, Note_off_c, 0, 63, 106
1, 31280, Note_on_c, 0, 67, 119
1, 31333, Note_off_c, 0, 67, 119
1, 31341, Note_on_c, 0, 70, 102
1, 31386, Note_off_c, 0, 70, 102
1, 31386, Note_on_c, 0, 74, 111
1, 31419, Note_off_c, 0, 74, 111
1, 31419, Note_on_c, 0, 77, 110
1, 31467, Note_off_c, 0, 77, 110
1, 31476, Note_on_c, 0, 73, 108
1, 31624, Note_off_c, 0, 73, 108
1, 31631, Note_on_c, 0, 69, 112
1, 31682, Note_off_c, 0, 69, 112
1, 32011, Note_on_c, 0, 61, 111
1, 32057, Note_off_c, 0, 61, 111
1, 32057, Note_on_c, 0, 62, 104
1, 32108, Note_off_c, 0, 62, 104
1, 32108, Note_on_c, 0, 65, 101
1, 32143, Note_off_c, 0, 65, 101
1, 32143, Note_on_c, 0, 69, 107
1, 32190, Note_on_c, 0, 72, 118
1, 32190, Note_off_c, 0, 69, 107
1, 32232, Note_off_c, 0, 72, 118
1, 32264, Note_on_c, 0, 76, 110
1, 32437, Note_off_c, 0, 76, 110
1, 32437, Note_on_c, 0, 79, 105
1, 32555, Note_off_c, 0, 79, 105
1, 32556, Note_on_c, 0, 76, 100
1, 32955, Note_off_c, 0, 76, 100
1, 32955, Note_on_c, 0, 74, 108
1, 33030, Note_off_c, 0, 74, 108
1, 33032, Note_on_c, 0, 75, 113
1, 33136, Note_off_c, 0, 75, 113
1, 33136, Note_on_c, 0, 78, 108
1, 33210, Note_off_c, 0, 78, 108
1, 33210, Note_on_c, 0, 75, 108
1, 33324, Note_off_c, 0, 75, 108
1, 33324, Note_on_c, 0, 73, 113
1, 33409, Note_off_c, 0, 73, 113
1, 33409, Note_on_c, 0, 71, 104
1, 33535, Note_off_c, 0, 71, 104
1, 33535, Note_on_c, 0, 68, 114
1, 33606, Note_off_c, 0, 68, 114
1, 33606, Note_on_c, 0, 66, 113
1, 33766, Note_off_c, 0, 66, 113
1, 33785, Note_on_c, 0, 67, 109
1, 33869, Note_off_c, 0, 67, 109
1, 33908, Note_on_c, 0, 65, 103
1, 33972, Note_off_c, 0, 65, 103
1, 33972, Note_on_c, 0, 60, 98
1, 34041, Note_off_c, 0, 60, 98
1, 34043, Note_on_c, 0, 57, 100
1, 34111, Note_off_c, 0, 57, 100
1, 34118, Note_on_c, 0, 64, 99
1, 34184, Note_off_c, 0, 64, 99
1, 34184, Note_on_c, 0, 62, 91
1, 34360, Note_off_c, 0, 62, 91
1, 34360, Note_on_c, 0, 64, 96
1, 34495, Note_off_c, 0, 64, 96
1, 34567, Note_on_c, 0, 56, 104
1, 34661, Note_off_c, 0, 56, 104
1, 34689, Note_on_c, 0, 56, 107
1, 34736, Note_off_c, 0, 56, 107
1, 35128, Note_on_c, 0, 55, 109
1, 35256, Note_off_c, 0, 55, 109
1, 35256, Note_on_c, 0, 57, 103
1, 35327, Note_off_c, 0, 57, 103
1, 35327, Note_on_c, 0, 60, 112
1, 35438, Note_off_c, 0, 60, 112
1, 35508, Note_on_c, 0, 69, 121
1, 35595, Note_off_c, 0, 69, 121
1, 35648, Note_on_c, 0, 69, 118
1, 35720, Note_off_c, 0, 69, 118
1, 35722, Note_on_c, 0, 67, 100
1, 35896, Note_off_c, 0, 67, 100
1, 35896, Note_on_c, 0, 69, 124
1, 36007, Note_off_c, 0, 69, 124
1, 36086, Note_on_c, 0, 64, 103
1, 36141, Note_on_c, 0, 67, 111
1, 36141, Note_off_c, 0, 64, 103
1, 36287, Note_off_c, 0, 67, 111
1, 36287, Note_on_c, 0, 65, 105
1, 36333, Note_off_c, 0, 65, 105
1, 36352, Note_on_c, 0, 69, 119
1, 36484, Note_off_c, 0, 69, 119
1, 36484, Note_on_c, 0, 67, 99
1, 36611, Note_off_c, 0, 67, 99
1, 36611, Note_on_c, 0, 72, 116
1, 36661, Note_off_c, 0, 72, 116
1, 36663, Note_on_c, 0, 71, 98
1, 36712, Note_off_c, 0, 71, 98
1, 36749, Note_on_c, 0, 72, 95
1, 36788, Note_off_c, 0, 72, 95
1, 36798, Note_on_c, 0, 74, 112
1, 36861, Note_off_c, 0, 74, 112
1, 36864, Note_on_c, 0, 72, 97
1, 36976, Note_off_c, 0, 72, 97
1, 36990, Note_on_c, 0, 67, 107
1, 37045, Note_off_c, 0, 67, 107
1, 37045, Note_on_c, 0, 66, 107
1, 37071, Note_on_c, 0, 65, 98
1, 37071, Note_off_c, 0, 66, 107
1, 37099, Note_off_c, 0, 65, 98
1, 37099, Note_on_c, 0, 63, 92
1, 37122, Note_off_c, 0, 63, 92
1, 37122, Note_on_c, 0, 60, 92
1, 37153, Note_off_c, 0, 60, 92
1, 37181, Note_on_c, 0, 65, 100
1, 37231, Note_on_c, 0, 63, 92
1, 37231, Note_off_c, 0, 65, 100
1, 37333, Note_off_c, 0, 63, 92
1, 37354, Note_on_c, 0, 60, 96
1, 37428, Note_off_c, 0, 60, 96
1, 37428, Note_on_c, 0, 55, 100
1, 37526, Note_off_c, 0, 55, 100
1, 37561, Note_on_c, 0, 54, 105
1, 37618, Note_off_c, 0, 54, 105
1, 37618, Note_on_c, 0, 53, 98
1, 37736, Note_off_c, 0, 53, 98
1, 38104, Note_on_c, 0, 65, 110
1, 38146, Note_off_c, 0, 65, 110
1, 38146, Note_on_c, 0, 66, 119
1, 38173, Note_off_c, 0, 66, 119
1, 38173, Note_on_c, 0, 67, 121
1, 38206, Note_on_c, 0, 68, 122
1, 38206, Note_off_c, 0, 67, 121
1, 38247, Note_off_c, 0, 68, 122
1, 38255, Note_on_c, 0, 67, 115
1, 38283, Note_off_c, 0, 67, 115
1, 38283, Note_on_c, 0, 66, 113
1, 38315, Note_off_c, 0, 66, 113
1, 38316, Note_on_c, 0, 65, 104
1, 38346, Note_off_c, 0, 65, 104
1, 38346, Note_on_c, 0, 63, 111
1, 38371, Note_off_c, 0, 63, 111
1, 38371, Note_on_c, 0, 62, 96
1, 38416, Note_off_c, 0, 62, 96
1, 38416, Note_on_c, 0, 63, 100
1, 38456, Note_off_c, 0, 63, 100
1, 38461, Note_on_c, 0, 65, 94
1, 38513, Note_on_c, 0, 67, 109
1, 38513, Note_off_c, 0, 65, 94
1, 38544, Note_off_c, 0, 67, 109
1, 38544, Note_on_c, 0, 69, 118
1, 38597, Note_off_c, 0, 69, 118
1, 38603, Note_on_c, 0, 65, 105
1, 38645, Note_off_c, 0, 65, 105
1, 38646, Note_on_c, 0, 62, 94
1, 38686, Note_off_c, 0, 62, 94
1, 38686, Note_on_c, 0, 57, 107
1, 38727, Note_off_c, 0, 57, 107
1, 38731, Note_on_c, 0, 61, 104
1, 38782, Note_off_c, 0, 61, 104
1, 38785, Note_on_c, 0, 57, 89
1, 38828, Note_off_c, 0, 57, 89
1, 38828, Note_on_c, 0, 64, 105
1, 38883, Note_on_c, 0, 63, 104
1, 38883, Note_off_c, 0, 64, 105
1, 38930, Note_off_c, 0, 63, 104
1, 38935, Note_on_c, 0, 62, 99
1, 38968, Note_off_c, 0, 62, 99
1, 38987, Note_on_c, 0, 56, 103
1, 39025, Note_on_c, 0, 57, 99
1, 39025, Note_off_c, 0, 56, 103
1, 39077, Note_off_c, 0, 57, 99
1, 39077, Note_on_c, 0, 60, 102
1, 39106, Note_off_c, 0, 60, 102
1, 39115, Note_on_c, 0, 59, 97
1, 39165, Note_on_c, 0, 62, 98
1, 39165, Note_off_c, 0, 59, 97
1, 39205, Note_off_c, 0, 62, 98
1, 39205, Note_on_c, 0, 65, 104
1, 39252, Note_off_c, 0, 65, 104
1, 39252, Note_on_c, 0, 68, 106
1, 39292, Note_off_c, 0, 68, 106
1, 39299, Note_on_c, 0, 65, 99
1, 39349, Note_off_c, 0, 65, 99
1, 39349, Note_on_c, 0, 66, 99
1, 39392, Note_off_c, 0, 66, 99
1, 39392, Note_on_c, 0, 71, 90
1, 39444, Note_off_c, 0, 71, 90
1, 39461, Note_on_c, 0, 74, 97
1, 39482, Note_off_c, 0, 74, 97
1, 39484, Note_on_c, 0, 77, 113
1, 39663, Note_off_c, 0, 77, 113
1, 39663, Note_on_c, 0, 74, 109
1, 39850, Note_off_c, 0, 74, 109
1, 39881, Note_on_c, 0, 75, 103
1, 40012, Note_off_c, 0, 75, 103
1, 40012, Note_on_c, 0, 66, 99
1, 40086, Note_off_c, 0, 66, 99
1, 40457, Note_on_c, 0, 74, 110
1, 40646, Note_off_c, 0, 74, 110
1, 40646, Note_on_c, 0, 72, 111
1, 40830, Note_off_c, 0, 72, 111
1, 40830, Note_on_c, 0, 70, 109
1, 40963, Note_off_c, 0, 70, 109
1, 40963, Note_on_c, 0, 72, 106
1, 40998, Note_on_c, 0, 70, 108
1, 40998, Note_off_c, 0, 72, 106
1, 41045, Note_off_c, 0, 70, 108
1, 41051, Note_on_c, 0, 69, 120
1, 41167, Note_off_c, 0, 69, 120
1, 41167, Note_on_c, 0, 66, 117
1, 41219, Note_off_c, 0, 66, 117
1, 41228, Note_on_c, 0, 65, 93
1, 41336, Note_off_c, 0, 65, 93
1, 41349, Note_on_c, 0, 63, 105
1, 41411, Note_on_c, 0, 62, 94
1, 41411, Note_off_c, 0, 63, 105
1, 41522, Note_off_c, 0, 62, 94
1, 41527, Note_on_c, 0, 65, 102
1, 41603, Note_off_c, 0, 65, 102
1, 41603, Note_on_c, 0, 67, 104
1, 41720, Note_off_c, 0, 67, 104
1, 41733, Note_on_c, 0, 69, 110
1, 41989, Note_off_c, 0, 69, 110
1, 41989, Note_on_c, 0, 65, 100
1, 42061, Note_off_c, 0, 65, 100
1, 42061, Note_on_c, 0, 62, 95
1, 42130, Note_off_c, 0, 62, 95
1, 42131, Note_on_c, 0, 57, 99
1, 42174, Note_off_c, 0, 57, 99
1, 42174, Note_on_c, 0, 64, 106
1, 42272, Note_off_c, 0, 64, 106
1, 42295, Note_on_c, 0, 63, 106
1, 42364, Note_off_c, 0, 63, 106
1, 42367, Note_on_c, 0, 62, 98
1, 42433, Note_off_c, 0, 62, 98
1, 42433, Note_on_c, 0, 53, 101
1, 42482, Note_off_c, 0, 53, 101
1, 42482, Note_on_c, 0, 61, 104
1, 42534, Note_off_c, 0, 61, 104
1, 42552, Note_on_c, 0, 59, 97
1, 42609, Note_off_c, 0, 59, 97
1, 42609, Note_on_c, 0, 61, 104
1, 42668, Note_off_c, 0, 61, 104
1, 42668, Note_on_c, 0, 58, 102
1, 42866, Note_off_c, 0, 58, 102
1, 42866, Note_on_c, 0, 56, 109
1, 42937, Note_off_c, 0, 56, 109
1, 42937, Note_on_c, 0, 54, 97
1, 43013, Note_off_c, 0, 54, 97
1, 43060, Note_on_c, 0, 54, 102
1, 43111, Note_off_c, 0, 54, 102
1, 43406, Note_on_c, 0, 65, 104
1, 43472, Note_off_c, 0, 65, 104
1, 43472, Note_on_c, 0, 66, 111
1, 43521, Note_off_c, 0, 66, 111
1, 43521, Note_on_c, 0, 69, 127
1, 43567, Note_off_c, 0, 69, 127
1, 43567, Note_on_c, 0, 70, 114
1, 43610, Note_off_c, 0, 70, 114
1, 43610, Note_on_c, 0, 66, 116
1, 43665, Note_on_c, 0, 64, 108
1, 43665, Note_off_c, 0, 66, 116
1, 43708, Note_off_c, 0, 64, 108
1, 43708, Note_on_c, 0, 63, 100
1, 43785, Note_off_c, 0, 63, 100
1, 43877, Note_on_c, 0, 72, 93
1, 43934, Note_on_c, 0, 63, 94
1, 43934, Note_off_c, 0, 72, 93
1, 43990, Note_off_c, 0, 63, 94
1, 43990, Note_on_c, 0, 67, 108
1, 44026, Note_off_c, 0, 67, 108
1, 44026, Note_on_c, 0, 70, 95
1, 44066, Note_on_c, 0, 74, 116
1, 44066, Note_off_c, 0, 70, 95
1, 44117, Note_off_c, 0, 74, 116
1, 44120, Note_on_c, 0, 72, 113
1, 44163, Note_off_c, 0, 72, 113
1, 44163, Note_on_c, 0, 70, 108
1, 44210, Note_off_c, 0, 70, 108
1, 44222, Note_on_c, 0, 68, 110
1, 44261, Note_off_c, 0, 68, 110
1, 44262, Note_on_c, 0, 69, 120
1, 44310, Note_off_c, 0, 69, 120
1, 44359, Note_on_c, 0, 65, 110
1, 44392, Note_off_c, 0, 65, 110
1, 44392, Note_on_c, 0, 66, 106
1, 44423, Note_off_c, 0, 66, 106
1, 44423, Note_on_c, 0, 67, 114
1, 44454, Note_off_c, 0, 67, 114
1, 44457, Note_on_c, 0, 69, 118
1, 44505, Note_off_c, 0, 69, 118
1, 44505, Note_on_c, 0, 66, 106
1, 44538, Note_off_c, 0, 66, 106
1, 44538, Note_on_c, 0, 67, 102
1, 44595, Note_off_c, 0, 67, 102
1, 44595, Note_on_c, 0, 69, 115
1, 44623, Note_on_c, 0, 71, 104
1, 44623, Note_off_c, 0, 69, 115
1, 44675, Note_off_c, 0, 71, 104
1, 44675, Note_on_c, 0, 67, 106
1, 44710, Note_off_c, 0, 67, 106
1, 44712, Note_on_c, 0, 64, 97
1, 44762, Note_off_c, 0, 64, 97
1, 44769, Note_on_c, 0, 59, 103
1, 44812, Note_off_c, 0, 59, 103
1, 44812, Note_on_c, 0, 62, 102
1, 44859, Note_off_c, 0, 62, 102
1, 44859, Note_on_c, 0, 59, 98
1, 44900, Note_off_c, 0, 59, 98
1, 44904, Note_on_c, 0, 62, 102
1, 44939, Note_off_c, 0, 62, 102
1, 44939, Note_on_c, 0, 59, 102
1, 44977, Note_off_c, 0, 59, 102
1, 44977, Note_on_c, 0, 61, 100
1, 45065, Note_off_c, 0, 61, 100
1, 45169, Note_on_c, 0, 68, 115
1, 45224, Note_off_c, 0, 68, 115
1, 45224, Note_on_c, 0, 66, 106
1, 45262, Note_off_c, 0, 66, 106
1, 45262, Note_on_c, 0, 61, 105
1, 45305, Note_off_c, 0, 61, 105
1, 45313, Note_on_c, 0, 58, 101
1, 45341, Note_off_c, 0, 58, 101
1, 45353, Note_on_c, 0, 65, 113
1, 45379, Note_off_c, 0, 65, 113
1, 45379, Note_on_c, 0, 66, 111
1, 45412, Note_off_c, 0, 66, 111
1, 45412, Note_on_c, 0, 67, 111
1, 45442, Note_off_c, 0, 67, 111
1, 45445, Note_on_c, 0, 68, 111
1, 45478, Note_off_c, 0, 68, 111
1, 45497, Note_on_c, 0, 69, 119
1, 45514, Note_off_c, 0, 69, 119
1, 45532, Note_on_c, 0, 70, 108
1, 45586, Note_off_c, 0, 70, 108
1, 45593, Note_on_c, 0, 66, 109
1, 45621, Note_off_c, 0, 66, 109
1, 45633, Note_on_c, 0, 63, 95
1, 45680, Note_off_c, 0, 63, 95
1, 45680, Note_on_c, 0, 59, 99
1, 45730, Note_on_c, 0, 61, 107
1, 45730, Note_off_c, 0, 59, 99
1, 45772, Note_off_c, 0, 61, 107
1, 45779, Note_on_c, 0, 59, 101
1, 45810, Note_off_c, 0, 59, 101
1, 45810, Note_on_c, 0, 60, 102
1, 45849, Note_off_c, 0, 60, 102
1, 46049, Note_on_c, 0, 55, 107
1, 46112, Note_off_c, 0, 55, 107
1, 46118, Note_on_c, 0, 64, 104
1, 46173, Note_off_c, 0, 64, 104
1, 46173, Note_on_c, 0, 63, 101
1, 46232, Note_off_c, 0, 63, 101
1, 46232, Note_on_c, 0, 64, 107
1, 46287, Note_off_c, 0, 64, 107
1, 46295, Note_on_c, 0, 60, 104
1, 46353, Note_off_c, 0, 60, 104
1, 46356, Note_on_c, 0, 55, 99
1, 46411, Note_on_c, 0, 60, 99
1, 46411, Note_off_c, 0, 55, 99
1, 46473, Note_off_c, 0, 60, 99
1, 46473, Note_on_c, 0, 64, 96
1, 46543, Note_off_c, 0, 64, 96
1, 46544, Note_on_c, 0, 63, 98
1, 46606, Note_off_c, 0, 63, 98
1, 46606, Note_on_c, 0, 64, 103
1, 46670, Note_off_c, 0, 64, 103
1, 46670, Note_on_c, 0, 60, 100
1, 46726, Note_off_c, 0, 60, 100
1, 46741, Note_on_c, 0, 55, 100
1, 46800, Note_off_c, 0, 55, 100
1, 46800, Note_on_c, 0, 60, 95
1, 46862, Note_off_c, 0, 60, 95
1, 46871, Note_on_c, 0, 64, 102
1, 46937, Note_off_c, 0, 64, 102
1, 46937, Note_on_c, 0, 60, 96
1, 46989, Note_on_c, 0, 64, 101
1, 46989, Note_off_c, 0, 60, 96
1, 47058, Note_off_c, 0, 64, 101
1, 47058, Note_on_c, 0, 60, 99
1, 47113, Note_on_c, 0, 55, 104
1, 47113, Note_off_c, 0, 60, 99
1, 47175, Note_off_c, 0, 55, 104
1, 47175, Note_on_c, 0, 53, 96
1, 47313, Note_off_c, 0, 53, 96
1, 47581, Note_on_c, 0, 60, 110
1, 47631, Note_off_c, 0, 60, 110
1, 47631, Note_on_c, 0, 64, 103
1, 47690, Note_off_c, 0, 64, 103
1, 47711, Note_on_c, 0, 60, 98
1, 47769, Note_off_c, 0, 60, 98
1, 47771, Note_on_c, 0, 64, 105
1, 47832, Note_off_c, 0, 64, 105
1, 47840, Note_on_c, 0, 60, 111
1, 47883, Note_off_c, 0, 60, 111
1, 47883, Note_on_c, 0, 64, 103
1, 47992, Note_off_c, 0, 64, 103
1, 47998, Note_on_c, 0, 67, 114
1, 48122, Note_off_c, 0, 67, 114
1, 48155, Note_on_c, 0, 69, 114
1, 48221, Note_off_c, 0, 69, 114
1, 48221, Note_on_c, 0, 71, 106
1, 48407, Note_off_c, 0, 71, 106
1, 48407, Note_on_c, 0, 74, 113
1, 48447, Note_off_c, 0, 74, 113
1, 48447, Note_on_c, 0, 71, 98
1, 48501, Note_off_c, 0, 71, 98
1, 48506, Note_on_c, 0, 72, 102
1, 48556, Note_off_c, 0, 72, 102
1, 48556, Note_on_c, 0, 74, 97
1, 48596, Note_off_c, 0, 74, 97
1, 48596, Note_on_c, 0, 76, 109
1, 48689, Note_off_c, 0, 76, 109
1, 48710, Note_on_c, 0, 72, 100
1, 48801, Note_off_c, 0, 72, 100
1, 48801, Note_on_c, 0, 67, 97
1, 48936, Note_off_c, 0, 67, 97
1, 48938, Note_on_c, 0, 65, 105
1, 49001, Note_on_c, 0, 63, 90
1, 49001, Note_off_c, 0, 65, 105
1, 49104, Note_off_c, 0, 63, 90
1, 49107, Note_on_c, 0, 60, 97
1, 49185, Note_off_c, 0, 60, 97
1, 49553, Note_on_c, 0, 62, 102
1, 49705, Note_off_c, 0, 62, 102
1, 49706, Note_on_c, 0, 60, 34
1, 49761, Note_on_c, 0, 65, 102
1, 49761, Note_off_c, 0, 60, 34
1, 49937, Note_off_c, 0, 65, 102
1, 49937, Note_on_c, 0, 62, 98
1, 49989, Note_off_c, 0, 62, 98
1, 49989, Note_on_c, 0, 63, 97
1, 50024, Note_off_c, 0, 63, 97
1, 50024, Note_on_c, 0, 67, 112
1, 50060, Note_off_c, 0, 67, 112
1, 50064, Note_on_c, 0, 70, 116
1, 50090, Note_off_c, 0, 70, 116
1, 50090, Note_on_c, 0, 74, 117
1, 50131, Note_off_c, 0, 74, 117
1, 50137, Note_on_c, 0, 73, 111
1, 50196, Note_off_c, 0, 73, 111
1, 50196, Note_on_c, 0, 74, 112
1, 50231, Note_off_c, 0, 74, 112
1, 50233, Note_on_c, 0, 73, 110
1, 50271, Note_off_c, 0, 73, 110
1, 50271, Note_on_c, 0, 69, 118
1, 50318, Note_off_c, 0, 69, 118
1, 50318, Note_on_c, 0, 66, 117
1, 50356, Note_off_c, 0, 66, 117
1, 50368, Note_on_c, 0, 65, 106
1, 50411, Note_off_c, 0, 65, 106
1, 50411, Note_on_c, 0, 63, 98
1, 50454, Note_off_c, 0, 63, 98
1, 50458, Note_on_c, 0, 58, 102
1, 50510, Note_off_c, 0, 58, 102
1, 50510, Note_on_c, 0, 62, 97
1, 50624, Note_off_c, 0, 62, 97
1, 50629, Note_on_c, 0, 65, 113
1, 50686, Note_off_c, 0, 65, 113
1, 51086, Note_on_c, 0, 62, 115
1, 51150, Note_off_c, 0, 62, 115
1, 51152, Note_on_c, 0, 60, 104
1, 51213, Note_off_c, 0, 60, 104
1, 51213, Note_on_c, 0, 58, 109
1, 51258, Note_off_c, 0, 58, 109
1, 51258, Note_on_c, 0, 66, 115
1, 51432, Note_off_c, 0, 66, 115
1, 51452, Note_on_c, 0, 64, 102
1, 51642, Note_off_c, 0, 64, 102
1, 51642, Note_on_c, 0, 63, 98
1, 51825, Note_off_c, 0, 63, 98
1, 51848, Note_on_c, 0, 59, 106
1, 52036, Note_on_c, 0, 60, 99
1, 52036, Note_off_c, 0, 59, 106
1, 52224, Note_off_c, 0, 60, 99
1, 52225, Note_on_c, 0, 55, 95
1, 52349, Note_off_c, 0, 55, 95
1, 52349, End_track
0, 0, End_of_file
