0, 0, Header, 1, 1, 192
1, 0, Start_track
1, 0, Title_t, "Melody"
1, 0, Tempo, 307692
1, 0, Key_signature, -3, "major"
1, 0, Time_signature, 4, 2, 24, 8
1, 2177, Note_on_c, 0, 67, 108
1, 2255, Note_off_c, 0, 67, 108
1, 2491, Note_on_c, 0, 67, 102
1, 2582, Note_off_c, 0, 67, 102
1, 2943, Note_on_c, 0, 67, 125
1, 3172, Note_off_c, 0, 67, 125
1, 3194, Note_on_c, 0, 68, 114
1, 3241, Note_off_c, 0, 68, 114
1, 3251, Note_on_c, 0, 70, 116
1, 3318, Note_off_c, 0, 70, 116
1, 3325, Note_on_c, 0, 67, 122
1, 3452, Note_off_c, 0, 67, 122
1, 3480, Note_on_c, 0, 65, 115
1, 3607, Note_off_c, 0, 65, 115
1, 3635, Note_on_c, 0, 63, 93
1, 3720, Note_off_c, 0, 63, 93
1, 3736, Note_on_c, 0, 62, 97
1, 3844, Note_off_c, 0, 62, 97
1, 4059, Note_on_c, 0, 62, 103
1, 4145, Note_off_c, 0, 62, 103
1, 4431, Note_on_c, 0, 58, 91
1, 4474, Note_off_c, 0, 58, 91
1, 4493, Note_on_c, 0, 60, 115
1, 4601, Note_off_c, 0, 60, 115
1, 4606, Note_on_c, 0, 61, 113
1, 4678, Note_off_c, 0, 61, 113
1, 4699, Note_on_c, 0, 58, 102
1, 4802, Note_off_c, 0, 58, 102
1, 4856, Note_on_c, 0, 60, 116
1, 4990, Note_off_c, 0, 60, 116
1, 5026, Note_on_c, 0, 56, 105
1, 5073, Note_off_c, 0, 56, 105
1, 5190, Note_on_c, 0, 60, 112
1, 5295, Note_off_c, 0, 60, 112
1, 5595, Note_on_c, 0, 56, 107
1, 5638, Note_off_c, 0, 56, 107
1, 5676, Note_on_c, 0, 63, 112
1, 5764, Note_off_c, 0, 63, 112
1, 5787, Note_on_c, 0, 60, 112
1, 5854, Note_off_c, 0, 60, 112
1, 5870, Note_on_c, 0, 61, 97
1, 5958, Note_off_c, 0, 61, 97
1, 5967, Note_on_c, 0, 62, 112
1, 6053, Note_off_c, 0, 62, 112
1, 6168, Note_on_c, 0, 58, 104
1, 6213, Note_off_c, 0, 58, 104
1, 6252, Note_on_c, 0, 62, 100
1, 6326, Note_off_c, 0, 62, 100
1, 6360, Note_on_c, 0, 65, 103
1, 6405, Note_off_c, 0, 65, 103
1, 6433, Note_on_c, 0, 69, 121
1, 6547, Note_off_c, 0, 69, 121
1, 6565, Note_on_c, 0, 68, 120
1, 6628, Note_off_c, 0, 68, 120
1, 6647, Note_on_c, 0, 64, 106
1, 6739, Note_off_c, 0, 64, 106
1, 6757, Note_on_c, 0, 62, 93
1, 6795, Note_off_c, 0, 62, 93
1, 6834, Note_on_c, 0, 67, 104
1, 6915, Note_off_c, 0, 67, 104
1, 6940, Note_on_c, 0, 70, 118
1, 6990, Note_off_c, 0, 70, 118
1, 7004, Note_on_c, 0, 69, 99
1, 7069, Note_off_c, 0, 69, 99
1, 7081, Note_on_c, 0, 67, 89
1, 7113, Note_off_c, 0, 67, 89
1, 7136, Note_on_c, 0, 72, 118
1, 7235, Note_off_c, 0, 72, 118
1, 7586, Note_on_c, 0, 68, 120
1, 7732, Note_off_c, 0, 68, 120
1, 7748, Note_on_c, 0, 67, 116
1, 7796, Note_off_c, 0, 67, 116
1, 7816, Note_on_c, 0, 65, 118
1, 7882, Note_off_c, 0, 65, 118
1, 7887, Note_on_c, 0, 64, 112
1, 7929, Note_off_c, 0, 64, 112
1, 7936, Note_on_c, 0, 63, 100
1, 7983, Note_off_c, 0, 63, 100
1, 8002, Note_on_c, 0, 62, 105
1, 8042, Note_off_c, 0, 62, 105
1, 8062, Note_on_c, 0, 60, 110
1, 8104, Note_off_c, 0, 60, 110
1, 8119, Note_on_c, 0, 59, 100
1, 8152, Note_off_c, 0, 59, 100
1, 8153, Note_on_c, 0, 60, 107
1, 8196, Note_off_c, 0, 60, 107
1, 8203, Note_on_c, 0, 62, 102
1, 8257, Note_off_c, 0, 62, 102
1, 8262, Note_on_c, 0, 60, 110
1, 8298, Note_off_c, 0, 60, 110
1, 8336, Note_on_c, 0, 57, 86
1, 8370, Note_off_c, 0, 57, 86
1, 8386, Note_on_c, 0, 58, 95
1, 8459, Note_off_c, 0, 58, 95
1, 8674, Note_on_c, 0, 62, 100
1, 8752, Note_off_c, 0, 62, 100
1, 8762, Note_on_c, 0, 55, 99
1, 8835, Note_off_c, 0, 55, 99
1, 8855, Note_on_c, 0, 58, 102
1, 8913, Note_off_c, 0, 58, 102
1, 8948, Note_on_c, 0, 62, 108
1, 9033, Note_off_c, 0, 62, 108
1, 9053, Note_on_c, 0, 65, 117
1, 9130, Note_off_c, 0, 65, 117
1, 9198, Note_on_c, 0, 62, 98
1, 9262, Note_off_c, 0, 62, 98
1, 9268, Note_on_c, 0, 64, 101
1, 9303, Note_off_c, 0, 64, 101
1, 9322, Note_on_c, 0, 67, 120
1, 9420, Note_off_c, 0, 67, 120
1, 9439, Note_on_c, 0, 65, 94
1, 9481, Note_off_c, 0, 65, 94
1, 9496, Note_on_c, 0, 73, 113
1, 9518, Note_off_c, 0, 73, 113
1, 9528, Note_on_c, 0, 74, 115
1, 9618, Note_off_c, 0, 74, 115
1, 9626, Note_on_c, 0, 76, 108
1, 9662, Note_off_c, 0, 76, 108
1, 9669, Note_on_c, 0, 77, 116
1, 9821, Note_off_c, 0, 77, 116
1, 9827, Note_on_c, 0, 70, 109
1, 9925, Note_off_c, 0, 70, 109
1, 10243, Note_on_c, 0, 79, 116
1, 10552, Note_off_c, 0, 79, 116
1, 10568, Note_on_c, 0, 78, 109
1, 10644, Note_off_c, 0, 78, 109
1, 10677, Note_on_c, 0, 78, 118
1, 10874, Note_off_c, 0, 78, 118
1, 10898, Note_on_c, 0, 77, 110
1, 10984, Note_off_c, 0, 77, 110
1, 11005, Note_on_c, 0, 75, 112
1, 11267, Note_off_c, 0, 75, 112
1, 11275, Note_on_c, 0, 73, 102
1, 11297, Note_off_c, 0, 73, 102
1, 11308, Note_on_c, 0, 72, 120
1, 11332, Note_off_c, 0, 72, 120
1, 11363, Note_on_c, 0, 68, 115
1, 11734, Note_off_c, 0, 68, 115
1, 11765, Note_on_c, 0, 66, 111
1, 11819, Note_off_c, 0, 66, 111
1, 11827, Note_on_c, 0, 65, 111
1, 11990, Note_off_c, 0, 65, 111
1, 12014, Note_on_c, 0, 63, 97
1, 12187, Note_off_c, 0, 63, 97
1, 12213, Note_on_c, 0, 62, 99
1, 12428, Note_off_c, 0, 62, 99
1, 12496, Note_on_c, 0, 57, 92
1, 12560, Note_off_c, 0, 57, 92
1, 12616, Note_on_c, 0, 60, 103
1, 12869, Note_off_c, 0, 60, 103
1, 12919, Note_on_c, 0, 58, 103
1, 12972, Note_off_c, 0, 58, 103
1, 12980, Note_on_c, 0, 57, 88
1, 13051, Note_off_c, 0, 57, 88
1, 13081, Note_on_c, 0, 60, 110
1, 13151, Note_off_c, 0, 60, 110
1, 13173, Note_on_c, 0, 64, 106
1, 13262, Note_off_c, 0, 64, 106
1, 13287, Note_on_c, 0, 67, 122
1, 13351, Note_off_c, 0, 67, 122
1, 13371, Note_on_c, 0, 65, 110
1, 13452, Note_off_c, 0, 65, 110
1, 13462, Note_on_c, 0, 67, 120
1, 13529, Note_off_c, 0, 67, 120
1, 13544, Note_on_c, 0, 68, 121
1, 13626, Note_off_c, 0, 68, 121
1, 13643, Note_on_c, 0, 70, 117
1, 13704, Note_off_c, 0, 70, 117
1, 13739, Note_on_c, 0, 71, 117
1, 13831, Note_off_c, 0, 71, 117
1, 13847, Note_on_c, 0, 68, 123
1, 13899, Note_off_c, 0, 68, 123
1, 13914, Note_on_c, 0, 67, 110
1, 14013, Note_off_c, 0, 67, 110
1, 14038, Note_on_c, 0, 65, 95
1, 14099, Note_off_c, 0, 65, 95
1, 14118, Note_on_c, 0, 70, 116
1, 14223, Note_off_c, 0, 70, 116
1, 14248, Note_on_c, 0, 67, 116
1, 14301, Note_off_c, 0, 67, 116
1, 14320, Note_on_c, 0, 63, 94
1, 14388, Note_off_c, 0, 63, 94
1, 14424, Note_on_c, 0, 68, 119
1, 14523, Note_off_c, 0, 68, 119
1, 14782, Note_on_c, 0, 67, 92
1, 14826, Note_off_c, 0, 67, 92
1, 14889, Note_on_c, 0, 70, 123
1, 14994, Note_off_c, 0, 70, 123
1, 15067, Note_on_c, 0, 68, 127
1, 15153, Note_off_c, 0, 68, 127
1, 15256, Note_on_c, 0, 73, 126
1, 15389, Note_off_c, 0, 73, 126
1, 15415, Note_on_c, 0, 72, 120
1, 15501, Note_off_c, 0, 72, 120
1, 15606, Note_on_c, 0, 75, 116
1, 15677, Note_off_c, 0, 75, 116
1, 15766, Note_on_c, 0, 72, 117
1, 15827, Note_off_c, 0, 72, 117
1, 15968, Note_on_c, 0, 68, 123
1, 16049, Note_off_c, 0, 68, 123
1, 16162, Note_on_c, 0, 76, 115
1, 16206, Note_off_c, 0, 76, 115
1, 16217, Note_on_c, 0, 77, 119
1, 16267, Note_off_c, 0, 77, 119
1, 16273, Note_on_c, 0, 78, 113
1, 16432, Note_off_c, 0, 78, 113
1, 16442, Note_on_c, 0, 77, 114
1, 16517, Note_off_c, 0, 77, 114
1, 16548, Note_on_c, 0, 75, 111
1, 16592, Note_off_c, 0, 75, 111
1, 16622, Note_on_c, 0, 73, 115
1, 16728, Note_off_c, 0, 73, 115
1, 16733, Note_on_c, 0, 72, 115
1, 16803, Note_off_c, 0, 72, 115
1, 16822, Note_on_c, 0, 71, 112
1, 16907, Note_off_c, 0, 71, 112
1, 16928, Note_on_c, 0, 70, 115
1, 16986, Note_off_c, 0, 70, 115
1, 17000, Note_on_c, 0, 68, 109
1, 17049, Note_off_c, 0, 68, 109
1, 17055, Note_on_c, 0, 69, 100
1, 17083, Note_off_c, 0, 69, 100
1, 17086, Note_on_c, 0, 68, 112
1, 17117, Note_off_c, 0, 68, 112
1, 17132, Note_on_c, 0, 66, 99
1, 17189, Note_off_c, 0, 66, 99
1, 17206, Note_on_c, 0, 64, 102
1, 17321, Note_off_c, 0, 64, 102
1, 17340, Note_on_c, 0, 62, 111
1, 17408, Note_off_c, 0, 62, 111
1, 17422, Note_on_c, 0, 61, 93
1, 17494, Note_off_c, 0, 61, 93
1, 17516, Note_on_c, 0, 59, 103
1, 17579, Note_off_c, 0, 59, 103
1, 17598, Note_on_c, 0, 58, 84
1, 17717, Note_off_c, 0, 58, 84
1, 17876, Note_on_c, 0, 65, 113
1, 17975, Note_off_c, 0, 65, 113
1, 18345, Note_on_c, 0, 68, 123
1, 18443, Note_off_c, 0, 68, 123
1, 18460, Note_on_c, 0, 65, 95
1, 18533, Note_off_c, 0, 65, 95
1, 18536, Note_on_c, 0, 66, 84
1, 18626, Note_off_c, 0, 66, 84
1, 18727, Note_on_c, 0, 70, 118
1, 18884, Note_off_c, 0, 70, 118
1, 18905, Note_on_c, 0, 68, 85
1, 19039, Note_off_c, 0, 68, 85
1, 19436, Note_on_c, 0, 71, 118
1, 19485, Note_off_c, 0, 71, 118
1, 19490, Note_on_c, 0, 72, 121
1, 19720, Note_off_c, 0, 72, 121
1, 19870, Note_on_c, 0, 68, 118
1, 19950, Note_off_c, 0, 68, 118
1, 19958, Note_on_c, 0, 70, 103
1, 19986, Note_off_c, 0, 70, 103
1, 20002, Note_on_c, 0, 68, 116
1, 20046, Note_off_c, 0, 68, 116
1, 20065, Note_on_c, 0, 65, 112
1, 20166, Note_off_c, 0, 65, 112
1, 20182, Note_on_c, 0, 63, 108
1, 20236, Note_off_c, 0, 63, 108
1, 20252, Note_on_c, 0, 62, 102
1, 20336, Note_off_c, 0, 62, 102
1, 20355, Note_on_c, 0, 58, 102
1, 20414, Note_off_c, 0, 58, 102
1, 20551, Note_on_c, 0, 65, 112
1, 20571, Note_off_c, 0, 65, 112
1, 20582, Note_on_c, 0, 66, 112
1, 20627, Note_off_c, 0, 66, 112
1, 20638, Note_on_c, 0, 67, 117
1, 20789, Note_off_c, 0, 67, 117
1, 20814, Note_on_c, 0, 70, 115
1, 21169, Note_off_c, 0, 70, 115
1, 21190, Note_on_c, 0, 72, 116
1, 21262, Note_off_c, 0, 72, 116
1, 21396, Note_on_c, 0, 74, 110
1, 21491, Note_off_c, 0, 74, 110
1, 21517, Note_on_c, 0, 70, 96
1, 21561, Note_off_c, 0, 70, 96
1, 21589, Note_on_c, 0, 72, 111
1, 21693, Note_off_c, 0, 72, 111
1, 21743, Note_on_c, 0, 74, 116
1, 21823, Note_off_c, 0, 74, 116
1, 21884, Note_on_c, 0, 70, 116
1, 21957, Note_off_c, 0, 70, 116
1, 21985, Note_on_c, 0, 65, 118
1, 22033, Note_off_c, 0, 65, 118
1, 22033, Note_on_c, 0, 66, 106
1, 22078, Note_off_c, 0, 66, 106
1, 22089, Note_on_c, 0, 65, 105
1, 22430, Note_off_c, 0, 65, 105
1, 22745, Note_on_c, 0, 57, 99
1, 22848, Note_off_c, 0, 57, 99
1, 22864, Note_on_c, 0, 60, 91
1, 22918, Note_off_c, 0, 60, 91
1, 22930, Note_on_c, 0, 63, 96
1, 23017, Note_off_c, 0, 63, 96
1, 23038, Note_on_c, 0, 66, 112
1, 23097, Note_off_c, 0, 66, 112
1, 23132, Note_on_c, 0, 70, 110
1, 23237, Note_off_c, 0, 70, 110
1, 23300, Note_on_c, 0, 76, 121
1, 23328, Note_off_c, 0, 76, 121
1, 23331, Note_on_c, 0, 77, 118
1, 23469, Note_off_c, 0, 77, 118
1, 23469, Note_on_c, 0, 66, 98
1, 23533, Note_off_c, 0, 66, 98
1, 23636, Note_on_c, 0, 64, 119
1, 23679, Note_off_c, 0, 64, 119
1, 23689, Note_on_c, 0, 65, 108
1, 23929, Note_off_c, 0, 65, 108
1, 23940, Note_on_c, 0, 68, 103
1, 23961, Note_off_c, 0, 68, 103
1, 23968, Note_on_c, 0, 71, 103
1, 23985, Note_off_c, 0, 71, 103
1, 23985, Note_on_c, 0, 72, 103
1, 24016, Note_off_c, 0, 72, 103
1, 24022, Note_on_c, 0, 75, 119
1, 24080, Note_off_c, 0, 75, 119
1, 24092, Note_on_c, 0, 72, 117
1, 24197, Note_off_c, 0, 72, 117
1, 24203, Note_on_c, 0, 73, 123
1, 24273, Note_off_c, 0, 73, 123
1, 24284, Note_on_c, 0, 74, 106
1, 24346, Note_off_c, 0, 74, 106
1, 24370, Note_on_c, 0, 70, 117
1, 24434, Note_off_c, 0, 70, 117
1, 24448, Note_on_c, 0, 69, 109
1, 24511, Note_off_c, 0, 69, 109
1, 24514, Note_on_c, 0, 70, 107
1, 24542, Note_off_c, 0, 70, 107
1, 24557, Note_on_c, 0, 69, 116
1, 24577, Note_off_c, 0, 69, 116
1, 24588, Note_on_c, 0, 67, 111
1, 24638, Note_off_c, 0, 67, 111
1, 24648, Note_on_c, 0, 66, 108
1, 24724, Note_off_c, 0, 66, 108
1, 24771, Note_on_c, 0, 64, 108
1, 24814, Note_off_c, 0, 64, 108
1, 24956, Note_on_c, 0, 60, 94
1, 25015, Note_off_c, 0, 60, 94
1, 25034, Note_on_c, 0, 63, 109
1, 25133, Note_off_c, 0, 63, 109
1, 25154, Note_on_c, 0, 61, 107
1, 25210, Note_off_c, 0, 61, 107
1, 25239, Note_on_c, 0, 56, 95
1, 25340, Note_off_c, 0, 56, 95
1, 25396, Note_on_c, 0, 60, 116
1, 25527, Note_off_c, 0, 60, 116
1, 25546, Note_on_c, 0, 58, 99
1, 25602, Note_off_c, 0, 58, 99
1, 25626, Note_on_c, 0, 57, 97
1, 25721, Note_off_c, 0, 57, 97
1, 25728, Note_on_c, 0, 67, 120
1, 25777, Note_off_c, 0, 67, 120
1, 25791, Note_on_c, 0, 64, 98
1, 25839, Note_off_c, 0, 64, 98
1, 25859, Note_on_c, 0, 62, 95
1, 25895, Note_off_c, 0, 62, 95
1, 25921, Note_on_c, 0, 60, 106
1, 25968, Note_off_c, 0, 60, 106
1, 25994, Note_on_c, 0, 65, 115
1, 26095, Note_off_c, 0, 65, 115
1, 26121, Note_on_c, 0, 60, 103
1, 26177, Note_off_c, 0, 60, 103
1, 26194, Note_on_c, 0, 63, 95
1, 26274, Note_off_c, 0, 63, 95
1, 26305, Note_on_c, 0, 68, 119
1, 26353, Note_off_c, 0, 68, 119
1, 26382, Note_on_c, 0, 62, 108
1, 26471, Note_off_c, 0, 62, 108
1, 26513, Note_on_c, 0, 58, 90
1, 26567, Note_off_c, 0, 58, 90
1, 26574, Note_on_c, 0, 59, 88
1, 26673, Note_off_c, 0, 59, 88
1, 26693, Note_on_c, 0, 60, 114
1, 26751, Note_off_c, 0, 60, 114
1, 26779, Note_on_c, 0, 58, 96
1, 26856, Note_off_c, 0, 58, 96
1, 26868, Note_on_c, 0, 60, 100
1, 26924, Note_off_c, 0, 60, 100
1, 26939, Note_on_c, 0, 58, 86
1, 27012, Note_off_c, 0, 58, 86
1, 27046, Note_on_c, 0, 55, 93
1, 27110, Note_off_c, 0, 55, 93
1, 27120, Note_on_c, 0, 58, 98
1, 27229, Note_off_c, 0, 58, 98
1, 27265, Note_on_c, 0, 67, 99
1, 27528, Note_off_c, 0, 67, 99
1, 27852, Note_on_c, 0, 65, 93
1, 27894, Note_off_c, 0, 65, 93
1, 27911, Note_on_c, 0, 68, 124
1, 27965, Note_off_c, 0, 68, 124
1, 27981, Note_on_c, 0, 67, 115
1, 28090, Note_off_c, 0, 67, 115
1, 28124, Note_on_c, 0, 63, 94
1, 28216, Note_off_c, 0, 63, 94
1, 28238, Note_on_c, 0, 65, 105
1, 28287, Note_off_c, 0, 65, 105
1, 28598, Note_on_c, 0, 65, 95
1, 28637, Note_off_c, 0, 65, 95
1, 28652, Note_on_c, 0, 70, 98
1, 28680, Note_off_c, 0, 70, 98
1, 28694, Note_on_c, 0, 68, 111
1, 28741, Note_off_c, 0, 68, 111
1, 28753, Note_on_c, 0, 67, 106
1, 28890, Note_off_c, 0, 67, 106
1, 28906, Note_on_c, 0, 63, 96
1, 29000, Note_off_c, 0, 63, 96
1, 29019, Note_on_c, 0, 65, 105
1, 29092, Note_off_c, 0, 65, 105
1, 29410, Note_on_c, 0, 58, 95
1, 29450, Note_off_c, 0, 58, 95
1, 29469, Note_on_c, 0, 68, 117
1, 29612, Note_off_c, 0, 68, 117
1, 29612, Note_on_c, 0, 67, 117
1, 29666, Note_off_c, 0, 67, 117
1, 29680, Note_on_c, 0, 63, 101
1, 29762, Note_off_c, 0, 63, 101
1, 29773, Note_on_c, 0, 58, 113
1, 29821, Note_off_c, 0, 58, 113
1, 29854, Note_on_c, 0, 62, 99
1, 29967, Note_off_c, 0, 62, 99
1, 29994, Note_on_c, 0, 63, 105
1, 30029, Note_off_c, 0, 63, 105
1, 30043, Note_on_c, 0, 67, 113
1, 30146, Note_off_c, 0, 67, 113
1, 30177, Note_on_c, 0, 71, 99
1, 30227, Note_off_c, 0, 71, 99
1, 30249, Note_on_c, 0, 74, 107
1, 30359, Note_off_c, 0, 74, 107
1, 30380, Note_on_c, 0, 75, 106
1, 30438, Note_off_c, 0, 75, 106
1, 30570, Note_on_c, 0, 77, 111
1, 30864, Note_off_c, 0, 77, 111
1, 31046, Note_on_c, 0, 79, 98
1, 31126, Note_off_c, 0, 79, 98
1, 31138, Note_on_c, 0, 78, 115
1, 31173, Note_off_c, 0, 78, 115
1, 31181, Note_on_c, 0, 79, 107
1, 31214, Note_off_c, 0, 79, 107
1, 31228, Note_on_c, 0, 78, 109
1, 31299, Note_off_c, 0, 78, 109
1, 31313, Note_on_c, 0, 76, 113
1, 31386, Note_off_c, 0, 76, 113
1, 31419, Note_on_c, 0, 75, 113
1, 31500, Note_off_c, 0, 75, 113
1, 31510, Note_on_c, 0, 74, 108
1, 31583, Note_off_c, 0, 74, 108
1, 31612, Note_on_c, 0, 72, 117
1, 31684, Note_off_c, 0, 72, 117
1, 31701, Note_on_c, 0, 71, 113
1, 31786, Note_off_c, 0, 71, 113
1, 31798, Note_on_c, 0, 70, 114
1, 31882, Note_off_c, 0, 70, 114
1, 31899, Note_on_c, 0, 69, 115
1, 31983, Note_off_c, 0, 69, 115
1, 31988, Note_on_c, 0, 68, 118
1, 32063, Note_off_c, 0, 68, 118
1, 32082, Note_on_c, 0, 67, 115
1, 32146, Note_off_c, 0, 67, 115
1, 32164, Note_on_c, 0, 66, 110
1, 32240, Note_off_c, 0, 66, 110
1, 32267, Note_on_c, 0, 73, 117
1, 32326, Note_off_c, 0, 73, 117
1, 32360, Note_on_c, 0, 65, 110
1, 32463, Note_off_c, 0, 65, 110
1, 32485, Note_on_c, 0, 64, 109
1, 32552, Note_off_c, 0, 64, 109
1, 32577, Note_on_c, 0, 63, 93
1, 32714, Note_off_c, 0, 63, 93
1, 32743, Note_on_c, 0, 54, 97
1, 32852, Note_off_c, 0, 54, 97
1, 32866, Note_on_c, 0, 56, 107
1, 32955, Note_off_c, 0, 56, 107
1, 33035, Note_on_c, 0, 59, 84
1, 33053, Note_off_c, 0, 59, 84
1, 33071, Note_on_c, 0, 60, 110
1, 33087, Note_off_c, 0, 60, 110
1, 33097, Note_on_c, 0, 62, 105
1, 33113, Note_off_c, 0, 62, 105
1, 33123, Note_on_c, 0, 60, 102
1, 33209, Note_off_c, 0, 60, 102
1, 33244, Note_on_c, 0, 61, 100
1, 33342, Note_off_c, 0, 61, 100
1, 33356, Note_on_c, 0, 62, 104
1, 33426, Note_off_c, 0, 62, 104
1, 33431, Note_on_c, 0, 65, 102
1, 33473, Note_off_c, 0, 65, 102
1, 33497, Note_on_c, 0, 69, 123
1, 33600, Note_off_c, 0, 69, 123
1, 33625, Note_on_c, 0, 68, 115
1, 33691, Note_off_c, 0, 68, 115
1, 33708, Note_on_c, 0, 64, 105
1, 33804, Note_off_c, 0, 64, 105
1, 33820, Note_on_c, 0, 62, 88
1, 33856, Note_off_c, 0, 62, 88
1, 33894, Note_on_c, 0, 67, 110
1, 33979, Note_off_c, 0, 67, 110
1, 34000, Note_on_c, 0, 70, 116
1, 34077, Note_off_c, 0, 70, 116
1, 34085, Note_on_c, 0, 69, 111
1, 34188, Note_off_c, 0, 69, 111
1, 34205, Note_on_c, 0, 67, 97
1, 34253, Note_off_c, 0, 67, 97
1, 34259, Note_on_c, 0, 71, 119
1, 34339, Note_off_c, 0, 71, 119
1, 34342, Note_on_c, 0, 72, 105
1, 34394, Note_off_c, 0, 72, 105
1, 34409, Note_on_c, 0, 74, 105
1, 34443, Note_off_c, 0, 74, 105
1, 34467, Note_on_c, 0, 71, 104
1, 34521, Note_off_c, 0, 71, 104
1, 34533, Note_on_c, 0, 72, 107
1, 34577, Note_off_c, 0, 72, 107
1, 34598, Note_on_c, 0, 74, 115
1, 34636, Note_off_c, 0, 74, 115
1, 34653, Note_on_c, 0, 71, 98
1, 34787, Note_off_c, 0, 71, 98
1, 35172, Note_on_c, 0, 71, 95
1, 35206, Note_off_c, 0, 71, 95
1, 35213, Note_on_c, 0, 72, 114
1, 35257, Note_off_c, 0, 72, 114
1, 35262, Note_on_c, 0, 71, 112
1, 35312, Note_off_c, 0, 71, 112
1, 35331, Note_on_c, 0, 70, 115
1, 35365, Note_off_c, 0, 70, 115
1, 35381, Note_on_c, 0, 69, 107
1, 35423, Note_off_c, 0, 69, 107
1, 35434, Note_on_c, 0, 68, 118
1, 35459, Note_off_c, 0, 68, 118
1, 35471, Note_on_c, 0, 67, 107
1, 35493, Note_off_c, 0, 67, 107
1, 35509, Note_on_c, 0, 65, 114
1, 35549, Note_off_c, 0, 65, 114
1, 35563, Note_on_c, 0, 63, 103
1, 35602, Note_off_c, 0, 63, 103
1, 35613, Note_on_c, 0, 60, 112
1, 35648, Note_off_c, 0, 60, 112
1, 35667, Note_on_c, 0, 59, 105
1, 35733, Note_off_c, 0, 59, 105
1, 35743, Note_on_c, 0, 60, 112
1, 35787, Note_off_c, 0, 60, 112
1, 35802, Note_on_c, 0, 62, 113
1, 35854, Note_off_c, 0, 62, 113
1, 35865, Note_on_c, 0, 60, 111
1, 35907, Note_off_c, 0, 60, 111
1, 35910, Note_on_c, 0, 59, 104
1, 35941, Note_off_c, 0, 59, 104
1, 35962, Note_on_c, 0, 56, 93
1, 36018, Note_off_c, 0, 56, 93
1, 36043, Note_on_c, 0, 59, 82
1, 36087, Note_off_c, 0, 59, 82
1, 36088, Note_on_c, 0, 60, 112
1, 36122, Note_off_c, 0, 60, 112
1, 36123, Note_on_c, 0, 61, 110
1, 36142, Note_off_c, 0, 61, 110
1, 36154, Note_on_c, 0, 60, 110
1, 36196, Note_off_c, 0, 60, 110
1, 36212, Note_on_c, 0, 58, 94
1, 36246, Note_off_c, 0, 58, 94
1, 36252, Note_on_c, 0, 60, 119
1, 36304, Note_off_c, 0, 60, 119
1, 36305, Note_on_c, 0, 65, 121
1, 36347, Note_off_c, 0, 65, 121
1, 36348, Note_on_c, 0, 64, 102
1, 36363, Note_off_c, 0, 64, 102
1, 36380, Note_on_c, 0, 62, 100
1, 36432, Note_off_c, 0, 62, 100
1, 36435, Note_on_c, 0, 63, 95
1, 36480, Note_off_c, 0, 63, 95
1, 36483, Note_on_c, 0, 68, 99
1, 36503, Note_off_c, 0, 68, 99
1, 36514, Note_on_c, 0, 70, 105
1, 36536, Note_off_c, 0, 70, 105
1, 36548, Note_on_c, 0, 72, 119
1, 36582, Note_off_c, 0, 72, 119
1, 36592, Note_on_c, 0, 73, 114
1, 36620, Note_off_c, 0, 73, 114
1, 36625, Note_on_c, 0, 74, 100
1, 36669, Note_off_c, 0, 74, 100
1, 36676, Note_on_c, 0, 75, 101
1, 36698, Note_off_c, 0, 75, 101
1, 36710, Note_on_c, 0, 76, 100
1, 36736, Note_off_c, 0, 76, 100
1, 36742, Note_on_c, 0, 77, 102
1, 36771, Note_off_c, 0, 77, 102
1, 36800, Note_on_c, 0, 70, 94
1, 36835, Note_off_c, 0, 70, 94
1, 37141, Note_on_c, 0, 77, 46
1, 37185, Note_off_c, 0, 77, 46
1, 37195, Note_on_c, 0, 78, 116
1, 37253, Note_off_c, 0, 78, 116
1, 37263, Note_on_c, 0, 79, 107
1, 37428, Note_off_c, 0, 79, 107
1, 37449, Note_on_c, 0, 77, 106
1, 37489, Note_off_c, 0, 77, 106
1, 37533, Note_on_c, 0, 75, 117
1, 37619, Note_off_c, 0, 75, 117
1, 37636, Note_on_c, 0, 74, 110
1, 37688, Note_off_c, 0, 74, 110
1, 37714, Note_on_c, 0, 72, 117
1, 37794, Note_off_c, 0, 72, 117
1, 37810, Note_on_c, 0, 71, 115
1, 37895, Note_off_c, 0, 71, 115
1, 37911, Note_on_c, 0, 70, 111
1, 37986, Note_off_c, 0, 70, 111
1, 38001, Note_on_c, 0, 69, 115
1, 38064, Note_off_c, 0, 69, 115
1, 38081, Note_on_c, 0, 68, 114
1, 38165, Note_off_c, 0, 68, 114
1, 38180, Note_on_c, 0, 67, 109
1, 38247, Note_off_c, 0, 67, 109
1, 38277, Note_on_c, 0, 66, 110
1, 38372, Note_off_c, 0, 66, 110
1, 38419, Note_on_c, 0, 57, 91
1, 38453, Note_off_c, 0, 57, 91
1, 38487, Note_on_c, 0, 61, 98
1, 38554, Note_off_c, 0, 61, 98
1, 38582, Note_on_c, 0, 64, 112
1, 38660, Note_off_c, 0, 64, 112
1, 38670, Note_on_c, 0, 65, 103
1, 38747, Note_off_c, 0, 65, 103
1, 38796, Note_on_c, 0, 64, 99
1, 38850, Note_off_c, 0, 64, 99
1, 38855, Note_on_c, 0, 65, 105
1, 38925, Note_off_c, 0, 65, 105
1, 38928, Note_on_c, 0, 64, 95
1, 38944, Note_off_c, 0, 64, 95
1, 39029, Note_on_c, 0, 56, 98
1, 39116, Note_off_c, 0, 56, 98
1, 39170, Note_on_c, 0, 56, 104
1, 39220, Note_off_c, 0, 56, 104
1, 39430, Note_on_c, 0, 53, 94
1, 39514, Note_off_c, 0, 53, 94
1, 39543, Note_on_c, 0, 55, 108
1, 39605, Note_off_c, 0, 55, 108
1, 39633, Note_on_c, 0, 60, 98
1, 39686, Note_off_c, 0, 60, 98
1, 39705, Note_on_c, 0, 65, 112
1, 39790, Note_off_c, 0, 65, 112
1, 39801, Note_on_c, 0, 62, 100
1, 39900, Note_off_c, 0, 62, 100
1, 39911, Note_on_c, 0, 63, 101
1, 39984, Note_off_c, 0, 63, 101
1, 39991, Note_on_c, 0, 64, 104
1, 40073, Note_off_c, 0, 64, 104
1, 40075, Note_on_c, 0, 63, 95
1, 40092, Note_off_c, 0, 63, 95
1, 40160, Note_on_c, 0, 58, 90
1, 40272, Note_off_c, 0, 58, 90
1, 40301, Note_on_c, 0, 62, 115
1, 40358, Note_off_c, 0, 62, 115
1, 40370, Note_on_c, 0, 57, 91
1, 40465, Note_off_c, 0, 57, 91
1, 40470, Note_on_c, 0, 58, 91
1, 40534, Note_off_c, 0, 58, 91
1, 40560, Note_on_c, 0, 60, 106
1, 40670, Note_off_c, 0, 60, 106
1, 40677, Note_on_c, 0, 61, 103
1, 40705, Note_off_c, 0, 61, 103
1, 40721, Note_on_c, 0, 60, 106
1, 40746, Note_off_c, 0, 60, 106
1, 40746, Note_on_c, 0, 57, 85
1, 40860, Note_off_c, 0, 57, 85
1, 40924, Note_on_c, 0, 60, 106
1, 41033, Note_off_c, 0, 60, 106
1, 41066, Note_on_c, 0, 69, 113
1, 41114, Note_off_c, 0, 69, 113
1, 41631, Note_on_c, 0, 68, 123
1, 41725, Note_off_c, 0, 68, 123
1, 41809, Note_on_c, 0, 67, 116
1, 41907, Note_off_c, 0, 67, 116
1, 41983, Note_on_c, 0, 65, 108
1, 42067, Note_off_c, 0, 65, 108
1, 42082, Note_on_c, 0, 63, 93
1, 42160, Note_off_c, 0, 63, 93
1, 42265, Note_on_c, 0, 68, 119
1, 42364, Note_off_c, 0, 68, 119
1, 42394, Note_on_c, 0, 68, 105
1, 42488, Note_off_c, 0, 68, 105
1, 42498, Note_on_c, 0, 63, 90
1, 42551, Note_off_c, 0, 63, 90
1, 42561, Note_on_c, 0, 68, 89
1, 42583, Note_off_c, 0, 68, 89
1, 42593, Note_on_c, 0, 64, 81
1, 42622, Note_off_c, 0, 64, 81
1, 42638, Note_on_c, 0, 70, 117
1, 42715, Note_off_c, 0, 70, 117
1, 42829, Note_on_c, 0, 68, 103
1, 42907, Note_off_c, 0, 68, 103
1, 42908, Note_on_c, 0, 67, 96
1, 42933, Note_off_c, 0, 67, 96
1, 43020, Note_on_c, 0, 72, 116
1, 43132, Note_off_c, 0, 72, 116
1, 43161, Note_on_c, 0, 72, 111
1, 43219, Note_off_c, 0, 72, 111
1, 43241, Note_on_c, 0, 70, 100
1, 43386, Note_off_c, 0, 70, 100
1, 43416, Note_on_c, 0, 75, 114
1, 43494, Note_off_c, 0, 75, 114
1, 43551, Note_on_c, 0, 71, 116
1, 43603, Note_off_c, 0, 71, 116
1, 43814, Note_on_c, 0, 70, 116
1, 43892, Note_off_c, 0, 70, 116
1, 43918, Note_on_c, 0, 68, 119
1, 43993, Note_off_c, 0, 68, 119
1, 44009, Note_on_c, 0, 67, 109
1, 44075, Note_off_c, 0, 67, 109
1, 44094, Note_on_c, 0, 70, 116
1, 44151, Note_off_c, 0, 70, 116
1, 44170, Note_on_c, 0, 68, 104
1, 44206, Note_off_c, 0, 68, 104
1, 44218, Note_on_c, 0, 70, 102
1, 44239, Note_off_c, 0, 70, 102
1, 44258, Note_on_c, 0, 68, 106
1, 44300, Note_off_c, 0, 68, 106
1, 44315, Note_on_c, 0, 66, 98
1, 44351, Note_off_c, 0, 66, 98
1, 44362, Note_on_c, 0, 65, 111
1, 44474, Note_off_c, 0, 65, 111
1, 44480, Note_on_c, 0, 62, 84
1, 44555, Note_off_c, 0, 62, 84
1, 44572, Note_on_c, 0, 63, 95
1, 44647, Note_off_c, 0, 63, 95
1, 44666, Note_on_c, 0, 65, 114
1, 44737, Note_off_c, 0, 65, 114
1, 44751, Note_on_c, 0, 61, 103
1, 44813, Note_off_c, 0, 61, 103
1, 44850, Note_on_c, 0, 59, 103
1, 44989, Note_off_c, 0, 59, 103
1, 45064, Note_on_c, 0, 61, 112
1, 45130, Note_off_c, 0, 61, 112
1, 45244, Note_on_c, 0, 58, 99
1, 45322, Note_off_c, 0, 58, 99
1, 45348, Note_on_c, 0, 61, 93
1, 45412, Note_off_c, 0, 61, 93
1, 45434, Note_on_c, 0, 65, 97
1, 45490, Note_off_c, 0, 65, 97
1, 45518, Note_on_c, 0, 68, 116
1, 45670, Note_off_c, 0, 68, 116
1, 45713, Note_on_c, 0, 66, 89
1, 45816, Note_off_c, 0, 66, 89
1, 45821, Note_on_c, 0, 68, 85
1, 45888, Note_off_c, 0, 68, 85
1, 45898, Note_on_c, 0, 70, 107
1, 45990, Note_off_c, 0, 70, 107
1, 46009, Note_on_c, 0, 73, 120
1, 46101, Note_off_c, 0, 73, 120
1, 46592, Note_on_c, 0, 69, 108
1, 46620, Note_off_c, 0, 69, 108
1, 46636, Note_on_c, 0, 71, 119
1, 46666, Note_off_c, 0, 71, 119
1, 46678, Note_on_c, 0, 72, 120
1, 46828, Note_off_c, 0, 72, 120
1, 46845, Note_on_c, 0, 68, 123
1, 46906, Note_off_c, 0, 68, 123
1, 46916, Note_on_c, 0, 70, 107
1, 46946, Note_off_c, 0, 70, 107
1, 46957, Note_on_c, 0, 68, 121
1, 47000, Note_off_c, 0, 68, 121
1, 47012, Note_on_c, 0, 65, 112
1, 47060, Note_off_c, 0, 65, 112
1, 47079, Note_on_c, 0, 64, 105
1, 47142, Note_off_c, 0, 64, 105
1, 47173, Note_on_c, 0, 60, 103
1, 47221, Note_off_c, 0, 60, 103
1, 47238, Note_on_c, 0, 67, 117
1, 47277, Note_off_c, 0, 67, 117
1, 47285, Note_on_c, 0, 69, 109
1, 47318, Note_off_c, 0, 69, 109
1, 47326, Note_on_c, 0, 67, 108
1, 47390, Note_off_c, 0, 67, 108
1, 47420, Note_on_c, 0, 65, 110
1, 47548, Note_off_c, 0, 65, 110
1, 47555, Note_on_c, 0, 60, 106
1, 47605, Note_off_c, 0, 60, 106
1, 47624, Note_on_c, 0, 63, 101
1, 47705, Note_off_c, 0, 63, 101
1, 47724, Note_on_c, 0, 68, 118
1, 47783, Note_off_c, 0, 68, 118
1, 47821, Note_on_c, 0, 62, 103
1, 47870, Note_off_c, 0, 62, 103
1, 47915, Note_on_c, 0, 70, 104
1, 47935, Note_off_c, 0, 70, 104
1, 47941, Note_on_c, 0, 71, 116
1, 47975, Note_off_c, 0, 71, 116
1, 47978, Note_on_c, 0, 72, 115
1, 48050, Note_off_c, 0, 72, 115
1, 48122, Note_on_c, 0, 70, 104
1, 48509, Note_off_c, 0, 70, 104
1, 48753, Note_on_c, 0, 72, 119
1, 48854, Note_off_c, 0, 72, 119
1, 48950, Note_on_c, 0, 70, 111
1, 49045, Note_off_c, 0, 70, 111
1, 49125, Note_on_c, 0, 67, 110
1, 49240, Note_off_c, 0, 67, 110
1, 49338, Note_on_c, 0, 63, 99
1, 49455, Note_off_c, 0, 63, 99
1, 49488, Note_on_c, 0, 60, 106
1, 49540, Note_off_c, 0, 60, 106
1, 49636, Note_on_c, 0, 58, 100
1, 49898, Note_off_c, 0, 58, 100
1, 50287, Note_on_c, 0, 73, 125
1, 50369, Note_off_c, 0, 73, 125
1, 50477, Note_on_c, 0, 70, 116
1, 50547, Note_off_c, 0, 70, 116
1, 50680, Note_on_c, 0, 66, 105
1, 50794, Note_off_c, 0, 66, 105
1, 50857, Note_on_c, 0, 63, 105
1, 50934, Note_off_c, 0, 63, 105
1, 51002, Note_on_c, 0, 58, 102
1, 51044, Note_off_c, 0, 58, 102
1, 51064, Note_on_c, 0, 61, 108
1, 51168, Note_off_c, 0, 61, 108
1, 51189, Note_on_c, 0, 60, 100
1, 51557, Note_off_c, 0, 60, 100
1, 51819, Note_on_c, 0, 72, 122
1, 51883, Note_off_c, 0, 72, 122
1, 52015, Note_on_c, 0, 69, 112
1, 52143, Note_off_c, 0, 69, 112
1, 52157, Note_on_c, 0, 67, 104
1, 52188, Note_off_c, 0, 67, 104
1, 52202, Note_on_c, 0, 65, 110
1, 52237, Note_off_c, 0, 65, 110
1, 52265, Note_on_c, 0, 61, 96
1, 52345, Note_off_c, 0, 61, 96
1, 52388, Note_on_c, 0, 68, 115
1, 52571, Note_off_c, 0, 68, 115
1, 52577, Note_on_c, 0, 64, 109
1, 52653, Note_off_c, 0, 64, 109
1, 52716, Note_on_c, 0, 67, 111
1, 52811, Note_off_c, 0, 67, 111
1, 52823, Note_on_c, 0, 64, 99
1, 52879, Note_off_c, 0, 64, 99
1, 52895, Note_on_c, 0, 65, 118
1, 52962, Note_off_c, 0, 65, 118
1, 52986, Note_on_c, 0, 69, 116
1, 53076, Note_off_c, 0, 69, 116
1, 53095, Note_on_c, 0, 72, 107
1, 53152, Note_off_c, 0, 72, 107
1, 53173, Note_on_c, 0, 74, 114
1, 53240, Note_off_c, 0, 74, 114
1, 53255, Note_on_c, 0, 76, 108
1, 53270, Note_off_c, 0, 76, 108
1, 53280, Note_on_c, 0, 77, 117
1, 53314, Note_off_c, 0, 77, 117
1, 53322, Note_on_c, 0, 78, 118
1, 53352, Note_off_c, 0, 78, 118
1, 53360, Note_on_c, 0, 79, 107
1, 53458, Note_off_c, 0, 79, 107
1, 53480, Note_on_c, 0, 77, 108
1, 53707, Note_off_c, 0, 77, 108
1, 53729, Note_on_c, 0, 75, 110
1, 53820, Note_off_c, 0, 75, 110
1, 53844, Note_on_c, 0, 71, 114
1, 53939, Note_off_c, 0, 71, 114
1, 53965, Note_on_c, 0, 70, 105
1, 54019, Note_off_c, 0, 70, 105
1, 54038, Note_on_c, 0, 68, 114
1, 54116, Note_off_c, 0, 68, 114
1, 54142, Note_on_c, 0, 63, 100
1, 54218, Note_off_c, 0, 63, 100
1, 54234, Note_on_c, 0, 58, 105
1, 54286, Note_off_c, 0, 58, 105
1, 54308, Note_on_c, 0, 67, 117
1, 54379, Note_off_c, 0, 67, 117
1, 54428, Note_on_c, 0, 63, 101
1, 54468, Note_off_c, 0, 63, 101
1, 54502, Note_on_c, 0, 67, 119
1, 54582, Note_off_c, 0, 67, 119
1, 54683, Note_on_c, 0, 67, 114
1, 54828, Note_off_c, 0, 67, 114
1, 54830, Note_on_c, 0, 68, 113
1, 54905, Note_off_c, 0, 68, 113
1, 55003, Note_on_c, 0, 70, 116
1, 55098, Note_off_c, 0, 70, 116
1, 55462, Note_on_c, 0, 68, 120
1, 55571, Note_off_c, 0, 68, 120
1, 55582, Note_on_c, 0, 67, 112
1, 55640, Note_off_c, 0, 67, 112
1, 55666, Note_on_c, 0, 64, 102
1, 55737, Note_off_c, 0, 64, 102
1, 55770, Note_on_c, 0, 67, 116
1, 55852, Note_off_c, 0, 67, 116
1, 55880, Note_on_c, 0, 65, 112
1, 56147, Note_off_c, 0, 65, 112
1, 56163, Note_on_c, 0, 66, 107
1, 56198, Note_off_c, 0, 66, 107
1, 56237, Note_on_c, 0, 68, 120
1, 56368, Note_off_c, 0, 68, 120
1, 56384, Note_on_c, 0, 71, 114
1, 56441, Note_off_c, 0, 71, 114
1, 56446, Note_on_c, 0, 72, 114
1, 56538, Note_off_c, 0, 72, 114
1, 56576, Note_on_c, 0, 75, 106
1, 56686, Note_off_c, 0, 75, 106
1, 56710, Note_on_c, 0, 75, 97
1, 57127, Note_off_c, 0, 75, 97
1, 57127, End_track
0, 0, End_of_file
