0, 0, Header, 1, 1, 192
1, 0, Start_track
1, 0, Title_t, "Melody"
1, 0, Tempo, 342857
1, 0, Key_signature, -1, "major"
1, 0, Time_signature, 3, 2, 24, 8
1, 1670, Note_on_c, 0, 60, 99
1, 1800, Note_off_c, 0, 60, 99
1, 1800, Note_on_c, 0, 62, 99
1, 1839, Note_off_c, 0, 62, 99
1, 1855, Note_on_c, 0, 65, 107
1, 1972, Note_off_c, 0, 65, 107
1, 1972, Note_on_c, 0, 67, 110
1, 2046, Note_off_c, 0, 67, 110
1, 2046, Note_on_c, 0, 68, 109
1, 2202, Note_off_c, 0, 68, 109
1, 2244, Note_on_c, 0, 65, 100
1, 2374, Note_off_c, 0, 65, 100
1, 2383, Note_on_c, 0, 65, 110
1, 2431, Note_off_c, 0, 65, 110
1, 3211, Note_on_c, 0, 62, 108
1, 3347, Note_off_c, 0, 62, 108
1, 3350, Note_on_c, 0, 60, 98
1, 3395, Note_off_c, 0, 60, 98
1, 3395, Note_on_c, 0, 65, 102
1, 3528, Note_off_c, 0, 65, 102
1, 3537, Note_on_c, 0, 65, 100
1, 3589, Note_off_c, 0, 65, 100
1, 3911, Note_on_c, 0, 63, 105
1, 3990, Note_off_c, 0, 63, 105
1, 3990, Note_on_c, 0, 60, 97
1, 4094, Note_off_c, 0, 60, 97
1, 4121, Note_on_c, 0, 62, 94
1, 4173, Note_off_c, 0, 62, 94
1, 4186, Note_on_c, 0, 65, 107
1, 4290, Note_off_c, 0, 65, 107
1, 4294, Note_on_c, 0, 67, 103
1, 4335, Note_off_c, 0, 67, 103
1, 4363, Note_on_c, 0, 67, 117
1, 4415, Note_off_c, 0, 67, 117
1, 4418, Note_on_c, 0, 68, 108
1, 4541, Note_off_c, 0, 68, 108
1, 4558, Note_on_c, 0, 65, 91
1, 4696, Note_off_c, 0, 65, 91
1, 4713, Note_on_c, 0, 65, 98
1, 4747, Note_off_c, 0, 65, 98
1, 5344, Note_on_c, 0, 74, 109
1, 5548, Note_off_c, 0, 74, 109
1, 5548, Note_on_c, 0, 72, 106
1, 5720, Note_off_c, 0, 72, 106
1, 5731, Note_on_c, 0, 65, 86
1, 5822, Note_off_c, 0, 65, 86
1, 5857, Note_on_c, 0, 65, 104
1, 5911, Note_off_c, 0, 65, 104
1, 6233, Note_on_c, 0, 63, 108
1, 6247, Note_off_c, 0, 63, 108
1, 6253, Note_on_c, 0, 62, 99
1, 6275, Note_off_c, 0, 62, 99
1, 6294, Note_on_c, 0, 60, 94
1, 6419, Note_off_c, 0, 60, 94
1, 6425, Note_on_c, 0, 62, 97
1, 6470, Note_off_c, 0, 62, 97
1, 6492, Note_on_c, 0, 65, 102
1, 6599, Note_off_c, 0, 65, 102
1, 6608, Note_on_c, 0, 67, 106
1, 6656, Note_off_c, 0, 67, 106
1, 6678, Note_on_c, 0, 68, 107
1, 6795, Note_off_c, 0, 68, 107
1, 6795, Note_on_c, 0, 70, 101
1, 6856, Note_off_c, 0, 70, 101
1, 6865, Note_on_c, 0, 71, 106
1, 7043, Note_off_c, 0, 71, 106
1, 7052, Note_on_c, 0, 70, 104
1, 7360, Note_off_c, 0, 70, 104
1, 7398, Note_on_c, 0, 68, 103
1, 7550, Note_off_c, 0, 68, 103
1, 7641, Note_on_c, 0, 65, 103
1, 7959, Note_off_c, 0, 65, 103
1, 7972, Note_on_c, 0, 68, 103
1, 8027, Note_off_c, 0, 68, 103
1, 8043, Note_on_c, 0, 70, 100
1, 8119, Note_off_c, 0, 70, 100
1, 8119, Note_on_c, 0, 71, 99
1, 8188, Note_off_c, 0, 71, 99
1, 8196, Note_on_c, 0, 70, 103
1, 8481, Note_off_c, 0, 70, 103
1, 8482, Note_on_c, 0, 71, 88
1, 8527, Note_off_c, 0, 71, 88
1, 8530, Note_on_c, 0, 67, 106
1, 8622, Note_off_c, 0, 67, 106
1, 8624, Note_on_c, 0, 68, 87
1, 8682, Note_off_c, 0, 68, 87
1, 8714, Note_on_c, 0, 65, 98
1, 8779, Note_off_c, 0, 65, 98
1, 8798, Note_on_c, 0, 62, 89
1, 8895, Note_off_c, 0, 62, 89
1, 8915, Note_on_c, 0, 60, 91
1, 8949, Note_off_c, 0, 60, 91
1, 8972, Note_on_c, 0, 65, 99
1, 9102, Note_off_c, 0, 65, 99
1, 9132, Note_on_c, 0, 68, 101
1, 9281, Note_off_c, 0, 68, 101
1, 9292, Note_on_c, 0, 68, 99
1, 9470, Note_off_c, 0, 68, 99
1, 9470, Note_on_c, 0, 69, 88
1, 9520, Note_off_c, 0, 69, 88
1, 10098, Note_on_c, 0, 62, 96
1, 10231, Note_off_c, 0, 62, 96
1, 10255, Note_on_c, 0, 60, 88
1, 10280, Note_off_c, 0, 60, 88
1, 10297, Note_on_c, 0, 65, 92
1, 10420, Note_off_c, 0, 65, 92
1, 10438, Note_on_c, 0, 65, 96
1, 10496, Note_off_c, 0, 65, 96
1, 11025, Note_on_c, 0, 58, 100
1, 11110, Note_off_c, 0, 58, 100
1, 11118, Note_on_c, 0, 61, 98
1, 11201, Note_off_c, 0, 61, 98
1, 11205, Note_on_c, 0, 62, 100
1, 11269, Note_off_c, 0, 62, 100
1, 11269, Note_on_c, 0, 63, 102
1, 11412, Note_off_c, 0, 63, 102
1, 11420, Note_on_c, 0, 64, 99
1, 11460, Note_off_c, 0, 64, 99
1, 11460, Note_on_c, 0, 65, 100
1, 11583, Note_off_c, 0, 65, 100
1, 11598, Note_on_c, 0, 68, 106
1, 11682, Note_off_c, 0, 68, 106
1, 11682, Note_on_c, 0, 67, 94
1, 11752, Note_off_c, 0, 67, 94
1, 11785, Note_on_c, 0, 65, 95
1, 11837, Note_off_c, 0, 65, 95
1, 11862, Note_on_c, 0, 70, 102
1, 11962, Note_off_c, 0, 70, 102
1, 11968, Note_on_c, 0, 69, 107
1, 12052, Note_off_c, 0, 69, 107
1, 12065, Note_on_c, 0, 68, 107
1, 12156, Note_off_c, 0, 68, 107
1, 12164, Note_on_c, 0, 72, 104
1, 12254, Note_off_c, 0, 72, 104
1, 12259, Note_on_c, 0, 67, 105
1, 12359, Note_off_c, 0, 67, 105
1, 12368, Note_on_c, 0, 65, 95
1, 12428, Note_off_c, 0, 65, 95
1, 12439, Note_on_c, 0, 66, 108
1, 12556, Note_off_c, 0, 66, 108
1, 12556, Note_on_c, 0, 69, 111
1, 12660, Note_off_c, 0, 69, 111
1, 12720, Note_on_c, 0, 61, 95
1, 12798, Note_off_c, 0, 61, 95
1, 12835, Note_on_c, 0, 67, 102
1, 12939, Note_off_c, 0, 67, 102
1, 12943, Note_on_c, 0, 65, 92
1, 13008, Note_off_c, 0, 65, 92
1, 13016, Note_on_c, 0, 66, 106
1, 13129, Note_off_c, 0, 66, 106
1, 13129, Note_on_c, 0, 64, 98
1, 13210, Note_off_c, 0, 64, 98
1, 13210, Note_on_c, 0, 63, 98
1, 13314, Note_off_c, 0, 63, 98
1, 13384, Note_on_c, 0, 62, 97
1, 13501, Note_off_c, 0, 62, 97
1, 13521, Note_on_c, 0, 58, 99
1, 13546, Note_off_c, 0, 58, 99
1, 13546, Note_on_c, 0, 59, 103
1, 13569, Note_off_c, 0, 59, 103
1, 13573, Note_on_c, 0, 61, 105
1, 13697, Note_off_c, 0, 61, 105
1, 13776, Note_on_c, 0, 68, 110
1, 13896, Note_off_c, 0, 68, 110
1, 13912, Note_on_c, 0, 66, 101
1, 13990, Note_off_c, 0, 66, 101
1, 13992, Note_on_c, 0, 61, 97
1, 14110, Note_off_c, 0, 61, 97
1, 14121, Note_on_c, 0, 58, 98
1, 14155, Note_off_c, 0, 58, 98
1, 14169, Note_on_c, 0, 65, 106
1, 14266, Note_off_c, 0, 65, 106
1, 14292, Note_on_c, 0, 64, 98
1, 14357, Note_off_c, 0, 64, 98
1, 14357, Note_on_c, 0, 63, 97
1, 14477, Note_off_c, 0, 63, 97
1, 14486, Note_on_c, 0, 60, 102
1, 14540, Note_off_c, 0, 60, 102
1, 14547, Note_on_c, 0, 61, 100
1, 14677, Note_off_c, 0, 61, 100
1, 14685, Note_on_c, 0, 59, 99
1, 14711, Note_off_c, 0, 59, 99
1, 14714, Note_on_c, 0, 58, 103
1, 14744, Note_off_c, 0, 58, 103
1, 14764, Note_on_c, 0, 60, 95
1, 14858, Note_off_c, 0, 60, 95
1, 14864, Note_on_c, 0, 66, 109
1, 14942, Note_off_c, 0, 66, 109
1, 14945, Note_on_c, 0, 67, 102
1, 15042, Note_off_c, 0, 67, 102
1, 15042, Note_on_c, 0, 67, 103
1, 15054, Note_off_c, 0, 67, 103
1, 15054, Note_on_c, 0, 65, 99
1, 15109, Note_off_c, 0, 65, 99
1, 15117, Note_on_c, 0, 60, 93
1, 15235, Note_off_c, 0, 60, 93
1, 15256, Note_on_c, 0, 57, 91
1, 15308, Note_off_c, 0, 57, 91
1, 15315, Note_on_c, 0, 63, 99
1, 15367, Note_off_c, 0, 63, 99
1, 15369, Note_on_c, 0, 64, 94
1, 15503, Note_off_c, 0, 64, 94
1, 15509, Note_on_c, 0, 62, 90
1, 15574, Note_off_c, 0, 62, 90
1, 15574, Note_on_c, 0, 62, 89
1, 15609, Note_off_c, 0, 62, 89
1, 16021, Note_on_c, 0, 66, 105
1, 16034, Note_off_c, 0, 66, 105
1, 16037, Note_on_c, 0, 70, 104
1, 16206, Note_off_c, 0, 70, 104
1, 16212, Note_on_c, 0, 67, 109
1, 16286, Note_off_c, 0, 67, 109
1, 16286, Note_on_c, 0, 68, 112
1, 16386, Note_off_c, 0, 68, 112
1, 16395, Note_on_c, 0, 70, 105
1, 16463, Note_off_c, 0, 70, 105
1, 16482, Note_on_c, 0, 72, 105
1, 16586, Note_off_c, 0, 72, 105
1, 16586, Note_on_c, 0, 74, 104
1, 16654, Note_off_c, 0, 74, 104
1, 16670, Note_on_c, 0, 75, 106
1, 16761, Note_off_c, 0, 75, 106
1, 16783, Note_on_c, 0, 78, 102
1, 16867, Note_off_c, 0, 78, 102
1, 16867, Note_on_c, 0, 77, 96
1, 16967, Note_off_c, 0, 77, 96
1, 16973, Note_on_c, 0, 75, 105
1, 17051, Note_off_c, 0, 75, 105
1, 17067, Note_on_c, 0, 74, 103
1, 17148, Note_off_c, 0, 74, 103
1, 17154, Note_on_c, 0, 77, 97
1, 17289, Note_off_c, 0, 77, 97
1, 17289, Note_on_c, 0, 76, 92
1, 17337, Note_off_c, 0, 76, 92
1, 17338, Note_on_c, 0, 74, 107
1, 17435, Note_off_c, 0, 74, 107
1, 17456, Note_on_c, 0, 74, 92
1, 17547, Note_off_c, 0, 74, 92
1, 17547, Note_on_c, 0, 68, 115
1, 17598, Note_off_c, 0, 68, 115
1, 17609, Note_on_c, 0, 65, 96
1, 17683, Note_off_c, 0, 65, 96
1, 17697, Note_on_c, 0, 62, 95
1, 17817, Note_off_c, 0, 62, 95
1, 18007, Note_on_c, 0, 60, 95
1, 18124, Note_off_c, 0, 60, 95
1, 18128, Note_on_c, 0, 57, 93
1, 18185, Note_on_c, 0, 58, 97
1, 18185, Note_off_c, 0, 57, 93
1, 18274, Note_off_c, 0, 58, 97
1, 18300, Note_on_c, 0, 55, 95
1, 18377, Note_off_c, 0, 55, 95
1, 18378, Note_on_c, 0, 53, 101
1, 18448, Note_off_c, 0, 53, 101
1, 18494, Note_on_c, 0, 53, 94
1, 18569, Note_off_c, 0, 53, 94
1, 18788, Note_on_c, 0, 57, 107
1, 18892, Note_off_c, 0, 57, 107
1, 18952, Note_on_c, 0, 60, 98
1, 19085, Note_off_c, 0, 60, 98
1, 19104, Note_on_c, 0, 60, 102
1, 19162, Note_off_c, 0, 60, 102
1, 19371, Note_on_c, 0, 62, 100
1, 19510, Note_off_c, 0, 62, 100
1, 19555, Note_on_c, 0, 65, 96
1, 19678, Note_off_c, 0, 65, 96
1, 19690, Note_on_c, 0, 65, 99
1, 19729, Note_off_c, 0, 65, 99
1, 19953, Note_on_c, 0, 69, 112
1, 20092, Note_off_c, 0, 69, 112
1, 20121, Note_on_c, 0, 71, 109
1, 20157, Note_off_c, 0, 71, 109
1, 20164, Note_on_c, 0, 72, 107
1, 20253, Note_off_c, 0, 72, 107
1, 20262, Note_on_c, 0, 72, 98
1, 20327, Note_off_c, 0, 72, 98
1, 20525, Note_on_c, 0, 72, 100
1, 20538, Note_off_c, 0, 72, 100
1, 20541, Note_on_c, 0, 74, 106
1, 20654, Note_off_c, 0, 74, 106
1, 20654, Note_on_c, 0, 74, 105
1, 20706, Note_off_c, 0, 74, 105
1, 20706, Note_on_c, 0, 75, 105
1, 20897, Note_off_c, 0, 75, 105
1, 20922, Note_on_c, 0, 74, 105
1, 21110, Note_off_c, 0, 74, 105
1, 21110, Note_on_c, 0, 72, 104
1, 21295, Note_off_c, 0, 72, 104
1, 21298, Note_on_c, 0, 68, 109
1, 21344, Note_off_c, 0, 68, 109
1, 21344, Note_on_c, 0, 69, 108
1, 21360, Note_off_c, 0, 69, 108
1, 21360, Note_on_c, 0, 70, 102
1, 21482, Note_off_c, 0, 70, 102
1, 21492, Note_on_c, 0, 69, 108
1, 21625, Note_off_c, 0, 69, 108
1, 21630, Note_on_c, 0, 65, 99
1, 21689, Note_off_c, 0, 65, 99
1, 21700, Note_on_c, 0, 60, 98
1, 21750, Note_off_c, 0, 60, 98
1, 21803, Note_on_c, 0, 55, 104
1, 21876, Note_off_c, 0, 55, 104
1, 21898, Note_on_c, 0, 58, 94
1, 21980, Note_off_c, 0, 58, 94
1, 22014, Note_on_c, 0, 60, 105
1, 22062, Note_off_c, 0, 60, 105
1, 22065, Note_on_c, 0, 57, 94
1, 22183, Note_off_c, 0, 57, 94
1, 22207, Note_on_c, 0, 60, 98
1, 22278, Note_off_c, 0, 60, 98
1, 22278, Note_on_c, 0, 64, 91
1, 22388, Note_off_c, 0, 64, 91
1, 22388, Note_on_c, 0, 67, 102
1, 22469, Note_off_c, 0, 67, 102
1, 22476, Note_on_c, 0, 64, 88
1, 22504, Note_off_c, 0, 64, 88
1, 22510, Note_on_c, 0, 65, 92
1, 22571, Note_off_c, 0, 65, 92
1, 22571, Note_on_c, 0, 69, 100
1, 22636, Note_off_c, 0, 69, 100
1, 22636, Note_on_c, 0, 72, 95
1, 22665, Note_off_c, 0, 72, 95
1, 22665, Note_on_c, 0, 76, 90
1, 22782, Note_off_c, 0, 76, 90
1, 22782, Note_on_c, 0, 78, 93
1, 22869, Note_off_c, 0, 78, 93
1, 22881, Note_on_c, 0, 79, 95
1, 22978, Note_off_c, 0, 79, 95
1, 22987, Note_on_c, 0, 78, 93
1, 23058, Note_off_c, 0, 78, 93
1, 23058, Note_on_c, 0, 77, 95
1, 23158, Note_off_c, 0, 77, 95
1, 23164, Note_on_c, 0, 76, 98
1, 23225, Note_off_c, 0, 76, 98
1, 23247, Note_on_c, 0, 74, 102
1, 23347, Note_off_c, 0, 74, 102
1, 23348, Note_on_c, 0, 72, 106
1, 23365, Note_off_c, 0, 72, 106
1, 23365, Note_on_c, 0, 73, 100
1, 23407, Note_off_c, 0, 73, 100
1, 23408, Note_on_c, 0, 72, 98
1, 23524, Note_off_c, 0, 72, 98
1, 23531, Note_on_c, 0, 70, 102
1, 23563, Note_off_c, 0, 70, 102
1, 23563, Note_on_c, 0, 71, 99
1, 23612, Note_off_c, 0, 71, 99
1, 23615, Note_on_c, 0, 70, 95
1, 23697, Note_off_c, 0, 70, 95
1, 23699, Note_on_c, 0, 69, 102
1, 23793, Note_off_c, 0, 69, 102
1, 23809, Note_on_c, 0, 67, 89
1, 23833, Note_off_c, 0, 67, 89
1, 23851, Note_on_c, 0, 69, 100
1, 23880, Note_off_c, 0, 69, 100
1, 23898, Note_on_c, 0, 67, 95
1, 23922, Note_off_c, 0, 67, 95
1, 23931, Note_on_c, 0, 66, 80
1, 23935, Note_off_c, 0, 66, 80
1, 23935, Note_on_c, 0, 66, 105
1, 23952, Note_off_c, 0, 66, 105
1, 23981, Note_on_c, 0, 65, 96
1, 24091, Note_off_c, 0, 65, 96
1, 24117, Note_on_c, 0, 64, 95
1, 24175, Note_off_c, 0, 64, 95
1, 24175, Note_on_c, 0, 63, 93
1, 24295, Note_off_c, 0, 63, 93
1, 24542, Note_on_c, 0, 59, 101
1, 24555, Note_off_c, 0, 59, 101
1, 24558, Note_on_c, 0, 62, 102
1, 24730, Note_off_c, 0, 62, 102
1, 24747, Note_on_c, 0, 60, 100
1, 24773, Note_off_c, 0, 60, 100
1, 24773, Note_on_c, 0, 62, 103
1, 24807, Note_off_c, 0, 62, 103
1, 24817, Note_on_c, 0, 60, 101
1, 24854, Note_off_c, 0, 60, 101
1, 24865, Note_on_c, 0, 57, 99
1, 24885, Note_off_c, 0, 57, 99
1, 24902, Note_on_c, 0, 54, 96
1, 25059, Note_off_c, 0, 54, 96
1, 25067, Note_on_c, 0, 53, 96
1, 25195, Note_off_c, 0, 53, 96
1, 25253, Note_on_c, 0, 51, 102
1, 25331, Note_off_c, 0, 51, 102
1, 25339, Note_on_c, 0, 50, 98
1, 25451, Note_off_c, 0, 50, 98
1, 25502, Note_on_c, 0, 58, 97
1, 25690, Note_off_c, 0, 58, 97
1, 26075, Note_on_c, 0, 58, 97
1, 26143, Note_off_c, 0, 58, 97
1, 26183, Note_on_c, 0, 62, 101
1, 26248, Note_off_c, 0, 62, 101
1, 26256, Note_on_c, 0, 57, 91
1, 26354, Note_off_c, 0, 57, 91
1, 26368, Note_on_c, 0, 60, 102
1, 26459, Note_off_c, 0, 60, 102
1, 26460, Note_on_c, 0, 63, 94
1, 26551, Note_off_c, 0, 63, 94
1, 26561, Note_on_c, 0, 64, 104
1, 26573, Note_off_c, 0, 64, 104
1, 26573, Note_on_c, 0, 66, 105
1, 26677, Note_off_c, 0, 66, 105
1, 26679, Note_on_c, 0, 65, 90
1, 26726, Note_off_c, 0, 65, 90
1, 26760, Note_on_c, 0, 63, 96
1, 26818, Note_off_c, 0, 63, 96
1, 26834, Note_on_c, 0, 62, 85
1, 26934, Note_off_c, 0, 62, 85
1, 26958, Note_on_c, 0, 65, 89
1, 26984, Note_off_c, 0, 65, 89
1, 26989, Note_on_c, 0, 70, 102
1, 27122, Note_off_c, 0, 70, 102
1, 27133, Note_on_c, 0, 70, 98
1, 27191, Note_off_c, 0, 70, 98
1, 27384, Note_on_c, 0, 68, 105
1, 27530, Note_off_c, 0, 68, 105
1, 27569, Note_on_c, 0, 65, 95
1, 27676, Note_off_c, 0, 65, 95
1, 27676, Note_on_c, 0, 65, 96
1, 27744, Note_off_c, 0, 65, 96
1, 27770, Note_on_c, 0, 68, 101
1, 27786, Note_off_c, 0, 68, 101
1, 27789, Note_on_c, 0, 72, 90
1, 27876, Note_off_c, 0, 72, 90
1, 27884, Note_on_c, 0, 75, 103
1, 27921, Note_off_c, 0, 75, 103
1, 27928, Note_on_c, 0, 76, 89
1, 27957, Note_off_c, 0, 76, 89
1, 27961, Note_on_c, 0, 72, 96
1, 27989, Note_off_c, 0, 72, 96
1, 27994, Note_on_c, 0, 71, 103
1, 28016, Note_off_c, 0, 71, 103
1, 28016, Note_on_c, 0, 70, 102
1, 28041, Note_off_c, 0, 70, 102
1, 28043, Note_on_c, 0, 69, 104
1, 28070, Note_off_c, 0, 69, 104
1, 28084, Note_on_c, 0, 68, 100
1, 28126, Note_off_c, 0, 68, 100
1, 28132, Note_on_c, 0, 65, 96
1, 28242, Note_off_c, 0, 65, 96
1, 28276, Note_on_c, 0, 70, 103
1, 28354, Note_off_c, 0, 70, 103
1, 28363, Note_on_c, 0, 69, 100
1, 28470, Note_off_c, 0, 69, 100
1, 28470, Note_on_c, 0, 67, 95
1, 28493, Note_off_c, 0, 67, 95
1, 28493, Note_on_c, 0, 68, 105
1, 28650, Note_off_c, 0, 68, 105
1, 28656, Note_on_c, 0, 65, 97
1, 28721, Note_off_c, 0, 65, 97
1, 28726, Note_on_c, 0, 61, 101
1, 28841, Note_off_c, 0, 61, 101
1, 28851, Note_on_c, 0, 58, 96
1, 28894, Note_off_c, 0, 58, 96
1, 28900, Note_on_c, 0, 60, 97
1, 29014, Note_off_c, 0, 60, 97
1, 29035, Note_on_c, 0, 58, 98
1, 29103, Note_off_c, 0, 58, 98
1, 29112, Note_on_c, 0, 57, 91
1, 29272, Note_off_c, 0, 57, 91
1, 29281, Note_on_c, 0, 65, 97
1, 29427, Note_off_c, 0, 65, 97
1, 29672, Note_on_c, 0, 58, 103
1, 29776, Note_off_c, 0, 58, 103
1, 29843, Note_on_c, 0, 62, 94
1, 29956, Note_off_c, 0, 62, 94
1, 29992, Note_on_c, 0, 65, 93
1, 30050, Note_off_c, 0, 65, 93
1, 30059, Note_on_c, 0, 70, 106
1, 30159, Note_off_c, 0, 70, 106
1, 30159, Note_on_c, 0, 69, 99
1, 30224, Note_off_c, 0, 69, 99
1, 30234, Note_on_c, 0, 72, 109
1, 30336, Note_off_c, 0, 72, 109
1, 30336, Note_on_c, 0, 70, 103
1, 30417, Note_off_c, 0, 70, 103
1, 30430, Note_on_c, 0, 69, 107
1, 30527, Note_off_c, 0, 69, 107
1, 30528, Note_on_c, 0, 67, 104
1, 30599, Note_off_c, 0, 67, 104
1, 30621, Note_on_c, 0, 65, 98
1, 30725, Note_off_c, 0, 65, 98
1, 30737, Note_on_c, 0, 63, 101
1, 30805, Note_off_c, 0, 63, 101
1, 30808, Note_on_c, 0, 62, 96
1, 30905, Note_off_c, 0, 62, 96
1, 30924, Note_on_c, 0, 60, 95
1, 30990, Note_on_c, 0, 61, 95
1, 30990, Note_off_c, 0, 60, 95
1, 31094, Note_off_c, 0, 61, 95
1, 31113, Note_on_c, 0, 57, 99
1, 31161, Note_off_c, 0, 57, 99
1, 31191, Note_on_c, 0, 69, 109
1, 31308, Note_off_c, 0, 69, 109
1, 31684, Note_on_c, 0, 67, 113
1, 31724, Note_off_c, 0, 67, 113
1, 31730, Note_on_c, 0, 69, 111
1, 31755, Note_off_c, 0, 69, 111
1, 31761, Note_on_c, 0, 70, 103
1, 31781, Note_off_c, 0, 70, 103
1, 31785, Note_on_c, 0, 69, 102
1, 31807, Note_off_c, 0, 69, 102
1, 31822, Note_on_c, 0, 67, 107
1, 31843, Note_off_c, 0, 67, 107
1, 31846, Note_on_c, 0, 63, 98
1, 31869, Note_off_c, 0, 63, 98
1, 31874, Note_on_c, 0, 60, 91
1, 31889, Note_off_c, 0, 60, 91
1, 31892, Note_on_c, 0, 58, 104
1, 31908, Note_off_c, 0, 58, 104
1, 31917, Note_on_c, 0, 57, 103
1, 31934, Note_off_c, 0, 57, 103
1, 31937, Note_on_c, 0, 55, 103
1, 31947, Note_off_c, 0, 55, 103
1, 31956, Note_on_c, 0, 62, 96
1, 32069, Note_off_c, 0, 62, 96
1, 32069, Note_on_c, 0, 60, 97
1, 32109, Note_off_c, 0, 60, 97
1, 32122, Note_on_c, 0, 61, 99
1, 32350, Note_off_c, 0, 61, 99
1, 32353, Note_on_c, 0, 60, 99
1, 32457, Note_off_c, 0, 60, 99
1, 32535, Note_on_c, 0, 72, 108
1, 32912, Note_off_c, 0, 72, 108
1, 32924, Note_on_c, 0, 75, 107
1, 33031, Note_off_c, 0, 75, 107
1, 33044, Note_on_c, 0, 73, 103
1, 33112, Note_off_c, 0, 73, 103
1, 33112, Note_on_c, 0, 72, 106
1, 33232, Note_on_c, 0, 74, 9
1, 33232, Note_off_c, 0, 72, 106
1, 33485, Note_off_c, 0, 74, 9
1, 33498, Note_on_c, 0, 72, 101
1, 33611, Note_off_c, 0, 72, 101
1, 33611, Note_on_c, 0, 74, 99
1, 33672, Note_off_c, 0, 74, 99
1, 33678, Note_on_c, 0, 71, 98
1, 33869, Note_off_c, 0, 71, 98
1, 33886, Note_on_c, 0, 69, 96
1, 34132, Note_off_c, 0, 69, 96
1, 34258, Note_on_c, 0, 68, 106
1, 34394, Note_off_c, 0, 68, 106
1, 34448, Note_on_c, 0, 70, 108
1, 34494, Note_off_c, 0, 70, 108
1, 34497, Note_on_c, 0, 72, 100
1, 34548, Note_off_c, 0, 72, 100
1, 34550, Note_on_c, 0, 75, 97
1, 34617, Note_off_c, 0, 75, 97
1, 34624, Note_on_c, 0, 72, 100
1, 34643, Note_off_c, 0, 72, 100
1, 34643, Note_on_c, 0, 71, 105
1, 34689, Note_off_c, 0, 71, 105
1, 34689, Note_on_c, 0, 70, 105
1, 34768, Note_off_c, 0, 70, 105
1, 34769, Note_on_c, 0, 69, 110
1, 34805, Note_off_c, 0, 69, 110
1, 34813, Note_on_c, 0, 70, 96
1, 34831, Note_off_c, 0, 70, 96
1, 34841, Note_on_c, 0, 68, 105
1, 34938, Note_off_c, 0, 68, 105
1, 34967, Note_on_c, 0, 66, 108
1, 35035, Note_off_c, 0, 66, 108
1, 35035, Note_on_c, 0, 63, 95
1, 35131, Note_off_c, 0, 63, 95
1, 35143, Note_on_c, 0, 58, 92
1, 35183, Note_off_c, 0, 58, 92
1, 35205, Note_on_c, 0, 61, 100
1, 35309, Note_off_c, 0, 61, 100
1, 35321, Note_on_c, 0, 59, 98
1, 35383, Note_off_c, 0, 59, 98
1, 35398, Note_on_c, 0, 60, 93
1, 35479, Note_off_c, 0, 60, 93
1, 35513, Note_on_c, 0, 66, 105
1, 35552, Note_off_c, 0, 66, 105
1, 35556, Note_on_c, 0, 65, 107
1, 35582, Note_off_c, 0, 65, 107
1, 35583, Note_on_c, 0, 67, 100
1, 35716, Note_off_c, 0, 67, 100
1, 35768, Note_on_c, 0, 71, 105
1, 35885, Note_off_c, 0, 71, 105
1, 35885, Note_on_c, 0, 71, 106
1, 35963, Note_off_c, 0, 71, 106
1, 35966, Note_on_c, 0, 67, 102
1, 36154, Note_off_c, 0, 67, 102
1, 36160, Note_on_c, 0, 66, 104
1, 36286, Note_off_c, 0, 66, 104
1, 36347, Note_on_c, 0, 70, 101
1, 36454, Note_off_c, 0, 70, 101
1, 36454, Note_on_c, 0, 70, 99
1, 36535, Note_off_c, 0, 70, 99
1, 36535, Note_on_c, 0, 66, 102
1, 36665, Note_off_c, 0, 66, 102
1, 36723, Note_on_c, 0, 65, 98
1, 36846, Note_off_c, 0, 65, 98
1, 36846, Note_on_c, 0, 65, 98
1, 36891, Note_off_c, 0, 65, 98
1, 37079, Note_on_c, 0, 67, 99
1, 37118, Note_off_c, 0, 67, 99
1, 37118, Note_on_c, 0, 69, 109
1, 37231, Note_off_c, 0, 69, 109
1, 37292, Note_on_c, 0, 65, 94
1, 37474, Note_off_c, 0, 65, 94
1, 37690, Note_on_c, 0, 70, 108
1, 37754, Note_off_c, 0, 70, 108
1, 37754, Note_on_c, 0, 69, 102
1, 37797, Note_off_c, 0, 69, 102
1, 37818, Note_on_c, 0, 65, 88
1, 37861, Note_off_c, 0, 65, 88
1, 37885, Note_on_c, 0, 65, 95
1, 38011, Note_off_c, 0, 65, 95
1, 38022, Note_on_c, 0, 65, 96
1, 38070, Note_off_c, 0, 65, 96
1, 38378, Note_on_c, 0, 65, 100
1, 38446, Note_off_c, 0, 65, 100
1, 38462, Note_on_c, 0, 69, 109
1, 38582, Note_off_c, 0, 69, 109
1, 38585, Note_on_c, 0, 65, 91
1, 38636, Note_off_c, 0, 65, 91
1, 38646, Note_on_c, 0, 70, 101
1, 38779, Note_off_c, 0, 70, 101
1, 38782, Note_on_c, 0, 65, 92
1, 38812, Note_off_c, 0, 65, 92
1, 38813, Note_on_c, 0, 68, 105
1, 38843, Note_off_c, 0, 68, 105
1, 38843, Note_on_c, 0, 71, 105
1, 38925, Note_off_c, 0, 71, 105
1, 38970, Note_on_c, 0, 70, 106
1, 39012, Note_off_c, 0, 70, 106
1, 39012, Note_on_c, 0, 72, 98
1, 39115, Note_off_c, 0, 72, 98
1, 39115, Note_on_c, 0, 72, 104
1, 39128, Note_off_c, 0, 72, 104
1, 39128, Note_on_c, 0, 75, 96
1, 39713, Note_off_c, 0, 75, 96
1, 39722, Note_on_c, 0, 75, 98
1, 39780, Note_off_c, 0, 75, 98
1, 39780, Note_on_c, 0, 78, 99
1, 39858, Note_off_c, 0, 78, 99
1, 39858, Note_on_c, 0, 79, 96
1, 39958, Note_off_c, 0, 79, 96
1, 39958, Note_on_c, 0, 79, 98
1, 39974, Note_off_c, 0, 79, 98
1, 39977, Note_on_c, 0, 77, 98
1, 40142, Note_off_c, 0, 77, 98
1, 40149, Note_on_c, 0, 74, 105
1, 40214, Note_off_c, 0, 74, 105
1, 40218, Note_on_c, 0, 75, 104
1, 40334, Note_off_c, 0, 75, 104
1, 40342, Note_on_c, 0, 74, 102
1, 40540, Note_off_c, 0, 74, 102
1, 40540, Note_on_c, 0, 72, 96
1, 40725, Note_off_c, 0, 72, 96
1, 40738, Note_on_c, 0, 69, 98
1, 40799, Note_off_c, 0, 69, 98
1, 40799, Note_on_c, 0, 70, 99
1, 40925, Note_off_c, 0, 70, 99
1, 40944, Note_on_c, 0, 69, 103
1, 41061, Note_off_c, 0, 69, 103
1, 41061, Note_on_c, 0, 65, 98
1, 41122, Note_off_c, 0, 65, 98
1, 41122, Note_on_c, 0, 60, 96
1, 41261, Note_off_c, 0, 60, 96
1, 41266, Note_on_c, 0, 57, 99
1, 41325, Note_off_c, 0, 57, 99
1, 41348, Note_on_c, 0, 58, 95
1, 41456, Note_off_c, 0, 58, 95
1, 41456, Note_on_c, 0, 60, 99
1, 41507, Note_off_c, 0, 60, 99
1, 41515, Note_on_c, 0, 57, 95
1, 41697, Note_off_c, 0, 57, 95
1, 42120, Note_on_c, 0, 62, 105
1, 42239, Note_off_c, 0, 62, 105
1, 42239, Note_on_c, 0, 59, 99
1, 42292, Note_off_c, 0, 59, 99
1, 42294, Note_on_c, 0, 60, 96
1, 42411, Note_off_c, 0, 60, 96
1, 42443, Note_on_c, 0, 65, 98
1, 42592, Note_off_c, 0, 65, 98
1, 42608, Note_on_c, 0, 57, 99
1, 42681, Note_off_c, 0, 57, 99
1, 42703, Note_on_c, 0, 66, 109
1, 42828, Note_off_c, 0, 66, 109
1, 42828, Note_on_c, 0, 63, 94
1, 42863, Note_off_c, 0, 63, 94
1, 42867, Note_on_c, 0, 68, 107
1, 42989, Note_off_c, 0, 68, 107
1, 42989, Note_on_c, 0, 67, 96
1, 43044, Note_off_c, 0, 67, 96
1, 43057, Note_on_c, 0, 71, 103
1, 43180, Note_off_c, 0, 71, 103
1, 43182, Note_on_c, 0, 69, 96
1, 43250, Note_on_c, 0, 74, 105
1, 43250, Note_off_c, 0, 69, 96
1, 43380, Note_off_c, 0, 74, 105
1, 43383, Note_on_c, 0, 72, 88
1, 43438, Note_off_c, 0, 72, 88
1, 43444, Note_on_c, 0, 77, 101
1, 43567, Note_off_c, 0, 77, 101
1, 43570, Note_on_c, 0, 75, 101
1, 43651, Note_off_c, 0, 75, 101
1, 43667, Note_on_c, 0, 72, 108
1, 43709, Note_off_c, 0, 72, 108
1, 43714, Note_on_c, 0, 73, 102
1, 43773, Note_off_c, 0, 73, 102
1, 43777, Note_on_c, 0, 74, 103
1, 43826, Note_off_c, 0, 74, 103
1, 43841, Note_on_c, 0, 75, 99
1, 44010, Note_off_c, 0, 75, 99
1, 44022, Note_on_c, 0, 77, 96
1, 44145, Note_off_c, 0, 77, 96
1, 44145, Note_on_c, 0, 77, 103
1, 44161, Note_off_c, 0, 77, 103
1, 44170, Note_on_c, 0, 70, 86
1, 44399, Note_off_c, 0, 70, 86
1, 44615, Note_on_c, 0, 68, 105
1, 44699, Note_off_c, 0, 68, 105
1, 44699, Note_on_c, 0, 70, 107
1, 44718, Note_off_c, 0, 70, 107
1, 44718, Note_on_c, 0, 68, 107
1, 44753, Note_off_c, 0, 68, 107
1, 44758, Note_on_c, 0, 65, 102
1, 44804, Note_off_c, 0, 65, 102
1, 44810, Note_on_c, 0, 63, 103
1, 44910, Note_off_c, 0, 63, 103
1, 44982, Note_on_c, 0, 58, 103
1, 45076, Note_off_c, 0, 58, 103
1, 45097, Note_on_c, 0, 61, 101
1, 45188, Note_off_c, 0, 61, 101
1, 45188, Note_on_c, 0, 62, 97
1, 45233, Note_on_c, 0, 65, 92
1, 45233, Note_off_c, 0, 62, 97
1, 45276, Note_off_c, 0, 65, 92
1, 45276, Note_on_c, 0, 67, 97
1, 45335, Note_off_c, 0, 67, 97
1, 45368, Note_on_c, 0, 68, 100
1, 45504, Note_on_c, 0, 58, 96
1, 45504, Note_off_c, 0, 68, 100
1, 45621, Note_off_c, 0, 58, 96
1, 45760, Note_on_c, 0, 67, 104
1, 45899, Note_off_c, 0, 67, 104
1, 45947, Note_on_c, 0, 65, 102
1, 46051, Note_off_c, 0, 65, 102
1, 46055, Note_on_c, 0, 65, 89
1, 46114, Note_off_c, 0, 65, 89
1, 46135, Note_on_c, 0, 70, 100
1, 46176, Note_off_c, 0, 70, 100
1, 46176, Note_on_c, 0, 72, 104
1, 46218, Note_off_c, 0, 72, 104
1, 46243, Note_on_c, 0, 75, 99
1, 46328, Note_off_c, 0, 75, 99
1, 46332, Note_on_c, 0, 72, 94
1, 46410, Note_off_c, 0, 72, 94
1, 46410, Note_on_c, 0, 70, 104
1, 46478, Note_off_c, 0, 70, 104
1, 46482, Note_on_c, 0, 68, 103
1, 46531, Note_off_c, 0, 68, 103
1, 46537, Note_on_c, 0, 65, 95
1, 46618, Note_off_c, 0, 65, 95
1, 46657, Note_on_c, 0, 63, 101
1, 46735, Note_off_c, 0, 63, 101
1, 46735, Note_on_c, 0, 60, 97
1, 46817, Note_off_c, 0, 60, 97
1, 46902, Note_on_c, 0, 58, 95
1, 47002, Note_off_c, 0, 58, 95
1, 47024, Note_on_c, 0, 60, 98
1, 47082, Note_off_c, 0, 60, 98
1, 47108, Note_on_c, 0, 57, 103
1, 47212, Note_off_c, 0, 57, 103
1, 47236, Note_on_c, 0, 60, 91
1, 47294, Note_off_c, 0, 60, 91
1, 47300, Note_on_c, 0, 67, 98
1, 47400, Note_off_c, 0, 67, 98
1, 47400, Note_on_c, 0, 65, 97
1, 47445, Note_off_c, 0, 65, 97
1, 47475, Note_on_c, 0, 64, 87
1, 47504, Note_off_c, 0, 64, 87
1, 47521, Note_on_c, 0, 65, 92
1, 47548, Note_off_c, 0, 65, 92
1, 47554, Note_on_c, 0, 69, 84
1, 47581, Note_off_c, 0, 69, 84
1, 47593, Note_on_c, 0, 72, 76
1, 47624, Note_off_c, 0, 72, 76
1, 47633, Note_on_c, 0, 75, 78
1, 47674, Note_off_c, 0, 75, 78
1, 47677, Note_on_c, 0, 77, 92
1, 47782, Note_off_c, 0, 77, 92
1, 47795, Note_on_c, 0, 77, 86
1, 47983, Note_off_c, 0, 77, 86
1, 47993, Note_on_c, 0, 77, 87
1, 48062, Note_off_c, 0, 77, 87
1, 48366, Note_on_c, 0, 74, 108
1, 48404, Note_off_c, 0, 74, 108
1, 48404, Note_on_c, 0, 72, 110
1, 48451, Note_off_c, 0, 72, 110
1, 48451, Note_on_c, 0, 70, 104
1, 48493, Note_off_c, 0, 70, 104
1, 48498, Note_on_c, 0, 69, 108
1, 48534, Note_off_c, 0, 69, 108
1, 48535, Note_on_c, 0, 67, 105
1, 48577, Note_off_c, 0, 67, 105
1, 48577, Note_on_c, 0, 66, 106
1, 48622, Note_off_c, 0, 66, 106
1, 48622, Note_on_c, 0, 65, 101
1, 48672, Note_off_c, 0, 65, 101
1, 48672, Note_on_c, 0, 64, 101
1, 48711, Note_off_c, 0, 64, 101
1, 48719, Note_on_c, 0, 63, 94
1, 48765, Note_off_c, 0, 63, 94
1, 48771, Note_on_c, 0, 58, 101
1, 48807, Note_off_c, 0, 58, 101
1, 48807, Note_on_c, 0, 61, 96
1, 48845, Note_off_c, 0, 61, 96
1, 48850, Note_on_c, 0, 53, 95
1, 48876, Note_off_c, 0, 53, 95
1, 48878, Note_on_c, 0, 55, 90
1, 48901, Note_off_c, 0, 55, 90
1, 48903, Note_on_c, 0, 57, 93
1, 48926, Note_off_c, 0, 57, 93
1, 48930, Note_on_c, 0, 55, 98
1, 48952, Note_off_c, 0, 55, 98
1, 48962, Note_on_c, 0, 57, 97
1, 48988, Note_off_c, 0, 57, 97
1, 49004, Note_on_c, 0, 60, 104
1, 49036, Note_off_c, 0, 60, 104
1, 49041, Note_on_c, 0, 58, 98
1, 49084, Note_off_c, 0, 58, 98
1, 49089, Note_on_c, 0, 57, 89
1, 49122, Note_off_c, 0, 57, 89
1, 49129, Note_on_c, 0, 58, 102
1, 49181, Note_off_c, 0, 58, 102
1, 49184, Note_on_c, 0, 62, 107
1, 49210, Note_off_c, 0, 62, 107
1, 49212, Note_on_c, 0, 65, 98
1, 49249, Note_off_c, 0, 65, 98
1, 49257, Note_on_c, 0, 67, 91
1, 49302, Note_off_c, 0, 67, 91
1, 49302, Note_on_c, 0, 68, 93
1, 49360, Note_off_c, 0, 68, 93
1, 49360, Note_on_c, 0, 69, 99
1, 49421, Note_off_c, 0, 69, 99
1, 49423, Note_on_c, 0, 70, 102
1, 49463, Note_off_c, 0, 70, 102
1, 49468, Note_on_c, 0, 72, 100
1, 49507, Note_off_c, 0, 72, 100
1, 49517, Note_on_c, 0, 69, 98
1, 49558, Note_off_c, 0, 69, 98
1, 49564, Note_on_c, 0, 71, 104
1, 49686, Note_off_c, 0, 71, 104
1, 49686, Note_on_c, 0, 67, 99
1, 49738, Note_off_c, 0, 67, 99
1, 49748, Note_on_c, 0, 64, 94
1, 49787, Note_off_c, 0, 64, 94
1, 49790, Note_on_c, 0, 59, 99
1, 49822, Note_off_c, 0, 59, 99
1, 49826, Note_on_c, 0, 62, 95
1, 49904, Note_off_c, 0, 62, 95
1, 50121, Note_on_c, 0, 61, 103
1, 50170, Note_off_c, 0, 61, 103
1, 50170, Note_on_c, 0, 62, 102
1, 50222, Note_off_c, 0, 62, 102
1, 50222, Note_on_c, 0, 64, 100
1, 50251, Note_off_c, 0, 64, 100
1, 50251, Note_on_c, 0, 66, 96
1, 50297, Note_off_c, 0, 66, 96
1, 50305, Note_on_c, 0, 67, 102
1, 50350, Note_off_c, 0, 67, 102
1, 50350, Note_on_c, 0, 66, 106
1, 50381, Note_off_c, 0, 66, 106
1, 50381, Note_on_c, 0, 64, 93
1, 50422, Note_off_c, 0, 64, 93
1, 50426, Note_on_c, 0, 62, 95
1, 50456, Note_off_c, 0, 62, 95
1, 50456, Note_on_c, 0, 61, 103
1, 50497, Note_off_c, 0, 61, 103
1, 50515, Note_on_c, 0, 60, 90
1, 50602, Note_off_c, 0, 60, 90
1, 50629, Note_on_c, 0, 60, 99
1, 50686, Note_off_c, 0, 60, 99
1, 50686, Note_on_c, 0, 62, 100
1, 50751, Note_off_c, 0, 62, 100
1, 50754, Note_on_c, 0, 63, 101
1, 50770, Note_off_c, 0, 63, 101
1, 50776, Note_on_c, 0, 60, 89
1, 50812, Note_off_c, 0, 60, 89
1, 50814, Note_on_c, 0, 61, 94
1, 50846, Note_off_c, 0, 61, 94
1, 50847, Note_on_c, 0, 62, 105
1, 50875, Note_off_c, 0, 62, 105
1, 50875, Note_on_c, 0, 65, 99
1, 50905, Note_off_c, 0, 65, 99
1, 50906, Note_on_c, 0, 65, 103
1, 50931, Note_off_c, 0, 65, 103
1, 50937, Note_on_c, 0, 66, 104
1, 50966, Note_off_c, 0, 66, 104
1, 50972, Note_on_c, 0, 67, 105
1, 50996, Note_off_c, 0, 67, 105
1, 50996, Note_on_c, 0, 68, 102
1, 51192, Note_off_c, 0, 68, 102
1, 51194, Note_on_c, 0, 65, 98
1, 51221, Note_off_c, 0, 65, 98
1, 51225, Note_on_c, 0, 66, 97
1, 51245, Note_off_c, 0, 66, 97
1, 51245, Note_on_c, 0, 68, 98
1, 51275, Note_off_c, 0, 68, 98
1, 51277, Note_on_c, 0, 70, 99
1, 51329, Note_off_c, 0, 70, 99
1, 51331, Note_on_c, 0, 66, 97
1, 51417, Note_off_c, 0, 66, 97
1, 51427, Note_on_c, 0, 61, 98
1, 51511, Note_off_c, 0, 61, 98
1, 51774, Note_on_c, 0, 63, 105
1, 51833, Note_off_c, 0, 63, 105
1, 51833, Note_on_c, 0, 64, 99
1, 51879, Note_off_c, 0, 64, 99
1, 51879, Note_on_c, 0, 63, 95
1, 51933, Note_off_c, 0, 63, 95
1, 51933, Note_on_c, 0, 62, 97
1, 51990, Note_off_c, 0, 62, 97
1, 51990, Note_on_c, 0, 61, 98
1, 52054, Note_off_c, 0, 61, 98
1, 52054, Note_on_c, 0, 62, 100
1, 52105, Note_off_c, 0, 62, 100
1, 52105, Note_on_c, 0, 64, 103
1, 52146, Note_off_c, 0, 64, 103
1, 52146, Note_on_c, 0, 63, 100
1, 52180, Note_off_c, 0, 63, 100
1, 52180, Note_on_c, 0, 62, 98
1, 52239, Note_off_c, 0, 62, 98
1, 52247, Note_on_c, 0, 55, 98
1, 52294, Note_off_c, 0, 55, 98
1, 52294, Note_on_c, 0, 57, 99
1, 52314, Note_off_c, 0, 57, 99
1, 52314, Note_on_c, 0, 60, 98
1, 52365, Note_off_c, 0, 60, 98
1, 52365, Note_on_c, 0, 59, 98
1, 52417, Note_off_c, 0, 59, 98
1, 52428, Note_on_c, 0, 60, 95
1, 52467, Note_off_c, 0, 60, 95
1, 52471, Note_on_c, 0, 62, 96
1, 52502, Note_off_c, 0, 62, 96
1, 52514, Note_on_c, 0, 64, 99
1, 52542, Note_off_c, 0, 64, 99
1, 52558, Note_on_c, 0, 65, 95
1, 52593, Note_off_c, 0, 65, 95
1, 52594, Note_on_c, 0, 67, 97
1, 52642, Note_off_c, 0, 67, 97
1, 52644, Note_on_c, 0, 68, 94
1, 52679, Note_off_c, 0, 68, 94
1, 52688, Note_on_c, 0, 69, 106
1, 52742, Note_on_c, 0, 73, 103
1, 52742, Note_off_c, 0, 69, 106
1, 52888, Note_off_c, 0, 73, 103
1, 52888, Note_on_c, 0, 70, 101
1, 52953, Note_off_c, 0, 70, 101
1, 53128, Note_on_c, 0, 73, 103
1, 53252, Note_off_c, 0, 73, 103
1, 53252, Note_on_c, 0, 70, 94
1, 53315, Note_on_c, 0, 77, 94
1, 53315, Note_off_c, 0, 70, 94
1, 53441, Note_off_c, 0, 77, 94
1, 53454, Note_on_c, 0, 73, 87
1, 53528, Note_off_c, 0, 73, 87
1, 53672, Note_on_c, 0, 73, 104
1, 53792, Note_off_c, 0, 73, 104
1, 53863, Note_on_c, 0, 74, 103
1, 54009, Note_off_c, 0, 74, 103
1, 54022, Note_on_c, 0, 71, 96
1, 54080, Note_off_c, 0, 71, 96
1, 54277, Note_on_c, 0, 72, 99
1, 54390, Note_off_c, 0, 72, 99
1, 54390, Note_on_c, 0, 70, 92
1, 54443, Note_off_c, 0, 70, 92
1, 54460, Note_on_c, 0, 71, 100
1, 54577, Note_off_c, 0, 71, 100
1, 54594, Note_on_c, 0, 67, 94
1, 54655, Note_off_c, 0, 67, 94
1, 54660, Note_on_c, 0, 70, 100
1, 54771, Note_on_c, 0, 67, 104
1, 54771, Note_off_c, 0, 70, 100
1, 54838, Note_off_c, 0, 67, 104
1, 54842, Note_on_c, 0, 64, 91
1, 54964, Note_off_c, 0, 64, 91
1, 54964, Note_on_c, 0, 59, 90
1, 55023, Note_off_c, 0, 59, 90
1, 55041, Note_on_c, 0, 65, 98
1, 55119, Note_off_c, 0, 65, 98
1, 55226, Note_on_c, 0, 72, 88
1, 55645, Note_off_c, 0, 72, 88
1, 55645, Note_on_c, 0, 72, 94
1, 56129, Note_off_c, 0, 72, 94
1, 56129, Note_on_c, 0, 70, 104
1, 56161, Note_off_c, 0, 70, 104
1, 56161, Note_on_c, 0, 72, 100
1, 56395, Note_off_c, 0, 72, 100
1, 56395, Note_on_c, 0, 70, 102
1, 56476, Note_off_c, 0, 70, 102
1, 56477, Note_on_c, 0, 72, 98
1, 56524, Note_off_c, 0, 72, 98
1, 56553, Note_on_c, 0, 71, 97
1, 56589, Note_off_c, 0, 71, 97
1, 56595, Note_on_c, 0, 70, 100
1, 56641, Note_on_c, 0, 69, 103
1, 56641, Note_off_c, 0, 70, 100
1, 56698, Note_off_c, 0, 69, 103
1, 56702, Note_on_c, 0, 68, 102
1, 56741, Note_off_c, 0, 68, 102
1, 56741, Note_on_c, 0, 65, 98
1, 56894, Note_off_c, 0, 65, 98
1, 56894, Note_on_c, 0, 60, 85
1, 56950, Note_off_c, 0, 60, 85
1, 56954, Note_on_c, 0, 63, 96
1, 57087, Note_off_c, 0, 63, 96
1, 57096, Note_on_c, 0, 60, 97
1, 57158, Note_off_c, 0, 60, 97
1, 57158, Note_on_c, 0, 64, 96
1, 57223, Note_off_c, 0, 64, 96
1, 57243, Note_on_c, 0, 60, 92
1, 57316, Note_off_c, 0, 60, 92
1, 57333, Note_on_c, 0, 65, 94
1, 57491, Note_off_c, 0, 65, 94
1, 57506, Note_on_c, 0, 65, 83
1, 57549, Note_off_c, 0, 65, 83
1, 57753, Note_on_c, 0, 69, 101
1, 57870, Note_off_c, 0, 69, 101
1, 58123, Note_on_c, 0, 60, 101
1, 58233, Note_off_c, 0, 60, 101
1, 58250, Note_on_c, 0, 59, 96
1, 58297, Note_off_c, 0, 59, 96
1, 58311, Note_on_c, 0, 62, 94
1, 58450, Note_off_c, 0, 62, 94
1, 58450, Note_on_c, 0, 60, 96
1, 58493, Note_on_c, 0, 65, 92
1, 58493, Note_off_c, 0, 60, 96
1, 58675, Note_off_c, 0, 65, 92
1, 58694, Note_on_c, 0, 65, 87
1, 58759, Note_off_c, 0, 65, 87
1, 58868, Note_on_c, 0, 69, 109
1, 58998, Note_off_c, 0, 69, 109
1, 59267, Note_on_c, 0, 60, 105
1, 59364, Note_off_c, 0, 60, 105
1, 59379, Note_on_c, 0, 58, 98
1, 59414, Note_off_c, 0, 58, 98
1, 59424, Note_on_c, 0, 62, 97
1, 59570, Note_off_c, 0, 62, 97
1, 59570, Note_on_c, 0, 60, 90
1, 59639, Note_off_c, 0, 60, 90
1, 59643, Note_on_c, 0, 65, 94
1, 59766, Note_off_c, 0, 65, 94
1, 59837, Note_on_c, 0, 69, 110
1, 60018, Note_on_c, 0, 65, 92
1, 60018, Note_off_c, 0, 69, 110
1, 60154, Note_off_c, 0, 65, 92
1, 60154, Note_on_c, 0, 66, 102
1, 60228, Note_off_c, 0, 66, 102
1, 60407, Note_on_c, 0, 70, 109
1, 60504, Note_off_c, 0, 70, 109
1, 60516, Note_on_c, 0, 70, 105
1, 60597, Note_off_c, 0, 70, 105
1, 60597, Note_on_c, 0, 66, 109
1, 60684, Note_off_c, 0, 66, 109
1, 60788, Note_on_c, 0, 65, 91
1, 60921, Note_off_c, 0, 65, 91
1, 60921, Note_on_c, 0, 65, 94
1, 60939, Note_off_c, 0, 65, 94
1, 60939, Note_on_c, 0, 62, 95
1, 60973, Note_off_c, 0, 62, 95
1, 60976, Note_on_c, 0, 65, 88
1, 61019, Note_off_c, 0, 65, 88
1, 61159, Note_on_c, 0, 69, 107
1, 61259, Note_off_c, 0, 69, 107
1, 61548, Note_on_c, 0, 65, 100
1, 61632, Note_off_c, 0, 65, 100
1, 61736, Note_on_c, 0, 69, 111
1, 61832, Note_off_c, 0, 69, 111
1, 61832, Note_on_c, 0, 65, 89
1, 61900, Note_off_c, 0, 65, 89
1, 61926, Note_on_c, 0, 70, 100
1, 62039, Note_off_c, 0, 70, 100
1, 62094, Note_on_c, 0, 74, 88
1, 62204, Note_off_c, 0, 74, 88
1, 62217, Note_on_c, 0, 74, 102
1, 62294, Note_off_c, 0, 74, 102
1, 62294, Note_on_c, 0, 70, 100
1, 62433, Note_off_c, 0, 70, 100
1, 62438, Note_on_c, 0, 71, 88
1, 62554, Note_off_c, 0, 71, 88
1, 62667, Note_on_c, 0, 75, 100
1, 62780, Note_off_c, 0, 75, 100
1, 62797, Note_on_c, 0, 75, 99
1, 62863, Note_off_c, 0, 75, 99
1, 62863, Note_on_c, 0, 71, 103
1, 62954, Note_off_c, 0, 71, 103
1, 62988, Note_on_c, 0, 65, 88
1, 63071, Note_off_c, 0, 65, 88
1, 63072, Note_on_c, 0, 70, 105
1, 63198, Note_off_c, 0, 70, 105
1, 63281, Note_on_c, 0, 72, 97
1, 63358, Note_off_c, 0, 72, 97
1, 63359, Note_on_c, 0, 74, 97
1, 63439, Note_off_c, 0, 74, 97
1, 63446, Note_on_c, 0, 70, 103
1, 63563, Note_off_c, 0, 70, 103
1, 63568, Note_on_c, 0, 73, 94
1, 63596, Note_off_c, 0, 73, 94
1, 63605, Note_on_c, 0, 70, 103
1, 63628, Note_off_c, 0, 70, 103
1, 63628, Note_on_c, 0, 68, 102
1, 63728, Note_off_c, 0, 68, 102
1, 63741, Note_on_c, 0, 65, 101
1, 63806, Note_off_c, 0, 65, 101
1, 63819, Note_on_c, 0, 63, 101
1, 63932, Note_off_c, 0, 63, 101
1, 63937, Note_on_c, 0, 60, 90
1, 63993, Note_off_c, 0, 60, 90
1, 64016, Note_on_c, 0, 64, 97
1, 64113, Note_off_c, 0, 64, 97
1, 64124, Note_on_c, 0, 60, 89
1, 64184, Note_off_c, 0, 60, 89
1, 64222, Note_on_c, 0, 65, 94
1, 64326, Note_off_c, 0, 65, 94
1, 64401, Note_on_c, 0, 69, 105
1, 64531, Note_off_c, 0, 69, 105
1, 64539, Note_on_c, 0, 65, 88
1, 64579, Note_off_c, 0, 65, 88
1, 64601, Note_on_c, 0, 66, 109
1, 64718, Note_off_c, 0, 66, 109
1, 64724, Note_on_c, 0, 68, 109
1, 64785, Note_off_c, 0, 68, 109
1, 64804, Note_on_c, 0, 70, 101
1, 64914, Note_off_c, 0, 70, 101
1, 64914, Note_on_c, 0, 66, 112
1, 64988, Note_off_c, 0, 66, 112
1, 64988, Note_on_c, 0, 66, 102
1, 65004, Note_off_c, 0, 66, 102
1, 65008, Note_on_c, 0, 63, 101
1, 65103, Note_off_c, 0, 63, 101
1, 65119, Note_on_c, 0, 62, 95
1, 65213, Note_off_c, 0, 62, 95
1, 65213, Note_on_c, 0, 61, 99
1, 65281, Note_off_c, 0, 61, 99
1, 65281, Note_on_c, 0, 57, 95
1, 65365, Note_off_c, 0, 57, 95
1, 65384, Note_on_c, 0, 57, 98
1, 65464, Note_off_c, 0, 57, 98
1, 65483, Note_on_c, 0, 61, 97
1, 65567, Note_off_c, 0, 61, 97
1, 65583, Note_on_c, 0, 58, 86
1, 65680, Note_off_c, 0, 58, 86
1, 65689, Note_on_c, 0, 59, 95
1, 65742, Note_off_c, 0, 59, 95
1, 65746, Note_on_c, 0, 60, 100
1, 65850, Note_off_c, 0, 60, 100
1, 66138, Note_on_c, 0, 65, 98
1, 66248, Note_off_c, 0, 65, 98
1, 66333, Note_on_c, 0, 67, 108
1, 66430, Note_off_c, 0, 67, 108
1, 66530, Note_on_c, 0, 70, 106
1, 66643, Note_off_c, 0, 70, 106
1, 66751, Note_on_c, 0, 68, 100
1, 66789, Note_on_c, 0, 70, 105
1, 66789, Note_off_c, 0, 68, 100
1, 66828, Note_off_c, 0, 70, 105
1, 66828, Note_on_c, 0, 68, 100
1, 66860, Note_off_c, 0, 68, 100
1, 66860, Note_on_c, 0, 65, 95
1, 66890, Note_off_c, 0, 65, 95
1, 66904, Note_on_c, 0, 63, 97
1, 67040, Note_off_c, 0, 63, 97
1, 67040, Note_on_c, 0, 58, 96
1, 67088, Note_off_c, 0, 58, 96
1, 67097, Note_on_c, 0, 62, 93
1, 67207, Note_off_c, 0, 62, 93
1, 67222, Note_on_c, 0, 65, 88
1, 67269, Note_off_c, 0, 65, 88
1, 67286, Note_on_c, 0, 70, 106
1, 67448, Note_off_c, 0, 70, 106
1, 67448, Note_on_c, 0, 68, 99
1, 67466, Note_off_c, 0, 68, 99
1, 67466, Note_on_c, 0, 70, 96
1, 67492, Note_off_c, 0, 70, 96
1, 67700, Note_on_c, 0, 69, 115
1, 67791, Note_off_c, 0, 69, 115
1, 67791, Note_on_c, 0, 70, 105
1, 67875, Note_off_c, 0, 70, 105
1, 67875, Note_on_c, 0, 70, 105
1, 67891, Note_on_c, 0, 71, 105
1, 67891, Note_off_c, 0, 70, 105
1, 67991, Note_off_c, 0, 71, 105
1, 67991, Note_on_c, 0, 67, 105
1, 68046, Note_off_c, 0, 67, 105
1, 68053, Note_on_c, 0, 64, 93
1, 68147, Note_off_c, 0, 64, 93
1, 68197, Note_on_c, 0, 59, 98
1, 68241, Note_off_c, 0, 59, 98
1, 68268, Note_on_c, 0, 62, 101
1, 68387, Note_off_c, 0, 62, 101
1, 68387, Note_on_c, 0, 59, 100
1, 68432, Note_off_c, 0, 59, 100
1, 68465, Note_on_c, 0, 61, 101
1, 68648, Note_off_c, 0, 61, 101
1, 68648, Note_on_c, 0, 70, 107
1, 68754, Note_off_c, 0, 70, 107
1, 68754, Note_on_c, 0, 69, 106
1, 68832, Note_off_c, 0, 69, 106
1, 68833, Note_on_c, 0, 68, 103
1, 68924, Note_off_c, 0, 68, 103
1, 68945, Note_on_c, 0, 66, 106
1, 69016, Note_off_c, 0, 66, 106
1, 69027, Note_on_c, 0, 61, 103
1, 69097, Note_off_c, 0, 61, 103
1, 69116, Note_on_c, 0, 58, 95
1, 69160, Note_off_c, 0, 58, 95
1, 69212, Note_on_c, 0, 65, 100
1, 69249, Note_off_c, 0, 65, 100
1, 69257, Note_on_c, 0, 67, 104
1, 69294, Note_off_c, 0, 67, 104
1, 69304, Note_on_c, 0, 68, 104
1, 69344, Note_off_c, 0, 68, 104
1, 69351, Note_on_c, 0, 65, 93
1, 69387, Note_off_c, 0, 65, 93
1, 69420, Note_on_c, 0, 66, 107
1, 69537, Note_off_c, 0, 66, 107
1, 69543, Note_on_c, 0, 63, 97
1, 69596, Note_off_c, 0, 63, 97
1, 69931, Note_on_c, 0, 61, 101
1, 69958, Note_off_c, 0, 61, 101
1, 69958, Note_on_c, 0, 63, 106
1, 69977, Note_on_c, 0, 64, 100
1, 69977, Note_off_c, 0, 63, 106
1, 70087, Note_off_c, 0, 64, 100
1, 70098, Note_on_c, 0, 62, 99
1, 70168, Note_off_c, 0, 62, 99
1, 70194, Note_on_c, 0, 61, 97
1, 70237, Note_off_c, 0, 61, 97
1, 70239, Note_on_c, 0, 62, 93
1, 70285, Note_off_c, 0, 62, 93
1, 70285, Note_on_c, 0, 64, 98
1, 70366, Note_off_c, 0, 64, 98
1, 70366, Note_on_c, 0, 62, 95
1, 70498, Note_off_c, 0, 62, 95
1, 70498, Note_on_c, 0, 57, 101
1, 70547, Note_off_c, 0, 57, 101
1, 70547, Note_on_c, 0, 60, 102
1, 70631, Note_off_c, 0, 60, 102
1, 70654, Note_on_c, 0, 62, 103
1, 70671, Note_off_c, 0, 62, 103
1, 70671, Note_on_c, 0, 60, 100
1, 70699, Note_off_c, 0, 60, 100
1, 70719, Note_on_c, 0, 57, 107
1, 70844, Note_off_c, 0, 57, 107
1, 70853, Note_on_c, 0, 58, 97
1, 70949, Note_off_c, 0, 58, 97
1, 70952, Note_on_c, 0, 59, 96
1, 71052, Note_off_c, 0, 59, 96
1, 71074, Note_on_c, 0, 67, 102
1, 71139, Note_off_c, 0, 67, 102
1, 71142, Note_on_c, 0, 69, 107
1, 71181, Note_off_c, 0, 69, 107
1, 71184, Note_on_c, 0, 70, 101
1, 71226, Note_off_c, 0, 70, 101
1, 71226, Note_on_c, 0, 72, 102
1, 71268, Note_off_c, 0, 72, 102
1, 71269, Note_on_c, 0, 73, 109
1, 71329, Note_off_c, 0, 73, 109
1, 71329, Note_on_c, 0, 74, 102
1, 71438, Note_off_c, 0, 74, 102
1, 71438, Note_on_c, 0, 71, 103
1, 71499, Note_off_c, 0, 71, 103
1, 71499, Note_on_c, 0, 72, 101
1, 71603, Note_off_c, 0, 72, 101
1, 71639, Note_on_c, 0, 74, 100
1, 71702, Note_off_c, 0, 74, 100
1, 71706, Note_on_c, 0, 71, 102
1, 71900, Note_off_c, 0, 71, 102
1, 71900, Note_on_c, 0, 67, 101
1, 72085, Note_off_c, 0, 67, 101
1, 72087, Note_on_c, 0, 66, 95
1, 72125, Note_off_c, 0, 66, 95
1, 72128, Note_on_c, 0, 67, 81
1, 72175, Note_off_c, 0, 67, 81
1, 72409, Note_on_c, 0, 70, 113
1, 72444, Note_off_c, 0, 70, 113
1, 72446, Note_on_c, 0, 69, 109
1, 72479, Note_off_c, 0, 69, 109
1, 72479, Note_on_c, 0, 67, 101
1, 72511, Note_off_c, 0, 67, 101
1, 72511, Note_on_c, 0, 66, 110
1, 72579, Note_off_c, 0, 66, 110
1, 72607, Note_on_c, 0, 61, 105
1, 72637, Note_off_c, 0, 61, 105
1, 72637, Note_on_c, 0, 62, 108
1, 72663, Note_off_c, 0, 62, 108
1, 72665, Note_on_c, 0, 58, 103
1, 72748, Note_off_c, 0, 58, 103
1, 72778, Note_on_c, 0, 54, 88
1, 72838, Note_off_c, 0, 54, 88
1, 72855, Note_on_c, 0, 55, 101
1, 72946, Note_off_c, 0, 55, 101
1, 72964, Note_on_c, 0, 58, 105
1, 73035, Note_off_c, 0, 58, 105
1, 73043, Note_on_c, 0, 62, 98
1, 73153, Note_off_c, 0, 62, 98
1, 73153, Note_on_c, 0, 65, 103
1, 73218, Note_off_c, 0, 65, 103
1, 73237, Note_on_c, 0, 64, 92
1, 73341, Note_off_c, 0, 64, 92
1, 73365, Note_on_c, 0, 60, 96
1, 73408, Note_off_c, 0, 60, 96
1, 73424, Note_on_c, 0, 65, 102
1, 73524, Note_off_c, 0, 65, 102
1, 73615, Note_on_c, 0, 72, 107
1, 74057, Note_off_c, 0, 72, 107
1, 74058, Note_on_c, 0, 70, 98
1, 74099, Note_off_c, 0, 70, 98
1, 74104, Note_on_c, 0, 69, 105
1, 74144, Note_off_c, 0, 69, 105
1, 74165, Note_on_c, 0, 65, 94
1, 74519, Note_off_c, 0, 65, 94
1, 74813, Note_on_c, 0, 72, 103
1, 75193, Note_off_c, 0, 72, 103
1, 75193, Note_on_c, 0, 71, 97
1, 75267, Note_off_c, 0, 71, 97
1, 75267, Note_on_c, 0, 68, 105
1, 75315, Note_off_c, 0, 68, 105
1, 75321, Note_on_c, 0, 65, 98
1, 75632, Note_off_c, 0, 65, 98
1, 75632, Note_on_c, 0, 63, 93
1, 75648, Note_off_c, 0, 63, 93
1, 75937, Note_on_c, 0, 72, 102
1, 76232, Note_off_c, 0, 72, 102
1, 76238, Note_on_c, 0, 75, 98
1, 76485, Note_off_c, 0, 75, 98
1, 76498, Note_on_c, 0, 77, 101
1, 76683, Note_off_c, 0, 77, 101
1, 76683, Note_on_c, 0, 75, 99
1, 76868, Note_off_c, 0, 75, 99
1, 76877, Note_on_c, 0, 70, 99
1, 76918, Note_off_c, 0, 70, 99
1, 76918, Note_on_c, 0, 72, 102
1, 77074, Note_off_c, 0, 72, 102
1, 77097, Note_on_c, 0, 71, 98
1, 77142, Note_off_c, 0, 71, 98
1, 77149, Note_on_c, 0, 69, 100
1, 77199, Note_off_c, 0, 69, 100
1, 77199, Note_on_c, 0, 68, 104
1, 77247, Note_off_c, 0, 68, 104
1, 77250, Note_on_c, 0, 65, 104
1, 77467, Note_off_c, 0, 65, 104
1, 77661, Note_on_c, 0, 67, 107
1, 77689, Note_off_c, 0, 67, 107
1, 77689, Note_on_c, 0, 69, 113
1, 77841, Note_off_c, 0, 69, 113
1, 77843, Note_on_c, 0, 70, 94
1, 78025, Note_off_c, 0, 70, 94
1, 78052, Note_on_c, 0, 71, 100
1, 78119, Note_off_c, 0, 71, 100
1, 78126, Note_on_c, 0, 72, 101
1, 78377, Note_off_c, 0, 72, 101
1, 78382, Note_on_c, 0, 75, 99
1, 78583, Note_off_c, 0, 75, 99
1, 78595, Note_on_c, 0, 77, 98
1, 78695, Note_off_c, 0, 77, 98
1, 78695, Note_on_c, 0, 77, 100
1, 78727, Note_off_c, 0, 77, 100
1, 78727, Note_on_c, 0, 75, 93
1, 78970, Note_off_c, 0, 75, 93
1, 78970, Note_on_c, 0, 72, 98
1, 79178, Note_off_c, 0, 72, 98
1, 79181, Note_on_c, 0, 71, 91
1, 79232, Note_off_c, 0, 71, 91
1, 79235, Note_on_c, 0, 70, 97
1, 79287, Note_off_c, 0, 70, 97
1, 79293, Note_on_c, 0, 68, 102
1, 79341, Note_off_c, 0, 68, 102
1, 79341, Note_on_c, 0, 65, 93
1, 79552, Note_off_c, 0, 65, 93
1, 79890, Note_on_c, 0, 68, 103
1, 79937, Note_off_c, 0, 68, 103
1, 79937, Note_on_c, 0, 70, 105
1, 80048, Note_off_c, 0, 70, 105
1, 80082, Note_on_c, 0, 74, 89
1, 80215, Note_off_c, 0, 74, 89
1, 80216, Note_on_c, 0, 77, 97
1, 80300, Note_off_c, 0, 77, 97
1, 80321, Note_on_c, 0, 67, 90
1, 80451, Note_off_c, 0, 67, 90
1, 80491, Note_on_c, 0, 80, 93
1, 80624, Note_off_c, 0, 80, 93
1, 80649, Note_on_c, 0, 79, 89
1, 80668, Note_off_c, 0, 79, 89
1, 80677, Note_on_c, 0, 78, 91
1, 80695, Note_off_c, 0, 78, 91
1, 80704, Note_on_c, 0, 77, 92
1, 80755, Note_off_c, 0, 77, 92
1, 80755, Note_on_c, 0, 74, 100
1, 80822, Note_off_c, 0, 74, 100
1, 80823, Note_on_c, 0, 75, 98
1, 80908, Note_off_c, 0, 75, 98
1, 80908, Note_on_c, 0, 74, 97
1, 80959, Note_off_c, 0, 74, 97
1, 80959, Note_on_c, 0, 72, 96
1, 80985, Note_off_c, 0, 72, 96
1, 80985, Note_on_c, 0, 70, 100
1, 80998, Note_off_c, 0, 70, 100
1, 81001, Note_on_c, 0, 68, 104
1, 81157, Note_off_c, 0, 68, 104
1, 81157, Note_on_c, 0, 67, 102
1, 81197, Note_on_c, 0, 65, 101
1, 81197, Note_off_c, 0, 67, 102
1, 81247, Note_off_c, 0, 65, 101
1, 81264, Note_on_c, 0, 63, 96
1, 81349, Note_off_c, 0, 63, 96
1, 81349, Note_on_c, 0, 64, 99
1, 81392, Note_off_c, 0, 64, 99
1, 81393, Note_on_c, 0, 62, 98
1, 81412, Note_off_c, 0, 62, 98
1, 81412, Note_on_c, 0, 61, 102
1, 81433, Note_off_c, 0, 61, 102
1, 81433, Note_on_c, 0, 60, 98
1, 81450, Note_off_c, 0, 60, 98
1, 81450, Note_on_c, 0, 58, 102
1, 81468, Note_off_c, 0, 58, 102
1, 81468, Note_on_c, 0, 56, 99
1, 81578, Note_off_c, 0, 56, 99
1, 81634, Note_on_c, 0, 56, 95
1, 81777, Note_off_c, 0, 56, 95
1, 82188, Note_on_c, 0, 60, 99
1, 82353, Note_off_c, 0, 60, 99
1, 82353, Note_on_c, 0, 62, 98
1, 82486, Note_off_c, 0, 62, 98
1, 82500, Note_on_c, 0, 60, 89
1, 82546, Note_off_c, 0, 60, 89
1, 82552, Note_on_c, 0, 65, 92
1, 82675, Note_off_c, 0, 65, 92
1, 82723, Note_on_c, 0, 72, 93
1, 82898, Note_off_c, 0, 72, 93
1, 82922, Note_on_c, 0, 75, 97
1, 83006, Note_off_c, 0, 75, 97
1, 83006, Note_on_c, 0, 77, 98
1, 83233, Note_off_c, 0, 77, 98
1, 83307, Note_on_c, 0, 75, 98
1, 83482, Note_off_c, 0, 75, 98
1, 83482, Note_on_c, 0, 72, 97
1, 83680, Note_off_c, 0, 72, 97
1, 83680, Note_on_c, 0, 68, 103
1, 83719, Note_off_c, 0, 68, 103
1, 83719, Note_on_c, 0, 70, 99
1, 83849, Note_off_c, 0, 70, 99
1, 83871, Note_on_c, 0, 68, 109
1, 83949, Note_off_c, 0, 68, 109
1, 83967, Note_on_c, 0, 72, 96
1, 83988, Note_off_c, 0, 72, 96
1, 83996, Note_on_c, 0, 68, 101
1, 84017, Note_off_c, 0, 68, 101
1, 84030, Note_on_c, 0, 67, 99
1, 84063, Note_off_c, 0, 67, 99
1, 84063, Note_on_c, 0, 65, 93
1, 84158, Note_off_c, 0, 65, 93
1, 84187, Note_on_c, 0, 63, 99
1, 84243, Note_off_c, 0, 63, 99
1, 84254, Note_on_c, 0, 60, 98
1, 84366, Note_off_c, 0, 60, 98
1, 84366, Note_on_c, 0, 56, 94
1, 84418, Note_off_c, 0, 56, 94
1, 84439, Note_on_c, 0, 58, 100
1, 84539, Note_off_c, 0, 58, 100
1, 84552, Note_on_c, 0, 60, 96
1, 84599, Note_off_c, 0, 60, 96
1, 84599, Note_on_c, 0, 57, 95
1, 84726, Note_off_c, 0, 57, 95
1, 84752, Note_on_c, 0, 60, 94
1, 84803, Note_off_c, 0, 60, 94
1, 84811, Note_on_c, 0, 65, 97
1, 84947, Note_off_c, 0, 65, 97
1, 85007, Note_on_c, 0, 70, 96
1, 85178, Note_off_c, 0, 70, 96
1, 85178, Note_on_c, 0, 69, 85
1, 85204, Note_on_c, 0, 70, 76
1, 85204, Note_off_c, 0, 69, 85
1, 85235, Note_off_c, 0, 70, 76
1, 85469, Note_on_c, 0, 69, 114
1, 85511, Note_off_c, 0, 69, 114
1, 85515, Note_on_c, 0, 70, 95
1, 85544, Note_off_c, 0, 70, 95
1, 85552, Note_on_c, 0, 72, 100
1, 85584, Note_off_c, 0, 72, 100
1, 85588, Note_on_c, 0, 70, 98
1, 85630, Note_off_c, 0, 70, 98
1, 85633, Note_on_c, 0, 69, 106
1, 85672, Note_off_c, 0, 69, 106
1, 85680, Note_on_c, 0, 67, 103
1, 85696, Note_off_c, 0, 67, 103
1, 85704, Note_on_c, 0, 65, 98
1, 85762, Note_off_c, 0, 65, 98
1, 85762, Note_on_c, 0, 63, 94
1, 85807, Note_off_c, 0, 63, 94
1, 85813, Note_on_c, 0, 58, 88
1, 85838, Note_off_c, 0, 58, 88
1, 85841, Note_on_c, 0, 62, 98
1, 85871, Note_off_c, 0, 62, 98
1, 85871, Note_on_c, 0, 58, 101
1, 85898, Note_off_c, 0, 58, 101
1, 85909, Note_on_c, 0, 62, 100
1, 86029, Note_off_c, 0, 62, 100
1, 86042, Note_on_c, 0, 60, 97
1, 86098, Note_off_c, 0, 60, 97
1, 86119, Note_on_c, 0, 61, 103
1, 86213, Note_off_c, 0, 61, 103
1, 86224, Note_on_c, 0, 64, 90
1, 86235, Note_off_c, 0, 64, 90
1, 86237, Note_on_c, 0, 63, 93
1, 86251, Note_off_c, 0, 63, 93
1, 86268, Note_on_c, 0, 68, 95
1, 86301, Note_off_c, 0, 68, 95
1, 86301, Note_on_c, 0, 69, 105
1, 86314, Note_off_c, 0, 69, 105
1, 86317, Note_on_c, 0, 72, 98
1, 86460, Note_off_c, 0, 72, 98
1, 86460, Note_on_c, 0, 70, 101
1, 86483, Note_off_c, 0, 70, 101
1, 86483, Note_on_c, 0, 72, 95
1, 86602, Note_off_c, 0, 72, 95
1, 86617, Note_on_c, 0, 70, 97
1, 86656, Note_off_c, 0, 70, 97
1, 86659, Note_on_c, 0, 72, 93
1, 86698, Note_off_c, 0, 72, 93
1, 86704, Note_on_c, 0, 69, 110
1, 86908, Note_off_c, 0, 69, 110
1, 87190, Note_on_c, 0, 68, 106
1, 87241, Note_off_c, 0, 68, 106
1, 87241, Note_on_c, 0, 67, 103
1, 87283, Note_off_c, 0, 67, 103
1, 87283, Note_on_c, 0, 66, 107
1, 87380, Note_off_c, 0, 66, 107
1, 87386, Note_on_c, 0, 70, 100
1, 87473, Note_off_c, 0, 70, 100
1, 87473, Note_on_c, 0, 70, 99
1, 87484, Note_off_c, 0, 70, 99
1, 87484, Note_on_c, 0, 65, 93
1, 87543, Note_off_c, 0, 65, 93
1, 87566, Note_on_c, 0, 64, 98
1, 87634, Note_off_c, 0, 64, 98
1, 87634, Note_on_c, 0, 63, 98
1, 87734, Note_off_c, 0, 63, 98
1, 87734, Note_on_c, 0, 63, 93
1, 87747, Note_off_c, 0, 63, 93
1, 87771, Note_on_c, 0, 58, 96
1, 87828, Note_off_c, 0, 58, 96
1, 87830, Note_on_c, 0, 61, 102
1, 87950, Note_off_c, 0, 61, 102
1, 87956, Note_on_c, 0, 59, 98
1, 87998, Note_off_c, 0, 59, 98
1, 88017, Note_on_c, 0, 60, 90
1, 88088, Note_off_c, 0, 60, 90
1, 88130, Note_on_c, 0, 66, 105
1, 88201, Note_off_c, 0, 66, 105
1, 88201, Note_on_c, 0, 67, 101
1, 88301, Note_off_c, 0, 67, 101
1, 88301, Note_on_c, 0, 67, 103
1, 88317, Note_off_c, 0, 67, 103
1, 88320, Note_on_c, 0, 65, 97
1, 88404, Note_off_c, 0, 65, 97
1, 88404, Note_on_c, 0, 60, 90
1, 88481, Note_off_c, 0, 60, 90
1, 88493, Note_on_c, 0, 57, 93
1, 88551, Note_off_c, 0, 57, 93
1, 88575, Note_on_c, 0, 64, 97
1, 88685, Note_off_c, 0, 64, 97
1, 88704, Note_on_c, 0, 63, 98
1, 88756, Note_off_c, 0, 63, 98
1, 88756, Note_on_c, 0, 62, 100
1, 88869, Note_off_c, 0, 62, 100
1, 88953, Note_on_c, 0, 68, 101
1, 89057, Note_off_c, 0, 68, 101
1, 89057, Note_on_c, 0, 67, 101
1, 89122, Note_off_c, 0, 67, 101
1, 89123, Note_on_c, 0, 68, 103
1, 89222, Note_off_c, 0, 68, 103
1, 89228, Note_on_c, 0, 70, 99
1, 89319, Note_off_c, 0, 70, 99
1, 89324, Note_on_c, 0, 70, 102
1, 89346, Note_off_c, 0, 70, 102
1, 89346, Note_on_c, 0, 72, 99
1, 89431, Note_on_c, 0, 75, 98
1, 89431, Note_off_c, 0, 72, 99
1, 89494, Note_off_c, 0, 75, 98
1, 89517, Note_on_c, 0, 73, 105
1, 89621, Note_off_c, 0, 73, 105
1, 89621, Note_on_c, 0, 75, 98
1, 89644, Note_off_c, 0, 75, 98
1, 89653, Note_on_c, 0, 73, 100
1, 89671, Note_off_c, 0, 73, 100
1, 89681, Note_on_c, 0, 72, 97
1, 89807, Note_off_c, 0, 72, 97
1, 89816, Note_on_c, 0, 68, 92
1, 90080, Note_off_c, 0, 68, 92
1, 90383, Note_on_c, 0, 66, 109
1, 90444, Note_off_c, 0, 66, 109
1, 90444, Note_on_c, 0, 67, 104
1, 90548, Note_off_c, 0, 67, 104
1, 90549, Note_on_c, 0, 62, 96
1, 90638, Note_off_c, 0, 62, 96
1, 90654, Note_on_c, 0, 71, 99
1, 90758, Note_off_c, 0, 71, 99
1, 90758, Note_on_c, 0, 67, 106
1, 90839, Note_off_c, 0, 67, 106
1, 90848, Note_on_c, 0, 66, 109
1, 90942, Note_off_c, 0, 66, 109
1, 90942, Note_on_c, 0, 69, 107
1, 91010, Note_off_c, 0, 69, 107
1, 91026, Note_on_c, 0, 67, 96
1, 91100, Note_off_c, 0, 67, 96
1, 91117, Note_on_c, 0, 65, 93
1, 91189, Note_off_c, 0, 65, 93
1, 91210, Note_on_c, 0, 64, 94
1, 91327, Note_off_c, 0, 64, 94
1, 91348, Note_on_c, 0, 60, 100
1, 91393, Note_off_c, 0, 60, 100
1, 91403, Note_on_c, 0, 62, 89
1, 91503, Note_off_c, 0, 62, 89
1, 91515, Note_on_c, 0, 60, 87
1, 91573, Note_off_c, 0, 60, 87
1, 91585, Note_on_c, 0, 65, 91
1, 91672, Note_off_c, 0, 65, 91
1, 91682, Note_on_c, 0, 65, 88
1, 91753, Note_off_c, 0, 65, 88
1, 91964, Note_on_c, 0, 68, 103
1, 92081, Note_off_c, 0, 68, 103
1, 92148, Note_on_c, 0, 65, 101
1, 92271, Note_off_c, 0, 65, 101
1, 92284, Note_on_c, 0, 65, 102
1, 92329, Note_off_c, 0, 65, 102
1, 92543, Note_on_c, 0, 63, 98
1, 92666, Note_off_c, 0, 63, 98
1, 92715, Note_on_c, 0, 60, 92
1, 92835, Note_off_c, 0, 60, 92
1, 92854, Note_on_c, 0, 60, 96
1, 92896, Note_off_c, 0, 60, 96
1, 93087, Note_on_c, 0, 63, 94
1, 93204, Note_off_c, 0, 63, 94
1, 93279, Note_on_c, 0, 60, 91
1, 93389, Note_off_c, 0, 60, 91
1, 93399, Note_on_c, 0, 60, 92
1, 93460, Note_off_c, 0, 60, 92
1, 93518, Note_on_c, 0, 58, 103
1, 93586, Note_off_c, 0, 58, 103
1, 93683, Note_on_c, 0, 56, 97
1, 93754, Note_off_c, 0, 56, 97
1, 93754, Note_on_c, 0, 57, 103
1, 93815, Note_off_c, 0, 57, 103
1, 93855, Note_on_c, 0, 53, 94
1, 94042, Note_off_c, 0, 53, 94
1, 94042, End_track
0, 0, End_of_file
