0, 0, Header, 1, 1, 192
1, 0, Start_track
1, 0, Title_t, "Melody"
1, 0, Tempo, 422535
1, 0, Key_signature, 0, "major"
1, 0, Time_signature, 4, 2, 24, 8
1, 1554, Note_on_c, 0, 64, 106
1, 1600, Note_off_c, 0, 64, 106
1, 1619, Note_on_c, 0, 67, 113
1, 1733, Note_off_c, 0, 67, 113
1, 1764, Note_on_c, 0, 62, 102
1, 1973, Note_off_c, 0, 62, 102
1, 1984, Note_on_c, 0, 59, 109
1, 2015, Note_off_c, 0, 59, 109
1, 2025, Note_on_c, 0, 60, 103
1, 2069, Note_off_c, 0, 60, 103
1, 2080, Note_on_c, 0, 62, 109
1, 2112, Note_off_c, 0, 62, 109
1, 2128, Note_on_c, 0, 59, 97
1, 2161, Note_off_c, 0, 59, 97
1, 2171, Note_on_c, 0, 60, 103
1, 2201, Note_off_c, 0, 60, 103
1, 2206, Note_on_c, 0, 62, 105
1, 2235, Note_off_c, 0, 62, 105
1, 2240, Note_on_c, 0, 64, 107
1, 2268, Note_off_c, 0, 64, 107
1, 2270, Note_on_c, 0, 65, 117
1, 2308, Note_off_c, 0, 65, 117
1, 2316, Note_on_c, 0, 67, 114
1, 2354, Note_off_c, 0, 67, 114
1, 2360, Note_on_c, 0, 69, 116
1, 2407, Note_off_c, 0, 69, 116
1, 2412, Note_on_c, 0, 71, 103
1, 2429, Note_off_c, 0, 71, 103
1, 2431, Note_on_c, 0, 72, 109
1, 2472, Note_off_c, 0, 72, 109
1, 2482, Note_on_c, 0, 74, 119
1, 2801, Note_off_c, 0, 74, 119
1, 2807, Note_on_c, 0, 72, 116
1, 2953, Note_off_c, 0, 72, 116
1, 2957, Note_on_c, 0, 71, 105
1, 3047, Note_off_c, 0, 71, 105
1, 3053, Note_on_c, 0, 69, 117
1, 3189, Note_off_c, 0, 69, 117
1, 3195, Note_on_c, 0, 67, 111
1, 3413, Note_off_c, 0, 67, 111
1, 3415, Note_on_c, 0, 65, 111
1, 3449, Note_off_c, 0, 65, 111
1, 3458, Note_on_c, 0, 64, 100
1, 3535, Note_off_c, 0, 64, 100
1, 3541, Note_on_c, 0, 65, 109
1, 3599, Note_off_c, 0, 65, 109
1, 3639, Note_on_c, 0, 69, 121
1, 3766, Note_off_c, 0, 69, 121
1, 3770, Note_on_c, 0, 67, 120
1, 3819, Note_off_c, 0, 67, 120
1, 3824, Note_on_c, 0, 65, 112
1, 3894, Note_off_c, 0, 65, 112
1, 3903, Note_on_c, 0, 64, 100
1, 3950, Note_off_c, 0, 64, 100
1, 3960, Note_on_c, 0, 62, 105
1, 4238, Note_off_c, 0, 62, 105
1, 4249, Note_on_c, 0, 60, 102
1, 4311, Note_off_c, 0, 60, 102
1, 4319, Note_on_c, 0, 59, 102
1, 4346, Note_off_c, 0, 59, 102
1, 4353, Note_on_c, 0, 60, 101
1, 4390, Note_off_c, 0, 60, 101
1, 4397, Note_on_c, 0, 62, 111
1, 4425, Note_off_c, 0, 62, 111
1, 4445, Note_on_c, 0, 57, 97
1, 4697, Note_off_c, 0, 57, 97
1, 5012, Note_on_c, 0, 55, 108
1, 5100, Note_off_c, 0, 55, 108
1, 5117, Note_on_c, 0, 60, 108
1, 5205, Note_off_c, 0, 60, 108
1, 5211, Note_on_c, 0, 64, 107
1, 5334, Note_off_c, 0, 64, 107
1, 5340, Note_on_c, 0, 67, 117
1, 5496, Note_off_c, 0, 67, 117
1, 5507, Note_on_c, 0, 64, 105
1, 5554, Note_off_c, 0, 64, 105
1, 5581, Note_on_c, 0, 65, 112
1, 5620, Note_off_c, 0, 65, 112
1, 5623, Note_on_c, 0, 69, 100
1, 5658, Note_off_c, 0, 69, 100
1, 5664, Note_on_c, 0, 72, 101
1, 5690, Note_off_c, 0, 72, 101
1, 5692, Note_on_c, 0, 76, 116
1, 5730, Note_off_c, 0, 76, 116
1, 5738, Note_on_c, 0, 74, 104
1, 6061, Note_off_c, 0, 74, 104
1, 6440, Note_on_c, 0, 76, 115
1, 6676, Note_off_c, 0, 76, 115
1, 6703, Note_on_c, 0, 74, 120
1, 6771, Note_off_c, 0, 74, 120
1, 6888, Note_on_c, 0, 71, 102
1, 7050, Note_off_c, 0, 71, 102
1, 7067, Note_on_c, 0, 69, 115
1, 7254, Note_off_c, 0, 69, 115
1, 7267, Note_on_c, 0, 67, 117
1, 7439, Note_off_c, 0, 67, 117
1, 7457, Note_on_c, 0, 64, 111
1, 7642, Note_off_c, 0, 64, 111
1, 7653, Note_on_c, 0, 60, 104
1, 7771, Note_off_c, 0, 60, 104
1, 7780, Note_on_c, 0, 62, 109
1, 7825, Note_off_c, 0, 62, 109
1, 7836, Note_on_c, 0, 57, 103
1, 8017, Note_off_c, 0, 57, 103
1, 8023, Note_on_c, 0, 55, 108
1, 8159, Note_off_c, 0, 55, 108
1, 8162, Note_on_c, 0, 62, 112
1, 8209, Note_off_c, 0, 62, 112
1, 8220, Note_on_c, 0, 59, 109
1, 8258, Note_off_c, 0, 59, 109
1, 8266, Note_on_c, 0, 60, 100
1, 8308, Note_off_c, 0, 60, 100
1, 8319, Note_on_c, 0, 62, 111
1, 8366, Note_off_c, 0, 62, 111
1, 8377, Note_on_c, 0, 64, 110
1, 8415, Note_off_c, 0, 64, 110
1, 8423, Note_on_c, 0, 65, 116
1, 8483, Note_off_c, 0, 65, 116
1, 8820, Note_on_c, 0, 59, 116
1, 8943, Note_off_c, 0, 59, 116
1, 8956, Note_on_c, 0, 57, 111
1, 8999, Note_off_c, 0, 57, 111
1, 9012, Note_on_c, 0, 55, 108
1, 9045, Note_off_c, 0, 55, 108
1, 9048, Note_on_c, 0, 57, 107
1, 9098, Note_off_c, 0, 57, 107
1, 9103, Note_on_c, 0, 59, 106
1, 9144, Note_off_c, 0, 59, 106
1, 9150, Note_on_c, 0, 60, 99
1, 9193, Note_off_c, 0, 60, 99
1, 9200, Note_on_c, 0, 62, 110
1, 9237, Note_off_c, 0, 62, 110
1, 9244, Note_on_c, 0, 64, 107
1, 9274, Note_off_c, 0, 64, 107
1, 9281, Note_on_c, 0, 65, 110
1, 9322, Note_off_c, 0, 65, 110
1, 9329, Note_on_c, 0, 67, 105
1, 9374, Note_off_c, 0, 67, 105
1, 9381, Note_on_c, 0, 69, 112
1, 9415, Note_off_c, 0, 69, 112
1, 9429, Note_on_c, 0, 61, 93
1, 9467, Note_off_c, 0, 61, 93
1, 9475, Note_on_c, 0, 62, 97
1, 9519, Note_off_c, 0, 62, 97
1, 9520, Note_on_c, 0, 64, 103
1, 9545, Note_off_c, 0, 64, 103
1, 9556, Note_on_c, 0, 65, 114
1, 9589, Note_off_c, 0, 65, 114
1, 9601, Note_on_c, 0, 67, 112
1, 9652, Note_off_c, 0, 67, 112
1, 9655, Note_on_c, 0, 68, 109
1, 9681, Note_off_c, 0, 68, 109
1, 9687, Note_on_c, 0, 69, 103
1, 9725, Note_off_c, 0, 69, 103
1, 9734, Note_on_c, 0, 72, 119
1, 9769, Note_off_c, 0, 72, 119
1, 9799, Note_on_c, 0, 60, 99
1, 9822, Note_off_c, 0, 60, 99
1, 9829, Note_on_c, 0, 59, 95
1, 9884, Note_off_c, 0, 59, 95
1, 9890, Note_on_c, 0, 60, 98
1, 9912, Note_off_c, 0, 60, 98
1, 9918, Note_on_c, 0, 62, 107
1, 9948, Note_off_c, 0, 62, 107
1, 9953, Note_on_c, 0, 63, 106
1, 9977, Note_off_c, 0, 63, 106
1, 9981, Note_on_c, 0, 65, 105
1, 9997, Note_off_c, 0, 65, 105
1, 10000, Note_on_c, 0, 67, 115
1, 10031, Note_off_c, 0, 67, 115
1, 10035, Note_on_c, 0, 69, 109
1, 10069, Note_off_c, 0, 69, 109
1, 10075, Note_on_c, 0, 72, 102
1, 10110, Note_off_c, 0, 72, 102
1, 10121, Note_on_c, 0, 74, 111
1, 10156, Note_off_c, 0, 74, 111
1, 10162, Note_on_c, 0, 76, 111
1, 10285, Note_off_c, 0, 76, 111
1, 10295, Note_on_c, 0, 79, 111
1, 10484, Note_off_c, 0, 79, 111
1, 10494, Note_on_c, 0, 76, 109
1, 10521, Note_off_c, 0, 76, 109
1, 10524, Note_on_c, 0, 72, 109
1, 10556, Note_off_c, 0, 72, 109
1, 10563, Note_on_c, 0, 69, 108
1, 10695, Note_off_c, 0, 69, 108
1, 10705, Note_on_c, 0, 72, 115
1, 10820, Note_off_c, 0, 72, 115
1, 10830, Note_on_c, 0, 76, 119
1, 10992, Note_off_c, 0, 76, 119
1, 11000, Note_on_c, 0, 72, 110
1, 11021, Note_off_c, 0, 72, 110
1, 11025, Note_on_c, 0, 69, 100
1, 11043, Note_off_c, 0, 69, 100
1, 11052, Note_on_c, 0, 65, 107
1, 11069, Note_off_c, 0, 65, 107
1, 11082, Note_on_c, 0, 62, 87
1, 11142, Note_off_c, 0, 62, 87
1, 11256, Note_on_c, 0, 71, 108
1, 11353, Note_off_c, 0, 71, 108
1, 11363, Note_on_c, 0, 74, 118
1, 11452, Note_off_c, 0, 74, 118
1, 11463, Note_on_c, 0, 71, 104
1, 11543, Note_off_c, 0, 71, 104
1, 11554, Note_on_c, 0, 67, 116
1, 11621, Note_off_c, 0, 67, 116
1, 11634, Note_on_c, 0, 64, 96
1, 11752, Note_off_c, 0, 64, 96
1, 11770, Note_on_c, 0, 60, 82
1, 11810, Note_off_c, 0, 60, 82
1, 11817, Note_on_c, 0, 62, 103
1, 11936, Note_off_c, 0, 62, 103
1, 11945, Note_on_c, 0, 58, 101
1, 12090, Note_off_c, 0, 58, 101
1, 12210, Note_on_c, 0, 60, 99
1, 12262, Note_off_c, 0, 60, 99
1, 12504, Note_on_c, 0, 73, 122
1, 12847, Note_off_c, 0, 73, 122
1, 12858, Note_on_c, 0, 71, 104
1, 12902, Note_off_c, 0, 71, 104
1, 12908, Note_on_c, 0, 73, 109
1, 12959, Note_off_c, 0, 73, 109
1, 12969, Note_on_c, 0, 70, 116
1, 13073, Note_off_c, 0, 70, 116
1, 13081, Note_on_c, 0, 68, 116
1, 13130, Note_off_c, 0, 68, 116
1, 13137, Note_on_c, 0, 70, 104
1, 13197, Note_off_c, 0, 70, 104
1, 13206, Note_on_c, 0, 66, 106
1, 13407, Note_off_c, 0, 66, 106
1, 13418, Note_on_c, 0, 65, 111
1, 13467, Note_off_c, 0, 65, 111
1, 13480, Note_on_c, 0, 66, 116
1, 13539, Note_off_c, 0, 66, 116
1, 13551, Note_on_c, 0, 63, 105
1, 13828, Note_off_c, 0, 63, 105
1, 14009, Note_on_c, 0, 61, 104
1, 14057, Note_off_c, 0, 61, 104
1, 14081, Note_on_c, 0, 63, 103
1, 14133, Note_off_c, 0, 63, 103
1, 14190, Note_on_c, 0, 60, 106
1, 14331, Note_off_c, 0, 60, 106
1, 14336, Note_on_c, 0, 61, 106
1, 14399, Note_off_c, 0, 61, 106
1, 14444, Note_on_c, 0, 58, 110
1, 14523, Note_off_c, 0, 58, 110
1, 14533, Note_on_c, 0, 60, 101
1, 14571, Note_off_c, 0, 60, 101
1, 14580, Note_on_c, 0, 56, 109
1, 14796, Note_off_c, 0, 56, 109
1, 14800, Note_on_c, 0, 58, 107
1, 14844, Note_off_c, 0, 58, 107
1, 14848, Note_on_c, 0, 60, 108
1, 14893, Note_off_c, 0, 60, 108
1, 14896, Note_on_c, 0, 61, 107
1, 14941, Note_off_c, 0, 61, 107
1, 14957, Note_on_c, 0, 63, 108
1, 14989, Note_off_c, 0, 63, 108
1, 14999, Note_on_c, 0, 65, 111
1, 15033, Note_off_c, 0, 65, 111
1, 15037, Note_on_c, 0, 66, 107
1, 15074, Note_off_c, 0, 66, 107
1, 15083, Note_on_c, 0, 68, 114
1, 15134, Note_off_c, 0, 68, 114
1, 15137, Note_on_c, 0, 70, 111
1, 15171, Note_off_c, 0, 70, 111
1, 15175, Note_on_c, 0, 72, 102
1, 15215, Note_off_c, 0, 72, 102
1, 15221, Note_on_c, 0, 73, 116
1, 15262, Note_off_c, 0, 73, 116
1, 15272, Note_on_c, 0, 77, 105
1, 15359, Note_off_c, 0, 77, 105
1, 15364, Note_on_c, 0, 80, 107
1, 15551, Note_off_c, 0, 80, 107
1, 15721, Note_on_c, 0, 77, 117
1, 15781, Note_off_c, 0, 77, 117
1, 15784, Note_on_c, 0, 78, 108
1, 15855, Note_off_c, 0, 78, 108
1, 15862, Note_on_c, 0, 77, 113
1, 15883, Note_off_c, 0, 77, 113
1, 15884, Note_on_c, 0, 75, 113
1, 15924, Note_off_c, 0, 75, 113
1, 15927, Note_on_c, 0, 74, 115
1, 15991, Note_off_c, 0, 74, 115
1, 16221, Note_on_c, 0, 73, 116
1, 16335, Note_off_c, 0, 73, 116
1, 16369, Note_on_c, 0, 70, 113
1, 16453, Note_off_c, 0, 70, 113
1, 16483, Note_on_c, 0, 66, 108
1, 16547, Note_off_c, 0, 66, 108
1, 16556, Note_on_c, 0, 63, 103
1, 16615, Note_off_c, 0, 63, 103
1, 16657, Note_on_c, 0, 72, 122
1, 16711, Note_off_c, 0, 72, 122
1, 16722, Note_on_c, 0, 68, 117
1, 16773, Note_off_c, 0, 68, 117
1, 16779, Note_on_c, 0, 65, 110
1, 16816, Note_off_c, 0, 65, 110
1, 16825, Note_on_c, 0, 61, 96
1, 16872, Note_off_c, 0, 61, 96
1, 16877, Note_on_c, 0, 58, 90
1, 16895, Note_off_c, 0, 58, 90
1, 16924, Note_on_c, 0, 70, 119
1, 17034, Note_off_c, 0, 70, 119
1, 17040, Note_on_c, 0, 66, 116
1, 17079, Note_off_c, 0, 66, 116
1, 17099, Note_on_c, 0, 63, 105
1, 17154, Note_off_c, 0, 63, 105
1, 17165, Note_on_c, 0, 58, 102
1, 17199, Note_off_c, 0, 58, 102
1, 17209, Note_on_c, 0, 61, 109
1, 17252, Note_off_c, 0, 61, 109
1, 17261, Note_on_c, 0, 59, 97
1, 17304, Note_off_c, 0, 59, 97
1, 17311, Note_on_c, 0, 60, 93
1, 17368, Note_off_c, 0, 60, 93
1, 17377, Note_on_c, 0, 68, 123
1, 17444, Note_off_c, 0, 68, 123
1, 17471, Note_on_c, 0, 65, 110
1, 17519, Note_off_c, 0, 65, 110
1, 17527, Note_on_c, 0, 66, 94
1, 17561, Note_off_c, 0, 66, 94
1, 17572, Note_on_c, 0, 70, 118
1, 17653, Note_off_c, 0, 70, 118
1, 17949, Note_on_c, 0, 72, 125
1, 18003, Note_off_c, 0, 72, 125
1, 18038, Note_on_c, 0, 73, 116
1, 18127, Note_off_c, 0, 73, 116
1, 18132, Note_on_c, 0, 73, 115
1, 18189, Note_off_c, 0, 73, 115
1, 18207, Note_on_c, 0, 77, 114
1, 18306, Note_off_c, 0, 77, 114
1, 18316, Note_on_c, 0, 77, 113
1, 18374, Note_off_c, 0, 77, 113
1, 18382, Note_on_c, 0, 70, 114
1, 18491, Note_off_c, 0, 70, 114
1, 18497, Note_on_c, 0, 70, 118
1, 18557, Note_off_c, 0, 70, 118
1, 18581, Note_on_c, 0, 73, 113
1, 18675, Note_off_c, 0, 73, 113
1, 18686, Note_on_c, 0, 73, 114
1, 18749, Note_off_c, 0, 73, 114
1, 18772, Note_on_c, 0, 74, 115
1, 18876, Note_off_c, 0, 74, 115
1, 18885, Note_on_c, 0, 74, 117
1, 18942, Note_off_c, 0, 74, 117
1, 18965, Note_on_c, 0, 71, 87
1, 19063, Note_off_c, 0, 71, 87
1, 19073, Note_on_c, 0, 71, 109
1, 19136, Note_off_c, 0, 71, 109
1, 19144, Note_on_c, 0, 67, 103
1, 19257, Note_off_c, 0, 67, 103
1, 19262, Note_on_c, 0, 67, 116
1, 19316, Note_off_c, 0, 67, 116
1, 19346, Note_on_c, 0, 64, 103
1, 19475, Note_off_c, 0, 64, 103
1, 19518, Note_on_c, 0, 65, 107
1, 19700, Note_off_c, 0, 65, 107
1, 19705, Note_on_c, 0, 64, 107
1, 19832, Note_off_c, 0, 64, 107
1, 19851, Note_on_c, 0, 62, 85
1, 19902, Note_off_c, 0, 62, 85
1, 19912, Note_on_c, 0, 65, 112
1, 20093, Note_off_c, 0, 65, 112
1, 20099, Note_on_c, 0, 64, 105
1, 20238, Note_off_c, 0, 64, 105
1, 20249, Note_on_c, 0, 55, 96
1, 20475, Note_off_c, 0, 55, 96
1, 20748, Note_on_c, 0, 55, 112
1, 20857, Note_off_c, 0, 55, 112
1, 20881, Note_on_c, 0, 59, 104
1, 21012, Note_off_c, 0, 59, 104
1, 21020, Note_on_c, 0, 62, 115
1, 21125, Note_off_c, 0, 62, 115
1, 21130, Note_on_c, 0, 65, 120
1, 21263, Note_off_c, 0, 65, 120
1, 21273, Note_on_c, 0, 64, 110
1, 21446, Note_off_c, 0, 64, 110
1, 21459, Note_on_c, 0, 65, 114
1, 21516, Note_off_c, 0, 65, 114
1, 21518, Note_on_c, 0, 69, 108
1, 21550, Note_off_c, 0, 69, 108
1, 21551, Note_on_c, 0, 72, 108
1, 21586, Note_off_c, 0, 72, 108
1, 21593, Note_on_c, 0, 76, 121
1, 21751, Note_off_c, 0, 76, 121
1, 21755, Note_on_c, 0, 79, 113
1, 21996, Note_off_c, 0, 79, 113
1, 22002, Note_on_c, 0, 76, 111
1, 22058, Note_off_c, 0, 76, 111
1, 22062, Note_on_c, 0, 77, 102
1, 22093, Note_off_c, 0, 77, 102
1, 22098, Note_on_c, 0, 73, 106
1, 22185, Note_off_c, 0, 73, 106
1, 22382, Note_on_c, 0, 76, 116
1, 22448, Note_off_c, 0, 76, 116
1, 22457, Note_on_c, 0, 74, 119
1, 22552, Note_off_c, 0, 74, 119
1, 22561, Note_on_c, 0, 69, 110
1, 22672, Note_off_c, 0, 69, 110
1, 22761, Note_on_c, 0, 72, 121
1, 22799, Note_off_c, 0, 72, 121
1, 22807, Note_on_c, 0, 74, 116
1, 22825, Note_off_c, 0, 74, 116
1, 22834, Note_on_c, 0, 72, 108
1, 22847, Note_off_c, 0, 72, 108
1, 22854, Note_on_c, 0, 69, 116
1, 22902, Note_off_c, 0, 69, 116
1, 22914, Note_on_c, 0, 65, 109
1, 22941, Note_off_c, 0, 65, 109
1, 22946, Note_on_c, 0, 62, 98
1, 22985, Note_off_c, 0, 62, 98
1, 22998, Note_on_c, 0, 65, 92
1, 23035, Note_off_c, 0, 65, 92
1, 23050, Note_on_c, 0, 69, 101
1, 23076, Note_off_c, 0, 69, 101
1, 23088, Note_on_c, 0, 72, 94
1, 23118, Note_off_c, 0, 72, 94
1, 23127, Note_on_c, 0, 76, 118
1, 23187, Note_off_c, 0, 76, 118
1, 23198, Note_on_c, 0, 74, 114
1, 23242, Note_off_c, 0, 74, 114
1, 23503, Note_on_c, 0, 72, 122
1, 23570, Note_off_c, 0, 72, 122
1, 23577, Note_on_c, 0, 69, 117
1, 23632, Note_off_c, 0, 69, 117
1, 23711, Note_on_c, 0, 67, 106
1, 23766, Note_off_c, 0, 67, 106
1, 23782, Note_on_c, 0, 65, 100
1, 23837, Note_off_c, 0, 65, 100
1, 23897, Note_on_c, 0, 60, 98
1, 23941, Note_off_c, 0, 60, 98
1, 23960, Note_on_c, 0, 57, 98
1, 24020, Note_off_c, 0, 57, 98
1, 24099, Note_on_c, 0, 64, 104
1, 24160, Note_off_c, 0, 64, 104
1, 24172, Note_on_c, 0, 62, 105
1, 24232, Note_off_c, 0, 62, 105
1, 24661, Note_on_c, 0, 64, 110
1, 24768, Note_off_c, 0, 64, 110
1, 24820, Note_on_c, 0, 65, 110
1, 25005, Note_off_c, 0, 65, 110
1, 25018, Note_on_c, 0, 64, 110
1, 25114, Note_off_c, 0, 64, 110
1, 25203, Note_on_c, 0, 55, 106
1, 25340, Note_off_c, 0, 55, 106
1, 25345, Note_on_c, 0, 55, 110
1, 25402, Note_off_c, 0, 55, 110
1, 26171, Note_on_c, 0, 62, 109
1, 26320, Note_off_c, 0, 62, 109
1, 26366, Note_on_c, 0, 65, 112
1, 26552, Note_off_c, 0, 65, 112
1, 26562, Note_on_c, 0, 69, 123
1, 26679, Note_off_c, 0, 69, 123
1, 26699, Note_on_c, 0, 64, 106
1, 26750, Note_off_c, 0, 64, 106
1, 26758, Note_on_c, 0, 72, 125
1, 26900, Note_off_c, 0, 72, 125
1, 26901, Note_on_c, 0, 69, 114
1, 26987, Note_off_c, 0, 69, 114
1, 27334, Note_on_c, 0, 59, 116
1, 27387, Note_off_c, 0, 59, 116
1, 27394, Note_on_c, 0, 60, 102
1, 27438, Note_off_c, 0, 60, 102
1, 27448, Note_on_c, 0, 62, 103
1, 27487, Note_off_c, 0, 62, 103
1, 27496, Note_on_c, 0, 64, 102
1, 27527, Note_off_c, 0, 64, 102
1, 27531, Note_on_c, 0, 65, 111
1, 27572, Note_off_c, 0, 65, 111
1, 27579, Note_on_c, 0, 67, 113
1, 27629, Note_off_c, 0, 67, 113
1, 27634, Note_on_c, 0, 69, 108
1, 27687, Note_off_c, 0, 69, 108
1, 27695, Note_on_c, 0, 71, 96
1, 27722, Note_off_c, 0, 71, 96
1, 27727, Note_on_c, 0, 72, 124
1, 27890, Note_off_c, 0, 72, 124
1, 27901, Note_on_c, 0, 74, 127
1, 28055, Note_off_c, 0, 74, 127
1, 28066, Note_on_c, 0, 72, 121
1, 28099, Note_off_c, 0, 72, 121
1, 28106, Note_on_c, 0, 71, 108
1, 28155, Note_off_c, 0, 71, 108
1, 28165, Note_on_c, 0, 69, 113
1, 28232, Note_off_c, 0, 69, 113
1, 28236, Note_on_c, 0, 67, 104
1, 28545, Note_off_c, 0, 67, 104
1, 28555, Note_on_c, 0, 66, 108
1, 28611, Note_off_c, 0, 66, 108
1, 28618, Note_on_c, 0, 67, 114
1, 28699, Note_off_c, 0, 67, 114
1, 28716, Note_on_c, 0, 69, 123
1, 28784, Note_off_c, 0, 69, 123
1, 28792, Note_on_c, 0, 67, 122
1, 28854, Note_off_c, 0, 67, 122
1, 28865, Note_on_c, 0, 65, 112
1, 28921, Note_off_c, 0, 65, 112
1, 28928, Note_on_c, 0, 64, 106
1, 28993, Note_off_c, 0, 64, 106
1, 28999, Note_on_c, 0, 62, 111
1, 29076, Note_off_c, 0, 62, 111
1, 29092, Note_on_c, 0, 64, 99
1, 29112, Note_off_c, 0, 64, 99
1, 29121, Note_on_c, 0, 62, 101
1, 29142, Note_off_c, 0, 62, 101
1, 29150, Note_on_c, 0, 61, 99
1, 29191, Note_off_c, 0, 61, 99
1, 29201, Note_on_c, 0, 62, 100
1, 29248, Note_off_c, 0, 62, 100
1, 29261, Note_on_c, 0, 64, 114
1, 29306, Note_off_c, 0, 64, 114
1, 29317, Note_on_c, 0, 61, 104
1, 29354, Note_off_c, 0, 61, 104
1, 29361, Note_on_c, 0, 62, 102
1, 29405, Note_off_c, 0, 62, 102
1, 29414, Note_on_c, 0, 64, 100
1, 29445, Note_off_c, 0, 64, 100
1, 29451, Note_on_c, 0, 65, 111
1, 29480, Note_off_c, 0, 65, 111
1, 29594, Note_on_c, 0, 59, 94
1, 29627, Note_off_c, 0, 59, 94
1, 29647, Note_on_c, 0, 64, 115
1, 29674, Note_off_c, 0, 64, 115
1, 29685, Note_on_c, 0, 62, 105
1, 29723, Note_off_c, 0, 62, 105
1, 29733, Note_on_c, 0, 59, 105
1, 29781, Note_off_c, 0, 59, 105
1, 29792, Note_on_c, 0, 57, 107
1, 29828, Note_off_c, 0, 57, 107
1, 29841, Note_on_c, 0, 55, 104
1, 29874, Note_off_c, 0, 55, 104
1, 29882, Note_on_c, 0, 54, 98
1, 29913, Note_off_c, 0, 54, 98
1, 29922, Note_on_c, 0, 53, 89
1, 29950, Note_off_c, 0, 53, 89
1, 29957, Note_on_c, 0, 52, 99
1, 29984, Note_off_c, 0, 52, 99
1, 29990, Note_on_c, 0, 64, 93
1, 30170, Note_off_c, 0, 64, 93
1, 30902, Note_on_c, 0, 72, 123
1, 31126, Note_off_c, 0, 72, 123
1, 31153, Note_on_c, 0, 76, 119
1, 31255, Note_off_c, 0, 76, 119
1, 31348, Note_on_c, 0, 76, 118
1, 31465, Note_off_c, 0, 76, 118
1, 31475, Note_on_c, 0, 72, 116
1, 31536, Note_off_c, 0, 72, 116
1, 31547, Note_on_c, 0, 72, 114
1, 31613, Note_off_c, 0, 72, 114
1, 31732, Note_on_c, 0, 72, 117
1, 31844, Note_off_c, 0, 72, 117
1, 31923, Note_on_c, 0, 72, 114
1, 32027, Note_off_c, 0, 72, 114
1, 32109, Note_on_c, 0, 72, 113
1, 32222, Note_off_c, 0, 72, 113
1, 32237, Note_on_c, 0, 69, 95
1, 32292, Note_off_c, 0, 69, 95
1, 32312, Note_on_c, 0, 69, 106
1, 32421, Note_off_c, 0, 69, 106
1, 32506, Note_on_c, 0, 69, 102
1, 32607, Note_off_c, 0, 69, 102
1, 32687, Note_on_c, 0, 69, 107
1, 32787, Note_off_c, 0, 69, 107
1, 32883, Note_on_c, 0, 69, 110
1, 33001, Note_off_c, 0, 69, 110
1, 33010, Note_on_c, 0, 64, 102
1, 33069, Note_off_c, 0, 64, 102
1, 33083, Note_on_c, 0, 64, 85
1, 33259, Note_off_c, 0, 64, 85
1, 33278, Note_on_c, 0, 64, 97
1, 33434, Note_off_c, 0, 64, 97
1, 33446, Note_on_c, 0, 64, 107
1, 33503, Note_off_c, 0, 64, 107
1, 33616, Note_on_c, 0, 64, 109
1, 33651, Note_off_c, 0, 64, 109
1, 33992, Note_on_c, 0, 69, 115
1, 34083, Note_off_c, 0, 69, 115
1, 34155, Note_on_c, 0, 72, 119
1, 34217, Note_off_c, 0, 72, 119
1, 34256, Note_on_c, 0, 76, 117
1, 34355, Note_off_c, 0, 76, 117
1, 34368, Note_on_c, 0, 79, 125
1, 34439, Note_off_c, 0, 79, 125
1, 34447, Note_on_c, 0, 78, 115
1, 34466, Note_off_c, 0, 78, 115
1, 34473, Note_on_c, 0, 77, 115
1, 34494, Note_off_c, 0, 77, 115
1, 34499, Note_on_c, 0, 76, 117
1, 34532, Note_off_c, 0, 76, 117
1, 34539, Note_on_c, 0, 77, 114
1, 34569, Note_off_c, 0, 77, 114
1, 34575, Note_on_c, 0, 76, 115
1, 34601, Note_off_c, 0, 76, 115
1, 34608, Note_on_c, 0, 75, 107
1, 34627, Note_off_c, 0, 75, 107
1, 34634, Note_on_c, 0, 74, 112
1, 34657, Note_off_c, 0, 74, 112
1, 34724, Note_on_c, 0, 76, 115
1, 34779, Note_off_c, 0, 76, 115
1, 34783, Note_on_c, 0, 75, 108
1, 34813, Note_off_c, 0, 75, 108
1, 34823, Note_on_c, 0, 74, 105
1, 34843, Note_off_c, 0, 74, 105
1, 34850, Note_on_c, 0, 72, 82
1, 34892, Note_off_c, 0, 72, 82
1, 34967, Note_on_c, 0, 74, 123
1, 35115, Note_off_c, 0, 74, 123
1, 35132, Note_on_c, 0, 72, 112
1, 35157, Note_off_c, 0, 72, 112
1, 35167, Note_on_c, 0, 71, 109
1, 35209, Note_off_c, 0, 71, 109
1, 35216, Note_on_c, 0, 69, 115
1, 35253, Note_off_c, 0, 69, 115
1, 35259, Note_on_c, 0, 67, 115
1, 35323, Note_off_c, 0, 67, 115
1, 35635, Note_on_c, 0, 69, 117
1, 35682, Note_off_c, 0, 69, 117
1, 35702, Note_on_c, 0, 65, 118
1, 35738, Note_off_c, 0, 65, 118
1, 35746, Note_on_c, 0, 64, 108
1, 35781, Note_off_c, 0, 64, 108
1, 35796, Note_on_c, 0, 62, 111
1, 35830, Note_off_c, 0, 62, 111
1, 35844, Note_on_c, 0, 61, 99
1, 35876, Note_off_c, 0, 61, 99
1, 35889, Note_on_c, 0, 57, 101
1, 35914, Note_off_c, 0, 57, 101
1, 35928, Note_on_c, 0, 64, 108
1, 35966, Note_off_c, 0, 64, 108
1, 35990, Note_on_c, 0, 61, 106
1, 36024, Note_off_c, 0, 61, 106
1, 36027, Note_on_c, 0, 62, 104
1, 36055, Note_off_c, 0, 62, 104
1, 36063, Note_on_c, 0, 64, 101
1, 36093, Note_off_c, 0, 64, 101
1, 36100, Note_on_c, 0, 65, 110
1, 36140, Note_off_c, 0, 65, 110
1, 36155, Note_on_c, 0, 67, 113
1, 36209, Note_off_c, 0, 67, 113
1, 36217, Note_on_c, 0, 68, 104
1, 36238, Note_off_c, 0, 68, 104
1, 36248, Note_on_c, 0, 69, 100
1, 36280, Note_off_c, 0, 69, 100
1, 36285, Note_on_c, 0, 72, 122
1, 36327, Note_off_c, 0, 72, 122
1, 36341, Note_on_c, 0, 69, 103
1, 36373, Note_off_c, 0, 69, 103
1, 36376, Note_on_c, 0, 71, 111
1, 36411, Note_off_c, 0, 71, 111
1, 36417, Note_on_c, 0, 69, 113
1, 36458, Note_off_c, 0, 69, 113
1, 36464, Note_on_c, 0, 67, 118
1, 36503, Note_off_c, 0, 67, 118
1, 36510, Note_on_c, 0, 65, 110
1, 36544, Note_off_c, 0, 65, 110
1, 36552, Note_on_c, 0, 64, 107
1, 36599, Note_off_c, 0, 64, 107
1, 36613, Note_on_c, 0, 62, 102
1, 36653, Note_off_c, 0, 62, 102
1, 36657, Note_on_c, 0, 61, 99
1, 36689, Note_off_c, 0, 61, 99
1, 36705, Note_on_c, 0, 57, 88
1, 36743, Note_off_c, 0, 57, 88
1, 36752, Note_on_c, 0, 60, 103
1, 36787, Note_off_c, 0, 60, 103
1, 36806, Note_on_c, 0, 57, 93
1, 36836, Note_off_c, 0, 57, 93
1, 36847, Note_on_c, 0, 62, 99
1, 36885, Note_off_c, 0, 62, 99
1, 36891, Note_on_c, 0, 64, 102
1, 36979, Note_off_c, 0, 64, 102
1, 36999, Note_on_c, 0, 60, 98
1, 37024, Note_off_c, 0, 60, 98
1, 37031, Note_on_c, 0, 67, 120
1, 37221, Note_off_c, 0, 67, 120
1, 37228, Note_on_c, 0, 68, 123
1, 37375, Note_off_c, 0, 68, 123
1, 37379, Note_on_c, 0, 67, 123
1, 37427, Note_off_c, 0, 67, 123
1, 37433, Note_on_c, 0, 66, 109
1, 37468, Note_off_c, 0, 66, 109
1, 37477, Note_on_c, 0, 68, 105
1, 37531, Note_off_c, 0, 68, 105
1, 37536, Note_on_c, 0, 70, 103
1, 37556, Note_off_c, 0, 70, 103
1, 37559, Note_on_c, 0, 72, 99
1, 37595, Note_off_c, 0, 72, 99
1, 37604, Note_on_c, 0, 77, 114
1, 38136, Note_off_c, 0, 77, 114
1, 38153, Note_on_c, 0, 73, 117
1, 38292, Note_off_c, 0, 73, 117
1, 38521, Note_on_c, 0, 70, 125
1, 38847, Note_off_c, 0, 70, 125
1, 38983, Note_on_c, 0, 73, 112
1, 39107, Note_off_c, 0, 73, 112
1, 39118, Note_on_c, 0, 70, 106
1, 39167, Note_off_c, 0, 70, 106
1, 39183, Note_on_c, 0, 64, 103
1, 39360, Note_off_c, 0, 64, 103
1, 39374, Note_on_c, 0, 61, 97
1, 39541, Note_off_c, 0, 61, 97
1, 39558, Note_on_c, 0, 56, 103
1, 39690, Note_off_c, 0, 56, 103
1, 39968, Note_on_c, 0, 56, 109
1, 40013, Note_off_c, 0, 56, 109
1, 40019, Note_on_c, 0, 58, 105
1, 40056, Note_off_c, 0, 58, 105
1, 40064, Note_on_c, 0, 60, 100
1, 40098, Note_off_c, 0, 60, 100
1, 40111, Note_on_c, 0, 61, 106
1, 40149, Note_off_c, 0, 61, 106
1, 40157, Note_on_c, 0, 63, 106
1, 40186, Note_off_c, 0, 63, 106
1, 40200, Note_on_c, 0, 65, 112
1, 40241, Note_off_c, 0, 65, 112
1, 40250, Note_on_c, 0, 66, 107
1, 40279, Note_off_c, 0, 66, 107
1, 40289, Note_on_c, 0, 68, 110
1, 40328, Note_off_c, 0, 68, 110
1, 40337, Note_on_c, 0, 70, 117
1, 40375, Note_off_c, 0, 70, 117
1, 40388, Note_on_c, 0, 72, 113
1, 40423, Note_off_c, 0, 72, 113
1, 40425, Note_on_c, 0, 73, 103
1, 40466, Note_off_c, 0, 73, 103
1, 40473, Note_on_c, 0, 75, 113
1, 40503, Note_off_c, 0, 75, 113
1, 40507, Note_on_c, 0, 77, 110
1, 40633, Note_off_c, 0, 77, 110
1, 40641, Note_on_c, 0, 73, 114
1, 40769, Note_off_c, 0, 73, 114
1, 40779, Note_on_c, 0, 75, 118
1, 40902, Note_off_c, 0, 75, 118
1, 40922, Note_on_c, 0, 72, 121
1, 40976, Note_off_c, 0, 72, 121
1, 40982, Note_on_c, 0, 73, 109
1, 41035, Note_off_c, 0, 73, 109
1, 41039, Note_on_c, 0, 70, 121
1, 41178, Note_off_c, 0, 70, 121
1, 41190, Note_on_c, 0, 66, 114
1, 41278, Note_off_c, 0, 66, 114
1, 41284, Note_on_c, 0, 65, 108
1, 41375, Note_off_c, 0, 65, 108
1, 41405, Note_on_c, 0, 63, 103
1, 41432, Note_off_c, 0, 63, 103
1, 41453, Note_on_c, 0, 68, 113
1, 41627, Note_off_c, 0, 68, 113
1, 41640, Note_on_c, 0, 66, 107
1, 41684, Note_off_c, 0, 66, 107
1, 41695, Note_on_c, 0, 68, 107
1, 41731, Note_off_c, 0, 68, 107
1, 41737, Note_on_c, 0, 70, 120
1, 41778, Note_off_c, 0, 70, 120
1, 41785, Note_on_c, 0, 66, 109
1, 41812, Note_off_c, 0, 66, 109
1, 41820, Note_on_c, 0, 63, 102
1, 41852, Note_off_c, 0, 63, 102
1, 41872, Note_on_c, 0, 58, 102
1, 41906, Note_off_c, 0, 58, 102
1, 41908, Note_on_c, 0, 61, 101
1, 41941, Note_off_c, 0, 61, 101
1, 41942, Note_on_c, 0, 70, 113
1, 41978, Note_off_c, 0, 70, 113
1, 41985, Note_on_c, 0, 66, 101
1, 42002, Note_off_c, 0, 66, 101
1, 42008, Note_on_c, 0, 63, 98
1, 42050, Note_off_c, 0, 63, 98
1, 42060, Note_on_c, 0, 58, 103
1, 42082, Note_off_c, 0, 58, 103
1, 42086, Note_on_c, 0, 61, 102
1, 42148, Note_off_c, 0, 61, 102
1, 42155, Note_on_c, 0, 58, 105
1, 42173, Note_off_c, 0, 58, 105
1, 42177, Note_on_c, 0, 60, 103
1, 42226, Note_off_c, 0, 60, 103
1, 42230, Note_on_c, 0, 65, 113
1, 42272, Note_off_c, 0, 65, 113
1, 42278, Note_on_c, 0, 64, 101
1, 42316, Note_off_c, 0, 64, 101
1, 42325, Note_on_c, 0, 60, 109
1, 42364, Note_off_c, 0, 60, 109
1, 42367, Note_on_c, 0, 68, 109
1, 42561, Note_off_c, 0, 68, 109
1, 42929, Note_on_c, 0, 69, 114
1, 42980, Note_off_c, 0, 69, 114
1, 42999, Note_on_c, 0, 68, 113
1, 43031, Note_off_c, 0, 68, 113
1, 43037, Note_on_c, 0, 69, 109
1, 43075, Note_off_c, 0, 69, 109
1, 43088, Note_on_c, 0, 76, 112
1, 43256, Note_off_c, 0, 76, 112
1, 43267, Note_on_c, 0, 74, 113
1, 43289, Note_off_c, 0, 74, 113
1, 43292, Note_on_c, 0, 73, 106
1, 43306, Note_off_c, 0, 73, 106
1, 43313, Note_on_c, 0, 69, 113
1, 43339, Note_off_c, 0, 69, 113
1, 43352, Note_on_c, 0, 64, 97
1, 43400, Note_off_c, 0, 64, 97
1, 43519, Note_on_c, 0, 61, 110
1, 43549, Note_off_c, 0, 61, 110
1, 43554, Note_on_c, 0, 62, 104
1, 43584, Note_off_c, 0, 62, 104
1, 43588, Note_on_c, 0, 64, 108
1, 43634, Note_off_c, 0, 64, 108
1, 43640, Note_on_c, 0, 63, 105
1, 43672, Note_off_c, 0, 63, 105
1, 43682, Note_on_c, 0, 62, 102
1, 43752, Note_off_c, 0, 62, 102
1, 43981, Note_on_c, 0, 56, 105
1, 44013, Note_off_c, 0, 56, 105
1, 44017, Note_on_c, 0, 57, 108
1, 44048, Note_off_c, 0, 57, 108
1, 44059, Note_on_c, 0, 60, 112
1, 44096, Note_off_c, 0, 60, 112
1, 44111, Note_on_c, 0, 57, 109
1, 44143, Note_off_c, 0, 57, 109
1, 44148, Note_on_c, 0, 59, 115
1, 44194, Note_off_c, 0, 59, 115
1, 44202, Note_on_c, 0, 57, 109
1, 44238, Note_off_c, 0, 57, 109
1, 44242, Note_on_c, 0, 55, 104
1, 44273, Note_off_c, 0, 55, 104
1, 44282, Note_on_c, 0, 57, 109
1, 44330, Note_off_c, 0, 57, 109
1, 44335, Note_on_c, 0, 59, 104
1, 44367, Note_off_c, 0, 59, 104
1, 44373, Note_on_c, 0, 60, 95
1, 44412, Note_off_c, 0, 60, 95
1, 44423, Note_on_c, 0, 62, 110
1, 44466, Note_off_c, 0, 62, 110
1, 44472, Note_on_c, 0, 63, 100
1, 44499, Note_off_c, 0, 63, 100
1, 44510, Note_on_c, 0, 65, 105
1, 44547, Note_off_c, 0, 65, 105
1, 44554, Note_on_c, 0, 67, 104
1, 44603, Note_off_c, 0, 67, 104
1, 44617, Note_on_c, 0, 69, 122
1, 44708, Note_off_c, 0, 69, 122
1, 44712, Note_on_c, 0, 69, 118
1, 44786, Note_off_c, 0, 69, 118
1, 44800, Note_on_c, 0, 72, 121
1, 44900, Note_off_c, 0, 72, 121
1, 44905, Note_on_c, 0, 72, 120
1, 44976, Note_off_c, 0, 72, 120
1, 44990, Note_on_c, 0, 65, 93
1, 45094, Note_off_c, 0, 65, 93
1, 45100, Note_on_c, 0, 65, 105
1, 45151, Note_off_c, 0, 65, 105
1, 45174, Note_on_c, 0, 69, 108
1, 45296, Note_off_c, 0, 69, 108
1, 45303, Note_on_c, 0, 69, 109
1, 45355, Note_off_c, 0, 69, 109
1, 45395, Note_on_c, 0, 55, 103
1, 45556, Note_off_c, 0, 55, 103
1, 45583, Note_on_c, 0, 64, 115
1, 45698, Note_off_c, 0, 64, 115
1, 45717, Note_on_c, 0, 55, 99
1, 45759, Note_off_c, 0, 55, 99
1, 45781, Note_on_c, 0, 62, 96
1, 45955, Note_off_c, 0, 62, 96
1, 45960, Note_on_c, 0, 64, 104
1, 46102, Note_off_c, 0, 64, 104
1, 46156, Note_on_c, 0, 67, 106
1, 46324, Note_off_c, 0, 67, 106
1, 46337, Note_on_c, 0, 69, 111
1, 46445, Note_off_c, 0, 69, 111
1, 46528, Note_on_c, 0, 64, 101
1, 46642, Note_off_c, 0, 64, 101
1, 46661, Note_on_c, 0, 55, 88
1, 46918, Note_off_c, 0, 55, 88
1, 47439, Note_on_c, 0, 64, 118
1, 47536, Note_off_c, 0, 64, 118
1, 47556, Note_on_c, 0, 63, 93
1, 47637, Note_off_c, 0, 63, 93
1, 47638, Note_on_c, 0, 64, 102
1, 47694, Note_off_c, 0, 64, 102
1, 47711, Note_on_c, 0, 65, 117
1, 47808, Note_off_c, 0, 65, 117
1, 47876, Note_on_c, 0, 64, 115
1, 47969, Note_off_c, 0, 64, 115
1, 48070, Note_on_c, 0, 63, 111
1, 48204, Note_off_c, 0, 63, 111
1, 48218, Note_on_c, 0, 64, 101
1, 48325, Note_off_c, 0, 64, 101
1, 48389, Note_on_c, 0, 55, 98
1, 48756, Note_off_c, 0, 55, 98
1, 48781, Note_on_c, 0, 53, 87
1, 48922, Note_off_c, 0, 53, 87
1, 48922, End_track
0, 0, End_of_file
