0, 0, Header, 1, 1, 192
1, 0, Start_track
1, 0, Title_t, "Melody"
1, 0, Tempo, 355029
1, 0, Key_signature, -1, "major"
1, 0, Time_signature, 4, 2, 24, 8
1, 3283, Note_on_c, 0, 60, 106
1, 3380, Note_off_c, 0, 60, 106
1, 3380, Note_on_c, 0, 62, 109
1, 3405, Note_off_c, 0, 62, 109
1, 3408, Note_on_c, 0, 64, 110
1, 3439, Note_off_c, 0, 64, 110
1, 3442, Note_on_c, 0, 67, 116
1, 3529, Note_off_c, 0, 67, 116
1, 3538, Note_on_c, 0, 65, 122
1, 3641, Note_off_c, 0, 65, 122
1, 3660, Note_on_c, 0, 60, 98
1, 3694, Note_off_c, 0, 60, 98
1, 3728, Note_on_c, 0, 64, 115
1, 3833, Note_off_c, 0, 64, 115
1, 3839, Note_on_c, 0, 65, 117
1, 3917, Note_off_c, 0, 65, 117
1, 3963, Note_on_c, 0, 58, 89
1, 4050, Note_off_c, 0, 58, 89
1, 4057, Note_on_c, 0, 59, 98
1, 4112, Note_off_c, 0, 59, 98
1, 4115, Note_on_c, 0, 62, 116
1, 4231, Note_off_c, 0, 62, 116
1, 4255, Note_on_c, 0, 60, 88
1, 4299, Note_on_c, 0, 61, 111
1, 4299, Note_off_c, 0, 60, 88
1, 4363, Note_off_c, 0, 61, 111
1, 4363, Note_on_c, 0, 64, 110
1, 4412, Note_off_c, 0, 64, 110
1, 4413, Note_on_c, 0, 67, 116
1, 4481, Note_off_c, 0, 67, 116
1, 4525, Note_on_c, 0, 70, 122
1, 4605, Note_off_c, 0, 70, 122
1, 4605, Note_on_c, 0, 72, 111
1, 4640, Note_off_c, 0, 72, 111
1, 4641, Note_on_c, 0, 70, 117
1, 4683, Note_off_c, 0, 70, 117
1, 4688, Note_on_c, 0, 69, 119
1, 4802, Note_off_c, 0, 69, 119
1, 4817, Note_on_c, 0, 65, 94
1, 4862, Note_off_c, 0, 65, 94
1, 4872, Note_on_c, 0, 67, 119
1, 4988, Note_off_c, 0, 67, 119
1, 4988, Note_on_c, 0, 60, 94
1, 5037, Note_off_c, 0, 60, 94
1, 5041, Note_on_c, 0, 62, 114
1, 5197, Note_off_c, 0, 62, 114
1, 5197, Note_on_c, 0, 63, 90
1, 5592, Note_off_c, 0, 63, 90
1, 6171, Note_on_c, 0, 65, 123
1, 6199, Note_off_c, 0, 65, 123
1, 6206, Note_on_c, 0, 65, 123
1, 6281, Note_off_c, 0, 65, 123
1, 6353, Note_on_c, 0, 70, 111
1, 6384, Note_off_c, 0, 70, 111
1, 6392, Note_on_c, 0, 71, 119
1, 6467, Note_off_c, 0, 71, 119
1, 6557, Note_on_c, 0, 70, 116
1, 6750, Note_off_c, 0, 70, 116
1, 6813, Note_on_c, 0, 70, 119
1, 6861, Note_off_c, 0, 70, 119
1, 6861, Note_on_c, 0, 71, 114
1, 7023, Note_off_c, 0, 71, 114
1, 7023, Note_on_c, 0, 70, 121
1, 7161, Note_off_c, 0, 70, 121
1, 7217, Note_on_c, 0, 67, 120
1, 7325, Note_off_c, 0, 67, 120
1, 7328, Note_on_c, 0, 68, 115
1, 7411, Note_off_c, 0, 68, 115
1, 7414, Note_on_c, 0, 65, 118
1, 7484, Note_off_c, 0, 65, 118
1, 7507, Note_on_c, 0, 67, 114
1, 7547, Note_off_c, 0, 67, 114
1, 7550, Note_on_c, 0, 65, 114
1, 7611, Note_off_c, 0, 65, 114
1, 7620, Note_on_c, 0, 63, 112
1, 7713, Note_off_c, 0, 63, 112
1, 7721, Note_on_c, 0, 60, 106
1, 7806, Note_off_c, 0, 60, 106
1, 7806, Note_on_c, 0, 58, 103
1, 7962, Note_off_c, 0, 58, 103
1, 7962, Note_on_c, 0, 53, 106
1, 8066, Note_off_c, 0, 53, 106
1, 8066, Note_on_c, 0, 56, 115
1, 8123, Note_off_c, 0, 56, 115
1, 8123, Note_on_c, 0, 57, 113
1, 8242, Note_off_c, 0, 57, 113
1, 8242, Note_on_c, 0, 60, 107
1, 8287, Note_off_c, 0, 60, 107
1, 8287, Note_on_c, 0, 63, 118
1, 8312, Note_off_c, 0, 63, 118
1, 8312, Note_on_c, 0, 67, 121
1, 8370, Note_off_c, 0, 67, 121
1, 8384, Note_on_c, 0, 65, 120
1, 8481, Note_off_c, 0, 65, 120
1, 8550, Note_on_c, 0, 60, 107
1, 8568, Note_off_c, 0, 60, 107
1, 8569, Note_on_c, 0, 62, 115
1, 8664, Note_off_c, 0, 62, 115
1, 8680, Note_on_c, 0, 63, 100
1, 8944, Note_off_c, 0, 63, 100
1, 9305, Note_on_c, 0, 61, 118
1, 9407, Note_off_c, 0, 61, 118
1, 9407, Note_on_c, 0, 62, 114
1, 9491, Note_off_c, 0, 62, 114
1, 9521, Note_on_c, 0, 70, 120
1, 9590, Note_off_c, 0, 70, 120
1, 9590, Note_on_c, 0, 72, 105
1, 9607, Note_off_c, 0, 72, 105
1, 9618, Note_on_c, 0, 70, 112
1, 9673, Note_off_c, 0, 70, 112
1, 9684, Note_on_c, 0, 69, 122
1, 9798, Note_off_c, 0, 69, 122
1, 9803, Note_on_c, 0, 67, 110
1, 9845, Note_off_c, 0, 67, 110
1, 9874, Note_on_c, 0, 72, 118
1, 9994, Note_off_c, 0, 72, 118
1, 9997, Note_on_c, 0, 67, 119
1, 10109, Note_off_c, 0, 67, 119
1, 10349, Note_on_c, 0, 63, 109
1, 10387, Note_off_c, 0, 63, 109
1, 10387, Note_on_c, 0, 64, 107
1, 10438, Note_off_c, 0, 64, 107
1, 10440, Note_on_c, 0, 66, 115
1, 10484, Note_off_c, 0, 66, 115
1, 10484, Note_on_c, 0, 67, 107
1, 10519, Note_off_c, 0, 67, 107
1, 10519, Note_on_c, 0, 70, 85
1, 10580, Note_off_c, 0, 70, 85
1, 10581, Note_on_c, 0, 75, 108
1, 10624, Note_on_c, 0, 77, 125
1, 10624, Note_off_c, 0, 75, 108
1, 10667, Note_off_c, 0, 77, 125
1, 10667, Note_on_c, 0, 76, 112
1, 10685, Note_on_c, 0, 74, 110
1, 10685, Note_off_c, 0, 76, 112
1, 10697, Note_off_c, 0, 74, 110
1, 10697, Note_on_c, 0, 75, 106
1, 10748, Note_off_c, 0, 75, 106
1, 10748, Note_on_c, 0, 76, 115
1, 10805, Note_off_c, 0, 76, 115
1, 10805, Note_on_c, 0, 73, 112
1, 10869, Note_off_c, 0, 73, 112
1, 10869, Note_on_c, 0, 74, 118
1, 10904, Note_off_c, 0, 74, 118
1, 10904, Note_on_c, 0, 75, 122
1, 10939, Note_off_c, 0, 75, 122
1, 10943, Note_on_c, 0, 75, 110
1, 10955, Note_off_c, 0, 75, 110
1, 10955, Note_on_c, 0, 73, 118
1, 10997, Note_off_c, 0, 73, 118
1, 10997, Note_on_c, 0, 70, 115
1, 11022, Note_off_c, 0, 70, 115
1, 11030, Note_on_c, 0, 70, 98
1, 11052, Note_off_c, 0, 70, 98
1, 11052, Note_on_c, 0, 67, 114
1, 11094, Note_off_c, 0, 67, 114
1, 11094, Note_on_c, 0, 72, 113
1, 11132, Note_off_c, 0, 72, 113
1, 11132, Note_on_c, 0, 70, 115
1, 11183, Note_off_c, 0, 70, 115
1, 11183, Note_on_c, 0, 69, 111
1, 11238, Note_off_c, 0, 69, 111
1, 11238, Note_on_c, 0, 65, 114
1, 11275, Note_on_c, 0, 61, 108
1, 11275, Note_off_c, 0, 65, 114
1, 11315, Note_off_c, 0, 61, 108
1, 11315, Note_on_c, 0, 58, 95
1, 11356, Note_off_c, 0, 58, 95
1, 11363, Note_on_c, 0, 60, 98
1, 11582, Note_off_c, 0, 60, 98
1, 12433, Note_on_c, 0, 64, 117
1, 12487, Note_off_c, 0, 64, 117
1, 12487, Note_on_c, 0, 65, 115
1, 12554, Note_on_c, 0, 69, 103
1, 12554, Note_off_c, 0, 65, 115
1, 12606, Note_off_c, 0, 69, 103
1, 12606, Note_on_c, 0, 72, 115
1, 12663, Note_off_c, 0, 72, 115
1, 12673, Note_on_c, 0, 76, 122
1, 12791, Note_off_c, 0, 76, 122
1, 12791, Note_on_c, 0, 77, 119
1, 12836, Note_off_c, 0, 77, 119
1, 12836, Note_on_c, 0, 78, 124
1, 12886, Note_on_c, 0, 79, 122
1, 12886, Note_off_c, 0, 78, 124
1, 12969, Note_off_c, 0, 79, 122
1, 12969, Note_on_c, 0, 78, 123
1, 13006, Note_off_c, 0, 78, 123
1, 13006, Note_on_c, 0, 77, 125
1, 13080, Note_off_c, 0, 77, 125
1, 13080, Note_on_c, 0, 76, 124
1, 13169, Note_on_c, 0, 74, 124
1, 13169, Note_off_c, 0, 76, 124
1, 13260, Note_off_c, 0, 74, 124
1, 13261, Note_on_c, 0, 73, 127
1, 13354, Note_off_c, 0, 73, 127
1, 13382, Note_on_c, 0, 64, 111
1, 13439, Note_off_c, 0, 64, 111
1, 13441, Note_on_c, 0, 67, 119
1, 13531, Note_off_c, 0, 67, 119
1, 13555, Note_on_c, 0, 69, 120
1, 13637, Note_off_c, 0, 69, 120
1, 13667, Note_on_c, 0, 70, 120
1, 13752, Note_off_c, 0, 70, 120
1, 13752, Note_on_c, 0, 72, 114
1, 13790, Note_on_c, 0, 70, 119
1, 13790, Note_off_c, 0, 72, 114
1, 13839, Note_off_c, 0, 70, 119
1, 13839, Note_on_c, 0, 69, 120
1, 13939, Note_off_c, 0, 69, 120
1, 13963, Note_on_c, 0, 65, 97
1, 14005, Note_off_c, 0, 65, 97
1, 14022, Note_on_c, 0, 67, 117
1, 14079, Note_off_c, 0, 67, 117
1, 14079, Note_on_c, 0, 69, 118
1, 14107, Note_off_c, 0, 69, 118
1, 14109, Note_on_c, 0, 67, 115
1, 14146, Note_off_c, 0, 67, 115
1, 14146, Note_on_c, 0, 65, 113
1, 14202, Note_off_c, 0, 65, 113
1, 14202, Note_on_c, 0, 62, 112
1, 14319, Note_off_c, 0, 62, 112
1, 14319, Note_on_c, 0, 65, 119
1, 14590, Note_off_c, 0, 65, 119
1, 14590, Note_on_c, 0, 67, 103
1, 14642, Note_off_c, 0, 67, 103
1, 14642, Note_on_c, 0, 69, 110
1, 14677, Note_off_c, 0, 69, 110
1, 14677, Note_on_c, 0, 67, 113
1, 14697, Note_off_c, 0, 67, 113
1, 14697, Note_on_c, 0, 65, 115
1, 14760, Note_off_c, 0, 65, 115
1, 14760, Note_on_c, 0, 63, 105
1, 14873, Note_off_c, 0, 63, 105
1, 14873, Note_on_c, 0, 65, 104
1, 15220, Note_off_c, 0, 65, 104
1, 15659, Note_on_c, 0, 60, 118
1, 15695, Note_off_c, 0, 60, 118
1, 15695, Note_on_c, 0, 62, 113
1, 15830, Note_off_c, 0, 62, 113
1, 15845, Note_on_c, 0, 65, 117
1, 15881, Note_off_c, 0, 65, 117
1, 15881, Note_on_c, 0, 68, 112
1, 15919, Note_off_c, 0, 68, 112
1, 15938, Note_on_c, 0, 72, 123
1, 16043, Note_off_c, 0, 72, 123
1, 16049, Note_on_c, 0, 70, 119
1, 16120, Note_off_c, 0, 70, 119
1, 16122, Note_on_c, 0, 68, 120
1, 16173, Note_off_c, 0, 68, 120
1, 16173, Note_on_c, 0, 70, 117
1, 16215, Note_off_c, 0, 70, 117
1, 16215, Note_on_c, 0, 68, 119
1, 16250, Note_off_c, 0, 68, 119
1, 16250, Note_on_c, 0, 65, 114
1, 16313, Note_off_c, 0, 65, 114
1, 16340, Note_on_c, 0, 67, 122
1, 16460, Note_off_c, 0, 67, 122
1, 16480, Note_on_c, 0, 65, 121
1, 16596, Note_off_c, 0, 65, 121
1, 16632, Note_on_c, 0, 63, 114
1, 16723, Note_off_c, 0, 63, 114
1, 16758, Note_on_c, 0, 60, 112
1, 16878, Note_off_c, 0, 60, 112
1, 16898, Note_on_c, 0, 58, 109
1, 16986, Note_off_c, 0, 58, 109
1, 17005, Note_on_c, 0, 53, 106
1, 17077, Note_off_c, 0, 53, 106
1, 17110, Note_on_c, 0, 57, 113
1, 17325, Note_off_c, 0, 57, 113
1, 17334, Note_on_c, 0, 60, 103
1, 17354, Note_off_c, 0, 60, 103
1, 17354, Note_on_c, 0, 62, 103
1, 17379, Note_on_c, 0, 64, 116
1, 17379, Note_off_c, 0, 62, 103
1, 17415, Note_off_c, 0, 64, 116
1, 17420, Note_on_c, 0, 67, 102
1, 17474, Note_off_c, 0, 67, 102
1, 17496, Note_on_c, 0, 72, 122
1, 17580, Note_off_c, 0, 72, 122
1, 17596, Note_on_c, 0, 67, 116
1, 17672, Note_off_c, 0, 67, 116
1, 17680, Note_on_c, 0, 64, 108
1, 17762, Note_off_c, 0, 64, 108
1, 17777, Note_on_c, 0, 61, 93
1, 17843, Note_off_c, 0, 61, 93
1, 17875, Note_on_c, 0, 73, 124
1, 17982, Note_off_c, 0, 73, 124
1, 17989, Note_on_c, 0, 71, 117
1, 18057, Note_off_c, 0, 71, 117
1, 18057, Note_on_c, 0, 66, 112
1, 18129, Note_off_c, 0, 66, 112
1, 18133, Note_on_c, 0, 63, 97
1, 18185, Note_off_c, 0, 63, 97
1, 18185, Note_on_c, 0, 59, 95
1, 18240, Note_off_c, 0, 59, 95
1, 18254, Note_on_c, 0, 70, 121
1, 18386, Note_off_c, 0, 70, 121
1, 18386, Note_on_c, 0, 68, 118
1, 18518, Note_off_c, 0, 68, 118
1, 18897, Note_on_c, 0, 63, 114
1, 18954, Note_off_c, 0, 63, 114
1, 18954, Note_on_c, 0, 64, 111
1, 18999, Note_off_c, 0, 64, 111
1, 19002, Note_on_c, 0, 66, 115
1, 19043, Note_off_c, 0, 66, 115
1, 19043, Note_on_c, 0, 68, 108
1, 19084, Note_off_c, 0, 68, 108
1, 19084, Note_on_c, 0, 71, 86
1, 19124, Note_off_c, 0, 71, 86
1, 19124, Note_on_c, 0, 75, 98
1, 19167, Note_off_c, 0, 75, 98
1, 19179, Note_on_c, 0, 77, 119
1, 19251, Note_off_c, 0, 77, 119
1, 19460, Note_on_c, 0, 63, 107
1, 19509, Note_off_c, 0, 63, 107
1, 19509, Note_on_c, 0, 64, 112
1, 19544, Note_off_c, 0, 64, 112
1, 19549, Note_on_c, 0, 67, 117
1, 19591, Note_off_c, 0, 67, 117
1, 19598, Note_on_c, 0, 69, 114
1, 19630, Note_off_c, 0, 69, 114
1, 19631, Note_on_c, 0, 70, 90
1, 19660, Note_off_c, 0, 70, 90
1, 19715, Note_on_c, 0, 73, 118
1, 19777, Note_on_c, 0, 72, 117
1, 19777, Note_off_c, 0, 73, 118
1, 19824, Note_off_c, 0, 72, 117
1, 19829, Note_on_c, 0, 70, 113
1, 19861, Note_off_c, 0, 70, 113
1, 19861, Note_on_c, 0, 69, 117
1, 19915, Note_off_c, 0, 69, 117
1, 19915, Note_on_c, 0, 67, 118
1, 19957, Note_off_c, 0, 67, 118
1, 19961, Note_on_c, 0, 65, 118
1, 20003, Note_off_c, 0, 65, 118
1, 20003, Note_on_c, 0, 64, 101
1, 20054, Note_off_c, 0, 64, 101
1, 20056, Note_on_c, 0, 55, 107
1, 20094, Note_off_c, 0, 55, 107
1, 20094, Note_on_c, 0, 58, 107
1, 20143, Note_off_c, 0, 58, 107
1, 20150, Note_on_c, 0, 61, 114
1, 20190, Note_off_c, 0, 61, 114
1, 20190, Note_on_c, 0, 60, 104
1, 20231, Note_off_c, 0, 60, 104
1, 20241, Note_on_c, 0, 57, 101
1, 20271, Note_off_c, 0, 57, 101
1, 20271, Note_on_c, 0, 58, 106
1, 20307, Note_off_c, 0, 58, 106
1, 20322, Note_on_c, 0, 69, 115
1, 20399, Note_off_c, 0, 69, 115
1, 20399, Note_on_c, 0, 63, 97
1, 20443, Note_off_c, 0, 63, 97
1, 20445, Note_on_c, 0, 64, 104
1, 20483, Note_off_c, 0, 64, 104
1, 20483, Note_on_c, 0, 67, 118
1, 20553, Note_off_c, 0, 67, 118
1, 20805, Note_on_c, 0, 59, 113
1, 20832, Note_off_c, 0, 59, 113
1, 20832, Note_on_c, 0, 60, 109
1, 21458, Note_off_c, 0, 60, 109
1, 21465, Note_on_c, 0, 62, 117
1, 21570, Note_off_c, 0, 62, 117
1, 21576, Note_on_c, 0, 60, 95
1, 21624, Note_off_c, 0, 60, 95
1, 21651, Note_on_c, 0, 67, 119
1, 21698, Note_off_c, 0, 67, 119
1, 21698, Note_on_c, 0, 69, 119
1, 21775, Note_off_c, 0, 69, 119
1, 21775, Note_on_c, 0, 72, 112
1, 21798, Note_off_c, 0, 72, 112
1, 21798, Note_on_c, 0, 69, 118
1, 21863, Note_off_c, 0, 69, 118
1, 21863, Note_on_c, 0, 67, 119
1, 21958, Note_off_c, 0, 67, 119
1, 21966, Note_on_c, 0, 65, 119
1, 22074, Note_off_c, 0, 65, 119
1, 22350, Note_on_c, 0, 69, 121
1, 22426, Note_off_c, 0, 69, 121
1, 22426, Note_on_c, 0, 70, 109
1, 22497, Note_off_c, 0, 70, 109
1, 22497, Note_on_c, 0, 72, 113
1, 22525, Note_off_c, 0, 72, 113
1, 22525, Note_on_c, 0, 69, 121
1, 22596, Note_off_c, 0, 69, 121
1, 22619, Note_on_c, 0, 67, 120
1, 22720, Note_off_c, 0, 67, 120
1, 22722, Note_on_c, 0, 65, 121
1, 22812, Note_off_c, 0, 65, 121
1, 22814, Note_on_c, 0, 64, 109
1, 22894, Note_off_c, 0, 64, 109
1, 22917, Note_on_c, 0, 62, 114
1, 23022, Note_off_c, 0, 62, 114
1, 23031, Note_on_c, 0, 61, 114
1, 23116, Note_off_c, 0, 61, 114
1, 23125, Note_on_c, 0, 64, 114
1, 23222, Note_off_c, 0, 64, 114
1, 23222, Note_on_c, 0, 62, 112
1, 23318, Note_off_c, 0, 62, 112
1, 23345, Note_on_c, 0, 61, 108
1, 23408, Note_off_c, 0, 61, 108
1, 23408, Note_on_c, 0, 62, 117
1, 23510, Note_off_c, 0, 62, 117
1, 23511, Note_on_c, 0, 64, 114
1, 23597, Note_off_c, 0, 64, 114
1, 23614, Note_on_c, 0, 65, 119
1, 23708, Note_off_c, 0, 65, 119
1, 23712, Note_on_c, 0, 67, 118
1, 23799, Note_off_c, 0, 67, 118
1, 23799, Note_on_c, 0, 69, 122
1, 23948, Note_off_c, 0, 69, 122
1, 23976, Note_on_c, 0, 62, 114
1, 24123, Note_off_c, 0, 62, 114
1, 24123, Note_on_c, 0, 63, 95
1, 24458, Note_off_c, 0, 63, 95
1, 24877, Note_on_c, 0, 70, 113
1, 24924, Note_off_c, 0, 70, 113
1, 24948, Note_on_c, 0, 72, 118
1, 25098, Note_off_c, 0, 72, 118
1, 25133, Note_on_c, 0, 77, 120
1, 25262, Note_off_c, 0, 77, 120
1, 25262, Note_on_c, 0, 73, 116
1, 25298, Note_on_c, 0, 70, 116
1, 25298, Note_off_c, 0, 73, 116
1, 25332, Note_off_c, 0, 70, 116
1, 25332, Note_on_c, 0, 68, 118
1, 25456, Note_off_c, 0, 68, 118
1, 25457, Note_on_c, 0, 65, 111
1, 25660, Note_off_c, 0, 65, 111
1, 25848, Note_on_c, 0, 60, 104
1, 25884, Note_off_c, 0, 60, 104
1, 25895, Note_on_c, 0, 71, 119
1, 25982, Note_off_c, 0, 71, 119
1, 26006, Note_on_c, 0, 70, 110
1, 26080, Note_off_c, 0, 70, 110
1, 26082, Note_on_c, 0, 68, 114
1, 26131, Note_off_c, 0, 68, 114
1, 26131, Note_on_c, 0, 70, 111
1, 26171, Note_off_c, 0, 70, 111
1, 26172, Note_on_c, 0, 68, 118
1, 26215, Note_off_c, 0, 68, 118
1, 26215, Note_on_c, 0, 65, 114
1, 26269, Note_off_c, 0, 65, 114
1, 26305, Note_on_c, 0, 67, 120
1, 26369, Note_off_c, 0, 67, 120
1, 26369, Note_on_c, 0, 69, 121
1, 26526, Note_off_c, 0, 69, 121
1, 26526, Note_on_c, 0, 72, 111
1, 26548, Note_on_c, 0, 69, 117
1, 26548, Note_off_c, 0, 72, 111
1, 26609, Note_off_c, 0, 69, 117
1, 26612, Note_on_c, 0, 64, 107
1, 26660, Note_off_c, 0, 64, 107
1, 26662, Note_on_c, 0, 62, 110
1, 26690, Note_off_c, 0, 62, 110
1, 26712, Note_on_c, 0, 62, 98
1, 26994, Note_off_c, 0, 62, 98
1, 27891, Note_on_c, 0, 63, 105
1, 27954, Note_off_c, 0, 63, 105
1, 27954, Note_on_c, 0, 64, 110
1, 27988, Note_on_c, 0, 67, 116
1, 27988, Note_off_c, 0, 64, 110
1, 28032, Note_off_c, 0, 67, 116
1, 28033, Note_on_c, 0, 69, 116
1, 28076, Note_off_c, 0, 69, 116
1, 28076, Note_on_c, 0, 70, 93
1, 28123, Note_off_c, 0, 70, 93
1, 28123, Note_on_c, 0, 71, 100
1, 28170, Note_off_c, 0, 71, 100
1, 28172, Note_on_c, 0, 72, 120
1, 28232, Note_off_c, 0, 72, 120
1, 28232, Note_on_c, 0, 71, 110
1, 28292, Note_off_c, 0, 71, 110
1, 28292, Note_on_c, 0, 70, 105
1, 28335, Note_off_c, 0, 70, 105
1, 28473, Note_on_c, 0, 63, 108
1, 28535, Note_off_c, 0, 63, 108
1, 28535, Note_on_c, 0, 64, 113
1, 28559, Note_off_c, 0, 64, 113
1, 28559, Note_on_c, 0, 67, 116
1, 28584, Note_off_c, 0, 67, 116
1, 28584, Note_on_c, 0, 69, 114
1, 28624, Note_off_c, 0, 69, 114
1, 28624, Note_on_c, 0, 70, 86
1, 28678, Note_off_c, 0, 70, 86
1, 28678, Note_on_c, 0, 71, 94
1, 28734, Note_off_c, 0, 71, 94
1, 28734, Note_on_c, 0, 72, 111
1, 28797, Note_off_c, 0, 72, 111
1, 28797, Note_on_c, 0, 71, 113
1, 28832, Note_off_c, 0, 71, 113
1, 28832, Note_on_c, 0, 70, 112
1, 28883, Note_off_c, 0, 70, 112
1, 28883, Note_on_c, 0, 69, 117
1, 28953, Note_off_c, 0, 69, 117
1, 28953, Note_on_c, 0, 67, 115
1, 28989, Note_off_c, 0, 67, 115
1, 28989, Note_on_c, 0, 65, 112
1, 29030, Note_off_c, 0, 65, 112
1, 29030, Note_on_c, 0, 64, 101
1, 29082, Note_off_c, 0, 64, 101
1, 29097, Note_on_c, 0, 67, 104
1, 29115, Note_off_c, 0, 67, 104
1, 29123, Note_on_c, 0, 70, 115
1, 29174, Note_off_c, 0, 70, 115
1, 29174, Note_on_c, 0, 73, 119
1, 29238, Note_off_c, 0, 73, 119
1, 29275, Note_on_c, 0, 70, 99
1, 29306, Note_off_c, 0, 70, 99
1, 29310, Note_on_c, 0, 70, 112
1, 29361, Note_off_c, 0, 70, 112
1, 29361, Note_on_c, 0, 72, 105
1, 29388, Note_off_c, 0, 72, 105
1, 29389, Note_on_c, 0, 70, 113
1, 29430, Note_on_c, 0, 69, 111
1, 29430, Note_off_c, 0, 70, 113
1, 29477, Note_off_c, 0, 69, 111
1, 29478, Note_on_c, 0, 67, 114
1, 29536, Note_off_c, 0, 67, 114
1, 29536, Note_on_c, 0, 65, 92
1, 29574, Note_off_c, 0, 65, 92
1, 29837, Note_on_c, 0, 62, 107
1, 29868, Note_off_c, 0, 62, 107
1, 29870, Note_on_c, 0, 64, 109
1, 30270, Note_on_c, 0, 67, 117
1, 30270, Note_off_c, 0, 64, 109
1, 30317, Note_off_c, 0, 67, 117
1, 30317, Note_on_c, 0, 65, 120
1, 30357, Note_off_c, 0, 65, 120
1, 30358, Note_on_c, 0, 64, 109
1, 30406, Note_off_c, 0, 64, 109
1, 30406, Note_on_c, 0, 62, 108
1, 30453, Note_off_c, 0, 62, 108
1, 30455, Note_on_c, 0, 61, 110
1, 30531, Note_off_c, 0, 61, 110
1, 30538, Note_on_c, 0, 65, 117
1, 30594, Note_off_c, 0, 65, 117
1, 30594, Note_on_c, 0, 61, 110
1, 30642, Note_on_c, 0, 60, 108
1, 30642, Note_off_c, 0, 61, 110
1, 30679, Note_off_c, 0, 60, 108
1, 30703, Note_on_c, 0, 58, 103
1, 30748, Note_off_c, 0, 58, 103
1, 30750, Note_on_c, 0, 57, 109
1, 30786, Note_off_c, 0, 57, 109
1, 30786, Note_on_c, 0, 60, 109
1, 30829, Note_off_c, 0, 60, 109
1, 30829, Note_on_c, 0, 64, 116
1, 30860, Note_off_c, 0, 64, 116
1, 30861, Note_on_c, 0, 65, 117
1, 30924, Note_off_c, 0, 65, 117
1, 30924, Note_on_c, 0, 62, 116
1, 30986, Note_off_c, 0, 62, 116
1, 30986, Note_on_c, 0, 64, 114
1, 31037, Note_off_c, 0, 64, 114
1, 31037, Note_on_c, 0, 60, 108
1, 31191, Note_off_c, 0, 60, 108
1, 31191, End_track
0, 0, End_of_file
