0, 0, Header, 1, 1, 192
1, 0, Start_track
1, 0, Title_t, "Melody"
1, 0, Tempo, 200668
1, 0, Key_signature, -2, "major"
1, 0, Time_signature, 4, 2, 24, 8
1, 27812, Note_on_c, 0, 64, 111
1, 27934, Note_on_c, 0, 63, 119
1, 27934, Note_off_c, 0, 64, 111
1, 27978, Note_off_c, 0, 63, 119
1, 27989, Note_on_c, 0, 64, 110
1, 28138, Note_off_c, 0, 64, 110
1, 28179, Note_on_c, 0, 65, 112
1, 28220, Note_off_c, 0, 65, 112
1, 28239, Note_on_c, 0, 66, 111
1, 28286, Note_off_c, 0, 66, 111
1, 28297, Note_on_c, 0, 68, 112
1, 28380, Note_off_c, 0, 68, 112
1, 28380, Note_on_c, 0, 70, 108
1, 28443, Note_off_c, 0, 70, 108
1, 28445, Note_on_c, 0, 74, 122
1, 28561, Note_off_c, 0, 74, 122
1, 28569, Note_on_c, 0, 75, 120
1, 28607, Note_off_c, 0, 75, 120
1, 28631, Note_on_c, 0, 78, 117
1, 28761, Note_off_c, 0, 78, 117
1, 28785, Note_on_c, 0, 74, 116
1, 28909, Note_off_c, 0, 74, 116
1, 28920, Note_on_c, 0, 78, 111
1, 29047, Note_off_c, 0, 78, 111
1, 29066, Note_on_c, 0, 73, 112
1, 29354, Note_off_c, 0, 73, 112
1, 30836, Note_on_c, 0, 62, 112
1, 30938, Note_off_c, 0, 62, 112
1, 30943, Note_on_c, 0, 61, 113
1, 30987, Note_off_c, 0, 61, 113
1, 31014, Note_on_c, 0, 62, 117
1, 31158, Note_off_c, 0, 62, 117
1, 31171, Note_on_c, 0, 64, 109
1, 31226, Note_off_c, 0, 64, 109
1, 31250, Note_on_c, 0, 66, 111
1, 31333, Note_off_c, 0, 66, 111
1, 31352, Note_on_c, 0, 68, 112
1, 31485, Note_off_c, 0, 68, 112
1, 31485, Note_on_c, 0, 72, 123
1, 31584, Note_off_c, 0, 72, 123
1, 31597, Note_on_c, 0, 76, 119
1, 31766, Note_off_c, 0, 76, 119
1, 31782, Note_on_c, 0, 72, 121
1, 31915, Note_off_c, 0, 72, 121
1, 31926, Note_on_c, 0, 76, 121
1, 32048, Note_off_c, 0, 76, 121
1, 32050, Note_on_c, 0, 71, 106
1, 32449, Note_off_c, 0, 71, 106
1, 32507, Note_on_c, 0, 76, 118
1, 32604, Note_off_c, 0, 76, 118
1, 32615, Note_on_c, 0, 74, 115
1, 32667, Note_off_c, 0, 74, 115
1, 32669, Note_on_c, 0, 73, 112
1, 32707, Note_off_c, 0, 73, 112
1, 32756, Note_on_c, 0, 64, 100
1, 32830, Note_off_c, 0, 64, 100
1, 32838, Note_on_c, 0, 66, 107
1, 32912, Note_off_c, 0, 66, 107
1, 32917, Note_on_c, 0, 68, 116
1, 33011, Note_off_c, 0, 68, 116
1, 33033, Note_on_c, 0, 71, 118
1, 33119, Note_off_c, 0, 71, 118
1, 33121, Note_on_c, 0, 68, 115
1, 33223, Note_off_c, 0, 68, 115
1, 33223, Note_on_c, 0, 69, 107
1, 33292, Note_off_c, 0, 69, 107
1, 33305, Note_on_c, 0, 71, 104
1, 33363, Note_off_c, 0, 71, 104
1, 33374, Note_on_c, 0, 73, 121
1, 33493, Note_off_c, 0, 73, 121
1, 33501, Note_on_c, 0, 76, 118
1, 33678, Note_off_c, 0, 76, 118
1, 34119, Note_on_c, 0, 69, 121
1, 34257, Note_off_c, 0, 69, 121
1, 34265, Note_on_c, 0, 72, 108
1, 34337, Note_on_c, 0, 76, 119
1, 34337, Note_off_c, 0, 72, 108
1, 34414, Note_off_c, 0, 76, 119
1, 34422, Note_on_c, 0, 79, 122
1, 34513, Note_off_c, 0, 79, 122
1, 34524, Note_on_c, 0, 78, 126
1, 34607, Note_off_c, 0, 78, 126
1, 34623, Note_on_c, 0, 76, 125
1, 34720, Note_off_c, 0, 76, 125
1, 34736, Note_on_c, 0, 74, 116
1, 34838, Note_off_c, 0, 74, 116
1, 34838, Note_on_c, 0, 73, 119
1, 34899, Note_off_c, 0, 73, 119
1, 34926, Note_on_c, 0, 72, 124
1, 35064, Note_off_c, 0, 72, 124
1, 35524, Note_on_c, 0, 74, 120
1, 35621, Note_off_c, 0, 74, 120
1, 35623, Note_on_c, 0, 72, 114
1, 35717, Note_off_c, 0, 72, 114
1, 35728, Note_on_c, 0, 67, 107
1, 35827, Note_off_c, 0, 67, 107
1, 35846, Note_on_c, 0, 64, 112
1, 35948, Note_off_c, 0, 64, 112
1, 35964, Note_on_c, 0, 63, 115
1, 36050, Note_off_c, 0, 63, 115
1, 36069, Note_on_c, 0, 62, 107
1, 36149, Note_off_c, 0, 62, 107
1, 36162, Note_on_c, 0, 59, 99
1, 36236, Note_off_c, 0, 59, 99
1, 36247, Note_on_c, 0, 60, 102
1, 36316, Note_off_c, 0, 60, 102
1, 36327, Note_on_c, 0, 68, 109
1, 36385, Note_off_c, 0, 68, 109
1, 36418, Note_on_c, 0, 69, 121
1, 36498, Note_off_c, 0, 69, 121
1, 36503, Note_on_c, 0, 66, 105
1, 36580, Note_off_c, 0, 66, 105
1, 36599, Note_on_c, 0, 67, 98
1, 36657, Note_off_c, 0, 67, 98
1, 36665, Note_on_c, 0, 68, 99
1, 36712, Note_off_c, 0, 68, 99
1, 36717, Note_on_c, 0, 74, 110
1, 36761, Note_off_c, 0, 74, 110
1, 36766, Note_on_c, 0, 77, 120
1, 36907, Note_off_c, 0, 77, 120
1, 36923, Note_on_c, 0, 75, 115
1, 37028, Note_off_c, 0, 75, 115
1, 37047, Note_on_c, 0, 76, 119
1, 37191, Note_off_c, 0, 76, 119
1, 37191, Note_on_c, 0, 72, 94
1, 37227, Note_off_c, 0, 72, 94
1, 37243, Note_on_c, 0, 73, 99
1, 37317, Note_off_c, 0, 73, 99
1, 37317, Note_on_c, 0, 74, 121
1, 37428, Note_off_c, 0, 74, 121
1, 37441, Note_on_c, 0, 72, 116
1, 37518, Note_off_c, 0, 72, 116
1, 37531, Note_on_c, 0, 70, 110
1, 37605, Note_off_c, 0, 70, 110
1, 37618, Note_on_c, 0, 69, 120
1, 37684, Note_off_c, 0, 69, 120
1, 37697, Note_on_c, 0, 67, 122
1, 37802, Note_off_c, 0, 67, 122
1, 37802, Note_on_c, 0, 65, 116
1, 37913, Note_off_c, 0, 65, 116
1, 37924, Note_on_c, 0, 64, 104
1, 37993, Note_off_c, 0, 64, 104
1, 37998, Note_on_c, 0, 67, 106
1, 38070, Note_off_c, 0, 67, 106
1, 38089, Note_on_c, 0, 70, 117
1, 38158, Note_off_c, 0, 70, 117
1, 38160, Note_on_c, 0, 74, 119
1, 38290, Note_off_c, 0, 74, 119
1, 38290, Note_on_c, 0, 72, 91
1, 38359, Note_off_c, 0, 72, 91
1, 38425, Note_on_c, 0, 72, 116
1, 38563, Note_off_c, 0, 72, 116
1, 38563, Note_on_c, 0, 74, 113
1, 38632, Note_off_c, 0, 74, 113
1, 38632, Note_on_c, 0, 75, 118
1, 38673, Note_off_c, 0, 75, 118
1, 38692, Note_on_c, 0, 74, 125
1, 38800, Note_off_c, 0, 74, 125
1, 38802, Note_on_c, 0, 73, 122
1, 38874, Note_on_c, 0, 72, 115
1, 38874, Note_off_c, 0, 73, 122
1, 38948, Note_off_c, 0, 72, 115
1, 38967, Note_on_c, 0, 71, 116
1, 39033, Note_off_c, 0, 71, 116
1, 39044, Note_on_c, 0, 68, 97
1, 39093, Note_off_c, 0, 68, 97
1, 39101, Note_on_c, 0, 66, 120
1, 39195, Note_off_c, 0, 66, 120
1, 39222, Note_on_c, 0, 63, 107
1, 39310, Note_off_c, 0, 63, 107
1, 39310, Note_on_c, 0, 60, 96
1, 39387, Note_off_c, 0, 60, 96
1, 39395, Note_on_c, 0, 62, 113
1, 39519, Note_off_c, 0, 62, 113
1, 39521, Note_on_c, 0, 58, 97
1, 39609, Note_off_c, 0, 58, 97
1, 39617, Note_on_c, 0, 55, 100
1, 39708, Note_off_c, 0, 55, 100
1, 39716, Note_on_c, 0, 57, 101
1, 39804, Note_off_c, 0, 57, 101
1, 39817, Note_on_c, 0, 60, 104
1, 39905, Note_off_c, 0, 60, 104
1, 39929, Note_on_c, 0, 58, 101
1, 40001, Note_off_c, 0, 58, 101
1, 40001, Note_on_c, 0, 57, 98
1, 40067, Note_off_c, 0, 57, 98
1, 40097, Note_on_c, 0, 58, 97
1, 40149, Note_off_c, 0, 58, 97
1, 40154, Note_on_c, 0, 62, 112
1, 40265, Note_off_c, 0, 62, 112
1, 40287, Note_on_c, 0, 65, 107
1, 40822, Note_off_c, 0, 65, 107
1, 41688, Note_on_c, 0, 68, 124
1, 41812, Note_off_c, 0, 68, 124
1, 41814, Note_on_c, 0, 69, 120
1, 41855, Note_off_c, 0, 69, 120
1, 41863, Note_on_c, 0, 68, 126
1, 41912, Note_off_c, 0, 68, 126
1, 41931, Note_on_c, 0, 67, 121
1, 42022, Note_off_c, 0, 67, 121
1, 42044, Note_on_c, 0, 66, 123
1, 42130, Note_off_c, 0, 66, 123
1, 42146, Note_on_c, 0, 65, 111
1, 42240, Note_off_c, 0, 65, 111
1, 42259, Note_on_c, 0, 63, 110
1, 42292, Note_off_c, 0, 63, 110
1, 42300, Note_on_c, 0, 62, 104
1, 42386, Note_off_c, 0, 62, 104
1, 42391, Note_on_c, 0, 60, 107
1, 42477, Note_off_c, 0, 60, 107
1, 42490, Note_on_c, 0, 58, 102
1, 42584, Note_off_c, 0, 58, 102
1, 42600, Note_on_c, 0, 57, 105
1, 42686, Note_off_c, 0, 57, 105
1, 42705, Note_on_c, 0, 56, 107
1, 42796, Note_off_c, 0, 56, 107
1, 42796, Note_on_c, 0, 60, 112
1, 42884, Note_off_c, 0, 60, 112
1, 42886, Note_on_c, 0, 55, 110
1, 42988, Note_off_c, 0, 55, 110
1, 42988, Note_on_c, 0, 57, 99
1, 43054, Note_off_c, 0, 57, 99
1, 43070, Note_on_c, 0, 60, 100
1, 43128, Note_off_c, 0, 60, 100
1, 43141, Note_on_c, 0, 62, 100
1, 43185, Note_off_c, 0, 62, 100
1, 43198, Note_on_c, 0, 65, 116
1, 43331, Note_off_c, 0, 65, 116
1, 43353, Note_on_c, 0, 63, 97
1, 43394, Note_off_c, 0, 63, 97
1, 43427, Note_on_c, 0, 67, 106
1, 43485, Note_off_c, 0, 67, 106
1, 43501, Note_on_c, 0, 70, 100
1, 43556, Note_off_c, 0, 70, 100
1, 43561, Note_on_c, 0, 74, 112
1, 43674, Note_off_c, 0, 74, 112
1, 43704, Note_on_c, 0, 72, 100
1, 43756, Note_off_c, 0, 72, 100
1, 43767, Note_on_c, 0, 74, 117
1, 43866, Note_off_c, 0, 74, 117
1, 43882, Note_on_c, 0, 72, 97
1, 44081, Note_off_c, 0, 72, 97
1, 44536, Note_on_c, 0, 72, 126
1, 44629, Note_off_c, 0, 72, 126
1, 44632, Note_on_c, 0, 73, 123
1, 44690, Note_off_c, 0, 73, 123
1, 44701, Note_on_c, 0, 72, 122
1, 44779, Note_off_c, 0, 72, 122
1, 44786, Note_on_c, 0, 70, 111
1, 44828, Note_off_c, 0, 70, 111
1, 44831, Note_on_c, 0, 66, 124
1, 44916, Note_off_c, 0, 66, 124
1, 44939, Note_on_c, 0, 63, 99
1, 45036, Note_off_c, 0, 63, 99
1, 45063, Note_on_c, 0, 66, 110
1, 45137, Note_off_c, 0, 66, 110
1, 45137, Note_on_c, 0, 70, 121
1, 45242, Note_off_c, 0, 70, 121
1, 45257, Note_on_c, 0, 73, 126
1, 45335, Note_off_c, 0, 73, 126
1, 45335, Note_on_c, 0, 72, 116
1, 45401, Note_off_c, 0, 72, 116
1, 45412, Note_on_c, 0, 70, 123
1, 45478, Note_off_c, 0, 70, 123
1, 45501, Note_on_c, 0, 69, 121
1, 45559, Note_off_c, 0, 69, 121
1, 45559, Note_on_c, 0, 67, 120
1, 45652, Note_off_c, 0, 67, 120
1, 45679, Note_on_c, 0, 66, 111
1, 45753, Note_off_c, 0, 66, 111
1, 45768, Note_on_c, 0, 67, 107
1, 45842, Note_off_c, 0, 67, 107
1, 45857, Note_on_c, 0, 70, 116
1, 45966, Note_off_c, 0, 70, 116
1, 45966, Note_on_c, 0, 67, 119
1, 46079, Note_off_c, 0, 67, 119
1, 46079, Note_on_c, 0, 63, 91
1, 46164, Note_off_c, 0, 63, 91
1, 46164, Note_on_c, 0, 60, 91
1, 46246, Note_off_c, 0, 60, 91
1, 46249, Note_on_c, 0, 62, 109
1, 46354, Note_off_c, 0, 62, 109
1, 46354, Note_on_c, 0, 58, 101
1, 46432, Note_off_c, 0, 58, 101
1, 46478, Note_on_c, 0, 55, 106
1, 46560, Note_off_c, 0, 55, 106
1, 46560, Note_on_c, 0, 57, 99
1, 46602, Note_off_c, 0, 57, 99
1, 46609, Note_on_c, 0, 60, 115
1, 46710, Note_off_c, 0, 60, 115
1, 46733, Note_on_c, 0, 58, 98
1, 46803, Note_off_c, 0, 58, 98
1, 46826, Note_on_c, 0, 57, 100
1, 46896, Note_off_c, 0, 57, 100
1, 46935, Note_on_c, 0, 58, 104
1, 46977, Note_off_c, 0, 58, 104
1, 46977, Note_on_c, 0, 62, 116
1, 47082, Note_off_c, 0, 62, 116
1, 47093, Note_on_c, 0, 65, 114
1, 47178, Note_off_c, 0, 65, 114
1, 47189, Note_on_c, 0, 67, 96
1, 47271, Note_off_c, 0, 67, 96
1, 47294, Note_on_c, 0, 69, 108
1, 47376, Note_off_c, 0, 69, 108
1, 47376, Note_on_c, 0, 72, 119
1, 47504, Note_off_c, 0, 72, 119
1, 47515, Note_on_c, 0, 71, 111
1, 47561, Note_off_c, 0, 71, 111
1, 47561, Note_on_c, 0, 70, 111
1, 47662, Note_off_c, 0, 70, 111
1, 47665, Note_on_c, 0, 69, 117
1, 47750, Note_off_c, 0, 69, 117
1, 47750, Note_on_c, 0, 67, 119
1, 47835, Note_off_c, 0, 67, 119
1, 47835, Note_on_c, 0, 65, 117
1, 47944, Note_off_c, 0, 65, 117
1, 47951, Note_on_c, 0, 64, 110
1, 48044, Note_off_c, 0, 64, 110
1, 48063, Note_on_c, 0, 60, 100
1, 48113, Note_off_c, 0, 60, 100
1, 48140, Note_on_c, 0, 62, 101
1, 48507, Note_off_c, 0, 62, 101
1, 49282, Note_on_c, 0, 63, 117
1, 49370, Note_off_c, 0, 63, 117
1, 49375, Note_on_c, 0, 65, 114
1, 50885, Note_off_c, 0, 65, 114
1, 51936, Note_on_c, 0, 65, 120
1, 52064, Note_off_c, 0, 65, 120
1, 52083, Note_on_c, 0, 67, 110
1, 52161, Note_off_c, 0, 67, 110
1, 52172, Note_on_c, 0, 65, 101
1, 52300, Note_off_c, 0, 65, 101
1, 52342, Note_on_c, 0, 70, 119
1, 52447, Note_off_c, 0, 70, 119
1, 52447, Note_on_c, 0, 72, 120
1, 52529, Note_off_c, 0, 72, 120
1, 52536, Note_on_c, 0, 70, 114
1, 52610, Note_off_c, 0, 70, 114
1, 52610, Note_on_c, 0, 65, 107
1, 52695, Note_off_c, 0, 65, 107
1, 52695, Note_on_c, 0, 70, 108
1, 52749, Note_off_c, 0, 70, 108
1, 52752, Note_on_c, 0, 74, 121
1, 52861, Note_off_c, 0, 74, 121
1, 52876, Note_on_c, 0, 72, 121
1, 52942, Note_off_c, 0, 72, 121
1, 52961, Note_on_c, 0, 70, 109
1, 53035, Note_off_c, 0, 70, 109
1, 53050, Note_on_c, 0, 69, 112
1, 53135, Note_off_c, 0, 69, 112
1, 53146, Note_on_c, 0, 72, 125
1, 53228, Note_off_c, 0, 72, 125
1, 53228, Note_on_c, 0, 70, 116
1, 53317, Note_off_c, 0, 70, 116
1, 53317, Note_on_c, 0, 69, 117
1, 53422, Note_off_c, 0, 69, 117
1, 53422, Note_on_c, 0, 67, 120
1, 53500, Note_off_c, 0, 67, 120
1, 53515, Note_on_c, 0, 65, 119
1, 53620, Note_off_c, 0, 65, 119
1, 53620, Note_on_c, 0, 63, 109
1, 53694, Note_off_c, 0, 63, 109
1, 53713, Note_on_c, 0, 62, 115
1, 53787, Note_on_c, 0, 60, 103
1, 53787, Note_off_c, 0, 62, 115
1, 53872, Note_off_c, 0, 60, 103
1, 53891, Note_on_c, 0, 58, 108
1, 54015, Note_off_c, 0, 58, 108
1, 54038, Note_on_c, 0, 57, 109
1, 54123, Note_off_c, 0, 57, 109
1, 54138, Note_on_c, 0, 56, 104
1, 54180, Note_off_c, 0, 56, 104
1, 54187, Note_on_c, 0, 60, 105
1, 54269, Note_off_c, 0, 60, 105
1, 54269, Note_on_c, 0, 70, 115
1, 54370, Note_off_c, 0, 70, 115
1, 54373, Note_on_c, 0, 66, 118
1, 54486, Note_off_c, 0, 66, 118
1, 54489, Note_on_c, 0, 62, 101
1, 54563, Note_off_c, 0, 62, 101
1, 54578, Note_on_c, 0, 60, 105
1, 54620, Note_off_c, 0, 60, 105
1, 54635, Note_on_c, 0, 60, 113
1, 54728, Note_off_c, 0, 60, 113
1, 54782, Note_on_c, 0, 56, 109
1, 54871, Note_off_c, 0, 56, 109
1, 54890, Note_on_c, 0, 52, 110
1, 55003, Note_off_c, 0, 52, 110
1, 55010, Note_on_c, 0, 58, 109
1, 55080, Note_off_c, 0, 58, 109
1, 55103, Note_on_c, 0, 55, 106
1, 55204, Note_off_c, 0, 55, 106
1, 55239, Note_on_c, 0, 58, 98
1, 55328, Note_off_c, 0, 58, 98
1, 55331, Note_on_c, 0, 60, 105
1, 55393, Note_off_c, 0, 60, 105
1, 55428, Note_on_c, 0, 65, 122
1, 55525, Note_off_c, 0, 65, 122
1, 55544, Note_on_c, 0, 63, 84
1, 55614, Note_off_c, 0, 63, 84
1, 55645, Note_on_c, 0, 62, 101
1, 55754, Note_off_c, 0, 62, 101
1, 55773, Note_on_c, 0, 67, 116
1, 55897, Note_off_c, 0, 67, 116
1, 55924, Note_on_c, 0, 70, 104
1, 55986, Note_off_c, 0, 70, 104
1, 55997, Note_on_c, 0, 72, 105
1, 56067, Note_off_c, 0, 72, 105
1, 56067, Note_on_c, 0, 74, 105
1, 56090, Note_off_c, 0, 74, 105
1, 56105, Note_on_c, 0, 77, 120
1, 56202, Note_off_c, 0, 77, 120
1, 56225, Note_on_c, 0, 74, 100
1, 56389, Note_off_c, 0, 74, 100
1, 57009, Note_on_c, 0, 65, 118
1, 57145, Note_off_c, 0, 65, 118
1, 57145, Note_on_c, 0, 66, 51
1, 57187, Note_off_c, 0, 66, 51
1, 57210, Note_on_c, 0, 69, 92
1, 57245, Note_on_c, 0, 73, 95
1, 57245, Note_off_c, 0, 69, 92
1, 57323, Note_off_c, 0, 73, 95
1, 57334, Note_on_c, 0, 77, 118
1, 57412, Note_off_c, 0, 77, 118
1, 57412, Note_on_c, 0, 76, 118
1, 57494, Note_off_c, 0, 76, 118
1, 57505, Note_on_c, 0, 75, 116
1, 57633, Note_off_c, 0, 75, 116
1, 57633, Note_on_c, 0, 74, 117
1, 57718, Note_off_c, 0, 74, 117
1, 57721, Note_on_c, 0, 73, 118
1, 57818, Note_off_c, 0, 73, 118
1, 57833, Note_on_c, 0, 72, 111
1, 57915, Note_off_c, 0, 72, 111
1, 57915, Note_on_c, 0, 70, 121
1, 57993, Note_off_c, 0, 70, 121
1, 58012, Note_on_c, 0, 66, 118
1, 58129, Note_off_c, 0, 66, 118
1, 58129, Note_on_c, 0, 63, 112
1, 58207, Note_off_c, 0, 63, 112
1, 58218, Note_on_c, 0, 60, 105
1, 58280, Note_off_c, 0, 60, 105
1, 58280, Note_on_c, 0, 69, 119
1, 58404, Note_off_c, 0, 69, 119
1, 58404, Note_on_c, 0, 67, 122
1, 58505, Note_off_c, 0, 67, 122
1, 58516, Note_on_c, 0, 65, 113
1, 58605, Note_off_c, 0, 65, 113
1, 58624, Note_on_c, 0, 63, 115
1, 58717, Note_off_c, 0, 63, 115
1, 58728, Note_on_c, 0, 62, 102
1, 58786, Note_off_c, 0, 62, 102
1, 58801, Note_on_c, 0, 58, 97
1, 58847, Note_off_c, 0, 58, 97
1, 58858, Note_on_c, 0, 60, 110
1, 58986, Note_off_c, 0, 60, 110
1, 58989, Note_on_c, 0, 58, 94
1, 59071, Note_off_c, 0, 58, 94
1, 59074, Note_on_c, 0, 57, 103
1, 59163, Note_off_c, 0, 57, 103
1, 59182, Note_on_c, 0, 58, 104
1, 59217, Note_off_c, 0, 58, 104
1, 59224, Note_on_c, 0, 62, 116
1, 59306, Note_off_c, 0, 62, 116
1, 59321, Note_on_c, 0, 65, 111
1, 59430, Note_off_c, 0, 65, 111
1, 59437, Note_on_c, 0, 67, 110
1, 59515, Note_off_c, 0, 67, 110
1, 59542, Note_on_c, 0, 69, 104
1, 59608, Note_off_c, 0, 69, 104
1, 59608, Note_on_c, 0, 72, 116
1, 59717, Note_off_c, 0, 72, 116
1, 59724, Note_on_c, 0, 71, 119
1, 59798, Note_off_c, 0, 71, 119
1, 59809, Note_on_c, 0, 70, 114
1, 59883, Note_off_c, 0, 70, 114
1, 59886, Note_on_c, 0, 69, 121
1, 59991, Note_off_c, 0, 69, 121
1, 60018, Note_on_c, 0, 67, 114
1, 60100, Note_off_c, 0, 67, 114
1, 60100, Note_on_c, 0, 65, 114
1, 60170, Note_off_c, 0, 65, 114
1, 60189, Note_on_c, 0, 64, 111
1, 60282, Note_off_c, 0, 64, 111
1, 60282, Note_on_c, 0, 60, 101
1, 60340, Note_off_c, 0, 60, 101
1, 60359, Note_on_c, 0, 62, 91
1, 60995, Note_off_c, 0, 62, 91
1, 61478, Note_on_c, 0, 51, 117
1, 61605, Note_off_c, 0, 51, 117
1, 61605, Note_on_c, 0, 55, 109
1, 61668, Note_off_c, 0, 55, 109
1, 61668, Note_on_c, 0, 60, 109
1, 61756, Note_off_c, 0, 60, 109
1, 61764, Note_on_c, 0, 63, 112
1, 61888, Note_off_c, 0, 63, 112
1, 61899, Note_on_c, 0, 62, 110
1, 61954, Note_off_c, 0, 62, 110
1, 61967, Note_on_c, 0, 60, 113
1, 62028, Note_off_c, 0, 60, 113
1, 62044, Note_on_c, 0, 59, 99
1, 62130, Note_off_c, 0, 59, 99
1, 62146, Note_on_c, 0, 62, 102
1, 62212, Note_off_c, 0, 62, 102
1, 62220, Note_on_c, 0, 65, 116
1, 62353, Note_on_c, 0, 68, 123
1, 62353, Note_off_c, 0, 65, 116
1, 62475, Note_off_c, 0, 68, 123
1, 62486, Note_on_c, 0, 67, 119
1, 62530, Note_off_c, 0, 67, 119
1, 62535, Note_on_c, 0, 65, 120
1, 62643, Note_off_c, 0, 65, 120
1, 62645, Note_on_c, 0, 63, 102
1, 62706, Note_off_c, 0, 63, 102
1, 62706, Note_on_c, 0, 67, 108
1, 62794, Note_off_c, 0, 67, 108
1, 62796, Note_on_c, 0, 70, 102
1, 62857, Note_off_c, 0, 70, 102
1, 62873, Note_on_c, 0, 74, 103
1, 62970, Note_off_c, 0, 74, 103
1, 62970, Note_on_c, 0, 77, 118
1, 63072, Note_off_c, 0, 77, 118
1, 63074, Note_on_c, 0, 75, 117
1, 63262, Note_off_c, 0, 75, 117
1, 64131, Note_on_c, 0, 74, 101
1, 64222, Note_off_c, 0, 74, 101
1, 64235, Note_on_c, 0, 75, 116
1, 64298, Note_off_c, 0, 75, 116
1, 64306, Note_on_c, 0, 76, 118
1, 64355, Note_off_c, 0, 76, 118
1, 64371, Note_on_c, 0, 77, 123
1, 64479, Note_on_c, 0, 76, 107
1, 64479, Note_off_c, 0, 77, 123
1, 64531, Note_off_c, 0, 76, 107
1, 64539, Note_on_c, 0, 74, 115
1, 64652, Note_off_c, 0, 74, 115
1, 64652, Note_on_c, 0, 70, 115
1, 64746, Note_off_c, 0, 70, 115
1, 64748, Note_on_c, 0, 67, 114
1, 64867, Note_off_c, 0, 67, 114
1, 64900, Note_on_c, 0, 72, 121
1, 64988, Note_off_c, 0, 72, 121
1, 65001, Note_on_c, 0, 69, 117
1, 65078, Note_off_c, 0, 69, 117
1, 65078, Note_on_c, 0, 72, 121
1, 65166, Note_off_c, 0, 72, 121
1, 65179, Note_on_c, 0, 73, 117
1, 65323, Note_off_c, 0, 73, 117
1, 65570, Note_on_c, 0, 61, 114
1, 65614, Note_off_c, 0, 61, 114
1, 65616, Note_on_c, 0, 62, 113
1, 65679, Note_off_c, 0, 62, 113
1, 65679, Note_on_c, 0, 65, 117
1, 65762, Note_off_c, 0, 65, 117
1, 65764, Note_on_c, 0, 69, 118
1, 65841, Note_off_c, 0, 69, 118
1, 65849, Note_on_c, 0, 72, 122
1, 65968, Note_off_c, 0, 72, 122
1, 65970, Note_on_c, 0, 71, 118
1, 66003, Note_on_c, 0, 70, 114
1, 66003, Note_off_c, 0, 71, 118
1, 66086, Note_off_c, 0, 70, 114
1, 66086, Note_on_c, 0, 69, 120
1, 66172, Note_off_c, 0, 69, 120
1, 66180, Note_on_c, 0, 68, 110
1, 66274, Note_off_c, 0, 68, 110
1, 66276, Note_on_c, 0, 60, 106
1, 66356, Note_off_c, 0, 60, 106
1, 66375, Note_on_c, 0, 61, 100
1, 66452, Note_off_c, 0, 61, 100
1, 66465, Note_on_c, 0, 62, 97
1, 66559, Note_off_c, 0, 62, 97
1, 66572, Note_on_c, 0, 67, 122
1, 66652, Note_off_c, 0, 67, 122
1, 66665, Note_on_c, 0, 66, 118
1, 66726, Note_off_c, 0, 66, 118
1, 66770, Note_on_c, 0, 65, 117
1, 66842, Note_off_c, 0, 65, 117
1, 66875, Note_on_c, 0, 62, 110
1, 66997, Note_off_c, 0, 62, 110
1, 67005, Note_on_c, 0, 61, 112
1, 67099, Note_off_c, 0, 61, 112
1, 67118, Note_on_c, 0, 58, 106
1, 67226, Note_off_c, 0, 58, 106
1, 67256, Note_on_c, 0, 57, 108
1, 67347, Note_off_c, 0, 57, 108
1, 67349, Note_on_c, 0, 56, 103
1, 67443, Note_off_c, 0, 56, 103
1, 67443, Note_on_c, 0, 60, 107
1, 67573, Note_off_c, 0, 60, 107
1, 67573, Note_on_c, 0, 55, 105
1, 67675, Note_off_c, 0, 55, 105
1, 67675, Note_on_c, 0, 58, 101
1, 67774, Note_off_c, 0, 58, 101
1, 67810, Note_on_c, 0, 62, 107
1, 67893, Note_off_c, 0, 62, 107
1, 67895, Note_on_c, 0, 65, 109
1, 68064, Note_off_c, 0, 65, 109
1, 68141, Note_on_c, 0, 67, 107
1, 68229, Note_off_c, 0, 67, 107
1, 68237, Note_on_c, 0, 70, 104
1, 68286, Note_off_c, 0, 70, 104
1, 68297, Note_on_c, 0, 74, 117
1, 68405, Note_off_c, 0, 74, 117
1, 68410, Note_on_c, 0, 72, 117
1, 68515, Note_off_c, 0, 72, 117
1, 68515, Note_on_c, 0, 70, 115
1, 68601, Note_off_c, 0, 70, 115
1, 68603, Note_on_c, 0, 67, 122
1, 68686, Note_off_c, 0, 67, 122
1, 68686, Note_on_c, 0, 63, 110
1, 68819, Note_off_c, 0, 63, 110
1, 68819, Note_on_c, 0, 60, 106
1, 68902, Note_off_c, 0, 60, 106
1, 68904, Note_on_c, 0, 62, 115
1, 68995, Note_off_c, 0, 62, 115
1, 68995, Note_on_c, 0, 65, 111
1, 69119, Note_off_c, 0, 65, 111
1, 69157, Note_on_c, 0, 65, 111
1, 69268, Note_on_c, 0, 63, 101
1, 69268, Note_off_c, 0, 65, 111
1, 69731, Note_off_c, 0, 63, 101
1, 70580, Note_on_c, 0, 62, 122
1, 70671, Note_off_c, 0, 62, 122
1, 70673, Note_on_c, 0, 63, 123
1, 70786, Note_off_c, 0, 63, 123
1, 70786, Note_on_c, 0, 65, 120
1, 70902, Note_off_c, 0, 65, 120
1, 70907, Note_on_c, 0, 63, 119
1, 71029, Note_off_c, 0, 63, 119
1, 71034, Note_on_c, 0, 62, 116
1, 71120, Note_off_c, 0, 62, 116
1, 71128, Note_on_c, 0, 58, 105
1, 71208, Note_off_c, 0, 58, 105
1, 71208, Note_on_c, 0, 55, 107
1, 71296, Note_off_c, 0, 55, 107
1, 71315, Note_on_c, 0, 57, 109
1, 71345, Note_off_c, 0, 57, 109
1, 71361, Note_on_c, 0, 60, 113
1, 71469, Note_off_c, 0, 60, 113
1, 71493, Note_on_c, 0, 57, 103
1, 71584, Note_off_c, 0, 57, 103
1, 71597, Note_on_c, 0, 60, 98
1, 71660, Note_off_c, 0, 60, 98
1, 71673, Note_on_c, 0, 64, 114
1, 71725, Note_off_c, 0, 64, 114
1, 71727, Note_on_c, 0, 69, 118
1, 71846, Note_off_c, 0, 69, 118
1, 71848, Note_on_c, 0, 67, 119
1, 71967, Note_off_c, 0, 67, 119
1, 71967, Note_on_c, 0, 64, 103
1, 72050, Note_off_c, 0, 64, 103
1, 72061, Note_on_c, 0, 60, 102
1, 72127, Note_off_c, 0, 60, 102
1, 72140, Note_on_c, 0, 62, 95
1, 72531, Note_off_c, 0, 62, 95
1, 73575, Note_on_c, 0, 67, 85
1, 73630, Note_off_c, 0, 67, 85
1, 73635, Note_on_c, 0, 68, 126
1, 73723, Note_off_c, 0, 68, 126
1, 73725, Note_on_c, 0, 69, 119
1, 73811, Note_off_c, 0, 69, 119
1, 73811, Note_on_c, 0, 72, 121
1, 73933, Note_on_c, 0, 71, 120
1, 73933, Note_off_c, 0, 72, 121
1, 73977, Note_off_c, 0, 71, 120
1, 73977, Note_on_c, 0, 70, 119
1, 74085, Note_off_c, 0, 70, 119
1, 74085, Note_on_c, 0, 69, 120
1, 74187, Note_off_c, 0, 69, 120
1, 74192, Note_on_c, 0, 68, 120
1, 74275, Note_off_c, 0, 68, 120
1, 74288, Note_on_c, 0, 67, 123
1, 74349, Note_off_c, 0, 67, 123
1, 74357, Note_on_c, 0, 66, 121
1, 74456, Note_off_c, 0, 66, 121
1, 74467, Note_on_c, 0, 65, 117
1, 74591, Note_off_c, 0, 65, 117
1, 74599, Note_on_c, 0, 64, 113
1, 74698, Note_off_c, 0, 64, 113
1, 74698, Note_on_c, 0, 58, 100
1, 74806, Note_off_c, 0, 58, 100
1, 74808, Note_on_c, 0, 59, 100
1, 74877, Note_off_c, 0, 59, 100
1, 74877, Note_on_c, 0, 61, 111
1, 74979, Note_off_c, 0, 61, 111
1, 74998, Note_on_c, 0, 60, 104
1, 75059, Note_off_c, 0, 60, 104
1, 75061, Note_on_c, 0, 58, 107
1, 75147, Note_off_c, 0, 58, 107
1, 75158, Note_on_c, 0, 57, 109
1, 75221, Note_off_c, 0, 57, 109
1, 75221, Note_on_c, 0, 66, 119
1, 75332, Note_off_c, 0, 66, 119
1, 75373, Note_on_c, 0, 63, 97
1, 75428, Note_off_c, 0, 63, 97
1, 75433, Note_on_c, 0, 64, 105
1, 75488, Note_off_c, 0, 64, 105
1, 75488, Note_on_c, 0, 65, 120
1, 75624, Note_off_c, 0, 65, 120
1, 75637, Note_on_c, 0, 62, 106
1, 75761, Note_off_c, 0, 62, 106
1, 76469, Note_on_c, 0, 71, 113
1, 76566, Note_off_c, 0, 71, 113
1, 76577, Note_on_c, 0, 68, 123
1, 76671, Note_off_c, 0, 68, 123
1, 76671, Note_on_c, 0, 64, 112
1, 76757, Note_off_c, 0, 64, 112
1, 76762, Note_on_c, 0, 61, 95
1, 76836, Note_off_c, 0, 61, 95
1, 76836, Note_on_c, 0, 70, 117
1, 76935, Note_off_c, 0, 70, 117
1, 76954, Note_on_c, 0, 68, 119
1, 77062, Note_off_c, 0, 68, 119
1, 77062, Note_on_c, 0, 71, 117
1, 77148, Note_off_c, 0, 71, 117
1, 77148, Note_on_c, 0, 68, 122
1, 77231, Note_off_c, 0, 68, 122
1, 77231, Note_on_c, 0, 64, 114
1, 77333, Note_off_c, 0, 64, 114
1, 77333, Note_on_c, 0, 61, 98
1, 77407, Note_off_c, 0, 61, 98
1, 77407, Note_on_c, 0, 70, 111
1, 77537, Note_off_c, 0, 70, 111
1, 77537, Note_on_c, 0, 66, 108
1, 77650, Note_off_c, 0, 66, 108
1, 77686, Note_on_c, 0, 61, 102
1, 77735, Note_off_c, 0, 61, 102
1, 77735, Note_on_c, 0, 62, 85
1, 77776, Note_off_c, 0, 62, 85
1, 77792, Note_on_c, 0, 70, 113
1, 77903, Note_off_c, 0, 70, 113
1, 77903, Note_on_c, 0, 66, 119
1, 78008, Note_off_c, 0, 66, 119
1, 78019, Note_on_c, 0, 63, 107
1, 78107, Note_off_c, 0, 63, 107
1, 78173, Note_on_c, 0, 68, 122
1, 78289, Note_off_c, 0, 68, 122
1, 78297, Note_on_c, 0, 66, 109
1, 78399, Note_off_c, 0, 66, 109
1, 78399, Note_on_c, 0, 70, 115
1, 78507, Note_off_c, 0, 70, 115
1, 78515, Note_on_c, 0, 66, 115
1, 78601, Note_off_c, 0, 66, 115
1, 78612, Note_on_c, 0, 63, 99
1, 78659, Note_off_c, 0, 63, 99
1, 78672, Note_on_c, 0, 59, 97
1, 78735, Note_off_c, 0, 59, 97
1, 78735, Note_on_c, 0, 68, 107
1, 79054, Note_off_c, 0, 68, 107
1, 79470, Note_on_c, 0, 69, 115
1, 79608, Note_off_c, 0, 69, 115
1, 79616, Note_on_c, 0, 66, 120
1, 79724, Note_off_c, 0, 66, 120
1, 79732, Note_on_c, 0, 62, 97
1, 79806, Note_off_c, 0, 62, 97
1, 79808, Note_on_c, 0, 59, 94
1, 79838, Note_off_c, 0, 59, 94
1, 79838, Note_on_c, 0, 68, 119
1, 79985, Note_off_c, 0, 68, 119
1, 80004, Note_on_c, 0, 66, 118
1, 80109, Note_off_c, 0, 66, 118
1, 80109, Note_on_c, 0, 64, 106
1, 80561, Note_off_c, 0, 64, 106
1, 80561, Note_on_c, 0, 63, 113
1, 80658, Note_off_c, 0, 63, 113
1, 80660, Note_on_c, 0, 62, 113
1, 80748, Note_off_c, 0, 62, 113
1, 80759, Note_on_c, 0, 64, 109
1, 80850, Note_off_c, 0, 64, 109
1, 80850, Note_on_c, 0, 66, 111
1, 80936, Note_off_c, 0, 66, 111
1, 80952, Note_on_c, 0, 68, 112
1, 81026, Note_off_c, 0, 68, 112
1, 81026, Note_on_c, 0, 73, 120
1, 81134, Note_off_c, 0, 73, 120
1, 81134, Note_on_c, 0, 72, 122
1, 81245, Note_off_c, 0, 72, 122
1, 81250, Note_on_c, 0, 71, 114
1, 81316, Note_off_c, 0, 71, 114
1, 81318, Note_on_c, 0, 70, 115
1, 81412, Note_off_c, 0, 70, 115
1, 81414, Note_on_c, 0, 69, 115
1, 81511, Note_on_c, 0, 66, 105
1, 81511, Note_off_c, 0, 69, 115
1, 81619, Note_off_c, 0, 66, 105
1, 81624, Note_on_c, 0, 62, 103
1, 81735, Note_off_c, 0, 62, 103
1, 81735, Note_on_c, 0, 59, 99
1, 81821, Note_off_c, 0, 59, 99
1, 81826, Note_on_c, 0, 61, 104
1, 81900, Note_off_c, 0, 61, 104
1, 81900, Note_on_c, 0, 64, 113
1, 82052, Note_off_c, 0, 64, 113
1, 82729, Note_on_c, 0, 78, 120
1, 82859, Note_off_c, 0, 78, 120
1, 82889, Note_on_c, 0, 76, 119
1, 82941, Note_off_c, 0, 76, 119
1, 82960, Note_on_c, 0, 72, 125
1, 83007, Note_on_c, 0, 69, 114
1, 83007, Note_off_c, 0, 72, 125
1, 83134, Note_off_c, 0, 69, 114
1, 83142, Note_on_c, 0, 78, 121
1, 83286, Note_off_c, 0, 78, 121
1, 83286, Note_on_c, 0, 75, 115
1, 83330, Note_off_c, 0, 75, 115
1, 83341, Note_on_c, 0, 73, 100
1, 83379, Note_off_c, 0, 73, 100
1, 83403, Note_on_c, 0, 67, 117
1, 83544, Note_off_c, 0, 67, 117
1, 83546, Note_on_c, 0, 76, 123
1, 83657, Note_off_c, 0, 76, 123
1, 83657, Note_on_c, 0, 73, 113
1, 83701, Note_off_c, 0, 73, 113
1, 83714, Note_on_c, 0, 69, 123
1, 83783, Note_off_c, 0, 69, 123
1, 83788, Note_on_c, 0, 66, 109
1, 83929, Note_off_c, 0, 66, 109
1, 83929, Note_on_c, 0, 74, 122
1, 84090, Note_off_c, 0, 74, 122
1, 84423, Note_on_c, 0, 66, 122
1, 84514, Note_off_c, 0, 66, 122
1, 84516, Note_on_c, 0, 67, 115
1, 84607, Note_off_c, 0, 67, 115
1, 84615, Note_on_c, 0, 72, 118
1, 84701, Note_off_c, 0, 72, 118
1, 84701, Note_on_c, 0, 71, 115
1, 84778, Note_off_c, 0, 71, 115
1, 84778, Note_on_c, 0, 67, 117
1, 84902, Note_off_c, 0, 67, 117
1, 84904, Note_on_c, 0, 64, 112
1, 84984, Note_off_c, 0, 64, 112
1, 84989, Note_on_c, 0, 63, 115
1, 85063, Note_off_c, 0, 63, 115
1, 85074, Note_on_c, 0, 62, 115
1, 85196, Note_off_c, 0, 62, 115
1, 85207, Note_on_c, 0, 60, 99
1, 85251, Note_off_c, 0, 60, 99
1, 85273, Note_on_c, 0, 59, 99
1, 85334, Note_off_c, 0, 59, 99
1, 85336, Note_on_c, 0, 66, 110
1, 85427, Note_off_c, 0, 66, 110
1, 85438, Note_on_c, 0, 69, 120
1, 85585, Note_off_c, 0, 69, 120
1, 85598, Note_on_c, 0, 67, 115
1, 85759, Note_off_c, 0, 67, 115
1, 86331, Note_on_c, 0, 66, 117
1, 86417, Note_off_c, 0, 66, 117
1, 86430, Note_on_c, 0, 67, 111
1, 86510, Note_off_c, 0, 67, 111
1, 86537, Note_on_c, 0, 74, 96
1, 86586, Note_off_c, 0, 74, 96
1, 86605, Note_on_c, 0, 77, 122
1, 86696, Note_off_c, 0, 77, 122
1, 86712, Note_on_c, 0, 74, 101
1, 86800, Note_off_c, 0, 74, 101
1, 86805, Note_on_c, 0, 76, 116
1, 86843, Note_off_c, 0, 76, 116
1, 86848, Note_on_c, 0, 75, 106
1, 86875, Note_off_c, 0, 75, 106
1, 86902, Note_on_c, 0, 76, 115
1, 87010, Note_off_c, 0, 76, 115
1, 87096, Note_on_c, 0, 73, 94
1, 87182, Note_off_c, 0, 73, 94
1, 87198, Note_on_c, 0, 74, 120
1, 87270, Note_off_c, 0, 74, 120
1, 87270, Note_on_c, 0, 72, 120
1, 87353, Note_off_c, 0, 72, 120
1, 87355, Note_on_c, 0, 70, 117
1, 87449, Note_off_c, 0, 70, 117
1, 87454, Note_on_c, 0, 69, 121
1, 87559, Note_off_c, 0, 69, 121
1, 87561, Note_on_c, 0, 67, 122
1, 87658, Note_off_c, 0, 67, 122
1, 87669, Note_on_c, 0, 65, 121
1, 87782, Note_off_c, 0, 65, 121
1, 87787, Note_on_c, 0, 63, 105
1, 87859, Note_off_c, 0, 63, 105
1, 87864, Note_on_c, 0, 67, 99
1, 87933, Note_on_c, 0, 70, 116
1, 87933, Note_off_c, 0, 67, 99
1, 88030, Note_off_c, 0, 70, 116
1, 88038, Note_on_c, 0, 74, 115
1, 88135, Note_on_c, 0, 72, 119
1, 88135, Note_off_c, 0, 74, 115
1, 88212, Note_off_c, 0, 72, 119
1, 88225, Note_on_c, 0, 70, 112
1, 88322, Note_on_c, 0, 69, 109
1, 88322, Note_off_c, 0, 70, 112
1, 88416, Note_off_c, 0, 69, 109
1, 88416, Note_on_c, 0, 68, 122
1, 88529, Note_off_c, 0, 68, 122
1, 88529, Note_on_c, 0, 66, 114
1, 88615, Note_off_c, 0, 66, 114
1, 88634, Note_on_c, 0, 67, 107
1, 88708, Note_off_c, 0, 67, 107
1, 88721, Note_on_c, 0, 70, 116
1, 88815, Note_off_c, 0, 70, 116
1, 88826, Note_on_c, 0, 67, 116
1, 88914, Note_off_c, 0, 67, 116
1, 88916, Note_on_c, 0, 63, 108
1, 89018, Note_off_c, 0, 63, 108
1, 89023, Note_on_c, 0, 60, 103
1, 89089, Note_off_c, 0, 60, 103
1, 89094, Note_on_c, 0, 65, 118
1, 89202, Note_off_c, 0, 65, 118
1, 89224, Note_on_c, 0, 63, 114
1, 89304, Note_off_c, 0, 63, 114
1, 89312, Note_on_c, 0, 62, 109
1, 89403, Note_off_c, 0, 62, 109
1, 89430, Note_on_c, 0, 58, 103
1, 89521, Note_off_c, 0, 58, 103
1, 89521, Note_on_c, 0, 55, 102
1, 89593, Note_off_c, 0, 55, 102
1, 89593, Note_on_c, 0, 57, 106
1, 89645, Note_off_c, 0, 57, 106
1, 89645, Note_on_c, 0, 60, 114
1, 89800, Note_off_c, 0, 60, 114
1, 89802, Note_on_c, 0, 59, 102
1, 89865, Note_off_c, 0, 59, 102
1, 89870, Note_on_c, 0, 58, 104
1, 89939, Note_off_c, 0, 58, 104
1, 89958, Note_on_c, 0, 57, 112
1, 90077, Note_off_c, 0, 57, 112
1, 90099, Note_on_c, 0, 56, 108
1, 90182, Note_off_c, 0, 56, 108
1, 90187, Note_on_c, 0, 58, 97
1, 90236, Note_off_c, 0, 58, 97
1, 90236, Note_on_c, 0, 60, 99
1, 90324, Note_off_c, 0, 60, 99
1, 90337, Note_on_c, 0, 62, 107
1, 90414, Note_off_c, 0, 62, 107
1, 90414, Note_on_c, 0, 70, 119
1, 90552, Note_off_c, 0, 70, 119
1, 90552, Note_on_c, 0, 66, 112
1, 90726, Note_off_c, 0, 66, 112
1, 91947, Note_on_c, 0, 67, 120
1, 92074, Note_off_c, 0, 67, 120
1, 92090, Note_on_c, 0, 70, 108
1, 92142, Note_off_c, 0, 70, 108
1, 92142, Note_on_c, 0, 74, 108
1, 92250, Note_off_c, 0, 74, 108
1, 92250, Note_on_c, 0, 77, 117
1, 92341, Note_off_c, 0, 77, 117
1, 92360, Note_on_c, 0, 74, 126
1, 92443, Note_on_c, 0, 72, 123
1, 92443, Note_off_c, 0, 74, 126
1, 92512, Note_off_c, 0, 72, 123
1, 92512, Note_on_c, 0, 70, 119
1, 92570, Note_on_c, 0, 67, 117
1, 92570, Note_off_c, 0, 70, 119
1, 92714, Note_off_c, 0, 67, 117
1, 92714, Note_on_c, 0, 74, 127
1, 92850, Note_off_c, 0, 74, 127
1, 92866, Note_on_c, 0, 77, 112
1, 93257, Note_off_c, 0, 77, 112
1, 93581, Note_on_c, 0, 65, 118
1, 93730, Note_off_c, 0, 65, 118
1, 93738, Note_on_c, 0, 67, 105
1, 93790, Note_off_c, 0, 67, 105
1, 93790, Note_on_c, 0, 70, 91
1, 93831, Note_off_c, 0, 70, 91
1, 93833, Note_on_c, 0, 73, 92
1, 93869, Note_off_c, 0, 73, 92
1, 93874, Note_on_c, 0, 77, 124
1, 94015, Note_off_c, 0, 77, 124
1, 94015, Note_on_c, 0, 76, 122
1, 94134, Note_on_c, 0, 75, 115
1, 94134, Note_off_c, 0, 76, 122
1, 94175, Note_off_c, 0, 75, 115
1, 94186, Note_on_c, 0, 74, 123
1, 94277, Note_off_c, 0, 74, 123
1, 94279, Note_on_c, 0, 73, 125
1, 94362, Note_off_c, 0, 73, 125
1, 94370, Note_on_c, 0, 72, 123
1, 94456, Note_off_c, 0, 72, 123
1, 94464, Note_on_c, 0, 70, 119
1, 94544, Note_off_c, 0, 70, 119
1, 94546, Note_on_c, 0, 66, 118
1, 94643, Note_on_c, 0, 61, 100
1, 94643, Note_off_c, 0, 66, 118
1, 94709, Note_off_c, 0, 61, 100
1, 94722, Note_on_c, 0, 60, 91
1, 94788, Note_off_c, 0, 60, 91
1, 94801, Note_on_c, 0, 69, 118
1, 94925, Note_off_c, 0, 69, 118
1, 94936, Note_on_c, 0, 67, 119
1, 95033, Note_off_c, 0, 67, 119
1, 95035, Note_on_c, 0, 65, 118
1, 95143, Note_off_c, 0, 65, 118
1, 95151, Note_on_c, 0, 74, 101
1, 95242, Note_off_c, 0, 74, 101
1, 95272, Note_on_c, 0, 62, 101
1, 95355, Note_off_c, 0, 62, 101
1, 95355, Note_on_c, 0, 58, 105
1, 95435, Note_off_c, 0, 58, 105
1, 95437, Note_on_c, 0, 60, 119
1, 95539, Note_off_c, 0, 60, 119
1, 95541, Note_on_c, 0, 58, 109
1, 95629, Note_off_c, 0, 58, 109
1, 95648, Note_on_c, 0, 57, 101
1, 95753, Note_off_c, 0, 57, 101
1, 95780, Note_on_c, 0, 62, 122
1, 95868, Note_off_c, 0, 62, 122
1, 95895, Note_on_c, 0, 65, 109
1, 96003, Note_off_c, 0, 65, 109
1, 96011, Note_on_c, 0, 67, 102
1, 96060, Note_off_c, 0, 67, 102
1, 96084, Note_on_c, 0, 69, 106
1, 96158, Note_off_c, 0, 69, 106
1, 96169, Note_on_c, 0, 72, 123
1, 96277, Note_off_c, 0, 72, 123
1, 96277, Note_on_c, 0, 71, 120
1, 96351, Note_off_c, 0, 71, 120
1, 96359, Note_on_c, 0, 70, 115
1, 96464, Note_off_c, 0, 70, 115
1, 96472, Note_on_c, 0, 69, 125
1, 96558, Note_off_c, 0, 69, 125
1, 96558, Note_on_c, 0, 67, 126
1, 96666, Note_off_c, 0, 67, 126
1, 96666, Note_on_c, 0, 65, 119
1, 96754, Note_off_c, 0, 65, 119
1, 96759, Note_on_c, 0, 64, 114
1, 96856, Note_off_c, 0, 64, 114
1, 96867, Note_on_c, 0, 60, 98
1, 96941, Note_off_c, 0, 60, 98
1, 96952, Note_on_c, 0, 62, 96
1, 97443, Note_off_c, 0, 62, 96
1, 98101, Note_on_c, 0, 65, 121
1, 98212, Note_off_c, 0, 65, 121
1, 98220, Note_on_c, 0, 67, 112
1, 98286, Note_off_c, 0, 67, 112
1, 98297, Note_on_c, 0, 70, 110
1, 98383, Note_off_c, 0, 70, 110
1, 98385, Note_on_c, 0, 72, 120
1, 98446, Note_off_c, 0, 72, 120
1, 98451, Note_on_c, 0, 73, 124
1, 98564, Note_off_c, 0, 73, 124
1, 98564, Note_on_c, 0, 70, 100
1, 98641, Note_off_c, 0, 70, 100
1, 98643, Note_on_c, 0, 72, 124
1, 99140, Note_off_c, 0, 72, 124
1, 99142, Note_on_c, 0, 69, 111
1, 99228, Note_off_c, 0, 69, 111
1, 99236, Note_on_c, 0, 70, 116
1, 99333, Note_off_c, 0, 70, 116
1, 99333, Note_on_c, 0, 65, 113
1, 99455, Note_off_c, 0, 65, 113
1, 99455, Note_on_c, 0, 62, 94
1, 99577, Note_off_c, 0, 62, 94
1, 99593, Note_on_c, 0, 69, 114
1, 99731, Note_off_c, 0, 69, 114
1, 99731, Note_on_c, 0, 68, 118
1, 99836, Note_off_c, 0, 68, 118
1, 99838, Note_on_c, 0, 67, 101
1, 99924, Note_off_c, 0, 67, 101
1, 99946, Note_on_c, 0, 66, 124
1, 100037, Note_off_c, 0, 66, 124
1, 100053, Note_on_c, 0, 65, 107
1, 100152, Note_off_c, 0, 65, 107
1, 100160, Note_on_c, 0, 64, 98
1, 100234, Note_off_c, 0, 64, 98
1, 100242, Note_on_c, 0, 63, 94
1, 100322, Note_off_c, 0, 63, 94
1, 100322, Note_on_c, 0, 58, 98
1, 100424, Note_off_c, 0, 58, 98
1, 100440, Note_on_c, 0, 55, 107
1, 100551, Note_off_c, 0, 55, 107
1, 100578, Note_on_c, 0, 61, 109
1, 100655, Note_on_c, 0, 62, 102
1, 100655, Note_off_c, 0, 61, 109
1, 100729, Note_off_c, 0, 62, 102
1, 100729, Note_on_c, 0, 60, 108
1, 100790, Note_off_c, 0, 60, 108
1, 100798, Note_on_c, 0, 58, 95
1, 100989, Note_off_c, 0, 58, 95
1, 100989, End_track
0, 0, End_of_file
