0, 0, Header, 1, 1, 192
1, 0, Start_track
1, 0, Title_t, "Melody"
1, 0, Tempo, 266666
1, 0, Key_signature, -4, "major"
1, 0, Time_signature, 4, 2, 24, 8
1, 888, Note_on_c, 0, 63, 105
1, 961, Note_off_c, 0, 63, 105
1, 971, Note_on_c, 0, 65, 100
1, 1069, Note_off_c, 0, 65, 100
1, 1137, Note_on_c, 0, 68, 113
1, 1258, Note_off_c, 0, 68, 113
1, 1268, Note_on_c, 0, 67, 107
1, 1343, Note_off_c, 0, 67, 107
1, 1357, Note_on_c, 0, 65, 110
1, 1457, Note_off_c, 0, 65, 110
1, 1459, Note_on_c, 0, 64, 111
1, 1559, Note_off_c, 0, 64, 111
1, 1559, Note_on_c, 0, 63, 111
1, 1634, Note_off_c, 0, 63, 111
1, 1667, Note_on_c, 0, 61, 93
1, 1771, Note_off_c, 0, 61, 93
1, 1812, Note_on_c, 0, 61, 101
1, 1893, Note_off_c, 0, 61, 101
1, 1901, Note_on_c, 0, 63, 112
1, 2020, Note_off_c, 0, 63, 112
1, 2043, Note_on_c, 0, 60, 92
1, 2091, Note_off_c, 0, 60, 92
1, 2099, Note_on_c, 0, 61, 107
1, 2216, Note_off_c, 0, 61, 107
1, 2226, Note_on_c, 0, 63, 90
1, 2549, Note_off_c, 0, 63, 90
1, 3372, Note_on_c, 0, 60, 100
1, 3451, Note_off_c, 0, 60, 100
1, 3452, Note_on_c, 0, 67, 115
1, 3548, Note_off_c, 0, 67, 115
1, 3553, Note_on_c, 0, 65, 114
1, 3644, Note_off_c, 0, 65, 114
1, 3645, Note_on_c, 0, 62, 105
1, 3741, Note_off_c, 0, 62, 105
1, 3764, Note_on_c, 0, 58, 85
1, 3812, Note_off_c, 0, 58, 85
1, 3824, Note_on_c, 0, 60, 96
1, 4022, Note_off_c, 0, 60, 96
1, 5102, Note_on_c, 0, 58, 98
1, 5135, Note_off_c, 0, 58, 98
1, 5138, Note_on_c, 0, 61, 110
1, 5175, Note_off_c, 0, 61, 110
1, 5180, Note_on_c, 0, 65, 110
1, 5265, Note_off_c, 0, 65, 110
1, 5267, Note_on_c, 0, 69, 96
1, 5302, Note_off_c, 0, 69, 96
1, 5304, Note_on_c, 0, 73, 94
1, 5375, Note_off_c, 0, 73, 94
1, 5376, Note_on_c, 0, 75, 123
1, 5478, Note_off_c, 0, 75, 123
1, 5486, Note_on_c, 0, 74, 117
1, 5557, Note_off_c, 0, 74, 117
1, 5562, Note_on_c, 0, 73, 119
1, 5687, Note_off_c, 0, 73, 119
1, 5695, Note_on_c, 0, 72, 120
1, 5757, Note_off_c, 0, 72, 120
1, 5765, Note_on_c, 0, 70, 112
1, 5861, Note_off_c, 0, 70, 112
1, 5871, Note_on_c, 0, 69, 116
1, 5957, Note_off_c, 0, 69, 116
1, 5970, Note_on_c, 0, 68, 113
1, 6046, Note_off_c, 0, 68, 113
1, 6051, Note_on_c, 0, 67, 114
1, 6132, Note_off_c, 0, 67, 114
1, 6140, Note_on_c, 0, 66, 115
1, 6221, Note_off_c, 0, 66, 115
1, 6244, Note_on_c, 0, 65, 115
1, 6329, Note_off_c, 0, 65, 115
1, 6337, Note_on_c, 0, 64, 109
1, 6441, Note_off_c, 0, 64, 109
1, 6460, Note_on_c, 0, 61, 96
1, 6523, Note_off_c, 0, 61, 96
1, 6531, Note_on_c, 0, 63, 104
1, 6679, Note_off_c, 0, 63, 104
1, 7034, Note_on_c, 0, 61, 106
1, 7153, Note_off_c, 0, 61, 106
1, 7165, Note_on_c, 0, 60, 84
1, 7240, Note_off_c, 0, 60, 84
1, 7680, Note_on_c, 0, 70, 119
1, 7803, Note_off_c, 0, 70, 119
1, 7803, Note_on_c, 0, 66, 112
1, 7899, Note_off_c, 0, 66, 112
1, 7905, Note_on_c, 0, 63, 94
1, 8017, Note_off_c, 0, 63, 94
1, 8073, Note_on_c, 0, 68, 115
1, 8208, Note_off_c, 0, 68, 115
1, 8214, Note_on_c, 0, 64, 92
1, 8257, Note_off_c, 0, 64, 92
1, 8292, Note_on_c, 0, 65, 101
1, 8348, Note_off_c, 0, 65, 101
1, 8348, Note_on_c, 0, 68, 105
1, 8402, Note_off_c, 0, 68, 105
1, 8418, Note_on_c, 0, 72, 91
1, 8456, Note_off_c, 0, 72, 91
1, 8466, Note_on_c, 0, 75, 122
1, 8585, Note_off_c, 0, 75, 122
1, 8618, Note_on_c, 0, 73, 101
1, 8942, Note_off_c, 0, 73, 101
1, 9154, Note_on_c, 0, 78, 124
1, 9262, Note_off_c, 0, 78, 124
1, 9272, Note_on_c, 0, 76, 123
1, 9336, Note_off_c, 0, 76, 123
1, 9362, Note_on_c, 0, 68, 99
1, 9435, Note_off_c, 0, 68, 99
1, 9442, Note_on_c, 0, 71, 112
1, 9542, Note_off_c, 0, 71, 112
1, 9546, Note_on_c, 0, 75, 121
1, 9640, Note_off_c, 0, 75, 121
1, 9646, Note_on_c, 0, 73, 120
1, 9794, Note_off_c, 0, 73, 120
1, 10121, Note_on_c, 0, 70, 121
1, 10200, Note_off_c, 0, 70, 121
1, 10206, Note_on_c, 0, 72, 124
1, 10348, Note_off_c, 0, 72, 124
1, 10402, Note_on_c, 0, 75, 119
1, 10498, Note_off_c, 0, 75, 119
1, 10506, Note_on_c, 0, 73, 118
1, 10574, Note_off_c, 0, 73, 118
1, 10587, Note_on_c, 0, 72, 122
1, 10692, Note_off_c, 0, 72, 122
1, 10695, Note_on_c, 0, 70, 120
1, 10776, Note_off_c, 0, 70, 120
1, 10782, Note_on_c, 0, 69, 120
1, 10889, Note_off_c, 0, 69, 120
1, 10974, Note_on_c, 0, 63, 104
1, 11114, Note_off_c, 0, 63, 104
1, 11168, Note_on_c, 0, 65, 122
1, 11245, Note_off_c, 0, 65, 122
1, 11250, Note_on_c, 0, 67, 110
1, 11298, Note_off_c, 0, 67, 110
1, 11306, Note_on_c, 0, 66, 116
1, 11368, Note_off_c, 0, 66, 116
1, 11381, Note_on_c, 0, 65, 115
1, 11451, Note_off_c, 0, 65, 115
1, 11471, Note_on_c, 0, 63, 114
1, 11539, Note_off_c, 0, 63, 114
1, 11553, Note_on_c, 0, 62, 103
1, 11651, Note_off_c, 0, 62, 103
1, 11673, Note_on_c, 0, 65, 101
1, 11739, Note_off_c, 0, 65, 101
1, 11753, Note_on_c, 0, 68, 116
1, 11849, Note_off_c, 0, 68, 116
1, 11852, Note_on_c, 0, 72, 104
1, 11920, Note_off_c, 0, 72, 104
1, 11965, Note_on_c, 0, 66, 112
1, 12046, Note_off_c, 0, 66, 112
1, 12055, Note_on_c, 0, 67, 110
1, 12137, Note_off_c, 0, 67, 110
1, 12137, Note_on_c, 0, 70, 106
1, 12258, Note_off_c, 0, 70, 106
1, 12266, Note_on_c, 0, 67, 100
1, 12316, Note_off_c, 0, 67, 100
1, 12328, Note_on_c, 0, 68, 117
1, 12419, Note_off_c, 0, 68, 117
1, 12432, Note_on_c, 0, 65, 109
1, 12578, Note_off_c, 0, 65, 109
1, 13204, Note_on_c, 0, 58, 102
1, 13249, Note_off_c, 0, 58, 102
1, 13254, Note_on_c, 0, 61, 101
1, 13287, Note_off_c, 0, 61, 101
1, 13290, Note_on_c, 0, 65, 117
1, 13381, Note_off_c, 0, 65, 117
1, 13388, Note_on_c, 0, 68, 116
1, 13459, Note_off_c, 0, 68, 116
1, 13461, Note_on_c, 0, 67, 116
1, 13557, Note_off_c, 0, 67, 116
1, 13567, Note_on_c, 0, 65, 119
1, 13647, Note_off_c, 0, 65, 119
1, 13661, Note_on_c, 0, 63, 101
1, 13722, Note_off_c, 0, 63, 101
1, 13777, Note_on_c, 0, 58, 96
1, 13825, Note_off_c, 0, 58, 96
1, 13833, Note_on_c, 0, 66, 122
1, 13924, Note_off_c, 0, 66, 122
1, 13940, Note_on_c, 0, 65, 115
1, 14012, Note_off_c, 0, 65, 115
1, 14027, Note_on_c, 0, 64, 112
1, 14175, Note_off_c, 0, 64, 112
1, 14348, Note_on_c, 0, 59, 97
1, 14437, Note_off_c, 0, 59, 97
1, 14451, Note_on_c, 0, 61, 100
1, 14528, Note_off_c, 0, 61, 100
1, 14532, Note_on_c, 0, 64, 118
1, 14600, Note_off_c, 0, 64, 118
1, 14615, Note_on_c, 0, 63, 109
1, 14709, Note_off_c, 0, 63, 109
1, 14731, Note_on_c, 0, 61, 110
1, 14797, Note_off_c, 0, 61, 110
1, 14800, Note_on_c, 0, 60, 100
1, 14877, Note_off_c, 0, 60, 100
1, 14889, Note_on_c, 0, 58, 102
1, 14962, Note_off_c, 0, 58, 102
1, 14976, Note_on_c, 0, 57, 96
1, 15072, Note_off_c, 0, 57, 96
1, 15093, Note_on_c, 0, 60, 95
1, 15155, Note_off_c, 0, 60, 95
1, 15167, Note_on_c, 0, 63, 114
1, 15270, Note_off_c, 0, 63, 114
1, 15285, Note_on_c, 0, 61, 88
1, 15350, Note_off_c, 0, 61, 88
1, 15358, Note_on_c, 0, 66, 118
1, 15472, Note_off_c, 0, 66, 118
1, 15489, Note_on_c, 0, 65, 110
1, 15587, Note_off_c, 0, 65, 110
1, 15598, Note_on_c, 0, 63, 104
1, 15672, Note_off_c, 0, 63, 104
1, 15687, Note_on_c, 0, 60, 91
1, 15735, Note_off_c, 0, 60, 91
1, 15741, Note_on_c, 0, 67, 118
1, 15872, Note_off_c, 0, 67, 118
1, 15872, Note_on_c, 0, 65, 114
1, 15945, Note_off_c, 0, 65, 114
1, 15948, Note_on_c, 0, 61, 102
1, 15986, Note_off_c, 0, 61, 102
1, 15987, Note_on_c, 0, 62, 102
1, 16068, Note_off_c, 0, 62, 102
1, 16077, Note_on_c, 0, 58, 87
1, 16127, Note_off_c, 0, 58, 87
1, 16131, Note_on_c, 0, 60, 85
1, 16463, Note_off_c, 0, 60, 85
1, 17432, Note_on_c, 0, 67, 121
1, 17549, Note_off_c, 0, 67, 121
1, 17551, Note_on_c, 0, 65, 117
1, 17619, Note_off_c, 0, 65, 117
1, 17631, Note_on_c, 0, 63, 96
1, 17699, Note_off_c, 0, 63, 96
1, 17702, Note_on_c, 0, 67, 100
1, 17747, Note_off_c, 0, 67, 100
1, 17760, Note_on_c, 0, 70, 101
1, 17807, Note_off_c, 0, 70, 101
1, 17812, Note_on_c, 0, 73, 127
1, 17956, Note_off_c, 0, 73, 127
1, 17960, Note_on_c, 0, 72, 117
1, 18221, Note_off_c, 0, 72, 117
1, 18237, Note_on_c, 0, 70, 108
1, 18278, Note_off_c, 0, 70, 108
1, 18282, Note_on_c, 0, 72, 104
1, 18312, Note_off_c, 0, 72, 104
1, 18317, Note_on_c, 0, 70, 109
1, 18351, Note_off_c, 0, 70, 109
1, 18355, Note_on_c, 0, 68, 118
1, 18420, Note_off_c, 0, 68, 118
1, 18424, Note_on_c, 0, 67, 114
1, 18515, Note_off_c, 0, 67, 114
1, 18531, Note_on_c, 0, 65, 114
1, 18602, Note_off_c, 0, 65, 114
1, 18611, Note_on_c, 0, 64, 111
1, 18706, Note_off_c, 0, 64, 111
1, 18721, Note_on_c, 0, 55, 101
1, 18808, Note_off_c, 0, 55, 101
1, 18812, Note_on_c, 0, 58, 92
1, 18874, Note_off_c, 0, 58, 92
1, 18884, Note_on_c, 0, 61, 111
1, 18973, Note_off_c, 0, 61, 111
1, 18990, Note_on_c, 0, 60, 103
1, 19067, Note_off_c, 0, 60, 103
1, 19077, Note_on_c, 0, 58, 92
1, 19148, Note_off_c, 0, 58, 92
1, 19158, Note_on_c, 0, 56, 102
1, 19266, Note_off_c, 0, 56, 102
1, 19336, Note_on_c, 0, 72, 116
1, 19438, Note_off_c, 0, 72, 116
1, 19450, Note_on_c, 0, 70, 109
1, 19525, Note_off_c, 0, 70, 109
1, 19531, Note_on_c, 0, 68, 114
1, 19635, Note_off_c, 0, 68, 114
1, 19641, Note_on_c, 0, 66, 110
1, 19716, Note_off_c, 0, 66, 110
1, 19726, Note_on_c, 0, 64, 101
1, 19811, Note_off_c, 0, 64, 101
1, 19845, Note_on_c, 0, 58, 94
1, 19912, Note_off_c, 0, 58, 94
1, 19912, Note_on_c, 0, 61, 106
1, 20018, Note_off_c, 0, 61, 106
1, 20020, Note_on_c, 0, 64, 114
1, 20097, Note_off_c, 0, 64, 114
1, 20104, Note_on_c, 0, 63, 109
1, 20212, Note_off_c, 0, 63, 109
1, 20224, Note_on_c, 0, 61, 108
1, 20313, Note_off_c, 0, 61, 108
1, 20321, Note_on_c, 0, 60, 97
1, 20404, Note_off_c, 0, 60, 97
1, 20413, Note_on_c, 0, 63, 101
1, 20480, Note_off_c, 0, 63, 101
1, 20484, Note_on_c, 0, 65, 102
1, 20596, Note_off_c, 0, 65, 102
1, 20600, Note_on_c, 0, 67, 102
1, 20677, Note_off_c, 0, 67, 102
1, 20678, Note_on_c, 0, 70, 116
1, 20795, Note_off_c, 0, 70, 116
1, 20808, Note_on_c, 0, 68, 116
1, 20891, Note_off_c, 0, 68, 116
1, 20906, Note_on_c, 0, 67, 111
1, 20983, Note_off_c, 0, 67, 111
1, 20993, Note_on_c, 0, 65, 111
1, 21076, Note_off_c, 0, 65, 111
1, 21077, Note_on_c, 0, 64, 107
1, 21173, Note_off_c, 0, 64, 107
1, 21193, Note_on_c, 0, 55, 83
1, 21255, Note_off_c, 0, 55, 83
1, 21259, Note_on_c, 0, 58, 95
1, 21361, Note_off_c, 0, 58, 95
1, 21373, Note_on_c, 0, 61, 110
1, 21450, Note_off_c, 0, 61, 110
1, 21485, Note_on_c, 0, 58, 88
1, 21551, Note_off_c, 0, 58, 88
1, 21567, Note_on_c, 0, 55, 92
1, 21627, Note_off_c, 0, 55, 92
1, 21643, Note_on_c, 0, 60, 108
1, 21755, Note_off_c, 0, 60, 108
1, 21784, Note_on_c, 0, 55, 95
1, 21821, Note_off_c, 0, 55, 95
1, 21831, Note_on_c, 0, 58, 97
1, 21912, Note_off_c, 0, 58, 97
1, 21930, Note_on_c, 0, 55, 99
1, 21990, Note_off_c, 0, 55, 99
1, 22000, Note_on_c, 0, 56, 107
1, 22094, Note_off_c, 0, 56, 107
1, 22102, Note_on_c, 0, 53, 92
1, 22394, Note_off_c, 0, 53, 92
1, 23438, Note_on_c, 0, 59, 101
1, 23528, Note_off_c, 0, 59, 101
1, 23532, Note_on_c, 0, 60, 97
1, 23576, Note_off_c, 0, 60, 97
1, 23578, Note_on_c, 0, 63, 98
1, 23628, Note_off_c, 0, 63, 98
1, 23634, Note_on_c, 0, 67, 99
1, 23698, Note_off_c, 0, 67, 99
1, 23720, Note_on_c, 0, 68, 113
1, 23874, Note_off_c, 0, 68, 113
1, 23931, Note_on_c, 0, 67, 94
1, 23988, Note_off_c, 0, 67, 94
1, 23990, Note_on_c, 0, 68, 103
1, 24034, Note_off_c, 0, 68, 103
1, 24040, Note_on_c, 0, 68, 121
1, 24095, Note_off_c, 0, 68, 121
1, 24104, Note_on_c, 0, 67, 100
1, 24149, Note_off_c, 0, 67, 100
1, 24155, Note_on_c, 0, 68, 88
1, 24198, Note_off_c, 0, 68, 88
1, 24208, Note_on_c, 0, 67, 98
1, 24262, Note_off_c, 0, 67, 98
1, 24309, Note_on_c, 0, 68, 116
1, 24488, Note_off_c, 0, 68, 116
1, 24776, Note_on_c, 0, 59, 94
1, 24874, Note_off_c, 0, 59, 94
1, 24889, Note_on_c, 0, 60, 86
1, 24950, Note_off_c, 0, 60, 86
1, 24959, Note_on_c, 0, 63, 94
1, 24987, Note_off_c, 0, 63, 94
1, 24998, Note_on_c, 0, 67, 101
1, 25041, Note_off_c, 0, 67, 101
1, 25050, Note_on_c, 0, 68, 117
1, 25154, Note_off_c, 0, 68, 117
1, 25194, Note_on_c, 0, 63, 96
1, 25252, Note_off_c, 0, 63, 96
1, 25264, Note_on_c, 0, 67, 105
1, 25326, Note_off_c, 0, 67, 105
1, 25334, Note_on_c, 0, 68, 106
1, 25370, Note_off_c, 0, 68, 106
1, 25378, Note_on_c, 0, 68, 118
1, 25444, Note_off_c, 0, 68, 118
1, 25461, Note_on_c, 0, 67, 103
1, 25504, Note_off_c, 0, 67, 103
1, 25506, Note_on_c, 0, 68, 93
1, 25548, Note_off_c, 0, 68, 93
1, 25559, Note_on_c, 0, 67, 102
1, 25629, Note_off_c, 0, 67, 102
1, 25638, Note_on_c, 0, 68, 113
1, 25784, Note_off_c, 0, 68, 113
1, 26030, Note_on_c, 0, 59, 97
1, 26075, Note_off_c, 0, 59, 97
1, 26080, Note_on_c, 0, 60, 93
1, 26132, Note_off_c, 0, 60, 93
1, 26185, Note_on_c, 0, 67, 99
1, 26227, Note_off_c, 0, 67, 99
1, 26233, Note_on_c, 0, 68, 116
1, 26336, Note_off_c, 0, 68, 116
1, 26422, Note_on_c, 0, 67, 106
1, 26507, Note_off_c, 0, 67, 106
1, 26533, Note_on_c, 0, 68, 118
1, 26626, Note_off_c, 0, 68, 118
1, 26628, Note_on_c, 0, 67, 100
1, 26680, Note_off_c, 0, 67, 100
1, 26685, Note_on_c, 0, 68, 98
1, 26746, Note_off_c, 0, 68, 98
1, 26750, Note_on_c, 0, 67, 101
1, 26773, Note_off_c, 0, 67, 101
1, 26803, Note_on_c, 0, 67, 116
1, 26828, Note_off_c, 0, 67, 116
1, 26830, Note_on_c, 0, 68, 116
1, 26889, Note_off_c, 0, 68, 116
1, 26897, Note_on_c, 0, 67, 109
1, 26950, Note_off_c, 0, 67, 109
1, 26962, Note_on_c, 0, 65, 111
1, 27081, Note_off_c, 0, 65, 111
1, 27097, Note_on_c, 0, 64, 118
1, 27159, Note_off_c, 0, 64, 118
1, 27175, Note_on_c, 0, 63, 101
1, 27292, Note_off_c, 0, 63, 101
1, 27314, Note_on_c, 0, 61, 105
1, 27341, Note_off_c, 0, 61, 105
1, 27361, Note_on_c, 0, 60, 99
1, 27452, Note_off_c, 0, 60, 99
1, 27477, Note_on_c, 0, 58, 95
1, 27543, Note_off_c, 0, 58, 95
1, 27553, Note_on_c, 0, 57, 97
1, 27644, Note_off_c, 0, 57, 97
1, 27650, Note_on_c, 0, 66, 108
1, 27781, Note_off_c, 0, 66, 108
1, 27847, Note_on_c, 0, 64, 102
1, 27897, Note_off_c, 0, 64, 102
1, 27913, Note_on_c, 0, 65, 114
1, 28048, Note_off_c, 0, 65, 114
1, 28055, Note_on_c, 0, 62, 97
1, 28109, Note_off_c, 0, 62, 97
1, 28134, Note_on_c, 0, 58, 88
1, 28232, Note_off_c, 0, 58, 88
1, 28246, Note_on_c, 0, 56, 96
1, 28312, Note_off_c, 0, 56, 96
1, 28326, Note_on_c, 0, 60, 84
1, 28587, Note_off_c, 0, 60, 84
1, 29562, Note_on_c, 0, 58, 103
1, 29612, Note_off_c, 0, 58, 103
1, 29615, Note_on_c, 0, 61, 103
1, 29642, Note_off_c, 0, 61, 103
1, 29647, Note_on_c, 0, 65, 109
1, 29718, Note_off_c, 0, 65, 109
1, 29726, Note_on_c, 0, 68, 106
1, 29766, Note_off_c, 0, 68, 106
1, 29770, Note_on_c, 0, 72, 98
1, 29812, Note_off_c, 0, 72, 98
1, 29828, Note_on_c, 0, 75, 121
1, 29928, Note_off_c, 0, 75, 121
1, 29931, Note_on_c, 0, 74, 120
1, 30002, Note_off_c, 0, 74, 120
1, 30007, Note_on_c, 0, 73, 124
1, 30111, Note_off_c, 0, 73, 124
1, 30129, Note_on_c, 0, 72, 123
1, 30206, Note_off_c, 0, 72, 123
1, 30212, Note_on_c, 0, 70, 114
1, 30268, Note_off_c, 0, 70, 114
1, 30272, Note_on_c, 0, 69, 118
1, 30380, Note_off_c, 0, 69, 118
1, 30382, Note_on_c, 0, 68, 117
1, 30486, Note_off_c, 0, 68, 117
1, 30491, Note_on_c, 0, 67, 112
1, 30578, Note_off_c, 0, 67, 112
1, 30582, Note_on_c, 0, 66, 116
1, 30678, Note_off_c, 0, 66, 116
1, 30686, Note_on_c, 0, 65, 117
1, 30790, Note_off_c, 0, 65, 117
1, 30790, Note_on_c, 0, 64, 116
1, 30861, Note_off_c, 0, 64, 116
1, 30873, Note_on_c, 0, 61, 96
1, 30950, Note_off_c, 0, 61, 96
1, 30960, Note_on_c, 0, 63, 118
1, 31051, Note_off_c, 0, 63, 118
1, 31088, Note_on_c, 0, 61, 88
1, 31123, Note_off_c, 0, 61, 88
1, 31140, Note_on_c, 0, 60, 83
1, 31211, Note_off_c, 0, 60, 83
1, 31216, Note_on_c, 0, 63, 94
1, 31276, Note_off_c, 0, 63, 94
1, 31276, Note_on_c, 0, 67, 100
1, 31336, Note_off_c, 0, 67, 100
1, 31336, Note_on_c, 0, 70, 114
1, 31432, Note_off_c, 0, 70, 114
1, 31434, Note_on_c, 0, 66, 111
1, 31517, Note_off_c, 0, 66, 111
1, 31532, Note_on_c, 0, 63, 93
1, 31632, Note_off_c, 0, 63, 93
1, 31643, Note_on_c, 0, 58, 87
1, 31703, Note_off_c, 0, 58, 87
1, 31709, Note_on_c, 0, 61, 101
1, 31817, Note_off_c, 0, 61, 101
1, 31902, Note_on_c, 0, 60, 99
1, 32008, Note_off_c, 0, 60, 99
1, 32024, Note_on_c, 0, 65, 113
1, 32120, Note_off_c, 0, 65, 113
1, 32126, Note_on_c, 0, 64, 105
1, 32177, Note_off_c, 0, 64, 105
1, 32218, Note_on_c, 0, 60, 74
1, 32266, Note_off_c, 0, 60, 74
1, 32275, Note_on_c, 0, 68, 115
1, 32392, Note_off_c, 0, 68, 115
1, 32397, Note_on_c, 0, 66, 117
1, 32484, Note_off_c, 0, 66, 117
1, 32493, Note_on_c, 0, 65, 114
1, 32550, Note_off_c, 0, 65, 114
1, 32570, Note_on_c, 0, 63, 86
1, 32611, Note_off_c, 0, 63, 86
1, 32765, Note_on_c, 0, 60, 96
1, 32838, Note_off_c, 0, 60, 96
1, 32839, Note_on_c, 0, 63, 111
1, 32960, Note_off_c, 0, 63, 111
1, 32967, Note_on_c, 0, 60, 95
1, 33017, Note_off_c, 0, 60, 95
1, 33037, Note_on_c, 0, 61, 111
1, 33131, Note_off_c, 0, 61, 111
1, 33150, Note_on_c, 0, 64, 93
1, 33488, Note_off_c, 0, 64, 93
1, 34356, Note_on_c, 0, 71, 122
1, 34460, Note_off_c, 0, 71, 122
1, 34475, Note_on_c, 0, 72, 105
1, 34531, Note_off_c, 0, 72, 105
1, 34536, Note_on_c, 0, 75, 118
1, 34625, Note_off_c, 0, 75, 118
1, 34664, Note_on_c, 0, 78, 123
1, 34781, Note_off_c, 0, 78, 123
1, 34784, Note_on_c, 0, 79, 121
1, 34907, Note_off_c, 0, 79, 121
1, 34930, Note_on_c, 0, 77, 122
1, 34993, Note_off_c, 0, 77, 122
1, 35000, Note_on_c, 0, 76, 119
1, 35098, Note_off_c, 0, 76, 119
1, 35100, Note_on_c, 0, 75, 116
1, 35231, Note_off_c, 0, 75, 116
1, 35240, Note_on_c, 0, 73, 118
1, 35315, Note_off_c, 0, 73, 118
1, 35323, Note_on_c, 0, 72, 115
1, 35374, Note_off_c, 0, 72, 115
1, 35381, Note_on_c, 0, 70, 111
1, 35477, Note_off_c, 0, 70, 111
1, 35496, Note_on_c, 0, 69, 118
1, 35587, Note_off_c, 0, 69, 118
1, 35684, Note_on_c, 0, 63, 90
1, 35779, Note_off_c, 0, 63, 90
1, 35792, Note_on_c, 0, 60, 90
1, 35844, Note_off_c, 0, 60, 90
1, 35856, Note_on_c, 0, 66, 120
1, 35954, Note_off_c, 0, 66, 120
1, 35960, Note_on_c, 0, 67, 113
1, 36018, Note_off_c, 0, 67, 113
1, 36018, Note_on_c, 0, 66, 114
1, 36059, Note_off_c, 0, 66, 114
1, 36075, Note_on_c, 0, 65, 113
1, 36166, Note_off_c, 0, 65, 113
1, 36172, Note_on_c, 0, 63, 114
1, 36234, Note_off_c, 0, 63, 114
1, 36248, Note_on_c, 0, 62, 101
1, 36344, Note_off_c, 0, 62, 101
1, 36433, Note_on_c, 0, 68, 114
1, 36529, Note_off_c, 0, 68, 114
1, 36539, Note_on_c, 0, 72, 108
1, 36622, Note_off_c, 0, 72, 108
1, 36642, Note_on_c, 0, 65, 112
1, 36727, Note_off_c, 0, 65, 112
1, 36732, Note_on_c, 0, 67, 107
1, 36798, Note_off_c, 0, 67, 107
1, 36805, Note_on_c, 0, 70, 111
1, 36917, Note_off_c, 0, 70, 111
1, 36926, Note_on_c, 0, 67, 94
1, 36973, Note_off_c, 0, 67, 94
1, 36995, Note_on_c, 0, 68, 114
1, 37153, Note_off_c, 0, 68, 114
1, 37481, Note_on_c, 0, 58, 101
1, 37560, Note_off_c, 0, 58, 101
1, 37560, Note_on_c, 0, 60, 101
1, 37691, Note_off_c, 0, 60, 101
1, 37703, Note_on_c, 0, 61, 96
1, 37897, Note_off_c, 0, 61, 96
1, 38118, Note_on_c, 0, 66, 119
1, 38232, Note_off_c, 0, 66, 119
1, 38238, Note_on_c, 0, 65, 117
1, 38297, Note_off_c, 0, 65, 117
1, 38306, Note_on_c, 0, 64, 112
1, 38400, Note_off_c, 0, 64, 112
1, 38422, Note_on_c, 0, 61, 99
1, 38486, Note_off_c, 0, 61, 99
1, 38492, Note_on_c, 0, 63, 112
1, 38600, Note_off_c, 0, 63, 112
1, 38614, Note_on_c, 0, 60, 101
1, 38733, Note_off_c, 0, 60, 101
1, 39542, Note_on_c, 0, 60, 98
1, 39604, Note_off_c, 0, 60, 98
1, 39623, Note_on_c, 0, 67, 118
1, 39706, Note_off_c, 0, 67, 118
1, 39725, Note_on_c, 0, 65, 115
1, 39812, Note_off_c, 0, 65, 115
1, 39831, Note_on_c, 0, 63, 109
1, 39902, Note_off_c, 0, 63, 109
1, 39916, Note_on_c, 0, 61, 110
1, 40003, Note_off_c, 0, 61, 110
1, 40009, Note_on_c, 0, 60, 101
1, 40088, Note_off_c, 0, 60, 101
1, 40108, Note_on_c, 0, 58, 93
1, 40183, Note_off_c, 0, 58, 93
1, 40195, Note_on_c, 0, 57, 86
1, 40278, Note_off_c, 0, 57, 86
1, 40282, Note_on_c, 0, 60, 97
1, 40365, Note_off_c, 0, 60, 97
1, 40368, Note_on_c, 0, 63, 114
1, 40457, Note_off_c, 0, 63, 114
1, 40470, Note_on_c, 0, 66, 116
1, 40551, Note_off_c, 0, 66, 116
1, 40559, Note_on_c, 0, 65, 108
1, 40669, Note_off_c, 0, 65, 108
1, 40671, Note_on_c, 0, 63, 103
1, 40737, Note_off_c, 0, 63, 103
1, 40739, Note_on_c, 0, 62, 98
1, 40843, Note_off_c, 0, 62, 98
1, 40843, Note_on_c, 0, 67, 104
1, 40974, Note_off_c, 0, 67, 104
1, 41855, Note_on_c, 0, 67, 118
1, 41963, Note_off_c, 0, 67, 118
1, 41973, Note_on_c, 0, 65, 109
1, 42040, Note_off_c, 0, 65, 109
1, 42051, Note_on_c, 0, 64, 95
1, 42098, Note_off_c, 0, 64, 95
1, 42102, Note_on_c, 0, 67, 98
1, 42160, Note_off_c, 0, 67, 98
1, 42162, Note_on_c, 0, 70, 94
1, 42228, Note_off_c, 0, 70, 94
1, 42229, Note_on_c, 0, 72, 124
1, 42323, Note_off_c, 0, 72, 124
1, 42326, Note_on_c, 0, 73, 112
1, 42438, Note_off_c, 0, 73, 112
1, 42455, Note_on_c, 0, 67, 104
1, 42524, Note_off_c, 0, 67, 104
1, 42540, Note_on_c, 0, 71, 9
1, 42689, Note_off_c, 0, 71, 9
1, 42695, Note_on_c, 0, 72, 125
1, 42811, Note_off_c, 0, 72, 125
1, 42818, Note_on_c, 0, 70, 115
1, 42914, Note_off_c, 0, 70, 115
1, 42945, Note_on_c, 0, 67, 100
1, 43001, Note_off_c, 0, 67, 100
1, 43008, Note_on_c, 0, 68, 119
1, 43116, Note_off_c, 0, 68, 119
1, 43127, Note_on_c, 0, 65, 114
1, 43281, Note_off_c, 0, 65, 114
1, 44633, Note_on_c, 0, 59, 102
1, 44706, Note_off_c, 0, 59, 102
1, 44726, Note_on_c, 0, 60, 101
1, 44759, Note_off_c, 0, 60, 101
1, 44768, Note_on_c, 0, 63, 99
1, 44807, Note_off_c, 0, 63, 99
1, 44809, Note_on_c, 0, 67, 100
1, 44867, Note_off_c, 0, 67, 100
1, 44870, Note_on_c, 0, 70, 125
1, 44984, Note_off_c, 0, 70, 125
1, 44995, Note_on_c, 0, 68, 123
1, 45049, Note_off_c, 0, 68, 123
1, 45055, Note_on_c, 0, 67, 118
1, 45169, Note_off_c, 0, 67, 118
1, 45174, Note_on_c, 0, 65, 118
1, 45232, Note_off_c, 0, 65, 118
1, 45246, Note_on_c, 0, 64, 108
1, 45352, Note_off_c, 0, 64, 108
1, 45364, Note_on_c, 0, 55, 93
1, 45437, Note_off_c, 0, 55, 93
1, 45451, Note_on_c, 0, 58, 88
1, 45524, Note_off_c, 0, 58, 88
1, 45542, Note_on_c, 0, 61, 117
1, 45646, Note_off_c, 0, 61, 117
1, 45654, Note_on_c, 0, 58, 95
1, 45718, Note_off_c, 0, 58, 95
1, 45731, Note_on_c, 0, 55, 92
1, 45792, Note_off_c, 0, 55, 92
1, 45796, Note_on_c, 0, 60, 113
1, 45923, Note_off_c, 0, 60, 113
1, 45931, Note_on_c, 0, 55, 101
1, 45985, Note_off_c, 0, 55, 101
1, 46003, Note_on_c, 0, 58, 101
1, 46109, Note_off_c, 0, 58, 101
1, 46123, Note_on_c, 0, 55, 98
1, 46179, Note_off_c, 0, 55, 98
1, 46193, Note_on_c, 0, 56, 109
1, 46291, Note_off_c, 0, 56, 109
1, 46305, Note_on_c, 0, 53, 104
1, 46454, Note_off_c, 0, 53, 104
1, 46861, Note_on_c, 0, 58, 108
1, 46914, Note_off_c, 0, 58, 108
1, 46926, Note_on_c, 0, 59, 98
1, 46985, Note_off_c, 0, 59, 98
1, 46994, Note_on_c, 0, 61, 97
1, 47031, Note_off_c, 0, 61, 97
1, 47035, Note_on_c, 0, 67, 106
1, 47112, Note_off_c, 0, 67, 106
1, 47132, Note_on_c, 0, 70, 116
1, 47238, Note_off_c, 0, 70, 116
1, 47248, Note_on_c, 0, 68, 116
1, 47316, Note_off_c, 0, 68, 116
1, 47324, Note_on_c, 0, 67, 117
1, 47413, Note_off_c, 0, 67, 117
1, 47418, Note_on_c, 0, 65, 119
1, 47514, Note_off_c, 0, 65, 119
1, 47522, Note_on_c, 0, 63, 109
1, 47609, Note_off_c, 0, 63, 109
1, 47613, Note_on_c, 0, 60, 106
1, 47641, Note_off_c, 0, 60, 106
1, 47646, Note_on_c, 0, 61, 104
1, 47726, Note_off_c, 0, 61, 104
1, 47740, Note_on_c, 0, 60, 100
1, 47800, Note_off_c, 0, 60, 100
1, 47814, Note_on_c, 0, 58, 96
1, 47887, Note_off_c, 0, 58, 96
1, 47896, Note_on_c, 0, 57, 102
1, 47972, Note_off_c, 0, 57, 102
1, 47984, Note_on_c, 0, 66, 119
1, 48085, Note_off_c, 0, 66, 119
1, 48146, Note_on_c, 0, 63, 91
1, 48187, Note_off_c, 0, 63, 91
1, 48199, Note_on_c, 0, 64, 106
1, 48236, Note_off_c, 0, 64, 106
1, 48252, Note_on_c, 0, 65, 123
1, 48369, Note_off_c, 0, 65, 123
1, 48375, Note_on_c, 0, 61, 103
1, 48443, Note_off_c, 0, 61, 103
1, 48451, Note_on_c, 0, 58, 91
1, 48561, Note_off_c, 0, 58, 91
1, 48569, Note_on_c, 0, 56, 101
1, 48608, Note_off_c, 0, 56, 101
1, 48639, Note_on_c, 0, 55, 104
1, 48737, Note_off_c, 0, 55, 104
1, 48745, Note_on_c, 0, 64, 124
1, 48832, Note_off_c, 0, 64, 124
1, 48832, Note_on_c, 0, 61, 100
1, 48928, Note_off_c, 0, 61, 100
1, 48938, Note_on_c, 0, 62, 103
1, 49019, Note_off_c, 0, 62, 103
1, 49025, Note_on_c, 0, 63, 115
1, 49175, Note_off_c, 0, 63, 115
1, 49239, Note_on_c, 0, 60, 94
1, 49310, Note_off_c, 0, 60, 94
1, 49385, Note_on_c, 0, 67, 112
1, 49410, Note_off_c, 0, 67, 112
1, 49412, Note_on_c, 0, 70, 120
1, 49522, Note_off_c, 0, 70, 120
1, 49528, Note_on_c, 0, 67, 102
1, 49565, Note_off_c, 0, 67, 102
1, 49567, Note_on_c, 0, 68, 104
1, 49884, Note_off_c, 0, 68, 104
1, 50090, Note_on_c, 0, 71, 123
1, 50154, Note_off_c, 0, 71, 123
1, 50172, Note_on_c, 0, 72, 121
1, 50328, Note_off_c, 0, 72, 121
1, 50361, Note_on_c, 0, 75, 118
1, 50469, Note_off_c, 0, 75, 118
1, 50471, Note_on_c, 0, 70, 105
1, 50707, Note_off_c, 0, 70, 105
1, 50707, End_track
0, 0, End_of_file
