0, 0, Header, 1, 1, 192
1, 0, Start_track
1, 0, Title_t, "Melody"
1, 0, Tempo, 223880
1, 0, Key_signature, -4, "major"
1, 0, Time_signature, 4, 2, 24, 8
1, 3847, Note_on_c, 0, 75, 104
1, 3973, Note_off_c, 0, 75, 104
1, 4046, Note_on_c, 0, 80, 98
1, 4158, Note_off_c, 0, 80, 98
1, 4214, Note_on_c, 0, 76, 108
1, 4301, Note_off_c, 0, 76, 108
1, 4301, Note_on_c, 0, 77, 113
1, 4406, Note_off_c, 0, 77, 113
1, 4406, Note_on_c, 0, 80, 114
1, 4483, Note_off_c, 0, 80, 114
1, 4483, Note_on_c, 0, 77, 103
1, 4584, Note_off_c, 0, 77, 103
1, 4675, Note_on_c, 0, 80, 107
1, 4797, Note_off_c, 0, 80, 107
1, 4895, Note_on_c, 0, 77, 109
1, 4982, Note_off_c, 0, 77, 109
1, 5073, Note_on_c, 0, 80, 121
1, 5164, Note_off_c, 0, 80, 121
1, 5272, Note_on_c, 0, 77, 106
1, 5380, Note_off_c, 0, 77, 106
1, 5467, Note_on_c, 0, 80, 112
1, 5575, Note_off_c, 0, 80, 112
1, 5662, Note_on_c, 0, 77, 113
1, 5753, Note_off_c, 0, 77, 113
1, 5861, Note_on_c, 0, 80, 120
1, 5962, Note_off_c, 0, 80, 120
1, 6067, Note_on_c, 0, 77, 124
1, 6140, Note_off_c, 0, 77, 124
1, 6234, Note_on_c, 0, 80, 123
1, 6332, Note_off_c, 0, 80, 123
1, 6419, Note_on_c, 0, 77, 122
1, 6506, Note_off_c, 0, 77, 122
1, 6548, Note_on_c, 0, 80, 126
1, 6646, Note_off_c, 0, 80, 126
1, 6698, Note_on_c, 0, 77, 119
1, 6785, Note_off_c, 0, 77, 119
1, 6806, Note_on_c, 0, 73, 114
1, 6893, Note_off_c, 0, 73, 114
1, 6914, Note_on_c, 0, 70, 120
1, 7117, Note_off_c, 0, 70, 120
1, 7159, Note_on_c, 0, 71, 116
1, 7414, Note_off_c, 0, 71, 116
1, 7452, Note_on_c, 0, 70, 116
1, 7616, Note_off_c, 0, 70, 116
1, 7648, Note_on_c, 0, 65, 100
1, 8046, Note_off_c, 0, 65, 100
1, 8059, Note_on_c, 0, 68, 114
1, 8304, Note_off_c, 0, 68, 114
1, 8328, Note_on_c, 0, 65, 112
1, 8440, Note_off_c, 0, 65, 112
1, 8440, Note_on_c, 0, 64, 114
1, 8562, Note_on_c, 0, 63, 111
1, 8562, Note_off_c, 0, 64, 114
1, 8660, Note_off_c, 0, 63, 111
1, 8730, Note_on_c, 0, 62, 117
1, 8817, Note_off_c, 0, 62, 117
1, 8817, Note_on_c, 0, 63, 108
1, 8901, Note_off_c, 0, 63, 108
1, 8925, Note_on_c, 0, 65, 113
1, 9135, Note_off_c, 0, 65, 113
1, 9191, Note_on_c, 0, 62, 101
1, 9460, Note_off_c, 0, 62, 101
1, 9460, Note_on_c, 0, 65, 112
1, 9572, Note_off_c, 0, 65, 112
1, 9596, Note_on_c, 0, 64, 113
1, 9687, Note_off_c, 0, 64, 113
1, 9687, Note_on_c, 0, 63, 110
1, 9774, Note_off_c, 0, 63, 110
1, 9809, Note_on_c, 0, 62, 106
1, 9917, Note_off_c, 0, 62, 106
1, 10001, Note_on_c, 0, 65, 91
1, 10344, Note_off_c, 0, 65, 91
1, 10741, Note_on_c, 0, 63, 119
1, 10823, Note_off_c, 0, 63, 119
1, 10825, Note_on_c, 0, 60, 111
1, 10887, Note_off_c, 0, 60, 111
1, 10891, Note_on_c, 0, 63, 105
1, 10983, Note_off_c, 0, 63, 105
1, 11007, Note_on_c, 0, 68, 123
1, 11096, Note_off_c, 0, 68, 123
1, 11098, Note_on_c, 0, 72, 117
1, 11182, Note_off_c, 0, 72, 117
1, 11185, Note_on_c, 0, 71, 121
1, 11318, Note_off_c, 0, 71, 121
1, 11472, Note_on_c, 0, 71, 121
1, 11580, Note_off_c, 0, 71, 121
1, 11580, Note_on_c, 0, 72, 114
1, 11989, Note_off_c, 0, 72, 114
1, 11989, Note_on_c, 0, 70, 109
1, 12118, Note_off_c, 0, 70, 109
1, 12170, Note_on_c, 0, 68, 115
1, 12296, Note_off_c, 0, 68, 115
1, 12296, Note_on_c, 0, 67, 115
1, 12383, Note_off_c, 0, 67, 115
1, 12390, Note_on_c, 0, 65, 109
1, 12484, Note_off_c, 0, 65, 109
1, 12554, Note_on_c, 0, 64, 118
1, 12648, Note_off_c, 0, 64, 118
1, 12648, Note_on_c, 0, 67, 110
1, 12749, Note_off_c, 0, 67, 110
1, 12752, Note_on_c, 0, 64, 118
1, 12874, Note_off_c, 0, 64, 118
1, 12891, Note_on_c, 0, 65, 119
1, 12975, Note_off_c, 0, 65, 119
1, 13048, Note_on_c, 0, 65, 96
1, 13328, Note_off_c, 0, 65, 96
1, 13692, Note_on_c, 0, 82, 121
1, 13783, Note_off_c, 0, 82, 121
1, 13783, Note_on_c, 0, 81, 126
1, 13881, Note_off_c, 0, 81, 126
1, 13891, Note_on_c, 0, 80, 125
1, 13992, Note_on_c, 0, 79, 118
1, 13992, Note_off_c, 0, 80, 125
1, 14062, Note_off_c, 0, 79, 118
1, 14062, Note_on_c, 0, 77, 116
1, 14167, Note_off_c, 0, 77, 116
1, 14167, Note_on_c, 0, 75, 117
1, 14265, Note_off_c, 0, 75, 117
1, 14268, Note_on_c, 0, 74, 116
1, 14359, Note_off_c, 0, 74, 116
1, 14359, Note_on_c, 0, 72, 113
1, 14436, Note_off_c, 0, 72, 113
1, 14436, Note_on_c, 0, 70, 118
1, 14548, Note_off_c, 0, 70, 118
1, 14548, Note_on_c, 0, 69, 106
1, 14639, Note_off_c, 0, 69, 106
1, 14642, Note_on_c, 0, 68, 108
1, 14733, Note_off_c, 0, 68, 108
1, 14743, Note_on_c, 0, 70, 122
1, 14851, Note_off_c, 0, 70, 122
1, 14853, Note_on_c, 0, 67, 99
1, 14930, Note_off_c, 0, 67, 99
1, 14947, Note_on_c, 0, 68, 103
1, 15016, Note_off_c, 0, 68, 103
1, 15024, Note_on_c, 0, 70, 120
1, 15157, Note_off_c, 0, 70, 120
1, 15179, Note_on_c, 0, 68, 102
1, 15263, Note_off_c, 0, 68, 102
1, 15370, Note_on_c, 0, 67, 97
1, 15628, Note_off_c, 0, 67, 97
1, 15707, Note_on_c, 0, 65, 116
1, 15779, Note_off_c, 0, 65, 116
1, 15798, Note_on_c, 0, 61, 104
1, 15949, Note_off_c, 0, 61, 104
1, 15956, Note_on_c, 0, 58, 103
1, 16048, Note_off_c, 0, 58, 103
1, 16122, Note_on_c, 0, 58, 97
1, 16323, Note_off_c, 0, 58, 97
1, 16718, Note_on_c, 0, 80, 125
1, 16840, Note_off_c, 0, 80, 125
1, 16875, Note_on_c, 0, 80, 124
1, 16976, Note_off_c, 0, 80, 124
1, 17004, Note_on_c, 0, 80, 126
1, 17042, Note_off_c, 0, 80, 126
1, 17073, Note_on_c, 0, 80, 89
1, 17174, Note_off_c, 0, 80, 89
1, 17279, Note_on_c, 0, 80, 71
1, 17328, Note_off_c, 0, 80, 71
1, 17352, Note_on_c, 0, 81, 115
1, 17380, Note_off_c, 0, 81, 115
1, 17408, Note_on_c, 0, 82, 105
1, 17509, Note_off_c, 0, 82, 105
1, 17509, Note_on_c, 0, 80, 114
1, 17582, Note_off_c, 0, 80, 114
1, 17627, Note_on_c, 0, 80, 111
1, 17725, Note_off_c, 0, 80, 111
1, 17879, Note_on_c, 0, 80, 118
1, 18026, Note_off_c, 0, 80, 118
1, 18078, Note_on_c, 0, 80, 120
1, 18169, Note_off_c, 0, 80, 120
1, 18253, Note_on_c, 0, 80, 119
1, 18424, Note_off_c, 0, 80, 119
1, 18476, Note_on_c, 0, 80, 108
1, 18581, Note_off_c, 0, 80, 108
1, 18626, Note_on_c, 0, 80, 118
1, 18825, Note_off_c, 0, 80, 118
1, 18828, Note_on_c, 0, 77, 116
1, 18954, Note_off_c, 0, 77, 116
1, 18964, Note_on_c, 0, 73, 116
1, 19034, Note_off_c, 0, 73, 116
1, 19127, Note_on_c, 0, 71, 89
1, 19424, Note_off_c, 0, 71, 89
1, 19782, Note_on_c, 0, 80, 116
1, 19852, Note_off_c, 0, 80, 116
1, 19897, Note_on_c, 0, 80, 118
1, 19977, Note_off_c, 0, 80, 118
1, 19994, Note_on_c, 0, 77, 122
1, 20071, Note_off_c, 0, 77, 122
1, 20095, Note_on_c, 0, 77, 121
1, 20168, Note_off_c, 0, 77, 121
1, 20171, Note_on_c, 0, 75, 124
1, 20255, Note_off_c, 0, 75, 124
1, 20290, Note_on_c, 0, 75, 122
1, 20374, Note_off_c, 0, 75, 122
1, 20374, Note_on_c, 0, 74, 120
1, 20444, Note_off_c, 0, 74, 120
1, 20496, Note_on_c, 0, 74, 120
1, 20552, Note_off_c, 0, 74, 120
1, 20552, Note_on_c, 0, 72, 121
1, 20622, Note_off_c, 0, 72, 121
1, 20650, Note_on_c, 0, 72, 117
1, 20751, Note_off_c, 0, 72, 117
1, 20765, Note_on_c, 0, 70, 116
1, 20824, Note_off_c, 0, 70, 116
1, 20855, Note_on_c, 0, 70, 118
1, 20925, Note_off_c, 0, 70, 118
1, 20932, Note_on_c, 0, 69, 117
1, 21026, Note_off_c, 0, 69, 117
1, 21054, Note_on_c, 0, 69, 119
1, 21106, Note_off_c, 0, 69, 119
1, 21116, Note_on_c, 0, 68, 117
1, 21207, Note_off_c, 0, 68, 117
1, 21252, Note_on_c, 0, 68, 118
1, 21318, Note_off_c, 0, 68, 118
1, 21321, Note_on_c, 0, 65, 117
1, 21391, Note_off_c, 0, 65, 117
1, 21420, Note_on_c, 0, 64, 116
1, 21497, Note_off_c, 0, 64, 116
1, 21509, Note_on_c, 0, 63, 111
1, 21579, Note_off_c, 0, 63, 111
1, 21598, Note_on_c, 0, 62, 113
1, 21712, Note_off_c, 0, 62, 113
1, 21805, Note_on_c, 0, 65, 117
1, 22036, Note_off_c, 0, 65, 117
1, 22084, Note_on_c, 0, 63, 115
1, 22175, Note_off_c, 0, 63, 115
1, 22175, Note_on_c, 0, 62, 104
1, 22427, Note_off_c, 0, 62, 104
1, 22887, Note_on_c, 0, 63, 108
1, 22981, Note_off_c, 0, 63, 108
1, 22995, Note_on_c, 0, 68, 122
1, 23107, Note_off_c, 0, 68, 122
1, 23119, Note_on_c, 0, 72, 114
1, 23218, Note_off_c, 0, 72, 114
1, 23300, Note_on_c, 0, 75, 127
1, 23399, Note_off_c, 0, 75, 127
1, 23478, Note_on_c, 0, 74, 121
1, 23617, Note_off_c, 0, 74, 121
1, 23674, Note_on_c, 0, 73, 122
1, 23790, Note_off_c, 0, 73, 122
1, 23887, Note_on_c, 0, 72, 116
1, 24359, Note_off_c, 0, 72, 116
1, 24391, Note_on_c, 0, 70, 120
1, 24530, Note_off_c, 0, 70, 120
1, 24532, Note_on_c, 0, 69, 118
1, 24641, Note_off_c, 0, 69, 118
1, 24645, Note_on_c, 0, 70, 120
1, 24819, Note_off_c, 0, 70, 120
1, 24819, Note_on_c, 0, 73, 97
1, 24856, Note_off_c, 0, 73, 97
1, 24870, Note_on_c, 0, 77, 113
1, 24989, Note_off_c, 0, 77, 113
1, 25058, Note_on_c, 0, 65, 113
1, 25662, Note_off_c, 0, 65, 113
1, 25940, Note_on_c, 0, 80, 121
1, 26141, Note_off_c, 0, 80, 121
1, 26193, Note_on_c, 0, 79, 110
1, 26329, Note_off_c, 0, 79, 110
1, 26343, Note_on_c, 0, 77, 109
1, 26432, Note_off_c, 0, 77, 109
1, 26456, Note_on_c, 0, 76, 123
1, 26545, Note_off_c, 0, 76, 123
1, 26549, Note_on_c, 0, 73, 115
1, 26606, Note_off_c, 0, 73, 115
1, 26613, Note_on_c, 0, 70, 111
1, 26697, Note_off_c, 0, 70, 111
1, 26711, Note_on_c, 0, 69, 119
1, 26800, Note_off_c, 0, 69, 119
1, 26809, Note_on_c, 0, 67, 120
1, 26881, Note_off_c, 0, 67, 120
1, 26893, Note_on_c, 0, 63, 110
1, 26997, Note_off_c, 0, 63, 110
1, 27099, Note_on_c, 0, 58, 107
1, 27208, Note_off_c, 0, 58, 107
1, 27267, Note_on_c, 0, 56, 107
1, 27515, Note_off_c, 0, 56, 107
1, 27551, Note_on_c, 0, 60, 107
1, 27663, Note_off_c, 0, 60, 107
1, 27666, Note_on_c, 0, 63, 120
1, 27767, Note_off_c, 0, 63, 120
1, 27770, Note_on_c, 0, 65, 114
1, 27875, Note_off_c, 0, 65, 114
1, 27885, Note_on_c, 0, 68, 115
1, 27955, Note_off_c, 0, 68, 115
1, 27962, Note_on_c, 0, 72, 116
1, 28077, Note_off_c, 0, 72, 116
1, 28133, Note_on_c, 0, 63, 109
1, 28258, Note_off_c, 0, 63, 109
1, 28258, Note_on_c, 0, 68, 114
1, 28601, Note_off_c, 0, 68, 114
1, 28601, End_track
0, 0, End_of_file
