0, 0, Header, 1, 1, 192
1, 0, Start_track
1, 0, Title_t, "Melody"
1, 0, Tempo, 508474
1, 0, Key_signature, 0, "major"
1, 0, Time_signature, 4, 2, 24, 8
1, 2507, Note_on_c, 0, 63, 110
1, 2582, Note_off_c, 0, 63, 110
1, 2590, Note_on_c, 0, 64, 111
1, 2835, Note_off_c, 0, 64, 111
1, 2839, Note_on_c, 0, 60, 96
1, 2892, Note_off_c, 0, 60, 96
1, 2898, Note_on_c, 0, 65, 113
1, 2977, Note_off_c, 0, 65, 113
1, 2978, Note_on_c, 0, 67, 91
1, 3224, Note_off_c, 0, 67, 91
1, 3491, Note_on_c, 0, 60, 104
1, 3573, Note_off_c, 0, 60, 104
1, 3573, Note_on_c, 0, 62, 106
1, 3598, Note_off_c, 0, 62, 106
1, 3604, Note_on_c, 0, 64, 108
1, 3665, Note_off_c, 0, 64, 108
1, 3665, Note_on_c, 0, 67, 97
1, 3713, Note_off_c, 0, 67, 97
1, 3715, Note_on_c, 0, 69, 111
1, 3759, Note_off_c, 0, 69, 111
1, 3786, Note_on_c, 0, 72, 118
1, 3934, Note_off_c, 0, 72, 118
1, 3935, Note_on_c, 0, 69, 113
1, 4048, Note_off_c, 0, 69, 113
1, 4076, Note_on_c, 0, 60, 94
1, 4113, Note_off_c, 0, 60, 94
1, 4169, Note_on_c, 0, 66, 112
1, 4241, Note_off_c, 0, 66, 112
1, 4242, Note_on_c, 0, 65, 112
1, 4320, Note_off_c, 0, 65, 112
1, 4321, Note_on_c, 0, 63, 101
1, 4400, Note_off_c, 0, 63, 101
1, 4400, Note_on_c, 0, 60, 94
1, 4461, Note_off_c, 0, 60, 94
1, 4462, Note_on_c, 0, 62, 110
1, 4497, Note_off_c, 0, 62, 110
1, 4497, Note_on_c, 0, 64, 104
1, 4602, Note_off_c, 0, 64, 104
1, 4604, Note_on_c, 0, 60, 103
1, 4687, Note_off_c, 0, 60, 103
1, 4687, Note_on_c, 0, 55, 78
1, 4976, Note_off_c, 0, 55, 78
1, 5382, Note_on_c, 0, 67, 88
1, 5428, Note_off_c, 0, 67, 88
1, 5432, Note_on_c, 0, 69, 91
1, 5458, Note_off_c, 0, 69, 91
1, 5460, Note_on_c, 0, 70, 84
1, 5506, Note_off_c, 0, 70, 84
1, 5539, Note_on_c, 0, 70, 72
1, 5558, Note_off_c, 0, 70, 72
1, 5559, Note_on_c, 0, 73, 105
1, 5614, Note_off_c, 0, 73, 105
1, 5615, Note_on_c, 0, 70, 88
1, 5652, Note_off_c, 0, 70, 88
1, 5660, Note_on_c, 0, 72, 109
1, 5717, Note_off_c, 0, 72, 109
1, 5746, Note_on_c, 0, 70, 95
1, 5790, Note_off_c, 0, 70, 95
1, 5794, Note_on_c, 0, 72, 92
1, 5812, Note_off_c, 0, 72, 92
1, 5813, Note_on_c, 0, 70, 103
1, 5836, Note_off_c, 0, 70, 103
1, 5836, Note_on_c, 0, 69, 110
1, 5885, Note_off_c, 0, 69, 110
1, 5888, Note_on_c, 0, 65, 110
1, 5942, Note_off_c, 0, 65, 110
1, 5942, Note_on_c, 0, 61, 94
1, 6003, Note_off_c, 0, 61, 94
1, 6009, Note_on_c, 0, 60, 91
1, 6049, Note_off_c, 0, 60, 91
1, 6055, Note_on_c, 0, 58, 85
1, 6117, Note_off_c, 0, 58, 85
1, 6143, Note_on_c, 0, 60, 85
1, 6154, Note_off_c, 0, 60, 85
1, 6156, Note_on_c, 0, 64, 83
1, 6172, Note_off_c, 0, 64, 83
1, 6172, Note_on_c, 0, 67, 112
1, 6235, Note_off_c, 0, 67, 112
1, 6237, Note_on_c, 0, 65, 113
1, 6321, Note_off_c, 0, 65, 113
1, 6340, Note_on_c, 0, 62, 101
1, 6424, Note_off_c, 0, 62, 101
1, 6425, Note_on_c, 0, 60, 92
1, 6472, Note_off_c, 0, 60, 92
1, 6485, Note_on_c, 0, 63, 80
1, 6761, Note_off_c, 0, 63, 80
1, 7180, Note_on_c, 0, 74, 120
1, 7271, Note_off_c, 0, 74, 120
1, 7276, Note_on_c, 0, 75, 121
1, 7340, Note_off_c, 0, 75, 121
1, 7340, Note_on_c, 0, 72, 101
1, 7420, Note_off_c, 0, 72, 101
1, 7421, Note_on_c, 0, 68, 98
1, 7440, Note_off_c, 0, 68, 98
1, 7442, Note_on_c, 0, 69, 108
1, 7490, Note_off_c, 0, 69, 108
1, 7495, Note_on_c, 0, 65, 112
1, 7523, Note_off_c, 0, 65, 112
1, 7524, Note_on_c, 0, 66, 104
1, 7597, Note_off_c, 0, 66, 104
1, 7837, Note_on_c, 0, 63, 89
1, 7893, Note_off_c, 0, 63, 89
1, 7896, Note_on_c, 0, 64, 91
1, 7915, Note_off_c, 0, 64, 91
1, 7930, Note_on_c, 0, 67, 110
1, 7973, Note_off_c, 0, 67, 110
1, 7983, Note_on_c, 0, 70, 73
1, 8033, Note_off_c, 0, 70, 73
1, 8042, Note_on_c, 0, 71, 71
1, 8089, Note_off_c, 0, 71, 71
1, 8093, Note_on_c, 0, 72, 67
1, 8131, Note_off_c, 0, 72, 67
1, 8142, Note_on_c, 0, 74, 113
1, 8193, Note_off_c, 0, 74, 113
1, 8195, Note_on_c, 0, 72, 109
1, 8232, Note_off_c, 0, 72, 109
1, 8233, Note_on_c, 0, 71, 108
1, 8275, Note_off_c, 0, 71, 108
1, 8276, Note_on_c, 0, 69, 79
1, 8380, Note_off_c, 0, 69, 79
1, 8389, Note_on_c, 0, 71, 81
1, 8415, Note_off_c, 0, 71, 81
1, 8416, Note_on_c, 0, 72, 109
1, 8477, Note_off_c, 0, 72, 109
1, 8477, Note_on_c, 0, 69, 96
1, 8551, Note_off_c, 0, 69, 96
1, 8787, Note_on_c, 0, 71, 97
1, 8827, Note_off_c, 0, 71, 97
1, 8832, Note_on_c, 0, 69, 109
1, 8858, Note_off_c, 0, 69, 109
1, 8859, Note_on_c, 0, 67, 114
1, 8914, Note_off_c, 0, 67, 114
1, 8915, Note_on_c, 0, 65, 113
1, 8969, Note_off_c, 0, 65, 113
1, 8970, Note_on_c, 0, 64, 113
1, 8997, Note_off_c, 0, 64, 113
1, 8999, Note_on_c, 0, 62, 102
1, 9057, Note_off_c, 0, 62, 102
1, 9058, Note_on_c, 0, 61, 92
1, 9086, Note_off_c, 0, 61, 92
1, 9088, Note_on_c, 0, 62, 94
1, 9132, Note_off_c, 0, 62, 94
1, 9138, Note_on_c, 0, 64, 108
1, 9206, Note_off_c, 0, 64, 108
1, 9206, Note_on_c, 0, 61, 98
1, 9230, Note_off_c, 0, 61, 98
1, 9232, Note_on_c, 0, 62, 100
1, 9288, Note_off_c, 0, 62, 100
1, 9290, Note_on_c, 0, 64, 109
1, 9326, Note_off_c, 0, 64, 109
1, 9328, Note_on_c, 0, 65, 114
1, 9383, Note_off_c, 0, 65, 114
1, 9384, Note_on_c, 0, 67, 104
1, 9428, Note_off_c, 0, 67, 104
1, 9429, Note_on_c, 0, 69, 115
1, 9470, Note_off_c, 0, 69, 115
1, 9471, Note_on_c, 0, 65, 111
1, 9523, Note_off_c, 0, 65, 111
1, 9525, Note_on_c, 0, 62, 84
1, 9595, Note_off_c, 0, 62, 84
1, 9596, Note_on_c, 0, 61, 105
1, 9659, Note_off_c, 0, 61, 105
1, 9666, Note_on_c, 0, 69, 110
1, 9694, Note_off_c, 0, 69, 110
1, 9696, Note_on_c, 0, 65, 103
1, 9728, Note_off_c, 0, 65, 103
1, 9729, Note_on_c, 0, 61, 95
1, 9759, Note_off_c, 0, 61, 95
1, 9759, Note_on_c, 0, 57, 86
1, 9783, Note_off_c, 0, 57, 86
1, 9788, Note_on_c, 0, 60, 89
1, 9874, Note_off_c, 0, 60, 89
1, 9892, Note_on_c, 0, 59, 93
1, 9929, Note_off_c, 0, 59, 93
1, 9930, Note_on_c, 0, 69, 97
1, 10076, Note_off_c, 0, 69, 97
1, 10176, Note_on_c, 0, 62, 102
1, 10218, Note_off_c, 0, 62, 102
1, 10220, Note_on_c, 0, 64, 107
1, 10270, Note_off_c, 0, 64, 107
1, 10272, Note_on_c, 0, 67, 116
1, 10325, Note_off_c, 0, 67, 116
1, 10328, Note_on_c, 0, 66, 116
1, 10372, Note_off_c, 0, 66, 116
1, 10375, Note_on_c, 0, 65, 114
1, 10425, Note_off_c, 0, 65, 114
1, 10426, Note_on_c, 0, 64, 112
1, 10464, Note_off_c, 0, 64, 112
1, 10466, Note_on_c, 0, 62, 97
1, 10514, Note_off_c, 0, 62, 97
1, 10519, Note_on_c, 0, 59, 80
1, 10539, Note_off_c, 0, 59, 80
1, 10542, Note_on_c, 0, 60, 101
1, 10605, Note_off_c, 0, 60, 101
1, 10607, Note_on_c, 0, 68, 108
1, 10658, Note_off_c, 0, 68, 108
1, 10661, Note_on_c, 0, 65, 94
1, 10694, Note_off_c, 0, 65, 94
1, 10697, Note_on_c, 0, 66, 97
1, 10735, Note_off_c, 0, 66, 97
1, 10737, Note_on_c, 0, 67, 114
1, 10814, Note_off_c, 0, 67, 114
1, 10817, Note_on_c, 0, 64, 87
1, 11017, Note_off_c, 0, 64, 87
1, 11515, Note_on_c, 0, 70, 115
1, 11554, Note_off_c, 0, 70, 115
1, 11555, Note_on_c, 0, 72, 123
1, 11984, Note_off_c, 0, 72, 123
1, 11986, Note_on_c, 0, 74, 106
1, 12007, Note_off_c, 0, 74, 106
1, 12009, Note_on_c, 0, 72, 108
1, 12030, Note_off_c, 0, 72, 108
1, 12033, Note_on_c, 0, 71, 114
1, 12087, Note_off_c, 0, 71, 114
1, 12127, Note_on_c, 0, 72, 120
1, 12245, Note_off_c, 0, 72, 120
1, 12249, Note_on_c, 0, 67, 99
1, 12459, Note_off_c, 0, 67, 99
1, 12678, Note_on_c, 0, 71, 86
1, 12698, Note_off_c, 0, 71, 86
1, 12705, Note_on_c, 0, 72, 127
1, 12754, Note_off_c, 0, 72, 127
1, 12760, Note_on_c, 0, 72, 111
1, 12824, Note_off_c, 0, 72, 111
1, 12825, Note_on_c, 0, 71, 115
1, 12926, Note_off_c, 0, 71, 115
1, 12949, Note_on_c, 0, 72, 117
1, 13059, Note_off_c, 0, 72, 117
1, 13061, Note_on_c, 0, 67, 114
1, 13160, Note_off_c, 0, 67, 114
1, 13166, Note_on_c, 0, 77, 110
1, 13192, Note_off_c, 0, 77, 110
1, 13194, Note_on_c, 0, 78, 124
1, 13263, Note_off_c, 0, 78, 124
1, 13266, Note_on_c, 0, 77, 123
1, 13346, Note_off_c, 0, 77, 123
1, 13348, Note_on_c, 0, 75, 120
1, 13435, Note_off_c, 0, 75, 120
1, 13437, Note_on_c, 0, 72, 104
1, 13470, Note_off_c, 0, 72, 104
1, 13472, Note_on_c, 0, 74, 120
1, 13513, Note_off_c, 0, 74, 120
1, 13515, Note_on_c, 0, 76, 120
1, 13586, Note_off_c, 0, 76, 120
1, 13590, Note_on_c, 0, 72, 116
1, 13659, Note_off_c, 0, 72, 116
1, 13668, Note_on_c, 0, 67, 114
1, 13724, Note_on_c, 0, 65, 120
1, 13724, Note_off_c, 0, 67, 114
1, 13773, Note_off_c, 0, 65, 120
1, 13777, Note_on_c, 0, 67, 115
1, 13839, Note_off_c, 0, 67, 115
1, 13847, Note_on_c, 0, 63, 112
1, 13906, Note_off_c, 0, 63, 112
1, 13917, Note_on_c, 0, 64, 108
1, 13966, Note_off_c, 0, 64, 108
1, 13967, Note_on_c, 0, 60, 92
1, 14237, Note_off_c, 0, 60, 92
1, 14495, Note_on_c, 0, 72, 116
1, 14516, Note_off_c, 0, 72, 116
1, 14518, Note_on_c, 0, 74, 117
1, 15053, Note_off_c, 0, 74, 117
1, 15055, Note_on_c, 0, 72, 119
1, 15117, Note_off_c, 0, 72, 119
1, 15118, Note_on_c, 0, 70, 116
1, 15168, Note_off_c, 0, 70, 116
1, 15169, Note_on_c, 0, 69, 117
1, 15218, Note_off_c, 0, 69, 117
1, 15220, Note_on_c, 0, 65, 116
1, 15280, Note_off_c, 0, 65, 116
1, 15282, Note_on_c, 0, 62, 102
1, 15314, Note_off_c, 0, 62, 102
1, 15316, Note_on_c, 0, 60, 100
1, 15358, Note_off_c, 0, 60, 100
1, 15365, Note_on_c, 0, 67, 119
1, 15428, Note_off_c, 0, 67, 119
1, 15430, Note_on_c, 0, 65, 119
1, 15490, Note_off_c, 0, 65, 119
1, 15491, Note_on_c, 0, 60, 101
1, 15553, Note_off_c, 0, 60, 101
1, 15556, Note_on_c, 0, 57, 84
1, 15575, Note_off_c, 0, 57, 84
1, 15582, Note_on_c, 0, 62, 111
1, 15620, Note_off_c, 0, 62, 111
1, 15624, Note_on_c, 0, 63, 104
1, 15682, Note_off_c, 0, 63, 104
1, 15685, Note_on_c, 0, 53, 92
1, 15862, Note_off_c, 0, 53, 92
1, 16014, Note_on_c, 0, 71, 113
1, 16063, Note_off_c, 0, 71, 113
1, 16064, Note_on_c, 0, 72, 123
1, 16286, Note_off_c, 0, 72, 123
1, 16293, Note_on_c, 0, 69, 119
1, 16394, Note_off_c, 0, 69, 119
1, 16401, Note_on_c, 0, 67, 117
1, 16481, Note_off_c, 0, 67, 117
1, 16485, Note_on_c, 0, 64, 109
1, 16601, Note_off_c, 0, 64, 109
1, 16610, Note_on_c, 0, 60, 83
1, 16665, Note_off_c, 0, 60, 83
1, 16669, Note_on_c, 0, 62, 109
1, 16804, Note_off_c, 0, 62, 109
1, 16806, Note_on_c, 0, 59, 82
1, 16846, Note_off_c, 0, 59, 82
1, 16849, Note_on_c, 0, 60, 106
1, 16978, Note_off_c, 0, 60, 106
1, 16981, Note_on_c, 0, 66, 108
1, 17006, Note_off_c, 0, 66, 108
1, 17011, Note_on_c, 0, 67, 118
1, 17154, Note_off_c, 0, 67, 118
1, 17346, Note_on_c, 0, 71, 115
1, 17395, Note_off_c, 0, 71, 115
1, 17396, Note_on_c, 0, 69, 111
1, 17444, Note_off_c, 0, 69, 111
1, 17446, Note_on_c, 0, 67, 117
1, 17557, Note_off_c, 0, 67, 117
1, 17559, Note_on_c, 0, 64, 113
1, 17632, Note_off_c, 0, 64, 113
1, 17637, Note_on_c, 0, 59, 99
1, 17757, Note_off_c, 0, 59, 99
1, 17760, Note_on_c, 0, 55, 89
1, 17824, Note_off_c, 0, 55, 89
1, 17831, Note_on_c, 0, 58, 96
1, 17923, Note_off_c, 0, 58, 96
1, 17933, Note_on_c, 0, 66, 114
1, 17999, Note_off_c, 0, 66, 114
1, 18056, Note_on_c, 0, 63, 92
1, 18084, Note_off_c, 0, 63, 92
1, 18090, Note_on_c, 0, 64, 96
1, 18120, Note_off_c, 0, 64, 96
1, 18120, Note_on_c, 0, 65, 87
1, 18361, Note_off_c, 0, 65, 87
1, 18501, Note_on_c, 0, 76, 114
1, 18550, Note_off_c, 0, 76, 114
1, 18555, Note_on_c, 0, 72, 106
1, 18583, Note_off_c, 0, 72, 106
1, 18584, Note_on_c, 0, 69, 114
1, 18685, Note_off_c, 0, 69, 114
1, 18689, Note_on_c, 0, 65, 115
1, 18773, Note_off_c, 0, 65, 115
1, 18774, Note_on_c, 0, 62, 105
1, 18906, Note_off_c, 0, 62, 105
1, 18918, Note_on_c, 0, 57, 82
1, 18967, Note_off_c, 0, 57, 82
1, 18970, Note_on_c, 0, 60, 101
1, 19100, Note_off_c, 0, 60, 101
1, 19103, Note_on_c, 0, 57, 81
1, 19145, Note_off_c, 0, 57, 81
1, 19147, Note_on_c, 0, 59, 99
1, 19243, Note_off_c, 0, 59, 99
1, 19254, Note_on_c, 0, 67, 111
1, 19353, Note_off_c, 0, 67, 111
1, 19358, Note_on_c, 0, 68, 112
1, 19579, Note_off_c, 0, 68, 112
1, 19584, Note_on_c, 0, 67, 110
1, 19657, Note_off_c, 0, 67, 110
1, 19661, Note_on_c, 0, 65, 107
1, 19736, Note_off_c, 0, 65, 107
1, 19756, Note_on_c, 0, 63, 108
1, 19771, Note_off_c, 0, 63, 108
1, 19773, Note_on_c, 0, 64, 102
1, 19848, Note_off_c, 0, 64, 102
1, 19858, Note_on_c, 0, 60, 98
1, 19924, Note_off_c, 0, 60, 98
1, 19963, Note_on_c, 0, 60, 95
1, 20022, Note_off_c, 0, 60, 95
1, 20072, Note_on_c, 0, 60, 93
1, 20276, Note_off_c, 0, 60, 93
1, 20576, Note_on_c, 0, 60, 104
1, 20722, Note_off_c, 0, 60, 104
1, 20725, Note_on_c, 0, 62, 100
1, 20755, Note_off_c, 0, 62, 100
1, 20756, Note_on_c, 0, 60, 100
1, 20784, Note_off_c, 0, 60, 100
1, 20787, Note_on_c, 0, 59, 92
1, 20834, Note_off_c, 0, 59, 92
1, 20890, Note_on_c, 0, 62, 107
1, 20955, Note_off_c, 0, 62, 107
1, 20961, Note_on_c, 0, 60, 101
1, 21024, Note_off_c, 0, 60, 101
1, 21024, Note_on_c, 0, 59, 85
1, 21076, Note_off_c, 0, 59, 85
1, 21078, Note_on_c, 0, 60, 95
1, 21134, Note_off_c, 0, 60, 95
1, 21137, Note_on_c, 0, 62, 110
1, 21192, Note_off_c, 0, 62, 110
1, 21196, Note_on_c, 0, 59, 80
1, 21250, Note_off_c, 0, 59, 80
1, 21252, Note_on_c, 0, 60, 103
1, 21329, Note_off_c, 0, 60, 103
1, 21334, Note_on_c, 0, 55, 90
1, 21601, Note_off_c, 0, 55, 90
1, 21601, End_track
0, 0, End_of_file
