0, 0, Header, 1, 1, 18480
1, 0, Start_track
1, 0, Title_t, "Melody"
1, 0, Tempo, 833333
1, 0, Key_signature, -3, "major"
1, 0, Time_signature, 4, 2, 24, 8
1, 100596, Note_on_c, 0, 68, 111
1, 102587, Note_off_c, 0, 68, 111
1, 103138, Note_on_c, 0, 67, 116
1, 104631, Note_off_c, 0, 67, 116
1, 104875, Note_on_c, 0, 65, 111
1, 106323, Note_off_c, 0, 65, 111
1, 106709, Note_on_c, 0, 63, 107
1, 108655, Note_off_c, 0, 63, 107
1, 109154, Note_on_c, 0, 62, 104
1, 110511, Note_off_c, 0, 62, 104
1, 110665, Note_on_c, 0, 60, 104
1, 112805, Note_off_c, 0, 60, 104
1, 112933, Note_on_c, 0, 59, 94
1, 126417, Note_off_c, 0, 59, 94
1, 126513, Note_on_c, 0, 67, 110
1, 130728, Note_off_c, 0, 67, 110
1, 130937, Note_on_c, 0, 63, 90
1, 144872, Note_off_c, 0, 63, 90
1, 155331, Note_on_c, 0, 55, 127
1, 159981, Note_off_c, 0, 55, 127
1, 160158, Note_on_c, 0, 57, 111
1, 164744, Note_off_c, 0, 57, 111
1, 164824, Note_on_c, 0, 59, 108
1, 168476, Note_off_c, 0, 59, 108
1, 168556, Note_on_c, 0, 62, 116
1, 173415, Note_off_c, 0, 62, 116
1, 173656, Note_on_c, 0, 60, 116
1, 176649, Note_off_c, 0, 60, 116
1, 177228, Note_on_c, 0, 58, 99
1, 179110, Note_off_c, 0, 58, 99
1, 179270, Note_on_c, 0, 59, 92
1, 182713, Note_off_c, 0, 59, 92
1, 183131, Note_on_c, 0, 60, 98
1, 187250, Note_off_c, 0, 60, 98
1, 187539, Note_on_c, 0, 62, 110
1, 192060, Note_off_c, 0, 62, 110
1, 193797, Note_on_c, 0, 63, 111
1, 198720, Note_off_c, 0, 63, 111
1, 198816, Note_on_c, 0, 65, 113
1, 203080, Note_off_c, 0, 65, 113
1, 203240, Note_on_c, 0, 63, 100
1, 207809, Note_off_c, 0, 63, 100
1, 207857, Note_on_c, 0, 66, 112
1, 209948, Note_off_c, 0, 66, 112
1, 210235, Note_on_c, 0, 67, 109
1, 214873, Note_off_c, 0, 67, 109
1, 215418, Note_on_c, 0, 67, 103
1, 236304, Note_off_c, 0, 67, 103
1, 249161, Note_on_c, 0, 65, 117
1, 251011, Note_off_c, 0, 65, 117
1, 251300, Note_on_c, 0, 64, 112
1, 252925, Note_off_c, 0, 64, 112
1, 253102, Note_on_c, 0, 63, 99
1, 263851, Note_off_c, 0, 63, 99
1, 267006, Note_on_c, 0, 61, 107
1, 269540, Note_off_c, 0, 61, 107
1, 269873, Note_on_c, 0, 59, 103
1, 271986, Note_off_c, 0, 59, 103
1, 272151, Note_on_c, 0, 61, 101
1, 273644, Note_off_c, 0, 61, 101
1, 273787, Note_on_c, 0, 59, 100
1, 275302, Note_off_c, 0, 59, 100
1, 275464, Note_on_c, 0, 57, 97
1, 278677, Note_off_c, 0, 57, 97
1, 279469, Note_on_c, 0, 58, 79
1, 294675, Note_off_c, 0, 58, 79
1, 304020, Note_on_c, 0, 62, 110
1, 305830, Note_off_c, 0, 62, 110
1, 306260, Note_on_c, 0, 63, 113
1, 311057, Note_off_c, 0, 63, 113
1, 311939, Note_on_c, 0, 63, 118
1, 316736, Note_off_c, 0, 63, 118
1, 317052, Note_on_c, 0, 63, 106
1, 343889, Note_off_c, 0, 63, 106
1, 344929, Note_on_c, 0, 62, 101
1, 349499, Note_off_c, 0, 62, 101
1, 349831, Note_on_c, 0, 63, 104
1, 353723, Note_off_c, 0, 63, 104
1, 354400, Note_on_c, 0, 67, 95
1, 379373, Note_off_c, 0, 67, 95
1, 398457, Note_on_c, 0, 76, 103
1, 400238, Note_off_c, 0, 76, 103
1, 400645, Note_on_c, 0, 73, 110
1, 402061, Note_off_c, 0, 73, 110
1, 402173, Note_on_c, 0, 71, 107
1, 403157, Note_off_c, 0, 71, 107
1, 403411, Note_on_c, 0, 69, 107
1, 407482, Note_off_c, 0, 69, 107
1, 408849, Note_on_c, 0, 67, 110
1, 413032, Note_off_c, 0, 67, 110
1, 413112, Note_on_c, 0, 66, 114
1, 417617, Note_off_c, 0, 66, 114
1, 418983, Note_on_c, 0, 63, 99
1, 425635, Note_off_c, 0, 63, 99
1, 425974, Note_on_c, 0, 60, 109
1, 430047, Note_off_c, 0, 60, 109
1, 430311, Note_on_c, 0, 58, 73
1, 441964, Note_off_c, 0, 58, 73
1, 452677, Note_on_c, 0, 61, 110
1, 455380, Note_off_c, 0, 61, 110
1, 455705, Note_on_c, 0, 62, 103
1, 459687, Note_off_c, 0, 62, 103
1, 459777, Note_on_c, 0, 67, 110
1, 463669, Note_off_c, 0, 67, 110
1, 463917, Note_on_c, 0, 69, 111
1, 468555, Note_off_c, 0, 69, 111
1, 469641, Note_on_c, 0, 70, 110
1, 475479, Note_off_c, 0, 70, 110
1, 475727, Note_on_c, 0, 70, 113
1, 480207, Note_off_c, 0, 70, 113
1, 480682, Note_on_c, 0, 70, 111
1, 485977, Note_off_c, 0, 70, 111
1, 486497, Note_on_c, 0, 70, 107
1, 491181, Note_off_c, 0, 70, 107
1, 491543, Note_on_c, 0, 69, 106
1, 496113, Note_off_c, 0, 69, 106
1, 496630, Note_on_c, 0, 70, 106
1, 500974, Note_off_c, 0, 70, 106
1, 501904, Note_on_c, 0, 71, 100
1, 503759, Note_off_c, 0, 71, 100
1, 504098, Note_on_c, 0, 72, 104
1, 508601, Note_off_c, 0, 72, 104
1, 509436, Note_on_c, 0, 72, 89
1, 530226, Note_off_c, 0, 72, 89
1, 544760, Note_on_c, 0, 63, 99
1, 546366, Note_off_c, 0, 63, 99
1, 546501, Note_on_c, 0, 64, 100
1, 549714, Note_off_c, 0, 64, 100
1, 549828, Note_on_c, 0, 67, 108
1, 552018, Note_off_c, 0, 67, 108
1, 552128, Note_on_c, 0, 69, 104
1, 553555, Note_off_c, 0, 69, 104
1, 553621, Note_on_c, 0, 67, 105
1, 555402, Note_off_c, 0, 67, 105
1, 555567, Note_on_c, 0, 66, 112
1, 558808, Note_off_c, 0, 66, 112
1, 559018, Note_on_c, 0, 64, 104
1, 564449, Note_off_c, 0, 64, 104
1, 566618, Note_on_c, 0, 57, 90
1, 568919, Note_off_c, 0, 57, 90
1, 569096, Note_on_c, 0, 60, 114
1, 574502, Note_off_c, 0, 60, 114
1, 574630, Note_on_c, 0, 63, 115
1, 580052, Note_off_c, 0, 63, 115
1, 580325, Note_on_c, 0, 62, 98
1, 591363, Note_off_c, 0, 62, 98
1, 602271, Note_on_c, 0, 69, 121
1, 605054, Note_off_c, 0, 69, 121
1, 605506, Note_on_c, 0, 70, 115
1, 609194, Note_off_c, 0, 70, 115
1, 609804, Note_on_c, 0, 70, 117
1, 614080, Note_off_c, 0, 70, 117
1, 614804, Note_on_c, 0, 70, 92
1, 639537, Note_off_c, 0, 70, 92
1, 639944, Note_on_c, 0, 69, 95
1, 644877, Note_off_c, 0, 69, 95
1, 645239, Note_on_c, 0, 70, 99
1, 649855, Note_off_c, 0, 70, 99
1, 650058, Note_on_c, 0, 72, 88
1, 676714, Note_off_c, 0, 72, 88
1, 715521, Note_on_c, 0, 70, 104
1, 719503, Note_off_c, 0, 70, 104
1, 719910, Note_on_c, 0, 69, 107
1, 724865, Note_off_c, 0, 69, 107
1, 725249, Note_on_c, 0, 70, 107
1, 729910, Note_off_c, 0, 70, 107
1, 730093, Note_on_c, 0, 72, 98
1, 732442, Note_off_c, 0, 72, 98
1, 732647, Note_on_c, 0, 75, 94
1, 786774, Note_off_c, 0, 75, 94
1, 788278, Note_on_c, 0, 75, 96
1, 793684, Note_off_c, 0, 75, 96
1, 794102, Note_on_c, 0, 75, 93
1, 798800, Note_off_c, 0, 75, 93
1, 800055, Note_on_c, 0, 75, 98
1, 804850, Note_off_c, 0, 75, 98
1, 805027, Note_on_c, 0, 73, 97
1, 806668, Note_off_c, 0, 73, 97
1, 806796, Note_on_c, 0, 71, 103
1, 808099, Note_off_c, 0, 71, 103
1, 808372, Note_on_c, 0, 70, 99
1, 813408, Note_off_c, 0, 70, 99
1, 813900, Note_on_c, 0, 70, 104
1, 818063, Note_off_c, 0, 70, 104
1, 818651, Note_on_c, 0, 70, 88
1, 833631, Note_off_c, 0, 70, 88
1, 859315, Note_on_c, 0, 61, 72
1, 860747, Note_off_c, 0, 61, 72
1, 862871, Note_on_c, 0, 63, 102
1, 866813, Note_off_c, 0, 63, 102
1, 867344, Note_on_c, 0, 65, 106
1, 871012, Note_off_c, 0, 65, 106
1, 871543, Note_on_c, 0, 66, 114
1, 876418, Note_off_c, 0, 66, 114
1, 876836, Note_on_c, 0, 68, 117
1, 881309, Note_off_c, 0, 68, 117
1, 881469, Note_on_c, 0, 70, 112
1, 885009, Note_off_c, 0, 70, 112
1, 885411, Note_on_c, 0, 68, 119
1, 889208, Note_off_c, 0, 68, 119
1, 889465, Note_on_c, 0, 66, 115
1, 894549, Note_off_c, 0, 66, 115
1, 895063, Note_on_c, 0, 65, 113
1, 899375, Note_off_c, 0, 65, 113
1, 899745, Note_on_c, 0, 63, 101
1, 903703, Note_off_c, 0, 63, 101
1, 905105, Note_on_c, 0, 58, 85
1, 906734, Note_off_c, 0, 58, 85
1, 907660, Note_on_c, 0, 60, 109
1, 909922, Note_off_c, 0, 60, 109
1, 910088, Note_on_c, 0, 62, 109
1, 916122, Note_off_c, 0, 62, 109
1, 916331, Note_on_c, 0, 70, 103
1, 921399, Note_off_c, 0, 70, 103
1, 922267, Note_on_c, 0, 60, 106
1, 924986, Note_off_c, 0, 60, 106
1, 925227, Note_on_c, 0, 61, 103
1, 929925, Note_off_c, 0, 61, 103
1, 939973, Note_on_c, 0, 58, 88
1, 942871, Note_off_c, 0, 58, 88
1, 943505, Note_on_c, 0, 61, 103
1, 945081, Note_off_c, 0, 61, 103
1, 945370, Note_on_c, 0, 63, 98
1, 946914, Note_off_c, 0, 63, 98
1, 946914, Note_on_c, 0, 61, 103
1, 948941, Note_off_c, 0, 61, 103
1, 949140, Note_on_c, 0, 58, 80
1, 950974, Note_off_c, 0, 58, 80
1, 951717, Note_on_c, 0, 60, 114
1, 956962, Note_off_c, 0, 60, 114
1, 957727, Note_on_c, 0, 68, 107
1, 970471, Note_off_c, 0, 68, 107
1, 970871, Note_on_c, 0, 66, 113
1, 972834, Note_off_c, 0, 66, 113
1, 973204, Note_on_c, 0, 65, 109
1, 975295, Note_off_c, 0, 65, 109
1, 975536, Note_on_c, 0, 63, 88
1, 976791, Note_off_c, 0, 63, 88
1, 977756, Note_on_c, 0, 58, 88
1, 980797, Note_off_c, 0, 58, 88
1, 981279, Note_on_c, 0, 60, 102
1, 983596, Note_off_c, 0, 60, 102
1, 983901, Note_on_c, 0, 61, 94
1, 988647, Note_off_c, 0, 61, 94
1, 988968, Note_on_c, 0, 60, 102
1, 995662, Note_off_c, 0, 60, 102
1, 996756, Note_on_c, 0, 60, 96
1, 1000135, Note_off_c, 0, 60, 96
1, 1028890, Note_on_c, 0, 65, 112
1, 1030820, Note_off_c, 0, 65, 112
1, 1030989, Note_on_c, 0, 66, 116
1, 1040764, Note_off_c, 0, 66, 116
1, 1042891, Note_on_c, 0, 63, 97
1, 1048593, Note_off_c, 0, 63, 97
1, 1049090, Note_on_c, 0, 63, 99
1, 1054226, Note_off_c, 0, 63, 99
1, 1055289, Note_on_c, 0, 63, 85
1, 1081945, Note_off_c, 0, 63, 85
1, 1097514, Note_on_c, 0, 56, 111
1, 1100265, Note_off_c, 0, 56, 111
1, 1100538, Note_on_c, 0, 57, 101
1, 1104319, Note_off_c, 0, 57, 101
1, 1104661, Note_on_c, 0, 60, 105
1, 1108598, Note_off_c, 0, 60, 105
1, 1109064, Note_on_c, 0, 68, 100
1, 1133458, Note_off_c, 0, 68, 100
1, 1134212, Note_on_c, 0, 66, 108
1, 1140095, Note_off_c, 0, 66, 108
1, 1142885, Note_on_c, 0, 63, 89
1, 1145584, Note_off_c, 0, 63, 89
1, 1145827, Note_on_c, 0, 65, 103
1, 1147320, Note_off_c, 0, 65, 103
1, 1147430, Note_on_c, 0, 66, 105
1, 1149487, Note_off_c, 0, 66, 105
1, 1149619, Note_on_c, 0, 65, 96
1, 1151234, Note_off_c, 0, 65, 96
1, 1151604, Note_on_c, 0, 63, 97
1, 1155047, Note_off_c, 0, 63, 97
1, 1156269, Note_on_c, 0, 62, 101
1, 1161383, Note_off_c, 0, 62, 101
1, 1162107, Note_on_c, 0, 63, 102
1, 1166994, Note_off_c, 0, 63, 102
1, 1167065, Note_on_c, 0, 65, 109
1, 1168738, Note_off_c, 0, 65, 109
1, 1168882, Note_on_c, 0, 66, 112
1, 1185311, Note_off_c, 0, 66, 112
1, 1186746, Note_on_c, 0, 63, 95
1, 1190864, Note_off_c, 0, 63, 95
1, 1191226, Note_on_c, 0, 65, 109
1, 1197154, Note_off_c, 0, 65, 109
1, 1197448, Note_on_c, 0, 65, 110
1, 1201408, Note_off_c, 0, 65, 110
1, 1202768, Note_on_c, 0, 65, 98
1, 1223300, Note_off_c, 0, 65, 98
1, 1224024, Note_on_c, 0, 63, 97
1, 1226437, Note_off_c, 0, 63, 97
1, 1226951, Note_on_c, 0, 65, 109
1, 1229380, Note_off_c, 0, 65, 109
1, 1229540, Note_on_c, 0, 66, 111
1, 1231020, Note_off_c, 0, 66, 111
1, 1231309, Note_on_c, 0, 65, 86
1, 1233223, Note_off_c, 0, 65, 86
1, 1233931, Note_on_c, 0, 63, 95
1, 1235459, Note_off_c, 0, 63, 95
1, 1235652, Note_on_c, 0, 65, 100
1, 1253577, Note_off_c, 0, 65, 100
1, 1278727, Note_on_c, 0, 66, 109
1, 1281221, Note_off_c, 0, 66, 109
1, 1281494, Note_on_c, 0, 67, 98
1, 1282700, Note_off_c, 0, 67, 98
1, 1282925, Note_on_c, 0, 68, 103
1, 1285773, Note_off_c, 0, 68, 103
1, 1286014, Note_on_c, 0, 67, 106
1, 1288154, Note_off_c, 0, 67, 106
1, 1288347, Note_on_c, 0, 65, 103
1, 1290390, Note_off_c, 0, 65, 103
1, 1290518, Note_on_c, 0, 63, 103
1, 1293405, Note_off_c, 0, 63, 103
1, 1293615, Note_on_c, 0, 62, 97
1, 1294854, Note_off_c, 0, 62, 97
1, 1295042, Note_on_c, 0, 60, 102
1, 1297420, Note_off_c, 0, 60, 102
1, 1297791, Note_on_c, 0, 59, 98
1, 1300438, Note_off_c, 0, 59, 98
1, 1302067, Note_on_c, 0, 65, 110
1, 1304918, Note_off_c, 0, 65, 110
1, 1304919, Note_on_c, 0, 68, 107
1, 1307065, Note_off_c, 0, 68, 107
1, 1307208, Note_on_c, 0, 67, 97
1, 1308812, Note_off_c, 0, 67, 97
1, 1309132, Note_on_c, 0, 65, 110
1, 1311654, Note_off_c, 0, 65, 110
1, 1311839, Note_on_c, 0, 63, 102
1, 1315889, Note_off_c, 0, 63, 102
1, 1337960, Note_on_c, 0, 55, 111
1, 1339497, Note_off_c, 0, 55, 111
1, 1339696, Note_on_c, 0, 57, 109
1, 1341222, Note_off_c, 0, 57, 109
1, 1341487, Note_on_c, 0, 59, 107
1, 1342692, Note_off_c, 0, 59, 107
1, 1343030, Note_on_c, 0, 60, 115
1, 1347455, Note_off_c, 0, 60, 115
1, 1347857, Note_on_c, 0, 62, 102
1, 1352121, Note_off_c, 0, 62, 102
1, 1352426, Note_on_c, 0, 63, 113
1, 1357945, Note_off_c, 0, 63, 113
1, 1358057, Note_on_c, 0, 65, 109
1, 1361774, Note_off_c, 0, 65, 109
1, 1361983, Note_on_c, 0, 67, 106
1, 1365925, Note_off_c, 0, 67, 106
1, 1366793, Note_on_c, 0, 69, 10
1, 1370799, Note_off_c, 0, 69, 10
1, 1372263, Note_on_c, 0, 74, 102
1, 1376607, Note_off_c, 0, 74, 102
1, 1378714, Note_on_c, 0, 71, 78
1, 1382198, Note_off_c, 0, 71, 78
1, 1382317, Note_on_c, 0, 72, 100
1, 1385145, Note_off_c, 0, 72, 100
1, 1386049, Note_on_c, 0, 78, 114
1, 1390667, Note_off_c, 0, 78, 114
1, 1391053, Note_on_c, 0, 76, 103
1, 1396186, Note_off_c, 0, 76, 103
1, 1397859, Note_on_c, 0, 71, 103
1, 1402300, Note_off_c, 0, 71, 103
1, 1404584, Note_on_c, 0, 73, 108
1, 1412146, Note_off_c, 0, 73, 108
1, 1413980, Note_on_c, 0, 71, 105
1, 1419628, Note_off_c, 0, 71, 105
1, 1420191, Note_on_c, 0, 66, 100
1, 1424954, Note_off_c, 0, 66, 100
1, 1425887, Note_on_c, 0, 69, 105
1, 1427158, Note_off_c, 0, 69, 105
1, 1427206, Note_on_c, 0, 70, 100
1, 1434479, Note_off_c, 0, 70, 100
1, 1434865, Note_on_c, 0, 66, 111
1, 1437262, Note_off_c, 0, 66, 111
1, 1437567, Note_on_c, 0, 63, 95
1, 1441911, Note_off_c, 0, 63, 95
1, 1442265, Note_on_c, 0, 58, 83
1, 1445016, Note_off_c, 0, 58, 83
1, 1445128, Note_on_c, 0, 59, 106
1, 1450019, Note_off_c, 0, 59, 106
1, 1450984, Note_on_c, 0, 70, 101
1, 1454250, Note_off_c, 0, 70, 101
1, 1454636, Note_on_c, 0, 68, 115
1, 1459624, Note_off_c, 0, 68, 115
1, 1459897, Note_on_c, 0, 67, 109
1, 1463984, Note_off_c, 0, 67, 109
1, 1465335, Note_on_c, 0, 63, 92
1, 1479881, Note_off_c, 0, 63, 92
1, 1487508, Note_on_c, 0, 55, 125
1, 1489825, Note_off_c, 0, 55, 125
1, 1489985, Note_on_c, 0, 56, 120
1, 1491143, Note_off_c, 0, 56, 120
1, 1491416, Note_on_c, 0, 57, 115
1, 1492767, Note_off_c, 0, 57, 115
1, 1493008, Note_on_c, 0, 58, 93
1, 1497899, Note_off_c, 0, 58, 93
1, 1498059, Note_on_c, 0, 60, 112
1, 1502274, Note_off_c, 0, 60, 112
1, 1503223, Note_on_c, 0, 62, 107
1, 1505878, Note_off_c, 0, 62, 107
1, 1506006, Note_on_c, 0, 63, 116
1, 1507293, Note_off_c, 0, 63, 116
1, 1507486, Note_on_c, 0, 64, 117
1, 1509014, Note_off_c, 0, 64, 117
1, 1509351, Note_on_c, 0, 65, 121
1, 1513019, Note_off_c, 0, 65, 121
1, 1515143, Note_on_c, 0, 60, 104
1, 1518827, Note_off_c, 0, 60, 104
1, 1519341, Note_on_c, 0, 62, 102
1, 1523814, Note_off_c, 0, 62, 102
1, 1524264, Note_on_c, 0, 63, 122
1, 1529027, Note_off_c, 0, 63, 122
1, 1529462, Note_on_c, 0, 65, 114
1, 1532725, Note_off_c, 0, 65, 114
1, 1532900, Note_on_c, 0, 67, 118
1, 1537538, Note_off_c, 0, 67, 118
1, 1538556, Note_on_c, 0, 63, 105
1, 1541656, Note_off_c, 0, 63, 105
1, 1541794, Note_on_c, 0, 66, 108
1, 1542402, Note_off_c, 0, 66, 108
1, 1542716, Note_on_c, 0, 67, 104
1, 1548283, Note_off_c, 0, 67, 104
1, 1548572, Note_on_c, 0, 67, 105
1, 1555362, Note_off_c, 0, 67, 105
1, 1555909, Note_on_c, 0, 67, 92
1, 1564694, Note_off_c, 0, 67, 92
1, 1584872, Note_on_c, 0, 69, 120
1, 1586963, Note_off_c, 0, 69, 120
1, 1587317, Note_on_c, 0, 67, 112
1, 1589247, Note_off_c, 0, 67, 112
1, 1589584, Note_on_c, 0, 66, 114
1, 1591321, Note_off_c, 0, 66, 114
1, 1591852, Note_on_c, 0, 69, 113
1, 1593654, Note_off_c, 0, 69, 113
1, 1594249, Note_on_c, 0, 64, 104
1, 1596437, Note_off_c, 0, 64, 104
1, 1596807, Note_on_c, 0, 57, 91
1, 1598319, Note_off_c, 0, 57, 91
1, 1598608, Note_on_c, 0, 60, 105
1, 1601263, Note_off_c, 0, 60, 105
1, 1601472, Note_on_c, 0, 63, 116
1, 1603467, Note_off_c, 0, 63, 116
1, 1603668, Note_on_c, 0, 60, 111
1, 1605736, Note_off_c, 0, 60, 111
1, 1606112, Note_on_c, 0, 61, 104
1, 1608025, Note_off_c, 0, 61, 104
1, 1608577, Note_on_c, 0, 63, 112
1, 1610885, Note_off_c, 0, 63, 112
1, 1611586, Note_on_c, 0, 57, 105
1, 1613516, Note_off_c, 0, 57, 105
1, 1613729, Note_on_c, 0, 60, 119
1, 1616593, Note_off_c, 0, 60, 119
1, 1616834, Note_on_c, 0, 58, 85
1, 1618250, Note_off_c, 0, 58, 85
1, 1618531, Note_on_c, 0, 57, 98
1, 1621524, Note_off_c, 0, 57, 98
1, 1621706, Note_on_c, 0, 58, 84
1, 1623122, Note_off_c, 0, 58, 84
1, 1623265, Note_on_c, 0, 62, 110
1, 1626097, Note_off_c, 0, 62, 110
1, 1626417, Note_on_c, 0, 67, 110
1, 1628253, Note_off_c, 0, 67, 110
1, 1628452, Note_on_c, 0, 69, 98
1, 1630775, Note_off_c, 0, 69, 98
1, 1630885, Note_on_c, 0, 71, 91
1, 1632610, Note_off_c, 0, 71, 91
1, 1632908, Note_on_c, 0, 73, 106
1, 1633992, Note_off_c, 0, 73, 106
1, 1634323, Note_on_c, 0, 69, 109
1, 1636723, Note_off_c, 0, 69, 109
1, 1637010, Note_on_c, 0, 71, 114
1, 1638293, Note_off_c, 0, 71, 114
1, 1638558, Note_on_c, 0, 72, 108
1, 1639387, Note_off_c, 0, 72, 108
1, 1639486, Note_on_c, 0, 71, 115
1, 1640879, Note_off_c, 0, 71, 115
1, 1641008, Note_on_c, 0, 69, 110
1, 1643357, Note_off_c, 0, 69, 110
1, 1643694, Note_on_c, 0, 68, 106
1, 1647008, Note_off_c, 0, 68, 106
1, 1662327, Note_on_c, 0, 69, 108
1, 1663831, Note_off_c, 0, 69, 108
1, 1663999, Note_on_c, 0, 70, 114
1, 1667506, Note_off_c, 0, 70, 114
1, 1667666, Note_on_c, 0, 70, 114
1, 1673523, Note_off_c, 0, 70, 114
1, 1673732, Note_on_c, 0, 69, 111
1, 1678881, Note_off_c, 0, 69, 111
1, 1679170, Note_on_c, 0, 70, 114
1, 1683498, Note_off_c, 0, 70, 114
1, 1686169, Note_on_c, 0, 71, 108
1, 1686909, Note_off_c, 0, 71, 108
1, 1687053, Note_on_c, 0, 72, 122
1, 1693022, Note_off_c, 0, 72, 122
1, 1693433, Note_on_c, 0, 72, 90
1, 1711309, Note_off_c, 0, 72, 90
1, 1727810, Note_on_c, 0, 62, 99
1, 1729934, Note_off_c, 0, 62, 99
1, 1730144, Note_on_c, 0, 64, 108
1, 1732976, Note_off_c, 0, 64, 108
1, 1733232, Note_on_c, 0, 67, 110
1, 1735002, Note_off_c, 0, 67, 110
1, 1735165, Note_on_c, 0, 69, 108
1, 1736912, Note_off_c, 0, 69, 108
1, 1737210, Note_on_c, 0, 67, 109
1, 1738561, Note_off_c, 0, 67, 109
1, 1738647, Note_on_c, 0, 66, 113
1, 1741575, Note_off_c, 0, 66, 113
1, 1742628, Note_on_c, 0, 64, 109
1, 1747584, Note_off_c, 0, 64, 109
1, 1748642, Note_on_c, 0, 57, 100
1, 1751313, Note_off_c, 0, 57, 100
1, 1751588, Note_on_c, 0, 60, 114
1, 1757407, Note_off_c, 0, 60, 114
1, 1757666, Note_on_c, 0, 63, 116
1, 1762327, Note_off_c, 0, 63, 116
1, 1762485, Note_on_c, 0, 62, 106
1, 1767644, Note_off_c, 0, 62, 106
1, 1768051, Note_on_c, 0, 58, 82
1, 1774138, Note_off_c, 0, 58, 82
1, 1802295, Note_on_c, 0, 69, 123
1, 1804322, Note_off_c, 0, 69, 123
1, 1804402, Note_on_c, 0, 70, 120
1, 1809800, Note_off_c, 0, 70, 120
1, 1810491, Note_on_c, 0, 70, 118
1, 1815431, Note_off_c, 0, 70, 118
1, 1816042, Note_on_c, 0, 70, 117
1, 1821641, Note_off_c, 0, 70, 117
1, 1821818, Note_on_c, 0, 69, 93
1, 1825100, Note_off_c, 0, 69, 93
1, 1825132, Note_on_c, 0, 70, 90
1, 1831101, Note_off_c, 0, 70, 90
1, 1831245, Note_on_c, 0, 72, 112
1, 1844182, Note_off_c, 0, 72, 112
1, 1844359, Note_on_c, 0, 68, 110
1, 1849556, Note_off_c, 0, 68, 110
1, 1849652, Note_on_c, 0, 65, 116
1, 1855380, Note_off_c, 0, 65, 116
1, 1855605, Note_on_c, 0, 63, 108
1, 1856747, Note_off_c, 0, 63, 108
1, 1856891, Note_on_c, 0, 64, 111
1, 1860608, Note_off_c, 0, 64, 111
1, 1862297, Note_on_c, 0, 72, 115
1, 1867735, Note_off_c, 0, 72, 115
1, 1869776, Note_on_c, 0, 63, 111
1, 1878261, Note_off_c, 0, 63, 111
1, 1878993, Note_on_c, 0, 61, 100
1, 1881393, Note_off_c, 0, 61, 100
1, 1881857, Note_on_c, 0, 62, 110
1, 1888238, Note_off_c, 0, 62, 110
1, 1889844, Note_on_c, 0, 62, 91
1, 1899144, Note_off_c, 0, 62, 91
1, 1927225, Note_on_c, 0, 70, 112
1, 1934217, Note_off_c, 0, 70, 112
1, 1934420, Note_on_c, 0, 72, 105
1, 1937293, Note_off_c, 0, 72, 105
1, 1937307, Note_on_c, 0, 75, 103
1, 1948184, Note_off_c, 0, 75, 103
1, 1948538, Note_on_c, 0, 75, 109
1, 1975989, Note_off_c, 0, 75, 109
1, 1976343, Note_on_c, 0, 73, 116
1, 1982393, Note_off_c, 0, 73, 116
1, 1984154, Note_on_c, 0, 72, 106
1, 1986416, Note_off_c, 0, 72, 106
1, 1986687, Note_on_c, 0, 73, 112
1, 1993023, Note_off_c, 0, 73, 112
1, 1993385, Note_on_c, 0, 72, 115
1, 1998136, Note_off_c, 0, 72, 115
1, 1998899, Note_on_c, 0, 72, 103
1, 2020171, Note_off_c, 0, 72, 103
1, 2020911, Note_on_c, 0, 67, 100
1, 2022471, Note_off_c, 0, 67, 100
1, 2022631, Note_on_c, 0, 68, 86
1, 2024417, Note_off_c, 0, 68, 86
1, 2024441, Note_on_c, 0, 72, 89
1, 2025454, Note_off_c, 0, 72, 89
1, 2025534, Note_on_c, 0, 73, 100
1, 2026531, Note_off_c, 0, 73, 100
1, 2026611, Note_on_c, 0, 72, 100
1, 2027544, Note_off_c, 0, 72, 100
1, 2027680, Note_on_c, 0, 70, 95
1, 2028629, Note_off_c, 0, 70, 95
1, 2028653, Note_on_c, 0, 68, 111
1, 2029747, Note_off_c, 0, 68, 111
1, 2029956, Note_on_c, 0, 67, 110
1, 2031211, Note_off_c, 0, 67, 110
1, 2031540, Note_on_c, 0, 65, 108
1, 2032923, Note_off_c, 0, 65, 108
1, 2033088, Note_on_c, 0, 64, 102
1, 2033773, Note_off_c, 0, 64, 102
1, 2033872, Note_on_c, 0, 61, 105
1, 2035453, Note_off_c, 0, 61, 105
1, 2035630, Note_on_c, 0, 58, 92
1, 2036581, Note_off_c, 0, 58, 92
1, 2036780, Note_on_c, 0, 57, 100
1, 2037554, Note_off_c, 0, 57, 100
1, 2037675, Note_on_c, 0, 56, 112
1, 2038836, Note_off_c, 0, 56, 112
1, 2038968, Note_on_c, 0, 55, 118
1, 2040007, Note_off_c, 0, 55, 118
1, 2040139, Note_on_c, 0, 53, 107
1, 2041496, Note_off_c, 0, 53, 107
1, 2041903, Note_on_c, 0, 52, 106
1, 2046292, Note_off_c, 0, 52, 106
1, 2066367, Note_on_c, 0, 68, 108
1, 2068346, Note_off_c, 0, 68, 108
1, 2068587, Note_on_c, 0, 70, 108
1, 2073768, Note_off_c, 0, 70, 108
1, 2074138, Note_on_c, 0, 68, 115
1, 2083841, Note_off_c, 0, 68, 115
1, 2084465, Note_on_c, 0, 68, 115
1, 2091321, Note_off_c, 0, 68, 115
1, 2092022, Note_on_c, 0, 68, 103
1, 2119379, Note_off_c, 0, 68, 103
1, 2120945, Note_on_c, 0, 67, 103
1, 2125128, Note_off_c, 0, 67, 103
1, 2130599, Note_on_c, 0, 67, 112
1, 2132092, Note_off_c, 0, 67, 112
1, 2132139, Note_on_c, 0, 68, 116
1, 2140556, Note_off_c, 0, 68, 116
1, 2141008, Note_on_c, 0, 67, 107
1, 2145443, Note_off_c, 0, 67, 107
1, 2146076, Note_on_c, 0, 65, 109
1, 2150782, Note_off_c, 0, 65, 109
1, 2151415, Note_on_c, 0, 63, 107
1, 2156257, Note_off_c, 0, 63, 107
1, 2158316, Note_on_c, 0, 58, 87
1, 2164516, Note_off_c, 0, 58, 87
1, 2165104, Note_on_c, 0, 59, 104
1, 2169267, Note_off_c, 0, 59, 104
1, 2170964, Note_on_c, 0, 61, 102
1, 2179472, Note_off_c, 0, 61, 102
1, 2180331, Note_on_c, 0, 59, 105
1, 2184675, Note_off_c, 0, 59, 105
1, 2185625, Note_on_c, 0, 58, 92
1, 2188611, Note_off_c, 0, 58, 92
1, 2190036, Note_on_c, 0, 56, 108
1, 2202391, Note_off_c, 0, 56, 108
1, 2226960, Note_on_c, 0, 58, 99
1, 2230467, Note_off_c, 0, 58, 99
1, 2230804, Note_on_c, 0, 60, 113
1, 2232815, Note_off_c, 0, 60, 113
1, 2232863, Note_on_c, 0, 63, 102
1, 2234021, Note_off_c, 0, 63, 102
1, 2234133, Note_on_c, 0, 66, 119
1, 2235919, Note_off_c, 0, 66, 119
1, 2236112, Note_on_c, 0, 67, 112
1, 2241583, Note_off_c, 0, 67, 112
1, 2242032, Note_on_c, 0, 67, 98
1, 2264909, Note_off_c, 0, 67, 98
1, 2265316, Note_on_c, 0, 65, 112
1, 2268791, Note_off_c, 0, 65, 112
1, 2269290, Note_on_c, 0, 63, 91
1, 2272604, Note_off_c, 0, 63, 91
1, 2273247, Note_on_c, 0, 62, 99
1, 2276143, Note_off_c, 0, 62, 99
1, 2276432, Note_on_c, 0, 63, 100
1, 2278781, Note_off_c, 0, 63, 100
1, 2279231, Note_on_c, 0, 65, 114
1, 2282513, Note_off_c, 0, 65, 114
1, 2282995, Note_on_c, 0, 67, 87
1, 2284433, Note_off_c, 0, 67, 87
1, 2284654, Note_on_c, 0, 63, 84
1, 2286235, Note_off_c, 0, 63, 84
1, 2286644, Note_on_c, 0, 66, 109
1, 2288314, Note_off_c, 0, 66, 109
1, 2288524, Note_on_c, 0, 67, 100
1, 2292794, Note_off_c, 0, 67, 100
1, 2293323, Note_on_c, 0, 67, 99
1, 2306646, Note_off_c, 0, 67, 99
1, 2321257, Note_on_c, 0, 74, 95
1, 2322962, Note_off_c, 0, 74, 95
1, 2323171, Note_on_c, 0, 73, 112
1, 2325311, Note_off_c, 0, 73, 112
1, 2325648, Note_on_c, 0, 71, 106
1, 2327981, Note_off_c, 0, 71, 106
1, 2328302, Note_on_c, 0, 67, 105
1, 2330377, Note_off_c, 0, 67, 105
1, 2330714, Note_on_c, 0, 63, 97
1, 2332838, Note_off_c, 0, 63, 97
1, 2333047, Note_on_c, 0, 60, 91
1, 2334656, Note_off_c, 0, 60, 91
1, 2335324, Note_on_c, 0, 67, 109
1, 2337702, Note_off_c, 0, 67, 109
1, 2337934, Note_on_c, 0, 66, 118
1, 2340290, Note_off_c, 0, 66, 118
1, 2340444, Note_on_c, 0, 65, 117
1, 2342025, Note_off_c, 0, 65, 117
1, 2342190, Note_on_c, 0, 64, 110
1, 2344280, Note_off_c, 0, 64, 110
1, 2344600, Note_on_c, 0, 63, 109
1, 2347443, Note_off_c, 0, 63, 109
1, 2347664, Note_on_c, 0, 62, 102
1, 2349743, Note_off_c, 0, 62, 102
1, 2349931, Note_on_c, 0, 60, 108
1, 2352280, Note_off_c, 0, 60, 108
1, 2352444, Note_on_c, 0, 59, 104
1, 2353425, Note_off_c, 0, 59, 104
1, 2353811, Note_on_c, 0, 59, 101
1, 2355854, Note_off_c, 0, 59, 101
1, 2356014, Note_on_c, 0, 58, 87
1, 2356915, Note_off_c, 0, 58, 87
1, 2357295, Note_on_c, 0, 57, 97
1, 2359109, Note_off_c, 0, 57, 97
1, 2359562, Note_on_c, 0, 56, 101
1, 2361741, Note_off_c, 0, 56, 101
1, 2361995, Note_on_c, 0, 60, 102
1, 2363997, Note_off_c, 0, 60, 102
1, 2364218, Note_on_c, 0, 67, 115
1, 2366950, Note_off_c, 0, 67, 115
1, 2367454, Note_on_c, 0, 65, 120
1, 2371029, Note_off_c, 0, 65, 120
1, 2381817, Note_on_c, 0, 60, 113
1, 2385511, Note_off_c, 0, 60, 113
1, 2385986, Note_on_c, 0, 63, 110
1, 2387059, Note_off_c, 0, 63, 110
1, 2387280, Note_on_c, 0, 64, 112
1, 2388330, Note_off_c, 0, 64, 112
1, 2388720, Note_on_c, 0, 65, 112
1, 2393879, Note_off_c, 0, 65, 112
1, 2394127, Note_on_c, 0, 65, 116
1, 2414379, Note_off_c, 0, 65, 116
1, 2415238, Note_on_c, 0, 63, 108
1, 2419763, Note_off_c, 0, 63, 108
1, 2420102, Note_on_c, 0, 62, 109
1, 2422364, Note_off_c, 0, 62, 109
1, 2422680, Note_on_c, 0, 63, 110
1, 2425734, Note_off_c, 0, 63, 110
1, 2426005, Note_on_c, 0, 62, 107
1, 2427113, Note_off_c, 0, 62, 107
1, 2427226, Note_on_c, 0, 65, 107
1, 2430620, Note_off_c, 0, 65, 107
1, 2430868, Note_on_c, 0, 63, 98
1, 2445961, Note_off_c, 0, 63, 98
1, 2485870, Note_on_c, 0, 61, 112
1, 2487527, Note_off_c, 0, 61, 112
1, 2487639, Note_on_c, 0, 62, 112
1, 2490969, Note_off_c, 0, 62, 112
1, 2491644, Note_on_c, 0, 60, 112
1, 2495119, Note_off_c, 0, 60, 112
1, 2495633, Note_on_c, 0, 59, 96
1, 2497322, Note_off_c, 0, 59, 96
1, 2497595, Note_on_c, 0, 60, 103
1, 2498705, Note_off_c, 0, 60, 103
1, 2499107, Note_on_c, 0, 59, 101
1, 2501054, Note_off_c, 0, 59, 101
1, 2501295, Note_on_c, 0, 56, 106
1, 2505301, Note_off_c, 0, 56, 106
1, 2505301, End_track
0, 0, End_of_file
