0, 0, Header, 1, 1, 192
1, 0, Start_track
1, 0, Title_t, "Melody"
1, 0, Tempo, 270270
1, 0, Key_signature, 1, "major"
1, 0, Time_signature, 4, 2, 24, 8
1, 2269, Note_on_c, 0, 69, 112
1, 2316, Note_off_c, 0, 69, 112
1, 2330, Note_on_c, 0, 62, 109
1, 2441, Note_off_c, 0, 62, 109
1, 2475, Note_on_c, 0, 69, 96
1, 2515, Note_off_c, 0, 69, 96
1, 2522, Note_on_c, 0, 74, 122
1, 2640, Note_off_c, 0, 74, 122
1, 2644, Note_on_c, 0, 72, 114
1, 2706, Note_off_c, 0, 72, 114
1, 2710, Note_on_c, 0, 71, 104
1, 2815, Note_off_c, 0, 71, 104
1, 2823, Note_on_c, 0, 67, 105
1, 2912, Note_off_c, 0, 67, 105
1, 2925, Note_on_c, 0, 64, 95
1, 3020, Note_off_c, 0, 64, 95
1, 3034, Note_on_c, 0, 63, 116
1, 3123, Note_off_c, 0, 63, 116
1, 3133, Note_on_c, 0, 62, 93
1, 3408, Note_off_c, 0, 62, 93
1, 3424, Note_on_c, 0, 66, 103
1, 3483, Note_off_c, 0, 66, 103
1, 3485, Note_on_c, 0, 69, 113
1, 3585, Note_off_c, 0, 69, 113
1, 3803, Note_on_c, 0, 69, 102
1, 3864, Note_off_c, 0, 69, 102
1, 3869, Note_on_c, 0, 70, 100
1, 3983, Note_off_c, 0, 70, 100
1, 3985, Note_on_c, 0, 72, 95
1, 4025, Note_off_c, 0, 72, 95
1, 4029, Note_on_c, 0, 70, 100
1, 4073, Note_off_c, 0, 70, 100
1, 4076, Note_on_c, 0, 69, 101
1, 4173, Note_off_c, 0, 69, 101
1, 4187, Note_on_c, 0, 67, 93
1, 4250, Note_off_c, 0, 67, 93
1, 4254, Note_on_c, 0, 72, 106
1, 4371, Note_off_c, 0, 72, 106
1, 4403, Note_on_c, 0, 67, 90
1, 4782, Note_off_c, 0, 67, 90
1, 5422, Note_on_c, 0, 65, 114
1, 5547, Note_off_c, 0, 65, 114
1, 5651, Note_on_c, 0, 60, 96
1, 5715, Note_off_c, 0, 60, 96
1, 5757, Note_on_c, 0, 65, 88
1, 5791, Note_off_c, 0, 65, 88
1, 5824, Note_on_c, 0, 69, 112
1, 5928, Note_off_c, 0, 69, 112
1, 5938, Note_on_c, 0, 70, 103
1, 6049, Note_off_c, 0, 70, 103
1, 6052, Note_on_c, 0, 69, 105
1, 6111, Note_off_c, 0, 69, 105
1, 6118, Note_on_c, 0, 67, 113
1, 6191, Note_off_c, 0, 67, 113
1, 6198, Note_on_c, 0, 65, 113
1, 6299, Note_off_c, 0, 65, 113
1, 6333, Note_on_c, 0, 62, 110
1, 6405, Note_off_c, 0, 62, 110
1, 6409, Note_on_c, 0, 60, 92
1, 6490, Note_off_c, 0, 60, 92
1, 6504, Note_on_c, 0, 58, 93
1, 6564, Note_off_c, 0, 58, 93
1, 6576, Note_on_c, 0, 57, 100
1, 6680, Note_off_c, 0, 57, 100
1, 6709, Note_on_c, 0, 60, 89
1, 6755, Note_on_c, 0, 62, 110
1, 6755, Note_off_c, 0, 60, 89
1, 6865, Note_off_c, 0, 62, 110
1, 6867, Note_on_c, 0, 67, 107
1, 6911, Note_off_c, 0, 67, 107
1, 6921, Note_on_c, 0, 68, 106
1, 7121, Note_off_c, 0, 68, 106
1, 7132, Note_on_c, 0, 63, 101
1, 7230, Note_off_c, 0, 63, 101
1, 7234, Note_on_c, 0, 65, 98
1, 7318, Note_off_c, 0, 65, 98
1, 7322, Note_on_c, 0, 67, 112
1, 7440, Note_off_c, 0, 67, 112
1, 7445, Note_on_c, 0, 65, 101
1, 7759, Note_off_c, 0, 65, 101
1, 8549, Note_on_c, 0, 62, 108
1, 8611, Note_off_c, 0, 62, 108
1, 8619, Note_on_c, 0, 65, 107
1, 8672, Note_off_c, 0, 65, 107
1, 8687, Note_on_c, 0, 68, 96
1, 8758, Note_off_c, 0, 68, 96
1, 8773, Note_on_c, 0, 73, 91
1, 8812, Note_off_c, 0, 73, 91
1, 8827, Note_on_c, 0, 77, 116
1, 9018, Note_off_c, 0, 77, 116
1, 9018, Note_on_c, 0, 75, 117
1, 9136, Note_off_c, 0, 75, 117
1, 9147, Note_on_c, 0, 74, 110
1, 9400, Note_off_c, 0, 74, 110
1, 9420, Note_on_c, 0, 72, 108
1, 9463, Note_off_c, 0, 72, 108
1, 9465, Note_on_c, 0, 74, 117
1, 9496, Note_off_c, 0, 74, 117
1, 9496, Note_on_c, 0, 72, 121
1, 9561, Note_off_c, 0, 72, 121
1, 9561, Note_on_c, 0, 70, 108
1, 9614, Note_off_c, 0, 70, 108
1, 9617, Note_on_c, 0, 69, 112
1, 9711, Note_off_c, 0, 69, 112
1, 9716, Note_on_c, 0, 67, 110
1, 9800, Note_off_c, 0, 67, 110
1, 9802, Note_on_c, 0, 66, 114
1, 9879, Note_off_c, 0, 66, 114
1, 9893, Note_on_c, 0, 69, 106
1, 9966, Note_off_c, 0, 69, 106
1, 9974, Note_on_c, 0, 64, 98
1, 10105, Note_off_c, 0, 64, 98
1, 10136, Note_on_c, 0, 57, 99
1, 10177, Note_off_c, 0, 57, 99
1, 10188, Note_on_c, 0, 60, 95
1, 10286, Note_off_c, 0, 60, 95
1, 10298, Note_on_c, 0, 63, 110
1, 10382, Note_off_c, 0, 63, 110
1, 10394, Note_on_c, 0, 62, 110
1, 10471, Note_off_c, 0, 62, 110
1, 10492, Note_on_c, 0, 58, 95
1, 10560, Note_off_c, 0, 58, 95
1, 10578, Note_on_c, 0, 55, 91
1, 10657, Note_off_c, 0, 55, 91
1, 10681, Note_on_c, 0, 57, 88
1, 10716, Note_off_c, 0, 57, 88
1, 10757, Note_on_c, 0, 60, 113
1, 10838, Note_off_c, 0, 60, 113
1, 11054, Note_on_c, 0, 69, 99
1, 11131, Note_off_c, 0, 69, 99
1, 11145, Note_on_c, 0, 70, 110
1, 11230, Note_off_c, 0, 70, 110
1, 11250, Note_on_c, 0, 66, 113
1, 11315, Note_off_c, 0, 66, 113
1, 11320, Note_on_c, 0, 63, 92
1, 11399, Note_off_c, 0, 63, 92
1, 11420, Note_on_c, 0, 62, 109
1, 11505, Note_off_c, 0, 62, 109
1, 11505, Note_on_c, 0, 69, 116
1, 11609, Note_off_c, 0, 69, 116
1, 11629, Note_on_c, 0, 66, 83
1, 12003, Note_off_c, 0, 66, 83
1, 12447, Note_on_c, 0, 69, 117
1, 12577, Note_off_c, 0, 69, 117
1, 12578, Note_on_c, 0, 66, 100
1, 12637, Note_off_c, 0, 66, 100
1, 12643, Note_on_c, 0, 68, 114
1, 12759, Note_off_c, 0, 68, 114
1, 12760, Note_on_c, 0, 72, 119
1, 12825, Note_off_c, 0, 72, 119
1, 12829, Note_on_c, 0, 73, 123
1, 13025, Note_off_c, 0, 73, 123
1, 13033, Note_on_c, 0, 72, 119
1, 13134, Note_off_c, 0, 72, 119
1, 13139, Note_on_c, 0, 67, 115
1, 13220, Note_off_c, 0, 67, 115
1, 13230, Note_on_c, 0, 64, 100
1, 13341, Note_off_c, 0, 64, 100
1, 13420, Note_on_c, 0, 71, 117
1, 13540, Note_off_c, 0, 71, 117
1, 13544, Note_on_c, 0, 70, 109
1, 13638, Note_off_c, 0, 70, 109
1, 13640, Note_on_c, 0, 69, 114
1, 13725, Note_off_c, 0, 69, 114
1, 13737, Note_on_c, 0, 68, 116
1, 13802, Note_off_c, 0, 68, 116
1, 13809, Note_on_c, 0, 67, 114
1, 13888, Note_off_c, 0, 67, 114
1, 13917, Note_on_c, 0, 64, 106
1, 13957, Note_off_c, 0, 64, 106
1, 13958, Note_on_c, 0, 60, 105
1, 14006, Note_off_c, 0, 60, 105
1, 14011, Note_on_c, 0, 57, 99
1, 14096, Note_off_c, 0, 57, 99
1, 14118, Note_on_c, 0, 66, 111
1, 14173, Note_off_c, 0, 66, 111
1, 14179, Note_on_c, 0, 67, 107
1, 14248, Note_off_c, 0, 67, 107
1, 14271, Note_on_c, 0, 64, 110
1, 14306, Note_off_c, 0, 64, 110
1, 14312, Note_on_c, 0, 60, 106
1, 14347, Note_off_c, 0, 60, 106
1, 14348, Note_on_c, 0, 56, 94
1, 14442, Note_off_c, 0, 56, 94
1, 14455, Note_on_c, 0, 65, 119
1, 14520, Note_off_c, 0, 65, 119
1, 14523, Note_on_c, 0, 66, 105
1, 14598, Note_off_c, 0, 66, 105
1, 14628, Note_on_c, 0, 64, 107
1, 14661, Note_off_c, 0, 64, 107
1, 14668, Note_on_c, 0, 62, 109
1, 14694, Note_off_c, 0, 62, 109
1, 14706, Note_on_c, 0, 57, 104
1, 14795, Note_off_c, 0, 57, 104
1, 14827, Note_on_c, 0, 64, 107
1, 14985, Note_off_c, 0, 64, 107
1, 14989, Note_on_c, 0, 66, 109
1, 15151, Note_off_c, 0, 66, 109
1, 15165, Note_on_c, 0, 62, 102
1, 15198, Note_off_c, 0, 62, 102
1, 15201, Note_on_c, 0, 60, 104
1, 15230, Note_off_c, 0, 60, 104
1, 15233, Note_on_c, 0, 57, 101
1, 15362, Note_off_c, 0, 57, 101
1, 15362, Note_on_c, 0, 64, 107
1, 15480, Note_off_c, 0, 64, 107
1, 16003, Note_on_c, 0, 64, 121
1, 16055, Note_off_c, 0, 64, 121
1, 16061, Note_on_c, 0, 65, 117
1, 16147, Note_off_c, 0, 65, 117
1, 16158, Note_on_c, 0, 62, 107
1, 16202, Note_off_c, 0, 62, 107
1, 16203, Note_on_c, 0, 58, 93
1, 16235, Note_off_c, 0, 58, 93
1, 16238, Note_on_c, 0, 57, 107
1, 16304, Note_off_c, 0, 57, 107
1, 16319, Note_on_c, 0, 55, 99
1, 16363, Note_off_c, 0, 55, 99
1, 16369, Note_on_c, 0, 64, 112
1, 16502, Note_off_c, 0, 64, 112
1, 16514, Note_on_c, 0, 65, 113
1, 16643, Note_off_c, 0, 65, 113
1, 16678, Note_on_c, 0, 62, 112
1, 16725, Note_off_c, 0, 62, 112
1, 16737, Note_on_c, 0, 58, 94
1, 16777, Note_off_c, 0, 58, 94
1, 16782, Note_on_c, 0, 57, 105
1, 16819, Note_off_c, 0, 57, 105
1, 16834, Note_on_c, 0, 55, 104
1, 16882, Note_off_c, 0, 55, 104
1, 16905, Note_on_c, 0, 64, 93
1, 17148, Note_off_c, 0, 64, 93
1, 17694, Note_on_c, 0, 64, 108
1, 17767, Note_off_c, 0, 64, 108
1, 17778, Note_on_c, 0, 65, 98
1, 17849, Note_off_c, 0, 65, 98
1, 17891, Note_on_c, 0, 73, 80
1, 17946, Note_off_c, 0, 73, 80
1, 17964, Note_on_c, 0, 76, 119
1, 18068, Note_off_c, 0, 76, 119
1, 18074, Note_on_c, 0, 75, 117
1, 18138, Note_off_c, 0, 75, 117
1, 18144, Note_on_c, 0, 74, 121
1, 18278, Note_off_c, 0, 74, 121
1, 18285, Note_on_c, 0, 73, 119
1, 18342, Note_off_c, 0, 73, 119
1, 18344, Note_on_c, 0, 72, 123
1, 18467, Note_off_c, 0, 72, 123
1, 18494, Note_on_c, 0, 69, 92
1, 18526, Note_off_c, 0, 69, 92
1, 18552, Note_on_c, 0, 70, 118
1, 18650, Note_off_c, 0, 70, 118
1, 18654, Note_on_c, 0, 72, 114
1, 18697, Note_off_c, 0, 72, 114
1, 18698, Note_on_c, 0, 70, 118
1, 18751, Note_off_c, 0, 70, 118
1, 18754, Note_on_c, 0, 69, 121
1, 18846, Note_off_c, 0, 69, 121
1, 18862, Note_on_c, 0, 65, 120
1, 18940, Note_off_c, 0, 65, 120
1, 18942, Note_on_c, 0, 62, 110
1, 19031, Note_off_c, 0, 62, 110
1, 19048, Note_on_c, 0, 60, 97
1, 19129, Note_off_c, 0, 60, 97
1, 19129, Note_on_c, 0, 72, 118
1, 19266, Note_off_c, 0, 72, 118
1, 19331, Note_on_c, 0, 67, 119
1, 19445, Note_off_c, 0, 67, 119
1, 19459, Note_on_c, 0, 68, 96
1, 19772, Note_off_c, 0, 68, 96
1, 20199, Note_on_c, 0, 63, 111
1, 20253, Note_off_c, 0, 63, 111
1, 20264, Note_on_c, 0, 66, 105
1, 20339, Note_off_c, 0, 66, 105
1, 20344, Note_on_c, 0, 67, 104
1, 20412, Note_off_c, 0, 67, 104
1, 20416, Note_on_c, 0, 74, 88
1, 20469, Note_off_c, 0, 74, 88
1, 20471, Note_on_c, 0, 75, 126
1, 20594, Note_off_c, 0, 75, 126
1, 20594, Note_on_c, 0, 72, 124
1, 20688, Note_off_c, 0, 72, 124
1, 20695, Note_on_c, 0, 73, 124
1, 20855, Note_off_c, 0, 73, 124
1, 20857, Note_on_c, 0, 70, 110
1, 20970, Note_off_c, 0, 70, 110
1, 20970, Note_on_c, 0, 72, 120
1, 21052, Note_off_c, 0, 72, 120
1, 21053, Note_on_c, 0, 70, 119
1, 21150, Note_off_c, 0, 70, 119
1, 21157, Note_on_c, 0, 68, 121
1, 21239, Note_off_c, 0, 68, 121
1, 21245, Note_on_c, 0, 67, 120
1, 21338, Note_off_c, 0, 67, 120
1, 21572, Note_on_c, 0, 70, 121
1, 21637, Note_off_c, 0, 70, 121
1, 21640, Note_on_c, 0, 69, 110
1, 21696, Note_off_c, 0, 69, 110
1, 21699, Note_on_c, 0, 70, 101
1, 21745, Note_off_c, 0, 70, 101
1, 21747, Note_on_c, 0, 69, 110
1, 21773, Note_off_c, 0, 69, 110
1, 21775, Note_on_c, 0, 67, 114
1, 21833, Note_off_c, 0, 67, 114
1, 21842, Note_on_c, 0, 66, 119
1, 21942, Note_off_c, 0, 66, 119
1, 21948, Note_on_c, 0, 69, 109
1, 22016, Note_off_c, 0, 69, 109
1, 22023, Note_on_c, 0, 64, 103
1, 22134, Note_off_c, 0, 64, 103
1, 22145, Note_on_c, 0, 62, 111
1, 22207, Note_off_c, 0, 62, 111
1, 22215, Note_on_c, 0, 60, 96
1, 22315, Note_off_c, 0, 60, 96
1, 22339, Note_on_c, 0, 63, 108
1, 22428, Note_off_c, 0, 63, 108
1, 22429, Note_on_c, 0, 62, 107
1, 22537, Note_off_c, 0, 62, 107
1, 22542, Note_on_c, 0, 60, 108
1, 22602, Note_off_c, 0, 60, 108
1, 22616, Note_on_c, 0, 59, 96
1, 22762, Note_off_c, 0, 59, 96
1, 23686, Note_on_c, 0, 76, 113
1, 23748, Note_off_c, 0, 76, 113
1, 23751, Note_on_c, 0, 77, 120
1, 23846, Note_off_c, 0, 77, 120
1, 23896, Note_on_c, 0, 69, 117
1, 23978, Note_off_c, 0, 69, 117
1, 23979, Note_on_c, 0, 67, 95
1, 24079, Note_off_c, 0, 67, 95
1, 24092, Note_on_c, 0, 68, 107
1, 24135, Note_off_c, 0, 68, 107
1, 24161, Note_on_c, 0, 76, 127
1, 24259, Note_off_c, 0, 76, 127
1, 24266, Note_on_c, 0, 75, 125
1, 24339, Note_off_c, 0, 75, 125
1, 24344, Note_on_c, 0, 74, 121
1, 24464, Note_off_c, 0, 74, 121
1, 24488, Note_on_c, 0, 72, 121
1, 24632, Note_on_c, 0, 67, 114
1, 24632, Note_off_c, 0, 72, 121
1, 24703, Note_off_c, 0, 67, 114
1, 24707, Note_on_c, 0, 64, 110
1, 24786, Note_off_c, 0, 64, 110
1, 24787, Note_on_c, 0, 60, 102
1, 24827, Note_off_c, 0, 60, 102
1, 24845, Note_on_c, 0, 63, 93
1, 25150, Note_off_c, 0, 63, 93
1, 25203, Note_on_c, 0, 74, 124
1, 25259, Note_off_c, 0, 74, 124
1, 25263, Note_on_c, 0, 72, 124
1, 25319, Note_off_c, 0, 72, 124
1, 25325, Note_on_c, 0, 71, 117
1, 25396, Note_off_c, 0, 71, 117
1, 25403, Note_on_c, 0, 69, 126
1, 25478, Note_off_c, 0, 69, 126
1, 25485, Note_on_c, 0, 68, 119
1, 25561, Note_off_c, 0, 68, 119
1, 25620, Note_on_c, 0, 59, 100
1, 25682, Note_off_c, 0, 59, 100
1, 25689, Note_on_c, 0, 62, 104
1, 25774, Note_off_c, 0, 62, 104
1, 25779, Note_on_c, 0, 65, 113
1, 25863, Note_off_c, 0, 65, 113
1, 25870, Note_on_c, 0, 64, 103
1, 25971, Note_off_c, 0, 64, 103
1, 25997, Note_on_c, 0, 63, 111
1, 26057, Note_off_c, 0, 63, 111
1, 26065, Note_on_c, 0, 62, 114
1, 26166, Note_off_c, 0, 62, 114
1, 26188, Note_on_c, 0, 59, 96
1, 26245, Note_off_c, 0, 59, 96
1, 26245, Note_on_c, 0, 60, 97
1, 26291, Note_off_c, 0, 60, 97
1, 26311, Note_on_c, 0, 64, 98
1, 26354, Note_off_c, 0, 64, 98
1, 26364, Note_on_c, 0, 67, 99
1, 26414, Note_off_c, 0, 67, 99
1, 26416, Note_on_c, 0, 69, 117
1, 26449, Note_off_c, 0, 69, 117
1, 26452, Note_on_c, 0, 68, 111
1, 26487, Note_off_c, 0, 68, 111
1, 26493, Note_on_c, 0, 71, 111
1, 26604, Note_off_c, 0, 71, 111
1, 26606, Note_on_c, 0, 74, 120
1, 26727, Note_off_c, 0, 74, 120
1, 26751, Note_on_c, 0, 64, 102
1, 27004, Note_off_c, 0, 64, 102
1, 27004, End_track
0, 0, End_of_file
