0, 0, Header, 1, 1, 192
1, 0, Start_track
1, 0, Title_t, "Melody"
1, 0, Tempo, 342857
1, 0, Key_signature, -2, "major"
1, 0, Time_signature, 4, 2, 24, 8
1, 1815, Note_on_c, 0, 60, 106
1, 1870, Note_off_c, 0, 60, 106
1, 1873, Note_on_c, 0, 58, 100
1, 1908, Note_on_c, 0, 57, 106
1, 1908, Note_off_c, 0, 58, 100
1, 2002, Note_off_c, 0, 57, 106
1, 2011, Note_on_c, 0, 58, 90
1, 2059, Note_off_c, 0, 58, 90
1, 2072, Note_on_c, 0, 60, 117
1, 2189, Note_off_c, 0, 60, 117
1, 2194, Note_on_c, 0, 58, 100
1, 2261, Note_off_c, 0, 58, 100
1, 2265, Note_on_c, 0, 57, 109
1, 2366, Note_off_c, 0, 57, 109
1, 2379, Note_on_c, 0, 58, 95
1, 2432, Note_off_c, 0, 58, 95
1, 2435, Note_on_c, 0, 62, 117
1, 2559, Note_off_c, 0, 62, 117
1, 2567, Note_on_c, 0, 63, 120
1, 2662, Note_off_c, 0, 63, 120
1, 2675, Note_on_c, 0, 62, 100
1, 2743, Note_off_c, 0, 62, 100
1, 2764, Note_on_c, 0, 58, 80
1, 2806, Note_off_c, 0, 58, 80
1, 2808, Note_on_c, 0, 60, 119
1, 2946, Note_off_c, 0, 60, 119
1, 2948, Note_on_c, 0, 57, 103
1, 3016, Note_off_c, 0, 57, 103
1, 3022, Note_on_c, 0, 58, 98
1, 3065, Note_off_c, 0, 58, 98
1, 3074, Note_on_c, 0, 61, 107
1, 3115, Note_off_c, 0, 61, 107
1, 3124, Note_on_c, 0, 65, 118
1, 3206, Note_off_c, 0, 65, 118
1, 3213, Note_on_c, 0, 69, 123
1, 3239, Note_off_c, 0, 69, 123
1, 3241, Note_on_c, 0, 70, 113
1, 3334, Note_off_c, 0, 70, 113
1, 3342, Note_on_c, 0, 65, 101
1, 3682, Note_off_c, 0, 65, 101
1, 4130, Note_on_c, 0, 69, 117
1, 4195, Note_off_c, 0, 69, 117
1, 4198, Note_on_c, 0, 67, 116
1, 4238, Note_off_c, 0, 67, 116
1, 4240, Note_on_c, 0, 66, 119
1, 4289, Note_off_c, 0, 66, 119
1, 4290, Note_on_c, 0, 67, 117
1, 4327, Note_off_c, 0, 67, 117
1, 4329, Note_on_c, 0, 70, 117
1, 4359, Note_off_c, 0, 70, 117
1, 4360, Note_on_c, 0, 67, 118
1, 4407, Note_off_c, 0, 67, 118
1, 4409, Note_on_c, 0, 63, 117
1, 4462, Note_off_c, 0, 63, 117
1, 4463, Note_on_c, 0, 62, 114
1, 4531, Note_off_c, 0, 62, 114
1, 4534, Note_on_c, 0, 60, 110
1, 4577, Note_off_c, 0, 60, 110
1, 4587, Note_on_c, 0, 57, 101
1, 4654, Note_off_c, 0, 57, 101
1, 4654, Note_on_c, 0, 60, 109
1, 4696, Note_off_c, 0, 60, 109
1, 4699, Note_on_c, 0, 63, 116
1, 4740, Note_off_c, 0, 63, 116
1, 4741, Note_on_c, 0, 66, 120
1, 4810, Note_off_c, 0, 66, 120
1, 4814, Note_on_c, 0, 63, 111
1, 4864, Note_off_c, 0, 63, 111
1, 4865, Note_on_c, 0, 60, 108
1, 4895, Note_off_c, 0, 60, 108
1, 4895, Note_on_c, 0, 65, 115
1, 4977, Note_off_c, 0, 65, 115
1, 5169, Note_on_c, 0, 68, 122
1, 5226, Note_off_c, 0, 68, 122
1, 5226, Note_on_c, 0, 67, 118
1, 5273, Note_off_c, 0, 67, 118
1, 5274, Note_on_c, 0, 65, 123
1, 5328, Note_off_c, 0, 65, 123
1, 5330, Note_on_c, 0, 63, 120
1, 5393, Note_off_c, 0, 63, 120
1, 5395, Note_on_c, 0, 62, 116
1, 5424, Note_off_c, 0, 62, 116
1, 5427, Note_on_c, 0, 60, 113
1, 5458, Note_off_c, 0, 60, 113
1, 5464, Note_on_c, 0, 58, 100
1, 5500, Note_off_c, 0, 58, 100
1, 5502, Note_on_c, 0, 57, 112
1, 5544, Note_off_c, 0, 57, 112
1, 5546, Note_on_c, 0, 56, 108
1, 5598, Note_off_c, 0, 56, 108
1, 5600, Note_on_c, 0, 60, 106
1, 5657, Note_off_c, 0, 60, 106
1, 5658, Note_on_c, 0, 55, 114
1, 5734, Note_off_c, 0, 55, 114
1, 5918, Note_on_c, 0, 74, 118
1, 5987, Note_off_c, 0, 74, 118
1, 5989, Note_on_c, 0, 72, 124
1, 6032, Note_off_c, 0, 72, 124
1, 6034, Note_on_c, 0, 70, 122
1, 6065, Note_off_c, 0, 70, 122
1, 6068, Note_on_c, 0, 66, 121
1, 6125, Note_off_c, 0, 66, 121
1, 6126, Note_on_c, 0, 63, 120
1, 6175, Note_off_c, 0, 63, 120
1, 6177, Note_on_c, 0, 60, 115
1, 6205, Note_off_c, 0, 60, 115
1, 6206, Note_on_c, 0, 62, 117
1, 6294, Note_off_c, 0, 62, 117
1, 6461, Note_on_c, 0, 57, 117
1, 6529, Note_off_c, 0, 57, 117
1, 6531, Note_on_c, 0, 58, 106
1, 6566, Note_off_c, 0, 58, 106
1, 6567, Note_on_c, 0, 60, 115
1, 6651, Note_off_c, 0, 60, 115
1, 6652, Note_on_c, 0, 58, 102
1, 6680, Note_off_c, 0, 58, 102
1, 6680, Note_on_c, 0, 57, 112
1, 6720, Note_off_c, 0, 57, 112
1, 6721, Note_on_c, 0, 58, 102
1, 6749, Note_off_c, 0, 58, 102
1, 6753, Note_on_c, 0, 62, 116
1, 6805, Note_off_c, 0, 62, 116
1, 6806, Note_on_c, 0, 65, 114
1, 6858, Note_off_c, 0, 65, 114
1, 6858, Note_on_c, 0, 67, 113
1, 6931, Note_off_c, 0, 67, 113
1, 6935, Note_on_c, 0, 72, 119
1, 7009, Note_off_c, 0, 72, 119
1, 7012, Note_on_c, 0, 69, 118
1, 7082, Note_off_c, 0, 69, 118
1, 7092, Note_on_c, 0, 72, 88
1, 7117, Note_off_c, 0, 72, 88
1, 7124, Note_on_c, 0, 74, 124
1, 7195, Note_off_c, 0, 74, 124
1, 7201, Note_on_c, 0, 77, 122
1, 7283, Note_off_c, 0, 77, 122
1, 7814, Note_on_c, 0, 66, 115
1, 7913, Note_off_c, 0, 66, 115
1, 7915, Note_on_c, 0, 67, 105
1, 7989, Note_off_c, 0, 67, 105
1, 7994, Note_on_c, 0, 75, 101
1, 8080, Note_off_c, 0, 75, 101
1, 8080, Note_on_c, 0, 77, 121
1, 8186, Note_off_c, 0, 77, 121
1, 8193, Note_on_c, 0, 75, 122
1, 8294, Note_off_c, 0, 75, 122
1, 8297, Note_on_c, 0, 74, 123
1, 8373, Note_off_c, 0, 74, 123
1, 8376, Note_on_c, 0, 72, 121
1, 8482, Note_off_c, 0, 72, 121
1, 8486, Note_on_c, 0, 70, 106
1, 8584, Note_off_c, 0, 70, 106
1, 8586, Note_on_c, 0, 72, 96
1, 8622, Note_off_c, 0, 72, 96
1, 8625, Note_on_c, 0, 70, 114
1, 8673, Note_off_c, 0, 70, 114
1, 8673, Note_on_c, 0, 69, 119
1, 8779, Note_off_c, 0, 69, 119
1, 8795, Note_on_c, 0, 70, 86
1, 8826, Note_off_c, 0, 70, 86
1, 8827, Note_on_c, 0, 72, 123
1, 8968, Note_off_c, 0, 72, 123
1, 8969, Note_on_c, 0, 70, 109
1, 9036, Note_off_c, 0, 70, 109
1, 9042, Note_on_c, 0, 67, 114
1, 9151, Note_off_c, 0, 67, 114
1, 9155, Note_on_c, 0, 65, 119
1, 9402, Note_off_c, 0, 65, 119
1, 9523, Note_on_c, 0, 62, 111
1, 9602, Note_off_c, 0, 62, 111
1, 9611, Note_on_c, 0, 69, 110
1, 9648, Note_off_c, 0, 69, 110
1, 9648, Note_on_c, 0, 70, 109
1, 9687, Note_off_c, 0, 70, 109
1, 9687, Note_on_c, 0, 69, 116
1, 9728, Note_off_c, 0, 69, 116
1, 9731, Note_on_c, 0, 65, 120
1, 9800, Note_off_c, 0, 65, 120
1, 9808, Note_on_c, 0, 62, 115
1, 9914, Note_off_c, 0, 62, 115
1, 9918, Note_on_c, 0, 57, 112
1, 9996, Note_off_c, 0, 57, 112
1, 10000, Note_on_c, 0, 56, 110
1, 10104, Note_off_c, 0, 56, 110
1, 10107, Note_on_c, 0, 64, 122
1, 10195, Note_off_c, 0, 64, 122
1, 10196, Note_on_c, 0, 63, 120
1, 10303, Note_off_c, 0, 63, 120
1, 10317, Note_on_c, 0, 55, 100
1, 10387, Note_off_c, 0, 55, 100
1, 10390, Note_on_c, 0, 57, 93
1, 10482, Note_off_c, 0, 57, 93
1, 10484, Note_on_c, 0, 62, 119
1, 10576, Note_off_c, 0, 62, 119
1, 10580, Note_on_c, 0, 60, 113
1, 10681, Note_off_c, 0, 60, 113
1, 10693, Note_on_c, 0, 58, 100
1, 10791, Note_off_c, 0, 58, 100
1, 10798, Note_on_c, 0, 60, 108
1, 10841, Note_off_c, 0, 60, 108
1, 10842, Note_on_c, 0, 63, 117
1, 10874, Note_off_c, 0, 63, 117
1, 10877, Note_on_c, 0, 66, 122
1, 10952, Note_off_c, 0, 66, 122
1, 10953, Note_on_c, 0, 65, 124
1, 11066, Note_off_c, 0, 65, 124
1, 11070, Note_on_c, 0, 63, 116
1, 11158, Note_off_c, 0, 63, 116
1, 11165, Note_on_c, 0, 62, 109
1, 11262, Note_off_c, 0, 62, 109
1, 11265, Note_on_c, 0, 60, 112
1, 11336, Note_off_c, 0, 60, 112
1, 11337, Note_on_c, 0, 58, 103
1, 11430, Note_off_c, 0, 58, 103
1, 11434, Note_on_c, 0, 56, 120
1, 11504, Note_off_c, 0, 56, 120
1, 11516, Note_on_c, 0, 55, 111
1, 11680, Note_off_c, 0, 55, 111
1, 12277, Note_on_c, 0, 66, 124
1, 12395, Note_off_c, 0, 66, 124
1, 12442, Note_on_c, 0, 72, 126
1, 12591, Note_off_c, 0, 72, 126
1, 12595, Note_on_c, 0, 70, 114
1, 12858, Note_off_c, 0, 70, 114
1, 12872, Note_on_c, 0, 65, 115
1, 12990, Note_off_c, 0, 65, 115
1, 12999, Note_on_c, 0, 70, 100
1, 13036, Note_off_c, 0, 70, 100
1, 13042, Note_on_c, 0, 72, 126
1, 13186, Note_off_c, 0, 72, 126
1, 13186, Note_on_c, 0, 70, 115
1, 13416, Note_off_c, 0, 70, 115
1, 14131, Note_on_c, 0, 62, 112
1, 14202, Note_off_c, 0, 62, 112
1, 14208, Note_on_c, 0, 66, 109
1, 14267, Note_off_c, 0, 66, 109
1, 14270, Note_on_c, 0, 69, 109
1, 14315, Note_off_c, 0, 69, 109
1, 14316, Note_on_c, 0, 74, 111
1, 14385, Note_off_c, 0, 74, 111
1, 14385, Note_on_c, 0, 75, 122
1, 14530, Note_off_c, 0, 75, 122
1, 14534, Note_on_c, 0, 72, 118
1, 14730, Note_off_c, 0, 72, 118
1, 14788, Note_on_c, 0, 70, 119
1, 14887, Note_off_c, 0, 70, 119
1, 14889, Note_on_c, 0, 72, 112
1, 14936, Note_off_c, 0, 72, 112
1, 14936, Note_on_c, 0, 70, 118
1, 14977, Note_off_c, 0, 70, 118
1, 14978, Note_on_c, 0, 68, 120
1, 15079, Note_off_c, 0, 68, 120
1, 15085, Note_on_c, 0, 66, 121
1, 15165, Note_off_c, 0, 66, 121
1, 15169, Note_on_c, 0, 63, 113
1, 15298, Note_off_c, 0, 63, 113
1, 15304, Note_on_c, 0, 60, 111
1, 15349, Note_off_c, 0, 60, 111
1, 15352, Note_on_c, 0, 69, 118
1, 15472, Note_off_c, 0, 69, 118
1, 15491, Note_on_c, 0, 62, 104
1, 15548, Note_on_c, 0, 64, 119
1, 15548, Note_off_c, 0, 62, 104
1, 15660, Note_off_c, 0, 64, 119
1, 15663, Note_on_c, 0, 65, 96
1, 15932, Note_off_c, 0, 65, 96
1, 16244, Note_on_c, 0, 58, 109
1, 16283, Note_off_c, 0, 58, 109
1, 16293, Note_on_c, 0, 59, 109
1, 16361, Note_off_c, 0, 59, 109
1, 16361, Note_on_c, 0, 63, 113
1, 16420, Note_off_c, 0, 63, 113
1, 16426, Note_on_c, 0, 65, 115
1, 16484, Note_off_c, 0, 65, 115
1, 16492, Note_on_c, 0, 70, 118
1, 16556, Note_off_c, 0, 70, 118
1, 16560, Note_on_c, 0, 68, 116
1, 16659, Note_off_c, 0, 68, 116
1, 17186, Note_on_c, 0, 62, 114
1, 17256, Note_off_c, 0, 62, 114
1, 17264, Note_on_c, 0, 66, 109
1, 17310, Note_off_c, 0, 66, 109
1, 17311, Note_on_c, 0, 67, 107
1, 17378, Note_off_c, 0, 67, 107
1, 17381, Note_on_c, 0, 70, 95
1, 17402, Note_off_c, 0, 70, 95
1, 17405, Note_on_c, 0, 75, 99
1, 17439, Note_off_c, 0, 75, 99
1, 17440, Note_on_c, 0, 77, 119
1, 17518, Note_off_c, 0, 77, 119
1, 17520, Note_on_c, 0, 75, 116
1, 17560, Note_off_c, 0, 75, 116
1, 17560, Note_on_c, 0, 76, 122
1, 17650, Note_off_c, 0, 76, 122
1, 17651, Note_on_c, 0, 72, 122
1, 17682, Note_off_c, 0, 72, 122
1, 17683, Note_on_c, 0, 73, 118
1, 17731, Note_off_c, 0, 73, 118
1, 17731, Note_on_c, 0, 74, 119
1, 17780, Note_off_c, 0, 74, 119
1, 17786, Note_on_c, 0, 72, 122
1, 17816, Note_off_c, 0, 72, 122
1, 17818, Note_on_c, 0, 70, 119
1, 17864, Note_off_c, 0, 70, 119
1, 17866, Note_on_c, 0, 69, 117
1, 17912, Note_off_c, 0, 69, 117
1, 17912, Note_on_c, 0, 67, 116
1, 17947, Note_off_c, 0, 67, 116
1, 17951, Note_on_c, 0, 65, 123
1, 18007, Note_off_c, 0, 65, 123
1, 18009, Note_on_c, 0, 64, 119
1, 18052, Note_off_c, 0, 64, 119
1, 18053, Note_on_c, 0, 67, 108
1, 18100, Note_off_c, 0, 67, 108
1, 18103, Note_on_c, 0, 70, 114
1, 18143, Note_off_c, 0, 70, 114
1, 18144, Note_on_c, 0, 74, 118
1, 18184, Note_off_c, 0, 74, 118
1, 18186, Note_on_c, 0, 69, 113
1, 18274, Note_off_c, 0, 69, 113
1, 18469, Note_on_c, 0, 72, 118
1, 18528, Note_off_c, 0, 72, 118
1, 18532, Note_on_c, 0, 71, 122
1, 18577, Note_off_c, 0, 71, 122
1, 18578, Note_on_c, 0, 70, 121
1, 18686, Note_off_c, 0, 70, 121
1, 18857, Note_on_c, 0, 69, 119
1, 18939, Note_off_c, 0, 69, 119
1, 18940, Note_on_c, 0, 67, 111
1, 18980, Note_off_c, 0, 67, 111
1, 18982, Note_on_c, 0, 69, 112
1, 19017, Note_off_c, 0, 69, 112
1, 19017, Note_on_c, 0, 67, 114
1, 19064, Note_on_c, 0, 65, 113
1, 19064, Note_off_c, 0, 67, 114
1, 19124, Note_off_c, 0, 65, 113
1, 19126, Note_on_c, 0, 63, 115
1, 19240, Note_off_c, 0, 63, 115
1, 19265, Note_on_c, 0, 55, 101
1, 19312, Note_off_c, 0, 55, 101
1, 19314, Note_on_c, 0, 58, 94
1, 19413, Note_off_c, 0, 58, 94
1, 19455, Note_on_c, 0, 62, 118
1, 19509, Note_off_c, 0, 62, 118
1, 19516, Note_on_c, 0, 60, 114
1, 19620, Note_off_c, 0, 60, 114
1, 19626, Note_on_c, 0, 58, 110
1, 19694, Note_off_c, 0, 58, 110
1, 19696, Note_on_c, 0, 57, 107
1, 19744, Note_off_c, 0, 57, 107
1, 19744, Note_on_c, 0, 60, 110
1, 19776, Note_off_c, 0, 60, 110
1, 19780, Note_on_c, 0, 63, 114
1, 19814, Note_off_c, 0, 63, 114
1, 19814, Note_on_c, 0, 66, 120
1, 19893, Note_off_c, 0, 66, 120
1, 19915, Note_on_c, 0, 65, 122
1, 20017, Note_off_c, 0, 65, 122
1, 20255, Note_on_c, 0, 58, 100
1, 20283, Note_off_c, 0, 58, 100
1, 20285, Note_on_c, 0, 60, 109
1, 20577, Note_off_c, 0, 60, 109
1, 20640, Note_on_c, 0, 58, 95
1, 20675, Note_off_c, 0, 58, 95
1, 20676, Note_on_c, 0, 62, 122
1, 20817, Note_off_c, 0, 62, 122
1, 20847, Note_on_c, 0, 60, 93
1, 20882, Note_off_c, 0, 60, 93
1, 20888, Note_on_c, 0, 63, 96
1, 21217, Note_off_c, 0, 63, 96
1, 21355, Note_on_c, 0, 67, 118
1, 21428, Note_off_c, 0, 67, 118
1, 21430, Note_on_c, 0, 65, 122
1, 21551, Note_off_c, 0, 65, 122
1, 21554, Note_on_c, 0, 62, 116
1, 21630, Note_off_c, 0, 62, 116
1, 21639, Note_on_c, 0, 58, 100
1, 21680, Note_on_c, 0, 60, 99
1, 21680, Note_off_c, 0, 58, 100
1, 21722, Note_off_c, 0, 60, 99
1, 21722, Note_on_c, 0, 58, 106
1, 21754, Note_off_c, 0, 58, 106
1, 21758, Note_on_c, 0, 55, 111
1, 21820, Note_off_c, 0, 55, 111
1, 21824, Note_on_c, 0, 60, 99
1, 22169, Note_off_c, 0, 60, 99
1, 23080, Note_on_c, 0, 65, 116
1, 23148, Note_off_c, 0, 65, 116
1, 23156, Note_on_c, 0, 68, 117
1, 23236, Note_off_c, 0, 68, 117
1, 23243, Note_on_c, 0, 73, 104
1, 23291, Note_off_c, 0, 73, 104
1, 23292, Note_on_c, 0, 75, 122
1, 23345, Note_off_c, 0, 75, 122
1, 23365, Note_on_c, 0, 79, 123
1, 23468, Note_off_c, 0, 79, 123
1, 23469, Note_on_c, 0, 78, 127
1, 23543, Note_off_c, 0, 78, 127
1, 23550, Note_on_c, 0, 77, 122
1, 23650, Note_off_c, 0, 77, 122
1, 23650, Note_on_c, 0, 76, 120
1, 23757, Note_off_c, 0, 76, 120
1, 23761, Note_on_c, 0, 75, 120
1, 23909, Note_off_c, 0, 75, 120
1, 23921, Note_on_c, 0, 72, 118
1, 24058, Note_off_c, 0, 72, 118
1, 24062, Note_on_c, 0, 73, 116
1, 24327, Note_off_c, 0, 73, 116
1, 24438, Note_on_c, 0, 74, 125
1, 24541, Note_off_c, 0, 74, 125
1, 24548, Note_on_c, 0, 75, 115
1, 24641, Note_off_c, 0, 75, 115
1, 24643, Note_on_c, 0, 74, 119
1, 24722, Note_off_c, 0, 74, 119
1, 24734, Note_on_c, 0, 70, 96
1, 24762, Note_off_c, 0, 70, 96
1, 24769, Note_on_c, 0, 72, 86
1, 24797, Note_off_c, 0, 72, 86
1, 24803, Note_on_c, 0, 70, 107
1, 24832, Note_off_c, 0, 70, 107
1, 24834, Note_on_c, 0, 65, 109
1, 24903, Note_off_c, 0, 65, 109
1, 24920, Note_on_c, 0, 69, 121
1, 25017, Note_off_c, 0, 69, 121
1, 25018, Note_on_c, 0, 70, 106
1, 25063, Note_off_c, 0, 70, 106
1, 25066, Note_on_c, 0, 71, 109
1, 25114, Note_off_c, 0, 71, 109
1, 25118, Note_on_c, 0, 72, 122
1, 25225, Note_off_c, 0, 72, 122
1, 25232, Note_on_c, 0, 69, 101
1, 25292, Note_off_c, 0, 69, 101
1, 25300, Note_on_c, 0, 70, 109
1, 25398, Note_off_c, 0, 70, 109
1, 25398, Note_on_c, 0, 72, 103
1, 25444, Note_off_c, 0, 72, 103
1, 25446, Note_on_c, 0, 70, 101
1, 25514, Note_off_c, 0, 70, 101
1, 25517, Note_on_c, 0, 69, 112
1, 25589, Note_off_c, 0, 69, 112
1, 25589, Note_on_c, 0, 67, 110
1, 25673, Note_off_c, 0, 67, 110
1, 25673, Note_on_c, 0, 65, 113
1, 25781, Note_off_c, 0, 65, 113
1, 25787, Note_on_c, 0, 63, 113
1, 25823, Note_off_c, 0, 63, 113
1, 25830, Note_on_c, 0, 62, 95
1, 25962, Note_off_c, 0, 62, 95
1, 25966, Note_on_c, 0, 60, 99
1, 26042, Note_off_c, 0, 60, 99
1, 26046, Note_on_c, 0, 62, 99
1, 26141, Note_off_c, 0, 62, 99
1, 26145, Note_on_c, 0, 60, 107
1, 26226, Note_off_c, 0, 60, 107
1, 26233, Note_on_c, 0, 55, 105
1, 26523, Note_off_c, 0, 55, 105
1, 26523, End_track
0, 0, End_of_file
