0, 0, Header, 1, 1, 840
1, 0, Start_track
1, 0, Title_t, "Melody"
1, 0, Tempo, 447761
1, 0, Key_signature, -3, "major"
1, 0, Time_signature, 4, 2, 24, 8
1, 79827, Note_on_c, 0, 70, 112
1, 80129, Note_off_c, 0, 70, 112
1, 80270, Note_on_c, 0, 72, 118
1, 80534, Note_off_c, 0, 72, 118
1, 80755, Note_on_c, 0, 74, 121
1, 81070, Note_off_c, 0, 74, 121
1, 81136, Note_on_c, 0, 72, 110
1, 81503, Note_off_c, 0, 72, 110
1, 81522, Note_on_c, 0, 74, 107
1, 81693, Note_off_c, 0, 74, 107
1, 81701, Note_on_c, 0, 72, 107
1, 81867, Note_off_c, 0, 72, 107
1, 81877, Note_on_c, 0, 70, 110
1, 82293, Note_off_c, 0, 70, 110
1, 82303, Note_on_c, 0, 67, 119
1, 82722, Note_off_c, 0, 67, 119
1, 82732, Note_on_c, 0, 65, 102
1, 83601, Note_off_c, 0, 65, 102
1, 83625, Note_on_c, 0, 63, 94
1, 84102, Note_off_c, 0, 63, 94
1, 84110, Note_on_c, 0, 60, 90
1, 84303, Note_off_c, 0, 60, 90
1, 84376, Note_on_c, 0, 65, 106
1, 84518, Note_on_c, 0, 67, 107
1, 84518, Note_off_c, 0, 65, 106
1, 85242, Note_off_c, 0, 67, 107
1, 85246, Note_on_c, 0, 63, 101
1, 85705, Note_off_c, 0, 63, 101
1, 85757, Note_on_c, 0, 60, 90
1, 86031, Note_off_c, 0, 60, 90
1, 86045, Note_on_c, 0, 63, 102
1, 86633, Note_off_c, 0, 63, 102
1, 86648, Note_on_c, 0, 58, 81
1, 87646, Note_off_c, 0, 58, 81
1, 91128, Note_on_c, 0, 72, 113
1, 91299, Note_off_c, 0, 72, 113
1, 91307, Note_on_c, 0, 73, 122
1, 91464, Note_off_c, 0, 73, 122
1, 91472, Note_on_c, 0, 72, 118
1, 91597, Note_off_c, 0, 72, 118
1, 91615, Note_on_c, 0, 70, 112
1, 91792, Note_off_c, 0, 70, 112
1, 91802, Note_on_c, 0, 66, 123
1, 92060, Note_off_c, 0, 66, 123
1, 92074, Note_on_c, 0, 63, 95
1, 92202, Note_off_c, 0, 63, 95
1, 92202, Note_on_c, 0, 60, 91
1, 92335, Note_off_c, 0, 60, 91
1, 92377, Note_on_c, 0, 68, 119
1, 92610, Note_off_c, 0, 68, 119
1, 92617, Note_on_c, 0, 66, 118
1, 93030, Note_off_c, 0, 66, 118
1, 93037, Note_on_c, 0, 63, 118
1, 93313, Note_off_c, 0, 63, 118
1, 93313, Note_on_c, 0, 65, 126
1, 94051, Note_off_c, 0, 65, 126
1, 94060, Note_on_c, 0, 61, 105
1, 94305, Note_off_c, 0, 61, 105
1, 94321, Note_on_c, 0, 58, 80
1, 94549, Note_off_c, 0, 58, 80
1, 94551, Note_on_c, 0, 61, 90
1, 95708, Note_off_c, 0, 61, 90
1, 96596, Note_on_c, 0, 67, 126
1, 96834, Note_off_c, 0, 67, 126
1, 96843, Note_on_c, 0, 65, 120
1, 97057, Note_off_c, 0, 65, 120
1, 97095, Note_on_c, 0, 64, 100
1, 97304, Note_off_c, 0, 64, 100
1, 97304, Note_on_c, 0, 55, 92
1, 97508, Note_off_c, 0, 55, 92
1, 97508, Note_on_c, 0, 58, 83
1, 97655, Note_off_c, 0, 58, 83
1, 97655, Note_on_c, 0, 61, 108
1, 97855, Note_off_c, 0, 61, 108
1, 97860, Note_on_c, 0, 60, 100
1, 98053, Note_off_c, 0, 60, 100
1, 98106, Note_on_c, 0, 57, 96
1, 98287, Note_off_c, 0, 57, 96
1, 98301, Note_on_c, 0, 58, 88
1, 98423, Note_off_c, 0, 58, 88
1, 98428, Note_on_c, 0, 61, 91
1, 98607, Note_off_c, 0, 61, 91
1, 98609, Note_on_c, 0, 65, 99
1, 98816, Note_off_c, 0, 65, 99
1, 98816, Note_on_c, 0, 69, 119
1, 99115, Note_off_c, 0, 69, 119
1, 99127, Note_on_c, 0, 67, 110
1, 99331, Note_off_c, 0, 67, 110
1, 99684, Note_on_c, 0, 67, 114
1, 99915, Note_off_c, 0, 67, 114
1, 100031, Note_on_c, 0, 64, 99
1, 100134, Note_off_c, 0, 64, 99
1, 100140, Note_on_c, 0, 65, 94
1, 100293, Note_off_c, 0, 65, 94
1, 100297, Note_on_c, 0, 69, 100
1, 100450, Note_off_c, 0, 69, 100
1, 100454, Note_on_c, 0, 72, 83
1, 100539, Note_off_c, 0, 72, 83
1, 100617, Note_on_c, 0, 76, 119
1, 100821, Note_off_c, 0, 76, 119
1, 100826, Note_on_c, 0, 77, 119
1, 101016, Note_off_c, 0, 77, 119
1, 101026, Note_on_c, 0, 78, 120
1, 101132, Note_off_c, 0, 78, 120
1, 101142, Note_on_c, 0, 79, 116
1, 101479, Note_off_c, 0, 79, 116
1, 101495, Note_on_c, 0, 76, 106
1, 101620, Note_off_c, 0, 76, 106
1, 101634, Note_on_c, 0, 76, 109
1, 101705, Note_off_c, 0, 76, 109
1, 101705, Note_on_c, 0, 77, 118
1, 102041, Note_off_c, 0, 77, 118
1, 102041, Note_on_c, 0, 76, 111
1, 102108, Note_off_c, 0, 76, 111
1, 102108, Note_on_c, 0, 72, 107
1, 102410, Note_off_c, 0, 72, 107
1, 103782, Note_on_c, 0, 71, 113
1, 103972, Note_off_c, 0, 71, 113
1, 103978, Note_on_c, 0, 73, 115
1, 104097, Note_off_c, 0, 73, 115
1, 104097, Note_on_c, 0, 71, 122
1, 104301, Note_off_c, 0, 71, 122
1, 104329, Note_on_c, 0, 70, 107
1, 104400, Note_off_c, 0, 70, 107
1, 104404, Note_on_c, 0, 69, 116
1, 104766, Note_off_c, 0, 69, 116
1, 104769, Note_on_c, 0, 68, 116
1, 104853, Note_off_c, 0, 68, 116
1, 104863, Note_on_c, 0, 67, 113
1, 105129, Note_off_c, 0, 67, 113
1, 105139, Note_on_c, 0, 65, 110
1, 105343, Note_off_c, 0, 65, 110
1, 105348, Note_on_c, 0, 63, 99
1, 105740, Note_off_c, 0, 63, 99
1, 105753, Note_on_c, 0, 65, 114
1, 105932, Note_off_c, 0, 65, 114
1, 105937, Note_on_c, 0, 68, 123
1, 106195, Note_off_c, 0, 68, 123
1, 106197, Note_on_c, 0, 71, 101
1, 106336, Note_off_c, 0, 71, 101
1, 106349, Note_on_c, 0, 68, 104
1, 106525, Note_off_c, 0, 68, 104
1, 106537, Note_on_c, 0, 69, 102
1, 106703, Note_off_c, 0, 69, 102
1, 106722, Note_on_c, 0, 70, 113
1, 106991, Note_off_c, 0, 70, 113
1, 108340, Note_on_c, 0, 66, 118
1, 108557, Note_off_c, 0, 66, 118
1, 108582, Note_on_c, 0, 67, 107
1, 108745, Note_off_c, 0, 67, 107
1, 108750, Note_on_c, 0, 70, 97
1, 108852, Note_off_c, 0, 70, 97
1, 108854, Note_on_c, 0, 73, 105
1, 108942, Note_off_c, 0, 73, 105
1, 108946, Note_on_c, 0, 75, 117
1, 109075, Note_off_c, 0, 75, 117
1, 109075, Note_on_c, 0, 77, 122
1, 109415, Note_off_c, 0, 77, 122
1, 109417, Note_on_c, 0, 74, 121
1, 109558, Note_off_c, 0, 74, 121
1, 109568, Note_on_c, 0, 75, 125
1, 109840, Note_off_c, 0, 75, 125
1, 109927, Note_on_c, 0, 70, 110
1, 110161, Note_off_c, 0, 70, 110
1, 110951, Note_on_c, 0, 72, 119
1, 111127, Note_off_c, 0, 72, 119
1, 111156, Note_on_c, 0, 74, 124
1, 112068, Note_off_c, 0, 74, 124
1, 112073, Note_on_c, 0, 72, 105
1, 112318, Note_off_c, 0, 72, 105
1, 112323, Note_on_c, 0, 74, 18
1, 112448, Note_off_c, 0, 74, 18
1, 112458, Note_on_c, 0, 72, 76
1, 112562, Note_off_c, 0, 72, 76
1, 112567, Note_on_c, 0, 71, 111
1, 112835, Note_off_c, 0, 71, 111
1, 112922, Note_on_c, 0, 70, 117
1, 113292, Note_off_c, 0, 70, 117
1, 113373, Note_on_c, 0, 68, 118
1, 113726, Note_off_c, 0, 68, 118
1, 113785, Note_on_c, 0, 67, 121
1, 114231, Note_off_c, 0, 67, 121
1, 114277, Note_on_c, 0, 65, 113
1, 114661, Note_off_c, 0, 65, 113
1, 114767, Note_on_c, 0, 63, 94
1, 115250, Note_off_c, 0, 63, 94
1, 115367, Note_on_c, 0, 67, 76
1, 115508, Note_off_c, 0, 67, 76
1, 115514, Note_on_c, 0, 70, 117
1, 115871, Note_off_c, 0, 70, 117
1, 115983, Note_on_c, 0, 66, 116
1, 116410, Note_off_c, 0, 66, 116
1, 116427, Note_on_c, 0, 63, 96
1, 116774, Note_off_c, 0, 63, 96
1, 117068, Note_on_c, 0, 61, 106
1, 117617, Note_off_c, 0, 61, 106
1, 117649, Note_on_c, 0, 59, 88
1, 117819, Note_off_c, 0, 59, 88
1, 117836, Note_on_c, 0, 60, 98
1, 118313, Note_off_c, 0, 60, 98
1, 118443, Note_on_c, 0, 65, 96
1, 119292, Note_off_c, 0, 65, 96
1, 119357, Note_on_c, 0, 60, 93
1, 119495, Note_off_c, 0, 60, 93
1, 119541, Note_on_c, 0, 68, 115
1, 120011, Note_off_c, 0, 68, 115
1, 120035, Note_on_c, 0, 65, 110
1, 120416, Note_off_c, 0, 65, 110
1, 120514, Note_on_c, 0, 60, 90
1, 120775, Note_off_c, 0, 60, 90
1, 120829, Note_on_c, 0, 56, 93
1, 121177, Note_off_c, 0, 56, 93
1, 121193, Note_on_c, 0, 58, 86
1, 122118, Note_off_c, 0, 58, 86
1, 123744, Note_on_c, 0, 66, 110
1, 124006, Note_off_c, 0, 66, 110
1, 124020, Note_on_c, 0, 67, 101
1, 124145, Note_off_c, 0, 67, 101
1, 124158, Note_on_c, 0, 69, 90
1, 124283, Note_off_c, 0, 69, 90
1, 124302, Note_on_c, 0, 72, 82
1, 124378, Note_off_c, 0, 72, 82
1, 124388, Note_on_c, 0, 75, 102
1, 124589, Note_off_c, 0, 75, 102
1, 124595, Note_on_c, 0, 77, 115
1, 124819, Note_off_c, 0, 77, 115
1, 125033, Note_on_c, 0, 74, 113
1, 125267, Note_off_c, 0, 74, 113
1, 125267, Note_on_c, 0, 75, 119
1, 125358, Note_off_c, 0, 75, 119
1, 125358, Note_on_c, 0, 76, 113
1, 125524, Note_off_c, 0, 76, 113
1, 125524, Note_on_c, 0, 72, 117
1, 125711, Note_off_c, 0, 72, 117
1, 125720, Note_on_c, 0, 73, 114
1, 125804, Note_off_c, 0, 73, 114
1, 125815, Note_on_c, 0, 74, 112
1, 126008, Note_off_c, 0, 74, 112
1, 126008, Note_on_c, 0, 70, 110
1, 126171, Note_off_c, 0, 70, 110
1, 126175, Note_on_c, 0, 71, 101
1, 126294, Note_off_c, 0, 71, 101
1, 126302, Note_on_c, 0, 72, 98
1, 126495, Note_off_c, 0, 72, 98
1, 126499, Note_on_c, 0, 69, 115
1, 126705, Note_off_c, 0, 69, 115
1, 127542, Note_on_c, 0, 72, 109
1, 127735, Note_on_c, 0, 70, 113
1, 127735, Note_off_c, 0, 72, 109
1, 127837, Note_off_c, 0, 70, 113
1, 127843, Note_on_c, 0, 69, 122
1, 128033, Note_off_c, 0, 69, 122
1, 128107, Note_on_c, 0, 65, 109
1, 128270, Note_off_c, 0, 65, 109
1, 128270, Note_on_c, 0, 61, 107
1, 128562, Note_off_c, 0, 61, 107
1, 128562, Note_on_c, 0, 58, 89
1, 128691, Note_off_c, 0, 58, 89
1, 128694, Note_on_c, 0, 60, 84
1, 129572, Note_off_c, 0, 60, 84
1, 130459, Note_on_c, 0, 71, 105
1, 130584, Note_off_c, 0, 71, 105
1, 130588, Note_on_c, 0, 72, 110
1, 130792, Note_off_c, 0, 72, 110
1, 130795, Note_on_c, 0, 71, 115
1, 131036, Note_off_c, 0, 71, 115
1, 131088, Note_on_c, 0, 69, 120
1, 131354, Note_off_c, 0, 69, 120
1, 131367, Note_on_c, 0, 68, 119
1, 131636, Note_off_c, 0, 68, 119
1, 133021, Note_on_c, 0, 67, 122
1, 133549, Note_off_c, 0, 67, 122
1, 133571, Note_on_c, 0, 68, 106
1, 133788, Note_off_c, 0, 68, 106
1, 133879, Note_on_c, 0, 72, 123
1, 134311, Note_off_c, 0, 72, 123
1, 134321, Note_on_c, 0, 75, 118
1, 134857, Note_off_c, 0, 75, 118
1, 134864, Note_on_c, 0, 78, 114
1, 135292, Note_off_c, 0, 78, 114
1, 135292, Note_on_c, 0, 79, 109
1, 136130, Note_off_c, 0, 79, 109
1, 136132, Note_on_c, 0, 77, 121
1, 136530, Note_off_c, 0, 77, 121
1, 136536, Note_on_c, 0, 75, 123
1, 137081, Note_off_c, 0, 75, 123
1, 137125, Note_on_c, 0, 72, 119
1, 137634, Note_off_c, 0, 72, 119
1, 138665, Note_on_c, 0, 77, 115
1, 139046, Note_off_c, 0, 77, 115
1, 139062, Note_on_c, 0, 75, 119
1, 139312, Note_off_c, 0, 75, 119
1, 139334, Note_on_c, 0, 71, 115
1, 139442, Note_off_c, 0, 71, 115
1, 139489, Note_on_c, 0, 68, 118
1, 139768, Note_off_c, 0, 68, 118
1, 139862, Note_on_c, 0, 63, 90
1, 140262, Note_off_c, 0, 63, 90
1, 140327, Note_on_c, 0, 66, 104
1, 140757, Note_off_c, 0, 66, 104
1, 140855, Note_on_c, 0, 63, 84
1, 141110, Note_off_c, 0, 63, 84
1, 141137, Note_on_c, 0, 66, 107
1, 141583, Note_off_c, 0, 66, 107
1, 141743, Note_on_c, 0, 63, 83
1, 141996, Note_off_c, 0, 63, 83
1, 142001, Note_on_c, 0, 66, 120
1, 142627, Note_off_c, 0, 66, 120
1, 142929, Note_on_c, 0, 63, 91
1, 143214, Note_off_c, 0, 63, 91
1, 143224, Note_on_c, 0, 65, 117
1, 143741, Note_off_c, 0, 65, 117
1, 143777, Note_on_c, 0, 68, 106
1, 144009, Note_off_c, 0, 68, 106
1, 144009, Note_on_c, 0, 71, 114
1, 144517, Note_off_c, 0, 71, 114
1, 144517, Note_on_c, 0, 73, 123
1, 144639, Note_off_c, 0, 73, 123
1, 144648, Note_on_c, 0, 74, 122
1, 145648, Note_off_c, 0, 74, 122
1, 145656, Note_on_c, 0, 73, 122
1, 146097, Note_off_c, 0, 73, 122
1, 146107, Note_on_c, 0, 71, 116
1, 146511, Note_off_c, 0, 71, 116
1, 146513, Note_on_c, 0, 69, 116
1, 146793, Note_off_c, 0, 69, 116
1, 146798, Note_on_c, 0, 70, 116
1, 147508, Note_off_c, 0, 70, 116
1, 147508, Note_on_c, 0, 73, 109
1, 147636, Note_off_c, 0, 73, 109
1, 147636, Note_on_c, 0, 70, 115
1, 147795, Note_off_c, 0, 70, 115
1, 147795, Note_on_c, 0, 68, 117
1, 148101, Note_off_c, 0, 68, 117
1, 148110, Note_on_c, 0, 66, 110
1, 148596, Note_off_c, 0, 66, 110
1, 148611, Note_on_c, 0, 63, 89
1, 149623, Note_off_c, 0, 63, 89
1, 150581, Note_on_c, 0, 57, 99
1, 150776, Note_off_c, 0, 57, 99
1, 150821, Note_on_c, 0, 61, 105
1, 151026, Note_off_c, 0, 61, 105
1, 151026, Note_on_c, 0, 65, 103
1, 151300, Note_off_c, 0, 65, 103
1, 151416, Note_on_c, 0, 68, 125
1, 151979, Note_off_c, 0, 68, 125
1, 152087, Note_on_c, 0, 66, 119
1, 153005, Note_off_c, 0, 66, 119
1, 153641, Note_on_c, 0, 69, 127
1, 153883, Note_off_c, 0, 69, 127
1, 153893, Note_on_c, 0, 70, 110
1, 154807, Note_off_c, 0, 70, 110
1, 154820, Note_on_c, 0, 68, 116
1, 155088, Note_off_c, 0, 68, 116
1, 155102, Note_on_c, 0, 67, 110
1, 155251, Note_off_c, 0, 67, 110
1, 155259, Note_on_c, 0, 65, 92
1, 155422, Note_off_c, 0, 65, 92
1, 155449, Note_on_c, 0, 63, 91
1, 155593, Note_off_c, 0, 63, 91
1, 155601, Note_on_c, 0, 62, 103
1, 155693, Note_off_c, 0, 62, 103
1, 155710, Note_on_c, 0, 60, 100
1, 155839, Note_off_c, 0, 60, 100
1, 155866, Note_on_c, 0, 58, 87
1, 156107, Note_off_c, 0, 58, 87
1, 157014, Note_on_c, 0, 69, 120
1, 157163, Note_off_c, 0, 69, 120
1, 157190, Note_on_c, 0, 70, 115
1, 158390, Note_off_c, 0, 70, 115
1, 158394, Note_on_c, 0, 68, 116
1, 158549, Note_off_c, 0, 68, 116
1, 158557, Note_on_c, 0, 66, 114
1, 158744, Note_off_c, 0, 66, 114
1, 158752, Note_on_c, 0, 61, 100
1, 158893, Note_off_c, 0, 61, 100
1, 158903, Note_on_c, 0, 62, 103
1, 159003, Note_off_c, 0, 62, 103
1, 159013, Note_on_c, 0, 60, 96
1, 159162, Note_off_c, 0, 60, 96
1, 159175, Note_on_c, 0, 58, 94
1, 159362, Note_off_c, 0, 58, 94
1, 160766, Note_on_c, 0, 58, 92
1, 160949, Note_off_c, 0, 58, 92
1, 160949, Note_on_c, 0, 60, 99
1, 161081, Note_off_c, 0, 60, 99
1, 161089, Note_on_c, 0, 63, 104
1, 161317, Note_off_c, 0, 63, 104
1, 161325, Note_on_c, 0, 65, 103
1, 161599, Note_off_c, 0, 65, 103
1, 161612, Note_on_c, 0, 66, 92
1, 161742, Note_off_c, 0, 66, 92
1, 161763, Note_on_c, 0, 67, 105
1, 161934, Note_off_c, 0, 67, 105
1, 161937, Note_on_c, 0, 68, 115
1, 162250, Note_off_c, 0, 68, 115
1, 162254, Note_on_c, 0, 66, 102
1, 162352, Note_off_c, 0, 66, 102
1, 162368, Note_on_c, 0, 65, 112
1, 162436, Note_off_c, 0, 65, 112
1, 162436, Note_on_c, 0, 67, 118
1, 162887, Note_off_c, 0, 67, 118
1, 162887, Note_on_c, 0, 63, 99
1, 163042, Note_off_c, 0, 63, 99
1, 163071, Note_on_c, 0, 61, 94
1, 163254, Note_off_c, 0, 61, 94
1, 163261, Note_on_c, 0, 65, 118
1, 163530, Note_off_c, 0, 65, 118
1, 163538, Note_on_c, 0, 67, 104
1, 163695, Note_off_c, 0, 67, 104
1, 163704, Note_on_c, 0, 68, 100
1, 163983, Note_off_c, 0, 68, 100
1, 163991, Note_on_c, 0, 70, 92
1, 164118, Note_off_c, 0, 70, 92
1, 164123, Note_on_c, 0, 71, 106
1, 164370, Note_off_c, 0, 71, 106
1, 164380, Note_on_c, 0, 72, 101
1, 164488, Note_off_c, 0, 72, 101
1, 164493, Note_on_c, 0, 71, 108
1, 164680, Note_off_c, 0, 71, 108
1, 164688, Note_on_c, 0, 70, 110
1, 164800, Note_off_c, 0, 70, 110
1, 164809, Note_on_c, 0, 69, 117
1, 164985, Note_off_c, 0, 69, 117
1, 165019, Note_on_c, 0, 68, 104
1, 165264, Note_off_c, 0, 68, 104
1, 165264, Note_on_c, 0, 70, 89
1, 165447, Note_off_c, 0, 70, 89
1, 165732, Note_on_c, 0, 74, 85
1, 165874, Note_off_c, 0, 74, 85
1, 165914, Note_on_c, 0, 79, 123
1, 166084, Note_off_c, 0, 79, 123
1, 166087, Note_on_c, 0, 78, 119
1, 166293, Note_off_c, 0, 78, 119
1, 166308, Note_on_c, 0, 77, 124
1, 166480, Note_off_c, 0, 77, 124
1, 166495, Note_on_c, 0, 77, 121
1, 166621, Note_off_c, 0, 77, 121
1, 166633, Note_on_c, 0, 76, 126
1, 166780, Note_off_c, 0, 76, 126
1, 166792, Note_on_c, 0, 75, 124
1, 166999, Note_off_c, 0, 75, 124
1, 167992, Note_on_c, 0, 69, 110
1, 168182, Note_off_c, 0, 69, 110
1, 168196, Note_on_c, 0, 70, 95
1, 168343, Note_off_c, 0, 70, 95
1, 168375, Note_on_c, 0, 74, 125
1, 168633, Note_off_c, 0, 74, 125
1, 168633, Note_on_c, 0, 77, 115
1, 168843, Note_off_c, 0, 77, 115
1, 168846, Note_on_c, 0, 74, 101
1, 168941, Note_off_c, 0, 74, 101
1, 168982, Note_on_c, 0, 72, 88
1, 169148, Note_off_c, 0, 72, 88
1, 169156, Note_on_c, 0, 74, 108
1, 169316, Note_off_c, 0, 74, 108
1, 169336, Note_on_c, 0, 75, 118
1, 169594, Note_off_c, 0, 75, 118
1, 169614, Note_on_c, 0, 70, 101
1, 169777, Note_off_c, 0, 70, 101
1, 172161, Note_on_c, 0, 68, 124
1, 172727, Note_off_c, 0, 68, 124
1, 173070, Note_on_c, 0, 70, 103
1, 173603, Note_off_c, 0, 70, 103
1, 174007, Note_on_c, 0, 72, 110
1, 174546, Note_off_c, 0, 72, 110
1, 174650, Note_on_c, 0, 73, 117
1, 175072, Note_off_c, 0, 73, 117
1, 175268, Note_on_c, 0, 70, 108
1, 175635, Note_off_c, 0, 70, 108
1, 175720, Note_on_c, 0, 72, 111
1, 176063, Note_off_c, 0, 72, 111
1, 176295, Note_on_c, 0, 68, 120
1, 176540, Note_off_c, 0, 68, 120
1, 176557, Note_on_c, 0, 70, 107
1, 176796, Note_off_c, 0, 70, 107
1, 176845, Note_on_c, 0, 66, 115
1, 177119, Note_off_c, 0, 66, 115
1, 177127, Note_on_c, 0, 68, 103
1, 177339, Note_off_c, 0, 68, 103
1, 177370, Note_on_c, 0, 65, 112
1, 177737, Note_off_c, 0, 65, 112
1, 178860, Note_on_c, 0, 67, 114
1, 179016, Note_off_c, 0, 67, 114
1, 179024, Note_on_c, 0, 65, 117
1, 179326, Note_off_c, 0, 65, 117
1, 179332, Note_on_c, 0, 64, 94
1, 179536, Note_off_c, 0, 64, 94
1, 179580, Note_on_c, 0, 55, 90
1, 179743, Note_off_c, 0, 55, 90
1, 179757, Note_on_c, 0, 58, 80
1, 179882, Note_off_c, 0, 58, 80
1, 179890, Note_on_c, 0, 61, 103
1, 180131, Note_off_c, 0, 61, 103
1, 180137, Note_on_c, 0, 60, 102
1, 180305, Note_off_c, 0, 60, 102
1, 180352, Note_on_c, 0, 58, 89
1, 180515, Note_off_c, 0, 58, 89
1, 180527, Note_on_c, 0, 57, 95
1, 180641, Note_off_c, 0, 57, 95
1, 180643, Note_on_c, 0, 61, 93
1, 180828, Note_off_c, 0, 61, 93
1, 180830, Note_on_c, 0, 64, 97
1, 180955, Note_off_c, 0, 64, 97
1, 180955, Note_on_c, 0, 67, 115
1, 181205, Note_off_c, 0, 67, 115
1, 181234, Note_on_c, 0, 64, 91
1, 181383, Note_off_c, 0, 64, 91
1, 181388, Note_on_c, 0, 65, 97
1, 181605, Note_off_c, 0, 65, 97
1, 181605, Note_on_c, 0, 67, 104
1, 181795, Note_off_c, 0, 67, 104
1, 181801, Note_on_c, 0, 69, 111
1, 182039, Note_off_c, 0, 69, 111
1, 182050, Note_on_c, 0, 70, 96
1, 182194, Note_off_c, 0, 70, 96
1, 182194, Note_on_c, 0, 72, 108
1, 182418, Note_off_c, 0, 72, 108
1, 182429, Note_on_c, 0, 70, 107
1, 182602, Note_off_c, 0, 70, 107
1, 182622, Note_on_c, 0, 69, 120
1, 182864, Note_off_c, 0, 69, 120
1, 182874, Note_on_c, 0, 65, 116
1, 183042, Note_off_c, 0, 65, 116
1, 183047, Note_on_c, 0, 62, 97
1, 183302, Note_off_c, 0, 62, 97
1, 183453, Note_on_c, 0, 71, 103
1, 183555, Note_off_c, 0, 71, 103
1, 183555, Note_on_c, 0, 73, 100
1, 183693, Note_off_c, 0, 73, 100
1, 183701, Note_on_c, 0, 71, 100
1, 183929, Note_off_c, 0, 71, 100
1, 183940, Note_on_c, 0, 70, 113
1, 184208, Note_off_c, 0, 70, 113
1, 184218, Note_on_c, 0, 69, 118
1, 184411, Note_off_c, 0, 69, 118
1, 184433, Note_on_c, 0, 68, 106
1, 184942, Note_off_c, 0, 68, 106
1, 186302, Note_on_c, 0, 70, 122
1, 186604, Note_off_c, 0, 70, 122
1, 186616, Note_on_c, 0, 68, 117
1, 186888, Note_off_c, 0, 68, 117
1, 186898, Note_on_c, 0, 66, 101
1, 187061, Note_off_c, 0, 66, 101
1, 187071, Note_on_c, 0, 67, 107
1, 188010, Note_off_c, 0, 67, 107
1, 188013, Note_on_c, 0, 69, 114
1, 188217, Note_off_c, 0, 69, 114
1, 188227, Note_on_c, 0, 68, 114
1, 188401, Note_off_c, 0, 68, 114
1, 188450, Note_on_c, 0, 65, 113
1, 188681, Note_off_c, 0, 65, 113
1, 188691, Note_on_c, 0, 63, 104
1, 189099, Note_off_c, 0, 63, 104
1, 189105, Note_on_c, 0, 58, 89
1, 189795, Note_off_c, 0, 58, 89
1, 189925, Note_on_c, 0, 59, 86
1, 190469, Note_off_c, 0, 59, 86
1, 190481, Note_on_c, 0, 63, 99
1, 190685, Note_off_c, 0, 63, 99
1, 190688, Note_on_c, 0, 66, 111
1, 190930, Note_off_c, 0, 66, 111
1, 190982, Note_on_c, 0, 67, 118
1, 191210, Note_off_c, 0, 67, 118
1, 191233, Note_on_c, 0, 68, 124
1, 191641, Note_off_c, 0, 68, 124
1, 191672, Note_on_c, 0, 70, 95
1, 191797, Note_off_c, 0, 70, 95
1, 191814, Note_on_c, 0, 68, 117
1, 191919, Note_off_c, 0, 68, 117
1, 191925, Note_on_c, 0, 67, 116
1, 192371, Note_off_c, 0, 67, 116
1, 192381, Note_on_c, 0, 65, 119
1, 192758, Note_off_c, 0, 65, 119
1, 192805, Note_on_c, 0, 64, 101
1, 193172, Note_off_c, 0, 64, 101
1, 193276, Note_on_c, 0, 61, 107
1, 193633, Note_off_c, 0, 61, 107
1, 193641, Note_on_c, 0, 60, 97
1, 194131, Note_off_c, 0, 60, 97
1, 194146, Note_on_c, 0, 58, 86
1, 194421, Note_off_c, 0, 58, 86
1, 194584, Note_on_c, 0, 60, 96
1, 194731, Note_off_c, 0, 60, 96
1, 194737, Note_on_c, 0, 63, 104
1, 194883, Note_off_c, 0, 63, 104
1, 194883, Note_on_c, 0, 67, 125
1, 195216, Note_off_c, 0, 67, 125
1, 195217, Note_on_c, 0, 65, 124
1, 195693, Note_off_c, 0, 65, 124
1, 195739, Note_on_c, 0, 61, 104
1, 196031, Note_off_c, 0, 61, 104
1, 196043, Note_on_c, 0, 60, 84
1, 196206, Note_off_c, 0, 60, 84
1, 196220, Note_on_c, 0, 61, 103
1, 196495, Note_off_c, 0, 61, 103
1, 196495, Note_on_c, 0, 59, 93
1, 196634, Note_off_c, 0, 59, 93
1, 196650, Note_on_c, 0, 57, 99
1, 196965, Note_off_c, 0, 57, 99
1, 196979, Note_on_c, 0, 58, 95
1, 197278, Note_off_c, 0, 58, 95
1, 197295, Note_on_c, 0, 56, 105
1, 197602, Note_off_c, 0, 56, 105
1, 197613, Note_on_c, 0, 55, 101
1, 197796, Note_off_c, 0, 55, 101
1, 197818, Note_on_c, 0, 58, 90
1, 197943, Note_off_c, 0, 58, 90
1, 197955, Note_on_c, 0, 62, 109
1, 198148, Note_off_c, 0, 62, 109
1, 198246, Note_on_c, 0, 65, 122
1, 198697, Note_off_c, 0, 65, 122
1, 198784, Note_on_c, 0, 66, 118
1, 199148, Note_off_c, 0, 66, 118
1, 199197, Note_on_c, 0, 61, 95
1, 199397, Note_off_c, 0, 61, 95
1, 199405, Note_on_c, 0, 58, 91
1, 199562, Note_off_c, 0, 58, 91
1, 199579, Note_on_c, 0, 56, 101
1, 200031, Note_off_c, 0, 56, 101
1, 200031, Note_on_c, 0, 63, 103
1, 200340, Note_off_c, 0, 63, 103
1, 200340, Note_on_c, 0, 66, 105
1, 200511, Note_off_c, 0, 66, 105
1, 200520, Note_on_c, 0, 67, 104
1, 201428, Note_off_c, 0, 67, 104
1, 201430, Note_on_c, 0, 70, 106
1, 201906, Note_off_c, 0, 70, 106
1, 201906, End_track
0, 0, End_of_file
