0, 0, Header, 1, 1, 192
1, 0, Start_track
1, 0, Note_on_c, 0, 78, 116
1, 31, Note_off_c, 0, 78, 116
1, 45, Note_on_c, 0, 79, 123
1, 78, Note_off_c, 0, 79, 123
1, 86, Note_on_c, 0, 78, 121
1, 117, Note_off_c, 0, 78, 121
1, 130, Note_on_c, 0, 76, 127
1, 171, Note_off_c, 0, 76, 127
1, 188, Note_on_c, 0, 74, 117
1, 237, Note_off_c, 0, 74, 117
1, 282, Note_on_c, 0, 73, 113
1, 361, Note_off_c, 0, 73, 113
1, 385, Note_on_c, 0, 71, 109
1, 445, Note_off_c, 0, 71, 109
1, 484, Note_on_c, 0, 69, 114
1, 554, Note_off_c, 0, 69, 114
1, 565, Note_on_c, 0, 67, 119
1, 641, Note_off_c, 0, 67, 119
1, 679, Note_on_c, 0, 66, 117
1, 749, Note_off_c, 0, 66, 117
1, 789, Note_on_c, 0, 64, 109
1, 834, Note_off_c, 0, 64, 109
1, 865, Note_on_c, 0, 62, 109
1, 920, Note_off_c, 0, 62, 109
1, 985, Note_on_c, 0, 61, 107
1, 1040, Note_off_c, 0, 61, 107
1, 1063, Note_on_c, 0, 64, 101
1, 1115, Note_off_c, 0, 64, 101
1, 1127, Note_on_c, 0, 67, 118
1, 1227, Note_off_c, 0, 67, 118
1, 1252, Note_on_c, 0, 71, 98
1, 1353, Note_off_c, 0, 71, 98
1, 1436, Title_t, "Melody"
1, 1436, Tempo, 303030
1, 1436, Key_signature, -1, "major"
1, 1436, Time_signature, 4, 2, 24, 8
1, 1445, Note_on_c, 0, 67, 101
1, 1483, Note_off_c, 0, 67, 101
1, 1520, Note_on_c, 0, 69, 107
1, 1581, Note_off_c, 0, 69, 107
1, 1649, Note_on_c, 0, 64, 104
1, 1728, Note_off_c, 0, 64, 104
1, 2139, Note_on_c, 0, 62, 83
1, 2165, Note_off_c, 0, 62, 83
1, 2180, Note_on_c, 0, 61, 118
1, 2210, Note_off_c, 0, 61, 118
1, 2263, Note_on_c, 0, 60, 106
1, 2284, Note_off_c, 0, 60, 106
1, 2306, Note_on_c, 0, 59, 98
1, 2332, Note_off_c, 0, 59, 98
1, 2358, Note_on_c, 0, 57, 114
1, 2379, Note_off_c, 0, 57, 114
1, 2399, Note_on_c, 0, 55, 119
1, 2418, Note_off_c, 0, 55, 119
1, 2444, Note_on_c, 0, 54, 120
1, 2487, Note_off_c, 0, 54, 120
1, 2911, Note_on_c, 0, 62, 124
1, 2952, Note_off_c, 0, 62, 124
1, 2971, Note_on_c, 0, 63, 119
1, 3002, Note_off_c, 0, 63, 119
1, 3016, Note_on_c, 0, 65, 120
1, 3043, Note_off_c, 0, 65, 120
1, 3055, Note_on_c, 0, 67, 122
1, 3100, Note_off_c, 0, 67, 122
1, 3115, Note_on_c, 0, 69, 116
1, 3147, Note_off_c, 0, 69, 116
1, 3153, Note_on_c, 0, 71, 102
1, 3176, Note_off_c, 0, 71, 102
1, 3196, Note_on_c, 0, 76, 118
1, 3218, Note_off_c, 0, 76, 118
1, 3242, Note_on_c, 0, 73, 119
1, 3264, Note_off_c, 0, 73, 119
1, 3285, Note_on_c, 0, 74, 113
1, 3311, Note_off_c, 0, 74, 113
1, 3366, Note_on_c, 0, 79, 118
1, 3430, Note_off_c, 0, 79, 118
1, 3430, Note_on_c, 0, 79, 86
1, 3469, Note_off_c, 0, 79, 86
1, 3548, Note_on_c, 0, 76, 122
1, 3625, Note_off_c, 0, 76, 122
1, 3675, Note_on_c, 0, 69, 114
1, 3825, Note_off_c, 0, 69, 114
1, 3890, Note_on_c, 0, 66, 123
1, 3921, Note_off_c, 0, 66, 123
1, 3930, Note_on_c, 0, 67, 111
1, 3960, Note_off_c, 0, 67, 111
1, 3983, Note_on_c, 0, 70, 88
1, 4007, Note_off_c, 0, 70, 88
1, 4022, Note_on_c, 0, 72, 77
1, 4048, Note_off_c, 0, 72, 77
1, 4056, Note_on_c, 0, 74, 109
1, 4087, Note_off_c, 0, 74, 109
1, 4100, Note_on_c, 0, 77, 116
1, 4181, Note_off_c, 0, 77, 116
1, 4193, Note_on_c, 0, 76, 91
1, 4222, Note_off_c, 0, 76, 91
1, 4225, Note_on_c, 0, 74, 105
1, 4247, Note_off_c, 0, 74, 105
1, 4269, Note_on_c, 0, 72, 111
1, 4299, Note_off_c, 0, 72, 111
1, 4306, Note_on_c, 0, 70, 109
1, 4379, Note_off_c, 0, 70, 109
1, 4391, Note_on_c, 0, 69, 111
1, 4427, Note_off_c, 0, 69, 111
1, 4441, Note_on_c, 0, 67, 121
1, 4551, Note_off_c, 0, 67, 121
1, 4576, Note_on_c, 0, 65, 109
1, 4637, Note_off_c, 0, 65, 109
1, 4668, Note_on_c, 0, 64, 100
1, 4707, Note_off_c, 0, 64, 100
1, 4732, Note_on_c, 0, 65, 100
1, 4758, Note_off_c, 0, 65, 100
1, 4801, Note_on_c, 0, 67, 84
1, 4821, Note_off_c, 0, 67, 84
1, 4844, Note_on_c, 0, 74, 116
1, 4937, Note_off_c, 0, 74, 116
1, 5045, Note_on_c, 0, 67, 112
1, 5104, Note_off_c, 0, 67, 112
1, 5160, Note_on_c, 0, 69, 97
1, 5189, Note_off_c, 0, 69, 97
1, 5201, Note_on_c, 0, 72, 116
1, 5275, Note_off_c, 0, 72, 116
1, 5335, Note_on_c, 0, 70, 109
1, 5386, Note_off_c, 0, 70, 109
1, 11922, Note_on_c, 0, 54, 106
1, 11974, Note_off_c, 0, 54, 106
1, 11991, Note_on_c, 0, 55, 101
1, 12036, Note_off_c, 0, 55, 101
1, 12050, Note_on_c, 0, 58, 89
1, 12077, Note_off_c, 0, 58, 89
1, 12104, Note_on_c, 0, 62, 107
1, 12141, Note_off_c, 0, 62, 107
1, 12156, Note_on_c, 0, 65, 112
1, 12261, Note_off_c, 0, 65, 112
1, 12263, Note_on_c, 0, 62, 103
1, 12320, Note_off_c, 0, 62, 103
1, 12327, Note_on_c, 0, 64, 109
1, 12430, Note_off_c, 0, 64, 109
1, 12452, Note_on_c, 0, 72, 106
1, 12691, Note_off_c, 0, 72, 106
1, 12712, Note_on_c, 0, 70, 112
1, 12764, Note_off_c, 0, 70, 112
1, 12765, Note_on_c, 0, 65, 107
1, 12809, Note_off_c, 0, 65, 107
1, 12824, Note_on_c, 0, 61, 89
1, 12872, Note_off_c, 0, 61, 89
1, 12911, Note_on_c, 0, 69, 114
1, 12974, Note_off_c, 0, 69, 114
1, 13600, Note_on_c, 0, 64, 114
1, 13660, Note_off_c, 0, 64, 114
1, 13668, Note_on_c, 0, 67, 118
1, 13696, Note_off_c, 0, 67, 118
1, 13702, Note_on_c, 0, 69, 111
1, 13748, Note_off_c, 0, 69, 111
1, 13756, Note_on_c, 0, 67, 118
1, 13805, Note_off_c, 0, 67, 118
1, 13814, Note_on_c, 0, 65, 112
1, 13870, Note_off_c, 0, 65, 112
1, 13874, Note_on_c, 0, 64, 113
1, 13952, Note_off_c, 0, 64, 113
1, 13985, Note_on_c, 0, 62, 102
1, 14059, Note_off_c, 0, 62, 102
1, 14073, Note_on_c, 0, 65, 118
1, 14147, Note_off_c, 0, 65, 118
1, 14171, Note_on_c, 0, 61, 118
1, 14221, Note_off_c, 0, 61, 118
1, 14240, Note_on_c, 0, 58, 103
1, 14285, Note_off_c, 0, 58, 103
1, 14373, Note_on_c, 0, 55, 111
1, 14434, Note_off_c, 0, 55, 111
1, 14441, Note_on_c, 0, 56, 119
1, 14490, Note_off_c, 0, 56, 119
1, 14550, Note_on_c, 0, 64, 124
1, 14596, Note_off_c, 0, 64, 124
1, 14622, Note_on_c, 0, 62, 115
1, 14716, Note_off_c, 0, 62, 115
1, 14729, Note_on_c, 0, 61, 119
1, 14782, Note_off_c, 0, 61, 119
1, 14805, Note_on_c, 0, 60, 106
1, 14878, Note_off_c, 0, 60, 106
1, 14941, Note_on_c, 0, 58, 102
1, 14988, Note_off_c, 0, 58, 102
1, 15046, Note_on_c, 0, 60, 105
1, 15093, Note_off_c, 0, 60, 105
1, 15101, Note_on_c, 0, 63, 111
1, 15138, Note_off_c, 0, 63, 111
1, 15147, Note_on_c, 0, 67, 117
1, 15178, Note_off_c, 0, 67, 117
1, 15223, Note_on_c, 0, 74, 117
1, 15276, Note_off_c, 0, 74, 117
1, 15341, Note_on_c, 0, 73, 111
1, 15392, Note_off_c, 0, 73, 111
1, 15420, Note_on_c, 0, 72, 110
1, 15486, Note_off_c, 0, 72, 110
1, 15521, Note_on_c, 0, 71, 107
1, 15575, Note_off_c, 0, 71, 107
1, 15606, Note_on_c, 0, 70, 103
1, 15689, Note_off_c, 0, 70, 103
1, 15711, Note_on_c, 0, 65, 97
1, 15774, Note_off_c, 0, 65, 97
1, 15792, Note_on_c, 0, 67, 119
1, 15881, Note_off_c, 0, 67, 119
1, 15898, Note_on_c, 0, 68, 114
1, 15986, Note_off_c, 0, 68, 114
1, 15993, Note_on_c, 0, 67, 108
1, 16225, Note_off_c, 0, 67, 108
1, 16225, Note_on_c, 0, 68, 118
1, 16333, Note_off_c, 0, 68, 118
1, 16342, Note_on_c, 0, 67, 120
1, 16409, Note_off_c, 0, 67, 120
1, 16419, Note_on_c, 0, 66, 109
1, 16466, Note_off_c, 0, 66, 109
1, 16473, Note_on_c, 0, 65, 87
1, 16535, Note_off_c, 0, 65, 87
1, 16851, Note_on_c, 0, 65, 97
1, 16912, Note_off_c, 0, 65, 97
1, 16925, Note_on_c, 0, 67, 104
1, 17039, Note_off_c, 0, 67, 104
1, 17053, Note_on_c, 0, 68, 99
1, 17188, Note_off_c, 0, 68, 99
1, 17216, Note_on_c, 0, 67, 101
1, 17358, Note_off_c, 0, 67, 101
1, 17358, Note_on_c, 0, 68, 111
1, 17508, Note_off_c, 0, 68, 111
1, 18398, Note_on_c, 0, 66, 122
1, 18463, Note_off_c, 0, 66, 122
1, 18468, Note_on_c, 0, 67, 112
1, 18499, Note_off_c, 0, 67, 112
1, 18519, Note_on_c, 0, 70, 78
1, 18551, Note_off_c, 0, 70, 78
1, 18581, Note_on_c, 0, 74, 111
1, 18613, Note_off_c, 0, 74, 111
1, 18656, Note_on_c, 0, 77, 121
1, 18731, Note_off_c, 0, 77, 121
1, 18744, Note_on_c, 0, 76, 113
1, 18774, Note_off_c, 0, 76, 113
1, 18781, Note_on_c, 0, 74, 109
1, 18803, Note_off_c, 0, 74, 109
1, 18811, Note_on_c, 0, 72, 109
1, 18842, Note_off_c, 0, 72, 109
1, 18852, Note_on_c, 0, 70, 111
1, 18910, Note_off_c, 0, 70, 111
1, 18947, Note_on_c, 0, 69, 117
1, 19017, Note_off_c, 0, 69, 117
1, 19024, Note_on_c, 0, 67, 118
1, 19107, Note_off_c, 0, 67, 118
1, 19120, Note_on_c, 0, 65, 109
1, 19140, Note_off_c, 0, 65, 109
1, 19152, Note_on_c, 0, 64, 102
1, 19225, Note_off_c, 0, 64, 102
1, 19248, Note_on_c, 0, 67, 107
1, 19324, Note_off_c, 0, 67, 107
1, 19326, Note_on_c, 0, 70, 78
1, 19384, Note_off_c, 0, 70, 78
1, 19384, Note_on_c, 0, 73, 119
1, 19429, Note_off_c, 0, 73, 119
1, 19432, Note_on_c, 0, 75, 105
1, 19505, Note_off_c, 0, 75, 105
1, 19520, Note_on_c, 0, 72, 109
1, 19568, Note_off_c, 0, 72, 109
1, 19627, Note_on_c, 0, 70, 107
1, 19652, Note_off_c, 0, 70, 107
1, 19677, Note_on_c, 0, 72, 99
1, 19721, Note_off_c, 0, 72, 99
1, 19735, Note_on_c, 0, 69, 111
1, 19820, Note_off_c, 0, 69, 111
1, 19845, Note_on_c, 0, 67, 108
1, 19882, Note_off_c, 0, 67, 108
1, 19908, Note_on_c, 0, 69, 104
1, 19953, Note_off_c, 0, 69, 104
1, 19966, Note_on_c, 0, 65, 112
1, 20131, Note_off_c, 0, 65, 112
1, 20642, Note_on_c, 0, 63, 122
1, 20689, Note_off_c, 0, 63, 122
1, 20693, Note_on_c, 0, 65, 121
1, 20743, Note_off_c, 0, 65, 121
1, 20749, Note_on_c, 0, 67, 120
1, 20807, Note_off_c, 0, 67, 120
1, 20812, Note_on_c, 0, 66, 118
1, 20863, Note_off_c, 0, 66, 118
1, 20870, Note_on_c, 0, 64, 115
1, 20896, Note_off_c, 0, 64, 115
1, 20904, Note_on_c, 0, 63, 115
1, 20937, Note_off_c, 0, 63, 115
1, 20937, Note_on_c, 0, 62, 113
1, 20964, Note_off_c, 0, 62, 113
1, 20964, Note_on_c, 0, 60, 103
1, 21060, Note_off_c, 0, 60, 103
1, 21420, Note_on_c, 0, 57, 104
1, 21613, Note_off_c, 0, 57, 104
1, 21636, Note_on_c, 0, 60, 110
1, 21684, Note_off_c, 0, 60, 110
1, 21684, Note_on_c, 0, 55, 102
1, 21793, Note_off_c, 0, 55, 102
1, 21809, Note_on_c, 0, 57, 107
1, 21888, Note_off_c, 0, 57, 107
1, 21901, Note_on_c, 0, 58, 98
1, 21969, Note_off_c, 0, 58, 98
1, 21988, Note_on_c, 0, 62, 111
1, 22079, Note_off_c, 0, 62, 111
1, 22119, Note_on_c, 0, 56, 100
1, 22199, Note_off_c, 0, 56, 100
1, 22215, Note_on_c, 0, 59, 92
1, 22281, Note_off_c, 0, 59, 92
1, 22285, Note_on_c, 0, 62, 115
1, 22388, Note_off_c, 0, 62, 115
1, 22389, Note_on_c, 0, 59, 94
1, 22446, Note_off_c, 0, 59, 94
1, 22459, Note_on_c, 0, 60, 109
1, 22562, Note_off_c, 0, 60, 109
1, 22564, Note_on_c, 0, 58, 104
1, 22631, Note_off_c, 0, 58, 104
1, 22649, Note_on_c, 0, 57, 101
1, 22681, Note_off_c, 0, 57, 101
1, 22705, Note_on_c, 0, 60, 110
1, 22729, Note_off_c, 0, 60, 110
1, 22732, Note_on_c, 0, 63, 116
1, 22751, Note_off_c, 0, 63, 116
1, 22751, Note_on_c, 0, 67, 113
1, 22827, Note_off_c, 0, 67, 113
1, 22848, Note_on_c, 0, 65, 116
1, 22920, Note_off_c, 0, 65, 116
1, 22982, Note_on_c, 0, 60, 88
1, 23217, Note_off_c, 0, 60, 88
1, 24175, Note_on_c, 0, 62, 125
1, 24297, Note_off_c, 0, 62, 125
1, 24308, Note_on_c, 0, 59, 91
1, 24355, Note_off_c, 0, 59, 91
1, 24379, Note_on_c, 0, 61, 117
1, 24479, Note_off_c, 0, 61, 117
1, 24485, Note_on_c, 0, 64, 117
1, 24583, Note_off_c, 0, 64, 117
1, 24589, Note_on_c, 0, 67, 117
1, 24686, Note_off_c, 0, 67, 117
1, 24689, Note_on_c, 0, 69, 117
1, 24742, Note_off_c, 0, 69, 117
1, 24752, Note_on_c, 0, 71, 112
1, 24812, Note_off_c, 0, 71, 112
1, 24853, Note_on_c, 0, 67, 118
1, 24941, Note_off_c, 0, 67, 118
1, 24957, Note_on_c, 0, 64, 112
1, 25059, Note_off_c, 0, 64, 112
1, 25089, Note_on_c, 0, 61, 106
1, 25133, Note_off_c, 0, 61, 106
1, 25153, Note_on_c, 0, 66, 123
1, 25240, Note_off_c, 0, 66, 123
1, 25258, Note_on_c, 0, 65, 116
1, 25341, Note_off_c, 0, 65, 116
1, 25347, Note_on_c, 0, 64, 116
1, 25455, Note_off_c, 0, 64, 116
1, 25478, Note_on_c, 0, 63, 115
1, 25558, Note_off_c, 0, 63, 115
1, 25561, Note_on_c, 0, 62, 114
1, 25685, Note_on_c, 0, 61, 100
1, 25685, Note_off_c, 0, 62, 114
1, 25762, Note_off_c, 0, 61, 100
1, 25770, Note_on_c, 0, 60, 107
1, 25801, Note_off_c, 0, 60, 107
1, 25801, Note_on_c, 0, 62, 110
1, 25843, Note_off_c, 0, 62, 110
1, 25846, Note_on_c, 0, 64, 111
1, 25878, Note_off_c, 0, 64, 111
1, 25878, Note_on_c, 0, 65, 112
1, 25914, Note_off_c, 0, 65, 112
1, 25948, Note_on_c, 0, 71, 107
1, 26059, Note_off_c, 0, 71, 107
1, 26063, Note_on_c, 0, 68, 95
1, 26124, Note_off_c, 0, 68, 95
1, 26133, Note_on_c, 0, 69, 107
1, 26227, Note_off_c, 0, 69, 107
1, 26271, Note_on_c, 0, 74, 101
1, 26473, Note_off_c, 0, 74, 101
1, 27563, Note_on_c, 0, 62, 119
1, 27625, Note_off_c, 0, 62, 119
1, 27625, Note_on_c, 0, 64, 122
1, 27665, Note_off_c, 0, 64, 122
1, 27665, Note_on_c, 0, 65, 118
1, 27707, Note_off_c, 0, 65, 118
1, 27707, Note_on_c, 0, 67, 114
1, 27755, Note_off_c, 0, 67, 114
1, 27755, Note_on_c, 0, 69, 111
1, 27802, Note_off_c, 0, 69, 111
1, 27819, Note_on_c, 0, 76, 112
1, 27868, Note_off_c, 0, 76, 112
1, 27886, Note_on_c, 0, 73, 113
1, 27918, Note_off_c, 0, 73, 113
1, 27927, Note_on_c, 0, 74, 106
1, 27969, Note_off_c, 0, 74, 106
1, 27975, Note_on_c, 0, 76, 112
1, 27999, Note_off_c, 0, 76, 112
1, 28006, Note_on_c, 0, 79, 110
1, 28262, Note_off_c, 0, 79, 110
1, 28356, Note_on_c, 0, 76, 113
1, 28436, Note_on_c, 0, 77, 118
1, 28436, Note_off_c, 0, 76, 113
1, 28485, Note_off_c, 0, 77, 118
1, 28485, Note_on_c, 0, 76, 113
1, 28524, Note_off_c, 0, 76, 113
1, 28524, Note_on_c, 0, 74, 92
1, 28582, Note_off_c, 0, 74, 92
1, 28590, Note_on_c, 0, 70, 107
1, 28688, Note_off_c, 0, 70, 107
1, 28705, Note_on_c, 0, 69, 115
1, 28781, Note_off_c, 0, 69, 115
1, 28799, Note_on_c, 0, 67, 117
1, 28917, Note_off_c, 0, 67, 117
1, 28917, Note_on_c, 0, 65, 108
1, 28971, Note_off_c, 0, 65, 108
1, 29001, Note_on_c, 0, 64, 102
1, 29055, Note_off_c, 0, 64, 102
1, 29060, Note_on_c, 0, 67, 107
1, 29106, Note_on_c, 0, 70, 76
1, 29106, Note_off_c, 0, 67, 107
1, 29168, Note_off_c, 0, 70, 76
1, 29173, Note_on_c, 0, 74, 115
1, 29301, Note_off_c, 0, 74, 115
1, 29301, Note_on_c, 0, 67, 99
1, 29377, Note_off_c, 0, 67, 99
1, 29377, Note_on_c, 0, 69, 99
1, 29475, Note_off_c, 0, 69, 99
1, 29493, Note_on_c, 0, 72, 106
1, 29571, Note_off_c, 0, 72, 106
1, 29574, Note_on_c, 0, 70, 103
1, 29615, Note_off_c, 0, 70, 103
1, 29621, Note_on_c, 0, 72, 103
1, 29653, Note_off_c, 0, 72, 103
1, 29653, Note_on_c, 0, 70, 105
1, 29684, Note_on_c, 0, 69, 106
1, 29684, Note_off_c, 0, 70, 105
1, 29755, Note_off_c, 0, 69, 106
1, 29755, Note_on_c, 0, 67, 120
1, 29858, Note_off_c, 0, 67, 120
1, 29885, Note_on_c, 0, 65, 111
1, 29972, Note_off_c, 0, 65, 111
1, 29976, Note_on_c, 0, 64, 110
1, 30085, Note_off_c, 0, 64, 110
1, 30085, Note_on_c, 0, 62, 105
1, 30155, Note_off_c, 0, 62, 105
1, 30157, Note_on_c, 0, 72, 84
1, 30323, Note_off_c, 0, 72, 84
1, 30523, Note_on_c, 0, 69, 112
1, 30637, Note_off_c, 0, 69, 112
1, 30650, Note_on_c, 0, 65, 103
1, 30723, Note_off_c, 0, 65, 103
1, 30747, Note_on_c, 0, 67, 117
1, 30851, Note_off_c, 0, 67, 117
1, 30862, Note_on_c, 0, 58, 89
1, 31086, Note_off_c, 0, 58, 89
1, 31948, Note_on_c, 0, 73, 121
1, 32026, Note_off_c, 0, 73, 121
1, 32027, Note_on_c, 0, 72, 117
1, 32077, Note_off_c, 0, 72, 117
1, 32097, Note_on_c, 0, 70, 118
1, 32144, Note_off_c, 0, 70, 118
1, 32207, Note_on_c, 0, 63, 106
1, 32262, Note_off_c, 0, 63, 106
1, 32277, Note_on_c, 0, 66, 113
1, 32332, Note_off_c, 0, 66, 113
1, 32352, Note_on_c, 0, 70, 111
1, 32407, Note_off_c, 0, 70, 111
1, 32434, Note_on_c, 0, 68, 97
1, 32481, Note_on_c, 0, 70, 99
1, 32481, Note_off_c, 0, 68, 97
1, 32519, Note_off_c, 0, 70, 99
1, 32519, Note_on_c, 0, 68, 104
1, 32583, Note_off_c, 0, 68, 104
1, 32583, Note_on_c, 0, 66, 117
1, 32614, Note_off_c, 0, 66, 117
1, 32651, Note_on_c, 0, 63, 105
1, 32707, Note_off_c, 0, 63, 105
1, 32738, Note_on_c, 0, 64, 112
1, 32770, Note_off_c, 0, 64, 112
1, 32817, Note_on_c, 0, 67, 116
1, 32896, Note_off_c, 0, 67, 116
1, 32920, Note_on_c, 0, 65, 115
1, 32982, Note_off_c, 0, 65, 115
1, 33005, Note_on_c, 0, 64, 106
1, 33125, Note_off_c, 0, 64, 106
1, 33141, Note_on_c, 0, 62, 109
1, 33188, Note_off_c, 0, 62, 109
1, 33204, Note_on_c, 0, 60, 96
1, 33346, Note_off_c, 0, 60, 96
1, 33505, Note_on_c, 0, 58, 101
1, 33575, Note_off_c, 0, 58, 101
1, 33582, Note_on_c, 0, 57, 104
1, 33621, Note_off_c, 0, 57, 104
1, 33621, Note_on_c, 0, 60, 106
1, 33677, Note_off_c, 0, 60, 106
1, 33686, Note_on_c, 0, 62, 116
1, 33717, Note_off_c, 0, 62, 116
1, 33717, Note_on_c, 0, 67, 117
1, 33756, Note_off_c, 0, 67, 117
1, 33773, Note_on_c, 0, 65, 120
1, 33811, Note_off_c, 0, 65, 120
1, 33864, Note_on_c, 0, 61, 92
1, 33911, Note_off_c, 0, 61, 92
1, 33951, Note_on_c, 0, 62, 108
1, 33990, Note_off_c, 0, 62, 108
1, 33998, Note_on_c, 0, 65, 84
1, 34022, Note_off_c, 0, 65, 84
1, 34048, Note_on_c, 0, 69, 86
1, 34085, Note_off_c, 0, 69, 86
1, 34118, Note_on_c, 0, 72, 9
1, 34236, Note_off_c, 0, 72, 9
1, 34266, Note_on_c, 0, 70, 94
1, 34457, Note_off_c, 0, 70, 94
1, 34527, Note_on_c, 0, 61, 99
1, 34638, Note_off_c, 0, 61, 99
1, 34638, Note_on_c, 0, 59, 89
1, 34717, Note_off_c, 0, 59, 89
1, 34724, Note_on_c, 0, 60, 99
1, 34819, Note_off_c, 0, 60, 99
1, 34826, Note_on_c, 0, 70, 104
1, 34920, Note_off_c, 0, 70, 104
1, 34920, Note_on_c, 0, 67, 107
1, 35000, Note_off_c, 0, 67, 107
1, 35015, Note_on_c, 0, 68, 103
1, 35077, Note_off_c, 0, 68, 103
1, 35102, Note_on_c, 0, 69, 111
1, 35205, Note_off_c, 0, 69, 111
1, 35205, Note_on_c, 0, 65, 112
1, 35291, Note_off_c, 0, 65, 112
1, 35291, Note_on_c, 0, 62, 105
1, 35402, Note_on_c, 0, 61, 103
1, 35402, Note_off_c, 0, 62, 105
1, 35473, Note_off_c, 0, 61, 103
1, 35480, Note_on_c, 0, 60, 96
1, 35599, Note_off_c, 0, 60, 96
1, 35599, Note_on_c, 0, 58, 97
1, 35679, Note_off_c, 0, 58, 97
1, 35679, Note_on_c, 0, 57, 109
1, 35781, Note_off_c, 0, 57, 109
1, 35789, Note_on_c, 0, 55, 115
1, 35876, Note_off_c, 0, 55, 115
1, 35893, Note_on_c, 0, 54, 112
1, 35958, Note_off_c, 0, 54, 112
1, 35971, Note_on_c, 0, 56, 108
1, 35999, Note_off_c, 0, 56, 108
1, 35999, Note_on_c, 0, 60, 102
1, 36026, Note_off_c, 0, 60, 102
1, 36058, Note_on_c, 0, 62, 109
1, 36104, Note_off_c, 0, 62, 109
1, 36117, Note_on_c, 0, 60, 89
1, 36212, Note_off_c, 0, 60, 89
1, 36212, End_track
0, 0, End_of_file
