0, 0, Header, 1, 1, 192
1, 0, Start_track
1, 0, Title_t, "Melody"
1, 0, Tempo, 243902
1, 0, Key_signature, -5, "major"
1, 0, Time_signature, 4, 2, 24, 8
1, 5271, Note_on_c, 0, 62, 9
1, 5286, Note_off_c, 0, 62, 9
1, 5292, Note_on_c, 0, 57, 9
1, 5335, Note_off_c, 0, 57, 9
1, 5338, Note_on_c, 0, 53, 9
1, 5467, Note_off_c, 0, 53, 9
1, 5472, Note_on_c, 0, 57, 9
1, 5505, Note_off_c, 0, 57, 9
1, 5514, Note_on_c, 0, 60, 9
1, 5648, Note_off_c, 0, 60, 9
1, 5652, Note_on_c, 0, 61, 9
1, 5739, Note_off_c, 0, 61, 9
1, 5745, Note_on_c, 0, 60, 53
1, 5834, Note_off_c, 0, 60, 53
1, 5837, Note_on_c, 0, 58, 114
1, 5914, Note_off_c, 0, 58, 114
1, 5918, Note_on_c, 0, 57, 110
1, 5976, Note_off_c, 0, 57, 110
1, 5978, Note_on_c, 0, 60, 114
1, 6032, Note_off_c, 0, 60, 114
1, 6036, Note_on_c, 0, 61, 112
1, 6072, Note_off_c, 0, 61, 112
1, 6075, Note_on_c, 0, 66, 112
1, 6203, Note_off_c, 0, 66, 112
1, 6212, Note_on_c, 0, 65, 111
1, 6271, Note_off_c, 0, 65, 111
1, 6275, Note_on_c, 0, 61, 108
1, 6397, Note_off_c, 0, 61, 108
1, 6403, Note_on_c, 0, 59, 103
1, 6461, Note_off_c, 0, 59, 103
1, 6464, Note_on_c, 0, 60, 102
1, 6787, Note_off_c, 0, 60, 102
1, 6797, Note_on_c, 0, 63, 106
1, 6867, Note_off_c, 0, 63, 106
1, 6889, Note_on_c, 0, 55, 9
1, 7255, Note_off_c, 0, 55, 9
1, 8381, Note_on_c, 0, 67, 118
1, 8560, Note_off_c, 0, 67, 118
1, 8566, Note_on_c, 0, 70, 106
1, 8585, Note_off_c, 0, 70, 106
1, 8586, Note_on_c, 0, 73, 115
1, 8711, Note_off_c, 0, 73, 115
1, 8714, Note_on_c, 0, 75, 112
1, 8809, Note_off_c, 0, 75, 112
1, 8812, Note_on_c, 0, 76, 108
1, 8867, Note_off_c, 0, 76, 108
1, 8869, Note_on_c, 0, 77, 59
1, 8945, Note_off_c, 0, 77, 59
1, 8949, Note_on_c, 0, 76, 9
1, 8999, Note_off_c, 0, 76, 9
1, 9002, Note_on_c, 0, 75, 9
1, 9109, Note_off_c, 0, 75, 9
1, 9113, Note_on_c, 0, 73, 105
1, 9213, Note_off_c, 0, 73, 105
1, 9215, Note_on_c, 0, 72, 101
1, 9282, Note_off_c, 0, 72, 101
1, 9282, Note_on_c, 0, 70, 114
1, 9341, Note_off_c, 0, 70, 114
1, 9347, Note_on_c, 0, 69, 105
1, 9471, Note_off_c, 0, 69, 105
1, 9474, Note_on_c, 0, 71, 99
1, 9539, Note_off_c, 0, 71, 99
1, 9542, Note_on_c, 0, 72, 110
1, 9695, Note_off_c, 0, 72, 110
1, 9698, Note_on_c, 0, 69, 113
1, 9748, Note_off_c, 0, 69, 113
1, 9752, Note_on_c, 0, 70, 111
1, 9836, Note_off_c, 0, 70, 111
1, 9849, Note_on_c, 0, 65, 113
1, 9980, Note_off_c, 0, 65, 113
1, 10821, Note_on_c, 0, 76, 9
1, 11044, Note_off_c, 0, 76, 9
1, 11046, Note_on_c, 0, 73, 114
1, 11115, Note_off_c, 0, 73, 114
1, 11119, Note_on_c, 0, 75, 104
1, 11421, Note_off_c, 0, 75, 104
1, 11514, Note_on_c, 0, 73, 113
1, 11646, Note_off_c, 0, 73, 113
1, 11650, Note_on_c, 0, 70, 117
1, 11740, Note_off_c, 0, 70, 117
1, 11884, Note_on_c, 0, 66, 119
1, 11961, Note_off_c, 0, 66, 119
1, 11970, Note_on_c, 0, 67, 102
1, 12054, Note_off_c, 0, 67, 102
1, 12072, Note_on_c, 0, 70, 98
1, 12206, Note_off_c, 0, 70, 98
1, 12212, Note_on_c, 0, 69, 109
1, 12301, Note_off_c, 0, 69, 109
1, 12561, Note_on_c, 0, 72, 118
1, 12663, Note_off_c, 0, 72, 118
1, 12667, Note_on_c, 0, 70, 104
1, 12748, Note_off_c, 0, 70, 104
1, 12752, Note_on_c, 0, 65, 108
1, 12877, Note_off_c, 0, 65, 108
1, 12887, Note_on_c, 0, 61, 110
1, 12955, Note_off_c, 0, 61, 110
1, 12961, Note_on_c, 0, 58, 121
1, 12994, Note_off_c, 0, 58, 121
1, 12999, Note_on_c, 0, 57, 118
1, 13036, Note_off_c, 0, 57, 118
1, 13039, Note_on_c, 0, 68, 115
1, 13117, Note_off_c, 0, 68, 115
1, 13119, Note_on_c, 0, 70, 111
1, 13146, Note_off_c, 0, 70, 111
1, 13148, Note_on_c, 0, 68, 99
1, 13205, Note_off_c, 0, 68, 99
1, 13214, Note_on_c, 0, 66, 71
1, 13333, Note_off_c, 0, 66, 71
1, 13336, Note_on_c, 0, 65, 18
1, 13442, Note_off_c, 0, 65, 18
1, 13442, Note_on_c, 0, 63, 109
1, 13531, Note_off_c, 0, 63, 109
1, 13531, Note_on_c, 0, 61, 103
1, 13625, Note_off_c, 0, 61, 103
1, 13632, Note_on_c, 0, 60, 106
1, 13699, Note_off_c, 0, 60, 106
1, 13717, Note_on_c, 0, 58, 115
1, 13784, Note_off_c, 0, 58, 115
1, 13787, Note_on_c, 0, 57, 107
1, 13876, Note_off_c, 0, 57, 107
1, 13892, Note_on_c, 0, 66, 108
1, 14043, Note_off_c, 0, 66, 108
1, 14081, Note_on_c, 0, 64, 104
1, 14146, Note_off_c, 0, 64, 104
1, 14152, Note_on_c, 0, 65, 107
1, 14309, Note_off_c, 0, 65, 107
1, 14314, Note_on_c, 0, 61, 116
1, 14415, Note_off_c, 0, 61, 116
1, 14421, Note_on_c, 0, 58, 115
1, 14507, Note_off_c, 0, 58, 115
1, 14564, Note_on_c, 0, 64, 97
1, 14654, Note_off_c, 0, 64, 97
1, 14657, Note_on_c, 0, 65, 92
1, 14730, Note_off_c, 0, 65, 92
1, 14734, Note_on_c, 0, 64, 82
1, 14784, Note_off_c, 0, 64, 82
1, 14790, Note_on_c, 0, 63, 114
1, 14907, Note_off_c, 0, 63, 114
1, 14913, Note_on_c, 0, 61, 108
1, 14955, Note_off_c, 0, 61, 108
1, 14957, Note_on_c, 0, 60, 108
1, 15033, Note_off_c, 0, 60, 108
1, 15037, Note_on_c, 0, 58, 94
1, 15105, Note_off_c, 0, 58, 94
1, 15109, Note_on_c, 0, 57, 96
1, 15185, Note_off_c, 0, 57, 96
1, 15231, Note_on_c, 0, 63, 103
1, 15288, Note_off_c, 0, 63, 103
1, 15293, Note_on_c, 0, 66, 115
1, 15387, Note_off_c, 0, 66, 115
1, 15399, Note_on_c, 0, 65, 116
1, 15498, Note_off_c, 0, 65, 116
1, 15520, Note_on_c, 0, 59, 117
1, 15600, Note_off_c, 0, 59, 117
1, 15616, Note_on_c, 0, 57, 113
1, 15689, Note_off_c, 0, 57, 113
1, 15692, Note_on_c, 0, 58, 107
1, 15781, Note_off_c, 0, 58, 107
1, 15791, Note_on_c, 0, 65, 105
1, 15875, Note_off_c, 0, 65, 105
1, 15887, Note_on_c, 0, 56, 102
1, 16018, Note_off_c, 0, 56, 102
1, 16030, Note_on_c, 0, 54, 97
1, 16094, Note_off_c, 0, 54, 97
1, 16097, Note_on_c, 0, 55, 104
1, 16537, Note_off_c, 0, 55, 104
1, 17312, Note_on_c, 0, 64, 103
1, 17366, Note_off_c, 0, 64, 103
1, 17369, Note_on_c, 0, 65, 120
1, 17443, Note_off_c, 0, 65, 120
1, 17453, Note_on_c, 0, 68, 109
1, 17502, Note_off_c, 0, 68, 109
1, 17508, Note_on_c, 0, 75, 88
1, 17565, Note_off_c, 0, 75, 88
1, 17619, Note_on_c, 0, 78, 117
1, 17953, Note_off_c, 0, 78, 117
1, 17969, Note_on_c, 0, 77, 104
1, 18086, Note_off_c, 0, 77, 104
1, 18095, Note_on_c, 0, 75, 100
1, 18161, Note_off_c, 0, 75, 100
1, 18163, Note_on_c, 0, 74, 108
1, 18241, Note_off_c, 0, 74, 108
1, 18306, Note_on_c, 0, 65, 95
1, 18365, Note_off_c, 0, 65, 95
1, 18371, Note_on_c, 0, 68, 107
1, 18473, Note_off_c, 0, 68, 107
1, 18478, Note_on_c, 0, 71, 120
1, 18563, Note_off_c, 0, 71, 120
1, 18565, Note_on_c, 0, 70, 114
1, 18642, Note_off_c, 0, 70, 114
1, 18646, Note_on_c, 0, 68, 112
1, 18737, Note_off_c, 0, 68, 112
1, 18743, Note_on_c, 0, 66, 110
1, 18786, Note_off_c, 0, 66, 110
1, 18799, Note_on_c, 0, 65, 95
1, 18896, Note_off_c, 0, 65, 95
1, 18940, Note_on_c, 0, 63, 9
1, 19029, Note_off_c, 0, 63, 9
1, 19035, Note_on_c, 0, 66, 9
1, 19118, Note_off_c, 0, 66, 9
1, 19123, Note_on_c, 0, 65, 9
1, 19217, Note_off_c, 0, 65, 9
1, 19229, Note_on_c, 0, 63, 9
1, 19323, Note_off_c, 0, 63, 9
1, 19325, Note_on_c, 0, 62, 9
1, 19401, Note_off_c, 0, 62, 9
1, 19424, Note_on_c, 0, 58, 9
1, 19471, Note_off_c, 0, 58, 9
1, 19477, Note_on_c, 0, 65, 9
1, 19627, Note_off_c, 0, 65, 9
1, 19636, Note_on_c, 0, 63, 9
1, 19741, Note_off_c, 0, 63, 9
1, 20080, Note_on_c, 0, 77, 104
1, 20180, Note_off_c, 0, 77, 104
1, 20192, Note_on_c, 0, 75, 112
1, 20252, Note_off_c, 0, 75, 112
1, 20255, Note_on_c, 0, 73, 87
1, 20293, Note_off_c, 0, 73, 87
1, 20294, Note_on_c, 0, 70, 118
1, 20361, Note_off_c, 0, 70, 118
1, 20364, Note_on_c, 0, 66, 116
1, 20487, Note_off_c, 0, 66, 116
1, 20494, Note_on_c, 0, 63, 121
1, 20554, Note_off_c, 0, 63, 121
1, 20582, Note_on_c, 0, 58, 120
1, 20621, Note_off_c, 0, 58, 120
1, 20635, Note_on_c, 0, 61, 79
1, 20796, Note_off_c, 0, 61, 79
1, 20796, Note_on_c, 0, 59, 67
1, 20832, Note_off_c, 0, 59, 67
1, 20838, Note_on_c, 0, 60, 114
1, 20953, Note_off_c, 0, 60, 114
1, 20965, Note_on_c, 0, 65, 106
1, 21042, Note_off_c, 0, 65, 106
1, 21046, Note_on_c, 0, 64, 112
1, 21095, Note_off_c, 0, 64, 112
1, 21103, Note_on_c, 0, 64, 114
1, 21180, Note_off_c, 0, 64, 114
1, 21247, Note_on_c, 0, 71, 115
1, 21316, Note_off_c, 0, 71, 115
1, 21318, Note_on_c, 0, 70, 114
1, 21405, Note_off_c, 0, 70, 114
1, 21406, Note_on_c, 0, 69, 108
1, 21467, Note_off_c, 0, 69, 108
1, 21469, Note_on_c, 0, 70, 103
1, 21497, Note_off_c, 0, 70, 103
1, 21497, Note_on_c, 0, 69, 100
1, 21538, Note_off_c, 0, 69, 100
1, 21543, Note_on_c, 0, 66, 103
1, 21620, Note_off_c, 0, 66, 103
1, 21625, Note_on_c, 0, 64, 111
1, 21680, Note_off_c, 0, 64, 111
1, 21729, Note_on_c, 0, 68, 102
1, 21862, Note_off_c, 0, 68, 102
1, 21876, Note_on_c, 0, 63, 96
1, 21905, Note_off_c, 0, 63, 96
1, 21905, Note_on_c, 0, 64, 113
1, 21974, Note_off_c, 0, 64, 113
1, 21980, Note_on_c, 0, 68, 113
1, 22039, Note_off_c, 0, 68, 113
1, 22045, Note_on_c, 0, 70, 105
1, 22105, Note_off_c, 0, 70, 105
1, 22108, Note_on_c, 0, 75, 103
1, 22237, Note_off_c, 0, 75, 103
1, 22241, Note_on_c, 0, 74, 87
1, 22317, Note_off_c, 0, 74, 87
1, 22322, Note_on_c, 0, 73, 83
1, 22455, Note_off_c, 0, 73, 83
1, 22460, Note_on_c, 0, 75, 9
1, 22495, Note_off_c, 0, 75, 9
1, 22497, Note_on_c, 0, 73, 9
1, 22575, Note_off_c, 0, 73, 9
1, 22585, Note_on_c, 0, 72, 9
1, 22628, Note_off_c, 0, 72, 9
1, 22630, Note_on_c, 0, 70, 9
1, 22683, Note_off_c, 0, 70, 9
1, 22689, Note_on_c, 0, 69, 9
1, 22836, Note_off_c, 0, 69, 9
1, 23173, Note_on_c, 0, 70, 110
1, 23225, Note_off_c, 0, 70, 110
1, 23247, Note_on_c, 0, 72, 112
1, 23434, Note_off_c, 0, 72, 112
1, 23448, Note_on_c, 0, 70, 9
1, 23561, Note_off_c, 0, 70, 9
1, 23564, Note_on_c, 0, 65, 9
1, 23640, Note_off_c, 0, 65, 9
1, 23643, Note_on_c, 0, 68, 9
1, 23749, Note_off_c, 0, 68, 9
1, 23761, Note_on_c, 0, 67, 9
1, 23842, Note_off_c, 0, 67, 9
1, 23878, Note_on_c, 0, 61, 9
1, 23964, Note_off_c, 0, 61, 9
1, 23977, Note_on_c, 0, 63, 9
1, 24027, Note_off_c, 0, 63, 9
1, 24040, Note_on_c, 0, 66, 9
1, 24181, Note_off_c, 0, 66, 9
1, 24212, Note_on_c, 0, 66, 103
1, 24595, Note_off_c, 0, 66, 103
1, 25206, Note_on_c, 0, 64, 111
1, 25282, Note_off_c, 0, 64, 111
1, 25293, Note_on_c, 0, 65, 117
1, 25371, Note_off_c, 0, 65, 117
1, 25373, Note_on_c, 0, 66, 107
1, 25464, Note_off_c, 0, 66, 107
1, 25477, Note_on_c, 0, 65, 108
1, 25553, Note_off_c, 0, 65, 108
1, 25559, Note_on_c, 0, 63, 58
1, 26047, Note_off_c, 0, 63, 58
1, 26060, Note_on_c, 0, 61, 115
1, 26151, Note_off_c, 0, 61, 115
1, 26158, Note_on_c, 0, 60, 117
1, 26225, Note_off_c, 0, 60, 117
1, 26255, Note_on_c, 0, 58, 85
1, 26329, Note_off_c, 0, 58, 85
1, 26333, Note_on_c, 0, 57, 9
1, 26396, Note_off_c, 0, 57, 9
1, 26408, Note_on_c, 0, 66, 9
1, 26546, Note_off_c, 0, 66, 9
1, 26560, Note_on_c, 0, 60, 66
1, 26589, Note_off_c, 0, 60, 66
1, 26604, Note_on_c, 0, 64, 119
1, 26653, Note_off_c, 0, 64, 119
1, 26676, Note_on_c, 0, 65, 107
1, 26793, Note_off_c, 0, 65, 107
1, 26805, Note_on_c, 0, 61, 111
1, 26891, Note_off_c, 0, 61, 111
1, 26908, Note_on_c, 0, 58, 110
1, 26985, Note_off_c, 0, 58, 110
1, 26996, Note_on_c, 0, 53, 108
1, 27054, Note_off_c, 0, 53, 108
1, 27085, Note_on_c, 0, 64, 86
1, 27150, Note_off_c, 0, 64, 86
1, 27156, Note_on_c, 0, 65, 99
1, 27208, Note_off_c, 0, 65, 99
1, 27217, Note_on_c, 0, 64, 92
1, 27288, Note_off_c, 0, 64, 92
1, 27297, Note_on_c, 0, 63, 80
1, 27384, Note_off_c, 0, 63, 80
1, 27389, Note_on_c, 0, 61, 115
1, 27440, Note_off_c, 0, 61, 115
1, 27447, Note_on_c, 0, 60, 110
1, 27529, Note_off_c, 0, 60, 110
1, 27529, Note_on_c, 0, 58, 108
1, 27605, Note_off_c, 0, 58, 108
1, 27625, Note_on_c, 0, 57, 104
1, 27731, Note_off_c, 0, 57, 104
1, 27770, Note_on_c, 0, 65, 97
1, 27811, Note_off_c, 0, 65, 97
1, 27813, Note_on_c, 0, 66, 105
1, 27931, Note_off_c, 0, 66, 105
1, 27942, Note_on_c, 0, 65, 115
1, 28017, Note_off_c, 0, 65, 115
1, 28027, Note_on_c, 0, 61, 67
1, 28362, Note_off_c, 0, 61, 67
1, 29167, Note_on_c, 0, 53, 116
1, 29270, Note_off_c, 0, 53, 116
1, 29287, Note_on_c, 0, 58, 79
1, 29349, Note_off_c, 0, 58, 79
1, 29360, Note_on_c, 0, 61, 108
1, 29487, Note_off_c, 0, 61, 108
1, 29497, Note_on_c, 0, 58, 104
1, 29530, Note_off_c, 0, 58, 104
1, 29533, Note_on_c, 0, 57, 99
1, 29560, Note_off_c, 0, 57, 99
1, 29560, Note_on_c, 0, 54, 95
1, 29638, Note_off_c, 0, 54, 95
1, 29644, Note_on_c, 0, 57, 90
1, 29713, Note_off_c, 0, 57, 90
1, 29723, Note_on_c, 0, 60, 88
1, 29818, Note_off_c, 0, 60, 88
1, 29853, Note_on_c, 0, 57, 18
1, 29933, Note_off_c, 0, 57, 18
1, 29942, Note_on_c, 0, 58, 9
1, 30041, Note_off_c, 0, 58, 9
1, 30044, Note_on_c, 0, 60, 110
1, 30133, Note_off_c, 0, 60, 110
1, 30134, Note_on_c, 0, 61, 112
1, 30222, Note_off_c, 0, 61, 112
1, 30234, Note_on_c, 0, 63, 116
1, 30335, Note_off_c, 0, 63, 116
1, 30339, Note_on_c, 0, 64, 115
1, 30398, Note_off_c, 0, 64, 115
1, 30402, Note_on_c, 0, 65, 97
1, 30501, Note_off_c, 0, 65, 97
1, 30506, Note_on_c, 0, 66, 95
1, 30605, Note_off_c, 0, 66, 95
1, 30612, Note_on_c, 0, 65, 106
1, 30704, Note_off_c, 0, 65, 106
1, 30759, Note_on_c, 0, 63, 112
1, 30818, Note_off_c, 0, 63, 112
1, 30830, Note_on_c, 0, 60, 101
1, 30912, Note_off_c, 0, 60, 101
1, 30921, Note_on_c, 0, 61, 90
1, 31154, Note_off_c, 0, 61, 90
1, 32005, Note_on_c, 0, 71, 9
1, 32073, Note_off_c, 0, 71, 9
1, 32073, Note_on_c, 0, 72, 9
1, 32324, Note_off_c, 0, 72, 9
1, 32346, Note_on_c, 0, 69, 9
1, 32397, Note_off_c, 0, 69, 9
1, 32409, Note_on_c, 0, 70, 74
1, 32515, Note_off_c, 0, 70, 74
1, 32524, Note_on_c, 0, 65, 113
1, 32631, Note_off_c, 0, 65, 113
1, 32645, Note_on_c, 0, 61, 111
1, 32712, Note_off_c, 0, 61, 111
1, 32738, Note_on_c, 0, 58, 101
1, 32784, Note_off_c, 0, 58, 101
1, 32801, Note_on_c, 0, 66, 116
1, 32866, Note_off_c, 0, 66, 116
1, 32880, Note_on_c, 0, 67, 110
1, 32909, Note_off_c, 0, 67, 110
1, 32918, Note_on_c, 0, 66, 118
1, 33003, Note_off_c, 0, 66, 118
1, 33010, Note_on_c, 0, 65, 120
1, 33093, Note_off_c, 0, 65, 120
1, 33118, Note_on_c, 0, 63, 116
1, 33323, Note_off_c, 0, 63, 116
1, 33670, Note_on_c, 0, 61, 114
1, 33786, Note_off_c, 0, 61, 114
1, 33790, Note_on_c, 0, 60, 112
1, 33856, Note_off_c, 0, 60, 112
1, 33874, Note_on_c, 0, 58, 120
1, 33956, Note_off_c, 0, 58, 120
1, 33960, Note_on_c, 0, 57, 118
1, 34065, Note_off_c, 0, 57, 118
1, 34070, Note_on_c, 0, 59, 100
1, 34141, Note_off_c, 0, 59, 100
1, 34146, Note_on_c, 0, 60, 86
1, 34271, Note_off_c, 0, 60, 86
1, 34280, Note_on_c, 0, 57, 9
1, 34342, Note_off_c, 0, 57, 9
1, 34349, Note_on_c, 0, 58, 72
1, 34464, Note_off_c, 0, 58, 72
1, 34465, Note_on_c, 0, 55, 112
1, 34778, Note_off_c, 0, 55, 112
1, 35492, Note_on_c, 0, 65, 96
1, 35591, Note_off_c, 0, 65, 96
1, 35599, Note_on_c, 0, 70, 95
1, 35658, Note_off_c, 0, 70, 95
1, 35662, Note_on_c, 0, 73, 103
1, 35753, Note_off_c, 0, 73, 103
1, 35754, Note_on_c, 0, 77, 91
1, 35855, Note_off_c, 0, 77, 91
1, 35896, Note_on_c, 0, 67, 106
1, 35997, Note_off_c, 0, 67, 106
1, 36064, Note_on_c, 0, 67, 105
1, 36160, Note_off_c, 0, 67, 105
1, 36275, Note_on_c, 0, 75, 105
1, 36384, Note_off_c, 0, 75, 105
1, 36457, Note_on_c, 0, 75, 87
1, 36559, Note_off_c, 0, 75, 87
1, 36560, Note_on_c, 0, 72, 95
1, 36935, Note_off_c, 0, 72, 95
1, 37167, Note_on_c, 0, 75, 97
1, 37285, Note_off_c, 0, 75, 97
1, 37304, Note_on_c, 0, 72, 89
1, 37358, Note_off_c, 0, 72, 89
1, 37363, Note_on_c, 0, 73, 9
1, 37424, Note_off_c, 0, 73, 9
1, 37427, Note_on_c, 0, 74, 9
1, 37462, Note_off_c, 0, 74, 9
1, 37462, Note_on_c, 0, 73, 9
1, 37529, Note_off_c, 0, 73, 9
1, 37535, Note_on_c, 0, 72, 9
1, 37650, Note_off_c, 0, 72, 9
1, 37656, Note_on_c, 0, 70, 9
1, 37721, Note_off_c, 0, 70, 9
1, 37738, Note_on_c, 0, 69, 9
1, 37834, Note_off_c, 0, 69, 9
1, 37914, Note_on_c, 0, 60, 9
1, 38029, Note_off_c, 0, 60, 9
1, 38032, Note_on_c, 0, 66, 9
1, 38382, Note_off_c, 0, 66, 9
1, 38394, Note_on_c, 0, 65, 9
1, 38483, Note_off_c, 0, 65, 9
1, 38893, Note_on_c, 0, 60, 9
1, 39001, Note_off_c, 0, 60, 9
1, 39011, Note_on_c, 0, 62, 9
1, 39065, Note_off_c, 0, 62, 9
1, 39078, Note_on_c, 0, 63, 9
1, 39227, Note_off_c, 0, 63, 9
1, 39237, Note_on_c, 0, 62, 9
1, 39279, Note_off_c, 0, 62, 9
1, 39296, Note_on_c, 0, 61, 9
1, 39338, Note_off_c, 0, 61, 9
1, 39352, Note_on_c, 0, 60, 9
1, 39444, Note_off_c, 0, 60, 9
1, 39447, Note_on_c, 0, 58, 9
1, 39491, Note_off_c, 0, 58, 9
1, 39501, Note_on_c, 0, 57, 9
1, 39578, Note_off_c, 0, 57, 9
1, 39578, Note_on_c, 0, 63, 9
1, 39635, Note_off_c, 0, 63, 9
1, 39641, Note_on_c, 0, 66, 9
1, 39764, Note_off_c, 0, 66, 9
1, 39766, Note_on_c, 0, 65, 9
1, 39875, Note_off_c, 0, 65, 9
1, 39893, Note_on_c, 0, 59, 9
1, 39955, Note_off_c, 0, 59, 9
1, 39966, Note_on_c, 0, 57, 9
1, 40043, Note_off_c, 0, 57, 9
1, 40055, Note_on_c, 0, 58, 9
1, 40144, Note_off_c, 0, 58, 9
1, 40160, Note_on_c, 0, 65, 80
1, 40249, Note_off_c, 0, 65, 80
1, 40255, Note_on_c, 0, 56, 80
1, 40335, Note_off_c, 0, 56, 80
1, 40346, Note_on_c, 0, 54, 80
1, 40384, Note_off_c, 0, 54, 80
1, 40388, Note_on_c, 0, 55, 80
1, 40634, Note_off_c, 0, 55, 80
1, 41325, Note_on_c, 0, 65, 80
1, 41433, Note_off_c, 0, 65, 80
1, 41434, Note_on_c, 0, 68, 80
1, 41475, Note_off_c, 0, 68, 80
1, 41481, Note_on_c, 0, 75, 80
1, 41524, Note_on_c, 0, 79, 80
1, 41524, Note_off_c, 0, 75, 80
1, 42126, Note_off_c, 0, 79, 80
1, 42147, Note_on_c, 0, 77, 80
1, 42268, Note_off_c, 0, 77, 80
1, 42281, Note_on_c, 0, 75, 80
1, 42351, Note_off_c, 0, 75, 80
1, 42354, Note_on_c, 0, 74, 80
1, 42425, Note_off_c, 0, 74, 80
1, 42432, Note_on_c, 0, 65, 80
1, 42526, Note_off_c, 0, 65, 80
1, 42539, Note_on_c, 0, 68, 80
1, 42620, Note_off_c, 0, 68, 80
1, 42621, Note_on_c, 0, 70, 80
1, 42651, Note_off_c, 0, 70, 80
1, 42653, Note_on_c, 0, 71, 80
1, 42721, Note_off_c, 0, 71, 80
1, 42728, Note_on_c, 0, 70, 80
1, 42780, Note_off_c, 0, 70, 80
1, 42786, Note_on_c, 0, 69, 80
1, 42879, Note_off_c, 0, 69, 80
1, 42882, Note_on_c, 0, 68, 80
1, 42974, Note_off_c, 0, 68, 80
1, 42981, Note_on_c, 0, 67, 80
1, 43020, Note_off_c, 0, 67, 80
1, 43033, Note_on_c, 0, 66, 80
1, 43133, Note_off_c, 0, 66, 80
1, 43233, Note_on_c, 0, 62, 80
1, 43338, Note_off_c, 0, 62, 80
1, 43355, Note_on_c, 0, 64, 80
1, 43382, Note_off_c, 0, 64, 80
1, 43387, Note_on_c, 0, 65, 80
1, 43648, Note_off_c, 0, 65, 80
1, 43654, Note_on_c, 0, 63, 80
1, 43723, Note_off_c, 0, 63, 80
1, 43820, Note_on_c, 0, 63, 80
1, 43915, Note_off_c, 0, 63, 80
1, 43943, Note_on_c, 0, 58, 80
1, 44221, Note_off_c, 0, 58, 80
1, 44572, Note_on_c, 0, 71, 80
1, 44615, Note_off_c, 0, 71, 80
1, 44627, Note_on_c, 0, 72, 80
1, 44689, Note_off_c, 0, 72, 80
1, 44694, Note_on_c, 0, 71, 80
1, 44788, Note_off_c, 0, 71, 80
1, 44791, Note_on_c, 0, 70, 80
1, 44856, Note_off_c, 0, 70, 80
1, 44858, Note_on_c, 0, 69, 80
1, 44948, Note_off_c, 0, 69, 80
1, 44952, Note_on_c, 0, 68, 80
1, 45036, Note_off_c, 0, 68, 80
1, 45042, Note_on_c, 0, 66, 80
1, 45174, Note_off_c, 0, 66, 80
1, 45175, Note_on_c, 0, 63, 80
1, 45219, Note_off_c, 0, 63, 80
1, 45245, Note_on_c, 0, 59, 80
1, 45318, Note_off_c, 0, 59, 80
1, 45325, Note_on_c, 0, 61, 80
1, 45455, Note_off_c, 0, 61, 80
1, 45460, Note_on_c, 0, 59, 80
1, 45530, Note_off_c, 0, 59, 80
1, 45540, Note_on_c, 0, 60, 80
1, 45590, Note_off_c, 0, 60, 80
1, 45616, Note_on_c, 0, 65, 80
1, 45737, Note_off_c, 0, 65, 80
1, 45746, Note_on_c, 0, 64, 80
1, 45829, Note_off_c, 0, 64, 80
1, 45842, Note_on_c, 0, 60, 80
1, 45884, Note_off_c, 0, 60, 80
1, 45888, Note_on_c, 0, 68, 80
1, 45985, Note_off_c, 0, 68, 80
1, 45995, Note_on_c, 0, 66, 80
1, 46089, Note_off_c, 0, 66, 80
1, 46093, Note_on_c, 0, 65, 80
1, 46180, Note_off_c, 0, 65, 80
1, 46185, Note_on_c, 0, 68, 80
1, 46224, Note_off_c, 0, 68, 80
1, 46224, Note_on_c, 0, 73, 80
1, 46258, Note_off_c, 0, 73, 80
1, 46260, Note_on_c, 0, 75, 80
1, 46399, Note_off_c, 0, 75, 80
1, 46404, Note_on_c, 0, 72, 80
1, 46450, Note_on_c, 0, 73, 80
1, 46450, Note_off_c, 0, 72, 80
1, 46551, Note_off_c, 0, 73, 80
1, 46564, Note_on_c, 0, 68, 80
1, 46682, Note_off_c, 0, 68, 80
1, 47394, Note_on_c, 0, 72, 80
1, 47512, Note_off_c, 0, 72, 80
1, 47516, Note_on_c, 0, 69, 80
1, 47557, Note_off_c, 0, 69, 80
1, 47575, Note_on_c, 0, 70, 80
1, 47670, Note_off_c, 0, 70, 80
1, 47687, Note_on_c, 0, 65, 80
1, 47816, Note_off_c, 0, 65, 80
1, 47860, Note_on_c, 0, 59, 80
1, 47889, Note_off_c, 0, 59, 80
1, 47890, Note_on_c, 0, 58, 80
1, 47929, Note_off_c, 0, 58, 80
1, 47946, Note_on_c, 0, 65, 80
1, 48087, Note_off_c, 0, 65, 80
1, 48347, Note_on_c, 0, 66, 80
1, 48429, Note_off_c, 0, 66, 80
1, 48497, Note_on_c, 0, 65, 80
1, 48652, Note_off_c, 0, 65, 80
1, 48674, Note_on_c, 0, 59, 80
1, 48769, Note_off_c, 0, 59, 80
1, 49029, Note_on_c, 0, 57, 80
1, 49122, Note_off_c, 0, 57, 80
1, 49131, Note_on_c, 0, 58, 80
1, 49184, Note_off_c, 0, 58, 80
1, 49184, Note_on_c, 0, 65, 80
1, 49283, Note_off_c, 0, 65, 80
1, 49292, Note_on_c, 0, 61, 80
1, 49369, Note_off_c, 0, 61, 80
1, 49369, Note_on_c, 0, 58, 80
1, 49442, Note_off_c, 0, 58, 80
1, 49474, Note_on_c, 0, 63, 80
1, 49808, Note_off_c, 0, 63, 80
1, 50015, Note_on_c, 0, 61, 80
1, 50113, Note_off_c, 0, 61, 80
1, 50122, Note_on_c, 0, 60, 80
1, 50165, Note_off_c, 0, 60, 80
1, 50168, Note_on_c, 0, 58, 80
1, 50217, Note_off_c, 0, 58, 80
1, 50228, Note_on_c, 0, 57, 80
1, 50307, Note_off_c, 0, 57, 80
1, 50318, Note_on_c, 0, 66, 80
1, 50420, Note_off_c, 0, 66, 80
1, 50420, Note_on_c, 0, 63, 80
1, 50479, Note_off_c, 0, 63, 80
1, 50488, Note_on_c, 0, 64, 80
1, 50542, Note_off_c, 0, 64, 80
1, 50546, Note_on_c, 0, 65, 80
1, 50684, Note_off_c, 0, 65, 80
1, 50691, Note_on_c, 0, 61, 80
1, 50754, Note_off_c, 0, 61, 80
1, 50766, Note_on_c, 0, 58, 80
1, 50828, Note_off_c, 0, 58, 80
1, 50834, Note_on_c, 0, 53, 80
1, 50942, Note_off_c, 0, 53, 80
1, 50951, Note_on_c, 0, 63, 80
1, 51052, Note_off_c, 0, 63, 80
1, 51054, Note_on_c, 0, 61, 80
1, 51144, Note_off_c, 0, 61, 80
1, 51156, Note_on_c, 0, 60, 80
1, 51233, Note_off_c, 0, 60, 80
1, 51240, Note_on_c, 0, 58, 80
1, 51314, Note_off_c, 0, 58, 80
1, 51317, Note_on_c, 0, 57, 80
1, 51394, Note_off_c, 0, 57, 80
1, 51438, Note_on_c, 0, 62, 80
1, 51479, Note_off_c, 0, 62, 80
1, 51479, Note_on_c, 0, 66, 80
1, 51593, Note_off_c, 0, 66, 80
1, 51598, Note_on_c, 0, 65, 80
1, 51700, Note_off_c, 0, 65, 80
1, 51710, Note_on_c, 0, 71, 80
1, 51970, Note_off_c, 0, 71, 80
1, 51979, Note_on_c, 0, 69, 80
1, 52055, Note_off_c, 0, 69, 80
1, 52070, Note_on_c, 0, 70, 80
1, 52177, Note_off_c, 0, 70, 80
1, 52189, Note_on_c, 0, 77, 80
1, 52319, Note_off_c, 0, 77, 80
1, 52346, Note_on_c, 0, 67, 80
1, 52701, Note_off_c, 0, 67, 80
1, 52967, Note_on_c, 0, 72, 80
1, 53019, Note_off_c, 0, 72, 80
1, 53022, Note_on_c, 0, 70, 80
1, 53090, Note_off_c, 0, 70, 80
1, 53099, Note_on_c, 0, 68, 80
1, 53160, Note_off_c, 0, 68, 80
1, 53165, Note_on_c, 0, 67, 80
1, 53209, Note_off_c, 0, 67, 80
1, 53216, Note_on_c, 0, 68, 80
1, 53282, Note_off_c, 0, 68, 80
1, 53295, Note_on_c, 0, 72, 80
1, 53418, Note_off_c, 0, 72, 80
1, 53427, Note_on_c, 0, 70, 80
1, 53481, Note_off_c, 0, 70, 80
1, 53481, Note_on_c, 0, 68, 80
1, 53562, Note_off_c, 0, 68, 80
1, 53566, Note_on_c, 0, 67, 80
1, 53628, Note_off_c, 0, 67, 80
1, 53628, End_track
0, 0, End_of_file
