0, 0, Header, 1, 1, 192
1, 0, Start_track
1, 0, Title_t, "Melody"
1, 0, Tempo, 263157
1, 0, Key_signature, -2, "major"
1, 0, Time_signature, 4, 2, 24, 8
1, 2620, Note_on_c, 0, 62, 112
1, 2670, Note_off_c, 0, 62, 112
1, 2675, Note_on_c, 0, 63, 108
1, 2722, Note_off_c, 0, 63, 108
1, 2736, Note_on_c, 0, 64, 107
1, 2747, Note_off_c, 0, 64, 107
1, 2770, Note_on_c, 0, 65, 115
1, 2924, Note_off_c, 0, 65, 115
1, 2926, Note_on_c, 0, 62, 98
1, 2967, Note_off_c, 0, 62, 98
1, 2987, Note_on_c, 0, 63, 108
1, 3091, Note_off_c, 0, 63, 108
1, 3096, Note_on_c, 0, 65, 108
1, 3203, Note_off_c, 0, 65, 108
1, 3310, Note_on_c, 0, 62, 102
1, 3408, Note_off_c, 0, 62, 102
1, 3485, Note_on_c, 0, 60, 101
1, 3568, Note_off_c, 0, 60, 101
1, 3576, Note_on_c, 0, 58, 95
1, 3692, Note_off_c, 0, 58, 95
1, 3766, Note_on_c, 0, 60, 94
1, 3959, Note_off_c, 0, 60, 94
1, 4095, Note_on_c, 0, 58, 101
1, 4199, Note_off_c, 0, 58, 101
1, 4201, Note_on_c, 0, 57, 87
1, 4272, Note_off_c, 0, 57, 87
1, 4274, Note_on_c, 0, 58, 87
1, 4342, Note_off_c, 0, 58, 87
1, 4374, Note_on_c, 0, 62, 112
1, 4457, Note_off_c, 0, 62, 112
1, 4457, Note_on_c, 0, 65, 115
1, 4561, Note_off_c, 0, 65, 115
1, 4561, Note_on_c, 0, 69, 111
1, 4641, Note_off_c, 0, 69, 111
1, 4646, Note_on_c, 0, 68, 114
1, 4750, Note_off_c, 0, 68, 114
1, 4750, Note_on_c, 0, 67, 107
1, 4833, Note_off_c, 0, 67, 107
1, 4838, Note_on_c, 0, 66, 120
1, 4918, Note_off_c, 0, 66, 120
1, 4923, Note_on_c, 0, 65, 115
1, 5051, Note_off_c, 0, 65, 115
1, 5053, Note_on_c, 0, 64, 106
1, 5130, Note_off_c, 0, 64, 106
1, 5130, Note_on_c, 0, 63, 99
1, 5216, Note_off_c, 0, 63, 99
1, 5248, Note_on_c, 0, 57, 83
1, 5387, Note_off_c, 0, 57, 83
1, 5529, Note_on_c, 0, 62, 105
1, 5648, Note_off_c, 0, 62, 105
1, 5662, Note_on_c, 0, 60, 103
1, 5748, Note_off_c, 0, 60, 103
1, 5748, Note_on_c, 0, 58, 99
1, 5834, Note_off_c, 0, 58, 99
1, 5842, Note_on_c, 0, 57, 99
1, 5916, Note_off_c, 0, 57, 99
1, 5948, Note_on_c, 0, 56, 99
1, 6016, Note_off_c, 0, 56, 99
1, 6024, Note_on_c, 0, 55, 94
1, 6077, Note_off_c, 0, 55, 94
1, 6077, Note_on_c, 0, 70, 107
1, 6199, Note_off_c, 0, 70, 107
1, 6207, Note_on_c, 0, 68, 118
1, 6287, Note_off_c, 0, 68, 118
1, 6298, Note_on_c, 0, 67, 114
1, 6390, Note_off_c, 0, 67, 114
1, 6390, Note_on_c, 0, 65, 104
1, 6497, Note_off_c, 0, 65, 104
1, 6497, Note_on_c, 0, 63, 100
1, 6598, Note_off_c, 0, 63, 100
1, 6616, Note_on_c, 0, 58, 84
1, 6711, Note_off_c, 0, 58, 84
1, 6888, Note_on_c, 0, 61, 102
1, 6992, Note_off_c, 0, 61, 102
1, 6992, Note_on_c, 0, 58, 99
1, 7078, Note_off_c, 0, 58, 99
1, 7078, Note_on_c, 0, 55, 101
1, 7170, Note_off_c, 0, 55, 101
1, 7187, Note_on_c, 0, 57, 99
1, 7255, Note_off_c, 0, 57, 99
1, 7255, Note_on_c, 0, 60, 109
1, 7365, Note_off_c, 0, 60, 109
1, 7376, Note_on_c, 0, 58, 96
1, 7453, Note_off_c, 0, 58, 96
1, 7464, Note_on_c, 0, 57, 92
1, 7541, Note_off_c, 0, 57, 92
1, 7555, Note_on_c, 0, 58, 91
1, 7611, Note_off_c, 0, 58, 91
1, 7622, Note_on_c, 0, 62, 115
1, 7747, Note_off_c, 0, 62, 115
1, 7758, Note_on_c, 0, 65, 88
1, 8091, Note_off_c, 0, 65, 88
1, 9049, Note_on_c, 0, 75, 93
1, 9099, Note_off_c, 0, 75, 93
1, 9119, Note_on_c, 0, 77, 111
1, 9238, Note_off_c, 0, 77, 111
1, 9273, Note_on_c, 0, 74, 122
1, 9362, Note_off_c, 0, 74, 122
1, 9448, Note_on_c, 0, 70, 109
1, 9558, Note_off_c, 0, 70, 109
1, 9569, Note_on_c, 0, 72, 104
1, 10033, Note_off_c, 0, 72, 104
1, 10423, Note_on_c, 0, 64, 100
1, 10512, Note_off_c, 0, 64, 100
1, 10512, Note_on_c, 0, 65, 103
1, 10580, Note_off_c, 0, 65, 103
1, 10597, Note_on_c, 0, 70, 100
1, 10629, Note_off_c, 0, 70, 100
1, 10629, Note_on_c, 0, 74, 102
1, 10691, Note_off_c, 0, 74, 102
1, 10691, Note_on_c, 0, 77, 125
1, 10789, Note_off_c, 0, 77, 125
1, 10800, Note_on_c, 0, 76, 123
1, 10904, Note_off_c, 0, 76, 123
1, 10904, Note_on_c, 0, 75, 118
1, 10996, Note_off_c, 0, 75, 118
1, 11007, Note_on_c, 0, 71, 108
1, 11054, Note_off_c, 0, 71, 108
1, 11065, Note_on_c, 0, 74, 117
1, 11193, Note_off_c, 0, 74, 117
1, 11201, Note_on_c, 0, 73, 118
1, 11290, Note_off_c, 0, 73, 118
1, 11292, Note_on_c, 0, 72, 109
1, 11381, Note_off_c, 0, 72, 109
1, 11381, Note_on_c, 0, 71, 120
1, 11425, Note_off_c, 0, 71, 120
1, 11451, Note_on_c, 0, 71, 105
1, 11549, Note_off_c, 0, 71, 105
1, 11560, Note_on_c, 0, 66, 118
1, 11679, Note_off_c, 0, 66, 118
1, 11684, Note_on_c, 0, 63, 99
1, 11800, Note_off_c, 0, 63, 99
1, 11800, Note_on_c, 0, 60, 94
1, 11877, Note_off_c, 0, 60, 94
1, 11885, Note_on_c, 0, 62, 110
1, 11962, Note_off_c, 0, 62, 110
1, 11962, Note_on_c, 0, 65, 106
1, 12063, Note_off_c, 0, 65, 106
1, 12065, Note_on_c, 0, 68, 103
1, 12178, Note_off_c, 0, 68, 103
1, 12178, Note_on_c, 0, 74, 83
1, 12264, Note_off_c, 0, 74, 83
1, 12264, Note_on_c, 0, 70, 108
1, 12374, Note_off_c, 0, 70, 108
1, 12376, Note_on_c, 0, 66, 94
1, 12512, Note_off_c, 0, 66, 94
1, 12919, Note_on_c, 0, 69, 112
1, 12987, Note_off_c, 0, 69, 112
1, 13010, Note_on_c, 0, 70, 112
1, 13120, Note_off_c, 0, 70, 112
1, 13137, Note_on_c, 0, 71, 107
1, 13166, Note_off_c, 0, 71, 107
1, 13166, Note_on_c, 0, 70, 103
1, 13204, Note_off_c, 0, 70, 103
1, 13204, Note_on_c, 0, 67, 115
1, 13332, Note_off_c, 0, 67, 115
1, 13332, Note_on_c, 0, 65, 112
1, 13445, Note_off_c, 0, 65, 112
1, 13445, Note_on_c, 0, 63, 86
1, 13576, Note_off_c, 0, 63, 86
1, 13576, Note_on_c, 0, 70, 107
1, 13674, Note_off_c, 0, 70, 107
1, 13682, Note_on_c, 0, 71, 107
1, 13717, Note_off_c, 0, 71, 107
1, 13717, Note_on_c, 0, 70, 107
1, 13779, Note_off_c, 0, 70, 107
1, 13784, Note_on_c, 0, 66, 110
1, 13876, Note_off_c, 0, 66, 110
1, 13878, Note_on_c, 0, 65, 117
1, 13970, Note_off_c, 0, 65, 117
1, 13970, Note_on_c, 0, 63, 99
1, 14068, Note_off_c, 0, 63, 99
1, 14082, Note_on_c, 0, 60, 95
1, 14153, Note_off_c, 0, 60, 95
1, 14153, Note_on_c, 0, 62, 107
1, 14254, Note_off_c, 0, 62, 107
1, 14254, Note_on_c, 0, 65, 108
1, 14402, Note_off_c, 0, 65, 108
1, 15214, Note_on_c, 0, 71, 111
1, 15300, Note_off_c, 0, 71, 111
1, 15305, Note_on_c, 0, 68, 106
1, 15376, Note_off_c, 0, 68, 106
1, 15381, Note_on_c, 0, 64, 100
1, 15440, Note_off_c, 0, 64, 100
1, 15440, Note_on_c, 0, 60, 98
1, 15511, Note_off_c, 0, 60, 98
1, 15529, Note_on_c, 0, 71, 110
1, 15876, Note_off_c, 0, 71, 110
1, 15879, Note_on_c, 0, 69, 111
1, 15941, Note_off_c, 0, 69, 111
1, 15952, Note_on_c, 0, 68, 101
1, 15999, Note_off_c, 0, 68, 101
1, 16007, Note_on_c, 0, 67, 109
1, 16054, Note_off_c, 0, 67, 109
1, 16059, Note_on_c, 0, 66, 96
1, 16285, Note_off_c, 0, 66, 96
1, 16285, Note_on_c, 0, 72, 113
1, 16365, Note_off_c, 0, 72, 113
1, 16365, Note_on_c, 0, 76, 120
1, 16462, Note_off_c, 0, 76, 120
1, 16462, Note_on_c, 0, 74, 111
1, 16559, Note_off_c, 0, 74, 111
1, 16567, Note_on_c, 0, 72, 111
1, 16660, Note_off_c, 0, 72, 111
1, 16672, Note_on_c, 0, 71, 90
1, 16760, Note_off_c, 0, 71, 90
1, 16760, Note_on_c, 0, 74, 104
1, 16861, Note_off_c, 0, 74, 104
1, 16861, Note_on_c, 0, 69, 112
1, 16966, Note_off_c, 0, 69, 112
1, 16966, Note_on_c, 0, 65, 113
1, 17054, Note_off_c, 0, 65, 113
1, 17058, Note_on_c, 0, 62, 101
1, 17163, Note_off_c, 0, 62, 101
1, 17163, Note_on_c, 0, 58, 89
1, 17332, Note_off_c, 0, 58, 89
1, 17332, Note_on_c, 0, 64, 107
1, 17450, Note_off_c, 0, 64, 107
1, 17466, Note_on_c, 0, 63, 99
1, 17576, Note_on_c, 0, 59, 84
1, 17576, Note_off_c, 0, 63, 99
1, 17626, Note_off_c, 0, 59, 84
1, 17651, Note_on_c, 0, 62, 109
1, 17756, Note_off_c, 0, 62, 109
1, 17768, Note_on_c, 0, 53, 88
1, 17984, Note_off_c, 0, 53, 88
1, 18310, Note_on_c, 0, 60, 103
1, 18386, Note_off_c, 0, 60, 103
1, 18386, Note_on_c, 0, 62, 112
1, 18432, Note_off_c, 0, 62, 112
1, 18432, Note_on_c, 0, 64, 109
1, 18495, Note_off_c, 0, 64, 109
1, 18533, Note_on_c, 0, 65, 98
1, 18672, Note_off_c, 0, 65, 98
1, 18697, Note_on_c, 0, 67, 96
1, 18735, Note_off_c, 0, 67, 96
1, 18751, Note_on_c, 0, 69, 94
1, 18780, Note_off_c, 0, 69, 94
1, 18780, Note_on_c, 0, 72, 123
1, 18924, Note_off_c, 0, 72, 123
1, 18924, Note_on_c, 0, 71, 118
1, 19000, Note_off_c, 0, 71, 118
1, 19016, Note_on_c, 0, 70, 111
1, 19092, Note_off_c, 0, 70, 111
1, 19108, Note_on_c, 0, 69, 115
1, 19205, Note_off_c, 0, 69, 115
1, 19209, Note_on_c, 0, 67, 114
1, 19305, Note_off_c, 0, 67, 114
1, 19305, Note_on_c, 0, 65, 112
1, 19391, Note_off_c, 0, 65, 112
1, 19402, Note_on_c, 0, 64, 100
1, 19443, Note_off_c, 0, 64, 100
1, 19454, Note_on_c, 0, 67, 101
1, 19510, Note_off_c, 0, 67, 101
1, 19510, Note_on_c, 0, 70, 98
1, 19584, Note_off_c, 0, 70, 98
1, 19584, Note_on_c, 0, 74, 120
1, 19682, Note_off_c, 0, 74, 120
1, 19684, Note_on_c, 0, 73, 118
1, 19734, Note_off_c, 0, 73, 118
1, 19745, Note_on_c, 0, 72, 115
1, 19777, Note_off_c, 0, 72, 115
1, 19800, Note_on_c, 0, 71, 120
1, 19889, Note_off_c, 0, 71, 120
1, 19891, Note_on_c, 0, 67, 111
1, 19992, Note_off_c, 0, 67, 111
1, 19997, Note_on_c, 0, 63, 96
1, 20098, Note_off_c, 0, 63, 96
1, 20106, Note_on_c, 0, 60, 82
1, 20150, Note_off_c, 0, 60, 82
1, 20150, Note_on_c, 0, 70, 113
1, 20278, Note_off_c, 0, 70, 113
1, 20278, Note_on_c, 0, 67, 96
1, 20346, Note_off_c, 0, 67, 96
1, 20346, Note_on_c, 0, 69, 103
1, 20471, Note_off_c, 0, 69, 103
1, 20471, Note_on_c, 0, 80, 106
1, 20902, Note_off_c, 0, 80, 106
1, 20902, Note_on_c, 0, 78, 115
1, 21047, Note_off_c, 0, 78, 115
1, 21047, Note_on_c, 0, 76, 102
1, 21097, Note_off_c, 0, 76, 102
1, 21097, Note_on_c, 0, 77, 112
1, 21245, Note_off_c, 0, 77, 112
1, 21247, Note_on_c, 0, 74, 86
1, 21497, Note_off_c, 0, 74, 86
1, 22792, Note_on_c, 0, 64, 97
1, 22839, Note_off_c, 0, 64, 97
1, 22844, Note_on_c, 0, 65, 108
1, 22978, Note_off_c, 0, 65, 108
1, 22992, Note_on_c, 0, 67, 99
1, 23072, Note_off_c, 0, 67, 99
1, 23080, Note_on_c, 0, 70, 104
1, 23160, Note_off_c, 0, 70, 104
1, 23165, Note_on_c, 0, 75, 109
1, 23316, Note_off_c, 0, 75, 109
1, 23324, Note_on_c, 0, 73, 100
1, 23368, Note_off_c, 0, 73, 100
1, 23376, Note_on_c, 0, 72, 119
1, 23471, Note_off_c, 0, 72, 119
1, 23471, Note_on_c, 0, 70, 116
1, 23554, Note_off_c, 0, 70, 116
1, 23556, Note_on_c, 0, 66, 118
1, 23660, Note_off_c, 0, 66, 118
1, 23665, Note_on_c, 0, 63, 101
1, 23745, Note_off_c, 0, 63, 101
1, 23745, Note_on_c, 0, 60, 97
1, 23816, Note_off_c, 0, 60, 97
1, 23816, Note_on_c, 0, 62, 111
1, 23947, Note_off_c, 0, 62, 111
1, 23947, Note_on_c, 0, 58, 98
1, 24048, Note_off_c, 0, 58, 98
1, 24050, Note_on_c, 0, 55, 88
1, 24115, Note_off_c, 0, 55, 88
1, 24126, Note_on_c, 0, 57, 106
1, 24200, Note_off_c, 0, 57, 106
1, 24202, Note_on_c, 0, 60, 105
1, 24336, Note_off_c, 0, 60, 105
1, 24341, Note_on_c, 0, 59, 94
1, 24415, Note_off_c, 0, 59, 94
1, 24438, Note_on_c, 0, 58, 94
1, 24515, Note_off_c, 0, 58, 94
1, 24520, Note_on_c, 0, 57, 104
1, 24612, Note_off_c, 0, 57, 104
1, 24612, Note_on_c, 0, 56, 100
1, 24716, Note_off_c, 0, 56, 100
1, 24721, Note_on_c, 0, 60, 91
1, 24777, Note_off_c, 0, 60, 91
1, 24777, Note_on_c, 0, 70, 112
1, 24908, Note_off_c, 0, 70, 112
1, 24908, Note_on_c, 0, 68, 115
1, 25000, Note_off_c, 0, 68, 115
1, 25011, Note_on_c, 0, 67, 105
1, 25070, Note_off_c, 0, 67, 105
1, 25070, Note_on_c, 0, 65, 119
1, 25168, Note_off_c, 0, 65, 119
1, 25182, Note_on_c, 0, 63, 87
1, 25259, Note_off_c, 0, 63, 87
1, 25375, Note_on_c, 0, 70, 112
1, 25479, Note_off_c, 0, 70, 112
1, 25479, Note_on_c, 0, 66, 114
1, 25589, Note_off_c, 0, 66, 114
1, 25591, Note_on_c, 0, 63, 93
1, 25659, Note_off_c, 0, 63, 93
1, 25667, Note_on_c, 0, 60, 95
1, 25735, Note_off_c, 0, 60, 95
1, 25735, Note_on_c, 0, 62, 106
1, 25854, Note_off_c, 0, 62, 106
1, 25865, Note_on_c, 0, 58, 98
1, 26001, Note_off_c, 0, 58, 98
1, 27430, Note_on_c, 0, 76, 120
1, 27537, Note_off_c, 0, 76, 120
1, 27623, Note_on_c, 0, 77, 121
1, 27739, Note_off_c, 0, 77, 121
1, 27822, Note_on_c, 0, 73, 118
1, 27929, Note_off_c, 0, 73, 118
1, 28042, Note_on_c, 0, 74, 127
1, 28149, Note_off_c, 0, 74, 127
1, 28226, Note_on_c, 0, 69, 104
1, 28330, Note_off_c, 0, 69, 104
1, 28353, Note_on_c, 0, 70, 112
1, 28436, Note_off_c, 0, 70, 112
1, 28510, Note_on_c, 0, 74, 117
1, 28617, Note_off_c, 0, 74, 117
1, 28628, Note_on_c, 0, 70, 108
1, 28702, Note_off_c, 0, 70, 108
1, 28713, Note_on_c, 0, 65, 105
1, 28817, Note_off_c, 0, 65, 105
1, 28900, Note_on_c, 0, 69, 100
1, 28974, Note_off_c, 0, 69, 100
1, 29006, Note_on_c, 0, 72, 123
1, 29089, Note_off_c, 0, 72, 123
1, 29106, Note_on_c, 0, 69, 84
1, 29156, Note_off_c, 0, 69, 84
1, 29158, Note_on_c, 0, 71, 117
1, 29265, Note_off_c, 0, 71, 117
1, 29282, Note_on_c, 0, 68, 118
1, 29368, Note_off_c, 0, 68, 118
1, 29388, Note_on_c, 0, 64, 100
1, 29477, Note_off_c, 0, 64, 100
1, 29479, Note_on_c, 0, 61, 87
1, 29529, Note_off_c, 0, 61, 87
1, 29537, Note_on_c, 0, 70, 116
1, 29620, Note_off_c, 0, 70, 116
1, 29622, Note_on_c, 0, 71, 110
1, 29678, Note_off_c, 0, 71, 110
1, 29686, Note_on_c, 0, 70, 114
1, 29730, Note_off_c, 0, 70, 114
1, 29732, Note_on_c, 0, 69, 114
1, 29827, Note_off_c, 0, 69, 114
1, 29827, Note_on_c, 0, 67, 112
1, 29913, Note_off_c, 0, 67, 112
1, 29930, Note_on_c, 0, 65, 121
1, 30046, Note_off_c, 0, 65, 121
1, 30051, Note_on_c, 0, 63, 104
1, 30140, Note_off_c, 0, 63, 104
1, 30148, Note_on_c, 0, 62, 99
1, 30237, Note_on_c, 0, 60, 105
1, 30237, Note_off_c, 0, 62, 99
1, 30308, Note_off_c, 0, 60, 105
1, 30310, Note_on_c, 0, 58, 100
1, 30428, Note_off_c, 0, 58, 100
1, 30428, Note_on_c, 0, 56, 93
1, 30478, Note_off_c, 0, 56, 93
1, 30484, Note_on_c, 0, 53, 91
1, 30543, Note_off_c, 0, 53, 91
1, 30543, Note_on_c, 0, 56, 92
1, 30605, Note_off_c, 0, 56, 92
1, 30625, Note_on_c, 0, 60, 91
1, 30684, Note_off_c, 0, 60, 91
1, 30684, Note_on_c, 0, 70, 112
1, 30773, Note_off_c, 0, 70, 112
1, 30778, Note_on_c, 0, 68, 119
1, 30876, Note_off_c, 0, 68, 119
1, 30893, Note_on_c, 0, 67, 109
1, 30967, Note_off_c, 0, 67, 109
1, 30969, Note_on_c, 0, 65, 118
1, 31076, Note_off_c, 0, 65, 118
1, 31076, Note_on_c, 0, 63, 104
1, 31168, Note_off_c, 0, 63, 104
1, 31179, Note_on_c, 0, 57, 99
1, 31256, Note_off_c, 0, 57, 99
1, 31285, Note_on_c, 0, 58, 93
1, 31424, Note_off_c, 0, 58, 93
1, 31453, Note_on_c, 0, 61, 106
1, 31581, Note_off_c, 0, 61, 106
1, 31586, Note_on_c, 0, 58, 95
1, 31687, Note_off_c, 0, 58, 95
1, 31687, Note_on_c, 0, 55, 93
1, 31776, Note_off_c, 0, 55, 93
1, 31776, Note_on_c, 0, 57, 96
1, 31856, Note_off_c, 0, 57, 96
1, 31864, Note_on_c, 0, 60, 112
1, 31989, Note_off_c, 0, 60, 112
1, 32006, Note_on_c, 0, 58, 92
1, 32330, Note_off_c, 0, 58, 92
1, 33339, Note_on_c, 0, 58, 100
1, 33529, Note_off_c, 0, 58, 100
1, 33546, Note_on_c, 0, 57, 91
1, 33626, Note_off_c, 0, 57, 91
1, 33631, Note_on_c, 0, 58, 91
1, 33705, Note_off_c, 0, 58, 91
1, 33713, Note_on_c, 0, 60, 115
1, 33829, Note_off_c, 0, 60, 115
1, 33834, Note_on_c, 0, 57, 95
1, 33905, Note_off_c, 0, 57, 95
1, 33925, Note_on_c, 0, 58, 87
1, 34002, Note_off_c, 0, 58, 87
1, 34002, Note_on_c, 0, 60, 94
1, 34043, Note_off_c, 0, 60, 94
1, 34054, Note_on_c, 0, 62, 103
1, 34101, Note_off_c, 0, 62, 103
1, 34115, Note_on_c, 0, 65, 121
1, 34251, Note_off_c, 0, 65, 121
1, 34256, Note_on_c, 0, 63, 109
1, 34431, Note_off_c, 0, 63, 109
1, 34448, Note_on_c, 0, 64, 105
1, 34567, Note_off_c, 0, 64, 105
1, 34581, Note_on_c, 0, 67, 109
1, 34771, Note_off_c, 0, 67, 109
1, 34779, Note_on_c, 0, 64, 107
1, 34850, Note_off_c, 0, 64, 107
1, 34855, Note_on_c, 0, 65, 110
1, 35075, Note_off_c, 0, 65, 110
1, 35676, Note_on_c, 0, 72, 116
1, 35745, Note_off_c, 0, 72, 116
1, 35751, Note_on_c, 0, 69, 117
1, 35787, Note_off_c, 0, 69, 117
1, 35797, Note_on_c, 0, 71, 119
1, 35845, Note_off_c, 0, 71, 119
1, 35847, Note_on_c, 0, 68, 115
1, 35938, Note_off_c, 0, 68, 115
1, 35944, Note_on_c, 0, 64, 107
1, 35973, Note_off_c, 0, 64, 107
1, 35985, Note_on_c, 0, 61, 99
1, 36018, Note_off_c, 0, 61, 99
1, 36024, Note_on_c, 0, 69, 109
1, 36104, Note_off_c, 0, 69, 109
1, 36106, Note_on_c, 0, 67, 113
1, 36163, Note_off_c, 0, 67, 113
1, 36175, Note_on_c, 0, 65, 117
1, 36236, Note_off_c, 0, 65, 117
1, 36238, Note_on_c, 0, 63, 103
1, 36269, Note_off_c, 0, 63, 103
1, 36277, Note_on_c, 0, 62, 105
1, 36306, Note_off_c, 0, 62, 105
1, 36329, Note_on_c, 0, 60, 103
1, 36369, Note_off_c, 0, 60, 103
1, 36375, Note_on_c, 0, 58, 101
1, 36447, Note_off_c, 0, 58, 101
1, 36455, Note_on_c, 0, 60, 103
1, 36514, Note_off_c, 0, 60, 103
1, 36514, Note_on_c, 0, 63, 107
1, 36560, Note_off_c, 0, 63, 107
1, 36560, Note_on_c, 0, 66, 121
1, 36608, Note_off_c, 0, 66, 121
1, 36620, Note_on_c, 0, 65, 118
1, 36717, Note_off_c, 0, 65, 118
1, 36882, Note_on_c, 0, 63, 108
1, 37042, Note_off_c, 0, 63, 108
1, 37050, Note_on_c, 0, 60, 106
1, 37138, Note_off_c, 0, 60, 106
1, 37138, Note_on_c, 0, 58, 94
1, 37258, Note_off_c, 0, 58, 94
1, 37266, Note_on_c, 0, 56, 104
1, 37308, Note_off_c, 0, 56, 104
1, 37320, Note_on_c, 0, 55, 97
1, 37425, Note_off_c, 0, 55, 97
1, 37501, Note_on_c, 0, 70, 113
1, 37606, Note_off_c, 0, 70, 113
1, 37618, Note_on_c, 0, 66, 110
1, 37713, Note_off_c, 0, 66, 110
1, 37715, Note_on_c, 0, 63, 92
1, 37799, Note_off_c, 0, 63, 92
1, 37801, Note_on_c, 0, 60, 94
1, 37866, Note_off_c, 0, 60, 94
1, 37866, Note_on_c, 0, 62, 111
1, 37971, Note_off_c, 0, 62, 111
1, 37975, Note_on_c, 0, 58, 97
1, 38078, Note_off_c, 0, 58, 97
1, 38080, Note_on_c, 0, 55, 88
1, 38162, Note_off_c, 0, 55, 88
1, 38168, Note_on_c, 0, 57, 93
1, 38240, Note_off_c, 0, 57, 93
1, 38240, Note_on_c, 0, 60, 108
1, 38375, Note_off_c, 0, 60, 108
1, 38396, Note_on_c, 0, 58, 90
1, 38470, Note_off_c, 0, 58, 90
1, 38474, Note_on_c, 0, 57, 87
1, 38546, Note_off_c, 0, 57, 87
1, 38552, Note_on_c, 0, 58, 95
1, 38626, Note_off_c, 0, 58, 95
1, 38634, Note_on_c, 0, 62, 94
1, 38919, Note_off_c, 0, 62, 94
1, 40524, Note_on_c, 0, 74, 121
1, 40665, Note_off_c, 0, 74, 121
1, 40675, Note_on_c, 0, 73, 122
1, 40761, Note_off_c, 0, 73, 122
1, 40771, Note_on_c, 0, 72, 121
1, 40868, Note_off_c, 0, 72, 121
1, 40870, Note_on_c, 0, 71, 123
1, 40944, Note_off_c, 0, 71, 123
1, 40952, Note_on_c, 0, 69, 119
1, 41028, Note_off_c, 0, 69, 119
1, 41040, Note_on_c, 0, 67, 116
1, 41137, Note_off_c, 0, 67, 116
1, 41139, Note_on_c, 0, 66, 107
1, 41240, Note_off_c, 0, 66, 107
1, 41250, Note_on_c, 0, 69, 107
1, 41313, Note_off_c, 0, 69, 107
1, 41321, Note_on_c, 0, 72, 123
1, 41424, Note_off_c, 0, 72, 123
1, 41424, Note_on_c, 0, 75, 121
1, 41506, Note_off_c, 0, 75, 121
1, 41508, Note_on_c, 0, 74, 118
1, 41639, Note_off_c, 0, 74, 118
1, 41643, Note_on_c, 0, 72, 119
1, 41734, Note_off_c, 0, 72, 119
1, 41740, Note_on_c, 0, 71, 100
1, 41839, Note_off_c, 0, 71, 100
1, 41896, Note_on_c, 0, 65, 114
1, 42016, Note_off_c, 0, 65, 114
1, 42030, Note_on_c, 0, 66, 112
1, 42072, Note_off_c, 0, 66, 112
1, 42086, Note_on_c, 0, 68, 113
1, 42316, Note_off_c, 0, 68, 113
1, 42318, Note_on_c, 0, 67, 108
1, 42402, Note_off_c, 0, 67, 108
1, 42408, Note_on_c, 0, 65, 117
1, 42509, Note_off_c, 0, 65, 117
1, 42521, Note_on_c, 0, 64, 107
1, 42597, Note_off_c, 0, 64, 107
1, 42601, Note_on_c, 0, 60, 105
1, 42666, Note_off_c, 0, 60, 105
1, 42689, Note_on_c, 0, 58, 97
1, 42771, Note_off_c, 0, 58, 97
1, 42775, Note_on_c, 0, 55, 97
1, 42853, Note_off_c, 0, 55, 97
1, 42865, Note_on_c, 0, 62, 109
1, 42973, Note_off_c, 0, 62, 109
1, 42975, Note_on_c, 0, 58, 99
1, 43051, Note_off_c, 0, 58, 99
1, 43061, Note_on_c, 0, 55, 95
1, 43152, Note_off_c, 0, 55, 95
1, 43152, Note_on_c, 0, 57, 92
1, 43234, Note_off_c, 0, 57, 92
1, 43236, Note_on_c, 0, 60, 108
1, 43367, Note_off_c, 0, 60, 108
1, 43369, Note_on_c, 0, 57, 93
1, 43419, Note_off_c, 0, 57, 93
1, 43438, Note_on_c, 0, 58, 9
1, 43480, Note_off_c, 0, 58, 9
1, 43484, Note_on_c, 0, 60, 65
1, 43524, Note_off_c, 0, 60, 65
1, 43526, Note_on_c, 0, 62, 99
1, 43557, Note_off_c, 0, 62, 99
1, 43563, Note_on_c, 0, 64, 107
1, 43596, Note_off_c, 0, 64, 107
1, 43602, Note_on_c, 0, 69, 118
1, 43712, Note_off_c, 0, 69, 118
1, 43714, Note_on_c, 0, 67, 112
1, 43817, Note_off_c, 0, 67, 112
1, 43823, Note_on_c, 0, 64, 96
1, 43918, Note_off_c, 0, 64, 96
1, 43932, Note_on_c, 0, 60, 97
1, 43978, Note_off_c, 0, 60, 97
1, 43980, Note_on_c, 0, 65, 111
1, 44119, Note_off_c, 0, 65, 111
1, 44171, Note_on_c, 0, 65, 103
1, 44573, Note_off_c, 0, 65, 103
1, 45689, Note_on_c, 0, 65, 114
1, 45792, Note_off_c, 0, 65, 114
1, 45794, Note_on_c, 0, 67, 109
1, 45838, Note_off_c, 0, 67, 109
1, 45848, Note_on_c, 0, 68, 107
1, 45879, Note_off_c, 0, 68, 107
1, 45893, Note_on_c, 0, 70, 105
1, 45981, Note_off_c, 0, 70, 105
1, 46000, Note_on_c, 0, 72, 123
1, 46065, Note_off_c, 0, 72, 123
1, 46075, Note_on_c, 0, 74, 121
1, 46199, Note_off_c, 0, 74, 121
1, 46199, Note_on_c, 0, 70, 118
1, 46362, Note_off_c, 0, 70, 118
1, 46366, Note_on_c, 0, 72, 114
1, 46408, Note_off_c, 0, 72, 114
1, 46414, Note_on_c, 0, 70, 117
1, 46445, Note_off_c, 0, 70, 117
1, 46453, Note_on_c, 0, 67, 115
1, 46567, Note_off_c, 0, 67, 115
1, 46575, Note_on_c, 0, 66, 100
1, 46657, Note_off_c, 0, 66, 100
1, 46663, Note_on_c, 0, 72, 124
1, 46756, Note_off_c, 0, 72, 124
1, 46772, Note_on_c, 0, 73, 120
1, 46841, Note_off_c, 0, 73, 120
1, 46843, Note_on_c, 0, 74, 116
1, 46995, Note_off_c, 0, 74, 116
1, 47202, Note_on_c, 0, 65, 108
1, 47293, Note_off_c, 0, 65, 108
1, 47295, Note_on_c, 0, 67, 96
1, 47354, Note_off_c, 0, 67, 96
1, 47364, Note_on_c, 0, 68, 104
1, 47400, Note_off_c, 0, 68, 104
1, 47412, Note_on_c, 0, 70, 99
1, 47490, Note_off_c, 0, 70, 99
1, 47502, Note_on_c, 0, 73, 120
1, 47582, Note_off_c, 0, 73, 120
1, 47605, Note_on_c, 0, 74, 121
1, 47700, Note_off_c, 0, 74, 121
1, 47719, Note_on_c, 0, 72, 118
1, 47985, Note_off_c, 0, 72, 118
1, 47987, Note_on_c, 0, 70, 114
1, 48069, Note_off_c, 0, 70, 114
1, 48077, Note_on_c, 0, 67, 84
1, 48142, Note_off_c, 0, 67, 84
1, 48171, Note_on_c, 0, 69, 107
1, 48281, Note_off_c, 0, 69, 107
1, 48283, Note_on_c, 0, 65, 110
1, 48439, Note_off_c, 0, 65, 110
1, 48843, Note_on_c, 0, 72, 122
1, 48902, Note_off_c, 0, 72, 122
1, 48912, Note_on_c, 0, 71, 126
1, 48969, Note_off_c, 0, 71, 126
1, 48981, Note_on_c, 0, 70, 120
1, 49050, Note_off_c, 0, 70, 120
1, 49066, Note_on_c, 0, 69, 121
1, 49135, Note_off_c, 0, 69, 121
1, 49145, Note_on_c, 0, 68, 122
1, 49246, Note_off_c, 0, 68, 122
1, 49246, Note_on_c, 0, 72, 125
1, 49324, Note_off_c, 0, 72, 125
1, 49330, Note_on_c, 0, 70, 122
1, 49408, Note_off_c, 0, 70, 122
1, 49420, Note_on_c, 0, 67, 114
1, 49515, Note_off_c, 0, 67, 114
1, 49695, Note_on_c, 0, 70, 115
1, 49794, Note_off_c, 0, 70, 115
1, 49800, Note_on_c, 0, 66, 111
1, 49918, Note_off_c, 0, 66, 111
1, 50081, Note_on_c, 0, 62, 111
1, 50182, Note_off_c, 0, 62, 111
1, 50196, Note_on_c, 0, 58, 98
1, 50280, Note_off_c, 0, 58, 98
1, 50284, Note_on_c, 0, 55, 95
1, 50351, Note_off_c, 0, 55, 95
1, 50367, Note_on_c, 0, 57, 90
1, 50434, Note_off_c, 0, 57, 90
1, 50461, Note_on_c, 0, 60, 109
1, 50575, Note_off_c, 0, 60, 109
1, 50594, Note_on_c, 0, 58, 93
1, 50670, Note_off_c, 0, 58, 93
1, 50686, Note_on_c, 0, 57, 94
1, 50758, Note_off_c, 0, 57, 94
1, 50760, Note_on_c, 0, 60, 95
1, 50802, Note_off_c, 0, 60, 95
1, 50829, Note_on_c, 0, 62, 101
1, 50858, Note_off_c, 0, 62, 101
1, 50858, Note_on_c, 0, 63, 109
1, 50953, Note_off_c, 0, 63, 109
1, 50957, Note_on_c, 0, 65, 102
1, 51092, Note_off_c, 0, 65, 102
1, 51172, Note_on_c, 0, 60, 99
1, 51229, Note_off_c, 0, 60, 99
1, 51237, Note_on_c, 0, 62, 96
1, 51461, Note_off_c, 0, 62, 96
1, 51461, Note_on_c, 0, 65, 102
1, 51533, Note_off_c, 0, 65, 102
1, 51537, Note_on_c, 0, 62, 105
1, 51617, Note_off_c, 0, 62, 105
1, 51619, Note_on_c, 0, 60, 104
1, 51741, Note_off_c, 0, 60, 104
1, 51745, Note_on_c, 0, 58, 90
1, 52124, Note_off_c, 0, 58, 90
1, 52124, End_track
0, 0, End_of_file
