0, 0, Header, 1, 1, 192
1, 0, Start_track
1, 0, Title_t, "Melody"
1, 0, Tempo, 410958
1, 0, Key_signature, -3, "major"
1, 0, Time_signature, 4, 2, 24, 8
1, 2874, Note_on_c, 0, 60, 103
1, 3059, Note_off_c, 0, 60, 103
1, 3065, Note_on_c, 0, 63, 93
1, 3104, Note_off_c, 0, 63, 93
1, 3106, Note_on_c, 0, 67, 100
1, 3146, Note_off_c, 0, 67, 100
1, 3150, Note_on_c, 0, 70, 116
1, 3276, Note_off_c, 0, 70, 116
1, 3279, Note_on_c, 0, 67, 94
1, 3341, Note_off_c, 0, 67, 94
1, 3348, Note_on_c, 0, 68, 109
1, 3478, Note_off_c, 0, 68, 109
1, 3488, Note_on_c, 0, 59, 83
1, 3639, Note_off_c, 0, 59, 83
1, 3657, Note_on_c, 0, 67, 104
1, 3830, Note_off_c, 0, 67, 104
1, 3832, Note_on_c, 0, 65, 109
1, 3918, Note_off_c, 0, 65, 109
1, 3929, Note_on_c, 0, 61, 97
1, 3988, Note_off_c, 0, 61, 97
1, 4005, Note_on_c, 0, 62, 89
1, 4230, Note_off_c, 0, 62, 89
1, 4241, Note_on_c, 0, 65, 111
1, 4380, Note_off_c, 0, 65, 111
1, 4621, Note_on_c, 0, 63, 108
1, 4691, Note_off_c, 0, 63, 108
1, 4760, Note_on_c, 0, 60, 89
1, 4796, Note_off_c, 0, 60, 89
1, 4796, Note_on_c, 0, 67, 104
1, 4852, Note_off_c, 0, 67, 104
1, 4868, Note_on_c, 0, 70, 115
1, 4980, Note_off_c, 0, 70, 115
1, 4992, Note_on_c, 0, 67, 95
1, 5054, Note_off_c, 0, 67, 95
1, 5059, Note_on_c, 0, 68, 106
1, 5143, Note_off_c, 0, 68, 106
1, 5164, Note_on_c, 0, 73, 120
1, 5240, Note_off_c, 0, 73, 120
1, 5245, Note_on_c, 0, 71, 101
1, 5273, Note_off_c, 0, 71, 101
1, 5276, Note_on_c, 0, 73, 93
1, 5314, Note_off_c, 0, 73, 93
1, 5314, Note_on_c, 0, 71, 101
1, 5350, Note_off_c, 0, 71, 101
1, 5354, Note_on_c, 0, 69, 95
1, 5422, Note_off_c, 0, 69, 95
1, 5450, Note_on_c, 0, 70, 104
1, 5546, Note_off_c, 0, 70, 104
1, 5553, Note_on_c, 0, 67, 87
1, 5809, Note_off_c, 0, 67, 87
1, 6341, Note_on_c, 0, 64, 99
1, 6402, Note_off_c, 0, 64, 99
1, 6408, Note_on_c, 0, 65, 107
1, 6464, Note_off_c, 0, 65, 107
1, 6467, Note_on_c, 0, 68, 88
1, 6508, Note_off_c, 0, 68, 88
1, 6508, Note_on_c, 0, 72, 106
1, 6588, Note_off_c, 0, 72, 106
1, 6595, Note_on_c, 0, 75, 127
1, 6698, Note_off_c, 0, 75, 127
1, 6699, Note_on_c, 0, 74, 119
1, 6797, Note_off_c, 0, 74, 119
1, 6800, Note_on_c, 0, 72, 119
1, 6888, Note_off_c, 0, 72, 119
1, 6893, Note_on_c, 0, 71, 109
1, 6970, Note_off_c, 0, 71, 109
1, 6990, Note_on_c, 0, 72, 98
1, 7037, Note_off_c, 0, 72, 98
1, 7040, Note_on_c, 0, 70, 103
1, 7073, Note_off_c, 0, 70, 103
1, 7075, Note_on_c, 0, 68, 110
1, 7148, Note_off_c, 0, 68, 110
1, 7151, Note_on_c, 0, 67, 110
1, 7254, Note_off_c, 0, 67, 110
1, 7256, Note_on_c, 0, 65, 108
1, 7346, Note_off_c, 0, 65, 108
1, 7350, Note_on_c, 0, 64, 103
1, 7421, Note_off_c, 0, 64, 103
1, 7453, Note_on_c, 0, 55, 90
1, 7521, Note_off_c, 0, 55, 90
1, 7525, Note_on_c, 0, 58, 89
1, 7622, Note_off_c, 0, 58, 89
1, 7636, Note_on_c, 0, 61, 103
1, 7732, Note_off_c, 0, 61, 103
1, 7732, Note_on_c, 0, 60, 96
1, 7812, Note_off_c, 0, 60, 96
1, 7847, Note_on_c, 0, 58, 89
1, 7924, Note_off_c, 0, 58, 89
1, 7929, Note_on_c, 0, 60, 87
1, 7963, Note_off_c, 0, 60, 87
1, 7966, Note_on_c, 0, 63, 95
1, 8000, Note_off_c, 0, 63, 95
1, 8004, Note_on_c, 0, 67, 108
1, 8083, Note_off_c, 0, 67, 108
1, 8087, Note_on_c, 0, 65, 109
1, 8187, Note_off_c, 0, 65, 109
1, 8220, Note_on_c, 0, 58, 85
1, 8259, Note_off_c, 0, 58, 85
1, 8273, Note_on_c, 0, 62, 98
1, 8390, Note_off_c, 0, 62, 98
1, 8418, Note_on_c, 0, 63, 87
1, 8628, Note_off_c, 0, 63, 87
1, 8799, Note_on_c, 0, 70, 104
1, 8856, Note_off_c, 0, 70, 104
1, 8868, Note_on_c, 0, 72, 123
1, 9022, Note_off_c, 0, 72, 123
1, 9037, Note_on_c, 0, 75, 122
1, 9159, Note_off_c, 0, 75, 122
1, 9159, Note_on_c, 0, 72, 116
1, 9230, Note_off_c, 0, 72, 116
1, 9237, Note_on_c, 0, 70, 112
1, 9355, Note_off_c, 0, 70, 112
1, 9358, Note_on_c, 0, 68, 91
1, 9659, Note_off_c, 0, 68, 91
1, 10163, Note_on_c, 0, 63, 107
1, 10209, Note_on_c, 0, 66, 106
1, 10209, Note_off_c, 0, 63, 107
1, 10252, Note_off_c, 0, 66, 106
1, 10259, Note_on_c, 0, 67, 106
1, 10320, Note_off_c, 0, 67, 106
1, 10323, Note_on_c, 0, 68, 102
1, 10350, Note_off_c, 0, 68, 102
1, 10352, Note_on_c, 0, 69, 98
1, 10382, Note_off_c, 0, 69, 98
1, 10384, Note_on_c, 0, 70, 104
1, 10440, Note_off_c, 0, 70, 104
1, 10440, Note_on_c, 0, 68, 111
1, 10470, Note_off_c, 0, 68, 111
1, 10473, Note_on_c, 0, 67, 109
1, 10521, Note_off_c, 0, 67, 109
1, 10522, Note_on_c, 0, 65, 109
1, 10563, Note_off_c, 0, 65, 109
1, 10566, Note_on_c, 0, 64, 103
1, 10602, Note_off_c, 0, 64, 103
1, 10622, Note_on_c, 0, 55, 93
1, 10652, Note_off_c, 0, 55, 93
1, 10654, Note_on_c, 0, 58, 93
1, 10682, Note_off_c, 0, 58, 93
1, 10689, Note_on_c, 0, 61, 106
1, 10750, Note_off_c, 0, 61, 106
1, 10758, Note_on_c, 0, 60, 99
1, 10793, Note_off_c, 0, 60, 99
1, 10797, Note_on_c, 0, 59, 92
1, 10856, Note_off_c, 0, 59, 92
1, 10857, Note_on_c, 0, 58, 96
1, 10901, Note_off_c, 0, 58, 96
1, 10904, Note_on_c, 0, 57, 96
1, 10947, Note_off_c, 0, 57, 96
1, 10957, Note_on_c, 0, 56, 90
1, 10986, Note_off_c, 0, 56, 90
1, 11026, Note_on_c, 0, 67, 106
1, 11104, Note_off_c, 0, 67, 106
1, 11108, Note_on_c, 0, 66, 109
1, 11130, Note_off_c, 0, 66, 109
1, 11133, Note_on_c, 0, 65, 110
1, 11186, Note_off_c, 0, 65, 110
1, 11303, Note_on_c, 0, 63, 103
1, 11370, Note_off_c, 0, 63, 103
1, 11372, Note_on_c, 0, 61, 92
1, 11413, Note_off_c, 0, 61, 92
1, 11417, Note_on_c, 0, 62, 96
1, 11464, Note_off_c, 0, 62, 96
1, 11472, Note_on_c, 0, 71, 104
1, 11519, Note_off_c, 0, 71, 104
1, 11523, Note_on_c, 0, 68, 98
1, 11583, Note_off_c, 0, 68, 98
1, 11583, Note_on_c, 0, 69, 94
1, 11614, Note_off_c, 0, 69, 94
1, 11616, Note_on_c, 0, 70, 108
1, 11687, Note_off_c, 0, 70, 108
1, 11826, Note_on_c, 0, 72, 99
1, 11859, Note_off_c, 0, 72, 99
1, 11863, Note_on_c, 0, 71, 100
1, 11885, Note_off_c, 0, 71, 100
1, 11890, Note_on_c, 0, 70, 112
1, 11946, Note_off_c, 0, 70, 112
1, 11951, Note_on_c, 0, 68, 109
1, 12000, Note_off_c, 0, 68, 109
1, 12003, Note_on_c, 0, 67, 108
1, 12050, Note_on_c, 0, 65, 108
1, 12050, Note_off_c, 0, 67, 108
1, 12092, Note_off_c, 0, 65, 108
1, 12102, Note_on_c, 0, 64, 95
1, 12155, Note_off_c, 0, 64, 95
1, 12183, Note_on_c, 0, 58, 91
1, 12222, Note_off_c, 0, 58, 91
1, 12227, Note_on_c, 0, 61, 104
1, 12278, Note_off_c, 0, 61, 104
1, 12280, Note_on_c, 0, 60, 101
1, 12323, Note_off_c, 0, 60, 101
1, 12328, Note_on_c, 0, 58, 86
1, 12363, Note_off_c, 0, 58, 86
1, 12372, Note_on_c, 0, 60, 87
1, 12396, Note_off_c, 0, 60, 87
1, 12404, Note_on_c, 0, 63, 73
1, 12425, Note_off_c, 0, 63, 73
1, 12430, Note_on_c, 0, 67, 106
1, 12479, Note_off_c, 0, 67, 106
1, 12479, Note_on_c, 0, 65, 109
1, 12519, Note_off_c, 0, 65, 109
1, 13076, Note_on_c, 0, 69, 103
1, 13151, Note_off_c, 0, 69, 103
1, 13157, Note_on_c, 0, 72, 96
1, 13222, Note_off_c, 0, 72, 96
1, 13223, Note_on_c, 0, 73, 119
1, 13274, Note_off_c, 0, 73, 119
1, 13274, Note_on_c, 0, 72, 94
1, 13317, Note_off_c, 0, 72, 94
1, 13318, Note_on_c, 0, 73, 115
1, 13359, Note_off_c, 0, 73, 115
1, 13362, Note_on_c, 0, 72, 112
1, 13412, Note_off_c, 0, 72, 112
1, 13422, Note_on_c, 0, 70, 109
1, 13486, Note_off_c, 0, 70, 109
1, 13487, Note_on_c, 0, 68, 112
1, 13523, Note_off_c, 0, 68, 112
1, 13527, Note_on_c, 0, 67, 107
1, 13560, Note_off_c, 0, 67, 107
1, 13565, Note_on_c, 0, 65, 105
1, 13621, Note_off_c, 0, 65, 105
1, 13624, Note_on_c, 0, 64, 98
1, 13666, Note_off_c, 0, 64, 98
1, 13676, Note_on_c, 0, 55, 96
1, 13711, Note_off_c, 0, 55, 96
1, 13718, Note_on_c, 0, 58, 94
1, 13743, Note_off_c, 0, 58, 94
1, 13747, Note_on_c, 0, 61, 104
1, 13790, Note_off_c, 0, 61, 104
1, 13794, Note_on_c, 0, 60, 102
1, 13850, Note_off_c, 0, 60, 102
1, 13854, Note_on_c, 0, 58, 89
1, 13891, Note_off_c, 0, 58, 89
1, 13899, Note_on_c, 0, 60, 90
1, 13942, Note_off_c, 0, 60, 90
1, 13943, Note_on_c, 0, 63, 93
1, 13976, Note_off_c, 0, 63, 93
1, 13985, Note_on_c, 0, 67, 110
1, 14051, Note_off_c, 0, 67, 110
1, 14052, Note_on_c, 0, 65, 91
1, 14081, Note_off_c, 0, 65, 91
1, 14081, Note_on_c, 0, 60, 87
1, 14109, Note_off_c, 0, 60, 87
1, 14115, Note_on_c, 0, 58, 94
1, 14139, Note_off_c, 0, 58, 94
1, 14139, Note_on_c, 0, 56, 95
1, 14162, Note_off_c, 0, 56, 95
1, 14187, Note_on_c, 0, 65, 103
1, 14249, Note_off_c, 0, 65, 103
1, 14350, Note_on_c, 0, 66, 103
1, 14422, Note_off_c, 0, 66, 103
1, 14422, Note_on_c, 0, 61, 97
1, 14452, Note_off_c, 0, 61, 97
1, 14453, Note_on_c, 0, 60, 98
1, 14471, Note_off_c, 0, 60, 98
1, 14475, Note_on_c, 0, 58, 97
1, 14503, Note_off_c, 0, 58, 97
1, 14512, Note_on_c, 0, 56, 99
1, 14570, Note_off_c, 0, 56, 99
1, 14834, Note_on_c, 0, 70, 104
1, 14887, Note_off_c, 0, 70, 104
1, 14888, Note_on_c, 0, 68, 111
1, 14930, Note_off_c, 0, 68, 111
1, 14931, Note_on_c, 0, 67, 110
1, 14981, Note_off_c, 0, 67, 110
1, 14981, Note_on_c, 0, 65, 111
1, 15033, Note_off_c, 0, 65, 111
1, 15033, Note_on_c, 0, 63, 91
1, 15072, Note_off_c, 0, 63, 91
1, 15083, Note_on_c, 0, 58, 87
1, 15110, Note_off_c, 0, 58, 87
1, 15126, Note_on_c, 0, 61, 106
1, 15172, Note_off_c, 0, 61, 106
1, 15186, Note_on_c, 0, 60, 92
1, 15222, Note_off_c, 0, 60, 92
1, 15228, Note_on_c, 0, 63, 91
1, 15251, Note_off_c, 0, 63, 91
1, 15262, Note_on_c, 0, 67, 103
1, 15291, Note_off_c, 0, 67, 103
1, 15295, Note_on_c, 0, 70, 110
1, 15361, Note_off_c, 0, 70, 110
1, 15364, Note_on_c, 0, 67, 98
1, 15399, Note_off_c, 0, 67, 98
1, 15401, Note_on_c, 0, 68, 101
1, 15431, Note_off_c, 0, 68, 101
1, 15432, Note_on_c, 0, 72, 100
1, 15455, Note_off_c, 0, 72, 100
1, 15457, Note_on_c, 0, 77, 92
1, 15465, Note_off_c, 0, 77, 92
1, 15478, Note_on_c, 0, 79, 112
1, 15523, Note_off_c, 0, 79, 112
1, 15525, Note_on_c, 0, 77, 116
1, 15584, Note_off_c, 0, 77, 116
1, 16195, Note_on_c, 0, 70, 99
1, 16242, Note_off_c, 0, 70, 99
1, 16263, Note_on_c, 0, 72, 113
1, 16308, Note_off_c, 0, 72, 113
1, 16313, Note_on_c, 0, 74, 115
1, 16413, Note_off_c, 0, 74, 115
1, 16413, Note_on_c, 0, 72, 113
1, 16518, Note_off_c, 0, 72, 113
1, 16565, Note_on_c, 0, 71, 108
1, 16644, Note_off_c, 0, 71, 108
1, 16644, Note_on_c, 0, 70, 106
1, 16748, Note_off_c, 0, 70, 106
1, 16763, Note_on_c, 0, 69, 110
1, 16837, Note_off_c, 0, 69, 110
1, 16838, Note_on_c, 0, 67, 104
1, 16862, Note_off_c, 0, 67, 104
1, 16869, Note_on_c, 0, 68, 107
1, 16931, Note_off_c, 0, 68, 107
1, 16973, Note_on_c, 0, 60, 83
1, 16996, Note_off_c, 0, 60, 83
1, 17004, Note_on_c, 0, 67, 109
1, 17127, Note_off_c, 0, 67, 109
1, 17132, Note_on_c, 0, 65, 104
1, 17194, Note_off_c, 0, 65, 104
1, 17225, Note_on_c, 0, 59, 84
1, 17326, Note_off_c, 0, 59, 84
1, 17326, Note_on_c, 0, 70, 107
1, 17397, Note_off_c, 0, 70, 107
1, 17404, Note_on_c, 0, 68, 104
1, 17502, Note_off_c, 0, 68, 104
1, 17502, Note_on_c, 0, 70, 97
1, 17538, Note_off_c, 0, 70, 97
1, 17539, Note_on_c, 0, 68, 102
1, 17568, Note_off_c, 0, 68, 102
1, 17571, Note_on_c, 0, 67, 105
1, 17683, Note_off_c, 0, 67, 105
1, 17698, Note_on_c, 0, 65, 110
1, 17796, Note_off_c, 0, 65, 110
1, 17796, Note_on_c, 0, 63, 95
1, 17845, Note_off_c, 0, 63, 95
1, 17848, Note_on_c, 0, 58, 85
1, 17895, Note_off_c, 0, 58, 85
1, 17900, Note_on_c, 0, 61, 85
1, 18109, Note_off_c, 0, 61, 85
1, 18177, Note_on_c, 0, 60, 96
1, 18228, Note_off_c, 0, 60, 96
1, 18230, Note_on_c, 0, 63, 95
1, 18276, Note_off_c, 0, 63, 95
1, 18279, Note_on_c, 0, 67, 108
1, 18320, Note_off_c, 0, 67, 108
1, 18322, Note_on_c, 0, 70, 108
1, 18361, Note_off_c, 0, 70, 108
1, 18366, Note_on_c, 0, 68, 96
1, 18594, Note_off_c, 0, 68, 96
1, 19026, Note_on_c, 0, 70, 107
1, 19097, Note_off_c, 0, 70, 107
1, 19118, Note_on_c, 0, 74, 119
1, 19228, Note_off_c, 0, 74, 119
1, 19235, Note_on_c, 0, 72, 88
1, 19293, Note_off_c, 0, 72, 88
1, 19309, Note_on_c, 0, 74, 119
1, 19408, Note_off_c, 0, 74, 119
1, 19408, Note_on_c, 0, 72, 113
1, 19492, Note_off_c, 0, 72, 113
1, 19493, Note_on_c, 0, 70, 102
1, 19525, Note_off_c, 0, 70, 102
1, 19527, Note_on_c, 0, 72, 100
1, 19557, Note_off_c, 0, 72, 100
1, 19560, Note_on_c, 0, 70, 111
1, 19597, Note_off_c, 0, 70, 111
1, 19599, Note_on_c, 0, 69, 111
1, 19665, Note_off_c, 0, 69, 111
1, 19679, Note_on_c, 0, 68, 111
1, 19778, Note_off_c, 0, 68, 111
1, 19787, Note_on_c, 0, 67, 109
1, 19876, Note_off_c, 0, 67, 109
1, 19881, Note_on_c, 0, 65, 107
1, 19956, Note_off_c, 0, 65, 107
1, 20199, Note_on_c, 0, 59, 92
1, 20237, Note_off_c, 0, 59, 92
1, 20246, Note_on_c, 0, 60, 89
1, 20358, Note_off_c, 0, 60, 89
1, 20358, Note_on_c, 0, 63, 99
1, 20419, Note_off_c, 0, 63, 99
1, 20424, Note_on_c, 0, 66, 105
1, 20464, Note_off_c, 0, 66, 105
1, 20467, Note_on_c, 0, 67, 107
1, 20559, Note_off_c, 0, 67, 107
1, 20561, Note_on_c, 0, 65, 101
1, 20812, Note_off_c, 0, 65, 101
1, 20821, Note_on_c, 0, 63, 99
1, 20925, Note_off_c, 0, 63, 99
1, 20932, Note_on_c, 0, 61, 94
1, 21012, Note_off_c, 0, 61, 94
1, 21013, Note_on_c, 0, 62, 97
1, 21100, Note_off_c, 0, 62, 97
1, 21120, Note_on_c, 0, 70, 112
1, 21197, Note_off_c, 0, 70, 112
1, 21201, Note_on_c, 0, 67, 110
1, 21289, Note_off_c, 0, 67, 110
1, 21316, Note_on_c, 0, 60, 87
1, 21377, Note_off_c, 0, 60, 87
1, 21387, Note_on_c, 0, 65, 112
1, 21478, Note_off_c, 0, 65, 112
1, 21602, Note_on_c, 0, 60, 93
1, 21711, Note_off_c, 0, 60, 93
1, 21732, Note_on_c, 0, 56, 91
1, 21788, Note_off_c, 0, 56, 91
1, 21797, Note_on_c, 0, 59, 90
1, 21907, Note_off_c, 0, 59, 90
1, 21911, Note_on_c, 0, 66, 113
1, 21953, Note_off_c, 0, 66, 113
1, 21961, Note_on_c, 0, 67, 108
1, 22158, Note_off_c, 0, 67, 108
1, 22166, Note_on_c, 0, 62, 91
1, 22389, Note_off_c, 0, 62, 91
1, 23061, Note_on_c, 0, 70, 105
1, 23122, Note_off_c, 0, 70, 105
1, 23131, Note_on_c, 0, 75, 93
1, 23178, Note_off_c, 0, 75, 93
1, 23180, Note_on_c, 0, 77, 117
1, 23232, Note_off_c, 0, 77, 117
1, 23233, Note_on_c, 0, 75, 113
1, 23263, Note_off_c, 0, 75, 113
1, 23266, Note_on_c, 0, 72, 112
1, 23324, Note_off_c, 0, 72, 112
1, 23343, Note_on_c, 0, 74, 107
1, 23394, Note_off_c, 0, 74, 107
1, 23403, Note_on_c, 0, 75, 107
1, 23425, Note_off_c, 0, 75, 107
1, 23426, Note_on_c, 0, 74, 109
1, 23454, Note_off_c, 0, 74, 109
1, 23456, Note_on_c, 0, 70, 106
1, 23505, Note_off_c, 0, 70, 106
1, 23526, Note_on_c, 0, 72, 102
1, 23573, Note_off_c, 0, 72, 102
1, 23574, Note_on_c, 0, 74, 104
1, 23602, Note_off_c, 0, 74, 104
1, 23604, Note_on_c, 0, 72, 104
1, 23633, Note_off_c, 0, 72, 104
1, 23638, Note_on_c, 0, 68, 104
1, 23706, Note_off_c, 0, 68, 104
1, 23709, Note_on_c, 0, 70, 88
1, 23736, Note_off_c, 0, 70, 88
1, 23738, Note_on_c, 0, 72, 91
1, 23772, Note_off_c, 0, 72, 91
1, 23781, Note_on_c, 0, 70, 104
1, 23804, Note_off_c, 0, 70, 104
1, 23806, Note_on_c, 0, 67, 105
1, 23861, Note_off_c, 0, 67, 105
1, 23868, Note_on_c, 0, 68, 94
1, 23930, Note_off_c, 0, 68, 94
1, 23932, Note_on_c, 0, 70, 96
1, 23953, Note_off_c, 0, 70, 96
1, 23956, Note_on_c, 0, 68, 102
1, 23992, Note_off_c, 0, 68, 102
1, 23992, Note_on_c, 0, 65, 90
1, 24066, Note_off_c, 0, 65, 90
1, 24077, Note_on_c, 0, 67, 104
1, 24124, Note_off_c, 0, 67, 104
1, 24128, Note_on_c, 0, 68, 105
1, 24169, Note_off_c, 0, 68, 105
1, 24173, Note_on_c, 0, 67, 102
1, 24195, Note_off_c, 0, 67, 102
1, 24195, Note_on_c, 0, 65, 97
1, 24248, Note_off_c, 0, 65, 97
1, 24256, Note_on_c, 0, 64, 102
1, 24327, Note_off_c, 0, 64, 102
1, 24383, Note_on_c, 0, 55, 91
1, 24447, Note_off_c, 0, 55, 91
1, 24468, Note_on_c, 0, 58, 86
1, 24547, Note_off_c, 0, 58, 86
1, 24577, Note_on_c, 0, 61, 102
1, 24670, Note_off_c, 0, 61, 102
1, 24671, Note_on_c, 0, 60, 99
1, 24751, Note_off_c, 0, 60, 99
1, 24770, Note_on_c, 0, 58, 94
1, 24863, Note_off_c, 0, 58, 94
1, 24863, Note_on_c, 0, 60, 94
1, 24903, Note_off_c, 0, 60, 94
1, 24905, Note_on_c, 0, 63, 96
1, 24938, Note_off_c, 0, 63, 96
1, 24943, Note_on_c, 0, 68, 111
1, 24977, Note_off_c, 0, 68, 111
1, 24982, Note_on_c, 0, 67, 110
1, 25049, Note_off_c, 0, 67, 110
1, 25050, Note_on_c, 0, 65, 112
1, 25108, Note_off_c, 0, 65, 112
1, 25181, Note_on_c, 0, 60, 88
1, 25204, Note_off_c, 0, 60, 88
1, 25219, Note_on_c, 0, 70, 112
1, 25322, Note_off_c, 0, 70, 112
1, 25410, Note_on_c, 0, 70, 98
1, 25650, Note_off_c, 0, 70, 98
1, 25927, Note_on_c, 0, 67, 111
1, 26006, Note_off_c, 0, 67, 111
1, 26007, Note_on_c, 0, 68, 113
1, 26099, Note_off_c, 0, 68, 113
1, 26103, Note_on_c, 0, 70, 110
1, 26170, Note_off_c, 0, 70, 110
1, 26172, Note_on_c, 0, 66, 100
1, 26213, Note_off_c, 0, 66, 100
1, 26216, Note_on_c, 0, 67, 106
1, 26574, Note_off_c, 0, 67, 106
1, 26576, Note_on_c, 0, 63, 99
1, 26665, Note_off_c, 0, 63, 99
1, 26671, Note_on_c, 0, 58, 84
1, 26719, Note_off_c, 0, 58, 84
1, 26730, Note_on_c, 0, 63, 88
1, 26979, Note_off_c, 0, 63, 88
1, 27310, Note_on_c, 0, 70, 92
1, 27355, Note_off_c, 0, 70, 92
1, 27358, Note_on_c, 0, 69, 97
1, 27401, Note_off_c, 0, 69, 97
1, 27403, Note_on_c, 0, 68, 90
1, 27448, Note_off_c, 0, 68, 90
1, 27450, Note_on_c, 0, 67, 101
1, 27487, Note_off_c, 0, 67, 101
1, 27487, Note_on_c, 0, 65, 102
1, 27530, Note_off_c, 0, 65, 102
1, 27530, End_track
0, 0, End_of_file
