0, 0, Header, 1, 1, 192
1, 0, Start_track
1, 0, Title_t, "Melody"
1, 0, Tempo, 377358
1, 0, Key_signature, -1, "major"
1, 0, Time_signature, 4, 2, 24, 8
1, 1273, Note_on_c, 0, 60, 102
1, 1354, Note_off_c, 0, 60, 102
1, 1354, Note_on_c, 0, 65, 115
1, 1453, Note_off_c, 0, 65, 115
1, 1531, Note_on_c, 0, 67, 117
1, 1642, Note_off_c, 0, 67, 117
1, 1645, Note_on_c, 0, 68, 116
1, 1725, Note_off_c, 0, 68, 116
1, 1730, Note_on_c, 0, 69, 118
1, 1837, Note_off_c, 0, 69, 118
1, 1910, Note_on_c, 0, 70, 117
1, 2033, Note_off_c, 0, 70, 117
1, 2038, Note_on_c, 0, 71, 118
1, 2107, Note_off_c, 0, 71, 118
1, 2109, Note_on_c, 0, 72, 115
1, 2225, Note_off_c, 0, 72, 115
1, 2314, Note_on_c, 0, 70, 113
1, 2403, Note_off_c, 0, 70, 113
1, 2403, Note_on_c, 0, 72, 106
1, 2431, Note_off_c, 0, 72, 106
1, 2431, Note_on_c, 0, 70, 119
1, 2485, Note_off_c, 0, 70, 119
1, 2487, Note_on_c, 0, 69, 122
1, 2605, Note_off_c, 0, 69, 122
1, 2610, Note_on_c, 0, 65, 110
1, 2678, Note_off_c, 0, 65, 110
1, 2683, Note_on_c, 0, 62, 98
1, 2787, Note_off_c, 0, 62, 98
1, 2875, Note_on_c, 0, 67, 113
1, 2911, Note_off_c, 0, 67, 113
1, 2911, Note_on_c, 0, 68, 113
1, 2947, Note_off_c, 0, 68, 113
1, 2949, Note_on_c, 0, 67, 110
1, 2978, Note_off_c, 0, 67, 110
1, 2978, Note_on_c, 0, 65, 114
1, 3043, Note_off_c, 0, 65, 114
1, 3043, Note_on_c, 0, 63, 108
1, 3166, Note_off_c, 0, 63, 108
1, 3167, Note_on_c, 0, 65, 96
1, 3500, Note_off_c, 0, 65, 96
1, 4304, Note_on_c, 0, 76, 127
1, 4366, Note_off_c, 0, 76, 127
1, 4368, Note_on_c, 0, 77, 112
1, 4507, Note_off_c, 0, 77, 112
1, 4513, Note_on_c, 0, 72, 103
1, 4539, Note_off_c, 0, 72, 103
1, 4541, Note_on_c, 0, 70, 113
1, 4569, Note_off_c, 0, 70, 113
1, 4573, Note_on_c, 0, 67, 117
1, 4599, Note_off_c, 0, 67, 117
1, 4605, Note_on_c, 0, 68, 117
1, 4696, Note_off_c, 0, 68, 117
1, 4699, Note_on_c, 0, 65, 91
1, 4752, Note_off_c, 0, 65, 91
1, 4752, Note_on_c, 0, 67, 107
1, 4860, Note_off_c, 0, 67, 107
1, 4860, Note_on_c, 0, 65, 109
1, 4944, Note_off_c, 0, 65, 109
1, 4944, Note_on_c, 0, 63, 103
1, 5045, Note_off_c, 0, 63, 103
1, 5052, Note_on_c, 0, 62, 104
1, 5134, Note_off_c, 0, 62, 104
1, 5136, Note_on_c, 0, 60, 98
1, 5243, Note_off_c, 0, 60, 98
1, 5263, Note_on_c, 0, 60, 101
1, 5315, Note_off_c, 0, 60, 101
1, 5315, Note_on_c, 0, 58, 98
1, 5451, Note_off_c, 0, 58, 98
1, 5451, Note_on_c, 0, 52, 96
1, 5504, Note_off_c, 0, 52, 96
1, 5512, Note_on_c, 0, 56, 110
1, 5633, Note_off_c, 0, 56, 110
1, 5638, Note_on_c, 0, 57, 102
1, 5715, Note_off_c, 0, 57, 102
1, 5720, Note_on_c, 0, 58, 79
1, 5819, Note_off_c, 0, 58, 79
1, 5821, Note_on_c, 0, 59, 99
1, 5878, Note_off_c, 0, 59, 99
1, 5886, Note_on_c, 0, 60, 100
1, 6009, Note_off_c, 0, 60, 100
1, 6014, Note_on_c, 0, 62, 96
1, 6035, Note_off_c, 0, 62, 96
1, 6040, Note_on_c, 0, 60, 94
1, 6063, Note_off_c, 0, 60, 94
1, 6068, Note_on_c, 0, 57, 97
1, 6174, Note_off_c, 0, 57, 97
1, 6196, Note_on_c, 0, 60, 91
1, 6260, Note_off_c, 0, 60, 91
1, 6261, Note_on_c, 0, 64, 107
1, 6377, Note_off_c, 0, 64, 107
1, 6388, Note_on_c, 0, 62, 92
1, 6577, Note_off_c, 0, 62, 92
1, 7687, Note_on_c, 0, 67, 104
1, 7727, Note_off_c, 0, 67, 104
1, 7727, Note_on_c, 0, 70, 105
1, 7766, Note_off_c, 0, 70, 105
1, 7774, Note_on_c, 0, 74, 95
1, 7802, Note_off_c, 0, 74, 95
1, 7819, Note_on_c, 0, 77, 120
1, 7876, Note_off_c, 0, 77, 120
1, 7879, Note_on_c, 0, 76, 122
1, 7974, Note_off_c, 0, 76, 122
1, 7974, Note_on_c, 0, 74, 122
1, 8081, Note_off_c, 0, 74, 122
1, 8081, Note_on_c, 0, 73, 121
1, 8118, Note_off_c, 0, 73, 121
1, 8119, Note_on_c, 0, 71, 115
1, 8157, Note_off_c, 0, 71, 115
1, 8157, Note_on_c, 0, 72, 119
1, 8295, Note_off_c, 0, 72, 119
1, 8295, Note_on_c, 0, 69, 95
1, 8328, Note_off_c, 0, 69, 95
1, 8332, Note_on_c, 0, 70, 112
1, 8445, Note_off_c, 0, 70, 112
1, 8453, Note_on_c, 0, 70, 114
1, 8532, Note_off_c, 0, 70, 114
1, 8542, Note_on_c, 0, 69, 119
1, 8652, Note_off_c, 0, 69, 119
1, 8654, Note_on_c, 0, 65, 110
1, 8727, Note_off_c, 0, 65, 110
1, 8729, Note_on_c, 0, 62, 97
1, 8855, Note_off_c, 0, 62, 97
1, 8858, Note_on_c, 0, 60, 90
1, 8911, Note_off_c, 0, 60, 90
1, 8911, Note_on_c, 0, 67, 107
1, 9058, Note_off_c, 0, 67, 107
1, 9060, Note_on_c, 0, 65, 80
1, 9096, Note_off_c, 0, 65, 80
1, 9096, Note_on_c, 0, 67, 111
1, 9218, Note_off_c, 0, 67, 111
1, 9240, Note_on_c, 0, 68, 118
1, 9277, Note_off_c, 0, 68, 118
1, 9277, Note_on_c, 0, 69, 90
1, 9567, Note_off_c, 0, 69, 90
1, 10587, Note_on_c, 0, 65, 120
1, 10688, Note_off_c, 0, 65, 120
1, 10719, Note_on_c, 0, 68, 111
1, 10819, Note_off_c, 0, 68, 111
1, 10821, Note_on_c, 0, 70, 99
1, 10902, Note_off_c, 0, 70, 99
1, 10908, Note_on_c, 0, 69, 110
1, 10959, Note_off_c, 0, 69, 110
1, 10959, Note_on_c, 0, 70, 99
1, 11006, Note_off_c, 0, 70, 99
1, 11008, Note_on_c, 0, 71, 97
1, 11064, Note_off_c, 0, 71, 97
1, 11093, Note_on_c, 0, 71, 110
1, 11156, Note_off_c, 0, 71, 110
1, 11167, Note_on_c, 0, 71, 109
1, 11245, Note_off_c, 0, 71, 109
1, 11246, Note_on_c, 0, 70, 100
1, 11321, Note_off_c, 0, 70, 100
1, 11326, Note_on_c, 0, 68, 110
1, 11396, Note_off_c, 0, 68, 110
1, 11407, Note_on_c, 0, 65, 87
1, 11446, Note_off_c, 0, 65, 87
1, 11446, Note_on_c, 0, 69, 111
1, 11498, Note_off_c, 0, 69, 111
1, 11499, Note_on_c, 0, 70, 104
1, 11561, Note_off_c, 0, 70, 104
1, 11570, Note_on_c, 0, 71, 110
1, 11634, Note_off_c, 0, 71, 110
1, 11636, Note_on_c, 0, 70, 104
1, 11844, Note_off_c, 0, 70, 104
1, 12270, Note_on_c, 0, 65, 108
1, 12351, Note_off_c, 0, 65, 108
1, 12351, Note_on_c, 0, 68, 109
1, 12465, Note_off_c, 0, 68, 109
1, 12465, Note_on_c, 0, 69, 116
1, 12560, Note_off_c, 0, 69, 116
1, 12560, Note_on_c, 0, 70, 116
1, 12643, Note_off_c, 0, 70, 116
1, 12643, Note_on_c, 0, 71, 116
1, 12719, Note_off_c, 0, 71, 116
1, 12726, Note_on_c, 0, 72, 110
1, 12789, Note_off_c, 0, 72, 110
1, 12793, Note_on_c, 0, 73, 111
1, 12829, Note_off_c, 0, 73, 111
1, 12829, Note_on_c, 0, 72, 119
1, 12868, Note_on_c, 0, 69, 115
1, 12868, Note_off_c, 0, 72, 119
1, 12949, Note_off_c, 0, 69, 115
1, 12966, Note_on_c, 0, 65, 104
1, 13052, Note_off_c, 0, 65, 104
1, 13054, Note_on_c, 0, 63, 101
1, 13280, Note_off_c, 0, 63, 101
1, 13407, Note_on_c, 0, 67, 116
1, 13494, Note_off_c, 0, 67, 116
1, 13496, Note_on_c, 0, 65, 109
1, 13535, Note_off_c, 0, 65, 109
1, 13535, Note_on_c, 0, 67, 111
1, 13573, Note_off_c, 0, 67, 111
1, 13575, Note_on_c, 0, 65, 108
1, 13612, Note_off_c, 0, 65, 108
1, 13625, Note_on_c, 0, 62, 108
1, 13680, Note_off_c, 0, 62, 108
1, 13691, Note_on_c, 0, 58, 94
1, 13809, Note_off_c, 0, 58, 94
1, 13811, Note_on_c, 0, 55, 97
1, 13861, Note_off_c, 0, 55, 97
1, 13863, Note_on_c, 0, 56, 98
1, 14159, Note_off_c, 0, 56, 98
1, 14661, Note_on_c, 0, 69, 106
1, 14708, Note_on_c, 0, 72, 104
1, 14708, Note_off_c, 0, 69, 106
1, 14842, Note_off_c, 0, 72, 104
1, 14845, Note_on_c, 0, 77, 121
1, 14954, Note_on_c, 0, 72, 118
1, 14954, Note_off_c, 0, 77, 121
1, 15037, Note_off_c, 0, 72, 118
1, 15040, Note_on_c, 0, 70, 118
1, 15150, Note_off_c, 0, 70, 118
1, 15154, Note_on_c, 0, 72, 107
1, 15184, Note_off_c, 0, 72, 107
1, 15190, Note_on_c, 0, 70, 120
1, 15219, Note_off_c, 0, 70, 120
1, 15219, Note_on_c, 0, 69, 118
1, 15339, Note_off_c, 0, 69, 118
1, 15345, Note_on_c, 0, 70, 91
1, 15415, Note_off_c, 0, 70, 91
1, 15415, Note_on_c, 0, 72, 117
1, 15526, Note_off_c, 0, 72, 117
1, 15526, Note_on_c, 0, 69, 99
1, 15833, Note_off_c, 0, 69, 99
1, 16753, Note_on_c, 0, 65, 114
1, 16822, Note_off_c, 0, 65, 114
1, 16822, Note_on_c, 0, 67, 106
1, 16870, Note_off_c, 0, 67, 106
1, 16870, Note_on_c, 0, 70, 95
1, 16920, Note_off_c, 0, 70, 95
1, 16920, Note_on_c, 0, 74, 104
1, 16956, Note_off_c, 0, 74, 104
1, 16958, Note_on_c, 0, 77, 117
1, 17014, Note_off_c, 0, 77, 117
1, 17019, Note_on_c, 0, 74, 111
1, 17066, Note_off_c, 0, 74, 111
1, 17071, Note_on_c, 0, 75, 105
1, 17102, Note_off_c, 0, 75, 105
1, 17112, Note_on_c, 0, 76, 118
1, 17169, Note_off_c, 0, 76, 118
1, 17173, Note_on_c, 0, 72, 95
1, 17206, Note_off_c, 0, 72, 95
1, 17206, Note_on_c, 0, 73, 97
1, 17236, Note_off_c, 0, 73, 97
1, 17243, Note_on_c, 0, 74, 118
1, 17299, Note_off_c, 0, 74, 118
1, 17301, Note_on_c, 0, 72, 119
1, 17333, Note_off_c, 0, 72, 119
1, 17333, Note_on_c, 0, 70, 113
1, 17380, Note_off_c, 0, 70, 113
1, 17383, Note_on_c, 0, 69, 110
1, 17424, Note_off_c, 0, 69, 110
1, 17426, Note_on_c, 0, 67, 111
1, 17468, Note_off_c, 0, 67, 111
1, 17468, Note_on_c, 0, 65, 114
1, 17523, Note_off_c, 0, 65, 114
1, 17533, Note_on_c, 0, 64, 96
1, 17564, Note_off_c, 0, 64, 96
1, 17564, Note_on_c, 0, 67, 100
1, 17607, Note_off_c, 0, 67, 100
1, 17607, Note_on_c, 0, 70, 100
1, 17667, Note_off_c, 0, 70, 100
1, 17667, Note_on_c, 0, 73, 118
1, 17703, Note_off_c, 0, 73, 118
1, 17703, Note_on_c, 0, 72, 120
1, 17737, Note_on_c, 0, 71, 110
1, 17737, Note_off_c, 0, 72, 120
1, 17752, Note_off_c, 0, 71, 110
1, 17753, Note_on_c, 0, 69, 112
1, 17792, Note_off_c, 0, 69, 112
1, 17800, Note_on_c, 0, 71, 107
1, 17814, Note_off_c, 0, 71, 107
1, 17814, Note_on_c, 0, 72, 111
1, 17855, Note_off_c, 0, 72, 111
1, 17855, Note_on_c, 0, 70, 117
1, 17894, Note_off_c, 0, 70, 117
1, 17894, Note_on_c, 0, 69, 114
1, 17936, Note_off_c, 0, 69, 114
1, 17936, Note_on_c, 0, 65, 103
1, 17984, Note_off_c, 0, 65, 103
1, 17984, Note_on_c, 0, 62, 93
1, 18016, Note_off_c, 0, 62, 93
1, 18017, Note_on_c, 0, 60, 89
1, 18063, Note_off_c, 0, 60, 89
1, 18071, Note_on_c, 0, 65, 100
1, 18194, Note_off_c, 0, 65, 100
1, 18377, Note_on_c, 0, 62, 111
1, 18408, Note_off_c, 0, 62, 111
1, 18410, Note_on_c, 0, 63, 99
1, 18466, Note_off_c, 0, 63, 99
1, 18470, Note_on_c, 0, 62, 94
1, 18559, Note_off_c, 0, 62, 94
1, 18562, Note_on_c, 0, 60, 97
1, 18701, Note_off_c, 0, 60, 97
1, 19132, Note_on_c, 0, 60, 106
1, 19204, Note_off_c, 0, 60, 106
1, 19209, Note_on_c, 0, 65, 115
1, 19319, Note_off_c, 0, 65, 115
1, 19327, Note_on_c, 0, 69, 93
1, 19382, Note_off_c, 0, 69, 93
1, 19383, Note_on_c, 0, 72, 117
1, 19517, Note_off_c, 0, 72, 117
1, 19517, Note_on_c, 0, 77, 120
1, 19771, Note_off_c, 0, 77, 120
1, 19780, Note_on_c, 0, 74, 113
1, 19817, Note_off_c, 0, 74, 113
1, 19821, Note_on_c, 0, 75, 113
1, 19901, Note_off_c, 0, 75, 113
1, 19903, Note_on_c, 0, 74, 111
1, 19934, Note_off_c, 0, 74, 111
1, 19934, Note_on_c, 0, 72, 117
1, 19978, Note_off_c, 0, 72, 117
1, 19980, Note_on_c, 0, 70, 120
1, 20078, Note_off_c, 0, 70, 120
1, 20081, Note_on_c, 0, 69, 114
1, 20170, Note_off_c, 0, 69, 114
1, 20170, Note_on_c, 0, 67, 114
1, 20274, Note_off_c, 0, 67, 114
1, 20276, Note_on_c, 0, 66, 110
1, 20360, Note_off_c, 0, 66, 110
1, 20366, Note_on_c, 0, 65, 113
1, 20482, Note_off_c, 0, 65, 113
1, 20487, Note_on_c, 0, 63, 100
1, 20579, Note_off_c, 0, 63, 100
1, 20582, Note_on_c, 0, 62, 91
1, 20614, Note_off_c, 0, 62, 91
1, 20616, Note_on_c, 0, 65, 103
1, 20678, Note_off_c, 0, 65, 103
1, 20681, Note_on_c, 0, 69, 104
1, 20738, Note_off_c, 0, 69, 104
1, 20752, Note_on_c, 0, 72, 120
1, 20861, Note_off_c, 0, 72, 120
1, 20872, Note_on_c, 0, 70, 105
1, 20956, Note_off_c, 0, 70, 105
1, 20970, Note_on_c, 0, 61, 95
1, 21061, Note_off_c, 0, 61, 95
1, 21061, Note_on_c, 0, 70, 107
1, 21136, Note_off_c, 0, 70, 107
1, 21138, Note_on_c, 0, 69, 105
1, 21171, Note_off_c, 0, 69, 105
1, 21171, Note_on_c, 0, 70, 99
1, 21221, Note_off_c, 0, 70, 99
1, 21228, Note_on_c, 0, 69, 107
1, 21260, Note_off_c, 0, 69, 107
1, 21262, Note_on_c, 0, 65, 108
1, 21325, Note_off_c, 0, 65, 108
1, 21328, Note_on_c, 0, 62, 103
1, 21426, Note_off_c, 0, 62, 103
1, 21436, Note_on_c, 0, 60, 92
1, 21484, Note_off_c, 0, 60, 92
1, 21491, Note_on_c, 0, 67, 112
1, 21536, Note_off_c, 0, 67, 112
1, 21536, Note_on_c, 0, 68, 112
1, 21575, Note_off_c, 0, 68, 112
1, 21577, Note_on_c, 0, 67, 112
1, 21609, Note_off_c, 0, 67, 112
1, 21609, Note_on_c, 0, 65, 108
1, 21659, Note_off_c, 0, 65, 108
1, 21672, Note_on_c, 0, 63, 105
1, 21777, Note_off_c, 0, 63, 105
1, 21784, Note_on_c, 0, 65, 106
1, 21870, Note_off_c, 0, 65, 106
1, 21892, Note_on_c, 0, 62, 97
1, 21985, Note_off_c, 0, 62, 97
1, 21988, Note_on_c, 0, 65, 109
1, 22064, Note_off_c, 0, 65, 109
1, 22069, Note_on_c, 0, 61, 97
1, 22164, Note_off_c, 0, 61, 97
1, 22168, Note_on_c, 0, 60, 89
1, 22428, Note_off_c, 0, 60, 89
1, 23319, Note_on_c, 0, 79, 92
1, 23369, Note_off_c, 0, 79, 92
1, 23369, Note_on_c, 0, 80, 111
1, 23525, Note_off_c, 0, 80, 111
1, 23525, Note_on_c, 0, 79, 113
1, 23603, Note_off_c, 0, 79, 113
1, 23661, Note_on_c, 0, 77, 108
1, 23799, Note_off_c, 0, 77, 108
1, 23807, Note_on_c, 0, 74, 116
1, 23840, Note_off_c, 0, 74, 116
1, 23840, Note_on_c, 0, 75, 111
1, 23901, Note_off_c, 0, 75, 111
1, 23906, Note_on_c, 0, 72, 114
1, 24004, Note_off_c, 0, 72, 114
1, 24004, Note_on_c, 0, 70, 123
1, 24096, Note_off_c, 0, 70, 123
1, 24139, Note_on_c, 0, 65, 104
1, 24181, Note_off_c, 0, 65, 104
1, 24183, Note_on_c, 0, 67, 112
1, 24237, Note_off_c, 0, 67, 112
1, 24249, Note_on_c, 0, 68, 111
1, 24305, Note_off_c, 0, 68, 111
1, 24307, Note_on_c, 0, 69, 107
1, 24462, Note_off_c, 0, 69, 107
1, 24478, Note_on_c, 0, 72, 115
1, 24628, Note_off_c, 0, 72, 115
1, 24867, Note_on_c, 0, 70, 117
1, 24947, Note_off_c, 0, 70, 117
1, 24953, Note_on_c, 0, 69, 106
1, 25001, Note_on_c, 0, 70, 98
1, 25001, Note_off_c, 0, 69, 106
1, 25040, Note_off_c, 0, 70, 98
1, 25040, Note_on_c, 0, 69, 106
1, 25062, Note_off_c, 0, 69, 106
1, 25062, Note_on_c, 0, 67, 116
1, 25113, Note_off_c, 0, 67, 116
1, 25113, Note_on_c, 0, 66, 117
1, 25241, Note_off_c, 0, 66, 117
1, 25251, Note_on_c, 0, 69, 91
1, 25304, Note_off_c, 0, 69, 91
1, 25317, Note_on_c, 0, 72, 117
1, 25438, Note_off_c, 0, 72, 117
1, 25438, Note_on_c, 0, 75, 108
1, 25550, Note_off_c, 0, 75, 108
1, 25554, Note_on_c, 0, 74, 113
1, 25647, Note_off_c, 0, 74, 113
1, 25648, Note_on_c, 0, 69, 95
1, 25701, Note_off_c, 0, 69, 95
1, 25701, Note_on_c, 0, 72, 118
1, 25822, Note_off_c, 0, 72, 118
1, 25822, Note_on_c, 0, 70, 93
1, 25994, Note_off_c, 0, 70, 93
1, 26376, Note_on_c, 0, 77, 93
1, 26411, Note_off_c, 0, 77, 93
1, 26411, Note_on_c, 0, 76, 118
1, 26435, Note_off_c, 0, 76, 118
1, 26435, Note_on_c, 0, 74, 114
1, 26466, Note_off_c, 0, 74, 114
1, 26468, Note_on_c, 0, 72, 113
1, 26490, Note_off_c, 0, 72, 113
1, 26490, Note_on_c, 0, 70, 123
1, 26574, Note_off_c, 0, 70, 123
1, 26574, Note_on_c, 0, 69, 118
1, 26668, Note_off_c, 0, 69, 118
1, 26668, Note_on_c, 0, 67, 114
1, 26775, Note_off_c, 0, 67, 114
1, 26780, Note_on_c, 0, 65, 107
1, 26850, Note_off_c, 0, 65, 107
1, 26853, Note_on_c, 0, 64, 93
1, 26889, Note_off_c, 0, 64, 93
1, 26890, Note_on_c, 0, 67, 104
1, 26961, Note_off_c, 0, 67, 104
1, 26966, Note_on_c, 0, 70, 91
1, 27005, Note_off_c, 0, 70, 91
1, 27006, Note_on_c, 0, 73, 115
1, 27075, Note_off_c, 0, 73, 115
1, 27079, Note_on_c, 0, 75, 109
1, 27169, Note_off_c, 0, 75, 109
1, 27172, Note_on_c, 0, 72, 110
1, 27326, Note_off_c, 0, 72, 110
1, 27331, Note_on_c, 0, 70, 101
1, 27375, Note_off_c, 0, 70, 101
1, 27381, Note_on_c, 0, 72, 103
1, 27428, Note_off_c, 0, 72, 103
1, 27432, Note_on_c, 0, 69, 92
1, 27695, Note_off_c, 0, 69, 92
1, 28100, Note_on_c, 0, 66, 113
1, 28147, Note_off_c, 0, 66, 113
1, 28147, Note_on_c, 0, 67, 110
1, 29092, Note_off_c, 0, 67, 110
1, 29097, Note_on_c, 0, 65, 87
1, 29133, Note_off_c, 0, 65, 87
1, 29147, Note_on_c, 0, 70, 110
1, 29181, Note_off_c, 0, 70, 110
1, 29181, Note_on_c, 0, 72, 105
1, 29216, Note_off_c, 0, 72, 105
1, 29220, Note_on_c, 0, 70, 114
1, 29259, Note_off_c, 0, 70, 114
1, 29261, Note_on_c, 0, 69, 115
1, 29303, Note_off_c, 0, 69, 115
1, 29305, Note_on_c, 0, 68, 110
1, 29703, Note_off_c, 0, 68, 110
1, 29705, Note_on_c, 0, 65, 106
1, 29741, Note_off_c, 0, 65, 106
1, 29741, Note_on_c, 0, 67, 106
1, 29784, Note_off_c, 0, 67, 106
1, 29786, Note_on_c, 0, 65, 109
1, 29841, Note_off_c, 0, 65, 109
1, 29843, Note_on_c, 0, 64, 107
1, 29899, Note_off_c, 0, 64, 107
1, 29905, Note_on_c, 0, 63, 99
1, 30085, Note_off_c, 0, 63, 99
1, 30093, Note_on_c, 0, 60, 96
1, 30210, Note_off_c, 0, 60, 96
1, 30210, Note_on_c, 0, 66, 112
1, 30240, Note_off_c, 0, 66, 112
1, 30245, Note_on_c, 0, 67, 106
1, 30497, Note_off_c, 0, 67, 106
1, 30497, Note_on_c, 0, 63, 102
1, 30638, Note_off_c, 0, 63, 102
1, 30639, Note_on_c, 0, 60, 88
1, 30670, Note_off_c, 0, 60, 88
1, 30675, Note_on_c, 0, 65, 110
1, 30816, Note_off_c, 0, 65, 110
1, 30818, Note_on_c, 0, 60, 9
1, 31047, Note_off_c, 0, 60, 9
1, 32158, Note_on_c, 0, 72, 105
1, 32227, Note_off_c, 0, 72, 105
1, 32240, Note_on_c, 0, 77, 113
1, 32331, Note_off_c, 0, 77, 113
1, 32356, Note_on_c, 0, 72, 102
1, 32389, Note_off_c, 0, 72, 102
1, 32389, Note_on_c, 0, 70, 111
1, 32425, Note_off_c, 0, 70, 111
1, 32425, Note_on_c, 0, 68, 112
1, 32551, Note_off_c, 0, 68, 112
1, 32559, Note_on_c, 0, 65, 94
1, 32767, Note_off_c, 0, 65, 94
1, 32823, Note_on_c, 0, 77, 117
1, 32941, Note_off_c, 0, 77, 117
1, 32946, Note_on_c, 0, 72, 95
1, 32990, Note_off_c, 0, 72, 95
1, 32990, Note_on_c, 0, 70, 106
1, 33016, Note_off_c, 0, 70, 106
1, 33021, Note_on_c, 0, 68, 109
1, 33134, Note_off_c, 0, 68, 109
1, 33142, Note_on_c, 0, 62, 81
1, 33370, Note_off_c, 0, 62, 81
1, 33731, Note_on_c, 0, 64, 104
1, 33785, Note_off_c, 0, 64, 104
1, 33785, Note_on_c, 0, 65, 102
1, 33860, Note_off_c, 0, 65, 102
1, 33863, Note_on_c, 0, 69, 87
1, 33904, Note_off_c, 0, 69, 87
1, 33911, Note_on_c, 0, 72, 91
1, 33968, Note_off_c, 0, 72, 91
1, 33980, Note_on_c, 0, 76, 118
1, 34104, Note_off_c, 0, 76, 118
1, 34105, Note_on_c, 0, 74, 116
1, 34363, Note_off_c, 0, 74, 116
1, 34380, Note_on_c, 0, 72, 108
1, 34410, Note_off_c, 0, 72, 108
1, 34412, Note_on_c, 0, 74, 111
1, 34443, Note_off_c, 0, 74, 111
1, 34445, Note_on_c, 0, 72, 114
1, 34483, Note_off_c, 0, 72, 114
1, 34483, Note_on_c, 0, 70, 117
1, 34538, Note_off_c, 0, 70, 117
1, 34543, Note_on_c, 0, 69, 115
1, 34664, Note_off_c, 0, 69, 115
1, 34664, Note_on_c, 0, 67, 110
1, 34754, Note_off_c, 0, 67, 110
1, 34762, Note_on_c, 0, 66, 99
1, 34863, Note_off_c, 0, 66, 99
1, 34866, Note_on_c, 0, 69, 115
1, 34963, Note_off_c, 0, 69, 115
1, 34963, Note_on_c, 0, 67, 108
1, 35062, Note_off_c, 0, 67, 108
1, 35074, Note_on_c, 0, 74, 115
1, 35155, Note_off_c, 0, 74, 115
1, 35155, Note_on_c, 0, 70, 94
1, 35197, Note_off_c, 0, 70, 94
1, 35197, Note_on_c, 0, 72, 91
1, 35225, Note_off_c, 0, 72, 91
1, 35225, Note_on_c, 0, 70, 107
1, 35268, Note_off_c, 0, 70, 107
1, 35268, Note_on_c, 0, 67, 111
1, 35332, Note_off_c, 0, 67, 111
1, 35341, Note_on_c, 0, 66, 103
1, 35447, Note_off_c, 0, 66, 103
1, 35462, Note_on_c, 0, 62, 102
1, 35526, Note_off_c, 0, 62, 102
1, 35535, Note_on_c, 0, 58, 95
1, 35655, Note_off_c, 0, 58, 95
1, 35665, Note_on_c, 0, 54, 94
1, 35720, Note_off_c, 0, 54, 94
1, 35720, Note_on_c, 0, 65, 108
1, 35851, Note_off_c, 0, 65, 108
1, 35856, Note_on_c, 0, 63, 79
1, 35895, Note_off_c, 0, 63, 79
1, 35903, Note_on_c, 0, 64, 99
1, 36034, Note_off_c, 0, 64, 99
1, 36034, Note_on_c, 0, 72, 114
1, 36198, Note_off_c, 0, 72, 114
1, 36438, Note_on_c, 0, 70, 112
1, 36520, Note_off_c, 0, 70, 112
1, 36527, Note_on_c, 0, 67, 94
1, 36567, Note_off_c, 0, 67, 94
1, 36578, Note_on_c, 0, 69, 102
1, 36634, Note_off_c, 0, 69, 102
1, 36634, Note_on_c, 0, 72, 118
1, 36731, Note_off_c, 0, 72, 118
1, 36737, Note_on_c, 0, 72, 114
1, 36889, Note_off_c, 0, 72, 114
1, 36897, Note_on_c, 0, 70, 116
1, 37012, Note_off_c, 0, 70, 116
1, 37016, Note_on_c, 0, 69, 116
1, 37098, Note_off_c, 0, 69, 116
1, 37109, Note_on_c, 0, 65, 107
1, 37221, Note_off_c, 0, 65, 107
1, 37229, Note_on_c, 0, 60, 94
1, 37288, Note_off_c, 0, 60, 94
1, 37294, Note_on_c, 0, 67, 107
1, 37352, Note_off_c, 0, 67, 107
1, 37352, Note_on_c, 0, 69, 99
1, 37567, Note_off_c, 0, 69, 99
1, 37595, Note_on_c, 0, 65, 93
1, 37680, Note_off_c, 0, 65, 93
1, 37688, Note_on_c, 0, 67, 93
1, 37793, Note_off_c, 0, 67, 93
1, 37798, Note_on_c, 0, 65, 102
1, 37879, Note_off_c, 0, 65, 102
1, 37892, Note_on_c, 0, 62, 90
1, 37987, Note_off_c, 0, 62, 90
1, 37996, Note_on_c, 0, 60, 93
1, 38216, Note_off_c, 0, 60, 93
1, 38216, End_track
0, 0, End_of_file
