0, 0, Header, 1, 1, 192
1, 0, Start_track
1, 0, Title_t, "Melody"
1, 0, Tempo, 285714
1, 0, Key_signature, 0, "major"
1, 0, Time_signature, 4, 2, 24, 8
1, 4128, Note_on_c, 0, 62, 119
1, 4157, Note_off_c, 0, 62, 119
1, 4164, Note_on_c, 0, 64, 119
1, 4199, Note_off_c, 0, 64, 119
1, 4206, Note_on_c, 0, 65, 122
1, 4297, Note_off_c, 0, 65, 122
1, 4310, Note_on_c, 0, 70, 119
1, 4368, Note_off_c, 0, 70, 119
1, 4375, Note_on_c, 0, 68, 109
1, 4419, Note_off_c, 0, 68, 109
1, 4422, Note_on_c, 0, 70, 104
1, 4453, Note_off_c, 0, 70, 104
1, 4454, Note_on_c, 0, 68, 110
1, 4494, Note_off_c, 0, 68, 110
1, 4497, Note_on_c, 0, 65, 109
1, 4541, Note_off_c, 0, 65, 109
1, 4546, Note_on_c, 0, 67, 118
1, 4676, Note_off_c, 0, 67, 118
1, 4681, Note_on_c, 0, 64, 107
1, 4751, Note_off_c, 0, 64, 107
1, 5031, Note_on_c, 0, 74, 121
1, 5099, Note_off_c, 0, 74, 121
1, 5104, Note_on_c, 0, 73, 124
1, 5170, Note_off_c, 0, 73, 124
1, 5185, Note_on_c, 0, 72, 118
1, 5261, Note_off_c, 0, 72, 118
1, 5264, Note_on_c, 0, 67, 106
1, 5340, Note_off_c, 0, 67, 106
1, 5351, Note_on_c, 0, 70, 116
1, 5409, Note_off_c, 0, 70, 116
1, 5412, Note_on_c, 0, 72, 112
1, 5454, Note_off_c, 0, 72, 112
1, 5455, Note_on_c, 0, 70, 115
1, 5495, Note_off_c, 0, 70, 115
1, 5502, Note_on_c, 0, 69, 119
1, 5617, Note_off_c, 0, 69, 119
1, 5626, Note_on_c, 0, 68, 118
1, 5702, Note_off_c, 0, 68, 118
1, 5797, Note_on_c, 0, 65, 105
1, 5890, Note_off_c, 0, 65, 105
1, 5905, Note_on_c, 0, 63, 104
1, 5983, Note_off_c, 0, 63, 104
1, 5996, Note_on_c, 0, 60, 82
1, 6052, Note_off_c, 0, 60, 82
1, 6085, Note_on_c, 0, 67, 117
1, 6127, Note_off_c, 0, 67, 117
1, 6134, Note_on_c, 0, 69, 108
1, 6169, Note_off_c, 0, 69, 108
1, 6174, Note_on_c, 0, 67, 119
1, 6195, Note_off_c, 0, 67, 119
1, 6196, Note_on_c, 0, 65, 116
1, 6277, Note_off_c, 0, 65, 116
1, 6286, Note_on_c, 0, 64, 112
1, 6362, Note_off_c, 0, 64, 112
1, 6395, Note_on_c, 0, 57, 103
1, 6465, Note_off_c, 0, 57, 103
1, 6494, Note_on_c, 0, 58, 96
1, 6579, Note_off_c, 0, 58, 96
1, 6580, Note_on_c, 0, 62, 104
1, 6640, Note_off_c, 0, 62, 104
1, 6651, Note_on_c, 0, 65, 116
1, 6752, Note_off_c, 0, 65, 116
1, 6761, Note_on_c, 0, 67, 116
1, 6844, Note_off_c, 0, 67, 116
1, 6871, Note_on_c, 0, 64, 111
1, 6943, Note_off_c, 0, 64, 111
1, 6960, Note_on_c, 0, 62, 101
1, 7024, Note_off_c, 0, 62, 101
1, 7076, Note_on_c, 0, 64, 95
1, 7144, Note_off_c, 0, 64, 95
1, 7144, Note_on_c, 0, 67, 110
1, 7218, Note_off_c, 0, 67, 110
1, 7219, Note_on_c, 0, 70, 111
1, 7316, Note_off_c, 0, 70, 111
1, 7317, Note_on_c, 0, 72, 110
1, 7352, Note_off_c, 0, 72, 110
1, 7357, Note_on_c, 0, 70, 108
1, 7380, Note_off_c, 0, 70, 108
1, 7381, Note_on_c, 0, 69, 124
1, 7488, Note_off_c, 0, 69, 124
1, 7493, Note_on_c, 0, 67, 115
1, 7576, Note_off_c, 0, 67, 115
1, 7581, Note_on_c, 0, 66, 118
1, 7707, Note_off_c, 0, 66, 118
1, 7712, Note_on_c, 0, 62, 104
1, 7764, Note_off_c, 0, 62, 104
1, 7767, Note_on_c, 0, 60, 100
1, 7815, Note_off_c, 0, 60, 100
1, 7822, Note_on_c, 0, 62, 99
1, 7853, Note_off_c, 0, 62, 99
1, 7856, Note_on_c, 0, 60, 93
1, 7883, Note_off_c, 0, 60, 93
1, 7886, Note_on_c, 0, 57, 96
1, 7964, Note_off_c, 0, 57, 96
1, 7989, Note_on_c, 0, 64, 81
1, 8271, Note_off_c, 0, 64, 81
1, 9140, Note_on_c, 0, 67, 116
1, 9264, Note_off_c, 0, 67, 116
1, 9293, Note_on_c, 0, 64, 106
1, 9404, Note_off_c, 0, 64, 106
1, 9429, Note_on_c, 0, 65, 97
1, 9503, Note_off_c, 0, 65, 97
1, 9504, Note_on_c, 0, 67, 111
1, 9619, Note_off_c, 0, 67, 111
1, 9619, Note_on_c, 0, 72, 122
1, 9697, Note_off_c, 0, 72, 122
1, 9706, Note_on_c, 0, 71, 105
1, 9789, Note_off_c, 0, 71, 105
1, 9828, Note_on_c, 0, 69, 120
1, 9894, Note_off_c, 0, 69, 120
1, 9907, Note_on_c, 0, 67, 116
1, 9996, Note_off_c, 0, 67, 116
1, 10003, Note_on_c, 0, 65, 119
1, 10092, Note_off_c, 0, 65, 119
1, 10095, Note_on_c, 0, 62, 105
1, 10198, Note_off_c, 0, 62, 105
1, 10211, Note_on_c, 0, 57, 82
1, 10259, Note_off_c, 0, 57, 82
1, 10274, Note_on_c, 0, 62, 107
1, 10307, Note_off_c, 0, 62, 107
1, 10316, Note_on_c, 0, 64, 104
1, 10425, Note_off_c, 0, 64, 104
1, 10428, Note_on_c, 0, 67, 114
1, 10572, Note_off_c, 0, 67, 114
1, 10587, Note_on_c, 0, 62, 90
1, 10791, Note_off_c, 0, 62, 90
1, 11346, Note_on_c, 0, 69, 123
1, 11422, Note_off_c, 0, 69, 123
1, 11435, Note_on_c, 0, 70, 115
1, 11528, Note_off_c, 0, 70, 115
1, 11535, Note_on_c, 0, 69, 124
1, 11603, Note_off_c, 0, 69, 124
1, 11612, Note_on_c, 0, 68, 119
1, 11715, Note_off_c, 0, 68, 119
1, 11726, Note_on_c, 0, 65, 117
1, 11821, Note_off_c, 0, 65, 117
1, 11826, Note_on_c, 0, 63, 101
1, 11919, Note_off_c, 0, 63, 101
1, 11932, Note_on_c, 0, 60, 93
1, 11990, Note_on_c, 0, 67, 120
1, 11990, Note_off_c, 0, 60, 93
1, 12103, Note_off_c, 0, 67, 120
1, 12110, Note_on_c, 0, 65, 116
1, 12209, Note_off_c, 0, 65, 116
1, 12216, Note_on_c, 0, 64, 113
1, 12321, Note_off_c, 0, 64, 113
1, 12328, Note_on_c, 0, 57, 93
1, 12404, Note_off_c, 0, 57, 93
1, 12503, Note_on_c, 0, 62, 91
1, 12565, Note_off_c, 0, 62, 91
1, 12582, Note_on_c, 0, 65, 123
1, 12699, Note_off_c, 0, 65, 123
1, 12704, Note_on_c, 0, 67, 115
1, 12756, Note_off_c, 0, 67, 115
1, 12761, Note_on_c, 0, 64, 114
1, 12866, Note_off_c, 0, 64, 114
1, 12899, Note_on_c, 0, 62, 97
1, 12957, Note_off_c, 0, 62, 97
1, 12966, Note_on_c, 0, 61, 89
1, 13057, Note_off_c, 0, 61, 89
1, 13060, Note_on_c, 0, 64, 107
1, 13159, Note_off_c, 0, 64, 107
1, 13159, Note_on_c, 0, 58, 84
1, 13244, Note_off_c, 0, 58, 84
1, 13251, Note_on_c, 0, 56, 92
1, 13325, Note_off_c, 0, 56, 92
1, 13332, Note_on_c, 0, 57, 104
1, 13413, Note_off_c, 0, 57, 104
1, 13436, Note_on_c, 0, 65, 106
1, 13553, Note_off_c, 0, 65, 106
1, 13572, Note_on_c, 0, 64, 102
1, 13687, Note_off_c, 0, 64, 102
1, 13718, Note_on_c, 0, 62, 110
1, 13852, Note_off_c, 0, 62, 110
1, 13855, Note_on_c, 0, 57, 89
1, 13934, Note_off_c, 0, 57, 89
1, 13969, Note_on_c, 0, 59, 91
1, 14037, Note_off_c, 0, 59, 91
1, 14037, Note_on_c, 0, 60, 95
1, 14074, Note_off_c, 0, 60, 95
1, 14074, Note_on_c, 0, 62, 105
1, 14243, Note_off_c, 0, 62, 105
1, 14305, Note_on_c, 0, 60, 99
1, 14383, Note_off_c, 0, 60, 99
1, 14388, Note_on_c, 0, 62, 104
1, 14469, Note_off_c, 0, 62, 104
1, 14480, Note_on_c, 0, 59, 91
1, 14573, Note_off_c, 0, 59, 91
1, 14590, Note_on_c, 0, 57, 96
1, 14814, Note_off_c, 0, 57, 96
1, 15167, Note_on_c, 0, 53, 94
1, 15235, Note_off_c, 0, 53, 94
1, 15256, Note_on_c, 0, 60, 109
1, 15376, Note_off_c, 0, 60, 109
1, 15397, Note_on_c, 0, 55, 95
1, 15750, Note_off_c, 0, 55, 95
1, 16926, Note_on_c, 0, 59, 102
1, 17062, Note_off_c, 0, 59, 102
1, 17079, Note_on_c, 0, 61, 105
1, 17114, Note_off_c, 0, 61, 105
1, 17125, Note_on_c, 0, 63, 109
1, 17162, Note_off_c, 0, 63, 109
1, 17162, Note_on_c, 0, 64, 116
1, 17282, Note_off_c, 0, 64, 116
1, 17289, Note_on_c, 0, 66, 110
1, 17372, Note_off_c, 0, 66, 110
1, 17383, Note_on_c, 0, 67, 97
1, 17474, Note_off_c, 0, 67, 97
1, 17481, Note_on_c, 0, 69, 111
1, 17557, Note_off_c, 0, 69, 111
1, 17570, Note_on_c, 0, 69, 113
1, 17622, Note_off_c, 0, 69, 113
1, 17641, Note_on_c, 0, 71, 90
1, 18087, Note_off_c, 0, 71, 90
1, 18098, Note_on_c, 0, 72, 120
1, 18218, Note_off_c, 0, 72, 120
1, 18218, Note_on_c, 0, 74, 108
1, 18268, Note_off_c, 0, 74, 108
1, 18277, Note_on_c, 0, 72, 122
1, 18325, Note_off_c, 0, 72, 122
1, 18330, Note_on_c, 0, 71, 116
1, 18396, Note_off_c, 0, 71, 116
1, 18409, Note_on_c, 0, 67, 112
1, 18506, Note_off_c, 0, 67, 112
1, 18517, Note_on_c, 0, 64, 97
1, 18606, Note_off_c, 0, 64, 97
1, 18619, Note_on_c, 0, 60, 93
1, 18691, Note_off_c, 0, 60, 93
1, 18698, Note_on_c, 0, 66, 110
1, 18752, Note_off_c, 0, 66, 110
1, 18757, Note_on_c, 0, 67, 109
1, 18815, Note_off_c, 0, 67, 109
1, 18816, Note_on_c, 0, 68, 106
1, 18864, Note_off_c, 0, 68, 106
1, 18891, Note_on_c, 0, 69, 109
1, 18996, Note_off_c, 0, 69, 109
1, 19003, Note_on_c, 0, 66, 112
1, 19045, Note_off_c, 0, 66, 112
1, 19056, Note_on_c, 0, 67, 115
1, 19184, Note_off_c, 0, 67, 115
1, 19185, Note_on_c, 0, 64, 91
1, 19413, Note_off_c, 0, 64, 91
1, 19890, Note_on_c, 0, 55, 90
1, 19944, Note_off_c, 0, 55, 90
1, 19944, Note_on_c, 0, 57, 109
1, 19988, Note_off_c, 0, 57, 109
1, 19988, Note_on_c, 0, 61, 111
1, 20046, Note_off_c, 0, 61, 111
1, 20051, Note_on_c, 0, 62, 113
1, 20115, Note_off_c, 0, 62, 113
1, 20120, Note_on_c, 0, 64, 118
1, 20186, Note_off_c, 0, 64, 118
1, 20199, Note_on_c, 0, 65, 120
1, 20321, Note_off_c, 0, 65, 120
1, 20330, Note_on_c, 0, 67, 117
1, 20413, Note_on_c, 0, 69, 127
1, 20413, Note_off_c, 0, 67, 117
1, 20504, Note_off_c, 0, 69, 127
1, 20509, Note_on_c, 0, 68, 115
1, 20569, Note_off_c, 0, 68, 115
1, 20574, Note_on_c, 0, 70, 108
1, 20687, Note_off_c, 0, 70, 108
1, 20694, Note_on_c, 0, 69, 117
1, 20777, Note_off_c, 0, 69, 117
1, 20780, Note_on_c, 0, 67, 115
1, 20895, Note_off_c, 0, 67, 115
1, 20906, Note_on_c, 0, 65, 118
1, 20982, Note_off_c, 0, 65, 118
1, 20985, Note_on_c, 0, 64, 112
1, 21084, Note_off_c, 0, 64, 112
1, 21095, Note_on_c, 0, 62, 102
1, 21153, Note_off_c, 0, 62, 102
1, 21260, Note_on_c, 0, 70, 112
1, 21314, Note_off_c, 0, 70, 112
1, 21331, Note_on_c, 0, 72, 97
1, 21438, Note_off_c, 0, 72, 97
1, 21441, Note_on_c, 0, 71, 106
1, 21487, Note_off_c, 0, 71, 106
1, 21490, Note_on_c, 0, 69, 105
1, 21536, Note_off_c, 0, 69, 105
1, 21543, Note_on_c, 0, 67, 111
1, 21638, Note_off_c, 0, 67, 111
1, 21651, Note_on_c, 0, 66, 121
1, 21740, Note_off_c, 0, 66, 121
1, 21743, Note_on_c, 0, 64, 109
1, 21836, Note_off_c, 0, 64, 109
1, 21847, Note_on_c, 0, 57, 103
1, 21928, Note_off_c, 0, 57, 103
1, 22019, Note_on_c, 0, 64, 113
1, 22104, Note_off_c, 0, 64, 113
1, 22111, Note_on_c, 0, 62, 99
1, 22220, Note_off_c, 0, 62, 99
1, 22220, Note_on_c, 0, 57, 94
1, 22286, Note_off_c, 0, 57, 94
1, 22297, Note_on_c, 0, 60, 106
1, 22421, Note_off_c, 0, 60, 106
1, 22487, Note_on_c, 0, 59, 99
1, 22563, Note_off_c, 0, 59, 99
1, 22588, Note_on_c, 0, 67, 92
1, 22689, Note_off_c, 0, 67, 92
1, 22716, Note_on_c, 0, 65, 97
1, 22770, Note_off_c, 0, 65, 97
1, 22791, Note_on_c, 0, 66, 107
1, 22833, Note_off_c, 0, 66, 107
1, 22854, Note_on_c, 0, 67, 116
1, 23006, Note_off_c, 0, 67, 116
1, 23341, Note_on_c, 0, 74, 123
1, 23438, Note_off_c, 0, 74, 123
1, 23439, Note_on_c, 0, 72, 118
1, 23536, Note_off_c, 0, 72, 118
1, 23543, Note_on_c, 0, 67, 99
1, 23650, Note_off_c, 0, 67, 99
1, 23651, Note_on_c, 0, 70, 115
1, 23768, Note_off_c, 0, 70, 115
1, 23775, Note_on_c, 0, 69, 119
1, 23854, Note_off_c, 0, 69, 119
1, 23935, Note_on_c, 0, 68, 121
1, 23997, Note_off_c, 0, 68, 121
1, 24088, Note_on_c, 0, 65, 116
1, 24193, Note_off_c, 0, 65, 116
1, 24204, Note_on_c, 0, 63, 103
1, 24322, Note_off_c, 0, 63, 103
1, 24331, Note_on_c, 0, 57, 109
1, 24395, Note_off_c, 0, 57, 109
1, 24395, Note_on_c, 0, 67, 113
1, 24492, Note_off_c, 0, 67, 113
1, 24503, Note_on_c, 0, 66, 93
1, 24551, Note_off_c, 0, 66, 93
1, 24648, Note_on_c, 0, 58, 85
1, 24696, Note_off_c, 0, 58, 85
1, 24709, Note_on_c, 0, 62, 88
1, 24767, Note_off_c, 0, 62, 88
1, 24794, Note_on_c, 0, 65, 118
1, 24870, Note_off_c, 0, 65, 118
1, 24875, Note_on_c, 0, 67, 112
1, 24960, Note_off_c, 0, 67, 112
1, 24981, Note_on_c, 0, 64, 107
1, 25059, Note_off_c, 0, 64, 107
1, 25066, Note_on_c, 0, 62, 106
1, 25136, Note_off_c, 0, 62, 106
1, 25175, Note_on_c, 0, 61, 103
1, 25247, Note_off_c, 0, 61, 103
1, 25262, Note_on_c, 0, 64, 105
1, 25316, Note_off_c, 0, 64, 105
1, 25331, Note_on_c, 0, 67, 114
1, 25461, Note_off_c, 0, 67, 114
1, 25468, Note_on_c, 0, 69, 112
1, 25518, Note_off_c, 0, 69, 112
1, 25525, Note_on_c, 0, 71, 89
1, 25696, Note_off_c, 0, 71, 89
1, 25703, Note_on_c, 0, 69, 105
1, 25779, Note_off_c, 0, 69, 105
1, 25929, Note_on_c, 0, 71, 96
1, 25999, Note_off_c, 0, 71, 96
1, 26030, Note_on_c, 0, 64, 89
1, 26338, Note_off_c, 0, 64, 89
1, 27034, Note_on_c, 0, 72, 124
1, 27108, Note_off_c, 0, 72, 124
1, 27221, Note_on_c, 0, 72, 119
1, 27306, Note_off_c, 0, 72, 119
1, 27348, Note_on_c, 0, 72, 91
1, 27683, Note_off_c, 0, 72, 91
1, 27860, Note_on_c, 0, 70, 109
1, 27936, Note_off_c, 0, 70, 109
1, 27943, Note_on_c, 0, 72, 103
1, 27993, Note_on_c, 0, 70, 103
1, 27993, Note_off_c, 0, 72, 103
1, 28045, Note_off_c, 0, 70, 103
1, 28050, Note_on_c, 0, 67, 110
1, 28135, Note_off_c, 0, 67, 110
1, 28135, Note_on_c, 0, 69, 115
1, 28189, Note_off_c, 0, 69, 115
1, 28204, Note_on_c, 0, 67, 110
1, 28297, Note_off_c, 0, 67, 110
1, 28298, Note_on_c, 0, 65, 112
1, 28391, Note_off_c, 0, 65, 112
1, 28402, Note_on_c, 0, 63, 93
1, 28489, Note_off_c, 0, 63, 93
1, 28496, Note_on_c, 0, 60, 80
1, 28556, Note_off_c, 0, 60, 80
1, 28556, Note_on_c, 0, 62, 100
1, 28667, Note_off_c, 0, 62, 100
1, 28725, Note_on_c, 0, 60, 98
1, 28865, Note_off_c, 0, 60, 98
1, 28865, End_track
0, 0, End_of_file
