0, 0, Header, 1, 1, 2520
1, 0, Start_track
1, 0, Title_t, "Melody"
1, 0, Tempo, 937500
1, 0, Key_signature, 0, "major"
1, 0, Time_signature, 4, 2, 24, 8
1, 21786, Note_on_c, 0, 68, 106
1, 22098, Note_off_c, 0, 68, 106
1, 22113, Note_on_c, 0, 65, 106
1, 22487, Note_off_c, 0, 65, 106
1, 22487, Note_on_c, 0, 63, 96
1, 22752, Note_off_c, 0, 63, 96
1, 22767, Note_on_c, 0, 62, 93
1, 23094, Note_off_c, 0, 62, 93
1, 23125, Note_on_c, 0, 61, 104
1, 23437, Note_off_c, 0, 61, 104
1, 23671, Note_on_c, 0, 59, 94
1, 24014, Note_off_c, 0, 59, 94
1, 24045, Note_on_c, 0, 60, 84
1, 25558, Note_off_c, 0, 60, 84
1, 26619, Note_on_c, 0, 63, 95
1, 26837, Note_off_c, 0, 63, 95
1, 26883, Note_on_c, 0, 64, 98
1, 27288, Note_off_c, 0, 64, 98
1, 27366, Note_on_c, 0, 65, 112
1, 28068, Note_off_c, 0, 65, 112
1, 28130, Note_on_c, 0, 67, 115
1, 28722, Note_off_c, 0, 67, 115
1, 28800, Note_on_c, 0, 69, 106
1, 29439, Note_off_c, 0, 69, 106
1, 29532, Note_on_c, 0, 70, 93
1, 32652, Note_off_c, 0, 70, 93
1, 32698, Note_on_c, 0, 72, 104
1, 33197, Note_off_c, 0, 72, 104
1, 33243, Note_on_c, 0, 69, 89
1, 36629, Note_off_c, 0, 69, 89
1, 41974, Note_on_c, 0, 67, 58
1, 42223, Note_off_c, 0, 67, 58
1, 42339, Note_on_c, 0, 68, 117
1, 42885, Note_off_c, 0, 68, 117
1, 42900, Note_on_c, 0, 67, 122
1, 43414, Note_off_c, 0, 67, 122
1, 43429, Note_on_c, 0, 66, 111
1, 43897, Note_off_c, 0, 66, 111
1, 43945, Note_on_c, 0, 65, 93
1, 46424, Note_off_c, 0, 65, 93
1, 46445, Note_on_c, 0, 76, 85
1, 46653, Note_off_c, 0, 76, 85
1, 46685, Note_on_c, 0, 74, 95
1, 46772, Note_off_c, 0, 74, 95
1, 46772, Note_on_c, 0, 72, 100
1, 47046, Note_off_c, 0, 72, 100
1, 47067, Note_on_c, 0, 69, 106
1, 47330, Note_on_c, 0, 65, 103
1, 47330, Note_off_c, 0, 69, 106
1, 47659, Note_off_c, 0, 65, 103
1, 47702, Note_on_c, 0, 62, 99
1, 48053, Note_off_c, 0, 62, 99
1, 48063, Note_on_c, 0, 57, 86
1, 48359, Note_off_c, 0, 57, 86
1, 48369, Note_on_c, 0, 60, 86
1, 48807, Note_off_c, 0, 60, 86
1, 48828, Note_on_c, 0, 57, 81
1, 49003, Note_off_c, 0, 57, 81
1, 49046, Note_on_c, 0, 59, 90
1, 49451, Note_off_c, 0, 59, 90
1, 49461, Note_on_c, 0, 64, 99
1, 49757, Note_off_c, 0, 64, 99
1, 49789, Note_on_c, 0, 63, 93
1, 50227, Note_off_c, 0, 63, 93
1, 50248, Note_on_c, 0, 59, 94
1, 50478, Note_off_c, 0, 59, 94
1, 50499, Note_on_c, 0, 56, 94
1, 50773, Note_off_c, 0, 56, 94
1, 50871, Note_on_c, 0, 54, 91
1, 51101, Note_off_c, 0, 54, 91
1, 51122, Note_on_c, 0, 55, 98
1, 51846, Note_off_c, 0, 55, 98
1, 51847, Note_on_c, 0, 53, 88
1, 52049, Note_off_c, 0, 53, 88
1, 52077, Note_on_c, 0, 52, 80
1, 52256, Note_off_c, 0, 52, 80
1, 52271, Note_on_c, 0, 55, 90
1, 52644, Note_off_c, 0, 55, 90
1, 52665, Note_on_c, 0, 59, 91
1, 52939, Note_off_c, 0, 59, 91
1, 52971, Note_on_c, 0, 62, 94
1, 53695, Note_off_c, 0, 62, 94
1, 53727, Note_on_c, 0, 59, 88
1, 54363, Note_off_c, 0, 59, 88
1, 54395, Note_on_c, 0, 62, 92
1, 55173, Note_off_c, 0, 62, 92
1, 55183, Note_on_c, 0, 59, 91
1, 55731, Note_off_c, 0, 59, 91
1, 55785, Note_on_c, 0, 67, 103
1, 56037, Note_off_c, 0, 67, 103
1, 56058, Note_on_c, 0, 68, 96
1, 56178, Note_off_c, 0, 68, 96
1, 56199, Note_on_c, 0, 67, 103
1, 56539, Note_off_c, 0, 67, 103
1, 56549, Note_on_c, 0, 62, 97
1, 57086, Note_off_c, 0, 62, 97
1, 57096, Note_on_c, 0, 59, 95
1, 57754, Note_off_c, 0, 59, 95
1, 57775, Note_on_c, 0, 55, 85
1, 58191, Note_off_c, 0, 55, 85
1, 58289, Note_on_c, 0, 61, 89
1, 58914, Note_off_c, 0, 61, 89
1, 58935, Note_on_c, 0, 67, 93
1, 61436, Note_off_c, 0, 67, 93
1, 66263, Note_on_c, 0, 61, 86
1, 66515, Note_off_c, 0, 61, 86
1, 66525, Note_on_c, 0, 65, 90
1, 66700, Note_off_c, 0, 65, 90
1, 66710, Note_on_c, 0, 69, 92
1, 66863, Note_off_c, 0, 69, 92
1, 66906, Note_on_c, 0, 72, 86
1, 67246, Note_off_c, 0, 72, 86
1, 67256, Note_on_c, 0, 76, 103
1, 67508, Note_off_c, 0, 76, 103
1, 67529, Note_on_c, 0, 74, 100
1, 67638, Note_off_c, 0, 74, 100
1, 67659, Note_on_c, 0, 72, 100
1, 67878, Note_off_c, 0, 72, 100
1, 67888, Note_on_c, 0, 69, 108
1, 68162, Note_off_c, 0, 69, 108
1, 68238, Note_on_c, 0, 65, 100
1, 68600, Note_off_c, 0, 65, 100
1, 68610, Note_on_c, 0, 62, 86
1, 69015, Note_off_c, 0, 62, 86
1, 69036, Note_on_c, 0, 60, 78
1, 69452, Note_off_c, 0, 60, 78
1, 69462, Note_on_c, 0, 57, 82
1, 69988, Note_off_c, 0, 57, 82
1, 69988, Note_on_c, 0, 53, 74
1, 70503, Note_off_c, 0, 53, 74
1, 70513, Note_on_c, 0, 57, 85
1, 71335, Note_off_c, 0, 57, 85
1, 71335, Note_on_c, 0, 59, 91
1, 73024, Note_off_c, 0, 59, 91
1, 76480, Note_on_c, 0, 62, 96
1, 76699, Note_off_c, 0, 62, 96
1, 76720, Note_on_c, 0, 64, 104
1, 77093, Note_off_c, 0, 64, 104
1, 77114, Note_on_c, 0, 66, 114
1, 77443, Note_off_c, 0, 66, 114
1, 77486, Note_on_c, 0, 67, 108
1, 77804, Note_off_c, 0, 67, 108
1, 77804, Note_on_c, 0, 64, 99
1, 78144, Note_off_c, 0, 64, 99
1, 78144, Note_on_c, 0, 62, 92
1, 78462, Note_off_c, 0, 62, 92
1, 78483, Note_on_c, 0, 61, 86
1, 78768, Note_off_c, 0, 61, 86
1, 78789, Note_on_c, 0, 64, 92
1, 79030, Note_off_c, 0, 64, 92
1, 79040, Note_on_c, 0, 67, 100
1, 79456, Note_off_c, 0, 67, 100
1, 79477, Note_on_c, 0, 69, 87
1, 79762, Note_off_c, 0, 69, 87
1, 79794, Note_on_c, 0, 70, 98
1, 80167, Note_off_c, 0, 70, 98
1, 80167, Note_on_c, 0, 68, 95
1, 80397, Note_off_c, 0, 68, 95
1, 80440, Note_on_c, 0, 69, 83
1, 80692, Note_off_c, 0, 69, 83
1, 80702, Note_on_c, 0, 77, 104
1, 81228, Note_off_c, 0, 77, 104
1, 81249, Note_on_c, 0, 76, 104
1, 81490, Note_on_c, 0, 74, 96
1, 81490, Note_off_c, 0, 76, 104
1, 81621, Note_off_c, 0, 74, 96
1, 81664, Note_on_c, 0, 73, 91
1, 82048, Note_off_c, 0, 73, 91
1, 82048, Note_on_c, 0, 64, 91
1, 82300, Note_off_c, 0, 64, 91
1, 82332, Note_on_c, 0, 67, 101
1, 82672, Note_off_c, 0, 67, 101
1, 82704, Note_on_c, 0, 70, 103
1, 82934, Note_off_c, 0, 70, 103
1, 82966, Note_on_c, 0, 69, 99
1, 83130, Note_off_c, 0, 69, 99
1, 83151, Note_on_c, 0, 70, 92
1, 83403, Note_off_c, 0, 70, 92
1, 83424, Note_on_c, 0, 67, 104
1, 83775, Note_off_c, 0, 67, 104
1, 85892, Note_on_c, 0, 66, 112
1, 86396, Note_off_c, 0, 66, 112
1, 86396, Note_on_c, 0, 66, 80
1, 86396, Note_off_c, 0, 66, 80
1, 86483, Note_on_c, 0, 69, 93
1, 86570, Note_off_c, 0, 69, 93
1, 86624, Note_on_c, 0, 72, 93
1, 86722, Note_off_c, 0, 72, 93
1, 86809, Note_on_c, 0, 76, 98
1, 87225, Note_off_c, 0, 76, 98
1, 87246, Note_on_c, 0, 74, 84
1, 88946, Note_off_c, 0, 74, 84
1, 89878, Note_on_c, 0, 65, 99
1, 90272, Note_off_c, 0, 65, 99
1, 90315, Note_on_c, 0, 69, 84
1, 90413, Note_off_c, 0, 69, 84
1, 90413, Note_on_c, 0, 72, 86
1, 90588, Note_off_c, 0, 72, 86
1, 90588, Note_on_c, 0, 76, 97
1, 90873, Note_off_c, 0, 76, 97
1, 90905, Note_on_c, 0, 75, 96
1, 91475, Note_off_c, 0, 75, 96
1, 91595, Note_on_c, 0, 71, 90
1, 91726, Note_off_c, 0, 71, 90
1, 91747, Note_on_c, 0, 69, 98
1, 91856, Note_off_c, 0, 69, 98
1, 91877, Note_on_c, 0, 67, 101
1, 92173, Note_off_c, 0, 67, 101
1, 92205, Note_on_c, 0, 65, 79
1, 92386, Note_off_c, 0, 65, 79
1, 92578, Note_on_c, 0, 74, 92
1, 93335, Note_off_c, 0, 74, 92
1, 94497, Note_on_c, 0, 64, 87
1, 94902, Note_off_c, 0, 64, 87
1, 94912, Note_on_c, 0, 67, 92
1, 95131, Note_off_c, 0, 67, 92
1, 95152, Note_on_c, 0, 71, 88
1, 95371, Note_off_c, 0, 71, 88
1, 95392, Note_on_c, 0, 74, 93
1, 95907, Note_off_c, 0, 74, 93
1, 95928, Note_on_c, 0, 71, 88
1, 96465, Note_off_c, 0, 71, 88
1, 97397, Note_on_c, 0, 73, 96
1, 97781, Note_off_c, 0, 73, 96
1, 97802, Note_on_c, 0, 70, 88
1, 98021, Note_off_c, 0, 70, 88
1, 98086, Note_on_c, 0, 66, 91
1, 98480, Note_off_c, 0, 66, 91
1, 98534, Note_on_c, 0, 63, 76
1, 98808, Note_off_c, 0, 63, 76
1, 98939, Note_on_c, 0, 71, 92
1, 99136, Note_off_c, 0, 71, 92
1, 99212, Note_on_c, 0, 69, 93
1, 99650, Note_off_c, 0, 69, 93
1, 99660, Note_on_c, 0, 65, 98
1, 99967, Note_off_c, 0, 65, 98
1, 100021, Note_on_c, 0, 61, 81
1, 100229, Note_off_c, 0, 61, 81
1, 100294, Note_on_c, 0, 60, 72
1, 100480, Note_off_c, 0, 60, 72
1, 100567, Note_on_c, 0, 70, 103
1, 101005, Note_off_c, 0, 70, 103
1, 101005, Note_on_c, 0, 69, 102
1, 101279, Note_off_c, 0, 69, 102
1, 101279, Note_on_c, 0, 68, 102
1, 101630, Note_off_c, 0, 68, 102
1, 101662, Note_on_c, 0, 65, 95
1, 102056, Note_off_c, 0, 65, 95
1, 102066, Note_on_c, 0, 63, 86
1, 102230, Note_off_c, 0, 63, 86
1, 102273, Note_on_c, 0, 60, 84
1, 102481, Note_off_c, 0, 60, 84
1, 102491, Note_on_c, 0, 67, 109
1, 102940, Note_off_c, 0, 67, 109
1, 102950, Note_on_c, 0, 65, 99
1, 103158, Note_off_c, 0, 65, 99
1, 103201, Note_on_c, 0, 62, 86
1, 103595, Note_off_c, 0, 62, 86
1, 103638, Note_on_c, 0, 57, 77
1, 103890, Note_off_c, 0, 57, 77
1, 103933, Note_on_c, 0, 61, 92
1, 104273, Note_off_c, 0, 61, 92
1, 104305, Note_on_c, 0, 63, 92
1, 104601, Note_off_c, 0, 63, 92
1, 104677, Note_on_c, 0, 56, 87
1, 104973, Note_off_c, 0, 56, 87
1, 104983, Note_on_c, 0, 54, 86
1, 105257, Note_off_c, 0, 54, 86
1, 105267, Note_on_c, 0, 55, 95
1, 105705, Note_off_c, 0, 55, 95
1, 105726, Note_on_c, 0, 57, 88
1, 106000, Note_off_c, 0, 57, 88
1, 106000, Note_on_c, 0, 59, 82
1, 106241, Note_off_c, 0, 59, 82
1, 106284, Note_on_c, 0, 60, 92
1, 106525, Note_on_c, 0, 62, 97
1, 106525, Note_off_c, 0, 60, 92
1, 106952, Note_on_c, 0, 60, 87
1, 106952, Note_off_c, 0, 62, 97
1, 107215, Note_off_c, 0, 60, 87
1, 107236, Note_on_c, 0, 59, 84
1, 107532, Note_off_c, 0, 59, 84
1, 107652, Note_on_c, 0, 60, 87
1, 108014, Note_off_c, 0, 60, 87
1, 108079, Note_on_c, 0, 64, 91
1, 108463, Note_off_c, 0, 64, 91
1, 108495, Note_on_c, 0, 65, 93
1, 108725, Note_off_c, 0, 65, 93
1, 108725, Note_on_c, 0, 66, 90
1, 108999, Note_off_c, 0, 66, 90
1, 109031, Note_on_c, 0, 67, 86
1, 110446, Note_off_c, 0, 67, 86
1, 112234, Note_on_c, 0, 57, 97
1, 112475, Note_off_c, 0, 57, 97
1, 112529, Note_on_c, 0, 58, 90
1, 112836, Note_off_c, 0, 58, 90
1, 112836, Note_on_c, 0, 62, 88
1, 113099, Note_off_c, 0, 62, 88
1, 113120, Note_on_c, 0, 65, 103
1, 113361, Note_off_c, 0, 65, 103
1, 113382, Note_on_c, 0, 67, 111
1, 113787, Note_off_c, 0, 67, 111
1, 113808, Note_on_c, 0, 64, 95
1, 114104, Note_off_c, 0, 64, 95
1, 114125, Note_on_c, 0, 62, 92
1, 114454, Note_off_c, 0, 62, 92
1, 114497, Note_on_c, 0, 61, 89
1, 114727, Note_off_c, 0, 61, 89
1, 114814, Note_on_c, 0, 64, 78
1, 115044, Note_off_c, 0, 64, 78
1, 115065, Note_on_c, 0, 67, 91
1, 115394, Note_off_c, 0, 67, 91
1, 115404, Note_on_c, 0, 69, 92
1, 115678, Note_off_c, 0, 69, 92
1, 115721, Note_on_c, 0, 70, 103
1, 116028, Note_off_c, 0, 70, 103
1, 116060, Note_on_c, 0, 69, 81
1, 118144, Note_off_c, 0, 69, 81
1, 123041, Note_on_c, 0, 66, 82
1, 123293, Note_off_c, 0, 66, 82
1, 123413, Note_on_c, 0, 68, 115
1, 123851, Note_off_c, 0, 68, 115
1, 124022, Note_on_c, 0, 67, 113
1, 124570, Note_off_c, 0, 67, 113
1, 124580, Note_on_c, 0, 66, 101
1, 125128, Note_off_c, 0, 66, 101
1, 125149, Note_on_c, 0, 65, 92
1, 125895, Note_off_c, 0, 65, 92
1, 127767, Note_on_c, 0, 74, 104
1, 128085, Note_off_c, 0, 74, 104
1, 128132, Note_on_c, 0, 72, 98
1, 128417, Note_off_c, 0, 72, 98
1, 128449, Note_on_c, 0, 69, 106
1, 128690, Note_off_c, 0, 69, 106
1, 128700, Note_on_c, 0, 65, 100
1, 129007, Note_off_c, 0, 65, 100
1, 129039, Note_on_c, 0, 62, 92
1, 129390, Note_off_c, 0, 62, 92
1, 129433, Note_on_c, 0, 57, 87
1, 129707, Note_off_c, 0, 57, 87
1, 129707, Note_on_c, 0, 71, 89
1, 131780, Note_off_c, 0, 71, 89
1, 133886, Note_on_c, 0, 69, 106
1, 134302, Note_off_c, 0, 69, 106
1, 134302, Note_on_c, 0, 68, 103
1, 134762, Note_off_c, 0, 68, 103
1, 134783, Note_on_c, 0, 67, 108
1, 137668, Note_off_c, 0, 67, 108
1, 137722, Note_on_c, 0, 64, 98
1, 138149, Note_off_c, 0, 64, 98
1, 138170, Note_on_c, 0, 62, 94
1, 138521, Note_off_c, 0, 62, 94
1, 138542, Note_on_c, 0, 60, 86
1, 138783, Note_off_c, 0, 60, 86
1, 138815, Note_on_c, 0, 59, 98
1, 139166, Note_off_c, 0, 59, 98
1, 139176, Note_on_c, 0, 57, 89
1, 139384, Note_off_c, 0, 57, 89
1, 139427, Note_on_c, 0, 55, 95
1, 139767, Note_off_c, 0, 55, 95
1, 139799, Note_on_c, 0, 54, 90
1, 140336, Note_off_c, 0, 54, 90
1, 140357, Note_on_c, 0, 62, 95
1, 140576, Note_off_c, 0, 62, 95
1, 140586, Note_on_c, 0, 63, 82
1, 142933, Note_off_c, 0, 63, 82
1, 143536, Note_on_c, 0, 70, 92
1, 143909, Note_off_c, 0, 70, 92
1, 143941, Note_on_c, 0, 66, 97
1, 144500, Note_off_c, 0, 66, 97
1, 144840, Note_on_c, 0, 68, 102
1, 145169, Note_off_c, 0, 68, 102
1, 145201, Note_on_c, 0, 69, 88
1, 146967, Note_off_c, 0, 69, 88
1, 148722, Note_on_c, 0, 74, 103
1, 149259, Note_off_c, 0, 74, 103
1, 149269, Note_on_c, 0, 72, 96
1, 149477, Note_off_c, 0, 72, 96
1, 149520, Note_on_c, 0, 74, 100
1, 149618, Note_off_c, 0, 74, 100
1, 149639, Note_on_c, 0, 72, 97
1, 149957, Note_off_c, 0, 72, 97
1, 149957, Note_on_c, 0, 69, 84
1, 150275, Note_off_c, 0, 69, 84
1, 150277, Note_on_c, 0, 67, 105
1, 150548, Note_off_c, 0, 67, 105
1, 150655, Note_on_c, 0, 67, 108
1, 150867, Note_off_c, 0, 67, 108
1, 150887, Note_on_c, 0, 65, 96
1, 151128, Note_off_c, 0, 65, 96
1, 151171, Note_on_c, 0, 62, 91
1, 151522, Note_off_c, 0, 62, 91
1, 151543, Note_on_c, 0, 57, 81
1, 151751, Note_off_c, 0, 57, 81
1, 151783, Note_on_c, 0, 60, 81
1, 151969, Note_off_c, 0, 60, 81
1, 152100, Note_on_c, 0, 57, 80
1, 152385, Note_off_c, 0, 57, 80
1, 152406, Note_on_c, 0, 59, 92
1, 152899, Note_off_c, 0, 59, 92
1, 152920, Note_on_c, 0, 64, 94
1, 153194, Note_off_c, 0, 64, 94
1, 153226, Note_on_c, 0, 59, 89
1, 153379, Note_off_c, 0, 59, 89
1, 153400, Note_on_c, 0, 55, 91
1, 154431, Note_off_c, 0, 55, 91
1, 157678, Note_on_c, 0, 63, 91
1, 157941, Note_off_c, 0, 63, 91
1, 157962, Note_on_c, 0, 64, 93
1, 158247, Note_off_c, 0, 64, 93
1, 158268, Note_on_c, 0, 66, 106
1, 158630, Note_off_c, 0, 66, 106
1, 158651, Note_on_c, 0, 67, 101
1, 158958, Note_off_c, 0, 67, 101
1, 158968, Note_on_c, 0, 64, 88
1, 159253, Note_off_c, 0, 64, 88
1, 159263, Note_on_c, 0, 62, 90
1, 159614, Note_off_c, 0, 62, 90
1, 159635, Note_on_c, 0, 61, 81
1, 159843, Note_off_c, 0, 61, 81
1, 159908, Note_on_c, 0, 64, 87
1, 160171, Note_off_c, 0, 64, 87
1, 160181, Note_on_c, 0, 67, 86
1, 160521, Note_off_c, 0, 67, 86
1, 160531, Note_on_c, 0, 69, 85
1, 160849, Note_off_c, 0, 69, 85
1, 160859, Note_on_c, 0, 70, 92
1, 161133, Note_off_c, 0, 70, 92
1, 161154, Note_on_c, 0, 68, 85
1, 161428, Note_off_c, 0, 68, 85
1, 161438, Note_on_c, 0, 69, 83
1, 161887, Note_off_c, 0, 69, 83
1, 162753, Note_on_c, 0, 77, 105
1, 163016, Note_off_c, 0, 77, 105
1, 163048, Note_on_c, 0, 76, 104
1, 163212, Note_off_c, 0, 76, 104
1, 163233, Note_on_c, 0, 74, 94
1, 163331, Note_off_c, 0, 74, 94
1, 163341, Note_on_c, 0, 73, 93
1, 163725, Note_off_c, 0, 73, 93
1, 163768, Note_on_c, 0, 70, 91
1, 163954, Note_off_c, 0, 70, 91
1, 163997, Note_on_c, 0, 69, 95
1, 164260, Note_off_c, 0, 69, 95
1, 164281, Note_on_c, 0, 67, 107
1, 164621, Note_off_c, 0, 67, 107
1, 164664, Note_on_c, 0, 66, 108
1, 165311, Note_off_c, 0, 66, 108
1, 165398, Note_on_c, 0, 69, 94
1, 165474, Note_off_c, 0, 69, 94
1, 165495, Note_on_c, 0, 71, 83
1, 165538, Note_off_c, 0, 71, 83
1, 165592, Note_on_c, 0, 76, 97
1, 165877, Note_off_c, 0, 76, 97
1, 165898, Note_on_c, 0, 71, 95
1, 166292, Note_off_c, 0, 71, 95
1, 170110, Note_on_c, 0, 74, 110
1, 170570, Note_off_c, 0, 74, 110
1, 170580, Note_on_c, 0, 72, 102
1, 170744, Note_off_c, 0, 72, 102
1, 170776, Note_on_c, 0, 74, 102
1, 170896, Note_off_c, 0, 74, 102
1, 170917, Note_on_c, 0, 72, 103
1, 171180, Note_off_c, 0, 72, 103
1, 171180, Note_on_c, 0, 69, 108
1, 171443, Note_off_c, 0, 69, 108
1, 171486, Note_on_c, 0, 67, 115
1, 171968, Note_off_c, 0, 67, 115
1, 172000, Note_on_c, 0, 65, 102
1, 172329, Note_off_c, 0, 65, 102
1, 172339, Note_on_c, 0, 62, 100
1, 172744, Note_off_c, 0, 62, 100
1, 172776, Note_on_c, 0, 57, 90
1, 173039, Note_off_c, 0, 57, 90
1, 173071, Note_on_c, 0, 64, 94
1, 173433, Note_off_c, 0, 64, 94
1, 173520, Note_on_c, 0, 55, 94
1, 173816, Note_off_c, 0, 55, 94
1, 173848, Note_on_c, 0, 54, 95
1, 174155, Note_off_c, 0, 54, 95
1, 174165, Note_on_c, 0, 53, 95
1, 174395, Note_off_c, 0, 53, 95
1, 174438, Note_on_c, 0, 59, 92
1, 174591, Note_off_c, 0, 59, 92
1, 174634, Note_on_c, 0, 62, 84
1, 174908, Note_off_c, 0, 62, 84
1, 175171, Note_on_c, 0, 59, 97
1, 175467, Note_off_c, 0, 59, 97
1, 175521, Note_on_c, 0, 62, 96
1, 175861, Note_off_c, 0, 62, 96
1, 175882, Note_on_c, 0, 60, 84
1, 176134, Note_off_c, 0, 60, 84
1, 176474, Note_on_c, 0, 58, 93
1, 176759, Note_off_c, 0, 58, 93
1, 176846, Note_on_c, 0, 60, 89
1, 176933, Note_off_c, 0, 60, 89
1, 176976, Note_on_c, 0, 62, 94
1, 177041, Note_off_c, 0, 62, 94
1, 177095, Note_on_c, 0, 64, 96
1, 177259, Note_off_c, 0, 64, 96
1, 177280, Note_on_c, 0, 69, 103
1, 177718, Note_off_c, 0, 69, 103
1, 177750, Note_on_c, 0, 67, 106
1, 179834, Note_off_c, 0, 67, 106
1, 179871, Note_on_c, 0, 62, 85
1, 180073, Note_off_c, 0, 62, 85
1, 180073, Note_on_c, 0, 61, 87
1, 180292, Note_off_c, 0, 61, 87
1, 180321, Note_on_c, 0, 65, 88
1, 180555, Note_off_c, 0, 65, 88
1, 180565, Note_on_c, 0, 67, 97
1, 180872, Note_off_c, 0, 67, 97
1, 180893, Note_on_c, 0, 65, 82
1, 181035, Note_off_c, 0, 65, 82
1, 181176, Note_on_c, 0, 62, 78
1, 181464, Note_off_c, 0, 62, 78
1, 181549, Note_on_c, 0, 64, 90
1, 182157, Note_off_c, 0, 64, 90
1, 182531, Note_on_c, 0, 72, 102
1, 183404, Note_off_c, 0, 72, 102
1, 183653, Note_on_c, 0, 60, 83
1, 183980, Note_off_c, 0, 60, 83
1, 184323, Note_on_c, 0, 67, 108
1, 184705, Note_off_c, 0, 67, 108
1, 184720, Note_on_c, 0, 68, 94
1, 185164, Note_off_c, 0, 68, 94
1, 185171, Note_on_c, 0, 69, 96
1, 185826, Note_off_c, 0, 69, 96
1, 185841, Note_on_c, 0, 68, 106
1, 186511, Note_off_c, 0, 68, 106
1, 186532, Note_on_c, 0, 69, 85
1, 190690, Note_off_c, 0, 69, 85
1, 194365, Note_on_c, 0, 60, 95
1, 194463, Note_off_c, 0, 60, 95
1, 194473, Note_on_c, 0, 61, 93
1, 194593, Note_off_c, 0, 61, 93
1, 194620, Note_on_c, 0, 60, 95
1, 194751, Note_off_c, 0, 60, 95
1, 194778, Note_on_c, 0, 59, 102
1, 195414, Note_off_c, 0, 59, 102
1, 195430, Note_on_c, 0, 60, 90
1, 195643, Note_off_c, 0, 60, 90
1, 195664, Note_on_c, 0, 62, 107
1, 196119, Note_off_c, 0, 62, 107
1, 196135, Note_on_c, 0, 60, 96
1, 196458, Note_off_c, 0, 60, 96
1, 196501, Note_on_c, 0, 59, 100
1, 196989, Note_off_c, 0, 59, 100
1, 197010, Note_on_c, 0, 60, 94
1, 197218, Note_off_c, 0, 60, 94
1, 197316, Note_on_c, 0, 70, 107
1, 197799, Note_off_c, 0, 70, 107
1, 197836, Note_on_c, 0, 71, 108
1, 198444, Note_off_c, 0, 71, 108
1, 198449, Note_on_c, 0, 70, 107
1, 198920, Note_off_c, 0, 70, 107
1, 198958, Note_on_c, 0, 71, 96
1, 201338, Note_off_c, 0, 71, 96
1, 201370, Note_on_c, 0, 66, 107
1, 201874, Note_off_c, 0, 66, 107
1, 201928, Note_on_c, 0, 69, 94
1, 202136, Note_off_c, 0, 69, 94
1, 202146, Note_on_c, 0, 70, 85
1, 202299, Note_off_c, 0, 70, 85
1, 202309, Note_on_c, 0, 69, 100
1, 202616, Note_off_c, 0, 69, 100
1, 202637, Note_on_c, 0, 66, 100
1, 203075, Note_off_c, 0, 66, 100
1, 203118, Note_on_c, 0, 68, 100
1, 204149, Note_off_c, 0, 68, 100
1, 207534, Note_on_c, 0, 71, 105
1, 207877, Note_off_c, 0, 71, 105
1, 207892, Note_on_c, 0, 73, 106
1, 208211, Note_off_c, 0, 73, 106
1, 208234, Note_on_c, 0, 74, 111
1, 209154, Note_off_c, 0, 74, 111
1, 209232, Note_on_c, 0, 72, 107
1, 209551, Note_off_c, 0, 72, 107
1, 209558, Note_on_c, 0, 71, 103
1, 209963, Note_on_c, 0, 69, 102
1, 209963, Note_off_c, 0, 71, 103
1, 210384, Note_off_c, 0, 69, 102
1, 210384, Note_on_c, 0, 67, 97
1, 210610, Note_off_c, 0, 67, 97
1, 210797, Note_on_c, 0, 59, 79
1, 210945, Note_on_c, 0, 62, 94
1, 210945, Note_off_c, 0, 59, 79
1, 211296, Note_off_c, 0, 62, 94
1, 211327, Note_on_c, 0, 65, 104
1, 211733, Note_off_c, 0, 65, 104
1, 211796, Note_on_c, 0, 64, 88
1, 212010, Note_off_c, 0, 64, 88
1, 212347, Note_on_c, 0, 72, 104
1, 213275, Note_off_c, 0, 72, 104
1, 213282, Note_on_c, 0, 71, 92
1, 213523, Note_off_c, 0, 71, 92
1, 213530, Note_on_c, 0, 69, 99
1, 213748, Note_off_c, 0, 69, 99
1, 213771, Note_on_c, 0, 68, 98
1, 214145, Note_off_c, 0, 68, 98
1, 215416, Note_on_c, 0, 59, 93
1, 216047, Note_off_c, 0, 59, 93
1, 216054, Note_on_c, 0, 62, 89
1, 216717, Note_off_c, 0, 62, 89
1, 216974, Note_on_c, 0, 65, 89
1, 217527, Note_off_c, 0, 65, 89
1, 217683, Note_on_c, 0, 64, 78
1, 218143, Note_off_c, 0, 64, 78
1, 218236, Note_on_c, 0, 62, 78
1, 218758, Note_off_c, 0, 62, 78
1, 218875, Note_on_c, 0, 59, 83
1, 219335, Note_off_c, 0, 59, 83
1, 219335, Note_on_c, 0, 59, 80
1, 219335, Note_off_c, 0, 59, 80
1, 219467, Note_on_c, 0, 60, 93
1, 219818, Note_off_c, 0, 60, 93
1, 219825, Note_on_c, 0, 62, 86
1, 220371, Note_off_c, 0, 62, 86
1, 220386, Note_on_c, 0, 59, 84
1, 220643, Note_off_c, 0, 59, 84
1, 220674, Note_on_c, 0, 60, 96
1, 221064, Note_off_c, 0, 60, 96
1, 221110, Note_on_c, 0, 64, 89
1, 221344, Note_off_c, 0, 64, 89
1, 221367, Note_on_c, 0, 57, 92
1, 221913, Note_off_c, 0, 57, 92
1, 225033, Note_on_c, 0, 57, 91
1, 225360, Note_off_c, 0, 57, 91
1, 225367, Note_on_c, 0, 59, 93
1, 225577, Note_off_c, 0, 59, 93
1, 225608, Note_on_c, 0, 61, 89
1, 225842, Note_off_c, 0, 61, 89
1, 225873, Note_on_c, 0, 64, 95
1, 226239, Note_off_c, 0, 64, 95
1, 226371, Note_on_c, 0, 61, 84
1, 226579, Note_off_c, 0, 61, 84
1, 226597, Note_on_c, 0, 62, 98
1, 227010, Note_off_c, 0, 62, 98
1, 227041, Note_on_c, 0, 64, 92
1, 227282, Note_off_c, 0, 64, 92
1, 227344, Note_on_c, 0, 66, 93
1, 227546, Note_off_c, 0, 66, 93
1, 227561, Note_on_c, 0, 67, 103
1, 227873, Note_off_c, 0, 67, 103
1, 227912, Note_on_c, 0, 69, 91
1, 228216, Note_off_c, 0, 69, 91
1, 228262, Note_on_c, 0, 71, 86
1, 228511, Note_off_c, 0, 71, 86
1, 228550, Note_on_c, 0, 72, 97
1, 228877, Note_off_c, 0, 72, 97
1, 228892, Note_on_c, 0, 71, 90
1, 229126, Note_off_c, 0, 71, 90
1, 229149, Note_on_c, 0, 69, 100
1, 229336, Note_off_c, 0, 69, 100
1, 229336, Note_on_c, 0, 67, 113
1, 229749, Note_off_c, 0, 67, 113
1, 229772, Note_on_c, 0, 66, 101
1, 230162, Note_off_c, 0, 66, 101
1, 230185, Note_on_c, 0, 62, 94
1, 230364, Note_off_c, 0, 62, 94
1, 230387, Note_on_c, 0, 61, 88
1, 230621, Note_off_c, 0, 61, 88
1, 230652, Note_on_c, 0, 60, 88
1, 230909, Note_off_c, 0, 60, 88
1, 230979, Note_on_c, 0, 64, 102
1, 231298, Note_off_c, 0, 64, 102
1, 231321, Note_on_c, 0, 59, 101
1, 231816, Note_off_c, 0, 59, 101
1, 231878, Note_on_c, 0, 57, 94
1, 232018, Note_off_c, 0, 57, 94
1, 232033, Note_on_c, 0, 55, 96
1, 232208, Note_off_c, 0, 55, 96
1, 232266, Note_on_c, 0, 62, 99
1, 232632, Note_off_c, 0, 62, 99
1, 232643, Note_on_c, 0, 59, 93
1, 232919, Note_off_c, 0, 59, 93
1, 233075, Note_on_c, 0, 62, 84
1, 233192, Note_off_c, 0, 62, 84
1, 233219, Note_on_c, 0, 64, 87
1, 233398, Note_off_c, 0, 64, 87
1, 233444, Note_on_c, 0, 66, 102
1, 233642, Note_off_c, 0, 66, 102
1, 233645, Note_on_c, 0, 67, 105
1, 233812, Note_off_c, 0, 67, 105
1, 233835, Note_on_c, 0, 69, 93
1, 234006, Note_off_c, 0, 69, 93
1, 234033, Note_on_c, 0, 70, 84
1, 234157, Note_off_c, 0, 70, 84
1, 234192, Note_on_c, 0, 72, 94
1, 234453, Note_off_c, 0, 72, 94
1, 234464, Note_on_c, 0, 71, 98
1, 234581, Note_off_c, 0, 71, 98
1, 234588, Note_on_c, 0, 69, 105
1, 234751, Note_off_c, 0, 69, 105
1, 234751, Note_on_c, 0, 67, 112
1, 234996, Note_off_c, 0, 67, 112
1, 235003, Note_on_c, 0, 66, 101
1, 235436, Note_off_c, 0, 66, 101
1, 237967, Note_on_c, 0, 74, 111
1, 238351, Note_off_c, 0, 74, 111
1, 238356, Note_on_c, 0, 73, 101
1, 238664, Note_off_c, 0, 73, 101
1, 238664, Note_on_c, 0, 73, 80
1, 238667, Note_off_c, 0, 73, 80
1, 238670, Note_on_c, 0, 72, 108
1, 239009, Note_on_c, 0, 76, 109
1, 239009, Note_off_c, 0, 72, 108
1, 239289, Note_off_c, 0, 76, 109
1, 239312, Note_on_c, 0, 71, 105
1, 239709, Note_off_c, 0, 71, 105
1, 239716, Note_on_c, 0, 70, 104
1, 239926, Note_off_c, 0, 70, 104
1, 239941, Note_on_c, 0, 69, 94
1, 241540, Note_off_c, 0, 69, 94
1, 246164, Note_on_c, 0, 62, 112
1, 247019, Note_off_c, 0, 62, 112
1, 247040, Note_on_c, 0, 65, 110
1, 247753, Note_off_c, 0, 65, 110
1, 247785, Note_on_c, 0, 69, 112
1, 248432, Note_off_c, 0, 69, 112
1, 248459, Note_on_c, 0, 72, 103
1, 249073, Note_off_c, 0, 72, 103
1, 249111, Note_on_c, 0, 79, 91
1, 249774, Note_off_c, 0, 79, 91
1, 249801, Note_on_c, 0, 77, 99
1, 250333, Note_off_c, 0, 77, 99
1, 250343, Note_on_c, 0, 75, 102
1, 251034, Note_off_c, 0, 75, 102
1, 251061, Note_on_c, 0, 72, 80
1, 251466, Note_off_c, 0, 72, 80
1, 251476, Note_on_c, 0, 73, 93
1, 251881, Note_off_c, 0, 73, 93
1, 251886, Note_on_c, 0, 75, 93
1, 252094, Note_off_c, 0, 75, 93
1, 252099, Note_on_c, 0, 73, 92
1, 252219, Note_off_c, 0, 73, 92
1, 252235, Note_on_c, 0, 72, 94
1, 252712, Note_off_c, 0, 72, 94
1, 252733, Note_on_c, 0, 70, 99
1, 253265, Note_off_c, 0, 70, 99
1, 253369, Note_on_c, 0, 69, 101
1, 253873, Note_off_c, 0, 69, 101
1, 253911, Note_on_c, 0, 68, 110
1, 254514, Note_off_c, 0, 68, 110
1, 254574, Note_on_c, 0, 65, 103
1, 255106, Note_off_c, 0, 65, 103
1, 255133, Note_on_c, 0, 63, 90
1, 255582, Note_off_c, 0, 63, 90
1, 255603, Note_on_c, 0, 58, 90
1, 256124, Note_off_c, 0, 58, 90
1, 256140, Note_on_c, 0, 61, 94
1, 256403, Note_off_c, 0, 61, 94
1, 256430, Note_on_c, 0, 62, 84
1, 256556, Note_off_c, 0, 62, 84
1, 256583, Note_on_c, 0, 61, 94
1, 256950, Note_off_c, 0, 61, 94
1, 256971, Note_on_c, 0, 56, 81
1, 257338, Note_off_c, 0, 56, 81
1, 257518, Note_on_c, 0, 59, 89
1, 258032, Note_off_c, 0, 59, 89
1, 258076, Note_on_c, 0, 60, 90
1, 258564, Note_off_c, 0, 60, 90
1, 258569, Note_on_c, 0, 63, 102
1, 259177, Note_off_c, 0, 63, 102
1, 259208, Note_on_c, 0, 70, 92
1, 260729, Note_off_c, 0, 70, 92
1, 260740, Note_on_c, 0, 68, 94
1, 261157, Note_off_c, 0, 68, 94
1, 261172, Note_on_c, 0, 63, 85
1, 261359, Note_off_c, 0, 63, 85
1, 261374, Note_on_c, 0, 60, 80
1, 261604, Note_off_c, 0, 60, 80
1, 261631, Note_on_c, 0, 56, 75
1, 261787, Note_off_c, 0, 56, 75
1, 261814, Note_on_c, 0, 55, 87
1, 262001, Note_off_c, 0, 55, 87
1, 262024, Note_on_c, 0, 67, 104
1, 262691, Note_off_c, 0, 67, 104
1, 262730, Note_on_c, 0, 65, 93
1, 263221, Note_off_c, 0, 65, 93
1, 263232, Note_on_c, 0, 62, 94
1, 263891, Note_off_c, 0, 62, 94
1, 263914, Note_on_c, 0, 56, 90
1, 264522, Note_off_c, 0, 56, 90
1, 264592, Note_on_c, 0, 55, 92
1, 266167, Note_off_c, 0, 55, 92
1, 268072, Note_on_c, 0, 62, 94
1, 268231, Note_off_c, 0, 62, 94
1, 268247, Note_on_c, 0, 64, 96
1, 268773, Note_off_c, 0, 64, 96
1, 268805, Note_on_c, 0, 65, 96
1, 269183, Note_off_c, 0, 65, 96
1, 269198, Note_on_c, 0, 66, 101
1, 269638, Note_off_c, 0, 66, 101
1, 269677, Note_on_c, 0, 67, 106
1, 270110, Note_off_c, 0, 67, 106
1, 270129, Note_on_c, 0, 69, 99
1, 270585, Note_off_c, 0, 69, 99
1, 270624, Note_on_c, 0, 70, 79
1, 274415, Note_off_c, 0, 70, 79
1, 274446, Note_on_c, 0, 72, 84
1, 274672, Note_off_c, 0, 72, 84
1, 274672, Note_on_c, 0, 70, 94
1, 274835, Note_off_c, 0, 70, 94
1, 274835, Note_on_c, 0, 69, 99
1, 275217, Note_off_c, 0, 69, 99
1, 277417, Note_on_c, 0, 63, 95
1, 277779, Note_off_c, 0, 63, 95
1, 277855, Note_on_c, 0, 64, 93
1, 281519, Note_off_c, 0, 64, 93
1, 281551, Note_on_c, 0, 65, 105
1, 281913, Note_off_c, 0, 65, 105
1, 281956, Note_on_c, 0, 64, 99
1, 282131, Note_off_c, 0, 64, 99
1, 282174, Note_on_c, 0, 62, 100
1, 282645, Note_off_c, 0, 62, 100
1, 282677, Note_on_c, 0, 60, 93
1, 282951, Note_off_c, 0, 60, 93
1, 282983, Note_on_c, 0, 61, 92
1, 284025, Note_off_c, 0, 61, 92
1, 284046, Note_on_c, 0, 64, 92
1, 284265, Note_off_c, 0, 64, 92
1, 284275, Note_on_c, 0, 67, 88
1, 284362, Note_off_c, 0, 67, 88
1, 284383, Note_on_c, 0, 70, 85
1, 286259, Note_off_c, 0, 70, 85
1, 286298, Note_on_c, 0, 69, 95
1, 286617, Note_off_c, 0, 69, 95
1, 286624, Note_on_c, 0, 64, 96
1, 286881, Note_off_c, 0, 64, 96
1, 286904, Note_on_c, 0, 67, 109
1, 287348, Note_off_c, 0, 67, 109
1, 287363, Note_on_c, 0, 66, 103
1, 287636, Note_off_c, 0, 66, 103
1, 287651, Note_on_c, 0, 65, 97
1, 287807, Note_off_c, 0, 65, 97
1, 287822, Note_on_c, 0, 64, 102
1, 288212, Note_off_c, 0, 64, 102
1, 288212, Note_on_c, 0, 62, 98
1, 288500, Note_off_c, 0, 62, 98
1, 288531, Note_on_c, 0, 61, 89
1, 288772, Note_off_c, 0, 61, 89
1, 288772, Note_on_c, 0, 64, 99
1, 289115, Note_off_c, 0, 64, 99
1, 289154, Note_on_c, 0, 63, 100
1, 289419, Note_off_c, 0, 63, 100
1, 289450, Note_on_c, 0, 62, 86
1, 290503, Note_off_c, 0, 62, 86
1, 293184, Note_on_c, 0, 74, 115
1, 293513, Note_off_c, 0, 74, 115
1, 293523, Note_on_c, 0, 72, 102
1, 293731, Note_off_c, 0, 72, 102
1, 293752, Note_on_c, 0, 70, 104
1, 294064, Note_off_c, 0, 70, 104
1, 294102, Note_on_c, 0, 69, 102
1, 294431, Note_off_c, 0, 69, 102
1, 294452, Note_on_c, 0, 68, 100
1, 294676, Note_off_c, 0, 68, 100
1, 294686, Note_on_c, 0, 65, 101
1, 295026, Note_off_c, 0, 65, 101
1, 295536, Note_on_c, 0, 67, 114
1, 295958, Note_off_c, 0, 67, 114
1, 298783, Note_on_c, 0, 62, 99
1, 299177, Note_off_c, 0, 62, 99
1, 299198, Note_on_c, 0, 59, 97
1, 299636, Note_off_c, 0, 59, 97
1, 299652, Note_on_c, 0, 60, 82
1, 299800, Note_off_c, 0, 60, 82
1, 299810, Note_on_c, 0, 62, 82
1, 299903, Note_off_c, 0, 62, 82
1, 299941, Note_on_c, 0, 64, 96
1, 300440, Note_off_c, 0, 64, 96
1, 300461, Note_on_c, 0, 67, 101
1, 300746, Note_off_c, 0, 67, 101
1, 300795, Note_on_c, 0, 68, 101
1, 301327, Note_off_c, 0, 68, 101
1, 301343, Note_on_c, 0, 64, 96
1, 301737, Note_off_c, 0, 64, 96
1, 301747, Note_on_c, 0, 60, 87
1, 301928, Note_off_c, 0, 60, 87
1, 301970, Note_on_c, 0, 62, 100
1, 303897, Note_off_c, 0, 62, 100
1, 303904, Note_on_c, 0, 65, 100
1, 304239, Note_off_c, 0, 65, 100
1, 304262, Note_on_c, 0, 66, 104
1, 304683, Note_off_c, 0, 66, 104
1, 304690, Note_on_c, 0, 63, 85
1, 304900, Note_off_c, 0, 63, 85
1, 304931, Note_on_c, 0, 58, 87
1, 305149, Note_off_c, 0, 58, 87
1, 305211, Note_on_c, 0, 59, 97
1, 305515, Note_off_c, 0, 59, 97
1, 305569, Note_on_c, 0, 61, 99
1, 305896, Note_off_c, 0, 61, 99
1, 305896, Note_on_c, 0, 56, 89
1, 306145, Note_off_c, 0, 56, 89
1, 308048, Note_on_c, 0, 56, 85
1, 308313, Note_off_c, 0, 56, 85
1, 308344, Note_on_c, 0, 57, 93
1, 308819, Note_off_c, 0, 57, 93
1, 308865, Note_on_c, 0, 59, 87
1, 309130, Note_off_c, 0, 59, 87
1, 309145, Note_on_c, 0, 61, 81
1, 309308, Note_off_c, 0, 61, 81
1, 309339, Note_on_c, 0, 64, 88
1, 309565, Note_off_c, 0, 64, 88
1, 309596, Note_on_c, 0, 67, 100
1, 311203, Note_off_c, 0, 67, 100
1, 311257, Note_on_c, 0, 64, 100
1, 311514, Note_off_c, 0, 64, 100
1, 311537, Note_on_c, 0, 65, 102
1, 311888, Note_off_c, 0, 65, 102
1, 311950, Note_on_c, 0, 60, 87
1, 312145, Note_off_c, 0, 60, 87
1, 312168, Note_on_c, 0, 57, 92
1, 312503, Note_off_c, 0, 57, 92
1, 312510, Note_on_c, 0, 53, 81
1, 312705, Note_off_c, 0, 53, 81
1, 312736, Note_on_c, 0, 64, 106
1, 313165, Note_off_c, 0, 64, 106
1, 313188, Note_on_c, 0, 62, 93
1, 314077, Note_off_c, 0, 62, 93
1, 314100, Note_on_c, 0, 60, 87
1, 314435, Note_off_c, 0, 60, 87
1, 314442, Note_on_c, 0, 57, 87
1, 314629, Note_off_c, 0, 57, 87
1, 314652, Note_on_c, 0, 59, 92
1, 314925, Note_off_c, 0, 59, 92
1, 314964, Note_on_c, 0, 68, 105
1, 315299, Note_off_c, 0, 68, 105
1, 315314, Note_on_c, 0, 65, 95
1, 315548, Note_off_c, 0, 65, 95
1, 315579, Note_on_c, 0, 66, 93
1, 315828, Note_off_c, 0, 66, 93
1, 315851, Note_on_c, 0, 67, 112
1, 316420, Note_off_c, 0, 67, 112
1, 318776, Note_on_c, 0, 62, 100
1, 318939, Note_off_c, 0, 62, 100
1, 318962, Note_on_c, 0, 64, 101
1, 319437, Note_off_c, 0, 64, 101
1, 319608, Note_on_c, 0, 67, 115
1, 320255, Note_off_c, 0, 67, 115
1, 320317, Note_on_c, 0, 69, 114
1, 320855, Note_off_c, 0, 69, 114
1, 320894, Note_on_c, 0, 70, 101
1, 321338, Note_off_c, 0, 70, 101
1, 321408, Note_on_c, 0, 72, 104
1, 321720, Note_off_c, 0, 72, 104
1, 321759, Note_on_c, 0, 74, 100
1, 322219, Note_off_c, 0, 74, 100
1, 322219, Note_on_c, 0, 76, 98
1, 322679, Note_off_c, 0, 76, 98
1, 322764, Note_on_c, 0, 77, 98
1, 323138, Note_off_c, 0, 77, 98
1, 323200, Note_on_c, 0, 79, 91
1, 323590, Note_on_c, 0, 76, 97
1, 323590, Note_off_c, 0, 79, 91
1, 324034, Note_off_c, 0, 76, 97
1, 324049, Note_on_c, 0, 74, 97
1, 324446, Note_off_c, 0, 74, 97
1, 324477, Note_on_c, 0, 73, 95
1, 324750, Note_off_c, 0, 73, 95
1, 324765, Note_on_c, 0, 76, 98
1, 325139, Note_off_c, 0, 76, 98
1, 325193, Note_on_c, 0, 70, 96
1, 325676, Note_off_c, 0, 70, 96
1, 325691, Note_on_c, 0, 68, 102
1, 325971, Note_off_c, 0, 68, 102
1, 326017, Note_on_c, 0, 69, 91
1, 327897, Note_off_c, 0, 69, 91
1, 329270, Note_on_c, 0, 70, 97
1, 329441, Note_off_c, 0, 70, 97
1, 329464, Note_on_c, 0, 72, 99
1, 329698, Note_off_c, 0, 72, 99
1, 329705, Note_on_c, 0, 71, 95
1, 329829, Note_off_c, 0, 71, 95
1, 329844, Note_on_c, 0, 69, 103
1, 330288, Note_off_c, 0, 69, 103
1, 330389, Note_on_c, 0, 68, 9
1, 331044, Note_off_c, 0, 68, 9
1, 331137, Note_on_c, 0, 69, 102
1, 331729, Note_off_c, 0, 69, 102
1, 331970, Note_on_c, 0, 72, 116
1, 332445, Note_off_c, 0, 72, 116
1, 332491, Note_on_c, 0, 69, 111
1, 332935, Note_off_c, 0, 69, 111
1, 332966, Note_on_c, 0, 65, 95
1, 333262, Note_off_c, 0, 65, 95
1, 333308, Note_on_c, 0, 62, 97
1, 333729, Note_off_c, 0, 62, 97
1, 333729, Note_on_c, 0, 63, 100
1, 334095, Note_off_c, 0, 63, 100
1, 334102, Note_on_c, 0, 71, 104
1, 335841, Note_off_c, 0, 71, 104
1, 336012, Note_on_c, 0, 69, 105
1, 336378, Note_off_c, 0, 69, 105
1, 336401, Note_on_c, 0, 68, 119
1, 336689, Note_off_c, 0, 68, 119
1, 336720, Note_on_c, 0, 67, 117
1, 337149, Note_off_c, 0, 67, 117
1, 337663, Note_on_c, 0, 60, 89
1, 338177, Note_off_c, 0, 60, 89
1, 338504, Note_on_c, 0, 60, 102
1, 339057, Note_off_c, 0, 60, 102
1, 339320, Note_on_c, 0, 63, 98
1, 339506, Note_off_c, 0, 63, 98
1, 339563, Note_on_c, 0, 65, 103
1, 339968, Note_off_c, 0, 65, 103
1, 340225, Note_on_c, 0, 64, 99
1, 340802, Note_off_c, 0, 64, 99
1, 340911, Note_on_c, 0, 60, 90
1, 341433, Note_off_c, 0, 60, 90
1, 342520, Note_on_c, 0, 62, 92
1, 342706, Note_off_c, 0, 62, 92
1, 342749, Note_on_c, 0, 63, 96
1, 343209, Note_off_c, 0, 63, 96
1, 343428, Note_on_c, 0, 60, 97
1, 343976, Note_off_c, 0, 60, 97
1, 344392, Note_on_c, 0, 62, 101
1, 344885, Note_off_c, 0, 62, 101
1, 344950, Note_on_c, 0, 60, 99
1, 345410, Note_off_c, 0, 60, 99
1, 345442, Note_on_c, 0, 58, 99
1, 345793, Note_off_c, 0, 58, 99
1, 345793, Note_on_c, 0, 59, 100
1, 345902, Note_off_c, 0, 59, 100
1, 345945, Note_on_c, 0, 58, 100
1, 346175, Note_off_c, 0, 58, 100
1, 346207, Note_on_c, 0, 56, 97
1, 346689, Note_off_c, 0, 56, 97
1, 346765, Note_on_c, 0, 55, 109
1, 349178, Note_off_c, 0, 55, 109
1, 349178, End_track
0, 0, End_of_file
