0, 0, Header, 1, 1, 192
1, 0, Start_track
1, 0, Title_t, "Melody"
1, 0, Tempo, 352941
1, 0, Key_signature, -1, "major"
1, 0, Time_signature, 4, 2, 24, 8
1, 3257, Note_on_c, 0, 69, 111
1, 3325, Note_off_c, 0, 69, 111
1, 3348, Note_on_c, 0, 67, 105
1, 3416, Note_off_c, 0, 67, 105
1, 3527, Note_on_c, 0, 68, 110
1, 3622, Note_off_c, 0, 68, 110
1, 3831, Note_on_c, 0, 67, 111
1, 3902, Note_off_c, 0, 67, 111
1, 3903, Note_on_c, 0, 66, 96
1, 3990, Note_off_c, 0, 66, 96
1, 3998, Note_on_c, 0, 60, 76
1, 4068, Note_off_c, 0, 60, 76
1, 4085, Note_on_c, 0, 62, 96
1, 4172, Note_off_c, 0, 62, 96
1, 4209, Note_on_c, 0, 65, 109
1, 4324, Note_off_c, 0, 65, 109
1, 5172, Note_on_c, 0, 67, 109
1, 5220, Note_off_c, 0, 67, 109
1, 5228, Note_on_c, 0, 63, 105
1, 5348, Note_off_c, 0, 63, 105
1, 5367, Note_on_c, 0, 65, 108
1, 5430, Note_off_c, 0, 65, 108
1, 5441, Note_on_c, 0, 67, 106
1, 5527, Note_off_c, 0, 67, 106
1, 5541, Note_on_c, 0, 68, 87
1, 5576, Note_off_c, 0, 68, 87
1, 5587, Note_on_c, 0, 67, 89
1, 5620, Note_off_c, 0, 67, 89
1, 5633, Note_on_c, 0, 65, 104
1, 5713, Note_off_c, 0, 65, 104
1, 5736, Note_on_c, 0, 67, 112
1, 5808, Note_off_c, 0, 67, 112
1, 5827, Note_on_c, 0, 68, 110
1, 5905, Note_off_c, 0, 68, 110
1, 5916, Note_on_c, 0, 67, 111
1, 5997, Note_off_c, 0, 67, 111
1, 6096, Note_on_c, 0, 65, 116
1, 6178, Note_off_c, 0, 65, 116
1, 6189, Note_on_c, 0, 63, 106
1, 6277, Note_off_c, 0, 63, 106
1, 6299, Note_on_c, 0, 62, 106
1, 6357, Note_off_c, 0, 62, 106
1, 6389, Note_on_c, 0, 60, 87
1, 6457, Note_off_c, 0, 60, 87
1, 6471, Note_on_c, 0, 61, 98
1, 6542, Note_off_c, 0, 61, 98
1, 6670, Note_on_c, 0, 68, 107
1, 6734, Note_off_c, 0, 68, 107
1, 6760, Note_on_c, 0, 72, 103
1, 6850, Note_off_c, 0, 72, 103
1, 6881, Note_on_c, 0, 75, 119
1, 7123, Note_off_c, 0, 75, 119
1, 7157, Note_on_c, 0, 72, 99
1, 7253, Note_off_c, 0, 72, 99
1, 7279, Note_on_c, 0, 71, 109
1, 7365, Note_off_c, 0, 71, 109
1, 7451, Note_on_c, 0, 67, 95
1, 7774, Note_off_c, 0, 67, 95
1, 8015, Note_on_c, 0, 63, 102
1, 8087, Note_off_c, 0, 63, 102
1, 8108, Note_on_c, 0, 65, 109
1, 8193, Note_off_c, 0, 65, 109
1, 8211, Note_on_c, 0, 68, 101
1, 8236, Note_off_c, 0, 68, 101
1, 8243, Note_on_c, 0, 67, 103
1, 8288, Note_off_c, 0, 67, 103
1, 8325, Note_on_c, 0, 63, 99
1, 8465, Note_off_c, 0, 63, 99
1, 8492, Note_on_c, 0, 65, 109
1, 8582, Note_off_c, 0, 65, 109
1, 8595, Note_on_c, 0, 67, 112
1, 8656, Note_off_c, 0, 67, 112
1, 8660, Note_on_c, 0, 63, 109
1, 8772, Note_off_c, 0, 63, 109
1, 8848, Note_on_c, 0, 65, 106
1, 8959, Note_off_c, 0, 65, 106
1, 8982, Note_on_c, 0, 66, 104
1, 9038, Note_off_c, 0, 66, 104
1, 9072, Note_on_c, 0, 63, 92
1, 9144, Note_off_c, 0, 63, 92
1, 9165, Note_on_c, 0, 65, 100
1, 9479, Note_off_c, 0, 65, 100
1, 9530, Note_on_c, 0, 65, 108
1, 9623, Note_off_c, 0, 65, 108
1, 9704, Note_on_c, 0, 67, 113
1, 9780, Note_off_c, 0, 67, 113
1, 9783, Note_on_c, 0, 63, 104
1, 9901, Note_off_c, 0, 63, 104
1, 9925, Note_on_c, 0, 65, 111
1, 9986, Note_off_c, 0, 65, 111
1, 9995, Note_on_c, 0, 67, 100
1, 10085, Note_off_c, 0, 67, 100
1, 10112, Note_on_c, 0, 68, 86
1, 10176, Note_off_c, 0, 68, 86
1, 10191, Note_on_c, 0, 65, 100
1, 10268, Note_off_c, 0, 65, 100
1, 10283, Note_on_c, 0, 67, 107
1, 10361, Note_off_c, 0, 67, 107
1, 10379, Note_on_c, 0, 68, 99
1, 10468, Note_off_c, 0, 68, 99
1, 10488, Note_on_c, 0, 70, 114
1, 10540, Note_off_c, 0, 70, 114
1, 10553, Note_on_c, 0, 67, 100
1, 10654, Note_off_c, 0, 67, 100
1, 10749, Note_on_c, 0, 65, 107
1, 10835, Note_off_c, 0, 65, 107
1, 10860, Note_on_c, 0, 63, 106
1, 10927, Note_off_c, 0, 63, 106
1, 10929, Note_on_c, 0, 60, 86
1, 11033, Note_off_c, 0, 60, 86
1, 11139, Note_on_c, 0, 62, 101
1, 11238, Note_off_c, 0, 62, 101
1, 11244, Note_on_c, 0, 60, 81
1, 11299, Note_off_c, 0, 60, 81
1, 11302, Note_on_c, 0, 62, 104
1, 11418, Note_off_c, 0, 62, 104
1, 11427, Note_on_c, 0, 60, 84
1, 11675, Note_off_c, 0, 60, 84
1, 11693, Note_on_c, 0, 62, 95
1, 11812, Note_off_c, 0, 62, 95
1, 11824, Note_on_c, 0, 60, 81
1, 11852, Note_off_c, 0, 60, 81
1, 11865, Note_on_c, 0, 62, 99
1, 11999, Note_off_c, 0, 62, 99
1, 12016, Note_on_c, 0, 60, 87
1, 12244, Note_off_c, 0, 60, 87
1, 12256, Note_on_c, 0, 63, 101
1, 12371, Note_off_c, 0, 63, 101
1, 12379, Note_on_c, 0, 60, 79
1, 12442, Note_off_c, 0, 60, 79
1, 12457, Note_on_c, 0, 63, 100
1, 12569, Note_off_c, 0, 63, 100
1, 12570, Note_on_c, 0, 60, 88
1, 12752, Note_off_c, 0, 60, 88
1, 12763, Note_on_c, 0, 62, 82
1, 12839, Note_off_c, 0, 62, 82
1, 12859, Note_on_c, 0, 63, 100
1, 12944, Note_off_c, 0, 63, 100
1, 12952, Note_on_c, 0, 60, 98
1, 13028, Note_off_c, 0, 60, 98
1, 13033, Note_on_c, 0, 63, 91
1, 13144, Note_off_c, 0, 63, 91
1, 13154, Note_on_c, 0, 66, 98
1, 13194, Note_off_c, 0, 66, 98
1, 13205, Note_on_c, 0, 67, 102
1, 13598, Note_off_c, 0, 67, 102
1, 13620, Note_on_c, 0, 65, 106
1, 13719, Note_off_c, 0, 65, 106
1, 14201, Note_on_c, 0, 70, 115
1, 14284, Note_off_c, 0, 70, 115
1, 14384, Note_on_c, 0, 72, 99
1, 14458, Note_off_c, 0, 72, 99
1, 14489, Note_on_c, 0, 70, 116
1, 14566, Note_off_c, 0, 70, 116
1, 14571, Note_on_c, 0, 67, 99
1, 14663, Note_off_c, 0, 67, 99
1, 14678, Note_on_c, 0, 65, 108
1, 14752, Note_off_c, 0, 65, 108
1, 14757, Note_on_c, 0, 63, 98
1, 14867, Note_off_c, 0, 63, 98
1, 14956, Note_on_c, 0, 70, 114
1, 15057, Note_off_c, 0, 70, 114
1, 15136, Note_on_c, 0, 72, 103
1, 15224, Note_off_c, 0, 72, 103
1, 15242, Note_on_c, 0, 70, 112
1, 15313, Note_off_c, 0, 70, 112
1, 15320, Note_on_c, 0, 67, 106
1, 15422, Note_off_c, 0, 67, 106
1, 15432, Note_on_c, 0, 65, 107
1, 15506, Note_off_c, 0, 65, 107
1, 15509, Note_on_c, 0, 63, 97
1, 15622, Note_off_c, 0, 63, 97
1, 15640, Note_on_c, 0, 67, 102
1, 15791, Note_off_c, 0, 67, 102
1, 15809, Note_on_c, 0, 67, 109
1, 15893, Note_off_c, 0, 67, 109
1, 15900, Note_on_c, 0, 68, 102
1, 15999, Note_off_c, 0, 68, 102
1, 16015, Note_on_c, 0, 67, 107
1, 16091, Note_off_c, 0, 67, 107
1, 16121, Note_on_c, 0, 61, 86
1, 16204, Note_off_c, 0, 61, 86
1, 16211, Note_on_c, 0, 62, 99
1, 16259, Note_off_c, 0, 62, 99
1, 16293, Note_on_c, 0, 65, 111
1, 16401, Note_off_c, 0, 65, 111
1, 16424, Note_on_c, 0, 62, 87
1, 16457, Note_off_c, 0, 62, 87
1, 16480, Note_on_c, 0, 63, 95
1, 16552, Note_off_c, 0, 63, 95
1, 16565, Note_on_c, 0, 65, 100
1, 16597, Note_off_c, 0, 65, 100
1, 16603, Note_on_c, 0, 63, 101
1, 16648, Note_off_c, 0, 63, 101
1, 16660, Note_on_c, 0, 62, 103
1, 16759, Note_off_c, 0, 62, 103
1, 16777, Note_on_c, 0, 60, 95
1, 16844, Note_off_c, 0, 60, 95
1, 16855, Note_on_c, 0, 59, 74
1, 16922, Note_off_c, 0, 59, 74
1, 17056, Note_on_c, 0, 65, 109
1, 17131, Note_off_c, 0, 65, 109
1, 17159, Note_on_c, 0, 68, 107
1, 17236, Note_off_c, 0, 68, 107
1, 17247, Note_on_c, 0, 67, 94
1, 17340, Note_off_c, 0, 67, 94
1, 17432, Note_on_c, 0, 74, 111
1, 17513, Note_off_c, 0, 74, 111
1, 17530, Note_on_c, 0, 71, 102
1, 17627, Note_off_c, 0, 71, 102
1, 17632, Note_on_c, 0, 72, 94
1, 17710, Note_off_c, 0, 72, 94
1, 17723, Note_on_c, 0, 74, 116
1, 17797, Note_off_c, 0, 74, 116
1, 17803, Note_on_c, 0, 75, 117
1, 17881, Note_off_c, 0, 75, 117
1, 17892, Note_on_c, 0, 76, 127
1, 17991, Note_off_c, 0, 76, 127
1, 17994, Note_on_c, 0, 77, 120
1, 18085, Note_off_c, 0, 77, 120
1, 18090, Note_on_c, 0, 75, 114
1, 18172, Note_off_c, 0, 75, 114
1, 18188, Note_on_c, 0, 74, 102
1, 18257, Note_off_c, 0, 74, 102
1, 18275, Note_on_c, 0, 72, 101
1, 18338, Note_off_c, 0, 72, 101
1, 18366, Note_on_c, 0, 70, 108
1, 18447, Note_off_c, 0, 70, 108
1, 18469, Note_on_c, 0, 69, 108
1, 18528, Note_off_c, 0, 69, 108
1, 18533, Note_on_c, 0, 68, 90
1, 18643, Note_off_c, 0, 68, 90
1, 18667, Note_on_c, 0, 72, 111
1, 18723, Note_off_c, 0, 72, 111
1, 18749, Note_on_c, 0, 67, 95
1, 18839, Note_off_c, 0, 67, 95
1, 18856, Note_on_c, 0, 65, 88
1, 18901, Note_off_c, 0, 65, 88
1, 18946, Note_on_c, 0, 67, 103
1, 19040, Note_off_c, 0, 67, 103
1, 19064, Note_on_c, 0, 65, 98
1, 19320, Note_off_c, 0, 65, 98
1, 19320, End_track
0, 0, End_of_file
