0, 0, Header, 1, 1, 192
1, 0, Start_track
1, 0, Title_t, "Melody"
1, 0, Tempo, 295566
1, 0, Key_signature, -2, "major"
1, 0, Time_signature, 4, 2, 24, 8
1, 3947, Note_on_c, 0, 74, 115
1, 4035, Note_off_c, 0, 74, 115
1, 4053, Note_on_c, 0, 79, 115
1, 4117, Note_off_c, 0, 79, 115
1, 4150, Note_on_c, 0, 74, 115
1, 4222, Note_off_c, 0, 74, 115
1, 4248, Note_on_c, 0, 72, 116
1, 4326, Note_off_c, 0, 72, 116
1, 4347, Note_on_c, 0, 72, 117
1, 4504, Note_off_c, 0, 72, 117
1, 4517, Note_on_c, 0, 70, 108
1, 4605, Note_off_c, 0, 70, 108
1, 4634, Note_on_c, 0, 74, 115
1, 5307, Note_off_c, 0, 74, 115
1, 5389, Note_on_c, 0, 70, 114
1, 5480, Note_off_c, 0, 70, 114
1, 5529, Note_on_c, 0, 70, 114
1, 5639, Note_off_c, 0, 70, 114
1, 5655, Note_on_c, 0, 69, 109
1, 5723, Note_off_c, 0, 69, 109
1, 5788, Note_on_c, 0, 70, 112
1, 5958, Note_off_c, 0, 70, 112
1, 6045, Note_on_c, 0, 67, 107
1, 6144, Note_off_c, 0, 67, 107
1, 6246, Note_on_c, 0, 67, 109
1, 6400, Note_off_c, 0, 67, 109
1, 6412, Note_on_c, 0, 65, 101
1, 6480, Note_off_c, 0, 65, 101
1, 6548, Note_on_c, 0, 67, 100
1, 6838, Note_off_c, 0, 67, 100
1, 7318, Note_on_c, 0, 75, 115
1, 7433, Note_off_c, 0, 75, 115
1, 7463, Note_on_c, 0, 75, 119
1, 7592, Note_off_c, 0, 75, 119
1, 7601, Note_on_c, 0, 77, 117
1, 7699, Note_off_c, 0, 77, 117
1, 7789, Note_on_c, 0, 79, 111
1, 8343, Note_off_c, 0, 79, 111
1, 8358, Note_on_c, 0, 77, 118
1, 8458, Note_off_c, 0, 77, 118
1, 8479, Note_on_c, 0, 75, 119
1, 8574, Note_off_c, 0, 75, 119
1, 8584, Note_on_c, 0, 74, 116
1, 8726, Note_off_c, 0, 74, 116
1, 8772, Note_on_c, 0, 72, 110
1, 8856, Note_off_c, 0, 72, 110
1, 8912, Note_on_c, 0, 74, 107
1, 9198, Note_off_c, 0, 74, 107
1, 9251, Note_on_c, 0, 72, 114
1, 9344, Note_off_c, 0, 72, 114
1, 9366, Note_on_c, 0, 72, 111
1, 9497, Note_off_c, 0, 72, 111
1, 9505, Note_on_c, 0, 70, 106
1, 9564, Note_off_c, 0, 70, 106
1, 9650, Note_on_c, 0, 72, 110
1, 9937, Note_off_c, 0, 72, 110
1, 10023, Note_on_c, 0, 70, 113
1, 10126, Note_off_c, 0, 70, 113
1, 10143, Note_on_c, 0, 70, 113
1, 10277, Note_off_c, 0, 70, 113
1, 10293, Note_on_c, 0, 70, 115
1, 10387, Note_off_c, 0, 70, 115
1, 10486, Note_on_c, 0, 71, 111
1, 11413, Note_off_c, 0, 71, 111
1, 11443, Note_on_c, 0, 70, 109
1, 11584, Note_off_c, 0, 70, 109
1, 11665, Note_on_c, 0, 70, 109
1, 11803, Note_off_c, 0, 70, 109
1, 11833, Note_on_c, 0, 67, 102
1, 11949, Note_off_c, 0, 67, 102
1, 11981, Note_on_c, 0, 65, 103
1, 12016, Note_off_c, 0, 65, 103
1, 12032, Note_on_c, 0, 67, 102
1, 12286, Note_off_c, 0, 67, 102
1, 12345, Note_on_c, 0, 67, 100
1, 12496, Note_off_c, 0, 67, 100
1, 13668, Note_on_c, 0, 67, 114
1, 13736, Note_off_c, 0, 67, 114
1, 13759, Note_on_c, 0, 70, 116
1, 13862, Note_off_c, 0, 70, 116
1, 13873, Note_on_c, 0, 72, 118
1, 13957, Note_off_c, 0, 72, 118
1, 13982, Note_on_c, 0, 72, 117
1, 14086, Note_off_c, 0, 72, 117
1, 14106, Note_on_c, 0, 74, 115
1, 14171, Note_off_c, 0, 74, 115
1, 14258, Note_on_c, 0, 74, 115
1, 14893, Note_off_c, 0, 74, 115
1, 14932, Note_on_c, 0, 72, 115
1, 15021, Note_off_c, 0, 72, 115
1, 15039, Note_on_c, 0, 72, 115
1, 15118, Note_off_c, 0, 72, 115
1, 15154, Note_on_c, 0, 72, 115
1, 15260, Note_off_c, 0, 72, 115
1, 15283, Note_on_c, 0, 69, 106
1, 15332, Note_off_c, 0, 69, 106
1, 15451, Note_on_c, 0, 69, 109
1, 15683, Note_off_c, 0, 69, 109
1, 15716, Note_on_c, 0, 65, 107
1, 15770, Note_off_c, 0, 65, 107
1, 15905, Note_on_c, 0, 65, 105
1, 16062, Note_off_c, 0, 65, 105
1, 16078, Note_on_c, 0, 65, 104
1, 16150, Note_off_c, 0, 65, 104
1, 16229, Note_on_c, 0, 62, 106
1, 16292, Note_off_c, 0, 62, 106
1, 16807, Note_on_c, 0, 63, 119
1, 16876, Note_off_c, 0, 63, 119
1, 16905, Note_on_c, 0, 65, 114
1, 16972, Note_off_c, 0, 65, 114
1, 17079, Note_on_c, 0, 67, 114
1, 17330, Note_off_c, 0, 67, 114
1, 17363, Note_on_c, 0, 63, 117
1, 17460, Note_off_c, 0, 63, 117
1, 17493, Note_on_c, 0, 62, 112
1, 17568, Note_off_c, 0, 62, 112
1, 18141, Note_on_c, 0, 60, 120
1, 18216, Note_off_c, 0, 60, 120
1, 18223, Note_on_c, 0, 58, 114
1, 18319, Note_off_c, 0, 58, 114
1, 18338, Note_on_c, 0, 60, 114
1, 18404, Note_off_c, 0, 60, 114
1, 18428, Note_on_c, 0, 62, 117
1, 18506, Note_off_c, 0, 62, 117
1, 18535, Note_on_c, 0, 58, 115
1, 18609, Note_off_c, 0, 58, 115
1, 18622, Note_on_c, 0, 55, 102
1, 18731, Note_off_c, 0, 55, 102
1, 18809, Note_on_c, 0, 57, 111
1, 18901, Note_off_c, 0, 57, 111
1, 18941, Note_on_c, 0, 55, 108
1, 19275, Note_off_c, 0, 55, 108
1, 19293, Note_on_c, 0, 57, 115
1, 19383, Note_off_c, 0, 57, 115
1, 19398, Note_on_c, 0, 58, 115
1, 19480, Note_off_c, 0, 58, 115
1, 19501, Note_on_c, 0, 60, 104
1, 19589, Note_off_c, 0, 60, 104
1, 19608, Note_on_c, 0, 62, 114
1, 19699, Note_off_c, 0, 62, 114
1, 19714, Note_on_c, 0, 65, 120
1, 19777, Note_off_c, 0, 65, 120
1, 19790, Note_on_c, 0, 63, 113
1, 19884, Note_off_c, 0, 63, 113
1, 19905, Note_on_c, 0, 65, 118
1, 19978, Note_off_c, 0, 65, 118
1, 20390, Note_on_c, 0, 66, 117
1, 20456, Note_off_c, 0, 66, 117
1, 20664, Note_on_c, 0, 69, 116
1, 20738, Note_off_c, 0, 69, 116
1, 20770, Note_on_c, 0, 72, 118
1, 20860, Note_off_c, 0, 72, 118
1, 21044, Note_on_c, 0, 77, 117
1, 21280, Note_off_c, 0, 77, 117
1, 21320, Note_on_c, 0, 74, 117
1, 21592, Note_off_c, 0, 74, 117
1, 21694, Note_on_c, 0, 79, 117
1, 21807, Note_off_c, 0, 79, 117
1, 21868, Note_on_c, 0, 73, 115
1, 22007, Note_off_c, 0, 73, 115
1, 22008, Note_on_c, 0, 72, 115
1, 22727, Note_off_c, 0, 72, 115
1, 22766, Note_on_c, 0, 70, 115
1, 22846, Note_off_c, 0, 70, 115
1, 22873, Note_on_c, 0, 72, 113
1, 22975, Note_off_c, 0, 72, 113
1, 23004, Note_on_c, 0, 74, 116
1, 23223, Note_off_c, 0, 74, 116
1, 23269, Note_on_c, 0, 70, 112
1, 23373, Note_off_c, 0, 70, 112
1, 23408, Note_on_c, 0, 72, 117
1, 23616, Note_off_c, 0, 72, 117
1, 23653, Note_on_c, 0, 67, 113
1, 23753, Note_off_c, 0, 67, 113
1, 23769, Note_on_c, 0, 70, 115
1, 23985, Note_off_c, 0, 70, 115
1, 24026, Note_on_c, 0, 72, 116
1, 24146, Note_off_c, 0, 72, 116
1, 24206, Note_on_c, 0, 74, 117
1, 24373, Note_off_c, 0, 74, 117
1, 24412, Note_on_c, 0, 77, 117
1, 24569, Note_off_c, 0, 77, 117
1, 24584, Note_on_c, 0, 74, 117
1, 24765, Note_off_c, 0, 74, 117
1, 24788, Note_on_c, 0, 74, 115
1, 24904, Note_off_c, 0, 74, 115
1, 24933, Note_on_c, 0, 72, 112
1, 24976, Note_off_c, 0, 72, 112
1, 25095, Note_on_c, 0, 74, 112
1, 25836, Note_off_c, 0, 74, 112
1, 25928, Note_on_c, 0, 75, 118
1, 26047, Note_off_c, 0, 75, 118
1, 26147, Note_on_c, 0, 77, 118
1, 26243, Note_off_c, 0, 77, 118
1, 26321, Note_on_c, 0, 74, 115
1, 26452, Note_off_c, 0, 74, 115
1, 26463, Note_on_c, 0, 75, 117
1, 26540, Note_off_c, 0, 75, 117
1, 26624, Note_on_c, 0, 72, 111
1, 26939, Note_off_c, 0, 72, 111
1, 27005, Note_on_c, 0, 74, 117
1, 27099, Note_off_c, 0, 74, 117
1, 27131, Note_on_c, 0, 70, 114
1, 27199, Note_off_c, 0, 70, 114
1, 27375, Note_on_c, 0, 72, 116
1, 27464, Note_off_c, 0, 72, 116
1, 27483, Note_on_c, 0, 69, 108
1, 27624, Note_off_c, 0, 69, 108
1, 27671, Note_on_c, 0, 67, 107
1, 27755, Note_off_c, 0, 67, 107
1, 27855, Note_on_c, 0, 67, 112
1, 27972, Note_off_c, 0, 67, 112
1, 27997, Note_on_c, 0, 65, 101
1, 28050, Note_off_c, 0, 65, 101
1, 28159, Note_on_c, 0, 67, 95
1, 28416, Note_off_c, 0, 67, 95
1, 29391, Note_on_c, 0, 68, 114
1, 29470, Note_off_c, 0, 68, 114
1, 29492, Note_on_c, 0, 70, 119
1, 29569, Note_off_c, 0, 70, 119
1, 29592, Note_on_c, 0, 72, 118
1, 29674, Note_off_c, 0, 72, 118
1, 29683, Note_on_c, 0, 75, 120
1, 29785, Note_off_c, 0, 75, 120
1, 29804, Note_on_c, 0, 77, 119
1, 29920, Note_off_c, 0, 77, 119
1, 30061, Note_on_c, 0, 79, 116
1, 30391, Note_off_c, 0, 79, 116
1, 30414, Note_on_c, 0, 77, 120
1, 30519, Note_off_c, 0, 77, 120
1, 30540, Note_on_c, 0, 77, 119
1, 30640, Note_off_c, 0, 77, 119
1, 30651, Note_on_c, 0, 74, 115
1, 30726, Note_off_c, 0, 74, 115
1, 30817, Note_on_c, 0, 74, 111
1, 31101, Note_off_c, 0, 74, 111
1, 32124, Note_on_c, 0, 81, 118
1, 32192, Note_off_c, 0, 81, 118
1, 32406, Note_on_c, 0, 77, 116
1, 32736, Note_off_c, 0, 77, 116
1, 32747, Note_on_c, 0, 74, 117
1, 33126, Note_off_c, 0, 74, 117
1, 33138, Note_on_c, 0, 70, 114
1, 33314, Note_off_c, 0, 70, 114
1, 33344, Note_on_c, 0, 74, 119
1, 33429, Note_off_c, 0, 74, 119
1, 33446, Note_on_c, 0, 77, 120
1, 33508, Note_off_c, 0, 77, 120
1, 33548, Note_on_c, 0, 81, 116
1, 33653, Note_off_c, 0, 81, 116
1, 33721, Note_on_c, 0, 77, 117
1, 33895, Note_off_c, 0, 77, 117
1, 33902, Note_on_c, 0, 74, 117
1, 34181, Note_off_c, 0, 74, 117
1, 34196, Note_on_c, 0, 75, 117
1, 34544, Note_off_c, 0, 75, 117
1, 34568, Note_on_c, 0, 74, 118
1, 34676, Note_off_c, 0, 74, 118
1, 34693, Note_on_c, 0, 73, 117
1, 34778, Note_off_c, 0, 73, 117
1, 34829, Note_on_c, 0, 74, 119
1, 34943, Note_off_c, 0, 74, 119
1, 34960, Note_on_c, 0, 77, 117
1, 35253, Note_off_c, 0, 77, 117
1, 35310, Note_on_c, 0, 75, 119
1, 35408, Note_off_c, 0, 75, 119
1, 35421, Note_on_c, 0, 72, 116
1, 35678, Note_off_c, 0, 72, 116
1, 35695, Note_on_c, 0, 74, 119
1, 35794, Note_off_c, 0, 74, 119
1, 35805, Note_on_c, 0, 75, 120
1, 35898, Note_off_c, 0, 75, 120
1, 35909, Note_on_c, 0, 79, 118
1, 35979, Note_off_c, 0, 79, 118
1, 36002, Note_on_c, 0, 77, 118
1, 36055, Note_off_c, 0, 77, 118
1, 36063, Note_on_c, 0, 76, 117
1, 36082, Note_off_c, 0, 76, 117
1, 36089, Note_on_c, 0, 75, 120
1, 36167, Note_off_c, 0, 75, 120
1, 36175, Note_on_c, 0, 74, 118
1, 36260, Note_off_c, 0, 74, 118
1, 36279, Note_on_c, 0, 72, 117
1, 36357, Note_off_c, 0, 72, 117
1, 36365, Note_on_c, 0, 70, 117
1, 36447, Note_off_c, 0, 70, 117
1, 36460, Note_on_c, 0, 69, 115
1, 36550, Note_off_c, 0, 69, 115
1, 36564, Note_on_c, 0, 70, 117
1, 36625, Note_off_c, 0, 70, 117
1, 36664, Note_on_c, 0, 72, 118
1, 36727, Note_off_c, 0, 72, 118
1, 36736, Note_on_c, 0, 74, 119
1, 36812, Note_off_c, 0, 74, 119
1, 36845, Note_on_c, 0, 70, 117
1, 36946, Note_off_c, 0, 70, 117
1, 37213, Note_on_c, 0, 65, 98
1, 37254, Note_off_c, 0, 65, 98
1, 37305, Note_on_c, 0, 69, 117
1, 37347, Note_off_c, 0, 69, 117
1, 37354, Note_on_c, 0, 70, 115
1, 37395, Note_off_c, 0, 70, 115
1, 37400, Note_on_c, 0, 68, 106
1, 37433, Note_off_c, 0, 68, 106
1, 37439, Note_on_c, 0, 66, 110
1, 37497, Note_off_c, 0, 66, 110
1, 37508, Note_on_c, 0, 67, 115
1, 37584, Note_off_c, 0, 67, 115
1, 37609, Note_on_c, 0, 69, 115
1, 37691, Note_off_c, 0, 69, 115
1, 37705, Note_on_c, 0, 70, 118
1, 37762, Note_off_c, 0, 70, 118
1, 37787, Note_on_c, 0, 72, 118
1, 37873, Note_off_c, 0, 72, 118
1, 37891, Note_on_c, 0, 74, 116
1, 37948, Note_off_c, 0, 74, 116
1, 37972, Note_on_c, 0, 77, 119
1, 38058, Note_off_c, 0, 77, 119
1, 38074, Note_on_c, 0, 75, 118
1, 38164, Note_off_c, 0, 75, 118
1, 38181, Note_on_c, 0, 77, 118
1, 38258, Note_off_c, 0, 77, 118
1, 38270, Note_on_c, 0, 79, 117
1, 38370, Note_off_c, 0, 79, 117
1, 39181, Note_on_c, 0, 78, 10
1, 39297, Note_off_c, 0, 78, 10
1, 39379, Note_on_c, 0, 75, 127
1, 39565, Note_off_c, 0, 75, 127
1, 39571, Note_on_c, 0, 74, 124
1, 40304, Note_off_c, 0, 74, 124
1, 40323, Note_on_c, 0, 73, 122
1, 40368, Note_off_c, 0, 73, 122
1, 40376, Note_on_c, 0, 72, 115
1, 40439, Note_off_c, 0, 72, 115
1, 40443, Note_on_c, 0, 70, 123
1, 40497, Note_off_c, 0, 70, 123
1, 40502, Note_on_c, 0, 72, 123
1, 40966, Note_off_c, 0, 72, 123
1, 40979, Note_on_c, 0, 70, 114
1, 41050, Note_off_c, 0, 70, 114
1, 41070, Note_on_c, 0, 72, 114
1, 41174, Note_off_c, 0, 72, 114
1, 41195, Note_on_c, 0, 70, 115
1, 41251, Note_off_c, 0, 70, 115
1, 41355, Note_on_c, 0, 67, 87
1, 42547, Note_off_c, 0, 67, 87
1, 42547, End_track
0, 0, End_of_file
