0, 0, Header, 1, 1, 192
1, 0, Start_track
1, 0, Title_t, "Melody"
1, 0, Tempo, 337078
1, 0, Key_signature, 1, "major"
1, 0, Time_signature, 4, 2, 24, 8
1, 429, Note_on_c, 0, 71, 107
1, 524, Note_off_c, 0, 71, 107
1, 527, Note_on_c, 0, 74, 111
1, 659, Note_off_c, 0, 74, 111
1, 721, Note_on_c, 0, 66, 97
1, 840, Note_on_c, 0, 69, 111
1, 840, Note_off_c, 0, 66, 97
1, 922, Note_off_c, 0, 69, 111
1, 938, Note_on_c, 0, 71, 80
1, 1139, Note_off_c, 0, 71, 80
1, 1142, Note_on_c, 0, 74, 115
1, 1337, Note_off_c, 0, 74, 115
1, 1340, Note_on_c, 0, 72, 111
1, 1452, Note_off_c, 0, 72, 111
1, 1461, Note_on_c, 0, 70, 109
1, 1560, Note_off_c, 0, 70, 109
1, 1560, Note_on_c, 0, 67, 104
1, 1665, Note_off_c, 0, 67, 104
1, 1681, Note_on_c, 0, 65, 102
1, 1747, Note_off_c, 0, 65, 102
1, 1753, Note_on_c, 0, 63, 95
1, 1924, Note_off_c, 0, 63, 95
1, 1966, Note_on_c, 0, 62, 89
1, 2293, Note_off_c, 0, 62, 89
1, 3939, Note_on_c, 0, 64, 105
1, 4034, Note_off_c, 0, 64, 105
1, 4050, Note_on_c, 0, 62, 101
1, 4092, Note_off_c, 0, 62, 101
1, 4330, Note_on_c, 0, 66, 107
1, 4412, Note_off_c, 0, 66, 107
1, 4438, Note_on_c, 0, 64, 106
1, 4510, Note_off_c, 0, 64, 106
1, 4543, Note_on_c, 0, 63, 94
1, 4612, Note_off_c, 0, 63, 94
1, 4654, Note_on_c, 0, 64, 81
1, 4733, Note_off_c, 0, 64, 81
1, 4739, Note_on_c, 0, 66, 103
1, 4811, Note_off_c, 0, 66, 103
1, 4830, Note_on_c, 0, 67, 107
1, 4939, Note_off_c, 0, 67, 107
1, 4939, Note_on_c, 0, 69, 106
1, 5001, Note_off_c, 0, 69, 106
1, 5043, Note_on_c, 0, 70, 112
1, 5112, Note_off_c, 0, 70, 112
1, 5121, Note_on_c, 0, 71, 106
1, 5210, Note_off_c, 0, 71, 106
1, 5216, Note_on_c, 0, 74, 119
1, 5295, Note_off_c, 0, 74, 119
1, 5308, Note_on_c, 0, 76, 119
1, 5393, Note_off_c, 0, 76, 119
1, 5475, Note_on_c, 0, 78, 119
1, 5603, Note_off_c, 0, 78, 119
1, 5603, Note_on_c, 0, 79, 110
1, 6049, Note_off_c, 0, 79, 110
1, 6055, Note_on_c, 0, 78, 122
1, 6104, Note_off_c, 0, 78, 122
1, 6110, Note_on_c, 0, 79, 115
1, 6172, Note_off_c, 0, 79, 115
1, 6181, Note_on_c, 0, 78, 116
1, 6240, Note_off_c, 0, 78, 116
1, 6249, Note_on_c, 0, 76, 119
1, 6354, Note_off_c, 0, 76, 119
1, 6357, Note_on_c, 0, 75, 115
1, 6449, Note_off_c, 0, 75, 115
1, 6462, Note_on_c, 0, 74, 116
1, 6547, Note_off_c, 0, 74, 116
1, 6560, Note_on_c, 0, 67, 72
1, 6622, Note_off_c, 0, 67, 72
1, 6655, Note_on_c, 0, 69, 94
1, 6744, Note_off_c, 0, 69, 94
1, 6757, Note_on_c, 0, 72, 118
1, 6829, Note_off_c, 0, 72, 118
1, 6838, Note_on_c, 0, 71, 110
1, 6927, Note_off_c, 0, 71, 110
1, 6933, Note_on_c, 0, 68, 97
1, 7022, Note_off_c, 0, 68, 97
1, 7027, Note_on_c, 0, 71, 102
1, 7231, Note_off_c, 0, 71, 102
1, 7926, Note_on_c, 0, 70, 85
1, 8058, Note_off_c, 0, 70, 85
1, 8114, Note_on_c, 0, 73, 122
1, 8153, Note_off_c, 0, 73, 122
1, 8153, Note_on_c, 0, 74, 115
1, 8364, Note_off_c, 0, 74, 115
1, 8364, Note_on_c, 0, 70, 115
1, 8459, Note_off_c, 0, 70, 115
1, 8485, Note_on_c, 0, 67, 110
1, 8551, Note_off_c, 0, 67, 110
1, 8559, Note_on_c, 0, 63, 99
1, 8625, Note_off_c, 0, 63, 99
1, 8669, Note_on_c, 0, 67, 111
1, 8731, Note_off_c, 0, 67, 111
1, 8750, Note_on_c, 0, 70, 116
1, 8842, Note_off_c, 0, 70, 116
1, 8941, Note_on_c, 0, 71, 116
1, 8980, Note_off_c, 0, 71, 116
1, 8980, Note_on_c, 0, 72, 114
1, 9132, Note_off_c, 0, 72, 114
1, 9132, Note_on_c, 0, 69, 114
1, 9231, Note_off_c, 0, 69, 114
1, 9237, Note_on_c, 0, 65, 109
1, 9309, Note_off_c, 0, 65, 109
1, 9325, Note_on_c, 0, 62, 89
1, 9417, Note_off_c, 0, 62, 89
1, 9423, Note_on_c, 0, 65, 94
1, 9518, Note_off_c, 0, 65, 94
1, 9521, Note_on_c, 0, 69, 113
1, 9616, Note_off_c, 0, 69, 113
1, 9632, Note_on_c, 0, 69, 112
1, 9684, Note_on_c, 0, 70, 119
1, 9684, Note_off_c, 0, 69, 112
1, 9852, Note_off_c, 0, 70, 119
1, 9885, Note_on_c, 0, 67, 109
1, 9984, Note_off_c, 0, 67, 109
1, 10023, Note_on_c, 0, 63, 105
1, 10108, Note_off_c, 0, 63, 105
1, 10111, Note_on_c, 0, 60, 84
1, 10187, Note_off_c, 0, 60, 84
1, 10206, Note_on_c, 0, 62, 106
1, 10272, Note_off_c, 0, 62, 106
1, 10288, Note_on_c, 0, 64, 97
1, 10380, Note_off_c, 0, 64, 97
1, 10386, Note_on_c, 0, 65, 113
1, 10465, Note_off_c, 0, 65, 113
1, 10481, Note_on_c, 0, 66, 101
1, 10580, Note_off_c, 0, 66, 101
1, 10669, Note_on_c, 0, 69, 113
1, 10850, Note_off_c, 0, 69, 113
1, 10863, Note_on_c, 0, 66, 110
1, 11044, Note_off_c, 0, 66, 110
1, 11047, Note_on_c, 0, 64, 108
1, 11199, Note_off_c, 0, 64, 108
1, 11199, Note_on_c, 0, 57, 83
1, 11456, Note_off_c, 0, 57, 83
1, 12299, Note_on_c, 0, 60, 104
1, 12378, Note_off_c, 0, 60, 104
1, 12387, Note_on_c, 0, 62, 110
1, 12466, Note_off_c, 0, 62, 110
1, 12505, Note_on_c, 0, 61, 111
1, 12564, Note_off_c, 0, 61, 111
1, 12580, Note_on_c, 0, 60, 98
1, 12639, Note_off_c, 0, 60, 98
1, 12668, Note_on_c, 0, 64, 112
1, 12767, Note_off_c, 0, 64, 112
1, 12783, Note_on_c, 0, 59, 99
1, 12885, Note_off_c, 0, 59, 99
1, 12885, Note_on_c, 0, 57, 100
1, 12947, Note_off_c, 0, 57, 100
1, 12947, Note_on_c, 0, 60, 102
1, 13026, Note_off_c, 0, 60, 102
1, 13055, Note_on_c, 0, 59, 104
1, 13134, Note_off_c, 0, 59, 104
1, 13147, Note_on_c, 0, 60, 95
1, 13223, Note_off_c, 0, 60, 95
1, 13249, Note_on_c, 0, 62, 111
1, 13315, Note_off_c, 0, 62, 111
1, 13338, Note_on_c, 0, 65, 114
1, 13433, Note_off_c, 0, 65, 114
1, 13459, Note_on_c, 0, 62, 108
1, 13501, Note_off_c, 0, 62, 108
1, 13524, Note_on_c, 0, 63, 101
1, 13590, Note_off_c, 0, 63, 101
1, 13616, Note_on_c, 0, 67, 107
1, 13692, Note_off_c, 0, 67, 107
1, 13725, Note_on_c, 0, 70, 111
1, 13794, Note_off_c, 0, 70, 111
1, 13794, Note_on_c, 0, 74, 125
1, 13886, Note_off_c, 0, 74, 125
1, 13892, Note_on_c, 0, 77, 124
1, 13984, Note_off_c, 0, 77, 124
1, 13997, Note_on_c, 0, 75, 127
1, 14069, Note_off_c, 0, 75, 127
1, 14069, Note_on_c, 0, 66, 90
1, 14168, Note_off_c, 0, 66, 90
1, 14177, Note_on_c, 0, 69, 87
1, 14256, Note_off_c, 0, 69, 87
1, 14272, Note_on_c, 0, 73, 125
1, 14351, Note_off_c, 0, 73, 125
1, 14351, Note_on_c, 0, 74, 120
1, 14529, Note_off_c, 0, 74, 120
1, 14565, Note_on_c, 0, 74, 118
1, 14836, Note_off_c, 0, 74, 118
1, 14852, Note_on_c, 0, 74, 112
1, 15109, Note_off_c, 0, 74, 112
1, 15138, Note_on_c, 0, 72, 117
1, 15230, Note_off_c, 0, 72, 117
1, 15312, Note_on_c, 0, 71, 117
1, 15401, Note_on_c, 0, 72, 115
1, 15401, Note_off_c, 0, 71, 117
1, 15480, Note_off_c, 0, 72, 115
1, 15496, Note_on_c, 0, 71, 110
1, 15581, Note_off_c, 0, 71, 110
1, 15581, Note_on_c, 0, 69, 112
1, 15693, Note_off_c, 0, 69, 112
1, 15775, Note_on_c, 0, 71, 114
1, 16036, Note_off_c, 0, 71, 114
1, 16072, Note_on_c, 0, 71, 111
1, 16435, Note_off_c, 0, 71, 111
1, 16468, Note_on_c, 0, 71, 109
1, 16692, Note_off_c, 0, 71, 109
1, 16725, Note_on_c, 0, 69, 113
1, 16814, Note_off_c, 0, 69, 113
1, 16840, Note_on_c, 0, 67, 104
1, 16925, Note_off_c, 0, 67, 104
1, 16928, Note_on_c, 0, 69, 112
1, 17013, Note_off_c, 0, 69, 112
1, 17013, Note_on_c, 0, 67, 111
1, 17092, Note_off_c, 0, 67, 111
1, 17115, Note_on_c, 0, 66, 108
1, 17197, Note_off_c, 0, 66, 108
1, 17216, Note_on_c, 0, 64, 91
1, 17268, Note_off_c, 0, 64, 91
1, 17334, Note_on_c, 0, 66, 108
1, 17446, Note_off_c, 0, 66, 108
1, 17475, Note_on_c, 0, 62, 94
1, 17560, Note_off_c, 0, 62, 94
1, 17566, Note_on_c, 0, 64, 98
1, 17747, Note_off_c, 0, 64, 98
1, 17961, Note_on_c, 0, 66, 112
1, 18010, Note_off_c, 0, 66, 112
1, 18010, Note_on_c, 0, 67, 111
1, 18195, Note_off_c, 0, 67, 111
1, 18234, Note_on_c, 0, 64, 111
1, 18316, Note_off_c, 0, 64, 111
1, 18395, Note_on_c, 0, 66, 114
1, 18586, Note_off_c, 0, 66, 114
1, 18586, Note_on_c, 0, 69, 117
1, 18757, Note_off_c, 0, 69, 117
1, 18776, Note_on_c, 0, 66, 109
1, 18961, Note_off_c, 0, 66, 109
1, 18984, Note_on_c, 0, 67, 109
1, 19129, Note_off_c, 0, 67, 109
1, 19148, Note_on_c, 0, 71, 111
1, 19286, Note_off_c, 0, 71, 111
1, 19338, Note_on_c, 0, 76, 118
1, 19460, Note_off_c, 0, 76, 118
1, 19469, Note_on_c, 0, 74, 110
1, 19640, Note_off_c, 0, 74, 110
1, 20261, Note_on_c, 0, 79, 118
1, 20340, Note_off_c, 0, 79, 118
1, 20435, Note_on_c, 0, 77, 125
1, 20504, Note_off_c, 0, 77, 125
1, 20616, Note_on_c, 0, 72, 85
1, 20685, Note_on_c, 0, 76, 119
1, 20685, Note_off_c, 0, 72, 85
1, 20804, Note_off_c, 0, 76, 119
1, 20813, Note_on_c, 0, 74, 116
1, 20895, Note_off_c, 0, 74, 116
1, 21017, Note_on_c, 0, 80, 119
1, 21255, Note_off_c, 0, 80, 119
1, 21258, Note_on_c, 0, 79, 121
1, 21363, Note_off_c, 0, 79, 121
1, 21379, Note_on_c, 0, 77, 118
1, 21458, Note_off_c, 0, 77, 118
1, 21471, Note_on_c, 0, 76, 120
1, 21570, Note_off_c, 0, 76, 120
1, 21570, Note_on_c, 0, 75, 88
1, 21649, Note_off_c, 0, 75, 88
1, 22022, Note_on_c, 0, 74, 118
1, 22124, Note_off_c, 0, 74, 118
1, 22170, Note_on_c, 0, 71, 76
1, 22209, Note_off_c, 0, 71, 76
1, 22222, Note_on_c, 0, 72, 102
1, 22311, Note_off_c, 0, 72, 102
1, 22314, Note_on_c, 0, 74, 118
1, 22383, Note_off_c, 0, 74, 118
1, 22402, Note_on_c, 0, 75, 118
1, 22497, Note_off_c, 0, 75, 118
1, 22497, Note_on_c, 0, 77, 121
1, 22579, Note_off_c, 0, 77, 121
1, 22595, Note_on_c, 0, 79, 121
1, 22677, Note_off_c, 0, 79, 121
1, 22680, Note_on_c, 0, 80, 117
1, 22716, Note_off_c, 0, 80, 117
1, 22716, Note_on_c, 0, 79, 114
1, 22739, Note_on_c, 0, 78, 114
1, 22739, Note_off_c, 0, 79, 114
1, 22778, Note_off_c, 0, 78, 114
1, 22781, Note_on_c, 0, 77, 116
1, 22863, Note_off_c, 0, 77, 116
1, 22872, Note_on_c, 0, 75, 120
1, 22948, Note_off_c, 0, 75, 120
1, 22961, Note_on_c, 0, 74, 111
1, 23056, Note_off_c, 0, 74, 111
1, 23062, Note_on_c, 0, 72, 113
1, 23147, Note_off_c, 0, 72, 113
1, 23153, Note_on_c, 0, 71, 112
1, 23229, Note_off_c, 0, 71, 112
1, 23238, Note_on_c, 0, 69, 113
1, 23320, Note_off_c, 0, 69, 113
1, 23336, Note_on_c, 0, 68, 95
1, 23415, Note_off_c, 0, 68, 95
1, 23431, Note_on_c, 0, 71, 117
1, 23520, Note_off_c, 0, 71, 117
1, 23539, Note_on_c, 0, 74, 96
1, 23595, Note_off_c, 0, 74, 96
1, 23628, Note_on_c, 0, 77, 121
1, 23677, Note_off_c, 0, 77, 121
1, 23696, Note_on_c, 0, 77, 103
1, 23715, Note_off_c, 0, 77, 103
1, 23721, Note_on_c, 0, 76, 124
1, 23830, Note_off_c, 0, 76, 124
1, 23929, Note_on_c, 0, 71, 93
1, 23998, Note_off_c, 0, 71, 93
1, 24014, Note_on_c, 0, 72, 119
1, 24073, Note_off_c, 0, 72, 119
1, 24112, Note_on_c, 0, 73, 120
1, 24168, Note_off_c, 0, 73, 120
1, 24168, Note_on_c, 0, 74, 114
1, 24310, Note_off_c, 0, 74, 114
1, 24392, Note_on_c, 0, 78, 113
1, 24454, Note_off_c, 0, 78, 113
1, 24467, Note_on_c, 0, 72, 101
1, 24582, Note_off_c, 0, 72, 101
1, 24582, Note_on_c, 0, 74, 113
1, 24863, Note_off_c, 0, 74, 113
1, 24929, Note_on_c, 0, 79, 110
1, 24985, Note_off_c, 0, 79, 110
1, 25031, Note_on_c, 0, 72, 112
1, 25130, Note_off_c, 0, 72, 112
1, 25130, Note_on_c, 0, 74, 113
1, 25368, Note_off_c, 0, 74, 113
1, 25410, Note_on_c, 0, 79, 104
1, 25469, Note_off_c, 0, 79, 104
1, 25525, Note_on_c, 0, 73, 117
1, 25591, Note_off_c, 0, 73, 117
1, 25597, Note_on_c, 0, 74, 114
1, 25848, Note_off_c, 0, 74, 114
1, 25897, Note_on_c, 0, 72, 116
1, 25939, Note_on_c, 0, 73, 107
1, 25939, Note_off_c, 0, 72, 116
1, 25972, Note_on_c, 0, 74, 105
1, 25972, Note_off_c, 0, 73, 107
1, 26021, Note_off_c, 0, 74, 105
1, 26027, Note_on_c, 0, 72, 97
1, 26060, Note_off_c, 0, 72, 97
1, 26073, Note_on_c, 0, 70, 103
1, 26135, Note_off_c, 0, 70, 103
1, 26144, Note_on_c, 0, 67, 107
1, 26246, Note_off_c, 0, 67, 107
1, 26265, Note_on_c, 0, 67, 107
1, 26327, Note_off_c, 0, 67, 107
1, 26327, End_track
0, 0, End_of_file
