0, 0, Header, 1, 1, 192
1, 0, Start_track
1, 0, Title_t, "Melody"
1, 0, Tempo, 377358
1, 0, Key_signature, 0, "major"
1, 0, Time_signature, 4, 2, 24, 8
1, 1357, Note_on_c, 0, 71, 125
1, 1455, Note_off_c, 0, 71, 125
1, 1556, Note_on_c, 0, 71, 84
1, 1600, Note_off_c, 0, 71, 84
1, 1639, Note_on_c, 0, 69, 110
1, 1737, Note_off_c, 0, 69, 110
1, 1750, Note_on_c, 0, 71, 115
1, 1846, Note_off_c, 0, 71, 115
1, 1846, Note_on_c, 0, 72, 111
1, 1942, Note_off_c, 0, 72, 111
1, 1947, Note_on_c, 0, 74, 121
1, 2029, Note_off_c, 0, 74, 121
1, 2048, Note_on_c, 0, 71, 114
1, 2190, Note_off_c, 0, 71, 114
1, 2230, Note_on_c, 0, 67, 96
1, 2308, Note_off_c, 0, 67, 96
1, 2353, Note_on_c, 0, 69, 99
1, 2695, Note_off_c, 0, 69, 99
1, 2812, Note_on_c, 0, 67, 97
1, 2897, Note_off_c, 0, 67, 97
1, 2913, Note_on_c, 0, 69, 109
1, 2976, Note_off_c, 0, 69, 109
1, 3001, Note_on_c, 0, 71, 117
1, 3099, Note_off_c, 0, 71, 117
1, 3187, Note_on_c, 0, 71, 107
1, 3230, Note_off_c, 0, 71, 107
1, 3236, Note_on_c, 0, 72, 113
1, 3337, Note_off_c, 0, 72, 113
1, 3359, Note_on_c, 0, 71, 116
1, 3468, Note_off_c, 0, 71, 116
1, 3476, Note_on_c, 0, 69, 118
1, 3564, Note_off_c, 0, 69, 118
1, 3577, Note_on_c, 0, 68, 96
1, 3705, Note_off_c, 0, 68, 96
1, 3745, Note_on_c, 0, 71, 117
1, 3857, Note_off_c, 0, 71, 117
1, 3873, Note_on_c, 0, 69, 99
1, 4101, Note_off_c, 0, 69, 99
1, 4143, Note_on_c, 0, 64, 104
1, 4222, Note_off_c, 0, 64, 104
1, 4313, Note_on_c, 0, 67, 104
1, 4676, Note_off_c, 0, 67, 104
1, 4708, Note_on_c, 0, 65, 106
1, 4796, Note_off_c, 0, 65, 106
1, 4876, Note_on_c, 0, 69, 116
1, 5017, Note_off_c, 0, 69, 116
1, 5022, Note_on_c, 0, 64, 92
1, 5344, Note_off_c, 0, 64, 92
1, 6043, Note_on_c, 0, 79, 120
1, 6163, Note_off_c, 0, 79, 120
1, 6166, Note_on_c, 0, 77, 124
1, 6524, Note_off_c, 0, 77, 124
1, 6560, Note_on_c, 0, 81, 115
1, 6792, Note_off_c, 0, 81, 115
1, 6798, Note_on_c, 0, 79, 112
1, 6818, Note_off_c, 0, 79, 112
1, 6822, Note_on_c, 0, 76, 119
1, 7123, Note_off_c, 0, 76, 119
1, 7129, Note_on_c, 0, 73, 97
1, 7175, Note_off_c, 0, 73, 97
1, 7192, Note_on_c, 0, 77, 114
1, 7310, Note_off_c, 0, 77, 114
1, 7325, Note_on_c, 0, 74, 109
1, 7760, Note_off_c, 0, 74, 109
1, 7767, Note_on_c, 0, 76, 118
1, 7883, Note_off_c, 0, 76, 118
1, 7890, Note_on_c, 0, 74, 112
1, 7951, Note_off_c, 0, 74, 112
1, 7952, Note_on_c, 0, 72, 106
1, 8010, Note_off_c, 0, 72, 106
1, 8033, Note_on_c, 0, 69, 90
1, 8079, Note_off_c, 0, 69, 90
1, 8098, Note_on_c, 0, 64, 107
1, 8162, Note_off_c, 0, 64, 107
1, 8169, Note_on_c, 0, 62, 98
1, 8325, Note_off_c, 0, 62, 98
1, 8331, Note_on_c, 0, 64, 108
1, 8523, Note_off_c, 0, 64, 108
1, 8530, Note_on_c, 0, 57, 90
1, 8736, Note_off_c, 0, 57, 90
1, 8748, Note_on_c, 0, 60, 100
1, 8869, Note_off_c, 0, 60, 100
1, 8929, Note_on_c, 0, 64, 101
1, 9201, Note_off_c, 0, 64, 101
1, 9248, Note_on_c, 0, 67, 98
1, 9312, Note_off_c, 0, 67, 98
1, 9359, Note_on_c, 0, 71, 112
1, 9449, Note_off_c, 0, 71, 112
1, 9508, Note_on_c, 0, 72, 111
1, 9643, Note_off_c, 0, 72, 111
1, 9648, Note_on_c, 0, 69, 105
1, 9931, Note_off_c, 0, 69, 105
1, 10594, Note_on_c, 0, 70, 110
1, 10626, Note_off_c, 0, 70, 110
1, 10630, Note_on_c, 0, 71, 113
1, 10816, Note_off_c, 0, 71, 113
1, 10839, Note_on_c, 0, 69, 116
1, 10945, Note_off_c, 0, 69, 116
1, 10963, Note_on_c, 0, 67, 110
1, 11033, Note_off_c, 0, 67, 110
1, 11040, Note_on_c, 0, 64, 94
1, 11140, Note_off_c, 0, 64, 94
1, 11149, Note_on_c, 0, 67, 110
1, 11221, Note_off_c, 0, 67, 110
1, 11225, Note_on_c, 0, 69, 110
1, 11334, Note_off_c, 0, 69, 110
1, 11343, Note_on_c, 0, 71, 116
1, 11409, Note_off_c, 0, 71, 116
1, 11413, Note_on_c, 0, 67, 100
1, 11516, Note_off_c, 0, 67, 100
1, 11531, Note_on_c, 0, 69, 109
1, 11783, Note_off_c, 0, 69, 109
1, 11801, Note_on_c, 0, 71, 113
1, 11871, Note_off_c, 0, 71, 113
1, 11915, Note_on_c, 0, 69, 113
1, 11980, Note_off_c, 0, 69, 113
1, 11997, Note_on_c, 0, 67, 104
1, 12088, Note_off_c, 0, 67, 104
1, 12123, Note_on_c, 0, 64, 91
1, 12163, Note_off_c, 0, 64, 91
1, 12180, Note_on_c, 0, 67, 104
1, 12374, Note_off_c, 0, 67, 104
1, 12385, Note_on_c, 0, 68, 105
1, 12429, Note_off_c, 0, 68, 105
1, 12432, Note_on_c, 0, 69, 104
1, 12476, Note_off_c, 0, 69, 104
1, 12491, Note_on_c, 0, 67, 108
1, 12566, Note_off_c, 0, 67, 108
1, 12582, Note_on_c, 0, 64, 106
1, 12666, Note_off_c, 0, 64, 106
1, 12672, Note_on_c, 0, 63, 106
1, 12749, Note_off_c, 0, 63, 106
1, 12774, Note_on_c, 0, 62, 97
1, 12866, Note_off_c, 0, 62, 97
1, 12932, Note_on_c, 0, 67, 105
1, 13059, Note_off_c, 0, 67, 105
1, 13070, Note_on_c, 0, 64, 105
1, 13336, Note_off_c, 0, 64, 105
1, 13359, Note_on_c, 0, 67, 102
1, 13443, Note_off_c, 0, 67, 102
1, 13549, Note_on_c, 0, 71, 112
1, 13812, Note_off_c, 0, 71, 112
1, 13865, Note_on_c, 0, 67, 105
1, 13925, Note_off_c, 0, 67, 105
1, 13949, Note_on_c, 0, 64, 109
1, 14119, Note_off_c, 0, 64, 109
1, 14132, Note_on_c, 0, 59, 91
1, 14227, Note_off_c, 0, 59, 91
1, 14236, Note_on_c, 0, 57, 87
1, 14607, Note_off_c, 0, 57, 87
1, 15360, Note_on_c, 0, 59, 80
1, 15400, Note_off_c, 0, 59, 80
1, 15409, Note_on_c, 0, 60, 96
1, 15452, Note_off_c, 0, 60, 96
1, 15470, Note_on_c, 0, 64, 110
1, 15590, Note_off_c, 0, 64, 110
1, 15598, Note_on_c, 0, 63, 104
1, 15661, Note_off_c, 0, 63, 104
1, 15668, Note_on_c, 0, 62, 92
1, 15772, Note_off_c, 0, 62, 92
1, 15782, Note_on_c, 0, 61, 99
1, 15870, Note_off_c, 0, 61, 99
1, 15880, Note_on_c, 0, 60, 98
1, 15962, Note_off_c, 0, 60, 98
1, 15970, Note_on_c, 0, 63, 88
1, 16037, Note_off_c, 0, 63, 88
1, 16046, Note_on_c, 0, 67, 109
1, 16158, Note_off_c, 0, 67, 109
1, 16173, Note_on_c, 0, 69, 107
1, 16222, Note_off_c, 0, 69, 107
1, 16225, Note_on_c, 0, 71, 118
1, 16408, Note_off_c, 0, 71, 118
1, 16415, Note_on_c, 0, 69, 118
1, 16545, Note_off_c, 0, 69, 118
1, 16629, Note_on_c, 0, 67, 105
1, 16917, Note_off_c, 0, 67, 105
1, 16950, Note_on_c, 0, 66, 106
1, 17025, Note_off_c, 0, 66, 106
1, 17036, Note_on_c, 0, 65, 106
1, 17154, Note_off_c, 0, 65, 106
1, 17211, Note_on_c, 0, 69, 117
1, 17325, Note_off_c, 0, 69, 117
1, 17336, Note_on_c, 0, 72, 109
1, 17591, Note_off_c, 0, 72, 109
1, 17592, Note_on_c, 0, 69, 115
1, 17716, Note_off_c, 0, 69, 115
1, 17721, Note_on_c, 0, 64, 107
1, 17973, Note_off_c, 0, 64, 107
1, 17990, Note_on_c, 0, 67, 104
1, 18117, Note_off_c, 0, 67, 104
1, 18127, Note_on_c, 0, 69, 111
1, 18366, Note_off_c, 0, 69, 111
1, 18389, Note_on_c, 0, 64, 107
1, 18488, Note_off_c, 0, 64, 107
1, 18506, Note_on_c, 0, 67, 104
1, 18760, Note_off_c, 0, 67, 104
1, 18777, Note_on_c, 0, 64, 106
1, 18869, Note_off_c, 0, 64, 106
1, 18950, Note_on_c, 0, 66, 100
1, 18995, Note_off_c, 0, 66, 100
1, 19001, Note_on_c, 0, 67, 106
1, 19131, Note_off_c, 0, 67, 106
1, 19139, Note_on_c, 0, 66, 106
1, 19268, Note_off_c, 0, 66, 106
1, 19272, Note_on_c, 0, 65, 102
1, 19520, Note_off_c, 0, 65, 102
1, 19524, Note_on_c, 0, 64, 108
1, 19640, Note_off_c, 0, 64, 108
1, 19675, Note_on_c, 0, 62, 101
1, 19776, Note_off_c, 0, 62, 101
1, 20252, Note_on_c, 0, 65, 96
1, 20300, Note_off_c, 0, 65, 96
1, 20329, Note_on_c, 0, 69, 107
1, 20411, Note_off_c, 0, 69, 107
1, 20425, Note_on_c, 0, 72, 117
1, 20493, Note_off_c, 0, 72, 117
1, 20517, Note_on_c, 0, 76, 127
1, 20637, Note_off_c, 0, 76, 127
1, 20682, Note_on_c, 0, 79, 111
1, 21097, Note_off_c, 0, 79, 111
1, 21101, Note_on_c, 0, 76, 121
1, 21218, Note_off_c, 0, 76, 121
1, 21225, Note_on_c, 0, 74, 102
1, 21593, Note_off_c, 0, 74, 102
1, 21607, Note_on_c, 0, 79, 113
1, 21842, Note_off_c, 0, 79, 113
1, 21860, Note_on_c, 0, 74, 113
1, 21999, Note_off_c, 0, 74, 113
1, 22006, Note_on_c, 0, 71, 106
1, 22228, Note_off_c, 0, 71, 106
1, 22248, Note_on_c, 0, 74, 107
1, 22360, Note_off_c, 0, 74, 107
1, 22374, Note_on_c, 0, 77, 112
1, 22646, Note_off_c, 0, 77, 112
1, 22650, Note_on_c, 0, 76, 115
1, 22705, Note_off_c, 0, 76, 115
1, 22708, Note_on_c, 0, 74, 104
1, 22753, Note_off_c, 0, 74, 104
1, 22764, Note_on_c, 0, 72, 110
1, 22820, Note_off_c, 0, 72, 110
1, 22832, Note_on_c, 0, 71, 106
1, 23046, Note_off_c, 0, 71, 106
1, 23048, Note_on_c, 0, 72, 101
1, 23198, Note_off_c, 0, 72, 101
1, 23203, Note_on_c, 0, 67, 99
1, 23388, Note_off_c, 0, 67, 99
1, 23396, Note_on_c, 0, 64, 104
1, 23515, Note_off_c, 0, 64, 104
1, 23521, Note_on_c, 0, 62, 93
1, 23733, Note_off_c, 0, 62, 93
1, 24101, Note_on_c, 0, 71, 111
1, 24169, Note_off_c, 0, 71, 111
1, 24175, Note_on_c, 0, 72, 105
1, 24335, Note_off_c, 0, 72, 105
1, 24340, Note_on_c, 0, 67, 101
1, 24625, Note_off_c, 0, 67, 101
1, 24666, Note_on_c, 0, 64, 106
1, 24740, Note_off_c, 0, 64, 106
1, 24754, Note_on_c, 0, 62, 100
1, 24851, Note_off_c, 0, 62, 100
1, 24951, Note_on_c, 0, 60, 89
1, 25041, Note_off_c, 0, 60, 89
1, 25052, Note_on_c, 0, 62, 98
1, 25112, Note_off_c, 0, 62, 98
1, 25150, Note_on_c, 0, 63, 98
1, 25217, Note_off_c, 0, 63, 98
1, 25242, Note_on_c, 0, 65, 106
1, 25292, Note_off_c, 0, 65, 106
1, 25296, Note_on_c, 0, 67, 105
1, 25417, Note_off_c, 0, 67, 105
1, 25427, Note_on_c, 0, 68, 110
1, 25513, Note_off_c, 0, 68, 110
1, 25533, Note_on_c, 0, 69, 113
1, 25561, Note_off_c, 0, 69, 113
1, 25566, Note_on_c, 0, 70, 106
1, 25635, Note_off_c, 0, 70, 106
1, 25642, Note_on_c, 0, 68, 99
1, 25692, Note_off_c, 0, 68, 99
1, 25714, Note_on_c, 0, 63, 97
1, 25755, Note_off_c, 0, 63, 97
1, 25769, Note_on_c, 0, 60, 87
1, 25816, Note_off_c, 0, 60, 87
1, 25890, Note_on_c, 0, 67, 109
1, 26014, Note_off_c, 0, 67, 109
1, 26014, End_track
0, 0, End_of_file
