0, 0, Header, 1, 1, 192
1, 0, Start_track
1, 0, Title_t, "Melody"
1, 0, Tempo, 314136
1, 0, Key_signature, 1, "major"
1, 0, Time_signature, 4, 2, 24, 8
1, 2095, Note_on_c, 0, 64, 79
1, 2196, Note_off_c, 0, 64, 79
1, 2212, Note_on_c, 0, 67, 88
1, 2238, Note_off_c, 0, 67, 88
1, 2262, Note_on_c, 0, 69, 106
1, 2376, Note_off_c, 0, 69, 106
1, 2403, Note_on_c, 0, 71, 112
1, 2563, Note_off_c, 0, 71, 112
1, 2650, Note_on_c, 0, 64, 93
1, 2756, Note_off_c, 0, 64, 93
1, 2787, Note_on_c, 0, 67, 89
1, 2831, Note_off_c, 0, 67, 89
1, 2841, Note_on_c, 0, 69, 112
1, 2975, Note_off_c, 0, 69, 112
1, 2982, Note_on_c, 0, 70, 112
1, 3146, Note_off_c, 0, 70, 112
1, 3269, Note_on_c, 0, 64, 88
1, 3383, Note_off_c, 0, 64, 88
1, 3390, Note_on_c, 0, 67, 90
1, 3434, Note_off_c, 0, 67, 90
1, 3443, Note_on_c, 0, 69, 112
1, 3566, Note_off_c, 0, 69, 112
1, 3597, Note_on_c, 0, 69, 105
1, 3655, Note_off_c, 0, 69, 105
1, 3665, Note_on_c, 0, 70, 113
1, 3803, Note_off_c, 0, 70, 113
1, 3833, Note_on_c, 0, 69, 116
1, 3932, Note_off_c, 0, 69, 116
1, 3952, Note_on_c, 0, 67, 111
1, 4033, Note_off_c, 0, 67, 111
1, 4033, Note_on_c, 0, 65, 97
1, 4157, Note_off_c, 0, 65, 97
1, 4157, Note_on_c, 0, 67, 113
1, 4230, Note_off_c, 0, 67, 113
1, 4237, Note_on_c, 0, 65, 105
1, 4399, Note_off_c, 0, 65, 105
1, 4403, Note_on_c, 0, 63, 101
1, 4548, Note_off_c, 0, 63, 101
1, 4548, Note_on_c, 0, 58, 82
1, 4804, Note_off_c, 0, 58, 82
1, 4907, Note_on_c, 0, 60, 106
1, 4960, Note_off_c, 0, 60, 106
1, 4978, Note_on_c, 0, 62, 102
1, 5091, Note_off_c, 0, 62, 102
1, 5122, Note_on_c, 0, 64, 108
1, 5365, Note_off_c, 0, 64, 108
1, 5394, Note_on_c, 0, 66, 115
1, 5524, Note_off_c, 0, 66, 115
1, 6163, Note_on_c, 0, 69, 119
1, 6302, Note_off_c, 0, 69, 119
1, 6308, Note_on_c, 0, 66, 92
1, 6379, Note_off_c, 0, 66, 92
1, 6391, Note_on_c, 0, 67, 104
1, 6467, Note_off_c, 0, 67, 104
1, 6476, Note_on_c, 0, 69, 117
1, 6554, Note_off_c, 0, 69, 117
1, 6579, Note_on_c, 0, 70, 122
1, 6662, Note_off_c, 0, 70, 122
1, 6673, Note_on_c, 0, 72, 127
1, 6754, Note_off_c, 0, 72, 127
1, 6773, Note_on_c, 0, 73, 121
1, 6859, Note_off_c, 0, 73, 121
1, 6863, Note_on_c, 0, 75, 116
1, 6972, Note_off_c, 0, 75, 116
1, 6978, Note_on_c, 0, 72, 118
1, 7067, Note_off_c, 0, 72, 118
1, 7073, Note_on_c, 0, 70, 117
1, 7196, Note_off_c, 0, 70, 117
1, 8127, Note_on_c, 0, 69, 105
1, 8236, Note_off_c, 0, 69, 105
1, 8294, Note_on_c, 0, 71, 117
1, 8454, Note_off_c, 0, 71, 117
1, 8507, Note_on_c, 0, 72, 116
1, 8651, Note_off_c, 0, 72, 116
1, 8651, Note_on_c, 0, 74, 114
1, 8758, Note_off_c, 0, 74, 114
1, 8826, Note_on_c, 0, 76, 120
1, 9061, Note_off_c, 0, 76, 120
1, 9079, Note_on_c, 0, 79, 126
1, 9219, Note_off_c, 0, 79, 126
1, 9221, Note_on_c, 0, 78, 122
1, 9470, Note_off_c, 0, 78, 122
1, 9477, Note_on_c, 0, 76, 121
1, 9607, Note_off_c, 0, 76, 121
1, 9609, Note_on_c, 0, 74, 116
1, 9860, Note_off_c, 0, 74, 116
1, 10046, Note_on_c, 0, 74, 115
1, 10141, Note_off_c, 0, 74, 115
1, 10150, Note_on_c, 0, 75, 115
1, 10188, Note_off_c, 0, 75, 115
1, 10192, Note_on_c, 0, 74, 116
1, 10235, Note_off_c, 0, 74, 116
1, 10243, Note_on_c, 0, 73, 113
1, 10345, Note_off_c, 0, 73, 113
1, 10638, Note_on_c, 0, 73, 111
1, 10700, Note_off_c, 0, 73, 111
1, 10706, Note_on_c, 0, 74, 113
1, 10956, Note_off_c, 0, 74, 113
1, 10980, Note_on_c, 0, 71, 110
1, 11078, Note_off_c, 0, 71, 110
1, 11093, Note_on_c, 0, 67, 108
1, 11179, Note_off_c, 0, 67, 108
1, 11191, Note_on_c, 0, 66, 98
1, 11280, Note_off_c, 0, 66, 98
1, 11305, Note_on_c, 0, 64, 95
1, 11553, Note_off_c, 0, 64, 95
1, 11577, Note_on_c, 0, 66, 107
1, 11665, Note_off_c, 0, 66, 107
1, 11689, Note_on_c, 0, 63, 92
1, 11780, Note_off_c, 0, 63, 92
1, 11795, Note_on_c, 0, 64, 93
1, 11872, Note_off_c, 0, 64, 93
1, 11878, Note_on_c, 0, 66, 106
1, 11967, Note_off_c, 0, 66, 106
1, 11996, Note_on_c, 0, 67, 100
1, 12065, Note_off_c, 0, 67, 100
1, 12066, Note_on_c, 0, 69, 116
1, 12150, Note_off_c, 0, 69, 116
1, 12158, Note_on_c, 0, 66, 89
1, 12235, Note_off_c, 0, 66, 89
1, 12265, Note_on_c, 0, 67, 88
1, 12329, Note_off_c, 0, 67, 88
1, 12330, Note_on_c, 0, 69, 110
1, 12445, Note_off_c, 0, 69, 110
1, 12452, Note_on_c, 0, 70, 117
1, 12541, Note_off_c, 0, 70, 117
1, 12542, Note_on_c, 0, 71, 105
1, 12631, Note_off_c, 0, 71, 105
1, 12635, Note_on_c, 0, 74, 117
1, 12721, Note_off_c, 0, 74, 117
1, 12728, Note_on_c, 0, 72, 118
1, 12826, Note_off_c, 0, 72, 118
1, 12849, Note_on_c, 0, 64, 90
1, 12891, Note_off_c, 0, 64, 90
1, 12895, Note_on_c, 0, 67, 92
1, 13014, Note_off_c, 0, 67, 92
1, 13014, Note_on_c, 0, 71, 116
1, 13104, Note_on_c, 0, 69, 108
1, 13104, Note_off_c, 0, 71, 116
1, 13212, Note_off_c, 0, 69, 108
1, 13218, Note_on_c, 0, 67, 114
1, 13285, Note_off_c, 0, 67, 114
1, 13294, Note_on_c, 0, 64, 97
1, 13388, Note_off_c, 0, 64, 97
1, 13391, Note_on_c, 0, 60, 98
1, 13483, Note_off_c, 0, 60, 98
1, 13498, Note_on_c, 0, 59, 92
1, 13581, Note_off_c, 0, 59, 92
1, 13785, Note_on_c, 0, 59, 95
1, 13887, Note_off_c, 0, 59, 95
1, 13893, Note_on_c, 0, 62, 106
1, 14001, Note_off_c, 0, 62, 106
1, 14071, Note_on_c, 0, 67, 113
1, 14209, Note_off_c, 0, 67, 113
1, 14249, Note_on_c, 0, 64, 94
1, 14555, Note_off_c, 0, 64, 94
1, 14575, Note_on_c, 0, 69, 108
1, 14692, Note_off_c, 0, 69, 108
1, 15025, Note_on_c, 0, 69, 105
1, 15391, Note_off_c, 0, 69, 105
1, 15404, Note_on_c, 0, 67, 93
1, 15508, Note_off_c, 0, 67, 93
1, 15525, Note_on_c, 0, 69, 107
1, 15599, Note_off_c, 0, 69, 107
1, 15599, Note_on_c, 0, 71, 105
1, 15703, Note_off_c, 0, 71, 105
1, 15708, Note_on_c, 0, 74, 121
1, 15789, Note_off_c, 0, 74, 121
1, 15801, Note_on_c, 0, 77, 124
1, 15993, Note_off_c, 0, 77, 124
1, 16004, Note_on_c, 0, 75, 119
1, 16182, Note_off_c, 0, 75, 119
1, 16187, Note_on_c, 0, 74, 114
1, 16359, Note_off_c, 0, 74, 114
1, 16365, Note_on_c, 0, 72, 114
1, 16553, Note_off_c, 0, 72, 114
1, 16555, Note_on_c, 0, 70, 112
1, 16750, Note_off_c, 0, 70, 112
1, 16758, Note_on_c, 0, 67, 97
1, 16869, Note_off_c, 0, 67, 97
1, 16883, Note_on_c, 0, 65, 100
1, 17120, Note_off_c, 0, 65, 100
1, 17121, Note_on_c, 0, 63, 97
1, 17246, Note_off_c, 0, 63, 97
1, 17258, Note_on_c, 0, 62, 91
1, 17657, Note_off_c, 0, 62, 91
1, 17692, Note_on_c, 0, 64, 96
1, 17807, Note_off_c, 0, 64, 96
1, 18067, Note_on_c, 0, 66, 107
1, 18192, Note_off_c, 0, 66, 107
1, 18200, Note_on_c, 0, 62, 86
1, 18267, Note_off_c, 0, 62, 86
1, 18279, Note_on_c, 0, 63, 98
1, 18383, Note_off_c, 0, 63, 98
1, 18396, Note_on_c, 0, 64, 102
1, 18473, Note_off_c, 0, 64, 102
1, 18779, Note_on_c, 0, 64, 110
1, 18830, Note_off_c, 0, 64, 110
1, 18841, Note_on_c, 0, 65, 110
1, 19020, Note_off_c, 0, 65, 110
1, 19039, Note_on_c, 0, 63, 101
1, 19100, Note_off_c, 0, 63, 101
1, 19103, Note_on_c, 0, 58, 78
1, 19142, Note_off_c, 0, 58, 78
1, 19236, Note_on_c, 0, 62, 104
1, 19356, Note_off_c, 0, 62, 104
1, 19361, Note_on_c, 0, 61, 108
1, 19404, Note_off_c, 0, 61, 108
1, 19425, Note_on_c, 0, 60, 98
1, 19502, Note_off_c, 0, 60, 98
1, 19538, Note_on_c, 0, 63, 111
1, 19592, Note_off_c, 0, 63, 111
1, 19617, Note_on_c, 0, 59, 98
1, 19709, Note_off_c, 0, 59, 98
1, 19787, Note_on_c, 0, 55, 88
1, 19899, Note_off_c, 0, 55, 88
1, 19906, Note_on_c, 0, 57, 98
1, 19979, Note_off_c, 0, 57, 98
1, 20280, Note_on_c, 0, 57, 91
1, 20566, Note_off_c, 0, 57, 91
1, 20566, Note_on_c, 0, 55, 99
1, 20761, Note_off_c, 0, 55, 99
1, 20761, Note_on_c, 0, 67, 111
1, 20873, Note_off_c, 0, 67, 111
1, 20889, Note_on_c, 0, 64, 107
1, 20945, Note_off_c, 0, 64, 107
1, 21238, Note_on_c, 0, 66, 110
1, 21490, Note_off_c, 0, 66, 110
1, 21521, Note_on_c, 0, 63, 97
1, 21627, Note_off_c, 0, 63, 97
1, 21631, Note_on_c, 0, 64, 104
1, 21700, Note_off_c, 0, 64, 104
1, 21713, Note_on_c, 0, 66, 110
1, 21783, Note_off_c, 0, 66, 110
1, 21813, Note_on_c, 0, 63, 79
1, 21869, Note_off_c, 0, 63, 79
1, 21923, Note_on_c, 0, 64, 91
1, 21991, Note_off_c, 0, 64, 91
1, 22008, Note_on_c, 0, 66, 113
1, 22090, Note_on_c, 0, 67, 104
1, 22090, Note_off_c, 0, 66, 113
1, 22179, Note_off_c, 0, 67, 104
1, 22185, Note_on_c, 0, 68, 106
1, 22226, Note_off_c, 0, 68, 106
1, 22230, Note_on_c, 0, 69, 110
1, 22264, Note_off_c, 0, 69, 110
1, 22289, Note_on_c, 0, 71, 112
1, 22387, Note_off_c, 0, 71, 112
1, 22387, Note_on_c, 0, 69, 112
1, 22459, Note_off_c, 0, 69, 112
1, 22483, Note_on_c, 0, 67, 103
1, 22561, Note_off_c, 0, 67, 103
1, 22582, Note_on_c, 0, 64, 83
1, 22624, Note_off_c, 0, 64, 83
1, 22671, Note_on_c, 0, 69, 113
1, 22779, Note_off_c, 0, 69, 113
1, 22781, Note_on_c, 0, 66, 94
1, 22835, Note_off_c, 0, 66, 94
1, 22860, Note_on_c, 0, 68, 102
1, 22911, Note_off_c, 0, 68, 102
1, 22913, Note_on_c, 0, 69, 103
1, 22948, Note_off_c, 0, 69, 103
1, 22950, Note_on_c, 0, 70, 111
1, 23006, Note_off_c, 0, 70, 111
1, 23015, Note_on_c, 0, 71, 106
1, 23117, Note_off_c, 0, 71, 106
1, 23132, Note_on_c, 0, 74, 115
1, 23210, Note_off_c, 0, 74, 115
1, 23213, Note_on_c, 0, 76, 115
1, 23322, Note_off_c, 0, 76, 115
1, 23407, Note_on_c, 0, 78, 122
1, 23481, Note_off_c, 0, 78, 122
1, 23491, Note_on_c, 0, 79, 115
1, 23938, Note_off_c, 0, 79, 115
1, 23985, Note_on_c, 0, 76, 107
1, 24114, Note_off_c, 0, 76, 107
1, 24115, Note_on_c, 0, 74, 111
1, 24338, Note_off_c, 0, 74, 111
1, 24570, Note_on_c, 0, 76, 105
1, 24674, Note_off_c, 0, 76, 105
1, 24682, Note_on_c, 0, 74, 113
1, 24753, Note_off_c, 0, 74, 113
1, 24761, Note_on_c, 0, 71, 100
1, 24858, Note_off_c, 0, 71, 100
1, 24859, Note_on_c, 0, 69, 111
1, 24942, Note_off_c, 0, 69, 111
1, 24956, Note_on_c, 0, 67, 96
1, 25033, Note_off_c, 0, 67, 96
1, 25060, Note_on_c, 0, 69, 111
1, 25139, Note_off_c, 0, 69, 111
1, 25156, Note_on_c, 0, 66, 88
1, 25303, Note_off_c, 0, 66, 88
1, 25339, Note_on_c, 0, 67, 101
1, 25491, Note_off_c, 0, 67, 101
1, 25714, Note_on_c, 0, 67, 100
1, 25826, Note_off_c, 0, 67, 100
1, 25842, Note_on_c, 0, 69, 109
1, 25931, Note_off_c, 0, 69, 109
1, 25933, Note_on_c, 0, 66, 98
1, 26046, Note_off_c, 0, 66, 98
1, 26054, Note_on_c, 0, 67, 105
1, 26156, Note_off_c, 0, 67, 105
1, 26490, Note_on_c, 0, 69, 111
1, 26610, Note_off_c, 0, 69, 111
1, 26610, Note_on_c, 0, 71, 110
1, 26674, Note_off_c, 0, 71, 110
1, 26701, Note_on_c, 0, 67, 86
1, 26793, Note_off_c, 0, 67, 86
1, 26803, Note_on_c, 0, 69, 98
1, 27054, Note_off_c, 0, 69, 98
1, 27407, Note_on_c, 0, 74, 83
1, 27566, Note_off_c, 0, 74, 83
1, 27566, Note_on_c, 0, 71, 107
1, 27655, Note_off_c, 0, 71, 107
1, 27669, Note_on_c, 0, 74, 105
1, 27741, Note_off_c, 0, 74, 105
1, 27741, Note_on_c, 0, 71, 106
1, 27830, Note_off_c, 0, 71, 106
1, 27849, Note_on_c, 0, 69, 102
1, 27966, Note_off_c, 0, 69, 102
1, 27970, Note_on_c, 0, 67, 109
1, 28034, Note_off_c, 0, 67, 109
1, 28034, Note_on_c, 0, 59, 97
1, 28148, Note_off_c, 0, 59, 97
1, 28149, Note_on_c, 0, 63, 104
1, 28230, Note_off_c, 0, 63, 104
1, 28230, Note_on_c, 0, 57, 97
1, 28330, Note_off_c, 0, 57, 97
1, 28340, Note_on_c, 0, 59, 90
1, 29385, Note_off_c, 0, 59, 90
1, 29407, Note_on_c, 0, 60, 84
1, 29486, Note_off_c, 0, 60, 84
1, 29493, Note_on_c, 0, 63, 102
1, 29572, Note_off_c, 0, 63, 102
1, 29574, Note_on_c, 0, 64, 96
1, 29668, Note_off_c, 0, 64, 96
1, 29682, Note_on_c, 0, 66, 94
1, 29749, Note_off_c, 0, 66, 94
1, 29763, Note_on_c, 0, 62, 82
1, 29857, Note_off_c, 0, 62, 82
1, 29860, Note_on_c, 0, 64, 96
1, 30064, Note_off_c, 0, 64, 96
1, 30415, Note_on_c, 0, 69, 113
1, 30478, Note_off_c, 0, 69, 113
1, 30502, Note_on_c, 0, 69, 113
1, 30587, Note_off_c, 0, 69, 113
1, 30613, Note_on_c, 0, 69, 116
1, 30715, Note_off_c, 0, 69, 116
1, 30821, Note_on_c, 0, 66, 110
1, 30877, Note_off_c, 0, 66, 110
1, 30885, Note_on_c, 0, 64, 96
1, 30984, Note_off_c, 0, 64, 96
1, 31008, Note_on_c, 0, 62, 101
1, 31054, Note_off_c, 0, 62, 101
1, 31077, Note_on_c, 0, 58, 90
1, 31156, Note_off_c, 0, 58, 90
1, 31206, Note_on_c, 0, 61, 105
1, 31268, Note_off_c, 0, 61, 105
1, 31268, Note_on_c, 0, 59, 83
1, 31373, Note_off_c, 0, 59, 83
1, 31373, Note_on_c, 0, 60, 103
1, 31450, Note_off_c, 0, 60, 103
1, 31467, Note_on_c, 0, 60, 83
1, 31556, Note_off_c, 0, 60, 83
1, 31570, Note_on_c, 0, 62, 104
1, 31625, Note_off_c, 0, 62, 104
1, 31634, Note_on_c, 0, 63, 101
1, 31753, Note_off_c, 0, 63, 101
1, 31753, Note_on_c, 0, 64, 91
1, 31947, Note_off_c, 0, 64, 91
1, 31949, Note_on_c, 0, 66, 112
1, 32021, Note_off_c, 0, 66, 112
1, 32033, Note_on_c, 0, 63, 95
1, 32127, Note_off_c, 0, 63, 95
1, 32127, Note_on_c, 0, 64, 92
1, 32256, Note_off_c, 0, 64, 92
1, 32315, Note_on_c, 0, 66, 110
1, 32391, Note_off_c, 0, 66, 110
1, 32396, Note_on_c, 0, 67, 106
1, 32480, Note_off_c, 0, 67, 106
1, 32494, Note_on_c, 0, 69, 108
1, 32580, Note_off_c, 0, 69, 108
1, 32580, End_track
0, 0, End_of_file
