0, 0, Header, 1, 1, 192
1, 0, Start_track
1, 0, Title_t, "Melody"
1, 0, Tempo, 266666
1, 0, Key_signature, -2, "major"
1, 0, Time_signature, 4, 2, 24, 8
1, 4353, Note_on_c, 0, 72, 115
1, 4436, Note_off_c, 0, 72, 115
1, 4634, Note_on_c, 0, 72, 112
1, 4721, Note_off_c, 0, 72, 112
1, 4820, Note_on_c, 0, 72, 115
1, 4917, Note_off_c, 0, 72, 115
1, 5027, Note_on_c, 0, 72, 117
1, 5179, Note_off_c, 0, 72, 117
1, 5200, Note_on_c, 0, 72, 115
1, 5330, Note_off_c, 0, 72, 115
1, 5349, Note_on_c, 0, 69, 97
1, 5403, Note_off_c, 0, 69, 97
1, 5408, Note_on_c, 0, 72, 119
1, 5530, Note_off_c, 0, 72, 119
1, 5548, Note_on_c, 0, 74, 119
1, 5618, Note_off_c, 0, 74, 119
1, 5924, Note_on_c, 0, 67, 112
1, 6044, Note_off_c, 0, 67, 112
1, 6197, Note_on_c, 0, 67, 103
1, 6485, Note_off_c, 0, 67, 103
1, 7374, Note_on_c, 0, 68, 119
1, 7480, Note_off_c, 0, 68, 119
1, 7889, Note_on_c, 0, 60, 106
1, 7941, Note_off_c, 0, 60, 106
1, 7955, Note_on_c, 0, 63, 120
1, 8030, Note_off_c, 0, 63, 120
1, 8064, Note_on_c, 0, 67, 123
1, 8134, Note_off_c, 0, 67, 123
1, 8170, Note_on_c, 0, 65, 119
1, 8229, Note_off_c, 0, 65, 119
1, 8245, Note_on_c, 0, 63, 121
1, 8320, Note_off_c, 0, 63, 121
1, 8342, Note_on_c, 0, 62, 115
1, 8425, Note_off_c, 0, 62, 115
1, 8437, Note_on_c, 0, 65, 122
1, 8513, Note_off_c, 0, 65, 122
1, 8528, Note_on_c, 0, 68, 119
1, 8612, Note_off_c, 0, 68, 119
1, 8632, Note_on_c, 0, 72, 123
1, 8696, Note_off_c, 0, 72, 123
1, 8714, Note_on_c, 0, 70, 120
1, 8785, Note_off_c, 0, 70, 120
1, 8835, Note_on_c, 0, 68, 122
1, 8895, Note_off_c, 0, 68, 122
1, 8912, Note_on_c, 0, 67, 115
1, 9082, Note_off_c, 0, 67, 115
1, 9480, Note_on_c, 0, 58, 101
1, 9671, Note_off_c, 0, 58, 101
1, 9683, Note_on_c, 0, 60, 95
1, 9987, Note_off_c, 0, 60, 95
1, 10788, Note_on_c, 0, 57, 114
1, 10901, Note_off_c, 0, 57, 114
1, 10911, Note_on_c, 0, 58, 120
1, 10980, Note_off_c, 0, 58, 120
1, 10999, Note_on_c, 0, 60, 117
1, 11115, Note_off_c, 0, 60, 117
1, 11139, Note_on_c, 0, 63, 124
1, 11201, Note_off_c, 0, 63, 124
1, 11217, Note_on_c, 0, 62, 118
1, 11298, Note_off_c, 0, 62, 118
1, 11725, Note_on_c, 0, 66, 123
1, 11833, Note_off_c, 0, 66, 123
1, 11861, Note_on_c, 0, 69, 121
1, 11954, Note_off_c, 0, 69, 121
1, 11991, Note_on_c, 0, 67, 122
1, 12086, Note_off_c, 0, 67, 122
1, 12158, Note_on_c, 0, 70, 122
1, 12242, Note_off_c, 0, 70, 122
1, 12258, Note_on_c, 0, 74, 124
1, 12349, Note_off_c, 0, 74, 124
1, 12387, Note_on_c, 0, 72, 120
1, 12498, Note_off_c, 0, 72, 120
1, 13204, Note_on_c, 0, 77, 119
1, 13305, Note_off_c, 0, 77, 119
1, 13383, Note_on_c, 0, 77, 123
1, 13460, Note_off_c, 0, 77, 123
1, 13475, Note_on_c, 0, 76, 121
1, 13589, Note_off_c, 0, 76, 121
1, 13642, Note_on_c, 0, 74, 123
1, 13762, Note_off_c, 0, 74, 123
1, 13794, Note_on_c, 0, 73, 120
1, 13885, Note_off_c, 0, 73, 120
1, 13954, Note_on_c, 0, 70, 121
1, 14037, Note_off_c, 0, 70, 121
1, 14045, Note_on_c, 0, 69, 117
1, 14120, Note_off_c, 0, 69, 117
1, 14133, Note_on_c, 0, 67, 118
1, 14219, Note_off_c, 0, 67, 118
1, 14255, Note_on_c, 0, 65, 122
1, 14324, Note_off_c, 0, 65, 122
1, 14337, Note_on_c, 0, 63, 121
1, 14420, Note_off_c, 0, 63, 121
1, 14433, Note_on_c, 0, 64, 118
1, 14772, Note_off_c, 0, 64, 118
1, 14820, Note_on_c, 0, 67, 120
1, 14889, Note_off_c, 0, 67, 120
1, 14905, Note_on_c, 0, 70, 122
1, 14975, Note_off_c, 0, 70, 122
1, 15032, Note_on_c, 0, 70, 118
1, 15130, Note_off_c, 0, 70, 118
1, 15141, Note_on_c, 0, 72, 119
1, 15210, Note_off_c, 0, 72, 119
1, 15287, Note_on_c, 0, 69, 117
1, 15603, Note_off_c, 0, 69, 117
1, 15675, Note_on_c, 0, 70, 117
1, 15751, Note_off_c, 0, 70, 117
1, 15789, Note_on_c, 0, 72, 120
1, 15853, Note_off_c, 0, 72, 120
1, 15871, Note_on_c, 0, 74, 125
1, 15943, Note_off_c, 0, 74, 125
1, 15956, Note_on_c, 0, 75, 123
1, 16033, Note_off_c, 0, 75, 123
1, 16040, Note_on_c, 0, 72, 120
1, 16106, Note_off_c, 0, 72, 120
1, 16135, Note_on_c, 0, 69, 118
1, 16213, Note_off_c, 0, 69, 118
1, 16234, Note_on_c, 0, 67, 117
1, 16311, Note_off_c, 0, 67, 117
1, 16338, Note_on_c, 0, 66, 117
1, 16384, Note_off_c, 0, 66, 117
1, 16423, Note_on_c, 0, 69, 120
1, 16496, Note_off_c, 0, 69, 120
1, 16529, Note_on_c, 0, 75, 122
1, 16606, Note_off_c, 0, 75, 122
1, 16624, Note_on_c, 0, 75, 123
1, 16709, Note_off_c, 0, 75, 123
1, 16720, Note_on_c, 0, 74, 122
1, 16793, Note_off_c, 0, 74, 122
1, 16812, Note_on_c, 0, 72, 119
1, 16895, Note_off_c, 0, 72, 119
1, 16920, Note_on_c, 0, 70, 120
1, 16983, Note_off_c, 0, 70, 120
1, 17003, Note_on_c, 0, 72, 119
1, 17088, Note_off_c, 0, 72, 119
1, 17102, Note_on_c, 0, 74, 121
1, 17171, Note_off_c, 0, 74, 121
1, 17198, Note_on_c, 0, 70, 120
1, 17274, Note_off_c, 0, 70, 120
1, 17289, Note_on_c, 0, 69, 119
1, 17369, Note_off_c, 0, 69, 119
1, 17388, Note_on_c, 0, 67, 120
1, 17459, Note_off_c, 0, 67, 120
1, 17472, Note_on_c, 0, 66, 120
1, 17543, Note_off_c, 0, 66, 120
1, 17577, Note_on_c, 0, 63, 120
1, 17651, Note_off_c, 0, 63, 120
1, 17668, Note_on_c, 0, 62, 117
1, 17737, Note_off_c, 0, 62, 117
1, 17754, Note_on_c, 0, 64, 107
1, 17780, Note_off_c, 0, 64, 107
1, 17790, Note_on_c, 0, 60, 113
1, 17845, Note_off_c, 0, 60, 113
1, 17875, Note_on_c, 0, 58, 112
1, 17955, Note_off_c, 0, 58, 112
1, 17970, Note_on_c, 0, 57, 108
1, 18016, Note_off_c, 0, 57, 108
1, 18027, Note_on_c, 0, 55, 112
1, 18084, Note_off_c, 0, 55, 112
1, 18097, Note_on_c, 0, 57, 118
1, 18150, Note_off_c, 0, 57, 118
1, 18540, Note_on_c, 0, 54, 111
1, 18609, Note_off_c, 0, 54, 111
1, 18617, Note_on_c, 0, 55, 109
1, 18689, Note_off_c, 0, 55, 109
1, 18719, Note_on_c, 0, 57, 118
1, 18803, Note_off_c, 0, 57, 118
1, 18814, Note_on_c, 0, 58, 118
1, 18865, Note_off_c, 0, 58, 118
1, 18909, Note_on_c, 0, 60, 118
1, 18981, Note_off_c, 0, 60, 118
1, 18997, Note_on_c, 0, 62, 118
1, 19077, Note_off_c, 0, 62, 118
1, 19100, Note_on_c, 0, 65, 122
1, 19173, Note_off_c, 0, 65, 122
1, 19195, Note_on_c, 0, 63, 118
1, 19274, Note_off_c, 0, 63, 118
1, 19294, Note_on_c, 0, 65, 123
1, 19368, Note_off_c, 0, 65, 123
1, 19377, Note_on_c, 0, 67, 120
1, 19470, Note_off_c, 0, 67, 120
1, 19483, Note_on_c, 0, 70, 117
1, 19560, Note_off_c, 0, 70, 117
1, 19581, Note_on_c, 0, 74, 123
1, 19661, Note_off_c, 0, 74, 123
1, 19675, Note_on_c, 0, 75, 120
1, 19945, Note_off_c, 0, 75, 120
1, 19978, Note_on_c, 0, 72, 116
1, 20187, Note_off_c, 0, 72, 116
1, 20267, Note_on_c, 0, 68, 116
1, 20346, Note_off_c, 0, 68, 116
1, 20357, Note_on_c, 0, 65, 113
1, 20514, Note_off_c, 0, 65, 113
1, 20523, Note_on_c, 0, 68, 117
1, 20612, Note_off_c, 0, 68, 117
1, 20638, Note_on_c, 0, 75, 123
1, 20742, Note_off_c, 0, 75, 123
1, 20759, Note_on_c, 0, 74, 123
1, 20892, Note_off_c, 0, 74, 123
1, 20911, Note_on_c, 0, 70, 113
1, 21002, Note_off_c, 0, 70, 113
1, 21044, Note_on_c, 0, 72, 117
1, 21248, Note_off_c, 0, 72, 117
1, 21295, Note_on_c, 0, 67, 101
1, 21388, Note_off_c, 0, 67, 101
1, 21498, Note_on_c, 0, 70, 102
1, 21785, Note_off_c, 0, 70, 102
1, 23057, Note_on_c, 0, 74, 118
1, 23807, Note_off_c, 0, 74, 118
1, 23845, Note_on_c, 0, 81, 119
1, 23984, Note_off_c, 0, 81, 119
1, 25020, Note_on_c, 0, 74, 120
1, 25532, Note_off_c, 0, 74, 120
1, 25605, Note_on_c, 0, 67, 116
1, 25683, Note_off_c, 0, 67, 116
1, 25724, Note_on_c, 0, 67, 117
1, 25772, Note_off_c, 0, 67, 117
1, 25794, Note_on_c, 0, 70, 121
1, 25877, Note_off_c, 0, 70, 121
1, 25890, Note_on_c, 0, 70, 122
1, 25964, Note_off_c, 0, 70, 122
1, 25978, Note_on_c, 0, 72, 118
1, 26076, Note_off_c, 0, 72, 118
1, 26181, Note_on_c, 0, 74, 123
1, 26352, Note_off_c, 0, 74, 123
1, 26363, Note_on_c, 0, 67, 99
1, 26439, Note_off_c, 0, 67, 99
1, 26563, Note_on_c, 0, 70, 116
1, 26826, Note_off_c, 0, 70, 116
1, 26876, Note_on_c, 0, 72, 110
1, 26953, Note_off_c, 0, 72, 110
1, 27260, Note_on_c, 0, 70, 120
1, 27336, Note_off_c, 0, 70, 120
1, 27349, Note_on_c, 0, 69, 117
1, 27421, Note_off_c, 0, 69, 117
1, 27452, Note_on_c, 0, 67, 117
1, 27530, Note_off_c, 0, 67, 117
1, 27539, Note_on_c, 0, 65, 116
1, 27613, Note_off_c, 0, 65, 116
1, 27627, Note_on_c, 0, 66, 103
1, 27664, Note_off_c, 0, 66, 103
1, 27670, Note_on_c, 0, 63, 116
1, 27713, Note_off_c, 0, 63, 116
1, 27725, Note_on_c, 0, 62, 113
1, 27810, Note_off_c, 0, 62, 113
1, 27826, Note_on_c, 0, 65, 120
1, 27898, Note_off_c, 0, 65, 120
1, 27911, Note_on_c, 0, 69, 122
1, 28005, Note_off_c, 0, 69, 122
1, 28027, Note_on_c, 0, 72, 121
1, 28099, Note_off_c, 0, 72, 121
1, 28123, Note_on_c, 0, 70, 119
1, 28206, Note_off_c, 0, 70, 119
1, 28224, Note_on_c, 0, 74, 122
1, 28301, Note_off_c, 0, 74, 122
1, 28309, Note_on_c, 0, 72, 119
1, 28392, Note_off_c, 0, 72, 119
1, 28415, Note_on_c, 0, 70, 120
1, 28494, Note_off_c, 0, 70, 120
1, 28504, Note_on_c, 0, 69, 120
1, 28587, Note_off_c, 0, 69, 120
1, 28612, Note_on_c, 0, 67, 116
1, 28684, Note_off_c, 0, 67, 116
1, 28714, Note_on_c, 0, 66, 115
1, 28776, Note_off_c, 0, 66, 115
1, 28789, Note_on_c, 0, 69, 120
1, 28876, Note_off_c, 0, 69, 120
1, 28897, Note_on_c, 0, 67, 112
1, 28970, Note_off_c, 0, 67, 112
1, 28990, Note_on_c, 0, 67, 117
1, 29051, Note_off_c, 0, 67, 117
1, 29057, Note_on_c, 0, 69, 118
1, 29162, Note_off_c, 0, 69, 118
1, 29175, Note_on_c, 0, 69, 119
1, 29262, Note_off_c, 0, 69, 119
1, 29281, Note_on_c, 0, 70, 120
1, 29363, Note_off_c, 0, 70, 120
1, 29383, Note_on_c, 0, 70, 121
1, 29440, Note_off_c, 0, 70, 121
1, 29454, Note_on_c, 0, 72, 119
1, 29545, Note_off_c, 0, 72, 119
1, 29622, Note_on_c, 0, 74, 120
1, 30371, Note_off_c, 0, 74, 120
1, 30403, Note_on_c, 0, 73, 117
1, 30465, Note_off_c, 0, 73, 117
1, 30482, Note_on_c, 0, 72, 116
1, 30767, Note_off_c, 0, 72, 116
1, 30811, Note_on_c, 0, 72, 120
1, 30875, Note_off_c, 0, 72, 120
1, 30909, Note_on_c, 0, 70, 116
1, 31085, Note_off_c, 0, 70, 116
1, 31152, Note_on_c, 0, 70, 115
1, 31264, Note_off_c, 0, 70, 115
1, 31295, Note_on_c, 0, 72, 116
1, 31458, Note_off_c, 0, 72, 116
1, 31564, Note_on_c, 0, 72, 119
1, 31742, Note_off_c, 0, 72, 119
1, 31757, Note_on_c, 0, 67, 112
1, 31830, Note_off_c, 0, 67, 112
1, 31926, Note_on_c, 0, 67, 112
1, 32239, Note_off_c, 0, 67, 112
1, 32286, Note_on_c, 0, 63, 118
1, 32389, Note_off_c, 0, 63, 118
1, 32457, Note_on_c, 0, 60, 110
1, 32568, Note_off_c, 0, 60, 110
1, 32591, Note_on_c, 0, 56, 113
1, 32831, Note_off_c, 0, 56, 113
1, 32853, Note_on_c, 0, 60, 114
1, 32914, Note_off_c, 0, 60, 114
1, 32924, Note_on_c, 0, 63, 118
1, 32986, Note_off_c, 0, 63, 118
1, 32998, Note_on_c, 0, 67, 117
1, 33060, Note_off_c, 0, 67, 117
1, 33085, Note_on_c, 0, 65, 121
1, 33146, Note_off_c, 0, 65, 121
1, 33168, Note_on_c, 0, 63, 114
1, 33250, Note_off_c, 0, 63, 114
1, 33262, Note_on_c, 0, 62, 116
1, 33344, Note_off_c, 0, 62, 116
1, 33354, Note_on_c, 0, 60, 110
1, 33430, Note_off_c, 0, 60, 110
1, 33446, Note_on_c, 0, 58, 119
1, 33519, Note_off_c, 0, 58, 119
1, 33540, Note_on_c, 0, 56, 113
1, 33606, Note_off_c, 0, 56, 113
1, 33613, Note_on_c, 0, 53, 105
1, 33709, Note_off_c, 0, 53, 105
1, 33733, Note_on_c, 0, 54, 112
1, 33808, Note_off_c, 0, 54, 112
1, 33824, Note_on_c, 0, 55, 116
1, 33896, Note_off_c, 0, 55, 116
1, 33908, Note_on_c, 0, 56, 118
1, 33977, Note_off_c, 0, 56, 118
1, 34005, Note_on_c, 0, 58, 117
1, 34073, Note_off_c, 0, 58, 117
1, 34105, Note_on_c, 0, 60, 118
1, 34167, Note_off_c, 0, 60, 118
1, 34205, Note_on_c, 0, 62, 118
1, 34263, Note_off_c, 0, 62, 118
1, 34273, Note_on_c, 0, 65, 120
1, 34341, Note_off_c, 0, 65, 120
1, 34365, Note_on_c, 0, 63, 117
1, 34429, Note_off_c, 0, 63, 117
1, 34453, Note_on_c, 0, 62, 119
1, 34536, Note_off_c, 0, 62, 119
1, 34565, Note_on_c, 0, 63, 120
1, 34633, Note_off_c, 0, 63, 120
1, 34654, Note_on_c, 0, 67, 117
1, 34750, Note_off_c, 0, 67, 117
1, 35463, Note_on_c, 0, 66, 119
1, 35527, Note_off_c, 0, 66, 119
1, 35566, Note_on_c, 0, 67, 121
1, 35653, Note_off_c, 0, 67, 121
1, 35667, Note_on_c, 0, 69, 120
1, 35753, Note_off_c, 0, 69, 120
1, 35765, Note_on_c, 0, 70, 122
1, 35836, Note_off_c, 0, 70, 122
1, 35848, Note_on_c, 0, 72, 118
1, 35914, Note_off_c, 0, 72, 118
1, 35937, Note_on_c, 0, 74, 121
1, 36020, Note_off_c, 0, 74, 121
1, 36044, Note_on_c, 0, 75, 123
1, 36129, Note_off_c, 0, 75, 123
1, 36158, Note_on_c, 0, 72, 119
1, 36208, Note_off_c, 0, 72, 119
1, 36227, Note_on_c, 0, 69, 119
1, 36317, Note_off_c, 0, 69, 119
1, 36328, Note_on_c, 0, 70, 113
1, 36354, Note_off_c, 0, 70, 113
1, 36362, Note_on_c, 0, 67, 120
1, 36419, Note_off_c, 0, 67, 120
1, 36432, Note_on_c, 0, 66, 117
1, 36493, Note_off_c, 0, 66, 117
1, 36523, Note_on_c, 0, 69, 121
1, 36594, Note_off_c, 0, 69, 121
1, 36613, Note_on_c, 0, 72, 119
1, 36692, Note_off_c, 0, 72, 119
1, 36700, Note_on_c, 0, 75, 125
1, 36794, Note_off_c, 0, 75, 125
1, 36799, Note_on_c, 0, 74, 122
1, 36886, Note_off_c, 0, 74, 122
1, 36904, Note_on_c, 0, 70, 120
1, 36976, Note_off_c, 0, 70, 120
1, 36984, Note_on_c, 0, 69, 113
1, 37073, Note_off_c, 0, 69, 113
1, 37082, Note_on_c, 0, 72, 118
1, 37167, Note_off_c, 0, 72, 118
1, 37182, Note_on_c, 0, 70, 119
1, 37275, Note_off_c, 0, 70, 119
1, 37289, Note_on_c, 0, 69, 120
1, 37320, Note_off_c, 0, 69, 120
1, 37322, Note_on_c, 0, 67, 105
1, 37363, Note_off_c, 0, 67, 105
1, 37369, Note_on_c, 0, 66, 114
1, 37441, Note_off_c, 0, 66, 114
1, 37461, Note_on_c, 0, 69, 121
1, 37540, Note_off_c, 0, 69, 121
1, 37557, Note_on_c, 0, 67, 113
1, 37646, Note_off_c, 0, 67, 113
1, 37666, Note_on_c, 0, 69, 120
1, 37748, Note_off_c, 0, 69, 120
1, 37760, Note_on_c, 0, 70, 120
1, 37817, Note_off_c, 0, 70, 120
1, 37848, Note_on_c, 0, 72, 121
1, 37922, Note_off_c, 0, 72, 121
1, 37939, Note_on_c, 0, 74, 120
1, 38019, Note_off_c, 0, 74, 120
1, 38039, Note_on_c, 0, 77, 124
1, 38125, Note_off_c, 0, 77, 124
1, 38130, Note_on_c, 0, 76, 123
1, 38213, Note_off_c, 0, 76, 123
1, 38231, Note_on_c, 0, 76, 119
1, 38251, Note_off_c, 0, 76, 119
1, 38259, Note_on_c, 0, 74, 121
1, 38323, Note_off_c, 0, 74, 121
1, 38338, Note_on_c, 0, 73, 118
1, 38408, Note_off_c, 0, 73, 118
1, 38822, Note_on_c, 0, 74, 124
1, 38900, Note_off_c, 0, 74, 124
1, 38912, Note_on_c, 0, 76, 120
1, 38996, Note_off_c, 0, 76, 120
1, 39010, Note_on_c, 0, 78, 116
1, 39091, Note_off_c, 0, 78, 116
1, 39825, Note_on_c, 0, 79, 118
1, 39960, Note_off_c, 0, 79, 118
1, 40024, Note_on_c, 0, 79, 120
1, 40132, Note_off_c, 0, 79, 120
1, 40161, Note_on_c, 0, 78, 121
1, 40258, Note_off_c, 0, 78, 121
1, 40323, Note_on_c, 0, 78, 116
1, 40413, Note_off_c, 0, 78, 116
1, 40433, Note_on_c, 0, 72, 117
1, 40864, Note_off_c, 0, 72, 117
1, 40896, Note_on_c, 0, 75, 121
1, 40980, Note_off_c, 0, 75, 121
1, 41000, Note_on_c, 0, 74, 115
1, 41110, Note_off_c, 0, 74, 115
1, 41168, Note_on_c, 0, 77, 115
1, 41257, Note_off_c, 0, 77, 115
1, 41273, Note_on_c, 0, 81, 111
1, 41381, Note_off_c, 0, 81, 111
1, 41422, Note_on_c, 0, 73, 109
1, 41520, Note_off_c, 0, 73, 109
1, 41563, Note_on_c, 0, 73, 121
1, 41706, Note_off_c, 0, 73, 121
1, 41758, Note_on_c, 0, 72, 118
1, 41987, Note_off_c, 0, 72, 118
1, 42034, Note_on_c, 0, 70, 98
1, 42086, Note_off_c, 0, 70, 98
1, 42105, Note_on_c, 0, 72, 119
1, 42232, Note_off_c, 0, 72, 119
1, 42246, Note_on_c, 0, 74, 109
1, 42323, Note_off_c, 0, 74, 109
1, 42414, Note_on_c, 0, 70, 118
1, 42556, Note_off_c, 0, 70, 118
1, 42784, Note_on_c, 0, 67, 10
1, 43073, Note_off_c, 0, 67, 10
1, 44145, Note_on_c, 0, 75, 122
1, 44240, Note_off_c, 0, 75, 122
1, 44294, Note_on_c, 0, 72, 120
1, 44382, Note_off_c, 0, 72, 120
1, 44420, Note_on_c, 0, 68, 117
1, 44514, Note_off_c, 0, 68, 117
1, 44702, Note_on_c, 0, 69, 117
1, 44723, Note_off_c, 0, 69, 117
1, 44728, Note_on_c, 0, 65, 123
1, 44787, Note_off_c, 0, 65, 123
1, 44796, Note_on_c, 0, 64, 122
1, 44897, Note_off_c, 0, 64, 122
1, 44909, Note_on_c, 0, 62, 106
1, 44962, Note_off_c, 0, 62, 106
1, 44989, Note_on_c, 0, 63, 118
1, 45080, Note_off_c, 0, 63, 118
1, 45534, Note_on_c, 0, 62, 122
1, 45625, Note_off_c, 0, 62, 122
1, 45652, Note_on_c, 0, 65, 123
1, 45722, Note_off_c, 0, 65, 123
1, 45733, Note_on_c, 0, 68, 120
1, 45813, Note_off_c, 0, 68, 120
1, 45837, Note_on_c, 0, 72, 123
1, 45931, Note_off_c, 0, 72, 123
1, 45944, Note_on_c, 0, 70, 121
1, 46024, Note_off_c, 0, 70, 121
1, 46044, Note_on_c, 0, 70, 113
1, 46063, Note_off_c, 0, 70, 113
1, 46066, Note_on_c, 0, 67, 115
1, 46115, Note_off_c, 0, 67, 115
1, 46147, Note_on_c, 0, 65, 121
1, 46201, Note_off_c, 0, 65, 121
1, 46233, Note_on_c, 0, 63, 119
1, 46306, Note_off_c, 0, 63, 119
1, 46328, Note_on_c, 0, 62, 112
1, 46403, Note_off_c, 0, 62, 112
1, 46413, Note_on_c, 0, 65, 123
1, 46487, Note_off_c, 0, 65, 123
1, 46500, Note_on_c, 0, 63, 115
1, 46583, Note_off_c, 0, 63, 115
1, 46619, Note_on_c, 0, 62, 119
1, 46688, Note_off_c, 0, 62, 119
1, 46694, Note_on_c, 0, 63, 117
1, 46780, Note_off_c, 0, 63, 117
1, 46794, Note_on_c, 0, 67, 121
1, 46863, Note_off_c, 0, 67, 121
1, 46895, Note_on_c, 0, 64, 116
1, 46956, Note_off_c, 0, 64, 116
1, 46997, Note_on_c, 0, 63, 125
1, 47053, Note_off_c, 0, 63, 125
1, 47066, Note_on_c, 0, 64, 118
1, 47156, Note_off_c, 0, 64, 118
1, 47174, Note_on_c, 0, 67, 118
1, 47238, Note_off_c, 0, 67, 118
1, 47264, Note_on_c, 0, 65, 117
1, 47342, Note_off_c, 0, 65, 117
1, 47381, Note_on_c, 0, 64, 119
1, 47427, Note_off_c, 0, 64, 119
1, 47440, Note_on_c, 0, 65, 116
1, 47529, Note_off_c, 0, 65, 116
1, 47560, Note_on_c, 0, 69, 122
1, 47611, Note_off_c, 0, 69, 122
1, 47627, Note_on_c, 0, 67, 119
1, 47710, Note_off_c, 0, 67, 119
1, 47733, Note_on_c, 0, 66, 120
1, 47801, Note_off_c, 0, 66, 120
1, 47818, Note_on_c, 0, 67, 118
1, 47909, Note_off_c, 0, 67, 118
1, 47919, Note_on_c, 0, 70, 122
1, 47997, Note_off_c, 0, 70, 122
1, 48013, Note_on_c, 0, 69, 120
1, 48093, Note_off_c, 0, 69, 120
1, 48128, Note_on_c, 0, 68, 120
1, 48195, Note_off_c, 0, 68, 120
1, 48207, Note_on_c, 0, 69, 120
1, 48280, Note_off_c, 0, 69, 120
1, 48289, Note_on_c, 0, 72, 124
1, 48363, Note_off_c, 0, 72, 124
1, 48387, Note_on_c, 0, 70, 121
1, 48459, Note_off_c, 0, 70, 121
1, 48476, Note_on_c, 0, 69, 120
1, 48559, Note_off_c, 0, 69, 120
1, 48568, Note_on_c, 0, 70, 122
1, 48641, Note_off_c, 0, 70, 122
1, 48661, Note_on_c, 0, 72, 123
1, 48737, Note_off_c, 0, 72, 123
1, 48745, Note_on_c, 0, 74, 123
1, 48829, Note_off_c, 0, 74, 123
1, 48856, Note_on_c, 0, 75, 121
1, 48927, Note_off_c, 0, 75, 121
1, 48935, Note_on_c, 0, 74, 118
1, 49006, Note_off_c, 0, 74, 118
1, 49021, Note_on_c, 0, 72, 120
1, 49105, Note_off_c, 0, 72, 120
1, 49116, Note_on_c, 0, 70, 120
1, 49188, Note_off_c, 0, 70, 120
1, 49238, Note_on_c, 0, 69, 107
1, 49270, Note_off_c, 0, 69, 107
1, 49302, Note_on_c, 0, 72, 121
1, 49391, Note_off_c, 0, 72, 121
1, 49416, Note_on_c, 0, 69, 121
1, 49482, Note_off_c, 0, 69, 121
1, 49491, Note_on_c, 0, 70, 122
1, 49556, Note_off_c, 0, 70, 122
1, 49580, Note_on_c, 0, 72, 125
1, 49647, Note_off_c, 0, 72, 125
1, 49682, Note_on_c, 0, 74, 123
1, 49758, Note_off_c, 0, 74, 123
1, 49789, Note_on_c, 0, 70, 117
1, 49841, Note_off_c, 0, 70, 117
1, 49860, Note_on_c, 0, 67, 115
1, 49930, Note_off_c, 0, 67, 115
1, 49966, Note_on_c, 0, 63, 113
1, 49988, Note_off_c, 0, 63, 113
1, 49998, Note_on_c, 0, 64, 116
1, 50030, Note_off_c, 0, 64, 116
1, 50039, Note_on_c, 0, 65, 119
1, 50101, Note_off_c, 0, 65, 119
1, 50125, Note_on_c, 0, 62, 117
1, 50189, Note_off_c, 0, 62, 117
1, 50204, Note_on_c, 0, 64, 118
1, 50281, Note_off_c, 0, 64, 118
1, 50301, Note_on_c, 0, 67, 127
1, 50357, Note_off_c, 0, 67, 127
1, 50380, Note_on_c, 0, 70, 120
1, 50469, Note_off_c, 0, 70, 120
1, 50493, Note_on_c, 0, 74, 122
1, 50568, Note_off_c, 0, 74, 122
1, 50592, Note_on_c, 0, 72, 120
1, 50650, Note_off_c, 0, 72, 120
1, 50681, Note_on_c, 0, 70, 116
1, 50740, Note_off_c, 0, 70, 116
1, 50765, Note_on_c, 0, 69, 116
1, 50808, Note_off_c, 0, 69, 116
1, 50815, Note_on_c, 0, 70, 121
1, 50848, Note_off_c, 0, 70, 121
1, 50860, Note_on_c, 0, 69, 120
1, 50911, Note_off_c, 0, 69, 120
1, 50926, Note_on_c, 0, 67, 116
1, 51020, Note_off_c, 0, 67, 116
1, 51055, Note_on_c, 0, 65, 117
1, 51123, Note_off_c, 0, 65, 117
1, 51425, Note_on_c, 0, 63, 118
1, 51494, Note_off_c, 0, 63, 118
1, 51505, Note_on_c, 0, 62, 110
1, 51581, Note_off_c, 0, 62, 110
1, 51611, Note_on_c, 0, 65, 118
1, 51665, Note_off_c, 0, 65, 118
1, 51684, Note_on_c, 0, 69, 119
1, 51778, Note_off_c, 0, 69, 119
1, 51862, Note_on_c, 0, 72, 117
1, 52121, Note_off_c, 0, 72, 117
1, 52137, Note_on_c, 0, 70, 113
1, 52202, Note_off_c, 0, 70, 113
1, 52211, Note_on_c, 0, 72, 120
1, 52337, Note_off_c, 0, 72, 120
1, 52355, Note_on_c, 0, 74, 116
1, 52419, Note_off_c, 0, 74, 116
1, 52532, Note_on_c, 0, 70, 121
1, 52677, Note_off_c, 0, 70, 121
1, 52778, Note_on_c, 0, 67, 105
1, 53157, Note_off_c, 0, 67, 105
1, 53164, Note_on_c, 0, 65, 107
1, 53250, Note_off_c, 0, 65, 107
1, 53322, Note_on_c, 0, 67, 106
1, 53580, Note_off_c, 0, 67, 106
1, 53580, End_track
0, 0, End_of_file
