0, 0, Header, 1, 1, 192
1, 0, Start_track
1, 0, Note_on_c, 0, 72, 115
1, 101, Note_off_c, 0, 72, 115
1, 104, Note_on_c, 0, 74, 116
1, 202, Note_off_c, 0, 74, 116
1, 206, Note_on_c, 0, 72, 118
1, 296, Note_off_c, 0, 72, 118
1, 301, Note_on_c, 0, 76, 120
1, 387, Note_off_c, 0, 76, 120
1, 409, Note_on_c, 0, 72, 120
1, 486, Note_off_c, 0, 72, 120
1, 497, Note_on_c, 0, 74, 118
1, 580, Note_off_c, 0, 74, 118
1, 595, Note_on_c, 0, 72, 120
1, 670, Note_off_c, 0, 72, 120
1, 683, Note_on_c, 0, 75, 117
1, 780, Note_off_c, 0, 75, 117
1, 796, Note_on_c, 0, 72, 90
1, 846, Note_off_c, 0, 72, 90
1, 858, Note_on_c, 0, 74, 117
1, 963, Note_off_c, 0, 74, 117
1, 974, Note_on_c, 0, 72, 121
1, 1055, Note_off_c, 0, 72, 121
1, 1065, Note_on_c, 0, 70, 118
1, 1148, Note_off_c, 0, 70, 118
1, 1166, Note_on_c, 0, 65, 97
1, 1227, Note_off_c, 0, 65, 97
1, 1242, Note_on_c, 0, 62, 95
1, 1345, Note_off_c, 0, 62, 95
1, 1349, Note_on_c, 0, 64, 82
1, 1408, Note_off_c, 0, 64, 82
1, 1427, Note_on_c, 0, 68, 112
1, 1542, Note_off_c, 0, 68, 112
1, 1548, Note_on_c, 0, 69, 114
1, 1601, Note_off_c, 0, 69, 114
1, 1614, Note_on_c, 0, 68, 112
1, 1687, Note_off_c, 0, 68, 112
1, 1698, Note_on_c, 0, 69, 105
1, 1743, Note_off_c, 0, 69, 105
1, 1750, Note_on_c, 0, 68, 114
1, 1819, Note_off_c, 0, 68, 114
1, 1828, Note_on_c, 0, 67, 114
1, 1928, Note_off_c, 0, 67, 114
1, 1935, Note_on_c, 0, 65, 114
1, 2020, Note_off_c, 0, 65, 114
1, 2036, Note_on_c, 0, 62, 83
1, 2119, Note_off_c, 0, 62, 83
1, 2145, Note_on_c, 0, 60, 71
1, 2181, Note_off_c, 0, 60, 71
1, 2213, Note_on_c, 0, 65, 110
1, 2365, Note_off_c, 0, 65, 110
1, 2396, Note_on_c, 0, 68, 111
1, 2524, Note_off_c, 0, 68, 111
1, 2542, Note_on_c, 0, 69, 115
1, 2640, Title_t, "Melody"
1, 2640, Tempo, 355029
1, 2640, Key_signature, -1, "major"
1, 2640, Time_signature, 4, 2, 24, 8
1, 2646, Note_off_c, 0, 69, 115
1, 2708, Note_on_c, 0, 68, 112
1, 2806, Note_off_c, 0, 68, 112
1, 2812, Note_on_c, 0, 69, 113
1, 2910, Note_off_c, 0, 69, 113
1, 2918, Note_on_c, 0, 60, 82
1, 3140, Note_off_c, 0, 60, 82
1, 3329, Note_on_c, 0, 62, 98
1, 3394, Note_off_c, 0, 62, 98
1, 3401, Note_on_c, 0, 60, 82
1, 3567, Note_off_c, 0, 60, 82
1, 3598, Note_on_c, 0, 62, 103
1, 3704, Note_off_c, 0, 62, 103
1, 3798, Note_on_c, 0, 65, 108
1, 3898, Note_off_c, 0, 65, 108
1, 3992, Note_on_c, 0, 67, 107
1, 4101, Note_off_c, 0, 67, 107
1, 4193, Note_on_c, 0, 69, 103
1, 4379, Note_off_c, 0, 69, 103
1, 4383, Note_on_c, 0, 72, 112
1, 4496, Note_off_c, 0, 72, 112
1, 4518, Note_on_c, 0, 67, 92
1, 4794, Note_off_c, 0, 67, 92
1, 4801, Note_on_c, 0, 65, 91
1, 4887, Note_off_c, 0, 65, 91
1, 4915, Note_on_c, 0, 67, 84
1, 5207, Note_off_c, 0, 67, 84
1, 5957, Note_on_c, 0, 67, 107
1, 5999, Note_off_c, 0, 67, 107
1, 6015, Note_on_c, 0, 69, 102
1, 6058, Note_off_c, 0, 69, 102
1, 6074, Note_on_c, 0, 72, 112
1, 6121, Note_off_c, 0, 72, 112
1, 6130, Note_on_c, 0, 69, 112
1, 6224, Note_off_c, 0, 69, 112
1, 6457, Note_on_c, 0, 67, 113
1, 6523, Note_off_c, 0, 67, 113
1, 6533, Note_on_c, 0, 65, 83
1, 6664, Note_off_c, 0, 65, 83
1, 7038, Note_on_c, 0, 67, 106
1, 7100, Note_off_c, 0, 67, 106
1, 7126, Note_on_c, 0, 69, 116
1, 7196, Note_off_c, 0, 69, 116
1, 7220, Note_on_c, 0, 72, 122
1, 7304, Note_off_c, 0, 72, 122
1, 7320, Note_on_c, 0, 74, 127
1, 7426, Note_off_c, 0, 74, 127
1, 7493, Note_on_c, 0, 77, 122
1, 7901, Note_off_c, 0, 77, 122
1, 7906, Note_on_c, 0, 75, 91
1, 7960, Note_off_c, 0, 75, 91
1, 8003, Note_on_c, 0, 79, 108
1, 8252, Note_off_c, 0, 79, 108
1, 8289, Note_on_c, 0, 77, 123
1, 8389, Note_off_c, 0, 77, 123
1, 8417, Note_on_c, 0, 75, 123
1, 8515, Note_off_c, 0, 75, 123
1, 8607, Note_on_c, 0, 71, 89
1, 8643, Note_off_c, 0, 71, 89
1, 8672, Note_on_c, 0, 71, 112
1, 8737, Note_off_c, 0, 71, 112
1, 8765, Note_on_c, 0, 74, 125
1, 8838, Note_off_c, 0, 74, 125
1, 8854, Note_on_c, 0, 73, 121
1, 8927, Note_off_c, 0, 73, 121
1, 8932, Note_on_c, 0, 74, 116
1, 8963, Note_off_c, 0, 74, 116
1, 8972, Note_on_c, 0, 73, 116
1, 9024, Note_off_c, 0, 73, 116
1, 9036, Note_on_c, 0, 69, 104
1, 9125, Note_off_c, 0, 69, 104
1, 9143, Note_on_c, 0, 72, 118
1, 9246, Note_off_c, 0, 72, 118
1, 9252, Note_on_c, 0, 71, 110
1, 9353, Note_off_c, 0, 71, 110
1, 9358, Note_on_c, 0, 72, 115
1, 9421, Note_off_c, 0, 72, 115
1, 9427, Note_on_c, 0, 74, 123
1, 9521, Note_off_c, 0, 74, 123
1, 9549, Note_on_c, 0, 65, 93
1, 9786, Note_off_c, 0, 65, 93
1, 9804, Note_on_c, 0, 65, 104
1, 9925, Note_off_c, 0, 65, 104
1, 10287, Note_on_c, 0, 75, 124
1, 10370, Note_off_c, 0, 75, 124
1, 10375, Note_on_c, 0, 73, 123
1, 10480, Note_off_c, 0, 73, 123
1, 10504, Note_on_c, 0, 65, 77
1, 10536, Note_off_c, 0, 65, 77
1, 10580, Note_on_c, 0, 68, 104
1, 10661, Note_off_c, 0, 68, 104
1, 10682, Note_on_c, 0, 72, 118
1, 10754, Note_off_c, 0, 72, 118
1, 10772, Note_on_c, 0, 70, 106
1, 10883, Note_off_c, 0, 70, 106
1, 11063, Note_on_c, 0, 72, 122
1, 11138, Note_off_c, 0, 72, 122
1, 11167, Note_on_c, 0, 69, 102
1, 11237, Note_off_c, 0, 69, 102
1, 11247, Note_on_c, 0, 70, 102
1, 11272, Note_off_c, 0, 70, 102
1, 11282, Note_on_c, 0, 69, 112
1, 11327, Note_off_c, 0, 69, 112
1, 11334, Note_on_c, 0, 67, 105
1, 11409, Note_off_c, 0, 67, 105
1, 11441, Note_on_c, 0, 65, 109
1, 11495, Note_off_c, 0, 65, 109
1, 11527, Note_on_c, 0, 64, 103
1, 11586, Note_off_c, 0, 64, 103
1, 11619, Note_on_c, 0, 62, 104
1, 11681, Note_off_c, 0, 62, 104
1, 11702, Note_on_c, 0, 61, 80
1, 11769, Note_off_c, 0, 61, 80
1, 11845, Note_on_c, 0, 65, 61
1, 11876, Note_off_c, 0, 65, 61
1, 11907, Note_on_c, 0, 69, 114
1, 11998, Note_off_c, 0, 69, 114
1, 12000, Note_on_c, 0, 70, 113
1, 12084, Note_off_c, 0, 70, 113
1, 12096, Note_on_c, 0, 69, 111
1, 12180, Note_off_c, 0, 69, 111
1, 12200, Note_on_c, 0, 67, 110
1, 12269, Note_off_c, 0, 67, 110
1, 12290, Note_on_c, 0, 65, 109
1, 12377, Note_off_c, 0, 65, 109
1, 12418, Note_on_c, 0, 62, 105
1, 12498, Note_off_c, 0, 62, 105
1, 12664, Note_on_c, 0, 62, 86
1, 12967, Note_off_c, 0, 62, 86
1, 12975, Note_on_c, 0, 62, 101
1, 13096, Note_off_c, 0, 62, 101
1, 13533, Note_on_c, 0, 62, 99
1, 13603, Note_off_c, 0, 62, 99
1, 13617, Note_on_c, 0, 64, 92
1, 13684, Note_off_c, 0, 64, 92
1, 13716, Note_on_c, 0, 65, 110
1, 13770, Note_off_c, 0, 65, 110
1, 13797, Note_on_c, 0, 69, 115
1, 13894, Note_off_c, 0, 69, 115
1, 13978, Note_on_c, 0, 69, 108
1, 14070, Note_off_c, 0, 69, 108
1, 14155, Note_on_c, 0, 69, 111
1, 14271, Note_off_c, 0, 69, 111
1, 14277, Note_on_c, 0, 68, 90
1, 14342, Note_off_c, 0, 68, 90
1, 14365, Note_on_c, 0, 65, 100
1, 14457, Note_off_c, 0, 65, 100
1, 14480, Note_on_c, 0, 67, 87
1, 14792, Note_off_c, 0, 67, 87
1, 15654, Note_on_c, 0, 60, 97
1, 15690, Note_off_c, 0, 60, 97
1, 15724, Note_on_c, 0, 62, 103
1, 15808, Note_off_c, 0, 62, 103
1, 15828, Note_on_c, 0, 64, 107
1, 15887, Note_off_c, 0, 64, 107
1, 15910, Note_on_c, 0, 65, 106
1, 16018, Note_off_c, 0, 65, 106
1, 16105, Note_on_c, 0, 64, 108
1, 16196, Note_off_c, 0, 64, 108
1, 16228, Note_on_c, 0, 62, 104
1, 16276, Note_off_c, 0, 62, 104
1, 16299, Note_on_c, 0, 60, 87
1, 16399, Note_off_c, 0, 60, 87
1, 16496, Note_on_c, 0, 62, 103
1, 16605, Note_off_c, 0, 62, 103
1, 16694, Note_on_c, 0, 62, 102
1, 16783, Note_off_c, 0, 62, 102
1, 16810, Note_on_c, 0, 62, 88
1, 17131, Note_off_c, 0, 62, 88
1, 17210, Note_on_c, 0, 62, 96
1, 17516, Note_off_c, 0, 62, 96
1, 17542, Note_on_c, 0, 64, 96
1, 17589, Note_off_c, 0, 64, 96
1, 17592, Note_on_c, 0, 65, 101
1, 17631, Note_off_c, 0, 65, 101
1, 17640, Note_on_c, 0, 64, 98
1, 17735, Note_off_c, 0, 64, 98
1, 17744, Note_on_c, 0, 65, 102
1, 17773, Note_off_c, 0, 65, 102
1, 17785, Note_on_c, 0, 64, 107
1, 17825, Note_off_c, 0, 64, 107
1, 17841, Note_on_c, 0, 62, 100
1, 17933, Note_off_c, 0, 62, 100
1, 17955, Note_on_c, 0, 64, 110
1, 18002, Note_off_c, 0, 64, 110
1, 18020, Note_on_c, 0, 61, 92
1, 18122, Note_off_c, 0, 61, 92
1, 18157, Note_on_c, 0, 64, 91
1, 18199, Note_off_c, 0, 64, 91
1, 18215, Note_on_c, 0, 67, 105
1, 18323, Note_off_c, 0, 67, 105
1, 18346, Note_on_c, 0, 69, 107
1, 18410, Note_off_c, 0, 69, 107
1, 18411, Note_on_c, 0, 70, 113
1, 18892, Note_off_c, 0, 70, 113
1, 18967, Note_on_c, 0, 69, 109
1, 19058, Note_off_c, 0, 69, 109
1, 19112, Note_on_c, 0, 70, 116
1, 19204, Note_off_c, 0, 70, 116
1, 19234, Note_on_c, 0, 69, 111
1, 19347, Note_off_c, 0, 69, 111
1, 19353, Note_on_c, 0, 60, 80
1, 19594, Note_off_c, 0, 60, 80
1, 19637, Note_on_c, 0, 62, 100
1, 19746, Note_off_c, 0, 62, 100
1, 19986, Note_on_c, 0, 69, 110
1, 20083, Note_off_c, 0, 69, 110
1, 20150, Note_on_c, 0, 68, 111
1, 20277, Note_off_c, 0, 68, 111
1, 20289, Note_on_c, 0, 67, 107
1, 20524, Note_off_c, 0, 67, 107
1, 21414, Note_on_c, 0, 67, 112
1, 21484, Note_off_c, 0, 67, 112
1, 21521, Note_on_c, 0, 65, 94
1, 21586, Note_off_c, 0, 65, 94
1, 21605, Note_on_c, 0, 67, 111
1, 21661, Note_off_c, 0, 67, 111
1, 21671, Note_on_c, 0, 65, 102
1, 21799, Note_off_c, 0, 65, 102
1, 21875, Note_on_c, 0, 67, 109
1, 21977, Note_off_c, 0, 67, 109
1, 21992, Note_on_c, 0, 65, 96
1, 22040, Note_off_c, 0, 65, 96
1, 22091, Note_on_c, 0, 67, 108
1, 22171, Note_off_c, 0, 67, 108
1, 22276, Note_on_c, 0, 65, 111
1, 22368, Note_off_c, 0, 65, 111
1, 22394, Note_on_c, 0, 67, 110
1, 22434, Note_off_c, 0, 67, 110
1, 22466, Note_on_c, 0, 65, 101
1, 22579, Note_off_c, 0, 65, 101
1, 22641, Note_on_c, 0, 68, 111
1, 22749, Note_off_c, 0, 68, 111
1, 22767, Note_on_c, 0, 65, 89
1, 22812, Note_off_c, 0, 65, 89
1, 22850, Note_on_c, 0, 68, 110
1, 22948, Note_off_c, 0, 68, 110
1, 22957, Note_on_c, 0, 65, 91
1, 23283, Note_off_c, 0, 65, 91
1, 23354, Note_on_c, 0, 67, 104
1, 23507, Note_off_c, 0, 67, 104
1, 23530, Note_on_c, 0, 65, 103
1, 23592, Note_off_c, 0, 65, 103
1, 23610, Note_on_c, 0, 67, 105
1, 23726, Note_off_c, 0, 67, 105
1, 23745, Note_on_c, 0, 65, 105
1, 23792, Note_off_c, 0, 65, 105
1, 23909, Note_on_c, 0, 67, 109
1, 23957, Note_off_c, 0, 67, 109
1, 23970, Note_on_c, 0, 65, 108
1, 24086, Note_off_c, 0, 65, 108
1, 24116, Note_on_c, 0, 76, 121
1, 24305, Note_off_c, 0, 76, 121
1, 24328, Note_on_c, 0, 74, 97
1, 24359, Note_off_c, 0, 74, 97
1, 24383, Note_on_c, 0, 76, 120
1, 24496, Note_off_c, 0, 76, 120
1, 24504, Note_on_c, 0, 74, 115
1, 24805, Note_off_c, 0, 74, 115
1, 24889, Note_on_c, 0, 79, 111
1, 24980, Note_off_c, 0, 79, 111
1, 25072, Note_on_c, 0, 76, 118
1, 25171, Note_off_c, 0, 76, 118
1, 25264, Note_on_c, 0, 74, 120
1, 25339, Note_off_c, 0, 74, 120
1, 25358, Note_on_c, 0, 72, 108
1, 25430, Note_off_c, 0, 72, 108
1, 25457, Note_on_c, 0, 74, 118
1, 25527, Note_off_c, 0, 74, 118
1, 25545, Note_on_c, 0, 76, 120
1, 25634, Note_off_c, 0, 76, 120
1, 25649, Note_on_c, 0, 77, 113
1, 25718, Note_off_c, 0, 77, 113
1, 25728, Note_on_c, 0, 76, 118
1, 25819, Note_off_c, 0, 76, 118
1, 25826, Note_on_c, 0, 77, 88
1, 25851, Note_off_c, 0, 77, 88
1, 25854, Note_on_c, 0, 76, 117
1, 25901, Note_off_c, 0, 76, 117
1, 25924, Note_on_c, 0, 74, 114
1, 26008, Note_off_c, 0, 74, 114
1, 26020, Note_on_c, 0, 73, 116
1, 26095, Note_off_c, 0, 73, 116
1, 26107, Note_on_c, 0, 72, 114
1, 26213, Note_off_c, 0, 72, 114
1, 26242, Note_on_c, 0, 62, 84
1, 26271, Note_off_c, 0, 62, 84
1, 26322, Note_on_c, 0, 65, 93
1, 26398, Note_off_c, 0, 65, 93
1, 26412, Note_on_c, 0, 70, 117
1, 26471, Note_off_c, 0, 70, 117
1, 26494, Note_on_c, 0, 67, 89
1, 26586, Note_off_c, 0, 67, 89
1, 26616, Note_on_c, 0, 68, 89
1, 26669, Note_off_c, 0, 68, 89
1, 26684, Note_on_c, 0, 69, 109
1, 26771, Note_off_c, 0, 69, 109
1, 26802, Note_on_c, 0, 67, 107
1, 26852, Note_off_c, 0, 67, 107
1, 26873, Note_on_c, 0, 65, 103
1, 26959, Note_off_c, 0, 65, 103
1, 27011, Note_on_c, 0, 62, 90
1, 27243, Note_off_c, 0, 62, 90
1, 27255, Note_on_c, 0, 62, 95
1, 27368, Note_off_c, 0, 62, 95
1, 27823, Note_on_c, 0, 65, 110
1, 27906, Note_off_c, 0, 65, 110
1, 28014, Note_on_c, 0, 68, 104
1, 28086, Note_off_c, 0, 68, 104
1, 28090, Note_on_c, 0, 69, 104
1, 28375, Note_off_c, 0, 69, 104
1, 28420, Note_on_c, 0, 69, 107
1, 28660, Note_off_c, 0, 69, 107
1, 28709, Note_on_c, 0, 67, 106
1, 28778, Note_off_c, 0, 67, 106
1, 28795, Note_on_c, 0, 65, 107
1, 28906, Note_off_c, 0, 65, 107
1, 28920, Note_on_c, 0, 62, 95
1, 29017, Note_off_c, 0, 62, 95
1, 29305, Note_on_c, 0, 65, 112
1, 29399, Note_off_c, 0, 65, 112
1, 29534, Note_on_c, 0, 72, 87
1, 29896, Note_off_c, 0, 72, 87
1, 29925, Note_on_c, 0, 72, 102
1, 30177, Note_off_c, 0, 72, 102
1, 30213, Note_on_c, 0, 69, 106
1, 30492, Note_off_c, 0, 69, 106
1, 30492, End_track
0, 0, End_of_file
