0, 0, Header, 1, 1, 192
1, 0, Start_track
1, 0, Title_t, "Melody"
1, 0, Tempo, 199335
1, 0, Key_signature, 0, "major"
1, 0, Time_signature, 4, 2, 24, 8
1, 5281, Note_on_c, 0, 68, 98
1, 5331, Note_off_c, 0, 68, 98
1, 5340, Note_on_c, 0, 70, 105
1, 5484, Note_off_c, 0, 70, 105
1, 5562, Note_on_c, 0, 63, 109
1, 5706, Note_off_c, 0, 63, 109
1, 6873, Note_on_c, 0, 63, 108
1, 7023, Note_off_c, 0, 63, 108
1, 7056, Note_on_c, 0, 65, 107
1, 7201, Note_off_c, 0, 65, 107
1, 7223, Note_on_c, 0, 66, 99
1, 7359, Note_off_c, 0, 66, 99
1, 7400, Note_on_c, 0, 63, 101
1, 7548, Note_off_c, 0, 63, 101
1, 7612, Note_on_c, 0, 70, 102
1, 7729, Note_off_c, 0, 70, 102
1, 7815, Note_on_c, 0, 68, 100
1, 7929, Note_off_c, 0, 68, 100
1, 7945, Note_on_c, 0, 66, 95
1, 8084, Note_off_c, 0, 66, 95
1, 8101, Note_on_c, 0, 65, 101
1, 8217, Note_off_c, 0, 65, 101
1, 8240, Note_on_c, 0, 63, 107
1, 8404, Note_off_c, 0, 63, 107
1, 8415, Note_on_c, 0, 65, 99
1, 8577, Note_off_c, 0, 65, 99
1, 8586, Note_on_c, 0, 66, 93
1, 8815, Note_off_c, 0, 66, 93
1, 8859, Note_on_c, 0, 68, 102
1, 9017, Note_off_c, 0, 68, 102
1, 9148, Note_on_c, 0, 61, 99
1, 9245, Note_off_c, 0, 61, 99
1, 9343, Note_on_c, 0, 63, 107
1, 9469, Note_off_c, 0, 63, 107
1, 9545, Note_on_c, 0, 61, 97
1, 9638, Note_off_c, 0, 61, 97
1, 9748, Note_on_c, 0, 65, 105
1, 10198, Note_off_c, 0, 65, 105
1, 11180, Note_on_c, 0, 71, 100
1, 11247, Note_off_c, 0, 71, 100
1, 11252, Note_on_c, 0, 73, 100
1, 11432, Note_off_c, 0, 73, 100
1, 11437, Note_on_c, 0, 72, 110
1, 11540, Note_off_c, 0, 72, 110
1, 11587, Note_on_c, 0, 70, 101
1, 11701, Note_off_c, 0, 70, 101
1, 11747, Note_on_c, 0, 69, 101
1, 11824, Note_off_c, 0, 69, 101
1, 11895, Note_on_c, 0, 69, 98
1, 11942, Note_off_c, 0, 69, 98
1, 11950, Note_on_c, 0, 68, 103
1, 12185, Note_off_c, 0, 68, 103
1, 12242, Note_on_c, 0, 66, 99
1, 12325, Note_off_c, 0, 66, 99
1, 12403, Note_on_c, 0, 64, 105
1, 12488, Note_off_c, 0, 64, 105
1, 12533, Note_on_c, 0, 63, 106
1, 12647, Note_off_c, 0, 63, 106
1, 12730, Note_on_c, 0, 62, 108
1, 13010, Note_off_c, 0, 62, 108
1, 13030, Note_on_c, 0, 61, 103
1, 13124, Note_off_c, 0, 61, 103
1, 13174, Note_on_c, 0, 59, 104
1, 13284, Note_off_c, 0, 59, 104
1, 13315, Note_on_c, 0, 58, 94
1, 13415, Note_off_c, 0, 58, 94
1, 13496, Note_on_c, 0, 57, 103
1, 13571, Note_off_c, 0, 57, 103
1, 13646, Note_on_c, 0, 59, 101
1, 13734, Note_off_c, 0, 59, 101
1, 13745, Note_on_c, 0, 61, 97
1, 13813, Note_off_c, 0, 61, 97
1, 13819, Note_on_c, 0, 62, 99
1, 13881, Note_off_c, 0, 62, 99
1, 13899, Note_on_c, 0, 64, 107
1, 14008, Note_off_c, 0, 64, 107
1, 14010, Note_on_c, 0, 62, 110
1, 14099, Note_off_c, 0, 62, 110
1, 14112, Note_on_c, 0, 61, 100
1, 14200, Note_off_c, 0, 61, 100
1, 14225, Note_on_c, 0, 60, 103
1, 14305, Note_off_c, 0, 60, 103
1, 14317, Note_on_c, 0, 59, 101
1, 14405, Note_off_c, 0, 59, 101
1, 14418, Note_on_c, 0, 63, 105
1, 14483, Note_off_c, 0, 63, 105
1, 14491, Note_on_c, 0, 66, 91
1, 14585, Note_off_c, 0, 66, 91
1, 14593, Note_on_c, 0, 69, 95
1, 14674, Note_off_c, 0, 69, 95
1, 14684, Note_on_c, 0, 68, 93
1, 14784, Note_off_c, 0, 68, 93
1, 14795, Note_on_c, 0, 66, 95
1, 14889, Note_off_c, 0, 66, 95
1, 14892, Note_on_c, 0, 65, 91
1, 14985, Note_off_c, 0, 65, 91
1, 14994, Note_on_c, 0, 63, 102
1, 15093, Note_off_c, 0, 63, 102
1, 15099, Note_on_c, 0, 62, 101
1, 15195, Note_off_c, 0, 62, 101
1, 15206, Note_on_c, 0, 65, 80
1, 15269, Note_off_c, 0, 65, 80
1, 15283, Note_on_c, 0, 69, 90
1, 15347, Note_off_c, 0, 69, 90
1, 15384, Note_on_c, 0, 72, 102
1, 15472, Note_off_c, 0, 72, 102
1, 15475, Note_on_c, 0, 71, 97
1, 15593, Note_off_c, 0, 71, 97
1, 15599, Note_on_c, 0, 69, 88
1, 15680, Note_off_c, 0, 69, 88
1, 15695, Note_on_c, 0, 67, 95
1, 15778, Note_off_c, 0, 67, 95
1, 15784, Note_on_c, 0, 65, 93
1, 15836, Note_off_c, 0, 65, 93
1, 15850, Note_on_c, 0, 64, 95
1, 15942, Note_off_c, 0, 64, 95
1, 15953, Note_on_c, 0, 67, 95
1, 16040, Note_off_c, 0, 67, 95
1, 16060, Note_on_c, 0, 62, 93
1, 16150, Note_off_c, 0, 62, 93
1, 16185, Note_on_c, 0, 59, 78
1, 16229, Note_off_c, 0, 59, 78
1, 16245, Note_on_c, 0, 60, 103
1, 16381, Note_off_c, 0, 60, 103
1, 17645, Note_on_c, 0, 59, 102
1, 17686, Note_off_c, 0, 59, 102
1, 17699, Note_on_c, 0, 63, 102
1, 17747, Note_off_c, 0, 63, 102
1, 17752, Note_on_c, 0, 66, 74
1, 17797, Note_off_c, 0, 66, 74
1, 17825, Note_on_c, 0, 70, 103
1, 17913, Note_off_c, 0, 70, 103
1, 17921, Note_on_c, 0, 68, 99
1, 17993, Note_off_c, 0, 68, 99
1, 18001, Note_on_c, 0, 65, 104
1, 18105, Note_off_c, 0, 65, 104
1, 18114, Note_on_c, 0, 63, 110
1, 18197, Note_off_c, 0, 63, 110
1, 18206, Note_on_c, 0, 61, 101
1, 18292, Note_off_c, 0, 61, 101
1, 18307, Note_on_c, 0, 59, 102
1, 18375, Note_off_c, 0, 59, 102
1, 18386, Note_on_c, 0, 58, 98
1, 18483, Note_off_c, 0, 58, 98
1, 18490, Note_on_c, 0, 56, 106
1, 18598, Note_off_c, 0, 56, 106
1, 18610, Note_on_c, 0, 54, 99
1, 18699, Note_off_c, 0, 54, 99
1, 18706, Note_on_c, 0, 56, 104
1, 18808, Note_off_c, 0, 56, 104
1, 18821, Note_on_c, 0, 58, 91
1, 18902, Note_off_c, 0, 58, 91
1, 18910, Note_on_c, 0, 60, 111
1, 19007, Note_off_c, 0, 60, 111
1, 19020, Note_on_c, 0, 61, 94
1, 19125, Note_off_c, 0, 61, 94
1, 19134, Note_on_c, 0, 62, 91
1, 19179, Note_off_c, 0, 62, 91
1, 19189, Note_on_c, 0, 65, 105
1, 19281, Note_off_c, 0, 65, 105
1, 19284, Note_on_c, 0, 64, 105
1, 19381, Note_off_c, 0, 64, 105
1, 19390, Note_on_c, 0, 63, 109
1, 19490, Note_off_c, 0, 63, 109
1, 19494, Note_on_c, 0, 61, 101
1, 19582, Note_off_c, 0, 61, 101
1, 19594, Note_on_c, 0, 60, 99
1, 19679, Note_off_c, 0, 60, 99
1, 19681, Note_on_c, 0, 59, 91
1, 19756, Note_off_c, 0, 59, 91
1, 19776, Note_on_c, 0, 56, 106
1, 19866, Note_off_c, 0, 56, 106
1, 19870, Note_on_c, 0, 58, 93
1, 19949, Note_off_c, 0, 58, 93
1, 20090, Note_on_c, 0, 63, 92
1, 20150, Note_off_c, 0, 63, 92
1, 20165, Note_on_c, 0, 68, 101
1, 20288, Note_off_c, 0, 68, 101
1, 21280, Note_on_c, 0, 68, 101
1, 21337, Note_off_c, 0, 68, 101
1, 21341, Note_on_c, 0, 69, 99
1, 21387, Note_off_c, 0, 69, 99
1, 21391, Note_on_c, 0, 68, 96
1, 21500, Note_off_c, 0, 68, 96
1, 21506, Note_on_c, 0, 66, 93
1, 21607, Note_off_c, 0, 66, 93
1, 21618, Note_on_c, 0, 64, 100
1, 21690, Note_off_c, 0, 64, 100
1, 21694, Note_on_c, 0, 65, 101
1, 21784, Note_off_c, 0, 65, 101
1, 21794, Note_on_c, 0, 61, 102
1, 21876, Note_off_c, 0, 61, 102
1, 21886, Note_on_c, 0, 58, 95
1, 21982, Note_off_c, 0, 58, 95
1, 21989, Note_on_c, 0, 55, 97
1, 22072, Note_off_c, 0, 55, 97
1, 22084, Note_on_c, 0, 61, 100
1, 22188, Note_off_c, 0, 61, 100
1, 22200, Note_on_c, 0, 58, 100
1, 22254, Note_off_c, 0, 58, 100
1, 22285, Note_on_c, 0, 61, 102
1, 22357, Note_off_c, 0, 61, 102
1, 22386, Note_on_c, 0, 65, 102
1, 22497, Note_off_c, 0, 65, 102
1, 22558, Note_on_c, 0, 65, 99
1, 22639, Note_off_c, 0, 65, 99
1, 22667, Note_on_c, 0, 67, 99
1, 22711, Note_off_c, 0, 67, 99
1, 22726, Note_on_c, 0, 69, 90
1, 22816, Note_off_c, 0, 69, 90
1, 22866, Note_on_c, 0, 69, 94
1, 22952, Note_off_c, 0, 69, 94
1, 22975, Note_on_c, 0, 72, 101
1, 23070, Note_off_c, 0, 72, 101
1, 23158, Note_on_c, 0, 72, 96
1, 23256, Note_off_c, 0, 72, 96
1, 23314, Note_on_c, 0, 75, 100
1, 23889, Note_off_c, 0, 75, 100
1, 23935, Note_on_c, 0, 73, 99
1, 24007, Note_off_c, 0, 73, 99
1, 24011, Note_on_c, 0, 72, 97
1, 24119, Note_off_c, 0, 72, 97
1, 24128, Note_on_c, 0, 70, 99
1, 24205, Note_off_c, 0, 70, 99
1, 24213, Note_on_c, 0, 69, 96
1, 24274, Note_off_c, 0, 69, 96
1, 24300, Note_on_c, 0, 72, 100
1, 24390, Note_off_c, 0, 72, 100
1, 24400, Note_on_c, 0, 70, 97
1, 24490, Note_off_c, 0, 70, 97
1, 24514, Note_on_c, 0, 64, 93
1, 24570, Note_off_c, 0, 64, 93
1, 24576, Note_on_c, 0, 65, 101
1, 24682, Note_off_c, 0, 65, 101
1, 24690, Note_on_c, 0, 68, 100
1, 24767, Note_off_c, 0, 68, 100
1, 24774, Note_on_c, 0, 67, 100
1, 24856, Note_off_c, 0, 67, 100
1, 24866, Note_on_c, 0, 63, 103
1, 24949, Note_off_c, 0, 63, 103
1, 25526, Note_on_c, 0, 73, 96
1, 25599, Note_off_c, 0, 73, 96
1, 25599, Note_on_c, 0, 74, 97
1, 25666, Note_off_c, 0, 74, 97
1, 25667, Note_on_c, 0, 73, 97
1, 25725, Note_off_c, 0, 73, 97
1, 25732, Note_on_c, 0, 71, 97
1, 25809, Note_off_c, 0, 71, 97
1, 25813, Note_on_c, 0, 69, 97
1, 25903, Note_off_c, 0, 69, 97
1, 25911, Note_on_c, 0, 68, 97
1, 26004, Note_off_c, 0, 68, 97
1, 26009, Note_on_c, 0, 69, 94
1, 26090, Note_off_c, 0, 69, 94
1, 26096, Note_on_c, 0, 71, 105
1, 26196, Note_off_c, 0, 71, 105
1, 26203, Note_on_c, 0, 73, 95
1, 26298, Note_off_c, 0, 73, 95
1, 26304, Note_on_c, 0, 69, 94
1, 26392, Note_off_c, 0, 69, 94
1, 26399, Note_on_c, 0, 61, 93
1, 26486, Note_off_c, 0, 61, 93
1, 27820, Note_on_c, 0, 59, 103
1, 27894, Note_off_c, 0, 59, 103
1, 27914, Note_on_c, 0, 55, 104
1, 28016, Note_off_c, 0, 55, 104
1, 28035, Note_on_c, 0, 53, 107
1, 28106, Note_off_c, 0, 53, 107
1, 28119, Note_on_c, 0, 50, 102
1, 28209, Note_off_c, 0, 50, 102
1, 28226, Note_on_c, 0, 48, 99
1, 28307, Note_off_c, 0, 48, 99
1, 28320, Note_on_c, 0, 50, 100
1, 28411, Note_off_c, 0, 50, 100
1, 28432, Note_on_c, 0, 52, 103
1, 28522, Note_off_c, 0, 52, 103
1, 28531, Note_on_c, 0, 53, 106
1, 28610, Note_off_c, 0, 53, 106
1, 28616, Note_on_c, 0, 54, 106
1, 28698, Note_off_c, 0, 54, 106
1, 28702, Note_on_c, 0, 58, 99
1, 28797, Note_off_c, 0, 58, 99
1, 28813, Note_on_c, 0, 57, 106
1, 28917, Note_off_c, 0, 57, 106
1, 28925, Note_on_c, 0, 55, 98
1, 29010, Note_off_c, 0, 55, 98
1, 29017, Note_on_c, 0, 56, 105
1, 29090, Note_off_c, 0, 56, 105
1, 29095, Note_on_c, 0, 58, 97
1, 29164, Note_off_c, 0, 58, 97
1, 29169, Note_on_c, 0, 59, 103
1, 29263, Note_off_c, 0, 59, 103
1, 29267, Note_on_c, 0, 61, 103
1, 29345, Note_off_c, 0, 61, 103
1, 29352, Note_on_c, 0, 63, 104
1, 29446, Note_off_c, 0, 63, 104
1, 29454, Note_on_c, 0, 65, 102
1, 29546, Note_off_c, 0, 65, 102
1, 29553, Note_on_c, 0, 66, 105
1, 29621, Note_off_c, 0, 66, 105
1, 29625, Note_on_c, 0, 67, 97
1, 29698, Note_off_c, 0, 67, 97
1, 29700, Note_on_c, 0, 68, 94
1, 29760, Note_off_c, 0, 68, 94
1, 29765, Note_on_c, 0, 70, 100
1, 29869, Note_off_c, 0, 70, 100
1, 29876, Note_on_c, 0, 67, 93
1, 29954, Note_off_c, 0, 67, 93
1, 29958, Note_on_c, 0, 68, 99
1, 30050, Note_off_c, 0, 68, 99
1, 30056, Note_on_c, 0, 70, 88
1, 30125, Note_off_c, 0, 70, 88
1, 30132, Note_on_c, 0, 71, 98
1, 30229, Note_off_c, 0, 71, 98
1, 30235, Note_on_c, 0, 75, 95
1, 30322, Note_off_c, 0, 75, 95
1, 30331, Note_on_c, 0, 73, 95
1, 30403, Note_off_c, 0, 73, 95
1, 30412, Note_on_c, 0, 72, 87
1, 30451, Note_off_c, 0, 72, 87
1, 30455, Note_on_c, 0, 71, 107
1, 30566, Note_off_c, 0, 71, 107
1, 30643, Note_on_c, 0, 68, 96
1, 30717, Note_off_c, 0, 68, 96
1, 30730, Note_on_c, 0, 65, 94
1, 30833, Note_off_c, 0, 65, 94
1, 30915, Note_on_c, 0, 66, 100
1, 31197, Note_off_c, 0, 66, 100
1, 31298, Note_on_c, 0, 65, 100
1, 31348, Note_off_c, 0, 65, 100
1, 31352, Note_on_c, 0, 66, 109
1, 31405, Note_off_c, 0, 66, 109
1, 31407, Note_on_c, 0, 65, 105
1, 31464, Note_off_c, 0, 65, 105
1, 31468, Note_on_c, 0, 63, 110
1, 31526, Note_off_c, 0, 63, 110
1, 31533, Note_on_c, 0, 62, 102
1, 31611, Note_off_c, 0, 62, 102
1, 31611, Note_on_c, 0, 65, 109
1, 31676, Note_off_c, 0, 65, 109
1, 31679, Note_on_c, 0, 63, 108
1, 31770, Note_off_c, 0, 63, 108
1, 31775, Note_on_c, 0, 61, 106
1, 31870, Note_off_c, 0, 61, 106
1, 31875, Note_on_c, 0, 60, 103
1, 31983, Note_off_c, 0, 60, 103
1, 31990, Note_on_c, 0, 58, 93
1, 32066, Note_off_c, 0, 58, 93
1, 32077, Note_on_c, 0, 56, 102
1, 32179, Note_off_c, 0, 56, 102
1, 32179, Note_on_c, 0, 58, 95
1, 32236, Note_off_c, 0, 58, 95
1, 32240, Note_on_c, 0, 60, 88
1, 32305, Note_off_c, 0, 60, 88
1, 32313, Note_on_c, 0, 63, 100
1, 32382, Note_off_c, 0, 63, 100
1, 32386, Note_on_c, 0, 68, 92
1, 32454, Note_off_c, 0, 68, 92
1, 32464, Note_on_c, 0, 65, 100
1, 32531, Note_off_c, 0, 65, 100
1, 32538, Note_on_c, 0, 66, 93
1, 32622, Note_off_c, 0, 66, 93
1, 32632, Note_on_c, 0, 63, 104
1, 32710, Note_off_c, 0, 63, 104
1, 33517, Note_on_c, 0, 68, 93
1, 33539, Note_off_c, 0, 68, 93
1, 33545, Note_on_c, 0, 67, 98
1, 33575, Note_off_c, 0, 67, 98
1, 33578, Note_on_c, 0, 65, 100
1, 33678, Note_off_c, 0, 65, 100
1, 33685, Note_on_c, 0, 61, 101
1, 33758, Note_off_c, 0, 61, 101
1, 33761, Note_on_c, 0, 58, 95
1, 33907, Note_off_c, 0, 58, 95
1, 33919, Note_on_c, 0, 55, 95
1, 33989, Note_off_c, 0, 55, 95
1, 33994, Note_on_c, 0, 61, 103
1, 34102, Note_off_c, 0, 61, 103
1, 34758, Note_on_c, 0, 70, 110
1, 34821, Note_off_c, 0, 70, 110
1, 34872, Note_on_c, 0, 72, 99
1, 35078, Note_off_c, 0, 72, 99
1, 35083, Note_on_c, 0, 69, 82
1, 35157, Note_off_c, 0, 69, 82
1, 35162, Note_on_c, 0, 70, 96
1, 35263, Note_off_c, 0, 70, 96
1, 35266, Note_on_c, 0, 67, 89
1, 35349, Note_off_c, 0, 67, 89
1, 35357, Note_on_c, 0, 63, 109
1, 35446, Note_off_c, 0, 63, 109
1, 35457, Note_on_c, 0, 58, 82
1, 35508, Note_off_c, 0, 58, 82
1, 35549, Note_on_c, 0, 68, 99
1, 35629, Note_off_c, 0, 68, 99
1, 35735, Note_on_c, 0, 66, 87
1, 35764, Note_off_c, 0, 66, 87
1, 35856, Note_on_c, 0, 67, 103
1, 35944, Note_off_c, 0, 67, 103
1, 36066, Note_on_c, 0, 63, 109
1, 36136, Note_off_c, 0, 63, 109
1, 36255, Note_on_c, 0, 65, 99
1, 36292, Note_off_c, 0, 65, 99
1, 36308, Note_on_c, 0, 65, 97
1, 36368, Note_off_c, 0, 65, 97
1, 36375, Note_on_c, 0, 61, 106
1, 36421, Note_off_c, 0, 61, 106
1, 36474, Note_on_c, 0, 58, 89
1, 36612, Note_off_c, 0, 58, 89
1, 36700, Note_on_c, 0, 57, 106
1, 36767, Note_off_c, 0, 57, 106
1, 36897, Note_on_c, 0, 55, 100
1, 37010, Note_off_c, 0, 55, 100
1, 37140, Note_on_c, 0, 55, 93
1, 37225, Note_off_c, 0, 55, 93
1, 37237, Note_on_c, 0, 58, 99
1, 37307, Note_off_c, 0, 58, 99
1, 37521, Note_on_c, 0, 57, 107
1, 37606, Note_off_c, 0, 57, 107
1, 37624, Note_on_c, 0, 54, 104
1, 37695, Note_off_c, 0, 54, 104
1, 37701, Note_on_c, 0, 50, 104
1, 37805, Note_off_c, 0, 50, 104
1, 37814, Note_on_c, 0, 47, 105
1, 37874, Note_off_c, 0, 47, 105
1, 37901, Note_on_c, 0, 55, 98
1, 37966, Note_off_c, 0, 55, 98
1, 37970, Note_on_c, 0, 56, 103
1, 38095, Note_off_c, 0, 56, 103
1, 38099, Note_on_c, 0, 54, 101
1, 38201, Note_off_c, 0, 54, 101
1, 38207, Note_on_c, 0, 52, 102
1, 38281, Note_off_c, 0, 52, 102
1, 38538, Note_on_c, 0, 45, 113
1, 38628, Note_off_c, 0, 45, 113
1, 39745, Note_on_c, 0, 51, 103
1, 39818, Note_off_c, 0, 51, 103
1, 39947, Note_on_c, 0, 51, 102
1, 39994, Note_off_c, 0, 51, 102
1, 40017, Note_on_c, 0, 55, 99
1, 40109, Note_off_c, 0, 55, 99
1, 40144, Note_on_c, 0, 54, 107
1, 40199, Note_off_c, 0, 54, 107
1, 40204, Note_on_c, 0, 58, 107
1, 40267, Note_off_c, 0, 58, 107
1, 40272, Note_on_c, 0, 55, 102
1, 40395, Note_off_c, 0, 55, 102
1, 40399, Note_on_c, 0, 56, 107
1, 40474, Note_off_c, 0, 56, 107
1, 40482, Note_on_c, 0, 57, 107
1, 40584, Note_off_c, 0, 57, 107
1, 40585, Note_on_c, 0, 53, 110
1, 40669, Note_off_c, 0, 53, 110
1, 40677, Note_on_c, 0, 49, 102
1, 40770, Note_off_c, 0, 49, 102
1, 40772, Note_on_c, 0, 50, 101
1, 40845, Note_off_c, 0, 50, 101
1, 40849, Note_on_c, 0, 55, 105
1, 40931, Note_off_c, 0, 55, 105
1, 40948, Note_on_c, 0, 52, 101
1, 41068, Note_off_c, 0, 52, 101
1, 41071, Note_on_c, 0, 51, 103
1, 41133, Note_off_c, 0, 51, 103
1, 41137, Note_on_c, 0, 50, 103
1, 41249, Note_off_c, 0, 50, 103
1, 41256, Note_on_c, 0, 49, 106
1, 41348, Note_off_c, 0, 49, 106
1, 41351, Note_on_c, 0, 48, 110
1, 41427, Note_off_c, 0, 48, 110
1, 41427, Note_on_c, 0, 49, 106
1, 41502, Note_off_c, 0, 49, 106
1, 41509, Note_on_c, 0, 50, 102
1, 41692, Note_off_c, 0, 50, 102
1, 41708, Note_on_c, 0, 58, 100
1, 41817, Note_off_c, 0, 58, 100
1, 41821, Note_on_c, 0, 55, 98
1, 41893, Note_off_c, 0, 55, 98
1, 41902, Note_on_c, 0, 56, 102
1, 41991, Note_off_c, 0, 56, 102
1, 41997, Note_on_c, 0, 57, 106
1, 42094, Note_off_c, 0, 57, 106
1, 42109, Note_on_c, 0, 49, 105
1, 42204, Note_off_c, 0, 49, 105
1, 42213, Note_on_c, 0, 51, 102
1, 42296, Note_off_c, 0, 51, 102
1, 42298, Note_on_c, 0, 56, 109
1, 42354, Note_off_c, 0, 56, 109
1, 42358, Note_on_c, 0, 55, 107
1, 42395, Note_off_c, 0, 55, 107
1, 42400, Note_on_c, 0, 54, 109
1, 42480, Note_off_c, 0, 54, 109
1, 42484, Note_on_c, 0, 53, 104
1, 42578, Note_off_c, 0, 53, 104
1, 42582, Note_on_c, 0, 51, 104
1, 42634, Note_off_c, 0, 51, 104
1, 42641, Note_on_c, 0, 48, 112
1, 42733, Note_off_c, 0, 48, 112
1, 42742, Note_on_c, 0, 49, 102
1, 42797, Note_off_c, 0, 49, 102
1, 42802, Note_on_c, 0, 51, 102
1, 42871, Note_off_c, 0, 51, 102
1, 42874, Note_on_c, 0, 53, 104
1, 42962, Note_off_c, 0, 53, 104
1, 42973, Note_on_c, 0, 56, 101
1, 43119, Note_off_c, 0, 56, 101
1, 43131, Note_on_c, 0, 55, 99
1, 43165, Note_off_c, 0, 55, 99
1, 43170, Note_on_c, 0, 54, 96
1, 43199, Note_off_c, 0, 54, 96
1, 43222, Note_on_c, 0, 53, 101
1, 43256, Note_off_c, 0, 53, 101
1, 43264, Note_on_c, 0, 54, 104
1, 43386, Note_off_c, 0, 54, 104
1, 43971, Note_on_c, 0, 48, 104
1, 44045, Note_off_c, 0, 48, 104
1, 44047, Note_on_c, 0, 50, 104
1, 44152, Note_off_c, 0, 50, 104
1, 44155, Note_on_c, 0, 53, 109
1, 44252, Note_off_c, 0, 53, 109
1, 44263, Note_on_c, 0, 52, 105
1, 44346, Note_off_c, 0, 52, 105
1, 44353, Note_on_c, 0, 51, 102
1, 44434, Note_off_c, 0, 51, 102
1, 44437, Note_on_c, 0, 49, 102
1, 44536, Note_off_c, 0, 49, 102
1, 44543, Note_on_c, 0, 48, 118
1, 44645, Note_off_c, 0, 48, 118
1, 44646, Note_on_c, 0, 46, 115
1, 44755, Note_off_c, 0, 46, 115
1, 44762, Note_on_c, 0, 45, 124
1, 44824, Note_off_c, 0, 45, 124
1, 44830, Note_on_c, 0, 50, 118
1, 44905, Note_off_c, 0, 50, 118
1, 44909, Note_on_c, 0, 54, 107
1, 45001, Note_off_c, 0, 54, 107
1, 45008, Note_on_c, 0, 57, 107
1, 45094, Note_off_c, 0, 57, 107
1, 45104, Note_on_c, 0, 47, 104
1, 45206, Note_off_c, 0, 47, 104
1, 45214, Note_on_c, 0, 51, 104
1, 45314, Note_off_c, 0, 51, 104
1, 45325, Note_on_c, 0, 54, 101
1, 45429, Note_on_c, 0, 59, 105
1, 45429, Note_off_c, 0, 54, 101
1, 45511, Note_off_c, 0, 59, 105
1, 45523, Note_on_c, 0, 56, 105
1, 45611, Note_off_c, 0, 56, 105
1, 45621, Note_on_c, 0, 57, 108
1, 45711, Note_off_c, 0, 57, 108
1, 45719, Note_on_c, 0, 60, 105
1, 45793, Note_off_c, 0, 60, 105
1, 45794, Note_on_c, 0, 63, 104
1, 45872, Note_off_c, 0, 63, 104
1, 45876, Note_on_c, 0, 66, 96
1, 45948, Note_off_c, 0, 66, 96
1, 45955, Note_on_c, 0, 69, 100
1, 46070, Note_off_c, 0, 69, 100
1, 46077, Note_on_c, 0, 68, 98
1, 46161, Note_off_c, 0, 68, 98
1, 46166, Note_on_c, 0, 66, 100
1, 46249, Note_off_c, 0, 66, 100
1, 46257, Note_on_c, 0, 65, 108
1, 46345, Note_off_c, 0, 65, 108
1, 46347, Note_on_c, 0, 61, 104
1, 46442, Note_off_c, 0, 61, 104
1, 46449, Note_on_c, 0, 58, 92
1, 46555, Note_off_c, 0, 58, 92
1, 46589, Note_on_c, 0, 55, 103
1, 46635, Note_off_c, 0, 55, 103
1, 46665, Note_on_c, 0, 61, 105
1, 46838, Note_off_c, 0, 61, 105
1, 46846, Note_on_c, 0, 58, 101
1, 46897, Note_off_c, 0, 58, 101
1, 46909, Note_on_c, 0, 64, 104
1, 46960, Note_off_c, 0, 64, 104
1, 46969, Note_on_c, 0, 65, 108
1, 47170, Note_off_c, 0, 65, 108
1, 47193, Note_on_c, 0, 67, 100
1, 47297, Note_off_c, 0, 67, 100
1, 47305, Note_on_c, 0, 69, 95
1, 47516, Note_off_c, 0, 69, 95
1, 47537, Note_on_c, 0, 72, 95
1, 47625, Note_off_c, 0, 72, 95
1, 47780, Note_on_c, 0, 75, 98
1, 48044, Note_off_c, 0, 75, 98
1, 49715, Note_on_c, 0, 76, 101
1, 49798, Note_off_c, 0, 76, 101
1, 49877, Note_on_c, 0, 73, 93
1, 49955, Note_off_c, 0, 73, 93
1, 50092, Note_on_c, 0, 68, 82
1, 50133, Note_off_c, 0, 68, 82
1, 50135, Note_on_c, 0, 69, 94
1, 50274, Note_off_c, 0, 69, 94
1, 50282, Note_on_c, 0, 66, 91
1, 50352, Note_off_c, 0, 66, 91
1, 50487, Note_on_c, 0, 62, 100
1, 50773, Note_off_c, 0, 62, 100
1, 51419, Note_on_c, 0, 74, 90
1, 51529, Note_off_c, 0, 74, 90
1, 51564, Note_on_c, 0, 71, 98
1, 51683, Note_off_c, 0, 71, 98
1, 51696, Note_on_c, 0, 68, 99
1, 51777, Note_off_c, 0, 68, 99
1, 51809, Note_on_c, 0, 64, 100
1, 51922, Note_off_c, 0, 64, 100
1, 51996, Note_on_c, 0, 72, 97
1, 52090, Note_off_c, 0, 72, 97
1, 52127, Note_on_c, 0, 69, 87
1, 52193, Note_off_c, 0, 69, 87
1, 52217, Note_on_c, 0, 66, 99
1, 52299, Note_off_c, 0, 66, 99
1, 52310, Note_on_c, 0, 63, 102
1, 52378, Note_off_c, 0, 63, 102
1, 52411, Note_on_c, 0, 71, 98
1, 52490, Note_off_c, 0, 71, 98
1, 52499, Note_on_c, 0, 68, 94
1, 52575, Note_off_c, 0, 68, 94
1, 52588, Note_on_c, 0, 64, 102
1, 52664, Note_off_c, 0, 64, 102
1, 52681, Note_on_c, 0, 60, 106
1, 52773, Note_off_c, 0, 60, 106
1, 52774, Note_on_c, 0, 57, 109
1, 52847, Note_off_c, 0, 57, 109
1, 52886, Note_on_c, 0, 60, 110
1, 52978, Note_off_c, 0, 60, 110
1, 52984, Note_on_c, 0, 64, 98
1, 53051, Note_off_c, 0, 64, 98
1, 53068, Note_on_c, 0, 67, 91
1, 53128, Note_off_c, 0, 67, 91
1, 53137, Note_on_c, 0, 71, 103
1, 53258, Note_off_c, 0, 71, 103
1, 53265, Note_on_c, 0, 67, 103
1, 53333, Note_off_c, 0, 67, 103
1, 53335, Note_on_c, 0, 64, 106
1, 53436, Note_off_c, 0, 64, 106
1, 53447, Note_on_c, 0, 61, 94
1, 53481, Note_off_c, 0, 61, 94
1, 53532, Note_on_c, 0, 70, 97
1, 53643, Note_off_c, 0, 70, 97
1, 53656, Note_on_c, 0, 66, 99
1, 53717, Note_off_c, 0, 66, 99
1, 53720, Note_on_c, 0, 63, 105
1, 53824, Note_off_c, 0, 63, 105
1, 53840, Note_on_c, 0, 59, 104
1, 53907, Note_off_c, 0, 59, 104
1, 53923, Note_on_c, 0, 56, 101
1, 54004, Note_off_c, 0, 56, 101
1, 54010, Note_on_c, 0, 59, 102
1, 54087, Note_off_c, 0, 59, 102
1, 54100, Note_on_c, 0, 63, 106
1, 54194, Note_off_c, 0, 63, 106
1, 54201, Note_on_c, 0, 65, 101
1, 54316, Note_off_c, 0, 65, 101
1, 54318, Note_on_c, 0, 66, 96
1, 54427, Note_off_c, 0, 66, 96
1, 54432, Note_on_c, 0, 68, 91
1, 54546, Note_off_c, 0, 68, 91
1, 54549, Note_on_c, 0, 70, 88
1, 54606, Note_off_c, 0, 70, 88
1, 54607, Note_on_c, 0, 71, 95
1, 54662, Note_off_c, 0, 71, 95
1, 54662, Note_on_c, 0, 75, 96
1, 54766, Note_off_c, 0, 75, 96
1, 54772, Note_on_c, 0, 73, 98
1, 54865, Note_off_c, 0, 73, 98
1, 54872, Note_on_c, 0, 71, 98
1, 54967, Note_off_c, 0, 71, 98
1, 54974, Note_on_c, 0, 68, 90
1, 55053, Note_off_c, 0, 68, 90
1, 55058, Note_on_c, 0, 70, 93
1, 55161, Note_off_c, 0, 70, 93
1, 55169, Note_on_c, 0, 66, 98
1, 55259, Note_off_c, 0, 66, 98
1, 55259, Note_on_c, 0, 61, 102
1, 55341, Note_off_c, 0, 61, 102
1, 55360, Note_on_c, 0, 58, 89
1, 55450, Note_off_c, 0, 58, 89
1, 55456, Note_on_c, 0, 54, 95
1, 55585, Note_off_c, 0, 54, 95
1, 56237, Note_on_c, 0, 72, 98
1, 56311, Note_off_c, 0, 72, 98
1, 56338, Note_on_c, 0, 68, 95
1, 56428, Note_off_c, 0, 68, 95
1, 56435, Note_on_c, 0, 64, 101
1, 56566, Note_off_c, 0, 64, 101
1, 56569, Note_on_c, 0, 61, 88
1, 56610, Note_off_c, 0, 61, 88
1, 56615, Note_on_c, 0, 71, 97
1, 56735, Note_off_c, 0, 71, 97
1, 56744, Note_on_c, 0, 66, 91
1, 56811, Note_off_c, 0, 66, 91
1, 56818, Note_on_c, 0, 70, 98
1, 56914, Note_off_c, 0, 70, 98
1, 56927, Note_on_c, 0, 66, 103
1, 56998, Note_off_c, 0, 66, 103
1, 57009, Note_on_c, 0, 62, 102
1, 57081, Note_off_c, 0, 62, 102
1, 57090, Note_on_c, 0, 58, 96
1, 57177, Note_off_c, 0, 58, 96
1, 57182, Note_on_c, 0, 56, 108
1, 57301, Note_off_c, 0, 56, 108
1, 57309, Note_on_c, 0, 57, 9
1, 57393, Note_off_c, 0, 57, 9
1, 57408, Note_on_c, 0, 60, 108
1, 57489, Note_off_c, 0, 60, 108
1, 57518, Note_on_c, 0, 64, 102
1, 57562, Note_off_c, 0, 64, 102
1, 57568, Note_on_c, 0, 66, 103
1, 57663, Note_off_c, 0, 66, 103
1, 57680, Note_on_c, 0, 69, 99
1, 57733, Note_off_c, 0, 69, 99
1, 57740, Note_on_c, 0, 68, 106
1, 57822, Note_off_c, 0, 68, 106
1, 57831, Note_on_c, 0, 66, 98
1, 57939, Note_off_c, 0, 66, 98
1, 57943, Note_on_c, 0, 65, 111
1, 58035, Note_off_c, 0, 65, 111
1, 58043, Note_on_c, 0, 63, 114
1, 58156, Note_off_c, 0, 63, 114
1, 58157, Note_on_c, 0, 60, 105
1, 58241, Note_off_c, 0, 60, 105
1, 58245, Note_on_c, 0, 61, 109
1, 58315, Note_off_c, 0, 61, 109
1, 58315, Note_on_c, 0, 63, 115
1, 58416, Note_off_c, 0, 63, 115
1, 58432, Note_on_c, 0, 65, 112
1, 58524, Note_off_c, 0, 65, 112
1, 58528, Note_on_c, 0, 68, 99
1, 58668, Note_off_c, 0, 68, 99
1, 58673, Note_on_c, 0, 71, 92
1, 58718, Note_off_c, 0, 71, 92
1, 58726, Note_on_c, 0, 72, 109
1, 58794, Note_off_c, 0, 72, 109
1, 58800, Note_on_c, 0, 71, 112
1, 58915, Note_off_c, 0, 71, 112
1, 58929, Note_on_c, 0, 70, 101
1, 59003, Note_off_c, 0, 70, 101
1, 59008, Note_on_c, 0, 68, 109
1, 59098, Note_off_c, 0, 68, 109
1, 59113, Note_on_c, 0, 67, 105
1, 59213, Note_off_c, 0, 67, 105
1, 59220, Note_on_c, 0, 66, 112
1, 59324, Note_off_c, 0, 66, 112
1, 59327, Note_on_c, 0, 65, 111
1, 59399, Note_off_c, 0, 65, 111
1, 59405, Note_on_c, 0, 64, 111
1, 59498, Note_off_c, 0, 64, 111
1, 59502, Note_on_c, 0, 63, 110
1, 59580, Note_off_c, 0, 63, 110
1, 59584, Note_on_c, 0, 62, 115
1, 59703, Note_off_c, 0, 62, 115
1, 59705, Note_on_c, 0, 61, 103
1, 59783, Note_off_c, 0, 61, 103
1, 59816, Note_on_c, 0, 63, 106
1, 59884, Note_off_c, 0, 63, 106
1, 59891, Note_on_c, 0, 65, 108
1, 59987, Note_off_c, 0, 65, 108
1, 59996, Note_on_c, 0, 61, 109
1, 60085, Note_off_c, 0, 61, 109
1, 60085, Note_on_c, 0, 60, 111
1, 60147, Note_off_c, 0, 60, 111
1, 60171, Note_on_c, 0, 58, 95
1, 60279, Note_off_c, 0, 58, 95
1, 60283, Note_on_c, 0, 57, 101
1, 60383, Note_off_c, 0, 57, 101
1, 60388, Note_on_c, 0, 58, 98
1, 60449, Note_off_c, 0, 58, 98
1, 60457, Note_on_c, 0, 63, 111
1, 60542, Note_off_c, 0, 63, 111
1, 60546, Note_on_c, 0, 61, 110
1, 60625, Note_off_c, 0, 61, 110
1, 60653, Note_on_c, 0, 57, 103
1, 60745, Note_off_c, 0, 57, 103
1, 60747, Note_on_c, 0, 55, 103
1, 60815, Note_off_c, 0, 55, 103
1, 60818, Note_on_c, 0, 60, 115
1, 60928, Note_off_c, 0, 60, 115
1, 60931, Note_on_c, 0, 58, 105
1, 61012, Note_off_c, 0, 58, 105
1, 61627, Note_on_c, 0, 61, 110
1, 61704, Note_off_c, 0, 61, 110
1, 61710, Note_on_c, 0, 59, 110
1, 61796, Note_off_c, 0, 59, 110
1, 61797, Note_on_c, 0, 61, 111
1, 61901, Note_off_c, 0, 61, 111
1, 61906, Note_on_c, 0, 59, 111
1, 61992, Note_off_c, 0, 59, 111
1, 61999, Note_on_c, 0, 62, 117
1, 62075, Note_off_c, 0, 62, 117
1, 62086, Note_on_c, 0, 66, 105
1, 62178, Note_off_c, 0, 66, 105
1, 62773, Note_on_c, 0, 66, 113
1, 62862, Note_off_c, 0, 66, 113
1, 62866, Note_on_c, 0, 64, 108
1, 62948, Note_off_c, 0, 64, 108
1, 62951, Note_on_c, 0, 66, 101
1, 63052, Note_off_c, 0, 66, 101
1, 63055, Note_on_c, 0, 64, 102
1, 63119, Note_off_c, 0, 64, 102
1, 63124, Note_on_c, 0, 69, 100
1, 63204, Note_off_c, 0, 69, 100
1, 63215, Note_on_c, 0, 73, 105
1, 63306, Note_off_c, 0, 73, 105
1, 63899, Note_on_c, 0, 71, 108
1, 63981, Note_off_c, 0, 71, 108
1, 63989, Note_on_c, 0, 68, 100
1, 64074, Note_off_c, 0, 68, 100
1, 64077, Note_on_c, 0, 69, 103
1, 64186, Note_off_c, 0, 69, 103
1, 64192, Note_on_c, 0, 66, 102
1, 64254, Note_off_c, 0, 66, 102
1, 64261, Note_on_c, 0, 65, 106
1, 64332, Note_off_c, 0, 65, 106
1, 64345, Note_on_c, 0, 63, 112
1, 64449, Note_off_c, 0, 63, 112
1, 64454, Note_on_c, 0, 62, 112
1, 64522, Note_off_c, 0, 62, 112
1, 64530, Note_on_c, 0, 60, 111
1, 64632, Note_off_c, 0, 60, 111
1, 64636, Note_on_c, 0, 59, 111
1, 64711, Note_off_c, 0, 59, 111
1, 64723, Note_on_c, 0, 62, 109
1, 64799, Note_off_c, 0, 62, 109
1, 64806, Note_on_c, 0, 65, 108
1, 64904, Note_off_c, 0, 65, 108
1, 64939, Note_on_c, 0, 68, 101
1, 65001, Note_off_c, 0, 68, 101
1, 65010, Note_on_c, 0, 67, 107
1, 65119, Note_off_c, 0, 67, 107
1, 65130, Note_on_c, 0, 66, 93
1, 65213, Note_off_c, 0, 66, 93
1, 65220, Note_on_c, 0, 67, 105
1, 65287, Note_off_c, 0, 67, 105
1, 65292, Note_on_c, 0, 66, 95
1, 65375, Note_off_c, 0, 66, 95
1, 65399, Note_on_c, 0, 72, 96
1, 65451, Note_off_c, 0, 72, 96
1, 65476, Note_on_c, 0, 70, 104
1, 65548, Note_off_c, 0, 70, 104
1, 65551, Note_on_c, 0, 64, 108
1, 65640, Note_off_c, 0, 64, 108
1, 65956, Note_on_c, 0, 63, 115
1, 66068, Note_off_c, 0, 63, 115
1, 66072, Note_on_c, 0, 62, 116
1, 66139, Note_off_c, 0, 62, 116
1, 66145, Note_on_c, 0, 63, 113
1, 66259, Note_off_c, 0, 63, 113
1, 66260, Note_on_c, 0, 62, 105
1, 66329, Note_off_c, 0, 62, 105
1, 66344, Note_on_c, 0, 70, 99
1, 66497, Note_off_c, 0, 70, 99
1, 68065, Note_on_c, 0, 63, 114
1, 68165, Note_off_c, 0, 63, 114
1, 68170, Note_on_c, 0, 62, 110
1, 68249, Note_off_c, 0, 62, 110
1, 68256, Note_on_c, 0, 63, 114
1, 68359, Note_off_c, 0, 63, 114
1, 68370, Note_on_c, 0, 62, 103
1, 68431, Note_off_c, 0, 62, 103
1, 68436, Note_on_c, 0, 70, 95
1, 68526, Note_off_c, 0, 70, 95
1, 68547, Note_on_c, 0, 62, 108
1, 68619, Note_off_c, 0, 62, 108
1, 68629, Note_on_c, 0, 63, 111
1, 68727, Note_off_c, 0, 63, 111
1, 68742, Note_on_c, 0, 62, 107
1, 68810, Note_off_c, 0, 62, 107
1, 68815, Note_on_c, 0, 63, 114
1, 68895, Note_off_c, 0, 63, 114
1, 68906, Note_on_c, 0, 62, 105
1, 69010, Note_off_c, 0, 62, 105
1, 69011, Note_on_c, 0, 63, 110
1, 69071, Note_off_c, 0, 63, 110
1, 69079, Note_on_c, 0, 62, 108
1, 69147, Note_off_c, 0, 62, 108
1, 69214, Note_on_c, 0, 70, 101
1, 69304, Note_off_c, 0, 70, 101
1, 69316, Note_on_c, 0, 62, 109
1, 69387, Note_off_c, 0, 62, 109
1, 69389, Note_on_c, 0, 63, 111
1, 69498, Note_off_c, 0, 63, 111
1, 69509, Note_on_c, 0, 62, 109
1, 69590, Note_off_c, 0, 62, 109
1, 69596, Note_on_c, 0, 63, 113
1, 69677, Note_off_c, 0, 63, 113
1, 69688, Note_on_c, 0, 62, 108
1, 69748, Note_off_c, 0, 62, 108
1, 69754, Note_on_c, 0, 63, 104
1, 69845, Note_off_c, 0, 63, 104
1, 69859, Note_on_c, 0, 62, 108
1, 69956, Note_off_c, 0, 62, 108
1, 69983, Note_on_c, 0, 70, 103
1, 70064, Note_off_c, 0, 70, 103
1, 70162, Note_on_c, 0, 69, 104
1, 70245, Note_off_c, 0, 69, 104
1, 70314, Note_on_c, 0, 67, 97
1, 70346, Note_off_c, 0, 67, 97
1, 70355, Note_on_c, 0, 68, 100
1, 70439, Note_off_c, 0, 68, 100
1, 70450, Note_on_c, 0, 67, 96
1, 70551, Note_off_c, 0, 67, 96
1, 70551, Note_on_c, 0, 68, 100
1, 70650, Note_off_c, 0, 68, 100
1, 70661, Note_on_c, 0, 67, 89
1, 70723, Note_off_c, 0, 67, 89
1, 70727, Note_on_c, 0, 68, 100
1, 70819, Note_off_c, 0, 68, 100
1, 70823, Note_on_c, 0, 67, 93
1, 70911, Note_off_c, 0, 67, 93
1, 70915, Note_on_c, 0, 68, 102
1, 71019, Note_off_c, 0, 68, 102
1, 71949, Note_on_c, 0, 68, 102
1, 71995, Note_off_c, 0, 68, 102
1, 71998, Note_on_c, 0, 68, 95
1, 72088, Note_off_c, 0, 68, 95
1, 72096, Note_on_c, 0, 69, 91
1, 72175, Note_off_c, 0, 69, 91
1, 72178, Note_on_c, 0, 68, 106
1, 72251, Note_off_c, 0, 68, 106
1, 72255, Note_on_c, 0, 69, 105
1, 72283, Note_off_c, 0, 69, 105
1, 72286, Note_on_c, 0, 68, 99
1, 72356, Note_off_c, 0, 68, 99
1, 72359, Note_on_c, 0, 69, 90
1, 72440, Note_off_c, 0, 69, 90
1, 72451, Note_on_c, 0, 67, 110
1, 72544, Note_off_c, 0, 67, 110
1, 72552, Note_on_c, 0, 68, 98
1, 72610, Note_off_c, 0, 68, 98
1, 72619, Note_on_c, 0, 68, 100
1, 72673, Note_off_c, 0, 68, 100
1, 72684, Note_on_c, 0, 68, 102
1, 72808, Note_off_c, 0, 68, 102
1, 72809, Note_on_c, 0, 69, 90
1, 72913, Note_off_c, 0, 69, 90
1, 72918, Note_on_c, 0, 68, 99
1, 72956, Note_off_c, 0, 68, 99
1, 72962, Note_on_c, 0, 69, 104
1, 73009, Note_off_c, 0, 69, 104
1, 73011, Note_on_c, 0, 68, 104
1, 73088, Note_off_c, 0, 68, 104
1, 73095, Note_on_c, 0, 69, 104
1, 73143, Note_off_c, 0, 69, 104
1, 73147, Note_on_c, 0, 68, 104
1, 73196, Note_off_c, 0, 68, 104
1, 73205, Note_on_c, 0, 67, 106
1, 73251, Note_off_c, 0, 67, 106
1, 73260, Note_on_c, 0, 67, 109
1, 73306, Note_off_c, 0, 67, 109
1, 73312, Note_on_c, 0, 66, 108
1, 73376, Note_off_c, 0, 66, 108
1, 73381, Note_on_c, 0, 65, 111
1, 73472, Note_off_c, 0, 65, 111
1, 73488, Note_on_c, 0, 64, 112
1, 73571, Note_off_c, 0, 64, 112
1, 73575, Note_on_c, 0, 63, 110
1, 73665, Note_off_c, 0, 63, 110
1, 73676, Note_on_c, 0, 62, 114
1, 73771, Note_off_c, 0, 62, 114
1, 73775, Note_on_c, 0, 61, 112
1, 73853, Note_off_c, 0, 61, 112
1, 73860, Note_on_c, 0, 60, 104
1, 73916, Note_off_c, 0, 60, 104
1, 73920, Note_on_c, 0, 59, 105
1, 73994, Note_off_c, 0, 59, 105
1, 74003, Note_on_c, 0, 57, 106
1, 74065, Note_off_c, 0, 57, 106
1, 74071, Note_on_c, 0, 56, 109
1, 74212, Note_off_c, 0, 56, 109
1, 74250, Note_on_c, 0, 59, 107
1, 74314, Note_off_c, 0, 59, 107
1, 74321, Note_on_c, 0, 61, 102
1, 74405, Note_off_c, 0, 61, 102
1, 74469, Note_on_c, 0, 71, 100
1, 74505, Note_off_c, 0, 71, 100
1, 74508, Note_on_c, 0, 73, 99
1, 74568, Note_off_c, 0, 73, 99
1, 74574, Note_on_c, 0, 73, 99
1, 74608, Note_off_c, 0, 73, 99
1, 74611, Note_on_c, 0, 74, 87
1, 74636, Note_off_c, 0, 74, 87
1, 74639, Note_on_c, 0, 73, 87
1, 74725, Note_off_c, 0, 73, 87
1, 74746, Note_on_c, 0, 73, 89
1, 74793, Note_off_c, 0, 73, 89
1, 74795, Note_on_c, 0, 73, 102
1, 74820, Note_off_c, 0, 73, 102
1, 74824, Note_on_c, 0, 74, 101
1, 74849, Note_off_c, 0, 74, 101
1, 74853, Note_on_c, 0, 73, 101
1, 74884, Note_off_c, 0, 73, 101
1, 74885, Note_on_c, 0, 74, 93
1, 74931, Note_off_c, 0, 74, 93
1, 74934, Note_on_c, 0, 73, 89
1, 74993, Note_off_c, 0, 73, 89
1, 74999, Note_on_c, 0, 74, 94
1, 75040, Note_off_c, 0, 74, 94
1, 75044, Note_on_c, 0, 73, 90
1, 75085, Note_off_c, 0, 73, 90
1, 75087, Note_on_c, 0, 74, 99
1, 75142, Note_off_c, 0, 74, 99
1, 75147, Note_on_c, 0, 73, 89
1, 75196, Note_off_c, 0, 73, 89
1, 76409, Note_on_c, 0, 74, 98
1, 76512, Note_off_c, 0, 74, 98
1, 76580, Note_on_c, 0, 71, 110
1, 76680, Note_off_c, 0, 71, 110
1, 76707, Note_on_c, 0, 67, 103
1, 76772, Note_off_c, 0, 67, 103
1, 76809, Note_on_c, 0, 65, 115
1, 76877, Note_off_c, 0, 65, 115
1, 76907, Note_on_c, 0, 69, 110
1, 76988, Note_off_c, 0, 69, 110
1, 77107, Note_on_c, 0, 67, 113
1, 77181, Note_off_c, 0, 67, 113
1, 77293, Note_on_c, 0, 64, 103
1, 77383, Note_off_c, 0, 64, 103
1, 77500, Note_on_c, 0, 60, 110
1, 77582, Note_off_c, 0, 60, 110
1, 77674, Note_on_c, 0, 64, 109
1, 77744, Note_off_c, 0, 64, 109
1, 77846, Note_on_c, 0, 67, 106
1, 77927, Note_off_c, 0, 67, 106
1, 77965, Note_on_c, 0, 68, 106
1, 78089, Note_off_c, 0, 68, 106
1, 78093, Note_on_c, 0, 65, 110
1, 78178, Note_off_c, 0, 65, 110
1, 78269, Note_on_c, 0, 66, 102
1, 78360, Note_off_c, 0, 66, 102
1, 78445, Note_on_c, 0, 70, 112
1, 78542, Note_off_c, 0, 70, 112
1, 78624, Note_on_c, 0, 67, 87
1, 78670, Note_off_c, 0, 67, 87
1, 78729, Note_on_c, 0, 68, 102
1, 78805, Note_off_c, 0, 68, 102
1, 78928, Note_on_c, 0, 70, 96
1, 79004, Note_off_c, 0, 70, 96
1, 79100, Note_on_c, 0, 69, 102
1, 79156, Note_off_c, 0, 69, 102
1, 79172, Note_on_c, 0, 71, 107
1, 79275, Note_off_c, 0, 71, 107
1, 79280, Note_on_c, 0, 73, 96
1, 79355, Note_off_c, 0, 73, 96
1, 79496, Note_on_c, 0, 70, 108
1, 79590, Note_off_c, 0, 70, 108
1, 79677, Note_on_c, 0, 49, 106
1, 79878, Note_off_c, 0, 49, 106
1, 79885, Note_on_c, 0, 54, 101
1, 80497, Note_off_c, 0, 54, 101
1, 80499, Note_on_c, 0, 53, 107
1, 80570, Note_off_c, 0, 53, 107
1, 80574, Note_on_c, 0, 51, 106
1, 80659, Note_off_c, 0, 51, 106
1, 80663, Note_on_c, 0, 50, 104
1, 80754, Note_off_c, 0, 50, 104
1, 80762, Note_on_c, 0, 51, 102
1, 80832, Note_off_c, 0, 51, 102
1, 80836, Note_on_c, 0, 53, 110
1, 80938, Note_off_c, 0, 53, 110
1, 80942, Note_on_c, 0, 54, 107
1, 81044, Note_off_c, 0, 54, 107
1, 81051, Note_on_c, 0, 51, 109
1, 81140, Note_off_c, 0, 51, 109
1, 81156, Note_on_c, 0, 44, 116
1, 81272, Note_off_c, 0, 44, 116
1, 82011, Note_on_c, 0, 57, 113
1, 82082, Note_off_c, 0, 57, 113
1, 82093, Note_on_c, 0, 56, 114
1, 82163, Note_off_c, 0, 56, 114
1, 82179, Note_on_c, 0, 54, 115
1, 82277, Note_off_c, 0, 54, 115
1, 82277, Note_on_c, 0, 56, 116
1, 82380, Note_off_c, 0, 56, 116
1, 82385, Note_on_c, 0, 57, 113
1, 82455, Note_on_c, 0, 59, 106
1, 82455, Note_off_c, 0, 57, 113
1, 82545, Note_off_c, 0, 59, 106
1, 82551, Note_on_c, 0, 56, 112
1, 82597, Note_off_c, 0, 56, 112
1, 82605, Note_on_c, 0, 57, 112
1, 82664, Note_off_c, 0, 57, 112
1, 82670, Note_on_c, 0, 56, 115
1, 82748, Note_off_c, 0, 56, 115
1, 82757, Note_on_c, 0, 54, 112
1, 82879, Note_off_c, 0, 54, 112
1, 82880, Note_on_c, 0, 52, 113
1, 82940, Note_off_c, 0, 52, 113
1, 82943, Note_on_c, 0, 53, 113
1, 83023, Note_off_c, 0, 53, 113
1, 83029, Note_on_c, 0, 52, 121
1, 83101, Note_off_c, 0, 52, 121
1, 83104, Note_on_c, 0, 51, 125
1, 83167, Note_off_c, 0, 51, 125
1, 83176, Note_on_c, 0, 50, 119
1, 83305, Note_off_c, 0, 50, 119
1, 83313, Note_on_c, 0, 49, 110
1, 83414, Note_off_c, 0, 49, 110
1, 83415, Note_on_c, 0, 51, 109
1, 83477, Note_off_c, 0, 51, 109
1, 83485, Note_on_c, 0, 53, 112
1, 83565, Note_off_c, 0, 53, 112
1, 83578, Note_on_c, 0, 55, 106
1, 83657, Note_off_c, 0, 55, 106
1, 83666, Note_on_c, 0, 56, 105
1, 83737, Note_off_c, 0, 56, 105
1, 83754, Note_on_c, 0, 57, 110
1, 83842, Note_off_c, 0, 57, 110
1, 83857, Note_on_c, 0, 60, 116
1, 83941, Note_off_c, 0, 60, 116
1, 83944, Note_on_c, 0, 61, 109
1, 84033, Note_off_c, 0, 61, 109
1, 84043, Note_on_c, 0, 58, 102
1, 84148, Note_off_c, 0, 58, 102
1, 84156, Note_on_c, 0, 52, 105
1, 84238, Note_off_c, 0, 52, 105
1, 84243, Note_on_c, 0, 53, 105
1, 84322, Note_off_c, 0, 53, 105
1, 84334, Note_on_c, 0, 56, 110
1, 84424, Note_off_c, 0, 56, 110
1, 84427, Note_on_c, 0, 55, 109
1, 84507, Note_off_c, 0, 55, 109
1, 84522, Note_on_c, 0, 51, 106
1, 84624, Note_off_c, 0, 51, 106
1, 85235, Note_on_c, 0, 51, 113
1, 85336, Note_off_c, 0, 51, 113
1, 85348, Note_on_c, 0, 45, 122
1, 85430, Note_off_c, 0, 45, 122
1, 85444, Note_on_c, 0, 51, 111
1, 85501, Note_off_c, 0, 51, 111
1, 85512, Note_on_c, 0, 56, 111
1, 85612, Note_off_c, 0, 56, 111
1, 85613, Note_on_c, 0, 55, 109
1, 85687, Note_off_c, 0, 55, 109
1, 85699, Note_on_c, 0, 53, 114
1, 85770, Note_off_c, 0, 53, 114
1, 85778, Note_on_c, 0, 54, 109
1, 85875, Note_off_c, 0, 54, 109
1, 85885, Note_on_c, 0, 49, 106
1, 85977, Note_off_c, 0, 49, 106
1, 85980, Note_on_c, 0, 50, 111
1, 86047, Note_off_c, 0, 50, 111
1, 86067, Note_on_c, 0, 59, 111
1, 86153, Note_off_c, 0, 59, 111
1, 86164, Note_on_c, 0, 58, 103
1, 86261, Note_off_c, 0, 58, 103
1, 86271, Note_on_c, 0, 56, 113
1, 86353, Note_off_c, 0, 56, 113
1, 86360, Note_on_c, 0, 57, 114
1, 86429, Note_off_c, 0, 57, 114
1, 86443, Note_on_c, 0, 53, 111
1, 86541, Note_off_c, 0, 53, 111
1, 86544, Note_on_c, 0, 54, 110
1, 86612, Note_off_c, 0, 54, 110
1, 86637, Note_on_c, 0, 58, 101
1, 86725, Note_off_c, 0, 58, 101
1, 86735, Note_on_c, 0, 56, 112
1, 86811, Note_off_c, 0, 56, 112
1, 86814, Note_on_c, 0, 57, 107
1, 86892, Note_off_c, 0, 57, 107
1, 86915, Note_on_c, 0, 61, 106
1, 87013, Note_off_c, 0, 61, 106
1, 87018, Note_on_c, 0, 58, 104
1, 87114, Note_off_c, 0, 58, 104
1, 87123, Note_on_c, 0, 59, 109
1, 87194, Note_off_c, 0, 59, 109
1, 87213, Note_on_c, 0, 63, 111
1, 87303, Note_off_c, 0, 63, 111
1, 87316, Note_on_c, 0, 58, 109
1, 87386, Note_off_c, 0, 58, 109
1, 87397, Note_on_c, 0, 62, 111
1, 87471, Note_off_c, 0, 62, 111
1, 87485, Note_on_c, 0, 59, 108
1, 87581, Note_off_c, 0, 59, 108
1, 87585, Note_on_c, 0, 60, 113
1, 87677, Note_off_c, 0, 60, 113
1, 87682, Note_on_c, 0, 61, 108
1, 87761, Note_off_c, 0, 61, 108
1, 87780, Note_on_c, 0, 64, 102
1, 87853, Note_off_c, 0, 64, 102
1, 87874, Note_on_c, 0, 68, 104
1, 87962, Note_off_c, 0, 68, 104
1, 88001, Note_on_c, 0, 65, 101
1, 88046, Note_off_c, 0, 65, 101
1, 88047, Note_on_c, 0, 66, 95
1, 88104, Note_off_c, 0, 66, 95
1, 88156, Note_on_c, 0, 70, 102
1, 88230, Note_off_c, 0, 70, 102
1, 88275, Note_on_c, 0, 68, 88
1, 88353, Note_off_c, 0, 68, 88
1, 88372, Note_on_c, 0, 71, 108
1, 88448, Note_off_c, 0, 71, 108
1, 88462, Note_on_c, 0, 70, 95
1, 88490, Note_off_c, 0, 70, 95
1, 88496, Note_on_c, 0, 68, 89
1, 88577, Note_off_c, 0, 68, 89
1, 88641, Note_on_c, 0, 72, 109
1, 88719, Note_off_c, 0, 72, 109
1, 88722, Note_on_c, 0, 74, 97
1, 88789, Note_off_c, 0, 74, 97
1, 88813, Note_on_c, 0, 71, 107
1, 88910, Note_off_c, 0, 71, 107
1, 88918, Note_on_c, 0, 70, 90
1, 88983, Note_off_c, 0, 70, 90
1, 88994, Note_on_c, 0, 71, 106
1, 89103, Note_off_c, 0, 71, 106
1, 89756, Note_on_c, 0, 74, 108
1, 89839, Note_off_c, 0, 74, 108
1, 89842, Note_on_c, 0, 75, 107
1, 89923, Note_off_c, 0, 75, 107
1, 89930, Note_on_c, 0, 75, 96
1, 89990, Note_off_c, 0, 75, 96
1, 89994, Note_on_c, 0, 74, 97
1, 90058, Note_off_c, 0, 74, 97
1, 90063, Note_on_c, 0, 73, 101
1, 90128, Note_off_c, 0, 73, 101
1, 90131, Note_on_c, 0, 72, 103
1, 90205, Note_off_c, 0, 72, 103
1, 90277, Note_on_c, 0, 66, 104
1, 90351, Note_off_c, 0, 66, 104
1, 90363, Note_on_c, 0, 70, 103
1, 90460, Note_off_c, 0, 70, 103
1, 90466, Note_on_c, 0, 71, 112
1, 90558, Note_off_c, 0, 71, 112
1, 90562, Note_on_c, 0, 70, 101
1, 90609, Note_off_c, 0, 70, 101
1, 90614, Note_on_c, 0, 71, 101
1, 90671, Note_off_c, 0, 71, 101
1, 90676, Note_on_c, 0, 69, 105
1, 90744, Note_off_c, 0, 69, 105
1, 90746, Note_on_c, 0, 68, 98
1, 90827, Note_off_c, 0, 68, 98
1, 90934, Note_on_c, 0, 70, 98
1, 91038, Note_off_c, 0, 70, 98
1, 91061, Note_on_c, 0, 67, 95
1, 91137, Note_off_c, 0, 67, 95
1, 91142, Note_on_c, 0, 68, 93
1, 91220, Note_off_c, 0, 68, 93
1, 91228, Note_on_c, 0, 69, 106
1, 91304, Note_off_c, 0, 69, 106
1, 91441, Note_on_c, 0, 61, 101
1, 91476, Note_off_c, 0, 61, 101
1, 91511, Note_on_c, 0, 67, 109
1, 91566, Note_off_c, 0, 67, 109
1, 91573, Note_on_c, 0, 68, 105
1, 91626, Note_off_c, 0, 68, 105
1, 91632, Note_on_c, 0, 68, 103
1, 91707, Note_off_c, 0, 68, 103
1, 91717, Note_on_c, 0, 67, 101
1, 91797, Note_off_c, 0, 67, 101
1, 91799, Note_on_c, 0, 66, 102
1, 91870, Note_off_c, 0, 66, 102
1, 91874, Note_on_c, 0, 65, 108
1, 91957, Note_off_c, 0, 65, 108
1, 91959, Note_on_c, 0, 64, 108
1, 92077, Note_off_c, 0, 64, 108
1, 92088, Note_on_c, 0, 63, 111
1, 92154, Note_off_c, 0, 63, 111
1, 92163, Note_on_c, 0, 62, 114
1, 92271, Note_off_c, 0, 62, 114
1, 92273, Note_on_c, 0, 61, 109
1, 92356, Note_off_c, 0, 61, 109
1, 92367, Note_on_c, 0, 60, 108
1, 92455, Note_off_c, 0, 60, 108
1, 92489, Note_on_c, 0, 58, 100
1, 92553, Note_off_c, 0, 58, 100
1, 92570, Note_on_c, 0, 60, 110
1, 92644, Note_off_c, 0, 60, 110
1, 92655, Note_on_c, 0, 62, 101
1, 92695, Note_off_c, 0, 62, 101
1, 92706, Note_on_c, 0, 63, 102
1, 92745, Note_off_c, 0, 63, 102
1, 92751, Note_on_c, 0, 65, 107
1, 92823, Note_off_c, 0, 65, 107
1, 92831, Note_on_c, 0, 63, 112
1, 92950, Note_off_c, 0, 63, 112
1, 92952, Note_on_c, 0, 65, 109
1, 93069, Note_off_c, 0, 65, 109
1, 93074, Note_on_c, 0, 66, 104
1, 93159, Note_off_c, 0, 66, 104
1, 93166, Note_on_c, 0, 68, 98
1, 93214, Note_off_c, 0, 68, 98
1, 93220, Note_on_c, 0, 70, 109
1, 93300, Note_off_c, 0, 70, 109
1, 93350, Note_on_c, 0, 70, 103
1, 93396, Note_off_c, 0, 70, 103
1, 93399, Note_on_c, 0, 72, 96
1, 93493, Note_off_c, 0, 72, 96
1, 93509, Note_on_c, 0, 75, 102
1, 93625, Note_off_c, 0, 75, 102
1, 93651, Note_on_c, 0, 71, 105
1, 93725, Note_off_c, 0, 71, 105
1, 93740, Note_on_c, 0, 72, 96
1, 93844, Note_off_c, 0, 72, 96
1, 94196, Note_on_c, 0, 68, 112
1, 94266, Note_off_c, 0, 68, 112
1, 94390, Note_on_c, 0, 81, 101
1, 94496, Note_off_c, 0, 81, 101
1, 94580, Note_on_c, 0, 78, 98
1, 94666, Note_off_c, 0, 78, 98
1, 94668, Note_on_c, 0, 76, 94
1, 94740, Note_off_c, 0, 76, 94
1, 94744, Note_on_c, 0, 77, 96
1, 94857, Note_off_c, 0, 77, 96
1, 94902, Note_on_c, 0, 68, 105
1, 94955, Note_off_c, 0, 68, 105
1, 94959, Note_on_c, 0, 70, 103
1, 95015, Note_off_c, 0, 70, 103
1, 95018, Note_on_c, 0, 73, 99
1, 95435, Note_off_c, 0, 73, 99
1, 95450, Note_on_c, 0, 70, 92
1, 95498, Note_off_c, 0, 70, 92
1, 95514, Note_on_c, 0, 75, 105
1, 95785, Note_off_c, 0, 75, 105
1, 95799, Note_on_c, 0, 73, 107
1, 95876, Note_off_c, 0, 73, 107
1, 95882, Note_on_c, 0, 75, 106
1, 96112, Note_off_c, 0, 75, 106
1, 96124, Note_on_c, 0, 77, 104
1, 96309, Note_off_c, 0, 77, 104
1, 97073, Note_on_c, 0, 76, 105
1, 97155, Note_off_c, 0, 76, 105
1, 97164, Note_on_c, 0, 76, 100
1, 97254, Note_off_c, 0, 76, 100
1, 97258, Note_on_c, 0, 77, 108
1, 97332, Note_off_c, 0, 77, 108
1, 97344, Note_on_c, 0, 78, 105
1, 97401, Note_off_c, 0, 78, 105
1, 97416, Note_on_c, 0, 79, 98
1, 97559, Note_off_c, 0, 79, 98
1, 97564, Note_on_c, 0, 78, 100
1, 97631, Note_off_c, 0, 78, 100
1, 97636, Note_on_c, 0, 79, 100
1, 97738, Note_off_c, 0, 79, 100
1, 97740, Note_on_c, 0, 82, 100
1, 97827, Note_off_c, 0, 82, 100
1, 97829, Note_on_c, 0, 84, 97
1, 97926, Note_off_c, 0, 84, 97
1, 97933, Note_on_c, 0, 82, 99
1, 98007, Note_off_c, 0, 82, 99
1, 98015, Note_on_c, 0, 80, 103
1, 98129, Note_off_c, 0, 80, 103
1, 98137, Note_on_c, 0, 78, 98
1, 98261, Note_off_c, 0, 78, 98
1, 98263, Note_on_c, 0, 77, 96
1, 98377, Note_off_c, 0, 77, 96
1, 98381, Note_on_c, 0, 76, 98
1, 98458, Note_off_c, 0, 76, 98
1, 98462, Note_on_c, 0, 75, 101
1, 98515, Note_off_c, 0, 75, 101
1, 98518, Note_on_c, 0, 74, 99
1, 98628, Note_off_c, 0, 74, 99
1, 98638, Note_on_c, 0, 73, 100
1, 98708, Note_off_c, 0, 73, 100
1, 98715, Note_on_c, 0, 74, 94
1, 98779, Note_off_c, 0, 74, 94
1, 98786, Note_on_c, 0, 76, 94
1, 98905, Note_off_c, 0, 76, 94
1, 98918, Note_on_c, 0, 80, 95
1, 98982, Note_off_c, 0, 80, 95
1, 98990, Note_on_c, 0, 82, 98
1, 99066, Note_off_c, 0, 82, 98
1, 99070, Note_on_c, 0, 81, 98
1, 99203, Note_off_c, 0, 81, 98
1, 99209, Note_on_c, 0, 80, 93
1, 99253, Note_off_c, 0, 80, 93
1, 99387, Note_on_c, 0, 76, 94
1, 99464, Note_off_c, 0, 76, 94
1, 99469, Note_on_c, 0, 74, 99
1, 99559, Note_off_c, 0, 74, 99
1, 99564, Note_on_c, 0, 73, 97
1, 99666, Note_off_c, 0, 73, 97
1, 99674, Note_on_c, 0, 71, 104
1, 99809, Note_off_c, 0, 71, 104
1, 99820, Note_on_c, 0, 70, 93
1, 99901, Note_off_c, 0, 70, 93
1, 99905, Note_on_c, 0, 68, 94
1, 99973, Note_off_c, 0, 68, 94
1, 99981, Note_on_c, 0, 69, 105
1, 100041, Note_off_c, 0, 69, 105
1, 100157, Note_on_c, 0, 65, 107
1, 100198, Note_off_c, 0, 65, 107
1, 100206, Note_on_c, 0, 66, 94
1, 100251, Note_off_c, 0, 66, 94
1, 100272, Note_on_c, 0, 70, 108
1, 100358, Note_off_c, 0, 70, 108
1, 100393, Note_on_c, 0, 67, 98
1, 100450, Note_off_c, 0, 67, 98
1, 100458, Note_on_c, 0, 68, 91
1, 100521, Note_off_c, 0, 68, 91
1, 100539, Note_on_c, 0, 69, 104
1, 100644, Note_off_c, 0, 69, 104
1, 100667, Note_on_c, 0, 65, 96
1, 100719, Note_off_c, 0, 65, 96
1, 100725, Note_on_c, 0, 64, 105
1, 100799, Note_off_c, 0, 64, 105
1, 100822, Note_on_c, 0, 62, 102
1, 100878, Note_off_c, 0, 62, 102
1, 100887, Note_on_c, 0, 66, 98
1, 100910, Note_off_c, 0, 66, 98
1, 100914, Note_on_c, 0, 67, 105
1, 101026, Note_off_c, 0, 67, 105
1, 101096, Note_on_c, 0, 65, 102
1, 101147, Note_off_c, 0, 65, 102
1, 101155, Note_on_c, 0, 67, 111
1, 101233, Note_off_c, 0, 67, 111
1, 101235, Note_on_c, 0, 65, 112
1, 101291, Note_off_c, 0, 65, 112
1, 101294, Note_on_c, 0, 64, 109
1, 101359, Note_off_c, 0, 64, 109
1, 101368, Note_on_c, 0, 60, 115
1, 101425, Note_off_c, 0, 60, 115
1, 101442, Note_on_c, 0, 57, 109
1, 101578, Note_off_c, 0, 57, 109
1, 101582, Note_on_c, 0, 55, 105
1, 101650, Note_off_c, 0, 55, 105
1, 101661, Note_on_c, 0, 60, 119
1, 101843, Note_off_c, 0, 60, 119
1, 101948, Note_on_c, 0, 63, 101
1, 102052, Note_off_c, 0, 63, 101
1, 102060, Note_on_c, 0, 64, 101
1, 102226, Note_off_c, 0, 64, 101
1, 102247, Note_on_c, 0, 67, 94
1, 102327, Note_off_c, 0, 67, 94
1, 102443, Note_on_c, 0, 65, 105
1, 102554, Note_off_c, 0, 65, 105
1, 102803, Note_on_c, 0, 66, 102
1, 102840, Note_off_c, 0, 66, 102
1, 102853, Note_on_c, 0, 68, 108
1, 103015, Note_off_c, 0, 68, 108
1, 103028, Note_on_c, 0, 73, 94
1, 103181, Note_off_c, 0, 73, 94
1, 103505, Note_on_c, 0, 61, 100
1, 103766, Note_off_c, 0, 61, 100
1, 103783, Note_on_c, 0, 65, 103
1, 103901, Note_off_c, 0, 65, 103
1, 104244, Note_on_c, 0, 65, 109
1, 104368, Note_off_c, 0, 65, 109
1, 104373, Note_on_c, 0, 66, 99
1, 104502, Note_off_c, 0, 66, 99
1, 104522, Note_on_c, 0, 70, 92
1, 104651, Note_off_c, 0, 70, 92
1, 105014, Note_on_c, 0, 60, 110
1, 105262, Note_off_c, 0, 60, 110
1, 105279, Note_on_c, 0, 64, 108
1, 105415, Note_off_c, 0, 64, 108
1, 105758, Note_on_c, 0, 64, 107
1, 105833, Note_off_c, 0, 64, 107
1, 105835, Note_on_c, 0, 65, 104
1, 106037, Note_off_c, 0, 65, 104
1, 106040, Note_on_c, 0, 69, 101
1, 106156, Note_off_c, 0, 69, 101
1, 106578, Note_on_c, 0, 57, 103
1, 106748, Note_off_c, 0, 57, 103
1, 106762, Note_on_c, 0, 66, 106
1, 106862, Note_off_c, 0, 66, 106
1, 106958, Note_on_c, 0, 62, 113
1, 107125, Note_off_c, 0, 62, 113
1, 107136, Note_on_c, 0, 66, 104
1, 107246, Note_off_c, 0, 66, 104
1, 107328, Note_on_c, 0, 64, 103
1, 107424, Note_off_c, 0, 64, 103
1, 107430, Note_on_c, 0, 65, 97
1, 107478, Note_off_c, 0, 65, 97
1, 107502, Note_on_c, 0, 68, 95
1, 107638, Note_off_c, 0, 68, 95
1, 108047, Note_on_c, 0, 63, 106
1, 108298, Note_off_c, 0, 63, 106
1, 108302, Note_on_c, 0, 67, 103
1, 108401, Note_off_c, 0, 67, 103
1, 108882, Note_on_c, 0, 67, 106
1, 108967, Note_off_c, 0, 67, 106
1, 108967, Note_on_c, 0, 69, 100
1, 109082, Note_off_c, 0, 69, 100
1, 109090, Note_on_c, 0, 73, 91
1, 109192, Note_off_c, 0, 73, 91
1, 109277, Note_on_c, 0, 51, 107
1, 109462, Note_off_c, 0, 51, 107
1, 109468, Note_on_c, 0, 55, 110
1, 109581, Note_off_c, 0, 55, 110
1, 109598, Note_on_c, 0, 51, 119
1, 109637, Note_off_c, 0, 51, 119
1, 109676, Note_on_c, 0, 56, 100
1, 109713, Note_off_c, 0, 56, 100
1, 109717, Note_on_c, 0, 57, 112
1, 109813, Note_off_c, 0, 57, 112
1, 109850, Note_on_c, 0, 61, 101
1, 109930, Note_off_c, 0, 61, 101
1, 109936, Note_on_c, 0, 63, 108
1, 110206, Note_off_c, 0, 63, 108
1, 110217, Note_on_c, 0, 67, 102
1, 110331, Note_off_c, 0, 67, 102
1, 110341, Note_on_c, 0, 63, 102
1, 110403, Note_off_c, 0, 63, 102
1, 110408, Note_on_c, 0, 67, 101
1, 110459, Note_off_c, 0, 67, 101
1, 110464, Note_on_c, 0, 69, 98
1, 110573, Note_off_c, 0, 69, 98
1, 110579, Note_on_c, 0, 73, 96
1, 110669, Note_off_c, 0, 73, 96
1, 110701, Note_on_c, 0, 51, 113
1, 110756, Note_off_c, 0, 51, 113
1, 110768, Note_on_c, 0, 52, 108
1, 110962, Note_off_c, 0, 52, 108
1, 110970, Note_on_c, 0, 56, 107
1, 111075, Note_off_c, 0, 56, 107
1, 111098, Note_on_c, 0, 52, 111
1, 111155, Note_off_c, 0, 52, 111
1, 111158, Note_on_c, 0, 56, 106
1, 111192, Note_off_c, 0, 56, 106
1, 111198, Note_on_c, 0, 58, 103
1, 111340, Note_off_c, 0, 58, 103
1, 111342, Note_on_c, 0, 62, 110
1, 111440, Note_off_c, 0, 62, 110
1, 111443, Note_on_c, 0, 64, 110
1, 111534, Note_off_c, 0, 64, 110
1, 112405, Note_on_c, 0, 57, 112
1, 112494, Note_off_c, 0, 57, 112
1, 112500, Note_on_c, 0, 61, 100
1, 112583, Note_off_c, 0, 61, 100
1, 112590, Note_on_c, 0, 56, 109
1, 112650, Note_off_c, 0, 56, 109
1, 112675, Note_on_c, 0, 63, 114
1, 112772, Note_off_c, 0, 63, 114
1, 112775, Note_on_c, 0, 61, 108
1, 112840, Note_off_c, 0, 61, 108
1, 112843, Note_on_c, 0, 59, 110
1, 112891, Note_off_c, 0, 59, 110
1, 112892, Note_on_c, 0, 57, 109
1, 112960, Note_off_c, 0, 57, 109
1, 112965, Note_on_c, 0, 53, 116
1, 113042, Note_off_c, 0, 53, 116
1, 113053, Note_on_c, 0, 55, 115
1, 113129, Note_off_c, 0, 55, 115
1, 113150, Note_on_c, 0, 59, 108
1, 113217, Note_off_c, 0, 59, 108
1, 113244, Note_on_c, 0, 61, 111
1, 113314, Note_off_c, 0, 61, 111
1, 113322, Note_on_c, 0, 65, 98
1, 113423, Note_off_c, 0, 65, 98
1, 113439, Note_on_c, 0, 71, 104
1, 113504, Note_off_c, 0, 71, 104
1, 113508, Note_on_c, 0, 67, 109
1, 113592, Note_off_c, 0, 67, 109
1, 113607, Note_on_c, 0, 65, 108
1, 113714, Note_off_c, 0, 65, 108
1, 113723, Note_on_c, 0, 61, 108
1, 113810, Note_off_c, 0, 61, 108
1, 113825, Note_on_c, 0, 59, 107
1, 113896, Note_off_c, 0, 59, 107
1, 113898, Note_on_c, 0, 55, 109
1, 113975, Note_off_c, 0, 55, 109
1, 113980, Note_on_c, 0, 53, 111
1, 114090, Note_off_c, 0, 53, 111
1, 114110, Note_on_c, 0, 49, 115
1, 114212, Note_off_c, 0, 49, 115
1, 114215, Note_on_c, 0, 48, 121
1, 114550, Note_off_c, 0, 48, 121
1, 115015, Note_on_c, 0, 76, 109
1, 115054, Note_off_c, 0, 76, 109
1, 115093, Note_on_c, 0, 74, 106
1, 115176, Note_off_c, 0, 74, 106
1, 115179, Note_on_c, 0, 72, 105
1, 115263, Note_off_c, 0, 72, 105
1, 115268, Note_on_c, 0, 70, 106
1, 115355, Note_off_c, 0, 70, 106
1, 115358, Note_on_c, 0, 68, 108
1, 115466, Note_off_c, 0, 68, 108
1, 115471, Note_on_c, 0, 66, 109
1, 115548, Note_off_c, 0, 66, 109
1, 115549, Note_on_c, 0, 64, 118
1, 115641, Note_off_c, 0, 64, 118
1, 115642, Note_on_c, 0, 62, 120
1, 115749, Note_off_c, 0, 62, 120
1, 115755, Note_on_c, 0, 60, 120
1, 115859, Note_off_c, 0, 60, 120
1, 116343, Note_on_c, 0, 75, 103
1, 116405, Note_off_c, 0, 75, 103
1, 116445, Note_on_c, 0, 73, 100
1, 116520, Note_off_c, 0, 73, 100
1, 116534, Note_on_c, 0, 72, 107
1, 116575, Note_off_c, 0, 72, 107
1, 116583, Note_on_c, 0, 71, 107
1, 116605, Note_off_c, 0, 71, 107
1, 116625, Note_on_c, 0, 69, 111
1, 116700, Note_off_c, 0, 69, 111
1, 116703, Note_on_c, 0, 67, 112
1, 116791, Note_off_c, 0, 67, 112
1, 116824, Note_on_c, 0, 73, 109
1, 116913, Note_off_c, 0, 73, 109
1, 116915, Note_on_c, 0, 71, 108
1, 116998, Note_off_c, 0, 71, 108
1, 117021, Note_on_c, 0, 70, 104
1, 117111, Note_off_c, 0, 70, 104
1, 117111, Note_on_c, 0, 68, 103
1, 117220, Note_off_c, 0, 68, 103
1, 117222, Note_on_c, 0, 66, 97
1, 117308, Note_off_c, 0, 66, 97
1, 117317, Note_on_c, 0, 72, 102
1, 117423, Note_off_c, 0, 72, 102
1, 117442, Note_on_c, 0, 70, 105
1, 117524, Note_off_c, 0, 70, 105
1, 117526, Note_on_c, 0, 68, 108
1, 117581, Note_off_c, 0, 68, 108
1, 117608, Note_on_c, 0, 66, 116
1, 117682, Note_off_c, 0, 66, 116
1, 117684, Note_on_c, 0, 64, 114
1, 117788, Note_off_c, 0, 64, 114
1, 117795, Note_on_c, 0, 71, 104
1, 117882, Note_off_c, 0, 71, 104
1, 117886, Note_on_c, 0, 70, 105
1, 117969, Note_off_c, 0, 70, 105
1, 117981, Note_on_c, 0, 67, 108
1, 118065, Note_off_c, 0, 67, 108
1, 118069, Note_on_c, 0, 65, 110
1, 118205, Note_off_c, 0, 65, 110
1, 118235, Note_on_c, 0, 70, 109
1, 118313, Note_off_c, 0, 70, 109
1, 118317, Note_on_c, 0, 67, 111
1, 118437, Note_off_c, 0, 67, 111
1, 118444, Note_on_c, 0, 68, 97
1, 118487, Note_off_c, 0, 68, 97
1, 118492, Note_on_c, 0, 69, 105
1, 118583, Note_off_c, 0, 69, 105
1, 118646, Note_on_c, 0, 61, 106
1, 118707, Note_off_c, 0, 61, 106
1, 118712, Note_on_c, 0, 64, 99
1, 118769, Note_off_c, 0, 64, 99
1, 118792, Note_on_c, 0, 68, 101
1, 118887, Note_off_c, 0, 68, 101
1, 118896, Note_on_c, 0, 65, 94
1, 118954, Note_off_c, 0, 65, 94
1, 118965, Note_on_c, 0, 66, 94
1, 119022, Note_off_c, 0, 66, 94
1, 119052, Note_on_c, 0, 70, 107
1, 119149, Note_off_c, 0, 70, 107
1, 119152, Note_on_c, 0, 68, 100
1, 119236, Note_off_c, 0, 68, 100
1, 119238, Note_on_c, 0, 69, 102
1, 119347, Note_off_c, 0, 69, 102
1, 119349, Note_on_c, 0, 68, 109
1, 119441, Note_off_c, 0, 68, 109
1, 119449, Note_on_c, 0, 67, 108
1, 119551, Note_off_c, 0, 67, 108
1, 119555, Note_on_c, 0, 66, 109
1, 119626, Note_off_c, 0, 66, 109
1, 119630, Note_on_c, 0, 65, 114
1, 119717, Note_off_c, 0, 65, 114
1, 119720, Note_on_c, 0, 64, 113
1, 119803, Note_off_c, 0, 64, 113
1, 119814, Note_on_c, 0, 63, 121
1, 119875, Note_off_c, 0, 63, 121
1, 119887, Note_on_c, 0, 62, 117
1, 119989, Note_off_c, 0, 62, 117
1, 119991, Note_on_c, 0, 61, 111
1, 120072, Note_off_c, 0, 61, 111
1, 120089, Note_on_c, 0, 63, 119
1, 120186, Note_off_c, 0, 63, 119
1, 120202, Note_on_c, 0, 65, 108
1, 120282, Note_off_c, 0, 65, 108
1, 120295, Note_on_c, 0, 67, 105
1, 120371, Note_off_c, 0, 67, 105
1, 120386, Note_on_c, 0, 69, 106
1, 120479, Note_off_c, 0, 69, 106
1, 120494, Note_on_c, 0, 63, 112
1, 120575, Note_off_c, 0, 63, 112
1, 120579, Note_on_c, 0, 65, 100
1, 120644, Note_off_c, 0, 65, 100
1, 120655, Note_on_c, 0, 67, 108
1, 120738, Note_off_c, 0, 67, 108
1, 120747, Note_on_c, 0, 69, 101
1, 120833, Note_off_c, 0, 69, 101
1, 120845, Note_on_c, 0, 71, 113
1, 120926, Note_off_c, 0, 71, 113
1, 120951, Note_on_c, 0, 65, 110
1, 121050, Note_off_c, 0, 65, 110
1, 121054, Note_on_c, 0, 67, 107
1, 121137, Note_off_c, 0, 67, 107
1, 121141, Note_on_c, 0, 69, 99
1, 121242, Note_off_c, 0, 69, 99
1, 121245, Note_on_c, 0, 71, 104
1, 121336, Note_off_c, 0, 71, 104
1, 121340, Note_on_c, 0, 73, 101
1, 121432, Note_off_c, 0, 73, 101
1, 121461, Note_on_c, 0, 67, 106
1, 121521, Note_off_c, 0, 67, 106
1, 121525, Note_on_c, 0, 69, 101
1, 121617, Note_off_c, 0, 69, 101
1, 121622, Note_on_c, 0, 71, 109
1, 121693, Note_off_c, 0, 71, 109
1, 121705, Note_on_c, 0, 73, 96
1, 121832, Note_off_c, 0, 73, 96
1, 121833, Note_on_c, 0, 75, 95
1, 121875, Note_off_c, 0, 75, 95
1, 121881, Note_on_c, 0, 76, 101
1, 121955, Note_off_c, 0, 76, 101
1, 121966, Note_on_c, 0, 69, 107
1, 122032, Note_off_c, 0, 69, 107
1, 122035, Note_on_c, 0, 71, 102
1, 122091, Note_off_c, 0, 71, 102
1, 122114, Note_on_c, 0, 73, 101
1, 122213, Note_off_c, 0, 73, 101
1, 122216, Note_on_c, 0, 75, 103
1, 122271, Note_off_c, 0, 75, 103
1, 122281, Note_on_c, 0, 77, 98
1, 122370, Note_off_c, 0, 77, 98
1, 122430, Note_on_c, 0, 79, 101
1, 122466, Note_off_c, 0, 79, 101
1, 122468, Note_on_c, 0, 81, 101
1, 122531, Note_off_c, 0, 81, 101
1, 122537, Note_on_c, 0, 82, 94
1, 122590, Note_off_c, 0, 82, 94
1, 122608, Note_on_c, 0, 85, 93
1, 122721, Note_off_c, 0, 85, 93
1, 125393, Note_on_c, 0, 48, 114
1, 125433, Note_off_c, 0, 48, 114
1, 125433, Note_on_c, 0, 50, 110
1, 125472, Note_off_c, 0, 50, 110
1, 125476, Note_on_c, 0, 54, 106
1, 125524, Note_off_c, 0, 54, 106
1, 125531, Note_on_c, 0, 58, 109
1, 125594, Note_off_c, 0, 58, 109
1, 125607, Note_on_c, 0, 61, 111
1, 125667, Note_off_c, 0, 61, 111
1, 125678, Note_on_c, 0, 64, 107
1, 125715, Note_off_c, 0, 64, 107
1, 125721, Note_on_c, 0, 67, 108
1, 125776, Note_off_c, 0, 67, 108
1, 125778, Note_on_c, 0, 68, 106
1, 125813, Note_off_c, 0, 68, 106
1, 125826, Note_on_c, 0, 72, 112
1, 125928, Note_off_c, 0, 72, 112
1, 125932, Note_on_c, 0, 73, 106
1, 125976, Note_off_c, 0, 73, 106
1, 125982, Note_on_c, 0, 74, 99
1, 126550, Note_off_c, 0, 74, 99
1, 126568, Note_on_c, 0, 71, 106
1, 126688, Note_off_c, 0, 71, 106
1, 126693, Note_on_c, 0, 68, 95
1, 126716, Note_off_c, 0, 68, 95
1, 126765, Note_on_c, 0, 74, 119
1, 126834, Note_off_c, 0, 74, 119
1, 126843, Note_on_c, 0, 75, 104
1, 127145, Note_off_c, 0, 75, 104
1, 127156, Note_on_c, 0, 72, 108
1, 127241, Note_off_c, 0, 72, 108
1, 127252, Note_on_c, 0, 68, 102
1, 127404, Note_off_c, 0, 68, 102
1, 128268, Note_on_c, 0, 44, 127
1, 128328, Note_off_c, 0, 44, 127
1, 128351, Note_on_c, 0, 51, 110
1, 128450, Note_off_c, 0, 51, 110
1, 128457, Note_on_c, 0, 44, 123
1, 128502, Note_off_c, 0, 44, 123
1, 128534, Note_on_c, 0, 51, 110
1, 128630, Note_off_c, 0, 51, 110
1, 128634, Note_on_c, 0, 58, 107
1, 128714, Note_off_c, 0, 58, 107
1, 128720, Note_on_c, 0, 56, 118
1, 128884, Note_off_c, 0, 56, 118
1, 128899, Note_on_c, 0, 48, 117
1, 129036, Note_off_c, 0, 48, 117
1, 130207, Note_on_c, 0, 50, 123
1, 130289, Note_off_c, 0, 50, 123
1, 130292, Note_on_c, 0, 45, 117
1, 130389, Note_off_c, 0, 45, 117
1, 130398, Note_on_c, 0, 57, 115
1, 130512, Note_off_c, 0, 57, 115
1, 130516, Note_on_c, 0, 56, 114
1, 130618, Note_off_c, 0, 56, 114
1, 130625, Note_on_c, 0, 55, 112
1, 130683, Note_off_c, 0, 55, 112
1, 130703, Note_on_c, 0, 54, 116
1, 130793, Note_off_c, 0, 54, 116
1, 130806, Note_on_c, 0, 53, 119
1, 130901, Note_off_c, 0, 53, 119
1, 130911, Note_on_c, 0, 52, 112
1, 130982, Note_off_c, 0, 52, 112
1, 130986, Note_on_c, 0, 51, 124
1, 131074, Note_off_c, 0, 51, 124
1, 131079, Note_on_c, 0, 53, 116
1, 131178, Note_off_c, 0, 53, 116
1, 131188, Note_on_c, 0, 54, 115
1, 131286, Note_off_c, 0, 54, 115
1, 131295, Note_on_c, 0, 56, 112
1, 131360, Note_off_c, 0, 56, 112
1, 131397, Note_on_c, 0, 60, 119
1, 131510, Note_off_c, 0, 60, 119
1, 131522, Note_on_c, 0, 57, 117
1, 131588, Note_off_c, 0, 57, 117
1, 131596, Note_on_c, 0, 58, 105
1, 131678, Note_off_c, 0, 58, 105
1, 131687, Note_on_c, 0, 60, 114
1, 131742, Note_off_c, 0, 60, 114
1, 131745, Note_on_c, 0, 61, 107
1, 131794, Note_off_c, 0, 61, 107
1, 131797, Note_on_c, 0, 63, 110
1, 131860, Note_off_c, 0, 63, 110
1, 131882, Note_on_c, 0, 66, 105
1, 131961, Note_off_c, 0, 66, 105
1, 131971, Note_on_c, 0, 68, 94
1, 132088, Note_off_c, 0, 68, 94
1, 132097, Note_on_c, 0, 71, 105
1, 132143, Note_off_c, 0, 71, 105
1, 132148, Note_on_c, 0, 72, 101
1, 132194, Note_off_c, 0, 72, 101
1, 132197, Note_on_c, 0, 75, 101
1, 132252, Note_off_c, 0, 75, 101
1, 132255, Note_on_c, 0, 73, 101
1, 132326, Note_off_c, 0, 73, 101
1, 132328, Note_on_c, 0, 72, 94
1, 132424, Note_off_c, 0, 72, 94
1, 132428, Note_on_c, 0, 68, 102
1, 132546, Note_off_c, 0, 68, 102
1, 132552, Note_on_c, 0, 69, 96
1, 132624, Note_off_c, 0, 69, 96
1, 132628, Note_on_c, 0, 72, 107
1, 132688, Note_off_c, 0, 72, 107
1, 132695, Note_on_c, 0, 71, 103
1, 132807, Note_off_c, 0, 71, 103
1, 132825, Note_on_c, 0, 69, 92
1, 132889, Note_off_c, 0, 69, 92
1, 132918, Note_on_c, 0, 70, 106
1, 132969, Note_off_c, 0, 70, 106
1, 132974, Note_on_c, 0, 69, 99
1, 133015, Note_off_c, 0, 69, 99
1, 133039, Note_on_c, 0, 64, 101
1, 133079, Note_off_c, 0, 64, 101
1, 133092, Note_on_c, 0, 65, 97
1, 133189, Note_off_c, 0, 65, 97
1, 133231, Note_on_c, 0, 68, 107
1, 133276, Note_off_c, 0, 68, 107
1, 133280, Note_on_c, 0, 67, 99
1, 133313, Note_off_c, 0, 67, 99
1, 133361, Note_on_c, 0, 65, 105
1, 133401, Note_off_c, 0, 65, 105
1, 133406, Note_on_c, 0, 66, 99
1, 133472, Note_off_c, 0, 66, 99
1, 133483, Note_on_c, 0, 67, 105
1, 133603, Note_off_c, 0, 67, 105
1, 133616, Note_on_c, 0, 63, 107
1, 133667, Note_off_c, 0, 63, 107
1, 133672, Note_on_c, 0, 62, 105
1, 133709, Note_off_c, 0, 62, 105
1, 133712, Note_on_c, 0, 64, 108
1, 133755, Note_off_c, 0, 64, 108
1, 133759, Note_on_c, 0, 65, 111
1, 133837, Note_off_c, 0, 65, 111
1, 133846, Note_on_c, 0, 61, 103
1, 133906, Note_off_c, 0, 61, 103
1, 133914, Note_on_c, 0, 60, 93
1, 133978, Note_off_c, 0, 60, 93
1, 133989, Note_on_c, 0, 58, 95
1, 134053, Note_off_c, 0, 58, 95
1, 134060, Note_on_c, 0, 63, 116
1, 134183, Note_off_c, 0, 63, 116
1, 134806, Note_on_c, 0, 73, 102
1, 134831, Note_off_c, 0, 73, 102
1, 134832, Note_on_c, 0, 74, 102
1, 134845, Note_off_c, 0, 74, 102
1, 134845, Note_on_c, 0, 73, 105
1, 134869, Note_off_c, 0, 73, 105
1, 134875, Note_on_c, 0, 71, 108
1, 134902, Note_off_c, 0, 71, 108
1, 134903, Note_on_c, 0, 69, 105
1, 134986, Note_off_c, 0, 69, 105
1, 134998, Note_on_c, 0, 68, 102
1, 135058, Note_off_c, 0, 68, 102
1, 135089, Note_on_c, 0, 67, 104
1, 135156, Note_off_c, 0, 67, 104
1, 135161, Note_on_c, 0, 66, 102
1, 135202, Note_off_c, 0, 66, 102
1, 135205, Note_on_c, 0, 65, 103
1, 135274, Note_off_c, 0, 65, 103
1, 135278, Note_on_c, 0, 64, 106
1, 135309, Note_off_c, 0, 64, 106
1, 135312, Note_on_c, 0, 63, 119
1, 135385, Note_off_c, 0, 63, 119
1, 135388, Note_on_c, 0, 62, 115
1, 135463, Note_off_c, 0, 62, 115
1, 135467, Note_on_c, 0, 61, 117
1, 135515, Note_off_c, 0, 61, 117
1, 135520, Note_on_c, 0, 60, 107
1, 135653, Note_off_c, 0, 60, 107
1, 135664, Note_on_c, 0, 61, 111
1, 135724, Note_off_c, 0, 61, 111
1, 135733, Note_on_c, 0, 62, 113
1, 135765, Note_off_c, 0, 62, 113
1, 135769, Note_on_c, 0, 64, 103
1, 135819, Note_off_c, 0, 64, 103
1, 135848, Note_on_c, 0, 70, 103
1, 135964, Note_off_c, 0, 70, 103
1, 135967, Note_on_c, 0, 68, 100
1, 136041, Note_off_c, 0, 68, 100
1, 136041, Note_on_c, 0, 69, 107
1, 136110, Note_off_c, 0, 69, 107
1, 136117, Note_on_c, 0, 65, 102
1, 136179, Note_off_c, 0, 65, 102
1, 136184, Note_on_c, 0, 64, 112
1, 136247, Note_off_c, 0, 64, 112
1, 136253, Note_on_c, 0, 62, 112
1, 136303, Note_off_c, 0, 62, 112
1, 136303, Note_on_c, 0, 68, 107
1, 136395, Note_off_c, 0, 68, 107
1, 136413, Note_on_c, 0, 65, 102
1, 136501, Note_off_c, 0, 65, 102
1, 136507, Note_on_c, 0, 66, 106
1, 136593, Note_off_c, 0, 66, 106
1, 136600, Note_on_c, 0, 70, 106
1, 136692, Note_off_c, 0, 70, 106
1, 136707, Note_on_c, 0, 65, 108
1, 136766, Note_off_c, 0, 65, 108
1, 136782, Note_on_c, 0, 63, 116
1, 136879, Note_off_c, 0, 63, 116
1, 136891, Note_on_c, 0, 62, 109
1, 136962, Note_off_c, 0, 62, 109
1, 136962, Note_on_c, 0, 60, 110
1, 137049, Note_off_c, 0, 60, 110
1, 137053, Note_on_c, 0, 59, 109
1, 137149, Note_off_c, 0, 59, 109
1, 137151, Note_on_c, 0, 62, 108
1, 137222, Note_off_c, 0, 62, 108
1, 137223, Note_on_c, 0, 65, 99
1, 137301, Note_off_c, 0, 65, 99
1, 137322, Note_on_c, 0, 68, 108
1, 137433, Note_off_c, 0, 68, 108
1, 137452, Note_on_c, 0, 67, 96
1, 137485, Note_off_c, 0, 67, 96
1, 137493, Note_on_c, 0, 66, 99
1, 137526, Note_off_c, 0, 66, 99
1, 137531, Note_on_c, 0, 65, 91
1, 137570, Note_off_c, 0, 65, 91
1, 137595, Note_on_c, 0, 67, 109
1, 137696, Note_off_c, 0, 67, 109
1, 137702, Note_on_c, 0, 65, 116
1, 137792, Note_off_c, 0, 65, 116
1, 137794, Note_on_c, 0, 64, 107
1, 137902, Note_off_c, 0, 64, 107
1, 137902, Note_on_c, 0, 60, 119
1, 137987, Note_off_c, 0, 60, 119
1, 137996, Note_on_c, 0, 57, 109
1, 138114, Note_off_c, 0, 57, 109
1, 138126, Note_on_c, 0, 55, 121
1, 138181, Note_off_c, 0, 55, 121
1, 138184, Note_on_c, 0, 60, 117
1, 138293, Note_off_c, 0, 60, 117
1, 138297, Note_on_c, 0, 64, 98
1, 138350, Note_off_c, 0, 64, 98
1, 138352, Note_on_c, 0, 67, 103
1, 138450, Note_off_c, 0, 67, 103
1, 138451, Note_on_c, 0, 65, 111
1, 138562, Note_off_c, 0, 65, 111
1, 138851, Note_on_c, 0, 53, 115
1, 138932, Note_off_c, 0, 53, 115
1, 138937, Note_on_c, 0, 56, 109
1, 139026, Note_off_c, 0, 56, 109
1, 139046, Note_on_c, 0, 61, 111
1, 139147, Note_off_c, 0, 61, 111
1, 139153, Note_on_c, 0, 59, 105
1, 139225, Note_off_c, 0, 59, 105
1, 139453, Note_on_c, 0, 63, 117
1, 139526, Note_off_c, 0, 63, 117
1, 139530, Note_on_c, 0, 66, 108
1, 139598, Note_off_c, 0, 66, 108
1, 139620, Note_on_c, 0, 70, 109
1, 139686, Note_off_c, 0, 70, 109
1, 139692, Note_on_c, 0, 68, 105
1, 139790, Note_off_c, 0, 68, 105
1, 140001, Note_on_c, 0, 68, 112
1, 140076, Note_off_c, 0, 68, 112
1, 140089, Note_on_c, 0, 71, 112
1, 140171, Note_off_c, 0, 71, 112
1, 140194, Note_on_c, 0, 75, 103
1, 140251, Note_off_c, 0, 75, 103
1, 140258, Note_on_c, 0, 73, 98
1, 140344, Note_off_c, 0, 73, 98
1, 140589, Note_on_c, 0, 70, 108
1, 140660, Note_off_c, 0, 70, 108
1, 140672, Note_on_c, 0, 65, 106
1, 140764, Note_off_c, 0, 65, 106
1, 140849, Note_on_c, 0, 66, 102
1, 140936, Note_off_c, 0, 66, 102
1, 141146, Note_on_c, 0, 68, 111
1, 141223, Note_off_c, 0, 68, 111
1, 141225, Note_on_c, 0, 70, 108
1, 141293, Note_off_c, 0, 70, 108
1, 141322, Note_on_c, 0, 73, 104
1, 141388, Note_off_c, 0, 73, 104
1, 141391, Note_on_c, 0, 72, 107
1, 141503, Note_off_c, 0, 72, 107
1, 141702, Note_on_c, 0, 68, 110
1, 141779, Note_off_c, 0, 68, 110
1, 141790, Note_on_c, 0, 63, 114
1, 141882, Note_off_c, 0, 63, 114
1, 141885, Note_on_c, 0, 68, 105
1, 141974, Note_off_c, 0, 68, 105
1, 141978, Note_on_c, 0, 62, 111
1, 142082, Note_off_c, 0, 62, 111
1, 142315, Note_on_c, 0, 57, 112
1, 142420, Note_off_c, 0, 57, 112
1, 142425, Note_on_c, 0, 54, 107
1, 142492, Note_off_c, 0, 54, 107
1, 142588, Note_on_c, 0, 71, 111
1, 142676, Note_off_c, 0, 71, 111
1, 142686, Note_on_c, 0, 68, 101
1, 142845, Note_off_c, 0, 68, 101
1, 142855, Note_on_c, 0, 69, 94
1, 142941, Note_off_c, 0, 69, 94
1, 143136, Note_on_c, 0, 68, 107
1, 143231, Note_off_c, 0, 68, 107
1, 143275, Note_on_c, 0, 65, 107
1, 143318, Note_off_c, 0, 65, 107
1, 143320, Note_on_c, 0, 66, 102
1, 143406, Note_off_c, 0, 66, 102
1, 143437, Note_on_c, 0, 70, 102
1, 143535, Note_off_c, 0, 70, 102
1, 143543, Note_on_c, 0, 65, 106
1, 143620, Note_off_c, 0, 65, 106
1, 143623, Note_on_c, 0, 61, 110
1, 143720, Note_off_c, 0, 61, 110
1, 143721, Note_on_c, 0, 58, 97
1, 143810, Note_off_c, 0, 58, 97
1, 143897, Note_on_c, 0, 61, 117
1, 144003, Note_off_c, 0, 61, 117
1, 144006, Note_on_c, 0, 63, 117
1, 144080, Note_off_c, 0, 63, 117
1, 144089, Note_on_c, 0, 65, 111
1, 144167, Note_off_c, 0, 65, 111
1, 144189, Note_on_c, 0, 68, 109
1, 144256, Note_off_c, 0, 68, 109
1, 144261, Note_on_c, 0, 69, 106
1, 144349, Note_off_c, 0, 69, 106
1, 144571, Note_on_c, 0, 65, 116
1, 144607, Note_off_c, 0, 65, 116
1, 144609, Note_on_c, 0, 67, 108
1, 144714, Note_off_c, 0, 67, 108
1, 144743, Note_on_c, 0, 72, 99
1, 144842, Note_off_c, 0, 72, 99
1, 144849, Note_on_c, 0, 75, 111
1, 144935, Note_off_c, 0, 75, 111
1, 145143, Note_on_c, 0, 73, 104
1, 145233, Note_off_c, 0, 73, 104
1, 145235, Note_on_c, 0, 69, 102
1, 145300, Note_off_c, 0, 69, 102
1, 145306, Note_on_c, 0, 67, 99
1, 145368, Note_off_c, 0, 67, 99
1, 145404, Note_on_c, 0, 74, 98
1, 145430, Note_off_c, 0, 74, 98
1, 145434, Note_on_c, 0, 72, 107
1, 145498, Note_off_c, 0, 72, 107
1, 145677, Note_on_c, 0, 70, 111
1, 145733, Note_off_c, 0, 70, 111
1, 145742, Note_on_c, 0, 65, 117
1, 145769, Note_off_c, 0, 65, 117
1, 145773, Note_on_c, 0, 64, 110
1, 145846, Note_off_c, 0, 64, 110
1, 145862, Note_on_c, 0, 69, 107
1, 145915, Note_off_c, 0, 69, 107
1, 145941, Note_on_c, 0, 63, 113
1, 146064, Note_off_c, 0, 63, 113
1, 146234, Note_on_c, 0, 61, 115
1, 146340, Note_off_c, 0, 61, 115
1, 146342, Note_on_c, 0, 58, 108
1, 146420, Note_off_c, 0, 58, 108
1, 146424, Note_on_c, 0, 55, 103
1, 146479, Note_off_c, 0, 55, 103
1, 146521, Note_on_c, 0, 60, 119
1, 146615, Note_off_c, 0, 60, 119
1, 146793, Note_on_c, 0, 57, 113
1, 146898, Note_off_c, 0, 57, 113
1, 146907, Note_on_c, 0, 54, 110
1, 146966, Note_off_c, 0, 54, 110
1, 146970, Note_on_c, 0, 59, 108
1, 147064, Note_off_c, 0, 59, 108
1, 147072, Note_on_c, 0, 50, 112
1, 147170, Note_off_c, 0, 50, 112
1, 147345, Note_on_c, 0, 54, 118
1, 147423, Note_off_c, 0, 54, 118
1, 147429, Note_on_c, 0, 57, 117
1, 147495, Note_off_c, 0, 57, 117
1, 147526, Note_on_c, 0, 61, 109
1, 147608, Note_off_c, 0, 61, 109
1, 147614, Note_on_c, 0, 59, 110
1, 147706, Note_off_c, 0, 59, 110
1, 147713, Note_on_c, 0, 61, 109
1, 147779, Note_off_c, 0, 61, 109
1, 147795, Note_on_c, 0, 62, 112
1, 147886, Note_off_c, 0, 62, 112
1, 147894, Note_on_c, 0, 64, 108
1, 147967, Note_off_c, 0, 64, 108
1, 147976, Note_on_c, 0, 66, 101
1, 148073, Note_off_c, 0, 66, 101
1, 148078, Note_on_c, 0, 69, 108
1, 148164, Note_off_c, 0, 69, 108
1, 148178, Note_on_c, 0, 68, 98
1, 148295, Note_off_c, 0, 68, 98
1, 148344, Note_on_c, 0, 61, 99
1, 148467, Note_off_c, 0, 61, 99
1, 148756, Note_on_c, 0, 55, 111
1, 148832, Note_off_c, 0, 55, 111
1, 148843, Note_on_c, 0, 56, 118
1, 148917, Note_off_c, 0, 56, 118
1, 148924, Note_on_c, 0, 57, 118
1, 149001, Note_off_c, 0, 57, 118
1, 149006, Note_on_c, 0, 53, 115
1, 149115, Note_off_c, 0, 53, 115
1, 149117, Note_on_c, 0, 52, 111
1, 149197, Note_off_c, 0, 52, 111
1, 149205, Note_on_c, 0, 50, 111
1, 149278, Note_off_c, 0, 50, 111
1, 149283, Note_on_c, 0, 55, 107
1, 149370, Note_off_c, 0, 55, 107
1, 149390, Note_on_c, 0, 53, 125
1, 149443, Note_off_c, 0, 53, 125
1, 149447, Note_on_c, 0, 52, 119
1, 149506, Note_off_c, 0, 52, 119
1, 149563, Note_on_c, 0, 53, 116
1, 149597, Note_off_c, 0, 53, 116
1, 149608, Note_on_c, 0, 57, 115
1, 149690, Note_off_c, 0, 57, 115
1, 149703, Note_on_c, 0, 60, 115
1, 149795, Note_off_c, 0, 60, 115
1, 149806, Note_on_c, 0, 64, 118
1, 149884, Note_off_c, 0, 64, 118
1, 149904, Note_on_c, 0, 67, 111
1, 149985, Note_off_c, 0, 67, 111
1, 149989, Note_on_c, 0, 65, 107
1, 150114, Note_off_c, 0, 65, 107
1, 150117, Note_on_c, 0, 62, 104
1, 150168, Note_off_c, 0, 62, 104
1, 150180, Note_on_c, 0, 64, 113
1, 150452, Note_off_c, 0, 64, 113
1, 150771, Note_on_c, 0, 63, 116
1, 150849, Note_off_c, 0, 63, 116
1, 150853, Note_on_c, 0, 62, 114
1, 150929, Note_off_c, 0, 62, 114
1, 150935, Note_on_c, 0, 63, 114
1, 151025, Note_off_c, 0, 63, 114
1, 151031, Note_on_c, 0, 65, 114
1, 151119, Note_off_c, 0, 65, 114
1, 151125, Note_on_c, 0, 66, 103
1, 151216, Note_off_c, 0, 66, 103
1, 151223, Note_on_c, 0, 68, 97
1, 151304, Note_off_c, 0, 68, 97
1, 151314, Note_on_c, 0, 70, 102
1, 151396, Note_off_c, 0, 70, 102
1, 151409, Note_on_c, 0, 66, 103
1, 151478, Note_off_c, 0, 66, 103
1, 151482, Note_on_c, 0, 65, 109
1, 151589, Note_off_c, 0, 65, 109
1, 151595, Note_on_c, 0, 64, 113
1, 151698, Note_off_c, 0, 64, 113
1, 151702, Note_on_c, 0, 63, 110
1, 151799, Note_off_c, 0, 63, 110
1, 151805, Note_on_c, 0, 65, 119
1, 151894, Note_off_c, 0, 65, 119
1, 151896, Note_on_c, 0, 66, 113
1, 151971, Note_off_c, 0, 66, 113
1, 151975, Note_on_c, 0, 68, 108
1, 152054, Note_off_c, 0, 68, 108
1, 152064, Note_on_c, 0, 70, 108
1, 152160, Note_off_c, 0, 70, 108
1, 152169, Note_on_c, 0, 75, 107
1, 152253, Note_off_c, 0, 75, 107
1, 152261, Note_on_c, 0, 73, 105
1, 152343, Note_off_c, 0, 73, 105
1, 152356, Note_on_c, 0, 71, 112
1, 152449, Note_off_c, 0, 71, 112
1, 152453, Note_on_c, 0, 70, 102
1, 152559, Note_off_c, 0, 70, 102
1, 152564, Note_on_c, 0, 66, 100
1, 152647, Note_off_c, 0, 66, 100
1, 152659, Note_on_c, 0, 63, 112
1, 152727, Note_off_c, 0, 63, 112
1, 152731, Note_on_c, 0, 61, 109
1, 152809, Note_off_c, 0, 61, 109
1, 152825, Note_on_c, 0, 66, 104
1, 152961, Note_off_c, 0, 66, 104
1, 153589, Note_on_c, 0, 71, 104
1, 153635, Note_off_c, 0, 71, 104
1, 153639, Note_on_c, 0, 67, 109
1, 153680, Note_off_c, 0, 67, 109
1, 153686, Note_on_c, 0, 66, 114
1, 153728, Note_off_c, 0, 66, 114
1, 153730, Note_on_c, 0, 65, 117
1, 153818, Note_off_c, 0, 65, 117
1, 153846, Note_on_c, 0, 64, 119
1, 153913, Note_off_c, 0, 64, 119
1, 153919, Note_on_c, 0, 63, 119
1, 153990, Note_off_c, 0, 63, 119
1, 154115, Note_on_c, 0, 70, 100
1, 154178, Note_off_c, 0, 70, 100
1, 154182, Note_on_c, 0, 68, 108
1, 154225, Note_off_c, 0, 68, 108
1, 154231, Note_on_c, 0, 67, 106
1, 154263, Note_off_c, 0, 67, 106
1, 154265, Note_on_c, 0, 66, 112
1, 154320, Note_off_c, 0, 66, 112
1, 154324, Note_on_c, 0, 65, 116
1, 154391, Note_off_c, 0, 65, 116
1, 154396, Note_on_c, 0, 64, 116
1, 154491, Note_off_c, 0, 64, 116
1, 154495, Note_on_c, 0, 63, 114
1, 154580, Note_off_c, 0, 63, 114
1, 154591, Note_on_c, 0, 60, 90
1, 154651, Note_off_c, 0, 60, 90
1, 154726, Note_on_c, 0, 69, 108
1, 154770, Note_off_c, 0, 69, 108
1, 154776, Note_on_c, 0, 68, 112
1, 154822, Note_off_c, 0, 68, 112
1, 154828, Note_on_c, 0, 66, 110
1, 154897, Note_off_c, 0, 66, 110
1, 154901, Note_on_c, 0, 65, 112
1, 154975, Note_off_c, 0, 65, 112
1, 154979, Note_on_c, 0, 64, 115
1, 155044, Note_off_c, 0, 64, 115
1, 155050, Note_on_c, 0, 63, 121
1, 155139, Note_off_c, 0, 63, 121
1, 155142, Note_on_c, 0, 61, 106
1, 155185, Note_off_c, 0, 61, 106
1, 155278, Note_on_c, 0, 73, 104
1, 155380, Note_off_c, 0, 73, 104
1, 155385, Note_on_c, 0, 72, 113
1, 155490, Note_off_c, 0, 72, 113
1, 155495, Note_on_c, 0, 70, 98
1, 155559, Note_off_c, 0, 70, 98
1, 155576, Note_on_c, 0, 70, 103
1, 155615, Note_off_c, 0, 70, 103
1, 155620, Note_on_c, 0, 69, 111
1, 155668, Note_off_c, 0, 69, 111
1, 155672, Note_on_c, 0, 68, 101
1, 155824, Note_off_c, 0, 68, 101
1, 155831, Note_on_c, 0, 66, 109
1, 155878, Note_off_c, 0, 66, 109
1, 155896, Note_on_c, 0, 70, 98
1, 155965, Note_off_c, 0, 70, 98
1, 155999, Note_on_c, 0, 67, 104
1, 156050, Note_off_c, 0, 67, 104
1, 156052, Note_on_c, 0, 68, 100
1, 156110, Note_off_c, 0, 68, 100
1, 156117, Note_on_c, 0, 69, 111
1, 156215, Note_off_c, 0, 69, 111
1, 156290, Note_on_c, 0, 61, 108
1, 156318, Note_off_c, 0, 61, 108
1, 156328, Note_on_c, 0, 63, 98
1, 156362, Note_off_c, 0, 63, 98
1, 156394, Note_on_c, 0, 68, 111
1, 156518, Note_off_c, 0, 68, 111
1, 156526, Note_on_c, 0, 68, 112
1, 156616, Note_off_c, 0, 68, 112
1, 156620, Note_on_c, 0, 67, 112
1, 156678, Note_off_c, 0, 67, 112
1, 156690, Note_on_c, 0, 66, 105
1, 156773, Note_off_c, 0, 66, 105
1, 156774, Note_on_c, 0, 65, 113
1, 156852, Note_off_c, 0, 65, 113
1, 156856, Note_on_c, 0, 64, 112
1, 156951, Note_off_c, 0, 64, 112
1, 156954, Note_on_c, 0, 63, 116
1, 157038, Note_off_c, 0, 63, 116
1, 157045, Note_on_c, 0, 62, 115
1, 157137, Note_off_c, 0, 62, 115
1, 157142, Note_on_c, 0, 61, 108
1, 157240, Note_off_c, 0, 61, 108
1, 157244, Note_on_c, 0, 60, 111
1, 157339, Note_off_c, 0, 60, 111
1, 157349, Note_on_c, 0, 58, 107
1, 157439, Note_off_c, 0, 58, 107
1, 157441, Note_on_c, 0, 56, 108
1, 157528, Note_off_c, 0, 56, 108
1, 157531, Note_on_c, 0, 55, 108
1, 157635, Note_off_c, 0, 55, 108
1, 157645, Note_on_c, 0, 53, 115
1, 157742, Note_off_c, 0, 53, 115
1, 157743, Note_on_c, 0, 54, 111
1, 157816, Note_off_c, 0, 54, 111
1, 157849, Note_on_c, 0, 58, 103
1, 157937, Note_off_c, 0, 58, 103
1, 157950, Note_on_c, 0, 55, 109
1, 158044, Note_off_c, 0, 55, 109
1, 158044, Note_on_c, 0, 56, 114
1, 158115, Note_off_c, 0, 56, 114
1, 158120, Note_on_c, 0, 57, 118
1, 158208, Note_off_c, 0, 57, 118
1, 158213, Note_on_c, 0, 53, 114
1, 158324, Note_off_c, 0, 53, 114
1, 158337, Note_on_c, 0, 49, 103
1, 158436, Note_off_c, 0, 49, 103
1, 158440, Note_on_c, 0, 51, 105
1, 158533, Note_off_c, 0, 51, 105
1, 158538, Note_on_c, 0, 47, 113
1, 158677, Note_off_c, 0, 47, 113
1, 159624, Note_on_c, 0, 67, 112
1, 159691, Note_off_c, 0, 67, 112
1, 159691, Note_on_c, 0, 68, 109
1, 159804, Note_off_c, 0, 68, 109
1, 159810, Note_on_c, 0, 71, 109
1, 159896, Note_off_c, 0, 71, 109
1, 159903, Note_on_c, 0, 73, 109
1, 159998, Note_off_c, 0, 73, 109
1, 160000, Note_on_c, 0, 71, 110
1, 160098, Note_off_c, 0, 71, 110
1, 160100, Note_on_c, 0, 69, 110
1, 160162, Note_off_c, 0, 69, 110
1, 160166, Note_on_c, 0, 68, 109
1, 160275, Note_off_c, 0, 68, 109
1, 160282, Note_on_c, 0, 69, 104
1, 160356, Note_off_c, 0, 69, 104
1, 160360, Note_on_c, 0, 70, 105
1, 160420, Note_off_c, 0, 70, 105
1, 160435, Note_on_c, 0, 73, 107
1, 160541, Note_off_c, 0, 73, 107
1, 160543, Note_on_c, 0, 71, 101
1, 160654, Note_off_c, 0, 71, 101
1, 160657, Note_on_c, 0, 69, 112
1, 160716, Note_off_c, 0, 69, 112
1, 160723, Note_on_c, 0, 68, 106
1, 160836, Note_off_c, 0, 68, 106
1, 160838, Note_on_c, 0, 69, 101
1, 160906, Note_off_c, 0, 69, 101
1, 160910, Note_on_c, 0, 70, 108
1, 160983, Note_off_c, 0, 70, 108
1, 160995, Note_on_c, 0, 73, 106
1, 161101, Note_off_c, 0, 73, 106
1, 161106, Note_on_c, 0, 71, 107
1, 161190, Note_off_c, 0, 71, 107
1, 161195, Note_on_c, 0, 71, 100
1, 161239, Note_off_c, 0, 71, 100
1, 161241, Note_on_c, 0, 68, 107
1, 161289, Note_off_c, 0, 68, 107
1, 161297, Note_on_c, 0, 67, 110
1, 161369, Note_off_c, 0, 67, 110
1, 161379, Note_on_c, 0, 68, 98
1, 161448, Note_off_c, 0, 68, 98
1, 161449, Note_on_c, 0, 69, 99
1, 161483, Note_off_c, 0, 69, 99
1, 161487, Note_on_c, 0, 70, 108
1, 161523, Note_off_c, 0, 70, 108
1, 161527, Note_on_c, 0, 71, 108
1, 161574, Note_off_c, 0, 71, 108
1, 161582, Note_on_c, 0, 73, 107
1, 161650, Note_off_c, 0, 73, 107
1, 161654, Note_on_c, 0, 71, 104
1, 161748, Note_off_c, 0, 71, 104
1, 161751, Note_on_c, 0, 69, 106
1, 161818, Note_off_c, 0, 69, 106
1, 161822, Note_on_c, 0, 68, 103
1, 161903, Note_off_c, 0, 68, 103
1, 161915, Note_on_c, 0, 69, 104
1, 161973, Note_off_c, 0, 69, 104
1, 161978, Note_on_c, 0, 70, 112
1, 162037, Note_off_c, 0, 70, 112
1, 162038, Note_on_c, 0, 71, 105
1, 162098, Note_off_c, 0, 71, 105
1, 162102, Note_on_c, 0, 72, 107
1, 162160, Note_off_c, 0, 72, 107
1, 162160, Note_on_c, 0, 71, 107
1, 162289, Note_off_c, 0, 71, 107
1, 162298, Note_on_c, 0, 69, 105
1, 162386, Note_off_c, 0, 69, 105
1, 162395, Note_on_c, 0, 67, 104
1, 162467, Note_off_c, 0, 67, 104
1, 162486, Note_on_c, 0, 69, 97
1, 162575, Note_off_c, 0, 69, 97
1, 162578, Note_on_c, 0, 71, 109
1, 162641, Note_off_c, 0, 71, 109
1, 162641, Note_on_c, 0, 72, 109
1, 162711, Note_off_c, 0, 72, 109
1, 162715, Note_on_c, 0, 71, 108
1, 162810, Note_off_c, 0, 71, 108
1, 162839, Note_on_c, 0, 69, 100
1, 162939, Note_off_c, 0, 69, 100
1, 162941, Note_on_c, 0, 68, 100
1, 163007, Note_off_c, 0, 68, 100
1, 163011, Note_on_c, 0, 69, 101
1, 163101, Note_off_c, 0, 69, 101
1, 163106, Note_on_c, 0, 70, 111
1, 163218, Note_off_c, 0, 70, 111
1, 163225, Note_on_c, 0, 72, 106
1, 163294, Note_off_c, 0, 72, 106
1, 163299, Note_on_c, 0, 71, 106
1, 163403, Note_off_c, 0, 71, 106
1, 163408, Note_on_c, 0, 69, 107
1, 163497, Note_off_c, 0, 69, 107
1, 163498, Note_on_c, 0, 68, 106
1, 163607, Note_off_c, 0, 68, 106
1, 163610, Note_on_c, 0, 70, 95
1, 163681, Note_off_c, 0, 70, 95
1, 163688, Note_on_c, 0, 70, 107
1, 163759, Note_off_c, 0, 70, 107
1, 163774, Note_on_c, 0, 73, 109
1, 163858, Note_off_c, 0, 73, 109
1, 163862, Note_on_c, 0, 71, 109
1, 163950, Note_off_c, 0, 71, 109
1, 163953, Note_on_c, 0, 70, 105
1, 164037, Note_off_c, 0, 70, 105
1, 164041, Note_on_c, 0, 68, 104
1, 164174, Note_off_c, 0, 68, 104
1, 164180, Note_on_c, 0, 70, 100
1, 164272, Note_off_c, 0, 70, 100
1, 164277, Note_on_c, 0, 71, 101
1, 164346, Note_off_c, 0, 71, 101
1, 164353, Note_on_c, 0, 73, 106
1, 164403, Note_off_c, 0, 73, 106
1, 164408, Note_on_c, 0, 71, 112
1, 164502, Note_off_c, 0, 71, 112
1, 164506, Note_on_c, 0, 70, 106
1, 164586, Note_off_c, 0, 70, 106
1, 164599, Note_on_c, 0, 66, 108
1, 164798, Note_off_c, 0, 66, 108
1, 165368, Note_on_c, 0, 67, 109
1, 165466, Note_off_c, 0, 67, 109
1, 165471, Note_on_c, 0, 70, 106
1, 165546, Note_off_c, 0, 70, 106
1, 165548, Note_on_c, 0, 71, 106
1, 165658, Note_off_c, 0, 71, 106
1, 165667, Note_on_c, 0, 74, 108
1, 165752, Note_off_c, 0, 74, 108
1, 165759, Note_on_c, 0, 72, 107
1, 165827, Note_off_c, 0, 72, 107
1, 165841, Note_on_c, 0, 71, 105
1, 165892, Note_off_c, 0, 71, 105
1, 165898, Note_on_c, 0, 70, 106
1, 165930, Note_off_c, 0, 70, 106
1, 165942, Note_on_c, 0, 68, 105
1, 166030, Note_off_c, 0, 68, 105
1, 166038, Note_on_c, 0, 70, 104
1, 166104, Note_off_c, 0, 70, 104
1, 166113, Note_on_c, 0, 71, 112
1, 166191, Note_off_c, 0, 71, 112
1, 166206, Note_on_c, 0, 74, 101
1, 166296, Note_off_c, 0, 74, 101
1, 166310, Note_on_c, 0, 72, 101
1, 166402, Note_off_c, 0, 72, 101
1, 166426, Note_on_c, 0, 74, 107
1, 166467, Note_off_c, 0, 74, 107
1, 166468, Note_on_c, 0, 73, 106
1, 166523, Note_off_c, 0, 73, 106
1, 166527, Note_on_c, 0, 72, 105
1, 166606, Note_off_c, 0, 72, 105
1, 166626, Note_on_c, 0, 70, 103
1, 166697, Note_off_c, 0, 70, 103
1, 166703, Note_on_c, 0, 68, 105
1, 166803, Note_off_c, 0, 68, 105
1, 166805, Note_on_c, 0, 70, 100
1, 166866, Note_off_c, 0, 70, 100
1, 166871, Note_on_c, 0, 71, 109
1, 166976, Note_off_c, 0, 71, 109
1, 166978, Note_on_c, 0, 74, 106
1, 167094, Note_off_c, 0, 74, 106
1, 167101, Note_on_c, 0, 72, 101
1, 167201, Note_off_c, 0, 72, 101
1, 167204, Note_on_c, 0, 70, 105
1, 167277, Note_off_c, 0, 70, 105
1, 167285, Note_on_c, 0, 68, 102
1, 167365, Note_off_c, 0, 68, 102
1, 167376, Note_on_c, 0, 70, 100
1, 167446, Note_off_c, 0, 70, 100
1, 167465, Note_on_c, 0, 72, 109
1, 167501, Note_off_c, 0, 72, 109
1, 167515, Note_on_c, 0, 73, 93
1, 167556, Note_off_c, 0, 73, 93
1, 167564, Note_on_c, 0, 75, 109
1, 167638, Note_off_c, 0, 75, 109
1, 167662, Note_on_c, 0, 72, 106
1, 167763, Note_off_c, 0, 72, 106
1, 167789, Note_on_c, 0, 70, 95
1, 167846, Note_off_c, 0, 70, 95
1, 167848, Note_on_c, 0, 72, 107
1, 167926, Note_off_c, 0, 72, 107
1, 167934, Note_on_c, 0, 71, 111
1, 168053, Note_off_c, 0, 71, 111
1, 168062, Note_on_c, 0, 70, 103
1, 168132, Note_off_c, 0, 70, 103
1, 168142, Note_on_c, 0, 68, 100
1, 168231, Note_off_c, 0, 68, 100
1, 168235, Note_on_c, 0, 69, 110
1, 168308, Note_off_c, 0, 69, 110
1, 168348, Note_on_c, 0, 72, 105
1, 168417, Note_off_c, 0, 72, 105
1, 168429, Note_on_c, 0, 69, 106
1, 168536, Note_off_c, 0, 69, 106
1, 168543, Note_on_c, 0, 67, 112
1, 168609, Note_off_c, 0, 67, 112
1, 168613, Note_on_c, 0, 65, 109
1, 168744, Note_off_c, 0, 65, 109
1, 168747, Note_on_c, 0, 67, 104
1, 168811, Note_off_c, 0, 67, 104
1, 168815, Note_on_c, 0, 69, 104
1, 168886, Note_off_c, 0, 69, 104
1, 168907, Note_on_c, 0, 72, 103
1, 169001, Note_off_c, 0, 72, 103
1, 169003, Note_on_c, 0, 67, 101
1, 169111, Note_off_c, 0, 67, 101
1, 169117, Note_on_c, 0, 70, 99
1, 169201, Note_off_c, 0, 70, 99
1, 169206, Note_on_c, 0, 67, 102
1, 169298, Note_off_c, 0, 67, 102
1, 169309, Note_on_c, 0, 65, 113
1, 169379, Note_off_c, 0, 65, 113
1, 169402, Note_on_c, 0, 63, 118
1, 169491, Note_off_c, 0, 63, 118
1, 169494, Note_on_c, 0, 65, 107
1, 169605, Note_off_c, 0, 65, 107
1, 169611, Note_on_c, 0, 67, 99
1, 169706, Note_off_c, 0, 67, 99
1, 169708, Note_on_c, 0, 70, 105
1, 169779, Note_off_c, 0, 70, 105
1, 169805, Note_on_c, 0, 69, 97
1, 169889, Note_off_c, 0, 69, 97
1, 169899, Note_on_c, 0, 70, 95
1, 170014, Note_off_c, 0, 70, 95
1, 170022, Note_on_c, 0, 72, 104
1, 170096, Note_off_c, 0, 72, 104
1, 170100, Note_on_c, 0, 73, 103
1, 170205, Note_off_c, 0, 73, 103
1, 170207, Note_on_c, 0, 72, 103
1, 170290, Note_off_c, 0, 72, 103
1, 170296, Note_on_c, 0, 70, 102
1, 170374, Note_off_c, 0, 70, 102
1, 170376, Note_on_c, 0, 69, 100
1, 170442, Note_off_c, 0, 69, 100
1, 170477, Note_on_c, 0, 70, 91
1, 170552, Note_off_c, 0, 70, 91
1, 170563, Note_on_c, 0, 72, 107
1, 170649, Note_off_c, 0, 72, 107
1, 170652, Note_on_c, 0, 73, 100
1, 170737, Note_off_c, 0, 73, 100
1, 170741, Note_on_c, 0, 72, 103
1, 170820, Note_off_c, 0, 72, 103
1, 170847, Note_on_c, 0, 70, 92
1, 170928, Note_off_c, 0, 70, 92
1, 170934, Note_on_c, 0, 69, 99
1, 171060, Note_off_c, 0, 69, 99
1, 171703, Note_on_c, 0, 69, 105
1, 171778, Note_off_c, 0, 69, 105
1, 171780, Note_on_c, 0, 71, 103
1, 171869, Note_off_c, 0, 71, 103
1, 171882, Note_on_c, 0, 73, 9
1, 171982, Note_off_c, 0, 73, 9
1, 171991, Note_on_c, 0, 74, 24
1, 172093, Note_off_c, 0, 74, 24
1, 172098, Note_on_c, 0, 71, 101
1, 172177, Note_off_c, 0, 71, 101
1, 172194, Note_on_c, 0, 69, 101
1, 172257, Note_off_c, 0, 69, 101
1, 172259, Note_on_c, 0, 68, 96
1, 172364, Note_off_c, 0, 68, 96
1, 172372, Note_on_c, 0, 69, 91
1, 172450, Note_off_c, 0, 69, 91
1, 172456, Note_on_c, 0, 70, 98
1, 172534, Note_off_c, 0, 70, 98
1, 172537, Note_on_c, 0, 72, 94
1, 172662, Note_off_c, 0, 72, 94
1, 172665, Note_on_c, 0, 71, 95
1, 172710, Note_off_c, 0, 71, 95
1, 172715, Note_on_c, 0, 69, 94
1, 172764, Note_off_c, 0, 69, 94
1, 172771, Note_on_c, 0, 68, 96
1, 172866, Note_off_c, 0, 68, 96
1, 172873, Note_on_c, 0, 66, 97
1, 172961, Note_off_c, 0, 66, 97
1, 172968, Note_on_c, 0, 68, 94
1, 173045, Note_off_c, 0, 68, 94
1, 173051, Note_on_c, 0, 69, 97
1, 173135, Note_off_c, 0, 69, 97
1, 173147, Note_on_c, 0, 71, 95
1, 173235, Note_off_c, 0, 71, 95
1, 173252, Note_on_c, 0, 68, 93
1, 173333, Note_off_c, 0, 68, 93
1, 173337, Note_on_c, 0, 66, 103
1, 173438, Note_off_c, 0, 66, 103
1, 173444, Note_on_c, 0, 65, 103
1, 173524, Note_off_c, 0, 65, 103
1, 173524, Note_on_c, 0, 67, 97
1, 173632, Note_off_c, 0, 67, 97
1, 173636, Note_on_c, 0, 68, 92
1, 173719, Note_off_c, 0, 68, 92
1, 173729, Note_on_c, 0, 70, 92
1, 173819, Note_off_c, 0, 70, 92
1, 173824, Note_on_c, 0, 71, 96
1, 173858, Note_off_c, 0, 71, 96
1, 173864, Note_on_c, 0, 73, 90
1, 173926, Note_off_c, 0, 73, 90
1, 173938, Note_on_c, 0, 73, 95
1, 174053, Note_off_c, 0, 73, 95
1, 174070, Note_on_c, 0, 71, 98
1, 174241, Note_off_c, 0, 71, 98
1, 174251, Note_on_c, 0, 68, 96
1, 174337, Note_off_c, 0, 68, 96
1, 174343, Note_on_c, 0, 67, 89
1, 174447, Note_off_c, 0, 67, 89
1, 174458, Note_on_c, 0, 65, 105
1, 174531, Note_off_c, 0, 65, 105
1, 174534, Note_on_c, 0, 64, 99
1, 174639, Note_off_c, 0, 64, 99
1, 174643, Note_on_c, 0, 65, 99
1, 174731, Note_off_c, 0, 65, 99
1, 174742, Note_on_c, 0, 67, 86
1, 174838, Note_off_c, 0, 67, 86
1, 174849, Note_on_c, 0, 69, 92
1, 174920, Note_off_c, 0, 69, 92
1, 174925, Note_on_c, 0, 67, 90
1, 175016, Note_off_c, 0, 67, 90
1, 175034, Note_on_c, 0, 65, 105
1, 175100, Note_off_c, 0, 65, 105
1, 175102, Note_on_c, 0, 64, 101
1, 175169, Note_off_c, 0, 64, 101
1, 175181, Note_on_c, 0, 65, 98
1, 175261, Note_off_c, 0, 65, 98
1, 175266, Note_on_c, 0, 66, 96
1, 175371, Note_off_c, 0, 66, 96
1, 175386, Note_on_c, 0, 68, 96
1, 175470, Note_off_c, 0, 68, 96
1, 175471, Note_on_c, 0, 70, 94
1, 175575, Note_off_c, 0, 70, 94
1, 175584, Note_on_c, 0, 68, 96
1, 175640, Note_off_c, 0, 68, 96
1, 175646, Note_on_c, 0, 66, 92
1, 175774, Note_off_c, 0, 66, 92
1, 176233, Note_on_c, 0, 66, 100
1, 176304, Note_off_c, 0, 66, 100
1, 176310, Note_on_c, 0, 68, 98
1, 176420, Note_off_c, 0, 68, 98
1, 176424, Note_on_c, 0, 69, 95
1, 176487, Note_off_c, 0, 69, 95
1, 176496, Note_on_c, 0, 71, 95
1, 176592, Note_off_c, 0, 71, 95
1, 176603, Note_on_c, 0, 65, 101
1, 176686, Note_off_c, 0, 65, 101
1, 176692, Note_on_c, 0, 66, 94
1, 176768, Note_off_c, 0, 66, 94
1, 176789, Note_on_c, 0, 70, 92
1, 176905, Note_off_c, 0, 70, 92
1, 176911, Note_on_c, 0, 67, 92
1, 176980, Note_off_c, 0, 67, 92
1, 176983, Note_on_c, 0, 68, 92
1, 177078, Note_off_c, 0, 68, 92
1, 177086, Note_on_c, 0, 69, 98
1, 177164, Note_off_c, 0, 69, 98
1, 177224, Note_on_c, 0, 61, 95
1, 177281, Note_off_c, 0, 61, 95
1, 177284, Note_on_c, 0, 63, 95
1, 177316, Note_off_c, 0, 63, 95
1, 177360, Note_on_c, 0, 68, 97
1, 177428, Note_off_c, 0, 68, 97
1, 177436, Note_on_c, 0, 66, 99
1, 177539, Note_off_c, 0, 66, 99
1, 177540, Note_on_c, 0, 65, 100
1, 177618, Note_off_c, 0, 65, 100
1, 177621, Note_on_c, 0, 63, 109
1, 177730, Note_off_c, 0, 63, 109
1, 177730, Note_on_c, 0, 62, 106
1, 177822, Note_off_c, 0, 62, 106
1, 177826, Note_on_c, 0, 63, 101
1, 177889, Note_off_c, 0, 63, 101
1, 177892, Note_on_c, 0, 65, 99
1, 177995, Note_off_c, 0, 65, 99
1, 178000, Note_on_c, 0, 66, 87
1, 178062, Note_off_c, 0, 66, 87
1, 178068, Note_on_c, 0, 68, 97
1, 178152, Note_off_c, 0, 68, 97
1, 178196, Note_on_c, 0, 65, 97
1, 178270, Note_off_c, 0, 65, 97
1, 178274, Note_on_c, 0, 66, 88
1, 178334, Note_off_c, 0, 66, 88
1, 178373, Note_on_c, 0, 70, 92
1, 178444, Note_off_c, 0, 70, 92
1, 178480, Note_on_c, 0, 68, 87
1, 178562, Note_off_c, 0, 68, 87
1, 178566, Note_on_c, 0, 69, 96
1, 178653, Note_off_c, 0, 69, 96
1, 178763, Note_on_c, 0, 63, 96
1, 178816, Note_off_c, 0, 63, 96
1, 178866, Note_on_c, 0, 68, 101
1, 178934, Note_off_c, 0, 68, 101
1, 179031, Note_on_c, 0, 66, 92
1, 179102, Note_off_c, 0, 66, 92
1, 179108, Note_on_c, 0, 67, 83
1, 179142, Note_off_c, 0, 67, 83
1, 179149, Note_on_c, 0, 66, 93
1, 179216, Note_off_c, 0, 66, 93
1, 179228, Note_on_c, 0, 65, 99
1, 179317, Note_off_c, 0, 65, 99
1, 179336, Note_on_c, 0, 61, 101
1, 179404, Note_off_c, 0, 61, 101
1, 179408, Note_on_c, 0, 58, 88
1, 179529, Note_off_c, 0, 58, 88
1, 179563, Note_on_c, 0, 55, 97
1, 179607, Note_off_c, 0, 55, 97
1, 179627, Note_on_c, 0, 61, 106
1, 179728, Note_off_c, 0, 61, 106
1, 179744, Note_on_c, 0, 58, 89
1, 179778, Note_off_c, 0, 58, 89
1, 179790, Note_on_c, 0, 61, 108
1, 179853, Note_off_c, 0, 61, 108
1, 179870, Note_on_c, 0, 63, 103
1, 179993, Note_off_c, 0, 63, 103
1, 180015, Note_on_c, 0, 62, 92
1, 180066, Note_off_c, 0, 62, 92
1, 180078, Note_on_c, 0, 63, 105
1, 180150, Note_off_c, 0, 63, 105
1, 180151, Note_on_c, 0, 65, 108
1, 180321, Note_off_c, 0, 65, 108
1, 181126, Note_on_c, 0, 73, 100
1, 181160, Note_off_c, 0, 73, 100
1, 181169, Note_on_c, 0, 72, 95
1, 181216, Note_off_c, 0, 72, 95
1, 181226, Note_on_c, 0, 70, 92
1, 181265, Note_off_c, 0, 70, 92
1, 181273, Note_on_c, 0, 69, 91
1, 181312, Note_off_c, 0, 69, 91
1, 181324, Note_on_c, 0, 67, 90
1, 181473, Note_off_c, 0, 67, 90
1, 181473, Note_on_c, 0, 73, 86
1, 181504, Note_off_c, 0, 73, 86
1, 181508, Note_on_c, 0, 72, 97
1, 181563, Note_off_c, 0, 72, 97
1, 181564, Note_on_c, 0, 71, 94
1, 181622, Note_off_c, 0, 71, 94
1, 181631, Note_on_c, 0, 70, 94
1, 181688, Note_off_c, 0, 70, 94
1, 181692, Note_on_c, 0, 67, 91
1, 181865, Note_off_c, 0, 67, 91
1, 181873, Note_on_c, 0, 73, 99
1, 181908, Note_off_c, 0, 73, 99
1, 181912, Note_on_c, 0, 72, 101
1, 181996, Note_off_c, 0, 72, 101
1, 181997, Note_on_c, 0, 70, 99
1, 182059, Note_off_c, 0, 70, 99
1, 182070, Note_on_c, 0, 67, 99
1, 182241, Note_off_c, 0, 67, 99
1, 182280, Note_on_c, 0, 72, 99
1, 182368, Note_off_c, 0, 72, 99
1, 182371, Note_on_c, 0, 70, 100
1, 182425, Note_off_c, 0, 70, 100
1, 182435, Note_on_c, 0, 67, 96
1, 182641, Note_off_c, 0, 67, 96
1, 182642, Note_on_c, 0, 66, 102
1, 182733, Note_off_c, 0, 66, 102
1, 182767, Note_on_c, 0, 61, 100
1, 182810, Note_off_c, 0, 61, 100
1, 182812, Note_on_c, 0, 60, 98
1, 182841, Note_off_c, 0, 60, 98
1, 182846, Note_on_c, 0, 59, 100
1, 182995, Note_off_c, 0, 59, 100
1, 183022, Note_on_c, 0, 65, 107
1, 183056, Note_off_c, 0, 65, 107
1, 183064, Note_on_c, 0, 63, 111
1, 183105, Note_off_c, 0, 63, 111
1, 183107, Note_on_c, 0, 62, 109
1, 183141, Note_off_c, 0, 62, 109
1, 183144, Note_on_c, 0, 61, 99
1, 183203, Note_off_c, 0, 61, 99
1, 183217, Note_on_c, 0, 59, 94
1, 183321, Note_off_c, 0, 59, 94
1, 184159, Note_on_c, 0, 51, 107
1, 184224, Note_off_c, 0, 51, 107
1, 184227, Note_on_c, 0, 53, 103
1, 184291, Note_off_c, 0, 53, 103
1, 184293, Note_on_c, 0, 56, 100
1, 184372, Note_off_c, 0, 56, 100
1, 184376, Note_on_c, 0, 59, 98
1, 184426, Note_off_c, 0, 59, 98
1, 184433, Note_on_c, 0, 57, 109
1, 184491, Note_off_c, 0, 57, 109
1, 184505, Note_on_c, 0, 59, 104
1, 184551, Note_off_c, 0, 59, 104
1, 184568, Note_on_c, 0, 61, 103
1, 184610, Note_off_c, 0, 61, 103
1, 184622, Note_on_c, 0, 64, 103
1, 184670, Note_off_c, 0, 64, 103
1, 184724, Note_on_c, 0, 49, 104
1, 184781, Note_off_c, 0, 49, 104
1, 184790, Note_on_c, 0, 51, 106
1, 184860, Note_off_c, 0, 51, 106
1, 184871, Note_on_c, 0, 54, 103
1, 184928, Note_off_c, 0, 54, 103
1, 184941, Note_on_c, 0, 57, 100
1, 184991, Note_off_c, 0, 57, 100
1, 185008, Note_on_c, 0, 55, 100
1, 185071, Note_off_c, 0, 55, 100
1, 185076, Note_on_c, 0, 57, 100
1, 185165, Note_off_c, 0, 57, 100
1, 185168, Note_on_c, 0, 58, 94
1, 185220, Note_off_c, 0, 58, 94
1, 185231, Note_on_c, 0, 62, 103
1, 185274, Note_off_c, 0, 62, 103
1, 185276, Note_on_c, 0, 60, 104
1, 185366, Note_off_c, 0, 60, 104
1, 185368, Note_on_c, 0, 61, 103
1, 185392, Note_off_c, 0, 61, 103
1, 185394, Note_on_c, 0, 63, 97
1, 185415, Note_off_c, 0, 63, 97
1, 185420, Note_on_c, 0, 67, 99
1, 185469, Note_off_c, 0, 67, 99
1, 185525, Note_on_c, 0, 53, 99
1, 185610, Note_off_c, 0, 53, 99
1, 185611, Note_on_c, 0, 56, 98
1, 185659, Note_off_c, 0, 56, 98
1, 185659, Note_on_c, 0, 57, 95
1, 185702, Note_off_c, 0, 57, 95
1, 185704, Note_on_c, 0, 58, 91
1, 185746, Note_off_c, 0, 58, 91
1, 185766, Note_on_c, 0, 61, 96
1, 185849, Note_off_c, 0, 61, 96
1, 185864, Note_on_c, 0, 58, 93
1, 185959, Note_off_c, 0, 58, 93
1, 185965, Note_on_c, 0, 60, 106
1, 186000, Note_off_c, 0, 60, 106
1, 186005, Note_on_c, 0, 62, 102
1, 186027, Note_off_c, 0, 62, 102
1, 186036, Note_on_c, 0, 63, 101
1, 186067, Note_off_c, 0, 63, 101
1, 186081, Note_on_c, 0, 67, 93
1, 186155, Note_off_c, 0, 67, 93
1, 186167, Note_on_c, 0, 71, 98
1, 186200, Note_off_c, 0, 71, 98
1, 186204, Note_on_c, 0, 72, 94
1, 186264, Note_off_c, 0, 72, 94
1, 186265, Note_on_c, 0, 74, 93
1, 186376, Note_off_c, 0, 74, 93
1, 186387, Note_on_c, 0, 76, 94
1, 186546, Note_off_c, 0, 76, 94
1, 186939, Note_on_c, 0, 75, 96
1, 186978, Note_off_c, 0, 75, 96
1, 186980, Note_on_c, 0, 77, 88
1, 187103, Note_off_c, 0, 77, 88
1, 187521, Note_on_c, 0, 82, 89
1, 187680, Note_off_c, 0, 82, 89
1, 188118, Note_on_c, 0, 85, 95
1, 188257, Note_off_c, 0, 85, 95
1, 188262, Note_on_c, 0, 87, 85
1, 188305, Note_off_c, 0, 87, 85
1, 188312, Note_on_c, 0, 88, 87
1, 188850, Note_off_c, 0, 88, 87
1, 190213, Note_on_c, 0, 88, 88
1, 190290, Note_off_c, 0, 88, 88
1, 190379, Note_on_c, 0, 85, 92
1, 190476, Note_off_c, 0, 85, 92
1, 190568, Note_on_c, 0, 84, 97
1, 190666, Note_off_c, 0, 84, 97
1, 190758, Note_on_c, 0, 83, 88
1, 190810, Note_off_c, 0, 83, 88
1, 190855, Note_on_c, 0, 82, 94
1, 190937, Note_off_c, 0, 82, 94
1, 191057, Note_on_c, 0, 81, 86
1, 191142, Note_off_c, 0, 81, 86
1, 191260, Note_on_c, 0, 80, 93
1, 191343, Note_off_c, 0, 80, 93
1, 191452, Note_on_c, 0, 80, 96
1, 191487, Note_off_c, 0, 80, 96
1, 191509, Note_on_c, 0, 79, 98
1, 191571, Note_off_c, 0, 79, 98
1, 191627, Note_on_c, 0, 78, 100
1, 191695, Note_off_c, 0, 78, 100
1, 191701, Note_on_c, 0, 76, 97
1, 191822, Note_off_c, 0, 76, 97
1, 191896, Note_on_c, 0, 75, 104
1, 192013, Note_off_c, 0, 75, 104
1, 192115, Note_on_c, 0, 75, 94
1, 192208, Note_off_c, 0, 75, 94
1, 192283, Note_on_c, 0, 74, 93
1, 192368, Note_off_c, 0, 74, 93
1, 192386, Note_on_c, 0, 73, 90
1, 192500, Note_off_c, 0, 73, 90
1, 192891, Note_on_c, 0, 80, 86
1, 192928, Note_off_c, 0, 80, 86
1, 192988, Note_on_c, 0, 81, 97
1, 193060, Note_off_c, 0, 81, 97
1, 193156, Note_on_c, 0, 83, 101
1, 193246, Note_off_c, 0, 83, 101
1, 193347, Note_on_c, 0, 85, 100
1, 193436, Note_off_c, 0, 85, 100
1, 193514, Note_on_c, 0, 87, 105
1, 193560, Note_off_c, 0, 87, 105
1, 193586, Note_on_c, 0, 89, 99
1, 193681, Note_off_c, 0, 89, 99
1, 193784, Note_on_c, 0, 89, 97
1, 193888, Note_off_c, 0, 89, 97
1, 193964, Note_on_c, 0, 89, 89
1, 194064, Note_off_c, 0, 89, 89
1, 194204, Note_on_c, 0, 81, 90
1, 194255, Note_off_c, 0, 81, 90
1, 194282, Note_on_c, 0, 83, 95
1, 194310, Note_off_c, 0, 83, 95
1, 194319, Note_on_c, 0, 85, 101
1, 194403, Note_off_c, 0, 85, 101
1, 194492, Note_on_c, 0, 84, 96
1, 194576, Note_off_c, 0, 84, 96
1, 194682, Note_on_c, 0, 83, 91
1, 194778, Note_off_c, 0, 83, 91
1, 194852, Note_on_c, 0, 82, 89
1, 194933, Note_off_c, 0, 82, 89
1, 195041, Note_on_c, 0, 79, 97
1, 195085, Note_off_c, 0, 79, 97
1, 195132, Note_on_c, 0, 73, 97
1, 195258, Note_off_c, 0, 73, 97
1, 195360, Note_on_c, 0, 71, 98
1, 195425, Note_off_c, 0, 71, 98
1, 195544, Note_on_c, 0, 76, 97
1, 195659, Note_off_c, 0, 76, 97
1, 195752, Note_on_c, 0, 71, 87
1, 195821, Note_off_c, 0, 71, 87
1, 195929, Note_on_c, 0, 69, 97
1, 196012, Note_off_c, 0, 69, 97
1, 196313, Note_on_c, 0, 67, 101
1, 196391, Note_off_c, 0, 67, 101
1, 196399, Note_on_c, 0, 69, 94
1, 196476, Note_off_c, 0, 69, 94
1, 196479, Note_on_c, 0, 71, 92
1, 196561, Note_off_c, 0, 71, 92
1, 196586, Note_on_c, 0, 73, 95
1, 196667, Note_off_c, 0, 73, 95
1, 196681, Note_on_c, 0, 69, 99
1, 196747, Note_off_c, 0, 69, 99
1, 196758, Note_on_c, 0, 64, 101
1, 196855, Note_off_c, 0, 64, 101
1, 197239, Note_on_c, 0, 70, 98
1, 197330, Note_off_c, 0, 70, 98
1, 197346, Note_on_c, 0, 68, 89
1, 197431, Note_off_c, 0, 68, 89
1, 197433, Note_on_c, 0, 69, 100
1, 197507, Note_off_c, 0, 69, 100
1, 197539, Note_on_c, 0, 66, 98
1, 197605, Note_off_c, 0, 66, 98
1, 197606, Note_on_c, 0, 63, 99
1, 197699, Note_off_c, 0, 63, 99
1, 197715, Note_on_c, 0, 60, 104
1, 197778, Note_off_c, 0, 60, 104
1, 197806, Note_on_c, 0, 59, 101
1, 197906, Note_off_c, 0, 59, 101
1, 197915, Note_on_c, 0, 62, 92
1, 197996, Note_off_c, 0, 62, 92
1, 197999, Note_on_c, 0, 66, 99
1, 198065, Note_off_c, 0, 66, 99
1, 198092, Note_on_c, 0, 68, 99
1, 198241, Note_off_c, 0, 68, 99
1, 198246, Note_on_c, 0, 65, 100
1, 198290, Note_off_c, 0, 65, 100
1, 198298, Note_on_c, 0, 67, 102
1, 198395, Note_off_c, 0, 67, 102
1, 198399, Note_on_c, 0, 65, 93
1, 198473, Note_off_c, 0, 65, 93
1, 198477, Note_on_c, 0, 63, 102
1, 198567, Note_off_c, 0, 63, 102
1, 198587, Note_on_c, 0, 63, 102
1, 198654, Note_off_c, 0, 63, 102
1, 198655, Note_on_c, 0, 64, 111
1, 199114, Note_off_c, 0, 64, 111
1, 199118, Note_on_c, 0, 67, 101
1, 199244, Note_off_c, 0, 67, 101
1, 199247, Note_on_c, 0, 65, 103
1, 199595, Note_off_c, 0, 65, 103
1, 199955, Note_on_c, 0, 68, 101
1, 200023, Note_off_c, 0, 68, 101
1, 200029, Note_on_c, 0, 67, 99
1, 200627, Note_off_c, 0, 67, 99
1, 200633, Note_on_c, 0, 70, 95
1, 200739, Note_off_c, 0, 70, 95
1, 200748, Note_on_c, 0, 68, 101
1, 201226, Note_off_c, 0, 68, 101
1, 201239, Note_on_c, 0, 71, 99
1, 201360, Note_off_c, 0, 71, 99
1, 201368, Note_on_c, 0, 70, 95
1, 201471, Note_off_c, 0, 70, 95
1, 201777, Note_on_c, 0, 73, 99
1, 201875, Note_off_c, 0, 73, 99
1, 201878, Note_on_c, 0, 72, 97
1, 202262, Note_off_c, 0, 72, 97
1, 202266, Note_on_c, 0, 73, 94
1, 202338, Note_off_c, 0, 73, 94
1, 202350, Note_on_c, 0, 75, 96
1, 202438, Note_off_c, 0, 75, 96
1, 202449, Note_on_c, 0, 74, 93
1, 202549, Note_off_c, 0, 74, 93
1, 202927, Note_on_c, 0, 77, 94
1, 203029, Note_off_c, 0, 77, 94
1, 203039, Note_on_c, 0, 76, 97
1, 203468, Note_off_c, 0, 76, 97
1, 203475, Note_on_c, 0, 79, 98
1, 203582, Note_off_c, 0, 79, 98
1, 203583, Note_on_c, 0, 78, 94
1, 203685, Note_off_c, 0, 78, 94
1, 204084, Note_on_c, 0, 81, 99
1, 204165, Note_off_c, 0, 81, 99
1, 204172, Note_on_c, 0, 80, 98
1, 204236, Note_off_c, 0, 80, 98
1, 204238, Note_on_c, 0, 79, 96
1, 204521, Note_off_c, 0, 79, 96
1, 204526, Note_on_c, 0, 83, 92
1, 204579, Note_off_c, 0, 83, 92
1, 204581, Note_on_c, 0, 82, 94
1, 204629, Note_off_c, 0, 82, 94
1, 204637, Note_on_c, 0, 84, 93
1, 204715, Note_off_c, 0, 84, 93
1, 204718, Note_on_c, 0, 82, 88
1, 204845, Note_off_c, 0, 82, 88
1, 205172, Note_on_c, 0, 85, 97
1, 205245, Note_off_c, 0, 85, 97
1, 205247, Note_on_c, 0, 86, 96
1, 205286, Note_off_c, 0, 86, 96
1, 205291, Note_on_c, 0, 84, 94
1, 205617, Note_off_c, 0, 84, 94
1, 205624, Note_on_c, 0, 86, 93
1, 205654, Note_off_c, 0, 86, 93
1, 205661, Note_on_c, 0, 84, 96
1, 205707, Note_off_c, 0, 84, 96
1, 205726, Note_on_c, 0, 88, 94
1, 205860, Note_off_c, 0, 88, 94
1, 205892, Note_on_c, 0, 85, 94
1, 206016, Note_off_c, 0, 85, 94
1, 206301, Note_on_c, 0, 45, 118
1, 206496, Note_off_c, 0, 45, 118
1, 206501, Note_on_c, 0, 46, 118
1, 206644, Note_off_c, 0, 46, 118
1, 206654, Note_on_c, 0, 47, 114
1, 206844, Note_off_c, 0, 47, 114
1, 206854, Note_on_c, 0, 48, 114
1, 207044, Note_off_c, 0, 48, 114
1, 207053, Note_on_c, 0, 49, 108
1, 207298, Note_off_c, 0, 49, 108
1, 207304, Note_on_c, 0, 50, 111
1, 207436, Note_off_c, 0, 50, 111
1, 207441, Note_on_c, 0, 51, 108
1, 207531, Note_off_c, 0, 51, 108
1, 207538, Note_on_c, 0, 52, 105
1, 207785, Note_off_c, 0, 52, 105
1, 208502, Note_on_c, 0, 51, 107
1, 208568, Note_off_c, 0, 51, 107
1, 208573, Note_on_c, 0, 53, 106
1, 208658, Note_off_c, 0, 53, 106
1, 208668, Note_on_c, 0, 54, 106
1, 208755, Note_off_c, 0, 54, 106
1, 208766, Note_on_c, 0, 55, 102
1, 208862, Note_off_c, 0, 55, 102
1, 208863, Note_on_c, 0, 56, 110
1, 208999, Note_off_c, 0, 56, 110
1, 209006, Note_on_c, 0, 57, 99
1, 209047, Note_off_c, 0, 57, 99
1, 209053, Note_on_c, 0, 58, 102
1, 209106, Note_off_c, 0, 58, 102
1, 209122, Note_on_c, 0, 59, 98
1, 209233, Note_off_c, 0, 59, 98
1, 209234, Note_on_c, 0, 60, 114
1, 209301, Note_off_c, 0, 60, 114
1, 209312, Note_on_c, 0, 61, 102
1, 209422, Note_off_c, 0, 61, 102
1, 209432, Note_on_c, 0, 62, 108
1, 209500, Note_off_c, 0, 62, 108
1, 209509, Note_on_c, 0, 63, 105
1, 209597, Note_off_c, 0, 63, 105
1, 209608, Note_on_c, 0, 61, 103
1, 209714, Note_off_c, 0, 61, 103
1, 209716, Note_on_c, 0, 62, 108
1, 209808, Note_off_c, 0, 62, 108
1, 209810, Note_on_c, 0, 61, 104
1, 209859, Note_off_c, 0, 61, 104
1, 209861, Note_on_c, 0, 60, 105
1, 209999, Note_off_c, 0, 60, 105
1, 210004, Note_on_c, 0, 58, 100
1, 210067, Note_off_c, 0, 58, 100
1, 210071, Note_on_c, 0, 59, 102
1, 210149, Note_off_c, 0, 59, 102
1, 210170, Note_on_c, 0, 56, 106
1, 210240, Note_off_c, 0, 56, 106
1, 210244, Note_on_c, 0, 55, 110
1, 210364, Note_off_c, 0, 55, 110
1, 210366, Note_on_c, 0, 54, 115
1, 210412, Note_off_c, 0, 54, 115
1, 210420, Note_on_c, 0, 53, 110
1, 210540, Note_off_c, 0, 53, 110
1, 210543, Note_on_c, 0, 51, 108
1, 210621, Note_off_c, 0, 51, 108
1, 210628, Note_on_c, 0, 52, 105
1, 210808, Note_off_c, 0, 52, 105
1, 210820, Note_on_c, 0, 55, 99
1, 210984, Note_off_c, 0, 55, 99
1, 210992, Note_on_c, 0, 60, 103
1, 211189, Note_off_c, 0, 60, 103
1, 211195, Note_on_c, 0, 55, 102
1, 211281, Note_off_c, 0, 55, 102
1, 211282, Note_on_c, 0, 53, 102
1, 211556, Note_off_c, 0, 53, 102
1, 211791, Note_on_c, 0, 58, 99
1, 211876, Note_off_c, 0, 58, 99
1, 211881, Note_on_c, 0, 53, 106
1, 211967, Note_off_c, 0, 53, 106
1, 211969, Note_on_c, 0, 51, 111
1, 212059, Note_off_c, 0, 51, 111
1, 212362, Note_on_c, 0, 56, 103
1, 212414, Note_off_c, 0, 56, 103
1, 212415, Note_on_c, 0, 55, 107
1, 212466, Note_off_c, 0, 55, 107
1, 212466, Note_on_c, 0, 54, 106
1, 212569, Note_off_c, 0, 54, 106
1, 212578, Note_on_c, 0, 53, 113
1, 212645, Note_off_c, 0, 53, 113
1, 212654, Note_on_c, 0, 51, 112
1, 212731, Note_off_c, 0, 51, 112
1, 212731, Note_on_c, 0, 49, 107
1, 212819, Note_off_c, 0, 49, 107
1, 212819, Note_on_c, 0, 47, 107
1, 212923, Note_off_c, 0, 47, 107
1, 212927, Note_on_c, 0, 46, 109
1, 213017, Note_off_c, 0, 46, 109
1, 213030, Note_on_c, 0, 48, 105
1, 213119, Note_off_c, 0, 48, 105
1, 213124, Note_on_c, 0, 51, 105
1, 213240, Note_off_c, 0, 51, 105
1, 213247, Note_on_c, 0, 56, 100
1, 213375, Note_off_c, 0, 56, 100
1, 213385, Note_on_c, 0, 53, 107
1, 213449, Note_off_c, 0, 53, 107
1, 213457, Note_on_c, 0, 54, 108
1, 213545, Note_off_c, 0, 54, 108
1, 213554, Note_on_c, 0, 58, 92
1, 213648, Note_off_c, 0, 58, 92
1, 213654, Note_on_c, 0, 61, 103
1, 213714, Note_off_c, 0, 61, 103
1, 213717, Note_on_c, 0, 62, 108
1, 213790, Note_off_c, 0, 62, 108
1, 213801, Note_on_c, 0, 65, 106
1, 213890, Note_off_c, 0, 65, 106
1, 213892, Note_on_c, 0, 64, 104
1, 214003, Note_off_c, 0, 64, 104
1, 214009, Note_on_c, 0, 62, 103
1, 214057, Note_off_c, 0, 62, 103
1, 214062, Note_on_c, 0, 63, 105
1, 214178, Note_off_c, 0, 63, 105
1, 214185, Note_on_c, 0, 65, 99
1, 214249, Note_off_c, 0, 65, 99
1, 214260, Note_on_c, 0, 66, 94
1, 214357, Note_off_c, 0, 66, 94
1, 214365, Note_on_c, 0, 68, 85
1, 214452, Note_off_c, 0, 68, 85
1, 214456, Note_on_c, 0, 70, 89
1, 214532, Note_off_c, 0, 70, 89
1, 214573, Note_on_c, 0, 63, 106
1, 214651, Note_off_c, 0, 63, 106
1, 215228, Note_on_c, 0, 71, 103
1, 215266, Note_off_c, 0, 71, 103
1, 215266, Note_on_c, 0, 73, 98
1, 215344, Note_off_c, 0, 73, 98
1, 215357, Note_on_c, 0, 72, 97
1, 215445, Note_off_c, 0, 72, 97
1, 215452, Note_on_c, 0, 70, 94
1, 215512, Note_off_c, 0, 70, 94
1, 215519, Note_on_c, 0, 71, 91
1, 215559, Note_off_c, 0, 71, 91
1, 215559, Note_on_c, 0, 69, 99
1, 215614, Note_off_c, 0, 69, 99
1, 215617, Note_on_c, 0, 68, 92
1, 215692, Note_off_c, 0, 68, 92
1, 215712, Note_on_c, 0, 66, 97
1, 215795, Note_off_c, 0, 66, 97
1, 215802, Note_on_c, 0, 65, 103
1, 215874, Note_off_c, 0, 65, 103
1, 215884, Note_on_c, 0, 63, 108
1, 215975, Note_off_c, 0, 63, 108
1, 215981, Note_on_c, 0, 61, 98
1, 216043, Note_off_c, 0, 61, 98
1, 216069, Note_on_c, 0, 63, 110
1, 216173, Note_off_c, 0, 63, 110
1, 216186, Note_on_c, 0, 65, 95
1, 216255, Note_off_c, 0, 65, 95
1, 216260, Note_on_c, 0, 68, 86
1, 216345, Note_off_c, 0, 68, 86
1, 216368, Note_on_c, 0, 73, 91
1, 216445, Note_off_c, 0, 73, 91
1, 216480, Note_on_c, 0, 68, 96
1, 216537, Note_off_c, 0, 68, 96
1, 216553, Note_on_c, 0, 65, 95
1, 216671, Note_off_c, 0, 65, 95
1, 216760, Note_on_c, 0, 65, 96
1, 216806, Note_off_c, 0, 65, 96
1, 216808, Note_on_c, 0, 67, 91
1, 216895, Note_off_c, 0, 67, 91
1, 217051, Note_on_c, 0, 75, 90
1, 217265, Note_off_c, 0, 75, 90
1, 217608, Note_on_c, 0, 67, 93
1, 217682, Note_off_c, 0, 67, 93
1, 217683, Note_on_c, 0, 69, 90
1, 217740, Note_off_c, 0, 69, 90
1, 217906, Note_on_c, 0, 77, 78
1, 218027, Note_off_c, 0, 77, 78
1, 218295, Note_on_c, 0, 79, 91
1, 218385, Note_off_c, 0, 79, 91
1, 218478, Note_on_c, 0, 78, 85
1, 218597, Note_off_c, 0, 78, 85
1, 218687, Note_on_c, 0, 77, 77
1, 218775, Note_off_c, 0, 77, 77
1, 218891, Note_on_c, 0, 76, 92
1, 218961, Note_off_c, 0, 76, 92
1, 219045, Note_on_c, 0, 75, 89
1, 219131, Note_off_c, 0, 75, 89
1, 219217, Note_on_c, 0, 74, 75
1, 219303, Note_off_c, 0, 74, 75
1, 219331, Note_on_c, 0, 73, 81
1, 219386, Note_off_c, 0, 73, 81
1, 219502, Note_on_c, 0, 71, 91
1, 219574, Note_off_c, 0, 71, 91
1, 219611, Note_on_c, 0, 70, 87
1, 219672, Note_off_c, 0, 70, 87
1, 220027, Note_on_c, 0, 72, 86
1, 220085, Note_off_c, 0, 72, 86
1, 220090, Note_on_c, 0, 73, 91
1, 220237, Note_off_c, 0, 73, 91
1, 220248, Note_on_c, 0, 71, 90
1, 220303, Note_off_c, 0, 71, 90
1, 220309, Note_on_c, 0, 69, 93
1, 220401, Note_off_c, 0, 69, 93
1, 220405, Note_on_c, 0, 68, 93
1, 220491, Note_off_c, 0, 68, 93
1, 220502, Note_on_c, 0, 66, 97
1, 220597, Note_off_c, 0, 66, 97
1, 220607, Note_on_c, 0, 64, 95
1, 220693, Note_off_c, 0, 64, 95
1, 220699, Note_on_c, 0, 66, 97
1, 220796, Note_off_c, 0, 66, 97
1, 220797, Note_on_c, 0, 68, 93
1, 220856, Note_off_c, 0, 68, 93
1, 220879, Note_on_c, 0, 71, 99
1, 220973, Note_off_c, 0, 71, 99
1, 220976, Note_on_c, 0, 69, 92
1, 221040, Note_off_c, 0, 69, 92
1, 221055, Note_on_c, 0, 66, 95
1, 221140, Note_off_c, 0, 66, 95
1, 221146, Note_on_c, 0, 63, 102
1, 221247, Note_off_c, 0, 63, 102
1, 221256, Note_on_c, 0, 60, 107
1, 221351, Note_off_c, 0, 60, 107
1, 221366, Note_on_c, 0, 59, 102
1, 221412, Note_off_c, 0, 59, 102
1, 221440, Note_on_c, 0, 62, 105
1, 221531, Note_off_c, 0, 62, 105
1, 221545, Note_on_c, 0, 66, 94
1, 221595, Note_off_c, 0, 66, 94
1, 221618, Note_on_c, 0, 68, 93
1, 221701, Note_off_c, 0, 68, 93
1, 221763, Note_on_c, 0, 65, 94
1, 221809, Note_off_c, 0, 65, 94
1, 221814, Note_on_c, 0, 66, 93
1, 221867, Note_off_c, 0, 66, 93
1, 221872, Note_on_c, 0, 67, 98
1, 221978, Note_off_c, 0, 67, 98
1, 221989, Note_on_c, 0, 65, 101
1, 222039, Note_off_c, 0, 65, 101
1, 222055, Note_on_c, 0, 64, 109
1, 222168, Note_off_c, 0, 64, 109
1, 222174, Note_on_c, 0, 60, 108
1, 222249, Note_off_c, 0, 60, 108
1, 222255, Note_on_c, 0, 57, 110
1, 222362, Note_off_c, 0, 57, 110
1, 222367, Note_on_c, 0, 55, 108
1, 222451, Note_off_c, 0, 55, 108
1, 222462, Note_on_c, 0, 60, 112
1, 222543, Note_off_c, 0, 60, 112
1, 222549, Note_on_c, 0, 62, 110
1, 222639, Note_off_c, 0, 62, 110
1, 222659, Note_on_c, 0, 64, 100
1, 222701, Note_off_c, 0, 64, 100
1, 222721, Note_on_c, 0, 67, 98
1, 222829, Note_off_c, 0, 67, 98
1, 222829, End_track
0, 0, End_of_file
