0, 0, Header, 1, 1, 2520
1, 0, Start_track
1, 0, Title_t, "Melody"
1, 0, Tempo, 508474
1, 0, Key_signature, 2, "major"
1, 0, Time_signature, 4, 2, 24, 8
1, 34926, Note_on_c, 0, 67, 100
1, 35264, Note_off_c, 0, 67, 100
1, 35422, Note_on_c, 0, 65, 31
1, 35817, Note_off_c, 0, 65, 31
1, 36104, Note_on_c, 0, 67, 9
1, 36629, Note_off_c, 0, 67, 9
1, 37937, Note_on_c, 0, 67, 9
1, 38303, Note_off_c, 0, 67, 9
1, 39698, Note_on_c, 0, 67, 101
1, 40093, Note_off_c, 0, 67, 101
1, 41704, Note_on_c, 0, 67, 9
1, 42042, Note_off_c, 0, 67, 9
1, 43422, Note_on_c, 0, 67, 102
1, 43745, Note_off_c, 0, 67, 102
1, 45269, Note_on_c, 0, 67, 105
1, 45571, Note_off_c, 0, 67, 105
1, 47191, Note_on_c, 0, 67, 93
1, 47443, Note_off_c, 0, 67, 93
1, 49061, Note_on_c, 0, 67, 97
1, 49399, Note_off_c, 0, 67, 97
1, 50876, Note_on_c, 0, 67, 108
1, 51149, Note_off_c, 0, 67, 108
1, 54737, Note_on_c, 0, 67, 96
1, 55024, Note_off_c, 0, 67, 96
1, 55448, Note_on_c, 0, 65, 81
1, 55786, Note_off_c, 0, 65, 81
1, 55929, Note_on_c, 0, 67, 56
1, 56202, Note_off_c, 0, 67, 56
1, 57705, Note_on_c, 0, 67, 9
1, 58007, Note_off_c, 0, 67, 9
1, 59970, Note_on_c, 0, 67, 9
1, 60236, Note_off_c, 0, 67, 9
1, 61854, Note_on_c, 0, 67, 101
1, 62098, Note_off_c, 0, 67, 101
1, 63716, Note_on_c, 0, 67, 96
1, 63974, Note_off_c, 0, 67, 96
1, 65786, Note_on_c, 0, 67, 97
1, 66003, Note_off_c, 0, 67, 97
1, 67439, Note_on_c, 0, 67, 103
1, 67737, Note_off_c, 0, 67, 103
1, 69507, Note_on_c, 0, 67, 67
1, 69734, Note_off_c, 0, 67, 67
1, 71215, Note_on_c, 0, 67, 9
1, 71437, Note_off_c, 0, 67, 9
1, 74967, Note_on_c, 0, 68, 109
1, 75447, Note_off_c, 0, 68, 109
1, 75664, Note_on_c, 0, 66, 58
1, 75992, Note_off_c, 0, 66, 58
1, 76267, Note_on_c, 0, 67, 109
1, 76525, Note_off_c, 0, 67, 109
1, 78058, Note_on_c, 0, 67, 103
1, 78361, Note_off_c, 0, 67, 103
1, 80069, Note_on_c, 0, 67, 101
1, 80327, Note_off_c, 0, 67, 101
1, 82053, Note_on_c, 0, 67, 100
1, 82283, Note_off_c, 0, 67, 100
1, 83810, Note_on_c, 0, 68, 105
1, 84113, Note_off_c, 0, 68, 105
1, 85518, Note_on_c, 0, 67, 79
1, 85750, Note_off_c, 0, 67, 79
1, 87439, Note_on_c, 0, 67, 123
1, 87671, Note_off_c, 0, 67, 123
1, 89500, Note_on_c, 0, 67, 102
1, 89773, Note_off_c, 0, 67, 102
1, 91369, Note_on_c, 0, 67, 98
1, 91584, Note_off_c, 0, 67, 98
1, 95072, Note_on_c, 0, 68, 100
1, 95436, Note_off_c, 0, 68, 100
1, 95719, Note_on_c, 0, 66, 9
1, 96052, Note_off_c, 0, 66, 9
1, 96390, Note_on_c, 0, 67, 50
1, 96703, Note_off_c, 0, 67, 50
1, 98270, Note_on_c, 0, 66, 104
1, 98550, Note_off_c, 0, 66, 104
1, 100218, Note_on_c, 0, 65, 9
1, 100599, Note_off_c, 0, 65, 9
1, 100807, Note_on_c, 0, 62, 9
1, 101094, Note_off_c, 0, 62, 9
1, 102122, Note_on_c, 0, 67, 99
1, 102452, Note_off_c, 0, 67, 99
1, 103890, Note_on_c, 0, 66, 54
1, 104436, Note_off_c, 0, 66, 54
1, 104608, Note_on_c, 0, 65, 90
1, 104960, Note_off_c, 0, 65, 90
1, 105765, Note_on_c, 0, 62, 115
1, 106174, Note_off_c, 0, 62, 115
1, 107866, Note_on_c, 0, 65, 45
1, 108391, Note_off_c, 0, 65, 45
1, 108471, Note_on_c, 0, 66, 107
1, 108814, Note_off_c, 0, 66, 107
1, 109800, Note_on_c, 0, 67, 9
1, 110103, Note_off_c, 0, 67, 9
1, 111593, Note_on_c, 0, 68, 9
1, 112031, Note_off_c, 0, 68, 9
1, 112225, Note_on_c, 0, 69, 68
1, 112530, Note_off_c, 0, 69, 68
1, 113425, Note_on_c, 0, 67, 32
1, 113759, Note_off_c, 0, 67, 32
1, 114727, Note_on_c, 0, 66, 45
1, 115086, Note_off_c, 0, 66, 45
1, 115313, Note_on_c, 0, 67, 111
1, 115778, Note_off_c, 0, 67, 111
1, 115944, Note_on_c, 0, 66, 43
1, 116328, Note_off_c, 0, 66, 43
1, 117374, Note_on_c, 0, 65, 45
1, 117712, Note_off_c, 0, 65, 45
1, 118483, Note_on_c, 0, 66, 29
1, 118813, Note_off_c, 0, 66, 29
1, 119129, Note_on_c, 0, 67, 107
1, 119625, Note_off_c, 0, 67, 107
1, 119876, Note_on_c, 0, 65, 76
1, 120163, Note_off_c, 0, 65, 76
1, 121141, Note_on_c, 0, 66, 96
1, 121471, Note_off_c, 0, 66, 96
1, 122240, Note_on_c, 0, 65, 67
1, 122707, Note_off_c, 0, 65, 67
1, 122796, Note_on_c, 0, 62, 108
1, 123425, Note_off_c, 0, 62, 108
1, 123590, Note_on_c, 0, 65, 66
1, 123924, Note_off_c, 0, 65, 66
1, 124839, Note_on_c, 0, 65, 59
1, 125233, Note_off_c, 0, 65, 59
1, 126055, Note_on_c, 0, 66, 68
1, 126457, Note_off_c, 0, 66, 68
1, 126723, Note_on_c, 0, 67, 101
1, 127125, Note_off_c, 0, 67, 101
1, 127448, Note_on_c, 0, 65, 110
1, 127814, Note_off_c, 0, 65, 110
1, 128622, Note_on_c, 0, 66, 112
1, 128976, Note_off_c, 0, 66, 112
1, 129845, Note_on_c, 0, 65, 108
1, 130254, Note_off_c, 0, 65, 108
1, 130441, Note_on_c, 0, 62, 47
1, 130936, Note_off_c, 0, 62, 47
1, 131123, Note_on_c, 0, 65, 106
1, 131441, Note_off_c, 0, 65, 106
1, 132497, Note_on_c, 0, 65, 100
1, 132881, Note_off_c, 0, 65, 100
1, 133760, Note_on_c, 0, 66, 98
1, 134017, Note_off_c, 0, 66, 98
1, 134416, Note_on_c, 0, 67, 106
1, 134926, Note_off_c, 0, 67, 106
1, 135118, Note_on_c, 0, 65, 102
1, 135497, Note_off_c, 0, 65, 102
1, 136321, Note_on_c, 0, 66, 9
1, 136720, Note_off_c, 0, 66, 9
1, 137503, Note_on_c, 0, 65, 106
1, 137973, Note_off_c, 0, 65, 106
1, 138064, Note_on_c, 0, 62, 102
1, 138625, Note_off_c, 0, 62, 102
1, 138690, Note_on_c, 0, 65, 99
1, 139038, Note_off_c, 0, 65, 99
1, 140165, Note_on_c, 0, 65, 113
1, 140554, Note_off_c, 0, 65, 113
1, 141368, Note_on_c, 0, 66, 100
1, 141813, Note_off_c, 0, 66, 100
1, 142677, Note_on_c, 0, 67, 9
1, 143187, Note_off_c, 0, 67, 9
1, 143959, Note_on_c, 0, 68, 9
1, 144361, Note_off_c, 0, 68, 9
1, 144619, Note_on_c, 0, 69, 118
1, 145151, Note_off_c, 0, 69, 118
1, 145776, Note_on_c, 0, 67, 114
1, 146272, Note_off_c, 0, 67, 114
1, 146660, Note_on_c, 0, 68, 99
1, 146976, Note_off_c, 0, 68, 99
1, 147713, Note_on_c, 0, 67, 114
1, 148193, Note_off_c, 0, 67, 114
1, 148302, Note_on_c, 0, 66, 102
1, 148812, Note_off_c, 0, 66, 102
1, 149009, Note_on_c, 0, 67, 115
1, 149321, Note_off_c, 0, 67, 115
1, 150294, Note_on_c, 0, 66, 9
1, 150794, Note_off_c, 0, 66, 9
1, 150945, Note_on_c, 0, 65, 9
1, 151374, Note_off_c, 0, 65, 9
1, 151475, Note_on_c, 0, 66, 115
1, 151940, Note_off_c, 0, 66, 115
1, 152850, Note_on_c, 0, 65, 9
1, 153406, Note_off_c, 0, 65, 9
1, 153478, Note_on_c, 0, 62, 111
1, 153938, Note_off_c, 0, 62, 111
1, 154204, Note_on_c, 0, 65, 16
1, 154563, Note_off_c, 0, 65, 16
1, 155404, Note_on_c, 0, 62, 103
1, 155821, Note_off_c, 0, 62, 103
1, 156648, Note_on_c, 0, 61, 9
1, 157158, Note_off_c, 0, 61, 9
1, 157215, Note_on_c, 0, 60, 9
1, 157718, Note_off_c, 0, 60, 9
1, 157782, Note_on_c, 0, 61, 9
1, 158220, Note_off_c, 0, 61, 9
1, 159003, Note_on_c, 0, 62, 37
1, 159484, Note_off_c, 0, 62, 37
1, 160210, Note_on_c, 0, 60, 86
1, 160756, Note_off_c, 0, 60, 86
1, 160993, Note_on_c, 0, 61, 117
1, 161395, Note_off_c, 0, 61, 117
1, 161510, Note_on_c, 0, 60, 111
1, 161884, Note_off_c, 0, 60, 111
1, 162869, Note_on_c, 0, 62, 120
1, 163322, Note_off_c, 0, 62, 120
1, 164055, Note_on_c, 0, 60, 50
1, 164508, Note_off_c, 0, 60, 50
1, 164666, Note_on_c, 0, 61, 116
1, 165133, Note_off_c, 0, 61, 116
1, 165334, Note_on_c, 0, 62, 40
1, 165686, Note_off_c, 0, 62, 40
1, 166671, Note_on_c, 0, 60, 9
1, 166994, Note_off_c, 0, 60, 9
1, 167849, Note_on_c, 0, 61, 103
1, 168237, Note_off_c, 0, 61, 103
1, 168373, Note_on_c, 0, 60, 99
1, 168854, Note_off_c, 0, 60, 99
1, 168969, Note_on_c, 0, 62, 85
1, 169393, Note_off_c, 0, 62, 85
1, 170371, Note_on_c, 0, 61, 9
1, 170714, Note_off_c, 0, 61, 9
1, 171639, Note_on_c, 0, 62, 9
1, 172003, Note_off_c, 0, 62, 9
1, 172052, Note_on_c, 0, 61, 9
1, 172609, Note_off_c, 0, 61, 9
1, 172702, Note_on_c, 0, 60, 47
1, 173097, Note_off_c, 0, 60, 47
1, 174019, Note_on_c, 0, 61, 121
1, 174479, Note_off_c, 0, 61, 121
1, 175318, Note_on_c, 0, 60, 9
1, 175687, Note_off_c, 0, 60, 9
1, 175762, Note_on_c, 0, 61, 9
1, 176303, Note_off_c, 0, 61, 9
1, 176399, Note_on_c, 0, 60, 9
1, 176803, Note_off_c, 0, 60, 9
1, 177682, Note_on_c, 0, 61, 9
1, 178061, Note_off_c, 0, 61, 9
1, 178839, Note_on_c, 0, 62, 108
1, 179380, Note_off_c, 0, 62, 108
1, 179460, Note_on_c, 0, 61, 118
1, 179915, Note_off_c, 0, 61, 118
1, 180193, Note_on_c, 0, 65, 9
1, 180582, Note_off_c, 0, 65, 9
1, 181497, Note_on_c, 0, 62, 9
1, 182083, Note_off_c, 0, 62, 9
1, 182702, Note_on_c, 0, 61, 9
1, 183137, Note_off_c, 0, 61, 9
1, 183298, Note_on_c, 0, 62, 40
1, 183866, Note_off_c, 0, 62, 40
1, 183923, Note_on_c, 0, 61, 115
1, 184314, Note_off_c, 0, 61, 115
1, 185185, Note_on_c, 0, 60, 126
1, 185650, Note_off_c, 0, 60, 126
1, 186287, Note_on_c, 0, 61, 58
1, 186777, Note_off_c, 0, 61, 58
1, 187075, Note_on_c, 0, 60, 103
1, 187434, Note_off_c, 0, 60, 103
1, 187489, Note_on_c, 0, 59, 92
1, 187711, Note_off_c, 0, 59, 92
1, 190355, Note_on_c, 0, 60, 87
1, 190651, Note_off_c, 0, 60, 87
1, 190688, Note_on_c, 0, 61, 9
1, 191019, Note_off_c, 0, 61, 9
1, 191085, Note_on_c, 0, 62, 9
1, 191391, Note_off_c, 0, 62, 9
1, 191423, Note_on_c, 0, 65, 9
1, 191744, Note_off_c, 0, 65, 9
1, 191788, Note_on_c, 0, 61, 9
1, 192116, Note_off_c, 0, 61, 9
1, 192239, Note_on_c, 0, 62, 9
1, 192528, Note_off_c, 0, 62, 9
1, 192577, Note_on_c, 0, 65, 9
1, 192913, Note_off_c, 0, 65, 9
1, 193122, Note_on_c, 0, 66, 9
1, 193402, Note_off_c, 0, 66, 9
1, 193488, Note_on_c, 0, 65, 9
1, 193858, Note_off_c, 0, 65, 9
1, 194021, Note_on_c, 0, 61, 9
1, 194295, Note_off_c, 0, 61, 9
1, 194317, Note_on_c, 0, 62, 9
1, 194559, Note_off_c, 0, 62, 9
1, 194583, Note_on_c, 0, 65, 9
1, 194943, Note_off_c, 0, 65, 9
1, 194995, Note_on_c, 0, 62, 9
1, 195473, Note_off_c, 0, 62, 9
1, 195544, Note_on_c, 0, 60, 9
1, 195799, Note_off_c, 0, 60, 9
1, 195831, Note_on_c, 0, 61, 9
1, 196269, Note_off_c, 0, 61, 9
1, 196359, Note_on_c, 0, 60, 9
1, 197077, Note_off_c, 0, 60, 9
1, 197203, Note_on_c, 0, 62, 9
1, 199362, Note_off_c, 0, 62, 9
1, 199492, Note_on_c, 0, 60, 9
1, 199781, Note_off_c, 0, 60, 9
1, 199823, Note_on_c, 0, 61, 9
1, 200139, Note_off_c, 0, 61, 9
1, 200200, Note_on_c, 0, 62, 9
1, 200437, Note_off_c, 0, 62, 9
1, 200479, Note_on_c, 0, 65, 9
1, 200775, Note_off_c, 0, 65, 9
1, 200851, Note_on_c, 0, 60, 9
1, 201105, Note_off_c, 0, 60, 9
1, 201149, Note_on_c, 0, 62, 9
1, 201382, Note_off_c, 0, 62, 9
1, 201443, Note_on_c, 0, 63, 9
1, 201637, Note_off_c, 0, 63, 9
1, 207412, Note_on_c, 0, 60, 109
1, 207696, Note_off_c, 0, 60, 109
1, 207721, Note_on_c, 0, 61, 108
1, 207972, Note_off_c, 0, 61, 108
1, 207993, Note_on_c, 0, 62, 17
1, 208474, Note_off_c, 0, 62, 17
1, 208514, Note_on_c, 0, 60, 62
1, 208823, Note_off_c, 0, 60, 62
1, 208847, Note_on_c, 0, 61, 97
1, 209138, Note_off_c, 0, 61, 97
1, 209175, Note_on_c, 0, 62, 78
1, 209451, Note_off_c, 0, 62, 78
1, 209481, Note_on_c, 0, 65, 11
1, 209785, Note_off_c, 0, 65, 11
1, 209846, Note_on_c, 0, 61, 55
1, 210194, Note_off_c, 0, 61, 55
1, 210218, Note_on_c, 0, 62, 114
1, 210504, Note_off_c, 0, 62, 114
1, 210526, Note_on_c, 0, 65, 109
1, 210790, Note_off_c, 0, 65, 109
1, 210816, Note_on_c, 0, 61, 106
1, 211148, Note_off_c, 0, 61, 106
1, 211195, Note_on_c, 0, 62, 94
1, 211506, Note_off_c, 0, 62, 94
1, 211560, Note_on_c, 0, 65, 100
1, 214106, Note_off_c, 0, 65, 100
1, 214257, Note_on_c, 0, 62, 95
1, 214684, Note_off_c, 0, 62, 95
1, 214727, Note_on_c, 0, 61, 97
1, 215108, Note_off_c, 0, 61, 97
1, 215230, Note_on_c, 0, 65, 70
1, 215607, Note_off_c, 0, 65, 70
1, 215740, Note_on_c, 0, 60, 50
1, 216110, Note_off_c, 0, 60, 50
1, 216156, Note_on_c, 0, 61, 105
1, 216436, Note_off_c, 0, 61, 105
1, 216497, Note_on_c, 0, 62, 101
1, 216838, Note_off_c, 0, 62, 101
1, 216873, Note_on_c, 0, 65, 92
1, 217171, Note_off_c, 0, 65, 92
1, 217208, Note_on_c, 0, 62, 96
1, 217695, Note_off_c, 0, 62, 96
1, 217813, Note_on_c, 0, 65, 9
1, 218186, Note_off_c, 0, 65, 9
1, 218210, Note_on_c, 0, 67, 9
1, 218580, Note_off_c, 0, 67, 9
1, 218610, Note_on_c, 0, 65, 63
1, 218918, Note_off_c, 0, 65, 63
1, 218969, Note_on_c, 0, 66, 106
1, 219189, Note_off_c, 0, 66, 106
1, 219245, Note_on_c, 0, 67, 102
1, 219494, Note_off_c, 0, 67, 102
1, 219649, Note_on_c, 0, 67, 90
1, 220129, Note_off_c, 0, 67, 90
1, 220169, Note_on_c, 0, 68, 90
1, 220512, Note_off_c, 0, 68, 90
1, 220552, Note_on_c, 0, 66, 63
1, 220814, Note_off_c, 0, 66, 63
1, 220869, Note_on_c, 0, 67, 9
1, 221187, Note_off_c, 0, 67, 9
1, 221298, Note_on_c, 0, 65, 12
1, 221555, Note_off_c, 0, 65, 12
1, 221883, Note_on_c, 0, 67, 101
1, 222257, Note_off_c, 0, 67, 101
1, 222363, Note_on_c, 0, 68, 94
1, 222792, Note_off_c, 0, 68, 94
1, 222939, Note_on_c, 0, 73, 89
1, 223444, Note_off_c, 0, 73, 89
1, 223671, Note_on_c, 0, 72, 9
1, 224045, Note_off_c, 0, 72, 9
1, 224073, Note_on_c, 0, 71, 30
1, 224389, Note_off_c, 0, 71, 30
1, 224647, Note_on_c, 0, 68, 102
1, 225071, Note_off_c, 0, 68, 102
1, 225157, Note_on_c, 0, 73, 92
1, 225710, Note_off_c, 0, 73, 92
1, 225875, Note_on_c, 0, 72, 57
1, 226335, Note_off_c, 0, 72, 57
1, 226471, Note_on_c, 0, 68, 9
1, 226952, Note_off_c, 0, 68, 9
1, 227038, Note_on_c, 0, 64, 104
1, 227264, Note_off_c, 0, 64, 104
1, 227296, Note_on_c, 0, 66, 99
1, 227770, Note_off_c, 0, 66, 99
1, 227849, Note_on_c, 0, 65, 92
1, 228137, Note_off_c, 0, 65, 92
1, 228207, Note_on_c, 0, 60, 90
1, 228480, Note_off_c, 0, 60, 90
1, 228498, Note_on_c, 0, 61, 80
1, 228742, Note_off_c, 0, 61, 80
1, 228799, Note_on_c, 0, 62, 53
1, 229313, Note_off_c, 0, 62, 53
1, 229370, Note_on_c, 0, 66, 109
1, 229729, Note_off_c, 0, 66, 109
1, 229815, Note_on_c, 0, 65, 101
1, 230138, Note_off_c, 0, 65, 101
1, 230271, Note_on_c, 0, 60, 9
1, 230609, Note_off_c, 0, 60, 9
1, 230648, Note_on_c, 0, 61, 9
1, 230867, Note_off_c, 0, 61, 9
1, 230971, Note_on_c, 0, 62, 76
1, 231258, Note_off_c, 0, 62, 76
1, 231347, Note_on_c, 0, 64, 107
1, 231965, Note_off_c, 0, 64, 107
1, 232130, Note_on_c, 0, 62, 103
1, 232435, Note_off_c, 0, 62, 103
1, 232485, Note_on_c, 0, 61, 100
1, 232704, Note_off_c, 0, 61, 100
1, 232829, Note_on_c, 0, 59, 102
1, 233157, Note_off_c, 0, 59, 102
1, 233293, Note_on_c, 0, 45, 102
1, 234940, Note_off_c, 0, 45, 102
1, 239214, Note_on_c, 0, 60, 9
1, 239526, Note_off_c, 0, 60, 9
1, 239587, Note_on_c, 0, 61, 9
1, 239802, Note_off_c, 0, 61, 9
1, 239863, Note_on_c, 0, 62, 9
1, 240211, Note_off_c, 0, 62, 9
1, 240218, Note_on_c, 0, 65, 9
1, 240491, Note_off_c, 0, 65, 9
1, 240548, Note_on_c, 0, 66, 9
1, 240882, Note_off_c, 0, 66, 9
1, 240928, Note_on_c, 0, 67, 9
1, 241305, Note_off_c, 0, 67, 9
1, 241402, Note_on_c, 0, 65, 9
1, 241821, Note_off_c, 0, 65, 9
1, 241903, Note_on_c, 0, 66, 9
1, 242246, Note_off_c, 0, 66, 9
1, 242311, Note_on_c, 0, 65, 9
1, 242629, Note_off_c, 0, 65, 9
1, 242681, Note_on_c, 0, 62, 9
1, 243118, Note_off_c, 0, 62, 9
1, 243157, Note_on_c, 0, 65, 9
1, 243488, Note_off_c, 0, 65, 9
1, 243647, Note_on_c, 0, 60, 9
1, 243938, Note_off_c, 0, 60, 9
1, 244024, Note_on_c, 0, 61, 9
1, 244300, Note_off_c, 0, 61, 9
1, 244371, Note_on_c, 0, 62, 9
1, 244665, Note_off_c, 0, 62, 9
1, 244741, Note_on_c, 0, 60, 9
1, 244943, Note_off_c, 0, 60, 9
1, 245003, Note_on_c, 0, 61, 9
1, 245291, Note_off_c, 0, 61, 9
1, 245336, Note_on_c, 0, 60, 9
1, 245684, Note_off_c, 0, 60, 9
1, 245808, Note_on_c, 0, 57, 9
1, 246153, Note_off_c, 0, 57, 9
1, 246408, Note_on_c, 0, 56, 9
1, 246728, Note_off_c, 0, 56, 9
1, 246792, Note_on_c, 0, 57, 63
1, 247191, Note_off_c, 0, 57, 63
1, 247248, Note_on_c, 0, 55, 119
1, 247593, Note_off_c, 0, 55, 119
1, 247618, Note_on_c, 0, 53, 86
1, 247840, Note_off_c, 0, 53, 86
1, 248064, Note_on_c, 0, 55, 9
1, 248224, Note_off_c, 0, 55, 9
1, 248285, Note_on_c, 0, 56, 9
1, 248495, Note_off_c, 0, 56, 9
1, 248564, Note_on_c, 0, 53, 9
1, 249059, Note_off_c, 0, 53, 9
1, 249358, Note_on_c, 0, 48, 120
1, 249548, Note_off_c, 0, 48, 120
1, 249654, Note_on_c, 0, 49, 110
1, 249940, Note_off_c, 0, 49, 110
1, 249986, Note_on_c, 0, 50, 110
1, 250428, Note_off_c, 0, 50, 110
1, 250496, Note_on_c, 0, 45, 102
1, 252250, Note_off_c, 0, 45, 102
1, 259104, Note_on_c, 0, 60, 113
1, 259513, Note_off_c, 0, 60, 113
1, 259520, Note_on_c, 0, 61, 108
1, 259825, Note_off_c, 0, 61, 108
1, 259904, Note_on_c, 0, 62, 106
1, 260278, Note_off_c, 0, 62, 106
1, 260338, Note_on_c, 0, 60, 123
1, 260592, Note_off_c, 0, 60, 123
1, 260690, Note_on_c, 0, 60, 112
1, 261043, Note_off_c, 0, 60, 112
1, 261072, Note_on_c, 0, 56, 108
1, 261423, Note_off_c, 0, 56, 108
1, 261531, Note_on_c, 0, 60, 9
1, 261909, Note_off_c, 0, 60, 9
1, 262035, Note_on_c, 0, 56, 9
1, 262394, Note_off_c, 0, 56, 9
1, 262494, Note_on_c, 0, 57, 9
1, 262839, Note_off_c, 0, 57, 9
1, 262892, Note_on_c, 0, 55, 96
1, 263150, Note_off_c, 0, 55, 96
1, 263214, Note_on_c, 0, 53, 120
1, 263602, Note_off_c, 0, 53, 120
1, 263818, Note_on_c, 0, 57, 115
1, 264182, Note_off_c, 0, 57, 115
1, 264293, Note_on_c, 0, 53, 9
1, 264475, Note_off_c, 0, 53, 9
1, 264495, Note_on_c, 0, 50, 9
1, 264778, Note_off_c, 0, 50, 9
1, 264869, Note_on_c, 0, 53, 93
1, 265754, Note_off_c, 0, 53, 93
1, 265845, Note_on_c, 0, 48, 9
1, 266193, Note_off_c, 0, 48, 9
1, 266235, Note_on_c, 0, 49, 49
1, 266640, Note_off_c, 0, 49, 49
1, 266691, Note_on_c, 0, 52, 103
1, 266945, Note_off_c, 0, 52, 103
1, 267114, Note_on_c, 0, 50, 101
1, 267502, Note_off_c, 0, 50, 101
1, 267588, Note_on_c, 0, 53, 104
1, 267792, Note_off_c, 0, 53, 104
1, 267853, Note_on_c, 0, 50, 9
1, 268360, Note_off_c, 0, 50, 9
1, 268403, Note_on_c, 0, 53, 60
1, 268694, Note_off_c, 0, 53, 60
1, 268722, Note_on_c, 0, 55, 118
1, 269171, Note_off_c, 0, 55, 118
1, 269228, Note_on_c, 0, 54, 23
1, 269702, Note_off_c, 0, 54, 23
1, 269763, Note_on_c, 0, 57, 83
1, 270119, Note_off_c, 0, 57, 83
1, 270198, Note_on_c, 0, 58, 102
1, 270424, Note_off_c, 0, 58, 102
1, 270506, Note_on_c, 0, 62, 78
1, 270757, Note_off_c, 0, 62, 78
1, 270791, Note_on_c, 0, 57, 9
1, 271008, Note_off_c, 0, 57, 9
1, 271040, Note_on_c, 0, 56, 23
1, 271304, Note_off_c, 0, 56, 23
1, 271331, Note_on_c, 0, 62, 97
1, 271543, Note_off_c, 0, 62, 97
1, 271584, Note_on_c, 0, 59, 102
1, 271860, Note_off_c, 0, 59, 102
1, 271964, Note_on_c, 0, 60, 9
1, 272228, Note_off_c, 0, 60, 9
1, 272272, Note_on_c, 0, 61, 9
1, 272536, Note_off_c, 0, 61, 9
1, 272573, Note_on_c, 0, 62, 62
1, 272738, Note_off_c, 0, 62, 62
1, 272755, Note_on_c, 0, 63, 97
1, 272938, Note_off_c, 0, 63, 97
1, 272973, Note_on_c, 0, 62, 105
1, 273343, Note_off_c, 0, 62, 105
1, 273440, Note_on_c, 0, 64, 9
1, 273677, Note_off_c, 0, 64, 9
1, 273734, Note_on_c, 0, 65, 50
1, 274025, Note_off_c, 0, 65, 50
1, 274114, Note_on_c, 0, 67, 104
1, 274354, Note_off_c, 0, 67, 104
1, 274422, Note_on_c, 0, 65, 99
1, 274774, Note_off_c, 0, 65, 99
1, 274963, Note_on_c, 0, 62, 110
1, 275319, Note_off_c, 0, 62, 110
1, 275353, Note_on_c, 0, 60, 100
1, 275938, Note_off_c, 0, 60, 100
1, 275966, Note_on_c, 0, 57, 95
1, 277199, Note_off_c, 0, 57, 95
1, 279360, Note_on_c, 0, 61, 9
1, 279600, Note_off_c, 0, 61, 9
1, 279643, Note_on_c, 0, 62, 9
1, 279934, Note_off_c, 0, 62, 9
1, 279995, Note_on_c, 0, 65, 9
1, 280433, Note_off_c, 0, 65, 9
1, 280555, Note_on_c, 0, 62, 9
1, 280907, Note_off_c, 0, 62, 9
1, 280986, Note_on_c, 0, 61, 9
1, 281334, Note_off_c, 0, 61, 9
1, 281459, Note_on_c, 0, 57, 85
1, 282228, Note_off_c, 0, 57, 85
1, 288740, Note_on_c, 0, 67, 9
1, 289387, Note_off_c, 0, 67, 9
1, 289466, Note_on_c, 0, 68, 9
1, 289983, Note_off_c, 0, 68, 9
1, 290119, Note_on_c, 0, 66, 9
1, 290514, Note_off_c, 0, 66, 9
1, 290679, Note_on_c, 0, 67, 9
1, 291811, Note_off_c, 0, 67, 9
1, 291967, Note_on_c, 0, 66, 9
1, 292235, Note_off_c, 0, 66, 9
1, 292589, Note_on_c, 0, 67, 61
1, 293276, Note_off_c, 0, 67, 61
1, 293326, Note_on_c, 0, 68, 109
1, 293735, Note_off_c, 0, 68, 109
1, 293820, Note_on_c, 0, 66, 89
1, 294371, Note_off_c, 0, 66, 89
1, 294674, Note_on_c, 0, 67, 95
1, 295058, Note_off_c, 0, 67, 95
1, 295118, Note_on_c, 0, 68, 103
1, 295603, Note_off_c, 0, 68, 103
1, 301460, Note_on_c, 0, 67, 9
1, 302078, Note_off_c, 0, 67, 9
1, 303235, Note_on_c, 0, 67, 112
1, 303853, Note_off_c, 0, 67, 112
1, 303953, Note_on_c, 0, 68, 109
1, 304535, Note_off_c, 0, 68, 109
1, 304635, Note_on_c, 0, 66, 107
1, 305116, Note_off_c, 0, 66, 107
1, 305317, Note_on_c, 0, 67, 95
1, 305849, Note_off_c, 0, 67, 95
1, 311516, Note_on_c, 0, 66, 107
1, 312092, Note_off_c, 0, 66, 107
1, 312205, Note_on_c, 0, 67, 107
1, 312665, Note_off_c, 0, 67, 107
1, 312830, Note_on_c, 0, 66, 106
1, 313103, Note_off_c, 0, 66, 106
1, 313227, Note_on_c, 0, 67, 106
1, 313854, Note_off_c, 0, 67, 106
1, 313945, Note_on_c, 0, 68, 104
1, 314410, Note_off_c, 0, 68, 104
1, 314597, Note_on_c, 0, 66, 105
1, 315129, Note_off_c, 0, 66, 105
1, 315359, Note_on_c, 0, 67, 97
1, 315814, Note_off_c, 0, 67, 97
1, 315891, Note_on_c, 0, 68, 102
1, 316295, Note_off_c, 0, 68, 102
1, 321467, Note_on_c, 0, 67, 9
1, 322205, Note_off_c, 0, 67, 9
1, 322316, Note_on_c, 0, 68, 9
1, 322730, Note_off_c, 0, 68, 9
1, 322891, Note_on_c, 0, 66, 9
1, 323376, Note_off_c, 0, 66, 9
1, 323527, Note_on_c, 0, 67, 9
1, 323980, Note_off_c, 0, 67, 9
1, 324073, Note_on_c, 0, 68, 9
1, 324461, Note_off_c, 0, 68, 9
1, 324588, Note_on_c, 0, 66, 9
1, 325063, Note_off_c, 0, 66, 9
1, 325437, Note_on_c, 0, 67, 9
1, 325871, Note_off_c, 0, 67, 9
1, 325982, Note_on_c, 0, 68, 9
1, 326447, Note_off_c, 0, 68, 9
1, 326649, Note_on_c, 0, 66, 9
1, 327276, Note_off_c, 0, 66, 9
1, 327427, Note_on_c, 0, 68, 9
1, 327851, Note_off_c, 0, 68, 9
1, 327972, Note_on_c, 0, 66, 9
1, 328417, Note_off_c, 0, 66, 9
1, 328538, Note_on_c, 0, 67, 9
1, 329043, Note_off_c, 0, 67, 9
1, 329174, Note_on_c, 0, 68, 9
1, 329598, Note_off_c, 0, 68, 9
1, 329658, Note_on_c, 0, 66, 9
1, 330057, Note_off_c, 0, 66, 9
1, 330117, Note_on_c, 0, 67, 9
1, 330754, Note_off_c, 0, 67, 9
1, 330860, Note_on_c, 0, 68, 9
1, 331411, Note_off_c, 0, 68, 9
1, 331815, Note_on_c, 0, 67, 9
1, 332340, Note_off_c, 0, 67, 9
1, 332439, Note_on_c, 0, 68, 9
1, 332906, Note_off_c, 0, 68, 9
1, 333021, Note_on_c, 0, 66, 9
1, 333574, Note_off_c, 0, 66, 9
1, 333638, Note_on_c, 0, 67, 9
1, 333976, Note_off_c, 0, 67, 9
1, 334076, Note_on_c, 0, 68, 9
1, 334565, Note_off_c, 0, 68, 9
1, 334737, Note_on_c, 0, 66, 9
1, 335197, Note_off_c, 0, 66, 9
1, 335335, Note_on_c, 0, 67, 9
1, 335795, Note_off_c, 0, 67, 9
1, 335890, Note_on_c, 0, 68, 9
1, 336228, Note_off_c, 0, 68, 9
1, 341869, Note_on_c, 0, 67, 105
1, 342430, Note_off_c, 0, 67, 105
1, 342509, Note_on_c, 0, 68, 111
1, 342947, Note_off_c, 0, 68, 111
1, 343134, Note_on_c, 0, 66, 107
1, 343615, Note_off_c, 0, 66, 107
1, 343751, Note_on_c, 0, 67, 110
1, 344340, Note_off_c, 0, 67, 110
1, 344469, Note_on_c, 0, 68, 111
1, 344771, Note_off_c, 0, 68, 111
1, 344922, Note_on_c, 0, 66, 105
1, 345317, Note_off_c, 0, 66, 105
1, 345597, Note_on_c, 0, 67, 113
1, 346165, Note_off_c, 0, 67, 113
1, 346229, Note_on_c, 0, 68, 110
1, 346617, Note_off_c, 0, 68, 110
1, 351924, Note_on_c, 0, 67, 9
1, 352439, Note_off_c, 0, 67, 9
1, 352494, Note_on_c, 0, 68, 9
1, 352969, Note_off_c, 0, 68, 9
1, 353196, Note_on_c, 0, 66, 9
1, 353600, Note_off_c, 0, 66, 9
1, 353954, Note_on_c, 0, 67, 9
1, 354383, Note_off_c, 0, 67, 9
1, 354494, Note_on_c, 0, 68, 9
1, 354893, Note_off_c, 0, 68, 9
1, 355039, Note_on_c, 0, 66, 9
1, 355423, Note_off_c, 0, 66, 9
1, 355483, Note_on_c, 0, 67, 9
1, 356039, Note_off_c, 0, 67, 9
1, 356180, Note_on_c, 0, 68, 9
1, 356690, Note_off_c, 0, 68, 9
1, 361914, Note_on_c, 0, 67, 104
1, 362369, Note_off_c, 0, 67, 104
1, 362460, Note_on_c, 0, 68, 86
1, 363107, Note_off_c, 0, 68, 86
1, 363230, Note_on_c, 0, 66, 105
1, 363819, Note_off_c, 0, 66, 105
1, 364046, Note_on_c, 0, 67, 105
1, 364536, Note_off_c, 0, 67, 105
1, 364596, Note_on_c, 0, 68, 72
1, 365030, Note_off_c, 0, 68, 72
1, 365318, Note_on_c, 0, 66, 72
1, 365788, Note_off_c, 0, 66, 72
1, 365929, Note_on_c, 0, 67, 108
1, 366505, Note_off_c, 0, 67, 108
1, 366555, Note_on_c, 0, 68, 92
1, 366893, Note_off_c, 0, 68, 92
1, 366948, Note_on_c, 0, 66, 96
1, 367605, Note_off_c, 0, 66, 96
1, 367690, Note_on_c, 0, 67, 93
1, 368276, Note_off_c, 0, 67, 93
1, 368392, Note_on_c, 0, 68, 114
1, 368776, Note_off_c, 0, 68, 114
1, 368983, Note_on_c, 0, 66, 79
1, 369438, Note_off_c, 0, 66, 79
1, 369513, Note_on_c, 0, 67, 114
1, 370160, Note_off_c, 0, 67, 114
1, 370266, Note_on_c, 0, 68, 83
1, 370670, Note_off_c, 0, 68, 83
1, 370735, Note_on_c, 0, 66, 106
1, 371372, Note_off_c, 0, 66, 106
1, 373379, Note_on_c, 0, 73, 105
1, 373879, Note_off_c, 0, 73, 105
1, 374667, Note_on_c, 0, 71, 113
1, 375066, Note_off_c, 0, 71, 113
1, 375091, Note_on_c, 0, 72, 107
1, 375824, Note_off_c, 0, 72, 107
1, 375990, Note_on_c, 0, 69, 88
1, 376470, Note_off_c, 0, 69, 88
1, 388591, Note_on_c, 0, 76, 102
1, 401041, Note_off_c, 0, 76, 102
1, 401339, Note_on_c, 0, 74, 9
1, 401728, Note_off_c, 0, 74, 9
1, 402098, Note_on_c, 0, 77, 124
1, 402428, Note_off_c, 0, 77, 124
1, 402845, Note_on_c, 0, 79, 84
1, 403139, Note_off_c, 0, 79, 84
1, 403239, Note_on_c, 0, 76, 127
1, 403555, Note_off_c, 0, 76, 127
1, 403943, Note_on_c, 0, 74, 122
1, 404237, Note_off_c, 0, 74, 122
1, 404618, Note_on_c, 0, 71, 120
1, 404941, Note_off_c, 0, 71, 120
1, 405178, Note_on_c, 0, 69, 118
1, 405530, Note_off_c, 0, 69, 118
1, 405839, Note_on_c, 0, 71, 9
1, 406141, Note_off_c, 0, 71, 9
1, 406479, Note_on_c, 0, 67, 9
1, 406772, Note_off_c, 0, 67, 9
1, 407004, Note_on_c, 0, 69, 9
1, 407302, Note_off_c, 0, 69, 9
1, 407696, Note_on_c, 0, 64, 9
1, 408034, Note_off_c, 0, 64, 9
1, 408200, Note_on_c, 0, 67, 9
1, 408523, Note_off_c, 0, 67, 9
1, 408887, Note_on_c, 0, 62, 9
1, 409271, Note_off_c, 0, 62, 9
1, 409427, Note_on_c, 0, 64, 9
1, 409781, Note_off_c, 0, 64, 9
1, 410109, Note_on_c, 0, 59, 9
1, 410538, Note_off_c, 0, 59, 9
1, 410861, Note_on_c, 0, 61, 9
1, 411149, Note_off_c, 0, 61, 9
1, 411523, Note_on_c, 0, 57, 9
1, 411922, Note_off_c, 0, 57, 9
1, 412169, Note_on_c, 0, 59, 9
1, 412421, Note_off_c, 0, 59, 9
1, 412724, Note_on_c, 0, 55, 9
1, 413098, Note_off_c, 0, 55, 9
1, 413275, Note_on_c, 0, 57, 9
1, 413629, Note_off_c, 0, 57, 9
1, 413897, Note_on_c, 0, 52, 9
1, 414453, Note_off_c, 0, 52, 9
1, 414695, Note_on_c, 0, 55, 96
1, 415013, Note_off_c, 0, 55, 96
1, 415323, Note_on_c, 0, 50, 9
1, 416051, Note_off_c, 0, 50, 9
1, 426089, Note_on_c, 0, 79, 120
1, 426606, Note_off_c, 0, 79, 120
1, 427274, Note_on_c, 0, 81, 9
1, 427802, Note_off_c, 0, 81, 9
1, 428400, Note_on_c, 0, 76, 115
1, 428669, Note_off_c, 0, 76, 115
1, 428698, Note_on_c, 0, 79, 105
1, 428945, Note_off_c, 0, 79, 105
1, 428974, Note_on_c, 0, 78, 106
1, 429156, Note_off_c, 0, 78, 106
1, 429206, Note_on_c, 0, 74, 105
1, 429580, Note_off_c, 0, 74, 105
1, 429923, Note_on_c, 0, 76, 109
1, 430206, Note_off_c, 0, 76, 109
1, 430474, Note_on_c, 0, 71, 111
1, 430822, Note_off_c, 0, 71, 111
1, 431039, Note_on_c, 0, 74, 109
1, 431433, Note_off_c, 0, 74, 109
1, 431827, Note_on_c, 0, 69, 105
1, 432145, Note_off_c, 0, 69, 105
1, 432311, Note_on_c, 0, 71, 110
1, 432563, Note_off_c, 0, 71, 110
1, 432815, Note_on_c, 0, 67, 108
1, 433077, Note_off_c, 0, 67, 108
1, 433127, Note_on_c, 0, 68, 110
1, 433425, Note_off_c, 0, 68, 110
1, 433516, Note_on_c, 0, 64, 110
1, 433809, Note_off_c, 0, 64, 110
1, 434117, Note_on_c, 0, 67, 101
1, 434455, Note_off_c, 0, 67, 101
1, 434758, Note_on_c, 0, 62, 98
1, 435106, Note_off_c, 0, 62, 98
1, 435141, Note_on_c, 0, 64, 9
1, 435474, Note_off_c, 0, 64, 9
1, 435575, Note_on_c, 0, 59, 9
1, 435908, Note_off_c, 0, 59, 9
1, 436196, Note_on_c, 0, 62, 9
1, 436524, Note_off_c, 0, 62, 9
1, 436872, Note_on_c, 0, 57, 9
1, 437165, Note_off_c, 0, 57, 9
1, 437336, Note_on_c, 0, 59, 33
1, 437614, Note_off_c, 0, 59, 33
1, 438083, Note_on_c, 0, 55, 111
1, 438298, Note_off_c, 0, 55, 111
1, 438323, Note_on_c, 0, 57, 110
1, 438560, Note_off_c, 0, 57, 110
1, 438696, Note_on_c, 0, 52, 117
1, 439037, Note_off_c, 0, 52, 117
1, 439206, Note_on_c, 0, 55, 116
1, 439515, Note_off_c, 0, 55, 116
1, 439878, Note_on_c, 0, 50, 115
1, 440187, Note_off_c, 0, 50, 115
1, 440460, Note_on_c, 0, 52, 113
1, 440873, Note_off_c, 0, 52, 113
1, 441203, Note_on_c, 0, 47, 116
1, 441523, Note_off_c, 0, 47, 116
1, 441770, Note_on_c, 0, 50, 113
1, 442164, Note_off_c, 0, 50, 113
1, 442487, Note_on_c, 0, 45, 115
1, 443331, Note_off_c, 0, 45, 115
1, 443507, Note_on_c, 0, 47, 115
1, 444837, Note_off_c, 0, 47, 115
1, 444954, Note_on_c, 0, 50, 117
1, 446018, Note_off_c, 0, 50, 117
1, 446363, Note_on_c, 0, 52, 117
1, 447794, Note_off_c, 0, 52, 117
1, 458975, Note_on_c, 0, 68, 9
1, 459146, Note_off_c, 0, 68, 9
1, 459191, Note_on_c, 0, 71, 9
1, 459585, Note_off_c, 0, 71, 9
1, 459585, Note_on_c, 0, 73, 9
1, 459979, Note_off_c, 0, 73, 9
1, 460277, Note_on_c, 0, 68, 9
1, 460651, Note_off_c, 0, 68, 9
1, 460858, Note_on_c, 0, 71, 9
1, 461065, Note_off_c, 0, 71, 9
1, 461105, Note_on_c, 0, 66, 9
1, 461398, Note_off_c, 0, 66, 9
1, 461473, Note_on_c, 0, 64, 9
1, 461796, Note_off_c, 0, 64, 9
1, 462225, Note_on_c, 0, 68, 9
1, 462442, Note_off_c, 0, 68, 9
1, 462674, Note_on_c, 0, 66, 9
1, 463078, Note_off_c, 0, 66, 9
1, 463450, Note_on_c, 0, 61, 9
1, 463679, Note_off_c, 0, 61, 9
1, 463729, Note_on_c, 0, 66, 9
1, 463978, Note_off_c, 0, 66, 9
1, 464059, Note_on_c, 0, 63, 9
1, 464368, Note_off_c, 0, 63, 9
1, 464756, Note_on_c, 0, 59, 9
1, 465137, Note_off_c, 0, 59, 9
1, 465417, Note_on_c, 0, 61, 9
1, 465690, Note_off_c, 0, 61, 9
1, 466024, Note_on_c, 0, 56, 9
1, 466293, Note_off_c, 0, 56, 9
1, 466623, Note_on_c, 0, 59, 9
1, 466950, Note_off_c, 0, 59, 9
1, 467273, Note_on_c, 0, 54, 9
1, 467539, Note_off_c, 0, 54, 9
1, 467723, Note_on_c, 0, 52, 70
1, 467991, Note_off_c, 0, 52, 70
1, 468466, Note_on_c, 0, 54, 117
1, 468900, Note_off_c, 0, 54, 117
1, 468950, Note_on_c, 0, 49, 114
1, 469445, Note_off_c, 0, 49, 114
1, 469561, Note_on_c, 0, 59, 119
1, 469899, Note_off_c, 0, 59, 119
1, 470126, Note_on_c, 0, 52, 109
1, 470469, Note_off_c, 0, 52, 109
1, 470807, Note_on_c, 0, 54, 123
1, 471049, Note_off_c, 0, 54, 123
1, 471203, Note_on_c, 0, 52, 99
1, 471447, Note_off_c, 0, 52, 99
1, 471554, Note_on_c, 0, 49, 111
1, 471971, Note_off_c, 0, 49, 111
1, 472222, Note_on_c, 0, 59, 113
1, 472502, Note_off_c, 0, 59, 113
1, 472703, Note_on_c, 0, 54, 107
1, 473127, Note_off_c, 0, 54, 107
1, 473594, Note_on_c, 0, 52, 116
1, 473932, Note_off_c, 0, 52, 116
1, 474011, Note_on_c, 0, 54, 112
1, 474406, Note_off_c, 0, 54, 112
1, 474513, Note_on_c, 0, 49, 108
1, 475246, Note_off_c, 0, 49, 108
1, 475418, Note_on_c, 0, 59, 99
1, 475784, Note_off_c, 0, 59, 99
1, 476208, Note_on_c, 0, 52, 101
1, 476488, Note_off_c, 0, 52, 101
1, 476682, Note_on_c, 0, 56, 113
1, 477066, Note_off_c, 0, 56, 113
1, 477306, Note_on_c, 0, 54, 116
1, 477510, Note_off_c, 0, 54, 116
1, 477567, Note_on_c, 0, 51, 105
1, 477811, Note_off_c, 0, 51, 105
1, 477892, Note_on_c, 0, 59, 113
1, 478204, Note_off_c, 0, 59, 113
1, 478583, Note_on_c, 0, 54, 125
1, 478921, Note_off_c, 0, 54, 125
1, 479062, Note_on_c, 0, 52, 116
1, 479330, Note_off_c, 0, 52, 116
1, 479775, Note_on_c, 0, 56, 109
1, 480093, Note_off_c, 0, 56, 109
1, 480204, Note_on_c, 0, 54, 109
1, 480411, Note_off_c, 0, 54, 109
1, 480491, Note_on_c, 0, 52, 115
1, 480804, Note_off_c, 0, 52, 115
1, 481015, Note_on_c, 0, 59, 107
1, 481504, Note_off_c, 0, 59, 107
1, 481885, Note_on_c, 0, 54, 117
1, 482151, Note_off_c, 0, 54, 117
1, 482409, Note_on_c, 0, 52, 110
1, 482768, Note_off_c, 0, 52, 110
1, 482990, Note_on_c, 0, 56, 105
1, 483328, Note_off_c, 0, 56, 105
1, 483651, Note_on_c, 0, 52, 109
1, 484032, Note_off_c, 0, 52, 109
1, 484183, Note_on_c, 0, 59, 112
1, 484585, Note_off_c, 0, 59, 112
1, 484814, Note_on_c, 0, 54, 116
1, 485112, Note_off_c, 0, 54, 116
1, 485349, Note_on_c, 0, 52, 110
1, 485743, Note_off_c, 0, 52, 110
1, 485935, Note_on_c, 0, 56, 126
1, 486251, Note_off_c, 0, 56, 126
1, 486660, Note_on_c, 0, 54, 119
1, 486990, Note_off_c, 0, 54, 119
1, 487356, Note_on_c, 0, 53, 108
1, 487720, Note_off_c, 0, 53, 108
1, 488035, Note_on_c, 0, 59, 115
1, 488449, Note_off_c, 0, 59, 115
1, 489217, Note_on_c, 0, 61, 113
1, 489722, Note_off_c, 0, 61, 113
1, 490106, Note_on_c, 0, 59, 116
1, 490470, Note_off_c, 0, 59, 116
1, 491076, Note_on_c, 0, 61, 108
1, 491500, Note_off_c, 0, 61, 108
1, 506691, Note_on_c, 0, 62, 86
1, 507201, Note_off_c, 0, 62, 86
1, 507307, Note_on_c, 0, 65, 110
1, 507671, Note_off_c, 0, 65, 110
1, 507721, Note_on_c, 0, 67, 108
1, 508029, Note_off_c, 0, 67, 108
1, 508089, Note_on_c, 0, 69, 104
1, 508523, Note_off_c, 0, 69, 104
1, 508755, Note_on_c, 0, 67, 107
1, 508972, Note_off_c, 0, 67, 107
1, 509032, Note_on_c, 0, 69, 105
1, 509365, Note_off_c, 0, 69, 105
1, 509440, Note_on_c, 0, 65, 110
1, 509839, Note_off_c, 0, 65, 110
1, 509884, Note_on_c, 0, 72, 109
1, 511593, Note_off_c, 0, 72, 109
1, 512103, Note_on_c, 0, 62, 91
1, 512416, Note_off_c, 0, 62, 91
1, 512557, Note_on_c, 0, 65, 9
1, 512946, Note_off_c, 0, 65, 9
1, 512971, Note_on_c, 0, 67, 9
1, 513228, Note_off_c, 0, 67, 9
1, 513263, Note_on_c, 0, 69, 9
1, 513652, Note_off_c, 0, 69, 9
1, 513899, Note_on_c, 0, 67, 9
1, 514150, Note_off_c, 0, 67, 9
1, 514196, Note_on_c, 0, 69, 9
1, 514523, Note_off_c, 0, 69, 9
1, 514602, Note_on_c, 0, 65, 9
1, 514835, Note_off_c, 0, 65, 9
1, 515352, Note_on_c, 0, 74, 9
1, 516545, Note_off_c, 0, 74, 9
1, 516959, Note_on_c, 0, 62, 9
1, 517502, Note_off_c, 0, 62, 9
1, 517539, Note_on_c, 0, 64, 9
1, 517820, Note_off_c, 0, 64, 9
1, 517824, Note_on_c, 0, 67, 9
1, 518061, Note_off_c, 0, 67, 9
1, 518088, Note_on_c, 0, 69, 9
1, 518429, Note_off_c, 0, 69, 9
1, 519378, Note_on_c, 0, 62, 9
1, 519827, Note_off_c, 0, 62, 9
1, 519873, Note_on_c, 0, 65, 9
1, 520128, Note_off_c, 0, 65, 9
1, 520185, Note_on_c, 0, 67, 9
1, 520521, Note_off_c, 0, 67, 9
1, 520565, Note_on_c, 0, 69, 9
1, 520839, Note_off_c, 0, 69, 9
1, 521808, Note_on_c, 0, 62, 9
1, 522265, Note_off_c, 0, 62, 9
1, 522289, Note_on_c, 0, 65, 9
1, 522696, Note_off_c, 0, 65, 9
1, 522738, Note_on_c, 0, 67, 9
1, 522990, Note_off_c, 0, 67, 9
1, 523012, Note_on_c, 0, 69, 9
1, 523400, Note_off_c, 0, 69, 9
1, 524403, Note_on_c, 0, 62, 9
1, 524762, Note_off_c, 0, 62, 9
1, 524873, Note_on_c, 0, 65, 9
1, 525354, Note_off_c, 0, 65, 9
1, 525389, Note_on_c, 0, 67, 83
1, 525709, Note_off_c, 0, 67, 83
1, 525762, Note_on_c, 0, 69, 112
1, 526053, Note_off_c, 0, 69, 112
1, 526201, Note_on_c, 0, 67, 111
1, 526589, Note_off_c, 0, 67, 111
1, 526631, Note_on_c, 0, 69, 116
1, 527009, Note_off_c, 0, 69, 116
1, 527098, Note_on_c, 0, 65, 116
1, 527436, Note_off_c, 0, 65, 116
1, 527972, Note_on_c, 0, 73, 105
1, 528365, Note_off_c, 0, 73, 105
1, 528412, Note_on_c, 0, 74, 114
1, 530748, Note_off_c, 0, 74, 114
1, 534004, Note_on_c, 0, 79, 98
1, 534297, Note_off_c, 0, 79, 98
1, 534322, Note_on_c, 0, 78, 111
1, 534716, Note_off_c, 0, 78, 111
1, 534826, Note_on_c, 0, 76, 118
1, 535210, Note_off_c, 0, 76, 118
1, 535316, Note_on_c, 0, 75, 106
1, 535750, Note_off_c, 0, 75, 106
1, 535927, Note_on_c, 0, 70, 110
1, 536437, Note_off_c, 0, 70, 110
1, 536508, Note_on_c, 0, 67, 117
1, 536914, Note_off_c, 0, 67, 117
1, 537093, Note_on_c, 0, 63, 116
1, 537510, Note_off_c, 0, 63, 116
1, 537718, Note_on_c, 0, 72, 113
1, 538319, Note_off_c, 0, 72, 113
1, 538374, Note_on_c, 0, 71, 109
1, 538874, Note_off_c, 0, 71, 109
1, 538996, Note_on_c, 0, 70, 116
1, 539587, Note_off_c, 0, 70, 116
1, 539710, Note_on_c, 0, 66, 114
1, 540274, Note_off_c, 0, 66, 114
1, 540306, Note_on_c, 0, 68, 110
1, 540863, Note_off_c, 0, 68, 110
1, 541531, Note_on_c, 0, 66, 113
1, 542163, Note_off_c, 0, 66, 113
1, 542299, Note_on_c, 0, 69, 120
1, 542780, Note_off_c, 0, 69, 120
1, 542938, Note_on_c, 0, 65, 121
1, 543455, Note_off_c, 0, 65, 121
1, 543490, Note_on_c, 0, 64, 112
1, 544015, Note_off_c, 0, 64, 112
1, 544158, Note_on_c, 0, 63, 9
1, 544647, Note_off_c, 0, 63, 9
1, 548653, Note_on_c, 0, 68, 9
1, 548940, Note_off_c, 0, 68, 9
1, 549306, Note_on_c, 0, 65, 9
1, 549946, Note_off_c, 0, 65, 9
1, 550023, Note_on_c, 0, 67, 9
1, 550432, Note_off_c, 0, 67, 9
1, 550553, Note_on_c, 0, 69, 9
1, 550987, Note_off_c, 0, 69, 9
1, 551353, Note_on_c, 0, 65, 9
1, 551662, Note_off_c, 0, 65, 9
1, 551744, Note_on_c, 0, 67, 9
1, 552207, Note_off_c, 0, 67, 9
1, 552547, Note_on_c, 0, 72, 9
1, 552880, Note_off_c, 0, 72, 9
1, 552915, Note_on_c, 0, 69, 45
1, 553269, Note_off_c, 0, 69, 45
1, 553324, Note_on_c, 0, 67, 113
1, 553576, Note_off_c, 0, 67, 113
1, 553672, Note_on_c, 0, 65, 106
1, 554036, Note_off_c, 0, 65, 106
1, 554278, Note_on_c, 0, 67, 115
1, 554733, Note_off_c, 0, 67, 115
1, 554985, Note_on_c, 0, 69, 108
1, 555278, Note_off_c, 0, 69, 108
1, 555675, Note_on_c, 0, 62, 108
1, 556056, Note_off_c, 0, 62, 108
1, 556350, Note_on_c, 0, 65, 107
1, 556673, Note_off_c, 0, 65, 107
1, 556924, Note_on_c, 0, 69, 116
1, 557348, Note_off_c, 0, 69, 116
1, 557513, Note_on_c, 0, 67, 116
1, 557922, Note_off_c, 0, 67, 116
1, 558231, Note_on_c, 0, 65, 120
1, 558482, Note_off_c, 0, 65, 120
1, 558848, Note_on_c, 0, 72, 114
1, 559128, Note_off_c, 0, 72, 114
1, 559526, Note_on_c, 0, 66, 110
1, 559738, Note_off_c, 0, 66, 110
1, 559775, Note_on_c, 0, 67, 92
1, 559995, Note_off_c, 0, 67, 92
1, 560069, Note_on_c, 0, 69, 9
1, 560454, Note_off_c, 0, 69, 9
1, 560771, Note_on_c, 0, 65, 9
1, 561170, Note_off_c, 0, 65, 9
1, 561498, Note_on_c, 0, 60, 9
1, 561841, Note_off_c, 0, 60, 9
1, 562093, Note_on_c, 0, 62, 9
1, 562507, Note_off_c, 0, 62, 9
1, 562618, Note_on_c, 0, 67, 81
1, 563088, Note_off_c, 0, 67, 81
1, 563361, Note_on_c, 0, 65, 74
1, 563608, Note_off_c, 0, 65, 74
1, 563658, Note_on_c, 0, 62, 109
1, 563920, Note_off_c, 0, 62, 109
1, 564016, Note_on_c, 0, 72, 105
1, 564385, Note_off_c, 0, 72, 105
1, 564637, Note_on_c, 0, 67, 98
1, 564991, Note_off_c, 0, 67, 98
1, 565127, Note_on_c, 0, 60, 115
1, 565526, Note_off_c, 0, 60, 115
1, 565713, Note_on_c, 0, 62, 111
1, 566082, Note_off_c, 0, 62, 111
1, 566557, Note_on_c, 0, 67, 106
1, 566921, Note_off_c, 0, 67, 106
1, 567178, Note_on_c, 0, 65, 103
1, 567592, Note_off_c, 0, 65, 103
1, 567809, Note_on_c, 0, 62, 122
1, 568087, Note_off_c, 0, 62, 122
1, 568435, Note_on_c, 0, 69, 95
1, 568955, Note_off_c, 0, 69, 95
1, 588075, Note_on_c, 0, 62, 108
1, 588456, Note_off_c, 0, 62, 108
1, 588513, Note_on_c, 0, 65, 21
1, 588883, Note_off_c, 0, 65, 21
1, 588944, Note_on_c, 0, 67, 115
1, 589217, Note_off_c, 0, 67, 115
1, 589317, Note_on_c, 0, 69, 112
1, 589795, Note_off_c, 0, 69, 112
1, 589974, Note_on_c, 0, 67, 17
1, 590240, Note_off_c, 0, 67, 17
1, 590592, Note_on_c, 0, 65, 117
1, 591001, Note_off_c, 0, 65, 117
1, 591134, Note_on_c, 0, 62, 9
1, 591536, Note_off_c, 0, 62, 9
1, 591827, Note_on_c, 0, 72, 116
1, 592272, Note_off_c, 0, 72, 116
1, 592445, Note_on_c, 0, 60, 9
1, 592772, Note_off_c, 0, 60, 9
1, 592811, Note_on_c, 0, 62, 77
1, 593069, Note_off_c, 0, 62, 77
1, 593126, Note_on_c, 0, 69, 114
1, 593597, Note_off_c, 0, 69, 114
1, 593827, Note_on_c, 0, 67, 9
1, 594218, Note_off_c, 0, 67, 9
1, 594437, Note_on_c, 0, 65, 112
1, 594811, Note_off_c, 0, 65, 112
1, 595099, Note_on_c, 0, 62, 76
1, 595447, Note_off_c, 0, 62, 76
1, 595816, Note_on_c, 0, 73, 115
1, 596197, Note_off_c, 0, 73, 115
1, 596297, Note_on_c, 0, 71, 110
1, 596656, Note_off_c, 0, 71, 110
1, 597001, Note_on_c, 0, 61, 109
1, 597418, Note_off_c, 0, 61, 109
1, 597471, Note_on_c, 0, 62, 111
1, 597805, Note_off_c, 0, 62, 111
1, 597826, Note_on_c, 0, 65, 112
1, 598041, Note_off_c, 0, 65, 112
1, 598292, Note_on_c, 0, 71, 102
1, 598691, Note_off_c, 0, 71, 102
1, 599003, Note_on_c, 0, 65, 89
1, 599305, Note_off_c, 0, 65, 89
1, 599506, Note_on_c, 0, 66, 109
1, 599786, Note_off_c, 0, 66, 109
1, 600109, Note_on_c, 0, 70, 113
1, 600554, Note_off_c, 0, 70, 113
1, 600661, Note_on_c, 0, 68, 107
1, 601121, Note_off_c, 0, 68, 107
1, 601373, Note_on_c, 0, 66, 86
1, 601787, Note_off_c, 0, 66, 86
1, 602034, Note_on_c, 0, 61, 9
1, 602489, Note_off_c, 0, 61, 9
1, 602554, Note_on_c, 0, 62, 9
1, 603079, Note_off_c, 0, 62, 9
1, 603276, Note_on_c, 0, 69, 9
1, 603736, Note_off_c, 0, 69, 9
1, 603839, Note_on_c, 0, 68, 9
1, 604295, Note_off_c, 0, 68, 9
1, 604485, Note_on_c, 0, 67, 9
1, 604920, Note_off_c, 0, 67, 9
1, 605071, Note_on_c, 0, 66, 9
1, 605498, Note_off_c, 0, 66, 9
1, 605728, Note_on_c, 0, 69, 9
1, 606231, Note_off_c, 0, 69, 9
1, 607018, Note_on_c, 0, 69, 9
1, 607535, Note_off_c, 0, 69, 9
1, 607614, Note_on_c, 0, 68, 9
1, 608074, Note_off_c, 0, 68, 9
1, 608217, Note_on_c, 0, 67, 9
1, 608641, Note_off_c, 0, 67, 9
1, 609000, Note_on_c, 0, 72, 9
1, 609942, Note_off_c, 0, 72, 9
1, 630622, Note_on_c, 0, 76, 110
1, 631147, Note_off_c, 0, 76, 110
1, 631212, Note_on_c, 0, 77, 110
1, 631803, Note_off_c, 0, 77, 110
1, 631843, Note_on_c, 0, 78, 116
1, 632207, Note_off_c, 0, 78, 116
1, 632247, Note_on_c, 0, 79, 117
1, 632884, Note_off_c, 0, 79, 117
1, 632899, Note_on_c, 0, 81, 112
1, 633217, Note_off_c, 0, 81, 112
1, 633257, Note_on_c, 0, 78, 118
1, 633651, Note_off_c, 0, 78, 118
1, 633949, Note_on_c, 0, 74, 21
1, 634308, Note_off_c, 0, 74, 21
1, 634388, Note_on_c, 0, 75, 9
1, 634862, Note_off_c, 0, 75, 9
1, 634918, Note_on_c, 0, 76, 9
1, 635464, Note_off_c, 0, 76, 9
1, 635524, Note_on_c, 0, 79, 9
1, 635928, Note_off_c, 0, 79, 9
1, 636216, Note_on_c, 0, 76, 9
1, 636650, Note_off_c, 0, 76, 9
1, 636690, Note_on_c, 0, 77, 9
1, 636942, Note_off_c, 0, 77, 9
1, 637058, Note_on_c, 0, 69, 9
1, 637573, Note_off_c, 0, 69, 9
1, 637653, Note_on_c, 0, 71, 9
1, 638158, Note_off_c, 0, 71, 9
1, 638238, Note_on_c, 0, 72, 9
1, 638647, Note_off_c, 0, 72, 9
1, 638839, Note_on_c, 0, 74, 9
1, 639218, Note_off_c, 0, 74, 9
1, 639632, Note_on_c, 0, 72, 9
1, 639930, Note_off_c, 0, 72, 9
1, 640162, Note_on_c, 0, 68, 9
1, 640677, Note_off_c, 0, 68, 9
1, 640798, Note_on_c, 0, 69, 9
1, 641339, Note_off_c, 0, 69, 9
1, 641546, Note_on_c, 0, 70, 9
1, 641930, Note_off_c, 0, 70, 9
1, 642000, Note_on_c, 0, 73, 9
1, 642389, Note_off_c, 0, 73, 9
1, 642623, Note_on_c, 0, 70, 109
1, 643025, Note_off_c, 0, 70, 109
1, 643258, Note_on_c, 0, 61, 115
1, 643959, Note_off_c, 0, 61, 115
1, 644012, Note_on_c, 0, 63, 116
1, 644562, Note_off_c, 0, 63, 116
1, 644626, Note_on_c, 0, 64, 113
1, 645363, Note_off_c, 0, 64, 113
1, 645420, Note_on_c, 0, 67, 109
1, 645790, Note_off_c, 0, 67, 109
1, 645847, Note_on_c, 0, 64, 114
1, 646303, Note_off_c, 0, 64, 114
1, 646313, Note_on_c, 0, 58, 114
1, 647107, Note_off_c, 0, 58, 114
1, 647189, Note_on_c, 0, 59, 118
1, 647750, Note_off_c, 0, 59, 118
1, 647775, Note_on_c, 0, 60, 112
1, 648303, Note_off_c, 0, 60, 112
1, 648353, Note_on_c, 0, 63, 110
1, 648802, Note_off_c, 0, 63, 110
1, 648913, Note_on_c, 0, 60, 116
1, 649193, Note_off_c, 0, 60, 116
1, 649520, Note_on_c, 0, 56, 108
1, 650066, Note_off_c, 0, 56, 108
1, 650127, Note_on_c, 0, 57, 112
1, 650587, Note_off_c, 0, 57, 112
1, 650831, Note_on_c, 0, 58, 115
1, 651298, Note_off_c, 0, 58, 115
1, 651380, Note_on_c, 0, 59, 114
1, 651628, Note_off_c, 0, 59, 114
1, 651689, Note_on_c, 0, 58, 112
1, 652534, Note_off_c, 0, 58, 112
1, 652663, Note_on_c, 0, 53, 113
1, 653144, Note_off_c, 0, 53, 113
1, 653273, Note_on_c, 0, 54, 108
1, 654840, Note_off_c, 0, 54, 108
1, 671029, Note_on_c, 0, 67, 9
1, 671347, Note_off_c, 0, 67, 9
1, 671397, Note_on_c, 0, 68, 9
1, 671917, Note_off_c, 0, 68, 9
1, 671940, Note_on_c, 0, 71, 9
1, 672209, Note_off_c, 0, 71, 9
1, 672324, Note_on_c, 0, 68, 9
1, 672809, Note_off_c, 0, 68, 9
1, 672978, Note_on_c, 0, 67, 102
1, 673359, Note_off_c, 0, 67, 102
1, 673488, Note_on_c, 0, 65, 105
1, 674002, Note_off_c, 0, 65, 105
1, 674063, Note_on_c, 0, 66, 87
1, 674451, Note_off_c, 0, 66, 87
1, 674490, Note_on_c, 0, 68, 92
1, 674802, Note_off_c, 0, 68, 92
1, 674917, Note_on_c, 0, 66, 72
1, 675226, Note_off_c, 0, 66, 72
1, 675279, Note_on_c, 0, 65, 91
1, 675606, Note_off_c, 0, 65, 91
1, 675692, Note_on_c, 0, 63, 92
1, 676037, Note_off_c, 0, 63, 92
1, 676120, Note_on_c, 0, 64, 114
1, 676438, Note_off_c, 0, 64, 114
1, 676497, Note_on_c, 0, 66, 96
1, 676776, Note_off_c, 0, 66, 96
1, 676842, Note_on_c, 0, 62, 95
1, 677168, Note_off_c, 0, 62, 95
1, 677205, Note_on_c, 0, 63, 81
1, 677511, Note_off_c, 0, 63, 81
1, 677533, Note_on_c, 0, 65, 94
1, 677837, Note_off_c, 0, 65, 94
1, 677883, Note_on_c, 0, 63, 86
1, 678248, Note_off_c, 0, 63, 86
1, 678285, Note_on_c, 0, 62, 114
1, 678631, Note_off_c, 0, 62, 114
1, 678653, Note_on_c, 0, 61, 9
1, 678858, Note_off_c, 0, 61, 9
1, 678897, Note_on_c, 0, 60, 9
1, 679139, Note_off_c, 0, 60, 9
1, 679172, Note_on_c, 0, 59, 9
1, 679488, Note_off_c, 0, 59, 9
1, 679624, Note_on_c, 0, 62, 29
1, 680019, Note_off_c, 0, 62, 29
1, 680130, Note_on_c, 0, 59, 106
1, 680493, Note_off_c, 0, 59, 106
1, 680759, Note_on_c, 0, 59, 9
1, 681284, Note_off_c, 0, 59, 9
1, 681354, Note_on_c, 0, 57, 108
1, 681778, Note_off_c, 0, 57, 108
1, 681894, Note_on_c, 0, 56, 78
1, 682283, Note_off_c, 0, 56, 78
1, 682358, Note_on_c, 0, 59, 56
1, 682666, Note_off_c, 0, 59, 56
1, 682726, Note_on_c, 0, 56, 115
1, 683019, Note_off_c, 0, 56, 115
1, 683084, Note_on_c, 0, 59, 115
1, 683412, Note_off_c, 0, 59, 115
1, 683568, Note_on_c, 0, 55, 51
1, 683881, Note_off_c, 0, 55, 51
1, 683961, Note_on_c, 0, 54, 9
1, 684345, Note_off_c, 0, 54, 9
1, 684430, Note_on_c, 0, 57, 9
1, 684814, Note_off_c, 0, 57, 9
1, 684824, Note_on_c, 0, 54, 9
1, 685127, Note_off_c, 0, 54, 9
1, 685207, Note_on_c, 0, 52, 67
1, 685550, Note_off_c, 0, 52, 67
1, 685600, Note_on_c, 0, 53, 114
1, 685898, Note_off_c, 0, 53, 114
1, 685908, Note_on_c, 0, 52, 113
1, 686181, Note_off_c, 0, 52, 113
1, 686242, Note_on_c, 0, 53, 81
1, 686414, Note_off_c, 0, 53, 81
1, 686442, Note_on_c, 0, 54, 111
1, 686629, Note_off_c, 0, 54, 111
1, 686672, Note_on_c, 0, 53, 95
1, 687013, Note_off_c, 0, 53, 95
1, 687139, Note_on_c, 0, 51, 112
1, 687452, Note_off_c, 0, 51, 112
1, 687487, Note_on_c, 0, 53, 75
1, 687820, Note_off_c, 0, 53, 75
1, 687971, Note_on_c, 0, 51, 100
1, 688259, Note_off_c, 0, 51, 100
1, 688282, Note_on_c, 0, 50, 95
1, 688625, Note_off_c, 0, 50, 95
1, 688670, Note_on_c, 0, 49, 112
1, 688860, Note_off_c, 0, 49, 112
1, 688910, Note_on_c, 0, 48, 88
1, 689197, Note_off_c, 0, 48, 88
1, 689229, Note_on_c, 0, 47, 114
1, 689495, Note_off_c, 0, 47, 114
1, 689538, Note_on_c, 0, 46, 90
1, 689832, Note_off_c, 0, 46, 90
1, 689878, Note_on_c, 0, 47, 109
1, 690147, Note_off_c, 0, 47, 109
1, 690193, Note_on_c, 0, 45, 105
1, 690811, Note_off_c, 0, 45, 105
1, 706346, Note_on_c, 0, 67, 109
1, 706878, Note_off_c, 0, 67, 109
1, 706921, Note_on_c, 0, 68, 104
1, 707503, Note_off_c, 0, 68, 104
1, 707603, Note_on_c, 0, 69, 112
1, 708078, Note_off_c, 0, 69, 112
1, 708133, Note_on_c, 0, 68, 108
1, 708653, Note_off_c, 0, 68, 108
1, 708744, Note_on_c, 0, 67, 107
1, 709300, Note_off_c, 0, 67, 107
1, 709385, Note_on_c, 0, 66, 113
1, 709921, Note_off_c, 0, 66, 113
1, 710017, Note_on_c, 0, 65, 9
1, 710588, Note_off_c, 0, 65, 9
1, 710709, Note_on_c, 0, 62, 68
1, 711270, Note_off_c, 0, 62, 68
1, 711325, Note_on_c, 0, 59, 113
1, 711911, Note_off_c, 0, 59, 113
1, 711941, Note_on_c, 0, 60, 109
1, 712568, Note_off_c, 0, 60, 109
1, 712709, Note_on_c, 0, 60, 102
1, 713148, Note_off_c, 0, 60, 102
1, 713421, Note_on_c, 0, 62, 108
1, 713931, Note_off_c, 0, 62, 108
1, 714547, Note_on_c, 0, 64, 115
1, 714941, Note_off_c, 0, 64, 115
1, 715871, Note_on_c, 0, 66, 111
1, 716437, Note_off_c, 0, 66, 111
1, 717084, Note_on_c, 0, 62, 9
1, 717700, Note_off_c, 0, 62, 9
1, 720386, Note_on_c, 0, 60, 83
1, 720803, Note_off_c, 0, 60, 83
1, 720968, Note_on_c, 0, 60, 97
1, 722039, Note_off_c, 0, 60, 97
1, 722261, Note_on_c, 0, 62, 94
1, 722836, Note_off_c, 0, 62, 94
1, 723512, Note_on_c, 0, 64, 107
1, 724037, Note_off_c, 0, 64, 107
1, 724612, Note_on_c, 0, 66, 115
1, 725144, Note_off_c, 0, 66, 115
1, 727884, Note_on_c, 0, 62, 108
1, 728398, Note_off_c, 0, 62, 108
1, 728505, Note_on_c, 0, 64, 114
1, 728929, Note_off_c, 0, 64, 114
1, 729169, Note_on_c, 0, 66, 110
1, 729442, Note_off_c, 0, 66, 110
1, 729725, Note_on_c, 0, 67, 112
1, 730215, Note_off_c, 0, 67, 112
1, 730437, Note_on_c, 0, 66, 72
1, 730851, Note_off_c, 0, 66, 72
1, 731017, Note_on_c, 0, 64, 113
1, 731603, Note_off_c, 0, 64, 113
1, 735642, Note_on_c, 0, 69, 101
1, 736078, Note_off_c, 0, 69, 101
1, 736126, Note_on_c, 0, 71, 90
1, 743951, Note_off_c, 0, 71, 90
1, 743980, Note_on_c, 0, 69, 97
1, 744516, Note_off_c, 0, 69, 97
1, 744642, Note_on_c, 0, 71, 108
1, 745152, Note_off_c, 0, 71, 108
1, 745227, Note_on_c, 0, 72, 111
1, 745621, Note_off_c, 0, 72, 111
1, 745717, Note_on_c, 0, 71, 110
1, 749083, Note_off_c, 0, 71, 110
1, 749219, Note_on_c, 0, 69, 111
1, 749535, Note_off_c, 0, 69, 111
1, 749614, Note_on_c, 0, 71, 115
1, 749861, Note_off_c, 0, 71, 115
1, 749916, Note_on_c, 0, 72, 121
1, 750067, Note_off_c, 0, 72, 121
1, 750137, Note_on_c, 0, 71, 115
1, 750334, Note_off_c, 0, 71, 115
1, 750406, Note_on_c, 0, 66, 22
1, 750826, Note_off_c, 0, 66, 22
1, 750877, Note_on_c, 0, 71, 90
1, 751124, Note_off_c, 0, 71, 90
1, 751226, Note_on_c, 0, 69, 112
1, 751614, Note_off_c, 0, 69, 112
1, 751714, Note_on_c, 0, 71, 121
1, 752289, Note_off_c, 0, 71, 121
1, 758365, Note_on_c, 0, 59, 118
1, 758739, Note_off_c, 0, 59, 118
1, 758774, Note_on_c, 0, 64, 119
1, 759057, Note_off_c, 0, 64, 119
1, 759117, Note_on_c, 0, 66, 94
1, 759385, Note_off_c, 0, 66, 94
1, 759489, Note_on_c, 0, 69, 90
1, 759798, Note_off_c, 0, 69, 90
1, 759844, Note_on_c, 0, 71, 120
1, 760066, Note_off_c, 0, 71, 120
1, 760141, Note_on_c, 0, 72, 116
1, 760396, Note_off_c, 0, 72, 116
1, 760439, Note_on_c, 0, 71, 112
1, 760669, Note_off_c, 0, 71, 112
1, 760755, Note_on_c, 0, 66, 105
1, 761046, Note_off_c, 0, 66, 105
1, 761157, Note_on_c, 0, 64, 109
1, 761473, Note_off_c, 0, 64, 109
1, 761523, Note_on_c, 0, 66, 108
1, 761688, Note_off_c, 0, 66, 108
1, 761698, Note_on_c, 0, 71, 101
1, 761974, Note_off_c, 0, 71, 101
1, 762078, Note_on_c, 0, 69, 119
1, 762426, Note_off_c, 0, 69, 119
1, 762487, Note_on_c, 0, 71, 102
1, 762817, Note_off_c, 0, 71, 102
1, 762885, Note_on_c, 0, 69, 9
1, 763122, Note_off_c, 0, 69, 9
1, 763197, Note_on_c, 0, 71, 9
1, 763509, Note_off_c, 0, 71, 9
1, 763559, Note_on_c, 0, 69, 96
1, 763889, Note_off_c, 0, 69, 96
1, 763928, Note_on_c, 0, 66, 112
1, 764194, Note_off_c, 0, 66, 112
1, 764301, Note_on_c, 0, 71, 118
1, 764563, Note_off_c, 0, 71, 118
1, 764757, Note_on_c, 0, 71, 121
1, 765120, Note_off_c, 0, 71, 121
1, 765159, Note_on_c, 0, 69, 101
1, 765439, Note_off_c, 0, 69, 101
1, 765590, Note_on_c, 0, 71, 9
1, 765830, Note_off_c, 0, 71, 9
1, 765909, Note_on_c, 0, 72, 9
1, 766193, Note_off_c, 0, 72, 9
1, 766210, Note_on_c, 0, 71, 56
1, 766454, Note_off_c, 0, 71, 56
1, 766533, Note_on_c, 0, 69, 110
1, 766824, Note_off_c, 0, 69, 110
1, 766870, Note_on_c, 0, 71, 107
1, 767215, Note_off_c, 0, 71, 107
1, 767276, Note_on_c, 0, 69, 80
1, 767578, Note_off_c, 0, 69, 80
1, 767671, Note_on_c, 0, 71, 110
1, 767983, Note_off_c, 0, 71, 110
1, 768036, Note_on_c, 0, 69, 9
1, 768388, Note_off_c, 0, 69, 9
1, 768621, Note_on_c, 0, 60, 9
1, 769027, Note_off_c, 0, 60, 9
1, 769102, Note_on_c, 0, 64, 93
1, 769555, Note_off_c, 0, 64, 93
1, 769637, Note_on_c, 0, 69, 117
1, 769892, Note_off_c, 0, 69, 117
1, 769909, Note_on_c, 0, 71, 116
1, 770096, Note_off_c, 0, 71, 116
1, 770131, Note_on_c, 0, 73, 112
1, 770389, Note_off_c, 0, 73, 112
1, 770468, Note_on_c, 0, 71, 9
1, 770690, Note_off_c, 0, 71, 9
1, 770765, Note_on_c, 0, 73, 9
1, 770934, Note_off_c, 0, 73, 9
1, 771020, Note_on_c, 0, 71, 9
1, 771239, Note_off_c, 0, 71, 9
1, 771296, Note_on_c, 0, 73, 9
1, 771500, Note_off_c, 0, 73, 9
1, 771539, Note_on_c, 0, 71, 9
1, 771769, Note_off_c, 0, 71, 9
1, 771822, Note_on_c, 0, 69, 9
1, 772400, Note_off_c, 0, 69, 9
1, 772435, Note_on_c, 0, 71, 9
1, 772679, Note_off_c, 0, 71, 9
1, 772779, Note_on_c, 0, 69, 9
1, 773052, Note_off_c, 0, 69, 9
1, 773087, Note_on_c, 0, 66, 9
1, 773648, Note_off_c, 0, 66, 9
1, 773763, Note_on_c, 0, 64, 9
1, 773996, Note_off_c, 0, 64, 9
1, 774003, Note_on_c, 0, 69, 9
1, 774333, Note_off_c, 0, 69, 9
1, 774404, Note_on_c, 0, 66, 9
1, 774558, Note_off_c, 0, 66, 9
1, 774572, Note_on_c, 0, 64, 9
1, 774834, Note_off_c, 0, 64, 9
1, 774880, Note_on_c, 0, 57, 9
1, 775077, Note_off_c, 0, 57, 9
1, 775094, Note_on_c, 0, 54, 9
1, 775403, Note_off_c, 0, 54, 9
1, 775543, Note_on_c, 0, 59, 9
1, 776006, Note_off_c, 0, 59, 9
1, 776111, Note_on_c, 0, 66, 9
1, 776444, Note_off_c, 0, 66, 9
1, 776508, Note_on_c, 0, 64, 9
1, 776718, Note_off_c, 0, 64, 9
1, 776752, Note_on_c, 0, 66, 9
1, 777016, Note_off_c, 0, 66, 9
1, 777055, Note_on_c, 0, 69, 9
1, 777292, Note_off_c, 0, 69, 9
1, 777391, Note_on_c, 0, 72, 9
1, 777684, Note_off_c, 0, 72, 9
1, 777719, Note_on_c, 0, 71, 114
1, 777971, Note_off_c, 0, 71, 114
1, 778045, Note_on_c, 0, 73, 116
1, 778260, Note_off_c, 0, 73, 116
1, 778306, Note_on_c, 0, 71, 109
1, 778525, Note_off_c, 0, 71, 109
1, 778586, Note_on_c, 0, 73, 111
1, 778755, Note_off_c, 0, 73, 111
1, 778812, Note_on_c, 0, 71, 111
1, 779042, Note_off_c, 0, 71, 111
1, 779095, Note_on_c, 0, 73, 117
1, 779314, Note_off_c, 0, 73, 117
1, 779385, Note_on_c, 0, 71, 114
1, 779607, Note_off_c, 0, 71, 114
1, 779675, Note_on_c, 0, 73, 116
1, 779944, Note_off_c, 0, 73, 116
1, 779979, Note_on_c, 0, 71, 107
1, 780284, Note_off_c, 0, 71, 107
1, 780305, Note_on_c, 0, 73, 106
1, 780527, Note_off_c, 0, 73, 106
1, 780588, Note_on_c, 0, 71, 114
1, 780818, Note_off_c, 0, 71, 114
1, 780879, Note_on_c, 0, 73, 115
1, 781137, Note_off_c, 0, 73, 115
1, 781180, Note_on_c, 0, 71, 112
1, 781410, Note_off_c, 0, 71, 112
1, 781463, Note_on_c, 0, 73, 113
1, 781703, Note_off_c, 0, 73, 113
1, 781778, Note_on_c, 0, 71, 120
1, 781968, Note_off_c, 0, 71, 120
1, 782000, Note_on_c, 0, 72, 109
1, 782215, Note_off_c, 0, 72, 109
1, 782250, Note_on_c, 0, 71, 109
1, 782447, Note_off_c, 0, 71, 109
1, 782472, Note_on_c, 0, 69, 112
1, 783248, Note_off_c, 0, 69, 112
1, 783334, Note_on_c, 0, 71, 104
1, 783830, Note_off_c, 0, 71, 104
1, 783930, Note_on_c, 0, 76, 113
1, 784749, Note_off_c, 0, 76, 113
1, 789065, Note_on_c, 0, 76, 111
1, 789439, Note_off_c, 0, 76, 111
1, 789631, Note_on_c, 0, 71, 115
1, 790045, Note_off_c, 0, 71, 115
1, 790302, Note_on_c, 0, 66, 117
1, 790650, Note_off_c, 0, 66, 117
1, 790811, Note_on_c, 0, 64, 101
1, 791291, Note_off_c, 0, 64, 101
1, 791422, Note_on_c, 0, 62, 107
1, 791902, Note_off_c, 0, 62, 107
1, 791987, Note_on_c, 0, 59, 102
1, 792447, Note_off_c, 0, 59, 102
1, 792629, Note_on_c, 0, 54, 113
1, 793139, Note_off_c, 0, 54, 113
1, 793265, Note_on_c, 0, 52, 101
1, 793887, Note_off_c, 0, 52, 101
1, 793962, Note_on_c, 0, 54, 113
1, 794133, Note_off_c, 0, 54, 113
1, 794208, Note_on_c, 0, 55, 102
1, 794379, Note_off_c, 0, 55, 102
1, 794424, Note_on_c, 0, 54, 97
1, 794661, Note_off_c, 0, 54, 97
1, 794696, Note_on_c, 0, 59, 117
1, 795090, Note_off_c, 0, 59, 117
1, 795155, Note_on_c, 0, 62, 110
1, 795706, Note_off_c, 0, 62, 110
1, 795807, Note_on_c, 0, 64, 99
1, 796317, Note_off_c, 0, 64, 99
1, 796418, Note_on_c, 0, 66, 105
1, 797050, Note_off_c, 0, 66, 105
1, 797234, Note_on_c, 0, 71, 9
1, 797585, Note_off_c, 0, 71, 9
1, 797828, Note_on_c, 0, 74, 9
1, 798209, Note_off_c, 0, 74, 9
1, 798469, Note_on_c, 0, 76, 9
1, 799101, Note_off_c, 0, 76, 9
1, 799187, Note_on_c, 0, 78, 77
1, 799632, Note_off_c, 0, 78, 77
1, 800236, Note_on_c, 0, 76, 111
1, 800847, Note_off_c, 0, 76, 111
1, 800862, Note_on_c, 0, 78, 114
1, 801393, Note_off_c, 0, 78, 114
1, 802060, Note_on_c, 0, 76, 121
1, 802747, Note_off_c, 0, 76, 121
1, 802782, Note_on_c, 0, 78, 121
1, 803287, Note_off_c, 0, 78, 121
1, 804121, Note_on_c, 0, 76, 100
1, 804677, Note_off_c, 0, 76, 100
1, 804732, Note_on_c, 0, 78, 9
1, 805197, Note_off_c, 0, 78, 9
1, 805970, Note_on_c, 0, 76, 9
1, 806586, Note_off_c, 0, 76, 9
1, 806631, Note_on_c, 0, 78, 9
1, 807121, Note_off_c, 0, 78, 9
1, 807697, Note_on_c, 0, 76, 9
1, 808233, Note_off_c, 0, 76, 9
1, 808728, Note_on_c, 0, 78, 9
1, 809208, Note_off_c, 0, 78, 9
1, 809814, Note_on_c, 0, 78, 100
1, 810173, Note_off_c, 0, 78, 100
1, 810683, Note_on_c, 0, 78, 111
1, 811077, Note_off_c, 0, 78, 111
1, 811623, Note_on_c, 0, 76, 70
1, 812270, Note_off_c, 0, 76, 70
1, 812457, Note_on_c, 0, 78, 9
1, 814226, Note_off_c, 0, 78, 9
1, 816887, Note_on_c, 0, 52, 9
1, 817246, Note_off_c, 0, 52, 9
1, 817296, Note_on_c, 0, 54, 87
1, 817702, Note_off_c, 0, 54, 87
1, 817777, Note_on_c, 0, 59, 110
1, 818140, Note_off_c, 0, 59, 110
1, 818247, Note_on_c, 0, 62, 9
1, 818689, Note_off_c, 0, 62, 9
1, 818983, Note_on_c, 0, 57, 116
1, 819306, Note_off_c, 0, 57, 116
1, 819528, Note_on_c, 0, 59, 118
1, 819862, Note_off_c, 0, 59, 118
1, 820177, Note_on_c, 0, 64, 102
1, 820480, Note_off_c, 0, 64, 102
1, 820798, Note_on_c, 0, 66, 109
1, 821055, Note_off_c, 0, 66, 109
1, 821358, Note_on_c, 0, 69, 108
1, 821797, Note_off_c, 0, 69, 108
1, 822080, Note_on_c, 0, 71, 111
1, 822439, Note_off_c, 0, 71, 111
1, 822793, Note_on_c, 0, 74, 108
1, 823055, Note_off_c, 0, 74, 108
1, 823363, Note_on_c, 0, 76, 108
1, 823676, Note_off_c, 0, 76, 108
1, 824105, Note_on_c, 0, 76, 114
1, 824565, Note_off_c, 0, 76, 114
1, 824600, Note_on_c, 0, 78, 111
1, 825019, Note_off_c, 0, 78, 111
1, 825130, Note_on_c, 0, 76, 109
1, 825620, Note_off_c, 0, 76, 109
1, 825832, Note_on_c, 0, 76, 107
1, 826423, Note_off_c, 0, 76, 107
1, 826494, Note_on_c, 0, 78, 109
1, 826918, Note_off_c, 0, 78, 109
1, 827216, Note_on_c, 0, 76, 108
1, 827585, Note_off_c, 0, 76, 108
1, 827858, Note_on_c, 0, 76, 106
1, 828237, Note_off_c, 0, 76, 106
1, 828292, Note_on_c, 0, 78, 106
1, 828843, Note_off_c, 0, 78, 106
1, 829171, Note_on_c, 0, 76, 110
1, 829509, Note_off_c, 0, 76, 110
1, 829615, Note_on_c, 0, 78, 112
1, 830075, Note_off_c, 0, 78, 112
1, 830509, Note_on_c, 0, 76, 107
1, 830878, Note_off_c, 0, 76, 107
1, 831075, Note_on_c, 0, 76, 112
1, 831358, Note_off_c, 0, 76, 112
1, 831616, Note_on_c, 0, 76, 119
1, 832320, Note_off_c, 0, 76, 119
1, 832377, Note_on_c, 0, 78, 118
1, 832664, Note_off_c, 0, 78, 118
1, 832973, Note_on_c, 0, 76, 114
1, 833262, Note_off_c, 0, 76, 114
1, 833540, Note_on_c, 0, 76, 114
1, 834154, Note_off_c, 0, 76, 114
1, 834251, Note_on_c, 0, 78, 112
1, 834621, Note_off_c, 0, 78, 112
1, 834943, Note_on_c, 0, 76, 116
1, 835317, Note_off_c, 0, 76, 116
1, 835549, Note_on_c, 0, 78, 111
1, 837824, Note_off_c, 0, 78, 111
1, 840119, Note_on_c, 0, 52, 9
1, 840407, Note_off_c, 0, 52, 9
1, 840447, Note_on_c, 0, 54, 9
1, 840684, Note_off_c, 0, 54, 9
1, 840866, Note_on_c, 0, 59, 9
1, 841159, Note_off_c, 0, 59, 9
1, 841376, Note_on_c, 0, 62, 9
1, 841800, Note_off_c, 0, 62, 9
1, 842012, Note_on_c, 0, 57, 9
1, 842462, Note_off_c, 0, 57, 9
1, 842568, Note_on_c, 0, 59, 9
1, 843007, Note_off_c, 0, 59, 9
1, 843291, Note_on_c, 0, 52, 103
1, 843726, Note_off_c, 0, 52, 103
1, 843779, Note_on_c, 0, 54, 112
1, 844456, Note_off_c, 0, 54, 112
1, 844526, Note_on_c, 0, 57, 108
1, 844943, Note_off_c, 0, 57, 108
1, 844968, Note_on_c, 0, 54, 106
1, 845467, Note_off_c, 0, 54, 106
1, 845740, Note_on_c, 0, 59, 105
1, 846171, Note_off_c, 0, 59, 105
1, 846458, Note_on_c, 0, 57, 107
1, 846846, Note_off_c, 0, 57, 107
1, 847062, Note_on_c, 0, 64, 107
1, 847425, Note_off_c, 0, 64, 107
1, 847597, Note_on_c, 0, 59, 105
1, 848140, Note_off_c, 0, 59, 105
1, 848255, Note_on_c, 0, 57, 116
1, 848563, Note_off_c, 0, 57, 116
1, 848831, Note_on_c, 0, 66, 112
1, 849331, Note_off_c, 0, 66, 112
1, 849396, Note_on_c, 0, 64, 117
1, 849901, Note_off_c, 0, 64, 117
1, 850174, Note_on_c, 0, 69, 97
1, 850431, Note_off_c, 0, 69, 97
1, 850481, Note_on_c, 0, 68, 101
1, 850723, Note_off_c, 0, 68, 101
1, 850768, Note_on_c, 0, 69, 118
1, 851213, Note_off_c, 0, 69, 118
1, 851491, Note_on_c, 0, 64, 111
1, 851834, Note_off_c, 0, 64, 111
1, 852026, Note_on_c, 0, 71, 112
1, 852551, Note_off_c, 0, 71, 112
1, 852884, Note_on_c, 0, 64, 119
1, 853288, Note_off_c, 0, 64, 119
1, 853419, Note_on_c, 0, 66, 9
1, 853737, Note_off_c, 0, 66, 9
1, 853989, Note_on_c, 0, 69, 100
1, 854307, Note_off_c, 0, 69, 100
1, 854752, Note_on_c, 0, 75, 102
1, 855131, Note_off_c, 0, 75, 102
1, 855232, Note_on_c, 0, 77, 100
1, 855520, Note_off_c, 0, 77, 100
1, 855555, Note_on_c, 0, 78, 110
1, 855883, Note_off_c, 0, 78, 110
1, 856039, Note_on_c, 0, 83, 110
1, 856337, Note_off_c, 0, 83, 110
1, 856625, Note_on_c, 0, 76, 111
1, 857059, Note_off_c, 0, 76, 111
1, 857129, Note_on_c, 0, 78, 108
1, 857756, Note_off_c, 0, 78, 108
1, 857922, Note_on_c, 0, 76, 107
1, 858402, Note_off_c, 0, 76, 107
1, 858533, Note_on_c, 0, 78, 109
1, 859013, Note_off_c, 0, 78, 109
1, 860494, Note_on_c, 0, 76, 110
1, 861060, Note_off_c, 0, 76, 110
1, 861156, Note_on_c, 0, 78, 112
1, 861737, Note_off_c, 0, 78, 112
1, 861813, Note_on_c, 0, 81, 113
1, 862194, Note_off_c, 0, 81, 113
1, 862345, Note_on_c, 0, 76, 113
1, 862906, Note_off_c, 0, 76, 113
1, 862985, Note_on_c, 0, 78, 112
1, 863445, Note_off_c, 0, 78, 112
1, 863596, Note_on_c, 0, 76, 108
1, 864149, Note_off_c, 0, 76, 108
1, 864242, Note_on_c, 0, 78, 113
1, 864673, Note_off_c, 0, 78, 113
1, 866240, Note_on_c, 0, 76, 109
1, 866772, Note_off_c, 0, 76, 109
1, 866894, Note_on_c, 0, 78, 112
1, 867268, Note_off_c, 0, 78, 112
1, 867411, Note_on_c, 0, 81, 112
1, 867813, Note_off_c, 0, 81, 112
1, 868035, Note_on_c, 0, 76, 106
1, 868624, Note_off_c, 0, 76, 106
1, 868825, Note_on_c, 0, 78, 114
1, 869306, Note_off_c, 0, 78, 114
1, 869385, Note_on_c, 0, 76, 83
1, 869917, Note_off_c, 0, 76, 83
1, 870104, Note_on_c, 0, 78, 9
1, 870549, Note_off_c, 0, 78, 9
1, 872095, Note_on_c, 0, 76, 49
1, 872598, Note_off_c, 0, 76, 49
1, 872644, Note_on_c, 0, 78, 123
1, 873215, Note_off_c, 0, 78, 123
1, 873294, Note_on_c, 0, 81, 116
1, 873696, Note_off_c, 0, 81, 116
1, 874465, Note_on_c, 0, 81, 118
1, 874856, Note_off_c, 0, 81, 118
1, 874913, Note_on_c, 0, 83, 110
1, 876261, Note_off_c, 0, 83, 110
1, 876455, Note_on_c, 0, 78, 117
1, 876944, Note_off_c, 0, 78, 117
1, 877692, Note_on_c, 0, 78, 112
1, 878763, Note_off_c, 0, 78, 112
1, 881114, Note_on_c, 0, 76, 110
1, 881473, Note_off_c, 0, 76, 110
1, 881595, Note_on_c, 0, 78, 105
1, 882170, Note_off_c, 0, 78, 105
1, 882270, Note_on_c, 0, 81, 107
1, 882622, Note_off_c, 0, 81, 107
1, 882866, Note_on_c, 0, 76, 116
1, 883326, Note_off_c, 0, 76, 116
1, 883405, Note_on_c, 0, 78, 108
1, 883836, Note_off_c, 0, 78, 108
1, 884080, Note_on_c, 0, 81, 104
1, 884676, Note_off_c, 0, 81, 104
1, 884827, Note_on_c, 0, 82, 110
1, 885308, Note_off_c, 0, 82, 110
1, 885343, Note_on_c, 0, 83, 112
1, 886429, Note_off_c, 0, 83, 112
1, 886759, Note_on_c, 0, 78, 117
1, 887291, Note_off_c, 0, 78, 117
1, 887952, Note_on_c, 0, 78, 111
1, 889613, Note_off_c, 0, 78, 111
1, 891367, Note_on_c, 0, 76, 9
1, 891780, Note_off_c, 0, 76, 9
1, 891970, Note_on_c, 0, 78, 9
1, 892401, Note_off_c, 0, 78, 9
1, 892462, Note_on_c, 0, 81, 63
1, 892943, Note_off_c, 0, 81, 63
1, 893234, Note_on_c, 0, 76, 113
1, 893679, Note_off_c, 0, 76, 113
1, 893779, Note_on_c, 0, 78, 9
1, 894138, Note_off_c, 0, 78, 9
1, 894454, Note_on_c, 0, 81, 9
1, 894907, Note_off_c, 0, 81, 9
1, 894971, Note_on_c, 0, 83, 102
1, 895834, Note_off_c, 0, 83, 102
1, 896200, Note_on_c, 0, 76, 9
1, 896624, Note_off_c, 0, 76, 9
1, 896674, Note_on_c, 0, 77, 52
1, 897026, Note_off_c, 0, 77, 52
1, 897173, Note_on_c, 0, 78, 119
1, 897446, Note_off_c, 0, 78, 119
1, 897517, Note_on_c, 0, 81, 120
1, 897898, Note_off_c, 0, 81, 120
1, 898078, Note_on_c, 0, 76, 104
1, 898770, Note_off_c, 0, 76, 104
1, 898840, Note_on_c, 0, 78, 103
1, 899133, Note_off_c, 0, 78, 103
1, 899405, Note_on_c, 0, 81, 109
1, 899850, Note_off_c, 0, 81, 109
1, 899882, Note_on_c, 0, 83, 107
1, 900788, Note_off_c, 0, 83, 107
1, 901320, Note_on_c, 0, 76, 117
1, 901931, Note_off_c, 0, 76, 117
1, 902010, Note_on_c, 0, 78, 9
1, 902455, Note_off_c, 0, 78, 9
1, 902534, Note_on_c, 0, 81, 9
1, 903037, Note_off_c, 0, 81, 9
1, 903133, Note_on_c, 0, 76, 9
1, 903719, Note_off_c, 0, 76, 9
1, 903799, Note_on_c, 0, 78, 120
1, 904198, Note_off_c, 0, 78, 120
1, 904364, Note_on_c, 0, 81, 9
1, 904900, Note_off_c, 0, 81, 9
1, 904980, Note_on_c, 0, 83, 54
1, 906901, Note_off_c, 0, 83, 54
1, 907012, Note_on_c, 0, 78, 9
1, 907659, Note_off_c, 0, 78, 9
1, 908407, Note_on_c, 0, 78, 114
1, 909286, Note_off_c, 0, 78, 114
1, 909518, Note_on_c, 0, 78, 95
1, 910114, Note_off_c, 0, 78, 95
1, 911686, Note_on_c, 0, 81, 115
1, 912024, Note_off_c, 0, 81, 115
1, 912175, Note_on_c, 0, 78, 110
1, 912656, Note_off_c, 0, 78, 110
1, 912742, Note_on_c, 0, 76, 9
1, 913238, Note_off_c, 0, 76, 9
1, 913410, Note_on_c, 0, 81, 110
1, 913827, Note_off_c, 0, 81, 110
1, 914078, Note_on_c, 0, 78, 19
1, 914473, Note_off_c, 0, 78, 19
1, 914609, Note_on_c, 0, 75, 9
1, 915112, Note_off_c, 0, 75, 9
1, 915245, Note_on_c, 0, 73, 92
1, 917126, Note_off_c, 0, 73, 92
1, 917237, Note_on_c, 0, 71, 9
1, 918056, Note_off_c, 0, 71, 9
1, 918612, Note_on_c, 0, 71, 114
1, 920543, Note_off_c, 0, 71, 114
1, 921769, Note_on_c, 0, 82, 111
1, 922234, Note_off_c, 0, 82, 111
1, 922362, Note_on_c, 0, 80, 114
1, 922771, Note_off_c, 0, 80, 114
1, 922939, Note_on_c, 0, 78, 117
1, 923320, Note_off_c, 0, 78, 117
1, 923437, Note_on_c, 0, 81, 121
1, 923654, Note_off_c, 0, 81, 121
1, 923729, Note_on_c, 0, 83, 115
1, 924103, Note_off_c, 0, 83, 115
1, 924173, Note_on_c, 0, 80, 114
1, 924537, Note_off_c, 0, 80, 114
1, 924602, Note_on_c, 0, 78, 110
1, 924875, Note_off_c, 0, 78, 110
1, 924940, Note_on_c, 0, 77, 102
1, 925172, Note_off_c, 0, 77, 102
1, 925298, Note_on_c, 0, 76, 99
1, 925672, Note_off_c, 0, 76, 99
1, 925763, Note_on_c, 0, 73, 110
1, 927098, Note_off_c, 0, 73, 110
1, 927371, Note_on_c, 0, 71, 119
1, 928038, Note_off_c, 0, 71, 119
1, 928685, Note_on_c, 0, 71, 103
1, 930424, Note_off_c, 0, 71, 103
1, 931929, Note_on_c, 0, 71, 88
1, 932439, Note_off_c, 0, 71, 88
1, 932510, Note_on_c, 0, 73, 120
1, 932919, Note_off_c, 0, 73, 120
1, 933026, Note_on_c, 0, 76, 119
1, 933378, Note_off_c, 0, 76, 119
1, 933586, Note_on_c, 0, 78, 119
1, 934046, Note_off_c, 0, 78, 119
1, 934211, Note_on_c, 0, 81, 113
1, 934678, Note_off_c, 0, 81, 113
1, 934749, Note_on_c, 0, 78, 114
1, 935173, Note_off_c, 0, 78, 114
1, 935352, Note_on_c, 0, 81, 106
1, 935654, Note_off_c, 0, 81, 106
1, 935689, Note_on_c, 0, 83, 109
1, 937487, Note_off_c, 0, 83, 109
1, 937540, Note_on_c, 0, 81, 9
1, 938096, Note_off_c, 0, 81, 9
1, 938665, Note_on_c, 0, 78, 114
1, 939758, Note_off_c, 0, 78, 114
1, 940621, Note_on_c, 0, 78, 111
1, 942260, Note_off_c, 0, 78, 111
1, 942461, Note_on_c, 0, 76, 9
1, 943568, Note_off_c, 0, 76, 9
1, 943683, Note_on_c, 0, 73, 9
1, 944128, Note_off_c, 0, 73, 9
1, 945601, Note_on_c, 0, 73, 106
1, 947330, Note_off_c, 0, 73, 106
1, 947481, Note_on_c, 0, 71, 9
1, 948532, Note_off_c, 0, 71, 9
1, 948734, Note_on_c, 0, 69, 9
1, 949320, Note_off_c, 0, 69, 9
1, 951302, Note_on_c, 0, 71, 108
1, 951747, Note_off_c, 0, 71, 108
1, 951959, Note_on_c, 0, 69, 119
1, 952383, Note_off_c, 0, 69, 119
1, 952554, Note_on_c, 0, 66, 97
1, 952968, Note_off_c, 0, 66, 97
1, 953230, Note_on_c, 0, 69, 9
1, 953624, Note_off_c, 0, 69, 9
1, 953775, Note_on_c, 0, 64, 9
1, 954321, Note_off_c, 0, 64, 9
1, 954446, Note_on_c, 0, 69, 28
1, 955021, Note_off_c, 0, 69, 28
1, 955092, Note_on_c, 0, 66, 115
1, 955609, Note_off_c, 0, 66, 115
1, 955724, Note_on_c, 0, 62, 109
1, 957726, Note_off_c, 0, 62, 109
1, 959688, Note_on_c, 0, 73, 9
1, 960021, Note_off_c, 0, 73, 9
1, 960091, Note_on_c, 0, 72, 9
1, 960713, Note_off_c, 0, 72, 9
1, 960869, Note_on_c, 0, 69, 112
1, 961288, Note_off_c, 0, 69, 112
1, 961368, Note_on_c, 0, 68, 99
1, 961807, Note_off_c, 0, 68, 99
1, 962054, Note_on_c, 0, 72, 97
1, 962574, Note_off_c, 0, 72, 97
1, 962664, Note_on_c, 0, 67, 114
1, 963304, Note_off_c, 0, 67, 114
1, 963375, Note_on_c, 0, 66, 9
1, 963900, Note_off_c, 0, 66, 9
1, 964094, Note_on_c, 0, 69, 9
1, 964482, Note_off_c, 0, 69, 9
1, 964697, Note_on_c, 0, 65, 9
1, 965142, Note_off_c, 0, 65, 9
1, 965213, Note_on_c, 0, 62, 9
1, 965738, Note_off_c, 0, 62, 9
1, 965853, Note_on_c, 0, 67, 9
1, 966327, Note_off_c, 0, 67, 9
1, 966449, Note_on_c, 0, 66, 9
1, 967038, Note_off_c, 0, 66, 9
1, 967059, Note_on_c, 0, 61, 9
1, 967591, Note_off_c, 0, 61, 9
1, 967709, Note_on_c, 0, 56, 85
1, 967987, Note_off_c, 0, 56, 85
1, 968027, Note_on_c, 0, 57, 115
1, 968360, Note_off_c, 0, 57, 115
1, 968405, Note_on_c, 0, 54, 111
1, 968895, Note_off_c, 0, 54, 111
1, 969036, Note_on_c, 0, 59, 105
1, 969359, Note_off_c, 0, 59, 105
1, 969601, Note_on_c, 0, 61, 111
1, 970187, Note_off_c, 0, 61, 111
1, 970217, Note_on_c, 0, 64, 118
1, 970712, Note_off_c, 0, 64, 118
1, 970787, Note_on_c, 0, 66, 121
1, 971257, Note_off_c, 0, 66, 121
1, 971373, Note_on_c, 0, 68, 116
1, 971909, Note_off_c, 0, 68, 116
1, 972041, Note_on_c, 0, 71, 111
1, 972602, Note_off_c, 0, 71, 111
1, 972709, Note_on_c, 0, 74, 111
1, 973176, Note_off_c, 0, 74, 111
1, 973298, Note_on_c, 0, 75, 9
1, 973779, Note_off_c, 0, 75, 9
1, 974073, Note_on_c, 0, 74, 105
1, 974511, Note_off_c, 0, 74, 105
1, 974633, Note_on_c, 0, 76, 64
1, 975078, Note_off_c, 0, 76, 64
1, 975207, Note_on_c, 0, 75, 77
1, 975696, Note_off_c, 0, 75, 77
1, 975721, Note_on_c, 0, 78, 114
1, 975908, Note_off_c, 0, 78, 114
1, 976019, Note_on_c, 0, 75, 37
1, 976206, Note_off_c, 0, 75, 37
1, 976346, Note_on_c, 0, 68, 15
1, 976935, Note_off_c, 0, 68, 15
1, 977139, Note_on_c, 0, 64, 119
1, 977563, Note_off_c, 0, 64, 119
1, 977593, Note_on_c, 0, 66, 39
1, 977808, Note_off_c, 0, 66, 39
1, 977827, Note_on_c, 0, 70, 88
1, 978140, Note_off_c, 0, 70, 88
1, 978294, Note_on_c, 0, 75, 114
1, 978825, Note_off_c, 0, 75, 114
1, 978991, Note_on_c, 0, 73, 104
1, 979506, Note_off_c, 0, 73, 104
1, 979784, Note_on_c, 0, 68, 106
1, 980193, Note_off_c, 0, 68, 106
1, 980354, Note_on_c, 0, 66, 20
1, 980824, Note_off_c, 0, 66, 20
1, 980915, Note_on_c, 0, 71, 9
1, 981289, Note_off_c, 0, 71, 9
1, 981450, Note_on_c, 0, 63, 9
1, 981955, Note_off_c, 0, 63, 9
1, 982131, Note_on_c, 0, 66, 9
1, 982646, Note_off_c, 0, 66, 9
1, 982787, Note_on_c, 0, 70, 115
1, 983201, Note_off_c, 0, 70, 115
1, 983357, Note_on_c, 0, 68, 95
1, 983827, Note_off_c, 0, 68, 95
1, 983933, Note_on_c, 0, 66, 92
1, 984378, Note_off_c, 0, 66, 92
1, 984686, Note_on_c, 0, 61, 112
1, 985161, Note_off_c, 0, 61, 112
1, 985337, Note_on_c, 0, 58, 100
1, 985933, Note_off_c, 0, 58, 100
1, 986160, Note_on_c, 0, 54, 9
1, 986508, Note_off_c, 0, 54, 9
1, 986669, Note_on_c, 0, 56, 9
1, 987265, Note_off_c, 0, 56, 9
1, 987348, Note_on_c, 0, 58, 9
1, 987691, Note_off_c, 0, 58, 9
1, 991061, Note_on_c, 0, 56, 119
1, 991536, Note_off_c, 0, 56, 119
1, 991546, Note_on_c, 0, 58, 118
1, 992011, Note_off_c, 0, 58, 118
1, 992157, Note_on_c, 0, 61, 102
1, 992763, Note_off_c, 0, 61, 102
1, 992911, Note_on_c, 0, 66, 119
1, 993360, Note_off_c, 0, 66, 119
1, 993536, Note_on_c, 0, 68, 9
1, 994025, Note_off_c, 0, 68, 9
1, 994254, Note_on_c, 0, 70, 79
1, 994678, Note_off_c, 0, 70, 79
1, 994824, Note_on_c, 0, 66, 108
1, 995334, Note_off_c, 0, 66, 108
1, 995455, Note_on_c, 0, 68, 50
1, 995889, Note_off_c, 0, 68, 50
1, 996101, Note_on_c, 0, 73, 116
1, 996449, Note_off_c, 0, 73, 116
1, 996691, Note_on_c, 0, 75, 9
1, 997272, Note_off_c, 0, 75, 9
1, 997368, Note_on_c, 0, 76, 9
1, 997914, Note_off_c, 0, 76, 9
1, 998010, Note_on_c, 0, 77, 9
1, 998313, Note_off_c, 0, 77, 9
1, 998565, Note_on_c, 0, 76, 9
1, 999070, Note_off_c, 0, 76, 9
1, 999150, Note_on_c, 0, 75, 115
1, 999665, Note_off_c, 0, 75, 115
1, 999690, Note_on_c, 0, 73, 115
1, 999900, Note_off_c, 0, 73, 115
1, 999912, Note_on_c, 0, 71, 55
1, 1000156, Note_off_c, 0, 71, 55
1, 1000262, Note_on_c, 0, 68, 77
1, 1000796, Note_off_c, 0, 68, 77
1, 1000978, Note_on_c, 0, 70, 108
1, 1001574, Note_off_c, 0, 70, 108
1, 1001649, Note_on_c, 0, 71, 86
1, 1002083, Note_off_c, 0, 71, 86
1, 1002179, Note_on_c, 0, 72, 120
1, 1002720, Note_off_c, 0, 72, 120
1, 1002780, Note_on_c, 0, 71, 9
1, 1003285, Note_off_c, 0, 71, 9
1, 1003441, Note_on_c, 0, 70, 118
1, 1003931, Note_off_c, 0, 70, 118
1, 1004047, Note_on_c, 0, 66, 103
1, 1004512, Note_off_c, 0, 66, 103
1, 1004643, Note_on_c, 0, 62, 9
1, 1005128, Note_off_c, 0, 62, 9
1, 1005335, Note_on_c, 0, 65, 114
1, 1005769, Note_off_c, 0, 65, 114
1, 1005865, Note_on_c, 0, 66, 51
1, 1006517, Note_off_c, 0, 66, 51
1, 1006608, Note_on_c, 0, 67, 91
1, 1007154, Note_off_c, 0, 67, 91
1, 1007239, Note_on_c, 0, 66, 105
1, 1007734, Note_off_c, 0, 66, 105
1, 1007794, Note_on_c, 0, 65, 74
1, 1008249, Note_off_c, 0, 65, 74
1, 1008360, Note_on_c, 0, 62, 114
1, 1008941, Note_off_c, 0, 62, 114
1, 1008996, Note_on_c, 0, 57, 9
1, 1009441, Note_off_c, 0, 57, 9
1, 1009623, Note_on_c, 0, 61, 110
1, 1010128, Note_off_c, 0, 61, 110
1, 1010178, Note_on_c, 0, 62, 108
1, 1010805, Note_off_c, 0, 62, 108
1, 1010840, Note_on_c, 0, 63, 108
1, 1011350, Note_off_c, 0, 63, 108
1, 1011461, Note_on_c, 0, 62, 9
1, 1011916, Note_off_c, 0, 62, 9
1, 1012022, Note_on_c, 0, 61, 9
1, 1012411, Note_off_c, 0, 61, 9
1, 1012572, Note_on_c, 0, 58, 9
1, 1013077, Note_off_c, 0, 58, 9
1, 1013254, Note_on_c, 0, 53, 9
1, 1013739, Note_off_c, 0, 53, 9
1, 1013784, Note_on_c, 0, 51, 9
1, 1014340, Note_off_c, 0, 51, 9
1, 1016651, Note_on_c, 0, 50, 119
1, 1017237, Note_off_c, 0, 50, 119
1, 1017307, Note_on_c, 0, 49, 108
1, 1017838, Note_off_c, 0, 49, 108
1, 1017849, Note_on_c, 0, 54, 112
1, 1018278, Note_off_c, 0, 54, 112
1, 1019237, Note_on_c, 0, 50, 115
1, 1019768, Note_off_c, 0, 50, 115
1, 1019848, Note_on_c, 0, 49, 116
1, 1020419, Note_off_c, 0, 49, 116
1, 1020464, Note_on_c, 0, 55, 115
1, 1020924, Note_off_c, 0, 55, 115
1, 1021146, Note_on_c, 0, 50, 114
1, 1021768, Note_off_c, 0, 50, 114
1, 1021848, Note_on_c, 0, 49, 112
1, 1022247, Note_off_c, 0, 49, 112
1, 1022292, Note_on_c, 0, 56, 97
1, 1022898, Note_off_c, 0, 56, 97
1, 1024956, Note_on_c, 0, 50, 112
1, 1025310, Note_off_c, 0, 50, 112
1, 1025336, Note_on_c, 0, 49, 112
1, 1025652, Note_off_c, 0, 49, 112
1, 1025663, Note_on_c, 0, 50, 111
1, 1025900, Note_off_c, 0, 50, 111
1, 1025960, Note_on_c, 0, 53, 118
1, 1026192, Note_off_c, 0, 53, 118
1, 1026318, Note_on_c, 0, 50, 109
1, 1026727, Note_off_c, 0, 50, 109
1, 1026904, Note_on_c, 0, 53, 119
1, 1027227, Note_off_c, 0, 53, 119
1, 1027307, Note_on_c, 0, 54, 111
1, 1027620, Note_off_c, 0, 54, 111
1, 1027640, Note_on_c, 0, 57, 111
1, 1027948, Note_off_c, 0, 57, 111
1, 1028062, Note_on_c, 0, 53, 111
1, 1028314, Note_off_c, 0, 53, 111
1, 1028371, Note_on_c, 0, 54, 107
1, 1028745, Note_off_c, 0, 54, 107
1, 1028837, Note_on_c, 0, 58, 116
1, 1029067, Note_off_c, 0, 58, 116
1, 1029182, Note_on_c, 0, 53, 101
1, 1029383, Note_off_c, 0, 53, 101
1, 1029426, Note_on_c, 0, 51, 9
1, 1029756, Note_off_c, 0, 51, 9
1, 1029850, Note_on_c, 0, 62, 9
1, 1030173, Note_off_c, 0, 62, 9
1, 1030238, Note_on_c, 0, 58, 9
1, 1030460, Note_off_c, 0, 58, 9
1, 1030475, Note_on_c, 0, 63, 9
1, 1030879, Note_off_c, 0, 63, 9
1, 1030939, Note_on_c, 0, 60, 9
1, 1031176, Note_off_c, 0, 60, 9
1, 1031237, Note_on_c, 0, 61, 9
1, 1031589, Note_off_c, 0, 61, 9
1, 1031632, Note_on_c, 0, 62, 9
1, 1031880, Note_off_c, 0, 62, 9
1, 1031908, Note_on_c, 0, 65, 9
1, 1032156, Note_off_c, 0, 65, 9
1, 1032213, Note_on_c, 0, 62, 9
1, 1032453, Note_off_c, 0, 62, 9
1, 1032582, Note_on_c, 0, 65, 9
1, 1032751, Note_off_c, 0, 65, 9
1, 1032812, Note_on_c, 0, 67, 9
1, 1033088, Note_off_c, 0, 67, 9
1, 1033149, Note_on_c, 0, 74, 9
1, 1033436, Note_off_c, 0, 74, 9
1, 1033500, Note_on_c, 0, 73, 9
1, 1033784, Note_off_c, 0, 73, 9
1, 1033855, Note_on_c, 0, 72, 9
1, 1034459, Note_off_c, 0, 72, 9
1, 1034541, Note_on_c, 0, 77, 105
1, 1035540, Note_off_c, 0, 77, 105
1, 1038805, Note_on_c, 0, 50, 108
1, 1039035, Note_off_c, 0, 50, 108
1, 1039081, Note_on_c, 0, 49, 109
1, 1039375, Note_off_c, 0, 49, 109
1, 1039428, Note_on_c, 0, 53, 113
1, 1039686, Note_off_c, 0, 53, 113
1, 1039768, Note_on_c, 0, 49, 114
1, 1040246, Note_off_c, 0, 49, 114
1, 1040310, Note_on_c, 0, 50, 112
1, 1040684, Note_off_c, 0, 50, 112
1, 1040714, Note_on_c, 0, 53, 111
1, 1041113, Note_off_c, 0, 53, 111
1, 1041128, Note_on_c, 0, 55, 104
1, 1041516, Note_off_c, 0, 55, 104
1, 1041653, Note_on_c, 0, 60, 113
1, 1042037, Note_off_c, 0, 60, 113
1, 1042087, Note_on_c, 0, 62, 111
1, 1042405, Note_off_c, 0, 62, 111
1, 1042440, Note_on_c, 0, 66, 110
1, 1042753, Note_off_c, 0, 66, 110
1, 1042818, Note_on_c, 0, 74, 113
1, 1043109, Note_off_c, 0, 74, 113
1, 1043137, Note_on_c, 0, 73, 116
1, 1043403, Note_off_c, 0, 73, 116
1, 1043460, Note_on_c, 0, 72, 103
1, 1044150, Note_off_c, 0, 72, 103
1, 1044401, Note_on_c, 0, 77, 116
1, 1045091, Note_off_c, 0, 77, 116
1, 1047061, Note_on_c, 0, 49, 116
1, 1047413, Note_off_c, 0, 49, 116
1, 1047488, Note_on_c, 0, 50, 119
1, 1047959, Note_off_c, 0, 50, 119
1, 1048009, Note_on_c, 0, 55, 112
1, 1048512, Note_off_c, 0, 55, 112
1, 1049687, Note_on_c, 0, 49, 98
1, 1049884, Note_off_c, 0, 49, 98
1, 1049898, Note_on_c, 0, 50, 104
1, 1050137, Note_off_c, 0, 50, 104
1, 1050142, Note_on_c, 0, 52, 107
1, 1050374, Note_off_c, 0, 52, 107
1, 1050374, Note_on_c, 0, 55, 110
1, 1050672, Note_off_c, 0, 55, 110
1, 1050748, Note_on_c, 0, 53, 113
1, 1051244, Note_off_c, 0, 53, 113
1, 1051398, Note_on_c, 0, 54, 114
1, 1051700, Note_off_c, 0, 54, 114
1, 1051800, Note_on_c, 0, 55, 88
1, 1051961, Note_off_c, 0, 55, 88
1, 1051961, Note_on_c, 0, 56, 110
1, 1052281, Note_off_c, 0, 56, 110
1, 1052281, Note_on_c, 0, 58, 108
1, 1052579, Note_off_c, 0, 58, 108
1, 1052618, Note_on_c, 0, 62, 107
1, 1052941, Note_off_c, 0, 62, 107
1, 1053048, Note_on_c, 0, 59, 106
1, 1053465, Note_off_c, 0, 59, 106
1, 1053554, Note_on_c, 0, 64, 107
1, 1053802, Note_off_c, 0, 64, 107
1, 1053877, Note_on_c, 0, 60, 100
1, 1054225, Note_off_c, 0, 60, 100
1, 1054260, Note_on_c, 0, 61, 101
1, 1054580, Note_off_c, 0, 61, 101
1, 1054622, Note_on_c, 0, 62, 100
1, 1054866, Note_off_c, 0, 62, 100
1, 1054914, Note_on_c, 0, 67, 112
1, 1055192, Note_off_c, 0, 67, 112
1, 1055313, Note_on_c, 0, 64, 107
1, 1055616, Note_off_c, 0, 64, 107
1, 1055686, Note_on_c, 0, 66, 96
1, 1056034, Note_off_c, 0, 66, 96
1, 1056104, Note_on_c, 0, 70, 109
1, 1056311, Note_off_c, 0, 70, 109
1, 1056386, Note_on_c, 0, 68, 106
1, 1056805, Note_off_c, 0, 68, 106
1, 1056883, Note_on_c, 0, 70, 108
1, 1057023, Note_off_c, 0, 70, 108
1, 1057079, Note_on_c, 0, 74, 100
1, 1057526, Note_off_c, 0, 74, 100
1, 1057630, Note_on_c, 0, 72, 108
1, 1058068, Note_off_c, 0, 72, 108
1, 1058341, Note_on_c, 0, 77, 102
1, 1058686, Note_off_c, 0, 77, 102
1, 1060037, Note_on_c, 0, 61, 101
1, 1060274, Note_off_c, 0, 61, 101
1, 1060305, Note_on_c, 0, 62, 107
1, 1060586, Note_off_c, 0, 62, 107
1, 1060613, Note_on_c, 0, 67, 34
1, 1060857, Note_off_c, 0, 67, 34
1, 1060896, Note_on_c, 0, 66, 91
1, 1061209, Note_off_c, 0, 66, 91
1, 1061278, Note_on_c, 0, 62, 103
1, 1061630, Note_off_c, 0, 62, 103
1, 1061723, Note_on_c, 0, 65, 9
1, 1061970, Note_off_c, 0, 65, 9
1, 1062001, Note_on_c, 0, 62, 78
1, 1062250, Note_off_c, 0, 62, 78
1, 1062297, Note_on_c, 0, 61, 104
1, 1062591, Note_off_c, 0, 61, 104
1, 1062630, Note_on_c, 0, 60, 105
1, 1062863, Note_off_c, 0, 60, 105
1, 1062909, Note_on_c, 0, 58, 77
1, 1063193, Note_off_c, 0, 58, 77
1, 1063297, Note_on_c, 0, 55, 101
1, 1063606, Note_off_c, 0, 55, 101
1, 1063685, Note_on_c, 0, 57, 75
1, 1064041, Note_off_c, 0, 57, 75
1, 1064105, Note_on_c, 0, 53, 105
1, 1064425, Note_off_c, 0, 53, 105
1, 1064486, Note_on_c, 0, 50, 92
1, 1064834, Note_off_c, 0, 50, 92
1, 1064905, Note_on_c, 0, 55, 110
1, 1065160, Note_off_c, 0, 55, 110
1, 1065188, Note_on_c, 0, 52, 114
1, 1065454, Note_off_c, 0, 52, 114
1, 1065612, Note_on_c, 0, 54, 107
1, 1066007, Note_off_c, 0, 54, 107
1, 1066068, Note_on_c, 0, 58, 9
1, 1066442, Note_off_c, 0, 58, 9
1, 1067915, Note_on_c, 0, 50, 9
1, 1068496, Note_off_c, 0, 50, 9
1, 1068592, Note_on_c, 0, 55, 98
1, 1069426, Note_off_c, 0, 55, 98
1, 1069461, Note_on_c, 0, 54, 117
1, 1069799, Note_off_c, 0, 54, 117
1, 1069824, Note_on_c, 0, 58, 114
1, 1070208, Note_off_c, 0, 58, 114
1, 1070238, Note_on_c, 0, 62, 17
1, 1070622, Note_off_c, 0, 62, 17
1, 1070728, Note_on_c, 0, 58, 9
1, 1071051, Note_off_c, 0, 58, 9
1, 1071228, Note_on_c, 0, 53, 9
1, 1071779, Note_off_c, 0, 53, 9
1, 1071940, Note_on_c, 0, 58, 9
1, 1072263, Note_off_c, 0, 58, 9
1, 1072343, Note_on_c, 0, 62, 9
1, 1072595, Note_off_c, 0, 62, 9
1, 1072641, Note_on_c, 0, 60, 9
1, 1073076, Note_off_c, 0, 60, 9
1, 1073192, Note_on_c, 0, 67, 9
1, 1073382, Note_off_c, 0, 67, 9
1, 1073585, Note_on_c, 0, 74, 9
1, 1073847, Note_off_c, 0, 74, 9
1, 1073902, Note_on_c, 0, 73, 9
1, 1074139, Note_off_c, 0, 73, 9
1, 1074219, Note_on_c, 0, 72, 47
1, 1074583, Note_off_c, 0, 72, 47
1, 1074770, Note_on_c, 0, 77, 108
1, 1075407, Note_off_c, 0, 77, 108
1, 1077500, Note_on_c, 0, 62, 9
1, 1077809, Note_off_c, 0, 62, 9
1, 1077855, Note_on_c, 0, 61, 9
1, 1078167, Note_off_c, 0, 61, 9
1, 1078249, Note_on_c, 0, 67, 64
1, 1078525, Note_off_c, 0, 67, 64
1, 1078578, Note_on_c, 0, 66, 104
1, 1078851, Note_off_c, 0, 66, 104
1, 1078876, Note_on_c, 0, 61, 103
1, 1079246, Note_off_c, 0, 61, 103
1, 1079393, Note_on_c, 0, 66, 92
1, 1079637, Note_off_c, 0, 66, 92
1, 1079680, Note_on_c, 0, 62, 94
1, 1079931, Note_off_c, 0, 62, 94
1, 1079963, Note_on_c, 0, 61, 51
1, 1080337, Note_off_c, 0, 61, 51
1, 1080380, Note_on_c, 0, 60, 116
1, 1080714, Note_off_c, 0, 60, 116
1, 1080771, Note_on_c, 0, 58, 118
1, 1081019, Note_off_c, 0, 58, 118
1, 1081137, Note_on_c, 0, 55, 106
1, 1081439, Note_off_c, 0, 55, 106
1, 1081496, Note_on_c, 0, 53, 103
1, 1081841, Note_off_c, 0, 53, 103
1, 1081858, Note_on_c, 0, 57, 85
1, 1082145, Note_off_c, 0, 57, 85
1, 1082191, Note_on_c, 0, 61, 115
1, 1082460, Note_off_c, 0, 61, 115
1, 1082485, Note_on_c, 0, 62, 107
1, 1082794, Note_off_c, 0, 62, 107
1, 1082815, Note_on_c, 0, 66, 109
1, 1083149, Note_off_c, 0, 66, 109
1, 1083253, Note_on_c, 0, 69, 107
1, 1083497, Note_off_c, 0, 69, 107
1, 1083561, Note_on_c, 0, 66, 100
1, 1083758, Note_off_c, 0, 66, 100
1, 1083847, Note_on_c, 0, 70, 102
1, 1084138, Note_off_c, 0, 70, 102
1, 1084163, Note_on_c, 0, 66, 112
1, 1084407, Note_off_c, 0, 66, 112
1, 1084547, Note_on_c, 0, 61, 104
1, 1084870, Note_off_c, 0, 61, 104
1, 1084913, Note_on_c, 0, 66, 109
1, 1085333, Note_off_c, 0, 66, 109
1, 1085435, Note_on_c, 0, 62, 97
1, 1085793, Note_off_c, 0, 62, 97
1, 1085897, Note_on_c, 0, 58, 109
1, 1086230, Note_off_c, 0, 58, 109
1, 1086283, Note_on_c, 0, 54, 107
1, 1086545, Note_off_c, 0, 54, 107
1, 1086574, Note_on_c, 0, 57, 104
1, 1086690, Note_off_c, 0, 57, 104
1, 1086746, Note_on_c, 0, 59, 83
1, 1086906, Note_off_c, 0, 59, 83
1, 1086943, Note_on_c, 0, 61, 9
1, 1087279, Note_off_c, 0, 61, 9
1, 1087313, Note_on_c, 0, 62, 9
1, 1087547, Note_off_c, 0, 62, 9
1, 1087626, Note_on_c, 0, 67, 9
1, 1087920, Note_off_c, 0, 67, 9
1, 1087984, Note_on_c, 0, 69, 9
1, 1088311, Note_off_c, 0, 69, 9
1, 1088543, Note_on_c, 0, 70, 9
1, 1088668, Note_off_c, 0, 70, 9
1, 1088703, Note_on_c, 0, 72, 9
1, 1088961, Note_off_c, 0, 72, 9
1, 1088995, Note_on_c, 0, 67, 9
1, 1089156, Note_off_c, 0, 67, 9
1, 1089332, Note_on_c, 0, 61, 9
1, 1089584, Note_off_c, 0, 61, 9
1, 1089650, Note_on_c, 0, 58, 9
1, 1089921, Note_off_c, 0, 58, 9
1, 1089963, Note_on_c, 0, 54, 9
1, 1090447, Note_off_c, 0, 54, 9
1, 1090776, Note_on_c, 0, 58, 9
1, 1091180, Note_off_c, 0, 58, 9
1, 1091291, Note_on_c, 0, 61, 9
1, 1091675, Note_off_c, 0, 61, 9
1, 1091715, Note_on_c, 0, 67, 9
1, 1092023, Note_off_c, 0, 67, 9
1, 1092119, Note_on_c, 0, 72, 21
1, 1092457, Note_off_c, 0, 72, 21
1, 1092553, Note_on_c, 0, 74, 115
1, 1092851, Note_off_c, 0, 74, 115
1, 1092949, Note_on_c, 0, 72, 115
1, 1093510, Note_off_c, 0, 72, 115
1, 1094013, Note_on_c, 0, 78, 109
1, 1094351, Note_off_c, 0, 78, 109
1, 1094457, Note_on_c, 0, 79, 110
1, 1095336, Note_off_c, 0, 79, 110
1, 1098132, Note_on_c, 0, 80, 113
1, 1099173, Note_off_c, 0, 80, 113
1, 1099451, Note_on_c, 0, 73, 115
1, 1099906, Note_off_c, 0, 73, 115
1, 1101933, Note_on_c, 0, 78, 111
1, 1102403, Note_off_c, 0, 78, 111
1, 1102564, Note_on_c, 0, 77, 114
1, 1103064, Note_off_c, 0, 77, 114
1, 1103200, Note_on_c, 0, 76, 119
1, 1103639, Note_off_c, 0, 76, 119
1, 1103821, Note_on_c, 0, 73, 115
1, 1104266, Note_off_c, 0, 73, 115
1, 1104412, Note_on_c, 0, 72, 114
1, 1104943, Note_off_c, 0, 72, 114
1, 1105064, Note_on_c, 0, 71, 108
1, 1105610, Note_off_c, 0, 71, 108
1, 1105812, Note_on_c, 0, 70, 113
1, 1106186, Note_off_c, 0, 70, 113
1, 1106345, Note_on_c, 0, 69, 114
1, 1106977, Note_off_c, 0, 69, 114
1, 1107006, Note_on_c, 0, 68, 114
1, 1107374, Note_off_c, 0, 68, 114
1, 1107554, Note_on_c, 0, 66, 114
1, 1108075, Note_off_c, 0, 66, 114
1, 1108223, Note_on_c, 0, 65, 117
1, 1108690, Note_off_c, 0, 65, 117
1, 1108855, Note_on_c, 0, 66, 111
1, 1109390, Note_off_c, 0, 66, 111
1, 1109574, Note_on_c, 0, 69, 118
1, 1110016, Note_off_c, 0, 69, 118
1, 1110220, Note_on_c, 0, 66, 110
1, 1110715, Note_off_c, 0, 66, 110
1, 1110765, Note_on_c, 0, 65, 110
1, 1111215, Note_off_c, 0, 65, 110
1, 1111341, Note_on_c, 0, 64, 114
1, 1111831, Note_off_c, 0, 64, 114
1, 1111972, Note_on_c, 0, 63, 113
1, 1112487, Note_off_c, 0, 63, 113
1, 1112689, Note_on_c, 0, 61, 104
1, 1113209, Note_off_c, 0, 61, 104
1, 1113320, Note_on_c, 0, 57, 101
1, 1113810, Note_off_c, 0, 57, 101
1, 1113951, Note_on_c, 0, 54, 119
1, 1114643, Note_off_c, 0, 54, 119
1, 1114754, Note_on_c, 0, 51, 117
1, 1115214, Note_off_c, 0, 51, 117
1, 1115320, Note_on_c, 0, 49, 9
1, 1115886, Note_off_c, 0, 49, 9
1, 1116069, Note_on_c, 0, 50, 9
1, 1116691, Note_off_c, 0, 50, 9
1, 1119873, Note_on_c, 0, 48, 112
1, 1120369, Note_off_c, 0, 48, 112
1, 1120951, Note_on_c, 0, 50, 115
1, 1121699, Note_off_c, 0, 50, 115
1, 1121770, Note_on_c, 0, 52, 114
1, 1122124, Note_off_c, 0, 52, 114
1, 1124927, Note_on_c, 0, 52, 31
1, 1125732, Note_off_c, 0, 52, 31
1, 1126854, Note_on_c, 0, 54, 109
1, 1127846, Note_off_c, 0, 54, 109
1, 1128694, Note_on_c, 0, 52, 9
1, 1129154, Note_off_c, 0, 52, 9
1, 1129945, Note_on_c, 0, 50, 9
1, 1131095, Note_off_c, 0, 50, 9
1, 1131095, Note_on_c, 0, 48, 107
1, 1131886, Note_off_c, 0, 48, 107
1, 1134532, Note_on_c, 0, 50, 114
1, 1134977, Note_off_c, 0, 50, 114
1, 1137026, Note_on_c, 0, 52, 111
1, 1137961, Note_off_c, 0, 52, 111
1, 1138083, Note_on_c, 0, 54, 115
1, 1139240, Note_off_c, 0, 54, 115
1, 1139362, Note_on_c, 0, 55, 118
1, 1140419, Note_off_c, 0, 55, 118
1, 1140526, Note_on_c, 0, 57, 118
1, 1141576, Note_off_c, 0, 57, 118
1, 1141791, Note_on_c, 0, 59, 119
1, 1143042, Note_off_c, 0, 59, 119
1, 1143185, Note_on_c, 0, 60, 9
1, 1144314, Note_off_c, 0, 60, 9
1, 1144465, Note_on_c, 0, 56, 9
1, 1145587, Note_off_c, 0, 56, 9
1, 1145831, Note_on_c, 0, 59, 99
1, 1147147, Note_off_c, 0, 59, 99
1, 1147283, Note_on_c, 0, 57, 104
1, 1148225, Note_off_c, 0, 57, 104
1, 1148354, Note_on_c, 0, 56, 112
1, 1149497, Note_off_c, 0, 56, 112
1, 1149568, Note_on_c, 0, 57, 115
1, 1150690, Note_off_c, 0, 57, 115
1, 1150819, Note_on_c, 0, 55, 116
1, 1152056, Note_off_c, 0, 55, 116
1, 1152099, Note_on_c, 0, 54, 114
1, 1153350, Note_off_c, 0, 54, 114
1, 1153421, Note_on_c, 0, 52, 117
1, 1154852, Note_off_c, 0, 52, 117
1, 1154909, Note_on_c, 0, 50, 119
1, 1155570, Note_off_c, 0, 50, 119
1, 1158547, Note_on_c, 0, 71, 111
1, 1158956, Note_off_c, 0, 71, 111
1, 1159006, Note_on_c, 0, 72, 112
1, 1160279, Note_off_c, 0, 72, 112
1, 1160422, Note_on_c, 0, 71, 112
1, 1161486, Note_off_c, 0, 71, 112
1, 1163672, Note_on_c, 0, 71, 9
1, 1165390, Note_off_c, 0, 71, 9
1, 1165483, Note_on_c, 0, 69, 9
1, 1166403, Note_off_c, 0, 69, 9
1, 1168611, Note_on_c, 0, 69, 117
1, 1170430, Note_off_c, 0, 69, 117
1, 1170487, Note_on_c, 0, 67, 117
1, 1171479, Note_off_c, 0, 67, 117
1, 1173488, Note_on_c, 0, 67, 97
1, 1175490, Note_off_c, 0, 67, 97
1, 1178595, Note_on_c, 0, 66, 97
1, 1180112, Note_off_c, 0, 66, 97
1, 1180283, Note_on_c, 0, 67, 117
1, 1180596, Note_off_c, 0, 67, 117
1, 1180625, Note_on_c, 0, 64, 113
1, 1181545, Note_off_c, 0, 64, 113
1, 1183427, Note_on_c, 0, 64, 113
1, 1185313, Note_off_c, 0, 64, 113
1, 1185313, Note_on_c, 0, 62, 112
1, 1185859, Note_off_c, 0, 62, 112
1, 1187377, Note_on_c, 0, 62, 9
1, 1187952, Note_off_c, 0, 62, 9
1, 1188009, Note_on_c, 0, 64, 88
1, 1188613, Note_off_c, 0, 64, 88
1, 1188692, Note_on_c, 0, 67, 113
1, 1189231, Note_off_c, 0, 67, 113
1, 1189324, Note_on_c, 0, 66, 106
1, 1189762, Note_off_c, 0, 66, 106
1, 1189866, Note_on_c, 0, 67, 111
1, 1190305, Note_off_c, 0, 67, 111
1, 1190451, Note_on_c, 0, 69, 117
1, 1190850, Note_off_c, 0, 69, 117
1, 1190971, Note_on_c, 0, 71, 112
1, 1191340, Note_off_c, 0, 71, 112
1, 1191724, Note_on_c, 0, 72, 113
1, 1192153, Note_off_c, 0, 72, 113
1, 1192153, End_track
0, 0, End_of_file
