0, 0, Header, 1, 1, -10096
1, 0, Start_track
1, 0, Title_t, "Melody"
1, 0, Tempo, 1153846
1, 0, Key_signature, -1, "major"
1, 0, Time_signature, 4, 2, 24, 8
1, 485084, Note_on_c, 0, 53, 82
1, 491778, Note_off_c, 0, 53, 82
1, 493242, Note_on_c, 0, 55, 80
1, 503004, Note_off_c, 0, 55, 80
1, 504405, Note_on_c, 0, 56, 84
1, 506856, Note_off_c, 0, 56, 84
1, 507297, Note_on_c, 0, 57, 84
1, 519750, Note_off_c, 0, 57, 84
1, 520644, Note_on_c, 0, 60, 93
1, 532498, Note_off_c, 0, 60, 93
1, 533195, Note_on_c, 0, 62, 90
1, 551045, Note_off_c, 0, 62, 90
1, 553276, Note_on_c, 0, 65, 78
1, 559691, Note_off_c, 0, 65, 78
1, 563874, Note_on_c, 0, 68, 92
1, 566523, Note_off_c, 0, 68, 92
1, 567359, Note_on_c, 0, 69, 85
1, 580747, Note_off_c, 0, 69, 85
1, 581444, Note_on_c, 0, 72, 85
1, 591903, Note_off_c, 0, 72, 85
1, 592181, Note_on_c, 0, 71, 92
1, 638063, Note_off_c, 0, 71, 92
1, 641270, Note_on_c, 0, 67, 88
1, 649637, Note_off_c, 0, 67, 88
1, 650055, Note_on_c, 0, 71, 96
1, 655912, Note_off_c, 0, 71, 96
1, 656888, Note_on_c, 0, 67, 87
1, 664418, Note_off_c, 0, 67, 87
1, 695726, Note_on_c, 0, 67, 97
1, 705557, Note_off_c, 0, 67, 97
1, 706184, Note_on_c, 0, 69, 103
1, 710228, Note_off_c, 0, 69, 103
1, 711901, Note_on_c, 0, 71, 111
1, 724731, Note_off_c, 0, 71, 111
1, 725567, Note_on_c, 0, 67, 91
1, 732539, Note_off_c, 0, 67, 91
1, 733724, Note_on_c, 0, 69, 89
1, 736443, Note_off_c, 0, 69, 89
1, 736582, Note_on_c, 0, 71, 104
1, 745089, Note_off_c, 0, 71, 104
1, 745298, Note_on_c, 0, 67, 79
1, 752131, Note_off_c, 0, 67, 79
1, 753316, Note_on_c, 0, 69, 105
1, 757569, Note_off_c, 0, 69, 105
1, 758684, Note_on_c, 0, 71, 99
1, 767051, Note_off_c, 0, 71, 99
1, 810841, Note_on_c, 0, 67, 101
1, 817674, Note_off_c, 0, 67, 101
1, 820532, Note_on_c, 0, 69, 107
1, 823111, Note_off_c, 0, 69, 107
1, 824505, Note_on_c, 0, 71, 111
1, 839148, Note_off_c, 0, 71, 111
1, 839566, Note_on_c, 0, 67, 85
1, 846678, Note_off_c, 0, 67, 85
1, 847026, Note_on_c, 0, 72, 101
1, 866480, Note_off_c, 0, 72, 101
1, 867665, Note_on_c, 0, 74, 90
1, 875893, Note_off_c, 0, 74, 90
1, 876171, Note_on_c, 0, 69, 107
1, 881261, Note_off_c, 0, 69, 107
1, 881679, Note_on_c, 0, 71, 111
1, 885304, Note_off_c, 0, 71, 111
1, 886280, Note_on_c, 0, 67, 106
1, 892974, Note_off_c, 0, 67, 106
1, 931795, Note_on_c, 0, 70, 93
1, 936876, Note_off_c, 0, 70, 93
1, 937041, Note_on_c, 0, 72, 101
1, 953497, Note_off_c, 0, 72, 101
1, 954612, Note_on_c, 0, 68, 90
1, 961375, Note_off_c, 0, 68, 90
1, 962490, Note_on_c, 0, 73, 94
1, 970229, Note_off_c, 0, 73, 94
1, 971832, Note_on_c, 0, 75, 90
1, 980757, Note_off_c, 0, 75, 90
1, 984173, Note_on_c, 0, 72, 100
1, 993935, Note_off_c, 0, 72, 100
1, 1012306, Note_on_c, 0, 68, 94
1, 1021091, Note_off_c, 0, 68, 94
1, 1023568, Note_on_c, 0, 65, 88
1, 1037723, Note_off_c, 0, 65, 88
1, 1041906, Note_on_c, 0, 65, 82
1, 1079769, Note_off_c, 0, 65, 82
1, 1081721, Note_on_c, 0, 62, 88
1, 1089391, Note_off_c, 0, 62, 88
1, 1089948, Note_on_c, 0, 60, 84
1, 1095665, Note_off_c, 0, 60, 84
1, 1099639, Note_on_c, 0, 67, 94
1, 1102149, Note_off_c, 0, 67, 94
1, 1103125, Note_on_c, 0, 69, 89
1, 1111283, Note_off_c, 0, 69, 89
1, 1127041, Note_on_c, 0, 60, 89
1, 1135687, Note_off_c, 0, 60, 89
1, 1154235, Note_on_c, 0, 60, 93
1, 1174944, Note_off_c, 0, 60, 93
1, 1183211, Note_on_c, 0, 62, 88
1, 1203018, Note_off_c, 0, 62, 88
1, 1208901, Note_on_c, 0, 65, 89
1, 1216571, Note_off_c, 0, 65, 89
1, 1220545, Note_on_c, 0, 68, 81
1, 1223473, Note_off_c, 0, 68, 81
1, 1223612, Note_on_c, 0, 69, 88
1, 1235884, Note_off_c, 0, 69, 88
1, 1268566, Note_on_c, 0, 70, 102
1, 1280001, Note_off_c, 0, 70, 102
1, 1282671, Note_on_c, 0, 69, 99
1, 1293897, Note_off_c, 0, 69, 99
1, 1299684, Note_on_c, 0, 65, 101
1, 1306099, Note_off_c, 0, 65, 101
1, 1311468, Note_on_c, 0, 60, 93
1, 1324786, Note_off_c, 0, 60, 93
1, 1329178, Note_on_c, 0, 53, 85
1, 1337266, Note_off_c, 0, 53, 85
1, 1338939, Note_on_c, 0, 58, 91
1, 1367039, Note_off_c, 0, 58, 91
1, 1368333, Note_on_c, 0, 57, 90
1, 1386277, Note_off_c, 0, 57, 90
1, 1387190, Note_on_c, 0, 55, 83
1, 1414155, Note_off_c, 0, 55, 83
1, 1471562, Note_on_c, 0, 57, 100
1, 1481184, Note_off_c, 0, 57, 100
1, 1482020, Note_on_c, 0, 61, 110
1, 1491015, Note_off_c, 0, 61, 110
1, 1491433, Note_on_c, 0, 64, 117
1, 1500497, Note_off_c, 0, 64, 117
1, 1501333, Note_on_c, 0, 68, 106
1, 1509909, Note_off_c, 0, 68, 106
1, 1510466, Note_on_c, 0, 69, 100
1, 1520018, Note_off_c, 0, 69, 100
1, 1520715, Note_on_c, 0, 68, 90
1, 1529222, Note_off_c, 0, 68, 90
1, 1529989, Note_on_c, 0, 69, 98
1, 1538844, Note_off_c, 0, 69, 98
1, 1539471, Note_on_c, 0, 67, 99
1, 1549023, Note_off_c, 0, 67, 99
1, 1549441, Note_on_c, 0, 66, 87
1, 1556413, Note_off_c, 0, 66, 87
1, 1557249, Note_on_c, 0, 67, 94
1, 1567150, Note_off_c, 0, 67, 94
1, 1567638, Note_on_c, 0, 65, 96
1, 1578167, Note_off_c, 0, 65, 96
1, 1578794, Note_on_c, 0, 64, 99
1, 1587510, Note_off_c, 0, 64, 99
1, 1587649, Note_on_c, 0, 65, 93
1, 1596783, Note_off_c, 0, 65, 93
1, 1597759, Note_on_c, 0, 67, 99
1, 1607311, Note_off_c, 0, 67, 99
1, 1607799, Note_on_c, 0, 66, 80
1, 1614632, Note_off_c, 0, 66, 80
1, 1615538, Note_on_c, 0, 67, 92
1, 1633528, Note_off_c, 0, 67, 92
1, 1635550, Note_on_c, 0, 65, 88
1, 1651657, Note_off_c, 0, 65, 88
1, 1653465, Note_on_c, 0, 64, 92
1, 1669990, Note_off_c, 0, 64, 92
1, 1672434, Note_on_c, 0, 63, 99
1, 1689796, Note_off_c, 0, 63, 99
1, 1690632, Note_on_c, 0, 64, 95
1, 1715037, Note_off_c, 0, 64, 95
1, 1715664, Note_on_c, 0, 65, 88
1, 1723403, Note_off_c, 0, 65, 88
1, 1724170, Note_on_c, 0, 64, 87
1, 1734908, Note_off_c, 0, 64, 87
1, 1735535, Note_on_c, 0, 65, 84
1, 1747877, Note_off_c, 0, 65, 84
1, 1748574, Note_on_c, 0, 64, 96
1, 1758754, Note_off_c, 0, 64, 96
1, 1759172, Note_on_c, 0, 60, 89
1, 1766005, Note_off_c, 0, 60, 89
1, 1766772, Note_on_c, 0, 57, 84
1, 1794315, Note_off_c, 0, 57, 84
1, 1794315, Note_on_c, 0, 57, 80
1, 1794316, Note_off_c, 0, 57, 80
1, 1854491, Note_on_c, 0, 69, 103
1, 1862091, Note_off_c, 0, 69, 103
1, 1862369, Note_on_c, 0, 71, 108
1, 1868505, Note_off_c, 0, 71, 108
1, 1869272, Note_on_c, 0, 74, 97
1, 1874013, Note_off_c, 0, 74, 97
1, 1874501, Note_on_c, 0, 71, 98
1, 1880428, Note_off_c, 0, 71, 98
1, 1882240, Note_on_c, 0, 65, 94
1, 1888864, Note_off_c, 0, 65, 94
1, 1889700, Note_on_c, 0, 66, 96
1, 1895905, Note_off_c, 0, 66, 96
1, 1897020, Note_on_c, 0, 71, 97
1, 1904341, Note_off_c, 0, 71, 97
1, 1906990, Note_on_c, 0, 68, 103
1, 1913614, Note_off_c, 0, 68, 103
1, 1917518, Note_on_c, 0, 69, 97
1, 1924072, Note_off_c, 0, 69, 97
1, 1924490, Note_on_c, 0, 72, 87
1, 1930626, Note_off_c, 0, 72, 87
1, 1931253, Note_on_c, 0, 75, 81
1, 1937180, Note_off_c, 0, 75, 81
1, 1940459, Note_on_c, 0, 79, 92
1, 1946979, Note_off_c, 0, 79, 92
1, 1948195, Note_on_c, 0, 78, 94
1, 1954331, Note_off_c, 0, 78, 94
1, 1955167, Note_on_c, 0, 77, 88
1, 1960745, Note_off_c, 0, 77, 88
1, 1961651, Note_on_c, 0, 76, 92
1, 1968066, Note_off_c, 0, 76, 92
1, 1968344, Note_on_c, 0, 75, 94
1, 1974271, Note_off_c, 0, 75, 94
1, 1975316, Note_on_c, 0, 71, 86
1, 1977895, Note_off_c, 0, 71, 86
1, 1978662, Note_on_c, 0, 70, 88
1, 1980823, Note_off_c, 0, 70, 88
1, 1981590, Note_on_c, 0, 66, 99
1, 1987865, Note_off_c, 0, 66, 99
1, 1988422, Note_on_c, 0, 63, 99
1, 1994906, Note_off_c, 0, 63, 99
1, 1995463, Note_on_c, 0, 61, 96
1, 2001738, Note_off_c, 0, 61, 96
1, 2002295, Note_on_c, 0, 62, 88
1, 2007036, Note_off_c, 0, 62, 88
1, 2007036, Note_on_c, 0, 65, 87
1, 2012893, Note_off_c, 0, 65, 87
1, 2013171, Note_on_c, 0, 69, 92
1, 2020771, Note_off_c, 0, 69, 92
1, 2021747, Note_on_c, 0, 70, 85
1, 2025930, Note_off_c, 0, 70, 85
1, 2026139, Note_on_c, 0, 72, 92
1, 2039736, Note_off_c, 0, 72, 92
1, 2040363, Note_on_c, 0, 76, 89
1, 2049846, Note_off_c, 0, 76, 89
1, 2050613, Note_on_c, 0, 79, 92
1, 2079829, Note_off_c, 0, 79, 92
1, 2096494, Note_on_c, 0, 84, 89
1, 2107929, Note_off_c, 0, 84, 89
1, 2110299, Note_on_c, 0, 81, 88
1, 2156111, Note_off_c, 0, 81, 88
1, 2202202, Note_on_c, 0, 86, 84
1, 2208896, Note_off_c, 0, 86, 84
1, 2209523, Note_on_c, 0, 84, 92
1, 2216565, Note_off_c, 0, 84, 92
1, 2217262, Note_on_c, 0, 83, 71
1, 2219981, Note_off_c, 0, 83, 71
1, 2220329, Note_on_c, 0, 82, 95
1, 2224373, Note_off_c, 0, 82, 95
1, 2225000, Note_on_c, 0, 81, 87
1, 2230508, Note_off_c, 0, 81, 87
1, 2230926, Note_on_c, 0, 79, 95
1, 2237898, Note_off_c, 0, 79, 95
1, 2238455, Note_on_c, 0, 77, 80
1, 2245776, Note_off_c, 0, 77, 80
1, 2246333, Note_on_c, 0, 76, 91
1, 2253236, Note_off_c, 0, 76, 91
1, 2253863, Note_on_c, 0, 74, 88
1, 2259580, Note_off_c, 0, 74, 88
1, 2260277, Note_on_c, 0, 76, 91
1, 2267947, Note_off_c, 0, 76, 91
1, 2268225, Note_on_c, 0, 77, 85
1, 2272339, Note_off_c, 0, 77, 85
1, 2273245, Note_on_c, 0, 79, 93
1, 2280008, Note_off_c, 0, 79, 93
1, 2283145, Note_on_c, 0, 74, 98
1, 2287956, Note_off_c, 0, 74, 98
1, 2288513, Note_on_c, 0, 75, 100
1, 2292348, Note_off_c, 0, 75, 100
1, 2293045, Note_on_c, 0, 76, 94
1, 2296043, Note_off_c, 0, 76, 94
1, 2296043, Note_on_c, 0, 72, 93
1, 2303294, Note_off_c, 0, 72, 93
1, 2303782, Note_on_c, 0, 69, 84
1, 2308802, Note_off_c, 0, 69, 84
1, 2309290, Note_on_c, 0, 70, 95
1, 2315984, Note_off_c, 0, 70, 95
1, 2316472, Note_on_c, 0, 72, 99
1, 2324630, Note_off_c, 0, 72, 99
1, 2325048, Note_on_c, 0, 73, 85
1, 2329719, Note_off_c, 0, 73, 85
1, 2330276, Note_on_c, 0, 75, 95
1, 2335854, Note_off_c, 0, 75, 95
1, 2336063, Note_on_c, 0, 76, 92
1, 2342757, Note_off_c, 0, 76, 92
1, 2343105, Note_on_c, 0, 78, 91
1, 2349032, Note_off_c, 0, 78, 91
1, 2349659, Note_on_c, 0, 79, 96
1, 2356701, Note_off_c, 0, 79, 96
1, 2357537, Note_on_c, 0, 81, 87
1, 2363254, Note_off_c, 0, 81, 87
1, 2363672, Note_on_c, 0, 78, 92
1, 2368692, Note_off_c, 0, 78, 92
1, 2369598, Note_on_c, 0, 79, 93
1, 2376710, Note_off_c, 0, 79, 93
1, 2378941, Note_on_c, 0, 84, 84
1, 2385704, Note_off_c, 0, 84, 84
1, 2387586, Note_on_c, 0, 61, 82
1, 2394628, Note_off_c, 0, 61, 82
1, 2400206, Note_on_c, 0, 79, 84
1, 2407039, Note_off_c, 0, 79, 84
1, 2408782, Note_on_c, 0, 77, 72
1, 2413105, Note_off_c, 0, 77, 72
1, 2413662, Note_on_c, 0, 79, 93
1, 2421611, Note_off_c, 0, 79, 93
1, 2421959, Note_on_c, 0, 81, 93
1, 2431372, Note_off_c, 0, 81, 93
1, 2434928, Note_on_c, 0, 77, 80
1, 2440715, Note_off_c, 0, 77, 80
1, 2441133, Note_on_c, 0, 76, 85
1, 2446990, Note_off_c, 0, 76, 85
1, 2447757, Note_on_c, 0, 79, 100
1, 2457519, Note_off_c, 0, 79, 100
1, 2463934, Note_on_c, 0, 76, 83
1, 2469093, Note_off_c, 0, 76, 83
1, 2469441, Note_on_c, 0, 74, 85
1, 2475995, Note_off_c, 0, 74, 85
1, 2476901, Note_on_c, 0, 76, 93
1, 2482758, Note_off_c, 0, 76, 93
1, 2483664, Note_on_c, 0, 77, 87
1, 2491403, Note_off_c, 0, 77, 87
1, 2491612, Note_on_c, 0, 74, 84
1, 2499840, Note_off_c, 0, 74, 84
1, 2505488, Note_on_c, 0, 76, 93
1, 2514413, Note_off_c, 0, 76, 93
1, 2544884, Note_on_c, 0, 73, 88
1, 2552623, Note_off_c, 0, 73, 88
1, 2552762, Note_on_c, 0, 70, 90
1, 2557991, Note_off_c, 0, 70, 90
1, 2558827, Note_on_c, 0, 74, 96
1, 2561685, Note_off_c, 0, 74, 96
1, 2561963, Note_on_c, 0, 75, 98
1, 2572004, Note_off_c, 0, 75, 98
1, 2572701, Note_on_c, 0, 71, 95
1, 2579464, Note_off_c, 0, 71, 95
1, 2580300, Note_on_c, 0, 68, 80
1, 2586017, Note_off_c, 0, 68, 80
1, 2586505, Note_on_c, 0, 73, 84
1, 2593617, Note_off_c, 0, 73, 84
1, 2594035, Note_on_c, 0, 69, 86
1, 2599962, Note_off_c, 0, 69, 86
1, 2600101, Note_on_c, 0, 66, 88
1, 2607422, Note_off_c, 0, 66, 88
1, 2607631, Note_on_c, 0, 69, 93
1, 2610420, Note_off_c, 0, 69, 93
1, 2610698, Note_on_c, 0, 71, 92
1, 2616415, Note_off_c, 0, 71, 92
1, 2618018, Note_on_c, 0, 68, 91
1, 2623526, Note_off_c, 0, 68, 91
1, 2624293, Note_on_c, 0, 64, 90
1, 2629731, Note_off_c, 0, 64, 90
1, 2630916, Note_on_c, 0, 70, 91
1, 2636773, Note_off_c, 0, 70, 91
1, 2638725, Note_on_c, 0, 66, 85
1, 2646953, Note_off_c, 0, 66, 85
1, 2648277, Note_on_c, 0, 61, 81
1, 2651135, Note_off_c, 0, 61, 81
1, 2652250, Note_on_c, 0, 68, 90
1, 2659780, Note_off_c, 0, 68, 90
1, 2662150, Note_on_c, 0, 64, 72
1, 2665497, Note_off_c, 0, 64, 72
1, 2665775, Note_on_c, 0, 66, 84
1, 2671144, Note_off_c, 0, 66, 84
1, 2672050, Note_on_c, 0, 71, 85
1, 2679650, Note_off_c, 0, 71, 85
1, 2680556, Note_on_c, 0, 68, 77
1, 2687947, Note_off_c, 0, 68, 77
1, 2688644, Note_on_c, 0, 69, 72
1, 2691223, Note_off_c, 0, 69, 72
1, 2691641, Note_on_c, 0, 72, 81
1, 2697568, Note_off_c, 0, 72, 81
1, 2697986, Note_on_c, 0, 76, 74
1, 2704819, Note_off_c, 0, 76, 74
1, 2706004, Note_on_c, 0, 80, 84
1, 2719182, Note_off_c, 0, 80, 84
1, 2720925, Note_on_c, 0, 78, 78
1, 2728246, Note_off_c, 0, 78, 78
1, 2729013, Note_on_c, 0, 75, 82
1, 2734591, Note_off_c, 0, 75, 82
1, 2735009, Note_on_c, 0, 71, 84
1, 2740238, Note_off_c, 0, 71, 84
1, 2741214, Note_on_c, 0, 66, 81
1, 2745955, Note_off_c, 0, 66, 81
1, 2747837, Note_on_c, 0, 68, 92
1, 2753764, Note_off_c, 0, 68, 92
1, 2754600, Note_on_c, 0, 73, 84
1, 2759341, Note_off_c, 0, 73, 84
1, 2761223, Note_on_c, 0, 63, 87
1, 2768544, Note_off_c, 0, 63, 87
1, 2769520, Note_on_c, 0, 66, 90
1, 2777748, Note_off_c, 0, 66, 90
1, 2782838, Note_on_c, 0, 59, 81
1, 2790577, Note_off_c, 0, 59, 81
1, 2794900, Note_on_c, 0, 63, 90
1, 2806265, Note_off_c, 0, 63, 90
1, 2807032, Note_on_c, 0, 60, 90
1, 2813168, Note_off_c, 0, 60, 90
1, 2813377, Note_on_c, 0, 56, 93
1, 2820489, Note_off_c, 0, 56, 93
1, 2821674, Note_on_c, 0, 51, 84
1, 2825509, Note_off_c, 0, 51, 84
1, 2826345, Note_on_c, 0, 58, 84
1, 2839872, Note_off_c, 0, 58, 84
1, 2840917, Note_on_c, 0, 60, 89
1, 2848517, Note_off_c, 0, 60, 89
1, 2868668, Note_on_c, 0, 62, 95
1, 2876617, Note_off_c, 0, 62, 95
1, 2895927, Note_on_c, 0, 65, 83
1, 2911685, Note_off_c, 0, 65, 83
1, 2913362, Note_on_c, 0, 60, 84
1, 2939510, Note_off_c, 0, 60, 84
1, 2941671, Note_on_c, 0, 58, 83
1, 2946900, Note_off_c, 0, 58, 83
1, 2948015, Note_on_c, 0, 57, 80
1, 2957498, Note_off_c, 0, 57, 80
1, 2980996, Note_on_c, 0, 62, 97
1, 2990479, Note_off_c, 0, 62, 97
1, 2992152, Note_on_c, 0, 62, 9
1, 3002750, Note_off_c, 0, 62, 9
1, 3003656, Note_on_c, 0, 62, 107
1, 3012372, Note_off_c, 0, 62, 107
1, 3014115, Note_on_c, 0, 62, 102
1, 3021994, Note_off_c, 0, 62, 102
1, 3022551, Note_on_c, 0, 65, 86
1, 3028756, Note_off_c, 0, 65, 86
1, 3033079, Note_on_c, 0, 60, 94
1, 3049814, Note_off_c, 0, 60, 94
1, 3051208, Note_on_c, 0, 58, 86
1, 3057344, Note_off_c, 0, 58, 86
1, 3058389, Note_on_c, 0, 57, 87
1, 3063967, Note_off_c, 0, 57, 87
1, 3092765, Note_on_c, 0, 65, 98
1, 3096460, Note_off_c, 0, 65, 98
1, 3097366, Note_on_c, 0, 67, 98
1, 3119888, Note_off_c, 0, 67, 98
1, 3121631, Note_on_c, 0, 64, 103
1, 3127767, Note_off_c, 0, 64, 103
1, 3127836, Note_on_c, 0, 65, 95
1, 3133484, Note_off_c, 0, 65, 95
1, 3135785, Note_on_c, 0, 62, 96
1, 3140108, Note_off_c, 0, 62, 96
1, 3141014, Note_on_c, 0, 65, 85
1, 3146731, Note_off_c, 0, 65, 85
1, 3150705, Note_on_c, 0, 60, 93
1, 3162001, Note_off_c, 0, 60, 93
1, 3162489, Note_on_c, 0, 58, 89
1, 3168276, Note_off_c, 0, 58, 89
1, 3169600, Note_on_c, 0, 57, 91
1, 3175317, Note_off_c, 0, 57, 91
1, 3176990, Note_on_c, 0, 55, 86
1, 3184032, Note_off_c, 0, 55, 86
1, 3205648, Note_on_c, 0, 57, 95
1, 3216386, Note_off_c, 0, 57, 95
1, 3216874, Note_on_c, 0, 58, 88
1, 3224892, Note_off_c, 0, 58, 88
1, 3225380, Note_on_c, 0, 60, 96
1, 3234026, Note_off_c, 0, 60, 96
1, 3234793, Note_on_c, 0, 61, 104
1, 3242672, Note_off_c, 0, 61, 104
1, 3243369, Note_on_c, 0, 64, 112
1, 3252503, Note_off_c, 0, 64, 112
1, 3253339, Note_on_c, 0, 67, 97
1, 3260590, Note_off_c, 0, 67, 97
1, 3260868, Note_on_c, 0, 69, 99
1, 3269514, Note_off_c, 0, 69, 99
1, 3270629, Note_on_c, 0, 70, 101
1, 3283040, Note_off_c, 0, 70, 101
1, 3284085, Note_on_c, 0, 72, 95
1, 3294056, Note_off_c, 0, 72, 95
1, 3294613, Note_on_c, 0, 73, 94
1, 3306188, Note_off_c, 0, 73, 94
1, 3307164, Note_on_c, 0, 74, 94
1, 3320273, Note_off_c, 0, 74, 94
1, 3320970, Note_on_c, 0, 69, 99
1, 3331499, Note_off_c, 0, 69, 99
1, 3335055, Note_on_c, 0, 69, 95
1, 3341191, Note_off_c, 0, 69, 95
1, 3347327, Note_on_c, 0, 69, 92
1, 3389862, Note_off_c, 0, 69, 92
1, 3446761, Note_on_c, 0, 69, 93
1, 3451014, Note_off_c, 0, 69, 93
1, 3451223, Note_on_c, 0, 70, 97
1, 3454639, Note_off_c, 0, 70, 97
1, 3455406, Note_on_c, 0, 71, 93
1, 3477370, Note_off_c, 0, 71, 93
1, 3478276, Note_on_c, 0, 69, 93
1, 3483017, Note_off_c, 0, 69, 93
1, 3483156, Note_on_c, 0, 67, 91
1, 3485526, Note_off_c, 0, 67, 91
1, 3485874, Note_on_c, 0, 64, 92
1, 3491382, Note_off_c, 0, 64, 92
1, 3491382, Note_on_c, 0, 60, 92
1, 3495496, Note_off_c, 0, 60, 92
1, 3496053, Note_on_c, 0, 59, 86
1, 3502328, Note_off_c, 0, 59, 86
1, 3503652, Note_on_c, 0, 62, 97
1, 3510415, Note_off_c, 0, 62, 97
1, 3510833, Note_on_c, 0, 57, 91
1, 3518294, Note_off_c, 0, 57, 91
1, 3519758, Note_on_c, 0, 52, 82
1, 3525266, Note_off_c, 0, 52, 82
1, 3525266, Note_on_c, 0, 59, 85
1, 3528055, Note_off_c, 0, 59, 85
1, 3528194, Note_on_c, 0, 60, 87
1, 3531122, Note_off_c, 0, 60, 87
1, 3531749, Note_on_c, 0, 59, 88
1, 3535723, Note_off_c, 0, 59, 88
1, 3536211, Note_on_c, 0, 56, 90
1, 3541440, Note_off_c, 0, 56, 90
1, 3542137, Note_on_c, 0, 57, 97
1, 3547296, Note_off_c, 0, 57, 97
1, 3548341, Note_on_c, 0, 62, 94
1, 3554268, Note_off_c, 0, 62, 94
1, 3555941, Note_on_c, 0, 59, 86
1, 3559706, Note_off_c, 0, 59, 86
1, 3560891, Note_on_c, 0, 60, 92
1, 3565911, Note_off_c, 0, 60, 92
1, 3568769, Note_on_c, 0, 64, 91
1, 3570512, Note_off_c, 0, 64, 91
1, 3570512, Note_on_c, 0, 67, 82
1, 3573859, Note_off_c, 0, 67, 82
1, 3574556, Note_on_c, 0, 71, 83
1, 3578112, Note_off_c, 0, 71, 83
1, 3578390, Note_on_c, 0, 74, 89
1, 3586618, Note_off_c, 0, 74, 89
1, 3587245, Note_on_c, 0, 72, 95
1, 3592195, Note_off_c, 0, 72, 95
1, 3592195, Note_on_c, 0, 67, 83
1, 3599934, Note_off_c, 0, 67, 83
1, 3600282, Note_on_c, 0, 68, 78
1, 3605860, Note_off_c, 0, 68, 78
1, 3606208, Note_on_c, 0, 71, 88
1, 3612274, Note_off_c, 0, 71, 88
1, 3612552, Note_on_c, 0, 69, 88
1, 3619455, Note_off_c, 0, 69, 88
1, 3619664, Note_on_c, 0, 63, 86
1, 3627613, Note_off_c, 0, 63, 86
1, 3627961, Note_on_c, 0, 64, 78
1, 3631726, Note_off_c, 0, 64, 78
1, 3631865, Note_on_c, 0, 67, 88
1, 3640162, Note_off_c, 0, 67, 88
1, 3641068, Note_on_c, 0, 65, 78
1, 3646018, Note_off_c, 0, 65, 78
1, 3646506, Note_on_c, 0, 66, 94
1, 3651456, Note_off_c, 0, 66, 94
1, 3651874, Note_on_c, 0, 70, 96
1, 3658010, Note_off_c, 0, 70, 96
1, 3659334, Note_on_c, 0, 68, 89
1, 3665191, Note_off_c, 0, 68, 89
1, 3665888, Note_on_c, 0, 69, 85
1, 3669932, Note_off_c, 0, 69, 85
1, 3670699, Note_on_c, 0, 72, 92
1, 3675231, Note_off_c, 0, 72, 92
1, 3676067, Note_on_c, 0, 75, 81
1, 3682900, Note_off_c, 0, 75, 81
1, 3685479, Note_on_c, 0, 80, 64
1, 3687361, Note_off_c, 0, 80, 64
1, 3687988, Note_on_c, 0, 79, 89
1, 3693008, Note_off_c, 0, 79, 89
1, 3693286, Note_on_c, 0, 78, 90
1, 3699073, Note_off_c, 0, 78, 90
1, 3699700, Note_on_c, 0, 77, 79
1, 3705975, Note_off_c, 0, 77, 79
1, 3706393, Note_on_c, 0, 76, 90
1, 3714132, Note_off_c, 0, 76, 90
1, 3714550, Note_on_c, 0, 75, 91
1, 3718385, Note_off_c, 0, 75, 91
1, 3718873, Note_on_c, 0, 71, 80
1, 3725497, Note_off_c, 0, 71, 80
1, 3726473, Note_on_c, 0, 65, 80
1, 3731214, Note_off_c, 0, 65, 80
1, 3732120, Note_on_c, 0, 66, 84
1, 3738047, Note_off_c, 0, 66, 84
1, 3739999, Note_on_c, 0, 70, 92
1, 3748436, Note_off_c, 0, 70, 92
1, 3749272, Note_on_c, 0, 68, 80
1, 3753037, Note_off_c, 0, 68, 80
1, 3754082, Note_on_c, 0, 69, 85
1, 3760845, Note_off_c, 0, 69, 85
1, 3761472, Note_on_c, 0, 72, 84
1, 3768793, Note_off_c, 0, 72, 84
1, 3768932, Note_on_c, 0, 67, 92
1, 3783784, Note_off_c, 0, 67, 92
1, 3811675, Note_on_c, 0, 68, 83
1, 3818369, Note_off_c, 0, 68, 83
1, 3822343, Note_on_c, 0, 69, 100
1, 3838311, Note_off_c, 0, 69, 100
1, 3839103, Note_on_c, 0, 60, 80
1, 3844643, Note_off_c, 0, 60, 80
1, 3919894, Note_on_c, 0, 60, 84
1, 3925751, Note_off_c, 0, 60, 84
1, 3926378, Note_on_c, 0, 64, 97
1, 3935791, Note_off_c, 0, 64, 97
1, 3936139, Note_on_c, 0, 67, 94
1, 3944436, Note_off_c, 0, 67, 94
1, 3946109, Note_on_c, 0, 60, 72
1, 3951059, Note_off_c, 0, 60, 72
1, 3952941, Note_on_c, 0, 64, 88
1, 3961169, Note_off_c, 0, 64, 88
1, 3961657, Note_on_c, 0, 67, 95
1, 3970373, Note_off_c, 0, 67, 95
1, 3971000, Note_on_c, 0, 60, 85
1, 3978879, Note_off_c, 0, 60, 85
1, 3979715, Note_on_c, 0, 64, 95
1, 3987733, Note_off_c, 0, 64, 95
1, 3990034, Note_on_c, 0, 67, 101
1, 3998331, Note_off_c, 0, 67, 101
1, 3999865, Note_on_c, 0, 60, 88
1, 4006140, Note_off_c, 0, 60, 88
1, 4007464, Note_on_c, 0, 64, 95
1, 4014227, Note_off_c, 0, 64, 95
1, 4015133, Note_on_c, 0, 67, 95
1, 4023918, Note_off_c, 0, 67, 95
1, 4025033, Note_on_c, 0, 64, 93
1, 4032284, Note_off_c, 0, 64, 93
1, 4032841, Note_on_c, 0, 68, 99
1, 4041766, Note_off_c, 0, 68, 99
1, 4041975, Note_on_c, 0, 61, 81
1, 4051039, Note_off_c, 0, 61, 81
1, 4051806, Note_on_c, 0, 65, 84
1, 4058290, Note_off_c, 0, 65, 84
1, 4060033, Note_on_c, 0, 68, 102
1, 4069028, Note_off_c, 0, 68, 102
1, 4070004, Note_on_c, 0, 61, 90
1, 4076976, Note_off_c, 0, 61, 90
1, 4078161, Note_on_c, 0, 65, 87
1, 4085622, Note_off_c, 0, 65, 87
1, 4087644, Note_on_c, 0, 68, 98
1, 4095802, Note_off_c, 0, 68, 98
1, 4096499, Note_on_c, 0, 63, 91
1, 4103611, Note_off_c, 0, 63, 91
1, 4104587, Note_on_c, 0, 66, 95
1, 4113582, Note_off_c, 0, 66, 95
1, 4114209, Note_on_c, 0, 62, 90
1, 4122646, Note_off_c, 0, 62, 90
1, 4123761, Note_on_c, 0, 66, 95
1, 4131082, Note_off_c, 0, 66, 95
1, 4131918, Note_on_c, 0, 69, 92
1, 4140773, Note_off_c, 0, 69, 92
1, 4141818, Note_on_c, 0, 65, 84
1, 4150255, Note_off_c, 0, 65, 84
1, 4151858, Note_on_c, 0, 68, 98
1, 4160574, Note_off_c, 0, 68, 98
1, 4162596, Note_on_c, 0, 72, 98
1, 4180307, Note_off_c, 0, 72, 98
1, 4181283, Note_on_c, 0, 65, 81
1, 4188395, Note_off_c, 0, 65, 81
1, 4190207, Note_on_c, 0, 68, 86
1, 4197598, Note_off_c, 0, 68, 86
1, 4198365, Note_on_c, 0, 72, 94
1, 4209103, Note_off_c, 0, 72, 94
1, 4234414, Note_on_c, 0, 70, 99
1, 4244036, Note_off_c, 0, 70, 99
1, 4244454, Note_on_c, 0, 72, 96
1, 4251636, Note_off_c, 0, 72, 96
1, 4265791, Note_on_c, 0, 75, 99
1, 4274716, Note_off_c, 0, 75, 99
1, 4294100, Note_on_c, 0, 72, 94
1, 4298492, Note_off_c, 0, 72, 94
1, 4299468, Note_on_c, 0, 75, 86
1, 4321084, Note_off_c, 0, 75, 86
1, 4321432, Note_on_c, 0, 72, 96
1, 4347371, Note_off_c, 0, 72, 96
1, 4348486, Note_on_c, 0, 70, 88
1, 4367034, Note_off_c, 0, 70, 88
1, 4367661, Note_on_c, 0, 65, 82
1, 4395413, Note_off_c, 0, 65, 82
1, 4396040, Note_on_c, 0, 63, 93
1, 4420654, Note_off_c, 0, 63, 93
1, 4487106, Note_on_c, 0, 52, 95
1, 4497286, Note_off_c, 0, 52, 95
1, 4498192, Note_on_c, 0, 53, 88
1, 4504049, Note_off_c, 0, 53, 88
1, 4510115, Note_on_c, 0, 56, 99
1, 4515344, Note_off_c, 0, 56, 99
1, 4523572, Note_on_c, 0, 55, 95
1, 4528662, Note_off_c, 0, 55, 95
1, 4535774, Note_on_c, 0, 53, 87
1, 4543583, Note_off_c, 0, 53, 87
1, 4544001, Note_on_c, 0, 54, 90
1, 4549579, Note_off_c, 0, 54, 90
1, 4550694, Note_on_c, 0, 56, 87
1, 4557527, Note_off_c, 0, 56, 87
1, 4559618, Note_on_c, 0, 58, 83
1, 4563801, Note_off_c, 0, 58, 83
1, 4566520, Note_on_c, 0, 61, 90
1, 4570076, Note_off_c, 0, 61, 90
1, 4573213, Note_on_c, 0, 64, 113
1, 4581301, Note_off_c, 0, 64, 113
1, 4581649, Note_on_c, 0, 65, 89
1, 4586181, Note_off_c, 0, 65, 89
1, 4586599, Note_on_c, 0, 64, 111
1, 4594548, Note_off_c, 0, 64, 111
1, 4595733, Note_on_c, 0, 65, 78
1, 4601241, Note_off_c, 0, 65, 78
1, 4601798, Note_on_c, 0, 68, 91
1, 4608213, Note_off_c, 0, 68, 91
1, 4609328, Note_on_c, 0, 64, 100
1, 4624598, Note_off_c, 0, 64, 100
1, 4625295, Note_on_c, 0, 60, 85
1, 4630036, Note_off_c, 0, 60, 85
1, 4630942, Note_on_c, 0, 63, 101
1, 4638193, Note_off_c, 0, 63, 101
1, 4638332, Note_on_c, 0, 60, 98
1, 4643770, Note_off_c, 0, 60, 98
1, 4644676, Note_on_c, 0, 58, 88
1, 4650114, Note_off_c, 0, 58, 88
1, 4650881, Note_on_c, 0, 57, 94
1, 4655483, Note_off_c, 0, 57, 94
1, 4656528, Note_on_c, 0, 56, 90
1, 4662524, Note_off_c, 0, 56, 90
1, 4664127, Note_on_c, 0, 54, 90
1, 4670542, Note_off_c, 0, 54, 90
1, 4671727, Note_on_c, 0, 53, 82
1, 4676747, Note_off_c, 0, 53, 82
1, 4677653, Note_on_c, 0, 51, 86
1, 4683370, Note_off_c, 0, 51, 86
1, 4684346, Note_on_c, 0, 49, 88
1, 4690342, Note_off_c, 0, 49, 88
1, 4691109, Note_on_c, 0, 48, 90
1, 4696129, Note_off_c, 0, 48, 90
1, 4696547, Note_on_c, 0, 46, 93
1, 4701079, Note_off_c, 0, 46, 93
1, 4702822, Note_on_c, 0, 45, 93
1, 4711050, Note_off_c, 0, 45, 93
1, 4712723, Note_on_c, 0, 44, 113
1, 4724507, Note_off_c, 0, 44, 113
1, 4782312, Note_on_c, 0, 46, 97
1, 4791934, Note_off_c, 0, 46, 97
1, 4793956, Note_on_c, 0, 49, 92
1, 4811527, Note_off_c, 0, 49, 92
1, 4812084, Note_on_c, 0, 51, 92
1, 4834955, Note_off_c, 0, 51, 92
1, 4835861, Note_on_c, 0, 53, 83
1, 4855943, Note_off_c, 0, 53, 83
1, 4918211, Note_on_c, 0, 48, 95
1, 4927624, Note_off_c, 0, 48, 95
1, 4927868, Note_on_c, 0, 57, 96
1, 4929857, Note_off_c, 0, 57, 96
1, 4929994, Note_on_c, 0, 59, 92
1, 4942719, Note_off_c, 0, 59, 92
1, 4942963, Note_on_c, 0, 52, 89
1, 4951958, Note_off_c, 0, 52, 89
1, 4953352, Note_on_c, 0, 62, 102
1, 4971690, Note_off_c, 0, 62, 102
1, 4972178, Note_on_c, 0, 57, 86
1, 4979848, Note_off_c, 0, 57, 86
1, 4980405, Note_on_c, 0, 66, 91
1, 4998116, Note_off_c, 0, 66, 91
1, 5000277, Note_on_c, 0, 60, 77
1, 5005436, Note_off_c, 0, 60, 77
1, 5007527, Note_on_c, 0, 70, 93
1, 5011222, Note_off_c, 0, 70, 93
1, 5011570, Note_on_c, 0, 71, 94
1, 5028862, Note_off_c, 0, 71, 94
1, 5029838, Note_on_c, 0, 72, 94
1, 5063098, Note_off_c, 0, 72, 94
1, 5088270, Note_on_c, 0, 70, 99
1, 5104865, Note_off_c, 0, 70, 99
1, 5106050, Note_on_c, 0, 72, 94
1, 5116788, Note_off_c, 0, 72, 94
1, 5122930, Note_on_c, 0, 76, 100
1, 5129941, Note_off_c, 0, 76, 100
1, 5130593, Note_on_c, 0, 77, 93
1, 5141540, Note_off_c, 0, 77, 93
1, 5142446, Note_on_c, 0, 75, 99
1, 5158553, Note_off_c, 0, 75, 99
1, 5160296, Note_on_c, 0, 73, 88
1, 5185398, Note_off_c, 0, 73, 88
1, 5186234, Note_on_c, 0, 72, 93
1, 5210709, Note_off_c, 0, 72, 93
1, 5211894, Note_on_c, 0, 73, 90
1, 5238460, Note_off_c, 0, 73, 90
1, 5241279, Note_on_c, 0, 65, 88
1, 5266822, Note_off_c, 0, 65, 88
1, 5266977, Note_on_c, 0, 68, 101
1, 5294310, Note_off_c, 0, 68, 101
1, 5332242, Note_on_c, 0, 68, 96
1, 5340888, Note_off_c, 0, 68, 96
1, 5341724, Note_on_c, 0, 72, 99
1, 5348836, Note_off_c, 0, 72, 99
1, 5350300, Note_on_c, 0, 75, 101
1, 5358179, Note_off_c, 0, 75, 101
1, 5360846, Note_on_c, 0, 80, 95
1, 5369335, Note_off_c, 0, 80, 95
1, 5369474, Note_on_c, 0, 77, 90
1, 5377981, Note_off_c, 0, 77, 90
1, 5377981, Note_on_c, 0, 75, 97
1, 5388161, Note_off_c, 0, 75, 97
1, 5388788, Note_on_c, 0, 77, 94
1, 5397643, Note_off_c, 0, 77, 94
1, 5398131, Note_on_c, 0, 72, 91
1, 5406359, Note_off_c, 0, 72, 91
1, 5406777, Note_on_c, 0, 70, 94
1, 5414795, Note_off_c, 0, 70, 94
1, 5415631, Note_on_c, 0, 72, 92
1, 5424138, Note_off_c, 0, 72, 92
1, 5424905, Note_on_c, 0, 68, 104
1, 5432784, Note_off_c, 0, 68, 104
1, 5433969, Note_on_c, 0, 65, 92
1, 5442266, Note_off_c, 0, 65, 92
1, 5442684, Note_on_c, 0, 68, 95
1, 5450423, Note_off_c, 0, 68, 95
1, 5452240, Note_on_c, 0, 65, 96
1, 5462355, Note_off_c, 0, 65, 96
1, 5462726, Note_on_c, 0, 63, 97
1, 5471158, Note_off_c, 0, 63, 97
1, 5471653, Note_on_c, 0, 64, 94
1, 5475139, Note_off_c, 0, 64, 94
1, 5475487, Note_on_c, 0, 65, 87
1, 5503901, Note_off_c, 0, 65, 87
1, 5538905, Note_on_c, 0, 67, 92
1, 5543019, Note_off_c, 0, 67, 92
1, 5543995, Note_on_c, 0, 69, 101
1, 5563379, Note_off_c, 0, 69, 101
1, 5564076, Note_on_c, 0, 67, 92
1, 5567492, Note_off_c, 0, 67, 92
1, 5567910, Note_on_c, 0, 64, 111
1, 5571884, Note_off_c, 0, 64, 111
1, 5572790, Note_on_c, 0, 62, 108
1, 5579065, Note_off_c, 0, 62, 108
1, 5579692, Note_on_c, 0, 60, 78
1, 5615811, Note_off_c, 0, 60, 78
1, 5616508, Note_on_c, 0, 57, 91
1, 5623829, Note_off_c, 0, 57, 91
1, 5624596, Note_on_c, 0, 58, 92
1, 5632893, Note_off_c, 0, 58, 92
1, 5633869, Note_on_c, 0, 60, 80
1, 5668803, Note_off_c, 0, 60, 80
1, 5669570, Note_on_c, 0, 58, 84
1, 5675357, Note_off_c, 0, 58, 84
1, 5676263, Note_on_c, 0, 57, 82
1, 5682747, Note_off_c, 0, 57, 82
1, 5684141, Note_on_c, 0, 60, 71
1, 5722492, Note_off_c, 0, 60, 71
1, 5722492, End_track
0, 0, End_of_file
