0, 0, Header, 1, 1, 192
1, 0, Start_track
1, 0, Title_t, "Melody"
1, 0, Tempo, 244897
1, 0, Key_signature, -2, "major"
1, 0, Time_signature, 4, 2, 24, 8
1, 3915, Note_on_c, 0, 58, 93
1, 3991, Note_off_c, 0, 58, 93
1, 4102, Note_on_c, 0, 62, 104
1, 4172, Note_off_c, 0, 62, 104
1, 4308, Note_on_c, 0, 65, 106
1, 4386, Note_off_c, 0, 65, 106
1, 4767, Note_on_c, 0, 63, 103
1, 4869, Note_off_c, 0, 63, 103
1, 4970, Note_on_c, 0, 67, 107
1, 5042, Note_off_c, 0, 67, 107
1, 5174, Note_on_c, 0, 70, 101
1, 5261, Note_off_c, 0, 70, 101
1, 5939, Note_on_c, 0, 65, 99
1, 6043, Note_off_c, 0, 65, 99
1, 6066, Note_on_c, 0, 67, 96
1, 6120, Note_off_c, 0, 67, 96
1, 6320, Note_on_c, 0, 63, 102
1, 6446, Note_off_c, 0, 63, 102
1, 6452, Note_on_c, 0, 65, 104
1, 6508, Note_off_c, 0, 65, 104
1, 6714, Note_on_c, 0, 61, 98
1, 6837, Note_off_c, 0, 61, 98
1, 6840, Note_on_c, 0, 63, 95
1, 6904, Note_off_c, 0, 63, 95
1, 8038, Note_on_c, 0, 69, 104
1, 8131, Note_off_c, 0, 69, 104
1, 8138, Note_on_c, 0, 68, 105
1, 8207, Note_off_c, 0, 68, 105
1, 8214, Note_on_c, 0, 67, 102
1, 8262, Note_off_c, 0, 67, 102
1, 8266, Note_on_c, 0, 66, 102
1, 8312, Note_off_c, 0, 66, 102
1, 8346, Note_on_c, 0, 61, 103
1, 8426, Note_off_c, 0, 61, 103
1, 8443, Note_on_c, 0, 57, 95
1, 8548, Note_off_c, 0, 57, 95
1, 8549, Note_on_c, 0, 54, 95
1, 8648, Note_off_c, 0, 54, 95
1, 8658, Note_on_c, 0, 53, 80
1, 8928, Note_off_c, 0, 53, 80
1, 8962, Note_on_c, 0, 55, 98
1, 9085, Note_off_c, 0, 55, 98
1, 9425, Note_on_c, 0, 54, 105
1, 9474, Note_off_c, 0, 54, 105
1, 9477, Note_on_c, 0, 55, 99
1, 9572, Note_off_c, 0, 55, 99
1, 9594, Note_on_c, 0, 60, 97
1, 9691, Note_off_c, 0, 60, 97
1, 9723, Note_on_c, 0, 57, 96
1, 9838, Note_off_c, 0, 57, 96
1, 9878, Note_on_c, 0, 55, 98
1, 9948, Note_off_c, 0, 55, 98
1, 9987, Note_on_c, 0, 53, 101
1, 10144, Note_off_c, 0, 53, 101
1, 11313, Note_on_c, 0, 56, 103
1, 11430, Note_off_c, 0, 56, 103
1, 11440, Note_on_c, 0, 55, 95
1, 11499, Note_off_c, 0, 55, 95
1, 11500, Note_on_c, 0, 56, 105
1, 11584, Note_off_c, 0, 56, 105
1, 11589, Note_on_c, 0, 55, 103
1, 11654, Note_off_c, 0, 55, 103
1, 11657, Note_on_c, 0, 53, 101
1, 11772, Note_off_c, 0, 53, 101
1, 11776, Note_on_c, 0, 51, 101
1, 11884, Note_off_c, 0, 51, 101
1, 11889, Note_on_c, 0, 50, 96
1, 11981, Note_off_c, 0, 50, 96
1, 11985, Note_on_c, 0, 48, 100
1, 12080, Note_off_c, 0, 48, 100
1, 12083, Note_on_c, 0, 46, 105
1, 12139, Note_off_c, 0, 46, 105
1, 12142, Note_on_c, 0, 47, 94
1, 12257, Note_off_c, 0, 47, 94
1, 12341, Note_on_c, 0, 54, 98
1, 12370, Note_off_c, 0, 54, 98
1, 12381, Note_on_c, 0, 56, 103
1, 12474, Note_off_c, 0, 56, 103
1, 12477, Note_on_c, 0, 55, 100
1, 12555, Note_off_c, 0, 55, 100
1, 12558, Note_on_c, 0, 51, 102
1, 12653, Note_off_c, 0, 51, 102
1, 12661, Note_on_c, 0, 50, 92
1, 12736, Note_off_c, 0, 50, 92
1, 12838, Note_on_c, 0, 54, 99
1, 12927, Note_off_c, 0, 54, 99
1, 12934, Note_on_c, 0, 52, 94
1, 13001, Note_off_c, 0, 52, 94
1, 13007, Note_on_c, 0, 53, 95
1, 13121, Note_off_c, 0, 53, 95
1, 13125, Note_on_c, 0, 50, 104
1, 13195, Note_off_c, 0, 50, 104
1, 13203, Note_on_c, 0, 46, 99
1, 13366, Note_off_c, 0, 46, 99
1, 13383, Note_on_c, 0, 50, 95
1, 13517, Note_off_c, 0, 50, 95
1, 13520, Note_on_c, 0, 44, 103
1, 13756, Note_off_c, 0, 44, 103
1, 15242, Note_on_c, 0, 53, 94
1, 15318, Note_off_c, 0, 53, 94
1, 15326, Note_on_c, 0, 58, 93
1, 15405, Note_off_c, 0, 58, 93
1, 15415, Note_on_c, 0, 62, 100
1, 15502, Note_off_c, 0, 62, 100
1, 15511, Note_on_c, 0, 63, 105
1, 15612, Note_off_c, 0, 63, 105
1, 15614, Note_on_c, 0, 62, 97
1, 15676, Note_off_c, 0, 62, 97
1, 15681, Note_on_c, 0, 63, 104
1, 15776, Note_off_c, 0, 63, 104
1, 15792, Note_on_c, 0, 65, 102
1, 15870, Note_off_c, 0, 65, 102
1, 15874, Note_on_c, 0, 61, 97
1, 15925, Note_off_c, 0, 61, 97
1, 15929, Note_on_c, 0, 62, 102
1, 16021, Note_off_c, 0, 62, 102
1, 16200, Note_on_c, 0, 60, 104
1, 16298, Note_off_c, 0, 60, 104
1, 16399, Note_on_c, 0, 62, 101
1, 16490, Note_off_c, 0, 62, 101
1, 16549, Note_on_c, 0, 60, 86
1, 16605, Note_off_c, 0, 60, 86
1, 16628, Note_on_c, 0, 62, 101
1, 16828, Note_off_c, 0, 62, 101
1, 16831, Note_on_c, 0, 60, 99
1, 16960, Note_off_c, 0, 60, 99
1, 18305, Note_on_c, 0, 60, 102
1, 18381, Note_off_c, 0, 60, 102
1, 18390, Note_on_c, 0, 59, 95
1, 18459, Note_off_c, 0, 59, 95
1, 18470, Note_on_c, 0, 63, 104
1, 18562, Note_off_c, 0, 63, 104
1, 18565, Note_on_c, 0, 64, 99
1, 18668, Note_off_c, 0, 64, 99
1, 18677, Note_on_c, 0, 68, 109
1, 18727, Note_off_c, 0, 68, 109
1, 18742, Note_on_c, 0, 69, 99
1, 18862, Note_off_c, 0, 69, 99
1, 18868, Note_on_c, 0, 68, 108
1, 18929, Note_off_c, 0, 68, 108
1, 18939, Note_on_c, 0, 67, 99
1, 19026, Note_off_c, 0, 67, 99
1, 19033, Note_on_c, 0, 66, 105
1, 19096, Note_off_c, 0, 66, 105
1, 19101, Note_on_c, 0, 65, 101
1, 19209, Note_off_c, 0, 65, 101
1, 19213, Note_on_c, 0, 64, 107
1, 19307, Note_off_c, 0, 64, 107
1, 19315, Note_on_c, 0, 62, 101
1, 19392, Note_off_c, 0, 62, 101
1, 19396, Note_on_c, 0, 61, 104
1, 19493, Note_off_c, 0, 61, 104
1, 19505, Note_on_c, 0, 60, 103
1, 19585, Note_off_c, 0, 60, 103
1, 19597, Note_on_c, 0, 59, 97
1, 19686, Note_off_c, 0, 59, 97
1, 19693, Note_on_c, 0, 58, 95
1, 19770, Note_off_c, 0, 58, 95
1, 19782, Note_on_c, 0, 62, 102
1, 19866, Note_off_c, 0, 62, 102
1, 19873, Note_on_c, 0, 57, 96
1, 19974, Note_off_c, 0, 57, 96
1, 19981, Note_on_c, 0, 53, 88
1, 20027, Note_off_c, 0, 53, 88
1, 20047, Note_on_c, 0, 60, 102
1, 20153, Note_off_c, 0, 60, 102
1, 20159, Note_on_c, 0, 57, 101
1, 20210, Note_off_c, 0, 57, 101
1, 20219, Note_on_c, 0, 58, 90
1, 20282, Note_off_c, 0, 58, 90
1, 20291, Note_on_c, 0, 62, 81
1, 20358, Note_off_c, 0, 62, 81
1, 20358, Note_on_c, 0, 66, 80
1, 20430, Note_off_c, 0, 66, 80
1, 20451, Note_on_c, 0, 69, 105
1, 20545, Note_off_c, 0, 69, 105
1, 20558, Note_on_c, 0, 66, 85
1, 20597, Note_off_c, 0, 66, 85
1, 20620, Note_on_c, 0, 67, 104
1, 20703, Note_off_c, 0, 67, 104
1, 20710, Note_on_c, 0, 69, 102
1, 20794, Note_off_c, 0, 69, 102
1, 20800, Note_on_c, 0, 70, 100
1, 20867, Note_off_c, 0, 70, 100
1, 20875, Note_on_c, 0, 72, 98
1, 20947, Note_off_c, 0, 72, 98
1, 20950, Note_on_c, 0, 70, 97
1, 21011, Note_off_c, 0, 70, 97
1, 21018, Note_on_c, 0, 69, 98
1, 21105, Note_off_c, 0, 69, 98
1, 21111, Note_on_c, 0, 68, 109
1, 21157, Note_off_c, 0, 68, 109
1, 21164, Note_on_c, 0, 67, 100
1, 21266, Note_off_c, 0, 67, 100
1, 21282, Note_on_c, 0, 63, 101
1, 21370, Note_off_c, 0, 63, 101
1, 21377, Note_on_c, 0, 59, 92
1, 21473, Note_off_c, 0, 59, 92
1, 21481, Note_on_c, 0, 56, 89
1, 21544, Note_off_c, 0, 56, 89
1, 21556, Note_on_c, 0, 65, 99
1, 21608, Note_off_c, 0, 65, 99
1, 21618, Note_on_c, 0, 64, 110
1, 21668, Note_off_c, 0, 64, 110
1, 21678, Note_on_c, 0, 61, 96
1, 21747, Note_off_c, 0, 61, 96
1, 21755, Note_on_c, 0, 57, 100
1, 21877, Note_off_c, 0, 57, 100
1, 21897, Note_on_c, 0, 55, 88
1, 21937, Note_off_c, 0, 55, 88
1, 21947, Note_on_c, 0, 56, 96
1, 22249, Note_off_c, 0, 56, 96
1, 22251, Note_on_c, 0, 54, 96
1, 22302, Note_off_c, 0, 54, 96
1, 22310, Note_on_c, 0, 53, 91
1, 22414, Note_off_c, 0, 53, 91
1, 22426, Note_on_c, 0, 51, 98
1, 22510, Note_off_c, 0, 51, 98
1, 22514, Note_on_c, 0, 50, 96
1, 22636, Note_off_c, 0, 50, 96
1, 22640, Note_on_c, 0, 48, 96
1, 22719, Note_off_c, 0, 48, 96
1, 22726, Note_on_c, 0, 47, 94
1, 22782, Note_off_c, 0, 47, 94
1, 22797, Note_on_c, 0, 58, 97
1, 22872, Note_off_c, 0, 58, 97
1, 22878, Note_on_c, 0, 55, 93
1, 23025, Note_off_c, 0, 55, 93
1, 23949, Note_on_c, 0, 52, 93
1, 23993, Note_off_c, 0, 52, 93
1, 23994, Note_on_c, 0, 53, 98
1, 24046, Note_off_c, 0, 53, 98
1, 24059, Note_on_c, 0, 57, 91
1, 24116, Note_off_c, 0, 57, 91
1, 24136, Note_on_c, 0, 60, 89
1, 24222, Note_off_c, 0, 60, 89
1, 24231, Note_on_c, 0, 64, 107
1, 24315, Note_off_c, 0, 64, 107
1, 24322, Note_on_c, 0, 61, 102
1, 24398, Note_off_c, 0, 61, 102
1, 24407, Note_on_c, 0, 56, 98
1, 24491, Note_off_c, 0, 56, 98
1, 24498, Note_on_c, 0, 52, 96
1, 24574, Note_off_c, 0, 52, 96
1, 24583, Note_on_c, 0, 51, 98
1, 24670, Note_off_c, 0, 51, 98
1, 24693, Note_on_c, 0, 53, 93
1, 24794, Note_off_c, 0, 53, 93
1, 24794, Note_on_c, 0, 55, 92
1, 24904, Note_off_c, 0, 55, 92
1, 24909, Note_on_c, 0, 58, 89
1, 24975, Note_off_c, 0, 58, 89
1, 24992, Note_on_c, 0, 66, 103
1, 25076, Note_off_c, 0, 66, 103
1, 25079, Note_on_c, 0, 61, 104
1, 25187, Note_off_c, 0, 61, 104
1, 25197, Note_on_c, 0, 57, 94
1, 25318, Note_off_c, 0, 57, 94
1, 25325, Note_on_c, 0, 54, 94
1, 25356, Note_off_c, 0, 54, 94
1, 25372, Note_on_c, 0, 56, 97
1, 25465, Note_off_c, 0, 56, 97
1, 25475, Note_on_c, 0, 60, 101
1, 25548, Note_off_c, 0, 60, 101
1, 25564, Note_on_c, 0, 63, 92
1, 25656, Note_off_c, 0, 63, 92
1, 25662, Note_on_c, 0, 67, 100
1, 25762, Note_off_c, 0, 67, 100
1, 25763, Note_on_c, 0, 70, 104
1, 25833, Note_off_c, 0, 70, 104
1, 25847, Note_on_c, 0, 62, 100
1, 25951, Note_off_c, 0, 62, 100
1, 25952, Note_on_c, 0, 66, 96
1, 26029, Note_off_c, 0, 66, 96
1, 26034, Note_on_c, 0, 69, 102
1, 26121, Note_off_c, 0, 69, 102
1, 26128, Note_on_c, 0, 73, 98
1, 26239, Note_off_c, 0, 73, 98
1, 26242, Note_on_c, 0, 61, 92
1, 26314, Note_off_c, 0, 61, 92
1, 26319, Note_on_c, 0, 64, 106
1, 26406, Note_off_c, 0, 64, 106
1, 26418, Note_on_c, 0, 68, 107
1, 26478, Note_off_c, 0, 68, 107
1, 26492, Note_on_c, 0, 71, 102
1, 26607, Note_off_c, 0, 71, 102
1, 26619, Note_on_c, 0, 68, 93
1, 26686, Note_off_c, 0, 68, 93
1, 26691, Note_on_c, 0, 70, 97
1, 26794, Note_off_c, 0, 70, 97
1, 26794, Note_on_c, 0, 66, 98
1, 26898, Note_off_c, 0, 66, 98
1, 26904, Note_on_c, 0, 63, 101
1, 27000, Note_off_c, 0, 63, 101
1, 27014, Note_on_c, 0, 60, 97
1, 27085, Note_off_c, 0, 60, 97
1, 27089, Note_on_c, 0, 65, 97
1, 27173, Note_off_c, 0, 65, 97
1, 27180, Note_on_c, 0, 69, 101
1, 27280, Note_off_c, 0, 69, 101
1, 27288, Note_on_c, 0, 68, 103
1, 27376, Note_off_c, 0, 68, 103
1, 27376, Note_on_c, 0, 64, 109
1, 27457, Note_off_c, 0, 64, 109
1, 27473, Note_on_c, 0, 59, 94
1, 27579, Note_off_c, 0, 59, 94
1, 27592, Note_on_c, 0, 56, 95
1, 27646, Note_off_c, 0, 56, 95
1, 27653, Note_on_c, 0, 58, 96
1, 27730, Note_off_c, 0, 58, 96
1, 27746, Note_on_c, 0, 55, 92
1, 27812, Note_off_c, 0, 55, 92
1, 27827, Note_on_c, 0, 56, 97
1, 27946, Note_off_c, 0, 56, 97
1, 27953, Note_on_c, 0, 57, 98
1, 28052, Note_off_c, 0, 57, 98
1, 28056, Note_on_c, 0, 61, 93
1, 28131, Note_off_c, 0, 61, 93
1, 28137, Note_on_c, 0, 64, 91
1, 28202, Note_off_c, 0, 64, 91
1, 28206, Note_on_c, 0, 68, 108
1, 28262, Note_off_c, 0, 68, 108
1, 28269, Note_on_c, 0, 67, 97
1, 28313, Note_off_c, 0, 67, 97
1, 28324, Note_on_c, 0, 66, 98
1, 28404, Note_off_c, 0, 66, 98
1, 28408, Note_on_c, 0, 65, 99
1, 28499, Note_off_c, 0, 65, 99
1, 28503, Note_on_c, 0, 63, 101
1, 28581, Note_off_c, 0, 63, 101
1, 28589, Note_on_c, 0, 62, 100
1, 28685, Note_off_c, 0, 62, 100
1, 28687, Note_on_c, 0, 60, 101
1, 28791, Note_off_c, 0, 60, 101
1, 28795, Note_on_c, 0, 58, 92
1, 28857, Note_off_c, 0, 58, 92
1, 28863, Note_on_c, 0, 60, 96
1, 28971, Note_off_c, 0, 60, 96
1, 28980, Note_on_c, 0, 62, 102
1, 29048, Note_off_c, 0, 62, 102
1, 29055, Note_on_c, 0, 67, 98
1, 29151, Note_off_c, 0, 67, 98
1, 29171, Note_on_c, 0, 60, 97
1, 29255, Note_off_c, 0, 60, 97
1, 29260, Note_on_c, 0, 62, 105
1, 29327, Note_off_c, 0, 62, 105
1, 29342, Note_on_c, 0, 63, 99
1, 29460, Note_off_c, 0, 63, 99
1, 29462, Note_on_c, 0, 67, 80
1, 29508, Note_off_c, 0, 67, 80
1, 29532, Note_on_c, 0, 72, 97
1, 29643, Note_off_c, 0, 72, 97
1, 29644, Note_on_c, 0, 65, 100
1, 29794, Note_off_c, 0, 65, 100
1, 30812, Note_on_c, 0, 74, 96
1, 30854, Note_off_c, 0, 74, 96
1, 30862, Note_on_c, 0, 72, 101
1, 30926, Note_off_c, 0, 72, 101
1, 30937, Note_on_c, 0, 67, 93
1, 31013, Note_off_c, 0, 67, 93
1, 31016, Note_on_c, 0, 70, 104
1, 31074, Note_off_c, 0, 70, 104
1, 31079, Note_on_c, 0, 69, 98
1, 31183, Note_off_c, 0, 69, 98
1, 31187, Note_on_c, 0, 66, 101
1, 31256, Note_off_c, 0, 66, 101
1, 31267, Note_on_c, 0, 65, 103
1, 31371, Note_off_c, 0, 65, 103
1, 31382, Note_on_c, 0, 63, 104
1, 31454, Note_off_c, 0, 63, 104
1, 31461, Note_on_c, 0, 62, 99
1, 31551, Note_off_c, 0, 62, 99
1, 31559, Note_on_c, 0, 64, 110
1, 31630, Note_off_c, 0, 64, 110
1, 31637, Note_on_c, 0, 66, 86
1, 31713, Note_off_c, 0, 66, 86
1, 31732, Note_on_c, 0, 69, 97
1, 31796, Note_off_c, 0, 69, 97
1, 31828, Note_on_c, 0, 76, 102
1, 31915, Note_off_c, 0, 76, 102
1, 31919, Note_on_c, 0, 74, 97
1, 32029, Note_off_c, 0, 74, 97
1, 32611, Note_on_c, 0, 77, 91
1, 32699, Note_off_c, 0, 77, 91
1, 32700, Note_on_c, 0, 76, 106
1, 32804, Note_off_c, 0, 76, 106
1, 32812, Note_on_c, 0, 75, 100
1, 32896, Note_off_c, 0, 75, 100
1, 32902, Note_on_c, 0, 74, 95
1, 32981, Note_off_c, 0, 74, 95
1, 32990, Note_on_c, 0, 73, 100
1, 33100, Note_off_c, 0, 73, 100
1, 33108, Note_on_c, 0, 69, 103
1, 33199, Note_off_c, 0, 69, 103
1, 33199, Note_on_c, 0, 66, 96
1, 33293, Note_off_c, 0, 66, 96
1, 33300, Note_on_c, 0, 64, 82
1, 33353, Note_off_c, 0, 64, 82
1, 33383, Note_on_c, 0, 71, 107
1, 33435, Note_off_c, 0, 71, 107
1, 33441, Note_on_c, 0, 73, 100
1, 33516, Note_off_c, 0, 73, 100
1, 33518, Note_on_c, 0, 71, 100
1, 33582, Note_off_c, 0, 71, 100
1, 33595, Note_on_c, 0, 67, 90
1, 33681, Note_off_c, 0, 67, 90
1, 33685, Note_on_c, 0, 71, 104
1, 33767, Note_off_c, 0, 71, 104
1, 33775, Note_on_c, 0, 70, 97
1, 33859, Note_off_c, 0, 70, 97
1, 33872, Note_on_c, 0, 67, 104
1, 33940, Note_off_c, 0, 67, 104
1, 33943, Note_on_c, 0, 63, 102
1, 34053, Note_off_c, 0, 63, 102
1, 34134, Note_on_c, 0, 69, 106
1, 34190, Note_off_c, 0, 69, 106
1, 34193, Note_on_c, 0, 71, 101
1, 34257, Note_off_c, 0, 71, 101
1, 34260, Note_on_c, 0, 69, 102
1, 34310, Note_off_c, 0, 69, 102
1, 34318, Note_on_c, 0, 66, 95
1, 34394, Note_off_c, 0, 66, 95
1, 34398, Note_on_c, 0, 69, 104
1, 34522, Note_off_c, 0, 69, 104
1, 34533, Note_on_c, 0, 68, 105
1, 34608, Note_off_c, 0, 68, 105
1, 34625, Note_on_c, 0, 65, 94
1, 34690, Note_off_c, 0, 65, 94
1, 34882, Note_on_c, 0, 67, 102
1, 34973, Note_off_c, 0, 67, 102
1, 35274, Note_on_c, 0, 67, 104
1, 35359, Note_off_c, 0, 67, 104
1, 35363, Note_on_c, 0, 69, 102
1, 35472, Note_off_c, 0, 69, 102
1, 35476, Note_on_c, 0, 70, 99
1, 35525, Note_off_c, 0, 70, 99
1, 35539, Note_on_c, 0, 72, 98
1, 35639, Note_off_c, 0, 72, 98
1, 35649, Note_on_c, 0, 68, 100
1, 35722, Note_off_c, 0, 68, 100
1, 35728, Note_on_c, 0, 69, 98
1, 35824, Note_off_c, 0, 69, 98
1, 35827, Note_on_c, 0, 65, 96
1, 35919, Note_off_c, 0, 65, 96
1, 35932, Note_on_c, 0, 72, 95
1, 35985, Note_off_c, 0, 72, 95
1, 35997, Note_on_c, 0, 74, 100
1, 36169, Note_off_c, 0, 74, 100
1, 36219, Note_on_c, 0, 65, 88
1, 36309, Note_off_c, 0, 65, 88
1, 36406, Note_on_c, 0, 67, 100
1, 36610, Note_off_c, 0, 67, 100
1, 38188, Note_on_c, 0, 65, 96
1, 38237, Note_off_c, 0, 65, 96
1, 38304, Note_on_c, 0, 68, 103
1, 38428, Note_off_c, 0, 68, 103
1, 38436, Note_on_c, 0, 65, 105
1, 38652, Note_off_c, 0, 65, 105
1, 39243, Note_on_c, 0, 69, 99
1, 39295, Note_off_c, 0, 69, 99
1, 39309, Note_on_c, 0, 72, 99
1, 39597, Note_off_c, 0, 72, 99
1, 39673, Note_on_c, 0, 68, 85
1, 39729, Note_off_c, 0, 68, 85
1, 39757, Note_on_c, 0, 65, 83
1, 39820, Note_off_c, 0, 65, 83
1, 39836, Note_on_c, 0, 68, 104
1, 40007, Note_off_c, 0, 68, 104
1, 40013, Note_on_c, 0, 65, 90
1, 40132, Note_off_c, 0, 65, 90
1, 40147, Note_on_c, 0, 62, 101
1, 40385, Note_off_c, 0, 62, 101
1, 41067, Note_on_c, 0, 76, 107
1, 41167, Note_off_c, 0, 76, 107
1, 41264, Note_on_c, 0, 79, 109
1, 41352, Note_off_c, 0, 79, 109
1, 41360, Note_on_c, 0, 80, 85
1, 41387, Note_off_c, 0, 80, 85
1, 41392, Note_on_c, 0, 76, 92
1, 41465, Note_off_c, 0, 76, 92
1, 41469, Note_on_c, 0, 72, 95
1, 41537, Note_off_c, 0, 72, 95
1, 41545, Note_on_c, 0, 68, 104
1, 41632, Note_off_c, 0, 68, 104
1, 41744, Note_on_c, 0, 69, 98
1, 41805, Note_off_c, 0, 69, 98
1, 41808, Note_on_c, 0, 70, 102
1, 41861, Note_off_c, 0, 70, 102
1, 41869, Note_on_c, 0, 72, 96
1, 41924, Note_off_c, 0, 72, 96
1, 41934, Note_on_c, 0, 74, 95
1, 42037, Note_off_c, 0, 74, 95
1, 42037, Note_on_c, 0, 73, 101
1, 42080, Note_off_c, 0, 73, 101
1, 42081, Note_on_c, 0, 72, 101
1, 42167, Note_off_c, 0, 72, 101
1, 42169, Note_on_c, 0, 71, 96
1, 42229, Note_off_c, 0, 71, 96
1, 42230, Note_on_c, 0, 70, 104
1, 42314, Note_off_c, 0, 70, 104
1, 42315, Note_on_c, 0, 69, 104
1, 42427, Note_off_c, 0, 69, 104
1, 42438, Note_on_c, 0, 68, 108
1, 42547, Note_off_c, 0, 68, 108
1, 42556, Note_on_c, 0, 67, 98
1, 42598, Note_off_c, 0, 67, 98
1, 42607, Note_on_c, 0, 66, 97
1, 42707, Note_off_c, 0, 66, 97
1, 42709, Note_on_c, 0, 65, 96
1, 42794, Note_off_c, 0, 65, 96
1, 42797, Note_on_c, 0, 69, 104
1, 42862, Note_off_c, 0, 69, 104
1, 42869, Note_on_c, 0, 64, 104
1, 43003, Note_off_c, 0, 64, 104
1, 43008, Note_on_c, 0, 61, 90
1, 43067, Note_off_c, 0, 61, 90
1, 43071, Note_on_c, 0, 62, 102
1, 43136, Note_off_c, 0, 62, 102
1, 43150, Note_on_c, 0, 64, 110
1, 43240, Note_off_c, 0, 64, 110
1, 43253, Note_on_c, 0, 65, 102
1, 43340, Note_off_c, 0, 65, 102
1, 43344, Note_on_c, 0, 67, 102
1, 43467, Note_off_c, 0, 67, 102
1, 43470, Note_on_c, 0, 68, 102
1, 43562, Note_off_c, 0, 68, 102
1, 43569, Note_on_c, 0, 67, 103
1, 43616, Note_off_c, 0, 67, 103
1, 43623, Note_on_c, 0, 68, 105
1, 43676, Note_off_c, 0, 68, 105
1, 43678, Note_on_c, 0, 67, 100
1, 43739, Note_off_c, 0, 67, 100
1, 43745, Note_on_c, 0, 62, 103
1, 43829, Note_off_c, 0, 62, 103
1, 43835, Note_on_c, 0, 58, 93
1, 43928, Note_off_c, 0, 58, 93
1, 43954, Note_on_c, 0, 55, 82
1, 44015, Note_off_c, 0, 55, 82
1, 44027, Note_on_c, 0, 60, 105
1, 44135, Note_off_c, 0, 60, 105
1, 44141, Note_on_c, 0, 57, 93
1, 44186, Note_off_c, 0, 57, 93
1, 44199, Note_on_c, 0, 58, 88
1, 44311, Note_off_c, 0, 58, 88
1, 44313, Note_on_c, 0, 62, 92
1, 44341, Note_off_c, 0, 62, 92
1, 44344, Note_on_c, 0, 66, 86
1, 44392, Note_off_c, 0, 66, 86
1, 44404, Note_on_c, 0, 69, 100
1, 44513, Note_off_c, 0, 69, 100
1, 44523, Note_on_c, 0, 72, 101
1, 44583, Note_off_c, 0, 72, 101
1, 44717, Note_on_c, 0, 66, 101
1, 44797, Note_off_c, 0, 66, 101
1, 45383, Note_on_c, 0, 67, 93
1, 45423, Note_off_c, 0, 67, 93
1, 45428, Note_on_c, 0, 71, 97
1, 45476, Note_off_c, 0, 71, 97
1, 45487, Note_on_c, 0, 74, 100
1, 45584, Note_off_c, 0, 74, 100
1, 45592, Note_on_c, 0, 73, 104
1, 45644, Note_off_c, 0, 73, 104
1, 45660, Note_on_c, 0, 69, 102
1, 45753, Note_off_c, 0, 69, 102
1, 45761, Note_on_c, 0, 66, 94
1, 45796, Note_off_c, 0, 66, 94
1, 45809, Note_on_c, 0, 68, 106
1, 45847, Note_off_c, 0, 68, 106
1, 45857, Note_on_c, 0, 71, 99
1, 45936, Note_off_c, 0, 71, 99
1, 45954, Note_on_c, 0, 64, 99
1, 46042, Note_off_c, 0, 64, 99
1, 46047, Note_on_c, 0, 66, 94
1, 46118, Note_off_c, 0, 66, 94
1, 46149, Note_on_c, 0, 69, 100
1, 46245, Note_off_c, 0, 69, 100
1, 46250, Note_on_c, 0, 68, 102
1, 46305, Note_off_c, 0, 68, 102
1, 46309, Note_on_c, 0, 63, 100
1, 46389, Note_off_c, 0, 63, 100
1, 46393, Note_on_c, 0, 64, 96
1, 46438, Note_off_c, 0, 64, 96
1, 46446, Note_on_c, 0, 67, 101
1, 46530, Note_off_c, 0, 67, 101
1, 46544, Note_on_c, 0, 66, 93
1, 46639, Note_off_c, 0, 66, 93
1, 46644, Note_on_c, 0, 64, 99
1, 46709, Note_off_c, 0, 64, 99
1, 46719, Note_on_c, 0, 65, 103
1, 46815, Note_off_c, 0, 65, 103
1, 46820, Note_on_c, 0, 63, 99
1, 46921, Note_off_c, 0, 63, 99
1, 46932, Note_on_c, 0, 62, 99
1, 47004, Note_off_c, 0, 62, 99
1, 47012, Note_on_c, 0, 60, 103
1, 47092, Note_off_c, 0, 60, 103
1, 47105, Note_on_c, 0, 59, 91
1, 47186, Note_off_c, 0, 59, 91
1, 47192, Note_on_c, 0, 68, 108
1, 47242, Note_off_c, 0, 68, 108
1, 47254, Note_on_c, 0, 70, 98
1, 47308, Note_off_c, 0, 70, 98
1, 47312, Note_on_c, 0, 67, 101
1, 47387, Note_off_c, 0, 67, 101
1, 47392, Note_on_c, 0, 62, 37
1, 47450, Note_off_c, 0, 62, 37
1, 47454, Note_on_c, 0, 65, 99
1, 47571, Note_off_c, 0, 65, 99
1, 47572, Note_on_c, 0, 63, 97
1, 47696, Note_off_c, 0, 63, 97
1, 47697, Note_on_c, 0, 58, 90
1, 47801, Note_off_c, 0, 58, 90
1, 47863, Note_on_c, 0, 62, 102
1, 47978, Note_off_c, 0, 62, 102
1, 47978, Note_on_c, 0, 62, 80
1, 47978, Note_off_c, 0, 62, 80
1, 48065, Note_on_c, 0, 57, 92
1, 48149, Note_off_c, 0, 57, 92
1, 48162, Note_on_c, 0, 60, 100
1, 48254, Note_off_c, 0, 60, 100
1, 48350, Note_on_c, 0, 58, 90
1, 48438, Note_off_c, 0, 58, 90
1, 48566, Note_on_c, 0, 53, 84
1, 48596, Note_off_c, 0, 53, 84
1, 48602, Note_on_c, 0, 57, 93
1, 48723, Note_off_c, 0, 57, 93
1, 48739, Note_on_c, 0, 55, 91
1, 48814, Note_off_c, 0, 55, 91
1, 49711, Note_on_c, 0, 52, 102
1, 49783, Note_off_c, 0, 52, 102
1, 49785, Note_on_c, 0, 54, 97
1, 49840, Note_off_c, 0, 54, 97
1, 49856, Note_on_c, 0, 56, 100
1, 49969, Note_off_c, 0, 56, 100
1, 49978, Note_on_c, 0, 57, 97
1, 50072, Note_off_c, 0, 57, 97
1, 50076, Note_on_c, 0, 59, 93
1, 50156, Note_off_c, 0, 59, 93
1, 50164, Note_on_c, 0, 61, 98
1, 50231, Note_off_c, 0, 61, 98
1, 50236, Note_on_c, 0, 63, 104
1, 50333, Note_off_c, 0, 63, 104
1, 50341, Note_on_c, 0, 64, 100
1, 50421, Note_off_c, 0, 64, 100
1, 50433, Note_on_c, 0, 66, 100
1, 50489, Note_off_c, 0, 66, 100
1, 50500, Note_on_c, 0, 67, 97
1, 50599, Note_off_c, 0, 67, 97
1, 50617, Note_on_c, 0, 63, 98
1, 50709, Note_off_c, 0, 63, 98
1, 50717, Note_on_c, 0, 58, 92
1, 50809, Note_off_c, 0, 58, 92
1, 50817, Note_on_c, 0, 54, 88
1, 50889, Note_off_c, 0, 54, 88
1, 50902, Note_on_c, 0, 61, 102
1, 50989, Note_off_c, 0, 61, 102
1, 50997, Note_on_c, 0, 60, 100
1, 51085, Note_off_c, 0, 60, 100
1, 51085, Note_on_c, 0, 59, 93
1, 51160, Note_off_c, 0, 59, 93
1, 51162, Note_on_c, 0, 57, 99
1, 51245, Note_off_c, 0, 57, 99
1, 51251, Note_on_c, 0, 56, 99
1, 51344, Note_off_c, 0, 56, 99
1, 51353, Note_on_c, 0, 54, 99
1, 51429, Note_off_c, 0, 54, 99
1, 51441, Note_on_c, 0, 53, 98
1, 51519, Note_off_c, 0, 53, 98
1, 51525, Note_on_c, 0, 52, 102
1, 51618, Note_off_c, 0, 52, 102
1, 51634, Note_on_c, 0, 51, 100
1, 51699, Note_off_c, 0, 51, 100
1, 51707, Note_on_c, 0, 52, 100
1, 51807, Note_off_c, 0, 52, 100
1, 51827, Note_on_c, 0, 54, 94
1, 51896, Note_off_c, 0, 54, 94
1, 51904, Note_on_c, 0, 56, 102
1, 51984, Note_off_c, 0, 56, 102
1, 51997, Note_on_c, 0, 57, 97
1, 52090, Note_off_c, 0, 57, 97
1, 52099, Note_on_c, 0, 55, 95
1, 52171, Note_off_c, 0, 55, 95
1, 52179, Note_on_c, 0, 56, 97
1, 52278, Note_off_c, 0, 56, 97
1, 52283, Note_on_c, 0, 58, 90
1, 52354, Note_off_c, 0, 58, 90
1, 52357, Note_on_c, 0, 59, 94
1, 52425, Note_off_c, 0, 59, 94
1, 52440, Note_on_c, 0, 61, 96
1, 52535, Note_off_c, 0, 61, 96
1, 52536, Note_on_c, 0, 63, 97
1, 52641, Note_off_c, 0, 63, 97
1, 52642, Note_on_c, 0, 64, 102
1, 52737, Note_off_c, 0, 64, 102
1, 52752, Note_on_c, 0, 66, 95
1, 52822, Note_off_c, 0, 66, 95
1, 52832, Note_on_c, 0, 68, 95
1, 52949, Note_off_c, 0, 68, 95
1, 52959, Note_on_c, 0, 69, 91
1, 53031, Note_off_c, 0, 69, 91
1, 53039, Note_on_c, 0, 71, 91
1, 53128, Note_off_c, 0, 71, 91
1, 53133, Note_on_c, 0, 73, 87
1, 53276, Note_off_c, 0, 73, 87
1, 53287, Note_on_c, 0, 65, 86
1, 53379, Note_off_c, 0, 65, 86
1, 53388, Note_on_c, 0, 66, 89
1, 53483, Note_off_c, 0, 66, 89
1, 53497, Note_on_c, 0, 70, 99
1, 53563, Note_off_c, 0, 70, 99
1, 53576, Note_on_c, 0, 67, 92
1, 53681, Note_off_c, 0, 67, 92
1, 53688, Note_on_c, 0, 68, 91
1, 53772, Note_off_c, 0, 68, 91
1, 53776, Note_on_c, 0, 69, 104
1, 53848, Note_off_c, 0, 69, 104
1, 53991, Note_on_c, 0, 64, 92
1, 54026, Note_off_c, 0, 64, 92
1, 54061, Note_on_c, 0, 68, 104
1, 54137, Note_off_c, 0, 68, 104
1, 54170, Note_on_c, 0, 66, 102
1, 54234, Note_off_c, 0, 66, 102
1, 54238, Note_on_c, 0, 65, 97
1, 54335, Note_off_c, 0, 65, 97
1, 54343, Note_on_c, 0, 63, 98
1, 54435, Note_off_c, 0, 63, 98
1, 54442, Note_on_c, 0, 62, 94
1, 54539, Note_off_c, 0, 62, 94
1, 54551, Note_on_c, 0, 61, 96
1, 54610, Note_off_c, 0, 61, 96
1, 54625, Note_on_c, 0, 59, 96
1, 54701, Note_off_c, 0, 59, 96
1, 54943, Note_on_c, 0, 60, 102
1, 55010, Note_off_c, 0, 60, 102
1, 55090, Note_on_c, 0, 63, 100
1, 55173, Note_off_c, 0, 63, 100
1, 55176, Note_on_c, 0, 61, 94
1, 55249, Note_off_c, 0, 61, 94
1, 55467, Note_on_c, 0, 64, 101
1, 55556, Note_off_c, 0, 64, 101
1, 55630, Note_on_c, 0, 67, 101
1, 55731, Note_off_c, 0, 67, 101
1, 55732, Note_on_c, 0, 66, 95
1, 55820, Note_off_c, 0, 66, 95
1, 56016, Note_on_c, 0, 68, 103
1, 56082, Note_off_c, 0, 68, 103
1, 56208, Note_on_c, 0, 71, 104
1, 56273, Note_off_c, 0, 71, 104
1, 56388, Note_on_c, 0, 69, 103
1, 56457, Note_off_c, 0, 69, 103
1, 56601, Note_on_c, 0, 66, 81
1, 56621, Note_off_c, 0, 66, 81
1, 56664, Note_on_c, 0, 71, 100
1, 56786, Note_off_c, 0, 71, 100
1, 56792, Note_on_c, 0, 67, 81
1, 56850, Note_off_c, 0, 67, 81
1, 56862, Note_on_c, 0, 74, 97
1, 56958, Note_off_c, 0, 74, 97
1, 57038, Note_on_c, 0, 73, 99
1, 57129, Note_off_c, 0, 73, 99
1, 57612, Note_on_c, 0, 69, 102
1, 57703, Note_off_c, 0, 69, 102
1, 57712, Note_on_c, 0, 72, 95
1, 57799, Note_off_c, 0, 72, 95
1, 57802, Note_on_c, 0, 71, 99
1, 57888, Note_off_c, 0, 71, 99
1, 57924, Note_on_c, 0, 68, 105
1, 57983, Note_off_c, 0, 68, 105
1, 57991, Note_on_c, 0, 67, 95
1, 58062, Note_off_c, 0, 67, 95
1, 58093, Note_on_c, 0, 70, 98
1, 58165, Note_off_c, 0, 70, 98
1, 58297, Note_on_c, 0, 68, 105
1, 58361, Note_off_c, 0, 68, 105
1, 58369, Note_on_c, 0, 69, 101
1, 58441, Note_off_c, 0, 69, 101
1, 58547, Note_on_c, 0, 64, 101
1, 58651, Note_off_c, 0, 64, 101
1, 58661, Note_on_c, 0, 68, 108
1, 58717, Note_off_c, 0, 68, 108
1, 58721, Note_on_c, 0, 67, 96
1, 58773, Note_off_c, 0, 67, 96
1, 58777, Note_on_c, 0, 66, 98
1, 58841, Note_off_c, 0, 66, 98
1, 58843, Note_on_c, 0, 63, 99
1, 58947, Note_off_c, 0, 63, 99
1, 58949, Note_on_c, 0, 58, 92
1, 59041, Note_off_c, 0, 58, 92
1, 59057, Note_on_c, 0, 54, 91
1, 59120, Note_off_c, 0, 54, 91
1, 59124, Note_on_c, 0, 59, 93
1, 59200, Note_off_c, 0, 59, 93
1, 59203, Note_on_c, 0, 61, 100
1, 59249, Note_off_c, 0, 61, 100
1, 59253, Note_on_c, 0, 63, 101
1, 59309, Note_off_c, 0, 63, 101
1, 59318, Note_on_c, 0, 65, 93
1, 59359, Note_off_c, 0, 65, 93
1, 59371, Note_on_c, 0, 67, 104
1, 59422, Note_off_c, 0, 67, 104
1, 59426, Note_on_c, 0, 69, 98
1, 59482, Note_off_c, 0, 69, 98
1, 59490, Note_on_c, 0, 64, 104
1, 59581, Note_off_c, 0, 64, 104
1, 59593, Note_on_c, 0, 66, 91
1, 59669, Note_off_c, 0, 66, 91
1, 59676, Note_on_c, 0, 69, 102
1, 59785, Note_off_c, 0, 69, 102
1, 59791, Note_on_c, 0, 71, 101
1, 59876, Note_off_c, 0, 71, 101
1, 59883, Note_on_c, 0, 68, 104
1, 59968, Note_off_c, 0, 68, 104
1, 59975, Note_on_c, 0, 69, 99
1, 60058, Note_off_c, 0, 69, 99
1, 60058, Note_on_c, 0, 73, 100
1, 60166, Note_off_c, 0, 73, 100
1, 60170, Note_on_c, 0, 75, 96
1, 60484, Note_off_c, 0, 75, 96
1, 60488, Note_on_c, 0, 73, 102
1, 60573, Note_off_c, 0, 73, 102
1, 60578, Note_on_c, 0, 75, 94
1, 60847, Note_off_c, 0, 75, 94
1, 60858, Note_on_c, 0, 73, 100
1, 60941, Note_off_c, 0, 73, 100
1, 60944, Note_on_c, 0, 71, 98
1, 61193, Note_off_c, 0, 71, 98
1, 61205, Note_on_c, 0, 69, 99
1, 61307, Note_off_c, 0, 69, 99
1, 61309, Note_on_c, 0, 71, 100
1, 61575, Note_off_c, 0, 71, 100
1, 61893, Note_on_c, 0, 69, 103
1, 61957, Note_off_c, 0, 69, 103
1, 61960, Note_on_c, 0, 68, 104
1, 62082, Note_off_c, 0, 68, 104
1, 62086, Note_on_c, 0, 66, 85
1, 62140, Note_off_c, 0, 66, 85
1, 62155, Note_on_c, 0, 68, 101
1, 62275, Note_off_c, 0, 68, 101
1, 62280, Note_on_c, 0, 66, 98
1, 62357, Note_off_c, 0, 66, 98
1, 62365, Note_on_c, 0, 64, 101
1, 62448, Note_off_c, 0, 64, 101
1, 62463, Note_on_c, 0, 62, 95
1, 62526, Note_off_c, 0, 62, 95
1, 62529, Note_on_c, 0, 64, 104
1, 62811, Note_off_c, 0, 64, 104
1, 62812, Note_on_c, 0, 62, 98
1, 62894, Note_off_c, 0, 62, 98
1, 62908, Note_on_c, 0, 61, 97
1, 63013, Note_off_c, 0, 61, 97
1, 63024, Note_on_c, 0, 59, 98
1, 63105, Note_off_c, 0, 59, 98
1, 63811, Note_on_c, 0, 47, 103
1, 63873, Note_off_c, 0, 47, 103
1, 63876, Note_on_c, 0, 50, 103
1, 63923, Note_off_c, 0, 50, 103
1, 63932, Note_on_c, 0, 54, 99
1, 63975, Note_off_c, 0, 54, 99
1, 63984, Note_on_c, 0, 57, 98
1, 64080, Note_off_c, 0, 57, 98
1, 64087, Note_on_c, 0, 53, 103
1, 64195, Note_off_c, 0, 53, 103
1, 64201, Note_on_c, 0, 54, 102
1, 64257, Note_off_c, 0, 54, 102
1, 64263, Note_on_c, 0, 58, 94
1, 64336, Note_off_c, 0, 58, 94
1, 64347, Note_on_c, 0, 61, 98
1, 64428, Note_off_c, 0, 61, 98
1, 64446, Note_on_c, 0, 63, 100
1, 64530, Note_off_c, 0, 63, 100
1, 64536, Note_on_c, 0, 66, 97
1, 64615, Note_off_c, 0, 66, 97
1, 64617, Note_on_c, 0, 68, 96
1, 64702, Note_off_c, 0, 68, 96
1, 64713, Note_on_c, 0, 68, 95
1, 64793, Note_off_c, 0, 68, 95
1, 64795, Note_on_c, 0, 71, 100
1, 64845, Note_off_c, 0, 71, 100
1, 64848, Note_on_c, 0, 72, 98
1, 64883, Note_off_c, 0, 72, 98
1, 64887, Note_on_c, 0, 74, 94
1, 64967, Note_off_c, 0, 74, 94
1, 64978, Note_on_c, 0, 72, 98
1, 65033, Note_off_c, 0, 72, 98
1, 65041, Note_on_c, 0, 71, 96
1, 65093, Note_off_c, 0, 71, 96
1, 65099, Note_on_c, 0, 69, 103
1, 65209, Note_off_c, 0, 69, 103
1, 65212, Note_on_c, 0, 68, 98
1, 65322, Note_off_c, 0, 68, 98
1, 65324, Note_on_c, 0, 69, 93
1, 65367, Note_off_c, 0, 69, 93
1, 65371, Note_on_c, 0, 71, 100
1, 65457, Note_off_c, 0, 71, 100
1, 65461, Note_on_c, 0, 72, 99
1, 65534, Note_off_c, 0, 72, 99
1, 65547, Note_on_c, 0, 69, 99
1, 65614, Note_off_c, 0, 69, 99
1, 65619, Note_on_c, 0, 68, 94
1, 65667, Note_off_c, 0, 68, 94
1, 65667, Note_on_c, 0, 68, 80
1, 65667, Note_off_c, 0, 68, 80
1, 65672, Note_on_c, 0, 63, 94
1, 65714, Note_off_c, 0, 63, 94
1, 65723, Note_on_c, 0, 64, 102
1, 65816, Note_off_c, 0, 64, 102
1, 65830, Note_on_c, 0, 67, 102
1, 65921, Note_off_c, 0, 67, 102
1, 65924, Note_on_c, 0, 66, 98
1, 66034, Note_off_c, 0, 66, 98
1, 66123, Note_on_c, 0, 74, 102
1, 66181, Note_off_c, 0, 74, 102
1, 66207, Note_on_c, 0, 76, 101
1, 66353, Note_off_c, 0, 76, 101
1, 66756, Note_on_c, 0, 81, 97
1, 67260, Note_off_c, 0, 81, 97
1, 67462, Note_on_c, 0, 87, 96
1, 67594, Note_off_c, 0, 87, 96
1, 67618, Note_on_c, 0, 84, 89
1, 67840, Note_off_c, 0, 84, 89
1, 68753, Note_on_c, 0, 82, 91
1, 68875, Note_off_c, 0, 82, 91
1, 69319, Note_on_c, 0, 79, 107
1, 69435, Note_off_c, 0, 79, 107
1, 69506, Note_on_c, 0, 75, 99
1, 69669, Note_off_c, 0, 75, 99
1, 69800, Note_on_c, 0, 74, 94
1, 69903, Note_off_c, 0, 74, 94
1, 69910, Note_on_c, 0, 72, 96
1, 70008, Note_off_c, 0, 72, 96
1, 70017, Note_on_c, 0, 67, 99
1, 70122, Note_off_c, 0, 67, 99
1, 70191, Note_on_c, 0, 70, 99
1, 70299, Note_off_c, 0, 70, 99
1, 70378, Note_on_c, 0, 69, 98
1, 70465, Note_off_c, 0, 69, 98
1, 70468, Note_on_c, 0, 72, 89
1, 70566, Note_off_c, 0, 72, 89
1, 70583, Note_on_c, 0, 77, 91
1, 70823, Note_off_c, 0, 77, 91
1, 71158, Note_on_c, 0, 82, 99
1, 71276, Note_off_c, 0, 82, 99
1, 71322, Note_on_c, 0, 79, 99
1, 71470, Note_off_c, 0, 79, 99
1, 71532, Note_on_c, 0, 75, 99
1, 71636, Note_off_c, 0, 75, 99
1, 71641, Note_on_c, 0, 72, 94
1, 71752, Note_off_c, 0, 72, 94
1, 71821, Note_on_c, 0, 77, 91
1, 71934, Note_off_c, 0, 77, 91
1, 71943, Note_on_c, 0, 74, 91
1, 72024, Note_off_c, 0, 74, 91
1, 72034, Note_on_c, 0, 70, 99
1, 72094, Note_off_c, 0, 70, 99
1, 72103, Note_on_c, 0, 67, 97
1, 72220, Note_off_c, 0, 67, 97
1, 72275, Note_on_c, 0, 72, 96
1, 72385, Note_off_c, 0, 72, 96
1, 72390, Note_on_c, 0, 69, 100
1, 72459, Note_off_c, 0, 69, 100
1, 72466, Note_on_c, 0, 65, 99
1, 72572, Note_off_c, 0, 65, 99
1, 72583, Note_on_c, 0, 67, 101
1, 72642, Note_off_c, 0, 67, 101
1, 72653, Note_on_c, 0, 69, 96
1, 72777, Note_off_c, 0, 69, 96
1, 72779, Note_on_c, 0, 74, 94
1, 72850, Note_off_c, 0, 74, 94
1, 72870, Note_on_c, 0, 71, 98
1, 72967, Note_off_c, 0, 71, 98
1, 72969, Note_on_c, 0, 68, 105
1, 73041, Note_off_c, 0, 68, 105
1, 73051, Note_on_c, 0, 64, 98
1, 73153, Note_off_c, 0, 64, 98
1, 73164, Note_on_c, 0, 61, 93
1, 73232, Note_off_c, 0, 61, 93
1, 73247, Note_on_c, 0, 66, 99
1, 73360, Note_off_c, 0, 66, 99
1, 73365, Note_on_c, 0, 63, 99
1, 73441, Note_off_c, 0, 63, 99
1, 73445, Note_on_c, 0, 59, 95
1, 73547, Note_off_c, 0, 59, 95
1, 73553, Note_on_c, 0, 56, 97
1, 73655, Note_off_c, 0, 56, 97
1, 73736, Note_on_c, 0, 57, 98
1, 73847, Note_off_c, 0, 57, 98
1, 73853, Note_on_c, 0, 61, 90
1, 73941, Note_off_c, 0, 61, 90
1, 73942, Note_on_c, 0, 63, 102
1, 74020, Note_off_c, 0, 63, 102
1, 74024, Note_on_c, 0, 66, 92
1, 74138, Note_off_c, 0, 66, 92
1, 74147, Note_on_c, 0, 68, 101
1, 74215, Note_off_c, 0, 68, 101
1, 74221, Note_on_c, 0, 65, 96
1, 74334, Note_off_c, 0, 65, 96
1, 74446, Note_on_c, 0, 70, 101
1, 74573, Note_off_c, 0, 70, 101
1, 75168, Note_on_c, 0, 64, 103
1, 75263, Note_off_c, 0, 64, 103
1, 75265, Note_on_c, 0, 66, 98
1, 75334, Note_off_c, 0, 66, 98
1, 75349, Note_on_c, 0, 63, 101
1, 75440, Note_off_c, 0, 63, 101
1, 75446, Note_on_c, 0, 68, 101
1, 75539, Note_off_c, 0, 68, 101
1, 75552, Note_on_c, 0, 62, 93
1, 75632, Note_off_c, 0, 62, 93
1, 75642, Note_on_c, 0, 64, 110
1, 75735, Note_off_c, 0, 64, 110
1, 75737, Note_on_c, 0, 61, 95
1, 75837, Note_off_c, 0, 61, 95
1, 75839, Note_on_c, 0, 66, 98
1, 75932, Note_off_c, 0, 66, 98
1, 75950, Note_on_c, 0, 60, 101
1, 76037, Note_off_c, 0, 60, 101
1, 76037, Note_on_c, 0, 62, 99
1, 76129, Note_off_c, 0, 62, 99
1, 76139, Note_on_c, 0, 63, 100
1, 76212, Note_off_c, 0, 63, 100
1, 76217, Note_on_c, 0, 65, 100
1, 76280, Note_off_c, 0, 65, 100
1, 76282, Note_on_c, 0, 66, 97
1, 76391, Note_off_c, 0, 66, 97
1, 76397, Note_on_c, 0, 68, 97
1, 76492, Note_off_c, 0, 68, 97
1, 76504, Note_on_c, 0, 66, 94
1, 76606, Note_off_c, 0, 66, 94
1, 76610, Note_on_c, 0, 71, 100
1, 76718, Note_off_c, 0, 71, 100
1, 76786, Note_on_c, 0, 69, 103
1, 76887, Note_off_c, 0, 69, 103
1, 76890, Note_on_c, 0, 68, 103
1, 76962, Note_off_c, 0, 68, 103
1, 76966, Note_on_c, 0, 66, 100
1, 77072, Note_off_c, 0, 66, 100
1, 77078, Note_on_c, 0, 65, 97
1, 77153, Note_off_c, 0, 65, 97
1, 77159, Note_on_c, 0, 67, 101
1, 77231, Note_off_c, 0, 67, 101
1, 77263, Note_on_c, 0, 64, 97
1, 77334, Note_off_c, 0, 64, 97
1, 77346, Note_on_c, 0, 65, 87
1, 77425, Note_off_c, 0, 65, 87
1, 77441, Note_on_c, 0, 70, 101
1, 77523, Note_off_c, 0, 70, 101
1, 77538, Note_on_c, 0, 68, 101
1, 77630, Note_off_c, 0, 68, 101
1, 77635, Note_on_c, 0, 64, 102
1, 77709, Note_off_c, 0, 64, 102
1, 77721, Note_on_c, 0, 61, 92
1, 77801, Note_off_c, 0, 61, 92
1, 77810, Note_on_c, 0, 63, 105
1, 77890, Note_off_c, 0, 63, 105
1, 77905, Note_on_c, 0, 65, 98
1, 78022, Note_off_c, 0, 65, 98
1, 78024, Note_on_c, 0, 63, 99
1, 78139, Note_off_c, 0, 63, 99
1, 78142, Note_on_c, 0, 68, 101
1, 78222, Note_off_c, 0, 68, 101
1, 78330, Note_on_c, 0, 65, 103
1, 78400, Note_off_c, 0, 65, 103
1, 78411, Note_on_c, 0, 61, 93
1, 78509, Note_off_c, 0, 61, 93
1, 78589, Note_on_c, 0, 61, 96
1, 78789, Note_off_c, 0, 61, 96
1, 78792, Note_on_c, 0, 63, 101
1, 78901, Note_off_c, 0, 63, 101
1, 78909, Note_on_c, 0, 61, 96
1, 78981, Note_off_c, 0, 61, 96
1, 78985, Note_on_c, 0, 66, 101
1, 79077, Note_off_c, 0, 66, 101
1, 79087, Note_on_c, 0, 63, 101
1, 79210, Note_off_c, 0, 63, 101
1, 79222, Note_on_c, 0, 58, 93
1, 79306, Note_off_c, 0, 58, 93
1, 79312, Note_on_c, 0, 54, 86
1, 79372, Note_off_c, 0, 54, 86
1, 79381, Note_on_c, 0, 59, 94
1, 79476, Note_off_c, 0, 59, 94
1, 79489, Note_on_c, 0, 60, 100
1, 79569, Note_off_c, 0, 60, 100
1, 79580, Note_on_c, 0, 59, 86
1, 79658, Note_off_c, 0, 59, 86
1, 79673, Note_on_c, 0, 65, 104
1, 79785, Note_off_c, 0, 65, 104
1, 80262, Note_on_c, 0, 45, 100
1, 80289, Note_off_c, 0, 45, 100
1, 80296, Note_on_c, 0, 49, 100
1, 80336, Note_off_c, 0, 49, 100
1, 80337, Note_on_c, 0, 52, 100
1, 80386, Note_off_c, 0, 52, 100
1, 80389, Note_on_c, 0, 54, 96
1, 80453, Note_off_c, 0, 54, 96
1, 80457, Note_on_c, 0, 57, 100
1, 80516, Note_off_c, 0, 57, 100
1, 80517, Note_on_c, 0, 56, 102
1, 80620, Note_off_c, 0, 56, 102
1, 80648, Note_on_c, 0, 54, 98
1, 80740, Note_off_c, 0, 54, 98
1, 80741, Note_on_c, 0, 53, 97
1, 80809, Note_off_c, 0, 53, 97
1, 80814, Note_on_c, 0, 52, 95
1, 80897, Note_off_c, 0, 52, 95
1, 80904, Note_on_c, 0, 51, 97
1, 80999, Note_off_c, 0, 51, 97
1, 81004, Note_on_c, 0, 53, 95
1, 81063, Note_off_c, 0, 53, 95
1, 81065, Note_on_c, 0, 55, 95
1, 81107, Note_off_c, 0, 55, 95
1, 81111, Note_on_c, 0, 58, 96
1, 81186, Note_off_c, 0, 58, 96
1, 81203, Note_on_c, 0, 61, 96
1, 81238, Note_off_c, 0, 61, 96
1, 81274, Note_on_c, 0, 66, 99
1, 81378, Note_off_c, 0, 66, 99
1, 81383, Note_on_c, 0, 61, 104
1, 81441, Note_off_c, 0, 61, 104
1, 81455, Note_on_c, 0, 56, 96
1, 81495, Note_off_c, 0, 56, 96
1, 81500, Note_on_c, 0, 57, 97
1, 81547, Note_off_c, 0, 57, 97
1, 81557, Note_on_c, 0, 56, 98
1, 81588, Note_off_c, 0, 56, 98
1, 81595, Note_on_c, 0, 54, 97
1, 81647, Note_off_c, 0, 54, 97
1, 81653, Note_on_c, 0, 53, 93
1, 81752, Note_off_c, 0, 53, 93
1, 81758, Note_on_c, 0, 55, 94
1, 81840, Note_off_c, 0, 55, 94
1, 81966, Note_on_c, 0, 58, 91
1, 82211, Note_off_c, 0, 58, 91
1, 82213, Note_on_c, 0, 55, 93
1, 82410, Note_off_c, 0, 55, 93
1, 83288, Note_on_c, 0, 49, 97
1, 83369, Note_off_c, 0, 49, 97
1, 83379, Note_on_c, 0, 54, 97
1, 83479, Note_off_c, 0, 54, 97
1, 83488, Note_on_c, 0, 58, 94
1, 83555, Note_off_c, 0, 58, 94
1, 83566, Note_on_c, 0, 59, 94
1, 83664, Note_off_c, 0, 59, 94
1, 83673, Note_on_c, 0, 61, 104
1, 83754, Note_off_c, 0, 61, 104
1, 83762, Note_on_c, 0, 63, 100
1, 83850, Note_off_c, 0, 63, 100
1, 83864, Note_on_c, 0, 66, 101
1, 83952, Note_off_c, 0, 66, 101
1, 83957, Note_on_c, 0, 64, 105
1, 84082, Note_off_c, 0, 64, 105
1, 84083, Note_on_c, 0, 59, 95
1, 84154, Note_off_c, 0, 59, 95
1, 84160, Note_on_c, 0, 56, 96
1, 84282, Note_off_c, 0, 56, 96
1, 84303, Note_on_c, 0, 52, 92
1, 84329, Note_off_c, 0, 52, 92
1, 84344, Note_on_c, 0, 57, 97
1, 84447, Note_off_c, 0, 57, 97
1, 84461, Note_on_c, 0, 61, 98
1, 84538, Note_off_c, 0, 61, 98
1, 84543, Note_on_c, 0, 62, 100
1, 84647, Note_off_c, 0, 62, 100
1, 84652, Note_on_c, 0, 66, 92
1, 84753, Note_off_c, 0, 66, 92
1, 84765, Note_on_c, 0, 69, 99
1, 84852, Note_off_c, 0, 69, 99
1, 84854, Note_on_c, 0, 66, 93
1, 84942, Note_off_c, 0, 66, 93
1, 84945, Note_on_c, 0, 62, 101
1, 85032, Note_off_c, 0, 62, 101
1, 85040, Note_on_c, 0, 60, 99
1, 85142, Note_off_c, 0, 60, 99
1, 85145, Note_on_c, 0, 59, 96
1, 85221, Note_off_c, 0, 59, 96
1, 85225, Note_on_c, 0, 62, 102
1, 85287, Note_off_c, 0, 62, 102
1, 85293, Note_on_c, 0, 65, 95
1, 85406, Note_off_c, 0, 65, 95
1, 85416, Note_on_c, 0, 68, 102
1, 85515, Note_off_c, 0, 68, 102
1, 85520, Note_on_c, 0, 66, 97
1, 85576, Note_off_c, 0, 66, 97
1, 85587, Note_on_c, 0, 67, 98
1, 85700, Note_off_c, 0, 67, 98
1, 85701, Note_on_c, 0, 64, 105
1, 85784, Note_off_c, 0, 64, 105
1, 85807, Note_on_c, 0, 60, 99
1, 85855, Note_off_c, 0, 60, 99
1, 85861, Note_on_c, 0, 66, 97
1, 86002, Note_off_c, 0, 66, 97
1, 86005, Note_on_c, 0, 64, 99
1, 86066, Note_off_c, 0, 64, 99
1, 86075, Note_on_c, 0, 65, 99
1, 86158, Note_off_c, 0, 65, 99
1, 86166, Note_on_c, 0, 62, 98
1, 86262, Note_off_c, 0, 62, 98
1, 86269, Note_on_c, 0, 58, 89
1, 86359, Note_off_c, 0, 58, 89
1, 86373, Note_on_c, 0, 53, 78
1, 86430, Note_off_c, 0, 53, 78
1, 86453, Note_on_c, 0, 68, 89
1, 86535, Note_off_c, 0, 68, 89
1, 86681, Note_on_c, 0, 55, 92
1, 86743, Note_off_c, 0, 55, 92
1, 86754, Note_on_c, 0, 58, 88
1, 86831, Note_off_c, 0, 58, 88
1, 86841, Note_on_c, 0, 60, 95
1, 86942, Note_off_c, 0, 60, 95
1, 86949, Note_on_c, 0, 61, 90
1, 87023, Note_off_c, 0, 61, 90
1, 87047, Note_on_c, 0, 58, 91
1, 87114, Note_off_c, 0, 58, 91
1, 87121, Note_on_c, 0, 54, 95
1, 87236, Note_off_c, 0, 54, 95
1, 87237, Note_on_c, 0, 51, 95
1, 87349, Note_off_c, 0, 51, 95
1, 87358, Note_on_c, 0, 48, 93
1, 87403, Note_off_c, 0, 48, 93
1, 87408, Note_on_c, 0, 49, 96
1, 87654, Note_off_c, 0, 49, 96
1, 87697, Note_on_c, 0, 57, 99
1, 87768, Note_off_c, 0, 57, 99
1, 87775, Note_on_c, 0, 55, 100
1, 87815, Note_off_c, 0, 55, 100
1, 87816, Note_on_c, 0, 53, 99
1, 87908, Note_off_c, 0, 53, 99
1, 87924, Note_on_c, 0, 48, 95
1, 87976, Note_off_c, 0, 48, 95
1, 87982, Note_on_c, 0, 51, 99
1, 88081, Note_off_c, 0, 51, 99
1, 88086, Note_on_c, 0, 53, 99
1, 88241, Note_off_c, 0, 53, 99
1, 88246, Note_on_c, 0, 50, 99
1, 88364, Note_off_c, 0, 50, 99
1, 89077, Note_on_c, 0, 59, 87
1, 89133, Note_off_c, 0, 59, 87
1, 89134, Note_on_c, 0, 60, 100
1, 89221, Note_off_c, 0, 60, 100
1, 89240, Note_on_c, 0, 62, 98
1, 89441, Note_off_c, 0, 62, 98
1, 89457, Note_on_c, 0, 64, 99
1, 89527, Note_off_c, 0, 64, 99
1, 89663, Note_on_c, 0, 66, 100
1, 89816, Note_off_c, 0, 66, 100
1, 89821, Note_on_c, 0, 67, 96
1, 90058, Note_off_c, 0, 67, 96
1, 90064, Note_on_c, 0, 68, 104
1, 90230, Note_off_c, 0, 68, 104
1, 90239, Note_on_c, 0, 69, 99
1, 90410, Note_off_c, 0, 69, 99
1, 90414, Note_on_c, 0, 71, 97
1, 90616, Note_off_c, 0, 71, 97
1, 90620, Note_on_c, 0, 72, 95
1, 90798, Note_off_c, 0, 72, 95
1, 90812, Note_on_c, 0, 73, 100
1, 91192, Note_off_c, 0, 73, 100
1, 91253, Note_on_c, 0, 69, 100
1, 91537, Note_off_c, 0, 69, 100
1, 91563, Note_on_c, 0, 64, 105
1, 91713, Note_off_c, 0, 64, 105
1, 92406, Note_on_c, 0, 71, 96
1, 92450, Note_off_c, 0, 71, 96
1, 92452, Note_on_c, 0, 73, 100
1, 92684, Note_off_c, 0, 73, 100
1, 92818, Note_on_c, 0, 70, 99
1, 93117, Note_off_c, 0, 70, 99
1, 93123, Note_on_c, 0, 66, 95
1, 93319, Note_off_c, 0, 66, 95
1, 93530, Note_on_c, 0, 70, 100
1, 93731, Note_off_c, 0, 70, 100
1, 93736, Note_on_c, 0, 73, 100
1, 93856, Note_off_c, 0, 73, 100
1, 93956, Note_on_c, 0, 73, 9
1, 94324, Note_off_c, 0, 73, 9
1, 94331, Note_on_c, 0, 69, 108
1, 94590, Note_off_c, 0, 69, 108
1, 94593, Note_on_c, 0, 75, 100
1, 94975, Note_off_c, 0, 75, 100
1, 94991, Note_on_c, 0, 73, 102
1, 95075, Note_off_c, 0, 73, 102
1, 95081, Note_on_c, 0, 69, 102
1, 95182, Note_off_c, 0, 69, 102
1, 95207, Note_on_c, 0, 68, 106
1, 95278, Note_off_c, 0, 68, 106
1, 95280, Note_on_c, 0, 66, 106
1, 95357, Note_off_c, 0, 66, 106
1, 95364, Note_on_c, 0, 64, 101
1, 95433, Note_off_c, 0, 64, 101
1, 95438, Note_on_c, 0, 65, 107
1, 95550, Note_off_c, 0, 65, 107
1, 95555, Note_on_c, 0, 67, 92
1, 95617, Note_off_c, 0, 67, 92
1, 95629, Note_on_c, 0, 70, 106
1, 95724, Note_off_c, 0, 70, 106
1, 95738, Note_on_c, 0, 72, 107
1, 95788, Note_off_c, 0, 72, 107
1, 95801, Note_on_c, 0, 74, 98
1, 95995, Note_off_c, 0, 74, 98
1, 96612, Note_on_c, 0, 77, 102
1, 96705, Note_off_c, 0, 77, 102
1, 96718, Note_on_c, 0, 76, 106
1, 96816, Note_off_c, 0, 76, 106
1, 96819, Note_on_c, 0, 77, 101
1, 96878, Note_off_c, 0, 77, 101
1, 96895, Note_on_c, 0, 79, 98
1, 97038, Note_off_c, 0, 79, 98
1, 97043, Note_on_c, 0, 77, 81
1, 97098, Note_off_c, 0, 77, 81
1, 97100, Note_on_c, 0, 75, 103
1, 97176, Note_off_c, 0, 75, 103
1, 97180, Note_on_c, 0, 74, 99
1, 97281, Note_off_c, 0, 74, 99
1, 97285, Note_on_c, 0, 72, 96
1, 97356, Note_off_c, 0, 72, 96
1, 97371, Note_on_c, 0, 71, 101
1, 97460, Note_off_c, 0, 71, 101
1, 97492, Note_on_c, 0, 68, 111
1, 97592, Note_off_c, 0, 68, 111
1, 97599, Note_on_c, 0, 67, 101
1, 97659, Note_off_c, 0, 67, 101
1, 97667, Note_on_c, 0, 65, 113
1, 97745, Note_off_c, 0, 65, 113
1, 97755, Note_on_c, 0, 63, 108
1, 97849, Note_off_c, 0, 63, 108
1, 97864, Note_on_c, 0, 65, 108
1, 97940, Note_off_c, 0, 65, 108
1, 98056, Note_on_c, 0, 70, 105
1, 98111, Note_off_c, 0, 70, 105
1, 98136, Note_on_c, 0, 74, 95
1, 98239, Note_off_c, 0, 74, 95
1, 98268, Note_on_c, 0, 65, 91
1, 98305, Note_off_c, 0, 65, 91
1, 98314, Note_on_c, 0, 67, 100
1, 98434, Note_off_c, 0, 67, 100
1, 98441, Note_on_c, 0, 68, 112
1, 98557, Note_off_c, 0, 68, 112
1, 98570, Note_on_c, 0, 68, 103
1, 98704, Note_off_c, 0, 68, 103
1, 98714, Note_on_c, 0, 67, 101
1, 98809, Note_off_c, 0, 67, 101
1, 98823, Note_on_c, 0, 66, 104
1, 98892, Note_off_c, 0, 66, 104
1, 98897, Note_on_c, 0, 65, 105
1, 98993, Note_off_c, 0, 65, 105
1, 99214, Note_on_c, 0, 61, 106
1, 99501, Note_off_c, 0, 61, 106
1, 99511, Note_on_c, 0, 60, 107
1, 99597, Note_off_c, 0, 60, 107
1, 99608, Note_on_c, 0, 59, 98
1, 99695, Note_off_c, 0, 59, 98
1, 99702, Note_on_c, 0, 58, 97
1, 99783, Note_off_c, 0, 58, 97
1, 100197, Note_on_c, 0, 53, 96
1, 100236, Note_off_c, 0, 53, 96
1, 100249, Note_on_c, 0, 58, 88
1, 100341, Note_off_c, 0, 58, 88
1, 100351, Note_on_c, 0, 62, 110
1, 100420, Note_off_c, 0, 62, 110
1, 100440, Note_on_c, 0, 63, 108
1, 100551, Note_off_c, 0, 63, 108
1, 100558, Note_on_c, 0, 62, 105
1, 100619, Note_off_c, 0, 62, 105
1, 100631, Note_on_c, 0, 58, 91
1, 100743, Note_off_c, 0, 58, 91
1, 100762, Note_on_c, 0, 53, 107
1, 100826, Note_off_c, 0, 53, 107
1, 100831, Note_on_c, 0, 60, 113
1, 100917, Note_off_c, 0, 60, 113
1, 101001, Note_on_c, 0, 60, 106
1, 101394, Note_off_c, 0, 60, 106
1, 101405, Note_on_c, 0, 58, 98
1, 101486, Note_off_c, 0, 58, 98
1, 101501, Note_on_c, 0, 55, 94
1, 101709, Note_off_c, 0, 55, 94
1, 101709, End_track
0, 0, End_of_file
