0, 0, Header, 1, 1, 840
1, 0, Start_track
1, 0, Title_t, "Melody"
1, 0, Tempo, 444444
1, 0, Key_signature, -4, "major"
1, 0, Time_signature, 4, 2, 24, 8
1, 15867, Note_on_c, 0, 69, 105
1, 16040, Note_off_c, 0, 69, 105
1, 16336, Note_on_c, 0, 68, 105
1, 16535, Note_off_c, 0, 68, 105
1, 16810, Note_on_c, 0, 65, 96
1, 16930, Note_off_c, 0, 65, 96
1, 16954, Note_on_c, 0, 67, 104
1, 17200, Note_off_c, 0, 67, 104
1, 17234, Note_on_c, 0, 65, 95
1, 17373, Note_off_c, 0, 65, 95
1, 17386, Note_on_c, 0, 66, 106
1, 17564, Note_off_c, 0, 66, 106
1, 17608, Note_on_c, 0, 69, 104
1, 17791, Note_off_c, 0, 69, 104
1, 17856, Note_on_c, 0, 65, 101
1, 18023, Note_off_c, 0, 65, 101
1, 18028, Note_on_c, 0, 64, 108
1, 18255, Note_off_c, 0, 64, 108
1, 18288, Note_on_c, 0, 59, 99
1, 18465, Note_off_c, 0, 59, 99
1, 18512, Note_on_c, 0, 54, 103
1, 18584, Note_off_c, 0, 54, 103
1, 18723, Note_on_c, 0, 63, 106
1, 18892, Note_off_c, 0, 63, 106
1, 18892, Note_on_c, 0, 62, 111
1, 19098, Note_off_c, 0, 62, 111
1, 19289, Note_on_c, 0, 61, 111
1, 19468, Note_off_c, 0, 61, 111
1, 19695, Note_on_c, 0, 69, 105
1, 19907, Note_off_c, 0, 69, 105
1, 20179, Note_on_c, 0, 63, 94
1, 20295, Note_on_c, 0, 69, 102
1, 20295, Note_off_c, 0, 63, 94
1, 20528, Note_off_c, 0, 69, 102
1, 20533, Note_on_c, 0, 67, 102
1, 20716, Note_off_c, 0, 67, 102
1, 20717, Note_on_c, 0, 63, 110
1, 20915, Note_off_c, 0, 63, 110
1, 22713, Note_on_c, 0, 73, 102
1, 22838, Note_off_c, 0, 73, 102
1, 22847, Note_on_c, 0, 72, 97
1, 23132, Note_off_c, 0, 72, 97
1, 23141, Note_on_c, 0, 68, 101
1, 23362, Note_off_c, 0, 68, 101
1, 23363, Note_on_c, 0, 65, 99
1, 23474, Note_off_c, 0, 65, 99
1, 23479, Note_on_c, 0, 66, 95
1, 23565, Note_off_c, 0, 66, 95
1, 23567, Note_on_c, 0, 70, 102
1, 23756, Note_off_c, 0, 70, 102
1, 23819, Note_on_c, 0, 65, 98
1, 24028, Note_off_c, 0, 65, 98
1, 24037, Note_on_c, 0, 66, 91
1, 24163, Note_off_c, 0, 66, 91
1, 24182, Note_on_c, 0, 70, 99
1, 24329, Note_off_c, 0, 70, 99
1, 24417, Note_on_c, 0, 68, 101
1, 24586, Note_off_c, 0, 68, 101
1, 24599, Note_on_c, 0, 66, 96
1, 24788, Note_off_c, 0, 66, 96
1, 24810, Note_on_c, 0, 63, 110
1, 25008, Note_off_c, 0, 63, 110
1, 25022, Note_on_c, 0, 62, 109
1, 25252, Note_off_c, 0, 62, 109
1, 25260, Note_on_c, 0, 60, 107
1, 25473, Note_off_c, 0, 60, 107
1, 25478, Note_on_c, 0, 59, 93
1, 25652, Note_off_c, 0, 59, 93
1, 25687, Note_on_c, 0, 63, 106
1, 25835, Note_off_c, 0, 63, 106
1, 25850, Note_on_c, 0, 65, 95
1, 25992, Note_off_c, 0, 65, 95
1, 26057, Note_on_c, 0, 69, 102
1, 26240, Note_off_c, 0, 69, 102
1, 26523, Note_on_c, 0, 69, 101
1, 26734, Note_off_c, 0, 69, 101
1, 26915, Note_on_c, 0, 63, 75
1, 27016, Note_off_c, 0, 63, 75
1, 27127, Note_on_c, 0, 69, 103
1, 27343, Note_off_c, 0, 69, 103
1, 27356, Note_on_c, 0, 68, 102
1, 27465, Note_off_c, 0, 68, 102
1, 27536, Note_on_c, 0, 63, 100
1, 27836, Note_off_c, 0, 63, 100
1, 28381, Note_on_c, 0, 70, 85
1, 28467, Note_off_c, 0, 70, 85
1, 28473, Note_on_c, 0, 69, 108
1, 28590, Note_off_c, 0, 69, 108
1, 28665, Note_on_c, 0, 66, 104
1, 28823, Note_off_c, 0, 66, 104
1, 28838, Note_on_c, 0, 64, 103
1, 29020, Note_off_c, 0, 64, 103
1, 29051, Note_on_c, 0, 60, 105
1, 29284, Note_off_c, 0, 60, 105
1, 29287, Note_on_c, 0, 58, 97
1, 29479, Note_off_c, 0, 58, 97
1, 30582, Note_on_c, 0, 57, 98
1, 30749, Note_off_c, 0, 57, 98
1, 30766, Note_on_c, 0, 56, 101
1, 30889, Note_off_c, 0, 56, 101
1, 31199, Note_on_c, 0, 61, 106
1, 31368, Note_off_c, 0, 61, 106
1, 31425, Note_on_c, 0, 60, 96
1, 31608, Note_off_c, 0, 60, 96
1, 31631, Note_on_c, 0, 58, 98
1, 31820, Note_off_c, 0, 58, 98
1, 31833, Note_on_c, 0, 53, 96
1, 32075, Note_off_c, 0, 53, 96
1, 32086, Note_on_c, 0, 54, 94
1, 32214, Note_off_c, 0, 54, 94
1, 32234, Note_on_c, 0, 57, 95
1, 32426, Note_off_c, 0, 57, 95
1, 32441, Note_on_c, 0, 56, 102
1, 32630, Note_off_c, 0, 56, 102
1, 32655, Note_on_c, 0, 59, 95
1, 32828, Note_off_c, 0, 59, 95
1, 33485, Note_on_c, 0, 52, 99
1, 33710, Note_off_c, 0, 52, 99
1, 33717, Note_on_c, 0, 51, 98
1, 33909, Note_off_c, 0, 51, 98
1, 34851, Note_on_c, 0, 50, 106
1, 35048, Note_off_c, 0, 50, 106
1, 35053, Note_on_c, 0, 49, 100
1, 35269, Note_off_c, 0, 49, 100
1, 36098, Note_on_c, 0, 47, 98
1, 36285, Note_off_c, 0, 47, 98
1, 36299, Note_on_c, 0, 46, 101
1, 36606, Note_off_c, 0, 46, 101
1, 36610, Note_on_c, 0, 47, 98
1, 36712, Note_off_c, 0, 47, 98
1, 36721, Note_on_c, 0, 47, 99
1, 36825, Note_off_c, 0, 47, 99
1, 36834, Note_on_c, 0, 51, 97
1, 36999, Note_off_c, 0, 51, 97
1, 37017, Note_on_c, 0, 54, 90
1, 37171, Note_off_c, 0, 54, 90
1, 37207, Note_on_c, 0, 56, 100
1, 37366, Note_off_c, 0, 56, 100
1, 37372, Note_on_c, 0, 53, 98
1, 37569, Note_off_c, 0, 53, 98
1, 37573, Note_on_c, 0, 48, 94
1, 37759, Note_off_c, 0, 48, 94
1, 37768, Note_on_c, 0, 49, 101
1, 37936, Note_off_c, 0, 49, 101
1, 37957, Note_on_c, 0, 56, 100
1, 38155, Note_off_c, 0, 56, 100
1, 38170, Note_on_c, 0, 57, 101
1, 38353, Note_off_c, 0, 57, 101
1, 38414, Note_on_c, 0, 53, 103
1, 38583, Note_off_c, 0, 53, 103
1, 38590, Note_on_c, 0, 51, 102
1, 38695, Note_off_c, 0, 51, 102
1, 38709, Note_on_c, 0, 50, 96
1, 38774, Note_off_c, 0, 50, 96
1, 38782, Note_on_c, 0, 52, 111
1, 38841, Note_off_c, 0, 52, 111
1, 38845, Note_on_c, 0, 56, 102
1, 38911, Note_off_c, 0, 56, 102
1, 38950, Note_on_c, 0, 58, 101
1, 39048, Note_off_c, 0, 58, 101
1, 39156, Note_on_c, 0, 53, 98
1, 39348, Note_off_c, 0, 53, 98
1, 39348, Note_on_c, 0, 54, 93
1, 39465, Note_off_c, 0, 54, 93
1, 39469, Note_on_c, 0, 57, 102
1, 39667, Note_off_c, 0, 57, 102
1, 39677, Note_on_c, 0, 55, 91
1, 39873, Note_off_c, 0, 55, 91
1, 39885, Note_on_c, 0, 56, 100
1, 40078, Note_off_c, 0, 56, 100
1, 40105, Note_on_c, 0, 59, 98
1, 40243, Note_off_c, 0, 59, 98
1, 40250, Note_on_c, 0, 61, 101
1, 40510, Note_off_c, 0, 61, 101
1, 40511, Note_on_c, 0, 63, 100
1, 40613, Note_off_c, 0, 63, 100
1, 40629, Note_on_c, 0, 66, 97
1, 40878, Note_off_c, 0, 66, 97
1, 40904, Note_on_c, 0, 68, 99
1, 41123, Note_off_c, 0, 68, 99
1, 41133, Note_on_c, 0, 65, 101
1, 41312, Note_off_c, 0, 65, 101
1, 41329, Note_on_c, 0, 63, 101
1, 41508, Note_off_c, 0, 63, 101
1, 41514, Note_on_c, 0, 64, 102
1, 41741, Note_off_c, 0, 64, 102
1, 41753, Note_on_c, 0, 61, 103
1, 41940, Note_off_c, 0, 61, 103
1, 41953, Note_on_c, 0, 57, 95
1, 42080, Note_off_c, 0, 57, 95
1, 42124, Note_on_c, 0, 51, 96
1, 42324, Note_off_c, 0, 51, 96
1, 42389, Note_on_c, 0, 56, 98
1, 42526, Note_off_c, 0, 56, 98
1, 42618, Note_on_c, 0, 60, 99
1, 42763, Note_off_c, 0, 60, 99
1, 42775, Note_on_c, 0, 63, 104
1, 42964, Note_off_c, 0, 63, 104
1, 42988, Note_on_c, 0, 68, 91
1, 43099, Note_off_c, 0, 68, 91
1, 43215, Note_on_c, 0, 70, 99
1, 43335, Note_off_c, 0, 70, 99
1, 43336, Note_on_c, 0, 71, 107
1, 43872, Note_off_c, 0, 71, 107
1, 43935, Note_on_c, 0, 67, 95
1, 44008, Note_off_c, 0, 67, 95
1, 44011, Note_on_c, 0, 70, 108
1, 44130, Note_off_c, 0, 70, 108
1, 44137, Note_on_c, 0, 71, 107
1, 44272, Note_off_c, 0, 71, 107
1, 44273, Note_on_c, 0, 68, 98
1, 44375, Note_off_c, 0, 68, 98
1, 45715, Note_on_c, 0, 66, 105
1, 45931, Note_off_c, 0, 66, 105
1, 45978, Note_on_c, 0, 62, 109
1, 46233, Note_off_c, 0, 62, 109
1, 46241, Note_on_c, 0, 57, 97
1, 46424, Note_off_c, 0, 57, 97
1, 46430, Note_on_c, 0, 54, 95
1, 46580, Note_off_c, 0, 54, 95
1, 46612, Note_on_c, 0, 56, 95
1, 46793, Note_off_c, 0, 56, 95
1, 46814, Note_on_c, 0, 59, 98
1, 46973, Note_off_c, 0, 59, 98
1, 46982, Note_on_c, 0, 61, 99
1, 47211, Note_off_c, 0, 61, 99
1, 47226, Note_on_c, 0, 63, 105
1, 47395, Note_off_c, 0, 63, 105
1, 47398, Note_on_c, 0, 66, 100
1, 47606, Note_off_c, 0, 66, 100
1, 47619, Note_on_c, 0, 68, 99
1, 47744, Note_off_c, 0, 68, 99
1, 47791, Note_on_c, 0, 70, 100
1, 48026, Note_off_c, 0, 70, 100
1, 48039, Note_on_c, 0, 74, 99
1, 48310, Note_off_c, 0, 74, 99
1, 48327, Note_on_c, 0, 73, 91
1, 48440, Note_off_c, 0, 73, 91
1, 48472, Note_on_c, 0, 71, 108
1, 48686, Note_off_c, 0, 71, 108
1, 48695, Note_on_c, 0, 68, 101
1, 48799, Note_off_c, 0, 68, 101
1, 48883, Note_on_c, 0, 73, 92
1, 49073, Note_off_c, 0, 73, 92
1, 49107, Note_on_c, 0, 66, 103
1, 49280, Note_off_c, 0, 66, 103
1, 49299, Note_on_c, 0, 66, 92
1, 49460, Note_off_c, 0, 66, 92
1, 49489, Note_on_c, 0, 69, 102
1, 49710, Note_off_c, 0, 69, 102
1, 49736, Note_on_c, 0, 65, 105
1, 49877, Note_off_c, 0, 65, 105
1, 49883, Note_on_c, 0, 64, 100
1, 50071, Note_off_c, 0, 64, 100
1, 50130, Note_on_c, 0, 69, 100
1, 50288, Note_off_c, 0, 69, 100
1, 50293, Note_on_c, 0, 72, 97
1, 50539, Note_off_c, 0, 72, 97
1, 50556, Note_on_c, 0, 91, 80
1, 50574, Note_off_c, 0, 91, 80
1, 50574, Note_on_c, 0, 63, 104
1, 50815, Note_off_c, 0, 63, 104
1, 50828, Note_on_c, 0, 66, 91
1, 50937, Note_off_c, 0, 66, 91
1, 50951, Note_on_c, 0, 71, 106
1, 51073, Note_off_c, 0, 71, 106
1, 51231, Note_on_c, 0, 65, 101
1, 51412, Note_off_c, 0, 65, 101
1, 51421, Note_on_c, 0, 66, 91
1, 51532, Note_off_c, 0, 66, 91
1, 51562, Note_on_c, 0, 69, 99
1, 51822, Note_off_c, 0, 69, 99
1, 51847, Note_on_c, 0, 68, 89
1, 52030, Note_off_c, 0, 68, 89
1, 52052, Note_on_c, 0, 68, 100
1, 52269, Note_off_c, 0, 68, 100
1, 52279, Note_on_c, 0, 66, 99
1, 52404, Note_off_c, 0, 66, 99
1, 52404, Note_on_c, 0, 61, 108
1, 52635, Note_off_c, 0, 61, 108
1, 52693, Note_on_c, 0, 64, 95
1, 52830, Note_off_c, 0, 64, 95
1, 52835, Note_on_c, 0, 67, 102
1, 52890, Note_off_c, 0, 67, 102
1, 52903, Note_on_c, 0, 68, 104
1, 53092, Note_off_c, 0, 68, 104
1, 53128, Note_on_c, 0, 65, 94
1, 53279, Note_off_c, 0, 65, 94
1, 53285, Note_on_c, 0, 66, 97
1, 53468, Note_off_c, 0, 66, 97
1, 53477, Note_on_c, 0, 67, 100
1, 53640, Note_off_c, 0, 67, 100
1, 53641, Note_on_c, 0, 65, 100
1, 53891, Note_off_c, 0, 65, 100
1, 53900, Note_on_c, 0, 62, 94
1, 53998, Note_off_c, 0, 62, 94
1, 54065, Note_on_c, 0, 64, 102
1, 54243, Note_off_c, 0, 64, 102
1, 54272, Note_on_c, 0, 60, 98
1, 54439, Note_off_c, 0, 60, 98
1, 54442, Note_on_c, 0, 57, 94
1, 54702, Note_off_c, 0, 57, 94
1, 56864, Note_on_c, 0, 68, 108
1, 57075, Note_off_c, 0, 68, 108
1, 57083, Note_on_c, 0, 65, 100
1, 57216, Note_off_c, 0, 65, 100
1, 57274, Note_on_c, 0, 69, 107
1, 57413, Note_off_c, 0, 69, 107
1, 57430, Note_on_c, 0, 68, 104
1, 57675, Note_off_c, 0, 68, 104
1, 57709, Note_on_c, 0, 65, 102
1, 57917, Note_off_c, 0, 65, 102
1, 57950, Note_on_c, 0, 61, 103
1, 58102, Note_off_c, 0, 61, 103
1, 58105, Note_on_c, 0, 64, 104
1, 58197, Note_off_c, 0, 64, 104
1, 58320, Note_on_c, 0, 55, 98
1, 58555, Note_off_c, 0, 55, 98
1, 58584, Note_on_c, 0, 67, 103
1, 58726, Note_off_c, 0, 67, 103
1, 58739, Note_on_c, 0, 66, 101
1, 58997, Note_off_c, 0, 66, 101
1, 59160, Note_on_c, 0, 59, 95
1, 59347, Note_off_c, 0, 59, 95
1, 59368, Note_on_c, 0, 63, 106
1, 59568, Note_off_c, 0, 63, 106
1, 59586, Note_on_c, 0, 65, 96
1, 59730, Note_off_c, 0, 65, 96
1, 59756, Note_on_c, 0, 68, 99
1, 59894, Note_off_c, 0, 68, 99
1, 60119, Note_on_c, 0, 65, 95
1, 60227, Note_off_c, 0, 65, 95
1, 60240, Note_on_c, 0, 61, 97
1, 60426, Note_off_c, 0, 61, 97
1, 60438, Note_on_c, 0, 64, 103
1, 60613, Note_off_c, 0, 64, 103
1, 60622, Note_on_c, 0, 69, 98
1, 60735, Note_off_c, 0, 69, 98
1, 60738, Note_on_c, 0, 71, 104
1, 61009, Note_off_c, 0, 71, 104
1, 61012, Note_on_c, 0, 70, 106
1, 61187, Note_off_c, 0, 70, 106
1, 61194, Note_on_c, 0, 66, 98
1, 61371, Note_off_c, 0, 66, 98
1, 61380, Note_on_c, 0, 67, 95
1, 61545, Note_off_c, 0, 67, 95
1, 61547, Note_on_c, 0, 63, 92
1, 61718, Note_off_c, 0, 63, 92
1, 61718, Note_on_c, 0, 68, 99
1, 61922, Note_off_c, 0, 68, 99
1, 61963, Note_on_c, 0, 65, 92
1, 62111, Note_off_c, 0, 65, 92
1, 62124, Note_on_c, 0, 66, 89
1, 62251, Note_off_c, 0, 66, 89
1, 62310, Note_on_c, 0, 70, 104
1, 62521, Note_off_c, 0, 70, 104
1, 62536, Note_on_c, 0, 67, 103
1, 62688, Note_off_c, 0, 67, 103
1, 62698, Note_on_c, 0, 68, 98
1, 62892, Note_off_c, 0, 68, 98
1, 62908, Note_on_c, 0, 71, 102
1, 63121, Note_off_c, 0, 71, 102
1, 63122, Note_on_c, 0, 73, 86
1, 63267, Note_off_c, 0, 73, 86
1, 63320, Note_on_c, 0, 75, 93
1, 63541, Note_off_c, 0, 75, 93
1, 63576, Note_on_c, 0, 74, 100
1, 63788, Note_off_c, 0, 74, 100
1, 63797, Note_on_c, 0, 73, 93
1, 63920, Note_off_c, 0, 73, 93
1, 63988, Note_on_c, 0, 61, 104
1, 64121, Note_off_c, 0, 61, 104
1, 64138, Note_on_c, 0, 63, 100
1, 64262, Note_off_c, 0, 63, 100
1, 64351, Note_on_c, 0, 73, 94
1, 64564, Note_off_c, 0, 73, 94
1, 64574, Note_on_c, 0, 72, 96
1, 64752, Note_off_c, 0, 72, 96
1, 64760, Note_on_c, 0, 71, 106
1, 64927, Note_off_c, 0, 71, 106
1, 64964, Note_on_c, 0, 60, 98
1, 65164, Note_off_c, 0, 60, 98
1, 65220, Note_on_c, 0, 61, 91
1, 65357, Note_off_c, 0, 61, 91
1, 65402, Note_on_c, 0, 71, 105
1, 65600, Note_off_c, 0, 71, 105
1, 65667, Note_on_c, 0, 68, 88
1, 65814, Note_off_c, 0, 68, 88
1, 65832, Note_on_c, 0, 69, 102
1, 66007, Note_off_c, 0, 69, 102
1, 66172, Note_on_c, 0, 65, 90
1, 66287, Note_off_c, 0, 65, 90
1, 66294, Note_on_c, 0, 66, 86
1, 66401, Note_off_c, 0, 66, 86
1, 66415, Note_on_c, 0, 70, 91
1, 66574, Note_off_c, 0, 70, 91
1, 66593, Note_on_c, 0, 69, 101
1, 66747, Note_off_c, 0, 69, 101
1, 66853, Note_on_c, 0, 67, 88
1, 66918, Note_off_c, 0, 67, 88
1, 66931, Note_on_c, 0, 68, 83
1, 67016, Note_off_c, 0, 68, 83
1, 67026, Note_on_c, 0, 70, 99
1, 67294, Note_off_c, 0, 70, 99
1, 67305, Note_on_c, 0, 68, 100
1, 67514, Note_off_c, 0, 68, 100
1, 67524, Note_on_c, 0, 67, 99
1, 67695, Note_off_c, 0, 67, 99
1, 67737, Note_on_c, 0, 66, 99
1, 67931, Note_off_c, 0, 66, 99
1, 67947, Note_on_c, 0, 65, 96
1, 68081, Note_off_c, 0, 65, 96
1, 68132, Note_on_c, 0, 64, 110
1, 68350, Note_off_c, 0, 64, 110
1, 68359, Note_on_c, 0, 63, 97
1, 68582, Note_off_c, 0, 63, 97
1, 68587, Note_on_c, 0, 58, 96
1, 68715, Note_off_c, 0, 58, 96
1, 70237, Note_on_c, 0, 68, 98
1, 70389, Note_off_c, 0, 68, 98
1, 70438, Note_on_c, 0, 68, 104
1, 70563, Note_off_c, 0, 68, 104
1, 70621, Note_on_c, 0, 68, 103
1, 70751, Note_off_c, 0, 68, 103
1, 70835, Note_on_c, 0, 68, 101
1, 70985, Note_off_c, 0, 68, 101
1, 71053, Note_on_c, 0, 68, 103
1, 71164, Note_off_c, 0, 68, 103
1, 71230, Note_on_c, 0, 68, 99
1, 71343, Note_off_c, 0, 68, 99
1, 71991, Note_on_c, 0, 68, 92
1, 72114, Note_off_c, 0, 68, 92
1, 72158, Note_on_c, 0, 68, 101
1, 72259, Note_off_c, 0, 68, 101
1, 72379, Note_on_c, 0, 68, 100
1, 72511, Note_off_c, 0, 68, 100
1, 72585, Note_on_c, 0, 68, 97
1, 72722, Note_off_c, 0, 68, 97
1, 72787, Note_on_c, 0, 68, 100
1, 72928, Note_off_c, 0, 68, 100
1, 73010, Note_on_c, 0, 68, 100
1, 73140, Note_off_c, 0, 68, 100
1, 73205, Note_on_c, 0, 68, 101
1, 73314, Note_off_c, 0, 68, 101
1, 74686, Note_on_c, 0, 68, 98
1, 74793, Note_off_c, 0, 68, 98
1, 74881, Note_on_c, 0, 68, 101
1, 74979, Note_off_c, 0, 68, 101
1, 75096, Note_on_c, 0, 68, 94
1, 75220, Note_off_c, 0, 68, 94
1, 75299, Note_on_c, 0, 68, 101
1, 75427, Note_off_c, 0, 68, 101
1, 75509, Note_on_c, 0, 68, 103
1, 75622, Note_off_c, 0, 68, 103
1, 75725, Note_on_c, 0, 68, 103
1, 75843, Note_off_c, 0, 68, 103
1, 75973, Note_on_c, 0, 68, 99
1, 76164, Note_off_c, 0, 68, 99
1, 76190, Note_on_c, 0, 69, 94
1, 76341, Note_off_c, 0, 69, 94
1, 76404, Note_on_c, 0, 68, 100
1, 76548, Note_off_c, 0, 68, 100
1, 76626, Note_on_c, 0, 68, 102
1, 76752, Note_off_c, 0, 68, 102
1, 77044, Note_on_c, 0, 62, 103
1, 77229, Note_off_c, 0, 62, 103
1, 77437, Note_on_c, 0, 62, 104
1, 77622, Note_off_c, 0, 62, 104
1, 77876, Note_on_c, 0, 68, 100
1, 78037, Note_off_c, 0, 68, 100
1, 78337, Note_on_c, 0, 62, 107
1, 78491, Note_off_c, 0, 62, 107
1, 78815, Note_on_c, 0, 61, 92
1, 78969, Note_off_c, 0, 61, 92
1, 79275, Note_on_c, 0, 62, 104
1, 79427, Note_off_c, 0, 62, 104
1, 79585, Note_on_c, 0, 63, 111
1, 79777, Note_off_c, 0, 63, 111
1, 80008, Note_on_c, 0, 61, 75
1, 80108, Note_off_c, 0, 61, 75
1, 80162, Note_on_c, 0, 62, 104
1, 80455, Note_off_c, 0, 62, 104
1, 80462, Note_on_c, 0, 61, 99
1, 80685, Note_on_c, 0, 56, 95
1, 80685, Note_off_c, 0, 61, 99
1, 80956, Note_off_c, 0, 56, 95
1, 80985, Note_on_c, 0, 50, 96
1, 81162, Note_off_c, 0, 50, 96
1, 81228, Note_on_c, 0, 57, 96
1, 81387, Note_off_c, 0, 57, 96
1, 85528, Note_on_c, 0, 49, 102
1, 85601, Note_off_c, 0, 49, 102
1, 85621, Note_on_c, 0, 46, 103
1, 85683, Note_off_c, 0, 46, 103
1, 85686, Note_on_c, 0, 45, 101
1, 85792, Note_off_c, 0, 45, 101
1, 85797, Note_on_c, 0, 49, 101
1, 85881, Note_off_c, 0, 49, 101
1, 85884, Note_on_c, 0, 53, 102
1, 85962, Note_off_c, 0, 53, 102
1, 85989, Note_on_c, 0, 56, 105
1, 86097, Note_off_c, 0, 56, 105
1, 86120, Note_on_c, 0, 56, 105
1, 86218, Note_off_c, 0, 56, 105
1, 86223, Note_on_c, 0, 53, 99
1, 86431, Note_off_c, 0, 53, 99
1, 86444, Note_on_c, 0, 48, 83
1, 86572, Note_off_c, 0, 48, 83
1, 86575, Note_on_c, 0, 50, 93
1, 86744, Note_off_c, 0, 50, 93
1, 86755, Note_on_c, 0, 56, 96
1, 86874, Note_off_c, 0, 56, 96
1, 86893, Note_on_c, 0, 51, 96
1, 87236, Note_off_c, 0, 51, 96
1, 87290, Note_on_c, 0, 54, 84
1, 87428, Note_off_c, 0, 54, 84
1, 87438, Note_on_c, 0, 58, 96
1, 87654, Note_off_c, 0, 58, 96
1, 87689, Note_on_c, 0, 56, 84
1, 87809, Note_off_c, 0, 56, 84
1, 87865, Note_on_c, 0, 59, 98
1, 88036, Note_off_c, 0, 59, 98
1, 88246, Note_on_c, 0, 62, 108
1, 88411, Note_off_c, 0, 62, 108
1, 88698, Note_on_c, 0, 61, 102
1, 88877, Note_off_c, 0, 61, 102
1, 89100, Note_on_c, 0, 56, 101
1, 89250, Note_off_c, 0, 56, 101
1, 89496, Note_on_c, 0, 60, 98
1, 89642, Note_off_c, 0, 60, 98
1, 89911, Note_on_c, 0, 65, 103
1, 90080, Note_off_c, 0, 65, 103
1, 90380, Note_on_c, 0, 66, 97
1, 90578, Note_off_c, 0, 66, 97
1, 90784, Note_on_c, 0, 59, 99
1, 91033, Note_off_c, 0, 59, 99
1, 91280, Note_on_c, 0, 63, 112
1, 91488, Note_off_c, 0, 63, 112
1, 91592, Note_on_c, 0, 66, 100
1, 91777, Note_off_c, 0, 66, 100
1, 91851, Note_on_c, 0, 67, 107
1, 92021, Note_off_c, 0, 67, 107
1, 92300, Note_on_c, 0, 59, 96
1, 92465, Note_off_c, 0, 59, 96
1, 92485, Note_on_c, 0, 64, 111
1, 92715, Note_off_c, 0, 64, 111
1, 92957, Note_on_c, 0, 67, 102
1, 93234, Note_off_c, 0, 67, 102
1, 93307, Note_on_c, 0, 68, 105
1, 93472, Note_off_c, 0, 68, 105
1, 93879, Note_on_c, 0, 61, 100
1, 94014, Note_off_c, 0, 61, 100
1, 94060, Note_on_c, 0, 65, 102
1, 94301, Note_off_c, 0, 65, 102
1, 94418, Note_on_c, 0, 68, 103
1, 94547, Note_off_c, 0, 68, 103
1, 94653, Note_on_c, 0, 69, 103
1, 94834, Note_off_c, 0, 69, 103
1, 95009, Note_on_c, 0, 62, 111
1, 95169, Note_off_c, 0, 62, 111
1, 95244, Note_on_c, 0, 66, 102
1, 95429, Note_off_c, 0, 66, 102
1, 95627, Note_on_c, 0, 69, 101
1, 95775, Note_off_c, 0, 69, 101
1, 95876, Note_on_c, 0, 70, 105
1, 96065, Note_off_c, 0, 70, 105
1, 97173, Note_on_c, 0, 71, 105
1, 97287, Note_off_c, 0, 71, 105
1, 97366, Note_on_c, 0, 68, 102
1, 97460, Note_off_c, 0, 68, 102
1, 97587, Note_on_c, 0, 70, 102
1, 97692, Note_off_c, 0, 70, 102
1, 97794, Note_on_c, 0, 71, 109
1, 97910, Note_off_c, 0, 71, 109
1, 97991, Note_on_c, 0, 70, 100
1, 98097, Note_off_c, 0, 70, 100
1, 98213, Note_on_c, 0, 67, 105
1, 98328, Note_off_c, 0, 67, 105
1, 98408, Note_on_c, 0, 69, 100
1, 98534, Note_off_c, 0, 69, 100
1, 98642, Note_on_c, 0, 70, 102
1, 98770, Note_off_c, 0, 70, 102
1, 98876, Note_on_c, 0, 69, 98
1, 98993, Note_off_c, 0, 69, 98
1, 99058, Note_on_c, 0, 66, 100
1, 99190, Note_off_c, 0, 66, 100
1, 99278, Note_on_c, 0, 68, 98
1, 99402, Note_off_c, 0, 68, 98
1, 99492, Note_on_c, 0, 69, 99
1, 99626, Note_off_c, 0, 69, 99
1, 99726, Note_on_c, 0, 68, 98
1, 99821, Note_off_c, 0, 68, 98
1, 99916, Note_on_c, 0, 65, 99
1, 100116, Note_off_c, 0, 65, 99
1, 100767, Note_on_c, 0, 67, 94
1, 100948, Note_off_c, 0, 67, 94
1, 100990, Note_on_c, 0, 68, 102
1, 101082, Note_off_c, 0, 68, 102
1, 101162, Note_on_c, 0, 69, 104
1, 101297, Note_off_c, 0, 69, 104
1, 101393, Note_on_c, 0, 70, 104
1, 101521, Note_off_c, 0, 70, 104
1, 101621, Note_on_c, 0, 66, 104
1, 101734, Note_off_c, 0, 66, 104
1, 101814, Note_on_c, 0, 67, 102
1, 101890, Note_off_c, 0, 67, 102
1, 101890, Note_on_c, 0, 68, 90
1, 101967, Note_off_c, 0, 68, 90
1, 102055, Note_on_c, 0, 70, 100
1, 102207, Note_off_c, 0, 70, 100
1, 102269, Note_on_c, 0, 71, 104
1, 102417, Note_off_c, 0, 71, 104
1, 102474, Note_on_c, 0, 68, 97
1, 102622, Note_off_c, 0, 68, 97
1, 102689, Note_on_c, 0, 69, 99
1, 102809, Note_off_c, 0, 69, 99
1, 102923, Note_on_c, 0, 71, 106
1, 103071, Note_off_c, 0, 71, 106
1, 103123, Note_on_c, 0, 72, 108
1, 103312, Note_off_c, 0, 72, 108
1, 103391, Note_on_c, 0, 68, 102
1, 103532, Note_off_c, 0, 68, 102
1, 103669, Note_on_c, 0, 73, 83
1, 103804, Note_off_c, 0, 73, 83
1, 104125, Note_on_c, 0, 69, 94
1, 104201, Note_off_c, 0, 69, 94
1, 104211, Note_on_c, 0, 68, 104
1, 104257, Note_off_c, 0, 68, 104
1, 104263, Note_on_c, 0, 67, 104
1, 104328, Note_off_c, 0, 67, 104
1, 104341, Note_on_c, 0, 65, 95
1, 104497, Note_off_c, 0, 65, 95
1, 104617, Note_on_c, 0, 71, 105
1, 104682, Note_off_c, 0, 71, 105
1, 104694, Note_on_c, 0, 72, 100
1, 104796, Note_off_c, 0, 72, 100
1, 104996, Note_on_c, 0, 68, 98
1, 105105, Note_off_c, 0, 68, 98
1, 105117, Note_on_c, 0, 67, 106
1, 105211, Note_off_c, 0, 67, 106
1, 105224, Note_on_c, 0, 65, 97
1, 105340, Note_off_c, 0, 65, 97
1, 105437, Note_on_c, 0, 71, 104
1, 105553, Note_off_c, 0, 71, 104
1, 105599, Note_on_c, 0, 68, 94
1, 105693, Note_off_c, 0, 68, 94
1, 105701, Note_on_c, 0, 67, 101
1, 105781, Note_off_c, 0, 67, 101
1, 105786, Note_on_c, 0, 66, 101
1, 105864, Note_off_c, 0, 66, 101
1, 105876, Note_on_c, 0, 64, 100
1, 105972, Note_off_c, 0, 64, 100
1, 106071, Note_on_c, 0, 70, 105
1, 106198, Note_off_c, 0, 70, 105
1, 106228, Note_on_c, 0, 66, 99
1, 106321, Note_off_c, 0, 66, 99
1, 106329, Note_on_c, 0, 65, 103
1, 106446, Note_off_c, 0, 65, 103
1, 106478, Note_on_c, 0, 63, 100
1, 106630, Note_off_c, 0, 63, 100
1, 106669, Note_on_c, 0, 69, 99
1, 106800, Note_off_c, 0, 69, 99
1, 106813, Note_on_c, 0, 64, 101
1, 106958, Note_off_c, 0, 64, 101
1, 106971, Note_on_c, 0, 65, 97
1, 107072, Note_off_c, 0, 65, 97
1, 107072, Note_on_c, 0, 71, 98
1, 107162, Note_off_c, 0, 71, 98
1, 107336, Note_on_c, 0, 65, 92
1, 107516, Note_off_c, 0, 65, 92
1, 107542, Note_on_c, 0, 66, 90
1, 107657, Note_off_c, 0, 66, 90
1, 107681, Note_on_c, 0, 70, 102
1, 107944, Note_off_c, 0, 70, 102
1, 107985, Note_on_c, 0, 67, 99
1, 108113, Note_off_c, 0, 67, 99
1, 108121, Note_on_c, 0, 68, 104
1, 108312, Note_off_c, 0, 68, 104
1, 108320, Note_on_c, 0, 67, 99
1, 108407, Note_off_c, 0, 67, 99
1, 108428, Note_on_c, 0, 70, 102
1, 108545, Note_off_c, 0, 70, 102
1, 108564, Note_on_c, 0, 71, 97
1, 108717, Note_off_c, 0, 71, 97
1, 108780, Note_on_c, 0, 75, 80
1, 108865, Note_off_c, 0, 75, 80
1, 109028, Note_on_c, 0, 78, 99
1, 109516, Note_off_c, 0, 78, 99
1, 109611, Note_on_c, 0, 75, 105
1, 109807, Note_off_c, 0, 75, 105
1, 109825, Note_on_c, 0, 73, 99
1, 109956, Note_off_c, 0, 73, 99
1, 109968, Note_on_c, 0, 69, 100
1, 110154, Note_off_c, 0, 69, 100
1, 110163, Note_on_c, 0, 66, 103
1, 110363, Note_off_c, 0, 66, 103
1, 111774, Note_on_c, 0, 78, 74
1, 111939, Note_off_c, 0, 78, 74
1, 111954, Note_on_c, 0, 79, 107
1, 112069, Note_off_c, 0, 79, 107
1, 112081, Note_on_c, 0, 80, 102
1, 112325, Note_off_c, 0, 80, 102
1, 112333, Note_on_c, 0, 79, 103
1, 112422, Note_off_c, 0, 79, 103
1, 112535, Note_on_c, 0, 77, 104
1, 112770, Note_off_c, 0, 77, 104
1, 112776, Note_on_c, 0, 78, 97
1, 112889, Note_off_c, 0, 78, 97
1, 113000, Note_on_c, 0, 77, 103
1, 113130, Note_off_c, 0, 77, 103
1, 113136, Note_on_c, 0, 76, 96
1, 113310, Note_off_c, 0, 76, 96
1, 113343, Note_on_c, 0, 75, 106
1, 113773, Note_off_c, 0, 75, 106
1, 113791, Note_on_c, 0, 71, 106
1, 113922, Note_off_c, 0, 71, 106
1, 114095, Note_on_c, 0, 67, 100
1, 114245, Note_off_c, 0, 67, 100
1, 114372, Note_on_c, 0, 71, 111
1, 114634, Note_off_c, 0, 71, 111
1, 114645, Note_on_c, 0, 67, 106
1, 114884, Note_off_c, 0, 67, 106
1, 114899, Note_on_c, 0, 66, 103
1, 115076, Note_off_c, 0, 66, 103
1, 115276, Note_on_c, 0, 58, 105
1, 115457, Note_off_c, 0, 58, 105
1, 115487, Note_on_c, 0, 66, 105
1, 115628, Note_off_c, 0, 66, 105
1, 115632, Note_on_c, 0, 65, 96
1, 115852, Note_off_c, 0, 65, 96
1, 115860, Note_on_c, 0, 69, 73
1, 116072, Note_off_c, 0, 69, 73
1, 116079, Note_on_c, 0, 65, 109
1, 116249, Note_off_c, 0, 65, 109
1, 116297, Note_on_c, 0, 63, 100
1, 116424, Note_off_c, 0, 63, 100
1, 116443, Note_on_c, 0, 64, 111
1, 116666, Note_off_c, 0, 64, 111
1, 116705, Note_on_c, 0, 61, 104
1, 116916, Note_off_c, 0, 61, 104
1, 116920, Note_on_c, 0, 58, 102
1, 117108, Note_off_c, 0, 58, 102
1, 117196, Note_on_c, 0, 52, 93
1, 117340, Note_off_c, 0, 52, 93
1, 117377, Note_on_c, 0, 57, 101
1, 117508, Note_off_c, 0, 57, 101
1, 117532, Note_on_c, 0, 63, 112
1, 117773, Note_off_c, 0, 63, 112
1, 117793, Note_on_c, 0, 58, 96
1, 117987, Note_off_c, 0, 58, 96
1, 117990, Note_on_c, 0, 54, 97
1, 118127, Note_off_c, 0, 54, 97
1, 118165, Note_on_c, 0, 59, 102
1, 118364, Note_off_c, 0, 59, 102
1, 118364, Note_on_c, 0, 67, 103
1, 118531, Note_off_c, 0, 67, 103
1, 118538, Note_on_c, 0, 62, 111
1, 118792, Note_off_c, 0, 62, 111
1, 118808, Note_on_c, 0, 59, 90
1, 118948, Note_off_c, 0, 59, 90
1, 118956, Note_on_c, 0, 61, 105
1, 119168, Note_off_c, 0, 61, 105
1, 119252, Note_on_c, 0, 69, 107
1, 119392, Note_off_c, 0, 69, 107
1, 119397, Note_on_c, 0, 66, 105
1, 119595, Note_off_c, 0, 66, 105
1, 119600, Note_on_c, 0, 61, 96
1, 119807, Note_off_c, 0, 61, 96
1, 119814, Note_on_c, 0, 64, 113
1, 119991, Note_off_c, 0, 64, 113
1, 120066, Note_on_c, 0, 71, 98
1, 120255, Note_off_c, 0, 71, 98
1, 120255, Note_on_c, 0, 68, 105
1, 120477, Note_off_c, 0, 68, 105
1, 120493, Note_on_c, 0, 64, 96
1, 120585, Note_off_c, 0, 64, 96
1, 120654, Note_on_c, 0, 66, 96
1, 120873, Note_off_c, 0, 66, 96
1, 120900, Note_on_c, 0, 74, 97
1, 121058, Note_off_c, 0, 74, 97
1, 121064, Note_on_c, 0, 70, 103
1, 121236, Note_off_c, 0, 70, 103
1, 121331, Note_on_c, 0, 66, 88
1, 121477, Note_off_c, 0, 66, 88
1, 121484, Note_on_c, 0, 68, 101
1, 121811, Note_off_c, 0, 68, 101
1, 123280, Note_on_c, 0, 68, 110
1, 123715, Note_off_c, 0, 68, 110
1, 124013, Note_on_c, 0, 68, 111
1, 124240, Note_off_c, 0, 68, 111
1, 124438, Note_on_c, 0, 65, 108
1, 124638, Note_off_c, 0, 65, 108
1, 124834, Note_on_c, 0, 69, 99
1, 124999, Note_off_c, 0, 69, 99
1, 125014, Note_on_c, 0, 68, 105
1, 125125, Note_off_c, 0, 68, 105
1, 125135, Note_on_c, 0, 67, 108
1, 125272, Note_off_c, 0, 67, 108
1, 125347, Note_on_c, 0, 63, 106
1, 125482, Note_off_c, 0, 63, 106
1, 125547, Note_on_c, 0, 68, 110
1, 125701, Note_off_c, 0, 68, 110
1, 125713, Note_on_c, 0, 66, 104
1, 125928, Note_off_c, 0, 66, 104
1, 125958, Note_on_c, 0, 62, 111
1, 126193, Note_off_c, 0, 62, 111
1, 126208, Note_on_c, 0, 58, 97
1, 126325, Note_off_c, 0, 58, 97
1, 126583, Note_on_c, 0, 63, 115
1, 126742, Note_off_c, 0, 63, 115
1, 127000, Note_on_c, 0, 69, 110
1, 127205, Note_off_c, 0, 69, 110
1, 127436, Note_on_c, 0, 68, 108
1, 127656, Note_off_c, 0, 68, 108
1, 127863, Note_on_c, 0, 62, 114
1, 127998, Note_off_c, 0, 62, 114
1, 128087, Note_on_c, 0, 68, 108
1, 128254, Note_off_c, 0, 68, 108
1, 128261, Note_on_c, 0, 66, 102
1, 128433, Note_off_c, 0, 66, 102
1, 128508, Note_on_c, 0, 63, 105
1, 128697, Note_off_c, 0, 63, 105
1, 128709, Note_on_c, 0, 58, 97
1, 128868, Note_off_c, 0, 58, 97
1, 129116, Note_on_c, 0, 62, 109
1, 129299, Note_off_c, 0, 62, 109
1, 129528, Note_on_c, 0, 69, 109
1, 129728, Note_off_c, 0, 69, 109
1, 129960, Note_on_c, 0, 63, 112
1, 130186, Note_off_c, 0, 63, 112
1, 130381, Note_on_c, 0, 68, 107
1, 130629, Note_off_c, 0, 68, 107
1, 131169, Note_on_c, 0, 62, 107
1, 131431, Note_off_c, 0, 62, 107
1, 131469, Note_on_c, 0, 57, 97
1, 131591, Note_off_c, 0, 57, 97
1, 131624, Note_on_c, 0, 69, 96
1, 131712, Note_off_c, 0, 69, 96
1, 131720, Note_on_c, 0, 68, 102
1, 131807, Note_off_c, 0, 68, 102
1, 131884, Note_on_c, 0, 63, 112
1, 132065, Note_off_c, 0, 63, 112
1, 132137, Note_on_c, 0, 68, 93
1, 132381, Note_off_c, 0, 68, 93
1, 132467, Note_on_c, 0, 62, 108
1, 132728, Note_off_c, 0, 62, 108
1, 132919, Note_on_c, 0, 68, 103
1, 133212, Note_off_c, 0, 68, 103
1, 133317, Note_on_c, 0, 63, 114
1, 133574, Note_off_c, 0, 63, 114
1, 133725, Note_on_c, 0, 69, 104
1, 133974, Note_off_c, 0, 69, 104
1, 134017, Note_on_c, 0, 68, 107
1, 134279, Note_off_c, 0, 68, 107
1, 134333, Note_on_c, 0, 63, 98
1, 134587, Note_off_c, 0, 63, 98
1, 134648, Note_on_c, 0, 56, 96
1, 134752, Note_off_c, 0, 56, 96
1, 134767, Note_on_c, 0, 57, 69
1, 134952, Note_off_c, 0, 57, 69
1, 134979, Note_on_c, 0, 62, 108
1, 135326, Note_off_c, 0, 62, 108
1, 135848, Note_on_c, 0, 68, 106
1, 136045, Note_off_c, 0, 68, 106
1, 136231, Note_on_c, 0, 63, 113
1, 136412, Note_off_c, 0, 63, 113
1, 136472, Note_on_c, 0, 69, 103
1, 136668, Note_off_c, 0, 69, 103
1, 136676, Note_on_c, 0, 67, 104
1, 136844, Note_off_c, 0, 67, 104
1, 136885, Note_on_c, 0, 63, 110
1, 137052, Note_off_c, 0, 63, 110
1, 137115, Note_on_c, 0, 58, 97
1, 137342, Note_off_c, 0, 58, 97
1, 137388, Note_on_c, 0, 55, 74
1, 137503, Note_off_c, 0, 55, 74
1, 137504, Note_on_c, 0, 62, 111
1, 137746, Note_off_c, 0, 62, 111
1, 137911, Note_on_c, 0, 73, 98
1, 138155, Note_off_c, 0, 73, 98
1, 138355, Note_on_c, 0, 62, 110
1, 138568, Note_off_c, 0, 62, 110
1, 139174, Note_on_c, 0, 71, 109
1, 139323, Note_off_c, 0, 71, 109
1, 139417, Note_on_c, 0, 68, 104
1, 139493, Note_off_c, 0, 68, 104
1, 139498, Note_on_c, 0, 66, 100
1, 139567, Note_off_c, 0, 66, 100
1, 139573, Note_on_c, 0, 63, 110
1, 139743, Note_off_c, 0, 63, 110
1, 139825, Note_on_c, 0, 69, 104
1, 140004, Note_off_c, 0, 69, 104
1, 140220, Note_on_c, 0, 62, 114
1, 140401, Note_off_c, 0, 62, 114
1, 140627, Note_on_c, 0, 56, 101
1, 140806, Note_off_c, 0, 56, 101
1, 141001, Note_on_c, 0, 63, 112
1, 141172, Note_off_c, 0, 63, 112
1, 141186, Note_on_c, 0, 57, 93
1, 141417, Note_off_c, 0, 57, 93
1, 141504, Note_on_c, 0, 53, 82
1, 141569, Note_off_c, 0, 53, 82
1, 141617, Note_on_c, 0, 62, 110
1, 141776, Note_off_c, 0, 62, 110
1, 141847, Note_on_c, 0, 59, 96
1, 141960, Note_off_c, 0, 59, 96
1, 141976, Note_on_c, 0, 63, 108
1, 142197, Note_off_c, 0, 63, 108
1, 142447, Note_on_c, 0, 68, 103
1, 142686, Note_off_c, 0, 68, 103
1, 143278, Note_on_c, 0, 62, 111
1, 143471, Note_off_c, 0, 62, 111
1, 143502, Note_on_c, 0, 69, 99
1, 143633, Note_off_c, 0, 69, 99
1, 143685, Note_on_c, 0, 63, 107
1, 143890, Note_off_c, 0, 63, 107
1, 143930, Note_on_c, 0, 61, 103
1, 144117, Note_off_c, 0, 61, 103
1, 144894, Note_on_c, 0, 59, 98
1, 145092, Note_off_c, 0, 59, 98
1, 145114, Note_on_c, 0, 53, 93
1, 145276, Note_off_c, 0, 53, 93
1, 145306, Note_on_c, 0, 66, 96
1, 145472, Note_off_c, 0, 66, 96
1, 145506, Note_on_c, 0, 69, 103
1, 145722, Note_off_c, 0, 69, 103
1, 145730, Note_on_c, 0, 67, 92
1, 145912, Note_off_c, 0, 67, 92
1, 145927, Note_on_c, 0, 68, 87
1, 146056, Note_off_c, 0, 68, 87
1, 146099, Note_on_c, 0, 69, 101
1, 146291, Note_off_c, 0, 69, 101
1, 146318, Note_on_c, 0, 68, 101
1, 146515, Note_off_c, 0, 68, 101
1, 146522, Note_on_c, 0, 67, 102
1, 146741, Note_off_c, 0, 67, 102
1, 146749, Note_on_c, 0, 66, 102
1, 146934, Note_off_c, 0, 66, 102
1, 146951, Note_on_c, 0, 65, 101
1, 147101, Note_off_c, 0, 65, 101
1, 147109, Note_on_c, 0, 64, 105
1, 147305, Note_off_c, 0, 64, 105
1, 147312, Note_on_c, 0, 63, 110
1, 147543, Note_off_c, 0, 63, 110
1, 147570, Note_on_c, 0, 65, 106
1, 147728, Note_off_c, 0, 65, 106
1, 147739, Note_on_c, 0, 67, 102
1, 147924, Note_off_c, 0, 67, 102
1, 147927, Note_on_c, 0, 70, 96
1, 148104, Note_off_c, 0, 70, 96
1, 148115, Note_on_c, 0, 64, 103
1, 148361, Note_off_c, 0, 64, 103
1, 148383, Note_on_c, 0, 66, 96
1, 148547, Note_off_c, 0, 66, 96
1, 148552, Note_on_c, 0, 68, 99
1, 148736, Note_off_c, 0, 68, 99
1, 148760, Note_on_c, 0, 70, 101
1, 148969, Note_off_c, 0, 70, 101
1, 148984, Note_on_c, 0, 66, 95
1, 149255, Note_off_c, 0, 66, 95
1, 149275, Note_on_c, 0, 68, 89
1, 149386, Note_off_c, 0, 68, 89
1, 149397, Note_on_c, 0, 70, 101
1, 149574, Note_off_c, 0, 70, 101
1, 149581, Note_on_c, 0, 73, 99
1, 149820, Note_off_c, 0, 73, 99
1, 149851, Note_on_c, 0, 72, 97
1, 150048, Note_off_c, 0, 72, 97
1, 150064, Note_on_c, 0, 68, 104
1, 150200, Note_off_c, 0, 68, 104
1, 150238, Note_on_c, 0, 64, 106
1, 150463, Note_off_c, 0, 64, 106
1, 150522, Note_on_c, 0, 60, 87
1, 150587, Note_off_c, 0, 60, 87
1, 150676, Note_on_c, 0, 65, 96
1, 151468, Note_off_c, 0, 65, 96
1, 151532, Note_on_c, 0, 68, 96
1, 151739, Note_off_c, 0, 68, 96
1, 151784, Note_on_c, 0, 63, 113
1, 152044, Note_off_c, 0, 63, 113
1, 153430, Note_on_c, 0, 51, 104
1, 153556, Note_off_c, 0, 51, 104
1, 153560, Note_on_c, 0, 47, 102
1, 153711, Note_off_c, 0, 47, 102
1, 153721, Note_on_c, 0, 51, 102
1, 153839, Note_off_c, 0, 51, 102
1, 153854, Note_on_c, 0, 58, 102
1, 153996, Note_off_c, 0, 58, 102
1, 154020, Note_on_c, 0, 53, 100
1, 154700, Note_off_c, 0, 53, 100
1, 154706, Note_on_c, 0, 48, 100
1, 154799, Note_off_c, 0, 48, 100
1, 154921, Note_on_c, 0, 56, 102
1, 155131, Note_off_c, 0, 56, 102
1, 155142, Note_on_c, 0, 51, 109
1, 155395, Note_off_c, 0, 51, 109
1, 157598, Note_on_c, 0, 45, 109
1, 157720, Note_off_c, 0, 45, 109
1, 157728, Note_on_c, 0, 51, 106
1, 157904, Note_off_c, 0, 51, 106
1, 157921, Note_on_c, 0, 56, 103
1, 158048, Note_off_c, 0, 56, 103
1, 158048, Note_on_c, 0, 58, 105
1, 158152, Note_off_c, 0, 58, 105
1, 158183, Note_on_c, 0, 50, 101
1, 158433, Note_off_c, 0, 50, 101
1, 158489, Note_on_c, 0, 54, 101
1, 158620, Note_off_c, 0, 54, 101
1, 158635, Note_on_c, 0, 58, 104
1, 158803, Note_off_c, 0, 58, 104
1, 158879, Note_on_c, 0, 62, 112
1, 158966, Note_off_c, 0, 62, 112
1, 159072, Note_on_c, 0, 64, 106
1, 159183, Note_off_c, 0, 64, 106
1, 159194, Note_on_c, 0, 61, 105
1, 159305, Note_off_c, 0, 61, 105
1, 159320, Note_on_c, 0, 59, 93
1, 159401, Note_off_c, 0, 59, 93
1, 159427, Note_on_c, 0, 57, 94
1, 159500, Note_off_c, 0, 57, 94
1, 159511, Note_on_c, 0, 54, 94
1, 159742, Note_off_c, 0, 54, 94
1, 159750, Note_on_c, 0, 59, 103
1, 159876, Note_off_c, 0, 59, 103
1, 159899, Note_on_c, 0, 51, 103
1, 160134, Note_off_c, 0, 51, 103
1, 160186, Note_on_c, 0, 52, 94
1, 160359, Note_off_c, 0, 52, 94
1, 160372, Note_on_c, 0, 54, 98
1, 160555, Note_off_c, 0, 54, 98
1, 160573, Note_on_c, 0, 59, 100
1, 160794, Note_off_c, 0, 59, 100
1, 160798, Note_on_c, 0, 53, 105
1, 160943, Note_off_c, 0, 53, 105
1, 161120, Note_on_c, 0, 54, 100
1, 161188, Note_off_c, 0, 54, 100
1, 161196, Note_on_c, 0, 58, 105
1, 161348, Note_off_c, 0, 58, 105
1, 161373, Note_on_c, 0, 55, 87
1, 161492, Note_off_c, 0, 55, 87
1, 161515, Note_on_c, 0, 56, 98
1, 161755, Note_off_c, 0, 56, 98
1, 161768, Note_on_c, 0, 59, 100
1, 161950, Note_off_c, 0, 59, 100
1, 161960, Note_on_c, 0, 62, 96
1, 162174, Note_off_c, 0, 62, 96
1, 162194, Note_on_c, 0, 63, 106
1, 162317, Note_off_c, 0, 63, 106
1, 162495, Note_on_c, 0, 66, 105
1, 162761, Note_off_c, 0, 66, 105
1, 163630, Note_on_c, 0, 67, 102
1, 163886, Note_off_c, 0, 67, 102
1, 163898, Note_on_c, 0, 68, 104
1, 164053, Note_off_c, 0, 68, 104
1, 164082, Note_on_c, 0, 70, 104
1, 164267, Note_off_c, 0, 70, 104
1, 164294, Note_on_c, 0, 68, 107
1, 164510, Note_off_c, 0, 68, 107
1, 164537, Note_on_c, 0, 67, 104
1, 164695, Note_off_c, 0, 67, 104
1, 164714, Note_on_c, 0, 65, 102
1, 164856, Note_off_c, 0, 65, 102
1, 164967, Note_on_c, 0, 66, 99
1, 165103, Note_off_c, 0, 66, 99
1, 165159, Note_on_c, 0, 68, 101
1, 165397, Note_off_c, 0, 68, 101
1, 165405, Note_on_c, 0, 69, 97
1, 165521, Note_off_c, 0, 69, 97
1, 165592, Note_on_c, 0, 60, 100
1, 165840, Note_off_c, 0, 60, 100
1, 165857, Note_on_c, 0, 73, 96
1, 165998, Note_off_c, 0, 73, 96
1, 166006, Note_on_c, 0, 74, 102
1, 166224, Note_off_c, 0, 74, 102
1, 166241, Note_on_c, 0, 71, 107
1, 166389, Note_off_c, 0, 71, 107
1, 166473, Note_on_c, 0, 69, 106
1, 166629, Note_off_c, 0, 69, 106
1, 166633, Note_on_c, 0, 68, 95
1, 166839, Note_off_c, 0, 68, 95
1, 166848, Note_on_c, 0, 70, 102
1, 167084, Note_off_c, 0, 70, 102
1, 167104, Note_on_c, 0, 67, 106
1, 167317, Note_off_c, 0, 67, 106
1, 167327, Note_on_c, 0, 68, 93
1, 167512, Note_off_c, 0, 68, 93
1, 167524, Note_on_c, 0, 71, 107
1, 167704, Note_off_c, 0, 71, 107
1, 167730, Note_on_c, 0, 67, 98
1, 167898, Note_off_c, 0, 67, 98
1, 167909, Note_on_c, 0, 68, 101
1, 168108, Note_off_c, 0, 68, 101
1, 168121, Note_on_c, 0, 69, 103
1, 168336, Note_off_c, 0, 69, 103
1, 168387, Note_on_c, 0, 70, 99
1, 168534, Note_off_c, 0, 70, 99
1, 168537, Note_on_c, 0, 71, 108
1, 168728, Note_off_c, 0, 71, 108
1, 168733, Note_on_c, 0, 72, 109
1, 168961, Note_off_c, 0, 72, 109
1, 168969, Note_on_c, 0, 73, 100
1, 169170, Note_off_c, 0, 73, 100
1, 169176, Note_on_c, 0, 74, 102
1, 169418, Note_off_c, 0, 74, 102
1, 169427, Note_on_c, 0, 75, 107
1, 169623, Note_off_c, 0, 75, 107
1, 169634, Note_on_c, 0, 75, 106
1, 169819, Note_off_c, 0, 75, 106
1, 169827, Note_on_c, 0, 76, 108
1, 169986, Note_off_c, 0, 76, 108
1, 169993, Note_on_c, 0, 77, 102
1, 170206, Note_off_c, 0, 77, 102
1, 170209, Note_on_c, 0, 76, 106
1, 170405, Note_off_c, 0, 76, 106
1, 170410, Note_on_c, 0, 78, 106
1, 170623, Note_off_c, 0, 78, 106
1, 171868, Note_on_c, 0, 79, 108
1, 172134, Note_off_c, 0, 79, 108
1, 172155, Note_on_c, 0, 80, 104
1, 172369, Note_off_c, 0, 80, 104
1, 172375, Note_on_c, 0, 79, 106
1, 172587, Note_off_c, 0, 79, 106
1, 172592, Note_on_c, 0, 78, 99
1, 172791, Note_off_c, 0, 78, 99
1, 172794, Note_on_c, 0, 77, 102
1, 172992, Note_off_c, 0, 77, 102
1, 172999, Note_on_c, 0, 76, 95
1, 173131, Note_off_c, 0, 76, 95
1, 173193, Note_on_c, 0, 75, 99
1, 173480, Note_off_c, 0, 75, 99
1, 173505, Note_on_c, 0, 74, 97
1, 173609, Note_off_c, 0, 74, 97
1, 173624, Note_on_c, 0, 70, 106
1, 173795, Note_off_c, 0, 70, 106
1, 173806, Note_on_c, 0, 67, 107
1, 173968, Note_off_c, 0, 67, 107
1, 174237, Note_on_c, 0, 70, 108
1, 174433, Note_off_c, 0, 70, 108
1, 174667, Note_on_c, 0, 66, 102
1, 174859, Note_off_c, 0, 66, 102
1, 175074, Note_on_c, 0, 69, 87
1, 175285, Note_off_c, 0, 69, 87
1, 175485, Note_on_c, 0, 65, 103
1, 175685, Note_off_c, 0, 65, 103
1, 175900, Note_on_c, 0, 68, 106
1, 176108, Note_off_c, 0, 68, 106
1, 176339, Note_on_c, 0, 64, 106
1, 176503, Note_off_c, 0, 64, 106
1, 176687, Note_on_c, 0, 67, 101
1, 176953, Note_off_c, 0, 67, 101
1, 177122, Note_on_c, 0, 63, 113
1, 177395, Note_off_c, 0, 63, 113
1, 177977, Note_on_c, 0, 73, 99
1, 178216, Note_off_c, 0, 73, 99
1, 178264, Note_on_c, 0, 71, 111
1, 178463, Note_off_c, 0, 71, 111
1, 178589, Note_on_c, 0, 66, 99
1, 178812, Note_off_c, 0, 66, 99
1, 178831, Note_on_c, 0, 62, 111
1, 179039, Note_off_c, 0, 62, 111
1, 179259, Note_on_c, 0, 55, 101
1, 179423, Note_off_c, 0, 55, 101
1, 179703, Note_on_c, 0, 63, 113
1, 179882, Note_off_c, 0, 63, 113
1, 180127, Note_on_c, 0, 59, 99
1, 180311, Note_off_c, 0, 59, 99
1, 180579, Note_on_c, 0, 72, 109
1, 180793, Note_off_c, 0, 72, 109
1, 181396, Note_on_c, 0, 60, 106
1, 181495, Note_off_c, 0, 60, 106
1, 181629, Note_on_c, 0, 71, 110
1, 181837, Note_off_c, 0, 71, 110
1, 182055, Note_on_c, 0, 66, 103
1, 182175, Note_off_c, 0, 66, 103
1, 182237, Note_on_c, 0, 61, 115
1, 182367, Note_off_c, 0, 61, 115
1, 182636, Note_on_c, 0, 52, 98
1, 182837, Note_off_c, 0, 52, 98
1, 183068, Note_on_c, 0, 59, 98
1, 183244, Note_off_c, 0, 59, 98
1, 183500, Note_on_c, 0, 51, 104
1, 183715, Note_off_c, 0, 51, 104
1, 183920, Note_on_c, 0, 61, 104
1, 184161, Note_off_c, 0, 61, 104
1, 184792, Note_on_c, 0, 62, 109
1, 184953, Note_off_c, 0, 62, 109
1, 185010, Note_on_c, 0, 59, 99
1, 185180, Note_off_c, 0, 59, 99
1, 185378, Note_on_c, 0, 54, 104
1, 185543, Note_off_c, 0, 54, 104
1, 185559, Note_on_c, 0, 49, 98
1, 185772, Note_off_c, 0, 49, 98
1, 186005, Note_on_c, 0, 48, 102
1, 186192, Note_off_c, 0, 48, 102
1, 186432, Note_on_c, 0, 56, 103
1, 186628, Note_off_c, 0, 56, 103
1, 186864, Note_on_c, 0, 47, 100
1, 187076, Note_off_c, 0, 47, 100
1, 187299, Note_on_c, 0, 57, 96
1, 187492, Note_off_c, 0, 57, 96
1, 187713, Note_on_c, 0, 48, 100
1, 187937, Note_off_c, 0, 48, 100
1, 187944, Note_on_c, 0, 49, 95
1, 188084, Note_off_c, 0, 49, 95
1, 188143, Note_on_c, 0, 59, 100
1, 188291, Note_off_c, 0, 59, 100
1, 188347, Note_on_c, 0, 53, 97
1, 188539, Note_off_c, 0, 53, 97
1, 188544, Note_on_c, 0, 54, 92
1, 188710, Note_off_c, 0, 54, 92
1, 188723, Note_on_c, 0, 58, 101
1, 188974, Note_off_c, 0, 58, 101
1, 188980, Note_on_c, 0, 55, 91
1, 189133, Note_off_c, 0, 55, 91
1, 189140, Note_on_c, 0, 56, 92
1, 189307, Note_off_c, 0, 56, 92
1, 189313, Note_on_c, 0, 57, 98
1, 189466, Note_off_c, 0, 57, 98
1, 189545, Note_on_c, 0, 54, 99
1, 189689, Note_off_c, 0, 54, 99
1, 189697, Note_on_c, 0, 50, 101
1, 189904, Note_off_c, 0, 50, 101
1, 189927, Note_on_c, 0, 45, 107
1, 190133, Note_off_c, 0, 45, 107
1, 190151, Note_on_c, 0, 44, 111
1, 190388, Note_off_c, 0, 44, 111
1, 191000, Note_on_c, 0, 59, 102
1, 191125, Note_off_c, 0, 59, 102
1, 191216, Note_on_c, 0, 54, 101
1, 191401, Note_off_c, 0, 54, 101
1, 191410, Note_on_c, 0, 48, 97
1, 191553, Note_off_c, 0, 48, 97
1, 191595, Note_on_c, 0, 58, 102
1, 191814, Note_off_c, 0, 58, 102
1, 191829, Note_on_c, 0, 53, 101
1, 192028, Note_off_c, 0, 53, 101
1, 192053, Note_on_c, 0, 49, 92
1, 192190, Note_off_c, 0, 49, 92
1, 192200, Note_on_c, 0, 60, 96
1, 192406, Note_off_c, 0, 60, 96
1, 192447, Note_on_c, 0, 55, 94
1, 192602, Note_off_c, 0, 55, 94
1, 192611, Note_on_c, 0, 50, 94
1, 192792, Note_off_c, 0, 50, 94
1, 192801, Note_on_c, 0, 59, 98
1, 192977, Note_off_c, 0, 59, 98
1, 192984, Note_on_c, 0, 53, 98
1, 193243, Note_off_c, 0, 53, 98
1, 193259, Note_on_c, 0, 49, 90
1, 193374, Note_off_c, 0, 49, 90
1, 193415, Note_on_c, 0, 58, 101
1, 193604, Note_off_c, 0, 58, 101
1, 193684, Note_on_c, 0, 53, 95
1, 193821, Note_off_c, 0, 53, 95
1, 193828, Note_on_c, 0, 54, 94
1, 194021, Note_off_c, 0, 54, 94
1, 194036, Note_on_c, 0, 59, 99
1, 194217, Note_off_c, 0, 59, 99
1, 194217, Note_on_c, 0, 55, 99
1, 194448, Note_off_c, 0, 55, 99
1, 194458, Note_on_c, 0, 56, 91
1, 194629, Note_off_c, 0, 56, 91
1, 194635, Note_on_c, 0, 59, 98
1, 194888, Note_off_c, 0, 59, 98
1, 194890, Note_on_c, 0, 61, 100
1, 195015, Note_off_c, 0, 61, 100
1, 195022, Note_on_c, 0, 63, 110
1, 195182, Note_off_c, 0, 63, 110
1, 195249, Note_on_c, 0, 66, 102
1, 195439, Note_off_c, 0, 66, 102
1, 195447, Note_on_c, 0, 65, 100
1, 195655, Note_off_c, 0, 65, 100
1, 195663, Note_on_c, 0, 63, 104
1, 195805, Note_off_c, 0, 63, 104
1, 195826, Note_on_c, 0, 62, 105
1, 195883, Note_off_c, 0, 62, 105
1, 195883, Note_on_c, 0, 64, 105
1, 195994, Note_off_c, 0, 64, 105
1, 196013, Note_on_c, 0, 63, 95
1, 196105, Note_off_c, 0, 63, 95
1, 196112, Note_on_c, 0, 60, 94
1, 196196, Note_off_c, 0, 60, 94
1, 196215, Note_on_c, 0, 57, 94
1, 196504, Note_off_c, 0, 57, 94
1, 196504, Note_on_c, 0, 52, 75
1, 196621, Note_off_c, 0, 52, 75
1, 196623, Note_on_c, 0, 56, 99
1, 197024, Note_off_c, 0, 56, 99
1, 197413, Note_on_c, 0, 55, 97
1, 197696, Note_off_c, 0, 55, 97
1, 197701, Note_on_c, 0, 59, 93
1, 197866, Note_off_c, 0, 59, 93
1, 197893, Note_on_c, 0, 62, 108
1, 198039, Note_off_c, 0, 62, 108
1, 198110, Note_on_c, 0, 58, 99
1, 198289, Note_on_c, 0, 62, 101
1, 198289, Note_off_c, 0, 58, 99
1, 198520, Note_off_c, 0, 62, 101
1, 198543, Note_on_c, 0, 65, 98
1, 198703, Note_off_c, 0, 65, 98
1, 198710, Note_on_c, 0, 59, 97
1, 198904, Note_off_c, 0, 59, 97
1, 198952, Note_on_c, 0, 62, 104
1, 199177, Note_off_c, 0, 62, 104
1, 199185, Note_on_c, 0, 65, 94
1, 199271, Note_off_c, 0, 65, 94
1, 199290, Note_on_c, 0, 67, 103
1, 199459, Note_off_c, 0, 67, 103
1, 199502, Note_on_c, 0, 64, 95
1, 199683, Note_off_c, 0, 64, 95
1, 199695, Note_on_c, 0, 66, 84
1, 199864, Note_off_c, 0, 66, 84
1, 199885, Note_on_c, 0, 70, 103
1, 200160, Note_off_c, 0, 70, 103
1, 200170, Note_on_c, 0, 67, 94
1, 200289, Note_off_c, 0, 67, 94
1, 200305, Note_on_c, 0, 68, 102
1, 200553, Note_off_c, 0, 68, 102
1, 200594, Note_on_c, 0, 70, 92
1, 200717, Note_off_c, 0, 70, 92
1, 200718, Note_on_c, 0, 71, 111
1, 200902, Note_off_c, 0, 71, 111
1, 200958, Note_on_c, 0, 75, 107
1, 201155, Note_off_c, 0, 75, 107
1, 201162, Note_on_c, 0, 74, 104
1, 201295, Note_off_c, 0, 74, 104
1, 201305, Note_on_c, 0, 74, 86
1, 201355, Note_off_c, 0, 74, 86
1, 201360, Note_on_c, 0, 71, 109
1, 201541, Note_off_c, 0, 71, 109
1, 201546, Note_on_c, 0, 70, 103
1, 201724, Note_off_c, 0, 70, 103
1, 201740, Note_on_c, 0, 73, 97
1, 201963, Note_off_c, 0, 73, 97
1, 201974, Note_on_c, 0, 72, 100
1, 202163, Note_off_c, 0, 72, 100
1, 202170, Note_on_c, 0, 69, 101
1, 202395, Note_off_c, 0, 69, 101
1, 202401, Note_on_c, 0, 68, 99
1, 202547, Note_off_c, 0, 68, 99
1, 202558, Note_on_c, 0, 71, 110
1, 202808, Note_off_c, 0, 71, 110
1, 202816, Note_on_c, 0, 70, 105
1, 203047, Note_off_c, 0, 70, 105
1, 203167, Note_on_c, 0, 58, 105
1, 203319, Note_off_c, 0, 58, 105
1, 203319, Note_on_c, 0, 69, 101
1, 203430, Note_off_c, 0, 69, 101
1, 203439, Note_on_c, 0, 66, 105
1, 203589, Note_off_c, 0, 66, 105
1, 203596, Note_on_c, 0, 64, 109
1, 203790, Note_off_c, 0, 64, 109
1, 204102, Note_on_c, 0, 65, 96
1, 204314, Note_off_c, 0, 65, 96
1, 204965, Note_on_c, 0, 68, 105
1, 205108, Note_off_c, 0, 68, 105
1, 205792, Note_on_c, 0, 68, 105
1, 205961, Note_off_c, 0, 68, 105
1, 206637, Note_on_c, 0, 68, 109
1, 206786, Note_off_c, 0, 68, 109
1, 207235, Note_on_c, 0, 68, 103
1, 207383, Note_off_c, 0, 68, 103
1, 207413, Note_on_c, 0, 68, 103
1, 207605, Note_off_c, 0, 68, 103
1, 207861, Note_on_c, 0, 80, 95
1, 208008, Note_off_c, 0, 80, 95
1, 208207, Note_on_c, 0, 80, 94
1, 208332, Note_off_c, 0, 80, 94
1, 208335, Note_on_c, 0, 81, 97
1, 208578, Note_off_c, 0, 81, 97
1, 208586, Note_on_c, 0, 82, 104
1, 208891, Note_off_c, 0, 82, 104
1, 211153, Note_on_c, 0, 68, 104
1, 211272, Note_off_c, 0, 68, 104
1, 211337, Note_on_c, 0, 68, 93
1, 211499, Note_off_c, 0, 68, 93
1, 211537, Note_on_c, 0, 68, 106
1, 211675, Note_off_c, 0, 68, 106
1, 211736, Note_on_c, 0, 68, 108
1, 211880, Note_off_c, 0, 68, 108
1, 211936, Note_on_c, 0, 68, 107
1, 212082, Note_off_c, 0, 68, 107
1, 212163, Note_on_c, 0, 68, 107
1, 212298, Note_off_c, 0, 68, 107
1, 212375, Note_on_c, 0, 68, 101
1, 212533, Note_off_c, 0, 68, 101
1, 212598, Note_on_c, 0, 68, 106
1, 212760, Note_off_c, 0, 68, 106
1, 213058, Note_on_c, 0, 68, 109
1, 213192, Note_off_c, 0, 68, 109
1, 213450, Note_on_c, 0, 68, 108
1, 213572, Note_off_c, 0, 68, 108
1, 213881, Note_on_c, 0, 68, 105
1, 214284, Note_off_c, 0, 68, 105
1, 214504, Note_on_c, 0, 80, 109
1, 214704, Note_off_c, 0, 80, 109
1, 214952, Note_on_c, 0, 82, 104
1, 215235, Note_off_c, 0, 82, 104
1, 217726, Note_on_c, 0, 83, 90
1, 217822, Note_off_c, 0, 83, 90
1, 217879, Note_on_c, 0, 83, 106
1, 218008, Note_off_c, 0, 83, 106
1, 218096, Note_on_c, 0, 83, 106
1, 218200, Note_off_c, 0, 83, 106
1, 218259, Note_on_c, 0, 83, 93
1, 218340, Note_off_c, 0, 83, 93
1, 218368, Note_on_c, 0, 81, 78
1, 218449, Note_off_c, 0, 81, 78
1, 218541, Note_on_c, 0, 79, 91
1, 218654, Note_off_c, 0, 79, 91
1, 219363, Note_on_c, 0, 82, 100
1, 219424, Note_off_c, 0, 82, 100
1, 219464, Note_on_c, 0, 83, 101
1, 219614, Note_off_c, 0, 83, 101
1, 219716, Note_on_c, 0, 83, 107
1, 219804, Note_off_c, 0, 83, 107
1, 219933, Note_on_c, 0, 83, 97
1, 220084, Note_off_c, 0, 83, 97
1, 220173, Note_on_c, 0, 80, 112
1, 220267, Note_off_c, 0, 80, 112
1, 221041, Note_on_c, 0, 83, 88
1, 221122, Note_off_c, 0, 83, 88
1, 221197, Note_on_c, 0, 83, 108
1, 221320, Note_off_c, 0, 83, 108
1, 221412, Note_on_c, 0, 83, 109
1, 221547, Note_off_c, 0, 83, 109
1, 221600, Note_on_c, 0, 83, 105
1, 221727, Note_off_c, 0, 83, 105
1, 221796, Note_on_c, 0, 83, 107
1, 221934, Note_off_c, 0, 83, 107
1, 221980, Note_on_c, 0, 83, 98
1, 222130, Note_off_c, 0, 83, 98
1, 222207, Note_on_c, 0, 83, 103
1, 222353, Note_off_c, 0, 83, 103
1, 222445, Note_on_c, 0, 83, 96
1, 222583, Note_off_c, 0, 83, 96
1, 222652, Note_on_c, 0, 80, 102
1, 222871, Note_off_c, 0, 80, 102
1, 223547, Note_on_c, 0, 82, 98
1, 223596, Note_off_c, 0, 82, 98
1, 223683, Note_on_c, 0, 83, 110
1, 223776, Note_off_c, 0, 83, 110
1, 223896, Note_on_c, 0, 83, 109
1, 223989, Note_off_c, 0, 83, 109
1, 224114, Note_on_c, 0, 83, 107
1, 224155, Note_off_c, 0, 83, 107
1, 224157, Note_on_c, 0, 82, 105
1, 224232, Note_off_c, 0, 82, 105
1, 224235, Note_on_c, 0, 83, 104
1, 224319, Note_off_c, 0, 83, 104
1, 224322, Note_on_c, 0, 86, 99
1, 224410, Note_off_c, 0, 86, 99
1, 224416, Note_on_c, 0, 85, 104
1, 224466, Note_off_c, 0, 85, 104
1, 224548, Note_on_c, 0, 83, 103
1, 224702, Note_off_c, 0, 83, 103
1, 224784, Note_on_c, 0, 83, 109
1, 224841, Note_off_c, 0, 83, 109
1, 225017, Note_on_c, 0, 83, 103
1, 225178, Note_off_c, 0, 83, 103
1, 225182, Note_on_c, 0, 85, 103
1, 225332, Note_off_c, 0, 85, 103
1, 225405, Note_on_c, 0, 83, 100
1, 225547, Note_off_c, 0, 83, 100
1, 225600, Note_on_c, 0, 83, 100
1, 225723, Note_off_c, 0, 83, 100
1, 225827, Note_on_c, 0, 83, 101
1, 225981, Note_off_c, 0, 83, 101
1, 226072, Note_on_c, 0, 86, 93
1, 226180, Note_off_c, 0, 86, 93
1, 226210, Note_on_c, 0, 83, 95
1, 226410, Note_off_c, 0, 83, 95
1, 226467, Note_on_c, 0, 83, 97
1, 226594, Note_off_c, 0, 83, 97
1, 226673, Note_on_c, 0, 83, 104
1, 226799, Note_off_c, 0, 83, 104
1, 226802, Note_on_c, 0, 84, 101
1, 226938, Note_off_c, 0, 84, 101
1, 226965, Note_on_c, 0, 88, 73
1, 227069, Note_off_c, 0, 88, 73
1, 227917, Note_on_c, 0, 83, 108
1, 228098, Note_off_c, 0, 83, 108
1, 228387, Note_on_c, 0, 82, 93
1, 228556, Note_off_c, 0, 82, 93
1, 228721, Note_on_c, 0, 81, 109
1, 228898, Note_off_c, 0, 81, 109
1, 229213, Note_on_c, 0, 78, 105
1, 229425, Note_off_c, 0, 78, 105
1, 229452, Note_on_c, 0, 76, 83
1, 229536, Note_off_c, 0, 76, 83
1, 230468, Note_on_c, 0, 77, 108
1, 230607, Note_off_c, 0, 77, 108
1, 230946, Note_on_c, 0, 80, 109
1, 231140, Note_off_c, 0, 80, 109
1, 231933, Note_on_c, 0, 82, 107
1, 232156, Note_off_c, 0, 82, 107
1, 232603, Note_on_c, 0, 83, 104
1, 232807, Note_off_c, 0, 83, 104
1, 233551, Note_on_c, 0, 82, 99
1, 233778, Note_off_c, 0, 82, 99
1, 234213, Note_on_c, 0, 80, 106
1, 234456, Note_off_c, 0, 80, 106
1, 235277, Note_on_c, 0, 73, 93
1, 235314, Note_off_c, 0, 73, 93
1, 235317, Note_on_c, 0, 77, 108
1, 235479, Note_off_c, 0, 77, 108
1, 235480, Note_on_c, 0, 73, 85
1, 235515, Note_off_c, 0, 73, 85
1, 235988, Note_on_c, 0, 76, 103
1, 236169, Note_off_c, 0, 76, 103
1, 236979, Note_on_c, 0, 77, 108
1, 237183, Note_off_c, 0, 77, 108
1, 237618, Note_on_c, 0, 78, 103
1, 237760, Note_off_c, 0, 78, 103
1, 237798, Note_on_c, 0, 79, 102
1, 237987, Note_off_c, 0, 79, 102
1, 238430, Note_on_c, 0, 79, 110
1, 238626, Note_off_c, 0, 79, 110
1, 238641, Note_on_c, 0, 80, 105
1, 238806, Note_off_c, 0, 80, 105
1, 239267, Note_on_c, 0, 80, 110
1, 239471, Note_off_c, 0, 80, 110
1, 239507, Note_on_c, 0, 79, 112
1, 239707, Note_off_c, 0, 79, 112
1, 240061, Note_on_c, 0, 79, 108
1, 240292, Note_off_c, 0, 79, 108
1, 240361, Note_on_c, 0, 77, 112
1, 240412, Note_off_c, 0, 77, 112
1, 240430, Note_on_c, 0, 78, 82
1, 240580, Note_off_c, 0, 78, 82
1, 241253, Note_on_c, 0, 70, 102
1, 241465, Note_off_c, 0, 70, 102
1, 241472, Note_on_c, 0, 77, 111
1, 241718, Note_off_c, 0, 77, 111
1, 241781, Note_on_c, 0, 76, 106
1, 241962, Note_off_c, 0, 76, 106
1, 242000, Note_on_c, 0, 73, 101
1, 242212, Note_off_c, 0, 73, 101
1, 242254, Note_on_c, 0, 72, 103
1, 242427, Note_off_c, 0, 72, 103
1, 242870, Note_on_c, 0, 70, 112
1, 243140, Note_off_c, 0, 70, 112
1, 243164, Note_on_c, 0, 69, 109
1, 243446, Note_off_c, 0, 69, 109
1, 243462, Note_on_c, 0, 68, 106
1, 243685, Note_off_c, 0, 68, 106
1, 243713, Note_on_c, 0, 66, 108
1, 243958, Note_off_c, 0, 66, 108
1, 243963, Note_on_c, 0, 65, 104
1, 244137, Note_off_c, 0, 65, 104
1, 244218, Note_on_c, 0, 63, 102
1, 244353, Note_off_c, 0, 63, 102
1, 245139, Note_on_c, 0, 63, 114
1, 245267, Note_off_c, 0, 63, 114
1, 245897, Note_on_c, 0, 62, 111
1, 246030, Note_off_c, 0, 62, 111
1, 246770, Note_on_c, 0, 61, 107
1, 246887, Note_off_c, 0, 61, 107
1, 247554, Note_on_c, 0, 69, 103
1, 247637, Note_off_c, 0, 69, 103
1, 247654, Note_on_c, 0, 68, 102
1, 247754, Note_off_c, 0, 68, 102
1, 247779, Note_on_c, 0, 68, 110
1, 247943, Note_off_c, 0, 68, 110
1, 248162, Note_on_c, 0, 71, 104
1, 248358, Note_off_c, 0, 71, 104
1, 248447, Note_on_c, 0, 69, 106
1, 248543, Note_off_c, 0, 69, 106
1, 248773, Note_on_c, 0, 66, 107
1, 248934, Note_off_c, 0, 66, 107
1, 249239, Note_on_c, 0, 69, 104
1, 249354, Note_off_c, 0, 69, 104
1, 250051, Note_on_c, 0, 68, 105
1, 250186, Note_off_c, 0, 68, 105
1, 250197, Note_on_c, 0, 67, 107
1, 250459, Note_off_c, 0, 67, 107
1, 250472, Note_on_c, 0, 66, 100
1, 250603, Note_off_c, 0, 66, 100
1, 250619, Note_on_c, 0, 69, 101
1, 250788, Note_off_c, 0, 69, 101
1, 250911, Note_on_c, 0, 65, 105
1, 251161, Note_off_c, 0, 65, 105
1, 251215, Note_on_c, 0, 68, 98
1, 251319, Note_off_c, 0, 68, 98
1, 251323, Note_on_c, 0, 69, 100
1, 251455, Note_off_c, 0, 69, 100
1, 251459, Note_on_c, 0, 71, 97
1, 251659, Note_off_c, 0, 71, 97
1, 251783, Note_on_c, 0, 64, 106
1, 251910, Note_off_c, 0, 64, 106
1, 252074, Note_on_c, 0, 68, 86
1, 252157, Note_off_c, 0, 68, 86
1, 252165, Note_on_c, 0, 69, 104
1, 252314, Note_off_c, 0, 69, 104
1, 252334, Note_on_c, 0, 70, 93
1, 252499, Note_off_c, 0, 70, 93
1, 252587, Note_on_c, 0, 63, 107
1, 252799, Note_off_c, 0, 63, 107
1, 252814, Note_on_c, 0, 66, 86
1, 252941, Note_off_c, 0, 66, 86
1, 252949, Note_on_c, 0, 69, 105
1, 253126, Note_off_c, 0, 69, 105
1, 253147, Note_on_c, 0, 65, 101
1, 253316, Note_off_c, 0, 65, 101
1, 253316, Note_on_c, 0, 68, 99
1, 253508, Note_off_c, 0, 68, 99
1, 253585, Note_on_c, 0, 68, 104
1, 253796, Note_off_c, 0, 68, 104
1, 253805, Note_on_c, 0, 67, 105
1, 253931, Note_off_c, 0, 67, 105
1, 253979, Note_on_c, 0, 65, 99
1, 254148, Note_off_c, 0, 65, 99
1, 254171, Note_on_c, 0, 65, 99
1, 254398, Note_off_c, 0, 65, 99
1, 254398, Note_on_c, 0, 68, 99
1, 254619, Note_off_c, 0, 68, 99
1, 254625, Note_on_c, 0, 65, 104
1, 254795, Note_off_c, 0, 65, 104
1, 254800, Note_on_c, 0, 62, 101
1, 254909, Note_off_c, 0, 62, 101
1, 254953, Note_on_c, 0, 64, 113
1, 255151, Note_off_c, 0, 64, 113
1, 255190, Note_on_c, 0, 61, 110
1, 255313, Note_off_c, 0, 61, 110
1, 255378, Note_on_c, 0, 57, 104
1, 255590, Note_off_c, 0, 57, 104
1, 255628, Note_on_c, 0, 55, 90
1, 255732, Note_off_c, 0, 55, 90
1, 255739, Note_on_c, 0, 56, 101
1, 256051, Note_off_c, 0, 56, 101
1, 256093, Note_on_c, 0, 57, 96
1, 256224, Note_off_c, 0, 57, 96
1, 256230, Note_on_c, 0, 59, 97
1, 256404, Note_off_c, 0, 59, 97
1, 256415, Note_on_c, 0, 63, 110
1, 256592, Note_off_c, 0, 63, 110
1, 256604, Note_on_c, 0, 62, 105
1, 256758, Note_off_c, 0, 62, 105
1, 256835, Note_on_c, 0, 58, 103
1, 256990, Note_off_c, 0, 58, 103
1, 256995, Note_on_c, 0, 54, 99
1, 257190, Note_off_c, 0, 54, 99
1, 257190, End_track
0, 0, End_of_file
