0, 0, Header, 1, 1, 2520
1, 0, Start_track
1, 0, Title_t, "Melody"
1, 0, Tempo, 555555
1, 0, Key_signature, -2, "major"
1, 0, Time_signature, 4, 2, 24, 8
1, 18017, Note_on_c, 0, 55, 80
1, 19735, Note_off_c, 0, 55, 80
1, 19892, Note_on_c, 0, 55, 80
1, 20352, Note_off_c, 0, 55, 80
1, 20437, Note_on_c, 0, 53, 80
1, 20871, Note_off_c, 0, 53, 80
1, 21306, Note_on_c, 0, 57, 80
1, 21509, Note_off_c, 0, 57, 80
1, 21592, Note_on_c, 0, 58, 80
1, 22277, Note_off_c, 0, 58, 80
1, 22406, Note_on_c, 0, 53, 80
1, 22979, Note_off_c, 0, 53, 80
1, 25544, Note_on_c, 0, 55, 80
1, 26119, Note_off_c, 0, 55, 80
1, 26217, Note_on_c, 0, 53, 80
1, 27085, Note_off_c, 0, 53, 80
1, 27529, Note_on_c, 0, 50, 80
1, 28111, Note_off_c, 0, 50, 80
1, 28160, Note_on_c, 0, 53, 80
1, 28627, Note_off_c, 0, 53, 80
1, 28656, Note_on_c, 0, 55, 80
1, 29989, Note_off_c, 0, 55, 80
1, 30031, Note_on_c, 0, 53, 80
1, 30820, Note_off_c, 0, 53, 80
1, 31460, Note_on_c, 0, 58, 80
1, 32478, Note_off_c, 0, 58, 80
1, 35662, Note_on_c, 0, 55, 80
1, 36129, Note_off_c, 0, 55, 80
1, 36235, Note_on_c, 0, 53, 80
1, 36845, Note_off_c, 0, 53, 80
1, 37159, Note_on_c, 0, 50, 80
1, 37945, Note_off_c, 0, 50, 80
1, 38676, Note_on_c, 0, 55, 80
1, 39953, Note_off_c, 0, 55, 80
1, 40017, Note_on_c, 0, 53, 80
1, 40729, Note_off_c, 0, 53, 80
1, 41395, Note_on_c, 0, 57, 80
1, 41709, Note_off_c, 0, 57, 80
1, 41764, Note_on_c, 0, 58, 80
1, 42412, Note_off_c, 0, 58, 80
1, 42574, Note_on_c, 0, 53, 80
1, 43268, Note_off_c, 0, 53, 80
1, 43759, Note_on_c, 0, 55, 80
1, 45694, Note_off_c, 0, 55, 80
1, 45771, Note_on_c, 0, 53, 80
1, 46215, Note_off_c, 0, 53, 80
1, 46215, Note_on_c, 0, 57, 80
1, 46390, Note_off_c, 0, 57, 80
1, 46482, Note_on_c, 0, 58, 80
1, 47278, Note_off_c, 0, 58, 80
1, 47648, Note_on_c, 0, 53, 80
1, 48458, Note_off_c, 0, 53, 80
1, 48902, Note_on_c, 0, 55, 80
1, 50207, Note_off_c, 0, 55, 80
1, 50281, Note_on_c, 0, 53, 80
1, 50928, Note_off_c, 0, 53, 80
1, 51423, Note_on_c, 0, 57, 80
1, 51626, Note_off_c, 0, 57, 80
1, 51672, Note_on_c, 0, 58, 80
1, 52527, Note_off_c, 0, 58, 80
1, 55799, Note_on_c, 0, 55, 80
1, 57705, Note_off_c, 0, 55, 80
1, 57782, Note_on_c, 0, 53, 80
1, 58499, Note_off_c, 0, 53, 80
1, 58907, Note_on_c, 0, 55, 80
1, 60213, Note_off_c, 0, 55, 80
1, 60275, Note_on_c, 0, 53, 80
1, 60989, Note_off_c, 0, 53, 80
1, 61410, Note_on_c, 0, 58, 80
1, 62386, Note_off_c, 0, 58, 80
1, 62473, Note_on_c, 0, 59, 80
1, 62834, Note_off_c, 0, 59, 80
1, 62912, Note_on_c, 0, 60, 80
1, 63629, Note_off_c, 0, 60, 80
1, 65896, Note_on_c, 0, 55, 80
1, 66432, Note_off_c, 0, 55, 80
1, 66529, Note_on_c, 0, 53, 80
1, 67214, Note_off_c, 0, 53, 80
1, 67621, Note_on_c, 0, 50, 80
1, 68319, Note_off_c, 0, 50, 80
1, 68332, Note_on_c, 0, 55, 80
1, 69039, Note_off_c, 0, 55, 80
1, 69493, Note_on_c, 0, 53, 80
1, 70348, Note_off_c, 0, 53, 80
1, 70728, Note_on_c, 0, 50, 80
1, 71186, Note_off_c, 0, 50, 80
1, 71246, Note_on_c, 0, 60, 80
1, 72532, Note_off_c, 0, 60, 80
1, 72624, Note_on_c, 0, 58, 80
1, 73869, Note_off_c, 0, 58, 80
1, 73924, Note_on_c, 0, 55, 80
1, 75979, Note_off_c, 0, 55, 80
1, 76546, Note_on_c, 0, 53, 80
1, 77204, Note_off_c, 0, 53, 80
1, 77329, Note_on_c, 0, 55, 80
1, 77612, Note_off_c, 0, 55, 80
1, 77686, Note_on_c, 0, 58, 80
1, 78396, Note_off_c, 0, 58, 80
1, 78433, Note_on_c, 0, 65, 80
1, 79163, Note_off_c, 0, 65, 80
1, 79632, Note_on_c, 0, 62, 80
1, 80442, Note_off_c, 0, 62, 80
1, 81071, Note_on_c, 0, 55, 80
1, 81371, Note_off_c, 0, 55, 80
1, 81421, Note_on_c, 0, 61, 80
1, 82193, Note_off_c, 0, 61, 80
1, 83451, Note_on_c, 0, 55, 80
1, 83830, Note_off_c, 0, 55, 80
1, 83917, Note_on_c, 0, 60, 80
1, 84736, Note_off_c, 0, 60, 80
1, 85967, Note_on_c, 0, 55, 80
1, 86392, Note_off_c, 0, 55, 80
1, 86609, Note_on_c, 0, 58, 80
1, 86821, Note_off_c, 0, 58, 80
1, 86922, Note_on_c, 0, 59, 80
1, 87477, Note_off_c, 0, 59, 80
1, 88510, Note_on_c, 0, 55, 80
1, 88865, Note_off_c, 0, 55, 80
1, 88938, Note_on_c, 0, 58, 80
1, 89708, Note_off_c, 0, 58, 80
1, 89770, Note_on_c, 0, 55, 80
1, 90228, Note_off_c, 0, 55, 80
1, 90320, Note_on_c, 0, 53, 80
1, 90930, Note_off_c, 0, 53, 80
1, 92832, Note_on_c, 0, 57, 80
1, 93054, Note_off_c, 0, 57, 80
1, 93081, Note_on_c, 0, 58, 80
1, 93719, Note_off_c, 0, 58, 80
1, 95366, Note_on_c, 0, 55, 80
1, 96046, Note_off_c, 0, 55, 80
1, 96576, Note_on_c, 0, 67, 80
1, 97379, Note_off_c, 0, 67, 80
1, 99143, Note_on_c, 0, 58, 80
1, 99965, Note_off_c, 0, 58, 80
1, 100978, Note_on_c, 0, 60, 80
1, 101746, Note_off_c, 0, 60, 80
1, 102808, Note_on_c, 0, 55, 80
1, 103821, Note_off_c, 0, 55, 80
1, 105249, Note_on_c, 0, 67, 80
1, 105923, Note_off_c, 0, 67, 80
1, 106515, Note_on_c, 0, 65, 80
1, 107237, Note_off_c, 0, 65, 80
1, 107732, Note_on_c, 0, 70, 80
1, 108440, Note_off_c, 0, 70, 80
1, 109069, Note_on_c, 0, 60, 80
1, 109841, Note_off_c, 0, 60, 80
1, 110228, Note_on_c, 0, 62, 80
1, 110833, Note_off_c, 0, 62, 80
1, 111010, Note_on_c, 0, 65, 80
1, 111638, Note_off_c, 0, 65, 80
1, 112064, Note_on_c, 0, 58, 80
1, 112749, Note_off_c, 0, 58, 80
1, 113299, Note_on_c, 0, 55, 80
1, 113878, Note_off_c, 0, 55, 80
1, 114483, Note_on_c, 0, 59, 80
1, 115095, Note_off_c, 0, 59, 80
1, 115687, Note_on_c, 0, 53, 80
1, 116193, Note_off_c, 0, 53, 80
1, 116278, Note_on_c, 0, 58, 80
1, 116949, Note_off_c, 0, 58, 80
1, 117422, Note_on_c, 0, 50, 80
1, 118159, Note_off_c, 0, 50, 80
1, 118692, Note_on_c, 0, 55, 80
1, 119363, Note_off_c, 0, 55, 80
1, 119955, Note_on_c, 0, 53, 80
1, 121311, Note_off_c, 0, 53, 80
1, 121347, Note_on_c, 0, 48, 80
1, 122472, Note_off_c, 0, 48, 80
1, 122508, Note_on_c, 0, 53, 80
1, 123798, Note_off_c, 0, 53, 80
1, 123877, Note_on_c, 0, 50, 80
1, 124293, Note_off_c, 0, 50, 80
1, 125635, Note_on_c, 0, 55, 80
1, 126213, Note_off_c, 0, 55, 80
1, 126245, Note_on_c, 0, 53, 80
1, 126925, Note_off_c, 0, 53, 80
1, 127003, Note_on_c, 0, 55, 80
1, 127285, Note_off_c, 0, 55, 80
1, 127348, Note_on_c, 0, 58, 80
1, 127954, Note_off_c, 0, 58, 80
1, 128025, Note_on_c, 0, 61, 80
1, 128381, Note_off_c, 0, 61, 80
1, 128412, Note_on_c, 0, 62, 80
1, 128638, Note_off_c, 0, 62, 80
1, 128675, Note_on_c, 0, 61, 80
1, 129133, Note_off_c, 0, 61, 80
1, 129174, Note_on_c, 0, 58, 80
1, 129715, Note_off_c, 0, 58, 80
1, 129773, Note_on_c, 0, 60, 80
1, 130431, Note_off_c, 0, 60, 80
1, 132338, Note_on_c, 0, 72, 80
1, 134818, Note_off_c, 0, 72, 80
1, 134889, Note_on_c, 0, 70, 80
1, 135629, Note_off_c, 0, 70, 80
1, 135773, Note_on_c, 0, 70, 80
1, 136036, Note_off_c, 0, 70, 80
1, 136187, Note_on_c, 0, 70, 80
1, 136802, Note_off_c, 0, 70, 80
1, 136953, Note_on_c, 0, 70, 80
1, 137180, Note_off_c, 0, 70, 80
1, 138610, Note_on_c, 0, 67, 80
1, 139234, Note_off_c, 0, 67, 80
1, 140446, Note_on_c, 0, 65, 80
1, 141117, Note_off_c, 0, 65, 80
1, 142279, Note_on_c, 0, 69, 80
1, 143016, Note_off_c, 0, 69, 80
1, 145030, Note_on_c, 0, 67, 80
1, 145602, Note_off_c, 0, 67, 80
1, 146227, Note_on_c, 0, 62, 80
1, 146872, Note_off_c, 0, 62, 80
1, 147431, Note_on_c, 0, 67, 80
1, 148082, Note_off_c, 0, 67, 80
1, 148608, Note_on_c, 0, 64, 80
1, 149351, Note_off_c, 0, 64, 80
1, 149482, Note_on_c, 0, 62, 80
1, 150048, Note_off_c, 0, 62, 80
1, 150594, Note_on_c, 0, 60, 80
1, 151265, Note_off_c, 0, 60, 80
1, 151844, Note_on_c, 0, 59, 80
1, 152390, Note_off_c, 0, 59, 80
1, 153050, Note_on_c, 0, 55, 80
1, 153369, Note_off_c, 0, 55, 80
1, 153558, Note_on_c, 0, 58, 80
1, 154002, Note_off_c, 0, 58, 80
1, 154293, Note_on_c, 0, 65, 80
1, 154825, Note_off_c, 0, 65, 80
1, 158344, Note_on_c, 0, 57, 80
1, 159081, Note_off_c, 0, 57, 80
1, 159153, Note_on_c, 0, 64, 80
1, 159725, Note_off_c, 0, 64, 80
1, 163207, Note_on_c, 0, 56, 80
1, 163898, Note_off_c, 0, 56, 80
1, 163976, Note_on_c, 0, 63, 80
1, 164640, Note_off_c, 0, 63, 80
1, 168082, Note_on_c, 0, 68, 80
1, 168694, Note_off_c, 0, 68, 80
1, 169286, Note_on_c, 0, 63, 80
1, 169964, Note_off_c, 0, 63, 80
1, 170116, Note_on_c, 0, 60, 80
1, 170615, Note_off_c, 0, 60, 80
1, 171212, Note_on_c, 0, 56, 80
1, 171674, Note_off_c, 0, 56, 80
1, 171812, Note_on_c, 0, 51, 80
1, 172700, Note_off_c, 0, 51, 80
1, 173024, Note_on_c, 0, 50, 80
1, 173672, Note_off_c, 0, 50, 80
1, 173672, Note_on_c, 0, 55, 80
1, 174153, Note_off_c, 0, 55, 80
1, 185336, Note_on_c, 0, 60, 80
1, 186409, Note_off_c, 0, 60, 80
1, 186566, Note_on_c, 0, 72, 80
1, 186914, Note_off_c, 0, 72, 80
1, 188651, Note_on_c, 0, 67, 80
1, 189045, Note_off_c, 0, 67, 80
1, 189857, Note_on_c, 0, 70, 80
1, 190347, Note_off_c, 0, 70, 80
1, 191036, Note_on_c, 0, 65, 80
1, 191568, Note_off_c, 0, 65, 80
1, 192209, Note_on_c, 0, 67, 80
1, 193977, Note_off_c, 0, 67, 80
1, 194071, Note_on_c, 0, 62, 80
1, 194683, Note_off_c, 0, 62, 80
1, 195334, Note_on_c, 0, 60, 80
1, 197282, Note_off_c, 0, 60, 80
1, 197897, Note_on_c, 0, 60, 80
1, 199299, Note_off_c, 0, 60, 80
1, 200493, Note_on_c, 0, 60, 80
1, 201969, Note_off_c, 0, 60, 80
1, 203005, Note_on_c, 0, 60, 80
1, 204490, Note_off_c, 0, 60, 80
1, 205559, Note_on_c, 0, 60, 80
1, 206892, Note_off_c, 0, 60, 80
1, 207965, Note_on_c, 0, 60, 80
1, 209344, Note_off_c, 0, 60, 80
1, 209899, Note_on_c, 0, 60, 80
1, 210630, Note_off_c, 0, 60, 80
1, 211685, Note_on_c, 0, 60, 80
1, 214249, Note_off_c, 0, 60, 80
1, 214286, Note_on_c, 0, 58, 80
1, 214858, Note_off_c, 0, 58, 80
1, 214942, Note_on_c, 0, 57, 80
1, 215377, Note_off_c, 0, 57, 80
1, 215423, Note_on_c, 0, 58, 80
1, 216084, Note_off_c, 0, 58, 80
1, 216301, Note_on_c, 0, 55, 80
1, 216703, Note_off_c, 0, 55, 80
1, 226362, Note_on_c, 0, 64, 80
1, 226861, Note_off_c, 0, 64, 80
1, 228286, Note_on_c, 0, 64, 80
1, 229137, Note_off_c, 0, 64, 80
1, 230016, Note_on_c, 0, 64, 80
1, 231126, Note_off_c, 0, 64, 80
1, 231966, Note_on_c, 0, 64, 80
1, 232551, Note_off_c, 0, 64, 80
1, 232715, Note_on_c, 0, 64, 80
1, 233142, Note_off_c, 0, 64, 80
1, 233293, Note_on_c, 0, 64, 80
1, 233944, Note_off_c, 0, 64, 80
1, 234019, Note_on_c, 0, 65, 80
1, 234421, Note_off_c, 0, 65, 80
1, 234559, Note_on_c, 0, 65, 80
1, 234966, Note_off_c, 0, 65, 80
1, 235128, Note_on_c, 0, 65, 80
1, 235553, Note_off_c, 0, 65, 80
1, 235783, Note_on_c, 0, 65, 80
1, 236500, Note_off_c, 0, 65, 80
1, 236585, Note_on_c, 0, 64, 80
1, 236947, Note_off_c, 0, 64, 80
1, 237058, Note_on_c, 0, 64, 80
1, 237610, Note_off_c, 0, 64, 80
1, 237702, Note_on_c, 0, 64, 80
1, 238182, Note_off_c, 0, 64, 80
1, 238405, Note_on_c, 0, 64, 80
1, 239352, Note_off_c, 0, 64, 80
1, 240925, Note_on_c, 0, 62, 80
1, 241787, Note_off_c, 0, 62, 80
1, 242781, Note_on_c, 0, 60, 80
1, 243248, Note_off_c, 0, 60, 80
1, 244169, Note_on_c, 0, 58, 80
1, 244491, Note_off_c, 0, 58, 80
1, 244709, Note_on_c, 0, 60, 80
1, 245134, Note_off_c, 0, 60, 80
1, 246083, Note_on_c, 0, 62, 80
1, 246471, Note_off_c, 0, 62, 80
1, 247175, Note_on_c, 0, 60, 80
1, 247737, Note_off_c, 0, 60, 80
1, 248566, Note_on_c, 0, 58, 80
1, 248934, Note_off_c, 0, 58, 80
1, 249750, Note_on_c, 0, 57, 80
1, 250189, Note_off_c, 0, 57, 80
1, 251009, Note_on_c, 0, 55, 80
1, 252147, Note_off_c, 0, 55, 80
1, 252318, Note_on_c, 0, 53, 80
1, 253252, Note_off_c, 0, 53, 80
1, 253416, Note_on_c, 0, 50, 80
1, 253942, Note_off_c, 0, 50, 80
1, 258155, Note_on_c, 0, 55, 80
1, 260004, Note_off_c, 0, 55, 80
1, 260036, Note_on_c, 0, 53, 80
1, 260470, Note_off_c, 0, 53, 80
1, 261319, Note_on_c, 0, 58, 80
1, 262530, Note_off_c, 0, 58, 80
1, 262589, Note_on_c, 0, 53, 80
1, 263155, Note_off_c, 0, 53, 80
1, 268414, Note_on_c, 0, 55, 80
1, 270165, Note_off_c, 0, 55, 80
1, 270288, Note_on_c, 0, 53, 80
1, 270861, Note_off_c, 0, 53, 80
1, 271612, Note_on_c, 0, 58, 80
1, 272428, Note_off_c, 0, 58, 80
1, 277365, Note_on_c, 0, 55, 80
1, 277753, Note_off_c, 0, 55, 80
1, 277897, Note_on_c, 0, 55, 80
1, 278417, Note_off_c, 0, 55, 80
1, 278548, Note_on_c, 0, 55, 80
1, 278877, Note_off_c, 0, 55, 80
1, 279061, Note_on_c, 0, 55, 80
1, 280259, Note_off_c, 0, 55, 80
1, 280509, Note_on_c, 0, 53, 80
1, 280989, Note_off_c, 0, 53, 80
1, 281762, Note_on_c, 0, 58, 80
1, 282354, Note_off_c, 0, 58, 80
1, 282904, Note_on_c, 0, 58, 80
1, 286505, Note_off_c, 0, 58, 80
1, 286708, Note_on_c, 0, 60, 80
1, 288957, Note_off_c, 0, 60, 80
1, 289456, Note_on_c, 0, 58, 80
1, 289793, Note_off_c, 0, 58, 80
1, 289835, Note_on_c, 0, 60, 80
1, 290154, Note_off_c, 0, 60, 80
1, 290223, Note_on_c, 0, 64, 80
1, 290456, Note_off_c, 0, 64, 80
1, 290514, Note_on_c, 0, 60, 80
1, 290949, Note_off_c, 0, 60, 80
1, 290999, Note_on_c, 0, 58, 80
1, 291549, Note_off_c, 0, 58, 80
1, 291797, Note_on_c, 0, 53, 80
1, 293074, Note_off_c, 0, 53, 80
1, 293154, Note_on_c, 0, 58, 80
1, 294033, Note_off_c, 0, 58, 80
1, 310744, Note_on_c, 0, 53, 80
1, 311046, Note_off_c, 0, 53, 80
1, 311092, Note_on_c, 0, 58, 80
1, 311480, Note_off_c, 0, 58, 80
1, 311558, Note_on_c, 0, 59, 80
1, 311880, Note_off_c, 0, 59, 80
1, 311942, Note_on_c, 0, 60, 80
1, 312257, Note_off_c, 0, 60, 80
1, 312270, Note_on_c, 0, 65, 80
1, 312487, Note_off_c, 0, 65, 80
1, 312500, Note_on_c, 0, 69, 80
1, 312773, Note_off_c, 0, 69, 80
1, 312796, Note_on_c, 0, 72, 80
1, 313111, Note_off_c, 0, 72, 80
1, 313281, Note_on_c, 0, 77, 80
1, 315803, Note_off_c, 0, 77, 80
1, 315875, Note_on_c, 0, 72, 80
1, 316105, Note_off_c, 0, 72, 80
1, 316147, Note_on_c, 0, 69, 80
1, 316418, Note_off_c, 0, 69, 80
1, 316462, Note_on_c, 0, 64, 80
1, 316644, Note_off_c, 0, 64, 80
1, 316672, Note_on_c, 0, 60, 80
1, 316890, Note_off_c, 0, 60, 80
1, 316908, Note_on_c, 0, 58, 80
1, 317193, Note_off_c, 0, 58, 80
1, 317280, Note_on_c, 0, 53, 80
1, 317499, Note_off_c, 0, 53, 80
1, 317568, Note_on_c, 0, 48, 80
1, 317977, Note_off_c, 0, 48, 80
1, 318041, Note_on_c, 0, 46, 80
1, 320167, Note_off_c, 0, 46, 80
1, 329814, Note_on_c, 0, 53, 80
1, 329985, Note_off_c, 0, 53, 80
1, 330060, Note_on_c, 0, 57, 80
1, 330428, Note_off_c, 0, 57, 80
1, 330520, Note_on_c, 0, 59, 80
1, 330800, Note_off_c, 0, 59, 80
1, 330990, Note_on_c, 0, 67, 80
1, 331223, Note_off_c, 0, 67, 80
1, 331261, Note_on_c, 0, 71, 80
1, 331626, Note_off_c, 0, 71, 80
1, 331686, Note_on_c, 0, 75, 80
1, 332713, Note_off_c, 0, 75, 80
1, 332768, Note_on_c, 0, 81, 80
1, 333781, Note_off_c, 0, 81, 80
1, 334146, Note_on_c, 0, 79, 80
1, 334474, Note_off_c, 0, 79, 80
1, 334969, Note_on_c, 0, 77, 80
1, 335357, Note_off_c, 0, 77, 80
1, 335726, Note_on_c, 0, 72, 80
1, 336084, Note_off_c, 0, 72, 80
1, 336146, Note_on_c, 0, 67, 80
1, 336373, Note_off_c, 0, 67, 80
1, 336942, Note_on_c, 0, 69, 80
1, 337247, Note_off_c, 0, 69, 80
1, 337271, Note_on_c, 0, 67, 80
1, 337488, Note_off_c, 0, 67, 80
1, 338237, Note_on_c, 0, 67, 80
1, 338536, Note_off_c, 0, 67, 80
1, 338572, Note_on_c, 0, 66, 80
1, 338729, Note_off_c, 0, 66, 80
1, 339314, Note_on_c, 0, 65, 80
1, 339676, Note_off_c, 0, 65, 80
1, 339722, Note_on_c, 0, 63, 80
1, 339965, Note_off_c, 0, 63, 80
1, 340554, Note_on_c, 0, 62, 80
1, 341008, Note_off_c, 0, 62, 80
1, 341034, Note_on_c, 0, 60, 80
1, 341238, Note_off_c, 0, 60, 80
1, 341767, Note_on_c, 0, 61, 80
1, 342227, Note_off_c, 0, 61, 80
1, 342510, Note_on_c, 0, 60, 80
1, 344359, Note_off_c, 0, 60, 80
1, 344686, Note_on_c, 0, 57, 80
1, 345018, Note_off_c, 0, 57, 80
1, 345046, Note_on_c, 0, 58, 80
1, 345543, Note_off_c, 0, 58, 80
1, 345673, Note_on_c, 0, 60, 80
1, 346044, Note_off_c, 0, 60, 80
1, 346076, Note_on_c, 0, 62, 80
1, 346477, Note_off_c, 0, 62, 80
1, 346822, Note_on_c, 0, 69, 80
1, 346989, Note_off_c, 0, 69, 80
1, 347344, Note_on_c, 0, 72, 80
1, 347854, Note_off_c, 0, 72, 80
1, 347956, Note_on_c, 0, 70, 80
1, 348433, Note_off_c, 0, 70, 80
1, 348627, Note_on_c, 0, 67, 80
1, 349104, Note_off_c, 0, 67, 80
1, 349182, Note_on_c, 0, 68, 80
1, 349478, Note_off_c, 0, 68, 80
1, 349751, Note_on_c, 0, 69, 80
1, 350534, Note_off_c, 0, 69, 80
1, 350675, Note_on_c, 0, 65, 80
1, 352070, Note_off_c, 0, 65, 80
1, 359232, Note_on_c, 0, 62, 80
1, 359561, Note_off_c, 0, 62, 80
1, 359790, Note_on_c, 0, 67, 80
1, 360257, Note_off_c, 0, 67, 80
1, 360383, Note_on_c, 0, 69, 80
1, 360845, Note_off_c, 0, 69, 80
1, 360951, Note_on_c, 0, 70, 80
1, 361492, Note_off_c, 0, 70, 80
1, 361593, Note_on_c, 0, 72, 80
1, 362143, Note_off_c, 0, 72, 80
1, 362328, Note_on_c, 0, 70, 80
1, 362772, Note_off_c, 0, 70, 80
1, 362864, Note_on_c, 0, 69, 80
1, 363350, Note_off_c, 0, 69, 80
1, 363451, Note_on_c, 0, 67, 80
1, 364085, Note_off_c, 0, 67, 80
1, 364205, Note_on_c, 0, 62, 80
1, 364431, Note_off_c, 0, 62, 80
1, 364708, Note_on_c, 0, 65, 80
1, 365332, Note_off_c, 0, 65, 80
1, 365429, Note_on_c, 0, 62, 80
1, 365794, Note_off_c, 0, 62, 80
1, 365812, Note_on_c, 0, 69, 80
1, 366557, Note_off_c, 0, 69, 80
1, 366686, Note_on_c, 0, 67, 80
1, 367204, Note_off_c, 0, 67, 80
1, 367935, Note_on_c, 0, 64, 80
1, 368522, Note_off_c, 0, 64, 80
1, 369012, Note_on_c, 0, 64, 80
1, 370951, Note_off_c, 0, 64, 80
1, 371043, Note_on_c, 0, 62, 80
1, 371431, Note_off_c, 0, 62, 80
1, 379878, Note_on_c, 0, 64, 80
1, 380350, Note_off_c, 0, 64, 80
1, 385849, Note_on_c, 0, 64, 80
1, 386276, Note_off_c, 0, 64, 80
1, 386381, Note_on_c, 0, 65, 80
1, 386723, Note_off_c, 0, 65, 80
1, 386933, Note_on_c, 0, 72, 80
1, 387341, Note_off_c, 0, 72, 80
1, 387577, Note_on_c, 0, 76, 80
1, 388024, Note_off_c, 0, 76, 80
1, 388155, Note_on_c, 0, 72, 80
1, 388596, Note_off_c, 0, 72, 80
1, 388707, Note_on_c, 0, 70, 80
1, 389240, Note_off_c, 0, 70, 80
1, 389351, Note_on_c, 0, 72, 80
1, 389732, Note_off_c, 0, 72, 80
1, 390074, Note_on_c, 0, 64, 80
1, 390508, Note_off_c, 0, 64, 80
1, 392259, Note_on_c, 0, 65, 80
1, 393878, Note_off_c, 0, 65, 80
1, 393924, Note_on_c, 0, 70, 80
1, 398301, Note_off_c, 0, 70, 80
1, 400807, Note_on_c, 0, 70, 80
1, 401408, Note_off_c, 0, 70, 80
1, 401486, Note_on_c, 0, 71, 80
1, 401925, Note_off_c, 0, 71, 80
1, 402049, Note_on_c, 0, 72, 80
1, 402539, Note_off_c, 0, 72, 80
1, 402654, Note_on_c, 0, 71, 80
1, 403241, Note_off_c, 0, 71, 80
1, 403282, Note_on_c, 0, 70, 80
1, 403832, Note_off_c, 0, 70, 80
1, 403887, Note_on_c, 0, 67, 80
1, 404530, Note_off_c, 0, 67, 80
1, 404585, Note_on_c, 0, 70, 80
1, 404987, Note_off_c, 0, 70, 80
1, 405170, Note_on_c, 0, 66, 80
1, 405795, Note_off_c, 0, 66, 80
1, 405873, Note_on_c, 0, 67, 80
1, 406393, Note_off_c, 0, 67, 80
1, 406439, Note_on_c, 0, 65, 80
1, 407018, Note_off_c, 0, 65, 80
1, 407110, Note_on_c, 0, 66, 80
1, 407682, Note_off_c, 0, 66, 80
1, 407760, Note_on_c, 0, 64, 80
1, 408329, Note_off_c, 0, 64, 80
1, 408398, Note_on_c, 0, 65, 80
1, 408856, Note_off_c, 0, 65, 80
1, 408930, Note_on_c, 0, 61, 80
1, 409453, Note_off_c, 0, 61, 80
1, 409517, Note_on_c, 0, 64, 80
1, 410160, Note_off_c, 0, 64, 80
1, 410238, Note_on_c, 0, 60, 80
1, 410835, Note_off_c, 0, 60, 80
1, 410858, Note_on_c, 0, 61, 80
1, 411367, Note_off_c, 0, 61, 80
1, 411390, Note_on_c, 0, 59, 80
1, 411936, Note_off_c, 0, 59, 80
1, 412051, Note_on_c, 0, 60, 80
1, 412620, Note_off_c, 0, 60, 80
1, 412735, Note_on_c, 0, 58, 80
1, 413526, Note_off_c, 0, 58, 80
1, 428517, Note_on_c, 0, 76, 80
1, 429058, Note_off_c, 0, 76, 80
1, 429108, Note_on_c, 0, 77, 80
1, 429705, Note_off_c, 0, 77, 80
1, 429788, Note_on_c, 0, 78, 80
1, 430218, Note_off_c, 0, 78, 80
1, 430426, Note_on_c, 0, 73, 80
1, 430888, Note_off_c, 0, 73, 80
1, 431026, Note_on_c, 0, 76, 80
1, 431521, Note_off_c, 0, 76, 80
1, 431571, Note_on_c, 0, 71, 80
1, 432154, Note_off_c, 0, 71, 80
1, 432246, Note_on_c, 0, 72, 80
1, 432699, Note_off_c, 0, 72, 80
1, 432930, Note_on_c, 0, 73, 80
1, 433466, Note_off_c, 0, 73, 80
1, 433521, Note_on_c, 0, 72, 80
1, 434039, Note_off_c, 0, 72, 80
1, 434108, Note_on_c, 0, 71, 80
1, 434649, Note_off_c, 0, 71, 80
1, 434755, Note_on_c, 0, 67, 80
1, 435208, Note_off_c, 0, 67, 80
1, 435508, Note_on_c, 0, 70, 80
1, 435961, Note_off_c, 0, 70, 80
1, 436048, Note_on_c, 0, 66, 80
1, 436589, Note_off_c, 0, 66, 80
1, 436653, Note_on_c, 0, 70, 80
1, 437250, Note_off_c, 0, 70, 80
1, 437351, Note_on_c, 0, 65, 80
1, 437744, Note_off_c, 0, 65, 80
1, 437933, Note_on_c, 0, 64, 80
1, 438516, Note_off_c, 0, 64, 80
1, 438576, Note_on_c, 0, 65, 80
1, 439085, Note_off_c, 0, 65, 80
1, 439209, Note_on_c, 0, 64, 80
1, 439796, Note_off_c, 0, 64, 80
1, 439856, Note_on_c, 0, 65, 80
1, 440254, Note_off_c, 0, 65, 80
1, 440485, Note_on_c, 0, 66, 80
1, 440859, Note_off_c, 0, 66, 80
1, 441067, Note_on_c, 0, 71, 80
1, 441497, Note_off_c, 0, 71, 80
1, 441589, Note_on_c, 0, 65, 80
1, 442241, Note_off_c, 0, 65, 80
1, 442282, Note_on_c, 0, 66, 80
1, 442693, Note_off_c, 0, 66, 80
1, 442975, Note_on_c, 0, 70, 80
1, 443447, Note_off_c, 0, 70, 80
1, 443525, Note_on_c, 0, 66, 80
1, 443973, Note_off_c, 0, 66, 80
1, 444042, Note_on_c, 0, 65, 80
1, 444708, Note_off_c, 0, 65, 80
1, 444740, Note_on_c, 0, 64, 80
1, 445216, Note_off_c, 0, 64, 80
1, 445433, Note_on_c, 0, 67, 80
1, 445872, Note_off_c, 0, 67, 80
1, 446117, Note_on_c, 0, 65, 80
1, 446533, Note_off_c, 0, 65, 80
1, 446639, Note_on_c, 0, 61, 80
1, 447129, Note_off_c, 0, 61, 80
1, 447221, Note_on_c, 0, 64, 80
1, 447794, Note_off_c, 0, 64, 80
1, 448020, Note_on_c, 0, 60, 80
1, 448538, Note_off_c, 0, 60, 80
1, 448570, Note_on_c, 0, 61, 80
1, 449042, Note_off_c, 0, 61, 80
1, 449097, Note_on_c, 0, 59, 80
1, 449717, Note_off_c, 0, 59, 80
1, 449846, Note_on_c, 0, 60, 80
1, 450248, Note_off_c, 0, 60, 80
1, 450428, Note_on_c, 0, 58, 80
1, 451150, Note_off_c, 0, 58, 80
1, 452321, Note_on_c, 0, 53, 80
1, 454283, Note_off_c, 0, 53, 80
1, 454338, Note_on_c, 0, 54, 80
1, 455208, Note_off_c, 0, 54, 80
1, 455383, Note_on_c, 0, 54, 80
1, 456558, Note_off_c, 0, 54, 80
1, 456696, Note_on_c, 0, 55, 80
1, 457603, Note_off_c, 0, 55, 80
1, 460343, Note_on_c, 0, 61, 80
1, 461046, Note_off_c, 0, 61, 80
1, 462443, Note_on_c, 0, 60, 80
1, 463146, Note_off_c, 0, 60, 80
1, 464108, Note_on_c, 0, 58, 80
1, 464681, Note_off_c, 0, 58, 80
1, 464727, Note_on_c, 0, 59, 80
1, 465541, Note_off_c, 0, 59, 80
1, 465689, Note_on_c, 0, 58, 80
1, 466670, Note_off_c, 0, 58, 80
1, 466753, Note_on_c, 0, 55, 80
1, 467317, Note_off_c, 0, 55, 80
1, 468002, Note_on_c, 0, 55, 80
1, 469020, Note_off_c, 0, 55, 80
1, 481308, Note_on_c, 0, 55, 80
1, 481670, Note_off_c, 0, 55, 80
1, 481743, Note_on_c, 0, 59, 80
1, 482065, Note_off_c, 0, 59, 80
1, 482162, Note_on_c, 0, 62, 80
1, 482428, Note_off_c, 0, 62, 80
1, 482464, Note_on_c, 0, 65, 80
1, 482684, Note_off_c, 0, 65, 80
1, 482726, Note_on_c, 0, 68, 80
1, 483022, Note_off_c, 0, 68, 80
1, 483401, Note_on_c, 0, 72, 80
1, 483780, Note_off_c, 0, 72, 80
1, 483988, Note_on_c, 0, 69, 80
1, 484427, Note_off_c, 0, 69, 80
1, 484501, Note_on_c, 0, 65, 80
1, 485056, Note_off_c, 0, 65, 80
1, 485208, Note_on_c, 0, 62, 80
1, 485481, Note_off_c, 0, 62, 80
1, 485791, Note_on_c, 0, 69, 80
1, 486045, Note_off_c, 0, 69, 80
1, 486114, Note_on_c, 0, 70, 80
1, 486294, Note_off_c, 0, 70, 80
1, 486312, Note_on_c, 0, 68, 80
1, 486631, Note_off_c, 0, 68, 80
1, 486681, Note_on_c, 0, 65, 80
1, 486991, Note_off_c, 0, 65, 80
1, 487060, Note_on_c, 0, 62, 80
1, 487680, Note_off_c, 0, 62, 80
1, 487767, Note_on_c, 0, 60, 80
1, 488267, Note_off_c, 0, 60, 80
1, 488382, Note_on_c, 0, 61, 80
1, 488918, Note_off_c, 0, 61, 80
1, 489167, Note_on_c, 0, 57, 80
1, 489357, Note_off_c, 0, 57, 80
1, 489416, Note_on_c, 0, 60, 80
1, 490202, Note_off_c, 0, 60, 80
1, 490300, Note_on_c, 0, 58, 80
1, 490915, Note_off_c, 0, 58, 80
1, 490980, Note_on_c, 0, 62, 80
1, 491292, Note_off_c, 0, 62, 80
1, 491324, Note_on_c, 0, 65, 80
1, 491613, Note_off_c, 0, 65, 80
1, 491639, Note_on_c, 0, 69, 80
1, 491899, Note_off_c, 0, 69, 80
1, 492001, Note_on_c, 0, 68, 80
1, 492260, Note_off_c, 0, 68, 80
1, 492285, Note_on_c, 0, 70, 80
1, 492479, Note_off_c, 0, 70, 80
1, 492504, Note_on_c, 0, 67, 80
1, 492829, Note_off_c, 0, 67, 80
1, 492874, Note_on_c, 0, 66, 80
1, 493265, Note_off_c, 0, 66, 80
1, 493309, Note_on_c, 0, 67, 80
1, 493975, Note_off_c, 0, 67, 80
1, 494137, Note_on_c, 0, 69, 80
1, 494613, Note_off_c, 0, 69, 80
1, 494663, Note_on_c, 0, 71, 80
1, 495051, Note_off_c, 0, 71, 80
1, 495111, Note_on_c, 0, 73, 80
1, 495435, Note_off_c, 0, 73, 80
1, 495814, Note_on_c, 0, 78, 80
1, 496165, Note_off_c, 0, 78, 80
1, 496243, Note_on_c, 0, 79, 80
1, 497876, Note_off_c, 0, 79, 80
1, 499650, Note_on_c, 0, 77, 80
1, 500341, Note_off_c, 0, 77, 80
1, 500472, Note_on_c, 0, 70, 80
1, 501471, Note_off_c, 0, 70, 80
1, 506633, Note_on_c, 0, 72, 80
1, 507133, Note_off_c, 0, 72, 80
1, 507521, Note_on_c, 0, 75, 80
1, 507929, Note_off_c, 0, 75, 80
1, 508001, Note_on_c, 0, 77, 80
1, 509488, Note_off_c, 0, 77, 80
1, 509541, Note_on_c, 0, 75, 80
1, 510411, Note_off_c, 0, 75, 80
1, 510501, Note_on_c, 0, 68, 80
1, 512729, Note_off_c, 0, 68, 80
1, 515286, Note_on_c, 0, 70, 80
1, 515648, Note_off_c, 0, 70, 80
1, 516042, Note_on_c, 0, 75, 80
1, 516443, Note_off_c, 0, 75, 80
1, 516620, Note_on_c, 0, 73, 80
1, 517061, Note_off_c, 0, 73, 80
1, 517199, Note_on_c, 0, 65, 80
1, 517771, Note_off_c, 0, 65, 80
1, 517849, Note_on_c, 0, 67, 80
1, 518158, Note_off_c, 0, 67, 80
1, 518539, Note_on_c, 0, 73, 80
1, 519012, Note_off_c, 0, 73, 80
1, 519209, Note_on_c, 0, 71, 80
1, 519590, Note_off_c, 0, 71, 80
1, 519737, Note_on_c, 0, 64, 80
1, 520250, Note_off_c, 0, 64, 80
1, 520347, Note_on_c, 0, 66, 80
1, 520777, Note_off_c, 0, 66, 80
1, 521054, Note_on_c, 0, 71, 80
1, 521609, Note_off_c, 0, 71, 80
1, 521720, Note_on_c, 0, 68, 80
1, 522094, Note_off_c, 0, 68, 80
1, 522237, Note_on_c, 0, 62, 80
1, 522889, Note_off_c, 0, 62, 80
1, 522967, Note_on_c, 0, 64, 80
1, 523341, Note_off_c, 0, 64, 80
1, 523507, Note_on_c, 0, 72, 80
1, 524067, Note_off_c, 0, 72, 80
1, 524145, Note_on_c, 0, 70, 80
1, 524603, Note_off_c, 0, 70, 80
1, 524700, Note_on_c, 0, 62, 80
1, 525315, Note_off_c, 0, 62, 80
1, 525361, Note_on_c, 0, 65, 80
1, 525809, Note_off_c, 0, 65, 80
1, 526082, Note_on_c, 0, 67, 80
1, 526521, Note_off_c, 0, 67, 80
1, 526673, Note_on_c, 0, 70, 80
1, 527135, Note_off_c, 0, 70, 80
1, 527209, Note_on_c, 0, 68, 80
1, 527824, Note_off_c, 0, 68, 80
1, 528078, Note_on_c, 0, 61, 80
1, 528619, Note_off_c, 0, 61, 80
1, 529174, Note_on_c, 0, 63, 80
1, 529641, Note_off_c, 0, 63, 80
1, 529696, Note_on_c, 0, 65, 80
1, 530320, Note_off_c, 0, 65, 80
1, 530426, Note_on_c, 0, 68, 80
1, 530842, Note_off_c, 0, 68, 80
1, 531082, Note_on_c, 0, 66, 80
1, 531646, Note_off_c, 0, 66, 80
1, 531803, Note_on_c, 0, 59, 80
1, 532284, Note_off_c, 0, 59, 80
1, 533024, Note_on_c, 0, 61, 80
1, 533472, Note_off_c, 0, 61, 80
1, 534249, Note_on_c, 0, 63, 80
1, 534772, Note_off_c, 0, 63, 80
1, 535461, Note_on_c, 0, 65, 80
1, 535988, Note_off_c, 0, 65, 80
1, 536793, Note_on_c, 0, 66, 80
1, 537399, Note_off_c, 0, 66, 80
1, 538028, Note_on_c, 0, 62, 80
1, 538551, Note_off_c, 0, 62, 80
1, 539236, Note_on_c, 0, 67, 80
1, 539749, Note_off_c, 0, 67, 80
1, 540526, Note_on_c, 0, 65, 80
1, 541016, Note_off_c, 0, 65, 80
1, 541812, Note_on_c, 0, 70, 80
1, 542293, Note_off_c, 0, 70, 80
1, 543005, Note_on_c, 0, 65, 80
1, 543541, Note_off_c, 0, 65, 80
1, 544355, Note_on_c, 0, 66, 80
1, 544882, Note_off_c, 0, 66, 80
1, 545534, Note_on_c, 0, 67, 80
1, 547311, Note_off_c, 0, 67, 80
1, 547375, Note_on_c, 0, 65, 80
1, 547884, Note_off_c, 0, 65, 80
1, 548647, Note_on_c, 0, 70, 80
1, 549202, Note_off_c, 0, 70, 80
1, 549382, Note_on_c, 0, 70, 80
1, 549803, Note_off_c, 0, 70, 80
1, 549869, Note_on_c, 0, 65, 80
1, 550777, Note_off_c, 0, 65, 80
1, 561033, Note_on_c, 0, 77, 80
1, 561457, Note_off_c, 0, 77, 80
1, 561526, Note_on_c, 0, 79, 80
1, 561947, Note_off_c, 0, 79, 80
1, 561960, Note_on_c, 0, 81, 80
1, 562414, Note_off_c, 0, 81, 80
1, 562562, Note_on_c, 0, 79, 80
1, 562956, Note_off_c, 0, 79, 80
1, 562998, Note_on_c, 0, 77, 80
1, 563383, Note_off_c, 0, 77, 80
1, 563422, Note_on_c, 0, 74, 80
1, 563665, Note_off_c, 0, 74, 80
1, 563720, Note_on_c, 0, 72, 80
1, 564055, Note_off_c, 0, 72, 80
1, 564094, Note_on_c, 0, 74, 80
1, 564409, Note_off_c, 0, 74, 80
1, 564474, Note_on_c, 0, 77, 80
1, 564895, Note_off_c, 0, 77, 80
1, 565056, Note_on_c, 0, 74, 80
1, 565263, Note_off_c, 0, 74, 80
1, 565305, Note_on_c, 0, 72, 80
1, 565591, Note_off_c, 0, 72, 80
1, 565660, Note_on_c, 0, 69, 80
1, 566051, Note_off_c, 0, 69, 80
1, 566172, Note_on_c, 0, 67, 80
1, 566464, Note_off_c, 0, 67, 80
1, 566539, Note_on_c, 0, 69, 80
1, 566891, Note_off_c, 0, 69, 80
1, 566940, Note_on_c, 0, 72, 80
1, 567265, Note_off_c, 0, 72, 80
1, 567291, Note_on_c, 0, 69, 80
1, 567718, Note_off_c, 0, 69, 80
1, 567754, Note_on_c, 0, 67, 80
1, 568112, Note_off_c, 0, 67, 80
1, 568194, Note_on_c, 0, 65, 80
1, 568552, Note_off_c, 0, 65, 80
1, 568663, Note_on_c, 0, 62, 80
1, 568985, Note_off_c, 0, 62, 80
1, 569057, Note_on_c, 0, 65, 80
1, 569458, Note_off_c, 0, 65, 80
1, 569494, Note_on_c, 0, 67, 80
1, 569800, Note_off_c, 0, 67, 80
1, 569892, Note_on_c, 0, 60, 80
1, 570184, Note_off_c, 0, 60, 80
1, 570325, Note_on_c, 0, 62, 80
1, 570598, Note_off_c, 0, 62, 80
1, 570693, Note_on_c, 0, 65, 80
1, 571068, Note_off_c, 0, 65, 80
1, 571212, Note_on_c, 0, 57, 80
1, 571514, Note_off_c, 0, 57, 80
1, 571586, Note_on_c, 0, 60, 80
1, 571862, Note_off_c, 0, 60, 80
1, 571911, Note_on_c, 0, 62, 80
1, 572138, Note_off_c, 0, 62, 80
1, 572830, Note_on_c, 0, 57, 80
1, 573126, Note_off_c, 0, 57, 80
1, 573176, Note_on_c, 0, 60, 80
1, 573481, Note_off_c, 0, 60, 80
1, 573621, Note_on_c, 0, 53, 80
1, 573992, Note_off_c, 0, 53, 80
1, 574025, Note_on_c, 0, 55, 80
1, 574316, Note_off_c, 0, 55, 80
1, 574390, Note_on_c, 0, 57, 80
1, 574711, Note_off_c, 0, 57, 80
1, 574842, Note_on_c, 0, 50, 80
1, 575223, Note_off_c, 0, 50, 80
1, 575325, Note_on_c, 0, 53, 80
1, 575696, Note_off_c, 0, 53, 80
1, 575728, Note_on_c, 0, 55, 80
1, 576007, Note_off_c, 0, 55, 80
1, 576125, Note_on_c, 0, 53, 80
1, 578297, Note_off_c, 0, 53, 80
1, 578415, Note_on_c, 0, 50, 80
1, 578777, Note_off_c, 0, 50, 80
1, 578829, Note_on_c, 0, 48, 80
1, 579480, Note_off_c, 0, 48, 80
1, 579539, Note_on_c, 0, 50, 80
1, 580375, Note_off_c, 0, 50, 80
1, 588454, Note_on_c, 0, 50, 80
1, 588856, Note_off_c, 0, 50, 80
1, 588916, Note_on_c, 0, 52, 80
1, 589207, Note_off_c, 0, 52, 80
1, 589234, Note_on_c, 0, 55, 80
1, 589534, Note_off_c, 0, 55, 80
1, 589557, Note_on_c, 0, 60, 80
1, 589876, Note_off_c, 0, 60, 80
1, 590033, Note_on_c, 0, 57, 80
1, 590357, Note_off_c, 0, 57, 80
1, 590419, Note_on_c, 0, 55, 80
1, 590702, Note_off_c, 0, 55, 80
1, 590833, Note_on_c, 0, 53, 80
1, 591172, Note_off_c, 0, 53, 80
1, 591227, Note_on_c, 0, 55, 80
1, 591513, Note_off_c, 0, 55, 80
1, 591582, Note_on_c, 0, 57, 80
1, 591917, Note_off_c, 0, 57, 80
1, 591953, Note_on_c, 0, 60, 80
1, 592275, Note_off_c, 0, 60, 80
1, 592472, Note_on_c, 0, 65, 80
1, 592755, Note_off_c, 0, 65, 80
1, 592824, Note_on_c, 0, 62, 80
1, 593189, Note_off_c, 0, 62, 80
1, 593208, Note_on_c, 0, 60, 80
1, 593530, Note_off_c, 0, 60, 80
1, 593605, Note_on_c, 0, 58, 80
1, 593894, Note_off_c, 0, 58, 80
1, 593956, Note_on_c, 0, 60, 80
1, 594304, Note_off_c, 0, 60, 80
1, 594389, Note_on_c, 0, 62, 80
1, 594628, Note_off_c, 0, 62, 80
1, 594647, Note_on_c, 0, 65, 80
1, 594945, Note_off_c, 0, 65, 80
1, 595025, Note_on_c, 0, 70, 80
1, 595350, Note_off_c, 0, 70, 80
1, 595389, Note_on_c, 0, 67, 80
1, 595721, Note_off_c, 0, 67, 80
1, 595744, Note_on_c, 0, 65, 80
1, 596040, Note_off_c, 0, 65, 80
1, 596058, Note_on_c, 0, 63, 80
1, 596413, Note_off_c, 0, 63, 80
1, 596446, Note_on_c, 0, 65, 80
1, 596794, Note_off_c, 0, 65, 80
1, 596834, Note_on_c, 0, 67, 80
1, 597089, Note_off_c, 0, 67, 80
1, 597125, Note_on_c, 0, 70, 80
1, 597457, Note_off_c, 0, 70, 80
1, 597463, Note_on_c, 0, 67, 80
1, 597894, Note_off_c, 0, 67, 80
1, 597913, Note_on_c, 0, 69, 80
1, 598120, Note_off_c, 0, 69, 80
1, 598172, Note_on_c, 0, 70, 80
1, 598593, Note_off_c, 0, 70, 80
1, 598639, Note_on_c, 0, 71, 80
1, 598899, Note_off_c, 0, 71, 80
1, 598908, Note_on_c, 0, 72, 80
1, 599220, Note_off_c, 0, 72, 80
1, 599345, Note_on_c, 0, 75, 80
1, 599693, Note_off_c, 0, 75, 80
1, 599758, Note_on_c, 0, 72, 80
1, 600376, Note_off_c, 0, 72, 80
1, 600468, Note_on_c, 0, 71, 80
1, 600777, Note_off_c, 0, 71, 80
1, 600823, Note_on_c, 0, 72, 80
1, 603094, Note_off_c, 0, 72, 80
1, 603120, Note_on_c, 0, 69, 80
1, 603445, Note_off_c, 0, 69, 80
1, 603504, Note_on_c, 0, 67, 80
1, 603721, Note_off_c, 0, 67, 80
1, 603790, Note_on_c, 0, 65, 80
1, 604181, Note_off_c, 0, 65, 80
1, 604291, Note_on_c, 0, 67, 80
1, 604883, Note_off_c, 0, 67, 80
1, 604929, Note_on_c, 0, 69, 80
1, 605590, Note_off_c, 0, 69, 80
1, 605617, Note_on_c, 0, 72, 80
1, 606140, Note_off_c, 0, 72, 80
1, 606204, Note_on_c, 0, 70, 80
1, 606717, Note_off_c, 0, 70, 80
1, 606800, Note_on_c, 0, 72, 80
1, 607485, Note_off_c, 0, 72, 80
1, 607535, Note_on_c, 0, 73, 80
1, 608044, Note_off_c, 0, 73, 80
1, 608122, Note_on_c, 0, 75, 80
1, 608478, Note_off_c, 0, 75, 80
1, 608579, Note_on_c, 0, 77, 80
1, 610347, Note_off_c, 0, 77, 80
1, 610407, Note_on_c, 0, 80, 80
1, 610925, Note_off_c, 0, 80, 80
1, 611272, Note_on_c, 0, 73, 80
1, 611466, Note_off_c, 0, 73, 80
1, 611521, Note_on_c, 0, 74, 80
1, 612002, Note_off_c, 0, 74, 80
1, 616220, Note_on_c, 0, 79, 80
1, 616799, Note_off_c, 0, 79, 80
1, 617055, Note_on_c, 0, 81, 80
1, 617390, Note_off_c, 0, 81, 80
1, 617505, Note_on_c, 0, 77, 80
1, 617978, Note_off_c, 0, 77, 80
1, 618340, Note_on_c, 0, 81, 80
1, 618623, Note_off_c, 0, 81, 80
1, 618827, Note_on_c, 0, 79, 80
1, 619202, Note_off_c, 0, 79, 80
1, 619508, Note_on_c, 0, 77, 80
1, 619827, Note_off_c, 0, 77, 80
1, 620205, Note_on_c, 0, 74, 80
1, 620465, Note_off_c, 0, 74, 80
1, 620708, Note_on_c, 0, 72, 80
1, 621112, Note_off_c, 0, 72, 80
1, 622606, Note_on_c, 0, 70, 80
1, 622974, Note_off_c, 0, 70, 80
1, 623892, Note_on_c, 0, 74, 80
1, 624349, Note_off_c, 0, 74, 80
1, 625056, Note_on_c, 0, 67, 80
1, 625819, Note_off_c, 0, 67, 80
1, 627632, Note_on_c, 0, 79, 80
1, 628164, Note_off_c, 0, 79, 80
1, 628293, Note_on_c, 0, 81, 80
1, 628640, Note_off_c, 0, 81, 80
1, 628964, Note_on_c, 0, 77, 80
1, 629352, Note_off_c, 0, 77, 80
1, 629620, Note_on_c, 0, 81, 80
1, 630004, Note_off_c, 0, 81, 80
1, 630304, Note_on_c, 0, 79, 80
1, 630702, Note_off_c, 0, 79, 80
1, 630771, Note_on_c, 0, 77, 80
1, 631229, Note_off_c, 0, 77, 80
1, 631465, Note_on_c, 0, 74, 80
1, 631965, Note_off_c, 0, 74, 80
1, 632109, Note_on_c, 0, 72, 80
1, 632471, Note_off_c, 0, 72, 80
1, 633455, Note_on_c, 0, 72, 80
1, 635294, Note_off_c, 0, 72, 80
1, 635386, Note_on_c, 0, 70, 80
1, 635873, Note_off_c, 0, 70, 80
1, 636649, Note_on_c, 0, 74, 80
1, 637287, Note_off_c, 0, 74, 80
1, 639887, Note_on_c, 0, 81, 80
1, 640235, Note_off_c, 0, 81, 80
1, 640346, Note_on_c, 0, 77, 80
1, 640787, Note_off_c, 0, 77, 80
1, 641070, Note_on_c, 0, 81, 80
1, 641412, Note_off_c, 0, 81, 80
1, 641673, Note_on_c, 0, 79, 80
1, 641992, Note_off_c, 0, 79, 80
1, 642265, Note_on_c, 0, 77, 80
1, 642570, Note_off_c, 0, 77, 80
1, 642810, Note_on_c, 0, 74, 80
1, 643189, Note_off_c, 0, 74, 80
1, 643401, Note_on_c, 0, 72, 80
1, 643780, Note_off_c, 0, 72, 80
1, 644085, Note_on_c, 0, 70, 80
1, 644464, Note_off_c, 0, 70, 80
1, 644698, Note_on_c, 0, 71, 80
1, 645073, Note_off_c, 0, 71, 80
1, 645096, Note_on_c, 0, 72, 80
1, 645398, Note_off_c, 0, 72, 80
1, 645453, Note_on_c, 0, 73, 80
1, 645601, Note_off_c, 0, 73, 80
1, 645653, Note_on_c, 0, 72, 80
1, 645827, Note_off_c, 0, 72, 80
1, 645853, Note_on_c, 0, 71, 80
1, 646066, Note_off_c, 0, 71, 80
1, 646141, Note_on_c, 0, 70, 80
1, 646397, Note_off_c, 0, 70, 80
1, 646574, Note_on_c, 0, 72, 80
1, 647074, Note_off_c, 0, 72, 80
1, 647284, Note_on_c, 0, 67, 80
1, 647702, Note_off_c, 0, 67, 80
1, 647777, Note_on_c, 0, 70, 80
1, 648257, Note_off_c, 0, 70, 80
1, 648461, Note_on_c, 0, 72, 80
1, 648862, Note_off_c, 0, 72, 80
1, 649198, Note_on_c, 0, 67, 80
1, 649447, Note_off_c, 0, 67, 80
1, 649511, Note_on_c, 0, 69, 80
1, 650001, Note_off_c, 0, 69, 80
1, 650880, Note_on_c, 0, 65, 80
1, 653473, Note_off_c, 0, 65, 80
1, 653584, Note_on_c, 0, 65, 80
1, 654031, Note_off_c, 0, 65, 80
1, 654080, Note_on_c, 0, 69, 80
1, 654570, Note_off_c, 0, 69, 80
1, 655185, Note_on_c, 0, 65, 80
1, 656244, Note_off_c, 0, 65, 80
1, 658391, Note_on_c, 0, 78, 80
1, 658566, Note_off_c, 0, 78, 80
1, 658640, Note_on_c, 0, 81, 80
1, 659158, Note_off_c, 0, 81, 80
1, 659181, Note_on_c, 0, 77, 80
1, 659509, Note_off_c, 0, 77, 80
1, 659911, Note_on_c, 0, 79, 80
1, 660170, Note_off_c, 0, 79, 80
1, 660248, Note_on_c, 0, 81, 80
1, 660835, Note_off_c, 0, 81, 80
1, 660955, Note_on_c, 0, 77, 80
1, 661362, Note_off_c, 0, 77, 80
1, 661653, Note_on_c, 0, 79, 80
1, 662106, Note_off_c, 0, 79, 80
1, 662156, Note_on_c, 0, 77, 80
1, 662378, Note_off_c, 0, 77, 80
1, 662398, Note_on_c, 0, 74, 80
1, 662520, Note_off_c, 0, 74, 80
1, 662564, Note_on_c, 0, 72, 80
1, 662708, Note_off_c, 0, 72, 80
1, 662763, Note_on_c, 0, 71, 80
1, 663075, Note_off_c, 0, 71, 80
1, 663104, Note_on_c, 0, 72, 80
1, 663390, Note_off_c, 0, 72, 80
1, 663488, Note_on_c, 0, 71, 80
1, 663998, Note_off_c, 0, 71, 80
1, 664152, Note_on_c, 0, 69, 80
1, 664915, Note_off_c, 0, 69, 80
1, 665338, Note_on_c, 0, 69, 80
1, 666018, Note_off_c, 0, 69, 80
1, 666068, Note_on_c, 0, 72, 80
1, 666447, Note_off_c, 0, 72, 80
1, 666669, Note_on_c, 0, 67, 80
1, 667360, Note_off_c, 0, 67, 80
1, 667432, Note_on_c, 0, 66, 80
1, 667846, Note_off_c, 0, 66, 80
1, 667885, Note_on_c, 0, 70, 80
1, 668701, Note_off_c, 0, 70, 80
1, 669234, Note_on_c, 0, 69, 80
1, 669859, Note_off_c, 0, 69, 80
1, 669937, Note_on_c, 0, 68, 80
1, 670285, Note_off_c, 0, 68, 80
1, 670377, Note_on_c, 0, 67, 80
1, 671101, Note_off_c, 0, 67, 80
1, 671173, Note_on_c, 0, 66, 80
1, 671660, Note_off_c, 0, 66, 80
1, 671765, Note_on_c, 0, 65, 80
1, 672298, Note_off_c, 0, 65, 80
1, 672423, Note_on_c, 0, 62, 80
1, 672903, Note_off_c, 0, 62, 80
1, 672942, Note_on_c, 0, 64, 80
1, 673178, Note_off_c, 0, 64, 80
1, 673238, Note_on_c, 0, 65, 80
1, 673423, Note_off_c, 0, 65, 80
1, 673492, Note_on_c, 0, 67, 80
1, 673853, Note_off_c, 0, 67, 80
1, 674292, Note_on_c, 0, 72, 80
1, 674791, Note_off_c, 0, 72, 80
1, 674980, Note_on_c, 0, 72, 80
1, 675618, Note_off_c, 0, 72, 80
1, 676090, Note_on_c, 0, 72, 80
1, 676506, Note_off_c, 0, 72, 80
1, 676718, Note_on_c, 0, 72, 80
1, 677328, Note_off_c, 0, 72, 80
1, 679336, Note_on_c, 0, 70, 80
1, 680011, Note_off_c, 0, 70, 80
1, 680446, Note_on_c, 0, 70, 80
1, 681343, Note_off_c, 0, 70, 80
1, 681657, Note_on_c, 0, 72, 80
1, 682434, Note_off_c, 0, 72, 80
1, 682572, Note_on_c, 0, 72, 80
1, 683118, Note_off_c, 0, 72, 80
1, 683785, Note_on_c, 0, 72, 80
1, 684186, Note_off_c, 0, 72, 80
1, 684324, Note_on_c, 0, 72, 80
1, 684916, Note_off_c, 0, 72, 80
1, 685495, Note_on_c, 0, 70, 80
1, 686034, Note_off_c, 0, 70, 80
1, 686198, Note_on_c, 0, 70, 80
1, 686790, Note_off_c, 0, 70, 80
1, 687481, Note_on_c, 0, 70, 80
1, 687895, Note_off_c, 0, 70, 80
1, 688033, Note_on_c, 0, 70, 80
1, 688697, Note_off_c, 0, 70, 80
1, 689342, Note_on_c, 0, 67, 80
1, 689914, Note_off_c, 0, 67, 80
1, 690006, Note_on_c, 0, 67, 80
1, 690354, Note_off_c, 0, 67, 80
1, 690452, Note_on_c, 0, 65, 80
1, 690919, Note_off_c, 0, 65, 80
1, 691718, Note_on_c, 0, 69, 80
1, 692319, Note_off_c, 0, 69, 80
1, 694216, Note_on_c, 0, 67, 80
1, 694999, Note_off_c, 0, 67, 80
1, 695440, Note_on_c, 0, 67, 80
1, 696545, Note_off_c, 0, 67, 80
1, 696749, Note_on_c, 0, 65, 80
1, 697262, Note_off_c, 0, 65, 80
1, 697498, Note_on_c, 0, 65, 80
1, 698129, Note_off_c, 0, 65, 80
1, 699281, Note_on_c, 0, 67, 80
1, 699754, Note_off_c, 0, 67, 80
1, 700004, Note_on_c, 0, 67, 80
1, 700576, Note_off_c, 0, 67, 80
1, 701754, Note_on_c, 0, 70, 80
1, 702267, Note_off_c, 0, 70, 80
1, 702563, Note_on_c, 0, 65, 80
1, 702984, Note_off_c, 0, 65, 80
1, 704359, Note_on_c, 0, 72, 80
1, 705214, Note_off_c, 0, 72, 80
1, 712083, Note_on_c, 0, 46, 80
1, 712490, Note_off_c, 0, 46, 80
1, 712529, Note_on_c, 0, 53, 80
1, 712808, Note_off_c, 0, 53, 80
1, 712808, Note_on_c, 0, 58, 80
1, 713206, Note_off_c, 0, 58, 80
1, 713210, Note_on_c, 0, 53, 80
1, 713492, Note_off_c, 0, 53, 80
1, 713505, Note_on_c, 0, 48, 80
1, 713751, Note_off_c, 0, 48, 80
1, 713828, Note_on_c, 0, 55, 80
1, 714119, Note_off_c, 0, 55, 80
1, 714206, Note_on_c, 0, 60, 80
1, 714469, Note_off_c, 0, 60, 80
1, 714515, Note_on_c, 0, 55, 80
1, 714783, Note_off_c, 0, 55, 80
1, 714917, Note_on_c, 0, 51, 80
1, 715208, Note_off_c, 0, 51, 80
1, 715231, Note_on_c, 0, 58, 80
1, 715555, Note_off_c, 0, 58, 80
1, 715596, Note_on_c, 0, 63, 80
1, 715901, Note_off_c, 0, 63, 80
1, 715979, Note_on_c, 0, 58, 80
1, 716261, Note_off_c, 0, 58, 80
1, 716307, Note_on_c, 0, 53, 80
1, 716593, Note_off_c, 0, 53, 80
1, 716764, Note_on_c, 0, 55, 80
1, 717078, Note_off_c, 0, 55, 80
1, 717165, Note_on_c, 0, 60, 80
1, 717549, Note_off_c, 0, 60, 80
1, 717669, Note_on_c, 0, 65, 80
1, 719168, Note_off_c, 0, 65, 80
1, 719927, Note_on_c, 0, 54, 80
1, 720251, Note_off_c, 0, 54, 80
1, 720305, Note_on_c, 0, 61, 80
1, 720675, Note_off_c, 0, 61, 80
1, 720749, Note_on_c, 0, 66, 80
1, 721049, Note_off_c, 0, 66, 80
1, 721086, Note_on_c, 0, 61, 80
1, 721460, Note_off_c, 0, 61, 80
1, 721967, Note_on_c, 0, 75, 80
1, 722374, Note_off_c, 0, 75, 80
1, 722420, Note_on_c, 0, 67, 80
1, 722712, Note_off_c, 0, 67, 80
1, 722784, Note_on_c, 0, 63, 80
1, 723221, Note_off_c, 0, 63, 80
1, 723286, Note_on_c, 0, 58, 80
1, 723608, Note_off_c, 0, 58, 80
1, 723634, Note_on_c, 0, 63, 80
1, 723976, Note_off_c, 0, 63, 80
1, 724071, Note_on_c, 0, 69, 80
1, 724354, Note_off_c, 0, 69, 80
1, 724413, Note_on_c, 0, 65, 80
1, 724735, Note_off_c, 0, 65, 80
1, 724794, Note_on_c, 0, 60, 80
1, 725258, Note_off_c, 0, 60, 80
1, 725350, Note_on_c, 0, 70, 80
1, 725659, Note_off_c, 0, 70, 80
1, 725711, Note_on_c, 0, 67, 80
1, 726158, Note_off_c, 0, 67, 80
1, 726220, Note_on_c, 0, 64, 80
1, 726440, Note_off_c, 0, 64, 80
1, 726644, Note_on_c, 0, 70, 80
1, 726963, Note_off_c, 0, 70, 80
1, 727012, Note_on_c, 0, 67, 80
1, 727238, Note_off_c, 0, 67, 80
1, 727395, Note_on_c, 0, 75, 80
1, 727825, Note_off_c, 0, 75, 80
1, 727959, Note_on_c, 0, 78, 80
1, 728361, Note_off_c, 0, 78, 80
1, 728490, Note_on_c, 0, 82, 80
1, 728837, Note_off_c, 0, 82, 80
1, 728837, Note_on_c, 0, 84, 80
1, 729216, Note_off_c, 0, 84, 80
1, 729266, Note_on_c, 0, 87, 80
1, 729761, Note_off_c, 0, 87, 80
1, 731884, Note_on_c, 0, 67, 80
1, 732321, Note_off_c, 0, 67, 80
1, 732396, Note_on_c, 0, 72, 80
1, 732534, Note_off_c, 0, 72, 80
1, 732576, Note_on_c, 0, 68, 80
1, 732908, Note_off_c, 0, 68, 80
1, 733075, Note_on_c, 0, 66, 80
1, 733367, Note_off_c, 0, 66, 80
1, 733422, Note_on_c, 0, 63, 80
1, 733714, Note_off_c, 0, 63, 80
1, 733737, Note_on_c, 0, 60, 80
1, 733972, Note_off_c, 0, 60, 80
1, 734011, Note_on_c, 0, 58, 80
1, 734168, Note_off_c, 0, 58, 80
1, 734201, Note_on_c, 0, 55, 80
1, 734393, Note_off_c, 0, 55, 80
1, 734415, Note_on_c, 0, 50, 80
1, 734731, Note_off_c, 0, 50, 80
1, 734785, Note_on_c, 0, 48, 80
1, 735186, Note_off_c, 0, 48, 80
1, 735210, Note_on_c, 0, 46, 80
1, 736269, Note_off_c, 0, 46, 80
1, 741559, Note_on_c, 0, 65, 80
1, 741855, Note_off_c, 0, 65, 80
1, 741887, Note_on_c, 0, 62, 80
1, 742164, Note_off_c, 0, 62, 80
1, 742219, Note_on_c, 0, 58, 80
1, 742667, Note_off_c, 0, 58, 80
1, 742819, Note_on_c, 0, 67, 80
1, 743203, Note_off_c, 0, 67, 80
1, 746007, Note_on_c, 0, 69, 80
1, 746335, Note_off_c, 0, 69, 80
1, 747265, Note_on_c, 0, 65, 80
1, 747598, Note_off_c, 0, 65, 80
1, 748495, Note_on_c, 0, 67, 80
1, 748814, Note_off_c, 0, 67, 80
1, 749624, Note_on_c, 0, 62, 80
1, 749906, Note_off_c, 0, 62, 80
1, 749938, Note_on_c, 0, 65, 80
1, 750262, Note_off_c, 0, 65, 80
1, 750336, Note_on_c, 0, 64, 80
1, 750859, Note_off_c, 0, 64, 80
1, 750955, Note_on_c, 0, 62, 80
1, 751475, Note_off_c, 0, 62, 80
1, 751586, Note_on_c, 0, 60, 80
1, 752224, Note_off_c, 0, 60, 80
1, 752582, Note_on_c, 0, 55, 80
1, 752855, Note_off_c, 0, 55, 80
1, 752904, Note_on_c, 0, 58, 80
1, 753424, Note_off_c, 0, 58, 80
1, 753484, Note_on_c, 0, 62, 80
1, 753997, Note_off_c, 0, 62, 80
1, 754136, Note_on_c, 0, 60, 80
1, 754621, Note_off_c, 0, 60, 80
1, 754708, Note_on_c, 0, 57, 80
1, 755124, Note_off_c, 0, 57, 80
1, 755221, Note_on_c, 0, 53, 80
1, 755767, Note_off_c, 0, 53, 80
1, 756145, Note_on_c, 0, 52, 80
1, 756434, Note_off_c, 0, 52, 80
1, 756474, Note_on_c, 0, 55, 80
1, 757520, Note_off_c, 0, 55, 80
1, 757631, Note_on_c, 0, 53, 80
1, 758677, Note_off_c, 0, 53, 80
1, 759060, Note_on_c, 0, 58, 80
1, 760027, Note_off_c, 0, 58, 80
1, 760184, Note_on_c, 0, 60, 80
1, 761342, Note_off_c, 0, 60, 80
1, 761453, Note_on_c, 0, 62, 80
1, 762690, Note_off_c, 0, 62, 80
1, 762722, Note_on_c, 0, 65, 80
1, 763893, Note_off_c, 0, 65, 80
1, 763989, Note_on_c, 0, 67, 80
1, 765035, Note_off_c, 0, 67, 80
1, 765095, Note_on_c, 0, 69, 80
1, 765562, Note_off_c, 0, 69, 80
1, 765589, Note_on_c, 0, 70, 80
1, 766204, Note_off_c, 0, 70, 80
1, 766403, Note_on_c, 0, 67, 80
1, 767847, Note_off_c, 0, 67, 80
1, 772072, Note_on_c, 0, 67, 80
1, 772453, Note_off_c, 0, 67, 80
1, 772499, Note_on_c, 0, 69, 80
1, 773157, Note_off_c, 0, 69, 80
1, 773268, Note_on_c, 0, 70, 80
1, 773761, Note_off_c, 0, 70, 80
1, 773820, Note_on_c, 0, 72, 80
1, 774307, Note_off_c, 0, 72, 80
1, 774511, Note_on_c, 0, 70, 80
1, 774925, Note_off_c, 0, 70, 80
1, 775016, Note_on_c, 0, 69, 80
1, 775631, Note_off_c, 0, 69, 80
1, 775709, Note_on_c, 0, 67, 80
1, 776157, Note_off_c, 0, 67, 80
1, 776304, Note_on_c, 0, 70, 80
1, 776854, Note_off_c, 0, 70, 80
1, 776914, Note_on_c, 0, 67, 80
1, 777404, Note_off_c, 0, 67, 80
1, 777453, Note_on_c, 0, 70, 80
1, 778078, Note_off_c, 0, 70, 80
1, 778143, Note_on_c, 0, 67, 80
1, 778715, Note_off_c, 0, 67, 80
1, 778800, Note_on_c, 0, 69, 80
1, 779366, Note_off_c, 0, 69, 80
1, 779444, Note_on_c, 0, 67, 80
1, 780089, Note_off_c, 0, 67, 80
1, 780161, Note_on_c, 0, 70, 80
1, 780549, Note_off_c, 0, 70, 80
1, 780674, Note_on_c, 0, 70, 80
1, 781174, Note_off_c, 0, 70, 80
1, 781970, Note_on_c, 0, 69, 80
1, 782450, Note_off_c, 0, 69, 80
1, 782752, Note_on_c, 0, 67, 80
1, 783028, Note_off_c, 0, 67, 80
1, 783126, Note_on_c, 0, 70, 80
1, 783652, Note_off_c, 0, 70, 80
1, 783777, Note_on_c, 0, 70, 80
1, 784336, Note_off_c, 0, 70, 80
1, 784414, Note_on_c, 0, 67, 80
1, 784960, Note_off_c, 0, 67, 80
1, 784992, Note_on_c, 0, 69, 80
1, 785623, Note_off_c, 0, 69, 80
1, 785708, Note_on_c, 0, 67, 80
1, 786214, Note_off_c, 0, 67, 80
1, 786312, Note_on_c, 0, 70, 80
1, 786779, Note_off_c, 0, 70, 80
1, 786897, Note_on_c, 0, 70, 80
1, 787410, Note_off_c, 0, 70, 80
1, 787521, Note_on_c, 0, 70, 80
1, 788093, Note_off_c, 0, 70, 80
1, 788244, Note_on_c, 0, 67, 80
1, 788586, Note_off_c, 0, 67, 80
1, 788734, Note_on_c, 0, 70, 80
1, 789266, Note_off_c, 0, 70, 80
1, 789400, Note_on_c, 0, 70, 80
1, 789807, Note_off_c, 0, 70, 80
1, 789913, Note_on_c, 0, 70, 80
1, 790315, Note_off_c, 0, 70, 80
1, 790648, Note_on_c, 0, 67, 80
1, 791073, Note_off_c, 0, 67, 80
1, 791313, Note_on_c, 0, 70, 80
1, 791766, Note_off_c, 0, 70, 80
1, 791867, Note_on_c, 0, 70, 80
1, 792288, Note_off_c, 0, 70, 80
1, 792371, Note_on_c, 0, 67, 80
1, 792894, Note_off_c, 0, 67, 80
1, 793153, Note_on_c, 0, 70, 80
1, 793676, Note_off_c, 0, 70, 80
1, 793856, Note_on_c, 0, 70, 80
1, 794346, Note_off_c, 0, 70, 80
1, 794369, Note_on_c, 0, 67, 80
1, 794882, Note_off_c, 0, 67, 80
1, 795016, Note_on_c, 0, 70, 80
1, 796080, Note_off_c, 0, 70, 80
1, 798824, Note_on_c, 0, 76, 80
1, 799296, Note_off_c, 0, 76, 80
1, 799351, Note_on_c, 0, 71, 80
1, 799850, Note_off_c, 0, 71, 80
1, 799933, Note_on_c, 0, 67, 80
1, 800335, Note_off_c, 0, 67, 80
1, 800575, Note_on_c, 0, 71, 80
1, 801000, Note_off_c, 0, 71, 80
1, 801259, Note_on_c, 0, 67, 80
1, 801684, Note_off_c, 0, 67, 80
1, 801895, Note_on_c, 0, 69, 80
1, 802296, Note_off_c, 0, 69, 80
1, 802427, Note_on_c, 0, 64, 80
1, 802947, Note_off_c, 0, 64, 80
1, 803144, Note_on_c, 0, 68, 80
1, 803552, Note_off_c, 0, 68, 80
1, 803841, Note_on_c, 0, 71, 80
1, 804321, Note_off_c, 0, 71, 80
1, 804413, Note_on_c, 0, 65, 80
1, 804807, Note_off_c, 0, 65, 80
1, 804833, Note_on_c, 0, 66, 80
1, 805530, Note_off_c, 0, 66, 80
1, 805543, Note_on_c, 0, 69, 80
1, 806010, Note_off_c, 0, 69, 80
1, 806161, Note_on_c, 0, 64, 80
1, 806753, Note_off_c, 0, 64, 80
1, 806884, Note_on_c, 0, 68, 80
1, 807404, Note_off_c, 0, 68, 80
1, 807476, Note_on_c, 0, 63, 80
1, 807963, Note_off_c, 0, 63, 80
1, 808160, Note_on_c, 0, 67, 80
1, 808653, Note_off_c, 0, 67, 80
1, 808751, Note_on_c, 0, 62, 80
1, 809178, Note_off_c, 0, 62, 80
1, 809270, Note_on_c, 0, 65, 80
1, 809717, Note_off_c, 0, 65, 80
1, 809921, Note_on_c, 0, 66, 80
1, 810493, Note_off_c, 0, 66, 80
1, 810565, Note_on_c, 0, 70, 80
1, 811052, Note_off_c, 0, 70, 80
1, 811196, Note_on_c, 0, 65, 80
1, 811689, Note_off_c, 0, 65, 80
1, 811820, Note_on_c, 0, 65, 80
1, 812208, Note_off_c, 0, 65, 80
1, 812412, Note_on_c, 0, 65, 80
1, 812945, Note_off_c, 0, 65, 80
1, 813129, Note_on_c, 0, 62, 80
1, 813543, Note_off_c, 0, 62, 80
1, 813641, Note_on_c, 0, 65, 80
1, 813996, Note_off_c, 0, 65, 80
1, 814239, Note_on_c, 0, 65, 80
1, 814693, Note_off_c, 0, 65, 80
1, 814956, Note_on_c, 0, 65, 80
1, 815673, Note_off_c, 0, 65, 80
1, 817384, Note_on_c, 0, 65, 80
1, 818114, Note_off_c, 0, 65, 80
1, 819489, Note_on_c, 0, 65, 80
1, 819982, Note_off_c, 0, 65, 80
1, 821252, Note_on_c, 0, 65, 80
1, 822700, Note_off_c, 0, 65, 80
1, 823068, Note_on_c, 0, 67, 80
1, 823568, Note_off_c, 0, 67, 80
1, 823693, Note_on_c, 0, 69, 80
1, 824877, Note_off_c, 0, 69, 80
1, 825015, Note_on_c, 0, 72, 80
1, 825679, Note_off_c, 0, 72, 80
1, 827355, Note_on_c, 0, 65, 80
1, 827924, Note_off_c, 0, 65, 80
1, 828851, Note_on_c, 0, 65, 80
1, 829364, Note_off_c, 0, 65, 80
1, 831259, Note_on_c, 0, 65, 80
1, 832601, Note_off_c, 0, 65, 80
1, 833127, Note_on_c, 0, 67, 80
1, 833607, Note_off_c, 0, 67, 80
1, 833626, Note_on_c, 0, 69, 80
1, 834935, Note_off_c, 0, 69, 80
1, 834974, Note_on_c, 0, 72, 80
1, 835415, Note_off_c, 0, 72, 80
1, 836211, Note_on_c, 0, 65, 80
1, 836803, Note_off_c, 0, 65, 80
1, 838758, Note_on_c, 0, 65, 80
1, 839436, Note_off_c, 0, 65, 80
1, 840561, Note_on_c, 0, 67, 80
1, 840765, Note_off_c, 0, 67, 80
1, 840797, Note_on_c, 0, 65, 80
1, 841053, Note_off_c, 0, 65, 80
1, 841243, Note_on_c, 0, 62, 80
1, 841815, Note_off_c, 0, 62, 80
1, 841874, Note_on_c, 0, 65, 80
1, 842387, Note_off_c, 0, 65, 80
1, 842473, Note_on_c, 0, 67, 80
1, 843028, Note_off_c, 0, 67, 80
1, 843176, Note_on_c, 0, 69, 80
1, 843472, Note_off_c, 0, 69, 80
1, 843796, Note_on_c, 0, 72, 80
1, 844254, Note_off_c, 0, 72, 80
1, 844369, Note_on_c, 0, 70, 80
1, 844864, Note_off_c, 0, 70, 80
1, 844970, Note_on_c, 0, 67, 80
1, 845571, Note_off_c, 0, 67, 80
1, 845672, Note_on_c, 0, 62, 80
1, 846074, Note_off_c, 0, 62, 80
1, 846194, Note_on_c, 0, 65, 80
1, 846791, Note_off_c, 0, 65, 80
1, 846823, Note_on_c, 0, 67, 80
1, 847142, Note_off_c, 0, 67, 80
1, 847405, Note_on_c, 0, 69, 80
1, 847900, Note_off_c, 0, 69, 80
1, 848261, Note_on_c, 0, 65, 80
1, 848552, Note_off_c, 0, 65, 80
1, 848621, Note_on_c, 0, 67, 80
1, 849764, Note_off_c, 0, 67, 80
1, 849847, Note_on_c, 0, 65, 80
1, 850379, Note_off_c, 0, 65, 80
1, 850522, Note_on_c, 0, 67, 80
1, 850980, Note_off_c, 0, 67, 80
1, 853442, Note_on_c, 0, 67, 80
1, 854185, Note_off_c, 0, 67, 80
1, 854290, Note_on_c, 0, 65, 80
1, 854612, Note_off_c, 0, 65, 80
1, 854717, Note_on_c, 0, 62, 80
1, 855362, Note_off_c, 0, 62, 80
1, 855480, Note_on_c, 0, 60, 80
1, 855907, Note_off_c, 0, 60, 80
1, 856025, Note_on_c, 0, 55, 80
1, 857901, Note_off_c, 0, 55, 80
1, 859672, Note_on_c, 0, 67, 80
1, 860681, Note_off_c, 0, 67, 80
1, 861106, Note_on_c, 0, 58, 80
1, 862781, Note_off_c, 0, 58, 80
1, 864863, Note_on_c, 0, 67, 80
1, 865575, Note_off_c, 0, 67, 80
1, 866056, Note_on_c, 0, 58, 80
1, 866500, Note_off_c, 0, 58, 80
1, 866555, Note_on_c, 0, 59, 80
1, 867332, Note_off_c, 0, 59, 80
1, 869627, Note_on_c, 0, 65, 80
1, 869913, Note_off_c, 0, 65, 80
1, 869968, Note_on_c, 0, 67, 80
1, 870643, Note_off_c, 0, 67, 80
1, 871050, Note_on_c, 0, 60, 80
1, 872207, Note_off_c, 0, 60, 80
1, 874317, Note_on_c, 0, 66, 80
1, 874502, Note_off_c, 0, 66, 80
1, 874585, Note_on_c, 0, 67, 80
1, 875057, Note_off_c, 0, 67, 80
1, 875578, Note_on_c, 0, 65, 80
1, 877710, Note_off_c, 0, 65, 80
1, 879632, Note_on_c, 0, 70, 80
1, 880184, Note_off_c, 0, 70, 80
1, 881052, Note_on_c, 0, 61, 80
1, 881931, Note_off_c, 0, 61, 80
1, 886166, Note_on_c, 0, 65, 80
1, 886665, Note_off_c, 0, 65, 80
1, 886748, Note_on_c, 0, 63, 80
1, 887183, Note_off_c, 0, 63, 80
1, 887271, Note_on_c, 0, 68, 80
1, 887797, Note_off_c, 0, 68, 80
1, 888001, Note_on_c, 0, 65, 80
1, 888409, Note_off_c, 0, 65, 80
1, 888538, Note_on_c, 0, 63, 80
1, 889195, Note_off_c, 0, 63, 80
1, 889241, Note_on_c, 0, 61, 80
1, 889694, Note_off_c, 0, 61, 80
1, 889740, Note_on_c, 0, 58, 80
1, 890441, Note_off_c, 0, 58, 80
1, 890506, Note_on_c, 0, 56, 80
1, 890986, Note_off_c, 0, 56, 80
1, 891762, Note_on_c, 0, 72, 80
1, 892334, Note_off_c, 0, 72, 80
1, 892933, Note_on_c, 0, 70, 80
1, 893426, Note_off_c, 0, 70, 80
1, 894354, Note_on_c, 0, 68, 80
1, 894841, Note_off_c, 0, 68, 80
1, 895387, Note_on_c, 0, 65, 80
1, 895972, Note_off_c, 0, 65, 80
1, 896214, Note_on_c, 0, 58, 80
1, 896482, Note_off_c, 0, 58, 80
1, 896509, Note_on_c, 0, 59, 80
1, 897832, Note_off_c, 0, 59, 80
1, 899787, Note_on_c, 0, 67, 80
1, 900366, Note_off_c, 0, 67, 80
1, 901090, Note_on_c, 0, 61, 80
1, 901353, Note_off_c, 0, 61, 80
1, 901379, Note_on_c, 0, 62, 80
1, 902267, Note_off_c, 0, 62, 80
1, 904906, Note_on_c, 0, 58, 80
1, 905373, Note_off_c, 0, 58, 80
1, 905458, Note_on_c, 0, 70, 80
1, 905820, Note_off_c, 0, 70, 80
1, 906135, Note_on_c, 0, 67, 80
1, 906687, Note_off_c, 0, 67, 80
1, 907397, Note_on_c, 0, 65, 80
1, 908035, Note_off_c, 0, 65, 80
1, 908678, Note_on_c, 0, 61, 80
1, 908927, Note_off_c, 0, 61, 80
1, 908996, Note_on_c, 0, 62, 80
1, 909431, Note_off_c, 0, 62, 80
1, 910475, Note_on_c, 0, 60, 80
1, 910902, Note_off_c, 0, 60, 80
1, 911751, Note_on_c, 0, 60, 80
1, 912290, Note_off_c, 0, 60, 80
1, 914778, Note_on_c, 0, 65, 80
1, 915377, Note_off_c, 0, 65, 80
1, 916107, Note_on_c, 0, 70, 80
1, 916699, Note_off_c, 0, 70, 80
1, 917199, Note_on_c, 0, 68, 80
1, 917857, Note_off_c, 0, 68, 80
1, 918640, Note_on_c, 0, 65, 80
1, 919469, Note_off_c, 0, 65, 80
1, 920469, Note_on_c, 0, 63, 80
1, 920989, Note_off_c, 0, 63, 80
1, 921739, Note_on_c, 0, 65, 80
1, 922252, Note_off_c, 0, 65, 80
1, 922916, Note_on_c, 0, 61, 80
1, 923567, Note_off_c, 0, 61, 80
1, 924271, Note_on_c, 0, 58, 80
1, 925678, Note_off_c, 0, 58, 80
1, 928732, Note_on_c, 0, 44, 80
1, 929185, Note_off_c, 0, 44, 80
1, 929249, Note_on_c, 0, 46, 80
1, 929735, Note_off_c, 0, 46, 80
1, 929841, Note_on_c, 0, 49, 80
1, 930512, Note_off_c, 0, 49, 80
1, 930544, Note_on_c, 0, 51, 80
1, 930909, Note_off_c, 0, 51, 80
1, 931006, Note_on_c, 0, 54, 80
1, 931505, Note_off_c, 0, 54, 80
1, 931745, Note_on_c, 0, 56, 80
1, 932249, Note_off_c, 0, 56, 80
1, 932457, Note_on_c, 0, 69, 80
1, 932905, Note_off_c, 0, 69, 80
1, 932951, Note_on_c, 0, 67, 80
1, 933506, Note_off_c, 0, 67, 80
1, 933626, Note_on_c, 0, 63, 80
1, 934088, Note_off_c, 0, 63, 80
1, 934245, Note_on_c, 0, 66, 80
1, 934721, Note_off_c, 0, 66, 80
1, 934785, Note_on_c, 0, 68, 80
1, 935270, Note_off_c, 0, 68, 80
1, 935399, Note_on_c, 0, 70, 80
1, 935847, Note_off_c, 0, 70, 80
1, 936124, Note_on_c, 0, 71, 80
1, 936531, Note_off_c, 0, 71, 80
1, 936642, Note_on_c, 0, 74, 80
1, 937373, Note_off_c, 0, 74, 80
1, 937474, Note_on_c, 0, 69, 80
1, 937890, Note_off_c, 0, 69, 80
1, 937964, Note_on_c, 0, 71, 80
1, 938547, Note_off_c, 0, 71, 80
1, 938598, Note_on_c, 0, 67, 80
1, 939170, Note_off_c, 0, 67, 80
1, 939275, Note_on_c, 0, 65, 80
1, 939870, Note_off_c, 0, 65, 80
1, 939916, Note_on_c, 0, 62, 80
1, 940501, Note_off_c, 0, 62, 80
1, 940560, Note_on_c, 0, 60, 80
1, 941060, Note_off_c, 0, 60, 80
1, 941201, Note_on_c, 0, 58, 80
1, 942300, Note_off_c, 0, 58, 80
1, 947586, Note_on_c, 0, 79, 80
1, 947863, Note_off_c, 0, 79, 80
1, 947909, Note_on_c, 0, 81, 80
1, 948705, Note_off_c, 0, 81, 80
1, 948959, Note_on_c, 0, 77, 80
1, 949228, Note_off_c, 0, 77, 80
1, 949405, Note_on_c, 0, 74, 80
1, 949780, Note_off_c, 0, 74, 80
1, 949865, Note_on_c, 0, 72, 80
1, 950358, Note_off_c, 0, 72, 80
1, 950607, Note_on_c, 0, 70, 80
1, 950847, Note_off_c, 0, 70, 80
1, 950865, Note_on_c, 0, 71, 80
1, 951448, Note_off_c, 0, 71, 80
1, 951494, Note_on_c, 0, 70, 80
1, 951836, Note_off_c, 0, 70, 80
1, 951888, Note_on_c, 0, 67, 80
1, 952348, Note_off_c, 0, 67, 80
1, 952407, Note_on_c, 0, 65, 80
1, 953006, Note_off_c, 0, 65, 80
1, 953213, Note_on_c, 0, 62, 80
1, 953416, Note_off_c, 0, 62, 80
1, 953647, Note_on_c, 0, 65, 80
1, 954225, Note_off_c, 0, 65, 80
1, 954525, Note_on_c, 0, 68, 80
1, 954858, Note_off_c, 0, 68, 80
1, 954932, Note_on_c, 0, 69, 80
1, 955487, Note_off_c, 0, 69, 80
1, 955487, Note_on_c, 0, 71, 80
1, 955954, Note_off_c, 0, 71, 80
1, 956233, Note_on_c, 0, 66, 80
1, 956463, Note_off_c, 0, 66, 80
1, 956528, Note_on_c, 0, 67, 80
1, 956811, Note_off_c, 0, 67, 80
1, 956909, Note_on_c, 0, 68, 80
1, 957330, Note_off_c, 0, 68, 80
1, 957487, Note_on_c, 0, 66, 80
1, 958039, Note_off_c, 0, 66, 80
1, 958150, Note_on_c, 0, 64, 80
1, 958459, Note_off_c, 0, 64, 80
1, 958551, Note_on_c, 0, 65, 80
1, 959446, Note_off_c, 0, 65, 80
1, 959492, Note_on_c, 0, 67, 80
1, 959827, Note_off_c, 0, 67, 80
1, 959905, Note_on_c, 0, 69, 80
1, 960425, Note_off_c, 0, 69, 80
1, 960530, Note_on_c, 0, 72, 80
1, 960865, Note_off_c, 0, 72, 80
1, 961075, Note_on_c, 0, 67, 80
1, 961812, Note_off_c, 0, 67, 80
1, 961871, Note_on_c, 0, 70, 80
1, 962338, Note_off_c, 0, 70, 80
1, 962430, Note_on_c, 0, 71, 80
1, 962982, Note_off_c, 0, 71, 80
1, 963034, Note_on_c, 0, 74, 80
1, 963461, Note_off_c, 0, 74, 80
1, 963645, Note_on_c, 0, 73, 80
1, 964171, Note_off_c, 0, 73, 80
1, 964309, Note_on_c, 0, 75, 80
1, 964763, Note_off_c, 0, 75, 80
1, 964914, Note_on_c, 0, 77, 80
1, 965420, Note_off_c, 0, 77, 80
1, 965505, Note_on_c, 0, 80, 80
1, 965880, Note_off_c, 0, 80, 80
1, 966037, Note_on_c, 0, 78, 80
1, 966517, Note_off_c, 0, 78, 80
1, 966806, Note_on_c, 0, 73, 80
1, 967273, Note_off_c, 0, 73, 80
1, 967351, Note_on_c, 0, 70, 80
1, 967805, Note_off_c, 0, 70, 80
1, 968074, Note_on_c, 0, 66, 80
1, 968468, Note_off_c, 0, 66, 80
1, 968639, Note_on_c, 0, 70, 80
1, 969093, Note_off_c, 0, 70, 80
1, 969270, Note_on_c, 0, 73, 80
1, 969737, Note_off_c, 0, 73, 80
1, 969783, Note_on_c, 0, 75, 80
1, 970342, Note_off_c, 0, 75, 80
1, 970453, Note_on_c, 0, 78, 80
1, 970821, Note_off_c, 0, 78, 80
1, 971373, Note_on_c, 0, 84, 80
1, 971833, Note_off_c, 0, 84, 80
1, 972484, Note_on_c, 0, 81, 80
1, 972971, Note_off_c, 0, 81, 80
1, 973300, Note_on_c, 0, 78, 80
1, 973787, Note_off_c, 0, 78, 80
1, 974276, Note_on_c, 0, 75, 80
1, 974670, Note_off_c, 0, 75, 80
1, 975034, Note_on_c, 0, 71, 80
1, 975737, Note_off_c, 0, 71, 80
1, 978569, Note_on_c, 0, 79, 80
1, 979763, Note_off_c, 0, 79, 80
1, 983829, Note_on_c, 0, 82, 80
1, 984974, Note_off_c, 0, 82, 80
1, 987292, Note_on_c, 0, 79, 80
1, 987546, Note_off_c, 0, 79, 80
1, 987592, Note_on_c, 0, 77, 80
1, 987888, Note_on_c, 0, 74, 80
1, 987888, Note_off_c, 0, 77, 80
1, 988161, Note_off_c, 0, 74, 80
1, 988188, Note_on_c, 0, 73, 80
1, 988512, Note_off_c, 0, 73, 80
1, 989136, Note_on_c, 0, 69, 80
1, 989367, Note_off_c, 0, 69, 80
1, 989468, Note_on_c, 0, 70, 80
1, 989903, Note_off_c, 0, 70, 80
1, 989921, Note_on_c, 0, 72, 80
1, 990444, Note_off_c, 0, 72, 80
1, 990624, Note_on_c, 0, 67, 80
1, 992345, Note_off_c, 0, 67, 80
1, 992368, Note_on_c, 0, 62, 80
1, 992687, Note_off_c, 0, 62, 80
1, 992701, Note_on_c, 0, 63, 80
1, 992979, Note_off_c, 0, 63, 80
1, 992992, Note_on_c, 0, 70, 80
1, 993237, Note_off_c, 0, 70, 80
1, 993297, Note_on_c, 0, 67, 80
1, 993579, Note_off_c, 0, 67, 80
1, 993856, Note_on_c, 0, 69, 80
1, 994115, Note_off_c, 0, 69, 80
1, 994239, Note_on_c, 0, 73, 80
1, 994447, Note_off_c, 0, 73, 80
1, 994493, Note_on_c, 0, 74, 80
1, 994904, Note_off_c, 0, 74, 80
1, 1000260, Note_on_c, 0, 74, 80
1, 1000589, Note_off_c, 0, 74, 80
1, 1000625, Note_on_c, 0, 76, 80
1, 1000914, Note_off_c, 0, 76, 80
1, 1000956, Note_on_c, 0, 77, 80
1, 1001247, Note_off_c, 0, 77, 80
1, 1001274, Note_on_c, 0, 76, 80
1, 1001510, Note_off_c, 0, 76, 80
1, 1001550, Note_on_c, 0, 75, 80
1, 1001803, Note_off_c, 0, 75, 80
1, 1001888, Note_on_c, 0, 74, 80
1, 1002044, Note_off_c, 0, 74, 80
1, 1002085, Note_on_c, 0, 73, 80
1, 1002277, Note_off_c, 0, 73, 80
1, 1002331, Note_on_c, 0, 72, 80
1, 1002521, Note_off_c, 0, 72, 80
1, 1002567, Note_on_c, 0, 71, 80
1, 1002820, Note_off_c, 0, 71, 80
1, 1002836, Note_on_c, 0, 67, 80
1, 1003053, Note_off_c, 0, 67, 80
1, 1003072, Note_on_c, 0, 70, 80
1, 1003384, Note_off_c, 0, 70, 80
1, 1003482, Note_on_c, 0, 67, 80
1, 1003725, Note_off_c, 0, 67, 80
1, 1003757, Note_on_c, 0, 68, 80
1, 1003993, Note_off_c, 0, 68, 80
1, 1004048, Note_on_c, 0, 72, 80
1, 1004278, Note_off_c, 0, 72, 80
1, 1004320, Note_on_c, 0, 68, 80
1, 1004682, Note_off_c, 0, 68, 80
1, 1004721, Note_on_c, 0, 67, 80
1, 1004994, Note_off_c, 0, 67, 80
1, 1005053, Note_on_c, 0, 66, 80
1, 1005365, Note_off_c, 0, 66, 80
1, 1005409, Note_on_c, 0, 69, 80
1, 1005653, Note_off_c, 0, 69, 80
1, 1005675, Note_on_c, 0, 65, 80
1, 1005973, Note_off_c, 0, 65, 80
1, 1006000, Note_on_c, 0, 64, 80
1, 1006230, Note_off_c, 0, 64, 80
1, 1006279, Note_on_c, 0, 63, 80
1, 1006652, Note_off_c, 0, 63, 80
1, 1006715, Note_on_c, 0, 61, 80
1, 1007054, Note_off_c, 0, 61, 80
1, 1007072, Note_on_c, 0, 62, 80
1, 1007291, Note_off_c, 0, 62, 80
1, 1007315, Note_on_c, 0, 65, 80
1, 1007579, Note_off_c, 0, 65, 80
1, 1007583, Note_on_c, 0, 64, 80
1, 1007770, Note_off_c, 0, 64, 80
1, 1007812, Note_on_c, 0, 62, 80
1, 1008072, Note_off_c, 0, 62, 80
1, 1008119, Note_on_c, 0, 63, 80
1, 1008424, Note_off_c, 0, 63, 80
1, 1008439, Note_on_c, 0, 61, 80
1, 1008663, Note_off_c, 0, 61, 80
1, 1008715, Note_on_c, 0, 60, 80
1, 1009002, Note_off_c, 0, 60, 80
1, 1009021, Note_on_c, 0, 58, 80
1, 1009218, Note_off_c, 0, 58, 80
1, 1009273, Note_on_c, 0, 56, 80
1, 1009531, Note_off_c, 0, 56, 80
1, 1009583, Note_on_c, 0, 58, 80
1, 1009874, Note_off_c, 0, 58, 80
1, 1009950, Note_on_c, 0, 60, 80
1, 1010119, Note_off_c, 0, 60, 80
1, 1010152, Note_on_c, 0, 63, 80
1, 1010419, Note_off_c, 0, 63, 80
1, 1010454, Note_on_c, 0, 68, 80
1, 1010835, Note_off_c, 0, 68, 80
1, 1010953, Note_on_c, 0, 65, 80
1, 1011213, Note_off_c, 0, 65, 80
1, 1011268, Note_on_c, 0, 67, 80
1, 1011498, Note_off_c, 0, 67, 80
1, 1011563, Note_on_c, 0, 70, 80
1, 1011859, Note_off_c, 0, 70, 80
1, 1011895, Note_on_c, 0, 66, 80
1, 1012052, Note_off_c, 0, 66, 80
1, 1012081, Note_on_c, 0, 63, 80
1, 1012344, Note_off_c, 0, 63, 80
1, 1012403, Note_on_c, 0, 58, 80
1, 1012718, Note_off_c, 0, 58, 80
1, 1012780, Note_on_c, 0, 62, 80
1, 1013148, Note_off_c, 0, 62, 80
1, 1013187, Note_on_c, 0, 58, 80
1, 1013414, Note_off_c, 0, 58, 80
1, 1013697, Note_on_c, 0, 55, 80
1, 1013986, Note_off_c, 0, 55, 80
1, 1014117, Note_on_c, 0, 60, 80
1, 1014450, Note_off_c, 0, 60, 80
1, 1014505, Note_on_c, 0, 63, 80
1, 1014754, Note_off_c, 0, 63, 80
1, 1014818, Note_on_c, 0, 67, 80
1, 1015026, Note_off_c, 0, 67, 80
1, 1015127, Note_on_c, 0, 70, 80
1, 1015423, Note_off_c, 0, 70, 80
1, 1015525, Note_on_c, 0, 67, 80
1, 1015742, Note_off_c, 0, 67, 80
1, 1015791, Note_on_c, 0, 65, 80
1, 1015978, Note_off_c, 0, 65, 80
1, 1015996, Note_on_c, 0, 63, 80
1, 1016233, Note_off_c, 0, 63, 80
1, 1016255, Note_on_c, 0, 62, 80
1, 1016390, Note_off_c, 0, 62, 80
1, 1016437, Note_on_c, 0, 60, 80
1, 1016683, Note_off_c, 0, 60, 80
1, 1016734, Note_on_c, 0, 59, 80
1, 1017003, Note_off_c, 0, 59, 80
1, 1017089, Note_on_c, 0, 62, 80
1, 1017335, Note_off_c, 0, 62, 80
1, 1017381, Note_on_c, 0, 64, 80
1, 1017670, Note_off_c, 0, 64, 80
1, 1017739, Note_on_c, 0, 69, 80
1, 1017982, Note_off_c, 0, 69, 80
1, 1018021, Note_on_c, 0, 67, 80
1, 1018192, Note_off_c, 0, 67, 80
1, 1018231, Note_on_c, 0, 66, 80
1, 1018385, Note_off_c, 0, 66, 80
1, 1018450, Note_on_c, 0, 67, 80
1, 1018693, Note_off_c, 0, 67, 80
1, 1018742, Note_on_c, 0, 69, 80
1, 1018965, Note_off_c, 0, 69, 80
1, 1019020, Note_on_c, 0, 71, 80
1, 1019240, Note_off_c, 0, 71, 80
1, 1019272, Note_on_c, 0, 73, 80
1, 1019479, Note_off_c, 0, 73, 80
1, 1019554, Note_on_c, 0, 79, 80
1, 1020998, Note_off_c, 0, 79, 80
1, 1023536, Note_on_c, 0, 76, 80
1, 1023782, Note_off_c, 0, 76, 80
1, 1023814, Note_on_c, 0, 75, 80
1, 1024083, Note_off_c, 0, 75, 80
1, 1024102, Note_on_c, 0, 76, 80
1, 1024355, Note_off_c, 0, 76, 80
1, 1024394, Note_on_c, 0, 75, 80
1, 1024660, Note_off_c, 0, 75, 80
1, 1024732, Note_on_c, 0, 74, 80
1, 1025038, Note_off_c, 0, 74, 80
1, 1025077, Note_on_c, 0, 73, 80
1, 1025360, Note_off_c, 0, 73, 80
1, 1025406, Note_on_c, 0, 72, 80
1, 1025682, Note_off_c, 0, 72, 80
1, 1025721, Note_on_c, 0, 71, 80
1, 1026004, Note_off_c, 0, 71, 80
1, 1026053, Note_on_c, 0, 70, 80
1, 1026833, Note_off_c, 0, 70, 80
1, 1026868, Note_on_c, 0, 67, 80
1, 1027798, Note_off_c, 0, 67, 80
1, 1030440, Note_on_c, 0, 67, 80
1, 1030801, Note_off_c, 0, 67, 80
1, 1031105, Note_on_c, 0, 68, 80
1, 1031256, Note_off_c, 0, 68, 80
1, 1031290, Note_on_c, 0, 69, 80
1, 1031720, Note_off_c, 0, 69, 80
1, 1031786, Note_on_c, 0, 65, 80
1, 1032174, Note_off_c, 0, 65, 80
1, 1035547, Note_on_c, 0, 65, 80
1, 1035917, Note_off_c, 0, 65, 80
1, 1035972, Note_on_c, 0, 70, 80
1, 1036351, Note_off_c, 0, 70, 80
1, 1036388, Note_on_c, 0, 68, 80
1, 1036767, Note_off_c, 0, 68, 80
1, 1036827, Note_on_c, 0, 65, 80
1, 1037164, Note_off_c, 0, 65, 80
1, 1037229, Note_on_c, 0, 63, 80
1, 1037535, Note_off_c, 0, 63, 80
1, 1037584, Note_on_c, 0, 65, 80
1, 1037962, Note_off_c, 0, 65, 80
1, 1038004, Note_on_c, 0, 61, 80
1, 1038362, Note_off_c, 0, 61, 80
1, 1038496, Note_on_c, 0, 63, 80
1, 1038811, Note_off_c, 0, 63, 80
1, 1038929, Note_on_c, 0, 58, 80
1, 1039294, Note_off_c, 0, 58, 80
1, 1039349, Note_on_c, 0, 61, 80
1, 1039694, Note_off_c, 0, 61, 80
1, 1039766, Note_on_c, 0, 56, 80
1, 1040131, Note_off_c, 0, 56, 80
1, 1040177, Note_on_c, 0, 58, 80
1, 1040516, Note_off_c, 0, 58, 80
1, 1040588, Note_on_c, 0, 53, 80
1, 1040828, Note_off_c, 0, 53, 80
1, 1040922, Note_on_c, 0, 56, 80
1, 1041301, Note_off_c, 0, 56, 80
1, 1041421, Note_on_c, 0, 51, 80
1, 1041717, Note_off_c, 0, 51, 80
1, 1041791, Note_on_c, 0, 53, 80
1, 1042119, Note_off_c, 0, 53, 80
1, 1042267, Note_on_c, 0, 49, 80
1, 1042553, Note_off_c, 0, 49, 80
1, 1042613, Note_on_c, 0, 51, 80
1, 1042964, Note_off_c, 0, 51, 80
1, 1043084, Note_on_c, 0, 46, 80
1, 1043350, Note_off_c, 0, 46, 80
1, 1043468, Note_on_c, 0, 46, 80
1, 1044692, Note_off_c, 0, 46, 80
1, 1044752, Note_on_c, 0, 44, 80
1, 1046214, Note_off_c, 0, 44, 80
1, 1049341, Note_on_c, 0, 68, 80
1, 1049586, Note_off_c, 0, 68, 80
1, 1049643, Note_on_c, 0, 72, 80
1, 1050536, Note_off_c, 0, 72, 80
1, 1050563, Note_on_c, 0, 68, 80
1, 1050794, Note_off_c, 0, 68, 80
1, 1050835, Note_on_c, 0, 70, 80
1, 1051432, Note_off_c, 0, 70, 80
1, 1051769, Note_on_c, 0, 68, 80
1, 1052093, Note_off_c, 0, 68, 80
1, 1052236, Note_on_c, 0, 65, 80
1, 1052740, Note_off_c, 0, 65, 80
1, 1052809, Note_on_c, 0, 63, 80
1, 1053364, Note_off_c, 0, 63, 80
1, 1053419, Note_on_c, 0, 62, 80
1, 1054020, Note_off_c, 0, 62, 80
1, 1054214, Note_on_c, 0, 64, 80
1, 1054737, Note_off_c, 0, 64, 80
1, 1054760, Note_on_c, 0, 65, 80
1, 1055269, Note_off_c, 0, 65, 80
1, 1055426, Note_on_c, 0, 66, 80
1, 1055754, Note_off_c, 0, 66, 80
1, 1056003, Note_on_c, 0, 67, 80
1, 1056794, Note_off_c, 0, 67, 80
1, 1056872, Note_on_c, 0, 68, 80
1, 1057214, Note_off_c, 0, 68, 80
1, 1057241, Note_on_c, 0, 67, 80
1, 1057944, Note_off_c, 0, 67, 80
1, 1058004, Note_on_c, 0, 68, 80
1, 1058365, Note_off_c, 0, 68, 80
1, 1058452, Note_on_c, 0, 72, 80
1, 1059485, Note_off_c, 0, 72, 80
1, 1059757, Note_on_c, 0, 69, 80
1, 1059905, Note_off_c, 0, 69, 80
1, 1060034, Note_on_c, 0, 71, 80
1, 1060432, Note_off_c, 0, 71, 80
1, 1060492, Note_on_c, 0, 70, 80
1, 1061746, Note_off_c, 0, 70, 80
1, 1061780, Note_on_c, 0, 67, 80
1, 1062701, Note_off_c, 0, 67, 80
1, 1062885, Note_on_c, 0, 72, 80
1, 1063615, Note_off_c, 0, 72, 80
1, 1063667, Note_on_c, 0, 74, 80
1, 1065365, Note_off_c, 0, 74, 80
1, 1067912, Note_on_c, 0, 67, 80
1, 1068385, Note_off_c, 0, 67, 80
1, 1068490, Note_on_c, 0, 70, 80
1, 1069095, Note_off_c, 0, 70, 80
1, 1069187, Note_on_c, 0, 67, 80
1, 1069581, Note_off_c, 0, 67, 80
1, 1069640, Note_on_c, 0, 70, 80
1, 1069867, Note_off_c, 0, 70, 80
1, 1069883, Note_on_c, 0, 71, 80
1, 1070429, Note_off_c, 0, 71, 80
1, 1070490, Note_on_c, 0, 67, 80
1, 1070901, Note_off_c, 0, 67, 80
1, 1071025, Note_on_c, 0, 70, 80
1, 1072112, Note_off_c, 0, 70, 80
1, 1072167, Note_on_c, 0, 67, 80
1, 1072893, Note_off_c, 0, 67, 80
1, 1073508, Note_on_c, 0, 75, 80
1, 1073744, Note_off_c, 0, 75, 80
1, 1073766, Note_on_c, 0, 77, 80
1, 1075163, Note_off_c, 0, 77, 80
1, 1075247, Note_on_c, 0, 74, 80
1, 1075681, Note_off_c, 0, 74, 80
1, 1075970, Note_on_c, 0, 72, 80
1, 1076384, Note_off_c, 0, 72, 80
1, 1077871, Note_on_c, 0, 70, 80
1, 1078265, Note_off_c, 0, 70, 80
1, 1079667, Note_on_c, 0, 68, 80
1, 1079982, Note_off_c, 0, 68, 80
1, 1080047, Note_on_c, 0, 69, 80
1, 1080771, Note_off_c, 0, 69, 80
1, 1080887, Note_on_c, 0, 68, 80
1, 1081914, Note_off_c, 0, 68, 80
1, 1082159, Note_on_c, 0, 65, 80
1, 1082894, Note_off_c, 0, 65, 80
1, 1082958, Note_on_c, 0, 64, 80
1, 1083272, Note_off_c, 0, 64, 80
1, 1083350, Note_on_c, 0, 63, 80
1, 1084035, Note_off_c, 0, 63, 80
1, 1084266, Note_on_c, 0, 61, 80
1, 1084607, Note_off_c, 0, 61, 80
1, 1084669, Note_on_c, 0, 65, 80
1, 1085294, Note_off_c, 0, 65, 80
1, 1085440, Note_on_c, 0, 71, 80
1, 1085750, Note_off_c, 0, 71, 80
1, 1085791, Note_on_c, 0, 65, 80
1, 1086471, Note_off_c, 0, 65, 80
1, 1086540, Note_on_c, 0, 71, 80
1, 1086914, Note_off_c, 0, 71, 80
1, 1087122, Note_on_c, 0, 66, 80
1, 1087686, Note_off_c, 0, 66, 80
1, 1087787, Note_on_c, 0, 71, 80
1, 1088157, Note_off_c, 0, 71, 80
1, 1088235, Note_on_c, 0, 66, 80
1, 1088901, Note_off_c, 0, 66, 80
1, 1089086, Note_on_c, 0, 71, 80
1, 1089410, Note_off_c, 0, 71, 80
1, 1089604, Note_on_c, 0, 67, 80
1, 1090279, Note_off_c, 0, 67, 80
1, 1090357, Note_on_c, 0, 71, 80
1, 1090602, Note_off_c, 0, 71, 80
1, 1090699, Note_on_c, 0, 67, 80
1, 1091471, Note_off_c, 0, 67, 80
1, 1091591, Note_on_c, 0, 71, 80
1, 1091817, Note_off_c, 0, 71, 80
1, 1092043, Note_on_c, 0, 68, 80
1, 1092542, Note_off_c, 0, 68, 80
1, 1094513, Note_on_c, 0, 62, 80
1, 1095151, Note_off_c, 0, 62, 80
1, 1095789, Note_on_c, 0, 73, 80
1, 1096048, Note_off_c, 0, 73, 80
1, 1096122, Note_on_c, 0, 74, 80
1, 1096686, Note_off_c, 0, 74, 80
1, 1097120, Note_on_c, 0, 67, 80
1, 1097778, Note_off_c, 0, 67, 80
1, 1098982, Note_on_c, 0, 78, 80
1, 1099455, Note_off_c, 0, 78, 80
1, 1100867, Note_on_c, 0, 72, 80
1, 1101098, Note_off_c, 0, 72, 80
1, 1101144, Note_on_c, 0, 73, 80
1, 1101662, Note_off_c, 0, 73, 80
1, 1102145, Note_on_c, 0, 67, 80
1, 1102724, Note_off_c, 0, 67, 80
1, 1104047, Note_on_c, 0, 77, 80
1, 1104336, Note_off_c, 0, 77, 80
1, 1104414, Note_on_c, 0, 79, 80
1, 1104835, Note_off_c, 0, 79, 80
1, 1105787, Note_on_c, 0, 72, 80
1, 1105944, Note_off_c, 0, 72, 80
1, 1105990, Note_on_c, 0, 74, 80
1, 1106369, Note_off_c, 0, 74, 80
1, 1106373, Note_on_c, 0, 72, 80
1, 1106664, Note_off_c, 0, 72, 80
1, 1106941, Note_on_c, 0, 67, 80
1, 1107519, Note_off_c, 0, 67, 80
1, 1109106, Note_on_c, 0, 79, 80
1, 1109929, Note_off_c, 0, 79, 80
1, 1110836, Note_on_c, 0, 73, 80
1, 1111090, Note_off_c, 0, 73, 80
1, 1111136, Note_on_c, 0, 74, 80
1, 1111409, Note_off_c, 0, 74, 80
1, 1113968, Note_on_c, 0, 72, 80
1, 1114370, Note_off_c, 0, 72, 80
1, 1114485, Note_on_c, 0, 74, 80
1, 1114864, Note_off_c, 0, 74, 80
1, 1115095, Note_on_c, 0, 77, 80
1, 1115446, Note_off_c, 0, 77, 80
1, 1116390, Note_on_c, 0, 70, 80
1, 1116843, Note_off_c, 0, 70, 80
1, 1117555, Note_on_c, 0, 82, 80
1, 1117740, Note_off_c, 0, 82, 80
1, 1117777, Note_on_c, 0, 83, 80
1, 1118230, Note_off_c, 0, 83, 80
1, 1118989, Note_on_c, 0, 70, 80
1, 1119484, Note_off_c, 0, 70, 80
1, 1120166, Note_on_c, 0, 73, 80
1, 1120528, Note_off_c, 0, 73, 80
1, 1121403, Note_on_c, 0, 70, 80
1, 1121811, Note_off_c, 0, 70, 80
1, 1122054, Note_on_c, 0, 77, 80
1, 1122534, Note_off_c, 0, 77, 80
1, 1123073, Note_on_c, 0, 80, 80
1, 1123466, Note_off_c, 0, 80, 80
1, 1125775, Note_on_c, 0, 79, 80
1, 1126015, Note_off_c, 0, 79, 80
1, 1126079, Note_on_c, 0, 80, 80
1, 1126643, Note_off_c, 0, 80, 80
1, 1126716, Note_on_c, 0, 79, 80
1, 1127354, Note_off_c, 0, 79, 80
1, 1127735, Note_on_c, 0, 77, 80
1, 1128847, Note_off_c, 0, 77, 80
1, 1129057, Note_on_c, 0, 75, 80
1, 1129616, Note_off_c, 0, 75, 80
1, 1129688, Note_on_c, 0, 74, 80
1, 1130076, Note_off_c, 0, 74, 80
1, 1130174, Note_on_c, 0, 73, 80
1, 1130621, Note_off_c, 0, 73, 80
1, 1130752, Note_on_c, 0, 72, 80
1, 1131390, Note_off_c, 0, 72, 80
1, 1131449, Note_on_c, 0, 73, 80
1, 1131922, Note_off_c, 0, 73, 80
1, 1132106, Note_on_c, 0, 74, 80
1, 1132612, Note_off_c, 0, 74, 80
1, 1132761, Note_on_c, 0, 79, 80
1, 1133089, Note_off_c, 0, 79, 80
1, 1133153, Note_on_c, 0, 76, 80
1, 1133412, Note_off_c, 0, 76, 80
1, 1133458, Note_on_c, 0, 75, 80
1, 1133740, Note_off_c, 0, 75, 80
1, 1133781, Note_on_c, 0, 74, 80
1, 1133924, Note_off_c, 0, 74, 80
1, 1137154, Note_on_c, 0, 76, 80
1, 1137626, Note_off_c, 0, 76, 80
1, 1137709, Note_on_c, 0, 75, 80
1, 1138102, Note_off_c, 0, 75, 80
1, 1138226, Note_on_c, 0, 74, 80
1, 1138688, Note_off_c, 0, 74, 80
1, 1138998, Note_on_c, 0, 75, 80
1, 1139349, Note_off_c, 0, 75, 80
1, 1139376, Note_on_c, 0, 76, 80
1, 1140010, Note_off_c, 0, 76, 80
1, 1140093, Note_on_c, 0, 81, 80
1, 1140370, Note_off_c, 0, 81, 80
1, 1140397, Note_on_c, 0, 79, 80
1, 1140656, Note_off_c, 0, 79, 80
1, 1140855, Note_on_c, 0, 75, 80
1, 1141503, Note_off_c, 0, 75, 80
1, 1143396, Note_on_c, 0, 77, 80
1, 1143916, Note_off_c, 0, 77, 80
1, 1143971, Note_on_c, 0, 76, 80
1, 1144543, Note_off_c, 0, 76, 80
1, 1144592, Note_on_c, 0, 75, 80
1, 1145092, Note_off_c, 0, 75, 80
1, 1145203, Note_on_c, 0, 71, 80
1, 1145765, Note_off_c, 0, 71, 80
1, 1145857, Note_on_c, 0, 70, 80
1, 1146373, Note_off_c, 0, 70, 80
1, 1146419, Note_on_c, 0, 69, 80
1, 1147011, Note_off_c, 0, 69, 80
1, 1147115, Note_on_c, 0, 70, 80
1, 1147684, Note_off_c, 0, 70, 80
1, 1147818, Note_on_c, 0, 71, 80
1, 1148225, Note_off_c, 0, 71, 80
1, 1148382, Note_on_c, 0, 76, 80
1, 1149016, Note_off_c, 0, 76, 80
1, 1149080, Note_on_c, 0, 71, 80
1, 1149552, Note_off_c, 0, 71, 80
1, 1150240, Note_on_c, 0, 65, 80
1, 1150582, Note_off_c, 0, 65, 80
1, 1150766, Note_on_c, 0, 70, 80
1, 1151404, Note_off_c, 0, 70, 80
1, 1151621, Note_on_c, 0, 65, 80
1, 1152029, Note_off_c, 0, 65, 80
1, 1152101, Note_on_c, 0, 69, 80
1, 1152765, Note_off_c, 0, 69, 80
1, 1152870, Note_on_c, 0, 63, 80
1, 1153172, Note_off_c, 0, 63, 80
1, 1153395, Note_on_c, 0, 68, 80
1, 1153901, Note_off_c, 0, 68, 80
1, 1153960, Note_on_c, 0, 67, 80
1, 1154453, Note_off_c, 0, 67, 80
1, 1154637, Note_on_c, 0, 74, 80
1, 1155071, Note_off_c, 0, 74, 80
1, 1155373, Note_on_c, 0, 69, 80
1, 1155899, Note_off_c, 0, 69, 80
1, 1157801, Note_on_c, 0, 66, 80
1, 1158327, Note_off_c, 0, 66, 80
1, 1158419, Note_on_c, 0, 67, 80
1, 1158886, Note_off_c, 0, 67, 80
1, 1158958, Note_on_c, 0, 68, 80
1, 1159464, Note_off_c, 0, 68, 80
1, 1159536, Note_on_c, 0, 61, 80
1, 1159963, Note_off_c, 0, 61, 80
1, 1160272, Note_on_c, 0, 68, 80
1, 1160699, Note_off_c, 0, 68, 80
1, 1162107, Note_on_c, 0, 64, 80
1, 1162646, Note_off_c, 0, 64, 80
1, 1163264, Note_on_c, 0, 64, 80
1, 1163797, Note_off_c, 0, 64, 80
1, 1163948, Note_on_c, 0, 64, 80
1, 1164474, Note_off_c, 0, 64, 80
1, 1165441, Note_on_c, 0, 70, 80
1, 1165684, Note_off_c, 0, 70, 80
1, 1165749, Note_on_c, 0, 64, 80
1, 1167190, Note_off_c, 0, 64, 80
1, 1167328, Note_on_c, 0, 64, 80
1, 1167986, Note_off_c, 0, 64, 80
1, 1168538, Note_on_c, 0, 64, 80
1, 1169222, Note_off_c, 0, 64, 80
1, 1169761, Note_on_c, 0, 63, 80
1, 1170379, Note_off_c, 0, 63, 80
1, 1170398, Note_on_c, 0, 66, 80
1, 1170839, Note_off_c, 0, 66, 80
1, 1170852, Note_on_c, 0, 70, 80
1, 1171431, Note_off_c, 0, 70, 80
1, 1171885, Note_on_c, 0, 66, 80
1, 1172161, Note_off_c, 0, 66, 80
1, 1172213, Note_on_c, 0, 68, 80
1, 1172680, Note_off_c, 0, 68, 80
1, 1172890, Note_on_c, 0, 70, 80
1, 1173278, Note_off_c, 0, 70, 80
1, 1173297, Note_on_c, 0, 72, 80
1, 1173988, Note_off_c, 0, 72, 80
1, 1174119, Note_on_c, 0, 75, 80
1, 1174461, Note_off_c, 0, 75, 80
1, 1174553, Note_on_c, 0, 80, 80
1, 1175283, Note_off_c, 0, 80, 80
1, 1177218, Note_on_c, 0, 79, 80
1, 1177691, Note_off_c, 0, 79, 80
1, 1177809, Note_on_c, 0, 78, 80
1, 1178092, Note_off_c, 0, 78, 80
1, 1178282, Note_on_c, 0, 77, 80
1, 1178808, Note_off_c, 0, 77, 80
1, 1179038, Note_on_c, 0, 74, 80
1, 1179531, Note_off_c, 0, 74, 80
1, 1179675, Note_on_c, 0, 70, 80
1, 1180320, Note_off_c, 0, 70, 80
1, 1180494, Note_on_c, 0, 65, 80
1, 1180790, Note_off_c, 0, 65, 80
1, 1181035, Note_on_c, 0, 69, 80
1, 1181581, Note_off_c, 0, 69, 80
1, 1181673, Note_on_c, 0, 68, 80
1, 1182260, Note_off_c, 0, 68, 80
1, 1182315, Note_on_c, 0, 71, 80
1, 1182847, Note_off_c, 0, 71, 80
1, 1182890, Note_on_c, 0, 76, 80
1, 1183348, Note_off_c, 0, 76, 80
1, 1183673, Note_on_c, 0, 69, 80
1, 1184094, Note_off_c, 0, 69, 80
1, 1184159, Note_on_c, 0, 66, 80
1, 1184652, Note_off_c, 0, 66, 80
1, 1184704, Note_on_c, 0, 62, 80
1, 1185303, Note_off_c, 0, 62, 80
1, 1185388, Note_on_c, 0, 69, 80
1, 1185914, Note_off_c, 0, 69, 80
1, 1185940, Note_on_c, 0, 68, 80
1, 1186618, Note_off_c, 0, 68, 80
1, 1186736, Note_on_c, 0, 66, 80
1, 1187374, Note_off_c, 0, 66, 80
1, 1187427, Note_on_c, 0, 67, 80
1, 1187908, Note_off_c, 0, 67, 80
1, 1187968, Note_on_c, 0, 65, 80
1, 1188481, Note_off_c, 0, 65, 80
1, 1188536, Note_on_c, 0, 62, 80
1, 1189146, Note_off_c, 0, 62, 80
1, 1189429, Note_on_c, 0, 55, 80
1, 1189675, Note_off_c, 0, 55, 80
1, 1189714, Note_on_c, 0, 60, 80
1, 1190403, Note_off_c, 0, 60, 80
1, 1191773, Note_on_c, 0, 63, 80
1, 1192323, Note_off_c, 0, 63, 80
1, 1192383, Note_on_c, 0, 66, 80
1, 1192781, Note_off_c, 0, 66, 80
1, 1192943, Note_on_c, 0, 69, 80
1, 1193336, Note_off_c, 0, 69, 80
1, 1193595, Note_on_c, 0, 73, 80
1, 1194043, Note_off_c, 0, 73, 80
1, 1194334, Note_on_c, 0, 60, 80
1, 1194625, Note_off_c, 0, 60, 80
1, 1194657, Note_on_c, 0, 63, 80
1, 1195045, Note_off_c, 0, 63, 80
1, 1195085, Note_on_c, 0, 66, 80
1, 1195297, Note_off_c, 0, 66, 80
1, 1195321, Note_on_c, 0, 69, 80
1, 1195607, Note_off_c, 0, 69, 80
1, 1195682, Note_on_c, 0, 71, 80
1, 1195951, Note_off_c, 0, 71, 80
1, 1196257, Note_on_c, 0, 68, 80
1, 1196809, Note_off_c, 0, 68, 80
1, 1196838, Note_on_c, 0, 69, 80
1, 1197226, Note_off_c, 0, 69, 80
1, 1197262, Note_on_c, 0, 65, 80
1, 1197633, Note_off_c, 0, 65, 80
1, 1197669, Note_on_c, 0, 63, 80
1, 1197998, Note_off_c, 0, 63, 80
1, 1198060, Note_on_c, 0, 58, 80
1, 1198372, Note_off_c, 0, 58, 80
1, 1198656, Note_on_c, 0, 65, 80
1, 1199225, Note_off_c, 0, 65, 80
1, 1199303, Note_on_c, 0, 62, 80
1, 1199816, Note_off_c, 0, 62, 80
1, 1199919, Note_on_c, 0, 58, 80
1, 1200557, Note_off_c, 0, 58, 80
1, 1200639, Note_on_c, 0, 53, 80
1, 1200879, Note_off_c, 0, 53, 80
1, 1200928, Note_on_c, 0, 56, 80
1, 1201638, Note_off_c, 0, 56, 80
1, 1201724, Note_on_c, 0, 53, 80
1, 1202233, Note_off_c, 0, 53, 80
1, 1202552, Note_on_c, 0, 44, 80
1, 1203241, Note_off_c, 0, 44, 80
1, 1204384, Note_on_c, 0, 70, 80
1, 1204755, Note_off_c, 0, 70, 80
1, 1204814, Note_on_c, 0, 68, 80
1, 1205037, Note_off_c, 0, 68, 80
1, 1205083, Note_on_c, 0, 72, 80
1, 1205514, Note_off_c, 0, 72, 80
1, 1205540, Note_on_c, 0, 69, 80
1, 1205714, Note_off_c, 0, 69, 80
1, 1205778, Note_on_c, 0, 63, 80
1, 1205959, Note_off_c, 0, 63, 80
1, 1206085, Note_on_c, 0, 49, 80
1, 1206361, Note_off_c, 0, 49, 80
1, 1206403, Note_on_c, 0, 50, 80
1, 1206860, Note_off_c, 0, 50, 80
1, 1206886, Note_on_c, 0, 58, 80
1, 1207297, Note_off_c, 0, 58, 80
1, 1207384, Note_on_c, 0, 53, 80
1, 1208226, Note_off_c, 0, 53, 80
1, 1209378, Note_on_c, 0, 72, 80
1, 1209785, Note_off_c, 0, 72, 80
1, 1209812, Note_on_c, 0, 70, 80
1, 1210160, Note_off_c, 0, 70, 80
1, 1210189, Note_on_c, 0, 68, 80
1, 1210432, Note_off_c, 0, 68, 80
1, 1210481, Note_on_c, 0, 66, 80
1, 1210931, Note_off_c, 0, 66, 80
1, 1210961, Note_on_c, 0, 63, 80
1, 1211757, Note_off_c, 0, 63, 80
1, 1211844, Note_on_c, 0, 60, 80
1, 1212399, Note_off_c, 0, 60, 80
1, 1212491, Note_on_c, 0, 56, 80
1, 1212972, Note_off_c, 0, 56, 80
1, 1213171, Note_on_c, 0, 58, 80
1, 1213559, Note_off_c, 0, 58, 80
1, 1213651, Note_on_c, 0, 60, 80
1, 1214113, Note_off_c, 0, 60, 80
1, 1214279, Note_on_c, 0, 63, 80
1, 1214704, Note_off_c, 0, 63, 80
1, 1214796, Note_on_c, 0, 68, 80
1, 1215319, Note_off_c, 0, 68, 80
1, 1215457, Note_on_c, 0, 71, 80
1, 1215804, Note_off_c, 0, 71, 80
1, 1216067, Note_on_c, 0, 67, 80
1, 1216594, Note_off_c, 0, 67, 80
1, 1216825, Note_on_c, 0, 62, 80
1, 1217273, Note_off_c, 0, 62, 80
1, 1217522, Note_on_c, 0, 55, 80
1, 1218364, Note_off_c, 0, 55, 80
1, 1219436, Note_on_c, 0, 62, 80
1, 1219949, Note_off_c, 0, 62, 80
1, 1219949, Note_on_c, 0, 65, 80
1, 1220209, Note_off_c, 0, 65, 80
1, 1220287, Note_on_c, 0, 67, 80
1, 1220691, Note_off_c, 0, 67, 80
1, 1220720, Note_on_c, 0, 69, 80
1, 1221055, Note_off_c, 0, 69, 80
1, 1221248, Note_on_c, 0, 70, 80
1, 1221849, Note_off_c, 0, 70, 80
1, 1221899, Note_on_c, 0, 69, 80
1, 1222320, Note_off_c, 0, 69, 80
1, 1222435, Note_on_c, 0, 67, 80
1, 1222999, Note_off_c, 0, 67, 80
1, 1223063, Note_on_c, 0, 65, 80
1, 1223442, Note_off_c, 0, 65, 80
1, 1223770, Note_on_c, 0, 67, 80
1, 1224223, Note_off_c, 0, 67, 80
1, 1224315, Note_on_c, 0, 69, 80
1, 1224745, Note_off_c, 0, 69, 80
1, 1224930, Note_on_c, 0, 62, 80
1, 1225443, Note_off_c, 0, 62, 80
1, 1225563, Note_on_c, 0, 69, 80
1, 1225910, Note_off_c, 0, 69, 80
1, 1226196, Note_on_c, 0, 67, 80
1, 1226432, Note_off_c, 0, 67, 80
1, 1226459, Note_on_c, 0, 65, 80
1, 1226810, Note_off_c, 0, 65, 80
1, 1226888, Note_on_c, 0, 62, 80
1, 1227276, Note_off_c, 0, 62, 80
1, 1227461, Note_on_c, 0, 67, 80
1, 1228122, Note_off_c, 0, 67, 80
1, 1228312, Note_on_c, 0, 62, 80
1, 1228693, Note_off_c, 0, 62, 80
1, 1228814, Note_on_c, 0, 65, 80
1, 1229261, Note_off_c, 0, 65, 80
1, 1229318, Note_on_c, 0, 67, 80
1, 1229817, Note_off_c, 0, 67, 80
1, 1229960, Note_on_c, 0, 70, 80
1, 1230348, Note_off_c, 0, 70, 80
1, 1230658, Note_on_c, 0, 71, 80
1, 1231412, Note_off_c, 0, 71, 80
1, 1231462, Note_on_c, 0, 73, 80
1, 1231855, Note_off_c, 0, 73, 80
1, 1232026, Note_on_c, 0, 70, 80
1, 1232336, Note_off_c, 0, 70, 80
1, 1232534, Note_on_c, 0, 72, 80
1, 1234745, Note_off_c, 0, 72, 80
1, 1236736, Note_on_c, 0, 69, 80
1, 1236967, Note_off_c, 0, 69, 80
1, 1237050, Note_on_c, 0, 70, 80
1, 1237360, Note_off_c, 0, 70, 80
1, 1237466, Note_on_c, 0, 70, 80
1, 1237864, Note_off_c, 0, 70, 80
1, 1238058, Note_on_c, 0, 71, 80
1, 1238386, Note_off_c, 0, 71, 80
1, 1238423, Note_on_c, 0, 72, 80
1, 1238742, Note_off_c, 0, 72, 80
1, 1238774, Note_on_c, 0, 70, 80
1, 1239260, Note_off_c, 0, 70, 80
1, 1239306, Note_on_c, 0, 72, 80
1, 1240745, Note_off_c, 0, 72, 80
1, 1242286, Note_on_c, 0, 69, 80
1, 1242512, Note_off_c, 0, 69, 80
1, 1242618, Note_on_c, 0, 70, 80
1, 1242858, Note_off_c, 0, 70, 80
1, 1242987, Note_on_c, 0, 70, 80
1, 1243241, Note_off_c, 0, 70, 80
1, 1243500, Note_on_c, 0, 70, 80
1, 1243726, Note_off_c, 0, 70, 80
1, 1243934, Note_on_c, 0, 69, 80
1, 1244767, Note_off_c, 0, 69, 80
1, 1244966, Note_on_c, 0, 69, 80
1, 1245419, Note_off_c, 0, 69, 80
1, 1245469, Note_on_c, 0, 68, 80
1, 1245746, Note_off_c, 0, 68, 80
1, 1245852, Note_on_c, 0, 69, 80
1, 1246361, Note_off_c, 0, 69, 80
1, 1246384, Note_on_c, 0, 68, 80
1, 1246657, Note_off_c, 0, 68, 80
1, 1246888, Note_on_c, 0, 69, 80
1, 1247193, Note_off_c, 0, 69, 80
1, 1247220, Note_on_c, 0, 68, 80
1, 1247479, Note_off_c, 0, 68, 80
1, 1247511, Note_on_c, 0, 69, 80
1, 1247714, Note_off_c, 0, 69, 80
1, 1247797, Note_on_c, 0, 69, 80
1, 1248158, Note_off_c, 0, 69, 80
1, 1248181, Note_on_c, 0, 68, 80
1, 1248398, Note_off_c, 0, 68, 80
1, 1248439, Note_on_c, 0, 69, 80
1, 1248624, Note_off_c, 0, 69, 80
1, 1248730, Note_on_c, 0, 69, 80
1, 1249215, Note_off_c, 0, 69, 80
1, 1249451, Note_on_c, 0, 69, 80
1, 1250071, Note_off_c, 0, 69, 80
1, 1250169, Note_on_c, 0, 74, 80
1, 1250557, Note_off_c, 0, 74, 80
1, 1250592, Note_on_c, 0, 77, 80
1, 1251133, Note_off_c, 0, 77, 80
1, 1254886, Note_on_c, 0, 75, 80
1, 1255511, Note_off_c, 0, 75, 80
1, 1255570, Note_on_c, 0, 76, 80
1, 1256149, Note_off_c, 0, 76, 80
1, 1256353, Note_on_c, 0, 73, 80
1, 1257031, Note_off_c, 0, 73, 80
1, 1257123, Note_on_c, 0, 72, 80
1, 1257623, Note_off_c, 0, 72, 80
1, 1257919, Note_on_c, 0, 67, 80
1, 1259472, Note_off_c, 0, 67, 80
1, 1259850, Note_on_c, 0, 77, 80
1, 1260317, Note_off_c, 0, 77, 80
1, 1260399, Note_on_c, 0, 79, 80
1, 1265441, Note_off_c, 0, 79, 80
1, 1265513, Note_on_c, 0, 77, 80
1, 1265934, Note_off_c, 0, 77, 80
1, 1268040, Note_on_c, 0, 75, 80
1, 1268262, Note_off_c, 0, 75, 80
1, 1268308, Note_on_c, 0, 77, 80
1, 1270066, Note_off_c, 0, 77, 80
1, 1270204, Note_on_c, 0, 74, 80
1, 1270676, Note_off_c, 0, 74, 80
1, 1271462, Note_on_c, 0, 72, 80
1, 1272415, Note_off_c, 0, 72, 80
1, 1272578, Note_on_c, 0, 74, 80
1, 1273565, Note_off_c, 0, 74, 80
1, 1273830, Note_on_c, 0, 67, 80
1, 1276116, Note_off_c, 0, 67, 80
1, 1278251, Note_on_c, 0, 75, 80
1, 1278711, Note_off_c, 0, 75, 80
1, 1278737, Note_on_c, 0, 77, 80
1, 1279559, Note_off_c, 0, 77, 80
1, 1279964, Note_on_c, 0, 82, 80
1, 1286231, Note_off_c, 0, 82, 80
1, 1288332, Note_on_c, 0, 79, 80
1, 1288804, Note_off_c, 0, 79, 80
1, 1288878, Note_on_c, 0, 80, 80
1, 1290238, Note_off_c, 0, 80, 80
1, 1290339, Note_on_c, 0, 76, 80
1, 1290608, Note_off_c, 0, 76, 80
1, 1290634, Note_on_c, 0, 77, 80
1, 1291259, Note_off_c, 0, 77, 80
1, 1291732, Note_on_c, 0, 75, 80
1, 1292686, Note_off_c, 0, 75, 80
1, 1292837, Note_on_c, 0, 77, 80
1, 1293541, Note_off_c, 0, 77, 80
1, 1293968, Note_on_c, 0, 70, 80
1, 1294909, Note_off_c, 0, 70, 80
1, 1295218, Note_on_c, 0, 72, 80
1, 1296146, Note_off_c, 0, 72, 80
1, 1296547, Note_on_c, 0, 73, 80
1, 1296895, Note_off_c, 0, 73, 80
1, 1296973, Note_on_c, 0, 74, 80
1, 1297552, Note_off_c, 0, 74, 80
1, 1297650, Note_on_c, 0, 73, 80
1, 1298170, Note_off_c, 0, 73, 80
1, 1298321, Note_on_c, 0, 67, 80
1, 1298906, Note_off_c, 0, 67, 80
1, 1299057, Note_on_c, 0, 67, 80
1, 1299781, Note_off_c, 0, 67, 80
1, 1300122, Note_on_c, 0, 77, 80
1, 1300520, Note_off_c, 0, 77, 80
1, 1300566, Note_on_c, 0, 79, 80
1, 1305379, Note_off_c, 0, 79, 80
1, 1308429, Note_on_c, 0, 76, 80
1, 1308863, Note_off_c, 0, 76, 80
1, 1308882, Note_on_c, 0, 77, 80
1, 1310165, Note_off_c, 0, 77, 80
1, 1310428, Note_on_c, 0, 62, 80
1, 1310987, Note_off_c, 0, 62, 80
1, 1311360, Note_on_c, 0, 72, 80
1, 1312595, Note_off_c, 0, 72, 80
1, 1312657, Note_on_c, 0, 74, 80
1, 1313525, Note_off_c, 0, 74, 80
1, 1313870, Note_on_c, 0, 67, 80
1, 1316323, Note_off_c, 0, 67, 80
1, 1318415, Note_on_c, 0, 75, 80
1, 1318627, Note_off_c, 0, 75, 80
1, 1318728, Note_on_c, 0, 77, 80
1, 1320070, Note_off_c, 0, 77, 80
1, 1320162, Note_on_c, 0, 82, 80
1, 1325910, Note_off_c, 0, 82, 80
1, 1328289, Note_on_c, 0, 80, 80
1, 1329733, Note_off_c, 0, 80, 80
1, 1330075, Note_on_c, 0, 76, 80
1, 1330352, Note_off_c, 0, 76, 80
1, 1330435, Note_on_c, 0, 77, 80
1, 1331221, Note_off_c, 0, 77, 80
1, 1331291, Note_on_c, 0, 75, 80
1, 1332429, Note_off_c, 0, 75, 80
1, 1332527, Note_on_c, 0, 77, 80
1, 1333376, Note_off_c, 0, 77, 80
1, 1333791, Note_on_c, 0, 70, 80
1, 1334874, Note_off_c, 0, 70, 80
1, 1335003, Note_on_c, 0, 72, 80
1, 1335669, Note_off_c, 0, 72, 80
1, 1336205, Note_on_c, 0, 74, 80
1, 1337973, Note_off_c, 0, 74, 80
1, 1338121, Note_on_c, 0, 67, 80
1, 1339370, Note_off_c, 0, 67, 80
1, 1339990, Note_on_c, 0, 77, 80
1, 1340638, Note_off_c, 0, 77, 80
1, 1340790, Note_on_c, 0, 79, 80
1, 1345990, Note_off_c, 0, 79, 80
1, 1348366, Note_on_c, 0, 77, 80
1, 1350198, Note_off_c, 0, 77, 80
1, 1350254, Note_on_c, 0, 74, 80
1, 1351122, Note_off_c, 0, 74, 80
1, 1351483, Note_on_c, 0, 72, 80
1, 1352640, Note_off_c, 0, 72, 80
1, 1352740, Note_on_c, 0, 74, 80
1, 1353582, Note_off_c, 0, 74, 80
1, 1353937, Note_on_c, 0, 67, 80
1, 1356412, Note_off_c, 0, 67, 80
1, 1358497, Note_on_c, 0, 75, 80
1, 1358774, Note_off_c, 0, 75, 80
1, 1358829, Note_on_c, 0, 77, 80
1, 1359726, Note_off_c, 0, 77, 80
1, 1360193, Note_on_c, 0, 82, 80
1, 1365966, Note_off_c, 0, 82, 80
1, 1368403, Note_on_c, 0, 80, 80
1, 1370240, Note_off_c, 0, 80, 80
1, 1370452, Note_on_c, 0, 76, 80
1, 1370803, Note_off_c, 0, 76, 80
1, 1370861, Note_on_c, 0, 77, 80
1, 1371552, Note_off_c, 0, 77, 80
1, 1371760, Note_on_c, 0, 75, 80
1, 1372681, Note_off_c, 0, 75, 80
1, 1372815, Note_on_c, 0, 77, 80
1, 1373513, Note_off_c, 0, 77, 80
1, 1374036, Note_on_c, 0, 70, 80
1, 1375123, Note_off_c, 0, 70, 80
1, 1375238, Note_on_c, 0, 72, 80
1, 1376015, Note_off_c, 0, 72, 80
1, 1376577, Note_on_c, 0, 73, 80
1, 1376932, Note_off_c, 0, 73, 80
1, 1376991, Note_on_c, 0, 74, 80
1, 1378077, Note_off_c, 0, 74, 80
1, 1378531, Note_on_c, 0, 67, 80
1, 1379952, Note_off_c, 0, 67, 80
1, 1380610, Note_on_c, 0, 77, 80
1, 1381100, Note_off_c, 0, 77, 80
1, 1381136, Note_on_c, 0, 79, 80
1, 1386020, Note_off_c, 0, 79, 80
1, 1388263, Note_on_c, 0, 77, 80
1, 1390068, Note_off_c, 0, 77, 80
1, 1390206, Note_on_c, 0, 74, 80
1, 1390824, Note_off_c, 0, 74, 80
1, 1391337, Note_on_c, 0, 72, 80
1, 1392561, Note_off_c, 0, 72, 80
1, 1392607, Note_on_c, 0, 74, 80
1, 1393238, Note_off_c, 0, 74, 80
1, 1393837, Note_on_c, 0, 67, 80
1, 1395917, Note_off_c, 0, 67, 80
1, 1398155, Note_on_c, 0, 75, 80
1, 1398596, Note_off_c, 0, 75, 80
1, 1398642, Note_on_c, 0, 77, 80
1, 1399596, Note_off_c, 0, 77, 80
1, 1400247, Note_on_c, 0, 82, 80
1, 1405684, Note_off_c, 0, 82, 80
1, 1408054, Note_on_c, 0, 80, 80
1, 1409405, Note_off_c, 0, 80, 80
1, 1409823, Note_on_c, 0, 75, 80
1, 1410231, Note_off_c, 0, 75, 80
1, 1410283, Note_on_c, 0, 77, 80
1, 1410901, Note_off_c, 0, 77, 80
1, 1411065, Note_on_c, 0, 75, 80
1, 1412078, Note_off_c, 0, 75, 80
1, 1412183, Note_on_c, 0, 77, 80
1, 1413209, Note_off_c, 0, 77, 80
1, 1413524, Note_on_c, 0, 70, 80
1, 1414722, Note_off_c, 0, 70, 80
1, 1414840, Note_on_c, 0, 72, 80
1, 1415959, Note_off_c, 0, 72, 80
1, 1415959, End_track
0, 0, End_of_file
