0, 0, Header, 1, 1, 2520
1, 0, Start_track
1, 0, Title_t, "Melody"
1, 0, Tempo, 535714
1, 0, Key_signature, -4, "major"
1, 0, Time_signature, 3, 2, 24, 8
1, 28917, Note_on_c, 0, 63, 122
1, 29654, Note_off_c, 0, 63, 122
1, 29708, Note_on_c, 0, 62, 124
1, 30336, Note_on_c, 0, 60, 115
1, 30336, Note_off_c, 0, 62, 124
1, 30964, Note_off_c, 0, 60, 115
1, 30991, Note_on_c, 0, 63, 125
1, 31646, Note_off_c, 0, 63, 125
1, 31673, Note_on_c, 0, 62, 121
1, 33366, Note_off_c, 0, 62, 121
1, 33502, Note_on_c, 0, 62, 118
1, 34184, Note_off_c, 0, 62, 118
1, 40464, Note_on_c, 0, 62, 120
1, 41201, Note_off_c, 0, 62, 120
1, 41774, Note_on_c, 0, 67, 117
1, 42620, Note_off_c, 0, 67, 117
1, 43029, Note_on_c, 0, 62, 123
1, 43575, Note_off_c, 0, 62, 123
1, 43684, Note_on_c, 0, 63, 125
1, 44475, Note_off_c, 0, 63, 125
1, 45103, Note_on_c, 0, 58, 110
1, 45840, Note_off_c, 0, 58, 110
1, 46222, Note_on_c, 0, 62, 123
1, 46986, Note_off_c, 0, 62, 123
1, 47511, Note_on_c, 0, 57, 111
1, 47787, Note_off_c, 0, 57, 111
1, 47845, Note_on_c, 0, 57, 111
1, 48640, Note_off_c, 0, 57, 111
1, 60228, Note_on_c, 0, 57, 115
1, 60746, Note_off_c, 0, 57, 115
1, 60800, Note_on_c, 0, 58, 114
1, 61127, Note_off_c, 0, 58, 114
1, 61127, Note_on_c, 0, 62, 114
1, 61454, Note_off_c, 0, 62, 114
1, 61454, Note_on_c, 0, 65, 109
1, 61836, Note_off_c, 0, 65, 109
1, 61836, Note_on_c, 0, 69, 111
1, 62163, Note_off_c, 0, 69, 111
1, 62163, Note_on_c, 0, 72, 110
1, 66532, Note_off_c, 0, 72, 110
1, 66586, Note_on_c, 0, 69, 108
1, 66804, Note_off_c, 0, 69, 108
1, 66913, Note_on_c, 0, 71, 106
1, 67104, Note_off_c, 0, 71, 106
1, 67158, Note_on_c, 0, 69, 110
1, 69014, Note_off_c, 0, 69, 110
1, 69014, Note_on_c, 0, 65, 106
1, 69396, Note_off_c, 0, 65, 106
1, 69396, Note_on_c, 0, 69, 112
1, 69750, Note_off_c, 0, 69, 112
1, 69941, Note_on_c, 0, 65, 107
1, 70541, Note_off_c, 0, 65, 107
1, 70541, Note_on_c, 0, 62, 121
1, 71250, Note_off_c, 0, 62, 121
1, 71386, Note_on_c, 0, 58, 108
1, 71986, Note_off_c, 0, 58, 108
1, 72095, Note_on_c, 0, 55, 107
1, 72449, Note_off_c, 0, 55, 107
1, 72449, Note_on_c, 0, 60, 114
1, 73131, Note_off_c, 0, 60, 114
1, 73185, Note_on_c, 0, 55, 105
1, 73567, Note_off_c, 0, 55, 105
1, 73758, Note_on_c, 0, 58, 110
1, 74331, Note_off_c, 0, 58, 110
1, 74385, Note_on_c, 0, 60, 112
1, 74876, Note_off_c, 0, 60, 112
1, 74903, Note_on_c, 0, 62, 121
1, 75722, Note_off_c, 0, 62, 121
1, 75776, Note_on_c, 0, 65, 113
1, 76267, Note_off_c, 0, 65, 113
1, 76267, Note_on_c, 0, 69, 109
1, 76949, Note_off_c, 0, 69, 109
1, 77112, Note_on_c, 0, 65, 101
1, 77548, Note_off_c, 0, 65, 101
1, 77766, Note_on_c, 0, 70, 107
1, 78257, Note_off_c, 0, 70, 107
1, 78257, Note_on_c, 0, 69, 108
1, 78639, Note_off_c, 0, 69, 108
1, 78884, Note_on_c, 0, 67, 114
1, 79675, Note_off_c, 0, 67, 114
1, 79675, Note_on_c, 0, 65, 105
1, 80111, Note_off_c, 0, 65, 105
1, 80192, Note_on_c, 0, 67, 112
1, 80983, Note_off_c, 0, 67, 112
1, 81146, Note_on_c, 0, 65, 108
1, 81582, Note_off_c, 0, 65, 108
1, 82128, Note_on_c, 0, 69, 110
1, 82510, Note_off_c, 0, 69, 110
1, 82728, Note_on_c, 0, 68, 111
1, 83137, Note_off_c, 0, 68, 111
1, 83355, Note_on_c, 0, 67, 113
1, 84693, Note_off_c, 0, 67, 113
1, 98455, Note_on_c, 0, 67, 109
1, 98946, Note_off_c, 0, 67, 109
1, 98973, Note_on_c, 0, 69, 110
1, 99437, Note_off_c, 0, 69, 110
1, 99928, Note_on_c, 0, 65, 114
1, 103013, Note_off_c, 0, 65, 114
1, 103695, Note_on_c, 0, 62, 122
1, 104377, Note_off_c, 0, 62, 122
1, 104404, Note_on_c, 0, 65, 112
1, 104868, Note_off_c, 0, 65, 112
1, 104922, Note_on_c, 0, 69, 110
1, 105577, Note_off_c, 0, 69, 110
1, 105631, Note_on_c, 0, 72, 110
1, 106231, Note_off_c, 0, 72, 110
1, 106831, Note_on_c, 0, 69, 112
1, 107486, Note_off_c, 0, 69, 112
1, 107595, Note_on_c, 0, 72, 100
1, 108223, Note_off_c, 0, 72, 100
1, 108414, Note_on_c, 0, 69, 112
1, 108823, Note_off_c, 0, 69, 112
1, 108877, Note_on_c, 0, 68, 111
1, 109313, Note_off_c, 0, 68, 111
1, 109504, Note_on_c, 0, 65, 111
1, 110104, Note_off_c, 0, 65, 111
1, 110322, Note_on_c, 0, 69, 111
1, 110731, Note_off_c, 0, 69, 111
1, 110812, Note_on_c, 0, 67, 113
1, 111330, Note_off_c, 0, 67, 113
1, 111439, Note_on_c, 0, 65, 117
1, 111985, Note_off_c, 0, 65, 117
1, 112148, Note_on_c, 0, 62, 121
1, 112776, Note_off_c, 0, 62, 121
1, 112830, Note_on_c, 0, 67, 115
1, 113294, Note_off_c, 0, 67, 115
1, 113430, Note_on_c, 0, 65, 118
1, 113894, Note_off_c, 0, 65, 118
1, 114030, Note_on_c, 0, 62, 121
1, 114603, Note_off_c, 0, 62, 121
1, 114684, Note_on_c, 0, 60, 118
1, 115284, Note_off_c, 0, 60, 118
1, 115338, Note_on_c, 0, 55, 108
1, 115720, Note_off_c, 0, 55, 108
1, 115801, Note_on_c, 0, 58, 106
1, 116565, Note_off_c, 0, 58, 106
1, 116619, Note_on_c, 0, 55, 110
1, 117110, Note_off_c, 0, 55, 110
1, 117137, Note_on_c, 0, 60, 117
1, 117792, Note_off_c, 0, 60, 117
1, 117819, Note_on_c, 0, 62, 124
1, 118419, Note_off_c, 0, 62, 124
1, 119019, Note_on_c, 0, 62, 123
1, 119592, Note_off_c, 0, 62, 123
1, 119865, Note_on_c, 0, 62, 124
1, 120520, Note_off_c, 0, 62, 124
1, 124779, Note_on_c, 0, 67, 120
1, 125488, Note_off_c, 0, 67, 120
1, 125597, Note_on_c, 0, 70, 111
1, 126115, Note_off_c, 0, 70, 111
1, 126333, Note_on_c, 0, 69, 110
1, 127097, Note_off_c, 0, 69, 110
1, 127260, Note_on_c, 0, 67, 114
1, 127997, Note_off_c, 0, 67, 114
1, 128242, Note_on_c, 0, 75, 117
1, 128788, Note_off_c, 0, 75, 117
1, 128980, Note_on_c, 0, 77, 110
1, 130501, Note_off_c, 0, 77, 110
1, 130616, Note_on_c, 0, 75, 104
1, 131271, Note_off_c, 0, 75, 104
1, 131489, Note_on_c, 0, 74, 102
1, 132226, Note_off_c, 0, 74, 102
1, 132307, Note_on_c, 0, 72, 94
1, 132962, Note_off_c, 0, 72, 94
1, 133180, Note_on_c, 0, 74, 100
1, 133616, Note_off_c, 0, 74, 100
1, 133752, Note_on_c, 0, 75, 101
1, 134216, Note_off_c, 0, 75, 101
1, 134243, Note_on_c, 0, 73, 94
1, 134406, Note_off_c, 0, 73, 94
1, 134515, Note_on_c, 0, 70, 107
1, 135006, Note_off_c, 0, 70, 107
1, 135033, Note_on_c, 0, 69, 110
1, 135661, Note_off_c, 0, 69, 110
1, 135770, Note_on_c, 0, 70, 111
1, 136370, Note_off_c, 0, 70, 111
1, 136479, Note_on_c, 0, 72, 113
1, 137025, Note_off_c, 0, 72, 113
1, 137052, Note_on_c, 0, 74, 105
1, 137516, Note_off_c, 0, 74, 105
1, 137734, Note_on_c, 0, 75, 108
1, 138143, Note_off_c, 0, 75, 108
1, 138334, Note_on_c, 0, 77, 107
1, 139016, Note_off_c, 0, 77, 107
1, 139179, Note_on_c, 0, 73, 100
1, 139342, Note_off_c, 0, 73, 100
1, 139396, Note_on_c, 0, 74, 104
1, 139778, Note_off_c, 0, 74, 104
1, 139805, Note_on_c, 0, 72, 106
1, 140050, Note_off_c, 0, 72, 106
1, 140104, Note_on_c, 0, 70, 113
1, 140377, Note_off_c, 0, 70, 113
1, 140377, Note_on_c, 0, 69, 110
1, 140895, Note_off_c, 0, 69, 110
1, 141140, Note_on_c, 0, 72, 111
1, 141576, Note_off_c, 0, 72, 111
1, 141685, Note_on_c, 0, 70, 110
1, 142149, Note_off_c, 0, 70, 110
1, 142149, Note_on_c, 0, 69, 109
1, 142804, Note_off_c, 0, 69, 109
1, 142967, Note_on_c, 0, 67, 117
1, 143403, Note_off_c, 0, 67, 117
1, 143539, Note_on_c, 0, 66, 115
1, 144030, Note_off_c, 0, 66, 115
1, 144057, Note_on_c, 0, 67, 113
1, 144657, Note_off_c, 0, 67, 113
1, 144738, Note_on_c, 0, 69, 112
1, 145229, Note_off_c, 0, 69, 112
1, 145310, Note_on_c, 0, 62, 121
1, 145938, Note_off_c, 0, 62, 121
1, 146019, Note_on_c, 0, 63, 122
1, 146510, Note_off_c, 0, 63, 122
1, 146646, Note_on_c, 0, 67, 119
1, 147219, Note_off_c, 0, 67, 119
1, 147273, Note_on_c, 0, 65, 119
1, 147873, Note_off_c, 0, 65, 119
1, 147927, Note_on_c, 0, 63, 124
1, 148609, Note_off_c, 0, 63, 124
1, 148718, Note_on_c, 0, 65, 120
1, 149209, Note_off_c, 0, 65, 120
1, 149290, Note_on_c, 0, 62, 120
1, 149999, Note_off_c, 0, 62, 120
1, 151610, Note_on_c, 0, 63, 120
1, 152347, Note_off_c, 0, 63, 120
1, 152456, Note_on_c, 0, 62, 124
1, 153056, Note_off_c, 0, 62, 124
1, 153165, Note_on_c, 0, 60, 116
1, 153656, Note_off_c, 0, 60, 116
1, 153656, Note_on_c, 0, 62, 121
1, 154120, Note_off_c, 0, 62, 121
1, 154393, Note_on_c, 0, 58, 109
1, 155102, Note_off_c, 0, 58, 109
1, 155320, Note_on_c, 0, 58, 122
1, 155784, Note_off_c, 0, 58, 122
1, 155865, Note_on_c, 0, 59, 114
1, 156383, Note_off_c, 0, 59, 114
1, 156765, Note_on_c, 0, 58, 122
1, 157509, Note_off_c, 0, 58, 122
1, 160615, Note_on_c, 0, 59, 110
1, 161106, Note_off_c, 0, 59, 110
1, 161187, Note_on_c, 0, 60, 116
1, 163207, Note_off_c, 0, 60, 116
1, 163261, Note_on_c, 0, 58, 110
1, 163861, Note_off_c, 0, 58, 110
1, 163942, Note_on_c, 0, 57, 108
1, 164351, Note_off_c, 0, 57, 108
1, 164432, Note_on_c, 0, 58, 109
1, 165060, Note_off_c, 0, 58, 109
1, 165196, Note_on_c, 0, 57, 111
1, 165769, Note_off_c, 0, 57, 111
1, 165796, Note_on_c, 0, 55, 113
1, 166314, Note_off_c, 0, 55, 113
1, 166450, Note_on_c, 0, 53, 110
1, 168279, Note_off_c, 0, 53, 110
1, 168388, Note_on_c, 0, 50, 110
1, 170381, Note_off_c, 0, 50, 110
1, 185426, Note_on_c, 0, 60, 112
1, 186081, Note_off_c, 0, 60, 112
1, 186681, Note_on_c, 0, 60, 118
1, 187363, Note_off_c, 0, 60, 118
1, 187881, Note_on_c, 0, 60, 118
1, 188754, Note_off_c, 0, 60, 118
1, 189081, Note_on_c, 0, 60, 118
1, 189927, Note_off_c, 0, 60, 118
1, 189981, Note_on_c, 0, 58, 117
1, 190363, Note_off_c, 0, 58, 117
1, 190526, Note_on_c, 0, 60, 116
1, 191017, Note_off_c, 0, 60, 116
1, 191153, Note_on_c, 0, 60, 112
1, 191589, Note_off_c, 0, 60, 112
1, 191752, Note_on_c, 0, 60, 108
1, 192079, Note_off_c, 0, 60, 108
1, 192488, Note_on_c, 0, 58, 105
1, 192952, Note_off_c, 0, 58, 105
1, 193197, Note_on_c, 0, 60, 103
1, 193497, Note_off_c, 0, 60, 103
1, 193770, Note_on_c, 0, 60, 103
1, 194152, Note_off_c, 0, 60, 103
1, 194315, Note_on_c, 0, 60, 100
1, 194642, Note_off_c, 0, 60, 100
1, 195106, Note_on_c, 0, 60, 116
1, 195679, Note_off_c, 0, 60, 116
1, 196279, Note_on_c, 0, 60, 108
1, 196879, Note_off_c, 0, 60, 108
1, 197015, Note_on_c, 0, 58, 107
1, 197697, Note_off_c, 0, 58, 107
1, 197806, Note_on_c, 0, 57, 106
1, 198625, Note_off_c, 0, 57, 106
1, 198870, Note_on_c, 0, 55, 112
1, 200563, Note_off_c, 0, 55, 112
1, 200644, Note_on_c, 0, 53, 108
1, 201435, Note_off_c, 0, 53, 108
1, 201626, Note_on_c, 0, 53, 111
1, 203400, Note_off_c, 0, 53, 111
1, 203618, Note_on_c, 0, 50, 108
1, 205720, Note_off_c, 0, 50, 108
1, 215741, Note_on_c, 0, 55, 118
1, 216287, Note_off_c, 0, 55, 118
1, 216396, Note_on_c, 0, 57, 117
1, 216969, Note_off_c, 0, 57, 117
1, 217078, Note_on_c, 0, 54, 114
1, 217596, Note_off_c, 0, 54, 114
1, 217650, Note_on_c, 0, 55, 115
1, 218223, Note_on_c, 0, 57, 119
1, 218223, Note_off_c, 0, 55, 115
1, 218878, Note_off_c, 0, 57, 119
1, 218932, Note_on_c, 0, 58, 117
1, 219560, Note_off_c, 0, 58, 117
1, 219587, Note_on_c, 0, 60, 115
1, 220105, Note_off_c, 0, 60, 115
1, 220268, Note_on_c, 0, 62, 122
1, 220759, Note_off_c, 0, 62, 122
1, 220813, Note_on_c, 0, 67, 118
1, 221441, Note_off_c, 0, 67, 118
1, 221441, Note_on_c, 0, 66, 119
1, 221932, Note_off_c, 0, 66, 119
1, 222041, Note_on_c, 0, 69, 114
1, 222641, Note_off_c, 0, 69, 114
1, 222722, Note_on_c, 0, 67, 119
1, 223240, Note_off_c, 0, 67, 119
1, 223403, Note_on_c, 0, 62, 121
1, 223894, Note_off_c, 0, 62, 121
1, 223948, Note_on_c, 0, 58, 114
1, 224494, Note_off_c, 0, 58, 114
1, 224603, Note_on_c, 0, 60, 117
1, 225067, Note_off_c, 0, 60, 117
1, 225230, Note_on_c, 0, 62, 126
1, 225612, Note_off_c, 0, 62, 126
1, 225721, Note_on_c, 0, 63, 125
1, 226130, Note_on_c, 0, 62, 125
1, 226130, Note_off_c, 0, 63, 125
1, 226566, Note_off_c, 0, 62, 125
1, 226566, Note_on_c, 0, 61, 119
1, 227084, Note_off_c, 0, 61, 119
1, 227138, Note_on_c, 0, 62, 120
1, 227602, Note_off_c, 0, 62, 120
1, 227765, Note_on_c, 0, 69, 108
1, 228393, Note_off_c, 0, 69, 108
1, 228420, Note_on_c, 0, 62, 105
1, 229020, Note_off_c, 0, 62, 105
1, 229047, Note_on_c, 0, 67, 113
1, 229565, Note_off_c, 0, 67, 113
1, 229646, Note_on_c, 0, 69, 114
1, 230055, Note_off_c, 0, 69, 114
1, 230300, Note_on_c, 0, 70, 113
1, 230764, Note_off_c, 0, 70, 113
1, 230845, Note_on_c, 0, 62, 91
1, 231473, Note_off_c, 0, 62, 91
1, 231636, Note_on_c, 0, 69, 115
1, 232209, Note_off_c, 0, 69, 115
1, 232372, Note_on_c, 0, 67, 109
1, 233136, Note_off_c, 0, 67, 109
1, 233545, Note_on_c, 0, 67, 117
1, 234063, Note_off_c, 0, 67, 117
1, 234581, Note_on_c, 0, 67, 121
1, 235345, Note_off_c, 0, 67, 121
1, 235345, Note_on_c, 0, 72, 109
1, 236628, Note_off_c, 0, 72, 109
1, 236655, Note_on_c, 0, 70, 112
1, 237856, Note_off_c, 0, 70, 112
1, 237910, Note_on_c, 0, 69, 114
1, 239084, Note_off_c, 0, 69, 114
1, 239165, Note_on_c, 0, 67, 118
1, 239902, Note_off_c, 0, 67, 118
1, 240011, Note_on_c, 0, 70, 114
1, 240229, Note_off_c, 0, 70, 114
1, 240229, Note_on_c, 0, 69, 97
1, 240720, Note_off_c, 0, 69, 97
1, 244652, Note_on_c, 0, 70, 102
1, 245088, Note_off_c, 0, 70, 102
1, 245361, Note_on_c, 0, 72, 115
1, 246644, Note_off_c, 0, 72, 115
1, 246753, Note_on_c, 0, 67, 117
1, 247353, Note_off_c, 0, 67, 117
1, 247434, Note_on_c, 0, 70, 113
1, 249072, Note_off_c, 0, 70, 113
1, 249150, Note_on_c, 0, 65, 109
1, 249801, Note_off_c, 0, 65, 109
1, 249804, Note_on_c, 0, 67, 115
1, 250158, Note_off_c, 0, 67, 115
1, 250188, Note_on_c, 0, 69, 116
1, 251553, Note_off_c, 0, 69, 116
1, 251634, Note_on_c, 0, 64, 120
1, 252371, Note_off_c, 0, 64, 120
1, 252480, Note_on_c, 0, 67, 114
1, 254063, Note_off_c, 0, 67, 114
1, 254254, Note_on_c, 0, 68, 108
1, 254882, Note_off_c, 0, 68, 108
1, 255045, Note_on_c, 0, 65, 112
1, 256656, Note_off_c, 0, 65, 112
1, 256901, Note_on_c, 0, 60, 109
1, 257419, Note_off_c, 0, 60, 109
1, 257419, Note_on_c, 0, 64, 122
1, 257910, Note_off_c, 0, 64, 122
1, 260149, Note_on_c, 0, 59, 101
1, 260449, Note_off_c, 0, 59, 101
1, 260722, Note_on_c, 0, 63, 122
1, 261513, Note_off_c, 0, 63, 122
1, 261513, Note_on_c, 0, 61, 109
1, 261895, Note_off_c, 0, 61, 109
1, 261976, Note_on_c, 0, 62, 125
1, 262658, Note_off_c, 0, 62, 125
1, 262658, Note_on_c, 0, 60, 113
1, 263258, Note_off_c, 0, 60, 113
1, 263312, Note_on_c, 0, 58, 114
1, 263912, Note_off_c, 0, 58, 114
1, 264048, Note_on_c, 0, 60, 114
1, 264402, Note_off_c, 0, 60, 114
1, 264483, Note_on_c, 0, 62, 115
1, 264837, Note_off_c, 0, 62, 115
1, 264837, Note_on_c, 0, 65, 113
1, 265164, Note_off_c, 0, 65, 113
1, 265191, Note_on_c, 0, 69, 111
1, 265682, Note_off_c, 0, 69, 111
1, 265763, Note_on_c, 0, 66, 110
1, 266418, Note_off_c, 0, 66, 110
1, 266527, Note_on_c, 0, 67, 110
1, 266963, Note_off_c, 0, 67, 110
1, 266963, Note_on_c, 0, 70, 111
1, 267563, Note_off_c, 0, 70, 111
1, 267590, Note_on_c, 0, 72, 112
1, 267999, Note_off_c, 0, 72, 112
1, 268408, Note_on_c, 0, 72, 111
1, 268708, Note_off_c, 0, 72, 111
1, 268708, Note_on_c, 0, 74, 106
1, 269035, Note_off_c, 0, 74, 106
1, 269116, Note_on_c, 0, 73, 106
1, 269470, Note_off_c, 0, 73, 106
1, 269551, Note_on_c, 0, 72, 112
1, 269987, Note_off_c, 0, 72, 112
1, 270150, Note_on_c, 0, 70, 100
1, 270559, Note_off_c, 0, 70, 100
1, 270804, Note_on_c, 0, 72, 112
1, 271268, Note_off_c, 0, 72, 112
1, 271322, Note_on_c, 0, 70, 105
1, 271895, Note_off_c, 0, 70, 105
1, 271895, Note_on_c, 0, 67, 114
1, 272168, Note_off_c, 0, 67, 114
1, 272304, Note_on_c, 0, 66, 118
1, 272631, Note_off_c, 0, 66, 118
1, 272767, Note_on_c, 0, 62, 111
1, 273094, Note_off_c, 0, 62, 111
1, 273230, Note_on_c, 0, 65, 113
1, 273666, Note_off_c, 0, 65, 113
1, 273802, Note_on_c, 0, 67, 110
1, 274430, Note_off_c, 0, 67, 110
1, 274457, Note_on_c, 0, 69, 112
1, 274893, Note_off_c, 0, 69, 112
1, 275138, Note_on_c, 0, 70, 112
1, 275465, Note_off_c, 0, 70, 112
1, 275819, Note_on_c, 0, 67, 120
1, 276419, Note_off_c, 0, 67, 120
1, 277538, Note_on_c, 0, 79, 124
1, 278247, Note_off_c, 0, 79, 124
1, 279612, Note_on_c, 0, 74, 108
1, 280103, Note_off_c, 0, 74, 108
1, 280539, Note_on_c, 0, 74, 114
1, 280948, Note_off_c, 0, 74, 114
1, 281084, Note_on_c, 0, 75, 9
1, 281930, Note_off_c, 0, 75, 9
1, 282093, Note_on_c, 0, 74, 102
1, 282639, Note_off_c, 0, 74, 102
1, 285014, Note_on_c, 0, 79, 113
1, 285669, Note_off_c, 0, 79, 113
1, 286515, Note_on_c, 0, 81, 110
1, 287006, Note_off_c, 0, 81, 110
1, 287702, Note_on_c, 0, 74, 76
1, 288179, Note_off_c, 0, 74, 76
1, 288574, Note_on_c, 0, 73, 120
1, 288928, Note_off_c, 0, 73, 120
1, 288968, Note_on_c, 0, 75, 124
1, 289568, Note_off_c, 0, 75, 124
1, 289622, Note_on_c, 0, 74, 100
1, 290277, Note_off_c, 0, 74, 100
1, 290413, Note_on_c, 0, 72, 109
1, 291641, Note_off_c, 0, 72, 109
1, 292867, Note_on_c, 0, 69, 111
1, 293193, Note_off_c, 0, 69, 111
1, 293196, Note_on_c, 0, 70, 108
1, 293550, Note_off_c, 0, 70, 108
1, 293686, Note_on_c, 0, 72, 105
1, 294095, Note_off_c, 0, 72, 105
1, 294150, Note_on_c, 0, 74, 105
1, 294495, Note_off_c, 0, 74, 105
1, 294687, Note_on_c, 0, 75, 103
1, 295147, Note_off_c, 0, 75, 103
1, 295262, Note_on_c, 0, 77, 96
1, 295818, Note_off_c, 0, 77, 96
1, 296374, Note_on_c, 0, 73, 105
1, 296585, Note_off_c, 0, 73, 105
1, 296642, Note_on_c, 0, 75, 102
1, 297064, Note_off_c, 0, 75, 102
1, 297064, Note_on_c, 0, 74, 100
1, 297332, Note_off_c, 0, 74, 100
1, 297370, Note_on_c, 0, 72, 103
1, 297754, Note_off_c, 0, 72, 103
1, 297926, Note_on_c, 0, 70, 105
1, 298310, Note_off_c, 0, 70, 105
1, 298655, Note_on_c, 0, 69, 111
1, 299039, Note_off_c, 0, 69, 111
1, 299307, Note_on_c, 0, 70, 108
1, 299671, Note_off_c, 0, 70, 108
1, 299863, Note_on_c, 0, 72, 99
1, 300227, Note_off_c, 0, 72, 99
1, 300438, Note_on_c, 0, 74, 101
1, 300860, Note_off_c, 0, 74, 101
1, 301186, Note_on_c, 0, 70, 109
1, 301512, Note_off_c, 0, 70, 109
1, 301608, Note_on_c, 0, 69, 110
1, 302260, Note_off_c, 0, 69, 110
1, 302356, Note_on_c, 0, 67, 109
1, 302836, Note_off_c, 0, 67, 109
1, 303008, Note_on_c, 0, 66, 110
1, 303449, Note_off_c, 0, 66, 110
1, 303679, Note_on_c, 0, 69, 110
1, 304101, Note_off_c, 0, 69, 110
1, 304196, Note_on_c, 0, 68, 103
1, 304484, Note_off_c, 0, 68, 103
1, 304752, Note_on_c, 0, 63, 117
1, 305520, Note_off_c, 0, 63, 117
1, 305673, Note_on_c, 0, 62, 119
1, 306210, Note_off_c, 0, 62, 119
1, 308091, Note_on_c, 0, 72, 108
1, 308609, Note_off_c, 0, 72, 108
1, 309569, Note_on_c, 0, 70, 110
1, 310106, Note_off_c, 0, 70, 110
1, 310528, Note_on_c, 0, 69, 112
1, 311219, Note_off_c, 0, 69, 112
1, 311372, Note_on_c, 0, 67, 118
1, 312063, Note_off_c, 0, 67, 118
1, 312427, Note_on_c, 0, 69, 112
1, 313099, Note_off_c, 0, 69, 112
1, 313195, Note_on_c, 0, 67, 115
1, 313771, Note_off_c, 0, 67, 115
1, 314001, Note_on_c, 0, 70, 114
1, 314711, Note_off_c, 0, 70, 114
1, 314883, Note_on_c, 0, 67, 116
1, 315593, Note_off_c, 0, 67, 116
1, 315938, Note_on_c, 0, 69, 113
1, 316533, Note_off_c, 0, 69, 113
1, 317128, Note_on_c, 0, 67, 115
1, 317819, Note_off_c, 0, 67, 115
1, 318183, Note_on_c, 0, 67, 112
1, 318989, Note_off_c, 0, 67, 112
1, 319545, Note_on_c, 0, 65, 109
1, 321349, Note_off_c, 0, 65, 109
1, 324440, Note_on_c, 0, 69, 113
1, 324939, Note_off_c, 0, 69, 113
1, 325169, Note_on_c, 0, 67, 111
1, 325745, Note_off_c, 0, 67, 111
1, 325802, Note_on_c, 0, 65, 117
1, 326301, Note_off_c, 0, 65, 117
1, 326608, Note_on_c, 0, 69, 115
1, 327414, Note_off_c, 0, 69, 115
1, 327701, Note_on_c, 0, 67, 112
1, 328277, Note_off_c, 0, 67, 112
1, 328392, Note_on_c, 0, 65, 114
1, 328929, Note_off_c, 0, 65, 114
1, 329178, Note_on_c, 0, 69, 115
1, 330022, Note_off_c, 0, 69, 115
1, 330194, Note_on_c, 0, 67, 114
1, 330942, Note_off_c, 0, 67, 114
1, 331191, Note_on_c, 0, 65, 118
1, 331843, Note_off_c, 0, 65, 118
1, 332035, Note_on_c, 0, 69, 107
1, 332841, Note_off_c, 0, 69, 107
1, 332994, Note_on_c, 0, 67, 114
1, 333416, Note_off_c, 0, 67, 114
1, 333511, Note_on_c, 0, 65, 116
1, 333914, Note_off_c, 0, 65, 116
1, 334106, Note_on_c, 0, 69, 115
1, 334624, Note_off_c, 0, 69, 115
1, 335449, Note_on_c, 0, 67, 117
1, 335929, Note_off_c, 0, 67, 117
1, 336216, Note_on_c, 0, 65, 111
1, 336792, Note_off_c, 0, 65, 111
1, 337387, Note_on_c, 0, 67, 111
1, 337924, Note_off_c, 0, 67, 111
1, 338576, Note_on_c, 0, 65, 102
1, 339152, Note_off_c, 0, 65, 102
1, 339247, Note_on_c, 0, 67, 108
1, 340053, Note_off_c, 0, 67, 108
1, 342414, Note_on_c, 0, 69, 113
1, 342913, Note_off_c, 0, 69, 113
1, 342932, Note_on_c, 0, 67, 108
1, 343469, Note_off_c, 0, 67, 108
1, 343603, Note_on_c, 0, 65, 114
1, 344063, Note_off_c, 0, 65, 114
1, 344408, Note_on_c, 0, 69, 113
1, 345099, Note_off_c, 0, 69, 113
1, 345406, Note_on_c, 0, 67, 118
1, 345905, Note_off_c, 0, 67, 118
1, 346231, Note_on_c, 0, 65, 115
1, 346864, Note_off_c, 0, 65, 115
1, 347651, Note_on_c, 0, 67, 111
1, 348342, Note_off_c, 0, 67, 111
1, 348802, Note_on_c, 0, 65, 118
1, 349454, Note_off_c, 0, 65, 118
1, 350145, Note_on_c, 0, 62, 126
1, 350740, Note_off_c, 0, 62, 126
1, 351392, Note_on_c, 0, 65, 117
1, 352083, Note_off_c, 0, 65, 117
1, 352582, Note_on_c, 0, 67, 116
1, 353330, Note_off_c, 0, 67, 116
1, 353905, Note_on_c, 0, 67, 111
1, 354308, Note_off_c, 0, 67, 111
1, 354557, Note_on_c, 0, 67, 112
1, 355363, Note_off_c, 0, 67, 112
1, 357379, Note_on_c, 0, 69, 111
1, 357993, Note_off_c, 0, 69, 111
1, 358223, Note_on_c, 0, 67, 104
1, 358607, Note_off_c, 0, 67, 104
1, 358779, Note_on_c, 0, 65, 107
1, 359201, Note_off_c, 0, 65, 107
1, 359623, Note_on_c, 0, 69, 109
1, 360275, Note_off_c, 0, 69, 109
1, 360620, Note_on_c, 0, 67, 117
1, 361042, Note_off_c, 0, 67, 117
1, 361176, Note_on_c, 0, 65, 113
1, 361809, Note_off_c, 0, 65, 113
1, 362173, Note_on_c, 0, 72, 105
1, 362653, Note_off_c, 0, 72, 105
1, 363113, Note_on_c, 0, 70, 110
1, 363785, Note_off_c, 0, 70, 110
1, 364092, Note_on_c, 0, 69, 106
1, 364533, Note_off_c, 0, 69, 106
1, 365397, Note_on_c, 0, 67, 110
1, 365973, Note_off_c, 0, 67, 110
1, 366645, Note_on_c, 0, 65, 111
1, 367317, Note_off_c, 0, 65, 111
1, 367892, Note_on_c, 0, 67, 107
1, 368506, Note_off_c, 0, 67, 107
1, 368909, Note_on_c, 0, 67, 109
1, 369581, Note_off_c, 0, 67, 109
1, 369888, Note_on_c, 0, 67, 111
1, 371308, Note_off_c, 0, 67, 111
1, 374053, Note_on_c, 0, 69, 108
1, 374417, Note_off_c, 0, 69, 108
1, 374935, Note_on_c, 0, 69, 109
1, 376163, Note_off_c, 0, 69, 109
1, 379177, Note_on_c, 0, 65, 111
1, 379599, Note_off_c, 0, 65, 111
1, 379867, Note_on_c, 0, 65, 114
1, 380999, Note_off_c, 0, 65, 114
1, 381575, Note_on_c, 0, 69, 113
1, 381959, Note_off_c, 0, 69, 113
1, 382362, Note_on_c, 0, 69, 109
1, 383341, Note_off_c, 0, 69, 109
1, 383629, Note_on_c, 0, 67, 107
1, 384416, Note_off_c, 0, 67, 107
1, 386643, Note_on_c, 0, 65, 107
1, 387084, Note_off_c, 0, 65, 107
1, 387352, Note_on_c, 0, 65, 116
1, 388196, Note_off_c, 0, 65, 116
1, 389213, Note_on_c, 0, 62, 117
1, 389597, Note_off_c, 0, 62, 117
1, 389846, Note_on_c, 0, 62, 121
1, 391074, Note_off_c, 0, 62, 121
1, 391515, Note_on_c, 0, 65, 110
1, 391937, Note_off_c, 0, 65, 110
1, 392455, Note_on_c, 0, 65, 112
1, 393453, Note_off_c, 0, 65, 112
1, 394163, Note_on_c, 0, 69, 117
1, 394585, Note_off_c, 0, 69, 117
1, 394796, Note_on_c, 0, 69, 109
1, 395698, Note_off_c, 0, 69, 109
1, 396120, Note_on_c, 0, 65, 116
1, 396580, Note_off_c, 0, 65, 116
1, 396925, Note_on_c, 0, 65, 115
1, 397635, Note_off_c, 0, 65, 115
1, 398057, Note_on_c, 0, 67, 112
1, 398633, Note_off_c, 0, 67, 112
1, 399343, Note_on_c, 0, 67, 112
1, 399688, Note_off_c, 0, 67, 112
1, 399956, Note_on_c, 0, 67, 112
1, 401031, Note_off_c, 0, 67, 112
1, 403526, Note_on_c, 0, 79, 113
1, 404063, Note_off_c, 0, 79, 113
1, 404312, Note_on_c, 0, 67, 102
1, 404715, Note_off_c, 0, 67, 102
1, 405003, Note_on_c, 0, 67, 108
1, 405463, Note_off_c, 0, 67, 108
1, 405770, Note_on_c, 0, 69, 111
1, 406250, Note_off_c, 0, 69, 111
1, 406672, Note_on_c, 0, 67, 101
1, 407171, Note_off_c, 0, 67, 101
1, 407478, Note_on_c, 0, 70, 113
1, 407919, Note_off_c, 0, 70, 113
1, 408283, Note_on_c, 0, 69, 112
1, 408782, Note_off_c, 0, 69, 112
1, 409319, Note_on_c, 0, 67, 113
1, 409914, Note_off_c, 0, 67, 113
1, 410490, Note_on_c, 0, 65, 114
1, 411085, Note_off_c, 0, 65, 114
1, 411757, Note_on_c, 0, 69, 109
1, 412294, Note_off_c, 0, 69, 109
1, 412966, Note_on_c, 0, 67, 123
1, 413465, Note_off_c, 0, 67, 123
1, 414137, Note_on_c, 0, 67, 100
1, 414655, Note_off_c, 0, 67, 100
1, 414942, Note_on_c, 0, 67, 117
1, 416017, Note_off_c, 0, 67, 117
1, 418609, Note_on_c, 0, 67, 117
1, 419069, Note_off_c, 0, 67, 117
1, 419337, Note_on_c, 0, 70, 101
1, 419817, Note_off_c, 0, 70, 101
1, 419989, Note_on_c, 0, 72, 105
1, 420430, Note_off_c, 0, 72, 105
1, 420698, Note_on_c, 0, 74, 101
1, 421158, Note_off_c, 0, 74, 101
1, 421234, Note_on_c, 0, 67, 111
1, 421598, Note_off_c, 0, 67, 111
1, 421866, Note_on_c, 0, 70, 107
1, 422307, Note_off_c, 0, 70, 107
1, 422479, Note_on_c, 0, 72, 109
1, 422959, Note_off_c, 0, 72, 109
1, 423189, Note_on_c, 0, 74, 105
1, 423611, Note_off_c, 0, 74, 105
1, 423764, Note_on_c, 0, 72, 104
1, 424320, Note_off_c, 0, 72, 104
1, 424396, Note_on_c, 0, 70, 106
1, 424799, Note_off_c, 0, 70, 106
1, 425029, Note_on_c, 0, 72, 112
1, 425489, Note_off_c, 0, 72, 112
1, 425642, Note_on_c, 0, 70, 107
1, 426102, Note_off_c, 0, 70, 107
1, 426198, Note_on_c, 0, 69, 101
1, 426716, Note_off_c, 0, 69, 101
1, 426965, Note_on_c, 0, 72, 112
1, 427368, Note_off_c, 0, 72, 112
1, 427560, Note_on_c, 0, 67, 90
1, 427752, Note_off_c, 0, 67, 90
1, 427809, Note_on_c, 0, 69, 114
1, 428212, Note_off_c, 0, 69, 114
1, 428269, Note_on_c, 0, 67, 110
1, 428749, Note_off_c, 0, 67, 110
1, 428941, Note_on_c, 0, 65, 109
1, 429459, Note_off_c, 0, 65, 109
1, 429593, Note_on_c, 0, 69, 108
1, 430073, Note_off_c, 0, 69, 108
1, 430226, Note_on_c, 0, 67, 109
1, 430686, Note_off_c, 0, 67, 109
1, 430935, Note_on_c, 0, 65, 110
1, 431319, Note_off_c, 0, 65, 110
1, 431511, Note_on_c, 0, 62, 115
1, 431875, Note_off_c, 0, 62, 115
1, 431990, Note_on_c, 0, 67, 116
1, 432374, Note_off_c, 0, 67, 116
1, 432566, Note_on_c, 0, 65, 111
1, 432988, Note_off_c, 0, 65, 111
1, 433237, Note_on_c, 0, 60, 112
1, 433601, Note_off_c, 0, 60, 112
1, 433735, Note_on_c, 0, 62, 118
1, 434138, Note_off_c, 0, 62, 118
1, 434368, Note_on_c, 0, 65, 111
1, 434790, Note_off_c, 0, 65, 111
1, 435058, Note_on_c, 0, 67, 117
1, 435499, Note_off_c, 0, 67, 117
1, 435902, Note_on_c, 0, 67, 114
1, 436478, Note_off_c, 0, 67, 114
1, 436919, Note_on_c, 0, 65, 108
1, 437360, Note_off_c, 0, 65, 108
1, 437820, Note_on_c, 0, 67, 112
1, 438530, Note_off_c, 0, 67, 112
1, 440008, Note_on_c, 0, 67, 101
1, 440219, Note_off_c, 0, 67, 101
1, 440449, Note_on_c, 0, 69, 115
1, 441178, Note_off_c, 0, 69, 115
1, 442061, Note_on_c, 0, 67, 116
1, 442694, Note_off_c, 0, 67, 116
1, 442905, Note_on_c, 0, 67, 116
1, 443500, Note_off_c, 0, 67, 116
1, 443634, Note_on_c, 0, 65, 116
1, 444190, Note_off_c, 0, 65, 116
1, 444670, Note_on_c, 0, 65, 117
1, 445034, Note_off_c, 0, 65, 117
1, 445360, Note_on_c, 0, 65, 120
1, 446128, Note_off_c, 0, 65, 120
1, 447760, Note_on_c, 0, 62, 121
1, 448297, Note_off_c, 0, 62, 121
1, 448393, Note_on_c, 0, 65, 108
1, 448834, Note_off_c, 0, 65, 108
1, 449006, Note_on_c, 0, 67, 114
1, 449562, Note_off_c, 0, 67, 114
1, 449581, Note_on_c, 0, 65, 110
1, 450099, Note_off_c, 0, 65, 110
1, 450233, Note_on_c, 0, 65, 119
1, 450866, Note_off_c, 0, 65, 119
1, 450965, Note_on_c, 0, 62, 125
1, 451579, Note_off_c, 0, 62, 125
1, 452112, Note_on_c, 0, 62, 124
1, 452592, Note_off_c, 0, 62, 124
1, 452822, Note_on_c, 0, 62, 127
1, 453570, Note_off_c, 0, 62, 127
1, 455125, Note_on_c, 0, 60, 119
1, 455873, Note_off_c, 0, 60, 119
1, 455949, Note_on_c, 0, 58, 114
1, 456409, Note_off_c, 0, 58, 114
1, 456524, Note_on_c, 0, 60, 119
1, 457176, Note_off_c, 0, 60, 119
1, 457233, Note_on_c, 0, 58, 115
1, 457540, Note_off_c, 0, 58, 115
1, 457540, Note_on_c, 0, 60, 119
1, 463261, Note_off_c, 0, 60, 119
1, 465170, Note_on_c, 0, 61, 120
1, 465620, Note_off_c, 0, 61, 120
1, 465674, Note_on_c, 0, 60, 118
1, 466042, Note_off_c, 0, 60, 118
1, 466069, Note_on_c, 0, 58, 112
1, 466355, Note_off_c, 0, 58, 112
1, 466382, Note_on_c, 0, 61, 121
1, 466736, Note_off_c, 0, 61, 121
1, 466858, Note_on_c, 0, 60, 115
1, 467253, Note_off_c, 0, 60, 115
1, 467280, Note_on_c, 0, 58, 112
1, 467621, Note_off_c, 0, 58, 112
1, 467689, Note_on_c, 0, 61, 121
1, 468071, Note_off_c, 0, 61, 121
1, 468111, Note_on_c, 0, 60, 115
1, 468479, Note_off_c, 0, 60, 115
1, 468492, Note_on_c, 0, 58, 109
1, 468887, Note_off_c, 0, 58, 109
1, 468887, Note_on_c, 0, 61, 119
1, 469201, Note_off_c, 0, 61, 119
1, 469296, Note_on_c, 0, 60, 116
1, 469637, Note_off_c, 0, 60, 116
1, 469664, Note_on_c, 0, 58, 109
1, 470073, Note_off_c, 0, 58, 109
1, 470141, Note_on_c, 0, 61, 118
1, 470550, Note_off_c, 0, 61, 118
1, 470577, Note_on_c, 0, 60, 117
1, 470972, Note_off_c, 0, 60, 117
1, 471012, Note_on_c, 0, 58, 110
1, 471298, Note_off_c, 0, 58, 110
1, 471352, Note_on_c, 0, 61, 117
1, 471747, Note_off_c, 0, 61, 117
1, 471774, Note_on_c, 0, 60, 118
1, 472197, Note_off_c, 0, 60, 118
1, 472210, Note_on_c, 0, 58, 107
1, 472551, Note_off_c, 0, 58, 107
1, 480101, Note_on_c, 0, 61, 120
1, 480455, Note_off_c, 0, 61, 120
1, 480482, Note_on_c, 0, 62, 122
1, 480877, Note_off_c, 0, 62, 122
1, 480904, Note_on_c, 0, 65, 117
1, 481368, Note_off_c, 0, 65, 117
1, 481395, Note_on_c, 0, 61, 122
1, 481859, Note_off_c, 0, 61, 122
1, 481899, Note_on_c, 0, 62, 123
1, 482253, Note_off_c, 0, 62, 123
1, 482293, Note_on_c, 0, 65, 118
1, 482620, Note_off_c, 0, 65, 118
1, 482715, Note_on_c, 0, 61, 119
1, 483124, Note_off_c, 0, 61, 119
1, 483151, Note_on_c, 0, 62, 122
1, 483478, Note_off_c, 0, 62, 122
1, 483505, Note_on_c, 0, 65, 109
1, 483846, Note_off_c, 0, 65, 109
1, 492679, Note_on_c, 0, 61, 113
1, 493047, Note_off_c, 0, 61, 113
1, 493060, Note_on_c, 0, 60, 115
1, 493346, Note_off_c, 0, 60, 115
1, 493468, Note_on_c, 0, 58, 116
1, 493822, Note_off_c, 0, 58, 116
1, 493862, Note_on_c, 0, 60, 117
1, 494244, Note_off_c, 0, 60, 117
1, 494298, Note_on_c, 0, 61, 116
1, 494584, Note_off_c, 0, 61, 116
1, 494652, Note_on_c, 0, 62, 120
1, 495006, Note_off_c, 0, 62, 120
1, 495087, Note_on_c, 0, 65, 116
1, 495373, Note_off_c, 0, 65, 116
1, 495441, Note_on_c, 0, 66, 118
1, 495700, Note_off_c, 0, 66, 118
1, 495795, Note_on_c, 0, 67, 118
1, 496245, Note_off_c, 0, 67, 118
1, 496354, Note_on_c, 0, 70, 107
1, 496640, Note_off_c, 0, 70, 107
1, 496694, Note_on_c, 0, 67, 119
1, 497021, Note_off_c, 0, 67, 119
1, 497048, Note_on_c, 0, 65, 102
1, 497348, Note_off_c, 0, 65, 102
1, 497457, Note_on_c, 0, 69, 113
1, 497811, Note_off_c, 0, 69, 113
1, 498015, Note_on_c, 0, 67, 115
1, 498479, Note_off_c, 0, 67, 115
1, 498506, Note_on_c, 0, 66, 116
1, 498806, Note_off_c, 0, 66, 116
1, 498874, Note_on_c, 0, 65, 113
1, 499201, Note_off_c, 0, 65, 113
1, 499214, Note_on_c, 0, 63, 124
1, 499623, Note_off_c, 0, 63, 124
1, 499691, Note_on_c, 0, 64, 123
1, 499895, Note_off_c, 0, 64, 123
1, 499935, Note_on_c, 0, 67, 118
1, 500330, Note_off_c, 0, 67, 118
1, 500370, Note_on_c, 0, 63, 121
1, 500697, Note_off_c, 0, 63, 121
1, 500724, Note_on_c, 0, 61, 115
1, 501024, Note_off_c, 0, 61, 115
1, 501064, Note_on_c, 0, 62, 122
1, 501446, Note_off_c, 0, 62, 122
1, 501500, Note_on_c, 0, 61, 116
1, 501814, Note_off_c, 0, 61, 116
1, 501827, Note_on_c, 0, 60, 114
1, 502004, Note_off_c, 0, 60, 114
1, 502140, Note_on_c, 0, 59, 112
1, 502440, Note_off_c, 0, 59, 112
1, 502467, Note_on_c, 0, 58, 112
1, 502781, Note_off_c, 0, 58, 112
1, 502849, Note_on_c, 0, 62, 119
1, 503217, Note_off_c, 0, 62, 119
1, 503217, Note_on_c, 0, 64, 119
1, 503367, Note_off_c, 0, 64, 119
1, 503394, Note_on_c, 0, 69, 116
1, 503776, Note_off_c, 0, 69, 116
1, 503871, Note_on_c, 0, 66, 117
1, 504253, Note_off_c, 0, 66, 117
1, 504321, Note_on_c, 0, 67, 117
1, 504525, Note_off_c, 0, 67, 117
1, 504606, Note_on_c, 0, 69, 113
1, 504824, Note_off_c, 0, 69, 113
1, 504851, Note_on_c, 0, 70, 113
1, 505042, Note_off_c, 0, 70, 113
1, 505110, Note_on_c, 0, 72, 112
1, 505369, Note_off_c, 0, 72, 112
1, 505423, Note_on_c, 0, 74, 108
1, 507457, Note_off_c, 0, 74, 108
1, 509737, Note_on_c, 0, 81, 83
1, 511034, Note_off_c, 0, 81, 83
1, 511170, Note_on_c, 0, 79, 122
1, 511989, Note_on_c, 0, 82, 99
1, 511989, Note_off_c, 0, 79, 122
1, 512726, Note_off_c, 0, 82, 99
1, 520535, Note_on_c, 0, 84, 112
1, 521108, Note_off_c, 0, 84, 112
1, 521899, Note_on_c, 0, 82, 116
1, 522472, Note_off_c, 0, 82, 116
1, 522553, Note_on_c, 0, 81, 111
1, 523017, Note_off_c, 0, 81, 111
1, 523044, Note_on_c, 0, 79, 107
1, 523535, Note_off_c, 0, 79, 107
1, 523808, Note_on_c, 0, 81, 107
1, 524162, Note_off_c, 0, 81, 107
1, 524271, Note_on_c, 0, 82, 100
1, 524707, Note_off_c, 0, 82, 100
1, 524925, Note_on_c, 0, 82, 101
1, 525525, Note_off_c, 0, 82, 101
1, 525525, Note_on_c, 0, 74, 101
1, 525961, Note_off_c, 0, 74, 101
1, 526261, Note_on_c, 0, 70, 108
1, 526697, Note_off_c, 0, 70, 108
1, 526724, Note_on_c, 0, 67, 95
1, 527051, Note_off_c, 0, 67, 95
1, 527515, Note_on_c, 0, 70, 108
1, 527788, Note_off_c, 0, 70, 108
1, 528224, Note_on_c, 0, 74, 103
1, 528497, Note_off_c, 0, 74, 103
1, 528578, Note_on_c, 0, 76, 107
1, 528769, Note_off_c, 0, 76, 107
1, 528905, Note_on_c, 0, 77, 110
1, 531034, Note_off_c, 0, 77, 110
1, 531034, Note_on_c, 0, 73, 111
1, 531388, Note_off_c, 0, 73, 111
1, 531606, Note_on_c, 0, 74, 104
1, 533025, Note_off_c, 0, 74, 104
1, 533079, Note_on_c, 0, 72, 107
1, 533597, Note_off_c, 0, 72, 107
1, 533678, Note_on_c, 0, 70, 115
1, 533951, Note_off_c, 0, 70, 115
1, 534278, Note_on_c, 0, 73, 105
1, 534578, Note_off_c, 0, 73, 105
1, 534605, Note_on_c, 0, 72, 106
1, 534959, Note_off_c, 0, 72, 106
1, 534959, Note_on_c, 0, 70, 115
1, 535259, Note_off_c, 0, 70, 115
1, 535368, Note_on_c, 0, 67, 117
1, 535695, Note_off_c, 0, 67, 117
1, 535790, Note_on_c, 0, 70, 104
1, 536090, Note_off_c, 0, 70, 104
1, 536103, Note_on_c, 0, 65, 110
1, 536403, Note_off_c, 0, 65, 110
1, 536430, Note_on_c, 0, 66, 118
1, 536839, Note_off_c, 0, 66, 118
1, 536948, Note_on_c, 0, 69, 116
1, 537248, Note_off_c, 0, 69, 116
1, 537248, Note_on_c, 0, 68, 117
1, 537411, Note_off_c, 0, 68, 117
1, 537465, Note_on_c, 0, 66, 108
1, 537738, Note_off_c, 0, 66, 108
1, 537956, Note_on_c, 0, 62, 123
1, 538310, Note_off_c, 0, 62, 123
1, 538337, Note_on_c, 0, 58, 112
1, 538555, Note_off_c, 0, 58, 112
1, 538664, Note_on_c, 0, 54, 108
1, 538882, Note_off_c, 0, 54, 108
1, 538882, Note_on_c, 0, 60, 118
1, 539209, Note_off_c, 0, 60, 118
1, 539209, Note_on_c, 0, 57, 114
1, 539400, Note_off_c, 0, 57, 114
1, 539454, Note_on_c, 0, 58, 112
1, 539754, Note_off_c, 0, 58, 112
1, 539835, Note_on_c, 0, 60, 114
1, 540026, Note_off_c, 0, 60, 114
1, 540107, Note_on_c, 0, 61, 119
1, 540325, Note_off_c, 0, 61, 119
1, 540325, Note_on_c, 0, 62, 119
1, 540570, Note_off_c, 0, 62, 119
1, 540733, Note_on_c, 0, 65, 120
1, 541006, Note_off_c, 0, 65, 120
1, 541006, Note_on_c, 0, 62, 119
1, 541306, Note_off_c, 0, 62, 119
1, 541551, Note_on_c, 0, 65, 111
1, 541742, Note_off_c, 0, 65, 111
1, 541742, Note_on_c, 0, 70, 111
1, 541987, Note_off_c, 0, 70, 111
1, 542041, Note_on_c, 0, 74, 102
1, 542259, Note_off_c, 0, 74, 102
1, 542293, Note_on_c, 0, 73, 103
1, 542586, Note_off_c, 0, 73, 103
1, 542633, Note_on_c, 0, 70, 111
1, 542824, Note_off_c, 0, 70, 111
1, 542878, Note_on_c, 0, 67, 112
1, 543123, Note_off_c, 0, 67, 112
1, 543143, Note_on_c, 0, 68, 116
1, 543340, Note_off_c, 0, 68, 116
1, 543346, Note_on_c, 0, 69, 112
1, 543673, Note_off_c, 0, 69, 112
1, 543891, Note_on_c, 0, 60, 108
1, 544027, Note_off_c, 0, 60, 108
1, 544027, Note_on_c, 0, 63, 113
1, 544327, Note_off_c, 0, 63, 113
1, 544333, Note_on_c, 0, 67, 114
1, 544565, Note_off_c, 0, 67, 114
1, 544619, Note_on_c, 0, 66, 116
1, 544851, Note_off_c, 0, 66, 116
1, 544953, Note_on_c, 0, 62, 119
1, 545198, Note_off_c, 0, 62, 119
1, 545198, Note_on_c, 0, 60, 108
1, 545471, Note_off_c, 0, 60, 108
1, 545689, Note_on_c, 0, 58, 112
1, 545907, Note_off_c, 0, 58, 112
1, 545907, Note_on_c, 0, 62, 115
1, 546152, Note_off_c, 0, 62, 115
1, 546165, Note_on_c, 0, 65, 117
1, 546356, Note_off_c, 0, 65, 117
1, 546396, Note_on_c, 0, 67, 115
1, 546778, Note_off_c, 0, 67, 115
1, 546969, Note_on_c, 0, 74, 98
1, 547132, Note_off_c, 0, 74, 98
1, 547323, Note_on_c, 0, 76, 105
1, 547677, Note_off_c, 0, 76, 105
1, 547677, Note_on_c, 0, 79, 119
1, 549042, Note_off_c, 0, 79, 119
1, 551827, Note_on_c, 0, 50, 118
1, 552127, Note_off_c, 0, 50, 118
1, 552236, Note_on_c, 0, 55, 109
1, 552345, Note_off_c, 0, 55, 109
1, 552508, Note_on_c, 0, 57, 115
1, 552753, Note_off_c, 0, 57, 115
1, 552753, Note_on_c, 0, 60, 113
1, 553026, Note_off_c, 0, 60, 113
1, 553155, Note_on_c, 0, 64, 114
1, 553318, Note_off_c, 0, 64, 114
1, 553399, Note_on_c, 0, 65, 108
1, 553535, Note_off_c, 0, 65, 108
1, 553678, Note_on_c, 0, 72, 104
1, 553923, Note_off_c, 0, 72, 104
1, 553950, Note_on_c, 0, 76, 111
1, 554195, Note_off_c, 0, 76, 111
1, 554331, Note_on_c, 0, 77, 112
1, 554522, Note_off_c, 0, 77, 112
1, 554522, Note_on_c, 0, 79, 112
1, 554931, Note_off_c, 0, 79, 112
1, 555067, Note_on_c, 0, 79, 85
1, 555394, Note_off_c, 0, 79, 85
1, 555557, Note_on_c, 0, 80, 113
1, 555884, Note_off_c, 0, 80, 113
1, 555965, Note_on_c, 0, 79, 121
1, 557057, Note_off_c, 0, 79, 121
1, 558750, Note_on_c, 0, 49, 114
1, 559132, Note_off_c, 0, 49, 114
1, 559241, Note_on_c, 0, 51, 117
1, 559432, Note_off_c, 0, 51, 117
1, 559486, Note_on_c, 0, 52, 116
1, 559786, Note_off_c, 0, 52, 116
1, 560004, Note_on_c, 0, 51, 120
1, 560222, Note_off_c, 0, 51, 120
1, 560331, Note_on_c, 0, 54, 120
1, 560576, Note_off_c, 0, 54, 120
1, 560603, Note_on_c, 0, 55, 117
1, 560794, Note_off_c, 0, 55, 117
1, 560903, Note_on_c, 0, 53, 115
1, 561094, Note_off_c, 0, 53, 115
1, 561230, Note_on_c, 0, 55, 112
1, 561584, Note_off_c, 0, 55, 112
1, 561775, Note_on_c, 0, 56, 107
1, 561884, Note_off_c, 0, 56, 107
1, 562102, Note_on_c, 0, 57, 115
1, 562293, Note_off_c, 0, 57, 115
1, 562347, Note_on_c, 0, 59, 106
1, 562620, Note_off_c, 0, 59, 106
1, 562674, Note_on_c, 0, 60, 115
1, 563056, Note_off_c, 0, 60, 115
1, 563301, Note_on_c, 0, 58, 113
1, 563546, Note_off_c, 0, 58, 113
1, 563737, Note_on_c, 0, 62, 10
1, 564037, Note_off_c, 0, 62, 10
1, 564146, Note_on_c, 0, 65, 113
1, 564528, Note_off_c, 0, 65, 113
1, 564609, Note_on_c, 0, 71, 101
1, 564909, Note_off_c, 0, 71, 101
1, 565018, Note_on_c, 0, 76, 104
1, 565209, Note_off_c, 0, 76, 104
1, 565290, Note_on_c, 0, 79, 105
1, 565754, Note_off_c, 0, 79, 105
1, 565999, Note_on_c, 0, 77, 88
1, 566463, Note_off_c, 0, 77, 88
1, 569657, Note_on_c, 0, 78, 103
1, 570148, Note_off_c, 0, 78, 103
1, 570284, Note_on_c, 0, 84, 105
1, 570802, Note_off_c, 0, 84, 105
1, 570802, Note_on_c, 0, 83, 103
1, 571238, Note_off_c, 0, 83, 103
1, 571265, Note_on_c, 0, 82, 105
1, 571619, Note_off_c, 0, 82, 105
1, 571619, Note_on_c, 0, 81, 106
1, 572028, Note_off_c, 0, 81, 106
1, 572055, Note_on_c, 0, 83, 110
1, 572519, Note_off_c, 0, 83, 110
1, 572655, Note_on_c, 0, 79, 108
1, 573119, Note_off_c, 0, 79, 108
1, 573337, Note_on_c, 0, 81, 112
1, 574265, Note_off_c, 0, 81, 112
1, 578142, Note_on_c, 0, 82, 112
1, 578606, Note_off_c, 0, 82, 112
1, 578687, Note_on_c, 0, 81, 106
1, 579233, Note_off_c, 0, 81, 106
1, 579396, Note_on_c, 0, 77, 106
1, 579914, Note_off_c, 0, 77, 106
1, 580050, Note_on_c, 0, 81, 108
1, 580568, Note_off_c, 0, 81, 108
1, 580677, Note_on_c, 0, 76, 118
1, 581414, Note_off_c, 0, 76, 118
1, 581414, Note_on_c, 0, 72, 108
1, 581714, Note_off_c, 0, 72, 108
1, 581932, Note_on_c, 0, 67, 100
1, 582396, Note_off_c, 0, 67, 100
1, 582723, Note_on_c, 0, 70, 112
1, 583269, Note_off_c, 0, 70, 112
1, 583378, Note_on_c, 0, 74, 101
1, 583814, Note_off_c, 0, 74, 101
1, 583814, Note_on_c, 0, 67, 117
1, 584250, Note_off_c, 0, 67, 117
1, 584413, Note_on_c, 0, 70, 111
1, 584849, Note_off_c, 0, 70, 111
1, 585040, Note_on_c, 0, 72, 111
1, 585531, Note_off_c, 0, 72, 111
1, 585776, Note_on_c, 0, 74, 107
1, 586158, Note_off_c, 0, 74, 107
1, 586349, Note_on_c, 0, 76, 125
1, 586813, Note_off_c, 0, 76, 125
1, 586922, Note_on_c, 0, 81, 116
1, 587413, Note_off_c, 0, 81, 116
1, 588286, Note_on_c, 0, 81, 111
1, 588832, Note_off_c, 0, 81, 111
1, 589405, Note_on_c, 0, 79, 102
1, 589841, Note_off_c, 0, 79, 102
1, 590223, Note_on_c, 0, 81, 103
1, 591014, Note_off_c, 0, 81, 103
1, 591205, Note_on_c, 0, 79, 117
1, 592406, Note_off_c, 0, 79, 117
1, 594399, Note_on_c, 0, 67, 119
1, 595108, Note_off_c, 0, 67, 119
1, 595326, Note_on_c, 0, 72, 102
1, 595762, Note_off_c, 0, 72, 102
1, 595925, Note_on_c, 0, 76, 117
1, 596389, Note_off_c, 0, 76, 117
1, 596470, Note_on_c, 0, 77, 107
1, 596824, Note_off_c, 0, 77, 107
1, 596960, Note_on_c, 0, 76, 122
1, 597588, Note_off_c, 0, 76, 122
1, 597615, Note_on_c, 0, 72, 104
1, 598024, Note_off_c, 0, 72, 104
1, 598269, Note_on_c, 0, 67, 117
1, 598760, Note_off_c, 0, 67, 117
1, 598787, Note_on_c, 0, 65, 116
1, 599305, Note_off_c, 0, 65, 116
1, 599441, Note_on_c, 0, 70, 112
1, 599905, Note_off_c, 0, 70, 112
1, 600041, Note_on_c, 0, 64, 124
1, 600641, Note_off_c, 0, 64, 124
1, 600804, Note_on_c, 0, 69, 117
1, 601268, Note_off_c, 0, 69, 117
1, 601404, Note_on_c, 0, 65, 117
1, 601950, Note_off_c, 0, 65, 117
1, 602004, Note_on_c, 0, 60, 118
1, 602522, Note_off_c, 0, 60, 118
1, 602603, Note_on_c, 0, 62, 120
1, 603121, Note_off_c, 0, 62, 120
1, 603230, Note_on_c, 0, 67, 117
1, 603721, Note_off_c, 0, 67, 117
1, 603857, Note_on_c, 0, 65, 117
1, 604375, Note_off_c, 0, 65, 117
1, 604375, Note_on_c, 0, 67, 118
1, 605057, Note_off_c, 0, 67, 118
1, 605193, Note_on_c, 0, 69, 109
1, 605711, Note_off_c, 0, 69, 109
1, 605711, Note_on_c, 0, 72, 115
1, 606175, Note_off_c, 0, 72, 115
1, 606284, Note_on_c, 0, 70, 109
1, 606939, Note_off_c, 0, 70, 109
1, 607102, Note_on_c, 0, 65, 112
1, 607620, Note_off_c, 0, 65, 112
1, 610651, Note_on_c, 0, 62, 118
1, 611197, Note_off_c, 0, 62, 118
1, 611251, Note_on_c, 0, 69, 112
1, 612015, Note_off_c, 0, 69, 112
1, 612015, Note_on_c, 0, 62, 120
1, 612533, Note_off_c, 0, 62, 120
1, 612642, Note_on_c, 0, 67, 120
1, 613106, Note_off_c, 0, 67, 120
1, 613187, Note_on_c, 0, 69, 113
1, 613705, Note_off_c, 0, 69, 113
1, 613759, Note_on_c, 0, 70, 108
1, 614305, Note_off_c, 0, 70, 108
1, 614414, Note_on_c, 0, 72, 108
1, 615042, Note_off_c, 0, 72, 108
1, 615096, Note_on_c, 0, 62, 114
1, 615450, Note_off_c, 0, 62, 114
1, 615586, Note_on_c, 0, 69, 112
1, 616132, Note_off_c, 0, 69, 112
1, 616186, Note_on_c, 0, 62, 113
1, 616732, Note_off_c, 0, 62, 113
1, 616895, Note_on_c, 0, 67, 118
1, 617468, Note_off_c, 0, 67, 118
1, 617577, Note_on_c, 0, 69, 110
1, 618013, Note_off_c, 0, 69, 110
1, 618231, Note_on_c, 0, 70, 109
1, 618695, Note_off_c, 0, 70, 109
1, 619022, Note_on_c, 0, 72, 111
1, 619540, Note_off_c, 0, 72, 111
1, 619540, Note_on_c, 0, 62, 116
1, 619976, Note_off_c, 0, 62, 116
1, 620167, Note_on_c, 0, 69, 115
1, 620658, Note_off_c, 0, 69, 115
1, 620849, Note_on_c, 0, 62, 112
1, 621203, Note_off_c, 0, 62, 112
1, 621257, Note_on_c, 0, 67, 116
1, 621885, Note_off_c, 0, 67, 116
1, 621939, Note_on_c, 0, 69, 110
1, 622403, Note_off_c, 0, 69, 110
1, 622594, Note_on_c, 0, 70, 106
1, 623058, Note_off_c, 0, 70, 106
1, 623276, Note_on_c, 0, 72, 115
1, 623658, Note_off_c, 0, 72, 115
1, 623985, Note_on_c, 0, 62, 115
1, 624421, Note_off_c, 0, 62, 115
1, 624475, Note_on_c, 0, 67, 119
1, 624911, Note_off_c, 0, 67, 119
1, 625047, Note_on_c, 0, 69, 110
1, 625511, Note_off_c, 0, 69, 110
1, 625647, Note_on_c, 0, 70, 104
1, 626111, Note_off_c, 0, 70, 104
1, 626329, Note_on_c, 0, 72, 106
1, 626875, Note_off_c, 0, 72, 106
1, 626902, Note_on_c, 0, 62, 116
1, 627256, Note_off_c, 0, 62, 116
1, 627337, Note_on_c, 0, 67, 104
1, 627637, Note_off_c, 0, 67, 104
1, 627800, Note_on_c, 0, 69, 113
1, 628045, Note_off_c, 0, 69, 113
1, 628154, Note_on_c, 0, 70, 112
1, 628590, Note_off_c, 0, 70, 112
1, 628699, Note_on_c, 0, 72, 109
1, 629245, Note_off_c, 0, 72, 109
1, 629463, Note_on_c, 0, 62, 112
1, 629954, Note_off_c, 0, 62, 112
1, 630035, Note_on_c, 0, 67, 98
1, 630553, Note_off_c, 0, 67, 98
1, 630634, Note_on_c, 0, 69, 102
1, 631098, Note_off_c, 0, 69, 102
1, 631207, Note_on_c, 0, 70, 107
1, 631807, Note_off_c, 0, 70, 107
1, 632435, Note_on_c, 0, 72, 115
1, 633144, Note_off_c, 0, 72, 115
1, 635000, Note_on_c, 0, 70, 105
1, 635518, Note_off_c, 0, 70, 105
1, 635518, Note_on_c, 0, 69, 103
1, 636091, Note_off_c, 0, 69, 103
1, 636145, Note_on_c, 0, 67, 115
1, 636773, Note_off_c, 0, 67, 115
1, 636827, Note_on_c, 0, 65, 112
1, 637263, Note_off_c, 0, 65, 112
1, 637563, Note_on_c, 0, 67, 116
1, 637917, Note_off_c, 0, 67, 116
1, 638080, Note_on_c, 0, 69, 110
1, 638598, Note_off_c, 0, 69, 110
1, 638734, Note_on_c, 0, 65, 114
1, 639198, Note_off_c, 0, 65, 114
1, 639198, Note_on_c, 0, 69, 103
1, 639634, Note_off_c, 0, 69, 103
1, 639961, Note_on_c, 0, 67, 120
1, 640507, Note_off_c, 0, 67, 120
1, 640752, Note_on_c, 0, 67, 121
1, 641188, Note_off_c, 0, 67, 121
1, 641870, Note_on_c, 0, 72, 112
1, 642252, Note_off_c, 0, 72, 112
1, 642525, Note_on_c, 0, 72, 125
1, 642989, Note_off_c, 0, 72, 125
1, 643207, Note_on_c, 0, 72, 112
1, 643589, Note_off_c, 0, 72, 112
1, 644954, Note_on_c, 0, 70, 109
1, 645472, Note_off_c, 0, 70, 109
1, 645608, Note_on_c, 0, 69, 111
1, 646154, Note_off_c, 0, 69, 111
1, 646154, Note_on_c, 0, 67, 116
1, 646645, Note_off_c, 0, 67, 116
1, 646754, Note_on_c, 0, 65, 114
1, 647190, Note_off_c, 0, 65, 114
1, 647463, Note_on_c, 0, 67, 118
1, 647872, Note_off_c, 0, 67, 118
1, 647953, Note_on_c, 0, 69, 110
1, 648417, Note_off_c, 0, 69, 110
1, 648471, Note_on_c, 0, 65, 111
1, 649044, Note_off_c, 0, 65, 111
1, 649125, Note_on_c, 0, 67, 112
1, 649725, Note_off_c, 0, 67, 112
1, 649888, Note_on_c, 0, 67, 120
1, 650297, Note_off_c, 0, 67, 120
1, 650351, Note_on_c, 0, 67, 119
1, 650979, Note_off_c, 0, 67, 119
1, 651607, Note_on_c, 0, 72, 104
1, 652098, Note_off_c, 0, 72, 104
1, 652343, Note_on_c, 0, 72, 112
1, 652916, Note_off_c, 0, 72, 112
1, 653161, Note_on_c, 0, 72, 102
1, 653652, Note_off_c, 0, 72, 102
1, 654853, Note_on_c, 0, 70, 111
1, 655344, Note_off_c, 0, 70, 111
1, 655398, Note_on_c, 0, 69, 108
1, 655834, Note_off_c, 0, 69, 108
1, 655997, Note_on_c, 0, 67, 117
1, 656543, Note_off_c, 0, 67, 117
1, 656761, Note_on_c, 0, 67, 117
1, 657334, Note_off_c, 0, 67, 117
1, 658672, Note_on_c, 0, 70, 110
1, 659190, Note_off_c, 0, 70, 110
1, 659244, Note_on_c, 0, 69, 112
1, 659844, Note_off_c, 0, 69, 112
1, 659925, Note_on_c, 0, 67, 114
1, 660443, Note_off_c, 0, 67, 114
1, 660661, Note_on_c, 0, 67, 123
1, 661179, Note_off_c, 0, 67, 123
1, 662517, Note_on_c, 0, 70, 112
1, 662926, Note_off_c, 0, 70, 112
1, 663062, Note_on_c, 0, 69, 112
1, 663471, Note_off_c, 0, 69, 112
1, 663662, Note_on_c, 0, 67, 115
1, 664180, Note_off_c, 0, 67, 115
1, 664207, Note_on_c, 0, 65, 117
1, 664671, Note_off_c, 0, 65, 117
1, 664698, Note_on_c, 0, 67, 118
1, 665189, Note_off_c, 0, 67, 118
1, 665325, Note_on_c, 0, 69, 110
1, 666007, Note_off_c, 0, 69, 110
1, 666143, Note_on_c, 0, 65, 117
1, 666579, Note_off_c, 0, 65, 117
1, 666606, Note_on_c, 0, 67, 116
1, 667124, Note_off_c, 0, 67, 116
1, 667205, Note_on_c, 0, 67, 114
1, 667833, Note_off_c, 0, 67, 114
1, 668078, Note_on_c, 0, 74, 111
1, 668706, Note_off_c, 0, 74, 111
1, 669962, Note_on_c, 0, 72, 108
1, 670590, Note_off_c, 0, 72, 108
1, 670617, Note_on_c, 0, 69, 120
1, 671081, Note_off_c, 0, 69, 120
1, 672255, Note_on_c, 0, 70, 101
1, 672828, Note_off_c, 0, 70, 101
1, 673101, Note_on_c, 0, 67, 118
1, 673729, Note_off_c, 0, 67, 118
1, 674957, Note_on_c, 0, 67, 119
1, 675585, Note_off_c, 0, 67, 119
1, 675666, Note_on_c, 0, 65, 111
1, 676102, Note_off_c, 0, 65, 111
1, 676102, Note_on_c, 0, 67, 112
1, 676784, Note_off_c, 0, 67, 112
1, 676893, Note_on_c, 0, 69, 115
1, 677439, Note_off_c, 0, 69, 115
1, 677439, Note_on_c, 0, 65, 115
1, 677766, Note_off_c, 0, 65, 115
1, 677957, Note_on_c, 0, 67, 111
1, 678557, Note_off_c, 0, 67, 111
1, 678666, Note_on_c, 0, 67, 116
1, 679130, Note_off_c, 0, 67, 116
1, 679293, Note_on_c, 0, 67, 118
1, 680030, Note_off_c, 0, 67, 118
1, 681354, Note_on_c, 0, 72, 109
1, 682091, Note_off_c, 0, 72, 109
1, 683578, Note_on_c, 0, 70, 114
1, 684461, Note_off_c, 0, 70, 114
1, 686304, Note_on_c, 0, 67, 122
1, 687187, Note_off_c, 0, 67, 122
1, 688915, Note_on_c, 0, 65, 119
1, 689913, Note_off_c, 0, 65, 119
1, 691333, Note_on_c, 0, 67, 122
1, 692369, Note_off_c, 0, 67, 122
1, 693898, Note_on_c, 0, 70, 117
1, 694580, Note_off_c, 0, 70, 117
1, 695235, Note_on_c, 0, 74, 102
1, 695917, Note_off_c, 0, 74, 102
1, 696408, Note_on_c, 0, 79, 91
1, 697199, Note_off_c, 0, 79, 91
1, 700339, Note_on_c, 0, 81, 101
1, 710087, Note_off_c, 0, 81, 101
1, 710305, Note_on_c, 0, 79, 110
1, 711014, Note_off_c, 0, 79, 110
1, 711095, Note_on_c, 0, 77, 104
1, 711286, Note_off_c, 0, 77, 104
1, 711313, Note_on_c, 0, 74, 109
1, 711913, Note_off_c, 0, 74, 109
1, 711994, Note_on_c, 0, 72, 89
1, 712185, Note_off_c, 0, 72, 89
1, 715762, Note_on_c, 0, 79, 114
1, 716171, Note_off_c, 0, 79, 114
1, 716334, Note_on_c, 0, 81, 114
1, 719201, Note_off_c, 0, 81, 114
1, 719372, Note_on_c, 0, 82, 113
1, 719679, Note_off_c, 0, 82, 113
1, 719736, Note_on_c, 0, 81, 110
1, 720004, Note_off_c, 0, 81, 110
1, 720176, Note_on_c, 0, 82, 111
1, 720483, Note_off_c, 0, 82, 111
1, 720559, Note_on_c, 0, 81, 113
1, 720789, Note_off_c, 0, 81, 113
1, 720827, Note_on_c, 0, 82, 115
1, 721134, Note_off_c, 0, 82, 115
1, 721153, Note_on_c, 0, 81, 114
1, 721364, Note_off_c, 0, 81, 114
1, 721440, Note_on_c, 0, 82, 114
1, 721766, Note_off_c, 0, 82, 114
1, 721862, Note_on_c, 0, 81, 113
1, 722169, Note_off_c, 0, 81, 113
1, 722360, Note_on_c, 0, 82, 114
1, 722571, Note_off_c, 0, 82, 114
1, 722609, Note_on_c, 0, 81, 114
1, 722858, Note_off_c, 0, 81, 114
1, 722954, Note_on_c, 0, 82, 110
1, 723453, Note_off_c, 0, 82, 110
1, 723529, Note_on_c, 0, 81, 108
1, 725602, Note_off_c, 0, 81, 108
1, 725659, Note_on_c, 0, 79, 112
1, 726273, Note_off_c, 0, 79, 112
1, 726426, Note_on_c, 0, 74, 102
1, 727213, Note_off_c, 0, 74, 102
1, 727347, Note_on_c, 0, 72, 104
1, 727577, Note_off_c, 0, 72, 104
1, 731244, Note_on_c, 0, 81, 109
1, 731551, Note_off_c, 0, 81, 109
1, 731973, Note_on_c, 0, 84, 111
1, 733509, Note_off_c, 0, 84, 111
1, 735006, Note_on_c, 0, 85, 108
1, 737386, Note_off_c, 0, 85, 108
1, 738461, Note_on_c, 0, 86, 105
1, 739728, Note_off_c, 0, 86, 105
1, 740572, Note_on_c, 0, 89, 115
1, 741032, Note_off_c, 0, 89, 115
1, 741492, Note_on_c, 0, 91, 90
1, 742221, Note_off_c, 0, 91, 90
1, 745369, Note_on_c, 0, 77, 98
1, 745983, Note_off_c, 0, 77, 98
1, 747826, Note_on_c, 0, 89, 106
1, 748440, Note_off_c, 0, 89, 106
1, 750897, Note_on_c, 0, 77, 112
1, 751511, Note_off_c, 0, 77, 112
1, 753546, Note_on_c, 0, 89, 103
1, 754122, Note_off_c, 0, 89, 103
1, 756886, Note_on_c, 0, 74, 101
1, 757231, Note_off_c, 0, 74, 101
1, 759381, Note_on_c, 0, 89, 90
1, 759803, Note_off_c, 0, 89, 90
1, 759918, Note_on_c, 0, 86, 95
1, 760378, Note_off_c, 0, 86, 95
1, 760531, Note_on_c, 0, 89, 103
1, 761068, Note_off_c, 0, 89, 103
1, 763487, Note_on_c, 0, 75, 116
1, 764063, Note_off_c, 0, 75, 116
1, 766367, Note_on_c, 0, 89, 103
1, 767096, Note_off_c, 0, 89, 103
1, 768555, Note_on_c, 0, 77, 85
1, 769054, Note_off_c, 0, 77, 85
1, 769668, Note_on_c, 0, 87, 89
1, 770205, Note_off_c, 0, 87, 89
1, 770243, Note_on_c, 0, 77, 90
1, 770665, Note_off_c, 0, 77, 90
1, 771509, Note_on_c, 0, 89, 93
1, 772008, Note_off_c, 0, 89, 93
1, 772392, Note_on_c, 0, 77, 99
1, 772776, Note_off_c, 0, 77, 99
1, 773505, Note_on_c, 0, 89, 109
1, 773965, Note_off_c, 0, 89, 109
1, 774233, Note_on_c, 0, 76, 95
1, 774617, Note_off_c, 0, 76, 95
1, 775077, Note_on_c, 0, 87, 108
1, 775691, Note_off_c, 0, 87, 108
1, 775767, Note_on_c, 0, 79, 86
1, 776266, Note_off_c, 0, 79, 86
1, 776918, Note_on_c, 0, 88, 116
1, 777455, Note_off_c, 0, 88, 116
1, 777839, Note_on_c, 0, 79, 91
1, 778491, Note_off_c, 0, 79, 91
1, 778913, Note_on_c, 0, 89, 92
1, 779373, Note_off_c, 0, 89, 92
1, 782137, Note_on_c, 0, 74, 105
1, 782636, Note_off_c, 0, 74, 105
1, 784978, Note_on_c, 0, 89, 97
1, 785630, Note_off_c, 0, 89, 97
1, 788663, Note_on_c, 0, 84, 109
1, 789085, Note_off_c, 0, 84, 109
1, 789507, Note_on_c, 0, 89, 108
1, 790121, Note_off_c, 0, 89, 108
1, 790658, Note_on_c, 0, 82, 93
1, 791272, Note_off_c, 0, 82, 93
1, 794267, Note_on_c, 0, 82, 103
1, 795380, Note_off_c, 0, 82, 103
1, 795418, Note_on_c, 0, 79, 118
1, 797760, Note_off_c, 0, 79, 118
1, 798208, Note_on_c, 0, 77, 96
1, 798672, Note_off_c, 0, 77, 96
1, 798863, Note_on_c, 0, 74, 109
1, 799477, Note_off_c, 0, 74, 109
1, 799486, Note_on_c, 0, 72, 113
1, 799754, Note_off_c, 0, 72, 113
1, 799926, Note_on_c, 0, 70, 103
1, 800226, Note_off_c, 0, 70, 103
1, 800335, Note_on_c, 0, 72, 103
1, 800662, Note_off_c, 0, 72, 103
1, 801016, Note_on_c, 0, 72, 110
1, 801425, Note_off_c, 0, 72, 110
1, 801479, Note_on_c, 0, 70, 113
1, 801861, Note_off_c, 0, 70, 113
1, 802024, Note_on_c, 0, 67, 113
1, 802652, Note_off_c, 0, 67, 113
1, 802761, Note_on_c, 0, 62, 113
1, 803115, Note_off_c, 0, 62, 113
1, 803224, Note_on_c, 0, 65, 120
1, 803770, Note_off_c, 0, 65, 120
1, 803851, Note_on_c, 0, 66, 112
1, 804205, Note_off_c, 0, 66, 112
1, 804341, Note_on_c, 0, 69, 119
1, 804750, Note_off_c, 0, 69, 119
1, 805104, Note_on_c, 0, 66, 111
1, 805595, Note_off_c, 0, 66, 111
1, 805704, Note_on_c, 0, 67, 120
1, 806113, Note_off_c, 0, 67, 120
1, 806304, Note_on_c, 0, 69, 115
1, 806768, Note_off_c, 0, 69, 115
1, 806877, Note_on_c, 0, 70, 109
1, 807477, Note_off_c, 0, 70, 109
1, 807558, Note_on_c, 0, 72, 113
1, 808131, Note_off_c, 0, 72, 113
1, 808158, Note_on_c, 0, 74, 100
1, 808895, Note_off_c, 0, 74, 100
1, 809113, Note_on_c, 0, 77, 97
1, 809413, Note_off_c, 0, 77, 97
1, 809604, Note_on_c, 0, 78, 107
1, 810068, Note_off_c, 0, 78, 107
1, 810177, Note_on_c, 0, 77, 82
1, 810504, Note_off_c, 0, 77, 82
1, 810558, Note_on_c, 0, 78, 109
1, 810912, Note_off_c, 0, 78, 109
1, 811103, Note_on_c, 0, 79, 116
1, 811703, Note_off_c, 0, 79, 116
1, 811784, Note_on_c, 0, 81, 109
1, 812193, Note_off_c, 0, 81, 109
1, 812438, Note_on_c, 0, 82, 111
1, 813366, Note_off_c, 0, 82, 111
1, 815414, Note_on_c, 0, 70, 113
1, 815905, Note_off_c, 0, 70, 113
1, 816123, Note_on_c, 0, 67, 115
1, 816532, Note_off_c, 0, 67, 115
1, 816668, Note_on_c, 0, 65, 120
1, 817296, Note_off_c, 0, 65, 120
1, 817350, Note_on_c, 0, 62, 108
1, 817786, Note_off_c, 0, 62, 108
1, 817840, Note_on_c, 0, 67, 120
1, 818659, Note_off_c, 0, 67, 120
1, 819723, Note_on_c, 0, 67, 116
1, 820487, Note_off_c, 0, 67, 116
1, 820978, Note_on_c, 0, 67, 123
1, 821551, Note_off_c, 0, 67, 123
1, 822288, Note_on_c, 0, 67, 123
1, 823025, Note_off_c, 0, 67, 123
1, 823352, Note_on_c, 0, 67, 110
1, 823788, Note_off_c, 0, 67, 110
1, 824088, Note_on_c, 0, 67, 122
1, 825043, Note_off_c, 0, 67, 122
1, 825525, Note_on_c, 0, 67, 124
1, 826120, Note_off_c, 0, 67, 124
1, 826465, Note_on_c, 0, 67, 117
1, 826945, Note_off_c, 0, 67, 117
1, 827060, Note_on_c, 0, 67, 118
1, 827636, Note_off_c, 0, 67, 118
1, 827866, Note_on_c, 0, 67, 121
1, 828480, Note_off_c, 0, 67, 121
1, 828863, Note_on_c, 0, 67, 103
1, 829419, Note_off_c, 0, 67, 103
1, 829860, Note_on_c, 0, 70, 111
1, 830935, Note_off_c, 0, 70, 111
1, 831088, Note_on_c, 0, 72, 123
1, 833488, Note_off_c, 0, 72, 123
1, 835465, Note_on_c, 0, 67, 116
1, 836041, Note_off_c, 0, 67, 116
1, 836309, Note_on_c, 0, 67, 120
1, 837038, Note_off_c, 0, 67, 120
1, 837229, Note_on_c, 0, 67, 115
1, 837785, Note_off_c, 0, 67, 115
1, 838188, Note_on_c, 0, 69, 119
1, 838917, Note_off_c, 0, 69, 119
1, 839012, Note_on_c, 0, 70, 120
1, 839607, Note_off_c, 0, 70, 120
1, 839607, Note_on_c, 0, 72, 117
1, 840125, Note_off_c, 0, 72, 117
1, 840240, Note_on_c, 0, 70, 120
1, 840681, Note_off_c, 0, 70, 120
1, 840892, Note_on_c, 0, 72, 119
1, 841333, Note_off_c, 0, 72, 119
1, 841371, Note_on_c, 0, 70, 117
1, 841658, Note_off_c, 0, 70, 117
1, 841734, Note_on_c, 0, 69, 117
1, 842079, Note_off_c, 0, 69, 117
1, 842136, Note_on_c, 0, 70, 118
1, 842481, Note_off_c, 0, 70, 118
1, 842615, Note_on_c, 0, 72, 114
1, 843114, Note_off_c, 0, 72, 114
1, 843114, Note_on_c, 0, 70, 117
1, 843382, Note_off_c, 0, 70, 117
1, 843458, Note_on_c, 0, 69, 117
1, 843726, Note_off_c, 0, 69, 117
1, 843764, Note_on_c, 0, 70, 116
1, 844032, Note_off_c, 0, 70, 116
1, 844089, Note_on_c, 0, 72, 116
1, 844837, Note_off_c, 0, 72, 116
1, 844894, Note_on_c, 0, 70, 116
1, 845258, Note_off_c, 0, 70, 116
1, 845315, Note_on_c, 0, 69, 117
1, 845603, Note_off_c, 0, 69, 117
1, 845622, Note_on_c, 0, 70, 21
1, 845871, Note_off_c, 0, 70, 21
1, 845986, Note_on_c, 0, 72, 113
1, 846427, Note_off_c, 0, 72, 113
1, 846638, Note_on_c, 0, 70, 99
1, 847079, Note_off_c, 0, 70, 99
1, 847290, Note_on_c, 0, 67, 107
1, 848173, Note_off_c, 0, 67, 107
1, 851456, Note_on_c, 0, 67, 116
1, 851743, Note_off_c, 0, 67, 116
1, 851762, Note_on_c, 0, 68, 118
1, 852011, Note_off_c, 0, 68, 118
1, 852049, Note_on_c, 0, 70, 119
1, 852413, Note_off_c, 0, 70, 119
1, 852451, Note_on_c, 0, 69, 116
1, 852835, Note_off_c, 0, 69, 116
1, 852873, Note_on_c, 0, 72, 121
1, 853276, Note_off_c, 0, 72, 121
1, 853295, Note_on_c, 0, 69, 111
1, 853467, Note_off_c, 0, 69, 111
1, 853563, Note_on_c, 0, 70, 117
1, 853870, Note_off_c, 0, 70, 117
1, 853908, Note_on_c, 0, 72, 114
1, 854445, Note_off_c, 0, 72, 114
1, 854637, Note_on_c, 0, 70, 108
1, 854944, Note_off_c, 0, 70, 108
1, 855040, Note_on_c, 0, 67, 114
1, 855308, Note_on_c, 0, 68, 108
1, 855308, Note_off_c, 0, 67, 114
1, 855499, Note_off_c, 0, 68, 108
1, 855518, Note_on_c, 0, 69, 112
1, 855729, Note_off_c, 0, 69, 112
1, 855844, Note_on_c, 0, 68, 107
1, 856132, Note_off_c, 0, 68, 107
1, 856247, Note_on_c, 0, 67, 111
1, 856650, Note_off_c, 0, 67, 111
1, 856745, Note_on_c, 0, 65, 112
1, 857033, Note_off_c, 0, 65, 112
1, 857071, Note_on_c, 0, 66, 112
1, 857378, Note_off_c, 0, 66, 112
1, 857416, Note_on_c, 0, 70, 108
1, 857723, Note_off_c, 0, 70, 108
1, 857761, Note_on_c, 0, 72, 115
1, 857933, Note_off_c, 0, 72, 115
1, 858029, Note_on_c, 0, 73, 113
1, 858297, Note_off_c, 0, 73, 113
1, 858354, Note_on_c, 0, 69, 112
1, 858565, Note_off_c, 0, 69, 112
1, 858622, Note_on_c, 0, 70, 116
1, 858910, Note_off_c, 0, 70, 116
1, 858910, Note_on_c, 0, 69, 112
1, 859102, Note_on_c, 0, 67, 112
1, 859102, Note_off_c, 0, 69, 112
1, 859389, Note_off_c, 0, 67, 112
1, 859427, Note_on_c, 0, 66, 114
1, 859715, Note_off_c, 0, 66, 114
1, 859830, Note_on_c, 0, 65, 116
1, 860002, Note_off_c, 0, 65, 116
1, 860021, Note_on_c, 0, 67, 113
1, 860251, Note_off_c, 0, 67, 113
1, 860385, Note_on_c, 0, 69, 113
1, 860653, Note_off_c, 0, 69, 113
1, 860710, Note_on_c, 0, 71, 116
1, 860902, Note_off_c, 0, 71, 116
1, 860921, Note_on_c, 0, 73, 114
1, 861074, Note_off_c, 0, 73, 114
1, 861189, Note_on_c, 0, 74, 106
1, 861726, Note_off_c, 0, 74, 106
1, 861841, Note_on_c, 0, 70, 104
1, 862167, Note_off_c, 0, 70, 104
1, 862493, Note_on_c, 0, 72, 122
1, 862953, Note_off_c, 0, 72, 122
1, 862953, Note_on_c, 0, 73, 109
1, 863298, Note_off_c, 0, 73, 109
1, 863432, Note_on_c, 0, 72, 104
1, 863624, Note_off_c, 0, 72, 104
1, 863739, Note_on_c, 0, 73, 105
1, 864027, Note_off_c, 0, 73, 105
1, 864180, Note_on_c, 0, 70, 102
1, 864410, Note_off_c, 0, 70, 102
1, 864544, Note_on_c, 0, 67, 112
1, 864947, Note_off_c, 0, 67, 112
1, 865081, Note_on_c, 0, 70, 108
1, 865311, Note_off_c, 0, 70, 108
1, 865330, Note_on_c, 0, 72, 117
1, 865464, Note_off_c, 0, 72, 117
1, 865560, Note_on_c, 0, 70, 117
1, 865982, Note_off_c, 0, 70, 117
1, 866058, Note_on_c, 0, 73, 116
1, 866365, Note_off_c, 0, 73, 116
1, 866365, Note_on_c, 0, 74, 104
1, 867036, Note_off_c, 0, 74, 104
1, 867170, Note_on_c, 0, 73, 106
1, 867534, Note_off_c, 0, 73, 106
1, 867630, Note_on_c, 0, 70, 100
1, 867822, Note_off_c, 0, 70, 100
1, 867860, Note_on_c, 0, 67, 108
1, 867975, Note_off_c, 0, 67, 108
1, 867975, Note_on_c, 0, 74, 105
1, 868109, Note_off_c, 0, 74, 105
1, 868204, Note_on_c, 0, 77, 113
1, 868511, Note_off_c, 0, 77, 113
1, 868664, Note_on_c, 0, 78, 107
1, 869124, Note_off_c, 0, 78, 107
1, 869258, Note_on_c, 0, 77, 108
1, 869430, Note_off_c, 0, 77, 108
1, 869564, Note_on_c, 0, 78, 101
1, 869928, Note_off_c, 0, 78, 101
1, 870004, Note_on_c, 0, 75, 103
1, 870176, Note_off_c, 0, 75, 103
1, 870214, Note_on_c, 0, 72, 101
1, 870386, Note_off_c, 0, 72, 101
1, 870520, Note_on_c, 0, 69, 97
1, 870673, Note_off_c, 0, 69, 97
1, 870730, Note_on_c, 0, 66, 97
1, 870883, Note_off_c, 0, 66, 97
1, 870940, Note_on_c, 0, 65, 103
1, 871132, Note_off_c, 0, 65, 103
1, 871247, Note_on_c, 0, 62, 116
1, 871419, Note_off_c, 0, 62, 116
1, 871457, Note_on_c, 0, 60, 115
1, 871687, Note_off_c, 0, 60, 115
1, 871725, Note_on_c, 0, 58, 120
1, 872205, Note_off_c, 0, 58, 120
1, 872281, Note_on_c, 0, 57, 118
1, 873625, Note_off_c, 0, 57, 118
1, 876581, Note_on_c, 0, 81, 107
1, 878289, Note_off_c, 0, 81, 107
1, 878346, Note_on_c, 0, 79, 121
1, 879152, Note_off_c, 0, 79, 121
1, 879286, Note_on_c, 0, 58, 110
1, 879823, Note_off_c, 0, 58, 110
1, 880111, Note_on_c, 0, 62, 120
1, 880782, Note_off_c, 0, 62, 120
1, 881319, Note_on_c, 0, 67, 118
1, 882010, Note_off_c, 0, 67, 118
1, 882720, Note_on_c, 0, 62, 105
1, 883142, Note_off_c, 0, 62, 105
1, 883487, Note_on_c, 0, 72, 109
1, 884485, Note_off_c, 0, 72, 109
1, 884504, Note_on_c, 0, 70, 110
1, 885617, Note_off_c, 0, 70, 110
1, 885828, Note_on_c, 0, 67, 115
1, 887536, Note_off_c, 0, 67, 115
1, 887593, Note_on_c, 0, 62, 123
1, 888418, Note_off_c, 0, 62, 123
1, 891547, Note_on_c, 0, 55, 112
1, 891911, Note_off_c, 0, 55, 112
1, 892045, Note_on_c, 0, 58, 108
1, 892429, Note_off_c, 0, 58, 108
1, 892621, Note_on_c, 0, 60, 115
1, 893177, Note_off_c, 0, 60, 115
1, 893388, Note_on_c, 0, 62, 126
1, 894098, Note_off_c, 0, 62, 126
1, 894462, Note_on_c, 0, 62, 126
1, 895038, Note_off_c, 0, 62, 126
1, 895306, Note_on_c, 0, 67, 121
1, 895958, Note_off_c, 0, 67, 121
1, 896591, Note_on_c, 0, 72, 108
1, 897147, Note_off_c, 0, 72, 108
1, 897588, Note_on_c, 0, 67, 118
1, 898164, Note_off_c, 0, 67, 118
1, 898375, Note_on_c, 0, 72, 109
1, 899392, Note_off_c, 0, 72, 109
1, 899545, Note_on_c, 0, 70, 111
1, 900677, Note_off_c, 0, 70, 111
1, 900926, Note_on_c, 0, 67, 117
1, 902884, Note_off_c, 0, 67, 117
1, 905149, Note_on_c, 0, 67, 112
1, 905686, Note_off_c, 0, 67, 112
1, 905935, Note_on_c, 0, 74, 105
1, 906799, Note_off_c, 0, 74, 105
1, 906856, Note_on_c, 0, 72, 100
1, 907374, Note_off_c, 0, 72, 100
1, 907431, Note_on_c, 0, 70, 112
1, 908064, Note_off_c, 0, 70, 112
1, 908524, Note_on_c, 0, 72, 103
1, 909810, Note_off_c, 0, 72, 103
1, 911461, Note_on_c, 0, 67, 114
1, 911960, Note_off_c, 0, 67, 114
1, 912344, Note_on_c, 0, 67, 119
1, 912881, Note_off_c, 0, 67, 119
1, 913265, Note_on_c, 0, 72, 106
1, 914609, Note_off_c, 0, 72, 106
1, 915165, Note_on_c, 0, 70, 105
1, 915856, Note_off_c, 0, 70, 105
1, 916259, Note_on_c, 0, 67, 112
1, 917622, Note_off_c, 0, 67, 112
1, 917737, Note_on_c, 0, 62, 120
1, 919637, Note_off_c, 0, 62, 120
1, 921249, Note_on_c, 0, 62, 126
1, 921805, Note_off_c, 0, 62, 126
1, 921939, Note_on_c, 0, 69, 110
1, 922515, Note_off_c, 0, 69, 110
1, 922610, Note_on_c, 0, 65, 113
1, 923109, Note_off_c, 0, 65, 113
1, 923320, Note_on_c, 0, 67, 119
1, 923857, Note_off_c, 0, 67, 119
1, 924394, Note_on_c, 0, 67, 117
1, 925027, Note_off_c, 0, 67, 117
1, 925180, Note_on_c, 0, 65, 117
1, 925736, Note_off_c, 0, 65, 117
1, 926120, Note_on_c, 0, 65, 117
1, 926830, Note_off_c, 0, 65, 117
1, 927022, Note_on_c, 0, 62, 124
1, 927713, Note_off_c, 0, 62, 124
1, 928212, Note_on_c, 0, 62, 124
1, 928826, Note_off_c, 0, 62, 124
1, 928960, Note_on_c, 0, 60, 114
1, 929612, Note_off_c, 0, 60, 114
1, 929938, Note_on_c, 0, 60, 105
1, 930514, Note_off_c, 0, 60, 105
1, 930859, Note_on_c, 0, 58, 105
1, 931435, Note_off_c, 0, 58, 105
1, 931819, Note_on_c, 0, 58, 102
1, 932433, Note_off_c, 0, 58, 102
1, 932605, Note_on_c, 0, 55, 109
1, 934102, Note_off_c, 0, 55, 109
1, 934102, End_track
0, 0, End_of_file
