0, 0, Header, 1, 1, 192
1, 0, Start_track
1, 0, Title_t, "Melody"
1, 0, Tempo, 652173
1, 0, Key_signature, 6, "major"
1, 0, Time_signature, 4, 2, 24, 8
1, 201, Note_on_c, 0, 50, 93
1, 426, Note_off_c, 0, 50, 93
1, 456, Note_on_c, 0, 52, 103
1, 498, Note_off_c, 0, 52, 103
1, 498, Note_on_c, 0, 54, 103
1, 580, Note_off_c, 0, 54, 103
1, 591, Note_on_c, 0, 57, 103
1, 710, Note_on_c, 0, 64, 103
1, 710, Note_off_c, 0, 57, 103
1, 964, Note_off_c, 0, 64, 103
1, 964, Note_on_c, 0, 62, 112
1, 1071, Note_off_c, 0, 62, 112
1, 1091, Note_on_c, 0, 66, 120
1, 1157, Note_off_c, 0, 66, 120
1, 1157, Note_on_c, 0, 69, 99
1, 1283, Note_off_c, 0, 69, 99
1, 1288, Note_on_c, 0, 67, 115
1, 1346, Note_off_c, 0, 67, 115
1, 1359, Note_on_c, 0, 65, 119
1, 1413, Note_off_c, 0, 65, 119
1, 1413, Note_on_c, 0, 66, 115
1, 1454, Note_off_c, 0, 66, 115
1, 1464, Note_on_c, 0, 62, 108
1, 1757, Note_off_c, 0, 62, 108
1, 1757, Note_on_c, 0, 57, 95
1, 1926, Note_off_c, 0, 57, 95
1, 2002, Note_on_c, 0, 62, 125
1, 2058, Note_off_c, 0, 62, 125
1, 2066, Note_on_c, 0, 64, 110
1, 2074, Note_off_c, 0, 64, 110
1, 2074, Note_on_c, 0, 66, 115
1, 2140, Note_off_c, 0, 66, 115
1, 2141, Note_on_c, 0, 66, 115
1, 2193, Note_off_c, 0, 66, 115
1, 2193, Note_on_c, 0, 64, 109
1, 2427, Note_off_c, 0, 64, 109
1, 2427, Note_on_c, 0, 61, 114
1, 2471, Note_off_c, 0, 61, 114
1, 2472, Note_on_c, 0, 64, 115
1, 2516, Note_off_c, 0, 64, 115
1, 2516, Note_on_c, 0, 62, 112
1, 2543, Note_off_c, 0, 62, 112
1, 2548, Note_on_c, 0, 60, 97
1, 2583, Note_off_c, 0, 60, 97
1, 2583, Note_on_c, 0, 59, 100
1, 2622, Note_off_c, 0, 59, 100
1, 2623, Note_on_c, 0, 57, 95
1, 2975, Note_off_c, 0, 57, 95
1, 3034, Note_on_c, 0, 72, 107
1, 3086, Note_off_c, 0, 72, 107
1, 3086, Note_on_c, 0, 74, 97
1, 3128, Note_off_c, 0, 74, 97
1, 3133, Note_on_c, 0, 74, 105
1, 3175, Note_off_c, 0, 74, 105
1, 3175, Note_on_c, 0, 69, 102
1, 3233, Note_off_c, 0, 69, 102
1, 3238, Note_on_c, 0, 69, 103
1, 3279, Note_off_c, 0, 69, 103
1, 3279, Note_on_c, 0, 72, 107
1, 3328, Note_off_c, 0, 72, 107
1, 3331, Note_on_c, 0, 72, 104
1, 3378, Note_off_c, 0, 72, 104
1, 3379, Note_on_c, 0, 71, 102
1, 3406, Note_off_c, 0, 71, 102
1, 3406, Note_on_c, 0, 67, 122
1, 3429, Note_off_c, 0, 67, 122
1, 3429, Note_on_c, 0, 69, 110
1, 3451, Note_on_c, 0, 71, 106
1, 3451, Note_off_c, 0, 69, 110
1, 3469, Note_off_c, 0, 71, 106
1, 3477, Note_on_c, 0, 69, 100
1, 3494, Note_off_c, 0, 69, 100
1, 3494, Note_on_c, 0, 67, 123
1, 3521, Note_off_c, 0, 67, 123
1, 3521, Note_on_c, 0, 65, 123
1, 3544, Note_off_c, 0, 65, 123
1, 3547, Note_on_c, 0, 64, 116
1, 3574, Note_off_c, 0, 64, 116
1, 3577, Note_on_c, 0, 63, 114
1, 3604, Note_off_c, 0, 63, 114
1, 3604, Note_on_c, 0, 59, 107
1, 3626, Note_off_c, 0, 59, 107
1, 3626, Note_on_c, 0, 55, 96
1, 3677, Note_off_c, 0, 55, 96
1, 3690, Note_on_c, 0, 57, 104
1, 3717, Note_off_c, 0, 57, 104
1, 3718, Note_on_c, 0, 59, 101
1, 3741, Note_off_c, 0, 59, 101
1, 3742, Note_on_c, 0, 63, 115
1, 3789, Note_off_c, 0, 63, 115
1, 3823, Note_on_c, 0, 69, 105
1, 3870, Note_off_c, 0, 69, 105
1, 3870, Note_on_c, 0, 67, 118
1, 3902, Note_off_c, 0, 67, 118
1, 3902, Note_on_c, 0, 64, 115
1, 3953, Note_off_c, 0, 64, 115
1, 3958, Note_on_c, 0, 60, 102
1, 4005, Note_off_c, 0, 60, 102
1, 4008, Note_on_c, 0, 59, 100
1, 4050, Note_off_c, 0, 59, 100
1, 4050, Note_on_c, 0, 57, 100
1, 4226, Note_off_c, 0, 57, 100
1, 4226, Note_on_c, 0, 55, 108
1, 4268, Note_on_c, 0, 52, 101
1, 4268, Note_off_c, 0, 55, 108
1, 4298, Note_off_c, 0, 52, 101
1, 4298, Note_on_c, 0, 55, 104
1, 4342, Note_off_c, 0, 55, 104
1, 4352, Note_on_c, 0, 52, 101
1, 4375, Note_off_c, 0, 52, 101
1, 4383, Note_on_c, 0, 51, 104
1, 4482, Note_off_c, 0, 51, 104
1, 4500, Note_on_c, 0, 54, 109
1, 4549, Note_off_c, 0, 54, 109
1, 4549, Note_on_c, 0, 57, 107
1, 4583, Note_off_c, 0, 57, 107
1, 4588, Note_on_c, 0, 59, 97
1, 4656, Note_off_c, 0, 59, 97
1, 4657, Note_on_c, 0, 57, 91
1, 4687, Note_off_c, 0, 57, 91
1, 4692, Note_on_c, 0, 56, 97
1, 4724, Note_off_c, 0, 56, 97
1, 4724, Note_on_c, 0, 53, 101
1, 4893, Note_off_c, 0, 53, 101
1, 4978, Note_on_c, 0, 69, 96
1, 5027, Note_off_c, 0, 69, 96
1, 5027, Note_on_c, 0, 72, 106
1, 5098, Note_off_c, 0, 72, 106
1, 5103, Note_on_c, 0, 71, 108
1, 5190, Note_off_c, 0, 71, 108
1, 5190, Note_on_c, 0, 72, 107
1, 5217, Note_off_c, 0, 72, 107
1, 5217, Note_on_c, 0, 71, 91
1, 5239, Note_off_c, 0, 71, 91
1, 5239, Note_on_c, 0, 69, 105
1, 5276, Note_off_c, 0, 69, 105
1, 5286, Note_on_c, 0, 67, 116
1, 5470, Note_off_c, 0, 67, 116
1, 5478, Note_on_c, 0, 64, 113
1, 5570, Note_off_c, 0, 64, 113
1, 5576, Note_on_c, 0, 58, 92
1, 5617, Note_off_c, 0, 58, 92
1, 5623, Note_on_c, 0, 64, 116
1, 5687, Note_off_c, 0, 64, 116
1, 5687, Note_on_c, 0, 63, 106
1, 5864, Note_off_c, 0, 63, 106
1, 5864, Note_on_c, 0, 62, 110
1, 5973, Note_off_c, 0, 62, 110
1, 6012, Note_on_c, 0, 70, 95
1, 6275, Note_off_c, 0, 70, 95
1, 6348, Note_on_c, 0, 63, 126
1, 6392, Note_off_c, 0, 63, 126
1, 6397, Note_on_c, 0, 64, 120
1, 6446, Note_off_c, 0, 64, 120
1, 6446, Note_on_c, 0, 65, 124
1, 6492, Note_off_c, 0, 65, 124
1, 6492, Note_on_c, 0, 68, 111
1, 6539, Note_off_c, 0, 68, 111
1, 6540, Note_on_c, 0, 65, 118
1, 6611, Note_off_c, 0, 65, 118
1, 6616, Note_on_c, 0, 63, 118
1, 6691, Note_off_c, 0, 63, 118
1, 6691, Note_on_c, 0, 64, 112
1, 6711, Note_off_c, 0, 64, 112
1, 6716, Note_on_c, 0, 65, 127
1, 6779, Note_off_c, 0, 65, 127
1, 6782, Note_on_c, 0, 68, 114
1, 6821, Note_off_c, 0, 68, 114
1, 6821, Note_on_c, 0, 65, 116
1, 6908, Note_off_c, 0, 65, 116
1, 6909, Note_on_c, 0, 63, 115
1, 6958, Note_off_c, 0, 63, 115
1, 6963, Note_on_c, 0, 64, 117
1, 7012, Note_off_c, 0, 64, 117
1, 7012, Note_on_c, 0, 65, 119
1, 7056, Note_off_c, 0, 65, 119
1, 7059, Note_on_c, 0, 68, 104
1, 7101, Note_on_c, 0, 65, 117
1, 7101, Note_off_c, 0, 68, 104
1, 7143, Note_off_c, 0, 65, 117
1, 7156, Note_on_c, 0, 63, 107
1, 7197, Note_off_c, 0, 63, 107
1, 7203, Note_on_c, 0, 58, 91
1, 7512, Note_off_c, 0, 58, 91
1, 7578, Note_on_c, 0, 65, 118
1, 7607, Note_off_c, 0, 65, 118
1, 7607, Note_on_c, 0, 68, 103
1, 7682, Note_off_c, 0, 68, 103
1, 7683, Note_on_c, 0, 65, 120
1, 7737, Note_off_c, 0, 65, 120
1, 7743, Note_on_c, 0, 63, 110
1, 8001, Note_off_c, 0, 63, 110
1, 8007, Note_on_c, 0, 61, 115
1, 8058, Note_off_c, 0, 61, 115
1, 8064, Note_on_c, 0, 65, 114
1, 8116, Note_off_c, 0, 65, 114
1, 8119, Note_on_c, 0, 60, 101
1, 8178, Note_off_c, 0, 60, 101
1, 8179, Note_on_c, 0, 58, 103
1, 8209, Note_off_c, 0, 58, 103
1, 8219, Note_on_c, 0, 59, 105
1, 8271, Note_off_c, 0, 59, 105
1, 8288, Note_on_c, 0, 59, 100
1, 8340, Note_off_c, 0, 59, 100
1, 8363, Note_on_c, 0, 59, 105
1, 8419, Note_off_c, 0, 59, 105
1, 8419, Note_on_c, 0, 59, 103
1, 8471, Note_off_c, 0, 59, 103
1, 8494, Note_on_c, 0, 58, 95
1, 8651, Note_off_c, 0, 58, 95
1, 8731, Note_on_c, 0, 56, 115
1, 8773, Note_off_c, 0, 56, 115
1, 8784, Note_on_c, 0, 61, 123
1, 8818, Note_off_c, 0, 61, 123
1, 8818, Note_on_c, 0, 65, 114
1, 8869, Note_off_c, 0, 65, 114
1, 8889, Note_on_c, 0, 60, 99
1, 9082, Note_off_c, 0, 60, 99
1, 9083, Note_on_c, 0, 59, 100
1, 9141, Note_off_c, 0, 59, 100
1, 9149, Note_on_c, 0, 58, 98
1, 9203, Note_off_c, 0, 58, 98
1, 9209, Note_on_c, 0, 54, 107
1, 9490, Note_off_c, 0, 54, 107
1, 9563, Note_on_c, 0, 59, 107
1, 9590, Note_off_c, 0, 59, 107
1, 9590, Note_on_c, 0, 61, 116
1, 9789, Note_off_c, 0, 61, 116
1, 9799, Note_on_c, 0, 61, 111
1, 9846, Note_off_c, 0, 61, 111
1, 9859, Note_on_c, 0, 58, 102
1, 9903, Note_off_c, 0, 58, 102
1, 9911, Note_on_c, 0, 54, 105
1, 9953, Note_off_c, 0, 54, 105
1, 9973, Note_on_c, 0, 51, 101
1, 10027, Note_off_c, 0, 51, 101
1, 10042, Note_on_c, 0, 52, 104
1, 10076, Note_off_c, 0, 52, 104
1, 10079, Note_on_c, 0, 53, 103
1, 10340, Note_off_c, 0, 53, 103
1, 10340, Note_on_c, 0, 52, 95
1, 10394, Note_off_c, 0, 52, 95
1, 10404, Note_on_c, 0, 51, 103
1, 10615, Note_off_c, 0, 51, 103
1, 10615, End_track
0, 0, End_of_file
