0, 0, Header, 1, 1, 2520
1, 0, Start_track
1, 0, Title_t, "Melody"
1, 0, Tempo, 731707
1, 0, Key_signature, 6, "major"
1, 0, Time_signature, 4, 2, 24, 8
1, 45517, Note_on_c, 0, 50, 123
1, 46388, Note_off_c, 0, 50, 123
1, 46416, Note_on_c, 0, 52, 111
1, 48102, Note_off_c, 0, 52, 111
1, 48214, Note_on_c, 0, 50, 99
1, 49085, Note_off_c, 0, 50, 99
1, 49197, Note_on_c, 0, 52, 100
1, 50996, Note_off_c, 0, 52, 100
1, 51108, Note_on_c, 0, 53, 102
1, 51951, Note_off_c, 0, 53, 102
1, 52063, Note_on_c, 0, 55, 102
1, 53749, Note_off_c, 0, 55, 102
1, 53861, Note_on_c, 0, 57, 96
1, 54760, Note_off_c, 0, 57, 96
1, 54872, Note_on_c, 0, 52, 92
1, 57767, Note_off_c, 0, 52, 92
1, 57879, Note_on_c, 0, 55, 102
1, 58638, Note_off_c, 0, 55, 102
1, 58694, Note_on_c, 0, 57, 102
1, 59284, Note_off_c, 0, 57, 102
1, 59340, Note_on_c, 0, 59, 98
1, 60127, Note_off_c, 0, 59, 98
1, 60155, Note_on_c, 0, 51, 99
1, 64428, Note_off_c, 0, 51, 99
1, 66705, Note_on_c, 0, 55, 114
1, 69066, Note_off_c, 0, 55, 114
1, 69178, Note_on_c, 0, 57, 101
1, 69824, Note_off_c, 0, 57, 101
1, 69852, Note_on_c, 0, 59, 102
1, 70582, Note_off_c, 0, 59, 102
1, 70610, Note_on_c, 0, 62, 119
1, 74489, Note_off_c, 0, 62, 119
1, 74489, Note_on_c, 0, 60, 104
1, 75388, Note_off_c, 0, 60, 104
1, 75444, Note_on_c, 0, 59, 96
1, 77693, Note_off_c, 0, 59, 96
1, 77805, Note_on_c, 0, 60, 107
1, 78648, Note_on_c, 0, 64, 123
1, 78648, Note_off_c, 0, 60, 107
1, 79294, Note_off_c, 0, 64, 123
1, 79378, Note_on_c, 0, 67, 109
1, 80165, Note_off_c, 0, 67, 109
1, 80446, Note_on_c, 0, 71, 95
1, 84297, Note_off_c, 0, 71, 95
1, 84340, Note_on_c, 0, 70, 109
1, 84889, Note_off_c, 0, 70, 109
1, 84974, Note_on_c, 0, 69, 90
1, 85371, Note_off_c, 0, 69, 90
1, 85434, Note_on_c, 0, 68, 95
1, 85641, Note_off_c, 0, 68, 95
1, 85739, Note_on_c, 0, 66, 113
1, 85963, Note_off_c, 0, 66, 113
1, 86086, Note_on_c, 0, 65, 107
1, 90696, Note_off_c, 0, 65, 107
1, 92474, Note_on_c, 0, 69, 104
1, 93401, Note_off_c, 0, 69, 104
1, 93421, Note_on_c, 0, 71, 103
1, 93675, Note_off_c, 0, 71, 103
1, 93704, Note_on_c, 0, 72, 100
1, 95028, Note_off_c, 0, 72, 100
1, 95097, Note_on_c, 0, 71, 96
1, 95746, Note_off_c, 0, 71, 96
1, 95845, Note_on_c, 0, 69, 99
1, 96112, Note_off_c, 0, 69, 99
1, 96147, Note_on_c, 0, 68, 101
1, 96400, Note_off_c, 0, 68, 101
1, 96438, Note_on_c, 0, 67, 109
1, 96610, Note_off_c, 0, 67, 109
1, 96680, Note_on_c, 0, 66, 115
1, 96866, Note_off_c, 0, 66, 115
1, 96932, Note_on_c, 0, 65, 121
1, 97521, Note_off_c, 0, 65, 121
1, 97549, Note_on_c, 0, 64, 116
1, 99158, Note_off_c, 0, 64, 116
1, 99189, Note_on_c, 0, 62, 119
1, 99508, Note_off_c, 0, 62, 119
1, 99567, Note_on_c, 0, 59, 102
1, 99950, Note_off_c, 0, 59, 102
1, 100139, Note_on_c, 0, 53, 114
1, 100616, Note_off_c, 0, 53, 114
1, 100658, Note_on_c, 0, 54, 109
1, 101051, Note_off_c, 0, 54, 109
1, 101145, Note_on_c, 0, 57, 110
1, 101651, Note_off_c, 0, 57, 110
1, 101702, Note_on_c, 0, 56, 109
1, 102179, Note_off_c, 0, 56, 109
1, 102308, Note_on_c, 0, 59, 107
1, 102715, Note_off_c, 0, 59, 107
1, 102836, Note_on_c, 0, 62, 122
1, 103342, Note_off_c, 0, 62, 122
1, 103517, Note_on_c, 0, 66, 87
1, 103671, Note_off_c, 0, 66, 87
1, 103730, Note_on_c, 0, 65, 119
1, 104062, Note_off_c, 0, 65, 119
1, 104124, Note_on_c, 0, 64, 117
1, 104641, Note_off_c, 0, 64, 117
1, 104705, Note_on_c, 0, 62, 116
1, 105044, Note_off_c, 0, 62, 116
1, 105088, Note_on_c, 0, 60, 109
1, 105512, Note_off_c, 0, 60, 109
1, 105604, Note_on_c, 0, 57, 99
1, 105961, Note_off_c, 0, 57, 99
1, 106038, Note_on_c, 0, 54, 110
1, 106390, Note_off_c, 0, 54, 110
1, 106422, Note_on_c, 0, 53, 109
1, 106699, Note_off_c, 0, 53, 109
1, 106758, Note_on_c, 0, 52, 102
1, 107187, Note_off_c, 0, 52, 102
1, 107286, Note_on_c, 0, 64, 103
1, 111164, Note_off_c, 0, 64, 103
1, 111164, Note_on_c, 0, 62, 110
1, 113773, Note_off_c, 0, 62, 110
1, 115482, Note_on_c, 0, 60, 110
1, 116230, Note_off_c, 0, 60, 110
1, 116300, Note_on_c, 0, 59, 110
1, 117108, Note_off_c, 0, 59, 110
1, 117160, Note_on_c, 0, 58, 114
1, 117838, Note_off_c, 0, 58, 114
1, 117901, Note_on_c, 0, 57, 108
1, 118596, Note_off_c, 0, 57, 108
1, 118638, Note_on_c, 0, 55, 114
1, 119600, Note_off_c, 0, 55, 114
1, 119656, Note_on_c, 0, 54, 119
1, 120665, Note_off_c, 0, 54, 119
1, 120674, Note_on_c, 0, 53, 110
1, 121523, Note_off_c, 0, 53, 110
1, 121572, Note_on_c, 0, 53, 102
1, 123921, Note_off_c, 0, 53, 102
1, 124070, Note_on_c, 0, 52, 95
1, 127428, Note_off_c, 0, 52, 95
1, 129257, Note_on_c, 0, 50, 107
1, 130206, Note_off_c, 0, 50, 107
1, 130235, Note_on_c, 0, 52, 113
1, 130824, Note_off_c, 0, 52, 113
1, 130873, Note_on_c, 0, 50, 97
1, 131542, Note_off_c, 0, 50, 97
1, 131542, Note_on_c, 0, 52, 99
1, 134161, Note_off_c, 0, 52, 99
1, 134170, Note_on_c, 0, 50, 107
1, 135159, Note_off_c, 0, 50, 107
1, 135181, Note_on_c, 0, 52, 108
1, 135781, Note_off_c, 0, 52, 108
1, 135837, Note_on_c, 0, 50, 107
1, 136716, Note_off_c, 0, 50, 107
1, 136745, Note_on_c, 0, 51, 108
1, 140043, Note_off_c, 0, 51, 108
1, 140160, Note_on_c, 0, 53, 112
1, 140715, Note_off_c, 0, 53, 112
1, 140792, Note_on_c, 0, 55, 107
1, 141210, Note_off_c, 0, 55, 107
1, 141236, Note_on_c, 0, 57, 101
1, 141740, Note_off_c, 0, 57, 101
1, 141789, Note_on_c, 0, 59, 105
1, 142368, Note_off_c, 0, 59, 105
1, 142397, Note_on_c, 0, 63, 115
1, 143061, Note_off_c, 0, 63, 115
1, 143155, Note_on_c, 0, 69, 90
1, 145534, Note_off_c, 0, 69, 90
1, 145566, Note_on_c, 0, 67, 108
1, 145835, Note_off_c, 0, 67, 108
1, 145854, Note_on_c, 0, 69, 92
1, 145991, Note_off_c, 0, 69, 92
1, 146023, Note_on_c, 0, 67, 109
1, 146347, Note_off_c, 0, 67, 109
1, 146389, Note_on_c, 0, 64, 115
1, 146768, Note_off_c, 0, 64, 115
1, 146821, Note_on_c, 0, 59, 98
1, 147439, Note_off_c, 0, 59, 98
1, 147476, Note_on_c, 0, 57, 89
1, 151474, Note_off_c, 0, 57, 89
1, 153743, Note_on_c, 0, 55, 114
1, 155622, Note_off_c, 0, 55, 114
1, 155639, Note_on_c, 0, 57, 106
1, 156116, Note_off_c, 0, 57, 106
1, 156224, Note_on_c, 0, 59, 106
1, 156782, Note_off_c, 0, 59, 106
1, 156897, Note_on_c, 0, 62, 118
1, 159875, Note_off_c, 0, 62, 118
1, 159875, Note_on_c, 0, 60, 97
1, 162523, Note_off_c, 0, 60, 97
1, 162523, Note_on_c, 0, 59, 96
1, 164602, Note_off_c, 0, 59, 96
1, 164801, Note_on_c, 0, 58, 99
1, 165880, Note_off_c, 0, 58, 99
1, 165929, Note_on_c, 0, 57, 91
1, 169307, Note_off_c, 0, 57, 91
1, 170481, Note_on_c, 0, 60, 115
1, 171090, Note_off_c, 0, 60, 115
1, 171204, Note_on_c, 0, 57, 98
1, 171663, Note_off_c, 0, 57, 98
1, 171682, Note_on_c, 0, 60, 108
1, 174870, Note_off_c, 0, 60, 108
1, 174870, Note_on_c, 0, 57, 100
1, 175739, Note_off_c, 0, 57, 100
1, 175739, Note_on_c, 0, 53, 108
1, 176408, Note_off_c, 0, 53, 108
1, 176437, Note_on_c, 0, 52, 103
1, 177116, Note_off_c, 0, 52, 103
1, 177210, Note_on_c, 0, 54, 115
1, 177765, Note_off_c, 0, 54, 115
1, 177815, Note_on_c, 0, 57, 106
1, 178394, Note_off_c, 0, 57, 106
1, 178413, Note_on_c, 0, 56, 106
1, 179062, Note_off_c, 0, 56, 106
1, 179076, Note_on_c, 0, 59, 107
1, 179578, Note_off_c, 0, 59, 107
1, 179650, Note_on_c, 0, 62, 125
1, 180294, Note_off_c, 0, 62, 125
1, 180408, Note_on_c, 0, 63, 106
1, 180657, Note_off_c, 0, 63, 106
1, 180657, Note_on_c, 0, 65, 119
1, 181456, Note_off_c, 0, 65, 119
1, 181505, Note_on_c, 0, 65, 119
1, 182164, Note_off_c, 0, 65, 119
1, 182203, Note_on_c, 0, 64, 116
1, 185081, Note_off_c, 0, 64, 116
1, 185105, Note_on_c, 0, 62, 111
1, 185881, Note_off_c, 0, 62, 111
1, 185979, Note_on_c, 0, 60, 90
1, 186681, Note_off_c, 0, 60, 90
1, 186737, Note_on_c, 0, 57, 96
1, 188746, Note_off_c, 0, 57, 96
1, 190039, Note_on_c, 0, 60, 115
1, 190696, Note_off_c, 0, 60, 115
1, 190754, Note_on_c, 0, 62, 127
1, 191537, Note_off_c, 0, 62, 127
1, 191587, Note_on_c, 0, 64, 118
1, 192430, Note_off_c, 0, 64, 118
1, 192541, Note_on_c, 0, 65, 114
1, 192790, Note_off_c, 0, 65, 114
1, 192809, Note_on_c, 0, 67, 116
1, 193428, Note_off_c, 0, 67, 116
1, 193447, Note_on_c, 0, 65, 124
1, 194116, Note_off_c, 0, 65, 124
1, 194116, Note_on_c, 0, 64, 120
1, 194785, Note_off_c, 0, 64, 120
1, 195042, Note_on_c, 0, 55, 102
1, 195829, Note_off_c, 0, 55, 102
1, 195894, Note_on_c, 0, 60, 90
1, 201541, Note_off_c, 0, 60, 90
1, 203148, Note_on_c, 0, 61, 114
1, 203425, Note_off_c, 0, 61, 114
1, 203470, Note_on_c, 0, 63, 123
1, 204348, Note_off_c, 0, 63, 123
1, 204477, Note_on_c, 0, 63, 124
1, 205826, Note_off_c, 0, 63, 124
1, 205875, Note_on_c, 0, 63, 9
1, 206814, Note_off_c, 0, 63, 9
1, 206924, Note_on_c, 0, 63, 116
1, 208442, Note_off_c, 0, 63, 116
1, 208552, Note_on_c, 0, 61, 111
1, 209461, Note_off_c, 0, 61, 111
1, 209510, Note_on_c, 0, 65, 103
1, 210919, Note_off_c, 0, 65, 103
1, 211028, Note_on_c, 0, 60, 89
1, 214996, Note_off_c, 0, 60, 89
1, 215955, Note_on_c, 0, 58, 106
1, 216764, Note_off_c, 0, 58, 106
1, 216833, Note_on_c, 0, 56, 101
1, 218532, Note_off_c, 0, 56, 101
1, 218601, Note_on_c, 0, 61, 121
1, 219470, Note_off_c, 0, 61, 121
1, 219534, Note_on_c, 0, 63, 107
1, 219768, Note_off_c, 0, 63, 107
1, 219822, Note_on_c, 0, 65, 113
1, 221086, Note_off_c, 0, 65, 113
1, 221151, Note_on_c, 0, 63, 112
1, 221980, Note_off_c, 0, 63, 112
1, 222124, Note_on_c, 0, 66, 109
1, 222403, Note_off_c, 0, 66, 109
1, 222457, Note_on_c, 0, 68, 96
1, 226295, Note_off_c, 0, 68, 96
1, 226309, Note_on_c, 0, 66, 111
1, 227118, Note_off_c, 0, 66, 111
1, 227147, Note_on_c, 0, 65, 111
1, 227476, Note_off_c, 0, 65, 111
1, 227575, Note_on_c, 0, 56, 92
1, 230453, Note_off_c, 0, 56, 92
1, 230582, Note_on_c, 0, 61, 109
1, 231241, Note_off_c, 0, 61, 109
1, 231270, Note_on_c, 0, 65, 101
1, 232089, Note_off_c, 0, 65, 101
1, 232089, Note_on_c, 0, 63, 99
1, 235357, Note_off_c, 0, 63, 99
1, 235416, Note_on_c, 0, 62, 105
1, 235665, Note_off_c, 0, 62, 105
1, 235714, Note_on_c, 0, 61, 106
1, 236153, Note_off_c, 0, 61, 106
1, 236182, Note_on_c, 0, 60, 86
1, 237821, Note_off_c, 0, 60, 86
1, 237821, Note_on_c, 0, 56, 84
1, 245318, Note_off_c, 0, 56, 84
1, 248446, Note_on_c, 0, 49, 114
1, 249345, Note_off_c, 0, 49, 114
1, 249430, Note_on_c, 0, 51, 116
1, 250984, Note_off_c, 0, 51, 116
1, 251108, Note_on_c, 0, 52, 107
1, 252007, Note_off_c, 0, 52, 107
1, 252226, Note_on_c, 0, 54, 102
1, 252735, Note_off_c, 0, 54, 102
1, 252764, Note_on_c, 0, 56, 101
1, 255412, Note_off_c, 0, 56, 101
1, 255551, Note_on_c, 0, 54, 104
1, 256370, Note_off_c, 0, 54, 104
1, 256456, Note_on_c, 0, 63, 118
1, 257686, Note_off_c, 0, 63, 118
1, 257798, Note_on_c, 0, 63, 115
1, 258500, Note_off_c, 0, 63, 115
1, 258605, Note_on_c, 0, 63, 114
1, 259244, Note_off_c, 0, 63, 114
1, 259391, Note_on_c, 0, 63, 105
1, 261415, Note_off_c, 0, 63, 105
1, 261488, Note_on_c, 0, 58, 103
1, 262207, Note_off_c, 0, 58, 103
1, 262286, Note_on_c, 0, 61, 104
1, 264635, Note_off_c, 0, 61, 104
1, 266004, Note_on_c, 0, 59, 99
1, 266863, Note_off_c, 0, 59, 99
1, 267002, Note_on_c, 0, 52, 106
1, 269660, Note_off_c, 0, 52, 106
1, 269879, Note_on_c, 0, 56, 101
1, 270558, Note_off_c, 0, 56, 101
1, 270611, Note_on_c, 0, 58, 97
1, 270849, Note_off_c, 0, 58, 97
1, 270905, Note_on_c, 0, 59, 103
1, 271270, Note_off_c, 0, 59, 103
1, 271365, Note_on_c, 0, 56, 99
1, 272024, Note_off_c, 0, 56, 99
1, 272088, Note_on_c, 0, 58, 97
1, 273927, Note_off_c, 0, 58, 97
1, 273966, Note_on_c, 0, 56, 95
1, 274355, Note_off_c, 0, 56, 95
1, 274479, Note_on_c, 0, 54, 103
1, 277098, Note_off_c, 0, 54, 103
1, 278347, Note_on_c, 0, 63, 125
1, 279106, Note_off_c, 0, 63, 125
1, 279245, Note_on_c, 0, 63, 124
1, 279684, Note_off_c, 0, 63, 124
1, 279773, Note_on_c, 0, 62, 120
1, 280372, Note_off_c, 0, 62, 120
1, 280516, Note_on_c, 0, 62, 119
1, 281045, Note_off_c, 0, 62, 119
1, 281109, Note_on_c, 0, 61, 117
1, 281668, Note_off_c, 0, 61, 117
1, 281922, Note_on_c, 0, 69, 98
1, 284339, Note_off_c, 0, 69, 98
1, 284455, Note_on_c, 0, 67, 112
1, 284984, Note_off_c, 0, 67, 112
1, 285038, Note_on_c, 0, 69, 94
1, 285422, Note_off_c, 0, 69, 94
1, 285431, Note_on_c, 0, 71, 102
1, 285980, Note_off_c, 0, 71, 102
1, 286059, Note_on_c, 0, 74, 97
1, 286538, Note_off_c, 0, 74, 97
1, 286572, Note_on_c, 0, 72, 101
1, 287061, Note_off_c, 0, 72, 101
1, 287140, Note_on_c, 0, 71, 95
1, 287549, Note_off_c, 0, 71, 95
1, 287613, Note_on_c, 0, 69, 94
1, 288282, Note_off_c, 0, 69, 94
1, 288356, Note_on_c, 0, 67, 104
1, 288760, Note_off_c, 0, 67, 104
1, 288834, Note_on_c, 0, 66, 108
1, 289068, Note_off_c, 0, 66, 108
1, 289167, Note_on_c, 0, 65, 102
1, 293825, Note_off_c, 0, 65, 102
1, 295216, Note_on_c, 0, 64, 115
1, 295939, Note_off_c, 0, 64, 115
1, 296073, Note_on_c, 0, 62, 114
1, 296852, Note_off_c, 0, 62, 114
1, 296911, Note_on_c, 0, 63, 110
1, 297210, Note_off_c, 0, 63, 110
1, 297234, Note_on_c, 0, 64, 105
1, 298853, Note_off_c, 0, 64, 105
1, 298907, Note_on_c, 0, 62, 111
1, 299506, Note_off_c, 0, 62, 111
1, 299565, Note_on_c, 0, 60, 106
1, 300074, Note_off_c, 0, 60, 106
1, 300134, Note_on_c, 0, 58, 101
1, 300791, Note_off_c, 0, 58, 101
1, 300823, Note_on_c, 0, 56, 96
1, 301292, Note_off_c, 0, 56, 96
1, 301301, Note_on_c, 0, 58, 89
1, 301520, Note_off_c, 0, 58, 89
1, 301529, Note_on_c, 0, 56, 98
1, 301798, Note_off_c, 0, 56, 98
1, 301847, Note_on_c, 0, 55, 103
1, 304760, Note_off_c, 0, 55, 103
1, 304859, Note_on_c, 0, 53, 102
1, 305368, Note_off_c, 0, 53, 102
1, 305452, Note_on_c, 0, 51, 100
1, 306191, Note_off_c, 0, 51, 100
1, 306285, Note_on_c, 0, 52, 95
1, 306849, Note_off_c, 0, 52, 95
1, 306918, Note_on_c, 0, 55, 93
1, 310011, Note_off_c, 0, 55, 93
1, 310845, Note_on_c, 0, 64, 118
1, 311629, Note_off_c, 0, 64, 118
1, 311713, Note_on_c, 0, 59, 96
1, 315841, Note_off_c, 0, 59, 96
1, 315889, Note_on_c, 0, 62, 113
1, 316662, Note_off_c, 0, 62, 113
1, 316729, Note_on_c, 0, 59, 101
1, 318268, Note_off_c, 0, 59, 101
1, 318392, Note_on_c, 0, 60, 92
1, 319201, Note_off_c, 0, 60, 92
1, 319295, Note_on_c, 0, 64, 120
1, 320334, Note_off_c, 0, 64, 120
1, 320389, Note_on_c, 0, 67, 111
1, 321320, Note_off_c, 0, 67, 111
1, 321402, Note_on_c, 0, 69, 90
1, 321591, Note_off_c, 0, 69, 90
1, 321640, Note_on_c, 0, 71, 100
1, 325238, Note_off_c, 0, 71, 100
1, 325287, Note_on_c, 0, 70, 107
1, 325937, Note_off_c, 0, 70, 107
1, 325961, Note_on_c, 0, 69, 88
1, 326242, Note_off_c, 0, 69, 88
1, 326273, Note_on_c, 0, 68, 95
1, 326550, Note_off_c, 0, 68, 95
1, 326588, Note_on_c, 0, 66, 110
1, 326848, Note_off_c, 0, 66, 110
1, 326903, Note_on_c, 0, 65, 106
1, 329312, Note_off_c, 0, 65, 106
1, 330881, Note_on_c, 0, 69, 100
1, 331770, Note_off_c, 0, 69, 100
1, 331789, Note_on_c, 0, 72, 98
1, 334238, Note_on_c, 0, 71, 103
1, 334238, Note_off_c, 0, 72, 98
1, 334827, Note_off_c, 0, 71, 103
1, 334846, Note_on_c, 0, 69, 101
1, 335355, Note_off_c, 0, 69, 101
1, 335404, Note_on_c, 0, 68, 100
1, 335883, Note_off_c, 0, 68, 100
1, 335977, Note_on_c, 0, 71, 100
1, 336316, Note_off_c, 0, 71, 100
1, 336383, Note_on_c, 0, 68, 104
1, 336830, Note_off_c, 0, 68, 104
1, 336899, Note_on_c, 0, 66, 113
1, 337293, Note_off_c, 0, 66, 113
1, 337352, Note_on_c, 0, 65, 116
1, 337749, Note_off_c, 0, 65, 116
1, 337786, Note_on_c, 0, 64, 111
1, 338233, Note_off_c, 0, 64, 111
1, 338262, Note_on_c, 0, 62, 111
1, 338661, Note_off_c, 0, 62, 111
1, 338715, Note_on_c, 0, 65, 115
1, 339134, Note_off_c, 0, 65, 115
1, 339158, Note_on_c, 0, 64, 107
1, 339375, Note_off_c, 0, 64, 107
1, 339407, Note_on_c, 0, 65, 108
1, 339629, Note_off_c, 0, 65, 108
1, 339668, Note_on_c, 0, 64, 111
1, 339955, Note_off_c, 0, 64, 111
1, 339992, Note_on_c, 0, 62, 107
1, 340209, Note_off_c, 0, 62, 107
1, 340226, Note_on_c, 0, 59, 91
1, 340605, Note_off_c, 0, 59, 91
1, 340772, Note_on_c, 0, 53, 106
1, 341054, Note_off_c, 0, 53, 106
1, 341091, Note_on_c, 0, 54, 105
1, 341388, Note_off_c, 0, 54, 105
1, 341392, Note_on_c, 0, 57, 95
1, 341741, Note_off_c, 0, 57, 95
1, 341770, Note_on_c, 0, 56, 101
1, 342119, Note_off_c, 0, 56, 101
1, 342166, Note_on_c, 0, 59, 99
1, 342489, Note_off_c, 0, 59, 99
1, 342508, Note_on_c, 0, 62, 112
1, 342947, Note_off_c, 0, 62, 112
1, 342947, Note_on_c, 0, 65, 117
1, 343436, Note_off_c, 0, 65, 117
1, 343445, Note_on_c, 0, 64, 109
1, 345504, Note_off_c, 0, 64, 109
1, 345533, Note_on_c, 0, 62, 109
1, 345802, Note_off_c, 0, 62, 109
1, 345841, Note_on_c, 0, 64, 108
1, 346108, Note_off_c, 0, 64, 108
1, 346130, Note_on_c, 0, 62, 108
1, 346399, Note_off_c, 0, 62, 108
1, 346448, Note_on_c, 0, 60, 99
1, 346757, Note_off_c, 0, 60, 99
1, 346766, Note_on_c, 0, 57, 91
1, 349335, Note_off_c, 0, 57, 91
1, 350264, Note_on_c, 0, 64, 119
1, 351063, Note_off_c, 0, 64, 119
1, 351172, Note_on_c, 0, 65, 109
1, 351381, Note_off_c, 0, 65, 109
1, 351470, Note_on_c, 0, 67, 110
1, 353489, Note_off_c, 0, 67, 110
1, 353489, Note_on_c, 0, 65, 122
1, 353898, Note_on_c, 0, 67, 110
1, 353898, Note_off_c, 0, 65, 122
1, 354107, Note_off_c, 0, 67, 110
1, 354107, Note_on_c, 0, 65, 120
1, 354506, Note_off_c, 0, 65, 120
1, 354525, Note_on_c, 0, 64, 114
1, 355154, Note_off_c, 0, 64, 114
1, 355383, Note_on_c, 0, 55, 97
1, 356792, Note_off_c, 0, 55, 97
1, 356851, Note_on_c, 0, 60, 91
1, 358570, Note_off_c, 0, 60, 91
1, 358570, End_track
0, 0, End_of_file
