0, 0, Header, 1, 1, 192
1, 0, Start_track
1, 0, Title_t, "Melody"
1, 0, Tempo, 210526
1, 0, Key_signature, 1, "major"
1, 0, Time_signature, 4, 2, 24, 8
1, 2855, Note_on_c, 0, 66, 81
1, 2948, Note_off_c, 0, 66, 81
1, 2985, Note_on_c, 0, 67, 103
1, 3016, Note_off_c, 0, 67, 103
1, 3074, Note_on_c, 0, 71, 108
1, 3142, Note_off_c, 0, 71, 108
1, 3172, Note_on_c, 0, 74, 118
1, 3209, Note_off_c, 0, 74, 118
1, 3265, Note_on_c, 0, 78, 109
1, 3323, Note_off_c, 0, 78, 109
1, 3376, Note_on_c, 0, 79, 113
1, 3444, Note_off_c, 0, 79, 113
1, 3484, Note_on_c, 0, 78, 100
1, 3589, Note_off_c, 0, 78, 100
1, 3593, Note_on_c, 0, 76, 110
1, 3661, Note_off_c, 0, 76, 110
1, 3700, Note_on_c, 0, 74, 108
1, 3774, Note_off_c, 0, 74, 108
1, 3800, Note_on_c, 0, 71, 104
1, 3907, Note_off_c, 0, 71, 104
1, 3907, Note_on_c, 0, 72, 92
1, 3951, Note_off_c, 0, 72, 92
1, 3951, Note_on_c, 0, 74, 93
1, 4032, Note_off_c, 0, 74, 93
1, 4044, Note_on_c, 0, 72, 97
1, 4112, Note_off_c, 0, 72, 97
1, 4117, Note_on_c, 0, 71, 91
1, 4212, Note_off_c, 0, 71, 91
1, 4222, Note_on_c, 0, 69, 104
1, 4322, Note_off_c, 0, 69, 104
1, 4322, Note_on_c, 0, 68, 97
1, 4401, Note_off_c, 0, 68, 97
1, 4422, Note_on_c, 0, 66, 92
1, 4470, Note_off_c, 0, 66, 92
1, 4510, Note_on_c, 0, 67, 95
1, 4573, Note_off_c, 0, 67, 95
1, 4636, Note_on_c, 0, 64, 96
1, 4731, Note_off_c, 0, 64, 96
1, 4780, Note_on_c, 0, 59, 83
1, 4854, Note_off_c, 0, 59, 83
1, 4854, Note_on_c, 0, 58, 85
1, 4939, Note_off_c, 0, 58, 85
1, 4973, Note_on_c, 0, 62, 83
1, 5047, Note_off_c, 0, 62, 83
1, 5080, Note_on_c, 0, 58, 86
1, 5120, Note_off_c, 0, 58, 86
1, 5131, Note_on_c, 0, 59, 89
1, 5194, Note_off_c, 0, 59, 89
1, 5261, Note_on_c, 0, 55, 83
1, 5331, Note_off_c, 0, 55, 83
1, 5331, Note_on_c, 0, 57, 92
1, 5431, Note_off_c, 0, 57, 92
1, 5445, Note_on_c, 0, 55, 90
1, 5549, Note_off_c, 0, 55, 90
1, 6535, Note_on_c, 0, 69, 109
1, 6572, Note_off_c, 0, 69, 109
1, 6601, Note_on_c, 0, 70, 100
1, 6722, Note_off_c, 0, 70, 100
1, 6812, Note_on_c, 0, 69, 103
1, 6870, Note_off_c, 0, 69, 103
1, 6897, Note_on_c, 0, 67, 95
1, 6971, Note_off_c, 0, 67, 95
1, 7008, Note_on_c, 0, 62, 91
1, 7089, Note_off_c, 0, 62, 91
1, 7297, Note_on_c, 0, 62, 86
1, 7545, Note_off_c, 0, 62, 86
1, 7998, Note_on_c, 0, 63, 106
1, 8040, Note_off_c, 0, 63, 106
1, 8085, Note_on_c, 0, 64, 92
1, 8265, Note_off_c, 0, 64, 92
1, 8307, Note_on_c, 0, 63, 89
1, 8391, Note_off_c, 0, 63, 89
1, 8447, Note_on_c, 0, 66, 94
1, 8618, Note_off_c, 0, 66, 94
1, 8644, Note_on_c, 0, 69, 96
1, 8718, Note_off_c, 0, 69, 96
1, 8744, Note_on_c, 0, 66, 84
1, 8796, Note_off_c, 0, 66, 84
1, 8833, Note_on_c, 0, 67, 90
1, 8903, Note_off_c, 0, 67, 90
1, 8921, Note_on_c, 0, 69, 100
1, 8995, Note_off_c, 0, 69, 100
1, 9025, Note_on_c, 0, 70, 92
1, 9092, Note_off_c, 0, 70, 92
1, 9092, Note_on_c, 0, 72, 98
1, 9176, Note_off_c, 0, 72, 98
1, 9180, Note_on_c, 0, 74, 108
1, 9248, Note_off_c, 0, 74, 108
1, 9309, Note_on_c, 0, 68, 90
1, 9383, Note_off_c, 0, 68, 90
1, 9386, Note_on_c, 0, 69, 93
1, 9456, Note_off_c, 0, 69, 93
1, 9500, Note_on_c, 0, 72, 103
1, 9579, Note_off_c, 0, 72, 103
1, 9600, Note_on_c, 0, 70, 92
1, 9679, Note_off_c, 0, 70, 92
1, 9685, Note_on_c, 0, 67, 96
1, 9753, Note_off_c, 0, 67, 96
1, 10406, Note_on_c, 0, 63, 87
1, 10484, Note_off_c, 0, 63, 87
1, 10510, Note_on_c, 0, 64, 99
1, 10562, Note_off_c, 0, 64, 99
1, 10580, Note_on_c, 0, 67, 102
1, 10665, Note_off_c, 0, 67, 102
1, 10676, Note_on_c, 0, 64, 91
1, 10761, Note_off_c, 0, 64, 91
1, 10768, Note_on_c, 0, 65, 87
1, 10842, Note_off_c, 0, 65, 87
1, 10853, Note_on_c, 0, 66, 99
1, 10912, Note_off_c, 0, 66, 99
1, 10930, Note_on_c, 0, 69, 90
1, 11011, Note_off_c, 0, 69, 90
1, 11079, Note_on_c, 0, 72, 94
1, 11206, Note_off_c, 0, 72, 94
1, 11925, Note_on_c, 0, 77, 124
1, 11993, Note_off_c, 0, 77, 124
1, 11998, Note_on_c, 0, 76, 126
1, 12053, Note_off_c, 0, 76, 126
1, 12053, Note_on_c, 0, 75, 119
1, 12111, Note_off_c, 0, 75, 119
1, 12113, Note_on_c, 0, 74, 106
1, 12181, Note_off_c, 0, 74, 106
1, 12265, Note_on_c, 0, 72, 98
1, 12310, Note_off_c, 0, 72, 98
1, 12323, Note_on_c, 0, 71, 97
1, 12378, Note_off_c, 0, 71, 97
1, 12415, Note_on_c, 0, 69, 105
1, 12491, Note_off_c, 0, 69, 105
1, 12509, Note_on_c, 0, 68, 98
1, 12599, Note_off_c, 0, 68, 98
1, 12599, Note_on_c, 0, 65, 96
1, 12662, Note_off_c, 0, 65, 96
1, 12691, Note_on_c, 0, 64, 100
1, 12751, Note_off_c, 0, 64, 100
1, 12814, Note_on_c, 0, 62, 91
1, 12845, Note_off_c, 0, 62, 91
1, 12879, Note_on_c, 0, 61, 96
1, 12939, Note_off_c, 0, 61, 96
1, 12960, Note_on_c, 0, 59, 92
1, 13036, Note_off_c, 0, 59, 92
1, 13057, Note_on_c, 0, 60, 87
1, 13147, Note_off_c, 0, 60, 87
1, 13173, Note_on_c, 0, 62, 97
1, 13228, Note_off_c, 0, 62, 97
1, 13243, Note_on_c, 0, 63, 88
1, 13325, Note_off_c, 0, 63, 88
1, 13338, Note_on_c, 0, 64, 97
1, 13388, Note_off_c, 0, 64, 97
1, 13401, Note_on_c, 0, 67, 102
1, 13509, Note_off_c, 0, 67, 102
1, 13540, Note_on_c, 0, 64, 94
1, 13611, Note_off_c, 0, 64, 94
1, 13632, Note_on_c, 0, 65, 96
1, 13706, Note_off_c, 0, 65, 96
1, 13721, Note_on_c, 0, 66, 102
1, 13797, Note_off_c, 0, 66, 102
1, 13797, Note_on_c, 0, 69, 101
1, 13860, Note_off_c, 0, 69, 101
1, 14005, Note_on_c, 0, 77, 117
1, 14063, Note_off_c, 0, 77, 117
1, 14065, Note_on_c, 0, 76, 111
1, 14139, Note_off_c, 0, 76, 111
1, 14141, Note_on_c, 0, 75, 106
1, 14257, Note_off_c, 0, 75, 106
1, 14288, Note_on_c, 0, 72, 109
1, 14330, Note_off_c, 0, 72, 109
1, 14359, Note_on_c, 0, 73, 91
1, 14464, Note_off_c, 0, 73, 91
1, 14482, Note_on_c, 0, 76, 111
1, 14545, Note_off_c, 0, 76, 111
1, 14550, Note_on_c, 0, 74, 105
1, 14661, Note_off_c, 0, 74, 105
1, 14682, Note_on_c, 0, 71, 98
1, 14732, Note_off_c, 0, 71, 98
1, 14745, Note_on_c, 0, 72, 102
1, 14797, Note_off_c, 0, 72, 102
1, 14812, Note_on_c, 0, 74, 101
1, 14875, Note_off_c, 0, 74, 101
1, 14875, Note_on_c, 0, 72, 100
1, 14914, Note_off_c, 0, 72, 100
1, 14921, Note_on_c, 0, 71, 99
1, 15053, Note_off_c, 0, 71, 99
1, 15053, Note_on_c, 0, 69, 107
1, 15111, Note_off_c, 0, 69, 107
1, 15126, Note_on_c, 0, 68, 92
1, 15216, Note_off_c, 0, 68, 92
1, 15261, Note_on_c, 0, 66, 91
1, 15306, Note_off_c, 0, 66, 91
1, 15329, Note_on_c, 0, 67, 85
1, 15395, Note_off_c, 0, 67, 85
1, 15440, Note_on_c, 0, 69, 98
1, 15503, Note_off_c, 0, 69, 98
1, 15516, Note_on_c, 0, 71, 88
1, 15576, Note_off_c, 0, 71, 88
1, 15626, Note_on_c, 0, 72, 84
1, 15686, Note_off_c, 0, 72, 84
1, 15707, Note_on_c, 0, 74, 107
1, 15802, Note_off_c, 0, 74, 107
1, 15807, Note_on_c, 0, 76, 104
1, 15875, Note_off_c, 0, 76, 104
1, 16012, Note_on_c, 0, 79, 87
1, 16064, Note_off_c, 0, 79, 87
1, 16101, Note_on_c, 0, 81, 108
1, 16185, Note_off_c, 0, 81, 108
1, 16206, Note_on_c, 0, 78, 105
1, 16264, Note_off_c, 0, 78, 105
1, 16264, Note_on_c, 0, 79, 98
1, 16359, Note_off_c, 0, 79, 98
1, 16390, Note_on_c, 0, 76, 108
1, 16469, Note_off_c, 0, 76, 108
1, 16469, Note_on_c, 0, 77, 97
1, 16590, Note_off_c, 0, 77, 97
1, 16592, Note_on_c, 0, 74, 91
1, 16644, Note_off_c, 0, 74, 91
1, 16665, Note_on_c, 0, 75, 107
1, 16720, Note_off_c, 0, 75, 107
1, 16857, Note_on_c, 0, 71, 99
1, 16920, Note_off_c, 0, 71, 99
1, 17031, Note_on_c, 0, 74, 109
1, 17115, Note_off_c, 0, 74, 109
1, 17138, Note_on_c, 0, 71, 105
1, 17212, Note_off_c, 0, 71, 105
1, 17212, Note_on_c, 0, 72, 97
1, 17296, Note_off_c, 0, 72, 97
1, 17322, Note_on_c, 0, 70, 111
1, 17396, Note_off_c, 0, 70, 111
1, 17411, Note_on_c, 0, 69, 103
1, 17471, Note_off_c, 0, 69, 103
1, 17529, Note_on_c, 0, 67, 112
1, 17605, Note_off_c, 0, 67, 112
1, 17607, Note_on_c, 0, 65, 107
1, 17694, Note_off_c, 0, 65, 107
1, 17717, Note_on_c, 0, 64, 107
1, 17764, Note_off_c, 0, 64, 107
1, 17806, Note_on_c, 0, 63, 96
1, 17853, Note_off_c, 0, 63, 96
1, 17868, Note_on_c, 0, 65, 106
1, 17920, Note_off_c, 0, 65, 106
1, 17927, Note_on_c, 0, 63, 105
1, 17974, Note_off_c, 0, 63, 105
1, 17976, Note_on_c, 0, 62, 100
1, 18052, Note_off_c, 0, 62, 100
1, 18094, Note_on_c, 0, 60, 98
1, 18154, Note_off_c, 0, 60, 98
1, 18167, Note_on_c, 0, 59, 87
1, 18238, Note_off_c, 0, 59, 87
1, 18280, Note_on_c, 0, 57, 91
1, 18327, Note_off_c, 0, 57, 91
1, 18350, Note_on_c, 0, 58, 91
1, 18421, Note_off_c, 0, 58, 91
1, 18452, Note_on_c, 0, 60, 91
1, 18526, Note_off_c, 0, 60, 91
1, 18568, Note_on_c, 0, 62, 81
1, 18618, Note_off_c, 0, 62, 81
1, 18692, Note_on_c, 0, 63, 95
1, 18744, Note_off_c, 0, 63, 95
1, 18762, Note_on_c, 0, 65, 111
1, 18793, Note_off_c, 0, 65, 111
1, 18798, Note_on_c, 0, 65, 97
1, 18866, Note_off_c, 0, 65, 97
1, 18866, Note_on_c, 0, 62, 102
1, 18940, Note_off_c, 0, 62, 102
1, 19138, Note_on_c, 0, 60, 90
1, 19201, Note_off_c, 0, 60, 90
1, 19256, Note_on_c, 0, 62, 96
1, 19303, Note_off_c, 0, 62, 96
1, 19337, Note_on_c, 0, 63, 87
1, 19387, Note_off_c, 0, 63, 87
1, 19426, Note_on_c, 0, 65, 94
1, 19468, Note_off_c, 0, 65, 94
1, 19513, Note_on_c, 0, 67, 108
1, 19592, Note_off_c, 0, 67, 108
1, 19621, Note_on_c, 0, 63, 101
1, 19689, Note_off_c, 0, 63, 101
1, 19699, Note_on_c, 0, 62, 81
1, 19751, Note_off_c, 0, 62, 81
1, 19777, Note_on_c, 0, 60, 89
1, 19835, Note_off_c, 0, 60, 89
1, 19882, Note_on_c, 0, 61, 91
1, 19937, Note_off_c, 0, 61, 91
1, 19989, Note_on_c, 0, 62, 81
1, 20039, Note_off_c, 0, 62, 81
1, 20068, Note_on_c, 0, 69, 115
1, 20136, Note_off_c, 0, 69, 115
1, 20183, Note_on_c, 0, 67, 109
1, 20235, Note_off_c, 0, 67, 109
1, 20269, Note_on_c, 0, 65, 103
1, 20343, Note_off_c, 0, 65, 103
1, 20350, Note_on_c, 0, 64, 103
1, 20413, Note_off_c, 0, 64, 103
1, 20439, Note_on_c, 0, 63, 93
1, 20481, Note_off_c, 0, 63, 93
1, 20541, Note_on_c, 0, 65, 110
1, 20609, Note_off_c, 0, 65, 110
1, 20654, Note_on_c, 0, 62, 96
1, 20728, Note_off_c, 0, 62, 96
1, 20751, Note_on_c, 0, 58, 91
1, 20825, Note_off_c, 0, 58, 91
1, 21912, Note_on_c, 0, 74, 110
1, 21999, Note_off_c, 0, 74, 110
1, 22102, Note_on_c, 0, 73, 119
1, 22154, Note_off_c, 0, 73, 119
1, 22175, Note_on_c, 0, 72, 103
1, 22249, Note_off_c, 0, 72, 103
1, 22278, Note_on_c, 0, 63, 100
1, 22336, Note_off_c, 0, 63, 100
1, 22378, Note_on_c, 0, 64, 97
1, 22446, Note_off_c, 0, 64, 97
1, 22573, Note_on_c, 0, 71, 120
1, 22657, Note_off_c, 0, 71, 120
1, 22675, Note_on_c, 0, 69, 112
1, 22727, Note_off_c, 0, 69, 112
1, 22777, Note_on_c, 0, 67, 107
1, 22840, Note_off_c, 0, 67, 107
1, 22882, Note_on_c, 0, 64, 98
1, 22929, Note_off_c, 0, 64, 98
1, 22960, Note_on_c, 0, 66, 110
1, 23036, Note_off_c, 0, 66, 110
1, 23155, Note_on_c, 0, 77, 117
1, 23223, Note_off_c, 0, 77, 117
1, 23233, Note_on_c, 0, 76, 115
1, 23301, Note_off_c, 0, 76, 115
1, 23306, Note_on_c, 0, 75, 113
1, 23406, Note_off_c, 0, 75, 113
1, 23837, Note_on_c, 0, 72, 117
1, 23900, Note_off_c, 0, 72, 117
1, 23900, Note_on_c, 0, 73, 114
1, 23979, Note_off_c, 0, 73, 114
1, 23997, Note_on_c, 0, 76, 120
1, 24084, Note_off_c, 0, 76, 120
1, 24094, Note_on_c, 0, 74, 117
1, 24184, Note_off_c, 0, 74, 117
1, 24223, Note_on_c, 0, 71, 101
1, 24289, Note_off_c, 0, 71, 101
1, 24307, Note_on_c, 0, 72, 111
1, 24391, Note_off_c, 0, 72, 111
1, 24398, Note_on_c, 0, 70, 100
1, 24474, Note_off_c, 0, 70, 100
1, 24500, Note_on_c, 0, 71, 117
1, 24558, Note_off_c, 0, 71, 117
1, 24812, Note_on_c, 0, 62, 98
1, 24883, Note_off_c, 0, 62, 98
1, 24890, Note_on_c, 0, 64, 97
1, 24966, Note_off_c, 0, 64, 97
1, 24989, Note_on_c, 0, 66, 86
1, 25049, Note_off_c, 0, 66, 86
1, 25067, Note_on_c, 0, 69, 114
1, 25167, Note_off_c, 0, 69, 114
1, 25204, Note_on_c, 0, 67, 107
1, 25272, Note_off_c, 0, 67, 107
1, 25287, Note_on_c, 0, 66, 95
1, 25363, Note_off_c, 0, 66, 95
1, 25460, Note_on_c, 0, 66, 112
1, 25518, Note_off_c, 0, 66, 112
1, 25565, Note_on_c, 0, 64, 110
1, 25631, Note_off_c, 0, 64, 110
1, 25670, Note_on_c, 0, 63, 98
1, 25712, Note_off_c, 0, 63, 98
1, 26056, Note_on_c, 0, 72, 115
1, 26093, Note_off_c, 0, 72, 115
1, 26100, Note_on_c, 0, 74, 111
1, 26168, Note_off_c, 0, 74, 111
1, 26173, Note_on_c, 0, 72, 108
1, 26225, Note_off_c, 0, 72, 108
1, 26246, Note_on_c, 0, 71, 100
1, 26320, Note_off_c, 0, 71, 100
1, 26330, Note_on_c, 0, 69, 108
1, 26414, Note_off_c, 0, 69, 108
1, 26427, Note_on_c, 0, 67, 94
1, 26477, Note_off_c, 0, 67, 94
1, 26511, Note_on_c, 0, 66, 108
1, 26561, Note_off_c, 0, 66, 108
1, 26608, Note_on_c, 0, 64, 105
1, 26666, Note_off_c, 0, 64, 105
1, 26708, Note_on_c, 0, 63, 90
1, 26782, Note_off_c, 0, 63, 90
1, 26817, Note_on_c, 0, 66, 108
1, 26880, Note_off_c, 0, 66, 108
1, 26921, Note_on_c, 0, 63, 93
1, 26981, Note_off_c, 0, 63, 93
1, 26981, Note_on_c, 0, 64, 98
1, 27055, Note_on_c, 0, 66, 97
1, 27055, Note_off_c, 0, 64, 98
1, 27147, Note_off_c, 0, 66, 97
1, 27184, Note_on_c, 0, 68, 99
1, 27284, Note_off_c, 0, 68, 99
1, 27299, Note_on_c, 0, 71, 109
1, 27399, Note_off_c, 0, 71, 109
1, 27469, Note_on_c, 0, 63, 107
1, 27524, Note_off_c, 0, 63, 107
1, 27539, Note_on_c, 0, 64, 96
1, 27700, Note_off_c, 0, 64, 96
1, 27740, Note_on_c, 0, 67, 98
1, 27814, Note_off_c, 0, 67, 98
1, 27842, Note_on_c, 0, 64, 94
1, 27894, Note_off_c, 0, 64, 94
1, 27901, Note_on_c, 0, 66, 95
1, 27956, Note_off_c, 0, 66, 95
1, 28503, Note_on_c, 0, 62, 102
1, 28550, Note_off_c, 0, 62, 102
1, 28587, Note_on_c, 0, 64, 99
1, 28649, Note_off_c, 0, 64, 99
1, 28649, Note_on_c, 0, 66, 92
1, 28720, Note_off_c, 0, 66, 92
1, 28778, Note_on_c, 0, 67, 94
1, 28828, Note_off_c, 0, 67, 94
1, 28838, Note_on_c, 0, 69, 117
1, 28912, Note_off_c, 0, 69, 117
1, 28933, Note_on_c, 0, 66, 105
1, 29023, Note_off_c, 0, 66, 105
1, 29023, Note_on_c, 0, 67, 98
1, 29068, Note_off_c, 0, 67, 98
1, 29123, Note_on_c, 0, 69, 105
1, 29178, Note_off_c, 0, 69, 105
1, 29199, Note_on_c, 0, 71, 93
1, 29294, Note_off_c, 0, 71, 93
1, 29320, Note_on_c, 0, 72, 86
1, 29391, Note_off_c, 0, 72, 86
1, 29396, Note_on_c, 0, 74, 105
1, 29470, Note_off_c, 0, 74, 105
1, 29477, Note_on_c, 0, 76, 104
1, 29561, Note_off_c, 0, 76, 104
1, 29571, Note_on_c, 0, 78, 87
1, 29642, Note_off_c, 0, 78, 87
1, 29657, Note_on_c, 0, 79, 92
1, 29741, Note_off_c, 0, 79, 92
1, 29770, Note_on_c, 0, 81, 119
1, 29870, Note_off_c, 0, 81, 119
1, 29896, Note_on_c, 0, 78, 114
1, 29986, Note_off_c, 0, 78, 114
1, 31000, Note_on_c, 0, 79, 126
1, 31021, Note_off_c, 0, 79, 126
1, 31026, Note_on_c, 0, 80, 124
1, 31063, Note_off_c, 0, 80, 124
1, 31063, Note_on_c, 0, 81, 122
1, 31629, Note_off_c, 0, 81, 122
1, 31752, Note_on_c, 0, 79, 116
1, 31820, Note_off_c, 0, 79, 116
1, 31920, Note_on_c, 0, 74, 121
1, 31983, Note_off_c, 0, 74, 121
1, 32014, Note_on_c, 0, 73, 115
1, 32109, Note_off_c, 0, 73, 115
1, 32111, Note_on_c, 0, 72, 110
1, 32179, Note_off_c, 0, 72, 110
1, 32184, Note_on_c, 0, 71, 117
1, 32294, Note_off_c, 0, 71, 117
1, 32294, Note_on_c, 0, 70, 118
1, 32373, Note_on_c, 0, 69, 118
1, 32373, Note_off_c, 0, 70, 118
1, 32441, Note_off_c, 0, 69, 118
1, 32488, Note_on_c, 0, 67, 111
1, 32559, Note_off_c, 0, 67, 111
1, 32601, Note_on_c, 0, 66, 88
1, 32659, Note_off_c, 0, 66, 88
1, 32680, Note_on_c, 0, 69, 119
1, 32780, Note_off_c, 0, 69, 119
1, 32798, Note_on_c, 0, 66, 109
1, 32869, Note_off_c, 0, 66, 109
1, 32869, Note_on_c, 0, 67, 110
1, 32929, Note_off_c, 0, 67, 110
1, 32968, Note_on_c, 0, 62, 108
1, 33060, Note_off_c, 0, 62, 108
1, 33067, Note_on_c, 0, 60, 90
1, 33135, Note_off_c, 0, 60, 90
1, 33164, Note_on_c, 0, 59, 102
1, 33235, Note_off_c, 0, 59, 102
1, 33245, Note_on_c, 0, 58, 99
1, 33340, Note_off_c, 0, 58, 99
1, 33369, Note_on_c, 0, 54, 96
1, 33429, Note_off_c, 0, 54, 96
1, 33431, Note_on_c, 0, 57, 108
1, 33518, Note_off_c, 0, 57, 108
1, 33533, Note_on_c, 0, 54, 91
1, 33599, Note_off_c, 0, 54, 91
1, 33620, Note_on_c, 0, 55, 100
1, 33702, Note_off_c, 0, 55, 100
1, 33715, Note_on_c, 0, 57, 100
1, 33794, Note_off_c, 0, 57, 100
1, 33804, Note_on_c, 0, 58, 102
1, 33870, Note_off_c, 0, 58, 102
1, 33933, Note_on_c, 0, 60, 95
1, 34004, Note_off_c, 0, 60, 95
1, 34033, Note_on_c, 0, 62, 93
1, 34080, Note_off_c, 0, 62, 93
1, 34106, Note_on_c, 0, 64, 100
1, 34180, Note_off_c, 0, 64, 100
1, 34214, Note_on_c, 0, 69, 119
1, 34293, Note_off_c, 0, 69, 119
1, 34306, Note_on_c, 0, 68, 111
1, 34388, Note_off_c, 0, 68, 111
1, 34395, Note_on_c, 0, 67, 110
1, 34469, Note_off_c, 0, 67, 110
1, 34498, Note_on_c, 0, 63, 107
1, 34582, Note_off_c, 0, 63, 107
1, 34777, Note_on_c, 0, 62, 105
1, 34957, Note_off_c, 0, 62, 105
1, 34986, Note_on_c, 0, 60, 89
1, 35083, Note_off_c, 0, 60, 89
1, 35170, Note_on_c, 0, 62, 105
1, 35334, Note_off_c, 0, 62, 105
1, 35373, Note_on_c, 0, 60, 91
1, 35470, Note_off_c, 0, 60, 91
1, 35541, Note_on_c, 0, 62, 106
1, 35710, Note_off_c, 0, 62, 106
1, 35762, Note_on_c, 0, 60, 87
1, 35881, Note_off_c, 0, 60, 87
1, 35947, Note_on_c, 0, 62, 107
1, 36052, Note_off_c, 0, 62, 107
1, 36059, Note_on_c, 0, 59, 85
1, 36260, Note_off_c, 0, 59, 85
1, 37059, Note_on_c, 0, 71, 116
1, 37111, Note_off_c, 0, 71, 116
1, 37137, Note_on_c, 0, 72, 118
1, 37205, Note_off_c, 0, 72, 118
1, 37247, Note_on_c, 0, 68, 116
1, 37313, Note_off_c, 0, 68, 116
1, 37355, Note_on_c, 0, 71, 114
1, 37407, Note_off_c, 0, 71, 114
1, 37438, Note_on_c, 0, 69, 114
1, 37496, Note_off_c, 0, 69, 114
1, 37641, Note_on_c, 0, 69, 111
1, 37715, Note_off_c, 0, 69, 111
1, 37818, Note_on_c, 0, 69, 114
1, 37892, Note_off_c, 0, 69, 114
1, 38013, Note_on_c, 0, 69, 112
1, 38092, Note_off_c, 0, 69, 112
1, 38213, Note_on_c, 0, 69, 109
1, 38271, Note_off_c, 0, 69, 109
1, 38316, Note_on_c, 0, 71, 111
1, 38347, Note_off_c, 0, 71, 111
1, 38362, Note_on_c, 0, 72, 89
1, 38450, Note_off_c, 0, 72, 89
1, 38501, Note_on_c, 0, 74, 117
1, 38575, Note_off_c, 0, 74, 117
1, 38601, Note_on_c, 0, 75, 106
1, 38646, Note_off_c, 0, 75, 106
1, 38659, Note_on_c, 0, 77, 105
1, 38730, Note_off_c, 0, 77, 105
1, 38730, Note_on_c, 0, 75, 109
1, 38767, Note_off_c, 0, 75, 109
1, 38774, Note_on_c, 0, 74, 113
1, 38856, Note_off_c, 0, 74, 113
1, 38890, Note_on_c, 0, 72, 109
1, 38961, Note_off_c, 0, 72, 109
1, 39008, Note_on_c, 0, 73, 97
1, 39034, Note_off_c, 0, 73, 97
1, 39092, Note_on_c, 0, 74, 119
1, 39160, Note_off_c, 0, 74, 119
1, 40118, Note_on_c, 0, 73, 120
1, 40165, Note_off_c, 0, 73, 120
1, 40186, Note_on_c, 0, 74, 121
1, 40847, Note_off_c, 0, 74, 121
1, 40894, Note_on_c, 0, 73, 112
1, 40952, Note_off_c, 0, 73, 112
1, 40975, Note_on_c, 0, 74, 106
1, 41022, Note_off_c, 0, 74, 106
1, 41069, Note_on_c, 0, 78, 110
1, 41124, Note_off_c, 0, 78, 110
1, 41125, Note_on_c, 0, 76, 103
1, 41159, Note_off_c, 0, 76, 103
1, 41170, Note_on_c, 0, 76, 108
1, 41279, Note_off_c, 0, 76, 108
1, 41310, Note_on_c, 0, 73, 110
1, 41386, Note_off_c, 0, 73, 110
1, 41386, Note_on_c, 0, 74, 107
1, 41420, Note_off_c, 0, 74, 107
1, 41467, Note_on_c, 0, 78, 108
1, 41549, Note_off_c, 0, 78, 108
1, 41564, Note_on_c, 0, 76, 110
1, 41616, Note_off_c, 0, 76, 110
1, 41674, Note_on_c, 0, 73, 107
1, 41742, Note_off_c, 0, 73, 107
1, 41744, Note_on_c, 0, 74, 102
1, 41807, Note_off_c, 0, 74, 102
1, 41830, Note_on_c, 0, 78, 113
1, 41890, Note_off_c, 0, 78, 113
1, 41938, Note_on_c, 0, 76, 114
1, 42022, Note_off_c, 0, 76, 114
1, 42023, Note_on_c, 0, 72, 104
1, 42089, Note_off_c, 0, 72, 104
1, 42091, Note_on_c, 0, 74, 105
1, 42167, Note_off_c, 0, 74, 105
1, 42198, Note_on_c, 0, 78, 100
1, 42272, Note_off_c, 0, 78, 100
1, 42293, Note_on_c, 0, 76, 108
1, 42383, Note_off_c, 0, 76, 108
1, 42390, Note_on_c, 0, 74, 105
1, 42461, Note_off_c, 0, 74, 105
1, 42482, Note_on_c, 0, 73, 109
1, 42542, Note_off_c, 0, 73, 109
1, 42563, Note_on_c, 0, 72, 98
1, 42626, Note_off_c, 0, 72, 98
1, 42657, Note_on_c, 0, 71, 109
1, 42723, Note_off_c, 0, 71, 109
1, 42744, Note_on_c, 0, 70, 105
1, 42818, Note_off_c, 0, 70, 105
1, 42849, Note_on_c, 0, 69, 107
1, 42907, Note_off_c, 0, 69, 107
1, 42922, Note_on_c, 0, 67, 102
1, 42996, Note_off_c, 0, 67, 102
1, 43051, Note_on_c, 0, 66, 89
1, 43109, Note_off_c, 0, 66, 89
1, 43122, Note_on_c, 0, 69, 102
1, 43201, Note_off_c, 0, 69, 102
1, 43224, Note_on_c, 0, 66, 96
1, 43271, Note_off_c, 0, 66, 96
1, 43326, Note_on_c, 0, 67, 93
1, 43394, Note_off_c, 0, 67, 93
1, 43407, Note_on_c, 0, 69, 106
1, 43497, Note_off_c, 0, 69, 106
1, 43536, Note_on_c, 0, 70, 97
1, 43588, Note_off_c, 0, 70, 97
1, 43617, Note_on_c, 0, 72, 91
1, 43664, Note_off_c, 0, 72, 91
1, 43669, Note_on_c, 0, 74, 98
1, 43761, Note_off_c, 0, 74, 98
1, 43766, Note_on_c, 0, 76, 103
1, 43837, Note_off_c, 0, 76, 103
1, 43868, Note_on_c, 0, 81, 96
1, 43971, Note_off_c, 0, 81, 96
1, 44055, Note_on_c, 0, 81, 107
1, 44145, Note_off_c, 0, 81, 107
1, 44160, Note_on_c, 0, 79, 96
1, 44252, Note_off_c, 0, 79, 96
1, 44336, Note_on_c, 0, 79, 94
1, 44420, Note_off_c, 0, 79, 94
1, 44435, Note_on_c, 0, 76, 97
1, 44562, Note_off_c, 0, 76, 97
1, 44630, Note_on_c, 0, 76, 108
1, 44709, Note_off_c, 0, 76, 108
1, 44759, Note_on_c, 0, 74, 102
1, 44849, Note_off_c, 0, 74, 102
1, 44901, Note_on_c, 0, 74, 105
1, 44985, Note_off_c, 0, 74, 105
1, 45000, Note_on_c, 0, 70, 100
1, 45084, Note_off_c, 0, 70, 100
1, 45176, Note_on_c, 0, 70, 108
1, 45258, Note_off_c, 0, 70, 108
1, 45303, Note_on_c, 0, 69, 104
1, 45366, Note_off_c, 0, 69, 104
1, 45479, Note_on_c, 0, 69, 111
1, 45531, Note_off_c, 0, 69, 111
1, 45557, Note_on_c, 0, 67, 103
1, 45641, Note_off_c, 0, 67, 103
1, 45762, Note_on_c, 0, 67, 111
1, 45830, Note_off_c, 0, 67, 111
1, 45872, Note_on_c, 0, 64, 111
1, 45930, Note_off_c, 0, 64, 111
1, 46033, Note_on_c, 0, 64, 114
1, 46096, Note_off_c, 0, 64, 114
1, 46127, Note_on_c, 0, 62, 99
1, 46243, Note_off_c, 0, 62, 99
1, 46311, Note_on_c, 0, 62, 109
1, 46379, Note_off_c, 0, 62, 109
1, 46440, Note_on_c, 0, 58, 95
1, 46535, Note_off_c, 0, 58, 95
1, 46614, Note_on_c, 0, 58, 107
1, 46672, Note_off_c, 0, 58, 107
1, 46683, Note_on_c, 0, 57, 93
1, 46839, Note_off_c, 0, 57, 93
1, 46852, Note_on_c, 0, 57, 94
1, 46981, Note_off_c, 0, 57, 94
1, 47003, Note_on_c, 0, 60, 89
1, 47103, Note_off_c, 0, 60, 89
1, 47656, Note_on_c, 0, 63, 108
1, 47693, Note_off_c, 0, 63, 108
1, 47693, Note_on_c, 0, 65, 110
1, 47738, Note_on_c, 0, 63, 107
1, 47738, Note_off_c, 0, 65, 110
1, 47806, Note_off_c, 0, 63, 107
1, 47826, Note_on_c, 0, 62, 102
1, 47916, Note_off_c, 0, 62, 102
1, 47962, Note_on_c, 0, 60, 98
1, 48004, Note_off_c, 0, 60, 98
1, 48006, Note_on_c, 0, 59, 85
1, 48109, Note_off_c, 0, 59, 85
1, 48625, Note_on_c, 0, 69, 103
1, 49069, Note_off_c, 0, 69, 103
1, 49124, Note_on_c, 0, 67, 91
1, 49171, Note_off_c, 0, 67, 91
1, 49200, Note_on_c, 0, 68, 107
1, 49247, Note_off_c, 0, 68, 107
1, 49297, Note_on_c, 0, 71, 111
1, 49360, Note_off_c, 0, 71, 111
1, 49362, Note_on_c, 0, 74, 107
1, 49446, Note_off_c, 0, 74, 107
1, 49464, Note_on_c, 0, 77, 110
1, 49548, Note_off_c, 0, 77, 110
1, 49569, Note_on_c, 0, 77, 118
1, 49635, Note_off_c, 0, 77, 118
1, 49635, Note_on_c, 0, 76, 115
1, 49735, Note_off_c, 0, 76, 115
1, 49742, Note_on_c, 0, 74, 111
1, 49794, Note_off_c, 0, 74, 111
1, 49839, Note_on_c, 0, 73, 108
1, 49918, Note_off_c, 0, 73, 108
1, 49928, Note_on_c, 0, 72, 106
1, 49991, Note_off_c, 0, 72, 106
1, 50030, Note_on_c, 0, 62, 87
1, 50069, Note_off_c, 0, 62, 87
1, 50087, Note_on_c, 0, 64, 92
1, 50195, Note_off_c, 0, 64, 92
1, 50224, Note_on_c, 0, 67, 92
1, 50284, Note_off_c, 0, 67, 92
1, 50291, Note_on_c, 0, 71, 113
1, 50359, Note_off_c, 0, 71, 113
1, 50404, Note_on_c, 0, 69, 113
1, 50462, Note_off_c, 0, 69, 113
1, 50475, Note_on_c, 0, 67, 108
1, 50565, Note_off_c, 0, 67, 108
1, 50604, Note_on_c, 0, 64, 93
1, 50651, Note_off_c, 0, 64, 93
1, 50674, Note_on_c, 0, 66, 95
1, 50734, Note_off_c, 0, 66, 95
1, 50785, Note_on_c, 0, 69, 107
1, 50869, Note_off_c, 0, 69, 107
1, 50872, Note_on_c, 0, 72, 98
1, 50956, Note_off_c, 0, 72, 98
1, 50978, Note_on_c, 0, 74, 105
1, 51037, Note_off_c, 0, 74, 105
1, 51037, Note_on_c, 0, 77, 116
1, 51095, Note_off_c, 0, 77, 116
1, 51102, Note_on_c, 0, 76, 115
1, 51139, Note_off_c, 0, 76, 115
1, 51162, Note_on_c, 0, 75, 103
1, 51209, Note_off_c, 0, 75, 103
1, 51224, Note_on_c, 0, 74, 110
1, 51306, Note_off_c, 0, 74, 110
1, 51329, Note_on_c, 0, 72, 107
1, 51381, Note_off_c, 0, 72, 107
1, 51428, Note_on_c, 0, 73, 102
1, 51486, Note_on_c, 0, 76, 116
1, 51486, Note_off_c, 0, 73, 102
1, 51581, Note_off_c, 0, 76, 116
1, 51615, Note_on_c, 0, 74, 103
1, 51678, Note_off_c, 0, 74, 103
1, 51707, Note_on_c, 0, 72, 108
1, 51765, Note_off_c, 0, 72, 108
1, 51775, Note_on_c, 0, 71, 104
1, 51835, Note_off_c, 0, 71, 104
1, 51874, Note_on_c, 0, 69, 111
1, 51942, Note_off_c, 0, 69, 111
1, 51965, Note_on_c, 0, 68, 103
1, 52044, Note_off_c, 0, 68, 103
1, 52054, Note_on_c, 0, 65, 96
1, 52130, Note_off_c, 0, 65, 96
1, 52175, Note_on_c, 0, 67, 86
1, 52238, Note_off_c, 0, 67, 86
1, 52265, Note_on_c, 0, 69, 92
1, 52355, Note_off_c, 0, 69, 92
1, 52377, Note_on_c, 0, 71, 91
1, 52416, Note_off_c, 0, 71, 91
1, 52439, Note_on_c, 0, 72, 95
1, 52497, Note_off_c, 0, 72, 95
1, 52507, Note_on_c, 0, 74, 109
1, 52591, Note_off_c, 0, 74, 109
1, 52612, Note_on_c, 0, 71, 107
1, 52680, Note_off_c, 0, 71, 107
1, 52680, Note_on_c, 0, 73, 103
1, 52775, Note_off_c, 0, 73, 103
1, 52820, Note_on_c, 0, 71, 89
1, 52883, Note_off_c, 0, 71, 89
1, 52885, Note_on_c, 0, 72, 106
1, 52937, Note_off_c, 0, 72, 106
1, 52963, Note_on_c, 0, 70, 108
1, 53047, Note_off_c, 0, 70, 108
1, 53061, Note_on_c, 0, 69, 104
1, 53129, Note_off_c, 0, 69, 104
1, 53156, Note_on_c, 0, 67, 104
1, 53203, Note_off_c, 0, 67, 104
1, 53218, Note_on_c, 0, 65, 110
1, 53297, Note_off_c, 0, 65, 110
1, 53342, Note_on_c, 0, 64, 110
1, 53389, Note_off_c, 0, 64, 110
1, 53415, Note_on_c, 0, 63, 99
1, 53465, Note_off_c, 0, 63, 99
1, 53541, Note_on_c, 0, 65, 110
1, 53612, Note_off_c, 0, 65, 110
1, 53614, Note_on_c, 0, 62, 100
1, 53677, Note_off_c, 0, 62, 100
1, 53708, Note_on_c, 0, 60, 102
1, 53763, Note_off_c, 0, 60, 102
1, 53802, Note_on_c, 0, 59, 87
1, 53876, Note_off_c, 0, 59, 87
1, 53918, Note_on_c, 0, 57, 96
1, 53986, Note_off_c, 0, 57, 96
1, 53986, Note_on_c, 0, 58, 99
1, 54062, Note_off_c, 0, 58, 99
1, 54088, Note_on_c, 0, 60, 92
1, 54162, Note_off_c, 0, 60, 92
1, 54172, Note_on_c, 0, 62, 93
1, 54246, Note_off_c, 0, 62, 93
1, 54288, Note_on_c, 0, 65, 10
1, 54359, Note_on_c, 0, 61, 84
1, 54359, Note_off_c, 0, 65, 10
1, 54409, Note_off_c, 0, 61, 84
1, 54491, Note_on_c, 0, 62, 93
1, 54541, Note_off_c, 0, 62, 93
1, 54556, Note_on_c, 0, 63, 94
1, 54635, Note_off_c, 0, 63, 94
1, 54656, Note_on_c, 0, 64, 98
1, 54719, Note_off_c, 0, 64, 98
1, 54732, Note_on_c, 0, 67, 115
1, 54808, Note_off_c, 0, 67, 115
1, 54859, Note_on_c, 0, 64, 106
1, 54921, Note_off_c, 0, 64, 106
1, 54921, Note_on_c, 0, 65, 113
1, 54995, Note_off_c, 0, 65, 113
1, 55005, Note_on_c, 0, 63, 106
1, 55071, Note_off_c, 0, 63, 106
1, 55078, Note_on_c, 0, 62, 104
1, 55146, Note_off_c, 0, 62, 104
1, 55204, Note_on_c, 0, 60, 100
1, 55251, Note_off_c, 0, 60, 100
1, 55303, Note_on_c, 0, 58, 89
1, 55358, Note_off_c, 0, 58, 89
1, 55381, Note_on_c, 0, 59, 89
1, 55465, Note_off_c, 0, 59, 89
1, 55471, Note_on_c, 0, 65, 102
1, 55561, Note_off_c, 0, 65, 102
1, 55576, Note_on_c, 0, 68, 107
1, 55660, Note_off_c, 0, 68, 107
1, 55666, Note_on_c, 0, 65, 87
1, 55708, Note_off_c, 0, 65, 87
1, 55742, Note_on_c, 0, 66, 78
1, 55792, Note_off_c, 0, 66, 78
1, 55834, Note_on_c, 0, 67, 111
1, 55908, Note_off_c, 0, 67, 111
1, 55955, Note_on_c, 0, 63, 104
1, 55994, Note_off_c, 0, 63, 104
1, 56032, Note_on_c, 0, 60, 81
1, 56080, Note_off_c, 0, 60, 81
1, 56132, Note_on_c, 0, 58, 99
1, 56192, Note_off_c, 0, 58, 99
1, 56205, Note_on_c, 0, 57, 90
1, 56281, Note_off_c, 0, 57, 90
1, 56299, Note_on_c, 0, 60, 87
1, 56344, Note_off_c, 0, 60, 87
1, 56359, Note_on_c, 0, 63, 101
1, 56433, Note_off_c, 0, 63, 101
1, 56491, Note_on_c, 0, 66, 111
1, 56573, Note_off_c, 0, 66, 111
1, 56573, Note_on_c, 0, 63, 90
1, 56657, Note_off_c, 0, 63, 90
1, 56691, Note_on_c, 0, 64, 97
1, 56759, Note_off_c, 0, 64, 97
1, 56786, Note_on_c, 0, 65, 110
1, 56876, Note_off_c, 0, 65, 110
1, 56876, Note_on_c, 0, 63, 110
1, 56950, Note_off_c, 0, 63, 110
1, 56953, Note_on_c, 0, 62, 100
1, 57008, Note_off_c, 0, 62, 100
1, 57055, Note_on_c, 0, 60, 106
1, 57123, Note_off_c, 0, 60, 106
1, 57125, Note_on_c, 0, 59, 94
1, 57172, Note_off_c, 0, 59, 94
1, 57248, Note_on_c, 0, 57, 102
1, 57293, Note_off_c, 0, 57, 102
1, 57300, Note_on_c, 0, 58, 110
1, 57379, Note_off_c, 0, 58, 110
1, 57413, Note_on_c, 0, 53, 103
1, 57492, Note_off_c, 0, 53, 103
1, 58132, Note_on_c, 0, 74, 122
1, 58169, Note_off_c, 0, 74, 122
1, 58184, Note_on_c, 0, 73, 119
1, 58250, Note_off_c, 0, 73, 119
1, 58255, Note_on_c, 0, 72, 75
1, 58313, Note_off_c, 0, 72, 75
1, 58342, Note_on_c, 0, 70, 110
1, 58405, Note_off_c, 0, 70, 110
1, 58420, Note_on_c, 0, 69, 118
1, 58496, Note_off_c, 0, 69, 118
1, 58525, Note_on_c, 0, 67, 110
1, 58575, Note_off_c, 0, 67, 110
1, 58588, Note_on_c, 0, 66, 102
1, 58670, Note_off_c, 0, 66, 102
1, 58717, Note_on_c, 0, 69, 91
1, 58775, Note_off_c, 0, 69, 91
1, 58801, Note_on_c, 0, 72, 116
1, 58853, Note_off_c, 0, 72, 116
1, 58898, Note_on_c, 0, 74, 117
1, 58966, Note_off_c, 0, 74, 117
1, 58992, Note_on_c, 0, 77, 125
1, 59029, Note_off_c, 0, 77, 125
1, 59039, Note_on_c, 0, 76, 117
1, 59102, Note_off_c, 0, 76, 117
1, 59107, Note_on_c, 0, 75, 115
1, 59175, Note_off_c, 0, 75, 115
1, 59182, Note_on_c, 0, 74, 113
1, 59234, Note_off_c, 0, 74, 113
1, 59286, Note_on_c, 0, 70, 102
1, 59346, Note_off_c, 0, 70, 102
1, 59361, Note_on_c, 0, 66, 103
1, 59448, Note_off_c, 0, 66, 103
1, 59493, Note_on_c, 0, 63, 91
1, 59551, Note_off_c, 0, 63, 91
1, 59561, Note_on_c, 0, 68, 111
1, 59635, Note_off_c, 0, 68, 111
1, 59687, Note_on_c, 0, 66, 102
1, 59745, Note_off_c, 0, 66, 102
1, 59745, Note_on_c, 0, 67, 102
1, 59829, Note_off_c, 0, 67, 102
1, 59844, Note_on_c, 0, 69, 109
1, 59912, Note_off_c, 0, 69, 109
1, 59951, Note_on_c, 0, 71, 100
1, 60025, Note_off_c, 0, 71, 100
1, 60030, Note_on_c, 0, 72, 95
1, 60096, Note_off_c, 0, 72, 95
1, 60111, Note_on_c, 0, 74, 117
1, 60190, Note_off_c, 0, 74, 117
1, 60229, Note_on_c, 0, 76, 118
1, 60292, Note_off_c, 0, 76, 118
1, 60313, Note_on_c, 0, 78, 110
1, 60392, Note_off_c, 0, 78, 110
1, 61948, Note_on_c, 0, 81, 127
1, 62000, Note_off_c, 0, 81, 127
1, 62010, Note_on_c, 0, 82, 125
1, 62047, Note_off_c, 0, 82, 125
1, 62057, Note_on_c, 0, 81, 120
1, 62109, Note_off_c, 0, 81, 120
1, 62111, Note_on_c, 0, 79, 111
1, 62150, Note_off_c, 0, 79, 111
1, 62152, Note_on_c, 0, 77, 114
1, 62215, Note_off_c, 0, 77, 114
1, 62267, Note_on_c, 0, 78, 125
1, 62362, Note_off_c, 0, 78, 125
1, 62407, Note_on_c, 0, 76, 121
1, 62491, Note_off_c, 0, 76, 121
1, 62506, Note_on_c, 0, 73, 110
1, 62593, Note_off_c, 0, 73, 110
1, 62635, Note_on_c, 0, 74, 92
1, 62687, Note_off_c, 0, 74, 92
1, 62708, Note_on_c, 0, 75, 112
1, 62798, Note_on_c, 0, 72, 113
1, 62798, Note_off_c, 0, 75, 112
1, 62850, Note_off_c, 0, 72, 113
1, 62852, Note_on_c, 0, 71, 110
1, 62942, Note_off_c, 0, 71, 110
1, 62976, Note_on_c, 0, 69, 111
1, 63050, Note_off_c, 0, 69, 111
1, 63076, Note_on_c, 0, 68, 97
1, 63105, Note_off_c, 0, 68, 97
1, 63120, Note_on_c, 0, 69, 100
1, 63162, Note_off_c, 0, 69, 100
1, 63167, Note_on_c, 0, 68, 100
1, 63251, Note_off_c, 0, 68, 100
1, 63256, Note_on_c, 0, 66, 108
1, 63335, Note_off_c, 0, 66, 108
1, 63387, Note_on_c, 0, 63, 99
1, 63439, Note_off_c, 0, 63, 99
1, 63465, Note_on_c, 0, 64, 101
1, 63544, Note_off_c, 0, 64, 101
1, 63565, Note_on_c, 0, 66, 107
1, 63612, Note_off_c, 0, 66, 107
1, 63630, Note_on_c, 0, 67, 89
1, 63675, Note_off_c, 0, 67, 89
1, 63698, Note_on_c, 0, 69, 104
1, 63761, Note_off_c, 0, 69, 104
1, 63766, Note_on_c, 0, 68, 100
1, 63813, Note_off_c, 0, 68, 100
1, 63828, Note_on_c, 0, 72, 108
1, 63933, Note_off_c, 0, 72, 108
1, 63970, Note_on_c, 0, 62, 94
1, 64009, Note_off_c, 0, 62, 94
1, 64030, Note_on_c, 0, 64, 105
1, 64075, Note_off_c, 0, 64, 105
1, 64085, Note_on_c, 0, 67, 110
1, 64175, Note_off_c, 0, 67, 110
1, 64204, Note_on_c, 0, 66, 103
1, 64251, Note_off_c, 0, 66, 103
1, 64303, Note_on_c, 0, 64, 112
1, 64350, Note_off_c, 0, 64, 112
1, 64387, Note_on_c, 0, 63, 106
1, 64445, Note_off_c, 0, 63, 106
1, 64505, Note_on_c, 0, 61, 94
1, 64555, Note_off_c, 0, 61, 94
1, 64586, Note_on_c, 0, 62, 95
1, 64641, Note_off_c, 0, 62, 95
1, 64701, Note_on_c, 0, 71, 117
1, 64769, Note_off_c, 0, 71, 117
1, 64872, Note_on_c, 0, 62, 93
1, 64895, Note_off_c, 0, 62, 93
1, 64902, Note_on_c, 0, 63, 113
1, 64960, Note_off_c, 0, 63, 113
1, 64975, Note_on_c, 0, 64, 103
1, 65049, Note_off_c, 0, 64, 103
1, 65106, Note_on_c, 0, 72, 112
1, 65196, Note_off_c, 0, 72, 112
1, 65275, Note_on_c, 0, 65, 116
1, 65349, Note_off_c, 0, 65, 116
1, 65349, Note_on_c, 0, 66, 106
1, 65386, Note_off_c, 0, 66, 106
1, 65481, Note_on_c, 0, 74, 123
1, 65571, Note_off_c, 0, 74, 123
1, 66489, Note_on_c, 0, 73, 124
1, 66571, Note_off_c, 0, 73, 124
1, 66571, Note_on_c, 0, 74, 121
1, 66639, Note_off_c, 0, 74, 121
1, 66668, Note_on_c, 0, 76, 117
1, 66736, Note_off_c, 0, 76, 117
1, 66781, Note_on_c, 0, 73, 118
1, 66849, Note_off_c, 0, 73, 118
1, 66849, Note_on_c, 0, 74, 121
1, 66954, Note_off_c, 0, 74, 121
1, 66983, Note_on_c, 0, 73, 116
1, 67046, Note_off_c, 0, 73, 116
1, 67085, Note_on_c, 0, 72, 116
1, 67135, Note_off_c, 0, 72, 116
1, 67156, Note_on_c, 0, 71, 115
1, 67219, Note_off_c, 0, 71, 115
1, 67258, Note_on_c, 0, 70, 118
1, 67316, Note_off_c, 0, 70, 118
1, 67337, Note_on_c, 0, 69, 109
1, 67405, Note_off_c, 0, 69, 109
1, 67450, Note_on_c, 0, 67, 106
1, 67516, Note_off_c, 0, 67, 106
1, 67555, Note_on_c, 0, 66, 100
1, 67615, Note_off_c, 0, 66, 100
1, 67641, Note_on_c, 0, 69, 118
1, 67693, Note_off_c, 0, 69, 118
1, 67730, Note_on_c, 0, 66, 103
1, 67796, Note_off_c, 0, 66, 103
1, 67806, Note_on_c, 0, 67, 112
1, 67880, Note_off_c, 0, 67, 112
1, 67911, Note_on_c, 0, 62, 107
1, 68001, Note_off_c, 0, 62, 107
1, 68001, Note_on_c, 0, 58, 99
1, 68051, Note_off_c, 0, 58, 99
1, 68082, Note_on_c, 0, 55, 86
1, 68164, Note_off_c, 0, 55, 86
1, 68179, Note_on_c, 0, 60, 94
1, 68282, Note_off_c, 0, 60, 94
1, 68358, Note_on_c, 0, 58, 97
1, 68405, Note_off_c, 0, 58, 97
1, 68452, Note_on_c, 0, 60, 97
1, 68502, Note_off_c, 0, 60, 97
1, 68552, Note_on_c, 0, 62, 98
1, 68634, Note_off_c, 0, 62, 98
1, 68734, Note_on_c, 0, 69, 118
1, 68765, Note_off_c, 0, 69, 118
1, 68765, Note_on_c, 0, 70, 116
1, 68823, Note_off_c, 0, 70, 116
1, 68823, Note_on_c, 0, 69, 114
1, 68886, Note_off_c, 0, 69, 114
1, 68891, Note_on_c, 0, 67, 108
1, 68962, Note_off_c, 0, 67, 108
1, 69004, Note_on_c, 0, 64, 100
1, 69064, Note_off_c, 0, 64, 100
1, 69064, Note_on_c, 0, 69, 107
1, 69114, Note_off_c, 0, 69, 107
1, 69114, Note_on_c, 0, 70, 116
1, 69164, Note_off_c, 0, 70, 116
1, 69164, Note_on_c, 0, 69, 115
1, 69232, Note_off_c, 0, 69, 115
1, 69245, Note_on_c, 0, 67, 108
1, 69327, Note_off_c, 0, 67, 108
1, 69374, Note_on_c, 0, 64, 95
1, 69448, Note_off_c, 0, 64, 95
1, 69474, Note_on_c, 0, 70, 115
1, 69537, Note_off_c, 0, 70, 115
1, 69542, Note_on_c, 0, 69, 113
1, 69632, Note_off_c, 0, 69, 113
1, 69632, Note_on_c, 0, 67, 107
1, 69716, Note_off_c, 0, 67, 107
1, 69771, Note_on_c, 0, 64, 91
1, 69834, Note_off_c, 0, 64, 91
1, 69834, Note_on_c, 0, 69, 106
1, 69886, Note_off_c, 0, 69, 106
1, 69886, Note_on_c, 0, 70, 118
1, 69933, Note_off_c, 0, 70, 118
1, 69948, Note_on_c, 0, 69, 109
1, 70008, Note_on_c, 0, 67, 106
1, 70008, Note_off_c, 0, 69, 109
1, 70095, Note_off_c, 0, 67, 106
1, 70150, Note_on_c, 0, 64, 91
1, 70210, Note_off_c, 0, 64, 91
1, 70249, Note_on_c, 0, 69, 112
1, 70291, Note_off_c, 0, 69, 112
1, 70291, Note_on_c, 0, 70, 113
1, 70338, Note_off_c, 0, 70, 113
1, 70338, Note_on_c, 0, 69, 114
1, 70383, Note_off_c, 0, 69, 114
1, 70383, Note_on_c, 0, 67, 106
1, 70462, Note_off_c, 0, 67, 106
1, 70512, Note_on_c, 0, 64, 83
1, 70570, Note_off_c, 0, 64, 83
1, 70583, Note_on_c, 0, 69, 105
1, 70635, Note_off_c, 0, 69, 105
1, 70635, Note_on_c, 0, 70, 117
1, 70661, Note_off_c, 0, 70, 117
1, 70671, Note_on_c, 0, 69, 112
1, 70737, Note_off_c, 0, 69, 112
1, 70763, Note_on_c, 0, 67, 105
1, 70839, Note_off_c, 0, 67, 105
1, 70854, Note_on_c, 0, 63, 108
1, 71024, Note_off_c, 0, 63, 108
1, 71102, Note_on_c, 0, 58, 96
1, 71165, Note_off_c, 0, 58, 96
1, 71178, Note_on_c, 0, 60, 95
1, 71252, Note_off_c, 0, 60, 95
1, 71294, Note_on_c, 0, 62, 102
1, 71360, Note_off_c, 0, 62, 102
1, 71375, Note_on_c, 0, 63, 101
1, 71454, Note_off_c, 0, 63, 101
1, 71475, Note_on_c, 0, 65, 105
1, 71535, Note_on_c, 0, 67, 108
1, 71535, Note_off_c, 0, 65, 105
1, 71635, Note_off_c, 0, 67, 108
1, 71645, Note_on_c, 0, 65, 100
1, 71687, Note_off_c, 0, 65, 100
1, 71694, Note_on_c, 0, 66, 109
1, 71836, Note_off_c, 0, 66, 109
1, 72481, Note_on_c, 0, 62, 99
1, 72533, Note_off_c, 0, 62, 99
1, 72572, Note_on_c, 0, 64, 101
1, 72630, Note_off_c, 0, 64, 101
1, 72640, Note_on_c, 0, 65, 102
1, 72730, Note_off_c, 0, 65, 102
1, 72775, Note_on_c, 0, 67, 95
1, 72830, Note_off_c, 0, 67, 95
1, 72830, Note_on_c, 0, 68, 103
1, 72912, Note_off_c, 0, 68, 103
1, 72962, Note_on_c, 0, 70, 113
1, 73009, Note_off_c, 0, 70, 113
1, 73019, Note_on_c, 0, 71, 109
1, 73130, Note_off_c, 0, 71, 109
1, 73130, Note_on_c, 0, 72, 111
1, 73209, Note_off_c, 0, 72, 111
1, 73209, Note_on_c, 0, 74, 120
1, 73299, Note_off_c, 0, 74, 120
1, 73299, Note_on_c, 0, 76, 118
1, 73389, Note_on_c, 0, 77, 116
1, 73389, Note_off_c, 0, 76, 118
1, 73494, Note_off_c, 0, 77, 116
1, 73494, Note_on_c, 0, 75, 112
1, 73581, Note_off_c, 0, 75, 112
1, 73581, Note_on_c, 0, 76, 112
1, 73655, Note_off_c, 0, 76, 112
1, 73715, Note_on_c, 0, 69, 109
1, 73842, Note_off_c, 0, 69, 109
1, 73990, Note_on_c, 0, 69, 93
1, 74170, Note_off_c, 0, 69, 93
1, 74363, Note_on_c, 0, 75, 113
1, 74437, Note_off_c, 0, 75, 113
1, 74521, Note_on_c, 0, 68, 104
1, 74701, Note_off_c, 0, 68, 104
1, 74791, Note_on_c, 0, 68, 89
1, 74960, Note_off_c, 0, 68, 89
1, 75343, Note_on_c, 0, 62, 102
1, 75401, Note_off_c, 0, 62, 102
1, 75446, Note_on_c, 0, 64, 109
1, 75493, Note_off_c, 0, 64, 109
1, 75493, Note_on_c, 0, 66, 97
1, 75583, Note_off_c, 0, 66, 97
1, 75628, Note_on_c, 0, 67, 93
1, 75702, Note_off_c, 0, 67, 93
1, 75709, Note_on_c, 0, 69, 117
1, 75791, Note_off_c, 0, 69, 117
1, 75801, Note_on_c, 0, 66, 103
1, 75875, Note_off_c, 0, 66, 103
1, 75893, Note_on_c, 0, 67, 95
1, 75975, Note_off_c, 0, 67, 95
1, 76001, Note_on_c, 0, 69, 111
1, 76053, Note_off_c, 0, 69, 111
1, 76076, Note_on_c, 0, 71, 95
1, 76147, Note_off_c, 0, 71, 95
1, 76184, Note_on_c, 0, 72, 99
1, 76242, Note_off_c, 0, 72, 99
1, 76242, Note_on_c, 0, 74, 116
1, 76316, Note_off_c, 0, 74, 116
1, 76363, Note_on_c, 0, 72, 116
1, 76434, Note_off_c, 0, 72, 116
1, 76434, Note_on_c, 0, 71, 106
1, 76508, Note_off_c, 0, 71, 106
1, 76539, Note_on_c, 0, 69, 111
1, 76613, Note_off_c, 0, 69, 111
1, 76634, Note_on_c, 0, 67, 107
1, 76724, Note_off_c, 0, 67, 107
1, 76742, Note_on_c, 0, 67, 99
1, 76853, Note_off_c, 0, 67, 99
1, 76853, End_track
0, 0, End_of_file
