0, 0, Header, 1, 1, 192
1, 0, Start_track
1, 0, Title_t, "Melody"
1, 0, Tempo, 387096
1, 0, Key_signature, 4, "major"
1, 0, Time_signature, 4, 2, 24, 8
1, 1127, Note_on_c, 0, 67, 114
1, 1170, Note_off_c, 0, 67, 114
1, 1182, Note_on_c, 0, 68, 99
1, 1235, Note_off_c, 0, 68, 99
1, 1242, Note_on_c, 0, 67, 115
1, 1434, Note_off_c, 0, 67, 115
1, 1445, Note_on_c, 0, 66, 110
1, 1532, Note_off_c, 0, 66, 110
1, 1543, Note_on_c, 0, 64, 107
1, 1632, Note_off_c, 0, 64, 107
1, 1640, Note_on_c, 0, 61, 100
1, 1713, Note_off_c, 0, 61, 100
1, 1750, Note_on_c, 0, 56, 88
1, 1804, Note_off_c, 0, 56, 88
1, 1819, Note_on_c, 0, 61, 86
1, 2281, Note_off_c, 0, 61, 86
1, 2947, Note_on_c, 0, 71, 120
1, 3152, Note_off_c, 0, 71, 120
1, 3169, Note_on_c, 0, 69, 114
1, 3229, Note_off_c, 0, 69, 114
1, 3247, Note_on_c, 0, 71, 114
1, 3301, Note_off_c, 0, 71, 114
1, 3323, Note_on_c, 0, 69, 113
1, 3407, Note_off_c, 0, 69, 113
1, 3414, Note_on_c, 0, 67, 115
1, 3481, Note_off_c, 0, 67, 115
1, 3500, Note_on_c, 0, 68, 106
1, 3579, Note_off_c, 0, 68, 106
1, 3592, Note_on_c, 0, 68, 95
1, 4215, Note_off_c, 0, 68, 95
1, 4252, Note_on_c, 0, 66, 108
1, 4291, Note_off_c, 0, 66, 108
1, 4300, Note_on_c, 0, 68, 110
1, 4351, Note_off_c, 0, 68, 110
1, 4365, Note_on_c, 0, 66, 106
1, 4427, Note_off_c, 0, 66, 106
1, 4470, Note_on_c, 0, 67, 110
1, 4508, Note_off_c, 0, 67, 110
1, 4518, Note_on_c, 0, 68, 109
1, 4593, Note_off_c, 0, 68, 109
1, 4599, Note_on_c, 0, 68, 112
1, 4670, Note_off_c, 0, 68, 112
1, 4708, Note_on_c, 0, 66, 111
1, 4743, Note_off_c, 0, 66, 111
1, 4759, Note_on_c, 0, 68, 110
1, 4805, Note_off_c, 0, 68, 110
1, 4817, Note_on_c, 0, 66, 111
1, 4883, Note_off_c, 0, 66, 111
1, 4894, Note_on_c, 0, 64, 108
1, 4975, Note_off_c, 0, 64, 108
1, 4981, Note_on_c, 0, 61, 89
1, 5442, Note_off_c, 0, 61, 89
1, 5484, Note_on_c, 0, 56, 93
1, 5542, Note_off_c, 0, 56, 93
1, 5555, Note_on_c, 0, 59, 92
1, 5596, Note_off_c, 0, 59, 92
1, 5612, Note_on_c, 0, 63, 88
1, 5654, Note_off_c, 0, 63, 88
1, 5698, Note_on_c, 0, 58, 83
1, 6038, Note_off_c, 0, 58, 83
1, 6432, Note_on_c, 0, 68, 121
1, 6497, Note_off_c, 0, 68, 121
1, 6507, Note_on_c, 0, 67, 113
1, 6562, Note_off_c, 0, 67, 113
1, 6573, Note_on_c, 0, 64, 87
1, 6596, Note_off_c, 0, 64, 87
1, 6607, Note_on_c, 0, 61, 100
1, 6671, Note_off_c, 0, 61, 100
1, 6692, Note_on_c, 0, 64, 114
1, 6778, Note_off_c, 0, 64, 114
1, 6785, Note_on_c, 0, 63, 109
1, 6851, Note_off_c, 0, 63, 109
1, 6873, Note_on_c, 0, 61, 96
1, 6927, Note_off_c, 0, 61, 96
1, 6933, Note_on_c, 0, 60, 95
1, 6963, Note_off_c, 0, 60, 95
1, 6996, Note_on_c, 0, 63, 108
1, 7063, Note_off_c, 0, 63, 108
1, 7070, Note_on_c, 0, 61, 87
1, 7390, Note_off_c, 0, 61, 87
1, 7960, Note_on_c, 0, 68, 114
1, 8020, Note_off_c, 0, 68, 114
1, 8065, Note_on_c, 0, 73, 121
1, 8144, Note_off_c, 0, 73, 121
1, 8160, Note_on_c, 0, 75, 122
1, 8275, Note_off_c, 0, 75, 122
1, 8279, Note_on_c, 0, 76, 116
1, 8391, Note_off_c, 0, 76, 116
1, 8433, Note_on_c, 0, 68, 110
1, 8523, Note_off_c, 0, 68, 110
1, 8570, Note_on_c, 0, 69, 111
1, 8777, Note_off_c, 0, 69, 111
1, 8796, Note_on_c, 0, 71, 107
1, 8816, Note_off_c, 0, 71, 107
1, 8820, Note_on_c, 0, 73, 105
1, 8858, Note_off_c, 0, 73, 105
1, 8864, Note_on_c, 0, 71, 100
1, 8888, Note_off_c, 0, 71, 100
1, 8896, Note_on_c, 0, 69, 111
1, 8962, Note_off_c, 0, 69, 111
1, 8969, Note_on_c, 0, 71, 93
1, 8992, Note_off_c, 0, 71, 93
1, 8998, Note_on_c, 0, 73, 106
1, 9043, Note_off_c, 0, 73, 106
1, 9047, Note_on_c, 0, 71, 104
1, 9071, Note_off_c, 0, 71, 104
1, 9087, Note_on_c, 0, 69, 109
1, 9147, Note_off_c, 0, 69, 109
1, 9156, Note_on_c, 0, 71, 100
1, 9176, Note_off_c, 0, 71, 100
1, 9181, Note_on_c, 0, 73, 106
1, 9214, Note_off_c, 0, 73, 106
1, 9223, Note_on_c, 0, 71, 97
1, 9249, Note_off_c, 0, 71, 97
1, 9265, Note_on_c, 0, 69, 109
1, 9335, Note_off_c, 0, 69, 109
1, 9341, Note_on_c, 0, 68, 105
1, 9396, Note_off_c, 0, 68, 105
1, 9405, Note_on_c, 0, 64, 110
1, 9461, Note_off_c, 0, 64, 110
1, 9467, Note_on_c, 0, 61, 95
1, 9924, Note_off_c, 0, 61, 95
1, 9946, Note_on_c, 0, 63, 97
1, 9980, Note_off_c, 0, 63, 97
1, 9981, Note_on_c, 0, 68, 106
1, 10093, Note_off_c, 0, 68, 106
1, 10110, Note_on_c, 0, 66, 111
1, 10202, Note_off_c, 0, 66, 111
1, 10217, Note_on_c, 0, 61, 103
1, 10288, Note_off_c, 0, 61, 103
1, 10313, Note_on_c, 0, 59, 94
1, 10653, Note_off_c, 0, 59, 94
1, 10670, Note_on_c, 0, 68, 88
1, 10686, Note_off_c, 0, 68, 88
1, 10691, Note_on_c, 0, 70, 100
1, 10712, Note_off_c, 0, 70, 100
1, 10716, Note_on_c, 0, 68, 102
1, 10745, Note_off_c, 0, 68, 102
1, 10780, Note_on_c, 0, 66, 109
1, 10858, Note_off_c, 0, 66, 109
1, 10886, Note_on_c, 0, 64, 109
1, 10924, Note_off_c, 0, 64, 109
1, 10943, Note_on_c, 0, 61, 99
1, 10973, Note_off_c, 0, 61, 99
1, 10995, Note_on_c, 0, 56, 92
1, 11453, Note_off_c, 0, 56, 92
1, 11483, Note_on_c, 0, 63, 95
1, 11504, Note_off_c, 0, 63, 95
1, 11510, Note_on_c, 0, 65, 102
1, 11541, Note_off_c, 0, 65, 102
1, 11545, Note_on_c, 0, 63, 94
1, 11567, Note_off_c, 0, 63, 94
1, 11584, Note_on_c, 0, 60, 88
1, 11622, Note_off_c, 0, 60, 88
1, 11628, Note_on_c, 0, 61, 90
1, 11658, Note_off_c, 0, 61, 90
1, 11669, Note_on_c, 0, 63, 94
1, 11711, Note_off_c, 0, 63, 94
1, 11724, Note_on_c, 0, 66, 90
1, 11749, Note_off_c, 0, 66, 90
1, 11758, Note_on_c, 0, 68, 107
1, 11810, Note_off_c, 0, 68, 107
1, 11820, Note_on_c, 0, 71, 103
1, 11894, Note_off_c, 0, 71, 103
1, 12195, Note_on_c, 0, 68, 100
1, 12232, Note_off_c, 0, 68, 100
1, 12236, Note_on_c, 0, 70, 108
1, 12297, Note_off_c, 0, 70, 108
1, 12507, Note_on_c, 0, 68, 113
1, 12550, Note_off_c, 0, 68, 113
1, 12553, Note_on_c, 0, 67, 107
1, 12599, Note_off_c, 0, 67, 107
1, 12612, Note_on_c, 0, 58, 91
1, 12643, Note_off_c, 0, 58, 91
1, 12659, Note_on_c, 0, 61, 85
1, 12684, Note_off_c, 0, 61, 85
1, 12714, Note_on_c, 0, 64, 113
1, 12743, Note_off_c, 0, 64, 113
1, 12749, Note_on_c, 0, 63, 111
1, 12801, Note_off_c, 0, 63, 111
1, 12810, Note_on_c, 0, 61, 100
1, 12924, Note_off_c, 0, 61, 100
1, 12946, Note_on_c, 0, 60, 93
1, 13178, Note_off_c, 0, 60, 93
1, 13201, Note_on_c, 0, 64, 95
1, 13223, Note_off_c, 0, 64, 95
1, 13231, Note_on_c, 0, 66, 101
1, 13259, Note_off_c, 0, 66, 101
1, 13259, Note_on_c, 0, 69, 109
1, 13305, Note_off_c, 0, 69, 109
1, 13312, Note_on_c, 0, 68, 102
1, 13366, Note_off_c, 0, 68, 102
1, 13987, Note_on_c, 0, 68, 114
1, 14021, Note_off_c, 0, 68, 114
1, 14034, Note_on_c, 0, 65, 103
1, 14077, Note_off_c, 0, 65, 103
1, 14081, Note_on_c, 0, 66, 106
1, 14114, Note_off_c, 0, 66, 106
1, 14128, Note_on_c, 0, 68, 101
1, 14161, Note_off_c, 0, 68, 101
1, 14172, Note_on_c, 0, 69, 109
1, 14214, Note_off_c, 0, 69, 109
1, 14219, Note_on_c, 0, 71, 114
1, 14251, Note_off_c, 0, 71, 114
1, 14260, Note_on_c, 0, 73, 100
1, 14294, Note_off_c, 0, 73, 100
1, 14301, Note_on_c, 0, 76, 109
1, 14364, Note_off_c, 0, 76, 109
1, 14389, Note_on_c, 0, 73, 80
1, 14415, Note_off_c, 0, 73, 80
1, 14427, Note_on_c, 0, 76, 100
1, 14526, Note_off_c, 0, 76, 100
1, 14729, Note_on_c, 0, 71, 100
1, 14756, Note_off_c, 0, 71, 100
1, 14762, Note_on_c, 0, 69, 101
1, 14793, Note_off_c, 0, 69, 101
1, 14811, Note_on_c, 0, 66, 107
1, 14851, Note_off_c, 0, 66, 107
1, 14868, Note_on_c, 0, 68, 101
1, 14901, Note_off_c, 0, 68, 101
1, 14908, Note_on_c, 0, 69, 100
1, 14939, Note_off_c, 0, 69, 100
1, 14947, Note_on_c, 0, 71, 107
1, 14991, Note_off_c, 0, 71, 107
1, 14998, Note_on_c, 0, 73, 102
1, 15029, Note_off_c, 0, 73, 102
1, 15491, Note_on_c, 0, 73, 119
1, 15527, Note_off_c, 0, 73, 119
1, 15542, Note_on_c, 0, 72, 114
1, 15577, Note_off_c, 0, 72, 114
1, 15586, Note_on_c, 0, 71, 103
1, 15617, Note_off_c, 0, 71, 103
1, 15638, Note_on_c, 0, 69, 104
1, 15699, Note_off_c, 0, 69, 104
1, 15869, Note_on_c, 0, 73, 101
1, 15920, Note_off_c, 0, 73, 101
1, 15931, Note_on_c, 0, 72, 113
1, 15973, Note_off_c, 0, 72, 113
1, 15977, Note_on_c, 0, 71, 101
1, 16008, Note_off_c, 0, 71, 101
1, 16013, Note_on_c, 0, 68, 98
1, 16076, Note_off_c, 0, 68, 98
1, 16234, Note_on_c, 0, 73, 111
1, 16276, Note_off_c, 0, 73, 111
1, 16280, Note_on_c, 0, 72, 116
1, 16323, Note_off_c, 0, 72, 116
1, 16327, Note_on_c, 0, 71, 106
1, 16355, Note_off_c, 0, 71, 106
1, 16367, Note_on_c, 0, 66, 106
1, 16428, Note_off_c, 0, 66, 106
1, 16600, Note_on_c, 0, 73, 109
1, 16646, Note_off_c, 0, 73, 109
1, 16651, Note_on_c, 0, 72, 116
1, 16707, Note_off_c, 0, 72, 116
1, 16711, Note_on_c, 0, 71, 105
1, 16737, Note_off_c, 0, 71, 105
1, 16753, Note_on_c, 0, 64, 109
1, 16823, Note_off_c, 0, 64, 109
1, 17204, Note_on_c, 0, 68, 121
1, 17266, Note_off_c, 0, 68, 121
1, 17275, Note_on_c, 0, 66, 106
1, 17323, Note_off_c, 0, 66, 106
1, 17335, Note_on_c, 0, 69, 111
1, 17387, Note_off_c, 0, 69, 111
1, 17392, Note_on_c, 0, 73, 118
1, 17452, Note_off_c, 0, 73, 118
1, 17471, Note_on_c, 0, 76, 108
1, 17577, Note_off_c, 0, 76, 108
1, 17677, Note_on_c, 0, 79, 121
1, 17727, Note_off_c, 0, 79, 121
1, 17734, Note_on_c, 0, 80, 113
1, 17841, Note_off_c, 0, 80, 113
1, 17871, Note_on_c, 0, 78, 119
1, 17955, Note_off_c, 0, 78, 119
1, 17965, Note_on_c, 0, 76, 122
1, 18054, Note_off_c, 0, 76, 122
1, 18061, Note_on_c, 0, 75, 124
1, 18143, Note_off_c, 0, 75, 124
1, 18149, Note_on_c, 0, 73, 116
1, 18233, Note_off_c, 0, 73, 116
1, 18241, Note_on_c, 0, 71, 111
1, 18261, Note_off_c, 0, 71, 111
1, 18265, Note_on_c, 0, 73, 111
1, 18290, Note_off_c, 0, 73, 111
1, 18303, Note_on_c, 0, 71, 108
1, 18338, Note_off_c, 0, 71, 108
1, 18348, Note_on_c, 0, 69, 110
1, 18420, Note_off_c, 0, 69, 110
1, 18429, Note_on_c, 0, 68, 104
1, 18475, Note_off_c, 0, 68, 104
1, 18485, Note_on_c, 0, 63, 102
1, 18541, Note_off_c, 0, 63, 102
1, 18544, Note_on_c, 0, 66, 118
1, 18609, Note_off_c, 0, 66, 118
1, 18629, Note_on_c, 0, 63, 113
1, 18705, Note_off_c, 0, 63, 113
1, 18709, Note_on_c, 0, 64, 113
1, 18808, Note_off_c, 0, 64, 113
1, 18816, Note_on_c, 0, 68, 115
1, 18903, Note_off_c, 0, 68, 115
1, 18912, Note_on_c, 0, 71, 113
1, 18986, Note_off_c, 0, 71, 113
1, 19009, Note_on_c, 0, 68, 99
1, 19086, Note_off_c, 0, 68, 99
1, 19095, Note_on_c, 0, 69, 112
1, 19174, Note_off_c, 0, 69, 112
1, 19197, Note_on_c, 0, 73, 117
1, 19264, Note_off_c, 0, 73, 117
1, 19283, Note_on_c, 0, 76, 113
1, 19397, Note_off_c, 0, 76, 113
1, 19421, Note_on_c, 0, 73, 109
1, 19469, Note_off_c, 0, 73, 109
1, 19470, Note_on_c, 0, 74, 106
1, 19554, Note_off_c, 0, 74, 106
1, 19585, Note_on_c, 0, 72, 112
1, 19664, Note_off_c, 0, 72, 112
1, 19669, Note_on_c, 0, 71, 111
1, 19738, Note_off_c, 0, 71, 111
1, 19762, Note_on_c, 0, 69, 111
1, 19831, Note_off_c, 0, 69, 111
1, 19869, Note_on_c, 0, 67, 114
1, 19953, Note_off_c, 0, 67, 114
1, 19956, Note_on_c, 0, 68, 114
1, 20051, Note_off_c, 0, 68, 114
1, 20058, Note_on_c, 0, 61, 94
1, 20602, Note_off_c, 0, 61, 94
1, 20823, Note_on_c, 0, 69, 112
1, 20901, Note_off_c, 0, 69, 112
1, 20923, Note_on_c, 0, 71, 114
1, 20994, Note_off_c, 0, 71, 114
1, 21003, Note_on_c, 0, 72, 116
1, 21086, Note_off_c, 0, 72, 116
1, 21093, Note_on_c, 0, 74, 121
1, 21170, Note_off_c, 0, 74, 121
1, 21180, Note_on_c, 0, 76, 122
1, 21267, Note_off_c, 0, 76, 122
1, 21279, Note_on_c, 0, 78, 116
1, 21353, Note_off_c, 0, 78, 116
1, 21391, Note_on_c, 0, 81, 116
1, 21482, Note_off_c, 0, 81, 116
1, 21487, Note_on_c, 0, 80, 115
1, 21774, Note_off_c, 0, 80, 115
1, 21794, Note_on_c, 0, 80, 98
1, 21910, Note_off_c, 0, 80, 98
1, 22338, Note_on_c, 0, 80, 112
1, 22380, Note_off_c, 0, 80, 112
1, 22385, Note_on_c, 0, 81, 92
1, 22501, Note_off_c, 0, 81, 92
1, 22543, Note_on_c, 0, 77, 75
1, 22573, Note_off_c, 0, 77, 75
1, 22628, Note_on_c, 0, 78, 119
1, 22714, Note_off_c, 0, 78, 119
1, 22734, Note_on_c, 0, 76, 121
1, 22804, Note_off_c, 0, 76, 121
1, 22808, Note_on_c, 0, 75, 119
1, 22886, Note_off_c, 0, 75, 119
1, 22909, Note_on_c, 0, 73, 113
1, 22996, Note_off_c, 0, 73, 113
1, 23005, Note_on_c, 0, 68, 111
1, 23094, Note_off_c, 0, 68, 111
1, 23172, Note_on_c, 0, 61, 100
1, 23196, Note_off_c, 0, 61, 100
1, 23207, Note_on_c, 0, 68, 112
1, 23349, Note_off_c, 0, 68, 112
1, 23374, Note_on_c, 0, 64, 108
1, 23464, Note_off_c, 0, 64, 108
1, 23559, Note_on_c, 0, 58, 96
1, 23583, Note_off_c, 0, 58, 96
1, 23593, Note_on_c, 0, 64, 111
1, 23731, Note_off_c, 0, 64, 111
1, 23744, Note_on_c, 0, 61, 102
1, 23848, Note_off_c, 0, 61, 102
1, 23868, Note_on_c, 0, 56, 88
1, 23914, Note_off_c, 0, 56, 88
1, 23937, Note_on_c, 0, 59, 91
1, 24052, Note_off_c, 0, 59, 91
1, 24065, Note_on_c, 0, 58, 94
1, 24287, Note_off_c, 0, 58, 94
1, 24328, Note_on_c, 0, 61, 93
1, 24355, Note_off_c, 0, 61, 93
1, 24365, Note_on_c, 0, 64, 97
1, 24395, Note_off_c, 0, 64, 97
1, 24430, Note_on_c, 0, 68, 116
1, 24496, Note_off_c, 0, 68, 116
1, 24512, Note_on_c, 0, 67, 111
1, 24569, Note_off_c, 0, 67, 111
1, 24822, Note_on_c, 0, 69, 114
1, 24891, Note_off_c, 0, 69, 114
1, 24914, Note_on_c, 0, 68, 112
1, 24984, Note_off_c, 0, 68, 112
1, 25197, Note_on_c, 0, 75, 125
1, 25281, Note_off_c, 0, 75, 125
1, 25286, Note_on_c, 0, 73, 110
1, 25504, Note_off_c, 0, 73, 110
1, 25834, Note_on_c, 0, 68, 108
1, 25860, Note_off_c, 0, 68, 108
1, 25877, Note_on_c, 0, 70, 93
1, 25903, Note_off_c, 0, 70, 93
1, 25913, Note_on_c, 0, 73, 115
1, 25980, Note_off_c, 0, 73, 115
1, 26021, Note_on_c, 0, 75, 123
1, 26119, Note_off_c, 0, 75, 123
1, 26144, Note_on_c, 0, 73, 106
1, 26184, Note_off_c, 0, 73, 106
1, 26195, Note_on_c, 0, 75, 120
1, 26304, Note_off_c, 0, 75, 120
1, 26313, Note_on_c, 0, 73, 115
1, 26405, Note_off_c, 0, 73, 115
1, 26425, Note_on_c, 0, 69, 105
1, 26471, Note_off_c, 0, 69, 105
1, 26473, Note_on_c, 0, 70, 105
1, 26558, Note_off_c, 0, 70, 105
1, 26566, Note_on_c, 0, 70, 112
1, 26652, Note_off_c, 0, 70, 112
1, 26717, Note_on_c, 0, 73, 114
1, 26794, Note_off_c, 0, 73, 114
1, 26829, Note_on_c, 0, 75, 118
1, 26905, Note_off_c, 0, 75, 118
1, 26913, Note_on_c, 0, 73, 114
1, 26997, Note_off_c, 0, 73, 114
1, 27004, Note_on_c, 0, 75, 120
1, 27079, Note_off_c, 0, 75, 120
1, 27092, Note_on_c, 0, 74, 107
1, 27107, Note_off_c, 0, 74, 107
1, 27109, Note_on_c, 0, 76, 114
1, 27175, Note_off_c, 0, 76, 114
1, 27191, Note_on_c, 0, 68, 103
1, 27224, Note_off_c, 0, 68, 103
1, 27235, Note_on_c, 0, 69, 98
1, 27317, Note_off_c, 0, 69, 98
1, 27340, Note_on_c, 0, 69, 114
1, 27409, Note_off_c, 0, 69, 114
1, 27470, Note_on_c, 0, 73, 115
1, 27547, Note_off_c, 0, 73, 115
1, 27580, Note_on_c, 0, 75, 122
1, 27658, Note_off_c, 0, 75, 122
1, 27661, Note_on_c, 0, 73, 116
1, 27745, Note_off_c, 0, 73, 116
1, 27752, Note_on_c, 0, 75, 122
1, 27842, Note_off_c, 0, 75, 122
1, 27849, Note_on_c, 0, 73, 116
1, 27929, Note_off_c, 0, 73, 116
1, 27952, Note_on_c, 0, 68, 97
1, 27998, Note_off_c, 0, 68, 97
1, 28003, Note_on_c, 0, 70, 96
1, 28068, Note_off_c, 0, 70, 96
1, 28086, Note_on_c, 0, 70, 111
1, 28162, Note_off_c, 0, 70, 111
1, 28228, Note_on_c, 0, 75, 118
1, 28302, Note_off_c, 0, 75, 118
1, 28376, Note_on_c, 0, 75, 117
1, 28472, Note_off_c, 0, 75, 117
1, 28477, Note_on_c, 0, 73, 114
1, 28567, Note_off_c, 0, 73, 114
1, 28584, Note_on_c, 0, 69, 113
1, 28664, Note_off_c, 0, 69, 113
1, 28679, Note_on_c, 0, 68, 113
1, 28759, Note_off_c, 0, 68, 113
1, 28773, Note_on_c, 0, 66, 115
1, 28852, Note_off_c, 0, 66, 115
1, 28867, Note_on_c, 0, 64, 116
1, 28939, Note_off_c, 0, 64, 116
1, 28968, Note_on_c, 0, 61, 103
1, 29029, Note_off_c, 0, 61, 103
1, 29051, Note_on_c, 0, 56, 98
1, 29319, Note_off_c, 0, 56, 98
1, 29331, Note_on_c, 0, 59, 81
1, 29395, Note_off_c, 0, 59, 81
1, 29444, Note_on_c, 0, 63, 112
1, 29536, Note_off_c, 0, 63, 112
1, 29559, Note_on_c, 0, 60, 88
1, 29608, Note_off_c, 0, 60, 88
1, 29622, Note_on_c, 0, 61, 88
1, 29693, Note_off_c, 0, 61, 88
1, 29728, Note_on_c, 0, 63, 9
1, 29807, Note_off_c, 0, 63, 9
1, 29828, Note_on_c, 0, 64, 101
1, 29903, Note_off_c, 0, 64, 101
1, 29910, Note_on_c, 0, 66, 110
1, 29988, Note_off_c, 0, 66, 110
1, 30029, Note_on_c, 0, 68, 107
1, 30090, Note_off_c, 0, 68, 107
1, 30115, Note_on_c, 0, 71, 106
1, 30184, Note_off_c, 0, 71, 106
1, 30226, Note_on_c, 0, 75, 118
1, 30309, Note_off_c, 0, 75, 118
1, 30318, Note_on_c, 0, 73, 108
1, 30381, Note_off_c, 0, 73, 108
1, 30406, Note_on_c, 0, 71, 101
1, 30472, Note_off_c, 0, 71, 101
1, 30502, Note_on_c, 0, 68, 102
1, 30559, Note_off_c, 0, 68, 102
1, 30589, Note_on_c, 0, 70, 103
1, 30662, Note_off_c, 0, 70, 103
1, 30697, Note_on_c, 0, 61, 87
1, 30761, Note_off_c, 0, 61, 87
1, 30773, Note_on_c, 0, 64, 96
1, 30863, Note_off_c, 0, 64, 96
1, 30893, Note_on_c, 0, 68, 102
1, 30960, Note_off_c, 0, 68, 102
1, 30968, Note_on_c, 0, 67, 99
1, 31070, Note_off_c, 0, 67, 99
1, 31079, Note_on_c, 0, 66, 109
1, 31140, Note_off_c, 0, 66, 109
1, 31171, Note_on_c, 0, 64, 105
1, 31218, Note_off_c, 0, 64, 105
1, 31295, Note_on_c, 0, 61, 92
1, 31330, Note_off_c, 0, 61, 92
1, 31335, Note_on_c, 0, 63, 99
1, 31459, Note_off_c, 0, 63, 99
1, 31469, Note_on_c, 0, 61, 97
1, 31649, Note_off_c, 0, 61, 97
1, 32195, Note_on_c, 0, 69, 113
1, 32268, Note_off_c, 0, 69, 113
1, 32287, Note_on_c, 0, 73, 114
1, 32369, Note_off_c, 0, 73, 114
1, 32386, Note_on_c, 0, 76, 124
1, 32476, Note_off_c, 0, 76, 124
1, 32515, Note_on_c, 0, 79, 123
1, 32584, Note_off_c, 0, 79, 123
1, 32595, Note_on_c, 0, 80, 118
1, 33038, Note_off_c, 0, 80, 118
1, 33045, Note_on_c, 0, 79, 111
1, 33103, Note_off_c, 0, 79, 111
1, 33113, Note_on_c, 0, 76, 112
1, 33160, Note_off_c, 0, 76, 112
1, 33175, Note_on_c, 0, 76, 119
1, 33245, Note_off_c, 0, 76, 119
1, 33283, Note_on_c, 0, 73, 109
1, 33363, Note_off_c, 0, 73, 109
1, 33400, Note_on_c, 0, 71, 105
1, 33471, Note_off_c, 0, 71, 105
1, 33489, Note_on_c, 0, 68, 108
1, 33535, Note_off_c, 0, 68, 108
1, 33591, Note_on_c, 0, 67, 116
1, 33652, Note_off_c, 0, 67, 116
1, 33677, Note_on_c, 0, 66, 113
1, 33760, Note_off_c, 0, 66, 113
1, 33773, Note_on_c, 0, 64, 113
1, 33830, Note_off_c, 0, 64, 113
1, 33835, Note_on_c, 0, 61, 105
1, 33903, Note_off_c, 0, 61, 105
1, 33911, Note_on_c, 0, 56, 94
1, 33937, Note_off_c, 0, 56, 94
1, 33954, Note_on_c, 0, 64, 116
1, 34184, Note_off_c, 0, 64, 116
1, 34194, Note_on_c, 0, 66, 105
1, 34553, Note_off_c, 0, 66, 105
1, 34572, Note_on_c, 0, 68, 93
1, 34592, Note_off_c, 0, 68, 93
1, 34597, Note_on_c, 0, 70, 97
1, 34627, Note_off_c, 0, 70, 97
1, 34634, Note_on_c, 0, 68, 103
1, 34667, Note_off_c, 0, 68, 103
1, 34682, Note_on_c, 0, 66, 103
1, 34740, Note_off_c, 0, 66, 103
1, 34755, Note_on_c, 0, 68, 89
1, 34779, Note_off_c, 0, 68, 89
1, 34784, Note_on_c, 0, 70, 100
1, 34804, Note_off_c, 0, 70, 100
1, 34812, Note_on_c, 0, 68, 104
1, 34852, Note_off_c, 0, 68, 104
1, 34864, Note_on_c, 0, 66, 107
1, 34949, Note_off_c, 0, 66, 107
1, 34968, Note_on_c, 0, 64, 109
1, 35039, Note_off_c, 0, 64, 109
1, 35061, Note_on_c, 0, 61, 101
1, 35138, Note_off_c, 0, 61, 101
1, 35161, Note_on_c, 0, 56, 98
1, 35398, Note_off_c, 0, 56, 98
1, 35414, Note_on_c, 0, 63, 94
1, 35439, Note_off_c, 0, 63, 94
1, 35443, Note_on_c, 0, 65, 106
1, 35471, Note_off_c, 0, 65, 106
1, 35476, Note_on_c, 0, 63, 101
1, 35504, Note_off_c, 0, 63, 101
1, 35511, Note_on_c, 0, 60, 95
1, 35542, Note_off_c, 0, 60, 95
1, 35547, Note_on_c, 0, 61, 90
1, 35581, Note_off_c, 0, 61, 90
1, 35596, Note_on_c, 0, 64, 98
1, 35619, Note_off_c, 0, 64, 98
1, 35623, Note_on_c, 0, 63, 101
1, 35647, Note_off_c, 0, 63, 101
1, 35668, Note_on_c, 0, 66, 105
1, 35696, Note_off_c, 0, 66, 105
1, 35704, Note_on_c, 0, 68, 102
1, 35754, Note_off_c, 0, 68, 102
1, 36188, Note_on_c, 0, 75, 113
1, 36234, Note_off_c, 0, 75, 113
1, 36240, Note_on_c, 0, 72, 114
1, 36270, Note_off_c, 0, 72, 114
1, 36272, Note_on_c, 0, 73, 115
1, 36324, Note_off_c, 0, 73, 115
1, 36340, Note_on_c, 0, 68, 113
1, 36387, Note_off_c, 0, 68, 113
1, 36419, Note_on_c, 0, 61, 93
1, 36447, Note_off_c, 0, 61, 93
1, 36479, Note_on_c, 0, 68, 101
1, 36609, Note_off_c, 0, 68, 101
1, 36925, Note_on_c, 0, 63, 97
1, 36960, Note_off_c, 0, 63, 97
1, 36971, Note_on_c, 0, 67, 102
1, 37037, Note_off_c, 0, 67, 102
1, 37061, Note_on_c, 0, 69, 110
1, 37156, Note_off_c, 0, 69, 110
1, 37170, Note_on_c, 0, 68, 103
1, 37292, Note_off_c, 0, 68, 103
1, 37322, Note_on_c, 0, 63, 109
1, 37370, Note_off_c, 0, 63, 109
1, 37383, Note_on_c, 0, 60, 95
1, 37421, Note_off_c, 0, 60, 95
1, 37426, Note_on_c, 0, 61, 97
1, 37595, Note_off_c, 0, 61, 97
1, 38114, Note_on_c, 0, 68, 119
1, 38170, Note_off_c, 0, 68, 119
1, 38194, Note_on_c, 0, 66, 101
1, 38283, Note_off_c, 0, 66, 101
1, 38292, Note_on_c, 0, 69, 104
1, 38358, Note_off_c, 0, 69, 104
1, 38378, Note_on_c, 0, 73, 117
1, 38457, Note_off_c, 0, 73, 117
1, 38472, Note_on_c, 0, 76, 118
1, 38552, Note_off_c, 0, 76, 118
1, 38598, Note_on_c, 0, 79, 111
1, 38629, Note_off_c, 0, 79, 111
1, 38632, Note_on_c, 0, 80, 98
1, 38714, Note_off_c, 0, 80, 98
1, 38774, Note_on_c, 0, 80, 111
1, 38861, Note_off_c, 0, 80, 111
1, 38959, Note_on_c, 0, 80, 112
1, 39055, Note_off_c, 0, 80, 112
1, 39066, Note_on_c, 0, 78, 107
1, 39143, Note_off_c, 0, 78, 107
1, 39163, Note_on_c, 0, 76, 115
1, 39247, Note_off_c, 0, 76, 115
1, 39272, Note_on_c, 0, 73, 110
1, 39333, Note_off_c, 0, 73, 110
1, 39368, Note_on_c, 0, 69, 106
1, 39447, Note_off_c, 0, 69, 106
1, 39474, Note_on_c, 0, 74, 101
1, 39504, Note_off_c, 0, 74, 101
1, 39509, Note_on_c, 0, 73, 95
1, 39532, Note_off_c, 0, 73, 95
1, 39535, Note_on_c, 0, 69, 96
1, 39551, Note_off_c, 0, 69, 96
1, 39552, Note_on_c, 0, 68, 108
1, 39647, Note_off_c, 0, 68, 108
1, 39659, Note_on_c, 0, 66, 109
1, 39735, Note_off_c, 0, 66, 109
1, 39754, Note_on_c, 0, 71, 116
1, 39828, Note_off_c, 0, 71, 116
1, 39868, Note_on_c, 0, 67, 113
1, 39938, Note_off_c, 0, 67, 113
1, 39940, Note_on_c, 0, 68, 99
1, 40022, Note_off_c, 0, 68, 99
1, 40034, Note_on_c, 0, 71, 116
1, 40124, Note_off_c, 0, 71, 116
1, 40134, Note_on_c, 0, 73, 111
1, 40213, Note_off_c, 0, 73, 111
1, 40223, Note_on_c, 0, 75, 121
1, 40300, Note_off_c, 0, 75, 121
1, 40331, Note_on_c, 0, 78, 118
1, 40409, Note_off_c, 0, 78, 118
1, 40421, Note_on_c, 0, 76, 127
1, 40498, Note_off_c, 0, 76, 127
1, 40503, Note_on_c, 0, 75, 121
1, 40594, Note_off_c, 0, 75, 121
1, 40612, Note_on_c, 0, 71, 115
1, 40687, Note_off_c, 0, 71, 115
1, 40714, Note_on_c, 0, 73, 114
1, 40796, Note_off_c, 0, 73, 114
1, 40803, Note_on_c, 0, 75, 119
1, 40889, Note_off_c, 0, 75, 119
1, 40905, Note_on_c, 0, 73, 101
1, 40934, Note_off_c, 0, 73, 101
1, 40937, Note_on_c, 0, 74, 117
1, 41003, Note_off_c, 0, 74, 117
1, 41027, Note_on_c, 0, 70, 104
1, 41067, Note_off_c, 0, 70, 104
1, 41091, Note_on_c, 0, 72, 115
1, 41171, Note_off_c, 0, 72, 115
1, 41199, Note_on_c, 0, 74, 120
1, 41286, Note_off_c, 0, 74, 120
1, 41300, Note_on_c, 0, 73, 118
1, 41389, Note_off_c, 0, 73, 118
1, 41396, Note_on_c, 0, 69, 104
1, 41465, Note_off_c, 0, 69, 104
1, 41476, Note_on_c, 0, 71, 113
1, 41567, Note_off_c, 0, 71, 113
1, 41571, Note_on_c, 0, 73, 113
1, 41653, Note_off_c, 0, 73, 113
1, 41671, Note_on_c, 0, 68, 110
1, 41709, Note_off_c, 0, 68, 110
1, 41716, Note_on_c, 0, 70, 110
1, 41739, Note_off_c, 0, 70, 110
1, 41746, Note_on_c, 0, 68, 116
1, 41786, Note_off_c, 0, 68, 116
1, 41795, Note_on_c, 0, 69, 98
1, 41825, Note_off_c, 0, 69, 98
1, 41885, Note_on_c, 0, 65, 116
1, 41969, Note_off_c, 0, 65, 116
1, 41984, Note_on_c, 0, 68, 116
1, 42055, Note_off_c, 0, 68, 116
1, 42083, Note_on_c, 0, 66, 100
1, 42155, Note_off_c, 0, 66, 100
1, 42181, Note_on_c, 0, 61, 99
1, 42213, Note_off_c, 0, 61, 99
1, 42245, Note_on_c, 0, 64, 112
1, 42352, Note_off_c, 0, 64, 112
1, 42359, Note_on_c, 0, 62, 112
1, 42423, Note_off_c, 0, 62, 112
1, 42424, Note_on_c, 0, 63, 112
1, 42443, Note_off_c, 0, 63, 112
1, 42449, Note_on_c, 0, 65, 110
1, 42466, Note_off_c, 0, 65, 110
1, 42474, Note_on_c, 0, 66, 106
1, 42493, Note_off_c, 0, 66, 106
1, 42500, Note_on_c, 0, 69, 106
1, 42535, Note_off_c, 0, 69, 106
1, 42541, Note_on_c, 0, 72, 121
1, 42608, Note_off_c, 0, 72, 121
1, 42630, Note_on_c, 0, 71, 116
1, 42717, Note_off_c, 0, 71, 116
1, 42733, Note_on_c, 0, 69, 117
1, 42811, Note_off_c, 0, 69, 117
1, 42830, Note_on_c, 0, 68, 113
1, 42932, Note_off_c, 0, 68, 113
1, 42944, Note_on_c, 0, 63, 107
1, 42995, Note_off_c, 0, 63, 107
1, 43015, Note_on_c, 0, 66, 120
1, 43112, Note_off_c, 0, 66, 120
1, 43125, Note_on_c, 0, 63, 106
1, 43194, Note_off_c, 0, 63, 106
1, 43225, Note_on_c, 0, 64, 114
1, 43304, Note_off_c, 0, 64, 114
1, 43311, Note_on_c, 0, 66, 116
1, 43392, Note_off_c, 0, 66, 116
1, 43419, Note_on_c, 0, 68, 116
1, 43494, Note_off_c, 0, 68, 116
1, 43509, Note_on_c, 0, 71, 108
1, 43591, Note_off_c, 0, 71, 108
1, 43622, Note_on_c, 0, 67, 109
1, 43652, Note_off_c, 0, 67, 109
1, 43657, Note_on_c, 0, 69, 102
1, 43783, Note_off_c, 0, 69, 102
1, 43798, Note_on_c, 0, 68, 116
1, 43875, Note_off_c, 0, 68, 116
1, 43900, Note_on_c, 0, 66, 117
1, 43979, Note_off_c, 0, 66, 117
1, 43994, Note_on_c, 0, 64, 104
1, 44068, Note_off_c, 0, 64, 104
1, 44093, Note_on_c, 0, 62, 115
1, 44180, Note_off_c, 0, 62, 115
1, 44187, Note_on_c, 0, 60, 108
1, 44267, Note_off_c, 0, 60, 108
1, 44277, Note_on_c, 0, 57, 113
1, 44376, Note_off_c, 0, 57, 113
1, 44393, Note_on_c, 0, 56, 103
1, 44482, Note_off_c, 0, 56, 103
1, 44488, Note_on_c, 0, 63, 115
1, 44548, Note_off_c, 0, 63, 115
1, 44573, Note_on_c, 0, 61, 102
1, 44668, Note_off_c, 0, 61, 102
1, 44698, Note_on_c, 0, 58, 89
1, 44933, Note_off_c, 0, 58, 89
1, 45322, Note_on_c, 0, 66, 104
1, 45371, Note_off_c, 0, 66, 104
1, 45383, Note_on_c, 0, 69, 101
1, 45428, Note_off_c, 0, 69, 101
1, 45451, Note_on_c, 0, 72, 116
1, 45517, Note_off_c, 0, 72, 116
1, 45577, Note_on_c, 0, 76, 126
1, 45703, Note_off_c, 0, 76, 126
1, 45715, Note_on_c, 0, 71, 114
1, 45763, Note_off_c, 0, 71, 114
1, 45775, Note_on_c, 0, 69, 114
1, 45823, Note_off_c, 0, 69, 114
1, 45832, Note_on_c, 0, 67, 92
1, 45853, Note_off_c, 0, 67, 92
1, 45861, Note_on_c, 0, 69, 104
1, 45906, Note_off_c, 0, 69, 104
1, 45924, Note_on_c, 0, 67, 116
1, 46025, Note_off_c, 0, 67, 116
1, 46037, Note_on_c, 0, 67, 92
1, 46051, Note_off_c, 0, 67, 92
1, 46054, Note_on_c, 0, 68, 102
1, 46506, Note_off_c, 0, 68, 102
1, 46774, Note_on_c, 0, 65, 118
1, 46838, Note_off_c, 0, 65, 118
1, 46846, Note_on_c, 0, 66, 103
1, 46878, Note_off_c, 0, 66, 103
1, 46888, Note_on_c, 0, 69, 107
1, 46936, Note_off_c, 0, 69, 107
1, 46952, Note_on_c, 0, 73, 116
1, 47029, Note_off_c, 0, 73, 116
1, 47073, Note_on_c, 0, 77, 112
1, 47116, Note_off_c, 0, 77, 112
1, 47120, Note_on_c, 0, 78, 117
1, 47171, Note_off_c, 0, 78, 117
1, 47183, Note_on_c, 0, 80, 89
1, 47209, Note_off_c, 0, 80, 89
1, 47252, Note_on_c, 0, 78, 114
1, 47324, Note_off_c, 0, 78, 114
1, 47368, Note_on_c, 0, 76, 117
1, 47457, Note_off_c, 0, 76, 117
1, 47468, Note_on_c, 0, 73, 113
1, 47539, Note_off_c, 0, 73, 113
1, 47554, Note_on_c, 0, 68, 116
1, 47643, Note_off_c, 0, 68, 116
1, 47658, Note_on_c, 0, 61, 96
1, 48085, Note_off_c, 0, 61, 96
1, 48293, Note_on_c, 0, 67, 116
1, 48323, Note_off_c, 0, 67, 116
1, 48328, Note_on_c, 0, 68, 122
1, 48387, Note_off_c, 0, 68, 122
1, 48399, Note_on_c, 0, 66, 120
1, 48487, Note_off_c, 0, 66, 120
1, 48496, Note_on_c, 0, 64, 116
1, 48581, Note_off_c, 0, 64, 116
1, 48588, Note_on_c, 0, 61, 109
1, 48711, Note_off_c, 0, 61, 109
1, 48721, Note_on_c, 0, 61, 105
1, 48779, Note_off_c, 0, 61, 105
1, 48899, Note_on_c, 0, 68, 118
1, 48980, Note_off_c, 0, 68, 118
1, 48986, Note_on_c, 0, 67, 121
1, 49076, Note_off_c, 0, 67, 121
1, 49101, Note_on_c, 0, 58, 90
1, 49139, Note_off_c, 0, 58, 90
1, 49167, Note_on_c, 0, 61, 103
1, 49268, Note_off_c, 0, 61, 103
1, 49282, Note_on_c, 0, 64, 114
1, 49364, Note_off_c, 0, 64, 114
1, 49374, Note_on_c, 0, 63, 105
1, 49415, Note_off_c, 0, 63, 105
1, 49421, Note_on_c, 0, 66, 106
1, 49464, Note_off_c, 0, 66, 106
1, 49470, Note_on_c, 0, 69, 113
1, 49532, Note_off_c, 0, 69, 113
1, 49564, Note_on_c, 0, 72, 116
1, 49638, Note_off_c, 0, 72, 116
1, 49676, Note_on_c, 0, 75, 113
1, 49758, Note_off_c, 0, 75, 113
1, 49766, Note_on_c, 0, 73, 112
1, 49921, Note_off_c, 0, 73, 112
1, 49938, Note_on_c, 0, 67, 106
1, 49997, Note_off_c, 0, 67, 106
1, 50003, Note_on_c, 0, 68, 102
1, 50114, Note_off_c, 0, 68, 102
1, 50137, Note_on_c, 0, 66, 112
1, 50334, Note_off_c, 0, 66, 112
1, 50352, Note_on_c, 0, 64, 103
1, 50444, Note_off_c, 0, 64, 103
1, 50464, Note_on_c, 0, 61, 101
1, 50525, Note_off_c, 0, 61, 101
1, 50533, Note_on_c, 0, 56, 84
1, 50669, Note_off_c, 0, 56, 84
1, 50669, End_track
0, 0, End_of_file
