0, 0, Header, 1, 1, 192
1, 0, Start_track
1, 0, Title_t, "Melody"
1, 0, Tempo, 375000
1, 0, Key_signature, -1, "major"
1, 0, Time_signature, 4, 2, 24, 8
1, 1627, Note_on_c, 0, 68, 94
1, 1720, Note_off_c, 0, 68, 94
1, 1720, Note_on_c, 0, 69, 96
1, 1786, Note_off_c, 0, 69, 96
1, 1848, Note_on_c, 0, 74, 121
1, 1914, Note_off_c, 0, 74, 121
1, 1919, Note_on_c, 0, 77, 117
1, 2061, Note_off_c, 0, 77, 117
1, 2062, Note_on_c, 0, 79, 115
1, 2114, Note_off_c, 0, 79, 115
1, 2128, Note_on_c, 0, 80, 101
1, 2221, Note_off_c, 0, 80, 101
1, 2768, Note_on_c, 0, 81, 126
1, 2852, Note_off_c, 0, 81, 126
1, 2855, Note_on_c, 0, 76, 116
1, 2935, Note_off_c, 0, 76, 116
1, 2946, Note_on_c, 0, 79, 108
1, 3048, Note_off_c, 0, 79, 108
1, 3056, Note_on_c, 0, 77, 114
1, 3156, Note_off_c, 0, 77, 114
1, 3156, Note_on_c, 0, 72, 105
1, 3256, Note_off_c, 0, 72, 105
1, 3256, Note_on_c, 0, 69, 109
1, 3343, Note_off_c, 0, 69, 109
1, 3343, Note_on_c, 0, 65, 98
1, 3432, Note_off_c, 0, 65, 98
1, 3432, Note_on_c, 0, 70, 111
1, 3530, Note_off_c, 0, 70, 111
1, 3596, Note_on_c, 0, 65, 83
1, 3628, Note_off_c, 0, 65, 83
1, 3628, Note_on_c, 0, 67, 94
1, 3722, Note_off_c, 0, 67, 94
1, 3722, Note_on_c, 0, 69, 109
1, 3817, Note_off_c, 0, 69, 109
1, 3817, Note_on_c, 0, 70, 104
1, 3917, Note_off_c, 0, 70, 104
1, 3922, Note_on_c, 0, 72, 119
1, 3976, Note_off_c, 0, 72, 119
1, 3983, Note_on_c, 0, 73, 107
1, 4036, Note_off_c, 0, 73, 107
1, 4038, Note_on_c, 0, 75, 103
1, 4103, Note_off_c, 0, 75, 103
1, 4112, Note_on_c, 0, 72, 118
1, 4266, Note_off_c, 0, 72, 118
1, 4276, Note_on_c, 0, 69, 107
1, 4364, Note_off_c, 0, 69, 107
1, 4367, Note_on_c, 0, 64, 90
1, 4434, Note_off_c, 0, 64, 90
1, 4439, Note_on_c, 0, 61, 86
1, 4471, Note_off_c, 0, 61, 86
1, 4482, Note_on_c, 0, 62, 107
1, 4729, Note_off_c, 0, 62, 107
1, 5225, Note_on_c, 0, 69, 113
1, 5319, Note_off_c, 0, 69, 113
1, 5329, Note_on_c, 0, 67, 108
1, 5423, Note_off_c, 0, 67, 108
1, 5423, Note_on_c, 0, 69, 107
1, 5500, Note_off_c, 0, 69, 107
1, 5504, Note_on_c, 0, 70, 115
1, 5581, Note_off_c, 0, 70, 115
1, 5620, Note_on_c, 0, 72, 115
1, 5717, Note_off_c, 0, 72, 115
1, 6014, Note_on_c, 0, 65, 111
1, 6103, Note_off_c, 0, 65, 111
1, 6103, Note_on_c, 0, 64, 99
1, 6194, Note_off_c, 0, 64, 99
1, 6194, Note_on_c, 0, 65, 109
1, 6285, Note_off_c, 0, 65, 109
1, 6285, Note_on_c, 0, 68, 114
1, 6376, Note_off_c, 0, 68, 114
1, 6376, Note_on_c, 0, 70, 111
1, 6465, Note_off_c, 0, 70, 111
1, 6465, Note_on_c, 0, 71, 113
1, 6567, Note_off_c, 0, 71, 113
1, 6567, Note_on_c, 0, 63, 90
1, 6669, Note_on_c, 0, 66, 106
1, 6669, Note_off_c, 0, 63, 90
1, 6764, Note_off_c, 0, 66, 106
1, 6765, Note_on_c, 0, 63, 102
1, 6859, Note_off_c, 0, 63, 102
1, 6859, Note_on_c, 0, 65, 110
1, 6959, Note_off_c, 0, 65, 110
1, 6961, Note_on_c, 0, 68, 108
1, 7032, Note_off_c, 0, 68, 108
1, 7048, Note_on_c, 0, 71, 112
1, 7096, Note_off_c, 0, 71, 112
1, 7096, Note_on_c, 0, 74, 110
1, 7160, Note_off_c, 0, 74, 110
1, 7160, Note_on_c, 0, 73, 115
1, 7224, Note_off_c, 0, 73, 115
1, 7715, Note_on_c, 0, 81, 119
1, 7765, Note_off_c, 0, 81, 119
1, 7775, Note_on_c, 0, 84, 92
1, 7868, Note_off_c, 0, 84, 92
1, 7905, Note_on_c, 0, 77, 123
1, 7954, Note_off_c, 0, 77, 123
1, 8001, Note_on_c, 0, 80, 124
1, 8097, Note_off_c, 0, 80, 124
1, 8109, Note_on_c, 0, 78, 119
1, 8171, Note_off_c, 0, 78, 119
1, 8196, Note_on_c, 0, 77, 120
1, 8264, Note_off_c, 0, 77, 120
1, 8270, Note_on_c, 0, 78, 117
1, 8341, Note_off_c, 0, 78, 117
1, 8380, Note_on_c, 0, 74, 119
1, 8434, Note_off_c, 0, 74, 119
1, 8460, Note_on_c, 0, 73, 117
1, 8534, Note_off_c, 0, 73, 117
1, 8566, Note_on_c, 0, 71, 115
1, 8634, Note_off_c, 0, 71, 115
1, 8642, Note_on_c, 0, 69, 115
1, 8729, Note_off_c, 0, 69, 115
1, 8747, Note_on_c, 0, 70, 108
1, 8831, Note_off_c, 0, 70, 108
1, 8834, Note_on_c, 0, 65, 107
1, 8917, Note_on_c, 0, 69, 102
1, 8917, Note_off_c, 0, 65, 107
1, 8957, Note_off_c, 0, 69, 102
1, 8960, Note_on_c, 0, 68, 106
1, 9016, Note_off_c, 0, 68, 106
1, 9016, Note_on_c, 0, 65, 109
1, 9081, Note_off_c, 0, 65, 109
1, 9111, Note_on_c, 0, 66, 108
1, 9195, Note_off_c, 0, 66, 108
1, 9209, Note_on_c, 0, 61, 102
1, 9293, Note_off_c, 0, 61, 102
1, 9298, Note_on_c, 0, 58, 100
1, 9384, Note_off_c, 0, 58, 100
1, 9397, Note_on_c, 0, 54, 99
1, 9483, Note_off_c, 0, 54, 99
1, 9511, Note_on_c, 0, 61, 104
1, 9674, Note_off_c, 0, 61, 104
1, 9674, Note_on_c, 0, 62, 99
1, 9861, Note_off_c, 0, 62, 99
1, 9891, Note_on_c, 0, 73, 114
1, 9920, Note_off_c, 0, 73, 114
1, 9920, Note_on_c, 0, 74, 110
1, 9949, Note_off_c, 0, 74, 110
1, 9952, Note_on_c, 0, 73, 110
1, 9981, Note_off_c, 0, 73, 110
1, 9984, Note_on_c, 0, 71, 111
1, 10071, Note_off_c, 0, 71, 111
1, 10071, Note_on_c, 0, 68, 108
1, 10167, Note_off_c, 0, 68, 108
1, 10167, Note_on_c, 0, 69, 98
1, 10263, Note_off_c, 0, 69, 98
1, 10264, Note_on_c, 0, 70, 109
1, 10360, Note_off_c, 0, 70, 109
1, 10363, Note_on_c, 0, 65, 105
1, 10432, Note_off_c, 0, 65, 105
1, 10437, Note_on_c, 0, 69, 103
1, 10453, Note_off_c, 0, 69, 103
1, 10457, Note_on_c, 0, 70, 102
1, 10488, Note_off_c, 0, 70, 102
1, 10488, Note_on_c, 0, 68, 102
1, 10520, Note_off_c, 0, 68, 102
1, 10537, Note_on_c, 0, 66, 100
1, 10635, Note_off_c, 0, 66, 100
1, 10647, Note_on_c, 0, 67, 98
1, 10741, Note_off_c, 0, 67, 98
1, 10741, Note_on_c, 0, 64, 98
1, 10835, Note_off_c, 0, 64, 98
1, 10836, Note_on_c, 0, 63, 89
1, 10932, Note_off_c, 0, 63, 89
1, 10932, Note_on_c, 0, 61, 88
1, 11028, Note_off_c, 0, 61, 88
1, 11029, Note_on_c, 0, 59, 80
1, 11168, Note_off_c, 0, 59, 80
1, 11187, Note_on_c, 0, 63, 81
1, 11231, Note_off_c, 0, 63, 81
1, 11255, Note_on_c, 0, 66, 80
1, 11289, Note_off_c, 0, 66, 80
1, 11306, Note_on_c, 0, 70, 114
1, 11341, Note_off_c, 0, 70, 114
1, 11389, Note_on_c, 0, 69, 105
1, 11419, Note_off_c, 0, 69, 105
1, 11419, Note_on_c, 0, 70, 99
1, 11449, Note_off_c, 0, 70, 99
1, 11451, Note_on_c, 0, 69, 87
1, 11481, Note_off_c, 0, 69, 87
1, 11506, Note_on_c, 0, 65, 108
1, 11550, Note_off_c, 0, 65, 108
1, 11572, Note_on_c, 0, 68, 100
1, 11602, Note_off_c, 0, 68, 100
1, 11605, Note_on_c, 0, 70, 97
1, 11634, Note_off_c, 0, 70, 97
1, 11634, Note_on_c, 0, 68, 98
1, 11664, Note_off_c, 0, 68, 98
1, 11684, Note_on_c, 0, 65, 104
1, 11738, Note_off_c, 0, 65, 104
1, 11739, Note_on_c, 0, 66, 98
1, 11833, Note_off_c, 0, 66, 98
1, 11851, Note_on_c, 0, 61, 91
1, 11945, Note_on_c, 0, 58, 91
1, 11945, Note_off_c, 0, 61, 91
1, 12039, Note_off_c, 0, 58, 91
1, 12039, Note_on_c, 0, 54, 88
1, 12133, Note_off_c, 0, 54, 88
1, 12133, Note_on_c, 0, 61, 82
1, 12337, Note_off_c, 0, 61, 82
1, 12621, Note_on_c, 0, 73, 114
1, 12712, Note_on_c, 0, 74, 108
1, 12712, Note_off_c, 0, 73, 114
1, 12814, Note_off_c, 0, 74, 108
1, 12818, Note_on_c, 0, 72, 115
1, 12886, Note_off_c, 0, 72, 115
1, 12915, Note_on_c, 0, 71, 111
1, 12969, Note_off_c, 0, 71, 111
1, 13004, Note_on_c, 0, 69, 112
1, 13073, Note_off_c, 0, 69, 112
1, 13088, Note_on_c, 0, 68, 101
1, 13115, Note_off_c, 0, 68, 101
1, 13118, Note_on_c, 0, 69, 102
1, 13145, Note_off_c, 0, 69, 102
1, 13148, Note_on_c, 0, 68, 106
1, 13175, Note_off_c, 0, 68, 106
1, 13182, Note_on_c, 0, 66, 100
1, 13265, Note_off_c, 0, 66, 100
1, 13265, Note_on_c, 0, 67, 106
1, 13361, Note_off_c, 0, 67, 106
1, 13576, Note_on_c, 0, 79, 116
1, 13619, Note_off_c, 0, 79, 116
1, 13621, Note_on_c, 0, 78, 116
1, 13654, Note_off_c, 0, 78, 116
1, 13660, Note_on_c, 0, 79, 117
1, 13728, Note_off_c, 0, 79, 117
1, 13753, Note_on_c, 0, 74, 116
1, 13807, Note_off_c, 0, 74, 116
1, 13807, Note_on_c, 0, 73, 111
1, 13844, Note_off_c, 0, 73, 111
1, 13846, Note_on_c, 0, 74, 90
1, 13919, Note_off_c, 0, 74, 90
1, 13925, Note_on_c, 0, 70, 106
1, 13970, Note_on_c, 0, 69, 111
1, 13970, Note_off_c, 0, 70, 106
1, 14016, Note_off_c, 0, 69, 111
1, 14017, Note_on_c, 0, 70, 81
1, 14098, Note_off_c, 0, 70, 81
1, 14118, Note_on_c, 0, 67, 106
1, 14167, Note_off_c, 0, 67, 106
1, 14167, Note_on_c, 0, 65, 102
1, 14198, Note_off_c, 0, 65, 102
1, 14198, Note_on_c, 0, 67, 105
1, 14233, Note_off_c, 0, 67, 105
1, 14247, Note_on_c, 0, 69, 107
1, 14272, Note_off_c, 0, 69, 107
1, 14288, Note_on_c, 0, 70, 115
1, 14317, Note_off_c, 0, 70, 115
1, 14331, Note_on_c, 0, 72, 111
1, 14362, Note_off_c, 0, 72, 111
1, 14380, Note_on_c, 0, 73, 114
1, 14425, Note_off_c, 0, 73, 114
1, 14433, Note_on_c, 0, 71, 113
1, 14462, Note_off_c, 0, 71, 113
1, 14468, Note_on_c, 0, 72, 111
1, 14513, Note_off_c, 0, 72, 111
1, 14517, Note_on_c, 0, 70, 115
1, 14548, Note_off_c, 0, 70, 115
1, 14556, Note_on_c, 0, 69, 108
1, 14589, Note_off_c, 0, 69, 108
1, 14599, Note_on_c, 0, 67, 101
1, 14644, Note_off_c, 0, 67, 101
1, 14644, Note_on_c, 0, 66, 99
1, 14685, Note_off_c, 0, 66, 99
1, 14685, Note_on_c, 0, 64, 90
1, 14714, Note_off_c, 0, 64, 90
1, 14732, Note_on_c, 0, 65, 99
1, 14824, Note_off_c, 0, 65, 99
1, 15022, Note_on_c, 0, 77, 115
1, 15076, Note_off_c, 0, 77, 115
1, 15081, Note_on_c, 0, 76, 118
1, 15120, Note_off_c, 0, 76, 118
1, 15120, Note_on_c, 0, 77, 92
1, 15191, Note_off_c, 0, 77, 92
1, 15218, Note_on_c, 0, 72, 104
1, 15245, Note_off_c, 0, 72, 104
1, 15255, Note_on_c, 0, 71, 114
1, 15300, Note_off_c, 0, 71, 114
1, 15300, Note_on_c, 0, 72, 82
1, 15384, Note_off_c, 0, 72, 82
1, 15397, Note_on_c, 0, 69, 114
1, 15432, Note_off_c, 0, 69, 114
1, 15438, Note_on_c, 0, 68, 112
1, 15475, Note_off_c, 0, 68, 112
1, 15479, Note_on_c, 0, 69, 108
1, 15527, Note_off_c, 0, 69, 108
1, 15570, Note_on_c, 0, 65, 108
1, 15627, Note_off_c, 0, 65, 108
1, 15630, Note_on_c, 0, 67, 110
1, 15661, Note_off_c, 0, 67, 110
1, 15661, Note_on_c, 0, 68, 108
1, 15694, Note_off_c, 0, 68, 108
1, 15712, Note_on_c, 0, 70, 110
1, 15755, Note_off_c, 0, 70, 110
1, 15757, Note_on_c, 0, 72, 111
1, 15796, Note_off_c, 0, 72, 111
1, 15804, Note_on_c, 0, 71, 113
1, 15829, Note_off_c, 0, 71, 113
1, 15841, Note_on_c, 0, 70, 112
1, 15884, Note_off_c, 0, 70, 112
1, 15884, Note_on_c, 0, 68, 105
1, 15934, Note_off_c, 0, 68, 105
1, 15939, Note_on_c, 0, 67, 101
1, 15968, Note_off_c, 0, 67, 101
1, 15978, Note_on_c, 0, 65, 105
1, 16023, Note_off_c, 0, 65, 105
1, 16023, Note_on_c, 0, 64, 109
1, 16067, Note_off_c, 0, 64, 109
1, 16073, Note_on_c, 0, 62, 102
1, 16104, Note_off_c, 0, 62, 102
1, 16112, Note_on_c, 0, 63, 106
1, 16155, Note_on_c, 0, 65, 103
1, 16155, Note_off_c, 0, 63, 106
1, 16198, Note_off_c, 0, 65, 103
1, 16204, Note_on_c, 0, 67, 107
1, 16249, Note_off_c, 0, 67, 107
1, 16249, Note_on_c, 0, 68, 110
1, 16274, Note_off_c, 0, 68, 110
1, 16280, Note_on_c, 0, 70, 113
1, 16325, Note_off_c, 0, 70, 113
1, 16331, Note_on_c, 0, 72, 112
1, 16374, Note_off_c, 0, 72, 112
1, 16374, Note_on_c, 0, 74, 115
1, 16418, Note_off_c, 0, 74, 115
1, 16419, Note_on_c, 0, 75, 116
1, 16463, Note_off_c, 0, 75, 116
1, 16474, Note_on_c, 0, 74, 117
1, 16518, Note_off_c, 0, 74, 117
1, 16531, Note_on_c, 0, 73, 105
1, 16564, Note_off_c, 0, 73, 105
1, 16572, Note_on_c, 0, 75, 112
1, 16617, Note_off_c, 0, 75, 112
1, 16617, Note_on_c, 0, 73, 107
1, 16660, Note_off_c, 0, 73, 107
1, 16660, Note_on_c, 0, 74, 111
1, 16701, Note_off_c, 0, 74, 111
1, 16701, Note_on_c, 0, 73, 110
1, 16730, Note_off_c, 0, 73, 110
1, 16734, Note_on_c, 0, 72, 99
1, 16782, Note_off_c, 0, 72, 99
1, 16785, Note_on_c, 0, 71, 105
1, 16816, Note_off_c, 0, 71, 105
1, 16830, Note_on_c, 0, 70, 110
1, 16863, Note_off_c, 0, 70, 110
1, 16871, Note_on_c, 0, 69, 108
1, 16914, Note_off_c, 0, 69, 108
1, 16914, Note_on_c, 0, 68, 100
1, 16960, Note_off_c, 0, 68, 100
1, 16975, Note_on_c, 0, 63, 91
1, 17021, Note_off_c, 0, 63, 91
1, 17026, Note_on_c, 0, 66, 97
1, 17072, Note_off_c, 0, 66, 97
1, 17085, Note_on_c, 0, 63, 98
1, 17120, Note_off_c, 0, 63, 98
1, 17122, Note_on_c, 0, 65, 80
1, 17225, Note_off_c, 0, 65, 80
1, 17303, Note_on_c, 0, 73, 110
1, 17346, Note_off_c, 0, 73, 110
1, 17354, Note_on_c, 0, 71, 89
1, 17397, Note_off_c, 0, 71, 89
1, 17397, Note_on_c, 0, 68, 97
1, 17440, Note_off_c, 0, 68, 97
1, 17440, Note_on_c, 0, 69, 102
1, 17481, Note_off_c, 0, 69, 102
1, 17481, Note_on_c, 0, 70, 95
1, 17524, Note_off_c, 0, 70, 95
1, 17524, Note_on_c, 0, 65, 95
1, 17567, Note_off_c, 0, 65, 95
1, 17567, Note_on_c, 0, 68, 107
1, 17608, Note_off_c, 0, 68, 107
1, 17608, Note_on_c, 0, 65, 97
1, 17652, Note_off_c, 0, 65, 97
1, 17662, Note_on_c, 0, 66, 102
1, 17706, Note_off_c, 0, 66, 102
1, 17710, Note_on_c, 0, 56, 104
1, 17754, Note_off_c, 0, 56, 104
1, 17755, Note_on_c, 0, 57, 88
1, 17840, Note_off_c, 0, 57, 88
1, 17840, Note_on_c, 0, 61, 87
1, 18082, Note_off_c, 0, 61, 87
1, 18531, Note_on_c, 0, 81, 123
1, 18589, Note_off_c, 0, 81, 123
1, 18611, Note_on_c, 0, 79, 117
1, 18644, Note_off_c, 0, 79, 117
1, 18644, Note_on_c, 0, 83, 113
1, 18677, Note_off_c, 0, 83, 113
1, 18695, Note_on_c, 0, 79, 110
1, 18728, Note_off_c, 0, 79, 110
1, 18728, Note_on_c, 0, 77, 114
1, 18784, Note_off_c, 0, 77, 114
1, 18790, Note_on_c, 0, 76, 118
1, 18890, Note_off_c, 0, 76, 118
1, 18890, Note_on_c, 0, 74, 117
1, 18982, Note_off_c, 0, 74, 117
1, 18982, Note_on_c, 0, 72, 105
1, 19078, Note_off_c, 0, 72, 105
1, 19078, Note_on_c, 0, 70, 110
1, 19169, Note_off_c, 0, 70, 110
1, 19169, Note_on_c, 0, 69, 96
1, 19204, Note_off_c, 0, 69, 96
1, 19277, Note_on_c, 0, 77, 120
1, 19335, Note_off_c, 0, 77, 120
1, 19358, Note_on_c, 0, 81, 85
1, 19545, Note_off_c, 0, 81, 85
1, 19552, Note_on_c, 0, 84, 118
1, 19656, Note_off_c, 0, 84, 118
1, 20040, Note_on_c, 0, 81, 127
1, 20124, Note_off_c, 0, 81, 127
1, 20124, Note_on_c, 0, 82, 123
1, 20221, Note_off_c, 0, 82, 123
1, 20221, Note_on_c, 0, 86, 123
1, 20316, Note_off_c, 0, 86, 123
1, 20316, Note_on_c, 0, 84, 122
1, 20402, Note_off_c, 0, 84, 122
1, 20407, Note_on_c, 0, 85, 123
1, 20488, Note_off_c, 0, 85, 123
1, 20502, Note_on_c, 0, 82, 124
1, 20591, Note_off_c, 0, 82, 124
1, 20632, Note_on_c, 0, 81, 124
1, 20721, Note_off_c, 0, 81, 124
1, 20806, Note_on_c, 0, 76, 120
1, 20902, Note_off_c, 0, 76, 120
1, 20913, Note_on_c, 0, 79, 115
1, 21009, Note_off_c, 0, 79, 115
1, 21009, Note_on_c, 0, 77, 119
1, 21071, Note_off_c, 0, 77, 119
1, 21073, Note_on_c, 0, 76, 110
1, 21164, Note_off_c, 0, 76, 110
1, 21191, Note_on_c, 0, 72, 114
1, 21253, Note_off_c, 0, 72, 114
1, 21265, Note_on_c, 0, 69, 105
1, 21362, Note_off_c, 0, 69, 105
1, 21362, Note_on_c, 0, 65, 96
1, 21458, Note_off_c, 0, 65, 96
1, 21458, Note_on_c, 0, 70, 109
1, 21558, Note_off_c, 0, 70, 109
1, 21558, Note_on_c, 0, 65, 85
1, 21649, Note_off_c, 0, 65, 85
1, 21649, Note_on_c, 0, 70, 112
1, 21748, Note_off_c, 0, 70, 112
1, 21756, Note_on_c, 0, 72, 107
1, 21855, Note_off_c, 0, 72, 107
1, 21855, Note_on_c, 0, 73, 104
1, 21941, Note_off_c, 0, 73, 104
1, 21941, Note_on_c, 0, 75, 109
1, 22028, Note_off_c, 0, 75, 109
1, 22028, Note_on_c, 0, 72, 106
1, 22120, Note_off_c, 0, 72, 106
1, 22120, Note_on_c, 0, 70, 110
1, 22213, Note_off_c, 0, 70, 110
1, 22213, Note_on_c, 0, 69, 90
1, 22315, Note_off_c, 0, 69, 90
1, 22315, Note_on_c, 0, 64, 80
1, 22418, Note_off_c, 0, 64, 80
1, 22418, Note_on_c, 0, 69, 102
1, 22511, Note_off_c, 0, 69, 102
1, 22511, Note_on_c, 0, 70, 99
1, 22603, Note_off_c, 0, 70, 99
1, 22603, Note_on_c, 0, 72, 95
1, 22697, Note_off_c, 0, 72, 95
1, 22697, Note_on_c, 0, 70, 85
1, 22791, Note_off_c, 0, 70, 85
1, 22791, Note_on_c, 0, 69, 100
1, 22886, Note_off_c, 0, 69, 100
1, 22886, Note_on_c, 0, 65, 82
1, 22981, Note_off_c, 0, 65, 82
1, 22981, Note_on_c, 0, 67, 104
1, 23080, Note_off_c, 0, 67, 104
1, 23080, Note_on_c, 0, 65, 69
1, 23179, Note_off_c, 0, 65, 69
1, 23179, Note_on_c, 0, 67, 111
1, 23282, Note_off_c, 0, 67, 111
1, 23282, Note_on_c, 0, 69, 108
1, 23385, Note_off_c, 0, 69, 108
1, 23385, Note_on_c, 0, 70, 100
1, 23476, Note_off_c, 0, 70, 100
1, 23476, Note_on_c, 0, 72, 98
1, 23557, Note_off_c, 0, 72, 98
1, 23557, Note_on_c, 0, 69, 94
1, 23650, Note_off_c, 0, 69, 94
1, 23664, Note_on_c, 0, 64, 96
1, 23757, Note_off_c, 0, 64, 96
1, 23757, Note_on_c, 0, 67, 104
1, 23846, Note_off_c, 0, 67, 104
1, 23846, Note_on_c, 0, 64, 85
1, 23935, Note_off_c, 0, 64, 85
1, 23935, Note_on_c, 0, 65, 95
1, 24032, Note_off_c, 0, 65, 95
1, 24032, Note_on_c, 0, 62, 79
1, 24506, Note_off_c, 0, 62, 79
1, 24895, Note_on_c, 0, 68, 112
1, 24985, Note_off_c, 0, 68, 112
1, 24993, Note_on_c, 0, 68, 111
1, 25058, Note_off_c, 0, 68, 111
1, 25172, Note_on_c, 0, 68, 111
1, 25270, Note_off_c, 0, 68, 111
1, 25270, Note_on_c, 0, 68, 108
1, 25465, Note_off_c, 0, 68, 108
1, 25485, Note_on_c, 0, 67, 106
1, 25579, Note_off_c, 0, 67, 106
1, 25583, Note_on_c, 0, 67, 89
1, 25669, Note_off_c, 0, 67, 89
1, 25691, Note_on_c, 0, 67, 109
1, 25814, Note_off_c, 0, 67, 109
1, 25815, Note_on_c, 0, 67, 91
1, 25951, Note_off_c, 0, 67, 91
1, 25981, Note_on_c, 0, 67, 110
1, 26071, Note_off_c, 0, 67, 110
1, 26078, Note_on_c, 0, 67, 108
1, 26201, Note_off_c, 0, 67, 108
1, 26225, Note_on_c, 0, 68, 92
1, 26330, Note_off_c, 0, 68, 92
1, 26339, Note_on_c, 0, 68, 112
1, 26439, Note_off_c, 0, 68, 112
1, 26439, Note_on_c, 0, 68, 115
1, 26536, Note_off_c, 0, 68, 115
1, 26562, Note_on_c, 0, 68, 99
1, 26721, Note_off_c, 0, 68, 99
1, 26732, Note_on_c, 0, 68, 116
1, 26832, Note_off_c, 0, 68, 116
1, 26832, Note_on_c, 0, 68, 116
1, 26922, Note_off_c, 0, 68, 116
1, 26922, Note_on_c, 0, 72, 93
1, 26968, Note_off_c, 0, 72, 93
1, 26970, Note_on_c, 0, 69, 89
1, 27015, Note_off_c, 0, 69, 89
1, 27015, Note_on_c, 0, 67, 100
1, 27116, Note_off_c, 0, 67, 100
1, 27116, Note_on_c, 0, 65, 109
1, 27216, Note_off_c, 0, 65, 109
1, 27216, Note_on_c, 0, 64, 93
1, 27308, Note_off_c, 0, 64, 93
1, 27308, Note_on_c, 0, 65, 111
1, 27400, Note_off_c, 0, 65, 111
1, 27400, Note_on_c, 0, 69, 113
1, 27493, Note_off_c, 0, 69, 113
1, 27493, Note_on_c, 0, 72, 107
1, 27586, Note_off_c, 0, 72, 107
1, 27614, Note_on_c, 0, 73, 109
1, 27688, Note_off_c, 0, 73, 109
1, 27708, Note_on_c, 0, 74, 103
1, 27917, Note_off_c, 0, 74, 103
1, 27978, Note_on_c, 0, 73, 104
1, 28073, Note_off_c, 0, 73, 104
1, 28073, Note_on_c, 0, 75, 106
1, 28174, Note_off_c, 0, 75, 106
1, 28174, Note_on_c, 0, 73, 108
1, 28256, Note_off_c, 0, 73, 108
1, 28256, Note_on_c, 0, 75, 108
1, 28347, Note_off_c, 0, 75, 108
1, 28347, Note_on_c, 0, 72, 102
1, 28435, Note_off_c, 0, 72, 102
1, 28435, Note_on_c, 0, 69, 108
1, 28524, Note_off_c, 0, 69, 108
1, 28524, Note_on_c, 0, 64, 108
1, 28624, Note_off_c, 0, 64, 108
1, 28624, Note_on_c, 0, 60, 88
1, 28724, Note_off_c, 0, 60, 88
1, 28724, Note_on_c, 0, 62, 101
1, 28796, Note_off_c, 0, 62, 101
1, 28844, Note_on_c, 0, 67, 97
1, 28880, Note_off_c, 0, 67, 97
1, 28885, Note_on_c, 0, 69, 80
1, 29027, Note_off_c, 0, 69, 80
1, 29038, Note_on_c, 0, 65, 95
1, 29085, Note_off_c, 0, 65, 95
1, 29097, Note_on_c, 0, 67, 92
1, 29282, Note_off_c, 0, 67, 92
1, 29408, Note_on_c, 0, 68, 100
1, 29502, Note_off_c, 0, 68, 100
1, 29502, Note_on_c, 0, 69, 93
1, 29599, Note_off_c, 0, 69, 93
1, 29599, Note_on_c, 0, 65, 95
1, 29696, Note_on_c, 0, 67, 101
1, 29696, Note_off_c, 0, 65, 95
1, 29787, Note_off_c, 0, 67, 101
1, 29787, Note_on_c, 0, 64, 82
1, 29879, Note_off_c, 0, 64, 82
1, 29879, Note_on_c, 0, 65, 105
1, 29975, Note_off_c, 0, 65, 105
1, 29975, Note_on_c, 0, 60, 97
1, 30071, Note_off_c, 0, 60, 97
1, 30071, Note_on_c, 0, 57, 100
1, 30167, Note_off_c, 0, 57, 100
1, 30167, Note_on_c, 0, 53, 90
1, 30262, Note_off_c, 0, 53, 90
1, 30262, Note_on_c, 0, 55, 9
1, 30469, Note_off_c, 0, 55, 9
1, 30929, Note_on_c, 0, 73, 116
1, 31026, Note_off_c, 0, 73, 116
1, 31026, Note_on_c, 0, 71, 108
1, 31091, Note_off_c, 0, 71, 108
1, 31091, Note_on_c, 0, 73, 108
1, 31156, Note_off_c, 0, 73, 108
1, 31156, Note_on_c, 0, 71, 90
1, 31221, Note_off_c, 0, 71, 90
1, 31221, Note_on_c, 0, 70, 104
1, 31321, Note_off_c, 0, 70, 104
1, 31321, Note_on_c, 0, 68, 107
1, 31421, Note_off_c, 0, 68, 107
1, 31421, Note_on_c, 0, 65, 94
1, 31511, Note_off_c, 0, 65, 94
1, 31511, Note_on_c, 0, 66, 104
1, 31602, Note_off_c, 0, 66, 104
1, 31602, Note_on_c, 0, 70, 109
1, 31702, Note_off_c, 0, 70, 109
1, 31702, Note_on_c, 0, 73, 109
1, 31802, Note_off_c, 0, 73, 109
1, 31802, Note_on_c, 0, 77, 118
1, 31900, Note_off_c, 0, 77, 118
1, 31900, Note_on_c, 0, 75, 111
1, 31998, Note_off_c, 0, 75, 111
1, 31998, Note_on_c, 0, 74, 119
1, 32099, Note_off_c, 0, 74, 119
1, 32099, Note_on_c, 0, 75, 99
1, 32200, Note_off_c, 0, 75, 99
1, 32200, Note_on_c, 0, 78, 111
1, 32284, Note_off_c, 0, 78, 111
1, 32284, Note_on_c, 0, 75, 119
1, 32362, Note_off_c, 0, 75, 119
1, 32382, Note_on_c, 0, 71, 115
1, 32474, Note_off_c, 0, 71, 115
1, 32474, Note_on_c, 0, 68, 118
1, 32566, Note_off_c, 0, 68, 118
1, 32566, Note_on_c, 0, 69, 114
1, 32630, Note_off_c, 0, 69, 114
1, 32697, Note_on_c, 0, 76, 109
1, 32729, Note_off_c, 0, 76, 109
1, 32732, Note_on_c, 0, 77, 92
1, 32853, Note_off_c, 0, 77, 92
1, 32862, Note_on_c, 0, 75, 120
1, 32952, Note_off_c, 0, 75, 120
1, 32961, Note_on_c, 0, 73, 108
1, 33052, Note_off_c, 0, 73, 108
1, 33059, Note_on_c, 0, 70, 111
1, 33149, Note_off_c, 0, 70, 111
1, 33149, Note_on_c, 0, 71, 113
1, 33231, Note_off_c, 0, 71, 113
1, 33231, Note_on_c, 0, 73, 114
1, 33317, Note_off_c, 0, 73, 114
1, 33317, Note_on_c, 0, 70, 111
1, 33405, Note_off_c, 0, 70, 111
1, 33405, Note_on_c, 0, 65, 103
1, 33498, Note_off_c, 0, 65, 103
1, 33509, Note_on_c, 0, 68, 110
1, 33599, Note_off_c, 0, 68, 110
1, 33616, Note_on_c, 0, 65, 112
1, 33670, Note_off_c, 0, 65, 112
1, 33694, Note_on_c, 0, 66, 105
1, 33775, Note_off_c, 0, 66, 105
1, 33784, Note_on_c, 0, 68, 111
1, 33850, Note_off_c, 0, 68, 111
1, 33871, Note_on_c, 0, 69, 108
1, 33971, Note_off_c, 0, 69, 108
1, 33971, Note_on_c, 0, 71, 105
1, 34071, Note_off_c, 0, 71, 105
1, 34071, Note_on_c, 0, 73, 108
1, 34171, Note_off_c, 0, 73, 108
1, 34171, Note_on_c, 0, 71, 111
1, 34271, Note_off_c, 0, 71, 111
1, 34271, Note_on_c, 0, 69, 109
1, 34368, Note_off_c, 0, 69, 109
1, 34368, Note_on_c, 0, 68, 79
1, 34465, Note_off_c, 0, 68, 79
1, 34481, Note_on_c, 0, 69, 115
1, 34513, Note_off_c, 0, 69, 115
1, 34513, Note_on_c, 0, 70, 114
1, 34724, Note_off_c, 0, 70, 114
1, 34751, Note_on_c, 0, 73, 111
1, 34843, Note_off_c, 0, 73, 111
1, 35128, Note_on_c, 0, 78, 116
1, 35217, Note_off_c, 0, 78, 116
1, 35312, Note_on_c, 0, 71, 101
1, 35356, Note_off_c, 0, 71, 101
1, 35362, Note_on_c, 0, 72, 113
1, 35404, Note_off_c, 0, 72, 113
1, 35496, Note_on_c, 0, 71, 109
1, 35598, Note_off_c, 0, 71, 109
1, 35598, Note_on_c, 0, 69, 112
1, 35688, Note_off_c, 0, 69, 112
1, 35688, Note_on_c, 0, 66, 108
1, 35745, Note_off_c, 0, 66, 108
1, 35783, Note_on_c, 0, 61, 92
1, 35872, Note_off_c, 0, 61, 92
1, 36260, Note_on_c, 0, 59, 95
1, 36348, Note_off_c, 0, 59, 95
1, 36348, Note_on_c, 0, 58, 83
1, 36444, Note_off_c, 0, 58, 83
1, 36444, Note_on_c, 0, 68, 112
1, 36540, Note_off_c, 0, 68, 112
1, 36540, Note_on_c, 0, 65, 96
1, 36630, Note_off_c, 0, 65, 96
1, 36630, Note_on_c, 0, 61, 80
1, 36720, Note_off_c, 0, 61, 80
1, 36720, Note_on_c, 0, 66, 92
1, 36932, Note_off_c, 0, 66, 92
1, 37022, Note_on_c, 0, 69, 117
1, 37112, Note_off_c, 0, 69, 117
1, 37112, Note_on_c, 0, 72, 115
1, 37211, Note_off_c, 0, 72, 115
1, 37211, Note_on_c, 0, 75, 120
1, 37310, Note_off_c, 0, 75, 120
1, 37310, Note_on_c, 0, 72, 110
1, 37406, Note_off_c, 0, 72, 110
1, 37406, Note_on_c, 0, 73, 120
1, 37502, Note_off_c, 0, 73, 120
1, 37502, Note_on_c, 0, 74, 105
1, 37626, Note_off_c, 0, 74, 105
1, 37626, Note_on_c, 0, 79, 116
1, 37728, Note_off_c, 0, 79, 116
1, 37796, Note_on_c, 0, 74, 117
1, 37879, Note_off_c, 0, 74, 117
1, 37921, Note_on_c, 0, 72, 110
1, 38019, Note_off_c, 0, 72, 110
1, 38084, Note_on_c, 0, 68, 99
1, 38149, Note_off_c, 0, 68, 99
1, 38213, Note_on_c, 0, 67, 110
1, 38273, Note_off_c, 0, 67, 110
1, 38355, Note_on_c, 0, 69, 97
1, 38446, Note_off_c, 0, 69, 97
1, 38446, Note_on_c, 0, 70, 112
1, 38538, Note_off_c, 0, 70, 112
1, 38538, Note_on_c, 0, 64, 102
1, 38630, Note_off_c, 0, 64, 102
1, 38630, Note_on_c, 0, 65, 109
1, 38681, Note_off_c, 0, 65, 109
1, 38681, Note_on_c, 0, 62, 89
1, 38732, Note_off_c, 0, 62, 89
1, 38740, Note_on_c, 0, 64, 92
1, 38936, Note_off_c, 0, 64, 92
1, 39035, Note_on_c, 0, 71, 113
1, 39065, Note_off_c, 0, 71, 113
1, 39065, Note_on_c, 0, 72, 78
1, 39156, Note_off_c, 0, 72, 78
1, 39156, Note_on_c, 0, 77, 115
1, 39278, Note_off_c, 0, 77, 115
1, 39278, Note_on_c, 0, 72, 93
1, 39402, Note_off_c, 0, 72, 93
1, 39402, Note_on_c, 0, 70, 109
1, 39498, Note_off_c, 0, 70, 109
1, 39498, Note_on_c, 0, 68, 88
1, 39519, Note_on_c, 0, 69, 89
1, 39519, Note_off_c, 0, 68, 88
1, 39641, Note_off_c, 0, 69, 89
1, 39641, Note_on_c, 0, 65, 103
1, 39767, Note_on_c, 0, 67, 107
1, 39767, Note_off_c, 0, 65, 103
1, 39894, Note_off_c, 0, 67, 107
1, 39894, Note_on_c, 0, 68, 107
1, 39957, Note_off_c, 0, 68, 107
1, 39957, Note_on_c, 0, 62, 97
1, 40017, Note_off_c, 0, 62, 97
1, 40017, Note_on_c, 0, 63, 110
1, 40077, Note_off_c, 0, 63, 110
1, 40077, Note_on_c, 0, 60, 94
1, 40137, Note_off_c, 0, 60, 94
1, 40137, Note_on_c, 0, 62, 97
1, 40323, Note_off_c, 0, 62, 97
1, 40619, Note_on_c, 0, 79, 120
1, 40707, Note_off_c, 0, 79, 120
1, 40707, Note_on_c, 0, 74, 114
1, 40804, Note_off_c, 0, 74, 114
1, 40804, Note_on_c, 0, 77, 117
1, 40902, Note_off_c, 0, 77, 117
1, 40902, Note_on_c, 0, 75, 113
1, 41004, Note_off_c, 0, 75, 113
1, 41004, Note_on_c, 0, 70, 109
1, 41106, Note_off_c, 0, 70, 109
1, 41106, Note_on_c, 0, 67, 104
1, 41191, Note_off_c, 0, 67, 104
1, 41191, Note_on_c, 0, 63, 86
1, 41276, Note_off_c, 0, 63, 86
1, 41276, Note_on_c, 0, 66, 102
1, 41468, Note_off_c, 0, 66, 102
1, 41468, Note_on_c, 0, 66, 105
1, 41570, Note_off_c, 0, 66, 105
1, 41570, Note_on_c, 0, 66, 103
1, 41672, Note_off_c, 0, 66, 103
1, 41760, Note_on_c, 0, 68, 109
1, 41849, Note_off_c, 0, 68, 109
1, 41849, Note_on_c, 0, 65, 100
1, 42107, Note_off_c, 0, 65, 100
1, 42145, Note_on_c, 0, 75, 116
1, 42237, Note_off_c, 0, 75, 116
1, 42237, Note_on_c, 0, 73, 107
1, 42339, Note_off_c, 0, 73, 107
1, 42339, Note_on_c, 0, 70, 109
1, 42442, Note_off_c, 0, 70, 109
1, 42442, Note_on_c, 0, 68, 109
1, 42544, Note_off_c, 0, 68, 109
1, 42544, Note_on_c, 0, 66, 107
1, 42647, Note_off_c, 0, 66, 107
1, 42647, Note_on_c, 0, 63, 95
1, 42733, Note_off_c, 0, 63, 95
1, 42733, Note_on_c, 0, 58, 93
1, 42820, Note_off_c, 0, 58, 93
1, 42820, Note_on_c, 0, 68, 96
1, 42851, Note_off_c, 0, 68, 96
1, 42851, Note_on_c, 0, 69, 91
1, 43007, Note_off_c, 0, 69, 91
1, 43007, Note_on_c, 0, 69, 107
1, 43096, Note_off_c, 0, 69, 107
1, 43148, Note_on_c, 0, 69, 109
1, 43237, Note_off_c, 0, 69, 109
1, 43292, Note_on_c, 0, 67, 106
1, 43399, Note_off_c, 0, 67, 106
1, 43399, Note_on_c, 0, 64, 109
1, 43493, Note_off_c, 0, 64, 109
1, 43493, Note_on_c, 0, 62, 104
1, 43587, Note_off_c, 0, 62, 104
1, 43587, Note_on_c, 0, 60, 94
1, 43878, Note_off_c, 0, 60, 94
1, 43882, Note_on_c, 0, 60, 84
1, 44244, Note_off_c, 0, 60, 84
1, 44458, Note_on_c, 0, 67, 105
1, 44481, Note_off_c, 0, 67, 105
1, 44481, Note_on_c, 0, 69, 80
1, 44609, Note_off_c, 0, 69, 80
1, 44612, Note_on_c, 0, 69, 115
1, 44674, Note_off_c, 0, 69, 115
1, 44738, Note_on_c, 0, 69, 115
1, 44837, Note_off_c, 0, 69, 115
1, 44837, Note_on_c, 0, 67, 115
1, 44909, Note_off_c, 0, 67, 115
1, 44919, Note_on_c, 0, 64, 113
1, 45013, Note_off_c, 0, 64, 113
1, 45013, Note_on_c, 0, 62, 108
1, 45107, Note_off_c, 0, 62, 108
1, 45123, Note_on_c, 0, 60, 87
1, 45220, Note_off_c, 0, 60, 87
1, 45225, Note_on_c, 0, 71, 106
1, 45251, Note_off_c, 0, 71, 106
1, 45258, Note_on_c, 0, 72, 113
1, 45310, Note_off_c, 0, 72, 113
1, 45520, Note_on_c, 0, 69, 116
1, 45597, Note_off_c, 0, 69, 116
1, 45597, Note_on_c, 0, 67, 110
1, 45674, Note_off_c, 0, 67, 110
1, 45674, Note_on_c, 0, 65, 108
1, 45771, Note_off_c, 0, 65, 108
1, 45771, Note_on_c, 0, 62, 105
1, 45868, Note_off_c, 0, 62, 105
1, 45868, Note_on_c, 0, 61, 97
1, 45958, Note_off_c, 0, 61, 97
1, 46000, Note_on_c, 0, 71, 104
1, 46010, Note_off_c, 0, 71, 104
1, 46010, Note_on_c, 0, 73, 112
1, 46100, Note_off_c, 0, 73, 112
1, 46240, Note_on_c, 0, 72, 112
1, 46325, Note_off_c, 0, 72, 112
1, 46325, Note_on_c, 0, 70, 115
1, 46412, Note_off_c, 0, 70, 115
1, 46413, Note_on_c, 0, 68, 111
1, 46518, Note_off_c, 0, 68, 111
1, 46518, Note_on_c, 0, 63, 105
1, 46624, Note_off_c, 0, 63, 105
1, 46624, Note_on_c, 0, 60, 96
1, 46723, Note_off_c, 0, 60, 96
1, 46723, Note_on_c, 0, 69, 80
1, 46822, Note_off_c, 0, 69, 80
1, 47283, Note_on_c, 0, 68, 110
1, 47381, Note_off_c, 0, 68, 110
1, 47381, Note_on_c, 0, 67, 95
1, 47481, Note_off_c, 0, 67, 95
1, 47481, Note_on_c, 0, 69, 110
1, 47581, Note_off_c, 0, 69, 110
1, 47581, Note_on_c, 0, 70, 100
1, 47677, Note_off_c, 0, 70, 100
1, 47677, Note_on_c, 0, 72, 120
1, 47773, Note_off_c, 0, 72, 120
1, 47773, Note_on_c, 0, 74, 123
1, 47848, Note_off_c, 0, 74, 123
1, 47863, Note_on_c, 0, 76, 110
1, 47964, Note_off_c, 0, 76, 110
1, 47976, Note_on_c, 0, 81, 123
1, 48080, Note_off_c, 0, 81, 123
1, 48080, Note_on_c, 0, 76, 119
1, 48181, Note_off_c, 0, 76, 119
1, 48181, Note_on_c, 0, 77, 112
1, 48331, Note_off_c, 0, 77, 112
1, 48360, Note_on_c, 0, 72, 107
1, 48454, Note_off_c, 0, 72, 107
1, 48454, Note_on_c, 0, 69, 111
1, 48516, Note_off_c, 0, 69, 111
1, 48583, Note_on_c, 0, 73, 115
1, 48646, Note_off_c, 0, 73, 115
1, 48648, Note_on_c, 0, 74, 108
1, 48741, Note_off_c, 0, 74, 108
1, 48747, Note_on_c, 0, 70, 112
1, 48837, Note_off_c, 0, 70, 112
1, 48837, Note_on_c, 0, 67, 105
1, 48893, Note_off_c, 0, 67, 105
1, 48954, Note_on_c, 0, 71, 109
1, 49022, Note_off_c, 0, 71, 109
1, 49022, Note_on_c, 0, 72, 98
1, 49123, Note_off_c, 0, 72, 98
1, 49123, Note_on_c, 0, 69, 111
1, 49179, Note_off_c, 0, 69, 111
1, 49214, Note_on_c, 0, 65, 100
1, 49311, Note_off_c, 0, 65, 100
1, 49315, Note_on_c, 0, 70, 109
1, 49413, Note_off_c, 0, 70, 109
1, 49413, Note_on_c, 0, 67, 106
1, 49460, Note_off_c, 0, 67, 106
1, 49476, Note_on_c, 0, 64, 105
1, 49526, Note_off_c, 0, 64, 105
1, 49540, Note_on_c, 0, 60, 82
1, 49590, Note_off_c, 0, 60, 82
1, 49598, Note_on_c, 0, 65, 98
1, 49762, Note_off_c, 0, 65, 98
1, 49762, End_track
0, 0, End_of_file
