0, 0, Header, 1, 1, 420
1, 0, Start_track
1, 0, Title_t, "Melody"
1, 0, Tempo, 315789
1, 0, Key_signature, -1, "major"
1, 0, Time_signature, 4, 2, 24, 8
1, 5060, Note_on_c, 0, 69, 112
1, 5270, Note_off_c, 0, 69, 112
1, 5304, Note_on_c, 0, 67, 88
1, 5603, Note_off_c, 0, 67, 88
1, 5633, Note_on_c, 0, 67, 86
1, 5972, Note_off_c, 0, 67, 86
1, 6734, Note_on_c, 0, 69, 118
1, 6932, Note_off_c, 0, 69, 118
1, 6959, Note_on_c, 0, 65, 91
1, 7273, Note_off_c, 0, 65, 91
1, 7313, Note_on_c, 0, 65, 97
1, 8386, Note_off_c, 0, 65, 97
1, 8432, Note_on_c, 0, 62, 89
1, 8594, Note_off_c, 0, 62, 89
1, 8605, Note_on_c, 0, 64, 102
1, 8695, Note_off_c, 0, 64, 102
1, 8699, Note_on_c, 0, 65, 105
1, 8758, Note_off_c, 0, 65, 105
1, 8761, Note_on_c, 0, 64, 105
1, 8859, Note_off_c, 0, 64, 105
1, 8866, Note_on_c, 0, 61, 97
1, 9077, Note_off_c, 0, 61, 97
1, 9091, Note_on_c, 0, 59, 86
1, 10036, Note_off_c, 0, 59, 86
1, 10039, Note_on_c, 0, 60, 106
1, 10181, Note_off_c, 0, 60, 106
1, 10845, Note_on_c, 0, 65, 109
1, 11016, Note_off_c, 0, 65, 109
1, 11017, Note_on_c, 0, 67, 97
1, 11194, Note_off_c, 0, 67, 97
1, 11242, Note_on_c, 0, 70, 115
1, 11451, Note_off_c, 0, 70, 115
1, 11467, Note_on_c, 0, 69, 101
1, 11996, Note_off_c, 0, 69, 101
1, 12304, Note_on_c, 0, 76, 120
1, 12498, Note_off_c, 0, 76, 120
1, 12499, Note_on_c, 0, 77, 123
1, 12672, Note_off_c, 0, 77, 123
1, 12710, Note_on_c, 0, 77, 110
1, 12810, Note_off_c, 0, 77, 110
1, 12819, Note_on_c, 0, 76, 112
1, 12911, Note_off_c, 0, 76, 112
1, 12930, Note_on_c, 0, 74, 109
1, 13096, Note_off_c, 0, 74, 109
1, 13125, Note_on_c, 0, 73, 109
1, 13354, Note_off_c, 0, 73, 109
1, 13372, Note_on_c, 0, 64, 91
1, 13542, Note_off_c, 0, 64, 91
1, 13542, Note_on_c, 0, 63, 93
1, 13723, Note_off_c, 0, 63, 93
1, 13750, Note_on_c, 0, 69, 114
1, 13954, Note_off_c, 0, 69, 114
1, 13963, Note_on_c, 0, 70, 108
1, 14053, Note_off_c, 0, 70, 108
1, 14063, Note_on_c, 0, 69, 105
1, 14160, Note_off_c, 0, 69, 105
1, 14187, Note_on_c, 0, 69, 112
1, 14339, Note_off_c, 0, 69, 112
1, 14360, Note_on_c, 0, 68, 97
1, 14556, Note_off_c, 0, 68, 97
1, 14580, Note_on_c, 0, 69, 113
1, 14723, Note_off_c, 0, 69, 113
1, 14769, Note_on_c, 0, 65, 93
1, 14985, Note_off_c, 0, 65, 93
1, 15008, Note_on_c, 0, 62, 102
1, 15158, Note_off_c, 0, 62, 102
1, 16645, Note_on_c, 0, 70, 103
1, 16813, Note_off_c, 0, 70, 103
1, 16853, Note_on_c, 0, 75, 112
1, 17040, Note_off_c, 0, 75, 112
1, 17050, Note_on_c, 0, 77, 122
1, 17242, Note_off_c, 0, 77, 122
1, 17271, Note_on_c, 0, 79, 117
1, 17450, Note_off_c, 0, 79, 117
1, 17474, Note_on_c, 0, 81, 123
1, 17664, Note_off_c, 0, 81, 123
1, 17691, Note_on_c, 0, 82, 124
1, 17881, Note_off_c, 0, 82, 124
1, 17891, Note_on_c, 0, 80, 119
1, 18178, Note_off_c, 0, 80, 119
1, 18194, Note_on_c, 0, 81, 113
1, 18492, Note_off_c, 0, 81, 113
1, 18532, Note_on_c, 0, 77, 122
1, 18906, Note_off_c, 0, 77, 122
1, 18912, Note_on_c, 0, 74, 105
1, 19294, Note_off_c, 0, 74, 105
1, 19328, Note_on_c, 0, 71, 110
1, 19694, Note_off_c, 0, 71, 110
1, 19709, Note_on_c, 0, 70, 111
1, 20102, Note_off_c, 0, 70, 111
1, 20121, Note_on_c, 0, 65, 99
1, 20495, Note_off_c, 0, 65, 99
1, 20522, Note_on_c, 0, 63, 106
1, 20657, Note_off_c, 0, 63, 106
1, 20660, Note_on_c, 0, 65, 103
1, 20744, Note_off_c, 0, 65, 103
1, 20752, Note_on_c, 0, 63, 110
1, 20885, Note_off_c, 0, 63, 110
1, 20923, Note_on_c, 0, 61, 95
1, 21123, Note_off_c, 0, 61, 95
1, 21155, Note_on_c, 0, 57, 103
1, 21301, Note_off_c, 0, 57, 103
1, 21322, Note_on_c, 0, 64, 104
1, 21541, Note_off_c, 0, 64, 104
1, 21569, Note_on_c, 0, 65, 95
1, 22044, Note_off_c, 0, 65, 95
1, 22065, Note_on_c, 0, 59, 104
1, 22287, Note_off_c, 0, 59, 104
1, 23254, Note_on_c, 0, 63, 99
1, 23311, Note_off_c, 0, 63, 99
1, 23317, Note_on_c, 0, 65, 99
1, 23374, Note_off_c, 0, 65, 99
1, 23375, Note_on_c, 0, 66, 94
1, 23429, Note_off_c, 0, 66, 94
1, 23445, Note_on_c, 0, 67, 102
1, 23520, Note_off_c, 0, 67, 102
1, 23531, Note_on_c, 0, 68, 95
1, 23585, Note_off_c, 0, 68, 95
1, 23594, Note_on_c, 0, 69, 98
1, 23663, Note_off_c, 0, 69, 98
1, 23677, Note_on_c, 0, 70, 110
1, 23827, Note_off_c, 0, 70, 110
1, 23855, Note_on_c, 0, 63, 102
1, 23939, Note_off_c, 0, 63, 102
1, 23949, Note_on_c, 0, 65, 94
1, 24014, Note_off_c, 0, 65, 94
1, 24038, Note_on_c, 0, 66, 103
1, 24115, Note_off_c, 0, 66, 103
1, 24129, Note_on_c, 0, 67, 97
1, 24195, Note_off_c, 0, 67, 97
1, 24199, Note_on_c, 0, 69, 116
1, 24284, Note_off_c, 0, 69, 116
1, 24293, Note_on_c, 0, 70, 115
1, 24408, Note_off_c, 0, 70, 115
1, 24622, Note_on_c, 0, 64, 94
1, 24693, Note_off_c, 0, 64, 94
1, 24707, Note_on_c, 0, 65, 89
1, 24789, Note_off_c, 0, 65, 89
1, 24803, Note_on_c, 0, 67, 97
1, 24876, Note_off_c, 0, 67, 97
1, 24899, Note_on_c, 0, 69, 111
1, 25017, Note_off_c, 0, 69, 111
1, 25150, Note_on_c, 0, 62, 100
1, 25197, Note_off_c, 0, 62, 100
1, 25202, Note_on_c, 0, 64, 100
1, 25292, Note_off_c, 0, 64, 100
1, 25303, Note_on_c, 0, 65, 100
1, 25384, Note_off_c, 0, 65, 100
1, 25398, Note_on_c, 0, 67, 103
1, 25465, Note_off_c, 0, 67, 103
1, 25477, Note_on_c, 0, 69, 100
1, 25570, Note_off_c, 0, 69, 100
1, 25784, Note_on_c, 0, 65, 98
1, 25899, Note_off_c, 0, 65, 98
1, 25918, Note_on_c, 0, 63, 101
1, 26046, Note_off_c, 0, 63, 101
1, 26073, Note_on_c, 0, 69, 104
1, 26132, Note_off_c, 0, 69, 104
1, 26141, Note_on_c, 0, 70, 121
1, 26225, Note_off_c, 0, 70, 121
1, 26235, Note_on_c, 0, 69, 109
1, 26311, Note_off_c, 0, 69, 109
1, 26321, Note_on_c, 0, 67, 108
1, 26387, Note_off_c, 0, 67, 108
1, 26412, Note_on_c, 0, 65, 104
1, 26494, Note_off_c, 0, 65, 104
1, 26523, Note_on_c, 0, 63, 100
1, 26605, Note_off_c, 0, 63, 100
1, 26619, Note_on_c, 0, 62, 96
1, 26689, Note_off_c, 0, 62, 96
1, 26710, Note_on_c, 0, 61, 99
1, 26814, Note_off_c, 0, 61, 99
1, 27736, Note_on_c, 0, 58, 108
1, 27803, Note_off_c, 0, 58, 108
1, 27807, Note_on_c, 0, 57, 104
1, 27969, Note_off_c, 0, 57, 104
1, 28130, Note_on_c, 0, 61, 98
1, 28245, Note_off_c, 0, 61, 98
1, 28250, Note_on_c, 0, 62, 98
1, 28430, Note_off_c, 0, 62, 98
1, 29635, Note_on_c, 0, 69, 112
1, 29818, Note_off_c, 0, 69, 112
1, 29828, Note_on_c, 0, 72, 118
1, 30018, Note_off_c, 0, 72, 118
1, 30041, Note_on_c, 0, 76, 116
1, 30235, Note_off_c, 0, 76, 116
1, 30304, Note_on_c, 0, 81, 116
1, 30560, Note_off_c, 0, 81, 116
1, 30718, Note_on_c, 0, 80, 114
1, 30928, Note_off_c, 0, 80, 114
1, 31132, Note_on_c, 0, 79, 118
1, 31336, Note_off_c, 0, 79, 118
1, 31353, Note_on_c, 0, 81, 114
1, 31423, Note_off_c, 0, 81, 114
1, 31437, Note_on_c, 0, 79, 105
1, 31548, Note_off_c, 0, 79, 105
1, 31588, Note_on_c, 0, 76, 122
1, 31779, Note_off_c, 0, 76, 122
1, 31822, Note_on_c, 0, 77, 121
1, 31997, Note_off_c, 0, 77, 121
1, 32025, Note_on_c, 0, 78, 123
1, 32204, Note_off_c, 0, 78, 123
1, 32212, Note_on_c, 0, 75, 118
1, 32414, Note_off_c, 0, 75, 118
1, 32421, Note_on_c, 0, 72, 97
1, 32654, Note_off_c, 0, 72, 97
1, 32655, Note_on_c, 0, 73, 117
1, 32846, Note_off_c, 0, 73, 117
1, 32856, Note_on_c, 0, 74, 112
1, 33003, Note_off_c, 0, 74, 112
1, 33038, Note_on_c, 0, 79, 114
1, 33206, Note_off_c, 0, 79, 114
1, 33245, Note_on_c, 0, 81, 125
1, 33437, Note_off_c, 0, 81, 125
1, 33449, Note_on_c, 0, 82, 121
1, 33641, Note_off_c, 0, 82, 121
1, 33666, Note_on_c, 0, 81, 116
1, 33845, Note_off_c, 0, 81, 116
1, 33857, Note_on_c, 0, 79, 110
1, 34025, Note_off_c, 0, 79, 110
1, 34050, Note_on_c, 0, 78, 119
1, 34221, Note_off_c, 0, 78, 119
1, 34238, Note_on_c, 0, 81, 117
1, 34452, Note_off_c, 0, 81, 117
1, 34471, Note_on_c, 0, 79, 105
1, 34613, Note_off_c, 0, 79, 105
1, 34694, Note_on_c, 0, 74, 112
1, 34808, Note_off_c, 0, 74, 112
1, 34821, Note_on_c, 0, 72, 108
1, 34894, Note_off_c, 0, 72, 108
1, 34895, Note_on_c, 0, 74, 110
1, 34983, Note_off_c, 0, 74, 110
1, 34988, Note_on_c, 0, 72, 104
1, 35083, Note_off_c, 0, 72, 104
1, 35099, Note_on_c, 0, 69, 115
1, 35272, Note_off_c, 0, 69, 115
1, 35276, Note_on_c, 0, 70, 109
1, 35474, Note_off_c, 0, 70, 109
1, 35510, Note_on_c, 0, 66, 100
1, 35614, Note_off_c, 0, 66, 100
1, 35635, Note_on_c, 0, 69, 105
1, 35875, Note_off_c, 0, 69, 105
1, 35895, Note_on_c, 0, 66, 108
1, 36019, Note_off_c, 0, 66, 108
1, 36035, Note_on_c, 0, 67, 101
1, 36519, Note_off_c, 0, 67, 101
1, 36580, Note_on_c, 0, 70, 97
1, 36680, Note_off_c, 0, 70, 97
1, 36705, Note_on_c, 0, 77, 86
1, 36749, Note_off_c, 0, 77, 86
1, 36750, Note_on_c, 0, 79, 113
1, 36958, Note_off_c, 0, 79, 113
1, 36976, Note_on_c, 0, 78, 117
1, 37216, Note_off_c, 0, 78, 117
1, 37239, Note_on_c, 0, 74, 100
1, 37308, Note_off_c, 0, 74, 100
1, 37315, Note_on_c, 0, 72, 96
1, 37378, Note_off_c, 0, 72, 96
1, 37383, Note_on_c, 0, 67, 103
1, 37566, Note_off_c, 0, 67, 103
1, 37613, Note_on_c, 0, 66, 100
1, 38055, Note_off_c, 0, 66, 100
1, 38080, Note_on_c, 0, 62, 105
1, 38161, Note_off_c, 0, 62, 105
1, 38170, Note_on_c, 0, 65, 107
1, 38436, Note_off_c, 0, 65, 107
1, 38479, Note_on_c, 0, 62, 100
1, 38568, Note_off_c, 0, 62, 100
1, 38580, Note_on_c, 0, 64, 101
1, 38691, Note_off_c, 0, 64, 101
1, 38697, Note_on_c, 0, 67, 103
1, 38806, Note_off_c, 0, 67, 103
1, 38814, Note_on_c, 0, 70, 99
1, 38948, Note_off_c, 0, 70, 99
1, 38984, Note_on_c, 0, 73, 112
1, 39092, Note_off_c, 0, 73, 112
1, 39101, Note_on_c, 0, 75, 101
1, 39253, Note_off_c, 0, 75, 101
1, 39261, Note_on_c, 0, 72, 107
1, 39445, Note_off_c, 0, 72, 107
1, 40863, Note_on_c, 0, 81, 121
1, 41069, Note_off_c, 0, 81, 121
1, 41086, Note_on_c, 0, 82, 119
1, 41276, Note_off_c, 0, 82, 119
1, 41282, Note_on_c, 0, 81, 118
1, 41469, Note_off_c, 0, 81, 118
1, 41493, Note_on_c, 0, 82, 110
1, 41664, Note_off_c, 0, 82, 110
1, 41693, Note_on_c, 0, 81, 117
1, 41884, Note_off_c, 0, 81, 117
1, 41927, Note_on_c, 0, 79, 115
1, 42116, Note_off_c, 0, 79, 115
1, 42132, Note_on_c, 0, 77, 102
1, 42275, Note_off_c, 0, 77, 102
1, 42296, Note_on_c, 0, 77, 108
1, 42393, Note_off_c, 0, 77, 108
1, 42403, Note_on_c, 0, 76, 111
1, 42511, Note_off_c, 0, 76, 111
1, 42540, Note_on_c, 0, 74, 100
1, 42664, Note_off_c, 0, 74, 100
1, 42750, Note_on_c, 0, 75, 115
1, 43106, Note_off_c, 0, 75, 115
1, 43137, Note_on_c, 0, 73, 115
1, 43370, Note_off_c, 0, 73, 115
1, 43393, Note_on_c, 0, 70, 103
1, 43530, Note_off_c, 0, 70, 103
1, 43548, Note_on_c, 0, 75, 116
1, 43938, Note_off_c, 0, 75, 116
1, 43961, Note_on_c, 0, 73, 114
1, 44197, Note_off_c, 0, 73, 114
1, 44239, Note_on_c, 0, 69, 98
1, 44362, Note_off_c, 0, 69, 98
1, 44385, Note_on_c, 0, 76, 109
1, 44477, Note_off_c, 0, 76, 109
1, 44486, Note_on_c, 0, 77, 112
1, 44557, Note_off_c, 0, 77, 112
1, 44562, Note_on_c, 0, 76, 116
1, 44693, Note_off_c, 0, 76, 116
1, 44725, Note_on_c, 0, 74, 104
1, 44836, Note_off_c, 0, 74, 104
1, 44849, Note_on_c, 0, 71, 102
1, 45067, Note_off_c, 0, 71, 102
1, 45138, Note_on_c, 0, 76, 113
1, 45327, Note_off_c, 0, 76, 113
1, 45454, Note_on_c, 0, 74, 110
1, 45616, Note_off_c, 0, 74, 110
1, 45651, Note_on_c, 0, 71, 114
1, 45838, Note_off_c, 0, 71, 114
1, 45882, Note_on_c, 0, 75, 105
1, 46401, Note_off_c, 0, 75, 105
1, 46444, Note_on_c, 0, 73, 106
1, 46711, Note_off_c, 0, 73, 106
1, 46734, Note_on_c, 0, 70, 94
1, 46826, Note_off_c, 0, 70, 94
1, 46858, Note_on_c, 0, 77, 103
1, 47051, Note_off_c, 0, 77, 103
1, 47064, Note_on_c, 0, 75, 106
1, 47149, Note_off_c, 0, 75, 106
1, 47156, Note_on_c, 0, 77, 109
1, 47229, Note_off_c, 0, 77, 109
1, 47246, Note_on_c, 0, 76, 104
1, 47344, Note_off_c, 0, 76, 104
1, 47345, Note_on_c, 0, 73, 110
1, 47530, Note_off_c, 0, 73, 110
1, 47966, Note_on_c, 0, 76, 114
1, 48120, Note_off_c, 0, 76, 114
1, 48141, Note_on_c, 0, 74, 109
1, 48339, Note_off_c, 0, 74, 109
1, 48405, Note_on_c, 0, 71, 109
1, 48590, Note_off_c, 0, 71, 109
1, 48596, Note_on_c, 0, 74, 85
1, 48691, Note_off_c, 0, 74, 85
1, 48695, Note_on_c, 0, 71, 94
1, 48775, Note_off_c, 0, 71, 94
1, 48795, Note_on_c, 0, 69, 111
1, 48938, Note_off_c, 0, 69, 111
1, 48951, Note_on_c, 0, 65, 108
1, 49215, Note_off_c, 0, 65, 108
1, 49222, Note_on_c, 0, 59, 98
1, 49344, Note_off_c, 0, 59, 98
1, 49347, Note_on_c, 0, 63, 103
1, 49775, Note_off_c, 0, 63, 103
1, 49784, Note_on_c, 0, 65, 103
1, 50050, Note_off_c, 0, 65, 103
1, 50065, Note_on_c, 0, 59, 93
1, 50202, Note_off_c, 0, 59, 93
1, 50214, Note_on_c, 0, 63, 101
1, 50537, Note_off_c, 0, 63, 101
1, 50611, Note_on_c, 0, 65, 97
1, 50764, Note_off_c, 0, 65, 97
1, 51261, Note_on_c, 0, 57, 110
1, 51411, Note_off_c, 0, 57, 110
1, 51434, Note_on_c, 0, 62, 90
1, 51652, Note_off_c, 0, 62, 90
1, 51665, Note_on_c, 0, 64, 102
1, 51838, Note_off_c, 0, 64, 102
1, 51847, Note_on_c, 0, 62, 94
1, 51947, Note_off_c, 0, 62, 94
1, 51972, Note_on_c, 0, 64, 94
1, 52039, Note_off_c, 0, 64, 94
1, 52044, Note_on_c, 0, 62, 92
1, 52113, Note_off_c, 0, 62, 92
1, 52116, Note_on_c, 0, 60, 94
1, 52210, Note_off_c, 0, 60, 94
1, 52214, Note_on_c, 0, 57, 104
1, 52461, Note_off_c, 0, 57, 104
1, 53413, Note_on_c, 0, 61, 95
1, 53484, Note_off_c, 0, 61, 95
1, 53493, Note_on_c, 0, 63, 101
1, 53568, Note_off_c, 0, 63, 101
1, 53573, Note_on_c, 0, 65, 104
1, 53620, Note_off_c, 0, 65, 104
1, 53626, Note_on_c, 0, 67, 91
1, 53721, Note_off_c, 0, 67, 91
1, 53725, Note_on_c, 0, 70, 116
1, 53898, Note_off_c, 0, 70, 116
1, 53908, Note_on_c, 0, 69, 115
1, 54165, Note_off_c, 0, 69, 115
1, 54175, Note_on_c, 0, 67, 111
1, 54352, Note_off_c, 0, 67, 111
1, 54369, Note_on_c, 0, 65, 94
1, 54589, Note_off_c, 0, 65, 94
1, 54598, Note_on_c, 0, 62, 99
1, 54768, Note_off_c, 0, 62, 99
1, 55817, Note_on_c, 0, 74, 90
1, 55906, Note_off_c, 0, 74, 90
1, 56023, Note_on_c, 0, 63, 103
1, 56177, Note_off_c, 0, 63, 103
1, 56255, Note_on_c, 0, 65, 104
1, 56430, Note_off_c, 0, 65, 104
1, 56447, Note_on_c, 0, 67, 95
1, 56593, Note_off_c, 0, 67, 95
1, 56636, Note_on_c, 0, 69, 113
1, 56843, Note_off_c, 0, 69, 113
1, 56855, Note_on_c, 0, 70, 116
1, 57074, Note_off_c, 0, 70, 116
1, 57097, Note_on_c, 0, 69, 103
1, 57277, Note_off_c, 0, 69, 103
1, 57283, Note_on_c, 0, 70, 114
1, 57675, Note_off_c, 0, 70, 114
1, 57691, Note_on_c, 0, 62, 97
1, 57900, Note_off_c, 0, 62, 97
1, 57961, Note_on_c, 0, 64, 95
1, 58123, Note_off_c, 0, 64, 95
1, 58166, Note_on_c, 0, 65, 93
1, 58315, Note_off_c, 0, 65, 93
1, 58366, Note_on_c, 0, 67, 101
1, 58512, Note_off_c, 0, 67, 101
1, 58518, Note_on_c, 0, 69, 110
1, 58802, Note_off_c, 0, 69, 110
1, 58811, Note_on_c, 0, 68, 92
1, 58957, Note_off_c, 0, 68, 92
1, 58965, Note_on_c, 0, 69, 112
1, 59296, Note_off_c, 0, 69, 112
1, 59468, Note_on_c, 0, 63, 89
1, 59622, Note_off_c, 0, 63, 89
1, 59642, Note_on_c, 0, 65, 95
1, 59834, Note_off_c, 0, 65, 95
1, 59866, Note_on_c, 0, 67, 91
1, 60009, Note_off_c, 0, 67, 91
1, 60057, Note_on_c, 0, 69, 107
1, 60250, Note_off_c, 0, 69, 107
1, 60253, Note_on_c, 0, 70, 105
1, 60428, Note_off_c, 0, 70, 105
1, 60482, Note_on_c, 0, 77, 117
1, 60694, Note_off_c, 0, 77, 117
1, 60697, Note_on_c, 0, 76, 100
1, 60876, Note_off_c, 0, 76, 100
1, 60879, Note_on_c, 0, 77, 107
1, 61100, Note_off_c, 0, 77, 107
1, 61113, Note_on_c, 0, 76, 114
1, 61292, Note_off_c, 0, 76, 114
1, 61309, Note_on_c, 0, 74, 105
1, 61503, Note_off_c, 0, 74, 105
1, 61555, Note_on_c, 0, 73, 106
1, 61719, Note_off_c, 0, 73, 106
1, 61759, Note_on_c, 0, 73, 105
1, 61942, Note_off_c, 0, 73, 105
1, 61955, Note_on_c, 0, 77, 106
1, 62225, Note_off_c, 0, 77, 106
1, 62240, Note_on_c, 0, 74, 95
1, 62313, Note_off_c, 0, 74, 95
1, 62330, Note_on_c, 0, 71, 101
1, 62565, Note_off_c, 0, 71, 101
1, 63476, Note_on_c, 0, 72, 114
1, 63703, Note_off_c, 0, 72, 114
1, 63830, Note_on_c, 0, 71, 114
1, 64011, Note_off_c, 0, 71, 114
1, 64020, Note_on_c, 0, 70, 113
1, 64270, Note_off_c, 0, 70, 113
1, 65128, Note_on_c, 0, 76, 106
1, 65386, Note_off_c, 0, 76, 106
1, 65534, Note_on_c, 0, 74, 111
1, 65711, Note_off_c, 0, 74, 111
1, 65722, Note_on_c, 0, 71, 114
1, 65963, Note_off_c, 0, 71, 114
1, 66422, Note_on_c, 0, 74, 96
1, 66545, Note_off_c, 0, 74, 96
1, 66564, Note_on_c, 0, 75, 90
1, 66650, Note_off_c, 0, 75, 90
1, 66665, Note_on_c, 0, 74, 91
1, 66746, Note_off_c, 0, 74, 91
1, 66838, Note_on_c, 0, 81, 109
1, 66998, Note_off_c, 0, 81, 109
1, 67034, Note_on_c, 0, 84, 120
1, 67269, Note_off_c, 0, 84, 120
1, 67280, Note_on_c, 0, 81, 108
1, 67418, Note_off_c, 0, 81, 108
1, 67429, Note_on_c, 0, 82, 112
1, 67706, Note_off_c, 0, 82, 112
1, 67731, Note_on_c, 0, 81, 115
1, 68369, Note_off_c, 0, 81, 115
1, 69542, Note_on_c, 0, 84, 93
1, 69609, Note_off_c, 0, 84, 93
1, 69624, Note_on_c, 0, 86, 106
1, 70681, Note_off_c, 0, 86, 106
1, 71920, Note_on_c, 0, 87, 112
1, 72165, Note_off_c, 0, 87, 112
1, 72329, Note_on_c, 0, 87, 113
1, 72577, Note_off_c, 0, 87, 113
1, 72714, Note_on_c, 0, 86, 115
1, 72785, Note_off_c, 0, 86, 115
1, 72794, Note_on_c, 0, 85, 104
1, 72917, Note_off_c, 0, 85, 104
1, 72924, Note_on_c, 0, 86, 114
1, 73188, Note_off_c, 0, 86, 114
1, 73211, Note_on_c, 0, 83, 120
1, 73585, Note_off_c, 0, 83, 120
1, 73608, Note_on_c, 0, 82, 123
1, 74021, Note_off_c, 0, 82, 123
1, 74055, Note_on_c, 0, 81, 117
1, 74400, Note_off_c, 0, 81, 117
1, 74473, Note_on_c, 0, 79, 105
1, 74673, Note_off_c, 0, 79, 105
1, 74682, Note_on_c, 0, 84, 94
1, 74740, Note_off_c, 0, 84, 94
1, 74744, Note_on_c, 0, 82, 101
1, 74780, Note_off_c, 0, 82, 101
1, 74800, Note_on_c, 0, 79, 94
1, 74844, Note_off_c, 0, 79, 94
1, 74846, Note_on_c, 0, 78, 94
1, 74881, Note_off_c, 0, 78, 94
1, 74894, Note_on_c, 0, 76, 107
1, 75054, Note_off_c, 0, 76, 107
1, 75065, Note_on_c, 0, 77, 115
1, 75263, Note_off_c, 0, 77, 115
1, 75358, Note_on_c, 0, 73, 109
1, 75602, Note_off_c, 0, 73, 109
1, 75709, Note_on_c, 0, 76, 105
1, 75951, Note_off_c, 0, 76, 105
1, 75960, Note_on_c, 0, 74, 103
1, 76144, Note_off_c, 0, 74, 103
1, 76199, Note_on_c, 0, 70, 111
1, 76427, Note_off_c, 0, 70, 111
1, 76611, Note_on_c, 0, 69, 112
1, 76776, Note_off_c, 0, 69, 112
1, 76818, Note_on_c, 0, 67, 97
1, 76976, Note_off_c, 0, 67, 97
1, 77026, Note_on_c, 0, 65, 105
1, 77199, Note_off_c, 0, 65, 105
1, 77241, Note_on_c, 0, 63, 106
1, 77410, Note_off_c, 0, 63, 106
1, 77467, Note_on_c, 0, 57, 96
1, 77608, Note_off_c, 0, 57, 96
1, 77665, Note_on_c, 0, 61, 95
1, 77855, Note_off_c, 0, 61, 95
1, 77868, Note_on_c, 0, 64, 101
1, 78047, Note_off_c, 0, 64, 101
1, 78076, Note_on_c, 0, 62, 90
1, 78249, Note_off_c, 0, 62, 90
1, 78324, Note_on_c, 0, 57, 109
1, 78476, Note_off_c, 0, 57, 109
1, 78505, Note_on_c, 0, 69, 97
1, 78749, Note_off_c, 0, 69, 97
1, 78895, Note_on_c, 0, 67, 93
1, 79174, Note_off_c, 0, 67, 93
1, 79342, Note_on_c, 0, 70, 10
1, 79610, Note_off_c, 0, 70, 10
1, 79762, Note_on_c, 0, 69, 99
1, 80125, Note_off_c, 0, 69, 99
1, 80163, Note_on_c, 0, 73, 97
1, 80415, Note_off_c, 0, 73, 97
1, 80474, Note_on_c, 0, 69, 90
1, 80609, Note_off_c, 0, 69, 90
1, 80625, Note_on_c, 0, 71, 104
1, 80945, Note_off_c, 0, 71, 104
1, 81042, Note_on_c, 0, 79, 99
1, 81158, Note_off_c, 0, 79, 99
1, 81163, Note_on_c, 0, 76, 103
1, 81282, Note_off_c, 0, 76, 103
1, 81290, Note_on_c, 0, 73, 85
1, 81436, Note_off_c, 0, 73, 85
1, 81460, Note_on_c, 0, 74, 101
1, 81736, Note_off_c, 0, 74, 101
1, 82905, Note_on_c, 0, 81, 112
1, 82994, Note_off_c, 0, 81, 112
1, 83006, Note_on_c, 0, 80, 111
1, 83096, Note_off_c, 0, 80, 111
1, 83102, Note_on_c, 0, 81, 112
1, 83233, Note_off_c, 0, 81, 112
1, 83353, Note_on_c, 0, 73, 99
1, 83426, Note_off_c, 0, 73, 99
1, 83430, Note_on_c, 0, 74, 91
1, 83508, Note_off_c, 0, 74, 91
1, 83516, Note_on_c, 0, 76, 106
1, 83668, Note_off_c, 0, 76, 106
1, 83773, Note_on_c, 0, 69, 100
1, 83853, Note_off_c, 0, 69, 100
1, 83861, Note_on_c, 0, 68, 101
1, 83942, Note_off_c, 0, 68, 101
1, 83947, Note_on_c, 0, 69, 108
1, 84058, Note_off_c, 0, 69, 108
1, 85112, Note_on_c, 0, 64, 94
1, 85223, Note_off_c, 0, 64, 94
1, 85240, Note_on_c, 0, 67, 96
1, 85292, Note_off_c, 0, 67, 96
1, 85294, Note_on_c, 0, 69, 106
1, 85370, Note_off_c, 0, 69, 106
1, 85371, Note_on_c, 0, 67, 100
1, 85460, Note_off_c, 0, 67, 100
1, 85484, Note_on_c, 0, 64, 92
1, 85621, Note_off_c, 0, 64, 92
1, 85707, Note_on_c, 0, 66, 84
1, 85784, Note_off_c, 0, 66, 84
1, 85788, Note_on_c, 0, 69, 86
1, 85880, Note_off_c, 0, 69, 86
1, 85899, Note_on_c, 0, 72, 110
1, 86065, Note_off_c, 0, 72, 110
1, 86114, Note_on_c, 0, 75, 114
1, 86388, Note_off_c, 0, 75, 114
1, 86405, Note_on_c, 0, 73, 93
1, 86506, Note_off_c, 0, 73, 93
1, 86569, Note_on_c, 0, 74, 112
1, 86928, Note_off_c, 0, 74, 112
1, 87339, Note_on_c, 0, 77, 106
1, 87396, Note_off_c, 0, 77, 106
1, 87401, Note_on_c, 0, 76, 107
1, 87512, Note_off_c, 0, 76, 107
1, 87520, Note_on_c, 0, 74, 89
1, 87636, Note_off_c, 0, 74, 89
1, 87641, Note_on_c, 0, 79, 109
1, 87793, Note_off_c, 0, 79, 109
1, 89382, Note_on_c, 0, 82, 113
1, 89447, Note_off_c, 0, 82, 113
1, 89451, Note_on_c, 0, 80, 112
1, 89567, Note_off_c, 0, 80, 112
1, 89575, Note_on_c, 0, 79, 112
1, 89785, Note_off_c, 0, 79, 112
1, 89801, Note_on_c, 0, 77, 109
1, 90003, Note_off_c, 0, 77, 109
1, 90030, Note_on_c, 0, 76, 106
1, 90237, Note_off_c, 0, 76, 106
1, 90263, Note_on_c, 0, 74, 97
1, 90449, Note_off_c, 0, 74, 97
1, 90460, Note_on_c, 0, 74, 101
1, 90557, Note_off_c, 0, 74, 101
1, 90562, Note_on_c, 0, 72, 109
1, 90665, Note_off_c, 0, 72, 109
1, 90670, Note_on_c, 0, 71, 107
1, 90832, Note_off_c, 0, 71, 107
1, 90879, Note_on_c, 0, 70, 107
1, 91071, Note_off_c, 0, 70, 107
1, 91098, Note_on_c, 0, 74, 106
1, 91274, Note_off_c, 0, 74, 106
1, 91298, Note_on_c, 0, 69, 110
1, 91508, Note_off_c, 0, 69, 110
1, 91516, Note_on_c, 0, 67, 103
1, 91734, Note_off_c, 0, 67, 103
1, 91747, Note_on_c, 0, 62, 87
1, 91889, Note_off_c, 0, 62, 87
1, 91918, Note_on_c, 0, 65, 107
1, 92118, Note_off_c, 0, 65, 107
1, 92148, Note_on_c, 0, 64, 85
1, 92318, Note_off_c, 0, 64, 85
1, 92351, Note_on_c, 0, 67, 102
1, 92527, Note_off_c, 0, 67, 102
1, 92549, Note_on_c, 0, 70, 97
1, 92728, Note_off_c, 0, 70, 97
1, 92778, Note_on_c, 0, 72, 111
1, 92943, Note_off_c, 0, 72, 111
1, 92973, Note_on_c, 0, 73, 103
1, 93152, Note_off_c, 0, 73, 103
1, 93154, Note_on_c, 0, 75, 112
1, 93379, Note_off_c, 0, 75, 112
1, 93387, Note_on_c, 0, 69, 91
1, 93420, Note_off_c, 0, 69, 91
1, 93422, Note_on_c, 0, 72, 105
1, 93584, Note_off_c, 0, 72, 105
1, 93616, Note_on_c, 0, 69, 109
1, 93837, Note_off_c, 0, 69, 109
1, 93861, Note_on_c, 0, 67, 102
1, 94028, Note_off_c, 0, 67, 102
1, 94054, Note_on_c, 0, 65, 105
1, 94267, Note_off_c, 0, 65, 105
1, 94279, Note_on_c, 0, 64, 84
1, 94481, Note_off_c, 0, 64, 84
1, 94498, Note_on_c, 0, 65, 105
1, 94680, Note_off_c, 0, 65, 105
1, 94685, Note_on_c, 0, 67, 103
1, 94797, Note_off_c, 0, 67, 103
1, 94811, Note_on_c, 0, 69, 101
1, 94884, Note_off_c, 0, 69, 101
1, 94893, Note_on_c, 0, 67, 93
1, 94961, Note_off_c, 0, 67, 93
1, 94963, Note_on_c, 0, 65, 104
1, 95098, Note_off_c, 0, 65, 104
1, 95120, Note_on_c, 0, 64, 98
1, 95187, Note_off_c, 0, 64, 98
1, 95196, Note_on_c, 0, 65, 104
1, 95278, Note_off_c, 0, 65, 104
1, 95287, Note_on_c, 0, 64, 103
1, 95371, Note_off_c, 0, 64, 103
1, 95385, Note_on_c, 0, 62, 99
1, 95462, Note_off_c, 0, 62, 99
1, 95470, Note_on_c, 0, 61, 102
1, 95768, Note_off_c, 0, 61, 102
1, 95777, Note_on_c, 0, 66, 105
1, 95817, Note_off_c, 0, 66, 105
1, 95825, Note_on_c, 0, 67, 104
1, 95940, Note_off_c, 0, 67, 104
1, 95972, Note_on_c, 0, 70, 109
1, 96172, Note_off_c, 0, 70, 109
1, 96187, Note_on_c, 0, 69, 103
1, 96367, Note_off_c, 0, 69, 103
1, 96392, Note_on_c, 0, 67, 109
1, 96604, Note_off_c, 0, 67, 109
1, 96627, Note_on_c, 0, 65, 110
1, 96784, Note_off_c, 0, 65, 110
1, 96803, Note_on_c, 0, 63, 106
1, 97001, Note_off_c, 0, 63, 106
1, 97049, Note_on_c, 0, 57, 92
1, 97164, Note_off_c, 0, 57, 92
1, 97211, Note_on_c, 0, 61, 96
1, 97430, Note_off_c, 0, 61, 96
1, 97451, Note_on_c, 0, 63, 101
1, 97628, Note_off_c, 0, 63, 101
1, 97662, Note_on_c, 0, 65, 104
1, 97901, Note_off_c, 0, 65, 104
1, 97904, Note_on_c, 0, 63, 104
1, 98023, Note_off_c, 0, 63, 104
1, 98030, Note_on_c, 0, 61, 103
1, 98331, Note_off_c, 0, 61, 103
1, 98336, Note_on_c, 0, 63, 93
1, 98447, Note_off_c, 0, 63, 93
1, 98458, Note_on_c, 0, 64, 101
1, 98703, Note_off_c, 0, 64, 101
1, 98747, Note_on_c, 0, 65, 91
1, 99295, Note_off_c, 0, 65, 91
1, 99335, Note_on_c, 0, 59, 91
1, 99537, Note_off_c, 0, 59, 91
1, 100581, Note_on_c, 0, 61, 102
1, 100667, Note_off_c, 0, 61, 102
1, 100717, Note_on_c, 0, 64, 89
1, 100771, Note_off_c, 0, 64, 89
1, 100774, Note_on_c, 0, 68, 101
1, 100866, Note_off_c, 0, 68, 101
1, 100887, Note_on_c, 0, 72, 115
1, 101018, Note_off_c, 0, 72, 115
1, 101048, Note_on_c, 0, 70, 114
1, 101273, Note_off_c, 0, 70, 114
1, 101309, Note_on_c, 0, 58, 100
1, 101442, Note_off_c, 0, 58, 100
1, 101443, Note_on_c, 0, 63, 110
1, 101686, Note_off_c, 0, 63, 110
1, 101722, Note_on_c, 0, 61, 104
1, 101845, Note_off_c, 0, 61, 104
1, 101872, Note_on_c, 0, 62, 103
1, 102258, Note_off_c, 0, 62, 103
1, 102306, Note_on_c, 0, 65, 83
1, 102390, Note_off_c, 0, 65, 83
1, 102403, Note_on_c, 0, 69, 86
1, 102489, Note_off_c, 0, 69, 86
1, 102496, Note_on_c, 0, 73, 94
1, 102592, Note_off_c, 0, 73, 94
1, 102593, Note_on_c, 0, 76, 116
1, 102733, Note_off_c, 0, 76, 116
1, 102746, Note_on_c, 0, 77, 122
1, 103016, Note_off_c, 0, 77, 122
1, 103029, Note_on_c, 0, 74, 111
1, 103316, Note_off_c, 0, 74, 111
1, 103400, Note_on_c, 0, 71, 108
1, 103600, Note_off_c, 0, 71, 108
1, 103769, Note_on_c, 0, 69, 110
1, 104060, Note_off_c, 0, 69, 110
1, 105885, Note_on_c, 0, 69, 105
1, 106081, Note_off_c, 0, 69, 105
1, 106090, Note_on_c, 0, 70, 111
1, 106288, Note_off_c, 0, 70, 111
1, 106305, Note_on_c, 0, 69, 117
1, 106496, Note_off_c, 0, 69, 117
1, 106509, Note_on_c, 0, 68, 100
1, 106673, Note_off_c, 0, 68, 100
1, 106701, Note_on_c, 0, 69, 96
1, 106922, Note_off_c, 0, 69, 96
1, 106943, Note_on_c, 0, 73, 116
1, 107166, Note_off_c, 0, 73, 116
1, 107187, Note_on_c, 0, 74, 116
1, 107368, Note_off_c, 0, 74, 116
1, 107400, Note_on_c, 0, 76, 120
1, 107585, Note_off_c, 0, 76, 120
1, 107613, Note_on_c, 0, 77, 121
1, 107815, Note_off_c, 0, 77, 121
1, 107824, Note_on_c, 0, 79, 111
1, 108003, Note_off_c, 0, 79, 111
1, 108006, Note_on_c, 0, 81, 120
1, 108164, Note_off_c, 0, 81, 120
1, 108183, Note_on_c, 0, 82, 123
1, 108428, Note_off_c, 0, 82, 123
1, 108465, Note_on_c, 0, 81, 119
1, 108698, Note_off_c, 0, 81, 119
1, 110272, Note_on_c, 0, 75, 103
1, 110774, Note_off_c, 0, 75, 103
1, 110801, Note_on_c, 0, 78, 89
1, 110855, Note_off_c, 0, 78, 89
1, 110875, Note_on_c, 0, 80, 93
1, 110949, Note_off_c, 0, 80, 93
1, 110969, Note_on_c, 0, 82, 95
1, 111044, Note_off_c, 0, 82, 95
1, 111055, Note_on_c, 0, 85, 90
1, 111118, Note_off_c, 0, 85, 90
1, 111149, Note_on_c, 0, 88, 119
1, 111336, Note_off_c, 0, 88, 119
1, 111346, Note_on_c, 0, 87, 122
1, 111766, Note_off_c, 0, 87, 122
1, 111791, Note_on_c, 0, 86, 107
1, 112081, Note_off_c, 0, 86, 107
1, 112174, Note_on_c, 0, 83, 103
1, 112680, Note_off_c, 0, 83, 103
1, 113870, Note_on_c, 0, 73, 109
1, 114070, Note_off_c, 0, 73, 109
1, 114075, Note_on_c, 0, 74, 114
1, 114283, Note_off_c, 0, 74, 114
1, 114308, Note_on_c, 0, 75, 112
1, 114495, Note_off_c, 0, 75, 112
1, 114513, Note_on_c, 0, 77, 113
1, 114707, Note_off_c, 0, 77, 113
1, 114726, Note_on_c, 0, 79, 111
1, 114907, Note_off_c, 0, 79, 111
1, 114924, Note_on_c, 0, 81, 121
1, 115127, Note_off_c, 0, 81, 121
1, 115136, Note_on_c, 0, 82, 123
1, 115446, Note_off_c, 0, 82, 123
1, 115451, Note_on_c, 0, 81, 105
1, 115759, Note_off_c, 0, 81, 105
1, 115784, Note_on_c, 0, 79, 109
1, 116056, Note_off_c, 0, 79, 109
1, 116076, Note_on_c, 0, 77, 110
1, 116218, Note_off_c, 0, 77, 110
1, 116224, Note_on_c, 0, 74, 102
1, 116439, Note_off_c, 0, 74, 102
1, 117310, Note_on_c, 0, 75, 112
1, 117604, Note_off_c, 0, 75, 112
1, 117639, Note_on_c, 0, 80, 95
1, 117750, Note_off_c, 0, 80, 95
1, 117769, Note_on_c, 0, 82, 96
1, 117872, Note_off_c, 0, 82, 96
1, 117882, Note_on_c, 0, 84, 109
1, 117967, Note_off_c, 0, 84, 109
1, 117979, Note_on_c, 0, 86, 117
1, 118086, Note_off_c, 0, 86, 117
1, 118099, Note_on_c, 0, 87, 122
1, 118507, Note_off_c, 0, 87, 122
1, 118588, Note_on_c, 0, 84, 117
1, 118847, Note_off_c, 0, 84, 117
1, 119008, Note_on_c, 0, 83, 100
1, 119393, Note_off_c, 0, 83, 100
1, 121147, Note_on_c, 0, 81, 115
1, 121368, Note_off_c, 0, 81, 115
1, 121700, Note_on_c, 0, 82, 109
1, 121824, Note_off_c, 0, 82, 109
1, 121833, Note_on_c, 0, 81, 108
1, 122284, Note_off_c, 0, 81, 108
1, 123399, Note_on_c, 0, 81, 108
1, 123582, Note_off_c, 0, 81, 108
1, 123788, Note_on_c, 0, 87, 115
1, 124618, Note_off_c, 0, 87, 115
1, 124630, Note_on_c, 0, 83, 120
1, 125058, Note_off_c, 0, 83, 120
1, 125294, Note_on_c, 0, 89, 113
1, 125538, Note_off_c, 0, 89, 113
1, 125736, Note_on_c, 0, 88, 110
1, 125958, Note_off_c, 0, 88, 110
1, 126097, Note_on_c, 0, 86, 107
1, 126319, Note_off_c, 0, 86, 107
1, 126347, Note_on_c, 0, 85, 101
1, 126594, Note_off_c, 0, 85, 101
1, 126713, Note_on_c, 0, 88, 101
1, 126865, Note_off_c, 0, 88, 101
1, 126869, Note_on_c, 0, 87, 120
1, 127384, Note_off_c, 0, 87, 120
1, 127397, Note_on_c, 0, 86, 110
1, 127490, Note_off_c, 0, 86, 110
1, 127499, Note_on_c, 0, 87, 106
1, 127581, Note_off_c, 0, 87, 106
1, 127590, Note_on_c, 0, 85, 99
1, 127769, Note_off_c, 0, 85, 99
1, 127777, Note_on_c, 0, 84, 112
1, 127950, Note_off_c, 0, 84, 112
1, 127960, Note_on_c, 0, 82, 119
1, 128151, Note_off_c, 0, 82, 119
1, 128157, Note_on_c, 0, 81, 117
1, 128375, Note_off_c, 0, 81, 117
1, 128400, Note_on_c, 0, 79, 105
1, 128561, Note_off_c, 0, 79, 105
1, 128575, Note_on_c, 0, 77, 117
1, 128760, Note_off_c, 0, 77, 117
1, 128795, Note_on_c, 0, 76, 108
1, 129001, Note_off_c, 0, 76, 108
1, 129006, Note_on_c, 0, 73, 89
1, 129160, Note_off_c, 0, 73, 89
1, 129177, Note_on_c, 0, 74, 101
1, 129402, Note_off_c, 0, 74, 101
1, 129422, Note_on_c, 0, 76, 111
1, 129614, Note_off_c, 0, 76, 111
1, 129623, Note_on_c, 0, 77, 117
1, 129819, Note_off_c, 0, 77, 117
1, 129835, Note_on_c, 0, 79, 107
1, 130003, Note_off_c, 0, 79, 107
1, 130031, Note_on_c, 0, 81, 109
1, 130227, Note_off_c, 0, 81, 109
1, 130241, Note_on_c, 0, 77, 114
1, 130471, Note_off_c, 0, 77, 114
1, 130483, Note_on_c, 0, 79, 104
1, 130658, Note_off_c, 0, 79, 104
1, 130668, Note_on_c, 0, 83, 105
1, 130870, Note_off_c, 0, 83, 105
1, 130904, Note_on_c, 0, 74, 100
1, 131069, Note_off_c, 0, 74, 100
1, 131098, Note_on_c, 0, 79, 103
1, 131271, Note_off_c, 0, 79, 103
1, 131317, Note_on_c, 0, 77, 106
1, 131426, Note_off_c, 0, 77, 106
1, 131437, Note_on_c, 0, 75, 92
1, 131530, Note_off_c, 0, 75, 92
1, 131536, Note_on_c, 0, 77, 108
1, 131696, Note_off_c, 0, 77, 108
1, 131709, Note_on_c, 0, 73, 98
1, 131958, Note_off_c, 0, 73, 98
1, 131989, Note_on_c, 0, 72, 93
1, 132150, Note_off_c, 0, 72, 93
1, 132186, Note_on_c, 0, 71, 100
1, 132363, Note_off_c, 0, 71, 100
1, 132399, Note_on_c, 0, 73, 95
1, 132575, Note_off_c, 0, 73, 95
1, 132607, Note_on_c, 0, 69, 104
1, 132779, Note_off_c, 0, 69, 104
1, 132803, Note_on_c, 0, 71, 99
1, 132995, Note_off_c, 0, 71, 99
1, 133016, Note_on_c, 0, 67, 100
1, 133212, Note_off_c, 0, 67, 100
1, 133217, Note_on_c, 0, 69, 99
1, 133415, Note_off_c, 0, 69, 99
1, 133443, Note_on_c, 0, 65, 103
1, 133607, Note_off_c, 0, 65, 103
1, 133634, Note_on_c, 0, 67, 99
1, 133786, Note_off_c, 0, 67, 99
1, 133825, Note_on_c, 0, 65, 98
1, 133932, Note_off_c, 0, 65, 98
1, 133941, Note_on_c, 0, 63, 102
1, 134031, Note_off_c, 0, 63, 102
1, 134040, Note_on_c, 0, 61, 102
1, 134197, Note_off_c, 0, 61, 102
1, 134229, Note_on_c, 0, 61, 93
1, 134450, Note_off_c, 0, 61, 93
1, 135292, Note_on_c, 0, 64, 105
1, 135449, Note_off_c, 0, 64, 105
1, 135465, Note_on_c, 0, 62, 101
1, 135705, Note_off_c, 0, 62, 101
1, 135729, Note_on_c, 0, 69, 114
1, 135922, Note_off_c, 0, 69, 114
1, 137390, Note_on_c, 0, 69, 107
1, 137561, Note_off_c, 0, 69, 107
1, 137571, Note_on_c, 0, 71, 101
1, 137782, Note_off_c, 0, 71, 101
1, 137874, Note_on_c, 0, 75, 102
1, 138091, Note_off_c, 0, 75, 102
1, 138234, Note_on_c, 0, 74, 115
1, 138444, Note_off_c, 0, 74, 115
1, 138456, Note_on_c, 0, 76, 115
1, 138666, Note_off_c, 0, 76, 115
1, 138672, Note_on_c, 0, 79, 108
1, 138864, Note_off_c, 0, 79, 108
1, 138874, Note_on_c, 0, 78, 114
1, 139430, Note_off_c, 0, 78, 114
1, 139530, Note_on_c, 0, 81, 122
1, 139733, Note_off_c, 0, 81, 122
1, 139762, Note_on_c, 0, 84, 124
1, 140004, Note_off_c, 0, 84, 124
1, 140132, Note_on_c, 0, 87, 117
1, 140284, Note_off_c, 0, 87, 117
1, 140296, Note_on_c, 0, 90, 121
1, 140515, Note_off_c, 0, 90, 121
1, 140546, Note_on_c, 0, 86, 118
1, 140769, Note_off_c, 0, 86, 118
1, 140813, Note_on_c, 0, 84, 121
1, 140975, Note_off_c, 0, 84, 121
1, 141004, Note_on_c, 0, 84, 121
1, 141183, Note_off_c, 0, 84, 121
1, 141200, Note_on_c, 0, 81, 127
1, 141392, Note_off_c, 0, 81, 127
1, 141405, Note_on_c, 0, 79, 112
1, 141597, Note_off_c, 0, 79, 112
1, 141614, Note_on_c, 0, 78, 114
1, 141802, Note_off_c, 0, 78, 114
1, 141852, Note_on_c, 0, 81, 122
1, 142042, Note_off_c, 0, 81, 122
1, 142055, Note_on_c, 0, 78, 120
1, 142317, Note_off_c, 0, 78, 120
1, 142317, Note_on_c, 0, 79, 111
1, 142494, Note_off_c, 0, 79, 111
1, 142514, Note_on_c, 0, 74, 116
1, 142668, Note_off_c, 0, 74, 116
1, 142689, Note_on_c, 0, 72, 105
1, 142750, Note_off_c, 0, 72, 105
1, 142754, Note_on_c, 0, 73, 111
1, 142817, Note_off_c, 0, 73, 111
1, 142819, Note_on_c, 0, 72, 113
1, 142935, Note_on_c, 0, 69, 113
1, 142935, Note_off_c, 0, 72, 113
1, 143120, Note_off_c, 0, 69, 113
1, 143122, Note_on_c, 0, 70, 119
1, 143335, Note_off_c, 0, 70, 119
1, 143365, Note_on_c, 0, 66, 97
1, 143463, Note_off_c, 0, 66, 97
1, 143468, Note_on_c, 0, 69, 99
1, 143554, Note_off_c, 0, 69, 99
1, 143554, Note_on_c, 0, 70, 113
1, 143623, Note_off_c, 0, 70, 113
1, 143636, Note_on_c, 0, 69, 112
1, 143746, Note_off_c, 0, 69, 112
1, 143774, Note_on_c, 0, 66, 112
1, 143918, Note_off_c, 0, 66, 112
1, 143931, Note_on_c, 0, 67, 111
1, 144124, Note_off_c, 0, 67, 111
1, 144152, Note_on_c, 0, 69, 115
1, 144306, Note_off_c, 0, 69, 115
1, 144323, Note_on_c, 0, 70, 98
1, 144544, Note_off_c, 0, 70, 98
1, 144588, Note_on_c, 0, 72, 109
1, 144775, Note_off_c, 0, 72, 109
1, 144796, Note_on_c, 0, 73, 108
1, 144961, Note_off_c, 0, 73, 108
1, 144972, Note_on_c, 0, 74, 111
1, 145161, Note_off_c, 0, 74, 111
1, 145251, Note_on_c, 0, 81, 113
1, 145413, Note_off_c, 0, 81, 113
1, 145438, Note_on_c, 0, 78, 117
1, 145642, Note_off_c, 0, 78, 117
1, 145647, Note_on_c, 0, 77, 108
1, 145816, Note_off_c, 0, 77, 108
1, 145873, Note_on_c, 0, 77, 117
1, 146062, Note_off_c, 0, 77, 117
1, 146089, Note_on_c, 0, 76, 108
1, 146256, Note_off_c, 0, 76, 108
1, 146306, Note_on_c, 0, 74, 98
1, 146439, Note_off_c, 0, 74, 98
1, 146477, Note_on_c, 0, 73, 91
1, 146567, Note_off_c, 0, 73, 91
1, 146576, Note_on_c, 0, 72, 108
1, 146740, Note_off_c, 0, 72, 108
1, 146743, Note_on_c, 0, 71, 106
1, 146880, Note_off_c, 0, 71, 106
1, 146885, Note_on_c, 0, 70, 106
1, 147083, Note_off_c, 0, 70, 106
1, 147111, Note_on_c, 0, 68, 89
1, 147263, Note_off_c, 0, 68, 89
1, 147284, Note_on_c, 0, 69, 103
1, 147509, Note_off_c, 0, 69, 103
1, 147545, Note_on_c, 0, 65, 107
1, 147710, Note_off_c, 0, 65, 107
1, 147744, Note_on_c, 0, 64, 90
1, 147861, Note_off_c, 0, 64, 90
1, 147874, Note_on_c, 0, 62, 87
1, 147976, Note_off_c, 0, 62, 87
1, 147995, Note_on_c, 0, 61, 85
1, 148099, Note_off_c, 0, 61, 85
1, 148114, Note_on_c, 0, 67, 97
1, 148362, Note_off_c, 0, 67, 97
1, 148416, Note_on_c, 0, 65, 93
1, 148933, Note_off_c, 0, 65, 93
1, 148973, Note_on_c, 0, 64, 96
1, 149059, Note_off_c, 0, 64, 96
1, 149070, Note_on_c, 0, 65, 96
1, 149129, Note_off_c, 0, 65, 96
1, 149140, Note_on_c, 0, 64, 96
1, 149195, Note_off_c, 0, 64, 96
1, 149210, Note_on_c, 0, 62, 93
1, 149354, Note_off_c, 0, 62, 93
1, 149408, Note_on_c, 0, 61, 95
1, 149579, Note_off_c, 0, 61, 95
1, 150703, Note_on_c, 0, 63, 91
1, 150758, Note_off_c, 0, 63, 91
1, 150764, Note_on_c, 0, 65, 91
1, 150827, Note_off_c, 0, 65, 91
1, 150828, Note_on_c, 0, 67, 80
1, 150880, Note_off_c, 0, 67, 80
1, 150888, Note_on_c, 0, 68, 91
1, 150985, Note_off_c, 0, 68, 91
1, 150989, Note_on_c, 0, 69, 91
1, 151059, Note_off_c, 0, 69, 91
1, 151063, Note_on_c, 0, 70, 114
1, 151164, Note_off_c, 0, 70, 114
1, 151169, Note_on_c, 0, 69, 109
1, 151262, Note_off_c, 0, 69, 109
1, 151271, Note_on_c, 0, 67, 103
1, 151360, Note_off_c, 0, 67, 103
1, 151380, Note_on_c, 0, 65, 104
1, 151484, Note_off_c, 0, 65, 104
1, 151500, Note_on_c, 0, 63, 103
1, 151605, Note_off_c, 0, 63, 103
1, 151617, Note_on_c, 0, 65, 108
1, 151706, Note_off_c, 0, 65, 108
1, 151723, Note_on_c, 0, 67, 95
1, 151815, Note_off_c, 0, 67, 95
1, 151827, Note_on_c, 0, 68, 93
1, 151913, Note_off_c, 0, 68, 93
1, 151922, Note_on_c, 0, 70, 108
1, 152010, Note_off_c, 0, 70, 108
1, 152016, Note_on_c, 0, 68, 112
1, 152140, Note_off_c, 0, 68, 112
1, 152153, Note_on_c, 0, 66, 110
1, 152237, Note_off_c, 0, 66, 110
1, 152246, Note_on_c, 0, 65, 115
1, 152349, Note_off_c, 0, 65, 115
1, 152366, Note_on_c, 0, 62, 98
1, 152511, Note_off_c, 0, 62, 98
1, 152513, Note_on_c, 0, 63, 91
1, 152571, Note_off_c, 0, 63, 91
1, 152600, Note_on_c, 0, 64, 99
1, 152681, Note_off_c, 0, 64, 99
1, 152692, Note_on_c, 0, 66, 87
1, 152780, Note_off_c, 0, 66, 87
1, 152799, Note_on_c, 0, 68, 95
1, 152853, Note_off_c, 0, 68, 95
1, 152862, Note_on_c, 0, 69, 104
1, 152969, Note_off_c, 0, 69, 104
1, 152975, Note_on_c, 0, 67, 100
1, 153065, Note_off_c, 0, 67, 100
1, 153081, Note_on_c, 0, 65, 99
1, 153176, Note_off_c, 0, 65, 99
1, 153185, Note_on_c, 0, 62, 95
1, 153296, Note_off_c, 0, 62, 95
1, 153305, Note_on_c, 0, 63, 92
1, 153401, Note_off_c, 0, 63, 92
1, 153424, Note_on_c, 0, 65, 89
1, 153502, Note_off_c, 0, 65, 89
1, 153511, Note_on_c, 0, 67, 93
1, 153615, Note_off_c, 0, 67, 93
1, 153628, Note_on_c, 0, 69, 104
1, 153758, Note_off_c, 0, 69, 104
1, 153760, Note_on_c, 0, 67, 101
1, 153898, Note_off_c, 0, 67, 101
1, 153911, Note_on_c, 0, 65, 100
1, 154065, Note_off_c, 0, 65, 100
1, 154074, Note_on_c, 0, 64, 113
1, 154149, Note_off_c, 0, 64, 113
1, 154166, Note_on_c, 0, 65, 107
1, 154221, Note_off_c, 0, 65, 107
1, 154231, Note_on_c, 0, 64, 94
1, 154307, Note_off_c, 0, 64, 94
1, 154369, Note_on_c, 0, 68, 91
1, 154450, Note_off_c, 0, 68, 91
1, 154452, Note_on_c, 0, 70, 111
1, 154537, Note_off_c, 0, 70, 111
1, 154549, Note_on_c, 0, 68, 110
1, 154650, Note_off_c, 0, 68, 110
1, 154659, Note_on_c, 0, 67, 101
1, 154747, Note_off_c, 0, 67, 101
1, 154756, Note_on_c, 0, 65, 102
1, 154867, Note_off_c, 0, 65, 102
1, 154884, Note_on_c, 0, 64, 108
1, 155017, Note_off_c, 0, 64, 108
1, 155026, Note_on_c, 0, 65, 105
1, 155091, Note_off_c, 0, 65, 105
1, 155097, Note_on_c, 0, 67, 96
1, 155168, Note_off_c, 0, 67, 96
1, 155169, Note_on_c, 0, 68, 100
1, 155257, Note_off_c, 0, 68, 100
1, 155262, Note_on_c, 0, 70, 112
1, 155355, Note_off_c, 0, 70, 112
1, 155361, Note_on_c, 0, 68, 105
1, 155495, Note_off_c, 0, 68, 105
1, 155499, Note_on_c, 0, 67, 104
1, 155581, Note_off_c, 0, 67, 104
1, 155591, Note_on_c, 0, 65, 108
1, 155707, Note_off_c, 0, 65, 108
1, 155715, Note_on_c, 0, 62, 94
1, 155848, Note_off_c, 0, 62, 94
1, 155860, Note_on_c, 0, 64, 92
1, 155978, Note_off_c, 0, 64, 92
1, 155983, Note_on_c, 0, 65, 107
1, 156038, Note_off_c, 0, 65, 107
1, 156043, Note_on_c, 0, 67, 99
1, 156114, Note_off_c, 0, 67, 99
1, 156114, Note_on_c, 0, 70, 108
1, 156206, Note_off_c, 0, 70, 108
1, 156212, Note_on_c, 0, 69, 106
1, 156313, Note_off_c, 0, 69, 106
1, 156323, Note_on_c, 0, 67, 98
1, 156420, Note_off_c, 0, 67, 98
1, 156426, Note_on_c, 0, 65, 93
1, 156532, Note_off_c, 0, 65, 93
1, 156546, Note_on_c, 0, 62, 108
1, 156650, Note_off_c, 0, 62, 108
1, 156654, Note_on_c, 0, 64, 102
1, 156749, Note_off_c, 0, 64, 102
1, 156766, Note_on_c, 0, 65, 96
1, 156847, Note_off_c, 0, 65, 96
1, 156855, Note_on_c, 0, 67, 92
1, 156937, Note_off_c, 0, 67, 92
1, 156945, Note_on_c, 0, 69, 105
1, 157045, Note_off_c, 0, 69, 105
1, 157053, Note_on_c, 0, 67, 100
1, 157165, Note_off_c, 0, 67, 100
1, 157182, Note_on_c, 0, 65, 96
1, 157300, Note_off_c, 0, 65, 96
1, 157310, Note_on_c, 0, 64, 98
1, 157486, Note_off_c, 0, 64, 98
1, 158879, Note_on_c, 0, 79, 10
1, 159047, Note_off_c, 0, 79, 10
1, 159059, Note_on_c, 0, 80, 103
1, 159128, Note_off_c, 0, 80, 103
1, 159133, Note_on_c, 0, 81, 102
1, 159199, Note_off_c, 0, 81, 102
1, 159209, Note_on_c, 0, 78, 113
1, 159333, Note_off_c, 0, 78, 113
1, 159346, Note_on_c, 0, 76, 115
1, 159495, Note_off_c, 0, 76, 115
1, 159505, Note_on_c, 0, 77, 118
1, 159722, Note_off_c, 0, 77, 118
1, 159743, Note_on_c, 0, 76, 115
1, 159888, Note_off_c, 0, 76, 115
1, 159893, Note_on_c, 0, 77, 106
1, 159975, Note_off_c, 0, 77, 106
1, 159984, Note_on_c, 0, 79, 110
1, 160076, Note_off_c, 0, 79, 110
1, 160080, Note_on_c, 0, 76, 102
1, 160151, Note_off_c, 0, 76, 102
1, 160160, Note_on_c, 0, 74, 105
1, 160309, Note_off_c, 0, 74, 105
1, 160323, Note_on_c, 0, 73, 112
1, 160560, Note_off_c, 0, 73, 112
1, 160964, Note_on_c, 0, 64, 87
1, 161105, Note_off_c, 0, 64, 87
1, 161124, Note_on_c, 0, 65, 89
1, 161303, Note_off_c, 0, 65, 89
1, 161355, Note_on_c, 0, 69, 117
1, 161547, Note_off_c, 0, 69, 117
1, 161559, Note_on_c, 0, 70, 117
1, 161763, Note_off_c, 0, 70, 117
1, 161782, Note_on_c, 0, 69, 107
1, 161974, Note_off_c, 0, 69, 107
1, 162016, Note_on_c, 0, 63, 100
1, 162195, Note_off_c, 0, 63, 100
1, 162211, Note_on_c, 0, 57, 91
1, 162325, Note_off_c, 0, 57, 91
1, 162334, Note_on_c, 0, 62, 95
1, 162756, Note_off_c, 0, 62, 95
1, 162822, Note_on_c, 0, 69, 109
1, 163015, Note_off_c, 0, 69, 109
1, 163433, Note_on_c, 0, 69, 106
1, 163597, Note_off_c, 0, 69, 106
1, 163613, Note_on_c, 0, 65, 103
1, 163835, Note_off_c, 0, 65, 103
1, 163866, Note_on_c, 0, 62, 97
1, 164012, Note_off_c, 0, 62, 97
1, 164014, Note_on_c, 0, 63, 100
1, 164296, Note_off_c, 0, 63, 100
1, 164296, End_track
0, 0, End_of_file
