0, 0, Header, 1, 1, 840
1, 0, Start_track
1, 0, Title_t, "Melody"
1, 0, Tempo, 431654
1, 0, Key_signature, -3, "major"
1, 0, Time_signature, 4, 2, 24, 8
1, 8840, Note_on_c, 0, 73, 112
1, 8931, Note_off_c, 0, 73, 112
1, 8970, Note_on_c, 0, 74, 112
1, 9232, Note_off_c, 0, 74, 112
1, 9466, Note_on_c, 0, 73, 117
1, 9561, Note_off_c, 0, 73, 117
1, 9604, Note_on_c, 0, 74, 111
1, 9897, Note_off_c, 0, 74, 111
1, 10095, Note_on_c, 0, 73, 114
1, 10206, Note_off_c, 0, 73, 114
1, 10221, Note_on_c, 0, 74, 108
1, 10487, Note_off_c, 0, 74, 108
1, 10653, Note_on_c, 0, 73, 91
1, 10768, Note_off_c, 0, 73, 91
1, 10791, Note_on_c, 0, 74, 109
1, 11104, Note_off_c, 0, 74, 109
1, 11258, Note_on_c, 0, 72, 93
1, 11385, Note_off_c, 0, 72, 93
1, 11412, Note_on_c, 0, 74, 111
1, 11686, Note_off_c, 0, 74, 111
1, 11924, Note_on_c, 0, 74, 117
1, 12166, Note_off_c, 0, 74, 117
1, 12273, Note_on_c, 0, 77, 121
1, 12551, Note_off_c, 0, 77, 121
1, 12606, Note_on_c, 0, 75, 110
1, 13058, Note_off_c, 0, 75, 110
1, 13109, Note_on_c, 0, 72, 101
1, 13696, Note_off_c, 0, 72, 101
1, 13910, Note_on_c, 0, 67, 115
1, 14188, Note_off_c, 0, 67, 115
1, 14295, Note_on_c, 0, 63, 90
1, 14584, Note_off_c, 0, 63, 90
1, 14679, Note_on_c, 0, 60, 83
1, 14945, Note_off_c, 0, 60, 83
1, 15056, Note_on_c, 0, 65, 106
1, 15389, Note_off_c, 0, 65, 106
1, 16417, Note_on_c, 0, 67, 110
1, 16683, Note_off_c, 0, 67, 110
1, 16742, Note_on_c, 0, 68, 108
1, 17115, Note_off_c, 0, 68, 108
1, 17198, Note_on_c, 0, 69, 114
1, 17483, Note_off_c, 0, 69, 114
1, 17538, Note_on_c, 0, 72, 85
1, 17629, Note_off_c, 0, 72, 85
1, 17656, Note_on_c, 0, 74, 102
1, 17719, Note_off_c, 0, 74, 102
1, 17810, Note_on_c, 0, 72, 98
1, 18103, Note_off_c, 0, 72, 98
1, 18178, Note_on_c, 0, 69, 92
1, 18324, Note_off_c, 0, 69, 92
1, 18431, Note_on_c, 0, 70, 112
1, 18824, Note_off_c, 0, 70, 112
1, 18955, Note_on_c, 0, 58, 88
1, 19149, Note_off_c, 0, 58, 88
1, 19315, Note_on_c, 0, 63, 100
1, 19676, Note_off_c, 0, 63, 100
1, 19711, Note_on_c, 0, 68, 116
1, 20147, Note_off_c, 0, 68, 116
1, 20178, Note_on_c, 0, 67, 115
1, 20539, Note_off_c, 0, 67, 115
1, 20630, Note_on_c, 0, 63, 106
1, 20935, Note_off_c, 0, 63, 106
1, 21018, Note_on_c, 0, 60, 89
1, 21307, Note_off_c, 0, 60, 89
1, 21469, Note_on_c, 0, 56, 86
1, 21643, Note_off_c, 0, 56, 86
1, 21821, Note_on_c, 0, 62, 104
1, 22563, Note_off_c, 0, 62, 104
1, 22606, Note_on_c, 0, 60, 80
1, 22669, Note_off_c, 0, 60, 80
1, 22744, Note_on_c, 0, 62, 90
1, 22990, Note_off_c, 0, 62, 90
1, 23073, Note_on_c, 0, 59, 95
1, 23553, Note_off_c, 0, 59, 95
1, 23652, Note_on_c, 0, 63, 93
1, 23751, Note_off_c, 0, 63, 93
1, 23778, Note_on_c, 0, 65, 105
1, 23913, Note_off_c, 0, 65, 105
1, 23924, Note_on_c, 0, 68, 119
1, 24233, Note_off_c, 0, 68, 119
1, 24292, Note_on_c, 0, 67, 112
1, 26071, Note_off_c, 0, 67, 112
1, 26341, Note_on_c, 0, 73, 97
1, 26424, Note_off_c, 0, 73, 97
1, 26475, Note_on_c, 0, 74, 115
1, 26840, Note_off_c, 0, 74, 115
1, 26979, Note_on_c, 0, 72, 120
1, 27264, Note_off_c, 0, 72, 120
1, 27335, Note_on_c, 0, 67, 112
1, 27557, Note_off_c, 0, 67, 112
1, 27604, Note_on_c, 0, 63, 100
1, 27830, Note_off_c, 0, 63, 100
1, 27980, Note_on_c, 0, 62, 82
1, 28111, Note_off_c, 0, 62, 82
1, 28142, Note_on_c, 0, 66, 115
1, 28888, Note_off_c, 0, 66, 115
1, 28899, Note_on_c, 0, 70, 111
1, 29196, Note_off_c, 0, 70, 111
1, 29291, Note_on_c, 0, 65, 94
1, 29680, Note_off_c, 0, 65, 94
1, 29759, Note_on_c, 0, 63, 91
1, 30052, Note_off_c, 0, 63, 91
1, 30079, Note_on_c, 0, 68, 107
1, 30555, Note_off_c, 0, 68, 107
1, 30684, Note_on_c, 0, 66, 91
1, 32000, Note_off_c, 0, 66, 91
1, 35106, Note_on_c, 0, 79, 112
1, 35269, Note_off_c, 0, 79, 112
1, 35492, Note_on_c, 0, 79, 117
1, 35638, Note_off_c, 0, 79, 117
1, 35654, Note_on_c, 0, 80, 122
1, 35868, Note_off_c, 0, 80, 122
1, 35893, Note_on_c, 0, 79, 104
1, 36135, Note_off_c, 0, 79, 104
1, 36352, Note_on_c, 0, 67, 97
1, 36518, Note_off_c, 0, 67, 97
1, 36540, Note_on_c, 0, 69, 101
1, 36729, Note_off_c, 0, 69, 101
1, 36793, Note_on_c, 0, 71, 100
1, 36948, Note_off_c, 0, 71, 100
1, 37156, Note_on_c, 0, 71, 99
1, 37266, Note_off_c, 0, 71, 99
1, 37328, Note_on_c, 0, 72, 112
1, 37477, Note_off_c, 0, 72, 112
1, 37513, Note_on_c, 0, 71, 110
1, 37659, Note_off_c, 0, 71, 110
1, 37726, Note_on_c, 0, 69, 107
1, 37855, Note_off_c, 0, 69, 107
1, 37905, Note_on_c, 0, 67, 98
1, 38080, Note_off_c, 0, 67, 98
1, 39610, Note_on_c, 0, 79, 127
1, 39965, Note_off_c, 0, 79, 127
1, 40027, Note_on_c, 0, 74, 120
1, 40459, Note_off_c, 0, 74, 120
1, 40487, Note_on_c, 0, 77, 125
1, 40811, Note_off_c, 0, 77, 125
1, 40861, Note_on_c, 0, 75, 118
1, 41276, Note_off_c, 0, 75, 118
1, 41312, Note_on_c, 0, 67, 110
1, 41676, Note_off_c, 0, 67, 110
1, 41712, Note_on_c, 0, 70, 118
1, 42129, Note_off_c, 0, 70, 118
1, 42151, Note_on_c, 0, 68, 114
1, 42416, Note_off_c, 0, 68, 114
1, 42489, Note_on_c, 0, 63, 104
1, 42833, Note_off_c, 0, 63, 104
1, 42903, Note_on_c, 0, 60, 97
1, 43326, Note_off_c, 0, 60, 97
1, 43359, Note_on_c, 0, 59, 82
1, 43695, Note_off_c, 0, 59, 82
1, 43759, Note_on_c, 0, 67, 115
1, 44114, Note_off_c, 0, 67, 115
1, 44170, Note_on_c, 0, 62, 93
1, 44545, Note_off_c, 0, 62, 93
1, 44643, Note_on_c, 0, 58, 88
1, 44874, Note_off_c, 0, 58, 88
1, 44989, Note_on_c, 0, 65, 117
1, 45423, Note_off_c, 0, 65, 117
1, 45465, Note_on_c, 0, 62, 95
1, 45719, Note_off_c, 0, 62, 95
1, 45747, Note_on_c, 0, 63, 98
1, 45950, Note_off_c, 0, 63, 98
1, 45983, Note_on_c, 0, 67, 96
1, 46138, Note_off_c, 0, 67, 96
1, 46202, Note_on_c, 0, 70, 116
1, 46504, Note_off_c, 0, 70, 116
1, 46653, Note_on_c, 0, 74, 115
1, 46952, Note_off_c, 0, 74, 115
1, 47115, Note_on_c, 0, 77, 121
1, 47448, Note_off_c, 0, 77, 121
1, 47498, Note_on_c, 0, 75, 110
1, 47873, Note_off_c, 0, 75, 110
1, 47915, Note_on_c, 0, 73, 112
1, 48256, Note_off_c, 0, 73, 112
1, 48274, Note_on_c, 0, 74, 109
1, 48969, Note_off_c, 0, 74, 109
1, 49048, Note_on_c, 0, 72, 112
1, 49250, Note_off_c, 0, 72, 112
1, 49269, Note_on_c, 0, 74, 107
1, 49519, Note_off_c, 0, 74, 107
1, 49685, Note_on_c, 0, 71, 111
1, 50241, Note_off_c, 0, 71, 111
1, 50459, Note_on_c, 0, 62, 80
1, 50649, Note_off_c, 0, 62, 80
1, 50801, Note_on_c, 0, 65, 101
1, 51218, Note_off_c, 0, 65, 101
1, 51277, Note_on_c, 0, 70, 96
1, 51596, Note_off_c, 0, 70, 96
1, 51680, Note_on_c, 0, 67, 93
1, 52343, Note_off_c, 0, 67, 93
1, 52450, Note_on_c, 0, 65, 96
1, 52636, Note_off_c, 0, 65, 96
1, 52700, Note_on_c, 0, 67, 91
1, 52852, Note_off_c, 0, 67, 91
1, 53015, Note_on_c, 0, 63, 106
1, 53571, Note_off_c, 0, 63, 106
1, 53655, Note_on_c, 0, 59, 75
1, 53897, Note_off_c, 0, 59, 75
1, 54117, Note_on_c, 0, 62, 92
1, 54495, Note_off_c, 0, 62, 92
1, 54548, Note_on_c, 0, 60, 86
1, 54785, Note_off_c, 0, 60, 86
1, 54917, Note_on_c, 0, 66, 90
1, 55258, Note_off_c, 0, 66, 90
1, 55368, Note_on_c, 0, 63, 84
1, 55605, Note_off_c, 0, 63, 84
1, 55610, Note_on_c, 0, 56, 89
1, 55810, Note_off_c, 0, 56, 89
1, 55872, Note_on_c, 0, 58, 88
1, 56097, Note_off_c, 0, 58, 88
1, 56249, Note_on_c, 0, 60, 88
1, 56548, Note_off_c, 0, 60, 88
1, 56638, Note_on_c, 0, 63, 96
1, 56962, Note_off_c, 0, 63, 96
1, 57058, Note_on_c, 0, 65, 102
1, 57360, Note_off_c, 0, 65, 102
1, 57450, Note_on_c, 0, 70, 99
1, 57828, Note_off_c, 0, 70, 99
1, 57881, Note_on_c, 0, 66, 100
1, 58219, Note_off_c, 0, 66, 100
1, 58281, Note_on_c, 0, 68, 87
1, 59077, Note_off_c, 0, 68, 87
1, 61265, Note_on_c, 0, 80, 124
1, 61615, Note_off_c, 0, 80, 124
1, 61722, Note_on_c, 0, 79, 125
1, 62021, Note_off_c, 0, 79, 125
1, 62049, Note_on_c, 0, 80, 117
1, 62365, Note_off_c, 0, 80, 117
1, 62537, Note_on_c, 0, 79, 125
1, 62895, Note_off_c, 0, 79, 125
1, 62988, Note_on_c, 0, 77, 124
1, 63315, Note_off_c, 0, 77, 124
1, 63416, Note_on_c, 0, 76, 103
1, 63757, Note_off_c, 0, 76, 103
1, 63810, Note_on_c, 0, 74, 117
1, 64131, Note_off_c, 0, 74, 117
1, 64235, Note_on_c, 0, 72, 107
1, 64523, Note_off_c, 0, 72, 107
1, 64692, Note_on_c, 0, 70, 107
1, 65013, Note_off_c, 0, 70, 107
1, 65083, Note_on_c, 0, 67, 82
1, 65212, Note_off_c, 0, 67, 82
1, 65237, Note_on_c, 0, 69, 94
1, 65406, Note_off_c, 0, 69, 94
1, 65530, Note_on_c, 0, 60, 86
1, 65722, Note_off_c, 0, 60, 86
1, 65894, Note_on_c, 0, 63, 95
1, 66232, Note_off_c, 0, 63, 95
1, 66257, Note_on_c, 0, 67, 96
1, 66638, Note_off_c, 0, 67, 96
1, 66745, Note_on_c, 0, 65, 95
1, 67033, Note_off_c, 0, 65, 95
1, 67248, Note_on_c, 0, 58, 82
1, 67414, Note_off_c, 0, 58, 82
1, 67500, Note_on_c, 0, 62, 94
1, 67655, Note_off_c, 0, 62, 94
1, 67717, Note_on_c, 0, 65, 101
1, 67889, Note_off_c, 0, 65, 101
1, 67976, Note_on_c, 0, 68, 104
1, 68281, Note_off_c, 0, 68, 104
1, 68458, Note_on_c, 0, 71, 106
1, 68782, Note_off_c, 0, 71, 106
1, 68863, Note_on_c, 0, 70, 101
1, 69148, Note_off_c, 0, 70, 101
1, 69269, Note_on_c, 0, 63, 98
1, 69703, Note_off_c, 0, 63, 98
1, 70553, Note_on_c, 0, 70, 113
1, 70838, Note_off_c, 0, 70, 113
1, 70908, Note_on_c, 0, 68, 97
1, 71266, Note_off_c, 0, 68, 97
1, 71339, Note_on_c, 0, 66, 107
1, 71663, Note_off_c, 0, 66, 107
1, 71696, Note_on_c, 0, 65, 103
1, 72085, Note_off_c, 0, 65, 103
1, 72245, Note_on_c, 0, 56, 80
1, 72417, Note_off_c, 0, 56, 80
1, 72493, Note_on_c, 0, 63, 94
1, 72761, Note_off_c, 0, 63, 94
1, 72806, Note_on_c, 0, 60, 88
1, 72972, Note_off_c, 0, 60, 88
1, 73048, Note_on_c, 0, 61, 81
1, 74126, Note_off_c, 0, 61, 81
1, 74976, Note_on_c, 0, 65, 95
1, 75117, Note_off_c, 0, 65, 95
1, 75148, Note_on_c, 0, 67, 103
1, 75297, Note_off_c, 0, 67, 103
1, 75333, Note_on_c, 0, 69, 90
1, 75437, Note_off_c, 0, 69, 90
1, 75487, Note_on_c, 0, 70, 83
1, 75625, Note_off_c, 0, 70, 83
1, 75673, Note_on_c, 0, 72, 105
1, 75856, Note_off_c, 0, 72, 105
1, 75937, Note_on_c, 0, 69, 105
1, 76035, Note_off_c, 0, 69, 105
1, 76085, Note_on_c, 0, 67, 97
1, 76254, Note_off_c, 0, 67, 97
1, 76344, Note_on_c, 0, 65, 94
1, 76536, Note_off_c, 0, 65, 94
1, 76547, Note_on_c, 0, 68, 103
1, 76679, Note_off_c, 0, 68, 103
1, 76693, Note_on_c, 0, 70, 91
1, 76800, Note_off_c, 0, 70, 91
1, 76819, Note_on_c, 0, 68, 102
1, 76982, Note_off_c, 0, 68, 102
1, 77004, Note_on_c, 0, 67, 97
1, 77108, Note_off_c, 0, 67, 97
1, 77178, Note_on_c, 0, 64, 99
1, 77378, Note_off_c, 0, 64, 99
1, 77397, Note_on_c, 0, 65, 102
1, 77605, Note_off_c, 0, 65, 102
1, 77667, Note_on_c, 0, 70, 89
1, 77949, Note_off_c, 0, 70, 89
1, 78197, Note_on_c, 0, 63, 96
1, 78417, Note_off_c, 0, 63, 96
1, 78462, Note_on_c, 0, 65, 104
1, 78611, Note_off_c, 0, 65, 104
1, 78642, Note_on_c, 0, 67, 91
1, 78802, Note_off_c, 0, 67, 91
1, 78818, Note_on_c, 0, 68, 89
1, 79004, Note_off_c, 0, 68, 89
1, 79026, Note_on_c, 0, 70, 109
1, 79201, Note_off_c, 0, 70, 109
1, 79243, Note_on_c, 0, 67, 104
1, 79412, Note_off_c, 0, 67, 104
1, 79426, Note_on_c, 0, 65, 95
1, 79581, Note_off_c, 0, 65, 95
1, 79609, Note_on_c, 0, 63, 95
1, 79764, Note_off_c, 0, 63, 95
1, 79795, Note_on_c, 0, 68, 105
1, 79888, Note_off_c, 0, 68, 105
1, 79910, Note_on_c, 0, 70, 102
1, 80000, Note_off_c, 0, 70, 102
1, 80033, Note_on_c, 0, 68, 104
1, 80151, Note_off_c, 0, 68, 104
1, 80235, Note_on_c, 0, 65, 105
1, 80455, Note_off_c, 0, 65, 105
1, 80474, Note_on_c, 0, 66, 104
1, 80626, Note_off_c, 0, 66, 104
1, 80657, Note_on_c, 0, 65, 90
1, 80865, Note_off_c, 0, 65, 90
1, 80963, Note_on_c, 0, 60, 93
1, 81121, Note_off_c, 0, 60, 93
1, 81860, Note_on_c, 0, 63, 85
1, 81978, Note_off_c, 0, 63, 85
1, 82026, Note_on_c, 0, 59, 87
1, 82203, Note_off_c, 0, 59, 87
1, 82231, Note_on_c, 0, 62, 84
1, 82343, Note_off_c, 0, 62, 84
1, 82376, Note_on_c, 0, 65, 90
1, 82466, Note_off_c, 0, 65, 90
1, 82499, Note_on_c, 0, 64, 95
1, 82674, Note_off_c, 0, 64, 95
1, 82688, Note_on_c, 0, 65, 85
1, 82741, Note_off_c, 0, 65, 85
1, 82769, Note_on_c, 0, 67, 79
1, 82817, Note_off_c, 0, 67, 79
1, 82845, Note_on_c, 0, 70, 92
1, 82977, Note_off_c, 0, 70, 92
1, 83013, Note_on_c, 0, 73, 111
1, 83185, Note_off_c, 0, 73, 111
1, 83199, Note_on_c, 0, 74, 103
1, 83278, Note_off_c, 0, 74, 103
1, 83309, Note_on_c, 0, 73, 106
1, 83421, Note_off_c, 0, 73, 106
1, 83454, Note_on_c, 0, 71, 78
1, 83784, Note_off_c, 0, 71, 78
1, 84473, Note_on_c, 0, 68, 106
1, 84676, Note_off_c, 0, 68, 106
1, 84687, Note_on_c, 0, 70, 103
1, 84994, Note_off_c, 0, 70, 103
1, 85095, Note_on_c, 0, 68, 97
1, 85272, Note_off_c, 0, 68, 97
1, 85334, Note_on_c, 0, 65, 93
1, 85469, Note_off_c, 0, 65, 93
1, 85508, Note_on_c, 0, 66, 96
1, 85677, Note_off_c, 0, 66, 96
1, 85695, Note_on_c, 0, 59, 93
1, 85901, Note_off_c, 0, 59, 93
1, 87588, Note_on_c, 0, 74, 118
1, 87825, Note_off_c, 0, 74, 118
1, 88124, Note_on_c, 0, 79, 122
1, 88406, Note_off_c, 0, 79, 122
1, 88439, Note_on_c, 0, 80, 120
1, 90794, Note_off_c, 0, 80, 120
1, 90990, Note_on_c, 0, 79, 116
1, 91430, Note_off_c, 0, 79, 116
1, 91513, Note_on_c, 0, 83, 90
1, 91580, Note_off_c, 0, 83, 90
1, 91599, Note_on_c, 0, 84, 119
1, 91984, Note_off_c, 0, 84, 119
1, 92051, Note_on_c, 0, 77, 102
1, 92575, Note_off_c, 0, 77, 102
1, 94409, Note_on_c, 0, 75, 122
1, 94766, Note_off_c, 0, 75, 122
1, 94813, Note_on_c, 0, 72, 102
1, 95138, Note_off_c, 0, 72, 102
1, 95229, Note_on_c, 0, 67, 107
1, 95534, Note_off_c, 0, 67, 107
1, 95669, Note_on_c, 0, 66, 91
1, 96086, Note_off_c, 0, 66, 91
1, 96101, Note_on_c, 0, 65, 104
1, 96379, Note_off_c, 0, 65, 104
1, 96478, Note_on_c, 0, 63, 92
1, 96692, Note_off_c, 0, 63, 92
1, 96707, Note_on_c, 0, 65, 89
1, 96921, Note_off_c, 0, 65, 89
1, 96944, Note_on_c, 0, 63, 92
1, 97166, Note_off_c, 0, 63, 92
1, 97257, Note_on_c, 0, 60, 77
1, 97689, Note_off_c, 0, 60, 77
1, 97812, Note_on_c, 0, 63, 102
1, 98121, Note_off_c, 0, 63, 102
1, 100630, Note_on_c, 0, 79, 121
1, 101019, Note_off_c, 0, 79, 121
1, 101142, Note_on_c, 0, 84, 120
1, 101519, Note_off_c, 0, 84, 120
1, 101654, Note_on_c, 0, 78, 121
1, 102249, Note_off_c, 0, 78, 121
1, 102419, Note_on_c, 0, 77, 124
1, 102784, Note_off_c, 0, 77, 124
1, 102859, Note_on_c, 0, 75, 119
1, 103216, Note_off_c, 0, 75, 119
1, 103299, Note_on_c, 0, 77, 122
1, 103636, Note_off_c, 0, 77, 122
1, 103739, Note_on_c, 0, 75, 118
1, 104084, Note_off_c, 0, 75, 118
1, 104147, Note_on_c, 0, 72, 107
1, 104480, Note_off_c, 0, 72, 107
1, 104549, Note_on_c, 0, 67, 101
1, 104962, Note_off_c, 0, 67, 101
1, 105000, Note_on_c, 0, 66, 92
1, 105353, Note_off_c, 0, 66, 92
1, 105398, Note_on_c, 0, 65, 108
1, 105734, Note_off_c, 0, 65, 108
1, 105824, Note_on_c, 0, 63, 95
1, 106185, Note_off_c, 0, 63, 95
1, 106244, Note_on_c, 0, 60, 84
1, 106498, Note_off_c, 0, 60, 84
1, 106627, Note_on_c, 0, 63, 91
1, 106974, Note_off_c, 0, 63, 91
1, 107036, Note_on_c, 0, 65, 107
1, 107434, Note_off_c, 0, 65, 107
1, 107456, Note_on_c, 0, 67, 99
1, 107924, Note_off_c, 0, 67, 99
1, 107988, Note_on_c, 0, 63, 88
1, 108264, Note_off_c, 0, 63, 88
1, 108337, Note_on_c, 0, 64, 88
1, 108842, Note_off_c, 0, 64, 88
1, 108881, Note_on_c, 0, 68, 96
1, 109990, Note_off_c, 0, 68, 96
1, 110100, Note_on_c, 0, 66, 86
1, 110489, Note_off_c, 0, 66, 86
1, 110500, Note_on_c, 0, 70, 109
1, 110827, Note_off_c, 0, 70, 109
1, 110920, Note_on_c, 0, 65, 91
1, 111230, Note_off_c, 0, 65, 91
1, 111388, Note_on_c, 0, 60, 95
1, 111585, Note_off_c, 0, 60, 95
1, 111672, Note_on_c, 0, 68, 109
1, 112084, Note_off_c, 0, 68, 109
1, 115487, Note_on_c, 0, 67, 90
1, 115602, Note_off_c, 0, 67, 90
1, 115661, Note_on_c, 0, 69, 90
1, 115838, Note_off_c, 0, 69, 90
1, 115877, Note_on_c, 0, 71, 96
1, 116063, Note_off_c, 0, 71, 96
1, 116088, Note_on_c, 0, 72, 100
1, 116268, Note_off_c, 0, 72, 100
1, 116296, Note_on_c, 0, 74, 9
1, 116499, Note_off_c, 0, 74, 9
1, 116532, Note_on_c, 0, 71, 95
1, 116704, Note_off_c, 0, 71, 95
1, 116706, Note_on_c, 0, 72, 103
1, 116900, Note_off_c, 0, 72, 103
1, 116970, Note_on_c, 0, 74, 95
1, 117162, Note_off_c, 0, 74, 95
1, 117193, Note_on_c, 0, 75, 111
1, 117353, Note_off_c, 0, 75, 111
1, 117384, Note_on_c, 0, 77, 107
1, 117570, Note_off_c, 0, 77, 107
1, 117595, Note_on_c, 0, 79, 105
1, 117787, Note_off_c, 0, 79, 105
1, 117835, Note_on_c, 0, 75, 114
1, 118038, Note_off_c, 0, 75, 114
1, 118074, Note_on_c, 0, 74, 102
1, 118184, Note_off_c, 0, 74, 102
1, 118220, Note_on_c, 0, 72, 111
1, 118383, Note_off_c, 0, 72, 111
1, 118462, Note_on_c, 0, 77, 116
1, 118642, Note_off_c, 0, 77, 116
1, 118698, Note_on_c, 0, 74, 102
1, 118839, Note_off_c, 0, 74, 102
1, 118861, Note_on_c, 0, 75, 108
1, 119061, Note_off_c, 0, 75, 108
1, 119148, Note_on_c, 0, 71, 102
1, 119416, Note_off_c, 0, 71, 102
1, 119506, Note_on_c, 0, 74, 108
1, 119683, Note_off_c, 0, 74, 108
1, 119736, Note_on_c, 0, 73, 111
1, 119913, Note_off_c, 0, 73, 111
1, 119997, Note_on_c, 0, 71, 101
1, 120104, Note_off_c, 0, 71, 101
1, 120126, Note_on_c, 0, 72, 108
1, 120278, Note_off_c, 0, 72, 108
1, 120357, Note_on_c, 0, 67, 107
1, 120467, Note_off_c, 0, 67, 107
1, 120534, Note_on_c, 0, 65, 100
1, 120711, Note_off_c, 0, 65, 100
1, 120860, Note_on_c, 0, 64, 91
1, 120944, Note_off_c, 0, 64, 91
1, 120986, Note_on_c, 0, 63, 95
1, 121093, Note_off_c, 0, 63, 95
1, 121109, Note_on_c, 0, 67, 101
1, 121326, Note_off_c, 0, 67, 101
1, 121368, Note_on_c, 0, 62, 99
1, 121492, Note_off_c, 0, 62, 99
1, 121554, Note_on_c, 0, 60, 91
1, 121751, Note_off_c, 0, 60, 91
1, 121841, Note_on_c, 0, 62, 90
1, 122035, Note_off_c, 0, 62, 90
1, 122057, Note_on_c, 0, 63, 96
1, 122265, Note_off_c, 0, 63, 96
1, 122281, Note_on_c, 0, 65, 89
1, 122478, Note_off_c, 0, 65, 89
1, 122503, Note_on_c, 0, 67, 105
1, 122695, Note_off_c, 0, 67, 105
1, 122745, Note_on_c, 0, 64, 94
1, 122914, Note_off_c, 0, 64, 94
1, 122939, Note_on_c, 0, 65, 95
1, 123074, Note_off_c, 0, 65, 95
1, 123133, Note_on_c, 0, 67, 110
1, 123336, Note_off_c, 0, 67, 110
1, 123372, Note_on_c, 0, 68, 101
1, 123547, Note_off_c, 0, 68, 101
1, 123578, Note_on_c, 0, 70, 97
1, 123716, Note_off_c, 0, 70, 97
1, 123766, Note_on_c, 0, 72, 102
1, 123952, Note_off_c, 0, 72, 102
1, 124000, Note_on_c, 0, 71, 103
1, 124183, Note_off_c, 0, 71, 103
1, 124211, Note_on_c, 0, 70, 95
1, 124346, Note_off_c, 0, 70, 95
1, 124391, Note_on_c, 0, 68, 100
1, 124537, Note_off_c, 0, 68, 100
1, 124590, Note_on_c, 0, 67, 97
1, 124742, Note_off_c, 0, 67, 97
1, 124792, Note_on_c, 0, 65, 100
1, 124981, Note_off_c, 0, 65, 100
1, 125031, Note_on_c, 0, 63, 99
1, 125160, Note_off_c, 0, 63, 99
1, 125278, Note_on_c, 0, 58, 83
1, 125424, Note_off_c, 0, 58, 83
1, 125469, Note_on_c, 0, 60, 85
1, 125629, Note_off_c, 0, 60, 85
1, 125671, Note_on_c, 0, 62, 87
1, 125817, Note_off_c, 0, 62, 87
1, 125870, Note_on_c, 0, 63, 98
1, 126019, Note_off_c, 0, 63, 98
1, 126078, Note_on_c, 0, 65, 105
1, 126236, Note_off_c, 0, 65, 105
1, 126289, Note_on_c, 0, 67, 101
1, 126424, Note_off_c, 0, 67, 101
1, 126517, Note_on_c, 0, 68, 97
1, 126689, Note_off_c, 0, 68, 97
1, 126731, Note_on_c, 0, 70, 95
1, 126914, Note_off_c, 0, 70, 95
1, 126956, Note_on_c, 0, 58, 91
1, 127071, Note_off_c, 0, 58, 91
1, 127090, Note_on_c, 0, 60, 82
1, 127217, Note_off_c, 0, 60, 82
1, 127335, Note_on_c, 0, 62, 91
1, 127470, Note_off_c, 0, 62, 91
1, 127481, Note_on_c, 0, 63, 98
1, 127661, Note_off_c, 0, 63, 98
1, 127686, Note_on_c, 0, 65, 90
1, 127838, Note_off_c, 0, 65, 90
1, 127897, Note_on_c, 0, 67, 97
1, 128091, Note_off_c, 0, 67, 97
1, 128172, Note_on_c, 0, 68, 105
1, 128301, Note_off_c, 0, 68, 105
1, 128337, Note_on_c, 0, 70, 110
1, 128537, Note_off_c, 0, 70, 110
1, 128587, Note_on_c, 0, 67, 97
1, 128739, Note_off_c, 0, 67, 97
1, 128787, Note_on_c, 0, 68, 109
1, 128908, Note_off_c, 0, 68, 109
1, 128984, Note_on_c, 0, 65, 97
1, 129116, Note_off_c, 0, 65, 97
1, 129158, Note_on_c, 0, 67, 104
1, 129330, Note_off_c, 0, 67, 104
1, 129400, Note_on_c, 0, 63, 98
1, 129552, Note_off_c, 0, 63, 98
1, 129574, Note_on_c, 0, 65, 109
1, 129754, Note_off_c, 0, 65, 109
1, 129810, Note_on_c, 0, 62, 94
1, 129968, Note_off_c, 0, 62, 94
1, 129973, Note_on_c, 0, 63, 102
1, 130136, Note_off_c, 0, 63, 102
1, 130192, Note_on_c, 0, 60, 93
1, 130327, Note_off_c, 0, 60, 93
1, 130394, Note_on_c, 0, 62, 98
1, 130566, Note_off_c, 0, 62, 98
1, 130650, Note_on_c, 0, 59, 82
1, 130805, Note_off_c, 0, 59, 82
1, 130853, Note_on_c, 0, 59, 92
1, 131115, Note_off_c, 0, 59, 92
1, 131908, Note_on_c, 0, 68, 102
1, 132035, Note_off_c, 0, 68, 102
1, 132102, Note_on_c, 0, 65, 99
1, 132237, Note_off_c, 0, 65, 99
1, 132268, Note_on_c, 0, 66, 89
1, 132428, Note_off_c, 0, 66, 89
1, 132467, Note_on_c, 0, 67, 94
1, 132619, Note_off_c, 0, 67, 94
1, 132647, Note_on_c, 0, 69, 86
1, 132782, Note_off_c, 0, 69, 86
1, 132813, Note_on_c, 0, 71, 109
1, 132914, Note_off_c, 0, 71, 109
1, 132928, Note_on_c, 0, 72, 111
1, 133029, Note_off_c, 0, 72, 111
1, 133071, Note_on_c, 0, 73, 114
1, 133212, Note_off_c, 0, 73, 114
1, 133276, Note_on_c, 0, 74, 106
1, 133459, Note_off_c, 0, 74, 106
1, 133535, Note_on_c, 0, 71, 94
1, 133679, Note_off_c, 0, 71, 94
1, 133710, Note_on_c, 0, 72, 103
1, 133856, Note_off_c, 0, 72, 103
1, 133904, Note_on_c, 0, 74, 109
1, 134090, Note_off_c, 0, 74, 109
1, 134126, Note_on_c, 0, 75, 105
1, 134346, Note_off_c, 0, 75, 105
1, 134405, Note_on_c, 0, 72, 108
1, 134611, Note_off_c, 0, 72, 108
1, 134746, Note_on_c, 0, 68, 113
1, 134926, Note_off_c, 0, 68, 113
1, 134954, Note_on_c, 0, 67, 105
1, 135171, Note_off_c, 0, 67, 105
1, 135207, Note_on_c, 0, 66, 108
1, 135452, Note_off_c, 0, 66, 108
1, 135552, Note_on_c, 0, 65, 96
1, 135718, Note_off_c, 0, 65, 96
1, 135851, Note_on_c, 0, 70, 107
1, 136009, Note_off_c, 0, 70, 107
1, 136062, Note_on_c, 0, 65, 108
1, 136262, Note_off_c, 0, 65, 108
1, 136293, Note_on_c, 0, 64, 106
1, 136437, Note_off_c, 0, 64, 106
1, 136493, Note_on_c, 0, 63, 104
1, 136772, Note_off_c, 0, 63, 104
1, 136811, Note_on_c, 0, 60, 85
1, 136892, Note_off_c, 0, 60, 85
1, 136945, Note_on_c, 0, 58, 79
1, 137052, Note_off_c, 0, 58, 79
1, 137094, Note_on_c, 0, 68, 101
1, 137421, Note_off_c, 0, 68, 101
1, 139804, Note_on_c, 0, 79, 124
1, 140032, Note_off_c, 0, 79, 124
1, 140065, Note_on_c, 0, 80, 120
1, 141076, Note_off_c, 0, 80, 120
1, 142180, Note_on_c, 0, 79, 115
1, 142431, Note_off_c, 0, 79, 115
1, 142682, Note_on_c, 0, 85, 108
1, 142809, Note_off_c, 0, 85, 108
1, 142865, Note_on_c, 0, 87, 119
1, 144415, Note_off_c, 0, 87, 119
1, 144477, Note_on_c, 0, 87, 101
1, 144742, Note_off_c, 0, 87, 101
1, 144801, Note_on_c, 0, 86, 121
1, 145196, Note_off_c, 0, 86, 121
1, 145260, Note_on_c, 0, 84, 119
1, 145669, Note_off_c, 0, 84, 119
1, 145847, Note_on_c, 0, 79, 78
1, 146736, Note_off_c, 0, 79, 78
1, 147822, Note_on_c, 0, 79, 118
1, 148242, Note_off_c, 0, 79, 118
1, 148315, Note_on_c, 0, 78, 123
1, 148614, Note_off_c, 0, 78, 123
1, 148647, Note_on_c, 0, 77, 120
1, 149084, Note_off_c, 0, 77, 120
1, 149117, Note_on_c, 0, 75, 116
1, 149444, Note_off_c, 0, 75, 116
1, 149545, Note_on_c, 0, 72, 88
1, 149872, Note_off_c, 0, 72, 88
1, 149939, Note_on_c, 0, 73, 117
1, 150334, Note_off_c, 0, 73, 117
1, 150370, Note_on_c, 0, 74, 114
1, 150739, Note_off_c, 0, 74, 114
1, 150789, Note_on_c, 0, 73, 114
1, 151153, Note_off_c, 0, 73, 114
1, 151189, Note_on_c, 0, 74, 95
1, 151364, Note_off_c, 0, 74, 95
1, 151414, Note_on_c, 0, 72, 106
1, 151608, Note_off_c, 0, 72, 106
1, 151656, Note_on_c, 0, 71, 110
1, 151912, Note_off_c, 0, 71, 110
1, 152013, Note_on_c, 0, 70, 109
1, 152510, Note_off_c, 0, 70, 109
1, 152597, Note_on_c, 0, 58, 81
1, 152772, Note_off_c, 0, 58, 81
1, 152876, Note_on_c, 0, 63, 98
1, 153325, Note_off_c, 0, 63, 98
1, 153491, Note_on_c, 0, 68, 112
1, 153807, Note_off_c, 0, 68, 112
1, 153840, Note_on_c, 0, 70, 94
1, 153964, Note_off_c, 0, 70, 94
1, 153983, Note_on_c, 0, 68, 90
1, 154127, Note_off_c, 0, 68, 90
1, 154225, Note_on_c, 0, 66, 101
1, 154555, Note_off_c, 0, 66, 101
1, 154619, Note_on_c, 0, 67, 105
1, 155039, Note_off_c, 0, 67, 105
1, 155160, Note_on_c, 0, 57, 89
1, 155459, Note_off_c, 0, 57, 89
1, 155569, Note_on_c, 0, 62, 87
1, 155947, Note_off_c, 0, 62, 87
1, 156079, Note_on_c, 0, 65, 106
1, 156420, Note_off_c, 0, 65, 106
1, 156431, Note_on_c, 0, 70, 76
1, 156524, Note_off_c, 0, 70, 76
1, 156540, Note_on_c, 0, 68, 80
1, 156585, Note_off_c, 0, 68, 80
1, 156613, Note_on_c, 0, 65, 87
1, 156717, Note_off_c, 0, 65, 87
1, 156807, Note_on_c, 0, 63, 98
1, 157151, Note_off_c, 0, 63, 98
1, 157227, Note_on_c, 0, 62, 98
1, 157596, Note_off_c, 0, 62, 98
1, 157668, Note_on_c, 0, 55, 80
1, 157860, Note_off_c, 0, 55, 80
1, 158008, Note_on_c, 0, 59, 88
1, 158505, Note_off_c, 0, 59, 88
1, 158555, Note_on_c, 0, 62, 102
1, 158789, Note_off_c, 0, 62, 102
1, 158800, Note_on_c, 0, 63, 94
1, 158873, Note_off_c, 0, 63, 94
1, 158889, Note_on_c, 0, 65, 94
1, 159033, Note_off_c, 0, 65, 94
1, 159049, Note_on_c, 0, 63, 94
1, 159113, Note_off_c, 0, 63, 94
1, 159144, Note_on_c, 0, 62, 97
1, 159333, Note_off_c, 0, 62, 97
1, 159434, Note_on_c, 0, 59, 87
1, 159674, Note_off_c, 0, 59, 87
1, 159736, Note_on_c, 0, 60, 93
1, 160043, Note_off_c, 0, 60, 93
1, 160192, Note_on_c, 0, 62, 94
1, 160522, Note_off_c, 0, 62, 94
1, 160561, Note_on_c, 0, 63, 94
1, 160919, Note_off_c, 0, 63, 94
1, 160958, Note_on_c, 0, 65, 107
1, 161313, Note_off_c, 0, 65, 107
1, 161372, Note_on_c, 0, 67, 103
1, 161713, Note_off_c, 0, 67, 103
1, 161763, Note_on_c, 0, 68, 104
1, 162116, Note_off_c, 0, 68, 104
1, 162268, Note_on_c, 0, 69, 89
1, 162474, Note_off_c, 0, 69, 89
1, 162488, Note_on_c, 0, 70, 101
1, 162939, Note_off_c, 0, 70, 101
1, 163054, Note_on_c, 0, 66, 94
1, 163231, Note_off_c, 0, 66, 94
1, 163250, Note_on_c, 0, 65, 97
1, 163436, Note_off_c, 0, 65, 97
1, 163472, Note_on_c, 0, 63, 91
1, 163796, Note_off_c, 0, 63, 91
1, 163920, Note_on_c, 0, 68, 98
1, 164419, Note_off_c, 0, 68, 98
1, 164492, Note_on_c, 0, 66, 81
1, 165822, Note_off_c, 0, 66, 81
1, 169388, Note_on_c, 0, 67, 93
1, 169486, Note_off_c, 0, 67, 93
1, 169570, Note_on_c, 0, 69, 93
1, 169697, Note_off_c, 0, 69, 93
1, 169804, Note_on_c, 0, 71, 107
1, 169939, Note_off_c, 0, 71, 107
1, 170001, Note_on_c, 0, 72, 101
1, 170167, Note_off_c, 0, 72, 101
1, 170234, Note_on_c, 0, 74, 107
1, 170380, Note_off_c, 0, 74, 107
1, 170453, Note_on_c, 0, 73, 106
1, 170602, Note_off_c, 0, 73, 106
1, 170624, Note_on_c, 0, 72, 97
1, 170782, Note_off_c, 0, 72, 97
1, 170866, Note_on_c, 0, 69, 97
1, 171021, Note_off_c, 0, 69, 97
1, 171071, Note_on_c, 0, 70, 95
1, 171285, Note_off_c, 0, 70, 95
1, 172160, Note_on_c, 0, 68, 110
1, 172275, Note_off_c, 0, 68, 110
1, 172325, Note_on_c, 0, 69, 93
1, 172474, Note_off_c, 0, 69, 93
1, 172502, Note_on_c, 0, 67, 98
1, 172617, Note_off_c, 0, 67, 98
1, 172696, Note_on_c, 0, 66, 93
1, 172899, Note_off_c, 0, 66, 93
1, 172963, Note_on_c, 0, 64, 94
1, 173092, Note_off_c, 0, 64, 94
1, 173145, Note_on_c, 0, 65, 98
1, 173297, Note_off_c, 0, 65, 98
1, 173336, Note_on_c, 0, 67, 99
1, 173578, Note_off_c, 0, 67, 99
1, 173606, Note_on_c, 0, 68, 80
1, 173752, Note_off_c, 0, 68, 80
1, 173780, Note_on_c, 0, 70, 98
1, 173949, Note_off_c, 0, 70, 98
1, 173963, Note_on_c, 0, 72, 96
1, 174135, Note_off_c, 0, 72, 96
1, 174166, Note_on_c, 0, 71, 98
1, 174312, Note_off_c, 0, 71, 98
1, 174348, Note_on_c, 0, 70, 90
1, 174475, Note_off_c, 0, 70, 90
1, 174593, Note_on_c, 0, 68, 105
1, 174722, Note_off_c, 0, 68, 105
1, 174778, Note_on_c, 0, 67, 87
1, 174913, Note_off_c, 0, 67, 87
1, 175011, Note_on_c, 0, 65, 96
1, 175152, Note_off_c, 0, 65, 96
1, 175185, Note_on_c, 0, 64, 91
1, 175377, Note_off_c, 0, 64, 91
1, 175427, Note_on_c, 0, 62, 89
1, 175579, Note_off_c, 0, 62, 89
1, 175595, Note_on_c, 0, 63, 91
1, 175764, Note_off_c, 0, 63, 91
1, 175778, Note_on_c, 0, 65, 85
1, 175859, Note_off_c, 0, 65, 85
1, 175870, Note_on_c, 0, 66, 94
1, 176047, Note_off_c, 0, 66, 94
1, 176103, Note_on_c, 0, 68, 92
1, 176295, Note_off_c, 0, 68, 92
1, 176328, Note_on_c, 0, 70, 100
1, 176488, Note_off_c, 0, 70, 100
1, 176572, Note_on_c, 0, 72, 99
1, 176699, Note_off_c, 0, 72, 99
1, 176724, Note_on_c, 0, 73, 94
1, 176856, Note_off_c, 0, 73, 94
1, 176906, Note_on_c, 0, 75, 98
1, 177168, Note_off_c, 0, 75, 98
1, 177184, Note_on_c, 0, 76, 116
1, 177409, Note_off_c, 0, 76, 116
1, 177448, Note_on_c, 0, 78, 99
1, 177555, Note_off_c, 0, 78, 99
1, 177636, Note_on_c, 0, 75, 100
1, 177844, Note_off_c, 0, 75, 100
1, 177886, Note_on_c, 0, 73, 102
1, 178066, Note_off_c, 0, 73, 102
1, 178102, Note_on_c, 0, 72, 89
1, 178220, Note_off_c, 0, 72, 89
1, 178262, Note_on_c, 0, 70, 103
1, 178448, Note_off_c, 0, 70, 103
1, 178498, Note_on_c, 0, 68, 98
1, 178625, Note_off_c, 0, 68, 98
1, 178723, Note_on_c, 0, 66, 91
1, 178844, Note_off_c, 0, 66, 91
1, 178892, Note_on_c, 0, 65, 90
1, 179061, Note_off_c, 0, 65, 90
1, 179142, Note_on_c, 0, 60, 84
1, 179280, Note_off_c, 0, 60, 84
1, 179319, Note_on_c, 0, 63, 94
1, 179530, Note_off_c, 0, 63, 94
1, 179575, Note_on_c, 0, 58, 86
1, 179676, Note_off_c, 0, 58, 86
1, 179715, Note_on_c, 0, 61, 83
1, 179827, Note_off_c, 0, 61, 83
1, 179875, Note_on_c, 0, 63, 91
1, 180007, Note_off_c, 0, 63, 91
1, 180066, Note_on_c, 0, 65, 99
1, 180221, Note_off_c, 0, 65, 99
1, 180271, Note_on_c, 0, 68, 95
1, 180426, Note_off_c, 0, 68, 95
1, 180502, Note_on_c, 0, 72, 106
1, 180679, Note_off_c, 0, 72, 106
1, 180715, Note_on_c, 0, 73, 106
1, 181291, Note_off_c, 0, 73, 106
1, 181324, Note_on_c, 0, 68, 107
1, 181524, Note_off_c, 0, 68, 107
1, 181569, Note_on_c, 0, 65, 109
1, 182085, Note_off_c, 0, 65, 109
1, 182277, Note_on_c, 0, 69, 102
1, 182437, Note_off_c, 0, 69, 102
1, 182654, Note_on_c, 0, 69, 95
1, 182862, Note_off_c, 0, 69, 95
1, 183104, Note_on_c, 0, 72, 105
1, 183671, Note_off_c, 0, 72, 105
1, 183719, Note_on_c, 0, 69, 101
1, 183925, Note_off_c, 0, 69, 101
1, 183930, Note_on_c, 0, 70, 98
1, 184085, Note_off_c, 0, 70, 98
1, 184104, Note_on_c, 0, 69, 102
1, 184341, Note_off_c, 0, 69, 102
1, 184369, Note_on_c, 0, 68, 86
1, 184496, Note_off_c, 0, 68, 86
1, 184510, Note_on_c, 0, 70, 106
1, 184648, Note_off_c, 0, 70, 106
1, 184738, Note_on_c, 0, 67, 100
1, 184884, Note_off_c, 0, 67, 100
1, 184968, Note_on_c, 0, 65, 101
1, 185112, Note_off_c, 0, 65, 101
1, 185168, Note_on_c, 0, 64, 96
1, 185340, Note_off_c, 0, 64, 96
1, 185353, Note_on_c, 0, 62, 77
1, 185488, Note_off_c, 0, 62, 77
1, 185522, Note_on_c, 0, 63, 93
1, 185711, Note_off_c, 0, 63, 93
1, 185750, Note_on_c, 0, 65, 96
1, 185905, Note_off_c, 0, 65, 96
1, 185933, Note_on_c, 0, 66, 89
1, 186071, Note_off_c, 0, 66, 89
1, 186167, Note_on_c, 0, 68, 84
1, 186302, Note_off_c, 0, 68, 84
1, 186358, Note_on_c, 0, 70, 92
1, 186479, Note_off_c, 0, 70, 92
1, 186555, Note_on_c, 0, 72, 102
1, 186642, Note_off_c, 0, 72, 102
1, 186667, Note_on_c, 0, 73, 93
1, 186912, Note_off_c, 0, 73, 93
1, 186948, Note_on_c, 0, 71, 79
1, 187100, Note_off_c, 0, 71, 79
1, 187105, Note_on_c, 0, 72, 95
1, 187297, Note_off_c, 0, 72, 95
1, 187330, Note_on_c, 0, 70, 103
1, 187505, Note_off_c, 0, 70, 103
1, 187538, Note_on_c, 0, 69, 95
1, 187653, Note_off_c, 0, 69, 95
1, 187717, Note_on_c, 0, 67, 94
1, 187892, Note_off_c, 0, 67, 94
1, 187911, Note_on_c, 0, 68, 97
1, 188055, Note_off_c, 0, 68, 97
1, 188142, Note_on_c, 0, 66, 98
1, 188311, Note_off_c, 0, 66, 98
1, 188415, Note_on_c, 0, 63, 84
1, 188592, Note_off_c, 0, 63, 84
1, 188614, Note_on_c, 0, 64, 86
1, 188746, Note_off_c, 0, 64, 86
1, 188765, Note_on_c, 0, 65, 94
1, 188920, Note_off_c, 0, 65, 94
1, 188987, Note_on_c, 0, 61, 78
1, 189489, Note_off_c, 0, 61, 78
1, 190878, Note_on_c, 0, 73, 94
1, 191022, Note_off_c, 0, 73, 94
1, 191027, Note_on_c, 0, 72, 104
1, 191216, Note_off_c, 0, 72, 104
1, 191247, Note_on_c, 0, 71, 97
1, 191450, Note_off_c, 0, 71, 97
1, 191537, Note_on_c, 0, 68, 83
1, 191627, Note_off_c, 0, 68, 83
1, 191669, Note_on_c, 0, 73, 94
1, 191779, Note_off_c, 0, 73, 94
1, 191815, Note_on_c, 0, 69, 93
1, 191891, Note_off_c, 0, 69, 93
1, 191916, Note_on_c, 0, 70, 109
1, 192093, Note_off_c, 0, 70, 109
1, 192183, Note_on_c, 0, 66, 89
1, 192312, Note_off_c, 0, 66, 89
1, 192351, Note_on_c, 0, 67, 93
1, 192455, Note_off_c, 0, 67, 93
1, 192486, Note_on_c, 0, 68, 96
1, 192774, Note_off_c, 0, 68, 96
1, 192836, Note_on_c, 0, 65, 90
1, 192948, Note_off_c, 0, 65, 90
1, 192984, Note_on_c, 0, 66, 105
1, 193144, Note_off_c, 0, 66, 105
1, 193663, Note_on_c, 0, 64, 104
1, 193835, Note_off_c, 0, 64, 104
1, 194046, Note_on_c, 0, 62, 90
1, 194142, Note_off_c, 0, 62, 90
1, 194184, Note_on_c, 0, 63, 106
1, 194367, Note_off_c, 0, 63, 106
1, 196372, Note_on_c, 0, 73, 117
1, 196527, Note_off_c, 0, 73, 117
1, 196549, Note_on_c, 0, 74, 112
1, 197147, Note_off_c, 0, 74, 112
1, 197163, Note_on_c, 0, 73, 107
1, 197304, Note_off_c, 0, 73, 107
1, 197366, Note_on_c, 0, 74, 112
1, 198024, Note_off_c, 0, 74, 112
1, 198063, Note_on_c, 0, 73, 108
1, 198198, Note_off_c, 0, 73, 108
1, 198234, Note_on_c, 0, 74, 111
1, 198844, Note_off_c, 0, 74, 111
1, 198883, Note_on_c, 0, 73, 103
1, 199029, Note_off_c, 0, 73, 103
1, 199045, Note_on_c, 0, 74, 108
1, 199751, Note_off_c, 0, 74, 108
1, 199759, Note_on_c, 0, 73, 104
1, 199888, Note_off_c, 0, 73, 104
1, 199890, Note_on_c, 0, 74, 110
1, 200556, Note_off_c, 0, 74, 110
1, 200601, Note_on_c, 0, 74, 97
1, 200804, Note_off_c, 0, 74, 97
1, 200852, Note_on_c, 0, 75, 105
1, 200996, Note_off_c, 0, 75, 105
1, 201072, Note_on_c, 0, 72, 106
1, 201306, Note_off_c, 0, 72, 106
1, 201354, Note_on_c, 0, 72, 89
1, 202065, Note_off_c, 0, 72, 89
1, 203242, Note_on_c, 0, 73, 118
1, 203431, Note_off_c, 0, 73, 118
1, 203456, Note_on_c, 0, 74, 106
1, 204026, Note_off_c, 0, 74, 106
1, 204065, Note_on_c, 0, 73, 108
1, 204163, Note_off_c, 0, 73, 108
1, 204185, Note_on_c, 0, 74, 108
1, 204916, Note_off_c, 0, 74, 108
1, 204941, Note_on_c, 0, 73, 105
1, 205056, Note_off_c, 0, 73, 105
1, 205078, Note_on_c, 0, 74, 112
1, 205750, Note_off_c, 0, 74, 112
1, 205781, Note_on_c, 0, 74, 99
1, 205998, Note_off_c, 0, 74, 99
1, 206020, Note_on_c, 0, 77, 110
1, 206158, Note_off_c, 0, 77, 110
1, 206206, Note_on_c, 0, 75, 110
1, 206462, Note_off_c, 0, 75, 110
1, 206639, Note_on_c, 0, 72, 93
1, 206797, Note_off_c, 0, 72, 93
1, 206847, Note_on_c, 0, 75, 106
1, 207036, Note_off_c, 0, 75, 106
1, 207058, Note_on_c, 0, 74, 106
1, 207255, Note_off_c, 0, 74, 106
1, 207300, Note_on_c, 0, 70, 106
1, 207548, Note_off_c, 0, 70, 106
1, 208358, Note_on_c, 0, 73, 117
1, 208538, Note_off_c, 0, 73, 117
1, 208552, Note_on_c, 0, 74, 101
1, 208724, Note_off_c, 0, 74, 101
1, 208780, Note_on_c, 0, 72, 100
1, 208924, Note_off_c, 0, 72, 100
1, 209003, Note_on_c, 0, 70, 104
1, 209155, Note_off_c, 0, 70, 104
1, 209180, Note_on_c, 0, 71, 100
1, 209321, Note_off_c, 0, 71, 100
1, 209803, Note_on_c, 0, 63, 91
1, 209963, Note_off_c, 0, 63, 91
1, 210022, Note_on_c, 0, 65, 98
1, 210194, Note_off_c, 0, 65, 98
1, 210242, Note_on_c, 0, 68, 103
1, 210408, Note_off_c, 0, 68, 103
1, 210476, Note_on_c, 0, 65, 79
1, 210650, Note_off_c, 0, 65, 79
1, 210666, Note_on_c, 0, 66, 80
1, 210773, Note_off_c, 0, 66, 80
1, 210809, Note_on_c, 0, 67, 87
1, 211142, Note_off_c, 0, 67, 87
1, 211170, Note_on_c, 0, 64, 85
1, 211288, Note_off_c, 0, 64, 85
1, 211299, Note_on_c, 0, 65, 96
1, 211465, Note_off_c, 0, 65, 96
1, 211507, Note_on_c, 0, 62, 83
1, 211597, Note_off_c, 0, 62, 83
1, 211687, Note_on_c, 0, 63, 90
1, 211811, Note_off_c, 0, 63, 90
1, 211864, Note_on_c, 0, 65, 99
1, 211962, Note_off_c, 0, 65, 99
1, 211995, Note_on_c, 0, 67, 87
1, 212136, Note_off_c, 0, 67, 87
1, 212175, Note_on_c, 0, 69, 87
1, 212282, Note_off_c, 0, 69, 87
1, 212313, Note_on_c, 0, 71, 92
1, 212420, Note_off_c, 0, 71, 92
1, 212465, Note_on_c, 0, 72, 101
1, 212549, Note_off_c, 0, 72, 101
1, 212580, Note_on_c, 0, 73, 107
1, 212803, Note_off_c, 0, 73, 107
1, 212825, Note_on_c, 0, 74, 103
1, 213008, Note_off_c, 0, 74, 103
1, 213067, Note_on_c, 0, 71, 83
1, 213177, Note_off_c, 0, 71, 83
1, 213179, Note_on_c, 0, 72, 99
1, 213430, Note_off_c, 0, 72, 99
1, 213483, Note_on_c, 0, 67, 108
1, 213643, Note_off_c, 0, 67, 108
1, 215889, Note_on_c, 0, 82, 118
1, 216623, Note_off_c, 0, 82, 118
1, 216815, Note_on_c, 0, 78, 114
1, 217227, Note_off_c, 0, 78, 114
1, 217300, Note_on_c, 0, 77, 118
1, 217658, Note_off_c, 0, 77, 118
1, 217708, Note_on_c, 0, 75, 113
1, 218075, Note_off_c, 0, 75, 113
1, 218159, Note_on_c, 0, 70, 110
1, 218500, Note_off_c, 0, 70, 110
1, 218550, Note_on_c, 0, 68, 102
1, 218897, Note_off_c, 0, 68, 102
1, 218953, Note_on_c, 0, 63, 85
1, 219241, Note_off_c, 0, 63, 85
1, 219438, Note_on_c, 0, 66, 94
1, 219765, Note_off_c, 0, 66, 94
1, 219818, Note_on_c, 0, 70, 108
1, 220091, Note_off_c, 0, 70, 108
1, 220130, Note_on_c, 0, 65, 97
1, 220483, Note_off_c, 0, 65, 97
1, 220739, Note_on_c, 0, 63, 91
1, 220998, Note_off_c, 0, 63, 91
1, 221014, Note_on_c, 0, 68, 111
1, 221417, Note_off_c, 0, 68, 111
1, 221478, Note_on_c, 0, 66, 109
1, 221768, Note_off_c, 0, 66, 109
1, 221810, Note_on_c, 0, 63, 100
1, 222061, Note_off_c, 0, 63, 100
1, 222123, Note_on_c, 0, 60, 86
1, 222261, Note_off_c, 0, 60, 86
1, 222351, Note_on_c, 0, 62, 95
1, 222802, Note_off_c, 0, 62, 95
1, 222802, End_track
0, 0, End_of_file
