0, 0, Header, 1, 1, 192
1, 0, Start_track
1, 0, Title_t, "Melody"
1, 0, Tempo, 431654
1, 0, Key_signature, -3, "major"
1, 0, Time_signature, 4, 2, 24, 8
1, 271, Note_on_c, 0, 58, 87
1, 333, Note_off_c, 0, 58, 87
1, 333, Note_on_c, 0, 61, 92
1, 395, Note_off_c, 0, 61, 92
1, 395, Note_on_c, 0, 63, 97
1, 457, Note_off_c, 0, 63, 97
1, 457, Note_on_c, 0, 68, 112
1, 518, Note_off_c, 0, 68, 112
1, 519, Note_on_c, 0, 69, 113
1, 581, Note_off_c, 0, 69, 113
1, 581, Note_on_c, 0, 69, 115
1, 643, Note_off_c, 0, 69, 115
1, 643, Note_on_c, 0, 68, 108
1, 705, Note_off_c, 0, 68, 108
1, 705, Note_on_c, 0, 68, 111
1, 767, Note_off_c, 0, 68, 111
1, 767, Note_on_c, 0, 68, 111
1, 829, Note_off_c, 0, 68, 111
1, 829, Note_on_c, 0, 66, 115
1, 891, Note_off_c, 0, 66, 115
1, 891, Note_on_c, 0, 66, 78
1, 952, Note_off_c, 0, 66, 78
1, 952, Note_on_c, 0, 58, 86
1, 1014, Note_off_c, 0, 58, 86
1, 1014, Note_on_c, 0, 63, 104
1, 1076, Note_off_c, 0, 63, 104
1, 1076, Note_on_c, 0, 65, 110
1, 1138, Note_off_c, 0, 65, 110
1, 1138, Note_on_c, 0, 63, 107
1, 1200, Note_off_c, 0, 63, 107
1, 1200, Note_on_c, 0, 61, 103
1, 1255, Note_off_c, 0, 61, 103
1, 1256, Note_on_c, 0, 58, 84
1, 1305, Note_off_c, 0, 58, 84
1, 1316, Note_on_c, 0, 61, 102
1, 1366, Note_off_c, 0, 61, 102
1, 1367, Note_on_c, 0, 63, 103
1, 1429, Note_off_c, 0, 63, 103
1, 1441, Note_on_c, 0, 65, 112
1, 1497, Note_off_c, 0, 65, 112
1, 1500, Note_on_c, 0, 66, 111
1, 1562, Note_off_c, 0, 66, 111
1, 1568, Note_on_c, 0, 67, 97
1, 1855, Note_off_c, 0, 67, 97
1, 1917, Note_on_c, 0, 70, 115
1, 1976, Note_off_c, 0, 70, 115
1, 2192, Note_on_c, 0, 60, 88
1, 2233, Note_off_c, 0, 60, 88
1, 2258, Note_on_c, 0, 63, 97
1, 2288, Note_off_c, 0, 63, 97
1, 2306, Note_on_c, 0, 65, 108
1, 2334, Note_off_c, 0, 65, 108
1, 2372, Note_on_c, 0, 66, 73
1, 2559, Note_off_c, 0, 66, 73
1, 2681, Note_on_c, 0, 63, 100
1, 2732, Note_off_c, 0, 63, 100
1, 2768, Note_on_c, 0, 65, 103
1, 2864, Note_off_c, 0, 65, 103
1, 2871, Note_on_c, 0, 63, 109
1, 2899, Note_off_c, 0, 63, 109
1, 2900, Note_on_c, 0, 60, 90
1, 2964, Note_off_c, 0, 60, 90
1, 2964, Note_on_c, 0, 57, 88
1, 3028, Note_off_c, 0, 57, 88
1, 3054, Note_on_c, 0, 63, 104
1, 3310, Note_off_c, 0, 63, 104
1, 3324, Note_on_c, 0, 65, 100
1, 3427, Note_off_c, 0, 65, 100
1, 3449, Note_on_c, 0, 61, 90
1, 3740, Note_off_c, 0, 61, 90
1, 4318, Note_on_c, 0, 71, 122
1, 4350, Note_off_c, 0, 71, 122
1, 4361, Note_on_c, 0, 72, 119
1, 4583, Note_off_c, 0, 72, 119
1, 4613, Note_on_c, 0, 70, 118
1, 4672, Note_off_c, 0, 70, 118
1, 4705, Note_on_c, 0, 68, 114
1, 4764, Note_off_c, 0, 68, 114
1, 4805, Note_on_c, 0, 65, 95
1, 4851, Note_off_c, 0, 65, 95
1, 4876, Note_on_c, 0, 63, 101
1, 4925, Note_off_c, 0, 63, 101
1, 4926, Note_on_c, 0, 65, 104
1, 4969, Note_off_c, 0, 65, 104
1, 4971, Note_on_c, 0, 66, 99
1, 5020, Note_off_c, 0, 66, 99
1, 5021, Note_on_c, 0, 68, 99
1, 5070, Note_off_c, 0, 68, 99
1, 5070, Note_on_c, 0, 70, 79
1, 5139, Note_off_c, 0, 70, 79
1, 5146, Note_on_c, 0, 70, 115
1, 5233, Note_off_c, 0, 70, 115
1, 5233, Note_on_c, 0, 68, 86
1, 5287, Note_off_c, 0, 68, 86
1, 5332, Note_on_c, 0, 68, 117
1, 5413, Note_off_c, 0, 68, 117
1, 5414, Note_on_c, 0, 66, 99
1, 5465, Note_off_c, 0, 66, 99
1, 5507, Note_on_c, 0, 66, 117
1, 5584, Note_off_c, 0, 66, 117
1, 5584, Note_on_c, 0, 65, 99
1, 5630, Note_off_c, 0, 65, 99
1, 5648, Note_on_c, 0, 65, 101
1, 5694, Note_off_c, 0, 65, 101
1, 5715, Note_on_c, 0, 66, 94
1, 5743, Note_off_c, 0, 66, 94
1, 5743, Note_on_c, 0, 68, 97
1, 5784, Note_off_c, 0, 68, 97
1, 5784, Note_on_c, 0, 70, 97
1, 5830, Note_off_c, 0, 70, 97
1, 5871, Note_on_c, 0, 70, 113
1, 5961, Note_off_c, 0, 70, 113
1, 5973, Note_on_c, 0, 68, 100
1, 6019, Note_off_c, 0, 68, 100
1, 6057, Note_on_c, 0, 68, 115
1, 6121, Note_off_c, 0, 68, 115
1, 6136, Note_on_c, 0, 67, 97
1, 6183, Note_off_c, 0, 67, 97
1, 6213, Note_on_c, 0, 68, 98
1, 6260, Note_off_c, 0, 68, 98
1, 6265, Note_on_c, 0, 70, 106
1, 6305, Note_off_c, 0, 70, 106
1, 6307, Note_on_c, 0, 72, 114
1, 6350, Note_off_c, 0, 72, 114
1, 6352, Note_on_c, 0, 74, 103
1, 6406, Note_off_c, 0, 74, 103
1, 6445, Note_on_c, 0, 77, 110
1, 6488, Note_off_c, 0, 77, 110
1, 6490, Note_on_c, 0, 73, 111
1, 6536, Note_off_c, 0, 73, 111
1, 6537, Note_on_c, 0, 75, 120
1, 6578, Note_off_c, 0, 75, 120
1, 6578, Note_on_c, 0, 73, 117
1, 6621, Note_off_c, 0, 73, 117
1, 6621, Note_on_c, 0, 74, 118
1, 6670, Note_off_c, 0, 74, 118
1, 6670, Note_on_c, 0, 73, 111
1, 6716, Note_off_c, 0, 73, 111
1, 6716, Note_on_c, 0, 72, 117
1, 6749, Note_off_c, 0, 72, 117
1, 6756, Note_on_c, 0, 71, 115
1, 6804, Note_off_c, 0, 71, 115
1, 6805, Note_on_c, 0, 70, 107
1, 6838, Note_off_c, 0, 70, 107
1, 6844, Note_on_c, 0, 69, 112
1, 6891, Note_off_c, 0, 69, 112
1, 6891, Note_on_c, 0, 68, 106
1, 6936, Note_off_c, 0, 68, 106
1, 6936, Note_on_c, 0, 66, 103
1, 6981, Note_off_c, 0, 66, 103
1, 6983, Note_on_c, 0, 67, 105
1, 7024, Note_off_c, 0, 67, 105
1, 7025, Note_on_c, 0, 65, 110
1, 7070, Note_off_c, 0, 65, 110
1, 7070, Note_on_c, 0, 64, 109
1, 7112, Note_off_c, 0, 64, 109
1, 7112, Note_on_c, 0, 60, 88
1, 7155, Note_off_c, 0, 60, 88
1, 7361, Note_on_c, 0, 73, 116
1, 7382, Note_off_c, 0, 73, 116
1, 7382, Note_on_c, 0, 74, 123
1, 7414, Note_off_c, 0, 74, 123
1, 7422, Note_on_c, 0, 73, 122
1, 7454, Note_off_c, 0, 73, 122
1, 7454, Note_on_c, 0, 72, 107
1, 7497, Note_on_c, 0, 70, 116
1, 7497, Note_off_c, 0, 72, 107
1, 7540, Note_off_c, 0, 70, 116
1, 7540, Note_on_c, 0, 69, 111
1, 7585, Note_off_c, 0, 69, 111
1, 7586, Note_on_c, 0, 67, 115
1, 7623, Note_off_c, 0, 67, 115
1, 7625, Note_on_c, 0, 68, 111
1, 7673, Note_off_c, 0, 68, 111
1, 7675, Note_on_c, 0, 63, 104
1, 7712, Note_off_c, 0, 63, 104
1, 7714, Note_on_c, 0, 64, 105
1, 7754, Note_off_c, 0, 64, 105
1, 7755, Note_on_c, 0, 67, 112
1, 7802, Note_off_c, 0, 67, 112
1, 7802, Note_on_c, 0, 65, 116
1, 7847, Note_off_c, 0, 65, 116
1, 7847, Note_on_c, 0, 64, 115
1, 7892, Note_off_c, 0, 64, 115
1, 7892, Note_on_c, 0, 63, 110
1, 7937, Note_off_c, 0, 63, 110
1, 7937, Note_on_c, 0, 61, 94
1, 7982, Note_off_c, 0, 61, 94
1, 7982, Note_on_c, 0, 62, 110
1, 8028, Note_off_c, 0, 62, 110
1, 8028, Note_on_c, 0, 58, 99
1, 8074, Note_off_c, 0, 58, 99
1, 8570, Note_on_c, 0, 70, 117
1, 8629, Note_off_c, 0, 70, 117
1, 8629, Note_on_c, 0, 72, 116
1, 8683, Note_off_c, 0, 72, 116
1, 8683, Note_on_c, 0, 75, 122
1, 8744, Note_off_c, 0, 75, 122
1, 8778, Note_on_c, 0, 78, 118
1, 8886, Note_off_c, 0, 78, 118
1, 8888, Note_on_c, 0, 75, 122
1, 8950, Note_off_c, 0, 75, 122
1, 8962, Note_on_c, 0, 73, 110
1, 9023, Note_off_c, 0, 73, 110
1, 9025, Note_on_c, 0, 70, 117
1, 9074, Note_off_c, 0, 70, 117
1, 9077, Note_on_c, 0, 69, 113
1, 9118, Note_off_c, 0, 69, 113
1, 9133, Note_on_c, 0, 68, 110
1, 9197, Note_off_c, 0, 68, 110
1, 9198, Note_on_c, 0, 66, 112
1, 9247, Note_off_c, 0, 66, 112
1, 9249, Note_on_c, 0, 63, 107
1, 9298, Note_off_c, 0, 63, 107
1, 9300, Note_on_c, 0, 58, 96
1, 9364, Note_off_c, 0, 58, 96
1, 9395, Note_on_c, 0, 61, 101
1, 9442, Note_off_c, 0, 61, 101
1, 9444, Note_on_c, 0, 63, 108
1, 9671, Note_off_c, 0, 63, 108
1, 9686, Note_on_c, 0, 61, 96
1, 9745, Note_off_c, 0, 61, 96
1, 9745, Note_on_c, 0, 58, 79
1, 9806, Note_off_c, 0, 58, 79
1, 9817, Note_on_c, 0, 63, 95
1, 10136, Note_off_c, 0, 63, 95
1, 10390, Note_on_c, 0, 62, 98
1, 10428, Note_off_c, 0, 62, 98
1, 10438, Note_on_c, 0, 65, 97
1, 10468, Note_off_c, 0, 65, 97
1, 10483, Note_on_c, 0, 67, 98
1, 10521, Note_off_c, 0, 67, 98
1, 10533, Note_on_c, 0, 70, 93
1, 10569, Note_off_c, 0, 70, 93
1, 10579, Note_on_c, 0, 72, 117
1, 10643, Note_off_c, 0, 72, 117
1, 10653, Note_on_c, 0, 73, 117
1, 10776, Note_off_c, 0, 73, 117
1, 10777, Note_on_c, 0, 70, 97
1, 10823, Note_off_c, 0, 70, 97
1, 10824, Note_on_c, 0, 72, 118
1, 11304, Note_off_c, 0, 72, 118
1, 11335, Note_on_c, 0, 70, 107
1, 11399, Note_off_c, 0, 70, 107
1, 11429, Note_on_c, 0, 71, 114
1, 11456, Note_off_c, 0, 71, 114
1, 11458, Note_on_c, 0, 73, 108
1, 11554, Note_off_c, 0, 73, 108
1, 11561, Note_on_c, 0, 66, 114
1, 11657, Note_off_c, 0, 66, 114
1, 11912, Note_on_c, 0, 63, 92
1, 11944, Note_off_c, 0, 63, 92
1, 11976, Note_on_c, 0, 66, 100
1, 12008, Note_off_c, 0, 66, 100
1, 12030, Note_on_c, 0, 67, 111
1, 12060, Note_off_c, 0, 67, 111
1, 12070, Note_on_c, 0, 70, 99
1, 12100, Note_off_c, 0, 70, 99
1, 12120, Note_on_c, 0, 72, 121
1, 12161, Note_off_c, 0, 72, 121
1, 12180, Note_on_c, 0, 73, 116
1, 12242, Note_off_c, 0, 73, 116
1, 12245, Note_on_c, 0, 70, 95
1, 12288, Note_off_c, 0, 70, 95
1, 12316, Note_on_c, 0, 72, 113
1, 12620, Note_off_c, 0, 72, 113
1, 12749, Note_on_c, 0, 70, 95
1, 12808, Note_off_c, 0, 70, 95
1, 12815, Note_on_c, 0, 72, 113
1, 12871, Note_off_c, 0, 72, 113
1, 12871, Note_on_c, 0, 70, 114
1, 12930, Note_off_c, 0, 70, 114
1, 12964, Note_on_c, 0, 76, 113
1, 12992, Note_off_c, 0, 76, 113
1, 12994, Note_on_c, 0, 77, 113
1, 13077, Note_off_c, 0, 77, 113
1, 13079, Note_on_c, 0, 69, 116
1, 13172, Note_off_c, 0, 69, 116
1, 13267, Note_on_c, 0, 58, 90
1, 13310, Note_off_c, 0, 58, 90
1, 13357, Note_on_c, 0, 68, 115
1, 13434, Note_off_c, 0, 68, 115
1, 13437, Note_on_c, 0, 67, 106
1, 13534, Note_off_c, 0, 67, 106
1, 13537, Note_on_c, 0, 61, 106
1, 13563, Note_off_c, 0, 61, 106
1, 13564, Note_on_c, 0, 58, 93
1, 13627, Note_off_c, 0, 58, 93
1, 13643, Note_on_c, 0, 60, 105
1, 13906, Note_off_c, 0, 60, 105
1, 14024, Note_on_c, 0, 68, 78
1, 14057, Note_off_c, 0, 68, 78
1, 14075, Note_on_c, 0, 70, 88
1, 14174, Note_off_c, 0, 70, 88
1, 14205, Note_on_c, 0, 66, 110
1, 14295, Note_off_c, 0, 66, 110
1, 14860, Note_on_c, 0, 77, 125
1, 14919, Note_off_c, 0, 77, 125
1, 14931, Note_on_c, 0, 76, 127
1, 14975, Note_off_c, 0, 76, 127
1, 14977, Note_on_c, 0, 75, 122
1, 15028, Note_off_c, 0, 75, 122
1, 15028, Note_on_c, 0, 74, 123
1, 15116, Note_off_c, 0, 74, 123
1, 15148, Note_on_c, 0, 77, 123
1, 15236, Note_off_c, 0, 77, 123
1, 15261, Note_on_c, 0, 75, 116
1, 15356, Note_off_c, 0, 75, 116
1, 15356, Note_on_c, 0, 70, 116
1, 15415, Note_off_c, 0, 70, 116
1, 15445, Note_on_c, 0, 67, 101
1, 15506, Note_off_c, 0, 67, 101
1, 15544, Note_on_c, 0, 68, 114
1, 15603, Note_off_c, 0, 68, 114
1, 15657, Note_on_c, 0, 70, 109
1, 15724, Note_off_c, 0, 70, 109
1, 15744, Note_on_c, 0, 72, 122
1, 15813, Note_off_c, 0, 72, 122
1, 15828, Note_on_c, 0, 74, 116
1, 15915, Note_off_c, 0, 74, 116
1, 15922, Note_on_c, 0, 77, 121
1, 16020, Note_off_c, 0, 77, 121
1, 16032, Note_on_c, 0, 79, 112
1, 16124, Note_off_c, 0, 79, 112
1, 16188, Note_on_c, 0, 74, 114
1, 16342, Note_off_c, 0, 74, 114
1, 16369, Note_on_c, 0, 73, 110
1, 16416, Note_off_c, 0, 73, 110
1, 16416, Note_on_c, 0, 74, 115
1, 16463, Note_on_c, 0, 73, 111
1, 16463, Note_off_c, 0, 74, 115
1, 16510, Note_off_c, 0, 73, 111
1, 16510, Note_on_c, 0, 69, 116
1, 16557, Note_off_c, 0, 69, 116
1, 16557, Note_on_c, 0, 66, 115
1, 16676, Note_off_c, 0, 66, 115
1, 16676, Note_on_c, 0, 64, 102
1, 16735, Note_off_c, 0, 64, 102
1, 16763, Note_on_c, 0, 65, 102
1, 16874, Note_off_c, 0, 65, 102
1, 16892, Note_on_c, 0, 71, 111
1, 16922, Note_off_c, 0, 71, 111
1, 16945, Note_on_c, 0, 72, 112
1, 17102, Note_off_c, 0, 72, 112
1, 17161, Note_on_c, 0, 70, 107
1, 17258, Note_off_c, 0, 70, 107
1, 17274, Note_on_c, 0, 68, 112
1, 17323, Note_off_c, 0, 68, 112
1, 17358, Note_on_c, 0, 67, 109
1, 17447, Note_off_c, 0, 67, 109
1, 17448, Note_on_c, 0, 65, 113
1, 17499, Note_off_c, 0, 65, 113
1, 17501, Note_on_c, 0, 63, 91
1, 17596, Note_off_c, 0, 63, 91
1, 17596, Note_on_c, 0, 60, 86
1, 17691, Note_off_c, 0, 60, 86
1, 17725, Note_on_c, 0, 63, 101
1, 17825, Note_off_c, 0, 63, 101
1, 17827, Note_on_c, 0, 60, 91
1, 17876, Note_off_c, 0, 60, 91
1, 17881, Note_on_c, 0, 62, 97
1, 17977, Note_off_c, 0, 62, 97
1, 18028, Note_on_c, 0, 70, 114
1, 18089, Note_off_c, 0, 70, 114
1, 18114, Note_on_c, 0, 67, 103
1, 18211, Note_off_c, 0, 67, 103
1, 18232, Note_on_c, 0, 63, 99
1, 18288, Note_off_c, 0, 63, 99
1, 18288, Note_on_c, 0, 65, 104
1, 18383, Note_off_c, 0, 65, 104
1, 18390, Note_on_c, 0, 63, 104
1, 18439, Note_off_c, 0, 63, 104
1, 18488, Note_on_c, 0, 62, 90
1, 18581, Note_off_c, 0, 62, 90
1, 18591, Note_on_c, 0, 63, 90
1, 18642, Note_off_c, 0, 63, 90
1, 18643, Note_on_c, 0, 66, 88
1, 18673, Note_off_c, 0, 66, 88
1, 18680, Note_on_c, 0, 67, 106
1, 18781, Note_off_c, 0, 67, 106
1, 18785, Note_on_c, 0, 70, 90
1, 18839, Note_off_c, 0, 70, 90
1, 18844, Note_on_c, 0, 72, 103
1, 18941, Note_off_c, 0, 72, 103
1, 18980, Note_on_c, 0, 71, 104
1, 19000, Note_off_c, 0, 71, 104
1, 19005, Note_on_c, 0, 73, 110
1, 19064, Note_off_c, 0, 73, 110
1, 19149, Note_on_c, 0, 71, 99
1, 19177, Note_off_c, 0, 71, 99
1, 19177, Note_on_c, 0, 72, 105
1, 19228, Note_off_c, 0, 72, 105
1, 19320, Note_on_c, 0, 69, 75
1, 19348, Note_off_c, 0, 69, 75
1, 19348, Note_on_c, 0, 70, 105
1, 19407, Note_off_c, 0, 70, 105
1, 19518, Note_on_c, 0, 68, 111
1, 19610, Note_off_c, 0, 68, 111
1, 19610, Note_on_c, 0, 67, 110
1, 19703, Note_off_c, 0, 67, 110
1, 19717, Note_on_c, 0, 63, 85
1, 20003, Note_off_c, 0, 63, 85
1, 20003, End_track
0, 0, End_of_file
