0, 0, Header, 1, 1, 192
1, 0, Start_track
1, 0, Title_t, "Melody"
1, 0, Tempo, 248962
1, 0, Key_signature, -3, "major"
1, 0, Time_signature, 4, 2, 24, 8
1, 2883, Note_on_c, 0, 61, 99
1, 2931, Note_off_c, 0, 61, 99
1, 2935, Note_on_c, 0, 62, 87
1, 2983, Note_off_c, 0, 62, 87
1, 3000, Note_on_c, 0, 66, 97
1, 3058, Note_off_c, 0, 66, 97
1, 3070, Note_on_c, 0, 69, 106
1, 3123, Note_off_c, 0, 69, 106
1, 3135, Note_on_c, 0, 71, 115
1, 3240, Note_off_c, 0, 71, 115
1, 3255, Note_on_c, 0, 69, 92
1, 3303, Note_off_c, 0, 69, 92
1, 3312, Note_on_c, 0, 70, 111
1, 3423, Note_off_c, 0, 70, 111
1, 3459, Note_on_c, 0, 77, 120
1, 3583, Note_off_c, 0, 77, 120
1, 3656, Note_on_c, 0, 74, 110
1, 3742, Note_off_c, 0, 74, 110
1, 3754, Note_on_c, 0, 75, 109
1, 3853, Note_off_c, 0, 75, 109
1, 3898, Note_on_c, 0, 70, 105
1, 3989, Note_off_c, 0, 70, 105
1, 4072, Note_on_c, 0, 68, 106
1, 4155, Note_off_c, 0, 68, 106
1, 4282, Note_on_c, 0, 75, 109
1, 4365, Note_off_c, 0, 75, 109
1, 4461, Note_on_c, 0, 72, 110
1, 4520, Note_off_c, 0, 72, 110
1, 4538, Note_on_c, 0, 73, 111
1, 4635, Note_off_c, 0, 73, 111
1, 4694, Note_on_c, 0, 64, 105
1, 4790, Note_off_c, 0, 64, 105
1, 5147, Note_on_c, 0, 66, 100
1, 5205, Note_off_c, 0, 66, 100
1, 5239, Note_on_c, 0, 64, 98
1, 5327, Note_off_c, 0, 64, 98
1, 5355, Note_on_c, 0, 63, 86
1, 5411, Note_off_c, 0, 63, 86
1, 5451, Note_on_c, 0, 66, 83
1, 5493, Note_off_c, 0, 66, 83
1, 5511, Note_on_c, 0, 68, 98
1, 5575, Note_off_c, 0, 68, 98
1, 5620, Note_on_c, 0, 70, 95
1, 5686, Note_off_c, 0, 70, 95
1, 5734, Note_on_c, 0, 73, 94
1, 5809, Note_off_c, 0, 73, 94
1, 5831, Note_on_c, 0, 72, 101
1, 5871, Note_off_c, 0, 72, 101
1, 5889, Note_on_c, 0, 71, 93
1, 5948, Note_off_c, 0, 71, 93
1, 6023, Note_on_c, 0, 73, 100
1, 6068, Note_off_c, 0, 73, 100
1, 6104, Note_on_c, 0, 74, 105
1, 6177, Note_off_c, 0, 74, 105
1, 6225, Note_on_c, 0, 76, 106
1, 6289, Note_off_c, 0, 76, 106
1, 6296, Note_on_c, 0, 78, 102
1, 6381, Note_off_c, 0, 78, 102
1, 6414, Note_on_c, 0, 74, 107
1, 6497, Note_off_c, 0, 74, 107
1, 6556, Note_on_c, 0, 77, 107
1, 6690, Note_off_c, 0, 77, 107
1, 6703, Note_on_c, 0, 75, 95
1, 6773, Note_off_c, 0, 75, 95
1, 6788, Note_on_c, 0, 70, 96
1, 6855, Note_off_c, 0, 70, 96
1, 6889, Note_on_c, 0, 66, 95
1, 6955, Note_off_c, 0, 66, 95
1, 6982, Note_on_c, 0, 63, 95
1, 7033, Note_off_c, 0, 63, 95
1, 7059, Note_on_c, 0, 60, 90
1, 7142, Note_off_c, 0, 60, 90
1, 7143, Note_on_c, 0, 58, 80
1, 7187, Note_off_c, 0, 58, 80
1, 7290, Note_on_c, 0, 68, 102
1, 7382, Note_off_c, 0, 68, 102
1, 7401, Note_on_c, 0, 69, 91
1, 7651, Note_off_c, 0, 69, 91
1, 7694, Note_on_c, 0, 68, 100
1, 7752, Note_off_c, 0, 68, 100
1, 7776, Note_on_c, 0, 66, 97
1, 7829, Note_off_c, 0, 66, 97
1, 7870, Note_on_c, 0, 62, 96
1, 7937, Note_off_c, 0, 62, 96
1, 7994, Note_on_c, 0, 58, 92
1, 8044, Note_off_c, 0, 58, 92
1, 8079, Note_on_c, 0, 62, 98
1, 8138, Note_off_c, 0, 62, 98
1, 8162, Note_on_c, 0, 63, 94
1, 8233, Note_off_c, 0, 63, 94
1, 8255, Note_on_c, 0, 67, 98
1, 8341, Note_off_c, 0, 67, 98
1, 8382, Note_on_c, 0, 63, 84
1, 8421, Note_off_c, 0, 63, 84
1, 8444, Note_on_c, 0, 65, 92
1, 8555, Note_off_c, 0, 65, 92
1, 8572, Note_on_c, 0, 70, 104
1, 8648, Note_off_c, 0, 70, 104
1, 9346, Note_on_c, 0, 69, 110
1, 9396, Note_off_c, 0, 69, 110
1, 9408, Note_on_c, 0, 70, 98
1, 9481, Note_off_c, 0, 70, 98
1, 9503, Note_on_c, 0, 68, 100
1, 9582, Note_off_c, 0, 68, 100
1, 9603, Note_on_c, 0, 65, 100
1, 9674, Note_off_c, 0, 65, 100
1, 9690, Note_on_c, 0, 66, 97
1, 9758, Note_off_c, 0, 66, 97
1, 9796, Note_on_c, 0, 63, 95
1, 9867, Note_off_c, 0, 63, 95
1, 9898, Note_on_c, 0, 65, 108
1, 9971, Note_off_c, 0, 65, 108
1, 9985, Note_on_c, 0, 63, 98
1, 10053, Note_off_c, 0, 63, 98
1, 10074, Note_on_c, 0, 65, 108
1, 10142, Note_off_c, 0, 65, 108
1, 10161, Note_on_c, 0, 66, 100
1, 10241, Note_off_c, 0, 66, 100
1, 10283, Note_on_c, 0, 68, 107
1, 10363, Note_off_c, 0, 68, 107
1, 10378, Note_on_c, 0, 69, 107
1, 10458, Note_off_c, 0, 69, 107
1, 10472, Note_on_c, 0, 67, 95
1, 10550, Note_off_c, 0, 67, 95
1, 10558, Note_on_c, 0, 68, 101
1, 10646, Note_off_c, 0, 68, 101
1, 10680, Note_on_c, 0, 64, 106
1, 10750, Note_off_c, 0, 64, 106
1, 10767, Note_on_c, 0, 63, 102
1, 10856, Note_off_c, 0, 63, 102
1, 10874, Note_on_c, 0, 61, 98
1, 10933, Note_off_c, 0, 61, 98
1, 10961, Note_on_c, 0, 66, 106
1, 11016, Note_off_c, 0, 66, 106
1, 11054, Note_on_c, 0, 64, 107
1, 11115, Note_off_c, 0, 64, 107
1, 11169, Note_on_c, 0, 61, 93
1, 11219, Note_off_c, 0, 61, 93
1, 11258, Note_on_c, 0, 62, 100
1, 11296, Note_off_c, 0, 62, 100
1, 11322, Note_on_c, 0, 63, 100
1, 11391, Note_off_c, 0, 63, 100
1, 11446, Note_on_c, 0, 66, 100
1, 11516, Note_off_c, 0, 66, 100
1, 11549, Note_on_c, 0, 68, 98
1, 11613, Note_off_c, 0, 68, 98
1, 11639, Note_on_c, 0, 70, 109
1, 11707, Note_off_c, 0, 70, 109
1, 11727, Note_on_c, 0, 73, 104
1, 11807, Note_off_c, 0, 73, 104
1, 11815, Note_on_c, 0, 72, 109
1, 11884, Note_off_c, 0, 72, 109
1, 11895, Note_on_c, 0, 71, 103
1, 11980, Note_off_c, 0, 71, 103
1, 11993, Note_on_c, 0, 73, 105
1, 12056, Note_off_c, 0, 73, 105
1, 12068, Note_on_c, 0, 74, 106
1, 12157, Note_off_c, 0, 74, 106
1, 12181, Note_on_c, 0, 76, 109
1, 12266, Note_off_c, 0, 76, 109
1, 12282, Note_on_c, 0, 78, 106
1, 12353, Note_off_c, 0, 78, 106
1, 12378, Note_on_c, 0, 74, 110
1, 12448, Note_off_c, 0, 74, 110
1, 12460, Note_on_c, 0, 73, 102
1, 12526, Note_off_c, 0, 73, 102
1, 12569, Note_on_c, 0, 71, 93
1, 12637, Note_off_c, 0, 71, 93
1, 12666, Note_on_c, 0, 68, 87
1, 12720, Note_off_c, 0, 68, 87
1, 12739, Note_on_c, 0, 69, 99
1, 12792, Note_off_c, 0, 69, 99
1, 12841, Note_on_c, 0, 72, 98
1, 12920, Note_off_c, 0, 72, 98
1, 12943, Note_on_c, 0, 69, 89
1, 13007, Note_off_c, 0, 69, 89
1, 13022, Note_on_c, 0, 70, 92
1, 13116, Note_off_c, 0, 70, 92
1, 13137, Note_on_c, 0, 68, 102
1, 13215, Note_off_c, 0, 68, 102
1, 13239, Note_on_c, 0, 65, 82
1, 13311, Note_off_c, 0, 65, 82
1, 13327, Note_on_c, 0, 66, 98
1, 13399, Note_off_c, 0, 66, 98
1, 13414, Note_on_c, 0, 67, 93
1, 13490, Note_off_c, 0, 67, 93
1, 13709, Note_on_c, 0, 63, 99
1, 13775, Note_off_c, 0, 63, 99
1, 13798, Note_on_c, 0, 65, 99
1, 13875, Note_off_c, 0, 65, 99
1, 13908, Note_on_c, 0, 62, 97
1, 13961, Note_off_c, 0, 62, 97
1, 14106, Note_on_c, 0, 65, 101
1, 14160, Note_off_c, 0, 65, 101
1, 14187, Note_on_c, 0, 67, 95
1, 14253, Note_off_c, 0, 67, 95
1, 14269, Note_on_c, 0, 68, 91
1, 14346, Note_off_c, 0, 68, 91
1, 14370, Note_on_c, 0, 70, 97
1, 14424, Note_off_c, 0, 70, 97
1, 14447, Note_on_c, 0, 72, 94
1, 14532, Note_off_c, 0, 72, 94
1, 14536, Note_on_c, 0, 74, 96
1, 14607, Note_off_c, 0, 74, 96
1, 14619, Note_on_c, 0, 75, 100
1, 14664, Note_off_c, 0, 75, 100
1, 14670, Note_on_c, 0, 76, 103
1, 14721, Note_off_c, 0, 76, 103
1, 14734, Note_on_c, 0, 78, 95
1, 14815, Note_off_c, 0, 78, 95
1, 14840, Note_on_c, 0, 70, 102
1, 14937, Note_off_c, 0, 70, 102
1, 15627, Note_on_c, 0, 83, 120
1, 15665, Note_off_c, 0, 83, 120
1, 15680, Note_on_c, 0, 83, 87
1, 15741, Note_off_c, 0, 83, 87
1, 15827, Note_on_c, 0, 84, 96
1, 15907, Note_off_c, 0, 84, 96
1, 15964, Note_on_c, 0, 80, 106
1, 16062, Note_off_c, 0, 80, 106
1, 16070, Note_on_c, 0, 79, 119
1, 16150, Note_off_c, 0, 79, 119
1, 16162, Note_on_c, 0, 77, 120
1, 16248, Note_off_c, 0, 77, 120
1, 16255, Note_on_c, 0, 75, 112
1, 16350, Note_off_c, 0, 75, 112
1, 16363, Note_on_c, 0, 74, 115
1, 16433, Note_off_c, 0, 74, 115
1, 16447, Note_on_c, 0, 73, 109
1, 16513, Note_off_c, 0, 73, 109
1, 16528, Note_on_c, 0, 77, 98
1, 16586, Note_off_c, 0, 77, 98
1, 16612, Note_on_c, 0, 72, 102
1, 16703, Note_off_c, 0, 72, 102
1, 16704, Note_on_c, 0, 71, 102
1, 16783, Note_off_c, 0, 71, 102
1, 16794, Note_on_c, 0, 70, 103
1, 16899, Note_off_c, 0, 70, 103
1, 16916, Note_on_c, 0, 71, 97
1, 16955, Note_off_c, 0, 71, 97
1, 16981, Note_on_c, 0, 67, 95
1, 17062, Note_off_c, 0, 67, 95
1, 17093, Note_on_c, 0, 65, 107
1, 17155, Note_off_c, 0, 65, 107
1, 17171, Note_on_c, 0, 63, 98
1, 17215, Note_off_c, 0, 63, 98
1, 17227, Note_on_c, 0, 65, 95
1, 17266, Note_off_c, 0, 65, 95
1, 17278, Note_on_c, 0, 63, 93
1, 17347, Note_off_c, 0, 63, 93
1, 17515, Note_on_c, 0, 63, 97
1, 17541, Note_off_c, 0, 63, 97
1, 17555, Note_on_c, 0, 68, 106
1, 17649, Note_off_c, 0, 68, 106
1, 17685, Note_on_c, 0, 63, 99
1, 17841, Note_off_c, 0, 63, 99
1, 18795, Note_on_c, 0, 82, 108
1, 18822, Note_off_c, 0, 82, 108
1, 18827, Note_on_c, 0, 81, 115
1, 18853, Note_off_c, 0, 81, 115
1, 18869, Note_on_c, 0, 80, 119
1, 18949, Note_off_c, 0, 80, 119
1, 18997, Note_on_c, 0, 75, 108
1, 19068, Note_off_c, 0, 75, 108
1, 19091, Note_on_c, 0, 71, 108
1, 19172, Note_off_c, 0, 71, 108
1, 19193, Note_on_c, 0, 68, 109
1, 19261, Note_off_c, 0, 68, 109
1, 19266, Note_on_c, 0, 67, 89
1, 19338, Note_off_c, 0, 67, 89
1, 19380, Note_on_c, 0, 63, 90
1, 19427, Note_off_c, 0, 63, 90
1, 19443, Note_on_c, 0, 66, 101
1, 19531, Note_off_c, 0, 66, 101
1, 19556, Note_on_c, 0, 63, 95
1, 19620, Note_off_c, 0, 63, 95
1, 19630, Note_on_c, 0, 65, 98
1, 19716, Note_off_c, 0, 65, 98
1, 19740, Note_on_c, 0, 68, 107
1, 19819, Note_off_c, 0, 68, 107
1, 19843, Note_on_c, 0, 71, 98
1, 19901, Note_off_c, 0, 71, 98
1, 19944, Note_on_c, 0, 74, 106
1, 20021, Note_off_c, 0, 74, 106
1, 20035, Note_on_c, 0, 71, 89
1, 20079, Note_off_c, 0, 71, 89
1, 20085, Note_on_c, 0, 72, 102
1, 20159, Note_off_c, 0, 72, 102
1, 20185, Note_on_c, 0, 73, 110
1, 20285, Note_off_c, 0, 73, 110
1, 20301, Note_on_c, 0, 71, 109
1, 20375, Note_off_c, 0, 71, 109
1, 20408, Note_on_c, 0, 68, 95
1, 20485, Note_off_c, 0, 68, 95
1, 20505, Note_on_c, 0, 69, 108
1, 20571, Note_off_c, 0, 69, 108
1, 20578, Note_on_c, 0, 70, 103
1, 20675, Note_off_c, 0, 70, 103
1, 21157, Note_on_c, 0, 66, 108
1, 21227, Note_off_c, 0, 66, 108
1, 21270, Note_on_c, 0, 64, 100
1, 21319, Note_off_c, 0, 64, 100
1, 21333, Note_on_c, 0, 65, 108
1, 21410, Note_off_c, 0, 65, 108
1, 21446, Note_on_c, 0, 63, 102
1, 21514, Note_off_c, 0, 63, 102
1, 21527, Note_on_c, 0, 62, 93
1, 21585, Note_off_c, 0, 62, 93
1, 21628, Note_on_c, 0, 65, 108
1, 21688, Note_off_c, 0, 65, 108
1, 21709, Note_on_c, 0, 63, 92
1, 21795, Note_off_c, 0, 63, 92
1, 21818, Note_on_c, 0, 61, 99
1, 21894, Note_off_c, 0, 61, 99
1, 21913, Note_on_c, 0, 63, 98
1, 21986, Note_off_c, 0, 63, 98
1, 22007, Note_on_c, 0, 65, 108
1, 22079, Note_off_c, 0, 65, 108
1, 22094, Note_on_c, 0, 66, 97
1, 22183, Note_off_c, 0, 66, 97
1, 22194, Note_on_c, 0, 68, 105
1, 22255, Note_off_c, 0, 68, 105
1, 22266, Note_on_c, 0, 69, 108
1, 22345, Note_off_c, 0, 69, 108
1, 22372, Note_on_c, 0, 67, 98
1, 22462, Note_off_c, 0, 67, 98
1, 22470, Note_on_c, 0, 68, 104
1, 22543, Note_off_c, 0, 68, 104
1, 22576, Note_on_c, 0, 64, 109
1, 22635, Note_off_c, 0, 64, 109
1, 22649, Note_on_c, 0, 63, 91
1, 22738, Note_off_c, 0, 63, 91
1, 22742, Note_on_c, 0, 61, 91
1, 22825, Note_off_c, 0, 61, 91
1, 22854, Note_on_c, 0, 66, 103
1, 22922, Note_off_c, 0, 66, 103
1, 22946, Note_on_c, 0, 64, 105
1, 23015, Note_off_c, 0, 64, 105
1, 23040, Note_on_c, 0, 61, 94
1, 23123, Note_off_c, 0, 61, 94
1, 23174, Note_on_c, 0, 63, 89
1, 23222, Note_off_c, 0, 63, 89
1, 23230, Note_on_c, 0, 64, 91
1, 23282, Note_off_c, 0, 64, 91
1, 23324, Note_on_c, 0, 66, 86
1, 23372, Note_off_c, 0, 66, 86
1, 23398, Note_on_c, 0, 68, 99
1, 23507, Note_off_c, 0, 68, 99
1, 23519, Note_on_c, 0, 70, 88
1, 23602, Note_off_c, 0, 70, 88
1, 23615, Note_on_c, 0, 73, 108
1, 23704, Note_off_c, 0, 73, 108
1, 23720, Note_on_c, 0, 72, 111
1, 23765, Note_off_c, 0, 72, 111
1, 23778, Note_on_c, 0, 71, 96
1, 23874, Note_off_c, 0, 71, 96
1, 23879, Note_on_c, 0, 73, 104
1, 23945, Note_off_c, 0, 73, 104
1, 23972, Note_on_c, 0, 74, 108
1, 24058, Note_off_c, 0, 74, 108
1, 24063, Note_on_c, 0, 76, 111
1, 24148, Note_off_c, 0, 76, 111
1, 24159, Note_on_c, 0, 78, 108
1, 24232, Note_off_c, 0, 78, 108
1, 24271, Note_on_c, 0, 74, 112
1, 24320, Note_off_c, 0, 74, 112
1, 24342, Note_on_c, 0, 73, 103
1, 24420, Note_off_c, 0, 73, 103
1, 24439, Note_on_c, 0, 71, 99
1, 24499, Note_off_c, 0, 71, 99
1, 24539, Note_on_c, 0, 68, 96
1, 24594, Note_off_c, 0, 68, 96
1, 24616, Note_on_c, 0, 69, 96
1, 24698, Note_off_c, 0, 69, 96
1, 24721, Note_on_c, 0, 72, 101
1, 24800, Note_off_c, 0, 72, 101
1, 24822, Note_on_c, 0, 69, 96
1, 24876, Note_off_c, 0, 69, 96
1, 24900, Note_on_c, 0, 70, 97
1, 24957, Note_off_c, 0, 70, 97
1, 25002, Note_on_c, 0, 72, 103
1, 25078, Note_off_c, 0, 72, 103
1, 25091, Note_on_c, 0, 73, 102
1, 25146, Note_off_c, 0, 73, 102
1, 25169, Note_on_c, 0, 74, 98
1, 25259, Note_off_c, 0, 74, 98
1, 25279, Note_on_c, 0, 77, 102
1, 25365, Note_off_c, 0, 77, 102
1, 25379, Note_on_c, 0, 74, 105
1, 25452, Note_off_c, 0, 74, 105
1, 25456, Note_on_c, 0, 75, 101
1, 25545, Note_off_c, 0, 75, 101
1, 25562, Note_on_c, 0, 72, 100
1, 25638, Note_off_c, 0, 72, 100
1, 25698, Note_on_c, 0, 67, 93
1, 25757, Note_off_c, 0, 67, 93
1, 25765, Note_on_c, 0, 65, 92
1, 25827, Note_off_c, 0, 65, 92
1, 25827, Note_on_c, 0, 70, 97
1, 25936, Note_off_c, 0, 70, 97
1, 26646, Note_on_c, 0, 81, 125
1, 26732, Note_off_c, 0, 81, 125
1, 26743, Note_on_c, 0, 82, 120
1, 26996, Note_off_c, 0, 82, 120
1, 27005, Note_on_c, 0, 81, 108
1, 27082, Note_off_c, 0, 81, 108
1, 27089, Note_on_c, 0, 82, 115
1, 27397, Note_off_c, 0, 82, 115
1, 27408, Note_on_c, 0, 81, 107
1, 27489, Note_off_c, 0, 81, 107
1, 27498, Note_on_c, 0, 82, 118
1, 27746, Note_off_c, 0, 82, 118
1, 27771, Note_on_c, 0, 81, 110
1, 27848, Note_off_c, 0, 81, 110
1, 27854, Note_on_c, 0, 82, 114
1, 28003, Note_off_c, 0, 82, 114
1, 28019, Note_on_c, 0, 80, 81
1, 28045, Note_off_c, 0, 80, 81
1, 28053, Note_on_c, 0, 79, 96
1, 28078, Note_off_c, 0, 79, 96
1, 28083, Note_on_c, 0, 78, 111
1, 28144, Note_off_c, 0, 78, 111
1, 28164, Note_on_c, 0, 74, 116
1, 28327, Note_off_c, 0, 74, 116
1, 28337, Note_on_c, 0, 75, 107
1, 28433, Note_off_c, 0, 75, 107
1, 28540, Note_on_c, 0, 79, 109
1, 28599, Note_off_c, 0, 79, 109
1, 28602, Note_on_c, 0, 80, 119
1, 28759, Note_off_c, 0, 80, 119
1, 28776, Note_on_c, 0, 78, 105
1, 28816, Note_off_c, 0, 78, 105
1, 28830, Note_on_c, 0, 75, 102
1, 28860, Note_off_c, 0, 75, 102
1, 28892, Note_on_c, 0, 73, 105
1, 28933, Note_off_c, 0, 73, 105
1, 28954, Note_on_c, 0, 72, 106
1, 29116, Note_off_c, 0, 72, 106
1, 29127, Note_on_c, 0, 73, 102
1, 29204, Note_off_c, 0, 73, 102
1, 29342, Note_on_c, 0, 78, 112
1, 29570, Note_off_c, 0, 78, 112
1, 29583, Note_on_c, 0, 73, 93
1, 29614, Note_off_c, 0, 73, 93
1, 29624, Note_on_c, 0, 71, 88
1, 29659, Note_off_c, 0, 71, 88
1, 29680, Note_on_c, 0, 70, 97
1, 29871, Note_off_c, 0, 70, 97
1, 29891, Note_on_c, 0, 71, 100
1, 29945, Note_off_c, 0, 71, 100
1, 30112, Note_on_c, 0, 78, 105
1, 30244, Note_off_c, 0, 78, 105
1, 30302, Note_on_c, 0, 75, 105
1, 30327, Note_off_c, 0, 75, 105
1, 30359, Note_on_c, 0, 73, 100
1, 30376, Note_off_c, 0, 73, 100
1, 30397, Note_on_c, 0, 71, 92
1, 30447, Note_off_c, 0, 71, 92
1, 30471, Note_on_c, 0, 70, 93
1, 30638, Note_off_c, 0, 70, 93
1, 30649, Note_on_c, 0, 71, 89
1, 30721, Note_off_c, 0, 71, 89
1, 31734, Note_on_c, 0, 70, 94
1, 31801, Note_off_c, 0, 70, 94
1, 31834, Note_on_c, 0, 72, 95
1, 31902, Note_off_c, 0, 72, 95
1, 31912, Note_on_c, 0, 74, 114
1, 31988, Note_off_c, 0, 74, 114
1, 32005, Note_on_c, 0, 75, 112
1, 32093, Note_off_c, 0, 75, 112
1, 32108, Note_on_c, 0, 77, 109
1, 32189, Note_off_c, 0, 77, 109
1, 32213, Note_on_c, 0, 78, 115
1, 32285, Note_off_c, 0, 78, 115
1, 32305, Note_on_c, 0, 80, 114
1, 32397, Note_off_c, 0, 80, 114
1, 32412, Note_on_c, 0, 83, 124
1, 32479, Note_off_c, 0, 83, 124
1, 32492, Note_on_c, 0, 84, 113
1, 32571, Note_off_c, 0, 84, 113
1, 32585, Note_on_c, 0, 82, 113
1, 32670, Note_off_c, 0, 82, 113
1, 32692, Note_on_c, 0, 82, 82
1, 32754, Note_off_c, 0, 82, 82
1, 32797, Note_on_c, 0, 79, 107
1, 32954, Note_off_c, 0, 79, 107
1, 33643, Note_on_c, 0, 83, 115
1, 33702, Note_off_c, 0, 83, 115
1, 33718, Note_on_c, 0, 84, 125
1, 33826, Note_off_c, 0, 84, 125
1, 33836, Note_on_c, 0, 85, 87
1, 33910, Note_off_c, 0, 85, 87
1, 33931, Note_on_c, 0, 82, 124
1, 34106, Note_off_c, 0, 82, 124
1, 34136, Note_on_c, 0, 80, 119
1, 34205, Note_off_c, 0, 80, 119
1, 34234, Note_on_c, 0, 78, 124
1, 34296, Note_off_c, 0, 78, 124
1, 34320, Note_on_c, 0, 77, 120
1, 34388, Note_off_c, 0, 77, 120
1, 34414, Note_on_c, 0, 75, 118
1, 34504, Note_off_c, 0, 75, 118
1, 34524, Note_on_c, 0, 74, 115
1, 34621, Note_off_c, 0, 74, 115
1, 34723, Note_on_c, 0, 80, 124
1, 34905, Note_off_c, 0, 80, 124
1, 35069, Note_on_c, 0, 78, 118
1, 35159, Note_off_c, 0, 78, 118
1, 35315, Note_on_c, 0, 76, 124
1, 35438, Note_off_c, 0, 76, 124
1, 35685, Note_on_c, 0, 75, 118
1, 35758, Note_off_c, 0, 75, 118
1, 35784, Note_on_c, 0, 73, 114
1, 35856, Note_off_c, 0, 73, 114
1, 35888, Note_on_c, 0, 72, 116
1, 36128, Note_off_c, 0, 72, 116
1, 36139, Note_on_c, 0, 70, 105
1, 36222, Note_off_c, 0, 70, 105
1, 36239, Note_on_c, 0, 71, 108
1, 36298, Note_off_c, 0, 71, 108
1, 36337, Note_on_c, 0, 73, 104
1, 36394, Note_off_c, 0, 73, 104
1, 36439, Note_on_c, 0, 74, 107
1, 36493, Note_off_c, 0, 74, 107
1, 36515, Note_on_c, 0, 76, 112
1, 36595, Note_off_c, 0, 76, 112
1, 36606, Note_on_c, 0, 76, 104
1, 36672, Note_off_c, 0, 76, 104
1, 36698, Note_on_c, 0, 74, 108
1, 36769, Note_off_c, 0, 74, 108
1, 36791, Note_on_c, 0, 73, 105
1, 36868, Note_off_c, 0, 73, 105
1, 36901, Note_on_c, 0, 71, 102
1, 36953, Note_off_c, 0, 71, 102
1, 36978, Note_on_c, 0, 70, 92
1, 37059, Note_off_c, 0, 70, 92
1, 37099, Note_on_c, 0, 58, 92
1, 37160, Note_off_c, 0, 58, 92
1, 37195, Note_on_c, 0, 63, 97
1, 37257, Note_off_c, 0, 63, 97
1, 37274, Note_on_c, 0, 65, 103
1, 37341, Note_off_c, 0, 65, 103
1, 37377, Note_on_c, 0, 66, 95
1, 37447, Note_off_c, 0, 66, 95
1, 37461, Note_on_c, 0, 68, 102
1, 37541, Note_off_c, 0, 68, 102
1, 37563, Note_on_c, 0, 69, 103
1, 37626, Note_off_c, 0, 69, 103
1, 37670, Note_on_c, 0, 67, 95
1, 37721, Note_off_c, 0, 67, 95
1, 37737, Note_on_c, 0, 68, 90
1, 37831, Note_off_c, 0, 68, 90
1, 37846, Note_on_c, 0, 65, 100
1, 37910, Note_off_c, 0, 65, 100
1, 37934, Note_on_c, 0, 66, 98
1, 38010, Note_off_c, 0, 66, 98
1, 38042, Note_on_c, 0, 62, 102
1, 38093, Note_off_c, 0, 62, 102
1, 38126, Note_on_c, 0, 63, 87
1, 38193, Note_off_c, 0, 63, 87
1, 38213, Note_on_c, 0, 65, 97
1, 38276, Note_off_c, 0, 65, 97
1, 38311, Note_on_c, 0, 67, 101
1, 38370, Note_off_c, 0, 67, 101
1, 38420, Note_on_c, 0, 68, 100
1, 38483, Note_off_c, 0, 68, 100
1, 38504, Note_on_c, 0, 70, 98
1, 38595, Note_off_c, 0, 70, 98
1, 38602, Note_on_c, 0, 72, 104
1, 38671, Note_off_c, 0, 72, 104
1, 38692, Note_on_c, 0, 74, 105
1, 38756, Note_off_c, 0, 74, 105
1, 38790, Note_on_c, 0, 70, 91
1, 38849, Note_off_c, 0, 70, 91
1, 38868, Note_on_c, 0, 72, 96
1, 39098, Note_off_c, 0, 72, 96
1, 39957, Note_on_c, 0, 76, 123
1, 40010, Note_off_c, 0, 76, 123
1, 40030, Note_on_c, 0, 77, 124
1, 40200, Note_off_c, 0, 77, 124
1, 40220, Note_on_c, 0, 73, 103
1, 40264, Note_off_c, 0, 73, 103
1, 40311, Note_on_c, 0, 72, 111
1, 40360, Note_off_c, 0, 72, 111
1, 40407, Note_on_c, 0, 70, 105
1, 40502, Note_off_c, 0, 70, 105
1, 40790, Note_on_c, 0, 64, 95
1, 40851, Note_off_c, 0, 64, 95
1, 40876, Note_on_c, 0, 66, 98
1, 40946, Note_off_c, 0, 66, 98
1, 40949, Note_on_c, 0, 67, 103
1, 41036, Note_off_c, 0, 67, 103
1, 41063, Note_on_c, 0, 69, 110
1, 41118, Note_off_c, 0, 69, 110
1, 41153, Note_on_c, 0, 71, 107
1, 41249, Note_off_c, 0, 71, 107
1, 41270, Note_on_c, 0, 67, 112
1, 41358, Note_off_c, 0, 67, 112
1, 41454, Note_on_c, 0, 64, 112
1, 41522, Note_off_c, 0, 64, 112
1, 41545, Note_on_c, 0, 63, 99
1, 41725, Note_off_c, 0, 63, 99
1, 41741, Note_on_c, 0, 65, 110
1, 41820, Note_off_c, 0, 65, 110
1, 41840, Note_on_c, 0, 67, 111
1, 41910, Note_off_c, 0, 67, 111
1, 41929, Note_on_c, 0, 68, 109
1, 42014, Note_off_c, 0, 68, 109
1, 42031, Note_on_c, 0, 70, 110
1, 42085, Note_off_c, 0, 70, 110
1, 42136, Note_on_c, 0, 72, 115
1, 42198, Note_off_c, 0, 72, 115
1, 42220, Note_on_c, 0, 73, 113
1, 42278, Note_off_c, 0, 73, 113
1, 42320, Note_on_c, 0, 75, 113
1, 42492, Note_off_c, 0, 75, 113
1, 42511, Note_on_c, 0, 72, 112
1, 42601, Note_off_c, 0, 72, 112
1, 43194, Note_on_c, 0, 74, 113
1, 43262, Note_off_c, 0, 74, 113
1, 43270, Note_on_c, 0, 75, 112
1, 43425, Note_off_c, 0, 75, 112
1, 43461, Note_on_c, 0, 71, 109
1, 43522, Note_off_c, 0, 71, 109
1, 43558, Note_on_c, 0, 68, 106
1, 43631, Note_off_c, 0, 68, 106
1, 43647, Note_on_c, 0, 67, 109
1, 43715, Note_off_c, 0, 67, 109
1, 43758, Note_on_c, 0, 63, 94
1, 43807, Note_off_c, 0, 63, 94
1, 43826, Note_on_c, 0, 66, 103
1, 43922, Note_off_c, 0, 66, 103
1, 44036, Note_on_c, 0, 61, 88
1, 44091, Note_off_c, 0, 61, 88
1, 44113, Note_on_c, 0, 63, 105
1, 44171, Note_off_c, 0, 63, 105
1, 44193, Note_on_c, 0, 64, 108
1, 44237, Note_off_c, 0, 64, 108
1, 44253, Note_on_c, 0, 65, 103
1, 44293, Note_off_c, 0, 65, 103
1, 44304, Note_on_c, 0, 65, 109
1, 44331, Note_off_c, 0, 65, 109
1, 44341, Note_on_c, 0, 67, 107
1, 44380, Note_off_c, 0, 67, 107
1, 44396, Note_on_c, 0, 67, 106
1, 44472, Note_off_c, 0, 67, 106
1, 44682, Note_on_c, 0, 65, 106
1, 44752, Note_off_c, 0, 65, 106
1, 44767, Note_on_c, 0, 66, 97
1, 44852, Note_off_c, 0, 66, 97
1, 44866, Note_on_c, 0, 68, 106
1, 44937, Note_off_c, 0, 68, 106
1, 44951, Note_on_c, 0, 70, 105
1, 45033, Note_off_c, 0, 70, 105
1, 45054, Note_on_c, 0, 71, 115
1, 45122, Note_off_c, 0, 71, 115
1, 45146, Note_on_c, 0, 73, 99
1, 45218, Note_off_c, 0, 73, 99
1, 45243, Note_on_c, 0, 70, 94
1, 45309, Note_off_c, 0, 70, 94
1, 45316, Note_on_c, 0, 71, 103
1, 45416, Note_off_c, 0, 71, 103
1, 45428, Note_on_c, 0, 69, 91
1, 45500, Note_off_c, 0, 69, 91
1, 45508, Note_on_c, 0, 70, 105
1, 45593, Note_off_c, 0, 70, 105
1, 45606, Note_on_c, 0, 68, 108
1, 45679, Note_off_c, 0, 68, 108
1, 45721, Note_on_c, 0, 66, 100
1, 45766, Note_off_c, 0, 66, 100
1, 45783, Note_on_c, 0, 65, 115
1, 45855, Note_off_c, 0, 65, 115
1, 45876, Note_on_c, 0, 64, 113
1, 45948, Note_off_c, 0, 64, 113
1, 45975, Note_on_c, 0, 62, 102
1, 46020, Note_off_c, 0, 62, 102
1, 46056, Note_on_c, 0, 63, 93
1, 46128, Note_off_c, 0, 63, 93
1, 46153, Note_on_c, 0, 65, 10
1, 46213, Note_off_c, 0, 65, 10
1, 46234, Note_on_c, 0, 66, 87
1, 46326, Note_off_c, 0, 66, 87
1, 46342, Note_on_c, 0, 68, 100
1, 46421, Note_off_c, 0, 68, 100
1, 46427, Note_on_c, 0, 69, 112
1, 46513, Note_off_c, 0, 69, 112
1, 46544, Note_on_c, 0, 67, 99
1, 46612, Note_off_c, 0, 67, 99
1, 46616, Note_on_c, 0, 68, 112
1, 46686, Note_off_c, 0, 68, 112
1, 46731, Note_on_c, 0, 65, 111
1, 46794, Note_off_c, 0, 65, 111
1, 46810, Note_on_c, 0, 66, 112
1, 46873, Note_off_c, 0, 66, 112
1, 46917, Note_on_c, 0, 64, 99
1, 46980, Note_off_c, 0, 64, 99
1, 46987, Note_on_c, 0, 65, 114
1, 47076, Note_off_c, 0, 65, 114
1, 47109, Note_on_c, 0, 63, 116
1, 47158, Note_off_c, 0, 63, 116
1, 47166, Note_on_c, 0, 62, 104
1, 47254, Note_off_c, 0, 62, 104
1, 47277, Note_on_c, 0, 63, 99
1, 47371, Note_off_c, 0, 63, 99
1, 47378, Note_on_c, 0, 71, 113
1, 47444, Note_off_c, 0, 71, 113
1, 47479, Note_on_c, 0, 69, 92
1, 47550, Note_off_c, 0, 69, 92
1, 47560, Note_on_c, 0, 70, 109
1, 47641, Note_off_c, 0, 70, 109
1, 47652, Note_on_c, 0, 69, 110
1, 47731, Note_off_c, 0, 69, 110
1, 47750, Note_on_c, 0, 68, 104
1, 47816, Note_off_c, 0, 68, 104
1, 47846, Note_on_c, 0, 67, 113
1, 47913, Note_off_c, 0, 67, 113
1, 47929, Note_on_c, 0, 66, 103
1, 48007, Note_off_c, 0, 66, 103
1, 48031, Note_on_c, 0, 64, 111
1, 48116, Note_off_c, 0, 64, 111
1, 48132, Note_on_c, 0, 61, 93
1, 48204, Note_off_c, 0, 61, 93
1, 48240, Note_on_c, 0, 63, 101
1, 48279, Note_off_c, 0, 63, 101
1, 48434, Note_on_c, 0, 70, 92
1, 48496, Note_off_c, 0, 70, 92
1, 48512, Note_on_c, 0, 73, 116
1, 48576, Note_off_c, 0, 73, 116
1, 48605, Note_on_c, 0, 71, 113
1, 48684, Note_off_c, 0, 71, 113
1, 48690, Note_on_c, 0, 70, 102
1, 48768, Note_off_c, 0, 70, 102
1, 48801, Note_on_c, 0, 68, 108
1, 48871, Note_off_c, 0, 68, 108
1, 48886, Note_on_c, 0, 66, 100
1, 48949, Note_off_c, 0, 66, 100
1, 48982, Note_on_c, 0, 65, 116
1, 49033, Note_off_c, 0, 65, 116
1, 49053, Note_on_c, 0, 63, 104
1, 49085, Note_off_c, 0, 63, 104
1, 49093, Note_on_c, 0, 64, 107
1, 49133, Note_off_c, 0, 64, 107
1, 49153, Note_on_c, 0, 63, 98
1, 49242, Note_off_c, 0, 63, 98
1, 49251, Note_on_c, 0, 58, 100
1, 49362, Note_off_c, 0, 58, 100
1, 49415, Note_on_c, 0, 66, 100
1, 49469, Note_off_c, 0, 66, 100
1, 49488, Note_on_c, 0, 65, 96
1, 49518, Note_off_c, 0, 65, 96
1, 49533, Note_on_c, 0, 66, 103
1, 49588, Note_off_c, 0, 66, 103
1, 49628, Note_on_c, 0, 63, 106
1, 49696, Note_off_c, 0, 63, 106
1, 49747, Note_on_c, 0, 66, 95
1, 49792, Note_off_c, 0, 66, 95
1, 49804, Note_on_c, 0, 69, 108
1, 49854, Note_off_c, 0, 69, 108
1, 49868, Note_on_c, 0, 70, 104
1, 49909, Note_off_c, 0, 70, 104
1, 49920, Note_on_c, 0, 69, 103
1, 49961, Note_off_c, 0, 69, 103
1, 50020, Note_on_c, 0, 66, 98
1, 50071, Note_off_c, 0, 66, 98
1, 50113, Note_on_c, 0, 69, 104
1, 50172, Note_off_c, 0, 69, 104
1, 50196, Note_on_c, 0, 68, 103
1, 50322, Note_off_c, 0, 68, 103
1, 50699, Note_on_c, 0, 67, 98
1, 50780, Note_off_c, 0, 67, 98
1, 50866, Note_on_c, 0, 74, 102
1, 50927, Note_off_c, 0, 74, 102
1, 50942, Note_on_c, 0, 77, 127
1, 51044, Note_off_c, 0, 77, 127
1, 51060, Note_on_c, 0, 74, 102
1, 51110, Note_off_c, 0, 74, 102
1, 51122, Note_on_c, 0, 76, 116
1, 51241, Note_off_c, 0, 76, 116
1, 51247, Note_on_c, 0, 74, 94
1, 51302, Note_off_c, 0, 74, 94
1, 51322, Note_on_c, 0, 75, 110
1, 51408, Note_off_c, 0, 75, 110
1, 51421, Note_on_c, 0, 72, 113
1, 51488, Note_off_c, 0, 72, 113
1, 51503, Note_on_c, 0, 68, 107
1, 51573, Note_off_c, 0, 68, 107
1, 51602, Note_on_c, 0, 66, 107
1, 51697, Note_off_c, 0, 66, 107
1, 51714, Note_on_c, 0, 67, 99
1, 51786, Note_off_c, 0, 67, 99
1, 51808, Note_on_c, 0, 70, 107
1, 51884, Note_off_c, 0, 70, 107
1, 51905, Note_on_c, 0, 65, 111
1, 51949, Note_off_c, 0, 65, 111
1, 52004, Note_on_c, 0, 63, 102
1, 52100, Note_off_c, 0, 63, 102
1, 52100, End_track
0, 0, End_of_file
