0, 0, Header, 1, 1, 192
1, 0, Start_track
1, 0, Title_t, "Melody"
1, 0, Tempo, 368098
1, 0, Key_signature, -5, "major"
1, 0, Time_signature, 4, 2, 24, 8
1, 2326, Note_on_c, 0, 70, 113
1, 2443, Note_off_c, 0, 70, 113
1, 2470, Note_on_c, 0, 70, 111
1, 2540, Note_off_c, 0, 70, 111
1, 3030, Note_on_c, 0, 76, 107
1, 3173, Note_off_c, 0, 76, 107
1, 3211, Note_on_c, 0, 73, 117
1, 3300, Note_off_c, 0, 73, 117
1, 3388, Note_on_c, 0, 70, 108
1, 3451, Note_off_c, 0, 70, 108
1, 3478, Note_on_c, 0, 69, 104
1, 3512, Note_off_c, 0, 69, 104
1, 3518, Note_on_c, 0, 70, 104
1, 3573, Note_off_c, 0, 70, 104
1, 3578, Note_on_c, 0, 69, 101
1, 3629, Note_off_c, 0, 69, 101
1, 3641, Note_on_c, 0, 67, 100
1, 3752, Note_off_c, 0, 67, 100
1, 3770, Note_on_c, 0, 68, 98
1, 4012, Note_off_c, 0, 68, 98
1, 4337, Note_on_c, 0, 65, 118
1, 4395, Note_off_c, 0, 65, 118
1, 4415, Note_on_c, 0, 63, 102
1, 4493, Note_off_c, 0, 63, 102
1, 4537, Note_on_c, 0, 61, 100
1, 4593, Note_off_c, 0, 61, 100
1, 4629, Note_on_c, 0, 62, 88
1, 4714, Note_off_c, 0, 62, 88
1, 4750, Note_on_c, 0, 71, 109
1, 4848, Note_off_c, 0, 71, 109
1, 4933, Note_on_c, 0, 69, 106
1, 4995, Note_off_c, 0, 69, 106
1, 5046, Note_on_c, 0, 70, 91
1, 5105, Note_off_c, 0, 70, 91
1, 5116, Note_on_c, 0, 58, 87
1, 5166, Note_off_c, 0, 58, 87
1, 5209, Note_on_c, 0, 63, 104
1, 5278, Note_off_c, 0, 63, 104
1, 5293, Note_on_c, 0, 65, 116
1, 5354, Note_off_c, 0, 65, 116
1, 5392, Note_on_c, 0, 66, 108
1, 5451, Note_off_c, 0, 66, 108
1, 5482, Note_on_c, 0, 68, 109
1, 5534, Note_off_c, 0, 68, 109
1, 5565, Note_on_c, 0, 69, 106
1, 5593, Note_off_c, 0, 69, 106
1, 5596, Note_on_c, 0, 70, 104
1, 5618, Note_off_c, 0, 70, 104
1, 5623, Note_on_c, 0, 69, 97
1, 5662, Note_off_c, 0, 69, 97
1, 5670, Note_on_c, 0, 67, 103
1, 5746, Note_off_c, 0, 67, 103
1, 5753, Note_on_c, 0, 68, 103
1, 5833, Note_off_c, 0, 68, 103
1, 5845, Note_on_c, 0, 66, 108
1, 5911, Note_off_c, 0, 66, 108
1, 5960, Note_on_c, 0, 63, 93
1, 6016, Note_off_c, 0, 63, 93
1, 6022, Note_on_c, 0, 64, 109
1, 6094, Note_off_c, 0, 64, 109
1, 6109, Note_on_c, 0, 65, 113
1, 6182, Note_off_c, 0, 65, 113
1, 6225, Note_on_c, 0, 60, 82
1, 6290, Note_off_c, 0, 60, 82
1, 6305, Note_on_c, 0, 63, 111
1, 6402, Note_off_c, 0, 63, 111
1, 6420, Note_on_c, 0, 60, 92
1, 6477, Note_off_c, 0, 60, 92
1, 6489, Note_on_c, 0, 61, 95
1, 6567, Note_off_c, 0, 61, 95
1, 6586, Note_on_c, 0, 63, 107
1, 6688, Note_off_c, 0, 63, 107
1, 6694, Note_on_c, 0, 65, 107
1, 6768, Note_off_c, 0, 65, 107
1, 6782, Note_on_c, 0, 68, 105
1, 6852, Note_off_c, 0, 68, 105
1, 6892, Note_on_c, 0, 61, 90
1, 6957, Note_off_c, 0, 61, 90
1, 6981, Note_on_c, 0, 65, 102
1, 7046, Note_off_c, 0, 65, 102
1, 7062, Note_on_c, 0, 68, 106
1, 7154, Note_off_c, 0, 68, 106
1, 7163, Note_on_c, 0, 71, 120
1, 7242, Note_off_c, 0, 71, 120
1, 7264, Note_on_c, 0, 70, 103
1, 7328, Note_off_c, 0, 70, 103
1, 7353, Note_on_c, 0, 58, 90
1, 7407, Note_off_c, 0, 58, 90
1, 7447, Note_on_c, 0, 63, 104
1, 7525, Note_off_c, 0, 63, 104
1, 7543, Note_on_c, 0, 66, 114
1, 7627, Note_off_c, 0, 66, 114
1, 7662, Note_on_c, 0, 62, 97
1, 7758, Note_off_c, 0, 62, 97
1, 7783, Note_on_c, 0, 57, 108
1, 7861, Note_off_c, 0, 57, 108
1, 7946, Note_on_c, 0, 57, 109
1, 8006, Note_off_c, 0, 57, 109
1, 8021, Note_on_c, 0, 56, 97
1, 8293, Note_off_c, 0, 56, 97
1, 8307, Note_on_c, 0, 62, 95
1, 8375, Note_off_c, 0, 62, 95
1, 8383, Note_on_c, 0, 63, 95
1, 9047, Note_off_c, 0, 63, 95
1, 9055, Note_on_c, 0, 61, 90
1, 9108, Note_off_c, 0, 61, 90
1, 9143, Note_on_c, 0, 63, 96
1, 9232, Note_off_c, 0, 63, 96
1, 9241, Note_on_c, 0, 64, 101
1, 9303, Note_off_c, 0, 64, 101
1, 9308, Note_on_c, 0, 63, 94
1, 9341, Note_off_c, 0, 63, 94
1, 9347, Note_on_c, 0, 64, 96
1, 9367, Note_off_c, 0, 64, 96
1, 9379, Note_on_c, 0, 63, 92
1, 9415, Note_off_c, 0, 63, 92
1, 9432, Note_on_c, 0, 61, 93
1, 9483, Note_off_c, 0, 61, 93
1, 9522, Note_on_c, 0, 56, 94
1, 9632, Note_off_c, 0, 56, 94
1, 9653, Note_on_c, 0, 56, 92
1, 9831, Note_off_c, 0, 56, 92
1, 9846, Note_on_c, 0, 62, 94
1, 9880, Note_off_c, 0, 62, 94
1, 9890, Note_on_c, 0, 63, 91
1, 10264, Note_off_c, 0, 63, 91
1, 10583, Note_on_c, 0, 61, 98
1, 10647, Note_off_c, 0, 61, 98
1, 10700, Note_on_c, 0, 63, 111
1, 10760, Note_off_c, 0, 63, 111
1, 10777, Note_on_c, 0, 65, 115
1, 10823, Note_off_c, 0, 65, 115
1, 10839, Note_on_c, 0, 63, 100
1, 10862, Note_off_c, 0, 63, 100
1, 10870, Note_on_c, 0, 65, 97
1, 10891, Note_off_c, 0, 65, 97
1, 10909, Note_on_c, 0, 63, 96
1, 10943, Note_off_c, 0, 63, 96
1, 10964, Note_on_c, 0, 61, 94
1, 11044, Note_off_c, 0, 61, 94
1, 11066, Note_on_c, 0, 57, 90
1, 11156, Note_off_c, 0, 57, 90
1, 11162, Note_on_c, 0, 58, 94
1, 11243, Note_off_c, 0, 58, 94
1, 11261, Note_on_c, 0, 61, 95
1, 11317, Note_off_c, 0, 61, 95
1, 11338, Note_on_c, 0, 65, 119
1, 11402, Note_off_c, 0, 65, 119
1, 11450, Note_on_c, 0, 68, 118
1, 11522, Note_off_c, 0, 68, 118
1, 11534, Note_on_c, 0, 66, 118
1, 11602, Note_off_c, 0, 66, 118
1, 11634, Note_on_c, 0, 61, 90
1, 11699, Note_off_c, 0, 61, 90
1, 11720, Note_on_c, 0, 58, 104
1, 11787, Note_off_c, 0, 58, 104
1, 11811, Note_on_c, 0, 57, 95
1, 11917, Note_off_c, 0, 57, 95
1, 11928, Note_on_c, 0, 64, 97
1, 11958, Note_off_c, 0, 64, 97
1, 11962, Note_on_c, 0, 65, 115
1, 12074, Note_off_c, 0, 65, 115
1, 12105, Note_on_c, 0, 60, 89
1, 12160, Note_off_c, 0, 60, 89
1, 12181, Note_on_c, 0, 63, 113
1, 12267, Note_off_c, 0, 63, 113
1, 12302, Note_on_c, 0, 61, 95
1, 12348, Note_off_c, 0, 61, 95
1, 12378, Note_on_c, 0, 60, 89
1, 12458, Note_off_c, 0, 60, 89
1, 12482, Note_on_c, 0, 61, 89
1, 12543, Note_off_c, 0, 61, 89
1, 12558, Note_on_c, 0, 65, 119
1, 12667, Note_off_c, 0, 65, 119
1, 12689, Note_on_c, 0, 68, 97
1, 12721, Note_off_c, 0, 68, 97
1, 12727, Note_on_c, 0, 70, 124
1, 12847, Note_off_c, 0, 70, 124
1, 12868, Note_on_c, 0, 73, 121
1, 12975, Note_off_c, 0, 73, 121
1, 14024, Note_on_c, 0, 79, 127
1, 14075, Note_off_c, 0, 79, 127
1, 14081, Note_on_c, 0, 80, 122
1, 14331, Note_off_c, 0, 80, 122
1, 14361, Note_on_c, 0, 76, 115
1, 14397, Note_off_c, 0, 76, 115
1, 14412, Note_on_c, 0, 73, 121
1, 14467, Note_off_c, 0, 73, 121
1, 14475, Note_on_c, 0, 72, 119
1, 14654, Note_off_c, 0, 72, 119
1, 14656, Note_on_c, 0, 73, 119
1, 14760, Note_off_c, 0, 73, 119
1, 14976, Note_on_c, 0, 68, 92
1, 15021, Note_off_c, 0, 68, 92
1, 15060, Note_on_c, 0, 71, 118
1, 15145, Note_off_c, 0, 71, 118
1, 15163, Note_on_c, 0, 68, 98
1, 15237, Note_off_c, 0, 68, 98
1, 15249, Note_on_c, 0, 70, 116
1, 15319, Note_off_c, 0, 70, 116
1, 15331, Note_on_c, 0, 68, 115
1, 15407, Note_off_c, 0, 68, 115
1, 15422, Note_on_c, 0, 66, 105
1, 15494, Note_off_c, 0, 66, 105
1, 15509, Note_on_c, 0, 64, 109
1, 15575, Note_off_c, 0, 64, 109
1, 15595, Note_on_c, 0, 62, 92
1, 15679, Note_off_c, 0, 62, 92
1, 15686, Note_on_c, 0, 63, 106
1, 15760, Note_off_c, 0, 63, 106
1, 15781, Note_on_c, 0, 66, 111
1, 15850, Note_off_c, 0, 66, 111
1, 15881, Note_on_c, 0, 69, 108
1, 15964, Note_off_c, 0, 69, 108
1, 15990, Note_on_c, 0, 73, 116
1, 16091, Note_off_c, 0, 73, 116
1, 16091, Note_on_c, 0, 70, 61
1, 16145, Note_off_c, 0, 70, 61
1, 16160, Note_on_c, 0, 71, 112
1, 16247, Note_off_c, 0, 71, 112
1, 16262, Note_on_c, 0, 70, 103
1, 16354, Note_off_c, 0, 70, 103
1, 16364, Note_on_c, 0, 69, 97
1, 16442, Note_off_c, 0, 69, 97
1, 16449, Note_on_c, 0, 73, 116
1, 16528, Note_off_c, 0, 73, 116
1, 16538, Note_on_c, 0, 68, 94
1, 16600, Note_off_c, 0, 68, 94
1, 16625, Note_on_c, 0, 66, 97
1, 16702, Note_off_c, 0, 66, 97
1, 16725, Note_on_c, 0, 71, 115
1, 16803, Note_off_c, 0, 71, 115
1, 16814, Note_on_c, 0, 69, 111
1, 16886, Note_off_c, 0, 69, 111
1, 16905, Note_on_c, 0, 66, 104
1, 16981, Note_off_c, 0, 66, 104
1, 17002, Note_on_c, 0, 67, 105
1, 17078, Note_off_c, 0, 67, 105
1, 17103, Note_on_c, 0, 68, 102
1, 17180, Note_off_c, 0, 68, 102
1, 17213, Note_on_c, 0, 59, 91
1, 17252, Note_off_c, 0, 59, 91
1, 17284, Note_on_c, 0, 62, 97
1, 17361, Note_off_c, 0, 62, 97
1, 17388, Note_on_c, 0, 66, 111
1, 17456, Note_off_c, 0, 66, 111
1, 17478, Note_on_c, 0, 69, 116
1, 17560, Note_off_c, 0, 69, 116
1, 17577, Note_on_c, 0, 67, 96
1, 17641, Note_off_c, 0, 67, 96
1, 17659, Note_on_c, 0, 68, 101
1, 17749, Note_off_c, 0, 68, 101
1, 17760, Note_on_c, 0, 71, 117
1, 17817, Note_off_c, 0, 71, 117
1, 17854, Note_on_c, 0, 74, 117
1, 17939, Note_off_c, 0, 74, 117
1, 18005, Note_on_c, 0, 77, 113
1, 18086, Note_off_c, 0, 77, 113
1, 18145, Note_on_c, 0, 77, 116
1, 18219, Note_off_c, 0, 77, 116
1, 18231, Note_on_c, 0, 76, 105
1, 18261, Note_off_c, 0, 76, 105
1, 18263, Note_on_c, 0, 77, 111
1, 18285, Note_off_c, 0, 77, 111
1, 18303, Note_on_c, 0, 76, 114
1, 18332, Note_off_c, 0, 76, 114
1, 18347, Note_on_c, 0, 74, 112
1, 18407, Note_off_c, 0, 74, 112
1, 18431, Note_on_c, 0, 74, 108
1, 18468, Note_off_c, 0, 74, 108
1, 18474, Note_on_c, 0, 73, 113
1, 18510, Note_off_c, 0, 73, 113
1, 18518, Note_on_c, 0, 71, 113
1, 18596, Note_off_c, 0, 71, 113
1, 18615, Note_on_c, 0, 68, 98
1, 18656, Note_off_c, 0, 68, 98
1, 18663, Note_on_c, 0, 69, 88
1, 18703, Note_off_c, 0, 69, 88
1, 18722, Note_on_c, 0, 70, 100
1, 18771, Note_off_c, 0, 70, 100
1, 18786, Note_on_c, 0, 71, 119
1, 18883, Note_off_c, 0, 71, 119
1, 18907, Note_on_c, 0, 68, 93
1, 18960, Note_off_c, 0, 68, 93
1, 18973, Note_on_c, 0, 69, 112
1, 19051, Note_off_c, 0, 69, 112
1, 19074, Note_on_c, 0, 64, 112
1, 19139, Note_off_c, 0, 64, 112
1, 19154, Note_on_c, 0, 61, 84
1, 19234, Note_off_c, 0, 61, 84
1, 19258, Note_on_c, 0, 57, 90
1, 19313, Note_off_c, 0, 57, 90
1, 19343, Note_on_c, 0, 68, 104
1, 19373, Note_off_c, 0, 68, 104
1, 19375, Note_on_c, 0, 70, 113
1, 19403, Note_off_c, 0, 70, 113
1, 19410, Note_on_c, 0, 68, 98
1, 19434, Note_off_c, 0, 68, 98
1, 19449, Note_on_c, 0, 66, 104
1, 19523, Note_off_c, 0, 66, 104
1, 19533, Note_on_c, 0, 65, 103
1, 19611, Note_off_c, 0, 65, 103
1, 19633, Note_on_c, 0, 63, 108
1, 19717, Note_off_c, 0, 63, 108
1, 19731, Note_on_c, 0, 62, 93
1, 19814, Note_off_c, 0, 62, 93
1, 19829, Note_on_c, 0, 56, 101
1, 19885, Note_off_c, 0, 56, 101
1, 19906, Note_on_c, 0, 62, 100
1, 19993, Note_off_c, 0, 62, 100
1, 20011, Note_on_c, 0, 56, 87
1, 20072, Note_off_c, 0, 56, 87
1, 20097, Note_on_c, 0, 63, 87
1, 20651, Note_off_c, 0, 63, 87
1, 21134, Note_on_c, 0, 63, 108
1, 21194, Note_off_c, 0, 63, 108
1, 21198, Note_on_c, 0, 64, 100
1, 21406, Note_off_c, 0, 64, 100
1, 21427, Note_on_c, 0, 63, 95
1, 21935, Note_off_c, 0, 63, 95
1, 21949, Note_on_c, 0, 64, 93
1, 22127, Note_off_c, 0, 64, 93
1, 22132, Note_on_c, 0, 56, 85
1, 22180, Note_off_c, 0, 56, 85
1, 22199, Note_on_c, 0, 63, 86
1, 22585, Note_off_c, 0, 63, 86
1, 23483, Note_on_c, 0, 70, 121
1, 23551, Note_off_c, 0, 70, 121
1, 23560, Note_on_c, 0, 70, 116
1, 23657, Note_off_c, 0, 70, 116
1, 23673, Note_on_c, 0, 70, 98
1, 23773, Note_off_c, 0, 70, 98
1, 23782, Note_on_c, 0, 70, 91
1, 23842, Note_off_c, 0, 70, 91
1, 23848, Note_on_c, 0, 70, 113
1, 23915, Note_off_c, 0, 70, 113
1, 23931, Note_on_c, 0, 70, 81
1, 24076, Note_off_c, 0, 70, 81
1, 24097, Note_on_c, 0, 70, 103
1, 24191, Note_off_c, 0, 70, 103
1, 24299, Note_on_c, 0, 76, 109
1, 24366, Note_off_c, 0, 76, 109
1, 24375, Note_on_c, 0, 77, 123
1, 24644, Note_off_c, 0, 77, 123
1, 24667, Note_on_c, 0, 73, 115
1, 24785, Note_off_c, 0, 73, 115
1, 24793, Note_on_c, 0, 70, 102
1, 25047, Note_off_c, 0, 70, 102
1, 25065, Note_on_c, 0, 70, 110
1, 25163, Note_off_c, 0, 70, 110
1, 26269, Note_on_c, 0, 80, 124
1, 26345, Note_off_c, 0, 80, 124
1, 26359, Note_on_c, 0, 82, 125
1, 26442, Note_off_c, 0, 82, 125
1, 26462, Note_on_c, 0, 84, 125
1, 26570, Note_off_c, 0, 84, 125
1, 26580, Note_on_c, 0, 85, 126
1, 26698, Note_off_c, 0, 85, 126
1, 27037, Note_on_c, 0, 80, 123
1, 27111, Note_off_c, 0, 80, 123
1, 27135, Note_on_c, 0, 82, 124
1, 27206, Note_off_c, 0, 82, 124
1, 27216, Note_on_c, 0, 84, 125
1, 27301, Note_off_c, 0, 84, 125
1, 27313, Note_on_c, 0, 85, 120
1, 27401, Note_off_c, 0, 85, 120
1, 27403, Note_on_c, 0, 84, 121
1, 27486, Note_off_c, 0, 84, 121
1, 27495, Note_on_c, 0, 82, 119
1, 27589, Note_off_c, 0, 82, 119
1, 27594, Note_on_c, 0, 81, 121
1, 27676, Note_off_c, 0, 81, 121
1, 27677, Note_on_c, 0, 82, 91
1, 27714, Note_off_c, 0, 82, 91
1, 27720, Note_on_c, 0, 80, 113
1, 27773, Note_off_c, 0, 80, 113
1, 27780, Note_on_c, 0, 79, 115
1, 27854, Note_off_c, 0, 79, 115
1, 27873, Note_on_c, 0, 78, 117
1, 27968, Note_off_c, 0, 78, 117
1, 27977, Note_on_c, 0, 82, 116
1, 28034, Note_off_c, 0, 82, 116
1, 28075, Note_on_c, 0, 77, 115
1, 28188, Note_off_c, 0, 77, 115
1, 28197, Note_on_c, 0, 75, 116
1, 28309, Note_off_c, 0, 75, 116
1, 28376, Note_on_c, 0, 80, 122
1, 28467, Note_off_c, 0, 80, 122
1, 28488, Note_on_c, 0, 84, 120
1, 28553, Note_off_c, 0, 84, 120
1, 28564, Note_on_c, 0, 77, 122
1, 28645, Note_off_c, 0, 77, 122
1, 28653, Note_on_c, 0, 75, 115
1, 28740, Note_off_c, 0, 75, 115
1, 28748, Note_on_c, 0, 73, 121
1, 28825, Note_off_c, 0, 73, 121
1, 28845, Note_on_c, 0, 74, 116
1, 28939, Note_off_c, 0, 74, 116
1, 28948, Note_on_c, 0, 65, 91
1, 29007, Note_off_c, 0, 65, 91
1, 29025, Note_on_c, 0, 68, 93
1, 29122, Note_off_c, 0, 68, 93
1, 29142, Note_on_c, 0, 71, 113
1, 29217, Note_off_c, 0, 71, 113
1, 29222, Note_on_c, 0, 70, 96
1, 29294, Note_off_c, 0, 70, 96
1, 29330, Note_on_c, 0, 59, 78
1, 29374, Note_off_c, 0, 59, 78
1, 29391, Note_on_c, 0, 63, 94
1, 29485, Note_off_c, 0, 63, 94
1, 29509, Note_on_c, 0, 66, 103
1, 29583, Note_off_c, 0, 66, 103
1, 29620, Note_on_c, 0, 61, 85
1, 29652, Note_off_c, 0, 61, 85
1, 29662, Note_on_c, 0, 63, 87
1, 29708, Note_off_c, 0, 63, 87
1, 29711, Note_on_c, 0, 64, 105
1, 29752, Note_off_c, 0, 64, 105
1, 29766, Note_on_c, 0, 65, 110
1, 29877, Note_off_c, 0, 65, 110
1, 29905, Note_on_c, 0, 62, 84
1, 29960, Note_off_c, 0, 62, 84
1, 29965, Note_on_c, 0, 63, 94
1, 30061, Note_off_c, 0, 63, 94
1, 30073, Note_on_c, 0, 66, 105
1, 30135, Note_off_c, 0, 66, 105
1, 30166, Note_on_c, 0, 70, 96
1, 30237, Note_off_c, 0, 70, 96
1, 30255, Note_on_c, 0, 73, 115
1, 30322, Note_off_c, 0, 73, 115
1, 30328, Note_on_c, 0, 72, 96
1, 30352, Note_off_c, 0, 72, 96
1, 30360, Note_on_c, 0, 74, 104
1, 30385, Note_off_c, 0, 74, 104
1, 30391, Note_on_c, 0, 72, 97
1, 30424, Note_off_c, 0, 72, 97
1, 30435, Note_on_c, 0, 70, 106
1, 30504, Note_off_c, 0, 70, 106
1, 30507, Note_on_c, 0, 68, 92
1, 30522, Note_off_c, 0, 68, 92
1, 30530, Note_on_c, 0, 70, 87
1, 30554, Note_off_c, 0, 70, 87
1, 30566, Note_on_c, 0, 68, 90
1, 30612, Note_off_c, 0, 68, 90
1, 30632, Note_on_c, 0, 66, 103
1, 30697, Note_off_c, 0, 66, 103
1, 30707, Note_on_c, 0, 65, 89
1, 30751, Note_off_c, 0, 65, 89
1, 30766, Note_on_c, 0, 68, 80
1, 30800, Note_off_c, 0, 68, 80
1, 30813, Note_on_c, 0, 72, 103
1, 30881, Note_off_c, 0, 72, 103
1, 30892, Note_on_c, 0, 75, 115
1, 31001, Note_off_c, 0, 75, 115
1, 31013, Note_on_c, 0, 72, 9
1, 31075, Note_off_c, 0, 72, 9
1, 31079, Note_on_c, 0, 74, 111
1, 31178, Note_off_c, 0, 74, 111
1, 31194, Note_on_c, 0, 71, 113
1, 31260, Note_off_c, 0, 71, 113
1, 31270, Note_on_c, 0, 67, 101
1, 31301, Note_off_c, 0, 67, 101
1, 31303, Note_on_c, 0, 68, 91
1, 31330, Note_off_c, 0, 68, 91
1, 31336, Note_on_c, 0, 67, 92
1, 31354, Note_off_c, 0, 67, 92
1, 31363, Note_on_c, 0, 64, 100
1, 31443, Note_off_c, 0, 64, 100
1, 31463, Note_on_c, 0, 63, 99
1, 31675, Note_off_c, 0, 63, 99
1, 31696, Note_on_c, 0, 66, 87
1, 31725, Note_off_c, 0, 66, 87
1, 31732, Note_on_c, 0, 68, 78
1, 31745, Note_off_c, 0, 68, 78
1, 31754, Note_on_c, 0, 70, 85
1, 31766, Note_off_c, 0, 70, 85
1, 31785, Note_on_c, 0, 73, 105
1, 31877, Note_off_c, 0, 73, 105
1, 31887, Note_on_c, 0, 72, 83
1, 31943, Note_off_c, 0, 72, 83
1, 31956, Note_on_c, 0, 70, 101
1, 32015, Note_off_c, 0, 70, 101
1, 32025, Note_on_c, 0, 68, 89
1, 32044, Note_off_c, 0, 68, 89
1, 32049, Note_on_c, 0, 70, 88
1, 32069, Note_off_c, 0, 70, 88
1, 32082, Note_on_c, 0, 68, 88
1, 32123, Note_off_c, 0, 68, 88
1, 32143, Note_on_c, 0, 66, 105
1, 32208, Note_off_c, 0, 66, 105
1, 32213, Note_on_c, 0, 65, 101
1, 32309, Note_off_c, 0, 65, 101
1, 32364, Note_on_c, 0, 60, 81
1, 32390, Note_off_c, 0, 60, 81
1, 32405, Note_on_c, 0, 63, 88
1, 32432, Note_off_c, 0, 63, 88
1, 32444, Note_on_c, 0, 65, 96
1, 32465, Note_off_c, 0, 65, 96
1, 32475, Note_on_c, 0, 63, 95
1, 32510, Note_off_c, 0, 63, 95
1, 32519, Note_on_c, 0, 60, 87
1, 32555, Note_off_c, 0, 60, 87
1, 32560, Note_on_c, 0, 61, 78
1, 32603, Note_off_c, 0, 61, 78
1, 32657, Note_on_c, 0, 68, 92
1, 32691, Note_off_c, 0, 68, 92
1, 32703, Note_on_c, 0, 72, 109
1, 32772, Note_off_c, 0, 72, 109
1, 32787, Note_on_c, 0, 70, 104
1, 32903, Note_off_c, 0, 70, 104
1, 32919, Note_on_c, 0, 65, 90
1, 32968, Note_off_c, 0, 65, 90
1, 32981, Note_on_c, 0, 68, 102
1, 33096, Note_off_c, 0, 68, 102
1, 33113, Note_on_c, 0, 66, 103
1, 33222, Note_off_c, 0, 66, 103
1, 33654, Note_on_c, 0, 70, 97
1, 33682, Note_off_c, 0, 70, 97
1, 33692, Note_on_c, 0, 69, 102
1, 33721, Note_off_c, 0, 69, 102
1, 33731, Note_on_c, 0, 68, 92
1, 33771, Note_off_c, 0, 68, 92
1, 33789, Note_on_c, 0, 65, 79
1, 33821, Note_off_c, 0, 65, 79
1, 33826, Note_on_c, 0, 66, 97
1, 33858, Note_off_c, 0, 66, 97
1, 33865, Note_on_c, 0, 64, 98
1, 33897, Note_off_c, 0, 64, 98
1, 33898, Note_on_c, 0, 65, 104
1, 33930, Note_off_c, 0, 65, 104
1, 33936, Note_on_c, 0, 64, 100
1, 33980, Note_off_c, 0, 64, 100
1, 33983, Note_on_c, 0, 63, 98
1, 34019, Note_off_c, 0, 63, 98
1, 34026, Note_on_c, 0, 62, 95
1, 34066, Note_off_c, 0, 62, 95
1, 34079, Note_on_c, 0, 61, 83
1, 34116, Note_off_c, 0, 61, 83
1, 34152, Note_on_c, 0, 56, 84
1, 34298, Note_off_c, 0, 56, 84
1, 34310, Note_on_c, 0, 56, 96
1, 34517, Note_off_c, 0, 56, 96
1, 34880, Note_on_c, 0, 71, 110
1, 34916, Note_off_c, 0, 71, 110
1, 34922, Note_on_c, 0, 72, 108
1, 34959, Note_off_c, 0, 72, 108
1, 34988, Note_on_c, 0, 71, 108
1, 35053, Note_off_c, 0, 71, 108
1, 35072, Note_on_c, 0, 70, 84
1, 35143, Note_off_c, 0, 70, 84
1, 35179, Note_on_c, 0, 69, 111
1, 35229, Note_off_c, 0, 69, 111
1, 35237, Note_on_c, 0, 68, 93
1, 35266, Note_off_c, 0, 68, 93
1, 35274, Note_on_c, 0, 70, 86
1, 35293, Note_off_c, 0, 70, 86
1, 35304, Note_on_c, 0, 68, 99
1, 35339, Note_off_c, 0, 68, 99
1, 35350, Note_on_c, 0, 67, 104
1, 35406, Note_off_c, 0, 67, 104
1, 35411, Note_on_c, 0, 66, 92
1, 35454, Note_off_c, 0, 66, 92
1, 35483, Note_on_c, 0, 70, 80
1, 35510, Note_off_c, 0, 70, 80
1, 35518, Note_on_c, 0, 73, 112
1, 35604, Note_off_c, 0, 73, 112
1, 35640, Note_on_c, 0, 76, 120
1, 35706, Note_off_c, 0, 76, 120
1, 35710, Note_on_c, 0, 77, 114
1, 35790, Note_off_c, 0, 77, 114
1, 35814, Note_on_c, 0, 75, 116
1, 35897, Note_off_c, 0, 75, 116
1, 35911, Note_on_c, 0, 73, 119
1, 35985, Note_off_c, 0, 73, 119
1, 36003, Note_on_c, 0, 72, 94
1, 36072, Note_off_c, 0, 72, 94
1, 36096, Note_on_c, 0, 70, 110
1, 36157, Note_off_c, 0, 70, 110
1, 36183, Note_on_c, 0, 68, 97
1, 36262, Note_off_c, 0, 68, 97
1, 36284, Note_on_c, 0, 67, 108
1, 36350, Note_off_c, 0, 67, 108
1, 36378, Note_on_c, 0, 66, 101
1, 36455, Note_off_c, 0, 66, 101
1, 36505, Note_on_c, 0, 76, 108
1, 36526, Note_off_c, 0, 76, 108
1, 36530, Note_on_c, 0, 77, 110
1, 36598, Note_off_c, 0, 77, 110
1, 36658, Note_on_c, 0, 72, 117
1, 36747, Note_off_c, 0, 72, 117
1, 36778, Note_on_c, 0, 75, 119
1, 36850, Note_off_c, 0, 75, 119
1, 36862, Note_on_c, 0, 73, 114
1, 36938, Note_off_c, 0, 73, 114
1, 36957, Note_on_c, 0, 72, 96
1, 37030, Note_off_c, 0, 72, 96
1, 37040, Note_on_c, 0, 73, 109
1, 37124, Note_off_c, 0, 73, 109
1, 37143, Note_on_c, 0, 68, 86
1, 37211, Note_off_c, 0, 68, 86
1, 37229, Note_on_c, 0, 65, 110
1, 37309, Note_off_c, 0, 65, 110
1, 37326, Note_on_c, 0, 63, 102
1, 37411, Note_off_c, 0, 63, 102
1, 37418, Note_on_c, 0, 61, 93
1, 37487, Note_off_c, 0, 61, 93
1, 37493, Note_on_c, 0, 60, 78
1, 37585, Note_off_c, 0, 60, 78
1, 37612, Note_on_c, 0, 61, 79
1, 37664, Note_off_c, 0, 61, 79
1, 37690, Note_on_c, 0, 65, 104
1, 37769, Note_off_c, 0, 65, 104
1, 37797, Note_on_c, 0, 68, 97
1, 37873, Note_off_c, 0, 68, 97
1, 37891, Note_on_c, 0, 72, 104
1, 37962, Note_off_c, 0, 72, 104
1, 37979, Note_on_c, 0, 75, 112
1, 38064, Note_off_c, 0, 75, 112
1, 38079, Note_on_c, 0, 73, 107
1, 38154, Note_off_c, 0, 73, 107
1, 38179, Note_on_c, 0, 71, 99
1, 38271, Note_off_c, 0, 71, 99
1, 38292, Note_on_c, 0, 68, 86
1, 38354, Note_off_c, 0, 68, 86
1, 38374, Note_on_c, 0, 69, 96
1, 38455, Note_off_c, 0, 69, 96
1, 38473, Note_on_c, 0, 70, 99
1, 38598, Note_off_c, 0, 70, 99
1, 38641, Note_on_c, 0, 65, 96
1, 38724, Note_off_c, 0, 65, 96
1, 38751, Note_on_c, 0, 68, 112
1, 38832, Note_off_c, 0, 68, 112
1, 38845, Note_on_c, 0, 63, 94
1, 38939, Note_off_c, 0, 63, 94
1, 38964, Note_on_c, 0, 60, 80
1, 39026, Note_off_c, 0, 60, 80
1, 39032, Note_on_c, 0, 61, 78
1, 39112, Note_off_c, 0, 61, 78
1, 39135, Note_on_c, 0, 63, 91
1, 39216, Note_off_c, 0, 63, 91
1, 39234, Note_on_c, 0, 64, 94
1, 39313, Note_off_c, 0, 64, 94
1, 39322, Note_on_c, 0, 66, 106
1, 39400, Note_off_c, 0, 66, 106
1, 39426, Note_on_c, 0, 68, 90
1, 39496, Note_off_c, 0, 68, 90
1, 39510, Note_on_c, 0, 71, 108
1, 39582, Note_off_c, 0, 71, 108
1, 39611, Note_on_c, 0, 70, 82
1, 39681, Note_off_c, 0, 70, 82
1, 39701, Note_on_c, 0, 63, 89
1, 39763, Note_off_c, 0, 63, 89
1, 39784, Note_on_c, 0, 69, 107
1, 39880, Note_off_c, 0, 69, 107
1, 39895, Note_on_c, 0, 66, 91
1, 39946, Note_off_c, 0, 66, 91
1, 39970, Note_on_c, 0, 68, 110
1, 40055, Note_off_c, 0, 68, 110
1, 40078, Note_on_c, 0, 63, 83
1, 40134, Note_off_c, 0, 63, 83
1, 40139, Note_on_c, 0, 64, 109
1, 40245, Note_off_c, 0, 64, 109
1, 40275, Note_on_c, 0, 61, 77
1, 40317, Note_off_c, 0, 61, 77
1, 40356, Note_on_c, 0, 63, 104
1, 40473, Note_off_c, 0, 63, 104
1, 40659, Note_on_c, 0, 73, 119
1, 40732, Note_off_c, 0, 73, 119
1, 40747, Note_on_c, 0, 71, 108
1, 40820, Note_off_c, 0, 71, 108
1, 40833, Note_on_c, 0, 69, 110
1, 40922, Note_off_c, 0, 69, 110
1, 40933, Note_on_c, 0, 68, 109
1, 41012, Note_off_c, 0, 68, 109
1, 41026, Note_on_c, 0, 66, 112
1, 41100, Note_off_c, 0, 66, 112
1, 41111, Note_on_c, 0, 64, 103
1, 41202, Note_off_c, 0, 64, 103
1, 41214, Note_on_c, 0, 62, 92
1, 41291, Note_off_c, 0, 62, 92
1, 41303, Note_on_c, 0, 63, 89
1, 41379, Note_off_c, 0, 63, 89
1, 41396, Note_on_c, 0, 64, 107
1, 41467, Note_off_c, 0, 64, 107
1, 41484, Note_on_c, 0, 66, 107
1, 41556, Note_off_c, 0, 66, 107
1, 41581, Note_on_c, 0, 69, 111
1, 41644, Note_off_c, 0, 69, 111
1, 41657, Note_on_c, 0, 73, 101
1, 41683, Note_off_c, 0, 73, 101
1, 41686, Note_on_c, 0, 74, 109
1, 41714, Note_off_c, 0, 74, 109
1, 41716, Note_on_c, 0, 73, 111
1, 41764, Note_off_c, 0, 73, 111
1, 41770, Note_on_c, 0, 71, 109
1, 41841, Note_off_c, 0, 71, 109
1, 41848, Note_on_c, 0, 69, 109
1, 41957, Note_off_c, 0, 69, 109
1, 41963, Note_on_c, 0, 67, 92
1, 42033, Note_off_c, 0, 67, 92
1, 42037, Note_on_c, 0, 68, 101
1, 42146, Note_off_c, 0, 68, 101
1, 42449, Note_on_c, 0, 79, 123
1, 42519, Note_off_c, 0, 79, 123
1, 42536, Note_on_c, 0, 77, 114
1, 42607, Note_off_c, 0, 77, 114
1, 42619, Note_on_c, 0, 76, 102
1, 42638, Note_off_c, 0, 76, 102
1, 42641, Note_on_c, 0, 78, 115
1, 42664, Note_off_c, 0, 78, 115
1, 42668, Note_on_c, 0, 76, 109
1, 42728, Note_off_c, 0, 76, 109
1, 42738, Note_on_c, 0, 74, 114
1, 42806, Note_off_c, 0, 74, 114
1, 42819, Note_on_c, 0, 73, 114
1, 42906, Note_off_c, 0, 73, 114
1, 42924, Note_on_c, 0, 64, 90
1, 42983, Note_off_c, 0, 64, 90
1, 43002, Note_on_c, 0, 66, 103
1, 43067, Note_off_c, 0, 66, 103
1, 43098, Note_on_c, 0, 68, 106
1, 43177, Note_off_c, 0, 68, 106
1, 43209, Note_on_c, 0, 71, 111
1, 43280, Note_off_c, 0, 71, 111
1, 43295, Note_on_c, 0, 69, 108
1, 43386, Note_off_c, 0, 69, 108
1, 43399, Note_on_c, 0, 64, 106
1, 43452, Note_off_c, 0, 64, 106
1, 43492, Note_on_c, 0, 61, 92
1, 43552, Note_off_c, 0, 61, 92
1, 43575, Note_on_c, 0, 57, 95
1, 43660, Note_off_c, 0, 57, 95
1, 43670, Note_on_c, 0, 55, 98
1, 43730, Note_off_c, 0, 55, 98
1, 43751, Note_on_c, 0, 56, 103
1, 43829, Note_off_c, 0, 56, 103
1, 43856, Note_on_c, 0, 60, 94
1, 43929, Note_off_c, 0, 60, 94
1, 43963, Note_on_c, 0, 62, 96
1, 44041, Note_off_c, 0, 62, 96
1, 44053, Note_on_c, 0, 64, 100
1, 44132, Note_off_c, 0, 64, 100
1, 44152, Note_on_c, 0, 69, 115
1, 44229, Note_off_c, 0, 69, 115
1, 44240, Note_on_c, 0, 67, 110
1, 44317, Note_off_c, 0, 67, 110
1, 44336, Note_on_c, 0, 67, 110
1, 44381, Note_off_c, 0, 67, 110
1, 44389, Note_on_c, 0, 68, 96
1, 44625, Note_off_c, 0, 68, 96
1, 44642, Note_on_c, 0, 70, 94
1, 44726, Note_off_c, 0, 70, 94
1, 44788, Note_on_c, 0, 63, 100
1, 44856, Note_off_c, 0, 63, 100
1, 44860, Note_on_c, 0, 65, 90
1, 45271, Note_off_c, 0, 65, 90
1, 45350, Note_on_c, 0, 68, 104
1, 45401, Note_off_c, 0, 68, 104
1, 45424, Note_on_c, 0, 70, 103
1, 45471, Note_off_c, 0, 70, 103
1, 45551, Note_on_c, 0, 71, 103
1, 45625, Note_off_c, 0, 71, 103
1, 45646, Note_on_c, 0, 68, 103
1, 45721, Note_off_c, 0, 68, 103
1, 45758, Note_on_c, 0, 68, 104
1, 45813, Note_off_c, 0, 68, 104
1, 45846, Note_on_c, 0, 66, 84
1, 45915, Note_off_c, 0, 66, 84
1, 45921, Note_on_c, 0, 67, 104
1, 45984, Note_off_c, 0, 67, 104
1, 45998, Note_on_c, 0, 68, 94
1, 46131, Note_off_c, 0, 68, 94
1, 46150, Note_on_c, 0, 65, 107
1, 46219, Note_off_c, 0, 65, 107
1, 47169, Note_on_c, 0, 73, 118
1, 47257, Note_off_c, 0, 73, 118
1, 47365, Note_on_c, 0, 79, 124
1, 47480, Note_off_c, 0, 79, 124
1, 47504, Note_on_c, 0, 78, 122
1, 47984, Note_off_c, 0, 78, 122
1, 48062, Note_on_c, 0, 75, 110
1, 48090, Note_off_c, 0, 75, 110
1, 48098, Note_on_c, 0, 76, 102
1, 48160, Note_off_c, 0, 76, 102
1, 48255, Note_on_c, 0, 73, 119
1, 48350, Note_off_c, 0, 73, 119
1, 48434, Note_on_c, 0, 71, 110
1, 48513, Note_off_c, 0, 71, 110
1, 48535, Note_on_c, 0, 68, 89
1, 48607, Note_off_c, 0, 68, 89
1, 48618, Note_on_c, 0, 67, 104
1, 48678, Note_off_c, 0, 67, 104
1, 48695, Note_on_c, 0, 66, 96
1, 48785, Note_off_c, 0, 66, 96
1, 48803, Note_on_c, 0, 64, 104
1, 48876, Note_off_c, 0, 64, 104
1, 49099, Note_on_c, 0, 61, 93
1, 49180, Note_off_c, 0, 61, 93
1, 49194, Note_on_c, 0, 64, 93
1, 49268, Note_off_c, 0, 64, 93
1, 49283, Note_on_c, 0, 65, 94
1, 49352, Note_off_c, 0, 65, 94
1, 49367, Note_on_c, 0, 68, 108
1, 49442, Note_off_c, 0, 68, 108
1, 49470, Note_on_c, 0, 70, 105
1, 49547, Note_off_c, 0, 70, 105
1, 49562, Note_on_c, 0, 68, 90
1, 49621, Note_off_c, 0, 68, 90
1, 49653, Note_on_c, 0, 71, 102
1, 49811, Note_off_c, 0, 71, 102
1, 49850, Note_on_c, 0, 68, 104
1, 49936, Note_off_c, 0, 68, 104
1, 49945, Note_on_c, 0, 66, 106
1, 50022, Note_off_c, 0, 66, 106
1, 50032, Note_on_c, 0, 64, 93
1, 50112, Note_off_c, 0, 64, 93
1, 50203, Note_on_c, 0, 63, 98
1, 50296, Note_off_c, 0, 63, 98
1, 50327, Note_on_c, 0, 61, 94
1, 50392, Note_off_c, 0, 61, 94
1, 50392, End_track
0, 0, End_of_file
