0, 0, Header, 1, 1, 192
1, 0, Start_track
1, 0, Title_t, "Melody"
1, 0, Tempo, 206185
1, 0, Key_signature, 1, "major"
1, 0, Time_signature, 4, 2, 24, 8
1, 3762, Note_on_c, 0, 66, 79
1, 3850, Note_off_c, 0, 66, 79
1, 3868, Note_on_c, 0, 67, 81
1, 3935, Note_off_c, 0, 67, 81
1, 3935, Note_on_c, 0, 71, 89
1, 4039, Note_off_c, 0, 71, 89
1, 4049, Note_on_c, 0, 74, 87
1, 4132, Note_off_c, 0, 74, 87
1, 4148, Note_on_c, 0, 78, 88
1, 4251, Note_off_c, 0, 78, 88
1, 4270, Note_on_c, 0, 79, 88
1, 4371, Note_off_c, 0, 79, 88
1, 4377, Note_on_c, 0, 78, 84
1, 4481, Note_off_c, 0, 78, 84
1, 4482, Note_on_c, 0, 76, 78
1, 4565, Note_off_c, 0, 76, 78
1, 4577, Note_on_c, 0, 74, 92
1, 4656, Note_off_c, 0, 74, 92
1, 4672, Note_on_c, 0, 71, 95
1, 4786, Note_off_c, 0, 71, 95
1, 4790, Note_on_c, 0, 72, 88
1, 4835, Note_off_c, 0, 72, 88
1, 4838, Note_on_c, 0, 74, 90
1, 4879, Note_off_c, 0, 74, 90
1, 4900, Note_on_c, 0, 72, 89
1, 4962, Note_off_c, 0, 72, 89
1, 4966, Note_on_c, 0, 71, 93
1, 5052, Note_off_c, 0, 71, 93
1, 5090, Note_on_c, 0, 69, 92
1, 5158, Note_off_c, 0, 69, 92
1, 5165, Note_on_c, 0, 68, 91
1, 5252, Note_off_c, 0, 68, 91
1, 5255, Note_on_c, 0, 66, 71
1, 5350, Note_off_c, 0, 66, 71
1, 5357, Note_on_c, 0, 67, 67
1, 5455, Note_off_c, 0, 67, 67
1, 5487, Note_on_c, 0, 69, 90
1, 5568, Note_off_c, 0, 69, 90
1, 5573, Note_on_c, 0, 71, 78
1, 5682, Note_off_c, 0, 71, 78
1, 5688, Note_on_c, 0, 72, 83
1, 5746, Note_off_c, 0, 72, 83
1, 5753, Note_on_c, 0, 74, 95
1, 5842, Note_off_c, 0, 74, 95
1, 5864, Note_on_c, 0, 72, 84
1, 5957, Note_off_c, 0, 72, 84
1, 5961, Note_on_c, 0, 71, 82
1, 6030, Note_off_c, 0, 71, 82
1, 6062, Note_on_c, 0, 69, 95
1, 6157, Note_off_c, 0, 69, 95
1, 6158, Note_on_c, 0, 68, 91
1, 6235, Note_off_c, 0, 68, 91
1, 6298, Note_on_c, 0, 66, 75
1, 6372, Note_off_c, 0, 66, 75
1, 6374, Note_on_c, 0, 67, 71
1, 6437, Note_off_c, 0, 67, 71
1, 6471, Note_on_c, 0, 69, 88
1, 6553, Note_off_c, 0, 69, 88
1, 6574, Note_on_c, 0, 71, 71
1, 6648, Note_off_c, 0, 71, 71
1, 6666, Note_on_c, 0, 72, 86
1, 6751, Note_off_c, 0, 72, 86
1, 6760, Note_on_c, 0, 74, 89
1, 6854, Note_off_c, 0, 74, 89
1, 6875, Note_on_c, 0, 76, 91
1, 6958, Note_off_c, 0, 76, 91
1, 6983, Note_on_c, 0, 78, 78
1, 7089, Note_off_c, 0, 78, 78
1, 7163, Note_on_c, 0, 81, 87
1, 7261, Note_off_c, 0, 81, 87
1, 7278, Note_on_c, 0, 78, 82
1, 7369, Note_off_c, 0, 78, 82
1, 7381, Note_on_c, 0, 79, 75
1, 7488, Note_off_c, 0, 79, 75
1, 7568, Note_on_c, 0, 74, 76
1, 7675, Note_off_c, 0, 74, 76
1, 7804, Note_on_c, 0, 72, 93
1, 7954, Note_off_c, 0, 72, 93
1, 7960, Note_on_c, 0, 69, 90
1, 8055, Note_off_c, 0, 69, 90
1, 8177, Note_on_c, 0, 70, 96
1, 8332, Note_off_c, 0, 70, 96
1, 8345, Note_on_c, 0, 66, 70
1, 8477, Note_off_c, 0, 66, 70
1, 8574, Note_on_c, 0, 69, 95
1, 8729, Note_off_c, 0, 69, 95
1, 8732, Note_on_c, 0, 66, 81
1, 8842, Note_off_c, 0, 66, 81
1, 8954, Note_on_c, 0, 67, 90
1, 9086, Note_off_c, 0, 67, 90
1, 9389, Note_on_c, 0, 62, 93
1, 9542, Note_off_c, 0, 62, 93
1, 9572, Note_on_c, 0, 60, 74
1, 9697, Note_off_c, 0, 60, 74
1, 9704, Note_on_c, 0, 58, 85
1, 9852, Note_off_c, 0, 58, 85
1, 9867, Note_on_c, 0, 55, 88
1, 10057, Note_off_c, 0, 55, 88
1, 10072, Note_on_c, 0, 55, 80
1, 10474, Note_off_c, 0, 55, 80
1, 11478, Note_on_c, 0, 71, 103
1, 11552, Note_off_c, 0, 71, 103
1, 11562, Note_on_c, 0, 72, 92
1, 11641, Note_off_c, 0, 72, 92
1, 11659, Note_on_c, 0, 68, 87
1, 11736, Note_off_c, 0, 68, 87
1, 11770, Note_on_c, 0, 71, 89
1, 11838, Note_off_c, 0, 71, 89
1, 11864, Note_on_c, 0, 69, 92
1, 11943, Note_off_c, 0, 69, 92
1, 11977, Note_on_c, 0, 67, 90
1, 12060, Note_off_c, 0, 67, 90
1, 12092, Note_on_c, 0, 66, 83
1, 12169, Note_off_c, 0, 66, 83
1, 12436, Note_on_c, 0, 80, 101
1, 12542, Note_off_c, 0, 80, 101
1, 12544, Note_on_c, 0, 79, 107
1, 12570, Note_off_c, 0, 79, 107
1, 12577, Note_on_c, 0, 75, 98
1, 12619, Note_off_c, 0, 75, 98
1, 12619, Note_on_c, 0, 74, 101
1, 12710, Note_off_c, 0, 74, 101
1, 12744, Note_on_c, 0, 72, 98
1, 12792, Note_off_c, 0, 72, 98
1, 12802, Note_on_c, 0, 71, 91
1, 12919, Note_off_c, 0, 71, 91
1, 13006, Note_on_c, 0, 71, 84
1, 13119, Note_off_c, 0, 71, 84
1, 13554, Note_on_c, 0, 77, 86
1, 13634, Note_off_c, 0, 77, 86
1, 13638, Note_on_c, 0, 76, 108
1, 13697, Note_off_c, 0, 76, 108
1, 13700, Note_on_c, 0, 75, 105
1, 13751, Note_off_c, 0, 75, 105
1, 13752, Note_on_c, 0, 74, 97
1, 13855, Note_off_c, 0, 74, 97
1, 13863, Note_on_c, 0, 72, 95
1, 13938, Note_off_c, 0, 72, 95
1, 13940, Note_on_c, 0, 71, 88
1, 14012, Note_off_c, 0, 71, 88
1, 14063, Note_on_c, 0, 69, 98
1, 14135, Note_off_c, 0, 69, 98
1, 14142, Note_on_c, 0, 68, 87
1, 14204, Note_off_c, 0, 68, 87
1, 14261, Note_on_c, 0, 71, 102
1, 14328, Note_off_c, 0, 71, 102
1, 14336, Note_on_c, 0, 69, 85
1, 14422, Note_off_c, 0, 69, 85
1, 14442, Note_on_c, 0, 64, 79
1, 14501, Note_off_c, 0, 64, 79
1, 14518, Note_on_c, 0, 69, 95
1, 14590, Note_off_c, 0, 69, 95
1, 14624, Note_on_c, 0, 71, 93
1, 14699, Note_off_c, 0, 71, 93
1, 14701, Note_on_c, 0, 72, 82
1, 14773, Note_off_c, 0, 72, 82
1, 14807, Note_on_c, 0, 74, 89
1, 14911, Note_off_c, 0, 74, 89
1, 14917, Note_on_c, 0, 75, 86
1, 15006, Note_off_c, 0, 75, 86
1, 15009, Note_on_c, 0, 76, 92
1, 15092, Note_off_c, 0, 76, 92
1, 15104, Note_on_c, 0, 79, 79
1, 15204, Note_off_c, 0, 79, 79
1, 15223, Note_on_c, 0, 76, 89
1, 15291, Note_off_c, 0, 76, 89
1, 15301, Note_on_c, 0, 78, 92
1, 15381, Note_off_c, 0, 78, 92
1, 15394, Note_on_c, 0, 76, 95
1, 15465, Note_off_c, 0, 76, 95
1, 15489, Note_on_c, 0, 74, 85
1, 15595, Note_off_c, 0, 74, 85
1, 15605, Note_on_c, 0, 72, 96
1, 15667, Note_off_c, 0, 72, 96
1, 15670, Note_on_c, 0, 71, 83
1, 15742, Note_off_c, 0, 71, 83
1, 15778, Note_on_c, 0, 69, 96
1, 15844, Note_off_c, 0, 69, 96
1, 15859, Note_on_c, 0, 68, 90
1, 15941, Note_off_c, 0, 68, 90
1, 15977, Note_on_c, 0, 65, 81
1, 16043, Note_off_c, 0, 65, 81
1, 16050, Note_on_c, 0, 67, 77
1, 16106, Note_off_c, 0, 67, 77
1, 16165, Note_on_c, 0, 69, 92
1, 16215, Note_off_c, 0, 69, 92
1, 16254, Note_on_c, 0, 71, 88
1, 16314, Note_off_c, 0, 71, 88
1, 16338, Note_on_c, 0, 72, 89
1, 16385, Note_off_c, 0, 72, 89
1, 16404, Note_on_c, 0, 74, 82
1, 16504, Note_off_c, 0, 74, 82
1, 16543, Note_on_c, 0, 76, 97
1, 16603, Note_off_c, 0, 76, 97
1, 16631, Note_on_c, 0, 78, 78
1, 16700, Note_off_c, 0, 78, 78
1, 16747, Note_on_c, 0, 79, 89
1, 16804, Note_off_c, 0, 79, 89
1, 16826, Note_on_c, 0, 81, 93
1, 16912, Note_off_c, 0, 81, 93
1, 16924, Note_on_c, 0, 78, 82
1, 16968, Note_off_c, 0, 78, 82
1, 16995, Note_on_c, 0, 79, 86
1, 17066, Note_off_c, 0, 79, 86
1, 17093, Note_on_c, 0, 76, 91
1, 17172, Note_off_c, 0, 76, 91
1, 17190, Note_on_c, 0, 77, 72
1, 17270, Note_off_c, 0, 77, 72
1, 17292, Note_on_c, 0, 74, 95
1, 17366, Note_off_c, 0, 74, 95
1, 17375, Note_on_c, 0, 75, 90
1, 17441, Note_off_c, 0, 75, 90
1, 17498, Note_on_c, 0, 65, 87
1, 17532, Note_off_c, 0, 65, 87
1, 17551, Note_on_c, 0, 71, 93
1, 17631, Note_off_c, 0, 71, 93
1, 17681, Note_on_c, 0, 74, 95
1, 17743, Note_off_c, 0, 74, 95
1, 17752, Note_on_c, 0, 72, 87
1, 17817, Note_off_c, 0, 72, 87
1, 17844, Note_on_c, 0, 70, 95
1, 17918, Note_off_c, 0, 70, 95
1, 17919, Note_on_c, 0, 69, 91
1, 17991, Note_off_c, 0, 69, 91
1, 18035, Note_on_c, 0, 67, 92
1, 18117, Note_off_c, 0, 67, 92
1, 18127, Note_on_c, 0, 65, 93
1, 18196, Note_off_c, 0, 65, 93
1, 18221, Note_on_c, 0, 64, 92
1, 18286, Note_off_c, 0, 64, 92
1, 18295, Note_on_c, 0, 63, 81
1, 18334, Note_off_c, 0, 63, 81
1, 18352, Note_on_c, 0, 65, 88
1, 18423, Note_off_c, 0, 65, 88
1, 18447, Note_on_c, 0, 63, 95
1, 18494, Note_off_c, 0, 63, 95
1, 18515, Note_on_c, 0, 62, 86
1, 18603, Note_off_c, 0, 62, 86
1, 18627, Note_on_c, 0, 60, 91
1, 18695, Note_off_c, 0, 60, 91
1, 18723, Note_on_c, 0, 59, 82
1, 18782, Note_off_c, 0, 59, 82
1, 18815, Note_on_c, 0, 57, 78
1, 18893, Note_off_c, 0, 57, 78
1, 18908, Note_on_c, 0, 58, 87
1, 18979, Note_off_c, 0, 58, 87
1, 19013, Note_on_c, 0, 60, 85
1, 19091, Note_off_c, 0, 60, 85
1, 19096, Note_on_c, 0, 62, 86
1, 19162, Note_off_c, 0, 62, 86
1, 19187, Note_on_c, 0, 63, 85
1, 19246, Note_off_c, 0, 63, 85
1, 19250, Note_on_c, 0, 65, 95
1, 19390, Note_off_c, 0, 65, 95
1, 19422, Note_on_c, 0, 58, 78
1, 19654, Note_off_c, 0, 58, 78
1, 20059, Note_on_c, 0, 62, 76
1, 20192, Note_off_c, 0, 62, 76
1, 20196, Note_on_c, 0, 65, 80
1, 20317, Note_off_c, 0, 65, 80
1, 20327, Note_on_c, 0, 68, 102
1, 20391, Note_off_c, 0, 68, 102
1, 20398, Note_on_c, 0, 67, 95
1, 20466, Note_off_c, 0, 67, 95
1, 20518, Note_on_c, 0, 63, 90
1, 20601, Note_off_c, 0, 63, 90
1, 20605, Note_on_c, 0, 60, 78
1, 20688, Note_off_c, 0, 60, 78
1, 20722, Note_on_c, 0, 57, 76
1, 20790, Note_off_c, 0, 57, 76
1, 20796, Note_on_c, 0, 58, 92
1, 20919, Note_off_c, 0, 58, 92
1, 21404, Note_on_c, 0, 57, 81
1, 21506, Note_off_c, 0, 57, 81
1, 21521, Note_on_c, 0, 58, 72
1, 21600, Note_off_c, 0, 58, 72
1, 21698, Note_on_c, 0, 63, 94
1, 21761, Note_off_c, 0, 63, 94
1, 21761, Note_on_c, 0, 66, 86
1, 21856, Note_off_c, 0, 66, 86
1, 21860, Note_on_c, 0, 65, 100
1, 21955, Note_off_c, 0, 65, 100
1, 21958, Note_on_c, 0, 62, 80
1, 22035, Note_off_c, 0, 62, 80
1, 22079, Note_on_c, 0, 58, 87
1, 22132, Note_off_c, 0, 58, 87
1, 22168, Note_on_c, 0, 63, 96
1, 22263, Note_off_c, 0, 63, 96
1, 22267, Note_on_c, 0, 62, 90
1, 22327, Note_off_c, 0, 62, 90
1, 22480, Note_on_c, 0, 53, 80
1, 22847, Note_off_c, 0, 53, 80
1, 23859, Note_on_c, 0, 70, 92
1, 23930, Note_off_c, 0, 70, 92
1, 23946, Note_on_c, 0, 74, 100
1, 24026, Note_off_c, 0, 74, 100
1, 24051, Note_on_c, 0, 74, 105
1, 24130, Note_off_c, 0, 74, 105
1, 24157, Note_on_c, 0, 74, 103
1, 24238, Note_off_c, 0, 74, 103
1, 24259, Note_on_c, 0, 73, 95
1, 24326, Note_off_c, 0, 73, 95
1, 24326, Note_on_c, 0, 74, 98
1, 24415, Note_off_c, 0, 74, 98
1, 24433, Note_on_c, 0, 74, 98
1, 24524, Note_off_c, 0, 74, 98
1, 24542, Note_on_c, 0, 74, 102
1, 24631, Note_off_c, 0, 74, 102
1, 24645, Note_on_c, 0, 73, 96
1, 24722, Note_off_c, 0, 73, 96
1, 24740, Note_on_c, 0, 74, 96
1, 24812, Note_off_c, 0, 74, 96
1, 24836, Note_on_c, 0, 74, 103
1, 24911, Note_off_c, 0, 74, 103
1, 24935, Note_on_c, 0, 74, 99
1, 25026, Note_off_c, 0, 74, 99
1, 25036, Note_on_c, 0, 73, 101
1, 25130, Note_off_c, 0, 73, 101
1, 25136, Note_on_c, 0, 74, 87
1, 25186, Note_off_c, 0, 74, 87
1, 25986, Note_on_c, 0, 72, 98
1, 26073, Note_off_c, 0, 72, 98
1, 26084, Note_on_c, 0, 73, 103
1, 26167, Note_off_c, 0, 73, 103
1, 26172, Note_on_c, 0, 76, 96
1, 26273, Note_off_c, 0, 76, 96
1, 26285, Note_on_c, 0, 73, 95
1, 26350, Note_off_c, 0, 73, 95
1, 26357, Note_on_c, 0, 74, 95
1, 26469, Note_off_c, 0, 74, 95
1, 26475, Note_on_c, 0, 72, 100
1, 26551, Note_off_c, 0, 72, 100
1, 26563, Note_on_c, 0, 71, 89
1, 26646, Note_off_c, 0, 71, 89
1, 26659, Note_on_c, 0, 69, 94
1, 26751, Note_off_c, 0, 69, 94
1, 26754, Note_on_c, 0, 67, 88
1, 26856, Note_off_c, 0, 67, 88
1, 26869, Note_on_c, 0, 66, 96
1, 26951, Note_off_c, 0, 66, 96
1, 26963, Note_on_c, 0, 64, 90
1, 27035, Note_off_c, 0, 64, 90
1, 27040, Note_on_c, 0, 62, 81
1, 27119, Note_off_c, 0, 62, 81
1, 27122, Note_on_c, 0, 63, 83
1, 27201, Note_off_c, 0, 63, 83
1, 27226, Note_on_c, 0, 66, 82
1, 27286, Note_off_c, 0, 66, 82
1, 27301, Note_on_c, 0, 69, 87
1, 27364, Note_off_c, 0, 69, 87
1, 27386, Note_on_c, 0, 72, 94
1, 27489, Note_off_c, 0, 72, 94
1, 27504, Note_on_c, 0, 69, 83
1, 27576, Note_off_c, 0, 69, 83
1, 27587, Note_on_c, 0, 70, 82
1, 27678, Note_off_c, 0, 70, 82
1, 27689, Note_on_c, 0, 71, 94
1, 27791, Note_off_c, 0, 71, 94
1, 27796, Note_on_c, 0, 69, 85
1, 27858, Note_off_c, 0, 69, 85
1, 27862, Note_on_c, 0, 66, 80
1, 27922, Note_off_c, 0, 66, 80
1, 27941, Note_on_c, 0, 65, 73
1, 28024, Note_off_c, 0, 65, 73
1, 28026, Note_on_c, 0, 68, 82
1, 28155, Note_off_c, 0, 68, 82
1, 28179, Note_on_c, 0, 66, 69
1, 28243, Note_off_c, 0, 66, 69
1, 28254, Note_on_c, 0, 67, 84
1, 28330, Note_off_c, 0, 67, 84
1, 28371, Note_on_c, 0, 64, 79
1, 28439, Note_off_c, 0, 64, 79
1, 28465, Note_on_c, 0, 66, 87
1, 28529, Note_off_c, 0, 66, 87
1, 28541, Note_on_c, 0, 67, 84
1, 28600, Note_off_c, 0, 67, 84
1, 28616, Note_on_c, 0, 69, 94
1, 28661, Note_off_c, 0, 69, 94
1, 28671, Note_on_c, 0, 71, 94
1, 28719, Note_off_c, 0, 71, 94
1, 28722, Note_on_c, 0, 72, 95
1, 28771, Note_off_c, 0, 72, 95
1, 28774, Note_on_c, 0, 74, 97
1, 28853, Note_off_c, 0, 74, 97
1, 29150, Note_on_c, 0, 72, 92
1, 29198, Note_off_c, 0, 72, 92
1, 29203, Note_on_c, 0, 73, 100
1, 29243, Note_off_c, 0, 73, 100
1, 29250, Note_on_c, 0, 72, 98
1, 29322, Note_off_c, 0, 72, 98
1, 29325, Note_on_c, 0, 71, 100
1, 29402, Note_off_c, 0, 71, 100
1, 29471, Note_on_c, 0, 69, 88
1, 29545, Note_off_c, 0, 69, 88
1, 29545, Note_on_c, 0, 66, 96
1, 29713, Note_off_c, 0, 66, 96
1, 29735, Note_on_c, 0, 69, 93
1, 29845, Note_off_c, 0, 69, 93
1, 29860, Note_on_c, 0, 66, 96
1, 29925, Note_off_c, 0, 66, 96
1, 29942, Note_on_c, 0, 64, 79
1, 30295, Note_off_c, 0, 64, 79
1, 30909, Note_on_c, 0, 74, 88
1, 31024, Note_off_c, 0, 74, 88
1, 31073, Note_on_c, 0, 78, 92
1, 31187, Note_off_c, 0, 78, 92
1, 31195, Note_on_c, 0, 79, 98
1, 31348, Note_off_c, 0, 79, 98
1, 32223, Note_on_c, 0, 81, 63
1, 32302, Note_off_c, 0, 81, 63
1, 32311, Note_on_c, 0, 80, 106
1, 32353, Note_off_c, 0, 80, 106
1, 32362, Note_on_c, 0, 79, 104
1, 32472, Note_off_c, 0, 79, 104
1, 32531, Note_on_c, 0, 76, 95
1, 32629, Note_off_c, 0, 76, 95
1, 32636, Note_on_c, 0, 74, 102
1, 32745, Note_off_c, 0, 74, 102
1, 32754, Note_on_c, 0, 73, 100
1, 32845, Note_off_c, 0, 73, 100
1, 32849, Note_on_c, 0, 72, 93
1, 32923, Note_off_c, 0, 72, 93
1, 32929, Note_on_c, 0, 71, 93
1, 33017, Note_off_c, 0, 71, 93
1, 33026, Note_on_c, 0, 70, 91
1, 33097, Note_off_c, 0, 70, 91
1, 33107, Note_on_c, 0, 69, 92
1, 33187, Note_off_c, 0, 69, 92
1, 33188, Note_on_c, 0, 67, 88
1, 33276, Note_off_c, 0, 67, 88
1, 33310, Note_on_c, 0, 66, 83
1, 33357, Note_off_c, 0, 66, 83
1, 33370, Note_on_c, 0, 69, 93
1, 33490, Note_off_c, 0, 69, 93
1, 33509, Note_on_c, 0, 66, 83
1, 33536, Note_off_c, 0, 66, 83
1, 33540, Note_on_c, 0, 67, 89
1, 33649, Note_off_c, 0, 67, 89
1, 33662, Note_on_c, 0, 62, 90
1, 33738, Note_off_c, 0, 62, 90
1, 33751, Note_on_c, 0, 60, 87
1, 33832, Note_off_c, 0, 60, 87
1, 33842, Note_on_c, 0, 59, 85
1, 33928, Note_off_c, 0, 59, 85
1, 33949, Note_on_c, 0, 58, 86
1, 34008, Note_off_c, 0, 58, 86
1, 34038, Note_on_c, 0, 56, 74
1, 34117, Note_off_c, 0, 56, 74
1, 34126, Note_on_c, 0, 57, 92
1, 34211, Note_off_c, 0, 57, 92
1, 34211, Note_on_c, 0, 54, 78
1, 34309, Note_off_c, 0, 54, 78
1, 34312, Note_on_c, 0, 55, 82
1, 34383, Note_off_c, 0, 55, 82
1, 34409, Note_on_c, 0, 57, 83
1, 34494, Note_off_c, 0, 57, 83
1, 34497, Note_on_c, 0, 58, 83
1, 34611, Note_off_c, 0, 58, 83
1, 34611, Note_on_c, 0, 60, 82
1, 34679, Note_off_c, 0, 60, 82
1, 34688, Note_on_c, 0, 62, 83
1, 34767, Note_off_c, 0, 62, 83
1, 34791, Note_on_c, 0, 64, 82
1, 34870, Note_off_c, 0, 64, 82
1, 34886, Note_on_c, 0, 69, 94
1, 34940, Note_off_c, 0, 69, 94
1, 34944, Note_on_c, 0, 67, 88
1, 34995, Note_off_c, 0, 67, 88
1, 35010, Note_on_c, 0, 64, 85
1, 35069, Note_off_c, 0, 64, 85
1, 35084, Note_on_c, 0, 69, 98
1, 35170, Note_off_c, 0, 69, 98
1, 35217, Note_on_c, 0, 67, 88
1, 35327, Note_off_c, 0, 67, 88
1, 35404, Note_on_c, 0, 67, 97
1, 35455, Note_off_c, 0, 67, 97
1, 35482, Note_on_c, 0, 63, 86
1, 35615, Note_off_c, 0, 63, 86
1, 36054, Note_on_c, 0, 60, 72
1, 36126, Note_off_c, 0, 60, 72
1, 36133, Note_on_c, 0, 62, 85
1, 36220, Note_off_c, 0, 62, 85
1, 36239, Note_on_c, 0, 63, 84
1, 36326, Note_off_c, 0, 63, 84
1, 36337, Note_on_c, 0, 65, 83
1, 36416, Note_off_c, 0, 65, 83
1, 36420, Note_on_c, 0, 67, 97
1, 36489, Note_off_c, 0, 67, 97
1, 36517, Note_on_c, 0, 63, 81
1, 36585, Note_off_c, 0, 63, 81
1, 36600, Note_on_c, 0, 62, 81
1, 36672, Note_off_c, 0, 62, 81
1, 36694, Note_on_c, 0, 60, 72
1, 36766, Note_off_c, 0, 60, 72
1, 36790, Note_on_c, 0, 65, 97
1, 36916, Note_on_c, 0, 63, 90
1, 36916, Note_off_c, 0, 65, 97
1, 36999, Note_off_c, 0, 63, 90
1, 37006, Note_on_c, 0, 62, 89
1, 37085, Note_off_c, 0, 62, 89
1, 37107, Note_on_c, 0, 60, 81
1, 37202, Note_off_c, 0, 60, 81
1, 37213, Note_on_c, 0, 59, 74
1, 37281, Note_off_c, 0, 59, 74
1, 37978, Note_on_c, 0, 74, 74
1, 38049, Note_off_c, 0, 74, 74
1, 38050, Note_on_c, 0, 73, 104
1, 38133, Note_off_c, 0, 73, 104
1, 38136, Note_on_c, 0, 72, 96
1, 38181, Note_off_c, 0, 72, 96
1, 38183, Note_on_c, 0, 71, 89
1, 38266, Note_off_c, 0, 71, 89
1, 38277, Note_on_c, 0, 69, 97
1, 38336, Note_off_c, 0, 69, 97
1, 38354, Note_on_c, 0, 68, 82
1, 38452, Note_off_c, 0, 68, 82
1, 38462, Note_on_c, 0, 71, 75
1, 38524, Note_off_c, 0, 71, 75
1, 38535, Note_on_c, 0, 74, 95
1, 38635, Note_off_c, 0, 74, 95
1, 38645, Note_on_c, 0, 76, 99
1, 38726, Note_off_c, 0, 76, 99
1, 38728, Note_on_c, 0, 77, 102
1, 38825, Note_off_c, 0, 77, 102
1, 39125, Note_on_c, 0, 77, 107
1, 39200, Note_off_c, 0, 77, 107
1, 39208, Note_on_c, 0, 76, 106
1, 39289, Note_off_c, 0, 76, 106
1, 39291, Note_on_c, 0, 74, 98
1, 39393, Note_off_c, 0, 74, 98
1, 39406, Note_on_c, 0, 73, 102
1, 39492, Note_off_c, 0, 73, 102
1, 39494, Note_on_c, 0, 72, 99
1, 39560, Note_off_c, 0, 72, 99
1, 39639, Note_on_c, 0, 63, 83
1, 39703, Note_off_c, 0, 63, 83
1, 39711, Note_on_c, 0, 64, 83
1, 39773, Note_off_c, 0, 64, 83
1, 39789, Note_on_c, 0, 67, 81
1, 39848, Note_off_c, 0, 67, 81
1, 39848, Note_on_c, 0, 71, 98
1, 39934, Note_off_c, 0, 71, 98
1, 39966, Note_on_c, 0, 69, 96
1, 40060, Note_off_c, 0, 69, 96
1, 40068, Note_on_c, 0, 66, 88
1, 40159, Note_off_c, 0, 66, 88
1, 40205, Note_on_c, 0, 63, 75
1, 40249, Note_off_c, 0, 63, 75
1, 40258, Note_on_c, 0, 67, 95
1, 40379, Note_off_c, 0, 67, 95
1, 40392, Note_on_c, 0, 62, 89
1, 40486, Note_off_c, 0, 62, 89
1, 41425, Note_on_c, 0, 81, 114
1, 41613, Note_off_c, 0, 81, 114
1, 41631, Note_on_c, 0, 81, 109
1, 41729, Note_off_c, 0, 81, 109
1, 41745, Note_on_c, 0, 81, 110
1, 41793, Note_off_c, 0, 81, 110
1, 41820, Note_on_c, 0, 81, 107
1, 41999, Note_off_c, 0, 81, 107
1, 42017, Note_on_c, 0, 81, 103
1, 42096, Note_off_c, 0, 81, 103
1, 42122, Note_on_c, 0, 81, 103
1, 42189, Note_off_c, 0, 81, 103
1, 42215, Note_on_c, 0, 81, 103
1, 42382, Note_off_c, 0, 81, 103
1, 42406, Note_on_c, 0, 81, 101
1, 42482, Note_off_c, 0, 81, 101
1, 42493, Note_on_c, 0, 81, 101
1, 42563, Note_off_c, 0, 81, 101
1, 42581, Note_on_c, 0, 81, 101
1, 42801, Note_off_c, 0, 81, 101
1, 42807, Note_on_c, 0, 81, 97
1, 42861, Note_off_c, 0, 81, 97
1, 42880, Note_on_c, 0, 81, 103
1, 42968, Note_off_c, 0, 81, 103
1, 43004, Note_on_c, 0, 81, 105
1, 43142, Note_off_c, 0, 81, 105
1, 43156, Note_on_c, 0, 81, 100
1, 43207, Note_off_c, 0, 81, 100
1, 43223, Note_on_c, 0, 81, 103
1, 43290, Note_off_c, 0, 81, 103
1, 43305, Note_on_c, 0, 81, 101
1, 43453, Note_off_c, 0, 81, 101
1, 43497, Note_on_c, 0, 79, 95
1, 43573, Note_off_c, 0, 79, 95
1, 43747, Note_on_c, 0, 78, 93
1, 43830, Note_off_c, 0, 78, 93
1, 43960, Note_on_c, 0, 76, 93
1, 44075, Note_off_c, 0, 76, 93
1, 44100, Note_on_c, 0, 74, 103
1, 44160, Note_off_c, 0, 74, 103
1, 44258, Note_on_c, 0, 74, 98
1, 44323, Note_off_c, 0, 74, 98
1, 44353, Note_on_c, 0, 69, 92
1, 44460, Note_off_c, 0, 69, 92
1, 44467, Note_on_c, 0, 67, 74
1, 44503, Note_off_c, 0, 67, 74
1, 44531, Note_on_c, 0, 69, 101
1, 44635, Note_off_c, 0, 69, 101
1, 44647, Note_on_c, 0, 67, 96
1, 44713, Note_off_c, 0, 67, 96
1, 44830, Note_on_c, 0, 67, 99
1, 44901, Note_off_c, 0, 67, 99
1, 44909, Note_on_c, 0, 62, 89
1, 45030, Note_off_c, 0, 62, 89
1, 45123, Note_on_c, 0, 62, 95
1, 45218, Note_off_c, 0, 62, 95
1, 45228, Note_on_c, 0, 64, 97
1, 45333, Note_off_c, 0, 64, 97
1, 45379, Note_on_c, 0, 64, 98
1, 45474, Note_off_c, 0, 64, 98
1, 45474, Note_on_c, 0, 58, 90
1, 45571, Note_off_c, 0, 58, 90
1, 45676, Note_on_c, 0, 58, 97
1, 45792, Note_off_c, 0, 58, 97
1, 45800, Note_on_c, 0, 57, 89
1, 45930, Note_off_c, 0, 57, 89
1, 45979, Note_on_c, 0, 57, 86
1, 46092, Note_off_c, 0, 57, 86
1, 46106, Note_on_c, 0, 55, 90
1, 46201, Note_off_c, 0, 55, 90
1, 46990, Note_on_c, 0, 69, 105
1, 47062, Note_off_c, 0, 69, 105
1, 47077, Note_on_c, 0, 70, 96
1, 47160, Note_off_c, 0, 70, 96
1, 47162, Note_on_c, 0, 69, 103
1, 47253, Note_off_c, 0, 69, 103
1, 47260, Note_on_c, 0, 67, 100
1, 47340, Note_off_c, 0, 67, 100
1, 47348, Note_on_c, 0, 66, 84
1, 47454, Note_off_c, 0, 66, 84
1, 47594, Note_on_c, 0, 69, 100
1, 47677, Note_off_c, 0, 69, 100
1, 47677, Note_on_c, 0, 66, 83
1, 47749, Note_off_c, 0, 66, 83
1, 47764, Note_on_c, 0, 67, 84
1, 47851, Note_off_c, 0, 67, 84
1, 47855, Note_on_c, 0, 69, 100
1, 47946, Note_off_c, 0, 69, 100
1, 47952, Note_on_c, 0, 70, 89
1, 48031, Note_off_c, 0, 70, 89
1, 48031, Note_on_c, 0, 72, 100
1, 48126, Note_off_c, 0, 72, 100
1, 48233, Note_on_c, 0, 66, 84
1, 48346, Note_off_c, 0, 66, 84
1, 48794, Note_on_c, 0, 63, 91
1, 48866, Note_off_c, 0, 63, 91
1, 48868, Note_on_c, 0, 64, 86
1, 48932, Note_off_c, 0, 64, 86
1, 48937, Note_on_c, 0, 67, 99
1, 48999, Note_off_c, 0, 67, 99
1, 49007, Note_on_c, 0, 66, 90
1, 49087, Note_off_c, 0, 66, 90
1, 49127, Note_on_c, 0, 69, 73
1, 49191, Note_off_c, 0, 69, 73
1, 49210, Note_on_c, 0, 72, 97
1, 49287, Note_off_c, 0, 72, 97
1, 49315, Note_on_c, 0, 74, 93
1, 49397, Note_off_c, 0, 74, 93
1, 49405, Note_on_c, 0, 77, 103
1, 49463, Note_off_c, 0, 77, 103
1, 49468, Note_on_c, 0, 76, 99
1, 49513, Note_off_c, 0, 76, 99
1, 49521, Note_on_c, 0, 75, 100
1, 49586, Note_off_c, 0, 75, 100
1, 49594, Note_on_c, 0, 74, 94
1, 49684, Note_off_c, 0, 74, 94
1, 49686, Note_on_c, 0, 72, 90
1, 49784, Note_off_c, 0, 72, 90
1, 49786, Note_on_c, 0, 71, 77
1, 49844, Note_off_c, 0, 71, 77
1, 49873, Note_on_c, 0, 69, 92
1, 49949, Note_off_c, 0, 69, 92
1, 49962, Note_on_c, 0, 68, 94
1, 50028, Note_off_c, 0, 68, 94
1, 50071, Note_on_c, 0, 61, 66
1, 50141, Note_off_c, 0, 61, 66
1, 50153, Note_on_c, 0, 62, 76
1, 50228, Note_off_c, 0, 62, 76
1, 50228, Note_on_c, 0, 65, 87
1, 50302, Note_off_c, 0, 65, 87
1, 50313, Note_on_c, 0, 62, 84
1, 50394, Note_off_c, 0, 62, 84
1, 50396, Note_on_c, 0, 63, 81
1, 50481, Note_off_c, 0, 63, 81
1, 50491, Note_on_c, 0, 64, 83
1, 50559, Note_off_c, 0, 64, 83
1, 50597, Note_on_c, 0, 68, 92
1, 50672, Note_off_c, 0, 68, 92
1, 50694, Note_on_c, 0, 71, 85
1, 50779, Note_off_c, 0, 71, 85
1, 50812, Note_on_c, 0, 67, 77
1, 50866, Note_off_c, 0, 67, 77
1, 50880, Note_on_c, 0, 69, 87
1, 50952, Note_off_c, 0, 69, 87
1, 50995, Note_on_c, 0, 71, 98
1, 51067, Note_off_c, 0, 71, 98
1, 51072, Note_on_c, 0, 72, 76
1, 51149, Note_off_c, 0, 72, 76
1, 51156, Note_on_c, 0, 74, 84
1, 51266, Note_off_c, 0, 74, 84
1, 51273, Note_on_c, 0, 75, 88
1, 51360, Note_off_c, 0, 75, 88
1, 51362, Note_on_c, 0, 76, 95
1, 51430, Note_off_c, 0, 76, 95
1, 51448, Note_on_c, 0, 79, 80
1, 51534, Note_off_c, 0, 79, 80
1, 51568, Note_on_c, 0, 76, 78
1, 51635, Note_off_c, 0, 76, 78
1, 51639, Note_on_c, 0, 78, 95
1, 51680, Note_off_c, 0, 78, 95
1, 51749, Note_on_c, 0, 76, 93
1, 51829, Note_off_c, 0, 76, 93
1, 51830, Note_on_c, 0, 74, 91
1, 51913, Note_off_c, 0, 74, 91
1, 51916, Note_on_c, 0, 72, 90
1, 51999, Note_off_c, 0, 72, 90
1, 52017, Note_on_c, 0, 71, 88
1, 52091, Note_off_c, 0, 71, 88
1, 52118, Note_on_c, 0, 69, 89
1, 52186, Note_off_c, 0, 69, 89
1, 52196, Note_on_c, 0, 68, 97
1, 52267, Note_off_c, 0, 68, 97
1, 52336, Note_on_c, 0, 65, 79
1, 52423, Note_off_c, 0, 65, 79
1, 52427, Note_on_c, 0, 66, 82
1, 52494, Note_off_c, 0, 66, 82
1, 52519, Note_on_c, 0, 69, 84
1, 52586, Note_off_c, 0, 69, 84
1, 52618, Note_on_c, 0, 71, 77
1, 52676, Note_off_c, 0, 71, 77
1, 52684, Note_on_c, 0, 72, 82
1, 52750, Note_off_c, 0, 72, 82
1, 52761, Note_on_c, 0, 74, 96
1, 52849, Note_off_c, 0, 74, 96
1, 52861, Note_on_c, 0, 76, 90
1, 52937, Note_off_c, 0, 76, 90
1, 52950, Note_on_c, 0, 78, 72
1, 53041, Note_off_c, 0, 78, 72
1, 53047, Note_on_c, 0, 79, 82
1, 53122, Note_off_c, 0, 79, 82
1, 53153, Note_on_c, 0, 81, 91
1, 53228, Note_off_c, 0, 81, 91
1, 53311, Note_on_c, 0, 81, 82
1, 53433, Note_off_c, 0, 81, 82
1, 53445, Note_on_c, 0, 79, 90
1, 53530, Note_off_c, 0, 79, 90
1, 53604, Note_on_c, 0, 79, 91
1, 53666, Note_off_c, 0, 79, 91
1, 53697, Note_on_c, 0, 77, 83
1, 53809, Note_off_c, 0, 77, 83
1, 53818, Note_on_c, 0, 76, 95
1, 53862, Note_off_c, 0, 76, 95
1, 53866, Note_on_c, 0, 75, 99
1, 53981, Note_off_c, 0, 75, 99
1, 54009, Note_on_c, 0, 67, 86
1, 54069, Note_off_c, 0, 67, 86
1, 54085, Note_on_c, 0, 71, 70
1, 54153, Note_off_c, 0, 71, 70
1, 54157, Note_on_c, 0, 74, 95
1, 54248, Note_off_c, 0, 74, 95
1, 54258, Note_on_c, 0, 72, 85
1, 54336, Note_off_c, 0, 72, 85
1, 54345, Note_on_c, 0, 70, 97
1, 54425, Note_off_c, 0, 70, 97
1, 54436, Note_on_c, 0, 69, 90
1, 54503, Note_off_c, 0, 69, 90
1, 54505, Note_on_c, 0, 67, 90
1, 54602, Note_off_c, 0, 67, 90
1, 54607, Note_on_c, 0, 65, 96
1, 54704, Note_off_c, 0, 65, 96
1, 54720, Note_on_c, 0, 64, 88
1, 54806, Note_off_c, 0, 64, 88
1, 54816, Note_on_c, 0, 63, 84
1, 54863, Note_off_c, 0, 63, 84
1, 54869, Note_on_c, 0, 65, 96
1, 54920, Note_off_c, 0, 65, 96
1, 54930, Note_on_c, 0, 63, 92
1, 54983, Note_off_c, 0, 63, 92
1, 54987, Note_on_c, 0, 62, 9
1, 55070, Note_off_c, 0, 62, 9
1, 55089, Note_on_c, 0, 60, 56
1, 55175, Note_off_c, 0, 60, 56
1, 55183, Note_on_c, 0, 59, 92
1, 55253, Note_off_c, 0, 59, 92
1, 55258, Note_on_c, 0, 57, 89
1, 55370, Note_off_c, 0, 57, 89
1, 55376, Note_on_c, 0, 58, 94
1, 55445, Note_off_c, 0, 58, 94
1, 55476, Note_on_c, 0, 60, 89
1, 55542, Note_off_c, 0, 60, 89
1, 55564, Note_on_c, 0, 62, 87
1, 55664, Note_off_c, 0, 62, 87
1, 55671, Note_on_c, 0, 63, 92
1, 55731, Note_off_c, 0, 63, 92
1, 55734, Note_on_c, 0, 65, 96
1, 55832, Note_off_c, 0, 65, 96
1, 55836, Note_on_c, 0, 63, 93
1, 55898, Note_off_c, 0, 63, 93
1, 55910, Note_on_c, 0, 62, 95
1, 56000, Note_off_c, 0, 62, 95
1, 56013, Note_on_c, 0, 60, 90
1, 56095, Note_off_c, 0, 60, 90
1, 56136, Note_on_c, 0, 62, 90
1, 56251, Note_off_c, 0, 62, 90
1, 56266, Note_on_c, 0, 65, 99
1, 56332, Note_off_c, 0, 65, 99
1, 56365, Note_on_c, 0, 67, 97
1, 56443, Note_off_c, 0, 67, 97
1, 56455, Note_on_c, 0, 68, 94
1, 56497, Note_off_c, 0, 68, 94
1, 56506, Note_on_c, 0, 70, 90
1, 56566, Note_off_c, 0, 70, 90
1, 56578, Note_on_c, 0, 68, 95
1, 56663, Note_off_c, 0, 68, 95
1, 56678, Note_on_c, 0, 67, 93
1, 56773, Note_off_c, 0, 67, 93
1, 56782, Note_on_c, 0, 65, 102
1, 56844, Note_off_c, 0, 65, 102
1, 56844, Note_on_c, 0, 63, 92
1, 56934, Note_off_c, 0, 63, 92
1, 57420, Note_on_c, 0, 73, 107
1, 57512, Note_off_c, 0, 73, 107
1, 57518, Note_on_c, 0, 74, 102
1, 57612, Note_off_c, 0, 74, 102
1, 57618, Note_on_c, 0, 75, 96
1, 57680, Note_off_c, 0, 75, 96
1, 57731, Note_on_c, 0, 77, 96
1, 57781, Note_off_c, 0, 77, 96
1, 57793, Note_on_c, 0, 79, 102
1, 57880, Note_off_c, 0, 79, 102
1, 57903, Note_on_c, 0, 76, 87
1, 57970, Note_on_c, 0, 77, 100
1, 57970, Note_off_c, 0, 76, 87
1, 58072, Note_off_c, 0, 77, 100
1, 58079, Note_on_c, 0, 75, 104
1, 58162, Note_off_c, 0, 75, 104
1, 58169, Note_on_c, 0, 74, 102
1, 58228, Note_off_c, 0, 74, 102
1, 58252, Note_on_c, 0, 72, 92
1, 58322, Note_off_c, 0, 72, 92
1, 58333, Note_on_c, 0, 71, 96
1, 58419, Note_off_c, 0, 71, 96
1, 58425, Note_on_c, 0, 72, 89
1, 58511, Note_off_c, 0, 72, 89
1, 58530, Note_on_c, 0, 70, 100
1, 58630, Note_off_c, 0, 70, 100
1, 59349, Note_on_c, 0, 67, 82
1, 59413, Note_off_c, 0, 67, 82
1, 59434, Note_on_c, 0, 67, 96
1, 59511, Note_off_c, 0, 67, 96
1, 59519, Note_on_c, 0, 70, 89
1, 59594, Note_off_c, 0, 70, 89
1, 59594, Note_on_c, 0, 72, 77
1, 59642, Note_off_c, 0, 72, 77
1, 59663, Note_on_c, 0, 74, 78
1, 59717, Note_off_c, 0, 74, 78
1, 59756, Note_on_c, 0, 75, 95
1, 59812, Note_off_c, 0, 75, 95
1, 59829, Note_on_c, 0, 76, 82
1, 59888, Note_off_c, 0, 76, 82
1, 59904, Note_on_c, 0, 77, 91
1, 59972, Note_off_c, 0, 77, 91
1, 59983, Note_on_c, 0, 78, 74
1, 60041, Note_off_c, 0, 78, 74
1, 60069, Note_on_c, 0, 79, 86
1, 60163, Note_off_c, 0, 79, 86
1, 60194, Note_on_c, 0, 76, 72
1, 60253, Note_off_c, 0, 76, 72
1, 60281, Note_on_c, 0, 78, 96
1, 60410, Note_off_c, 0, 78, 96
1, 60825, Note_on_c, 0, 78, 96
1, 60914, Note_off_c, 0, 78, 96
1, 60920, Note_on_c, 0, 76, 105
1, 61009, Note_off_c, 0, 76, 105
1, 61014, Note_on_c, 0, 74, 107
1, 61105, Note_off_c, 0, 74, 107
1, 61547, Note_on_c, 0, 74, 100
1, 61662, Note_off_c, 0, 74, 100
1, 61671, Note_on_c, 0, 72, 108
1, 61727, Note_off_c, 0, 72, 108
1, 61744, Note_on_c, 0, 71, 98
1, 61827, Note_off_c, 0, 71, 98
1, 61859, Note_on_c, 0, 69, 104
1, 61934, Note_off_c, 0, 69, 104
1, 61936, Note_on_c, 0, 68, 96
1, 62013, Note_off_c, 0, 68, 96
1, 62041, Note_on_c, 0, 66, 91
1, 62105, Note_off_c, 0, 66, 91
1, 62121, Note_on_c, 0, 67, 95
1, 62207, Note_off_c, 0, 67, 95
1, 62226, Note_on_c, 0, 69, 97
1, 62302, Note_off_c, 0, 69, 97
1, 62308, Note_on_c, 0, 71, 94
1, 62399, Note_off_c, 0, 71, 94
1, 62407, Note_on_c, 0, 72, 93
1, 62473, Note_off_c, 0, 72, 93
1, 62473, Note_on_c, 0, 74, 103
1, 62558, Note_off_c, 0, 74, 103
1, 62576, Note_on_c, 0, 76, 91
1, 62638, Note_off_c, 0, 76, 91
1, 62648, Note_on_c, 0, 78, 95
1, 62712, Note_off_c, 0, 78, 95
1, 62736, Note_on_c, 0, 79, 93
1, 62830, Note_off_c, 0, 79, 93
1, 62837, Note_on_c, 0, 81, 98
1, 62928, Note_off_c, 0, 81, 98
1, 62937, Note_on_c, 0, 79, 97
1, 63020, Note_off_c, 0, 79, 97
1, 63020, Note_on_c, 0, 78, 97
1, 63088, Note_off_c, 0, 78, 97
1, 63109, Note_on_c, 0, 76, 92
1, 63226, Note_off_c, 0, 76, 92
1, 63237, Note_on_c, 0, 73, 83
1, 63299, Note_off_c, 0, 73, 83
1, 63304, Note_on_c, 0, 74, 88
1, 63385, Note_off_c, 0, 74, 88
1, 63386, Note_on_c, 0, 75, 93
1, 63480, Note_off_c, 0, 75, 93
1, 63483, Note_on_c, 0, 73, 87
1, 63528, Note_off_c, 0, 73, 87
1, 63545, Note_on_c, 0, 71, 97
1, 63607, Note_off_c, 0, 71, 97
1, 63620, Note_on_c, 0, 69, 79
1, 63713, Note_off_c, 0, 69, 79
1, 63733, Note_on_c, 0, 67, 95
1, 63803, Note_off_c, 0, 67, 95
1, 63826, Note_on_c, 0, 66, 100
1, 63882, Note_off_c, 0, 66, 100
1, 63898, Note_on_c, 0, 64, 93
1, 64019, Note_off_c, 0, 64, 93
1, 64035, Note_on_c, 0, 62, 94
1, 64126, Note_off_c, 0, 62, 94
1, 64129, Note_on_c, 0, 63, 100
1, 64505, Note_off_c, 0, 63, 100
1, 64533, Note_on_c, 0, 66, 84
1, 64642, Note_off_c, 0, 66, 84
1, 64646, Note_on_c, 0, 63, 86
1, 64709, Note_off_c, 0, 63, 86
1, 64715, Note_on_c, 0, 64, 88
1, 64783, Note_off_c, 0, 64, 88
1, 64795, Note_on_c, 0, 66, 86
1, 64854, Note_off_c, 0, 66, 86
1, 64867, Note_on_c, 0, 68, 97
1, 64912, Note_off_c, 0, 68, 97
1, 64926, Note_on_c, 0, 69, 94
1, 64974, Note_off_c, 0, 69, 94
1, 64974, Note_on_c, 0, 71, 100
1, 65030, Note_off_c, 0, 71, 100
1, 65031, Note_on_c, 0, 72, 100
1, 65087, Note_off_c, 0, 72, 100
1, 65097, Note_on_c, 0, 74, 94
1, 65177, Note_off_c, 0, 74, 94
1, 65202, Note_on_c, 0, 63, 95
1, 65264, Note_off_c, 0, 63, 95
1, 65297, Note_on_c, 0, 65, 82
1, 65364, Note_off_c, 0, 65, 82
1, 65377, Note_on_c, 0, 67, 88
1, 65449, Note_off_c, 0, 67, 88
1, 65471, Note_on_c, 0, 66, 97
1, 65526, Note_off_c, 0, 66, 97
1, 65551, Note_on_c, 0, 64, 101
1, 65631, Note_off_c, 0, 64, 101
1, 65641, Note_on_c, 0, 63, 95
1, 65729, Note_off_c, 0, 63, 95
1, 65742, Note_on_c, 0, 61, 87
1, 65795, Note_off_c, 0, 61, 87
1, 65815, Note_on_c, 0, 62, 94
1, 65895, Note_off_c, 0, 62, 94
1, 65911, Note_on_c, 0, 64, 91
1, 65965, Note_off_c, 0, 64, 91
1, 66003, Note_on_c, 0, 66, 93
1, 66071, Note_off_c, 0, 66, 93
1, 66090, Note_on_c, 0, 67, 84
1, 66162, Note_off_c, 0, 67, 84
1, 66180, Note_on_c, 0, 69, 98
1, 66269, Note_off_c, 0, 69, 98
1, 66296, Note_on_c, 0, 66, 86
1, 66355, Note_off_c, 0, 66, 86
1, 66380, Note_on_c, 0, 67, 87
1, 66439, Note_off_c, 0, 67, 87
1, 66469, Note_on_c, 0, 69, 93
1, 66541, Note_off_c, 0, 69, 93
1, 66551, Note_on_c, 0, 71, 90
1, 66605, Note_off_c, 0, 71, 90
1, 66617, Note_on_c, 0, 72, 91
1, 66680, Note_off_c, 0, 72, 91
1, 66683, Note_on_c, 0, 73, 98
1, 66724, Note_off_c, 0, 73, 98
1, 66743, Note_on_c, 0, 74, 94
1, 66840, Note_off_c, 0, 74, 94
1, 66871, Note_on_c, 0, 71, 80
1, 66877, Note_off_c, 0, 71, 80
1, 66877, Note_on_c, 0, 71, 94
1, 66934, Note_off_c, 0, 71, 94
1, 66943, Note_on_c, 0, 72, 86
1, 67011, Note_off_c, 0, 72, 86
1, 67044, Note_on_c, 0, 74, 96
1, 67104, Note_off_c, 0, 74, 96
1, 67116, Note_on_c, 0, 76, 90
1, 67195, Note_off_c, 0, 76, 90
1, 67225, Note_on_c, 0, 78, 88
1, 67308, Note_off_c, 0, 78, 88
1, 67326, Note_on_c, 0, 77, 78
1, 67412, Note_off_c, 0, 77, 78
1, 67439, Note_on_c, 0, 77, 87
1, 67510, Note_off_c, 0, 77, 87
1, 68472, Note_on_c, 0, 78, 86
1, 68510, Note_off_c, 0, 78, 86
1, 68525, Note_on_c, 0, 79, 111
1, 68781, Note_off_c, 0, 79, 111
1, 68869, Note_on_c, 0, 73, 109
1, 68949, Note_off_c, 0, 73, 109
1, 68952, Note_on_c, 0, 74, 107
1, 69169, Note_off_c, 0, 74, 107
1, 69261, Note_on_c, 0, 71, 104
1, 69346, Note_off_c, 0, 71, 104
1, 69355, Note_on_c, 0, 72, 103
1, 69473, Note_off_c, 0, 72, 103
1, 69620, Note_on_c, 0, 69, 92
1, 69735, Note_off_c, 0, 69, 92
1, 69751, Note_on_c, 0, 70, 96
1, 69928, Note_off_c, 0, 70, 96
1, 70048, Note_on_c, 0, 69, 102
1, 70247, Note_off_c, 0, 69, 102
1, 70252, Note_on_c, 0, 66, 83
1, 70354, Note_off_c, 0, 66, 83
1, 70354, Note_on_c, 0, 67, 90
1, 70494, Note_off_c, 0, 67, 90
1, 70521, Note_on_c, 0, 62, 100
1, 70695, Note_off_c, 0, 62, 100
1, 70763, Note_on_c, 0, 62, 86
1, 71217, Note_off_c, 0, 62, 86
1, 72019, Note_on_c, 0, 63, 102
1, 72089, Note_off_c, 0, 63, 102
1, 72105, Note_on_c, 0, 64, 104
1, 72405, Note_off_c, 0, 64, 104
1, 72415, Note_on_c, 0, 67, 91
1, 72501, Note_off_c, 0, 67, 91
1, 72514, Note_on_c, 0, 64, 83
1, 72578, Note_off_c, 0, 64, 83
1, 72585, Note_on_c, 0, 66, 85
1, 72667, Note_off_c, 0, 66, 85
1, 72693, Note_on_c, 0, 69, 81
1, 72768, Note_off_c, 0, 69, 81
1, 72775, Note_on_c, 0, 72, 85
1, 72887, Note_off_c, 0, 72, 85
1, 72894, Note_on_c, 0, 74, 97
1, 72953, Note_off_c, 0, 74, 97
1, 72962, Note_on_c, 0, 77, 103
1, 73031, Note_off_c, 0, 77, 103
1, 73038, Note_on_c, 0, 76, 101
1, 73115, Note_off_c, 0, 76, 101
1, 73121, Note_on_c, 0, 75, 104
1, 73154, Note_off_c, 0, 75, 104
1, 73166, Note_on_c, 0, 74, 101
1, 73243, Note_off_c, 0, 74, 101
1, 73243, Note_on_c, 0, 72, 94
1, 73334, Note_off_c, 0, 72, 94
1, 73347, Note_on_c, 0, 71, 91
1, 73423, Note_off_c, 0, 71, 91
1, 73529, Note_on_c, 0, 71, 89
1, 73627, Note_off_c, 0, 71, 89
1, 73731, Note_on_c, 0, 74, 98
1, 73825, Note_off_c, 0, 74, 98
1, 73914, Note_on_c, 0, 74, 96
1, 74024, Note_off_c, 0, 74, 96
1, 74091, Note_on_c, 0, 74, 104
1, 74239, Note_off_c, 0, 74, 104
1, 74276, Note_on_c, 0, 72, 92
1, 74332, Note_off_c, 0, 72, 92
1, 74340, Note_on_c, 0, 71, 93
1, 74415, Note_off_c, 0, 71, 93
1, 74443, Note_on_c, 0, 69, 98
1, 74491, Note_off_c, 0, 69, 98
1, 74494, Note_on_c, 0, 68, 94
1, 74603, Note_off_c, 0, 68, 94
1, 74683, Note_on_c, 0, 71, 94
1, 74783, Note_off_c, 0, 71, 94
1, 74796, Note_on_c, 0, 68, 82
1, 74858, Note_off_c, 0, 68, 82
1, 74874, Note_on_c, 0, 69, 90
1, 74957, Note_off_c, 0, 69, 90
1, 74979, Note_on_c, 0, 71, 99
1, 75038, Note_off_c, 0, 71, 99
1, 75051, Note_on_c, 0, 72, 86
1, 75121, Note_off_c, 0, 72, 86
1, 75133, Note_on_c, 0, 74, 96
1, 75213, Note_off_c, 0, 74, 96
1, 75222, Note_on_c, 0, 76, 100
1, 75307, Note_off_c, 0, 76, 100
1, 75429, Note_on_c, 0, 79, 89
1, 75530, Note_off_c, 0, 79, 89
1, 75590, Note_on_c, 0, 78, 97
1, 75669, Note_off_c, 0, 78, 97
1, 75714, Note_on_c, 0, 76, 96
1, 75782, Note_off_c, 0, 76, 96
1, 75795, Note_on_c, 0, 74, 95
1, 75867, Note_off_c, 0, 74, 95
1, 75901, Note_on_c, 0, 72, 97
1, 75963, Note_off_c, 0, 72, 97
1, 75971, Note_on_c, 0, 71, 83
1, 76041, Note_off_c, 0, 71, 83
1, 76062, Note_on_c, 0, 69, 95
1, 76140, Note_off_c, 0, 69, 95
1, 76157, Note_on_c, 0, 68, 99
1, 76214, Note_off_c, 0, 68, 99
1, 76268, Note_on_c, 0, 66, 83
1, 76340, Note_off_c, 0, 66, 83
1, 76348, Note_on_c, 0, 67, 81
1, 76412, Note_off_c, 0, 67, 81
1, 76437, Note_on_c, 0, 69, 94
1, 76510, Note_on_c, 0, 71, 97
1, 76510, Note_off_c, 0, 69, 94
1, 76584, Note_off_c, 0, 71, 97
1, 76629, Note_on_c, 0, 67, 83
1, 76698, Note_off_c, 0, 67, 83
1, 76708, Note_on_c, 0, 69, 83
1, 76788, Note_off_c, 0, 69, 83
1, 76828, Note_on_c, 0, 71, 93
1, 76907, Note_off_c, 0, 71, 93
1, 76907, Note_on_c, 0, 72, 86
1, 76999, Note_off_c, 0, 72, 86
1, 77027, Note_on_c, 0, 69, 79
1, 77094, Note_off_c, 0, 69, 79
1, 77112, Note_on_c, 0, 71, 89
1, 77203, Note_off_c, 0, 71, 89
1, 77213, Note_on_c, 0, 72, 90
1, 77278, Note_off_c, 0, 72, 90
1, 77303, Note_on_c, 0, 74, 91
1, 77373, Note_off_c, 0, 74, 91
1, 77418, Note_on_c, 0, 71, 76
1, 77496, Note_off_c, 0, 71, 76
1, 77511, Note_on_c, 0, 72, 86
1, 77582, Note_off_c, 0, 72, 86
1, 77594, Note_on_c, 0, 74, 96
1, 77657, Note_off_c, 0, 74, 96
1, 77681, Note_on_c, 0, 76, 83
1, 77760, Note_off_c, 0, 76, 83
1, 77773, Note_on_c, 0, 78, 88
1, 77832, Note_off_c, 0, 78, 88
1, 77851, Note_on_c, 0, 79, 94
1, 77960, Note_off_c, 0, 79, 94
1, 78007, Note_on_c, 0, 67, 97
1, 78079, Note_off_c, 0, 67, 97
1, 78079, End_track
0, 0, End_of_file
