0, 0, Header, 1, 1, 192
1, 0, Start_track
1, 0, Title_t, "Melody"
1, 0, Tempo, 451127
1, 0, Key_signature, -3, "major"
1, 0, Time_signature, 4, 2, 24, 8
1, 1923, Note_on_c, 0, 63, 111
1, 2016, Note_off_c, 0, 63, 111
1, 2130, Note_on_c, 0, 67, 109
1, 2227, Note_off_c, 0, 67, 109
1, 2293, Note_on_c, 0, 68, 114
1, 2376, Note_off_c, 0, 68, 114
1, 2403, Note_on_c, 0, 66, 101
1, 2472, Note_off_c, 0, 66, 101
1, 2498, Note_on_c, 0, 67, 106
1, 2572, Note_off_c, 0, 67, 106
1, 2592, Note_on_c, 0, 63, 107
1, 2663, Note_off_c, 0, 63, 107
1, 2685, Note_on_c, 0, 60, 99
1, 2777, Note_off_c, 0, 60, 99
1, 2902, Note_on_c, 0, 60, 86
1, 3053, Note_off_c, 0, 60, 86
1, 3165, Note_on_c, 0, 66, 113
1, 3281, Note_off_c, 0, 66, 113
1, 3370, Note_on_c, 0, 63, 87
1, 3566, Note_off_c, 0, 63, 87
1, 3643, Note_on_c, 0, 65, 116
1, 3728, Note_off_c, 0, 65, 116
1, 3750, Note_on_c, 0, 63, 107
1, 3806, Note_off_c, 0, 63, 107
1, 3835, Note_on_c, 0, 60, 101
1, 3926, Note_off_c, 0, 60, 101
1, 4009, Note_on_c, 0, 60, 80
1, 4186, Note_off_c, 0, 60, 80
1, 4882, Note_on_c, 0, 66, 119
1, 4907, Note_off_c, 0, 66, 119
1, 4911, Note_on_c, 0, 67, 120
1, 4943, Note_off_c, 0, 67, 120
1, 4949, Note_on_c, 0, 68, 121
1, 5047, Note_off_c, 0, 68, 121
1, 5059, Note_on_c, 0, 66, 114
1, 5126, Note_off_c, 0, 66, 114
1, 5133, Note_on_c, 0, 67, 118
1, 5229, Note_off_c, 0, 67, 118
1, 5242, Note_on_c, 0, 63, 112
1, 5316, Note_off_c, 0, 63, 112
1, 5330, Note_on_c, 0, 60, 109
1, 5406, Note_off_c, 0, 60, 109
1, 5522, Note_on_c, 0, 63, 109
1, 5566, Note_off_c, 0, 63, 109
1, 5576, Note_on_c, 0, 65, 101
1, 5594, Note_off_c, 0, 65, 101
1, 5603, Note_on_c, 0, 63, 104
1, 5631, Note_off_c, 0, 63, 104
1, 5643, Note_on_c, 0, 60, 99
1, 5689, Note_off_c, 0, 60, 99
1, 5717, Note_on_c, 0, 55, 90
1, 5769, Note_off_c, 0, 55, 90
1, 5900, Note_on_c, 0, 60, 92
1, 6074, Note_off_c, 0, 60, 92
1, 6081, Note_on_c, 0, 63, 114
1, 6170, Note_off_c, 0, 63, 114
1, 6187, Note_on_c, 0, 67, 114
1, 6260, Note_off_c, 0, 67, 114
1, 6279, Note_on_c, 0, 63, 110
1, 6364, Note_off_c, 0, 63, 110
1, 6388, Note_on_c, 0, 60, 98
1, 6451, Note_off_c, 0, 60, 98
1, 6470, Note_on_c, 0, 55, 85
1, 6536, Note_off_c, 0, 55, 85
1, 6570, Note_on_c, 0, 59, 104
1, 6632, Note_off_c, 0, 59, 104
1, 6650, Note_on_c, 0, 67, 78
1, 6841, Note_off_c, 0, 67, 78
1, 7210, Note_on_c, 0, 65, 120
1, 7295, Note_off_c, 0, 65, 120
1, 7301, Note_on_c, 0, 63, 119
1, 7381, Note_off_c, 0, 63, 119
1, 7390, Note_on_c, 0, 62, 117
1, 7482, Note_off_c, 0, 62, 117
1, 7502, Note_on_c, 0, 60, 102
1, 7625, Note_off_c, 0, 60, 102
1, 7634, Note_on_c, 0, 56, 77
1, 7695, Note_off_c, 0, 56, 77
1, 7719, Note_on_c, 0, 58, 96
1, 7767, Note_off_c, 0, 58, 96
1, 7778, Note_on_c, 0, 60, 113
1, 7878, Note_off_c, 0, 60, 113
1, 7878, Note_on_c, 0, 62, 112
1, 7953, Note_off_c, 0, 62, 112
1, 7959, Note_on_c, 0, 63, 113
1, 8043, Note_off_c, 0, 63, 113
1, 8068, Note_on_c, 0, 60, 109
1, 8131, Note_off_c, 0, 60, 109
1, 8150, Note_on_c, 0, 62, 107
1, 8183, Note_off_c, 0, 62, 107
1, 8190, Note_on_c, 0, 63, 102
1, 8206, Note_off_c, 0, 63, 102
1, 8218, Note_on_c, 0, 62, 105
1, 8242, Note_off_c, 0, 62, 105
1, 8261, Note_on_c, 0, 60, 99
1, 8319, Note_off_c, 0, 60, 99
1, 8337, Note_on_c, 0, 58, 109
1, 8432, Note_off_c, 0, 58, 109
1, 8450, Note_on_c, 0, 56, 95
1, 8524, Note_off_c, 0, 56, 95
1, 8539, Note_on_c, 0, 55, 91
1, 8629, Note_off_c, 0, 55, 91
1, 8642, Note_on_c, 0, 58, 104
1, 8714, Note_off_c, 0, 58, 104
1, 8733, Note_on_c, 0, 60, 102
1, 8825, Note_off_c, 0, 60, 102
1, 8845, Note_on_c, 0, 63, 100
1, 9080, Note_off_c, 0, 63, 100
1, 9097, Note_on_c, 0, 65, 96
1, 9158, Note_off_c, 0, 65, 96
1, 9165, Note_on_c, 0, 67, 111
1, 9217, Note_off_c, 0, 67, 111
1, 9969, Note_on_c, 0, 67, 121
1, 10041, Note_off_c, 0, 67, 121
1, 10053, Note_on_c, 0, 70, 127
1, 10145, Note_off_c, 0, 70, 127
1, 10155, Note_on_c, 0, 68, 125
1, 10236, Note_off_c, 0, 68, 125
1, 10244, Note_on_c, 0, 67, 121
1, 10336, Note_off_c, 0, 67, 121
1, 10342, Note_on_c, 0, 65, 117
1, 10419, Note_off_c, 0, 65, 117
1, 10428, Note_on_c, 0, 63, 116
1, 10521, Note_off_c, 0, 63, 116
1, 10536, Note_on_c, 0, 62, 110
1, 10619, Note_off_c, 0, 62, 110
1, 10626, Note_on_c, 0, 61, 114
1, 10693, Note_off_c, 0, 61, 114
1, 10756, Note_on_c, 0, 58, 90
1, 10810, Note_off_c, 0, 58, 90
1, 10821, Note_on_c, 0, 60, 111
1, 10922, Note_off_c, 0, 60, 111
1, 10935, Note_on_c, 0, 58, 107
1, 10994, Note_off_c, 0, 58, 107
1, 11013, Note_on_c, 0, 55, 90
1, 11112, Note_off_c, 0, 55, 90
1, 11124, Note_on_c, 0, 53, 103
1, 11200, Note_off_c, 0, 53, 103
1, 11210, Note_on_c, 0, 52, 96
1, 11305, Note_off_c, 0, 52, 96
1, 11321, Note_on_c, 0, 61, 108
1, 11380, Note_off_c, 0, 61, 108
1, 11399, Note_on_c, 0, 60, 97
1, 11485, Note_off_c, 0, 60, 97
1, 11507, Note_on_c, 0, 58, 104
1, 11566, Note_off_c, 0, 58, 104
1, 11574, Note_on_c, 0, 57, 103
1, 11661, Note_off_c, 0, 57, 103
1, 11673, Note_on_c, 0, 55, 98
1, 11695, Note_off_c, 0, 55, 98
1, 11777, Note_on_c, 0, 65, 105
1, 11820, Note_off_c, 0, 65, 105
1, 11822, Note_on_c, 0, 66, 97
1, 11872, Note_off_c, 0, 66, 97
1, 11880, Note_on_c, 0, 63, 93
1, 11957, Note_off_c, 0, 63, 93
1, 11988, Note_on_c, 0, 65, 100
1, 12040, Note_off_c, 0, 65, 100
1, 12047, Note_on_c, 0, 67, 89
1, 12066, Note_off_c, 0, 67, 89
1, 12070, Note_on_c, 0, 65, 92
1, 12088, Note_off_c, 0, 65, 92
1, 12095, Note_on_c, 0, 63, 97
1, 12141, Note_off_c, 0, 63, 97
1, 12155, Note_on_c, 0, 60, 96
1, 12250, Note_off_c, 0, 60, 96
1, 12549, Note_on_c, 0, 60, 109
1, 12595, Note_off_c, 0, 60, 109
1, 12607, Note_on_c, 0, 63, 114
1, 12656, Note_off_c, 0, 63, 114
1, 12668, Note_on_c, 0, 65, 116
1, 12717, Note_off_c, 0, 65, 116
1, 12728, Note_on_c, 0, 66, 118
1, 12820, Note_off_c, 0, 66, 118
1, 12833, Note_on_c, 0, 67, 120
1, 12919, Note_off_c, 0, 67, 120
1, 12931, Note_on_c, 0, 68, 122
1, 13006, Note_off_c, 0, 68, 122
1, 13025, Note_on_c, 0, 69, 123
1, 13102, Note_off_c, 0, 69, 123
1, 13108, Note_on_c, 0, 70, 123
1, 13202, Note_off_c, 0, 70, 123
1, 13217, Note_on_c, 0, 63, 115
1, 13292, Note_off_c, 0, 63, 115
1, 13305, Note_on_c, 0, 60, 94
1, 13402, Note_off_c, 0, 60, 94
1, 13426, Note_on_c, 0, 57, 74
1, 13467, Note_off_c, 0, 57, 74
1, 13509, Note_on_c, 0, 61, 108
1, 13673, Note_off_c, 0, 61, 108
1, 13712, Note_on_c, 0, 62, 107
1, 13834, Note_off_c, 0, 62, 107
1, 13846, Note_on_c, 0, 63, 94
1, 14019, Note_off_c, 0, 63, 94
1, 14180, Note_on_c, 0, 61, 113
1, 14218, Note_off_c, 0, 61, 113
1, 14228, Note_on_c, 0, 63, 115
1, 14662, Note_off_c, 0, 63, 115
1, 14684, Note_on_c, 0, 61, 112
1, 14709, Note_off_c, 0, 61, 112
1, 14723, Note_on_c, 0, 63, 109
1, 14756, Note_off_c, 0, 63, 109
1, 14771, Note_on_c, 0, 60, 108
1, 14828, Note_off_c, 0, 60, 108
1, 14892, Note_on_c, 0, 60, 103
1, 14911, Note_off_c, 0, 60, 103
1, 14918, Note_on_c, 0, 62, 113
1, 14951, Note_off_c, 0, 62, 113
1, 14960, Note_on_c, 0, 63, 106
1, 15008, Note_off_c, 0, 63, 106
1, 15019, Note_on_c, 0, 62, 99
1, 15061, Note_off_c, 0, 62, 99
1, 15072, Note_on_c, 0, 60, 101
1, 15164, Note_off_c, 0, 60, 101
1, 15632, Note_on_c, 0, 54, 106
1, 15670, Note_off_c, 0, 54, 106
1, 15692, Note_on_c, 0, 58, 105
1, 15725, Note_off_c, 0, 58, 105
1, 15731, Note_on_c, 0, 60, 111
1, 15777, Note_off_c, 0, 60, 111
1, 15823, Note_on_c, 0, 62, 113
1, 15906, Note_off_c, 0, 62, 113
1, 15906, Note_on_c, 0, 60, 102
1, 15939, Note_off_c, 0, 60, 102
1, 15941, Note_on_c, 0, 58, 96
1, 15977, Note_off_c, 0, 58, 96
1, 15982, Note_on_c, 0, 54, 104
1, 16108, Note_off_c, 0, 54, 104
1, 16217, Note_on_c, 0, 53, 95
1, 16321, Note_off_c, 0, 53, 95
1, 16337, Note_on_c, 0, 58, 98
1, 16387, Note_off_c, 0, 58, 98
1, 16399, Note_on_c, 0, 60, 111
1, 16455, Note_off_c, 0, 60, 111
1, 16461, Note_on_c, 0, 61, 102
1, 16486, Note_off_c, 0, 61, 102
1, 16490, Note_on_c, 0, 62, 109
1, 16525, Note_off_c, 0, 62, 109
1, 16529, Note_on_c, 0, 63, 110
1, 16573, Note_off_c, 0, 63, 110
1, 16585, Note_on_c, 0, 62, 108
1, 16696, Note_off_c, 0, 62, 108
1, 16709, Note_on_c, 0, 60, 89
1, 16937, Note_off_c, 0, 60, 89
1, 16957, Note_on_c, 0, 60, 88
1, 17144, Note_off_c, 0, 60, 88
1, 17336, Note_on_c, 0, 69, 123
1, 17392, Note_off_c, 0, 69, 123
1, 17411, Note_on_c, 0, 72, 126
1, 17784, Note_off_c, 0, 72, 126
1, 17826, Note_on_c, 0, 68, 122
1, 17892, Note_off_c, 0, 68, 122
1, 17900, Note_on_c, 0, 67, 121
1, 17937, Note_off_c, 0, 67, 121
1, 17942, Note_on_c, 0, 69, 106
1, 17953, Note_off_c, 0, 69, 106
1, 17956, Note_on_c, 0, 67, 117
1, 18008, Note_off_c, 0, 67, 117
1, 18020, Note_on_c, 0, 66, 112
1, 18062, Note_off_c, 0, 66, 112
1, 18076, Note_on_c, 0, 65, 111
1, 18191, Note_off_c, 0, 65, 111
1, 18241, Note_on_c, 0, 60, 99
1, 18302, Note_off_c, 0, 60, 99
1, 18314, Note_on_c, 0, 62, 105
1, 18373, Note_off_c, 0, 62, 105
1, 18376, Note_on_c, 0, 63, 101
1, 18404, Note_off_c, 0, 63, 101
1, 18408, Note_on_c, 0, 62, 98
1, 18430, Note_off_c, 0, 62, 98
1, 18462, Note_on_c, 0, 60, 98
1, 18500, Note_off_c, 0, 60, 98
1, 18507, Note_on_c, 0, 62, 94
1, 18686, Note_off_c, 0, 62, 94
1, 18877, Note_on_c, 0, 68, 121
1, 18962, Note_off_c, 0, 68, 121
1, 18972, Note_on_c, 0, 70, 125
1, 19143, Note_off_c, 0, 70, 125
1, 19153, Note_on_c, 0, 68, 110
1, 19172, Note_off_c, 0, 68, 110
1, 19175, Note_on_c, 0, 70, 115
1, 19198, Note_off_c, 0, 70, 115
1, 19200, Note_on_c, 0, 68, 119
1, 19244, Note_off_c, 0, 68, 119
1, 19256, Note_on_c, 0, 67, 119
1, 19362, Note_off_c, 0, 67, 119
1, 19391, Note_on_c, 0, 70, 121
1, 19564, Note_off_c, 0, 70, 121
1, 19573, Note_on_c, 0, 69, 108
1, 19587, Note_off_c, 0, 69, 108
1, 19594, Note_on_c, 0, 67, 117
1, 19631, Note_off_c, 0, 67, 117
1, 19639, Note_on_c, 0, 66, 112
1, 19757, Note_off_c, 0, 66, 112
1, 19776, Note_on_c, 0, 70, 121
1, 19845, Note_off_c, 0, 70, 121
1, 20154, Note_on_c, 0, 65, 116
1, 20213, Note_off_c, 0, 65, 116
1, 20226, Note_on_c, 0, 63, 113
1, 20319, Note_off_c, 0, 63, 113
1, 20330, Note_on_c, 0, 60, 108
1, 20376, Note_off_c, 0, 60, 108
1, 20382, Note_on_c, 0, 61, 115
1, 20413, Note_off_c, 0, 61, 115
1, 20417, Note_on_c, 0, 62, 113
1, 20520, Note_off_c, 0, 62, 113
1, 20541, Note_on_c, 0, 59, 108
1, 20609, Note_off_c, 0, 59, 108
1, 20621, Note_on_c, 0, 58, 101
1, 20711, Note_off_c, 0, 58, 101
1, 20734, Note_on_c, 0, 56, 101
1, 20798, Note_off_c, 0, 56, 101
1, 20820, Note_on_c, 0, 55, 97
1, 20936, Note_off_c, 0, 55, 97
1, 21002, Note_on_c, 0, 63, 114
1, 21101, Note_off_c, 0, 63, 114
1, 21124, Note_on_c, 0, 66, 113
1, 21249, Note_off_c, 0, 66, 113
1, 21256, Note_on_c, 0, 67, 110
1, 21362, Note_off_c, 0, 67, 110
1, 21388, Note_on_c, 0, 63, 105
1, 21517, Note_off_c, 0, 63, 105
1, 21592, Note_on_c, 0, 63, 95
1, 21765, Note_off_c, 0, 63, 95
1, 21787, Note_on_c, 0, 60, 96
1, 21872, Note_off_c, 0, 60, 96
1, 22495, Note_on_c, 0, 55, 100
1, 22525, Note_off_c, 0, 55, 100
1, 22535, Note_on_c, 0, 59, 110
1, 22558, Note_off_c, 0, 59, 110
1, 22565, Note_on_c, 0, 60, 111
1, 22611, Note_off_c, 0, 60, 111
1, 22624, Note_on_c, 0, 62, 109
1, 22676, Note_off_c, 0, 62, 109
1, 22680, Note_on_c, 0, 63, 109
1, 22726, Note_off_c, 0, 63, 109
1, 22736, Note_on_c, 0, 65, 108
1, 22749, Note_off_c, 0, 65, 108
1, 22755, Note_on_c, 0, 67, 117
1, 22793, Note_off_c, 0, 67, 117
1, 22798, Note_on_c, 0, 65, 116
1, 22838, Note_off_c, 0, 65, 116
1, 22847, Note_on_c, 0, 64, 113
1, 22873, Note_off_c, 0, 64, 113
1, 22878, Note_on_c, 0, 63, 112
1, 22907, Note_off_c, 0, 63, 112
1, 22913, Note_on_c, 0, 62, 113
1, 22939, Note_off_c, 0, 62, 113
1, 22944, Note_on_c, 0, 60, 105
1, 23055, Note_off_c, 0, 60, 105
1, 23064, Note_on_c, 0, 57, 105
1, 23084, Note_off_c, 0, 57, 105
1, 23092, Note_on_c, 0, 58, 112
1, 23117, Note_off_c, 0, 58, 112
1, 23127, Note_on_c, 0, 60, 108
1, 23146, Note_off_c, 0, 60, 108
1, 23152, Note_on_c, 0, 64, 108
1, 23185, Note_off_c, 0, 64, 108
1, 23193, Note_on_c, 0, 73, 109
1, 23239, Note_off_c, 0, 73, 109
1, 23247, Note_on_c, 0, 72, 122
1, 23299, Note_off_c, 0, 72, 122
1, 23305, Note_on_c, 0, 73, 117
1, 23357, Note_off_c, 0, 73, 117
1, 23367, Note_on_c, 0, 74, 115
1, 23614, Note_off_c, 0, 74, 115
1, 23616, Note_on_c, 0, 73, 118
1, 23672, Note_off_c, 0, 73, 118
1, 23692, Note_on_c, 0, 67, 107
1, 23797, Note_off_c, 0, 67, 107
1, 23902, Note_on_c, 0, 67, 96
1, 24069, Note_off_c, 0, 67, 96
1, 24105, Note_on_c, 0, 63, 104
1, 24198, Note_off_c, 0, 63, 104
1, 24492, Note_on_c, 0, 55, 113
1, 24532, Note_off_c, 0, 55, 113
1, 24547, Note_on_c, 0, 58, 109
1, 24576, Note_off_c, 0, 58, 109
1, 24582, Note_on_c, 0, 60, 113
1, 24633, Note_off_c, 0, 60, 113
1, 24669, Note_on_c, 0, 62, 117
1, 24771, Note_off_c, 0, 62, 117
1, 24786, Note_on_c, 0, 63, 119
1, 24863, Note_off_c, 0, 63, 119
1, 24869, Note_on_c, 0, 65, 117
1, 24958, Note_off_c, 0, 65, 117
1, 24981, Note_on_c, 0, 66, 118
1, 25055, Note_off_c, 0, 66, 118
1, 25058, Note_on_c, 0, 67, 121
1, 25157, Note_off_c, 0, 67, 121
1, 25169, Note_on_c, 0, 68, 122
1, 25254, Note_off_c, 0, 68, 122
1, 25270, Note_on_c, 0, 67, 117
1, 25302, Note_off_c, 0, 67, 117
1, 25312, Note_on_c, 0, 66, 95
1, 25362, Note_off_c, 0, 66, 95
1, 25376, Note_on_c, 0, 63, 100
1, 25431, Note_off_c, 0, 63, 100
1, 25464, Note_on_c, 0, 66, 117
1, 25497, Note_off_c, 0, 66, 117
1, 25502, Note_on_c, 0, 67, 10
1, 25543, Note_off_c, 0, 67, 10
1, 25569, Note_on_c, 0, 63, 122
1, 25640, Note_off_c, 0, 63, 122
1, 25657, Note_on_c, 0, 63, 115
1, 25743, Note_off_c, 0, 63, 115
1, 25833, Note_on_c, 0, 63, 108
1, 26023, Note_off_c, 0, 63, 108
1, 26183, Note_on_c, 0, 58, 113
1, 26228, Note_off_c, 0, 58, 113
1, 26246, Note_on_c, 0, 61, 113
1, 26345, Note_off_c, 0, 61, 113
1, 26354, Note_on_c, 0, 62, 117
1, 26417, Note_off_c, 0, 62, 117
1, 26417, End_track
0, 0, End_of_file
