0, 0, Header, 1, 1, 27720
1, 0, Start_track
1, 0, Title_t, "Melody"
1, 0, Tempo, 631578
1, 0, Key_signature, -5, "major"
1, 0, Time_signature, 4, 2, 24, 8
1, 468592, Note_on_c, 0, 51, 100
1, 480821, Note_off_c, 0, 51, 100
1, 480821, Note_on_c, 0, 51, 96
1, 493560, Note_off_c, 0, 51, 96
1, 493560, Note_on_c, 0, 51, 94
1, 509865, Note_off_c, 0, 51, 94
1, 540693, Note_on_c, 0, 51, 104
1, 549100, Note_off_c, 0, 51, 104
1, 550628, Note_on_c, 0, 53, 99
1, 556996, Note_off_c, 0, 53, 99
1, 556996, Note_on_c, 0, 54, 111
1, 565658, Note_off_c, 0, 54, 111
1, 566717, Note_on_c, 0, 53, 108
1, 567971, Note_off_c, 0, 53, 108
1, 568150, Note_on_c, 0, 54, 108
1, 569404, Note_off_c, 0, 54, 108
1, 571016, Note_on_c, 0, 53, 97
1, 604874, Note_off_c, 0, 53, 97
1, 612935, Note_on_c, 0, 51, 96
1, 620960, Note_off_c, 0, 51, 96
1, 628841, Note_on_c, 0, 58, 101
1, 644127, Note_off_c, 0, 58, 101
1, 644381, Note_on_c, 0, 58, 101
1, 656865, Note_off_c, 0, 58, 101
1, 658649, Note_on_c, 0, 58, 92
1, 680560, Note_off_c, 0, 58, 92
1, 711641, Note_on_c, 0, 50, 97
1, 719284, Note_off_c, 0, 50, 97
1, 719540, Note_on_c, 0, 57, 100
1, 727310, Note_off_c, 0, 57, 100
1, 727310, Note_on_c, 0, 50, 89
1, 734925, Note_off_c, 0, 50, 89
1, 734925, Note_on_c, 0, 56, 93
1, 742269, Note_off_c, 0, 56, 93
1, 745672, Note_on_c, 0, 49, 82
1, 757901, Note_off_c, 0, 49, 82
1, 792912, Note_on_c, 0, 58, 112
1, 800555, Note_off_c, 0, 58, 112
1, 801065, Note_on_c, 0, 56, 107
1, 807944, Note_off_c, 0, 56, 107
1, 808706, Note_on_c, 0, 53, 102
1, 828578, Note_off_c, 0, 53, 102
1, 829087, Note_on_c, 0, 56, 109
1, 840297, Note_off_c, 0, 56, 109
1, 841064, Note_on_c, 0, 58, 109
1, 846669, Note_off_c, 0, 58, 109
1, 848195, Note_on_c, 0, 60, 119
1, 855481, Note_off_c, 0, 60, 119
1, 855481, Note_on_c, 0, 63, 103
1, 892384, Note_off_c, 0, 63, 103
1, 896605, Note_on_c, 0, 61, 99
1, 905009, Note_off_c, 0, 61, 99
1, 905818, Note_on_c, 0, 60, 109
1, 935376, Note_off_c, 0, 60, 109
1, 936809, Note_on_c, 0, 61, 105
1, 938421, Note_off_c, 0, 61, 105
1, 939316, Note_on_c, 0, 62, 105
1, 942003, Note_off_c, 0, 62, 105
1, 943615, Note_on_c, 0, 63, 100
1, 955617, Note_off_c, 0, 63, 100
1, 959020, Note_on_c, 0, 58, 87
1, 988399, Note_off_c, 0, 58, 87
1, 1019149, Note_on_c, 0, 58, 109
1, 1027008, Note_off_c, 0, 58, 109
1, 1027008, Note_on_c, 0, 58, 106
1, 1028316, Note_off_c, 0, 58, 106
1, 1028316, Note_on_c, 0, 60, 119
1, 1033921, Note_off_c, 0, 60, 119
1, 1033924, Note_on_c, 0, 61, 109
1, 1039015, Note_off_c, 0, 61, 109
1, 1042837, Note_on_c, 0, 61, 104
1, 1051754, Note_off_c, 0, 61, 104
1, 1052169, Note_on_c, 0, 58, 99
1, 1053960, Note_off_c, 0, 58, 99
1, 1054318, Note_on_c, 0, 61, 104
1, 1056331, Note_off_c, 0, 61, 104
1, 1057004, Note_on_c, 0, 58, 105
1, 1061124, Note_off_c, 0, 58, 105
1, 1066530, Note_on_c, 0, 54, 110
1, 1073918, Note_off_c, 0, 54, 110
1, 1074946, Note_on_c, 0, 51, 94
1, 1078684, Note_off_c, 0, 51, 94
1, 1082261, Note_on_c, 0, 53, 90
1, 1119164, Note_off_c, 0, 53, 90
1, 1125740, Note_on_c, 0, 48, 106
1, 1133435, Note_off_c, 0, 48, 106
1, 1135286, Note_on_c, 0, 51, 102
1, 1139048, Note_off_c, 0, 51, 102
1, 1139943, Note_on_c, 0, 53, 98
1, 1145045, Note_off_c, 0, 53, 98
1, 1145495, Note_on_c, 0, 57, 102
1, 1150894, Note_off_c, 0, 57, 102
1, 1151623, Note_on_c, 0, 60, 94
1, 1159094, Note_off_c, 0, 60, 94
1, 1159467, Note_on_c, 0, 51, 86
1, 1176843, Note_off_c, 0, 51, 86
1, 1214104, Note_on_c, 0, 49, 103
1, 1219120, Note_off_c, 0, 49, 103
1, 1221173, Note_on_c, 0, 51, 102
1, 1227286, Note_off_c, 0, 51, 102
1, 1227286, Note_on_c, 0, 53, 103
1, 1235438, Note_off_c, 0, 53, 103
1, 1237731, Note_on_c, 0, 56, 110
1, 1246903, Note_off_c, 0, 56, 110
1, 1247243, Note_on_c, 0, 54, 100
1, 1264082, Note_off_c, 0, 54, 100
1, 1269835, Note_on_c, 0, 49, 95
1, 1277223, Note_off_c, 0, 49, 95
1, 1277337, Note_on_c, 0, 52, 100
1, 1281099, Note_off_c, 0, 52, 100
1, 1282352, Note_on_c, 0, 53, 102
1, 1287368, Note_off_c, 0, 53, 102
1, 1290123, Note_on_c, 0, 56, 99
1, 1296747, Note_off_c, 0, 56, 99
1, 1297205, Note_on_c, 0, 49, 84
1, 1323702, Note_off_c, 0, 49, 84
1, 1324627, Note_on_c, 0, 51, 102
1, 1334053, Note_off_c, 0, 51, 102
1, 1334962, Note_on_c, 0, 53, 103
1, 1340322, Note_off_c, 0, 53, 103
1, 1340322, Note_on_c, 0, 56, 101
1, 1351011, Note_off_c, 0, 56, 101
1, 1351011, Note_on_c, 0, 59, 96
1, 1355379, Note_off_c, 0, 59, 96
1, 1359377, Note_on_c, 0, 50, 84
1, 1378545, Note_off_c, 0, 50, 84
1, 1381532, Note_on_c, 0, 51, 111
1, 1390242, Note_off_c, 0, 51, 111
1, 1390242, Note_on_c, 0, 53, 105
1, 1395157, Note_off_c, 0, 53, 105
1, 1397532, Note_on_c, 0, 56, 108
1, 1402189, Note_off_c, 0, 56, 108
1, 1404338, Note_on_c, 0, 59, 97
1, 1407920, Note_off_c, 0, 59, 97
1, 1410786, Note_on_c, 0, 51, 80
1, 1448764, Note_off_c, 0, 51, 80
1, 1476100, Note_on_c, 0, 53, 107
1, 1482979, Note_off_c, 0, 53, 107
1, 1482981, Note_on_c, 0, 54, 118
1, 1491385, Note_off_c, 0, 54, 118
1, 1491385, Note_on_c, 0, 58, 104
1, 1497244, Note_off_c, 0, 58, 104
1, 1497308, Note_on_c, 0, 60, 117
1, 1504315, Note_off_c, 0, 60, 117
1, 1504504, Note_on_c, 0, 65, 99
1, 1511510, Note_off_c, 0, 65, 99
1, 1511510, Note_on_c, 0, 63, 111
1, 1518389, Note_off_c, 0, 63, 111
1, 1518391, Note_on_c, 0, 60, 116
1, 1524250, Note_off_c, 0, 60, 116
1, 1525776, Note_on_c, 0, 58, 103
1, 1531126, Note_off_c, 0, 58, 103
1, 1532953, Note_on_c, 0, 54, 104
1, 1538319, Note_off_c, 0, 54, 104
1, 1539401, Note_on_c, 0, 48, 105
1, 1544751, Note_off_c, 0, 48, 105
1, 1548357, Note_on_c, 0, 46, 101
1, 1564424, Note_off_c, 0, 46, 101
1, 1579274, Note_on_c, 0, 58, 97
1, 1587426, Note_off_c, 0, 58, 97
1, 1589977, Note_on_c, 0, 48, 103
1, 1602461, Note_off_c, 0, 48, 103
1, 1611412, Note_on_c, 0, 57, 100
1, 1617682, Note_off_c, 0, 57, 100
1, 1621085, Note_on_c, 0, 48, 103
1, 1633569, Note_off_c, 0, 48, 103
1, 1637745, Note_on_c, 0, 56, 99
1, 1644194, Note_off_c, 0, 56, 99
1, 1644910, Note_on_c, 0, 49, 85
1, 1653233, Note_off_c, 0, 49, 85
1, 1658644, Note_on_c, 0, 53, 82
1, 1679451, Note_off_c, 0, 53, 82
1, 1720149, Note_on_c, 0, 56, 115
1, 1725692, Note_off_c, 0, 56, 115
1, 1728926, Note_on_c, 0, 58, 112
1, 1736567, Note_off_c, 0, 58, 112
1, 1737231, Note_on_c, 0, 60, 120
1, 1743600, Note_off_c, 0, 60, 120
1, 1744367, Note_on_c, 0, 63, 125
1, 1752010, Note_off_c, 0, 63, 125
1, 1752570, Note_on_c, 0, 60, 118
1, 1756646, Note_off_c, 0, 60, 118
1, 1758379, Note_on_c, 0, 63, 122
1, 1767805, Note_off_c, 0, 63, 122
1, 1768153, Note_on_c, 0, 60, 115
1, 1771377, Note_off_c, 0, 60, 115
1, 1772630, Note_on_c, 0, 63, 125
1, 1778900, Note_off_c, 0, 63, 125
1, 1781228, Note_on_c, 0, 61, 107
1, 1790654, Note_off_c, 0, 61, 107
1, 1794662, Note_on_c, 0, 56, 97
1, 1796990, Note_off_c, 0, 56, 97
1, 1797885, Note_on_c, 0, 58, 100
1, 1800393, Note_off_c, 0, 58, 100
1, 1801647, Note_on_c, 0, 60, 110
1, 1823144, Note_off_c, 0, 60, 110
1, 1823860, Note_on_c, 0, 62, 100
1, 1825830, Note_off_c, 0, 62, 100
1, 1828177, Note_on_c, 0, 63, 91
1, 1846776, Note_off_c, 0, 63, 91
1, 1847326, Note_on_c, 0, 58, 82
1, 1870435, Note_off_c, 0, 58, 82
1, 1909706, Note_on_c, 0, 58, 112
1, 1917044, Note_off_c, 0, 58, 112
1, 1917044, Note_on_c, 0, 58, 115
1, 1917859, Note_off_c, 0, 58, 115
1, 1917859, Note_on_c, 0, 60, 121
1, 1923209, Note_off_c, 0, 60, 121
1, 1924175, Note_on_c, 0, 61, 106
1, 1929370, Note_off_c, 0, 61, 106
1, 1931698, Note_on_c, 0, 63, 111
1, 1938067, Note_off_c, 0, 63, 111
1, 1939758, Note_on_c, 0, 65, 103
1, 1944089, Note_off_c, 0, 65, 103
1, 1947152, Note_on_c, 0, 63, 107
1, 1953266, Note_off_c, 0, 63, 107
1, 1954033, Note_on_c, 0, 61, 97
1, 1960910, Note_off_c, 0, 61, 97
1, 1960910, Note_on_c, 0, 60, 105
1, 1967279, Note_off_c, 0, 60, 105
1, 1967791, Note_on_c, 0, 58, 93
1, 1979256, Note_off_c, 0, 58, 93
1, 1981495, Note_on_c, 0, 57, 89
1, 1998526, Note_off_c, 0, 57, 89
1, 2004306, Note_on_c, 0, 51, 100
1, 2011609, Note_off_c, 0, 51, 100
1, 2011609, Note_on_c, 0, 54, 115
1, 2018486, Note_off_c, 0, 54, 115
1, 2018486, Note_on_c, 0, 57, 111
1, 2025110, Note_off_c, 0, 57, 111
1, 2025876, Note_on_c, 0, 60, 115
1, 2032245, Note_off_c, 0, 60, 115
1, 2032924, Note_on_c, 0, 63, 104
1, 2039293, Note_off_c, 0, 63, 104
1, 2039971, Note_on_c, 0, 66, 98
1, 2046340, Note_off_c, 0, 66, 98
1, 2046697, Note_on_c, 0, 65, 96
1, 2051792, Note_off_c, 0, 65, 96
1, 2052877, Note_on_c, 0, 63, 105
1, 2059501, Note_off_c, 0, 63, 105
1, 2059503, Note_on_c, 0, 60, 109
1, 2065362, Note_off_c, 0, 60, 109
1, 2065682, Note_on_c, 0, 57, 101
1, 2076430, Note_off_c, 0, 57, 101
1, 2078938, Note_on_c, 0, 58, 93
1, 2099320, Note_off_c, 0, 58, 93
1, 2113512, Note_on_c, 0, 61, 114
1, 2122174, Note_off_c, 0, 61, 114
1, 2124466, Note_on_c, 0, 61, 106
1, 2130835, Note_off_c, 0, 61, 106
1, 2131092, Note_on_c, 0, 65, 112
1, 2138988, Note_off_c, 0, 65, 112
1, 2138988, Note_on_c, 0, 61, 104
1, 2144592, Note_off_c, 0, 61, 104
1, 2144592, Note_on_c, 0, 62, 117
1, 2152921, Note_on_c, 0, 56, 113
1, 2152921, Note_off_c, 0, 62, 117
1, 2156682, Note_off_c, 0, 56, 113
1, 2158652, Note_on_c, 0, 54, 103
1, 2167314, Note_off_c, 0, 54, 103
1, 2167966, Note_on_c, 0, 49, 94
1, 2172444, Note_off_c, 0, 49, 94
1, 2174951, Note_on_c, 0, 50, 96
1, 2180504, Note_off_c, 0, 50, 96
1, 2180862, Note_on_c, 0, 53, 96
1, 2184803, Note_off_c, 0, 53, 96
1, 2185698, Note_on_c, 0, 54, 110
1, 2192863, Note_off_c, 0, 54, 110
1, 2194475, Note_on_c, 0, 56, 101
1, 2200924, Note_off_c, 0, 56, 101
1, 2201461, Note_on_c, 0, 53, 86
1, 2224033, Note_off_c, 0, 53, 86
1, 2244813, Note_on_c, 0, 56, 115
1, 2247679, Note_off_c, 0, 56, 115
1, 2248753, Note_on_c, 0, 57, 106
1, 2266309, Note_off_c, 0, 57, 106
1, 2270446, Note_on_c, 0, 64, 103
1, 2278089, Note_off_c, 0, 64, 103
1, 2278595, Note_on_c, 0, 61, 107
1, 2283181, Note_off_c, 0, 61, 107
1, 2283945, Note_on_c, 0, 57, 112
1, 2290314, Note_off_c, 0, 57, 112
1, 2290889, Note_on_c, 0, 54, 108
1, 2297258, Note_off_c, 0, 54, 108
1, 2297833, Note_on_c, 0, 52, 99
1, 2304202, Note_off_c, 0, 52, 99
1, 2304777, Note_on_c, 0, 49, 86
1, 2311146, Note_off_c, 0, 49, 86
1, 2311721, Note_on_c, 0, 50, 92
1, 2318090, Note_off_c, 0, 50, 92
1, 2318665, Note_on_c, 0, 54, 105
1, 2325034, Note_off_c, 0, 54, 105
1, 2325610, Note_on_c, 0, 57, 108
1, 2331979, Note_off_c, 0, 57, 108
1, 2332554, Note_on_c, 0, 62, 104
1, 2338923, Note_off_c, 0, 62, 104
1, 2339498, Note_on_c, 0, 59, 98
1, 2345867, Note_off_c, 0, 59, 98
1, 2346442, Note_on_c, 0, 54, 106
1, 2352811, Note_off_c, 0, 54, 106
1, 2353386, Note_on_c, 0, 57, 68
1, 2404342, Note_off_c, 0, 57, 68
1, 2408944, Note_on_c, 0, 69, 127
1, 2416077, Note_off_c, 0, 69, 127
1, 2416333, Note_on_c, 0, 66, 113
1, 2423210, Note_off_c, 0, 66, 113
1, 2424121, Note_on_c, 0, 64, 111
1, 2428241, Note_off_c, 0, 64, 111
1, 2429136, Note_on_c, 0, 62, 117
1, 2433972, Note_off_c, 0, 62, 117
1, 2436480, Note_on_c, 0, 64, 112
1, 2442212, Note_off_c, 0, 64, 112
1, 2443286, Note_on_c, 0, 61, 107
1, 2448839, Note_off_c, 0, 61, 107
1, 2449555, Note_on_c, 0, 62, 115
1, 2456004, Note_off_c, 0, 62, 115
1, 2457258, Note_on_c, 0, 64, 97
1, 2462632, Note_off_c, 0, 64, 97
1, 2464244, Note_on_c, 0, 62, 106
1, 2470334, Note_off_c, 0, 62, 106
1, 2471050, Note_on_c, 0, 58, 93
1, 2487352, Note_off_c, 0, 58, 93
1, 2492188, Note_on_c, 0, 64, 99
1, 2497741, Note_off_c, 0, 64, 99
1, 2498457, Note_on_c, 0, 62, 109
1, 2503652, Note_off_c, 0, 62, 109
1, 2504010, Note_on_c, 0, 58, 98
1, 2510996, Note_off_c, 0, 58, 98
1, 2511891, Note_on_c, 0, 55, 101
1, 2515653, Note_off_c, 0, 55, 101
1, 2517265, Note_on_c, 0, 57, 93
1, 2540732, Note_off_c, 0, 57, 93
1, 2544135, Note_on_c, 0, 54, 108
1, 2552913, Note_off_c, 0, 54, 108
1, 2553271, Note_on_c, 0, 50, 89
1, 2557391, Note_off_c, 0, 50, 89
1, 2558107, Note_on_c, 0, 57, 102
1, 2565451, Note_off_c, 0, 57, 102
1, 2566525, Note_on_c, 0, 55, 98
1, 2584797, Note_off_c, 0, 55, 98
1, 2588738, Note_on_c, 0, 52, 96
1, 2593933, Note_off_c, 0, 52, 96
1, 2596082, Note_on_c, 0, 55, 106
1, 2601098, Note_off_c, 0, 55, 106
1, 2603247, Note_on_c, 0, 57, 107
1, 2608800, Note_off_c, 0, 57, 107
1, 2610233, Note_on_c, 0, 64, 77
1, 2626355, Note_off_c, 0, 64, 77
1, 2629758, Note_on_c, 0, 62, 95
1, 2651792, Note_off_c, 0, 62, 95
1, 2673130, Note_on_c, 0, 57, 114
1, 2680955, Note_off_c, 0, 57, 114
1, 2687081, Note_on_c, 0, 51, 111
1, 2690843, Note_off_c, 0, 51, 111
1, 2691917, Note_on_c, 0, 50, 103
1, 2699082, Note_off_c, 0, 50, 103
1, 2701052, Note_on_c, 0, 55, 113
1, 2705172, Note_off_c, 0, 55, 113
1, 2708038, Note_on_c, 0, 57, 9
1, 2711800, Note_off_c, 0, 57, 9
1, 2713233, Note_on_c, 0, 63, 111
1, 2718428, Note_off_c, 0, 63, 111
1, 2719682, Note_on_c, 0, 62, 96
1, 2737954, Note_off_c, 0, 62, 96
1, 2741404, Note_on_c, 0, 55, 99
1, 2748283, Note_off_c, 0, 55, 99
1, 2748285, Note_on_c, 0, 53, 94
1, 2753125, Note_off_c, 0, 53, 94
1, 2755149, Note_on_c, 0, 51, 90
1, 2759989, Note_off_c, 0, 51, 90
1, 2762180, Note_on_c, 0, 50, 89
1, 2767020, Note_off_c, 0, 50, 89
1, 2769127, Note_on_c, 0, 57, 91
1, 2773967, Note_off_c, 0, 57, 91
1, 2776073, Note_on_c, 0, 50, 83
1, 2780913, Note_off_c, 0, 50, 83
1, 2783020, Note_on_c, 0, 53, 77
1, 2812065, Note_off_c, 0, 53, 77
1, 2824711, Note_on_c, 0, 55, 104
1, 2831334, Note_off_c, 0, 55, 104
1, 2831334, Note_on_c, 0, 57, 103
1, 2837958, Note_off_c, 0, 57, 103
1, 2838465, Note_on_c, 0, 59, 95
1, 2845598, Note_off_c, 0, 59, 95
1, 2847382, Note_on_c, 0, 62, 106
1, 2856044, Note_off_c, 0, 62, 106
1, 2857317, Note_on_c, 0, 64, 92
1, 2863686, Note_off_c, 0, 64, 92
1, 2864704, Note_on_c, 0, 62, 102
1, 2871073, Note_off_c, 0, 62, 102
1, 2871075, Note_on_c, 0, 64, 89
1, 2877443, Note_off_c, 0, 64, 89
1, 2877443, Note_on_c, 0, 62, 94
1, 2893239, Note_off_c, 0, 62, 94
1, 2899861, Note_on_c, 0, 59, 96
1, 2906485, Note_off_c, 0, 59, 96
1, 2906742, Note_on_c, 0, 62, 105
1, 2911837, Note_off_c, 0, 62, 105
1, 2911837, Note_on_c, 0, 60, 105
1, 2918970, Note_off_c, 0, 60, 105
1, 2919405, Note_on_c, 0, 55, 96
1, 2924958, Note_off_c, 0, 55, 96
1, 2927645, Note_on_c, 0, 53, 92
1, 2931944, Note_off_c, 0, 53, 92
1, 2932481, Note_on_c, 0, 50, 90
1, 2939614, Note_off_c, 0, 50, 90
1, 2940899, Note_on_c, 0, 51, 81
1, 2946810, Note_off_c, 0, 51, 81
1, 2947705, Note_on_c, 0, 59, 92
1, 2952900, Note_off_c, 0, 59, 92
1, 2954512, Note_on_c, 0, 57, 90
1, 2968306, Note_off_c, 0, 57, 90
1, 2991594, Note_on_c, 0, 60, 86
1, 3018107, Note_off_c, 0, 60, 86
1, 3022585, Note_on_c, 0, 58, 91
1, 3027959, Note_off_c, 0, 58, 91
1, 3031064, Note_on_c, 0, 57, 99
1, 3034247, Note_off_c, 0, 57, 99
1, 3038704, Note_on_c, 0, 58, 88
1, 3043290, Note_off_c, 0, 58, 88
1, 3043290, Note_on_c, 0, 59, 86
1, 3058576, Note_off_c, 0, 59, 86
1, 3059339, Note_on_c, 0, 53, 91
1, 3066218, Note_off_c, 0, 53, 91
1, 3066218, Note_on_c, 0, 50, 86
1, 3073097, Note_off_c, 0, 50, 86
1, 3073097, Note_on_c, 0, 55, 92
1, 3078956, Note_off_c, 0, 55, 92
1, 3080742, Note_on_c, 0, 52, 90
1, 3092716, Note_off_c, 0, 52, 90
1, 3102117, Note_on_c, 0, 55, 101
1, 3106108, Note_off_c, 0, 55, 101
1, 3107132, Note_on_c, 0, 57, 98
1, 3111123, Note_off_c, 0, 57, 98
1, 3113401, Note_on_c, 0, 64, 89
1, 3117987, Note_off_c, 0, 64, 89
1, 3120226, Note_on_c, 0, 63, 100
1, 3125831, Note_off_c, 0, 63, 100
1, 3125834, Note_on_c, 0, 60, 110
1, 3132916, Note_off_c, 0, 60, 110
1, 3132916, Note_on_c, 0, 57, 98
1, 3139998, Note_off_c, 0, 57, 98
1, 3139998, Note_on_c, 0, 54, 102
1, 3147080, Note_off_c, 0, 54, 102
1, 3147080, Note_on_c, 0, 51, 89
1, 3154162, Note_on_c, 0, 50, 96
1, 3154162, Note_off_c, 0, 51, 89
1, 3161244, Note_off_c, 0, 50, 96
1, 3161588, Note_on_c, 0, 53, 89
1, 3164812, Note_off_c, 0, 53, 89
1, 3167320, Note_on_c, 0, 56, 97
1, 3174454, Note_off_c, 0, 56, 97
1, 3174843, Note_on_c, 0, 59, 90
1, 3181977, Note_off_c, 0, 59, 90
1, 3182646, Note_on_c, 0, 58, 91
1, 3186722, Note_off_c, 0, 58, 91
1, 3187231, Note_on_c, 0, 54, 97
1, 3193600, Note_off_c, 0, 54, 97
1, 3194017, Note_on_c, 0, 50, 88
1, 3200386, Note_off_c, 0, 50, 88
1, 3200803, Note_on_c, 0, 51, 87
1, 3207172, Note_off_c, 0, 51, 87
1, 3207588, Note_on_c, 0, 53, 92
1, 3213957, Note_off_c, 0, 53, 92
1, 3214374, Note_on_c, 0, 51, 76
1, 3233482, Note_off_c, 0, 51, 76
1, 3261877, Note_on_c, 0, 58, 102
1, 3268628, Note_off_c, 0, 58, 102
1, 3268628, Note_on_c, 0, 62, 107
1, 3275156, Note_off_c, 0, 62, 107
1, 3275156, Note_on_c, 0, 65, 98
1, 3282142, Note_on_c, 0, 62, 106
1, 3282142, Note_off_c, 0, 65, 98
1, 3286473, Note_off_c, 0, 62, 106
1, 3287695, Note_on_c, 0, 63, 108
1, 3298395, Note_off_c, 0, 63, 108
1, 3304674, Note_on_c, 0, 60, 115
1, 3310788, Note_off_c, 0, 60, 115
1, 3310790, Note_on_c, 0, 61, 99
1, 3319452, Note_off_c, 0, 61, 99
1, 3320213, Note_on_c, 0, 58, 100
1, 3325096, Note_off_c, 0, 58, 100
1, 3325096, Note_on_c, 0, 54, 104
1, 3329978, Note_off_c, 0, 54, 104
1, 3329978, Note_on_c, 0, 51, 92
1, 3334861, Note_off_c, 0, 51, 92
1, 3334861, Note_on_c, 0, 49, 95
1, 3339744, Note_off_c, 0, 49, 95
1, 3342326, Note_on_c, 0, 48, 95
1, 3358807, Note_off_c, 0, 48, 95
1, 3358807, Note_on_c, 0, 60, 94
1, 3365614, Note_off_c, 0, 60, 94
1, 3367942, Note_on_c, 0, 53, 81
1, 3372241, Note_off_c, 0, 53, 81
1, 3372957, Note_on_c, 0, 58, 89
1, 3384676, Note_off_c, 0, 58, 89
1, 3389635, Note_on_c, 0, 50, 87
1, 3395494, Note_off_c, 0, 50, 87
1, 3396832, Note_on_c, 0, 48, 89
1, 3402691, Note_off_c, 0, 48, 89
1, 3404028, Note_on_c, 0, 57, 94
1, 3415238, Note_off_c, 0, 57, 94
1, 3417654, Note_on_c, 0, 50, 89
1, 3423259, Note_off_c, 0, 50, 89
1, 3424466, Note_on_c, 0, 48, 92
1, 3430071, Note_off_c, 0, 48, 92
1, 3431279, Note_on_c, 0, 51, 85
1, 3436884, Note_off_c, 0, 51, 85
1, 3438092, Note_on_c, 0, 56, 90
1, 3454907, Note_off_c, 0, 56, 90
1, 3484914, Note_on_c, 0, 58, 105
1, 3490519, Note_off_c, 0, 58, 105
1, 3492595, Note_on_c, 0, 57, 99
1, 3498964, Note_off_c, 0, 57, 99
1, 3498966, Note_on_c, 0, 56, 98
1, 3506099, Note_off_c, 0, 56, 98
1, 3506229, Note_on_c, 0, 52, 91
1, 3509095, Note_off_c, 0, 52, 91
1, 3510886, Note_on_c, 0, 53, 93
1, 3532562, Note_off_c, 0, 53, 93
1, 3536160, Note_on_c, 0, 56, 108
1, 3544567, Note_off_c, 0, 56, 108
1, 3545077, Note_on_c, 0, 60, 108
1, 3549917, Note_off_c, 0, 60, 108
1, 3550171, Note_on_c, 0, 63, 109
1, 3558069, Note_off_c, 0, 63, 109
1, 3558575, Note_on_c, 0, 60, 112
1, 3563670, Note_off_c, 0, 60, 112
1, 3563670, Note_on_c, 0, 61, 99
1, 3568638, Note_off_c, 0, 61, 99
1, 3570176, Note_on_c, 0, 58, 89
1, 3575144, Note_off_c, 0, 58, 89
1, 3576087, Note_on_c, 0, 60, 108
1, 3583794, Note_off_c, 0, 60, 108
1, 3587910, Note_on_c, 0, 55, 96
1, 3618738, Note_off_c, 0, 55, 96
1, 3619846, Note_on_c, 0, 60, 106
1, 3627553, Note_off_c, 0, 60, 106
1, 3627553, Note_on_c, 0, 55, 86
1, 3635260, Note_on_c, 0, 61, 88
1, 3635260, Note_off_c, 0, 55, 86
1, 3643412, Note_off_c, 0, 61, 88
1, 3648814, Note_on_c, 0, 54, 88
1, 3665119, Note_off_c, 0, 54, 88
1, 3703033, Note_on_c, 0, 53, 102
1, 3710164, Note_off_c, 0, 53, 102
1, 3710164, Note_on_c, 0, 54, 108
1, 3717043, Note_off_c, 0, 54, 108
1, 3717170, Note_on_c, 0, 58, 103
1, 3724049, Note_off_c, 0, 58, 103
1, 3724177, Note_on_c, 0, 61, 95
1, 3728763, Note_off_c, 0, 61, 95
1, 3729527, Note_on_c, 0, 65, 99
1, 3738189, Note_off_c, 0, 65, 99
1, 3738741, Note_on_c, 0, 65, 95
1, 3745369, Note_off_c, 0, 65, 95
1, 3749130, Note_on_c, 0, 65, 93
1, 3770448, Note_off_c, 0, 65, 93
1, 3771816, Note_on_c, 0, 63, 103
1, 3774499, Note_off_c, 0, 63, 103
1, 3774499, Note_on_c, 0, 65, 96
1, 3777166, Note_off_c, 0, 65, 96
1, 3777166, Note_on_c, 0, 63, 96
1, 3781242, Note_off_c, 0, 63, 96
1, 3785065, Note_on_c, 0, 66, 97
1, 3799077, Note_off_c, 0, 66, 97
1, 3799842, Note_on_c, 0, 63, 104
1, 3806906, Note_off_c, 0, 63, 104
1, 3806906, Note_on_c, 0, 60, 105
1, 3813970, Note_off_c, 0, 60, 105
1, 3813970, Note_on_c, 0, 57, 98
1, 3820962, Note_on_c, 0, 54, 102
1, 3820962, Note_off_c, 0, 57, 98
1, 3828026, Note_off_c, 0, 54, 102
1, 3828097, Note_on_c, 0, 51, 88
1, 3835161, Note_off_c, 0, 51, 88
1, 3835161, Note_on_c, 0, 52, 90
1, 3842225, Note_off_c, 0, 52, 90
1, 3843532, Note_on_c, 0, 53, 83
1, 3864312, Note_off_c, 0, 53, 83
1, 3877545, Note_on_c, 0, 58, 101
1, 3883403, Note_off_c, 0, 58, 101
1, 3883403, Note_on_c, 0, 61, 106
1, 3890028, Note_off_c, 0, 61, 106
1, 3890028, Note_on_c, 0, 65, 97
1, 3896653, Note_off_c, 0, 65, 97
1, 3896653, Note_on_c, 0, 61, 97
1, 3902512, Note_off_c, 0, 61, 97
1, 3904168, Note_on_c, 0, 62, 100
1, 3910027, Note_off_c, 0, 62, 100
1, 3911683, Note_on_c, 0, 57, 98
1, 3917542, Note_off_c, 0, 57, 98
1, 3918228, Note_on_c, 0, 54, 102
1, 3924498, Note_off_c, 0, 54, 102
1, 3925393, Note_on_c, 0, 49, 86
1, 3929513, Note_off_c, 0, 49, 86
1, 3930587, Note_on_c, 0, 50, 83
1, 3934528, Note_off_c, 0, 50, 83
1, 3937931, Note_on_c, 0, 54, 103
1, 3946083, Note_off_c, 0, 54, 103
1, 3946170, Note_on_c, 0, 56, 94
1, 3950111, Note_off_c, 0, 56, 94
1, 3952260, Note_on_c, 0, 53, 74
1, 3975727, Note_off_c, 0, 53, 74
1, 3993283, Note_on_c, 0, 56, 111
1, 4000807, Note_off_c, 0, 56, 111
1, 4001881, Note_on_c, 0, 59, 101
1, 4006180, Note_off_c, 0, 59, 101
1, 4007075, Note_on_c, 0, 62, 119
1, 4013524, Note_off_c, 0, 62, 119
1, 4014603, Note_on_c, 0, 65, 102
1, 4020717, Note_off_c, 0, 65, 102
1, 4021225, Note_on_c, 0, 62, 114
1, 4027339, Note_off_c, 0, 62, 114
1, 4028019, Note_on_c, 0, 59, 93
1, 4034133, Note_off_c, 0, 59, 93
1, 4034728, Note_on_c, 0, 56, 102
1, 4041797, Note_on_c, 0, 53, 95
1, 4041797, Note_off_c, 0, 56, 102
1, 4048866, Note_off_c, 0, 53, 95
1, 4048866, Note_on_c, 0, 50, 93
1, 4055935, Note_off_c, 0, 50, 93
1, 4055935, Note_on_c, 0, 53, 87
1, 4063004, Note_off_c, 0, 53, 87
1, 4063004, Note_on_c, 0, 63, 109
1, 4069925, Note_off_c, 0, 63, 109
1, 4069925, Note_on_c, 0, 66, 98
1, 4076846, Note_off_c, 0, 66, 98
1, 4076846, Note_on_c, 0, 63, 102
1, 4083767, Note_on_c, 0, 61, 93
1, 4083767, Note_off_c, 0, 63, 102
1, 4090688, Note_off_c, 0, 61, 93
1, 4090688, Note_on_c, 0, 58, 100
1, 4097608, Note_off_c, 0, 58, 100
1, 4097608, Note_on_c, 0, 54, 99
1, 4104529, Note_off_c, 0, 54, 99
1, 4104529, Note_on_c, 0, 51, 92
1, 4111450, Note_on_c, 0, 48, 83
1, 4111450, Note_off_c, 0, 51, 92
1, 4118371, Note_off_c, 0, 48, 83
1, 4119025, Note_on_c, 0, 53, 91
1, 4129773, Note_off_c, 0, 53, 91
1, 4132639, Note_on_c, 0, 51, 86
1, 4153061, Note_off_c, 0, 51, 86
1, 4187585, Note_on_c, 0, 70, 111
1, 4189112, Note_off_c, 0, 70, 111
1, 4190321, Note_on_c, 0, 69, 111
1, 4192112, Note_off_c, 0, 69, 111
1, 4193724, Note_on_c, 0, 68, 109
1, 4196232, Note_off_c, 0, 68, 109
1, 4196948, Note_on_c, 0, 67, 107
1, 4198918, Note_off_c, 0, 67, 107
1, 4199813, Note_on_c, 0, 66, 105
1, 4217906, Note_off_c, 0, 66, 105
1, 4220445, Note_on_c, 0, 63, 103
1, 4227069, Note_off_c, 0, 63, 103
1, 4227323, Note_on_c, 0, 60, 96
1, 4240571, Note_off_c, 0, 60, 96
1, 4244416, Note_on_c, 0, 68, 86
1, 4245849, Note_off_c, 0, 68, 86
1, 4246386, Note_on_c, 0, 67, 89
1, 4247819, Note_off_c, 0, 67, 89
1, 4247819, Note_on_c, 0, 66, 90
1, 4251131, Note_off_c, 0, 66, 90
1, 4251222, Note_on_c, 0, 65, 90
1, 4254534, Note_off_c, 0, 65, 90
1, 4255700, Note_on_c, 0, 62, 100
1, 4273614, Note_off_c, 0, 62, 100
1, 4275090, Note_on_c, 0, 58, 88
1, 4277467, Note_off_c, 0, 58, 88
1, 4281841, Note_on_c, 0, 62, 106
1, 4288974, Note_off_c, 0, 62, 106
1, 4295466, Note_on_c, 0, 68, 82
1, 4303706, Note_off_c, 0, 68, 82
1, 4309992, Note_on_c, 0, 61, 100
1, 4314832, Note_off_c, 0, 61, 100
1, 4317061, Note_on_c, 0, 65, 83
1, 4326742, Note_off_c, 0, 65, 83
1, 4331200, Note_on_c, 0, 53, 82
1, 4336040, Note_off_c, 0, 53, 82
1, 4338269, Note_on_c, 0, 56, 91
1, 4357632, Note_off_c, 0, 56, 91
1, 4408970, Note_on_c, 0, 70, 111
1, 4415847, Note_off_c, 0, 70, 111
1, 4416122, Note_on_c, 0, 69, 112
1, 4419943, Note_off_c, 0, 69, 112
1, 4421981, Note_on_c, 0, 68, 126
1, 4426821, Note_off_c, 0, 68, 126
1, 4429368, Note_on_c, 0, 65, 98
1, 4433699, Note_off_c, 0, 65, 98
1, 4434208, Note_on_c, 0, 63, 112
1, 4441851, Note_off_c, 0, 63, 112
1, 4442615, Note_on_c, 0, 58, 92
1, 4448220, Note_off_c, 0, 58, 92
1, 4448474, Note_on_c, 0, 61, 104
1, 4454079, Note_off_c, 0, 61, 104
1, 4456117, Note_on_c, 0, 60, 96
1, 4472422, Note_off_c, 0, 60, 96
1, 4474205, Note_on_c, 0, 52, 88
1, 4483122, Note_off_c, 0, 52, 88
1, 4486179, Note_on_c, 0, 55, 85
1, 4489745, Note_off_c, 0, 55, 85
1, 4489745, Note_on_c, 0, 60, 87
1, 4501974, Note_off_c, 0, 60, 87
1, 4503502, Note_on_c, 0, 60, 94
1, 4507578, Note_off_c, 0, 60, 94
1, 4510635, Note_on_c, 0, 58, 86
1, 4534074, Note_off_c, 0, 58, 86
1, 4557513, Note_on_c, 0, 58, 96
1, 4567959, Note_off_c, 0, 58, 96
1, 4569487, Note_on_c, 0, 60, 105
1, 4572799, Note_off_c, 0, 60, 105
1, 4573818, Note_on_c, 0, 61, 97
1, 4580442, Note_off_c, 0, 61, 97
1, 4582432, Note_on_c, 0, 65, 96
1, 4590314, Note_off_c, 0, 65, 96
1, 4593717, Note_on_c, 0, 65, 94
1, 4604107, Note_off_c, 0, 65, 94
1, 4607331, Note_on_c, 0, 65, 96
1, 4613051, Note_on_c, 0, 53, 85
1, 4613051, Note_off_c, 0, 65, 96
1, 4621458, Note_off_c, 0, 53, 85
1, 4623751, Note_on_c, 0, 57, 100
1, 4630375, Note_off_c, 0, 57, 100
1, 4633106, Note_on_c, 0, 51, 92
1, 4638551, Note_off_c, 0, 51, 92
1, 4639195, Note_on_c, 0, 53, 94
1, 4645295, Note_off_c, 0, 53, 94
1, 4645913, Note_on_c, 0, 54, 94
1, 4664257, Note_off_c, 0, 54, 94
1, 4667459, Note_on_c, 0, 57, 98
1, 4675357, Note_off_c, 0, 57, 98
1, 4675621, Note_on_c, 0, 60, 104
1, 4681735, Note_off_c, 0, 60, 104
1, 4682730, Note_on_c, 0, 63, 101
1, 4689099, Note_off_c, 0, 63, 101
1, 4690128, Note_on_c, 0, 66, 87
1, 4696497, Note_off_c, 0, 66, 87
1, 4697525, Note_on_c, 0, 65, 70
1, 4723003, Note_off_c, 0, 65, 70
1, 4739158, Note_on_c, 0, 63, 106
1, 4743412, Note_off_c, 0, 63, 106
1, 4744507, Note_on_c, 0, 64, 88
1, 4747054, Note_off_c, 0, 64, 88
1, 4747818, Note_on_c, 0, 63, 92
1, 4750365, Note_off_c, 0, 63, 92
1, 4752912, Note_on_c, 0, 61, 99
1, 4759407, Note_off_c, 0, 61, 99
1, 4759530, Note_on_c, 0, 58, 90
1, 4766025, Note_off_c, 0, 58, 90
1, 4766025, Note_on_c, 0, 63, 110
1, 4773102, Note_off_c, 0, 63, 110
1, 4773102, Note_on_c, 0, 65, 86
1, 4787256, Note_off_c, 0, 65, 86
1, 4787256, Note_on_c, 0, 53, 82
1, 4790795, Note_off_c, 0, 53, 82
1, 4790795, Note_on_c, 0, 56, 81
1, 4794334, Note_off_c, 0, 56, 81
1, 4794334, Note_on_c, 0, 62, 105
1, 4803101, Note_off_c, 0, 62, 105
1, 4803101, Note_on_c, 0, 58, 81
1, 4806158, Note_off_c, 0, 58, 81
1, 4808070, Note_on_c, 0, 62, 104
1, 4815713, Note_off_c, 0, 62, 104
1, 4815969, Note_on_c, 0, 64, 97
1, 4822593, Note_off_c, 0, 64, 97
1, 4828550, Note_on_c, 0, 53, 89
1, 4830206, Note_off_c, 0, 53, 89
1, 4831694, Note_on_c, 0, 56, 79
1, 4833350, Note_off_c, 0, 56, 79
1, 4834839, Note_on_c, 0, 61, 95
1, 4843501, Note_off_c, 0, 61, 95
1, 4844115, Note_on_c, 0, 58, 75
1, 4847936, Note_off_c, 0, 58, 75
1, 4848838, Note_on_c, 0, 61, 95
1, 4855462, Note_off_c, 0, 61, 95
1, 4855464, Note_on_c, 0, 63, 100
1, 4862597, Note_off_c, 0, 63, 100
1, 4868717, Note_on_c, 0, 53, 84
1, 4870500, Note_off_c, 0, 53, 84
1, 4872030, Note_on_c, 0, 56, 85
1, 4873813, Note_off_c, 0, 56, 85
1, 4875342, Note_on_c, 0, 60, 101
1, 4884768, Note_off_c, 0, 60, 101
1, 4884872, Note_on_c, 0, 58, 79
1, 4888948, Note_off_c, 0, 58, 79
1, 4890350, Note_on_c, 0, 60, 108
1, 4897738, Note_off_c, 0, 60, 108
1, 4897766, Note_on_c, 0, 61, 92
1, 4904899, Note_off_c, 0, 61, 92
1, 4916497, Note_on_c, 0, 59, 93
1, 4922050, Note_off_c, 0, 59, 93
1, 4931007, Note_on_c, 0, 59, 89
1, 4936918, Note_off_c, 0, 59, 89
1, 4938351, Note_on_c, 0, 58, 85
1, 4949278, Note_off_c, 0, 58, 85
1, 4995496, Note_on_c, 0, 58, 98
1, 4999257, Note_off_c, 0, 58, 98
1, 5001227, Note_on_c, 0, 63, 112
1, 5006243, Note_off_c, 0, 63, 112
1, 5008751, Note_on_c, 0, 65, 101
1, 5012692, Note_off_c, 0, 65, 101
1, 5014483, Note_on_c, 0, 63, 113
1, 5020753, Note_off_c, 0, 63, 113
1, 5022723, Note_on_c, 0, 61, 98
1, 5025768, Note_off_c, 0, 61, 98
1, 5026842, Note_on_c, 0, 58, 98
1, 5032932, Note_off_c, 0, 58, 98
1, 5035081, Note_on_c, 0, 54, 97
1, 5040276, Note_off_c, 0, 54, 97
1, 5041709, Note_on_c, 0, 51, 94
1, 5046725, Note_off_c, 0, 51, 94
1, 5049412, Note_on_c, 0, 48, 83
1, 5053353, Note_off_c, 0, 48, 83
1, 5054607, Note_on_c, 0, 53, 89
1, 5073416, Note_off_c, 0, 53, 89
1, 5076282, Note_on_c, 0, 51, 85
1, 5079864, Note_off_c, 0, 51, 85
1, 5080759, Note_on_c, 0, 53, 95
1, 5087566, Note_off_c, 0, 53, 95
1, 5090611, Note_on_c, 0, 51, 88
1, 5104046, Note_off_c, 0, 51, 88
1, 5109420, Note_on_c, 0, 54, 104
1, 5119810, Note_off_c, 0, 54, 104
1, 5120168, Note_on_c, 0, 51, 85
1, 5123929, Note_off_c, 0, 51, 85
1, 5124466, Note_on_c, 0, 54, 104
1, 5134139, Note_off_c, 0, 54, 104
1, 5135572, Note_on_c, 0, 51, 81
1, 5137900, Note_off_c, 0, 51, 81
1, 5138795, Note_on_c, 0, 54, 107
1, 5147214, Note_off_c, 0, 54, 107
1, 5148468, Note_on_c, 0, 52, 84
1, 5163516, Note_off_c, 0, 52, 84
1, 5166382, Note_on_c, 0, 56, 100
1, 5173189, Note_off_c, 0, 56, 100
1, 5174622, Note_on_c, 0, 54, 90
1, 5179100, Note_off_c, 0, 54, 90
1, 5180712, Note_on_c, 0, 56, 101
1, 5187340, Note_off_c, 0, 56, 101
1, 5188773, Note_on_c, 0, 54, 95
1, 5192535, Note_off_c, 0, 54, 95
1, 5193251, Note_on_c, 0, 53, 85
1, 5215106, Note_off_c, 0, 53, 85
1, 5235886, Note_on_c, 0, 58, 97
1, 5241797, Note_off_c, 0, 58, 97
1, 5242513, Note_on_c, 0, 57, 94
1, 5248066, Note_off_c, 0, 57, 94
1, 5249678, Note_on_c, 0, 56, 93
1, 5271175, Note_off_c, 0, 56, 93
1, 5302525, Note_on_c, 0, 72, 120
1, 5310407, Note_off_c, 0, 72, 120
1, 5312735, Note_on_c, 0, 70, 114
1, 5327603, Note_off_c, 0, 70, 114
1, 5331108, Note_on_c, 0, 68, 120
1, 5338744, Note_off_c, 0, 68, 120
1, 5338744, Note_on_c, 0, 67, 62
1, 5344800, Note_on_c, 0, 64, 109
1, 5344800, Note_off_c, 0, 67, 62
1, 5350890, Note_off_c, 0, 64, 109
1, 5351069, Note_on_c, 0, 61, 105
1, 5355905, Note_off_c, 0, 61, 105
1, 5356621, Note_on_c, 0, 60, 111
1, 5379551, Note_off_c, 0, 60, 111
1, 5380088, Note_on_c, 0, 58, 95
1, 5383849, Note_off_c, 0, 58, 95
1, 5384207, Note_on_c, 0, 60, 114
1, 5392805, Note_off_c, 0, 60, 114
1, 5393700, Note_on_c, 0, 61, 97
1, 5399253, Note_off_c, 0, 61, 97
1, 5399790, Note_on_c, 0, 63, 102
1, 5405701, Note_off_c, 0, 63, 102
1, 5407313, Note_on_c, 0, 60, 100
1, 5412687, Note_on_c, 0, 58, 88
1, 5412687, Note_off_c, 0, 60, 100
1, 5437766, Note_off_c, 0, 58, 88
1, 5468399, Note_on_c, 0, 58, 107
1, 5476281, Note_off_c, 0, 58, 107
1, 5477534, Note_on_c, 0, 60, 112
1, 5483445, Note_off_c, 0, 60, 112
1, 5483445, Note_on_c, 0, 61, 102
1, 5490610, Note_off_c, 0, 61, 102
1, 5492401, Note_on_c, 0, 65, 103
1, 5498850, Note_off_c, 0, 65, 103
1, 5503328, Note_on_c, 0, 53, 94
1, 5508881, Note_off_c, 0, 53, 94
1, 5512822, Note_on_c, 0, 57, 105
1, 5517658, Note_off_c, 0, 57, 105
1, 5518553, Note_on_c, 0, 60, 103
1, 5524285, Note_off_c, 0, 60, 103
1, 5524643, Note_on_c, 0, 65, 93
1, 5530733, Note_off_c, 0, 65, 93
1, 5532703, Note_on_c, 0, 63, 93
1, 5548825, Note_off_c, 0, 63, 93
1, 5568530, Note_on_c, 0, 64, 98
1, 5577487, Note_off_c, 0, 64, 98
1, 5578024, Note_on_c, 0, 65, 97
1, 5581069, Note_off_c, 0, 65, 97
1, 5582313, Note_on_c, 0, 63, 108
1, 5589192, Note_off_c, 0, 63, 108
1, 5589488, Note_on_c, 0, 61, 99
1, 5594862, Note_off_c, 0, 61, 99
1, 5595041, Note_on_c, 0, 60, 106
1, 5601490, Note_off_c, 0, 60, 106
1, 5602744, Note_on_c, 0, 57, 99
1, 5608118, Note_off_c, 0, 57, 99
1, 5609013, Note_on_c, 0, 54, 103
1, 5615641, Note_off_c, 0, 54, 103
1, 5616715, Note_on_c, 0, 51, 93
1, 5620118, Note_off_c, 0, 51, 93
1, 5622267, Note_on_c, 0, 53, 96
1, 5626924, Note_off_c, 0, 53, 96
1, 5627998, Note_on_c, 0, 58, 87
1, 5656481, Note_off_c, 0, 58, 87
1, 5661676, Note_on_c, 0, 57, 101
1, 5669916, Note_off_c, 0, 57, 101
1, 5670274, Note_on_c, 0, 54, 103
1, 5676006, Note_off_c, 0, 54, 103
1, 5677618, Note_on_c, 0, 51, 93
1, 5681738, Note_off_c, 0, 51, 93
1, 5682633, Note_on_c, 0, 50, 92
1, 5688544, Note_off_c, 0, 50, 92
1, 5688544, Note_on_c, 0, 54, 106
1, 5697859, Note_off_c, 0, 54, 106
1, 5697859, Note_on_c, 0, 57, 91
1, 5716668, Note_off_c, 0, 57, 91
1, 5718280, Note_on_c, 0, 56, 92
1, 5744076, Note_off_c, 0, 56, 92
1, 5764139, Note_on_c, 0, 57, 106
1, 5767005, Note_off_c, 0, 57, 106
1, 5768617, Note_on_c, 0, 58, 100
1, 5772737, Note_off_c, 0, 58, 100
1, 5773991, Note_on_c, 0, 59, 97
1, 5788768, Note_off_c, 0, 59, 97
1, 5791188, Note_on_c, 0, 50, 96
1, 5796204, Note_off_c, 0, 50, 96
1, 5797458, Note_on_c, 0, 52, 96
1, 5799070, Note_off_c, 0, 52, 96
1, 5799965, Note_on_c, 0, 53, 99
1, 5806055, Note_off_c, 0, 53, 99
1, 5808742, Note_on_c, 0, 52, 92
1, 5828985, Note_off_c, 0, 52, 92
1, 5830776, Note_on_c, 0, 57, 105
1, 5839016, Note_off_c, 0, 57, 105
1, 5839016, Note_on_c, 0, 52, 92
1, 5846360, Note_on_c, 0, 54, 110
1, 5846360, Note_off_c, 0, 52, 92
1, 5851200, Note_off_c, 0, 54, 110
1, 5852987, Note_on_c, 0, 57, 102
1, 5857827, Note_off_c, 0, 57, 102
1, 5860151, Note_on_c, 0, 64, 87
1, 5864991, Note_off_c, 0, 64, 87
1, 5866241, Note_on_c, 0, 62, 95
1, 5880763, Note_off_c, 0, 62, 95
1, 5914788, Note_on_c, 0, 69, 120
1, 5922431, Note_off_c, 0, 69, 120
1, 5924103, Note_on_c, 0, 66, 107
1, 5928223, Note_off_c, 0, 66, 107
1, 5929656, Note_on_c, 0, 69, 120
1, 5935567, Note_off_c, 0, 69, 120
1, 5937179, Note_on_c, 0, 66, 98
1, 5940045, Note_off_c, 0, 66, 98
1, 5941299, Note_on_c, 0, 69, 109
1, 5957601, Note_off_c, 0, 69, 109
1, 5957601, Note_on_c, 0, 66, 104
1, 5961900, Note_off_c, 0, 66, 104
1, 5963153, Note_on_c, 0, 64, 96
1, 5967273, Note_off_c, 0, 64, 96
1, 5971214, Note_on_c, 0, 60, 110
1, 5988770, Note_off_c, 0, 60, 110
1, 5990919, Note_on_c, 0, 58, 103
1, 5997547, Note_off_c, 0, 58, 103
1, 5997905, Note_on_c, 0, 59, 99
1, 6003995, Note_off_c, 0, 59, 99
1, 6006682, Note_on_c, 0, 69, 81
1, 6010444, Note_off_c, 0, 69, 81
1, 6011877, Note_on_c, 0, 67, 81
1, 6021909, Note_off_c, 0, 67, 81
1, 6026925, Note_on_c, 0, 58, 94
1, 6049855, Note_off_c, 0, 58, 94
1, 6067948, Note_on_c, 0, 58, 107
1, 6086041, Note_off_c, 0, 58, 107
1, 6088549, Note_on_c, 0, 66, 89
1, 6105925, Note_off_c, 0, 66, 89
1, 6109328, Note_on_c, 0, 62, 108
1, 6116135, Note_off_c, 0, 62, 108
1, 6117568, Note_on_c, 0, 57, 104
1, 6122763, Note_off_c, 0, 57, 104
1, 6122763, Note_on_c, 0, 54, 104
1, 6132436, Note_off_c, 0, 54, 104
1, 6133869, Note_on_c, 0, 55, 99
1, 6148200, Note_off_c, 0, 55, 99
1, 6149812, Note_on_c, 0, 64, 90
1, 6155723, Note_off_c, 0, 64, 90
1, 6156618, Note_on_c, 0, 62, 89
1, 6179369, Note_off_c, 0, 62, 89
1, 6184564, Note_on_c, 0, 58, 95
1, 6189580, Note_off_c, 0, 58, 95
1, 6190834, Note_on_c, 0, 55, 102
1, 6197283, Note_off_c, 0, 55, 102
1, 6198716, Note_on_c, 0, 54, 97
1, 6216272, Note_off_c, 0, 54, 97
1, 6221108, Note_on_c, 0, 51, 103
1, 6225407, Note_off_c, 0, 51, 103
1, 6225944, Note_on_c, 0, 50, 97
1, 6230960, Note_off_c, 0, 50, 97
1, 6231855, Note_on_c, 0, 54, 109
1, 6240095, Note_off_c, 0, 54, 109
1, 6241528, Note_on_c, 0, 57, 101
1, 6246427, Note_off_c, 0, 57, 101
1, 6247080, Note_on_c, 0, 63, 104
1, 6253529, Note_off_c, 0, 63, 104
1, 6254066, Note_on_c, 0, 62, 101
1, 6258544, Note_off_c, 0, 62, 101
1, 6260156, Note_on_c, 0, 57, 103
1, 6266605, Note_off_c, 0, 57, 103
1, 6268396, Note_on_c, 0, 54, 103
1, 6274845, Note_off_c, 0, 54, 103
1, 6274845, Note_on_c, 0, 51, 94
1, 6279144, Note_off_c, 0, 51, 94
1, 6280756, Note_on_c, 0, 50, 91
1, 6285413, Note_off_c, 0, 50, 91
1, 6286846, Note_on_c, 0, 54, 104
1, 6296878, Note_off_c, 0, 54, 104
1, 6300102, Note_on_c, 0, 53, 89
1, 6321420, Note_off_c, 0, 53, 89
1, 6345066, Note_on_c, 0, 57, 111
1, 6350977, Note_off_c, 0, 57, 111
1, 6352051, Note_on_c, 0, 52, 96
1, 6357524, Note_off_c, 0, 52, 96
1, 6359511, Note_on_c, 0, 55, 109
1, 6366899, Note_off_c, 0, 55, 109
1, 6369166, Note_on_c, 0, 52, 101
1, 6380711, Note_off_c, 0, 52, 101
1, 6380711, Note_on_c, 0, 55, 98
1, 6386570, Note_off_c, 0, 55, 98
1, 6387338, Note_on_c, 0, 62, 111
1, 6393707, Note_off_c, 0, 62, 111
1, 6395146, Note_on_c, 0, 60, 113
1, 6401005, Note_off_c, 0, 60, 113
1, 6401026, Note_on_c, 0, 60, 113
1, 6408662, Note_off_c, 0, 60, 113
1, 6408662, Note_on_c, 0, 59, 94
1, 6414776, Note_off_c, 0, 59, 94
1, 6415639, Note_on_c, 0, 55, 100
1, 6421753, Note_off_c, 0, 55, 100
1, 6422616, Note_on_c, 0, 54, 100
1, 6428730, Note_off_c, 0, 54, 100
1, 6429593, Note_on_c, 0, 50, 93
1, 6435707, Note_off_c, 0, 50, 93
1, 6436570, Note_on_c, 0, 51, 83
1, 6442684, Note_off_c, 0, 51, 83
1, 6443547, Note_on_c, 0, 59, 94
1, 6450680, Note_off_c, 0, 59, 94
1, 6450962, Note_on_c, 0, 57, 96
1, 6459114, Note_off_c, 0, 57, 96
1, 6461847, Note_on_c, 0, 60, 84
1, 6491047, Note_off_c, 0, 60, 84
1, 6510215, Note_on_c, 0, 60, 101
1, 6515947, Note_off_c, 0, 60, 101
1, 6516842, Note_on_c, 0, 59, 104
1, 6519887, Note_off_c, 0, 59, 104
1, 6521141, Note_on_c, 0, 58, 99
1, 6523469, Note_off_c, 0, 58, 99
1, 6524078, Note_on_c, 0, 57, 105
1, 6531976, Note_off_c, 0, 57, 105
1, 6532460, Note_on_c, 0, 59, 98
1, 6540612, Note_off_c, 0, 59, 98
1, 6543889, Note_on_c, 0, 50, 85
1, 6547965, Note_off_c, 0, 50, 85
1, 6549083, Note_on_c, 0, 57, 98
1, 6556347, Note_off_c, 0, 57, 98
1, 6558039, Note_on_c, 0, 50, 89
1, 6572566, Note_off_c, 0, 50, 89
1, 6572593, Note_on_c, 0, 55, 101
1, 6594383, Note_off_c, 0, 55, 101
1, 6594383, Note_on_c, 0, 57, 97
1, 6601647, Note_off_c, 0, 57, 97
1, 6601926, Note_on_c, 0, 52, 99
1, 6607300, Note_off_c, 0, 52, 99
1, 6607479, Note_on_c, 0, 51, 88
1, 6610524, Note_off_c, 0, 51, 88
1, 6623436, Note_on_c, 0, 66, 101
1, 6630315, Note_off_c, 0, 66, 101
1, 6631336, Note_on_c, 0, 57, 103
1, 6635637, Note_off_c, 0, 57, 103
1, 6635637, Note_on_c, 0, 64, 98
1, 6644554, Note_off_c, 0, 64, 98
1, 6651188, Note_on_c, 0, 68, 121
1, 6655646, Note_off_c, 0, 68, 121
1, 6658590, Note_on_c, 0, 66, 95
1, 6663368, Note_off_c, 0, 66, 95
1, 6663368, Note_on_c, 0, 63, 106
1, 6670501, Note_off_c, 0, 63, 106
1, 6670532, Note_on_c, 0, 60, 110
1, 6675548, Note_off_c, 0, 60, 110
1, 6676264, Note_on_c, 0, 57, 100
1, 6682534, Note_off_c, 0, 57, 100
1, 6684146, Note_on_c, 0, 54, 104
1, 6689878, Note_off_c, 0, 54, 104
1, 6691848, Note_on_c, 0, 53, 95
1, 6702238, Note_off_c, 0, 53, 95
1, 6706179, Note_on_c, 0, 56, 107
1, 6711316, Note_off_c, 0, 56, 107
1, 6713523, Note_on_c, 0, 50, 90
1, 6719434, Note_off_c, 0, 50, 90
1, 6720329, Note_on_c, 0, 53, 98
1, 6725345, Note_off_c, 0, 53, 98
1, 6726957, Note_on_c, 0, 56, 99
1, 6732868, Note_off_c, 0, 56, 99
1, 6733584, Note_on_c, 0, 59, 94
1, 6739854, Note_off_c, 0, 59, 94
1, 6740749, Note_on_c, 0, 65, 90
1, 6746839, Note_off_c, 0, 65, 90
1, 6747018, Note_on_c, 0, 63, 91
1, 6767082, Note_off_c, 0, 63, 91
1, 6788669, Note_on_c, 0, 58, 109
1, 6797076, Note_off_c, 0, 58, 109
1, 6797094, Note_on_c, 0, 58, 103
1, 6801934, Note_off_c, 0, 58, 103
1, 6803193, Note_on_c, 0, 63, 114
1, 6810581, Note_off_c, 0, 63, 114
1, 6815804, Note_on_c, 0, 70, 119
1, 6822074, Note_off_c, 0, 70, 119
1, 6823328, Note_on_c, 0, 70, 109
1, 6829239, Note_off_c, 0, 70, 109
1, 6829597, Note_on_c, 0, 75, 109
1, 6835150, Note_off_c, 0, 75, 109
1, 6842674, Note_on_c, 0, 58, 99
1, 6849481, Note_off_c, 0, 58, 99
1, 6850914, Note_on_c, 0, 58, 102
1, 6857184, Note_off_c, 0, 58, 102
1, 6857900, Note_on_c, 0, 64, 98
1, 6872410, Note_off_c, 0, 64, 98
1, 6877067, Note_on_c, 0, 71, 111
1, 6881181, Note_off_c, 0, 71, 111
1, 6885486, Note_on_c, 0, 76, 118
1, 6889068, Note_off_c, 0, 76, 118
1, 6898920, Note_on_c, 0, 70, 106
1, 6908601, Note_off_c, 0, 70, 106
1, 6910563, Note_on_c, 0, 64, 93
1, 6918624, Note_off_c, 0, 64, 93
1, 6919161, Note_on_c, 0, 58, 96
1, 6936179, Note_off_c, 0, 58, 96
1, 6952660, Note_on_c, 0, 58, 106
1, 6958750, Note_off_c, 0, 58, 106
1, 6959824, Note_on_c, 0, 58, 102
1, 6965198, Note_off_c, 0, 58, 102
1, 6967526, Note_on_c, 0, 65, 103
1, 6980424, Note_off_c, 0, 65, 103
1, 6987410, Note_on_c, 0, 70, 115
1, 6991709, Note_off_c, 0, 70, 115
1, 6993321, Note_on_c, 0, 77, 107
1, 6999770, Note_off_c, 0, 77, 107
1, 7005860, Note_on_c, 0, 70, 113
1, 7011950, Note_off_c, 0, 70, 113
1, 7013920, Note_on_c, 0, 65, 102
1, 7019473, Note_off_c, 0, 65, 102
1, 7021264, Note_on_c, 0, 60, 107
1, 7028071, Note_off_c, 0, 60, 107
1, 7028071, Note_on_c, 0, 58, 95
1, 7046522, Note_off_c, 0, 58, 95
1, 7072318, Note_on_c, 0, 72, 123
1, 7080216, Note_off_c, 0, 72, 123
1, 7082138, Note_on_c, 0, 70, 121
1, 7096490, Note_off_c, 0, 70, 121
1, 7099904, Note_on_c, 0, 67, 111
1, 7123578, Note_off_c, 0, 67, 111
1, 7128028, Note_on_c, 0, 64, 113
1, 7135731, Note_on_c, 0, 61, 110
1, 7135731, Note_off_c, 0, 64, 113
1, 7140567, Note_off_c, 0, 61, 110
1, 7141104, Note_on_c, 0, 60, 113
1, 7146478, Note_off_c, 0, 60, 113
1, 7148202, Note_on_c, 0, 58, 94
1, 7155255, Note_off_c, 0, 58, 94
1, 7155255, Note_on_c, 0, 56, 98
1, 7162643, Note_off_c, 0, 56, 98
1, 7163136, Note_on_c, 0, 55, 96
1, 7180154, Note_off_c, 0, 55, 96
1, 7181766, Note_on_c, 0, 54, 102
1, 7189469, Note_off_c, 0, 54, 102
1, 7190185, Note_on_c, 0, 51, 92
1, 7195025, Note_off_c, 0, 51, 92
1, 7197349, Note_on_c, 0, 53, 96
1, 7202189, Note_off_c, 0, 53, 96
1, 7204865, Note_on_c, 0, 58, 87
1, 7209705, Note_off_c, 0, 58, 87
1, 7211294, Note_on_c, 0, 65, 88
1, 7224797, Note_off_c, 0, 65, 88
1, 7232816, Note_on_c, 0, 63, 97
1, 7250192, Note_off_c, 0, 63, 97
1, 7278496, Note_on_c, 0, 63, 117
1, 7281919, Note_off_c, 0, 63, 117
1, 7284048, Note_on_c, 0, 65, 101
1, 7287272, Note_off_c, 0, 65, 101
1, 7292310, Note_on_c, 0, 66, 117
1, 7299200, Note_off_c, 0, 66, 117
1, 7299200, Note_on_c, 0, 69, 113
1, 7305543, Note_off_c, 0, 69, 113
1, 7305543, Note_on_c, 0, 66, 98
1, 7312676, Note_off_c, 0, 66, 98
1, 7312707, Note_on_c, 0, 63, 108
1, 7317547, Note_off_c, 0, 63, 108
1, 7318080, Note_on_c, 0, 60, 114
1, 7324350, Note_off_c, 0, 60, 114
1, 7326141, Note_on_c, 0, 57, 98
1, 7330261, Note_off_c, 0, 57, 98
1, 7332231, Note_on_c, 0, 54, 101
1, 7339754, Note_off_c, 0, 54, 101
1, 7339933, Note_on_c, 0, 51, 91
1, 7343336, Note_off_c, 0, 51, 91
1, 7344769, Note_on_c, 0, 53, 89
1, 7357309, Note_off_c, 0, 53, 89
1, 7358562, Note_on_c, 0, 60, 106
1, 7366265, Note_off_c, 0, 60, 106
1, 7366802, Note_on_c, 0, 61, 94
1, 7370564, Note_off_c, 0, 61, 94
1, 7373251, Note_on_c, 0, 58, 86
1, 7392240, Note_off_c, 0, 58, 86
1, 7412483, Note_on_c, 0, 65, 97
1, 7430038, Note_off_c, 0, 65, 97
1, 7433441, Note_on_c, 0, 63, 112
1, 7441561, Note_off_c, 0, 63, 112
1, 7443651, Note_on_c, 0, 62, 101
1, 7448596, Note_off_c, 0, 62, 101
1, 7450458, Note_on_c, 0, 57, 102
1, 7455403, Note_off_c, 0, 57, 102
1, 7458160, Note_on_c, 0, 54, 102
1, 7463105, Note_off_c, 0, 54, 102
1, 7464250, Note_on_c, 0, 51, 93
1, 7469195, Note_off_c, 0, 51, 93
1, 7470698, Note_on_c, 0, 50, 90
1, 7474639, Note_off_c, 0, 50, 90
1, 7477863, Note_on_c, 0, 54, 88
1, 7498464, Note_off_c, 0, 54, 88
1, 7516557, Note_on_c, 0, 52, 102
1, 7523690, Note_off_c, 0, 52, 102
1, 7523900, Note_on_c, 0, 55, 101
1, 7527841, Note_off_c, 0, 55, 101
1, 7528915, Note_on_c, 0, 59, 92
1, 7533931, Note_off_c, 0, 59, 92
1, 7536439, Note_on_c, 0, 52, 93
1, 7542171, Note_off_c, 0, 52, 93
1, 7544320, Note_on_c, 0, 55, 90
1, 7565721, Note_off_c, 0, 55, 90
1, 7567070, Note_on_c, 0, 51, 98
1, 7573519, Note_off_c, 0, 51, 98
1, 7573519, Note_on_c, 0, 54, 100
1, 7578714, Note_off_c, 0, 54, 100
1, 7578714, Note_on_c, 0, 58, 86
1, 7585847, Note_off_c, 0, 58, 86
1, 7586774, Note_on_c, 0, 51, 93
1, 7592148, Note_off_c, 0, 51, 93
1, 7595372, Note_on_c, 0, 54, 92
1, 7616773, Note_off_c, 0, 54, 92
1, 7618122, Note_on_c, 0, 50, 93
1, 7625255, Note_off_c, 0, 50, 93
1, 7625286, Note_on_c, 0, 54, 98
1, 7629048, Note_off_c, 0, 54, 98
1, 7629048, Note_on_c, 0, 57, 92
1, 7636181, Note_off_c, 0, 57, 92
1, 7636750, Note_on_c, 0, 50, 90
1, 7647498, Note_off_c, 0, 50, 90
1, 7648572, Note_on_c, 0, 54, 84
1, 7669973, Note_off_c, 0, 54, 84
1, 7673293, Note_on_c, 0, 49, 84
1, 7687560, Note_off_c, 0, 49, 84
1, 7687802, Note_on_c, 0, 53, 83
1, 7816964, Note_off_c, 0, 53, 83
1, 7816964, End_track
0, 0, End_of_file
