0, 0, Header, 1, 1, 192
1, 0, Start_track
1, 0, Title_t, "Melody"
1, 0, Tempo, 338983
1, 0, Key_signature, -2, "major"
1, 0, Time_signature, 4, 2, 24, 8
1, 1920, Note_on_c, 0, 53, 105
1, 1973, Note_off_c, 0, 53, 105
1, 1977, Note_on_c, 0, 58, 98
1, 2009, Note_off_c, 0, 58, 98
1, 2012, Note_on_c, 0, 62, 109
1, 2065, Note_off_c, 0, 62, 109
1, 2070, Note_on_c, 0, 65, 114
1, 2143, Note_off_c, 0, 65, 114
1, 2178, Note_on_c, 0, 62, 112
1, 2250, Note_off_c, 0, 62, 112
1, 2266, Note_on_c, 0, 60, 117
1, 2348, Note_off_c, 0, 60, 117
1, 2364, Note_on_c, 0, 58, 106
1, 2423, Note_off_c, 0, 58, 106
1, 2440, Note_on_c, 0, 55, 102
1, 2536, Note_off_c, 0, 55, 102
1, 2551, Note_on_c, 0, 58, 110
1, 2601, Note_off_c, 0, 58, 110
1, 2622, Note_on_c, 0, 60, 115
1, 2709, Note_off_c, 0, 60, 115
1, 2720, Note_on_c, 0, 62, 105
1, 2780, Note_off_c, 0, 62, 105
1, 2798, Note_on_c, 0, 65, 116
1, 2890, Note_off_c, 0, 65, 116
1, 2908, Note_on_c, 0, 63, 108
1, 2970, Note_off_c, 0, 63, 108
1, 2980, Note_on_c, 0, 64, 115
1, 3065, Note_off_c, 0, 64, 115
1, 3086, Note_on_c, 0, 62, 104
1, 3164, Note_off_c, 0, 62, 104
1, 3175, Note_on_c, 0, 63, 113
1, 3267, Note_off_c, 0, 63, 113
1, 3292, Note_on_c, 0, 60, 111
1, 3346, Note_off_c, 0, 60, 111
1, 3372, Note_on_c, 0, 55, 98
1, 3521, Note_off_c, 0, 55, 98
1, 3528, Note_on_c, 0, 53, 86
1, 3560, Note_off_c, 0, 53, 86
1, 3568, Note_on_c, 0, 62, 109
1, 3673, Note_off_c, 0, 62, 109
1, 3698, Note_on_c, 0, 58, 98
1, 3734, Note_off_c, 0, 58, 98
1, 3764, Note_on_c, 0, 61, 104
1, 3847, Note_off_c, 0, 61, 104
1, 3867, Note_on_c, 0, 58, 93
1, 3936, Note_off_c, 0, 58, 93
1, 3943, Note_on_c, 0, 60, 107
1, 4053, Note_off_c, 0, 60, 107
1, 4059, Note_on_c, 0, 58, 89
1, 4116, Note_off_c, 0, 58, 89
1, 4134, Note_on_c, 0, 55, 93
1, 4211, Note_off_c, 0, 55, 93
1, 4222, Note_on_c, 0, 56, 106
1, 4282, Note_off_c, 0, 56, 106
1, 4288, Note_on_c, 0, 57, 101
1, 4384, Note_off_c, 0, 57, 101
1, 4412, Note_on_c, 0, 56, 97
1, 4461, Note_off_c, 0, 56, 97
1, 4484, Note_on_c, 0, 55, 96
1, 4580, Note_off_c, 0, 55, 96
1, 4616, Note_on_c, 0, 55, 89
1, 4643, Note_off_c, 0, 55, 89
1, 4653, Note_on_c, 0, 54, 91
1, 4680, Note_off_c, 0, 54, 91
1, 4686, Note_on_c, 0, 53, 88
1, 4792, Note_off_c, 0, 53, 88
1, 4878, Note_on_c, 0, 65, 98
1, 4930, Note_off_c, 0, 65, 98
1, 4945, Note_on_c, 0, 67, 89
1, 4974, Note_off_c, 0, 67, 89
1, 4977, Note_on_c, 0, 65, 92
1, 4998, Note_off_c, 0, 65, 92
1, 5003, Note_on_c, 0, 63, 94
1, 5056, Note_off_c, 0, 63, 94
1, 5068, Note_on_c, 0, 62, 95
1, 5127, Note_off_c, 0, 62, 95
1, 5635, Note_on_c, 0, 65, 111
1, 5675, Note_off_c, 0, 65, 111
1, 5680, Note_on_c, 0, 67, 111
1, 5720, Note_off_c, 0, 67, 111
1, 5731, Note_on_c, 0, 65, 106
1, 5751, Note_off_c, 0, 65, 106
1, 5760, Note_on_c, 0, 63, 113
1, 5805, Note_off_c, 0, 63, 113
1, 5809, Note_on_c, 0, 64, 116
1, 5906, Note_off_c, 0, 64, 116
1, 5944, Note_on_c, 0, 59, 105
1, 5990, Note_off_c, 0, 59, 105
1, 6007, Note_on_c, 0, 56, 95
1, 6116, Note_off_c, 0, 56, 95
1, 6129, Note_on_c, 0, 57, 107
1, 6185, Note_off_c, 0, 57, 107
1, 6196, Note_on_c, 0, 58, 99
1, 6316, Note_off_c, 0, 58, 99
1, 6332, Note_on_c, 0, 54, 94
1, 6382, Note_off_c, 0, 54, 94
1, 6388, Note_on_c, 0, 55, 101
1, 6482, Note_off_c, 0, 55, 101
1, 6510, Note_on_c, 0, 58, 98
1, 6566, Note_off_c, 0, 58, 98
1, 6585, Note_on_c, 0, 60, 104
1, 6684, Note_off_c, 0, 60, 104
1, 6693, Note_on_c, 0, 61, 100
1, 6749, Note_off_c, 0, 61, 100
1, 6754, Note_on_c, 0, 62, 107
1, 6862, Note_off_c, 0, 62, 107
1, 6886, Note_on_c, 0, 61, 103
1, 6955, Note_off_c, 0, 61, 103
1, 6968, Note_on_c, 0, 60, 103
1, 7062, Note_off_c, 0, 60, 103
1, 7079, Note_on_c, 0, 58, 97
1, 7150, Note_off_c, 0, 58, 97
1, 7167, Note_on_c, 0, 57, 104
1, 7256, Note_off_c, 0, 57, 104
1, 7273, Note_on_c, 0, 55, 100
1, 7328, Note_off_c, 0, 55, 100
1, 7349, Note_on_c, 0, 53, 91
1, 7487, Note_off_c, 0, 53, 91
1, 7520, Note_on_c, 0, 51, 95
1, 7644, Note_off_c, 0, 51, 95
1, 7722, Note_on_c, 0, 50, 89
1, 7812, Note_off_c, 0, 50, 89
1, 7828, Note_on_c, 0, 53, 84
1, 7888, Note_off_c, 0, 53, 84
1, 7895, Note_on_c, 0, 55, 90
1, 8003, Note_off_c, 0, 55, 90
1, 8033, Note_on_c, 0, 58, 87
1, 8083, Note_off_c, 0, 58, 87
1, 8107, Note_on_c, 0, 58, 93
1, 8198, Note_off_c, 0, 58, 93
1, 8213, Note_on_c, 0, 53, 87
1, 8318, Note_off_c, 0, 53, 87
1, 8665, Note_on_c, 0, 58, 98
1, 8747, Note_off_c, 0, 58, 98
1, 8756, Note_on_c, 0, 58, 92
1, 8805, Note_off_c, 0, 58, 92
1, 8827, Note_on_c, 0, 59, 107
1, 8937, Note_off_c, 0, 59, 107
1, 8970, Note_on_c, 0, 62, 108
1, 9027, Note_off_c, 0, 62, 108
1, 9033, Note_on_c, 0, 65, 108
1, 9127, Note_off_c, 0, 65, 108
1, 9155, Note_on_c, 0, 59, 104
1, 9217, Note_off_c, 0, 59, 104
1, 9236, Note_on_c, 0, 60, 107
1, 9320, Note_off_c, 0, 60, 107
1, 9346, Note_on_c, 0, 63, 111
1, 9406, Note_off_c, 0, 63, 111
1, 9423, Note_on_c, 0, 67, 114
1, 9509, Note_off_c, 0, 67, 114
1, 9527, Note_on_c, 0, 63, 93
1, 9592, Note_off_c, 0, 63, 93
1, 9595, Note_on_c, 0, 65, 112
1, 9618, Note_off_c, 0, 65, 112
1, 9623, Note_on_c, 0, 66, 109
1, 9687, Note_off_c, 0, 66, 109
1, 9707, Note_on_c, 0, 63, 101
1, 9776, Note_off_c, 0, 63, 101
1, 9779, Note_on_c, 0, 65, 111
1, 9864, Note_off_c, 0, 65, 111
1, 9875, Note_on_c, 0, 62, 103
1, 9945, Note_off_c, 0, 62, 103
1, 9956, Note_on_c, 0, 63, 113
1, 10070, Note_off_c, 0, 63, 113
1, 10077, Note_on_c, 0, 60, 106
1, 10161, Note_off_c, 0, 60, 106
1, 10169, Note_on_c, 0, 55, 99
1, 10256, Note_off_c, 0, 55, 99
1, 10272, Note_on_c, 0, 53, 90
1, 10326, Note_off_c, 0, 53, 90
1, 10341, Note_on_c, 0, 61, 105
1, 10382, Note_off_c, 0, 61, 105
1, 10393, Note_on_c, 0, 62, 110
1, 10433, Note_off_c, 0, 62, 110
1, 10436, Note_on_c, 0, 63, 101
1, 10468, Note_off_c, 0, 63, 101
1, 10469, Note_on_c, 0, 62, 100
1, 10494, Note_off_c, 0, 62, 100
1, 10504, Note_on_c, 0, 60, 91
1, 10541, Note_off_c, 0, 60, 91
1, 10549, Note_on_c, 0, 61, 98
1, 10653, Note_off_c, 0, 61, 98
1, 10675, Note_on_c, 0, 55, 92
1, 10730, Note_off_c, 0, 55, 92
1, 10757, Note_on_c, 0, 59, 100
1, 10795, Note_off_c, 0, 59, 100
1, 10797, Note_on_c, 0, 60, 99
1, 10869, Note_off_c, 0, 60, 99
1, 10875, Note_on_c, 0, 58, 101
1, 10914, Note_off_c, 0, 58, 101
1, 10939, Note_on_c, 0, 55, 97
1, 10986, Note_off_c, 0, 55, 97
1, 11326, Note_on_c, 0, 59, 114
1, 11441, Note_off_c, 0, 59, 114
1, 11450, Note_on_c, 0, 60, 113
1, 11660, Note_off_c, 0, 60, 113
1, 11682, Note_on_c, 0, 55, 110
1, 11772, Note_off_c, 0, 55, 110
1, 11877, Note_on_c, 0, 59, 111
1, 11977, Note_off_c, 0, 59, 111
1, 11993, Note_on_c, 0, 55, 105
1, 12063, Note_off_c, 0, 55, 105
1, 12079, Note_on_c, 0, 52, 105
1, 12170, Note_off_c, 0, 52, 105
1, 12185, Note_on_c, 0, 50, 89
1, 12237, Note_off_c, 0, 50, 89
1, 12260, Note_on_c, 0, 51, 95
1, 12481, Note_off_c, 0, 51, 95
1, 12490, Note_on_c, 0, 50, 100
1, 12530, Note_off_c, 0, 50, 100
1, 12536, Note_on_c, 0, 53, 89
1, 12584, Note_off_c, 0, 53, 89
1, 12593, Note_on_c, 0, 55, 100
1, 12629, Note_off_c, 0, 55, 100
1, 12635, Note_on_c, 0, 62, 108
1, 12766, Note_off_c, 0, 62, 108
1, 12775, Note_on_c, 0, 61, 102
1, 12821, Note_off_c, 0, 61, 102
1, 12823, Note_on_c, 0, 60, 108
1, 12939, Note_off_c, 0, 60, 108
1, 12959, Note_on_c, 0, 58, 95
1, 12998, Note_off_c, 0, 58, 95
1, 13019, Note_on_c, 0, 57, 105
1, 13133, Note_off_c, 0, 57, 105
1, 13780, Note_on_c, 0, 67, 97
1, 13808, Note_off_c, 0, 67, 97
1, 13823, Note_on_c, 0, 70, 100
1, 13866, Note_off_c, 0, 70, 100
1, 13879, Note_on_c, 0, 67, 106
1, 13941, Note_off_c, 0, 67, 106
1, 13959, Note_on_c, 0, 65, 116
1, 14058, Note_off_c, 0, 65, 116
1, 14086, Note_on_c, 0, 63, 115
1, 14166, Note_off_c, 0, 63, 115
1, 14172, Note_on_c, 0, 62, 113
1, 14262, Note_off_c, 0, 62, 113
1, 14277, Note_on_c, 0, 61, 109
1, 14352, Note_off_c, 0, 61, 109
1, 14363, Note_on_c, 0, 60, 111
1, 14453, Note_off_c, 0, 60, 111
1, 14468, Note_on_c, 0, 59, 108
1, 14536, Note_off_c, 0, 59, 108
1, 14553, Note_on_c, 0, 58, 103
1, 14639, Note_off_c, 0, 58, 103
1, 14664, Note_on_c, 0, 55, 102
1, 14726, Note_off_c, 0, 55, 102
1, 14744, Note_on_c, 0, 51, 98
1, 14819, Note_off_c, 0, 51, 98
1, 14854, Note_on_c, 0, 48, 92
1, 14912, Note_off_c, 0, 48, 92
1, 14938, Note_on_c, 0, 50, 99
1, 15024, Note_off_c, 0, 50, 99
1, 15044, Note_on_c, 0, 53, 98
1, 15094, Note_off_c, 0, 53, 98
1, 15109, Note_on_c, 0, 55, 106
1, 15202, Note_off_c, 0, 55, 106
1, 15226, Note_on_c, 0, 58, 103
1, 15297, Note_off_c, 0, 58, 103
1, 15303, Note_on_c, 0, 57, 107
1, 15395, Note_off_c, 0, 57, 107
1, 15410, Note_on_c, 0, 55, 102
1, 15480, Note_off_c, 0, 55, 102
1, 15493, Note_on_c, 0, 52, 92
1, 15605, Note_off_c, 0, 52, 92
1, 15613, Note_on_c, 0, 53, 92
1, 15667, Note_off_c, 0, 53, 92
1, 15679, Note_on_c, 0, 54, 98
1, 15777, Note_off_c, 0, 54, 98
1, 15818, Note_on_c, 0, 64, 90
1, 16044, Note_off_c, 0, 64, 90
1, 16058, Note_on_c, 0, 62, 94
1, 16120, Note_off_c, 0, 62, 94
1, 16754, Note_on_c, 0, 64, 109
1, 17000, Note_off_c, 0, 64, 109
1, 17000, Note_on_c, 0, 62, 112
1, 17056, Note_off_c, 0, 62, 112
1, 17061, Note_on_c, 0, 64, 104
1, 17096, Note_off_c, 0, 64, 104
1, 17098, Note_on_c, 0, 62, 108
1, 17126, Note_off_c, 0, 62, 108
1, 17130, Note_on_c, 0, 60, 106
1, 17188, Note_off_c, 0, 60, 106
1, 17191, Note_on_c, 0, 59, 115
1, 17317, Note_off_c, 0, 59, 115
1, 17400, Note_on_c, 0, 69, 117
1, 17441, Note_off_c, 0, 69, 117
1, 17445, Note_on_c, 0, 70, 111
1, 17463, Note_off_c, 0, 70, 111
1, 17468, Note_on_c, 0, 69, 113
1, 17506, Note_off_c, 0, 69, 113
1, 17512, Note_on_c, 0, 67, 112
1, 17558, Note_off_c, 0, 67, 112
1, 17562, Note_on_c, 0, 65, 114
1, 17675, Note_off_c, 0, 65, 114
1, 17681, Note_on_c, 0, 64, 114
1, 17747, Note_off_c, 0, 64, 114
1, 17754, Note_on_c, 0, 62, 109
1, 17863, Note_off_c, 0, 62, 109
1, 17876, Note_on_c, 0, 60, 105
1, 17937, Note_off_c, 0, 60, 105
1, 17955, Note_on_c, 0, 59, 109
1, 18056, Note_off_c, 0, 59, 109
1, 18082, Note_on_c, 0, 55, 93
1, 18225, Note_off_c, 0, 55, 93
1, 18271, Note_on_c, 0, 57, 103
1, 18349, Note_off_c, 0, 57, 103
1, 18355, Note_on_c, 0, 58, 98
1, 18444, Note_off_c, 0, 58, 98
1, 18454, Note_on_c, 0, 57, 92
1, 18476, Note_off_c, 0, 57, 92
1, 18480, Note_on_c, 0, 55, 92
1, 18519, Note_off_c, 0, 55, 92
1, 18523, Note_on_c, 0, 54, 89
1, 18652, Note_off_c, 0, 54, 89
1, 18660, Note_on_c, 0, 57, 96
1, 18717, Note_off_c, 0, 57, 96
1, 18724, Note_on_c, 0, 55, 103
1, 18771, Note_off_c, 0, 55, 103
1, 19217, Note_on_c, 0, 54, 104
1, 19243, Note_off_c, 0, 54, 104
1, 19246, Note_on_c, 0, 58, 110
1, 19275, Note_off_c, 0, 58, 110
1, 19296, Note_on_c, 0, 62, 110
1, 19361, Note_off_c, 0, 62, 110
1, 19373, Note_on_c, 0, 67, 116
1, 19455, Note_off_c, 0, 67, 116
1, 19461, Note_on_c, 0, 66, 107
1, 19484, Note_off_c, 0, 66, 107
1, 19492, Note_on_c, 0, 67, 108
1, 19525, Note_off_c, 0, 67, 108
1, 19527, Note_on_c, 0, 66, 105
1, 19551, Note_off_c, 0, 66, 105
1, 19573, Note_on_c, 0, 62, 108
1, 19622, Note_off_c, 0, 62, 108
1, 19634, Note_on_c, 0, 65, 114
1, 19751, Note_off_c, 0, 65, 114
1, 19773, Note_on_c, 0, 63, 106
1, 19839, Note_off_c, 0, 63, 106
1, 19845, Note_on_c, 0, 64, 113
1, 19968, Note_off_c, 0, 64, 113
1, 19979, Note_on_c, 0, 62, 94
1, 20024, Note_off_c, 0, 62, 94
1, 20026, Note_on_c, 0, 63, 113
1, 20130, Note_off_c, 0, 63, 113
1, 20149, Note_on_c, 0, 60, 97
1, 20210, Note_off_c, 0, 60, 97
1, 20229, Note_on_c, 0, 62, 110
1, 20281, Note_off_c, 0, 62, 110
1, 20289, Note_on_c, 0, 63, 106
1, 20325, Note_off_c, 0, 63, 106
1, 20334, Note_on_c, 0, 62, 105
1, 20375, Note_off_c, 0, 62, 105
1, 20392, Note_on_c, 0, 61, 96
1, 20919, Note_off_c, 0, 61, 96
1, 20925, Note_on_c, 0, 62, 103
1, 21008, Note_off_c, 0, 62, 103
1, 21021, Note_on_c, 0, 63, 101
1, 21044, Note_off_c, 0, 63, 101
1, 21054, Note_on_c, 0, 62, 105
1, 21086, Note_off_c, 0, 62, 105
1, 21101, Note_on_c, 0, 60, 98
1, 21138, Note_off_c, 0, 60, 98
1, 21143, Note_on_c, 0, 57, 98
1, 21180, Note_off_c, 0, 57, 98
1, 21186, Note_on_c, 0, 55, 94
1, 21225, Note_off_c, 0, 55, 94
1, 21231, Note_on_c, 0, 54, 95
1, 21271, Note_off_c, 0, 54, 95
1, 21287, Note_on_c, 0, 52, 91
1, 21367, Note_off_c, 0, 52, 91
1, 21381, Note_on_c, 0, 60, 89
1, 21531, Note_off_c, 0, 60, 89
1, 21550, Note_on_c, 0, 55, 87
1, 21695, Note_off_c, 0, 55, 87
1, 22033, Note_on_c, 0, 55, 101
1, 22116, Note_off_c, 0, 55, 101
1, 22130, Note_on_c, 0, 58, 103
1, 22166, Note_off_c, 0, 58, 103
1, 22172, Note_on_c, 0, 55, 103
1, 22208, Note_off_c, 0, 55, 103
1, 22229, Note_on_c, 0, 51, 94
1, 22411, Note_off_c, 0, 51, 94
1, 22434, Note_on_c, 0, 56, 108
1, 22470, Note_off_c, 0, 56, 108
1, 22475, Note_on_c, 0, 57, 107
1, 22534, Note_off_c, 0, 57, 107
1, 22542, Note_on_c, 0, 55, 96
1, 22563, Note_off_c, 0, 55, 96
1, 22571, Note_on_c, 0, 53, 92
1, 22605, Note_off_c, 0, 53, 92
1, 22610, Note_on_c, 0, 51, 95
1, 22642, Note_off_c, 0, 51, 95
1, 22650, Note_on_c, 0, 50, 95
1, 22704, Note_off_c, 0, 50, 95
1, 22759, Note_on_c, 0, 55, 105
1, 22796, Note_off_c, 0, 55, 105
1, 22806, Note_on_c, 0, 53, 97
1, 22831, Note_off_c, 0, 53, 97
1, 22837, Note_on_c, 0, 51, 90
1, 22863, Note_off_c, 0, 51, 90
1, 22867, Note_on_c, 0, 50, 114
1, 22893, Note_off_c, 0, 50, 114
1, 22901, Note_on_c, 0, 48, 103
1, 22967, Note_off_c, 0, 48, 103
1, 22999, Note_on_c, 0, 53, 99
1, 23059, Note_off_c, 0, 53, 99
1, 23062, Note_on_c, 0, 51, 110
1, 23087, Note_off_c, 0, 51, 110
1, 23090, Note_on_c, 0, 50, 111
1, 23115, Note_off_c, 0, 50, 111
1, 23120, Note_on_c, 0, 48, 107
1, 23160, Note_off_c, 0, 48, 107
1, 23163, Note_on_c, 0, 46, 100
1, 23243, Note_off_c, 0, 46, 100
1, 23719, Note_on_c, 0, 46, 101
1, 23828, Note_off_c, 0, 46, 101
1, 23837, Note_on_c, 0, 47, 96
1, 23980, Note_off_c, 0, 47, 96
1, 23992, Note_on_c, 0, 58, 108
1, 24017, Note_off_c, 0, 58, 108
1, 24018, Note_on_c, 0, 59, 95
1, 24114, Note_off_c, 0, 59, 95
1, 24137, Note_on_c, 0, 53, 97
1, 24180, Note_off_c, 0, 53, 97
1, 24182, Note_on_c, 0, 56, 102
1, 24301, Note_off_c, 0, 56, 102
1, 24310, Note_on_c, 0, 53, 95
1, 24369, Note_off_c, 0, 53, 95
1, 24375, Note_on_c, 0, 48, 106
1, 24496, Note_off_c, 0, 48, 106
1, 24503, Note_on_c, 0, 51, 95
1, 24570, Note_off_c, 0, 51, 95
1, 24583, Note_on_c, 0, 55, 104
1, 24696, Note_off_c, 0, 55, 104
1, 24699, Note_on_c, 0, 57, 100
1, 24763, Note_off_c, 0, 57, 100
1, 24768, Note_on_c, 0, 62, 105
1, 24847, Note_off_c, 0, 62, 105
1, 24855, Note_on_c, 0, 63, 101
1, 24887, Note_off_c, 0, 63, 101
1, 24900, Note_on_c, 0, 62, 100
1, 24937, Note_off_c, 0, 62, 100
1, 24953, Note_on_c, 0, 60, 97
1, 25065, Note_off_c, 0, 60, 97
1, 25071, Note_on_c, 0, 58, 99
1, 25130, Note_off_c, 0, 58, 99
1, 25139, Note_on_c, 0, 57, 94
1, 25229, Note_off_c, 0, 57, 94
1, 25464, Note_on_c, 0, 63, 110
1, 25568, Note_off_c, 0, 63, 110
1, 25571, Note_on_c, 0, 65, 99
1, 25690, Note_off_c, 0, 65, 99
1, 25733, Note_on_c, 0, 70, 118
1, 25825, Note_off_c, 0, 70, 118
1, 25842, Note_on_c, 0, 65, 110
1, 25895, Note_off_c, 0, 65, 110
1, 25913, Note_on_c, 0, 64, 116
1, 26014, Note_off_c, 0, 64, 116
1, 26025, Note_on_c, 0, 61, 95
1, 26079, Note_off_c, 0, 61, 95
1, 26095, Note_on_c, 0, 63, 112
1, 26193, Note_off_c, 0, 63, 112
1, 26228, Note_on_c, 0, 61, 97
1, 26298, Note_off_c, 0, 61, 97
1, 26306, Note_on_c, 0, 62, 106
1, 26398, Note_off_c, 0, 62, 106
1, 26411, Note_on_c, 0, 58, 92
1, 26486, Note_off_c, 0, 58, 92
1, 26492, Note_on_c, 0, 55, 90
1, 26595, Note_off_c, 0, 55, 90
1, 26605, Note_on_c, 0, 57, 93
1, 26661, Note_off_c, 0, 57, 93
1, 26676, Note_on_c, 0, 58, 97
1, 26786, Note_off_c, 0, 58, 97
1, 26788, Note_on_c, 0, 53, 90
1, 26868, Note_off_c, 0, 53, 90
1, 27619, Note_on_c, 0, 63, 107
1, 27656, Note_off_c, 0, 63, 107
1, 27657, Note_on_c, 0, 65, 112
1, 27747, Note_off_c, 0, 65, 112
1, 27833, Note_on_c, 0, 65, 112
1, 27943, Note_off_c, 0, 65, 112
1, 27959, Note_on_c, 0, 65, 116
1, 28059, Note_off_c, 0, 65, 116
1, 28063, Note_on_c, 0, 65, 115
1, 28166, Note_off_c, 0, 65, 115
1, 28193, Note_on_c, 0, 64, 117
1, 28255, Note_off_c, 0, 64, 117
1, 28262, Note_on_c, 0, 65, 119
1, 28342, Note_off_c, 0, 65, 119
1, 28365, Note_on_c, 0, 65, 115
1, 28417, Note_off_c, 0, 65, 115
1, 28426, Note_on_c, 0, 63, 115
1, 28511, Note_off_c, 0, 63, 115
1, 28589, Note_on_c, 0, 71, 100
1, 28710, Note_off_c, 0, 71, 100
1, 28715, Note_on_c, 0, 74, 111
1, 29138, Note_off_c, 0, 74, 111
1, 29144, Note_on_c, 0, 73, 110
1, 29187, Note_off_c, 0, 73, 110
1, 29190, Note_on_c, 0, 72, 111
1, 29224, Note_off_c, 0, 72, 111
1, 29224, Note_on_c, 0, 70, 111
1, 29258, Note_off_c, 0, 70, 111
1, 29258, Note_on_c, 0, 67, 111
1, 29287, Note_off_c, 0, 67, 111
1, 29290, Note_on_c, 0, 65, 104
1, 29332, Note_off_c, 0, 65, 104
1, 29335, Note_on_c, 0, 63, 109
1, 29389, Note_off_c, 0, 63, 109
1, 29398, Note_on_c, 0, 62, 108
1, 29482, Note_off_c, 0, 62, 108
1, 29966, Note_on_c, 0, 72, 124
1, 30062, Note_off_c, 0, 72, 124
1, 30069, Note_on_c, 0, 70, 109
1, 30126, Note_off_c, 0, 70, 109
1, 30136, Note_on_c, 0, 71, 122
1, 30231, Note_off_c, 0, 71, 122
1, 30261, Note_on_c, 0, 67, 111
1, 30316, Note_off_c, 0, 67, 111
1, 30320, Note_on_c, 0, 63, 112
1, 30376, Note_off_c, 0, 63, 112
1, 30377, Note_on_c, 0, 64, 114
1, 30436, Note_off_c, 0, 64, 114
1, 30447, Note_on_c, 0, 61, 107
1, 30513, Note_off_c, 0, 61, 107
1, 30521, Note_on_c, 0, 60, 109
1, 30601, Note_off_c, 0, 60, 109
1, 30651, Note_on_c, 0, 55, 94
1, 30720, Note_off_c, 0, 55, 94
1, 30728, Note_on_c, 0, 58, 102
1, 30816, Note_off_c, 0, 58, 102
1, 30828, Note_on_c, 0, 60, 111
1, 30892, Note_off_c, 0, 60, 111
1, 30896, Note_on_c, 0, 63, 112
1, 31005, Note_off_c, 0, 63, 112
1, 31014, Note_on_c, 0, 65, 111
1, 31064, Note_off_c, 0, 65, 111
1, 31074, Note_on_c, 0, 67, 113
1, 31181, Note_off_c, 0, 67, 113
1, 31185, Note_on_c, 0, 70, 117
1, 31269, Note_off_c, 0, 70, 117
1, 31271, Note_on_c, 0, 69, 116
1, 31359, Note_off_c, 0, 69, 116
1, 31378, Note_on_c, 0, 65, 108
1, 31468, Note_off_c, 0, 65, 108
1, 31539, Note_on_c, 0, 69, 111
1, 31576, Note_off_c, 0, 69, 111
1, 31580, Note_on_c, 0, 67, 99
1, 31622, Note_off_c, 0, 67, 99
1, 31626, Note_on_c, 0, 63, 106
1, 31690, Note_off_c, 0, 63, 106
1, 31756, Note_on_c, 0, 67, 106
1, 31789, Note_off_c, 0, 67, 106
1, 31792, Note_on_c, 0, 63, 107
1, 31835, Note_off_c, 0, 63, 107
1, 31840, Note_on_c, 0, 62, 102
1, 31914, Note_off_c, 0, 62, 102
1, 32254, Note_on_c, 0, 65, 112
1, 32283, Note_off_c, 0, 65, 112
1, 32289, Note_on_c, 0, 67, 106
1, 32316, Note_off_c, 0, 67, 106
1, 32320, Note_on_c, 0, 65, 113
1, 32344, Note_off_c, 0, 65, 113
1, 32349, Note_on_c, 0, 63, 116
1, 32404, Note_off_c, 0, 63, 116
1, 32406, Note_on_c, 0, 62, 113
1, 32523, Note_off_c, 0, 62, 113
1, 32532, Note_on_c, 0, 61, 113
1, 32611, Note_off_c, 0, 61, 113
1, 32616, Note_on_c, 0, 60, 110
1, 32708, Note_off_c, 0, 60, 110
1, 32710, Note_on_c, 0, 59, 104
1, 32782, Note_off_c, 0, 59, 104
1, 32788, Note_on_c, 0, 58, 100
1, 32901, Note_off_c, 0, 58, 100
1, 33009, Note_on_c, 0, 53, 91
1, 33092, Note_off_c, 0, 53, 91
1, 33101, Note_on_c, 0, 58, 27
1, 33197, Note_off_c, 0, 58, 27
1, 33203, Note_on_c, 0, 59, 112
1, 33273, Note_off_c, 0, 59, 112
1, 33290, Note_on_c, 0, 62, 115
1, 33362, Note_off_c, 0, 62, 115
1, 33368, Note_on_c, 0, 65, 113
1, 33461, Note_off_c, 0, 65, 113
1, 33481, Note_on_c, 0, 59, 97
1, 33535, Note_off_c, 0, 59, 97
1, 33548, Note_on_c, 0, 60, 109
1, 33653, Note_off_c, 0, 60, 109
1, 33661, Note_on_c, 0, 63, 110
1, 33731, Note_off_c, 0, 63, 110
1, 33748, Note_on_c, 0, 67, 115
1, 33840, Note_off_c, 0, 67, 115
1, 33851, Note_on_c, 0, 64, 99
1, 33942, Note_off_c, 0, 64, 99
1, 33957, Note_on_c, 0, 65, 109
1, 34040, Note_off_c, 0, 65, 109
1, 34053, Note_on_c, 0, 62, 95
1, 34117, Note_off_c, 0, 62, 95
1, 34123, Note_on_c, 0, 63, 106
1, 34226, Note_off_c, 0, 63, 106
1, 34239, Note_on_c, 0, 60, 98
1, 34308, Note_off_c, 0, 60, 98
1, 34314, Note_on_c, 0, 62, 99
1, 34430, Note_off_c, 0, 62, 99
1, 34434, Note_on_c, 0, 60, 102
1, 34507, Note_off_c, 0, 60, 102
1, 34892, Note_on_c, 0, 65, 120
1, 34940, Note_off_c, 0, 65, 120
1, 34948, Note_on_c, 0, 64, 117
1, 34988, Note_off_c, 0, 64, 117
1, 34993, Note_on_c, 0, 65, 116
1, 35059, Note_off_c, 0, 65, 116
1, 35093, Note_on_c, 0, 70, 113
1, 35145, Note_off_c, 0, 70, 113
1, 35182, Note_on_c, 0, 62, 115
1, 35242, Note_off_c, 0, 62, 115
1, 35244, Note_on_c, 0, 61, 112
1, 35278, Note_off_c, 0, 61, 112
1, 35280, Note_on_c, 0, 62, 113
1, 35359, Note_off_c, 0, 62, 113
1, 35367, Note_on_c, 0, 65, 104
1, 35435, Note_off_c, 0, 65, 104
1, 35469, Note_on_c, 0, 58, 104
1, 35515, Note_off_c, 0, 58, 104
1, 35516, Note_on_c, 0, 57, 105
1, 35572, Note_off_c, 0, 57, 105
1, 35574, Note_on_c, 0, 58, 95
1, 35617, Note_off_c, 0, 58, 95
1, 35654, Note_on_c, 0, 62, 112
1, 35717, Note_off_c, 0, 62, 112
1, 35746, Note_on_c, 0, 55, 100
1, 35792, Note_off_c, 0, 55, 100
1, 35801, Note_on_c, 0, 54, 100
1, 35833, Note_off_c, 0, 54, 100
1, 35835, Note_on_c, 0, 55, 99
1, 35891, Note_off_c, 0, 55, 99
1, 35935, Note_on_c, 0, 60, 111
1, 35962, Note_off_c, 0, 60, 111
1, 35966, Note_on_c, 0, 60, 108
1, 36007, Note_off_c, 0, 60, 108
1, 36204, Note_on_c, 0, 55, 102
1, 36250, Note_off_c, 0, 55, 102
1, 36268, Note_on_c, 0, 55, 98
1, 36707, Note_off_c, 0, 55, 98
1, 36719, Note_on_c, 0, 53, 97
1, 36774, Note_off_c, 0, 53, 97
1, 36787, Note_on_c, 0, 51, 99
1, 36880, Note_off_c, 0, 51, 99
1, 37002, Note_on_c, 0, 51, 105
1, 37066, Note_off_c, 0, 51, 105
1, 37558, Note_on_c, 0, 65, 119
1, 37604, Note_off_c, 0, 65, 119
1, 37609, Note_on_c, 0, 66, 116
1, 37627, Note_off_c, 0, 66, 116
1, 37633, Note_on_c, 0, 65, 109
1, 37658, Note_off_c, 0, 65, 109
1, 37670, Note_on_c, 0, 62, 117
1, 37723, Note_off_c, 0, 62, 117
1, 37738, Note_on_c, 0, 63, 118
1, 37842, Note_off_c, 0, 63, 118
1, 37873, Note_on_c, 0, 60, 107
1, 37924, Note_off_c, 0, 60, 107
1, 37954, Note_on_c, 0, 55, 93
1, 38052, Note_off_c, 0, 55, 93
1, 38061, Note_on_c, 0, 57, 115
1, 38110, Note_off_c, 0, 57, 115
1, 38123, Note_on_c, 0, 61, 109
1, 38219, Note_off_c, 0, 61, 109
1, 38228, Note_on_c, 0, 62, 110
1, 38316, Note_off_c, 0, 62, 110
1, 38322, Note_on_c, 0, 63, 115
1, 38420, Note_off_c, 0, 63, 115
1, 38426, Note_on_c, 0, 62, 114
1, 38490, Note_off_c, 0, 62, 114
1, 38502, Note_on_c, 0, 61, 110
1, 38583, Note_off_c, 0, 61, 110
1, 38629, Note_on_c, 0, 67, 118
1, 38699, Note_off_c, 0, 67, 118
1, 38709, Note_on_c, 0, 65, 106
1, 38792, Note_off_c, 0, 65, 106
1, 38805, Note_on_c, 0, 64, 105
1, 38869, Note_off_c, 0, 64, 105
1, 38884, Note_on_c, 0, 65, 111
1, 38960, Note_off_c, 0, 65, 111
1, 39036, Note_on_c, 0, 55, 102
1, 39079, Note_off_c, 0, 55, 102
1, 39087, Note_on_c, 0, 62, 112
1, 39182, Note_off_c, 0, 62, 112
1, 39211, Note_on_c, 0, 65, 108
1, 39267, Note_off_c, 0, 65, 108
1, 39292, Note_on_c, 0, 67, 114
1, 39388, Note_off_c, 0, 67, 114
1, 39399, Note_on_c, 0, 70, 118
1, 39460, Note_off_c, 0, 70, 118
1, 39465, Note_on_c, 0, 69, 118
1, 39575, Note_off_c, 0, 69, 118
1, 39590, Note_on_c, 0, 67, 113
1, 39653, Note_off_c, 0, 67, 113
1, 39664, Note_on_c, 0, 66, 108
1, 39766, Note_off_c, 0, 66, 108
1, 40161, Note_on_c, 0, 57, 112
1, 40219, Note_off_c, 0, 57, 112
1, 40222, Note_on_c, 0, 62, 114
1, 40263, Note_off_c, 0, 62, 114
1, 40271, Note_on_c, 0, 64, 119
1, 40331, Note_off_c, 0, 64, 119
1, 40340, Note_on_c, 0, 62, 117
1, 40386, Note_off_c, 0, 62, 117
1, 40403, Note_on_c, 0, 60, 110
1, 40509, Note_off_c, 0, 60, 110
1, 40547, Note_on_c, 0, 59, 106
1, 40588, Note_off_c, 0, 59, 106
1, 40599, Note_on_c, 0, 57, 109
1, 40708, Note_off_c, 0, 57, 109
1, 40712, Note_on_c, 0, 59, 114
1, 40746, Note_off_c, 0, 59, 114
1, 40766, Note_on_c, 0, 60, 106
1, 40827, Note_off_c, 0, 60, 106
1, 40833, Note_on_c, 0, 62, 108
1, 40862, Note_off_c, 0, 62, 108
1, 40865, Note_on_c, 0, 64, 110
1, 40895, Note_off_c, 0, 64, 110
1, 40906, Note_on_c, 0, 69, 113
1, 40951, Note_off_c, 0, 69, 113
1, 40998, Note_on_c, 0, 71, 117
1, 41089, Note_off_c, 0, 71, 117
1, 41096, Note_on_c, 0, 74, 118
1, 41316, Note_off_c, 0, 74, 118
1, 41324, Note_on_c, 0, 72, 120
1, 41351, Note_off_c, 0, 72, 120
1, 41360, Note_on_c, 0, 74, 116
1, 41392, Note_off_c, 0, 74, 116
1, 41405, Note_on_c, 0, 71, 122
1, 41509, Note_off_c, 0, 71, 122
1, 41527, Note_on_c, 0, 68, 117
1, 41551, Note_off_c, 0, 68, 117
1, 41561, Note_on_c, 0, 71, 111
1, 41607, Note_off_c, 0, 71, 111
1, 41625, Note_on_c, 0, 65, 109
1, 41692, Note_off_c, 0, 65, 109
1, 41721, Note_on_c, 0, 64, 113
1, 41758, Note_off_c, 0, 64, 113
1, 41760, Note_on_c, 0, 65, 105
1, 41795, Note_off_c, 0, 65, 105
1, 41800, Note_on_c, 0, 64, 108
1, 41818, Note_off_c, 0, 64, 108
1, 41821, Note_on_c, 0, 62, 112
1, 41874, Note_off_c, 0, 62, 112
1, 41881, Note_on_c, 0, 61, 111
1, 41956, Note_off_c, 0, 61, 111
1, 42405, Note_on_c, 0, 70, 107
1, 42444, Note_off_c, 0, 70, 107
1, 42448, Note_on_c, 0, 67, 119
1, 42481, Note_off_c, 0, 67, 119
1, 42491, Note_on_c, 0, 65, 117
1, 42576, Note_off_c, 0, 65, 117
1, 42600, Note_on_c, 0, 64, 119
1, 42670, Note_off_c, 0, 64, 119
1, 42676, Note_on_c, 0, 62, 116
1, 42764, Note_off_c, 0, 62, 116
1, 42792, Note_on_c, 0, 61, 117
1, 42849, Note_off_c, 0, 61, 117
1, 42858, Note_on_c, 0, 60, 114
1, 42959, Note_off_c, 0, 60, 114
1, 42973, Note_on_c, 0, 59, 108
1, 43042, Note_off_c, 0, 59, 108
1, 43050, Note_on_c, 0, 58, 105
1, 43133, Note_off_c, 0, 58, 105
1, 43248, Note_on_c, 0, 57, 108
1, 43339, Note_off_c, 0, 57, 108
1, 43444, Note_on_c, 0, 55, 111
1, 43555, Note_off_c, 0, 55, 111
1, 43565, Note_on_c, 0, 53, 98
1, 43621, Note_off_c, 0, 53, 98
1, 43638, Note_on_c, 0, 50, 91
1, 43747, Note_off_c, 0, 50, 91
1, 43759, Note_on_c, 0, 51, 97
1, 43819, Note_off_c, 0, 51, 97
1, 43823, Note_on_c, 0, 52, 103
1, 43935, Note_off_c, 0, 52, 103
1, 43953, Note_on_c, 0, 55, 101
1, 44003, Note_off_c, 0, 55, 101
1, 44019, Note_on_c, 0, 58, 99
1, 44113, Note_off_c, 0, 58, 99
1, 44136, Note_on_c, 0, 61, 110
1, 44188, Note_off_c, 0, 61, 110
1, 44200, Note_on_c, 0, 62, 98
1, 44233, Note_off_c, 0, 62, 98
1, 44238, Note_on_c, 0, 64, 96
1, 44266, Note_off_c, 0, 64, 96
1, 44275, Note_on_c, 0, 62, 95
1, 44318, Note_off_c, 0, 62, 95
1, 44327, Note_on_c, 0, 61, 97
1, 44368, Note_off_c, 0, 61, 97
1, 44386, Note_on_c, 0, 60, 96
1, 44482, Note_off_c, 0, 60, 96
1, 44501, Note_on_c, 0, 58, 89
1, 44557, Note_off_c, 0, 58, 89
1, 44570, Note_on_c, 0, 57, 97
1, 44666, Note_off_c, 0, 57, 97
1, 44970, Note_on_c, 0, 66, 117
1, 45022, Note_off_c, 0, 66, 117
1, 45030, Note_on_c, 0, 69, 102
1, 45078, Note_off_c, 0, 69, 102
1, 45084, Note_on_c, 0, 66, 115
1, 45130, Note_off_c, 0, 66, 115
1, 45151, Note_on_c, 0, 65, 116
1, 45244, Note_off_c, 0, 65, 116
1, 45257, Note_on_c, 0, 64, 116
1, 45328, Note_off_c, 0, 64, 116
1, 45338, Note_on_c, 0, 63, 115
1, 45439, Note_off_c, 0, 63, 115
1, 45449, Note_on_c, 0, 55, 100
1, 45499, Note_off_c, 0, 55, 100
1, 45517, Note_on_c, 0, 60, 104
1, 45566, Note_off_c, 0, 60, 104
1, 45572, Note_on_c, 0, 63, 114
1, 45614, Note_off_c, 0, 63, 114
1, 45627, Note_on_c, 0, 67, 108
1, 45653, Note_off_c, 0, 67, 108
1, 45656, Note_on_c, 0, 69, 108
1, 45701, Note_off_c, 0, 69, 108
1, 45728, Note_on_c, 0, 76, 117
1, 45765, Note_off_c, 0, 76, 117
1, 45774, Note_on_c, 0, 77, 120
1, 45833, Note_off_c, 0, 77, 120
1, 45838, Note_on_c, 0, 75, 127
1, 45928, Note_off_c, 0, 75, 127
1, 46495, Note_on_c, 0, 65, 118
1, 46531, Note_off_c, 0, 65, 118
1, 46537, Note_on_c, 0, 66, 116
1, 46556, Note_off_c, 0, 66, 116
1, 46560, Note_on_c, 0, 65, 117
1, 46625, Note_off_c, 0, 65, 117
1, 46635, Note_on_c, 0, 63, 118
1, 46688, Note_off_c, 0, 63, 118
1, 46759, Note_on_c, 0, 71, 111
1, 46807, Note_off_c, 0, 71, 111
1, 46812, Note_on_c, 0, 74, 120
1, 46874, Note_off_c, 0, 74, 120
1, 46887, Note_on_c, 0, 72, 125
1, 46988, Note_off_c, 0, 72, 125
1, 47453, Note_on_c, 0, 65, 114
1, 47493, Note_off_c, 0, 65, 114
1, 47496, Note_on_c, 0, 67, 119
1, 47525, Note_off_c, 0, 67, 119
1, 47534, Note_on_c, 0, 65, 118
1, 47564, Note_off_c, 0, 65, 118
1, 47575, Note_on_c, 0, 63, 120
1, 47626, Note_off_c, 0, 63, 120
1, 47631, Note_on_c, 0, 62, 113
1, 47709, Note_off_c, 0, 62, 113
1, 47744, Note_on_c, 0, 57, 107
1, 47804, Note_off_c, 0, 57, 107
1, 47817, Note_on_c, 0, 62, 113
1, 47881, Note_off_c, 0, 62, 113
1, 47889, Note_on_c, 0, 66, 104
1, 47914, Note_off_c, 0, 66, 104
1, 47926, Note_on_c, 0, 69, 113
1, 47956, Note_off_c, 0, 69, 113
1, 47962, Note_on_c, 0, 70, 104
1, 47992, Note_off_c, 0, 70, 104
1, 48010, Note_on_c, 0, 72, 123
1, 48067, Note_off_c, 0, 72, 123
1, 48077, Note_on_c, 0, 69, 117
1, 48118, Note_off_c, 0, 69, 117
1, 48136, Note_on_c, 0, 66, 111
1, 48186, Note_off_c, 0, 66, 111
1, 48213, Note_on_c, 0, 64, 116
1, 48260, Note_off_c, 0, 64, 116
1, 48266, Note_on_c, 0, 63, 116
1, 48301, Note_off_c, 0, 63, 116
1, 48306, Note_on_c, 0, 62, 115
1, 48364, Note_off_c, 0, 62, 115
1, 48373, Note_on_c, 0, 61, 115
1, 48451, Note_off_c, 0, 61, 115
1, 48500, Note_on_c, 0, 72, 103
1, 48523, Note_off_c, 0, 72, 103
1, 48527, Note_on_c, 0, 71, 124
1, 48557, Note_off_c, 0, 71, 124
1, 48565, Note_on_c, 0, 68, 115
1, 48661, Note_off_c, 0, 68, 115
1, 48663, Note_on_c, 0, 69, 117
1, 48727, Note_off_c, 0, 69, 117
1, 48737, Note_on_c, 0, 70, 121
1, 48817, Note_off_c, 0, 70, 121
1, 48864, Note_on_c, 0, 54, 92
1, 48920, Note_off_c, 0, 54, 92
1, 48943, Note_on_c, 0, 55, 101
1, 49047, Note_off_c, 0, 55, 101
1, 49063, Note_on_c, 0, 57, 109
1, 49117, Note_off_c, 0, 57, 109
1, 49129, Note_on_c, 0, 60, 109
1, 49235, Note_off_c, 0, 60, 109
1, 49257, Note_on_c, 0, 62, 105
1, 49306, Note_off_c, 0, 62, 105
1, 49314, Note_on_c, 0, 63, 104
1, 49422, Note_off_c, 0, 63, 104
1, 49437, Note_on_c, 0, 65, 106
1, 49510, Note_off_c, 0, 65, 106
1, 49512, Note_on_c, 0, 66, 101
1, 49622, Note_off_c, 0, 66, 101
1, 49640, Note_on_c, 0, 63, 111
1, 49693, Note_off_c, 0, 63, 111
1, 50004, Note_on_c, 0, 63, 112
1, 50094, Note_off_c, 0, 63, 112
1, 50100, Note_on_c, 0, 65, 118
1, 50450, Note_off_c, 0, 65, 118
1, 50490, Note_on_c, 0, 70, 122
1, 50583, Note_off_c, 0, 70, 122
1, 50604, Note_on_c, 0, 71, 109
1, 50658, Note_off_c, 0, 71, 109
1, 50681, Note_on_c, 0, 64, 117
1, 50768, Note_off_c, 0, 64, 117
1, 50778, Note_on_c, 0, 63, 112
1, 50857, Note_off_c, 0, 63, 112
1, 50875, Note_on_c, 0, 61, 112
1, 50967, Note_off_c, 0, 61, 112
1, 50971, Note_on_c, 0, 58, 94
1, 51158, Note_off_c, 0, 58, 94
1, 51250, Note_on_c, 0, 55, 104
1, 51342, Note_off_c, 0, 55, 104
1, 51350, Note_on_c, 0, 58, 104
1, 51418, Note_off_c, 0, 58, 104
1, 51430, Note_on_c, 0, 61, 110
1, 51518, Note_off_c, 0, 61, 110
1, 51530, Note_on_c, 0, 62, 110
1, 51589, Note_off_c, 0, 62, 110
1, 51601, Note_on_c, 0, 63, 110
1, 51710, Note_off_c, 0, 63, 110
1, 51722, Note_on_c, 0, 61, 103
1, 51793, Note_off_c, 0, 61, 103
1, 51803, Note_on_c, 0, 62, 98
1, 51878, Note_off_c, 0, 62, 98
1, 51878, End_track
0, 0, End_of_file
