0, 0, Header, 1, 1, 192
1, 0, Start_track
1, 0, Title_t, "Melody"
1, 0, Tempo, 242914
1, 0, Key_signature, -5, "major"
1, 0, Time_signature, 4, 2, 24, 8
1, 792, Note_on_c, 0, 56, 108
1, 883, Note_off_c, 0, 56, 108
1, 915, Note_on_c, 0, 58, 103
1, 974, Note_off_c, 0, 58, 103
1, 987, Note_on_c, 0, 60, 102
1, 1069, Note_off_c, 0, 60, 102
1, 1094, Note_on_c, 0, 61, 100
1, 1167, Note_off_c, 0, 61, 100
1, 1171, Note_on_c, 0, 63, 105
1, 1255, Note_off_c, 0, 63, 105
1, 1298, Note_on_c, 0, 65, 92
1, 1343, Note_off_c, 0, 65, 92
1, 1349, Note_on_c, 0, 66, 111
1, 1463, Note_off_c, 0, 66, 111
1, 1481, Note_on_c, 0, 63, 97
1, 1540, Note_off_c, 0, 63, 97
1, 1540, Note_on_c, 0, 65, 107
1, 1634, Note_off_c, 0, 65, 107
1, 1659, Note_on_c, 0, 61, 112
1, 1743, Note_off_c, 0, 61, 112
1, 1743, Note_on_c, 0, 56, 106
1, 1837, Note_off_c, 0, 56, 106
1, 1862, Note_on_c, 0, 58, 101
1, 1942, Note_off_c, 0, 58, 101
1, 1942, Note_on_c, 0, 61, 99
1, 2045, Note_off_c, 0, 61, 99
1, 2047, Note_on_c, 0, 60, 91
1, 2097, Note_off_c, 0, 60, 91
1, 2124, Note_on_c, 0, 61, 105
1, 2585, Note_off_c, 0, 61, 105
1, 2614, Note_on_c, 0, 57, 101
1, 2689, Note_off_c, 0, 57, 101
1, 2695, Note_on_c, 0, 54, 96
1, 2793, Note_off_c, 0, 54, 96
1, 2813, Note_on_c, 0, 52, 82
1, 2868, Note_off_c, 0, 52, 82
1, 2909, Note_on_c, 0, 53, 94
1, 2982, Note_off_c, 0, 53, 94
1, 3002, Note_on_c, 0, 56, 98
1, 3057, Note_off_c, 0, 56, 98
1, 3082, Note_on_c, 0, 58, 97
1, 3166, Note_off_c, 0, 58, 97
1, 3177, Note_on_c, 0, 56, 93
1, 3229, Note_off_c, 0, 56, 93
1, 3291, Note_on_c, 0, 61, 96
1, 3355, Note_off_c, 0, 61, 96
1, 3396, Note_on_c, 0, 58, 87
1, 3463, Note_off_c, 0, 58, 87
1, 4217, Note_on_c, 0, 58, 95
1, 4311, Note_off_c, 0, 58, 95
1, 4315, Note_on_c, 0, 56, 98
1, 4386, Note_off_c, 0, 56, 98
1, 4388, Note_on_c, 0, 55, 103
1, 4500, Note_off_c, 0, 55, 103
1, 4561, Note_on_c, 0, 59, 96
1, 4641, Note_off_c, 0, 59, 96
1, 4661, Note_on_c, 0, 63, 101
1, 4736, Note_off_c, 0, 63, 101
1, 4736, Note_on_c, 0, 62, 98
1, 4836, Note_off_c, 0, 62, 98
1, 4936, Note_on_c, 0, 61, 109
1, 5192, Note_off_c, 0, 61, 109
1, 5237, Note_on_c, 0, 58, 98
1, 5315, Note_off_c, 0, 58, 98
1, 5324, Note_on_c, 0, 55, 87
1, 5496, Note_off_c, 0, 55, 87
1, 5496, Note_on_c, 0, 56, 102
1, 5551, Note_off_c, 0, 56, 102
1, 5569, Note_on_c, 0, 57, 96
1, 5603, Note_off_c, 0, 57, 96
1, 5612, Note_on_c, 0, 58, 93
1, 5637, Note_off_c, 0, 58, 93
1, 5655, Note_on_c, 0, 59, 94
1, 5696, Note_off_c, 0, 59, 94
1, 5702, Note_on_c, 0, 60, 87
1, 6098, Note_off_c, 0, 60, 87
1, 6115, Note_on_c, 0, 56, 89
1, 6176, Note_off_c, 0, 56, 89
1, 6209, Note_on_c, 0, 53, 85
1, 6267, Note_off_c, 0, 53, 85
1, 6302, Note_on_c, 0, 56, 92
1, 6563, Note_off_c, 0, 56, 92
1, 7250, Note_on_c, 0, 56, 104
1, 7322, Note_off_c, 0, 56, 104
1, 7355, Note_on_c, 0, 59, 89
1, 7403, Note_off_c, 0, 59, 89
1, 7419, Note_on_c, 0, 62, 105
1, 7493, Note_off_c, 0, 62, 105
1, 7509, Note_on_c, 0, 65, 112
1, 7596, Note_off_c, 0, 65, 112
1, 7600, Note_on_c, 0, 64, 105
1, 7674, Note_off_c, 0, 64, 105
1, 7674, Note_on_c, 0, 62, 88
1, 7767, Note_off_c, 0, 62, 88
1, 7775, Note_on_c, 0, 63, 103
1, 7902, Note_off_c, 0, 63, 103
1, 7919, Note_on_c, 0, 65, 97
1, 7959, Note_off_c, 0, 65, 97
1, 7960, Note_on_c, 0, 66, 99
1, 8093, Note_off_c, 0, 66, 99
1, 8099, Note_on_c, 0, 64, 87
1, 8149, Note_off_c, 0, 64, 87
1, 8153, Note_on_c, 0, 65, 109
1, 8240, Note_off_c, 0, 65, 109
1, 8265, Note_on_c, 0, 61, 94
1, 8331, Note_off_c, 0, 61, 94
1, 8337, Note_on_c, 0, 56, 91
1, 8387, Note_off_c, 0, 56, 91
1, 8507, Note_on_c, 0, 61, 104
1, 8574, Note_off_c, 0, 61, 104
1, 8693, Note_on_c, 0, 61, 105
1, 8775, Note_off_c, 0, 61, 105
1, 8844, Note_on_c, 0, 63, 97
1, 8881, Note_off_c, 0, 63, 97
1, 8906, Note_on_c, 0, 65, 116
1, 8989, Note_off_c, 0, 65, 116
1, 8989, Note_on_c, 0, 68, 109
1, 9056, Note_off_c, 0, 68, 109
1, 9059, Note_on_c, 0, 65, 99
1, 9120, Note_off_c, 0, 65, 99
1, 9224, Note_on_c, 0, 63, 110
1, 9348, Note_off_c, 0, 63, 110
1, 9354, Note_on_c, 0, 64, 111
1, 9495, Note_off_c, 0, 64, 111
1, 9503, Note_on_c, 0, 65, 113
1, 9722, Note_off_c, 0, 65, 113
1, 9731, Note_on_c, 0, 61, 107
1, 9792, Note_off_c, 0, 61, 107
1, 9798, Note_on_c, 0, 60, 92
1, 9865, Note_off_c, 0, 60, 92
1, 9927, Note_on_c, 0, 58, 86
1, 9978, Note_off_c, 0, 58, 86
1, 9979, Note_on_c, 0, 60, 102
1, 10043, Note_off_c, 0, 60, 102
1, 10394, Note_on_c, 0, 59, 97
1, 10463, Note_off_c, 0, 59, 97
1, 10490, Note_on_c, 0, 56, 92
1, 10565, Note_on_c, 0, 53, 79
1, 10565, Note_off_c, 0, 56, 92
1, 10655, Note_off_c, 0, 53, 79
1, 11309, Note_on_c, 0, 58, 104
1, 11394, Note_off_c, 0, 58, 104
1, 11413, Note_on_c, 0, 54, 96
1, 11487, Note_off_c, 0, 54, 96
1, 11490, Note_on_c, 0, 53, 88
1, 11599, Note_off_c, 0, 53, 88
1, 11628, Note_on_c, 0, 51, 97
1, 11684, Note_off_c, 0, 51, 97
1, 11693, Note_on_c, 0, 50, 99
1, 11807, Note_off_c, 0, 50, 99
1, 11827, Note_on_c, 0, 52, 91
1, 11860, Note_off_c, 0, 52, 91
1, 11874, Note_on_c, 0, 54, 99
1, 11972, Note_off_c, 0, 54, 99
1, 11989, Note_on_c, 0, 57, 107
1, 12068, Note_off_c, 0, 57, 107
1, 12085, Note_on_c, 0, 60, 101
1, 12165, Note_off_c, 0, 60, 101
1, 12171, Note_on_c, 0, 65, 109
1, 12256, Note_off_c, 0, 65, 109
1, 12256, Note_on_c, 0, 64, 97
1, 12339, Note_off_c, 0, 64, 97
1, 12355, Note_on_c, 0, 62, 87
1, 12398, Note_off_c, 0, 62, 87
1, 12398, Note_on_c, 0, 63, 105
1, 12520, Note_off_c, 0, 63, 105
1, 12528, Note_on_c, 0, 60, 95
1, 12568, Note_off_c, 0, 60, 95
1, 12584, Note_on_c, 0, 61, 108
1, 12675, Note_off_c, 0, 61, 108
1, 12702, Note_on_c, 0, 56, 106
1, 12772, Note_off_c, 0, 56, 106
1, 12791, Note_on_c, 0, 54, 98
1, 12831, Note_off_c, 0, 54, 98
1, 12837, Note_on_c, 0, 53, 90
1, 12925, Note_off_c, 0, 53, 90
1, 12950, Note_on_c, 0, 51, 97
1, 12991, Note_off_c, 0, 51, 97
1, 12999, Note_on_c, 0, 50, 104
1, 13100, Note_off_c, 0, 50, 104
1, 13270, Note_on_c, 0, 59, 102
1, 13518, Note_off_c, 0, 59, 102
1, 13529, Note_on_c, 0, 56, 105
1, 13603, Note_off_c, 0, 56, 105
1, 13648, Note_on_c, 0, 57, 105
1, 13698, Note_off_c, 0, 57, 105
1, 13714, Note_on_c, 0, 58, 101
1, 13825, Note_off_c, 0, 58, 101
1, 13854, Note_on_c, 0, 61, 107
1, 13913, Note_off_c, 0, 61, 107
1, 13935, Note_on_c, 0, 63, 99
1, 14012, Note_off_c, 0, 63, 99
1, 14044, Note_on_c, 0, 61, 88
1, 14106, Note_on_c, 0, 64, 115
1, 14106, Note_off_c, 0, 61, 88
1, 14212, Note_off_c, 0, 64, 115
1, 14229, Note_on_c, 0, 61, 100
1, 14309, Note_off_c, 0, 61, 100
1, 14689, Note_on_c, 0, 68, 123
1, 14776, Note_off_c, 0, 68, 123
1, 14800, Note_on_c, 0, 66, 111
1, 14875, Note_on_c, 0, 64, 106
1, 14875, Note_off_c, 0, 66, 111
1, 14954, Note_off_c, 0, 64, 106
1, 14974, Note_on_c, 0, 61, 92
1, 15022, Note_off_c, 0, 61, 92
1, 15033, Note_on_c, 0, 62, 111
1, 15174, Note_off_c, 0, 62, 111
1, 15180, Note_on_c, 0, 63, 112
1, 15323, Note_off_c, 0, 63, 112
1, 15342, Note_on_c, 0, 61, 110
1, 15419, Note_off_c, 0, 61, 110
1, 15443, Note_on_c, 0, 57, 105
1, 15504, Note_off_c, 0, 57, 105
1, 15552, Note_on_c, 0, 54, 86
1, 15603, Note_off_c, 0, 54, 86
1, 15785, Note_on_c, 0, 59, 107
1, 15881, Note_off_c, 0, 59, 107
1, 15892, Note_on_c, 0, 56, 96
1, 15961, Note_off_c, 0, 56, 96
1, 15973, Note_on_c, 0, 57, 112
1, 16074, Note_off_c, 0, 57, 112
1, 16096, Note_on_c, 0, 59, 97
1, 16150, Note_off_c, 0, 59, 97
1, 16162, Note_on_c, 0, 61, 110
1, 16232, Note_off_c, 0, 61, 110
1, 16246, Note_on_c, 0, 66, 103
1, 16305, Note_off_c, 0, 66, 103
1, 16316, Note_on_c, 0, 63, 97
1, 16372, Note_off_c, 0, 63, 97
1, 16523, Note_on_c, 0, 63, 109
1, 16776, Note_off_c, 0, 63, 109
1, 16837, Note_on_c, 0, 62, 94
1, 16967, Note_off_c, 0, 62, 94
1, 16979, Note_on_c, 0, 63, 94
1, 17066, Note_off_c, 0, 63, 94
1, 17072, Note_on_c, 0, 64, 110
1, 17142, Note_off_c, 0, 64, 110
1, 17187, Note_on_c, 0, 61, 91
1, 17251, Note_off_c, 0, 61, 91
1, 17276, Note_on_c, 0, 57, 100
1, 17334, Note_off_c, 0, 57, 100
1, 17382, Note_on_c, 0, 56, 92
1, 17451, Note_off_c, 0, 56, 92
1, 17462, Note_on_c, 0, 61, 105
1, 17537, Note_off_c, 0, 61, 105
1, 17575, Note_on_c, 0, 59, 92
1, 17644, Note_off_c, 0, 59, 92
1, 18153, Note_on_c, 0, 69, 120
1, 18303, Note_off_c, 0, 69, 120
1, 18333, Note_on_c, 0, 67, 109
1, 18395, Note_off_c, 0, 67, 109
1, 18509, Note_on_c, 0, 59, 90
1, 18563, Note_off_c, 0, 59, 90
1, 18567, Note_on_c, 0, 66, 119
1, 18683, Note_off_c, 0, 66, 119
1, 18707, Note_on_c, 0, 64, 114
1, 18792, Note_off_c, 0, 64, 114
1, 18904, Note_on_c, 0, 65, 111
1, 18942, Note_off_c, 0, 65, 111
1, 18948, Note_on_c, 0, 67, 124
1, 18985, Note_off_c, 0, 67, 124
1, 19001, Note_on_c, 0, 68, 115
1, 19084, Note_off_c, 0, 68, 115
1, 19095, Note_on_c, 0, 66, 98
1, 19219, Note_off_c, 0, 66, 98
1, 19272, Note_on_c, 0, 57, 94
1, 19328, Note_off_c, 0, 57, 94
1, 19352, Note_on_c, 0, 65, 111
1, 19476, Note_off_c, 0, 65, 111
1, 19477, Note_on_c, 0, 63, 91
1, 19704, Note_off_c, 0, 63, 91
1, 19984, Note_on_c, 0, 63, 116
1, 20071, Note_off_c, 0, 63, 116
1, 20091, Note_on_c, 0, 65, 106
1, 20178, Note_off_c, 0, 65, 106
1, 20178, Note_on_c, 0, 68, 99
1, 20260, Note_off_c, 0, 68, 99
1, 20260, Note_on_c, 0, 64, 105
1, 20324, Note_off_c, 0, 64, 105
1, 20364, Note_on_c, 0, 61, 94
1, 20431, Note_off_c, 0, 61, 94
1, 20437, Note_on_c, 0, 63, 113
1, 20546, Note_off_c, 0, 63, 113
1, 20547, Note_on_c, 0, 61, 96
1, 20632, Note_off_c, 0, 61, 96
1, 20635, Note_on_c, 0, 60, 94
1, 20702, Note_off_c, 0, 60, 94
1, 20721, Note_on_c, 0, 61, 86
1, 20800, Note_off_c, 0, 61, 86
1, 20806, Note_on_c, 0, 69, 126
1, 20873, Note_on_c, 0, 70, 124
1, 20873, Note_off_c, 0, 69, 126
1, 20898, Note_off_c, 0, 70, 124
1, 20904, Note_on_c, 0, 71, 111
1, 20920, Note_off_c, 0, 71, 111
1, 20926, Note_on_c, 0, 72, 122
1, 21322, Note_off_c, 0, 72, 122
1, 21323, Note_on_c, 0, 68, 109
1, 21393, Note_off_c, 0, 68, 109
1, 21407, Note_on_c, 0, 65, 110
1, 21511, Note_off_c, 0, 65, 110
1, 21511, Note_on_c, 0, 68, 117
1, 21620, Note_off_c, 0, 68, 117
1, 21702, Note_on_c, 0, 65, 106
1, 21774, Note_off_c, 0, 65, 106
1, 21794, Note_on_c, 0, 60, 96
1, 21887, Note_off_c, 0, 60, 96
1, 21888, Note_on_c, 0, 65, 111
1, 21960, Note_off_c, 0, 65, 111
1, 22071, Note_on_c, 0, 60, 93
1, 22130, Note_off_c, 0, 60, 93
1, 22157, Note_on_c, 0, 56, 92
1, 22237, Note_off_c, 0, 56, 92
1, 22264, Note_on_c, 0, 54, 85
1, 22315, Note_off_c, 0, 54, 85
1, 22315, Note_on_c, 0, 55, 107
1, 22427, Note_off_c, 0, 55, 107
1, 22517, Note_on_c, 0, 64, 103
1, 22602, Note_off_c, 0, 64, 103
1, 22626, Note_on_c, 0, 63, 91
1, 22671, Note_off_c, 0, 63, 91
1, 22671, Note_on_c, 0, 64, 97
1, 22709, Note_off_c, 0, 64, 97
1, 22726, Note_on_c, 0, 63, 88
1, 22792, Note_off_c, 0, 63, 88
1, 23253, Note_on_c, 0, 63, 102
1, 23344, Note_off_c, 0, 63, 102
1, 23389, Note_on_c, 0, 61, 95
1, 23439, Note_off_c, 0, 61, 95
1, 23439, Note_on_c, 0, 60, 100
1, 23490, Note_off_c, 0, 60, 100
1, 23607, Note_on_c, 0, 57, 104
1, 23916, Note_off_c, 0, 57, 104
1, 23953, Note_on_c, 0, 65, 116
1, 24025, Note_off_c, 0, 65, 116
1, 24026, Note_on_c, 0, 64, 95
1, 24105, Note_off_c, 0, 64, 95
1, 24125, Note_on_c, 0, 62, 88
1, 24183, Note_off_c, 0, 62, 88
1, 24210, Note_on_c, 0, 63, 109
1, 24289, Note_off_c, 0, 63, 109
1, 24319, Note_on_c, 0, 61, 95
1, 24396, Note_off_c, 0, 61, 95
1, 24412, Note_on_c, 0, 56, 98
1, 24487, Note_off_c, 0, 56, 98
1, 24511, Note_on_c, 0, 54, 86
1, 24581, Note_off_c, 0, 54, 86
1, 24601, Note_on_c, 0, 53, 102
1, 24707, Note_off_c, 0, 53, 102
1, 24761, Note_on_c, 0, 54, 107
1, 24888, Note_off_c, 0, 54, 107
1, 24902, Note_on_c, 0, 52, 90
1, 24964, Note_off_c, 0, 52, 90
1, 24973, Note_on_c, 0, 53, 101
1, 25064, Note_off_c, 0, 53, 101
1, 25286, Note_on_c, 0, 59, 90
1, 25334, Note_off_c, 0, 59, 90
1, 25334, Note_on_c, 0, 64, 107
1, 25429, Note_off_c, 0, 64, 107
1, 25441, Note_on_c, 0, 65, 102
1, 25518, Note_off_c, 0, 65, 102
1, 25527, Note_on_c, 0, 66, 106
1, 25617, Note_off_c, 0, 66, 106
1, 25626, Note_on_c, 0, 67, 107
1, 25698, Note_off_c, 0, 67, 107
1, 25702, Note_on_c, 0, 68, 108
1, 25781, Note_off_c, 0, 68, 108
1, 25829, Note_on_c, 0, 61, 99
1, 25901, Note_off_c, 0, 61, 99
1, 26489, Note_on_c, 0, 68, 111
1, 26592, Note_off_c, 0, 68, 111
1, 26592, Note_on_c, 0, 70, 120
1, 26683, Note_off_c, 0, 70, 120
1, 26683, Note_on_c, 0, 68, 111
1, 26753, Note_off_c, 0, 68, 111
1, 26767, Note_on_c, 0, 65, 108
1, 26844, Note_off_c, 0, 65, 108
1, 26861, Note_on_c, 0, 63, 102
1, 26961, Note_off_c, 0, 63, 102
1, 26962, Note_on_c, 0, 61, 93
1, 27026, Note_off_c, 0, 61, 93
1, 27037, Note_on_c, 0, 58, 96
1, 27119, Note_off_c, 0, 58, 96
1, 27141, Note_on_c, 0, 55, 90
1, 27213, Note_off_c, 0, 55, 90
1, 27248, Note_on_c, 0, 59, 98
1, 27318, Note_off_c, 0, 59, 98
1, 27318, Note_on_c, 0, 60, 94
1, 27369, Note_off_c, 0, 60, 94
1, 27369, Note_on_c, 0, 61, 96
1, 27581, Note_off_c, 0, 61, 96
1, 27581, Note_on_c, 0, 60, 95
1, 27662, Note_off_c, 0, 60, 95
1, 27662, Note_on_c, 0, 61, 97
1, 27781, Note_off_c, 0, 61, 97
1, 28008, Note_on_c, 0, 61, 109
1, 28102, Note_off_c, 0, 61, 109
1, 28131, Note_on_c, 0, 61, 102
1, 28292, Note_off_c, 0, 61, 102
1, 28317, Note_on_c, 0, 62, 104
1, 28546, Note_off_c, 0, 62, 104
1, 29240, Note_on_c, 0, 58, 111
1, 29297, Note_off_c, 0, 58, 111
1, 29313, Note_on_c, 0, 62, 118
1, 29393, Note_off_c, 0, 62, 118
1, 29427, Note_on_c, 0, 65, 117
1, 29498, Note_off_c, 0, 65, 117
1, 29507, Note_on_c, 0, 63, 108
1, 29598, Note_off_c, 0, 63, 108
1, 29616, Note_on_c, 0, 61, 98
1, 29691, Note_off_c, 0, 61, 98
1, 29695, Note_on_c, 0, 60, 103
1, 29825, Note_off_c, 0, 60, 103
1, 29838, Note_on_c, 0, 58, 103
1, 29877, Note_off_c, 0, 58, 103
1, 29877, Note_on_c, 0, 56, 101
1, 29964, Note_off_c, 0, 56, 101
1, 30092, Note_on_c, 0, 58, 100
1, 30160, Note_off_c, 0, 58, 100
1, 30160, Note_on_c, 0, 55, 107
1, 30240, Note_off_c, 0, 55, 107
1, 30253, Note_on_c, 0, 56, 102
1, 30344, Note_off_c, 0, 56, 102
1, 30364, Note_on_c, 0, 53, 95
1, 30439, Note_off_c, 0, 53, 95
1, 30833, Note_on_c, 0, 56, 102
1, 30943, Note_off_c, 0, 56, 102
1, 30943, Note_on_c, 0, 59, 95
1, 31000, Note_off_c, 0, 59, 95
1, 31000, Note_on_c, 0, 62, 102
1, 31052, Note_off_c, 0, 62, 102
1, 31107, Note_on_c, 0, 65, 102
1, 31185, Note_off_c, 0, 65, 102
1, 31196, Note_on_c, 0, 64, 91
1, 31296, Note_off_c, 0, 64, 91
1, 31367, Note_on_c, 0, 63, 106
1, 31474, Note_off_c, 0, 63, 106
1, 31492, Note_on_c, 0, 60, 91
1, 31537, Note_off_c, 0, 60, 91
1, 31543, Note_on_c, 0, 61, 104
1, 31662, Note_off_c, 0, 61, 104
1, 31673, Note_on_c, 0, 58, 98
1, 31721, Note_off_c, 0, 58, 98
1, 31727, Note_on_c, 0, 59, 93
1, 31821, Note_off_c, 0, 59, 93
1, 31942, Note_on_c, 0, 58, 96
1, 32029, Note_off_c, 0, 58, 96
1, 32352, Note_on_c, 0, 54, 95
1, 32485, Note_on_c, 0, 52, 88
1, 32485, Note_off_c, 0, 54, 95
1, 32542, Note_off_c, 0, 52, 88
1, 32546, Note_on_c, 0, 53, 92
1, 32630, Note_off_c, 0, 53, 92
1, 32696, Note_on_c, 0, 58, 96
1, 32783, Note_off_c, 0, 58, 96
1, 32799, Note_on_c, 0, 55, 93
1, 32840, Note_off_c, 0, 55, 93
1, 32860, Note_on_c, 0, 56, 92
1, 32977, Note_off_c, 0, 56, 92
1, 33685, Note_on_c, 0, 68, 118
1, 33772, Note_off_c, 0, 68, 118
1, 33772, Note_on_c, 0, 70, 118
1, 33845, Note_off_c, 0, 70, 118
1, 33845, Note_on_c, 0, 68, 117
1, 33927, Note_off_c, 0, 68, 117
1, 33975, Note_on_c, 0, 65, 113
1, 34053, Note_off_c, 0, 65, 113
1, 34053, Note_on_c, 0, 63, 115
1, 34142, Note_off_c, 0, 63, 115
1, 34162, Note_on_c, 0, 61, 103
1, 34221, Note_off_c, 0, 61, 103
1, 34232, Note_on_c, 0, 60, 107
1, 34305, Note_off_c, 0, 60, 107
1, 34323, Note_on_c, 0, 56, 106
1, 34407, Note_off_c, 0, 56, 106
1, 34425, Note_on_c, 0, 58, 98
1, 34489, Note_off_c, 0, 58, 98
1, 34502, Note_on_c, 0, 63, 101
1, 34531, Note_off_c, 0, 63, 101
1, 34540, Note_on_c, 0, 68, 104
1, 34574, Note_off_c, 0, 68, 104
1, 34582, Note_on_c, 0, 70, 101
1, 34643, Note_off_c, 0, 70, 101
1, 34655, Note_on_c, 0, 72, 125
1, 34858, Note_off_c, 0, 72, 125
1, 35762, Note_on_c, 0, 72, 127
1, 35840, Note_off_c, 0, 72, 127
1, 35853, Note_on_c, 0, 73, 123
1, 35921, Note_off_c, 0, 73, 123
1, 35941, Note_on_c, 0, 73, 125
1, 36025, Note_off_c, 0, 73, 125
1, 36176, Note_on_c, 0, 67, 112
1, 36224, Note_off_c, 0, 67, 112
1, 36237, Note_on_c, 0, 68, 101
1, 36305, Note_off_c, 0, 68, 101
1, 36305, Note_on_c, 0, 63, 97
1, 36348, Note_off_c, 0, 63, 97
1, 36350, Note_on_c, 0, 65, 111
1, 36421, Note_off_c, 0, 65, 111
1, 36439, Note_on_c, 0, 60, 103
1, 36468, Note_off_c, 0, 60, 103
1, 36468, Note_on_c, 0, 61, 106
1, 36546, Note_off_c, 0, 61, 106
1, 36557, Note_on_c, 0, 54, 99
1, 36584, Note_off_c, 0, 54, 99
1, 36588, Note_on_c, 0, 55, 102
1, 36652, Note_off_c, 0, 55, 102
1, 36709, Note_on_c, 0, 53, 90
1, 36796, Note_off_c, 0, 53, 90
1, 36821, Note_on_c, 0, 49, 97
1, 36892, Note_off_c, 0, 49, 97
1, 36908, Note_on_c, 0, 49, 104
1, 36967, Note_off_c, 0, 49, 104
1, 37095, Note_on_c, 0, 57, 115
1, 37134, Note_off_c, 0, 57, 115
1, 37145, Note_on_c, 0, 58, 104
1, 37785, Note_off_c, 0, 58, 104
1, 37805, Note_on_c, 0, 56, 109
1, 37850, Note_off_c, 0, 56, 109
1, 37850, Note_on_c, 0, 55, 110
1, 37944, Note_off_c, 0, 55, 110
1, 38019, Note_on_c, 0, 52, 105
1, 38092, Note_off_c, 0, 52, 105
1, 38098, Note_on_c, 0, 53, 96
1, 38153, Note_off_c, 0, 53, 96
1, 38180, Note_on_c, 0, 58, 91
1, 38228, Note_off_c, 0, 58, 91
1, 38244, Note_on_c, 0, 61, 100
1, 38331, Note_off_c, 0, 61, 100
1, 38349, Note_on_c, 0, 63, 100
1, 38422, Note_off_c, 0, 63, 100
1, 38444, Note_on_c, 0, 64, 98
1, 38535, Note_off_c, 0, 64, 98
1, 38535, Note_on_c, 0, 61, 92
1, 38608, Note_off_c, 0, 61, 92
1, 38608, Note_on_c, 0, 58, 84
1, 38681, Note_off_c, 0, 58, 84
1, 38784, Note_on_c, 0, 63, 91
1, 38857, Note_on_c, 0, 64, 99
1, 38857, Note_off_c, 0, 63, 91
1, 38964, Note_off_c, 0, 64, 99
1, 38982, Note_on_c, 0, 61, 95
1, 39062, Note_off_c, 0, 61, 95
1, 39725, Note_on_c, 0, 64, 109
1, 39819, Note_off_c, 0, 64, 109
1, 39821, Note_on_c, 0, 61, 112
1, 39885, Note_off_c, 0, 61, 112
1, 39898, Note_on_c, 0, 63, 113
1, 39998, Note_off_c, 0, 63, 113
1, 40011, Note_on_c, 0, 61, 104
1, 40079, Note_off_c, 0, 61, 104
1, 40079, Note_on_c, 0, 60, 96
1, 40161, Note_off_c, 0, 60, 96
1, 40179, Note_on_c, 0, 61, 88
1, 40245, Note_off_c, 0, 61, 88
1, 40256, Note_on_c, 0, 69, 119
1, 40338, Note_off_c, 0, 69, 119
1, 40354, Note_on_c, 0, 68, 115
1, 40418, Note_off_c, 0, 68, 115
1, 40438, Note_on_c, 0, 67, 113
1, 40513, Note_off_c, 0, 67, 113
1, 40522, Note_on_c, 0, 66, 110
1, 40586, Note_off_c, 0, 66, 110
1, 40595, Note_on_c, 0, 65, 102
1, 40831, Note_off_c, 0, 65, 102
1, 40833, Note_on_c, 0, 64, 102
1, 40899, Note_off_c, 0, 64, 102
1, 41607, Note_on_c, 0, 66, 111
1, 41685, Note_off_c, 0, 66, 111
1, 41685, Note_on_c, 0, 65, 108
1, 41781, Note_off_c, 0, 65, 108
1, 41783, Note_on_c, 0, 64, 106
1, 41863, Note_off_c, 0, 64, 106
1, 41906, Note_on_c, 0, 62, 107
1, 41972, Note_off_c, 0, 62, 107
1, 41974, Note_on_c, 0, 57, 106
1, 42049, Note_off_c, 0, 57, 106
1, 42090, Note_on_c, 0, 54, 93
1, 42163, Note_off_c, 0, 54, 93
1, 42183, Note_on_c, 0, 52, 101
1, 42261, Note_off_c, 0, 52, 101
1, 42327, Note_on_c, 0, 57, 102
1, 42423, Note_off_c, 0, 57, 102
1, 42464, Note_on_c, 0, 54, 98
1, 42535, Note_off_c, 0, 54, 98
1, 42658, Note_on_c, 0, 57, 101
1, 42678, Note_off_c, 0, 57, 101
1, 42689, Note_on_c, 0, 58, 93
1, 42716, Note_off_c, 0, 58, 93
1, 42729, Note_on_c, 0, 61, 99
1, 42818, Note_off_c, 0, 61, 99
1, 42859, Note_on_c, 0, 65, 85
1, 42904, Note_off_c, 0, 65, 85
1, 42906, Note_on_c, 0, 67, 114
1, 43034, Note_off_c, 0, 67, 114
1, 43034, Note_on_c, 0, 65, 101
1, 43109, Note_off_c, 0, 65, 101
1, 43134, Note_on_c, 0, 64, 87
1, 43218, Note_off_c, 0, 64, 87
1, 43222, Note_on_c, 0, 65, 93
1, 43295, Note_off_c, 0, 65, 93
1, 43304, Note_on_c, 0, 66, 110
1, 43381, Note_off_c, 0, 66, 110
1, 43393, Note_on_c, 0, 61, 95
1, 43483, Note_off_c, 0, 61, 95
1, 43568, Note_on_c, 0, 63, 112
1, 43623, Note_on_c, 0, 65, 100
1, 43623, Note_off_c, 0, 63, 112
1, 43712, Note_off_c, 0, 65, 100
1, 43767, Note_on_c, 0, 64, 88
1, 43822, Note_off_c, 0, 64, 88
1, 43822, Note_on_c, 0, 65, 104
1, 43916, Note_off_c, 0, 65, 104
1, 43943, Note_on_c, 0, 64, 98
1, 44007, Note_off_c, 0, 64, 98
1, 44007, Note_on_c, 0, 65, 108
1, 44098, Note_off_c, 0, 65, 108
1, 44118, Note_on_c, 0, 61, 89
1, 44175, Note_off_c, 0, 61, 89
1, 44214, Note_on_c, 0, 56, 92
1, 44294, Note_off_c, 0, 56, 92
1, 44337, Note_on_c, 0, 54, 80
1, 44392, Note_off_c, 0, 54, 80
1, 44394, Note_on_c, 0, 53, 79
1, 44478, Note_off_c, 0, 53, 79
1, 44560, Note_on_c, 0, 58, 103
1, 44638, Note_off_c, 0, 58, 103
1, 44702, Note_on_c, 0, 55, 91
1, 44775, Note_off_c, 0, 55, 91
1, 44781, Note_on_c, 0, 56, 100
1, 44863, Note_off_c, 0, 56, 100
1, 44899, Note_on_c, 0, 58, 96
1, 44963, Note_off_c, 0, 58, 96
1, 44976, Note_on_c, 0, 60, 99
1, 45008, Note_off_c, 0, 60, 99
1, 45028, Note_on_c, 0, 61, 87
1, 45067, Note_on_c, 0, 62, 86
1, 45067, Note_off_c, 0, 61, 87
1, 45115, Note_off_c, 0, 62, 86
1, 45115, Note_on_c, 0, 63, 98
1, 45284, Note_off_c, 0, 63, 98
1, 45284, Note_on_c, 0, 60, 91
1, 45339, Note_off_c, 0, 60, 91
1, 45859, Note_on_c, 0, 63, 99
1, 46063, Note_off_c, 0, 63, 99
1, 46118, Note_on_c, 0, 60, 95
1, 46196, Note_off_c, 0, 60, 95
1, 46235, Note_on_c, 0, 63, 107
1, 46306, Note_off_c, 0, 63, 107
1, 46324, Note_on_c, 0, 62, 97
1, 46424, Note_off_c, 0, 62, 97
1, 46444, Note_on_c, 0, 60, 93
1, 46505, Note_off_c, 0, 60, 93
1, 46507, Note_on_c, 0, 55, 96
1, 46571, Note_off_c, 0, 55, 96
1, 46676, Note_on_c, 0, 54, 92
1, 46813, Note_off_c, 0, 54, 92
1, 46975, Note_on_c, 0, 58, 109
1, 47032, Note_off_c, 0, 58, 109
1, 47052, Note_on_c, 0, 61, 118
1, 47116, Note_off_c, 0, 61, 118
1, 47143, Note_on_c, 0, 58, 104
1, 47241, Note_off_c, 0, 58, 104
1, 47617, Note_on_c, 0, 61, 114
1, 47711, Note_off_c, 0, 61, 114
1, 47740, Note_on_c, 0, 57, 108
1, 47792, Note_off_c, 0, 57, 108
1, 47796, Note_on_c, 0, 58, 113
1, 47867, Note_off_c, 0, 58, 113
1, 47889, Note_on_c, 0, 59, 117
1, 48047, Note_off_c, 0, 59, 117
1, 48067, Note_on_c, 0, 60, 108
1, 48319, Note_off_c, 0, 60, 108
1, 48323, Note_on_c, 0, 56, 111
1, 48430, Note_off_c, 0, 56, 111
1, 48466, Note_on_c, 0, 53, 98
1, 48548, Note_off_c, 0, 53, 98
1, 48596, Note_on_c, 0, 56, 113
1, 48742, Note_off_c, 0, 56, 113
1, 48916, Note_on_c, 0, 53, 97
1, 48973, Note_off_c, 0, 53, 97
1, 48991, Note_on_c, 0, 56, 116
1, 49066, Note_off_c, 0, 56, 116
1, 49114, Note_on_c, 0, 60, 101
1, 49178, Note_off_c, 0, 60, 101
1, 49178, Note_on_c, 0, 61, 102
1, 49267, Note_off_c, 0, 61, 102
1, 49278, Note_on_c, 0, 62, 92
1, 49330, Note_off_c, 0, 62, 92
1, 49357, Note_on_c, 0, 63, 109
1, 49480, Note_off_c, 0, 63, 109
1, 49480, End_track
0, 0, End_of_file
