0, 0, Header, 1, 1, 20160
1, 0, Start_track
1, 0, Title_t, "Melody"
1, 0, Tempo, 882352
1, 0, Key_signature, -4, "major"
1, 0, Time_signature, 4, 2, 24, 8
1, 265463, Note_on_c, 0, 53, 118
1, 268260, Note_off_c, 0, 53, 118
1, 269472, Note_on_c, 0, 54, 120
1, 273575, Note_off_c, 0, 54, 120
1, 273668, Note_on_c, 0, 53, 106
1, 276279, Note_off_c, 0, 53, 106
1, 277398, Note_on_c, 0, 51, 105
1, 280288, Note_off_c, 0, 51, 105
1, 280911, Note_on_c, 0, 53, 103
1, 319241, Note_off_c, 0, 53, 103
1, 329055, Note_on_c, 0, 54, 109
1, 331177, Note_off_c, 0, 54, 109
1, 331574, Note_on_c, 0, 55, 109
1, 332767, Note_off_c, 0, 55, 109
1, 333430, Note_on_c, 0, 56, 109
1, 345234, Note_off_c, 0, 56, 109
1, 345897, Note_on_c, 0, 60, 116
1, 350671, Note_off_c, 0, 60, 116
1, 351732, Note_on_c, 0, 63, 110
1, 356241, Note_off_c, 0, 63, 110
1, 357699, Note_on_c, 0, 64, 106
1, 360086, Note_off_c, 0, 64, 106
1, 361014, Note_on_c, 0, 65, 108
1, 365921, Note_off_c, 0, 65, 108
1, 367247, Note_on_c, 0, 68, 106
1, 372287, Note_off_c, 0, 68, 106
1, 373745, Note_on_c, 0, 65, 88
1, 392711, Note_off_c, 0, 65, 88
1, 400934, Note_on_c, 0, 64, 109
1, 404780, Note_off_c, 0, 64, 109
1, 406504, Note_on_c, 0, 61, 109
1, 411411, Note_off_c, 0, 61, 109
1, 412206, Note_on_c, 0, 62, 105
1, 418041, Note_off_c, 0, 62, 105
1, 419102, Note_on_c, 0, 63, 94
1, 430773, Note_off_c, 0, 63, 94
1, 431436, Note_on_c, 0, 62, 83
1, 433823, Note_off_c, 0, 62, 83
1, 434884, Note_on_c, 0, 60, 103
1, 440321, Note_off_c, 0, 60, 103
1, 442443, Note_on_c, 0, 55, 86
1, 470428, Note_off_c, 0, 55, 86
1, 484089, Note_on_c, 0, 51, 102
1, 489659, Note_off_c, 0, 51, 102
1, 490056, Note_on_c, 0, 52, 111
1, 494432, Note_off_c, 0, 52, 111
1, 495227, Note_on_c, 0, 53, 103
1, 499338, Note_off_c, 0, 53, 103
1, 499735, Note_on_c, 0, 56, 117
1, 503713, Note_off_c, 0, 56, 117
1, 504376, Note_on_c, 0, 60, 110
1, 508620, Note_off_c, 0, 60, 110
1, 509283, Note_on_c, 0, 61, 104
1, 511405, Note_off_c, 0, 61, 104
1, 512863, Note_on_c, 0, 63, 102
1, 519096, Note_off_c, 0, 63, 102
1, 520422, Note_on_c, 0, 60, 101
1, 522942, Note_off_c, 0, 60, 101
1, 523870, Note_on_c, 0, 63, 101
1, 528644, Note_off_c, 0, 63, 101
1, 530235, Note_on_c, 0, 60, 101
1, 531693, Note_off_c, 0, 60, 101
1, 532488, Note_on_c, 0, 61, 103
1, 534079, Note_off_c, 0, 61, 103
1, 535537, Note_on_c, 0, 62, 97
1, 540311, Note_off_c, 0, 62, 97
1, 541239, Note_on_c, 0, 53, 97
1, 551716, Note_off_c, 0, 53, 97
1, 554236, Note_on_c, 0, 52, 97
1, 562061, Note_off_c, 0, 52, 97
1, 562989, Note_on_c, 0, 61, 102
1, 571344, Note_off_c, 0, 61, 102
1, 572272, Note_on_c, 0, 60, 102
1, 579301, Note_off_c, 0, 60, 102
1, 580494, Note_on_c, 0, 65, 88
1, 585931, Note_off_c, 0, 65, 88
1, 588318, Note_on_c, 0, 54, 98
1, 592960, Note_off_c, 0, 54, 98
1, 594286, Note_on_c, 0, 53, 85
1, 621740, Note_off_c, 0, 53, 85
1, 640971, Note_on_c, 0, 55, 98
1, 644552, Note_off_c, 0, 55, 98
1, 645613, Note_on_c, 0, 56, 114
1, 649989, Note_off_c, 0, 56, 114
1, 650784, Note_on_c, 0, 58, 111
1, 653569, Note_off_c, 0, 58, 111
1, 655160, Note_on_c, 0, 60, 106
1, 659802, Note_off_c, 0, 60, 106
1, 660730, Note_on_c, 0, 66, 97
1, 664178, Note_off_c, 0, 66, 97
1, 665769, Note_on_c, 0, 65, 98
1, 668686, Note_off_c, 0, 65, 98
1, 670059, Note_on_c, 0, 63, 95
1, 679873, Note_off_c, 0, 63, 95
1, 681901, Note_on_c, 0, 60, 108
1, 685817, Note_off_c, 0, 60, 108
1, 686469, Note_on_c, 0, 61, 101
1, 689826, Note_off_c, 0, 61, 101
1, 691131, Note_on_c, 0, 63, 98
1, 697006, Note_off_c, 0, 63, 98
1, 697752, Note_on_c, 0, 60, 93
1, 699617, Note_off_c, 0, 60, 93
1, 700549, Note_on_c, 0, 62, 97
1, 701668, Note_off_c, 0, 62, 97
1, 702320, Note_on_c, 0, 63, 97
1, 707542, Note_off_c, 0, 63, 97
1, 708288, Note_on_c, 0, 60, 97
1, 724328, Note_off_c, 0, 60, 97
1, 724887, Note_on_c, 0, 61, 98
1, 726192, Note_off_c, 0, 61, 98
1, 727031, Note_on_c, 0, 62, 100
1, 728896, Note_off_c, 0, 62, 100
1, 729362, Note_on_c, 0, 63, 92
1, 746428, Note_off_c, 0, 63, 92
1, 748388, Note_on_c, 0, 55, 90
1, 781678, Note_off_c, 0, 55, 90
1, 798837, Note_on_c, 0, 51, 98
1, 802474, Note_off_c, 0, 51, 98
1, 803872, Note_on_c, 0, 53, 112
1, 808255, Note_off_c, 0, 53, 112
1, 809747, Note_on_c, 0, 48, 98
1, 812731, Note_off_c, 0, 48, 98
1, 814316, Note_on_c, 0, 51, 102
1, 817300, Note_off_c, 0, 51, 102
1, 818325, Note_on_c, 0, 53, 111
1, 823827, Note_off_c, 0, 53, 111
1, 824293, Note_on_c, 0, 52, 106
1, 826531, Note_off_c, 0, 52, 106
1, 826717, Note_on_c, 0, 53, 107
1, 828022, Note_off_c, 0, 53, 107
1, 828581, Note_on_c, 0, 54, 96
1, 860101, Note_off_c, 0, 54, 96
1, 868867, Note_on_c, 0, 50, 91
1, 872131, Note_off_c, 0, 50, 91
1, 872364, Note_on_c, 0, 51, 96
1, 873249, Note_off_c, 0, 51, 96
1, 873575, Note_on_c, 0, 52, 101
1, 874134, Note_off_c, 0, 52, 101
1, 874273, Note_on_c, 0, 54, 109
1, 874646, Note_off_c, 0, 54, 109
1, 874832, Note_on_c, 0, 55, 103
1, 875158, Note_off_c, 0, 55, 103
1, 875484, Note_on_c, 0, 56, 109
1, 877628, Note_off_c, 0, 56, 109
1, 878933, Note_on_c, 0, 60, 77
1, 880891, Note_off_c, 0, 60, 77
1, 881823, Note_on_c, 0, 65, 94
1, 891428, Note_off_c, 0, 65, 94
1, 892920, Note_on_c, 0, 63, 97
1, 895904, Note_off_c, 0, 63, 97
1, 897862, Note_on_c, 0, 60, 109
1, 901778, Note_off_c, 0, 60, 109
1, 903363, Note_on_c, 0, 57, 116
1, 906067, Note_off_c, 0, 57, 116
1, 906813, Note_on_c, 0, 58, 111
1, 912408, Note_off_c, 0, 58, 111
1, 913900, Note_on_c, 0, 53, 105
1, 924717, Note_off_c, 0, 53, 105
1, 926582, Note_on_c, 0, 56, 112
1, 932177, Note_off_c, 0, 56, 112
1, 933948, Note_on_c, 0, 65, 90
1, 936279, Note_off_c, 0, 65, 90
1, 937677, Note_on_c, 0, 61, 106
1, 939821, Note_off_c, 0, 61, 106
1, 940846, Note_on_c, 0, 58, 107
1, 942338, Note_off_c, 0, 58, 107
1, 943177, Note_on_c, 0, 57, 114
1, 945601, Note_off_c, 0, 57, 114
1, 946440, Note_on_c, 0, 56, 97
1, 963226, Note_off_c, 0, 56, 97
1, 970987, Note_on_c, 0, 58, 113
1, 973705, Note_off_c, 0, 58, 113
1, 974766, Note_on_c, 0, 60, 110
1, 977352, Note_off_c, 0, 60, 110
1, 977749, Note_on_c, 0, 61, 105
1, 978677, Note_off_c, 0, 61, 105
1, 979539, Note_on_c, 0, 63, 98
1, 981462, Note_off_c, 0, 63, 98
1, 982191, Note_on_c, 0, 65, 101
1, 983451, Note_off_c, 0, 65, 101
1, 984114, Note_on_c, 0, 66, 96
1, 987894, Note_off_c, 0, 66, 96
1, 989485, Note_on_c, 0, 61, 101
1, 992933, Note_off_c, 0, 61, 101
1, 994060, Note_on_c, 0, 58, 112
1, 997508, Note_off_c, 0, 58, 112
1, 997972, Note_on_c, 0, 54, 107
1, 1000226, Note_off_c, 0, 54, 107
1, 1001353, Note_on_c, 0, 53, 104
1, 1004204, Note_off_c, 0, 53, 104
1, 1004933, Note_on_c, 0, 56, 116
1, 1007320, Note_off_c, 0, 56, 116
1, 1008447, Note_on_c, 0, 60, 102
1, 1009905, Note_off_c, 0, 60, 102
1, 1011165, Note_on_c, 0, 65, 91
1, 1013552, Note_off_c, 0, 65, 91
1, 1014215, Note_on_c, 0, 63, 96
1, 1019188, Note_off_c, 0, 63, 96
1, 1021442, Note_on_c, 0, 65, 97
1, 1024028, Note_off_c, 0, 65, 97
1, 1024890, Note_on_c, 0, 62, 101
1, 1030460, Note_off_c, 0, 62, 101
1, 1032051, Note_on_c, 0, 56, 113
1, 1034571, Note_off_c, 0, 56, 113
1, 1035433, Note_on_c, 0, 64, 101
1, 1038218, Note_off_c, 0, 64, 101
1, 1038947, Note_on_c, 0, 62, 99
1, 1041931, Note_off_c, 0, 62, 99
1, 1041931, Note_on_c, 0, 63, 96
1, 1043854, Note_off_c, 0, 63, 96
1, 1044450, Note_on_c, 0, 60, 103
1, 1047301, Note_off_c, 0, 60, 103
1, 1048759, Note_on_c, 0, 58, 112
1, 1051013, Note_off_c, 0, 58, 112
1, 1051875, Note_on_c, 0, 56, 102
1, 1054859, Note_off_c, 0, 56, 102
1, 1055721, Note_on_c, 0, 55, 101
1, 1058705, Note_off_c, 0, 55, 101
1, 1059633, Note_on_c, 0, 63, 100
1, 1061556, Note_off_c, 0, 63, 100
1, 1062550, Note_on_c, 0, 60, 95
1, 1063810, Note_off_c, 0, 60, 95
1, 1064871, Note_on_c, 0, 55, 90
1, 1087816, Note_off_c, 0, 55, 90
1, 1114342, Note_on_c, 0, 68, 101
1, 1118917, Note_off_c, 0, 68, 101
1, 1120641, Note_on_c, 0, 67, 102
1, 1122962, Note_off_c, 0, 67, 102
1, 1123625, Note_on_c, 0, 65, 100
1, 1127869, Note_off_c, 0, 65, 100
1, 1129394, Note_on_c, 0, 63, 104
1, 1133174, Note_off_c, 0, 63, 104
1, 1134367, Note_on_c, 0, 61, 108
1, 1138147, Note_off_c, 0, 61, 108
1, 1139871, Note_on_c, 0, 60, 109
1, 1143651, Note_off_c, 0, 60, 109
1, 1144712, Note_on_c, 0, 58, 110
1, 1148956, Note_off_c, 0, 58, 110
1, 1149950, Note_on_c, 0, 56, 111
1, 1153663, Note_off_c, 0, 56, 111
1, 1154326, Note_on_c, 0, 55, 100
1, 1158968, Note_off_c, 0, 55, 100
1, 1159432, Note_on_c, 0, 56, 113
1, 1163609, Note_off_c, 0, 56, 113
1, 1164139, Note_on_c, 0, 55, 111
1, 1167255, Note_off_c, 0, 55, 111
1, 1168912, Note_on_c, 0, 59, 111
1, 1170503, Note_off_c, 0, 59, 111
1, 1171298, Note_on_c, 0, 62, 104
1, 1173884, Note_off_c, 0, 62, 104
1, 1174746, Note_on_c, 0, 67, 98
1, 1176801, Note_off_c, 0, 67, 98
1, 1177663, Note_on_c, 0, 65, 100
1, 1180249, Note_off_c, 0, 65, 100
1, 1180580, Note_on_c, 0, 63, 98
1, 1183696, Note_off_c, 0, 63, 98
1, 1184425, Note_on_c, 0, 64, 86
1, 1193178, Note_off_c, 0, 64, 86
1, 1195233, Note_on_c, 0, 58, 114
1, 1196824, Note_off_c, 0, 58, 114
1, 1197951, Note_on_c, 0, 61, 106
1, 1199807, Note_off_c, 0, 61, 106
1, 1199939, Note_on_c, 0, 60, 109
1, 1201397, Note_off_c, 0, 60, 109
1, 1202789, Note_on_c, 0, 58, 107
1, 1204911, Note_off_c, 0, 58, 107
1, 1205375, Note_on_c, 0, 57, 117
1, 1208160, Note_off_c, 0, 57, 117
1, 1210348, Note_on_c, 0, 60, 110
1, 1213000, Note_off_c, 0, 60, 110
1, 1213530, Note_on_c, 0, 61, 104
1, 1214856, Note_off_c, 0, 61, 104
1, 1215519, Note_on_c, 0, 63, 95
1, 1217641, Note_off_c, 0, 63, 95
1, 1218105, Note_on_c, 0, 65, 95
1, 1220558, Note_off_c, 0, 65, 95
1, 1220889, Note_on_c, 0, 66, 96
1, 1222016, Note_off_c, 0, 66, 96
1, 1222347, Note_on_c, 0, 65, 97
1, 1224800, Note_off_c, 0, 65, 97
1, 1225330, Note_on_c, 0, 63, 98
1, 1226788, Note_off_c, 0, 63, 98
1, 1227782, Note_on_c, 0, 62, 97
1, 1229970, Note_off_c, 0, 62, 97
1, 1230566, Note_on_c, 0, 56, 112
1, 1232621, Note_off_c, 0, 56, 112
1, 1233814, Note_on_c, 0, 61, 105
1, 1235140, Note_off_c, 0, 61, 105
1, 1235803, Note_on_c, 0, 60, 107
1, 1238256, Note_off_c, 0, 60, 107
1, 1239051, Note_on_c, 0, 56, 99
1, 1240509, Note_off_c, 0, 56, 99
1, 1241371, Note_on_c, 0, 53, 104
1, 1244686, Note_off_c, 0, 53, 104
1, 1246211, Note_on_c, 0, 58, 106
1, 1253969, Note_off_c, 0, 58, 106
1, 1254565, Note_on_c, 0, 55, 93
1, 1256023, Note_off_c, 0, 55, 93
1, 1256885, Note_on_c, 0, 56, 110
1, 1259272, Note_off_c, 0, 56, 110
1, 1260378, Note_on_c, 0, 51, 99
1, 1262429, Note_off_c, 0, 51, 99
1, 1263175, Note_on_c, 0, 52, 94
1, 1286396, Note_off_c, 0, 52, 94
1, 1286924, Note_on_c, 0, 54, 107
1, 1288316, Note_off_c, 0, 54, 107
1, 1288846, Note_on_c, 0, 55, 101
1, 1294084, Note_off_c, 0, 55, 101
1, 1295145, Note_on_c, 0, 52, 101
1, 1298129, Note_off_c, 0, 52, 101
1, 1299190, Note_on_c, 0, 53, 104
1, 1304097, Note_off_c, 0, 53, 104
1, 1305754, Note_on_c, 0, 55, 102
1, 1308937, Note_off_c, 0, 55, 102
1, 1310064, Note_on_c, 0, 56, 110
1, 1315104, Note_off_c, 0, 56, 110
1, 1315833, Note_on_c, 0, 58, 103
1, 1320010, Note_off_c, 0, 58, 103
1, 1321402, Note_on_c, 0, 60, 105
1, 1325845, Note_off_c, 0, 60, 105
1, 1326574, Note_on_c, 0, 61, 101
1, 1331083, Note_off_c, 0, 61, 101
1, 1332939, Note_on_c, 0, 63, 97
1, 1335260, Note_off_c, 0, 63, 97
1, 1336652, Note_on_c, 0, 60, 100
1, 1341161, Note_off_c, 0, 60, 100
1, 1342553, Note_on_c, 0, 61, 98
1, 1345537, Note_off_c, 0, 61, 98
1, 1347393, Note_on_c, 0, 63, 85
1, 1360855, Note_off_c, 0, 63, 85
1, 1372261, Note_on_c, 0, 63, 98
1, 1380086, Note_off_c, 0, 63, 98
1, 1381478, Note_on_c, 0, 60, 106
1, 1386451, Note_off_c, 0, 60, 106
1, 1387777, Note_on_c, 0, 58, 111
1, 1393281, Note_off_c, 0, 58, 111
1, 1393877, Note_on_c, 0, 56, 109
1, 1397192, Note_off_c, 0, 56, 109
1, 1398452, Note_on_c, 0, 55, 97
1, 1404022, Note_off_c, 0, 55, 97
1, 1404552, Note_on_c, 0, 56, 91
1, 1425043, Note_off_c, 0, 56, 91
1, 1437709, Note_on_c, 0, 63, 108
1, 1441489, Note_off_c, 0, 63, 108
1, 1443478, Note_on_c, 0, 60, 113
1, 1446727, Note_off_c, 0, 60, 113
1, 1447456, Note_on_c, 0, 67, 104
1, 1452297, Note_off_c, 0, 67, 104
1, 1452960, Note_on_c, 0, 65, 106
1, 1455678, Note_off_c, 0, 65, 106
1, 1456606, Note_on_c, 0, 63, 103
1, 1458263, Note_off_c, 0, 63, 103
1, 1458594, Note_on_c, 0, 64, 107
1, 1459257, Note_off_c, 0, 64, 107
1, 1459986, Note_on_c, 0, 63, 107
1, 1461378, Note_off_c, 0, 63, 107
1, 1462372, Note_on_c, 0, 61, 107
1, 1466085, Note_off_c, 0, 61, 107
1, 1467013, Note_on_c, 0, 60, 103
1, 1475435, Note_off_c, 0, 60, 103
1, 1477623, Note_on_c, 0, 51, 102
1, 1481668, Note_off_c, 0, 51, 102
1, 1482463, Note_on_c, 0, 53, 109
1, 1486906, Note_off_c, 0, 53, 109
1, 1488099, Note_on_c, 0, 48, 102
1, 1492475, Note_off_c, 0, 48, 102
1, 1493138, Note_on_c, 0, 50, 101
1, 1497183, Note_off_c, 0, 50, 101
1, 1498177, Note_on_c, 0, 51, 101
1, 1501691, Note_off_c, 0, 51, 101
1, 1502951, Note_on_c, 0, 53, 113
1, 1507792, Note_off_c, 0, 53, 113
1, 1508322, Note_on_c, 0, 55, 95
1, 1515550, Note_off_c, 0, 55, 95
1, 1518003, Note_on_c, 0, 55, 98
1, 1523374, Note_off_c, 0, 55, 98
1, 1524832, Note_on_c, 0, 53, 110
1, 1527948, Note_off_c, 0, 53, 110
1, 1528478, Note_on_c, 0, 54, 110
1, 1534446, Note_off_c, 0, 54, 110
1, 1534777, Note_on_c, 0, 63, 101
1, 1538092, Note_off_c, 0, 63, 101
1, 1538489, Note_on_c, 0, 62, 105
1, 1539749, Note_off_c, 0, 62, 105
1, 1540014, Note_on_c, 0, 63, 93
1, 1540544, Note_off_c, 0, 63, 93
1, 1541074, Note_on_c, 0, 62, 101
1, 1542997, Note_off_c, 0, 62, 101
1, 1544124, Note_on_c, 0, 60, 110
1, 1547771, Note_off_c, 0, 60, 110
1, 1548633, Note_on_c, 0, 59, 104
1, 1561564, Note_off_c, 0, 59, 104
1, 1569455, Note_on_c, 0, 50, 101
1, 1574892, Note_off_c, 0, 50, 101
1, 1575555, Note_on_c, 0, 49, 100
1, 1577013, Note_off_c, 0, 49, 100
1, 1577410, Note_on_c, 0, 48, 105
1, 1578935, Note_off_c, 0, 48, 105
1, 1579531, Note_on_c, 0, 47, 103
1, 1584305, Note_off_c, 0, 47, 103
1, 1586095, Note_on_c, 0, 52, 95
1, 1616733, Note_off_c, 0, 52, 95
1, 1617037, Note_on_c, 0, 51, 103
1, 1617876, Note_off_c, 0, 51, 103
1, 1618249, Note_on_c, 0, 49, 98
1, 1619554, Note_off_c, 0, 49, 98
1, 1620113, Note_on_c, 0, 48, 96
1, 1620765, Note_off_c, 0, 48, 96
1, 1621417, Note_on_c, 0, 47, 98
1, 1627758, Note_off_c, 0, 47, 98
1, 1641466, Note_on_c, 0, 57, 120
1, 1650045, Note_off_c, 0, 57, 120
1, 1650604, Note_on_c, 0, 55, 106
1, 1652469, Note_off_c, 0, 55, 106
1, 1652935, Note_on_c, 0, 56, 107
1, 1653401, Note_off_c, 0, 56, 107
1, 1654333, Note_on_c, 0, 55, 115
1, 1655638, Note_off_c, 0, 55, 115
1, 1657223, Note_on_c, 0, 53, 115
1, 1660393, Note_off_c, 0, 53, 115
1, 1661139, Note_on_c, 0, 55, 110
1, 1662537, Note_off_c, 0, 55, 110
1, 1662910, Note_on_c, 0, 56, 107
1, 1664029, Note_off_c, 0, 56, 107
1, 1664681, Note_on_c, 0, 55, 110
1, 1665613, Note_off_c, 0, 55, 110
1, 1666825, Note_on_c, 0, 52, 111
1, 1669436, Note_off_c, 0, 52, 111
1, 1670555, Note_on_c, 0, 54, 115
1, 1676150, Note_off_c, 0, 54, 115
1, 1676896, Note_on_c, 0, 51, 101
1, 1679786, Note_off_c, 0, 51, 101
1, 1680625, Note_on_c, 0, 52, 112
1, 1686966, Note_off_c, 0, 52, 112
1, 1688458, Note_on_c, 0, 51, 96
1, 1690416, Note_off_c, 0, 51, 96
1, 1692053, Note_on_c, 0, 55, 111
1, 1692517, Note_off_c, 0, 55, 111
1, 1692649, Note_on_c, 0, 56, 106
1, 1693245, Note_off_c, 0, 56, 106
1, 1693510, Note_on_c, 0, 57, 116
1, 1693841, Note_off_c, 0, 57, 116
1, 1694236, Note_on_c, 0, 58, 112
1, 1694702, Note_off_c, 0, 58, 112
1, 1695075, Note_on_c, 0, 59, 111
1, 1698245, Note_off_c, 0, 59, 111
1, 1698879, Note_on_c, 0, 64, 100
1, 1711678, Note_off_c, 0, 64, 100
1, 1713402, Note_on_c, 0, 62, 108
1, 1716850, Note_off_c, 0, 62, 108
1, 1717181, Note_on_c, 0, 61, 104
1, 1717844, Note_off_c, 0, 61, 104
1, 1718109, Note_on_c, 0, 60, 105
1, 1718573, Note_off_c, 0, 60, 105
1, 1718904, Note_on_c, 0, 59, 97
1, 1719235, Note_off_c, 0, 59, 97
1, 1719765, Note_on_c, 0, 58, 82
1, 1722285, Note_off_c, 0, 58, 82
1, 1722948, Note_on_c, 0, 50, 96
1, 1726595, Note_off_c, 0, 50, 96
1, 1727855, Note_on_c, 0, 52, 106
1, 1731568, Note_off_c, 0, 52, 106
1, 1733093, Note_on_c, 0, 53, 96
1, 1750003, Note_off_c, 0, 53, 96
1, 1763531, Note_on_c, 0, 56, 121
1, 1765520, Note_off_c, 0, 56, 121
1, 1766116, Note_on_c, 0, 58, 111
1, 1767906, Note_off_c, 0, 58, 111
1, 1768768, Note_on_c, 0, 61, 111
1, 1771486, Note_off_c, 0, 61, 111
1, 1773276, Note_on_c, 0, 64, 114
1, 1775331, Note_off_c, 0, 64, 114
1, 1775728, Note_on_c, 0, 65, 107
1, 1776656, Note_off_c, 0, 65, 107
1, 1777252, Note_on_c, 0, 64, 109
1, 1778777, Note_off_c, 0, 64, 109
1, 1779904, Note_on_c, 0, 62, 109
1, 1782888, Note_off_c, 0, 62, 109
1, 1783285, Note_on_c, 0, 64, 109
1, 1788722, Note_off_c, 0, 64, 109
1, 1789252, Note_on_c, 0, 62, 102
1, 1790114, Note_off_c, 0, 62, 102
1, 1790379, Note_on_c, 0, 63, 107
1, 1791108, Note_off_c, 0, 63, 107
1, 1791240, Note_on_c, 0, 62, 99
1, 1791969, Note_off_c, 0, 62, 99
1, 1792831, Note_on_c, 0, 60, 113
1, 1798202, Note_off_c, 0, 60, 113
1, 1799064, Note_on_c, 0, 59, 113
1, 1801981, Note_off_c, 0, 59, 113
1, 1803307, Note_on_c, 0, 57, 111
1, 1808413, Note_off_c, 0, 57, 111
1, 1812723, Note_on_c, 0, 52, 112
1, 1819553, Note_off_c, 0, 52, 112
1, 1821741, Note_on_c, 0, 52, 101
1, 1830163, Note_off_c, 0, 52, 101
1, 1831290, Note_on_c, 0, 51, 96
1, 1836794, Note_off_c, 0, 51, 96
1, 1838849, Note_on_c, 0, 56, 120
1, 1842827, Note_off_c, 0, 56, 120
1, 1844285, Note_on_c, 0, 60, 109
1, 1848595, Note_off_c, 0, 60, 109
1, 1849589, Note_on_c, 0, 61, 106
1, 1851910, Note_off_c, 0, 61, 106
1, 1852241, Note_on_c, 0, 62, 99
1, 1854031, Note_off_c, 0, 62, 99
1, 1854760, Note_on_c, 0, 63, 98
1, 1859136, Note_off_c, 0, 63, 98
1, 1860263, Note_on_c, 0, 60, 110
1, 1863512, Note_off_c, 0, 60, 110
1, 1864639, Note_on_c, 0, 56, 119
1, 1870408, Note_off_c, 0, 56, 119
1, 1871270, Note_on_c, 0, 54, 117
1, 1874851, Note_off_c, 0, 54, 117
1, 1875646, Note_on_c, 0, 55, 95
1, 1885062, Note_off_c, 0, 55, 95
1, 1895274, Note_on_c, 0, 59, 118
1, 1899783, Note_off_c, 0, 59, 118
1, 1900512, Note_on_c, 0, 62, 110
1, 1903761, Note_off_c, 0, 62, 110
1, 1905219, Note_on_c, 0, 64, 112
1, 1909396, Note_off_c, 0, 64, 112
1, 1910457, Note_on_c, 0, 66, 105
1, 1913374, Note_off_c, 0, 66, 105
1, 1914501, Note_on_c, 0, 67, 101
1, 1918811, Note_off_c, 0, 67, 101
1, 1920071, Note_on_c, 0, 69, 103
1, 1924116, Note_off_c, 0, 69, 103
1, 1924381, Note_on_c, 0, 67, 97
1, 1925309, Note_off_c, 0, 67, 97
1, 1925507, Note_on_c, 0, 69, 102
1, 1926435, Note_off_c, 0, 69, 102
1, 1926899, Note_on_c, 0, 67, 101
1, 1928888, Note_off_c, 0, 67, 101
1, 1929617, Note_on_c, 0, 66, 99
1, 1932601, Note_off_c, 0, 66, 99
1, 1934059, Note_on_c, 0, 65, 99
1, 1939099, Note_off_c, 0, 65, 99
1, 1940226, Note_on_c, 0, 61, 110
1, 1944669, Note_off_c, 0, 61, 110
1, 1945398, Note_on_c, 0, 58, 110
1, 1950968, Note_off_c, 0, 58, 110
1, 1951100, Note_on_c, 0, 65, 102
1, 1955012, Note_off_c, 0, 65, 102
1, 1955277, Note_on_c, 0, 64, 102
1, 1956271, Note_off_c, 0, 64, 102
1, 1956668, Note_on_c, 0, 65, 98
1, 1957994, Note_off_c, 0, 65, 98
1, 1958657, Note_on_c, 0, 64, 104
1, 1960779, Note_off_c, 0, 64, 104
1, 1961375, Note_on_c, 0, 62, 110
1, 1964292, Note_off_c, 0, 62, 110
1, 1965021, Note_on_c, 0, 60, 112
1, 1970790, Note_off_c, 0, 60, 112
1, 1971121, Note_on_c, 0, 59, 110
1, 1974171, Note_off_c, 0, 59, 110
1, 1975099, Note_on_c, 0, 57, 115
1, 1980271, Note_off_c, 0, 57, 115
1, 1980735, Note_on_c, 0, 52, 107
1, 1984846, Note_off_c, 0, 52, 107
1, 1985509, Note_on_c, 0, 54, 104
1, 1986636, Note_off_c, 0, 54, 104
1, 1987146, Note_on_c, 0, 57, 112
1, 1987892, Note_off_c, 0, 57, 112
1, 1988498, Note_on_c, 0, 54, 107
1, 1989663, Note_off_c, 0, 54, 107
1, 1990502, Note_on_c, 0, 52, 106
1, 1993672, Note_off_c, 0, 52, 106
1, 1993998, Note_on_c, 0, 57, 104
1, 1996236, Note_off_c, 0, 57, 104
1, 1996580, Note_on_c, 0, 55, 100
1, 2000558, Note_off_c, 0, 55, 100
1, 2002016, Note_on_c, 0, 52, 98
1, 2005000, Note_off_c, 0, 52, 98
1, 2005265, Note_on_c, 0, 54, 108
1, 2010669, Note_off_c, 0, 54, 108
1, 2011200, Note_on_c, 0, 61, 104
1, 2013391, Note_off_c, 0, 61, 104
1, 2013810, Note_on_c, 0, 62, 99
1, 2024581, Note_off_c, 0, 62, 99
1, 2024860, Note_on_c, 0, 60, 112
1, 2027517, Note_off_c, 0, 60, 112
1, 2028076, Note_on_c, 0, 62, 103
1, 2030174, Note_off_c, 0, 62, 103
1, 2030593, Note_on_c, 0, 58, 110
1, 2033390, Note_off_c, 0, 58, 110
1, 2033856, Note_on_c, 0, 59, 88
1, 2043461, Note_off_c, 0, 59, 88
1, 2061319, Note_on_c, 0, 62, 111
1, 2064536, Note_off_c, 0, 62, 111
1, 2065468, Note_on_c, 0, 64, 107
1, 2069524, Note_off_c, 0, 64, 107
1, 2071482, Note_on_c, 0, 66, 107
1, 2072787, Note_off_c, 0, 66, 107
1, 2073020, Note_on_c, 0, 67, 104
1, 2077309, Note_off_c, 0, 67, 104
1, 2077635, Note_on_c, 0, 66, 95
1, 2079733, Note_off_c, 0, 66, 95
1, 2082250, Note_on_c, 0, 63, 97
1, 2087052, Note_off_c, 0, 63, 97
1, 2087937, Note_on_c, 0, 55, 94
1, 2092366, Note_off_c, 0, 55, 94
1, 2092692, Note_on_c, 0, 57, 122
1, 2096142, Note_off_c, 0, 57, 122
1, 2097261, Note_on_c, 0, 60, 107
1, 2101737, Note_off_c, 0, 60, 107
1, 2102249, Note_on_c, 0, 62, 104
1, 2105839, Note_off_c, 0, 62, 104
1, 2106911, Note_on_c, 0, 63, 100
1, 2111340, Note_off_c, 0, 63, 100
1, 2112132, Note_on_c, 0, 64, 101
1, 2115489, Note_off_c, 0, 64, 101
1, 2116561, Note_on_c, 0, 65, 91
1, 2121363, Note_off_c, 0, 65, 91
1, 2122621, Note_on_c, 0, 61, 107
1, 2126258, Note_off_c, 0, 61, 107
1, 2127237, Note_on_c, 0, 53, 108
1, 2132179, Note_off_c, 0, 53, 108
1, 2132878, Note_on_c, 0, 55, 102
1, 2135815, Note_off_c, 0, 55, 102
1, 2136234, Note_on_c, 0, 56, 103
1, 2138845, Note_off_c, 0, 56, 103
1, 2139124, Note_on_c, 0, 58, 112
1, 2147423, Note_off_c, 0, 58, 112
1, 2147935, Note_on_c, 0, 60, 110
1, 2152644, Note_off_c, 0, 60, 110
1, 2153576, Note_on_c, 0, 61, 106
1, 2156840, Note_off_c, 0, 61, 106
1, 2158285, Note_on_c, 0, 63, 99
1, 2163554, Note_off_c, 0, 63, 99
1, 2164533, Note_on_c, 0, 61, 97
1, 2167563, Note_off_c, 0, 61, 97
1, 2167936, Note_on_c, 0, 63, 98
1, 2173438, Note_off_c, 0, 63, 98
1, 2174370, Note_on_c, 0, 63, 101
1, 2175815, Note_off_c, 0, 63, 101
1, 2176094, Note_on_c, 0, 64, 101
1, 2183461, Note_off_c, 0, 64, 101
1, 2185232, Note_on_c, 0, 60, 107
1, 2188122, Note_off_c, 0, 60, 107
1, 2189194, Note_on_c, 0, 64, 107
1, 2190359, Note_off_c, 0, 64, 107
1, 2190638, Note_on_c, 0, 65, 98
1, 2194228, Note_off_c, 0, 65, 98
1, 2195067, Note_on_c, 0, 60, 112
1, 2198284, Note_off_c, 0, 60, 112
1, 2200568, Note_on_c, 0, 58, 98
1, 2217214, Note_off_c, 0, 58, 98
1, 2254563, Note_on_c, 0, 51, 102
1, 2258013, Note_off_c, 0, 51, 102
1, 2258572, Note_on_c, 0, 52, 111
1, 2261089, Note_off_c, 0, 52, 111
1, 2261695, Note_on_c, 0, 56, 120
1, 2264492, Note_off_c, 0, 56, 120
1, 2265284, Note_on_c, 0, 58, 114
1, 2268594, Note_off_c, 0, 58, 114
1, 2268733, Note_on_c, 0, 60, 120
1, 2273489, Note_off_c, 0, 60, 120
1, 2274188, Note_on_c, 0, 61, 113
1, 2278617, Note_off_c, 0, 61, 113
1, 2279363, Note_on_c, 0, 63, 111
1, 2284259, Note_off_c, 0, 63, 111
1, 2286077, Note_on_c, 0, 65, 107
1, 2288268, Note_off_c, 0, 65, 107
1, 2288687, Note_on_c, 0, 66, 101
1, 2290692, Note_off_c, 0, 66, 101
1, 2291391, Note_on_c, 0, 68, 100
1, 2293489, Note_off_c, 0, 68, 100
1, 2293675, Note_on_c, 0, 66, 95
1, 2295120, Note_off_c, 0, 66, 95
1, 2296005, Note_on_c, 0, 63, 107
1, 2298756, Note_off_c, 0, 63, 107
1, 2299222, Note_on_c, 0, 65, 104
1, 2303232, Note_off_c, 0, 65, 104
1, 2305237, Note_on_c, 0, 60, 100
1, 2318432, Note_off_c, 0, 60, 100
1, 2326592, Note_on_c, 0, 65, 110
1, 2330555, Note_off_c, 0, 65, 110
1, 2330974, Note_on_c, 0, 64, 111
1, 2332046, Note_off_c, 0, 64, 111
1, 2332419, Note_on_c, 0, 65, 105
1, 2333584, Note_off_c, 0, 65, 105
1, 2333910, Note_on_c, 0, 64, 111
1, 2336194, Note_off_c, 0, 64, 111
1, 2337219, Note_on_c, 0, 62, 110
1, 2340016, Note_off_c, 0, 62, 110
1, 2340855, Note_on_c, 0, 63, 110
1, 2346497, Note_off_c, 0, 63, 110
1, 2347755, Note_on_c, 0, 61, 110
1, 2351765, Note_off_c, 0, 61, 110
1, 2352650, Note_on_c, 0, 55, 102
1, 2357266, Note_off_c, 0, 55, 102
1, 2357825, Note_on_c, 0, 59, 108
1, 2361555, Note_off_c, 0, 59, 108
1, 2361834, Note_on_c, 0, 60, 109
1, 2367709, Note_off_c, 0, 60, 109
1, 2368828, Note_on_c, 0, 63, 92
1, 2379739, Note_off_c, 0, 63, 92
1, 2383655, Note_on_c, 0, 55, 104
1, 2386079, Note_off_c, 0, 55, 104
1, 2386638, Note_on_c, 0, 54, 108
1, 2387757, Note_off_c, 0, 54, 108
1, 2388111, Note_on_c, 0, 51, 94
1, 2391235, Note_off_c, 0, 51, 94
1, 2393548, Note_on_c, 0, 53, 98
1, 2399889, Note_off_c, 0, 53, 98
1, 2400671, Note_on_c, 0, 55, 98
1, 2406686, Note_off_c, 0, 55, 98
1, 2407432, Note_on_c, 0, 51, 99
1, 2411861, Note_off_c, 0, 51, 99
1, 2449257, Note_on_c, 0, 51, 104
1, 2452427, Note_off_c, 0, 51, 104
1, 2453173, Note_on_c, 0, 52, 112
1, 2455737, Note_off_c, 0, 52, 112
1, 2456296, Note_on_c, 0, 56, 114
1, 2459560, Note_off_c, 0, 56, 114
1, 2459793, Note_on_c, 0, 60, 113
1, 2462590, Note_off_c, 0, 60, 113
1, 2463709, Note_on_c, 0, 63, 108
1, 2465434, Note_off_c, 0, 63, 108
1, 2465946, Note_on_c, 0, 62, 106
1, 2470049, Note_off_c, 0, 62, 106
1, 2470701, Note_on_c, 0, 55, 106
1, 2473638, Note_off_c, 0, 55, 106
1, 2474290, Note_on_c, 0, 59, 116
1, 2476341, Note_off_c, 0, 59, 116
1, 2477087, Note_on_c, 0, 62, 108
1, 2479371, Note_off_c, 0, 62, 108
1, 2480210, Note_on_c, 0, 67, 93
1, 2482168, Note_off_c, 0, 67, 93
1, 2482680, Note_on_c, 0, 65, 105
1, 2484545, Note_off_c, 0, 65, 105
1, 2485104, Note_on_c, 0, 64, 105
1, 2489906, Note_off_c, 0, 64, 105
1, 2491304, Note_on_c, 0, 57, 119
1, 2493775, Note_off_c, 0, 57, 119
1, 2493961, Note_on_c, 0, 58, 115
1, 2499323, Note_off_c, 0, 58, 115
1, 2499929, Note_on_c, 0, 61, 112
1, 2504125, Note_off_c, 0, 61, 112
1, 2504824, Note_on_c, 0, 60, 111
1, 2509253, Note_off_c, 0, 60, 111
1, 2510092, Note_on_c, 0, 58, 115
1, 2513822, Note_off_c, 0, 58, 115
1, 2514334, Note_on_c, 0, 57, 115
1, 2518530, Note_off_c, 0, 57, 115
1, 2518996, Note_on_c, 0, 54, 109
1, 2521001, Note_off_c, 0, 54, 109
1, 2521187, Note_on_c, 0, 53, 105
1, 2524497, Note_off_c, 0, 53, 105
1, 2525662, Note_on_c, 0, 51, 92
1, 2531723, Note_off_c, 0, 51, 92
1, 2532375, Note_on_c, 0, 50, 94
1, 2542400, Note_off_c, 0, 50, 94
1, 2543892, Note_on_c, 0, 55, 98
1, 2545290, Note_off_c, 0, 55, 98
1, 2545523, Note_on_c, 0, 57, 116
1, 2548740, Note_off_c, 0, 57, 116
1, 2549346, Note_on_c, 0, 58, 110
1, 2562355, Note_off_c, 0, 58, 110
1, 2563458, Note_on_c, 0, 56, 115
1, 2564701, Note_off_c, 0, 56, 115
1, 2565198, Note_on_c, 0, 58, 108
1, 2566474, Note_off_c, 0, 58, 108
1, 2566805, Note_on_c, 0, 56, 110
1, 2569159, Note_off_c, 0, 56, 110
1, 2569855, Note_on_c, 0, 54, 104
1, 2571148, Note_off_c, 0, 54, 104
1, 2571446, Note_on_c, 0, 52, 114
1, 2574960, Note_off_c, 0, 52, 114
1, 2575590, Note_on_c, 0, 51, 104
1, 2581790, Note_off_c, 0, 51, 104
1, 2602149, Note_on_c, 0, 55, 107
1, 2610106, Note_off_c, 0, 55, 107
1, 2612758, Note_on_c, 0, 52, 108
1, 2616206, Note_off_c, 0, 52, 108
1, 2616471, Note_on_c, 0, 53, 113
1, 2622240, Note_off_c, 0, 53, 113
1, 2622704, Note_on_c, 0, 55, 105
1, 2626019, Note_off_c, 0, 55, 105
1, 2626615, Note_on_c, 0, 56, 112
1, 2632185, Note_off_c, 0, 56, 112
1, 2632781, Note_on_c, 0, 58, 116
1, 2637157, Note_off_c, 0, 58, 116
1, 2637621, Note_on_c, 0, 55, 95
1, 2641732, Note_off_c, 0, 55, 95
1, 2642328, Note_on_c, 0, 56, 120
1, 2646704, Note_off_c, 0, 56, 120
1, 2647234, Note_on_c, 0, 58, 115
1, 2651212, Note_off_c, 0, 58, 115
1, 2652670, Note_on_c, 0, 60, 111
1, 2656516, Note_off_c, 0, 60, 111
1, 2656980, Note_on_c, 0, 61, 104
1, 2661224, Note_off_c, 0, 61, 104
1, 2662484, Note_on_c, 0, 63, 99
1, 2665799, Note_off_c, 0, 63, 99
1, 2666926, Note_on_c, 0, 60, 99
1, 2683438, Note_off_c, 0, 60, 99
1, 2683769, Note_on_c, 0, 63, 92
1, 2687084, Note_off_c, 0, 63, 92
1, 2688277, Note_on_c, 0, 58, 109
1, 2692786, Note_off_c, 0, 58, 109
1, 2693979, Note_on_c, 0, 56, 97
1, 2726341, Note_off_c, 0, 56, 97
1, 2739054, Note_on_c, 0, 61, 112
1, 2741198, Note_off_c, 0, 61, 112
1, 2741524, Note_on_c, 0, 63, 95
1, 2754393, Note_off_c, 0, 63, 95
1, 2755092, Note_on_c, 0, 60, 120
1, 2759008, Note_off_c, 0, 60, 120
1, 2759940, Note_on_c, 0, 58, 118
1, 2765162, Note_off_c, 0, 58, 118
1, 2765768, Note_on_c, 0, 56, 119
1, 2769032, Note_off_c, 0, 56, 119
1, 2770617, Note_on_c, 0, 55, 108
1, 2775886, Note_off_c, 0, 55, 108
1, 2776632, Note_on_c, 0, 57, 127
1, 2779383, Note_off_c, 0, 57, 127
1, 2780408, Note_on_c, 0, 60, 115
1, 2785257, Note_off_c, 0, 60, 115
1, 2785863, Note_on_c, 0, 62, 109
1, 2789639, Note_off_c, 0, 62, 109
1, 2790711, Note_on_c, 0, 60, 108
1, 2796492, Note_off_c, 0, 60, 108
1, 2796865, Note_on_c, 0, 62, 102
1, 2798823, Note_off_c, 0, 62, 102
1, 2800221, Note_on_c, 0, 63, 108
1, 2803531, Note_off_c, 0, 63, 108
1, 2803950, Note_on_c, 0, 63, 9
1, 2807540, Note_off_c, 0, 63, 9
1, 2807819, Note_on_c, 0, 66, 105
1, 2810057, Note_off_c, 0, 66, 105
1, 2810663, Note_on_c, 0, 65, 97
1, 2812434, Note_off_c, 0, 65, 97
1, 2812760, Note_on_c, 0, 66, 99
1, 2813412, Note_off_c, 0, 66, 99
1, 2813971, Note_on_c, 0, 65, 104
1, 2816022, Note_off_c, 0, 65, 104
1, 2816907, Note_on_c, 0, 60, 114
1, 2820450, Note_off_c, 0, 60, 114
1, 2821102, Note_on_c, 0, 63, 106
1, 2827396, Note_off_c, 0, 63, 106
1, 2827955, Note_on_c, 0, 62, 112
1, 2832711, Note_off_c, 0, 62, 112
1, 2833363, Note_on_c, 0, 61, 102
1, 2843201, Note_off_c, 0, 61, 102
1, 2862971, Note_on_c, 0, 56, 117
1, 2865955, Note_off_c, 0, 56, 117
1, 2866234, Note_on_c, 0, 57, 119
1, 2866840, Note_off_c, 0, 57, 119
1, 2867259, Note_on_c, 0, 58, 117
1, 2868051, Note_off_c, 0, 58, 117
1, 2868470, Note_on_c, 0, 59, 117
1, 2885209, Note_off_c, 0, 59, 117
1, 2886234, Note_on_c, 0, 62, 110
1, 2887492, Note_off_c, 0, 62, 110
1, 2888238, Note_on_c, 0, 64, 113
1, 2889823, Note_off_c, 0, 64, 113
1, 2890289, Note_on_c, 0, 67, 102
1, 2892107, Note_off_c, 0, 67, 102
1, 2892666, Note_on_c, 0, 71, 110
1, 2894344, Note_off_c, 0, 71, 110
1, 2894856, Note_on_c, 0, 74, 112
1, 2899425, Note_off_c, 0, 74, 112
1, 2910849, Note_on_c, 0, 67, 110
1, 2913087, Note_off_c, 0, 67, 110
1, 2913506, Note_on_c, 0, 68, 108
1, 2915744, Note_off_c, 0, 68, 108
1, 2916443, Note_on_c, 0, 70, 109
1, 2918867, Note_off_c, 0, 70, 109
1, 2919846, Note_on_c, 0, 67, 106
1, 2922690, Note_off_c, 0, 67, 106
1, 2923156, Note_on_c, 0, 66, 106
1, 2924648, Note_off_c, 0, 66, 106
1, 2925021, Note_on_c, 0, 65, 105
1, 2926653, Note_off_c, 0, 65, 105
1, 2927212, Note_on_c, 0, 63, 102
1, 2929450, Note_off_c, 0, 63, 102
1, 2930102, Note_on_c, 0, 61, 108
1, 2932480, Note_off_c, 0, 61, 108
1, 2932713, Note_on_c, 0, 58, 111
1, 2935091, Note_off_c, 0, 58, 111
1, 2937096, Note_on_c, 0, 64, 107
1, 2941385, Note_off_c, 0, 64, 107
1, 2941897, Note_on_c, 0, 60, 113
1, 2945207, Note_off_c, 0, 60, 113
1, 2945719, Note_on_c, 0, 57, 103
1, 2956257, Note_off_c, 0, 57, 103
1, 2966432, Note_on_c, 0, 65, 110
1, 2971273, Note_off_c, 0, 65, 110
1, 2972466, Note_on_c, 0, 64, 110
1, 2975914, Note_off_c, 0, 64, 110
1, 2976643, Note_on_c, 0, 63, 106
1, 2981351, Note_off_c, 0, 63, 106
1, 2983008, Note_on_c, 0, 60, 113
1, 2985992, Note_off_c, 0, 60, 113
1, 2987053, Note_on_c, 0, 56, 118
1, 2990501, Note_off_c, 0, 56, 118
1, 2991562, Note_on_c, 0, 54, 101
1, 2992755, Note_off_c, 0, 54, 101
1, 2993948, Note_on_c, 0, 52, 104
1, 2996401, Note_off_c, 0, 52, 104
1, 2997462, Note_on_c, 0, 51, 99
1, 3003894, Note_off_c, 0, 51, 99
1, 3004689, Note_on_c, 0, 59, 111
1, 3008601, Note_off_c, 0, 59, 111
1, 3009396, Note_on_c, 0, 60, 109
1, 3012313, Note_off_c, 0, 60, 109
1, 3012710, Note_on_c, 0, 58, 110
1, 3013638, Note_off_c, 0, 58, 110
1, 3014500, Note_on_c, 0, 56, 112
1, 3017815, Note_off_c, 0, 56, 112
1, 3018345, Note_on_c, 0, 55, 99
1, 3022788, Note_off_c, 0, 55, 99
1, 3025440, Note_on_c, 0, 50, 90
1, 3028822, Note_off_c, 0, 50, 90
1, 3029485, Note_on_c, 0, 52, 102
1, 3035652, Note_off_c, 0, 52, 102
1, 3036845, Note_on_c, 0, 53, 102
1, 3038370, Note_off_c, 0, 53, 102
1, 3039563, Note_on_c, 0, 54, 104
1, 3044337, Note_off_c, 0, 54, 104
1, 3045066, Note_on_c, 0, 50, 91
1, 3048381, Note_off_c, 0, 50, 91
1, 3049243, Note_on_c, 0, 52, 100
1, 3056803, Note_off_c, 0, 52, 100
1, 3057466, Note_on_c, 0, 53, 96
1, 3069800, Note_off_c, 0, 53, 96
1, 3080145, Note_on_c, 0, 56, 115
1, 3082930, Note_off_c, 0, 56, 115
1, 3083394, Note_on_c, 0, 59, 112
1, 3084786, Note_off_c, 0, 59, 112
1, 3085515, Note_on_c, 0, 62, 103
1, 3087106, Note_off_c, 0, 62, 103
1, 3087835, Note_on_c, 0, 65, 105
1, 3090288, Note_off_c, 0, 65, 105
1, 3090553, Note_on_c, 0, 64, 110
1, 3091945, Note_off_c, 0, 64, 110
1, 3092608, Note_on_c, 0, 62, 105
1, 3094133, Note_off_c, 0, 62, 105
1, 3094862, Note_on_c, 0, 60, 109
1, 3096188, Note_off_c, 0, 60, 109
1, 3096784, Note_on_c, 0, 58, 109
1, 3098375, Note_off_c, 0, 58, 109
1, 3099104, Note_on_c, 0, 56, 114
1, 3101358, Note_off_c, 0, 56, 114
1, 3102021, Note_on_c, 0, 57, 107
1, 3112366, Note_off_c, 0, 57, 107
1, 3122645, Note_on_c, 0, 52, 105
1, 3127021, Note_off_c, 0, 52, 105
1, 3128214, Note_on_c, 0, 56, 122
1, 3131596, Note_off_c, 0, 56, 122
1, 3132657, Note_on_c, 0, 60, 113
1, 3136702, Note_off_c, 0, 60, 113
1, 3138691, Note_on_c, 0, 63, 112
1, 3142603, Note_off_c, 0, 63, 112
1, 3143133, Note_on_c, 0, 61, 104
1, 3144724, Note_off_c, 0, 61, 104
1, 3145387, Note_on_c, 0, 62, 99
1, 3147509, Note_off_c, 0, 62, 99
1, 3148702, Note_on_c, 0, 60, 107
1, 3152813, Note_off_c, 0, 60, 107
1, 3153542, Note_on_c, 0, 62, 104
1, 3155067, Note_off_c, 0, 62, 104
1, 3155464, Note_on_c, 0, 63, 97
1, 3159641, Note_off_c, 0, 63, 97
1, 3160171, Note_on_c, 0, 62, 96
1, 3160834, Note_off_c, 0, 62, 96
1, 3161165, Note_on_c, 0, 63, 102
1, 3163883, Note_off_c, 0, 63, 102
1, 3164612, Note_on_c, 0, 62, 103
1, 3169453, Note_off_c, 0, 62, 103
1, 3171177, Note_on_c, 0, 60, 110
1, 3173829, Note_off_c, 0, 60, 110
1, 3174823, Note_on_c, 0, 56, 113
1, 3180592, Note_off_c, 0, 56, 113
1, 3181454, Note_on_c, 0, 54, 94
1, 3184769, Note_off_c, 0, 54, 94
1, 3185299, Note_on_c, 0, 55, 105
1, 3196174, Note_off_c, 0, 55, 105
1, 3211758, Note_on_c, 0, 59, 112
1, 3215670, Note_off_c, 0, 59, 112
1, 3216797, Note_on_c, 0, 62, 109
1, 3219118, Note_off_c, 0, 62, 109
1, 3220046, Note_on_c, 0, 66, 108
1, 3222234, Note_off_c, 0, 66, 108
1, 3223427, Note_on_c, 0, 69, 99
1, 3231849, Note_off_c, 0, 69, 99
1, 3233639, Note_on_c, 0, 66, 108
1, 3235628, Note_off_c, 0, 66, 108
1, 3236888, Note_on_c, 0, 62, 109
1, 3238943, Note_off_c, 0, 62, 109
1, 3239871, Note_on_c, 0, 58, 109
1, 3243054, Note_off_c, 0, 58, 109
1, 3243952, Note_on_c, 0, 67, 108
1, 3245444, Note_off_c, 0, 67, 108
1, 3245770, Note_on_c, 0, 68, 93
1, 3253090, Note_off_c, 0, 68, 93
1, 3253975, Note_on_c, 0, 65, 107
1, 3255840, Note_off_c, 0, 65, 107
1, 3256912, Note_on_c, 0, 61, 114
1, 3259756, Note_off_c, 0, 61, 114
1, 3260222, Note_on_c, 0, 58, 108
1, 3262833, Note_off_c, 0, 58, 108
1, 3263532, Note_on_c, 0, 67, 102
1, 3271318, Note_off_c, 0, 67, 102
1, 3272810, Note_on_c, 0, 65, 99
1, 3275607, Note_off_c, 0, 65, 99
1, 3276259, Note_on_c, 0, 60, 110
1, 3280455, Note_off_c, 0, 60, 110
1, 3281620, Note_on_c, 0, 57, 115
1, 3286889, Note_off_c, 0, 57, 115
1, 3292391, Note_on_c, 0, 57, 124
1, 3294908, Note_off_c, 0, 57, 124
1, 3295234, Note_on_c, 0, 59, 115
1, 3297285, Note_off_c, 0, 59, 115
1, 3297378, Note_on_c, 0, 60, 113
1, 3299849, Note_off_c, 0, 60, 113
1, 3300175, Note_on_c, 0, 62, 104
1, 3301200, Note_off_c, 0, 62, 104
1, 3301946, Note_on_c, 0, 64, 105
1, 3303298, Note_off_c, 0, 64, 105
1, 3303717, Note_on_c, 0, 65, 99
1, 3304836, Note_off_c, 0, 65, 99
1, 3305209, Note_on_c, 0, 66, 100
1, 3306654, Note_off_c, 0, 66, 100
1, 3307306, Note_on_c, 0, 67, 108
1, 3312015, Note_off_c, 0, 67, 108
1, 3312900, Note_on_c, 0, 64, 112
1, 3316397, Note_off_c, 0, 64, 112
1, 3317049, Note_on_c, 0, 60, 113
1, 3318727, Note_off_c, 0, 60, 113
1, 3319379, Note_on_c, 0, 57, 113
1, 3321990, Note_off_c, 0, 57, 113
1, 3322549, Note_on_c, 0, 64, 107
1, 3324367, Note_off_c, 0, 64, 107
1, 3324879, Note_on_c, 0, 65, 101
1, 3326790, Note_off_c, 0, 65, 101
1, 3327442, Note_on_c, 0, 66, 104
1, 3329260, Note_off_c, 0, 66, 104
1, 3330332, Note_on_c, 0, 64, 106
1, 3331730, Note_off_c, 0, 64, 106
1, 3332009, Note_on_c, 0, 63, 90
1, 3332755, Note_off_c, 0, 63, 90
1, 3333547, Note_on_c, 0, 57, 112
1, 3336111, Note_off_c, 0, 57, 112
1, 3336857, Note_on_c, 0, 62, 97
1, 3342825, Note_off_c, 0, 62, 97
1, 3343850, Note_on_c, 0, 60, 107
1, 3345761, Note_off_c, 0, 60, 107
1, 3345994, Note_on_c, 0, 62, 102
1, 3348138, Note_off_c, 0, 62, 102
1, 3348884, Note_on_c, 0, 59, 105
1, 3355738, Note_off_c, 0, 59, 105
1, 3369586, Note_on_c, 0, 62, 111
1, 3374481, Note_off_c, 0, 62, 111
1, 3375133, Note_on_c, 0, 65, 108
1, 3378303, Note_off_c, 0, 65, 108
1, 3379499, Note_on_c, 0, 67, 109
1, 3385234, Note_off_c, 0, 67, 109
1, 3386130, Note_on_c, 0, 68, 108
1, 3389114, Note_off_c, 0, 68, 108
1, 3389710, Note_on_c, 0, 67, 102
1, 3394279, Note_off_c, 0, 67, 102
1, 3395552, Note_on_c, 0, 63, 105
1, 3399655, Note_off_c, 0, 63, 105
1, 3400867, Note_on_c, 0, 55, 101
1, 3405296, Note_off_c, 0, 55, 101
1, 3405902, Note_on_c, 0, 57, 124
1, 3407534, Note_off_c, 0, 57, 124
1, 3408186, Note_on_c, 0, 58, 115
1, 3410284, Note_off_c, 0, 58, 115
1, 3410610, Note_on_c, 0, 60, 114
1, 3412102, Note_off_c, 0, 60, 114
1, 3412568, Note_on_c, 0, 62, 106
1, 3413500, Note_off_c, 0, 62, 106
1, 3413779, Note_on_c, 0, 64, 99
1, 3414664, Note_off_c, 0, 64, 99
1, 3415176, Note_on_c, 0, 66, 95
1, 3415922, Note_off_c, 0, 66, 95
1, 3416248, Note_on_c, 0, 68, 97
1, 3417740, Note_off_c, 0, 68, 97
1, 3418252, Note_on_c, 0, 70, 106
1, 3419837, Note_off_c, 0, 70, 106
1, 3420349, Note_on_c, 0, 72, 103
1, 3425804, Note_off_c, 0, 72, 103
1, 3426923, Note_on_c, 0, 69, 105
1, 3429394, Note_off_c, 0, 69, 105
1, 3429952, Note_on_c, 0, 70, 104
1, 3436252, Note_off_c, 0, 70, 104
1, 3441843, Note_on_c, 0, 53, 115
1, 3446599, Note_off_c, 0, 53, 115
1, 3447997, Note_on_c, 0, 58, 115
1, 3451307, Note_off_c, 0, 58, 115
1, 3451959, Note_on_c, 0, 60, 116
1, 3456808, Note_off_c, 0, 60, 116
1, 3457274, Note_on_c, 0, 61, 113
1, 3461423, Note_off_c, 0, 61, 113
1, 3462122, Note_on_c, 0, 63, 102
1, 3467251, Note_off_c, 0, 63, 102
1, 3468211, Note_on_c, 0, 65, 104
1, 3471661, Note_off_c, 0, 65, 104
1, 3472189, Note_on_c, 0, 66, 107
1, 3476572, Note_off_c, 0, 66, 107
1, 3478067, Note_on_c, 0, 63, 102
1, 3481657, Note_off_c, 0, 63, 102
1, 3482403, Note_on_c, 0, 61, 112
1, 3485200, Note_off_c, 0, 61, 112
1, 3485899, Note_on_c, 0, 60, 114
1, 3487297, Note_off_c, 0, 60, 114
1, 3488276, Note_on_c, 0, 58, 111
1, 3489907, Note_off_c, 0, 58, 111
1, 3490746, Note_on_c, 0, 57, 118
1, 3495082, Note_off_c, 0, 57, 118
1, 3498765, Note_on_c, 0, 65, 92
1, 3508557, Note_off_c, 0, 65, 92
1, 3511121, Note_on_c, 0, 63, 96
1, 3513126, Note_off_c, 0, 63, 96
1, 3513872, Note_on_c, 0, 61, 106
1, 3519793, Note_off_c, 0, 61, 106
1, 3520259, Note_on_c, 0, 58, 102
1, 3531589, Note_off_c, 0, 58, 102
1, 3561571, Note_on_c, 0, 51, 106
1, 3564368, Note_off_c, 0, 51, 106
1, 3564927, Note_on_c, 0, 53, 103
1, 3579055, Note_off_c, 0, 53, 103
1, 3581199, Note_on_c, 0, 56, 121
1, 3585022, Note_off_c, 0, 56, 121
1, 3586047, Note_on_c, 0, 60, 111
1, 3590616, Note_off_c, 0, 60, 111
1, 3592014, Note_on_c, 0, 63, 105
1, 3595557, Note_off_c, 0, 63, 105
1, 3601199, Note_on_c, 0, 66, 106
1, 3603530, Note_off_c, 0, 66, 106
1, 3604229, Note_on_c, 0, 64, 109
1, 3606420, Note_off_c, 0, 64, 109
1, 3607259, Note_on_c, 0, 56, 122
1, 3609870, Note_off_c, 0, 56, 122
1, 3610429, Note_on_c, 0, 59, 112
1, 3611687, Note_off_c, 0, 59, 112
1, 3612433, Note_on_c, 0, 63, 101
1, 3615277, Note_off_c, 0, 63, 101
1, 3615789, Note_on_c, 0, 61, 104
1, 3617094, Note_off_c, 0, 61, 104
1, 3617700, Note_on_c, 0, 64, 102
1, 3619705, Note_off_c, 0, 64, 102
1, 3620357, Note_on_c, 0, 63, 95
1, 3621662, Note_off_c, 0, 63, 95
1, 3622268, Note_on_c, 0, 55, 100
1, 3625019, Note_off_c, 0, 55, 100
1, 3625298, Note_on_c, 0, 58, 105
1, 3626836, Note_off_c, 0, 58, 105
1, 3627255, Note_on_c, 0, 62, 111
1, 3630192, Note_off_c, 0, 62, 111
1, 3630704, Note_on_c, 0, 61, 102
1, 3631962, Note_off_c, 0, 61, 102
1, 3632148, Note_on_c, 0, 64, 103
1, 3634013, Note_off_c, 0, 64, 103
1, 3634619, Note_on_c, 0, 62, 102
1, 3636250, Note_off_c, 0, 62, 102
1, 3637135, Note_on_c, 0, 54, 108
1, 3639746, Note_off_c, 0, 54, 108
1, 3640398, Note_on_c, 0, 57, 119
1, 3641656, Note_off_c, 0, 57, 119
1, 3642262, Note_on_c, 0, 61, 107
1, 3644826, Note_off_c, 0, 61, 107
1, 3645199, Note_on_c, 0, 58, 106
1, 3646737, Note_off_c, 0, 58, 106
1, 3647110, Note_on_c, 0, 63, 103
1, 3649208, Note_off_c, 0, 63, 103
1, 3650140, Note_on_c, 0, 61, 102
1, 3652098, Note_off_c, 0, 61, 102
1, 3652471, Note_on_c, 0, 53, 107
1, 3655082, Note_off_c, 0, 53, 107
1, 3655501, Note_on_c, 0, 56, 108
1, 3657785, Note_off_c, 0, 56, 108
1, 3658297, Note_on_c, 0, 60, 114
1, 3660255, Note_off_c, 0, 60, 114
1, 3660534, Note_on_c, 0, 61, 107
1, 3661326, Note_off_c, 0, 61, 107
1, 3661792, Note_on_c, 0, 62, 108
1, 3663424, Note_off_c, 0, 62, 108
1, 3663983, Note_on_c, 0, 63, 101
1, 3667480, Note_off_c, 0, 63, 101
1, 3668226, Note_on_c, 0, 59, 110
1, 3669671, Note_off_c, 0, 59, 110
1, 3669764, Note_on_c, 0, 60, 112
1, 3672841, Note_off_c, 0, 60, 112
1, 3674081, Note_on_c, 0, 55, 94
1, 3697755, Note_off_c, 0, 55, 94
1, 3724745, Note_on_c, 0, 66, 87
1, 3725474, Note_off_c, 0, 66, 87
1, 3725938, Note_on_c, 0, 67, 110
1, 3729253, Note_off_c, 0, 67, 110
1, 3729849, Note_on_c, 0, 63, 101
1, 3734292, Note_off_c, 0, 63, 101
1, 3735883, Note_on_c, 0, 65, 110
1, 3738535, Note_off_c, 0, 65, 110
1, 3739397, Note_on_c, 0, 66, 106
1, 3740060, Note_off_c, 0, 66, 106
1, 3740391, Note_on_c, 0, 67, 102
1, 3742446, Note_off_c, 0, 67, 102
1, 3743042, Note_on_c, 0, 66, 104
1, 3744500, Note_off_c, 0, 66, 104
1, 3745561, Note_on_c, 0, 63, 103
1, 3748810, Note_off_c, 0, 63, 103
1, 3749672, Note_on_c, 0, 65, 103
1, 3754181, Note_off_c, 0, 65, 103
1, 3755374, Note_on_c, 0, 63, 103
1, 3759154, Note_off_c, 0, 63, 103
1, 3760347, Note_on_c, 0, 60, 114
1, 3764392, Note_off_c, 0, 60, 114
1, 3766514, Note_on_c, 0, 56, 120
1, 3769896, Note_off_c, 0, 56, 120
1, 3771023, Note_on_c, 0, 53, 108
1, 3775797, Note_off_c, 0, 53, 108
1, 3776725, Note_on_c, 0, 54, 112
1, 3779841, Note_off_c, 0, 54, 112
1, 3780371, Note_on_c, 0, 56, 102
1, 3782426, Note_off_c, 0, 56, 102
1, 3783686, Note_on_c, 0, 59, 112
1, 3785476, Note_off_c, 0, 59, 112
1, 3786603, Note_on_c, 0, 62, 107
1, 3789388, Note_off_c, 0, 62, 107
1, 3790780, Note_on_c, 0, 67, 101
1, 3793101, Note_off_c, 0, 67, 101
1, 3793764, Note_on_c, 0, 65, 98
1, 3795421, Note_off_c, 0, 65, 98
1, 3796349, Note_on_c, 0, 62, 103
1, 3799399, Note_off_c, 0, 62, 103
1, 3800194, Note_on_c, 0, 63, 100
1, 3801321, Note_off_c, 0, 63, 100
1, 3801718, Note_on_c, 0, 64, 93
1, 3807885, Note_off_c, 0, 64, 93
1, 3811665, Note_on_c, 0, 57, 118
1, 3813322, Note_off_c, 0, 57, 118
1, 3813653, Note_on_c, 0, 58, 114
1, 3816968, Note_off_c, 0, 58, 114
1, 3818426, Note_on_c, 0, 61, 112
1, 3821542, Note_off_c, 0, 61, 112
1, 3822404, Note_on_c, 0, 60, 112
1, 3823929, Note_off_c, 0, 60, 112
1, 3825056, Note_on_c, 0, 58, 108
1, 3827310, Note_off_c, 0, 58, 108
1, 3828371, Note_on_c, 0, 57, 117
1, 3831156, Note_off_c, 0, 57, 117
1, 3831885, Note_on_c, 0, 60, 112
1, 3834603, Note_off_c, 0, 60, 112
1, 3835199, Note_on_c, 0, 61, 107
1, 3836326, Note_off_c, 0, 61, 107
1, 3837387, Note_on_c, 0, 63, 91
1, 3838580, Note_off_c, 0, 63, 91
1, 3839641, Note_on_c, 0, 65, 95
1, 3844084, Note_off_c, 0, 65, 95
1, 3844548, Note_on_c, 0, 64, 94
1, 3845476, Note_off_c, 0, 64, 94
1, 3845873, Note_on_c, 0, 63, 96
1, 3847729, Note_off_c, 0, 63, 96
1, 3848392, Note_on_c, 0, 62, 91
1, 3864573, Note_off_c, 0, 62, 91
1, 3872729, Note_on_c, 0, 68, 112
1, 3875182, Note_off_c, 0, 68, 112
1, 3875778, Note_on_c, 0, 70, 110
1, 3881879, Note_off_c, 0, 70, 110
1, 3882475, Note_on_c, 0, 68, 107
1, 3883337, Note_off_c, 0, 68, 107
1, 3883801, Note_on_c, 0, 70, 110
1, 3884397, Note_off_c, 0, 70, 110
1, 3885060, Note_on_c, 0, 68, 102
1, 3886320, Note_off_c, 0, 68, 102
1, 3887049, Note_on_c, 0, 64, 106
1, 3891624, Note_off_c, 0, 64, 106
1, 3893613, Note_on_c, 0, 56, 110
1, 3895337, Note_off_c, 0, 56, 110
1, 3895801, Note_on_c, 0, 57, 115
1, 3896729, Note_off_c, 0, 57, 115
1, 3897126, Note_on_c, 0, 58, 112
1, 3901303, Note_off_c, 0, 58, 112
1, 3901833, Note_on_c, 0, 56, 116
1, 3902960, Note_off_c, 0, 56, 116
1, 3903291, Note_on_c, 0, 58, 111
1, 3904352, Note_off_c, 0, 58, 111
1, 3905214, Note_on_c, 0, 56, 108
1, 3906606, Note_off_c, 0, 56, 108
1, 3907998, Note_on_c, 0, 52, 102
1, 3915624, Note_off_c, 0, 52, 102
1, 3916486, Note_on_c, 0, 54, 102
1, 3917547, Note_off_c, 0, 54, 102
1, 3918011, Note_on_c, 0, 55, 107
1, 3918408, Note_off_c, 0, 55, 107
1, 3918673, Note_on_c, 0, 56, 116
1, 3922386, Note_off_c, 0, 56, 116
1, 3922916, Note_on_c, 0, 52, 102
1, 3926497, Note_off_c, 0, 52, 102
1, 3926894, Note_on_c, 0, 53, 97
1, 3940223, Note_off_c, 0, 53, 97
1, 3944732, Note_on_c, 0, 55, 100
1, 3948047, Note_off_c, 0, 55, 100
1, 3949108, Note_on_c, 0, 58, 112
1, 3953683, Note_off_c, 0, 58, 112
1, 3955141, Note_on_c, 0, 56, 119
1, 3959119, Note_off_c, 0, 56, 119
1, 3959981, Note_on_c, 0, 55, 98
1, 3964556, Note_off_c, 0, 55, 98
1, 3965816, Note_on_c, 0, 56, 118
1, 3969794, Note_off_c, 0, 56, 118
1, 3970855, Note_on_c, 0, 58, 115
1, 3974900, Note_off_c, 0, 58, 115
1, 3975894, Note_on_c, 0, 60, 110
1, 3979674, Note_off_c, 0, 60, 110
1, 3980270, Note_on_c, 0, 61, 111
1, 3982657, Note_off_c, 0, 61, 111
1, 3983452, Note_on_c, 0, 62, 105
1, 3986303, Note_off_c, 0, 62, 105
1, 3986634, Note_on_c, 0, 63, 99
1, 3989021, Note_off_c, 0, 63, 99
1, 3990347, Note_on_c, 0, 60, 92
1, 4007124, Note_off_c, 0, 60, 92
1, 4015280, Note_on_c, 0, 63, 108
1, 4017667, Note_off_c, 0, 63, 108
1, 4018661, Note_on_c, 0, 60, 114
1, 4022175, Note_off_c, 0, 60, 114
1, 4022440, Note_on_c, 0, 61, 110
1, 4023766, Note_off_c, 0, 61, 110
1, 4024893, Note_on_c, 0, 62, 107
1, 4026683, Note_off_c, 0, 62, 107
1, 4027478, Note_on_c, 0, 63, 97
1, 4030064, Note_off_c, 0, 63, 97
1, 4030461, Note_on_c, 0, 62, 102
1, 4030858, Note_off_c, 0, 62, 102
1, 4031056, Note_on_c, 0, 64, 104
1, 4033973, Note_off_c, 0, 64, 104
1, 4034569, Note_on_c, 0, 61, 106
1, 4036956, Note_off_c, 0, 61, 106
1, 4037287, Note_on_c, 0, 58, 114
1, 4039475, Note_off_c, 0, 58, 114
1, 4040337, Note_on_c, 0, 55, 101
1, 4042193, Note_off_c, 0, 55, 101
1, 4043320, Note_on_c, 0, 52, 101
1, 4046038, Note_off_c, 0, 52, 101
1, 4048491, Note_on_c, 0, 53, 110
1, 4051475, Note_off_c, 0, 53, 110
1, 4052337, Note_on_c, 0, 51, 89
1, 4055055, Note_off_c, 0, 51, 89
1, 4055452, Note_on_c, 0, 52, 94
1, 4059099, Note_off_c, 0, 52, 94
1, 4060624, Note_on_c, 0, 58, 109
1, 4063807, Note_off_c, 0, 58, 109
1, 4064536, Note_on_c, 0, 60, 106
1, 4066326, Note_off_c, 0, 60, 106
1, 4066989, Note_on_c, 0, 61, 108
1, 4069509, Note_off_c, 0, 61, 108
1, 4070570, Note_on_c, 0, 58, 108
1, 4072227, Note_off_c, 0, 58, 108
1, 4073155, Note_on_c, 0, 55, 101
1, 4074680, Note_off_c, 0, 55, 101
1, 4075674, Note_on_c, 0, 58, 109
1, 4077663, Note_off_c, 0, 58, 109
1, 4078326, Note_on_c, 0, 60, 104
1, 4080381, Note_off_c, 0, 60, 104
1, 4080778, Note_on_c, 0, 61, 107
1, 4081971, Note_off_c, 0, 61, 107
1, 4082634, Note_on_c, 0, 62, 95
1, 4084623, Note_off_c, 0, 62, 95
1, 4084888, Note_on_c, 0, 63, 98
1, 4089795, Note_off_c, 0, 63, 98
1, 4092646, Note_on_c, 0, 60, 83
1, 4099476, Note_off_c, 0, 60, 83
1, 4106439, Note_on_c, 0, 53, 113
1, 4110086, Note_off_c, 0, 53, 113
1, 4111014, Note_on_c, 0, 52, 106
1, 4113401, Note_off_c, 0, 52, 106
1, 4114329, Note_on_c, 0, 51, 100
1, 4117843, Note_off_c, 0, 51, 100
1, 4118572, Note_on_c, 0, 53, 108
1, 4121224, Note_off_c, 0, 53, 108
1, 4122152, Note_on_c, 0, 51, 94
1, 4124738, Note_off_c, 0, 51, 94
1, 4125003, Note_on_c, 0, 53, 104
1, 4129910, Note_off_c, 0, 53, 104
1, 4131501, Note_on_c, 0, 58, 104
1, 4133822, Note_off_c, 0, 58, 104
1, 4135082, Note_on_c, 0, 53, 107
1, 4138132, Note_off_c, 0, 53, 107
1, 4138994, Note_on_c, 0, 51, 93
1, 4140850, Note_off_c, 0, 51, 93
1, 4141513, Note_on_c, 0, 53, 111
1, 4146221, Note_off_c, 0, 53, 111
1, 4147149, Note_on_c, 0, 58, 102
1, 4149470, Note_off_c, 0, 58, 102
1, 4151384, Note_on_c, 0, 53, 9
1, 4231771, Note_off_c, 0, 53, 9
1, 4231771, End_track
0, 0, End_of_file
