0, 0, Header, 1, 1, 192
1, 0, Start_track
1, 0, Title_t, "Melody"
1, 0, Tempo, 447761
1, 0, Key_signature, -1, "major"
1, 0, Time_signature, 4, 2, 24, 8
1, 4102, Note_on_c, 0, 47, 104
1, 4153, Note_off_c, 0, 47, 104
1, 4160, Note_on_c, 0, 49, 113
1, 4182, Note_off_c, 0, 49, 113
1, 4196, Note_on_c, 0, 51, 120
1, 4243, Note_off_c, 0, 51, 120
1, 4249, Note_on_c, 0, 53, 111
1, 4275, Note_off_c, 0, 53, 111
1, 4288, Note_on_c, 0, 54, 118
1, 4334, Note_off_c, 0, 54, 118
1, 4338, Note_on_c, 0, 56, 108
1, 4364, Note_off_c, 0, 56, 108
1, 4380, Note_on_c, 0, 58, 99
1, 4404, Note_off_c, 0, 58, 99
1, 4409, Note_on_c, 0, 60, 117
1, 4448, Note_off_c, 0, 60, 117
1, 4461, Note_on_c, 0, 62, 104
1, 4493, Note_off_c, 0, 62, 104
1, 4502, Note_on_c, 0, 63, 107
1, 4532, Note_off_c, 0, 63, 107
1, 4542, Note_on_c, 0, 64, 95
1, 4571, Note_off_c, 0, 64, 95
1, 4582, Note_on_c, 0, 66, 91
1, 4605, Note_off_c, 0, 66, 91
1, 4614, Note_on_c, 0, 68, 93
1, 4650, Note_off_c, 0, 68, 93
1, 4662, Note_on_c, 0, 69, 98
1, 4689, Note_off_c, 0, 69, 98
1, 4696, Note_on_c, 0, 70, 98
1, 4738, Note_off_c, 0, 70, 98
1, 4745, Note_on_c, 0, 72, 115
1, 4805, Note_off_c, 0, 72, 115
1, 5368, Note_on_c, 0, 70, 119
1, 5403, Note_off_c, 0, 70, 119
1, 5411, Note_on_c, 0, 72, 124
1, 5451, Note_off_c, 0, 72, 124
1, 5466, Note_on_c, 0, 69, 112
1, 5524, Note_off_c, 0, 69, 112
1, 5549, Note_on_c, 0, 67, 90
1, 5713, Note_off_c, 0, 67, 90
1, 5745, Note_on_c, 0, 65, 99
1, 5783, Note_off_c, 0, 65, 99
1, 5787, Note_on_c, 0, 66, 95
1, 5803, Note_off_c, 0, 66, 95
1, 5807, Note_on_c, 0, 65, 104
1, 5843, Note_off_c, 0, 65, 104
1, 5854, Note_on_c, 0, 62, 101
1, 5919, Note_off_c, 0, 62, 101
1, 5943, Note_on_c, 0, 65, 109
1, 6055, Note_off_c, 0, 65, 109
1, 6072, Note_on_c, 0, 62, 92
1, 6233, Note_off_c, 0, 62, 92
1, 6241, Note_on_c, 0, 55, 103
1, 6303, Note_off_c, 0, 55, 103
1, 6308, Note_on_c, 0, 48, 101
1, 6363, Note_off_c, 0, 48, 101
1, 6374, Note_on_c, 0, 53, 105
1, 6424, Note_off_c, 0, 53, 105
1, 6437, Note_on_c, 0, 55, 106
1, 6482, Note_off_c, 0, 55, 106
1, 6489, Note_on_c, 0, 56, 107
1, 6522, Note_off_c, 0, 56, 107
1, 6533, Note_on_c, 0, 57, 113
1, 6577, Note_off_c, 0, 57, 113
1, 6583, Note_on_c, 0, 57, 105
1, 6623, Note_off_c, 0, 57, 105
1, 6627, Note_on_c, 0, 60, 108
1, 6705, Note_off_c, 0, 60, 108
1, 6708, Note_on_c, 0, 55, 99
1, 6862, Note_off_c, 0, 55, 99
1, 6943, Note_on_c, 0, 50, 91
1, 7020, Note_off_c, 0, 50, 91
1, 7029, Note_on_c, 0, 53, 97
1, 7134, Note_off_c, 0, 53, 97
1, 7557, Note_on_c, 0, 53, 113
1, 7613, Note_off_c, 0, 53, 113
1, 7619, Note_on_c, 0, 55, 110
1, 7653, Note_off_c, 0, 55, 110
1, 7660, Note_on_c, 0, 57, 111
1, 7686, Note_off_c, 0, 57, 111
1, 7706, Note_on_c, 0, 58, 103
1, 7747, Note_off_c, 0, 58, 103
1, 7755, Note_on_c, 0, 60, 110
1, 7794, Note_off_c, 0, 60, 110
1, 7812, Note_on_c, 0, 62, 105
1, 7854, Note_off_c, 0, 62, 105
1, 7865, Note_on_c, 0, 63, 109
1, 7892, Note_off_c, 0, 63, 109
1, 7895, Note_on_c, 0, 64, 107
1, 7931, Note_off_c, 0, 64, 107
1, 7946, Note_on_c, 0, 65, 98
1, 8087, Note_off_c, 0, 65, 98
1, 8102, Note_on_c, 0, 63, 99
1, 8186, Note_off_c, 0, 63, 99
1, 8211, Note_on_c, 0, 60, 107
1, 8255, Note_off_c, 0, 60, 107
1, 8260, Note_on_c, 0, 62, 104
1, 8330, Note_off_c, 0, 62, 104
1, 8335, Note_on_c, 0, 65, 97
1, 8386, Note_off_c, 0, 65, 97
1, 8416, Note_on_c, 0, 62, 97
1, 8473, Note_off_c, 0, 62, 97
1, 8490, Note_on_c, 0, 60, 98
1, 8532, Note_off_c, 0, 60, 98
1, 8547, Note_on_c, 0, 55, 100
1, 8756, Note_off_c, 0, 55, 100
1, 9078, Note_on_c, 0, 53, 119
1, 9144, Note_off_c, 0, 53, 119
1, 9151, Note_on_c, 0, 50, 102
1, 9205, Note_off_c, 0, 50, 102
1, 9212, Note_on_c, 0, 51, 105
1, 9264, Note_off_c, 0, 51, 105
1, 9273, Note_on_c, 0, 52, 117
1, 9322, Note_off_c, 0, 52, 117
1, 9343, Note_on_c, 0, 61, 106
1, 9401, Note_off_c, 0, 61, 106
1, 9408, Note_on_c, 0, 60, 112
1, 9446, Note_off_c, 0, 60, 112
1, 9454, Note_on_c, 0, 58, 103
1, 9501, Note_off_c, 0, 58, 103
1, 9512, Note_on_c, 0, 57, 106
1, 9638, Note_off_c, 0, 57, 106
1, 9650, Note_on_c, 0, 60, 107
1, 9728, Note_off_c, 0, 60, 107
1, 9746, Note_on_c, 0, 64, 97
1, 9881, Note_off_c, 0, 64, 97
1, 9912, Note_on_c, 0, 64, 106
1, 9962, Note_off_c, 0, 64, 106
1, 9969, Note_on_c, 0, 63, 98
1, 10047, Note_off_c, 0, 63, 98
1, 10052, Note_on_c, 0, 60, 103
1, 10185, Note_off_c, 0, 60, 103
1, 10677, Note_on_c, 0, 60, 107
1, 10700, Note_off_c, 0, 60, 107
1, 10712, Note_on_c, 0, 62, 116
1, 10771, Note_off_c, 0, 62, 116
1, 10787, Note_on_c, 0, 67, 112
1, 10825, Note_off_c, 0, 67, 112
1, 10830, Note_on_c, 0, 68, 114
1, 10847, Note_off_c, 0, 68, 114
1, 10858, Note_on_c, 0, 69, 117
1, 10907, Note_off_c, 0, 69, 117
1, 10925, Note_on_c, 0, 64, 106
1, 10960, Note_off_c, 0, 64, 106
1, 10966, Note_on_c, 0, 62, 103
1, 11005, Note_off_c, 0, 62, 103
1, 11016, Note_on_c, 0, 60, 106
1, 11041, Note_off_c, 0, 60, 106
1, 11051, Note_on_c, 0, 67, 110
1, 11100, Note_off_c, 0, 67, 110
1, 11108, Note_on_c, 0, 65, 111
1, 11137, Note_off_c, 0, 65, 111
1, 11144, Note_on_c, 0, 64, 110
1, 11181, Note_off_c, 0, 64, 110
1, 11192, Note_on_c, 0, 62, 108
1, 11230, Note_off_c, 0, 62, 108
1, 11244, Note_on_c, 0, 60, 112
1, 11276, Note_off_c, 0, 60, 112
1, 11287, Note_on_c, 0, 58, 97
1, 11318, Note_off_c, 0, 58, 97
1, 11328, Note_on_c, 0, 55, 103
1, 11370, Note_off_c, 0, 55, 103
1, 11377, Note_on_c, 0, 53, 97
1, 11404, Note_off_c, 0, 53, 97
1, 11421, Note_on_c, 0, 58, 98
1, 11472, Note_off_c, 0, 58, 98
1, 11479, Note_on_c, 0, 55, 101
1, 11506, Note_off_c, 0, 55, 101
1, 11514, Note_on_c, 0, 57, 107
1, 11568, Note_off_c, 0, 57, 107
1, 11572, Note_on_c, 0, 58, 97
1, 11596, Note_off_c, 0, 58, 97
1, 11603, Note_on_c, 0, 60, 108
1, 11650, Note_off_c, 0, 60, 108
1, 11656, Note_on_c, 0, 64, 95
1, 11686, Note_off_c, 0, 64, 95
1, 11691, Note_on_c, 0, 67, 103
1, 11743, Note_off_c, 0, 67, 103
1, 11753, Note_on_c, 0, 64, 106
1, 11790, Note_off_c, 0, 64, 106
1, 11802, Note_on_c, 0, 65, 102
1, 11836, Note_off_c, 0, 65, 102
1, 11843, Note_on_c, 0, 62, 98
1, 11880, Note_off_c, 0, 62, 98
1, 11889, Note_on_c, 0, 55, 102
1, 11917, Note_off_c, 0, 55, 102
1, 11925, Note_on_c, 0, 53, 94
1, 11964, Note_off_c, 0, 53, 94
1, 11970, Note_on_c, 0, 64, 104
1, 12003, Note_off_c, 0, 64, 104
1, 12027, Note_on_c, 0, 60, 97
1, 12057, Note_off_c, 0, 60, 97
1, 12068, Note_on_c, 0, 55, 104
1, 12106, Note_off_c, 0, 55, 104
1, 12478, Note_on_c, 0, 58, 108
1, 12538, Note_off_c, 0, 58, 108
1, 12549, Note_on_c, 0, 57, 116
1, 12645, Note_off_c, 0, 57, 116
1, 12659, Note_on_c, 0, 55, 114
1, 12730, Note_off_c, 0, 55, 114
1, 12741, Note_on_c, 0, 53, 107
1, 12764, Note_off_c, 0, 53, 107
1, 12769, Note_on_c, 0, 54, 109
1, 12785, Note_off_c, 0, 54, 109
1, 12790, Note_on_c, 0, 53, 98
1, 12833, Note_off_c, 0, 53, 98
1, 12853, Note_on_c, 0, 52, 107
1, 12919, Note_off_c, 0, 52, 107
1, 12940, Note_on_c, 0, 55, 108
1, 13062, Note_off_c, 0, 55, 108
1, 13074, Note_on_c, 0, 52, 106
1, 13124, Note_off_c, 0, 52, 106
1, 13132, Note_on_c, 0, 53, 111
1, 13200, Note_off_c, 0, 53, 111
1, 13202, Note_on_c, 0, 55, 108
1, 13238, Note_off_c, 0, 55, 108
1, 13245, Note_on_c, 0, 57, 110
1, 13284, Note_off_c, 0, 57, 110
1, 13290, Note_on_c, 0, 59, 96
1, 13307, Note_off_c, 0, 59, 96
1, 13315, Note_on_c, 0, 60, 112
1, 13372, Note_off_c, 0, 60, 112
1, 13378, Note_on_c, 0, 61, 102
1, 13398, Note_off_c, 0, 61, 102
1, 13409, Note_on_c, 0, 62, 97
1, 13472, Note_off_c, 0, 62, 97
1, 13481, Note_on_c, 0, 63, 110
1, 13534, Note_off_c, 0, 63, 110
1, 13565, Note_on_c, 0, 60, 111
1, 13604, Note_off_c, 0, 60, 111
1, 13611, Note_on_c, 0, 55, 104
1, 13633, Note_off_c, 0, 55, 104
1, 13646, Note_on_c, 0, 53, 104
1, 13672, Note_off_c, 0, 53, 104
1, 13704, Note_on_c, 0, 62, 103
1, 13748, Note_off_c, 0, 62, 103
1, 13757, Note_on_c, 0, 61, 101
1, 13773, Note_off_c, 0, 61, 101
1, 13782, Note_on_c, 0, 60, 105
1, 13810, Note_off_c, 0, 60, 105
1, 13824, Note_on_c, 0, 58, 95
1, 13856, Note_off_c, 0, 58, 95
1, 13861, Note_on_c, 0, 57, 110
1, 13905, Note_off_c, 0, 57, 110
1, 14087, Note_on_c, 0, 65, 108
1, 14192, Note_off_c, 0, 65, 108
1, 14199, Note_on_c, 0, 63, 111
1, 14256, Note_off_c, 0, 63, 111
1, 14267, Note_on_c, 0, 62, 100
1, 14411, Note_off_c, 0, 62, 100
1, 14440, Note_on_c, 0, 53, 91
1, 14467, Note_off_c, 0, 53, 91
1, 14491, Note_on_c, 0, 57, 105
1, 14581, Note_off_c, 0, 57, 105
1, 14599, Note_on_c, 0, 55, 93
1, 14860, Note_off_c, 0, 55, 93
1, 15159, Note_on_c, 0, 53, 117
1, 15220, Note_off_c, 0, 53, 117
1, 15240, Note_on_c, 0, 50, 100
1, 15289, Note_off_c, 0, 50, 100
1, 15290, Note_on_c, 0, 51, 106
1, 15339, Note_off_c, 0, 51, 106
1, 15346, Note_on_c, 0, 52, 112
1, 15416, Note_off_c, 0, 52, 112
1, 15438, Note_on_c, 0, 61, 107
1, 15543, Note_off_c, 0, 61, 107
1, 15556, Note_on_c, 0, 60, 113
1, 15625, Note_off_c, 0, 60, 113
1, 15642, Note_on_c, 0, 58, 104
1, 15722, Note_off_c, 0, 58, 104
1, 15751, Note_on_c, 0, 56, 107
1, 15831, Note_off_c, 0, 56, 107
1, 15838, Note_on_c, 0, 57, 111
1, 15982, Note_off_c, 0, 57, 111
1, 16030, Note_on_c, 0, 65, 107
1, 16077, Note_off_c, 0, 65, 107
1, 16081, Note_on_c, 0, 66, 88
1, 16096, Note_off_c, 0, 66, 88
1, 16101, Note_on_c, 0, 64, 90
1, 16126, Note_off_c, 0, 64, 90
1, 16142, Note_on_c, 0, 60, 103
1, 16190, Note_off_c, 0, 60, 103
1, 16211, Note_on_c, 0, 64, 107
1, 16316, Note_off_c, 0, 64, 107
1, 16328, Note_on_c, 0, 60, 93
1, 16518, Note_off_c, 0, 60, 93
1, 16701, Note_on_c, 0, 65, 113
1, 16755, Note_off_c, 0, 65, 113
1, 16765, Note_on_c, 0, 63, 108
1, 16825, Note_off_c, 0, 63, 108
1, 16840, Note_on_c, 0, 61, 103
1, 16880, Note_off_c, 0, 61, 103
1, 16880, Note_on_c, 0, 62, 105
1, 16941, Note_off_c, 0, 62, 105
1, 16951, Note_on_c, 0, 65, 110
1, 17005, Note_off_c, 0, 65, 110
1, 17025, Note_on_c, 0, 67, 109
1, 17058, Note_off_c, 0, 67, 109
1, 17069, Note_on_c, 0, 68, 109
1, 17124, Note_off_c, 0, 68, 109
1, 17151, Note_on_c, 0, 62, 105
1, 17195, Note_off_c, 0, 62, 105
1, 17202, Note_on_c, 0, 60, 107
1, 17252, Note_off_c, 0, 60, 107
1, 17263, Note_on_c, 0, 59, 91
1, 17399, Note_off_c, 0, 59, 91
1, 17557, Note_on_c, 0, 66, 108
1, 17575, Note_off_c, 0, 66, 108
1, 17577, Note_on_c, 0, 68, 102
1, 17588, Note_off_c, 0, 68, 102
1, 17592, Note_on_c, 0, 66, 109
1, 17629, Note_off_c, 0, 66, 109
1, 17642, Note_on_c, 0, 64, 109
1, 17718, Note_off_c, 0, 64, 109
1, 17734, Note_on_c, 0, 65, 109
1, 17800, Note_off_c, 0, 65, 109
1, 17811, Note_on_c, 0, 60, 109
1, 17858, Note_off_c, 0, 60, 109
1, 17868, Note_on_c, 0, 58, 99
1, 17896, Note_off_c, 0, 58, 99
1, 17912, Note_on_c, 0, 57, 97
1, 18083, Note_off_c, 0, 57, 97
1, 18231, Note_on_c, 0, 52, 113
1, 18250, Note_off_c, 0, 52, 113
1, 18253, Note_on_c, 0, 53, 113
1, 18364, Note_off_c, 0, 53, 113
1, 18397, Note_on_c, 0, 50, 86
1, 18462, Note_off_c, 0, 50, 86
1, 18467, Note_on_c, 0, 60, 107
1, 18587, Note_off_c, 0, 60, 107
1, 18597, Note_on_c, 0, 58, 103
1, 18641, Note_off_c, 0, 58, 103
1, 18671, Note_on_c, 0, 55, 105
1, 18718, Note_off_c, 0, 55, 105
1, 18723, Note_on_c, 0, 57, 102
1, 18975, Note_off_c, 0, 57, 102
1, 18987, Note_on_c, 0, 52, 100
1, 19438, Note_off_c, 0, 52, 100
1, 19769, Note_on_c, 0, 50, 110
1, 19834, Note_off_c, 0, 50, 110
1, 19840, Note_on_c, 0, 48, 103
1, 19880, Note_off_c, 0, 48, 103
1, 19880, Note_on_c, 0, 50, 102
1, 19935, Note_off_c, 0, 50, 102
1, 19947, Note_on_c, 0, 53, 110
1, 20015, Note_off_c, 0, 53, 110
1, 20026, Note_on_c, 0, 60, 111
1, 20114, Note_off_c, 0, 60, 111
1, 20132, Note_on_c, 0, 57, 103
1, 20158, Note_off_c, 0, 57, 103
1, 20175, Note_on_c, 0, 53, 108
1, 20311, Note_off_c, 0, 53, 108
1, 20324, Note_on_c, 0, 54, 117
1, 20390, Note_off_c, 0, 54, 117
1, 20398, Note_on_c, 0, 56, 111
1, 20470, Note_off_c, 0, 56, 111
1, 20491, Note_on_c, 0, 50, 93
1, 20584, Note_off_c, 0, 50, 93
1, 20591, Note_on_c, 0, 53, 109
1, 20647, Note_off_c, 0, 53, 109
1, 20658, Note_on_c, 0, 56, 111
1, 20702, Note_off_c, 0, 56, 111
1, 20709, Note_on_c, 0, 59, 107
1, 20751, Note_off_c, 0, 59, 107
1, 20757, Note_on_c, 0, 62, 105
1, 20794, Note_off_c, 0, 62, 105
1, 20807, Note_on_c, 0, 64, 106
1, 20877, Note_off_c, 0, 64, 106
1, 20883, Note_on_c, 0, 65, 89
1, 21025, Note_off_c, 0, 65, 89
1, 21291, Note_on_c, 0, 57, 118
1, 21348, Note_off_c, 0, 57, 118
1, 21367, Note_on_c, 0, 61, 109
1, 21450, Note_off_c, 0, 61, 109
1, 21475, Note_on_c, 0, 64, 110
1, 21551, Note_off_c, 0, 64, 110
1, 21560, Note_on_c, 0, 61, 105
1, 21654, Note_off_c, 0, 61, 105
1, 21679, Note_on_c, 0, 57, 104
1, 21730, Note_off_c, 0, 57, 104
1, 21737, Note_on_c, 0, 61, 101
1, 21847, Note_off_c, 0, 61, 101
1, 21851, Note_on_c, 0, 63, 101
1, 21993, Note_off_c, 0, 63, 101
1, 22039, Note_on_c, 0, 52, 105
1, 22074, Note_off_c, 0, 52, 105
1, 22079, Note_on_c, 0, 55, 101
1, 22114, Note_off_c, 0, 55, 101
1, 22124, Note_on_c, 0, 60, 112
1, 22170, Note_off_c, 0, 60, 112
1, 22178, Note_on_c, 0, 61, 104
1, 22209, Note_off_c, 0, 61, 104
1, 22223, Note_on_c, 0, 62, 99
1, 22264, Note_off_c, 0, 62, 99
1, 22279, Note_on_c, 0, 63, 107
1, 22363, Note_off_c, 0, 63, 107
1, 22380, Note_on_c, 0, 61, 106
1, 22420, Note_off_c, 0, 61, 106
1, 22437, Note_on_c, 0, 67, 102
1, 22479, Note_off_c, 0, 67, 102
1, 22486, Note_on_c, 0, 65, 100
1, 22512, Note_off_c, 0, 65, 100
1, 22524, Note_on_c, 0, 64, 104
1, 22564, Note_off_c, 0, 64, 104
1, 22568, Note_on_c, 0, 65, 100
1, 22602, Note_off_c, 0, 65, 100
1, 22607, Note_on_c, 0, 64, 95
1, 22638, Note_off_c, 0, 64, 95
1, 22654, Note_on_c, 0, 61, 100
1, 22710, Note_off_c, 0, 61, 100
1, 22720, Note_on_c, 0, 60, 107
1, 22749, Note_off_c, 0, 60, 107
1, 22760, Note_on_c, 0, 58, 95
1, 22798, Note_off_c, 0, 58, 95
1, 22809, Note_on_c, 0, 57, 103
1, 22866, Note_off_c, 0, 57, 103
1, 23184, Note_on_c, 0, 60, 100
1, 23529, Note_off_c, 0, 60, 100
1, 23562, Note_on_c, 0, 56, 102
1, 23587, Note_off_c, 0, 56, 102
1, 23591, Note_on_c, 0, 57, 110
1, 23636, Note_off_c, 0, 57, 110
1, 23639, Note_on_c, 0, 58, 98
1, 23703, Note_off_c, 0, 58, 98
1, 23711, Note_on_c, 0, 60, 105
1, 23760, Note_off_c, 0, 60, 105
1, 23777, Note_on_c, 0, 57, 110
1, 23835, Note_off_c, 0, 57, 110
1, 23846, Note_on_c, 0, 55, 102
1, 24002, Note_off_c, 0, 55, 102
1, 24352, Note_on_c, 0, 48, 101
1, 24464, Note_off_c, 0, 48, 101
1, 24475, Note_on_c, 0, 52, 110
1, 24515, Note_off_c, 0, 52, 110
1, 24529, Note_on_c, 0, 53, 103
1, 24549, Note_off_c, 0, 53, 103
1, 24549, Note_on_c, 0, 57, 102
1, 24580, Note_off_c, 0, 57, 102
1, 24584, Note_on_c, 0, 60, 111
1, 24642, Note_off_c, 0, 60, 111
1, 24658, Note_on_c, 0, 57, 98
1, 24702, Note_off_c, 0, 57, 98
1, 24705, Note_on_c, 0, 50, 93
1, 24754, Note_off_c, 0, 50, 93
1, 24760, Note_on_c, 0, 52, 110
1, 24844, Note_off_c, 0, 52, 110
1, 24846, Note_on_c, 0, 57, 114
1, 24920, Note_off_c, 0, 57, 114
1, 24925, Note_on_c, 0, 56, 109
1, 24953, Note_off_c, 0, 56, 109
1, 24960, Note_on_c, 0, 55, 109
1, 25001, Note_off_c, 0, 55, 109
1, 25016, Note_on_c, 0, 54, 103
1, 25061, Note_off_c, 0, 54, 103
1, 25069, Note_on_c, 0, 53, 110
1, 25105, Note_off_c, 0, 53, 110
1, 25112, Note_on_c, 0, 52, 106
1, 25151, Note_off_c, 0, 52, 106
1, 25159, Note_on_c, 0, 51, 95
1, 25292, Note_off_c, 0, 51, 95
1, 25470, Note_on_c, 0, 65, 100
1, 25701, Note_off_c, 0, 65, 100
1, 25713, Note_on_c, 0, 63, 102
1, 25778, Note_off_c, 0, 63, 102
1, 25796, Note_on_c, 0, 65, 103
1, 25916, Note_off_c, 0, 65, 103
1, 25947, Note_on_c, 0, 61, 78
1, 25975, Note_off_c, 0, 61, 78
1, 25982, Note_on_c, 0, 62, 118
1, 26043, Note_off_c, 0, 62, 118
1, 26052, Note_on_c, 0, 65, 115
1, 26092, Note_off_c, 0, 65, 115
1, 26132, Note_on_c, 0, 60, 115
1, 26303, Note_off_c, 0, 60, 115
1, 26324, Note_on_c, 0, 53, 122
1, 26400, Note_off_c, 0, 53, 122
1, 26421, Note_on_c, 0, 60, 121
1, 26463, Note_off_c, 0, 60, 121
1, 26477, Note_on_c, 0, 61, 95
1, 26656, Note_off_c, 0, 61, 95
1, 26700, Note_on_c, 0, 58, 104
1, 26791, Note_off_c, 0, 58, 104
1, 26795, Note_on_c, 0, 57, 108
1, 26808, Note_off_c, 0, 57, 108
1, 26817, Note_on_c, 0, 55, 120
1, 26873, Note_off_c, 0, 55, 120
1, 27067, Note_on_c, 0, 53, 127
1, 27182, Note_off_c, 0, 53, 127
1, 27199, Note_on_c, 0, 51, 109
1, 27270, Note_off_c, 0, 51, 109
1, 27270, Note_on_c, 0, 52, 123
1, 27374, Note_off_c, 0, 52, 123
1, 27388, Note_on_c, 0, 61, 122
1, 27459, Note_off_c, 0, 61, 122
1, 27475, Note_on_c, 0, 60, 125
1, 27569, Note_off_c, 0, 60, 125
1, 27582, Note_on_c, 0, 58, 108
1, 27644, Note_off_c, 0, 58, 108
1, 27657, Note_on_c, 0, 57, 124
1, 27746, Note_off_c, 0, 57, 124
1, 27777, Note_on_c, 0, 52, 120
1, 27838, Note_off_c, 0, 52, 120
1, 27841, Note_on_c, 0, 53, 124
1, 27902, Note_off_c, 0, 53, 124
1, 27912, Note_on_c, 0, 56, 112
1, 27955, Note_off_c, 0, 56, 112
1, 27963, Note_on_c, 0, 60, 124
1, 28018, Note_off_c, 0, 60, 124
1, 28046, Note_on_c, 0, 65, 107
1, 28216, Note_off_c, 0, 65, 107
1, 28256, Note_on_c, 0, 63, 116
1, 28309, Note_off_c, 0, 63, 116
1, 28352, Note_on_c, 0, 60, 99
1, 28625, Note_off_c, 0, 60, 99
1, 28625, End_track
0, 0, End_of_file
