0, 0, Header, 1, 1, 192
1, 0, Start_track
1, 0, Title_t, "Melody"
1, 0, Tempo, 408163
1, 0, Key_signature, 3, "major"
1, 0, Time_signature, 4, 2, 24, 8
1, 2334, Note_on_c, 0, 66, 117
1, 2385, Note_off_c, 0, 66, 117
1, 2532, Note_on_c, 0, 64, 121
1, 2581, Note_off_c, 0, 64, 121
1, 2921, Note_on_c, 0, 61, 118
1, 2955, Note_off_c, 0, 61, 118
1, 2970, Note_on_c, 0, 59, 103
1, 3086, Note_off_c, 0, 59, 103
1, 3101, Note_on_c, 0, 57, 108
1, 3149, Note_off_c, 0, 57, 108
1, 3161, Note_on_c, 0, 56, 104
1, 3234, Note_off_c, 0, 56, 104
1, 3340, Note_on_c, 0, 54, 112
1, 3460, Note_off_c, 0, 54, 112
1, 3490, Note_on_c, 0, 56, 105
1, 3535, Note_off_c, 0, 56, 105
1, 3541, Note_on_c, 0, 57, 117
1, 3627, Note_off_c, 0, 57, 117
1, 3676, Note_on_c, 0, 59, 116
1, 3709, Note_off_c, 0, 59, 116
1, 3734, Note_on_c, 0, 56, 108
1, 3846, Note_off_c, 0, 56, 108
1, 3874, Note_on_c, 0, 54, 117
1, 4020, Note_off_c, 0, 54, 117
1, 4041, Note_on_c, 0, 54, 110
1, 4091, Note_off_c, 0, 54, 110
1, 4266, Note_on_c, 0, 52, 117
1, 4301, Note_off_c, 0, 52, 117
1, 4322, Note_on_c, 0, 51, 111
1, 4428, Note_off_c, 0, 51, 111
1, 4443, Note_on_c, 0, 51, 105
1, 4502, Note_off_c, 0, 51, 105
1, 4533, Note_on_c, 0, 54, 100
1, 4586, Note_off_c, 0, 54, 100
1, 4597, Note_on_c, 0, 55, 106
1, 4629, Note_off_c, 0, 55, 106
1, 4632, Note_on_c, 0, 56, 114
1, 4662, Note_off_c, 0, 56, 114
1, 4677, Note_on_c, 0, 57, 119
1, 4796, Note_off_c, 0, 57, 119
1, 4828, Note_on_c, 0, 60, 117
1, 4870, Note_off_c, 0, 60, 117
1, 4882, Note_on_c, 0, 61, 119
1, 5019, Note_off_c, 0, 61, 119
1, 5041, Note_on_c, 0, 59, 89
1, 5073, Note_off_c, 0, 59, 89
1, 5082, Note_on_c, 0, 61, 120
1, 5209, Note_off_c, 0, 61, 120
1, 5220, Note_on_c, 0, 64, 121
1, 5268, Note_off_c, 0, 64, 121
1, 5418, Note_on_c, 0, 63, 113
1, 5469, Note_off_c, 0, 63, 113
1, 5480, Note_on_c, 0, 64, 123
1, 5721, Note_off_c, 0, 64, 123
1, 5792, Note_on_c, 0, 64, 125
1, 6037, Note_off_c, 0, 64, 125
1, 6043, Note_on_c, 0, 61, 121
1, 6163, Note_off_c, 0, 61, 121
1, 6169, Note_on_c, 0, 60, 101
1, 6217, Note_off_c, 0, 60, 101
1, 6222, Note_on_c, 0, 61, 115
1, 6328, Note_off_c, 0, 61, 115
1, 6340, Note_on_c, 0, 61, 116
1, 6385, Note_off_c, 0, 61, 116
1, 6931, Note_on_c, 0, 64, 125
1, 7093, Note_off_c, 0, 64, 125
1, 7108, Note_on_c, 0, 64, 116
1, 7171, Note_off_c, 0, 64, 116
1, 7181, Note_on_c, 0, 62, 122
1, 7306, Note_off_c, 0, 62, 122
1, 7329, Note_on_c, 0, 60, 96
1, 7371, Note_off_c, 0, 60, 96
1, 7371, Note_on_c, 0, 62, 124
1, 7491, Note_off_c, 0, 62, 124
1, 7501, Note_on_c, 0, 61, 123
1, 7551, Note_off_c, 0, 61, 123
1, 7575, Note_on_c, 0, 60, 115
1, 7670, Note_off_c, 0, 60, 115
1, 7696, Note_on_c, 0, 57, 100
1, 7726, Note_off_c, 0, 57, 100
1, 7746, Note_on_c, 0, 60, 113
1, 7865, Note_off_c, 0, 60, 113
1, 7885, Note_on_c, 0, 60, 109
1, 7929, Note_off_c, 0, 60, 109
1, 7951, Note_on_c, 0, 58, 110
1, 8064, Note_off_c, 0, 58, 110
1, 8080, Note_on_c, 0, 56, 100
1, 8125, Note_off_c, 0, 56, 100
1, 8138, Note_on_c, 0, 58, 112
1, 8239, Note_off_c, 0, 58, 112
1, 8249, Note_on_c, 0, 58, 116
1, 8295, Note_off_c, 0, 58, 116
1, 8306, Note_on_c, 0, 56, 115
1, 8364, Note_off_c, 0, 56, 115
1, 8676, Note_on_c, 0, 55, 108
1, 8700, Note_off_c, 0, 55, 108
1, 8722, Note_on_c, 0, 62, 123
1, 8822, Note_off_c, 0, 62, 123
1, 8842, Note_on_c, 0, 61, 123
1, 9049, Note_off_c, 0, 61, 123
1, 9081, Note_on_c, 0, 59, 113
1, 9174, Note_off_c, 0, 59, 113
1, 9208, Note_on_c, 0, 57, 109
1, 9256, Note_off_c, 0, 57, 109
1, 9263, Note_on_c, 0, 56, 108
1, 9360, Note_off_c, 0, 56, 108
1, 9414, Note_on_c, 0, 54, 109
1, 9560, Note_off_c, 0, 54, 109
1, 9572, Note_on_c, 0, 54, 110
1, 9610, Note_off_c, 0, 54, 110
1, 10395, Note_on_c, 0, 66, 126
1, 10452, Note_off_c, 0, 66, 126
1, 10463, Note_on_c, 0, 66, 117
1, 10530, Note_off_c, 0, 66, 117
1, 10541, Note_on_c, 0, 64, 118
1, 10571, Note_off_c, 0, 64, 118
1, 10595, Note_on_c, 0, 66, 124
1, 10713, Note_off_c, 0, 66, 124
1, 10730, Note_on_c, 0, 66, 122
1, 10774, Note_off_c, 0, 66, 122
1, 11320, Note_on_c, 0, 69, 117
1, 11416, Note_off_c, 0, 69, 117
1, 11500, Note_on_c, 0, 69, 118
1, 11733, Note_off_c, 0, 69, 118
1, 11751, Note_on_c, 0, 66, 119
1, 11876, Note_off_c, 0, 66, 119
1, 11895, Note_on_c, 0, 64, 108
1, 11935, Note_off_c, 0, 64, 108
1, 11946, Note_on_c, 0, 66, 112
1, 12073, Note_off_c, 0, 66, 112
1, 12086, Note_on_c, 0, 66, 108
1, 12137, Note_off_c, 0, 66, 108
1, 13020, Note_on_c, 0, 68, 127
1, 13061, Note_off_c, 0, 68, 127
1, 13069, Note_on_c, 0, 69, 126
1, 13310, Note_off_c, 0, 69, 126
1, 13346, Note_on_c, 0, 66, 121
1, 13384, Note_off_c, 0, 66, 121
1, 13402, Note_on_c, 0, 64, 117
1, 13448, Note_off_c, 0, 64, 117
1, 13459, Note_on_c, 0, 66, 125
1, 13581, Note_off_c, 0, 66, 125
1, 13589, Note_on_c, 0, 66, 121
1, 13634, Note_off_c, 0, 66, 121
1, 13831, Note_on_c, 0, 66, 122
1, 13925, Note_off_c, 0, 66, 122
1, 13930, Note_on_c, 0, 65, 113
1, 13979, Note_off_c, 0, 65, 113
1, 14357, Note_on_c, 0, 69, 126
1, 14426, Note_off_c, 0, 69, 126
1, 14433, Note_on_c, 0, 68, 113
1, 14486, Note_off_c, 0, 68, 113
1, 14556, Note_on_c, 0, 69, 121
1, 14856, Note_off_c, 0, 69, 121
1, 14875, Note_on_c, 0, 66, 116
1, 14909, Note_off_c, 0, 66, 116
1, 14931, Note_on_c, 0, 64, 116
1, 14980, Note_off_c, 0, 64, 116
1, 14999, Note_on_c, 0, 66, 116
1, 15049, Note_off_c, 0, 66, 116
1, 15056, Note_on_c, 0, 66, 123
1, 15099, Note_off_c, 0, 66, 123
1, 15115, Note_on_c, 0, 64, 116
1, 15168, Note_off_c, 0, 64, 116
1, 15181, Note_on_c, 0, 66, 120
1, 15254, Note_off_c, 0, 66, 120
1, 15478, Note_on_c, 0, 64, 125
1, 15544, Note_off_c, 0, 64, 125
1, 15561, Note_on_c, 0, 61, 113
1, 15641, Note_off_c, 0, 61, 113
1, 15833, Note_on_c, 0, 62, 120
1, 15893, Note_off_c, 0, 62, 120
1, 15907, Note_on_c, 0, 59, 111
1, 15967, Note_off_c, 0, 59, 111
1, 16193, Note_on_c, 0, 60, 107
1, 16222, Note_off_c, 0, 60, 107
1, 16229, Note_on_c, 0, 61, 119
1, 16291, Note_off_c, 0, 61, 119
1, 16302, Note_on_c, 0, 57, 112
1, 16351, Note_off_c, 0, 57, 112
1, 16567, Note_on_c, 0, 58, 110
1, 16598, Note_off_c, 0, 58, 110
1, 16609, Note_on_c, 0, 59, 121
1, 16659, Note_off_c, 0, 59, 121
1, 16668, Note_on_c, 0, 54, 114
1, 16775, Note_off_c, 0, 54, 114
1, 16972, Note_on_c, 0, 57, 120
1, 17037, Note_off_c, 0, 57, 120
1, 17052, Note_on_c, 0, 55, 111
1, 17100, Note_off_c, 0, 55, 111
1, 17387, Note_on_c, 0, 63, 124
1, 17412, Note_off_c, 0, 63, 124
1, 17420, Note_on_c, 0, 59, 112
1, 17437, Note_off_c, 0, 59, 112
1, 17445, Note_on_c, 0, 56, 118
1, 17523, Note_off_c, 0, 56, 118
1, 17739, Note_on_c, 0, 63, 119
1, 17759, Note_off_c, 0, 63, 119
1, 17771, Note_on_c, 0, 61, 121
1, 17788, Note_off_c, 0, 61, 121
1, 17792, Note_on_c, 0, 57, 119
1, 17872, Note_off_c, 0, 57, 119
1, 18114, Note_on_c, 0, 61, 123
1, 18152, Note_off_c, 0, 61, 123
1, 18157, Note_on_c, 0, 62, 122
1, 18247, Note_off_c, 0, 62, 122
1, 18262, Note_on_c, 0, 60, 114
1, 18293, Note_off_c, 0, 60, 114
1, 18317, Note_on_c, 0, 57, 110
1, 18356, Note_off_c, 0, 57, 110
1, 18385, Note_on_c, 0, 56, 110
1, 18462, Note_off_c, 0, 56, 110
1, 18486, Note_on_c, 0, 54, 114
1, 18532, Note_off_c, 0, 54, 114
1, 18674, Note_on_c, 0, 56, 122
1, 18710, Note_off_c, 0, 56, 122
1, 18722, Note_on_c, 0, 57, 118
1, 18847, Note_off_c, 0, 57, 118
1, 18869, Note_on_c, 0, 60, 115
1, 18888, Note_off_c, 0, 60, 115
1, 18898, Note_on_c, 0, 61, 122
1, 19010, Note_off_c, 0, 61, 122
1, 19044, Note_on_c, 0, 59, 113
1, 19130, Note_off_c, 0, 59, 113
1, 19149, Note_on_c, 0, 62, 116
1, 19166, Note_off_c, 0, 62, 116
1, 19177, Note_on_c, 0, 59, 106
1, 19201, Note_off_c, 0, 59, 106
1, 19220, Note_on_c, 0, 57, 112
1, 19268, Note_off_c, 0, 57, 112
1, 19301, Note_on_c, 0, 56, 114
1, 19391, Note_off_c, 0, 56, 114
1, 19425, Note_on_c, 0, 54, 109
1, 19483, Note_off_c, 0, 54, 109
1, 19503, Note_on_c, 0, 57, 95
1, 19593, Note_off_c, 0, 57, 95
1, 19604, Note_on_c, 0, 57, 98
1, 19649, Note_off_c, 0, 57, 98
1, 19649, End_track
0, 0, End_of_file
