0, 0, Header, 1, 1, 2520
1, 0, Start_track
1, 0, Title_t, "Melody"
1, 0, Tempo, 458015
1, 0, Key_signature, -3, "major"
1, 0, Time_signature, 4, 2, 24, 8
1, 16236, Note_on_c, 0, 58, 115
1, 17089, Note_off_c, 0, 58, 115
1, 17111, Note_on_c, 0, 61, 122
1, 18570, Note_off_c, 0, 61, 122
1, 19423, Note_on_c, 0, 63, 124
1, 20860, Note_off_c, 0, 63, 124
1, 21398, Note_on_c, 0, 63, 122
1, 22700, Note_off_c, 0, 63, 122
1, 23059, Note_on_c, 0, 63, 124
1, 23822, Note_off_c, 0, 63, 124
1, 24563, Note_on_c, 0, 63, 123
1, 26157, Note_off_c, 0, 63, 123
1, 35858, Note_on_c, 0, 58, 120
1, 36486, Note_off_c, 0, 58, 120
1, 37024, Note_on_c, 0, 61, 119
1, 37877, Note_off_c, 0, 61, 119
1, 38483, Note_on_c, 0, 65, 123
1, 39291, Note_off_c, 0, 65, 123
1, 40377, Note_on_c, 0, 63, 123
1, 41303, Note_off_c, 0, 63, 123
1, 42245, Note_on_c, 0, 63, 123
1, 44448, Note_off_c, 0, 63, 123
1, 44783, Note_on_c, 0, 61, 121
1, 46348, Note_off_c, 0, 61, 121
1, 46747, Note_on_c, 0, 65, 124
1, 47417, Note_off_c, 0, 65, 124
1, 48918, Note_on_c, 0, 64, 121
1, 50019, Note_off_c, 0, 64, 121
1, 53835, Note_on_c, 0, 63, 123
1, 54984, Note_off_c, 0, 63, 123
1, 56293, Note_on_c, 0, 61, 122
1, 57123, Note_off_c, 0, 61, 122
1, 57314, Note_on_c, 0, 58, 114
1, 58144, Note_off_c, 0, 58, 114
1, 58734, Note_on_c, 0, 56, 116
1, 59356, Note_off_c, 0, 56, 116
1, 59851, Note_on_c, 0, 55, 115
1, 61016, Note_off_c, 0, 55, 115
1, 64912, Note_on_c, 0, 56, 121
1, 65981, Note_off_c, 0, 56, 121
1, 68775, Note_on_c, 0, 60, 119
1, 69525, Note_off_c, 0, 60, 119
1, 70131, Note_on_c, 0, 58, 119
1, 71967, Note_off_c, 0, 58, 119
1, 72318, Note_on_c, 0, 56, 119
1, 72717, Note_off_c, 0, 56, 119
1, 73084, Note_on_c, 0, 55, 114
1, 73658, Note_off_c, 0, 55, 114
1, 73865, Note_on_c, 0, 53, 116
1, 74647, Note_off_c, 0, 53, 116
1, 74806, Note_on_c, 0, 52, 113
1, 76690, Note_off_c, 0, 52, 113
1, 77328, Note_on_c, 0, 61, 121
1, 77902, Note_off_c, 0, 61, 121
1, 78125, Note_on_c, 0, 61, 118
1, 78636, Note_off_c, 0, 61, 118
1, 78971, Note_on_c, 0, 58, 120
1, 79466, Note_off_c, 0, 58, 120
1, 79977, Note_on_c, 0, 56, 116
1, 82100, Note_off_c, 0, 56, 116
1, 82419, Note_on_c, 0, 55, 116
1, 82738, Note_off_c, 0, 55, 116
1, 82865, Note_on_c, 0, 56, 125
1, 83360, Note_off_c, 0, 56, 125
1, 83631, Note_on_c, 0, 52, 112
1, 84477, Note_off_c, 0, 52, 112
1, 85099, Note_on_c, 0, 55, 119
1, 86057, Note_off_c, 0, 55, 119
1, 87957, Note_on_c, 0, 51, 114
1, 88356, Note_off_c, 0, 51, 114
1, 88579, Note_on_c, 0, 53, 117
1, 89217, Note_off_c, 0, 53, 117
1, 89217, Note_on_c, 0, 51, 101
1, 89600, Note_off_c, 0, 51, 101
1, 90526, Note_on_c, 0, 50, 110
1, 91324, Note_off_c, 0, 50, 110
1, 93958, Note_on_c, 0, 53, 124
1, 94756, Note_off_c, 0, 53, 124
1, 94931, Note_on_c, 0, 56, 119
1, 96288, Note_off_c, 0, 56, 119
1, 96399, Note_on_c, 0, 60, 121
1, 97037, Note_off_c, 0, 60, 121
1, 97452, Note_on_c, 0, 58, 122
1, 98681, Note_off_c, 0, 58, 122
1, 99112, Note_on_c, 0, 56, 123
1, 99591, Note_off_c, 0, 56, 123
1, 99718, Note_on_c, 0, 55, 117
1, 101267, Note_off_c, 0, 55, 117
1, 101538, Note_on_c, 0, 58, 120
1, 102144, Note_off_c, 0, 58, 120
1, 102431, Note_on_c, 0, 60, 121
1, 103948, Note_off_c, 0, 60, 121
1, 104970, Note_on_c, 0, 63, 120
1, 107077, Note_off_c, 0, 63, 120
1, 107188, Note_on_c, 0, 60, 112
1, 107475, Note_off_c, 0, 60, 112
1, 107554, Note_on_c, 0, 63, 120
1, 109917, Note_off_c, 0, 63, 120
1, 116767, Note_on_c, 0, 58, 121
1, 117325, Note_off_c, 0, 58, 121
1, 117628, Note_on_c, 0, 60, 121
1, 119145, Note_off_c, 0, 60, 121
1, 120183, Note_on_c, 0, 63, 124
1, 122051, Note_off_c, 0, 63, 124
1, 122162, Note_on_c, 0, 60, 100
1, 122688, Note_on_c, 0, 63, 118
1, 122688, Note_off_c, 0, 60, 100
1, 125067, Note_off_c, 0, 63, 118
1, 131917, Note_on_c, 0, 66, 121
1, 132763, Note_off_c, 0, 66, 121
1, 132842, Note_on_c, 0, 65, 123
1, 134359, Note_off_c, 0, 65, 123
1, 135381, Note_on_c, 0, 63, 121
1, 136898, Note_off_c, 0, 63, 121
1, 137265, Note_on_c, 0, 58, 106
1, 137903, Note_off_c, 0, 58, 106
1, 138078, Note_on_c, 0, 61, 117
1, 139627, Note_off_c, 0, 61, 117
1, 139802, Note_on_c, 0, 61, 115
1, 140392, Note_off_c, 0, 61, 115
1, 140727, Note_on_c, 0, 58, 116
1, 142100, Note_off_c, 0, 58, 116
1, 146092, Note_on_c, 0, 65, 123
1, 146970, Note_off_c, 0, 65, 123
1, 147033, Note_on_c, 0, 63, 122
1, 148470, Note_off_c, 0, 63, 122
1, 157380, Note_on_c, 0, 58, 120
1, 158210, Note_off_c, 0, 58, 120
1, 158465, Note_on_c, 0, 61, 120
1, 160253, Note_off_c, 0, 61, 120
1, 160764, Note_on_c, 0, 63, 117
1, 164373, Note_off_c, 0, 63, 117
1, 164404, Note_on_c, 0, 65, 113
1, 164707, Note_off_c, 0, 65, 113
1, 164818, Note_on_c, 0, 63, 117
1, 165121, Note_off_c, 0, 63, 117
1, 165216, Note_on_c, 0, 61, 121
1, 165854, Note_off_c, 0, 61, 121
1, 166141, Note_on_c, 0, 63, 121
1, 167610, Note_off_c, 0, 63, 121
1, 167689, Note_on_c, 0, 61, 118
1, 168407, Note_off_c, 0, 61, 118
1, 172527, Note_on_c, 0, 66, 122
1, 173261, Note_off_c, 0, 66, 122
1, 173356, Note_on_c, 0, 65, 121
1, 175511, Note_off_c, 0, 65, 121
1, 175942, Note_on_c, 0, 63, 119
1, 177395, Note_off_c, 0, 63, 119
1, 177714, Note_on_c, 0, 58, 107
1, 178288, Note_off_c, 0, 58, 107
1, 178495, Note_on_c, 0, 61, 119
1, 180028, Note_off_c, 0, 61, 119
1, 180331, Note_on_c, 0, 61, 116
1, 180857, Note_off_c, 0, 61, 116
1, 180952, Note_on_c, 0, 58, 116
1, 182596, Note_off_c, 0, 58, 116
1, 186061, Note_on_c, 0, 63, 124
1, 188105, Note_off_c, 0, 63, 124
1, 188679, Note_on_c, 0, 61, 116
1, 190371, Note_off_c, 0, 61, 116
1, 190371, Note_on_c, 0, 58, 114
1, 191951, Note_off_c, 0, 58, 114
1, 192254, Note_on_c, 0, 58, 104
1, 193355, Note_off_c, 0, 58, 104
1, 200445, Note_on_c, 0, 57, 118
1, 201419, Note_off_c, 0, 57, 118
1, 201466, Note_on_c, 0, 56, 98
1, 202839, Note_off_c, 0, 56, 98
1, 202950, Note_on_c, 0, 60, 118
1, 203492, Note_off_c, 0, 60, 118
1, 203555, Note_on_c, 0, 63, 122
1, 205343, Note_off_c, 0, 63, 122
1, 206205, Note_on_c, 0, 67, 123
1, 208137, Note_off_c, 0, 67, 123
1, 212832, Note_on_c, 0, 68, 124
1, 213438, Note_off_c, 0, 68, 124
1, 213661, Note_on_c, 0, 67, 127
1, 214156, Note_off_c, 0, 67, 127
1, 214714, Note_on_c, 0, 68, 121
1, 215336, Note_off_c, 0, 68, 121
1, 215479, Note_on_c, 0, 67, 123
1, 216085, Note_off_c, 0, 67, 123
1, 216691, Note_on_c, 0, 68, 124
1, 217441, Note_off_c, 0, 68, 124
1, 217441, Note_on_c, 0, 67, 123
1, 218143, Note_off_c, 0, 67, 123
1, 218254, Note_on_c, 0, 68, 123
1, 218876, Note_off_c, 0, 68, 123
1, 218971, Note_on_c, 0, 67, 122
1, 219497, Note_off_c, 0, 67, 122
1, 219896, Note_on_c, 0, 68, 117
1, 220534, Note_off_c, 0, 68, 117
1, 220773, Note_on_c, 0, 67, 120
1, 221443, Note_off_c, 0, 67, 120
1, 221682, Note_on_c, 0, 63, 118
1, 222608, Note_off_c, 0, 63, 118
1, 222639, Note_on_c, 0, 61, 113
1, 223213, Note_off_c, 0, 61, 113
1, 223276, Note_on_c, 0, 63, 121
1, 225831, Note_off_c, 0, 63, 121
1, 235348, Note_on_c, 0, 72, 124
1, 236545, Note_off_c, 0, 72, 124
1, 237934, Note_on_c, 0, 70, 122
1, 239307, Note_off_c, 0, 70, 122
1, 240456, Note_on_c, 0, 68, 122
1, 241382, Note_off_c, 0, 68, 122
1, 241445, Note_on_c, 0, 67, 121
1, 242834, Note_off_c, 0, 67, 121
1, 242961, Note_on_c, 0, 65, 122
1, 243519, Note_off_c, 0, 65, 122
1, 243806, Note_on_c, 0, 63, 118
1, 245514, Note_off_c, 0, 63, 118
1, 245641, Note_on_c, 0, 60, 105
1, 246311, Note_off_c, 0, 60, 105
1, 246486, Note_on_c, 0, 61, 118
1, 247843, Note_off_c, 0, 61, 118
1, 248034, Note_on_c, 0, 63, 114
1, 248864, Note_off_c, 0, 63, 114
1, 249135, Note_on_c, 0, 65, 121
1, 250284, Note_off_c, 0, 65, 121
1, 250699, Note_on_c, 0, 61, 117
1, 251433, Note_off_c, 0, 61, 117
1, 251608, Note_on_c, 0, 60, 102
1, 252103, Note_off_c, 0, 60, 102
1, 252150, Note_on_c, 0, 63, 110
1, 252517, Note_off_c, 0, 63, 110
1, 252564, Note_on_c, 0, 60, 106
1, 253011, Note_off_c, 0, 60, 106
1, 253074, Note_on_c, 0, 58, 114
1, 253904, Note_off_c, 0, 58, 114
1, 253951, Note_on_c, 0, 57, 115
1, 255484, Note_off_c, 0, 57, 115
1, 255803, Note_on_c, 0, 60, 114
1, 256425, Note_off_c, 0, 60, 114
1, 256584, Note_on_c, 0, 58, 111
1, 257877, Note_off_c, 0, 58, 111
1, 262843, Note_on_c, 0, 60, 116
1, 263385, Note_off_c, 0, 60, 116
1, 263448, Note_on_c, 0, 61, 116
1, 264006, Note_off_c, 0, 61, 116
1, 264069, Note_on_c, 0, 60, 112
1, 264611, Note_off_c, 0, 60, 112
1, 264850, Note_on_c, 0, 60, 115
1, 265440, Note_off_c, 0, 60, 115
1, 266062, Note_on_c, 0, 58, 117
1, 266604, Note_off_c, 0, 58, 117
1, 267498, Note_on_c, 0, 60, 116
1, 268056, Note_off_c, 0, 60, 116
1, 268582, Note_on_c, 0, 58, 112
1, 269061, Note_off_c, 0, 58, 112
1, 269683, Note_on_c, 0, 60, 115
1, 270130, Note_off_c, 0, 60, 115
1, 270225, Note_on_c, 0, 61, 120
1, 270720, Note_off_c, 0, 61, 120
1, 270943, Note_on_c, 0, 63, 119
1, 271326, Note_off_c, 0, 63, 119
1, 271453, Note_on_c, 0, 65, 123
1, 272650, Note_off_c, 0, 65, 123
1, 272713, Note_on_c, 0, 61, 119
1, 273926, Note_off_c, 0, 61, 119
1, 274085, Note_on_c, 0, 60, 112
1, 275218, Note_off_c, 0, 60, 112
1, 275888, Note_on_c, 0, 58, 112
1, 276255, Note_off_c, 0, 58, 112
1, 276478, Note_on_c, 0, 57, 112
1, 276877, Note_off_c, 0, 57, 112
1, 277036, Note_on_c, 0, 60, 104
1, 277531, Note_off_c, 0, 60, 104
1, 277642, Note_on_c, 0, 58, 110
1, 278137, Note_off_c, 0, 58, 110
1, 278184, Note_on_c, 0, 57, 105
1, 278631, Note_off_c, 0, 57, 105
1, 278998, Note_on_c, 0, 56, 115
1, 279365, Note_off_c, 0, 56, 115
1, 279620, Note_on_c, 0, 53, 114
1, 280099, Note_off_c, 0, 53, 114
1, 280194, Note_on_c, 0, 51, 110
1, 280705, Note_off_c, 0, 51, 110
1, 280944, Note_on_c, 0, 49, 106
1, 281295, Note_off_c, 0, 49, 106
1, 281518, Note_on_c, 0, 48, 114
1, 282795, Note_off_c, 0, 48, 114
1, 283002, Note_on_c, 0, 49, 100
1, 283337, Note_off_c, 0, 49, 100
1, 283560, Note_on_c, 0, 50, 107
1, 283959, Note_off_c, 0, 50, 107
1, 284118, Note_on_c, 0, 51, 114
1, 284868, Note_off_c, 0, 51, 114
1, 289419, Note_on_c, 0, 54, 121
1, 290728, Note_off_c, 0, 54, 121
1, 290871, Note_on_c, 0, 55, 107
1, 291222, Note_off_c, 0, 55, 107
1, 291317, Note_on_c, 0, 56, 110
1, 291700, Note_off_c, 0, 56, 110
1, 291875, Note_on_c, 0, 57, 119
1, 293216, Note_off_c, 0, 57, 119
1, 293391, Note_on_c, 0, 58, 97
1, 293694, Note_off_c, 0, 58, 97
1, 293694, Note_on_c, 0, 59, 105
1, 293997, Note_off_c, 0, 59, 105
1, 294188, Note_on_c, 0, 60, 117
1, 295737, Note_off_c, 0, 60, 117
1, 295737, Note_on_c, 0, 61, 106
1, 295976, Note_off_c, 0, 61, 106
1, 296023, Note_on_c, 0, 62, 115
1, 296310, Note_off_c, 0, 62, 115
1, 296453, Note_on_c, 0, 63, 122
1, 298289, Note_off_c, 0, 63, 122
1, 298289, Note_on_c, 0, 64, 97
1, 298464, Note_off_c, 0, 64, 97
1, 298464, Note_on_c, 0, 66, 102
1, 298719, Note_off_c, 0, 66, 102
1, 298830, Note_on_c, 0, 67, 120
1, 299772, Note_off_c, 0, 67, 120
1, 304083, Note_on_c, 0, 67, 124
1, 304594, Note_off_c, 0, 67, 124
1, 304753, Note_on_c, 0, 68, 123
1, 305375, Note_off_c, 0, 68, 123
1, 305949, Note_on_c, 0, 67, 119
1, 306539, Note_off_c, 0, 67, 119
1, 308998, Note_on_c, 0, 67, 124
1, 309588, Note_off_c, 0, 67, 124
1, 309699, Note_on_c, 0, 68, 121
1, 310433, Note_off_c, 0, 68, 121
1, 310896, Note_on_c, 0, 67, 114
1, 311646, Note_off_c, 0, 67, 114
1, 313450, Note_on_c, 0, 65, 101
1, 314024, Note_off_c, 0, 65, 101
1, 314071, Note_on_c, 0, 67, 124
1, 314725, Note_off_c, 0, 67, 124
1, 314852, Note_on_c, 0, 68, 123
1, 315394, Note_off_c, 0, 68, 123
1, 316144, Note_on_c, 0, 67, 121
1, 316782, Note_off_c, 0, 67, 121
1, 317261, Note_on_c, 0, 65, 119
1, 317915, Note_off_c, 0, 65, 119
1, 318362, Note_on_c, 0, 63, 112
1, 318697, Note_off_c, 0, 63, 112
1, 318824, Note_on_c, 0, 64, 121
1, 320037, Note_off_c, 0, 64, 121
1, 320132, Note_on_c, 0, 67, 120
1, 320914, Note_off_c, 0, 67, 120
1, 321409, Note_on_c, 0, 65, 116
1, 323165, Note_off_c, 0, 65, 116
1, 323420, Note_on_c, 0, 64, 120
1, 323835, Note_off_c, 0, 64, 120
1, 324633, Note_on_c, 0, 60, 113
1, 325287, Note_off_c, 0, 60, 113
1, 325766, Note_on_c, 0, 56, 108
1, 326245, Note_off_c, 0, 56, 108
1, 326388, Note_on_c, 0, 55, 112
1, 327026, Note_off_c, 0, 55, 112
1, 327680, Note_on_c, 0, 53, 110
1, 328254, Note_off_c, 0, 53, 110
1, 328333, Note_on_c, 0, 55, 106
1, 328812, Note_off_c, 0, 55, 106
1, 328939, Note_on_c, 0, 56, 114
1, 329497, Note_off_c, 0, 56, 114
1, 329624, Note_on_c, 0, 60, 26
1, 330071, Note_off_c, 0, 60, 26
1, 330150, Note_on_c, 0, 60, 119
1, 330676, Note_off_c, 0, 60, 119
1, 331314, Note_on_c, 0, 63, 122
1, 332655, Note_off_c, 0, 63, 122
1, 332686, Note_on_c, 0, 60, 113
1, 333069, Note_off_c, 0, 60, 113
1, 333228, Note_on_c, 0, 61, 111
1, 333611, Note_off_c, 0, 61, 111
1, 333754, Note_on_c, 0, 62, 119
1, 334392, Note_off_c, 0, 62, 119
1, 334647, Note_on_c, 0, 58, 116
1, 335365, Note_off_c, 0, 58, 116
1, 335588, Note_on_c, 0, 62, 117
1, 336178, Note_off_c, 0, 62, 117
1, 336257, Note_on_c, 0, 60, 108
1, 336831, Note_off_c, 0, 60, 108
1, 337134, Note_on_c, 0, 56, 114
1, 337645, Note_off_c, 0, 56, 114
1, 338124, Note_on_c, 0, 60, 113
1, 338571, Note_off_c, 0, 60, 113
1, 338714, Note_on_c, 0, 58, 110
1, 339288, Note_off_c, 0, 58, 110
1, 340230, Note_on_c, 0, 51, 100
1, 340996, Note_off_c, 0, 51, 100
1, 340996, Note_on_c, 0, 55, 113
1, 341251, Note_off_c, 0, 55, 113
1, 341282, Note_on_c, 0, 56, 117
1, 341984, Note_off_c, 0, 56, 117
1, 341990, Note_on_c, 0, 58, 103
1, 342149, Note_off_c, 0, 58, 103
1, 342285, Note_on_c, 0, 55, 104
1, 342827, Note_off_c, 0, 55, 104
1, 347410, Note_on_c, 0, 55, 119
1, 348016, Note_off_c, 0, 55, 119
1, 348287, Note_on_c, 0, 52, 98
1, 348670, Note_off_c, 0, 52, 98
1, 348701, Note_on_c, 0, 53, 108
1, 349307, Note_off_c, 0, 53, 108
1, 349466, Note_on_c, 0, 55, 117
1, 350216, Note_off_c, 0, 55, 117
1, 350247, Note_on_c, 0, 57, 114
1, 350550, Note_off_c, 0, 57, 114
1, 350709, Note_on_c, 0, 58, 119
1, 351012, Note_off_c, 0, 58, 119
1, 351283, Note_on_c, 0, 60, 111
1, 351873, Note_off_c, 0, 60, 111
1, 352080, Note_on_c, 0, 63, 115
1, 352591, Note_off_c, 0, 63, 115
1, 352591, Note_on_c, 0, 60, 111
1, 352990, Note_off_c, 0, 60, 111
1, 352990, Note_on_c, 0, 61, 101
1, 353469, Note_off_c, 0, 61, 101
1, 353548, Note_on_c, 0, 62, 122
1, 354218, Note_off_c, 0, 62, 122
1, 354218, Note_on_c, 0, 58, 106
1, 355032, Note_off_c, 0, 58, 106
1, 359695, Note_on_c, 0, 58, 109
1, 360062, Note_off_c, 0, 58, 109
1, 360062, Note_on_c, 0, 61, 118
1, 360972, Note_off_c, 0, 61, 118
1, 361035, Note_on_c, 0, 63, 121
1, 362999, Note_off_c, 0, 63, 121
1, 363094, Note_on_c, 0, 61, 103
1, 363461, Note_off_c, 0, 61, 103
1, 363461, Note_on_c, 0, 63, 115
1, 364243, Note_off_c, 0, 63, 115
1, 364243, Note_on_c, 0, 61, 110
1, 364977, Note_off_c, 0, 61, 110
1, 368937, Note_on_c, 0, 58, 100
1, 369352, Note_off_c, 0, 58, 100
1, 369415, Note_on_c, 0, 61, 118
1, 370341, Note_off_c, 0, 61, 118
1, 370628, Note_on_c, 0, 63, 117
1, 372799, Note_off_c, 0, 63, 117
1, 372910, Note_on_c, 0, 61, 108
1, 373293, Note_off_c, 0, 61, 108
1, 373420, Note_on_c, 0, 63, 117
1, 374154, Note_off_c, 0, 63, 117
1, 374185, Note_on_c, 0, 61, 102
1, 374935, Note_off_c, 0, 61, 102
1, 378831, Note_on_c, 0, 58, 91
1, 379326, Note_off_c, 0, 58, 91
1, 379597, Note_on_c, 0, 61, 114
1, 380491, Note_off_c, 0, 61, 114
1, 380682, Note_on_c, 0, 63, 117
1, 382438, Note_off_c, 0, 63, 117
1, 382581, Note_on_c, 0, 61, 110
1, 382996, Note_off_c, 0, 61, 110
1, 383123, Note_on_c, 0, 63, 114
1, 383618, Note_off_c, 0, 63, 114
1, 383841, Note_on_c, 0, 67, 94
1, 385054, Note_off_c, 0, 67, 94
1, 388726, Note_on_c, 0, 58, 103
1, 389061, Note_off_c, 0, 58, 103
1, 389140, Note_on_c, 0, 61, 116
1, 389874, Note_off_c, 0, 61, 116
1, 390161, Note_on_c, 0, 63, 116
1, 392125, Note_off_c, 0, 63, 116
1, 392236, Note_on_c, 0, 61, 113
1, 392683, Note_off_c, 0, 61, 113
1, 392746, Note_on_c, 0, 63, 119
1, 393384, Note_off_c, 0, 63, 119
1, 393447, Note_on_c, 0, 62, 117
1, 393894, Note_off_c, 0, 62, 117
1, 399084, Note_on_c, 0, 63, 103
1, 400026, Note_off_c, 0, 63, 103
1, 400121, Note_on_c, 0, 66, 118
1, 401829, Note_off_c, 0, 66, 118
1, 402036, Note_on_c, 0, 68, 119
1, 402978, Note_off_c, 0, 68, 119
1, 407561, Note_on_c, 0, 60, 107
1, 408040, Note_off_c, 0, 60, 107
1, 408247, Note_on_c, 0, 63, 107
1, 408662, Note_off_c, 0, 63, 107
1, 408757, Note_on_c, 0, 66, 116
1, 409347, Note_off_c, 0, 66, 116
1, 409778, Note_on_c, 0, 69, 121
1, 410592, Note_off_c, 0, 69, 121
1, 410655, Note_on_c, 0, 68, 114
1, 411181, Note_off_c, 0, 68, 114
1, 411196, Note_on_c, 0, 69, 123
1, 411850, Note_off_c, 0, 69, 123
1, 411865, Note_on_c, 0, 68, 121
1, 412168, Note_off_c, 0, 68, 121
1, 412247, Note_on_c, 0, 69, 121
1, 412965, Note_off_c, 0, 69, 121
1, 413092, Note_on_c, 0, 68, 121
1, 414848, Note_off_c, 0, 68, 121
1, 414927, Note_on_c, 0, 66, 117
1, 415501, Note_off_c, 0, 66, 117
1, 415660, Note_on_c, 0, 63, 118
1, 417177, Note_off_c, 0, 63, 118
1, 417480, Note_on_c, 0, 61, 105
1, 417975, Note_off_c, 0, 61, 105
1, 418070, Note_on_c, 0, 58, 112
1, 419603, Note_off_c, 0, 58, 112
1, 419890, Note_on_c, 0, 56, 101
1, 421439, Note_off_c, 0, 56, 101
1, 421886, Note_on_c, 0, 60, 118
1, 422428, Note_off_c, 0, 60, 118
1, 422683, Note_on_c, 0, 57, 104
1, 423114, Note_off_c, 0, 57, 104
1, 423241, Note_on_c, 0, 58, 114
1, 423672, Note_off_c, 0, 58, 114
1, 423799, Note_on_c, 0, 57, 110
1, 424389, Note_off_c, 0, 57, 110
1, 424436, Note_on_c, 0, 55, 115
1, 424899, Note_off_c, 0, 55, 115
1, 425106, Note_on_c, 0, 51, 105
1, 425792, Note_off_c, 0, 51, 105
1, 428730, Note_on_c, 0, 55, 107
1, 429209, Note_off_c, 0, 55, 107
1, 429256, Note_on_c, 0, 56, 119
1, 429639, Note_off_c, 0, 56, 119
1, 429942, Note_on_c, 0, 60, 114
1, 430532, Note_off_c, 0, 60, 114
1, 431937, Note_on_c, 0, 58, 118
1, 432559, Note_off_c, 0, 58, 118
1, 433708, Note_on_c, 0, 56, 112
1, 434123, Note_off_c, 0, 56, 112
1, 434218, Note_on_c, 0, 55, 110
1, 434952, Note_off_c, 0, 55, 110
1, 436165, Note_on_c, 0, 53, 111
1, 436580, Note_off_c, 0, 53, 111
1, 436771, Note_on_c, 0, 52, 110
1, 437441, Note_off_c, 0, 52, 110
1, 437450, Note_on_c, 0, 53, 101
1, 437854, Note_off_c, 0, 53, 101
1, 437934, Note_on_c, 0, 57, 108
1, 438365, Note_off_c, 0, 57, 108
1, 438604, Note_on_c, 0, 62, 117
1, 439130, Note_off_c, 0, 62, 117
1, 439225, Note_on_c, 0, 60, 107
1, 440087, Note_off_c, 0, 60, 107
1, 441955, Note_on_c, 0, 56, 111
1, 442497, Note_off_c, 0, 56, 111
1, 444014, Note_on_c, 0, 52, 111
1, 444716, Note_off_c, 0, 52, 111
1, 446504, Note_on_c, 0, 55, 117
1, 447062, Note_off_c, 0, 55, 117
1, 447205, Note_on_c, 0, 52, 100
1, 447588, Note_off_c, 0, 52, 100
1, 447603, Note_on_c, 0, 53, 108
1, 448193, Note_off_c, 0, 53, 108
1, 448218, Note_on_c, 0, 51, 104
1, 448457, Note_off_c, 0, 51, 104
1, 448766, Note_on_c, 0, 50, 111
1, 449277, Note_off_c, 0, 50, 111
1, 449644, Note_on_c, 0, 52, 107
1, 450107, Note_off_c, 0, 52, 107
1, 450107, Note_on_c, 0, 56, 116
1, 450618, Note_off_c, 0, 56, 116
1, 450697, Note_on_c, 0, 60, 108
1, 451160, Note_off_c, 0, 60, 108
1, 451255, Note_on_c, 0, 58, 117
1, 451941, Note_off_c, 0, 58, 117
1, 453186, Note_on_c, 0, 57, 110
1, 453633, Note_off_c, 0, 57, 110
1, 453680, Note_on_c, 0, 56, 112
1, 454175, Note_off_c, 0, 56, 112
1, 454478, Note_on_c, 0, 60, 112
1, 454989, Note_off_c, 0, 60, 112
1, 454989, Note_on_c, 0, 63, 114
1, 455611, Note_off_c, 0, 63, 114
1, 455626, Note_on_c, 0, 66, 120
1, 456025, Note_off_c, 0, 66, 120
1, 456072, Note_on_c, 0, 67, 121
1, 457429, Note_off_c, 0, 67, 121
1, 457429, Note_on_c, 0, 62, 113
1, 458147, Note_off_c, 0, 62, 113
1, 458801, Note_on_c, 0, 65, 123
1, 460381, Note_off_c, 0, 65, 123
1, 460620, Note_on_c, 0, 62, 119
1, 462376, Note_off_c, 0, 62, 119
1, 462802, Note_on_c, 0, 58, 106
1, 464508, Note_off_c, 0, 58, 106
1, 465489, Note_on_c, 0, 58, 99
1, 466031, Note_off_c, 0, 58, 99
1, 466078, Note_on_c, 0, 56, 110
1, 466732, Note_off_c, 0, 56, 110
1, 466930, Note_on_c, 0, 59, 114
1, 467313, Note_off_c, 0, 59, 114
1, 467333, Note_on_c, 0, 60, 118
1, 467700, Note_off_c, 0, 60, 118
1, 468023, Note_on_c, 0, 56, 112
1, 468518, Note_off_c, 0, 56, 112
1, 468725, Note_on_c, 0, 55, 111
1, 469443, Note_off_c, 0, 55, 111
1, 469586, Note_on_c, 0, 51, 98
1, 469953, Note_off_c, 0, 51, 98
1, 469953, Note_on_c, 0, 53, 108
1, 470464, Note_off_c, 0, 53, 108
1, 470511, Note_on_c, 0, 51, 111
1, 470958, Note_off_c, 0, 51, 111
1, 471325, Note_on_c, 0, 50, 110
1, 471883, Note_off_c, 0, 50, 110
1, 472394, Note_on_c, 0, 56, 119
1, 473000, Note_off_c, 0, 56, 119
1, 473558, Note_on_c, 0, 60, 119
1, 474084, Note_off_c, 0, 60, 119
1, 474770, Note_on_c, 0, 58, 119
1, 475312, Note_off_c, 0, 58, 119
1, 475439, Note_on_c, 0, 57, 108
1, 475806, Note_off_c, 0, 57, 108
1, 475981, Note_on_c, 0, 55, 111
1, 476603, Note_off_c, 0, 55, 111
1, 476714, Note_on_c, 0, 57, 107
1, 477097, Note_off_c, 0, 57, 107
1, 477240, Note_on_c, 0, 60, 117
1, 478006, Note_off_c, 0, 60, 117
1, 478756, Note_on_c, 0, 63, 118
1, 479490, Note_off_c, 0, 63, 118
1, 490588, Note_on_c, 0, 66, 121
1, 491546, Note_off_c, 0, 66, 121
1, 491705, Note_on_c, 0, 63, 121
1, 494020, Note_off_c, 0, 63, 121
1, 494387, Note_on_c, 0, 61, 122
1, 495009, Note_off_c, 0, 61, 122
1, 495088, Note_on_c, 0, 63, 111
1, 495503, Note_off_c, 0, 63, 111
1, 495630, Note_on_c, 0, 61, 117
1, 496141, Note_off_c, 0, 61, 117
1, 496141, Note_on_c, 0, 58, 118
1, 496939, Note_off_c, 0, 58, 118
1, 496970, Note_on_c, 0, 61, 120
1, 499093, Note_off_c, 0, 61, 120
1, 499604, Note_on_c, 0, 63, 123
1, 502989, Note_off_c, 0, 63, 123
1, 503244, Note_on_c, 0, 61, 121
1, 503914, Note_off_c, 0, 61, 121
1, 503993, Note_on_c, 0, 58, 120
1, 504472, Note_off_c, 0, 58, 120
1, 504998, Note_on_c, 0, 57, 119
1, 506179, Note_off_c, 0, 57, 119
1, 506514, Note_on_c, 0, 56, 121
1, 507232, Note_off_c, 0, 56, 121
1, 507599, Note_on_c, 0, 54, 102
1, 508014, Note_on_c, 0, 56, 105
1, 508014, Note_off_c, 0, 54, 102
1, 508413, Note_off_c, 0, 56, 105
1, 508413, Note_on_c, 0, 54, 106
1, 508828, Note_off_c, 0, 54, 106
1, 509131, Note_on_c, 0, 51, 112
1, 509721, Note_off_c, 0, 51, 112
1, 509896, Note_on_c, 0, 49, 112
1, 511445, Note_off_c, 0, 49, 112
1, 511764, Note_on_c, 0, 49, 111
1, 513313, Note_off_c, 0, 49, 111
1, 520179, Note_on_c, 0, 60, 117
1, 521232, Note_off_c, 0, 60, 117
1, 521647, Note_on_c, 0, 63, 122
1, 522397, Note_off_c, 0, 63, 122
1, 522556, Note_on_c, 0, 58, 105
1, 522875, Note_off_c, 0, 58, 105
1, 523098, Note_on_c, 0, 56, 101
1, 523577, Note_off_c, 0, 56, 101
1, 525046, Note_on_c, 0, 56, 119
1, 527106, Note_off_c, 0, 56, 119
1, 527680, Note_on_c, 0, 56, 120
1, 529388, Note_off_c, 0, 56, 120
1, 530314, Note_on_c, 0, 56, 120
1, 532421, Note_off_c, 0, 56, 120
1, 534544, Note_on_c, 0, 59, 119
1, 534879, Note_off_c, 0, 59, 119
1, 534879, Note_on_c, 0, 60, 120
1, 535421, Note_off_c, 0, 60, 120
1, 535676, Note_on_c, 0, 57, 119
1, 537161, Note_off_c, 0, 57, 119
1, 539492, Note_on_c, 0, 60, 122
1, 540130, Note_off_c, 0, 60, 122
1, 540736, Note_on_c, 0, 58, 121
1, 542269, Note_off_c, 0, 58, 121
1, 542968, Note_on_c, 0, 46, 110
1, 543494, Note_off_c, 0, 46, 110
1, 543576, Note_on_c, 0, 51, 116
1, 544534, Note_off_c, 0, 51, 116
1, 544805, Note_on_c, 0, 55, 123
1, 545411, Note_off_c, 0, 55, 123
1, 545586, Note_on_c, 0, 56, 121
1, 546065, Note_off_c, 0, 56, 121
1, 546208, Note_on_c, 0, 55, 115
1, 546766, Note_off_c, 0, 55, 115
1, 546925, Note_on_c, 0, 56, 121
1, 547579, Note_off_c, 0, 56, 121
1, 547770, Note_on_c, 0, 55, 119
1, 548712, Note_off_c, 0, 55, 119
1, 548967, Note_on_c, 0, 56, 103
1, 549222, Note_off_c, 0, 56, 103
1, 549301, Note_on_c, 0, 55, 119
1, 549460, Note_off_c, 0, 55, 119
1, 549475, Note_on_c, 0, 54, 114
1, 549618, Note_off_c, 0, 54, 114
1, 549649, Note_on_c, 0, 53, 120
1, 550303, Note_off_c, 0, 53, 120
1, 550750, Note_on_c, 0, 52, 114
1, 551756, Note_off_c, 0, 52, 114
1, 554870, Note_on_c, 0, 55, 114
1, 555428, Note_off_c, 0, 55, 114
1, 555587, Note_on_c, 0, 56, 119
1, 556273, Note_off_c, 0, 56, 119
1, 556352, Note_on_c, 0, 55, 116
1, 556894, Note_off_c, 0, 55, 116
1, 557580, Note_on_c, 0, 53, 116
1, 558218, Note_off_c, 0, 53, 116
1, 558489, Note_on_c, 0, 52, 114
1, 559606, Note_off_c, 0, 52, 114
1, 559941, Note_on_c, 0, 55, 123
1, 560547, Note_off_c, 0, 55, 123
1, 560946, Note_on_c, 0, 53, 115
1, 562191, Note_off_c, 0, 53, 115
1, 562813, Note_on_c, 0, 55, 123
1, 563244, Note_off_c, 0, 55, 123
1, 563611, Note_on_c, 0, 56, 124
1, 564840, Note_off_c, 0, 56, 124
1, 565079, Note_on_c, 0, 58, 121
1, 565637, Note_off_c, 0, 58, 121
1, 566116, Note_on_c, 0, 60, 117
1, 567265, Note_off_c, 0, 60, 117
1, 567472, Note_on_c, 0, 63, 122
1, 568334, Note_off_c, 0, 63, 122
1, 568461, Note_on_c, 0, 60, 116
1, 569451, Note_off_c, 0, 60, 116
1, 570121, Note_on_c, 0, 61, 121
1, 570759, Note_off_c, 0, 61, 121
1, 570934, Note_on_c, 0, 62, 125
1, 572514, Note_off_c, 0, 62, 125
1, 572689, Note_on_c, 0, 58, 120
1, 573439, Note_off_c, 0, 58, 120
1, 577750, Note_on_c, 0, 58, 119
1, 578356, Note_off_c, 0, 58, 119
1, 578659, Note_on_c, 0, 61, 124
1, 580511, Note_off_c, 0, 61, 124
1, 581037, Note_on_c, 0, 63, 124
1, 583640, Note_off_c, 0, 63, 124
1, 583655, Note_on_c, 0, 61, 126
1, 585044, Note_off_c, 0, 61, 126
1, 585123, Note_on_c, 0, 64, 120
1, 585506, Note_off_c, 0, 64, 120
1, 585617, Note_on_c, 0, 61, 122
1, 586112, Note_off_c, 0, 61, 122
1, 586303, Note_on_c, 0, 58, 118
1, 587963, Note_off_c, 0, 58, 118
1, 590374, Note_on_c, 0, 63, 122
1, 593615, Note_off_c, 0, 63, 122
1, 593694, Note_on_c, 0, 61, 122
1, 594524, Note_off_c, 0, 61, 122
1, 594587, Note_on_c, 0, 58, 114
1, 595449, Note_off_c, 0, 58, 114
1, 596774, Note_on_c, 0, 57, 122
1, 597412, Note_off_c, 0, 57, 122
1, 598226, Note_on_c, 0, 56, 122
1, 598816, Note_off_c, 0, 56, 122
1, 599135, Note_on_c, 0, 54, 115
1, 599805, Note_off_c, 0, 54, 115
1, 599836, Note_on_c, 0, 56, 108
1, 600043, Note_off_c, 0, 56, 108
1, 600090, Note_on_c, 0, 54, 109
1, 600281, Note_off_c, 0, 54, 109
1, 600664, Note_on_c, 0, 51, 117
1, 601286, Note_off_c, 0, 51, 117
1, 601509, Note_on_c, 0, 49, 114
1, 602962, Note_off_c, 0, 49, 114
1, 603425, Note_on_c, 0, 49, 114
1, 606091, Note_off_c, 0, 49, 114
1, 606091, End_track
0, 0, End_of_file
