0, 0, Header, 1, 1, 840
1, 0, Start_track
1, 0, Title_t, "Melody"
1, 0, Tempo, 397350
1, 0, Key_signature, -3, "major"
1, 0, Time_signature, 4, 2, 24, 8
1, 10345, Note_on_c, 0, 72, 112
1, 10552, Note_off_c, 0, 72, 112
1, 10776, Note_on_c, 0, 73, 93
1, 11017, Note_off_c, 0, 73, 93
1, 13196, Note_on_c, 0, 72, 110
1, 13453, Note_off_c, 0, 72, 110
1, 13492, Note_on_c, 0, 73, 108
1, 13617, Note_off_c, 0, 73, 108
1, 13655, Note_on_c, 0, 75, 116
1, 13870, Note_off_c, 0, 75, 116
1, 13902, Note_on_c, 0, 73, 106
1, 14036, Note_off_c, 0, 73, 106
1, 14075, Note_on_c, 0, 75, 112
1, 14516, Note_off_c, 0, 75, 112
1, 14535, Note_on_c, 0, 71, 94
1, 14858, Note_off_c, 0, 71, 94
1, 17601, Note_on_c, 0, 78, 122
1, 17833, Note_off_c, 0, 78, 122
1, 17884, Note_on_c, 0, 76, 119
1, 18086, Note_off_c, 0, 76, 119
1, 18116, Note_on_c, 0, 77, 127
1, 18340, Note_off_c, 0, 77, 127
1, 18378, Note_on_c, 0, 76, 121
1, 18550, Note_off_c, 0, 76, 121
1, 18606, Note_on_c, 0, 75, 120
1, 18847, Note_off_c, 0, 75, 120
1, 18903, Note_on_c, 0, 73, 114
1, 19174, Note_off_c, 0, 73, 114
1, 19230, Note_on_c, 0, 70, 108
1, 19471, Note_off_c, 0, 70, 108
1, 19518, Note_on_c, 0, 66, 107
1, 19716, Note_off_c, 0, 66, 107
1, 19793, Note_on_c, 0, 64, 104
1, 19931, Note_off_c, 0, 64, 104
1, 19935, Note_on_c, 0, 65, 114
1, 20193, Note_off_c, 0, 65, 114
1, 20204, Note_on_c, 0, 64, 111
1, 20385, Note_off_c, 0, 64, 111
1, 20412, Note_on_c, 0, 63, 107
1, 20692, Note_off_c, 0, 63, 107
1, 20721, Note_on_c, 0, 61, 107
1, 21218, Note_off_c, 0, 61, 107
1, 21261, Note_on_c, 0, 68, 105
1, 21524, Note_off_c, 0, 68, 105
1, 21575, Note_on_c, 0, 63, 94
1, 22325, Note_off_c, 0, 63, 94
1, 23614, Note_on_c, 0, 61, 111
1, 23752, Note_off_c, 0, 61, 111
1, 23782, Note_on_c, 0, 62, 110
1, 23984, Note_off_c, 0, 62, 110
1, 24035, Note_on_c, 0, 59, 110
1, 24298, Note_off_c, 0, 59, 110
1, 24416, Note_on_c, 0, 71, 107
1, 24726, Note_off_c, 0, 71, 107
1, 24801, Note_on_c, 0, 61, 100
1, 24964, Note_off_c, 0, 61, 100
1, 24990, Note_on_c, 0, 62, 108
1, 25223, Note_off_c, 0, 62, 108
1, 25235, Note_on_c, 0, 64, 114
1, 25524, Note_off_c, 0, 64, 114
1, 25597, Note_on_c, 0, 63, 112
1, 26019, Note_off_c, 0, 63, 112
1, 26062, Note_on_c, 0, 75, 114
1, 26389, Note_off_c, 0, 75, 114
1, 26466, Note_on_c, 0, 71, 98
1, 27186, Note_off_c, 0, 71, 98
1, 27362, Note_on_c, 0, 70, 102
1, 27590, Note_off_c, 0, 70, 102
1, 27667, Note_on_c, 0, 63, 103
1, 27774, Note_off_c, 0, 63, 103
1, 27805, Note_on_c, 0, 65, 107
1, 28028, Note_off_c, 0, 65, 107
1, 28057, Note_on_c, 0, 70, 102
1, 28212, Note_off_c, 0, 70, 102
1, 28236, Note_on_c, 0, 69, 102
1, 28426, Note_off_c, 0, 69, 102
1, 28450, Note_on_c, 0, 65, 106
1, 28597, Note_off_c, 0, 65, 106
1, 28642, Note_on_c, 0, 61, 106
1, 28849, Note_off_c, 0, 61, 106
1, 28874, Note_on_c, 0, 64, 102
1, 29007, Note_off_c, 0, 64, 102
1, 29054, Note_on_c, 0, 69, 104
1, 29217, Note_off_c, 0, 69, 104
1, 29277, Note_on_c, 0, 64, 104
1, 29537, Note_off_c, 0, 64, 104
1, 29564, Note_on_c, 0, 66, 101
1, 29740, Note_off_c, 0, 66, 101
1, 29765, Note_on_c, 0, 69, 105
1, 29915, Note_off_c, 0, 69, 105
1, 29975, Note_on_c, 0, 73, 108
1, 30130, Note_off_c, 0, 73, 108
1, 30190, Note_on_c, 0, 76, 107
1, 30371, Note_off_c, 0, 76, 107
1, 30379, Note_on_c, 0, 78, 114
1, 30517, Note_off_c, 0, 78, 114
1, 30564, Note_on_c, 0, 76, 109
1, 30723, Note_off_c, 0, 76, 109
1, 30740, Note_on_c, 0, 77, 114
1, 30968, Note_off_c, 0, 77, 114
1, 31019, Note_on_c, 0, 76, 114
1, 31187, Note_off_c, 0, 76, 114
1, 31195, Note_on_c, 0, 75, 111
1, 31363, Note_off_c, 0, 75, 111
1, 31393, Note_on_c, 0, 73, 110
1, 31582, Note_off_c, 0, 73, 110
1, 31612, Note_on_c, 0, 72, 112
1, 31767, Note_off_c, 0, 72, 112
1, 31790, Note_on_c, 0, 68, 99
1, 31915, Note_off_c, 0, 68, 99
1, 31925, Note_on_c, 0, 67, 106
1, 32192, Note_off_c, 0, 67, 106
1, 32222, Note_on_c, 0, 68, 100
1, 32299, Note_off_c, 0, 68, 100
1, 32326, Note_on_c, 0, 69, 105
1, 32571, Note_off_c, 0, 69, 105
1, 32620, Note_on_c, 0, 61, 95
1, 32859, Note_off_c, 0, 61, 95
1, 32859, Note_on_c, 0, 63, 99
1, 33030, Note_off_c, 0, 63, 99
1, 33038, Note_on_c, 0, 66, 111
1, 33258, Note_off_c, 0, 66, 111
1, 33270, Note_on_c, 0, 65, 114
1, 33421, Note_off_c, 0, 65, 114
1, 33464, Note_on_c, 0, 64, 111
1, 33626, Note_off_c, 0, 64, 111
1, 33648, Note_on_c, 0, 63, 105
1, 33842, Note_off_c, 0, 63, 105
1, 33888, Note_on_c, 0, 64, 104
1, 34069, Note_off_c, 0, 64, 104
1, 34091, Note_on_c, 0, 60, 106
1, 34259, Note_off_c, 0, 60, 106
1, 34283, Note_on_c, 0, 61, 104
1, 34375, Note_off_c, 0, 61, 104
1, 34440, Note_on_c, 0, 65, 100
1, 34565, Note_off_c, 0, 65, 100
1, 34595, Note_on_c, 0, 69, 104
1, 34803, Note_off_c, 0, 69, 104
1, 34835, Note_on_c, 0, 72, 104
1, 35434, Note_off_c, 0, 72, 104
1, 35503, Note_on_c, 0, 67, 88
1, 35636, Note_off_c, 0, 67, 88
1, 35660, Note_on_c, 0, 69, 104
1, 35899, Note_off_c, 0, 69, 104
1, 35911, Note_on_c, 0, 70, 103
1, 36150, Note_off_c, 0, 70, 103
1, 36150, Note_on_c, 0, 72, 103
1, 36395, Note_off_c, 0, 72, 103
1, 36428, Note_on_c, 0, 77, 104
1, 36566, Note_off_c, 0, 77, 104
1, 36604, Note_on_c, 0, 79, 114
1, 36750, Note_off_c, 0, 79, 114
1, 36819, Note_on_c, 0, 76, 113
1, 36969, Note_off_c, 0, 76, 113
1, 36994, Note_on_c, 0, 77, 116
1, 37231, Note_off_c, 0, 77, 116
1, 37364, Note_on_c, 0, 73, 106
1, 38149, Note_off_c, 0, 73, 106
1, 40854, Note_on_c, 0, 79, 121
1, 41082, Note_off_c, 0, 79, 121
1, 41107, Note_on_c, 0, 80, 119
1, 41361, Note_off_c, 0, 80, 119
1, 41378, Note_on_c, 0, 83, 108
1, 41645, Note_off_c, 0, 83, 108
1, 41688, Note_on_c, 0, 70, 107
1, 42258, Note_off_c, 0, 70, 107
1, 42286, Note_on_c, 0, 71, 102
1, 42467, Note_off_c, 0, 71, 102
1, 42540, Note_on_c, 0, 79, 110
1, 43351, Note_off_c, 0, 79, 110
1, 44584, Note_on_c, 0, 77, 119
1, 44747, Note_off_c, 0, 77, 119
1, 44915, Note_on_c, 0, 84, 108
1, 45143, Note_off_c, 0, 84, 108
1, 45174, Note_on_c, 0, 85, 104
1, 45425, Note_off_c, 0, 85, 104
1, 45443, Note_on_c, 0, 81, 113
1, 45745, Note_off_c, 0, 81, 113
1, 45792, Note_on_c, 0, 84, 103
1, 46025, Note_off_c, 0, 84, 103
1, 46223, Note_on_c, 0, 70, 106
1, 46408, Note_off_c, 0, 70, 106
1, 46456, Note_on_c, 0, 71, 101
1, 46637, Note_off_c, 0, 71, 101
1, 46670, Note_on_c, 0, 69, 105
1, 46811, Note_off_c, 0, 69, 105
1, 46829, Note_on_c, 0, 69, 108
1, 46948, Note_off_c, 0, 69, 108
1, 46979, Note_on_c, 0, 77, 114
1, 47328, Note_off_c, 0, 77, 114
1, 47491, Note_on_c, 0, 75, 111
1, 47805, Note_off_c, 0, 75, 111
1, 48086, Note_on_c, 0, 80, 109
1, 48352, Note_off_c, 0, 80, 109
1, 48352, Note_on_c, 0, 77, 115
1, 48628, Note_off_c, 0, 77, 115
1, 48643, Note_on_c, 0, 73, 105
1, 48854, Note_off_c, 0, 73, 105
1, 48866, Note_on_c, 0, 70, 101
1, 49154, Note_off_c, 0, 70, 101
1, 49208, Note_on_c, 0, 75, 109
1, 49415, Note_off_c, 0, 75, 109
1, 49442, Note_on_c, 0, 70, 100
1, 49656, Note_off_c, 0, 70, 100
1, 49677, Note_on_c, 0, 65, 96
1, 49900, Note_off_c, 0, 65, 96
1, 49930, Note_on_c, 0, 63, 104
1, 50141, Note_off_c, 0, 63, 104
1, 50157, Note_on_c, 0, 67, 102
1, 50264, Note_off_c, 0, 67, 102
1, 50272, Note_on_c, 0, 68, 106
1, 50630, Note_off_c, 0, 68, 106
1, 50690, Note_on_c, 0, 73, 105
1, 50845, Note_off_c, 0, 73, 105
1, 50901, Note_on_c, 0, 75, 109
1, 51552, Note_off_c, 0, 75, 109
1, 51588, Note_on_c, 0, 75, 104
1, 51729, Note_off_c, 0, 75, 104
1, 51735, Note_on_c, 0, 73, 105
1, 51897, Note_off_c, 0, 73, 105
1, 51921, Note_on_c, 0, 70, 96
1, 52126, Note_off_c, 0, 70, 96
1, 52179, Note_on_c, 0, 65, 107
1, 52390, Note_off_c, 0, 65, 107
1, 52441, Note_on_c, 0, 62, 101
1, 52561, Note_off_c, 0, 62, 101
1, 52569, Note_on_c, 0, 63, 107
1, 52784, Note_off_c, 0, 63, 107
1, 52831, Note_on_c, 0, 61, 103
1, 52994, Note_off_c, 0, 61, 103
1, 53063, Note_on_c, 0, 65, 105
1, 53265, Note_off_c, 0, 65, 105
1, 53299, Note_on_c, 0, 67, 109
1, 53493, Note_off_c, 0, 67, 109
1, 53523, Note_on_c, 0, 68, 106
1, 53699, Note_off_c, 0, 68, 106
1, 53716, Note_on_c, 0, 67, 109
1, 53789, Note_off_c, 0, 67, 109
1, 53849, Note_on_c, 0, 65, 104
1, 54060, Note_off_c, 0, 65, 104
1, 54124, Note_on_c, 0, 62, 104
1, 54287, Note_off_c, 0, 62, 104
1, 54312, Note_on_c, 0, 63, 107
1, 54523, Note_off_c, 0, 63, 107
1, 54557, Note_on_c, 0, 65, 103
1, 54785, Note_off_c, 0, 65, 103
1, 54815, Note_on_c, 0, 66, 107
1, 54944, Note_off_c, 0, 66, 107
1, 54983, Note_on_c, 0, 70, 99
1, 55188, Note_off_c, 0, 70, 99
1, 55188, Note_on_c, 0, 72, 106
1, 55369, Note_off_c, 0, 72, 106
1, 55403, Note_on_c, 0, 74, 108
1, 55545, Note_off_c, 0, 74, 108
1, 55570, Note_on_c, 0, 75, 108
1, 55806, Note_off_c, 0, 75, 108
1, 55836, Note_on_c, 0, 76, 102
1, 56118, Note_off_c, 0, 76, 102
1, 56147, Note_on_c, 0, 74, 106
1, 56319, Note_off_c, 0, 74, 106
1, 56343, Note_on_c, 0, 75, 112
1, 56637, Note_on_c, 0, 73, 102
1, 56637, Note_off_c, 0, 75, 112
1, 56753, Note_off_c, 0, 73, 102
1, 56762, Note_on_c, 0, 74, 109
1, 56995, Note_off_c, 0, 74, 109
1, 57013, Note_on_c, 0, 70, 99
1, 57142, Note_off_c, 0, 70, 99
1, 57181, Note_on_c, 0, 65, 102
1, 57420, Note_off_c, 0, 65, 102
1, 57466, Note_on_c, 0, 62, 103
1, 57643, Note_off_c, 0, 62, 103
1, 57643, Note_on_c, 0, 64, 105
1, 57850, Note_off_c, 0, 64, 105
1, 57893, Note_on_c, 0, 65, 101
1, 58518, Note_off_c, 0, 65, 101
1, 64726, Note_on_c, 0, 61, 104
1, 64898, Note_off_c, 0, 61, 104
1, 64951, Note_on_c, 0, 63, 99
1, 65138, Note_off_c, 0, 63, 99
1, 65142, Note_on_c, 0, 66, 105
1, 65318, Note_off_c, 0, 66, 105
1, 65339, Note_on_c, 0, 65, 106
1, 65481, Note_off_c, 0, 65, 106
1, 65497, Note_on_c, 0, 64, 100
1, 65635, Note_off_c, 0, 64, 100
1, 65683, Note_on_c, 0, 63, 100
1, 65825, Note_off_c, 0, 63, 100
1, 65858, Note_on_c, 0, 65, 88
1, 65943, Note_off_c, 0, 65, 88
1, 65944, Note_on_c, 0, 68, 101
1, 66069, Note_off_c, 0, 68, 101
1, 66125, Note_on_c, 0, 64, 106
1, 66345, Note_off_c, 0, 64, 106
1, 66377, Note_on_c, 0, 65, 107
1, 66540, Note_off_c, 0, 65, 107
1, 66593, Note_on_c, 0, 69, 103
1, 66740, Note_off_c, 0, 69, 103
1, 66764, Note_on_c, 0, 73, 98
1, 66958, Note_off_c, 0, 73, 98
1, 66966, Note_on_c, 0, 76, 115
1, 67125, Note_off_c, 0, 76, 115
1, 67206, Note_on_c, 0, 73, 104
1, 67344, Note_off_c, 0, 73, 104
1, 67391, Note_on_c, 0, 76, 112
1, 67563, Note_off_c, 0, 76, 112
1, 67601, Note_on_c, 0, 79, 111
1, 67769, Note_off_c, 0, 79, 111
1, 67820, Note_on_c, 0, 76, 115
1, 68027, Note_off_c, 0, 76, 115
1, 68039, Note_on_c, 0, 77, 108
1, 68159, Note_off_c, 0, 77, 108
1, 68189, Note_on_c, 0, 78, 109
1, 68409, Note_off_c, 0, 78, 109
1, 68480, Note_on_c, 0, 80, 105
1, 69062, Note_off_c, 0, 80, 105
1, 69098, Note_on_c, 0, 79, 110
1, 69240, Note_off_c, 0, 79, 110
1, 69278, Note_on_c, 0, 78, 105
1, 69437, Note_off_c, 0, 78, 105
1, 69485, Note_on_c, 0, 77, 110
1, 69653, Note_off_c, 0, 77, 110
1, 69690, Note_on_c, 0, 76, 112
1, 69840, Note_off_c, 0, 76, 112
1, 69840, Note_on_c, 0, 75, 107
1, 70021, Note_off_c, 0, 75, 107
1, 70064, Note_on_c, 0, 78, 83
1, 70163, Note_off_c, 0, 78, 83
1, 70193, Note_on_c, 0, 79, 109
1, 70322, Note_off_c, 0, 79, 109
1, 70369, Note_on_c, 0, 74, 101
1, 70597, Note_off_c, 0, 74, 101
1, 70635, Note_on_c, 0, 76, 105
1, 70794, Note_off_c, 0, 76, 105
1, 70811, Note_on_c, 0, 77, 113
1, 70996, Note_off_c, 0, 77, 113
1, 71060, Note_on_c, 0, 73, 98
1, 71176, Note_off_c, 0, 73, 98
1, 71223, Note_on_c, 0, 75, 107
1, 71434, Note_off_c, 0, 75, 107
1, 71533, Note_on_c, 0, 71, 98
1, 71688, Note_off_c, 0, 71, 98
1, 71769, Note_on_c, 0, 66, 92
1, 71902, Note_off_c, 0, 66, 92
1, 71936, Note_on_c, 0, 63, 92
1, 72026, Note_off_c, 0, 63, 92
1, 72112, Note_on_c, 0, 71, 98
1, 72314, Note_off_c, 0, 71, 98
1, 72335, Note_on_c, 0, 63, 92
1, 72434, Note_off_c, 0, 63, 92
1, 72520, Note_on_c, 0, 66, 99
1, 72649, Note_off_c, 0, 66, 99
1, 72696, Note_on_c, 0, 71, 96
1, 72847, Note_off_c, 0, 71, 96
1, 72894, Note_on_c, 0, 68, 102
1, 73062, Note_off_c, 0, 68, 102
1, 73118, Note_on_c, 0, 64, 96
1, 73256, Note_off_c, 0, 64, 96
1, 73316, Note_on_c, 0, 67, 106
1, 73467, Note_off_c, 0, 67, 106
1, 73541, Note_on_c, 0, 66, 106
1, 73682, Note_off_c, 0, 66, 106
1, 73749, Note_on_c, 0, 65, 107
1, 73893, Note_off_c, 0, 65, 107
1, 73935, Note_on_c, 0, 64, 106
1, 74073, Note_off_c, 0, 64, 106
1, 74079, Note_on_c, 0, 63, 101
1, 74247, Note_off_c, 0, 63, 101
1, 74331, Note_on_c, 0, 67, 100
1, 74473, Note_off_c, 0, 67, 100
1, 74563, Note_on_c, 0, 64, 105
1, 74735, Note_off_c, 0, 64, 105
1, 74765, Note_on_c, 0, 65, 104
1, 74941, Note_off_c, 0, 65, 104
1, 74945, Note_on_c, 0, 67, 103
1, 75014, Note_off_c, 0, 67, 103
1, 75039, Note_on_c, 0, 68, 100
1, 75198, Note_on_c, 0, 71, 96
1, 75198, Note_off_c, 0, 68, 100
1, 75379, Note_off_c, 0, 71, 96
1, 75383, Note_on_c, 0, 73, 101
1, 75568, Note_off_c, 0, 73, 101
1, 75602, Note_on_c, 0, 75, 100
1, 75727, Note_off_c, 0, 75, 100
1, 75752, Note_on_c, 0, 78, 108
1, 75954, Note_off_c, 0, 78, 108
1, 76023, Note_on_c, 0, 73, 97
1, 76135, Note_off_c, 0, 73, 97
1, 76212, Note_on_c, 0, 76, 113
1, 76401, Note_off_c, 0, 76, 113
1, 76478, Note_on_c, 0, 74, 102
1, 76590, Note_off_c, 0, 74, 102
1, 76637, Note_on_c, 0, 70, 102
1, 76805, Note_off_c, 0, 70, 102
1, 76852, Note_on_c, 0, 67, 92
1, 77007, Note_off_c, 0, 67, 92
1, 77045, Note_on_c, 0, 76, 109
1, 77277, Note_off_c, 0, 76, 109
1, 77315, Note_on_c, 0, 74, 90
1, 77388, Note_off_c, 0, 74, 90
1, 77444, Note_on_c, 0, 73, 96
1, 77517, Note_off_c, 0, 73, 96
1, 77598, Note_on_c, 0, 69, 103
1, 77861, Note_off_c, 0, 69, 103
1, 77960, Note_on_c, 0, 73, 107
1, 78387, Note_off_c, 0, 73, 107
1, 78412, Note_on_c, 0, 75, 106
1, 78606, Note_off_c, 0, 75, 106
1, 78692, Note_on_c, 0, 77, 112
1, 79114, Note_off_c, 0, 77, 112
1, 79200, Note_on_c, 0, 75, 104
1, 79415, Note_off_c, 0, 75, 104
1, 79544, Note_on_c, 0, 76, 110
1, 79902, Note_off_c, 0, 76, 110
1, 79953, Note_on_c, 0, 80, 100
1, 80026, Note_off_c, 0, 80, 100
1, 80047, Note_on_c, 0, 81, 91
1, 80167, Note_off_c, 0, 81, 91
1, 80300, Note_on_c, 0, 78, 105
1, 80455, Note_off_c, 0, 78, 105
1, 80696, Note_on_c, 0, 78, 103
1, 80859, Note_off_c, 0, 78, 103
1, 80939, Note_on_c, 0, 73, 95
1, 81306, Note_off_c, 0, 73, 95
1, 81306, Note_on_c, 0, 77, 109
1, 81551, Note_off_c, 0, 77, 109
1, 81684, Note_on_c, 0, 72, 105
1, 81860, Note_off_c, 0, 72, 105
1, 82136, Note_on_c, 0, 76, 107
1, 82438, Note_off_c, 0, 76, 107
1, 82541, Note_on_c, 0, 69, 93
1, 82730, Note_off_c, 0, 69, 93
1, 83066, Note_on_c, 0, 75, 108
1, 83307, Note_off_c, 0, 75, 108
1, 83846, Note_on_c, 0, 74, 98
1, 84139, Note_off_c, 0, 74, 98
1, 84682, Note_on_c, 0, 73, 96
1, 85117, Note_off_c, 0, 73, 96
1, 86670, Note_on_c, 0, 73, 114
1, 86868, Note_off_c, 0, 73, 114
1, 86924, Note_on_c, 0, 75, 111
1, 87010, Note_off_c, 0, 75, 111
1, 87053, Note_on_c, 0, 77, 117
1, 87199, Note_off_c, 0, 77, 117
1, 87255, Note_on_c, 0, 73, 109
1, 87483, Note_off_c, 0, 73, 109
1, 89070, Note_on_c, 0, 61, 115
1, 89244, Note_off_c, 0, 61, 115
1, 89268, Note_on_c, 0, 63, 114
1, 89415, Note_off_c, 0, 63, 114
1, 89461, Note_on_c, 0, 66, 116
1, 89543, Note_off_c, 0, 66, 116
1, 89579, Note_on_c, 0, 65, 120
1, 89735, Note_off_c, 0, 65, 120
1, 89765, Note_on_c, 0, 64, 114
1, 89906, Note_off_c, 0, 64, 114
1, 89942, Note_on_c, 0, 63, 115
1, 90116, Note_off_c, 0, 63, 115
1, 90140, Note_on_c, 0, 67, 110
1, 90317, Note_off_c, 0, 67, 110
1, 90369, Note_on_c, 0, 61, 112
1, 90540, Note_off_c, 0, 61, 112
1, 90573, Note_on_c, 0, 65, 116
1, 90747, Note_off_c, 0, 65, 116
1, 90817, Note_on_c, 0, 69, 106
1, 90967, Note_off_c, 0, 69, 106
1, 91006, Note_on_c, 0, 72, 116
1, 91288, Note_off_c, 0, 72, 116
1, 91303, Note_on_c, 0, 73, 115
1, 91692, Note_off_c, 0, 73, 115
1, 91722, Note_on_c, 0, 77, 116
1, 92077, Note_off_c, 0, 77, 116
1, 92119, Note_on_c, 0, 81, 113
1, 92471, Note_off_c, 0, 81, 113
1, 92587, Note_on_c, 0, 83, 104
1, 92936, Note_off_c, 0, 83, 104
1, 92954, Note_on_c, 0, 84, 109
1, 93380, Note_off_c, 0, 84, 109
1, 93398, Note_on_c, 0, 83, 99
1, 93713, Note_off_c, 0, 83, 99
1, 93805, Note_on_c, 0, 81, 110
1, 94007, Note_off_c, 0, 81, 110
1, 94034, Note_on_c, 0, 80, 102
1, 94199, Note_off_c, 0, 80, 102
1, 94291, Note_on_c, 0, 77, 113
1, 94468, Note_off_c, 0, 77, 113
1, 94532, Note_on_c, 0, 73, 104
1, 94670, Note_off_c, 0, 73, 104
1, 94777, Note_on_c, 0, 78, 109
1, 94887, Note_off_c, 0, 78, 109
1, 94887, Note_on_c, 0, 79, 109
1, 95025, Note_off_c, 0, 79, 109
1, 95034, Note_on_c, 0, 81, 110
1, 95236, Note_off_c, 0, 81, 110
1, 95315, Note_on_c, 0, 77, 115
1, 95532, Note_off_c, 0, 77, 115
1, 95608, Note_on_c, 0, 73, 104
1, 95764, Note_off_c, 0, 73, 104
1, 95785, Note_on_c, 0, 75, 107
1, 96113, Note_off_c, 0, 75, 107
1, 96180, Note_on_c, 0, 74, 107
1, 96394, Note_off_c, 0, 74, 107
1, 96449, Note_on_c, 0, 71, 103
1, 96676, Note_off_c, 0, 71, 103
1, 96709, Note_on_c, 0, 65, 107
1, 96914, Note_off_c, 0, 65, 107
1, 96966, Note_on_c, 0, 62, 106
1, 97153, Note_off_c, 0, 62, 106
1, 97235, Note_on_c, 0, 70, 102
1, 97446, Note_off_c, 0, 70, 102
1, 97461, Note_on_c, 0, 72, 115
1, 97700, Note_off_c, 0, 72, 115
1, 97724, Note_on_c, 0, 73, 112
1, 97941, Note_off_c, 0, 73, 112
1, 98036, Note_on_c, 0, 75, 116
1, 98321, Note_off_c, 0, 75, 116
1, 98351, Note_on_c, 0, 76, 116
1, 98648, Note_off_c, 0, 76, 116
1, 98684, Note_on_c, 0, 78, 111
1, 98935, Note_off_c, 0, 78, 111
1, 98990, Note_on_c, 0, 76, 111
1, 99269, Note_off_c, 0, 76, 111
1, 99330, Note_on_c, 0, 70, 103
1, 99553, Note_off_c, 0, 70, 103
1, 99620, Note_on_c, 0, 65, 111
1, 99764, Note_off_c, 0, 65, 111
1, 99828, Note_on_c, 0, 64, 112
1, 100055, Note_off_c, 0, 64, 112
1, 100073, Note_on_c, 0, 70, 104
1, 100254, Note_off_c, 0, 70, 104
1, 100303, Note_on_c, 0, 65, 112
1, 100493, Note_off_c, 0, 65, 112
1, 100535, Note_on_c, 0, 61, 109
1, 100771, Note_off_c, 0, 61, 109
1, 100798, Note_on_c, 0, 63, 112
1, 101543, Note_off_c, 0, 63, 112
1, 101627, Note_on_c, 0, 56, 94
1, 103577, Note_off_c, 0, 56, 94
1, 104103, Note_on_c, 0, 60, 102
1, 104256, Note_off_c, 0, 60, 102
1, 104310, Note_on_c, 0, 65, 110
1, 104391, Note_off_c, 0, 65, 110
1, 104401, Note_on_c, 0, 68, 110
1, 104448, Note_off_c, 0, 68, 110
1, 104457, Note_on_c, 0, 70, 108
1, 104515, Note_off_c, 0, 70, 108
1, 104527, Note_on_c, 0, 73, 115
1, 104597, Note_off_c, 0, 73, 115
1, 104606, Note_on_c, 0, 76, 121
1, 104679, Note_off_c, 0, 76, 121
1, 104760, Note_on_c, 0, 79, 111
1, 104959, Note_off_c, 0, 79, 111
1, 104980, Note_on_c, 0, 77, 111
1, 105087, Note_off_c, 0, 77, 111
1, 105140, Note_on_c, 0, 73, 104
1, 105253, Note_off_c, 0, 73, 104
1, 105292, Note_on_c, 0, 67, 105
1, 105342, Note_off_c, 0, 67, 105
1, 105355, Note_on_c, 0, 66, 104
1, 105440, Note_off_c, 0, 66, 104
1, 105452, Note_on_c, 0, 65, 108
1, 105494, Note_off_c, 0, 65, 108
1, 105521, Note_on_c, 0, 64, 104
1, 105602, Note_off_c, 0, 64, 104
1, 105643, Note_on_c, 0, 62, 106
1, 105748, Note_off_c, 0, 62, 106
1, 105767, Note_on_c, 0, 59, 99
1, 106018, Note_off_c, 0, 59, 99
1, 106044, Note_on_c, 0, 60, 113
1, 106115, Note_off_c, 0, 60, 113
1, 106140, Note_on_c, 0, 64, 119
1, 106252, Note_off_c, 0, 64, 119
1, 106314, Note_on_c, 0, 70, 109
1, 106411, Note_off_c, 0, 70, 109
1, 106449, Note_on_c, 0, 73, 112
1, 106571, Note_off_c, 0, 73, 112
1, 106588, Note_on_c, 0, 75, 118
1, 106700, Note_off_c, 0, 75, 118
1, 106712, Note_on_c, 0, 76, 108
1, 106765, Note_off_c, 0, 76, 108
1, 106788, Note_on_c, 0, 79, 114
1, 106867, Note_off_c, 0, 79, 114
1, 106871, Note_on_c, 0, 82, 103
1, 106970, Note_off_c, 0, 82, 103
1, 106980, Note_on_c, 0, 79, 104
1, 107087, Note_on_c, 0, 77, 107
1, 107087, Note_off_c, 0, 79, 104
1, 107149, Note_off_c, 0, 77, 107
1, 107149, Note_on_c, 0, 74, 103
1, 107215, Note_off_c, 0, 74, 103
1, 107240, Note_on_c, 0, 72, 104
1, 107350, Note_off_c, 0, 72, 104
1, 107375, Note_on_c, 0, 69, 100
1, 107489, Note_off_c, 0, 69, 100
1, 107514, Note_on_c, 0, 64, 99
1, 107593, Note_off_c, 0, 64, 99
1, 107642, Note_on_c, 0, 60, 101
1, 107797, Note_off_c, 0, 60, 101
1, 107848, Note_on_c, 0, 63, 106
1, 108022, Note_off_c, 0, 63, 106
1, 108032, Note_on_c, 0, 65, 114
1, 108150, Note_off_c, 0, 65, 114
1, 108152, Note_on_c, 0, 69, 109
1, 108195, Note_off_c, 0, 69, 109
1, 108223, Note_on_c, 0, 71, 107
1, 108311, Note_off_c, 0, 71, 107
1, 108313, Note_on_c, 0, 74, 110
1, 108435, Note_off_c, 0, 74, 110
1, 108445, Note_on_c, 0, 75, 114
1, 108550, Note_off_c, 0, 75, 114
1, 108560, Note_on_c, 0, 78, 107
1, 108654, Note_off_c, 0, 78, 107
1, 108666, Note_on_c, 0, 81, 101
1, 108747, Note_off_c, 0, 81, 101
1, 108780, Note_on_c, 0, 85, 75
1, 109102, Note_off_c, 0, 85, 75
1, 109132, Note_on_c, 0, 85, 81
1, 109512, Note_off_c, 0, 85, 81
1, 109545, Note_on_c, 0, 79, 104
1, 109693, Note_off_c, 0, 79, 104
1, 109725, Note_on_c, 0, 78, 83
1, 109858, Note_off_c, 0, 78, 83
1, 109890, Note_on_c, 0, 74, 107
1, 109956, Note_off_c, 0, 74, 107
1, 109971, Note_on_c, 0, 73, 107
1, 110057, Note_off_c, 0, 73, 107
1, 110080, Note_on_c, 0, 71, 100
1, 110155, Note_off_c, 0, 71, 100
1, 110226, Note_on_c, 0, 66, 103
1, 110279, Note_off_c, 0, 66, 103
1, 110297, Note_on_c, 0, 64, 101
1, 110373, Note_off_c, 0, 64, 101
1, 110398, Note_on_c, 0, 60, 104
1, 110546, Note_off_c, 0, 60, 104
1, 110571, Note_on_c, 0, 59, 101
1, 110629, Note_off_c, 0, 59, 101
1, 110637, Note_on_c, 0, 58, 98
1, 110962, Note_off_c, 0, 58, 98
1, 117502, Note_on_c, 0, 72, 112
1, 117695, Note_off_c, 0, 72, 112
1, 117992, Note_on_c, 0, 84, 114
1, 118498, Note_off_c, 0, 84, 114
1, 118565, Note_on_c, 0, 84, 112
1, 118957, Note_off_c, 0, 84, 112
1, 119098, Note_on_c, 0, 84, 109
1, 119447, Note_off_c, 0, 84, 109
1, 119517, Note_on_c, 0, 84, 101
1, 120277, Note_off_c, 0, 84, 101
1, 121313, Note_on_c, 0, 82, 103
1, 121506, Note_off_c, 0, 82, 103
1, 121512, Note_on_c, 0, 84, 99
1, 123361, Note_off_c, 0, 84, 99
1, 124615, Note_on_c, 0, 80, 100
1, 124783, Note_off_c, 0, 80, 100
1, 124838, Note_on_c, 0, 82, 98
1, 125071, Note_off_c, 0, 82, 98
1, 125101, Note_on_c, 0, 84, 106
1, 125631, Note_off_c, 0, 84, 106
1, 125756, Note_on_c, 0, 84, 111
1, 126053, Note_off_c, 0, 84, 111
1, 126123, Note_on_c, 0, 84, 9
1, 126448, Note_off_c, 0, 84, 9
1, 126503, Note_on_c, 0, 83, 9
1, 126825, Note_off_c, 0, 83, 9
1, 126886, Note_on_c, 0, 82, 114
1, 127131, Note_off_c, 0, 82, 114
1, 127143, Note_on_c, 0, 81, 113
1, 127327, Note_off_c, 0, 81, 113
1, 127379, Note_on_c, 0, 78, 113
1, 127541, Note_off_c, 0, 78, 113
1, 127593, Note_on_c, 0, 73, 109
1, 127777, Note_off_c, 0, 73, 109
1, 127829, Note_on_c, 0, 76, 106
1, 127902, Note_off_c, 0, 76, 106
1, 127948, Note_on_c, 0, 81, 111
1, 128153, Note_off_c, 0, 81, 111
1, 128211, Note_on_c, 0, 80, 109
1, 129257, Note_off_c, 0, 80, 109
1, 129281, Note_on_c, 0, 79, 115
1, 129434, Note_off_c, 0, 79, 115
1, 129461, Note_on_c, 0, 78, 115
1, 129620, Note_off_c, 0, 78, 115
1, 129641, Note_on_c, 0, 77, 117
1, 129828, Note_off_c, 0, 77, 117
1, 129886, Note_on_c, 0, 76, 121
1, 130073, Note_off_c, 0, 76, 121
1, 130091, Note_on_c, 0, 75, 115
1, 130265, Note_off_c, 0, 75, 115
1, 130320, Note_on_c, 0, 78, 91
1, 130369, Note_off_c, 0, 78, 91
1, 130402, Note_on_c, 0, 83, 102
1, 130573, Note_off_c, 0, 83, 102
1, 130631, Note_on_c, 0, 76, 117
1, 130839, Note_off_c, 0, 76, 117
1, 130854, Note_on_c, 0, 74, 109
1, 131010, Note_off_c, 0, 74, 109
1, 131028, Note_on_c, 0, 75, 104
1, 131761, Note_off_c, 0, 75, 104
1, 131883, Note_on_c, 0, 71, 104
1, 132079, Note_off_c, 0, 71, 104
1, 132112, Note_on_c, 0, 65, 112
1, 132332, Note_off_c, 0, 65, 112
1, 132387, Note_on_c, 0, 62, 100
1, 132810, Note_off_c, 0, 62, 100
1, 132859, Note_on_c, 0, 66, 101
1, 132951, Note_off_c, 0, 66, 101
1, 132997, Note_on_c, 0, 70, 101
1, 133193, Note_off_c, 0, 70, 101
1, 133226, Note_on_c, 0, 61, 102
1, 133351, Note_off_c, 0, 61, 102
1, 133403, Note_on_c, 0, 65, 109
1, 133537, Note_off_c, 0, 65, 109
1, 133604, Note_on_c, 0, 70, 104
1, 133751, Note_off_c, 0, 70, 104
1, 133787, Note_on_c, 0, 68, 108
1, 133964, Note_off_c, 0, 68, 108
1, 134010, Note_on_c, 0, 71, 105
1, 134160, Note_off_c, 0, 71, 105
1, 134199, Note_on_c, 0, 73, 106
1, 134355, Note_off_c, 0, 73, 106
1, 134401, Note_on_c, 0, 74, 110
1, 134517, Note_off_c, 0, 74, 110
1, 134581, Note_on_c, 0, 78, 118
1, 134829, Note_off_c, 0, 78, 118
1, 134859, Note_on_c, 0, 77, 106
1, 135380, Note_off_c, 0, 77, 106
1, 135392, Note_on_c, 0, 75, 112
1, 135962, Note_off_c, 0, 75, 112
1, 136106, Note_on_c, 0, 74, 101
1, 136253, Note_off_c, 0, 74, 101
1, 136305, Note_on_c, 0, 75, 112
1, 136645, Note_off_c, 0, 75, 112
1, 136697, Note_on_c, 0, 77, 112
1, 136908, Note_off_c, 0, 77, 112
1, 136990, Note_on_c, 0, 73, 106
1, 137597, Note_off_c, 0, 73, 106
1, 137747, Note_on_c, 0, 70, 98
1, 137909, Note_off_c, 0, 70, 98
1, 137936, Note_on_c, 0, 69, 96
1, 138224, Note_off_c, 0, 69, 96
1, 138892, Note_on_c, 0, 63, 111
1, 139063, Note_off_c, 0, 63, 111
1, 139084, Note_on_c, 0, 64, 110
1, 139179, Note_off_c, 0, 64, 110
1, 139215, Note_on_c, 0, 67, 110
1, 139310, Note_off_c, 0, 67, 110
1, 139325, Note_on_c, 0, 69, 108
1, 139426, Note_off_c, 0, 69, 108
1, 139462, Note_on_c, 0, 71, 111
1, 139584, Note_off_c, 0, 71, 111
1, 139590, Note_on_c, 0, 72, 110
1, 139648, Note_off_c, 0, 72, 110
1, 139675, Note_on_c, 0, 75, 119
1, 139776, Note_off_c, 0, 75, 119
1, 139791, Note_on_c, 0, 77, 116
1, 139870, Note_off_c, 0, 77, 116
1, 139888, Note_on_c, 0, 80, 112
1, 140013, Note_off_c, 0, 80, 112
1, 140034, Note_on_c, 0, 78, 111
1, 140132, Note_off_c, 0, 78, 111
1, 140144, Note_on_c, 0, 75, 112
1, 140202, Note_off_c, 0, 75, 112
1, 140226, Note_on_c, 0, 73, 110
1, 140324, Note_off_c, 0, 73, 110
1, 140357, Note_on_c, 0, 71, 107
1, 140449, Note_off_c, 0, 71, 107
1, 140498, Note_on_c, 0, 66, 117
1, 140599, Note_off_c, 0, 66, 117
1, 140638, Note_on_c, 0, 61, 115
1, 140726, Note_off_c, 0, 61, 115
1, 140750, Note_on_c, 0, 60, 114
1, 140863, Note_off_c, 0, 60, 114
1, 140878, Note_on_c, 0, 59, 114
1, 141006, Note_off_c, 0, 59, 114
1, 141082, Note_on_c, 0, 58, 111
1, 141241, Note_off_c, 0, 58, 111
1, 141290, Note_on_c, 0, 57, 110
1, 141590, Note_off_c, 0, 57, 110
1, 141678, Note_on_c, 0, 63, 112
1, 141957, Note_off_c, 0, 63, 112
1, 142027, Note_on_c, 0, 72, 106
1, 142146, Note_off_c, 0, 72, 106
1, 142155, Note_on_c, 0, 73, 111
1, 142293, Note_off_c, 0, 73, 111
1, 142400, Note_on_c, 0, 66, 97
1, 142553, Note_off_c, 0, 66, 97
1, 142608, Note_on_c, 0, 69, 99
1, 142789, Note_off_c, 0, 69, 99
1, 142810, Note_on_c, 0, 71, 101
1, 142889, Note_off_c, 0, 71, 101
1, 142907, Note_on_c, 0, 72, 112
1, 143081, Note_off_c, 0, 72, 112
1, 143099, Note_on_c, 0, 74, 106
1, 143166, Note_off_c, 0, 74, 106
1, 143181, Note_on_c, 0, 77, 114
1, 143279, Note_off_c, 0, 77, 114
1, 143349, Note_on_c, 0, 84, 91
1, 143413, Note_off_c, 0, 84, 91
1, 143440, Note_on_c, 0, 86, 97
1, 143602, Note_off_c, 0, 86, 97
1, 143608, Note_on_c, 0, 85, 97
1, 143700, Note_off_c, 0, 85, 97
1, 143739, Note_on_c, 0, 83, 99
1, 143824, Note_off_c, 0, 83, 99
1, 143851, Note_on_c, 0, 81, 93
1, 143906, Note_off_c, 0, 81, 93
1, 143939, Note_on_c, 0, 77, 114
1, 144058, Note_off_c, 0, 77, 114
1, 144100, Note_on_c, 0, 73, 113
1, 144225, Note_off_c, 0, 73, 113
1, 144261, Note_on_c, 0, 70, 103
1, 144377, Note_off_c, 0, 70, 103
1, 144435, Note_on_c, 0, 60, 111
1, 144634, Note_off_c, 0, 60, 111
1, 144667, Note_on_c, 0, 61, 111
1, 145093, Note_off_c, 0, 61, 111
1, 146703, Note_on_c, 0, 77, 122
1, 146923, Note_off_c, 0, 77, 122
1, 147131, Note_on_c, 0, 82, 112
1, 147333, Note_off_c, 0, 82, 112
1, 147428, Note_on_c, 0, 77, 106
1, 147566, Note_off_c, 0, 77, 106
1, 147590, Note_on_c, 0, 81, 104
1, 147715, Note_off_c, 0, 81, 104
1, 147739, Note_on_c, 0, 82, 108
1, 147901, Note_off_c, 0, 82, 108
1, 147928, Note_on_c, 0, 85, 91
1, 148940, Note_off_c, 0, 85, 91
1, 149271, Note_on_c, 0, 80, 111
1, 149461, Note_off_c, 0, 80, 111
1, 149592, Note_on_c, 0, 80, 93
1, 149757, Note_off_c, 0, 80, 93
1, 149803, Note_on_c, 0, 83, 107
1, 149980, Note_off_c, 0, 83, 107
1, 150026, Note_on_c, 0, 82, 112
1, 150292, Note_off_c, 0, 82, 112
1, 150420, Note_on_c, 0, 70, 112
1, 151021, Note_off_c, 0, 70, 112
1, 151119, Note_on_c, 0, 59, 114
1, 151616, Note_off_c, 0, 59, 114
1, 151671, Note_on_c, 0, 60, 115
1, 152002, Note_off_c, 0, 60, 115
1, 152029, Note_on_c, 0, 61, 119
1, 152360, Note_off_c, 0, 61, 119
1, 152396, Note_on_c, 0, 65, 121
1, 152739, Note_off_c, 0, 65, 121
1, 152794, Note_on_c, 0, 66, 116
1, 153128, Note_off_c, 0, 66, 116
1, 153198, Note_on_c, 0, 69, 114
1, 153569, Note_off_c, 0, 69, 114
1, 153630, Note_on_c, 0, 70, 110
1, 153903, Note_off_c, 0, 70, 110
1, 153939, Note_on_c, 0, 72, 113
1, 154101, Note_off_c, 0, 72, 113
1, 154134, Note_on_c, 0, 73, 116
1, 154327, Note_off_c, 0, 73, 116
1, 154348, Note_on_c, 0, 75, 106
1, 154513, Note_off_c, 0, 75, 106
1, 154546, Note_on_c, 0, 78, 117
1, 154730, Note_off_c, 0, 78, 117
1, 154754, Note_on_c, 0, 73, 106
1, 154898, Note_off_c, 0, 73, 106
1, 154937, Note_on_c, 0, 75, 108
1, 155087, Note_off_c, 0, 75, 108
1, 155133, Note_on_c, 0, 70, 107
1, 155323, Note_off_c, 0, 70, 107
1, 155372, Note_on_c, 0, 66, 111
1, 155516, Note_off_c, 0, 66, 111
1, 155552, Note_on_c, 0, 63, 110
1, 155736, Note_off_c, 0, 63, 110
1, 155794, Note_on_c, 0, 60, 106
1, 155870, Note_off_c, 0, 60, 106
1, 155894, Note_on_c, 0, 61, 108
1, 155979, Note_off_c, 0, 61, 108
1, 156025, Note_on_c, 0, 62, 108
1, 156175, Note_off_c, 0, 62, 108
1, 156193, Note_on_c, 0, 67, 104
1, 156380, Note_off_c, 0, 67, 104
1, 156416, Note_on_c, 0, 68, 104
1, 157179, Note_off_c, 0, 68, 104
1, 157209, Note_on_c, 0, 70, 103
1, 157328, Note_off_c, 0, 70, 103
1, 157386, Note_on_c, 0, 73, 108
1, 157496, Note_off_c, 0, 73, 108
1, 157511, Note_on_c, 0, 75, 110
1, 157569, Note_off_c, 0, 75, 110
1, 157611, Note_on_c, 0, 77, 114
1, 157761, Note_off_c, 0, 77, 114
1, 157791, Note_on_c, 0, 76, 113
1, 157889, Note_off_c, 0, 76, 113
1, 157971, Note_on_c, 0, 74, 107
1, 158121, Note_off_c, 0, 74, 107
1, 158167, Note_on_c, 0, 73, 110
1, 158252, Note_off_c, 0, 73, 110
1, 158285, Note_on_c, 0, 74, 104
1, 158469, Note_off_c, 0, 74, 104
1, 158508, Note_on_c, 0, 73, 106
1, 158563, Note_off_c, 0, 73, 106
1, 158587, Note_on_c, 0, 74, 108
1, 158725, Note_off_c, 0, 74, 108
1, 158789, Note_on_c, 0, 71, 102
1, 158884, Note_off_c, 0, 71, 102
1, 158948, Note_on_c, 0, 66, 109
1, 159055, Note_off_c, 0, 66, 109
1, 159097, Note_on_c, 0, 62, 109
1, 159250, Note_off_c, 0, 62, 109
1, 159289, Note_on_c, 0, 65, 105
1, 159350, Note_off_c, 0, 65, 105
1, 159368, Note_on_c, 0, 67, 97
1, 159398, Note_off_c, 0, 67, 97
1, 159440, Note_on_c, 0, 70, 100
1, 159544, Note_off_c, 0, 70, 100
1, 159568, Note_on_c, 0, 74, 104
1, 159669, Note_off_c, 0, 74, 104
1, 159696, Note_on_c, 0, 73, 110
1, 159781, Note_off_c, 0, 73, 110
1, 159836, Note_on_c, 0, 70, 101
1, 159931, Note_off_c, 0, 70, 101
1, 159980, Note_on_c, 0, 67, 110
1, 160059, Note_off_c, 0, 67, 110
1, 160077, Note_on_c, 0, 66, 110
1, 160138, Note_off_c, 0, 66, 110
1, 160205, Note_on_c, 0, 61, 111
1, 160339, Note_off_c, 0, 61, 111
1, 160369, Note_on_c, 0, 60, 109
1, 160482, Note_off_c, 0, 60, 109
1, 160503, Note_on_c, 0, 59, 108
1, 160653, Note_off_c, 0, 59, 108
1, 160677, Note_on_c, 0, 58, 104
1, 160775, Note_off_c, 0, 58, 104
1, 160793, Note_on_c, 0, 60, 109
1, 160924, Note_off_c, 0, 60, 109
1, 160954, Note_on_c, 0, 62, 96
1, 161036, Note_off_c, 0, 62, 96
1, 161045, Note_on_c, 0, 64, 111
1, 161198, Note_off_c, 0, 64, 111
1, 161228, Note_on_c, 0, 65, 109
1, 161359, Note_off_c, 0, 65, 109
1, 161398, Note_on_c, 0, 70, 107
1, 161486, Note_off_c, 0, 70, 107
1, 161507, Note_on_c, 0, 62, 109
1, 161614, Note_off_c, 0, 62, 109
1, 161641, Note_on_c, 0, 63, 111
1, 161788, Note_off_c, 0, 63, 111
1, 161815, Note_on_c, 0, 65, 108
1, 161891, Note_off_c, 0, 65, 108
1, 161912, Note_on_c, 0, 67, 107
1, 162016, Note_off_c, 0, 67, 107
1, 162028, Note_on_c, 0, 69, 102
1, 162083, Note_off_c, 0, 69, 102
1, 162101, Note_on_c, 0, 70, 101
1, 162223, Note_off_c, 0, 70, 101
1, 162253, Note_on_c, 0, 73, 103
1, 162369, Note_off_c, 0, 73, 103
1, 162415, Note_on_c, 0, 70, 99
1, 162531, Note_off_c, 0, 70, 99
1, 162561, Note_on_c, 0, 67, 95
1, 162631, Note_off_c, 0, 67, 95
1, 162667, Note_on_c, 0, 69, 99
1, 162771, Note_off_c, 0, 69, 99
1, 162875, Note_on_c, 0, 73, 101
1, 162945, Note_off_c, 0, 73, 101
1, 162972, Note_on_c, 0, 77, 107
1, 163054, Note_off_c, 0, 77, 107
1, 163090, Note_on_c, 0, 73, 111
1, 163178, Note_off_c, 0, 73, 111
1, 163217, Note_on_c, 0, 78, 108
1, 163315, Note_off_c, 0, 78, 108
1, 163339, Note_on_c, 0, 73, 94
1, 163424, Note_off_c, 0, 73, 94
1, 163448, Note_on_c, 0, 79, 104
1, 163570, Note_off_c, 0, 79, 104
1, 163616, Note_on_c, 0, 73, 99
1, 163704, Note_off_c, 0, 73, 99
1, 163740, Note_on_c, 0, 80, 103
1, 163859, Note_off_c, 0, 80, 103
1, 163889, Note_on_c, 0, 80, 108
1, 164023, Note_off_c, 0, 80, 108
1, 164044, Note_on_c, 0, 80, 101
1, 164182, Note_off_c, 0, 80, 101
1, 164191, Note_on_c, 0, 80, 101
1, 164261, Note_off_c, 0, 80, 101
1, 164282, Note_on_c, 0, 83, 81
1, 164441, Note_off_c, 0, 83, 81
1, 171273, Note_on_c, 0, 65, 113
1, 171368, Note_off_c, 0, 65, 113
1, 171392, Note_on_c, 0, 66, 107
1, 171548, Note_off_c, 0, 66, 107
1, 171603, Note_on_c, 0, 70, 97
1, 171747, Note_off_c, 0, 70, 97
1, 171823, Note_on_c, 0, 73, 99
1, 171951, Note_off_c, 0, 73, 99
1, 171990, Note_on_c, 0, 77, 110
1, 172253, Note_off_c, 0, 77, 110
1, 172329, Note_on_c, 0, 80, 92
1, 172654, Note_off_c, 0, 80, 92
1, 172844, Note_on_c, 0, 76, 109
1, 173077, Note_off_c, 0, 76, 109
1, 173555, Note_on_c, 0, 81, 104
1, 173775, Note_off_c, 0, 81, 104
1, 173992, Note_on_c, 0, 78, 110
1, 174176, Note_off_c, 0, 78, 110
1, 174347, Note_on_c, 0, 73, 110
1, 174494, Note_off_c, 0, 73, 110
1, 174561, Note_on_c, 0, 79, 96
1, 174616, Note_off_c, 0, 79, 96
1, 174628, Note_on_c, 0, 81, 103
1, 174698, Note_off_c, 0, 81, 103
1, 174713, Note_on_c, 0, 79, 102
1, 174777, Note_off_c, 0, 79, 102
1, 174813, Note_on_c, 0, 76, 110
1, 174954, Note_off_c, 0, 76, 110
1, 174996, Note_on_c, 0, 72, 104
1, 175189, Note_off_c, 0, 72, 104
1, 175250, Note_on_c, 0, 71, 95
1, 175378, Note_off_c, 0, 71, 95
1, 175408, Note_on_c, 0, 79, 109
1, 175662, Note_off_c, 0, 79, 109
1, 175717, Note_on_c, 0, 69, 100
1, 175901, Note_off_c, 0, 69, 100
1, 175983, Note_on_c, 0, 72, 100
1, 176096, Note_off_c, 0, 72, 100
1, 176154, Note_on_c, 0, 75, 100
1, 176236, Note_off_c, 0, 75, 100
1, 176257, Note_on_c, 0, 79, 94
1, 176631, Note_off_c, 0, 79, 94
1, 176689, Note_on_c, 0, 76, 108
1, 176857, Note_off_c, 0, 76, 108
1, 176903, Note_on_c, 0, 79, 110
1, 177050, Note_off_c, 0, 79, 110
1, 177083, Note_on_c, 0, 78, 109
1, 177224, Note_off_c, 0, 78, 109
1, 177282, Note_on_c, 0, 74, 104
1, 177432, Note_off_c, 0, 74, 104
1, 177508, Note_on_c, 0, 70, 96
1, 177633, Note_off_c, 0, 70, 96
1, 177694, Note_on_c, 0, 67, 98
1, 177801, Note_off_c, 0, 67, 98
1, 177865, Note_on_c, 0, 76, 110
1, 178082, Note_off_c, 0, 76, 110
1, 178109, Note_on_c, 0, 74, 98
1, 178216, Note_off_c, 0, 74, 98
1, 178240, Note_on_c, 0, 76, 113
1, 178457, Note_off_c, 0, 76, 113
1, 178496, Note_on_c, 0, 75, 101
1, 178698, Note_off_c, 0, 75, 101
1, 178725, Note_on_c, 0, 73, 109
1, 178863, Note_off_c, 0, 73, 109
1, 178884, Note_on_c, 0, 74, 105
1, 179015, Note_off_c, 0, 74, 105
1, 179076, Note_on_c, 0, 70, 97
1, 179186, Note_off_c, 0, 70, 97
1, 179232, Note_on_c, 0, 66, 105
1, 179413, Note_off_c, 0, 66, 105
1, 179443, Note_on_c, 0, 62, 100
1, 179547, Note_off_c, 0, 62, 100
1, 179611, Note_on_c, 0, 69, 105
1, 179782, Note_off_c, 0, 69, 105
1, 179861, Note_on_c, 0, 62, 107
1, 179999, Note_off_c, 0, 62, 107
1, 180026, Note_on_c, 0, 65, 106
1, 180179, Note_off_c, 0, 65, 106
1, 180179, Note_on_c, 0, 70, 98
1, 180341, Note_off_c, 0, 70, 98
1, 180371, Note_on_c, 0, 68, 106
1, 180521, Note_off_c, 0, 68, 106
1, 180557, Note_on_c, 0, 66, 98
1, 180664, Note_off_c, 0, 66, 98
1, 180682, Note_on_c, 0, 65, 104
1, 180905, Note_off_c, 0, 65, 104
1, 181003, Note_on_c, 0, 60, 97
1, 181141, Note_off_c, 0, 60, 97
1, 181177, Note_on_c, 0, 63, 111
1, 181410, Note_off_c, 0, 63, 111
1, 181440, Note_on_c, 0, 61, 106
1, 181602, Note_off_c, 0, 61, 106
1, 181608, Note_on_c, 0, 63, 106
1, 181835, Note_off_c, 0, 63, 106
1, 181856, Note_on_c, 0, 66, 103
1, 182009, Note_off_c, 0, 66, 103
1, 182051, Note_on_c, 0, 63, 103
1, 182222, Note_off_c, 0, 63, 103
1, 182258, Note_on_c, 0, 66, 100
1, 182454, Note_off_c, 0, 66, 100
1, 182478, Note_on_c, 0, 68, 102
1, 182640, Note_off_c, 0, 68, 102
1, 182640, Note_on_c, 0, 70, 103
1, 182781, Note_off_c, 0, 70, 103
1, 182833, Note_on_c, 0, 67, 107
1, 182937, Note_off_c, 0, 67, 107
1, 182983, Note_on_c, 0, 69, 103
1, 183139, Note_off_c, 0, 69, 103
1, 183203, Note_on_c, 0, 71, 98
1, 183331, Note_off_c, 0, 71, 98
1, 183392, Note_on_c, 0, 73, 108
1, 183579, Note_off_c, 0, 73, 108
1, 183646, Note_on_c, 0, 75, 107
1, 183808, Note_off_c, 0, 75, 107
1, 183854, Note_on_c, 0, 78, 112
1, 183955, Note_off_c, 0, 78, 112
1, 183970, Note_on_c, 0, 77, 114
1, 184209, Note_off_c, 0, 77, 114
1, 184248, Note_on_c, 0, 76, 112
1, 184447, Note_off_c, 0, 76, 112
1, 184480, Note_on_c, 0, 75, 109
1, 184645, Note_off_c, 0, 75, 109
1, 184709, Note_on_c, 0, 70, 103
1, 184834, Note_off_c, 0, 70, 103
1, 184910, Note_on_c, 0, 73, 106
1, 185044, Note_off_c, 0, 73, 106
1, 185074, Note_on_c, 0, 75, 101
1, 185224, Note_off_c, 0, 75, 101
1, 185251, Note_on_c, 0, 77, 116
1, 185499, Note_off_c, 0, 77, 116
1, 185541, Note_on_c, 0, 73, 106
1, 185740, Note_off_c, 0, 73, 106
1, 185789, Note_on_c, 0, 70, 97
1, 185960, Note_off_c, 0, 70, 97
1, 186015, Note_on_c, 0, 65, 99
1, 186119, Note_off_c, 0, 65, 99
1, 186155, Note_on_c, 0, 64, 104
1, 186415, Note_off_c, 0, 64, 104
1, 186448, Note_on_c, 0, 66, 107
1, 186601, Note_off_c, 0, 66, 107
1, 186640, Note_on_c, 0, 69, 95
1, 186787, Note_off_c, 0, 69, 95
1, 186805, Note_on_c, 0, 71, 99
1, 186933, Note_off_c, 0, 71, 99
1, 186963, Note_on_c, 0, 73, 110
1, 187174, Note_off_c, 0, 73, 110
1, 187189, Note_on_c, 0, 74, 108
1, 187345, Note_off_c, 0, 74, 108
1, 187345, Note_on_c, 0, 76, 108
1, 187562, Note_off_c, 0, 76, 108
1, 187608, Note_on_c, 0, 74, 101
1, 187721, Note_off_c, 0, 74, 101
1, 187736, Note_on_c, 0, 75, 108
1, 187956, Note_off_c, 0, 75, 108
1, 187986, Note_on_c, 0, 72, 104
1, 188130, Note_off_c, 0, 72, 104
1, 188154, Note_on_c, 0, 70, 100
1, 188273, Note_off_c, 0, 70, 100
1, 188297, Note_on_c, 0, 67, 95
1, 188435, Note_off_c, 0, 67, 95
1, 188511, Note_on_c, 0, 76, 111
1, 188768, Note_off_c, 0, 76, 111
1, 188783, Note_on_c, 0, 72, 102
1, 188914, Note_off_c, 0, 72, 102
1, 188950, Note_on_c, 0, 70, 96
1, 189069, Note_off_c, 0, 70, 96
1, 189093, Note_on_c, 0, 67, 101
1, 189227, Note_off_c, 0, 67, 101
1, 189285, Note_on_c, 0, 75, 112
1, 189527, Note_off_c, 0, 75, 112
1, 190232, Note_on_c, 0, 73, 111
1, 190366, Note_off_c, 0, 73, 111
1, 190387, Note_on_c, 0, 74, 104
1, 190561, Note_off_c, 0, 74, 104
1, 190585, Note_on_c, 0, 71, 100
1, 190713, Note_off_c, 0, 71, 100
1, 190771, Note_on_c, 0, 65, 97
1, 190890, Note_off_c, 0, 65, 97
1, 190963, Note_on_c, 0, 71, 103
1, 191051, Note_off_c, 0, 71, 103
1, 191087, Note_on_c, 0, 69, 102
1, 191197, Note_off_c, 0, 69, 102
1, 191230, Note_on_c, 0, 70, 99
1, 191634, Note_off_c, 0, 70, 99
1, 191808, Note_on_c, 0, 69, 104
1, 192004, Note_off_c, 0, 69, 104
1, 192028, Note_on_c, 0, 61, 108
1, 192178, Note_off_c, 0, 61, 108
1, 192217, Note_on_c, 0, 65, 111
1, 192355, Note_off_c, 0, 65, 111
1, 192407, Note_on_c, 0, 70, 104
1, 192551, Note_off_c, 0, 70, 104
1, 192597, Note_on_c, 0, 68, 107
1, 192747, Note_off_c, 0, 68, 107
1, 192789, Note_on_c, 0, 67, 110
1, 192951, Note_off_c, 0, 67, 110
1, 192969, Note_on_c, 0, 66, 107
1, 193134, Note_off_c, 0, 66, 107
1, 193210, Note_on_c, 0, 62, 102
1, 193348, Note_off_c, 0, 62, 102
1, 193363, Note_on_c, 0, 65, 113
1, 193537, Note_off_c, 0, 65, 113
1, 193573, Note_on_c, 0, 64, 112
1, 193668, Note_off_c, 0, 64, 112
1, 193698, Note_on_c, 0, 63, 109
1, 193897, Note_off_c, 0, 63, 109
1, 193958, Note_on_c, 0, 67, 106
1, 194114, Note_off_c, 0, 67, 106
1, 194227, Note_on_c, 0, 60, 110
1, 194417, Note_off_c, 0, 60, 110
1, 194444, Note_on_c, 0, 63, 105
1, 194523, Note_off_c, 0, 63, 105
1, 194544, Note_on_c, 0, 66, 106
1, 194636, Note_off_c, 0, 66, 106
1, 194663, Note_on_c, 0, 69, 103
1, 194755, Note_off_c, 0, 69, 103
1, 194761, Note_on_c, 0, 71, 102
1, 194834, Note_off_c, 0, 71, 102
1, 194873, Note_on_c, 0, 73, 112
1, 195023, Note_off_c, 0, 73, 112
1, 195053, Note_on_c, 0, 75, 106
1, 195276, Note_off_c, 0, 75, 106
1, 195303, Note_on_c, 0, 78, 110
1, 195487, Note_off_c, 0, 78, 110
1, 195545, Note_on_c, 0, 75, 104
1, 195701, Note_off_c, 0, 75, 104
1, 195716, Note_on_c, 0, 77, 111
1, 195927, Note_off_c, 0, 77, 111
1, 195957, Note_on_c, 0, 76, 114
1, 196042, Note_off_c, 0, 76, 114
1, 196094, Note_on_c, 0, 75, 110
1, 196345, Note_off_c, 0, 75, 110
1, 196412, Note_on_c, 0, 73, 111
1, 196528, Note_off_c, 0, 73, 111
1, 196540, Note_on_c, 0, 72, 108
1, 196717, Note_off_c, 0, 72, 108
1, 196744, Note_on_c, 0, 70, 106
1, 196875, Note_off_c, 0, 70, 106
1, 196905, Note_on_c, 0, 67, 109
1, 197178, Note_off_c, 0, 67, 109
1, 197211, Note_on_c, 0, 68, 104
1, 197330, Note_off_c, 0, 68, 104
1, 197357, Note_on_c, 0, 69, 106
1, 197507, Note_off_c, 0, 69, 106
1, 197586, Note_on_c, 0, 77, 113
1, 198083, Note_off_c, 0, 77, 113
1, 198138, Note_on_c, 0, 72, 108
1, 198478, Note_off_c, 0, 72, 108
1, 198505, Note_on_c, 0, 73, 104
1, 198863, Note_off_c, 0, 73, 104
1, 198921, Note_on_c, 0, 70, 103
1, 199347, Note_off_c, 0, 70, 103
1, 199386, Note_on_c, 0, 66, 106
1, 199744, Note_off_c, 0, 66, 106
1, 199786, Note_on_c, 0, 61, 114
1, 200095, Note_off_c, 0, 61, 114
1, 200159, Note_on_c, 0, 60, 108
1, 200616, Note_off_c, 0, 60, 108
1, 200784, Note_on_c, 0, 75, 91
1, 200894, Note_off_c, 0, 75, 91
1, 200930, Note_on_c, 0, 76, 97
1, 201150, Note_off_c, 0, 76, 97
1, 201192, Note_on_c, 0, 75, 92
1, 201284, Note_off_c, 0, 75, 92
1, 201333, Note_on_c, 0, 76, 103
1, 201596, Note_off_c, 0, 76, 103
1, 203835, Note_on_c, 0, 75, 101
1, 204025, Note_off_c, 0, 75, 101
1, 204282, Note_on_c, 0, 68, 95
1, 204797, Note_off_c, 0, 68, 95
1, 204797, Note_on_c, 0, 70, 88
1, 205269, Note_off_c, 0, 70, 88
1, 206717, Note_on_c, 0, 75, 100
1, 206980, Note_off_c, 0, 75, 100
1, 207026, Note_on_c, 0, 77, 83
1, 207357, Note_off_c, 0, 77, 83
1, 207412, Note_on_c, 0, 69, 93
1, 207893, Note_off_c, 0, 69, 93
1, 207945, Note_on_c, 0, 88, 104
1, 208119, Note_off_c, 0, 88, 104
1, 208140, Note_on_c, 0, 89, 79
1, 208652, Note_off_c, 0, 89, 79
1, 210063, Note_on_c, 0, 73, 112
1, 210510, Note_off_c, 0, 73, 112
1, 210543, Note_on_c, 0, 74, 114
1, 210622, Note_off_c, 0, 74, 114
1, 210664, Note_on_c, 0, 78, 110
1, 210768, Note_off_c, 0, 78, 110
1, 210789, Note_on_c, 0, 80, 112
1, 210877, Note_off_c, 0, 80, 112
1, 210880, Note_on_c, 0, 82, 113
1, 211975, Note_off_c, 0, 82, 113
1, 213217, Note_on_c, 0, 80, 117
1, 213582, Note_off_c, 0, 80, 117
1, 213695, Note_on_c, 0, 77, 115
1, 214041, Note_off_c, 0, 77, 115
1, 214117, Note_on_c, 0, 73, 114
1, 214469, Note_off_c, 0, 73, 114
1, 214499, Note_on_c, 0, 75, 115
1, 215002, Note_off_c, 0, 75, 115
1, 215106, Note_on_c, 0, 75, 110
1, 215955, Note_off_c, 0, 75, 110
1, 217513, Note_on_c, 0, 75, 119
1, 217690, Note_off_c, 0, 75, 119
1, 217739, Note_on_c, 0, 77, 121
1, 217886, Note_off_c, 0, 77, 121
1, 217916, Note_on_c, 0, 75, 117
1, 218078, Note_off_c, 0, 75, 117
1, 218111, Note_on_c, 0, 77, 122
1, 218261, Note_off_c, 0, 77, 122
1, 218288, Note_on_c, 0, 75, 117
1, 218404, Note_off_c, 0, 75, 117
1, 218428, Note_on_c, 0, 77, 121
1, 218655, Note_off_c, 0, 77, 121
1, 218719, Note_on_c, 0, 78, 113
1, 219933, Note_off_c, 0, 78, 113
1, 219942, Note_on_c, 0, 76, 118
1, 220049, Note_off_c, 0, 76, 118
1, 220067, Note_on_c, 0, 77, 115
1, 220128, Note_off_c, 0, 77, 115
1, 220152, Note_on_c, 0, 78, 109
1, 220274, Note_off_c, 0, 78, 109
1, 220292, Note_on_c, 0, 77, 115
1, 220365, Note_off_c, 0, 77, 115
1, 220432, Note_on_c, 0, 73, 113
1, 220763, Note_off_c, 0, 73, 113
1, 220796, Note_on_c, 0, 72, 112
1, 221219, Note_off_c, 0, 72, 112
1, 221219, End_track
0, 0, End_of_file
