0, 0, Header, 1, 1, 192
1, 0, Start_track
1, 0, Title_t, "Melody"
1, 0, Tempo, 287081
1, 0, Key_signature, -2, "major"
1, 0, Time_signature, 4, 2, 24, 8
1, 3223, Note_on_c, 0, 56, 101
1, 3292, Note_off_c, 0, 56, 101
1, 3305, Note_on_c, 0, 61, 105
1, 3383, Note_off_c, 0, 61, 105
1, 3395, Note_on_c, 0, 61, 109
1, 3466, Note_off_c, 0, 61, 109
1, 3487, Note_on_c, 0, 66, 111
1, 3583, Note_off_c, 0, 66, 111
1, 3599, Note_on_c, 0, 66, 114
1, 3666, Note_off_c, 0, 66, 114
1, 3671, Note_on_c, 0, 64, 108
1, 3828, Note_off_c, 0, 64, 108
1, 3855, Note_on_c, 0, 56, 95
1, 4047, Note_off_c, 0, 56, 95
1, 4604, Note_on_c, 0, 55, 104
1, 4689, Note_off_c, 0, 55, 104
1, 4706, Note_on_c, 0, 56, 98
1, 4797, Note_off_c, 0, 56, 98
1, 4808, Note_on_c, 0, 59, 89
1, 4872, Note_off_c, 0, 59, 89
1, 4899, Note_on_c, 0, 61, 109
1, 4994, Note_off_c, 0, 61, 109
1, 5006, Note_on_c, 0, 64, 95
1, 5061, Note_off_c, 0, 64, 95
1, 5063, Note_on_c, 0, 66, 118
1, 5181, Note_off_c, 0, 66, 118
1, 5187, Note_on_c, 0, 64, 113
1, 5251, Note_off_c, 0, 64, 113
1, 5263, Note_on_c, 0, 63, 116
1, 5391, Note_off_c, 0, 63, 116
1, 5409, Note_on_c, 0, 58, 96
1, 5574, Note_off_c, 0, 58, 96
1, 6785, Note_on_c, 0, 56, 108
1, 6832, Note_off_c, 0, 56, 108
1, 6838, Note_on_c, 0, 57, 106
1, 6886, Note_off_c, 0, 57, 106
1, 6886, Note_on_c, 0, 58, 105
1, 6915, Note_off_c, 0, 58, 105
1, 6947, Note_on_c, 0, 61, 96
1, 6972, Note_off_c, 0, 61, 96
1, 6975, Note_on_c, 0, 64, 105
1, 7003, Note_off_c, 0, 64, 105
1, 7005, Note_on_c, 0, 65, 101
1, 7031, Note_off_c, 0, 65, 101
1, 7037, Note_on_c, 0, 64, 101
1, 7117, Note_off_c, 0, 64, 101
1, 7189, Note_on_c, 0, 69, 113
1, 7227, Note_off_c, 0, 69, 113
1, 7245, Note_on_c, 0, 63, 107
1, 7265, Note_off_c, 0, 63, 107
1, 7279, Note_on_c, 0, 61, 109
1, 7319, Note_off_c, 0, 61, 109
1, 7328, Note_on_c, 0, 58, 101
1, 7359, Note_off_c, 0, 58, 101
1, 7364, Note_on_c, 0, 64, 109
1, 7401, Note_off_c, 0, 64, 109
1, 7406, Note_on_c, 0, 65, 108
1, 7444, Note_off_c, 0, 65, 108
1, 7451, Note_on_c, 0, 66, 109
1, 7492, Note_off_c, 0, 66, 109
1, 7500, Note_on_c, 0, 63, 114
1, 7595, Note_off_c, 0, 63, 114
1, 7599, Note_on_c, 0, 59, 95
1, 7659, Note_off_c, 0, 59, 95
1, 7747, Note_on_c, 0, 54, 98
1, 7776, Note_off_c, 0, 54, 98
1, 7782, Note_on_c, 0, 56, 104
1, 7829, Note_off_c, 0, 56, 104
1, 7835, Note_on_c, 0, 58, 106
1, 7853, Note_off_c, 0, 58, 106
1, 7859, Note_on_c, 0, 59, 105
1, 7885, Note_off_c, 0, 59, 105
1, 7894, Note_on_c, 0, 60, 104
1, 7921, Note_off_c, 0, 60, 104
1, 7925, Note_on_c, 0, 61, 107
1, 7972, Note_off_c, 0, 61, 107
1, 7989, Note_on_c, 0, 58, 98
1, 8042, Note_off_c, 0, 58, 98
1, 8052, Note_on_c, 0, 54, 94
1, 8084, Note_off_c, 0, 54, 94
1, 8095, Note_on_c, 0, 52, 90
1, 8115, Note_off_c, 0, 52, 90
1, 8123, Note_on_c, 0, 49, 89
1, 8148, Note_off_c, 0, 49, 89
1, 8155, Note_on_c, 0, 52, 97
1, 8279, Note_off_c, 0, 52, 97
1, 10453, Note_on_c, 0, 69, 116
1, 10530, Note_off_c, 0, 69, 116
1, 10536, Note_on_c, 0, 70, 112
1, 10647, Note_off_c, 0, 70, 112
1, 10656, Note_on_c, 0, 72, 112
1, 10737, Note_off_c, 0, 72, 112
1, 10753, Note_on_c, 0, 70, 112
1, 10836, Note_off_c, 0, 70, 112
1, 10862, Note_on_c, 0, 69, 115
1, 10935, Note_off_c, 0, 69, 115
1, 10955, Note_on_c, 0, 67, 106
1, 11042, Note_off_c, 0, 67, 106
1, 11137, Note_on_c, 0, 66, 116
1, 11243, Note_off_c, 0, 66, 116
1, 11262, Note_on_c, 0, 64, 114
1, 11311, Note_off_c, 0, 64, 114
1, 11328, Note_on_c, 0, 63, 110
1, 11463, Note_off_c, 0, 63, 110
1, 11540, Note_on_c, 0, 64, 110
1, 11632, Note_off_c, 0, 64, 110
1, 11649, Note_on_c, 0, 62, 112
1, 11799, Note_off_c, 0, 62, 112
1, 11909, Note_on_c, 0, 61, 102
1, 12012, Note_off_c, 0, 61, 102
1, 12028, Note_on_c, 0, 60, 99
1, 12112, Note_off_c, 0, 60, 99
1, 12256, Note_on_c, 0, 59, 97
1, 12321, Note_off_c, 0, 59, 97
1, 12325, Note_on_c, 0, 58, 96
1, 12454, Note_off_c, 0, 58, 96
1, 12574, Note_on_c, 0, 56, 97
1, 12653, Note_off_c, 0, 56, 97
1, 12655, Note_on_c, 0, 55, 98
1, 12736, Note_off_c, 0, 55, 98
1, 12864, Note_on_c, 0, 56, 99
1, 12969, Note_off_c, 0, 56, 99
1, 13000, Note_on_c, 0, 55, 91
1, 13116, Note_off_c, 0, 55, 91
1, 16536, Note_on_c, 0, 50, 99
1, 16621, Note_off_c, 0, 50, 99
1, 16628, Note_on_c, 0, 54, 100
1, 16692, Note_off_c, 0, 54, 100
1, 16708, Note_on_c, 0, 60, 115
1, 16795, Note_off_c, 0, 60, 115
1, 16817, Note_on_c, 0, 62, 98
1, 17271, Note_off_c, 0, 62, 98
1, 17892, Note_on_c, 0, 50, 101
1, 17961, Note_off_c, 0, 50, 101
1, 17971, Note_on_c, 0, 51, 107
1, 18036, Note_off_c, 0, 51, 107
1, 18046, Note_on_c, 0, 53, 107
1, 18189, Note_off_c, 0, 53, 107
1, 18209, Note_on_c, 0, 57, 114
1, 18333, Note_off_c, 0, 57, 114
1, 18348, Note_on_c, 0, 58, 106
1, 18419, Note_off_c, 0, 58, 106
1, 18422, Note_on_c, 0, 60, 117
1, 18517, Note_off_c, 0, 60, 117
1, 18527, Note_on_c, 0, 62, 108
1, 18593, Note_off_c, 0, 62, 108
1, 18597, Note_on_c, 0, 63, 120
1, 18700, Note_off_c, 0, 63, 120
1, 18718, Note_on_c, 0, 65, 110
1, 18782, Note_off_c, 0, 65, 110
1, 18784, Note_on_c, 0, 66, 103
1, 19051, Note_off_c, 0, 66, 103
1, 19357, Note_on_c, 0, 54, 103
1, 19459, Note_off_c, 0, 54, 103
1, 19466, Note_on_c, 0, 57, 104
1, 19549, Note_off_c, 0, 57, 104
1, 19560, Note_on_c, 0, 58, 108
1, 19660, Note_off_c, 0, 58, 108
1, 19665, Note_on_c, 0, 60, 109
1, 19727, Note_off_c, 0, 60, 109
1, 19728, Note_on_c, 0, 62, 115
1, 19836, Note_off_c, 0, 62, 115
1, 19837, Note_on_c, 0, 63, 118
1, 19910, Note_off_c, 0, 63, 118
1, 19914, Note_on_c, 0, 65, 116
1, 20019, Note_off_c, 0, 65, 116
1, 20027, Note_on_c, 0, 66, 113
1, 20083, Note_off_c, 0, 66, 113
1, 20087, Note_on_c, 0, 67, 113
1, 20200, Note_off_c, 0, 67, 113
1, 20208, Note_on_c, 0, 68, 101
1, 20521, Note_off_c, 0, 68, 101
1, 21253, Note_on_c, 0, 56, 106
1, 21379, Note_off_c, 0, 56, 106
1, 21380, Note_on_c, 0, 58, 104
1, 21433, Note_off_c, 0, 58, 104
1, 21441, Note_on_c, 0, 59, 105
1, 21516, Note_off_c, 0, 59, 105
1, 21521, Note_on_c, 0, 63, 110
1, 21596, Note_off_c, 0, 63, 110
1, 21596, Note_on_c, 0, 66, 113
1, 21704, Note_off_c, 0, 66, 113
1, 21707, Note_on_c, 0, 68, 114
1, 21774, Note_off_c, 0, 68, 114
1, 21777, Note_on_c, 0, 70, 105
1, 22163, Note_off_c, 0, 70, 105
1, 22286, Note_on_c, 0, 57, 107
1, 22385, Note_off_c, 0, 57, 107
1, 22391, Note_on_c, 0, 58, 104
1, 22448, Note_off_c, 0, 58, 104
1, 22458, Note_on_c, 0, 60, 110
1, 22541, Note_off_c, 0, 60, 110
1, 22558, Note_on_c, 0, 62, 116
1, 22626, Note_off_c, 0, 62, 116
1, 22649, Note_on_c, 0, 65, 116
1, 22745, Note_off_c, 0, 65, 116
1, 22761, Note_on_c, 0, 67, 110
1, 22900, Note_off_c, 0, 67, 110
1, 22935, Note_on_c, 0, 69, 115
1, 23053, Note_off_c, 0, 69, 115
1, 23062, Note_on_c, 0, 71, 115
1, 23096, Note_off_c, 0, 71, 115
1, 23106, Note_on_c, 0, 72, 116
1, 23318, Note_off_c, 0, 72, 116
1, 23345, Note_on_c, 0, 73, 111
1, 23433, Note_off_c, 0, 73, 111
1, 23439, Note_on_c, 0, 70, 111
1, 23585, Note_off_c, 0, 70, 111
1, 23592, Note_on_c, 0, 66, 111
1, 23729, Note_off_c, 0, 66, 111
1, 23750, Note_on_c, 0, 65, 85
1, 24167, Note_off_c, 0, 65, 85
1, 25554, Note_on_c, 0, 68, 115
1, 25584, Note_off_c, 0, 68, 115
1, 25598, Note_on_c, 0, 69, 116
1, 25651, Note_off_c, 0, 69, 116
1, 25702, Note_on_c, 0, 68, 120
1, 25786, Note_off_c, 0, 68, 120
1, 25805, Note_on_c, 0, 67, 116
1, 25884, Note_off_c, 0, 67, 116
1, 25905, Note_on_c, 0, 79, 115
1, 25947, Note_off_c, 0, 79, 115
1, 25952, Note_on_c, 0, 80, 114
1, 25995, Note_off_c, 0, 80, 114
1, 26012, Note_on_c, 0, 81, 88
1, 26144, Note_off_c, 0, 81, 88
1, 26149, Note_on_c, 0, 80, 91
1, 26446, Note_off_c, 0, 80, 91
1, 27118, Note_on_c, 0, 68, 117
1, 27193, Note_off_c, 0, 68, 117
1, 27198, Note_on_c, 0, 67, 113
1, 27261, Note_off_c, 0, 67, 113
1, 27280, Note_on_c, 0, 66, 115
1, 27412, Note_off_c, 0, 66, 115
1, 27429, Note_on_c, 0, 75, 108
1, 27489, Note_off_c, 0, 75, 108
1, 27514, Note_on_c, 0, 79, 91
1, 27660, Note_off_c, 0, 79, 91
1, 27696, Note_on_c, 0, 76, 93
1, 28042, Note_off_c, 0, 76, 93
1, 28787, Note_on_c, 0, 58, 112
1, 28881, Note_off_c, 0, 58, 112
1, 28914, Note_on_c, 0, 74, 108
1, 28989, Note_off_c, 0, 74, 108
1, 29000, Note_on_c, 0, 73, 83
1, 29102, Note_off_c, 0, 73, 83
1, 29406, Note_on_c, 0, 63, 104
1, 29461, Note_off_c, 0, 63, 104
1, 29468, Note_on_c, 0, 65, 98
1, 29520, Note_off_c, 0, 65, 98
1, 29526, Note_on_c, 0, 72, 107
1, 29567, Note_off_c, 0, 72, 107
1, 29576, Note_on_c, 0, 67, 105
1, 29618, Note_off_c, 0, 67, 105
1, 29622, Note_on_c, 0, 69, 94
1, 29655, Note_off_c, 0, 69, 94
1, 29663, Note_on_c, 0, 70, 102
1, 29812, Note_off_c, 0, 70, 102
1, 29824, Note_on_c, 0, 65, 87
1, 29942, Note_off_c, 0, 65, 87
1, 30462, Note_on_c, 0, 44, 119
1, 30518, Note_off_c, 0, 44, 119
1, 30530, Note_on_c, 0, 51, 102
1, 30564, Note_off_c, 0, 51, 102
1, 30579, Note_on_c, 0, 52, 105
1, 30652, Note_off_c, 0, 52, 105
1, 30658, Note_on_c, 0, 53, 94
1, 30688, Note_off_c, 0, 53, 94
1, 30699, Note_on_c, 0, 57, 99
1, 30748, Note_off_c, 0, 57, 99
1, 30756, Note_on_c, 0, 58, 98
1, 30788, Note_off_c, 0, 58, 98
1, 30813, Note_on_c, 0, 64, 99
1, 30858, Note_off_c, 0, 64, 99
1, 30866, Note_on_c, 0, 69, 95
1, 30897, Note_off_c, 0, 69, 95
1, 30907, Note_on_c, 0, 64, 104
1, 30951, Note_off_c, 0, 64, 104
1, 30983, Note_on_c, 0, 69, 97
1, 31021, Note_off_c, 0, 69, 97
1, 31031, Note_on_c, 0, 72, 105
1, 31055, Note_off_c, 0, 72, 105
1, 31061, Note_on_c, 0, 73, 112
1, 31183, Note_off_c, 0, 73, 112
1, 31191, Note_on_c, 0, 72, 95
1, 31221, Note_off_c, 0, 72, 95
1, 31229, Note_on_c, 0, 69, 111
1, 31271, Note_off_c, 0, 69, 111
1, 31282, Note_on_c, 0, 66, 105
1, 31318, Note_off_c, 0, 66, 105
1, 31336, Note_on_c, 0, 61, 103
1, 31370, Note_off_c, 0, 61, 103
1, 31375, Note_on_c, 0, 59, 99
1, 31405, Note_off_c, 0, 59, 99
1, 31421, Note_on_c, 0, 57, 95
1, 31443, Note_off_c, 0, 57, 95
1, 31451, Note_on_c, 0, 50, 104
1, 31474, Note_off_c, 0, 50, 104
1, 31484, Note_on_c, 0, 48, 100
1, 31561, Note_off_c, 0, 48, 100
1, 31597, Note_on_c, 0, 50, 94
1, 31620, Note_off_c, 0, 50, 94
1, 31634, Note_on_c, 0, 55, 98
1, 31675, Note_off_c, 0, 55, 98
1, 31681, Note_on_c, 0, 56, 104
1, 31708, Note_off_c, 0, 56, 104
1, 31714, Note_on_c, 0, 57, 101
1, 31754, Note_off_c, 0, 57, 101
1, 31787, Note_on_c, 0, 62, 105
1, 31837, Note_off_c, 0, 62, 105
1, 31846, Note_on_c, 0, 65, 90
1, 31868, Note_off_c, 0, 65, 90
1, 31883, Note_on_c, 0, 67, 89
1, 31909, Note_off_c, 0, 67, 89
1, 31921, Note_on_c, 0, 69, 91
1, 31953, Note_off_c, 0, 69, 91
1, 31963, Note_on_c, 0, 70, 101
1, 32001, Note_off_c, 0, 70, 101
1, 32003, Note_on_c, 0, 72, 106
1, 32019, Note_off_c, 0, 72, 106
1, 32025, Note_on_c, 0, 74, 112
1, 32081, Note_off_c, 0, 74, 112
1, 32092, Note_on_c, 0, 72, 106
1, 32132, Note_off_c, 0, 72, 106
1, 32137, Note_on_c, 0, 71, 108
1, 32170, Note_off_c, 0, 71, 108
1, 32185, Note_on_c, 0, 70, 103
1, 32264, Note_off_c, 0, 70, 103
1, 32270, Note_on_c, 0, 69, 98
1, 32294, Note_off_c, 0, 69, 98
1, 32302, Note_on_c, 0, 66, 103
1, 32457, Note_off_c, 0, 66, 103
1, 32468, Note_on_c, 0, 65, 105
1, 32500, Note_off_c, 0, 65, 105
1, 32506, Note_on_c, 0, 62, 108
1, 32539, Note_off_c, 0, 62, 108
1, 32553, Note_on_c, 0, 61, 98
1, 32638, Note_off_c, 0, 61, 98
1, 32681, Note_on_c, 0, 57, 98
1, 32722, Note_off_c, 0, 57, 98
1, 32739, Note_on_c, 0, 54, 99
1, 32768, Note_off_c, 0, 54, 99
1, 32791, Note_on_c, 0, 54, 91
1, 32830, Note_off_c, 0, 54, 91
1, 32849, Note_on_c, 0, 53, 106
1, 32903, Note_off_c, 0, 53, 106
1, 34454, Note_on_c, 0, 60, 115
1, 34517, Note_off_c, 0, 60, 115
1, 34519, Note_on_c, 0, 62, 112
1, 34573, Note_off_c, 0, 62, 112
1, 34577, Note_on_c, 0, 65, 99
1, 34608, Note_off_c, 0, 65, 99
1, 34616, Note_on_c, 0, 69, 109
1, 34672, Note_off_c, 0, 69, 109
1, 34676, Note_on_c, 0, 70, 113
1, 34731, Note_off_c, 0, 70, 113
1, 34735, Note_on_c, 0, 65, 103
1, 34762, Note_off_c, 0, 65, 103
1, 34770, Note_on_c, 0, 62, 113
1, 34822, Note_off_c, 0, 62, 113
1, 34835, Note_on_c, 0, 58, 104
1, 34867, Note_off_c, 0, 58, 104
1, 34877, Note_on_c, 0, 63, 112
1, 34939, Note_off_c, 0, 63, 112
1, 34945, Note_on_c, 0, 65, 104
1, 34966, Note_off_c, 0, 65, 104
1, 34972, Note_on_c, 0, 67, 105
1, 35031, Note_off_c, 0, 67, 105
1, 35045, Note_on_c, 0, 63, 106
1, 35094, Note_off_c, 0, 63, 106
1, 35099, Note_on_c, 0, 65, 102
1, 35145, Note_off_c, 0, 65, 102
1, 35161, Note_on_c, 0, 60, 99
1, 35224, Note_off_c, 0, 60, 99
1, 35231, Note_on_c, 0, 62, 104
1, 35287, Note_off_c, 0, 62, 104
1, 35293, Note_on_c, 0, 64, 102
1, 35356, Note_off_c, 0, 64, 102
1, 35371, Note_on_c, 0, 67, 88
1, 35391, Note_off_c, 0, 67, 88
1, 35395, Note_on_c, 0, 69, 107
1, 35458, Note_off_c, 0, 69, 107
1, 35472, Note_on_c, 0, 62, 112
1, 35538, Note_off_c, 0, 62, 112
1, 35546, Note_on_c, 0, 58, 98
1, 35595, Note_off_c, 0, 58, 98
1, 35610, Note_on_c, 0, 62, 108
1, 35656, Note_off_c, 0, 62, 108
1, 35658, Note_on_c, 0, 63, 107
1, 35720, Note_off_c, 0, 63, 107
1, 35726, Note_on_c, 0, 61, 99
1, 35741, Note_off_c, 0, 61, 99
1, 35746, Note_on_c, 0, 62, 110
1, 35813, Note_off_c, 0, 62, 110
1, 35819, Note_on_c, 0, 59, 97
1, 35864, Note_off_c, 0, 59, 97
1, 35894, Note_on_c, 0, 53, 97
1, 35945, Note_off_c, 0, 53, 97
1, 35981, Note_on_c, 0, 57, 105
1, 36045, Note_off_c, 0, 57, 105
1, 36074, Note_on_c, 0, 52, 97
1, 36124, Note_off_c, 0, 52, 97
1, 36155, Note_on_c, 0, 56, 104
1, 36225, Note_off_c, 0, 56, 104
1, 36232, Note_on_c, 0, 58, 94
1, 36273, Note_off_c, 0, 58, 94
1, 36322, Note_on_c, 0, 63, 92
1, 36362, Note_off_c, 0, 63, 92
1, 36417, Note_on_c, 0, 70, 110
1, 36484, Note_off_c, 0, 70, 110
1, 36484, Note_on_c, 0, 68, 110
1, 36529, Note_off_c, 0, 68, 110
1, 36573, Note_on_c, 0, 67, 93
1, 36619, Note_off_c, 0, 67, 93
1, 36666, Note_on_c, 0, 60, 106
1, 36693, Note_off_c, 0, 60, 106
1, 36708, Note_on_c, 0, 63, 118
1, 36749, Note_off_c, 0, 63, 118
1, 36755, Note_on_c, 0, 67, 104
1, 36792, Note_off_c, 0, 67, 104
1, 36795, Note_on_c, 0, 66, 102
1, 36830, Note_off_c, 0, 66, 102
1, 36840, Note_on_c, 0, 64, 112
1, 36888, Note_off_c, 0, 64, 112
1, 36899, Note_on_c, 0, 62, 112
1, 36954, Note_off_c, 0, 62, 112
1, 36969, Note_on_c, 0, 59, 99
1, 37020, Note_off_c, 0, 59, 99
1, 37118, Note_on_c, 0, 62, 110
1, 37176, Note_off_c, 0, 62, 110
1, 37193, Note_on_c, 0, 63, 99
1, 37243, Note_off_c, 0, 63, 99
1, 37243, Note_on_c, 0, 60, 107
1, 37277, Note_off_c, 0, 60, 107
1, 37278, Note_on_c, 0, 62, 111
1, 37307, Note_off_c, 0, 62, 111
1, 37318, Note_on_c, 0, 59, 98
1, 37376, Note_off_c, 0, 59, 98
1, 37385, Note_on_c, 0, 50, 99
1, 37423, Note_off_c, 0, 50, 99
1, 37428, Note_on_c, 0, 48, 100
1, 37464, Note_off_c, 0, 48, 100
1, 37471, Note_on_c, 0, 69, 104
1, 37529, Note_off_c, 0, 69, 104
1, 37538, Note_on_c, 0, 54, 108
1, 37577, Note_off_c, 0, 54, 108
1, 37584, Note_on_c, 0, 55, 104
1, 37629, Note_off_c, 0, 55, 104
1, 37639, Note_on_c, 0, 57, 106
1, 37659, Note_off_c, 0, 57, 106
1, 37671, Note_on_c, 0, 58, 105
1, 37701, Note_off_c, 0, 58, 105
1, 37710, Note_on_c, 0, 60, 105
1, 37734, Note_off_c, 0, 60, 105
1, 37741, Note_on_c, 0, 62, 108
1, 37790, Note_off_c, 0, 62, 108
1, 37796, Note_on_c, 0, 63, 116
1, 37846, Note_off_c, 0, 63, 116
1, 37854, Note_on_c, 0, 60, 100
1, 37881, Note_off_c, 0, 60, 100
1, 37892, Note_on_c, 0, 65, 101
1, 37932, Note_off_c, 0, 65, 101
1, 37938, Note_on_c, 0, 67, 102
1, 37989, Note_off_c, 0, 67, 102
1, 37997, Note_on_c, 0, 68, 97
1, 38070, Note_off_c, 0, 68, 97
1, 38082, Note_on_c, 0, 70, 86
1, 38110, Note_off_c, 0, 70, 86
1, 38127, Note_on_c, 0, 74, 102
1, 38163, Note_off_c, 0, 74, 102
1, 38167, Note_on_c, 0, 73, 102
1, 38190, Note_off_c, 0, 73, 102
1, 38196, Note_on_c, 0, 72, 100
1, 38249, Note_off_c, 0, 72, 100
1, 38485, Note_on_c, 0, 59, 101
1, 38537, Note_off_c, 0, 59, 101
1, 38553, Note_on_c, 0, 66, 108
1, 38616, Note_off_c, 0, 66, 108
1, 38664, Note_on_c, 0, 55, 94
1, 38725, Note_off_c, 0, 55, 94
1, 38746, Note_on_c, 0, 61, 108
1, 38792, Note_off_c, 0, 61, 108
1, 38806, Note_on_c, 0, 58, 104
1, 38847, Note_off_c, 0, 58, 104
1, 38852, Note_on_c, 0, 57, 107
1, 38875, Note_off_c, 0, 57, 107
1, 38880, Note_on_c, 0, 55, 95
1, 38899, Note_off_c, 0, 55, 95
1, 38915, Note_on_c, 0, 51, 94
1, 38940, Note_off_c, 0, 51, 94
1, 38949, Note_on_c, 0, 49, 87
1, 39030, Note_off_c, 0, 49, 87
1, 40826, Note_on_c, 0, 50, 112
1, 40925, Note_off_c, 0, 50, 112
1, 40939, Note_on_c, 0, 54, 106
1, 40986, Note_off_c, 0, 54, 106
1, 40999, Note_on_c, 0, 57, 115
1, 41094, Note_off_c, 0, 57, 115
1, 41104, Note_on_c, 0, 60, 118
1, 41156, Note_off_c, 0, 60, 118
1, 41188, Note_on_c, 0, 58, 116
1, 41258, Note_off_c, 0, 58, 116
1, 41290, Note_on_c, 0, 62, 121
1, 41349, Note_off_c, 0, 62, 121
1, 41370, Note_on_c, 0, 66, 117
1, 41451, Note_off_c, 0, 66, 117
1, 41484, Note_on_c, 0, 69, 119
1, 41548, Note_off_c, 0, 69, 119
1, 41562, Note_on_c, 0, 67, 111
1, 41634, Note_off_c, 0, 67, 111
1, 41639, Note_on_c, 0, 68, 115
1, 41765, Note_off_c, 0, 68, 115
1, 41797, Note_on_c, 0, 66, 102
1, 41852, Note_off_c, 0, 66, 102
1, 41864, Note_on_c, 0, 60, 103
1, 41905, Note_off_c, 0, 60, 103
1, 41938, Note_on_c, 0, 63, 124
1, 42012, Note_off_c, 0, 63, 124
1, 42025, Note_on_c, 0, 58, 114
1, 42085, Note_off_c, 0, 58, 114
1, 42108, Note_on_c, 0, 54, 113
1, 42192, Note_off_c, 0, 54, 113
1, 42286, Note_on_c, 0, 56, 114
1, 42398, Note_off_c, 0, 56, 114
1, 42408, Note_on_c, 0, 58, 113
1, 42455, Note_off_c, 0, 58, 113
1, 42474, Note_on_c, 0, 60, 117
1, 42534, Note_off_c, 0, 60, 117
1, 42551, Note_on_c, 0, 63, 122
1, 42634, Note_off_c, 0, 63, 122
1, 42653, Note_on_c, 0, 58, 117
1, 42704, Note_off_c, 0, 58, 117
1, 42757, Note_on_c, 0, 46, 121
1, 42817, Note_off_c, 0, 46, 121
1, 42824, Note_on_c, 0, 44, 127
1, 42889, Note_off_c, 0, 44, 127
1, 42895, Note_on_c, 0, 45, 116
1, 42938, Note_off_c, 0, 45, 116
1, 42944, Note_on_c, 0, 44, 126
1, 42977, Note_off_c, 0, 44, 126
1, 42988, Note_on_c, 0, 45, 116
1, 43021, Note_off_c, 0, 45, 116
1, 43027, Note_on_c, 0, 44, 124
1, 43065, Note_off_c, 0, 44, 124
1, 43068, Note_on_c, 0, 45, 118
1, 43101, Note_off_c, 0, 45, 118
1, 43105, Note_on_c, 0, 44, 119
1, 43146, Note_off_c, 0, 44, 119
1, 43151, Note_on_c, 0, 45, 126
1, 43193, Note_off_c, 0, 45, 126
1, 43195, Note_on_c, 0, 44, 126
1, 43227, Note_off_c, 0, 44, 126
1, 43236, Note_on_c, 0, 45, 116
1, 43277, Note_off_c, 0, 45, 116
1, 43292, Note_on_c, 0, 44, 121
1, 43330, Note_off_c, 0, 44, 121
1, 43338, Note_on_c, 0, 46, 118
1, 43357, Note_off_c, 0, 46, 118
1, 43365, Note_on_c, 0, 48, 110
1, 43402, Note_off_c, 0, 48, 110
1, 43414, Note_on_c, 0, 56, 113
1, 43456, Note_off_c, 0, 56, 113
1, 43461, Note_on_c, 0, 55, 109
1, 43490, Note_off_c, 0, 55, 109
1, 43495, Note_on_c, 0, 56, 111
1, 43520, Note_off_c, 0, 56, 111
1, 43533, Note_on_c, 0, 55, 107
1, 43605, Note_off_c, 0, 55, 107
1, 43612, Note_on_c, 0, 56, 109
1, 43650, Note_off_c, 0, 56, 109
1, 43655, Note_on_c, 0, 55, 107
1, 43687, Note_off_c, 0, 55, 107
1, 43690, Note_on_c, 0, 56, 106
1, 43737, Note_off_c, 0, 56, 106
1, 43779, Note_on_c, 0, 63, 118
1, 43826, Note_off_c, 0, 63, 118
1, 43841, Note_on_c, 0, 62, 108
1, 43893, Note_off_c, 0, 62, 108
1, 43899, Note_on_c, 0, 63, 102
1, 43929, Note_off_c, 0, 63, 102
1, 43934, Note_on_c, 0, 62, 111
1, 43967, Note_off_c, 0, 62, 111
1, 43969, Note_on_c, 0, 63, 96
1, 43994, Note_off_c, 0, 63, 96
1, 43999, Note_on_c, 0, 62, 109
1, 44032, Note_off_c, 0, 62, 109
1, 44035, Note_on_c, 0, 63, 85
1, 44067, Note_off_c, 0, 63, 85
1, 44101, Note_on_c, 0, 65, 106
1, 44132, Note_off_c, 0, 65, 106
1, 44141, Note_on_c, 0, 69, 111
1, 44174, Note_off_c, 0, 69, 111
1, 44181, Note_on_c, 0, 68, 105
1, 44204, Note_off_c, 0, 68, 105
1, 44216, Note_on_c, 0, 69, 107
1, 44246, Note_off_c, 0, 69, 107
1, 44257, Note_on_c, 0, 68, 105
1, 44297, Note_off_c, 0, 68, 105
1, 44297, Note_on_c, 0, 69, 103
1, 44332, Note_off_c, 0, 69, 103
1, 44343, Note_on_c, 0, 68, 105
1, 44374, Note_off_c, 0, 68, 105
1, 44379, Note_on_c, 0, 67, 106
1, 44409, Note_off_c, 0, 67, 106
1, 44417, Note_on_c, 0, 68, 99
1, 44445, Note_off_c, 0, 68, 99
1, 44457, Note_on_c, 0, 67, 100
1, 44486, Note_off_c, 0, 67, 100
1, 44500, Note_on_c, 0, 63, 109
1, 44535, Note_off_c, 0, 63, 109
1, 44541, Note_on_c, 0, 65, 108
1, 44563, Note_off_c, 0, 65, 108
1, 44573, Note_on_c, 0, 63, 119
1, 44606, Note_off_c, 0, 63, 119
1, 44610, Note_on_c, 0, 65, 106
1, 44640, Note_off_c, 0, 65, 106
1, 44647, Note_on_c, 0, 63, 109
1, 44687, Note_off_c, 0, 63, 109
1, 45269, Note_on_c, 0, 62, 109
1, 45303, Note_off_c, 0, 62, 109
1, 45303, Note_on_c, 0, 59, 107
1, 45341, Note_off_c, 0, 59, 107
1, 45356, Note_on_c, 0, 62, 103
1, 45393, Note_off_c, 0, 62, 103
1, 45403, Note_on_c, 0, 59, 107
1, 45445, Note_off_c, 0, 59, 107
1, 45454, Note_on_c, 0, 68, 103
1, 45611, Note_off_c, 0, 68, 103
1, 45630, Note_on_c, 0, 64, 98
1, 45697, Note_off_c, 0, 64, 98
1, 45787, Note_on_c, 0, 73, 115
1, 45886, Note_off_c, 0, 73, 115
1, 45893, Note_on_c, 0, 71, 113
1, 45927, Note_off_c, 0, 71, 113
1, 45938, Note_on_c, 0, 73, 112
1, 45965, Note_off_c, 0, 73, 112
1, 46026, Note_on_c, 0, 61, 107
1, 46064, Note_off_c, 0, 61, 107
1, 46074, Note_on_c, 0, 62, 96
1, 46107, Note_off_c, 0, 62, 96
1, 46111, Note_on_c, 0, 61, 103
1, 46134, Note_off_c, 0, 61, 103
1, 46144, Note_on_c, 0, 62, 98
1, 46170, Note_off_c, 0, 62, 98
1, 46179, Note_on_c, 0, 61, 96
1, 46218, Note_off_c, 0, 61, 96
1, 46760, Note_on_c, 0, 69, 123
1, 46838, Note_off_c, 0, 69, 123
1, 46856, Note_on_c, 0, 70, 107
1, 46896, Note_off_c, 0, 70, 107
1, 46903, Note_on_c, 0, 72, 117
1, 47016, Note_off_c, 0, 72, 117
1, 47032, Note_on_c, 0, 70, 117
1, 47124, Note_off_c, 0, 70, 117
1, 47161, Note_on_c, 0, 69, 118
1, 47229, Note_off_c, 0, 69, 118
1, 47243, Note_on_c, 0, 67, 110
1, 47298, Note_off_c, 0, 67, 110
1, 47325, Note_on_c, 0, 62, 113
1, 47362, Note_off_c, 0, 62, 113
1, 47374, Note_on_c, 0, 64, 113
1, 47416, Note_off_c, 0, 64, 113
1, 47423, Note_on_c, 0, 65, 118
1, 47469, Note_off_c, 0, 65, 118
1, 47478, Note_on_c, 0, 64, 118
1, 47545, Note_off_c, 0, 64, 118
1, 47550, Note_on_c, 0, 63, 116
1, 47610, Note_off_c, 0, 63, 116
1, 47617, Note_on_c, 0, 57, 107
1, 47653, Note_off_c, 0, 57, 107
1, 47670, Note_on_c, 0, 62, 111
1, 47738, Note_off_c, 0, 62, 111
1, 47753, Note_on_c, 0, 64, 100
1, 47822, Note_off_c, 0, 64, 100
1, 47839, Note_on_c, 0, 69, 105
1, 47899, Note_off_c, 0, 69, 105
1, 47934, Note_on_c, 0, 65, 110
1, 47994, Note_off_c, 0, 65, 110
1, 48006, Note_on_c, 0, 62, 111
1, 48045, Note_off_c, 0, 62, 111
1, 48069, Note_on_c, 0, 58, 108
1, 48135, Note_off_c, 0, 58, 108
1, 48145, Note_on_c, 0, 59, 101
1, 48197, Note_off_c, 0, 59, 101
1, 48213, Note_on_c, 0, 68, 111
1, 48270, Note_off_c, 0, 68, 111
1, 48295, Note_on_c, 0, 66, 110
1, 48347, Note_off_c, 0, 66, 110
1, 48365, Note_on_c, 0, 61, 108
1, 48406, Note_off_c, 0, 61, 108
1, 48418, Note_on_c, 0, 58, 111
1, 48457, Note_off_c, 0, 58, 111
1, 48471, Note_on_c, 0, 62, 118
1, 48489, Note_off_c, 0, 62, 118
1, 48493, Note_on_c, 0, 63, 115
1, 48532, Note_off_c, 0, 63, 115
1, 48548, Note_on_c, 0, 59, 108
1, 48571, Note_off_c, 0, 59, 108
1, 48597, Note_on_c, 0, 55, 108
1, 48634, Note_off_c, 0, 55, 108
1, 48639, Note_on_c, 0, 51, 106
1, 48680, Note_off_c, 0, 51, 106
1, 48697, Note_on_c, 0, 56, 105
1, 48732, Note_off_c, 0, 56, 105
1, 48747, Note_on_c, 0, 58, 107
1, 48810, Note_off_c, 0, 58, 107
1, 48819, Note_on_c, 0, 61, 103
1, 48845, Note_off_c, 0, 61, 103
1, 48847, Note_on_c, 0, 62, 113
1, 48885, Note_off_c, 0, 62, 113
1, 48892, Note_on_c, 0, 65, 108
1, 48931, Note_off_c, 0, 65, 108
1, 48950, Note_on_c, 0, 62, 114
1, 48999, Note_off_c, 0, 62, 114
1, 49005, Note_on_c, 0, 63, 110
1, 49050, Note_off_c, 0, 63, 110
1, 49057, Note_on_c, 0, 65, 95
1, 49078, Note_off_c, 0, 65, 95
1, 49085, Note_on_c, 0, 67, 95
1, 49125, Note_off_c, 0, 67, 95
1, 49136, Note_on_c, 0, 70, 98
1, 49188, Note_off_c, 0, 70, 98
1, 49197, Note_on_c, 0, 74, 113
1, 49236, Note_off_c, 0, 74, 113
1, 49257, Note_on_c, 0, 74, 114
1, 49321, Note_off_c, 0, 74, 114
1, 49346, Note_on_c, 0, 74, 115
1, 49407, Note_off_c, 0, 74, 115
1, 49421, Note_on_c, 0, 72, 98
1, 49441, Note_off_c, 0, 72, 98
1, 49453, Note_on_c, 0, 70, 110
1, 49501, Note_off_c, 0, 70, 110
1, 49521, Note_on_c, 0, 70, 115
1, 49583, Note_off_c, 0, 70, 115
1, 49605, Note_on_c, 0, 67, 99
1, 49626, Note_off_c, 0, 67, 99
1, 49634, Note_on_c, 0, 63, 117
1, 49665, Note_off_c, 0, 63, 117
1, 49670, Note_on_c, 0, 62, 117
1, 49682, Note_off_c, 0, 62, 117
1, 49692, Note_on_c, 0, 60, 105
1, 49745, Note_off_c, 0, 60, 105
1, 49765, Note_on_c, 0, 60, 107
1, 49825, Note_off_c, 0, 60, 107
1, 49845, Note_on_c, 0, 58, 112
1, 49926, Note_off_c, 0, 58, 112
1, 49955, Note_on_c, 0, 58, 95
1, 50021, Note_off_c, 0, 58, 95
1, 50041, Note_on_c, 0, 55, 111
1, 50087, Note_off_c, 0, 55, 111
1, 50104, Note_on_c, 0, 55, 100
1, 50184, Note_off_c, 0, 55, 100
1, 50220, Note_on_c, 0, 54, 92
1, 50316, Note_off_c, 0, 54, 92
1, 50337, Note_on_c, 0, 54, 96
1, 50414, Note_off_c, 0, 54, 96
1, 50427, Note_on_c, 0, 53, 98
1, 50526, Note_off_c, 0, 53, 98
1, 50632, Note_on_c, 0, 52, 90
1, 51115, Note_off_c, 0, 52, 90
1, 51115, End_track
0, 0, End_of_file
