0, 0, Header, 1, 1, 27720
1, 0, Start_track
1, 0, Note_on_c, 0, 50, 99
1, 7434, Note_off_c, 0, 50, 99
1, 8142, Note_on_c, 0, 50, 100
1, 14160, Note_off_c, 0, 50, 100
1, 15241, Note_on_c, 0, 50, 106
1, 19843, Note_off_c, 0, 50, 106
1, 20354, Note_on_c, 0, 52, 109
1, 25310, Note_off_c, 0, 52, 109
1, 25664, Note_on_c, 0, 54, 110
1, 31505, Note_off_c, 0, 54, 110
1, 31792, Note_on_c, 0, 57, 109
1, 37454, Note_off_c, 0, 57, 109
1, 38138, Note_on_c, 0, 57, 106
1, 39195, Note_off_c, 0, 57, 106
1, 39467, Note_on_c, 0, 54, 108
1, 43715, Note_off_c, 0, 54, 108
1, 44423, Note_on_c, 0, 55, 106
1, 50972, Note_off_c, 0, 55, 106
1, 51680, Note_on_c, 0, 57, 114
1, 56990, Note_off_c, 0, 57, 114
1, 57698, Note_on_c, 0, 59, 109
1, 62831, Note_off_c, 0, 59, 109
1, 63362, Note_on_c, 0, 61, 115
1, 70088, Note_off_c, 0, 61, 115
1, 70796, Note_on_c, 0, 62, 115
1, 78761, Note_off_c, 0, 62, 115
1, 79115, Note_on_c, 0, 64, 118
1, 84956, Note_off_c, 0, 64, 118
1, 85133, Note_on_c, 0, 66, 114
1, 90974, Note_off_c, 0, 66, 114
1, 91151, Note_on_c, 0, 69, 114
1, 96461, Note_off_c, 0, 69, 114
1, 96815, Note_on_c, 0, 66, 111
1, 103718, Note_off_c, 0, 66, 111
1, 103895, Note_on_c, 0, 71, 107
1, 109736, Note_off_c, 0, 71, 107
1, 109913, Note_on_c, 0, 69, 110
1, 113630, Note_off_c, 0, 69, 110
1, 114161, Note_on_c, 0, 66, 109
1, 118586, Note_off_c, 0, 66, 109
1, 118940, Note_on_c, 0, 64, 115
1, 123188, Note_off_c, 0, 64, 115
1, 124604, Note_on_c, 0, 66, 106
1, 129383, Note_off_c, 0, 66, 106
1, 129737, Note_on_c, 0, 61, 104
1, 133277, Note_on_c, 0, 59, 100
1, 133277, Note_off_c, 0, 61, 104
1, 137171, Note_off_c, 0, 59, 100
1, 137348, Note_on_c, 0, 64, 110
1, 141596, Note_off_c, 0, 64, 110
1, 141950, Note_on_c, 0, 61, 106
1, 145313, Note_off_c, 0, 61, 106
1, 145578, Note_on_c, 0, 56, 102
1, 146971, Note_off_c, 0, 56, 102
1, 147059, Note_on_c, 0, 57, 103
1, 149050, Note_off_c, 0, 57, 103
1, 149381, Note_on_c, 0, 54, 102
1, 153275, Note_off_c, 0, 54, 102
1, 155368, Note_on_c, 0, 59, 102
1, 163831, Note_off_c, 0, 59, 102
1, 164702, Note_on_c, 0, 55, 102
1, 170366, Note_off_c, 0, 55, 102
1, 170924, Note_on_c, 0, 56, 95
1, 175777, Note_off_c, 0, 56, 95
1, 176523, Note_on_c, 0, 57, 110
1, 185235, Note_off_c, 0, 57, 110
1, 213037, Note_on_c, 0, 55, 111
1, 215212, Note_off_c, 0, 55, 111
1, 215470, Note_on_c, 0, 57, 109
1, 217477, Note_off_c, 0, 57, 109
1, 217876, Note_on_c, 0, 55, 106
1, 221239, Note_off_c, 0, 55, 106
1, 222234, Note_on_c, 0, 54, 107
1, 226305, Note_off_c, 0, 54, 107
1, 226747, Note_on_c, 0, 57, 101
1, 229402, Note_off_c, 0, 57, 101
1, 229556, Note_on_c, 0, 59, 97
1, 230972, Note_on_c, 0, 62, 98
1, 230972, Note_off_c, 0, 59, 97
1, 232919, Note_off_c, 0, 62, 98
1, 233073, Note_on_c, 0, 64, 110
1, 238206, Note_off_c, 0, 64, 110
1, 238670, Note_on_c, 0, 61, 96
1, 240351, Note_off_c, 0, 61, 96
1, 240882, Note_on_c, 0, 62, 110
1, 244776, Note_off_c, 0, 62, 110
1, 244953, Note_on_c, 0, 59, 97
1, 247785, Note_off_c, 0, 59, 97
1, 248139, Note_on_c, 0, 61, 103
1, 252387, Note_off_c, 0, 61, 103
1, 255219, Note_on_c, 0, 57, 88
1, 258759, Note_off_c, 0, 57, 88
1, 259290, Note_on_c, 0, 59, 108
1, 263892, Note_off_c, 0, 59, 108
1, 263892, Note_on_c, 0, 55, 106
1, 266901, Note_off_c, 0, 55, 106
1, 267963, Note_on_c, 0, 57, 107
1, 272565, Note_off_c, 0, 57, 107
1, 278583, Note_on_c, 0, 54, 100
1, 282300, Note_off_c, 0, 54, 100
1, 299049, Note_on_c, 0, 55, 112
1, 302235, Note_off_c, 0, 55, 112
1, 302301, Note_on_c, 0, 54, 109
1, 303606, Note_off_c, 0, 54, 109
1, 303760, Note_on_c, 0, 52, 108
1, 306016, Note_off_c, 0, 52, 108
1, 306347, Note_on_c, 0, 51, 102
1, 308448, Note_off_c, 0, 51, 102
1, 309200, Note_on_c, 0, 50, 102
1, 312740, Note_off_c, 0, 50, 102
1, 313802, Note_on_c, 0, 49, 102
1, 317696, Note_off_c, 0, 49, 102
1, 317873, Note_on_c, 0, 52, 104
1, 323360, Note_off_c, 0, 52, 104
1, 325297, Note_on_c, 0, 50, 93
1, 332200, Note_off_c, 0, 50, 93
1, 335128, Note_on_c, 0, 50, 87
1, 339141, Note_off_c, 0, 50, 87
1, 340727, Note_on_c, 0, 50, 93
1, 344896, Note_off_c, 0, 50, 93
1, 345128, Note_on_c, 0, 52, 98
1, 348137, Note_off_c, 0, 52, 98
1, 348314, Note_on_c, 0, 50, 105
1, 350084, Note_off_c, 0, 50, 105
1, 350438, Note_on_c, 0, 49, 104
1, 353801, Note_off_c, 0, 49, 104
1, 357872, Note_on_c, 0, 50, 106
1, 361943, Note_off_c, 0, 50, 106
1, 362828, Note_on_c, 0, 52, 111
1, 367961, Note_off_c, 0, 52, 111
1, 368669, Note_on_c, 0, 55, 107
1, 374864, Note_off_c, 0, 55, 107
1, 374864, Note_on_c, 0, 50, 103
1, 379643, Note_off_c, 0, 50, 103
1, 379820, Note_on_c, 0, 55, 111
1, 384599, Note_off_c, 0, 55, 111
1, 385130, Note_on_c, 0, 59, 107
1, 390263, Note_off_c, 0, 59, 107
1, 390440, Note_on_c, 0, 62, 116
1, 394865, Note_off_c, 0, 62, 116
1, 395573, Note_on_c, 0, 67, 111
1, 399998, Note_off_c, 0, 67, 111
1, 400706, Note_on_c, 0, 62, 115
1, 404246, Note_on_c, 0, 67, 108
1, 404246, Note_off_c, 0, 62, 115
1, 410087, Note_off_c, 0, 67, 108
1, 410618, Note_on_c, 0, 71, 110
1, 415751, Note_off_c, 0, 71, 110
1, 416459, Note_on_c, 0, 74, 106
1, 421769, Note_off_c, 0, 74, 106
1, 421769, Note_on_c, 0, 67, 105
1, 427610, Note_off_c, 0, 67, 105
1, 427610, Note_on_c, 0, 72, 108
1, 432566, Note_off_c, 0, 72, 108
1, 432759, Note_on_c, 0, 69, 107
1, 437363, Note_off_c, 0, 69, 107
1, 438794, Note_on_c, 0, 69, 96
1, 440287, Note_off_c, 0, 69, 96
1, 440351, Note_on_c, 0, 65, 112
1, 445484, Note_off_c, 0, 65, 112
1, 445838, Note_on_c, 0, 62, 103
1, 450971, Note_off_c, 0, 62, 103
1, 451502, Note_on_c, 0, 57, 98
1, 456635, Note_off_c, 0, 57, 98
1, 459109, Note_on_c, 0, 48, 105
1, 461380, Note_off_c, 0, 48, 105
1, 461660, Note_on_c, 0, 50, 101
1, 466358, Note_off_c, 0, 50, 101
1, 470263, Note_on_c, 0, 53, 105
1, 475750, Note_off_c, 0, 53, 105
1, 478051, Note_on_c, 0, 55, 92
1, 497167, Note_off_c, 0, 55, 92
1, 520531, Note_on_c, 0, 55, 108
1, 523357, Note_off_c, 0, 55, 108
1, 523357, Note_on_c, 0, 59, 109
1, 527930, Note_off_c, 0, 59, 109
1, 528521, Note_on_c, 0, 64, 127
1, 534432, Note_off_c, 0, 64, 127
1, 537232, Note_on_c, 0, 64, 122
1, 543205, Note_off_c, 0, 64, 122
1, 545694, Note_on_c, 0, 64, 121
1, 551543, Note_off_c, 0, 64, 121
1, 553783, Note_on_c, 0, 64, 117
1, 558636, Note_off_c, 0, 64, 117
1, 560627, Note_on_c, 0, 64, 112
1, 565760, Note_off_c, 0, 64, 112
1, 567129, Note_on_c, 0, 64, 114
1, 571391, Note_off_c, 0, 64, 114
1, 572563, Note_on_c, 0, 57, 103
1, 575749, Note_off_c, 0, 57, 103
1, 575749, Note_on_c, 0, 59, 101
1, 581413, Note_off_c, 0, 59, 101
1, 582253, Note_on_c, 0, 62, 110
1, 588226, Note_off_c, 0, 62, 110
1, 589774, Note_on_c, 0, 62, 112
1, 595084, Note_off_c, 0, 62, 112
1, 597783, Note_on_c, 0, 62, 108
1, 604509, Note_off_c, 0, 62, 108
1, 605305, Note_on_c, 0, 64, 100
1, 608314, Note_off_c, 0, 64, 100
1, 609287, Note_on_c, 0, 62, 104
1, 609842, Title_t, "Melody"
1, 609842, Tempo, 909090
1, 609842, Key_signature, -5, "major"
1, 609842, Time_signature, 4, 2, 24, 8
1, 612206, Note_off_c, 0, 62, 104
1, 612828, Note_on_c, 0, 59, 92
1, 629380, Note_off_c, 0, 59, 92
1, 652208, Note_on_c, 0, 57, 111
1, 657518, Note_off_c, 0, 57, 111
1, 657518, Note_on_c, 0, 58, 108
1, 662828, Note_off_c, 0, 58, 108
1, 663536, Note_on_c, 0, 59, 107
1, 669731, Note_off_c, 0, 59, 107
1, 670439, Note_on_c, 0, 60, 110
1, 677165, Note_off_c, 0, 60, 110
1, 679244, Note_on_c, 0, 60, 107
1, 684200, Note_off_c, 0, 60, 107
1, 684509, Note_on_c, 0, 61, 116
1, 689243, Note_off_c, 0, 61, 116
1, 689552, Note_on_c, 0, 62, 112
1, 695747, Note_off_c, 0, 62, 112
1, 697340, Note_on_c, 0, 62, 113
1, 700703, Note_off_c, 0, 62, 113
1, 701411, Note_on_c, 0, 61, 111
1, 704243, Note_off_c, 0, 61, 111
1, 704729, Note_on_c, 0, 60, 105
1, 706808, Note_off_c, 0, 60, 105
1, 707383, Note_on_c, 0, 59, 112
1, 713135, Note_off_c, 0, 59, 112
1, 713798, Note_on_c, 0, 55, 107
1, 718577, Note_off_c, 0, 55, 107
1, 719639, Note_on_c, 0, 50, 93
1, 731498, Note_off_c, 0, 50, 93
1, 733622, Note_on_c, 0, 47, 110
1, 736985, Note_off_c, 0, 47, 110
1, 739286, Note_on_c, 0, 50, 105
1, 743711, Note_off_c, 0, 50, 105
1, 745304, Note_on_c, 0, 55, 100
1, 750083, Note_off_c, 0, 55, 100
1, 750968, Note_on_c, 0, 59, 95
1, 759287, Note_off_c, 0, 59, 95
1, 773978, Note_on_c, 0, 50, 104
1, 778226, Note_off_c, 0, 50, 104
1, 779819, Note_on_c, 0, 55, 109
1, 784421, Note_off_c, 0, 55, 109
1, 784775, Note_on_c, 0, 59, 108
1, 789023, Note_off_c, 0, 59, 108
1, 789200, Note_on_c, 0, 61, 109
1, 793094, Note_off_c, 0, 61, 109
1, 793094, Note_on_c, 0, 67, 110
1, 797165, Note_off_c, 0, 67, 110
1, 797696, Note_on_c, 0, 71, 111
1, 803183, Note_off_c, 0, 71, 111
1, 804422, Note_on_c, 0, 72, 122
1, 806546, Note_off_c, 0, 72, 122
1, 807431, Note_on_c, 0, 73, 114
1, 810971, Note_off_c, 0, 73, 114
1, 811325, Note_on_c, 0, 72, 120
1, 815396, Note_off_c, 0, 72, 120
1, 815750, Note_on_c, 0, 71, 112
1, 819644, Note_off_c, 0, 71, 112
1, 819998, Note_on_c, 0, 70, 108
1, 824777, Note_off_c, 0, 70, 108
1, 825794, Note_on_c, 0, 66, 110
1, 827608, Note_off_c, 0, 66, 110
1, 828404, Note_on_c, 0, 67, 99
1, 830970, Note_on_c, 0, 64, 107
1, 830970, Note_off_c, 0, 67, 99
1, 835572, Note_off_c, 0, 64, 107
1, 836103, Note_on_c, 0, 66, 106
1, 840528, Note_off_c, 0, 66, 106
1, 841236, Note_on_c, 0, 64, 108
1, 844599, Note_off_c, 0, 64, 108
1, 845661, Note_on_c, 0, 63, 109
1, 848670, Note_off_c, 0, 63, 109
1, 848847, Note_on_c, 0, 62, 108
1, 851679, Note_off_c, 0, 62, 108
1, 852918, Note_on_c, 0, 65, 114
1, 857697, Note_off_c, 0, 65, 114
1, 857874, Note_on_c, 0, 62, 107
1, 860706, Note_off_c, 0, 62, 107
1, 861591, Note_on_c, 0, 61, 102
1, 865131, Note_off_c, 0, 61, 102
1, 865485, Note_on_c, 0, 60, 103
1, 868848, Note_off_c, 0, 60, 103
1, 869379, Note_on_c, 0, 58, 100
1, 873804, Note_off_c, 0, 58, 100
1, 875928, Note_on_c, 0, 53, 96
1, 881061, Note_off_c, 0, 53, 96
1, 881415, Note_on_c, 0, 46, 98
1, 890973, Note_off_c, 0, 46, 98
1, 892035, Note_on_c, 0, 51, 86
1, 907965, Note_off_c, 0, 51, 86
1, 908850, Note_on_c, 0, 51, 74
1, 923541, Note_off_c, 0, 51, 74
1, 923541, End_track
0, 0, End_of_file
