0, 0, Header, 1, 1, 192
1, 0, Start_track
1, 0, Title_t, "Melody"
1, 0, Tempo, 231660
1, 0, Key_signature, 6, "major"
1, 0, Time_signature, 4, 2, 24, 8
1, 2687, Note_on_c, 0, 81, 98
1, 2744, Note_off_c, 0, 81, 98
1, 2762, Note_on_c, 0, 78, 92
1, 2812, Note_off_c, 0, 78, 92
1, 2822, Note_on_c, 0, 81, 110
1, 2884, Note_off_c, 0, 81, 110
1, 2893, Note_on_c, 0, 78, 114
1, 2944, Note_off_c, 0, 78, 114
1, 2951, Note_on_c, 0, 82, 115
1, 2989, Note_off_c, 0, 82, 115
1, 2996, Note_on_c, 0, 84, 100
1, 3004, Note_off_c, 0, 84, 100
1, 3010, Note_on_c, 0, 85, 124
1, 3068, Note_off_c, 0, 85, 124
1, 3078, Note_on_c, 0, 87, 102
1, 3093, Note_off_c, 0, 87, 102
1, 3097, Note_on_c, 0, 89, 111
1, 3136, Note_off_c, 0, 89, 111
1, 3155, Note_on_c, 0, 86, 111
1, 3251, Note_off_c, 0, 86, 111
1, 3385, Note_on_c, 0, 90, 115
1, 5718, Note_off_c, 0, 90, 115
1, 5812, Note_on_c, 0, 82, 103
1, 5862, Note_off_c, 0, 82, 103
1, 5870, Note_on_c, 0, 83, 98
1, 5939, Note_off_c, 0, 83, 98
1, 5962, Note_on_c, 0, 84, 114
1, 6022, Note_off_c, 0, 84, 114
1, 6045, Note_on_c, 0, 79, 109
1, 6087, Note_off_c, 0, 79, 109
1, 6095, Note_on_c, 0, 85, 117
1, 6181, Note_off_c, 0, 85, 117
1, 6194, Note_on_c, 0, 84, 111
1, 6224, Note_off_c, 0, 84, 111
1, 6232, Note_on_c, 0, 83, 108
1, 6265, Note_off_c, 0, 83, 108
1, 6284, Note_on_c, 0, 80, 100
1, 6327, Note_off_c, 0, 80, 100
1, 6377, Note_on_c, 0, 80, 108
1, 6417, Note_off_c, 0, 80, 108
1, 6425, Note_on_c, 0, 81, 108
1, 6471, Note_off_c, 0, 81, 108
1, 6478, Note_on_c, 0, 80, 113
1, 6539, Note_off_c, 0, 80, 113
1, 6565, Note_on_c, 0, 77, 114
1, 6598, Note_off_c, 0, 77, 114
1, 6606, Note_on_c, 0, 74, 110
1, 6632, Note_off_c, 0, 74, 110
1, 6659, Note_on_c, 0, 76, 110
1, 6686, Note_off_c, 0, 76, 110
1, 6705, Note_on_c, 0, 68, 117
1, 6742, Note_off_c, 0, 68, 117
1, 6781, Note_on_c, 0, 74, 114
1, 6813, Note_off_c, 0, 74, 114
1, 6823, Note_on_c, 0, 73, 113
1, 6855, Note_off_c, 0, 73, 113
1, 6874, Note_on_c, 0, 77, 108
1, 6904, Note_off_c, 0, 77, 108
1, 6916, Note_on_c, 0, 70, 107
1, 6966, Note_off_c, 0, 70, 107
1, 6986, Note_on_c, 0, 67, 119
1, 7049, Note_off_c, 0, 67, 119
1, 7056, Note_on_c, 0, 69, 118
1, 7124, Note_off_c, 0, 69, 118
1, 7152, Note_on_c, 0, 61, 112
1, 7206, Note_off_c, 0, 61, 112
1, 7216, Note_on_c, 0, 60, 110
1, 7273, Note_off_c, 0, 60, 110
1, 7303, Note_on_c, 0, 59, 110
1, 8226, Note_off_c, 0, 59, 110
1, 8270, Note_on_c, 0, 70, 119
1, 8346, Note_off_c, 0, 70, 119
1, 8367, Note_on_c, 0, 64, 115
1, 8458, Note_off_c, 0, 64, 115
1, 8478, Note_on_c, 0, 66, 121
1, 8549, Note_off_c, 0, 66, 121
1, 8562, Note_on_c, 0, 67, 116
1, 8631, Note_off_c, 0, 67, 116
1, 8647, Note_on_c, 0, 69, 119
1, 8711, Note_off_c, 0, 69, 119
1, 8721, Note_on_c, 0, 66, 118
1, 8795, Note_off_c, 0, 66, 118
1, 8820, Note_on_c, 0, 66, 119
1, 8897, Note_off_c, 0, 66, 119
1, 8924, Note_on_c, 0, 62, 106
1, 9005, Note_off_c, 0, 62, 106
1, 9026, Note_on_c, 0, 66, 119
1, 9080, Note_off_c, 0, 66, 119
1, 9113, Note_on_c, 0, 64, 111
1, 9207, Note_off_c, 0, 64, 111
1, 9215, Note_on_c, 0, 66, 106
1, 9274, Note_off_c, 0, 66, 106
1, 9297, Note_on_c, 0, 69, 105
1, 9393, Note_off_c, 0, 69, 105
1, 9414, Note_on_c, 0, 71, 100
1, 9471, Note_off_c, 0, 71, 100
1, 9489, Note_on_c, 0, 73, 110
1, 9656, Note_off_c, 0, 73, 110
1, 9672, Note_on_c, 0, 70, 112
1, 9849, Note_off_c, 0, 70, 112
1, 15420, Note_on_c, 0, 70, 111
1, 15480, Note_off_c, 0, 70, 111
1, 15518, Note_on_c, 0, 69, 96
1, 15614, Note_off_c, 0, 69, 96
1, 15629, Note_on_c, 0, 77, 124
1, 15708, Note_off_c, 0, 77, 124
1, 15719, Note_on_c, 0, 76, 122
1, 15769, Note_off_c, 0, 76, 122
1, 15796, Note_on_c, 0, 75, 114
1, 15872, Note_off_c, 0, 75, 114
1, 15892, Note_on_c, 0, 77, 115
1, 15969, Note_off_c, 0, 77, 115
1, 15990, Note_on_c, 0, 77, 127
1, 16067, Note_off_c, 0, 77, 127
1, 16080, Note_on_c, 0, 79, 120
1, 16169, Note_off_c, 0, 79, 120
1, 16172, Note_on_c, 0, 81, 112
1, 16199, Note_off_c, 0, 81, 112
1, 16237, Note_on_c, 0, 70, 102
1, 16297, Note_off_c, 0, 70, 102
1, 16317, Note_on_c, 0, 77, 124
1, 16406, Note_off_c, 0, 77, 124
1, 16422, Note_on_c, 0, 79, 121
1, 16460, Note_off_c, 0, 79, 121
1, 16476, Note_on_c, 0, 81, 121
1, 16543, Note_off_c, 0, 81, 121
1, 16559, Note_on_c, 0, 78, 118
1, 16628, Note_off_c, 0, 78, 118
1, 16644, Note_on_c, 0, 77, 113
1, 16716, Note_off_c, 0, 77, 113
1, 16737, Note_on_c, 0, 75, 112
1, 16802, Note_off_c, 0, 75, 112
1, 16830, Note_on_c, 0, 74, 113
1, 16958, Note_off_c, 0, 74, 113
1, 17022, Note_on_c, 0, 68, 119
1, 17096, Note_off_c, 0, 68, 119
1, 17111, Note_on_c, 0, 66, 115
1, 17198, Note_off_c, 0, 66, 115
1, 17206, Note_on_c, 0, 62, 103
1, 17263, Note_off_c, 0, 62, 103
1, 17273, Note_on_c, 0, 69, 114
1, 17327, Note_off_c, 0, 69, 114
1, 17359, Note_on_c, 0, 74, 107
1, 17421, Note_off_c, 0, 74, 107
1, 17434, Note_on_c, 0, 73, 111
1, 17501, Note_off_c, 0, 73, 111
1, 17526, Note_on_c, 0, 70, 117
1, 17578, Note_off_c, 0, 70, 117
1, 17596, Note_on_c, 0, 67, 115
1, 17670, Note_off_c, 0, 67, 115
1, 17671, Note_on_c, 0, 69, 115
1, 17720, Note_off_c, 0, 69, 115
1, 17747, Note_on_c, 0, 66, 112
1, 17801, Note_off_c, 0, 66, 112
1, 17821, Note_on_c, 0, 61, 111
1, 17881, Note_off_c, 0, 61, 111
1, 17901, Note_on_c, 0, 66, 118
1, 17966, Note_off_c, 0, 66, 118
1, 17994, Note_on_c, 0, 63, 112
1, 18043, Note_off_c, 0, 63, 112
1, 18063, Note_on_c, 0, 66, 102
1, 18095, Note_off_c, 0, 66, 102
1, 18115, Note_on_c, 0, 68, 119
1, 18201, Note_off_c, 0, 68, 119
1, 18209, Note_on_c, 0, 69, 114
1, 18263, Note_off_c, 0, 69, 114
1, 18296, Note_on_c, 0, 75, 115
1, 18370, Note_off_c, 0, 75, 115
1, 18386, Note_on_c, 0, 73, 110
1, 18479, Note_off_c, 0, 73, 110
1, 18480, Note_on_c, 0, 69, 116
1, 18547, Note_off_c, 0, 69, 116
1, 18547, Note_on_c, 0, 66, 114
1, 18609, Note_off_c, 0, 66, 114
1, 18622, Note_on_c, 0, 70, 113
1, 18706, Note_off_c, 0, 70, 113
1, 18714, Note_on_c, 0, 72, 103
1, 18766, Note_off_c, 0, 72, 103
1, 18772, Note_on_c, 0, 74, 107
1, 18814, Note_off_c, 0, 74, 107
1, 18834, Note_on_c, 0, 79, 119
1, 18920, Note_off_c, 0, 79, 119
1, 18945, Note_on_c, 0, 72, 102
1, 19017, Note_off_c, 0, 72, 102
1, 19035, Note_on_c, 0, 77, 123
1, 19102, Note_off_c, 0, 77, 123
1, 19118, Note_on_c, 0, 79, 123
1, 19226, Note_off_c, 0, 79, 123
1, 19246, Note_on_c, 0, 82, 116
1, 19349, Note_off_c, 0, 82, 116
1, 19392, Note_on_c, 0, 84, 114
1, 19490, Note_off_c, 0, 84, 114
1, 19503, Note_on_c, 0, 85, 102
1, 19568, Note_off_c, 0, 85, 102
1, 19659, Note_on_c, 0, 82, 116
1, 19762, Note_off_c, 0, 82, 116
1, 19785, Note_on_c, 0, 84, 107
1, 20821, Note_off_c, 0, 84, 107
1, 20848, Note_on_c, 0, 85, 110
1, 20910, Note_off_c, 0, 85, 110
1, 20931, Note_on_c, 0, 84, 112
1, 20974, Note_off_c, 0, 84, 112
1, 20990, Note_on_c, 0, 83, 118
1, 21047, Note_off_c, 0, 83, 118
1, 21067, Note_on_c, 0, 82, 112
1, 21510, Note_off_c, 0, 82, 112
1, 21533, Note_on_c, 0, 70, 112
1, 21568, Note_off_c, 0, 70, 112
1, 21657, Note_on_c, 0, 82, 115
1, 21778, Note_off_c, 0, 82, 115
1, 21847, Note_on_c, 0, 82, 117
1, 21973, Note_off_c, 0, 82, 117
1, 22055, Note_on_c, 0, 82, 119
1, 22156, Note_off_c, 0, 82, 119
1, 22245, Note_on_c, 0, 82, 118
1, 22358, Note_off_c, 0, 82, 118
1, 22378, Note_on_c, 0, 81, 119
1, 22452, Note_off_c, 0, 81, 119
1, 22462, Note_on_c, 0, 82, 114
1, 22553, Note_off_c, 0, 82, 114
1, 22576, Note_on_c, 0, 81, 118
1, 22653, Note_off_c, 0, 81, 118
1, 22666, Note_on_c, 0, 82, 107
1, 22777, Note_off_c, 0, 82, 107
1, 22783, Note_on_c, 0, 84, 116
1, 22832, Note_off_c, 0, 84, 116
1, 22867, Note_on_c, 0, 81, 112
1, 23212, Note_off_c, 0, 81, 112
1, 23257, Note_on_c, 0, 85, 108
1, 23304, Note_off_c, 0, 85, 108
1, 23339, Note_on_c, 0, 81, 105
1, 23388, Note_off_c, 0, 81, 105
1, 23391, Note_on_c, 0, 78, 107
1, 23443, Note_off_c, 0, 78, 107
1, 23454, Note_on_c, 0, 79, 116
1, 23574, Note_off_c, 0, 79, 116
1, 23590, Note_on_c, 0, 81, 119
1, 23652, Note_off_c, 0, 81, 119
1, 23663, Note_on_c, 0, 78, 116
1, 23723, Note_off_c, 0, 78, 116
1, 23772, Note_on_c, 0, 73, 113
1, 23841, Note_off_c, 0, 73, 113
1, 23857, Note_on_c, 0, 71, 111
1, 23946, Note_off_c, 0, 71, 111
1, 23973, Note_on_c, 0, 69, 99
1, 24027, Note_off_c, 0, 69, 99
1, 24064, Note_on_c, 0, 76, 117
1, 24173, Note_off_c, 0, 76, 117
1, 24279, Note_on_c, 0, 80, 119
1, 24378, Note_off_c, 0, 80, 119
1, 24389, Note_on_c, 0, 78, 115
1, 24610, Note_off_c, 0, 78, 115
1, 24635, Note_on_c, 0, 76, 115
1, 24709, Note_off_c, 0, 76, 115
1, 24710, Note_on_c, 0, 77, 122
1, 24806, Note_off_c, 0, 77, 122
1, 24821, Note_on_c, 0, 74, 109
1, 24893, Note_off_c, 0, 74, 109
1, 24965, Note_on_c, 0, 69, 109
1, 25020, Note_off_c, 0, 69, 109
1, 25043, Note_on_c, 0, 67, 112
1, 25159, Note_off_c, 0, 67, 112
1, 25186, Note_on_c, 0, 75, 109
1, 25231, Note_off_c, 0, 75, 109
1, 25252, Note_on_c, 0, 72, 105
1, 25326, Note_off_c, 0, 72, 105
1, 25339, Note_on_c, 0, 74, 107
1, 25410, Note_off_c, 0, 74, 107
1, 25462, Note_on_c, 0, 70, 115
1, 25527, Note_off_c, 0, 70, 115
1, 25554, Note_on_c, 0, 66, 114
1, 25609, Note_off_c, 0, 66, 114
1, 25624, Note_on_c, 0, 62, 102
1, 25649, Note_off_c, 0, 62, 102
1, 25681, Note_on_c, 0, 69, 115
1, 25738, Note_off_c, 0, 69, 115
1, 25753, Note_on_c, 0, 74, 104
1, 25796, Note_off_c, 0, 74, 104
1, 25812, Note_on_c, 0, 72, 106
1, 25852, Note_off_c, 0, 72, 106
1, 25879, Note_on_c, 0, 70, 110
1, 25928, Note_off_c, 0, 70, 110
1, 25939, Note_on_c, 0, 69, 114
1, 25982, Note_off_c, 0, 69, 114
1, 25993, Note_on_c, 0, 66, 111
1, 26029, Note_off_c, 0, 66, 111
1, 26033, Note_on_c, 0, 60, 108
1, 26071, Note_off_c, 0, 60, 108
1, 26089, Note_on_c, 0, 66, 119
1, 26140, Note_off_c, 0, 66, 119
1, 26156, Note_on_c, 0, 60, 105
1, 26210, Note_off_c, 0, 60, 105
1, 26220, Note_on_c, 0, 58, 111
1, 26282, Note_off_c, 0, 58, 111
1, 26294, Note_on_c, 0, 59, 104
1, 26336, Note_off_c, 0, 59, 104
1, 26367, Note_on_c, 0, 71, 115
1, 26398, Note_off_c, 0, 71, 115
1, 26408, Note_on_c, 0, 72, 107
1, 26436, Note_off_c, 0, 72, 107
1, 26462, Note_on_c, 0, 77, 119
1, 26518, Note_off_c, 0, 77, 119
1, 26530, Note_on_c, 0, 78, 118
1, 26579, Note_off_c, 0, 78, 118
1, 26586, Note_on_c, 0, 81, 118
1, 26636, Note_off_c, 0, 81, 118
1, 26642, Note_on_c, 0, 70, 102
1, 26675, Note_off_c, 0, 70, 102
1, 26682, Note_on_c, 0, 75, 103
1, 26710, Note_off_c, 0, 75, 103
1, 26717, Note_on_c, 0, 72, 103
1, 26759, Note_off_c, 0, 72, 103
1, 26768, Note_on_c, 0, 68, 110
1, 26781, Note_off_c, 0, 68, 110
1, 26785, Note_on_c, 0, 69, 116
1, 26819, Note_off_c, 0, 69, 116
1, 26823, Note_on_c, 0, 65, 116
1, 26872, Note_off_c, 0, 65, 116
1, 26892, Note_on_c, 0, 71, 111
1, 26955, Note_off_c, 0, 71, 111
1, 26958, Note_on_c, 0, 72, 104
1, 26991, Note_off_c, 0, 72, 104
1, 26998, Note_on_c, 0, 75, 109
1, 27037, Note_off_c, 0, 75, 109
1, 27052, Note_on_c, 0, 78, 117
1, 27080, Note_off_c, 0, 78, 117
1, 27086, Note_on_c, 0, 79, 113
1, 27114, Note_off_c, 0, 79, 113
1, 27117, Note_on_c, 0, 78, 106
1, 27136, Note_off_c, 0, 78, 106
1, 27144, Note_on_c, 0, 77, 117
1, 27186, Note_off_c, 0, 77, 117
1, 27199, Note_on_c, 0, 79, 119
1, 27226, Note_off_c, 0, 79, 119
1, 27248, Note_on_c, 0, 84, 109
1, 27284, Note_off_c, 0, 84, 109
1, 27294, Note_on_c, 0, 85, 110
1, 27333, Note_off_c, 0, 85, 110
1, 27348, Note_on_c, 0, 86, 107
1, 27397, Note_off_c, 0, 86, 107
1, 27419, Note_on_c, 0, 73, 111
1, 27469, Note_off_c, 0, 73, 111
1, 33232, Note_on_c, 0, 72, 112
1, 33265, Note_off_c, 0, 72, 112
1, 33275, Note_on_c, 0, 74, 116
1, 33294, Note_off_c, 0, 74, 116
1, 33301, Note_on_c, 0, 75, 120
1, 33348, Note_off_c, 0, 75, 120
1, 33353, Note_on_c, 0, 76, 122
1, 33411, Note_off_c, 0, 76, 122
1, 33420, Note_on_c, 0, 75, 114
1, 33452, Note_off_c, 0, 75, 114
1, 33456, Note_on_c, 0, 74, 113
1, 33477, Note_off_c, 0, 74, 113
1, 33489, Note_on_c, 0, 72, 109
1, 33525, Note_off_c, 0, 72, 109
1, 33534, Note_on_c, 0, 70, 116
1, 33572, Note_off_c, 0, 70, 116
1, 33585, Note_on_c, 0, 73, 111
1, 33622, Note_off_c, 0, 73, 111
1, 33632, Note_on_c, 0, 75, 114
1, 33685, Note_off_c, 0, 75, 114
1, 33690, Note_on_c, 0, 76, 119
1, 33769, Note_off_c, 0, 76, 119
1, 33783, Note_on_c, 0, 74, 113
1, 33822, Note_off_c, 0, 74, 113
1, 33824, Note_on_c, 0, 71, 106
1, 33890, Note_off_c, 0, 71, 106
1, 33900, Note_on_c, 0, 70, 111
1, 33939, Note_off_c, 0, 70, 111
1, 33955, Note_on_c, 0, 73, 117
1, 34026, Note_off_c, 0, 73, 117
1, 34038, Note_on_c, 0, 76, 121
1, 34089, Note_off_c, 0, 76, 121
1, 34096, Note_on_c, 0, 75, 120
1, 34156, Note_off_c, 0, 75, 120
1, 34169, Note_on_c, 0, 74, 113
1, 34209, Note_off_c, 0, 74, 113
1, 34223, Note_on_c, 0, 73, 109
1, 34256, Note_off_c, 0, 73, 109
1, 34274, Note_on_c, 0, 70, 120
1, 34339, Note_off_c, 0, 70, 120
1, 34349, Note_on_c, 0, 61, 112
1, 34409, Note_off_c, 0, 61, 112
1, 34414, Note_on_c, 0, 62, 109
1, 34467, Note_off_c, 0, 62, 109
1, 34470, Note_on_c, 0, 63, 111
1, 34508, Note_off_c, 0, 63, 111
1, 34515, Note_on_c, 0, 64, 113
1, 34550, Note_off_c, 0, 64, 113
1, 34568, Note_on_c, 0, 62, 110
1, 34634, Note_off_c, 0, 62, 110
1, 34639, Note_on_c, 0, 70, 121
1, 34677, Note_off_c, 0, 70, 121
1, 34690, Note_on_c, 0, 60, 109
1, 34738, Note_off_c, 0, 60, 109
1, 34743, Note_on_c, 0, 61, 110
1, 34824, Note_off_c, 0, 61, 110
1, 34845, Note_on_c, 0, 64, 119
1, 34907, Note_off_c, 0, 64, 119
1, 34916, Note_on_c, 0, 63, 110
1, 34947, Note_off_c, 0, 63, 110
1, 34984, Note_on_c, 0, 61, 111
1, 35044, Note_off_c, 0, 61, 111
1, 35049, Note_on_c, 0, 60, 111
1, 35098, Note_off_c, 0, 60, 111
1, 35108, Note_on_c, 0, 65, 115
1, 35136, Note_off_c, 0, 65, 115
1, 35145, Note_on_c, 0, 70, 111
1, 35174, Note_off_c, 0, 70, 111
1, 35189, Note_on_c, 0, 73, 109
1, 35219, Note_off_c, 0, 73, 109
1, 35232, Note_on_c, 0, 75, 115
1, 35282, Note_off_c, 0, 75, 115
1, 35289, Note_on_c, 0, 76, 117
1, 35368, Note_off_c, 0, 76, 117
1, 35379, Note_on_c, 0, 74, 113
1, 35406, Note_off_c, 0, 74, 113
1, 35416, Note_on_c, 0, 72, 104
1, 35448, Note_off_c, 0, 72, 104
1, 35450, Note_on_c, 0, 73, 108
1, 35474, Note_off_c, 0, 73, 108
1, 35486, Note_on_c, 0, 69, 113
1, 35540, Note_off_c, 0, 69, 113
1, 35553, Note_on_c, 0, 67, 117
1, 35595, Note_off_c, 0, 67, 117
1, 35647, Note_on_c, 0, 72, 101
1, 35723, Note_off_c, 0, 72, 101
1, 35730, Note_on_c, 0, 74, 106
1, 35750, Note_off_c, 0, 74, 106
1, 35755, Note_on_c, 0, 73, 112
1, 35793, Note_off_c, 0, 73, 112
1, 35800, Note_on_c, 0, 69, 117
1, 35857, Note_off_c, 0, 69, 117
1, 35865, Note_on_c, 0, 70, 115
1, 35918, Note_off_c, 0, 70, 115
1, 35927, Note_on_c, 0, 72, 102
1, 36003, Note_off_c, 0, 72, 102
1, 36009, Note_on_c, 0, 73, 111
1, 36038, Note_off_c, 0, 73, 111
1, 36043, Note_on_c, 0, 74, 114
1, 36164, Note_off_c, 0, 74, 114
1, 36196, Note_on_c, 0, 69, 118
1, 36241, Note_off_c, 0, 69, 118
1, 36244, Note_on_c, 0, 70, 116
1, 36295, Note_off_c, 0, 70, 116
1, 36305, Note_on_c, 0, 73, 113
1, 36348, Note_off_c, 0, 73, 113
1, 36349, Note_on_c, 0, 74, 113
1, 36381, Note_off_c, 0, 74, 113
1, 36391, Note_on_c, 0, 77, 122
1, 36457, Note_off_c, 0, 77, 122
1, 36471, Note_on_c, 0, 75, 118
1, 36517, Note_off_c, 0, 75, 118
1, 36522, Note_on_c, 0, 76, 122
1, 36551, Note_off_c, 0, 76, 122
1, 36572, Note_on_c, 0, 74, 112
1, 36615, Note_off_c, 0, 74, 112
1, 36620, Note_on_c, 0, 72, 103
1, 36654, Note_off_c, 0, 72, 103
1, 36665, Note_on_c, 0, 70, 106
1, 36718, Note_off_c, 0, 70, 106
1, 36730, Note_on_c, 0, 68, 112
1, 36759, Note_off_c, 0, 68, 112
1, 36779, Note_on_c, 0, 72, 103
1, 36839, Note_off_c, 0, 72, 103
1, 36847, Note_on_c, 0, 73, 112
1, 36896, Note_off_c, 0, 73, 112
1, 36899, Note_on_c, 0, 75, 118
1, 36934, Note_off_c, 0, 75, 118
1, 36948, Note_on_c, 0, 74, 112
1, 36973, Note_off_c, 0, 74, 112
1, 37003, Note_on_c, 0, 76, 114
1, 37065, Note_off_c, 0, 76, 114
1, 37072, Note_on_c, 0, 70, 99
1, 37101, Note_off_c, 0, 70, 99
1, 37108, Note_on_c, 0, 68, 112
1, 37141, Note_off_c, 0, 68, 112
1, 37144, Note_on_c, 0, 69, 113
1, 37190, Note_off_c, 0, 69, 113
1, 37195, Note_on_c, 0, 70, 116
1, 37248, Note_off_c, 0, 70, 116
1, 37258, Note_on_c, 0, 71, 116
1, 37296, Note_off_c, 0, 71, 116
1, 37306, Note_on_c, 0, 72, 101
1, 37359, Note_off_c, 0, 72, 101
1, 37368, Note_on_c, 0, 73, 112
1, 37428, Note_off_c, 0, 73, 112
1, 37433, Note_on_c, 0, 72, 102
1, 37476, Note_off_c, 0, 72, 102
1, 37495, Note_on_c, 0, 70, 104
1, 37615, Note_off_c, 0, 70, 104
1, 37635, Note_on_c, 0, 67, 115
1, 37689, Note_off_c, 0, 67, 115
1, 37699, Note_on_c, 0, 68, 121
1, 37748, Note_off_c, 0, 68, 121
1, 37762, Note_on_c, 0, 69, 112
1, 37815, Note_off_c, 0, 69, 112
1, 37822, Note_on_c, 0, 70, 113
1, 37865, Note_off_c, 0, 70, 113
1, 37870, Note_on_c, 0, 71, 114
1, 37923, Note_off_c, 0, 71, 114
1, 37939, Note_on_c, 0, 68, 112
1, 38004, Note_off_c, 0, 68, 112
1, 38016, Note_on_c, 0, 66, 114
1, 38121, Note_off_c, 0, 66, 114
1, 38141, Note_on_c, 0, 65, 117
1, 38215, Note_off_c, 0, 65, 117
1, 38219, Note_on_c, 0, 66, 117
1, 38272, Note_off_c, 0, 66, 117
1, 38277, Note_on_c, 0, 67, 117
1, 38358, Note_off_c, 0, 67, 117
1, 38369, Note_on_c, 0, 66, 119
1, 38412, Note_off_c, 0, 66, 119
1, 38421, Note_on_c, 0, 64, 110
1, 38476, Note_off_c, 0, 64, 110
1, 38489, Note_on_c, 0, 65, 121
1, 38518, Note_off_c, 0, 65, 121
1, 38533, Note_on_c, 0, 62, 107
1, 38608, Note_off_c, 0, 62, 107
1, 38629, Note_on_c, 0, 60, 108
1, 38660, Note_off_c, 0, 60, 108
1, 38674, Note_on_c, 0, 61, 107
1, 39155, Note_off_c, 0, 61, 107
1, 39191, Note_on_c, 0, 62, 110
1, 39249, Note_off_c, 0, 62, 110
1, 39285, Note_on_c, 0, 66, 117
1, 39360, Note_off_c, 0, 66, 117
1, 39378, Note_on_c, 0, 64, 110
1, 39429, Note_off_c, 0, 64, 110
1, 39445, Note_on_c, 0, 63, 108
1, 39524, Note_off_c, 0, 63, 108
1, 39543, Note_on_c, 0, 65, 115
1, 39616, Note_off_c, 0, 65, 115
1, 39625, Note_on_c, 0, 64, 109
1, 39730, Note_off_c, 0, 64, 109
1, 39743, Note_on_c, 0, 62, 101
1, 39813, Note_off_c, 0, 62, 101
1, 39819, Note_on_c, 0, 63, 107
1, 39908, Note_off_c, 0, 63, 107
1, 39915, Note_on_c, 0, 62, 105
1, 40004, Note_off_c, 0, 62, 105
1, 40022, Note_on_c, 0, 61, 105
1, 40108, Note_off_c, 0, 61, 105
1, 40129, Note_on_c, 0, 65, 118
1, 40189, Note_off_c, 0, 65, 118
1, 40207, Note_on_c, 0, 62, 103
1, 40298, Note_off_c, 0, 62, 103
1, 40325, Note_on_c, 0, 65, 102
1, 40373, Note_off_c, 0, 65, 102
1, 40389, Note_on_c, 0, 69, 109
1, 40479, Note_off_c, 0, 69, 109
1, 40510, Note_on_c, 0, 73, 111
1, 40564, Note_off_c, 0, 73, 111
1, 40570, Note_on_c, 0, 76, 112
1, 40669, Note_off_c, 0, 76, 112
1, 40687, Note_on_c, 0, 70, 108
1, 40817, Note_off_c, 0, 70, 108
1, 44099, Note_on_c, 0, 57, 113
1, 44171, Note_off_c, 0, 57, 113
1, 44184, Note_on_c, 0, 63, 116
1, 44257, Note_off_c, 0, 63, 116
1, 44261, Note_on_c, 0, 65, 123
1, 44347, Note_off_c, 0, 65, 123
1, 44380, Note_on_c, 0, 70, 113
1, 44435, Note_off_c, 0, 70, 113
1, 44487, Note_on_c, 0, 75, 116
1, 44535, Note_off_c, 0, 75, 116
1, 44577, Note_on_c, 0, 77, 120
1, 44651, Note_off_c, 0, 77, 120
1, 44677, Note_on_c, 0, 79, 119
1, 44755, Note_off_c, 0, 79, 119
1, 44777, Note_on_c, 0, 82, 116
1, 44857, Note_off_c, 0, 82, 116
1, 44906, Note_on_c, 0, 84, 104
1, 44951, Note_off_c, 0, 84, 104
1, 45951, Note_on_c, 0, 82, 117
1, 46021, Note_off_c, 0, 82, 117
1, 46023, Note_on_c, 0, 84, 111
1, 46128, Note_off_c, 0, 84, 111
1, 46138, Note_on_c, 0, 83, 111
1, 46202, Note_off_c, 0, 83, 111
1, 46204, Note_on_c, 0, 84, 108
1, 46289, Note_off_c, 0, 84, 108
1, 46304, Note_on_c, 0, 82, 114
1, 46377, Note_off_c, 0, 82, 114
1, 46389, Note_on_c, 0, 79, 116
1, 46462, Note_off_c, 0, 79, 116
1, 46477, Note_on_c, 0, 77, 122
1, 46549, Note_off_c, 0, 77, 122
1, 46568, Note_on_c, 0, 72, 108
1, 46667, Note_off_c, 0, 72, 108
1, 46759, Note_on_c, 0, 75, 107
1, 46878, Note_off_c, 0, 75, 107
1, 46892, Note_on_c, 0, 78, 114
1, 46944, Note_off_c, 0, 78, 114
1, 46954, Note_on_c, 0, 79, 119
1, 47064, Note_off_c, 0, 79, 119
1, 47085, Note_on_c, 0, 75, 101
1, 47125, Note_off_c, 0, 75, 101
1, 47138, Note_on_c, 0, 77, 121
1, 47231, Note_off_c, 0, 77, 121
1, 47261, Note_on_c, 0, 75, 108
1, 47328, Note_off_c, 0, 75, 108
1, 47354, Note_on_c, 0, 72, 111
1, 47446, Note_off_c, 0, 72, 111
1, 47467, Note_on_c, 0, 70, 99
1, 47509, Note_off_c, 0, 70, 99
1, 47530, Note_on_c, 0, 75, 111
1, 47617, Note_off_c, 0, 75, 111
1, 47643, Note_on_c, 0, 70, 116
1, 47688, Note_off_c, 0, 70, 116
1, 47707, Note_on_c, 0, 65, 110
1, 47811, Note_off_c, 0, 65, 110
1, 47825, Note_on_c, 0, 63, 108
1, 47892, Note_off_c, 0, 63, 108
1, 47902, Note_on_c, 0, 68, 113
1, 48013, Note_off_c, 0, 68, 113
1, 48034, Note_on_c, 0, 70, 108
1, 48094, Note_off_c, 0, 70, 108
1, 48103, Note_on_c, 0, 71, 108
1, 48192, Note_off_c, 0, 71, 108
1, 48213, Note_on_c, 0, 73, 112
1, 48334, Note_off_c, 0, 73, 112
1, 48376, Note_on_c, 0, 70, 106
1, 48454, Note_off_c, 0, 70, 106
1, 48493, Note_on_c, 0, 66, 112
1, 48578, Note_off_c, 0, 66, 112
1, 48598, Note_on_c, 0, 61, 101
1, 48636, Note_off_c, 0, 61, 101
1, 48657, Note_on_c, 0, 65, 116
1, 48750, Note_off_c, 0, 65, 116
1, 48759, Note_on_c, 0, 64, 111
1, 48834, Note_off_c, 0, 64, 111
1, 48853, Note_on_c, 0, 63, 106
1, 48945, Note_off_c, 0, 63, 106
1, 48955, Note_on_c, 0, 66, 112
1, 49025, Note_off_c, 0, 66, 112
1, 49040, Note_on_c, 0, 62, 102
1, 49126, Note_off_c, 0, 62, 102
1, 49156, Note_on_c, 0, 65, 99
1, 49187, Note_off_c, 0, 65, 99
1, 49201, Note_on_c, 0, 68, 112
1, 49324, Note_off_c, 0, 68, 112
1, 49333, Note_on_c, 0, 69, 94
1, 49377, Note_off_c, 0, 69, 94
1, 49405, Note_on_c, 0, 71, 9
1, 49516, Note_off_c, 0, 71, 9
1, 49614, Note_on_c, 0, 69, 109
1, 49731, Note_off_c, 0, 69, 109
1, 49816, Note_on_c, 0, 70, 110
1, 49947, Note_off_c, 0, 70, 110
1, 50014, Note_on_c, 0, 68, 112
1, 50115, Note_off_c, 0, 68, 112
1, 50119, Note_on_c, 0, 69, 110
1, 50224, Note_off_c, 0, 69, 110
1, 50290, Note_on_c, 0, 66, 114
1, 50354, Note_off_c, 0, 66, 114
1, 50364, Note_on_c, 0, 61, 105
1, 50428, Note_off_c, 0, 61, 105
1, 50471, Note_on_c, 0, 66, 111
1, 50523, Note_off_c, 0, 66, 111
1, 50589, Note_on_c, 0, 64, 103
1, 50859, Note_off_c, 0, 64, 103
1, 50934, Note_on_c, 0, 64, 106
1, 51106, Note_off_c, 0, 64, 106
1, 56365, Note_on_c, 0, 61, 107
1, 56445, Note_off_c, 0, 61, 107
1, 56459, Note_on_c, 0, 62, 101
1, 56537, Note_off_c, 0, 62, 101
1, 56558, Note_on_c, 0, 66, 114
1, 56666, Note_off_c, 0, 66, 114
1, 56672, Note_on_c, 0, 65, 114
1, 56754, Note_off_c, 0, 65, 114
1, 56762, Note_on_c, 0, 64, 112
1, 56851, Note_off_c, 0, 64, 112
1, 56865, Note_on_c, 0, 63, 104
1, 56949, Note_off_c, 0, 63, 104
1, 56953, Note_on_c, 0, 67, 111
1, 57015, Note_off_c, 0, 67, 111
1, 57046, Note_on_c, 0, 62, 100
1, 57135, Note_off_c, 0, 62, 100
1, 57151, Note_on_c, 0, 65, 100
1, 57183, Note_off_c, 0, 65, 100
1, 57199, Note_on_c, 0, 68, 115
1, 57326, Note_off_c, 0, 68, 115
1, 57336, Note_on_c, 0, 69, 110
1, 57698, Note_off_c, 0, 69, 110
1, 57712, Note_on_c, 0, 68, 105
1, 57779, Note_off_c, 0, 68, 105
1, 57787, Note_on_c, 0, 69, 114
1, 57886, Note_off_c, 0, 69, 114
1, 57898, Note_on_c, 0, 68, 118
1, 57980, Note_off_c, 0, 68, 118
1, 57998, Note_on_c, 0, 67, 118
1, 58044, Note_off_c, 0, 67, 118
1, 58064, Note_on_c, 0, 66, 117
1, 58156, Note_off_c, 0, 66, 117
1, 58168, Note_on_c, 0, 65, 117
1, 58265, Note_off_c, 0, 65, 117
1, 58279, Note_on_c, 0, 64, 110
1, 58349, Note_off_c, 0, 64, 110
1, 58369, Note_on_c, 0, 63, 107
1, 58447, Note_off_c, 0, 63, 107
1, 58457, Note_on_c, 0, 66, 111
1, 58546, Note_off_c, 0, 66, 111
1, 58561, Note_on_c, 0, 62, 103
1, 58651, Note_off_c, 0, 62, 103
1, 58661, Note_on_c, 0, 65, 109
1, 58725, Note_off_c, 0, 65, 109
1, 58744, Note_on_c, 0, 69, 110
1, 58855, Note_off_c, 0, 69, 110
1, 58939, Note_on_c, 0, 72, 103
1, 59056, Note_off_c, 0, 72, 103
1, 59072, Note_on_c, 0, 74, 112
1, 59117, Note_off_c, 0, 74, 112
1, 59132, Note_on_c, 0, 76, 115
1, 59263, Note_off_c, 0, 76, 115
1, 59278, Note_on_c, 0, 72, 89
1, 59322, Note_off_c, 0, 72, 89
1, 59332, Note_on_c, 0, 74, 105
1, 59441, Note_off_c, 0, 74, 105
1, 59460, Note_on_c, 0, 68, 109
1, 59526, Note_off_c, 0, 68, 109
1, 59542, Note_on_c, 0, 65, 111
1, 59663, Note_off_c, 0, 65, 111
1, 59727, Note_on_c, 0, 70, 109
1, 59864, Note_off_c, 0, 70, 109
1, 59970, Note_on_c, 0, 65, 107
1, 60043, Note_off_c, 0, 65, 107
1, 60061, Note_on_c, 0, 70, 106
1, 60113, Note_off_c, 0, 70, 106
1, 60120, Note_on_c, 0, 68, 109
1, 60188, Note_off_c, 0, 68, 109
1, 60207, Note_on_c, 0, 68, 112
1, 60286, Note_off_c, 0, 68, 112
1, 60312, Note_on_c, 0, 67, 111
1, 60385, Note_off_c, 0, 67, 111
1, 60399, Note_on_c, 0, 66, 113
1, 60497, Note_off_c, 0, 66, 113
1, 60518, Note_on_c, 0, 65, 112
1, 60593, Note_off_c, 0, 65, 112
1, 60609, Note_on_c, 0, 64, 109
1, 60654, Note_off_c, 0, 64, 109
1, 60681, Note_on_c, 0, 63, 104
1, 60749, Note_off_c, 0, 63, 104
1, 60756, Note_on_c, 0, 66, 109
1, 60823, Note_off_c, 0, 66, 109
1, 60839, Note_on_c, 0, 64, 108
1, 60943, Note_off_c, 0, 64, 108
1, 60962, Note_on_c, 0, 62, 97
1, 61030, Note_off_c, 0, 62, 97
1, 61043, Note_on_c, 0, 63, 108
1, 61140, Note_off_c, 0, 63, 108
1, 61147, Note_on_c, 0, 61, 98
1, 61183, Note_off_c, 0, 61, 98
1, 61190, Note_on_c, 0, 62, 105
1, 61327, Note_off_c, 0, 62, 105
1, 61342, Note_on_c, 0, 61, 97
1, 61393, Note_off_c, 0, 61, 97
1, 61395, Note_on_c, 0, 62, 101
1, 61535, Note_off_c, 0, 62, 101
1, 61556, Note_on_c, 0, 64, 106
1, 61703, Note_off_c, 0, 64, 106
1, 62336, Note_on_c, 0, 67, 116
1, 62425, Note_off_c, 0, 67, 116
1, 62433, Note_on_c, 0, 68, 91
1, 62649, Note_off_c, 0, 68, 91
1, 62727, Note_on_c, 0, 70, 116
1, 62807, Note_off_c, 0, 70, 116
1, 62906, Note_on_c, 0, 65, 117
1, 63016, Note_off_c, 0, 65, 117
1, 63036, Note_on_c, 0, 70, 110
1, 63106, Note_off_c, 0, 70, 110
1, 63121, Note_on_c, 0, 68, 116
1, 63193, Note_off_c, 0, 68, 116
1, 63207, Note_on_c, 0, 66, 109
1, 63257, Note_off_c, 0, 66, 109
1, 63433, Note_on_c, 0, 66, 118
1, 63523, Note_off_c, 0, 66, 118
1, 63529, Note_on_c, 0, 65, 118
1, 63560, Note_off_c, 0, 65, 118
1, 63864, Note_on_c, 0, 69, 116
1, 63974, Note_off_c, 0, 69, 116
1, 64238, Note_on_c, 0, 70, 116
1, 64304, Note_off_c, 0, 70, 116
1, 64315, Note_on_c, 0, 68, 101
1, 64370, Note_off_c, 0, 68, 101
1, 65342, Note_on_c, 0, 78, 110
1, 65499, Note_off_c, 0, 78, 110
1, 65518, Note_on_c, 0, 78, 122
1, 65608, Note_off_c, 0, 78, 122
1, 65636, Note_on_c, 0, 81, 121
1, 65709, Note_off_c, 0, 81, 121
1, 65729, Note_on_c, 0, 78, 119
1, 65789, Note_off_c, 0, 78, 119
1, 65814, Note_on_c, 0, 78, 120
1, 65889, Note_off_c, 0, 78, 120
1, 65903, Note_on_c, 0, 74, 110
1, 65989, Note_off_c, 0, 74, 110
1, 66033, Note_on_c, 0, 71, 94
1, 66076, Note_off_c, 0, 71, 94
1, 66083, Note_on_c, 0, 76, 116
1, 66184, Note_off_c, 0, 76, 116
1, 66190, Note_on_c, 0, 77, 122
1, 66247, Note_off_c, 0, 77, 122
1, 66254, Note_on_c, 0, 78, 119
1, 66357, Note_off_c, 0, 78, 119
1, 66379, Note_on_c, 0, 76, 111
1, 66625, Note_off_c, 0, 76, 111
1, 66786, Note_on_c, 0, 74, 100
1, 66830, Note_off_c, 0, 74, 100
1, 66842, Note_on_c, 0, 75, 113
1, 66921, Note_off_c, 0, 75, 113
1, 66937, Note_on_c, 0, 74, 108
1, 67011, Note_off_c, 0, 74, 108
1, 67026, Note_on_c, 0, 73, 113
1, 67117, Note_off_c, 0, 73, 113
1, 67130, Note_on_c, 0, 70, 97
1, 67181, Note_off_c, 0, 70, 97
1, 67244, Note_on_c, 0, 72, 97
1, 67346, Note_off_c, 0, 72, 97
1, 67403, Note_on_c, 0, 75, 113
1, 67512, Note_off_c, 0, 75, 113
1, 67528, Note_on_c, 0, 73, 106
1, 67582, Note_off_c, 0, 73, 106
1, 67592, Note_on_c, 0, 74, 112
1, 67678, Note_off_c, 0, 74, 112
1, 67696, Note_on_c, 0, 70, 110
1, 67764, Note_off_c, 0, 70, 110
1, 67782, Note_on_c, 0, 66, 114
1, 67903, Note_off_c, 0, 66, 114
1, 67982, Note_on_c, 0, 69, 115
1, 68054, Note_off_c, 0, 69, 115
1, 68156, Note_on_c, 0, 65, 115
1, 68251, Note_off_c, 0, 65, 115
1, 68270, Note_on_c, 0, 70, 112
1, 68334, Note_off_c, 0, 70, 112
1, 68346, Note_on_c, 0, 69, 115
1, 68416, Note_off_c, 0, 69, 115
1, 68436, Note_on_c, 0, 66, 116
1, 68492, Note_off_c, 0, 66, 116
1, 68517, Note_on_c, 0, 62, 102
1, 68591, Note_off_c, 0, 62, 102
1, 68625, Note_on_c, 0, 65, 114
1, 68668, Note_off_c, 0, 65, 114
1, 68688, Note_on_c, 0, 64, 111
1, 68777, Note_off_c, 0, 64, 111
1, 68791, Note_on_c, 0, 66, 99
1, 68840, Note_off_c, 0, 66, 99
1, 68854, Note_on_c, 0, 69, 105
1, 68976, Note_off_c, 0, 69, 105
1, 69000, Note_on_c, 0, 71, 96
1, 69033, Note_off_c, 0, 71, 96
1, 69055, Note_on_c, 0, 73, 114
1, 69169, Note_off_c, 0, 73, 114
1, 69173, Note_on_c, 0, 76, 110
1, 69235, Note_off_c, 0, 76, 110
1, 69254, Note_on_c, 0, 77, 122
1, 69387, Note_off_c, 0, 77, 122
1, 69397, Note_on_c, 0, 78, 116
1, 69607, Note_off_c, 0, 78, 116
1, 69621, Note_on_c, 0, 77, 121
1, 69717, Note_off_c, 0, 77, 121
1, 69739, Note_on_c, 0, 76, 112
1, 69797, Note_off_c, 0, 76, 112
1, 69818, Note_on_c, 0, 75, 109
1, 69991, Note_off_c, 0, 75, 109
1, 70007, Note_on_c, 0, 73, 112
1, 70080, Note_off_c, 0, 73, 112
1, 70102, Note_on_c, 0, 71, 106
1, 70180, Note_off_c, 0, 71, 106
1, 70194, Note_on_c, 0, 70, 109
1, 70352, Note_off_c, 0, 70, 109
1, 70390, Note_on_c, 0, 69, 110
1, 70452, Note_off_c, 0, 69, 110
1, 70480, Note_on_c, 0, 68, 117
1, 70556, Note_off_c, 0, 68, 117
1, 70566, Note_on_c, 0, 67, 115
1, 70700, Note_off_c, 0, 67, 115
1, 70708, Note_on_c, 0, 66, 115
1, 70793, Note_off_c, 0, 66, 115
1, 70811, Note_on_c, 0, 65, 114
1, 70854, Note_off_c, 0, 65, 114
1, 70872, Note_on_c, 0, 65, 117
1, 70932, Note_off_c, 0, 65, 117
1, 70954, Note_on_c, 0, 64, 104
1, 71292, Note_off_c, 0, 64, 104
1, 71324, Note_on_c, 0, 63, 105
1, 71495, Note_off_c, 0, 63, 105
1, 71605, Note_on_c, 0, 63, 105
1, 71631, Note_off_c, 0, 63, 105
1, 71640, Note_on_c, 0, 61, 106
1, 71674, Note_off_c, 0, 61, 106
1, 71714, Note_on_c, 0, 63, 110
1, 71883, Note_off_c, 0, 63, 110
1, 71904, Note_on_c, 0, 59, 107
1, 71997, Note_off_c, 0, 59, 107
1, 72035, Note_on_c, 0, 58, 100
1, 72184, Note_off_c, 0, 58, 100
1, 72209, Note_on_c, 0, 56, 113
1, 72328, Note_off_c, 0, 56, 113
1, 72353, Note_on_c, 0, 58, 106
1, 72546, Note_off_c, 0, 58, 106
1, 72567, Note_on_c, 0, 60, 111
1, 72724, Note_off_c, 0, 60, 111
1, 72730, Note_on_c, 0, 61, 107
1, 72939, Note_off_c, 0, 61, 107
1, 81590, Note_on_c, 0, 60, 104
1, 81683, Note_off_c, 0, 60, 104
1, 81839, Note_on_c, 0, 62, 105
1, 81911, Note_off_c, 0, 62, 105
1, 81938, Note_on_c, 0, 62, 103
1, 81983, Note_off_c, 0, 62, 103
1, 81995, Note_on_c, 0, 63, 110
1, 82133, Note_off_c, 0, 63, 110
1, 82217, Note_on_c, 0, 65, 112
1, 82356, Note_off_c, 0, 65, 112
1, 82412, Note_on_c, 0, 65, 116
1, 82558, Note_off_c, 0, 65, 116
1, 82647, Note_on_c, 0, 65, 115
1, 82905, Note_off_c, 0, 65, 115
1, 82967, Note_on_c, 0, 65, 113
1, 83147, Note_off_c, 0, 65, 113
1, 83156, Note_on_c, 0, 64, 120
1, 83190, Note_off_c, 0, 64, 120
1, 83199, Note_on_c, 0, 65, 113
1, 83248, Note_off_c, 0, 65, 113
1, 83267, Note_on_c, 0, 66, 105
1, 83337, Note_off_c, 0, 66, 105
1, 83351, Note_on_c, 0, 65, 116
1, 83423, Note_off_c, 0, 65, 116
1, 83444, Note_on_c, 0, 62, 100
1, 83501, Note_off_c, 0, 62, 100
1, 83510, Note_on_c, 0, 65, 113
1, 83607, Note_off_c, 0, 65, 113
1, 83610, Note_on_c, 0, 67, 109
1, 83711, Note_off_c, 0, 67, 109
1, 83731, Note_on_c, 0, 69, 109
1, 83799, Note_off_c, 0, 69, 109
1, 83826, Note_on_c, 0, 68, 110
1, 83875, Note_off_c, 0, 68, 110
1, 83896, Note_on_c, 0, 67, 107
1, 83980, Note_off_c, 0, 67, 107
1, 83992, Note_on_c, 0, 66, 110
1, 84070, Note_off_c, 0, 66, 110
1, 84086, Note_on_c, 0, 65, 112
1, 84179, Note_off_c, 0, 65, 112
1, 84195, Note_on_c, 0, 64, 102
1, 84251, Note_off_c, 0, 64, 102
1, 84269, Note_on_c, 0, 63, 103
1, 84360, Note_off_c, 0, 63, 103
1, 84369, Note_on_c, 0, 67, 106
1, 84442, Note_off_c, 0, 67, 106
1, 84466, Note_on_c, 0, 64, 104
1, 84559, Note_off_c, 0, 64, 104
1, 84568, Note_on_c, 0, 65, 100
1, 84618, Note_off_c, 0, 65, 100
1, 84630, Note_on_c, 0, 67, 104
1, 84737, Note_off_c, 0, 67, 104
1, 84757, Note_on_c, 0, 69, 98
1, 84808, Note_off_c, 0, 69, 98
1, 84818, Note_on_c, 0, 72, 103
1, 84931, Note_off_c, 0, 72, 103
1, 84949, Note_on_c, 0, 74, 111
1, 85009, Note_off_c, 0, 74, 111
1, 85013, Note_on_c, 0, 75, 111
1, 85123, Note_off_c, 0, 75, 111
1, 85144, Note_on_c, 0, 73, 103
1, 85202, Note_off_c, 0, 73, 103
1, 85212, Note_on_c, 0, 74, 105
1, 85313, Note_off_c, 0, 74, 105
1, 85337, Note_on_c, 0, 70, 106
1, 85394, Note_off_c, 0, 70, 106
1, 85418, Note_on_c, 0, 66, 107
1, 85520, Note_off_c, 0, 66, 107
1, 85533, Note_on_c, 0, 62, 89
1, 85571, Note_off_c, 0, 62, 89
1, 85598, Note_on_c, 0, 69, 105
1, 85731, Note_off_c, 0, 69, 105
1, 85799, Note_on_c, 0, 65, 106
1, 85860, Note_off_c, 0, 65, 106
1, 85874, Note_on_c, 0, 69, 105
1, 85941, Note_off_c, 0, 69, 105
1, 85957, Note_on_c, 0, 68, 106
1, 86036, Note_off_c, 0, 68, 106
1, 86056, Note_on_c, 0, 67, 103
1, 86095, Note_off_c, 0, 67, 103
1, 86108, Note_on_c, 0, 66, 103
1, 86193, Note_off_c, 0, 66, 103
1, 86205, Note_on_c, 0, 62, 93
1, 86256, Note_off_c, 0, 62, 93
1, 86270, Note_on_c, 0, 65, 104
1, 86319, Note_off_c, 0, 65, 104
1, 86335, Note_on_c, 0, 64, 104
1, 86427, Note_off_c, 0, 64, 104
1, 86439, Note_on_c, 0, 66, 105
1, 86513, Note_off_c, 0, 66, 105
1, 86520, Note_on_c, 0, 67, 102
1, 86598, Note_off_c, 0, 67, 102
1, 86613, Note_on_c, 0, 69, 88
1, 86669, Note_off_c, 0, 69, 88
1, 86699, Note_on_c, 0, 73, 110
1, 86788, Note_off_c, 0, 73, 110
1, 86814, Note_on_c, 0, 72, 99
1, 86884, Note_off_c, 0, 72, 99
1, 86893, Note_on_c, 0, 70, 99
1, 87031, Note_off_c, 0, 70, 99
1, 87455, Note_on_c, 0, 77, 120
1, 87553, Note_off_c, 0, 77, 120
1, 87587, Note_on_c, 0, 74, 106
1, 87674, Note_off_c, 0, 74, 106
1, 88217, Note_on_c, 0, 75, 121
1, 88370, Note_off_c, 0, 75, 121
1, 88391, Note_on_c, 0, 72, 101
1, 88482, Note_off_c, 0, 72, 101
1, 88930, Note_on_c, 0, 76, 119
1, 88974, Note_off_c, 0, 76, 119
1, 88996, Note_on_c, 0, 79, 121
1, 89279, Note_off_c, 0, 79, 121
1, 89292, Note_on_c, 0, 76, 118
1, 89674, Note_off_c, 0, 76, 118
1, 89745, Note_on_c, 0, 74, 107
1, 89848, Note_off_c, 0, 74, 107
1, 89884, Note_on_c, 0, 70, 118
1, 89974, Note_off_c, 0, 70, 118
1, 90445, Note_on_c, 0, 78, 121
1, 90762, Note_off_c, 0, 78, 121
1, 90775, Note_on_c, 0, 75, 113
1, 91117, Note_off_c, 0, 75, 113
1, 91376, Note_on_c, 0, 66, 121
1, 91421, Note_off_c, 0, 66, 121
1, 91422, Note_on_c, 0, 68, 111
1, 91672, Note_off_c, 0, 68, 111
1, 91701, Note_on_c, 0, 66, 115
1, 91742, Note_off_c, 0, 66, 115
1, 91754, Note_on_c, 0, 65, 117
1, 91867, Note_off_c, 0, 65, 117
1, 91922, Note_on_c, 0, 81, 119
1, 92205, Note_off_c, 0, 81, 119
1, 92221, Note_on_c, 0, 80, 119
1, 92270, Note_off_c, 0, 80, 119
1, 92277, Note_on_c, 0, 79, 119
1, 92297, Note_off_c, 0, 79, 119
1, 92305, Note_on_c, 0, 78, 117
1, 92635, Note_off_c, 0, 78, 117
1, 92649, Note_on_c, 0, 79, 121
1, 92834, Note_off_c, 0, 79, 121
1, 92848, Note_on_c, 0, 76, 117
1, 92969, Note_off_c, 0, 76, 117
1, 92976, Note_on_c, 0, 79, 117
1, 93039, Note_off_c, 0, 79, 117
1, 93044, Note_on_c, 0, 78, 115
1, 93218, Note_off_c, 0, 78, 115
1, 93223, Note_on_c, 0, 75, 110
1, 93301, Note_off_c, 0, 75, 110
1, 93321, Note_on_c, 0, 78, 114
1, 93401, Note_off_c, 0, 78, 114
1, 93411, Note_on_c, 0, 77, 118
1, 93569, Note_off_c, 0, 77, 118
1, 93575, Note_on_c, 0, 74, 104
1, 93651, Note_off_c, 0, 74, 104
1, 93694, Note_on_c, 0, 77, 122
1, 93758, Note_off_c, 0, 77, 122
1, 93765, Note_on_c, 0, 76, 117
1, 93975, Note_off_c, 0, 76, 117
1, 94061, Note_on_c, 0, 73, 102
1, 94106, Note_off_c, 0, 73, 102
1, 94235, Note_on_c, 0, 75, 113
1, 94311, Note_off_c, 0, 75, 113
1, 94398, Note_on_c, 0, 75, 114
1, 94468, Note_off_c, 0, 75, 114
1, 94522, Note_on_c, 0, 75, 114
1, 94631, Note_off_c, 0, 75, 114
1, 94662, Note_on_c, 0, 75, 113
1, 94735, Note_off_c, 0, 75, 113
1, 94775, Note_on_c, 0, 75, 113
1, 94860, Note_off_c, 0, 75, 113
1, 94898, Note_on_c, 0, 75, 113
1, 94978, Note_off_c, 0, 75, 113
1, 94997, Note_on_c, 0, 73, 110
1, 95047, Note_off_c, 0, 73, 110
1, 95053, Note_on_c, 0, 75, 108
1, 95069, Note_off_c, 0, 75, 108
1, 95081, Note_on_c, 0, 78, 122
1, 95143, Note_off_c, 0, 78, 122
1, 95157, Note_on_c, 0, 76, 118
1, 95200, Note_off_c, 0, 76, 118
1, 95215, Note_on_c, 0, 74, 108
1, 95251, Note_off_c, 0, 74, 108
1, 95266, Note_on_c, 0, 70, 105
1, 95309, Note_off_c, 0, 70, 105
1, 95328, Note_on_c, 0, 68, 117
1, 95386, Note_off_c, 0, 68, 117
1, 95390, Note_on_c, 0, 70, 105
1, 95439, Note_off_c, 0, 70, 105
1, 95445, Note_on_c, 0, 72, 108
1, 95463, Note_off_c, 0, 72, 108
1, 95472, Note_on_c, 0, 73, 112
1, 95509, Note_off_c, 0, 73, 112
1, 95517, Note_on_c, 0, 75, 109
1, 95559, Note_off_c, 0, 75, 109
1, 95575, Note_on_c, 0, 73, 112
1, 95630, Note_off_c, 0, 73, 112
1, 95697, Note_on_c, 0, 70, 115
1, 95779, Note_off_c, 0, 70, 115
1, 95786, Note_on_c, 0, 62, 106
1, 95835, Note_off_c, 0, 62, 106
1, 95845, Note_on_c, 0, 66, 111
1, 95897, Note_off_c, 0, 66, 111
1, 95907, Note_on_c, 0, 69, 113
1, 95942, Note_off_c, 0, 69, 113
1, 95954, Note_on_c, 0, 74, 106
1, 96008, Note_off_c, 0, 74, 106
1, 96014, Note_on_c, 0, 73, 112
1, 96062, Note_off_c, 0, 73, 112
1, 96069, Note_on_c, 0, 70, 113
1, 96136, Note_off_c, 0, 70, 113
1, 96142, Note_on_c, 0, 67, 115
1, 96174, Note_off_c, 0, 67, 115
1, 96179, Note_on_c, 0, 69, 118
1, 96236, Note_off_c, 0, 69, 118
1, 96243, Note_on_c, 0, 61, 107
1, 96296, Note_off_c, 0, 61, 107
1, 96296, Note_on_c, 0, 65, 106
1, 96329, Note_off_c, 0, 65, 106
1, 96345, Note_on_c, 0, 60, 107
1, 96388, Note_off_c, 0, 60, 107
1, 96395, Note_on_c, 0, 58, 103
1, 96471, Note_off_c, 0, 58, 103
1, 96536, Note_on_c, 0, 70, 115
1, 96592, Note_off_c, 0, 70, 115
1, 96607, Note_on_c, 0, 64, 109
1, 96634, Note_off_c, 0, 64, 109
1, 96635, Note_on_c, 0, 65, 119
1, 96691, Note_off_c, 0, 65, 119
1, 96691, Note_on_c, 0, 66, 119
1, 96741, Note_off_c, 0, 66, 119
1, 96749, Note_on_c, 0, 69, 115
1, 96785, Note_off_c, 0, 69, 115
1, 96791, Note_on_c, 0, 70, 109
1, 96825, Note_off_c, 0, 70, 109
1, 96835, Note_on_c, 0, 75, 109
1, 96870, Note_off_c, 0, 75, 109
1, 96874, Note_on_c, 0, 72, 101
1, 96929, Note_off_c, 0, 72, 101
1, 96946, Note_on_c, 0, 70, 107
1, 97002, Note_off_c, 0, 70, 107
1, 97011, Note_on_c, 0, 67, 115
1, 97036, Note_off_c, 0, 67, 115
1, 97042, Note_on_c, 0, 68, 118
1, 97074, Note_off_c, 0, 68, 118
1, 97079, Note_on_c, 0, 70, 108
1, 97121, Note_off_c, 0, 70, 108
1, 97151, Note_on_c, 0, 72, 102
1, 97197, Note_off_c, 0, 72, 102
1, 97205, Note_on_c, 0, 75, 112
1, 97224, Note_off_c, 0, 75, 112
1, 97239, Note_on_c, 0, 79, 115
1, 97283, Note_off_c, 0, 79, 115
1, 97288, Note_on_c, 0, 82, 105
1, 97304, Note_off_c, 0, 82, 105
1, 97309, Note_on_c, 0, 84, 112
1, 97351, Note_off_c, 0, 84, 112
1, 97367, Note_on_c, 0, 87, 100
1, 97409, Note_off_c, 0, 87, 100
1, 97416, Note_on_c, 0, 85, 118
1, 97455, Note_off_c, 0, 85, 118
1, 97462, Note_on_c, 0, 83, 117
1, 97514, Note_off_c, 0, 83, 117
1, 97519, Note_on_c, 0, 82, 120
1, 97625, Note_off_c, 0, 82, 120
1, 97641, Note_on_c, 0, 73, 109
1, 97698, Note_off_c, 0, 73, 109
1, 97718, Note_on_c, 0, 82, 112
1, 97738, Note_off_c, 0, 82, 112
1, 97740, Note_on_c, 0, 83, 109
1, 97782, Note_off_c, 0, 83, 109
1, 97812, Note_on_c, 0, 74, 106
1, 97868, Note_off_c, 0, 74, 106
1, 97878, Note_on_c, 0, 73, 109
1, 97930, Note_off_c, 0, 73, 109
1, 97940, Note_on_c, 0, 74, 110
1, 98001, Note_off_c, 0, 74, 110
1, 98030, Note_on_c, 0, 83, 110
1, 98084, Note_off_c, 0, 83, 110
1, 98091, Note_on_c, 0, 77, 108
1, 98148, Note_off_c, 0, 77, 108
1, 98175, Note_on_c, 0, 72, 106
1, 98293, Note_off_c, 0, 72, 106
1, 104367, Note_on_c, 0, 85, 99
1, 104410, Note_off_c, 0, 85, 99
1, 104432, Note_on_c, 0, 87, 108
1, 104552, Note_off_c, 0, 87, 108
1, 104554, Note_on_c, 0, 88, 103
1, 104772, Note_off_c, 0, 88, 103
1, 104784, Note_on_c, 0, 91, 111
1, 104949, Note_off_c, 0, 91, 111
1, 104980, Note_on_c, 0, 88, 113
1, 105055, Note_off_c, 0, 88, 113
1, 105594, Note_on_c, 0, 86, 118
1, 105625, Note_off_c, 0, 86, 118
1, 105635, Note_on_c, 0, 88, 115
1, 105770, Note_off_c, 0, 88, 115
1, 105803, Note_on_c, 0, 88, 93
1, 106090, Note_off_c, 0, 88, 93
1, 106128, Note_on_c, 0, 91, 117
1, 106210, Note_off_c, 0, 91, 117
1, 106999, Note_on_c, 0, 83, 115
1, 107103, Note_off_c, 0, 83, 115
1, 107123, Note_on_c, 0, 87, 90
1, 107182, Note_off_c, 0, 87, 90
1, 107217, Note_on_c, 0, 88, 120
1, 107869, Note_off_c, 0, 88, 120
1, 107896, Note_on_c, 0, 91, 100
1, 107940, Note_off_c, 0, 91, 100
1, 107951, Note_on_c, 0, 90, 98
1, 107982, Note_off_c, 0, 90, 98
1, 107992, Note_on_c, 0, 91, 109
1, 108041, Note_off_c, 0, 91, 109
1, 108066, Note_on_c, 0, 88, 115
1, 108153, Note_off_c, 0, 88, 115
1, 108161, Note_on_c, 0, 87, 114
1, 108211, Note_off_c, 0, 87, 114
1, 108232, Note_on_c, 0, 86, 93
1, 108270, Note_off_c, 0, 86, 93
1, 108277, Note_on_c, 0, 85, 103
1, 108406, Note_off_c, 0, 85, 103
1, 108413, Note_on_c, 0, 81, 102
1, 108439, Note_off_c, 0, 81, 102
1, 108446, Note_on_c, 0, 83, 103
1, 108494, Note_off_c, 0, 83, 103
1, 108543, Note_on_c, 0, 86, 116
1, 108614, Note_off_c, 0, 86, 116
1, 108627, Note_on_c, 0, 87, 105
1, 108653, Note_off_c, 0, 87, 105
1, 108664, Note_on_c, 0, 89, 110
1, 108691, Note_off_c, 0, 89, 110
1, 108704, Note_on_c, 0, 91, 107
1, 108753, Note_off_c, 0, 91, 107
1, 108760, Note_on_c, 0, 90, 116
1, 108823, Note_off_c, 0, 90, 116
1, 108835, Note_on_c, 0, 91, 107
1, 108889, Note_off_c, 0, 91, 107
1, 108921, Note_on_c, 0, 90, 111
1, 109931, Note_off_c, 0, 90, 111
1, 109955, Note_on_c, 0, 89, 116
1, 109997, Note_off_c, 0, 89, 116
1, 110005, Note_on_c, 0, 88, 108
1, 110025, Note_off_c, 0, 88, 108
1, 110065, Note_on_c, 0, 84, 100
1, 110132, Note_off_c, 0, 84, 100
1, 110157, Note_on_c, 0, 85, 112
1, 110359, Note_off_c, 0, 85, 112
1, 111460, Note_on_c, 0, 81, 124
1, 111569, Note_off_c, 0, 81, 124
1, 111648, Note_on_c, 0, 81, 116
1, 111746, Note_off_c, 0, 81, 116
1, 111783, Note_on_c, 0, 78, 112
1, 111837, Note_off_c, 0, 78, 112
1, 111843, Note_on_c, 0, 81, 119
1, 111927, Note_off_c, 0, 81, 119
1, 111944, Note_on_c, 0, 84, 119
1, 112014, Note_off_c, 0, 84, 119
1, 112034, Note_on_c, 0, 83, 116
1, 112113, Note_off_c, 0, 83, 116
1, 112126, Note_on_c, 0, 82, 122
1, 112218, Note_off_c, 0, 82, 122
1, 112226, Note_on_c, 0, 81, 120
1, 112296, Note_off_c, 0, 81, 120
1, 112310, Note_on_c, 0, 78, 115
1, 112380, Note_off_c, 0, 78, 115
1, 112389, Note_on_c, 0, 74, 111
1, 112476, Note_off_c, 0, 74, 111
1, 112488, Note_on_c, 0, 75, 103
1, 112513, Note_off_c, 0, 75, 103
1, 112521, Note_on_c, 0, 78, 94
1, 112539, Note_off_c, 0, 78, 94
1, 112555, Note_on_c, 0, 81, 124
1, 112651, Note_off_c, 0, 81, 124
1, 112663, Note_on_c, 0, 79, 103
1, 112703, Note_off_c, 0, 79, 103
1, 112709, Note_on_c, 0, 78, 120
1, 112808, Note_off_c, 0, 78, 120
1, 112827, Note_on_c, 0, 81, 124
1, 112908, Note_off_c, 0, 81, 124
1, 112924, Note_on_c, 0, 80, 122
1, 112986, Note_off_c, 0, 80, 122
1, 113004, Note_on_c, 0, 78, 118
1, 113067, Note_off_c, 0, 78, 118
1, 113077, Note_on_c, 0, 73, 117
1, 113187, Note_off_c, 0, 73, 117
1, 113219, Note_on_c, 0, 71, 96
1, 113273, Note_off_c, 0, 71, 96
1, 113280, Note_on_c, 0, 76, 120
1, 113375, Note_off_c, 0, 76, 120
1, 113391, Note_on_c, 0, 77, 119
1, 113441, Note_off_c, 0, 77, 119
1, 113461, Note_on_c, 0, 79, 122
1, 113550, Note_off_c, 0, 79, 122
1, 113577, Note_on_c, 0, 78, 121
1, 113638, Note_off_c, 0, 78, 121
1, 113666, Note_on_c, 0, 77, 123
1, 113744, Note_off_c, 0, 77, 123
1, 113766, Note_on_c, 0, 76, 122
1, 113832, Note_off_c, 0, 76, 122
1, 113845, Note_on_c, 0, 75, 111
1, 113900, Note_off_c, 0, 75, 111
1, 113932, Note_on_c, 0, 79, 99
1, 113999, Note_off_c, 0, 79, 99
1, 114015, Note_on_c, 0, 77, 122
1, 114081, Note_off_c, 0, 77, 122
1, 114119, Note_on_c, 0, 74, 108
1, 114179, Note_off_c, 0, 74, 108
1, 114206, Note_on_c, 0, 70, 108
1, 114309, Note_off_c, 0, 70, 108
1, 114323, Note_on_c, 0, 67, 99
1, 114363, Note_off_c, 0, 67, 99
1, 114390, Note_on_c, 0, 75, 111
1, 114482, Note_off_c, 0, 75, 111
1, 114502, Note_on_c, 0, 73, 106
1, 114552, Note_off_c, 0, 73, 106
1, 114573, Note_on_c, 0, 69, 108
1, 114660, Note_off_c, 0, 69, 108
1, 114684, Note_on_c, 0, 66, 92
1, 114716, Note_off_c, 0, 66, 92
1, 114728, Note_on_c, 0, 70, 111
1, 114806, Note_off_c, 0, 70, 111
1, 114834, Note_on_c, 0, 61, 101
1, 114895, Note_off_c, 0, 61, 101
1, 114910, Note_on_c, 0, 66, 109
1, 115018, Note_off_c, 0, 66, 109
1, 115038, Note_on_c, 0, 70, 108
1, 115111, Note_off_c, 0, 70, 108
1, 115121, Note_on_c, 0, 68, 110
1, 115201, Note_off_c, 0, 68, 110
1, 115214, Note_on_c, 0, 67, 114
1, 115286, Note_off_c, 0, 67, 114
1, 115306, Note_on_c, 0, 66, 112
1, 115429, Note_off_c, 0, 66, 112
1, 115531, Note_on_c, 0, 65, 115
1, 115629, Note_off_c, 0, 65, 115
1, 115648, Note_on_c, 0, 65, 117
1, 115740, Note_off_c, 0, 65, 117
1, 115766, Note_on_c, 0, 65, 118
1, 115865, Note_off_c, 0, 65, 118
1, 115881, Note_on_c, 0, 65, 118
1, 115976, Note_off_c, 0, 65, 118
1, 116014, Note_on_c, 0, 65, 117
1, 116115, Note_off_c, 0, 65, 117
1, 116161, Note_on_c, 0, 65, 117
1, 116248, Note_off_c, 0, 65, 117
1, 116281, Note_on_c, 0, 65, 115
1, 116392, Note_off_c, 0, 65, 115
1, 116392, End_track
0, 0, End_of_file
