0, 0, Header, 1, 1, 192
1, 0, Start_track
1, 0, Title_t, "Melody"
1, 0, Tempo, 229007
1, 0, Key_signature, -3, "major"
1, 0, Time_signature, 4, 2, 24, 8
1, 4027, Note_on_c, 0, 71, 112
1, 4158, Note_off_c, 0, 71, 112
1, 4192, Note_on_c, 0, 78, 124
1, 4284, Note_off_c, 0, 78, 124
1, 4327, Note_on_c, 0, 75, 117
1, 4424, Note_off_c, 0, 75, 117
1, 4480, Note_on_c, 0, 71, 111
1, 6895, Note_off_c, 0, 71, 111
1, 6982, Note_on_c, 0, 66, 117
1, 7069, Note_off_c, 0, 66, 117
1, 7095, Note_on_c, 0, 70, 111
1, 7177, Note_off_c, 0, 70, 111
1, 7196, Note_on_c, 0, 65, 120
1, 7298, Note_off_c, 0, 65, 120
1, 7304, Note_on_c, 0, 66, 118
1, 7367, Note_off_c, 0, 66, 118
1, 7399, Note_on_c, 0, 71, 111
1, 7464, Note_off_c, 0, 71, 111
1, 7474, Note_on_c, 0, 72, 116
1, 7547, Note_off_c, 0, 72, 116
1, 7558, Note_on_c, 0, 75, 121
1, 7628, Note_off_c, 0, 75, 121
1, 7648, Note_on_c, 0, 77, 122
1, 7724, Note_off_c, 0, 77, 122
1, 7734, Note_on_c, 0, 78, 118
1, 7831, Note_off_c, 0, 78, 118
1, 7863, Note_on_c, 0, 75, 111
1, 7928, Note_off_c, 0, 75, 111
1, 7945, Note_on_c, 0, 77, 122
1, 8061, Note_off_c, 0, 77, 122
1, 8081, Note_on_c, 0, 75, 116
1, 8135, Note_off_c, 0, 75, 116
1, 8167, Note_on_c, 0, 72, 109
1, 8255, Note_off_c, 0, 72, 109
1, 8270, Note_on_c, 0, 71, 97
1, 8314, Note_off_c, 0, 71, 97
1, 8343, Note_on_c, 0, 75, 123
1, 8428, Note_off_c, 0, 75, 123
1, 8463, Note_on_c, 0, 71, 110
1, 8517, Note_off_c, 0, 71, 110
1, 8537, Note_on_c, 0, 66, 113
1, 8608, Note_off_c, 0, 66, 113
1, 8631, Note_on_c, 0, 63, 109
1, 8680, Note_off_c, 0, 63, 109
1, 8690, Note_on_c, 0, 62, 103
1, 8712, Note_off_c, 0, 62, 103
1, 8735, Note_on_c, 0, 67, 106
1, 8764, Note_off_c, 0, 67, 106
1, 8777, Note_on_c, 0, 71, 108
1, 8910, Note_off_c, 0, 71, 108
1, 8937, Note_on_c, 0, 75, 115
1, 9046, Note_off_c, 0, 75, 115
1, 9081, Note_on_c, 0, 71, 107
1, 10056, Note_off_c, 0, 71, 107
1, 10085, Note_on_c, 0, 68, 112
1, 10179, Note_off_c, 0, 68, 112
1, 10199, Note_on_c, 0, 71, 108
1, 10269, Note_off_c, 0, 71, 108
1, 10280, Note_on_c, 0, 68, 118
1, 10372, Note_off_c, 0, 68, 118
1, 10399, Note_on_c, 0, 66, 115
1, 10472, Note_off_c, 0, 66, 115
1, 10489, Note_on_c, 0, 63, 110
1, 10576, Note_off_c, 0, 63, 110
1, 10584, Note_on_c, 0, 66, 112
1, 10671, Note_off_c, 0, 66, 112
1, 10681, Note_on_c, 0, 68, 119
1, 10775, Note_off_c, 0, 68, 119
1, 10795, Note_on_c, 0, 71, 110
1, 10860, Note_off_c, 0, 71, 110
1, 10873, Note_on_c, 0, 73, 117
1, 10968, Note_off_c, 0, 73, 117
1, 10988, Note_on_c, 0, 75, 117
1, 11047, Note_off_c, 0, 75, 117
1, 11065, Note_on_c, 0, 78, 119
1, 11165, Note_off_c, 0, 78, 119
1, 11185, Note_on_c, 0, 73, 115
1, 11265, Note_off_c, 0, 73, 115
1, 11282, Note_on_c, 0, 75, 122
1, 11362, Note_off_c, 0, 75, 122
1, 11382, Note_on_c, 0, 78, 118
1, 11441, Note_off_c, 0, 78, 118
1, 11463, Note_on_c, 0, 75, 117
1, 11646, Note_off_c, 0, 75, 117
1, 11663, Note_on_c, 0, 72, 112
1, 11769, Note_off_c, 0, 72, 112
1, 11869, Note_on_c, 0, 71, 107
1, 12038, Note_off_c, 0, 71, 107
1, 12053, Note_on_c, 0, 68, 116
1, 12167, Note_off_c, 0, 68, 116
1, 12189, Note_on_c, 0, 66, 111
1, 12560, Note_off_c, 0, 66, 111
1, 12573, Note_on_c, 0, 72, 99
1, 12626, Note_off_c, 0, 72, 99
1, 12646, Note_on_c, 0, 68, 116
1, 12805, Note_off_c, 0, 68, 116
1, 12816, Note_on_c, 0, 71, 104
1, 12947, Note_off_c, 0, 71, 104
1, 12967, Note_on_c, 0, 67, 107
1, 13263, Note_off_c, 0, 67, 107
1, 13386, Note_on_c, 0, 66, 114
1, 13464, Note_off_c, 0, 66, 114
1, 13477, Note_on_c, 0, 65, 117
1, 13572, Note_off_c, 0, 65, 117
1, 13580, Note_on_c, 0, 64, 109
1, 13641, Note_off_c, 0, 64, 109
1, 13651, Note_on_c, 0, 63, 110
1, 13729, Note_off_c, 0, 63, 110
1, 13739, Note_on_c, 0, 65, 115
1, 13812, Note_off_c, 0, 65, 115
1, 13837, Note_on_c, 0, 63, 111
1, 13915, Note_off_c, 0, 63, 111
1, 13921, Note_on_c, 0, 65, 109
1, 13994, Note_off_c, 0, 65, 109
1, 14011, Note_on_c, 0, 67, 110
1, 14110, Note_off_c, 0, 67, 110
1, 14132, Note_on_c, 0, 63, 107
1, 14186, Note_off_c, 0, 63, 107
1, 14208, Note_on_c, 0, 65, 110
1, 14396, Note_off_c, 0, 65, 110
1, 14438, Note_on_c, 0, 60, 109
1, 14545, Note_off_c, 0, 60, 109
1, 14601, Note_on_c, 0, 63, 107
1, 14778, Note_off_c, 0, 63, 107
1, 14824, Note_on_c, 0, 58, 103
1, 14977, Note_off_c, 0, 58, 103
1, 15002, Note_on_c, 0, 60, 107
1, 15185, Note_off_c, 0, 60, 107
1, 15337, Note_on_c, 0, 61, 101
1, 15781, Note_off_c, 0, 61, 101
1, 18126, Note_on_c, 0, 67, 121
1, 18250, Note_off_c, 0, 67, 121
1, 18277, Note_on_c, 0, 70, 116
1, 18340, Note_off_c, 0, 70, 116
1, 18348, Note_on_c, 0, 68, 122
1, 18467, Note_off_c, 0, 68, 122
1, 18487, Note_on_c, 0, 67, 113
1, 18748, Note_off_c, 0, 67, 113
1, 18955, Note_on_c, 0, 65, 110
1, 19033, Note_off_c, 0, 65, 110
1, 19050, Note_on_c, 0, 64, 106
1, 19113, Note_off_c, 0, 64, 106
1, 19131, Note_on_c, 0, 65, 120
1, 19226, Note_off_c, 0, 65, 120
1, 19243, Note_on_c, 0, 67, 120
1, 19323, Note_off_c, 0, 67, 120
1, 19331, Note_on_c, 0, 68, 120
1, 19418, Note_off_c, 0, 68, 120
1, 19457, Note_on_c, 0, 70, 115
1, 19532, Note_off_c, 0, 70, 115
1, 19541, Note_on_c, 0, 72, 115
1, 19643, Note_off_c, 0, 72, 115
1, 19652, Note_on_c, 0, 74, 118
1, 19703, Note_off_c, 0, 74, 118
1, 19720, Note_on_c, 0, 77, 124
1, 19838, Note_off_c, 0, 77, 124
1, 19856, Note_on_c, 0, 76, 119
1, 19898, Note_off_c, 0, 76, 119
1, 19910, Note_on_c, 0, 77, 124
1, 20010, Note_off_c, 0, 77, 124
1, 20034, Note_on_c, 0, 79, 122
1, 20127, Note_off_c, 0, 79, 122
1, 20129, Note_on_c, 0, 80, 125
1, 20217, Note_off_c, 0, 80, 125
1, 20225, Note_on_c, 0, 79, 119
1, 20300, Note_off_c, 0, 79, 119
1, 20318, Note_on_c, 0, 78, 119
1, 20420, Note_off_c, 0, 78, 119
1, 20434, Note_on_c, 0, 76, 112
1, 20505, Note_off_c, 0, 76, 112
1, 20511, Note_on_c, 0, 77, 124
1, 20611, Note_off_c, 0, 77, 124
1, 20629, Note_on_c, 0, 76, 113
1, 20717, Note_off_c, 0, 76, 113
1, 20721, Note_on_c, 0, 75, 119
1, 20796, Note_off_c, 0, 75, 119
1, 20816, Note_on_c, 0, 78, 119
1, 20906, Note_off_c, 0, 78, 119
1, 20913, Note_on_c, 0, 74, 116
1, 21023, Note_off_c, 0, 74, 116
1, 21030, Note_on_c, 0, 75, 124
1, 21104, Note_off_c, 0, 75, 124
1, 21113, Note_on_c, 0, 74, 117
1, 21199, Note_off_c, 0, 74, 117
1, 21208, Note_on_c, 0, 75, 124
1, 21306, Note_off_c, 0, 75, 124
1, 21316, Note_on_c, 0, 74, 117
1, 21396, Note_off_c, 0, 74, 117
1, 21409, Note_on_c, 0, 75, 124
1, 21495, Note_off_c, 0, 75, 124
1, 21508, Note_on_c, 0, 73, 116
1, 21593, Note_off_c, 0, 73, 116
1, 21599, Note_on_c, 0, 75, 123
1, 21674, Note_off_c, 0, 75, 123
1, 21691, Note_on_c, 0, 73, 112
1, 21998, Note_off_c, 0, 73, 112
1, 22033, Note_on_c, 0, 71, 93
1, 22070, Note_off_c, 0, 71, 93
1, 22079, Note_on_c, 0, 73, 120
1, 22184, Note_off_c, 0, 73, 120
1, 22205, Note_on_c, 0, 71, 95
1, 22251, Note_off_c, 0, 71, 95
1, 22265, Note_on_c, 0, 73, 116
1, 22384, Note_off_c, 0, 73, 116
1, 22392, Note_on_c, 0, 75, 105
1, 22452, Note_off_c, 0, 75, 105
1, 22466, Note_on_c, 0, 77, 125
1, 22556, Note_off_c, 0, 77, 125
1, 22568, Note_on_c, 0, 75, 116
1, 22648, Note_off_c, 0, 75, 116
1, 22661, Note_on_c, 0, 73, 119
1, 22754, Note_off_c, 0, 73, 119
1, 22773, Note_on_c, 0, 71, 103
1, 22826, Note_off_c, 0, 71, 103
1, 22843, Note_on_c, 0, 69, 115
1, 23012, Note_off_c, 0, 69, 115
1, 23030, Note_on_c, 0, 66, 110
1, 23127, Note_off_c, 0, 66, 110
1, 23230, Note_on_c, 0, 69, 113
1, 23339, Note_off_c, 0, 69, 113
1, 23413, Note_on_c, 0, 71, 100
1, 23515, Note_off_c, 0, 71, 100
1, 23633, Note_on_c, 0, 73, 117
1, 23808, Note_off_c, 0, 73, 117
1, 23834, Note_on_c, 0, 71, 102
1, 23910, Note_off_c, 0, 71, 102
1, 23939, Note_on_c, 0, 69, 111
1, 24361, Note_off_c, 0, 69, 111
1, 24376, Note_on_c, 0, 66, 94
1, 24396, Note_off_c, 0, 66, 94
1, 24408, Note_on_c, 0, 69, 112
1, 24494, Note_off_c, 0, 69, 112
1, 24509, Note_on_c, 0, 69, 109
1, 24585, Note_off_c, 0, 69, 109
1, 24596, Note_on_c, 0, 66, 109
1, 24703, Note_off_c, 0, 66, 109
1, 24730, Note_on_c, 0, 61, 97
1, 24801, Note_off_c, 0, 61, 97
1, 24809, Note_on_c, 0, 63, 100
1, 24927, Note_off_c, 0, 63, 100
1, 24995, Note_on_c, 0, 63, 103
1, 25104, Note_off_c, 0, 63, 103
1, 25223, Note_on_c, 0, 63, 108
1, 25321, Note_off_c, 0, 63, 108
1, 28883, Note_on_c, 0, 67, 115
1, 28991, Note_off_c, 0, 67, 115
1, 29004, Note_on_c, 0, 70, 119
1, 29055, Note_off_c, 0, 70, 119
1, 29069, Note_on_c, 0, 72, 111
1, 29184, Note_off_c, 0, 72, 111
1, 29198, Note_on_c, 0, 75, 120
1, 29258, Note_off_c, 0, 75, 120
1, 29270, Note_on_c, 0, 77, 122
1, 29406, Note_off_c, 0, 77, 122
1, 29418, Note_on_c, 0, 75, 117
1, 29767, Note_off_c, 0, 75, 117
1, 30399, Note_on_c, 0, 75, 120
1, 30523, Note_off_c, 0, 75, 120
1, 30541, Note_on_c, 0, 77, 123
1, 30604, Note_off_c, 0, 77, 123
1, 30613, Note_on_c, 0, 79, 117
1, 30717, Note_off_c, 0, 79, 117
1, 30731, Note_on_c, 0, 82, 113
1, 30788, Note_off_c, 0, 82, 113
1, 30800, Note_on_c, 0, 84, 114
1, 30931, Note_off_c, 0, 84, 114
1, 30938, Note_on_c, 0, 85, 110
1, 31118, Note_off_c, 0, 85, 110
1, 33783, Note_on_c, 0, 79, 116
1, 33869, Note_off_c, 0, 79, 116
1, 33878, Note_on_c, 0, 82, 112
1, 33961, Note_off_c, 0, 82, 112
1, 33988, Note_on_c, 0, 84, 111
1, 34041, Note_off_c, 0, 84, 111
1, 34098, Note_on_c, 0, 85, 114
1, 34183, Note_off_c, 0, 85, 114
1, 34198, Note_on_c, 0, 84, 110
1, 34264, Note_off_c, 0, 84, 110
1, 34267, Note_on_c, 0, 85, 114
1, 34366, Note_off_c, 0, 85, 114
1, 34376, Note_on_c, 0, 84, 108
1, 34445, Note_off_c, 0, 84, 108
1, 34457, Note_on_c, 0, 85, 115
1, 34564, Note_off_c, 0, 85, 115
1, 34579, Note_on_c, 0, 84, 109
1, 34633, Note_off_c, 0, 84, 109
1, 34646, Note_on_c, 0, 82, 113
1, 34749, Note_off_c, 0, 82, 113
1, 34818, Note_on_c, 0, 80, 119
1, 34931, Note_off_c, 0, 80, 119
1, 34937, Note_on_c, 0, 79, 120
1, 34996, Note_off_c, 0, 79, 120
1, 34998, Note_on_c, 0, 80, 121
1, 35116, Note_off_c, 0, 80, 121
1, 35122, Note_on_c, 0, 79, 121
1, 35186, Note_off_c, 0, 79, 121
1, 35194, Note_on_c, 0, 80, 121
1, 35297, Note_off_c, 0, 80, 121
1, 35309, Note_on_c, 0, 79, 115
1, 35402, Note_off_c, 0, 79, 115
1, 35414, Note_on_c, 0, 78, 119
1, 35510, Note_off_c, 0, 78, 119
1, 35520, Note_on_c, 0, 75, 108
1, 35583, Note_off_c, 0, 75, 108
1, 35596, Note_on_c, 0, 78, 119
1, 35749, Note_off_c, 0, 78, 119
1, 35759, Note_on_c, 0, 77, 118
1, 35777, Note_off_c, 0, 77, 118
1, 35786, Note_on_c, 0, 78, 119
1, 35923, Note_off_c, 0, 78, 119
1, 35933, Note_on_c, 0, 77, 124
1, 36002, Note_off_c, 0, 77, 124
1, 36019, Note_on_c, 0, 75, 117
1, 36137, Note_off_c, 0, 75, 117
1, 36207, Note_on_c, 0, 73, 116
1, 36334, Note_off_c, 0, 73, 116
1, 36386, Note_on_c, 0, 73, 117
1, 36504, Note_off_c, 0, 73, 117
1, 36524, Note_on_c, 0, 72, 115
1, 36600, Note_off_c, 0, 72, 115
1, 36609, Note_on_c, 0, 70, 107
1, 36712, Note_off_c, 0, 70, 107
1, 36730, Note_on_c, 0, 67, 114
1, 36792, Note_off_c, 0, 67, 114
1, 36807, Note_on_c, 0, 65, 107
1, 37057, Note_off_c, 0, 65, 107
1, 37091, Note_on_c, 0, 66, 102
1, 37879, Note_off_c, 0, 66, 102
1, 37928, Note_on_c, 0, 65, 116
1, 38039, Note_off_c, 0, 65, 116
1, 38100, Note_on_c, 0, 64, 116
1, 38180, Note_off_c, 0, 64, 116
1, 38198, Note_on_c, 0, 63, 113
1, 38307, Note_off_c, 0, 63, 113
1, 38322, Note_on_c, 0, 65, 121
1, 38383, Note_off_c, 0, 65, 121
1, 38406, Note_on_c, 0, 63, 116
1, 38488, Note_off_c, 0, 63, 116
1, 38501, Note_on_c, 0, 65, 115
1, 38545, Note_off_c, 0, 65, 115
1, 38568, Note_on_c, 0, 67, 118
1, 38648, Note_off_c, 0, 67, 118
1, 38671, Note_on_c, 0, 63, 112
1, 38753, Note_off_c, 0, 63, 112
1, 38775, Note_on_c, 0, 66, 118
1, 38879, Note_off_c, 0, 66, 118
1, 38899, Note_on_c, 0, 65, 117
1, 38948, Note_off_c, 0, 65, 117
1, 38980, Note_on_c, 0, 60, 106
1, 39077, Note_off_c, 0, 60, 106
1, 39109, Note_on_c, 0, 63, 108
1, 39264, Note_off_c, 0, 63, 108
1, 39293, Note_on_c, 0, 65, 118
1, 39409, Note_off_c, 0, 65, 118
1, 39520, Note_on_c, 0, 66, 107
1, 39643, Note_off_c, 0, 66, 107
1, 39649, Note_on_c, 0, 67, 108
1, 39720, Note_off_c, 0, 67, 108
1, 39733, Note_on_c, 0, 70, 114
1, 39895, Note_off_c, 0, 70, 114
1, 39948, Note_on_c, 0, 72, 113
1, 40060, Note_off_c, 0, 72, 113
1, 40085, Note_on_c, 0, 74, 104
1, 40129, Note_off_c, 0, 74, 104
1, 40147, Note_on_c, 0, 75, 119
1, 40273, Note_off_c, 0, 75, 119
1, 40300, Note_on_c, 0, 73, 105
1, 40524, Note_off_c, 0, 73, 105
1, 42005, Note_on_c, 0, 61, 120
1, 42071, Note_off_c, 0, 61, 120
1, 42088, Note_on_c, 0, 63, 118
1, 42149, Note_off_c, 0, 63, 118
1, 42160, Note_on_c, 0, 67, 119
1, 42217, Note_off_c, 0, 67, 119
1, 42236, Note_on_c, 0, 64, 122
1, 42352, Note_off_c, 0, 64, 122
1, 42362, Note_on_c, 0, 66, 119
1, 42426, Note_off_c, 0, 66, 119
1, 42441, Note_on_c, 0, 68, 122
1, 42548, Note_off_c, 0, 68, 122
1, 42560, Note_on_c, 0, 70, 100
1, 42606, Note_off_c, 0, 70, 100
1, 42620, Note_on_c, 0, 72, 112
1, 42727, Note_off_c, 0, 72, 112
1, 42745, Note_on_c, 0, 74, 114
1, 42808, Note_off_c, 0, 74, 114
1, 42823, Note_on_c, 0, 75, 122
1, 42905, Note_off_c, 0, 75, 122
1, 42918, Note_on_c, 0, 73, 122
1, 43027, Note_off_c, 0, 73, 122
1, 43042, Note_on_c, 0, 72, 117
1, 43123, Note_off_c, 0, 72, 117
1, 43132, Note_on_c, 0, 73, 121
1, 43202, Note_off_c, 0, 73, 121
1, 43214, Note_on_c, 0, 77, 121
1, 43339, Note_off_c, 0, 77, 121
1, 43357, Note_on_c, 0, 79, 109
1, 43398, Note_off_c, 0, 79, 109
1, 43413, Note_on_c, 0, 82, 116
1, 43513, Note_off_c, 0, 82, 116
1, 43530, Note_on_c, 0, 79, 116
1, 43595, Note_off_c, 0, 79, 116
1, 43609, Note_on_c, 0, 80, 120
1, 43695, Note_off_c, 0, 80, 120
1, 43712, Note_on_c, 0, 80, 120
1, 43795, Note_off_c, 0, 80, 120
1, 43798, Note_on_c, 0, 79, 116
1, 43874, Note_off_c, 0, 79, 116
1, 43887, Note_on_c, 0, 78, 120
1, 43983, Note_off_c, 0, 78, 120
1, 43990, Note_on_c, 0, 77, 122
1, 44061, Note_off_c, 0, 77, 122
1, 44070, Note_on_c, 0, 76, 117
1, 44161, Note_off_c, 0, 76, 117
1, 44174, Note_on_c, 0, 75, 121
1, 44268, Note_off_c, 0, 75, 121
1, 44277, Note_on_c, 0, 79, 115
1, 44358, Note_off_c, 0, 79, 115
1, 44376, Note_on_c, 0, 76, 118
1, 44463, Note_off_c, 0, 76, 118
1, 44486, Note_on_c, 0, 74, 109
1, 44561, Note_off_c, 0, 74, 109
1, 44573, Note_on_c, 0, 75, 119
1, 44669, Note_off_c, 0, 75, 119
1, 44679, Note_on_c, 0, 72, 117
1, 44726, Note_off_c, 0, 72, 117
1, 44729, Note_on_c, 0, 73, 121
1, 44767, Note_on_c, 0, 74, 117
1, 44767, Note_off_c, 0, 73, 121
1, 44847, Note_off_c, 0, 74, 117
1, 44873, Note_on_c, 0, 70, 109
1, 45206, Note_off_c, 0, 70, 109
1, 45291, Note_on_c, 0, 67, 111
1, 45346, Note_off_c, 0, 67, 111
1, 45361, Note_on_c, 0, 68, 117
1, 45455, Note_off_c, 0, 68, 117
1, 45476, Note_on_c, 0, 68, 118
1, 45535, Note_off_c, 0, 68, 118
1, 45543, Note_on_c, 0, 67, 116
1, 45605, Note_off_c, 0, 67, 116
1, 45630, Note_on_c, 0, 66, 119
1, 45709, Note_off_c, 0, 66, 119
1, 45726, Note_on_c, 0, 65, 119
1, 45819, Note_off_c, 0, 65, 119
1, 45827, Note_on_c, 0, 64, 119
1, 45863, Note_off_c, 0, 64, 119
1, 45877, Note_on_c, 0, 63, 117
1, 45982, Note_off_c, 0, 63, 117
1, 45990, Note_on_c, 0, 67, 115
1, 46058, Note_off_c, 0, 67, 115
1, 46068, Note_on_c, 0, 64, 116
1, 46161, Note_off_c, 0, 64, 116
1, 46163, Note_on_c, 0, 65, 119
1, 46228, Note_off_c, 0, 65, 119
1, 46245, Note_on_c, 0, 68, 117
1, 46366, Note_off_c, 0, 68, 117
1, 46383, Note_on_c, 0, 69, 103
1, 46418, Note_off_c, 0, 69, 103
1, 46437, Note_on_c, 0, 75, 118
1, 46541, Note_off_c, 0, 75, 118
1, 46559, Note_on_c, 0, 72, 117
1, 46629, Note_off_c, 0, 72, 117
1, 46658, Note_on_c, 0, 69, 111
1, 46754, Note_off_c, 0, 69, 111
1, 46766, Note_on_c, 0, 65, 119
1, 46829, Note_off_c, 0, 65, 119
1, 46843, Note_on_c, 0, 71, 109
1, 46907, Note_off_c, 0, 71, 109
1, 46920, Note_on_c, 0, 73, 121
1, 46984, Note_off_c, 0, 73, 121
1, 46999, Note_on_c, 0, 75, 122
1, 47090, Note_off_c, 0, 75, 122
1, 47099, Note_on_c, 0, 79, 119
1, 47180, Note_off_c, 0, 79, 119
1, 47216, Note_on_c, 0, 73, 120
1, 47309, Note_off_c, 0, 73, 120
1, 47322, Note_on_c, 0, 77, 106
1, 47364, Note_off_c, 0, 77, 106
1, 47385, Note_on_c, 0, 80, 119
1, 47489, Note_off_c, 0, 80, 119
1, 47507, Note_on_c, 0, 83, 107
1, 47590, Note_off_c, 0, 83, 107
1, 47600, Note_on_c, 0, 81, 118
1, 47674, Note_off_c, 0, 81, 118
1, 47693, Note_on_c, 0, 78, 120
1, 47763, Note_off_c, 0, 78, 120
1, 47772, Note_on_c, 0, 77, 123
1, 47869, Note_off_c, 0, 77, 123
1, 47881, Note_on_c, 0, 76, 119
1, 47966, Note_off_c, 0, 76, 119
1, 47975, Note_on_c, 0, 75, 120
1, 48055, Note_off_c, 0, 75, 120
1, 48063, Note_on_c, 0, 77, 120
1, 48144, Note_off_c, 0, 77, 120
1, 48150, Note_on_c, 0, 73, 119
1, 48241, Note_off_c, 0, 73, 119
1, 48260, Note_on_c, 0, 75, 120
1, 48358, Note_off_c, 0, 75, 120
1, 48365, Note_on_c, 0, 70, 108
1, 48452, Note_off_c, 0, 70, 108
1, 48458, Note_on_c, 0, 73, 117
1, 48523, Note_off_c, 0, 73, 117
1, 48557, Note_on_c, 0, 69, 115
1, 48647, Note_off_c, 0, 69, 115
1, 48657, Note_on_c, 0, 71, 108
1, 48721, Note_off_c, 0, 71, 108
1, 48735, Note_on_c, 0, 66, 117
1, 48829, Note_off_c, 0, 66, 117
1, 48846, Note_on_c, 0, 69, 119
1, 48920, Note_off_c, 0, 69, 119
1, 48927, Note_on_c, 0, 63, 116
1, 49017, Note_off_c, 0, 63, 116
1, 49024, Note_on_c, 0, 66, 118
1, 49086, Note_off_c, 0, 66, 118
1, 49110, Note_on_c, 0, 61, 114
1, 49197, Note_off_c, 0, 61, 114
1, 49211, Note_on_c, 0, 63, 118
1, 49284, Note_off_c, 0, 63, 118
1, 49310, Note_on_c, 0, 58, 109
1, 49412, Note_off_c, 0, 58, 109
1, 49441, Note_on_c, 0, 63, 9
1, 50538, Note_off_c, 0, 63, 9
1, 50553, Note_on_c, 0, 59, 115
1, 50596, Note_off_c, 0, 59, 115
1, 50614, Note_on_c, 0, 63, 113
1, 50652, Note_off_c, 0, 63, 113
1, 50661, Note_on_c, 0, 64, 116
1, 50693, Note_off_c, 0, 64, 116
1, 50694, Note_on_c, 0, 64, 114
1, 50784, Note_off_c, 0, 64, 114
1, 50793, Note_on_c, 0, 71, 112
1, 50841, Note_off_c, 0, 71, 112
1, 50847, Note_on_c, 0, 75, 126
1, 50974, Note_off_c, 0, 75, 126
1, 50978, Note_on_c, 0, 77, 115
1, 50996, Note_off_c, 0, 77, 115
1, 51004, Note_on_c, 0, 82, 111
1, 51030, Note_off_c, 0, 82, 111
1, 51044, Note_on_c, 0, 77, 121
1, 51101, Note_off_c, 0, 77, 121
1, 51121, Note_on_c, 0, 77, 112
1, 51176, Note_off_c, 0, 77, 112
1, 51185, Note_on_c, 0, 75, 108
1, 51203, Note_off_c, 0, 75, 108
1, 51203, Note_on_c, 0, 70, 111
1, 51244, Note_off_c, 0, 70, 111
1, 51254, Note_on_c, 0, 71, 101
1, 51297, Note_off_c, 0, 71, 101
1, 51326, Note_on_c, 0, 65, 119
1, 51374, Note_off_c, 0, 65, 119
1, 51388, Note_on_c, 0, 63, 105
1, 51459, Note_off_c, 0, 63, 105
1, 52998, Note_on_c, 0, 59, 116
1, 53050, Note_off_c, 0, 59, 116
1, 53061, Note_on_c, 0, 64, 115
1, 53090, Note_off_c, 0, 64, 115
1, 53092, Note_on_c, 0, 62, 117
1, 53157, Note_off_c, 0, 62, 117
1, 53170, Note_on_c, 0, 65, 122
1, 53230, Note_off_c, 0, 65, 122
1, 53238, Note_on_c, 0, 63, 100
1, 53280, Note_off_c, 0, 63, 100
1, 53286, Note_on_c, 0, 77, 121
1, 53326, Note_off_c, 0, 77, 121
1, 53326, Note_on_c, 0, 75, 122
1, 53367, Note_off_c, 0, 75, 122
1, 53375, Note_on_c, 0, 77, 122
1, 53418, Note_off_c, 0, 77, 122
1, 53427, Note_on_c, 0, 82, 108
1, 53459, Note_off_c, 0, 82, 108
1, 53464, Note_on_c, 0, 84, 110
1, 53499, Note_off_c, 0, 84, 110
1, 53530, Note_on_c, 0, 77, 112
1, 53576, Note_off_c, 0, 77, 112
1, 53588, Note_on_c, 0, 75, 114
1, 53621, Note_off_c, 0, 75, 114
1, 53626, Note_on_c, 0, 77, 113
1, 53675, Note_off_c, 0, 77, 113
1, 53687, Note_on_c, 0, 70, 111
1, 53722, Note_off_c, 0, 70, 111
1, 53733, Note_on_c, 0, 65, 123
1, 53774, Note_off_c, 0, 65, 123
1, 53789, Note_on_c, 0, 63, 110
1, 53901, Note_off_c, 0, 63, 110
1, 54994, Note_on_c, 0, 59, 114
1, 55055, Note_off_c, 0, 59, 114
1, 55075, Note_on_c, 0, 63, 113
1, 55175, Note_off_c, 0, 63, 113
1, 55197, Note_on_c, 0, 65, 119
1, 55229, Note_off_c, 0, 65, 119
1, 55238, Note_on_c, 0, 70, 110
1, 55277, Note_off_c, 0, 70, 110
1, 55280, Note_on_c, 0, 75, 107
1, 55295, Note_off_c, 0, 75, 107
1, 55303, Note_on_c, 0, 76, 118
1, 55320, Note_off_c, 0, 76, 118
1, 55332, Note_on_c, 0, 75, 119
1, 55389, Note_off_c, 0, 75, 119
1, 55393, Note_on_c, 0, 77, 119
1, 55434, Note_off_c, 0, 77, 119
1, 55444, Note_on_c, 0, 82, 101
1, 55465, Note_off_c, 0, 82, 101
1, 55471, Note_on_c, 0, 85, 114
1, 55498, Note_off_c, 0, 85, 114
1, 55500, Note_on_c, 0, 84, 113
1, 55528, Note_off_c, 0, 84, 113
1, 55537, Note_on_c, 0, 82, 104
1, 55627, Note_off_c, 0, 82, 104
1, 55683, Note_on_c, 0, 87, 112
1, 55735, Note_off_c, 0, 87, 112
1, 55741, Note_on_c, 0, 86, 108
1, 55826, Note_off_c, 0, 86, 108
1, 55867, Note_on_c, 0, 75, 109
1, 55895, Note_off_c, 0, 75, 109
1, 55899, Note_on_c, 0, 77, 116
1, 55946, Note_off_c, 0, 77, 116
1, 55977, Note_on_c, 0, 82, 105
1, 56022, Note_off_c, 0, 82, 105
1, 56026, Note_on_c, 0, 77, 110
1, 56075, Note_off_c, 0, 77, 110
1, 56078, Note_on_c, 0, 75, 94
1, 56144, Note_off_c, 0, 75, 94
1, 56234, Note_on_c, 0, 77, 119
1, 56287, Note_off_c, 0, 77, 119
1, 56297, Note_on_c, 0, 75, 110
1, 56383, Note_off_c, 0, 75, 110
1, 56384, Note_on_c, 0, 70, 114
1, 56414, Note_off_c, 0, 70, 114
1, 56428, Note_on_c, 0, 65, 120
1, 56484, Note_off_c, 0, 65, 120
1, 56498, Note_on_c, 0, 58, 104
1, 56575, Note_off_c, 0, 58, 104
1, 58319, Note_on_c, 0, 82, 110
1, 58398, Note_off_c, 0, 82, 110
1, 58413, Note_on_c, 0, 82, 115
1, 58489, Note_off_c, 0, 82, 115
1, 58501, Note_on_c, 0, 83, 100
1, 58577, Note_off_c, 0, 83, 100
1, 58598, Note_on_c, 0, 82, 96
1, 58671, Note_off_c, 0, 82, 96
1, 58689, Note_on_c, 0, 81, 113
1, 58769, Note_off_c, 0, 81, 113
1, 58784, Note_on_c, 0, 83, 109
1, 58863, Note_off_c, 0, 83, 109
1, 58866, Note_on_c, 0, 85, 109
1, 58966, Note_off_c, 0, 85, 109
1, 59027, Note_on_c, 0, 78, 109
1, 59073, Note_off_c, 0, 78, 109
1, 59083, Note_on_c, 0, 81, 118
1, 59177, Note_off_c, 0, 81, 118
1, 59185, Note_on_c, 0, 78, 115
1, 59262, Note_off_c, 0, 78, 115
1, 59277, Note_on_c, 0, 73, 124
1, 59419, Note_off_c, 0, 73, 124
1, 59449, Note_on_c, 0, 75, 122
1, 59579, Note_off_c, 0, 75, 122
1, 59588, Note_on_c, 0, 77, 123
1, 59640, Note_off_c, 0, 77, 123
1, 59646, Note_on_c, 0, 79, 122
1, 59755, Note_off_c, 0, 79, 122
1, 59766, Note_on_c, 0, 78, 119
1, 59872, Note_off_c, 0, 78, 119
1, 59882, Note_on_c, 0, 77, 119
1, 59954, Note_off_c, 0, 77, 119
1, 59963, Note_on_c, 0, 76, 119
1, 60023, Note_off_c, 0, 76, 119
1, 60035, Note_on_c, 0, 75, 114
1, 60133, Note_off_c, 0, 75, 114
1, 60148, Note_on_c, 0, 79, 115
1, 60227, Note_off_c, 0, 79, 115
1, 60236, Note_on_c, 0, 74, 114
1, 60354, Note_off_c, 0, 74, 114
1, 60363, Note_on_c, 0, 75, 115
1, 60400, Note_off_c, 0, 75, 115
1, 60410, Note_on_c, 0, 77, 122
1, 60529, Note_off_c, 0, 77, 122
1, 60546, Note_on_c, 0, 74, 102
1, 60619, Note_off_c, 0, 74, 102
1, 60624, Note_on_c, 0, 75, 120
1, 60718, Note_off_c, 0, 75, 120
1, 60728, Note_on_c, 0, 73, 118
1, 60810, Note_off_c, 0, 73, 118
1, 60821, Note_on_c, 0, 70, 110
1, 60912, Note_off_c, 0, 70, 110
1, 60921, Note_on_c, 0, 69, 102
1, 61003, Note_off_c, 0, 69, 102
1, 61009, Note_on_c, 0, 70, 114
1, 61113, Note_off_c, 0, 70, 114
1, 61124, Note_on_c, 0, 66, 120
1, 61204, Note_off_c, 0, 66, 120
1, 61218, Note_on_c, 0, 65, 123
1, 61291, Note_off_c, 0, 65, 123
1, 61304, Note_on_c, 0, 64, 117
1, 61371, Note_off_c, 0, 64, 117
1, 61390, Note_on_c, 0, 63, 119
1, 61470, Note_off_c, 0, 63, 119
1, 61478, Note_on_c, 0, 65, 118
1, 61572, Note_off_c, 0, 65, 118
1, 61590, Note_on_c, 0, 67, 116
1, 61684, Note_off_c, 0, 67, 116
1, 61700, Note_on_c, 0, 70, 104
1, 61735, Note_off_c, 0, 70, 104
1, 61745, Note_on_c, 0, 72, 115
1, 61861, Note_off_c, 0, 72, 115
1, 61891, Note_on_c, 0, 74, 117
1, 61922, Note_off_c, 0, 74, 117
1, 61934, Note_on_c, 0, 77, 116
1, 62071, Note_off_c, 0, 77, 116
1, 62080, Note_on_c, 0, 74, 108
1, 62142, Note_off_c, 0, 74, 108
1, 62143, Note_on_c, 0, 75, 120
1, 62249, Note_off_c, 0, 75, 120
1, 62276, Note_on_c, 0, 72, 112
1, 62341, Note_off_c, 0, 72, 112
1, 62351, Note_on_c, 0, 70, 110
1, 62440, Note_off_c, 0, 70, 110
1, 62466, Note_on_c, 0, 66, 104
1, 62511, Note_off_c, 0, 66, 104
1, 62528, Note_on_c, 0, 70, 112
1, 62624, Note_off_c, 0, 70, 112
1, 62650, Note_on_c, 0, 66, 117
1, 62709, Note_off_c, 0, 66, 117
1, 62720, Note_on_c, 0, 65, 120
1, 62832, Note_off_c, 0, 65, 120
1, 62837, Note_on_c, 0, 64, 113
1, 62895, Note_off_c, 0, 64, 113
1, 62900, Note_on_c, 0, 63, 114
1, 62987, Note_off_c, 0, 63, 114
1, 63007, Note_on_c, 0, 65, 120
1, 63084, Note_off_c, 0, 65, 120
1, 63097, Note_on_c, 0, 67, 115
1, 63180, Note_off_c, 0, 67, 115
1, 63199, Note_on_c, 0, 70, 99
1, 63266, Note_off_c, 0, 70, 99
1, 63274, Note_on_c, 0, 72, 112
1, 63442, Note_off_c, 0, 72, 112
1, 63456, Note_on_c, 0, 75, 120
1, 63556, Note_off_c, 0, 75, 120
1, 63675, Note_on_c, 0, 70, 114
1, 63854, Note_off_c, 0, 70, 114
1, 63879, Note_on_c, 0, 62, 102
1, 63961, Note_off_c, 0, 62, 102
1, 64071, Note_on_c, 0, 64, 115
1, 64113, Note_off_c, 0, 64, 115
1, 64122, Note_on_c, 0, 66, 112
1, 64255, Note_off_c, 0, 66, 112
1, 64263, Note_on_c, 0, 67, 113
1, 64358, Note_off_c, 0, 67, 113
1, 64390, Note_on_c, 0, 72, 103
1, 64613, Note_off_c, 0, 72, 103
1, 64623, Note_on_c, 0, 70, 106
1, 64723, Note_off_c, 0, 70, 106
1, 65979, Note_on_c, 0, 70, 113
1, 66085, Note_off_c, 0, 70, 113
1, 66096, Note_on_c, 0, 67, 108
1, 66163, Note_off_c, 0, 67, 108
1, 66177, Note_on_c, 0, 70, 117
1, 66295, Note_off_c, 0, 70, 117
1, 66317, Note_on_c, 0, 67, 117
1, 66383, Note_off_c, 0, 67, 117
1, 66387, Note_on_c, 0, 68, 118
1, 66683, Note_off_c, 0, 68, 118
1, 66688, Note_on_c, 0, 66, 115
1, 67030, Note_off_c, 0, 66, 115
1, 67498, Note_on_c, 0, 68, 121
1, 67587, Note_off_c, 0, 68, 121
1, 67595, Note_on_c, 0, 66, 119
1, 67670, Note_off_c, 0, 66, 119
1, 67679, Note_on_c, 0, 68, 118
1, 67782, Note_off_c, 0, 68, 118
1, 67797, Note_on_c, 0, 65, 116
1, 67902, Note_off_c, 0, 65, 116
1, 67916, Note_on_c, 0, 66, 115
1, 68080, Note_off_c, 0, 66, 115
1, 68097, Note_on_c, 0, 67, 116
1, 68167, Note_off_c, 0, 67, 116
1, 68179, Note_on_c, 0, 66, 115
1, 68248, Note_off_c, 0, 66, 115
1, 68265, Note_on_c, 0, 65, 115
1, 68353, Note_off_c, 0, 65, 115
1, 68360, Note_on_c, 0, 64, 111
1, 68407, Note_off_c, 0, 64, 111
1, 68412, Note_on_c, 0, 65, 116
1, 68499, Note_off_c, 0, 65, 116
1, 68522, Note_on_c, 0, 65, 112
1, 68630, Note_off_c, 0, 65, 112
1, 68644, Note_on_c, 0, 64, 118
1, 68700, Note_off_c, 0, 64, 118
1, 68703, Note_on_c, 0, 65, 120
1, 68957, Note_off_c, 0, 65, 120
1, 68967, Note_on_c, 0, 63, 118
1, 69109, Note_off_c, 0, 63, 118
1, 69128, Note_on_c, 0, 64, 114
1, 69313, Note_off_c, 0, 64, 114
1, 69325, Note_on_c, 0, 62, 109
1, 69394, Note_off_c, 0, 62, 109
1, 69399, Note_on_c, 0, 63, 113
1, 69598, Note_off_c, 0, 63, 113
1, 69616, Note_on_c, 0, 62, 113
1, 69665, Note_off_c, 0, 62, 113
1, 69667, Note_on_c, 0, 63, 114
1, 69746, Note_off_c, 0, 63, 114
1, 69755, Note_on_c, 0, 61, 111
1, 70091, Note_off_c, 0, 61, 111
1, 70114, Note_on_c, 0, 63, 110
1, 70166, Note_off_c, 0, 63, 110
1, 70197, Note_on_c, 0, 61, 113
1, 70437, Note_off_c, 0, 61, 113
1, 70451, Note_on_c, 0, 60, 113
1, 70530, Note_off_c, 0, 60, 113
1, 70540, Note_on_c, 0, 59, 115
1, 70832, Note_off_c, 0, 59, 115
1, 70901, Note_on_c, 0, 59, 115
1, 71061, Note_off_c, 0, 59, 115
1, 71076, Note_on_c, 0, 61, 114
1, 71258, Note_off_c, 0, 61, 114
1, 71284, Note_on_c, 0, 63, 114
1, 71434, Note_off_c, 0, 63, 114
1, 71463, Note_on_c, 0, 64, 116
1, 71611, Note_off_c, 0, 64, 116
1, 71638, Note_on_c, 0, 66, 117
1, 71818, Note_off_c, 0, 66, 117
1, 71839, Note_on_c, 0, 68, 117
1, 71993, Note_off_c, 0, 68, 117
1, 72006, Note_on_c, 0, 69, 120
1, 72181, Note_off_c, 0, 69, 120
1, 72201, Note_on_c, 0, 71, 111
1, 72295, Note_off_c, 0, 71, 111
1, 72313, Note_on_c, 0, 73, 118
1, 72378, Note_off_c, 0, 73, 118
1, 72393, Note_on_c, 0, 71, 110
1, 72563, Note_off_c, 0, 71, 110
1, 72590, Note_on_c, 0, 69, 117
1, 72732, Note_off_c, 0, 69, 117
1, 72742, Note_on_c, 0, 68, 115
1, 72915, Note_off_c, 0, 68, 115
1, 72938, Note_on_c, 0, 80, 117
1, 72997, Note_off_c, 0, 80, 117
1, 76776, Note_on_c, 0, 79, 120
1, 76849, Note_off_c, 0, 79, 120
1, 76864, Note_on_c, 0, 82, 102
1, 76934, Note_off_c, 0, 82, 102
1, 76968, Note_on_c, 0, 86, 110
1, 77047, Note_off_c, 0, 86, 110
1, 77059, Note_on_c, 0, 87, 111
1, 77174, Note_off_c, 0, 87, 111
1, 77597, Note_on_c, 0, 82, 110
1, 77723, Note_off_c, 0, 82, 110
1, 77748, Note_on_c, 0, 84, 106
1, 77808, Note_off_c, 0, 84, 106
1, 78299, Note_on_c, 0, 79, 120
1, 78369, Note_off_c, 0, 79, 120
1, 78381, Note_on_c, 0, 82, 110
1, 78460, Note_off_c, 0, 82, 110
1, 78485, Note_on_c, 0, 86, 121
1, 78560, Note_off_c, 0, 86, 121
1, 78586, Note_on_c, 0, 87, 107
1, 78631, Note_off_c, 0, 87, 107
1, 78658, Note_on_c, 0, 87, 97
1, 78733, Note_off_c, 0, 87, 97
1, 78765, Note_on_c, 0, 87, 99
1, 78858, Note_off_c, 0, 87, 99
1, 78887, Note_on_c, 0, 87, 99
1, 78957, Note_off_c, 0, 87, 99
1, 78986, Note_on_c, 0, 87, 108
1, 79065, Note_off_c, 0, 87, 108
1, 79134, Note_on_c, 0, 86, 99
1, 79183, Note_off_c, 0, 86, 99
1, 79197, Note_on_c, 0, 82, 99
1, 79254, Note_off_c, 0, 82, 99
1, 79312, Note_on_c, 0, 70, 111
1, 79437, Note_off_c, 0, 70, 111
1, 79698, Note_on_c, 0, 78, 71
1, 79757, Note_off_c, 0, 78, 71
1, 79833, Note_on_c, 0, 79, 115
1, 79931, Note_off_c, 0, 79, 115
1, 79943, Note_on_c, 0, 82, 108
1, 80003, Note_off_c, 0, 82, 108
1, 80029, Note_on_c, 0, 85, 118
1, 80132, Note_off_c, 0, 85, 118
1, 80186, Note_on_c, 0, 87, 90
1, 80245, Note_off_c, 0, 87, 90
1, 80669, Note_on_c, 0, 86, 117
1, 80718, Note_off_c, 0, 86, 117
1, 80721, Note_on_c, 0, 85, 114
1, 80772, Note_off_c, 0, 85, 114
1, 80808, Note_on_c, 0, 82, 105
1, 80899, Note_off_c, 0, 82, 105
1, 81236, Note_on_c, 0, 82, 112
1, 81385, Note_off_c, 0, 82, 112
1, 81422, Note_on_c, 0, 78, 120
1, 81546, Note_off_c, 0, 78, 120
1, 81567, Note_on_c, 0, 82, 117
1, 81627, Note_off_c, 0, 82, 117
1, 81642, Note_on_c, 0, 79, 123
1, 81733, Note_off_c, 0, 79, 123
1, 81743, Note_on_c, 0, 82, 114
1, 81835, Note_off_c, 0, 82, 114
1, 82260, Note_on_c, 0, 85, 95
1, 82302, Note_off_c, 0, 85, 95
1, 82310, Note_on_c, 0, 87, 115
1, 82365, Note_off_c, 0, 87, 115
1, 82377, Note_on_c, 0, 88, 81
1, 82536, Note_off_c, 0, 88, 81
1, 82545, Note_on_c, 0, 89, 98
1, 83564, Note_off_c, 0, 89, 98
1, 83595, Note_on_c, 0, 90, 110
1, 83683, Note_off_c, 0, 90, 110
1, 83701, Note_on_c, 0, 89, 115
1, 83752, Note_off_c, 0, 89, 115
1, 83762, Note_on_c, 0, 90, 118
1, 83852, Note_off_c, 0, 90, 118
1, 83899, Note_on_c, 0, 83, 115
1, 83979, Note_off_c, 0, 83, 115
1, 83986, Note_on_c, 0, 82, 119
1, 84274, Note_off_c, 0, 82, 119
1, 84291, Note_on_c, 0, 80, 104
1, 84343, Note_off_c, 0, 80, 104
1, 84355, Note_on_c, 0, 81, 123
1, 84455, Note_off_c, 0, 81, 123
1, 84474, Note_on_c, 0, 72, 112
1, 84533, Note_off_c, 0, 72, 112
1, 84542, Note_on_c, 0, 78, 125
1, 84641, Note_off_c, 0, 78, 125
1, 84651, Note_on_c, 0, 81, 120
1, 84736, Note_off_c, 0, 81, 120
1, 84738, Note_on_c, 0, 80, 119
1, 84837, Note_off_c, 0, 80, 119
1, 84846, Note_on_c, 0, 79, 126
1, 84905, Note_off_c, 0, 79, 126
1, 84915, Note_on_c, 0, 78, 121
1, 85025, Note_off_c, 0, 78, 121
1, 85049, Note_on_c, 0, 72, 105
1, 85113, Note_off_c, 0, 72, 105
1, 85127, Note_on_c, 0, 77, 125
1, 85224, Note_off_c, 0, 77, 125
1, 85231, Note_on_c, 0, 76, 124
1, 85296, Note_off_c, 0, 76, 124
1, 85306, Note_on_c, 0, 75, 117
1, 85381, Note_off_c, 0, 75, 117
1, 85396, Note_on_c, 0, 79, 123
1, 85484, Note_off_c, 0, 79, 123
1, 85496, Note_on_c, 0, 75, 122
1, 85587, Note_off_c, 0, 75, 122
1, 85601, Note_on_c, 0, 77, 127
1, 85670, Note_off_c, 0, 77, 127
1, 85683, Note_on_c, 0, 78, 122
1, 85787, Note_off_c, 0, 78, 122
1, 85801, Note_on_c, 0, 75, 110
1, 85828, Note_off_c, 0, 75, 110
1, 85852, Note_on_c, 0, 76, 126
1, 85952, Note_off_c, 0, 76, 126
1, 85979, Note_on_c, 0, 73, 121
1, 86066, Note_off_c, 0, 73, 121
1, 86083, Note_on_c, 0, 70, 118
1, 86197, Note_off_c, 0, 70, 118
1, 86210, Note_on_c, 0, 66, 116
1, 86255, Note_off_c, 0, 66, 116
1, 86278, Note_on_c, 0, 69, 115
1, 86357, Note_off_c, 0, 69, 115
1, 86365, Note_on_c, 0, 75, 124
1, 86438, Note_off_c, 0, 75, 124
1, 86444, Note_on_c, 0, 73, 122
1, 86540, Note_off_c, 0, 73, 122
1, 86555, Note_on_c, 0, 70, 106
1, 86651, Note_off_c, 0, 70, 106
1, 86659, Note_on_c, 0, 71, 114
1, 86736, Note_off_c, 0, 71, 114
1, 86749, Note_on_c, 0, 68, 119
1, 86834, Note_off_c, 0, 68, 119
1, 86846, Note_on_c, 0, 67, 119
1, 86927, Note_off_c, 0, 67, 119
1, 86940, Note_on_c, 0, 66, 121
1, 87026, Note_off_c, 0, 66, 121
1, 87035, Note_on_c, 0, 65, 124
1, 87161, Note_off_c, 0, 65, 124
1, 87169, Note_on_c, 0, 64, 117
1, 87212, Note_off_c, 0, 64, 117
1, 87225, Note_on_c, 0, 63, 116
1, 87315, Note_off_c, 0, 63, 116
1, 87328, Note_on_c, 0, 65, 122
1, 87399, Note_off_c, 0, 65, 122
1, 87423, Note_on_c, 0, 63, 116
1, 87515, Note_off_c, 0, 63, 116
1, 87532, Note_on_c, 0, 65, 113
1, 87587, Note_off_c, 0, 65, 113
1, 87601, Note_on_c, 0, 70, 119
1, 87669, Note_off_c, 0, 70, 119
1, 87682, Note_on_c, 0, 72, 114
1, 87740, Note_off_c, 0, 72, 114
1, 87785, Note_on_c, 0, 70, 114
1, 87864, Note_off_c, 0, 70, 114
1, 87879, Note_on_c, 0, 72, 111
1, 87932, Note_off_c, 0, 72, 111
1, 87947, Note_on_c, 0, 75, 120
1, 88038, Note_off_c, 0, 75, 120
1, 88059, Note_on_c, 0, 70, 108
1, 88141, Note_off_c, 0, 70, 108
1, 88156, Note_on_c, 0, 77, 125
1, 88250, Note_off_c, 0, 77, 125
1, 88262, Note_on_c, 0, 70, 111
1, 88327, Note_off_c, 0, 70, 111
1, 88346, Note_on_c, 0, 75, 119
1, 88442, Note_off_c, 0, 75, 119
1, 88459, Note_on_c, 0, 79, 113
1, 88585, Note_off_c, 0, 79, 113
1, 88643, Note_on_c, 0, 75, 118
1, 88716, Note_off_c, 0, 75, 118
1, 88730, Note_on_c, 0, 82, 114
1, 88812, Note_off_c, 0, 82, 114
1, 88830, Note_on_c, 0, 72, 104
1, 88893, Note_off_c, 0, 72, 104
1, 88910, Note_on_c, 0, 67, 118
1, 88992, Note_off_c, 0, 67, 118
1, 89007, Note_on_c, 0, 70, 115
1, 89076, Note_off_c, 0, 70, 115
1, 89093, Note_on_c, 0, 63, 114
1, 89153, Note_off_c, 0, 63, 114
1, 89174, Note_on_c, 0, 70, 113
1, 89254, Note_off_c, 0, 70, 113
1, 89266, Note_on_c, 0, 61, 111
1, 89370, Note_off_c, 0, 61, 111
1, 89370, Note_on_c, 0, 70, 118
1, 89450, Note_off_c, 0, 70, 118
1, 89458, Note_on_c, 0, 63, 112
1, 89529, Note_off_c, 0, 63, 112
1, 89547, Note_on_c, 0, 70, 119
1, 89615, Note_off_c, 0, 70, 119
1, 89636, Note_on_c, 0, 70, 117
1, 89771, Note_off_c, 0, 70, 117
1, 90059, Note_on_c, 0, 63, 114
1, 90146, Note_off_c, 0, 63, 114
1, 90153, Note_on_c, 0, 70, 116
1, 90226, Note_off_c, 0, 70, 116
1, 90238, Note_on_c, 0, 61, 111
1, 90315, Note_off_c, 0, 61, 111
1, 90335, Note_on_c, 0, 70, 115
1, 90422, Note_off_c, 0, 70, 115
1, 90435, Note_on_c, 0, 63, 112
1, 90522, Note_off_c, 0, 63, 112
1, 90545, Note_on_c, 0, 70, 116
1, 90619, Note_off_c, 0, 70, 116
1, 90626, Note_on_c, 0, 70, 115
1, 90725, Note_off_c, 0, 70, 115
1, 90744, Note_on_c, 0, 70, 119
1, 90830, Note_off_c, 0, 70, 119
1, 90830, Note_on_c, 0, 63, 110
1, 90911, Note_off_c, 0, 63, 110
1, 90921, Note_on_c, 0, 70, 114
1, 90997, Note_off_c, 0, 70, 114
1, 91010, Note_on_c, 0, 63, 93
1, 91080, Note_off_c, 0, 63, 93
1, 91111, Note_on_c, 0, 70, 118
1, 91185, Note_off_c, 0, 70, 118
1, 91191, Note_on_c, 0, 64, 115
1, 91293, Note_off_c, 0, 64, 115
1, 92104, Note_on_c, 0, 58, 114
1, 92192, Note_off_c, 0, 58, 114
1, 92210, Note_on_c, 0, 61, 102
1, 92257, Note_off_c, 0, 61, 102
1, 92281, Note_on_c, 0, 63, 116
1, 92334, Note_off_c, 0, 63, 116
1, 92343, Note_on_c, 0, 66, 119
1, 92395, Note_off_c, 0, 66, 119
1, 92407, Note_on_c, 0, 64, 114
1, 92448, Note_off_c, 0, 64, 114
1, 92454, Note_on_c, 0, 65, 119
1, 92500, Note_off_c, 0, 65, 119
1, 92515, Note_on_c, 0, 68, 119
1, 92568, Note_off_c, 0, 68, 119
1, 92617, Note_on_c, 0, 72, 116
1, 92671, Note_off_c, 0, 72, 116
1, 92679, Note_on_c, 0, 74, 112
1, 92698, Note_off_c, 0, 74, 112
1, 92710, Note_on_c, 0, 77, 117
1, 92750, Note_off_c, 0, 77, 117
1, 92756, Note_on_c, 0, 78, 117
1, 92786, Note_off_c, 0, 78, 117
1, 92794, Note_on_c, 0, 76, 116
1, 92828, Note_off_c, 0, 76, 116
1, 92840, Note_on_c, 0, 77, 117
1, 92894, Note_off_c, 0, 77, 117
1, 92904, Note_on_c, 0, 79, 117
1, 92991, Note_off_c, 0, 79, 117
1, 92993, Note_on_c, 0, 77, 117
1, 93036, Note_off_c, 0, 77, 117
1, 93055, Note_on_c, 0, 75, 114
1, 93125, Note_off_c, 0, 75, 114
1, 93131, Note_on_c, 0, 72, 107
1, 93169, Note_off_c, 0, 72, 107
1, 93172, Note_on_c, 0, 69, 102
1, 93220, Note_off_c, 0, 69, 102
1, 93226, Note_on_c, 0, 65, 99
1, 93262, Note_off_c, 0, 65, 99
1, 93268, Note_on_c, 0, 66, 107
1, 93291, Note_off_c, 0, 66, 107
1, 93295, Note_on_c, 0, 67, 111
1, 93313, Note_off_c, 0, 67, 111
1, 93317, Note_on_c, 0, 71, 110
1, 93334, Note_off_c, 0, 71, 110
1, 93348, Note_on_c, 0, 74, 115
1, 93393, Note_off_c, 0, 74, 115
1, 93401, Note_on_c, 0, 73, 120
1, 93472, Note_off_c, 0, 73, 120
1, 93478, Note_on_c, 0, 74, 118
1, 93544, Note_off_c, 0, 74, 118
1, 93557, Note_on_c, 0, 70, 109
1, 93619, Note_on_c, 0, 61, 113
1, 93619, Note_off_c, 0, 70, 109
1, 93696, Note_off_c, 0, 61, 113
1, 93703, Note_on_c, 0, 62, 114
1, 93766, Note_off_c, 0, 62, 114
1, 93778, Note_on_c, 0, 65, 104
1, 93808, Note_off_c, 0, 65, 104
1, 93822, Note_on_c, 0, 64, 115
1, 93882, Note_off_c, 0, 64, 115
1, 93889, Note_on_c, 0, 65, 121
1, 93958, Note_off_c, 0, 65, 121
1, 93968, Note_on_c, 0, 67, 113
1, 94013, Note_off_c, 0, 67, 113
1, 94022, Note_on_c, 0, 69, 114
1, 94062, Note_off_c, 0, 69, 114
1, 94065, Note_on_c, 0, 70, 107
1, 94086, Note_off_c, 0, 70, 107
1, 94089, Note_on_c, 0, 73, 107
1, 94113, Note_off_c, 0, 73, 107
1, 94125, Note_on_c, 0, 74, 116
1, 94162, Note_off_c, 0, 74, 116
1, 94165, Note_on_c, 0, 75, 109
1, 94185, Note_off_c, 0, 75, 109
1, 94197, Note_on_c, 0, 73, 111
1, 94245, Note_off_c, 0, 73, 111
1, 94259, Note_on_c, 0, 76, 113
1, 94294, Note_off_c, 0, 76, 113
1, 94297, Note_on_c, 0, 74, 110
1, 94322, Note_off_c, 0, 74, 110
1, 94341, Note_on_c, 0, 78, 116
1, 94394, Note_off_c, 0, 78, 116
1, 94397, Note_on_c, 0, 79, 112
1, 94483, Note_off_c, 0, 79, 112
1, 94495, Note_on_c, 0, 80, 108
1, 94550, Note_off_c, 0, 80, 108
1, 94577, Note_on_c, 0, 82, 102
1, 94651, Note_off_c, 0, 82, 102
1, 94665, Note_on_c, 0, 83, 93
1, 94685, Note_off_c, 0, 83, 93
1, 94694, Note_on_c, 0, 84, 109
1, 94748, Note_off_c, 0, 84, 109
1, 94761, Note_on_c, 0, 83, 101
1, 94863, Note_off_c, 0, 83, 101
1, 94903, Note_on_c, 0, 75, 104
1, 94984, Note_off_c, 0, 75, 104
1, 94997, Note_on_c, 0, 77, 108
1, 95043, Note_off_c, 0, 77, 108
1, 95058, Note_on_c, 0, 72, 100
1, 95098, Note_off_c, 0, 72, 100
1, 95124, Note_on_c, 0, 67, 105
1, 95188, Note_off_c, 0, 67, 105
1, 95194, Note_on_c, 0, 63, 108
1, 95234, Note_off_c, 0, 63, 108
1, 95235, Note_on_c, 0, 60, 105
1, 95334, Note_off_c, 0, 60, 105
1, 96679, Note_on_c, 0, 72, 114
1, 96725, Note_off_c, 0, 72, 114
1, 96735, Note_on_c, 0, 74, 113
1, 96761, Note_off_c, 0, 74, 113
1, 96780, Note_on_c, 0, 73, 114
1, 96835, Note_off_c, 0, 73, 114
1, 96848, Note_on_c, 0, 76, 108
1, 96863, Note_off_c, 0, 76, 108
1, 96878, Note_on_c, 0, 73, 119
1, 96927, Note_off_c, 0, 73, 119
1, 96935, Note_on_c, 0, 70, 105
1, 96954, Note_off_c, 0, 70, 105
1, 96966, Note_on_c, 0, 72, 112
1, 97032, Note_off_c, 0, 72, 112
1, 97039, Note_on_c, 0, 74, 110
1, 97059, Note_off_c, 0, 74, 110
1, 97073, Note_on_c, 0, 73, 120
1, 97114, Note_off_c, 0, 73, 120
1, 97134, Note_on_c, 0, 76, 115
1, 97166, Note_off_c, 0, 76, 115
1, 97181, Note_on_c, 0, 73, 116
1, 97227, Note_off_c, 0, 73, 116
1, 97245, Note_on_c, 0, 76, 110
1, 97261, Note_off_c, 0, 76, 110
1, 97285, Note_on_c, 0, 72, 107
1, 97348, Note_off_c, 0, 72, 107
1, 97352, Note_on_c, 0, 76, 110
1, 97384, Note_off_c, 0, 76, 110
1, 97397, Note_on_c, 0, 75, 95
1, 97435, Note_off_c, 0, 75, 95
1, 97451, Note_on_c, 0, 74, 119
1, 97494, Note_off_c, 0, 74, 119
1, 97503, Note_on_c, 0, 76, 117
1, 97522, Note_off_c, 0, 76, 117
1, 97524, Note_on_c, 0, 75, 120
1, 97554, Note_off_c, 0, 75, 120
1, 97558, Note_on_c, 0, 74, 115
1, 97615, Note_off_c, 0, 74, 115
1, 97623, Note_on_c, 0, 76, 109
1, 97677, Note_off_c, 0, 76, 109
1, 97694, Note_on_c, 0, 77, 114
1, 97758, Note_off_c, 0, 77, 114
1, 97820, Note_on_c, 0, 77, 113
1, 97899, Note_off_c, 0, 77, 113
1, 97923, Note_on_c, 0, 79, 115
1, 97963, Note_off_c, 0, 79, 115
1, 97971, Note_on_c, 0, 80, 114
1, 98037, Note_off_c, 0, 80, 114
1, 98043, Note_on_c, 0, 81, 116
1, 98066, Note_off_c, 0, 81, 116
1, 98075, Note_on_c, 0, 82, 119
1, 98101, Note_off_c, 0, 82, 119
1, 98119, Note_on_c, 0, 81, 111
1, 98153, Note_off_c, 0, 81, 111
1, 98156, Note_on_c, 0, 82, 111
1, 98187, Note_off_c, 0, 82, 111
1, 98197, Note_on_c, 0, 79, 93
1, 98240, Note_off_c, 0, 79, 93
1, 98264, Note_on_c, 0, 83, 101
1, 98298, Note_off_c, 0, 83, 101
1, 98311, Note_on_c, 0, 85, 103
1, 98340, Note_off_c, 0, 85, 103
1, 98352, Note_on_c, 0, 86, 112
1, 98417, Note_off_c, 0, 86, 112
1, 98423, Note_on_c, 0, 87, 110
1, 98447, Note_off_c, 0, 87, 110
1, 98459, Note_on_c, 0, 86, 107
1, 98538, Note_off_c, 0, 86, 107
1, 98547, Note_on_c, 0, 85, 105
1, 98607, Note_off_c, 0, 85, 105
1, 98631, Note_on_c, 0, 84, 106
1, 98694, Note_off_c, 0, 84, 106
1, 98706, Note_on_c, 0, 83, 106
1, 98770, Note_off_c, 0, 83, 106
1, 98783, Note_on_c, 0, 82, 114
1, 98888, Note_off_c, 0, 82, 114
1, 98903, Note_on_c, 0, 81, 113
1, 98991, Note_off_c, 0, 81, 113
1, 99006, Note_on_c, 0, 80, 109
1, 99079, Note_off_c, 0, 80, 109
1, 99089, Note_on_c, 0, 77, 107
1, 99153, Note_off_c, 0, 77, 107
1, 99155, Note_on_c, 0, 79, 109
1, 99188, Note_off_c, 0, 79, 109
1, 99192, Note_on_c, 0, 77, 113
1, 99230, Note_off_c, 0, 77, 113
1, 99234, Note_on_c, 0, 78, 109
1, 99272, Note_off_c, 0, 78, 109
1, 99280, Note_on_c, 0, 76, 110
1, 99327, Note_off_c, 0, 76, 110
1, 99342, Note_on_c, 0, 77, 112
1, 99383, Note_off_c, 0, 77, 112
1, 99388, Note_on_c, 0, 74, 116
1, 99449, Note_off_c, 0, 74, 116
1, 99459, Note_on_c, 0, 73, 113
1, 99483, Note_off_c, 0, 73, 113
1, 99488, Note_on_c, 0, 72, 109
1, 99546, Note_off_c, 0, 72, 109
1, 99556, Note_on_c, 0, 70, 108
1, 99687, Note_off_c, 0, 70, 108
1, 99690, Note_on_c, 0, 68, 109
1, 99725, Note_off_c, 0, 68, 109
1, 101855, Note_on_c, 0, 79, 111
1, 102000, Note_off_c, 0, 79, 111
1, 102006, Note_on_c, 0, 80, 118
1, 102136, Note_off_c, 0, 80, 118
1, 102159, Note_on_c, 0, 79, 110
1, 102489, Note_off_c, 0, 79, 110
1, 102552, Note_on_c, 0, 80, 109
1, 102617, Note_off_c, 0, 80, 109
1, 102634, Note_on_c, 0, 79, 113
1, 102712, Note_off_c, 0, 79, 113
1, 102729, Note_on_c, 0, 80, 119
1, 102805, Note_off_c, 0, 80, 119
1, 102820, Note_on_c, 0, 79, 111
1, 102895, Note_off_c, 0, 79, 111
1, 102918, Note_on_c, 0, 78, 114
1, 103003, Note_off_c, 0, 78, 114
1, 103009, Note_on_c, 0, 79, 113
1, 103062, Note_off_c, 0, 79, 113
1, 103089, Note_on_c, 0, 80, 120
1, 103172, Note_off_c, 0, 80, 120
1, 103182, Note_on_c, 0, 79, 114
1, 103271, Note_off_c, 0, 79, 114
1, 103280, Note_on_c, 0, 78, 116
1, 103367, Note_off_c, 0, 78, 116
1, 103373, Note_on_c, 0, 79, 116
1, 103468, Note_off_c, 0, 79, 116
1, 103471, Note_on_c, 0, 80, 118
1, 103559, Note_off_c, 0, 80, 118
1, 103567, Note_on_c, 0, 79, 115
1, 103678, Note_off_c, 0, 79, 115
1, 103692, Note_on_c, 0, 78, 107
1, 103765, Note_off_c, 0, 78, 107
1, 103770, Note_on_c, 0, 79, 113
1, 103870, Note_off_c, 0, 79, 113
1, 103881, Note_on_c, 0, 80, 116
1, 103948, Note_off_c, 0, 80, 116
1, 103956, Note_on_c, 0, 79, 117
1, 104033, Note_off_c, 0, 79, 117
1, 104053, Note_on_c, 0, 78, 114
1, 104123, Note_off_c, 0, 78, 114
1, 104130, Note_on_c, 0, 79, 117
1, 104215, Note_off_c, 0, 79, 117
1, 104235, Note_on_c, 0, 80, 119
1, 104292, Note_off_c, 0, 80, 119
1, 104318, Note_on_c, 0, 79, 118
1, 104404, Note_off_c, 0, 79, 118
1, 104416, Note_on_c, 0, 78, 112
1, 104489, Note_off_c, 0, 78, 112
1, 104496, Note_on_c, 0, 79, 116
1, 104586, Note_off_c, 0, 79, 116
1, 104876, Note_on_c, 0, 80, 112
1, 104990, Note_off_c, 0, 80, 112
1, 105243, Note_on_c, 0, 79, 118
1, 105350, Note_off_c, 0, 79, 118
1, 105680, Note_on_c, 0, 78, 117
1, 105794, Note_off_c, 0, 78, 117
1, 105801, Note_on_c, 0, 79, 115
1, 105864, Note_off_c, 0, 79, 115
1, 105870, Note_on_c, 0, 80, 116
1, 105969, Note_off_c, 0, 80, 116
1, 105981, Note_on_c, 0, 79, 117
1, 106049, Note_off_c, 0, 79, 117
1, 106062, Note_on_c, 0, 78, 114
1, 106117, Note_off_c, 0, 78, 114
1, 106432, Note_on_c, 0, 79, 111
1, 106541, Note_off_c, 0, 79, 111
1, 106808, Note_on_c, 0, 79, 115
1, 106908, Note_off_c, 0, 79, 115
1, 107203, Note_on_c, 0, 78, 120
1, 107303, Note_off_c, 0, 78, 120
1, 107311, Note_on_c, 0, 79, 112
1, 107384, Note_off_c, 0, 79, 112
1, 107398, Note_on_c, 0, 80, 119
1, 107495, Note_off_c, 0, 80, 119
1, 107514, Note_on_c, 0, 79, 116
1, 107585, Note_off_c, 0, 79, 116
1, 107594, Note_on_c, 0, 78, 114
1, 107685, Note_off_c, 0, 78, 114
1, 107698, Note_on_c, 0, 79, 119
1, 107773, Note_off_c, 0, 79, 119
1, 107779, Note_on_c, 0, 80, 118
1, 107870, Note_off_c, 0, 80, 118
1, 107879, Note_on_c, 0, 79, 115
1, 107949, Note_off_c, 0, 79, 115
1, 107966, Note_on_c, 0, 78, 116
1, 108043, Note_off_c, 0, 78, 116
1, 108057, Note_on_c, 0, 79, 114
1, 108125, Note_off_c, 0, 79, 114
1, 108146, Note_on_c, 0, 73, 114
1, 108271, Note_off_c, 0, 73, 114
1, 108286, Note_on_c, 0, 72, 113
1, 108334, Note_off_c, 0, 72, 113
1, 108342, Note_on_c, 0, 71, 106
1, 108436, Note_off_c, 0, 71, 106
1, 108526, Note_on_c, 0, 68, 118
1, 108630, Note_off_c, 0, 68, 118
1, 108633, Note_on_c, 0, 67, 112
1, 108720, Note_off_c, 0, 67, 112
1, 108740, Note_on_c, 0, 66, 112
1, 109033, Note_off_c, 0, 66, 112
1, 109071, Note_on_c, 0, 70, 104
1, 109124, Note_off_c, 0, 70, 104
1, 109127, Note_on_c, 0, 61, 107
1, 109219, Note_off_c, 0, 61, 107
1, 109249, Note_on_c, 0, 70, 105
1, 109297, Note_off_c, 0, 70, 105
1, 109309, Note_on_c, 0, 60, 106
1, 109435, Note_off_c, 0, 60, 106
1, 109453, Note_on_c, 0, 59, 107
1, 109556, Note_off_c, 0, 59, 107
1, 110450, Note_on_c, 0, 69, 96
1, 110501, Note_off_c, 0, 69, 96
1, 110513, Note_on_c, 0, 75, 109
1, 110595, Note_off_c, 0, 75, 109
1, 110599, Note_on_c, 0, 70, 107
1, 110672, Note_off_c, 0, 70, 107
1, 110674, Note_on_c, 0, 61, 111
1, 110759, Note_off_c, 0, 61, 111
1, 110847, Note_on_c, 0, 68, 116
1, 110993, Note_off_c, 0, 68, 116
1, 111001, Note_on_c, 0, 70, 107
1, 111053, Note_off_c, 0, 70, 107
1, 111059, Note_on_c, 0, 72, 107
1, 111219, Note_off_c, 0, 72, 107
1, 111222, Note_on_c, 0, 75, 117
1, 111326, Note_off_c, 0, 75, 117
1, 111357, Note_on_c, 0, 74, 118
1, 111449, Note_off_c, 0, 74, 118
1, 111469, Note_on_c, 0, 72, 110
1, 111516, Note_off_c, 0, 72, 110
1, 111535, Note_on_c, 0, 73, 115
1, 111598, Note_off_c, 0, 73, 115
1, 111616, Note_on_c, 0, 77, 118
1, 111715, Note_off_c, 0, 77, 118
1, 111734, Note_on_c, 0, 79, 117
1, 111796, Note_off_c, 0, 79, 117
1, 111808, Note_on_c, 0, 80, 117
1, 111868, Note_off_c, 0, 80, 117
1, 111898, Note_on_c, 0, 82, 110
1, 112059, Note_off_c, 0, 82, 110
1, 112069, Note_on_c, 0, 80, 119
1, 112140, Note_off_c, 0, 80, 119
1, 112150, Note_on_c, 0, 79, 115
1, 112238, Note_off_c, 0, 79, 115
1, 112248, Note_on_c, 0, 78, 116
1, 112350, Note_off_c, 0, 78, 116
1, 112356, Note_on_c, 0, 77, 120
1, 112422, Note_off_c, 0, 77, 120
1, 112431, Note_on_c, 0, 76, 115
1, 112516, Note_off_c, 0, 76, 115
1, 112523, Note_on_c, 0, 75, 116
1, 112620, Note_off_c, 0, 75, 116
1, 112633, Note_on_c, 0, 79, 114
1, 112704, Note_off_c, 0, 79, 114
1, 112708, Note_on_c, 0, 74, 110
1, 112795, Note_off_c, 0, 74, 110
1, 112807, Note_on_c, 0, 77, 114
1, 112878, Note_off_c, 0, 77, 114
1, 112891, Note_on_c, 0, 75, 114
1, 112970, Note_off_c, 0, 75, 114
1, 112994, Note_on_c, 0, 73, 116
1, 113057, Note_off_c, 0, 73, 116
1, 113088, Note_on_c, 0, 70, 110
1, 113180, Note_off_c, 0, 70, 110
1, 113263, Note_on_c, 0, 73, 115
1, 113368, Note_off_c, 0, 73, 115
1, 113378, Note_on_c, 0, 74, 115
1, 113451, Note_off_c, 0, 74, 115
1, 113459, Note_on_c, 0, 71, 108
1, 113550, Note_off_c, 0, 71, 108
1, 113588, Note_on_c, 0, 69, 112
1, 113662, Note_off_c, 0, 69, 112
1, 113679, Note_on_c, 0, 70, 104
1, 113981, Note_off_c, 0, 70, 104
1, 114238, Note_on_c, 0, 77, 120
1, 114369, Note_off_c, 0, 77, 120
1, 114393, Note_on_c, 0, 75, 104
1, 114649, Note_off_c, 0, 75, 104
1, 114962, Note_on_c, 0, 75, 120
1, 115069, Note_off_c, 0, 75, 120
1, 115090, Note_on_c, 0, 83, 105
1, 115164, Note_off_c, 0, 83, 105
1, 115182, Note_on_c, 0, 82, 109
1, 115532, Note_off_c, 0, 82, 109
1, 115777, Note_on_c, 0, 76, 112
1, 115879, Note_off_c, 0, 76, 112
1, 115989, Note_on_c, 0, 77, 107
1, 116103, Note_off_c, 0, 77, 107
1, 116202, Note_on_c, 0, 70, 90
1, 116335, Note_off_c, 0, 70, 90
1, 116544, Note_on_c, 0, 76, 106
1, 116676, Note_off_c, 0, 76, 106
1, 116703, Note_on_c, 0, 79, 114
1, 116878, Note_off_c, 0, 79, 114
1, 117345, Note_on_c, 0, 72, 106
1, 117448, Note_off_c, 0, 72, 106
1, 117475, Note_on_c, 0, 84, 98
1, 117624, Note_off_c, 0, 84, 98
1, 118113, Note_on_c, 0, 81, 106
1, 118211, Note_off_c, 0, 81, 106
1, 118231, Note_on_c, 0, 77, 118
1, 118276, Note_off_c, 0, 77, 118
1, 118308, Note_on_c, 0, 72, 107
1, 118391, Note_off_c, 0, 72, 107
1, 118675, Note_on_c, 0, 75, 116
1, 118783, Note_off_c, 0, 75, 116
1, 118798, Note_on_c, 0, 70, 108
1, 118860, Note_off_c, 0, 70, 108
1, 118909, Note_on_c, 0, 60, 107
1, 118990, Note_off_c, 0, 60, 107
1, 119010, Note_on_c, 0, 63, 111
1, 119119, Note_off_c, 0, 63, 111
1, 119126, Note_on_c, 0, 59, 102
1, 119217, Note_off_c, 0, 59, 102
1, 119485, Note_on_c, 0, 59, 114
1, 119555, Note_off_c, 0, 59, 114
1, 119574, Note_on_c, 0, 63, 114
1, 119622, Note_off_c, 0, 63, 114
1, 119675, Note_on_c, 0, 74, 116
1, 119718, Note_off_c, 0, 74, 116
1, 119725, Note_on_c, 0, 76, 118
1, 119754, Note_off_c, 0, 76, 118
1, 119764, Note_on_c, 0, 75, 114
1, 119838, Note_off_c, 0, 75, 114
1, 119873, Note_on_c, 0, 84, 113
1, 119924, Note_off_c, 0, 84, 113
1, 119928, Note_on_c, 0, 83, 108
1, 119963, Note_off_c, 0, 83, 108
1, 119966, Note_on_c, 0, 85, 118
1, 120008, Note_off_c, 0, 85, 118
1, 120022, Note_on_c, 0, 82, 106
1, 120172, Note_off_c, 0, 82, 106
1, 120765, Note_on_c, 0, 59, 114
1, 120811, Note_off_c, 0, 59, 114
1, 120818, Note_on_c, 0, 62, 115
1, 120859, Note_off_c, 0, 62, 115
1, 120882, Note_on_c, 0, 59, 115
1, 120944, Note_off_c, 0, 59, 115
1, 120968, Note_on_c, 0, 65, 116
1, 121019, Note_off_c, 0, 65, 116
1, 121031, Note_on_c, 0, 62, 114
1, 121076, Note_off_c, 0, 62, 114
1, 121091, Note_on_c, 0, 63, 114
1, 121136, Note_off_c, 0, 63, 114
1, 121143, Note_on_c, 0, 65, 107
1, 121216, Note_off_c, 0, 65, 107
1, 121231, Note_on_c, 0, 63, 98
1, 121291, Note_off_c, 0, 63, 98
1, 121308, Note_on_c, 0, 77, 119
1, 121361, Note_off_c, 0, 77, 119
1, 121391, Note_on_c, 0, 70, 103
1, 121499, Note_off_c, 0, 70, 103
1, 121507, Note_on_c, 0, 74, 113
1, 121552, Note_off_c, 0, 74, 113
1, 121565, Note_on_c, 0, 77, 97
1, 121629, Note_off_c, 0, 77, 97
1, 121659, Note_on_c, 0, 82, 112
1, 121716, Note_off_c, 0, 82, 112
1, 121728, Note_on_c, 0, 83, 104
1, 121801, Note_off_c, 0, 83, 104
1, 121827, Note_on_c, 0, 82, 104
1, 121913, Note_off_c, 0, 82, 104
1, 121919, Note_on_c, 0, 83, 104
1, 121973, Note_off_c, 0, 83, 104
1, 121992, Note_on_c, 0, 85, 108
1, 122058, Note_off_c, 0, 85, 108
1, 122073, Note_on_c, 0, 85, 109
1, 122131, Note_off_c, 0, 85, 109
1, 122150, Note_on_c, 0, 82, 111
1, 122213, Note_off_c, 0, 82, 111
1, 122217, Note_on_c, 0, 85, 118
1, 122270, Note_off_c, 0, 85, 118
1, 122279, Note_on_c, 0, 82, 107
1, 122348, Note_off_c, 0, 82, 107
1, 122358, Note_on_c, 0, 85, 119
1, 122424, Note_off_c, 0, 85, 119
1, 122427, Note_on_c, 0, 83, 108
1, 122480, Note_off_c, 0, 83, 108
1, 122501, Note_on_c, 0, 82, 106
1, 122644, Note_off_c, 0, 82, 106
1, 122663, Note_on_c, 0, 78, 114
1, 122715, Note_off_c, 0, 78, 114
1, 122739, Note_on_c, 0, 58, 111
1, 122825, Note_off_c, 0, 58, 111
1, 122855, Note_on_c, 0, 59, 110
1, 123906, Note_off_c, 0, 59, 110
1, 123935, Note_on_c, 0, 71, 108
1, 123986, Note_off_c, 0, 71, 108
1, 124017, Note_on_c, 0, 59, 112
1, 124109, Note_off_c, 0, 59, 112
1, 124118, Note_on_c, 0, 66, 114
1, 124186, Note_off_c, 0, 66, 114
1, 124190, Note_on_c, 0, 67, 115
1, 124304, Note_off_c, 0, 67, 115
1, 124364, Note_on_c, 0, 65, 118
1, 124473, Note_off_c, 0, 65, 118
1, 124490, Note_on_c, 0, 64, 113
1, 124541, Note_off_c, 0, 64, 113
1, 124558, Note_on_c, 0, 63, 114
1, 124655, Note_off_c, 0, 63, 114
1, 124674, Note_on_c, 0, 67, 116
1, 124759, Note_off_c, 0, 67, 116
1, 124786, Note_on_c, 0, 62, 95
1, 124842, Note_off_c, 0, 62, 95
1, 124864, Note_on_c, 0, 65, 112
1, 124944, Note_off_c, 0, 65, 112
1, 124958, Note_on_c, 0, 68, 116
1, 125048, Note_off_c, 0, 68, 116
1, 125069, Note_on_c, 0, 70, 115
1, 125107, Note_off_c, 0, 70, 115
1, 125128, Note_on_c, 0, 71, 105
1, 125244, Note_off_c, 0, 71, 105
1, 125278, Note_on_c, 0, 75, 113
1, 125333, Note_off_c, 0, 75, 113
1, 125337, Note_on_c, 0, 77, 119
1, 125453, Note_off_c, 0, 77, 119
1, 125456, Note_on_c, 0, 75, 108
1, 125500, Note_off_c, 0, 75, 108
1, 125513, Note_on_c, 0, 77, 121
1, 125612, Note_off_c, 0, 77, 121
1, 125642, Note_on_c, 0, 75, 116
1, 125717, Note_off_c, 0, 75, 116
1, 125723, Note_on_c, 0, 77, 114
1, 125811, Note_off_c, 0, 77, 114
1, 125911, Note_on_c, 0, 75, 119
1, 126003, Note_off_c, 0, 75, 119
1, 126013, Note_on_c, 0, 77, 121
1, 126098, Note_off_c, 0, 77, 121
1, 126109, Note_on_c, 0, 75, 119
1, 126189, Note_off_c, 0, 75, 119
1, 126200, Note_on_c, 0, 77, 123
1, 126276, Note_off_c, 0, 77, 123
1, 126287, Note_on_c, 0, 75, 120
1, 126370, Note_off_c, 0, 75, 120
1, 126387, Note_on_c, 0, 77, 121
1, 126472, Note_off_c, 0, 77, 121
1, 126485, Note_on_c, 0, 75, 120
1, 126555, Note_off_c, 0, 75, 120
1, 126572, Note_on_c, 0, 77, 121
1, 126666, Note_off_c, 0, 77, 121
1, 126671, Note_on_c, 0, 75, 120
1, 126734, Note_off_c, 0, 75, 120
1, 126756, Note_on_c, 0, 77, 123
1, 126868, Note_off_c, 0, 77, 123
1, 126878, Note_on_c, 0, 75, 121
1, 126929, Note_off_c, 0, 75, 121
1, 126937, Note_on_c, 0, 77, 122
1, 127019, Note_off_c, 0, 77, 122
1, 127030, Note_on_c, 0, 75, 117
1, 127103, Note_off_c, 0, 75, 117
1, 127114, Note_on_c, 0, 77, 122
1, 127199, Note_off_c, 0, 77, 122
1, 127214, Note_on_c, 0, 75, 118
1, 127285, Note_off_c, 0, 75, 118
1, 127305, Note_on_c, 0, 77, 122
1, 127381, Note_off_c, 0, 77, 122
1, 127399, Note_on_c, 0, 75, 120
1, 127501, Note_off_c, 0, 75, 120
1, 127509, Note_on_c, 0, 77, 122
1, 127575, Note_off_c, 0, 77, 122
1, 127588, Note_on_c, 0, 75, 113
1, 127659, Note_off_c, 0, 75, 113
1, 127679, Note_on_c, 0, 77, 116
1, 127767, Note_off_c, 0, 77, 116
1, 127770, Note_on_c, 0, 75, 118
1, 127843, Note_off_c, 0, 75, 118
1, 127866, Note_on_c, 0, 77, 118
1, 127941, Note_off_c, 0, 77, 118
1, 127951, Note_on_c, 0, 75, 116
1, 128027, Note_off_c, 0, 75, 116
1, 128044, Note_on_c, 0, 77, 118
1, 128119, Note_off_c, 0, 77, 118
1, 128141, Note_on_c, 0, 75, 119
1, 128212, Note_off_c, 0, 75, 119
1, 128234, Note_on_c, 0, 77, 122
1, 128319, Note_off_c, 0, 77, 122
1, 128330, Note_on_c, 0, 75, 114
1, 128405, Note_off_c, 0, 75, 114
1, 128434, Note_on_c, 0, 77, 122
1, 128517, Note_off_c, 0, 77, 122
1, 128527, Note_on_c, 0, 75, 109
1, 128646, Note_off_c, 0, 75, 109
1, 128680, Note_on_c, 0, 71, 104
1, 128767, Note_off_c, 0, 71, 104
1, 131699, Note_on_c, 0, 68, 116
1, 131799, Note_off_c, 0, 68, 116
1, 131810, Note_on_c, 0, 67, 110
1, 131868, Note_off_c, 0, 67, 110
1, 131912, Note_on_c, 0, 68, 109
1, 132023, Note_off_c, 0, 68, 109
1, 132036, Note_on_c, 0, 70, 106
1, 132172, Note_off_c, 0, 70, 106
1, 132218, Note_on_c, 0, 75, 122
1, 132363, Note_off_c, 0, 75, 122
1, 132405, Note_on_c, 0, 75, 117
1, 132538, Note_off_c, 0, 75, 117
1, 132589, Note_on_c, 0, 75, 119
1, 132657, Note_off_c, 0, 75, 119
1, 132694, Note_on_c, 0, 75, 123
1, 132798, Note_off_c, 0, 75, 123
1, 132854, Note_on_c, 0, 75, 121
1, 132944, Note_off_c, 0, 75, 121
1, 132986, Note_on_c, 0, 75, 122
1, 133080, Note_off_c, 0, 75, 122
1, 133109, Note_on_c, 0, 75, 120
1, 133192, Note_off_c, 0, 75, 120
1, 133219, Note_on_c, 0, 75, 119
1, 133321, Note_off_c, 0, 75, 119
1, 133355, Note_on_c, 0, 75, 119
1, 133431, Note_off_c, 0, 75, 119
1, 133456, Note_on_c, 0, 75, 110
1, 133531, Note_off_c, 0, 75, 110
1, 133539, Note_on_c, 0, 77, 119
1, 133648, Note_off_c, 0, 77, 119
1, 133659, Note_on_c, 0, 75, 115
1, 133783, Note_off_c, 0, 75, 115
1, 133824, Note_on_c, 0, 71, 113
1, 133971, Note_off_c, 0, 71, 113
1, 135074, Note_on_c, 0, 58, 111
1, 135127, Note_off_c, 0, 58, 111
1, 135159, Note_on_c, 0, 63, 115
1, 135246, Note_off_c, 0, 63, 115
1, 135263, Note_on_c, 0, 65, 122
1, 135322, Note_off_c, 0, 65, 122
1, 135345, Note_on_c, 0, 66, 117
1, 135601, Note_off_c, 0, 66, 117
1, 135614, Note_on_c, 0, 64, 115
1, 135649, Note_off_c, 0, 64, 115
1, 135659, Note_on_c, 0, 66, 116
1, 135724, Note_off_c, 0, 66, 116
1, 135737, Note_on_c, 0, 65, 119
1, 135841, Note_off_c, 0, 65, 119
1, 135854, Note_on_c, 0, 64, 114
1, 135917, Note_off_c, 0, 64, 114
1, 135923, Note_on_c, 0, 63, 114
1, 136017, Note_off_c, 0, 63, 114
1, 136028, Note_on_c, 0, 66, 116
1, 136099, Note_off_c, 0, 66, 116
1, 136114, Note_on_c, 0, 61, 116
1, 136182, Note_off_c, 0, 61, 116
1, 136204, Note_on_c, 0, 65, 120
1, 136265, Note_off_c, 0, 65, 120
1, 136278, Note_on_c, 0, 68, 115
1, 136392, Note_off_c, 0, 68, 115
1, 136410, Note_on_c, 0, 69, 115
1, 136456, Note_off_c, 0, 69, 115
1, 136467, Note_on_c, 0, 71, 110
1, 136569, Note_off_c, 0, 71, 110
1, 136580, Note_on_c, 0, 73, 118
1, 136643, Note_off_c, 0, 73, 118
1, 136661, Note_on_c, 0, 75, 118
1, 136724, Note_off_c, 0, 75, 118
1, 136749, Note_on_c, 0, 78, 118
1, 136856, Note_off_c, 0, 78, 118
1, 136862, Note_on_c, 0, 77, 124
1, 136928, Note_off_c, 0, 77, 124
1, 136953, Note_on_c, 0, 76, 118
1, 137002, Note_off_c, 0, 76, 118
1, 137019, Note_on_c, 0, 75, 117
1, 137109, Note_off_c, 0, 75, 117
1, 137139, Note_on_c, 0, 71, 108
1, 137198, Note_off_c, 0, 71, 108
1, 137211, Note_on_c, 0, 76, 122
1, 137320, Note_off_c, 0, 76, 122
1, 137340, Note_on_c, 0, 74, 111
1, 137410, Note_off_c, 0, 74, 111
1, 137421, Note_on_c, 0, 75, 122
1, 137499, Note_off_c, 0, 75, 122
1, 137512, Note_on_c, 0, 74, 119
1, 137577, Note_off_c, 0, 74, 119
1, 137600, Note_on_c, 0, 73, 123
1, 137661, Note_off_c, 0, 73, 123
1, 137690, Note_on_c, 0, 73, 117
1, 137784, Note_off_c, 0, 73, 117
1, 137795, Note_on_c, 0, 71, 108
1, 137883, Note_off_c, 0, 71, 108
1, 137900, Note_on_c, 0, 69, 113
1, 137956, Note_off_c, 0, 69, 113
1, 137964, Note_on_c, 0, 70, 107
1, 138075, Note_off_c, 0, 70, 107
1, 138095, Note_on_c, 0, 73, 116
1, 138156, Note_off_c, 0, 73, 116
1, 138166, Note_on_c, 0, 75, 120
1, 138275, Note_off_c, 0, 75, 120
1, 138285, Note_on_c, 0, 77, 116
1, 138338, Note_off_c, 0, 77, 116
1, 138363, Note_on_c, 0, 79, 116
1, 138450, Note_off_c, 0, 79, 116
1, 138472, Note_on_c, 0, 82, 107
1, 138533, Note_off_c, 0, 82, 107
1, 138548, Note_on_c, 0, 84, 112
1, 138695, Note_off_c, 0, 84, 112
1, 138708, Note_on_c, 0, 82, 110
1, 139098, Note_off_c, 0, 82, 110
1, 139113, Note_on_c, 0, 79, 119
1, 139224, Note_off_c, 0, 79, 119
1, 139246, Note_on_c, 0, 77, 120
1, 139304, Note_off_c, 0, 77, 120
1, 139317, Note_on_c, 0, 74, 111
1, 139402, Note_off_c, 0, 74, 111
1, 139431, Note_on_c, 0, 71, 91
1, 139478, Note_off_c, 0, 71, 91
1, 139491, Note_on_c, 0, 76, 119
1, 139605, Note_off_c, 0, 76, 119
1, 139625, Note_on_c, 0, 78, 115
1, 139695, Note_off_c, 0, 78, 115
1, 139706, Note_on_c, 0, 79, 118
1, 139781, Note_off_c, 0, 79, 118
1, 139808, Note_on_c, 0, 81, 117
1, 139869, Note_off_c, 0, 81, 117
1, 139892, Note_on_c, 0, 78, 117
1, 139972, Note_off_c, 0, 78, 117
1, 140006, Note_on_c, 0, 73, 116
1, 140065, Note_off_c, 0, 73, 116
1, 140090, Note_on_c, 0, 71, 107
1, 140141, Note_off_c, 0, 71, 107
1, 140175, Note_on_c, 0, 69, 102
1, 140245, Note_off_c, 0, 69, 102
1, 140265, Note_on_c, 0, 76, 118
1, 140353, Note_off_c, 0, 76, 118
1, 140373, Note_on_c, 0, 78, 118
1, 140431, Note_off_c, 0, 78, 118
1, 140439, Note_on_c, 0, 73, 118
1, 140543, Note_off_c, 0, 73, 118
1, 140554, Note_on_c, 0, 76, 120
1, 140634, Note_off_c, 0, 76, 120
1, 140649, Note_on_c, 0, 75, 116
1, 140746, Note_off_c, 0, 75, 116
1, 140759, Note_on_c, 0, 71, 112
1, 140815, Note_off_c, 0, 71, 112
1, 140823, Note_on_c, 0, 66, 118
1, 140882, Note_off_c, 0, 66, 118
1, 140899, Note_on_c, 0, 63, 111
1, 140960, Note_off_c, 0, 63, 111
1, 140982, Note_on_c, 0, 68, 113
1, 141096, Note_off_c, 0, 68, 113
1, 141116, Note_on_c, 0, 70, 108
1, 141155, Note_off_c, 0, 70, 108
1, 141172, Note_on_c, 0, 72, 116
1, 141272, Note_off_c, 0, 72, 116
1, 141285, Note_on_c, 0, 74, 109
1, 141355, Note_off_c, 0, 74, 109
1, 141384, Note_on_c, 0, 70, 111
1, 141488, Note_off_c, 0, 70, 111
1, 141494, Note_on_c, 0, 67, 117
1, 141555, Note_off_c, 0, 67, 117
1, 141582, Note_on_c, 0, 62, 113
1, 141664, Note_off_c, 0, 62, 113
1, 141693, Note_on_c, 0, 60, 111
1, 141758, Note_off_c, 0, 60, 111
1, 141768, Note_on_c, 0, 67, 117
1, 141868, Note_off_c, 0, 67, 117
1, 141891, Note_on_c, 0, 64, 118
1, 141920, Note_off_c, 0, 64, 118
1, 141938, Note_on_c, 0, 63, 116
1, 142037, Note_off_c, 0, 63, 116
1, 142048, Note_on_c, 0, 67, 115
1, 142119, Note_off_c, 0, 67, 115
1, 142137, Note_on_c, 0, 62, 112
1, 142213, Note_off_c, 0, 62, 112
1, 142228, Note_on_c, 0, 65, 112
1, 142291, Note_off_c, 0, 65, 112
1, 142296, Note_on_c, 0, 67, 115
1, 142381, Note_off_c, 0, 67, 115
1, 142411, Note_on_c, 0, 70, 114
1, 142467, Note_off_c, 0, 70, 114
1, 142496, Note_on_c, 0, 60, 116
1, 142716, Note_off_c, 0, 60, 116
1, 142745, Note_on_c, 0, 63, 115
1, 142827, Note_off_c, 0, 63, 115
1, 142833, Note_on_c, 0, 61, 117
1, 143105, Note_off_c, 0, 61, 117
1, 143115, Note_on_c, 0, 65, 116
1, 143181, Note_off_c, 0, 65, 116
1, 143191, Note_on_c, 0, 63, 113
1, 143384, Note_off_c, 0, 63, 113
1, 143397, Note_on_c, 0, 67, 115
1, 143509, Note_off_c, 0, 67, 115
1, 143526, Note_on_c, 0, 66, 112
1, 143849, Note_off_c, 0, 66, 112
1, 143888, Note_on_c, 0, 71, 115
1, 143930, Note_off_c, 0, 71, 115
1, 143943, Note_on_c, 0, 67, 113
1, 144120, Note_off_c, 0, 67, 113
1, 144137, Note_on_c, 0, 60, 114
1, 144190, Note_off_c, 0, 60, 114
1, 144342, Note_on_c, 0, 66, 112
1, 144648, Note_off_c, 0, 66, 112
1, 144664, Note_on_c, 0, 65, 115
1, 145026, Note_off_c, 0, 65, 115
1, 145064, Note_on_c, 0, 63, 115
1, 145102, Note_off_c, 0, 63, 115
1, 145123, Note_on_c, 0, 65, 119
1, 145205, Note_off_c, 0, 65, 119
1, 145221, Note_on_c, 0, 65, 117
1, 145306, Note_off_c, 0, 65, 117
1, 145323, Note_on_c, 0, 63, 115
1, 145399, Note_off_c, 0, 63, 115
1, 145429, Note_on_c, 0, 65, 120
1, 145488, Note_off_c, 0, 65, 120
1, 145505, Note_on_c, 0, 63, 116
1, 145576, Note_off_c, 0, 63, 116
1, 145589, Note_on_c, 0, 63, 116
1, 145659, Note_off_c, 0, 63, 116
1, 145677, Note_on_c, 0, 63, 116
1, 145774, Note_off_c, 0, 63, 116
1, 145787, Note_on_c, 0, 65, 120
1, 145894, Note_off_c, 0, 65, 120
1, 145941, Note_on_c, 0, 65, 110
1, 146060, Note_off_c, 0, 65, 110
1, 146063, Note_on_c, 0, 63, 112
1, 146203, Note_off_c, 0, 63, 112
1, 146839, Note_on_c, 0, 67, 118
1, 146989, Note_off_c, 0, 67, 118
1, 146994, Note_on_c, 0, 66, 114
1, 147052, Note_off_c, 0, 66, 114
1, 147052, Note_on_c, 0, 67, 112
1, 147178, Note_off_c, 0, 67, 112
1, 147205, Note_on_c, 0, 72, 117
1, 147292, Note_off_c, 0, 72, 117
1, 147406, Note_on_c, 0, 64, 116
1, 147474, Note_off_c, 0, 64, 116
1, 147501, Note_on_c, 0, 65, 116
1, 147542, Note_off_c, 0, 65, 116
1, 147545, Note_on_c, 0, 66, 117
1, 147717, Note_off_c, 0, 66, 117
1, 147730, Note_on_c, 0, 65, 116
1, 148075, Note_off_c, 0, 65, 116
1, 148097, Note_on_c, 0, 63, 117
1, 148170, Note_off_c, 0, 63, 117
1, 148184, Note_on_c, 0, 65, 119
1, 148317, Note_off_c, 0, 65, 119
1, 148348, Note_on_c, 0, 63, 117
1, 148418, Note_off_c, 0, 63, 117
1, 149661, Note_on_c, 0, 68, 121
1, 149748, Note_off_c, 0, 68, 121
1, 149760, Note_on_c, 0, 67, 114
1, 149815, Note_off_c, 0, 67, 114
1, 149839, Note_on_c, 0, 66, 117
1, 149938, Note_off_c, 0, 66, 117
1, 149955, Note_on_c, 0, 67, 40
1, 149998, Note_off_c, 0, 67, 40
1, 150042, Note_on_c, 0, 72, 112
1, 150592, Note_off_c, 0, 72, 112
1, 150605, Note_on_c, 0, 68, 110
1, 150635, Note_off_c, 0, 68, 110
1, 150655, Note_on_c, 0, 65, 120
1, 150718, Note_off_c, 0, 65, 120
1, 150724, Note_on_c, 0, 66, 118
1, 150807, Note_off_c, 0, 66, 118
1, 150818, Note_on_c, 0, 65, 122
1, 151014, Note_off_c, 0, 65, 122
1, 151031, Note_on_c, 0, 64, 121
1, 151116, Note_off_c, 0, 64, 121
1, 151150, Note_on_c, 0, 63, 116
1, 151170, Note_off_c, 0, 63, 116
1, 151190, Note_on_c, 0, 65, 122
1, 151306, Note_off_c, 0, 65, 122
1, 151340, Note_on_c, 0, 63, 118
1, 151363, Note_off_c, 0, 63, 118
1, 151386, Note_on_c, 0, 65, 123
1, 151505, Note_off_c, 0, 65, 123
1, 151518, Note_on_c, 0, 66, 117
1, 151576, Note_off_c, 0, 66, 117
1, 151591, Note_on_c, 0, 67, 116
1, 151685, Note_off_c, 0, 67, 116
1, 151702, Note_on_c, 0, 70, 112
1, 151782, Note_off_c, 0, 70, 112
1, 151790, Note_on_c, 0, 71, 108
1, 151889, Note_off_c, 0, 71, 108
1, 151906, Note_on_c, 0, 72, 116
1, 152087, Note_off_c, 0, 72, 116
1, 152117, Note_on_c, 0, 75, 119
1, 152272, Note_off_c, 0, 75, 119
1, 152289, Note_on_c, 0, 77, 120
1, 152499, Note_off_c, 0, 77, 120
1, 152514, Note_on_c, 0, 75, 121
1, 152678, Note_off_c, 0, 75, 121
1, 152691, Note_on_c, 0, 72, 115
1, 152786, Note_off_c, 0, 72, 115
1, 152880, Note_on_c, 0, 63, 110
1, 152921, Note_off_c, 0, 63, 110
1, 152931, Note_on_c, 0, 65, 111
1, 152949, Note_off_c, 0, 65, 111
1, 152962, Note_on_c, 0, 66, 110
1, 153028, Note_off_c, 0, 66, 110
1, 153041, Note_on_c, 0, 65, 117
1, 153278, Note_off_c, 0, 65, 117
1, 153289, Note_on_c, 0, 64, 118
1, 153331, Note_off_c, 0, 64, 118
1, 153341, Note_on_c, 0, 65, 118
1, 153395, Note_off_c, 0, 65, 118
1, 153410, Note_on_c, 0, 63, 113
1, 153445, Note_off_c, 0, 63, 113
1, 153462, Note_on_c, 0, 65, 119
1, 153636, Note_off_c, 0, 65, 119
1, 153665, Note_on_c, 0, 63, 113
1, 153750, Note_off_c, 0, 63, 113
1, 153763, Note_on_c, 0, 64, 117
1, 153783, Note_off_c, 0, 64, 117
1, 153803, Note_on_c, 0, 63, 112
1, 153861, Note_off_c, 0, 63, 112
1, 153874, Note_on_c, 0, 65, 120
1, 154120, Note_off_c, 0, 65, 120
1, 154145, Note_on_c, 0, 63, 112
1, 154204, Note_off_c, 0, 63, 112
1, 154212, Note_on_c, 0, 65, 122
1, 154277, Note_off_c, 0, 65, 122
1, 154292, Note_on_c, 0, 66, 113
1, 154389, Note_off_c, 0, 66, 113
1, 154419, Note_on_c, 0, 60, 107
1, 154552, Note_off_c, 0, 60, 107
1, 154581, Note_on_c, 0, 63, 102
1, 154854, Note_off_c, 0, 63, 102
1, 155750, Note_on_c, 0, 68, 121
1, 155837, Note_off_c, 0, 68, 121
1, 155850, Note_on_c, 0, 67, 117
1, 155918, Note_off_c, 0, 67, 117
1, 155923, Note_on_c, 0, 66, 118
1, 156037, Note_off_c, 0, 66, 118
1, 156047, Note_on_c, 0, 67, 106
1, 156094, Note_off_c, 0, 67, 106
1, 156126, Note_on_c, 0, 72, 113
1, 156269, Note_off_c, 0, 72, 113
1, 156313, Note_on_c, 0, 72, 113
1, 156419, Note_off_c, 0, 72, 113
1, 156501, Note_on_c, 0, 64, 120
1, 156566, Note_off_c, 0, 64, 120
1, 156576, Note_on_c, 0, 66, 119
1, 156829, Note_off_c, 0, 66, 119
1, 156851, Note_on_c, 0, 65, 120
1, 157215, Note_off_c, 0, 65, 120
1, 157225, Note_on_c, 0, 63, 118
1, 157269, Note_off_c, 0, 63, 118
1, 157277, Note_on_c, 0, 65, 121
1, 157359, Note_off_c, 0, 65, 121
1, 157386, Note_on_c, 0, 65, 121
1, 157462, Note_off_c, 0, 65, 121
1, 157489, Note_on_c, 0, 63, 118
1, 157567, Note_off_c, 0, 63, 118
1, 157585, Note_on_c, 0, 65, 105
1, 157655, Note_off_c, 0, 65, 105
1, 157672, Note_on_c, 0, 72, 108
1, 157771, Note_off_c, 0, 72, 108
1, 157856, Note_on_c, 0, 72, 109
1, 157972, Note_off_c, 0, 72, 109
1, 158072, Note_on_c, 0, 65, 106
1, 158125, Note_off_c, 0, 65, 106
1, 158133, Note_on_c, 0, 66, 109
1, 158249, Note_off_c, 0, 66, 109
1, 158264, Note_on_c, 0, 63, 106
1, 158358, Note_off_c, 0, 63, 106
1, 158392, Note_on_c, 0, 64, 116
1, 158729, Note_off_c, 0, 64, 116
1, 158759, Note_on_c, 0, 63, 107
1, 158803, Note_off_c, 0, 63, 107
1, 158828, Note_on_c, 0, 60, 108
1, 158886, Note_off_c, 0, 60, 108
1, 158892, Note_on_c, 0, 62, 110
1, 158919, Note_off_c, 0, 62, 110
1, 158934, Note_on_c, 0, 65, 115
1, 159168, Note_off_c, 0, 65, 115
1, 159197, Note_on_c, 0, 63, 105
1, 159558, Note_off_c, 0, 63, 105
1, 159573, Note_on_c, 0, 60, 112
1, 159715, Note_off_c, 0, 60, 112
1, 159723, Note_on_c, 0, 63, 118
1, 159760, Note_off_c, 0, 63, 118
1, 161847, Note_on_c, 0, 61, 116
1, 161915, Note_off_c, 0, 61, 116
1, 161935, Note_on_c, 0, 63, 117
1, 162011, Note_off_c, 0, 63, 117
1, 162040, Note_on_c, 0, 65, 121
1, 162122, Note_off_c, 0, 65, 121
1, 162157, Note_on_c, 0, 67, 116
1, 162379, Note_off_c, 0, 67, 116
1, 162621, Note_on_c, 0, 67, 117
1, 162725, Note_off_c, 0, 67, 117
1, 162733, Note_on_c, 0, 68, 118
1, 162786, Note_off_c, 0, 68, 118
1, 162799, Note_on_c, 0, 70, 116
1, 162879, Note_off_c, 0, 70, 116
1, 162906, Note_on_c, 0, 72, 115
1, 163049, Note_off_c, 0, 72, 115
1, 163375, Note_on_c, 0, 72, 118
1, 163467, Note_off_c, 0, 72, 118
1, 163482, Note_on_c, 0, 73, 122
1, 163529, Note_off_c, 0, 73, 122
1, 163547, Note_on_c, 0, 75, 121
1, 163697, Note_off_c, 0, 75, 121
1, 163705, Note_on_c, 0, 76, 123
1, 163862, Note_off_c, 0, 76, 123
1, 164151, Note_on_c, 0, 76, 122
1, 164251, Note_off_c, 0, 76, 122
1, 164269, Note_on_c, 0, 77, 123
1, 164322, Note_off_c, 0, 77, 123
1, 164337, Note_on_c, 0, 78, 119
1, 164451, Note_off_c, 0, 78, 119
1, 164473, Note_on_c, 0, 80, 122
1, 164592, Note_off_c, 0, 80, 122
1, 164877, Note_on_c, 0, 79, 115
1, 164972, Note_off_c, 0, 79, 115
1, 164985, Note_on_c, 0, 80, 110
1, 165065, Note_off_c, 0, 80, 110
1, 165083, Note_on_c, 0, 82, 108
1, 165178, Note_off_c, 0, 82, 108
1, 165200, Note_on_c, 0, 84, 109
1, 165533, Note_off_c, 0, 84, 109
1, 165550, Note_on_c, 0, 83, 112
1, 165587, Note_off_c, 0, 83, 112
1, 165595, Note_on_c, 0, 80, 117
1, 165627, Note_off_c, 0, 80, 117
1, 165645, Note_on_c, 0, 79, 117
1, 165922, Note_off_c, 0, 79, 117
1, 165940, Note_on_c, 0, 77, 121
1, 166001, Note_off_c, 0, 77, 121
1, 166018, Note_on_c, 0, 76, 121
1, 166290, Note_off_c, 0, 76, 121
1, 166317, Note_on_c, 0, 73, 118
1, 166373, Note_off_c, 0, 73, 118
1, 166383, Note_on_c, 0, 70, 112
1, 166660, Note_off_c, 0, 70, 112
1, 166673, Note_on_c, 0, 68, 116
1, 166761, Note_off_c, 0, 68, 116
1, 166786, Note_on_c, 0, 67, 111
1, 167028, Note_off_c, 0, 67, 111
1, 167058, Note_on_c, 0, 66, 112
1, 167100, Note_off_c, 0, 66, 112
1, 167120, Note_on_c, 0, 65, 113
1, 167436, Note_off_c, 0, 65, 113
1, 167444, Note_on_c, 0, 64, 109
1, 167488, Note_off_c, 0, 64, 109
1, 167518, Note_on_c, 0, 63, 108
1, 167754, Note_off_c, 0, 63, 108
1, 167764, Note_on_c, 0, 62, 110
1, 167808, Note_off_c, 0, 62, 110
1, 167828, Note_on_c, 0, 61, 106
1, 167875, Note_off_c, 0, 61, 106
1, 167892, Note_on_c, 0, 60, 109
1, 167933, Note_off_c, 0, 60, 109
1, 167955, Note_on_c, 0, 59, 109
1, 168203, Note_off_c, 0, 59, 109
1, 168322, Note_on_c, 0, 72, 113
1, 168544, Note_off_c, 0, 72, 113
1, 168689, Note_on_c, 0, 64, 106
1, 168743, Note_off_c, 0, 64, 106
1, 168753, Note_on_c, 0, 66, 106
1, 168956, Note_off_c, 0, 66, 106
1, 168978, Note_on_c, 0, 65, 111
1, 169381, Note_off_c, 0, 65, 111
1, 169396, Note_on_c, 0, 63, 107
1, 169459, Note_off_c, 0, 63, 107
1, 169476, Note_on_c, 0, 65, 113
1, 169568, Note_off_c, 0, 65, 113
1, 169593, Note_on_c, 0, 65, 115
1, 169654, Note_off_c, 0, 65, 115
1, 169677, Note_on_c, 0, 63, 110
1, 169798, Note_off_c, 0, 63, 110
1, 169863, Note_on_c, 0, 72, 104
1, 170023, Note_off_c, 0, 72, 104
1, 170057, Note_on_c, 0, 72, 110
1, 170180, Note_off_c, 0, 72, 110
1, 170322, Note_on_c, 0, 65, 106
1, 170564, Note_off_c, 0, 65, 106
1, 170586, Note_on_c, 0, 63, 102
1, 170943, Note_off_c, 0, 63, 102
1, 171007, Note_on_c, 0, 60, 104
1, 171106, Note_off_c, 0, 60, 104
1, 171126, Note_on_c, 0, 63, 99
1, 171214, Note_off_c, 0, 63, 99
1, 171220, Note_on_c, 0, 65, 104
1, 171338, Note_off_c, 0, 65, 104
1, 171349, Note_on_c, 0, 63, 100
1, 171492, Note_off_c, 0, 63, 100
1, 171630, Note_on_c, 0, 66, 102
1, 171823, Note_off_c, 0, 66, 102
1, 171838, Note_on_c, 0, 65, 101
1, 171944, Note_off_c, 0, 65, 101
1, 171978, Note_on_c, 0, 63, 97
1, 172443, Note_off_c, 0, 63, 97
1, 174574, Note_on_c, 0, 63, 96
1, 174632, Note_off_c, 0, 63, 96
1, 174649, Note_on_c, 0, 65, 109
1, 174696, Note_off_c, 0, 65, 109
1, 174716, Note_on_c, 0, 66, 116
1, 174883, Note_off_c, 0, 66, 116
1, 174906, Note_on_c, 0, 65, 117
1, 174977, Note_off_c, 0, 65, 117
1, 174997, Note_on_c, 0, 63, 97
1, 175760, Note_off_c, 0, 63, 97
1, 175807, Note_on_c, 0, 60, 97
1, 175923, Note_off_c, 0, 60, 97
1, 175950, Note_on_c, 0, 63, 111
1, 176059, Note_off_c, 0, 63, 111
1, 176089, Note_on_c, 0, 65, 121
1, 176213, Note_off_c, 0, 65, 121
1, 176237, Note_on_c, 0, 66, 109
1, 176407, Note_off_c, 0, 66, 109
1, 176428, Note_on_c, 0, 65, 109
1, 176559, Note_off_c, 0, 65, 109
1, 176602, Note_on_c, 0, 63, 95
1, 177083, Note_off_c, 0, 63, 95
1, 177469, Note_on_c, 0, 67, 118
1, 177658, Note_off_c, 0, 67, 118
1, 177757, Note_on_c, 0, 68, 119
1, 177822, Note_off_c, 0, 68, 119
1, 177831, Note_on_c, 0, 70, 114
1, 177868, Note_off_c, 0, 70, 114
1, 177891, Note_on_c, 0, 71, 114
1, 177932, Note_off_c, 0, 71, 114
1, 177976, Note_on_c, 0, 72, 101
1, 178602, Note_off_c, 0, 72, 101
1, 178663, Note_on_c, 0, 71, 100
1, 179313, Note_off_c, 0, 71, 100
1, 179347, Note_on_c, 0, 70, 89
1, 179829, Note_off_c, 0, 70, 89
1, 179873, Note_on_c, 0, 69, 112
1, 180006, Note_off_c, 0, 69, 112
1, 180026, Note_on_c, 0, 68, 113
1, 180128, Note_off_c, 0, 68, 113
1, 180141, Note_on_c, 0, 67, 112
1, 180212, Note_off_c, 0, 67, 112
1, 180222, Note_on_c, 0, 66, 110
1, 180276, Note_off_c, 0, 66, 110
1, 180299, Note_on_c, 0, 65, 116
1, 180353, Note_off_c, 0, 65, 116
1, 180383, Note_on_c, 0, 64, 113
1, 180424, Note_off_c, 0, 64, 113
1, 180430, Note_on_c, 0, 63, 112
1, 180515, Note_off_c, 0, 63, 112
1, 180525, Note_on_c, 0, 62, 103
1, 180572, Note_off_c, 0, 62, 103
1, 180572, End_track
0, 0, End_of_file
