0, 0, Header, 1, 1, -10096
1, 0, Start_track
1, 0, Title_t, "Melody"
1, 0, Tempo, 1132075
1, 0, Key_signature, -5, "major"
1, 0, Time_signature, 4, 2, 24, 8
1, 308050, Note_on_c, 0, 55, 110
1, 316844, Note_off_c, 0, 55, 110
1, 320441, Note_on_c, 0, 56, 105
1, 329235, Note_off_c, 0, 56, 105
1, 336231, Note_on_c, 0, 58, 112
1, 347024, Note_off_c, 0, 58, 112
1, 348822, Note_on_c, 0, 59, 105
1, 361614, Note_off_c, 0, 59, 105
1, 366580, Note_on_c, 0, 60, 115
1, 380509, Note_off_c, 0, 60, 115
1, 383067, Note_on_c, 0, 59, 100
1, 397849, Note_off_c, 0, 59, 100
1, 399554, Note_on_c, 0, 58, 108
1, 413768, Note_off_c, 0, 58, 108
1, 420377, Note_on_c, 0, 57, 93
1, 442564, Note_off_c, 0, 57, 93
1, 444469, Note_on_c, 0, 54, 100
1, 457830, Note_off_c, 0, 54, 100
1, 460104, Note_on_c, 0, 53, 97
1, 472896, Note_off_c, 0, 53, 97
1, 477160, Note_on_c, 0, 51, 100
1, 487678, Note_off_c, 0, 51, 100
1, 492795, Note_on_c, 0, 53, 91
1, 509567, Note_off_c, 0, 53, 91
1, 514968, Note_on_c, 0, 53, 84
1, 597978, Note_off_c, 0, 53, 84
1, 630052, Note_on_c, 0, 48, 102
1, 638296, Note_off_c, 0, 48, 102
1, 638846, Note_on_c, 0, 49, 101
1, 647374, Note_off_c, 0, 49, 101
1, 649146, Note_on_c, 0, 53, 104
1, 659664, Note_off_c, 0, 53, 104
1, 663643, Note_on_c, 0, 46, 95
1, 677857, Note_off_c, 0, 46, 95
1, 679820, Note_on_c, 0, 44, 100
1, 715999, Note_off_c, 0, 44, 100
1, 746652, Note_on_c, 0, 58, 107
1, 757454, Note_off_c, 0, 58, 107
1, 758073, Note_on_c, 0, 59, 99
1, 768022, Note_off_c, 0, 59, 99
1, 769108, Note_on_c, 0, 56, 98
1, 778773, Note_off_c, 0, 56, 98
1, 782468, Note_on_c, 0, 52, 101
1, 795544, Note_off_c, 0, 52, 101
1, 797249, Note_on_c, 0, 49, 89
1, 809188, Note_off_c, 0, 49, 89
1, 812315, Note_on_c, 0, 54, 105
1, 824823, Note_off_c, 0, 54, 105
1, 826244, Note_on_c, 0, 51, 98
1, 839889, Note_off_c, 0, 51, 98
1, 840119, Note_on_c, 0, 47, 88
1, 879349, Note_off_c, 0, 47, 88
1, 976626, Note_on_c, 0, 58, 112
1, 984017, Note_off_c, 0, 58, 112
1, 984585, Note_on_c, 0, 59, 101
1, 989702, Note_off_c, 0, 59, 101
1, 991691, Note_on_c, 0, 56, 97
1, 1002493, Note_off_c, 0, 56, 97
1, 1005051, Note_on_c, 0, 55, 99
1, 1016422, Note_off_c, 0, 55, 99
1, 1019833, Note_on_c, 0, 56, 97
1, 1031772, Note_off_c, 0, 56, 97
1, 1037457, Note_on_c, 0, 58, 109
1, 1049396, Note_off_c, 0, 58, 109
1, 1050817, Note_on_c, 0, 59, 101
1, 1064462, Note_off_c, 0, 59, 101
1, 1090615, Note_on_c, 0, 58, 112
1, 1094594, Note_off_c, 0, 58, 112
1, 1095162, Note_on_c, 0, 59, 102
1, 1103121, Note_off_c, 0, 59, 102
1, 1104826, Note_on_c, 0, 56, 101
1, 1115344, Note_off_c, 0, 56, 101
1, 1119039, Note_on_c, 0, 54, 102
1, 1132684, Note_off_c, 0, 54, 102
1, 1133252, Note_on_c, 0, 53, 101
1, 1141496, Note_off_c, 0, 53, 101
1, 1146897, Note_on_c, 0, 51, 101
1, 1161679, Note_off_c, 0, 51, 101
1, 1161963, Note_on_c, 0, 52, 107
1, 1176177, Note_off_c, 0, 52, 107
1, 1181294, Note_on_c, 0, 53, 101
1, 1192665, Note_off_c, 0, 53, 101
1, 1194086, Note_on_c, 0, 48, 91
1, 1207162, Note_off_c, 0, 48, 91
1, 1215406, Note_on_c, 0, 60, 99
1, 1224787, Note_off_c, 0, 60, 99
1, 1225924, Note_on_c, 0, 58, 99
1, 1237010, Note_off_c, 0, 58, 99
1, 1238431, Note_on_c, 0, 60, 90
1, 1337929, Note_off_c, 0, 60, 90
1, 1421792, Note_on_c, 0, 63, 125
1, 1430889, Note_off_c, 0, 63, 125
1, 1432594, Note_on_c, 0, 61, 82
1, 1439701, Note_off_c, 0, 61, 82
1, 1441406, Note_on_c, 0, 63, 126
1, 1502810, Note_off_c, 0, 63, 126
1, 1503094, Note_on_c, 0, 61, 103
1, 1508779, Note_off_c, 0, 61, 103
1, 1509362, Note_on_c, 0, 63, 106
1, 1515108, Note_off_c, 0, 63, 106
1, 1517756, Note_on_c, 0, 63, 123
1, 1522153, Note_off_c, 0, 63, 123
1, 1523452, Note_on_c, 0, 65, 119
1, 1526400, Note_off_c, 0, 65, 119
1, 1526999, Note_on_c, 0, 64, 112
1, 1530796, Note_off_c, 0, 64, 112
1, 1537592, Note_on_c, 0, 61, 96
1, 1540990, Note_off_c, 0, 61, 96
1, 1546584, Note_on_c, 0, 63, 121
1, 1557528, Note_off_c, 0, 63, 121
1, 1557670, Note_on_c, 0, 61, 101
1, 1560797, Note_off_c, 0, 61, 101
1, 1561223, Note_on_c, 0, 58, 98
1, 1575152, Note_off_c, 0, 58, 98
1, 1584762, Note_on_c, 0, 55, 114
1, 1588160, Note_off_c, 0, 55, 114
1, 1588459, Note_on_c, 0, 56, 106
1, 1591257, Note_off_c, 0, 56, 106
1, 1591456, Note_on_c, 0, 57, 104
1, 1594054, Note_off_c, 0, 57, 104
1, 1594953, Note_on_c, 0, 56, 98
1, 1600849, Note_off_c, 0, 56, 98
1, 1601848, Note_on_c, 0, 54, 105
1, 1609943, Note_off_c, 0, 54, 105
1, 1612741, Note_on_c, 0, 56, 92
1, 1670308, Note_off_c, 0, 56, 92
1, 1671407, Note_on_c, 0, 54, 102
1, 1679702, Note_off_c, 0, 54, 102
1, 1681401, Note_on_c, 0, 53, 94
1, 1688297, Note_off_c, 0, 53, 94
1, 1691295, Note_on_c, 0, 51, 90
1, 1697691, Note_off_c, 0, 51, 90
1, 1701688, Note_on_c, 0, 53, 95
1, 1732970, Note_off_c, 0, 53, 95
1, 1798132, Note_on_c, 0, 50, 102
1, 1802829, Note_off_c, 0, 50, 102
1, 1803478, Note_on_c, 0, 51, 104
1, 1806376, Note_off_c, 0, 51, 104
1, 1807125, Note_on_c, 0, 52, 107
1, 1809623, Note_off_c, 0, 52, 107
1, 1810222, Note_on_c, 0, 53, 104
1, 1812520, Note_off_c, 0, 53, 104
1, 1813084, Note_on_c, 0, 54, 99
1, 1819196, Note_off_c, 0, 54, 99
1, 1819906, Note_on_c, 0, 58, 111
1, 1829571, Note_off_c, 0, 58, 111
1, 1830458, Note_on_c, 0, 55, 100
1, 1832556, Note_off_c, 0, 55, 100
1, 1832905, Note_on_c, 0, 56, 109
1, 1841400, Note_off_c, 0, 56, 109
1, 1842077, Note_on_c, 0, 58, 102
1, 1845630, Note_off_c, 0, 58, 102
1, 1846198, Note_on_c, 0, 67, 114
1, 1851457, Note_off_c, 0, 67, 114
1, 1852167, Note_on_c, 0, 68, 102
1, 1856857, Note_off_c, 0, 68, 102
1, 1857425, Note_on_c, 0, 63, 109
1, 1864105, Note_off_c, 0, 63, 109
1, 1864531, Note_on_c, 0, 65, 115
1, 1873059, Note_off_c, 0, 65, 115
1, 1873485, Note_on_c, 0, 61, 109
1, 1877891, Note_off_c, 0, 61, 109
1, 1878317, Note_on_c, 0, 60, 108
1, 1882581, Note_off_c, 0, 60, 108
1, 1883860, Note_on_c, 0, 58, 94
1, 1891393, Note_off_c, 0, 58, 94
1, 1892387, Note_on_c, 0, 63, 121
1, 1899494, Note_off_c, 0, 63, 121
1, 1899920, Note_on_c, 0, 62, 112
1, 1908448, Note_off_c, 0, 62, 112
1, 1908874, Note_on_c, 0, 61, 103
1, 1918397, Note_off_c, 0, 61, 103
1, 1919107, Note_on_c, 0, 60, 104
1, 1929199, Note_off_c, 0, 60, 104
1, 1930478, Note_on_c, 0, 59, 97
1, 1938437, Note_off_c, 0, 59, 97
1, 1941848, Note_on_c, 0, 58, 105
1, 1952650, Note_off_c, 0, 58, 105
1, 1953502, Note_on_c, 0, 56, 97
1, 1963594, Note_off_c, 0, 56, 97
1, 1965441, Note_on_c, 0, 54, 93
1, 1974111, Note_off_c, 0, 54, 93
1, 1976385, Note_on_c, 0, 53, 98
1, 1984487, Note_off_c, 0, 53, 98
1, 1986903, Note_on_c, 0, 51, 95
1, 1996426, Note_off_c, 0, 51, 95
1, 2000690, Note_on_c, 0, 53, 102
1, 2010782, Note_off_c, 0, 53, 102
1, 2013056, Note_on_c, 0, 48, 92
1, 2024853, Note_off_c, 0, 48, 92
1, 2026776, Note_on_c, 0, 47, 102
1, 2039284, Note_off_c, 0, 47, 102
1, 2042335, Note_on_c, 0, 46, 95
1, 2051005, Note_off_c, 0, 46, 95
1, 2052710, Note_on_c, 0, 45, 90
1, 2067350, Note_off_c, 0, 45, 90
1, 2071045, Note_on_c, 0, 43, 93
1, 2084548, Note_off_c, 0, 43, 93
1, 2087248, Note_on_c, 0, 44, 97
1, 2097766, Note_off_c, 0, 44, 97
1, 2101128, Note_on_c, 0, 51, 99
1, 2111322, Note_off_c, 0, 51, 99
1, 2111521, Note_on_c, 0, 53, 97
1, 2121715, Note_off_c, 0, 53, 97
1, 2123114, Note_on_c, 0, 48, 89
1, 2132308, Note_off_c, 0, 48, 89
1, 2132872, Note_on_c, 0, 46, 89
1, 2137069, Note_off_c, 0, 46, 89
1, 2147698, Note_on_c, 0, 60, 102
1, 2154494, Note_off_c, 0, 60, 102
1, 2155893, Note_on_c, 0, 56, 96
1, 2162289, Note_off_c, 0, 56, 96
1, 2169684, Note_on_c, 0, 58, 107
1, 2177079, Note_off_c, 0, 58, 107
1, 2177278, Note_on_c, 0, 63, 119
1, 2187072, Note_off_c, 0, 63, 119
1, 2187471, Note_on_c, 0, 64, 122
1, 2197265, Note_off_c, 0, 64, 122
1, 2198064, Note_on_c, 0, 61, 100
1, 2206659, Note_off_c, 0, 61, 100
1, 2207658, Note_on_c, 0, 60, 101
1, 2219451, Note_off_c, 0, 60, 101
1, 2221449, Note_on_c, 0, 70, 103
1, 2227645, Note_off_c, 0, 70, 103
1, 2229643, Note_on_c, 0, 68, 92
1, 2238437, Note_off_c, 0, 68, 92
1, 2239436, Note_on_c, 0, 71, 101
1, 2248630, Note_off_c, 0, 71, 101
1, 2249629, Note_on_c, 0, 66, 101
1, 2260822, Note_off_c, 0, 66, 101
1, 2261021, Note_on_c, 0, 65, 99
1, 2268616, Note_off_c, 0, 65, 99
1, 2269215, Note_on_c, 0, 63, 100
1, 2276610, Note_off_c, 0, 63, 100
1, 2278408, Note_on_c, 0, 64, 105
1, 2290401, Note_off_c, 0, 64, 105
1, 2292000, Note_on_c, 0, 65, 101
1, 2301394, Note_off_c, 0, 65, 101
1, 2302793, Note_on_c, 0, 60, 101
1, 2311787, Note_off_c, 0, 60, 101
1, 2312386, Note_on_c, 0, 58, 87
1, 2337771, Note_off_c, 0, 58, 87
1, 2433716, Note_on_c, 0, 72, 113
1, 2441111, Note_off_c, 0, 72, 113
1, 2441310, Note_on_c, 0, 73, 110
1, 2452703, Note_off_c, 0, 73, 110
1, 2454901, Note_on_c, 0, 75, 97
1, 2494278, Note_off_c, 0, 75, 97
1, 2496276, Note_on_c, 0, 73, 90
1, 2512066, Note_off_c, 0, 73, 90
1, 2512665, Note_on_c, 0, 72, 107
1, 2531454, Note_off_c, 0, 72, 107
1, 2534652, Note_on_c, 0, 70, 94
1, 2560237, Note_off_c, 0, 70, 94
1, 2560974, Note_on_c, 0, 71, 103
1, 2589357, Note_off_c, 0, 71, 103
1, 2592217, Note_on_c, 0, 64, 108
1, 2615403, Note_off_c, 0, 64, 108
1, 2618801, Note_on_c, 0, 75, 104
1, 2646385, Note_off_c, 0, 75, 104
1, 2647984, Note_on_c, 0, 74, 100
1, 2665374, Note_off_c, 0, 74, 100
1, 2665773, Note_on_c, 0, 70, 102
1, 2675567, Note_off_c, 0, 70, 102
1, 2675766, Note_on_c, 0, 71, 101
1, 2684361, Note_off_c, 0, 71, 101
1, 2684760, Note_on_c, 0, 64, 105
1, 2699751, Note_off_c, 0, 64, 105
1, 2701350, Note_on_c, 0, 62, 111
1, 2709345, Note_off_c, 0, 62, 111
1, 2709844, Note_on_c, 0, 63, 101
1, 2716839, Note_off_c, 0, 63, 101
1, 2718138, Note_on_c, 0, 60, 110
1, 2722635, Note_off_c, 0, 60, 110
1, 2722934, Note_on_c, 0, 61, 101
1, 2731329, Note_off_c, 0, 61, 101
1, 2733127, Note_on_c, 0, 59, 110
1, 2738124, Note_off_c, 0, 59, 110
1, 2741322, Note_on_c, 0, 59, 105
1, 2753215, Note_off_c, 0, 59, 105
1, 2755113, Note_on_c, 0, 58, 98
1, 2764507, Note_off_c, 0, 58, 98
1, 2769104, Note_on_c, 0, 51, 96
1, 2777898, Note_off_c, 0, 51, 96
1, 2780996, Note_on_c, 0, 58, 103
1, 2788991, Note_off_c, 0, 58, 103
1, 2797086, Note_on_c, 0, 48, 93
1, 2811078, Note_off_c, 0, 48, 93
1, 2886834, Note_on_c, 0, 57, 96
1, 2890529, Note_off_c, 0, 57, 96
1, 2900775, Note_on_c, 0, 47, 103
1, 2903333, Note_off_c, 0, 47, 103
1, 2903772, Note_on_c, 0, 48, 103
1, 2907218, Note_off_c, 0, 48, 103
1, 2907968, Note_on_c, 0, 51, 99
1, 2911734, Note_off_c, 0, 51, 99
1, 2913314, Note_on_c, 0, 53, 106
1, 2916867, Note_off_c, 0, 53, 106
1, 2917411, Note_on_c, 0, 50, 99
1, 2923757, Note_off_c, 0, 50, 99
1, 2929653, Note_on_c, 0, 53, 108
1, 2932495, Note_off_c, 0, 53, 108
1, 2934099, Note_on_c, 0, 48, 101
1, 2937510, Note_off_c, 0, 48, 101
1, 2938695, Note_on_c, 0, 53, 97
1, 2942442, Note_off_c, 0, 53, 97
1, 2943391, Note_on_c, 0, 48, 97
1, 2947338, Note_off_c, 0, 48, 97
1, 2949536, Note_on_c, 0, 53, 92
1, 2952484, Note_off_c, 0, 53, 92
1, 2953833, Note_on_c, 0, 48, 93
1, 2957830, Note_off_c, 0, 48, 93
1, 2960278, Note_on_c, 0, 53, 84
1, 2963576, Note_off_c, 0, 53, 84
1, 2964275, Note_on_c, 0, 48, 101
1, 2967523, Note_off_c, 0, 48, 101
1, 2968572, Note_on_c, 0, 53, 99
1, 2971270, Note_off_c, 0, 53, 99
1, 2973318, Note_on_c, 0, 44, 104
1, 2978861, Note_off_c, 0, 44, 104
1, 3005349, Note_on_c, 0, 51, 99
1, 3010745, Note_off_c, 0, 51, 99
1, 3012743, Note_on_c, 0, 58, 103
1, 3019938, Note_off_c, 0, 58, 103
1, 3020337, Note_on_c, 0, 55, 102
1, 3024134, Note_off_c, 0, 55, 102
1, 3024533, Note_on_c, 0, 56, 105
1, 3027731, Note_off_c, 0, 56, 105
1, 3028530, Note_on_c, 0, 58, 110
1, 3036125, Note_off_c, 0, 58, 110
1, 3036624, Note_on_c, 0, 60, 114
1, 3041521, Note_off_c, 0, 60, 114
1, 3041770, Note_on_c, 0, 61, 107
1, 3045967, Note_off_c, 0, 61, 107
1, 3046766, Note_on_c, 0, 63, 111
1, 3053062, Note_off_c, 0, 63, 111
1, 3053556, Note_on_c, 0, 65, 107
1, 3056469, Note_off_c, 0, 65, 107
1, 3057037, Note_on_c, 0, 67, 105
1, 3059844, Note_off_c, 0, 67, 105
1, 3060874, Note_on_c, 0, 68, 103
1, 3066808, Note_off_c, 0, 68, 103
1, 3067301, Note_on_c, 0, 70, 103
1, 3072897, Note_off_c, 0, 70, 103
1, 3073345, Note_on_c, 0, 72, 112
1, 3079030, Note_off_c, 0, 72, 112
1, 3079030, Note_on_c, 0, 73, 114
1, 3082441, Note_off_c, 0, 73, 114
1, 3083009, Note_on_c, 0, 75, 116
1, 3088978, Note_off_c, 0, 75, 116
1, 3089546, Note_on_c, 0, 74, 102
1, 3204964, Note_off_c, 0, 74, 102
1, 3231615, Note_on_c, 0, 77, 110
1, 3234599, Note_off_c, 0, 77, 110
1, 3234883, Note_on_c, 0, 79, 116
1, 3244122, Note_off_c, 0, 79, 116
1, 3244992, Note_on_c, 0, 78, 111
1, 3248190, Note_off_c, 0, 78, 111
1, 3248740, Note_on_c, 0, 80, 100
1, 3348238, Note_off_c, 0, 80, 100
1, 3349130, Note_on_c, 0, 75, 109
1, 3351278, Note_off_c, 0, 75, 109
1, 3351527, Note_on_c, 0, 76, 111
1, 3354175, Note_off_c, 0, 76, 111
1, 3357900, Note_on_c, 0, 80, 84
1, 3360174, Note_off_c, 0, 80, 84
1, 3398836, Note_on_c, 0, 73, 109
1, 3406795, Note_off_c, 0, 73, 109
1, 3408216, Note_on_c, 0, 70, 111
1, 3416175, Note_off_c, 0, 70, 111
1, 3421183, Note_on_c, 0, 73, 107
1, 3427779, Note_off_c, 0, 73, 107
1, 3438348, Note_on_c, 0, 73, 105
1, 3467629, Note_off_c, 0, 73, 105
1, 3468766, Note_on_c, 0, 70, 110
1, 3473883, Note_off_c, 0, 70, 110
1, 3474735, Note_on_c, 0, 66, 105
1, 3480420, Note_off_c, 0, 66, 105
1, 3481841, Note_on_c, 0, 65, 88
1, 3490938, Note_off_c, 0, 65, 88
1, 3493780, Note_on_c, 0, 63, 106
1, 3500034, Note_off_c, 0, 63, 106
1, 3504298, Note_on_c, 0, 72, 102
1, 3511973, Note_off_c, 0, 72, 102
1, 3515952, Note_on_c, 0, 68, 102
1, 3521921, Note_off_c, 0, 68, 102
1, 3524479, Note_on_c, 0, 71, 110
1, 3545800, Note_off_c, 0, 71, 110
1, 3562288, Note_on_c, 0, 69, 117
1, 3569679, Note_off_c, 0, 69, 117
1, 3570531, Note_on_c, 0, 66, 104
1, 3576500, Note_off_c, 0, 66, 104
1, 3581981, Note_on_c, 0, 68, 114
1, 3584929, Note_off_c, 0, 68, 114
1, 3585278, Note_on_c, 0, 69, 110
1, 3605666, Note_off_c, 0, 69, 110
1, 3606916, Note_on_c, 0, 66, 103
1, 3609900, Note_off_c, 0, 66, 103
1, 3610042, Note_on_c, 0, 69, 110
1, 3612174, Note_off_c, 0, 69, 110
1, 3613133, Note_on_c, 0, 66, 106
1, 3615407, Note_off_c, 0, 66, 106
1, 3615478, Note_on_c, 0, 62, 103
1, 3618782, Note_off_c, 0, 62, 103
1, 3631348, Note_on_c, 0, 68, 107
1, 3635145, Note_off_c, 0, 68, 107
1, 3635444, Note_on_c, 0, 69, 97
1, 3637742, Note_off_c, 0, 69, 97
1, 3640313, Note_on_c, 0, 66, 111
1, 3643866, Note_off_c, 0, 66, 111
1, 3643866, Note_on_c, 0, 62, 100
1, 3648840, Note_off_c, 0, 62, 100
1, 3649550, Note_on_c, 0, 59, 86
1, 3655519, Note_off_c, 0, 59, 86
1, 3661204, Note_on_c, 0, 63, 118
1, 3668168, Note_off_c, 0, 63, 118
1, 3669305, Note_on_c, 0, 70, 111
1, 3675843, Note_off_c, 0, 70, 111
1, 3676269, Note_on_c, 0, 68, 106
1, 3681812, Note_off_c, 0, 68, 106
1, 3682096, Note_on_c, 0, 65, 102
1, 3692756, Note_off_c, 0, 65, 102
1, 3693324, Note_on_c, 0, 60, 103
1, 3704268, Note_off_c, 0, 60, 103
1, 3709100, Note_on_c, 0, 63, 116
1, 3717770, Note_off_c, 0, 63, 116
1, 3718622, Note_on_c, 0, 60, 102
1, 3726866, Note_off_c, 0, 60, 102
1, 3727292, Note_on_c, 0, 58, 99
1, 3737526, Note_off_c, 0, 58, 99
1, 3739373, Note_on_c, 0, 51, 96
1, 3748185, Note_off_c, 0, 51, 96
1, 3749464, Note_on_c, 0, 48, 92
1, 3757850, Note_off_c, 0, 48, 92
1, 3759555, Note_on_c, 0, 46, 104
1, 3767799, Note_off_c, 0, 46, 104
1, 3768936, Note_on_c, 0, 51, 102
1, 3777890, Note_off_c, 0, 51, 102
1, 3778845, Note_on_c, 0, 53, 93
1, 3804830, Note_off_c, 0, 53, 93
1, 3850403, Note_on_c, 0, 48, 95
1, 3854667, Note_off_c, 0, 48, 95
1, 3855200, Note_on_c, 0, 49, 98
1, 3860885, Note_off_c, 0, 49, 98
1, 3862035, Note_on_c, 0, 51, 102
1, 3869284, Note_off_c, 0, 51, 102
1, 3870789, Note_on_c, 0, 49, 102
1, 3876190, Note_off_c, 0, 49, 102
1, 3877484, Note_on_c, 0, 48, 99
1, 3880611, Note_off_c, 0, 48, 99
1, 3880981, Note_on_c, 0, 46, 100
1, 3884534, Note_off_c, 0, 46, 100
1, 3887376, Note_on_c, 0, 45, 98
1, 3894909, Note_off_c, 0, 45, 98
1, 3896670, Note_on_c, 0, 48, 93
1, 3900649, Note_off_c, 0, 48, 93
1, 3900966, Note_on_c, 0, 49, 97
1, 3904803, Note_off_c, 0, 49, 97
1, 3905664, Note_on_c, 0, 51, 92
1, 3912202, Note_off_c, 0, 51, 92
1, 3913623, Note_on_c, 0, 53, 104
1, 3920161, Note_off_c, 0, 53, 104
1, 3922861, Note_on_c, 0, 50, 112
1, 3926272, Note_off_c, 0, 50, 112
1, 3926556, Note_on_c, 0, 51, 107
1, 3931104, Note_off_c, 0, 51, 107
1, 3932667, Note_on_c, 0, 53, 107
1, 3936078, Note_off_c, 0, 53, 107
1, 3936788, Note_on_c, 0, 54, 103
1, 3942900, Note_off_c, 0, 54, 103
1, 3944747, Note_on_c, 0, 55, 100
1, 3947305, Note_off_c, 0, 55, 100
1, 3947447, Note_on_c, 0, 56, 101
1, 3951426, Note_off_c, 0, 56, 101
1, 3951568, Note_on_c, 0, 58, 108
1, 3960096, Note_off_c, 0, 58, 108
1, 3960806, Note_on_c, 0, 55, 98
1, 3965212, Note_off_c, 0, 55, 98
1, 3965638, Note_on_c, 0, 56, 98
1, 3972460, Note_off_c, 0, 56, 98
1, 3973028, Note_on_c, 0, 58, 101
1, 3983688, Note_off_c, 0, 58, 101
1, 3985535, Note_on_c, 0, 60, 108
1, 3991931, Note_off_c, 0, 60, 108
1, 3992215, Note_on_c, 0, 61, 99
1, 3995057, Note_off_c, 0, 61, 99
1, 3995483, Note_on_c, 0, 63, 107
1, 4003727, Note_off_c, 0, 63, 107
1, 4003869, Note_on_c, 0, 64, 112
1, 4008843, Note_off_c, 0, 64, 112
1, 4009127, Note_on_c, 0, 66, 111
1, 4014670, Note_off_c, 0, 66, 111
1, 4015238, Note_on_c, 0, 68, 109
1, 4021492, Note_off_c, 0, 68, 109
1, 4021776, Note_on_c, 0, 70, 110
1, 4028172, Note_off_c, 0, 70, 110
1, 4028314, Note_on_c, 0, 71, 114
1, 4035421, Note_off_c, 0, 71, 114
1, 4035421, Note_on_c, 0, 73, 108
1, 4041533, Note_off_c, 0, 73, 108
1, 4042066, Note_on_c, 0, 71, 104
1, 4064453, Note_off_c, 0, 71, 104
1, 4065452, Note_on_c, 0, 71, 108
1, 4069549, Note_off_c, 0, 71, 108
1, 4070528, Note_on_c, 0, 69, 103
1, 4075645, Note_off_c, 0, 69, 103
1, 4076071, Note_on_c, 0, 66, 107
1, 4080335, Note_off_c, 0, 66, 107
1, 4080619, Note_on_c, 0, 64, 115
1, 4087868, Note_off_c, 0, 64, 115
1, 4122266, Note_on_c, 0, 44, 106
1, 4130225, Note_off_c, 0, 44, 106
1, 4130935, Note_on_c, 0, 45, 106
1, 4138184, Note_off_c, 0, 45, 106
1, 4144224, Note_on_c, 0, 58, 107
1, 4146924, Note_off_c, 0, 58, 107
1, 4147172, Note_on_c, 0, 59, 97
1, 4155629, Note_off_c, 0, 59, 97
1, 4156801, Note_on_c, 0, 51, 99
1, 4184518, Note_off_c, 0, 51, 99
1, 4188973, Note_on_c, 0, 52, 104
1, 4206263, Note_off_c, 0, 52, 104
1, 4208361, Note_on_c, 0, 56, 111
1, 4219954, Note_off_c, 0, 56, 111
1, 4228722, Note_on_c, 0, 59, 97
1, 4241088, Note_off_c, 0, 59, 97
1, 4243788, Note_on_c, 0, 63, 117
1, 4257291, Note_off_c, 0, 63, 117
1, 4259138, Note_on_c, 0, 64, 119
1, 4274489, Note_off_c, 0, 64, 119
1, 4276905, Note_on_c, 0, 61, 97
1, 4291829, Note_off_c, 0, 61, 97
1, 4292113, Note_on_c, 0, 67, 109
1, 4297459, Note_off_c, 0, 67, 109
1, 4298004, Note_on_c, 0, 68, 105
1, 4307748, Note_off_c, 0, 68, 105
1, 4308647, Note_on_c, 0, 66, 107
1, 4311845, Note_off_c, 0, 66, 107
1, 4312094, Note_on_c, 0, 68, 92
1, 4366862, Note_off_c, 0, 68, 92
1, 4368261, Note_on_c, 0, 66, 103
1, 4376256, Note_off_c, 0, 66, 103
1, 4376655, Note_on_c, 0, 64, 111
1, 4384050, Note_off_c, 0, 64, 111
1, 4385449, Note_on_c, 0, 63, 101
1, 4402039, Note_off_c, 0, 63, 101
1, 4455408, Note_on_c, 0, 61, 119
1, 4463803, Note_off_c, 0, 61, 119
1, 4464602, Note_on_c, 0, 63, 127
1, 4473896, Note_off_c, 0, 63, 127
1, 4475195, Note_on_c, 0, 62, 119
1, 4478992, Note_off_c, 0, 62, 119
1, 4479491, Note_on_c, 0, 64, 120
1, 4492583, Note_off_c, 0, 64, 120
1, 4493231, Note_on_c, 0, 62, 123
1, 4496642, Note_off_c, 0, 62, 123
1, 4497068, Note_on_c, 0, 64, 117
1, 4542197, Note_off_c, 0, 64, 117
1, 4542552, Note_on_c, 0, 61, 108
1, 4548348, Note_off_c, 0, 61, 108
1, 4548747, Note_on_c, 0, 56, 100
1, 4556142, Note_off_c, 0, 56, 100
1, 4558540, Note_on_c, 0, 52, 102
1, 4565535, Note_off_c, 0, 52, 102
1, 4565535, Note_on_c, 0, 54, 96
1, 4599715, Note_off_c, 0, 54, 96
1, 4616505, Note_on_c, 0, 69, 111
1, 4621102, Note_off_c, 0, 69, 111
1, 4622701, Note_on_c, 0, 71, 117
1, 4629697, Note_off_c, 0, 71, 117
1, 4630296, Note_on_c, 0, 67, 108
1, 4636692, Note_off_c, 0, 67, 108
1, 4637091, Note_on_c, 0, 66, 102
1, 4645286, Note_off_c, 0, 66, 102
1, 4646285, Note_on_c, 0, 64, 111
1, 4655679, Note_off_c, 0, 64, 111
1, 4656278, Note_on_c, 0, 62, 104
1, 4665272, Note_off_c, 0, 62, 104
1, 4666871, Note_on_c, 0, 61, 95
1, 4675266, Note_off_c, 0, 61, 95
1, 4679463, Note_on_c, 0, 59, 99
1, 4685859, Note_off_c, 0, 59, 99
1, 4687458, Note_on_c, 0, 55, 93
1, 4690656, Note_off_c, 0, 55, 93
1, 4690855, Note_on_c, 0, 59, 95
1, 4695252, Note_off_c, 0, 59, 95
1, 4695651, Note_on_c, 0, 55, 95
1, 4700048, Note_off_c, 0, 55, 95
1, 4701247, Note_on_c, 0, 54, 97
1, 4712040, Note_off_c, 0, 54, 97
1, 4712939, Note_on_c, 0, 52, 100
1, 4723732, Note_off_c, 0, 52, 100
1, 4725542, Note_on_c, 0, 50, 98
1, 4728526, Note_off_c, 0, 50, 98
1, 4729023, Note_on_c, 0, 51, 106
1, 4738333, Note_off_c, 0, 51, 106
1, 4741620, Note_on_c, 0, 47, 96
1, 4750015, Note_off_c, 0, 47, 96
1, 4751813, Note_on_c, 0, 50, 88
1, 4761007, Note_off_c, 0, 50, 88
1, 4764129, Note_on_c, 0, 52, 102
1, 4776139, Note_off_c, 0, 52, 102
1, 4778395, Note_on_c, 0, 54, 99
1, 4792387, Note_off_c, 0, 54, 99
1, 4793586, Note_on_c, 0, 56, 104
1, 4805179, Note_off_c, 0, 56, 104
1, 4806778, Note_on_c, 0, 57, 94
1, 4818371, Note_off_c, 0, 57, 94
1, 4822368, Note_on_c, 0, 59, 94
1, 4833361, Note_off_c, 0, 59, 94
1, 4837158, Note_on_c, 0, 64, 121
1, 4847751, Note_off_c, 0, 64, 121
1, 4849549, Note_on_c, 0, 61, 92
1, 4859343, Note_off_c, 0, 61, 92
1, 4862341, Note_on_c, 0, 62, 106
1, 4874534, Note_off_c, 0, 62, 106
1, 4877265, Note_on_c, 0, 64, 111
1, 4889418, Note_off_c, 0, 64, 111
1, 4891923, Note_on_c, 0, 66, 102
1, 4901717, Note_off_c, 0, 66, 102
1, 4904910, Note_on_c, 0, 69, 98
1, 4912940, Note_off_c, 0, 69, 98
1, 4916906, Note_on_c, 0, 73, 94
1, 4929498, Note_off_c, 0, 73, 94
1, 4931559, Note_on_c, 0, 71, 96
1, 4935752, Note_off_c, 0, 71, 96
1, 4935965, Note_on_c, 0, 73, 91
1, 4976404, Note_off_c, 0, 73, 91
1, 4977070, Note_on_c, 0, 71, 106
1, 4981467, Note_off_c, 0, 71, 106
1, 4983066, Note_on_c, 0, 69, 102
1, 4990261, Note_off_c, 0, 69, 102
1, 4991460, Note_on_c, 0, 68, 100
1, 5000854, Note_off_c, 0, 68, 100
1, 5005682, Note_on_c, 0, 66, 103
1, 5015347, Note_off_c, 0, 66, 103
1, 5016843, Note_on_c, 0, 64, 112
1, 5030035, Note_off_c, 0, 64, 112
1, 5030834, Note_on_c, 0, 62, 102
1, 5042027, Note_off_c, 0, 62, 102
1, 5043226, Note_on_c, 0, 61, 96
1, 5057617, Note_off_c, 0, 61, 96
1, 5071409, Note_on_c, 0, 74, 107
1, 5077605, Note_off_c, 0, 74, 107
1, 5077605, Note_on_c, 0, 71, 108
1, 5082002, Note_off_c, 0, 71, 108
1, 5083001, Note_on_c, 0, 67, 105
1, 5086598, Note_off_c, 0, 67, 105
1, 5086598, Note_on_c, 0, 64, 112
1, 5095392, Note_off_c, 0, 64, 112
1, 5095392, Note_on_c, 0, 59, 94
1, 5102987, Note_off_c, 0, 59, 94
1, 5114340, Note_on_c, 0, 57, 96
1, 5123010, Note_off_c, 0, 57, 96
1, 5125284, Note_on_c, 0, 57, 104
1, 5128695, Note_off_c, 0, 57, 104
1, 5129769, Note_on_c, 0, 59, 101
1, 5161550, Note_off_c, 0, 59, 101
1, 5162735, Note_on_c, 0, 57, 99
1, 5166532, Note_off_c, 0, 57, 99
1, 5168344, Note_on_c, 0, 55, 101
1, 5176539, Note_off_c, 0, 55, 101
1, 5177538, Note_on_c, 0, 54, 98
1, 5190130, Note_off_c, 0, 54, 98
1, 5190929, Note_on_c, 0, 55, 93
1, 5194726, Note_off_c, 0, 55, 93
1, 5195525, Note_on_c, 0, 57, 99
1, 5205319, Note_off_c, 0, 57, 99
1, 5207517, Note_on_c, 0, 54, 99
1, 5214113, Note_off_c, 0, 54, 99
1, 5215512, Note_on_c, 0, 55, 91
1, 5225306, Note_off_c, 0, 55, 91
1, 5226705, Note_on_c, 0, 50, 88
1, 5275876, Note_off_c, 0, 50, 88
1, 5285821, Note_on_c, 0, 45, 81
1, 5289219, Note_off_c, 0, 45, 81
1, 5289765, Note_on_c, 0, 48, 89
1, 5291577, Note_off_c, 0, 48, 89
1, 5292465, Note_on_c, 0, 50, 104
1, 5295592, Note_off_c, 0, 50, 104
1, 5296515, Note_on_c, 0, 50, 104
1, 5300175, Note_off_c, 0, 50, 104
1, 5301458, Note_on_c, 0, 48, 99
1, 5308454, Note_off_c, 0, 48, 99
1, 5309253, Note_on_c, 0, 50, 105
1, 5313050, Note_off_c, 0, 50, 105
1, 5316847, Note_on_c, 0, 54, 105
1, 5323643, Note_off_c, 0, 54, 105
1, 5338656, Note_on_c, 0, 59, 106
1, 5340681, Note_off_c, 0, 59, 106
1, 5340894, Note_on_c, 0, 58, 102
1, 5346863, Note_off_c, 0, 58, 102
1, 5347289, Note_on_c, 0, 56, 94
1, 5350787, Note_off_c, 0, 56, 94
1, 5357021, Note_on_c, 0, 62, 115
1, 5362417, Note_off_c, 0, 62, 115
1, 5362832, Note_on_c, 0, 61, 105
1, 5364908, Note_off_c, 0, 61, 105
1, 5365214, Note_on_c, 0, 60, 103
1, 5369811, Note_off_c, 0, 60, 103
1, 5370410, Note_on_c, 0, 58, 97
1, 5374207, Note_off_c, 0, 58, 97
1, 5378604, Note_on_c, 0, 67, 105
1, 5383201, Note_off_c, 0, 67, 105
1, 5383400, Note_on_c, 0, 66, 104
1, 5387597, Note_off_c, 0, 66, 104
1, 5388076, Note_on_c, 0, 65, 108
1, 5391487, Note_off_c, 0, 65, 108
1, 5392055, Note_on_c, 0, 64, 109
1, 5398167, Note_off_c, 0, 64, 109
1, 5402573, Note_on_c, 0, 71, 107
1, 5407405, Note_off_c, 0, 71, 107
1, 5407405, Note_on_c, 0, 74, 99
1, 5410247, Note_off_c, 0, 74, 99
1, 5410247, Note_on_c, 0, 71, 99
1, 5413942, Note_off_c, 0, 71, 99
1, 5414652, Note_on_c, 0, 70, 89
1, 5418347, Note_off_c, 0, 70, 89
1, 5418915, Note_on_c, 0, 69, 99
1, 5428012, Note_off_c, 0, 69, 99
1, 5432702, Note_on_c, 0, 68, 96
1, 5438814, Note_off_c, 0, 68, 96
1, 5440377, Note_on_c, 0, 67, 100
1, 5446631, Note_off_c, 0, 67, 100
1, 5450703, Note_on_c, 0, 66, 101
1, 5457149, Note_off_c, 0, 66, 101
1, 5460418, Note_on_c, 0, 65, 105
1, 5466530, Note_off_c, 0, 65, 105
1, 5467951, Note_on_c, 0, 64, 106
1, 5476479, Note_off_c, 0, 64, 106
1, 5477473, Note_on_c, 0, 63, 107
1, 5485006, Note_off_c, 0, 63, 107
1, 5489427, Note_on_c, 0, 74, 102
1, 5497222, Note_off_c, 0, 74, 102
1, 5498721, Note_on_c, 0, 70, 92
1, 5505417, Note_off_c, 0, 70, 92
1, 5506116, Note_on_c, 0, 67, 98
1, 5514111, Note_off_c, 0, 67, 98
1, 5515110, Note_on_c, 0, 66, 99
1, 5520906, Note_off_c, 0, 66, 99
1, 5522205, Note_on_c, 0, 65, 100
1, 5529001, Note_off_c, 0, 65, 100
1, 5529700, Note_on_c, 0, 63, 110
1, 5536196, Note_off_c, 0, 63, 110
1, 5538794, Note_on_c, 0, 62, 93
1, 5560381, Note_off_c, 0, 62, 93
1, 5575272, Note_on_c, 0, 75, 113
1, 5581218, Note_off_c, 0, 75, 113
1, 5581667, Note_on_c, 0, 77, 108
1, 5588662, Note_off_c, 0, 77, 108
1, 5593859, Note_on_c, 0, 76, 119
1, 5599755, Note_off_c, 0, 76, 119
1, 5603053, Note_on_c, 0, 75, 108
1, 5609749, Note_off_c, 0, 75, 108
1, 5615054, Note_on_c, 0, 77, 106
1, 5620952, Note_off_c, 0, 77, 106
1, 5621875, Note_on_c, 0, 80, 121
1, 5637652, Note_off_c, 0, 80, 121
1, 5638362, Note_on_c, 0, 77, 85
1, 5641773, Note_off_c, 0, 77, 85
1, 5646108, Note_on_c, 0, 70, 93
1, 5649945, Note_off_c, 0, 70, 93
1, 5651650, Note_on_c, 0, 70, 97
1, 5655203, Note_off_c, 0, 70, 97
1, 5659822, Note_on_c, 0, 74, 109
1, 5663730, Note_off_c, 0, 74, 109
1, 5664369, Note_on_c, 0, 75, 99
1, 5673181, Note_off_c, 0, 75, 99
1, 5673702, Note_on_c, 0, 76, 92
1, 5677200, Note_off_c, 0, 76, 92
1, 5679007, Note_on_c, 0, 71, 95
1, 5681636, Note_off_c, 0, 71, 95
1, 5682559, Note_on_c, 0, 67, 89
1, 5685330, Note_off_c, 0, 67, 89
1, 5686467, Note_on_c, 0, 60, 99
1, 5691299, Note_off_c, 0, 60, 99
1, 5698761, Note_on_c, 0, 72, 101
1, 5700893, Note_off_c, 0, 72, 101
1, 5700964, Note_on_c, 0, 73, 100
1, 5714538, Note_off_c, 0, 73, 100
1, 5715390, Note_on_c, 0, 70, 94
1, 5717664, Note_off_c, 0, 70, 94
1, 5719227, Note_on_c, 0, 58, 89
1, 5721145, Note_off_c, 0, 58, 89
1, 5721713, Note_on_c, 0, 60, 99
1, 5731378, Note_off_c, 0, 60, 99
1, 5736566, Note_on_c, 0, 71, 101
1, 5740190, Note_off_c, 0, 71, 101
1, 5740758, Note_on_c, 0, 72, 101
1, 5752342, Note_off_c, 0, 72, 101
1, 5755113, Note_on_c, 0, 58, 98
1, 5758240, Note_off_c, 0, 58, 98
1, 5761224, Note_on_c, 0, 58, 109
1, 5764848, Note_off_c, 0, 58, 109
1, 5766036, Note_on_c, 0, 70, 87
1, 5770233, Note_off_c, 0, 70, 87
1, 5772031, Note_on_c, 0, 70, 114
1, 5780925, Note_off_c, 0, 70, 114
1, 5781524, Note_on_c, 0, 69, 108
1, 5784422, Note_off_c, 0, 69, 108
1, 5789918, Note_on_c, 0, 58, 106
1, 5795015, Note_off_c, 0, 58, 106
1, 5801911, Note_on_c, 0, 67, 105
1, 5808520, Note_off_c, 0, 67, 105
1, 5809506, Note_on_c, 0, 69, 109
1, 5825197, Note_off_c, 0, 69, 109
1, 5827295, Note_on_c, 0, 67, 103
1, 5830892, Note_off_c, 0, 67, 103
1, 5831791, Note_on_c, 0, 65, 100
1, 5836788, Note_off_c, 0, 65, 100
1, 5838786, Note_on_c, 0, 60, 98
1, 5844082, Note_off_c, 0, 60, 98
1, 5845481, Note_on_c, 0, 58, 88
1, 5853476, Note_off_c, 0, 58, 88
1, 5854475, Note_on_c, 0, 51, 89
1, 5856673, Note_off_c, 0, 51, 89
1, 5857472, Note_on_c, 0, 49, 92
1, 5859071, Note_off_c, 0, 49, 92
1, 5859670, Note_on_c, 0, 48, 89
1, 5861069, Note_off_c, 0, 48, 89
1, 5861368, Note_on_c, 0, 46, 84
1, 5865515, Note_off_c, 0, 46, 84
1, 5866364, Note_on_c, 0, 44, 83
1, 5888751, Note_off_c, 0, 44, 83
1, 5994390, Note_on_c, 0, 68, 109
1, 5999587, Note_off_c, 0, 68, 109
1, 6000486, Note_on_c, 0, 70, 113
1, 6005483, Note_off_c, 0, 70, 113
1, 6005782, Note_on_c, 0, 71, 114
1, 6010279, Note_off_c, 0, 71, 114
1, 6011302, Note_on_c, 0, 81, 94
1, 6017129, Note_off_c, 0, 81, 94
1, 6018408, Note_on_c, 0, 79, 112
1, 6024164, Note_off_c, 0, 79, 112
1, 6028215, Note_on_c, 0, 74, 103
1, 6031342, Note_off_c, 0, 74, 103
1, 6034753, Note_on_c, 0, 71, 114
1, 6038164, Note_off_c, 0, 71, 114
1, 6038803, Note_on_c, 0, 68, 101
1, 6044417, Note_off_c, 0, 68, 101
1, 6045909, Note_on_c, 0, 65, 110
1, 6050386, Note_off_c, 0, 65, 110
1, 6050528, Note_on_c, 0, 63, 117
1, 6053726, Note_off_c, 0, 63, 117
1, 6054578, Note_on_c, 0, 59, 104
1, 6058202, Note_off_c, 0, 59, 104
1, 6059196, Note_on_c, 0, 57, 101
1, 6064597, Note_off_c, 0, 57, 101
1, 6065663, Note_on_c, 0, 53, 104
1, 6068434, Note_off_c, 0, 53, 104
1, 6069428, Note_on_c, 0, 51, 103
1, 6075255, Note_off_c, 0, 51, 103
1, 6075880, Note_on_c, 0, 58, 104
1, 6080927, Note_off_c, 0, 58, 104
1, 6081276, Note_on_c, 0, 59, 108
1, 6084823, Note_off_c, 0, 59, 108
1, 6088329, Note_on_c, 0, 74, 105
1, 6092380, Note_off_c, 0, 74, 105
1, 6092522, Note_on_c, 0, 75, 121
1, 6096430, Note_off_c, 0, 75, 121
1, 6096501, Note_on_c, 0, 74, 116
1, 6101902, Note_off_c, 0, 74, 116
1, 6102044, Note_on_c, 0, 72, 115
1, 6105384, Note_off_c, 0, 72, 115
1, 6105384, Note_on_c, 0, 71, 117
1, 6109363, Note_off_c, 0, 71, 117
1, 6109647, Note_on_c, 0, 70, 111
1, 6112560, Note_off_c, 0, 70, 111
1, 6112631, Note_on_c, 0, 69, 105
1, 6115971, Note_off_c, 0, 69, 105
1, 6116326, Note_on_c, 0, 67, 115
1, 6118742, Note_off_c, 0, 67, 115
1, 6119808, Note_on_c, 0, 66, 112
1, 6124356, Note_off_c, 0, 66, 112
1, 6124569, Note_on_c, 0, 64, 118
1, 6128620, Note_off_c, 0, 64, 118
1, 6128833, Note_on_c, 0, 63, 116
1, 6132599, Note_off_c, 0, 63, 116
1, 6132741, Note_on_c, 0, 62, 114
1, 6135939, Note_off_c, 0, 62, 114
1, 6136152, Note_on_c, 0, 61, 118
1, 6138852, Note_off_c, 0, 61, 118
1, 6138852, Note_on_c, 0, 59, 116
1, 6142263, Note_off_c, 0, 59, 116
1, 6143186, Note_on_c, 0, 58, 108
1, 6147165, Note_off_c, 0, 58, 108
1, 6147662, Note_on_c, 0, 55, 109
1, 6149794, Note_off_c, 0, 55, 109
1, 6152139, Note_on_c, 0, 53, 109
1, 6154413, Note_off_c, 0, 53, 109
1, 6155265, Note_on_c, 0, 54, 108
1, 6157823, Note_off_c, 0, 54, 108
1, 6159386, Note_on_c, 0, 58, 103
1, 6161873, Note_off_c, 0, 58, 103
1, 6163720, Note_on_c, 0, 74, 115
1, 6165994, Note_off_c, 0, 74, 115
1, 6166491, Note_on_c, 0, 75, 118
1, 6169618, Note_off_c, 0, 75, 118
1, 6172956, Note_on_c, 0, 52, 93
1, 6214032, Note_off_c, 0, 52, 93
1, 6221727, Note_on_c, 0, 51, 106
1, 6224625, Note_off_c, 0, 51, 106
1, 6225264, Note_on_c, 0, 53, 121
1, 6227396, Note_off_c, 0, 53, 121
1, 6228022, Note_on_c, 0, 52, 115
1, 6230220, Note_off_c, 0, 52, 115
1, 6230569, Note_on_c, 0, 50, 112
1, 6232949, Note_off_c, 0, 50, 112
1, 6233516, Note_on_c, 0, 49, 105
1, 6242810, Note_off_c, 0, 49, 105
1, 6244009, Note_on_c, 0, 51, 113
1, 6251204, Note_off_c, 0, 51, 113
1, 6255701, Note_on_c, 0, 53, 109
1, 6262697, Note_off_c, 0, 53, 109
1, 6265910, Note_on_c, 0, 54, 111
1, 6273656, Note_off_c, 0, 54, 111
1, 6275688, Note_on_c, 0, 52, 110
1, 6280785, Note_off_c, 0, 52, 110
1, 6283783, Note_on_c, 0, 48, 101
1, 6302772, Note_off_c, 0, 48, 101
1, 6317663, Note_on_c, 0, 60, 109
1, 6326058, Note_off_c, 0, 60, 109
1, 6327457, Note_on_c, 0, 56, 106
1, 6337951, Note_off_c, 0, 56, 106
1, 6339250, Note_on_c, 0, 58, 111
1, 6347845, Note_off_c, 0, 58, 111
1, 6351476, Note_on_c, 0, 59, 104
1, 6359720, Note_off_c, 0, 59, 104
1, 6362847, Note_on_c, 0, 64, 125
1, 6370380, Note_off_c, 0, 64, 125
1, 6373729, Note_on_c, 0, 68, 107
1, 6383623, Note_off_c, 0, 68, 107
1, 6383623, Note_on_c, 0, 70, 99
1, 6393217, Note_off_c, 0, 70, 99
1, 6393616, Note_on_c, 0, 72, 103
1, 6402610, Note_off_c, 0, 72, 103
1, 6403809, Note_on_c, 0, 60, 110
1, 6413503, Note_off_c, 0, 60, 110
1, 6416501, Note_on_c, 0, 70, 96
1, 6438388, Note_off_c, 0, 70, 96
1, 6462874, Note_on_c, 0, 67, 113
1, 6469270, Note_off_c, 0, 67, 113
1, 6469769, Note_on_c, 0, 68, 113
1, 6475465, Note_off_c, 0, 68, 113
1, 6476214, Note_on_c, 0, 70, 112
1, 6480661, Note_off_c, 0, 70, 112
1, 6481310, Note_on_c, 0, 71, 111
1, 6487006, Note_off_c, 0, 71, 111
1, 6487555, Note_on_c, 0, 74, 109
1, 6491702, Note_off_c, 0, 74, 109
1, 6492651, Note_on_c, 0, 71, 117
1, 6498247, Note_off_c, 0, 71, 117
1, 6498746, Note_on_c, 0, 70, 112
1, 6503693, Note_off_c, 0, 70, 112
1, 6505142, Note_on_c, 0, 68, 105
1, 6508040, Note_off_c, 0, 68, 105
1, 6508939, Note_on_c, 0, 67, 110
1, 6517034, Note_off_c, 0, 67, 110
1, 6517933, Note_on_c, 0, 68, 108
1, 6524129, Note_off_c, 0, 68, 108
1, 6524528, Note_on_c, 0, 70, 112
1, 6528325, Note_off_c, 0, 70, 112
1, 6528624, Note_on_c, 0, 71, 118
1, 6532521, Note_off_c, 0, 71, 118
1, 6532920, Note_on_c, 0, 70, 109
1, 6536817, Note_on_c, 0, 68, 108
1, 6536817, Note_off_c, 0, 70, 109
1, 6541214, Note_off_c, 0, 68, 108
1, 6542913, Note_on_c, 0, 67, 114
1, 6546810, Note_off_c, 0, 67, 114
1, 6547009, Note_on_c, 0, 63, 120
1, 6553005, Note_off_c, 0, 63, 120
1, 6554903, Note_on_c, 0, 62, 116
1, 6560599, Note_off_c, 0, 62, 116
1, 6560998, Note_on_c, 0, 63, 119
1, 6566594, Note_off_c, 0, 63, 119
1, 6566793, Note_on_c, 0, 67, 112
1, 6571090, Note_off_c, 0, 67, 112
1, 6571289, Note_on_c, 0, 68, 117
1, 6578085, Note_off_c, 0, 68, 117
1, 6582924, Note_on_c, 0, 63, 118
1, 6584487, Note_off_c, 0, 63, 118
1, 6585339, Note_on_c, 0, 62, 121
1, 6592019, Note_off_c, 0, 62, 121
1, 6592874, Note_on_c, 0, 59, 101
1, 6597871, Note_off_c, 0, 59, 101
1, 6598170, Note_on_c, 0, 58, 106
1, 6607164, Note_off_c, 0, 58, 106
1, 6608079, Note_on_c, 0, 55, 109
1, 6611561, Note_off_c, 0, 55, 109
1, 6612060, Note_on_c, 0, 50, 102
1, 6618056, Note_off_c, 0, 50, 102
1, 6619155, Note_on_c, 0, 55, 101
1, 6624352, Note_off_c, 0, 55, 101
1, 6624451, Note_on_c, 0, 56, 107
1, 6628848, Note_off_c, 0, 56, 107
1, 6630047, Note_on_c, 0, 58, 112
1, 6635643, Note_off_c, 0, 58, 112
1, 6635942, Note_on_c, 0, 59, 106
1, 6640939, Note_off_c, 0, 59, 106
1, 6641238, Note_on_c, 0, 63, 110
1, 6644736, Note_off_c, 0, 63, 110
1, 6645135, Note_on_c, 0, 65, 113
1, 6652230, Note_off_c, 0, 65, 113
1, 6652829, Note_on_c, 0, 63, 119
1, 6657826, Note_off_c, 0, 63, 119
1, 6659025, Note_on_c, 0, 61, 110
1, 6664721, Note_off_c, 0, 61, 110
1, 6665720, Note_on_c, 0, 60, 113
1, 6671516, Note_off_c, 0, 60, 113
1, 6671516, Note_on_c, 0, 58, 107
1, 6677012, Note_on_c, 0, 63, 117
1, 6677012, Note_off_c, 0, 58, 107
1, 6684807, Note_off_c, 0, 63, 117
1, 6685806, Note_on_c, 0, 61, 108
1, 6692002, Note_off_c, 0, 61, 108
1, 6694700, Note_on_c, 0, 60, 110
1, 6703694, Note_off_c, 0, 60, 110
1, 6703893, Note_on_c, 0, 58, 105
1, 6714686, Note_off_c, 0, 58, 105
1, 6715785, Note_on_c, 0, 53, 103
1, 6722181, Note_off_c, 0, 53, 103
1, 6725778, Note_on_c, 0, 51, 102
1, 6735572, Note_off_c, 0, 51, 102
1, 6736671, Note_on_c, 0, 55, 107
1, 6742967, Note_off_c, 0, 55, 107
1, 6743166, Note_on_c, 0, 56, 104
1, 6750761, Note_off_c, 0, 56, 104
1, 6752360, Note_on_c, 0, 51, 103
1, 6762554, Note_off_c, 0, 51, 103
1, 6763353, Note_on_c, 0, 48, 99
1, 6773447, Note_off_c, 0, 48, 99
1, 6774746, Note_on_c, 0, 46, 100
1, 6784340, Note_off_c, 0, 46, 100
1, 6793035, Note_on_c, 0, 58, 106
1, 6821019, Note_off_c, 0, 58, 106
1, 6852001, Note_on_c, 0, 44, 112
1, 6859196, Note_off_c, 0, 44, 112
1, 6860817, Note_on_c, 0, 58, 109
1, 6863873, Note_off_c, 0, 58, 109
1, 6864299, Note_on_c, 0, 58, 104
1, 6866822, Note_off_c, 0, 58, 104
1, 6867816, Note_on_c, 0, 58, 107
1, 6870729, Note_off_c, 0, 58, 107
1, 6871155, Note_on_c, 0, 58, 101
1, 6873429, Note_off_c, 0, 58, 101
1, 6874246, Note_on_c, 0, 58, 104
1, 6876271, Note_off_c, 0, 58, 104
1, 6876697, Note_on_c, 0, 58, 104
1, 6881594, Note_off_c, 0, 58, 104
1, 6882808, Note_on_c, 0, 58, 108
1, 6888554, Note_off_c, 0, 58, 108
1, 6889097, Note_on_c, 0, 58, 105
1, 6891584, Note_off_c, 0, 58, 105
1, 6892010, Note_on_c, 0, 58, 104
1, 6894248, Note_off_c, 0, 58, 104
1, 6894781, Note_on_c, 0, 58, 106
1, 6900715, Note_off_c, 0, 58, 106
1, 6901745, Note_on_c, 0, 58, 106
1, 6903521, Note_off_c, 0, 58, 106
1, 6904018, Note_on_c, 0, 58, 106
1, 6907002, Note_off_c, 0, 58, 106
1, 6907890, Note_on_c, 0, 58, 105
1, 6909773, Note_off_c, 0, 58, 105
1, 6910519, Note_on_c, 0, 58, 105
1, 6912153, Note_off_c, 0, 58, 105
1, 6913219, Note_on_c, 0, 56, 104
1, 6917341, Note_off_c, 0, 56, 104
1, 6918349, Note_on_c, 0, 58, 107
1, 6925744, Note_off_c, 0, 58, 107
1, 6925943, Note_on_c, 0, 56, 97
1, 7015291, Note_off_c, 0, 56, 97
1, 7111635, Note_on_c, 0, 56, 105
1, 7118631, Note_off_c, 0, 56, 105
1, 7119630, Note_on_c, 0, 58, 110
1, 7129024, Note_off_c, 0, 58, 110
1, 7130223, Note_on_c, 0, 60, 117
1, 7136819, Note_off_c, 0, 60, 117
1, 7145014, Note_on_c, 0, 63, 126
1, 7152609, Note_off_c, 0, 63, 126
1, 7153408, Note_on_c, 0, 61, 107
1, 7158405, Note_off_c, 0, 61, 107
1, 7160803, Note_on_c, 0, 60, 109
1, 7166799, Note_off_c, 0, 60, 109
1, 7168398, Note_on_c, 0, 58, 107
1, 7175993, Note_off_c, 0, 58, 107
1, 7176992, Note_on_c, 0, 56, 95
1, 7183388, Note_off_c, 0, 56, 95
1, 7185386, Note_on_c, 0, 58, 107
1, 7192382, Note_off_c, 0, 58, 107
1, 7192781, Note_on_c, 0, 60, 107
1, 7201176, Note_off_c, 0, 60, 107
1, 7208771, Note_on_c, 0, 53, 102
1, 7217166, Note_off_c, 0, 53, 102
1, 7223562, Note_on_c, 0, 56, 97
1, 7242751, Note_off_c, 0, 56, 97
1, 7251945, Note_on_c, 0, 49, 101
1, 7261739, Note_off_c, 0, 49, 101
1, 7262538, Note_on_c, 0, 48, 96
1, 7270533, Note_off_c, 0, 48, 96
1, 7273431, Note_on_c, 0, 59, 104
1, 7277228, Note_off_c, 0, 59, 104
1, 7280975, Note_on_c, 0, 52, 97
1, 7284223, Note_off_c, 0, 52, 97
1, 7285222, Note_on_c, 0, 53, 102
1, 7291018, Note_off_c, 0, 53, 102
1, 7293616, Note_on_c, 0, 49, 95
1, 7296964, Note_off_c, 0, 49, 95
1, 7297613, Note_on_c, 0, 48, 94
1, 7304559, Note_off_c, 0, 48, 94
1, 7305650, Note_on_c, 0, 46, 99
1, 7307924, Note_off_c, 0, 46, 99
1, 7308208, Note_on_c, 0, 45, 96
1, 7311903, Note_off_c, 0, 45, 96
1, 7312897, Note_on_c, 0, 44, 98
1, 7320430, Note_off_c, 0, 44, 98
1, 7322277, Note_on_c, 0, 48, 96
1, 7328815, Note_off_c, 0, 48, 96
1, 7330804, Note_on_c, 0, 49, 92
1, 7333931, Note_off_c, 0, 49, 92
1, 7335068, Note_on_c, 0, 51, 94
1, 7338337, Note_off_c, 0, 51, 94
1, 7340326, Note_on_c, 0, 53, 109
1, 7349423, Note_off_c, 0, 53, 109
1, 7350702, Note_on_c, 0, 50, 101
1, 7355676, Note_off_c, 0, 50, 101
1, 7356528, Note_on_c, 0, 51, 102
1, 7363919, Note_off_c, 0, 51, 102
1, 7364913, Note_on_c, 0, 53, 106
1, 7371025, Note_off_c, 0, 53, 106
1, 7371593, Note_on_c, 0, 54, 104
1, 7380547, Note_off_c, 0, 54, 104
1, 7383452, Note_on_c, 0, 56, 102
1, 7391847, Note_off_c, 0, 56, 102
1, 7396744, Note_on_c, 0, 58, 105
1, 7406138, Note_off_c, 0, 58, 105
1, 7407552, Note_on_c, 0, 56, 98
1, 7415654, Note_off_c, 0, 56, 98
1, 7418829, Note_on_c, 0, 58, 109
1, 7428223, Note_off_c, 0, 58, 109
1, 7431571, Note_on_c, 0, 59, 98
1, 7439316, Note_off_c, 0, 59, 98
1, 7443863, Note_on_c, 0, 61, 104
1, 7452258, Note_off_c, 0, 61, 104
1, 7456805, Note_on_c, 0, 63, 116
1, 7464400, Note_off_c, 0, 63, 116
1, 7469597, Note_on_c, 0, 64, 118
1, 7478591, Note_off_c, 0, 64, 118
1, 7481789, Note_on_c, 0, 65, 103
1, 7490583, Note_off_c, 0, 65, 103
1, 7494480, Note_on_c, 0, 66, 106
1, 7501875, Note_off_c, 0, 66, 106
1, 7505023, Note_on_c, 0, 68, 99
1, 7513867, Note_off_c, 0, 68, 99
1, 7515865, Note_on_c, 0, 70, 95
1, 7524659, Note_off_c, 0, 70, 95
1, 7528787, Note_on_c, 0, 72, 98
1, 7535965, Note_off_c, 0, 72, 98
1, 7538807, Note_on_c, 0, 73, 94
1, 7546980, Note_off_c, 0, 73, 94
1, 7549542, Note_on_c, 0, 72, 95
1, 7558137, Note_off_c, 0, 72, 95
1, 7558736, Note_on_c, 0, 73, 92
1, 7568330, Note_off_c, 0, 73, 92
1, 7568729, Note_on_c, 0, 72, 91
1, 7578123, Note_off_c, 0, 72, 91
1, 7581720, Note_on_c, 0, 69, 91
1, 7587916, Note_off_c, 0, 69, 91
1, 7588715, Note_on_c, 0, 65, 101
1, 7598109, Note_off_c, 0, 65, 101
1, 7598109, Note_on_c, 0, 61, 94
1, 7602506, Note_off_c, 0, 61, 94
1, 7603505, Note_on_c, 0, 60, 99
1, 7612899, Note_off_c, 0, 60, 99
1, 7615297, Note_on_c, 0, 58, 80
1, 7636884, Note_off_c, 0, 58, 80
1, 7636884, End_track
0, 0, End_of_file
