0, 0, Header, 1, 1, 840
1, 0, Start_track
1, 0, Title_t, "Melody"
1, 0, Tempo, 394736
1, 0, Key_signature, -3, "major"
1, 0, Time_signature, 4, 2, 24, 8
1, 4668, Note_on_c, 0, 56, 87
1, 4780, Note_off_c, 0, 56, 87
1, 4836, Note_on_c, 0, 58, 84
1, 4931, Note_off_c, 0, 58, 84
1, 5009, Note_on_c, 0, 62, 91
1, 5087, Note_off_c, 0, 62, 91
1, 5100, Note_on_c, 0, 63, 93
1, 5221, Note_off_c, 0, 63, 93
1, 5290, Note_on_c, 0, 68, 89
1, 5402, Note_off_c, 0, 68, 89
1, 5449, Note_on_c, 0, 66, 90
1, 5546, Note_off_c, 0, 66, 90
1, 5602, Note_on_c, 0, 61, 86
1, 5738, Note_off_c, 0, 61, 86
1, 5768, Note_on_c, 0, 66, 85
1, 5874, Note_off_c, 0, 66, 85
1, 5923, Note_on_c, 0, 63, 90
1, 6059, Note_off_c, 0, 63, 90
1, 6098, Note_on_c, 0, 59, 94
1, 6197, Note_off_c, 0, 59, 94
1, 6262, Note_on_c, 0, 55, 91
1, 6342, Note_off_c, 0, 55, 91
1, 6394, Note_on_c, 0, 51, 92
1, 6589, Note_off_c, 0, 51, 92
1, 6628, Note_on_c, 0, 56, 92
1, 6814, Note_off_c, 0, 56, 92
1, 6833, Note_on_c, 0, 57, 94
1, 6926, Note_off_c, 0, 57, 94
1, 6945, Note_on_c, 0, 59, 94
1, 7031, Note_off_c, 0, 59, 94
1, 7048, Note_on_c, 0, 58, 98
1, 7141, Note_off_c, 0, 58, 98
1, 7164, Note_on_c, 0, 60, 95
1, 7292, Note_off_c, 0, 60, 95
1, 7420, Note_on_c, 0, 58, 90
1, 7704, Note_off_c, 0, 58, 90
1, 10207, Note_on_c, 0, 67, 117
1, 10348, Note_off_c, 0, 67, 117
1, 10384, Note_on_c, 0, 69, 116
1, 10486, Note_off_c, 0, 69, 116
1, 10512, Note_on_c, 0, 72, 118
1, 10692, Note_off_c, 0, 72, 118
1, 10726, Note_on_c, 0, 69, 115
1, 10825, Note_off_c, 0, 69, 115
1, 10846, Note_on_c, 0, 70, 115
1, 10984, Note_off_c, 0, 70, 115
1, 11083, Note_on_c, 0, 60, 101
1, 11217, Note_off_c, 0, 60, 101
1, 11258, Note_on_c, 0, 58, 104
1, 11390, Note_off_c, 0, 58, 104
1, 11426, Note_on_c, 0, 62, 96
1, 11588, Note_off_c, 0, 62, 96
1, 11659, Note_on_c, 0, 67, 116
1, 11839, Note_off_c, 0, 67, 116
1, 11882, Note_on_c, 0, 66, 114
1, 12031, Note_off_c, 0, 66, 114
1, 12052, Note_on_c, 0, 65, 111
1, 12230, Note_off_c, 0, 65, 111
1, 12243, Note_on_c, 0, 64, 115
1, 12381, Note_off_c, 0, 64, 115
1, 12404, Note_on_c, 0, 63, 112
1, 12616, Note_off_c, 0, 63, 112
1, 12684, Note_on_c, 0, 58, 98
1, 12782, Note_off_c, 0, 58, 98
1, 12877, Note_on_c, 0, 61, 96
1, 13002, Note_off_c, 0, 61, 96
1, 13017, Note_on_c, 0, 62, 109
1, 13184, Note_off_c, 0, 62, 109
1, 13238, Note_on_c, 0, 58, 107
1, 13452, Note_off_c, 0, 58, 107
1, 13479, Note_on_c, 0, 53, 104
1, 13602, Note_off_c, 0, 53, 104
1, 13608, Note_on_c, 0, 50, 100
1, 13756, Note_off_c, 0, 50, 100
1, 13780, Note_on_c, 0, 48, 91
1, 13912, Note_off_c, 0, 48, 91
1, 14017, Note_on_c, 0, 55, 107
1, 14236, Note_off_c, 0, 55, 107
1, 14273, Note_on_c, 0, 52, 103
1, 14418, Note_off_c, 0, 52, 103
1, 14433, Note_on_c, 0, 53, 102
1, 14615, Note_off_c, 0, 53, 102
1, 14652, Note_on_c, 0, 55, 98
1, 14855, Note_off_c, 0, 55, 98
1, 14888, Note_on_c, 0, 56, 109
1, 15033, Note_off_c, 0, 56, 109
1, 15107, Note_on_c, 0, 59, 104
1, 15323, Note_off_c, 0, 59, 104
1, 15353, Note_on_c, 0, 61, 96
1, 15476, Note_off_c, 0, 61, 96
1, 15503, Note_on_c, 0, 64, 97
1, 15660, Note_off_c, 0, 64, 97
1, 15675, Note_on_c, 0, 68, 113
1, 15897, Note_off_c, 0, 68, 113
1, 15992, Note_on_c, 0, 71, 114
1, 16121, Note_off_c, 0, 71, 114
1, 16148, Note_on_c, 0, 66, 108
1, 16367, Note_off_c, 0, 66, 108
1, 16419, Note_on_c, 0, 61, 97
1, 16527, Note_off_c, 0, 61, 97
1, 16573, Note_on_c, 0, 64, 107
1, 16749, Note_off_c, 0, 64, 107
1, 16795, Note_on_c, 0, 59, 106
1, 16921, Note_off_c, 0, 59, 106
1, 16970, Note_on_c, 0, 54, 95
1, 17167, Note_off_c, 0, 54, 95
1, 17414, Note_on_c, 0, 56, 106
1, 17574, Note_off_c, 0, 56, 106
1, 17669, Note_on_c, 0, 56, 104
1, 17820, Note_off_c, 0, 56, 104
1, 17912, Note_on_c, 0, 56, 103
1, 18088, Note_off_c, 0, 56, 103
1, 18174, Note_on_c, 0, 56, 112
1, 18337, Note_off_c, 0, 56, 112
1, 18432, Note_on_c, 0, 56, 111
1, 18611, Note_off_c, 0, 56, 111
1, 18700, Note_on_c, 0, 56, 110
1, 18956, Note_off_c, 0, 56, 110
1, 19008, Note_on_c, 0, 56, 112
1, 19242, Note_off_c, 0, 56, 112
1, 19297, Note_on_c, 0, 55, 106
1, 19429, Note_off_c, 0, 55, 106
1, 19487, Note_on_c, 0, 54, 103
1, 19693, Note_off_c, 0, 54, 103
1, 19742, Note_on_c, 0, 53, 94
1, 20205, Note_off_c, 0, 53, 94
1, 20621, Note_on_c, 0, 52, 103
1, 20840, Note_off_c, 0, 52, 103
1, 20945, Note_on_c, 0, 51, 106
1, 21136, Note_off_c, 0, 51, 106
1, 21225, Note_on_c, 0, 51, 100
1, 21431, Note_off_c, 0, 51, 100
1, 21529, Note_on_c, 0, 51, 108
1, 21726, Note_off_c, 0, 51, 108
1, 21800, Note_on_c, 0, 51, 114
1, 21988, Note_off_c, 0, 51, 114
1, 22037, Note_on_c, 0, 51, 110
1, 22268, Note_off_c, 0, 51, 110
1, 22320, Note_on_c, 0, 51, 112
1, 22557, Note_off_c, 0, 51, 112
1, 22621, Note_on_c, 0, 51, 114
1, 22868, Note_off_c, 0, 51, 114
1, 22920, Note_on_c, 0, 50, 105
1, 23043, Note_off_c, 0, 50, 105
1, 23095, Note_on_c, 0, 49, 106
1, 23209, Note_off_c, 0, 49, 106
1, 23283, Note_on_c, 0, 48, 87
1, 23943, Note_off_c, 0, 48, 87
1, 28600, Note_on_c, 0, 62, 115
1, 28813, Note_off_c, 0, 62, 115
1, 28843, Note_on_c, 0, 64, 112
1, 28944, Note_off_c, 0, 64, 112
1, 28968, Note_on_c, 0, 66, 119
1, 29150, Note_off_c, 0, 66, 119
1, 29183, Note_on_c, 0, 62, 112
1, 29303, Note_off_c, 0, 62, 112
1, 29333, Note_on_c, 0, 64, 122
1, 29502, Note_off_c, 0, 64, 122
1, 29585, Note_on_c, 0, 58, 109
1, 29733, Note_off_c, 0, 58, 109
1, 29807, Note_on_c, 0, 54, 106
1, 29961, Note_off_c, 0, 54, 106
1, 30220, Note_on_c, 0, 57, 114
1, 30355, Note_off_c, 0, 57, 114
1, 30441, Note_on_c, 0, 62, 113
1, 30579, Note_off_c, 0, 62, 113
1, 30628, Note_on_c, 0, 59, 107
1, 30841, Note_off_c, 0, 59, 107
1, 30887, Note_on_c, 0, 57, 104
1, 31025, Note_off_c, 0, 57, 104
1, 31040, Note_on_c, 0, 58, 112
1, 31268, Note_off_c, 0, 58, 112
1, 31305, Note_on_c, 0, 61, 109
1, 31530, Note_off_c, 0, 61, 109
1, 31542, Note_on_c, 0, 62, 108
1, 31650, Note_off_c, 0, 62, 108
1, 31693, Note_on_c, 0, 63, 121
1, 31946, Note_off_c, 0, 63, 121
1, 31998, Note_on_c, 0, 61, 112
1, 32223, Note_off_c, 0, 61, 112
1, 32247, Note_on_c, 0, 60, 106
1, 32385, Note_off_c, 0, 60, 106
1, 32409, Note_on_c, 0, 61, 105
1, 32622, Note_off_c, 0, 61, 105
1, 32659, Note_on_c, 0, 65, 99
1, 32776, Note_off_c, 0, 65, 99
1, 32834, Note_on_c, 0, 68, 104
1, 32997, Note_off_c, 0, 68, 104
1, 33006, Note_on_c, 0, 72, 116
1, 33311, Note_off_c, 0, 72, 116
1, 33335, Note_on_c, 0, 68, 95
1, 33406, Note_off_c, 0, 68, 95
1, 33433, Note_on_c, 0, 71, 105
1, 34291, Note_off_c, 0, 71, 105
1, 34321, Note_on_c, 0, 69, 99
1, 34487, Note_off_c, 0, 69, 99
1, 34514, Note_on_c, 0, 70, 114
1, 34727, Note_off_c, 0, 70, 114
1, 34779, Note_on_c, 0, 67, 100
1, 34865, Note_off_c, 0, 67, 100
1, 34905, Note_on_c, 0, 68, 116
1, 35105, Note_off_c, 0, 68, 116
1, 35163, Note_on_c, 0, 68, 110
1, 35320, Note_off_c, 0, 68, 110
1, 35360, Note_on_c, 0, 67, 109
1, 35523, Note_off_c, 0, 67, 109
1, 35569, Note_on_c, 0, 65, 94
1, 35661, Note_off_c, 0, 65, 94
1, 35688, Note_on_c, 0, 63, 115
1, 35830, Note_off_c, 0, 63, 115
1, 35904, Note_on_c, 0, 58, 99
1, 36033, Note_off_c, 0, 58, 99
1, 36104, Note_on_c, 0, 55, 102
1, 36233, Note_off_c, 0, 55, 102
1, 36270, Note_on_c, 0, 56, 103
1, 36470, Note_off_c, 0, 56, 103
1, 36513, Note_on_c, 0, 58, 101
1, 36664, Note_off_c, 0, 58, 101
1, 36701, Note_on_c, 0, 59, 101
1, 36849, Note_off_c, 0, 59, 101
1, 36867, Note_on_c, 0, 63, 111
1, 37021, Note_off_c, 0, 63, 111
1, 37058, Note_on_c, 0, 65, 105
1, 37193, Note_off_c, 0, 65, 105
1, 37239, Note_on_c, 0, 67, 92
1, 37396, Note_off_c, 0, 67, 92
1, 37473, Note_on_c, 0, 70, 96
1, 37683, Note_off_c, 0, 70, 96
1, 37732, Note_on_c, 0, 72, 99
1, 37837, Note_off_c, 0, 72, 99
1, 37849, Note_on_c, 0, 73, 115
1, 38296, Note_off_c, 0, 73, 115
1, 38314, Note_on_c, 0, 72, 122
1, 38409, Note_off_c, 0, 72, 122
1, 38439, Note_on_c, 0, 71, 97
1, 38562, Note_off_c, 0, 71, 97
1, 38574, Note_on_c, 0, 69, 91
1, 38697, Note_off_c, 0, 69, 91
1, 38749, Note_on_c, 0, 70, 117
1, 38977, Note_off_c, 0, 70, 117
1, 39023, Note_on_c, 0, 66, 115
1, 39158, Note_off_c, 0, 66, 115
1, 39179, Note_on_c, 0, 65, 111
1, 39330, Note_off_c, 0, 65, 111
1, 39391, Note_on_c, 0, 64, 118
1, 39548, Note_off_c, 0, 64, 118
1, 39588, Note_on_c, 0, 63, 116
1, 39733, Note_off_c, 0, 63, 116
1, 39788, Note_on_c, 0, 61, 110
1, 39942, Note_off_c, 0, 61, 110
1, 39985, Note_on_c, 0, 59, 107
1, 40133, Note_off_c, 0, 59, 107
1, 40170, Note_on_c, 0, 57, 97
1, 40302, Note_off_c, 0, 57, 97
1, 40320, Note_on_c, 0, 58, 110
1, 40591, Note_off_c, 0, 58, 110
1, 40662, Note_on_c, 0, 54, 110
1, 40760, Note_off_c, 0, 54, 110
1, 40793, Note_on_c, 0, 53, 115
1, 40919, Note_off_c, 0, 53, 115
1, 40943, Note_on_c, 0, 52, 111
1, 41125, Note_off_c, 0, 52, 111
1, 41149, Note_on_c, 0, 51, 106
1, 41442, Note_off_c, 0, 51, 106
1, 41479, Note_on_c, 0, 54, 97
1, 41540, Note_off_c, 0, 54, 97
1, 41549, Note_on_c, 0, 55, 106
1, 41629, Note_off_c, 0, 55, 106
1, 41669, Note_on_c, 0, 58, 101
1, 41749, Note_off_c, 0, 58, 101
1, 41779, Note_on_c, 0, 62, 105
1, 41890, Note_off_c, 0, 62, 105
1, 41908, Note_on_c, 0, 65, 102
1, 41991, Note_off_c, 0, 65, 102
1, 42012, Note_on_c, 0, 67, 110
1, 42098, Note_off_c, 0, 67, 110
1, 42119, Note_on_c, 0, 65, 103
1, 42180, Note_off_c, 0, 65, 103
1, 42201, Note_on_c, 0, 62, 107
1, 42278, Note_off_c, 0, 62, 107
1, 42315, Note_on_c, 0, 58, 103
1, 42525, Note_off_c, 0, 58, 103
1, 42602, Note_on_c, 0, 55, 91
1, 42719, Note_off_c, 0, 55, 91
1, 42749, Note_on_c, 0, 63, 114
1, 42949, Note_off_c, 0, 63, 114
1, 43159, Note_on_c, 0, 63, 119
1, 43436, Note_off_c, 0, 63, 119
1, 43476, Note_on_c, 0, 62, 116
1, 43729, Note_off_c, 0, 62, 116
1, 43837, Note_on_c, 0, 62, 118
1, 43997, Note_off_c, 0, 62, 118
1, 44074, Note_on_c, 0, 58, 108
1, 44265, Note_off_c, 0, 58, 108
1, 44493, Note_on_c, 0, 62, 106
1, 44746, Note_off_c, 0, 62, 106
1, 44776, Note_on_c, 0, 65, 92
1, 44871, Note_off_c, 0, 65, 92
1, 44898, Note_on_c, 0, 67, 99
1, 45129, Note_off_c, 0, 67, 99
1, 45147, Note_on_c, 0, 69, 114
1, 45276, Note_off_c, 0, 69, 114
1, 45337, Note_on_c, 0, 65, 105
1, 45491, Note_off_c, 0, 65, 105
1, 45540, Note_on_c, 0, 62, 115
1, 45672, Note_off_c, 0, 62, 115
1, 45743, Note_on_c, 0, 58, 104
1, 45959, Note_off_c, 0, 58, 104
1, 46067, Note_on_c, 0, 64, 108
1, 46310, Note_off_c, 0, 64, 108
1, 46319, Note_on_c, 0, 62, 103
1, 46424, Note_off_c, 0, 62, 103
1, 46461, Note_on_c, 0, 63, 114
1, 46766, Note_off_c, 0, 63, 114
1, 46793, Note_on_c, 0, 61, 97
1, 46910, Note_off_c, 0, 61, 97
1, 46928, Note_on_c, 0, 62, 112
1, 47171, Note_off_c, 0, 62, 112
1, 47242, Note_on_c, 0, 59, 109
1, 47380, Note_off_c, 0, 59, 109
1, 47457, Note_on_c, 0, 55, 107
1, 47667, Note_off_c, 0, 55, 107
1, 47710, Note_on_c, 0, 50, 96
1, 47836, Note_off_c, 0, 50, 96
1, 47854, Note_on_c, 0, 53, 108
1, 48030, Note_off_c, 0, 53, 108
1, 48051, Note_on_c, 0, 52, 108
1, 48217, Note_off_c, 0, 52, 108
1, 48235, Note_on_c, 0, 51, 102
1, 48494, Note_off_c, 0, 51, 102
1, 48524, Note_on_c, 0, 53, 101
1, 48653, Note_off_c, 0, 53, 101
1, 48677, Note_on_c, 0, 55, 103
1, 48760, Note_off_c, 0, 55, 103
1, 48800, Note_on_c, 0, 58, 102
1, 48914, Note_off_c, 0, 58, 102
1, 48944, Note_on_c, 0, 62, 111
1, 49070, Note_off_c, 0, 62, 111
1, 49107, Note_on_c, 0, 65, 108
1, 49338, Note_off_c, 0, 65, 108
1, 49402, Note_on_c, 0, 62, 96
1, 49578, Note_off_c, 0, 62, 96
1, 49618, Note_on_c, 0, 63, 117
1, 49855, Note_off_c, 0, 63, 117
1, 49916, Note_on_c, 0, 65, 104
1, 50200, Note_off_c, 0, 65, 104
1, 50258, Note_on_c, 0, 67, 109
1, 50554, Note_off_c, 0, 67, 109
1, 50631, Note_on_c, 0, 71, 117
1, 50896, Note_off_c, 0, 71, 117
1, 50948, Note_on_c, 0, 74, 113
1, 51219, Note_off_c, 0, 74, 113
1, 51265, Note_on_c, 0, 75, 116
1, 51573, Note_off_c, 0, 75, 116
1, 51631, Note_on_c, 0, 71, 114
1, 51924, Note_off_c, 0, 71, 114
1, 51961, Note_on_c, 0, 75, 111
1, 52223, Note_off_c, 0, 75, 111
1, 52256, Note_on_c, 0, 73, 87
1, 53086, Note_off_c, 0, 73, 87
1, 57724, Note_on_c, 0, 68, 112
1, 57869, Note_off_c, 0, 68, 112
1, 58054, Note_on_c, 0, 71, 123
1, 58279, Note_off_c, 0, 71, 123
1, 58331, Note_on_c, 0, 73, 111
1, 58550, Note_off_c, 0, 73, 111
1, 58587, Note_on_c, 0, 70, 96
1, 59587, Note_off_c, 0, 70, 96
1, 60924, Note_on_c, 0, 63, 121
1, 61211, Note_off_c, 0, 63, 121
1, 61306, Note_on_c, 0, 69, 118
1, 61772, Note_off_c, 0, 69, 118
1, 61833, Note_on_c, 0, 72, 115
1, 62259, Note_off_c, 0, 72, 115
1, 62351, Note_on_c, 0, 70, 117
1, 62718, Note_off_c, 0, 70, 117
1, 62773, Note_on_c, 0, 67, 115
1, 63177, Note_off_c, 0, 67, 115
1, 63251, Note_on_c, 0, 63, 121
1, 63819, Note_off_c, 0, 63, 121
1, 64053, Note_on_c, 0, 58, 108
1, 64488, Note_off_c, 0, 58, 108
1, 64722, Note_on_c, 0, 69, 107
1, 64882, Note_off_c, 0, 69, 107
1, 64909, Note_on_c, 0, 70, 118
1, 65047, Note_off_c, 0, 70, 118
1, 65108, Note_on_c, 0, 69, 113
1, 65500, Note_off_c, 0, 69, 113
1, 65583, Note_on_c, 0, 72, 118
1, 65919, Note_off_c, 0, 72, 118
1, 65971, Note_on_c, 0, 70, 115
1, 66421, Note_off_c, 0, 70, 115
1, 66498, Note_on_c, 0, 67, 113
1, 66775, Note_off_c, 0, 67, 113
1, 67025, Note_on_c, 0, 65, 115
1, 67241, Note_off_c, 0, 65, 115
1, 67290, Note_on_c, 0, 67, 114
1, 67370, Note_off_c, 0, 67, 114
1, 67422, Note_on_c, 0, 66, 110
1, 67511, Note_off_c, 0, 66, 110
1, 67548, Note_on_c, 0, 63, 114
1, 67699, Note_off_c, 0, 63, 114
1, 67745, Note_on_c, 0, 58, 107
1, 68131, Note_off_c, 0, 58, 107
1, 68356, Note_on_c, 0, 65, 111
1, 68902, Note_off_c, 0, 65, 111
1, 69167, Note_on_c, 0, 65, 101
1, 70226, Note_off_c, 0, 65, 101
1, 71223, Note_on_c, 0, 55, 108
1, 71328, Note_off_c, 0, 55, 108
1, 71389, Note_on_c, 0, 58, 111
1, 71494, Note_off_c, 0, 58, 111
1, 71512, Note_on_c, 0, 62, 112
1, 71688, Note_off_c, 0, 62, 112
1, 71709, Note_on_c, 0, 64, 107
1, 71804, Note_off_c, 0, 64, 107
1, 71828, Note_on_c, 0, 65, 99
1, 71914, Note_off_c, 0, 65, 99
1, 71935, Note_on_c, 0, 67, 113
1, 72129, Note_off_c, 0, 67, 113
1, 72156, Note_on_c, 0, 68, 113
1, 72406, Note_off_c, 0, 68, 113
1, 72477, Note_on_c, 0, 66, 111
1, 72677, Note_off_c, 0, 66, 111
1, 72717, Note_on_c, 0, 62, 103
1, 72855, Note_off_c, 0, 62, 103
1, 72901, Note_on_c, 0, 65, 105
1, 73030, Note_off_c, 0, 65, 105
1, 73039, Note_on_c, 0, 64, 115
1, 73215, Note_off_c, 0, 64, 115
1, 73242, Note_on_c, 0, 63, 113
1, 73365, Note_off_c, 0, 63, 113
1, 73414, Note_on_c, 0, 67, 106
1, 73568, Note_off_c, 0, 67, 106
1, 73639, Note_on_c, 0, 62, 112
1, 73781, Note_off_c, 0, 62, 112
1, 73790, Note_on_c, 0, 61, 106
1, 73932, Note_off_c, 0, 61, 106
1, 73999, Note_on_c, 0, 58, 101
1, 74144, Note_off_c, 0, 58, 101
1, 74165, Note_on_c, 0, 59, 110
1, 74331, Note_off_c, 0, 59, 110
1, 74392, Note_on_c, 0, 56, 110
1, 74546, Note_off_c, 0, 56, 110
1, 74579, Note_on_c, 0, 54, 109
1, 74755, Note_off_c, 0, 54, 109
1, 74767, Note_on_c, 0, 53, 104
1, 74912, Note_off_c, 0, 53, 104
1, 74961, Note_on_c, 0, 51, 104
1, 75245, Note_off_c, 0, 51, 104
1, 75470, Note_on_c, 0, 55, 91
1, 75621, Note_off_c, 0, 55, 91
1, 75661, Note_on_c, 0, 58, 101
1, 75818, Note_off_c, 0, 58, 101
1, 75879, Note_on_c, 0, 63, 117
1, 76089, Note_off_c, 0, 63, 117
1, 76135, Note_on_c, 0, 65, 108
1, 76363, Note_off_c, 0, 65, 108
1, 76418, Note_on_c, 0, 67, 111
1, 76674, Note_off_c, 0, 67, 111
1, 76791, Note_on_c, 0, 70, 107
1, 76945, Note_off_c, 0, 70, 107
1, 77040, Note_on_c, 0, 65, 102
1, 77172, Note_off_c, 0, 65, 102
1, 77230, Note_on_c, 0, 61, 104
1, 77365, Note_off_c, 0, 61, 104
1, 77423, Note_on_c, 0, 58, 100
1, 77620, Note_off_c, 0, 58, 100
1, 77687, Note_on_c, 0, 63, 115
1, 77872, Note_off_c, 0, 63, 115
1, 77921, Note_on_c, 0, 65, 104
1, 78084, Note_off_c, 0, 65, 104
1, 78136, Note_on_c, 0, 67, 111
1, 78305, Note_off_c, 0, 67, 111
1, 78428, Note_on_c, 0, 63, 104
1, 78529, Note_off_c, 0, 63, 104
1, 78559, Note_on_c, 0, 65, 105
1, 78756, Note_off_c, 0, 65, 105
1, 78802, Note_on_c, 0, 60, 105
1, 78968, Note_off_c, 0, 60, 105
1, 78983, Note_on_c, 0, 58, 108
1, 79140, Note_off_c, 0, 58, 108
1, 79390, Note_on_c, 0, 63, 119
1, 79575, Note_off_c, 0, 63, 119
1, 79608, Note_on_c, 0, 65, 102
1, 79784, Note_off_c, 0, 65, 102
1, 79830, Note_on_c, 0, 60, 105
1, 79990, Note_off_c, 0, 60, 105
1, 80073, Note_on_c, 0, 63, 114
1, 80239, Note_off_c, 0, 63, 114
1, 80328, Note_on_c, 0, 59, 107
1, 80460, Note_off_c, 0, 59, 107
1, 80503, Note_on_c, 0, 53, 107
1, 80635, Note_off_c, 0, 53, 107
1, 80712, Note_on_c, 0, 51, 107
1, 80922, Note_off_c, 0, 51, 107
1, 80955, Note_on_c, 0, 58, 111
1, 81165, Note_off_c, 0, 58, 111
1, 81195, Note_on_c, 0, 53, 105
1, 81312, Note_off_c, 0, 53, 105
1, 81395, Note_on_c, 0, 48, 101
1, 81530, Note_off_c, 0, 48, 101
1, 81563, Note_on_c, 0, 51, 108
1, 81822, Note_off_c, 0, 51, 108
1, 81822, Note_on_c, 0, 49, 94
1, 82418, Note_off_c, 0, 49, 94
1, 84656, Note_on_c, 0, 49, 120
1, 84761, Note_off_c, 0, 49, 120
1, 84776, Note_on_c, 0, 51, 117
1, 84948, Note_off_c, 0, 51, 117
1, 84975, Note_on_c, 0, 53, 110
1, 85055, Note_off_c, 0, 53, 110
1, 85101, Note_on_c, 0, 49, 114
1, 85335, Note_off_c, 0, 49, 114
1, 85421, Note_on_c, 0, 54, 111
1, 85621, Note_off_c, 0, 54, 111
1, 85695, Note_on_c, 0, 57, 111
1, 85803, Note_off_c, 0, 57, 111
1, 85840, Note_on_c, 0, 58, 114
1, 85972, Note_off_c, 0, 58, 114
1, 85972, Note_on_c, 0, 52, 119
1, 86178, Note_off_c, 0, 52, 119
1, 86211, Note_on_c, 0, 55, 110
1, 86374, Note_off_c, 0, 55, 110
1, 86438, Note_on_c, 0, 57, 111
1, 86580, Note_off_c, 0, 57, 111
1, 86617, Note_on_c, 0, 59, 105
1, 86725, Note_off_c, 0, 59, 105
1, 86768, Note_on_c, 0, 64, 113
1, 86937, Note_off_c, 0, 64, 113
1, 86998, Note_on_c, 0, 66, 115
1, 87090, Note_off_c, 0, 66, 115
1, 87130, Note_on_c, 0, 69, 113
1, 87352, Note_off_c, 0, 69, 113
1, 87358, Note_on_c, 0, 71, 115
1, 87496, Note_off_c, 0, 71, 115
1, 87514, Note_on_c, 0, 73, 115
1, 87788, Note_off_c, 0, 73, 115
1, 87834, Note_on_c, 0, 71, 112
1, 87997, Note_off_c, 0, 71, 112
1, 88061, Note_on_c, 0, 64, 103
1, 88187, Note_off_c, 0, 64, 103
1, 88251, Note_on_c, 0, 59, 92
1, 88365, Note_off_c, 0, 59, 92
1, 88417, Note_on_c, 0, 63, 121
1, 88704, Note_off_c, 0, 63, 121
1, 88858, Note_on_c, 0, 70, 115
1, 89101, Note_off_c, 0, 70, 115
1, 89273, Note_on_c, 0, 58, 111
1, 89566, Note_off_c, 0, 58, 111
1, 89729, Note_on_c, 0, 46, 116
1, 90068, Note_off_c, 0, 46, 116
1, 90228, Note_on_c, 0, 63, 121
1, 90509, Note_off_c, 0, 63, 121
1, 90641, Note_on_c, 0, 58, 114
1, 90922, Note_off_c, 0, 58, 114
1, 91076, Note_on_c, 0, 63, 124
1, 91329, Note_off_c, 0, 63, 124
1, 91443, Note_on_c, 0, 70, 115
1, 91693, Note_off_c, 0, 70, 115
1, 91723, Note_on_c, 0, 70, 114
1, 91905, Note_off_c, 0, 70, 114
1, 91969, Note_on_c, 0, 71, 112
1, 92222, Note_off_c, 0, 71, 112
1, 92379, Note_on_c, 0, 70, 114
1, 92616, Note_off_c, 0, 70, 114
1, 92801, Note_on_c, 0, 63, 119
1, 93116, Note_off_c, 0, 63, 119
1, 93214, Note_on_c, 0, 59, 111
1, 93498, Note_off_c, 0, 59, 111
1, 93633, Note_on_c, 0, 58, 113
1, 93991, Note_off_c, 0, 58, 113
1, 94074, Note_on_c, 0, 51, 113
1, 94382, Note_off_c, 0, 51, 113
1, 94542, Note_on_c, 0, 47, 107
1, 95125, Note_off_c, 0, 47, 107
1, 95214, Note_on_c, 0, 46, 100
1, 95998, Note_off_c, 0, 46, 100
1, 98709, Note_on_c, 0, 49, 124
1, 98801, Note_off_c, 0, 49, 124
1, 98825, Note_on_c, 0, 50, 115
1, 98911, Note_off_c, 0, 50, 115
1, 98935, Note_on_c, 0, 52, 118
1, 99015, Note_off_c, 0, 52, 118
1, 99045, Note_on_c, 0, 54, 116
1, 99180, Note_off_c, 0, 54, 116
1, 99226, Note_on_c, 0, 57, 119
1, 99368, Note_off_c, 0, 57, 119
1, 99398, Note_on_c, 0, 62, 120
1, 99549, Note_off_c, 0, 62, 120
1, 99567, Note_on_c, 0, 66, 113
1, 99727, Note_off_c, 0, 66, 113
1, 99773, Note_on_c, 0, 70, 114
1, 99949, Note_off_c, 0, 70, 114
1, 99973, Note_on_c, 0, 72, 118
1, 100167, Note_off_c, 0, 72, 118
1, 100207, Note_on_c, 0, 74, 100
1, 101031, Note_off_c, 0, 74, 100
1, 102602, Note_on_c, 0, 57, 115
1, 102845, Note_off_c, 0, 57, 115
1, 102875, Note_on_c, 0, 58, 113
1, 103103, Note_off_c, 0, 58, 113
1, 103155, Note_on_c, 0, 63, 121
1, 103349, Note_off_c, 0, 63, 121
1, 103401, Note_on_c, 0, 65, 112
1, 103472, Note_off_c, 0, 65, 112
1, 103518, Note_on_c, 0, 67, 110
1, 103669, Note_off_c, 0, 67, 110
1, 103699, Note_on_c, 0, 70, 116
1, 103905, Note_off_c, 0, 70, 116
1, 103960, Note_on_c, 0, 69, 112
1, 104129, Note_off_c, 0, 69, 112
1, 104181, Note_on_c, 0, 66, 113
1, 104307, Note_off_c, 0, 66, 113
1, 104384, Note_on_c, 0, 62, 117
1, 104538, Note_off_c, 0, 62, 117
1, 105810, Note_on_c, 0, 56, 112
1, 106044, Note_off_c, 0, 56, 112
1, 106065, Note_on_c, 0, 58, 108
1, 106188, Note_off_c, 0, 58, 108
1, 106234, Note_on_c, 0, 61, 110
1, 106403, Note_off_c, 0, 61, 110
1, 106449, Note_on_c, 0, 65, 110
1, 106566, Note_off_c, 0, 65, 110
1, 106624, Note_on_c, 0, 68, 118
1, 107013, Note_off_c, 0, 68, 118
1, 107025, Note_on_c, 0, 67, 116
1, 107268, Note_off_c, 0, 67, 116
1, 107308, Note_on_c, 0, 64, 109
1, 107477, Note_off_c, 0, 64, 109
1, 107523, Note_on_c, 0, 60, 98
1, 107680, Note_off_c, 0, 60, 98
1, 109029, Note_on_c, 0, 47, 117
1, 109235, Note_off_c, 0, 47, 117
1, 109268, Note_on_c, 0, 51, 114
1, 109471, Note_off_c, 0, 51, 114
1, 109495, Note_on_c, 0, 54, 114
1, 109658, Note_off_c, 0, 54, 114
1, 109685, Note_on_c, 0, 51, 110
1, 109857, Note_off_c, 0, 51, 110
1, 109890, Note_on_c, 0, 54, 106
1, 109973, Note_off_c, 0, 54, 106
1, 109985, Note_on_c, 0, 59, 109
1, 110148, Note_off_c, 0, 59, 109
1, 110185, Note_on_c, 0, 63, 116
1, 110320, Note_off_c, 0, 63, 116
1, 110350, Note_on_c, 0, 66, 115
1, 110492, Note_off_c, 0, 66, 115
1, 110522, Note_on_c, 0, 61, 108
1, 110704, Note_off_c, 0, 61, 108
1, 110750, Note_on_c, 0, 59, 106
1, 110888, Note_off_c, 0, 59, 106
1, 110952, Note_on_c, 0, 57, 106
1, 111097, Note_off_c, 0, 57, 106
1, 111152, Note_on_c, 0, 64, 120
1, 111297, Note_off_c, 0, 64, 120
1, 111321, Note_on_c, 0, 63, 119
1, 111453, Note_off_c, 0, 63, 119
1, 111483, Note_on_c, 0, 64, 117
1, 111618, Note_off_c, 0, 64, 117
1, 111627, Note_on_c, 0, 63, 111
1, 111728, Note_off_c, 0, 63, 111
1, 111780, Note_on_c, 0, 61, 107
1, 112008, Note_off_c, 0, 61, 107
1, 112326, Note_on_c, 0, 58, 103
1, 112390, Note_off_c, 0, 58, 103
1, 112402, Note_on_c, 0, 59, 109
1, 112636, Note_off_c, 0, 59, 109
1, 113667, Note_on_c, 0, 56, 111
1, 113818, Note_off_c, 0, 56, 111
1, 113866, Note_on_c, 0, 56, 116
1, 114054, Note_off_c, 0, 56, 116
1, 114090, Note_on_c, 0, 56, 113
1, 114296, Note_off_c, 0, 56, 113
1, 114332, Note_on_c, 0, 56, 112
1, 114546, Note_off_c, 0, 56, 112
1, 114624, Note_on_c, 0, 56, 110
1, 115014, Note_off_c, 0, 56, 110
1, 115131, Note_on_c, 0, 59, 113
1, 115374, Note_off_c, 0, 59, 113
1, 115423, Note_on_c, 0, 58, 100
1, 115771, Note_off_c, 0, 58, 100
1, 117139, Note_on_c, 0, 60, 113
1, 117333, Note_off_c, 0, 60, 113
1, 117360, Note_on_c, 0, 62, 113
1, 117474, Note_off_c, 0, 62, 113
1, 117517, Note_on_c, 0, 65, 114
1, 117668, Note_off_c, 0, 65, 114
1, 117708, Note_on_c, 0, 62, 113
1, 117834, Note_off_c, 0, 62, 113
1, 117871, Note_on_c, 0, 63, 122
1, 118068, Note_off_c, 0, 63, 122
1, 118139, Note_on_c, 0, 65, 111
1, 118392, Note_off_c, 0, 65, 111
1, 118478, Note_on_c, 0, 67, 93
1, 118703, Note_off_c, 0, 67, 93
1, 118752, Note_on_c, 0, 70, 110
1, 118934, Note_off_c, 0, 70, 110
1, 119014, Note_on_c, 0, 65, 109
1, 119149, Note_off_c, 0, 65, 109
1, 119186, Note_on_c, 0, 62, 113
1, 119349, Note_off_c, 0, 62, 113
1, 119404, Note_on_c, 0, 58, 102
1, 119564, Note_off_c, 0, 58, 102
1, 119644, Note_on_c, 0, 63, 110
1, 119807, Note_off_c, 0, 63, 110
1, 119979, Note_on_c, 0, 67, 112
1, 120247, Note_off_c, 0, 67, 112
1, 120268, Note_on_c, 0, 66, 112
1, 120431, Note_off_c, 0, 66, 112
1, 120464, Note_on_c, 0, 65, 113
1, 120655, Note_off_c, 0, 65, 113
1, 120682, Note_on_c, 0, 64, 110
1, 120820, Note_off_c, 0, 64, 110
1, 120857, Note_on_c, 0, 63, 112
1, 121008, Note_off_c, 0, 63, 112
1, 121041, Note_on_c, 0, 56, 98
1, 121118, Note_off_c, 0, 56, 98
1, 121145, Note_on_c, 0, 58, 104
1, 121256, Note_off_c, 0, 58, 104
1, 121299, Note_on_c, 0, 62, 107
1, 121422, Note_off_c, 0, 62, 107
1, 121443, Note_on_c, 0, 61, 110
1, 121615, Note_off_c, 0, 61, 110
1, 121655, Note_on_c, 0, 60, 101
1, 121769, Note_off_c, 0, 60, 101
1, 121799, Note_on_c, 0, 58, 98
1, 121965, Note_off_c, 0, 58, 98
1, 122008, Note_on_c, 0, 59, 105
1, 122137, Note_off_c, 0, 59, 105
1, 122421, Note_on_c, 0, 68, 110
1, 122606, Note_off_c, 0, 68, 110
1, 122775, Note_on_c, 0, 67, 95
1, 122988, Note_off_c, 0, 67, 95
1, 123568, Note_on_c, 0, 66, 110
1, 123759, Note_off_c, 0, 66, 110
1, 124015, Note_on_c, 0, 65, 109
1, 124225, Note_off_c, 0, 65, 109
1, 124777, Note_on_c, 0, 65, 107
1, 124983, Note_off_c, 0, 65, 107
1, 125273, Note_on_c, 0, 63, 110
1, 125495, Note_off_c, 0, 63, 110
1, 125698, Note_on_c, 0, 62, 113
1, 125892, Note_off_c, 0, 62, 113
1, 126080, Note_on_c, 0, 61, 102
1, 126256, Note_off_c, 0, 61, 102
1, 126521, Note_on_c, 0, 60, 107
1, 126724, Note_off_c, 0, 60, 107
1, 126927, Note_on_c, 0, 59, 97
1, 127109, Note_off_c, 0, 59, 97
1, 127405, Note_on_c, 0, 56, 104
1, 127587, Note_off_c, 0, 56, 104
1, 127858, Note_on_c, 0, 55, 106
1, 128055, Note_off_c, 0, 55, 106
1, 128419, Note_on_c, 0, 54, 110
1, 128662, Note_off_c, 0, 54, 110
1, 128689, Note_on_c, 0, 53, 109
1, 128957, Note_off_c, 0, 53, 109
1, 129287, Note_on_c, 0, 58, 110
1, 129521, Note_off_c, 0, 58, 110
1, 129764, Note_on_c, 0, 59, 113
1, 130001, Note_off_c, 0, 59, 113
1, 130275, Note_on_c, 0, 65, 105
1, 130485, Note_off_c, 0, 65, 105
1, 130651, Note_on_c, 0, 70, 113
1, 130861, Note_off_c, 0, 70, 113
1, 130996, Note_on_c, 0, 65, 96
1, 131128, Note_off_c, 0, 65, 96
1, 131158, Note_on_c, 0, 67, 110
1, 131439, Note_off_c, 0, 67, 110
1, 131513, Note_on_c, 0, 60, 104
1, 131732, Note_off_c, 0, 60, 104
1, 131830, Note_on_c, 0, 65, 98
1, 132098, Note_off_c, 0, 65, 98
1, 132277, Note_on_c, 0, 55, 101
1, 132462, Note_off_c, 0, 55, 101
1, 132545, Note_on_c, 0, 58, 108
1, 132779, Note_off_c, 0, 58, 108
1, 132837, Note_on_c, 0, 60, 102
1, 133034, Note_off_c, 0, 60, 102
1, 133244, Note_on_c, 0, 65, 87
1, 133546, Note_off_c, 0, 65, 87
1, 133632, Note_on_c, 0, 58, 108
1, 133829, Note_off_c, 0, 58, 108
1, 133940, Note_on_c, 0, 63, 106
1, 134159, Note_off_c, 0, 63, 106
1, 134248, Note_on_c, 0, 58, 109
1, 134485, Note_off_c, 0, 58, 109
1, 134549, Note_on_c, 0, 53, 102
1, 134808, Note_off_c, 0, 53, 102
1, 134885, Note_on_c, 0, 48, 115
1, 135085, Note_off_c, 0, 48, 115
1, 135137, Note_on_c, 0, 51, 107
1, 135411, Note_off_c, 0, 51, 107
1, 135485, Note_on_c, 0, 46, 86
1, 136355, Note_off_c, 0, 46, 86
1, 142164, Note_on_c, 0, 63, 124
1, 142664, Note_off_c, 0, 63, 124
1, 142744, Note_on_c, 0, 63, 127
1, 142991, Note_off_c, 0, 63, 127
1, 143049, Note_on_c, 0, 63, 121
1, 143580, Note_off_c, 0, 63, 121
1, 143635, Note_on_c, 0, 63, 125
1, 144005, Note_off_c, 0, 63, 125
1, 144045, Note_on_c, 0, 63, 119
1, 144702, Note_off_c, 0, 63, 119
1, 144732, Note_on_c, 0, 62, 119
1, 144843, Note_off_c, 0, 62, 119
1, 144855, Note_on_c, 0, 63, 116
1, 145321, Note_off_c, 0, 63, 116
1, 145564, Note_on_c, 0, 63, 122
1, 146113, Note_off_c, 0, 63, 122
1, 146180, Note_on_c, 0, 66, 119
1, 146467, Note_off_c, 0, 66, 119
1, 146510, Note_on_c, 0, 64, 120
1, 147004, Note_off_c, 0, 64, 120
1, 147023, Note_on_c, 0, 62, 122
1, 147257, Note_off_c, 0, 62, 122
1, 147287, Note_on_c, 0, 63, 113
1, 148646, Note_off_c, 0, 63, 113
1, 148728, Note_on_c, 0, 61, 92
1, 148871, Note_off_c, 0, 61, 92
1, 148914, Note_on_c, 0, 62, 119
1, 149435, Note_off_c, 0, 62, 119
1, 149539, Note_on_c, 0, 62, 120
1, 149803, Note_off_c, 0, 62, 120
1, 149863, Note_on_c, 0, 62, 117
1, 150345, Note_off_c, 0, 62, 117
1, 150397, Note_on_c, 0, 62, 118
1, 150679, Note_off_c, 0, 62, 118
1, 150705, Note_on_c, 0, 62, 117
1, 151156, Note_off_c, 0, 62, 117
1, 151212, Note_on_c, 0, 65, 109
1, 151429, Note_off_c, 0, 65, 109
1, 151511, Note_on_c, 0, 63, 117
1, 151988, Note_off_c, 0, 63, 117
1, 152066, Note_on_c, 0, 62, 100
1, 153156, Note_off_c, 0, 62, 100
1, 155592, Note_on_c, 0, 60, 86
1, 155722, Note_off_c, 0, 60, 86
1, 155739, Note_on_c, 0, 61, 116
1, 156181, Note_off_c, 0, 61, 116
1, 156250, Note_on_c, 0, 61, 112
1, 156710, Note_off_c, 0, 61, 112
1, 156744, Note_on_c, 0, 61, 119
1, 157043, Note_off_c, 0, 61, 119
1, 157095, Note_on_c, 0, 61, 114
1, 157429, Note_off_c, 0, 61, 114
1, 157537, Note_on_c, 0, 61, 117
1, 157880, Note_off_c, 0, 61, 117
1, 157975, Note_on_c, 0, 66, 121
1, 158257, Note_off_c, 0, 66, 121
1, 158300, Note_on_c, 0, 64, 123
1, 158712, Note_off_c, 0, 64, 123
1, 158790, Note_on_c, 0, 63, 117
1, 159819, Note_off_c, 0, 63, 117
1, 159910, Note_on_c, 0, 61, 114
1, 160574, Note_off_c, 0, 61, 114
1, 160699, Note_on_c, 0, 59, 106
1, 161454, Note_off_c, 0, 59, 106
1, 161549, Note_on_c, 0, 56, 106
1, 162165, Note_off_c, 0, 56, 106
1, 162256, Note_on_c, 0, 54, 92
1, 163250, Note_off_c, 0, 54, 92
1, 168721, Note_on_c, 0, 69, 115
1, 168894, Note_off_c, 0, 69, 115
1, 168998, Note_on_c, 0, 74, 104
1, 169853, Note_off_c, 0, 74, 104
1, 172007, Note_on_c, 0, 70, 118
1, 172289, Note_off_c, 0, 70, 118
1, 172423, Note_on_c, 0, 74, 113
1, 172618, Note_off_c, 0, 74, 113
1, 172644, Note_on_c, 0, 75, 92
1, 173299, Note_off_c, 0, 75, 92
1, 175221, Note_on_c, 0, 68, 105
1, 175533, Note_off_c, 0, 68, 105
1, 175642, Note_on_c, 0, 71, 109
1, 176236, Note_off_c, 0, 71, 109
1, 176418, Note_on_c, 0, 79, 107
1, 177825, Note_off_c, 0, 79, 107
1, 178016, Note_on_c, 0, 68, 111
1, 178428, Note_off_c, 0, 68, 111
1, 178580, Note_on_c, 0, 79, 112
1, 178627, Note_off_c, 0, 79, 112
1, 178653, Note_on_c, 0, 80, 110
1, 179434, Note_off_c, 0, 80, 110
1, 179477, Note_on_c, 0, 79, 110
1, 180276, Note_off_c, 0, 79, 110
1, 180393, Note_on_c, 0, 76, 103
1, 180631, Note_off_c, 0, 76, 103
1, 180661, Note_on_c, 0, 77, 102
1, 181368, Note_off_c, 0, 77, 102
1, 181472, Note_on_c, 0, 75, 104
1, 182080, Note_off_c, 0, 75, 104
1, 182136, Note_on_c, 0, 74, 102
1, 183069, Note_off_c, 0, 74, 102
1, 183069, Note_on_c, 0, 72, 106
1, 183763, Note_off_c, 0, 72, 106
1, 183875, Note_on_c, 0, 67, 112
1, 184574, Note_off_c, 0, 67, 112
1, 184634, Note_on_c, 0, 63, 116
1, 184777, Note_off_c, 0, 63, 116
1, 184816, Note_on_c, 0, 65, 111
1, 185393, Note_off_c, 0, 65, 111
1, 185410, Note_on_c, 0, 63, 117
1, 186204, Note_off_c, 0, 63, 117
1, 186247, Note_on_c, 0, 62, 120
1, 187033, Note_off_c, 0, 62, 120
1, 187089, Note_on_c, 0, 60, 114
1, 187792, Note_off_c, 0, 60, 114
1, 187943, Note_on_c, 0, 55, 111
1, 188151, Note_off_c, 0, 55, 111
1, 188294, Note_on_c, 0, 51, 106
1, 188815, Note_off_c, 0, 51, 106
1, 188897, Note_on_c, 0, 53, 94
1, 189509, Note_off_c, 0, 53, 94
1, 192823, Note_on_c, 0, 46, 120
1, 192946, Note_off_c, 0, 46, 120
1, 192958, Note_on_c, 0, 53, 116
1, 193069, Note_off_c, 0, 53, 116
1, 193087, Note_on_c, 0, 58, 119
1, 193222, Note_off_c, 0, 58, 119
1, 193329, Note_on_c, 0, 65, 103
1, 193470, Note_off_c, 0, 65, 103
1, 193504, Note_on_c, 0, 67, 114
1, 193664, Note_off_c, 0, 67, 114
1, 193687, Note_on_c, 0, 72, 110
1, 193802, Note_off_c, 0, 72, 110
1, 193821, Note_on_c, 0, 73, 117
1, 194038, Note_off_c, 0, 73, 117
1, 194053, Note_on_c, 0, 72, 115
1, 194133, Note_off_c, 0, 72, 115
1, 194137, Note_on_c, 0, 70, 112
1, 194315, Note_off_c, 0, 70, 112
1, 194315, Note_on_c, 0, 72, 120
1, 194404, Note_off_c, 0, 72, 120
1, 194438, Note_on_c, 0, 70, 116
1, 194646, Note_off_c, 0, 70, 116
1, 194685, Note_on_c, 0, 70, 113
1, 194832, Note_off_c, 0, 70, 113
1, 194864, Note_on_c, 0, 64, 107
1, 195126, Note_off_c, 0, 64, 107
1, 195221, Note_on_c, 0, 57, 117
1, 195557, Note_off_c, 0, 57, 117
1, 195628, Note_on_c, 0, 56, 110
1, 196251, Note_off_c, 0, 56, 110
1, 197634, Note_on_c, 0, 58, 121
1, 197786, Note_off_c, 0, 58, 121
1, 197825, Note_on_c, 0, 65, 111
1, 198111, Note_off_c, 0, 65, 111
1, 198193, Note_on_c, 0, 70, 114
1, 198371, Note_off_c, 0, 70, 114
1, 198416, Note_on_c, 0, 65, 113
1, 198572, Note_off_c, 0, 65, 113
1, 198624, Note_on_c, 0, 58, 107
1, 198862, Note_off_c, 0, 58, 107
1, 198877, Note_on_c, 0, 58, 109
1, 199037, Note_off_c, 0, 58, 109
1, 199047, Note_on_c, 0, 63, 117
1, 199281, Note_off_c, 0, 63, 117
1, 199454, Note_on_c, 0, 68, 118
1, 199768, Note_off_c, 0, 68, 118
1, 199828, Note_on_c, 0, 72, 116
1, 199871, Note_off_c, 0, 72, 116
1, 199881, Note_on_c, 0, 73, 121
1, 200562, Note_off_c, 0, 73, 121
1, 200594, Note_on_c, 0, 71, 116
1, 200737, Note_off_c, 0, 71, 116
1, 200778, Note_on_c, 0, 70, 113
1, 200995, Note_off_c, 0, 70, 113
1, 201057, Note_on_c, 0, 66, 111
1, 201267, Note_off_c, 0, 66, 111
1, 201290, Note_on_c, 0, 65, 115
1, 201396, Note_off_c, 0, 65, 115
1, 201426, Note_on_c, 0, 64, 114
1, 201571, Note_off_c, 0, 64, 114
1, 201603, Note_on_c, 0, 63, 122
1, 201841, Note_off_c, 0, 63, 122
1, 201856, Note_on_c, 0, 58, 114
1, 201981, Note_off_c, 0, 58, 114
1, 202000, Note_on_c, 0, 58, 114
1, 202149, Note_off_c, 0, 58, 114
1, 202274, Note_on_c, 0, 54, 115
1, 202421, Note_off_c, 0, 54, 115
1, 202444, Note_on_c, 0, 53, 114
1, 202654, Note_off_c, 0, 53, 114
1, 202693, Note_on_c, 0, 52, 115
1, 202836, Note_off_c, 0, 52, 115
1, 202874, Note_on_c, 0, 51, 114
1, 203026, Note_off_c, 0, 51, 114
1, 203114, Note_on_c, 0, 55, 116
1, 203268, Note_off_c, 0, 55, 116
1, 203292, Note_on_c, 0, 51, 120
1, 203504, Note_off_c, 0, 51, 120
1, 203558, Note_on_c, 0, 53, 112
1, 203634, Note_off_c, 0, 53, 112
1, 203673, Note_on_c, 0, 55, 111
1, 203790, Note_off_c, 0, 55, 111
1, 203798, Note_on_c, 0, 58, 111
1, 203895, Note_off_c, 0, 58, 111
1, 203910, Note_on_c, 0, 62, 110
1, 204044, Note_off_c, 0, 62, 110
1, 204054, Note_on_c, 0, 65, 112
1, 204129, Note_off_c, 0, 65, 112
1, 204165, Note_on_c, 0, 67, 113
1, 204273, Note_off_c, 0, 67, 113
1, 204375, Note_on_c, 0, 62, 112
1, 204533, Note_off_c, 0, 62, 112
1, 204546, Note_on_c, 0, 58, 101
1, 204726, Note_off_c, 0, 58, 101
1, 204882, Note_on_c, 0, 63, 118
1, 205073, Note_off_c, 0, 63, 118
1, 205116, Note_on_c, 0, 65, 107
1, 205265, Note_off_c, 0, 65, 107
1, 205293, Note_on_c, 0, 67, 116
1, 205590, Note_off_c, 0, 67, 116
1, 205607, Note_on_c, 0, 70, 109
1, 205821, Note_off_c, 0, 70, 109
1, 205855, Note_on_c, 0, 69, 107
1, 205976, Note_off_c, 0, 69, 107
1, 205989, Note_on_c, 0, 68, 114
1, 206551, Note_off_c, 0, 68, 114
1, 206561, Note_on_c, 0, 69, 110
1, 206660, Note_off_c, 0, 69, 110
1, 206705, Note_on_c, 0, 66, 110
1, 206874, Note_off_c, 0, 66, 110
1, 206930, Note_on_c, 0, 60, 103
1, 207390, Note_off_c, 0, 60, 103
1, 207409, Note_on_c, 0, 63, 111
1, 207545, Note_off_c, 0, 63, 111
1, 207581, Note_on_c, 0, 66, 108
1, 208128, Note_off_c, 0, 66, 108
1, 208162, Note_on_c, 0, 63, 115
1, 208355, Note_off_c, 0, 63, 115
1, 208402, Note_on_c, 0, 65, 99
1, 209038, Note_off_c, 0, 65, 99
1, 209085, Note_on_c, 0, 62, 110
1, 209260, Note_off_c, 0, 62, 110
1, 209275, Note_on_c, 0, 63, 115
1, 209457, Note_off_c, 0, 63, 115
1, 209524, Note_on_c, 0, 65, 102
1, 209710, Note_off_c, 0, 65, 102
1, 209762, Note_on_c, 0, 67, 106
1, 209948, Note_off_c, 0, 67, 106
1, 209974, Note_on_c, 0, 70, 111
1, 210052, Note_off_c, 0, 70, 111
1, 210115, Note_on_c, 0, 65, 109
1, 210282, Note_off_c, 0, 65, 109
1, 210309, Note_on_c, 0, 62, 117
1, 210497, Note_off_c, 0, 62, 117
1, 210521, Note_on_c, 0, 70, 103
1, 210636, Note_off_c, 0, 70, 103
1, 210780, Note_on_c, 0, 62, 106
1, 210866, Note_off_c, 0, 62, 106
1, 210889, Note_on_c, 0, 64, 113
1, 211130, Note_off_c, 0, 64, 113
1, 211175, Note_on_c, 0, 59, 111
1, 211281, Note_off_c, 0, 59, 111
1, 211307, Note_on_c, 0, 54, 111
1, 211506, Note_off_c, 0, 54, 111
1, 211561, Note_on_c, 0, 61, 108
1, 211680, Note_off_c, 0, 61, 108
1, 211716, Note_on_c, 0, 59, 109
1, 211872, Note_off_c, 0, 59, 109
1, 213908, Note_on_c, 0, 71, 120
1, 214162, Note_off_c, 0, 71, 120
1, 214220, Note_on_c, 0, 67, 104
1, 214332, Note_off_c, 0, 67, 104
1, 214351, Note_on_c, 0, 69, 118
1, 214511, Note_off_c, 0, 69, 118
1, 214539, Note_on_c, 0, 66, 113
1, 214697, Note_off_c, 0, 66, 113
1, 214738, Note_on_c, 0, 61, 112
1, 214952, Note_off_c, 0, 61, 112
1, 214988, Note_on_c, 0, 59, 105
1, 215098, Note_off_c, 0, 59, 105
1, 215126, Note_on_c, 0, 64, 124
1, 215397, Note_off_c, 0, 64, 124
1, 215425, Note_on_c, 0, 71, 115
1, 215531, Note_off_c, 0, 71, 115
1, 215576, Note_on_c, 0, 66, 110
1, 215736, Note_off_c, 0, 66, 110
1, 215768, Note_on_c, 0, 64, 101
1, 215924, Note_off_c, 0, 64, 101
1, 215984, Note_on_c, 0, 56, 113
1, 216157, Note_off_c, 0, 56, 113
1, 216183, Note_on_c, 0, 58, 108
1, 216343, Note_off_c, 0, 58, 108
1, 216369, Note_on_c, 0, 60, 103
1, 216544, Note_off_c, 0, 60, 103
1, 216574, Note_on_c, 0, 63, 110
1, 216715, Note_off_c, 0, 63, 110
1, 216732, Note_on_c, 0, 67, 118
1, 216912, Note_off_c, 0, 67, 118
1, 216933, Note_on_c, 0, 66, 113
1, 217076, Note_off_c, 0, 66, 113
1, 217110, Note_on_c, 0, 65, 108
1, 217292, Note_off_c, 0, 65, 108
1, 217313, Note_on_c, 0, 64, 113
1, 217519, Note_off_c, 0, 64, 113
1, 217540, Note_on_c, 0, 63, 117
1, 217707, Note_off_c, 0, 63, 117
1, 217761, Note_on_c, 0, 59, 106
1, 217945, Note_off_c, 0, 59, 106
1, 217975, Note_on_c, 0, 62, 109
1, 218161, Note_off_c, 0, 62, 109
1, 218189, Note_on_c, 0, 63, 115
1, 218321, Note_off_c, 0, 63, 115
1, 218349, Note_on_c, 0, 65, 108
1, 218976, Note_off_c, 0, 65, 108
1, 218993, Note_on_c, 0, 61, 97
1, 219166, Note_off_c, 0, 61, 97
1, 219200, Note_on_c, 0, 63, 115
1, 219369, Note_off_c, 0, 63, 115
1, 219405, Note_on_c, 0, 58, 113
1, 219556, Note_off_c, 0, 58, 113
1, 219603, Note_on_c, 0, 54, 103
1, 219781, Note_off_c, 0, 54, 103
1, 219815, Note_on_c, 0, 50, 100
1, 219923, Note_off_c, 0, 50, 100
1, 219957, Note_on_c, 0, 56, 109
1, 220098, Note_off_c, 0, 56, 109
1, 220113, Note_on_c, 0, 58, 111
1, 220362, Note_off_c, 0, 58, 111
1, 220385, Note_on_c, 0, 60, 102
1, 220584, Note_off_c, 0, 60, 102
1, 220614, Note_on_c, 0, 61, 101
1, 220822, Note_off_c, 0, 61, 101
1, 220854, Note_on_c, 0, 66, 110
1, 221140, Note_off_c, 0, 66, 110
1, 221172, Note_on_c, 0, 61, 100
1, 221267, Note_off_c, 0, 61, 100
1, 221338, Note_on_c, 0, 67, 111
1, 221539, Note_off_c, 0, 67, 111
1, 221560, Note_on_c, 0, 68, 96
1, 221670, Note_off_c, 0, 68, 96
1, 221752, Note_on_c, 0, 61, 99
1, 221923, Note_off_c, 0, 61, 99
1, 221981, Note_on_c, 0, 68, 99
1, 222124, Note_off_c, 0, 68, 99
1, 222195, Note_on_c, 0, 71, 110
1, 222462, Note_off_c, 0, 71, 110
1, 222531, Note_on_c, 0, 73, 111
1, 222980, Note_off_c, 0, 73, 111
1, 223016, Note_on_c, 0, 74, 106
1, 223298, Note_off_c, 0, 74, 106
1, 223308, Note_on_c, 0, 70, 106
1, 224130, Note_off_c, 0, 70, 106
1, 224175, Note_on_c, 0, 67, 100
1, 224961, Note_off_c, 0, 67, 100
1, 225021, Note_on_c, 0, 65, 94
1, 225774, Note_off_c, 0, 65, 94
1, 225832, Note_on_c, 0, 63, 96
1, 226424, Note_off_c, 0, 63, 96
1, 229537, Note_on_c, 0, 68, 109
1, 229665, Note_off_c, 0, 68, 109
1, 229686, Note_on_c, 0, 69, 115
1, 229781, Note_off_c, 0, 69, 115
1, 229841, Note_on_c, 0, 72, 98
1, 229953, Note_off_c, 0, 72, 98
1, 229961, Note_on_c, 0, 73, 101
1, 230084, Note_off_c, 0, 73, 101
1, 230103, Note_on_c, 0, 66, 108
1, 230218, Note_off_c, 0, 66, 108
1, 230233, Note_on_c, 0, 71, 111
1, 230339, Note_off_c, 0, 71, 111
1, 230358, Note_on_c, 0, 72, 114
1, 230449, Note_off_c, 0, 72, 114
1, 230498, Note_on_c, 0, 68, 110
1, 230728, Note_off_c, 0, 68, 110
1, 230743, Note_on_c, 0, 71, 115
1, 230908, Note_off_c, 0, 71, 115
1, 230942, Note_on_c, 0, 69, 104
1, 231022, Note_off_c, 0, 69, 104
1, 231026, Note_on_c, 0, 68, 109
1, 231080, Note_off_c, 0, 68, 109
1, 231101, Note_on_c, 0, 64, 115
1, 231235, Note_off_c, 0, 64, 115
1, 231254, Note_on_c, 0, 65, 111
1, 231343, Note_off_c, 0, 65, 111
1, 231349, Note_on_c, 0, 66, 109
1, 231546, Note_off_c, 0, 66, 109
1, 231580, Note_on_c, 0, 61, 108
1, 231710, Note_off_c, 0, 61, 108
1, 231755, Note_on_c, 0, 64, 107
1, 231896, Note_off_c, 0, 64, 107
1, 231939, Note_on_c, 0, 63, 105
1, 232088, Note_off_c, 0, 63, 105
1, 232958, Note_on_c, 0, 58, 98
1, 233101, Note_off_c, 0, 58, 98
1, 233129, Note_on_c, 0, 61, 111
1, 233235, Note_off_c, 0, 61, 111
1, 233258, Note_on_c, 0, 62, 112
1, 233349, Note_off_c, 0, 62, 112
1, 233377, Note_on_c, 0, 65, 112
1, 233591, Note_off_c, 0, 65, 112
1, 233647, Note_on_c, 0, 62, 107
1, 233792, Note_off_c, 0, 62, 107
1, 233800, Note_on_c, 0, 63, 119
1, 233997, Note_off_c, 0, 63, 119
1, 234057, Note_on_c, 0, 59, 107
1, 234191, Note_off_c, 0, 59, 107
1, 234757, Note_on_c, 0, 56, 108
1, 235410, Note_off_c, 0, 56, 108
1, 235433, Note_on_c, 0, 55, 113
1, 235637, Note_off_c, 0, 55, 113
1, 235663, Note_on_c, 0, 54, 108
1, 235760, Note_off_c, 0, 54, 108
1, 235779, Note_on_c, 0, 53, 117
1, 236119, Note_off_c, 0, 53, 117
1, 236138, Note_on_c, 0, 51, 109
1, 236418, Note_off_c, 0, 51, 109
1, 236457, Note_on_c, 0, 51, 110
1, 236800, Note_off_c, 0, 51, 110
1, 236833, Note_on_c, 0, 53, 105
1, 237104, Note_off_c, 0, 53, 105
1, 237178, Note_on_c, 0, 53, 102
1, 237397, Note_off_c, 0, 53, 102
1, 237614, Note_on_c, 0, 55, 111
1, 237868, Note_off_c, 0, 55, 111
1, 237911, Note_on_c, 0, 55, 112
1, 238219, Note_off_c, 0, 55, 112
1, 238334, Note_on_c, 0, 58, 111
1, 238635, Note_off_c, 0, 58, 111
1, 238719, Note_on_c, 0, 58, 115
1, 238990, Note_off_c, 0, 58, 115
1, 239007, Note_on_c, 0, 60, 116
1, 239421, Note_off_c, 0, 60, 116
1, 239464, Note_on_c, 0, 60, 119
1, 239754, Note_off_c, 0, 60, 119
1, 239803, Note_on_c, 0, 63, 119
1, 240235, Note_off_c, 0, 63, 119
1, 240310, Note_on_c, 0, 63, 123
1, 240659, Note_off_c, 0, 63, 123
1, 240719, Note_on_c, 0, 65, 115
1, 241085, Note_off_c, 0, 65, 115
1, 241182, Note_on_c, 0, 65, 114
1, 241457, Note_off_c, 0, 65, 114
1, 241532, Note_on_c, 0, 67, 117
1, 241912, Note_off_c, 0, 67, 117
1, 241953, Note_on_c, 0, 67, 107
1, 243160, Note_off_c, 0, 67, 107
1, 243212, Note_on_c, 0, 65, 96
1, 243518, Note_off_c, 0, 65, 96
1, 243578, Note_on_c, 0, 61, 101
1, 243853, Note_off_c, 0, 61, 101
1, 243863, Note_on_c, 0, 58, 92
1, 243978, Note_off_c, 0, 58, 92
1, 249356, Note_on_c, 0, 67, 124
1, 249544, Note_off_c, 0, 67, 124
1, 249596, Note_on_c, 0, 70, 119
1, 249753, Note_off_c, 0, 70, 119
1, 249824, Note_on_c, 0, 63, 120
1, 250135, Note_off_c, 0, 63, 120
1, 253124, Note_on_c, 0, 67, 117
1, 253315, Note_off_c, 0, 67, 117
1, 253364, Note_on_c, 0, 70, 118
1, 253527, Note_off_c, 0, 70, 118
1, 253594, Note_on_c, 0, 73, 110
1, 254094, Note_off_c, 0, 73, 110
1, 256410, Note_on_c, 0, 67, 117
1, 256657, Note_off_c, 0, 67, 117
1, 256690, Note_on_c, 0, 70, 115
1, 256952, Note_off_c, 0, 70, 115
1, 257001, Note_on_c, 0, 63, 111
1, 257343, Note_off_c, 0, 63, 111
1, 259294, Note_on_c, 0, 67, 118
1, 259500, Note_off_c, 0, 67, 118
1, 259500, Note_on_c, 0, 68, 114
1, 259719, Note_off_c, 0, 68, 114
1, 259774, Note_on_c, 0, 74, 101
1, 260468, Note_off_c, 0, 74, 101
1, 262710, Note_on_c, 0, 71, 105
1, 262901, Note_off_c, 0, 71, 105
1, 262938, Note_on_c, 0, 74, 116
1, 263388, Note_off_c, 0, 74, 116
1, 263523, Note_on_c, 0, 73, 107
1, 263770, Note_off_c, 0, 73, 107
1, 265002, Note_on_c, 0, 71, 114
1, 265215, Note_off_c, 0, 71, 114
1, 265273, Note_on_c, 0, 74, 118
1, 265544, Note_off_c, 0, 74, 118
1, 265565, Note_on_c, 0, 75, 101
1, 266333, Note_off_c, 0, 75, 101
1, 268426, Note_on_c, 0, 67, 113
1, 268568, Note_off_c, 0, 67, 113
1, 268620, Note_on_c, 0, 68, 112
1, 268845, Note_off_c, 0, 68, 112
1, 268894, Note_on_c, 0, 71, 110
1, 269329, Note_off_c, 0, 71, 110
1, 269369, Note_on_c, 0, 79, 110
1, 270205, Note_off_c, 0, 79, 110
1, 271603, Note_on_c, 0, 68, 104
1, 271680, Note_off_c, 0, 68, 104
1, 271695, Note_on_c, 0, 69, 110
1, 271843, Note_off_c, 0, 69, 110
1, 272142, Note_on_c, 0, 79, 117
1, 272274, Note_off_c, 0, 79, 117
1, 272345, Note_on_c, 0, 81, 100
1, 274355, Note_off_c, 0, 81, 100
1, 274398, Note_on_c, 0, 76, 94
1, 274716, Note_off_c, 0, 76, 94
1, 274780, Note_on_c, 0, 83, 103
1, 275496, Note_off_c, 0, 83, 103
1, 275508, Note_on_c, 0, 80, 104
1, 275884, Note_off_c, 0, 80, 104
1, 275908, Note_on_c, 0, 79, 106
1, 276945, Note_off_c, 0, 79, 106
1, 276985, Note_on_c, 0, 76, 113
1, 277037, Note_off_c, 0, 76, 113
1, 277080, Note_on_c, 0, 75, 105
1, 277728, Note_off_c, 0, 75, 105
1, 277752, Note_on_c, 0, 73, 108
1, 277792, Note_off_c, 0, 73, 108
1, 277841, Note_on_c, 0, 70, 117
1, 278362, Note_off_c, 0, 70, 117
1, 278395, Note_on_c, 0, 67, 113
1, 278848, Note_off_c, 0, 67, 113
1, 278888, Note_on_c, 0, 65, 117
1, 278980, Note_off_c, 0, 65, 117
1, 279004, Note_on_c, 0, 66, 117
1, 279402, Note_off_c, 0, 66, 117
1, 279420, Note_on_c, 0, 65, 111
1, 279645, Note_off_c, 0, 65, 111
1, 279697, Note_on_c, 0, 62, 113
1, 279894, Note_off_c, 0, 62, 113
1, 279955, Note_on_c, 0, 60, 112
1, 280140, Note_off_c, 0, 60, 112
1, 280167, Note_on_c, 0, 58, 110
1, 280312, Note_off_c, 0, 58, 110
1, 280342, Note_on_c, 0, 55, 116
1, 280530, Note_off_c, 0, 55, 116
1, 280573, Note_on_c, 0, 53, 113
1, 280721, Note_off_c, 0, 53, 113
1, 280822, Note_on_c, 0, 50, 111
1, 281001, Note_off_c, 0, 50, 111
1, 281050, Note_on_c, 0, 53, 111
1, 281232, Note_off_c, 0, 53, 111
1, 281281, Note_on_c, 0, 48, 107
1, 281435, Note_off_c, 0, 48, 107
1, 281499, Note_on_c, 0, 50, 126
1, 281628, Note_off_c, 0, 50, 126
1, 281646, Note_on_c, 0, 46, 115
1, 281991, Note_off_c, 0, 46, 115
1, 281991, Note_on_c, 0, 45, 120
1, 282238, Note_off_c, 0, 45, 120
1, 282281, Note_on_c, 0, 47, 108
1, 282954, Note_off_c, 0, 47, 108
1, 282954, Note_on_c, 0, 49, 111
1, 283235, Note_off_c, 0, 49, 111
1, 283272, Note_on_c, 0, 52, 111
1, 283410, Note_off_c, 0, 52, 111
1, 283456, Note_on_c, 0, 55, 109
1, 283573, Note_off_c, 0, 55, 109
1, 283668, Note_on_c, 0, 51, 115
1, 284026, Note_off_c, 0, 51, 115
1, 284081, Note_on_c, 0, 56, 107
1, 284460, Note_off_c, 0, 56, 107
1, 284493, Note_on_c, 0, 59, 102
1, 284594, Note_off_c, 0, 59, 102
1, 284612, Note_on_c, 0, 63, 118
1, 284868, Note_off_c, 0, 63, 118
1, 284914, Note_on_c, 0, 61, 111
1, 285083, Note_off_c, 0, 61, 111
1, 285157, Note_on_c, 0, 57, 109
1, 285333, Note_off_c, 0, 57, 109
1, 285382, Note_on_c, 0, 53, 105
1, 285508, Note_off_c, 0, 53, 105
1, 285529, Note_on_c, 0, 59, 108
1, 285723, Note_off_c, 0, 59, 108
1, 285766, Note_on_c, 0, 61, 111
1, 285945, Note_off_c, 0, 61, 111
1, 285960, Note_on_c, 0, 63, 115
1, 286139, Note_off_c, 0, 63, 115
1, 286188, Note_on_c, 0, 67, 113
1, 286382, Note_off_c, 0, 67, 113
1, 286397, Note_on_c, 0, 68, 108
1, 286693, Note_off_c, 0, 68, 108
1, 286736, Note_on_c, 0, 61, 92
1, 286819, Note_off_c, 0, 61, 92
1, 286883, Note_on_c, 0, 68, 114
1, 287114, Note_off_c, 0, 68, 114
1, 287157, Note_on_c, 0, 71, 113
1, 287326, Note_off_c, 0, 71, 113
1, 287350, Note_on_c, 0, 69, 106
1, 287560, Note_off_c, 0, 69, 106
1, 287597, Note_on_c, 0, 66, 115
1, 287813, Note_off_c, 0, 66, 115
1, 287825, Note_on_c, 0, 65, 110
1, 287973, Note_off_c, 0, 65, 110
1, 287994, Note_on_c, 0, 64, 113
1, 288160, Note_off_c, 0, 64, 113
1, 288172, Note_on_c, 0, 63, 113
1, 288369, Note_off_c, 0, 63, 113
1, 288427, Note_on_c, 0, 58, 105
1, 288599, Note_off_c, 0, 58, 105
1, 288632, Note_on_c, 0, 61, 106
1, 288838, Note_off_c, 0, 61, 106
1, 288865, Note_on_c, 0, 65, 111
1, 289000, Note_off_c, 0, 65, 111
1, 289037, Note_on_c, 0, 63, 115
1, 289302, Note_off_c, 0, 63, 115
1, 289326, Note_on_c, 0, 65, 110
1, 289526, Note_off_c, 0, 65, 110
1, 289553, Note_on_c, 0, 67, 107
1, 289763, Note_off_c, 0, 67, 107
1, 289840, Note_on_c, 0, 70, 111
1, 290361, Note_off_c, 0, 70, 111
1, 290518, Note_on_c, 0, 58, 104
1, 290694, Note_off_c, 0, 58, 104
1, 290731, Note_on_c, 0, 60, 106
1, 290934, Note_off_c, 0, 60, 106
1, 290974, Note_on_c, 0, 62, 111
1, 291190, Note_off_c, 0, 62, 111
1, 291227, Note_on_c, 0, 63, 117
1, 291424, Note_off_c, 0, 63, 117
1, 291473, Note_on_c, 0, 65, 105
1, 291899, Note_off_c, 0, 65, 105
1, 292624, Note_on_c, 0, 55, 108
1, 292855, Note_off_c, 0, 55, 108
1, 292910, Note_on_c, 0, 57, 104
1, 293033, Note_off_c, 0, 57, 104
1, 293073, Note_on_c, 0, 58, 105
1, 293218, Note_off_c, 0, 58, 105
1, 293273, Note_on_c, 0, 60, 103
1, 293683, Note_off_c, 0, 60, 103
1, 294102, Note_on_c, 0, 51, 112
1, 294284, Note_off_c, 0, 51, 112
1, 294301, Note_on_c, 0, 53, 106
1, 294448, Note_off_c, 0, 53, 106
1, 294475, Note_on_c, 0, 55, 102
1, 295457, Note_off_c, 0, 55, 102
1, 296602, Note_on_c, 0, 50, 100
1, 296774, Note_off_c, 0, 50, 100
1, 296795, Note_on_c, 0, 51, 114
1, 296955, Note_off_c, 0, 51, 114
1, 296992, Note_on_c, 0, 55, 113
1, 297294, Note_off_c, 0, 55, 113
1, 297315, Note_on_c, 0, 49, 122
1, 297413, Note_off_c, 0, 49, 122
1, 297487, Note_on_c, 0, 53, 112
1, 297629, Note_off_c, 0, 53, 112
1, 297659, Note_on_c, 0, 52, 113
1, 297776, Note_off_c, 0, 52, 113
1, 297782, Note_on_c, 0, 51, 110
1, 298004, Note_off_c, 0, 51, 110
1, 298047, Note_on_c, 0, 55, 111
1, 298263, Note_off_c, 0, 55, 111
1, 298312, Note_on_c, 0, 49, 116
1, 298441, Note_off_c, 0, 49, 116
1, 298478, Note_on_c, 0, 53, 115
1, 298632, Note_off_c, 0, 53, 115
1, 298632, Note_on_c, 0, 56, 113
1, 298851, Note_off_c, 0, 56, 113
1, 298891, Note_on_c, 0, 59, 105
1, 298986, Note_off_c, 0, 59, 105
1, 299029, Note_on_c, 0, 63, 118
1, 299306, Note_off_c, 0, 63, 118
1, 299327, Note_on_c, 0, 65, 109
1, 299416, Note_off_c, 0, 65, 109
1, 299431, Note_on_c, 0, 68, 113
1, 299668, Note_off_c, 0, 68, 113
1, 299711, Note_on_c, 0, 71, 117
1, 299822, Note_off_c, 0, 71, 117
1, 299849, Note_on_c, 0, 69, 112
1, 300018, Note_off_c, 0, 69, 112
1, 300067, Note_on_c, 0, 66, 110
1, 300190, Note_off_c, 0, 66, 110
1, 300245, Note_on_c, 0, 61, 112
1, 300553, Note_off_c, 0, 61, 112
1, 300611, Note_on_c, 0, 59, 106
1, 300740, Note_off_c, 0, 59, 106
1, 300752, Note_on_c, 0, 64, 119
1, 300949, Note_off_c, 0, 64, 119
1, 300973, Note_on_c, 0, 62, 105
1, 301065, Note_off_c, 0, 62, 105
1, 301086, Note_on_c, 0, 63, 121
1, 301345, Note_off_c, 0, 63, 121
1, 301369, Note_on_c, 0, 61, 104
1, 301480, Note_off_c, 0, 61, 104
1, 301513, Note_on_c, 0, 62, 115
1, 301756, Note_off_c, 0, 62, 115
1, 301823, Note_on_c, 0, 59, 106
1, 301971, Note_off_c, 0, 59, 106
1, 302072, Note_on_c, 0, 54, 108
1, 302232, Note_off_c, 0, 54, 108
1, 302269, Note_on_c, 0, 50, 106
1, 302420, Note_off_c, 0, 50, 106
1, 302420, Note_on_c, 0, 55, 108
1, 302735, Note_off_c, 0, 55, 108
1, 303868, Note_on_c, 0, 57, 115
1, 304084, Note_off_c, 0, 57, 115
1, 304108, Note_on_c, 0, 63, 109
1, 305111, Note_off_c, 0, 63, 109
1, 305626, Note_on_c, 0, 65, 121
1, 305907, Note_off_c, 0, 65, 121
1, 305953, Note_on_c, 0, 66, 117
1, 306419, Note_off_c, 0, 66, 117
1, 306462, Note_on_c, 0, 68, 118
1, 306783, Note_off_c, 0, 68, 118
1, 306900, Note_on_c, 0, 65, 115
1, 307292, Note_off_c, 0, 65, 115
1, 307353, Note_on_c, 0, 66, 119
1, 307674, Note_off_c, 0, 66, 119
1, 307751, Note_on_c, 0, 63, 118
1, 308220, Note_off_c, 0, 63, 118
1, 308281, Note_on_c, 0, 59, 109
1, 308518, Note_off_c, 0, 59, 109
1, 308601, Note_on_c, 0, 58, 107
1, 308977, Note_off_c, 0, 58, 107
1, 309103, Note_on_c, 0, 56, 111
1, 309448, Note_off_c, 0, 56, 111
1, 309478, Note_on_c, 0, 55, 103
1, 309928, Note_off_c, 0, 55, 103
1, 310029, Note_on_c, 0, 58, 106
1, 310217, Note_off_c, 0, 58, 106
1, 310322, Note_on_c, 0, 62, 115
1, 310772, Note_off_c, 0, 62, 115
1, 310805, Note_on_c, 0, 65, 117
1, 311206, Note_off_c, 0, 65, 117
1, 311255, Note_on_c, 0, 63, 120
1, 311733, Note_off_c, 0, 63, 120
1, 311770, Note_on_c, 0, 65, 111
1, 312023, Note_off_c, 0, 65, 111
1, 312081, Note_on_c, 0, 67, 115
1, 312596, Note_off_c, 0, 67, 115
1, 312663, Note_on_c, 0, 70, 114
1, 312808, Note_off_c, 0, 70, 114
1, 312817, Note_on_c, 0, 71, 117
1, 312959, Note_off_c, 0, 71, 117
1, 312986, Note_on_c, 0, 73, 111
1, 313251, Note_off_c, 0, 73, 111
1, 313269, Note_on_c, 0, 74, 99
1, 314420, Note_off_c, 0, 74, 99
1, 315636, Note_on_c, 0, 72, 117
1, 315815, Note_off_c, 0, 72, 117
1, 315818, Note_on_c, 0, 71, 123
1, 316021, Note_off_c, 0, 71, 123
1, 316073, Note_on_c, 0, 70, 118
1, 316523, Note_off_c, 0, 70, 118
1, 316575, Note_on_c, 0, 70, 111
1, 316933, Note_off_c, 0, 70, 111
1, 316994, Note_on_c, 0, 75, 104
1, 317376, Note_off_c, 0, 75, 104
1, 317447, Note_on_c, 0, 75, 115
1, 317860, Note_off_c, 0, 75, 115
1, 317897, Note_on_c, 0, 74, 101
1, 318215, Note_off_c, 0, 74, 101
1, 318292, Note_on_c, 0, 74, 108
1, 318597, Note_off_c, 0, 74, 108
1, 318668, Note_on_c, 0, 73, 112
1, 318995, Note_off_c, 0, 73, 112
1, 319087, Note_on_c, 0, 73, 113
1, 319445, Note_off_c, 0, 73, 113
1, 319494, Note_on_c, 0, 72, 109
1, 319833, Note_off_c, 0, 72, 109
1, 319919, Note_on_c, 0, 72, 116
1, 320320, Note_off_c, 0, 72, 116
1, 320387, Note_on_c, 0, 71, 115
1, 320745, Note_off_c, 0, 71, 115
1, 320794, Note_on_c, 0, 71, 119
1, 321167, Note_off_c, 0, 71, 119
1, 321231, Note_on_c, 0, 70, 107
1, 321583, Note_off_c, 0, 70, 107
1, 321647, Note_on_c, 0, 70, 115
1, 321971, Note_off_c, 0, 70, 115
1, 322038, Note_on_c, 0, 68, 116
1, 322417, Note_off_c, 0, 68, 116
1, 322472, Note_on_c, 0, 68, 113
1, 322824, Note_off_c, 0, 68, 113
1, 322848, Note_on_c, 0, 66, 110
1, 323138, Note_off_c, 0, 66, 110
1, 323363, Note_on_c, 0, 66, 113
1, 323665, Note_off_c, 0, 66, 113
1, 323757, Note_on_c, 0, 63, 120
1, 324053, Note_off_c, 0, 63, 120
1, 324108, Note_on_c, 0, 61, 113
1, 324262, Note_off_c, 0, 61, 113
1, 324317, Note_on_c, 0, 59, 105
1, 324471, Note_off_c, 0, 59, 105
1, 324591, Note_on_c, 0, 64, 113
1, 324912, Note_off_c, 0, 64, 113
1, 325106, Note_on_c, 0, 64, 114
1, 325309, Note_off_c, 0, 64, 114
1, 325376, Note_on_c, 0, 61, 108
1, 325527, Note_off_c, 0, 61, 108
1, 325616, Note_on_c, 0, 59, 103
1, 325785, Note_off_c, 0, 59, 103
1, 326696, Note_on_c, 0, 59, 108
1, 326893, Note_off_c, 0, 59, 108
1, 326930, Note_on_c, 0, 56, 118
1, 327158, Note_off_c, 0, 56, 118
1, 327698, Note_on_c, 0, 54, 101
1, 328570, Note_off_c, 0, 54, 101
1, 328665, Note_on_c, 0, 52, 107
1, 329012, Note_off_c, 0, 52, 107
1, 329064, Note_on_c, 0, 51, 95
1, 330358, Note_off_c, 0, 51, 95
1, 330358, End_track
0, 0, End_of_file
