0, 0, Header, 1, 1, 504
1, 0, Start_track
1, 0, Title_t, "Melody"
1, 0, Tempo, 937500
1, 0, Key_signature, -2, "major"
1, 0, Time_signature, 4, 2, 24, 8
1, 4619, Note_on_c, 0, 75, 127
1, 4712, Note_off_c, 0, 75, 127
1, 4712, Note_on_c, 0, 76, 114
1, 5426, Note_off_c, 0, 76, 114
1, 5444, Note_on_c, 0, 70, 109
1, 5533, Note_off_c, 0, 70, 109
1, 5541, Note_on_c, 0, 67, 114
1, 5615, Note_off_c, 0, 67, 114
1, 5619, Note_on_c, 0, 69, 117
1, 5680, Note_off_c, 0, 69, 117
1, 5680, Note_on_c, 0, 71, 120
1, 5750, Note_off_c, 0, 71, 120
1, 5756, Note_on_c, 0, 67, 115
1, 5918, Note_off_c, 0, 67, 115
1, 5922, Note_on_c, 0, 63, 118
1, 6020, Note_off_c, 0, 63, 118
1, 6020, Note_on_c, 0, 65, 115
1, 6109, Note_off_c, 0, 65, 115
1, 6130, Note_on_c, 0, 65, 116
1, 6147, Note_off_c, 0, 65, 116
1, 6147, Note_on_c, 0, 66, 115
1, 6217, Note_off_c, 0, 66, 115
1, 6217, Note_on_c, 0, 65, 117
1, 6278, Note_off_c, 0, 65, 117
1, 6278, Note_on_c, 0, 63, 112
1, 6381, Note_off_c, 0, 63, 112
1, 6405, Note_on_c, 0, 65, 110
1, 6725, Note_off_c, 0, 65, 110
1, 6740, Note_on_c, 0, 63, 119
1, 6794, Note_off_c, 0, 63, 119
1, 6807, Note_on_c, 0, 61, 109
1, 6885, Note_off_c, 0, 61, 109
1, 6909, Note_on_c, 0, 62, 101
1, 7042, Note_off_c, 0, 62, 101
1, 7048, Note_on_c, 0, 63, 110
1, 7146, Note_off_c, 0, 63, 110
1, 7163, Note_on_c, 0, 65, 106
1, 7259, Note_off_c, 0, 65, 106
1, 7285, Note_on_c, 0, 66, 110
1, 7324, Note_off_c, 0, 66, 110
1, 7324, Note_on_c, 0, 67, 112
1, 7418, Note_off_c, 0, 67, 112
1, 7433, Note_on_c, 0, 63, 117
1, 7525, Note_off_c, 0, 63, 117
1, 7564, Note_on_c, 0, 65, 109
1, 7653, Note_off_c, 0, 65, 109
1, 7668, Note_on_c, 0, 61, 102
1, 7762, Note_off_c, 0, 61, 102
1, 7770, Note_on_c, 0, 58, 96
1, 7853, Note_off_c, 0, 58, 96
1, 7892, Note_on_c, 0, 61, 100
1, 7973, Note_off_c, 0, 61, 100
1, 8001, Note_on_c, 0, 58, 98
1, 8095, Note_off_c, 0, 58, 98
1, 8101, Note_on_c, 0, 60, 101
1, 8173, Note_off_c, 0, 60, 101
1, 8183, Note_on_c, 0, 58, 98
1, 8308, Note_off_c, 0, 58, 98
1, 8334, Note_on_c, 0, 53, 88
1, 8531, Note_off_c, 0, 53, 88
1, 9108, Note_on_c, 0, 58, 101
1, 9152, Note_off_c, 0, 58, 101
1, 9152, Note_on_c, 0, 55, 102
1, 9169, Note_on_c, 0, 52, 102
1, 9169, Note_off_c, 0, 55, 102
1, 9192, Note_off_c, 0, 52, 102
1, 9201, Note_on_c, 0, 51, 101
1, 9281, Note_off_c, 0, 51, 101
1, 9295, Note_on_c, 0, 50, 100
1, 9382, Note_off_c, 0, 50, 100
1, 9403, Note_on_c, 0, 53, 96
1, 9496, Note_off_c, 0, 53, 96
1, 9517, Note_on_c, 0, 58, 100
1, 9609, Note_off_c, 0, 58, 100
1, 9613, Note_on_c, 0, 57, 89
1, 9650, Note_off_c, 0, 57, 89
1, 9651, Note_on_c, 0, 58, 85
1, 11077, Note_off_c, 0, 58, 85
1, 11119, Note_on_c, 0, 54, 95
1, 11176, Note_off_c, 0, 54, 95
1, 11176, Note_on_c, 0, 55, 98
1, 11252, Note_off_c, 0, 55, 98
1, 11269, Note_on_c, 0, 53, 84
1, 12076, Note_off_c, 0, 53, 84
1, 13012, Note_on_c, 0, 74, 113
1, 13104, Note_off_c, 0, 74, 113
1, 13114, Note_on_c, 0, 75, 108
1, 14097, Note_off_c, 0, 75, 108
1, 14134, Note_on_c, 0, 69, 113
1, 14175, Note_off_c, 0, 69, 113
1, 14181, Note_on_c, 0, 71, 114
1, 14259, Note_off_c, 0, 71, 114
1, 14300, Note_on_c, 0, 63, 110
1, 14389, Note_off_c, 0, 63, 110
1, 14393, Note_on_c, 0, 65, 106
1, 14487, Note_off_c, 0, 65, 106
1, 14495, Note_on_c, 0, 66, 102
1, 14569, Note_on_c, 0, 65, 106
1, 14569, Note_off_c, 0, 66, 102
1, 14639, Note_off_c, 0, 65, 106
1, 14654, Note_on_c, 0, 63, 105
1, 14719, Note_off_c, 0, 63, 105
1, 14765, Note_on_c, 0, 65, 98
1, 15019, Note_off_c, 0, 65, 98
1, 15029, Note_on_c, 0, 63, 113
1, 15105, Note_off_c, 0, 63, 113
1, 15115, Note_on_c, 0, 60, 101
1, 15174, Note_off_c, 0, 60, 101
1, 15184, Note_on_c, 0, 62, 101
1, 15227, Note_off_c, 0, 62, 101
1, 15237, Note_on_c, 0, 58, 97
1, 15337, Note_off_c, 0, 58, 97
1, 15356, Note_on_c, 0, 58, 95
1, 15452, Note_off_c, 0, 58, 95
1, 15480, Note_on_c, 0, 56, 86
1, 15565, Note_off_c, 0, 56, 86
1, 15580, Note_on_c, 0, 58, 91
1, 15895, Note_off_c, 0, 58, 91
1, 15895, Note_on_c, 0, 56, 89
1, 15958, Note_off_c, 0, 56, 89
1, 15959, Note_on_c, 0, 51, 96
1, 16008, Note_off_c, 0, 51, 96
1, 16008, Note_on_c, 0, 52, 97
1, 16042, Note_off_c, 0, 52, 97
1, 17082, Note_on_c, 0, 48, 103
1, 17164, Note_off_c, 0, 48, 103
1, 17188, Note_on_c, 0, 51, 93
1, 17296, Note_off_c, 0, 51, 93
1, 17308, Note_on_c, 0, 52, 103
1, 17414, Note_off_c, 0, 52, 103
1, 17455, Note_on_c, 0, 53, 103
1, 17580, Note_off_c, 0, 53, 103
1, 17646, Note_on_c, 0, 58, 107
1, 17797, Note_off_c, 0, 58, 107
1, 17803, Note_on_c, 0, 56, 99
1, 17879, Note_off_c, 0, 56, 99
1, 17894, Note_on_c, 0, 58, 106
1, 18046, Note_off_c, 0, 58, 106
1, 18049, Note_on_c, 0, 62, 122
1, 18091, Note_off_c, 0, 62, 122
1, 18095, Note_on_c, 0, 63, 116
1, 18201, Note_off_c, 0, 63, 116
1, 18475, Note_on_c, 0, 52, 107
1, 18577, Note_off_c, 0, 52, 107
1, 18606, Note_on_c, 0, 53, 102
1, 18729, Note_off_c, 0, 53, 102
1, 18736, Note_on_c, 0, 52, 100
1, 18860, Note_off_c, 0, 52, 100
1, 18861, Note_on_c, 0, 53, 99
1, 18963, Note_off_c, 0, 53, 99
1, 18989, Note_on_c, 0, 65, 93
1, 19212, Note_off_c, 0, 65, 93
1, 19421, Note_on_c, 0, 51, 98
1, 19559, Note_off_c, 0, 51, 98
1, 19573, Note_on_c, 0, 52, 98
1, 19693, Note_off_c, 0, 52, 98
1, 19697, Note_on_c, 0, 51, 89
1, 19759, Note_off_c, 0, 51, 89
1, 19791, Note_on_c, 0, 50, 85
1, 19809, Note_on_c, 0, 53, 104
1, 19809, Note_off_c, 0, 50, 85
1, 19913, Note_off_c, 0, 53, 104
1, 19978, Note_on_c, 0, 67, 113
1, 20101, Note_off_c, 0, 67, 113
1, 20110, Note_on_c, 0, 63, 114
1, 20225, Note_off_c, 0, 63, 114
1, 20242, Note_on_c, 0, 65, 101
1, 20373, Note_off_c, 0, 65, 101
1, 20389, Note_on_c, 0, 68, 106
1, 20621, Note_off_c, 0, 68, 106
1, 20893, Note_on_c, 0, 67, 109
1, 21033, Note_off_c, 0, 67, 109
1, 21057, Note_on_c, 0, 70, 108
1, 21164, Note_off_c, 0, 70, 108
1, 21164, Note_on_c, 0, 72, 110
1, 21194, Note_off_c, 0, 72, 110
1, 21194, Note_on_c, 0, 73, 109
1, 21224, Note_off_c, 0, 73, 109
1, 21226, Note_on_c, 0, 72, 111
1, 21311, Note_off_c, 0, 72, 111
1, 21329, Note_on_c, 0, 70, 100
1, 22209, Note_off_c, 0, 70, 100
1, 22229, Note_on_c, 0, 66, 114
1, 22269, Note_off_c, 0, 66, 114
1, 22284, Note_on_c, 0, 67, 106
1, 22388, Note_off_c, 0, 67, 106
1, 22400, Note_on_c, 0, 65, 90
1, 23186, Note_off_c, 0, 65, 90
1, 23214, Note_on_c, 0, 63, 109
1, 23307, Note_off_c, 0, 63, 109
1, 23314, Note_on_c, 0, 61, 96
1, 23379, Note_off_c, 0, 61, 96
1, 23402, Note_on_c, 0, 58, 90
1, 23451, Note_off_c, 0, 58, 90
1, 23961, Note_on_c, 0, 63, 125
1, 24067, Note_off_c, 0, 63, 125
1, 24070, Note_on_c, 0, 61, 92
1, 24109, Note_off_c, 0, 61, 92
1, 24110, Note_on_c, 0, 63, 126
1, 24209, Note_off_c, 0, 63, 126
1, 24230, Note_on_c, 0, 61, 89
1, 24270, Note_off_c, 0, 61, 89
1, 24274, Note_on_c, 0, 63, 124
1, 24375, Note_off_c, 0, 63, 124
1, 24390, Note_on_c, 0, 61, 89
1, 24444, Note_off_c, 0, 61, 89
1, 24454, Note_on_c, 0, 63, 122
1, 24547, Note_off_c, 0, 63, 122
1, 24550, Note_on_c, 0, 61, 97
1, 24604, Note_off_c, 0, 61, 97
1, 24608, Note_on_c, 0, 63, 120
1, 24729, Note_off_c, 0, 63, 120
1, 24735, Note_on_c, 0, 61, 98
1, 24806, Note_off_c, 0, 61, 98
1, 24815, Note_on_c, 0, 63, 122
1, 24844, Note_on_c, 0, 64, 118
1, 24844, Note_off_c, 0, 63, 122
1, 24915, Note_off_c, 0, 64, 118
1, 24918, Note_on_c, 0, 61, 93
1, 24961, Note_off_c, 0, 61, 93
1, 24993, Note_on_c, 0, 63, 116
1, 25077, Note_off_c, 0, 63, 116
1, 25087, Note_on_c, 0, 61, 105
1, 25152, Note_off_c, 0, 61, 105
1, 25166, Note_on_c, 0, 58, 98
1, 25234, Note_off_c, 0, 58, 98
1, 25244, Note_on_c, 0, 56, 95
1, 25283, Note_off_c, 0, 56, 95
1, 25335, Note_on_c, 0, 60, 100
1, 25365, Note_off_c, 0, 60, 100
1, 25369, Note_on_c, 0, 61, 106
1, 25439, Note_off_c, 0, 61, 106
1, 25460, Note_on_c, 0, 58, 84
1, 25958, Note_off_c, 0, 58, 84
1, 25958, Note_on_c, 0, 54, 104
1, 26006, Note_on_c, 0, 55, 109
1, 26006, Note_off_c, 0, 54, 104
1, 26058, Note_off_c, 0, 55, 109
1, 26062, Note_on_c, 0, 56, 99
1, 26571, Note_off_c, 0, 56, 99
1, 26592, Note_on_c, 0, 55, 92
1, 27092, Note_off_c, 0, 55, 92
1, 27144, Note_on_c, 0, 52, 92
1, 27187, Note_off_c, 0, 52, 92
1, 27191, Note_on_c, 0, 54, 92
1, 27770, Note_off_c, 0, 54, 92
1, 27813, Note_on_c, 0, 53, 91
1, 28098, Note_off_c, 0, 53, 91
1, 28098, End_track
0, 0, End_of_file
