0, 0, Header, 1, 1, 840
1, 0, Start_track
1, 0, Title_t, "Melody"
1, 0, Tempo, 454545
1, 0, Key_signature, -5, "major"
1, 0, Time_signature, 4, 2, 24, 8
1, 8925, Note_on_c, 0, 51, 104
1, 9377, Note_off_c, 0, 51, 104
1, 9444, Note_on_c, 0, 53, 99
1, 9945, Note_off_c, 0, 53, 99
1, 10024, Note_on_c, 0, 54, 106
1, 10480, Note_off_c, 0, 54, 106
1, 10544, Note_on_c, 0, 56, 106
1, 11000, Note_off_c, 0, 56, 106
1, 11071, Note_on_c, 0, 58, 103
1, 11549, Note_off_c, 0, 58, 103
1, 11609, Note_on_c, 0, 60, 111
1, 12008, Note_off_c, 0, 60, 111
1, 12090, Note_on_c, 0, 61, 120
1, 12553, Note_off_c, 0, 61, 120
1, 12662, Note_on_c, 0, 63, 120
1, 13178, Note_off_c, 0, 63, 120
1, 13230, Note_on_c, 0, 65, 117
1, 13644, Note_off_c, 0, 65, 117
1, 13666, Note_on_c, 0, 60, 111
1, 13773, Note_off_c, 0, 60, 111
1, 13799, Note_on_c, 0, 62, 109
1, 13880, Note_off_c, 0, 62, 109
1, 13900, Note_on_c, 0, 60, 111
1, 14082, Note_off_c, 0, 60, 111
1, 14127, Note_on_c, 0, 58, 98
1, 14345, Note_off_c, 0, 58, 98
1, 14488, Note_on_c, 0, 63, 120
1, 14789, Note_off_c, 0, 63, 120
1, 14828, Note_on_c, 0, 65, 110
1, 14935, Note_off_c, 0, 65, 110
1, 14957, Note_on_c, 0, 63, 122
1, 15034, Note_off_c, 0, 63, 122
1, 15039, Note_on_c, 0, 60, 111
1, 15280, Note_off_c, 0, 60, 111
1, 15298, Note_on_c, 0, 58, 98
1, 15609, Note_off_c, 0, 58, 98
1, 15624, Note_on_c, 0, 54, 110
1, 15796, Note_off_c, 0, 54, 110
1, 15809, Note_on_c, 0, 55, 111
1, 15876, Note_off_c, 0, 55, 111
1, 15916, Note_on_c, 0, 53, 108
1, 16090, Note_off_c, 0, 53, 108
1, 16153, Note_on_c, 0, 48, 98
1, 16494, Note_off_c, 0, 48, 98
1, 16536, Note_on_c, 0, 46, 107
1, 16839, Note_off_c, 0, 46, 107
1, 16937, Note_on_c, 0, 51, 103
1, 17276, Note_off_c, 0, 51, 103
1, 17348, Note_on_c, 0, 51, 100
1, 17616, Note_off_c, 0, 51, 100
1, 18966, Note_on_c, 0, 70, 112
1, 19269, Note_off_c, 0, 70, 112
1, 19291, Note_on_c, 0, 72, 122
1, 19541, Note_off_c, 0, 72, 122
1, 19576, Note_on_c, 0, 68, 114
1, 19770, Note_off_c, 0, 68, 114
1, 19822, Note_on_c, 0, 70, 114
1, 20097, Note_off_c, 0, 70, 114
1, 20187, Note_on_c, 0, 63, 117
1, 20480, Note_off_c, 0, 63, 117
1, 20498, Note_on_c, 0, 65, 115
1, 20770, Note_off_c, 0, 65, 115
1, 20794, Note_on_c, 0, 61, 118
1, 21079, Note_off_c, 0, 61, 118
1, 21147, Note_on_c, 0, 63, 113
1, 21399, Note_off_c, 0, 63, 113
1, 21412, Note_on_c, 0, 58, 101
1, 21674, Note_off_c, 0, 58, 101
1, 21770, Note_on_c, 0, 60, 103
1, 21999, Note_off_c, 0, 60, 103
1, 22122, Note_on_c, 0, 53, 97
1, 22362, Note_off_c, 0, 53, 97
1, 22384, Note_on_c, 0, 58, 96
1, 22715, Note_off_c, 0, 58, 96
1, 22737, Note_on_c, 0, 56, 94
1, 23036, Note_off_c, 0, 56, 94
1, 23082, Note_on_c, 0, 48, 98
1, 23964, Note_off_c, 0, 48, 98
1, 24654, Note_on_c, 0, 51, 104
1, 24770, Note_off_c, 0, 51, 104
1, 24795, Note_on_c, 0, 48, 103
1, 24866, Note_off_c, 0, 48, 103
1, 24904, Note_on_c, 0, 46, 103
1, 25247, Note_off_c, 0, 46, 103
1, 25331, Note_on_c, 0, 51, 110
1, 25609, Note_off_c, 0, 51, 110
1, 25757, Note_on_c, 0, 58, 106
1, 26002, Note_off_c, 0, 58, 106
1, 26015, Note_on_c, 0, 56, 98
1, 26206, Note_off_c, 0, 56, 98
1, 26565, Note_on_c, 0, 60, 111
1, 26847, Note_off_c, 0, 60, 111
1, 27005, Note_on_c, 0, 65, 116
1, 27279, Note_off_c, 0, 65, 116
1, 27317, Note_on_c, 0, 60, 110
1, 27469, Note_off_c, 0, 60, 110
1, 27488, Note_on_c, 0, 63, 106
1, 27554, Note_off_c, 0, 63, 106
1, 27577, Note_on_c, 0, 60, 110
1, 27793, Note_off_c, 0, 60, 110
1, 27810, Note_on_c, 0, 58, 97
1, 28034, Note_off_c, 0, 58, 97
1, 28225, Note_on_c, 0, 63, 119
1, 28454, Note_off_c, 0, 63, 119
1, 28685, Note_on_c, 0, 72, 117
1, 28962, Note_off_c, 0, 72, 117
1, 29158, Note_on_c, 0, 70, 109
1, 29476, Note_off_c, 0, 70, 109
1, 29617, Note_on_c, 0, 72, 107
1, 30375, Note_off_c, 0, 72, 107
1, 30394, Note_on_c, 0, 70, 103
1, 30638, Note_off_c, 0, 70, 103
1, 30660, Note_on_c, 0, 65, 105
1, 30961, Note_off_c, 0, 65, 105
1, 30966, Note_on_c, 0, 60, 98
1, 31275, Note_off_c, 0, 60, 98
1, 31285, Note_on_c, 0, 58, 87
1, 31883, Note_off_c, 0, 58, 87
1, 35424, Note_on_c, 0, 72, 119
1, 35590, Note_off_c, 0, 72, 119
1, 35622, Note_on_c, 0, 73, 114
1, 35835, Note_off_c, 0, 73, 114
1, 35864, Note_on_c, 0, 72, 117
1, 36074, Note_off_c, 0, 72, 117
1, 36108, Note_on_c, 0, 70, 114
1, 36276, Note_on_c, 0, 68, 113
1, 36276, Note_off_c, 0, 70, 114
1, 36549, Note_off_c, 0, 68, 113
1, 36574, Note_on_c, 0, 66, 111
1, 36744, Note_off_c, 0, 66, 111
1, 36762, Note_on_c, 0, 65, 112
1, 36920, Note_off_c, 0, 65, 112
1, 36945, Note_on_c, 0, 64, 114
1, 37096, Note_off_c, 0, 64, 114
1, 37130, Note_on_c, 0, 63, 111
1, 37374, Note_off_c, 0, 63, 111
1, 37398, Note_on_c, 0, 65, 107
1, 37497, Note_off_c, 0, 65, 107
1, 37509, Note_on_c, 0, 64, 115
1, 37679, Note_off_c, 0, 64, 115
1, 37700, Note_on_c, 0, 63, 113
1, 37852, Note_off_c, 0, 63, 113
1, 37876, Note_on_c, 0, 62, 121
1, 38039, Note_off_c, 0, 62, 121
1, 38076, Note_on_c, 0, 61, 116
1, 38263, Note_off_c, 0, 61, 116
1, 38285, Note_on_c, 0, 60, 106
1, 38468, Note_off_c, 0, 60, 106
1, 38497, Note_on_c, 0, 58, 95
1, 38868, Note_off_c, 0, 58, 95
1, 38915, Note_on_c, 0, 56, 102
1, 39107, Note_off_c, 0, 56, 102
1, 39178, Note_on_c, 0, 53, 95
1, 39330, Note_off_c, 0, 53, 95
1, 39350, Note_on_c, 0, 51, 95
1, 39429, Note_off_c, 0, 51, 95
1, 39461, Note_on_c, 0, 54, 98
1, 39821, Note_off_c, 0, 54, 98
1, 39856, Note_on_c, 0, 51, 93
1, 40103, Note_off_c, 0, 51, 93
1, 40143, Note_on_c, 0, 53, 100
1, 40427, Note_off_c, 0, 53, 100
1, 40447, Note_on_c, 0, 51, 107
1, 40608, Note_off_c, 0, 51, 107
1, 40625, Note_on_c, 0, 48, 102
1, 40820, Note_off_c, 0, 48, 102
1, 40851, Note_on_c, 0, 46, 86
1, 40969, Note_off_c, 0, 46, 86
1, 41066, Note_on_c, 0, 51, 105
1, 41246, Note_off_c, 0, 51, 105
1, 41283, Note_on_c, 0, 54, 107
1, 41643, Note_off_c, 0, 54, 107
1, 41667, Note_on_c, 0, 56, 89
1, 41761, Note_off_c, 0, 56, 89
1, 41783, Note_on_c, 0, 58, 101
1, 42051, Note_off_c, 0, 58, 101
1, 42074, Note_on_c, 0, 55, 113
1, 42224, Note_off_c, 0, 55, 113
1, 42235, Note_on_c, 0, 56, 99
1, 42369, Note_off_c, 0, 56, 99
1, 42392, Note_on_c, 0, 58, 96
1, 42569, Note_off_c, 0, 58, 96
1, 42595, Note_on_c, 0, 61, 105
1, 42780, Note_off_c, 0, 61, 105
1, 42796, Note_on_c, 0, 63, 106
1, 42867, Note_off_c, 0, 63, 106
1, 42895, Note_on_c, 0, 65, 117
1, 43162, Note_off_c, 0, 65, 117
1, 43219, Note_on_c, 0, 61, 118
1, 43452, Note_off_c, 0, 61, 118
1, 43479, Note_on_c, 0, 60, 105
1, 43694, Note_off_c, 0, 60, 105
1, 43957, Note_on_c, 0, 63, 111
1, 44182, Note_off_c, 0, 63, 111
1, 44309, Note_on_c, 0, 71, 106
1, 44546, Note_off_c, 0, 71, 106
1, 44648, Note_on_c, 0, 69, 102
1, 44750, Note_off_c, 0, 69, 102
1, 44776, Note_on_c, 0, 69, 101
1, 44883, Note_off_c, 0, 69, 101
1, 44886, Note_on_c, 0, 67, 103
1, 44927, Note_off_c, 0, 67, 103
1, 44942, Note_on_c, 0, 63, 110
1, 45158, Note_off_c, 0, 63, 110
1, 45263, Note_on_c, 0, 56, 88
1, 45393, Note_off_c, 0, 56, 88
1, 45480, Note_on_c, 0, 57, 94
1, 46230, Note_off_c, 0, 57, 94
1, 48157, Note_on_c, 0, 64, 127
1, 48415, Note_off_c, 0, 64, 127
1, 48448, Note_on_c, 0, 63, 116
1, 48671, Note_off_c, 0, 63, 116
1, 48689, Note_on_c, 0, 61, 116
1, 48988, Note_off_c, 0, 61, 116
1, 49099, Note_on_c, 0, 70, 114
1, 49423, Note_off_c, 0, 70, 114
1, 49507, Note_on_c, 0, 73, 108
1, 49761, Note_off_c, 0, 73, 108
1, 49841, Note_on_c, 0, 70, 115
1, 49924, Note_off_c, 0, 70, 115
1, 49945, Note_on_c, 0, 71, 113
1, 50038, Note_off_c, 0, 71, 113
1, 50066, Note_on_c, 0, 71, 99
1, 50157, Note_off_c, 0, 71, 99
1, 50175, Note_on_c, 0, 65, 113
1, 50318, Note_off_c, 0, 65, 113
1, 50350, Note_on_c, 0, 61, 112
1, 50607, Note_off_c, 0, 61, 112
1, 50735, Note_on_c, 0, 68, 106
1, 50968, Note_off_c, 0, 68, 106
1, 51009, Note_on_c, 0, 63, 115
1, 51198, Note_off_c, 0, 63, 115
1, 51211, Note_on_c, 0, 61, 111
1, 51400, Note_off_c, 0, 61, 111
1, 51477, Note_on_c, 0, 56, 93
1, 51624, Note_off_c, 0, 56, 93
1, 51712, Note_on_c, 0, 51, 89
1, 51860, Note_off_c, 0, 51, 89
1, 51976, Note_on_c, 0, 58, 96
1, 52354, Note_off_c, 0, 58, 96
1, 52426, Note_on_c, 0, 56, 97
1, 52739, Note_off_c, 0, 56, 97
1, 52789, Note_on_c, 0, 56, 113
1, 52995, Note_off_c, 0, 56, 113
1, 54601, Note_on_c, 0, 76, 122
1, 54984, Note_off_c, 0, 76, 122
1, 55009, Note_on_c, 0, 75, 104
1, 55265, Note_off_c, 0, 75, 104
1, 55455, Note_on_c, 0, 73, 112
1, 55764, Note_off_c, 0, 73, 112
1, 55855, Note_on_c, 0, 70, 109
1, 56135, Note_off_c, 0, 70, 109
1, 56238, Note_on_c, 0, 67, 116
1, 56370, Note_off_c, 0, 67, 116
1, 56392, Note_on_c, 0, 69, 99
1, 56483, Note_off_c, 0, 69, 99
1, 56504, Note_on_c, 0, 71, 99
1, 56674, Note_off_c, 0, 71, 99
1, 56684, Note_on_c, 0, 64, 115
1, 56946, Note_off_c, 0, 64, 115
1, 57140, Note_on_c, 0, 65, 118
1, 57319, Note_off_c, 0, 65, 118
1, 57351, Note_on_c, 0, 64, 112
1, 57492, Note_off_c, 0, 64, 112
1, 57531, Note_on_c, 0, 64, 101
1, 57663, Note_off_c, 0, 64, 101
1, 57744, Note_on_c, 0, 61, 113
1, 57992, Note_off_c, 0, 61, 113
1, 58185, Note_on_c, 0, 63, 112
1, 58536, Note_off_c, 0, 63, 112
1, 58605, Note_on_c, 0, 61, 116
1, 58866, Note_off_c, 0, 61, 116
1, 58986, Note_on_c, 0, 58, 97
1, 59222, Note_off_c, 0, 58, 97
1, 59303, Note_on_c, 0, 53, 95
1, 59512, Note_off_c, 0, 53, 95
1, 59567, Note_on_c, 0, 50, 105
1, 59721, Note_off_c, 0, 50, 105
1, 59754, Note_on_c, 0, 48, 104
1, 59952, Note_off_c, 0, 48, 104
1, 60004, Note_on_c, 0, 46, 99
1, 60203, Note_off_c, 0, 46, 99
1, 60359, Note_on_c, 0, 51, 100
1, 60673, Note_off_c, 0, 51, 100
1, 60818, Note_on_c, 0, 53, 96
1, 61161, Note_off_c, 0, 53, 96
1, 62369, Note_on_c, 0, 55, 101
1, 62504, Note_off_c, 0, 55, 101
1, 62518, Note_on_c, 0, 58, 106
1, 62656, Note_off_c, 0, 58, 106
1, 62686, Note_on_c, 0, 62, 101
1, 62816, Note_off_c, 0, 62, 101
1, 62831, Note_on_c, 0, 67, 102
1, 62914, Note_off_c, 0, 67, 102
1, 63040, Note_on_c, 0, 70, 118
1, 63369, Note_off_c, 0, 70, 118
1, 63462, Note_on_c, 0, 74, 104
1, 63837, Note_off_c, 0, 74, 104
1, 63890, Note_on_c, 0, 70, 99
1, 64689, Note_off_c, 0, 70, 99
1, 65479, Note_on_c, 0, 73, 108
1, 65790, Note_off_c, 0, 73, 108
1, 65901, Note_on_c, 0, 71, 110
1, 65995, Note_off_c, 0, 71, 110
1, 66002, Note_on_c, 0, 73, 112
1, 66184, Note_off_c, 0, 73, 112
1, 66202, Note_on_c, 0, 71, 113
1, 66711, Note_off_c, 0, 71, 113
1, 66748, Note_on_c, 0, 69, 106
1, 66817, Note_off_c, 0, 69, 106
1, 66849, Note_on_c, 0, 71, 115
1, 66957, Note_off_c, 0, 71, 115
1, 66977, Note_on_c, 0, 69, 107
1, 67081, Note_off_c, 0, 69, 107
1, 67105, Note_on_c, 0, 66, 109
1, 67239, Note_off_c, 0, 66, 109
1, 67264, Note_on_c, 0, 64, 117
1, 67481, Note_off_c, 0, 64, 117
1, 67515, Note_on_c, 0, 59, 96
1, 67713, Note_off_c, 0, 59, 96
1, 67767, Note_on_c, 0, 54, 88
1, 67961, Note_off_c, 0, 54, 88
1, 68939, Note_on_c, 0, 53, 95
1, 69033, Note_off_c, 0, 53, 95
1, 69060, Note_on_c, 0, 53, 105
1, 69140, Note_off_c, 0, 53, 105
1, 69152, Note_on_c, 0, 56, 107
1, 69309, Note_off_c, 0, 56, 107
1, 69323, Note_on_c, 0, 58, 91
1, 69431, Note_off_c, 0, 58, 91
1, 69441, Note_on_c, 0, 63, 100
1, 69565, Note_off_c, 0, 63, 100
1, 69609, Note_on_c, 0, 70, 115
1, 69854, Note_off_c, 0, 70, 115
1, 69864, Note_on_c, 0, 75, 106
1, 70026, Note_off_c, 0, 75, 106
1, 70041, Note_on_c, 0, 74, 104
1, 70275, Note_off_c, 0, 74, 104
1, 70280, Note_on_c, 0, 72, 110
1, 70537, Note_off_c, 0, 72, 110
1, 70549, Note_on_c, 0, 70, 108
1, 70732, Note_off_c, 0, 70, 108
1, 70758, Note_on_c, 0, 68, 102
1, 70888, Note_off_c, 0, 68, 102
1, 70923, Note_on_c, 0, 67, 104
1, 71099, Note_off_c, 0, 67, 104
1, 71119, Note_on_c, 0, 65, 106
1, 71213, Note_off_c, 0, 65, 106
1, 71227, Note_on_c, 0, 63, 110
1, 71333, Note_off_c, 0, 63, 110
1, 71363, Note_on_c, 0, 62, 123
1, 71569, Note_off_c, 0, 62, 123
1, 71579, Note_on_c, 0, 60, 111
1, 71788, Note_off_c, 0, 60, 111
1, 71799, Note_on_c, 0, 59, 84
1, 72059, Note_off_c, 0, 59, 84
1, 72270, Note_on_c, 0, 57, 102
1, 72377, Note_off_c, 0, 57, 102
1, 72393, Note_on_c, 0, 59, 98
1, 72517, Note_off_c, 0, 59, 98
1, 72549, Note_on_c, 0, 52, 96
1, 72742, Note_off_c, 0, 52, 96
1, 72757, Note_on_c, 0, 56, 91
1, 72872, Note_off_c, 0, 56, 91
1, 72893, Note_on_c, 0, 57, 92
1, 73038, Note_off_c, 0, 57, 92
1, 73053, Note_on_c, 0, 59, 99
1, 73194, Note_off_c, 0, 59, 99
1, 73218, Note_on_c, 0, 64, 123
1, 73602, Note_off_c, 0, 64, 123
1, 73682, Note_on_c, 0, 62, 118
1, 73788, Note_off_c, 0, 62, 118
1, 73802, Note_on_c, 0, 60, 106
1, 73916, Note_off_c, 0, 60, 106
1, 73953, Note_on_c, 0, 59, 99
1, 74069, Note_off_c, 0, 59, 99
1, 74117, Note_on_c, 0, 57, 99
1, 74456, Note_off_c, 0, 57, 99
1, 74505, Note_on_c, 0, 57, 102
1, 74806, Note_off_c, 0, 57, 102
1, 75756, Note_on_c, 0, 52, 95
1, 75856, Note_off_c, 0, 52, 95
1, 75877, Note_on_c, 0, 53, 105
1, 75958, Note_off_c, 0, 53, 105
1, 75958, Note_on_c, 0, 52, 107
1, 76037, Note_off_c, 0, 52, 107
1, 76037, Note_on_c, 0, 50, 102
1, 76229, Note_off_c, 0, 50, 102
1, 76250, Note_on_c, 0, 51, 90
1, 76386, Note_off_c, 0, 51, 90
1, 76420, Note_on_c, 0, 53, 91
1, 76491, Note_off_c, 0, 53, 91
1, 76515, Note_on_c, 0, 54, 79
1, 76572, Note_off_c, 0, 54, 79
1, 76613, Note_on_c, 0, 58, 106
1, 76973, Note_off_c, 0, 58, 106
1, 77008, Note_on_c, 0, 56, 108
1, 77282, Note_off_c, 0, 56, 108
1, 77435, Note_on_c, 0, 63, 120
1, 77810, Note_off_c, 0, 63, 120
1, 77877, Note_on_c, 0, 61, 116
1, 78266, Note_off_c, 0, 61, 116
1, 79186, Note_on_c, 0, 72, 114
1, 79401, Note_off_c, 0, 72, 114
1, 79422, Note_on_c, 0, 68, 109
1, 79611, Note_off_c, 0, 68, 109
1, 79630, Note_on_c, 0, 67, 102
1, 79852, Note_off_c, 0, 67, 102
1, 80147, Note_on_c, 0, 70, 109
1, 80392, Note_off_c, 0, 70, 109
1, 80484, Note_on_c, 0, 66, 106
1, 80747, Note_off_c, 0, 66, 106
1, 80757, Note_on_c, 0, 65, 111
1, 80993, Note_off_c, 0, 65, 111
1, 81033, Note_on_c, 0, 64, 111
1, 81265, Note_off_c, 0, 64, 111
1, 81330, Note_on_c, 0, 63, 116
1, 81556, Note_off_c, 0, 63, 116
1, 81704, Note_on_c, 0, 65, 107
1, 81893, Note_off_c, 0, 65, 107
1, 81965, Note_on_c, 0, 61, 107
1, 82040, Note_off_c, 0, 61, 107
1, 82052, Note_on_c, 0, 63, 112
1, 82135, Note_off_c, 0, 63, 112
1, 82141, Note_on_c, 0, 60, 112
1, 82297, Note_off_c, 0, 60, 112
1, 82312, Note_on_c, 0, 58, 97
1, 82470, Note_off_c, 0, 58, 97
1, 82697, Note_on_c, 0, 63, 109
1, 83006, Note_off_c, 0, 63, 109
1, 83024, Note_on_c, 0, 61, 114
1, 83291, Note_off_c, 0, 61, 114
1, 83455, Note_on_c, 0, 56, 100
1, 83721, Note_off_c, 0, 56, 100
1, 83767, Note_on_c, 0, 51, 103
1, 84066, Note_off_c, 0, 51, 103
1, 84119, Note_on_c, 0, 45, 92
1, 84386, Note_off_c, 0, 45, 92
1, 84492, Note_on_c, 0, 58, 98
1, 84794, Note_off_c, 0, 58, 98
1, 84880, Note_on_c, 0, 56, 90
1, 85127, Note_off_c, 0, 56, 90
1, 85311, Note_on_c, 0, 46, 87
1, 86091, Note_off_c, 0, 46, 87
1, 87012, Note_on_c, 0, 50, 108
1, 87159, Note_off_c, 0, 50, 108
1, 87172, Note_on_c, 0, 48, 98
1, 87281, Note_off_c, 0, 48, 98
1, 87318, Note_on_c, 0, 44, 96
1, 87437, Note_off_c, 0, 44, 96
1, 87469, Note_on_c, 0, 46, 94
1, 87674, Note_off_c, 0, 46, 94
1, 87842, Note_on_c, 0, 48, 99
1, 88202, Note_off_c, 0, 48, 99
1, 88286, Note_on_c, 0, 49, 101
1, 88669, Note_off_c, 0, 49, 101
1, 88812, Note_on_c, 0, 51, 102
1, 89266, Note_off_c, 0, 51, 102
1, 89351, Note_on_c, 0, 53, 100
1, 89835, Note_off_c, 0, 53, 100
1, 89852, Note_on_c, 0, 54, 102
1, 90015, Note_off_c, 0, 54, 102
1, 90028, Note_on_c, 0, 53, 103
1, 90333, Note_off_c, 0, 53, 103
1, 90441, Note_on_c, 0, 51, 98
1, 90748, Note_off_c, 0, 51, 98
1, 90946, Note_on_c, 0, 58, 100
1, 91470, Note_off_c, 0, 58, 100
1, 91508, Note_on_c, 0, 56, 107
1, 92006, Note_off_c, 0, 56, 107
1, 92117, Note_on_c, 0, 57, 97
1, 92519, Note_off_c, 0, 57, 97
1, 92682, Note_on_c, 0, 52, 92
1, 93296, Note_off_c, 0, 52, 92
1, 94343, Note_on_c, 0, 52, 104
1, 94734, Note_off_c, 0, 52, 104
1, 94744, Note_on_c, 0, 51, 104
1, 95338, Note_off_c, 0, 51, 104
1, 95457, Note_on_c, 0, 51, 102
1, 95717, Note_off_c, 0, 51, 102
1, 96420, Note_on_c, 0, 48, 100
1, 96720, Note_off_c, 0, 48, 100
1, 96745, Note_on_c, 0, 51, 103
1, 97123, Note_off_c, 0, 51, 103
1, 97246, Note_on_c, 0, 53, 102
1, 97482, Note_off_c, 0, 53, 102
1, 97622, Note_on_c, 0, 56, 102
1, 97953, Note_off_c, 0, 56, 102
1, 98049, Note_on_c, 0, 60, 110
1, 98506, Note_off_c, 0, 60, 110
1, 98642, Note_on_c, 0, 60, 109
1, 99017, Note_off_c, 0, 60, 109
1, 99055, Note_on_c, 0, 57, 95
1, 99596, Note_off_c, 0, 57, 95
1, 99793, Note_on_c, 0, 58, 101
1, 100140, Note_off_c, 0, 58, 101
1, 100294, Note_on_c, 0, 61, 121
1, 100570, Note_off_c, 0, 61, 121
1, 100779, Note_on_c, 0, 65, 110
1, 101137, Note_off_c, 0, 65, 110
1, 101216, Note_on_c, 0, 67, 100
1, 101363, Note_off_c, 0, 67, 100
1, 101384, Note_on_c, 0, 68, 92
1, 101629, Note_off_c, 0, 68, 92
1, 101946, Note_on_c, 0, 70, 102
1, 102302, Note_off_c, 0, 70, 102
1, 102493, Note_on_c, 0, 72, 89
1, 102817, Note_off_c, 0, 72, 89
1, 102934, Note_on_c, 0, 73, 84
1, 103258, Note_off_c, 0, 73, 84
1, 103431, Note_on_c, 0, 72, 96
1, 103740, Note_off_c, 0, 72, 96
1, 103781, Note_on_c, 0, 70, 99
1, 104011, Note_off_c, 0, 70, 99
1, 104201, Note_on_c, 0, 66, 91
1, 104518, Note_off_c, 0, 66, 91
1, 104536, Note_on_c, 0, 65, 93
1, 104875, Note_off_c, 0, 65, 93
1, 104939, Note_on_c, 0, 63, 100
1, 105364, Note_off_c, 0, 63, 100
1, 106286, Note_on_c, 0, 75, 96
1, 106479, Note_off_c, 0, 75, 96
1, 106533, Note_on_c, 0, 83, 76
1, 106679, Note_off_c, 0, 83, 76
1, 106978, Note_on_c, 0, 75, 95
1, 107281, Note_off_c, 0, 75, 95
1, 107436, Note_on_c, 0, 73, 98
1, 107728, Note_off_c, 0, 73, 98
1, 107848, Note_on_c, 0, 70, 99
1, 108192, Note_off_c, 0, 70, 99
1, 108355, Note_on_c, 0, 67, 96
1, 108527, Note_off_c, 0, 67, 96
1, 108532, Note_on_c, 0, 63, 107
1, 108848, Note_off_c, 0, 63, 107
1, 109143, Note_on_c, 0, 70, 102
1, 109448, Note_off_c, 0, 70, 102
1, 109478, Note_on_c, 0, 68, 97
1, 109745, Note_off_c, 0, 68, 97
1, 109841, Note_on_c, 0, 65, 101
1, 110069, Note_off_c, 0, 65, 101
1, 110192, Note_on_c, 0, 64, 109
1, 110478, Note_off_c, 0, 64, 109
1, 110660, Note_on_c, 0, 68, 95
1, 110882, Note_off_c, 0, 68, 95
1, 110965, Note_on_c, 0, 64, 102
1, 111271, Note_off_c, 0, 64, 102
1, 111282, Note_on_c, 0, 61, 98
1, 111624, Note_off_c, 0, 61, 98
1, 111665, Note_on_c, 0, 60, 98
1, 111986, Note_off_c, 0, 60, 98
1, 112167, Note_on_c, 0, 63, 108
1, 112399, Note_off_c, 0, 63, 108
1, 112523, Note_on_c, 0, 63, 106
1, 112646, Note_off_c, 0, 63, 106
1, 112654, Note_on_c, 0, 61, 94
1, 112842, Note_off_c, 0, 61, 94
1, 112852, Note_on_c, 0, 56, 9
1, 113157, Note_off_c, 0, 56, 9
1, 113273, Note_on_c, 0, 51, 113
1, 113595, Note_off_c, 0, 51, 113
1, 113759, Note_on_c, 0, 58, 104
1, 114419, Note_off_c, 0, 58, 104
1, 114419, End_track
0, 0, End_of_file
