0, 0, Header, 1, 1, 2520
1, 0, Start_track
1, 0, Note_on_c, 0, 80, 85
1, 477, Note_off_c, 0, 80, 85
1, 636, Note_on_c, 0, 81, 86
1, 1049, Title_t, "Melody"
1, 1049, Tempo, 413793
1, 1049, Key_signature, 1, "major"
1, 1049, Time_signature, 4, 2, 24, 8
1, 1112, Note_off_c, 0, 81, 86
1, 1394, Note_on_c, 0, 83, 83
1, 1641, Note_off_c, 0, 83, 83
1, 1676, Note_on_c, 0, 84, 82
1, 2188, Note_off_c, 0, 84, 82
1, 2311, Note_on_c, 0, 82, 91
1, 3000, Note_off_c, 0, 82, 91
1, 3141, Note_on_c, 0, 80, 96
1, 3759, Note_off_c, 0, 80, 96
1, 3988, Note_on_c, 0, 79, 103
1, 4836, Note_off_c, 0, 79, 103
1, 4977, Note_on_c, 0, 77, 103
1, 5684, Note_off_c, 0, 77, 103
1, 5896, Note_on_c, 0, 75, 96
1, 6302, Note_off_c, 0, 75, 96
1, 6478, Note_on_c, 0, 77, 107
1, 7326, Note_off_c, 0, 77, 107
1, 7485, Note_on_c, 0, 79, 110
1, 8386, Note_off_c, 0, 79, 110
1, 8545, Note_on_c, 0, 75, 101
1, 9092, Note_off_c, 0, 75, 101
1, 9286, Note_on_c, 0, 77, 117
1, 12785, Note_off_c, 0, 77, 117
1, 13173, Note_on_c, 0, 75, 109
1, 13986, Note_off_c, 0, 75, 109
1, 14092, Note_on_c, 0, 74, 113
1, 14657, Note_off_c, 0, 74, 113
1, 14904, Note_on_c, 0, 72, 107
1, 15982, Note_off_c, 0, 72, 107
1, 16370, Note_on_c, 0, 70, 106
1, 17006, Note_off_c, 0, 70, 106
1, 17394, Note_on_c, 0, 72, 105
1, 18207, Note_off_c, 0, 72, 105
1, 19037, Note_on_c, 0, 74, 107
1, 20698, Note_off_c, 0, 74, 107
1, 21016, Note_on_c, 0, 72, 106
1, 22023, Note_off_c, 0, 72, 106
1, 22235, Note_on_c, 0, 70, 103
1, 30030, Note_off_c, 0, 70, 103
1, 30224, Note_on_c, 0, 69, 107
1, 31107, Note_off_c, 0, 69, 107
1, 31460, Note_on_c, 0, 70, 100
1, 32414, Note_off_c, 0, 70, 100
1, 32679, Note_on_c, 0, 72, 100
1, 34941, Note_off_c, 0, 72, 100
1, 35135, Note_on_c, 0, 70, 102
1, 37203, Note_off_c, 0, 70, 102
1, 37892, Note_on_c, 0, 69, 109
1, 46765, Note_off_c, 0, 69, 109
1, 47030, Note_on_c, 0, 67, 109
1, 48072, Note_off_c, 0, 67, 109
1, 48160, Note_on_c, 0, 69, 107
1, 49061, Note_off_c, 0, 69, 107
1, 49750, Note_on_c, 0, 69, 103
1, 50810, Note_off_c, 0, 69, 103
1, 50933, Note_on_c, 0, 70, 112
1, 52665, Note_off_c, 0, 70, 112
1, 52983, Note_on_c, 0, 69, 106
1, 54273, Note_off_c, 0, 69, 106
1, 54661, Note_on_c, 0, 67, 110
1, 58532, Note_off_c, 0, 67, 110
1, 58655, Note_on_c, 0, 66, 110
1, 59839, Note_off_c, 0, 66, 110
1, 59980, Note_on_c, 0, 67, 112
1, 61411, Note_off_c, 0, 67, 112
1, 61552, Note_on_c, 0, 67, 105
1, 62170, Note_off_c, 0, 67, 105
1, 62364, Note_on_c, 0, 68, 108
1, 64962, Note_off_c, 0, 68, 108
1, 65191, Note_on_c, 0, 67, 108
1, 66587, Note_off_c, 0, 67, 108
1, 66675, Note_on_c, 0, 66, 104
1, 66904, Note_off_c, 0, 66, 104
1, 66999, Note_on_c, 0, 65, 103
1, 75003, Note_off_c, 0, 65, 103
1, 75251, Note_on_c, 0, 64, 93
1, 79228, Note_off_c, 0, 64, 93
1, 109502, Note_on_c, 0, 64, 114
1, 110350, Note_off_c, 0, 64, 114
1, 110562, Note_on_c, 0, 65, 117
1, 112453, Note_off_c, 0, 65, 117
1, 112534, Note_on_c, 0, 66, 115
1, 123148, Note_off_c, 0, 66, 115
1, 123458, Note_on_c, 0, 64, 115
1, 124216, Note_off_c, 0, 64, 115
1, 124315, Note_on_c, 0, 66, 116
1, 125259, Note_off_c, 0, 66, 116
1, 125370, Note_on_c, 0, 67, 119
1, 126140, Note_off_c, 0, 67, 119
1, 126289, Note_on_c, 0, 69, 114
1, 127109, Note_off_c, 0, 69, 114
1, 127208, Note_on_c, 0, 66, 114
1, 128065, Note_off_c, 0, 66, 114
1, 128139, Note_on_c, 0, 67, 117
1, 129033, Note_off_c, 0, 67, 117
1, 129185, Note_on_c, 0, 66, 114
1, 141204, Note_off_c, 0, 66, 114
1, 141610, Note_on_c, 0, 64, 108
1, 142281, Note_off_c, 0, 64, 108
1, 142457, Note_on_c, 0, 66, 110
1, 143164, Note_off_c, 0, 66, 110
1, 143358, Note_on_c, 0, 67, 108
1, 143658, Note_off_c, 0, 67, 108
1, 143755, Note_on_c, 0, 69, 102
1, 144099, Note_off_c, 0, 69, 102
1, 144196, Note_on_c, 0, 67, 107
1, 144814, Note_off_c, 0, 67, 107
1, 144955, Note_on_c, 0, 66, 97
1, 145971, Note_off_c, 0, 66, 97
1, 146121, Note_on_c, 0, 67, 108
1, 147473, Note_off_c, 0, 67, 108
1, 147579, Note_on_c, 0, 69, 106
1, 148674, Note_off_c, 0, 69, 106
1, 148744, Note_on_c, 0, 66, 102
1, 152809, Note_off_c, 0, 66, 102
1, 152862, Note_on_c, 0, 66, 108
1, 153180, Note_off_c, 0, 66, 108
1, 153303, Note_on_c, 0, 71, 99
1, 153709, Note_off_c, 0, 71, 99
1, 157261, Note_on_c, 0, 65, 108
1, 157526, Note_off_c, 0, 65, 108
1, 157596, Note_on_c, 0, 70, 100
1, 157993, Note_off_c, 0, 70, 100
1, 158063, Note_on_c, 0, 63, 100
1, 158478, Note_off_c, 0, 63, 100
1, 158522, Note_on_c, 0, 64, 100
1, 158928, Note_off_c, 0, 64, 100
1, 158989, Note_on_c, 0, 63, 94
1, 159377, Note_off_c, 0, 63, 94
1, 159447, Note_on_c, 0, 64, 100
1, 159986, Note_off_c, 0, 64, 100
1, 160047, Note_on_c, 0, 63, 102
1, 160471, Note_off_c, 0, 63, 102
1, 160532, Note_on_c, 0, 64, 96
1, 161062, Note_off_c, 0, 64, 96
1, 161106, Note_on_c, 0, 63, 100
1, 161415, Note_off_c, 0, 63, 100
1, 161459, Note_on_c, 0, 64, 103
1, 161927, Note_off_c, 0, 64, 103
1, 161984, Note_on_c, 0, 63, 94
1, 162232, Note_off_c, 0, 63, 94
1, 162331, Note_on_c, 0, 70, 99
1, 162766, Note_off_c, 0, 70, 99
1, 163056, Note_on_c, 0, 62, 107
1, 163603, Note_off_c, 0, 62, 107
1, 163664, Note_on_c, 0, 61, 103
1, 164070, Note_off_c, 0, 61, 103
1, 164149, Note_on_c, 0, 62, 104
1, 164652, Note_off_c, 0, 62, 104
1, 164722, Note_on_c, 0, 61, 97
1, 164969, Note_off_c, 0, 61, 97
1, 165189, Note_on_c, 0, 59, 92
1, 166081, Note_off_c, 0, 59, 92
1, 166125, Note_on_c, 0, 60, 94
1, 167459, Note_off_c, 0, 60, 94
1, 174228, Note_on_c, 0, 59, 101
1, 175553, Note_off_c, 0, 59, 101
1, 175659, Note_on_c, 0, 60, 103
1, 176313, Note_off_c, 0, 60, 103
1, 176498, Note_on_c, 0, 62, 104
1, 177143, Note_off_c, 0, 62, 104
1, 177425, Note_on_c, 0, 70, 103
1, 178220, Note_off_c, 0, 70, 103
1, 178511, Note_on_c, 0, 64, 109
1, 180914, Note_off_c, 0, 64, 109
1, 181037, Note_on_c, 0, 66, 105
1, 181797, Note_off_c, 0, 66, 105
1, 181885, Note_on_c, 0, 71, 94
1, 182989, Note_off_c, 0, 71, 94
1, 183192, Note_on_c, 0, 67, 110
1, 186135, Note_off_c, 0, 67, 110
1, 186241, Note_on_c, 0, 69, 97
1, 188362, Note_off_c, 0, 69, 97
1, 188397, Note_on_c, 0, 71, 106
1, 191490, Note_off_c, 0, 71, 106
1, 191490, Note_on_c, 0, 69, 105
1, 194318, Note_off_c, 0, 69, 105
1, 194318, Note_on_c, 0, 67, 106
1, 196987, Note_off_c, 0, 67, 106
1, 230298, Note_on_c, 0, 80, 126
1, 231143, Note_off_c, 0, 80, 126
1, 231304, Note_on_c, 0, 81, 127
1, 232211, Note_off_c, 0, 81, 127
1, 232447, Note_on_c, 0, 84, 124
1, 233491, Note_off_c, 0, 84, 124
1, 233640, Note_on_c, 0, 82, 122
1, 234497, Note_off_c, 0, 82, 122
1, 234952, Note_on_c, 0, 80, 126
1, 245098, Note_off_c, 0, 80, 126
1, 245416, Note_on_c, 0, 80, 119
1, 249234, Note_off_c, 0, 80, 119
1, 249820, Note_on_c, 0, 68, 94
1, 255935, Note_off_c, 0, 68, 94
1, 256244, Note_on_c, 0, 83, 110
1, 257325, Note_off_c, 0, 83, 110
1, 257449, Note_on_c, 0, 84, 113
1, 257666, Note_off_c, 0, 84, 113
1, 257697, Note_on_c, 0, 85, 113
1, 257964, Note_off_c, 0, 85, 113
1, 258082, Note_on_c, 0, 84, 110
1, 259125, Note_off_c, 0, 84, 110
1, 259224, Note_on_c, 0, 88, 107
1, 259659, Note_off_c, 0, 88, 107
1, 259795, Note_on_c, 0, 87, 112
1, 260205, Note_off_c, 0, 87, 112
1, 260254, Note_on_c, 0, 86, 105
1, 260403, Note_off_c, 0, 86, 105
1, 260681, Note_on_c, 0, 82, 111
1, 262537, Note_off_c, 0, 82, 111
1, 332446, Note_on_c, 0, 57, 115
1, 333701, Note_off_c, 0, 57, 115
1, 333824, Note_on_c, 0, 60, 112
1, 334955, Note_off_c, 0, 60, 112
1, 335096, Note_on_c, 0, 62, 112
1, 336244, Note_off_c, 0, 62, 112
1, 336438, Note_on_c, 0, 64, 116
1, 337321, Note_off_c, 0, 64, 116
1, 337409, Note_on_c, 0, 66, 121
1, 338363, Note_off_c, 0, 66, 121
1, 338523, Note_on_c, 0, 65, 118
1, 340611, Note_off_c, 0, 65, 118
1, 340698, Note_on_c, 0, 67, 120
1, 342313, Note_off_c, 0, 67, 120
1, 342462, Note_on_c, 0, 68, 120
1, 343468, Note_off_c, 0, 68, 120
1, 343654, Note_on_c, 0, 70, 118
1, 344586, Note_off_c, 0, 70, 118
1, 344710, Note_on_c, 0, 72, 109
1, 345530, Note_off_c, 0, 72, 109
1, 345666, Note_on_c, 0, 74, 112
1, 346498, Note_off_c, 0, 74, 112
1, 346609, Note_on_c, 0, 75, 117
1, 347777, Note_off_c, 0, 75, 117
1, 348000, Note_on_c, 0, 73, 112
1, 355444, Note_off_c, 0, 73, 112
1, 355568, Note_on_c, 0, 72, 107
1, 356301, Note_off_c, 0, 72, 107
1, 356611, Note_on_c, 0, 70, 116
1, 357468, Note_off_c, 0, 70, 116
1, 357567, Note_on_c, 0, 72, 105
1, 358399, Note_off_c, 0, 72, 105
1, 358535, Note_on_c, 0, 77, 121
1, 359579, Note_off_c, 0, 77, 121
1, 359690, Note_on_c, 0, 75, 9
1, 360709, Note_off_c, 0, 75, 9
1, 360808, Note_on_c, 0, 73, 111
1, 361789, Note_off_c, 0, 73, 111
1, 361950, Note_on_c, 0, 72, 100
1, 362969, Note_off_c, 0, 72, 100
1, 363055, Note_on_c, 0, 70, 109
1, 364086, Note_off_c, 0, 70, 109
1, 364434, Note_on_c, 0, 72, 107
1, 365875, Note_off_c, 0, 72, 107
1, 365974, Note_on_c, 0, 72, 108
1, 368307, Note_off_c, 0, 72, 108
1, 368572, Note_on_c, 0, 72, 108
1, 372933, Note_off_c, 0, 72, 108
1, 373069, Note_on_c, 0, 71, 102
1, 373827, Note_off_c, 0, 71, 102
1, 373901, Note_on_c, 0, 72, 104
1, 375529, Note_off_c, 0, 72, 104
1, 375690, Note_on_c, 0, 70, 108
1, 376609, Note_off_c, 0, 70, 108
1, 376770, Note_on_c, 0, 68, 114
1, 377814, Note_off_c, 0, 68, 114
1, 377925, Note_on_c, 0, 67, 111
1, 378770, Note_off_c, 0, 67, 111
1, 378832, Note_on_c, 0, 68, 112
1, 379789, Note_off_c, 0, 68, 112
1, 380087, Note_on_c, 0, 70, 110
1, 382150, Note_off_c, 0, 70, 110
1, 382373, Note_on_c, 0, 70, 107
1, 385505, Note_off_c, 0, 70, 107
1, 386362, Note_on_c, 0, 73, 101
1, 386871, Note_off_c, 0, 73, 101
1, 387020, Note_on_c, 0, 70, 104
1, 388126, Note_off_c, 0, 70, 104
1, 388946, Note_on_c, 0, 68, 109
1, 389592, Note_off_c, 0, 68, 109
1, 389691, Note_on_c, 0, 67, 110
1, 390871, Note_off_c, 0, 67, 110
1, 390958, Note_on_c, 0, 66, 106
1, 391915, Note_off_c, 0, 66, 106
1, 392002, Note_on_c, 0, 67, 110
1, 393655, Note_off_c, 0, 67, 110
1, 394003, Note_on_c, 0, 68, 110
1, 396550, Note_off_c, 0, 68, 110
1, 396661, Note_on_c, 0, 69, 107
1, 397966, Note_off_c, 0, 69, 107
1, 398289, Note_on_c, 0, 71, 107
1, 400774, Note_off_c, 0, 71, 107
1, 400873, Note_on_c, 0, 69, 108
1, 401892, Note_off_c, 0, 69, 108
1, 402003, Note_on_c, 0, 68, 115
1, 402848, Note_off_c, 0, 68, 115
1, 402934, Note_on_c, 0, 69, 108
1, 403878, Note_off_c, 0, 69, 108
1, 403989, Note_on_c, 0, 71, 104
1, 404970, Note_off_c, 0, 71, 104
1, 405405, Note_on_c, 0, 72, 103
1, 406051, Note_off_c, 0, 72, 103
1, 406187, Note_on_c, 0, 74, 103
1, 406858, Note_off_c, 0, 74, 103
1, 407056, Note_on_c, 0, 72, 101
1, 407839, Note_off_c, 0, 72, 101
1, 407975, Note_on_c, 0, 70, 107
1, 408758, Note_off_c, 0, 70, 107
1, 408832, Note_on_c, 0, 72, 102
1, 409689, Note_off_c, 0, 72, 102
1, 409825, Note_on_c, 0, 76, 110
1, 410670, Note_off_c, 0, 76, 110
1, 410757, Note_on_c, 0, 78, 116
1, 411627, Note_off_c, 0, 78, 116
1, 411763, Note_on_c, 0, 76, 115
1, 412583, Note_off_c, 0, 76, 115
1, 412645, Note_on_c, 0, 77, 117
1, 413465, Note_off_c, 0, 77, 117
1, 413589, Note_on_c, 0, 75, 107
1, 414384, Note_off_c, 0, 75, 107
1, 414533, Note_on_c, 0, 73, 105
1, 417391, Note_off_c, 0, 73, 105
1, 417490, Note_on_c, 0, 74, 102
1, 418223, Note_off_c, 0, 74, 102
1, 418434, Note_on_c, 0, 72, 105
1, 419328, Note_off_c, 0, 72, 105
1, 419576, Note_on_c, 0, 70, 107
1, 423155, Note_off_c, 0, 70, 107
1, 423764, Note_on_c, 0, 68, 112
1, 424882, Note_off_c, 0, 68, 112
1, 425006, Note_on_c, 0, 66, 107
1, 425963, Note_off_c, 0, 66, 107
1, 426273, Note_on_c, 0, 64, 110
1, 426794, Note_off_c, 0, 64, 110
1, 426868, Note_on_c, 0, 66, 111
1, 427825, Note_off_c, 0, 66, 111
1, 427849, Note_on_c, 0, 67, 108
1, 430434, Note_off_c, 0, 67, 108
1, 430545, Note_on_c, 0, 65, 111
1, 431676, Note_off_c, 0, 65, 111
1, 431812, Note_on_c, 0, 63, 104
1, 435540, Note_off_c, 0, 63, 104
1, 435676, Note_on_c, 0, 65, 112
1, 437030, Note_off_c, 0, 65, 112
1, 437129, Note_on_c, 0, 63, 107
1, 438086, Note_off_c, 0, 63, 107
1, 438222, Note_on_c, 0, 61, 103
1, 442410, Note_off_c, 0, 61, 103
1, 489335, Note_on_c, 0, 59, 117
1, 489821, Note_off_c, 0, 59, 117
1, 489868, Note_on_c, 0, 60, 115
1, 490010, Note_off_c, 0, 60, 115
1, 490072, Note_on_c, 0, 63, 106
1, 490208, Note_off_c, 0, 63, 106
1, 490243, Note_on_c, 0, 65, 124
1, 490631, Note_off_c, 0, 65, 124
1, 490701, Note_on_c, 0, 64, 116
1, 490913, Note_off_c, 0, 64, 116
1, 490933, Note_on_c, 0, 63, 109
1, 491106, Note_off_c, 0, 63, 109
1, 491141, Note_on_c, 0, 62, 111
1, 491468, Note_off_c, 0, 62, 111
1, 491521, Note_on_c, 0, 63, 105
1, 491989, Note_off_c, 0, 63, 105
1, 492136, Note_on_c, 0, 64, 121
1, 492589, Note_off_c, 0, 64, 121
1, 492669, Note_on_c, 0, 67, 119
1, 492874, Note_off_c, 0, 67, 119
1, 492892, Note_on_c, 0, 68, 121
1, 493128, Note_off_c, 0, 68, 121
1, 493196, Note_on_c, 0, 70, 113
1, 493413, Note_off_c, 0, 70, 113
1, 493462, Note_on_c, 0, 73, 109
1, 493735, Note_off_c, 0, 73, 109
1, 493840, Note_on_c, 0, 76, 113
1, 494013, Note_off_c, 0, 76, 113
1, 494037, Note_on_c, 0, 77, 125
1, 494248, Note_off_c, 0, 77, 125
1, 494272, Note_on_c, 0, 79, 118
1, 494508, Note_off_c, 0, 79, 118
1, 494563, Note_on_c, 0, 82, 113
1, 494786, Note_off_c, 0, 82, 113
1, 494786, Note_on_c, 0, 86, 110
1, 495003, Note_off_c, 0, 86, 110
1, 495121, Note_on_c, 0, 85, 100
1, 495313, Note_off_c, 0, 85, 100
1, 495350, Note_on_c, 0, 83, 105
1, 495468, Note_off_c, 0, 83, 105
1, 495492, Note_on_c, 0, 82, 108
1, 496026, Note_off_c, 0, 82, 108
1, 496336, Note_on_c, 0, 83, 116
1, 497013, Note_off_c, 0, 83, 116
1, 497087, Note_on_c, 0, 81, 114
1, 497664, Note_off_c, 0, 81, 114
1, 497732, Note_on_c, 0, 84, 111
1, 498154, Note_off_c, 0, 84, 111
1, 498172, Note_on_c, 0, 83, 107
1, 498321, Note_off_c, 0, 83, 107
1, 498451, Note_on_c, 0, 82, 102
1, 498886, Note_off_c, 0, 82, 102
1, 498960, Note_on_c, 0, 80, 109
1, 499419, Note_off_c, 0, 80, 109
1, 499462, Note_on_c, 0, 81, 103
1, 500133, Note_off_c, 0, 81, 103
1, 512138, Note_on_c, 0, 58, 103
1, 513026, Note_off_c, 0, 58, 103
1, 513113, Note_on_c, 0, 60, 113
1, 513945, Note_off_c, 0, 60, 113
1, 514026, Note_on_c, 0, 62, 111
1, 517658, Note_off_c, 0, 62, 111
1, 517755, Note_on_c, 0, 61, 115
1, 518417, Note_off_c, 0, 61, 115
1, 518558, Note_on_c, 0, 63, 117
1, 519150, Note_off_c, 0, 63, 117
1, 519309, Note_on_c, 0, 65, 118
1, 521403, Note_off_c, 0, 65, 118
1, 521491, Note_on_c, 0, 66, 117
1, 522339, Note_off_c, 0, 66, 117
1, 522404, Note_on_c, 0, 68, 118
1, 523180, Note_off_c, 0, 68, 118
1, 523322, Note_on_c, 0, 70, 113
1, 524105, Note_off_c, 0, 70, 113
1, 524185, Note_on_c, 0, 68, 114
1, 524943, Note_off_c, 0, 68, 114
1, 524980, Note_on_c, 0, 69, 112
1, 525545, Note_off_c, 0, 69, 112
1, 525638, Note_on_c, 0, 71, 112
1, 526203, Note_off_c, 0, 71, 112
1, 526389, Note_on_c, 0, 73, 116
1, 527091, Note_off_c, 0, 73, 116
1, 527140, Note_on_c, 0, 72, 110
1, 527736, Note_off_c, 0, 72, 110
1, 528040, Note_on_c, 0, 69, 113
1, 528624, Note_off_c, 0, 69, 113
1, 528804, Note_on_c, 0, 72, 109
1, 529419, Note_off_c, 0, 72, 109
1, 529487, Note_on_c, 0, 74, 107
1, 530158, Note_off_c, 0, 74, 107
1, 530220, Note_on_c, 0, 76, 116
1, 530822, Note_off_c, 0, 76, 116
1, 530902, Note_on_c, 0, 79, 118
1, 531678, Note_off_c, 0, 79, 118
1, 531789, Note_on_c, 0, 76, 120
1, 532596, Note_off_c, 0, 76, 120
1, 532658, Note_on_c, 0, 77, 120
1, 533242, Note_off_c, 0, 77, 120
1, 533291, Note_on_c, 0, 79, 117
1, 534204, Note_off_c, 0, 79, 117
1, 534253, Note_on_c, 0, 80, 119
1, 535129, Note_off_c, 0, 80, 119
1, 535166, Note_on_c, 0, 82, 114
1, 536185, Note_off_c, 0, 82, 114
1, 536650, Note_on_c, 0, 83, 111
1, 536756, Note_off_c, 0, 83, 111
1, 536800, Note_on_c, 0, 84, 111
1, 537736, Note_off_c, 0, 84, 111
1, 537824, Note_on_c, 0, 82, 115
1, 538769, Note_off_c, 0, 82, 115
1, 538901, Note_on_c, 0, 80, 114
1, 539608, Note_off_c, 0, 80, 114
1, 539678, Note_on_c, 0, 82, 116
1, 540323, Note_off_c, 0, 82, 116
1, 540508, Note_on_c, 0, 79, 113
1, 545156, Note_off_c, 0, 79, 113
1, 545364, Note_on_c, 0, 77, 116
1, 546395, Note_off_c, 0, 77, 116
1, 546519, Note_on_c, 0, 75, 101
1, 547215, Note_off_c, 0, 75, 101
1, 547301, Note_on_c, 0, 78, 117
1, 548320, Note_off_c, 0, 78, 117
1, 548506, Note_on_c, 0, 80, 119
1, 549363, Note_off_c, 0, 80, 119
1, 549462, Note_on_c, 0, 82, 115
1, 550182, Note_off_c, 0, 82, 115
1, 550331, Note_on_c, 0, 78, 115
1, 551014, Note_off_c, 0, 78, 115
1, 551051, Note_on_c, 0, 79, 118
1, 551200, Note_off_c, 0, 79, 118
1, 551311, Note_on_c, 0, 80, 118
1, 551969, Note_off_c, 0, 80, 118
1, 552043, Note_on_c, 0, 77, 116
1, 552751, Note_off_c, 0, 77, 116
1, 552937, Note_on_c, 0, 75, 109
1, 553620, Note_off_c, 0, 75, 109
1, 553834, Note_on_c, 0, 70, 106
1, 554797, Note_off_c, 0, 70, 106
1, 554938, Note_on_c, 0, 72, 103
1, 555724, Note_off_c, 0, 72, 103
1, 555803, Note_on_c, 0, 74, 106
1, 556624, Note_off_c, 0, 74, 106
1, 556836, Note_on_c, 0, 75, 107
1, 557366, Note_off_c, 0, 75, 107
1, 557560, Note_on_c, 0, 77, 119
1, 558452, Note_off_c, 0, 77, 119
1, 558584, Note_on_c, 0, 73, 109
1, 560996, Note_off_c, 0, 73, 109
1, 561084, Note_on_c, 0, 70, 108
1, 561817, Note_off_c, 0, 70, 108
1, 561914, Note_on_c, 0, 64, 107
1, 562568, Note_off_c, 0, 64, 107
1, 562621, Note_on_c, 0, 65, 113
1, 563425, Note_off_c, 0, 65, 113
1, 563698, Note_on_c, 0, 74, 113
1, 565827, Note_off_c, 0, 74, 113
1, 565915, Note_on_c, 0, 72, 105
1, 566772, Note_off_c, 0, 72, 105
1, 567001, Note_on_c, 0, 81, 120
1, 568202, Note_off_c, 0, 81, 120
1, 568299, Note_on_c, 0, 80, 111
1, 569774, Note_off_c, 0, 80, 111
1, 570101, Note_on_c, 0, 75, 110
1, 571152, Note_off_c, 0, 75, 110
1, 571249, Note_on_c, 0, 71, 109
1, 571956, Note_off_c, 0, 71, 109
1, 572053, Note_on_c, 0, 74, 103
1, 572715, Note_off_c, 0, 74, 103
1, 572794, Note_on_c, 0, 76, 115
1, 573651, Note_off_c, 0, 76, 115
1, 573748, Note_on_c, 0, 79, 113
1, 574587, Note_off_c, 0, 79, 113
1, 574631, Note_on_c, 0, 78, 113
1, 575293, Note_off_c, 0, 78, 113
1, 575407, Note_on_c, 0, 76, 114
1, 576087, Note_off_c, 0, 76, 114
1, 576166, Note_on_c, 0, 77, 117
1, 577005, Note_off_c, 0, 77, 117
1, 577111, Note_on_c, 0, 74, 101
1, 577835, Note_off_c, 0, 74, 101
1, 578091, Note_on_c, 0, 70, 109
1, 578647, Note_off_c, 0, 70, 109
1, 578814, Note_on_c, 0, 66, 111
1, 579529, Note_off_c, 0, 66, 111
1, 579696, Note_on_c, 0, 63, 100
1, 580464, Note_off_c, 0, 63, 100
1, 580499, Note_on_c, 0, 62, 102
1, 581153, Note_off_c, 0, 62, 102
1, 581241, Note_on_c, 0, 61, 105
1, 581886, Note_off_c, 0, 61, 105
1, 582018, Note_on_c, 0, 64, 115
1, 582813, Note_off_c, 0, 64, 115
1, 582873, Note_on_c, 0, 65, 111
1, 584774, Note_off_c, 0, 65, 111
1, 584844, Note_on_c, 0, 64, 117
1, 585462, Note_on_c, 0, 65, 113
1, 585462, Note_off_c, 0, 64, 117
1, 586027, Note_off_c, 0, 65, 113
1, 586071, Note_on_c, 0, 64, 111
1, 586442, Note_off_c, 0, 64, 111
1, 586521, Note_on_c, 0, 65, 113
1, 587086, Note_off_c, 0, 65, 113
1, 587342, Note_on_c, 0, 67, 114
1, 587801, Note_off_c, 0, 67, 114
1, 587862, Note_on_c, 0, 66, 115
1, 588268, Note_off_c, 0, 66, 115
1, 588453, Note_on_c, 0, 66, 113
1, 588965, Note_off_c, 0, 66, 113
1, 589132, Note_on_c, 0, 67, 113
1, 589697, Note_off_c, 0, 67, 113
1, 589873, Note_on_c, 0, 67, 113
1, 590217, Note_off_c, 0, 67, 113
1, 590314, Note_on_c, 0, 69, 111
1, 590835, Note_off_c, 0, 69, 111
1, 590949, Note_on_c, 0, 69, 110
1, 591408, Note_off_c, 0, 69, 110
1, 591487, Note_on_c, 0, 71, 110
1, 591743, Note_off_c, 0, 71, 110
1, 591787, Note_on_c, 0, 70, 111
1, 592202, Note_off_c, 0, 70, 111
1, 592325, Note_on_c, 0, 70, 108
1, 592696, Note_off_c, 0, 70, 108
1, 592819, Note_on_c, 0, 69, 114
1, 593110, Note_off_c, 0, 69, 114
1, 593189, Note_on_c, 0, 68, 112
1, 593595, Note_off_c, 0, 68, 112
1, 593630, Note_on_c, 0, 69, 114
1, 594036, Note_off_c, 0, 69, 114
1, 594089, Note_on_c, 0, 68, 109
1, 594407, Note_off_c, 0, 68, 109
1, 594468, Note_on_c, 0, 69, 114
1, 594936, Note_off_c, 0, 69, 114
1, 595015, Note_on_c, 0, 67, 112
1, 595545, Note_off_c, 0, 67, 112
1, 595633, Note_on_c, 0, 66, 113
1, 596516, Note_off_c, 0, 66, 113
1, 629420, Note_on_c, 0, 62, 107
1, 629950, Note_off_c, 0, 62, 107
1, 630135, Note_on_c, 0, 64, 113
1, 630859, Note_off_c, 0, 64, 113
1, 630929, Note_on_c, 0, 70, 117
1, 631309, Note_off_c, 0, 70, 117
1, 631423, Note_on_c, 0, 64, 113
1, 632015, Note_off_c, 0, 64, 113
1, 632165, Note_on_c, 0, 66, 116
1, 632571, Note_off_c, 0, 66, 116
1, 632703, Note_on_c, 0, 69, 112
1, 633180, Note_off_c, 0, 69, 112
1, 633277, Note_on_c, 0, 76, 120
1, 633754, Note_off_c, 0, 76, 120
1, 633877, Note_on_c, 0, 70, 117
1, 634672, Note_off_c, 0, 70, 117
1, 634716, Note_on_c, 0, 69, 110
1, 634989, Note_off_c, 0, 69, 110
1, 639664, Note_on_c, 0, 59, 111
1, 640123, Note_off_c, 0, 59, 111
1, 640264, Note_on_c, 0, 64, 114
1, 640644, Note_off_c, 0, 64, 114
1, 640705, Note_on_c, 0, 70, 114
1, 641093, Note_off_c, 0, 70, 114
1, 641322, Note_on_c, 0, 76, 113
1, 641861, Note_off_c, 0, 76, 113
1, 641967, Note_on_c, 0, 66, 115
1, 642400, Note_off_c, 0, 66, 115
1, 642461, Note_on_c, 0, 70, 103
1, 642814, Note_off_c, 0, 70, 103
1, 642981, Note_on_c, 0, 76, 117
1, 643484, Note_off_c, 0, 76, 117
1, 643731, Note_on_c, 0, 70, 112
1, 645640, Note_off_c, 0, 70, 112
1, 649899, Note_on_c, 0, 59, 115
1, 650464, Note_off_c, 0, 59, 115
1, 650684, Note_on_c, 0, 64, 111
1, 651276, Note_off_c, 0, 64, 111
1, 651470, Note_on_c, 0, 71, 111
1, 651938, Note_off_c, 0, 71, 111
1, 652026, Note_on_c, 0, 70, 107
1, 652821, Note_off_c, 0, 70, 107
1, 652988, Note_on_c, 0, 63, 110
1, 653730, Note_off_c, 0, 63, 110
1, 654145, Note_on_c, 0, 68, 118
1, 654905, Note_off_c, 0, 68, 118
1, 656080, Note_on_c, 0, 75, 113
1, 656884, Note_off_c, 0, 75, 113
1, 657043, Note_on_c, 0, 70, 111
1, 659526, Note_off_c, 0, 70, 111
1, 678439, Note_on_c, 0, 79, 119
1, 679278, Note_off_c, 0, 79, 119
1, 679384, Note_on_c, 0, 77, 120
1, 680241, Note_off_c, 0, 77, 120
1, 680311, Note_on_c, 0, 78, 119
1, 681194, Note_off_c, 0, 78, 119
1, 681255, Note_on_c, 0, 79, 117
1, 681935, Note_off_c, 0, 79, 117
1, 682076, Note_on_c, 0, 84, 111
1, 682915, Note_off_c, 0, 84, 111
1, 683003, Note_on_c, 0, 82, 116
1, 683780, Note_off_c, 0, 82, 116
1, 684045, Note_on_c, 0, 75, 107
1, 688277, Note_off_c, 0, 75, 107
1, 688702, Note_on_c, 0, 72, 106
1, 689170, Note_off_c, 0, 72, 106
1, 689594, Note_on_c, 0, 74, 112
1, 690053, Note_off_c, 0, 74, 112
1, 690433, Note_on_c, 0, 75, 111
1, 690857, Note_off_c, 0, 75, 111
1, 691245, Note_on_c, 0, 76, 119
1, 691722, Note_off_c, 0, 76, 119
1, 692049, Note_on_c, 0, 77, 121
1, 692605, Note_off_c, 0, 77, 121
1, 692870, Note_on_c, 0, 78, 119
1, 693470, Note_off_c, 0, 78, 119
1, 693646, Note_on_c, 0, 77, 116
1, 694273, Note_off_c, 0, 77, 116
1, 694502, Note_on_c, 0, 76, 120
1, 695058, Note_off_c, 0, 76, 120
1, 695438, Note_on_c, 0, 75, 112
1, 695994, Note_off_c, 0, 75, 112
1, 696276, Note_on_c, 0, 74, 110
1, 696788, Note_off_c, 0, 74, 110
1, 697123, Note_on_c, 0, 73, 112
1, 697653, Note_off_c, 0, 73, 112
1, 698059, Note_on_c, 0, 72, 104
1, 698651, Note_off_c, 0, 72, 104
1, 698951, Note_on_c, 0, 70, 111
1, 699649, Note_off_c, 0, 70, 111
1, 699852, Note_on_c, 0, 69, 109
1, 700700, Note_off_c, 0, 69, 109
1, 700779, Note_on_c, 0, 70, 112
1, 701600, Note_off_c, 0, 70, 112
1, 701706, Note_on_c, 0, 71, 109
1, 702589, Note_off_c, 0, 71, 109
1, 702730, Note_on_c, 0, 72, 101
1, 703551, Note_off_c, 0, 72, 101
1, 703674, Note_on_c, 0, 73, 114
1, 704257, Note_off_c, 0, 73, 114
1, 704424, Note_on_c, 0, 74, 108
1, 705846, Note_off_c, 0, 74, 108
1, 705934, Note_on_c, 0, 73, 111
1, 706234, Note_off_c, 0, 73, 111
1, 706287, Note_on_c, 0, 74, 110
1, 706587, Note_off_c, 0, 74, 110
1, 706675, Note_on_c, 0, 73, 111
1, 707063, Note_off_c, 0, 73, 111
1, 707151, Note_on_c, 0, 72, 104
1, 707531, Note_off_c, 0, 72, 104
1, 707743, Note_on_c, 0, 71, 106
1, 708123, Note_off_c, 0, 71, 106
1, 708167, Note_on_c, 0, 70, 105
1, 708608, Note_off_c, 0, 70, 105
1, 708767, Note_on_c, 0, 67, 105
1, 709376, Note_off_c, 0, 67, 105
1, 709464, Note_on_c, 0, 66, 106
1, 709879, Note_off_c, 0, 66, 106
1, 709940, Note_on_c, 0, 67, 108
1, 710196, Note_off_c, 0, 67, 108
1, 710249, Note_on_c, 0, 68, 115
1, 711044, Note_off_c, 0, 68, 115
1, 711141, Note_on_c, 0, 67, 114
1, 712024, Note_off_c, 0, 67, 114
1, 712165, Note_on_c, 0, 66, 113
1, 712509, Note_off_c, 0, 66, 113
1, 712606, Note_on_c, 0, 65, 116
1, 712977, Note_off_c, 0, 65, 116
1, 713083, Note_on_c, 0, 64, 110
1, 713498, Note_off_c, 0, 64, 110
1, 713665, Note_on_c, 0, 63, 106
1, 714195, Note_off_c, 0, 63, 106
1, 714265, Note_on_c, 0, 64, 112
1, 714530, Note_off_c, 0, 64, 112
1, 714680, Note_on_c, 0, 65, 119
1, 715201, Note_off_c, 0, 65, 119
1, 715289, Note_on_c, 0, 66, 119
1, 715624, Note_off_c, 0, 66, 119
1, 715765, Note_on_c, 0, 65, 120
1, 716206, Note_off_c, 0, 65, 120
1, 716267, Note_on_c, 0, 66, 119
1, 716576, Note_off_c, 0, 66, 119
1, 716673, Note_on_c, 0, 65, 117
1, 717176, Note_off_c, 0, 65, 117
1, 717237, Note_on_c, 0, 64, 109
1, 717502, Note_off_c, 0, 64, 109
1, 717634, Note_on_c, 0, 63, 104
1, 718102, Note_off_c, 0, 63, 104
1, 718278, Note_on_c, 0, 61, 106
1, 719099, Note_off_c, 0, 61, 106
1, 719293, Note_on_c, 0, 62, 93
1, 719761, Note_off_c, 0, 62, 93
1, 719937, Note_on_c, 0, 64, 110
1, 720688, Note_off_c, 0, 64, 110
1, 720838, Note_on_c, 0, 62, 97
1, 721306, Note_off_c, 0, 62, 97
1, 721403, Note_on_c, 0, 65, 118
1, 722401, Note_off_c, 0, 65, 118
1, 722480, Note_on_c, 0, 64, 101
1, 722753, Note_off_c, 0, 64, 101
1, 723053, Note_on_c, 0, 67, 113
1, 723892, Note_off_c, 0, 67, 113
1, 724033, Note_on_c, 0, 65, 102
1, 724474, Note_off_c, 0, 65, 102
1, 724580, Note_on_c, 0, 66, 9
1, 725401, Note_off_c, 0, 66, 9
1, 725533, Note_on_c, 0, 69, 112
1, 726116, Note_off_c, 0, 69, 112
1, 726239, Note_on_c, 0, 66, 108
1, 726733, Note_off_c, 0, 66, 108
1, 726777, Note_on_c, 0, 67, 103
1, 727165, Note_off_c, 0, 67, 103
1, 727306, Note_on_c, 0, 70, 106
1, 727924, Note_off_c, 0, 70, 106
1, 728224, Note_on_c, 0, 68, 103
1, 728577, Note_off_c, 0, 68, 103
1, 728709, Note_on_c, 0, 69, 105
1, 729239, Note_off_c, 0, 69, 105
1, 729539, Note_on_c, 0, 72, 105
1, 730033, Note_off_c, 0, 72, 105
1, 730404, Note_on_c, 0, 77, 105
1, 730792, Note_off_c, 0, 77, 105
1, 730933, Note_on_c, 0, 71, 103
1, 731366, Note_off_c, 0, 71, 103
1, 731454, Note_on_c, 0, 72, 102
1, 731940, Note_off_c, 0, 72, 102
1, 732090, Note_on_c, 0, 74, 105
1, 732487, Note_off_c, 0, 74, 105
1, 732557, Note_on_c, 0, 75, 113
1, 733034, Note_off_c, 0, 75, 113
1, 733210, Note_on_c, 0, 72, 103
1, 733634, Note_off_c, 0, 72, 103
1, 733863, Note_on_c, 0, 74, 100
1, 734428, Note_off_c, 0, 74, 100
1, 734595, Note_on_c, 0, 77, 110
1, 735072, Note_off_c, 0, 77, 110
1, 735195, Note_on_c, 0, 76, 112
1, 735813, Note_off_c, 0, 76, 112
1, 736069, Note_on_c, 0, 74, 98
1, 736758, Note_off_c, 0, 74, 98
1, 736864, Note_on_c, 0, 75, 111
1, 737429, Note_off_c, 0, 75, 111
1, 737596, Note_on_c, 0, 74, 102
1, 738143, Note_off_c, 0, 74, 102
1, 738470, Note_on_c, 0, 73, 110
1, 739062, Note_off_c, 0, 73, 110
1, 739203, Note_on_c, 0, 71, 94
1, 739618, Note_off_c, 0, 71, 94
1, 739732, Note_on_c, 0, 75, 107
1, 740315, Note_off_c, 0, 75, 107
1, 740509, Note_on_c, 0, 77, 112
1, 740933, Note_off_c, 0, 77, 112
1, 740986, Note_on_c, 0, 79, 115
1, 741728, Note_off_c, 0, 79, 115
1, 741957, Note_on_c, 0, 75, 103
1, 742443, Note_off_c, 0, 75, 103
1, 742593, Note_on_c, 0, 77, 114
1, 743308, Note_off_c, 0, 77, 114
1, 743414, Note_on_c, 0, 78, 106
1, 744200, Note_off_c, 0, 78, 106
1, 744270, Note_on_c, 0, 79, 111
1, 745304, Note_off_c, 0, 79, 111
1, 745454, Note_on_c, 0, 82, 100
1, 746311, Note_off_c, 0, 82, 100
1, 746461, Note_on_c, 0, 78, 107
1, 747194, Note_off_c, 0, 78, 107
1, 747247, Note_on_c, 0, 79, 109
1, 748210, Note_off_c, 0, 79, 109
1, 748280, Note_on_c, 0, 80, 108
1, 749128, Note_off_c, 0, 80, 108
1, 749225, Note_on_c, 0, 82, 108
1, 749932, Note_off_c, 0, 82, 108
1, 750144, Note_on_c, 0, 84, 103
1, 751001, Note_off_c, 0, 84, 103
1, 751195, Note_on_c, 0, 82, 106
1, 751468, Note_off_c, 0, 82, 106
1, 751909, Note_on_c, 0, 84, 103
1, 752121, Note_off_c, 0, 84, 103
1, 752174, Note_on_c, 0, 85, 107
1, 753075, Note_off_c, 0, 85, 107
1, 753154, Note_on_c, 0, 84, 108
1, 753525, Note_off_c, 0, 84, 108
1, 754125, Note_on_c, 0, 82, 105
1, 755017, Note_off_c, 0, 82, 105
1, 755273, Note_on_c, 0, 84, 111
1, 756033, Note_off_c, 0, 84, 111
1, 756572, Note_on_c, 0, 82, 113
1, 757287, Note_off_c, 0, 82, 113
1, 757472, Note_on_c, 0, 84, 101
1, 758081, Note_off_c, 0, 84, 101
1, 759062, Note_on_c, 0, 85, 109
1, 759698, Note_off_c, 0, 85, 109
1, 759786, Note_on_c, 0, 84, 108
1, 760369, Note_off_c, 0, 84, 108
1, 760775, Note_on_c, 0, 82, 109
1, 761411, Note_off_c, 0, 82, 109
1, 761525, Note_on_c, 0, 84, 105
1, 762214, Note_off_c, 0, 84, 105
1, 762514, Note_on_c, 0, 82, 111
1, 763168, Note_off_c, 0, 82, 111
1, 763291, Note_on_c, 0, 84, 102
1, 764192, Note_off_c, 0, 84, 102
1, 764457, Note_on_c, 0, 82, 109
1, 765031, Note_off_c, 0, 82, 109
1, 765172, Note_on_c, 0, 84, 103
1, 766038, Note_off_c, 0, 84, 103
1, 766497, Note_on_c, 0, 84, 99
1, 766859, Note_off_c, 0, 84, 99
1, 766982, Note_on_c, 0, 85, 103
1, 767671, Note_off_c, 0, 85, 103
1, 767750, Note_on_c, 0, 84, 110
1, 768289, Note_off_c, 0, 84, 110
1, 768898, Note_on_c, 0, 82, 105
1, 769543, Note_off_c, 0, 82, 105
1, 770117, Note_on_c, 0, 84, 107
1, 770717, Note_off_c, 0, 84, 107
1, 771362, Note_on_c, 0, 80, 112
1, 772051, Note_off_c, 0, 80, 112
1, 772245, Note_on_c, 0, 84, 102
1, 772616, Note_off_c, 0, 84, 102
1, 773125, Note_on_c, 0, 81, 111
1, 773410, Note_off_c, 0, 81, 111
1, 773459, Note_on_c, 0, 82, 101
1, 781761, Note_off_c, 0, 82, 101
1, 781831, Note_on_c, 0, 77, 117
1, 782458, Note_off_c, 0, 77, 117
1, 782599, Note_on_c, 0, 78, 110
1, 783191, Note_off_c, 0, 78, 110
1, 783606, Note_on_c, 0, 73, 102
1, 784180, Note_off_c, 0, 73, 102
1, 784233, Note_on_c, 0, 74, 111
1, 784524, Note_off_c, 0, 74, 111
1, 784568, Note_on_c, 0, 75, 107
1, 785310, Note_off_c, 0, 75, 107
1, 785451, Note_on_c, 0, 70, 113
1, 785998, Note_off_c, 0, 70, 113
1, 786104, Note_on_c, 0, 65, 119
1, 786616, Note_off_c, 0, 65, 119
1, 786695, Note_on_c, 0, 62, 103
1, 786933, Note_off_c, 0, 62, 103
1, 787030, Note_on_c, 0, 65, 117
1, 787401, Note_off_c, 0, 65, 117
1, 787524, Note_on_c, 0, 70, 115
1, 787851, Note_off_c, 0, 70, 115
1, 787904, Note_on_c, 0, 65, 115
1, 788328, Note_off_c, 0, 65, 115
1, 788460, Note_on_c, 0, 66, 107
1, 789423, Note_off_c, 0, 66, 107
1, 789546, Note_on_c, 0, 70, 101
1, 790049, Note_off_c, 0, 70, 101
1, 790269, Note_on_c, 0, 75, 99
1, 790463, Note_off_c, 0, 75, 99
1, 790542, Note_on_c, 0, 76, 111
1, 794147, Note_off_c, 0, 76, 111
1, 794226, Note_on_c, 0, 74, 103
1, 794606, Note_off_c, 0, 74, 103
1, 794818, Note_on_c, 0, 71, 113
1, 795215, Note_off_c, 0, 71, 113
1, 795268, Note_on_c, 0, 66, 109
1, 795550, Note_off_c, 0, 66, 109
1, 795594, Note_on_c, 0, 62, 105
1, 795841, Note_off_c, 0, 62, 105
1, 795938, Note_on_c, 0, 64, 111
1, 798099, Note_off_c, 0, 64, 111
1, 826561, Note_on_c, 0, 64, 110
1, 827692, Note_off_c, 0, 64, 110
1, 827912, Note_on_c, 0, 69, 107
1, 828230, Note_off_c, 0, 69, 107
1, 828548, Note_on_c, 0, 69, 109
1, 828919, Note_off_c, 0, 69, 109
1, 829131, Note_on_c, 0, 71, 105
1, 829502, Note_off_c, 0, 71, 105
1, 836855, Note_on_c, 0, 63, 106
1, 837756, Note_off_c, 0, 63, 106
1, 837915, Note_on_c, 0, 68, 110
1, 838321, Note_off_c, 0, 68, 110
1, 838382, Note_on_c, 0, 68, 114
1, 838779, Note_off_c, 0, 68, 114
1, 838920, Note_on_c, 0, 70, 110
1, 839565, Note_off_c, 0, 70, 110
1, 846423, Note_on_c, 0, 69, 115
1, 847050, Note_off_c, 0, 69, 115
1, 847217, Note_on_c, 0, 69, 113
1, 847853, Note_off_c, 0, 69, 113
1, 848250, Note_on_c, 0, 74, 109
1, 848974, Note_off_c, 0, 74, 109
1, 849963, Note_on_c, 0, 74, 110
1, 850475, Note_off_c, 0, 74, 110
1, 850625, Note_on_c, 0, 76, 121
1, 851279, Note_off_c, 0, 76, 121
1, 856740, Note_on_c, 0, 72, 110
1, 857270, Note_off_c, 0, 72, 110
1, 857437, Note_on_c, 0, 72, 106
1, 858011, Note_off_c, 0, 72, 106
1, 858346, Note_on_c, 0, 77, 114
1, 859079, Note_off_c, 0, 77, 114
1, 859786, Note_on_c, 0, 77, 117
1, 860466, Note_off_c, 0, 77, 117
1, 860642, Note_on_c, 0, 79, 113
1, 862754, Note_off_c, 0, 79, 113
1, 867544, Note_on_c, 0, 80, 118
1, 868321, Note_off_c, 0, 80, 118
1, 869213, Note_on_c, 0, 80, 118
1, 869884, Note_off_c, 0, 80, 118
1, 869990, Note_on_c, 0, 78, 111
1, 872261, Note_off_c, 0, 78, 111
1, 873056, Note_on_c, 0, 76, 119
1, 873692, Note_off_c, 0, 76, 119
1, 874390, Note_on_c, 0, 76, 117
1, 874955, Note_off_c, 0, 76, 117
1, 875220, Note_on_c, 0, 72, 100
1, 877694, Note_off_c, 0, 72, 100
1, 878993, Note_on_c, 0, 74, 100
1, 879381, Note_off_c, 0, 74, 100
1, 879495, Note_on_c, 0, 75, 108
1, 880157, Note_off_c, 0, 75, 108
1, 880271, Note_on_c, 0, 73, 110
1, 880739, Note_off_c, 0, 73, 110
1, 880765, Note_on_c, 0, 74, 107
1, 881145, Note_off_c, 0, 74, 107
1, 881224, Note_on_c, 0, 70, 108
1, 881683, Note_off_c, 0, 70, 108
1, 881815, Note_on_c, 0, 66, 106
1, 882424, Note_off_c, 0, 66, 106
1, 882636, Note_on_c, 0, 62, 98
1, 883033, Note_off_c, 0, 62, 98
1, 883130, Note_on_c, 0, 69, 100
1, 883598, Note_off_c, 0, 69, 100
1, 883677, Note_on_c, 0, 64, 105
1, 884154, Note_off_c, 0, 64, 105
1, 884286, Note_on_c, 0, 63, 102
1, 884922, Note_off_c, 0, 63, 102
1, 885019, Note_on_c, 0, 65, 102
1, 887007, Note_off_c, 0, 65, 102
1, 894607, Note_on_c, 0, 58, 114
1, 894942, Note_off_c, 0, 58, 114
1, 895048, Note_on_c, 0, 62, 115
1, 895392, Note_off_c, 0, 62, 115
1, 895533, Note_on_c, 0, 66, 118
1, 896187, Note_off_c, 0, 66, 118
1, 896293, Note_on_c, 0, 65, 117
1, 896849, Note_off_c, 0, 65, 117
1, 896910, Note_on_c, 0, 64, 119
1, 897431, Note_off_c, 0, 64, 119
1, 897448, Note_on_c, 0, 63, 112
1, 897642, Note_off_c, 0, 63, 112
1, 897774, Note_on_c, 0, 67, 115
1, 898277, Note_off_c, 0, 67, 115
1, 898321, Note_on_c, 0, 65, 115
1, 898497, Note_off_c, 0, 65, 115
1, 898532, Note_on_c, 0, 63, 115
1, 899071, Note_off_c, 0, 63, 115
1, 899177, Note_on_c, 0, 65, 114
1, 899530, Note_off_c, 0, 65, 114
1, 899600, Note_on_c, 0, 68, 120
1, 899997, Note_off_c, 0, 68, 120
1, 900041, Note_on_c, 0, 67, 118
1, 900226, Note_off_c, 0, 67, 118
1, 900296, Note_on_c, 0, 70, 104
1, 900702, Note_off_c, 0, 70, 104
1, 900825, Note_on_c, 0, 73, 109
1, 900922, Note_off_c, 0, 73, 109
1, 900975, Note_on_c, 0, 74, 107
1, 901390, Note_off_c, 0, 74, 107
1, 901522, Note_on_c, 0, 76, 117
1, 901787, Note_off_c, 0, 76, 117
1, 901866, Note_on_c, 0, 77, 124
1, 902431, Note_off_c, 0, 77, 124
1, 902625, Note_on_c, 0, 74, 104
1, 903066, Note_off_c, 0, 74, 104
1, 903163, Note_on_c, 0, 75, 115
1, 903675, Note_off_c, 0, 75, 115
1, 903745, Note_on_c, 0, 77, 125
1, 904372, Note_off_c, 0, 77, 125
1, 904407, Note_on_c, 0, 78, 117
1, 904928, Note_off_c, 0, 78, 117
1, 905034, Note_on_c, 0, 80, 109
1, 905343, Note_off_c, 0, 80, 109
1, 905422, Note_on_c, 0, 82, 116
1, 906102, Note_off_c, 0, 82, 116
1, 906181, Note_on_c, 0, 84, 114
1, 906799, Note_off_c, 0, 84, 114
1, 906887, Note_on_c, 0, 83, 107
1, 907470, Note_off_c, 0, 83, 107
1, 907602, Note_on_c, 0, 82, 102
1, 908141, Note_off_c, 0, 82, 102
1, 908220, Note_on_c, 0, 81, 106
1, 908529, Note_off_c, 0, 81, 106
1, 908714, Note_on_c, 0, 78, 117
1, 909129, Note_off_c, 0, 78, 117
1, 909270, Note_on_c, 0, 74, 106
1, 909853, Note_off_c, 0, 74, 106
1, 909976, Note_on_c, 0, 76, 110
1, 910497, Note_off_c, 0, 76, 110
1, 910576, Note_on_c, 0, 81, 120
1, 911230, Note_off_c, 0, 81, 120
1, 911963, Note_on_c, 0, 76, 108
1, 912590, Note_off_c, 0, 76, 108
1, 912660, Note_on_c, 0, 81, 116
1, 913216, Note_off_c, 0, 81, 116
1, 913251, Note_on_c, 0, 80, 120
1, 913701, Note_off_c, 0, 80, 120
1, 913824, Note_on_c, 0, 79, 116
1, 914327, Note_off_c, 0, 79, 116
1, 914415, Note_on_c, 0, 78, 117
1, 915060, Note_off_c, 0, 78, 117
1, 915307, Note_on_c, 0, 73, 100
1, 915678, Note_off_c, 0, 73, 100
1, 915739, Note_on_c, 0, 76, 120
1, 916454, Note_off_c, 0, 76, 120
1, 916498, Note_on_c, 0, 77, 117
1, 916966, Note_off_c, 0, 77, 117
1, 917036, Note_on_c, 0, 79, 117
1, 917513, Note_off_c, 0, 79, 117
1, 917619, Note_on_c, 0, 76, 117
1, 918025, Note_off_c, 0, 76, 117
1, 918095, Note_on_c, 0, 78, 120
1, 918749, Note_off_c, 0, 78, 120
1, 918961, Note_on_c, 0, 74, 104
1, 919349, Note_off_c, 0, 74, 104
1, 919499, Note_on_c, 0, 70, 101
1, 920427, Note_off_c, 0, 70, 101
1, 920895, Note_on_c, 0, 75, 113
1, 921257, Note_off_c, 0, 75, 113
1, 921513, Note_on_c, 0, 70, 111
1, 921928, Note_off_c, 0, 70, 111
1, 922034, Note_on_c, 0, 66, 114
1, 922546, Note_off_c, 0, 66, 114
1, 922634, Note_on_c, 0, 60, 107
1, 923102, Note_off_c, 0, 60, 107
1, 923208, Note_on_c, 0, 70, 109
1, 923791, Note_off_c, 0, 70, 109
1, 923923, Note_on_c, 0, 77, 100
1, 925151, Note_off_c, 0, 77, 100
1, 925274, Note_on_c, 0, 78, 102
1, 927518, Note_off_c, 0, 78, 102
1, 927641, Note_on_c, 0, 82, 101
1, 928904, Note_off_c, 0, 82, 101
1, 929036, Note_on_c, 0, 78, 122
1, 929451, Note_off_c, 0, 78, 122
1, 929610, Note_on_c, 0, 82, 109
1, 930449, Note_off_c, 0, 82, 109
1, 930873, Note_on_c, 0, 83, 113
1, 931253, Note_off_c, 0, 83, 113
1, 931429, Note_on_c, 0, 82, 83
1, 931862, Note_off_c, 0, 82, 83
1, 931932, Note_on_c, 0, 83, 92
1, 932647, Note_off_c, 0, 83, 92
1, 932814, Note_on_c, 0, 79, 113
1, 933229, Note_off_c, 0, 79, 113
1, 933467, Note_on_c, 0, 77, 91
1, 933953, Note_off_c, 0, 77, 91
1, 933988, Note_on_c, 0, 85, 112
1, 934323, Note_off_c, 0, 85, 112
1, 934429, Note_on_c, 0, 84, 106
1, 934773, Note_off_c, 0, 84, 106
1, 934826, Note_on_c, 0, 85, 111
1, 935073, Note_off_c, 0, 85, 111
1, 935249, Note_on_c, 0, 82, 116
1, 935673, Note_off_c, 0, 82, 116
1, 935779, Note_on_c, 0, 84, 113
1, 936309, Note_off_c, 0, 84, 113
1, 936450, Note_on_c, 0, 86, 94
1, 937174, Note_off_c, 0, 86, 94
1, 946869, Note_on_c, 0, 81, 122
1, 947293, Note_off_c, 0, 81, 122
1, 947354, Note_on_c, 0, 82, 104
1, 947468, Note_off_c, 0, 82, 104
1, 947547, Note_on_c, 0, 84, 108
1, 947706, Note_off_c, 0, 84, 108
1, 947820, Note_on_c, 0, 86, 111
1, 948562, Note_off_c, 0, 86, 111
1, 948650, Note_on_c, 0, 85, 112
1, 948711, Note_off_c, 0, 85, 112
1, 948755, Note_on_c, 0, 84, 109
1, 948931, Note_off_c, 0, 84, 109
1, 948992, Note_on_c, 0, 82, 116
1, 949619, Note_off_c, 0, 82, 116
1, 949713, Note_on_c, 0, 83, 108
1, 954125, Note_off_c, 0, 83, 108
1, 954779, Note_on_c, 0, 84, 107
1, 954982, Note_off_c, 0, 84, 107
1, 955123, Note_on_c, 0, 83, 112
1, 955794, Note_off_c, 0, 83, 112
1, 956138, Note_on_c, 0, 82, 106
1, 956668, Note_off_c, 0, 82, 106
1, 956880, Note_on_c, 0, 85, 108
1, 957675, Note_off_c, 0, 85, 108
1, 957851, Note_on_c, 0, 82, 108
1, 958425, Note_off_c, 0, 82, 108
1, 958495, Note_on_c, 0, 83, 111
1, 958609, Note_off_c, 0, 83, 111
1, 958697, Note_on_c, 0, 84, 109
1, 959147, Note_off_c, 0, 84, 109
1, 959208, Note_on_c, 0, 85, 111
1, 960012, Note_off_c, 0, 85, 111
1, 960091, Note_on_c, 0, 83, 112
1, 960364, Note_off_c, 0, 83, 112
1, 960664, Note_on_c, 0, 86, 104
1, 960902, Note_off_c, 0, 86, 104
1, 960972, Note_on_c, 0, 85, 107
1, 963199, Note_off_c, 0, 85, 107
1, 963322, Note_on_c, 0, 82, 116
1, 963852, Note_off_c, 0, 82, 116
1, 963940, Note_on_c, 0, 83, 109
1, 964708, Note_off_c, 0, 83, 109
1, 964805, Note_on_c, 0, 84, 99
1, 965070, Note_off_c, 0, 84, 99
1, 965237, Note_on_c, 0, 83, 107
1, 965519, Note_off_c, 0, 83, 107
1, 965678, Note_on_c, 0, 85, 108
1, 966358, Note_off_c, 0, 85, 108
1, 966437, Note_on_c, 0, 83, 110
1, 966905, Note_off_c, 0, 83, 110
1, 967187, Note_on_c, 0, 79, 102
1, 967779, Note_off_c, 0, 79, 102
1, 967814, Note_on_c, 0, 80, 107
1, 968008, Note_off_c, 0, 80, 107
1, 968034, Note_on_c, 0, 81, 108
1, 968219, Note_off_c, 0, 81, 108
1, 968307, Note_on_c, 0, 83, 112
1, 968510, Note_off_c, 0, 83, 112
1, 968589, Note_on_c, 0, 85, 116
1, 969296, Note_off_c, 0, 85, 116
1, 969366, Note_on_c, 0, 86, 112
1, 969887, Note_off_c, 0, 86, 112
1, 969931, Note_on_c, 0, 85, 102
1, 970063, Note_off_c, 0, 85, 102
1, 970186, Note_on_c, 0, 83, 109
1, 970619, Note_off_c, 0, 83, 109
1, 970654, Note_on_c, 0, 84, 108
1, 971210, Note_off_c, 0, 84, 108
1, 971333, Note_on_c, 0, 83, 122
1, 972048, Note_off_c, 0, 83, 122
1, 972081, Note_on_c, 0, 85, 110
1, 972410, Note_off_c, 0, 85, 110
1, 972459, Note_on_c, 0, 86, 114
1, 972887, Note_off_c, 0, 86, 114
1, 972967, Note_on_c, 0, 82, 110
1, 973277, Note_off_c, 0, 82, 110
1, 973314, Note_on_c, 0, 85, 112
1, 973512, Note_off_c, 0, 85, 112
1, 973623, Note_on_c, 0, 84, 115
1, 973933, Note_off_c, 0, 84, 115
1, 973982, Note_on_c, 0, 85, 100
1, 974236, Note_off_c, 0, 85, 100
1, 974335, Note_on_c, 0, 84, 104
1, 975031, Note_off_c, 0, 84, 104
1, 975180, Note_on_c, 0, 85, 108
1, 976155, Note_off_c, 0, 85, 108
1, 976204, Note_on_c, 0, 82, 116
1, 976371, Note_off_c, 0, 82, 116
1, 976464, Note_on_c, 0, 81, 108
1, 976644, Note_off_c, 0, 81, 108
1, 976774, Note_on_c, 0, 85, 106
1, 977594, Note_off_c, 0, 85, 106
1, 977749, Note_on_c, 0, 84, 111
1, 978867, Note_off_c, 0, 84, 111
1, 978916, Note_on_c, 0, 83, 113
1, 979481, Note_off_c, 0, 83, 113
1, 979499, Note_on_c, 0, 84, 106
1, 979735, Note_off_c, 0, 84, 106
1, 979803, Note_on_c, 0, 85, 112
1, 980076, Note_off_c, 0, 85, 112
1, 980150, Note_on_c, 0, 86, 111
1, 980777, Note_off_c, 0, 86, 111
1, 980845, Note_on_c, 0, 85, 114
1, 981099, Note_off_c, 0, 85, 114
1, 981167, Note_on_c, 0, 83, 104
1, 981341, Note_off_c, 0, 83, 104
1, 981378, Note_on_c, 0, 84, 109
1, 982726, Note_off_c, 0, 84, 109
1, 982794, Note_on_c, 0, 85, 115
1, 983141, Note_off_c, 0, 85, 115
1, 983240, Note_on_c, 0, 86, 113
1, 983594, Note_off_c, 0, 86, 113
1, 983699, Note_on_c, 0, 87, 111
1, 984401, Note_off_c, 0, 87, 111
1, 984432, Note_on_c, 0, 86, 113
1, 984519, Note_off_c, 0, 86, 113
1, 984556, Note_on_c, 0, 85, 104
1, 984761, Note_off_c, 0, 85, 104
1, 984935, Note_on_c, 0, 84, 101
1, 985891, Note_off_c, 0, 84, 101
1, 985978, Note_on_c, 0, 85, 110
1, 986319, Note_off_c, 0, 85, 110
1, 986381, Note_on_c, 0, 86, 116
1, 986735, Note_off_c, 0, 86, 116
1, 986809, Note_on_c, 0, 87, 110
1, 986970, Note_off_c, 0, 87, 110
1, 987007, Note_on_c, 0, 88, 100
1, 987976, Note_off_c, 0, 88, 100
1, 988081, Note_on_c, 0, 86, 118
1, 988578, Note_off_c, 0, 86, 118
1, 988671, Note_on_c, 0, 87, 120
1, 989199, Note_off_c, 0, 87, 120
1, 989449, Note_on_c, 0, 89, 110
1, 990589, Note_off_c, 0, 89, 110
1, 990739, Note_on_c, 0, 90, 101
1, 991037, Note_off_c, 0, 90, 101
1, 991130, Note_on_c, 0, 93, 99
1, 991403, Note_off_c, 0, 93, 99
1, 991524, Note_on_c, 0, 89, 102
1, 994140, Note_off_c, 0, 89, 102
1, 994237, Note_on_c, 0, 92, 75
1, 1001457, Note_off_c, 0, 92, 75
1, 1001651, Note_on_c, 0, 91, 94
1, 1002720, Note_off_c, 0, 91, 94
1, 1002781, Note_on_c, 0, 89, 109
1, 1003850, Note_off_c, 0, 89, 109
1, 1004350, Note_on_c, 0, 83, 114
1, 1004971, Note_off_c, 0, 83, 114
1, 1005219, Note_on_c, 0, 81, 114
1, 1005641, Note_off_c, 0, 81, 114
1, 1005715, Note_on_c, 0, 81, 116
1, 1006547, Note_off_c, 0, 81, 116
1, 1006658, Note_on_c, 0, 82, 113
1, 1007279, Note_off_c, 0, 82, 113
1, 1007354, Note_on_c, 0, 81, 115
1, 1007566, Note_off_c, 0, 81, 115
1, 1007654, Note_on_c, 0, 82, 115
1, 1008042, Note_off_c, 0, 82, 115
1, 1008139, Note_on_c, 0, 81, 113
1, 1008306, Note_off_c, 0, 81, 113
1, 1008403, Note_on_c, 0, 82, 113
1, 1008641, Note_off_c, 0, 82, 113
1, 1008723, Note_on_c, 0, 80, 115
1, 1009164, Note_off_c, 0, 80, 115
1, 1009257, Note_on_c, 0, 79, 113
1, 1009723, Note_off_c, 0, 79, 113
1, 1009928, Note_on_c, 0, 78, 115
1, 1010238, Note_off_c, 0, 78, 115
1, 1010356, Note_on_c, 0, 77, 114
1, 1010822, Note_off_c, 0, 77, 114
1, 1010983, Note_on_c, 0, 76, 114
1, 1011430, Note_off_c, 0, 76, 114
1, 1011529, Note_on_c, 0, 75, 106
1, 1011970, Note_off_c, 0, 75, 106
1, 1012094, Note_on_c, 0, 74, 108
1, 1012522, Note_off_c, 0, 74, 108
1, 1012695, Note_on_c, 0, 73, 112
1, 1013248, Note_off_c, 0, 73, 112
1, 1013297, Note_on_c, 0, 72, 106
1, 1013663, Note_off_c, 0, 72, 106
1, 1013781, Note_on_c, 0, 71, 114
1, 1014334, Note_off_c, 0, 71, 114
1, 1014445, Note_on_c, 0, 70, 107
1, 1015060, Note_off_c, 0, 70, 107
1, 1015147, Note_on_c, 0, 69, 110
1, 1015594, Note_off_c, 0, 69, 110
1, 1015680, Note_on_c, 0, 68, 117
1, 1016307, Note_off_c, 0, 68, 117
1, 1016331, Note_on_c, 0, 67, 116
1, 1016896, Note_off_c, 0, 67, 116
1, 1016920, Note_on_c, 0, 66, 116
1, 1017479, Note_off_c, 0, 66, 116
1, 1017541, Note_on_c, 0, 65, 115
1, 1018156, Note_off_c, 0, 65, 115
1, 1018218, Note_on_c, 0, 64, 114
1, 1018808, Note_off_c, 0, 64, 114
1, 1018919, Note_on_c, 0, 63, 113
1, 1019409, Note_off_c, 0, 63, 113
1, 1019564, Note_on_c, 0, 67, 114
1, 1019905, Note_off_c, 0, 67, 114
1, 1020072, Note_on_c, 0, 62, 109
1, 1020401, Note_off_c, 0, 62, 109
1, 1020488, Note_on_c, 0, 67, 113
1, 1021090, Note_off_c, 0, 67, 113
1, 1021158, Note_on_c, 0, 62, 107
1, 1021537, Note_off_c, 0, 62, 107
1, 1021754, Note_on_c, 0, 67, 112
1, 1022381, Note_off_c, 0, 67, 112
1, 1022499, Note_on_c, 0, 62, 100
1, 1022927, Note_off_c, 0, 62, 100
1, 1022995, Note_on_c, 0, 67, 109
1, 1023635, Note_off_c, 0, 67, 109
1, 1023746, Note_on_c, 0, 62, 104
1, 1024243, Note_off_c, 0, 62, 104
1, 1024367, Note_on_c, 0, 67, 107
1, 1024901, Note_off_c, 0, 67, 107
1, 1024950, Note_on_c, 0, 62, 106
1, 1025515, Note_off_c, 0, 62, 106
1, 1025577, Note_on_c, 0, 67, 113
1, 1026074, Note_off_c, 0, 67, 113
1, 1026111, Note_on_c, 0, 62, 107
1, 1026688, Note_off_c, 0, 62, 107
1, 1026781, Note_on_c, 0, 67, 113
1, 1027203, Note_off_c, 0, 67, 113
1, 1027352, Note_on_c, 0, 62, 107
1, 1027973, Note_off_c, 0, 62, 107
1, 1028004, Note_on_c, 0, 67, 115
1, 1028675, Note_off_c, 0, 67, 115
1, 1028724, Note_on_c, 0, 66, 113
1, 1029848, Note_off_c, 0, 66, 113
1, 1029928, Note_on_c, 0, 67, 110
1, 1030648, Note_off_c, 0, 67, 110
1, 1030697, Note_on_c, 0, 69, 103
1, 1031511, Note_off_c, 0, 69, 103
1, 1067162, Note_on_c, 0, 63, 113
1, 1067516, Note_off_c, 0, 63, 113
1, 1067609, Note_on_c, 0, 64, 119
1, 1067994, Note_off_c, 0, 64, 119
1, 1068087, Note_on_c, 0, 67, 114
1, 1068646, Note_off_c, 0, 67, 114
1, 1068708, Note_on_c, 0, 66, 112
1, 1069248, Note_off_c, 0, 66, 112
1, 1074629, Note_on_c, 0, 66, 116
1, 1075337, Note_off_c, 0, 66, 116
1, 1075386, Note_on_c, 0, 67, 117
1, 1076032, Note_off_c, 0, 67, 117
1, 1076094, Note_on_c, 0, 69, 109
1, 1076802, Note_off_c, 0, 69, 109
1, 1077013, Note_on_c, 0, 74, 107
1, 1077646, Note_off_c, 0, 74, 107
1, 1077857, Note_on_c, 0, 72, 110
1, 1078726, Note_off_c, 0, 72, 110
1, 1079161, Note_on_c, 0, 69, 110
1, 1080354, Note_off_c, 0, 69, 110
1, 1080987, Note_on_c, 0, 69, 107
1, 1081956, Note_off_c, 0, 69, 107
1, 1085920, Note_on_c, 0, 69, 102
1, 1086454, Note_off_c, 0, 69, 102
1, 1086737, Note_on_c, 0, 69, 93
1, 1087276, Note_off_c, 0, 69, 93
1, 1087567, Note_on_c, 0, 69, 111
1, 1088053, Note_off_c, 0, 69, 111
1, 1088256, Note_on_c, 0, 69, 112
1, 1088777, Note_off_c, 0, 69, 112
1, 1089210, Note_on_c, 0, 69, 106
1, 1089837, Note_off_c, 0, 69, 106
1, 1090411, Note_on_c, 0, 69, 107
1, 1090994, Note_off_c, 0, 69, 107
1, 1091356, Note_on_c, 0, 69, 98
1, 1091806, Note_off_c, 0, 69, 98
1, 1092177, Note_on_c, 0, 69, 115
1, 1092645, Note_off_c, 0, 69, 115
1, 1093104, Note_on_c, 0, 69, 111
1, 1093572, Note_off_c, 0, 69, 111
1, 1094005, Note_on_c, 0, 81, 100
1, 1095083, Note_off_c, 0, 81, 100
1, 1095144, Note_on_c, 0, 80, 79
1, 1095453, Note_off_c, 0, 80, 79
1, 1106712, Note_on_c, 0, 69, 121
1, 1107012, Note_off_c, 0, 69, 121
1, 1107109, Note_on_c, 0, 68, 122
1, 1107321, Note_off_c, 0, 68, 122
1, 1107400, Note_on_c, 0, 67, 118
1, 1107956, Note_off_c, 0, 67, 118
1, 1108176, Note_on_c, 0, 66, 112
1, 1117227, Note_off_c, 0, 66, 112
1, 1117410, Note_on_c, 0, 64, 116
1, 1117763, Note_off_c, 0, 64, 116
1, 1118020, Note_on_c, 0, 66, 118
1, 1118486, Note_off_c, 0, 66, 118
1, 1118591, Note_on_c, 0, 67, 114
1, 1118970, Note_off_c, 0, 67, 114
1, 1119100, Note_on_c, 0, 69, 105
1, 1119348, Note_off_c, 0, 69, 105
1, 1119403, Note_on_c, 0, 67, 113
1, 1119800, Note_off_c, 0, 67, 113
1, 1119874, Note_on_c, 0, 66, 116
1, 1120675, Note_off_c, 0, 66, 116
1, 1120797, Note_on_c, 0, 67, 111
1, 1126753, Note_off_c, 0, 67, 111
1, 1126947, Note_on_c, 0, 66, 114
1, 1127671, Note_off_c, 0, 66, 114
1, 1127777, Note_on_c, 0, 67, 117
1, 1128095, Note_off_c, 0, 67, 117
1, 1128342, Note_on_c, 0, 69, 105
1, 1128695, Note_off_c, 0, 69, 105
1, 1128748, Note_on_c, 0, 71, 112
1, 1129030, Note_off_c, 0, 71, 112
1, 1129206, Note_on_c, 0, 69, 107
1, 1129700, Note_off_c, 0, 69, 107
1, 1129841, Note_on_c, 0, 67, 113
1, 1130335, Note_off_c, 0, 67, 113
1, 1130670, Note_on_c, 0, 69, 109
1, 1134982, Note_off_c, 0, 69, 109
1, 1134982, End_track
0, 0, End_of_file
