0, 0, Header, 1, 1, 192
1, 0, Start_track
1, 0, Note_on_c, 0, 67, 70
1, 176, Note_off_c, 0, 67, 70
1, 209, Note_on_c, 0, 67, 67
1, 581, Note_off_c, 0, 67, 67
1, 1220, Note_on_c, 0, 67, 95
1, 1325, Note_off_c, 0, 67, 95
1, 1329, Note_on_c, 0, 65, 97
1, 1410, Note_off_c, 0, 65, 97
1, 1412, Note_on_c, 0, 63, 94
1, 1445, Title_t, "Melody"
1, 1445, Tempo, 233463
1, 1445, Key_signature, -3, "major"
1, 1445, Time_signature, 4, 2, 24, 8
1, 1563, Note_off_c, 0, 63, 94
1, 1571, Note_on_c, 0, 61, 89
1, 1988, Note_off_c, 0, 61, 89
1, 2017, Note_on_c, 0, 63, 97
1, 2403, Note_off_c, 0, 63, 97
1, 2418, Note_on_c, 0, 66, 101
1, 2764, Note_off_c, 0, 66, 101
1, 2765, Note_on_c, 0, 68, 106
1, 3032, Note_off_c, 0, 68, 106
1, 3046, Note_on_c, 0, 70, 100
1, 3102, Note_off_c, 0, 70, 100
1, 3232, Note_on_c, 0, 72, 98
1, 3303, Note_off_c, 0, 72, 98
1, 3646, Note_on_c, 0, 70, 94
1, 3717, Note_off_c, 0, 70, 94
1, 4170, Note_on_c, 0, 60, 90
1, 4215, Note_off_c, 0, 60, 90
1, 4225, Note_on_c, 0, 63, 88
1, 4339, Note_off_c, 0, 63, 88
1, 4341, Note_on_c, 0, 65, 87
1, 4419, Note_off_c, 0, 65, 87
1, 4434, Note_on_c, 0, 70, 89
1, 4591, Note_off_c, 0, 70, 89
1, 4595, Note_on_c, 0, 68, 96
1, 4725, Note_off_c, 0, 68, 96
1, 4738, Note_on_c, 0, 67, 91
1, 4914, Note_off_c, 0, 67, 91
1, 6524, Note_on_c, 0, 60, 98
1, 6572, Note_off_c, 0, 60, 98
1, 6581, Note_on_c, 0, 63, 94
1, 6666, Note_off_c, 0, 63, 94
1, 6698, Note_on_c, 0, 65, 107
1, 6771, Note_off_c, 0, 65, 107
1, 6787, Note_on_c, 0, 67, 111
1, 6884, Note_off_c, 0, 67, 111
1, 6894, Note_on_c, 0, 70, 108
1, 6981, Note_off_c, 0, 70, 108
1, 6994, Note_on_c, 0, 72, 99
1, 7081, Note_off_c, 0, 72, 99
1, 7087, Note_on_c, 0, 75, 109
1, 7154, Note_off_c, 0, 75, 109
1, 7163, Note_on_c, 0, 79, 119
1, 7293, Note_off_c, 0, 79, 119
1, 7298, Note_on_c, 0, 75, 112
1, 7344, Note_off_c, 0, 75, 112
1, 7348, Note_on_c, 0, 77, 120
1, 7478, Note_off_c, 0, 77, 120
1, 7484, Note_on_c, 0, 72, 97
1, 7530, Note_off_c, 0, 72, 97
1, 7536, Note_on_c, 0, 75, 116
1, 7656, Note_off_c, 0, 75, 116
1, 7666, Note_on_c, 0, 70, 104
1, 7736, Note_off_c, 0, 70, 104
1, 7736, Note_on_c, 0, 67, 103
1, 7767, Note_off_c, 0, 67, 103
1, 7771, Note_on_c, 0, 68, 105
1, 7889, Note_off_c, 0, 68, 105
1, 7889, Note_on_c, 0, 65, 105
1, 7972, Note_off_c, 0, 65, 105
1, 7975, Note_on_c, 0, 63, 101
1, 8060, Note_off_c, 0, 63, 101
1, 8063, Note_on_c, 0, 65, 102
1, 8164, Note_off_c, 0, 65, 102
1, 8166, Note_on_c, 0, 67, 99
1, 8261, Note_off_c, 0, 67, 99
1, 8277, Note_on_c, 0, 63, 94
1, 8310, Note_off_c, 0, 63, 94
1, 8313, Note_on_c, 0, 65, 91
1, 8573, Note_off_c, 0, 65, 91
1, 9569, Note_on_c, 0, 61, 94
1, 9622, Note_off_c, 0, 61, 94
1, 9632, Note_on_c, 0, 63, 97
1, 9734, Note_off_c, 0, 63, 97
1, 9740, Note_on_c, 0, 64, 97
1, 9813, Note_off_c, 0, 64, 97
1, 9821, Note_on_c, 0, 66, 105
1, 9914, Note_off_c, 0, 66, 105
1, 9930, Note_on_c, 0, 68, 105
1, 10013, Note_off_c, 0, 68, 105
1, 10028, Note_on_c, 0, 69, 107
1, 10115, Note_off_c, 0, 69, 107
1, 10121, Note_on_c, 0, 71, 98
1, 10194, Note_off_c, 0, 71, 98
1, 10204, Note_on_c, 0, 73, 108
1, 10277, Note_off_c, 0, 73, 108
1, 10283, Note_on_c, 0, 75, 112
1, 10382, Note_off_c, 0, 75, 112
1, 10385, Note_on_c, 0, 78, 119
1, 10510, Note_off_c, 0, 78, 119
1, 10521, Note_on_c, 0, 77, 116
1, 10581, Note_off_c, 0, 77, 116
1, 10584, Note_on_c, 0, 76, 117
1, 10659, Note_off_c, 0, 76, 117
1, 10666, Note_on_c, 0, 77, 112
1, 10692, Note_off_c, 0, 77, 112
1, 10694, Note_on_c, 0, 75, 117
1, 10791, Note_off_c, 0, 75, 117
1, 10792, Note_on_c, 0, 71, 98
1, 10870, Note_off_c, 0, 71, 98
1, 10874, Note_on_c, 0, 70, 102
1, 10995, Note_off_c, 0, 70, 102
1, 11004, Note_on_c, 0, 68, 104
1, 11075, Note_off_c, 0, 68, 104
1, 11079, Note_on_c, 0, 67, 105
1, 11186, Note_off_c, 0, 67, 105
1, 11186, Note_on_c, 0, 63, 104
1, 11288, Note_off_c, 0, 63, 104
1, 11418, Note_on_c, 0, 69, 96
1, 11459, Note_off_c, 0, 69, 96
1, 11503, Note_on_c, 0, 62, 102
1, 11624, Note_off_c, 0, 62, 102
1, 11865, Note_on_c, 0, 60, 92
1, 11975, Note_off_c, 0, 60, 92
1, 11979, Note_on_c, 0, 62, 98
1, 12045, Note_off_c, 0, 62, 98
1, 12052, Note_on_c, 0, 64, 99
1, 12174, Note_off_c, 0, 64, 99
1, 12175, Note_on_c, 0, 60, 86
1, 12243, Note_off_c, 0, 60, 86
1, 12538, Note_on_c, 0, 58, 89
1, 12607, Note_off_c, 0, 58, 89
1, 12610, Note_on_c, 0, 56, 95
1, 12729, Note_off_c, 0, 56, 95
1, 12749, Note_on_c, 0, 58, 83
1, 12833, Note_off_c, 0, 58, 83
1, 12846, Note_on_c, 0, 60, 80
1, 12903, Note_off_c, 0, 60, 80
1, 12908, Note_on_c, 0, 63, 85
1, 12972, Note_off_c, 0, 63, 85
1, 12975, Note_on_c, 0, 67, 92
1, 13029, Note_off_c, 0, 67, 92
1, 13029, Note_on_c, 0, 70, 105
1, 13132, Note_off_c, 0, 70, 105
1, 13136, Note_on_c, 0, 63, 99
1, 13200, Note_off_c, 0, 63, 99
1, 13200, Note_on_c, 0, 65, 103
1, 13305, Note_off_c, 0, 65, 103
1, 13308, Note_on_c, 0, 67, 108
1, 13398, Note_off_c, 0, 67, 108
1, 13400, Note_on_c, 0, 68, 107
1, 13479, Note_off_c, 0, 68, 107
1, 13490, Note_on_c, 0, 70, 104
1, 13563, Note_off_c, 0, 70, 104
1, 13572, Note_on_c, 0, 71, 97
1, 13673, Note_off_c, 0, 71, 97
1, 13682, Note_on_c, 0, 73, 106
1, 13763, Note_off_c, 0, 73, 106
1, 13784, Note_on_c, 0, 70, 102
1, 13880, Note_off_c, 0, 70, 102
1, 13887, Note_on_c, 0, 68, 106
1, 13952, Note_off_c, 0, 68, 106
1, 13960, Note_on_c, 0, 67, 104
1, 14041, Note_off_c, 0, 67, 104
1, 14045, Note_on_c, 0, 65, 105
1, 14148, Note_off_c, 0, 65, 105
1, 14150, Note_on_c, 0, 63, 102
1, 14240, Note_off_c, 0, 63, 102
1, 14526, Note_on_c, 0, 73, 105
1, 14633, Note_off_c, 0, 73, 105
1, 14642, Note_on_c, 0, 77, 110
1, 14708, Note_off_c, 0, 77, 110
1, 14713, Note_on_c, 0, 74, 111
1, 14798, Note_off_c, 0, 74, 111
1, 14802, Note_on_c, 0, 75, 108
1, 15076, Note_off_c, 0, 75, 108
1, 15206, Note_on_c, 0, 72, 94
1, 15257, Note_off_c, 0, 72, 94
1, 15261, Note_on_c, 0, 64, 108
1, 15294, Note_off_c, 0, 64, 108
1, 15301, Note_on_c, 0, 67, 102
1, 15357, Note_off_c, 0, 67, 102
1, 15377, Note_on_c, 0, 64, 101
1, 15448, Note_off_c, 0, 64, 101
1, 15463, Note_on_c, 0, 62, 95
1, 15544, Note_off_c, 0, 62, 95
1, 15552, Note_on_c, 0, 63, 98
1, 15652, Note_off_c, 0, 63, 98
1, 15656, Note_on_c, 0, 66, 98
1, 15769, Note_off_c, 0, 66, 98
1, 16084, Note_on_c, 0, 73, 103
1, 16193, Note_off_c, 0, 73, 103
1, 16204, Note_on_c, 0, 69, 99
1, 16280, Note_off_c, 0, 69, 99
1, 16284, Note_on_c, 0, 65, 102
1, 16377, Note_off_c, 0, 65, 102
1, 16403, Note_on_c, 0, 61, 93
1, 16438, Note_off_c, 0, 61, 93
1, 16478, Note_on_c, 0, 64, 99
1, 16566, Note_off_c, 0, 64, 99
1, 16567, Note_on_c, 0, 66, 101
1, 16648, Note_off_c, 0, 66, 101
1, 16649, Note_on_c, 0, 68, 101
1, 16733, Note_off_c, 0, 68, 101
1, 16750, Note_on_c, 0, 71, 93
1, 16813, Note_off_c, 0, 71, 93
1, 16818, Note_on_c, 0, 76, 111
1, 16919, Note_off_c, 0, 76, 111
1, 16936, Note_on_c, 0, 73, 101
1, 17006, Note_off_c, 0, 73, 101
1, 17013, Note_on_c, 0, 71, 94
1, 17119, Note_off_c, 0, 71, 94
1, 17123, Note_on_c, 0, 69, 100
1, 17199, Note_off_c, 0, 69, 100
1, 17203, Note_on_c, 0, 70, 100
1, 17312, Note_off_c, 0, 70, 100
1, 17320, Note_on_c, 0, 67, 98
1, 17397, Note_off_c, 0, 67, 98
1, 17405, Note_on_c, 0, 62, 95
1, 17520, Note_off_c, 0, 62, 95
1, 17708, Note_on_c, 0, 65, 90
1, 17953, Note_off_c, 0, 65, 90
1, 17957, Note_on_c, 0, 62, 91
1, 18002, Note_off_c, 0, 62, 91
1, 18011, Note_on_c, 0, 63, 92
1, 18143, Note_off_c, 0, 63, 92
1, 18153, Note_on_c, 0, 61, 88
1, 18246, Note_off_c, 0, 61, 88
1, 19142, Note_on_c, 0, 69, 108
1, 19174, Note_off_c, 0, 69, 108
1, 19177, Note_on_c, 0, 71, 107
1, 19253, Note_off_c, 0, 71, 107
1, 19898, Note_on_c, 0, 71, 106
1, 20012, Note_off_c, 0, 71, 106
1, 20015, Note_on_c, 0, 70, 103
1, 20093, Note_off_c, 0, 70, 103
1, 20101, Note_on_c, 0, 68, 102
1, 20206, Note_off_c, 0, 68, 102
1, 20211, Note_on_c, 0, 67, 107
1, 20307, Note_off_c, 0, 67, 107
1, 20311, Note_on_c, 0, 66, 101
1, 20387, Note_off_c, 0, 66, 101
1, 20389, Note_on_c, 0, 69, 103
1, 20470, Note_off_c, 0, 69, 103
1, 20491, Note_on_c, 0, 73, 104
1, 20584, Note_off_c, 0, 73, 104
1, 20585, Note_on_c, 0, 76, 104
1, 20670, Note_off_c, 0, 76, 104
1, 20671, Note_on_c, 0, 78, 114
1, 20765, Note_off_c, 0, 78, 114
1, 20825, Note_on_c, 0, 67, 102
1, 20982, Note_off_c, 0, 67, 102
1, 20986, Note_on_c, 0, 70, 97
1, 21175, Note_off_c, 0, 70, 97
1, 21179, Note_on_c, 0, 74, 119
1, 21341, Note_off_c, 0, 74, 119
1, 21344, Note_on_c, 0, 77, 108
1, 21546, Note_off_c, 0, 77, 108
1, 21549, Note_on_c, 0, 75, 114
1, 21674, Note_off_c, 0, 75, 114
1, 21722, Note_on_c, 0, 69, 85
1, 21945, Note_off_c, 0, 69, 85
1, 22980, Note_on_c, 0, 81, 123
1, 23090, Note_off_c, 0, 81, 123
1, 23090, Note_on_c, 0, 79, 122
1, 23193, Note_off_c, 0, 79, 122
1, 23194, Note_on_c, 0, 77, 124
1, 23271, Note_off_c, 0, 77, 124
1, 23275, Note_on_c, 0, 76, 124
1, 23372, Note_off_c, 0, 76, 124
1, 23375, Note_on_c, 0, 75, 118
1, 23465, Note_off_c, 0, 75, 118
1, 23466, Note_on_c, 0, 77, 121
1, 23553, Note_off_c, 0, 77, 121
1, 23553, Note_on_c, 0, 78, 124
1, 23683, Note_off_c, 0, 78, 124
1, 23685, Note_on_c, 0, 73, 109
1, 23745, Note_on_c, 0, 75, 116
1, 23745, Note_off_c, 0, 73, 109
1, 23846, Note_off_c, 0, 75, 116
1, 23851, Note_on_c, 0, 70, 102
1, 23922, Note_off_c, 0, 70, 102
1, 23923, Note_on_c, 0, 66, 108
1, 24039, Note_off_c, 0, 66, 108
1, 24042, Note_on_c, 0, 63, 105
1, 24112, Note_off_c, 0, 63, 105
1, 24117, Note_on_c, 0, 64, 101
1, 24233, Note_off_c, 0, 64, 101
1, 24236, Note_on_c, 0, 67, 103
1, 24309, Note_off_c, 0, 67, 103
1, 24312, Note_on_c, 0, 69, 99
1, 24380, Note_off_c, 0, 69, 99
1, 24402, Note_on_c, 0, 74, 110
1, 24492, Note_off_c, 0, 74, 110
1, 24492, Note_on_c, 0, 72, 102
1, 24564, Note_off_c, 0, 72, 102
1, 24574, Note_on_c, 0, 74, 115
1, 24667, Note_off_c, 0, 74, 115
1, 24672, Note_on_c, 0, 76, 117
1, 24779, Note_off_c, 0, 76, 117
1, 24781, Note_on_c, 0, 79, 114
1, 24880, Note_off_c, 0, 79, 114
1, 24883, Note_on_c, 0, 75, 117
1, 24986, Note_off_c, 0, 75, 117
1, 24989, Note_on_c, 0, 72, 103
1, 25058, Note_off_c, 0, 72, 103
1, 25063, Note_on_c, 0, 67, 103
1, 25177, Note_off_c, 0, 67, 103
1, 25179, Note_on_c, 0, 65, 100
1, 25237, Note_off_c, 0, 65, 100
1, 25241, Note_on_c, 0, 70, 102
1, 25351, Note_off_c, 0, 70, 102
1, 25354, Note_on_c, 0, 67, 104
1, 25435, Note_off_c, 0, 67, 104
1, 25438, Note_on_c, 0, 68, 99
1, 25521, Note_off_c, 0, 68, 99
1, 25542, Note_on_c, 0, 77, 119
1, 25593, Note_off_c, 0, 77, 119
1, 25602, Note_on_c, 0, 78, 107
1, 25847, Note_off_c, 0, 78, 107
1, 25847, Note_on_c, 0, 74, 113
1, 25960, Note_off_c, 0, 74, 113
1, 25963, Note_on_c, 0, 71, 92
1, 26050, Note_off_c, 0, 71, 92
1, 26064, Note_on_c, 0, 70, 97
1, 26151, Note_off_c, 0, 70, 97
1, 26155, Note_on_c, 0, 68, 102
1, 26230, Note_off_c, 0, 68, 102
1, 26234, Note_on_c, 0, 67, 102
1, 26311, Note_off_c, 0, 67, 102
1, 26312, Note_on_c, 0, 65, 103
1, 26411, Note_off_c, 0, 65, 103
1, 26411, Note_on_c, 0, 63, 101
1, 26505, Note_off_c, 0, 63, 101
1, 26510, Note_on_c, 0, 65, 102
1, 26603, Note_off_c, 0, 65, 102
1, 26610, Note_on_c, 0, 67, 100
1, 26710, Note_off_c, 0, 67, 100
1, 26831, Note_on_c, 0, 66, 100
1, 26916, Note_off_c, 0, 66, 100
1, 26925, Note_on_c, 0, 67, 100
1, 27012, Note_off_c, 0, 67, 100
1, 27012, Note_on_c, 0, 69, 100
1, 27095, Note_off_c, 0, 69, 100
1, 27202, Note_on_c, 0, 67, 100
1, 27311, Note_off_c, 0, 67, 100
1, 27313, Note_on_c, 0, 69, 98
1, 27377, Note_off_c, 0, 69, 98
1, 27377, Note_on_c, 0, 70, 99
1, 27456, Note_off_c, 0, 70, 99
1, 27589, Note_on_c, 0, 64, 97
1, 27684, Note_off_c, 0, 64, 97
1, 27697, Note_on_c, 0, 65, 101
1, 27824, Note_off_c, 0, 65, 101
1, 27895, Note_on_c, 0, 72, 100
1, 28020, Note_off_c, 0, 72, 100
1, 28099, Note_on_c, 0, 67, 88
1, 28299, Note_off_c, 0, 67, 88
1, 28309, Note_on_c, 0, 65, 91
1, 28480, Note_off_c, 0, 65, 91
1, 28491, Note_on_c, 0, 67, 96
1, 28667, Note_off_c, 0, 67, 96
1, 28691, Note_on_c, 0, 71, 79
1, 28844, Note_off_c, 0, 71, 79
1, 29866, Note_on_c, 0, 81, 125
1, 29981, Note_off_c, 0, 81, 125
1, 29983, Note_on_c, 0, 78, 126
1, 30061, Note_off_c, 0, 78, 126
1, 30063, Note_on_c, 0, 77, 126
1, 30153, Note_off_c, 0, 77, 126
1, 30158, Note_on_c, 0, 76, 121
1, 30249, Note_off_c, 0, 76, 121
1, 30259, Note_on_c, 0, 75, 118
1, 30353, Note_off_c, 0, 75, 118
1, 30355, Note_on_c, 0, 77, 121
1, 30439, Note_off_c, 0, 77, 121
1, 30439, Note_on_c, 0, 79, 121
1, 30565, Note_off_c, 0, 79, 121
1, 30568, Note_on_c, 0, 75, 120
1, 30625, Note_on_c, 0, 77, 121
1, 30625, Note_off_c, 0, 75, 120
1, 30733, Note_off_c, 0, 77, 121
1, 30736, Note_on_c, 0, 75, 118
1, 30821, Note_off_c, 0, 75, 118
1, 30824, Note_on_c, 0, 71, 103
1, 30933, Note_off_c, 0, 71, 103
1, 30938, Note_on_c, 0, 69, 106
1, 31004, Note_off_c, 0, 69, 106
1, 31012, Note_on_c, 0, 70, 107
1, 31108, Note_off_c, 0, 70, 107
1, 31139, Note_on_c, 0, 65, 105
1, 31270, Note_off_c, 0, 65, 105
1, 31284, Note_on_c, 0, 70, 91
1, 31315, Note_off_c, 0, 70, 91
1, 31319, Note_on_c, 0, 73, 85
1, 31352, Note_off_c, 0, 73, 85
1, 31353, Note_on_c, 0, 76, 92
1, 31397, Note_off_c, 0, 76, 92
1, 31410, Note_on_c, 0, 80, 120
1, 31524, Note_off_c, 0, 80, 120
1, 31528, Note_on_c, 0, 78, 118
1, 31599, Note_off_c, 0, 78, 118
1, 31602, Note_on_c, 0, 77, 120
1, 31712, Note_off_c, 0, 77, 120
1, 31716, Note_on_c, 0, 75, 116
1, 31786, Note_off_c, 0, 75, 116
1, 31791, Note_on_c, 0, 76, 116
1, 31899, Note_off_c, 0, 76, 116
1, 31903, Note_on_c, 0, 79, 111
1, 31987, Note_off_c, 0, 79, 111
1, 31989, Note_on_c, 0, 75, 114
1, 32097, Note_off_c, 0, 75, 114
1, 32108, Note_on_c, 0, 76, 114
1, 32202, Note_off_c, 0, 76, 114
1, 32213, Note_on_c, 0, 72, 98
1, 32302, Note_off_c, 0, 72, 98
1, 32309, Note_on_c, 0, 71, 98
1, 32355, Note_off_c, 0, 71, 98
1, 32376, Note_on_c, 0, 67, 101
1, 32496, Note_off_c, 0, 67, 101
1, 32538, Note_on_c, 0, 62, 100
1, 32573, Note_off_c, 0, 62, 100
1, 32577, Note_on_c, 0, 63, 103
1, 32660, Note_off_c, 0, 63, 103
1, 32667, Note_on_c, 0, 65, 104
1, 32805, Note_off_c, 0, 65, 104
1, 32814, Note_on_c, 0, 67, 97
1, 32895, Note_off_c, 0, 67, 97
1, 32899, Note_on_c, 0, 70, 100
1, 32945, Note_off_c, 0, 70, 100
1, 32946, Note_on_c, 0, 73, 109
1, 33071, Note_off_c, 0, 73, 109
1, 33076, Note_on_c, 0, 78, 115
1, 33152, Note_off_c, 0, 78, 115
1, 33153, Note_on_c, 0, 75, 112
1, 33284, Note_off_c, 0, 75, 112
1, 33288, Note_on_c, 0, 73, 106
1, 33383, Note_off_c, 0, 73, 106
1, 33383, Note_on_c, 0, 74, 104
1, 33664, Note_off_c, 0, 74, 104
1, 33683, Note_on_c, 0, 69, 97
1, 33784, Note_off_c, 0, 69, 97
1, 33788, Note_on_c, 0, 62, 104
1, 33909, Note_off_c, 0, 62, 104
1, 33917, Note_on_c, 0, 60, 93
1, 34027, Note_off_c, 0, 60, 93
1, 34036, Note_on_c, 0, 58, 88
1, 34298, Note_off_c, 0, 58, 88
1, 34306, Note_on_c, 0, 58, 92
1, 34375, Note_off_c, 0, 58, 92
1, 34378, Note_on_c, 0, 60, 94
1, 34478, Note_off_c, 0, 60, 94
1, 34486, Note_on_c, 0, 62, 101
1, 34659, Note_off_c, 0, 62, 101
1, 34676, Note_on_c, 0, 63, 104
1, 34804, Note_off_c, 0, 63, 104
1, 34808, Note_on_c, 0, 65, 108
1, 35015, Note_off_c, 0, 65, 108
1, 35018, Note_on_c, 0, 66, 106
1, 35194, Note_off_c, 0, 66, 106
1, 35195, Note_on_c, 0, 68, 104
1, 35385, Note_off_c, 0, 68, 104
1, 35390, Note_on_c, 0, 70, 103
1, 35491, Note_off_c, 0, 70, 103
1, 35551, Note_on_c, 0, 72, 98
1, 35623, Note_off_c, 0, 72, 98
1, 35627, Note_on_c, 0, 74, 108
1, 35794, Note_off_c, 0, 74, 108
1, 35798, Note_on_c, 0, 70, 92
1, 36079, Note_off_c, 0, 70, 92
1, 37647, Note_on_c, 0, 72, 109
1, 37724, Note_off_c, 0, 72, 109
1, 37725, Note_on_c, 0, 75, 113
1, 37827, Note_off_c, 0, 75, 113
1, 37832, Note_on_c, 0, 77, 117
1, 37927, Note_off_c, 0, 77, 117
1, 37929, Note_on_c, 0, 79, 121
1, 38061, Note_off_c, 0, 79, 121
1, 38064, Note_on_c, 0, 75, 111
1, 38109, Note_off_c, 0, 75, 111
1, 38110, Note_on_c, 0, 77, 127
1, 38223, Note_off_c, 0, 77, 127
1, 38233, Note_on_c, 0, 78, 122
1, 38306, Note_off_c, 0, 78, 122
1, 38311, Note_on_c, 0, 74, 119
1, 38420, Note_off_c, 0, 74, 119
1, 38427, Note_on_c, 0, 71, 105
1, 38510, Note_off_c, 0, 71, 105
1, 38514, Note_on_c, 0, 70, 107
1, 38628, Note_off_c, 0, 70, 107
1, 38632, Note_on_c, 0, 68, 110
1, 38711, Note_off_c, 0, 68, 110
1, 38714, Note_on_c, 0, 67, 109
1, 38833, Note_off_c, 0, 67, 109
1, 38833, Note_on_c, 0, 70, 103
1, 38910, Note_off_c, 0, 70, 103
1, 38911, Note_on_c, 0, 74, 114
1, 38998, Note_off_c, 0, 74, 114
1, 38999, Note_on_c, 0, 77, 120
1, 39096, Note_off_c, 0, 77, 120
1, 39097, Note_on_c, 0, 75, 113
1, 39186, Note_on_c, 0, 77, 120
1, 39186, Note_off_c, 0, 75, 113
1, 39291, Note_off_c, 0, 77, 120
1, 39298, Note_on_c, 0, 79, 103
1, 39447, Note_off_c, 0, 79, 103
1, 39562, Note_on_c, 0, 84, 96
1, 39602, Note_off_c, 0, 84, 96
1, 39603, Note_on_c, 0, 86, 81
1, 39631, Note_off_c, 0, 86, 81
1, 39635, Note_on_c, 0, 88, 78
1, 39661, Note_off_c, 0, 88, 78
1, 39712, Note_on_c, 0, 84, 92
1, 39791, Note_off_c, 0, 84, 92
1, 39799, Note_on_c, 0, 83, 98
1, 40142, Note_off_c, 0, 83, 98
1, 40174, Note_on_c, 0, 73, 106
1, 40231, Note_off_c, 0, 73, 106
1, 40235, Note_on_c, 0, 72, 97
1, 40325, Note_off_c, 0, 72, 97
1, 40731, Note_on_c, 0, 79, 89
1, 40881, Note_off_c, 0, 79, 89
1, 40883, Note_on_c, 0, 82, 103
1, 40979, Note_off_c, 0, 82, 103
1, 40980, Note_on_c, 0, 85, 112
1, 41122, Note_off_c, 0, 85, 112
1, 41126, Note_on_c, 0, 84, 112
1, 41210, Note_off_c, 0, 84, 112
1, 41214, Note_on_c, 0, 83, 109
1, 41272, Note_off_c, 0, 83, 109
1, 41275, Note_on_c, 0, 82, 112
1, 41640, Note_off_c, 0, 82, 112
1, 41687, Note_on_c, 0, 79, 114
1, 41868, Note_off_c, 0, 79, 114
1, 41873, Note_on_c, 0, 78, 110
1, 41927, Note_off_c, 0, 78, 110
1, 41929, Note_on_c, 0, 79, 119
1, 42034, Note_off_c, 0, 79, 119
1, 42039, Note_on_c, 0, 82, 114
1, 42123, Note_off_c, 0, 82, 114
1, 42132, Note_on_c, 0, 81, 115
1, 42233, Note_off_c, 0, 81, 115
1, 42234, Note_on_c, 0, 78, 110
1, 42310, Note_on_c, 0, 73, 113
1, 42310, Note_off_c, 0, 78, 110
1, 42449, Note_off_c, 0, 73, 113
1, 42452, Note_on_c, 0, 71, 98
1, 42481, Note_off_c, 0, 71, 98
1, 42483, Note_on_c, 0, 75, 113
1, 42616, Note_off_c, 0, 75, 113
1, 42616, Note_on_c, 0, 77, 116
1, 42670, Note_off_c, 0, 77, 116
1, 42673, Note_on_c, 0, 78, 114
1, 42800, Note_off_c, 0, 78, 114
1, 42802, Note_on_c, 0, 73, 97
1, 42874, Note_off_c, 0, 73, 97
1, 42879, Note_on_c, 0, 75, 113
1, 43013, Note_off_c, 0, 75, 113
1, 43014, Note_on_c, 0, 76, 117
1, 43097, Note_off_c, 0, 76, 117
1, 43114, Note_on_c, 0, 73, 106
1, 43203, Note_off_c, 0, 73, 106
1, 43212, Note_on_c, 0, 72, 99
1, 43277, Note_off_c, 0, 72, 99
1, 43281, Note_on_c, 0, 70, 102
1, 43380, Note_off_c, 0, 70, 102
1, 43382, Note_on_c, 0, 68, 102
1, 43460, Note_off_c, 0, 68, 102
1, 43634, Note_on_c, 0, 60, 93
1, 43791, Note_off_c, 0, 60, 93
1, 43796, Note_on_c, 0, 67, 100
1, 43964, Note_off_c, 0, 67, 100
1, 43969, Note_on_c, 0, 65, 103
1, 44167, Note_off_c, 0, 65, 103
1, 44171, Note_on_c, 0, 74, 108
1, 44373, Note_off_c, 0, 74, 108
1, 44376, Note_on_c, 0, 71, 90
1, 44566, Note_off_c, 0, 71, 90
1, 44577, Note_on_c, 0, 70, 102
1, 44748, Note_off_c, 0, 70, 102
1, 44750, Note_on_c, 0, 68, 103
1, 44957, Note_off_c, 0, 68, 103
1, 44962, Note_on_c, 0, 63, 100
1, 45161, Note_off_c, 0, 63, 100
1, 45162, Note_on_c, 0, 65, 93
1, 45473, Note_off_c, 0, 65, 93
1, 47536, Note_on_c, 0, 70, 113
1, 47636, Note_off_c, 0, 70, 113
1, 47693, Note_on_c, 0, 68, 114
1, 47792, Note_off_c, 0, 68, 114
1, 47795, Note_on_c, 0, 67, 112
1, 47874, Note_off_c, 0, 67, 112
1, 47876, Note_on_c, 0, 65, 110
1, 47990, Note_off_c, 0, 65, 110
1, 47993, Note_on_c, 0, 63, 107
1, 48133, Note_off_c, 0, 63, 107
1, 48140, Note_on_c, 0, 62, 9
1, 48297, Note_off_c, 0, 62, 9
1, 48305, Note_on_c, 0, 59, 103
1, 48504, Note_off_c, 0, 59, 103
1, 48508, Note_on_c, 0, 58, 93
1, 48658, Note_off_c, 0, 58, 93
1, 49654, Note_on_c, 0, 60, 98
1, 49723, Note_off_c, 0, 60, 98
1, 49733, Note_on_c, 0, 67, 106
1, 49783, Note_off_c, 0, 67, 106
1, 49784, Note_on_c, 0, 64, 108
1, 49811, Note_off_c, 0, 64, 108
1, 49818, Note_on_c, 0, 65, 104
1, 49853, Note_off_c, 0, 65, 104
1, 49857, Note_on_c, 0, 67, 109
1, 49902, Note_off_c, 0, 67, 109
1, 49907, Note_on_c, 0, 71, 103
1, 49949, Note_off_c, 0, 71, 103
1, 49951, Note_on_c, 0, 72, 108
1, 50014, Note_off_c, 0, 72, 108
1, 50022, Note_on_c, 0, 76, 107
1, 50060, Note_off_c, 0, 76, 107
1, 50062, Note_on_c, 0, 79, 114
1, 50120, Note_off_c, 0, 79, 114
1, 50120, Note_on_c, 0, 76, 121
1, 50166, Note_off_c, 0, 76, 121
1, 50171, Note_on_c, 0, 77, 118
1, 50248, Note_off_c, 0, 77, 118
1, 50250, Note_on_c, 0, 78, 115
1, 50290, Note_off_c, 0, 78, 115
1, 50291, Note_on_c, 0, 74, 115
1, 50354, Note_off_c, 0, 74, 115
1, 50358, Note_on_c, 0, 71, 93
1, 50414, Note_off_c, 0, 71, 93
1, 50417, Note_on_c, 0, 69, 101
1, 50468, Note_off_c, 0, 69, 101
1, 50472, Note_on_c, 0, 70, 99
1, 50535, Note_off_c, 0, 70, 99
1, 50540, Note_on_c, 0, 68, 83
1, 50625, Note_off_c, 0, 68, 83
1, 51049, Note_on_c, 0, 61, 108
1, 51183, Note_off_c, 0, 61, 108
1, 51188, Note_on_c, 0, 63, 106
1, 51244, Note_off_c, 0, 63, 106
1, 51248, Note_on_c, 0, 65, 108
1, 51372, Note_off_c, 0, 65, 108
1, 51374, Note_on_c, 0, 67, 95
1, 51642, Note_off_c, 0, 67, 95
1, 51835, Note_on_c, 0, 59, 97
1, 51993, Note_off_c, 0, 59, 97
1, 51994, Note_on_c, 0, 60, 95
1, 52053, Note_off_c, 0, 60, 95
1, 52057, Note_on_c, 0, 61, 99
1, 52166, Note_off_c, 0, 61, 99
1, 52171, Note_on_c, 0, 63, 96
1, 52378, Note_off_c, 0, 63, 96
1, 52866, Note_on_c, 0, 64, 86
1, 52959, Note_off_c, 0, 64, 86
1, 52963, Note_on_c, 0, 65, 107
1, 53039, Note_off_c, 0, 65, 107
1, 53044, Note_on_c, 0, 63, 103
1, 53133, Note_off_c, 0, 63, 103
1, 53133, Note_on_c, 0, 65, 108
1, 53202, Note_off_c, 0, 65, 108
1, 53231, Note_on_c, 0, 68, 104
1, 53321, Note_off_c, 0, 68, 104
1, 53328, Note_on_c, 0, 71, 90
1, 53387, Note_off_c, 0, 71, 90
1, 53387, Note_on_c, 0, 75, 118
1, 53501, Note_off_c, 0, 75, 118
1, 53502, Note_on_c, 0, 73, 99
1, 53530, Note_off_c, 0, 73, 99
1, 53533, Note_on_c, 0, 75, 107
1, 53702, Note_off_c, 0, 75, 107
1, 53707, Note_on_c, 0, 73, 103
1, 53766, Note_off_c, 0, 73, 103
1, 53771, Note_on_c, 0, 74, 112
1, 53895, Note_off_c, 0, 74, 112
1, 53898, Note_on_c, 0, 71, 96
1, 53950, Note_off_c, 0, 71, 96
1, 53958, Note_on_c, 0, 70, 101
1, 54088, Note_off_c, 0, 70, 101
1, 54095, Note_on_c, 0, 68, 103
1, 54177, Note_off_c, 0, 68, 103
1, 54182, Note_on_c, 0, 67, 105
1, 54283, Note_off_c, 0, 67, 105
1, 54286, Note_on_c, 0, 75, 109
1, 54388, Note_off_c, 0, 75, 109
1, 54503, Note_on_c, 0, 74, 102
1, 54613, Note_off_c, 0, 74, 102
1, 54959, Note_on_c, 0, 64, 109
1, 55046, Note_off_c, 0, 64, 109
1, 55049, Note_on_c, 0, 65, 107
1, 55115, Note_off_c, 0, 65, 107
1, 55118, Note_on_c, 0, 63, 100
1, 55231, Note_off_c, 0, 63, 100
1, 55244, Note_on_c, 0, 64, 101
1, 55349, Note_off_c, 0, 64, 101
1, 55452, Note_on_c, 0, 72, 103
1, 55502, Note_off_c, 0, 72, 103
1, 55632, Note_on_c, 0, 67, 93
1, 55937, Note_off_c, 0, 67, 93
1, 56576, Note_on_c, 0, 74, 117
1, 56661, Note_off_c, 0, 74, 117
1, 56661, Note_on_c, 0, 77, 124
1, 56768, Note_off_c, 0, 77, 124
1, 56769, Note_on_c, 0, 78, 120
1, 56853, Note_off_c, 0, 78, 120
1, 56853, Note_on_c, 0, 74, 116
1, 56968, Note_off_c, 0, 74, 116
1, 56973, Note_on_c, 0, 71, 108
1, 57054, Note_off_c, 0, 71, 108
1, 57057, Note_on_c, 0, 70, 110
1, 57150, Note_off_c, 0, 70, 110
1, 57154, Note_on_c, 0, 68, 109
1, 57230, Note_off_c, 0, 68, 109
1, 57237, Note_on_c, 0, 67, 110
1, 57328, Note_off_c, 0, 67, 110
1, 57359, Note_on_c, 0, 70, 100
1, 57418, Note_on_c, 0, 75, 113
1, 57418, Note_off_c, 0, 70, 100
1, 57532, Note_off_c, 0, 75, 113
1, 57533, Note_on_c, 0, 77, 106
1, 57606, Note_off_c, 0, 77, 106
1, 57606, Note_on_c, 0, 80, 118
1, 57708, Note_off_c, 0, 80, 118
1, 57739, Note_on_c, 0, 77, 113
1, 57791, Note_off_c, 0, 77, 113
1, 57795, Note_on_c, 0, 73, 111
1, 57921, Note_off_c, 0, 73, 111
1, 57921, Note_on_c, 0, 71, 88
1, 57960, Note_off_c, 0, 71, 88
1, 57961, Note_on_c, 0, 76, 118
1, 58088, Note_off_c, 0, 76, 118
1, 58095, Note_on_c, 0, 72, 101
1, 58170, Note_off_c, 0, 72, 101
1, 58178, Note_on_c, 0, 67, 107
1, 58275, Note_off_c, 0, 67, 107
1, 58277, Note_on_c, 0, 64, 102
1, 58358, Note_off_c, 0, 64, 102
1, 58368, Note_on_c, 0, 70, 94
1, 58480, Note_off_c, 0, 70, 94
1, 58483, Note_on_c, 0, 61, 100
1, 58552, Note_off_c, 0, 61, 100
1, 58554, Note_on_c, 0, 63, 105
1, 58657, Note_off_c, 0, 63, 105
1, 58660, Note_on_c, 0, 66, 109
1, 58754, Note_off_c, 0, 66, 109
1, 58755, Note_on_c, 0, 65, 110
1, 58843, Note_off_c, 0, 65, 110
1, 58848, Note_on_c, 0, 63, 104
1, 58930, Note_off_c, 0, 63, 104
1, 58938, Note_on_c, 0, 64, 102
1, 59040, Note_off_c, 0, 64, 102
1, 59056, Note_on_c, 0, 69, 103
1, 59134, Note_off_c, 0, 69, 103
1, 59141, Note_on_c, 0, 76, 112
1, 59242, Note_off_c, 0, 76, 112
1, 59255, Note_on_c, 0, 81, 106
1, 59334, Note_off_c, 0, 81, 106
1, 59336, Note_on_c, 0, 76, 110
1, 59436, Note_off_c, 0, 76, 110
1, 59443, Note_on_c, 0, 81, 105
1, 59522, Note_off_c, 0, 81, 105
1, 59525, Note_on_c, 0, 77, 111
1, 59640, Note_off_c, 0, 77, 111
1, 59645, Note_on_c, 0, 75, 109
1, 59736, Note_off_c, 0, 75, 109
1, 59744, Note_on_c, 0, 70, 90
1, 59838, Note_off_c, 0, 70, 90
1, 59842, Note_on_c, 0, 67, 101
1, 59933, Note_off_c, 0, 67, 101
1, 59935, Note_on_c, 0, 74, 109
1, 60029, Note_off_c, 0, 74, 109
1, 60033, Note_on_c, 0, 71, 92
1, 60087, Note_off_c, 0, 71, 92
1, 60098, Note_on_c, 0, 74, 113
1, 60222, Note_off_c, 0, 74, 113
1, 60226, Note_on_c, 0, 71, 94
1, 60289, Note_off_c, 0, 71, 94
1, 60304, Note_on_c, 0, 70, 99
1, 60368, Note_off_c, 0, 70, 99
1, 60416, Note_on_c, 0, 71, 88
1, 60494, Note_off_c, 0, 71, 88
1, 60503, Note_on_c, 0, 74, 109
1, 60597, Note_off_c, 0, 74, 109
1, 60597, Note_on_c, 0, 77, 108
1, 60672, Note_off_c, 0, 77, 108
1, 60677, Note_on_c, 0, 79, 109
1, 60793, Note_off_c, 0, 79, 109
1, 60796, Note_on_c, 0, 82, 105
1, 60865, Note_off_c, 0, 82, 105
1, 60865, Note_on_c, 0, 77, 114
1, 60995, Note_off_c, 0, 77, 114
1, 60998, Note_on_c, 0, 74, 106
1, 61044, Note_off_c, 0, 74, 106
1, 61063, Note_on_c, 0, 75, 113
1, 61153, Note_off_c, 0, 75, 113
1, 61167, Note_on_c, 0, 81, 104
1, 61238, Note_off_c, 0, 81, 104
1, 61240, Note_on_c, 0, 73, 99
1, 61334, Note_off_c, 0, 73, 99
1, 61336, Note_on_c, 0, 77, 112
1, 61425, Note_off_c, 0, 77, 112
1, 61428, Note_on_c, 0, 72, 100
1, 61516, Note_off_c, 0, 72, 100
1, 61547, Note_on_c, 0, 71, 94
1, 61613, Note_off_c, 0, 71, 94
1, 61615, Note_on_c, 0, 65, 97
1, 61727, Note_off_c, 0, 65, 97
1, 61749, Note_on_c, 0, 60, 92
1, 61794, Note_off_c, 0, 60, 92
1, 61803, Note_on_c, 0, 63, 101
1, 61916, Note_on_c, 0, 65, 105
1, 61916, Note_off_c, 0, 63, 101
1, 61998, Note_off_c, 0, 65, 105
1, 62001, Note_on_c, 0, 66, 103
1, 62104, Note_off_c, 0, 66, 103
1, 62107, Note_on_c, 0, 68, 97
1, 62183, Note_off_c, 0, 68, 97
1, 62183, Note_on_c, 0, 70, 105
1, 62307, Note_off_c, 0, 70, 105
1, 62310, Note_on_c, 0, 75, 106
1, 62355, Note_off_c, 0, 75, 106
1, 62357, Note_on_c, 0, 77, 116
1, 62482, Note_off_c, 0, 77, 116
1, 62482, Note_on_c, 0, 78, 113
1, 62567, Note_off_c, 0, 78, 113
1, 62568, Note_on_c, 0, 80, 105
1, 62763, Note_off_c, 0, 80, 105
1, 62770, Note_on_c, 0, 75, 113
1, 62896, Note_off_c, 0, 75, 113
1, 62900, Note_on_c, 0, 71, 92
1, 63071, Note_off_c, 0, 71, 92
1, 63072, Note_on_c, 0, 70, 98
1, 63228, Note_off_c, 0, 70, 98
1, 63237, Note_on_c, 0, 68, 98
1, 63350, Note_off_c, 0, 68, 98
1, 63357, Note_on_c, 0, 69, 99
1, 63502, Note_off_c, 0, 69, 99
1, 63504, Note_on_c, 0, 66, 93
1, 63623, Note_off_c, 0, 66, 93
1, 63624, Note_on_c, 0, 62, 95
1, 63702, Note_off_c, 0, 62, 95
1, 64949, Note_on_c, 0, 74, 116
1, 65018, Note_off_c, 0, 74, 116
1, 65018, Note_on_c, 0, 76, 115
1, 65072, Note_off_c, 0, 76, 115
1, 65075, Note_on_c, 0, 79, 113
1, 65131, Note_off_c, 0, 79, 113
1, 65132, Note_on_c, 0, 81, 114
1, 65190, Note_off_c, 0, 81, 114
1, 65194, Note_on_c, 0, 73, 103
1, 65234, Note_off_c, 0, 73, 103
1, 65253, Note_on_c, 0, 68, 102
1, 65284, Note_on_c, 0, 73, 109
1, 65284, Note_off_c, 0, 68, 102
1, 65346, Note_off_c, 0, 73, 109
1, 65348, Note_on_c, 0, 72, 102
1, 65374, Note_off_c, 0, 72, 102
1, 65374, Note_on_c, 0, 75, 100
1, 65406, Note_on_c, 0, 68, 106
1, 65406, Note_off_c, 0, 75, 100
1, 65471, Note_off_c, 0, 68, 106
1, 65471, Note_on_c, 0, 72, 99
1, 65527, Note_off_c, 0, 72, 99
1, 65527, Note_on_c, 0, 74, 102
1, 65556, Note_off_c, 0, 74, 102
1, 65556, Note_on_c, 0, 80, 109
1, 65643, Note_off_c, 0, 80, 109
1, 65648, Note_on_c, 0, 77, 111
1, 65719, Note_off_c, 0, 77, 111
1, 65722, Note_on_c, 0, 78, 113
1, 65763, Note_off_c, 0, 78, 113
1, 65764, Note_on_c, 0, 79, 115
1, 65830, Note_off_c, 0, 79, 115
1, 65835, Note_on_c, 0, 78, 115
1, 65863, Note_off_c, 0, 78, 115
1, 65870, Note_on_c, 0, 76, 114
1, 65905, Note_off_c, 0, 76, 114
1, 65907, Note_on_c, 0, 74, 109
1, 65934, Note_off_c, 0, 74, 109
1, 65938, Note_on_c, 0, 73, 109
1, 66003, Note_off_c, 0, 73, 109
1, 66017, Note_on_c, 0, 71, 99
1, 66073, Note_off_c, 0, 71, 99
1, 66076, Note_on_c, 0, 67, 107
1, 66121, Note_off_c, 0, 67, 107
1, 66136, Note_on_c, 0, 65, 106
1, 66169, Note_off_c, 0, 65, 106
1, 66179, Note_on_c, 0, 61, 101
1, 66225, Note_off_c, 0, 61, 101
1, 66238, Note_on_c, 0, 60, 101
1, 66283, Note_off_c, 0, 60, 101
1, 66294, Note_on_c, 0, 59, 99
1, 66482, Note_off_c, 0, 59, 99
1, 66486, Note_on_c, 0, 63, 100
1, 66539, Note_off_c, 0, 63, 100
1, 66544, Note_on_c, 0, 66, 97
1, 66615, Note_off_c, 0, 66, 97
1, 66623, Note_on_c, 0, 70, 100
1, 66664, Note_off_c, 0, 70, 100
1, 66664, Note_on_c, 0, 75, 114
1, 66711, Note_off_c, 0, 75, 114
1, 66716, Note_on_c, 0, 77, 113
1, 66733, Note_off_c, 0, 77, 113
1, 66733, Note_on_c, 0, 79, 107
1, 66755, Note_off_c, 0, 79, 107
1, 66760, Note_on_c, 0, 82, 103
1, 66870, Note_off_c, 0, 82, 103
1, 66872, Note_on_c, 0, 75, 106
1, 66911, Note_off_c, 0, 75, 106
1, 66925, Note_on_c, 0, 72, 96
1, 66952, Note_off_c, 0, 72, 96
1, 66957, Note_on_c, 0, 70, 89
1, 66996, Note_off_c, 0, 70, 89
1, 67170, Note_on_c, 0, 71, 85
1, 67221, Note_off_c, 0, 71, 85
1, 67222, Note_on_c, 0, 72, 97
1, 67299, Note_off_c, 0, 72, 97
1, 67301, Note_on_c, 0, 76, 97
1, 67408, Note_off_c, 0, 76, 97
1, 67449, Note_on_c, 0, 79, 85
1, 67478, Note_off_c, 0, 79, 85
1, 67479, Note_on_c, 0, 83, 82
1, 67508, Note_off_c, 0, 83, 82
1, 67512, Note_on_c, 0, 79, 105
1, 67565, Note_off_c, 0, 79, 105
1, 67566, Note_on_c, 0, 82, 98
1, 67617, Note_off_c, 0, 82, 98
1, 67620, Note_on_c, 0, 81, 103
1, 67659, Note_off_c, 0, 81, 103
1, 67660, Note_on_c, 0, 79, 107
1, 67692, Note_off_c, 0, 79, 107
1, 67694, Note_on_c, 0, 77, 105
1, 67735, Note_off_c, 0, 77, 105
1, 67735, Note_on_c, 0, 73, 106
1, 67783, Note_off_c, 0, 73, 106
1, 67788, Note_on_c, 0, 72, 99
1, 67845, Note_off_c, 0, 72, 99
1, 67848, Note_on_c, 0, 67, 98
1, 67899, Note_off_c, 0, 67, 98
1, 68236, Note_on_c, 0, 80, 104
1, 68344, Note_off_c, 0, 80, 104
1, 68571, Note_on_c, 0, 78, 106
1, 68661, Note_off_c, 0, 78, 106
1, 68984, Note_on_c, 0, 76, 118
1, 69105, Note_off_c, 0, 76, 118
1, 69109, Note_on_c, 0, 74, 111
1, 69197, Note_off_c, 0, 74, 111
1, 69204, Note_on_c, 0, 71, 95
1, 69378, Note_off_c, 0, 71, 95
1, 69386, Note_on_c, 0, 70, 97
1, 69526, Note_off_c, 0, 70, 97
1, 69531, Note_on_c, 0, 67, 96
1, 69606, Note_off_c, 0, 67, 96
1, 71031, Note_on_c, 0, 79, 100
1, 71096, Note_off_c, 0, 79, 100
1, 71097, Note_on_c, 0, 77, 118
1, 71205, Note_off_c, 0, 77, 118
1, 71206, Note_on_c, 0, 79, 123
1, 71308, Note_off_c, 0, 79, 123
1, 71311, Note_on_c, 0, 80, 122
1, 71405, Note_off_c, 0, 80, 122
1, 71413, Note_on_c, 0, 81, 120
1, 71501, Note_off_c, 0, 81, 120
1, 71509, Note_on_c, 0, 82, 125
1, 71604, Note_off_c, 0, 82, 125
1, 71607, Note_on_c, 0, 79, 122
1, 71689, Note_off_c, 0, 79, 122
1, 71696, Note_on_c, 0, 80, 123
1, 71784, Note_off_c, 0, 80, 123
1, 71785, Note_on_c, 0, 82, 116
1, 71879, Note_off_c, 0, 82, 116
1, 71881, Note_on_c, 0, 78, 122
1, 71977, Note_off_c, 0, 78, 122
1, 71981, Note_on_c, 0, 74, 113
1, 72065, Note_off_c, 0, 74, 113
1, 72070, Note_on_c, 0, 71, 100
1, 72155, Note_off_c, 0, 71, 100
1, 72156, Note_on_c, 0, 69, 105
1, 72229, Note_off_c, 0, 69, 105
1, 72229, Note_on_c, 0, 70, 104
1, 72341, Note_off_c, 0, 70, 104
1, 72341, Note_on_c, 0, 67, 105
1, 72429, Note_off_c, 0, 67, 105
1, 72432, Note_on_c, 0, 68, 102
1, 72548, Note_off_c, 0, 68, 102
1, 72551, Note_on_c, 0, 70, 102
1, 72624, Note_off_c, 0, 70, 102
1, 72624, Note_on_c, 0, 71, 96
1, 72738, Note_off_c, 0, 71, 96
1, 72743, Note_on_c, 0, 73, 94
1, 72782, Note_on_c, 0, 75, 114
1, 72782, Note_off_c, 0, 73, 94
1, 72913, Note_off_c, 0, 75, 114
1, 72913, Note_on_c, 0, 78, 120
1, 73025, Note_off_c, 0, 78, 120
1, 73028, Note_on_c, 0, 77, 120
1, 73113, Note_off_c, 0, 77, 120
1, 73113, Note_on_c, 0, 75, 106
1, 73190, Note_off_c, 0, 75, 106
1, 73201, Note_on_c, 0, 76, 119
1, 73310, Note_off_c, 0, 76, 119
1, 73310, Note_on_c, 0, 81, 110
1, 73397, Note_off_c, 0, 81, 110
1, 73397, Note_on_c, 0, 75, 111
1, 73507, Note_off_c, 0, 75, 111
1, 73516, Note_on_c, 0, 81, 107
1, 73607, Note_off_c, 0, 81, 107
1, 73612, Note_on_c, 0, 73, 108
1, 73700, Note_off_c, 0, 73, 108
1, 73700, Note_on_c, 0, 75, 107
1, 73780, Note_off_c, 0, 75, 107
1, 73781, Note_on_c, 0, 71, 96
1, 73888, Note_off_c, 0, 71, 96
1, 73892, Note_on_c, 0, 69, 101
1, 73967, Note_off_c, 0, 69, 101
1, 73972, Note_on_c, 0, 70, 102
1, 74065, Note_off_c, 0, 70, 102
1, 74382, Note_on_c, 0, 73, 116
1, 74471, Note_off_c, 0, 73, 116
1, 74484, Note_on_c, 0, 77, 118
1, 74571, Note_off_c, 0, 77, 118
1, 74575, Note_on_c, 0, 80, 116
1, 74684, Note_off_c, 0, 80, 116
1, 74686, Note_on_c, 0, 78, 106
1, 74752, Note_off_c, 0, 78, 106
1, 74760, Note_on_c, 0, 79, 110
1, 75060, Note_off_c, 0, 79, 110
1, 75063, Note_on_c, 0, 77, 116
1, 75163, Note_off_c, 0, 77, 116
1, 75170, Note_on_c, 0, 76, 114
1, 75261, Note_off_c, 0, 76, 114
1, 75264, Note_on_c, 0, 68, 106
1, 75383, Note_off_c, 0, 68, 106
1, 75387, Note_on_c, 0, 67, 105
1, 75484, Note_off_c, 0, 67, 105
1, 75488, Note_on_c, 0, 65, 108
1, 75532, Note_off_c, 0, 65, 108
1, 75554, Note_on_c, 0, 70, 105
1, 75647, Note_off_c, 0, 70, 105
1, 75647, Note_on_c, 0, 67, 107
1, 75722, Note_off_c, 0, 67, 107
1, 75727, Note_on_c, 0, 68, 104
1, 75820, Note_off_c, 0, 68, 104
1, 75823, Note_on_c, 0, 67, 103
1, 75913, Note_off_c, 0, 67, 103
1, 75920, Note_on_c, 0, 63, 105
1, 76014, Note_off_c, 0, 63, 105
1, 76028, Note_on_c, 0, 66, 107
1, 76104, Note_off_c, 0, 66, 107
1, 76111, Note_on_c, 0, 61, 98
1, 76194, Note_off_c, 0, 61, 98
1, 76197, Note_on_c, 0, 63, 103
1, 76304, Note_off_c, 0, 63, 103
1, 76312, Note_on_c, 0, 62, 103
1, 76397, Note_off_c, 0, 62, 103
1, 76813, Note_on_c, 0, 59, 106
1, 76854, Note_off_c, 0, 59, 106
1, 76857, Note_on_c, 0, 61, 109
1, 76896, Note_off_c, 0, 61, 109
1, 76901, Note_on_c, 0, 64, 102
1, 76928, Note_off_c, 0, 64, 102
1, 76930, Note_on_c, 0, 68, 108
1, 76994, Note_off_c, 0, 68, 108
1, 76994, Note_on_c, 0, 67, 111
1, 77057, Note_off_c, 0, 67, 111
1, 77059, Note_on_c, 0, 65, 111
1, 77146, Note_off_c, 0, 65, 111
1, 77404, Note_on_c, 0, 75, 116
1, 77501, Note_off_c, 0, 75, 116
1, 77913, Note_on_c, 0, 77, 123
1, 78023, Note_off_c, 0, 77, 123
1, 78025, Note_on_c, 0, 76, 123
1, 78108, Note_off_c, 0, 76, 123
1, 78109, Note_on_c, 0, 75, 116
1, 78203, Note_off_c, 0, 75, 116
1, 78206, Note_on_c, 0, 74, 115
1, 78302, Note_off_c, 0, 74, 115
1, 78302, Note_on_c, 0, 71, 103
1, 78367, Note_off_c, 0, 71, 103
1, 78371, Note_on_c, 0, 70, 105
1, 78476, Note_off_c, 0, 70, 105
1, 78505, Note_on_c, 0, 68, 109
1, 78561, Note_off_c, 0, 68, 109
1, 78569, Note_on_c, 0, 67, 108
1, 78664, Note_off_c, 0, 67, 108
1, 78671, Note_on_c, 0, 74, 110
1, 78888, Note_off_c, 0, 74, 110
1, 78891, Note_on_c, 0, 72, 107
1, 79036, Note_off_c, 0, 72, 107
1, 79082, Note_on_c, 0, 70, 102
1, 79232, Note_off_c, 0, 70, 102
1, 79253, Note_on_c, 0, 72, 105
1, 79411, Note_off_c, 0, 72, 105
1, 79422, Note_on_c, 0, 73, 111
1, 79616, Note_off_c, 0, 73, 111
1, 79623, Note_on_c, 0, 75, 113
1, 79786, Note_off_c, 0, 75, 113
1, 79809, Note_on_c, 0, 84, 105
1, 79933, Note_off_c, 0, 84, 105
1, 79939, Note_on_c, 0, 83, 105
1, 79992, Note_off_c, 0, 83, 105
1, 79997, Note_on_c, 0, 82, 97
1, 80276, Note_off_c, 0, 82, 97
1, 80928, Note_on_c, 0, 79, 116
1, 81016, Note_off_c, 0, 79, 116
1, 81018, Note_on_c, 0, 80, 111
1, 81112, Note_off_c, 0, 80, 111
1, 81114, Note_on_c, 0, 82, 98
1, 81197, Note_off_c, 0, 82, 98
1, 81200, Note_on_c, 0, 83, 110
1, 81308, Note_off_c, 0, 83, 110
1, 81308, Note_on_c, 0, 83, 106
1, 81381, Note_off_c, 0, 83, 106
1, 81381, Note_on_c, 0, 82, 112
1, 81496, Note_off_c, 0, 82, 112
1, 81505, Note_on_c, 0, 80, 109
1, 81617, Note_off_c, 0, 80, 109
1, 81619, Note_on_c, 0, 79, 98
1, 81818, Note_off_c, 0, 79, 98
1, 82454, Note_on_c, 0, 73, 116
1, 82525, Note_off_c, 0, 73, 116
1, 82528, Note_on_c, 0, 77, 118
1, 82636, Note_off_c, 0, 77, 118
1, 82636, Note_on_c, 0, 79, 121
1, 82715, Note_off_c, 0, 79, 121
1, 82720, Note_on_c, 0, 80, 121
1, 82789, Note_off_c, 0, 80, 121
1, 82794, Note_on_c, 0, 79, 120
1, 82888, Note_off_c, 0, 79, 120
1, 82890, Note_on_c, 0, 77, 121
1, 82986, Note_off_c, 0, 77, 121
1, 82994, Note_on_c, 0, 75, 109
1, 83060, Note_off_c, 0, 75, 109
1, 83067, Note_on_c, 0, 76, 116
1, 83174, Note_off_c, 0, 76, 116
1, 83174, Note_on_c, 0, 75, 115
1, 83269, Note_off_c, 0, 75, 115
1, 83444, Note_on_c, 0, 82, 115
1, 83574, Note_off_c, 0, 82, 115
1, 83858, Note_on_c, 0, 75, 115
1, 83966, Note_off_c, 0, 75, 115
1, 83967, Note_on_c, 0, 77, 118
1, 84048, Note_off_c, 0, 77, 118
1, 84048, Note_on_c, 0, 79, 115
1, 84148, Note_off_c, 0, 79, 115
1, 84148, Note_on_c, 0, 80, 117
1, 84293, Note_off_c, 0, 80, 117
1, 84293, Note_on_c, 0, 78, 118
1, 84405, Note_off_c, 0, 78, 118
1, 84412, Note_on_c, 0, 77, 105
1, 84520, Note_off_c, 0, 77, 105
1, 84522, Note_on_c, 0, 74, 101
1, 84575, Note_off_c, 0, 74, 101
1, 84582, Note_on_c, 0, 79, 114
1, 84688, Note_off_c, 0, 79, 114
1, 84998, Note_on_c, 0, 76, 120
1, 85100, Note_off_c, 0, 76, 120
1, 85100, Note_on_c, 0, 73, 111
1, 85170, Note_off_c, 0, 73, 111
1, 85181, Note_on_c, 0, 69, 103
1, 85282, Note_off_c, 0, 69, 103
1, 85289, Note_on_c, 0, 63, 103
1, 85368, Note_off_c, 0, 63, 103
1, 85371, Note_on_c, 0, 70, 94
1, 85484, Note_off_c, 0, 70, 94
1, 85498, Note_on_c, 0, 61, 92
1, 85548, Note_off_c, 0, 61, 92
1, 85549, Note_on_c, 0, 63, 99
1, 85662, Note_off_c, 0, 63, 99
1, 85666, Note_on_c, 0, 66, 111
1, 85736, Note_off_c, 0, 66, 111
1, 85739, Note_on_c, 0, 65, 112
1, 85851, Note_off_c, 0, 65, 112
1, 85855, Note_on_c, 0, 63, 106
1, 85940, Note_off_c, 0, 63, 106
1, 85947, Note_on_c, 0, 64, 106
1, 86048, Note_off_c, 0, 64, 106
1, 86051, Note_on_c, 0, 61, 102
1, 86132, Note_off_c, 0, 61, 102
1, 86152, Note_on_c, 0, 60, 97
1, 86241, Note_off_c, 0, 60, 97
1, 86246, Note_on_c, 0, 58, 96
1, 86339, Note_off_c, 0, 58, 96
1, 86385, Note_on_c, 0, 59, 95
1, 86433, Note_off_c, 0, 59, 95
1, 86440, Note_on_c, 0, 63, 99
1, 86491, Note_off_c, 0, 63, 99
1, 86491, Note_on_c, 0, 67, 104
1, 86568, Note_off_c, 0, 67, 104
1, 86579, Note_on_c, 0, 64, 108
1, 86631, Note_off_c, 0, 64, 108
1, 86633, Note_on_c, 0, 65, 105
1, 86691, Note_off_c, 0, 65, 105
1, 86699, Note_on_c, 0, 68, 102
1, 86757, Note_off_c, 0, 68, 102
1, 86759, Note_on_c, 0, 69, 96
1, 86837, Note_off_c, 0, 69, 96
1, 86840, Note_on_c, 0, 72, 97
1, 86884, Note_off_c, 0, 72, 97
1, 86885, Note_on_c, 0, 76, 110
1, 86943, Note_on_c, 0, 79, 112
1, 86943, Note_off_c, 0, 76, 110
1, 87020, Note_off_c, 0, 79, 112
1, 87022, Note_on_c, 0, 76, 116
1, 87053, Note_off_c, 0, 76, 116
1, 87055, Note_on_c, 0, 77, 115
1, 87130, Note_off_c, 0, 77, 115
1, 87130, Note_on_c, 0, 78, 115
1, 87208, Note_off_c, 0, 78, 115
1, 87216, Note_on_c, 0, 74, 109
1, 87310, Note_off_c, 0, 74, 109
1, 87314, Note_on_c, 0, 70, 93
1, 87359, Note_off_c, 0, 70, 93
1, 87368, Note_on_c, 0, 69, 103
1, 87408, Note_off_c, 0, 69, 103
1, 87418, Note_on_c, 0, 70, 98
1, 87483, Note_off_c, 0, 70, 98
1, 87484, Note_on_c, 0, 68, 101
1, 87531, Note_off_c, 0, 68, 101
1, 87531, Note_on_c, 0, 67, 101
1, 87622, Note_off_c, 0, 67, 101
1, 87625, Note_on_c, 0, 63, 103
1, 87825, Note_off_c, 0, 63, 103
1, 87837, Note_on_c, 0, 65, 105
1, 87937, Note_off_c, 0, 65, 105
1, 87957, Note_on_c, 0, 61, 95
1, 88122, Note_off_c, 0, 61, 95
1, 89089, Note_on_c, 0, 70, 107
1, 89170, Note_off_c, 0, 70, 107
1, 89177, Note_on_c, 0, 72, 107
1, 89262, Note_off_c, 0, 72, 107
1, 89266, Note_on_c, 0, 74, 113
1, 89362, Note_off_c, 0, 74, 113
1, 89366, Note_on_c, 0, 75, 119
1, 89436, Note_off_c, 0, 75, 119
1, 89439, Note_on_c, 0, 77, 115
1, 89535, Note_off_c, 0, 77, 115
1, 89545, Note_on_c, 0, 79, 120
1, 89653, Note_off_c, 0, 79, 120
1, 89653, Note_on_c, 0, 75, 116
1, 89747, Note_off_c, 0, 75, 116
1, 89776, Note_on_c, 0, 71, 95
1, 89863, Note_off_c, 0, 71, 95
1, 89874, Note_on_c, 0, 67, 103
1, 89962, Note_off_c, 0, 67, 103
1, 89962, Note_on_c, 0, 73, 114
1, 90071, Note_off_c, 0, 73, 114
1, 90075, Note_on_c, 0, 74, 115
1, 90141, Note_off_c, 0, 74, 115
1, 90143, Note_on_c, 0, 75, 117
1, 90239, Note_off_c, 0, 75, 117
1, 90240, Note_on_c, 0, 76, 110
1, 90312, Note_off_c, 0, 76, 110
1, 90316, Note_on_c, 0, 77, 118
1, 90417, Note_off_c, 0, 77, 118
1, 90420, Note_on_c, 0, 74, 119
1, 90486, Note_off_c, 0, 74, 119
1, 90491, Note_on_c, 0, 71, 89
1, 90593, Note_off_c, 0, 71, 89
1, 90596, Note_on_c, 0, 69, 104
1, 90675, Note_on_c, 0, 70, 100
1, 90675, Note_off_c, 0, 69, 104
1, 90776, Note_off_c, 0, 70, 100
1, 90809, Note_on_c, 0, 67, 105
1, 90880, Note_off_c, 0, 67, 105
1, 90880, Note_on_c, 0, 69, 97
1, 90946, Note_off_c, 0, 69, 97
1, 90950, Note_on_c, 0, 71, 91
1, 90996, Note_off_c, 0, 71, 91
1, 90999, Note_on_c, 0, 74, 106
1, 91047, Note_off_c, 0, 74, 106
1, 91080, Note_on_c, 0, 78, 108
1, 91139, Note_off_c, 0, 78, 108
1, 91142, Note_on_c, 0, 67, 104
1, 91236, Note_off_c, 0, 67, 104
1, 91485, Note_on_c, 0, 72, 109
1, 91578, Note_off_c, 0, 72, 109
1, 91581, Note_on_c, 0, 74, 109
1, 91635, Note_off_c, 0, 74, 109
1, 91639, Note_on_c, 0, 75, 119
1, 91723, Note_off_c, 0, 75, 119
1, 91730, Note_on_c, 0, 74, 110
1, 91793, Note_off_c, 0, 74, 110
1, 91795, Note_on_c, 0, 76, 118
1, 91865, Note_off_c, 0, 76, 118
1, 92338, Note_on_c, 0, 69, 105
1, 92366, Note_off_c, 0, 69, 105
1, 92371, Note_on_c, 0, 70, 96
1, 92478, Note_off_c, 0, 70, 96
1, 92553, Note_on_c, 0, 77, 116
1, 92690, Note_off_c, 0, 77, 116
1, 92950, Note_on_c, 0, 75, 116
1, 93072, Note_off_c, 0, 75, 116
1, 93283, Note_on_c, 0, 73, 116
1, 93346, Note_off_c, 0, 73, 116
1, 93347, Note_on_c, 0, 74, 119
1, 93467, Note_off_c, 0, 74, 119
1, 93470, Note_on_c, 0, 71, 103
1, 93530, Note_off_c, 0, 71, 103
1, 93533, Note_on_c, 0, 70, 104
1, 93651, Note_off_c, 0, 70, 104
1, 93661, Note_on_c, 0, 68, 106
1, 93733, Note_off_c, 0, 68, 106
1, 93742, Note_on_c, 0, 67, 109
1, 93854, Note_off_c, 0, 67, 109
1, 94112, Note_on_c, 0, 73, 104
1, 94462, Note_off_c, 0, 73, 104
1, 94527, Note_on_c, 0, 65, 97
1, 94793, Note_off_c, 0, 65, 97
1, 94809, Note_on_c, 0, 75, 95
1, 95146, Note_off_c, 0, 75, 95
1, 95416, Note_on_c, 0, 73, 112
1, 95531, Note_off_c, 0, 73, 112
1, 95540, Note_on_c, 0, 75, 118
1, 95653, Note_off_c, 0, 75, 118
1, 95662, Note_on_c, 0, 78, 120
1, 95801, Note_off_c, 0, 78, 120
1, 95808, Note_on_c, 0, 73, 109
1, 95853, Note_off_c, 0, 73, 109
1, 95856, Note_on_c, 0, 75, 112
1, 96012, Note_off_c, 0, 75, 112
1, 96019, Note_on_c, 0, 74, 106
1, 96283, Note_off_c, 0, 74, 106
1, 96331, Note_on_c, 0, 71, 93
1, 96396, Note_off_c, 0, 71, 93
1, 96411, Note_on_c, 0, 70, 98
1, 96511, Note_off_c, 0, 70, 98
1, 96522, Note_on_c, 0, 68, 105
1, 96592, Note_off_c, 0, 68, 105
1, 96602, Note_on_c, 0, 67, 107
1, 96693, Note_off_c, 0, 67, 107
1, 96694, Note_on_c, 0, 65, 104
1, 96782, Note_off_c, 0, 65, 104
1, 96785, Note_on_c, 0, 62, 100
1, 96873, Note_off_c, 0, 62, 100
1, 96873, Note_on_c, 0, 67, 96
1, 96975, Note_off_c, 0, 67, 96
1, 96975, Note_on_c, 0, 60, 9
1, 97161, Note_off_c, 0, 60, 9
1, 98442, Note_on_c, 0, 60, 108
1, 98484, Note_off_c, 0, 60, 108
1, 98489, Note_on_c, 0, 65, 111
1, 98545, Note_off_c, 0, 65, 111
1, 98548, Note_on_c, 0, 70, 107
1, 98593, Note_off_c, 0, 70, 107
1, 98595, Note_on_c, 0, 72, 114
1, 98633, Note_off_c, 0, 72, 114
1, 98636, Note_on_c, 0, 77, 123
1, 98683, Note_off_c, 0, 77, 123
1, 98690, Note_on_c, 0, 82, 122
1, 98740, Note_off_c, 0, 82, 122
1, 98742, Note_on_c, 0, 77, 122
1, 98798, Note_off_c, 0, 77, 122
1, 98800, Note_on_c, 0, 72, 105
1, 98863, Note_off_c, 0, 72, 105
1, 98868, Note_on_c, 0, 69, 96
1, 98922, Note_off_c, 0, 69, 96
1, 99165, Note_on_c, 0, 61, 109
1, 99194, Note_off_c, 0, 61, 109
1, 99194, Note_on_c, 0, 64, 110
1, 99236, Note_on_c, 0, 70, 92
1, 99236, Note_off_c, 0, 64, 110
1, 99271, Note_off_c, 0, 70, 92
1, 99276, Note_on_c, 0, 73, 113
1, 99323, Note_off_c, 0, 73, 113
1, 99323, Note_on_c, 0, 78, 121
1, 99389, Note_off_c, 0, 78, 121
1, 99390, Note_on_c, 0, 83, 115
1, 99444, Note_off_c, 0, 83, 115
1, 99448, Note_on_c, 0, 78, 122
1, 99500, Note_off_c, 0, 78, 122
1, 99501, Note_on_c, 0, 73, 110
1, 99559, Note_off_c, 0, 73, 110
1, 99573, Note_on_c, 0, 70, 97
1, 99635, Note_off_c, 0, 70, 97
1, 99650, Note_on_c, 0, 61, 101
1, 99713, Note_off_c, 0, 61, 101
1, 99874, Note_on_c, 0, 62, 106
1, 99919, Note_off_c, 0, 62, 106
1, 99924, Note_on_c, 0, 67, 104
1, 99970, Note_off_c, 0, 67, 104
1, 99995, Note_on_c, 0, 70, 106
1, 100057, Note_off_c, 0, 70, 106
1, 100134, Note_on_c, 0, 61, 100
1, 100212, Note_off_c, 0, 61, 100
1, 100213, Note_on_c, 0, 67, 107
1, 100249, Note_off_c, 0, 67, 107
1, 100257, Note_on_c, 0, 68, 111
1, 100297, Note_off_c, 0, 68, 111
1, 100298, Note_on_c, 0, 71, 109
1, 100344, Note_off_c, 0, 71, 109
1, 100350, Note_on_c, 0, 73, 111
1, 100371, Note_off_c, 0, 73, 111
1, 100372, Note_on_c, 0, 77, 115
1, 100390, Note_off_c, 0, 77, 115
1, 100403, Note_on_c, 0, 83, 103
1, 100451, Note_off_c, 0, 83, 103
1, 100566, Note_on_c, 0, 59, 93
1, 100636, Note_off_c, 0, 59, 93
1, 100642, Note_on_c, 0, 63, 100
1, 100685, Note_off_c, 0, 63, 100
1, 100688, Note_on_c, 0, 67, 107
1, 100738, Note_off_c, 0, 67, 107
1, 100753, Note_on_c, 0, 72, 109
1, 100779, Note_off_c, 0, 72, 109
1, 100779, Note_on_c, 0, 76, 110
1, 100831, Note_off_c, 0, 76, 110
1, 100837, Note_on_c, 0, 82, 83
1, 100870, Note_off_c, 0, 82, 83
1, 100916, Note_on_c, 0, 60, 105
1, 101013, Note_off_c, 0, 60, 105
1, 101065, Note_on_c, 0, 63, 108
1, 101128, Note_off_c, 0, 63, 108
1, 101156, Note_on_c, 0, 71, 93
1, 101204, Note_off_c, 0, 71, 93
1, 102164, Note_on_c, 0, 80, 123
1, 102268, Note_off_c, 0, 80, 123
1, 102271, Note_on_c, 0, 81, 121
1, 102336, Note_off_c, 0, 81, 121
1, 102337, Note_on_c, 0, 82, 115
1, 102377, Note_off_c, 0, 82, 115
1, 102390, Note_on_c, 0, 83, 114
1, 102453, Note_off_c, 0, 83, 114
1, 102459, Note_on_c, 0, 84, 118
1, 102527, Note_off_c, 0, 84, 118
1, 102527, Note_on_c, 0, 82, 109
1, 102709, Note_off_c, 0, 82, 109
1, 102970, Note_on_c, 0, 79, 124
1, 103047, Note_off_c, 0, 79, 124
1, 103052, Note_on_c, 0, 81, 118
1, 103105, Note_off_c, 0, 81, 118
1, 103105, Note_on_c, 0, 83, 113
1, 103257, Note_off_c, 0, 83, 113
1, 103532, Note_on_c, 0, 79, 121
1, 103644, Note_off_c, 0, 79, 121
1, 103649, Note_on_c, 0, 81, 116
1, 103716, Note_off_c, 0, 81, 116
1, 103722, Note_on_c, 0, 82, 121
1, 103832, Note_off_c, 0, 82, 121
1, 103842, Note_on_c, 0, 84, 113
1, 103912, Note_off_c, 0, 84, 113
1, 103913, Note_on_c, 0, 81, 115
1, 104013, Note_off_c, 0, 81, 115
1, 104019, Note_on_c, 0, 77, 120
1, 104091, Note_off_c, 0, 77, 120
1, 104091, Note_on_c, 0, 73, 119
1, 104213, Note_off_c, 0, 73, 119
1, 104221, Note_on_c, 0, 71, 99
1, 104278, Note_off_c, 0, 71, 99
1, 104286, Note_on_c, 0, 75, 119
1, 104405, Note_off_c, 0, 75, 119
1, 104410, Note_on_c, 0, 77, 126
1, 104488, Note_off_c, 0, 77, 126
1, 104491, Note_on_c, 0, 78, 121
1, 104608, Note_off_c, 0, 78, 121
1, 104618, Note_on_c, 0, 79, 115
1, 104675, Note_off_c, 0, 79, 115
1, 104675, Note_on_c, 0, 82, 121
1, 104787, Note_off_c, 0, 82, 121
1, 104798, Note_on_c, 0, 78, 118
1, 104870, Note_off_c, 0, 78, 118
1, 104871, Note_on_c, 0, 73, 116
1, 104995, Note_off_c, 0, 73, 116
1, 105001, Note_on_c, 0, 71, 99
1, 105044, Note_off_c, 0, 71, 99
1, 105049, Note_on_c, 0, 75, 117
1, 105216, Note_off_c, 0, 75, 117
1, 105217, Note_on_c, 0, 80, 118
1, 105366, Note_off_c, 0, 80, 118
1, 105421, Note_on_c, 0, 77, 124
1, 105538, Note_off_c, 0, 77, 124
1, 105544, Note_on_c, 0, 73, 112
1, 105634, Note_off_c, 0, 73, 112
1, 105637, Note_on_c, 0, 70, 107
1, 105757, Note_off_c, 0, 70, 107
1, 105760, Note_on_c, 0, 67, 105
1, 105798, Note_off_c, 0, 67, 105
1, 105803, Note_on_c, 0, 76, 124
1, 105925, Note_off_c, 0, 76, 124
1, 105933, Note_on_c, 0, 81, 117
1, 106005, Note_off_c, 0, 81, 117
1, 106015, Note_on_c, 0, 80, 98
1, 106072, Note_off_c, 0, 80, 98
1, 106078, Note_on_c, 0, 73, 105
1, 106131, Note_off_c, 0, 73, 105
1, 106136, Note_on_c, 0, 76, 120
1, 106211, Note_off_c, 0, 76, 120
1, 106214, Note_on_c, 0, 71, 96
1, 106299, Note_off_c, 0, 71, 96
1, 106302, Note_on_c, 0, 69, 106
1, 106374, Note_off_c, 0, 69, 106
1, 106374, Note_on_c, 0, 67, 104
1, 106429, Note_off_c, 0, 67, 104
1, 106439, Note_on_c, 0, 62, 90
1, 106569, Note_off_c, 0, 62, 90
1, 106569, Note_on_c, 0, 67, 106
1, 106720, Note_off_c, 0, 67, 106
1, 106731, Note_on_c, 0, 70, 102
1, 106803, Note_off_c, 0, 70, 102
1, 106803, Note_on_c, 0, 74, 116
1, 106888, Note_off_c, 0, 74, 116
1, 106894, Note_on_c, 0, 77, 117
1, 107028, Note_off_c, 0, 77, 117
1, 107036, Note_on_c, 0, 67, 106
1, 107158, Note_off_c, 0, 67, 106
1, 107215, Note_on_c, 0, 62, 106
1, 107307, Note_off_c, 0, 62, 106
1, 107313, Note_on_c, 0, 64, 105
1, 107495, Note_off_c, 0, 64, 105
1, 107496, Note_on_c, 0, 69, 105
1, 107670, Note_off_c, 0, 69, 105
1, 107676, Note_on_c, 0, 76, 118
1, 107855, Note_off_c, 0, 76, 118
1, 107855, Note_on_c, 0, 79, 114
1, 108012, Note_off_c, 0, 79, 114
1, 108013, Note_on_c, 0, 77, 107
1, 108313, Note_off_c, 0, 77, 107
1, 108388, Note_on_c, 0, 76, 118
1, 108456, Note_off_c, 0, 76, 118
1, 108467, Note_on_c, 0, 71, 94
1, 108567, Note_off_c, 0, 71, 94
1, 108568, Note_on_c, 0, 67, 106
1, 108660, Note_off_c, 0, 67, 106
1, 108660, Note_on_c, 0, 64, 104
1, 108774, Note_off_c, 0, 64, 104
1, 108780, Note_on_c, 0, 63, 99
1, 109159, Note_off_c, 0, 63, 99
1, 110307, Note_on_c, 0, 60, 110
1, 110380, Note_off_c, 0, 60, 110
1, 110381, Note_on_c, 0, 63, 111
1, 110448, Note_off_c, 0, 63, 111
1, 110453, Note_on_c, 0, 65, 115
1, 110550, Note_off_c, 0, 65, 115
1, 110555, Note_on_c, 0, 67, 120
1, 110669, Note_off_c, 0, 67, 120
1, 110679, Note_on_c, 0, 63, 115
1, 110720, Note_off_c, 0, 63, 115
1, 110726, Note_on_c, 0, 65, 103
1, 110964, Note_off_c, 0, 65, 103
1, 111420, Note_on_c, 0, 60, 111
1, 111503, Note_off_c, 0, 60, 111
1, 111600, Note_on_c, 0, 61, 104
1, 111688, Note_off_c, 0, 61, 104
1, 111765, Note_on_c, 0, 60, 105
1, 111840, Note_off_c, 0, 60, 105
1, 111854, Note_on_c, 0, 58, 102
1, 111939, Note_off_c, 0, 58, 102
1, 111958, Note_on_c, 0, 58, 103
1, 112039, Note_off_c, 0, 58, 103
1, 112048, Note_on_c, 0, 58, 107
1, 112138, Note_off_c, 0, 58, 107
1, 112152, Note_on_c, 0, 58, 107
1, 112228, Note_off_c, 0, 58, 107
1, 112247, Note_on_c, 0, 58, 106
1, 112352, Note_off_c, 0, 58, 106
1, 113519, Note_on_c, 0, 59, 102
1, 113586, Note_off_c, 0, 59, 102
1, 113587, Note_on_c, 0, 63, 105
1, 113680, Note_off_c, 0, 63, 105
1, 113681, Note_on_c, 0, 65, 117
1, 113771, Note_off_c, 0, 65, 117
1, 113787, Note_on_c, 0, 67, 115
1, 113880, Note_off_c, 0, 67, 115
1, 113888, Note_on_c, 0, 68, 110
1, 113956, Note_off_c, 0, 68, 110
1, 113961, Note_on_c, 0, 70, 113
1, 114048, Note_off_c, 0, 70, 113
1, 114162, Note_on_c, 0, 59, 108
1, 114321, Note_off_c, 0, 59, 108
1, 114322, Note_on_c, 0, 62, 106
1, 114484, Note_off_c, 0, 62, 106
1, 114492, Note_on_c, 0, 65, 121
1, 114669, Note_off_c, 0, 65, 121
1, 114674, Note_on_c, 0, 68, 115
1, 114867, Note_off_c, 0, 68, 115
1, 114869, Note_on_c, 0, 70, 105
1, 115038, Note_off_c, 0, 70, 105
1, 115065, Note_on_c, 0, 75, 121
1, 115226, Note_off_c, 0, 75, 121
1, 115229, Note_on_c, 0, 78, 119
1, 115428, Note_off_c, 0, 78, 119
1, 115431, Note_on_c, 0, 77, 116
1, 115598, Note_off_c, 0, 77, 116
1, 115603, Note_on_c, 0, 74, 109
1, 115785, Note_off_c, 0, 74, 109
1, 115786, Note_on_c, 0, 71, 100
1, 115970, Note_off_c, 0, 71, 100
1, 115976, Note_on_c, 0, 67, 107
1, 116170, Note_off_c, 0, 67, 107
1, 116183, Note_on_c, 0, 68, 108
1, 116337, Note_off_c, 0, 68, 108
1, 116367, Note_on_c, 0, 65, 102
1, 116424, Note_off_c, 0, 65, 102
1, 116424, Note_on_c, 0, 70, 107
1, 116539, Note_off_c, 0, 70, 107
1, 116554, Note_on_c, 0, 65, 106
1, 116647, Note_off_c, 0, 65, 106
1, 116657, Note_on_c, 0, 66, 102
1, 116745, Note_off_c, 0, 66, 102
1, 116765, Note_on_c, 0, 70, 103
1, 116838, Note_off_c, 0, 70, 103
1, 116843, Note_on_c, 0, 73, 106
1, 116936, Note_off_c, 0, 73, 106
1, 116941, Note_on_c, 0, 77, 113
1, 117021, Note_off_c, 0, 77, 113
1, 117026, Note_on_c, 0, 80, 119
1, 117138, Note_off_c, 0, 80, 119
1, 117153, Note_on_c, 0, 77, 103
1, 117208, Note_off_c, 0, 77, 103
1, 117208, Note_on_c, 0, 79, 116
1, 117320, Note_off_c, 0, 79, 116
1, 117325, Note_on_c, 0, 77, 112
1, 117393, Note_off_c, 0, 77, 112
1, 117396, Note_on_c, 0, 74, 108
1, 117501, Note_off_c, 0, 74, 108
1, 117504, Note_on_c, 0, 71, 93
1, 117631, Note_off_c, 0, 71, 93
1, 117941, Note_on_c, 0, 70, 109
1, 118021, Note_off_c, 0, 70, 109
1, 118326, Note_on_c, 0, 78, 118
1, 118448, Note_off_c, 0, 78, 118
1, 118451, Note_on_c, 0, 73, 110
1, 118524, Note_off_c, 0, 73, 110
1, 118527, Note_on_c, 0, 75, 112
1, 118595, Note_off_c, 0, 75, 112
1, 118769, Note_on_c, 0, 74, 100
1, 118898, Note_off_c, 0, 74, 100
1, 119106, Note_on_c, 0, 69, 108
1, 119235, Note_off_c, 0, 69, 108
1, 119243, Note_on_c, 0, 62, 94
1, 119318, Note_off_c, 0, 62, 94
1, 119326, Note_on_c, 0, 63, 103
1, 119446, Note_off_c, 0, 63, 103
1, 119454, Note_on_c, 0, 74, 111
1, 119553, Note_off_c, 0, 74, 111
1, 119871, Note_on_c, 0, 72, 92
1, 119995, Note_off_c, 0, 72, 92
1, 120196, Note_on_c, 0, 75, 95
1, 120315, Note_off_c, 0, 75, 95
1, 120573, Note_on_c, 0, 74, 109
1, 120668, Note_off_c, 0, 74, 109
1, 120760, Note_on_c, 0, 71, 106
1, 120822, Note_off_c, 0, 71, 106
1, 120936, Note_on_c, 0, 69, 105
1, 121013, Note_off_c, 0, 69, 105
1, 121021, Note_on_c, 0, 70, 111
1, 121094, Note_off_c, 0, 70, 111
1, 121107, Note_on_c, 0, 70, 111
1, 121179, Note_off_c, 0, 70, 111
1, 121199, Note_on_c, 0, 70, 113
1, 121284, Note_off_c, 0, 70, 113
1, 121299, Note_on_c, 0, 70, 113
1, 121381, Note_off_c, 0, 70, 113
1, 121391, Note_on_c, 0, 70, 108
1, 121473, Note_off_c, 0, 70, 108
1, 121832, Note_on_c, 0, 61, 114
1, 121875, Note_off_c, 0, 61, 114
1, 121876, Note_on_c, 0, 62, 111
1, 121939, Note_off_c, 0, 62, 111
1, 121944, Note_on_c, 0, 64, 110
1, 121962, Note_off_c, 0, 64, 110
1, 121968, Note_on_c, 0, 66, 111
1, 122008, Note_off_c, 0, 66, 111
1, 122013, Note_on_c, 0, 67, 109
1, 122046, Note_off_c, 0, 67, 109
1, 122051, Note_on_c, 0, 70, 110
1, 122084, Note_off_c, 0, 70, 110
1, 122092, Note_on_c, 0, 72, 107
1, 122125, Note_off_c, 0, 72, 107
1, 122130, Note_on_c, 0, 73, 114
1, 122156, Note_off_c, 0, 73, 114
1, 122159, Note_on_c, 0, 76, 124
1, 122227, Note_off_c, 0, 76, 124
1, 122235, Note_on_c, 0, 78, 112
1, 122248, Note_off_c, 0, 78, 112
1, 122251, Note_on_c, 0, 82, 113
1, 122301, Note_off_c, 0, 82, 113
1, 122301, Note_on_c, 0, 84, 109
1, 122386, Note_off_c, 0, 84, 109
1, 122387, Note_on_c, 0, 82, 112
1, 122460, Note_on_c, 0, 79, 107
1, 122460, Note_off_c, 0, 82, 112
1, 122493, Note_off_c, 0, 79, 107
1, 122494, Note_on_c, 0, 73, 105
1, 122532, Note_off_c, 0, 73, 105
1, 122557, Note_on_c, 0, 72, 89
1, 122605, Note_off_c, 0, 72, 89
1, 123378, Note_on_c, 0, 80, 123
1, 123483, Note_off_c, 0, 80, 123
1, 123556, Note_on_c, 0, 84, 117
1, 123643, Note_off_c, 0, 84, 117
1, 123644, Note_on_c, 0, 82, 123
1, 123739, Note_off_c, 0, 82, 123
1, 123740, Note_on_c, 0, 78, 126
1, 123830, Note_off_c, 0, 78, 126
1, 123841, Note_on_c, 0, 77, 126
1, 123911, Note_off_c, 0, 77, 126
1, 123916, Note_on_c, 0, 76, 123
1, 123996, Note_off_c, 0, 76, 123
1, 123997, Note_on_c, 0, 75, 123
1, 124106, Note_on_c, 0, 77, 125
1, 124106, Note_off_c, 0, 75, 123
1, 124193, Note_off_c, 0, 77, 125
1, 124198, Note_on_c, 0, 79, 123
1, 124291, Note_off_c, 0, 79, 123
1, 124302, Note_on_c, 0, 81, 120
1, 124384, Note_off_c, 0, 81, 120
1, 124390, Note_on_c, 0, 74, 117
1, 124500, Note_off_c, 0, 74, 117
1, 124500, Note_on_c, 0, 76, 120
1, 124592, Note_off_c, 0, 76, 120
1, 124600, Note_on_c, 0, 78, 99
1, 124685, Note_off_c, 0, 78, 99
1, 124688, Note_on_c, 0, 79, 118
1, 124781, Note_off_c, 0, 79, 118
1, 124782, Note_on_c, 0, 81, 113
1, 124872, Note_off_c, 0, 81, 113
1, 124882, Note_on_c, 0, 78, 119
1, 124944, Note_off_c, 0, 78, 119
1, 124944, Note_on_c, 0, 73, 115
1, 125061, Note_off_c, 0, 73, 115
1, 125064, Note_on_c, 0, 71, 98
1, 125104, Note_off_c, 0, 71, 98
1, 125105, Note_on_c, 0, 76, 120
1, 125227, Note_off_c, 0, 76, 120
1, 125227, Note_on_c, 0, 73, 109
1, 125277, Note_off_c, 0, 73, 109
1, 125283, Note_on_c, 0, 75, 118
1, 125397, Note_off_c, 0, 75, 118
1, 125398, Note_on_c, 0, 73, 110
1, 125480, Note_off_c, 0, 73, 110
1, 125496, Note_on_c, 0, 72, 106
1, 125549, Note_off_c, 0, 72, 106
1, 125612, Note_on_c, 0, 68, 98
1, 125690, Note_off_c, 0, 68, 98
1, 125701, Note_on_c, 0, 67, 105
1, 125833, Note_off_c, 0, 67, 105
1, 125833, Note_on_c, 0, 64, 115
1, 125883, Note_off_c, 0, 64, 115
1, 125883, Note_on_c, 0, 70, 110
1, 125983, Note_off_c, 0, 70, 110
1, 125984, Note_on_c, 0, 67, 111
1, 126051, Note_off_c, 0, 67, 111
1, 126054, Note_on_c, 0, 68, 113
1, 126151, Note_off_c, 0, 68, 113
1, 126166, Note_on_c, 0, 68, 114
1, 126265, Note_off_c, 0, 68, 114
1, 126275, Note_on_c, 0, 67, 117
1, 126363, Note_off_c, 0, 67, 117
1, 126369, Note_on_c, 0, 66, 114
1, 126441, Note_off_c, 0, 66, 114
1, 126444, Note_on_c, 0, 65, 118
1, 126537, Note_off_c, 0, 65, 118
1, 126552, Note_on_c, 0, 64, 111
1, 126622, Note_off_c, 0, 64, 111
1, 126638, Note_on_c, 0, 63, 112
1, 126730, Note_off_c, 0, 63, 112
1, 126735, Note_on_c, 0, 66, 110
1, 126825, Note_off_c, 0, 66, 110
1, 126830, Note_on_c, 0, 69, 107
1, 126915, Note_off_c, 0, 69, 107
1, 126938, Note_on_c, 0, 66, 104
1, 126993, Note_off_c, 0, 66, 104
1, 127001, Note_on_c, 0, 70, 105
1, 127110, Note_off_c, 0, 70, 105
1, 127123, Note_on_c, 0, 66, 106
1, 127208, Note_off_c, 0, 66, 106
1, 127221, Note_on_c, 0, 67, 107
1, 127274, Note_off_c, 0, 67, 107
1, 127274, Note_on_c, 0, 70, 99
1, 127329, Note_off_c, 0, 70, 99
1, 127330, Note_on_c, 0, 74, 101
1, 127371, Note_off_c, 0, 74, 101
1, 127379, Note_on_c, 0, 77, 125
1, 127457, Note_off_c, 0, 77, 125
1, 127465, Note_on_c, 0, 73, 109
1, 127550, Note_off_c, 0, 73, 109
1, 127551, Note_on_c, 0, 69, 105
1, 127643, Note_off_c, 0, 69, 105
1, 127664, Note_on_c, 0, 65, 108
1, 127734, Note_off_c, 0, 65, 108
1, 127734, Note_on_c, 0, 70, 98
1, 127841, Note_off_c, 0, 70, 98
1, 127866, Note_on_c, 0, 61, 103
1, 127926, Note_off_c, 0, 61, 103
1, 127927, Note_on_c, 0, 63, 108
1, 128029, Note_off_c, 0, 63, 108
1, 128089, Note_on_c, 0, 66, 113
1, 128129, Note_off_c, 0, 66, 113
1, 128140, Note_on_c, 0, 65, 115
1, 128233, Note_off_c, 0, 65, 115
1, 128236, Note_on_c, 0, 63, 110
1, 128303, Note_off_c, 0, 63, 110
1, 128314, Note_on_c, 0, 64, 107
1, 128423, Note_off_c, 0, 64, 107
1, 128429, Note_on_c, 0, 61, 108
1, 128514, Note_off_c, 0, 61, 108
1, 128519, Note_on_c, 0, 60, 103
1, 128602, Note_off_c, 0, 60, 103
1, 128607, Note_on_c, 0, 58, 101
1, 128689, Note_off_c, 0, 58, 101
1, 128699, Note_on_c, 0, 56, 93
1, 128824, Note_off_c, 0, 56, 93
1, 128825, Note_on_c, 0, 60, 87
1, 128866, Note_off_c, 0, 60, 87
1, 128899, Note_on_c, 0, 67, 112
1, 129001, Note_off_c, 0, 67, 112
1, 129014, Note_on_c, 0, 64, 107
1, 129069, Note_off_c, 0, 64, 107
1, 129077, Note_on_c, 0, 65, 109
1, 129160, Note_off_c, 0, 65, 109
1, 129165, Note_on_c, 0, 67, 110
1, 129285, Note_off_c, 0, 67, 110
1, 129286, Note_on_c, 0, 68, 112
1, 129364, Note_off_c, 0, 68, 112
1, 129372, Note_on_c, 0, 70, 101
1, 129454, Note_off_c, 0, 70, 101
1, 129455, Note_on_c, 0, 72, 108
1, 129564, Note_off_c, 0, 72, 108
1, 129565, Note_on_c, 0, 74, 107
1, 129620, Note_off_c, 0, 74, 107
1, 129623, Note_on_c, 0, 77, 124
1, 129742, Note_off_c, 0, 77, 124
1, 129742, Note_on_c, 0, 74, 111
1, 129795, Note_off_c, 0, 74, 111
1, 129800, Note_on_c, 0, 76, 112
1, 129836, Note_off_c, 0, 76, 112
1, 129837, Note_on_c, 0, 71, 100
1, 129966, Note_off_c, 0, 71, 100
1, 129968, Note_on_c, 0, 70, 98
1, 130238, Note_off_c, 0, 70, 98
1, 130238, End_track
0, 0, End_of_file
