0, 0, Header, 1, 1, 27720
1, 0, Start_track
1, 0, Title_t, "Melody"
1, 0, Tempo, 500000
1, 0, Key_signature, -2, "major"
1, 0, Time_signature, 4, 2, 24, 8
1, 5237180, Note_on_c, 0, 65, 95
1, 5242329, Note_off_c, 0, 65, 95
1, 5247639, Note_on_c, 0, 69, 107
1, 5277247, Note_off_c, 0, 69, 107
1, 5278695, Note_on_c, 0, 72, 104
1, 5287062, Note_off_c, 0, 72, 104
1, 5302992, Note_on_c, 0, 72, 87
1, 5316186, Note_off_c, 0, 72, 87
1, 5458008, Note_on_c, 0, 60, 101
1, 5461306, Note_off_c, 0, 60, 101
1, 5462136, Note_on_c, 0, 62, 98
1, 5464794, Note_off_c, 0, 62, 98
1, 5465416, Note_on_c, 0, 66, 107
1, 5467509, Note_off_c, 0, 66, 107
1, 5467791, Note_on_c, 0, 71, 106
1, 5470167, Note_off_c, 0, 71, 106
1, 5470902, Note_on_c, 0, 75, 116
1, 5473843, Note_off_c, 0, 75, 116
1, 5474804, Note_on_c, 0, 77, 117
1, 5476727, Note_off_c, 0, 77, 117
1, 5477179, Note_on_c, 0, 80, 123
1, 5478593, Note_off_c, 0, 80, 123
1, 5479215, Note_on_c, 0, 82, 125
1, 5480629, Note_off_c, 0, 82, 125
1, 5481703, Note_on_c, 0, 80, 89
1, 5483060, Note_off_c, 0, 80, 89
1, 5483852, Note_on_c, 0, 77, 120
1, 5487868, Note_off_c, 0, 77, 120
1, 5488829, Note_on_c, 0, 75, 113
1, 5492223, Note_off_c, 0, 75, 113
1, 5493297, Note_on_c, 0, 72, 102
1, 5496408, Note_off_c, 0, 72, 102
1, 5496917, Note_on_c, 0, 70, 101
1, 5500141, Note_off_c, 0, 70, 101
1, 5501046, Note_on_c, 0, 65, 108
1, 5503874, Note_off_c, 0, 65, 108
1, 5504496, Note_on_c, 0, 63, 107
1, 5508173, Note_off_c, 0, 63, 107
1, 5508908, Note_on_c, 0, 60, 101
1, 5512358, Note_off_c, 0, 60, 101
1, 5513545, Note_on_c, 0, 58, 92
1, 5528197, Note_off_c, 0, 58, 92
1, 5530007, Note_on_c, 0, 60, 96
1, 5551221, Note_off_c, 0, 60, 96
1, 5552635, Note_on_c, 0, 65, 103
1, 5561686, Note_off_c, 0, 65, 103
1, 5562760, Note_on_c, 0, 72, 103
1, 5566437, Note_off_c, 0, 72, 103
1, 5570566, Note_on_c, 0, 70, 109
1, 5581257, Note_off_c, 0, 70, 109
1, 5582501, Note_on_c, 0, 65, 103
1, 5612597, Note_off_c, 0, 65, 103
1, 5692181, Note_on_c, 0, 79, 93
1, 5693951, Note_off_c, 0, 79, 93
1, 5694353, Note_on_c, 0, 80, 124
1, 5695881, Note_off_c, 0, 80, 124
1, 5696243, Note_on_c, 0, 79, 125
1, 5698696, Note_off_c, 0, 79, 125
1, 5698977, Note_on_c, 0, 78, 124
1, 5702195, Note_off_c, 0, 78, 124
1, 5702355, Note_on_c, 0, 77, 125
1, 5704084, Note_off_c, 0, 77, 125
1, 5704647, Note_on_c, 0, 76, 123
1, 5707342, Note_off_c, 0, 76, 123
1, 5707502, Note_on_c, 0, 77, 123
1, 5709513, Note_off_c, 0, 77, 123
1, 5709633, Note_on_c, 0, 75, 115
1, 5713293, Note_off_c, 0, 75, 115
1, 5713775, Note_on_c, 0, 73, 104
1, 5716872, Note_off_c, 0, 73, 104
1, 5717073, Note_on_c, 0, 74, 105
1, 5721256, Note_off_c, 0, 74, 105
1, 5722382, Note_on_c, 0, 71, 105
1, 5725680, Note_off_c, 0, 71, 105
1, 5726444, Note_on_c, 0, 66, 109
1, 5730466, Note_off_c, 0, 66, 109
1, 5731029, Note_on_c, 0, 62, 104
1, 5735212, Note_off_c, 0, 62, 104
1, 5735976, Note_on_c, 0, 60, 95
1, 5741366, Note_off_c, 0, 60, 95
1, 5742572, Note_on_c, 0, 62, 89
1, 5747721, Note_off_c, 0, 62, 89
1, 5748927, Note_on_c, 0, 67, 97
1, 5755524, Note_off_c, 0, 67, 97
1, 5755805, Note_on_c, 0, 63, 98
1, 5758339, Note_off_c, 0, 63, 98
1, 5758821, Note_on_c, 0, 65, 81
1, 5763567, Note_off_c, 0, 65, 81
1, 5789249, Note_on_c, 0, 60, 89
1, 5792756, Note_off_c, 0, 60, 89
1, 5793830, Note_on_c, 0, 63, 93
1, 5797676, Note_off_c, 0, 63, 93
1, 5798072, Note_on_c, 0, 65, 103
1, 5803333, Note_off_c, 0, 65, 103
1, 5804011, Note_on_c, 0, 66, 102
1, 5806330, Note_off_c, 0, 66, 102
1, 5806726, Note_on_c, 0, 68, 108
1, 5811308, Note_off_c, 0, 68, 108
1, 5811534, Note_on_c, 0, 70, 108
1, 5815267, Note_off_c, 0, 70, 108
1, 5815549, Note_on_c, 0, 72, 100
1, 5819791, Note_off_c, 0, 72, 100
1, 5820979, Note_on_c, 0, 75, 105
1, 5825335, Note_off_c, 0, 75, 105
1, 5825787, Note_on_c, 0, 77, 121
1, 5830935, Note_off_c, 0, 77, 121
1, 5831387, Note_on_c, 0, 78, 118
1, 5834724, Note_off_c, 0, 78, 118
1, 5835572, Note_on_c, 0, 80, 120
1, 5840210, Note_off_c, 0, 80, 120
1, 5841454, Note_on_c, 0, 75, 112
1, 5844678, Note_off_c, 0, 75, 112
1, 5845017, Note_on_c, 0, 77, 122
1, 5849542, Note_off_c, 0, 77, 122
1, 5850503, Note_on_c, 0, 73, 103
1, 5852822, Note_off_c, 0, 73, 103
1, 5853104, Note_on_c, 0, 75, 112
1, 5858252, Note_off_c, 0, 75, 112
1, 5859100, Note_on_c, 0, 70, 100
1, 5862154, Note_off_c, 0, 70, 100
1, 5862493, Note_on_c, 0, 72, 98
1, 5867414, Note_off_c, 0, 72, 98
1, 5868092, Note_on_c, 0, 70, 102
1, 5872674, Note_off_c, 0, 70, 102
1, 5873183, Note_on_c, 0, 65, 106
1, 5877256, Note_off_c, 0, 65, 106
1, 5877765, Note_on_c, 0, 63, 102
1, 5882177, Note_off_c, 0, 63, 102
1, 5883195, Note_on_c, 0, 60, 88
1, 5885571, Note_off_c, 0, 60, 88
1, 5886136, Note_on_c, 0, 63, 104
1, 5891510, Note_off_c, 0, 63, 104
1, 5891623, Note_on_c, 0, 60, 87
1, 5893659, Note_off_c, 0, 60, 87
1, 5894394, Note_on_c, 0, 63, 104
1, 5899146, Note_off_c, 0, 63, 104
1, 5899598, Note_on_c, 0, 65, 107
1, 5903388, Note_off_c, 0, 65, 107
1, 5904066, Note_on_c, 0, 68, 106
1, 5908139, Note_off_c, 0, 68, 106
1, 5908535, Note_on_c, 0, 67, 109
1, 5910684, Note_off_c, 0, 67, 109
1, 5910910, Note_on_c, 0, 70, 110
1, 5914304, Note_off_c, 0, 70, 110
1, 5914756, Note_on_c, 0, 75, 111
1, 5918037, Note_off_c, 0, 75, 111
1, 5918376, Note_on_c, 0, 77, 114
1, 5921374, Note_off_c, 0, 77, 114
1, 5921996, Note_on_c, 0, 79, 111
1, 5924202, Note_off_c, 0, 79, 111
1, 5924315, Note_on_c, 0, 80, 121
1, 5927709, Note_off_c, 0, 80, 121
1, 5928274, Note_on_c, 0, 81, 123
1, 5930536, Note_off_c, 0, 81, 123
1, 5931045, Note_on_c, 0, 82, 105
1, 5934269, Note_off_c, 0, 82, 105
1, 5934891, Note_on_c, 0, 77, 117
1, 5938737, Note_off_c, 0, 77, 117
1, 5939133, Note_on_c, 0, 72, 97
1, 5942074, Note_off_c, 0, 72, 97
1, 5942526, Note_on_c, 0, 75, 116
1, 5946485, Note_off_c, 0, 75, 116
1, 5947107, Note_on_c, 0, 70, 108
1, 5950048, Note_off_c, 0, 70, 108
1, 5950500, Note_on_c, 0, 72, 97
1, 5952989, Note_off_c, 0, 72, 97
1, 5954233, Note_on_c, 0, 68, 108
1, 5960003, Note_off_c, 0, 68, 108
1, 5960229, Note_on_c, 0, 69, 112
1, 5963340, Note_off_c, 0, 69, 112
1, 5964188, Note_on_c, 0, 63, 109
1, 5967016, Note_off_c, 0, 63, 109
1, 5967242, Note_on_c, 0, 65, 118
1, 5971145, Note_off_c, 0, 65, 118
1, 5971484, Note_on_c, 0, 60, 103
1, 5974878, Note_off_c, 0, 60, 103
1, 5975783, Note_on_c, 0, 63, 112
1, 5980308, Note_off_c, 0, 63, 112
1, 5981043, Note_on_c, 0, 58, 104
1, 5985851, Note_off_c, 0, 58, 104
1, 5987095, Note_on_c, 0, 56, 99
1, 5993883, Note_off_c, 0, 56, 99
1, 6045363, Note_on_c, 0, 77, 122
1, 6051303, Note_off_c, 0, 77, 122
1, 6052038, Note_on_c, 0, 79, 77
1, 6053678, Note_off_c, 0, 79, 77
1, 6054526, Note_on_c, 0, 82, 121
1, 6060522, Note_off_c, 0, 82, 121
1, 6062671, Note_on_c, 0, 84, 118
1, 6069063, Note_off_c, 0, 84, 118
1, 6069968, Note_on_c, 0, 86, 115
1, 6076530, Note_off_c, 0, 86, 115
1, 6077491, Note_on_c, 0, 82, 119
1, 6086372, Note_off_c, 0, 82, 119
1, 6087729, Note_on_c, 0, 84, 106
1, 6122350, Note_off_c, 0, 84, 106
1, 6255755, Note_on_c, 0, 80, 123
1, 6261869, Note_off_c, 0, 80, 123
1, 6263397, Note_on_c, 0, 82, 114
1, 6268224, Note_off_c, 0, 82, 114
1, 6268626, Note_on_c, 0, 84, 122
1, 6276188, Note_off_c, 0, 84, 122
1, 6276992, Note_on_c, 0, 85, 111
1, 6282865, Note_off_c, 0, 85, 111
1, 6283347, Note_on_c, 0, 84, 117
1, 6288335, Note_off_c, 0, 84, 117
1, 6289059, Note_on_c, 0, 82, 124
1, 6299437, Note_off_c, 0, 82, 124
1, 6324620, Note_on_c, 0, 75, 117
1, 6330815, Note_off_c, 0, 75, 117
1, 6333711, Note_on_c, 0, 80, 123
1, 6340710, Note_off_c, 0, 80, 123
1, 6341273, Note_on_c, 0, 82, 124
1, 6347548, Note_off_c, 0, 82, 124
1, 6348593, Note_on_c, 0, 84, 119
1, 6356960, Note_off_c, 0, 84, 119
1, 6357845, Note_on_c, 0, 82, 123
1, 6365568, Note_off_c, 0, 82, 123
1, 6371280, Note_on_c, 0, 80, 118
1, 6377394, Note_off_c, 0, 80, 118
1, 6384232, Note_on_c, 0, 77, 127
1, 6390346, Note_off_c, 0, 77, 127
1, 6392679, Note_on_c, 0, 75, 115
1, 6400161, Note_off_c, 0, 75, 115
1, 6400885, Note_on_c, 0, 75, 112
1, 6406758, Note_off_c, 0, 75, 112
1, 6409413, Note_on_c, 0, 80, 120
1, 6417217, Note_off_c, 0, 80, 120
1, 6419067, Note_on_c, 0, 77, 114
1, 6443365, Note_off_c, 0, 77, 114
1, 6639358, Note_on_c, 0, 75, 107
1, 6650380, Note_off_c, 0, 75, 107
1, 6652874, Note_on_c, 0, 80, 125
1, 6662207, Note_off_c, 0, 80, 125
1, 6663252, Note_on_c, 0, 77, 126
1, 6670332, Note_off_c, 0, 77, 126
1, 6672745, Note_on_c, 0, 72, 109
1, 6680388, Note_off_c, 0, 72, 109
1, 6681433, Note_on_c, 0, 75, 120
1, 6688271, Note_off_c, 0, 75, 120
1, 6689558, Note_on_c, 0, 70, 10
1, 6696799, Note_off_c, 0, 70, 10
1, 6697684, Note_on_c, 0, 65, 110
1, 6703155, Note_off_c, 0, 65, 110
1, 6704361, Note_on_c, 0, 63, 108
1, 6712326, Note_off_c, 0, 63, 108
1, 6713613, Note_on_c, 0, 60, 96
1, 6717877, Note_off_c, 0, 60, 96
1, 6719486, Note_on_c, 0, 68, 115
1, 6725761, Note_off_c, 0, 68, 115
1, 6727128, Note_on_c, 0, 65, 117
1, 6731874, Note_off_c, 0, 65, 117
1, 6733322, Note_on_c, 0, 63, 109
1, 6740563, Note_off_c, 0, 63, 109
1, 6741206, Note_on_c, 0, 60, 98
1, 6746677, Note_off_c, 0, 60, 98
1, 6748366, Note_on_c, 0, 58, 100
1, 6776767, Note_off_c, 0, 58, 100
1, 6817156, Note_on_c, 0, 58, 90
1, 6823431, Note_off_c, 0, 58, 90
1, 6823672, Note_on_c, 0, 60, 83
1, 6828258, Note_off_c, 0, 60, 83
1, 6829545, Note_on_c, 0, 63, 98
1, 6836947, Note_off_c, 0, 63, 98
1, 6837349, Note_on_c, 0, 65, 98
1, 6843302, Note_off_c, 0, 65, 98
1, 6844750, Note_on_c, 0, 67, 97
1, 6849416, Note_off_c, 0, 67, 97
1, 6851749, Note_on_c, 0, 63, 96
1, 6856415, Note_off_c, 0, 63, 96
1, 6856897, Note_on_c, 0, 65, 100
1, 6863816, Note_off_c, 0, 65, 100
1, 6872585, Note_on_c, 0, 65, 102
1, 6876366, Note_off_c, 0, 65, 102
1, 6877492, Note_on_c, 0, 65, 88
1, 6880790, Note_off_c, 0, 65, 88
1, 6886582, Note_on_c, 0, 72, 80
1, 6891087, Note_off_c, 0, 72, 80
1, 6897201, Note_on_c, 0, 72, 87
1, 6901304, Note_off_c, 0, 72, 87
1, 6911682, Note_on_c, 0, 77, 108
1, 6916831, Note_off_c, 0, 77, 108
1, 6924474, Note_on_c, 0, 77, 116
1, 6930910, Note_off_c, 0, 77, 116
1, 6932277, Note_on_c, 0, 72, 90
1, 6939679, Note_off_c, 0, 72, 90
1, 6946678, Note_on_c, 0, 72, 99
1, 6950620, Note_off_c, 0, 72, 99
1, 6952390, Note_on_c, 0, 65, 99
1, 6959631, Note_off_c, 0, 65, 99
1, 7004847, Note_on_c, 0, 60, 92
1, 7010076, Note_off_c, 0, 60, 92
1, 7010639, Note_on_c, 0, 63, 95
1, 7015144, Note_off_c, 0, 63, 95
1, 7016511, Note_on_c, 0, 65, 107
1, 7022303, Note_off_c, 0, 65, 107
1, 7024153, Note_on_c, 0, 68, 105
1, 7031474, Note_off_c, 0, 68, 105
1, 7047806, Note_on_c, 0, 70, 105
1, 7053035, Note_off_c, 0, 70, 105
1, 7073712, Note_on_c, 0, 72, 102
1, 7080229, Note_off_c, 0, 72, 102
1, 7100343, Note_on_c, 0, 73, 107
1, 7108308, Note_off_c, 0, 73, 107
1, 7136709, Note_on_c, 0, 75, 111
1, 7143708, Note_off_c, 0, 75, 111
1, 7150788, Note_on_c, 0, 77, 118
1, 7159396, Note_off_c, 0, 77, 118
1, 7193670, Note_on_c, 0, 80, 116
1, 7201072, Note_off_c, 0, 80, 116
1, 7206060, Note_on_c, 0, 82, 122
1, 7213542, Note_off_c, 0, 82, 122
1, 7220139, Note_on_c, 0, 84, 118
1, 7227782, Note_off_c, 0, 84, 118
1, 7234138, Note_on_c, 0, 82, 98
1, 7237597, Note_off_c, 0, 82, 98
1, 7238240, Note_on_c, 0, 84, 118
1, 7244757, Note_off_c, 0, 84, 118
1, 7245642, Note_on_c, 0, 83, 116
1, 7249021, Note_off_c, 0, 83, 116
1, 7250630, Note_on_c, 0, 82, 117
1, 7281123, Note_off_c, 0, 82, 117
1, 7281686, Note_on_c, 0, 70, 112
1, 7285065, Note_off_c, 0, 70, 112
1, 7293834, Note_on_c, 0, 82, 117
1, 7300833, Note_off_c, 0, 82, 117
1, 7302442, Note_on_c, 0, 83, 114
1, 7308798, Note_off_c, 0, 83, 114
1, 7309602, Note_on_c, 0, 82, 110
1, 7311854, Note_off_c, 0, 82, 110
1, 7314021, Note_on_c, 0, 84, 109
1, 7420309, Note_off_c, 0, 84, 109
1, 7420872, Note_on_c, 0, 72, 91
1, 7424573, Note_off_c, 0, 72, 91
1, 7429722, Note_on_c, 0, 82, 118
1, 7436480, Note_off_c, 0, 82, 118
1, 7437204, Note_on_c, 0, 84, 115
1, 7443640, Note_off_c, 0, 84, 115
1, 7444042, Note_on_c, 0, 83, 113
1, 7449352, Note_off_c, 0, 83, 113
1, 7451041, Note_on_c, 0, 82, 115
1, 7458040, Note_off_c, 0, 82, 115
1, 7460453, Note_on_c, 0, 80, 117
1, 7465360, Note_off_c, 0, 80, 117
1, 7467290, Note_on_c, 0, 77, 114
1, 7472600, Note_off_c, 0, 77, 114
1, 7474209, Note_on_c, 0, 75, 109
1, 7482093, Note_off_c, 0, 75, 109
1, 7482978, Note_on_c, 0, 72, 84
1, 7488368, Note_off_c, 0, 72, 84
1, 7488931, Note_on_c, 0, 74, 108
1, 7494884, Note_off_c, 0, 74, 108
1, 7495929, Note_on_c, 0, 71, 99
1, 7500515, Note_off_c, 0, 71, 99
1, 7501721, Note_on_c, 0, 67, 106
1, 7509283, Note_off_c, 0, 67, 106
1, 7510972, Note_on_c, 0, 62, 89
1, 7515075, Note_off_c, 0, 62, 89
1, 7515718, Note_on_c, 0, 65, 105
1, 7524166, Note_off_c, 0, 65, 105
1, 7525936, Note_on_c, 0, 60, 84
1, 7528993, Note_off_c, 0, 60, 84
1, 7530119, Note_on_c, 0, 65, 99
1, 7535751, Note_off_c, 0, 65, 99
1, 7537440, Note_on_c, 0, 67, 105
1, 7543072, Note_off_c, 0, 67, 105
1, 7544117, Note_on_c, 0, 68, 102
1, 7549105, Note_off_c, 0, 68, 102
1, 7551035, Note_on_c, 0, 70, 104
1, 7557230, Note_off_c, 0, 70, 104
1, 7558275, Note_on_c, 0, 72, 98
1, 7562700, Note_off_c, 0, 72, 98
1, 7563665, Note_on_c, 0, 75, 109
1, 7571549, Note_off_c, 0, 75, 109
1, 7572112, Note_on_c, 0, 72, 97
1, 7577985, Note_off_c, 0, 72, 97
1, 7578387, Note_on_c, 0, 73, 95
1, 7582088, Note_off_c, 0, 73, 95
1, 7582973, Note_on_c, 0, 74, 104
1, 7584823, Note_off_c, 0, 74, 104
1, 7585064, Note_on_c, 0, 75, 108
1, 7591661, Note_off_c, 0, 75, 108
1, 7592546, Note_on_c, 0, 73, 98
1, 7598821, Note_off_c, 0, 73, 98
1, 7599706, Note_on_c, 0, 72, 97
1, 7605901, Note_off_c, 0, 72, 97
1, 7605901, Note_on_c, 0, 73, 98
1, 7612337, Note_off_c, 0, 73, 98
1, 7613865, Note_on_c, 0, 77, 112
1, 7622152, Note_off_c, 0, 77, 112
1, 7622956, Note_on_c, 0, 80, 114
1, 7628829, Note_off_c, 0, 80, 114
1, 7629714, Note_on_c, 0, 82, 116
1, 7638081, Note_off_c, 0, 82, 116
1, 7638885, Note_on_c, 0, 80, 104
1, 7642586, Note_off_c, 0, 80, 104
1, 7643068, Note_on_c, 0, 82, 113
1, 7649745, Note_off_c, 0, 82, 113
1, 7651032, Note_on_c, 0, 80, 111
1, 7655939, Note_off_c, 0, 80, 111
1, 7657065, Note_on_c, 0, 77, 110
1, 7663018, Note_off_c, 0, 77, 110
1, 7664707, Note_on_c, 0, 75, 112
1, 7671143, Note_off_c, 0, 75, 112
1, 7672269, Note_on_c, 0, 72, 97
1, 7677740, Note_off_c, 0, 72, 97
1, 7678705, Note_on_c, 0, 70, 93
1, 7683291, Note_off_c, 0, 70, 93
1, 7684176, Note_on_c, 0, 72, 100
1, 7690129, Note_off_c, 0, 72, 100
1, 7691335, Note_on_c, 0, 70, 92
1, 7697530, Note_off_c, 0, 70, 92
1, 7698173, Note_on_c, 0, 72, 100
1, 7704448, Note_off_c, 0, 72, 100
1, 7705896, Note_on_c, 0, 70, 101
1, 7711769, Note_off_c, 0, 70, 101
1, 7712010, Note_on_c, 0, 68, 107
1, 7718768, Note_off_c, 0, 68, 107
1, 7720698, Note_on_c, 0, 68, 107
1, 7726008, Note_off_c, 0, 68, 107
1, 7726490, Note_on_c, 0, 65, 106
1, 7733007, Note_off_c, 0, 65, 106
1, 7735179, Note_on_c, 0, 63, 102
1, 7740247, Note_off_c, 0, 63, 102
1, 7740810, Note_on_c, 0, 60, 92
1, 7747729, Note_off_c, 0, 60, 92
1, 7749418, Note_on_c, 0, 62, 96
1, 7753682, Note_off_c, 0, 62, 96
1, 7755130, Note_on_c, 0, 65, 94
1, 7761647, Note_off_c, 0, 65, 94
1, 7763336, Note_on_c, 0, 70, 94
1, 7768968, Note_off_c, 0, 70, 94
1, 7770416, Note_on_c, 0, 72, 94
1, 7777415, Note_off_c, 0, 72, 94
1, 7784495, Note_on_c, 0, 77, 105
1, 7789805, Note_off_c, 0, 77, 105
1, 7798253, Note_on_c, 0, 71, 90
1, 7801069, Note_off_c, 0, 71, 90
1, 7801471, Note_on_c, 0, 73, 95
1, 7803723, Note_off_c, 0, 73, 95
1, 7803883, Note_on_c, 0, 74, 100
1, 7821664, Note_off_c, 0, 74, 100
1, 7823004, Note_on_c, 0, 65, 85
1, 7851063, Note_off_c, 0, 65, 85
1, 7968052, Note_on_c, 0, 79, 107
1, 7971559, Note_off_c, 0, 79, 107
1, 7972916, Note_on_c, 0, 77, 120
1, 7980383, Note_off_c, 0, 77, 120
1, 7987397, Note_on_c, 0, 80, 119
1, 7996222, Note_off_c, 0, 80, 119
1, 8017605, Note_on_c, 0, 80, 121
1, 8023827, Note_off_c, 0, 80, 121
1, 8035820, Note_on_c, 0, 77, 118
1, 8042156, Note_off_c, 0, 77, 118
1, 8043966, Note_on_c, 0, 72, 99
1, 8051433, Note_off_c, 0, 72, 99
1, 8079039, Note_on_c, 0, 72, 100
1, 8084130, Note_off_c, 0, 72, 100
1, 8085827, Note_on_c, 0, 77, 118
1, 8095444, Note_off_c, 0, 77, 118
1, 8098838, Note_on_c, 0, 80, 115
1, 8107436, Note_off_c, 0, 80, 115
1, 8135269, Note_on_c, 0, 80, 121
1, 8141152, Note_off_c, 0, 80, 121
1, 8148166, Note_on_c, 0, 80, 120
1, 8154162, Note_off_c, 0, 80, 120
1, 8156651, Note_on_c, 0, 77, 116
1, 8162421, Note_off_c, 0, 77, 116
1, 8163552, Note_on_c, 0, 77, 115
1, 8169322, Note_off_c, 0, 77, 115
1, 8170453, Note_on_c, 0, 72, 92
1, 8176223, Note_off_c, 0, 72, 92
1, 8194552, Note_on_c, 0, 70, 111
1, 8200209, Note_off_c, 0, 70, 111
1, 8202454, Note_on_c, 0, 77, 80
1, 8206557, Note_off_c, 0, 77, 80
1, 8207683, Note_on_c, 0, 77, 82
1, 8211384, Note_off_c, 0, 77, 82
1, 8220958, Note_on_c, 0, 82, 119
1, 8227877, Note_off_c, 0, 82, 119
1, 8264806, Note_on_c, 0, 82, 125
1, 8272610, Note_off_c, 0, 82, 125
1, 8273522, Note_on_c, 0, 70, 116
1, 8278160, Note_off_c, 0, 70, 116
1, 8279065, Note_on_c, 0, 58, 98
1, 8288342, Note_off_c, 0, 58, 98
1, 8343651, Note_on_c, 0, 56, 108
1, 8347915, Note_off_c, 0, 56, 108
1, 8349041, Note_on_c, 0, 68, 100
1, 8350681, Note_off_c, 0, 68, 100
1, 8351454, Note_on_c, 0, 65, 108
1, 8353320, Note_off_c, 0, 65, 108
1, 8354510, Note_on_c, 0, 63, 109
1, 8359015, Note_off_c, 0, 63, 109
1, 8359844, Note_on_c, 0, 65, 101
1, 8362389, Note_off_c, 0, 65, 101
1, 8363067, Note_on_c, 0, 67, 96
1, 8365952, Note_off_c, 0, 67, 96
1, 8366334, Note_on_c, 0, 70, 111
1, 8369552, Note_off_c, 0, 70, 111
1, 8371402, Note_on_c, 0, 59, 101
1, 8375263, Note_off_c, 0, 59, 101
1, 8376189, Note_on_c, 0, 62, 104
1, 8380149, Note_off_c, 0, 62, 104
1, 8380894, Note_on_c, 0, 63, 100
1, 8382744, Note_off_c, 0, 63, 100
1, 8383387, Note_on_c, 0, 62, 104
1, 8385398, Note_off_c, 0, 62, 104
1, 8385860, Note_on_c, 0, 67, 99
1, 8387613, Note_off_c, 0, 67, 99
1, 8388687, Note_on_c, 0, 71, 101
1, 8391176, Note_off_c, 0, 71, 101
1, 8391685, Note_on_c, 0, 74, 105
1, 8394061, Note_off_c, 0, 74, 105
1, 8394287, Note_on_c, 0, 77, 110
1, 8396323, Note_off_c, 0, 77, 110
1, 8396549, Note_on_c, 0, 79, 111
1, 8399038, Note_off_c, 0, 79, 111
1, 8399547, Note_on_c, 0, 83, 105
1, 8402941, Note_off_c, 0, 83, 105
1, 8404462, Note_on_c, 0, 87, 98
1, 8410254, Note_off_c, 0, 87, 98
1, 8411086, Note_on_c, 0, 86, 81
1, 8413009, Note_off_c, 0, 86, 81
1, 8413574, Note_on_c, 0, 83, 93
1, 8415553, Note_off_c, 0, 83, 93
1, 8415835, Note_on_c, 0, 82, 104
1, 8418493, Note_off_c, 0, 82, 104
1, 8419511, Note_on_c, 0, 78, 102
1, 8421095, Note_off_c, 0, 78, 102
1, 8421604, Note_on_c, 0, 77, 109
1, 8423018, Note_off_c, 0, 77, 109
1, 8423583, Note_on_c, 0, 75, 105
1, 8424771, Note_off_c, 0, 75, 105
1, 8425053, Note_on_c, 0, 74, 103
1, 8427598, Note_off_c, 0, 74, 103
1, 8428107, Note_on_c, 0, 70, 94
1, 8430200, Note_off_c, 0, 70, 94
1, 8431048, Note_on_c, 0, 66, 98
1, 8432405, Note_off_c, 0, 66, 98
1, 8433658, Note_on_c, 0, 65, 85
1, 8438968, Note_off_c, 0, 65, 85
1, 8440267, Note_on_c, 0, 59, 89
1, 8443774, Note_off_c, 0, 59, 89
1, 8443774, Note_on_c, 0, 61, 98
1, 8447620, Note_off_c, 0, 61, 98
1, 8447846, Note_on_c, 0, 59, 93
1, 8450674, Note_off_c, 0, 59, 93
1, 8451296, Note_on_c, 0, 61, 95
1, 8453558, Note_off_c, 0, 61, 95
1, 8454010, Note_on_c, 0, 59, 96
1, 8457630, Note_off_c, 0, 59, 96
1, 8458252, Note_on_c, 0, 61, 101
1, 8460967, Note_off_c, 0, 61, 101
1, 8461815, Note_on_c, 0, 59, 100
1, 8464869, Note_off_c, 0, 59, 100
1, 8465321, Note_on_c, 0, 60, 104
1, 8467583, Note_off_c, 0, 60, 104
1, 8468431, Note_on_c, 0, 59, 98
1, 8471372, Note_off_c, 0, 59, 98
1, 8471881, Note_on_c, 0, 61, 103
1, 8475614, Note_off_c, 0, 61, 103
1, 8475953, Note_on_c, 0, 59, 100
1, 8479177, Note_off_c, 0, 59, 100
1, 8479459, Note_on_c, 0, 60, 104
1, 8482400, Note_off_c, 0, 60, 104
1, 8483078, Note_on_c, 0, 61, 102
1, 8486472, Note_off_c, 0, 61, 102
1, 8488595, Note_on_c, 0, 60, 96
1, 8504445, Note_off_c, 0, 60, 96
1, 8543608, Note_on_c, 0, 63, 94
1, 8548473, Note_off_c, 0, 63, 94
1, 8549151, Note_on_c, 0, 65, 104
1, 8553337, Note_off_c, 0, 65, 104
1, 8555260, Note_on_c, 0, 68, 108
1, 8560521, Note_off_c, 0, 68, 108
1, 8561765, Note_on_c, 0, 70, 105
1, 8568101, Note_off_c, 0, 70, 105
1, 8568949, Note_on_c, 0, 75, 113
1, 8574775, Note_off_c, 0, 75, 113
1, 8575623, Note_on_c, 0, 77, 109
1, 8580714, Note_off_c, 0, 77, 109
1, 8581223, Note_on_c, 0, 80, 112
1, 8591066, Note_off_c, 0, 80, 112
1, 8592932, Note_on_c, 0, 75, 104
1, 8596043, Note_off_c, 0, 75, 104
1, 8597796, Note_on_c, 0, 77, 119
1, 8605489, Note_off_c, 0, 77, 119
1, 8605941, Note_on_c, 0, 72, 92
1, 8611371, Note_off_c, 0, 72, 92
1, 8611710, Note_on_c, 0, 75, 110
1, 8618555, Note_off_c, 0, 75, 110
1, 8619460, Note_on_c, 0, 70, 105
1, 8625909, Note_off_c, 0, 70, 105
1, 8627832, Note_on_c, 0, 65, 109
1, 8634450, Note_off_c, 0, 65, 109
1, 8635581, Note_on_c, 0, 65, 109
1, 8641068, Note_off_c, 0, 65, 109
1, 8642086, Note_on_c, 0, 65, 107
1, 8647234, Note_off_c, 0, 65, 107
1, 8649383, Note_on_c, 0, 65, 109
1, 8654531, Note_off_c, 0, 65, 109
1, 8656454, Note_on_c, 0, 65, 113
1, 8660018, Note_off_c, 0, 65, 113
1, 8660640, Note_on_c, 0, 64, 105
1, 8663807, Note_off_c, 0, 64, 105
1, 8664372, Note_on_c, 0, 65, 107
1, 8670085, Note_off_c, 0, 65, 107
1, 8671669, Note_on_c, 0, 63, 104
1, 8677891, Note_off_c, 0, 63, 104
1, 8679192, Note_on_c, 0, 65, 96
1, 8700858, Note_off_c, 0, 65, 96
1, 8790127, Note_on_c, 0, 80, 119
1, 8796859, Note_off_c, 0, 80, 119
1, 8798612, Note_on_c, 0, 77, 123
1, 8804438, Note_off_c, 0, 77, 123
1, 8805173, Note_on_c, 0, 75, 114
1, 8812810, Note_off_c, 0, 75, 114
1, 8813545, Note_on_c, 0, 73, 96
1, 8818579, Note_off_c, 0, 73, 96
1, 8819767, Note_on_c, 0, 74, 107
1, 8826103, Note_off_c, 0, 74, 107
1, 8827234, Note_on_c, 0, 71, 99
1, 8831816, Note_off_c, 0, 71, 99
1, 8833286, Note_on_c, 0, 67, 105
1, 8839226, Note_off_c, 0, 67, 105
1, 8839765, Note_on_c, 0, 66, 101
1, 8841454, Note_off_c, 0, 66, 101
1, 8842902, Note_on_c, 0, 62, 96
1, 8846844, Note_off_c, 0, 62, 96
1, 8849579, Note_on_c, 0, 63, 96
1, 8854406, Note_off_c, 0, 63, 96
1, 8855130, Note_on_c, 0, 65, 104
1, 8873796, Note_off_c, 0, 65, 104
1, 8874681, Note_on_c, 0, 66, 99
1, 8888519, Note_off_c, 0, 66, 99
1, 8892622, Note_on_c, 0, 63, 95
1, 8915552, Note_off_c, 0, 63, 95
1, 8915552, End_track
0, 0, End_of_file
