0, 0, Header, 1, 1, 192
1, 0, Start_track
1, 0, Title_t, "Melody"
1, 0, Tempo, 384615
1, 0, Key_signature, -1, "major"
1, 0, Time_signature, 4, 2, 24, 8
1, 3840, Note_on_c, 0, 62, 115
1, 3880, Note_off_c, 0, 62, 115
1, 3892, Note_on_c, 0, 65, 113
1, 3935, Note_off_c, 0, 65, 113
1, 3938, Note_on_c, 0, 66, 110
1, 3966, Note_off_c, 0, 66, 110
1, 3981, Note_on_c, 0, 69, 110
1, 4013, Note_off_c, 0, 69, 110
1, 4026, Note_on_c, 0, 70, 106
1, 4066, Note_off_c, 0, 70, 106
1, 4076, Note_on_c, 0, 72, 108
1, 4282, Note_off_c, 0, 72, 108
1, 4564, Note_on_c, 0, 69, 97
1, 4599, Note_off_c, 0, 69, 97
1, 4666, Note_on_c, 0, 70, 115
1, 4743, Note_off_c, 0, 70, 115
1, 4753, Note_on_c, 0, 72, 119
1, 4833, Note_off_c, 0, 72, 119
1, 5042, Note_on_c, 0, 69, 117
1, 5253, Note_off_c, 0, 69, 117
1, 5256, Note_on_c, 0, 68, 99
1, 5318, Note_off_c, 0, 68, 99
1, 5361, Note_on_c, 0, 67, 118
1, 5450, Note_off_c, 0, 67, 118
1, 5524, Note_on_c, 0, 65, 120
1, 5572, Note_off_c, 0, 65, 120
1, 5587, Note_on_c, 0, 64, 116
1, 5633, Note_off_c, 0, 64, 116
1, 5645, Note_on_c, 0, 60, 111
1, 5779, Note_off_c, 0, 60, 111
1, 5792, Note_on_c, 0, 62, 114
1, 5906, Note_off_c, 0, 62, 114
1, 5915, Note_on_c, 0, 64, 115
1, 6009, Note_off_c, 0, 64, 115
1, 6028, Note_on_c, 0, 76, 118
1, 6162, Note_off_c, 0, 76, 118
1, 6214, Note_on_c, 0, 69, 113
1, 6300, Note_off_c, 0, 69, 113
1, 6318, Note_on_c, 0, 64, 107
1, 6383, Note_off_c, 0, 64, 107
1, 6404, Note_on_c, 0, 67, 114
1, 6510, Note_off_c, 0, 67, 114
1, 6515, Note_on_c, 0, 68, 114
1, 6587, Note_off_c, 0, 68, 114
1, 6611, Note_on_c, 0, 70, 100
1, 6805, Note_off_c, 0, 70, 100
1, 6917, Note_on_c, 0, 60, 108
1, 6982, Note_off_c, 0, 60, 108
1, 6988, Note_on_c, 0, 63, 111
1, 7025, Note_off_c, 0, 63, 111
1, 7032, Note_on_c, 0, 64, 112
1, 7154, Note_off_c, 0, 64, 112
1, 7200, Note_on_c, 0, 60, 103
1, 7236, Note_off_c, 0, 60, 103
1, 7248, Note_on_c, 0, 62, 107
1, 7348, Note_off_c, 0, 62, 107
1, 7362, Note_on_c, 0, 64, 109
1, 7466, Note_off_c, 0, 64, 109
1, 7480, Note_on_c, 0, 72, 116
1, 7563, Note_off_c, 0, 72, 116
1, 7580, Note_on_c, 0, 69, 111
1, 7711, Note_off_c, 0, 69, 111
1, 7720, Note_on_c, 0, 79, 114
1, 7844, Note_off_c, 0, 79, 114
1, 7863, Note_on_c, 0, 77, 117
1, 7977, Note_off_c, 0, 77, 117
1, 7984, Note_on_c, 0, 76, 113
1, 8111, Note_off_c, 0, 76, 113
1, 8133, Note_on_c, 0, 72, 109
1, 8256, Note_off_c, 0, 72, 109
1, 8261, Note_on_c, 0, 74, 114
1, 8350, Note_off_c, 0, 74, 114
1, 8377, Note_on_c, 0, 67, 109
1, 8505, Note_off_c, 0, 67, 109
1, 8514, Note_on_c, 0, 72, 104
1, 8559, Note_off_c, 0, 72, 104
1, 8632, Note_on_c, 0, 69, 104
1, 8726, Note_off_c, 0, 69, 104
1, 8732, Note_on_c, 0, 65, 107
1, 8985, Note_off_c, 0, 65, 107
1, 8989, Note_on_c, 0, 64, 102
1, 9020, Note_off_c, 0, 64, 102
1, 9026, Note_on_c, 0, 65, 107
1, 9059, Note_off_c, 0, 65, 107
1, 9069, Note_on_c, 0, 67, 104
1, 9135, Note_off_c, 0, 67, 104
1, 9166, Note_on_c, 0, 69, 103
1, 9352, Note_off_c, 0, 69, 103
1, 9381, Note_on_c, 0, 60, 110
1, 9431, Note_off_c, 0, 60, 110
1, 9441, Note_on_c, 0, 62, 105
1, 9479, Note_off_c, 0, 62, 105
1, 9493, Note_on_c, 0, 64, 108
1, 9523, Note_off_c, 0, 64, 108
1, 9545, Note_on_c, 0, 67, 105
1, 9594, Note_off_c, 0, 67, 105
1, 9604, Note_on_c, 0, 68, 102
1, 9650, Note_off_c, 0, 68, 102
1, 9664, Note_on_c, 0, 67, 105
1, 9706, Note_off_c, 0, 67, 105
1, 9712, Note_on_c, 0, 65, 106
1, 9744, Note_off_c, 0, 65, 106
1, 9753, Note_on_c, 0, 61, 102
1, 9946, Note_off_c, 0, 61, 102
1, 10191, Note_on_c, 0, 63, 117
1, 10223, Note_off_c, 0, 63, 117
1, 10231, Note_on_c, 0, 61, 110
1, 10254, Note_off_c, 0, 61, 110
1, 10263, Note_on_c, 0, 60, 111
1, 10309, Note_off_c, 0, 60, 111
1, 10325, Note_on_c, 0, 58, 104
1, 10401, Note_off_c, 0, 58, 104
1, 10566, Note_on_c, 0, 60, 103
1, 10651, Note_off_c, 0, 60, 103
1, 10666, Note_on_c, 0, 62, 105
1, 10742, Note_off_c, 0, 62, 105
1, 10759, Note_on_c, 0, 64, 111
1, 10945, Note_off_c, 0, 64, 111
1, 10952, Note_on_c, 0, 65, 112
1, 11055, Note_off_c, 0, 65, 112
1, 11071, Note_on_c, 0, 67, 116
1, 11208, Note_off_c, 0, 67, 116
1, 11223, Note_on_c, 0, 69, 113
1, 11371, Note_off_c, 0, 69, 113
1, 11383, Note_on_c, 0, 71, 108
1, 11475, Note_off_c, 0, 71, 108
1, 11487, Note_on_c, 0, 72, 113
1, 11613, Note_off_c, 0, 72, 113
1, 11624, Note_on_c, 0, 74, 114
1, 11754, Note_off_c, 0, 74, 114
1, 11761, Note_on_c, 0, 76, 114
1, 11876, Note_off_c, 0, 76, 114
1, 11903, Note_on_c, 0, 79, 108
1, 12009, Note_off_c, 0, 79, 108
1, 12025, Note_on_c, 0, 74, 101
1, 12351, Note_off_c, 0, 74, 101
1, 12736, Note_on_c, 0, 80, 118
1, 12824, Note_off_c, 0, 80, 118
1, 12840, Note_on_c, 0, 75, 108
1, 13139, Note_off_c, 0, 75, 108
1, 13462, Note_on_c, 0, 83, 102
1, 13550, Note_off_c, 0, 83, 102
1, 13568, Note_on_c, 0, 78, 113
1, 13968, Note_off_c, 0, 78, 113
1, 14247, Note_on_c, 0, 84, 107
1, 14398, Note_off_c, 0, 84, 107
1, 14405, Note_on_c, 0, 86, 99
1, 14574, Note_off_c, 0, 86, 99
1, 14964, Note_on_c, 0, 68, 107
1, 15107, Note_off_c, 0, 68, 107
1, 15111, Note_on_c, 0, 67, 101
1, 15132, Note_off_c, 0, 67, 101
1, 15153, Note_on_c, 0, 78, 112
1, 15340, Note_off_c, 0, 78, 112
1, 15356, Note_on_c, 0, 76, 116
1, 15530, Note_off_c, 0, 76, 116
1, 15578, Note_on_c, 0, 68, 102
1, 15722, Note_off_c, 0, 68, 102
1, 15746, Note_on_c, 0, 66, 104
1, 15839, Note_off_c, 0, 66, 104
1, 15860, Note_on_c, 0, 64, 111
1, 15962, Note_off_c, 0, 64, 111
1, 15965, Note_on_c, 0, 65, 112
1, 16055, Note_off_c, 0, 65, 112
1, 16069, Note_on_c, 0, 69, 105
1, 16161, Note_off_c, 0, 69, 105
1, 16172, Note_on_c, 0, 68, 111
1, 16274, Note_off_c, 0, 68, 111
1, 16284, Note_on_c, 0, 72, 107
1, 16380, Note_off_c, 0, 72, 107
1, 16385, Note_on_c, 0, 71, 100
1, 16549, Note_off_c, 0, 71, 100
1, 16576, Note_on_c, 0, 68, 97
1, 16696, Note_off_c, 0, 68, 97
1, 16707, Note_on_c, 0, 64, 105
1, 16760, Note_off_c, 0, 64, 105
1, 16787, Note_on_c, 0, 65, 108
1, 16932, Note_off_c, 0, 65, 108
1, 16957, Note_on_c, 0, 70, 96
1, 17278, Note_off_c, 0, 70, 96
1, 17303, Note_on_c, 0, 67, 115
1, 17438, Note_off_c, 0, 67, 115
1, 17452, Note_on_c, 0, 63, 109
1, 17555, Note_off_c, 0, 63, 109
1, 17569, Note_on_c, 0, 60, 108
1, 17620, Note_off_c, 0, 60, 108
1, 17633, Note_on_c, 0, 63, 114
1, 17658, Note_off_c, 0, 63, 114
1, 17669, Note_on_c, 0, 65, 113
1, 17795, Note_off_c, 0, 65, 113
1, 17820, Note_on_c, 0, 72, 96
1, 18002, Note_off_c, 0, 72, 96
1, 18562, Note_on_c, 0, 75, 122
1, 18630, Note_off_c, 0, 75, 122
1, 18662, Note_on_c, 0, 79, 126
1, 18731, Note_off_c, 0, 79, 126
1, 18734, Note_on_c, 0, 77, 124
1, 18792, Note_off_c, 0, 77, 124
1, 18800, Note_on_c, 0, 72, 116
1, 18857, Note_off_c, 0, 72, 116
1, 18877, Note_on_c, 0, 75, 121
1, 18938, Note_off_c, 0, 75, 121
1, 18964, Note_on_c, 0, 70, 105
1, 19013, Note_off_c, 0, 70, 105
1, 19029, Note_on_c, 0, 65, 114
1, 19092, Note_off_c, 0, 65, 114
1, 19099, Note_on_c, 0, 63, 109
1, 19146, Note_off_c, 0, 63, 109
1, 19162, Note_on_c, 0, 60, 107
1, 19223, Note_off_c, 0, 60, 107
1, 19228, Note_on_c, 0, 61, 110
1, 19288, Note_off_c, 0, 61, 110
1, 19301, Note_on_c, 0, 62, 112
1, 19380, Note_off_c, 0, 62, 112
1, 19397, Note_on_c, 0, 65, 110
1, 19461, Note_off_c, 0, 65, 110
1, 19463, Note_on_c, 0, 66, 112
1, 19509, Note_off_c, 0, 66, 112
1, 19518, Note_on_c, 0, 69, 111
1, 19577, Note_off_c, 0, 69, 111
1, 19590, Note_on_c, 0, 70, 108
1, 19648, Note_off_c, 0, 70, 108
1, 19654, Note_on_c, 0, 71, 113
1, 19702, Note_off_c, 0, 71, 113
1, 19713, Note_on_c, 0, 74, 119
1, 19765, Note_off_c, 0, 74, 119
1, 19777, Note_on_c, 0, 76, 127
1, 19855, Note_off_c, 0, 76, 127
1, 19858, Note_on_c, 0, 74, 112
1, 19907, Note_off_c, 0, 74, 112
1, 19910, Note_on_c, 0, 75, 109
1, 19963, Note_off_c, 0, 75, 109
1, 19966, Note_on_c, 0, 77, 108
1, 20017, Note_off_c, 0, 77, 108
1, 20025, Note_on_c, 0, 76, 109
1, 20070, Note_off_c, 0, 76, 109
1, 20076, Note_on_c, 0, 74, 105
1, 20112, Note_off_c, 0, 74, 105
1, 20117, Note_on_c, 0, 72, 99
1, 20194, Note_off_c, 0, 72, 99
1, 20204, Note_on_c, 0, 70, 77
1, 20229, Note_off_c, 0, 70, 77
1, 20440, Note_on_c, 0, 70, 91
1, 20487, Note_off_c, 0, 70, 91
1, 20572, Note_on_c, 0, 67, 78
1, 20612, Note_off_c, 0, 67, 78
1, 20669, Note_on_c, 0, 67, 98
1, 20697, Note_off_c, 0, 67, 98
1, 20771, Note_on_c, 0, 69, 102
1, 20819, Note_off_c, 0, 69, 102
1, 20826, Note_on_c, 0, 70, 97
1, 20861, Note_off_c, 0, 70, 97
1, 20967, Note_on_c, 0, 70, 94
1, 21007, Note_off_c, 0, 70, 94
1, 21137, Note_on_c, 0, 70, 99
1, 21175, Note_off_c, 0, 70, 99
1, 21360, Note_on_c, 0, 70, 101
1, 21387, Note_off_c, 0, 70, 101
1, 21450, Note_on_c, 0, 70, 100
1, 21478, Note_off_c, 0, 70, 100
1, 21542, Note_on_c, 0, 70, 101
1, 21579, Note_off_c, 0, 70, 101
1, 21587, Note_on_c, 0, 71, 103
1, 21623, Note_off_c, 0, 71, 103
1, 21633, Note_on_c, 0, 73, 108
1, 21678, Note_off_c, 0, 73, 108
1, 21686, Note_on_c, 0, 75, 105
1, 21718, Note_off_c, 0, 75, 105
1, 21722, Note_on_c, 0, 77, 117
1, 21760, Note_off_c, 0, 77, 117
1, 21769, Note_on_c, 0, 75, 100
1, 21796, Note_off_c, 0, 75, 100
1, 21810, Note_on_c, 0, 73, 104
1, 21860, Note_off_c, 0, 73, 104
1, 21869, Note_on_c, 0, 71, 102
1, 21887, Note_off_c, 0, 71, 102
1, 21896, Note_on_c, 0, 70, 95
1, 22034, Note_off_c, 0, 70, 95
1, 22076, Note_on_c, 0, 70, 98
1, 22121, Note_off_c, 0, 70, 98
1, 22370, Note_on_c, 0, 70, 104
1, 22393, Note_off_c, 0, 70, 104
1, 22474, Note_on_c, 0, 70, 103
1, 22505, Note_off_c, 0, 70, 103
1, 22664, Note_on_c, 0, 70, 107
1, 22715, Note_off_c, 0, 70, 107
1, 22724, Note_on_c, 0, 71, 101
1, 22750, Note_off_c, 0, 71, 101
1, 22762, Note_on_c, 0, 73, 113
1, 22792, Note_off_c, 0, 73, 113
1, 22808, Note_on_c, 0, 75, 102
1, 22840, Note_off_c, 0, 75, 102
1, 22844, Note_on_c, 0, 77, 125
1, 22885, Note_off_c, 0, 77, 125
1, 22887, Note_on_c, 0, 75, 114
1, 22917, Note_off_c, 0, 75, 114
1, 22930, Note_on_c, 0, 73, 113
1, 22966, Note_off_c, 0, 73, 113
1, 22988, Note_on_c, 0, 71, 105
1, 23014, Note_off_c, 0, 71, 105
1, 23030, Note_on_c, 0, 70, 100
1, 23170, Note_off_c, 0, 70, 100
1, 23471, Note_on_c, 0, 61, 116
1, 23514, Note_off_c, 0, 61, 116
1, 23534, Note_on_c, 0, 63, 110
1, 23561, Note_off_c, 0, 63, 110
1, 23577, Note_on_c, 0, 66, 110
1, 23607, Note_off_c, 0, 66, 110
1, 23613, Note_on_c, 0, 64, 107
1, 23642, Note_off_c, 0, 64, 107
1, 23660, Note_on_c, 0, 66, 104
1, 23691, Note_off_c, 0, 66, 104
1, 23704, Note_on_c, 0, 68, 105
1, 23739, Note_off_c, 0, 68, 105
1, 23754, Note_on_c, 0, 71, 104
1, 23777, Note_off_c, 0, 71, 104
1, 23787, Note_on_c, 0, 73, 116
1, 23815, Note_off_c, 0, 73, 116
1, 23830, Note_on_c, 0, 76, 113
1, 23871, Note_off_c, 0, 76, 113
1, 23874, Note_on_c, 0, 77, 122
1, 23922, Note_off_c, 0, 77, 122
1, 23925, Note_on_c, 0, 76, 111
1, 23957, Note_off_c, 0, 76, 111
1, 23962, Note_on_c, 0, 77, 119
1, 24001, Note_off_c, 0, 77, 119
1, 24013, Note_on_c, 0, 76, 119
1, 24045, Note_off_c, 0, 76, 119
1, 24055, Note_on_c, 0, 75, 116
1, 24089, Note_off_c, 0, 75, 116
1, 24102, Note_on_c, 0, 73, 117
1, 24135, Note_off_c, 0, 73, 117
1, 24148, Note_on_c, 0, 70, 102
1, 24297, Note_off_c, 0, 70, 102
1, 24612, Note_on_c, 0, 70, 106
1, 24647, Note_off_c, 0, 70, 106
1, 24658, Note_on_c, 0, 71, 101
1, 24684, Note_off_c, 0, 71, 101
1, 24699, Note_on_c, 0, 72, 116
1, 24733, Note_off_c, 0, 72, 116
1, 24748, Note_on_c, 0, 74, 106
1, 24773, Note_off_c, 0, 74, 106
1, 24780, Note_on_c, 0, 76, 120
1, 24831, Note_off_c, 0, 76, 120
1, 24845, Note_on_c, 0, 72, 101
1, 24869, Note_off_c, 0, 72, 101
1, 24878, Note_on_c, 0, 75, 120
1, 24922, Note_off_c, 0, 75, 120
1, 24939, Note_on_c, 0, 72, 114
1, 24968, Note_off_c, 0, 72, 114
1, 24970, Note_on_c, 0, 73, 106
1, 25017, Note_off_c, 0, 73, 106
1, 25026, Note_on_c, 0, 75, 116
1, 25059, Note_off_c, 0, 75, 116
1, 25067, Note_on_c, 0, 76, 118
1, 25136, Note_off_c, 0, 76, 118
1, 25263, Note_on_c, 0, 78, 117
1, 25305, Note_off_c, 0, 78, 117
1, 25314, Note_on_c, 0, 72, 98
1, 25335, Note_off_c, 0, 72, 98
1, 25344, Note_on_c, 0, 77, 111
1, 25376, Note_off_c, 0, 77, 111
1, 25387, Note_on_c, 0, 78, 115
1, 25432, Note_off_c, 0, 78, 115
1, 25438, Note_on_c, 0, 80, 117
1, 25457, Note_off_c, 0, 80, 117
1, 25468, Note_on_c, 0, 78, 113
1, 25511, Note_off_c, 0, 78, 113
1, 25520, Note_on_c, 0, 77, 113
1, 25550, Note_off_c, 0, 77, 113
1, 25564, Note_on_c, 0, 73, 105
1, 25590, Note_off_c, 0, 73, 105
1, 25596, Note_on_c, 0, 76, 115
1, 25641, Note_off_c, 0, 76, 115
1, 25643, Note_on_c, 0, 73, 104
1, 25671, Note_off_c, 0, 73, 104
1, 25678, Note_on_c, 0, 75, 115
1, 25737, Note_off_c, 0, 75, 115
1, 25790, Note_on_c, 0, 74, 113
1, 25818, Note_off_c, 0, 74, 113
1, 25824, Note_on_c, 0, 70, 102
1, 25861, Note_off_c, 0, 70, 102
1, 25876, Note_on_c, 0, 66, 102
1, 25908, Note_off_c, 0, 66, 102
1, 25978, Note_on_c, 0, 66, 107
1, 26030, Note_off_c, 0, 66, 107
1, 26035, Note_on_c, 0, 67, 107
1, 26256, Note_off_c, 0, 67, 107
1, 26271, Note_on_c, 0, 66, 93
1, 26377, Note_off_c, 0, 66, 93
1, 26381, Note_on_c, 0, 64, 92
1, 26414, Note_off_c, 0, 64, 92
1, 26419, Note_on_c, 0, 62, 92
1, 26456, Note_off_c, 0, 62, 92
1, 26457, Note_on_c, 0, 59, 99
1, 26516, Note_off_c, 0, 59, 99
1, 27251, Note_on_c, 0, 59, 112
1, 27297, Note_off_c, 0, 59, 112
1, 27309, Note_on_c, 0, 64, 115
1, 27368, Note_off_c, 0, 64, 115
1, 27383, Note_on_c, 0, 69, 116
1, 27435, Note_off_c, 0, 69, 116
1, 27451, Note_on_c, 0, 71, 115
1, 27510, Note_off_c, 0, 71, 115
1, 27514, Note_on_c, 0, 72, 117
1, 27575, Note_off_c, 0, 72, 117
1, 27594, Note_on_c, 0, 76, 122
1, 27647, Note_off_c, 0, 76, 122
1, 27660, Note_on_c, 0, 81, 121
1, 27719, Note_off_c, 0, 81, 121
1, 27738, Note_on_c, 0, 83, 118
1, 27804, Note_off_c, 0, 83, 118
1, 27809, Note_on_c, 0, 77, 113
1, 27862, Note_off_c, 0, 77, 113
1, 27866, Note_on_c, 0, 81, 120
1, 27927, Note_off_c, 0, 81, 120
1, 27943, Note_on_c, 0, 76, 119
1, 27980, Note_off_c, 0, 76, 119
1, 27983, Note_on_c, 0, 77, 126
1, 28041, Note_off_c, 0, 77, 126
1, 28055, Note_on_c, 0, 72, 110
1, 28097, Note_off_c, 0, 72, 110
1, 28102, Note_on_c, 0, 76, 126
1, 28152, Note_off_c, 0, 76, 126
1, 28163, Note_on_c, 0, 71, 107
1, 28206, Note_off_c, 0, 71, 107
1, 28218, Note_on_c, 0, 65, 117
1, 28270, Note_off_c, 0, 65, 117
1, 28282, Note_on_c, 0, 64, 113
1, 28313, Note_off_c, 0, 64, 113
1, 28344, Note_on_c, 0, 68, 115
1, 28399, Note_off_c, 0, 68, 115
1, 28403, Note_on_c, 0, 71, 103
1, 28446, Note_off_c, 0, 71, 103
1, 28453, Note_on_c, 0, 75, 123
1, 28529, Note_off_c, 0, 75, 123
1, 28538, Note_on_c, 0, 80, 119
1, 28622, Note_off_c, 0, 80, 119
1, 28630, Note_on_c, 0, 77, 118
1, 28688, Note_off_c, 0, 77, 118
1, 28706, Note_on_c, 0, 72, 109
1, 28739, Note_off_c, 0, 72, 109
1, 28751, Note_on_c, 0, 75, 119
1, 28814, Note_off_c, 0, 75, 119
1, 28820, Note_on_c, 0, 71, 107
1, 28849, Note_off_c, 0, 71, 107
1, 28868, Note_on_c, 0, 65, 110
1, 28897, Note_off_c, 0, 65, 110
1, 28910, Note_on_c, 0, 63, 108
1, 28942, Note_off_c, 0, 63, 108
1, 28951, Note_on_c, 0, 66, 108
1, 28975, Note_off_c, 0, 66, 108
1, 28982, Note_on_c, 0, 68, 116
1, 29007, Note_off_c, 0, 68, 116
1, 29019, Note_on_c, 0, 70, 109
1, 29056, Note_off_c, 0, 70, 109
1, 29059, Note_on_c, 0, 71, 110
1, 29101, Note_off_c, 0, 71, 110
1, 29110, Note_on_c, 0, 72, 117
1, 29190, Note_off_c, 0, 72, 117
1, 29196, Note_on_c, 0, 73, 116
1, 29327, Note_off_c, 0, 73, 116
1, 29336, Note_on_c, 0, 72, 112
1, 29460, Note_off_c, 0, 72, 112
1, 29491, Note_on_c, 0, 69, 111
1, 29616, Note_off_c, 0, 69, 111
1, 29627, Note_on_c, 0, 68, 112
1, 29715, Note_off_c, 0, 68, 112
1, 29723, Note_on_c, 0, 69, 109
1, 29803, Note_off_c, 0, 69, 109
1, 29810, Note_on_c, 0, 68, 113
1, 29902, Note_off_c, 0, 68, 113
1, 29924, Note_on_c, 0, 72, 119
1, 30035, Note_off_c, 0, 72, 119
1, 30050, Note_on_c, 0, 73, 117
1, 30164, Note_off_c, 0, 73, 117
1, 30180, Note_on_c, 0, 72, 9
1, 30274, Note_off_c, 0, 72, 9
1, 30296, Note_on_c, 0, 69, 110
1, 30388, Note_off_c, 0, 69, 110
1, 30404, Note_on_c, 0, 76, 122
1, 30497, Note_off_c, 0, 76, 122
1, 30508, Note_on_c, 0, 78, 117
1, 30650, Note_off_c, 0, 78, 117
1, 30658, Note_on_c, 0, 76, 118
1, 30776, Note_off_c, 0, 76, 118
1, 30797, Note_on_c, 0, 69, 112
1, 30888, Note_off_c, 0, 69, 112
1, 30922, Note_on_c, 0, 78, 111
1, 30969, Note_off_c, 0, 78, 111
1, 30973, Note_on_c, 0, 80, 111
1, 31014, Note_off_c, 0, 80, 111
1, 31074, Note_on_c, 0, 79, 111
1, 31242, Note_off_c, 0, 79, 111
1, 31260, Note_on_c, 0, 76, 113
1, 31298, Note_off_c, 0, 76, 113
1, 31306, Note_on_c, 0, 71, 105
1, 31344, Note_off_c, 0, 71, 105
1, 31347, Note_on_c, 0, 68, 108
1, 31368, Note_off_c, 0, 68, 108
1, 31371, Note_on_c, 0, 67, 108
1, 31398, Note_off_c, 0, 67, 108
1, 31401, Note_on_c, 0, 66, 104
1, 31416, Note_off_c, 0, 66, 104
1, 31418, Note_on_c, 0, 64, 103
1, 31442, Note_off_c, 0, 64, 103
1, 31445, Note_on_c, 0, 63, 108
1, 31497, Note_off_c, 0, 63, 108
1, 32192, Note_on_c, 0, 65, 113
1, 32236, Note_off_c, 0, 65, 113
1, 32245, Note_on_c, 0, 70, 96
1, 32271, Note_off_c, 0, 70, 96
1, 32280, Note_on_c, 0, 72, 116
1, 32337, Note_off_c, 0, 72, 116
1, 32373, Note_on_c, 0, 75, 119
1, 32436, Note_off_c, 0, 75, 119
1, 32569, Note_on_c, 0, 65, 110
1, 32621, Note_off_c, 0, 65, 110
1, 32976, Note_on_c, 0, 65, 118
1, 33010, Note_off_c, 0, 65, 118
1, 33021, Note_on_c, 0, 71, 98
1, 33038, Note_off_c, 0, 71, 98
1, 33045, Note_on_c, 0, 72, 117
1, 33092, Note_off_c, 0, 72, 117
1, 33145, Note_on_c, 0, 75, 116
1, 33193, Note_off_c, 0, 75, 116
1, 33199, Note_on_c, 0, 82, 108
1, 33305, Note_off_c, 0, 82, 108
1, 33321, Note_on_c, 0, 77, 115
1, 33378, Note_off_c, 0, 77, 115
1, 33706, Note_on_c, 0, 65, 117
1, 33759, Note_off_c, 0, 65, 117
1, 33766, Note_on_c, 0, 70, 105
1, 33777, Note_off_c, 0, 70, 105
1, 33781, Note_on_c, 0, 72, 116
1, 33833, Note_off_c, 0, 72, 116
1, 33874, Note_on_c, 0, 75, 116
1, 33929, Note_off_c, 0, 75, 116
1, 34345, Note_on_c, 0, 65, 117
1, 34391, Note_off_c, 0, 65, 117
1, 34398, Note_on_c, 0, 66, 110
1, 34423, Note_off_c, 0, 66, 110
1, 34432, Note_on_c, 0, 70, 106
1, 34474, Note_off_c, 0, 70, 106
1, 34479, Note_on_c, 0, 71, 101
1, 34501, Note_off_c, 0, 71, 101
1, 34510, Note_on_c, 0, 74, 121
1, 34552, Note_off_c, 0, 74, 121
1, 34568, Note_on_c, 0, 77, 123
1, 34605, Note_off_c, 0, 77, 123
1, 34607, Note_on_c, 0, 78, 122
1, 34655, Note_off_c, 0, 78, 122
1, 34757, Note_on_c, 0, 81, 108
1, 34816, Note_off_c, 0, 81, 108
1, 35168, Note_on_c, 0, 77, 123
1, 35219, Note_off_c, 0, 77, 123
1, 35220, Note_on_c, 0, 79, 110
1, 35249, Note_off_c, 0, 79, 110
1, 35255, Note_on_c, 0, 81, 117
1, 35296, Note_off_c, 0, 81, 117
1, 35311, Note_on_c, 0, 77, 104
1, 35341, Note_off_c, 0, 77, 104
1, 35346, Note_on_c, 0, 82, 117
1, 35396, Note_off_c, 0, 82, 117
1, 35408, Note_on_c, 0, 77, 102
1, 35432, Note_off_c, 0, 77, 102
1, 35441, Note_on_c, 0, 81, 112
1, 35488, Note_off_c, 0, 81, 112
1, 35493, Note_on_c, 0, 77, 104
1, 35507, Note_off_c, 0, 77, 104
1, 35518, Note_on_c, 0, 81, 109
1, 35584, Note_off_c, 0, 81, 109
1, 35591, Note_on_c, 0, 74, 106
1, 35639, Note_off_c, 0, 74, 106
1, 35653, Note_on_c, 0, 76, 115
1, 35691, Note_off_c, 0, 76, 115
1, 35708, Note_on_c, 0, 80, 120
1, 35737, Note_off_c, 0, 80, 120
1, 35744, Note_on_c, 0, 74, 110
1, 35773, Note_off_c, 0, 74, 110
1, 35783, Note_on_c, 0, 77, 117
1, 35821, Note_off_c, 0, 77, 117
1, 35838, Note_on_c, 0, 81, 116
1, 35870, Note_off_c, 0, 81, 116
1, 35874, Note_on_c, 0, 80, 120
1, 35914, Note_off_c, 0, 80, 120
1, 35924, Note_on_c, 0, 78, 117
1, 35952, Note_off_c, 0, 78, 117
1, 35965, Note_on_c, 0, 73, 112
1, 36013, Note_off_c, 0, 73, 112
1, 36021, Note_on_c, 0, 71, 100
1, 36048, Note_off_c, 0, 71, 100
1, 36055, Note_on_c, 0, 76, 122
1, 36110, Note_off_c, 0, 76, 122
1, 36113, Note_on_c, 0, 77, 118
1, 36137, Note_off_c, 0, 77, 118
1, 36148, Note_on_c, 0, 79, 121
1, 36195, Note_off_c, 0, 79, 121
1, 36209, Note_on_c, 0, 78, 122
1, 36241, Note_off_c, 0, 78, 122
1, 36245, Note_on_c, 0, 77, 125
1, 36283, Note_off_c, 0, 77, 125
1, 36297, Note_on_c, 0, 76, 122
1, 36338, Note_off_c, 0, 76, 122
1, 36339, Note_on_c, 0, 75, 121
1, 36365, Note_off_c, 0, 75, 121
1, 36377, Note_on_c, 0, 74, 118
1, 36407, Note_off_c, 0, 74, 118
1, 36411, Note_on_c, 0, 73, 118
1, 36446, Note_off_c, 0, 73, 118
1, 36460, Note_on_c, 0, 74, 113
1, 36501, Note_off_c, 0, 74, 113
1, 36504, Note_on_c, 0, 76, 118
1, 36557, Note_off_c, 0, 76, 118
1, 36567, Note_on_c, 0, 73, 111
1, 36603, Note_off_c, 0, 73, 111
1, 36609, Note_on_c, 0, 74, 118
1, 36635, Note_off_c, 0, 74, 118
1, 36639, Note_on_c, 0, 70, 104
1, 36662, Note_off_c, 0, 70, 104
1, 36670, Note_on_c, 0, 65, 112
1, 36728, Note_off_c, 0, 65, 112
1, 36740, Note_on_c, 0, 62, 111
1, 36770, Note_off_c, 0, 62, 111
1, 36779, Note_on_c, 0, 69, 112
1, 36812, Note_off_c, 0, 69, 112
1, 36830, Note_on_c, 0, 73, 115
1, 36865, Note_off_c, 0, 73, 115
1, 36877, Note_on_c, 0, 72, 110
1, 36907, Note_off_c, 0, 72, 110
1, 36913, Note_on_c, 0, 70, 106
1, 36952, Note_off_c, 0, 70, 106
1, 36962, Note_on_c, 0, 69, 110
1, 37001, Note_off_c, 0, 69, 110
1, 37016, Note_on_c, 0, 66, 116
1, 37046, Note_off_c, 0, 66, 116
1, 37052, Note_on_c, 0, 65, 116
1, 37077, Note_off_c, 0, 65, 116
1, 37094, Note_on_c, 0, 64, 115
1, 37124, Note_off_c, 0, 64, 115
1, 37135, Note_on_c, 0, 63, 114
1, 37165, Note_off_c, 0, 63, 114
1, 37179, Note_on_c, 0, 62, 113
1, 37224, Note_off_c, 0, 62, 113
1, 37235, Note_on_c, 0, 61, 111
1, 37281, Note_off_c, 0, 61, 111
1, 37296, Note_on_c, 0, 66, 116
1, 37319, Note_off_c, 0, 66, 116
1, 37326, Note_on_c, 0, 63, 112
1, 37365, Note_off_c, 0, 63, 112
1, 37375, Note_on_c, 0, 65, 115
1, 37409, Note_off_c, 0, 65, 115
1, 37429, Note_on_c, 0, 68, 111
1, 37467, Note_off_c, 0, 68, 111
1, 37481, Note_on_c, 0, 70, 100
1, 37502, Note_off_c, 0, 70, 100
1, 37512, Note_on_c, 0, 72, 108
1, 37540, Note_off_c, 0, 72, 108
1, 37551, Note_on_c, 0, 75, 113
1, 37580, Note_off_c, 0, 75, 113
1, 37590, Note_on_c, 0, 78, 116
1, 37634, Note_off_c, 0, 78, 116
1, 37638, Note_on_c, 0, 79, 95
1, 37670, Note_off_c, 0, 79, 95
1, 37677, Note_on_c, 0, 77, 119
1, 37719, Note_off_c, 0, 77, 119
1, 37726, Note_on_c, 0, 76, 121
1, 37757, Note_off_c, 0, 76, 121
1, 37764, Note_on_c, 0, 75, 118
1, 37810, Note_off_c, 0, 75, 118
1, 37835, Note_on_c, 0, 73, 117
1, 37854, Note_off_c, 0, 73, 117
1, 37870, Note_on_c, 0, 72, 116
1, 37923, Note_off_c, 0, 72, 116
1, 37928, Note_on_c, 0, 69, 109
1, 37955, Note_off_c, 0, 69, 109
1, 37964, Note_on_c, 0, 65, 120
1, 37998, Note_off_c, 0, 65, 120
1, 38010, Note_on_c, 0, 60, 100
1, 38047, Note_off_c, 0, 60, 100
1, 38056, Note_on_c, 0, 69, 118
1, 38081, Note_off_c, 0, 69, 118
1, 38086, Note_on_c, 0, 65, 112
1, 38103, Note_off_c, 0, 65, 112
1, 38104, Note_on_c, 0, 60, 111
1, 38134, Note_off_c, 0, 60, 111
1, 38150, Note_on_c, 0, 65, 115
1, 38176, Note_off_c, 0, 65, 115
1, 38185, Note_on_c, 0, 69, 115
1, 38219, Note_off_c, 0, 69, 115
1, 38225, Note_on_c, 0, 68, 115
1, 38254, Note_off_c, 0, 68, 115
1, 38270, Note_on_c, 0, 67, 118
1, 38286, Note_off_c, 0, 67, 118
1, 38288, Note_on_c, 0, 70, 106
1, 38312, Note_off_c, 0, 70, 106
1, 38315, Note_on_c, 0, 71, 110
1, 38351, Note_off_c, 0, 71, 110
1, 38362, Note_on_c, 0, 73, 111
1, 38384, Note_off_c, 0, 73, 111
1, 38398, Note_on_c, 0, 75, 121
1, 38443, Note_off_c, 0, 75, 121
1, 38446, Note_on_c, 0, 78, 119
1, 38477, Note_off_c, 0, 78, 119
1, 38485, Note_on_c, 0, 77, 125
1, 38540, Note_off_c, 0, 77, 125
1, 38549, Note_on_c, 0, 75, 120
1, 38579, Note_off_c, 0, 75, 120
1, 38588, Note_on_c, 0, 74, 117
1, 38618, Note_off_c, 0, 74, 117
1, 38641, Note_on_c, 0, 70, 110
1, 38664, Note_off_c, 0, 70, 110
1, 38670, Note_on_c, 0, 67, 117
1, 38735, Note_off_c, 0, 67, 117
1, 38739, Note_on_c, 0, 76, 118
1, 38798, Note_off_c, 0, 76, 118
1, 38808, Note_on_c, 0, 72, 112
1, 38834, Note_off_c, 0, 72, 112
1, 38857, Note_on_c, 0, 68, 110
1, 38891, Note_off_c, 0, 68, 110
1, 38896, Note_on_c, 0, 65, 98
1, 38925, Note_off_c, 0, 65, 98
1, 38947, Note_on_c, 0, 75, 121
1, 38989, Note_off_c, 0, 75, 121
1, 39028, Note_on_c, 0, 65, 115
1, 39071, Note_off_c, 0, 65, 115
1, 39080, Note_on_c, 0, 62, 107
1, 39104, Note_off_c, 0, 62, 107
1, 39122, Note_on_c, 0, 70, 104
1, 39290, Note_off_c, 0, 70, 104
1, 39321, Note_on_c, 0, 74, 119
1, 39350, Note_off_c, 0, 74, 119
1, 39357, Note_on_c, 0, 72, 116
1, 39382, Note_off_c, 0, 72, 116
1, 39394, Note_on_c, 0, 70, 105
1, 39434, Note_off_c, 0, 70, 105
1, 39445, Note_on_c, 0, 67, 113
1, 39469, Note_off_c, 0, 67, 113
1, 39476, Note_on_c, 0, 69, 115
1, 39499, Note_off_c, 0, 69, 115
1, 39508, Note_on_c, 0, 66, 112
1, 39535, Note_off_c, 0, 66, 112
1, 39546, Note_on_c, 0, 62, 117
1, 39578, Note_off_c, 0, 62, 117
1, 39601, Note_on_c, 0, 66, 113
1, 39652, Note_off_c, 0, 66, 113
1, 39659, Note_on_c, 0, 62, 114
1, 39690, Note_off_c, 0, 62, 114
1, 39840, Note_on_c, 0, 64, 114
1, 39870, Note_off_c, 0, 64, 114
1, 39878, Note_on_c, 0, 61, 120
1, 39898, Note_off_c, 0, 61, 120
1, 39900, Note_on_c, 0, 63, 116
1, 39944, Note_off_c, 0, 63, 116
1, 39958, Note_on_c, 0, 64, 116
1, 40006, Note_off_c, 0, 64, 116
1, 40014, Note_on_c, 0, 63, 118
1, 40059, Note_off_c, 0, 63, 118
1, 40066, Note_on_c, 0, 65, 120
1, 40099, Note_off_c, 0, 65, 120
1, 40107, Note_on_c, 0, 67, 115
1, 40148, Note_off_c, 0, 67, 115
1, 40162, Note_on_c, 0, 70, 113
1, 40187, Note_off_c, 0, 70, 113
1, 40188, Note_on_c, 0, 65, 119
1, 40260, Note_off_c, 0, 65, 119
1, 40467, Note_on_c, 0, 60, 118
1, 40511, Note_off_c, 0, 60, 118
1, 40513, Note_on_c, 0, 63, 121
1, 40536, Note_off_c, 0, 63, 121
1, 40542, Note_on_c, 0, 65, 124
1, 40574, Note_off_c, 0, 65, 124
1, 40589, Note_on_c, 0, 56, 118
1, 40710, Note_off_c, 0, 56, 118
1, 40719, Note_on_c, 0, 58, 116
1, 40757, Note_off_c, 0, 58, 116
1, 40765, Note_on_c, 0, 57, 111
1, 40896, Note_off_c, 0, 57, 111
1, 40904, Note_on_c, 0, 60, 121
1, 40963, Note_off_c, 0, 60, 121
1, 40978, Note_on_c, 0, 62, 124
1, 41052, Note_off_c, 0, 62, 124
1, 41061, Note_on_c, 0, 64, 125
1, 41126, Note_off_c, 0, 64, 125
1, 41143, Note_on_c, 0, 67, 120
1, 41227, Note_off_c, 0, 67, 120
1, 41232, Note_on_c, 0, 64, 120
1, 41293, Note_off_c, 0, 64, 120
1, 41304, Note_on_c, 0, 65, 121
1, 41376, Note_off_c, 0, 65, 121
1, 41393, Note_on_c, 0, 72, 119
1, 41452, Note_off_c, 0, 72, 119
1, 41481, Note_on_c, 0, 71, 107
1, 41686, Note_off_c, 0, 71, 107
1, 41687, Note_on_c, 0, 69, 108
1, 41711, Note_off_c, 0, 69, 108
1, 41712, Note_on_c, 0, 67, 107
1, 41743, Note_off_c, 0, 67, 107
1, 41745, Note_on_c, 0, 64, 115
1, 41775, Note_off_c, 0, 64, 115
1, 41779, Note_on_c, 0, 62, 112
1, 41797, Note_off_c, 0, 62, 112
1, 41798, Note_on_c, 0, 60, 116
1, 41834, Note_off_c, 0, 60, 116
1, 41836, Note_on_c, 0, 59, 110
1, 41896, Note_off_c, 0, 59, 110
1, 42741, Note_on_c, 0, 71, 107
1, 42787, Note_off_c, 0, 71, 107
1, 42794, Note_on_c, 0, 71, 114
1, 42836, Note_off_c, 0, 71, 114
1, 42851, Note_on_c, 0, 71, 113
1, 42903, Note_off_c, 0, 71, 113
1, 42915, Note_on_c, 0, 71, 116
1, 42963, Note_off_c, 0, 71, 116
1, 42972, Note_on_c, 0, 71, 117
1, 43026, Note_off_c, 0, 71, 117
1, 43037, Note_on_c, 0, 71, 115
1, 43091, Note_off_c, 0, 71, 115
1, 43099, Note_on_c, 0, 71, 113
1, 43147, Note_off_c, 0, 71, 113
1, 43168, Note_on_c, 0, 71, 111
1, 43231, Note_off_c, 0, 71, 111
1, 43237, Note_on_c, 0, 71, 113
1, 43291, Note_off_c, 0, 71, 113
1, 43297, Note_on_c, 0, 71, 112
1, 43345, Note_off_c, 0, 71, 112
1, 43353, Note_on_c, 0, 71, 109
1, 43404, Note_off_c, 0, 71, 109
1, 43422, Note_on_c, 0, 71, 116
1, 43473, Note_off_c, 0, 71, 116
1, 43486, Note_on_c, 0, 71, 111
1, 43544, Note_off_c, 0, 71, 111
1, 43550, Note_on_c, 0, 71, 114
1, 43602, Note_off_c, 0, 71, 114
1, 43618, Note_on_c, 0, 71, 113
1, 43671, Note_off_c, 0, 71, 113
1, 43677, Note_on_c, 0, 71, 116
1, 43729, Note_off_c, 0, 71, 116
1, 43744, Note_on_c, 0, 71, 116
1, 43798, Note_off_c, 0, 71, 116
1, 43817, Note_on_c, 0, 71, 110
1, 43927, Note_off_c, 0, 71, 110
1, 43938, Note_on_c, 0, 78, 118
1, 43995, Note_off_c, 0, 78, 118
1, 44039, Note_on_c, 0, 71, 111
1, 44098, Note_off_c, 0, 71, 111
1, 44141, Note_on_c, 0, 76, 122
1, 44202, Note_off_c, 0, 76, 122
1, 44263, Note_on_c, 0, 71, 112
1, 44317, Note_off_c, 0, 71, 112
1, 44381, Note_on_c, 0, 78, 113
1, 44432, Note_off_c, 0, 78, 113
1, 44467, Note_on_c, 0, 71, 109
1, 44527, Note_off_c, 0, 71, 109
1, 44542, Note_on_c, 0, 78, 116
1, 44589, Note_off_c, 0, 78, 116
1, 44617, Note_on_c, 0, 71, 105
1, 44659, Note_off_c, 0, 71, 105
1, 44677, Note_on_c, 0, 76, 122
1, 44732, Note_off_c, 0, 76, 122
1, 44753, Note_on_c, 0, 78, 116
1, 44810, Note_off_c, 0, 78, 116
1, 44821, Note_on_c, 0, 74, 113
1, 44860, Note_off_c, 0, 74, 113
1, 44869, Note_on_c, 0, 71, 113
1, 44924, Note_off_c, 0, 71, 113
1, 44945, Note_on_c, 0, 66, 116
1, 44991, Note_off_c, 0, 66, 116
1, 45004, Note_on_c, 0, 64, 118
1, 45051, Note_off_c, 0, 64, 118
1, 45080, Note_on_c, 0, 71, 114
1, 45123, Note_off_c, 0, 71, 114
1, 45123, Note_on_c, 0, 66, 119
1, 45167, Note_off_c, 0, 66, 119
1, 45175, Note_on_c, 0, 62, 122
1, 45257, Note_off_c, 0, 62, 122
1, 45266, Note_on_c, 0, 59, 117
1, 45341, Note_off_c, 0, 59, 117
1, 45360, Note_on_c, 0, 71, 113
1, 45411, Note_off_c, 0, 71, 113
1, 45430, Note_on_c, 0, 64, 121
1, 45495, Note_off_c, 0, 64, 121
1, 45505, Note_on_c, 0, 66, 116
1, 45564, Note_off_c, 0, 66, 116
1, 45587, Note_on_c, 0, 76, 120
1, 45644, Note_off_c, 0, 76, 120
1, 45675, Note_on_c, 0, 71, 114
1, 45742, Note_off_c, 0, 71, 114
1, 45786, Note_on_c, 0, 78, 120
1, 45843, Note_off_c, 0, 78, 120
1, 45854, Note_on_c, 0, 82, 100
1, 46025, Note_off_c, 0, 82, 100
1, 46251, Note_on_c, 0, 82, 118
1, 46291, Note_off_c, 0, 82, 118
1, 46294, Note_on_c, 0, 81, 123
1, 46335, Note_off_c, 0, 81, 123
1, 46339, Note_on_c, 0, 81, 118
1, 46376, Note_off_c, 0, 81, 118
1, 46379, Note_on_c, 0, 77, 124
1, 46432, Note_off_c, 0, 77, 124
1, 46439, Note_on_c, 0, 74, 119
1, 46474, Note_off_c, 0, 74, 119
1, 46482, Note_on_c, 0, 77, 123
1, 46516, Note_off_c, 0, 77, 123
1, 46523, Note_on_c, 0, 81, 116
1, 46575, Note_off_c, 0, 81, 116
1, 46579, Note_on_c, 0, 79, 108
1, 46617, Note_off_c, 0, 79, 108
1, 46646, Note_on_c, 0, 83, 96
1, 46689, Note_off_c, 0, 83, 96
1, 46699, Note_on_c, 0, 88, 87
1, 46753, Note_off_c, 0, 88, 87
1, 46769, Note_on_c, 0, 84, 85
1, 46797, Note_off_c, 0, 84, 85
1, 46833, Note_on_c, 0, 87, 90
1, 46904, Note_off_c, 0, 87, 90
1, 46994, Note_on_c, 0, 84, 99
1, 47020, Note_off_c, 0, 84, 99
1, 47030, Note_on_c, 0, 88, 90
1, 47166, Note_off_c, 0, 88, 90
1, 47168, Note_on_c, 0, 84, 105
1, 47363, Note_off_c, 0, 84, 105
1, 47379, Note_on_c, 0, 82, 113
1, 47549, Note_off_c, 0, 82, 113
1, 47560, Note_on_c, 0, 77, 119
1, 47744, Note_off_c, 0, 77, 119
1, 47757, Note_on_c, 0, 72, 113
1, 47783, Note_off_c, 0, 72, 113
1, 47790, Note_on_c, 0, 75, 119
1, 47914, Note_off_c, 0, 75, 119
1, 47945, Note_on_c, 0, 70, 109
1, 48064, Note_off_c, 0, 70, 109
1, 48085, Note_on_c, 0, 70, 105
1, 48111, Note_off_c, 0, 70, 105
1, 48116, Note_on_c, 0, 63, 117
1, 48134, Note_off_c, 0, 63, 117
1, 48136, Note_on_c, 0, 70, 114
1, 48176, Note_off_c, 0, 70, 114
1, 48183, Note_on_c, 0, 63, 120
1, 48209, Note_off_c, 0, 63, 120
1, 48214, Note_on_c, 0, 65, 121
1, 48261, Note_off_c, 0, 65, 121
1, 48268, Note_on_c, 0, 70, 112
1, 48299, Note_off_c, 0, 70, 112
1, 48309, Note_on_c, 0, 68, 117
1, 48343, Note_off_c, 0, 68, 117
1, 48357, Note_on_c, 0, 70, 114
1, 48388, Note_off_c, 0, 70, 114
1, 48394, Note_on_c, 0, 72, 118
1, 48443, Note_off_c, 0, 72, 118
1, 48449, Note_on_c, 0, 75, 114
1, 48477, Note_off_c, 0, 75, 114
1, 48478, Note_on_c, 0, 79, 116
1, 48490, Note_off_c, 0, 79, 116
1, 48491, Note_on_c, 0, 81, 90
1, 48563, Note_off_c, 0, 81, 90
1, 48566, Note_on_c, 0, 86, 104
1, 48652, Note_off_c, 0, 86, 104
1, 48652, Note_on_c, 0, 83, 109
1, 48667, Note_off_c, 0, 83, 109
1, 48671, Note_on_c, 0, 81, 115
1, 48805, Note_off_c, 0, 81, 115
1, 48810, Note_on_c, 0, 78, 119
1, 48849, Note_off_c, 0, 78, 119
1, 48852, Note_on_c, 0, 77, 119
1, 48885, Note_off_c, 0, 77, 119
1, 48891, Note_on_c, 0, 76, 123
1, 48927, Note_off_c, 0, 76, 123
1, 48932, Note_on_c, 0, 75, 120
1, 48966, Note_off_c, 0, 75, 120
1, 48979, Note_on_c, 0, 73, 117
1, 49020, Note_off_c, 0, 73, 117
1, 49024, Note_on_c, 0, 74, 119
1, 49068, Note_off_c, 0, 74, 119
1, 49075, Note_on_c, 0, 77, 126
1, 49122, Note_off_c, 0, 77, 126
1, 49130, Note_on_c, 0, 78, 120
1, 49183, Note_off_c, 0, 78, 120
1, 49190, Note_on_c, 0, 77, 123
1, 49255, Note_off_c, 0, 77, 123
1, 49275, Note_on_c, 0, 74, 118
1, 49330, Note_off_c, 0, 74, 118
1, 49338, Note_on_c, 0, 73, 117
1, 49378, Note_off_c, 0, 73, 117
1, 49409, Note_on_c, 0, 70, 113
1, 49456, Note_off_c, 0, 70, 113
1, 49461, Note_on_c, 0, 69, 112
1, 49521, Note_off_c, 0, 69, 112
1, 49529, Note_on_c, 0, 66, 116
1, 49563, Note_off_c, 0, 66, 116
1, 49568, Note_on_c, 0, 65, 119
1, 49625, Note_off_c, 0, 65, 119
1, 49630, Note_on_c, 0, 64, 119
1, 49669, Note_off_c, 0, 64, 119
1, 49671, Note_on_c, 0, 63, 114
1, 49695, Note_off_c, 0, 63, 114
1, 49728, Note_on_c, 0, 61, 113
1, 49758, Note_off_c, 0, 61, 113
1, 49760, Note_on_c, 0, 62, 109
1, 49791, Note_off_c, 0, 62, 109
1, 49922, Note_on_c, 0, 62, 95
1, 50457, Note_off_c, 0, 62, 95
1, 50464, Note_on_c, 0, 60, 100
1, 50531, Note_off_c, 0, 60, 100
1, 50531, End_track
0, 0, End_of_file
