0, 0, Header, 1, 1, 192
1, 0, Start_track
1, 0, Title_t, "Melody"
1, 0, Tempo, 220588
1, 0, Key_signature, -3, "major"
1, 0, Time_signature, 4, 2, 24, 8
1, 2874, Note_on_c, 0, 68, 109
1, 3034, Note_off_c, 0, 68, 109
1, 3034, Note_on_c, 0, 66, 102
1, 3076, Note_off_c, 0, 66, 102
1, 3088, Note_on_c, 0, 64, 109
1, 3120, Note_off_c, 0, 64, 109
1, 3135, Note_on_c, 0, 63, 113
1, 3357, Note_off_c, 0, 63, 113
1, 3369, Note_on_c, 0, 61, 91
1, 3434, Note_off_c, 0, 61, 91
1, 3444, Note_on_c, 0, 58, 90
1, 3519, Note_off_c, 0, 58, 90
1, 3534, Note_on_c, 0, 56, 94
1, 3597, Note_off_c, 0, 56, 94
1, 3612, Note_on_c, 0, 55, 96
1, 3670, Note_off_c, 0, 55, 96
1, 3692, Note_on_c, 0, 58, 94
1, 3964, Note_off_c, 0, 58, 94
1, 4000, Note_on_c, 0, 63, 102
1, 4232, Note_off_c, 0, 63, 102
1, 4535, Note_on_c, 0, 65, 95
1, 4767, Note_off_c, 0, 65, 95
1, 4800, Note_on_c, 0, 62, 97
1, 5167, Note_off_c, 0, 62, 97
1, 5261, Note_on_c, 0, 58, 93
1, 5528, Note_off_c, 0, 58, 93
1, 5570, Note_on_c, 0, 67, 86
1, 6300, Note_off_c, 0, 67, 86
1, 6825, Note_on_c, 0, 56, 98
1, 7085, Note_off_c, 0, 56, 98
1, 7150, Note_on_c, 0, 65, 96
1, 7455, Note_off_c, 0, 65, 96
1, 8768, Note_on_c, 0, 55, 102
1, 8919, Note_off_c, 0, 55, 102
1, 8931, Note_on_c, 0, 60, 97
1, 9001, Note_off_c, 0, 60, 97
1, 9097, Note_on_c, 0, 51, 94
1, 9364, Note_off_c, 0, 51, 94
1, 9381, Note_on_c, 0, 49, 93
1, 9441, Note_off_c, 0, 49, 93
1, 9461, Note_on_c, 0, 50, 97
1, 9569, Note_off_c, 0, 50, 97
1, 9645, Note_on_c, 0, 58, 97
1, 9927, Note_off_c, 0, 58, 97
1, 10313, Note_on_c, 0, 56, 106
1, 10424, Note_off_c, 0, 56, 106
1, 10441, Note_on_c, 0, 60, 99
1, 10542, Note_off_c, 0, 60, 99
1, 10562, Note_on_c, 0, 63, 105
1, 10953, Note_off_c, 0, 63, 105
1, 11763, Note_on_c, 0, 54, 98
1, 11970, Note_off_c, 0, 54, 98
1, 11982, Note_on_c, 0, 61, 106
1, 12151, Note_off_c, 0, 61, 106
1, 12161, Note_on_c, 0, 64, 105
1, 12644, Note_off_c, 0, 64, 105
1, 13037, Note_on_c, 0, 55, 97
1, 13271, Note_off_c, 0, 55, 97
1, 13283, Note_on_c, 0, 56, 98
1, 13490, Note_off_c, 0, 56, 98
1, 13505, Note_on_c, 0, 60, 102
1, 13681, Note_off_c, 0, 60, 102
1, 13696, Note_on_c, 0, 63, 116
1, 13885, Note_off_c, 0, 63, 116
1, 13969, Note_on_c, 0, 65, 108
1, 14022, Note_off_c, 0, 65, 108
1, 14045, Note_on_c, 0, 67, 105
1, 14176, Note_off_c, 0, 67, 105
1, 14199, Note_on_c, 0, 61, 94
1, 14264, Note_off_c, 0, 61, 94
1, 14279, Note_on_c, 0, 66, 101
1, 14442, Note_off_c, 0, 66, 101
1, 14470, Note_on_c, 0, 62, 106
1, 14614, Note_off_c, 0, 62, 106
1, 14693, Note_on_c, 0, 63, 93
1, 15021, Note_off_c, 0, 63, 93
1, 15446, Note_on_c, 0, 60, 104
1, 15481, Note_off_c, 0, 60, 104
1, 15496, Note_on_c, 0, 61, 102
1, 15728, Note_off_c, 0, 61, 102
1, 15738, Note_on_c, 0, 56, 101
1, 15803, Note_on_c, 0, 54, 96
1, 15803, Note_off_c, 0, 56, 101
1, 15936, Note_off_c, 0, 54, 96
1, 15984, Note_on_c, 0, 49, 98
1, 16191, Note_off_c, 0, 49, 98
1, 16202, Note_on_c, 0, 48, 90
1, 16384, Note_off_c, 0, 48, 90
1, 16421, Note_on_c, 0, 53, 100
1, 16630, Note_off_c, 0, 53, 100
1, 16657, Note_on_c, 0, 58, 103
1, 16816, Note_off_c, 0, 58, 103
1, 16904, Note_on_c, 0, 60, 97
1, 17063, Note_off_c, 0, 60, 97
1, 17088, Note_on_c, 0, 65, 103
1, 17272, Note_off_c, 0, 65, 103
1, 17314, Note_on_c, 0, 70, 101
1, 17526, Note_off_c, 0, 70, 101
1, 17561, Note_on_c, 0, 65, 95
1, 17798, Note_off_c, 0, 65, 95
1, 17815, Note_on_c, 0, 67, 97
1, 17996, Note_off_c, 0, 67, 97
1, 18060, Note_on_c, 0, 60, 93
1, 18251, Note_off_c, 0, 60, 93
1, 18272, Note_on_c, 0, 65, 84
1, 18641, Note_off_c, 0, 65, 84
1, 19247, Note_on_c, 0, 48, 100
1, 19306, Note_off_c, 0, 48, 100
1, 19323, Note_on_c, 0, 52, 100
1, 19371, Note_off_c, 0, 52, 100
1, 19384, Note_on_c, 0, 58, 107
1, 19444, Note_off_c, 0, 58, 107
1, 19456, Note_on_c, 0, 60, 105
1, 19517, Note_off_c, 0, 60, 105
1, 19532, Note_on_c, 0, 65, 104
1, 19559, Note_off_c, 0, 65, 104
1, 19567, Note_on_c, 0, 70, 107
1, 19620, Note_off_c, 0, 70, 107
1, 19627, Note_on_c, 0, 65, 106
1, 19683, Note_off_c, 0, 65, 106
1, 19698, Note_on_c, 0, 62, 103
1, 19718, Note_off_c, 0, 62, 103
1, 19728, Note_on_c, 0, 60, 102
1, 19768, Note_off_c, 0, 60, 102
1, 19780, Note_on_c, 0, 62, 90
1, 19812, Note_off_c, 0, 62, 90
1, 19818, Note_on_c, 0, 60, 100
1, 19873, Note_off_c, 0, 60, 100
1, 19879, Note_on_c, 0, 58, 105
1, 19942, Note_off_c, 0, 58, 105
1, 19963, Note_on_c, 0, 53, 100
1, 20021, Note_off_c, 0, 53, 100
1, 20051, Note_on_c, 0, 48, 98
1, 20280, Note_off_c, 0, 48, 98
1, 20306, Note_on_c, 0, 53, 99
1, 20595, Note_off_c, 0, 53, 99
1, 20619, Note_on_c, 0, 58, 98
1, 20659, Note_off_c, 0, 58, 98
1, 20683, Note_on_c, 0, 50, 108
1, 20736, Note_off_c, 0, 50, 108
1, 20750, Note_on_c, 0, 42, 114
1, 20795, Note_off_c, 0, 42, 114
1, 20800, Note_on_c, 0, 46, 107
1, 20842, Note_off_c, 0, 46, 107
1, 20874, Note_on_c, 0, 53, 103
1, 20919, Note_off_c, 0, 53, 103
1, 20926, Note_on_c, 0, 58, 105
1, 20973, Note_off_c, 0, 58, 105
1, 20990, Note_on_c, 0, 59, 104
1, 21034, Note_off_c, 0, 59, 104
1, 21062, Note_on_c, 0, 65, 93
1, 21117, Note_off_c, 0, 65, 93
1, 21129, Note_on_c, 0, 67, 100
1, 21168, Note_off_c, 0, 67, 100
1, 21175, Note_on_c, 0, 70, 107
1, 21339, Note_off_c, 0, 70, 107
1, 21381, Note_on_c, 0, 68, 107
1, 21507, Note_off_c, 0, 68, 107
1, 21509, Note_on_c, 0, 67, 96
1, 21559, Note_off_c, 0, 67, 96
1, 21591, Note_on_c, 0, 60, 103
1, 21626, Note_off_c, 0, 60, 103
1, 21641, Note_on_c, 0, 63, 104
1, 21692, Note_off_c, 0, 63, 104
1, 21702, Note_on_c, 0, 67, 101
1, 21749, Note_off_c, 0, 67, 101
1, 21763, Note_on_c, 0, 63, 108
1, 21794, Note_off_c, 0, 63, 108
1, 21815, Note_on_c, 0, 65, 99
1, 21870, Note_off_c, 0, 65, 99
1, 21880, Note_on_c, 0, 60, 99
1, 21924, Note_off_c, 0, 60, 99
1, 21945, Note_on_c, 0, 58, 99
1, 21987, Note_off_c, 0, 58, 99
1, 22026, Note_on_c, 0, 55, 97
1, 22091, Note_off_c, 0, 55, 97
1, 22109, Note_on_c, 0, 51, 102
1, 22146, Note_off_c, 0, 51, 102
1, 22171, Note_on_c, 0, 48, 102
1, 22226, Note_off_c, 0, 48, 102
1, 22231, Note_on_c, 0, 51, 102
1, 22291, Note_off_c, 0, 51, 102
1, 22321, Note_on_c, 0, 58, 103
1, 22377, Note_off_c, 0, 58, 103
1, 22400, Note_on_c, 0, 55, 101
1, 22455, Note_off_c, 0, 55, 101
1, 22463, Note_on_c, 0, 56, 103
1, 22539, Note_off_c, 0, 56, 103
1, 22553, Note_on_c, 0, 58, 102
1, 22602, Note_off_c, 0, 58, 102
1, 22616, Note_on_c, 0, 60, 90
1, 22647, Note_off_c, 0, 60, 90
1, 22662, Note_on_c, 0, 63, 102
1, 22745, Note_off_c, 0, 63, 102
1, 22752, Note_on_c, 0, 67, 106
1, 22822, Note_off_c, 0, 67, 106
1, 22827, Note_on_c, 0, 63, 111
1, 22887, Note_off_c, 0, 63, 111
1, 22899, Note_on_c, 0, 65, 100
1, 22932, Note_off_c, 0, 65, 100
1, 22954, Note_on_c, 0, 67, 103
1, 23007, Note_off_c, 0, 67, 103
1, 23022, Note_on_c, 0, 68, 108
1, 23059, Note_off_c, 0, 68, 108
1, 23080, Note_on_c, 0, 70, 108
1, 23173, Note_off_c, 0, 70, 108
1, 23175, Note_on_c, 0, 72, 104
1, 23217, Note_off_c, 0, 72, 104
1, 23236, Note_on_c, 0, 74, 95
1, 23536, Note_off_c, 0, 74, 95
1, 24239, Note_on_c, 0, 55, 107
1, 24310, Note_off_c, 0, 55, 107
1, 24324, Note_on_c, 0, 56, 104
1, 24352, Note_off_c, 0, 56, 104
1, 24369, Note_on_c, 0, 58, 108
1, 24411, Note_off_c, 0, 58, 108
1, 24435, Note_on_c, 0, 61, 107
1, 24474, Note_off_c, 0, 61, 107
1, 24495, Note_on_c, 0, 63, 107
1, 24518, Note_off_c, 0, 63, 107
1, 24526, Note_on_c, 0, 64, 117
1, 24581, Note_off_c, 0, 64, 117
1, 24595, Note_on_c, 0, 69, 111
1, 24651, Note_off_c, 0, 69, 111
1, 24668, Note_on_c, 0, 71, 112
1, 24723, Note_off_c, 0, 71, 112
1, 24735, Note_on_c, 0, 73, 87
1, 25100, Note_off_c, 0, 73, 87
1, 25634, Note_on_c, 0, 66, 102
1, 25696, Note_off_c, 0, 66, 102
1, 25701, Note_on_c, 0, 70, 106
1, 25773, Note_off_c, 0, 70, 106
1, 25776, Note_on_c, 0, 68, 108
1, 25932, Note_off_c, 0, 68, 108
1, 25962, Note_on_c, 0, 60, 103
1, 26020, Note_off_c, 0, 60, 103
1, 26025, Note_on_c, 0, 63, 109
1, 26085, Note_off_c, 0, 63, 109
1, 26092, Note_on_c, 0, 67, 102
1, 26141, Note_off_c, 0, 67, 102
1, 26156, Note_on_c, 0, 65, 103
1, 26328, Note_off_c, 0, 65, 103
1, 26340, Note_on_c, 0, 66, 94
1, 26600, Note_off_c, 0, 66, 94
1, 26600, Note_on_c, 0, 64, 102
1, 26649, Note_off_c, 0, 64, 102
1, 26659, Note_on_c, 0, 62, 106
1, 26708, Note_off_c, 0, 62, 106
1, 26718, Note_on_c, 0, 61, 100
1, 26771, Note_off_c, 0, 61, 100
1, 26781, Note_on_c, 0, 59, 97
1, 26841, Note_off_c, 0, 59, 97
1, 26847, Note_on_c, 0, 57, 97
1, 26921, Note_off_c, 0, 57, 97
1, 26935, Note_on_c, 0, 58, 89
1, 27412, Note_off_c, 0, 58, 89
1, 29559, Note_on_c, 0, 67, 118
1, 29669, Note_off_c, 0, 67, 118
1, 29796, Note_on_c, 0, 67, 114
1, 29998, Note_off_c, 0, 67, 114
1, 30008, Note_on_c, 0, 66, 115
1, 30125, Note_off_c, 0, 66, 115
1, 30151, Note_on_c, 0, 65, 88
1, 30399, Note_off_c, 0, 65, 88
1, 31994, Note_on_c, 0, 61, 105
1, 32066, Note_off_c, 0, 61, 105
1, 32071, Note_on_c, 0, 63, 111
1, 32158, Note_off_c, 0, 63, 111
1, 32161, Note_on_c, 0, 65, 110
1, 32256, Note_off_c, 0, 65, 110
1, 32264, Note_on_c, 0, 61, 93
1, 32310, Note_off_c, 0, 61, 93
1, 32340, Note_on_c, 0, 63, 118
1, 32453, Note_off_c, 0, 63, 118
1, 32463, Note_on_c, 0, 61, 104
1, 32507, Note_off_c, 0, 61, 104
1, 32522, Note_on_c, 0, 58, 106
1, 32635, Note_off_c, 0, 58, 106
1, 32645, Note_on_c, 0, 54, 104
1, 32716, Note_off_c, 0, 54, 104
1, 32726, Note_on_c, 0, 53, 103
1, 32772, Note_off_c, 0, 53, 103
1, 32777, Note_on_c, 0, 52, 106
1, 32848, Note_off_c, 0, 52, 106
1, 32853, Note_on_c, 0, 51, 103
1, 32988, Note_off_c, 0, 51, 103
1, 32995, Note_on_c, 0, 53, 105
1, 33073, Note_off_c, 0, 53, 105
1, 33088, Note_on_c, 0, 55, 105
1, 33157, Note_off_c, 0, 55, 105
1, 33166, Note_on_c, 0, 58, 100
1, 33249, Note_off_c, 0, 58, 100
1, 33274, Note_on_c, 0, 63, 105
1, 33377, Note_off_c, 0, 63, 105
1, 33450, Note_on_c, 0, 67, 109
1, 33537, Note_off_c, 0, 67, 109
1, 33574, Note_on_c, 0, 63, 98
1, 33627, Note_off_c, 0, 63, 98
1, 33635, Note_on_c, 0, 65, 109
1, 33712, Note_off_c, 0, 65, 109
1, 33737, Note_on_c, 0, 63, 111
1, 33811, Note_off_c, 0, 63, 111
1, 33832, Note_on_c, 0, 59, 103
1, 33911, Note_off_c, 0, 59, 103
1, 33996, Note_on_c, 0, 55, 104
1, 34033, Note_off_c, 0, 55, 104
1, 34039, Note_on_c, 0, 61, 106
1, 34133, Note_off_c, 0, 61, 106
1, 34142, Note_on_c, 0, 63, 103
1, 34188, Note_off_c, 0, 63, 103
1, 34190, Note_on_c, 0, 65, 108
1, 34312, Note_off_c, 0, 65, 108
1, 34408, Note_on_c, 0, 63, 114
1, 34536, Note_off_c, 0, 63, 114
1, 34562, Note_on_c, 0, 58, 98
1, 34617, Note_off_c, 0, 58, 98
1, 34632, Note_on_c, 0, 54, 97
1, 34717, Note_off_c, 0, 54, 97
1, 34738, Note_on_c, 0, 51, 96
1, 34780, Note_off_c, 0, 51, 96
1, 34806, Note_on_c, 0, 55, 108
1, 34928, Note_off_c, 0, 55, 108
1, 34938, Note_on_c, 0, 58, 109
1, 34982, Note_off_c, 0, 58, 109
1, 34993, Note_on_c, 0, 62, 111
1, 35068, Note_off_c, 0, 62, 111
1, 35087, Note_on_c, 0, 65, 115
1, 35177, Note_off_c, 0, 65, 115
1, 35184, Note_on_c, 0, 63, 119
1, 35278, Note_off_c, 0, 63, 119
1, 35287, Note_on_c, 0, 65, 113
1, 35327, Note_off_c, 0, 65, 113
1, 35349, Note_on_c, 0, 67, 98
1, 35448, Note_off_c, 0, 67, 98
1, 35453, Note_on_c, 0, 70, 97
1, 35506, Note_off_c, 0, 70, 97
1, 35546, Note_on_c, 0, 72, 118
1, 35645, Note_off_c, 0, 72, 118
1, 35655, Note_on_c, 0, 74, 111
1, 35855, Note_off_c, 0, 74, 111
1, 35862, Note_on_c, 0, 70, 113
1, 35947, Note_off_c, 0, 70, 113
1, 35952, Note_on_c, 0, 69, 108
1, 35998, Note_off_c, 0, 69, 108
1, 36010, Note_on_c, 0, 70, 106
1, 36098, Note_off_c, 0, 70, 106
1, 36119, Note_on_c, 0, 63, 113
1, 36198, Note_off_c, 0, 63, 113
1, 36214, Note_on_c, 0, 62, 115
1, 36323, Note_off_c, 0, 62, 115
1, 36338, Note_on_c, 0, 61, 95
1, 36627, Note_off_c, 0, 61, 95
1, 36650, Note_on_c, 0, 68, 108
1, 36772, Note_off_c, 0, 68, 108
1, 36772, Note_on_c, 0, 64, 109
1, 36867, Note_off_c, 0, 64, 109
1, 36881, Note_on_c, 0, 61, 100
1, 36944, Note_off_c, 0, 61, 100
1, 36949, Note_on_c, 0, 59, 96
1, 37012, Note_off_c, 0, 59, 96
1, 37042, Note_on_c, 0, 57, 103
1, 37262, Note_off_c, 0, 57, 103
1, 38040, Note_on_c, 0, 57, 107
1, 38114, Note_off_c, 0, 57, 107
1, 38122, Note_on_c, 0, 59, 103
1, 38178, Note_off_c, 0, 59, 103
1, 38186, Note_on_c, 0, 61, 107
1, 38267, Note_off_c, 0, 61, 107
1, 38297, Note_on_c, 0, 64, 117
1, 38352, Note_off_c, 0, 64, 117
1, 38360, Note_on_c, 0, 69, 111
1, 38470, Note_off_c, 0, 69, 111
1, 38480, Note_on_c, 0, 66, 110
1, 38556, Note_off_c, 0, 66, 110
1, 38570, Note_on_c, 0, 64, 116
1, 38635, Note_off_c, 0, 64, 116
1, 38642, Note_on_c, 0, 61, 108
1, 38710, Note_off_c, 0, 61, 108
1, 38722, Note_on_c, 0, 59, 104
1, 38773, Note_off_c, 0, 59, 104
1, 38786, Note_on_c, 0, 57, 106
1, 38861, Note_off_c, 0, 57, 106
1, 38871, Note_on_c, 0, 54, 101
1, 38906, Note_off_c, 0, 54, 101
1, 38911, Note_on_c, 0, 53, 109
1, 38964, Note_off_c, 0, 53, 109
1, 38974, Note_on_c, 0, 49, 107
1, 39052, Note_off_c, 0, 49, 107
1, 39059, Note_on_c, 0, 48, 105
1, 39089, Note_off_c, 0, 48, 105
1, 39101, Note_on_c, 0, 47, 105
1, 39140, Note_off_c, 0, 47, 105
1, 39140, Note_on_c, 0, 46, 110
1, 39203, Note_off_c, 0, 46, 110
1, 39214, Note_on_c, 0, 45, 110
1, 39355, Note_off_c, 0, 45, 110
1, 39367, Note_on_c, 0, 46, 100
1, 39706, Note_off_c, 0, 46, 100
1, 40796, Note_on_c, 0, 46, 122
1, 40883, Note_off_c, 0, 46, 122
1, 40895, Note_on_c, 0, 45, 120
1, 40992, Note_off_c, 0, 45, 120
1, 41003, Note_on_c, 0, 48, 116
1, 41092, Note_off_c, 0, 48, 116
1, 41103, Note_on_c, 0, 49, 112
1, 41161, Note_off_c, 0, 49, 112
1, 41163, Note_on_c, 0, 52, 111
1, 41200, Note_off_c, 0, 52, 111
1, 41222, Note_on_c, 0, 57, 107
1, 41272, Note_off_c, 0, 57, 107
1, 41280, Note_on_c, 0, 58, 106
1, 41317, Note_off_c, 0, 58, 106
1, 41330, Note_on_c, 0, 61, 112
1, 41375, Note_off_c, 0, 61, 112
1, 41382, Note_on_c, 0, 63, 112
1, 41403, Note_off_c, 0, 63, 112
1, 41406, Note_on_c, 0, 64, 116
1, 41457, Note_off_c, 0, 64, 116
1, 41470, Note_on_c, 0, 69, 115
1, 41510, Note_off_c, 0, 69, 115
1, 41518, Note_on_c, 0, 71, 115
1, 41549, Note_off_c, 0, 71, 115
1, 41559, Note_on_c, 0, 73, 117
1, 41728, Note_off_c, 0, 73, 117
1, 41763, Note_on_c, 0, 69, 104
1, 41782, Note_off_c, 0, 69, 104
1, 41792, Note_on_c, 0, 64, 106
1, 41833, Note_off_c, 0, 64, 106
1, 41855, Note_on_c, 0, 61, 111
1, 41924, Note_off_c, 0, 61, 111
1, 41934, Note_on_c, 0, 59, 108
1, 41965, Note_off_c, 0, 59, 108
1, 41972, Note_on_c, 0, 57, 103
1, 41989, Note_off_c, 0, 57, 103
1, 42003, Note_on_c, 0, 51, 107
1, 42029, Note_on_c, 0, 49, 109
1, 42029, Note_off_c, 0, 51, 107
1, 42071, Note_off_c, 0, 49, 109
1, 42079, Note_on_c, 0, 47, 114
1, 42166, Note_off_c, 0, 47, 114
1, 42176, Note_on_c, 0, 46, 107
1, 42242, Note_off_c, 0, 46, 107
1, 42248, Note_on_c, 0, 45, 109
1, 42621, Note_off_c, 0, 45, 109
1, 42642, Note_on_c, 0, 46, 101
1, 42684, Note_off_c, 0, 46, 101
1, 42694, Note_on_c, 0, 48, 101
1, 42750, Note_off_c, 0, 48, 101
1, 42750, Note_on_c, 0, 49, 105
1, 42785, Note_off_c, 0, 49, 105
1, 42785, Note_on_c, 0, 51, 108
1, 42816, Note_off_c, 0, 51, 108
1, 42816, Note_on_c, 0, 55, 107
1, 42860, Note_off_c, 0, 55, 107
1, 42865, Note_on_c, 0, 58, 108
1, 42901, Note_off_c, 0, 58, 108
1, 42914, Note_on_c, 0, 61, 112
1, 42975, Note_off_c, 0, 61, 112
1, 42992, Note_on_c, 0, 66, 103
1, 43028, Note_off_c, 0, 66, 103
1, 43033, Note_on_c, 0, 69, 113
1, 43073, Note_off_c, 0, 69, 113
1, 43083, Note_on_c, 0, 71, 117
1, 43139, Note_off_c, 0, 71, 117
1, 43152, Note_on_c, 0, 73, 117
1, 43365, Note_off_c, 0, 73, 117
1, 43397, Note_on_c, 0, 69, 100
1, 43433, Note_off_c, 0, 69, 100
1, 43449, Note_on_c, 0, 64, 97
1, 43471, Note_off_c, 0, 64, 97
1, 43487, Note_on_c, 0, 61, 102
1, 43576, Note_off_c, 0, 61, 102
1, 43586, Note_on_c, 0, 59, 100
1, 43603, Note_off_c, 0, 59, 100
1, 43616, Note_on_c, 0, 57, 111
1, 43641, Note_off_c, 0, 57, 111
1, 43656, Note_on_c, 0, 51, 104
1, 43722, Note_off_c, 0, 51, 104
1, 43735, Note_on_c, 0, 49, 106
1, 43784, Note_off_c, 0, 49, 106
1, 43796, Note_on_c, 0, 48, 104
1, 43850, Note_off_c, 0, 48, 104
1, 43862, Note_on_c, 0, 46, 107
1, 43968, Note_off_c, 0, 46, 107
1, 43968, Note_on_c, 0, 47, 105
1, 44243, Note_off_c, 0, 47, 105
1, 44250, Note_on_c, 0, 48, 110
1, 44338, Note_off_c, 0, 48, 110
1, 44339, Note_on_c, 0, 49, 110
1, 44410, Note_off_c, 0, 49, 110
1, 44425, Note_on_c, 0, 55, 102
1, 44463, Note_off_c, 0, 55, 102
1, 44485, Note_on_c, 0, 59, 104
1, 44527, Note_off_c, 0, 59, 104
1, 44547, Note_on_c, 0, 62, 109
1, 44603, Note_off_c, 0, 62, 109
1, 44610, Note_on_c, 0, 67, 99
1, 44638, Note_on_c, 0, 70, 105
1, 44638, Note_off_c, 0, 67, 99
1, 44675, Note_off_c, 0, 70, 105
1, 44692, Note_on_c, 0, 73, 110
1, 44729, Note_off_c, 0, 73, 110
1, 44737, Note_on_c, 0, 74, 118
1, 44985, Note_off_c, 0, 74, 118
1, 44997, Note_on_c, 0, 73, 113
1, 45025, Note_off_c, 0, 73, 113
1, 45025, Note_on_c, 0, 71, 115
1, 45055, Note_off_c, 0, 71, 115
1, 45060, Note_on_c, 0, 65, 105
1, 45088, Note_off_c, 0, 65, 105
1, 45088, Note_on_c, 0, 64, 105
1, 45125, Note_off_c, 0, 64, 105
1, 45125, Note_on_c, 0, 62, 110
1, 45191, Note_off_c, 0, 62, 110
1, 45211, Note_on_c, 0, 59, 106
1, 45252, Note_off_c, 0, 59, 106
1, 45259, Note_on_c, 0, 57, 106
1, 45284, Note_off_c, 0, 57, 106
1, 45290, Note_on_c, 0, 53, 104
1, 45332, Note_off_c, 0, 53, 104
1, 45332, Note_on_c, 0, 50, 98
1, 45398, Note_off_c, 0, 50, 98
1, 45409, Note_on_c, 0, 51, 100
1, 45465, Note_off_c, 0, 51, 100
1, 45468, Note_on_c, 0, 58, 92
1, 45746, Note_off_c, 0, 58, 92
1, 46925, Note_on_c, 0, 67, 119
1, 47019, Note_off_c, 0, 67, 119
1, 47029, Note_on_c, 0, 70, 117
1, 47188, Note_off_c, 0, 70, 117
1, 47195, Note_on_c, 0, 68, 114
1, 47292, Note_off_c, 0, 68, 114
1, 47310, Note_on_c, 0, 67, 114
1, 47416, Note_off_c, 0, 67, 114
1, 47433, Note_on_c, 0, 79, 110
1, 47718, Note_off_c, 0, 79, 110
1, 47755, Note_on_c, 0, 78, 95
1, 48009, Note_off_c, 0, 78, 95
1, 48039, Note_on_c, 0, 77, 96
1, 48474, Note_off_c, 0, 77, 96
1, 48718, Note_on_c, 0, 70, 116
1, 48838, Note_off_c, 0, 70, 116
1, 48860, Note_on_c, 0, 69, 110
1, 48939, Note_off_c, 0, 69, 110
1, 48953, Note_on_c, 0, 68, 111
1, 49075, Note_off_c, 0, 68, 111
1, 49093, Note_on_c, 0, 67, 113
1, 49216, Note_off_c, 0, 67, 113
1, 49238, Note_on_c, 0, 78, 115
1, 49297, Note_off_c, 0, 78, 115
1, 49303, Note_on_c, 0, 79, 112
1, 49438, Note_off_c, 0, 79, 112
1, 49452, Note_on_c, 0, 77, 99
1, 49531, Note_off_c, 0, 77, 99
1, 49575, Note_on_c, 0, 70, 102
1, 49631, Note_off_c, 0, 70, 102
1, 49654, Note_on_c, 0, 77, 94
1, 50173, Note_off_c, 0, 77, 94
1, 50394, Note_on_c, 0, 63, 95
1, 50498, Note_off_c, 0, 63, 95
1, 50522, Note_on_c, 0, 67, 111
1, 50628, Note_off_c, 0, 67, 111
1, 50638, Note_on_c, 0, 68, 116
1, 50757, Note_off_c, 0, 68, 116
1, 50764, Note_on_c, 0, 70, 116
1, 50879, Note_off_c, 0, 70, 116
1, 50919, Note_on_c, 0, 71, 117
1, 50988, Note_off_c, 0, 71, 117
1, 51003, Note_on_c, 0, 73, 114
1, 51136, Note_off_c, 0, 73, 114
1, 51144, Note_on_c, 0, 71, 102
1, 51177, Note_off_c, 0, 71, 102
1, 51191, Note_on_c, 0, 69, 114
1, 51286, Note_off_c, 0, 69, 114
1, 51287, Note_on_c, 0, 66, 106
1, 51345, Note_off_c, 0, 66, 106
1, 51359, Note_on_c, 0, 64, 106
1, 51385, Note_off_c, 0, 64, 106
1, 51390, Note_on_c, 0, 61, 106
1, 51481, Note_off_c, 0, 61, 106
1, 51501, Note_on_c, 0, 59, 100
1, 51585, Note_off_c, 0, 59, 100
1, 51597, Note_on_c, 0, 64, 114
1, 51750, Note_off_c, 0, 64, 114
1, 51761, Note_on_c, 0, 66, 10
1, 51926, Note_off_c, 0, 66, 10
1, 51940, Note_on_c, 0, 64, 109
1, 52066, Note_off_c, 0, 64, 109
1, 52085, Note_on_c, 0, 61, 107
1, 52166, Note_off_c, 0, 61, 107
1, 52180, Note_on_c, 0, 59, 100
1, 52254, Note_off_c, 0, 59, 100
1, 52273, Note_on_c, 0, 57, 101
1, 52336, Note_off_c, 0, 57, 101
1, 52346, Note_on_c, 0, 54, 99
1, 52397, Note_off_c, 0, 54, 99
1, 52418, Note_on_c, 0, 52, 101
1, 52524, Note_off_c, 0, 52, 101
1, 52545, Note_on_c, 0, 58, 101
1, 52720, Note_off_c, 0, 58, 101
1, 53423, Note_on_c, 0, 68, 114
1, 53499, Note_off_c, 0, 68, 114
1, 53506, Note_on_c, 0, 69, 110
1, 53561, Note_off_c, 0, 69, 110
1, 53575, Note_on_c, 0, 70, 114
1, 53663, Note_off_c, 0, 70, 114
1, 53739, Note_on_c, 0, 70, 104
1, 53829, Note_off_c, 0, 70, 104
1, 53955, Note_on_c, 0, 58, 104
1, 53999, Note_off_c, 0, 58, 104
1, 54006, Note_on_c, 0, 58, 101
1, 54037, Note_off_c, 0, 58, 101
1, 54042, Note_on_c, 0, 63, 107
1, 54097, Note_off_c, 0, 63, 107
1, 54100, Note_on_c, 0, 65, 102
1, 54169, Note_off_c, 0, 65, 102
1, 54172, Note_on_c, 0, 67, 106
1, 54259, Note_off_c, 0, 67, 106
1, 54314, Note_on_c, 0, 67, 107
1, 54402, Note_off_c, 0, 67, 107
1, 54475, Note_on_c, 0, 67, 108
1, 54573, Note_off_c, 0, 67, 108
1, 54633, Note_on_c, 0, 58, 101
1, 54716, Note_off_c, 0, 58, 101
1, 54724, Note_on_c, 0, 60, 102
1, 54766, Note_off_c, 0, 60, 102
1, 54774, Note_on_c, 0, 62, 110
1, 54814, Note_off_c, 0, 62, 110
1, 54828, Note_on_c, 0, 63, 114
1, 54939, Note_off_c, 0, 63, 114
1, 55013, Note_on_c, 0, 63, 116
1, 55078, Note_off_c, 0, 63, 116
1, 55129, Note_on_c, 0, 63, 115
1, 55233, Note_off_c, 0, 63, 115
1, 55270, Note_on_c, 0, 63, 111
1, 55374, Note_off_c, 0, 63, 111
1, 55404, Note_on_c, 0, 63, 116
1, 55515, Note_off_c, 0, 63, 116
1, 55548, Note_on_c, 0, 63, 117
1, 55711, Note_off_c, 0, 63, 117
1, 55723, Note_on_c, 0, 65, 104
1, 55826, Note_off_c, 0, 65, 104
1, 55836, Note_on_c, 0, 67, 107
1, 55946, Note_off_c, 0, 67, 107
1, 55951, Note_on_c, 0, 65, 107
1, 56109, Note_off_c, 0, 65, 107
1, 56112, Note_on_c, 0, 63, 116
1, 56245, Note_off_c, 0, 63, 116
1, 56337, Note_on_c, 0, 74, 107
1, 56479, Note_off_c, 0, 74, 107
1, 56484, Note_on_c, 0, 75, 90
1, 56971, Note_off_c, 0, 75, 90
1, 57287, Note_on_c, 0, 63, 117
1, 57359, Note_off_c, 0, 63, 117
1, 57364, Note_on_c, 0, 65, 103
1, 57401, Note_off_c, 0, 65, 103
1, 57402, Note_on_c, 0, 67, 104
1, 57503, Note_off_c, 0, 67, 104
1, 57515, Note_on_c, 0, 63, 115
1, 57607, Note_off_c, 0, 63, 115
1, 57608, Note_on_c, 0, 65, 105
1, 57641, Note_off_c, 0, 65, 105
1, 57656, Note_on_c, 0, 66, 101
1, 57943, Note_off_c, 0, 66, 101
1, 57944, Note_on_c, 0, 68, 104
1, 58007, Note_off_c, 0, 68, 104
1, 58014, Note_on_c, 0, 69, 95
1, 58033, Note_off_c, 0, 69, 95
1, 58043, Note_on_c, 0, 71, 110
1, 58117, Note_off_c, 0, 71, 110
1, 58127, Note_on_c, 0, 66, 100
1, 58183, Note_off_c, 0, 66, 100
1, 58188, Note_on_c, 0, 61, 101
1, 58260, Note_off_c, 0, 61, 101
1, 58265, Note_on_c, 0, 64, 104
1, 58339, Note_off_c, 0, 64, 104
1, 58351, Note_on_c, 0, 59, 103
1, 58416, Note_off_c, 0, 59, 103
1, 58428, Note_on_c, 0, 54, 102
1, 58475, Note_off_c, 0, 54, 102
1, 58478, Note_on_c, 0, 52, 101
1, 58531, Note_off_c, 0, 52, 101
1, 58545, Note_on_c, 0, 56, 102
1, 58601, Note_off_c, 0, 56, 102
1, 58608, Note_on_c, 0, 58, 102
1, 58654, Note_off_c, 0, 58, 102
1, 59311, Note_on_c, 0, 66, 118
1, 59415, Note_off_c, 0, 66, 118
1, 59424, Note_on_c, 0, 68, 113
1, 59598, Note_off_c, 0, 68, 113
1, 59613, Note_on_c, 0, 67, 108
1, 59765, Note_off_c, 0, 67, 108
1, 59777, Note_on_c, 0, 63, 116
1, 59918, Note_off_c, 0, 63, 116
1, 59933, Note_on_c, 0, 65, 106
1, 60048, Note_off_c, 0, 65, 106
1, 60055, Note_on_c, 0, 67, 107
1, 60220, Note_off_c, 0, 67, 107
1, 60242, Note_on_c, 0, 66, 104
1, 60428, Note_off_c, 0, 66, 104
1, 60441, Note_on_c, 0, 64, 108
1, 60490, Note_off_c, 0, 64, 108
1, 60495, Note_on_c, 0, 62, 111
1, 60550, Note_off_c, 0, 62, 111
1, 60564, Note_on_c, 0, 61, 102
1, 60617, Note_off_c, 0, 61, 102
1, 60640, Note_on_c, 0, 59, 101
1, 60815, Note_off_c, 0, 59, 101
1, 60834, Note_on_c, 0, 64, 108
1, 60956, Note_off_c, 0, 64, 108
1, 60964, Note_on_c, 0, 61, 106
1, 61059, Note_off_c, 0, 61, 106
1, 61071, Note_on_c, 0, 57, 101
1, 61122, Note_off_c, 0, 57, 101
1, 61139, Note_on_c, 0, 54, 100
1, 61187, Note_off_c, 0, 54, 100
1, 61197, Note_on_c, 0, 52, 101
1, 61260, Note_off_c, 0, 52, 101
1, 61277, Note_on_c, 0, 59, 101
1, 61349, Note_off_c, 0, 59, 101
1, 61356, Note_on_c, 0, 54, 102
1, 61407, Note_off_c, 0, 54, 102
1, 61426, Note_on_c, 0, 49, 105
1, 61491, Note_off_c, 0, 49, 105
1, 61499, Note_on_c, 0, 52, 106
1, 61571, Note_off_c, 0, 52, 106
1, 61574, Note_on_c, 0, 50, 104
1, 61646, Note_off_c, 0, 50, 104
1, 61688, Note_on_c, 0, 47, 113
1, 61787, Note_off_c, 0, 47, 113
1, 61792, Note_on_c, 0, 59, 110
1, 61852, Note_off_c, 0, 59, 110
1, 61880, Note_on_c, 0, 52, 108
1, 61936, Note_off_c, 0, 52, 108
1, 61956, Note_on_c, 0, 55, 102
1, 61998, Note_off_c, 0, 55, 102
1, 62010, Note_on_c, 0, 57, 107
1, 62060, Note_off_c, 0, 57, 107
1, 62073, Note_on_c, 0, 58, 105
1, 62128, Note_off_c, 0, 58, 105
1, 62132, Note_on_c, 0, 61, 102
1, 62171, Note_off_c, 0, 61, 102
1, 62196, Note_on_c, 0, 64, 107
1, 62270, Note_off_c, 0, 64, 107
1, 62277, Note_on_c, 0, 69, 98
1, 62305, Note_off_c, 0, 69, 98
1, 62308, Note_on_c, 0, 70, 104
1, 62335, Note_off_c, 0, 70, 104
1, 62344, Note_on_c, 0, 71, 107
1, 62382, Note_off_c, 0, 71, 107
1, 62394, Note_on_c, 0, 73, 111
1, 62473, Note_off_c, 0, 73, 111
1, 62485, Note_on_c, 0, 67, 95
1, 62519, Note_off_c, 0, 67, 95
1, 62558, Note_on_c, 0, 64, 110
1, 62634, Note_off_c, 0, 64, 110
1, 62646, Note_on_c, 0, 63, 112
1, 62710, Note_off_c, 0, 63, 112
1, 62713, Note_on_c, 0, 59, 103
1, 62777, Note_off_c, 0, 59, 103
1, 62784, Note_on_c, 0, 54, 100
1, 62817, Note_off_c, 0, 54, 100
1, 62818, Note_on_c, 0, 51, 102
1, 62893, Note_off_c, 0, 51, 102
1, 62899, Note_on_c, 0, 56, 112
1, 62926, Note_off_c, 0, 56, 112
1, 62937, Note_on_c, 0, 57, 111
1, 62959, Note_off_c, 0, 57, 111
1, 62975, Note_on_c, 0, 58, 106
1, 63046, Note_off_c, 0, 58, 106
1, 63062, Note_on_c, 0, 63, 112
1, 63112, Note_off_c, 0, 63, 112
1, 63125, Note_on_c, 0, 60, 99
1, 63166, Note_off_c, 0, 60, 99
1, 63177, Note_on_c, 0, 58, 105
1, 63235, Note_off_c, 0, 58, 105
1, 63244, Note_on_c, 0, 55, 103
1, 63322, Note_off_c, 0, 55, 103
1, 63343, Note_on_c, 0, 51, 103
1, 63398, Note_off_c, 0, 51, 103
1, 63410, Note_on_c, 0, 53, 104
1, 63475, Note_off_c, 0, 53, 104
1, 63481, Note_on_c, 0, 52, 100
1, 63527, Note_off_c, 0, 52, 100
1, 63528, Note_on_c, 0, 51, 100
1, 63590, Note_off_c, 0, 51, 100
1, 63614, Note_on_c, 0, 46, 111
1, 63820, Note_off_c, 0, 46, 111
1, 66324, Note_on_c, 0, 63, 127
1, 66427, Note_off_c, 0, 63, 127
1, 66437, Note_on_c, 0, 65, 112
1, 66477, Note_off_c, 0, 65, 112
1, 66492, Note_on_c, 0, 67, 113
1, 66605, Note_off_c, 0, 67, 113
1, 66610, Note_on_c, 0, 65, 101
1, 66961, Note_off_c, 0, 65, 101
1, 67823, Note_on_c, 0, 62, 115
1, 67904, Note_off_c, 0, 62, 115
1, 67911, Note_on_c, 0, 63, 112
1, 67931, Note_off_c, 0, 63, 112
1, 67943, Note_on_c, 0, 65, 108
1, 67973, Note_off_c, 0, 65, 108
1, 67994, Note_on_c, 0, 67, 113
1, 68095, Note_off_c, 0, 67, 113
1, 68113, Note_on_c, 0, 65, 97
1, 68418, Note_off_c, 0, 65, 97
1, 68964, Note_on_c, 0, 61, 111
1, 69033, Note_off_c, 0, 61, 111
1, 69045, Note_on_c, 0, 63, 111
1, 69103, Note_off_c, 0, 63, 111
1, 69108, Note_on_c, 0, 65, 110
1, 69255, Note_off_c, 0, 65, 110
1, 69262, Note_on_c, 0, 63, 99
1, 69642, Note_off_c, 0, 63, 99
1, 70112, Note_on_c, 0, 66, 110
1, 70186, Note_off_c, 0, 66, 110
1, 70189, Note_on_c, 0, 68, 113
1, 70261, Note_off_c, 0, 68, 113
1, 70272, Note_on_c, 0, 70, 110
1, 70361, Note_off_c, 0, 70, 110
1, 70449, Note_on_c, 0, 63, 114
1, 70562, Note_off_c, 0, 63, 114
1, 70576, Note_on_c, 0, 66, 108
1, 70666, Note_off_c, 0, 66, 108
1, 70668, Note_on_c, 0, 68, 104
1, 70736, Note_off_c, 0, 68, 104
1, 71059, Note_on_c, 0, 59, 101
1, 71131, Note_off_c, 0, 59, 101
1, 71141, Note_on_c, 0, 61, 101
1, 71196, Note_off_c, 0, 61, 101
1, 71208, Note_on_c, 0, 63, 114
1, 71282, Note_off_c, 0, 63, 114
1, 71601, Note_on_c, 0, 67, 112
1, 71707, Note_off_c, 0, 67, 112
1, 71714, Note_on_c, 0, 70, 110
1, 71781, Note_off_c, 0, 70, 110
1, 72087, Note_on_c, 0, 57, 105
1, 72157, Note_off_c, 0, 57, 105
1, 72170, Note_on_c, 0, 63, 116
1, 72251, Note_off_c, 0, 63, 116
1, 72254, Note_on_c, 0, 65, 108
1, 72312, Note_off_c, 0, 65, 108
1, 72930, Note_on_c, 0, 67, 102
1, 73015, Note_off_c, 0, 67, 102
1, 73032, Note_on_c, 0, 70, 112
1, 73095, Note_off_c, 0, 70, 112
1, 73240, Note_on_c, 0, 74, 114
1, 73453, Note_off_c, 0, 74, 114
1, 73459, Note_on_c, 0, 73, 115
1, 73714, Note_off_c, 0, 73, 115
1, 73727, Note_on_c, 0, 72, 115
1, 73920, Note_off_c, 0, 72, 115
1, 73925, Note_on_c, 0, 71, 112
1, 74216, Note_off_c, 0, 71, 112
1, 74230, Note_on_c, 0, 68, 112
1, 74437, Note_off_c, 0, 68, 112
1, 74451, Note_on_c, 0, 66, 113
1, 74635, Note_off_c, 0, 66, 113
1, 74640, Note_on_c, 0, 64, 114
1, 74908, Note_off_c, 0, 64, 114
1, 74916, Note_on_c, 0, 62, 114
1, 75109, Note_off_c, 0, 62, 114
1, 75128, Note_on_c, 0, 61, 113
1, 75330, Note_off_c, 0, 61, 113
1, 75338, Note_on_c, 0, 59, 100
1, 75615, Note_off_c, 0, 59, 100
1, 75629, Note_on_c, 0, 56, 107
1, 75829, Note_off_c, 0, 56, 107
1, 75844, Note_on_c, 0, 54, 99
1, 76129, Note_off_c, 0, 54, 99
1, 76205, Note_on_c, 0, 49, 99
1, 76606, Note_off_c, 0, 49, 99
1, 77670, Note_on_c, 0, 48, 113
1, 77760, Note_off_c, 0, 48, 113
1, 77772, Note_on_c, 0, 54, 116
1, 77855, Note_off_c, 0, 54, 116
1, 77867, Note_on_c, 0, 58, 109
1, 77914, Note_off_c, 0, 58, 109
1, 77917, Note_on_c, 0, 61, 111
1, 77991, Note_off_c, 0, 61, 111
1, 78008, Note_on_c, 0, 66, 107
1, 78066, Note_off_c, 0, 66, 107
1, 78076, Note_on_c, 0, 70, 115
1, 78175, Note_off_c, 0, 70, 115
1, 78183, Note_on_c, 0, 66, 102
1, 78254, Note_off_c, 0, 66, 102
1, 78257, Note_on_c, 0, 61, 113
1, 78370, Note_off_c, 0, 61, 113
1, 78385, Note_on_c, 0, 58, 105
1, 78452, Note_off_c, 0, 58, 105
1, 78460, Note_on_c, 0, 51, 99
1, 78859, Note_off_c, 0, 51, 99
1, 79182, Note_on_c, 0, 65, 102
1, 79276, Note_off_c, 0, 65, 102
1, 79288, Note_on_c, 0, 70, 112
1, 79362, Note_off_c, 0, 70, 112
1, 79370, Note_on_c, 0, 72, 101
1, 79442, Note_off_c, 0, 72, 101
1, 79454, Note_on_c, 0, 63, 112
1, 79517, Note_off_c, 0, 63, 112
1, 79531, Note_on_c, 0, 65, 102
1, 79587, Note_off_c, 0, 65, 102
1, 79594, Note_on_c, 0, 60, 95
1, 79681, Note_off_c, 0, 60, 95
1, 79686, Note_on_c, 0, 63, 110
1, 79762, Note_off_c, 0, 63, 110
1, 79777, Note_on_c, 0, 58, 103
1, 79887, Note_off_c, 0, 58, 103
1, 79895, Note_on_c, 0, 53, 100
1, 79955, Note_off_c, 0, 53, 100
1, 79967, Note_on_c, 0, 48, 94
1, 80260, Note_off_c, 0, 48, 94
1, 80819, Note_on_c, 0, 60, 113
1, 80897, Note_off_c, 0, 60, 113
1, 80911, Note_on_c, 0, 65, 105
1, 80974, Note_off_c, 0, 65, 105
1, 80974, Note_on_c, 0, 70, 105
1, 81064, Note_off_c, 0, 70, 105
1, 81065, Note_on_c, 0, 72, 108
1, 81134, Note_off_c, 0, 72, 108
1, 81144, Note_on_c, 0, 60, 106
1, 81227, Note_off_c, 0, 60, 106
1, 81228, Note_on_c, 0, 58, 107
1, 81315, Note_off_c, 0, 58, 107
1, 81325, Note_on_c, 0, 53, 106
1, 81396, Note_off_c, 0, 53, 106
1, 81408, Note_on_c, 0, 48, 101
1, 81489, Note_off_c, 0, 48, 101
1, 81489, Note_on_c, 0, 53, 104
1, 81574, Note_off_c, 0, 53, 104
1, 81585, Note_on_c, 0, 46, 105
1, 81756, Note_off_c, 0, 46, 105
1, 81770, Note_on_c, 0, 47, 109
1, 81952, Note_off_c, 0, 47, 109
1, 81989, Note_on_c, 0, 47, 107
1, 82063, Note_off_c, 0, 47, 107
1, 82072, Note_on_c, 0, 59, 109
1, 82156, Note_off_c, 0, 59, 109
1, 82172, Note_on_c, 0, 52, 111
1, 82313, Note_off_c, 0, 52, 111
1, 82567, Note_on_c, 0, 64, 113
1, 82671, Note_off_c, 0, 64, 113
1, 82678, Note_on_c, 0, 66, 98
1, 82706, Note_off_c, 0, 66, 98
1, 82713, Note_on_c, 0, 69, 109
1, 82840, Note_off_c, 0, 69, 109
1, 82850, Note_on_c, 0, 71, 112
1, 82912, Note_off_c, 0, 71, 112
1, 82922, Note_on_c, 0, 73, 109
1, 83009, Note_off_c, 0, 73, 109
1, 83046, Note_on_c, 0, 61, 108
1, 83101, Note_off_c, 0, 61, 108
1, 83102, Note_on_c, 0, 59, 105
1, 83226, Note_off_c, 0, 59, 105
1, 83281, Note_on_c, 0, 64, 111
1, 83403, Note_off_c, 0, 64, 111
1, 83406, Note_on_c, 0, 59, 106
1, 83484, Note_off_c, 0, 59, 106
1, 83489, Note_on_c, 0, 54, 103
1, 83590, Note_off_c, 0, 54, 103
1, 83603, Note_on_c, 0, 53, 100
1, 83647, Note_off_c, 0, 53, 100
1, 83667, Note_on_c, 0, 56, 105
1, 83771, Note_off_c, 0, 56, 105
1, 83866, Note_on_c, 0, 68, 110
1, 83958, Note_off_c, 0, 68, 110
1, 84059, Note_on_c, 0, 67, 105
1, 84208, Note_off_c, 0, 67, 105
1, 84430, Note_on_c, 0, 65, 107
1, 84520, Note_off_c, 0, 65, 107
1, 84526, Note_on_c, 0, 63, 112
1, 84714, Note_off_c, 0, 63, 112
1, 84718, Note_on_c, 0, 65, 99
1, 84815, Note_off_c, 0, 65, 99
1, 84827, Note_on_c, 0, 67, 102
1, 84967, Note_off_c, 0, 67, 102
1, 86694, Note_on_c, 0, 68, 121
1, 86774, Note_off_c, 0, 68, 121
1, 86791, Note_on_c, 0, 68, 119
1, 86876, Note_off_c, 0, 68, 119
1, 86891, Note_on_c, 0, 67, 111
1, 86954, Note_off_c, 0, 67, 111
1, 86982, Note_on_c, 0, 67, 107
1, 87051, Note_off_c, 0, 67, 107
1, 87068, Note_on_c, 0, 65, 112
1, 87142, Note_off_c, 0, 65, 112
1, 87152, Note_on_c, 0, 65, 110
1, 87226, Note_off_c, 0, 65, 110
1, 87247, Note_on_c, 0, 63, 124
1, 87341, Note_off_c, 0, 63, 124
1, 87368, Note_on_c, 0, 63, 121
1, 87437, Note_off_c, 0, 63, 121
1, 87463, Note_on_c, 0, 62, 115
1, 87542, Note_off_c, 0, 62, 115
1, 87558, Note_on_c, 0, 62, 113
1, 87621, Note_off_c, 0, 62, 113
1, 87628, Note_on_c, 0, 61, 106
1, 87726, Note_off_c, 0, 61, 106
1, 87744, Note_on_c, 0, 61, 107
1, 87830, Note_off_c, 0, 61, 107
1, 87830, Note_on_c, 0, 59, 102
1, 87906, Note_off_c, 0, 59, 102
1, 87917, Note_on_c, 0, 59, 103
1, 87976, Note_off_c, 0, 59, 103
1, 87990, Note_on_c, 0, 58, 106
1, 88078, Note_off_c, 0, 58, 106
1, 88093, Note_on_c, 0, 58, 103
1, 88170, Note_off_c, 0, 58, 103
1, 88197, Note_on_c, 0, 56, 107
1, 88250, Note_off_c, 0, 56, 107
1, 88257, Note_on_c, 0, 57, 109
1, 88349, Note_off_c, 0, 57, 109
1, 88364, Note_on_c, 0, 58, 106
1, 88504, Note_off_c, 0, 58, 106
1, 88510, Note_on_c, 0, 60, 98
1, 88583, Note_off_c, 0, 60, 98
1, 89664, Note_on_c, 0, 63, 123
1, 89780, Note_off_c, 0, 63, 123
1, 89822, Note_on_c, 0, 67, 112
1, 89930, Note_off_c, 0, 67, 112
1, 89943, Note_on_c, 0, 70, 103
1, 89996, Note_off_c, 0, 70, 103
1, 90033, Note_on_c, 0, 54, 106
1, 90197, Note_off_c, 0, 54, 106
1, 90214, Note_on_c, 0, 57, 102
1, 90260, Note_off_c, 0, 57, 102
1, 90273, Note_on_c, 0, 61, 109
1, 90357, Note_off_c, 0, 61, 109
1, 90373, Note_on_c, 0, 64, 104
1, 90426, Note_off_c, 0, 64, 104
1, 90427, Note_on_c, 0, 60, 104
1, 90530, Note_off_c, 0, 60, 104
1, 90535, Note_on_c, 0, 62, 103
1, 90600, Note_off_c, 0, 62, 103
1, 90607, Note_on_c, 0, 64, 110
1, 90695, Note_off_c, 0, 64, 110
1, 90707, Note_on_c, 0, 67, 109
1, 90778, Note_off_c, 0, 67, 109
1, 90780, Note_on_c, 0, 65, 100
1, 90872, Note_off_c, 0, 65, 100
1, 90884, Note_on_c, 0, 67, 108
1, 90958, Note_off_c, 0, 67, 108
1, 90961, Note_on_c, 0, 69, 109
1, 91072, Note_off_c, 0, 69, 109
1, 91137, Note_on_c, 0, 70, 109
1, 91222, Note_off_c, 0, 70, 109
1, 91227, Note_on_c, 0, 66, 107
1, 91305, Note_off_c, 0, 66, 107
1, 91305, Note_on_c, 0, 61, 106
1, 91414, Note_off_c, 0, 61, 106
1, 91510, Note_on_c, 0, 64, 114
1, 91607, Note_off_c, 0, 64, 114
1, 91628, Note_on_c, 0, 59, 110
1, 91689, Note_off_c, 0, 59, 110
1, 91707, Note_on_c, 0, 54, 107
1, 91844, Note_off_c, 0, 54, 107
1, 91914, Note_on_c, 0, 57, 115
1, 91980, Note_off_c, 0, 57, 115
1, 92004, Note_on_c, 0, 62, 113
1, 92086, Note_off_c, 0, 62, 113
1, 92115, Note_on_c, 0, 59, 113
1, 92199, Note_off_c, 0, 59, 113
1, 92225, Note_on_c, 0, 55, 99
1, 92264, Note_off_c, 0, 55, 99
1, 92276, Note_on_c, 0, 57, 110
1, 92363, Note_off_c, 0, 57, 110
1, 92373, Note_on_c, 0, 54, 110
1, 92442, Note_off_c, 0, 54, 110
1, 92466, Note_on_c, 0, 49, 112
1, 92573, Note_off_c, 0, 49, 112
1, 92597, Note_on_c, 0, 54, 112
1, 92669, Note_off_c, 0, 54, 112
1, 92687, Note_on_c, 0, 52, 111
1, 92788, Note_off_c, 0, 52, 111
1, 92794, Note_on_c, 0, 54, 113
1, 92847, Note_off_c, 0, 54, 113
1, 92849, Note_on_c, 0, 56, 110
1, 92927, Note_off_c, 0, 56, 110
1, 92943, Note_on_c, 0, 58, 107
1, 93028, Note_off_c, 0, 58, 107
1, 93033, Note_on_c, 0, 64, 112
1, 93128, Note_off_c, 0, 64, 112
1, 93134, Note_on_c, 0, 66, 101
1, 93194, Note_off_c, 0, 66, 101
1, 93200, Note_on_c, 0, 68, 109
1, 93301, Note_off_c, 0, 68, 109
1, 93318, Note_on_c, 0, 72, 100
1, 93355, Note_off_c, 0, 72, 100
1, 93395, Note_on_c, 0, 75, 117
1, 93496, Note_off_c, 0, 75, 117
1, 93517, Note_on_c, 0, 72, 101
1, 93547, Note_off_c, 0, 72, 101
1, 93562, Note_on_c, 0, 75, 118
1, 93668, Note_off_c, 0, 75, 118
1, 93683, Note_on_c, 0, 71, 109
1, 93751, Note_off_c, 0, 71, 109
1, 93758, Note_on_c, 0, 70, 114
1, 93838, Note_off_c, 0, 70, 114
1, 93868, Note_on_c, 0, 66, 106
1, 93937, Note_off_c, 0, 66, 106
1, 93955, Note_on_c, 0, 65, 104
1, 94028, Note_off_c, 0, 65, 104
1, 94043, Note_on_c, 0, 64, 113
1, 94118, Note_off_c, 0, 64, 113
1, 94124, Note_on_c, 0, 63, 119
1, 94214, Note_off_c, 0, 63, 119
1, 94227, Note_on_c, 0, 67, 109
1, 94285, Note_off_c, 0, 67, 109
1, 94305, Note_on_c, 0, 62, 108
1, 94388, Note_off_c, 0, 62, 108
1, 94414, Note_on_c, 0, 70, 106
1, 94483, Note_off_c, 0, 70, 106
1, 94499, Note_on_c, 0, 68, 112
1, 94578, Note_off_c, 0, 68, 112
1, 94597, Note_on_c, 0, 66, 108
1, 94682, Note_off_c, 0, 66, 108
1, 94683, Note_on_c, 0, 63, 107
1, 94759, Note_off_c, 0, 63, 107
1, 94873, Note_on_c, 0, 64, 116
1, 94957, Note_off_c, 0, 64, 116
1, 94973, Note_on_c, 0, 61, 112
1, 95028, Note_off_c, 0, 61, 112
1, 95039, Note_on_c, 0, 57, 104
1, 95118, Note_off_c, 0, 57, 104
1, 95134, Note_on_c, 0, 52, 106
1, 95217, Note_off_c, 0, 52, 106
1, 95238, Note_on_c, 0, 59, 108
1, 95307, Note_off_c, 0, 59, 108
1, 95329, Note_on_c, 0, 54, 107
1, 95414, Note_off_c, 0, 54, 107
1, 95431, Note_on_c, 0, 48, 104
1, 95706, Note_off_c, 0, 48, 104
1, 96730, Note_on_c, 0, 68, 114
1, 96889, Note_off_c, 0, 68, 114
1, 96897, Note_on_c, 0, 67, 113
1, 96989, Note_off_c, 0, 67, 113
1, 97051, Note_on_c, 0, 79, 114
1, 97116, Note_off_c, 0, 79, 114
1, 97126, Note_on_c, 0, 80, 107
1, 97421, Note_off_c, 0, 80, 107
1, 97443, Note_on_c, 0, 79, 98
1, 97818, Note_off_c, 0, 79, 98
1, 98711, Note_on_c, 0, 62, 114
1, 98771, Note_off_c, 0, 62, 114
1, 98789, Note_on_c, 0, 64, 111
1, 98849, Note_off_c, 0, 64, 111
1, 98865, Note_on_c, 0, 69, 109
1, 98913, Note_off_c, 0, 69, 109
1, 98930, Note_on_c, 0, 73, 112
1, 99047, Note_off_c, 0, 73, 112
1, 99065, Note_on_c, 0, 73, 112
1, 99209, Note_off_c, 0, 73, 112
1, 99244, Note_on_c, 0, 74, 109
1, 99291, Note_off_c, 0, 74, 109
1, 99292, Note_on_c, 0, 61, 109
1, 99478, Note_off_c, 0, 61, 109
1, 99493, Note_on_c, 0, 58, 111
1, 99517, Note_off_c, 0, 58, 111
1, 99521, Note_on_c, 0, 56, 111
1, 99545, Note_off_c, 0, 56, 111
1, 99548, Note_on_c, 0, 53, 110
1, 99583, Note_off_c, 0, 53, 110
1, 99597, Note_on_c, 0, 50, 113
1, 99647, Note_off_c, 0, 50, 113
1, 99652, Note_on_c, 0, 49, 114
1, 99875, Note_off_c, 0, 49, 114
1, 99880, Note_on_c, 0, 48, 109
1, 99936, Note_off_c, 0, 48, 109
1, 99942, Note_on_c, 0, 47, 109
1, 99997, Note_off_c, 0, 47, 109
1, 100015, Note_on_c, 0, 46, 104
1, 100363, Note_off_c, 0, 46, 104
1, 101482, Note_on_c, 0, 62, 119
1, 101544, Note_off_c, 0, 62, 119
1, 101552, Note_on_c, 0, 63, 123
1, 102086, Note_off_c, 0, 63, 123
1, 102101, Note_on_c, 0, 62, 124
1, 102244, Note_off_c, 0, 62, 124
1, 102267, Note_on_c, 0, 61, 105
1, 102439, Note_off_c, 0, 61, 105
1, 102460, Note_on_c, 0, 59, 102
1, 102621, Note_off_c, 0, 59, 102
1, 102640, Note_on_c, 0, 58, 101
1, 102812, Note_off_c, 0, 58, 101
1, 102833, Note_on_c, 0, 54, 95
1, 102987, Note_off_c, 0, 54, 95
1, 102994, Note_on_c, 0, 52, 94
1, 103335, Note_off_c, 0, 52, 94
1, 104530, Note_on_c, 0, 60, 121
1, 104599, Note_off_c, 0, 60, 121
1, 104606, Note_on_c, 0, 61, 114
1, 105110, Note_off_c, 0, 61, 114
1, 105127, Note_on_c, 0, 60, 115
1, 105302, Note_off_c, 0, 60, 115
1, 105309, Note_on_c, 0, 59, 107
1, 105481, Note_off_c, 0, 59, 107
1, 105482, Note_on_c, 0, 56, 109
1, 105647, Note_off_c, 0, 56, 109
1, 105654, Note_on_c, 0, 52, 107
1, 105870, Note_off_c, 0, 52, 107
1, 105880, Note_on_c, 0, 51, 110
1, 106054, Note_off_c, 0, 51, 110
1, 106062, Note_on_c, 0, 50, 96
1, 106374, Note_off_c, 0, 50, 96
1, 107521, Note_on_c, 0, 70, 115
1, 107643, Note_off_c, 0, 70, 115
1, 107863, Note_on_c, 0, 68, 118
1, 107983, Note_off_c, 0, 68, 118
1, 108231, Note_on_c, 0, 67, 117
1, 108337, Note_off_c, 0, 67, 117
1, 108551, Note_on_c, 0, 63, 123
1, 108643, Note_off_c, 0, 63, 123
1, 108653, Note_on_c, 0, 65, 114
1, 108777, Note_off_c, 0, 65, 114
1, 108787, Note_on_c, 0, 67, 117
1, 108907, Note_off_c, 0, 67, 117
1, 108974, Note_on_c, 0, 73, 114
1, 109110, Note_off_c, 0, 73, 114
1, 109127, Note_on_c, 0, 73, 114
1, 109308, Note_off_c, 0, 73, 114
1, 109331, Note_on_c, 0, 74, 118
1, 109554, Note_off_c, 0, 74, 118
1, 109562, Note_on_c, 0, 64, 117
1, 109700, Note_off_c, 0, 64, 117
1, 109712, Note_on_c, 0, 59, 103
1, 109871, Note_off_c, 0, 59, 103
1, 109874, Note_on_c, 0, 54, 109
1, 110060, Note_off_c, 0, 54, 109
1, 110084, Note_on_c, 0, 52, 111
1, 110208, Note_off_c, 0, 52, 111
1, 110245, Note_on_c, 0, 49, 109
1, 110383, Note_off_c, 0, 49, 109
1, 110407, Note_on_c, 0, 56, 95
1, 110771, Note_off_c, 0, 56, 95
1, 110985, Note_on_c, 0, 55, 112
1, 111043, Note_off_c, 0, 55, 112
1, 111048, Note_on_c, 0, 58, 106
1, 111106, Note_off_c, 0, 58, 106
1, 111114, Note_on_c, 0, 60, 102
1, 111160, Note_off_c, 0, 60, 102
1, 111165, Note_on_c, 0, 63, 107
1, 111237, Note_off_c, 0, 63, 107
1, 111254, Note_on_c, 0, 67, 115
1, 111328, Note_off_c, 0, 67, 115
1, 111331, Note_on_c, 0, 63, 112
1, 111375, Note_off_c, 0, 63, 112
1, 111380, Note_on_c, 0, 65, 113
1, 111545, Note_off_c, 0, 65, 113
1, 111553, Note_on_c, 0, 66, 107
1, 111714, Note_off_c, 0, 66, 107
1, 111719, Note_on_c, 0, 62, 102
1, 111779, Note_off_c, 0, 62, 102
1, 111784, Note_on_c, 0, 59, 98
1, 111908, Note_off_c, 0, 59, 98
1, 111918, Note_on_c, 0, 55, 114
1, 111960, Note_off_c, 0, 55, 114
1, 111972, Note_on_c, 0, 58, 107
1, 112037, Note_off_c, 0, 58, 107
1, 112298, Note_on_c, 0, 67, 115
1, 112374, Note_off_c, 0, 67, 115
1, 112677, Note_on_c, 0, 65, 110
1, 112760, Note_off_c, 0, 65, 110
1, 113030, Note_on_c, 0, 63, 126
1, 113140, Note_off_c, 0, 63, 126
1, 113404, Note_on_c, 0, 63, 120
1, 113472, Note_off_c, 0, 63, 120
1, 113502, Note_on_c, 0, 63, 124
1, 113566, Note_off_c, 0, 63, 124
1, 113578, Note_on_c, 0, 63, 123
1, 113660, Note_off_c, 0, 63, 123
1, 113684, Note_on_c, 0, 63, 121
1, 113764, Note_off_c, 0, 63, 121
1, 113785, Note_on_c, 0, 63, 117
1, 113870, Note_off_c, 0, 63, 117
1, 113947, Note_on_c, 0, 63, 118
1, 114060, Note_off_c, 0, 63, 118
1, 114134, Note_on_c, 0, 63, 116
1, 114258, Note_off_c, 0, 63, 116
1, 114268, Note_on_c, 0, 65, 105
1, 114302, Note_off_c, 0, 65, 105
1, 114314, Note_on_c, 0, 67, 96
1, 114449, Note_off_c, 0, 67, 96
1, 114457, Note_on_c, 0, 65, 95
1, 114714, Note_off_c, 0, 65, 95
1, 114714, End_track
0, 0, End_of_file
