0, 0, Header, 1, 1, 192
1, 0, Start_track
1, 0, Title_t, "Melody"
1, 0, Tempo, 243902
1, 0, Key_signature, -3, "major"
1, 0, Time_signature, 4, 2, 24, 8
1, 5425, Note_on_c, 0, 65, 113
1, 5535, Note_off_c, 0, 65, 113
1, 5554, Note_on_c, 0, 63, 103
1, 5602, Note_off_c, 0, 63, 103
1, 5635, Note_on_c, 0, 65, 105
1, 5736, Note_off_c, 0, 65, 105
1, 5752, Note_on_c, 0, 66, 105
1, 5829, Note_off_c, 0, 66, 105
1, 6987, Note_on_c, 0, 66, 104
1, 7100, Note_off_c, 0, 66, 104
1, 7113, Note_on_c, 0, 67, 109
1, 7172, Note_off_c, 0, 67, 109
1, 7192, Note_on_c, 0, 66, 103
1, 7287, Note_off_c, 0, 66, 103
1, 7292, Note_on_c, 0, 67, 101
1, 7336, Note_off_c, 0, 67, 101
1, 7388, Note_on_c, 0, 70, 110
1, 7509, Note_off_c, 0, 70, 110
1, 7520, Note_on_c, 0, 63, 96
1, 7614, Note_off_c, 0, 63, 96
1, 8497, Note_on_c, 0, 65, 113
1, 8622, Note_off_c, 0, 65, 113
1, 8689, Note_on_c, 0, 65, 113
1, 8809, Note_off_c, 0, 65, 113
1, 8826, Note_on_c, 0, 61, 105
1, 8895, Note_off_c, 0, 61, 105
1, 10029, Note_on_c, 0, 67, 113
1, 10131, Note_off_c, 0, 67, 113
1, 10140, Note_on_c, 0, 66, 104
1, 10197, Note_off_c, 0, 66, 104
1, 10206, Note_on_c, 0, 67, 111
1, 10321, Note_off_c, 0, 67, 111
1, 10340, Note_on_c, 0, 70, 99
1, 10376, Note_off_c, 0, 70, 99
1, 10388, Note_on_c, 0, 72, 107
1, 10559, Note_off_c, 0, 72, 107
1, 10591, Note_on_c, 0, 74, 108
1, 10648, Note_off_c, 0, 74, 108
1, 10720, Note_on_c, 0, 70, 94
1, 11033, Note_off_c, 0, 70, 94
1, 11707, Note_on_c, 0, 72, 108
1, 11771, Note_off_c, 0, 72, 108
1, 11779, Note_on_c, 0, 74, 110
1, 11896, Note_off_c, 0, 74, 110
1, 11905, Note_on_c, 0, 75, 94
1, 12182, Note_off_c, 0, 75, 94
1, 12431, Note_on_c, 0, 75, 111
1, 12511, Note_off_c, 0, 75, 111
1, 12518, Note_on_c, 0, 73, 112
1, 12635, Note_off_c, 0, 73, 112
1, 12669, Note_on_c, 0, 70, 88
1, 12905, Note_off_c, 0, 70, 88
1, 13231, Note_on_c, 0, 69, 111
1, 13284, Note_off_c, 0, 69, 111
1, 13290, Note_on_c, 0, 70, 107
1, 13388, Note_off_c, 0, 70, 107
1, 13419, Note_on_c, 0, 72, 97
1, 13622, Note_off_c, 0, 72, 97
1, 14028, Note_on_c, 0, 71, 108
1, 14068, Note_off_c, 0, 71, 108
1, 14077, Note_on_c, 0, 69, 108
1, 14177, Note_off_c, 0, 69, 108
1, 14198, Note_on_c, 0, 68, 99
1, 14426, Note_off_c, 0, 68, 99
1, 17129, Note_on_c, 0, 62, 104
1, 17182, Note_off_c, 0, 62, 104
1, 17196, Note_on_c, 0, 63, 108
1, 17299, Note_off_c, 0, 63, 108
1, 17307, Note_on_c, 0, 65, 118
1, 17405, Note_off_c, 0, 65, 118
1, 17409, Note_on_c, 0, 66, 115
1, 17493, Note_off_c, 0, 66, 115
1, 17500, Note_on_c, 0, 69, 115
1, 17587, Note_off_c, 0, 69, 115
1, 17612, Note_on_c, 0, 70, 119
1, 17686, Note_off_c, 0, 70, 119
1, 17720, Note_on_c, 0, 73, 112
1, 17786, Note_off_c, 0, 73, 112
1, 17808, Note_on_c, 0, 74, 114
1, 17881, Note_off_c, 0, 74, 114
1, 17898, Note_on_c, 0, 75, 120
1, 18016, Note_off_c, 0, 75, 120
1, 18028, Note_on_c, 0, 73, 109
1, 18075, Note_off_c, 0, 73, 109
1, 18089, Note_on_c, 0, 75, 114
1, 18208, Note_off_c, 0, 75, 114
1, 18221, Note_on_c, 0, 73, 113
1, 18289, Note_off_c, 0, 73, 113
1, 18306, Note_on_c, 0, 70, 108
1, 18406, Note_off_c, 0, 70, 108
1, 18412, Note_on_c, 0, 66, 91
1, 18725, Note_off_c, 0, 66, 91
1, 18882, Note_on_c, 0, 70, 109
1, 18995, Note_off_c, 0, 70, 109
1, 19058, Note_on_c, 0, 70, 110
1, 19169, Note_off_c, 0, 70, 110
1, 19202, Note_on_c, 0, 66, 106
1, 19248, Note_off_c, 0, 66, 106
1, 19251, Note_on_c, 0, 67, 97
1, 19558, Note_off_c, 0, 67, 97
1, 19664, Note_on_c, 0, 70, 106
1, 19766, Note_off_c, 0, 70, 106
1, 19771, Note_on_c, 0, 72, 106
1, 19828, Note_off_c, 0, 72, 106
1, 19833, Note_on_c, 0, 74, 108
1, 19919, Note_off_c, 0, 74, 108
1, 19928, Note_on_c, 0, 77, 122
1, 20022, Note_off_c, 0, 77, 122
1, 20044, Note_on_c, 0, 75, 107
1, 20123, Note_off_c, 0, 75, 107
1, 20133, Note_on_c, 0, 77, 121
1, 20255, Note_off_c, 0, 77, 121
1, 20427, Note_on_c, 0, 82, 122
1, 20519, Note_off_c, 0, 82, 122
1, 20538, Note_on_c, 0, 77, 121
1, 20596, Note_off_c, 0, 77, 121
1, 20623, Note_on_c, 0, 74, 104
1, 20718, Note_off_c, 0, 74, 104
1, 20771, Note_on_c, 0, 70, 98
1, 20792, Note_off_c, 0, 70, 98
1, 20799, Note_on_c, 0, 75, 110
1, 20904, Note_off_c, 0, 75, 110
1, 20914, Note_on_c, 0, 77, 121
1, 21022, Note_off_c, 0, 77, 121
1, 21028, Note_on_c, 0, 78, 110
1, 21105, Note_off_c, 0, 78, 110
1, 21144, Note_on_c, 0, 73, 112
1, 21241, Note_off_c, 0, 73, 112
1, 21337, Note_on_c, 0, 73, 110
1, 21398, Note_off_c, 0, 73, 110
1, 21405, Note_on_c, 0, 71, 99
1, 21512, Note_off_c, 0, 71, 99
1, 21534, Note_on_c, 0, 69, 93
1, 21576, Note_off_c, 0, 69, 93
1, 21593, Note_on_c, 0, 70, 105
1, 21701, Note_off_c, 0, 70, 105
1, 21740, Note_on_c, 0, 66, 109
1, 21806, Note_off_c, 0, 66, 109
1, 21821, Note_on_c, 0, 65, 111
1, 21890, Note_off_c, 0, 65, 111
1, 21900, Note_on_c, 0, 64, 107
1, 21985, Note_off_c, 0, 64, 107
1, 22000, Note_on_c, 0, 63, 105
1, 22082, Note_off_c, 0, 63, 105
1, 22104, Note_on_c, 0, 69, 115
1, 22154, Note_off_c, 0, 69, 115
1, 22164, Note_on_c, 0, 59, 101
1, 22351, Note_off_c, 0, 59, 101
1, 22363, Note_on_c, 0, 58, 98
1, 22672, Note_off_c, 0, 58, 98
1, 24030, Note_on_c, 0, 61, 107
1, 24067, Note_off_c, 0, 61, 107
1, 24072, Note_on_c, 0, 62, 98
1, 24170, Note_off_c, 0, 62, 98
1, 24191, Note_on_c, 0, 65, 119
1, 24261, Note_off_c, 0, 65, 119
1, 24266, Note_on_c, 0, 63, 109
1, 24372, Note_off_c, 0, 63, 109
1, 24382, Note_on_c, 0, 65, 113
1, 24493, Note_off_c, 0, 65, 113
1, 24501, Note_on_c, 0, 67, 106
1, 24577, Note_off_c, 0, 67, 106
1, 24586, Note_on_c, 0, 70, 101
1, 24627, Note_off_c, 0, 70, 101
1, 24636, Note_on_c, 0, 72, 107
1, 24733, Note_off_c, 0, 72, 107
1, 24753, Note_on_c, 0, 74, 109
1, 24819, Note_off_c, 0, 74, 109
1, 24824, Note_on_c, 0, 75, 122
1, 24966, Note_off_c, 0, 75, 122
1, 24979, Note_on_c, 0, 74, 103
1, 25014, Note_off_c, 0, 74, 103
1, 25031, Note_on_c, 0, 77, 120
1, 25154, Note_off_c, 0, 77, 120
1, 25161, Note_on_c, 0, 76, 112
1, 25210, Note_off_c, 0, 76, 112
1, 25216, Note_on_c, 0, 77, 119
1, 25236, Note_off_c, 0, 77, 119
1, 25242, Note_on_c, 0, 75, 116
1, 25348, Note_off_c, 0, 75, 116
1, 25353, Note_on_c, 0, 73, 113
1, 25430, Note_off_c, 0, 73, 113
1, 25437, Note_on_c, 0, 74, 108
1, 25533, Note_off_c, 0, 74, 108
1, 25544, Note_on_c, 0, 70, 110
1, 25604, Note_off_c, 0, 70, 110
1, 25625, Note_on_c, 0, 65, 111
1, 25760, Note_off_c, 0, 65, 111
1, 25768, Note_on_c, 0, 62, 94
1, 25797, Note_off_c, 0, 62, 94
1, 25824, Note_on_c, 0, 69, 101
1, 25922, Note_off_c, 0, 69, 101
1, 25944, Note_on_c, 0, 62, 98
1, 25981, Note_off_c, 0, 62, 98
1, 26017, Note_on_c, 0, 65, 107
1, 26110, Note_off_c, 0, 65, 107
1, 26127, Note_on_c, 0, 69, 104
1, 26182, Note_off_c, 0, 69, 104
1, 26201, Note_on_c, 0, 68, 107
1, 26327, Note_off_c, 0, 68, 107
1, 26388, Note_on_c, 0, 71, 103
1, 26507, Note_off_c, 0, 71, 103
1, 26589, Note_on_c, 0, 69, 105
1, 26703, Note_off_c, 0, 69, 105
1, 26728, Note_on_c, 0, 68, 107
1, 26787, Note_off_c, 0, 68, 107
1, 26816, Note_on_c, 0, 65, 97
1, 26916, Note_off_c, 0, 65, 97
1, 26964, Note_on_c, 0, 69, 101
1, 27011, Note_off_c, 0, 69, 101
1, 27015, Note_on_c, 0, 70, 105
1, 27084, Note_off_c, 0, 70, 105
1, 27108, Note_on_c, 0, 67, 96
1, 27139, Note_off_c, 0, 67, 96
1, 27141, Note_on_c, 0, 68, 110
1, 27236, Note_off_c, 0, 68, 110
1, 27279, Note_on_c, 0, 68, 112
1, 27350, Note_off_c, 0, 68, 112
1, 27365, Note_on_c, 0, 67, 109
1, 27458, Note_off_c, 0, 67, 109
1, 27465, Note_on_c, 0, 66, 108
1, 27546, Note_off_c, 0, 66, 108
1, 27555, Note_on_c, 0, 65, 110
1, 27638, Note_off_c, 0, 65, 110
1, 27642, Note_on_c, 0, 64, 113
1, 27740, Note_off_c, 0, 64, 113
1, 27754, Note_on_c, 0, 63, 104
1, 27813, Note_off_c, 0, 63, 104
1, 27855, Note_on_c, 0, 66, 111
1, 27908, Note_off_c, 0, 66, 111
1, 27923, Note_on_c, 0, 68, 112
1, 28034, Note_off_c, 0, 68, 112
1, 28068, Note_on_c, 0, 70, 104
1, 28091, Note_off_c, 0, 70, 104
1, 28120, Note_on_c, 0, 73, 117
1, 28206, Note_off_c, 0, 73, 117
1, 28225, Note_on_c, 0, 75, 108
1, 28268, Note_off_c, 0, 75, 108
1, 28276, Note_on_c, 0, 70, 107
1, 28384, Note_off_c, 0, 70, 107
1, 28410, Note_on_c, 0, 66, 100
1, 28715, Note_off_c, 0, 66, 100
1, 31004, Note_on_c, 0, 68, 114
1, 31043, Note_off_c, 0, 68, 114
1, 31048, Note_on_c, 0, 70, 114
1, 31148, Note_off_c, 0, 70, 114
1, 31157, Note_on_c, 0, 73, 117
1, 31241, Note_off_c, 0, 73, 117
1, 31244, Note_on_c, 0, 75, 120
1, 31351, Note_off_c, 0, 75, 120
1, 31354, Note_on_c, 0, 78, 116
1, 31596, Note_off_c, 0, 78, 116
1, 31614, Note_on_c, 0, 77, 114
1, 31801, Note_off_c, 0, 77, 114
1, 31807, Note_on_c, 0, 79, 115
1, 32035, Note_off_c, 0, 79, 115
1, 32048, Note_on_c, 0, 77, 121
1, 32227, Note_off_c, 0, 77, 121
1, 32238, Note_on_c, 0, 79, 112
1, 32329, Note_off_c, 0, 79, 112
1, 32340, Note_on_c, 0, 75, 107
1, 32681, Note_off_c, 0, 75, 107
1, 33580, Note_on_c, 0, 82, 115
1, 33693, Note_off_c, 0, 82, 115
1, 33734, Note_on_c, 0, 83, 99
1, 33768, Note_off_c, 0, 83, 99
1, 33771, Note_on_c, 0, 82, 111
1, 33885, Note_off_c, 0, 82, 111
1, 33892, Note_on_c, 0, 80, 118
1, 34149, Note_off_c, 0, 80, 118
1, 34177, Note_on_c, 0, 68, 108
1, 34231, Note_off_c, 0, 68, 108
1, 34266, Note_on_c, 0, 78, 113
1, 34347, Note_off_c, 0, 78, 113
1, 34354, Note_on_c, 0, 76, 118
1, 34462, Note_off_c, 0, 76, 118
1, 34480, Note_on_c, 0, 73, 115
1, 34556, Note_off_c, 0, 73, 115
1, 34570, Note_on_c, 0, 71, 101
1, 34673, Note_off_c, 0, 71, 101
1, 34680, Note_on_c, 0, 69, 104
1, 34733, Note_off_c, 0, 69, 104
1, 34744, Note_on_c, 0, 70, 105
1, 34854, Note_off_c, 0, 70, 105
1, 34875, Note_on_c, 0, 66, 116
1, 34959, Note_off_c, 0, 66, 116
1, 34975, Note_on_c, 0, 67, 101
1, 35033, Note_off_c, 0, 67, 101
1, 35047, Note_on_c, 0, 70, 90
1, 35085, Note_off_c, 0, 70, 90
1, 35090, Note_on_c, 0, 72, 95
1, 35134, Note_off_c, 0, 72, 95
1, 35138, Note_on_c, 0, 77, 118
1, 35243, Note_off_c, 0, 77, 118
1, 35264, Note_on_c, 0, 72, 106
1, 35330, Note_off_c, 0, 72, 106
1, 35358, Note_on_c, 0, 70, 96
1, 35443, Note_off_c, 0, 70, 96
1, 35518, Note_on_c, 0, 75, 111
1, 35613, Note_off_c, 0, 75, 111
1, 35622, Note_on_c, 0, 73, 107
1, 35692, Note_off_c, 0, 73, 107
1, 35697, Note_on_c, 0, 67, 104
1, 35874, Note_off_c, 0, 67, 104
1, 35893, Note_on_c, 0, 70, 111
1, 36022, Note_off_c, 0, 70, 111
1, 36035, Note_on_c, 0, 67, 105
1, 36082, Note_off_c, 0, 67, 105
1, 36095, Note_on_c, 0, 68, 112
1, 36178, Note_off_c, 0, 68, 112
1, 36212, Note_on_c, 0, 68, 112
1, 36262, Note_off_c, 0, 68, 112
1, 36269, Note_on_c, 0, 67, 111
1, 36380, Note_off_c, 0, 67, 111
1, 36399, Note_on_c, 0, 66, 110
1, 36484, Note_off_c, 0, 66, 110
1, 36489, Note_on_c, 0, 65, 110
1, 36587, Note_off_c, 0, 65, 110
1, 36597, Note_on_c, 0, 64, 107
1, 36669, Note_off_c, 0, 64, 107
1, 36679, Note_on_c, 0, 63, 105
1, 36759, Note_off_c, 0, 63, 105
1, 36767, Note_on_c, 0, 65, 113
1, 36880, Note_off_c, 0, 65, 113
1, 36887, Note_on_c, 0, 67, 102
1, 36919, Note_off_c, 0, 67, 102
1, 36935, Note_on_c, 0, 67, 102
1, 37024, Note_off_c, 0, 67, 102
1, 37028, Note_on_c, 0, 70, 100
1, 37061, Note_off_c, 0, 70, 100
1, 37070, Note_on_c, 0, 73, 113
1, 37164, Note_off_c, 0, 73, 113
1, 37176, Note_on_c, 0, 75, 101
1, 37219, Note_off_c, 0, 75, 101
1, 37241, Note_on_c, 0, 77, 120
1, 37366, Note_off_c, 0, 77, 120
1, 37374, Note_on_c, 0, 75, 116
1, 37450, Note_off_c, 0, 75, 116
1, 37481, Note_on_c, 0, 71, 104
1, 37644, Note_off_c, 0, 71, 104
1, 37667, Note_on_c, 0, 69, 104
1, 37767, Note_off_c, 0, 69, 104
1, 37785, Note_on_c, 0, 67, 106
1, 38015, Note_off_c, 0, 67, 106
1, 38249, Note_on_c, 0, 65, 106
1, 38338, Note_off_c, 0, 65, 106
1, 38354, Note_on_c, 0, 67, 104
1, 38405, Note_off_c, 0, 67, 104
1, 38414, Note_on_c, 0, 69, 101
1, 38517, Note_off_c, 0, 69, 101
1, 38532, Note_on_c, 0, 67, 104
1, 38578, Note_off_c, 0, 67, 104
1, 38580, Note_on_c, 0, 71, 103
1, 38686, Note_off_c, 0, 71, 103
1, 38698, Note_on_c, 0, 65, 106
1, 38753, Note_off_c, 0, 65, 106
1, 38775, Note_on_c, 0, 61, 100
1, 38858, Note_off_c, 0, 61, 100
1, 38877, Note_on_c, 0, 65, 111
1, 38968, Note_off_c, 0, 65, 111
1, 38977, Note_on_c, 0, 64, 105
1, 39066, Note_off_c, 0, 64, 105
1, 39072, Note_on_c, 0, 66, 104
1, 39146, Note_off_c, 0, 66, 104
1, 39158, Note_on_c, 0, 68, 108
1, 39275, Note_off_c, 0, 68, 108
1, 39335, Note_on_c, 0, 76, 116
1, 39443, Note_off_c, 0, 76, 116
1, 39489, Note_on_c, 0, 73, 113
1, 39548, Note_off_c, 0, 73, 113
1, 39566, Note_on_c, 0, 69, 103
1, 39611, Note_off_c, 0, 69, 103
1, 39618, Note_on_c, 0, 68, 105
1, 39671, Note_off_c, 0, 68, 105
1, 39676, Note_on_c, 0, 66, 106
1, 39713, Note_off_c, 0, 66, 106
1, 39737, Note_on_c, 0, 70, 105
1, 39764, Note_off_c, 0, 70, 105
1, 39768, Note_on_c, 0, 71, 101
1, 40433, Note_off_c, 0, 71, 101
1, 40523, Note_on_c, 0, 71, 105
1, 40599, Note_off_c, 0, 71, 105
1, 40701, Note_on_c, 0, 71, 100
1, 40856, Note_off_c, 0, 71, 100
1, 40868, Note_on_c, 0, 69, 99
1, 41283, Note_off_c, 0, 69, 99
1, 42607, Note_on_c, 0, 58, 106
1, 42692, Note_off_c, 0, 58, 106
1, 42694, Note_on_c, 0, 63, 112
1, 42776, Note_off_c, 0, 63, 112
1, 42782, Note_on_c, 0, 65, 117
1, 42867, Note_off_c, 0, 65, 117
1, 42872, Note_on_c, 0, 66, 113
1, 42983, Note_off_c, 0, 66, 113
1, 42986, Note_on_c, 0, 68, 115
1, 43067, Note_off_c, 0, 68, 115
1, 43070, Note_on_c, 0, 70, 108
1, 43168, Note_off_c, 0, 70, 108
1, 43170, Note_on_c, 0, 71, 110
1, 43236, Note_off_c, 0, 71, 110
1, 43238, Note_on_c, 0, 73, 119
1, 43320, Note_off_c, 0, 73, 119
1, 43334, Note_on_c, 0, 75, 114
1, 43400, Note_off_c, 0, 75, 114
1, 43408, Note_on_c, 0, 77, 117
1, 43532, Note_off_c, 0, 77, 117
1, 43535, Note_on_c, 0, 78, 101
1, 43575, Note_off_c, 0, 78, 101
1, 43615, Note_on_c, 0, 79, 111
1, 43644, Note_off_c, 0, 79, 111
1, 43649, Note_on_c, 0, 80, 115
1, 43775, Note_off_c, 0, 80, 115
1, 43802, Note_on_c, 0, 82, 112
1, 43911, Note_off_c, 0, 82, 112
1, 43944, Note_on_c, 0, 85, 109
1, 44014, Note_off_c, 0, 85, 109
1, 44019, Note_on_c, 0, 84, 104
1, 44360, Note_off_c, 0, 84, 104
1, 44365, Note_on_c, 0, 82, 104
1, 44705, Note_off_c, 0, 82, 104
1, 45794, Note_on_c, 0, 75, 119
1, 45900, Note_off_c, 0, 75, 119
1, 45979, Note_on_c, 0, 80, 117
1, 46116, Note_off_c, 0, 80, 117
1, 46175, Note_on_c, 0, 85, 115
1, 46301, Note_off_c, 0, 85, 115
1, 46316, Note_on_c, 0, 82, 104
1, 47037, Note_off_c, 0, 82, 104
1, 47049, Note_on_c, 0, 81, 112
1, 47125, Note_off_c, 0, 81, 112
1, 47173, Note_on_c, 0, 79, 116
1, 47299, Note_off_c, 0, 79, 116
1, 47352, Note_on_c, 0, 79, 115
1, 47450, Note_off_c, 0, 79, 115
1, 47473, Note_on_c, 0, 82, 111
1, 47531, Note_off_c, 0, 82, 111
1, 47559, Note_on_c, 0, 84, 108
1, 47663, Note_off_c, 0, 84, 108
1, 47666, Note_on_c, 0, 82, 63
1, 47747, Note_off_c, 0, 82, 63
1, 47752, Note_on_c, 0, 84, 106
1, 47850, Note_off_c, 0, 84, 106
1, 47861, Note_on_c, 0, 82, 112
1, 48201, Note_off_c, 0, 82, 112
1, 48232, Note_on_c, 0, 79, 118
1, 48267, Note_off_c, 0, 79, 118
1, 48278, Note_on_c, 0, 77, 120
1, 48324, Note_off_c, 0, 77, 120
1, 48337, Note_on_c, 0, 74, 103
1, 48439, Note_off_c, 0, 74, 103
1, 48454, Note_on_c, 0, 70, 105
1, 48514, Note_off_c, 0, 70, 105
1, 48535, Note_on_c, 0, 67, 108
1, 48608, Note_off_c, 0, 67, 108
1, 48636, Note_on_c, 0, 65, 111
1, 48694, Note_off_c, 0, 65, 111
1, 48717, Note_on_c, 0, 75, 106
1, 48832, Note_off_c, 0, 75, 106
1, 48847, Note_on_c, 0, 77, 111
1, 48901, Note_off_c, 0, 77, 111
1, 48907, Note_on_c, 0, 79, 114
1, 49010, Note_off_c, 0, 79, 114
1, 49022, Note_on_c, 0, 78, 109
1, 49112, Note_off_c, 0, 78, 109
1, 49119, Note_on_c, 0, 77, 123
1, 49211, Note_off_c, 0, 77, 123
1, 49226, Note_on_c, 0, 76, 112
1, 49296, Note_off_c, 0, 76, 112
1, 49310, Note_on_c, 0, 75, 110
1, 49401, Note_off_c, 0, 75, 110
1, 49411, Note_on_c, 0, 78, 114
1, 49487, Note_off_c, 0, 78, 114
1, 49522, Note_on_c, 0, 73, 104
1, 49579, Note_off_c, 0, 73, 104
1, 49585, Note_on_c, 0, 74, 104
1, 49642, Note_off_c, 0, 74, 104
1, 49652, Note_on_c, 0, 76, 113
1, 49694, Note_off_c, 0, 76, 113
1, 49706, Note_on_c, 0, 77, 124
1, 49824, Note_off_c, 0, 77, 124
1, 49858, Note_on_c, 0, 74, 107
1, 49892, Note_off_c, 0, 74, 107
1, 49898, Note_on_c, 0, 75, 113
1, 49995, Note_off_c, 0, 75, 113
1, 50014, Note_on_c, 0, 70, 109
1, 50083, Note_off_c, 0, 70, 109
1, 50102, Note_on_c, 0, 66, 104
1, 50195, Note_off_c, 0, 66, 104
1, 50222, Note_on_c, 0, 63, 101
1, 50272, Note_off_c, 0, 63, 101
1, 50286, Note_on_c, 0, 69, 102
1, 50393, Note_off_c, 0, 69, 102
1, 50400, Note_on_c, 0, 65, 107
1, 50452, Note_off_c, 0, 65, 107
1, 50471, Note_on_c, 0, 67, 101
1, 50581, Note_off_c, 0, 67, 101
1, 50606, Note_on_c, 0, 69, 96
1, 50639, Note_off_c, 0, 69, 96
1, 50665, Note_on_c, 0, 72, 97
1, 50751, Note_off_c, 0, 72, 97
1, 50790, Note_on_c, 0, 69, 97
1, 50848, Note_off_c, 0, 69, 97
1, 50870, Note_on_c, 0, 65, 101
1, 50970, Note_off_c, 0, 65, 101
1, 50981, Note_on_c, 0, 63, 90
1, 51054, Note_off_c, 0, 63, 90
1, 51070, Note_on_c, 0, 70, 92
1, 51139, Note_off_c, 0, 70, 92
1, 51205, Note_on_c, 0, 61, 90
1, 51239, Note_off_c, 0, 61, 90
1, 51260, Note_on_c, 0, 64, 99
1, 51345, Note_off_c, 0, 64, 99
1, 51358, Note_on_c, 0, 68, 100
1, 51410, Note_off_c, 0, 68, 100
1, 51800, Note_on_c, 0, 70, 103
1, 51903, Note_off_c, 0, 70, 103
1, 52007, Note_on_c, 0, 67, 103
1, 52105, Note_off_c, 0, 67, 103
1, 52115, Note_on_c, 0, 63, 104
1, 52202, Note_off_c, 0, 63, 104
1, 52209, Note_on_c, 0, 62, 96
1, 52342, Note_off_c, 0, 62, 96
1, 52355, Note_on_c, 0, 63, 103
1, 52470, Note_off_c, 0, 63, 103
1, 52489, Note_on_c, 0, 65, 99
1, 52699, Note_off_c, 0, 65, 99
1, 55034, Note_on_c, 0, 61, 110
1, 55091, Note_off_c, 0, 61, 110
1, 55097, Note_on_c, 0, 63, 107
1, 55164, Note_off_c, 0, 63, 107
1, 55187, Note_on_c, 0, 65, 116
1, 55242, Note_off_c, 0, 65, 116
1, 55259, Note_on_c, 0, 66, 108
1, 55340, Note_off_c, 0, 66, 108
1, 55368, Note_on_c, 0, 68, 117
1, 55437, Note_off_c, 0, 68, 117
1, 55452, Note_on_c, 0, 70, 109
1, 55553, Note_off_c, 0, 70, 109
1, 55558, Note_on_c, 0, 71, 108
1, 55613, Note_off_c, 0, 71, 108
1, 55616, Note_on_c, 0, 73, 115
1, 55705, Note_off_c, 0, 73, 115
1, 55719, Note_on_c, 0, 75, 117
1, 55794, Note_off_c, 0, 75, 117
1, 55803, Note_on_c, 0, 77, 118
1, 55888, Note_off_c, 0, 77, 118
1, 55922, Note_on_c, 0, 78, 117
1, 55994, Note_off_c, 0, 78, 117
1, 56005, Note_on_c, 0, 79, 116
1, 56106, Note_off_c, 0, 79, 116
1, 56113, Note_on_c, 0, 78, 118
1, 56184, Note_off_c, 0, 78, 118
1, 56197, Note_on_c, 0, 77, 119
1, 56279, Note_off_c, 0, 77, 119
1, 56288, Note_on_c, 0, 76, 110
1, 56366, Note_off_c, 0, 76, 110
1, 56379, Note_on_c, 0, 75, 115
1, 56464, Note_off_c, 0, 75, 115
1, 56478, Note_on_c, 0, 78, 116
1, 56555, Note_off_c, 0, 78, 116
1, 56562, Note_on_c, 0, 74, 97
1, 56652, Note_off_c, 0, 74, 97
1, 56690, Note_on_c, 0, 79, 114
1, 56760, Note_off_c, 0, 79, 114
1, 56778, Note_on_c, 0, 75, 111
1, 56841, Note_off_c, 0, 75, 111
1, 56878, Note_on_c, 0, 70, 108
1, 56966, Note_off_c, 0, 70, 108
1, 56967, Note_on_c, 0, 67, 108
1, 57062, Note_off_c, 0, 67, 108
1, 57075, Note_on_c, 0, 63, 103
1, 57126, Note_off_c, 0, 63, 103
1, 57138, Note_on_c, 0, 64, 113
1, 57174, Note_off_c, 0, 64, 113
1, 57180, Note_on_c, 0, 65, 109
1, 57322, Note_off_c, 0, 65, 109
1, 57339, Note_on_c, 0, 72, 105
1, 57399, Note_off_c, 0, 72, 105
1, 57452, Note_on_c, 0, 70, 102
1, 57554, Note_off_c, 0, 70, 102
1, 57644, Note_on_c, 0, 67, 105
1, 57706, Note_off_c, 0, 67, 105
1, 57725, Note_on_c, 0, 63, 100
1, 57820, Note_off_c, 0, 63, 100
1, 57832, Note_on_c, 0, 60, 91
1, 57873, Note_off_c, 0, 60, 91
1, 57904, Note_on_c, 0, 63, 115
1, 57935, Note_off_c, 0, 63, 115
1, 57936, Note_on_c, 0, 65, 101
1, 58096, Note_off_c, 0, 65, 101
1, 58107, Note_on_c, 0, 66, 96
1, 58204, Note_off_c, 0, 66, 96
1, 58215, Note_on_c, 0, 68, 99
1, 58498, Note_off_c, 0, 68, 99
1, 61229, Note_on_c, 0, 79, 120
1, 61374, Note_off_c, 0, 79, 120
1, 61379, Note_on_c, 0, 82, 106
1, 61421, Note_off_c, 0, 82, 106
1, 61423, Note_on_c, 0, 84, 107
1, 61444, Note_off_c, 0, 84, 107
1, 61447, Note_on_c, 0, 86, 101
1, 61549, Note_off_c, 0, 86, 101
1, 61584, Note_on_c, 0, 86, 90
1, 61657, Note_off_c, 0, 86, 90
1, 62040, Note_on_c, 0, 84, 107
1, 62109, Note_off_c, 0, 84, 107
1, 62112, Note_on_c, 0, 85, 116
1, 62213, Note_off_c, 0, 85, 116
1, 62226, Note_on_c, 0, 84, 108
1, 62310, Note_off_c, 0, 84, 108
1, 62315, Note_on_c, 0, 82, 111
1, 62617, Note_off_c, 0, 82, 111
1, 62781, Note_on_c, 0, 81, 118
1, 62895, Note_off_c, 0, 81, 118
1, 62901, Note_on_c, 0, 82, 105
1, 62945, Note_off_c, 0, 82, 105
1, 62955, Note_on_c, 0, 84, 103
1, 63108, Note_off_c, 0, 84, 103
1, 63122, Note_on_c, 0, 84, 108
1, 63166, Note_off_c, 0, 84, 108
1, 63182, Note_on_c, 0, 85, 110
1, 63488, Note_off_c, 0, 85, 110
1, 63506, Note_on_c, 0, 84, 111
1, 63557, Note_off_c, 0, 84, 111
1, 63562, Note_on_c, 0, 83, 112
1, 63608, Note_off_c, 0, 83, 112
1, 63610, Note_on_c, 0, 82, 110
1, 63718, Note_off_c, 0, 82, 110
1, 63740, Note_on_c, 0, 80, 117
1, 63827, Note_off_c, 0, 80, 117
1, 63830, Note_on_c, 0, 79, 116
1, 63930, Note_off_c, 0, 79, 116
1, 63934, Note_on_c, 0, 78, 113
1, 63999, Note_off_c, 0, 78, 113
1, 64016, Note_on_c, 0, 77, 123
1, 64114, Note_off_c, 0, 77, 123
1, 64124, Note_on_c, 0, 76, 115
1, 64185, Note_off_c, 0, 76, 115
1, 64203, Note_on_c, 0, 75, 111
1, 64294, Note_off_c, 0, 75, 111
1, 64297, Note_on_c, 0, 79, 114
1, 64392, Note_off_c, 0, 79, 114
1, 64402, Note_on_c, 0, 74, 106
1, 64485, Note_off_c, 0, 74, 106
1, 64491, Note_on_c, 0, 75, 107
1, 64557, Note_off_c, 0, 75, 107
1, 64570, Note_on_c, 0, 77, 124
1, 64685, Note_off_c, 0, 77, 124
1, 64700, Note_on_c, 0, 74, 102
1, 64742, Note_off_c, 0, 74, 102
1, 64765, Note_on_c, 0, 75, 116
1, 64873, Note_off_c, 0, 75, 116
1, 64888, Note_on_c, 0, 73, 107
1, 64949, Note_off_c, 0, 73, 107
1, 64962, Note_on_c, 0, 70, 113
1, 65065, Note_off_c, 0, 70, 113
1, 65074, Note_on_c, 0, 66, 115
1, 65172, Note_off_c, 0, 66, 115
1, 65184, Note_on_c, 0, 65, 117
1, 65250, Note_off_c, 0, 65, 117
1, 65269, Note_on_c, 0, 64, 110
1, 65314, Note_off_c, 0, 64, 110
1, 65334, Note_on_c, 0, 62, 107
1, 65446, Note_off_c, 0, 62, 107
1, 65456, Note_on_c, 0, 67, 115
1, 65533, Note_off_c, 0, 67, 115
1, 65537, Note_on_c, 0, 62, 106
1, 65641, Note_off_c, 0, 62, 106
1, 65648, Note_on_c, 0, 63, 109
1, 65715, Note_off_c, 0, 63, 109
1, 65723, Note_on_c, 0, 65, 117
1, 65852, Note_off_c, 0, 65, 117
1, 65857, Note_on_c, 0, 66, 115
1, 65922, Note_off_c, 0, 66, 115
1, 65926, Note_on_c, 0, 69, 114
1, 66040, Note_off_c, 0, 69, 114
1, 66047, Note_on_c, 0, 70, 113
1, 66122, Note_off_c, 0, 70, 113
1, 66124, Note_on_c, 0, 72, 103
1, 66225, Note_off_c, 0, 72, 103
1, 66238, Note_on_c, 0, 74, 99
1, 66298, Note_off_c, 0, 74, 99
1, 66303, Note_on_c, 0, 75, 112
1, 66412, Note_off_c, 0, 75, 112
1, 66424, Note_on_c, 0, 77, 117
1, 66497, Note_off_c, 0, 77, 117
1, 66509, Note_on_c, 0, 78, 115
1, 66617, Note_off_c, 0, 78, 115
1, 66623, Note_on_c, 0, 81, 116
1, 66697, Note_off_c, 0, 81, 116
1, 66702, Note_on_c, 0, 82, 115
1, 66792, Note_off_c, 0, 82, 115
1, 66802, Note_on_c, 0, 83, 111
1, 66900, Note_off_c, 0, 83, 111
1, 66919, Note_on_c, 0, 82, 112
1, 67025, Note_off_c, 0, 82, 112
1, 67047, Note_on_c, 0, 80, 106
1, 67230, Note_off_c, 0, 80, 106
1, 67255, Note_on_c, 0, 78, 108
1, 67360, Note_off_c, 0, 78, 108
1, 67373, Note_on_c, 0, 76, 109
1, 67434, Note_off_c, 0, 76, 109
1, 67461, Note_on_c, 0, 75, 111
1, 67658, Note_off_c, 0, 75, 111
1, 67662, Note_on_c, 0, 73, 106
1, 67730, Note_off_c, 0, 73, 106
1, 67779, Note_on_c, 0, 71, 107
1, 67861, Note_off_c, 0, 71, 107
1, 67873, Note_on_c, 0, 70, 113
1, 68036, Note_off_c, 0, 70, 113
1, 68047, Note_on_c, 0, 68, 112
1, 68160, Note_off_c, 0, 68, 112
1, 68183, Note_on_c, 0, 66, 110
1, 68286, Note_off_c, 0, 66, 110
1, 68289, Note_on_c, 0, 64, 103
1, 68463, Note_off_c, 0, 64, 103
1, 68470, Note_on_c, 0, 63, 108
1, 68597, Note_off_c, 0, 63, 108
1, 68605, Note_on_c, 0, 61, 112
1, 68684, Note_off_c, 0, 61, 112
1, 68688, Note_on_c, 0, 60, 103
1, 68859, Note_off_c, 0, 60, 103
1, 68872, Note_on_c, 0, 65, 115
1, 68986, Note_off_c, 0, 65, 115
1, 68993, Note_on_c, 0, 58, 101
1, 69300, Note_off_c, 0, 58, 101
1, 70369, Note_on_c, 0, 58, 105
1, 70448, Note_off_c, 0, 58, 105
1, 70468, Note_on_c, 0, 63, 112
1, 70537, Note_off_c, 0, 63, 112
1, 70541, Note_on_c, 0, 66, 111
1, 70641, Note_off_c, 0, 66, 111
1, 70644, Note_on_c, 0, 64, 108
1, 70753, Note_off_c, 0, 64, 108
1, 70756, Note_on_c, 0, 66, 112
1, 70837, Note_off_c, 0, 66, 112
1, 70840, Note_on_c, 0, 68, 112
1, 70951, Note_off_c, 0, 68, 112
1, 71045, Note_on_c, 0, 75, 115
1, 71146, Note_off_c, 0, 75, 115
1, 71151, Note_on_c, 0, 73, 112
1, 71223, Note_off_c, 0, 73, 112
1, 71230, Note_on_c, 0, 70, 112
1, 71361, Note_off_c, 0, 70, 112
1, 71373, Note_on_c, 0, 66, 111
1, 71399, Note_off_c, 0, 66, 111
1, 71408, Note_on_c, 0, 68, 114
1, 71559, Note_off_c, 0, 68, 114
1, 71604, Note_on_c, 0, 73, 108
1, 71707, Note_off_c, 0, 73, 108
1, 71734, Note_on_c, 0, 70, 100
1, 72148, Note_off_c, 0, 70, 100
1, 72617, Note_on_c, 0, 71, 104
1, 72640, Note_off_c, 0, 71, 104
1, 72642, Note_on_c, 0, 72, 104
1, 72715, Note_off_c, 0, 72, 104
1, 72720, Note_on_c, 0, 74, 104
1, 72767, Note_off_c, 0, 74, 104
1, 72775, Note_on_c, 0, 75, 113
1, 72892, Note_off_c, 0, 75, 113
1, 72898, Note_on_c, 0, 73, 114
1, 73006, Note_off_c, 0, 73, 114
1, 73017, Note_on_c, 0, 72, 103
1, 73103, Note_off_c, 0, 72, 103
1, 73110, Note_on_c, 0, 73, 111
1, 73160, Note_off_c, 0, 73, 111
1, 73180, Note_on_c, 0, 77, 118
1, 73288, Note_off_c, 0, 77, 118
1, 73311, Note_on_c, 0, 80, 103
1, 73363, Note_off_c, 0, 80, 103
1, 73388, Note_on_c, 0, 82, 115
1, 73521, Note_off_c, 0, 82, 115
1, 73578, Note_on_c, 0, 82, 113
1, 73669, Note_off_c, 0, 82, 113
1, 73684, Note_on_c, 0, 79, 114
1, 73766, Note_off_c, 0, 79, 114
1, 73771, Note_on_c, 0, 75, 108
1, 73940, Note_off_c, 0, 75, 108
1, 73952, Note_on_c, 0, 74, 108
1, 74047, Note_off_c, 0, 74, 108
1, 74051, Note_on_c, 0, 78, 111
1, 74456, Note_off_c, 0, 78, 111
1, 74466, Note_on_c, 0, 75, 105
1, 74516, Note_off_c, 0, 75, 105
1, 74534, Note_on_c, 0, 76, 113
1, 74651, Note_off_c, 0, 76, 113
1, 74659, Note_on_c, 0, 78, 109
1, 74738, Note_off_c, 0, 78, 109
1, 74749, Note_on_c, 0, 73, 107
1, 74834, Note_off_c, 0, 73, 107
1, 74840, Note_on_c, 0, 76, 113
1, 74926, Note_off_c, 0, 76, 113
1, 74937, Note_on_c, 0, 75, 106
1, 75011, Note_off_c, 0, 75, 106
1, 75053, Note_on_c, 0, 71, 108
1, 75106, Note_off_c, 0, 71, 108
1, 75128, Note_on_c, 0, 66, 113
1, 75226, Note_off_c, 0, 66, 113
1, 75244, Note_on_c, 0, 63, 105
1, 75301, Note_off_c, 0, 63, 105
1, 75310, Note_on_c, 0, 69, 109
1, 75392, Note_off_c, 0, 69, 109
1, 75426, Note_on_c, 0, 74, 108
1, 75479, Note_off_c, 0, 74, 108
1, 75491, Note_on_c, 0, 73, 108
1, 75580, Note_off_c, 0, 73, 108
1, 75608, Note_on_c, 0, 70, 106
1, 75685, Note_off_c, 0, 70, 106
1, 75702, Note_on_c, 0, 71, 111
1, 75785, Note_off_c, 0, 71, 111
1, 75808, Note_on_c, 0, 67, 106
1, 75873, Note_off_c, 0, 67, 106
1, 75884, Note_on_c, 0, 69, 111
1, 75961, Note_off_c, 0, 69, 111
1, 75974, Note_on_c, 0, 66, 110
1, 76056, Note_off_c, 0, 66, 110
1, 76065, Note_on_c, 0, 64, 107
1, 76157, Note_off_c, 0, 64, 107
1, 76185, Note_on_c, 0, 64, 109
1, 76232, Note_off_c, 0, 64, 109
1, 76242, Note_on_c, 0, 66, 113
1, 76400, Note_off_c, 0, 66, 113
1, 76410, Note_on_c, 0, 68, 114
1, 76523, Note_off_c, 0, 68, 114
1, 76962, Note_on_c, 0, 68, 114
1, 77053, Note_off_c, 0, 68, 114
1, 77066, Note_on_c, 0, 69, 108
1, 77152, Note_off_c, 0, 69, 108
1, 77165, Note_on_c, 0, 71, 110
1, 77247, Note_off_c, 0, 71, 110
1, 77254, Note_on_c, 0, 69, 105
1, 77308, Note_off_c, 0, 69, 105
1, 77737, Note_on_c, 0, 71, 107
1, 77807, Note_off_c, 0, 71, 107
1, 77824, Note_on_c, 0, 69, 108
1, 77905, Note_off_c, 0, 69, 108
1, 77928, Note_on_c, 0, 72, 100
1, 78182, Note_off_c, 0, 72, 100
1, 79101, Note_on_c, 0, 72, 106
1, 79176, Note_off_c, 0, 72, 106
1, 79294, Note_on_c, 0, 74, 114
1, 79443, Note_off_c, 0, 74, 114
1, 79454, Note_on_c, 0, 75, 113
1, 79656, Note_off_c, 0, 75, 113
1, 80664, Note_on_c, 0, 68, 103
1, 80770, Note_off_c, 0, 68, 103
1, 80852, Note_on_c, 0, 75, 115
1, 80969, Note_off_c, 0, 75, 115
1, 81052, Note_on_c, 0, 75, 108
1, 81190, Note_off_c, 0, 75, 108
1, 81197, Note_on_c, 0, 73, 101
1, 81255, Note_off_c, 0, 73, 101
1, 82317, Note_on_c, 0, 72, 110
1, 82351, Note_off_c, 0, 72, 110
1, 82355, Note_on_c, 0, 73, 110
1, 82400, Note_off_c, 0, 73, 110
1, 82401, Note_on_c, 0, 75, 110
1, 82483, Note_off_c, 0, 75, 110
1, 82503, Note_on_c, 0, 78, 115
1, 82592, Note_off_c, 0, 78, 115
1, 82597, Note_on_c, 0, 75, 103
1, 82870, Note_off_c, 0, 75, 103
1, 83811, Note_on_c, 0, 70, 115
1, 83899, Note_off_c, 0, 70, 115
1, 83899, Note_on_c, 0, 75, 117
1, 83981, Note_off_c, 0, 75, 117
1, 83994, Note_on_c, 0, 78, 114
1, 84071, Note_off_c, 0, 78, 114
1, 84080, Note_on_c, 0, 75, 113
1, 84154, Note_off_c, 0, 75, 113
1, 84201, Note_on_c, 0, 75, 114
1, 84276, Note_off_c, 0, 75, 114
1, 84301, Note_on_c, 0, 77, 105
1, 84401, Note_off_c, 0, 77, 105
1, 84486, Note_on_c, 0, 75, 109
1, 84589, Note_off_c, 0, 75, 109
1, 85398, Note_on_c, 0, 70, 100
1, 85482, Note_off_c, 0, 70, 100
1, 85489, Note_on_c, 0, 75, 111
1, 85558, Note_off_c, 0, 75, 111
1, 85584, Note_on_c, 0, 77, 116
1, 85638, Note_off_c, 0, 77, 116
1, 85682, Note_on_c, 0, 79, 113
1, 85778, Note_off_c, 0, 79, 113
1, 85786, Note_on_c, 0, 78, 111
1, 85827, Note_off_c, 0, 78, 111
1, 85835, Note_on_c, 0, 77, 117
1, 85933, Note_off_c, 0, 77, 117
1, 85959, Note_on_c, 0, 76, 113
1, 86017, Note_off_c, 0, 76, 113
1, 86030, Note_on_c, 0, 75, 106
1, 86120, Note_off_c, 0, 75, 106
1, 86139, Note_on_c, 0, 77, 110
1, 86197, Note_off_c, 0, 77, 110
1, 86206, Note_on_c, 0, 79, 116
1, 86299, Note_off_c, 0, 79, 116
1, 86314, Note_on_c, 0, 82, 109
1, 86383, Note_off_c, 0, 82, 109
1, 86412, Note_on_c, 0, 78, 114
1, 86614, Note_off_c, 0, 78, 114
1, 86629, Note_on_c, 0, 77, 120
1, 86707, Note_off_c, 0, 77, 120
1, 86730, Note_on_c, 0, 76, 115
1, 86788, Note_off_c, 0, 76, 115
1, 86805, Note_on_c, 0, 75, 111
1, 86906, Note_off_c, 0, 75, 111
1, 86916, Note_on_c, 0, 73, 107
1, 87005, Note_off_c, 0, 73, 107
1, 87019, Note_on_c, 0, 72, 101
1, 87094, Note_off_c, 0, 72, 101
1, 87113, Note_on_c, 0, 70, 111
1, 87206, Note_off_c, 0, 70, 111
1, 87220, Note_on_c, 0, 69, 105
1, 87278, Note_off_c, 0, 69, 105
1, 87325, Note_on_c, 0, 60, 91
1, 87420, Note_off_c, 0, 60, 91
1, 87426, Note_on_c, 0, 62, 97
1, 87483, Note_off_c, 0, 62, 97
1, 87500, Note_on_c, 0, 64, 100
1, 87577, Note_off_c, 0, 64, 100
1, 87599, Note_on_c, 0, 67, 107
1, 87698, Note_off_c, 0, 67, 107
1, 87711, Note_on_c, 0, 64, 104
1, 87765, Note_off_c, 0, 64, 104
1, 87769, Note_on_c, 0, 65, 106
1, 87839, Note_off_c, 0, 65, 106
1, 87849, Note_on_c, 0, 67, 106
1, 87951, Note_off_c, 0, 67, 106
1, 87965, Note_on_c, 0, 68, 106
1, 88092, Note_off_c, 0, 68, 106
1, 88098, Note_on_c, 0, 69, 106
1, 88148, Note_off_c, 0, 69, 106
1, 88155, Note_on_c, 0, 71, 101
1, 88239, Note_off_c, 0, 71, 101
1, 88264, Note_on_c, 0, 68, 99
1, 88305, Note_off_c, 0, 68, 99
1, 88334, Note_on_c, 0, 69, 107
1, 88441, Note_off_c, 0, 69, 107
1, 88449, Note_on_c, 0, 68, 111
1, 88540, Note_off_c, 0, 68, 111
1, 88547, Note_on_c, 0, 67, 111
1, 88624, Note_off_c, 0, 67, 111
1, 88629, Note_on_c, 0, 66, 109
1, 88704, Note_off_c, 0, 66, 109
1, 88710, Note_on_c, 0, 65, 105
1, 88910, Note_off_c, 0, 65, 105
1, 88926, Note_on_c, 0, 63, 102
1, 88991, Note_off_c, 0, 63, 102
1, 89028, Note_on_c, 0, 67, 111
1, 89086, Note_off_c, 0, 67, 111
1, 89103, Note_on_c, 0, 62, 99
1, 89216, Note_off_c, 0, 62, 99
1, 89223, Note_on_c, 0, 61, 100
1, 89288, Note_off_c, 0, 61, 100
1, 89292, Note_on_c, 0, 60, 96
1, 89409, Note_off_c, 0, 60, 96
1, 89466, Note_on_c, 0, 59, 81
1, 89849, Note_off_c, 0, 59, 81
1, 92000, Note_on_c, 0, 65, 116
1, 92114, Note_off_c, 0, 65, 116
1, 92124, Note_on_c, 0, 66, 112
1, 92193, Note_off_c, 0, 66, 112
1, 92201, Note_on_c, 0, 68, 118
1, 92322, Note_off_c, 0, 68, 118
1, 92340, Note_on_c, 0, 70, 114
1, 92415, Note_off_c, 0, 70, 114
1, 92424, Note_on_c, 0, 71, 112
1, 92500, Note_off_c, 0, 71, 112
1, 92506, Note_on_c, 0, 73, 116
1, 92575, Note_off_c, 0, 73, 116
1, 92587, Note_on_c, 0, 75, 112
1, 92676, Note_off_c, 0, 75, 112
1, 92689, Note_on_c, 0, 77, 119
1, 92784, Note_off_c, 0, 77, 119
1, 92790, Note_on_c, 0, 78, 117
1, 92881, Note_off_c, 0, 78, 117
1, 92926, Note_on_c, 0, 80, 107
1, 92987, Note_off_c, 0, 80, 107
1, 92992, Note_on_c, 0, 82, 111
1, 93126, Note_off_c, 0, 82, 111
1, 93132, Note_on_c, 0, 84, 107
1, 93272, Note_off_c, 0, 84, 107
1, 93274, Note_on_c, 0, 82, 104
1, 93672, Note_off_c, 0, 82, 104
1, 95157, Note_on_c, 0, 75, 115
1, 95237, Note_off_c, 0, 75, 115
1, 95242, Note_on_c, 0, 77, 116
1, 95337, Note_off_c, 0, 77, 116
1, 95342, Note_on_c, 0, 78, 114
1, 95444, Note_off_c, 0, 78, 114
1, 95450, Note_on_c, 0, 80, 112
1, 95522, Note_off_c, 0, 80, 112
1, 95526, Note_on_c, 0, 82, 111
1, 95612, Note_off_c, 0, 82, 111
1, 95656, Note_on_c, 0, 84, 111
1, 95724, Note_off_c, 0, 84, 111
1, 95737, Note_on_c, 0, 85, 118
1, 95851, Note_off_c, 0, 85, 118
1, 95873, Note_on_c, 0, 84, 110
1, 95922, Note_off_c, 0, 84, 110
1, 95928, Note_on_c, 0, 85, 114
1, 96008, Note_off_c, 0, 85, 114
1, 96052, Note_on_c, 0, 84, 112
1, 96126, Note_off_c, 0, 84, 112
1, 96128, Note_on_c, 0, 85, 114
1, 96227, Note_off_c, 0, 85, 114
1, 96234, Note_on_c, 0, 84, 110
1, 96301, Note_off_c, 0, 84, 110
1, 96306, Note_on_c, 0, 85, 118
1, 96407, Note_off_c, 0, 85, 118
1, 96416, Note_on_c, 0, 84, 111
1, 96502, Note_off_c, 0, 84, 111
1, 96507, Note_on_c, 0, 85, 115
1, 96610, Note_off_c, 0, 85, 115
1, 96617, Note_on_c, 0, 84, 109
1, 96663, Note_off_c, 0, 84, 109
1, 96669, Note_on_c, 0, 85, 115
1, 96791, Note_off_c, 0, 85, 115
1, 96796, Note_on_c, 0, 84, 108
1, 96863, Note_off_c, 0, 84, 108
1, 96868, Note_on_c, 0, 85, 116
1, 96991, Note_off_c, 0, 85, 116
1, 96997, Note_on_c, 0, 84, 110
1, 97046, Note_off_c, 0, 84, 110
1, 97049, Note_on_c, 0, 85, 116
1, 97162, Note_off_c, 0, 85, 116
1, 97166, Note_on_c, 0, 84, 110
1, 97242, Note_off_c, 0, 84, 110
1, 97247, Note_on_c, 0, 85, 117
1, 97357, Note_off_c, 0, 85, 117
1, 97363, Note_on_c, 0, 84, 114
1, 97427, Note_off_c, 0, 84, 114
1, 97434, Note_on_c, 0, 85, 115
1, 97552, Note_off_c, 0, 85, 115
1, 97558, Note_on_c, 0, 84, 108
1, 97603, Note_off_c, 0, 84, 108
1, 97612, Note_on_c, 0, 87, 114
1, 97713, Note_off_c, 0, 87, 114
1, 97743, Note_on_c, 0, 85, 109
1, 97785, Note_off_c, 0, 85, 109
1, 97791, Note_on_c, 0, 84, 113
1, 97822, Note_off_c, 0, 84, 113
1, 97828, Note_on_c, 0, 82, 105
1, 97952, Note_off_c, 0, 82, 105
1, 97974, Note_on_c, 0, 79, 109
1, 98271, Note_off_c, 0, 79, 109
1, 98420, Note_on_c, 0, 77, 117
1, 98574, Note_off_c, 0, 77, 117
1, 98587, Note_on_c, 0, 75, 112
1, 98677, Note_off_c, 0, 75, 112
1, 98680, Note_on_c, 0, 78, 102
1, 99061, Note_off_c, 0, 78, 102
1, 99086, Note_on_c, 0, 82, 84
1, 99201, Note_off_c, 0, 82, 84
1, 99203, Note_on_c, 0, 86, 96
1, 99469, Note_off_c, 0, 86, 96
1, 99475, Note_on_c, 0, 85, 111
1, 99509, Note_off_c, 0, 85, 111
1, 99513, Note_on_c, 0, 84, 115
1, 99564, Note_off_c, 0, 84, 115
1, 99569, Note_on_c, 0, 82, 115
1, 99672, Note_off_c, 0, 82, 115
1, 99697, Note_on_c, 0, 78, 105
1, 99752, Note_off_c, 0, 78, 105
1, 99770, Note_on_c, 0, 74, 101
1, 99860, Note_off_c, 0, 74, 101
1, 99868, Note_on_c, 0, 72, 90
1, 99917, Note_off_c, 0, 72, 90
1, 99949, Note_on_c, 0, 70, 110
1, 100075, Note_off_c, 0, 70, 110
1, 100081, Note_on_c, 0, 67, 106
1, 100122, Note_off_c, 0, 67, 106
1, 100124, Note_on_c, 0, 69, 108
1, 100215, Note_off_c, 0, 69, 108
1, 100227, Note_on_c, 0, 65, 111
1, 100300, Note_off_c, 0, 65, 111
1, 100312, Note_on_c, 0, 62, 101
1, 100406, Note_off_c, 0, 62, 101
1, 100429, Note_on_c, 0, 65, 111
1, 100499, Note_off_c, 0, 65, 111
1, 100505, Note_on_c, 0, 64, 111
1, 100591, Note_off_c, 0, 64, 111
1, 100597, Note_on_c, 0, 66, 107
1, 100667, Note_off_c, 0, 66, 107
1, 100673, Note_on_c, 0, 68, 115
1, 100793, Note_off_c, 0, 68, 115
1, 100799, Note_on_c, 0, 71, 112
1, 100861, Note_off_c, 0, 71, 112
1, 100871, Note_on_c, 0, 75, 116
1, 100979, Note_off_c, 0, 75, 116
1, 100999, Note_on_c, 0, 73, 112
1, 101085, Note_off_c, 0, 73, 112
1, 101104, Note_on_c, 0, 72, 97
1, 101177, Note_off_c, 0, 72, 97
1, 101200, Note_on_c, 0, 66, 110
1, 101267, Note_off_c, 0, 66, 110
1, 101273, Note_on_c, 0, 65, 108
1, 101409, Note_off_c, 0, 65, 108
1, 101417, Note_on_c, 0, 63, 103
1, 101460, Note_off_c, 0, 63, 103
1, 101470, Note_on_c, 0, 70, 114
1, 101574, Note_off_c, 0, 70, 114
1, 101590, Note_on_c, 0, 67, 109
1, 101651, Note_off_c, 0, 67, 109
1, 101660, Note_on_c, 0, 68, 116
1, 101738, Note_off_c, 0, 68, 116
1, 101749, Note_on_c, 0, 70, 101
1, 101770, Note_off_c, 0, 70, 101
1, 101773, Note_on_c, 0, 68, 117
1, 101848, Note_off_c, 0, 68, 117
1, 101862, Note_on_c, 0, 67, 110
1, 101952, Note_off_c, 0, 67, 110
1, 101970, Note_on_c, 0, 66, 106
1, 102050, Note_off_c, 0, 66, 106
1, 102057, Note_on_c, 0, 65, 111
1, 102137, Note_off_c, 0, 65, 111
1, 102149, Note_on_c, 0, 64, 106
1, 102212, Note_off_c, 0, 64, 106
1, 102224, Note_on_c, 0, 63, 105
1, 102311, Note_off_c, 0, 63, 105
1, 102331, Note_on_c, 0, 66, 104
1, 102389, Note_off_c, 0, 66, 104
1, 102410, Note_on_c, 0, 62, 102
1, 102489, Note_off_c, 0, 62, 102
1, 102519, Note_on_c, 0, 65, 114
1, 102578, Note_off_c, 0, 65, 114
1, 102628, Note_on_c, 0, 62, 107
1, 102681, Note_off_c, 0, 62, 107
1, 102687, Note_on_c, 0, 63, 108
1, 102752, Note_off_c, 0, 63, 108
1, 102755, Note_on_c, 0, 57, 103
1, 102940, Note_off_c, 0, 57, 103
1, 102945, Note_on_c, 0, 58, 113
1, 103119, Note_off_c, 0, 58, 113
1, 103130, Note_on_c, 0, 60, 99
1, 103296, Note_off_c, 0, 60, 99
1, 103309, Note_on_c, 0, 62, 111
1, 103504, Note_off_c, 0, 62, 111
1, 103509, Note_on_c, 0, 63, 116
1, 103678, Note_off_c, 0, 63, 116
1, 103684, Note_on_c, 0, 65, 114
1, 103868, Note_off_c, 0, 65, 114
1, 103873, Note_on_c, 0, 66, 112
1, 104045, Note_off_c, 0, 66, 112
1, 104052, Note_on_c, 0, 68, 102
1, 104134, Note_off_c, 0, 68, 102
1, 105257, Note_on_c, 0, 68, 104
1, 105354, Note_off_c, 0, 68, 104
1, 105368, Note_on_c, 0, 73, 109
1, 105396, Note_off_c, 0, 73, 109
1, 105396, Note_on_c, 0, 74, 109
1, 105434, Note_off_c, 0, 74, 109
1, 105446, Note_on_c, 0, 76, 107
1, 105551, Note_off_c, 0, 76, 107
1, 105562, Note_on_c, 0, 77, 118
1, 105622, Note_off_c, 0, 77, 118
1, 105634, Note_on_c, 0, 78, 112
1, 105669, Note_off_c, 0, 78, 112
1, 105685, Note_on_c, 0, 79, 104
1, 105763, Note_off_c, 0, 79, 104
1, 106519, Note_on_c, 0, 58, 114
1, 106594, Note_off_c, 0, 58, 114
1, 106609, Note_on_c, 0, 63, 120
1, 106690, Note_off_c, 0, 63, 120
1, 106720, Note_on_c, 0, 67, 116
1, 106774, Note_off_c, 0, 67, 116
1, 106783, Note_on_c, 0, 64, 110
1, 106876, Note_off_c, 0, 64, 110
1, 106895, Note_on_c, 0, 66, 114
1, 106954, Note_off_c, 0, 66, 114
1, 106969, Note_on_c, 0, 68, 117
1, 107069, Note_off_c, 0, 68, 117
1, 107098, Note_on_c, 0, 70, 101
1, 107137, Note_off_c, 0, 70, 101
1, 107154, Note_on_c, 0, 73, 118
1, 107243, Note_off_c, 0, 73, 118
1, 107274, Note_on_c, 0, 70, 117
1, 107372, Note_off_c, 0, 70, 117
1, 107372, Note_on_c, 0, 66, 113
1, 107469, Note_off_c, 0, 66, 113
1, 107505, Note_on_c, 0, 61, 102
1, 107549, Note_off_c, 0, 61, 102
1, 107554, Note_on_c, 0, 63, 108
1, 107654, Note_off_c, 0, 63, 108
1, 108318, Note_on_c, 0, 60, 108
1, 108394, Note_off_c, 0, 60, 108
1, 108411, Note_on_c, 0, 63, 109
1, 108480, Note_off_c, 0, 63, 109
1, 108487, Note_on_c, 0, 66, 112
1, 108600, Note_off_c, 0, 66, 112
1, 108618, Note_on_c, 0, 63, 108
1, 108695, Note_off_c, 0, 63, 108
1, 108713, Note_on_c, 0, 67, 115
1, 108818, Note_off_c, 0, 67, 115
1, 108829, Note_on_c, 0, 66, 114
1, 108912, Note_off_c, 0, 66, 114
1, 108921, Note_on_c, 0, 65, 115
1, 109020, Note_off_c, 0, 65, 115
1, 109030, Note_on_c, 0, 64, 107
1, 109096, Note_off_c, 0, 64, 107
1, 109099, Note_on_c, 0, 63, 114
1, 109199, Note_off_c, 0, 63, 114
1, 109204, Note_on_c, 0, 65, 116
1, 109310, Note_off_c, 0, 65, 116
1, 109320, Note_on_c, 0, 67, 114
1, 109411, Note_off_c, 0, 67, 114
1, 109440, Note_on_c, 0, 70, 105
1, 109481, Note_off_c, 0, 70, 105
1, 109508, Note_on_c, 0, 75, 111
1, 109609, Note_off_c, 0, 75, 111
1, 109614, Note_on_c, 0, 77, 116
1, 109696, Note_off_c, 0, 77, 116
1, 109700, Note_on_c, 0, 79, 114
1, 109818, Note_off_c, 0, 79, 114
1, 109828, Note_on_c, 0, 75, 105
1, 109883, Note_off_c, 0, 75, 105
1, 109886, Note_on_c, 0, 77, 115
1, 110003, Note_off_c, 0, 77, 115
1, 110013, Note_on_c, 0, 73, 110
1, 110064, Note_off_c, 0, 73, 110
1, 110095, Note_on_c, 0, 70, 107
1, 110213, Note_off_c, 0, 70, 107
1, 110290, Note_on_c, 0, 72, 101
1, 110360, Note_off_c, 0, 72, 101
1, 110381, Note_on_c, 0, 70, 102
1, 110440, Note_off_c, 0, 70, 102
1, 110445, Note_on_c, 0, 72, 101
1, 110575, Note_off_c, 0, 72, 101
1, 110580, Note_on_c, 0, 77, 123
1, 110666, Note_off_c, 0, 77, 123
1, 110672, Note_on_c, 0, 79, 113
1, 110773, Note_off_c, 0, 79, 113
1, 110780, Note_on_c, 0, 77, 123
1, 110833, Note_off_c, 0, 77, 123
1, 110848, Note_on_c, 0, 75, 113
1, 110923, Note_off_c, 0, 75, 113
1, 111044, Note_on_c, 0, 73, 113
1, 111135, Note_off_c, 0, 73, 113
1, 111146, Note_on_c, 0, 75, 112
1, 111192, Note_off_c, 0, 75, 112
1, 111200, Note_on_c, 0, 77, 117
1, 111225, Note_off_c, 0, 77, 117
1, 111231, Note_on_c, 0, 78, 115
1, 111370, Note_off_c, 0, 78, 115
1, 111384, Note_on_c, 0, 76, 114
1, 111588, Note_off_c, 0, 76, 114
1, 111614, Note_on_c, 0, 74, 106
1, 111713, Note_off_c, 0, 74, 106
1, 111767, Note_on_c, 0, 78, 113
1, 111817, Note_off_c, 0, 78, 113
1, 111822, Note_on_c, 0, 81, 112
1, 111994, Note_off_c, 0, 81, 112
1, 111999, Note_on_c, 0, 79, 111
1, 112102, Note_off_c, 0, 79, 111
1, 112113, Note_on_c, 0, 77, 119
1, 112211, Note_off_c, 0, 77, 119
1, 112221, Note_on_c, 0, 76, 112
1, 112316, Note_off_c, 0, 76, 112
1, 112321, Note_on_c, 0, 77, 120
1, 112390, Note_off_c, 0, 77, 120
1, 112397, Note_on_c, 0, 79, 115
1, 112489, Note_off_c, 0, 79, 115
1, 112497, Note_on_c, 0, 81, 118
1, 112574, Note_off_c, 0, 81, 118
1, 112580, Note_on_c, 0, 82, 111
1, 112759, Note_off_c, 0, 82, 111
1, 112765, Note_on_c, 0, 81, 114
1, 112862, Note_off_c, 0, 81, 114
1, 112872, Note_on_c, 0, 80, 113
1, 112967, Note_off_c, 0, 80, 113
1, 112980, Note_on_c, 0, 78, 111
1, 113044, Note_off_c, 0, 78, 111
1, 113067, Note_on_c, 0, 78, 107
1, 113088, Note_off_c, 0, 78, 107
1, 113093, Note_on_c, 0, 80, 118
1, 113169, Note_off_c, 0, 80, 118
1, 113170, Note_on_c, 0, 81, 115
1, 113257, Note_off_c, 0, 81, 115
1, 113264, Note_on_c, 0, 82, 111
1, 113341, Note_off_c, 0, 82, 111
1, 113351, Note_on_c, 0, 83, 105
1, 113517, Note_off_c, 0, 83, 105
1, 113526, Note_on_c, 0, 82, 111
1, 113619, Note_off_c, 0, 82, 111
1, 113625, Note_on_c, 0, 81, 117
1, 113718, Note_off_c, 0, 81, 117
1, 113722, Note_on_c, 0, 80, 115
1, 113809, Note_off_c, 0, 80, 115
1, 113814, Note_on_c, 0, 79, 115
1, 113916, Note_off_c, 0, 79, 115
1, 113925, Note_on_c, 0, 81, 110
1, 114016, Note_off_c, 0, 81, 110
1, 114022, Note_on_c, 0, 83, 107
1, 114047, Note_off_c, 0, 83, 107
1, 114049, Note_on_c, 0, 84, 104
1, 114234, Note_off_c, 0, 84, 104
1, 114243, Note_on_c, 0, 83, 109
1, 114350, Note_off_c, 0, 83, 109
1, 114357, Note_on_c, 0, 82, 113
1, 114433, Note_off_c, 0, 82, 113
1, 114438, Note_on_c, 0, 81, 115
1, 114551, Note_off_c, 0, 81, 115
1, 114552, Note_on_c, 0, 83, 107
1, 114652, Note_off_c, 0, 83, 107
1, 114657, Note_on_c, 0, 84, 104
1, 114774, Note_off_c, 0, 84, 104
1, 114804, Note_on_c, 0, 84, 102
1, 114915, Note_off_c, 0, 84, 102
1, 114923, Note_on_c, 0, 85, 113
1, 115024, Note_off_c, 0, 85, 113
1, 115028, Note_on_c, 0, 84, 103
1, 115114, Note_off_c, 0, 84, 103
1, 115140, Note_on_c, 0, 83, 107
1, 115209, Note_off_c, 0, 83, 107
1, 115212, Note_on_c, 0, 82, 114
1, 115388, Note_off_c, 0, 82, 114
1, 115388, Note_on_c, 0, 84, 106
1, 115438, Note_off_c, 0, 84, 106
1, 115954, Note_on_c, 0, 70, 107
1, 116088, Note_off_c, 0, 70, 107
1, 116097, Note_on_c, 0, 83, 117
1, 116149, Note_off_c, 0, 83, 117
1, 116160, Note_on_c, 0, 84, 97
1, 116359, Note_off_c, 0, 84, 97
1, 116387, Note_on_c, 0, 85, 112
1, 117971, Note_off_c, 0, 85, 112
1, 118006, Note_on_c, 0, 84, 108
1, 118056, Note_off_c, 0, 84, 108
1, 118069, Note_on_c, 0, 82, 108
1, 118174, Note_off_c, 0, 82, 108
1, 118206, Note_on_c, 0, 79, 115
1, 118259, Note_off_c, 0, 79, 115
1, 118269, Note_on_c, 0, 77, 118
1, 118314, Note_off_c, 0, 77, 118
1, 118320, Note_on_c, 0, 76, 117
1, 118352, Note_off_c, 0, 76, 117
1, 118357, Note_on_c, 0, 77, 120
1, 118389, Note_off_c, 0, 77, 120
1, 118393, Note_on_c, 0, 75, 116
1, 118432, Note_off_c, 0, 75, 116
1, 118439, Note_on_c, 0, 74, 111
1, 118482, Note_off_c, 0, 74, 111
1, 118488, Note_on_c, 0, 73, 115
1, 118536, Note_off_c, 0, 73, 115
1, 118538, Note_on_c, 0, 70, 112
1, 118567, Note_off_c, 0, 70, 112
1, 118571, Note_on_c, 0, 69, 117
1, 118604, Note_off_c, 0, 69, 117
1, 118615, Note_on_c, 0, 68, 114
1, 118677, Note_off_c, 0, 68, 114
1, 118684, Note_on_c, 0, 66, 116
1, 118766, Note_off_c, 0, 66, 116
1, 118772, Note_on_c, 0, 64, 107
1, 118811, Note_off_c, 0, 64, 107
1, 118818, Note_on_c, 0, 62, 106
1, 118867, Note_off_c, 0, 62, 106
1, 118878, Note_on_c, 0, 61, 116
1, 118915, Note_off_c, 0, 61, 116
1, 118922, Note_on_c, 0, 60, 107
1, 118969, Note_off_c, 0, 60, 107
1, 118978, Note_on_c, 0, 59, 103
1, 119026, Note_off_c, 0, 59, 103
1, 119037, Note_on_c, 0, 58, 106
1, 119139, Note_off_c, 0, 58, 106
1, 122696, Note_on_c, 0, 57, 108
1, 122822, Note_off_c, 0, 57, 108
1, 122838, Note_on_c, 0, 58, 108
1, 122937, Note_off_c, 0, 58, 108
1, 123279, Note_on_c, 0, 58, 113
1, 123393, Note_off_c, 0, 58, 113
1, 123409, Note_on_c, 0, 63, 99
1, 123848, Note_off_c, 0, 63, 99
1, 124023, Note_on_c, 0, 62, 106
1, 124188, Note_off_c, 0, 62, 106
1, 124207, Note_on_c, 0, 69, 115
1, 124317, Note_off_c, 0, 69, 115
1, 124340, Note_on_c, 0, 62, 106
1, 124397, Note_off_c, 0, 62, 106
1, 124411, Note_on_c, 0, 65, 119
1, 124508, Note_off_c, 0, 65, 119
1, 124530, Note_on_c, 0, 69, 116
1, 124600, Note_off_c, 0, 69, 116
1, 124611, Note_on_c, 0, 68, 114
1, 124742, Note_off_c, 0, 68, 114
1, 124976, Note_on_c, 0, 75, 119
1, 125073, Note_off_c, 0, 75, 119
1, 125081, Note_on_c, 0, 73, 104
1, 125136, Note_off_c, 0, 73, 104
1, 125160, Note_on_c, 0, 69, 112
1, 125274, Note_off_c, 0, 69, 112
1, 125283, Note_on_c, 0, 65, 116
1, 125319, Note_off_c, 0, 65, 116
1, 125330, Note_on_c, 0, 70, 116
1, 125420, Note_off_c, 0, 70, 116
1, 125437, Note_on_c, 0, 65, 117
1, 125499, Note_off_c, 0, 65, 117
1, 125510, Note_on_c, 0, 60, 104
1, 125619, Note_off_c, 0, 60, 104
1, 125624, Note_on_c, 0, 58, 104
1, 125912, Note_off_c, 0, 58, 104
1, 126055, Note_on_c, 0, 68, 114
1, 126144, Note_off_c, 0, 68, 114
1, 126153, Note_on_c, 0, 66, 116
1, 126216, Note_off_c, 0, 66, 116
1, 126234, Note_on_c, 0, 62, 105
1, 126347, Note_off_c, 0, 62, 105
1, 126396, Note_on_c, 0, 57, 102
1, 126665, Note_off_c, 0, 57, 102
1, 126860, Note_on_c, 0, 63, 109
1, 127009, Note_off_c, 0, 63, 109
1, 127026, Note_on_c, 0, 61, 109
1, 127160, Note_off_c, 0, 61, 109
1, 127170, Note_on_c, 0, 62, 103
1, 127447, Note_off_c, 0, 62, 103
1, 128002, Note_on_c, 0, 62, 108
1, 128078, Note_off_c, 0, 62, 108
1, 128085, Note_on_c, 0, 63, 113
1, 128158, Note_off_c, 0, 63, 113
1, 128163, Note_on_c, 0, 65, 121
1, 128288, Note_off_c, 0, 65, 121
1, 128293, Note_on_c, 0, 66, 114
1, 128526, Note_off_c, 0, 66, 114
1, 128539, Note_on_c, 0, 68, 116
1, 128653, Note_off_c, 0, 68, 116
1, 128654, Note_on_c, 0, 70, 114
1, 128749, Note_off_c, 0, 70, 114
1, 128756, Note_on_c, 0, 71, 113
1, 128929, Note_off_c, 0, 71, 113
1, 128939, Note_on_c, 0, 73, 111
1, 129025, Note_off_c, 0, 73, 111
1, 129030, Note_on_c, 0, 75, 111
1, 129115, Note_off_c, 0, 75, 111
1, 129125, Note_on_c, 0, 77, 120
1, 129297, Note_off_c, 0, 77, 120
1, 129302, Note_on_c, 0, 78, 117
1, 129411, Note_off_c, 0, 78, 117
1, 129414, Note_on_c, 0, 80, 117
1, 129531, Note_off_c, 0, 80, 117
1, 129551, Note_on_c, 0, 82, 114
1, 129688, Note_off_c, 0, 82, 114
1, 129714, Note_on_c, 0, 80, 117
1, 129823, Note_off_c, 0, 80, 117
1, 129829, Note_on_c, 0, 79, 110
1, 130091, Note_off_c, 0, 79, 110
1, 130122, Note_on_c, 0, 74, 109
1, 130214, Note_off_c, 0, 74, 109
1, 130224, Note_on_c, 0, 72, 103
1, 130298, Note_off_c, 0, 72, 103
1, 130312, Note_on_c, 0, 70, 102
1, 130638, Note_off_c, 0, 70, 102
1, 131926, Note_on_c, 0, 70, 117
1, 132010, Note_off_c, 0, 70, 117
1, 132017, Note_on_c, 0, 71, 115
1, 132104, Note_off_c, 0, 71, 115
1, 132113, Note_on_c, 0, 73, 113
1, 132214, Note_off_c, 0, 73, 113
1, 132218, Note_on_c, 0, 75, 111
1, 132339, Note_off_c, 0, 75, 111
1, 132361, Note_on_c, 0, 77, 122
1, 132490, Note_off_c, 0, 77, 122
1, 132508, Note_on_c, 0, 75, 111
1, 132624, Note_off_c, 0, 75, 111
1, 132655, Note_on_c, 0, 73, 113
1, 132742, Note_off_c, 0, 73, 113
1, 132747, Note_on_c, 0, 71, 104
1, 132910, Note_off_c, 0, 71, 104
1, 132919, Note_on_c, 0, 70, 109
1, 133307, Note_off_c, 0, 70, 109
1, 134334, Note_on_c, 0, 67, 108
1, 134432, Note_off_c, 0, 67, 108
1, 134722, Note_on_c, 0, 79, 116
1, 134831, Note_off_c, 0, 79, 116
1, 135246, Note_on_c, 0, 75, 109
1, 135338, Note_off_c, 0, 75, 109
1, 135655, Note_on_c, 0, 78, 110
1, 135750, Note_off_c, 0, 78, 110
1, 136264, Note_on_c, 0, 77, 109
1, 136357, Note_off_c, 0, 77, 109
1, 136370, Note_on_c, 0, 74, 108
1, 136437, Note_off_c, 0, 74, 108
1, 136451, Note_on_c, 0, 69, 107
1, 136530, Note_off_c, 0, 69, 107
1, 136583, Note_on_c, 0, 65, 96
1, 136615, Note_off_c, 0, 65, 96
1, 136625, Note_on_c, 0, 67, 112
1, 136726, Note_off_c, 0, 67, 112
1, 136757, Note_on_c, 0, 61, 99
1, 136802, Note_off_c, 0, 61, 99
1, 136816, Note_on_c, 0, 64, 110
1, 136934, Note_off_c, 0, 64, 110
1, 136934, Note_on_c, 0, 71, 89
1, 137136, Note_off_c, 0, 71, 89
1, 137357, Note_on_c, 0, 70, 105
1, 137472, Note_off_c, 0, 70, 105
1, 137551, Note_on_c, 0, 70, 114
1, 137684, Note_off_c, 0, 70, 114
1, 137767, Note_on_c, 0, 70, 114
1, 137866, Note_off_c, 0, 70, 114
1, 137972, Note_on_c, 0, 70, 119
1, 138081, Note_off_c, 0, 70, 119
1, 138175, Note_on_c, 0, 70, 117
1, 138301, Note_off_c, 0, 70, 117
1, 138356, Note_on_c, 0, 70, 110
1, 138478, Note_off_c, 0, 70, 110
1, 138563, Note_on_c, 0, 70, 106
1, 138695, Note_off_c, 0, 70, 106
1, 138700, Note_on_c, 0, 71, 101
1, 138759, Note_off_c, 0, 71, 101
1, 138768, Note_on_c, 0, 73, 108
1, 138866, Note_off_c, 0, 73, 108
1, 138909, Note_on_c, 0, 69, 95
1, 139184, Note_off_c, 0, 69, 95
1, 140607, Note_on_c, 0, 61, 108
1, 140656, Note_off_c, 0, 61, 108
1, 140666, Note_on_c, 0, 63, 107
1, 140772, Note_off_c, 0, 63, 107
1, 140791, Note_on_c, 0, 66, 111
1, 140859, Note_off_c, 0, 66, 111
1, 140870, Note_on_c, 0, 64, 111
1, 140980, Note_off_c, 0, 64, 111
1, 140984, Note_on_c, 0, 66, 110
1, 141046, Note_off_c, 0, 66, 110
1, 141053, Note_on_c, 0, 68, 116
1, 141165, Note_off_c, 0, 68, 116
1, 141183, Note_on_c, 0, 70, 99
1, 141237, Note_off_c, 0, 70, 99
1, 141240, Note_on_c, 0, 73, 115
1, 141568, Note_off_c, 0, 73, 115
1, 141613, Note_on_c, 0, 70, 9
1, 141731, Note_off_c, 0, 70, 9
1, 141733, Note_on_c, 0, 68, 118
1, 141819, Note_off_c, 0, 68, 118
1, 141825, Note_on_c, 0, 66, 113
1, 141922, Note_off_c, 0, 66, 113
1, 141928, Note_on_c, 0, 63, 115
1, 141980, Note_off_c, 0, 63, 115
1, 141991, Note_on_c, 0, 64, 112
1, 142077, Note_off_c, 0, 64, 112
1, 142086, Note_on_c, 0, 67, 112
1, 142212, Note_off_c, 0, 67, 112
1, 142231, Note_on_c, 0, 72, 105
1, 142308, Note_off_c, 0, 72, 105
1, 142433, Note_on_c, 0, 67, 106
1, 142592, Note_off_c, 0, 67, 106
1, 142605, Note_on_c, 0, 65, 115
1, 142719, Note_off_c, 0, 65, 115
1, 142738, Note_on_c, 0, 63, 104
1, 143051, Note_off_c, 0, 63, 104
1, 143707, Note_on_c, 0, 61, 119
1, 143756, Note_off_c, 0, 61, 119
1, 143758, Note_on_c, 0, 63, 118
1, 143866, Note_off_c, 0, 63, 118
1, 143873, Note_on_c, 0, 66, 122
1, 143953, Note_off_c, 0, 66, 122
1, 143956, Note_on_c, 0, 64, 121
1, 144067, Note_off_c, 0, 64, 121
1, 144068, Note_on_c, 0, 66, 122
1, 144139, Note_off_c, 0, 66, 122
1, 144142, Note_on_c, 0, 68, 121
1, 144256, Note_off_c, 0, 68, 121
1, 144323, Note_on_c, 0, 76, 121
1, 144446, Note_off_c, 0, 76, 121
1, 144452, Note_on_c, 0, 73, 108
1, 144491, Note_off_c, 0, 73, 108
1, 144498, Note_on_c, 0, 76, 116
1, 144679, Note_off_c, 0, 76, 116
1, 144706, Note_on_c, 0, 76, 118
1, 144899, Note_off_c, 0, 76, 118
1, 144901, Note_on_c, 0, 73, 117
1, 145011, Note_off_c, 0, 73, 117
1, 145041, Note_on_c, 0, 74, 119
1, 145139, Note_off_c, 0, 74, 119
1, 145142, Note_on_c, 0, 75, 120
1, 145373, Note_off_c, 0, 75, 120
1, 145388, Note_on_c, 0, 73, 117
1, 145491, Note_off_c, 0, 73, 117
1, 145500, Note_on_c, 0, 72, 109
1, 145570, Note_off_c, 0, 72, 109
1, 145576, Note_on_c, 0, 73, 119
1, 145655, Note_off_c, 0, 73, 119
1, 145658, Note_on_c, 0, 77, 124
1, 145780, Note_off_c, 0, 77, 124
1, 145787, Note_on_c, 0, 80, 121
1, 145845, Note_off_c, 0, 80, 121
1, 145849, Note_on_c, 0, 82, 120
1, 146131, Note_off_c, 0, 82, 120
1, 146140, Note_on_c, 0, 80, 120
1, 146226, Note_off_c, 0, 80, 120
1, 146233, Note_on_c, 0, 79, 120
1, 146318, Note_off_c, 0, 79, 120
1, 146320, Note_on_c, 0, 77, 127
1, 146402, Note_off_c, 0, 77, 127
1, 146405, Note_on_c, 0, 75, 111
1, 146512, Note_off_c, 0, 75, 111
1, 146530, Note_on_c, 0, 70, 100
1, 146590, Note_off_c, 0, 70, 100
1, 146594, Note_on_c, 0, 72, 108
1, 146700, Note_off_c, 0, 72, 108
1, 146709, Note_on_c, 0, 74, 113
1, 146765, Note_off_c, 0, 74, 113
1, 146774, Note_on_c, 0, 75, 112
1, 146895, Note_off_c, 0, 75, 112
1, 146907, Note_on_c, 0, 74, 99
1, 146948, Note_off_c, 0, 74, 99
1, 146965, Note_on_c, 0, 77, 125
1, 147067, Note_off_c, 0, 77, 125
1, 147089, Note_on_c, 0, 76, 114
1, 147152, Note_off_c, 0, 76, 114
1, 147162, Note_on_c, 0, 75, 117
1, 147270, Note_off_c, 0, 75, 117
1, 147287, Note_on_c, 0, 79, 121
1, 147353, Note_off_c, 0, 79, 121
1, 147377, Note_on_c, 0, 73, 114
1, 147463, Note_off_c, 0, 73, 114
1, 147468, Note_on_c, 0, 77, 120
1, 147551, Note_off_c, 0, 77, 120
1, 147557, Note_on_c, 0, 75, 115
1, 147654, Note_off_c, 0, 75, 115
1, 147664, Note_on_c, 0, 73, 112
1, 147749, Note_off_c, 0, 73, 112
1, 147756, Note_on_c, 0, 70, 110
1, 147829, Note_off_c, 0, 70, 110
1, 147866, Note_on_c, 0, 66, 114
1, 147961, Note_off_c, 0, 66, 114
1, 147966, Note_on_c, 0, 65, 114
1, 148062, Note_off_c, 0, 65, 114
1, 148071, Note_on_c, 0, 63, 110
1, 148134, Note_off_c, 0, 63, 110
1, 148264, Note_on_c, 0, 65, 116
1, 148333, Note_off_c, 0, 65, 116
1, 148335, Note_on_c, 0, 69, 104
1, 148450, Note_off_c, 0, 69, 104
1, 148460, Note_on_c, 0, 65, 109
1, 148509, Note_off_c, 0, 65, 109
1, 148510, Note_on_c, 0, 67, 106
1, 148691, Note_off_c, 0, 67, 106
1, 148700, Note_on_c, 0, 71, 100
1, 148860, Note_off_c, 0, 71, 100
1, 148860, End_track
0, 0, End_of_file
