0, 0, Header, 1, 1, 20160
1, 0, Start_track
1, 0, Title_t, "Melody"
1, 0, Tempo, 983606
1, 0, Key_signature, -2, "major"
1, 0, Time_signature, 4, 2, 24, 8
1, 177159, Note_on_c, 0, 53, 96
1, 179181, Note_off_c, 0, 53, 96
1, 179418, Note_on_c, 0, 55, 107
1, 182987, Note_off_c, 0, 55, 107
1, 183105, Note_on_c, 0, 58, 107
1, 187150, Note_off_c, 0, 58, 107
1, 187506, Note_on_c, 0, 60, 118
1, 190956, Note_off_c, 0, 60, 118
1, 192071, Note_on_c, 0, 60, 121
1, 193911, Note_off_c, 0, 60, 121
1, 193911, Note_on_c, 0, 61, 109
1, 197257, Note_off_c, 0, 61, 109
1, 197257, Note_on_c, 0, 58, 103
1, 201272, Note_off_c, 0, 58, 103
1, 202108, Note_on_c, 0, 60, 109
1, 206792, Note_off_c, 0, 60, 109
1, 207491, Note_on_c, 0, 58, 78
1, 278067, Note_off_c, 0, 58, 78
1, 281197, Note_on_c, 0, 65, 114
1, 282267, Note_off_c, 0, 65, 114
1, 282583, Note_on_c, 0, 67, 115
1, 286765, Note_off_c, 0, 67, 115
1, 287350, Note_on_c, 0, 70, 86
1, 293122, Note_off_c, 0, 70, 86
1, 293874, Note_on_c, 0, 72, 122
1, 297011, Note_off_c, 0, 72, 122
1, 297261, Note_on_c, 0, 73, 121
1, 303493, Note_off_c, 0, 73, 121
1, 304078, Note_on_c, 0, 72, 120
1, 307340, Note_off_c, 0, 72, 120
1, 307632, Note_on_c, 0, 70, 109
1, 311689, Note_off_c, 0, 70, 109
1, 311772, Note_on_c, 0, 68, 109
1, 315536, Note_off_c, 0, 68, 109
1, 315996, Note_on_c, 0, 65, 107
1, 320011, Note_off_c, 0, 65, 107
1, 320011, Note_on_c, 0, 64, 109
1, 324570, Note_off_c, 0, 64, 109
1, 324904, Note_on_c, 0, 63, 112
1, 328333, Note_off_c, 0, 63, 112
1, 328583, Note_on_c, 0, 65, 100
1, 332180, Note_off_c, 0, 65, 100
1, 332389, Note_on_c, 0, 61, 101
1, 334438, Note_off_c, 0, 61, 101
1, 334688, Note_on_c, 0, 62, 92
1, 337365, Note_off_c, 0, 62, 92
1, 337908, Note_on_c, 0, 61, 89
1, 339246, Note_off_c, 0, 61, 89
1, 339371, Note_on_c, 0, 62, 80
1, 354973, Note_off_c, 0, 62, 80
1, 355684, Note_on_c, 0, 61, 90
1, 357273, Note_off_c, 0, 61, 90
1, 357607, Note_on_c, 0, 60, 93
1, 359572, Note_off_c, 0, 60, 93
1, 365118, Note_on_c, 0, 60, 97
1, 367735, Note_off_c, 0, 60, 97
1, 368329, Note_on_c, 0, 58, 77
1, 392600, Note_off_c, 0, 58, 77
1, 393313, Note_on_c, 0, 53, 93
1, 395811, Note_off_c, 0, 53, 93
1, 396643, Note_on_c, 0, 55, 86
1, 405923, Note_off_c, 0, 55, 86
1, 406038, Note_on_c, 0, 53, 79
1, 437827, Note_off_c, 0, 53, 79
1, 525583, Note_on_c, 0, 58, 93
1, 527088, Note_off_c, 0, 58, 93
1, 527255, Note_on_c, 0, 59, 99
1, 529513, Note_off_c, 0, 59, 99
1, 530600, Note_on_c, 0, 56, 85
1, 534615, Note_off_c, 0, 56, 85
1, 534615, Note_on_c, 0, 58, 101
1, 541474, Note_off_c, 0, 58, 101
1, 543314, Note_on_c, 0, 58, 101
1, 547245, Note_off_c, 0, 58, 101
1, 550423, Note_on_c, 0, 56, 68
1, 554689, Note_off_c, 0, 56, 68
1, 555107, Note_on_c, 0, 63, 118
1, 558285, Note_off_c, 0, 63, 118
1, 558368, Note_on_c, 0, 64, 119
1, 564140, Note_off_c, 0, 64, 119
1, 564223, Note_on_c, 0, 61, 87
1, 568656, Note_off_c, 0, 61, 87
1, 569241, Note_on_c, 0, 63, 112
1, 573172, Note_off_c, 0, 63, 112
1, 573673, Note_on_c, 0, 61, 97
1, 576768, Note_off_c, 0, 61, 97
1, 577939, Note_on_c, 0, 58, 93
1, 581870, Note_off_c, 0, 58, 93
1, 584138, Note_on_c, 0, 62, 91
1, 586636, Note_off_c, 0, 62, 91
1, 587056, Note_on_c, 0, 64, 103
1, 589900, Note_off_c, 0, 64, 103
1, 589900, Note_on_c, 0, 61, 87
1, 593664, Note_off_c, 0, 61, 87
1, 593664, Note_on_c, 0, 63, 99
1, 597344, Note_off_c, 0, 63, 99
1, 597594, Note_on_c, 0, 61, 90
1, 600187, Note_off_c, 0, 61, 90
1, 600772, Note_on_c, 0, 58, 84
1, 605122, Note_off_c, 0, 58, 84
1, 606376, Note_on_c, 0, 64, 98
1, 611144, Note_off_c, 0, 64, 98
1, 611394, Note_on_c, 0, 61, 82
1, 615074, Note_off_c, 0, 61, 82
1, 615408, Note_on_c, 0, 63, 99
1, 619423, Note_off_c, 0, 63, 99
1, 619423, Note_on_c, 0, 61, 88
1, 623438, Note_off_c, 0, 61, 88
1, 623438, Note_on_c, 0, 58, 88
1, 626951, Note_off_c, 0, 58, 88
1, 630589, Note_on_c, 0, 59, 95
1, 632764, Note_off_c, 0, 59, 95
1, 633057, Note_on_c, 0, 61, 91
1, 636235, Note_off_c, 0, 61, 91
1, 636235, Note_on_c, 0, 58, 79
1, 654221, Note_off_c, 0, 58, 79
1, 687642, Note_on_c, 0, 58, 93
1, 688896, Note_off_c, 0, 58, 93
1, 689523, Note_on_c, 0, 58, 106
1, 690275, Note_off_c, 0, 58, 106
1, 690693, Note_on_c, 0, 58, 106
1, 692198, Note_off_c, 0, 58, 106
1, 692574, Note_on_c, 0, 58, 103
1, 694790, Note_off_c, 0, 58, 103
1, 695040, Note_on_c, 0, 58, 105
1, 697256, Note_off_c, 0, 58, 105
1, 697674, Note_on_c, 0, 61, 100
1, 699639, Note_off_c, 0, 61, 100
1, 699765, Note_on_c, 0, 62, 114
1, 703988, Note_off_c, 0, 62, 114
1, 703988, Note_on_c, 0, 65, 112
1, 707676, Note_off_c, 0, 65, 112
1, 708568, Note_on_c, 0, 67, 109
1, 712970, Note_off_c, 0, 67, 109
1, 714992, Note_on_c, 0, 70, 112
1, 719751, Note_off_c, 0, 70, 112
1, 720405, Note_on_c, 0, 70, 86
1, 766271, Note_off_c, 0, 70, 86
1, 766271, Note_on_c, 0, 66, 98
1, 768650, Note_off_c, 0, 66, 98
1, 768887, Note_on_c, 0, 67, 97
1, 776382, Note_off_c, 0, 67, 97
1, 776857, Note_on_c, 0, 65, 85
1, 821950, Note_off_c, 0, 65, 85
1, 848482, Note_on_c, 0, 65, 108
1, 851720, Note_off_c, 0, 65, 108
1, 851720, Note_on_c, 0, 68, 110
1, 854898, Note_off_c, 0, 68, 110
1, 855316, Note_on_c, 0, 70, 108
1, 858578, Note_off_c, 0, 70, 108
1, 859163, Note_on_c, 0, 71, 106
1, 862843, Note_off_c, 0, 71, 106
1, 863428, Note_on_c, 0, 73, 93
1, 866021, Note_off_c, 0, 73, 93
1, 866690, Note_on_c, 0, 74, 112
1, 867693, Note_off_c, 0, 74, 112
1, 867943, Note_on_c, 0, 75, 108
1, 872711, Note_off_c, 0, 75, 108
1, 873547, Note_on_c, 0, 70, 107
1, 874885, Note_off_c, 0, 70, 107
1, 875219, Note_on_c, 0, 71, 110
1, 876724, Note_off_c, 0, 71, 110
1, 876891, Note_on_c, 0, 70, 104
1, 877643, Note_off_c, 0, 70, 104
1, 877893, Note_on_c, 0, 71, 102
1, 878980, Note_off_c, 0, 71, 102
1, 879565, Note_on_c, 0, 70, 101
1, 880903, Note_off_c, 0, 70, 101
1, 881404, Note_on_c, 0, 68, 83
1, 884833, Note_off_c, 0, 68, 83
1, 885836, Note_on_c, 0, 70, 107
1, 888931, Note_off_c, 0, 70, 107
1, 888931, Note_on_c, 0, 68, 102
1, 892189, Note_off_c, 0, 68, 102
1, 892189, Note_on_c, 0, 63, 98
1, 893259, Note_off_c, 0, 63, 98
1, 893675, Note_on_c, 0, 65, 105
1, 895995, Note_off_c, 0, 65, 105
1, 896470, Note_on_c, 0, 64, 108
1, 897957, Note_off_c, 0, 64, 108
1, 898254, Note_on_c, 0, 65, 95
1, 899622, Note_off_c, 0, 65, 95
1, 899859, Note_on_c, 0, 63, 92
1, 901227, Note_off_c, 0, 63, 92
1, 904736, Note_on_c, 0, 63, 115
1, 915276, Note_off_c, 0, 63, 115
1, 915861, Note_on_c, 0, 61, 97
1, 919625, Note_off_c, 0, 61, 97
1, 920210, Note_on_c, 0, 58, 92
1, 933929, Note_off_c, 0, 58, 92
1, 934849, Note_on_c, 0, 56, 89
1, 938529, Note_off_c, 0, 56, 89
1, 939294, Note_on_c, 0, 53, 91
1, 948812, Note_off_c, 0, 53, 91
1, 970228, Note_on_c, 0, 53, 115
1, 973261, Note_off_c, 0, 53, 115
1, 973974, Note_on_c, 0, 52, 99
1, 978257, Note_off_c, 0, 52, 99
1, 979149, Note_on_c, 0, 51, 86
1, 997754, Note_off_c, 0, 51, 86
1, 1017281, Note_on_c, 0, 49, 91
1, 1032510, Note_off_c, 0, 49, 91
1, 1033342, Note_on_c, 0, 50, 81
1, 1052021, Note_off_c, 0, 50, 81
1, 1214340, Note_on_c, 0, 55, 105
1, 1218522, Note_off_c, 0, 55, 105
1, 1218940, Note_on_c, 0, 58, 96
1, 1223624, Note_off_c, 0, 58, 96
1, 1224125, Note_on_c, 0, 60, 114
1, 1227638, Note_off_c, 0, 60, 114
1, 1228056, Note_on_c, 0, 61, 10
1, 1231318, Note_off_c, 0, 61, 10
1, 1232154, Note_on_c, 0, 58, 93
1, 1236002, Note_off_c, 0, 58, 93
1, 1236336, Note_on_c, 0, 60, 109
1, 1241020, Note_off_c, 0, 60, 109
1, 1242737, Note_on_c, 0, 62, 116
1, 1243926, Note_off_c, 0, 62, 116
1, 1244520, Note_on_c, 0, 64, 116
1, 1246364, Note_off_c, 0, 64, 116
1, 1246661, Note_on_c, 0, 65, 106
1, 1248862, Note_off_c, 0, 65, 106
1, 1249516, Note_on_c, 0, 61, 85
1, 1251181, Note_off_c, 0, 61, 85
1, 1252489, Note_on_c, 0, 63, 123
1, 1256653, Note_off_c, 0, 63, 123
1, 1256831, Note_on_c, 0, 61, 108
1, 1259983, Note_off_c, 0, 61, 108
1, 1260577, Note_on_c, 0, 58, 103
1, 1263908, Note_off_c, 0, 58, 103
1, 1264443, Note_on_c, 0, 56, 90
1, 1267179, Note_off_c, 0, 56, 90
1, 1267952, Note_on_c, 0, 58, 105
1, 1270450, Note_off_c, 0, 58, 105
1, 1272056, Note_on_c, 0, 56, 105
1, 1274495, Note_off_c, 0, 56, 105
1, 1275922, Note_on_c, 0, 53, 97
1, 1278242, Note_off_c, 0, 53, 97
1, 1278836, Note_on_c, 0, 52, 93
1, 1281988, Note_off_c, 0, 52, 93
1, 1283475, Note_on_c, 0, 50, 98
1, 1287163, Note_off_c, 0, 50, 98
1, 1291148, Note_on_c, 0, 51, 94
1, 1296858, Note_off_c, 0, 51, 94
1, 1298047, Note_on_c, 0, 51, 87
1, 1319046, Note_off_c, 0, 51, 87
1, 1379665, Note_on_c, 0, 66, 109
1, 1381092, Note_off_c, 0, 66, 109
1, 1381151, Note_on_c, 0, 65, 117
1, 1385374, Note_off_c, 0, 65, 117
1, 1385611, Note_on_c, 0, 68, 112
1, 1428324, Note_off_c, 0, 68, 112
1, 1429632, Note_on_c, 0, 62, 115
1, 1431952, Note_off_c, 0, 62, 115
1, 1431952, Note_on_c, 0, 64, 110
1, 1434212, Note_off_c, 0, 64, 110
1, 1434271, Note_on_c, 0, 63, 106
1, 1438256, Note_off_c, 0, 63, 106
1, 1439088, Note_on_c, 0, 61, 101
1, 1442538, Note_off_c, 0, 61, 101
1, 1443311, Note_on_c, 0, 63, 112
1, 1450211, Note_off_c, 0, 63, 112
1, 1450984, Note_on_c, 0, 65, 107
1, 1453958, Note_on_c, 0, 61, 98
1, 1453958, Note_off_c, 0, 65, 107
1, 1456278, Note_off_c, 0, 61, 98
1, 1456456, Note_on_c, 0, 62, 99
1, 1458895, Note_off_c, 0, 62, 99
1, 1459608, Note_on_c, 0, 61, 92
1, 1460797, Note_off_c, 0, 61, 92
1, 1461153, Note_on_c, 0, 62, 98
1, 1468351, Note_off_c, 0, 62, 98
1, 1469005, Note_on_c, 0, 60, 96
1, 1471563, Note_off_c, 0, 60, 96
1, 1475191, Note_on_c, 0, 57, 80
1, 1476142, Note_off_c, 0, 57, 80
1, 1476260, Note_on_c, 0, 58, 81
1, 1477092, Note_off_c, 0, 58, 81
1, 1477448, Note_on_c, 0, 60, 98
1, 1481374, Note_off_c, 0, 60, 98
1, 1481433, Note_on_c, 0, 58, 90
1, 1487560, Note_off_c, 0, 58, 90
1, 1533783, Note_on_c, 0, 75, 112
1, 1536816, Note_off_c, 0, 75, 112
1, 1537113, Note_on_c, 0, 70, 116
1, 1538659, Note_off_c, 0, 70, 116
1, 1538659, Note_on_c, 0, 71, 124
1, 1540205, Note_off_c, 0, 71, 124
1, 1540859, Note_on_c, 0, 70, 108
1, 1541572, Note_off_c, 0, 70, 108
1, 1541750, Note_on_c, 0, 71, 105
1, 1545438, Note_off_c, 0, 71, 105
1, 1545913, Note_on_c, 0, 68, 110
1, 1549244, Note_off_c, 0, 68, 110
1, 1551028, Note_on_c, 0, 70, 116
1, 1556441, Note_off_c, 0, 70, 116
1, 1557511, Note_on_c, 0, 70, 112
1, 1562151, Note_off_c, 0, 70, 112
1, 1563162, Note_on_c, 0, 70, 105
1, 1573513, Note_off_c, 0, 70, 105
1, 1574524, Note_on_c, 0, 68, 108
1, 1577557, Note_off_c, 0, 68, 108
1, 1577854, Note_on_c, 0, 66, 107
1, 1579995, Note_off_c, 0, 66, 107
1, 1580054, Note_on_c, 0, 67, 109
1, 1583504, Note_off_c, 0, 67, 109
1, 1584931, Note_on_c, 0, 70, 109
1, 1586894, Note_off_c, 0, 70, 109
1, 1587905, Note_on_c, 0, 60, 98
1, 1594567, Note_off_c, 0, 60, 98
1, 1596411, Note_on_c, 0, 63, 111
1, 1602300, Note_off_c, 0, 63, 111
1, 1603132, Note_on_c, 0, 63, 100
1, 1614910, Note_off_c, 0, 63, 100
1, 1628047, Note_on_c, 0, 63, 95
1, 1629176, Note_off_c, 0, 63, 95
1, 1629803, Note_on_c, 0, 63, 118
1, 1632396, Note_off_c, 0, 63, 118
1, 1634529, Note_on_c, 0, 67, 108
1, 1635574, Note_off_c, 0, 67, 108
1, 1635699, Note_on_c, 0, 66, 111
1, 1636577, Note_off_c, 0, 66, 111
1, 1636869, Note_on_c, 0, 67, 117
1, 1639127, Note_off_c, 0, 67, 117
1, 1639628, Note_on_c, 0, 70, 113
1, 1643559, Note_off_c, 0, 70, 113
1, 1644186, Note_on_c, 0, 72, 102
1, 1648201, Note_off_c, 0, 72, 102
1, 1648786, Note_on_c, 0, 71, 112
1, 1650793, Note_off_c, 0, 71, 112
1, 1650793, Note_on_c, 0, 73, 117
1, 1656899, Note_off_c, 0, 73, 117
1, 1657191, Note_on_c, 0, 70, 106
1, 1658654, Note_off_c, 0, 70, 106
1, 1659114, Note_on_c, 0, 65, 109
1, 1660368, Note_off_c, 0, 65, 109
1, 1661246, Note_on_c, 0, 64, 117
1, 1662249, Note_off_c, 0, 64, 117
1, 1662750, Note_on_c, 0, 63, 112
1, 1665092, Note_off_c, 0, 63, 112
1, 1668145, Note_on_c, 0, 63, 120
1, 1684615, Note_off_c, 0, 63, 120
1, 1684708, Note_on_c, 0, 61, 106
1, 1686004, Note_off_c, 0, 61, 106
1, 1686213, Note_on_c, 0, 63, 97
1, 1686965, Note_off_c, 0, 63, 97
1, 1687425, Note_on_c, 0, 61, 97
1, 1689223, Note_off_c, 0, 61, 97
1, 1690436, Note_on_c, 0, 58, 95
1, 1694953, Note_off_c, 0, 58, 95
1, 1695873, Note_on_c, 0, 56, 96
1, 1697797, Note_off_c, 0, 56, 96
1, 1698884, Note_on_c, 0, 58, 104
1, 1703234, Note_off_c, 0, 58, 104
1, 1721764, Note_on_c, 0, 61, 109
1, 1723897, Note_off_c, 0, 61, 109
1, 1724147, Note_on_c, 0, 62, 120
1, 1727953, Note_off_c, 0, 62, 120
1, 1727953, Note_on_c, 0, 65, 111
1, 1731173, Note_off_c, 0, 65, 111
1, 1731549, Note_on_c, 0, 67, 112
1, 1735564, Note_off_c, 0, 67, 112
1, 1735946, Note_on_c, 0, 65, 88
1, 1795253, Note_off_c, 0, 65, 88
1, 1796149, Note_on_c, 0, 66, 96
1, 1798052, Note_off_c, 0, 66, 96
1, 1798765, Note_on_c, 0, 67, 95
1, 1802453, Note_off_c, 0, 67, 95
1, 1802453, Note_on_c, 0, 65, 96
1, 1806617, Note_off_c, 0, 65, 96
1, 1807130, Note_on_c, 0, 63, 98
1, 1811061, Note_off_c, 0, 63, 98
1, 1811311, Note_on_c, 0, 65, 96
1, 1813569, Note_off_c, 0, 65, 96
1, 1813987, Note_on_c, 0, 62, 79
1, 1850461, Note_off_c, 0, 62, 79
1, 1904085, Note_on_c, 0, 58, 91
1, 1908644, Note_off_c, 0, 58, 91
1, 1909104, Note_on_c, 0, 63, 127
1, 1911571, Note_off_c, 0, 63, 127
1, 1911612, Note_on_c, 0, 64, 113
1, 1913745, Note_off_c, 0, 64, 113
1, 1914121, Note_on_c, 0, 61, 95
1, 1917634, Note_off_c, 0, 61, 95
1, 1918177, Note_on_c, 0, 63, 122
1, 1922736, Note_off_c, 0, 63, 122
1, 1923112, Note_on_c, 0, 61, 86
1, 1927504, Note_off_c, 0, 61, 86
1, 1927504, Note_on_c, 0, 56, 95
1, 1930682, Note_off_c, 0, 56, 95
1, 1935461, Note_on_c, 0, 58, 100
1, 1940339, Note_off_c, 0, 58, 100
1, 1940933, Note_on_c, 0, 56, 81
1, 1951105, Note_off_c, 0, 56, 81
1, 1971755, Note_on_c, 0, 54, 97
1, 1973344, Note_off_c, 0, 54, 97
1, 1973594, Note_on_c, 0, 55, 98
1, 1977693, Note_off_c, 0, 55, 98
1, 1978194, Note_on_c, 0, 58, 103
1, 1982293, Note_off_c, 0, 58, 103
1, 1982962, Note_on_c, 0, 60, 105
1, 1987563, Note_off_c, 0, 60, 105
1, 1988399, Note_on_c, 0, 60, 107
1, 1990574, Note_off_c, 0, 60, 107
1, 1990657, Note_on_c, 0, 61, 106
1, 1992581, Note_off_c, 0, 61, 106
1, 1992915, Note_on_c, 0, 58, 97
1, 1998269, Note_off_c, 0, 58, 97
1, 1999858, Note_on_c, 0, 56, 98
1, 2003371, Note_off_c, 0, 56, 98
1, 2005127, Note_on_c, 0, 53, 92
1, 2010230, Note_off_c, 0, 53, 92
1, 2011903, Note_on_c, 0, 52, 104
1, 2016922, Note_off_c, 0, 52, 104
1, 2018093, Note_on_c, 0, 51, 84
1, 2036999, Note_off_c, 0, 51, 84
1, 2044435, Note_on_c, 0, 53, 97
1, 2048956, Note_off_c, 0, 53, 97
1, 2050026, Note_on_c, 0, 49, 88
1, 2055736, Note_off_c, 0, 49, 88
1, 2056330, Note_on_c, 0, 50, 82
1, 2072630, Note_off_c, 0, 50, 82
1, 2243721, Note_on_c, 0, 72, 112
1, 2247290, Note_off_c, 0, 72, 112
1, 2247408, Note_on_c, 0, 70, 81
1, 2249668, Note_off_c, 0, 70, 81
1, 2249668, Note_on_c, 0, 72, 119
1, 2253237, Note_off_c, 0, 72, 119
1, 2253712, Note_on_c, 0, 70, 108
1, 2257519, Note_off_c, 0, 70, 108
1, 2257994, Note_on_c, 0, 68, 113
1, 2261682, Note_off_c, 0, 68, 113
1, 2261919, Note_on_c, 0, 65, 104
1, 2265131, Note_off_c, 0, 65, 104
1, 2265539, Note_on_c, 0, 68, 116
1, 2269413, Note_on_c, 0, 65, 100
1, 2269413, Note_off_c, 0, 68, 116
1, 2273820, Note_off_c, 0, 65, 100
1, 2273820, Note_on_c, 0, 63, 105
1, 2274991, Note_off_c, 0, 63, 105
1, 2275492, Note_on_c, 0, 65, 114
1, 2276830, Note_on_c, 0, 63, 117
1, 2276830, Note_off_c, 0, 65, 114
1, 2279256, Note_off_c, 0, 63, 117
1, 2279423, Note_on_c, 0, 60, 102
1, 2282852, Note_off_c, 0, 60, 102
1, 2283186, Note_on_c, 0, 63, 120
1, 2287285, Note_off_c, 0, 63, 120
1, 2287619, Note_on_c, 0, 61, 109
1, 2289375, Note_on_c, 0, 63, 114
1, 2289375, Note_off_c, 0, 61, 109
1, 2290713, Note_off_c, 0, 63, 114
1, 2291298, Note_on_c, 0, 61, 100
1, 2293305, Note_off_c, 0, 61, 100
1, 2293305, Note_on_c, 0, 58, 96
1, 2297822, Note_off_c, 0, 58, 96
1, 2297822, Note_on_c, 0, 60, 108
1, 2298993, Note_off_c, 0, 60, 108
1, 2298993, Note_on_c, 0, 62, 101
1, 2299829, Note_off_c, 0, 62, 101
1, 2300330, Note_on_c, 0, 61, 100
1, 2301668, Note_off_c, 0, 61, 100
1, 2301835, Note_on_c, 0, 58, 103
1, 2305181, Note_off_c, 0, 58, 103
1, 2305766, Note_on_c, 0, 56, 100
1, 2308777, Note_off_c, 0, 56, 100
1, 2309948, Note_on_c, 0, 53, 100
1, 2313796, Note_off_c, 0, 53, 100
1, 2314130, Note_on_c, 0, 52, 100
1, 2318647, Note_off_c, 0, 52, 100
1, 2319065, Note_on_c, 0, 53, 96
1, 2322327, Note_off_c, 0, 53, 96
1, 2323163, Note_on_c, 0, 49, 91
1, 2325170, Note_off_c, 0, 49, 91
1, 2325588, Note_on_c, 0, 50, 89
1, 2329770, Note_off_c, 0, 50, 89
1, 2331192, Note_on_c, 0, 46, 87
1, 2335876, Note_off_c, 0, 46, 87
1, 2336377, Note_on_c, 0, 44, 93
1, 2342902, Note_off_c, 0, 44, 93
1, 2342902, Note_on_c, 0, 51, 92
1, 2346833, Note_off_c, 0, 51, 92
1, 2348087, Note_on_c, 0, 60, 89
1, 2351767, Note_off_c, 0, 60, 89
1, 2352770, Note_on_c, 0, 55, 88
1, 2361888, Note_off_c, 0, 55, 88
1, 2382634, Note_on_c, 0, 44, 98
1, 2386733, Note_off_c, 0, 44, 98
1, 2387695, Note_on_c, 0, 50, 98
1, 2390162, Note_off_c, 0, 50, 98
1, 2391124, Note_on_c, 0, 53, 100
1, 2394470, Note_off_c, 0, 53, 100
1, 2395348, Note_on_c, 0, 60, 99
1, 2399196, Note_off_c, 0, 60, 99
1, 2399446, Note_on_c, 0, 55, 93
1, 2402499, Note_off_c, 0, 55, 93
1, 2403000, Note_on_c, 0, 55, 97
1, 2403962, Note_off_c, 0, 55, 97
1, 2404129, Note_on_c, 0, 56, 98
1, 2407851, Note_off_c, 0, 56, 98
1, 2408352, Note_on_c, 0, 60, 105
1, 2411823, Note_off_c, 0, 60, 105
1, 2412199, Note_on_c, 0, 63, 120
1, 2415377, Note_off_c, 0, 63, 120
1, 2415669, Note_on_c, 0, 65, 116
1, 2418262, Note_off_c, 0, 65, 116
1, 2418554, Note_on_c, 0, 66, 114
1, 2420394, Note_off_c, 0, 66, 114
1, 2420519, Note_on_c, 0, 67, 117
1, 2423948, Note_off_c, 0, 67, 117
1, 2424031, Note_on_c, 0, 65, 105
1, 2424867, Note_off_c, 0, 65, 105
1, 2425285, Note_on_c, 0, 63, 117
1, 2426414, Note_off_c, 0, 63, 117
1, 2426790, Note_on_c, 0, 62, 115
1, 2430345, Note_off_c, 0, 62, 115
1, 2431056, Note_on_c, 0, 65, 111
1, 2434360, Note_off_c, 0, 65, 111
1, 2436325, Note_on_c, 0, 72, 112
1, 2438960, Note_off_c, 0, 72, 112
1, 2440674, Note_on_c, 0, 67, 102
1, 2443518, Note_off_c, 0, 67, 102
1, 2443852, Note_on_c, 0, 70, 106
1, 2448578, Note_off_c, 0, 70, 106
1, 2448729, Note_on_c, 0, 74, 113
1, 2450989, Note_off_c, 0, 74, 113
1, 2451107, Note_on_c, 0, 75, 107
1, 2456639, Note_off_c, 0, 75, 107
1, 2456936, Note_on_c, 0, 74, 10
1, 2465621, Note_off_c, 0, 74, 10
1, 2472584, Note_on_c, 0, 67, 108
1, 2473838, Note_off_c, 0, 67, 108
1, 2474172, Note_on_c, 0, 67, 111
1, 2475259, Note_off_c, 0, 67, 111
1, 2475672, Note_on_c, 0, 68, 110
1, 2477873, Note_off_c, 0, 68, 110
1, 2478186, Note_on_c, 0, 70, 107
1, 2481992, Note_off_c, 0, 70, 107
1, 2482159, Note_on_c, 0, 71, 111
1, 2485756, Note_off_c, 0, 71, 111
1, 2485839, Note_on_c, 0, 74, 97
1, 2487763, Note_off_c, 0, 74, 97
1, 2487846, Note_on_c, 0, 73, 116
1, 2488933, Note_off_c, 0, 73, 116
1, 2489183, Note_on_c, 0, 74, 103
1, 2509344, Note_off_c, 0, 74, 103
1, 2509594, Note_on_c, 0, 72, 103
1, 2511183, Note_off_c, 0, 72, 103
1, 2511475, Note_on_c, 0, 71, 105
1, 2512813, Note_off_c, 0, 71, 105
1, 2513024, Note_on_c, 0, 70, 106
1, 2513975, Note_off_c, 0, 70, 106
1, 2514153, Note_on_c, 0, 68, 107
1, 2515521, Note_off_c, 0, 68, 107
1, 2515906, Note_on_c, 0, 67, 103
1, 2517830, Note_off_c, 0, 67, 103
1, 2517830, Note_on_c, 0, 65, 107
1, 2519084, Note_off_c, 0, 65, 107
1, 2519544, Note_on_c, 0, 64, 114
1, 2520840, Note_off_c, 0, 64, 114
1, 2521341, Note_on_c, 0, 63, 114
1, 2522888, Note_off_c, 0, 63, 114
1, 2523348, Note_on_c, 0, 62, 109
1, 2524519, Note_off_c, 0, 62, 109
1, 2524937, Note_on_c, 0, 61, 101
1, 2526651, Note_off_c, 0, 61, 101
1, 2527027, Note_on_c, 0, 58, 96
1, 2531460, Note_off_c, 0, 58, 96
1, 2531576, Note_on_c, 0, 56, 98
1, 2532944, Note_off_c, 0, 56, 98
1, 2533090, Note_on_c, 0, 58, 98
1, 2536729, Note_off_c, 0, 58, 98
1, 2537021, Note_on_c, 0, 57, 95
1, 2539028, Note_off_c, 0, 57, 95
1, 2539488, Note_on_c, 0, 53, 96
1, 2546222, Note_off_c, 0, 53, 96
1, 2546222, Note_on_c, 0, 56, 89
1, 2549568, Note_off_c, 0, 56, 89
1, 2550613, Note_on_c, 0, 58, 103
1, 2553499, Note_off_c, 0, 58, 103
1, 2554293, Note_on_c, 0, 56, 100
1, 2559312, Note_off_c, 0, 56, 100
1, 2559897, Note_on_c, 0, 60, 105
1, 2562532, Note_off_c, 0, 60, 105
1, 2563870, Note_on_c, 0, 61, 102
1, 2566965, Note_off_c, 0, 61, 102
1, 2567801, Note_on_c, 0, 63, 116
1, 2571063, Note_off_c, 0, 63, 116
1, 2571732, Note_on_c, 0, 65, 102
1, 2576374, Note_off_c, 0, 65, 102
1, 2579678, Note_on_c, 0, 65, 99
1, 2594819, Note_off_c, 0, 65, 99
1, 2595111, Note_on_c, 0, 63, 107
1, 2596240, Note_off_c, 0, 63, 107
1, 2596323, Note_on_c, 0, 64, 103
1, 2597201, Note_off_c, 0, 64, 103
1, 2597661, Note_on_c, 0, 63, 106
1, 2599250, Note_off_c, 0, 63, 106
1, 2599626, Note_on_c, 0, 61, 100
1, 2601424, Note_off_c, 0, 61, 100
1, 2601633, Note_on_c, 0, 60, 94
1, 2604561, Note_off_c, 0, 60, 94
1, 2604561, Note_on_c, 0, 63, 108
1, 2609998, Note_off_c, 0, 63, 108
1, 2610248, Note_on_c, 0, 61, 96
1, 2613426, Note_off_c, 0, 61, 96
1, 2614053, Note_on_c, 0, 58, 86
1, 2620452, Note_off_c, 0, 58, 86
1, 2620535, Note_on_c, 0, 60, 107
1, 2622124, Note_on_c, 0, 61, 99
1, 2622124, Note_off_c, 0, 60, 107
1, 2625051, Note_off_c, 0, 61, 99
1, 2625511, Note_on_c, 0, 58, 90
1, 2636721, Note_off_c, 0, 58, 90
1, 2656213, Note_on_c, 0, 76, 107
1, 2657802, Note_on_c, 0, 77, 115
1, 2657802, Note_off_c, 0, 76, 107
1, 2659224, Note_off_c, 0, 77, 115
1, 2659224, Note_on_c, 0, 78, 118
1, 2660060, Note_off_c, 0, 78, 118
1, 2660143, Note_on_c, 0, 80, 119
1, 2666082, Note_off_c, 0, 80, 119
1, 2672314, Note_on_c, 0, 73, 102
1, 2673192, Note_off_c, 0, 73, 102
1, 2673192, Note_on_c, 0, 75, 104
1, 2673568, Note_off_c, 0, 75, 104
1, 2673568, Note_on_c, 0, 76, 104
1, 2673902, Note_off_c, 0, 76, 104
1, 2673985, Note_on_c, 0, 77, 115
1, 2677414, Note_off_c, 0, 77, 115
1, 2677664, Note_on_c, 0, 76, 101
1, 2678333, Note_off_c, 0, 76, 101
1, 2678458, Note_on_c, 0, 75, 79
1, 2679336, Note_off_c, 0, 75, 79
1, 2682682, Note_on_c, 0, 73, 95
1, 2684396, Note_off_c, 0, 73, 95
1, 2684396, Note_on_c, 0, 75, 102
1, 2687993, Note_off_c, 0, 75, 102
1, 2689833, Note_on_c, 0, 71, 106
1, 2691380, Note_off_c, 0, 71, 106
1, 2691463, Note_on_c, 0, 73, 98
1, 2694391, Note_off_c, 0, 73, 98
1, 2696315, Note_on_c, 0, 70, 100
1, 2698992, Note_off_c, 0, 70, 100
1, 2699201, Note_on_c, 0, 69, 104
1, 2699577, Note_off_c, 0, 69, 104
1, 2699827, Note_on_c, 0, 68, 98
1, 2700621, Note_off_c, 0, 68, 98
1, 2720824, Note_on_c, 0, 61, 101
1, 2722580, Note_off_c, 0, 61, 101
1, 2722580, Note_on_c, 0, 62, 121
1, 2725340, Note_off_c, 0, 62, 121
1, 2725674, Note_on_c, 0, 65, 115
1, 2728225, Note_off_c, 0, 65, 115
1, 2728768, Note_on_c, 0, 67, 112
1, 2731570, Note_off_c, 0, 67, 112
1, 2731570, Note_on_c, 0, 70, 85
1, 2732908, Note_off_c, 0, 70, 85
1, 2734371, Note_on_c, 0, 67, 95
1, 2735667, Note_off_c, 0, 67, 95
1, 2735834, Note_on_c, 0, 70, 109
1, 2738134, Note_off_c, 0, 70, 109
1, 2739514, Note_on_c, 0, 74, 102
1, 2742734, Note_off_c, 0, 74, 102
1, 2744741, Note_on_c, 0, 67, 110
1, 2748463, Note_off_c, 0, 67, 110
1, 2748881, Note_on_c, 0, 72, 117
1, 2751432, Note_off_c, 0, 72, 117
1, 2752017, Note_on_c, 0, 72, 101
1, 2755195, Note_off_c, 0, 72, 101
1, 2755613, Note_on_c, 0, 70, 109
1, 2758666, Note_off_c, 0, 70, 109
1, 2758833, Note_on_c, 0, 68, 110
1, 2761719, Note_off_c, 0, 68, 110
1, 2761844, Note_on_c, 0, 63, 107
1, 2762889, Note_off_c, 0, 63, 107
1, 2762972, Note_on_c, 0, 60, 109
1, 2765523, Note_off_c, 0, 60, 109
1, 2765941, Note_on_c, 0, 63, 99
1, 2768659, Note_off_c, 0, 63, 99
1, 2769328, Note_on_c, 0, 67, 109
1, 2772465, Note_off_c, 0, 67, 109
1, 2772966, Note_on_c, 0, 65, 108
1, 2776897, Note_off_c, 0, 65, 108
1, 2777022, Note_on_c, 0, 63, 90
1, 2788148, Note_off_c, 0, 63, 90
1, 2797350, Note_on_c, 0, 61, 94
1, 2799023, Note_off_c, 0, 61, 94
1, 2799566, Note_on_c, 0, 63, 114
1, 2801741, Note_off_c, 0, 63, 114
1, 2801782, Note_on_c, 0, 67, 115
1, 2804459, Note_off_c, 0, 67, 115
1, 2804793, Note_on_c, 0, 71, 108
1, 2806215, Note_off_c, 0, 71, 108
1, 2806256, Note_on_c, 0, 75, 108
1, 2831018, Note_off_c, 0, 75, 108
1, 2831519, Note_on_c, 0, 74, 87
1, 2836956, Note_off_c, 0, 74, 87
1, 2843732, Note_on_c, 0, 74, 111
1, 2845697, Note_off_c, 0, 74, 111
1, 2845989, Note_on_c, 0, 75, 112
1, 2848122, Note_off_c, 0, 75, 112
1, 2848707, Note_on_c, 0, 76, 113
1, 2849543, Note_off_c, 0, 76, 113
1, 2849543, Note_on_c, 0, 77, 103
1, 2852345, Note_off_c, 0, 77, 103
1, 2855063, Note_on_c, 0, 67, 94
1, 2857865, Note_off_c, 0, 67, 94
1, 2858157, Note_on_c, 0, 75, 96
1, 2861294, Note_off_c, 0, 75, 96
1, 2863176, Note_on_c, 0, 63, 91
1, 2864681, Note_off_c, 0, 63, 91
1, 2864681, Note_on_c, 0, 66, 86
1, 2865559, Note_off_c, 0, 66, 86
1, 2865642, Note_on_c, 0, 70, 89
1, 2866687, Note_off_c, 0, 70, 89
1, 2866770, Note_on_c, 0, 71, 104
1, 2872835, Note_off_c, 0, 71, 104
1, 2878230, Note_on_c, 0, 67, 94
1, 2879777, Note_off_c, 0, 67, 94
1, 2879818, Note_on_c, 0, 68, 95
1, 2880905, Note_off_c, 0, 68, 95
1, 2881406, Note_on_c, 0, 71, 100
1, 2882409, Note_off_c, 0, 71, 100
1, 2883078, Note_on_c, 0, 74, 100
1, 2884416, Note_off_c, 0, 74, 100
1, 2884708, Note_on_c, 0, 72, 106
1, 2886046, Note_off_c, 0, 72, 106
1, 2886506, Note_on_c, 0, 71, 103
1, 2888471, Note_off_c, 0, 71, 103
1, 2888512, Note_on_c, 0, 68, 99
1, 2890436, Note_off_c, 0, 68, 99
1, 2890477, Note_on_c, 0, 67, 100
1, 2892359, Note_off_c, 0, 67, 100
1, 2892609, Note_on_c, 0, 66, 101
1, 2893780, Note_off_c, 0, 66, 101
1, 2893780, Note_on_c, 0, 64, 108
1, 2895662, Note_off_c, 0, 64, 108
1, 2896122, Note_on_c, 0, 63, 107
1, 2897711, Note_off_c, 0, 63, 107
1, 2898254, Note_on_c, 0, 62, 103
1, 2899759, Note_on_c, 0, 60, 98
1, 2899759, Note_off_c, 0, 62, 103
1, 2902352, Note_off_c, 0, 60, 98
1, 2905489, Note_on_c, 0, 62, 110
1, 2909755, Note_off_c, 0, 62, 110
1, 2909838, Note_on_c, 0, 65, 98
1, 2913895, Note_off_c, 0, 65, 98
1, 2914689, Note_on_c, 0, 62, 106
1, 2916069, Note_off_c, 0, 62, 106
1, 2916278, Note_on_c, 0, 63, 100
1, 2917532, Note_off_c, 0, 63, 100
1, 2917992, Note_on_c, 0, 62, 98
1, 2919957, Note_off_c, 0, 62, 98
1, 2924014, Note_on_c, 0, 60, 103
1, 2926858, Note_off_c, 0, 60, 103
1, 2927234, Note_on_c, 0, 62, 100
1, 2931249, Note_off_c, 0, 62, 100
1, 2931374, Note_on_c, 0, 58, 100
1, 2934720, Note_off_c, 0, 58, 100
1, 2934887, Note_on_c, 0, 55, 102
1, 2938484, Note_off_c, 0, 55, 102
1, 2940031, Note_on_c, 0, 56, 102
1, 2942289, Note_off_c, 0, 56, 102
1, 2942330, Note_on_c, 0, 58, 100
1, 2946680, Note_off_c, 0, 58, 100
1, 2946721, Note_on_c, 0, 55, 93
1, 2947724, Note_off_c, 0, 55, 93
1, 2947724, Note_on_c, 0, 58, 87
1, 2951153, Note_off_c, 0, 58, 87
1, 2951153, Note_on_c, 0, 51, 94
1, 2955879, Note_off_c, 0, 51, 94
1, 2956213, Note_on_c, 0, 53, 97
1, 2959350, Note_off_c, 0, 53, 97
1, 2959768, Note_on_c, 0, 54, 95
1, 2961064, Note_off_c, 0, 54, 95
1, 2961231, Note_on_c, 0, 55, 91
1, 2964535, Note_off_c, 0, 55, 91
1, 2966919, Note_on_c, 0, 50, 95
1, 2970850, Note_off_c, 0, 50, 95
1, 2972647, Note_on_c, 0, 53, 83
1, 2990850, Note_off_c, 0, 53, 83
1, 2997367, Note_on_c, 0, 53, 108
1, 3000880, Note_off_c, 0, 53, 108
1, 3001298, Note_on_c, 0, 56, 107
1, 3003975, Note_off_c, 0, 56, 107
1, 3004811, Note_on_c, 0, 58, 107
1, 3008073, Note_off_c, 0, 58, 107
1, 3008240, Note_on_c, 0, 60, 106
1, 3011920, Note_off_c, 0, 60, 106
1, 3012003, Note_on_c, 0, 63, 120
1, 3016018, Note_off_c, 0, 63, 120
1, 3016687, Note_on_c, 0, 65, 110
1, 3021120, Note_off_c, 0, 65, 110
1, 3021659, Note_on_c, 0, 66, 107
1, 3022432, Note_off_c, 0, 66, 107
1, 3022669, Note_on_c, 0, 67, 112
1, 3025940, Note_off_c, 0, 67, 112
1, 3025999, Note_on_c, 0, 63, 106
1, 3027783, Note_off_c, 0, 63, 106
1, 3028020, Note_on_c, 0, 60, 101
1, 3031708, Note_off_c, 0, 60, 101
1, 3033671, Note_on_c, 0, 67, 101
1, 3036467, Note_off_c, 0, 67, 101
1, 3037180, Note_on_c, 0, 62, 110
1, 3039619, Note_off_c, 0, 62, 110
1, 3041522, Note_on_c, 0, 65, 107
1, 3043961, Note_off_c, 0, 65, 107
1, 3044258, Note_on_c, 0, 61, 100
1, 3046578, Note_off_c, 0, 61, 100
1, 3048422, Note_on_c, 0, 65, 102
1, 3051158, Note_off_c, 0, 65, 102
1, 3052288, Note_on_c, 0, 60, 101
1, 3054489, Note_off_c, 0, 60, 101
1, 3055440, Note_on_c, 0, 64, 101
1, 3058414, Note_off_c, 0, 64, 101
1, 3060258, Note_on_c, 0, 58, 94
1, 3062756, Note_off_c, 0, 58, 94
1, 3063053, Note_on_c, 0, 63, 99
1, 3065611, Note_off_c, 0, 63, 99
1, 3066800, Note_on_c, 0, 58, 92
1, 3069239, Note_off_c, 0, 58, 92
1, 3069239, Note_on_c, 0, 62, 105
1, 3071499, Note_off_c, 0, 62, 105
1, 3071796, Note_on_c, 0, 58, 86
1, 3073937, Note_off_c, 0, 58, 86
1, 3074829, Note_on_c, 0, 61, 96
1, 3077803, Note_off_c, 0, 61, 96
1, 3079230, Note_on_c, 0, 58, 86
1, 3080300, Note_off_c, 0, 58, 86
1, 3080300, Note_on_c, 0, 59, 88
1, 3085118, Note_off_c, 0, 59, 88
1, 3085712, Note_on_c, 0, 58, 97
1, 3089162, Note_off_c, 0, 58, 97
1, 3090077, Note_on_c, 0, 53, 92
1, 3091708, Note_off_c, 0, 53, 92
1, 3092251, Note_on_c, 0, 57, 94
1, 3093924, Note_off_c, 0, 57, 94
1, 3094509, Note_on_c, 0, 54, 90
1, 3097227, Note_off_c, 0, 54, 90
1, 3097519, Note_on_c, 0, 56, 89
1, 3100028, Note_off_c, 0, 56, 89
1, 3100864, Note_on_c, 0, 55, 88
1, 3106218, Note_off_c, 0, 55, 88
1, 3108267, Note_on_c, 0, 53, 103
1, 3109019, Note_off_c, 0, 53, 103
1, 3109019, Note_on_c, 0, 54, 95
1, 3111152, Note_off_c, 0, 54, 95
1, 3112114, Note_on_c, 0, 51, 90
1, 3113619, Note_off_c, 0, 51, 90
1, 3113911, Note_on_c, 0, 53, 95
1, 3115709, Note_off_c, 0, 53, 95
1, 3116963, Note_on_c, 0, 51, 87
1, 3119012, Note_off_c, 0, 51, 87
1, 3119430, Note_on_c, 0, 52, 90
1, 3126122, Note_off_c, 0, 52, 90
1, 3126665, Note_on_c, 0, 50, 90
1, 3128087, Note_off_c, 0, 50, 90
1, 3128923, Note_on_c, 0, 49, 93
1, 3132436, Note_off_c, 0, 49, 93
1, 3136493, Note_on_c, 0, 48, 91
1, 3137957, Note_off_c, 0, 48, 91
1, 3138333, Note_on_c, 0, 50, 92
1, 3139587, Note_off_c, 0, 50, 92
1, 3139712, Note_on_c, 0, 51, 95
1, 3140674, Note_off_c, 0, 51, 95
1, 3140799, Note_on_c, 0, 53, 97
1, 3142179, Note_off_c, 0, 53, 97
1, 3142806, Note_on_c, 0, 50, 98
1, 3143893, Note_off_c, 0, 50, 98
1, 3144143, Note_on_c, 0, 51, 96
1, 3146025, Note_off_c, 0, 51, 96
1, 3146359, Note_on_c, 0, 52, 91
1, 3147195, Note_off_c, 0, 52, 91
1, 3147320, Note_on_c, 0, 54, 95
1, 3148114, Note_off_c, 0, 54, 95
1, 3148197, Note_on_c, 0, 55, 92
1, 3149117, Note_off_c, 0, 55, 92
1, 3149284, Note_on_c, 0, 53, 92
1, 3151375, Note_off_c, 0, 53, 92
1, 3151625, Note_on_c, 0, 56, 94
1, 3154134, Note_off_c, 0, 56, 94
1, 3154343, Note_on_c, 0, 58, 104
1, 3157020, Note_off_c, 0, 58, 104
1, 3157020, Note_on_c, 0, 60, 109
1, 3157521, Note_on_c, 0, 61, 107
1, 3157521, Note_off_c, 0, 60, 109
1, 3159696, Note_off_c, 0, 61, 107
1, 3160239, Note_on_c, 0, 63, 113
1, 3162623, Note_off_c, 0, 63, 113
1, 3162999, Note_on_c, 0, 65, 111
1, 3165425, Note_off_c, 0, 65, 111
1, 3165717, Note_on_c, 0, 61, 108
1, 3167348, Note_off_c, 0, 61, 108
1, 3167682, Note_on_c, 0, 60, 105
1, 3169606, Note_off_c, 0, 60, 105
1, 3169740, Note_on_c, 0, 58, 101
1, 3171524, Note_off_c, 0, 58, 101
1, 3172072, Note_on_c, 0, 63, 115
1, 3174623, Note_off_c, 0, 63, 115
1, 3174873, Note_on_c, 0, 62, 110
1, 3177257, Note_off_c, 0, 62, 110
1, 3179473, Note_on_c, 0, 68, 105
1, 3182108, Note_off_c, 0, 68, 105
1, 3182860, Note_on_c, 0, 70, 107
1, 3185662, Note_off_c, 0, 70, 107
1, 3186205, Note_on_c, 0, 72, 108
1, 3188129, Note_off_c, 0, 72, 108
1, 3190220, Note_on_c, 0, 68, 103
1, 3192353, Note_off_c, 0, 68, 103
1, 3192980, Note_on_c, 0, 71, 107
1, 3195615, Note_off_c, 0, 71, 107
1, 3196409, Note_on_c, 0, 65, 100
1, 3198667, Note_off_c, 0, 65, 100
1, 3199001, Note_on_c, 0, 64, 101
1, 3201761, Note_off_c, 0, 64, 101
1, 3201928, Note_on_c, 0, 63, 95
1, 3204856, Note_off_c, 0, 63, 95
1, 3207156, Note_on_c, 0, 67, 99
1, 3209623, Note_off_c, 0, 67, 99
1, 3210626, Note_on_c, 0, 65, 93
1, 3216649, Note_off_c, 0, 65, 93
1, 3234635, Note_on_c, 0, 65, 104
1, 3238274, Note_off_c, 0, 65, 104
1, 3238566, Note_on_c, 0, 68, 106
1, 3242832, Note_off_c, 0, 68, 106
1, 3243543, Note_on_c, 0, 70, 114
1, 3247307, Note_off_c, 0, 70, 114
1, 3251343, Note_on_c, 0, 70, 98
1, 3300362, Note_off_c, 0, 70, 98
1, 3312600, Note_on_c, 0, 65, 117
1, 3316615, Note_off_c, 0, 65, 117
1, 3316782, Note_on_c, 0, 68, 117
1, 3321132, Note_off_c, 0, 68, 117
1, 3321801, Note_on_c, 0, 70, 117
1, 3324979, Note_off_c, 0, 70, 117
1, 3326401, Note_on_c, 0, 70, 112
1, 3327823, Note_off_c, 0, 70, 112
1, 3327823, Note_on_c, 0, 71, 112
1, 3331001, Note_off_c, 0, 71, 112
1, 3331168, Note_on_c, 0, 75, 107
1, 3335350, Note_off_c, 0, 75, 107
1, 3335600, Note_on_c, 0, 70, 101
1, 3337273, Note_off_c, 0, 70, 101
1, 3337273, Note_on_c, 0, 71, 113
1, 3338527, Note_off_c, 0, 71, 113
1, 3338861, Note_on_c, 0, 70, 103
1, 3339613, Note_off_c, 0, 70, 103
1, 3339947, Note_on_c, 0, 71, 111
1, 3341452, Note_off_c, 0, 71, 111
1, 3342037, Note_on_c, 0, 68, 108
1, 3345634, Note_off_c, 0, 68, 108
1, 3347223, Note_on_c, 0, 70, 103
1, 3349816, Note_off_c, 0, 70, 103
1, 3350401, Note_on_c, 0, 68, 101
1, 3353036, Note_off_c, 0, 68, 101
1, 3355139, Note_on_c, 0, 63, 104
1, 3356209, Note_off_c, 0, 63, 104
1, 3356548, Note_on_c, 0, 65, 105
1, 3358555, Note_off_c, 0, 65, 105
1, 3358722, Note_on_c, 0, 63, 102
1, 3360186, Note_off_c, 0, 63, 102
1, 3362821, Note_on_c, 0, 61, 101
1, 3364243, Note_off_c, 0, 61, 101
1, 3364493, Note_on_c, 0, 63, 114
1, 3367002, Note_off_c, 0, 63, 114
1, 3367294, Note_on_c, 0, 61, 103
1, 3370347, Note_off_c, 0, 61, 103
1, 3393623, Note_on_c, 0, 44, 120
1, 3397965, Note_off_c, 0, 44, 120
1, 3397965, Note_on_c, 0, 58, 111
1, 3400344, Note_off_c, 0, 58, 111
1, 3400522, Note_on_c, 0, 59, 114
1, 3401295, Note_off_c, 0, 59, 114
1, 3401651, Note_on_c, 0, 60, 106
1, 3420687, Note_off_c, 0, 60, 106
1, 3421519, Note_on_c, 0, 44, 122
1, 3424552, Note_off_c, 0, 44, 122
1, 3425087, Note_on_c, 0, 56, 111
1, 3430797, Note_off_c, 0, 56, 111
1, 3431510, Note_on_c, 0, 58, 104
1, 3434722, Note_off_c, 0, 58, 104
1, 3435078, Note_on_c, 0, 56, 116
1, 3439242, Note_off_c, 0, 56, 116
1, 3439539, Note_on_c, 0, 58, 96
1, 3445012, Note_off_c, 0, 58, 96
1, 3445487, Note_on_c, 0, 60, 103
1, 3448342, Note_off_c, 0, 60, 103
1, 3448579, Note_on_c, 0, 61, 105
1, 3450899, Note_off_c, 0, 61, 105
1, 3450899, Note_on_c, 0, 58, 105
1, 3454200, Note_off_c, 0, 58, 105
1, 3454200, Note_on_c, 0, 63, 115
1, 3456751, Note_off_c, 0, 63, 115
1, 3457001, Note_on_c, 0, 59, 103
1, 3459719, Note_off_c, 0, 59, 103
1, 3459928, Note_on_c, 0, 64, 110
1, 3463985, Note_off_c, 0, 64, 110
1, 3464110, Note_on_c, 0, 60, 103
1, 3466912, Note_on_c, 0, 65, 106
1, 3466912, Note_off_c, 0, 60, 103
1, 3470049, Note_off_c, 0, 65, 106
1, 3471262, Note_on_c, 0, 60, 103
1, 3474524, Note_off_c, 0, 60, 103
1, 3475105, Note_on_c, 0, 68, 111
1, 3477663, Note_off_c, 0, 68, 111
1, 3478078, Note_on_c, 0, 60, 102
1, 3481340, Note_off_c, 0, 60, 102
1, 3481340, Note_on_c, 0, 70, 106
1, 3484477, Note_off_c, 0, 70, 106
1, 3484644, Note_on_c, 0, 67, 99
1, 3487446, Note_off_c, 0, 67, 99
1, 3487571, Note_on_c, 0, 71, 109
1, 3490415, Note_off_c, 0, 71, 109
1, 3490707, Note_on_c, 0, 67, 99
1, 3493342, Note_off_c, 0, 67, 99
1, 3493342, Note_on_c, 0, 73, 103
1, 3494680, Note_off_c, 0, 73, 103
1, 3494889, Note_on_c, 0, 72, 108
1, 3495976, Note_off_c, 0, 72, 108
1, 3496101, Note_on_c, 0, 73, 103
1, 3497063, Note_off_c, 0, 73, 103
1, 3497774, Note_on_c, 0, 77, 102
1, 3499279, Note_off_c, 0, 77, 102
1, 3499739, Note_on_c, 0, 73, 94
1, 3500575, Note_off_c, 0, 73, 94
1, 3500575, Note_on_c, 0, 75, 104
1, 3503586, Note_off_c, 0, 75, 104
1, 3506329, Note_on_c, 0, 76, 105
1, 3509549, Note_off_c, 0, 76, 105
1, 3510654, Note_on_c, 0, 78, 88
1, 3512285, Note_off_c, 0, 78, 88
1, 3512326, Note_on_c, 0, 79, 101
1, 3513664, Note_off_c, 0, 79, 101
1, 3513914, Note_on_c, 0, 77, 104
1, 3515378, Note_off_c, 0, 77, 104
1, 3515838, Note_on_c, 0, 76, 83
1, 3517511, Note_off_c, 0, 76, 83
1, 3517803, Note_on_c, 0, 79, 114
1, 3521065, Note_off_c, 0, 79, 114
1, 3521232, Note_on_c, 0, 80, 112
1, 3522235, Note_off_c, 0, 80, 112
1, 3522569, Note_on_c, 0, 79, 99
1, 3524283, Note_off_c, 0, 79, 99
1, 3524617, Note_on_c, 0, 82, 106
1, 3528046, Note_off_c, 0, 82, 106
1, 3528757, Note_on_c, 0, 85, 98
1, 3530471, Note_off_c, 0, 85, 98
1, 3530721, Note_on_c, 0, 84, 100
1, 3533523, Note_off_c, 0, 84, 100
1, 3533773, Note_on_c, 0, 87, 87
1, 3534944, Note_off_c, 0, 87, 87
1, 3535278, Note_on_c, 0, 87, 110
1, 3538415, Note_off_c, 0, 87, 110
1, 3538916, Note_on_c, 0, 88, 83
1, 3540421, Note_off_c, 0, 88, 83
1, 3540816, Note_on_c, 0, 89, 102
1, 3546705, Note_off_c, 0, 89, 102
1, 3547061, Note_on_c, 0, 88, 106
1, 3549440, Note_off_c, 0, 88, 106
1, 3549856, Note_on_c, 0, 89, 95
1, 3614439, Note_off_c, 0, 89, 95
1, 3616043, Note_on_c, 0, 86, 106
1, 3617757, Note_off_c, 0, 86, 106
1, 3617882, Note_on_c, 0, 87, 108
1, 3619638, Note_off_c, 0, 87, 108
1, 3620349, Note_on_c, 0, 84, 102
1, 3622900, Note_off_c, 0, 84, 102
1, 3626246, Note_on_c, 0, 88, 97
1, 3628546, Note_off_c, 0, 88, 97
1, 3629968, Note_on_c, 0, 84, 97
1, 3632268, Note_off_c, 0, 84, 97
1, 3632660, Note_on_c, 0, 85, 98
1, 3640334, Note_off_c, 0, 85, 98
1, 3657573, Note_on_c, 0, 74, 116
1, 3659204, Note_off_c, 0, 74, 116
1, 3659454, Note_on_c, 0, 76, 124
1, 3660959, Note_off_c, 0, 76, 124
1, 3661335, Note_on_c, 0, 77, 112
1, 3665392, Note_off_c, 0, 77, 112
1, 3665392, Note_on_c, 0, 76, 118
1, 3666730, Note_off_c, 0, 76, 118
1, 3667273, Note_on_c, 0, 74, 89
1, 3668444, Note_off_c, 0, 74, 89
1, 3668444, Note_on_c, 0, 72, 101
1, 3668862, Note_on_c, 0, 70, 97
1, 3668862, Note_off_c, 0, 72, 101
1, 3671037, Note_off_c, 0, 70, 97
1, 3671120, Note_on_c, 0, 72, 88
1, 3671580, Note_off_c, 0, 72, 88
1, 3671580, Note_on_c, 0, 73, 106
1, 3672793, Note_off_c, 0, 73, 106
1, 3672793, Note_on_c, 0, 74, 108
1, 3673294, Note_on_c, 0, 75, 113
1, 3673294, Note_off_c, 0, 74, 108
1, 3679024, Note_off_c, 0, 75, 113
1, 3679149, Note_on_c, 0, 72, 103
1, 3679818, Note_off_c, 0, 72, 103
1, 3679985, Note_on_c, 0, 71, 106
1, 3681156, Note_off_c, 0, 71, 106
1, 3681365, Note_on_c, 0, 72, 105
1, 3682703, Note_off_c, 0, 72, 105
1, 3682828, Note_on_c, 0, 73, 97
1, 3686299, Note_off_c, 0, 73, 97
1, 3687846, Note_on_c, 0, 63, 10
1, 3690355, Note_off_c, 0, 63, 10
1, 3691066, Note_on_c, 0, 68, 105
1, 3692362, Note_off_c, 0, 68, 105
1, 3692552, Note_on_c, 0, 69, 111
1, 3694225, Note_off_c, 0, 69, 111
1, 3694277, Note_on_c, 0, 70, 108
1, 3699087, Note_off_c, 0, 70, 108
1, 3699304, Note_on_c, 0, 67, 94
1, 3701060, Note_off_c, 0, 67, 94
1, 3702247, Note_on_c, 0, 66, 101
1, 3704448, Note_off_c, 0, 66, 101
1, 3704745, Note_on_c, 0, 68, 109
1, 3718249, Note_off_c, 0, 68, 109
1, 3719003, Note_on_c, 0, 66, 110
1, 3721219, Note_off_c, 0, 66, 110
1, 3721637, Note_on_c, 0, 63, 115
1, 3723853, Note_off_c, 0, 63, 115
1, 3724354, Note_on_c, 0, 61, 106
1, 3725483, Note_off_c, 0, 61, 106
1, 3726194, Note_on_c, 0, 58, 94
1, 3730627, Note_off_c, 0, 58, 94
1, 3744895, Note_on_c, 0, 72, 112
1, 3747304, Note_off_c, 0, 72, 112
1, 3747363, Note_on_c, 0, 70, 118
1, 3749861, Note_off_c, 0, 70, 118
1, 3749920, Note_on_c, 0, 67, 113
1, 3751645, Note_off_c, 0, 67, 113
1, 3751645, Note_on_c, 0, 65, 109
1, 3753429, Note_off_c, 0, 65, 109
1, 3754261, Note_on_c, 0, 70, 113
1, 3756789, Note_off_c, 0, 70, 113
1, 3757086, Note_on_c, 0, 67, 114
1, 3758989, Note_off_c, 0, 67, 114
1, 3759107, Note_on_c, 0, 65, 114
1, 3760713, Note_off_c, 0, 65, 114
1, 3760713, Note_on_c, 0, 63, 115
1, 3762229, Note_off_c, 0, 63, 115
1, 3763924, Note_on_c, 0, 70, 108
1, 3765768, Note_off_c, 0, 70, 108
1, 3765857, Note_on_c, 0, 67, 106
1, 3768087, Note_off_c, 0, 67, 106
1, 3768324, Note_on_c, 0, 65, 109
1, 3769573, Note_off_c, 0, 65, 109
1, 3769573, Note_on_c, 0, 63, 117
1, 3771536, Note_off_c, 0, 63, 117
1, 3774748, Note_on_c, 0, 65, 110
1, 3777246, Note_off_c, 0, 65, 110
1, 3777246, Note_on_c, 0, 63, 113
1, 3779298, Note_off_c, 0, 63, 113
1, 3779565, Note_on_c, 0, 61, 103
1, 3781825, Note_off_c, 0, 61, 103
1, 3781914, Note_on_c, 0, 58, 92
1, 3783996, Note_off_c, 0, 58, 92
1, 3783996, Note_on_c, 0, 61, 106
1, 3786286, Note_off_c, 0, 61, 106
1, 3786315, Note_on_c, 0, 62, 111
1, 3787831, Note_off_c, 0, 62, 111
1, 3788247, Note_on_c, 0, 65, 106
1, 3791489, Note_off_c, 0, 65, 106
1, 3791756, Note_on_c, 0, 62, 110
1, 3793035, Note_off_c, 0, 62, 110
1, 3793035, Note_on_c, 0, 63, 113
1, 3793629, Note_off_c, 0, 63, 113
1, 3793896, Note_on_c, 0, 64, 118
1, 3794728, Note_off_c, 0, 64, 118
1, 3795114, Note_on_c, 0, 62, 110
1, 3796749, Note_off_c, 0, 62, 110
1, 3796986, Note_on_c, 0, 61, 104
1, 3798086, Note_off_c, 0, 61, 104
1, 3798383, Note_on_c, 0, 60, 107
1, 3800494, Note_off_c, 0, 60, 107
1, 3803706, Note_on_c, 0, 60, 107
1, 3804806, Note_off_c, 0, 60, 107
1, 3804954, Note_on_c, 0, 63, 114
1, 3805846, Note_off_c, 0, 63, 114
1, 3805994, Note_on_c, 0, 60, 105
1, 3807540, Note_off_c, 0, 60, 105
1, 3807837, Note_on_c, 0, 58, 99
1, 3810216, Note_off_c, 0, 58, 99
1, 3810810, Note_on_c, 0, 55, 103
1, 3812862, Note_off_c, 0, 55, 103
1, 3812980, Note_on_c, 0, 53, 103
1, 3815508, Note_off_c, 0, 53, 103
1, 3816459, Note_on_c, 0, 58, 104
1, 3819522, Note_off_c, 0, 58, 104
1, 3819789, Note_on_c, 0, 56, 98
1, 3822525, Note_off_c, 0, 56, 98
1, 3822703, Note_on_c, 0, 53, 97
1, 3827581, Note_off_c, 0, 53, 97
1, 3833738, Note_on_c, 0, 48, 97
1, 3835998, Note_off_c, 0, 48, 97
1, 3837068, Note_on_c, 0, 51, 96
1, 3844682, Note_off_c, 0, 51, 96
1, 3854943, Note_on_c, 0, 48, 107
1, 3857292, Note_off_c, 0, 48, 107
1, 3857470, Note_on_c, 0, 51, 103
1, 3860147, Note_off_c, 0, 51, 103
1, 3860890, Note_on_c, 0, 53, 103
1, 3862585, Note_off_c, 0, 53, 103
1, 3863001, Note_on_c, 0, 55, 98
1, 3866421, Note_off_c, 0, 55, 98
1, 3868443, Note_on_c, 0, 58, 105
1, 3870614, Note_off_c, 0, 58, 105
1, 3871655, Note_on_c, 0, 60, 109
1, 3873618, Note_off_c, 0, 60, 109
1, 3874976, Note_on_c, 0, 56, 99
1, 3878280, Note_off_c, 0, 56, 99
1, 3879654, Note_on_c, 0, 62, 108
1, 3880962, Note_off_c, 0, 62, 108
1, 3880962, Note_on_c, 0, 63, 108
1, 3883192, Note_off_c, 0, 63, 108
1, 3885513, Note_on_c, 0, 53, 102
1, 3889863, Note_off_c, 0, 53, 102
1, 3908016, Note_on_c, 0, 53, 106
1, 3911027, Note_off_c, 0, 53, 106
1, 3912114, Note_on_c, 0, 52, 107
1, 3915209, Note_off_c, 0, 52, 107
1, 3915543, Note_on_c, 0, 51, 101
1, 3919140, Note_off_c, 0, 51, 101
1, 3921147, Note_on_c, 0, 58, 105
1, 3923907, Note_off_c, 0, 58, 105
1, 3924576, Note_on_c, 0, 55, 96
1, 3926583, Note_off_c, 0, 55, 96
1, 3926583, Note_on_c, 0, 54, 100
1, 3928256, Note_off_c, 0, 54, 100
1, 3940218, Note_on_c, 0, 55, 105
1, 3942727, Note_off_c, 0, 55, 105
1, 3943479, Note_on_c, 0, 58, 108
1, 3946657, Note_off_c, 0, 58, 108
1, 3946991, Note_on_c, 0, 60, 116
1, 3949584, Note_off_c, 0, 60, 116
1, 3950253, Note_on_c, 0, 61, 116
1, 3953264, Note_off_c, 0, 61, 116
1, 3954184, Note_on_c, 0, 63, 118
1, 3958032, Note_off_c, 0, 63, 118
1, 3958952, Note_on_c, 0, 64, 126
1, 3961210, Note_off_c, 0, 64, 126
1, 3961210, Note_on_c, 0, 65, 118
1, 3964890, Note_off_c, 0, 65, 118
1, 3966814, Note_on_c, 0, 63, 119
1, 3970160, Note_off_c, 0, 63, 119
1, 3971749, Note_on_c, 0, 70, 111
1, 3974091, Note_off_c, 0, 70, 111
1, 3975847, Note_on_c, 0, 72, 112
1, 3979360, Note_off_c, 0, 72, 112
1, 3979778, Note_on_c, 0, 67, 99
1, 3986135, Note_off_c, 0, 67, 99
1, 3996341, Note_on_c, 0, 68, 116
1, 3998014, Note_off_c, 0, 68, 116
1, 3998014, Note_on_c, 0, 71, 104
1, 3999352, Note_off_c, 0, 71, 104
1, 3999686, Note_on_c, 0, 71, 106
1, 4001944, Note_off_c, 0, 71, 106
1, 4002445, Note_on_c, 0, 75, 108
1, 4005791, Note_on_c, 0, 71, 104
1, 4005791, Note_off_c, 0, 75, 108
1, 4008802, Note_off_c, 0, 71, 104
1, 4008969, Note_on_c, 0, 67, 85
1, 4011144, Note_off_c, 0, 67, 85
1, 4011729, Note_on_c, 0, 70, 92
1, 4014656, Note_off_c, 0, 70, 92
1, 4015948, Note_on_c, 0, 72, 111
1, 4017851, Note_off_c, 0, 72, 111
1, 4017999, Note_on_c, 0, 73, 99
1, 4018742, Note_off_c, 0, 73, 99
1, 4018860, Note_on_c, 0, 72, 110
1, 4021328, Note_off_c, 0, 72, 110
1, 4021684, Note_on_c, 0, 70, 108
1, 4024361, Note_on_c, 0, 68, 106
1, 4024361, Note_off_c, 0, 70, 108
1, 4027216, Note_off_c, 0, 68, 106
1, 4027691, Note_on_c, 0, 65, 104
1, 4030843, Note_off_c, 0, 65, 104
1, 4031199, Note_on_c, 0, 60, 100
1, 4032983, Note_off_c, 0, 60, 100
1, 4033042, Note_on_c, 0, 63, 116
1, 4036016, Note_off_c, 0, 63, 116
1, 4036491, Note_on_c, 0, 67, 104
1, 4038870, Note_off_c, 0, 67, 104
1, 4039613, Note_on_c, 0, 62, 109
1, 4040951, Note_off_c, 0, 62, 109
1, 4041010, Note_on_c, 0, 63, 104
1, 4041575, Note_off_c, 0, 63, 104
1, 4041783, Note_on_c, 0, 62, 103
1, 4043627, Note_off_c, 0, 62, 103
1, 4044251, Note_on_c, 0, 58, 95
1, 4046749, Note_off_c, 0, 58, 95
1, 4046986, Note_on_c, 0, 60, 101
1, 4049930, Note_off_c, 0, 60, 101
1, 4050110, Note_on_c, 0, 62, 105
1, 4052828, Note_off_c, 0, 62, 105
1, 4053497, Note_on_c, 0, 58, 100
1, 4056592, Note_off_c, 0, 58, 100
1, 4059059, Note_on_c, 0, 56, 95
1, 4062279, Note_off_c, 0, 56, 95
1, 4063241, Note_on_c, 0, 60, 103
1, 4066461, Note_off_c, 0, 60, 103
1, 4067046, Note_on_c, 0, 65, 101
1, 4069932, Note_off_c, 0, 65, 101
1, 4078339, Note_on_c, 0, 70, 109
1, 4081434, Note_off_c, 0, 70, 109
1, 4081768, Note_on_c, 0, 68, 103
1, 4084570, Note_off_c, 0, 68, 103
1, 4084820, Note_on_c, 0, 65, 103
1, 4087915, Note_off_c, 0, 65, 103
1, 4088082, Note_on_c, 0, 64, 101
1, 4091219, Note_off_c, 0, 64, 101
1, 4091720, Note_on_c, 0, 63, 106
1, 4094982, Note_off_c, 0, 63, 106
1, 4099248, Note_on_c, 0, 67, 104
1, 4101674, Note_off_c, 0, 67, 104
1, 4102134, Note_on_c, 0, 66, 105
1, 4104643, Note_off_c, 0, 66, 105
1, 4105186, Note_on_c, 0, 65, 105
1, 4108323, Note_off_c, 0, 65, 105
1, 4108699, Note_on_c, 0, 64, 101
1, 4111961, Note_off_c, 0, 64, 101
1, 4112044, Note_on_c, 0, 63, 106
1, 4115641, Note_off_c, 0, 63, 106
1, 4119321, Note_on_c, 0, 62, 111
1, 4122039, Note_off_c, 0, 62, 111
1, 4122666, Note_on_c, 0, 67, 106
1, 4125844, Note_off_c, 0, 67, 106
1, 4126136, Note_on_c, 0, 65, 104
1, 4129649, Note_off_c, 0, 65, 104
1, 4129774, Note_on_c, 0, 62, 107
1, 4132827, Note_off_c, 0, 62, 107
1, 4133036, Note_on_c, 0, 61, 95
1, 4135922, Note_off_c, 0, 61, 95
1, 4139812, Note_on_c, 0, 65, 108
1, 4143241, Note_off_c, 0, 65, 108
1, 4143575, Note_on_c, 0, 64, 109
1, 4147088, Note_off_c, 0, 64, 109
1, 4147213, Note_on_c, 0, 60, 104
1, 4149597, Note_off_c, 0, 60, 104
1, 4153403, Note_on_c, 0, 63, 105
1, 4156540, Note_off_c, 0, 63, 105
1, 4156916, Note_on_c, 0, 61, 94
1, 4160262, Note_off_c, 0, 61, 94
1, 4161056, Note_on_c, 0, 60, 86
1, 4165155, Note_off_c, 0, 60, 86
1, 4165949, Note_on_c, 0, 58, 108
1, 4170048, Note_off_c, 0, 58, 108
1, 4171386, Note_on_c, 0, 56, 94
1, 4173686, Note_off_c, 0, 56, 94
1, 4173811, Note_on_c, 0, 57, 95
1, 4180043, Note_off_c, 0, 57, 95
1, 4200037, Note_on_c, 0, 69, 103
1, 4206394, Note_off_c, 0, 69, 103
1, 4206937, Note_on_c, 0, 86, 120
1, 4210785, Note_off_c, 0, 86, 120
1, 4215176, Note_on_c, 0, 91, 109
1, 4220488, Note_off_c, 0, 91, 109
1, 4220613, Note_on_c, 0, 66, 112
1, 4222704, Note_off_c, 0, 66, 112
1, 4222704, Note_on_c, 0, 67, 106
1, 4224837, Note_off_c, 0, 67, 106
1, 4225882, Note_on_c, 0, 70, 94
1, 4229102, Note_off_c, 0, 70, 94
1, 4231235, Note_on_c, 0, 63, 98
1, 4233953, Note_off_c, 0, 63, 98
1, 4235458, Note_on_c, 0, 59, 97
1, 4238678, Note_off_c, 0, 59, 97
1, 4241564, Note_on_c, 0, 64, 113
1, 4244826, Note_off_c, 0, 64, 113
1, 4245035, Note_on_c, 0, 60, 96
1, 4247712, Note_off_c, 0, 60, 96
1, 4247879, Note_on_c, 0, 70, 94
1, 4254236, Note_off_c, 0, 70, 94
1, 4279124, Note_on_c, 0, 64, 121
1, 4281842, Note_off_c, 0, 64, 121
1, 4281925, Note_on_c, 0, 65, 114
1, 4285187, Note_off_c, 0, 65, 114
1, 4285396, Note_on_c, 0, 70, 106
1, 4288031, Note_off_c, 0, 70, 106
1, 4289285, Note_on_c, 0, 75, 112
1, 4293342, Note_off_c, 0, 75, 112
1, 4293342, Note_on_c, 0, 78, 110
1, 4296144, Note_off_c, 0, 78, 110
1, 4296394, Note_on_c, 0, 80, 107
1, 4300953, Note_off_c, 0, 80, 107
1, 4301120, Note_on_c, 0, 84, 106
1, 4303169, Note_off_c, 0, 84, 106
1, 4303169, Note_on_c, 0, 83, 92
1, 4305344, Note_off_c, 0, 83, 92
1, 4307393, Note_on_c, 0, 87, 97
1, 4310990, Note_off_c, 0, 87, 97
1, 4311115, Note_on_c, 0, 88, 105
1, 4314419, Note_off_c, 0, 88, 105
1, 4314419, Note_on_c, 0, 89, 105
1, 4317807, Note_off_c, 0, 89, 105
1, 4318001, Note_on_c, 0, 87, 83
1, 4342570, Note_off_c, 0, 87, 83
1, 4343045, Note_on_c, 0, 77, 104
1, 4345959, Note_off_c, 0, 77, 104
1, 4345959, Note_on_c, 0, 78, 112
1, 4347922, Note_off_c, 0, 78, 112
1, 4347922, Note_on_c, 0, 80, 113
1, 4409493, Note_off_c, 0, 80, 113
1, 4410266, Note_on_c, 0, 77, 99
1, 4411991, Note_off_c, 0, 77, 99
1, 4412288, Note_on_c, 0, 79, 111
1, 4418117, Note_off_c, 0, 79, 111
1, 4418117, Note_on_c, 0, 75, 91
1, 4419782, Note_off_c, 0, 75, 91
1, 4419782, Note_on_c, 0, 77, 98
1, 4423767, Note_off_c, 0, 77, 98
1, 4424956, Note_on_c, 0, 77, 96
1, 4427514, Note_off_c, 0, 77, 96
1, 4427811, Note_on_c, 0, 75, 95
1, 4432570, Note_off_c, 0, 75, 95
1, 4433045, Note_on_c, 0, 77, 90
1, 4444883, Note_off_c, 0, 77, 90
1, 4444883, Note_on_c, 0, 75, 85
1, 4448035, Note_off_c, 0, 75, 85
1, 4449343, Note_on_c, 0, 71, 91
1, 4450889, Note_off_c, 0, 71, 91
1, 4450948, Note_on_c, 0, 73, 80
1, 4458979, Note_off_c, 0, 73, 80
1, 4459097, Note_on_c, 0, 72, 90
1, 4463142, Note_off_c, 0, 72, 90
1, 4463320, Note_on_c, 0, 70, 82
1, 4465461, Note_off_c, 0, 70, 82
1, 4467305, Note_on_c, 0, 72, 81
1, 4477299, Note_off_c, 0, 72, 81
1, 4506210, Note_on_c, 0, 67, 113
1, 4508649, Note_off_c, 0, 67, 113
1, 4508708, Note_on_c, 0, 68, 116
1, 4511325, Note_off_c, 0, 68, 116
1, 4511325, Note_on_c, 0, 70, 112
1, 4512276, Note_off_c, 0, 70, 112
1, 4512276, Note_on_c, 0, 71, 110
1, 4514715, Note_off_c, 0, 71, 110
1, 4514774, Note_on_c, 0, 75, 110
1, 4517153, Note_off_c, 0, 75, 110
1, 4517390, Note_on_c, 0, 74, 105
1, 4518341, Note_off_c, 0, 74, 105
1, 4518638, Note_on_c, 0, 71, 110
1, 4520194, Note_off_c, 0, 71, 110
1, 4520194, Note_on_c, 0, 72, 107
1, 4521156, Note_off_c, 0, 72, 107
1, 4521156, Note_on_c, 0, 70, 105
1, 4522536, Note_on_c, 0, 71, 110
1, 4522536, Note_off_c, 0, 70, 105
1, 4524501, Note_off_c, 0, 71, 110
1, 4524501, Note_on_c, 0, 70, 108
1, 4526257, Note_off_c, 0, 70, 108
1, 4526257, Note_on_c, 0, 68, 107
1, 4527804, Note_off_c, 0, 68, 107
1, 4528054, Note_on_c, 0, 67, 108
1, 4529392, Note_off_c, 0, 67, 108
1, 4529392, Note_on_c, 0, 66, 105
1, 4531106, Note_off_c, 0, 66, 105
1, 4531315, Note_on_c, 0, 67, 105
1, 4532862, Note_off_c, 0, 67, 105
1, 4532862, Note_on_c, 0, 64, 109
1, 4534618, Note_off_c, 0, 64, 109
1, 4534743, Note_on_c, 0, 65, 110
1, 4538047, Note_off_c, 0, 65, 110
1, 4538088, Note_on_c, 0, 63, 115
1, 4539761, Note_off_c, 0, 63, 115
1, 4539970, Note_on_c, 0, 62, 108
1, 4541726, Note_off_c, 0, 62, 108
1, 4541976, Note_on_c, 0, 61, 108
1, 4543774, Note_off_c, 0, 61, 108
1, 4543815, Note_on_c, 0, 62, 111
1, 4546492, Note_off_c, 0, 62, 111
1, 4546492, Note_on_c, 0, 61, 104
1, 4547914, Note_off_c, 0, 61, 104
1, 4547997, Note_on_c, 0, 62, 107
1, 4549795, Note_off_c, 0, 62, 107
1, 4550004, Note_on_c, 0, 61, 108
1, 4551802, Note_off_c, 0, 61, 108
1, 4551927, Note_on_c, 0, 62, 102
1, 4553140, Note_off_c, 0, 62, 102
1, 4553275, Note_on_c, 0, 60, 95
1, 4554910, Note_off_c, 0, 60, 95
1, 4554969, Note_on_c, 0, 58, 95
1, 4556783, Note_off_c, 0, 58, 95
1, 4557020, Note_on_c, 0, 59, 93
1, 4557912, Note_off_c, 0, 59, 93
1, 4558328, Note_on_c, 0, 58, 99
1, 4560439, Note_off_c, 0, 58, 99
1, 4560439, Note_on_c, 0, 59, 99
1, 4561569, Note_off_c, 0, 59, 99
1, 4561569, Note_on_c, 0, 58, 98
1, 4563978, Note_off_c, 0, 58, 98
1, 4564215, Note_on_c, 0, 57, 96
1, 4565672, Note_off_c, 0, 57, 96
1, 4565820, Note_on_c, 0, 56, 98
1, 4566742, Note_off_c, 0, 56, 98
1, 4567158, Note_on_c, 0, 55, 96
1, 4568823, Note_off_c, 0, 55, 96
1, 4569120, Note_on_c, 0, 54, 97
1, 4571023, Note_off_c, 0, 54, 97
1, 4571320, Note_on_c, 0, 53, 96
1, 4573134, Note_off_c, 0, 53, 96
1, 4573227, Note_on_c, 0, 51, 111
1, 4574084, Note_off_c, 0, 51, 111
1, 4574084, Note_on_c, 0, 52, 105
1, 4574481, Note_off_c, 0, 52, 105
1, 4574690, Note_on_c, 0, 51, 111
1, 4575463, Note_off_c, 0, 51, 111
1, 4575546, Note_on_c, 0, 52, 101
1, 4576068, Note_off_c, 0, 52, 101
1, 4576193, Note_on_c, 0, 51, 108
1, 4577175, Note_off_c, 0, 51, 108
1, 4577258, Note_on_c, 0, 52, 98
1, 4577780, Note_off_c, 0, 52, 98
1, 4577926, Note_on_c, 0, 51, 101
1, 4578658, Note_off_c, 0, 51, 101
1, 4579076, Note_on_c, 0, 52, 103
1, 4579975, Note_off_c, 0, 52, 103
1, 4580079, Note_on_c, 0, 51, 99
1, 4581041, Note_off_c, 0, 51, 99
1, 4581145, Note_on_c, 0, 52, 100
1, 4581814, Note_off_c, 0, 52, 100
1, 4581981, Note_on_c, 0, 51, 101
1, 4582880, Note_off_c, 0, 51, 101
1, 4583005, Note_on_c, 0, 52, 100
1, 4583904, Note_off_c, 0, 52, 100
1, 4584175, Note_on_c, 0, 51, 94
1, 4585325, Note_off_c, 0, 51, 94
1, 4585450, Note_on_c, 0, 52, 99
1, 4586516, Note_off_c, 0, 52, 99
1, 4586599, Note_on_c, 0, 51, 108
1, 4587456, Note_off_c, 0, 51, 108
1, 4587811, Note_on_c, 0, 52, 103
1, 4588940, Note_off_c, 0, 52, 103
1, 4589023, Note_on_c, 0, 51, 100
1, 4590089, Note_off_c, 0, 51, 100
1, 4595902, Note_on_c, 0, 53, 96
1, 4597091, Note_off_c, 0, 53, 96
1, 4597120, Note_on_c, 0, 49, 93
1, 4598428, Note_off_c, 0, 49, 93
1, 4598576, Note_on_c, 0, 53, 98
1, 4599765, Note_off_c, 0, 53, 98
1, 4599765, Note_on_c, 0, 49, 95
1, 4600925, Note_off_c, 0, 49, 95
1, 4600925, Note_on_c, 0, 53, 99
1, 4602293, Note_off_c, 0, 53, 99
1, 4602382, Note_on_c, 0, 49, 92
1, 4603631, Note_off_c, 0, 49, 92
1, 4603690, Note_on_c, 0, 53, 98
1, 4605058, Note_off_c, 0, 53, 98
1, 4605087, Note_on_c, 0, 49, 93
1, 4605979, Note_off_c, 0, 49, 93
1, 4605979, Note_on_c, 0, 53, 97
1, 4607317, Note_off_c, 0, 53, 97
1, 4607435, Note_on_c, 0, 49, 95
1, 4608505, Note_off_c, 0, 49, 95
1, 4608861, Note_on_c, 0, 53, 93
1, 4610229, Note_off_c, 0, 53, 93
1, 4610229, Note_on_c, 0, 49, 93
1, 4611389, Note_off_c, 0, 49, 93
1, 4611389, Note_on_c, 0, 53, 95
1, 4613024, Note_off_c, 0, 53, 95
1, 4613024, Note_on_c, 0, 49, 95
1, 4613975, Note_off_c, 0, 49, 95
1, 4613975, Note_on_c, 0, 53, 94
1, 4615640, Note_off_c, 0, 53, 94
1, 4615640, Note_on_c, 0, 49, 94
1, 4616710, Note_off_c, 0, 49, 94
1, 4616710, Note_on_c, 0, 53, 97
1, 4618167, Note_off_c, 0, 53, 97
1, 4618167, Note_on_c, 0, 49, 94
1, 4619505, Note_off_c, 0, 49, 94
1, 4619534, Note_on_c, 0, 53, 95
1, 4621050, Note_off_c, 0, 53, 95
1, 4662008, Note_on_c, 0, 46, 116
1, 4663472, Note_off_c, 0, 46, 116
1, 4663673, Note_on_c, 0, 50, 112
1, 4665304, Note_off_c, 0, 50, 112
1, 4665397, Note_on_c, 0, 53, 112
1, 4666407, Note_off_c, 0, 53, 112
1, 4666407, Note_on_c, 0, 55, 106
1, 4667996, Note_off_c, 0, 55, 106
1, 4668037, Note_on_c, 0, 58, 102
1, 4670463, Note_off_c, 0, 58, 102
1, 4670463, Note_on_c, 0, 55, 103
1, 4671730, Note_off_c, 0, 55, 103
1, 4671730, Note_on_c, 0, 57, 102
1, 4672800, Note_off_c, 0, 57, 102
1, 4673156, Note_on_c, 0, 58, 107
1, 4674316, Note_off_c, 0, 58, 107
1, 4674316, Note_on_c, 0, 60, 105
1, 4675743, Note_off_c, 0, 60, 105
1, 4676148, Note_on_c, 0, 62, 105
1, 4677653, Note_off_c, 0, 62, 105
1, 4677675, Note_on_c, 0, 65, 111
1, 4679073, Note_off_c, 0, 65, 111
1, 4679073, Note_on_c, 0, 62, 111
1, 4680530, Note_on_c, 0, 63, 113
1, 4680530, Note_off_c, 0, 62, 111
1, 4681928, Note_off_c, 0, 63, 113
1, 4681957, Note_on_c, 0, 65, 113
1, 4683295, Note_off_c, 0, 65, 113
1, 4683295, Note_on_c, 0, 67, 107
1, 4684425, Note_off_c, 0, 67, 107
1, 4684425, Note_on_c, 0, 70, 109
1, 4686507, Note_off_c, 0, 70, 109
1, 4686507, Note_on_c, 0, 67, 112
1, 4688142, Note_off_c, 0, 67, 112
1, 4688201, Note_on_c, 0, 68, 111
1, 4689390, Note_off_c, 0, 68, 111
1, 4689390, Note_on_c, 0, 71, 108
1, 4691025, Note_off_c, 0, 71, 108
1, 4691025, Note_on_c, 0, 72, 99
1, 4692095, Note_off_c, 0, 72, 99
1, 4692451, Note_on_c, 0, 75, 113
1, 4694890, Note_off_c, 0, 75, 113
1, 4694890, Note_on_c, 0, 74, 111
1, 4695782, Note_off_c, 0, 74, 111
1, 4695782, Note_on_c, 0, 72, 115
1, 4697269, Note_off_c, 0, 72, 115
1, 4697417, Note_on_c, 0, 71, 116
1, 4699826, Note_off_c, 0, 71, 116
1, 4699826, Note_on_c, 0, 68, 103
1, 4700896, Note_off_c, 0, 68, 103
1, 4700925, Note_on_c, 0, 67, 106
1, 4701698, Note_off_c, 0, 67, 106
1, 4701846, Note_on_c, 0, 66, 103
1, 4702827, Note_off_c, 0, 66, 103
1, 4702886, Note_on_c, 0, 64, 105
1, 4704105, Note_off_c, 0, 64, 105
1, 4704194, Note_on_c, 0, 63, 114
1, 4705443, Note_off_c, 0, 63, 114
1, 4705621, Note_on_c, 0, 62, 114
1, 4706602, Note_off_c, 0, 62, 114
1, 4706720, Note_on_c, 0, 61, 103
1, 4708118, Note_off_c, 0, 61, 103
1, 4710051, Note_on_c, 0, 75, 101
1, 4713025, Note_off_c, 0, 75, 101
1, 4715077, Note_on_c, 0, 67, 102
1, 4717783, Note_off_c, 0, 67, 102
1, 4719478, Note_on_c, 0, 72, 99
1, 4721679, Note_off_c, 0, 72, 99
1, 4721708, Note_on_c, 0, 73, 96
1, 4724414, Note_off_c, 0, 73, 96
1, 4724443, Note_on_c, 0, 72, 86
1, 4727060, Note_off_c, 0, 72, 86
1, 4727060, Note_on_c, 0, 70, 101
1, 4730153, Note_off_c, 0, 70, 101
1, 4731223, Note_on_c, 0, 68, 90
1, 4742704, Note_off_c, 0, 68, 90
1, 4747939, Note_on_c, 0, 67, 116
1, 4750199, Note_off_c, 0, 67, 116
1, 4752162, Note_on_c, 0, 70, 107
1, 4754363, Note_off_c, 0, 70, 107
1, 4756147, Note_on_c, 0, 64, 119
1, 4758229, Note_off_c, 0, 64, 119
1, 4759835, Note_on_c, 0, 69, 112
1, 4762274, Note_off_c, 0, 69, 112
1, 4764177, Note_on_c, 0, 67, 108
1, 4766735, Note_off_c, 0, 67, 108
1, 4769114, Note_on_c, 0, 60, 106
1, 4771672, Note_off_c, 0, 60, 106
1, 4772861, Note_on_c, 0, 63, 118
1, 4775657, Note_off_c, 0, 63, 118
1, 4777501, Note_on_c, 0, 67, 107
1, 4780415, Note_off_c, 0, 67, 107
1, 4781366, Note_on_c, 0, 62, 116
1, 4783745, Note_off_c, 0, 62, 116
1, 4784815, Note_on_c, 0, 58, 94
1, 4789217, Note_off_c, 0, 58, 94
1, 4789514, Note_on_c, 0, 60, 103
1, 4792785, Note_off_c, 0, 60, 103
1, 4793439, Note_on_c, 0, 62, 109
1, 4796710, Note_off_c, 0, 62, 109
1, 4797721, Note_on_c, 0, 59, 101
1, 4801409, Note_off_c, 0, 59, 101
1, 4801765, Note_on_c, 0, 55, 96
1, 4805810, Note_off_c, 0, 55, 96
1, 4805988, Note_on_c, 0, 57, 95
1, 4808367, Note_off_c, 0, 57, 95
1, 4811281, Note_on_c, 0, 60, 110
1, 4813839, Note_off_c, 0, 60, 110
1, 4815326, Note_on_c, 0, 61, 110
1, 4816991, Note_off_c, 0, 61, 110
1, 4819073, Note_on_c, 0, 63, 113
1, 4820917, Note_off_c, 0, 63, 113
1, 4823594, Note_on_c, 0, 65, 109
1, 4826687, Note_off_c, 0, 65, 109
1, 4830037, Note_on_c, 0, 65, 102
1, 4840494, Note_off_c, 0, 65, 102
1, 4840744, Note_on_c, 0, 63, 113
1, 4843086, Note_off_c, 0, 63, 113
1, 4843086, Note_on_c, 0, 65, 101
1, 4846181, Note_off_c, 0, 65, 101
1, 4846641, Note_on_c, 0, 60, 102
1, 4848188, Note_off_c, 0, 60, 102
1, 4848355, Note_on_c, 0, 62, 100
1, 4849944, Note_off_c, 0, 62, 100
1, 4851728, Note_on_c, 0, 58, 89
1, 4863387, Note_off_c, 0, 58, 89
1, 4870644, Note_on_c, 0, 58, 97
1, 4871714, Note_off_c, 0, 58, 97
1, 4872070, Note_on_c, 0, 58, 108
1, 4873111, Note_off_c, 0, 58, 108
1, 4873259, Note_on_c, 0, 58, 109
1, 4874835, Note_off_c, 0, 58, 109
1, 4875519, Note_on_c, 0, 58, 107
1, 4877273, Note_off_c, 0, 58, 107
1, 4877544, Note_on_c, 0, 58, 102
1, 4878763, Note_off_c, 0, 58, 102
1, 4879086, Note_on_c, 0, 58, 108
1, 4879918, Note_off_c, 0, 58, 108
1, 4880393, Note_on_c, 0, 58, 112
1, 4881166, Note_off_c, 0, 58, 112
1, 4881344, Note_on_c, 0, 58, 111
1, 4882444, Note_off_c, 0, 58, 111
1, 4883009, Note_on_c, 0, 58, 103
1, 4885299, Note_off_c, 0, 58, 103
1, 4885626, Note_on_c, 0, 58, 102
1, 4887261, Note_off_c, 0, 58, 102
1, 4888599, Note_on_c, 0, 58, 105
1, 4890443, Note_off_c, 0, 58, 105
1, 4890443, Note_on_c, 0, 58, 117
1, 4892465, Note_off_c, 0, 58, 117
1, 4892465, Note_on_c, 0, 58, 104
1, 4894725, Note_off_c, 0, 58, 104
1, 4895081, Note_on_c, 0, 58, 114
1, 4898025, Note_off_c, 0, 58, 114
1, 4898352, Note_on_c, 0, 58, 102
1, 4901385, Note_off_c, 0, 58, 102
1, 4901503, Note_on_c, 0, 58, 106
1, 4905399, Note_off_c, 0, 58, 106
1, 4905666, Note_on_c, 0, 58, 102
1, 4907569, Note_off_c, 0, 58, 102
1, 4907569, Note_on_c, 0, 58, 102
1, 4909829, Note_off_c, 0, 58, 102
1, 4910185, Note_on_c, 0, 58, 102
1, 4915301, Note_off_c, 0, 58, 102
1, 4916133, Note_on_c, 0, 58, 10
1, 4918215, Note_off_c, 0, 58, 10
1, 4918869, Note_on_c, 0, 58, 96
1, 4926513, Note_off_c, 0, 58, 96
1, 4926959, Note_on_c, 0, 58, 102
1, 4929368, Note_off_c, 0, 58, 102
1, 4929576, Note_on_c, 0, 58, 101
1, 4929962, Note_off_c, 0, 58, 101
1, 4929962, Note_on_c, 0, 58, 100
1, 4931895, Note_off_c, 0, 58, 100
1, 4931954, Note_on_c, 0, 62, 111
1, 4934125, Note_off_c, 0, 62, 111
1, 4934184, Note_on_c, 0, 65, 110
1, 4935879, Note_off_c, 0, 65, 110
1, 4935879, Note_on_c, 0, 64, 116
1, 4937366, Note_off_c, 0, 64, 116
1, 4937366, Note_on_c, 0, 63, 112
1, 4939894, Note_off_c, 0, 63, 112
1, 4940221, Note_on_c, 0, 58, 95
1, 4942124, Note_off_c, 0, 58, 95
1, 4942124, Note_on_c, 0, 63, 108
1, 4943343, Note_off_c, 0, 63, 108
1, 4943551, Note_on_c, 0, 63, 114
1, 4947655, Note_off_c, 0, 63, 114
1, 4948249, Note_on_c, 0, 62, 105
1, 4948933, Note_off_c, 0, 62, 105
1, 4949022, Note_on_c, 0, 63, 111
1, 4950420, Note_off_c, 0, 63, 111
1, 4950538, Note_on_c, 0, 62, 107
1, 4951698, Note_off_c, 0, 62, 107
1, 4951876, Note_on_c, 0, 63, 112
1, 4953184, Note_off_c, 0, 63, 112
1, 4953273, Note_on_c, 0, 62, 106
1, 4954433, Note_off_c, 0, 62, 106
1, 4954700, Note_on_c, 0, 61, 101
1, 4956306, Note_off_c, 0, 61, 101
1, 4956633, Note_on_c, 0, 60, 101
1, 4958209, Note_off_c, 0, 60, 101
1, 4962670, Note_on_c, 0, 60, 91
1, 4964008, Note_off_c, 0, 60, 91
1, 4964364, Note_on_c, 0, 58, 100
1, 4965940, Note_on_c, 0, 59, 100
1, 4965940, Note_off_c, 0, 58, 100
1, 4966891, Note_off_c, 0, 59, 100
1, 4966891, Note_on_c, 0, 58, 96
1, 4968854, Note_off_c, 0, 58, 96
1, 4968943, Note_on_c, 0, 57, 97
1, 4970281, Note_off_c, 0, 57, 97
1, 4973552, Note_on_c, 0, 58, 98
1, 4975247, Note_off_c, 0, 58, 98
1, 4975931, Note_on_c, 0, 54, 96
1, 4977596, Note_off_c, 0, 54, 96
1, 4977714, Note_on_c, 0, 56, 95
1, 4979171, Note_off_c, 0, 56, 95
1, 4980182, Note_on_c, 0, 54, 92
1, 4981639, Note_off_c, 0, 54, 92
1, 4981757, Note_on_c, 0, 53, 101
1, 4984225, Note_off_c, 0, 53, 101
1, 5017479, Note_on_c, 0, 50, 99
1, 5019204, Note_off_c, 0, 50, 99
1, 5020810, Note_on_c, 0, 51, 94
1, 5023011, Note_off_c, 0, 51, 94
1, 5026044, Note_on_c, 0, 53, 102
1, 5029583, Note_off_c, 0, 53, 102
1, 5029731, Note_on_c, 0, 51, 90
1, 5031872, Note_off_c, 0, 51, 90
1, 5032266, Note_on_c, 0, 58, 99
1, 5044145, Note_off_c, 0, 58, 99
1, 5044312, Note_on_c, 0, 55, 95
1, 5045274, Note_off_c, 0, 55, 95
1, 5045441, Note_on_c, 0, 56, 92
1, 5055061, Note_off_c, 0, 56, 92
1, 5055061, Note_on_c, 0, 52, 91
1, 5056274, Note_off_c, 0, 52, 91
1, 5056483, Note_on_c, 0, 55, 91
1, 5062799, Note_off_c, 0, 55, 91
1, 5063342, Note_on_c, 0, 53, 101
1, 5066646, Note_off_c, 0, 53, 101
1, 5067189, Note_on_c, 0, 51, 88
1, 5071079, Note_off_c, 0, 51, 88
1, 5072668, Note_on_c, 0, 53, 87
1, 5103997, Note_off_c, 0, 53, 87
1, 5156616, Note_on_c, 0, 64, 111
1, 5162148, Note_off_c, 0, 64, 111
1, 5162148, Note_on_c, 0, 59, 93
1, 5167799, Note_off_c, 0, 59, 93
1, 5169524, Note_on_c, 0, 56, 89
1, 5174104, Note_off_c, 0, 56, 89
1, 5174104, Note_on_c, 0, 58, 102
1, 5177911, Note_off_c, 0, 58, 102
1, 5181544, Note_on_c, 0, 58, 105
1, 5183677, Note_off_c, 0, 58, 105
1, 5183886, Note_on_c, 0, 59, 85
1, 5188989, Note_off_c, 0, 59, 85
1, 5189114, Note_on_c, 0, 63, 112
1, 5193840, Note_off_c, 0, 63, 112
1, 5195178, Note_on_c, 0, 65, 108
1, 5199862, Note_off_c, 0, 65, 108
1, 5201702, Note_on_c, 0, 70, 98
1, 5207683, Note_off_c, 0, 70, 98
1, 5209607, Note_on_c, 0, 77, 101
1, 5213120, Note_off_c, 0, 77, 101
1, 5229140, Note_on_c, 0, 44, 98
1, 5232904, Note_off_c, 0, 44, 98
1, 5233531, Note_on_c, 0, 51, 89
1, 5236375, Note_off_c, 0, 51, 89
1, 5236416, Note_on_c, 0, 56, 82
1, 5240766, Note_off_c, 0, 56, 82
1, 5249048, Note_on_c, 0, 57, 103
1, 5250344, Note_off_c, 0, 57, 103
1, 5250344, Note_on_c, 0, 58, 90
1, 5255196, Note_off_c, 0, 58, 90
1, 5255196, Note_on_c, 0, 63, 99
1, 5260215, Note_off_c, 0, 63, 99
1, 5262180, Note_on_c, 0, 65, 110
1, 5265944, Note_off_c, 0, 65, 110
1, 5265944, Note_on_c, 0, 66, 110
1, 5268453, Note_off_c, 0, 66, 110
1, 5268829, Note_on_c, 0, 65, 107
1, 5271338, Note_off_c, 0, 65, 107
1, 5275813, Note_on_c, 0, 65, 97
1, 5282505, Note_off_c, 0, 65, 97
1, 5282588, Note_on_c, 0, 61, 100
1, 5286812, Note_off_c, 0, 61, 100
1, 5288192, Note_on_c, 0, 58, 97
1, 5294257, Note_off_c, 0, 58, 97
1, 5309817, Note_on_c, 0, 64, 113
1, 5315045, Note_off_c, 0, 64, 113
1, 5315588, Note_on_c, 0, 63, 115
1, 5318599, Note_off_c, 0, 63, 115
1, 5319142, Note_on_c, 0, 61, 92
1, 5322028, Note_off_c, 0, 61, 92
1, 5322529, Note_on_c, 0, 64, 109
1, 5326670, Note_off_c, 0, 64, 109
1, 5326670, Note_on_c, 0, 61, 92
1, 5329054, Note_off_c, 0, 61, 92
1, 5329304, Note_on_c, 0, 63, 111
1, 5332733, Note_off_c, 0, 63, 111
1, 5333276, Note_on_c, 0, 61, 79
1, 5336245, Note_off_c, 0, 61, 79
1, 5336370, Note_on_c, 0, 67, 95
1, 5340469, Note_off_c, 0, 67, 95
1, 5340552, Note_on_c, 0, 73, 99
1, 5343019, Note_off_c, 0, 73, 99
1, 5343144, Note_on_c, 0, 72, 103
1, 5346657, Note_off_c, 0, 72, 103
1, 5346657, Note_on_c, 0, 70, 103
1, 5348999, Note_off_c, 0, 70, 103
1, 5349124, Note_on_c, 0, 68, 94
1, 5353683, Note_off_c, 0, 68, 94
1, 5355439, Note_on_c, 0, 67, 103
1, 5358617, Note_off_c, 0, 67, 103
1, 5358826, Note_on_c, 0, 65, 100
1, 5362381, Note_off_c, 0, 65, 100
1, 5362924, Note_on_c, 0, 72, 97
1, 5365391, Note_off_c, 0, 72, 97
1, 5365391, Note_on_c, 0, 70, 93
1, 5368235, Note_off_c, 0, 70, 93
1, 5368946, Note_on_c, 0, 76, 101
1, 5371957, Note_off_c, 0, 76, 101
1, 5373241, Note_on_c, 0, 78, 107
1, 5374311, Note_off_c, 0, 78, 107
1, 5375803, Note_on_c, 0, 81, 102
1, 5379693, Note_off_c, 0, 81, 102
1, 5380571, Note_on_c, 0, 84, 90
1, 5382662, Note_off_c, 0, 84, 90
1, 5384167, Note_on_c, 0, 84, 99
1, 5388517, Note_off_c, 0, 84, 99
1, 5389562, Note_on_c, 0, 75, 107
1, 5393452, Note_off_c, 0, 75, 107
1, 5393744, Note_on_c, 0, 70, 104
1, 5396253, Note_off_c, 0, 70, 104
1, 5396420, Note_on_c, 0, 67, 102
1, 5399473, Note_off_c, 0, 67, 102
1, 5399640, Note_on_c, 0, 63, 102
1, 5401982, Note_off_c, 0, 63, 102
1, 5402609, Note_on_c, 0, 70, 95
1, 5404365, Note_off_c, 0, 70, 95
1, 5404574, Note_on_c, 0, 69, 95
1, 5406121, Note_off_c, 0, 69, 95
1, 5406497, Note_on_c, 0, 70, 84
1, 5413482, Note_off_c, 0, 70, 84
1, 5424943, Note_on_c, 0, 79, 109
1, 5426992, Note_off_c, 0, 79, 109
1, 5427368, Note_on_c, 0, 75, 95
1, 5429250, Note_off_c, 0, 75, 95
1, 5429375, Note_on_c, 0, 71, 98
1, 5431466, Note_off_c, 0, 71, 98
1, 5431466, Note_on_c, 0, 68, 92
1, 5432762, Note_off_c, 0, 68, 92
1, 5432887, Note_on_c, 0, 66, 101
1, 5435898, Note_off_c, 0, 66, 101
1, 5435898, Note_on_c, 0, 71, 86
1, 5437696, Note_off_c, 0, 71, 86
1, 5438574, Note_on_c, 0, 75, 108
1, 5442380, Note_off_c, 0, 75, 108
1, 5442421, Note_on_c, 0, 71, 111
1, 5445516, Note_off_c, 0, 71, 111
1, 5447199, Note_on_c, 0, 64, 106
1, 5447883, Note_off_c, 0, 64, 106
1, 5448061, Note_on_c, 0, 64, 113
1, 5448655, Note_off_c, 0, 64, 113
1, 5448773, Note_on_c, 0, 62, 110
1, 5449486, Note_off_c, 0, 62, 110
1, 5449664, Note_on_c, 0, 61, 102
1, 5450437, Note_off_c, 0, 61, 102
1, 5450645, Note_on_c, 0, 56, 98
1, 5452905, Note_off_c, 0, 56, 98
1, 5456414, Note_on_c, 0, 58, 100
1, 5458525, Note_off_c, 0, 58, 100
1, 5460488, Note_on_c, 0, 56, 94
1, 5463789, Note_off_c, 0, 56, 94
1, 5464770, Note_on_c, 0, 53, 97
1, 5465662, Note_off_c, 0, 53, 97
1, 5465780, Note_on_c, 0, 55, 78
1, 5492490, Note_off_c, 0, 55, 78
1, 5509001, Note_on_c, 0, 54, 105
1, 5510674, Note_off_c, 0, 54, 105
1, 5510715, Note_on_c, 0, 55, 105
1, 5513475, Note_off_c, 0, 55, 105
1, 5513475, Note_on_c, 0, 58, 104
1, 5516403, Note_off_c, 0, 58, 104
1, 5518117, Note_on_c, 0, 60, 116
1, 5521086, Note_off_c, 0, 60, 116
1, 5521169, Note_on_c, 0, 58, 100
1, 5524264, Note_off_c, 0, 58, 100
1, 5524389, Note_on_c, 0, 62, 118
1, 5526062, Note_off_c, 0, 62, 118
1, 5526145, Note_on_c, 0, 63, 119
1, 5543629, Note_off_c, 0, 63, 119
1, 5543670, Note_on_c, 0, 61, 100
1, 5547518, Note_off_c, 0, 61, 100
1, 5547685, Note_on_c, 0, 58, 90
1, 5551826, Note_off_c, 0, 58, 90
1, 5553457, Note_on_c, 0, 60, 115
1, 5554795, Note_off_c, 0, 60, 115
1, 5554962, Note_on_c, 0, 61, 108
1, 5558266, Note_off_c, 0, 61, 108
1, 5558642, Note_on_c, 0, 60, 113
1, 5560106, Note_off_c, 0, 60, 113
1, 5560189, Note_on_c, 0, 61, 115
1, 5563995, Note_off_c, 0, 61, 115
1, 5564245, Note_on_c, 0, 58, 92
1, 5572401, Note_off_c, 0, 58, 92
1, 5614815, Note_on_c, 0, 72, 109
1, 5617241, Note_off_c, 0, 72, 109
1, 5619708, Note_on_c, 0, 69, 110
1, 5622845, Note_off_c, 0, 69, 110
1, 5624769, Note_on_c, 0, 58, 97
1, 5628282, Note_off_c, 0, 58, 97
1, 5629955, Note_on_c, 0, 72, 107
1, 5633343, Note_off_c, 0, 72, 107
1, 5634012, Note_on_c, 0, 69, 112
1, 5634974, Note_off_c, 0, 69, 112
1, 5635141, Note_on_c, 0, 71, 105
1, 5636646, Note_off_c, 0, 71, 105
1, 5636646, Note_on_c, 0, 69, 106
1, 5637984, Note_off_c, 0, 69, 106
1, 5638193, Note_on_c, 0, 65, 106
1, 5642124, Note_off_c, 0, 65, 106
1, 5642960, Note_on_c, 0, 62, 113
1, 5646599, Note_off_c, 0, 62, 113
1, 5647728, Note_on_c, 0, 58, 101
1, 5653416, Note_off_c, 0, 58, 101
1, 5653792, Note_on_c, 0, 57, 102
1, 5657096, Note_off_c, 0, 57, 102
1, 5657807, Note_on_c, 0, 53, 100
1, 5661278, Note_off_c, 0, 53, 100
1, 5663285, Note_on_c, 0, 55, 99
1, 5667091, Note_off_c, 0, 55, 99
1, 5667551, Note_on_c, 0, 56, 103
1, 5669475, Note_off_c, 0, 56, 103
1, 5669558, Note_on_c, 0, 57, 98
1, 5678007, Note_off_c, 0, 57, 98
1, 5678132, Note_on_c, 0, 52, 106
1, 5679303, Note_off_c, 0, 52, 106
1, 5679512, Note_on_c, 0, 51, 98
1, 5684531, Note_off_c, 0, 51, 98
1, 5685953, Note_on_c, 0, 49, 96
1, 5686789, Note_off_c, 0, 49, 96
1, 5686914, Note_on_c, 0, 50, 102
1, 5689967, Note_off_c, 0, 50, 102
1, 5690134, Note_on_c, 0, 51, 94
1, 5693187, Note_off_c, 0, 51, 94
1, 5695236, Note_on_c, 0, 53, 106
1, 5697787, Note_on_c, 0, 54, 99
1, 5697787, Note_off_c, 0, 53, 106
1, 5699376, Note_off_c, 0, 54, 99
1, 5699626, Note_on_c, 0, 55, 98
1, 5702093, Note_off_c, 0, 55, 98
1, 5702469, Note_on_c, 0, 54, 93
1, 5703263, Note_off_c, 0, 54, 93
1, 5703263, Note_on_c, 0, 51, 99
1, 5705563, Note_off_c, 0, 51, 99
1, 5705772, Note_on_c, 0, 50, 91
1, 5715727, Note_off_c, 0, 50, 91
1, 5725180, Note_on_c, 0, 50, 97
1, 5727229, Note_off_c, 0, 50, 97
1, 5727396, Note_on_c, 0, 53, 96
1, 5728274, Note_off_c, 0, 53, 96
1, 5728274, Note_on_c, 0, 55, 100
1, 5729445, Note_off_c, 0, 55, 100
1, 5730658, Note_on_c, 0, 58, 105
1, 5733125, Note_off_c, 0, 58, 105
1, 5733417, Note_on_c, 0, 59, 102
1, 5739649, Note_off_c, 0, 59, 102
1, 5739751, Note_on_c, 0, 61, 112
1, 5741297, Note_off_c, 0, 61, 112
1, 5742962, Note_on_c, 0, 64, 113
1, 5745341, Note_off_c, 0, 64, 113
1, 5747363, Note_on_c, 0, 63, 116
1, 5749445, Note_off_c, 0, 63, 116
1, 5750694, Note_on_c, 0, 60, 104
1, 5752359, Note_off_c, 0, 60, 104
1, 5756711, Note_on_c, 0, 66, 111
1, 5758760, Note_off_c, 0, 66, 111
1, 5759429, Note_on_c, 0, 66, 111
1, 5761813, Note_off_c, 0, 66, 111
1, 5762022, Note_on_c, 0, 65, 108
1, 5764740, Note_off_c, 0, 65, 108
1, 5765158, Note_on_c, 0, 64, 115
1, 5766998, Note_off_c, 0, 64, 115
1, 5767248, Note_on_c, 0, 63, 109
1, 5769506, Note_off_c, 0, 63, 109
1, 5770007, Note_on_c, 0, 62, 111
1, 5772474, Note_off_c, 0, 62, 111
1, 5772975, Note_on_c, 0, 61, 103
1, 5775066, Note_off_c, 0, 61, 103
1, 5775275, Note_on_c, 0, 60, 90
1, 5776989, Note_off_c, 0, 60, 90
1, 5778662, Note_on_c, 0, 65, 108
1, 5781339, Note_off_c, 0, 65, 108
1, 5781757, Note_on_c, 0, 60, 96
1, 5783722, Note_off_c, 0, 60, 96
1, 5789536, Note_on_c, 0, 58, 99
1, 5793007, Note_off_c, 0, 58, 99
1, 5793425, Note_on_c, 0, 56, 93
1, 5797105, Note_off_c, 0, 56, 93
1, 5801664, Note_on_c, 0, 55, 100
1, 5804968, Note_off_c, 0, 55, 100
1, 5805762, Note_on_c, 0, 53, 97
1, 5809108, Note_off_c, 0, 53, 97
1, 5822869, Note_on_c, 0, 51, 104
1, 5824207, Note_off_c, 0, 51, 104
1, 5824248, Note_on_c, 0, 56, 97
1, 5825335, Note_off_c, 0, 56, 97
1, 5825460, Note_on_c, 0, 56, 107
1, 5828137, Note_off_c, 0, 56, 107
1, 5829601, Note_on_c, 0, 58, 110
1, 5832989, Note_off_c, 0, 58, 110
1, 5833783, Note_on_c, 0, 60, 110
1, 5838049, Note_off_c, 0, 60, 110
1, 5838467, Note_on_c, 0, 58, 98
1, 5842775, Note_off_c, 0, 58, 98
1, 5842942, Note_on_c, 0, 60, 114
1, 5844531, Note_off_c, 0, 60, 114
1, 5844698, Note_on_c, 0, 61, 116
1, 5849884, Note_off_c, 0, 61, 116
1, 5853983, Note_on_c, 0, 58, 86
1, 5854903, Note_off_c, 0, 58, 86
1, 5854986, Note_on_c, 0, 60, 107
1, 5858499, Note_off_c, 0, 60, 107
1, 5858749, Note_on_c, 0, 58, 93
1, 5865274, Note_off_c, 0, 58, 93
1, 5891416, Note_on_c, 0, 76, 116
1, 5892880, Note_off_c, 0, 76, 116
1, 5892880, Note_on_c, 0, 77, 107
1, 5895264, Note_off_c, 0, 77, 107
1, 5895264, Note_on_c, 0, 80, 103
1, 5895891, Note_off_c, 0, 80, 103
1, 5897940, Note_on_c, 0, 75, 110
1, 5899403, Note_off_c, 0, 75, 110
1, 5899403, Note_on_c, 0, 76, 119
1, 5903544, Note_off_c, 0, 76, 119
1, 5904045, Note_on_c, 0, 73, 104
1, 5905592, Note_off_c, 0, 73, 104
1, 5905759, Note_on_c, 0, 76, 100
1, 5907850, Note_off_c, 0, 76, 100
1, 5908310, Note_on_c, 0, 72, 105
1, 5909523, Note_off_c, 0, 72, 105
1, 5909690, Note_on_c, 0, 73, 112
1, 5911948, Note_off_c, 0, 73, 112
1, 5912890, Note_on_c, 0, 70, 107
1, 5914377, Note_off_c, 0, 70, 107
1, 5916102, Note_on_c, 0, 68, 109
1, 5918065, Note_off_c, 0, 68, 109
1, 5919671, Note_on_c, 0, 65, 109
1, 5921753, Note_off_c, 0, 65, 109
1, 5923656, Note_on_c, 0, 64, 112
1, 5925916, Note_off_c, 0, 64, 112
1, 5927547, Note_on_c, 0, 63, 109
1, 5930098, Note_off_c, 0, 63, 109
1, 5931864, Note_on_c, 0, 72, 101
1, 5933291, Note_off_c, 0, 72, 101
1, 5935785, Note_on_c, 0, 66, 102
1, 5937249, Note_off_c, 0, 66, 102
1, 5937416, Note_on_c, 0, 67, 97
1, 5939214, Note_off_c, 0, 67, 97
1, 5939773, Note_on_c, 0, 70, 106
1, 5941319, Note_off_c, 0, 70, 106
1, 5942925, Note_on_c, 0, 68, 101
1, 5944828, Note_off_c, 0, 68, 101
1, 5947029, Note_on_c, 0, 60, 102
1, 5948694, Note_off_c, 0, 60, 102
1, 5950300, Note_on_c, 0, 65, 108
1, 5952382, Note_off_c, 0, 65, 108
1, 5954880, Note_on_c, 0, 73, 102
1, 5956486, Note_off_c, 0, 73, 102
1, 5957913, Note_on_c, 0, 72, 109
1, 5960709, Note_off_c, 0, 72, 109
1, 5961712, Note_on_c, 0, 70, 96
1, 5964012, Note_off_c, 0, 70, 96
1, 5964639, Note_on_c, 0, 71, 108
1, 5967483, Note_off_c, 0, 71, 108
1, 5968026, Note_on_c, 0, 64, 103
1, 5971037, Note_off_c, 0, 64, 103
1, 5971371, Note_on_c, 0, 68, 90
1, 5974173, Note_off_c, 0, 68, 90
1, 5975093, Note_on_c, 0, 68, 99
1, 5977058, Note_off_c, 0, 68, 99
1, 5977559, Note_on_c, 0, 67, 92
1, 5980487, Note_off_c, 0, 67, 92
1, 5981030, Note_on_c, 0, 65, 98
1, 5982201, Note_off_c, 0, 65, 98
1, 5982201, Note_on_c, 0, 66, 103
1, 5984668, Note_off_c, 0, 66, 103
1, 5984793, Note_on_c, 0, 65, 102
1, 5987009, Note_off_c, 0, 65, 102
1, 5987134, Note_on_c, 0, 64, 112
1, 5989601, Note_off_c, 0, 64, 112
1, 5990019, Note_on_c, 0, 63, 111
1, 5992654, Note_off_c, 0, 63, 111
1, 5993114, Note_on_c, 0, 61, 100
1, 5995079, Note_off_c, 0, 61, 100
1, 5995329, Note_on_c, 0, 62, 101
1, 5998968, Note_off_c, 0, 62, 101
1, 5999260, Note_on_c, 0, 65, 101
1, 6001978, Note_off_c, 0, 65, 101
1, 6001978, Note_on_c, 0, 62, 105
1, 6002981, Note_on_c, 0, 63, 111
1, 6002981, Note_off_c, 0, 62, 105
1, 6004528, Note_off_c, 0, 63, 111
1, 6004695, Note_on_c, 0, 62, 102
1, 6006117, Note_off_c, 0, 62, 102
1, 6006367, Note_on_c, 0, 58, 94
1, 6009629, Note_off_c, 0, 58, 94
1, 6009796, Note_on_c, 0, 60, 99
1, 6012807, Note_off_c, 0, 60, 99
1, 6012848, Note_on_c, 0, 62, 103
1, 6014981, Note_off_c, 0, 62, 103
1, 6014981, Note_on_c, 0, 58, 94
1, 6019582, Note_off_c, 0, 58, 94
1, 6025898, Note_on_c, 0, 59, 98
1, 6027111, Note_off_c, 0, 59, 98
1, 6028073, Note_on_c, 0, 68, 98
1, 6030038, Note_off_c, 0, 68, 98
1, 6030247, Note_on_c, 0, 71, 101
1, 6031041, Note_off_c, 0, 71, 101
1, 6031417, Note_on_c, 0, 74, 105
1, 6033759, Note_off_c, 0, 74, 105
1, 6034302, Note_on_c, 0, 71, 103
1, 6037857, Note_off_c, 0, 71, 103
1, 6038902, Note_on_c, 0, 59, 93
1, 6039529, Note_off_c, 0, 59, 93
1, 6039779, Note_on_c, 0, 66, 87
1, 6040280, Note_off_c, 0, 66, 87
1, 6040740, Note_on_c, 0, 68, 93
1, 6041785, Note_off_c, 0, 68, 93
1, 6042161, Note_on_c, 0, 71, 92
1, 6043206, Note_off_c, 0, 71, 92
1, 6043415, Note_on_c, 0, 72, 93
1, 6045422, Note_off_c, 0, 72, 93
1, 6046174, Note_on_c, 0, 70, 102
1, 6047470, Note_off_c, 0, 70, 102
1, 6047971, Note_on_c, 0, 70, 100
1, 6049895, Note_off_c, 0, 70, 100
1, 6050229, Note_on_c, 0, 71, 103
1, 6051693, Note_off_c, 0, 71, 103
1, 6051734, Note_on_c, 0, 72, 100
1, 6052696, Note_off_c, 0, 72, 100
1, 6052863, Note_on_c, 0, 72, 97
1, 6053992, Note_off_c, 0, 72, 97
1, 6053992, Note_on_c, 0, 71, 100
1, 6055497, Note_off_c, 0, 71, 100
1, 6055497, Note_on_c, 0, 69, 97
1, 6057002, Note_off_c, 0, 69, 97
1, 6057169, Note_on_c, 0, 67, 96
1, 6058047, Note_off_c, 0, 67, 96
1, 6058256, Note_on_c, 0, 65, 102
1, 6059259, Note_off_c, 0, 65, 102
1, 6059635, Note_on_c, 0, 63, 107
1, 6061559, Note_off_c, 0, 63, 107
1, 6061559, Note_on_c, 0, 59, 100
1, 6063064, Note_off_c, 0, 59, 100
1, 6063273, Note_on_c, 0, 57, 101
1, 6064318, Note_off_c, 0, 57, 101
1, 6064568, Note_on_c, 0, 55, 98
1, 6065655, Note_off_c, 0, 55, 98
1, 6065864, Note_on_c, 0, 53, 100
1, 6067955, Note_off_c, 0, 53, 100
1, 6068205, Note_on_c, 0, 55, 97
1, 6069167, Note_off_c, 0, 55, 97
1, 6069585, Note_on_c, 0, 58, 96
1, 6071341, Note_off_c, 0, 58, 96
1, 6071382, Note_on_c, 0, 60, 101
1, 6072260, Note_off_c, 0, 60, 101
1, 6072845, Note_on_c, 0, 67, 97
1, 6074099, Note_off_c, 0, 67, 97
1, 6074182, Note_on_c, 0, 69, 91
1, 6075395, Note_off_c, 0, 69, 91
1, 6075478, Note_on_c, 0, 73, 107
1, 6077736, Note_off_c, 0, 73, 107
1, 6078196, Note_on_c, 0, 71, 107
1, 6090158, Note_off_c, 0, 71, 107
1, 6090224, Note_on_c, 0, 72, 107
1, 6093436, Note_off_c, 0, 72, 107
1, 6093792, Note_on_c, 0, 70, 100
1, 6095814, Note_off_c, 0, 70, 100
1, 6096349, Note_on_c, 0, 67, 98
1, 6099323, Note_off_c, 0, 67, 98
1, 6101029, Note_on_c, 0, 70, 95
1, 6112155, Note_off_c, 0, 70, 95
1, 6123448, Note_on_c, 0, 67, 106
1, 6125037, Note_off_c, 0, 67, 106
1, 6125371, Note_on_c, 0, 70, 107
1, 6128466, Note_off_c, 0, 70, 107
1, 6128466, Note_on_c, 0, 71, 112
1, 6131226, Note_off_c, 0, 71, 112
1, 6131811, Note_on_c, 0, 73, 111
1, 6134404, Note_off_c, 0, 73, 111
1, 6134571, Note_on_c, 0, 71, 110
1, 6145948, Note_off_c, 0, 71, 110
1, 6145948, Note_on_c, 0, 67, 62
1, 6148708, Note_on_c, 0, 70, 98
1, 6148708, Note_off_c, 0, 67, 62
1, 6150130, Note_off_c, 0, 70, 98
1, 6150130, Note_on_c, 0, 71, 108
1, 6151384, Note_off_c, 0, 71, 108
1, 6151718, Note_on_c, 0, 72, 111
1, 6157574, Note_off_c, 0, 72, 111
1, 6158328, Note_on_c, 0, 72, 111
1, 6160350, Note_off_c, 0, 72, 111
1, 6161004, Note_on_c, 0, 73, 113
1, 6163800, Note_off_c, 0, 73, 113
1, 6164216, Note_on_c, 0, 71, 109
1, 6166179, Note_off_c, 0, 71, 109
1, 6166476, Note_on_c, 0, 72, 110
1, 6167546, Note_off_c, 0, 72, 110
1, 6167664, Note_on_c, 0, 73, 110
1, 6185689, Note_off_c, 0, 73, 110
1, 6185986, Note_on_c, 0, 70, 105
1, 6187889, Note_off_c, 0, 70, 105
1, 6188959, Note_on_c, 0, 66, 107
1, 6189732, Note_off_c, 0, 66, 107
1, 6189910, Note_on_c, 0, 65, 111
1, 6191575, Note_off_c, 0, 65, 111
1, 6191575, Note_on_c, 0, 64, 116
1, 6193359, Note_off_c, 0, 64, 116
1, 6193596, Note_on_c, 0, 63, 112
1, 6195707, Note_off_c, 0, 63, 112
1, 6196093, Note_on_c, 0, 62, 108
1, 6206444, Note_off_c, 0, 62, 108
1, 6206533, Note_on_c, 0, 61, 102
1, 6215753, Note_off_c, 0, 61, 102
1, 6226907, Note_on_c, 0, 61, 114
1, 6229524, Note_off_c, 0, 61, 114
1, 6230565, Note_on_c, 0, 62, 122
1, 6234461, Note_off_c, 0, 62, 122
1, 6235591, Note_on_c, 0, 65, 114
1, 6237673, Note_off_c, 0, 65, 114
1, 6240231, Note_on_c, 0, 72, 103
1, 6242313, Note_off_c, 0, 72, 103
1, 6244276, Note_on_c, 0, 65, 114
1, 6246596, Note_off_c, 0, 65, 114
1, 6247904, Note_on_c, 0, 70, 109
1, 6250283, Note_off_c, 0, 70, 109
1, 6251294, Note_on_c, 0, 68, 109
1, 6254863, Note_off_c, 0, 68, 109
1, 6254863, Note_on_c, 0, 58, 115
1, 6258015, Note_off_c, 0, 58, 115
1, 6258847, Note_on_c, 0, 63, 119
1, 6263308, Note_off_c, 0, 63, 119
1, 6263605, Note_on_c, 0, 67, 114
1, 6267114, Note_off_c, 0, 67, 114
1, 6267887, Note_on_c, 0, 65, 114
1, 6272705, Note_off_c, 0, 65, 114
1, 6272764, Note_on_c, 0, 62, 107
1, 6273537, Note_off_c, 0, 62, 107
1, 6273774, Note_on_c, 0, 58, 107
1, 6277224, Note_off_c, 0, 58, 107
1, 6277699, Note_on_c, 0, 63, 115
1, 6281565, Note_off_c, 0, 63, 115
1, 6282516, Note_on_c, 0, 61, 110
1, 6285966, Note_off_c, 0, 61, 110
1, 6287869, Note_on_c, 0, 56, 102
1, 6291378, Note_off_c, 0, 56, 102
1, 6291615, Note_on_c, 0, 60, 107
1, 6295779, Note_off_c, 0, 60, 107
1, 6296671, Note_on_c, 0, 58, 102
1, 6301370, Note_off_c, 0, 58, 102
1, 6301370, Note_on_c, 0, 53, 100
1, 6304939, Note_off_c, 0, 53, 100
1, 6305652, Note_on_c, 0, 56, 99
1, 6307079, Note_off_c, 0, 56, 99
1, 6307138, Note_on_c, 0, 58, 104
1, 6312075, Note_off_c, 0, 58, 104
1, 6312075, Note_on_c, 0, 56, 98
1, 6315644, Note_off_c, 0, 56, 98
1, 6315822, Note_on_c, 0, 48, 93
1, 6319867, Note_off_c, 0, 48, 93
1, 6320461, Note_on_c, 0, 56, 104
1, 6321353, Note_off_c, 0, 56, 104
1, 6321888, Note_on_c, 0, 57, 99
1, 6325945, Note_off_c, 0, 57, 99
1, 6326063, Note_on_c, 0, 53, 95
1, 6334094, Note_off_c, 0, 53, 95
1, 6338946, Note_on_c, 0, 51, 102
1, 6341288, Note_off_c, 0, 51, 102
1, 6343123, Note_on_c, 0, 63, 98
1, 6344907, Note_off_c, 0, 63, 98
1, 6346933, Note_on_c, 0, 59, 93
1, 6350781, Note_off_c, 0, 59, 93
1, 6351282, Note_on_c, 0, 52, 96
1, 6355172, Note_off_c, 0, 52, 96
1, 6356594, Note_on_c, 0, 58, 105
1, 6359647, Note_off_c, 0, 58, 105
1, 6360023, Note_on_c, 0, 56, 94
1, 6363578, Note_off_c, 0, 56, 94
1, 6364247, Note_on_c, 0, 46, 109
1, 6368597, Note_off_c, 0, 46, 109
1, 6368931, Note_on_c, 0, 48, 90
1, 6371189, Note_off_c, 0, 48, 90
1, 6371607, Note_on_c, 0, 49, 100
1, 6377463, Note_off_c, 0, 49, 100
1, 6379554, Note_on_c, 0, 51, 102
1, 6384155, Note_off_c, 0, 51, 102
1, 6385660, Note_on_c, 0, 51, 94
1, 6389591, Note_off_c, 0, 51, 94
1, 6390845, Note_on_c, 0, 51, 97
1, 6394860, Note_off_c, 0, 51, 97
1, 6394943, Note_on_c, 0, 48, 89
1, 6398121, Note_off_c, 0, 48, 89
1, 6398121, Note_on_c, 0, 51, 90
1, 6448315, Note_off_c, 0, 51, 90
1, 6457684, Note_on_c, 0, 53, 111
1, 6460361, Note_off_c, 0, 53, 111
1, 6460361, Note_on_c, 0, 55, 101
1, 6463958, Note_off_c, 0, 55, 101
1, 6464208, Note_on_c, 0, 58, 109
1, 6468692, Note_off_c, 0, 58, 109
1, 6468692, Note_on_c, 0, 60, 107
1, 6493439, Note_off_c, 0, 60, 107
1, 6493905, Note_on_c, 0, 58, 109
1, 6497959, Note_off_c, 0, 58, 109
1, 6497959, Note_on_c, 0, 55, 95
1, 6501885, Note_off_c, 0, 55, 95
1, 6503273, Note_on_c, 0, 52, 106
1, 6507037, Note_off_c, 0, 52, 106
1, 6517945, Note_on_c, 0, 52, 102
1, 6521584, Note_off_c, 0, 52, 102
1, 6521871, Note_on_c, 0, 51, 100
1, 6526154, Note_off_c, 0, 51, 100
1, 6560576, Note_on_c, 0, 50, 123
1, 6562249, Note_off_c, 0, 50, 123
1, 6562750, Note_on_c, 0, 52, 117
1, 6565134, Note_on_c, 0, 50, 110
1, 6565134, Note_off_c, 0, 52, 117
1, 6567058, Note_off_c, 0, 50, 110
1, 6567099, Note_on_c, 0, 51, 102
1, 6568939, Note_off_c, 0, 51, 102
1, 6569315, Note_on_c, 0, 55, 102
1, 6571071, Note_off_c, 0, 55, 102
1, 6571112, Note_on_c, 0, 58, 114
1, 6574249, Note_off_c, 0, 58, 114
1, 6574249, Note_on_c, 0, 55, 104
1, 6575378, Note_off_c, 0, 55, 104
1, 6575587, Note_on_c, 0, 56, 111
1, 6577636, Note_off_c, 0, 56, 111
1, 6578096, Note_on_c, 0, 60, 105
1, 6579894, Note_off_c, 0, 60, 105
1, 6580479, Note_on_c, 0, 63, 108
1, 6582235, Note_off_c, 0, 63, 108
1, 6582736, Note_on_c, 0, 67, 100
1, 6584576, Note_off_c, 0, 67, 100
1, 6584659, Note_on_c, 0, 70, 112
1, 6587001, Note_off_c, 0, 70, 112
1, 6587126, Note_on_c, 0, 67, 97
1, 6588506, Note_off_c, 0, 67, 97
1, 6588631, Note_on_c, 0, 68, 105
1, 6590220, Note_off_c, 0, 68, 105
1, 6590303, Note_on_c, 0, 67, 104
1, 6592143, Note_off_c, 0, 67, 104
1, 6592310, Note_on_c, 0, 65, 108
1, 6593606, Note_off_c, 0, 65, 108
1, 6593731, Note_on_c, 0, 64, 110
1, 6595278, Note_off_c, 0, 64, 110
1, 6595612, Note_on_c, 0, 63, 107
1, 6597828, Note_off_c, 0, 63, 107
1, 6598037, Note_on_c, 0, 62, 104
1, 6599501, Note_off_c, 0, 62, 104
1, 6599751, Note_on_c, 0, 60, 100
1, 6601507, Note_off_c, 0, 60, 100
1, 6601507, Note_on_c, 0, 58, 101
1, 6603431, Note_off_c, 0, 58, 101
1, 6603556, Note_on_c, 0, 55, 110
1, 6605480, Note_off_c, 0, 55, 110
1, 6606316, Note_on_c, 0, 56, 103
1, 6608742, Note_off_c, 0, 56, 103
1, 6609118, Note_on_c, 0, 54, 96
1, 6610372, Note_off_c, 0, 54, 96
1, 6610497, Note_on_c, 0, 55, 102
1, 6611961, Note_off_c, 0, 55, 102
1, 6612337, Note_on_c, 0, 53, 98
1, 6613466, Note_off_c, 0, 53, 98
1, 6613758, Note_on_c, 0, 52, 100
1, 6615138, Note_off_c, 0, 52, 100
1, 6615305, Note_on_c, 0, 51, 97
1, 6617103, Note_off_c, 0, 51, 97
1, 6617270, Note_on_c, 0, 50, 107
1, 6618399, Note_off_c, 0, 50, 107
1, 6618399, Note_on_c, 0, 51, 104
1, 6619862, Note_off_c, 0, 51, 104
1, 6619862, Note_on_c, 0, 55, 97
1, 6621618, Note_off_c, 0, 55, 97
1, 6622287, Note_on_c, 0, 58, 105
1, 6624754, Note_off_c, 0, 58, 105
1, 6624921, Note_on_c, 0, 55, 104
1, 6626175, Note_off_c, 0, 55, 104
1, 6626216, Note_on_c, 0, 56, 101
1, 6628181, Note_off_c, 0, 56, 101
1, 6628724, Note_on_c, 0, 58, 90
1, 6629476, Note_off_c, 0, 58, 90
1, 6629476, Note_on_c, 0, 60, 106
1, 6631232, Note_off_c, 0, 60, 106
1, 6631482, Note_on_c, 0, 62, 83
1, 6633657, Note_off_c, 0, 62, 83
1, 6633657, Note_on_c, 0, 79, 116
1, 6637128, Note_off_c, 0, 79, 116
1, 6638424, Note_on_c, 0, 67, 89
1, 6642941, Note_off_c, 0, 67, 89
1, 6653394, Note_on_c, 0, 66, 102
1, 6654137, Note_off_c, 0, 66, 102
1, 6654137, Note_on_c, 0, 67, 89
1, 6655237, Note_off_c, 0, 67, 89
1, 6655772, Note_on_c, 0, 72, 82
1, 6657277, Note_off_c, 0, 72, 82
1, 6657745, Note_on_c, 0, 79, 117
1, 6659041, Note_off_c, 0, 79, 117
1, 6659041, Note_on_c, 0, 80, 93
1, 6661676, Note_off_c, 0, 80, 93
1, 6661867, Note_on_c, 0, 84, 112
1, 6666447, Note_off_c, 0, 84, 112
1, 6666803, Note_on_c, 0, 75, 109
1, 6670193, Note_off_c, 0, 75, 109
1, 6672989, Note_on_c, 0, 70, 94
1, 6674743, Note_off_c, 0, 70, 94
1, 6676825, Note_on_c, 0, 63, 110
1, 6679204, Note_off_c, 0, 63, 110
1, 6679888, Note_on_c, 0, 70, 103
1, 6682059, Note_off_c, 0, 70, 103
1, 6684379, Note_on_c, 0, 67, 103
1, 6686490, Note_off_c, 0, 67, 103
1, 6687917, Note_on_c, 0, 68, 104
1, 6690534, Note_off_c, 0, 68, 104
1, 6691785, Note_on_c, 0, 60, 105
1, 6693960, Note_off_c, 0, 60, 105
1, 6695214, Note_on_c, 0, 63, 116
1, 6698685, Note_off_c, 0, 63, 116
1, 6698894, Note_on_c, 0, 66, 106
1, 6701194, Note_off_c, 0, 66, 106
1, 6701570, Note_on_c, 0, 67, 106
1, 6703954, Note_off_c, 0, 67, 106
1, 6704497, Note_on_c, 0, 63, 109
1, 6706128, Note_off_c, 0, 63, 109
1, 6706504, Note_on_c, 0, 60, 103
1, 6709599, Note_off_c, 0, 60, 103
1, 6709682, Note_on_c, 0, 64, 85
1, 6710560, Note_off_c, 0, 64, 85
1, 6711020, Note_on_c, 0, 65, 102
1, 6713111, Note_off_c, 0, 65, 102
1, 6713780, Note_on_c, 0, 72, 90
1, 6715955, Note_off_c, 0, 72, 90
1, 6716289, Note_on_c, 0, 73, 93
1, 6718924, Note_off_c, 0, 73, 93
1, 6719091, Note_on_c, 0, 67, 99
1, 6720931, Note_off_c, 0, 67, 99
1, 6722436, Note_on_c, 0, 70, 102
1, 6725322, Note_off_c, 0, 70, 102
1, 6726911, Note_on_c, 0, 68, 95
1, 6729462, Note_off_c, 0, 68, 95
1, 6730214, Note_on_c, 0, 60, 100
1, 6733894, Note_off_c, 0, 60, 100
1, 6746819, Note_on_c, 0, 57, 96
1, 6748073, Note_off_c, 0, 57, 96
1, 6748282, Note_on_c, 0, 60, 109
1, 6749787, Note_off_c, 0, 60, 109
1, 6749787, Note_on_c, 0, 59, 104
1, 6750749, Note_off_c, 0, 59, 104
1, 6750916, Note_on_c, 0, 58, 95
1, 6754262, Note_off_c, 0, 58, 95
1, 6754889, Note_on_c, 0, 70, 107
1, 6758026, Note_off_c, 0, 70, 107
1, 6759113, Note_on_c, 0, 68, 111
1, 6762501, Note_off_c, 0, 68, 111
1, 6763044, Note_on_c, 0, 58, 113
1, 6765386, Note_off_c, 0, 58, 113
1, 6765971, Note_on_c, 0, 63, 116
1, 6769568, Note_off_c, 0, 63, 116
1, 6769902, Note_on_c, 0, 65, 113
1, 6771909, Note_off_c, 0, 65, 113
1, 6772243, Note_on_c, 0, 66, 110
1, 6773539, Note_off_c, 0, 66, 110
1, 6773706, Note_on_c, 0, 67, 112
1, 6777554, Note_off_c, 0, 67, 112
1, 6777804, Note_on_c, 0, 63, 116
1, 6779100, Note_off_c, 0, 63, 116
1, 6779100, Note_on_c, 0, 62, 112
1, 6782529, Note_off_c, 0, 62, 112
1, 6784285, Note_on_c, 0, 65, 114
1, 6788091, Note_off_c, 0, 65, 114
1, 6789429, Note_on_c, 0, 65, 114
1, 6794406, Note_off_c, 0, 65, 114
1, 6794656, Note_on_c, 0, 63, 90
1, 6797960, Note_off_c, 0, 63, 90
1, 6798001, Note_on_c, 0, 65, 110
1, 6811344, Note_off_c, 0, 65, 110
1, 6819584, Note_on_c, 0, 68, 112
1, 6823055, Note_off_c, 0, 68, 112
1, 6824393, Note_on_c, 0, 65, 106
1, 6829245, Note_off_c, 0, 65, 106
1, 6829830, Note_on_c, 0, 64, 115
1, 6834222, Note_off_c, 0, 64, 115
1, 6835393, Note_on_c, 0, 63, 120
1, 6839952, Note_off_c, 0, 63, 120
1, 6841332, Note_on_c, 0, 60, 114
1, 6843130, Note_off_c, 0, 60, 114
1, 6843130, Note_on_c, 0, 61, 101
1, 6846267, Note_off_c, 0, 61, 101
1, 6847312, Note_on_c, 0, 58, 108
1, 6851285, Note_off_c, 0, 58, 108
1, 6851703, Note_on_c, 0, 56, 100
1, 6854338, Note_off_c, 0, 56, 100
1, 6855300, Note_on_c, 0, 58, 101
1, 6865171, Note_off_c, 0, 58, 101
1, 6869019, Note_on_c, 0, 58, 114
1, 6876297, Note_off_c, 0, 58, 114
1, 6876380, Note_on_c, 0, 56, 106
1, 6897294, Note_off_c, 0, 56, 106
1, 6898297, Note_on_c, 0, 55, 93
1, 6916366, Note_off_c, 0, 55, 93
1, 6917286, Note_on_c, 0, 53, 98
1, 6918791, Note_off_c, 0, 53, 98
1, 6919543, Note_on_c, 0, 54, 91
1, 6936609, Note_off_c, 0, 54, 91
1, 6937445, Note_on_c, 0, 53, 95
1, 6943970, Note_off_c, 0, 53, 95
1, 6958314, Note_on_c, 0, 52, 97
1, 6977707, Note_off_c, 0, 52, 97
1, 6977707, Note_on_c, 0, 51, 88
1, 6992222, Note_off_c, 0, 51, 88
1, 7003406, Note_on_c, 0, 49, 98
1, 7007808, Note_off_c, 0, 49, 98
1, 7008164, Note_on_c, 0, 50, 92
1, 7010900, Note_off_c, 0, 50, 92
1, 7013279, Note_on_c, 0, 58, 83
1, 7051828, Note_off_c, 0, 58, 83
1, 7051828, End_track
0, 0, End_of_file
