0, 0, Header, 1, 1, 20160
1, 0, Start_track
1, 0, Title_t, "Melody"
1, 0, Tempo, 909090
1, 0, Key_signature, -5, "major"
1, 0, Time_signature, 4, 2, 24, 8
1, 129867, Note_on_c, 0, 46, 93
1, 132967, Note_off_c, 0, 46, 93
1, 133057, Note_on_c, 0, 48, 93
1, 136813, Note_off_c, 0, 48, 93
1, 137084, Note_on_c, 0, 49, 95
1, 140953, Note_off_c, 0, 49, 95
1, 141247, Note_on_c, 0, 51, 94
1, 145048, Note_off_c, 0, 51, 94
1, 145477, Note_on_c, 0, 53, 98
1, 150545, Note_off_c, 0, 53, 98
1, 151314, Note_on_c, 0, 54, 98
1, 156925, Note_off_c, 0, 54, 98
1, 157988, Note_on_c, 0, 56, 98
1, 162445, Note_off_c, 0, 56, 98
1, 163033, Note_on_c, 0, 58, 96
1, 167558, Note_off_c, 0, 58, 96
1, 167739, Note_on_c, 0, 60, 103
1, 171540, Note_off_c, 0, 60, 103
1, 171721, Note_on_c, 0, 61, 106
1, 175703, Note_off_c, 0, 61, 106
1, 175884, Note_on_c, 0, 63, 111
1, 180047, Note_off_c, 0, 63, 111
1, 180228, Note_on_c, 0, 65, 105
1, 184934, Note_off_c, 0, 65, 105
1, 186201, Note_on_c, 0, 68, 110
1, 190726, Note_off_c, 0, 68, 110
1, 191631, Note_on_c, 0, 60, 102
1, 195975, Note_off_c, 0, 60, 102
1, 196880, Note_on_c, 0, 70, 106
1, 201586, Note_off_c, 0, 70, 106
1, 201586, Note_on_c, 0, 68, 104
1, 205387, Note_off_c, 0, 68, 104
1, 206473, Note_on_c, 0, 61, 99
1, 209731, Note_off_c, 0, 61, 99
1, 210093, Note_on_c, 0, 66, 104
1, 214437, Note_off_c, 0, 66, 104
1, 214618, Note_on_c, 0, 65, 103
1, 218600, Note_off_c, 0, 65, 103
1, 218962, Note_on_c, 0, 61, 93
1, 222582, Note_off_c, 0, 61, 93
1, 223555, Note_on_c, 0, 63, 104
1, 227899, Note_off_c, 0, 63, 104
1, 229460, Note_on_c, 0, 56, 95
1, 233804, Note_off_c, 0, 56, 95
1, 236338, Note_on_c, 0, 58, 88
1, 249191, Note_off_c, 0, 58, 88
1, 265708, Note_on_c, 0, 70, 102
1, 268266, Note_off_c, 0, 70, 102
1, 268394, Note_on_c, 0, 71, 112
1, 270147, Note_off_c, 0, 71, 112
1, 270388, Note_on_c, 0, 70, 111
1, 272769, Note_off_c, 0, 70, 111
1, 272901, Note_on_c, 0, 66, 101
1, 275616, Note_off_c, 0, 66, 101
1, 275616, Note_on_c, 0, 63, 109
1, 277969, Note_off_c, 0, 63, 109
1, 278190, Note_on_c, 0, 59, 98
1, 282293, Note_off_c, 0, 59, 98
1, 282550, Note_on_c, 0, 57, 87
1, 284078, Note_off_c, 0, 57, 87
1, 287018, Note_on_c, 0, 56, 102
1, 290457, Note_off_c, 0, 56, 102
1, 291044, Note_on_c, 0, 58, 99
1, 294342, Note_off_c, 0, 58, 99
1, 294981, Note_on_c, 0, 54, 91
1, 297696, Note_off_c, 0, 54, 91
1, 302402, Note_on_c, 0, 56, 95
1, 309281, Note_off_c, 0, 56, 95
1, 310548, Note_on_c, 0, 54, 92
1, 312901, Note_off_c, 0, 54, 92
1, 313444, Note_on_c, 0, 53, 90
1, 316702, Note_off_c, 0, 53, 90
1, 318379, Note_on_c, 0, 49, 90
1, 321822, Note_off_c, 0, 49, 90
1, 323688, Note_on_c, 0, 51, 94
1, 326777, Note_off_c, 0, 51, 94
1, 327199, Note_on_c, 0, 46, 91
1, 333172, Note_off_c, 0, 46, 91
1, 333534, Note_on_c, 0, 51, 92
1, 338240, Note_off_c, 0, 51, 92
1, 338421, Note_on_c, 0, 58, 93
1, 344032, Note_off_c, 0, 58, 93
1, 344575, Note_on_c, 0, 63, 107
1, 349824, Note_off_c, 0, 63, 107
1, 350005, Note_on_c, 0, 70, 97
1, 358151, Note_off_c, 0, 70, 97
1, 358513, Note_on_c, 0, 68, 82
1, 372271, Note_off_c, 0, 68, 82
1, 397433, Note_on_c, 0, 72, 102
1, 399605, Note_off_c, 0, 72, 102
1, 399786, Note_on_c, 0, 73, 103
1, 403587, Note_off_c, 0, 73, 103
1, 404395, Note_on_c, 0, 72, 101
1, 409101, Note_off_c, 0, 72, 101
1, 409527, Note_on_c, 0, 70, 106
1, 413871, Note_off_c, 0, 70, 106
1, 414337, Note_on_c, 0, 68, 107
1, 419936, Note_off_c, 0, 68, 107
1, 420237, Note_on_c, 0, 72, 105
1, 424400, Note_off_c, 0, 72, 105
1, 424581, Note_on_c, 0, 68, 107
1, 428563, Note_off_c, 0, 68, 107
1, 428925, Note_on_c, 0, 70, 106
1, 432907, Note_off_c, 0, 70, 106
1, 433450, Note_on_c, 0, 66, 108
1, 437794, Note_off_c, 0, 66, 108
1, 438518, Note_on_c, 0, 68, 108
1, 442681, Note_off_c, 0, 68, 108
1, 443586, Note_on_c, 0, 65, 102
1, 448111, Note_off_c, 0, 65, 102
1, 448292, Note_on_c, 0, 71, 103
1, 452093, Note_off_c, 0, 71, 103
1, 452636, Note_on_c, 0, 64, 110
1, 456256, Note_off_c, 0, 64, 110
1, 456980, Note_on_c, 0, 68, 106
1, 460419, Note_off_c, 0, 68, 106
1, 461143, Note_on_c, 0, 61, 100
1, 464401, Note_off_c, 0, 61, 100
1, 464984, Note_on_c, 0, 66, 102
1, 468781, Note_off_c, 0, 66, 102
1, 469022, Note_on_c, 0, 59, 92
1, 471375, Note_off_c, 0, 59, 92
1, 471459, Note_on_c, 0, 64, 105
1, 475260, Note_off_c, 0, 64, 105
1, 475260, Note_on_c, 0, 58, 94
1, 476889, Note_off_c, 0, 58, 94
1, 477613, Note_on_c, 0, 63, 109
1, 481595, Note_off_c, 0, 63, 109
1, 481957, Note_on_c, 0, 65, 107
1, 484491, Note_off_c, 0, 65, 107
1, 485034, Note_on_c, 0, 61, 96
1, 488473, Note_off_c, 0, 61, 96
1, 489016, Note_on_c, 0, 58, 96
1, 491188, Note_off_c, 0, 58, 96
1, 491912, Note_on_c, 0, 63, 108
1, 495351, Note_off_c, 0, 63, 108
1, 495351, Note_on_c, 0, 60, 96
1, 498428, Note_off_c, 0, 60, 96
1, 498428, Note_on_c, 0, 56, 92
1, 502591, Note_off_c, 0, 56, 92
1, 505849, Note_on_c, 0, 58, 101
1, 509288, Note_off_c, 0, 58, 101
1, 509650, Note_on_c, 0, 55, 98
1, 511460, Note_on_c, 0, 56, 94
1, 511460, Note_off_c, 0, 55, 98
1, 513270, Note_off_c, 0, 56, 94
1, 513619, Note_on_c, 0, 53, 93
1, 516153, Note_off_c, 0, 53, 93
1, 516346, Note_on_c, 0, 48, 87
1, 519061, Note_off_c, 0, 48, 87
1, 519423, Note_on_c, 0, 51, 100
1, 523948, Note_off_c, 0, 51, 100
1, 524269, Note_on_c, 0, 53, 92
1, 536397, Note_off_c, 0, 53, 92
1, 551281, Note_on_c, 0, 61, 107
1, 553996, Note_off_c, 0, 61, 107
1, 555444, Note_on_c, 0, 58, 104
1, 558340, Note_off_c, 0, 58, 104
1, 559039, Note_on_c, 0, 54, 104
1, 562305, Note_off_c, 0, 54, 104
1, 564412, Note_on_c, 0, 71, 108
1, 566005, Note_off_c, 0, 71, 108
1, 566198, Note_on_c, 0, 73, 110
1, 570542, Note_off_c, 0, 73, 110
1, 571446, Note_on_c, 0, 71, 108
1, 573027, Note_off_c, 0, 71, 108
1, 573179, Note_on_c, 0, 73, 107
1, 580601, Note_off_c, 0, 73, 107
1, 580880, Note_on_c, 0, 70, 99
1, 582509, Note_off_c, 0, 70, 99
1, 582591, Note_on_c, 0, 66, 91
1, 587116, Note_off_c, 0, 66, 91
1, 587449, Note_on_c, 0, 75, 100
1, 590763, Note_off_c, 0, 75, 100
1, 590915, Note_on_c, 0, 77, 103
1, 598337, Note_off_c, 0, 77, 103
1, 598518, Note_on_c, 0, 73, 105
1, 602319, Note_off_c, 0, 73, 105
1, 604310, Note_on_c, 0, 61, 101
1, 607387, Note_off_c, 0, 61, 101
1, 610125, Note_on_c, 0, 65, 102
1, 613926, Note_off_c, 0, 65, 102
1, 614265, Note_on_c, 0, 63, 102
1, 617704, Note_off_c, 0, 63, 102
1, 618971, Note_on_c, 0, 56, 90
1, 622410, Note_off_c, 0, 56, 90
1, 625261, Note_on_c, 0, 60, 98
1, 629062, Note_off_c, 0, 60, 98
1, 631098, Note_on_c, 0, 53, 88
1, 634899, Note_off_c, 0, 53, 88
1, 638157, Note_on_c, 0, 56, 97
1, 643225, Note_off_c, 0, 56, 97
1, 644492, Note_on_c, 0, 58, 90
1, 648565, Note_off_c, 0, 58, 90
1, 650330, Note_on_c, 0, 53, 97
1, 653927, Note_off_c, 0, 53, 97
1, 654447, Note_on_c, 0, 46, 91
1, 659696, Note_off_c, 0, 46, 91
1, 660216, Note_on_c, 0, 51, 92
1, 663836, Note_off_c, 0, 51, 92
1, 665849, Note_on_c, 0, 58, 94
1, 669831, Note_off_c, 0, 58, 94
1, 670193, Note_on_c, 0, 56, 99
1, 673994, Note_off_c, 0, 56, 99
1, 674265, Note_on_c, 0, 63, 105
1, 677523, Note_off_c, 0, 63, 105
1, 677794, Note_on_c, 0, 61, 95
1, 681233, Note_off_c, 0, 61, 95
1, 681414, Note_on_c, 0, 66, 104
1, 684310, Note_off_c, 0, 66, 104
1, 685486, Note_on_c, 0, 63, 100
1, 688201, Note_off_c, 0, 63, 100
1, 689151, Note_on_c, 0, 68, 99
1, 692409, Note_off_c, 0, 68, 99
1, 693789, Note_on_c, 0, 66, 91
1, 696685, Note_off_c, 0, 66, 91
1, 697341, Note_on_c, 0, 70, 98
1, 700418, Note_off_c, 0, 70, 98
1, 701119, Note_on_c, 0, 67, 95
1, 703811, Note_off_c, 0, 67, 95
1, 703993, Note_on_c, 0, 65, 95
1, 705666, Note_off_c, 0, 65, 95
1, 705666, Note_on_c, 0, 66, 96
1, 707854, Note_off_c, 0, 66, 96
1, 708111, Note_on_c, 0, 65, 103
1, 709784, Note_off_c, 0, 65, 103
1, 710298, Note_on_c, 0, 63, 95
1, 712486, Note_off_c, 0, 63, 95
1, 715189, Note_on_c, 0, 65, 98
1, 718536, Note_off_c, 0, 65, 98
1, 719050, Note_on_c, 0, 61, 89
1, 722139, Note_off_c, 0, 61, 89
1, 722847, Note_on_c, 0, 58, 94
1, 724391, Note_off_c, 0, 58, 94
1, 724761, Note_on_c, 0, 63, 100
1, 727931, Note_off_c, 0, 63, 100
1, 728059, Note_on_c, 0, 60, 92
1, 731277, Note_off_c, 0, 60, 92
1, 731405, Note_on_c, 0, 56, 91
1, 735009, Note_off_c, 0, 56, 91
1, 737390, Note_on_c, 0, 51, 88
1, 739433, Note_off_c, 0, 51, 88
1, 740350, Note_on_c, 0, 58, 87
1, 744018, Note_off_c, 0, 58, 87
1, 744532, Note_on_c, 0, 55, 87
1, 747106, Note_off_c, 0, 55, 87
1, 747492, Note_on_c, 0, 48, 95
1, 755183, Note_off_c, 0, 48, 95
1, 768017, Note_on_c, 0, 52, 104
1, 769284, Note_off_c, 0, 52, 104
1, 769374, Note_on_c, 0, 51, 100
1, 770822, Note_off_c, 0, 51, 100
1, 770912, Note_on_c, 0, 50, 101
1, 772722, Note_off_c, 0, 50, 101
1, 776740, Note_on_c, 0, 59, 100
1, 781950, Note_off_c, 0, 59, 100
1, 782182, Note_on_c, 0, 57, 96
1, 784162, Note_off_c, 0, 57, 96
1, 784738, Note_on_c, 0, 56, 92
1, 786524, Note_off_c, 0, 56, 92
1, 786839, Note_on_c, 0, 54, 87
1, 788196, Note_off_c, 0, 54, 87
1, 788286, Note_on_c, 0, 53, 92
1, 790729, Note_off_c, 0, 53, 92
1, 792516, Note_on_c, 0, 60, 88
1, 801182, Note_off_c, 0, 60, 88
1, 801860, Note_on_c, 0, 58, 94
1, 804484, Note_off_c, 0, 58, 94
1, 804981, Note_on_c, 0, 56, 89
1, 806859, Note_off_c, 0, 56, 89
1, 806888, Note_on_c, 0, 63, 98
1, 815094, Note_off_c, 0, 63, 98
1, 815480, Note_on_c, 0, 62, 93
1, 816896, Note_off_c, 0, 62, 93
1, 817250, Note_on_c, 0, 61, 90
1, 819406, Note_off_c, 0, 61, 90
1, 819687, Note_on_c, 0, 59, 84
1, 823217, Note_off_c, 0, 59, 84
1, 825664, Note_on_c, 0, 65, 102
1, 827739, Note_off_c, 0, 65, 102
1, 828827, Note_on_c, 0, 70, 103
1, 832809, Note_off_c, 0, 70, 103
1, 833171, Note_on_c, 0, 68, 100
1, 836157, Note_off_c, 0, 68, 100
1, 836428, Note_on_c, 0, 66, 98
1, 839505, Note_off_c, 0, 66, 98
1, 839867, Note_on_c, 0, 65, 97
1, 843035, Note_off_c, 0, 65, 97
1, 843306, Note_on_c, 0, 60, 91
1, 845840, Note_off_c, 0, 60, 91
1, 846021, Note_on_c, 0, 58, 85
1, 848464, Note_off_c, 0, 58, 85
1, 851269, Note_on_c, 0, 51, 97
1, 854255, Note_off_c, 0, 51, 97
1, 855341, Note_on_c, 0, 48, 89
1, 863125, Note_off_c, 0, 48, 89
1, 882495, Note_on_c, 0, 73, 116
1, 885459, Note_off_c, 0, 73, 116
1, 885773, Note_on_c, 0, 75, 114
1, 888363, Note_off_c, 0, 75, 114
1, 888668, Note_on_c, 0, 73, 107
1, 889601, Note_off_c, 0, 73, 107
1, 889938, Note_on_c, 0, 75, 113
1, 893124, Note_off_c, 0, 75, 113
1, 893735, Note_on_c, 0, 73, 108
1, 894877, Note_off_c, 0, 73, 108
1, 895134, Note_on_c, 0, 75, 116
1, 898046, Note_off_c, 0, 75, 116
1, 899461, Note_on_c, 0, 73, 111
1, 902810, Note_off_c, 0, 73, 111
1, 904529, Note_on_c, 0, 73, 108
1, 907651, Note_off_c, 0, 73, 108
1, 909099, Note_on_c, 0, 70, 103
1, 911723, Note_off_c, 0, 70, 103
1, 913058, Note_on_c, 0, 61, 107
1, 916180, Note_off_c, 0, 61, 107
1, 918285, Note_on_c, 0, 65, 109
1, 922533, Note_off_c, 0, 65, 109
1, 923627, Note_on_c, 0, 70, 112
1, 925284, Note_off_c, 0, 70, 112
1, 925428, Note_on_c, 0, 72, 108
1, 927391, Note_off_c, 0, 72, 108
1, 929595, Note_on_c, 0, 70, 110
1, 930817, Note_off_c, 0, 70, 110
1, 931058, Note_on_c, 0, 72, 108
1, 934115, Note_off_c, 0, 72, 108
1, 935402, Note_on_c, 0, 68, 106
1, 939006, Note_off_c, 0, 68, 106
1, 939714, Note_on_c, 0, 68, 106
1, 942739, Note_off_c, 0, 68, 106
1, 943286, Note_on_c, 0, 58, 99
1, 944862, Note_off_c, 0, 58, 99
1, 944926, Note_on_c, 0, 59, 101
1, 947420, Note_off_c, 0, 59, 101
1, 948373, Note_on_c, 0, 59, 102
1, 952604, Note_off_c, 0, 59, 102
1, 952943, Note_on_c, 0, 69, 109
1, 954481, Note_off_c, 0, 69, 109
1, 954843, Note_on_c, 0, 70, 106
1, 958011, Note_off_c, 0, 70, 106
1, 958649, Note_on_c, 0, 69, 110
1, 960354, Note_off_c, 0, 69, 110
1, 960498, Note_on_c, 0, 70, 107
1, 963845, Note_off_c, 0, 70, 107
1, 964102, Note_on_c, 0, 61, 100
1, 967706, Note_off_c, 0, 61, 100
1, 968607, Note_on_c, 0, 61, 103
1, 972340, Note_off_c, 0, 61, 103
1, 972340, Note_on_c, 0, 56, 93
1, 976716, Note_off_c, 0, 56, 93
1, 977230, Note_on_c, 0, 56, 102
1, 981220, Note_off_c, 0, 56, 102
1, 981751, Note_on_c, 0, 61, 97
1, 982700, Note_off_c, 0, 61, 97
1, 982850, Note_on_c, 0, 62, 101
1, 987001, Note_off_c, 0, 62, 101
1, 987316, Note_on_c, 0, 61, 101
1, 988104, Note_off_c, 0, 61, 101
1, 988361, Note_on_c, 0, 62, 100
1, 992947, Note_off_c, 0, 62, 100
1, 993445, Note_on_c, 0, 56, 98
1, 997306, Note_off_c, 0, 56, 98
1, 998078, Note_on_c, 0, 56, 98
1, 1002197, Note_off_c, 0, 56, 98
1, 1002261, Note_on_c, 0, 59, 98
1, 1003998, Note_off_c, 0, 59, 98
1, 1004062, Note_on_c, 0, 60, 98
1, 1011785, Note_off_c, 0, 60, 98
1, 1013265, Note_on_c, 0, 51, 92
1, 1015968, Note_off_c, 0, 51, 92
1, 1018685, Note_on_c, 0, 58, 85
1, 1032805, Note_off_c, 0, 58, 85
1, 1054071, Note_on_c, 0, 56, 121
1, 1059348, Note_off_c, 0, 56, 121
1, 1059412, Note_on_c, 0, 61, 102
1, 1060586, Note_off_c, 0, 61, 102
1, 1060698, Note_on_c, 0, 62, 110
1, 1066008, Note_off_c, 0, 62, 110
1, 1066297, Note_on_c, 0, 61, 99
1, 1070673, Note_off_c, 0, 61, 99
1, 1070930, Note_on_c, 0, 60, 105
1, 1076594, Note_off_c, 0, 60, 105
1, 1076594, Note_on_c, 0, 59, 100
1, 1080327, Note_off_c, 0, 59, 100
1, 1080793, Note_on_c, 0, 58, 102
1, 1084912, Note_off_c, 0, 58, 102
1, 1085748, Note_on_c, 0, 56, 104
1, 1089095, Note_off_c, 0, 56, 104
1, 1089642, Note_on_c, 0, 58, 103
1, 1091653, Note_off_c, 0, 58, 103
1, 1091910, Note_on_c, 0, 59, 99
1, 1096351, Note_off_c, 0, 59, 99
1, 1096672, Note_on_c, 0, 63, 116
1, 1100405, Note_off_c, 0, 63, 116
1, 1100635, Note_on_c, 0, 66, 112
1, 1102897, Note_off_c, 0, 66, 112
1, 1103010, Note_on_c, 0, 67, 107
1, 1105340, Note_off_c, 0, 67, 107
1, 1105702, Note_on_c, 0, 69, 108
1, 1107964, Note_off_c, 0, 69, 108
1, 1108258, Note_on_c, 0, 70, 106
1, 1110113, Note_off_c, 0, 70, 106
1, 1110261, Note_on_c, 0, 74, 101
1, 1112650, Note_off_c, 0, 74, 101
1, 1113121, Note_on_c, 0, 76, 113
1, 1115953, Note_off_c, 0, 76, 113
1, 1116334, Note_on_c, 0, 77, 110
1, 1127376, Note_off_c, 0, 77, 110
1, 1127557, Note_on_c, 0, 76, 116
1, 1129616, Note_off_c, 0, 76, 116
1, 1129729, Note_on_c, 0, 77, 107
1, 1130905, Note_off_c, 0, 77, 107
1, 1131063, Note_on_c, 0, 76, 114
1, 1133076, Note_off_c, 0, 76, 114
1, 1133868, Note_on_c, 0, 74, 98
1, 1136764, Note_off_c, 0, 74, 98
1, 1137727, Note_on_c, 0, 76, 109
1, 1140945, Note_off_c, 0, 76, 109
1, 1141459, Note_on_c, 0, 77, 96
1, 1158837, Note_off_c, 0, 77, 96
1, 1159030, Note_on_c, 0, 75, 103
1, 1161411, Note_off_c, 0, 75, 103
1, 1162827, Note_on_c, 0, 78, 101
1, 1180077, Note_off_c, 0, 78, 101
1, 1180334, Note_on_c, 0, 75, 95
1, 1186384, Note_off_c, 0, 75, 95
1, 1187027, Note_on_c, 0, 76, 108
1, 1190502, Note_off_c, 0, 76, 108
1, 1190817, Note_on_c, 0, 77, 97
1, 1204032, Note_off_c, 0, 77, 97
1, 1204620, Note_on_c, 0, 76, 87
1, 1206937, Note_off_c, 0, 76, 87
1, 1207879, Note_on_c, 0, 71, 76
1, 1210196, Note_off_c, 0, 71, 76
1, 1212494, Note_on_c, 0, 75, 93
1, 1226840, Note_off_c, 0, 75, 93
1, 1226930, Note_on_c, 0, 73, 78
1, 1229118, Note_off_c, 0, 73, 78
1, 1229961, Note_on_c, 0, 72, 86
1, 1231891, Note_off_c, 0, 72, 86
1, 1232403, Note_on_c, 0, 71, 74
1, 1236973, Note_off_c, 0, 71, 74
1, 1261425, Note_on_c, 0, 72, 111
1, 1263227, Note_off_c, 0, 72, 111
1, 1263831, Note_on_c, 0, 73, 112
1, 1267049, Note_off_c, 0, 73, 112
1, 1267476, Note_on_c, 0, 71, 101
1, 1268980, Note_off_c, 0, 71, 101
1, 1269168, Note_on_c, 0, 70, 106
1, 1270860, Note_off_c, 0, 70, 106
1, 1271081, Note_on_c, 0, 68, 108
1, 1272873, Note_off_c, 0, 68, 108
1, 1273135, Note_on_c, 0, 66, 105
1, 1276610, Note_off_c, 0, 66, 105
1, 1276679, Note_on_c, 0, 68, 107
1, 1279665, Note_off_c, 0, 68, 107
1, 1280083, Note_on_c, 0, 65, 103
1, 1282528, Note_off_c, 0, 65, 103
1, 1282656, Note_on_c, 0, 61, 102
1, 1285488, Note_off_c, 0, 61, 102
1, 1285488, Note_on_c, 0, 59, 100
1, 1287676, Note_off_c, 0, 59, 100
1, 1287676, Note_on_c, 0, 65, 101
1, 1289993, Note_off_c, 0, 65, 101
1, 1289993, Note_on_c, 0, 60, 95
1, 1292181, Note_off_c, 0, 60, 95
1, 1292695, Note_on_c, 0, 56, 94
1, 1295527, Note_off_c, 0, 56, 94
1, 1295768, Note_on_c, 0, 51, 92
1, 1297361, Note_off_c, 0, 51, 92
1, 1297843, Note_on_c, 0, 58, 98
1, 1300932, Note_off_c, 0, 58, 98
1, 1301189, Note_on_c, 0, 56, 94
1, 1305565, Note_off_c, 0, 56, 94
1, 1305693, Note_on_c, 0, 54, 93
1, 1307623, Note_off_c, 0, 54, 93
1, 1307751, Note_on_c, 0, 53, 94
1, 1310196, Note_off_c, 0, 53, 94
1, 1310324, Note_on_c, 0, 49, 86
1, 1313156, Note_off_c, 0, 49, 86
1, 1313670, Note_on_c, 0, 51, 95
1, 1317145, Note_off_c, 0, 51, 95
1, 1317145, Note_on_c, 0, 46, 98
1, 1321650, Note_off_c, 0, 46, 98
1, 1322422, Note_on_c, 0, 51, 94
1, 1325640, Note_off_c, 0, 51, 94
1, 1326541, Note_on_c, 0, 58, 95
1, 1330016, Note_off_c, 0, 58, 95
1, 1331737, Note_on_c, 0, 56, 92
1, 1335824, Note_off_c, 0, 56, 92
1, 1336097, Note_on_c, 0, 63, 99
1, 1339492, Note_off_c, 0, 63, 99
1, 1340055, Note_on_c, 0, 61, 97
1, 1343788, Note_off_c, 0, 61, 97
1, 1345745, Note_on_c, 0, 68, 104
1, 1348347, Note_off_c, 0, 68, 104
1, 1348679, Note_on_c, 0, 66, 101
1, 1350996, Note_off_c, 0, 66, 101
1, 1351382, Note_on_c, 0, 65, 99
1, 1353827, Note_off_c, 0, 65, 99
1, 1358622, Note_on_c, 0, 63, 107
1, 1361582, Note_off_c, 0, 63, 107
1, 1362450, Note_on_c, 0, 60, 97
1, 1365410, Note_off_c, 0, 60, 97
1, 1366375, Note_on_c, 0, 56, 95
1, 1369255, Note_off_c, 0, 56, 95
1, 1370494, Note_on_c, 0, 51, 93
1, 1373326, Note_off_c, 0, 51, 93
1, 1374677, Note_on_c, 0, 57, 101
1, 1376093, Note_off_c, 0, 57, 101
1, 1376479, Note_on_c, 0, 58, 95
1, 1391926, Note_off_c, 0, 58, 95
1, 1392601, Note_on_c, 0, 60, 100
1, 1396205, Note_off_c, 0, 60, 100
1, 1396302, Note_on_c, 0, 56, 9
1, 1400807, Note_off_c, 0, 56, 9
1, 1401266, Note_on_c, 0, 58, 100
1, 1406029, Note_off_c, 0, 58, 100
1, 1406447, Note_on_c, 0, 60, 100
1, 1409794, Note_off_c, 0, 60, 100
1, 1410225, Note_on_c, 0, 63, 111
1, 1414252, Note_off_c, 0, 63, 111
1, 1414636, Note_on_c, 0, 63, 100
1, 1416016, Note_off_c, 0, 63, 100
1, 1416513, Note_on_c, 0, 61, 102
1, 1419975, Note_off_c, 0, 61, 102
1, 1420359, Note_on_c, 0, 63, 106
1, 1424635, Note_off_c, 0, 63, 106
1, 1424872, Note_on_c, 0, 66, 106
1, 1429635, Note_off_c, 0, 66, 106
1, 1429763, Note_on_c, 0, 68, 109
1, 1433882, Note_off_c, 0, 68, 109
1, 1434010, Note_on_c, 0, 65, 105
1, 1437485, Note_off_c, 0, 65, 105
1, 1439029, Note_on_c, 0, 68, 100
1, 1443019, Note_off_c, 0, 68, 100
1, 1443147, Note_on_c, 0, 70, 105
1, 1447137, Note_off_c, 0, 70, 105
1, 1447800, Note_on_c, 0, 71, 89
1, 1455538, Note_off_c, 0, 71, 89
1, 1467217, Note_on_c, 0, 62, 112
1, 1468375, Note_off_c, 0, 62, 112
1, 1468889, Note_on_c, 0, 62, 114
1, 1470176, Note_off_c, 0, 62, 114
1, 1470433, Note_on_c, 0, 61, 109
1, 1474294, Note_off_c, 0, 61, 109
1, 1474422, Note_on_c, 0, 62, 114
1, 1478283, Note_off_c, 0, 62, 114
1, 1479156, Note_on_c, 0, 64, 113
1, 1483002, Note_off_c, 0, 64, 113
1, 1483386, Note_on_c, 0, 66, 112
1, 1487376, Note_off_c, 0, 66, 112
1, 1488450, Note_on_c, 0, 69, 115
1, 1492440, Note_off_c, 0, 69, 115
1, 1492697, Note_on_c, 0, 66, 111
1, 1496945, Note_off_c, 0, 66, 111
1, 1497481, Note_on_c, 0, 71, 110
1, 1502323, Note_off_c, 0, 71, 110
1, 1502608, Note_on_c, 0, 73, 107
1, 1516639, Note_off_c, 0, 73, 107
1, 1517025, Note_on_c, 0, 71, 106
1, 1519985, Note_off_c, 0, 71, 106
1, 1520242, Note_on_c, 0, 69, 107
1, 1523589, Note_off_c, 0, 69, 107
1, 1523975, Note_on_c, 0, 66, 103
1, 1526935, Note_off_c, 0, 66, 103
1, 1528994, Note_on_c, 0, 71, 106
1, 1531697, Note_off_c, 0, 71, 106
1, 1531697, Note_on_c, 0, 69, 108
1, 1534014, Note_off_c, 0, 69, 108
1, 1534400, Note_on_c, 0, 66, 105
1, 1536717, Note_off_c, 0, 66, 105
1, 1536845, Note_on_c, 0, 64, 105
1, 1538132, Note_off_c, 0, 64, 105
1, 1538389, Note_on_c, 0, 61, 109
1, 1539933, Note_off_c, 0, 61, 109
1, 1540705, Note_on_c, 0, 59, 104
1, 1542249, Note_off_c, 0, 59, 104
1, 1542506, Note_on_c, 0, 66, 109
1, 1545338, Note_off_c, 0, 66, 109
1, 1545338, Note_on_c, 0, 64, 107
1, 1547011, Note_off_c, 0, 64, 107
1, 1547139, Note_on_c, 0, 61, 100
1, 1548683, Note_off_c, 0, 61, 100
1, 1549455, Note_on_c, 0, 59, 100
1, 1552029, Note_off_c, 0, 59, 100
1, 1552415, Note_on_c, 0, 54, 99
1, 1555375, Note_off_c, 0, 54, 99
1, 1556050, Note_on_c, 0, 57, 98
1, 1558254, Note_off_c, 0, 57, 98
1, 1558624, Note_on_c, 0, 59, 98
1, 1561681, Note_off_c, 0, 59, 98
1, 1561681, Note_on_c, 0, 54, 97
1, 1563740, Note_off_c, 0, 54, 97
1, 1564254, Note_on_c, 0, 57, 89
1, 1572750, Note_off_c, 0, 57, 89
1, 1573779, Note_on_c, 0, 50, 100
1, 1576353, Note_off_c, 0, 50, 100
1, 1590062, Note_on_c, 0, 50, 97
1, 1592186, Note_off_c, 0, 50, 97
1, 1592749, Note_on_c, 0, 49, 97
1, 1594679, Note_off_c, 0, 49, 97
1, 1594759, Note_on_c, 0, 50, 96
1, 1596110, Note_off_c, 0, 50, 96
1, 1596351, Note_on_c, 0, 52, 94
1, 1598217, Note_off_c, 0, 52, 94
1, 1598490, Note_on_c, 0, 59, 104
1, 1602609, Note_off_c, 0, 59, 104
1, 1603123, Note_on_c, 0, 57, 94
1, 1609623, Note_off_c, 0, 57, 94
1, 1609623, Note_on_c, 0, 53, 99
1, 1611232, Note_on_c, 0, 54, 101
1, 1611232, Note_off_c, 0, 53, 99
1, 1612969, Note_off_c, 0, 54, 101
1, 1613097, Note_on_c, 0, 57, 101
1, 1615156, Note_off_c, 0, 57, 101
1, 1617859, Note_on_c, 0, 53, 106
1, 1619488, Note_off_c, 0, 53, 106
1, 1619660, Note_on_c, 0, 54, 102
1, 1623007, Note_off_c, 0, 54, 102
1, 1623779, Note_on_c, 0, 57, 97
1, 1627640, Note_off_c, 0, 57, 97
1, 1628090, Note_on_c, 0, 62, 107
1, 1631179, Note_off_c, 0, 62, 107
1, 1631794, Note_on_c, 0, 64, 111
1, 1635686, Note_off_c, 0, 64, 111
1, 1636070, Note_on_c, 0, 61, 98
1, 1638902, Note_off_c, 0, 61, 98
1, 1639758, Note_on_c, 0, 56, 93
1, 1646456, Note_off_c, 0, 56, 93
1, 1660270, Note_on_c, 0, 73, 111
1, 1662458, Note_off_c, 0, 73, 111
1, 1662635, Note_on_c, 0, 71, 109
1, 1664911, Note_off_c, 0, 71, 109
1, 1665933, Note_on_c, 0, 66, 100
1, 1667802, Note_off_c, 0, 66, 100
1, 1667904, Note_on_c, 0, 64, 102
1, 1668943, Note_off_c, 0, 64, 102
1, 1669079, Note_on_c, 0, 68, 105
1, 1671160, Note_off_c, 0, 68, 105
1, 1671341, Note_on_c, 0, 69, 102
1, 1672970, Note_off_c, 0, 69, 102
1, 1673241, Note_on_c, 0, 66, 101
1, 1674870, Note_off_c, 0, 66, 101
1, 1674960, Note_on_c, 0, 67, 109
1, 1676046, Note_off_c, 0, 67, 109
1, 1676408, Note_on_c, 0, 66, 104
1, 1678489, Note_off_c, 0, 66, 104
1, 1678881, Note_on_c, 0, 64, 110
1, 1681204, Note_off_c, 0, 64, 110
1, 1681294, Note_on_c, 0, 66, 107
1, 1683104, Note_off_c, 0, 66, 107
1, 1683624, Note_on_c, 0, 65, 104
1, 1693246, Note_off_c, 0, 65, 104
1, 1693850, Note_on_c, 0, 66, 102
1, 1695456, Note_off_c, 0, 66, 102
1, 1695609, Note_on_c, 0, 67, 110
1, 1697443, Note_off_c, 0, 67, 110
1, 1697668, Note_on_c, 0, 68, 109
1, 1701369, Note_off_c, 0, 68, 109
1, 1701674, Note_on_c, 0, 71, 107
1, 1703250, Note_off_c, 0, 71, 107
1, 1703644, Note_on_c, 0, 72, 107
1, 1706449, Note_off_c, 0, 72, 107
1, 1706630, Note_on_c, 0, 74, 110
1, 1709979, Note_off_c, 0, 74, 110
1, 1710205, Note_on_c, 0, 71, 109
1, 1711834, Note_off_c, 0, 71, 109
1, 1712178, Note_on_c, 0, 70, 109
1, 1713223, Note_off_c, 0, 70, 109
1, 1713255, Note_on_c, 0, 69, 106
1, 1715700, Note_off_c, 0, 69, 106
1, 1715858, Note_on_c, 0, 68, 98
1, 1718935, Note_off_c, 0, 68, 98
1, 1719206, Note_on_c, 0, 68, 100
1, 1721287, Note_off_c, 0, 68, 100
1, 1721287, Note_on_c, 0, 65, 110
1, 1723187, Note_off_c, 0, 65, 110
1, 1723571, Note_on_c, 0, 61, 110
1, 1726105, Note_off_c, 0, 61, 110
1, 1726279, Note_on_c, 0, 59, 99
1, 1727717, Note_off_c, 0, 59, 99
1, 1727982, Note_on_c, 0, 63, 114
1, 1730516, Note_off_c, 0, 63, 114
1, 1730697, Note_on_c, 0, 60, 102
1, 1732778, Note_off_c, 0, 60, 102
1, 1732778, Note_on_c, 0, 56, 97
1, 1735131, Note_off_c, 0, 56, 97
1, 1736669, Note_on_c, 0, 58, 105
1, 1738660, Note_off_c, 0, 58, 105
1, 1741375, Note_on_c, 0, 53, 94
1, 1743637, Note_off_c, 0, 53, 94
1, 1745085, Note_on_c, 0, 56, 91
1, 1754679, Note_off_c, 0, 56, 91
1, 1763458, Note_on_c, 0, 53, 110
1, 1765901, Note_off_c, 0, 53, 110
1, 1771060, Note_on_c, 0, 50, 104
1, 1773956, Note_off_c, 0, 50, 104
1, 1774499, Note_on_c, 0, 50, 101
1, 1777214, Note_off_c, 0, 50, 101
1, 1777938, Note_on_c, 0, 53, 101
1, 1781920, Note_off_c, 0, 53, 101
1, 1782734, Note_on_c, 0, 57, 100
1, 1786173, Note_off_c, 0, 57, 100
1, 1787168, Note_on_c, 0, 62, 97
1, 1789973, Note_off_c, 0, 62, 97
1, 1791964, Note_on_c, 0, 69, 104
1, 1800019, Note_off_c, 0, 69, 104
1, 1800471, Note_on_c, 0, 65, 97
1, 1802281, Note_off_c, 0, 65, 97
1, 1802824, Note_on_c, 0, 62, 101
1, 1804543, Note_off_c, 0, 62, 101
1, 1808797, Note_on_c, 0, 73, 99
1, 1810335, Note_off_c, 0, 73, 99
1, 1810787, Note_on_c, 0, 74, 105
1, 1814498, Note_off_c, 0, 74, 105
1, 1817303, Note_on_c, 0, 72, 92
1, 1821285, Note_off_c, 0, 72, 92
1, 1821918, Note_on_c, 0, 71, 93
1, 1824814, Note_off_c, 0, 71, 93
1, 1857602, Note_on_c, 0, 74, 100
1, 1859919, Note_off_c, 0, 74, 100
1, 1861624, Note_on_c, 0, 77, 107
1, 1865518, Note_off_c, 0, 77, 107
1, 1865725, Note_on_c, 0, 76, 118
1, 1870250, Note_off_c, 0, 76, 118
1, 1870883, Note_on_c, 0, 74, 107
1, 1875589, Note_off_c, 0, 74, 107
1, 1876041, Note_on_c, 0, 72, 107
1, 1878756, Note_off_c, 0, 72, 107
1, 1881109, Note_on_c, 0, 71, 110
1, 1884729, Note_off_c, 0, 71, 110
1, 1886086, Note_on_c, 0, 62, 112
1, 1890068, Note_off_c, 0, 62, 112
1, 1890882, Note_on_c, 0, 74, 108
1, 1895588, Note_off_c, 0, 74, 108
1, 1896402, Note_on_c, 0, 72, 111
1, 1900384, Note_off_c, 0, 72, 111
1, 1900565, Note_on_c, 0, 60, 106
1, 1905362, Note_off_c, 0, 60, 106
1, 1906176, Note_on_c, 0, 70, 108
1, 1909796, Note_off_c, 0, 70, 108
1, 1911696, Note_on_c, 0, 69, 113
1, 1915678, Note_off_c, 0, 69, 113
1, 1916040, Note_on_c, 0, 68, 96
1, 1919298, Note_off_c, 0, 68, 96
1, 1920474, Note_on_c, 0, 68, 116
1, 1924909, Note_off_c, 0, 68, 116
1, 1925361, Note_on_c, 0, 70, 111
1, 1929072, Note_off_c, 0, 70, 111
1, 1929434, Note_on_c, 0, 71, 109
1, 1933235, Note_off_c, 0, 71, 109
1, 1934411, Note_on_c, 0, 67, 103
1, 1937850, Note_off_c, 0, 67, 103
1, 1940038, Note_on_c, 0, 68, 112
1, 1944768, Note_off_c, 0, 68, 112
1, 1945180, Note_on_c, 0, 69, 107
1, 1949886, Note_off_c, 0, 69, 107
1, 1949886, Note_on_c, 0, 66, 105
1, 1953506, Note_off_c, 0, 66, 105
1, 1955322, Note_on_c, 0, 67, 107
1, 1958540, Note_off_c, 0, 67, 107
1, 1959026, Note_on_c, 0, 62, 106
1, 1963642, Note_off_c, 0, 62, 106
1, 1963913, Note_on_c, 0, 65, 111
1, 1969705, Note_off_c, 0, 65, 111
1, 1969976, Note_on_c, 0, 63, 115
1, 1975406, Note_off_c, 0, 63, 115
1, 1976912, Note_on_c, 0, 64, 110
1, 1979840, Note_off_c, 0, 64, 110
1, 1980548, Note_on_c, 0, 64, 116
1, 1983347, Note_off_c, 0, 64, 116
1, 1985664, Note_on_c, 0, 65, 113
1, 1988850, Note_off_c, 0, 65, 113
1, 1989885, Note_on_c, 0, 61, 103
1, 1994772, Note_off_c, 0, 61, 103
1, 1995767, Note_on_c, 0, 63, 110
1, 1999659, Note_off_c, 0, 63, 110
1, 2000383, Note_on_c, 0, 62, 107
1, 2004094, Note_off_c, 0, 62, 107
1, 2005994, Note_on_c, 0, 58, 95
1, 2008347, Note_off_c, 0, 58, 95
1, 2009704, Note_on_c, 0, 60, 105
1, 2013234, Note_off_c, 0, 60, 105
1, 2014772, Note_on_c, 0, 59, 98
1, 2020474, Note_off_c, 0, 59, 98
1, 2021059, Note_on_c, 0, 51, 90
1, 2024045, Note_off_c, 0, 51, 90
1, 2025660, Note_on_c, 0, 52, 91
1, 2029908, Note_off_c, 0, 52, 91
1, 2039389, Note_on_c, 0, 58, 102
1, 2043190, Note_off_c, 0, 58, 102
1, 2043371, Note_on_c, 0, 59, 100
1, 2047444, Note_off_c, 0, 59, 100
1, 2047444, Note_on_c, 0, 52, 95
1, 2051879, Note_off_c, 0, 52, 95
1, 2052546, Note_on_c, 0, 51, 105
1, 2056552, Note_off_c, 0, 51, 105
1, 2058032, Note_on_c, 0, 58, 105
1, 2059850, Note_off_c, 0, 58, 105
1, 2060113, Note_on_c, 0, 60, 107
1, 2063824, Note_off_c, 0, 60, 107
1, 2064367, Note_on_c, 0, 59, 102
1, 2067987, Note_off_c, 0, 59, 102
1, 2068168, Note_on_c, 0, 51, 95
1, 2073055, Note_off_c, 0, 51, 95
1, 2073869, Note_on_c, 0, 52, 110
1, 2077851, Note_off_c, 0, 52, 110
1, 2078846, Note_on_c, 0, 58, 99
1, 2083190, Note_off_c, 0, 58, 99
1, 2084185, Note_on_c, 0, 56, 103
1, 2087805, Note_off_c, 0, 56, 103
1, 2087986, Note_on_c, 0, 57, 98
1, 2092059, Note_off_c, 0, 57, 98
1, 2092421, Note_on_c, 0, 58, 102
1, 2095226, Note_off_c, 0, 58, 102
1, 2095859, Note_on_c, 0, 59, 102
1, 2099389, Note_off_c, 0, 59, 102
1, 2099751, Note_on_c, 0, 61, 104
1, 2103552, Note_off_c, 0, 61, 104
1, 2103733, Note_on_c, 0, 63, 111
1, 2107444, Note_off_c, 0, 63, 111
1, 2107534, Note_on_c, 0, 65, 115
1, 2111245, Note_off_c, 0, 65, 115
1, 2111516, Note_on_c, 0, 60, 101
1, 2114774, Note_off_c, 0, 60, 101
1, 2116658, Note_on_c, 0, 56, 99
1, 2120294, Note_off_c, 0, 56, 99
1, 2121108, Note_on_c, 0, 51, 93
1, 2123732, Note_off_c, 0, 51, 93
1, 2124003, Note_on_c, 0, 48, 96
1, 2126899, Note_off_c, 0, 48, 96
1, 2127623, Note_on_c, 0, 46, 97
1, 2131243, Note_off_c, 0, 46, 97
1, 2131586, Note_on_c, 0, 51, 100
1, 2136542, Note_off_c, 0, 51, 100
1, 2137939, Note_on_c, 0, 59, 113
1, 2140020, Note_off_c, 0, 59, 113
1, 2140201, Note_on_c, 0, 60, 97
1, 2143640, Note_off_c, 0, 60, 97
1, 2144364, Note_on_c, 0, 58, 99
1, 2149523, Note_off_c, 0, 58, 99
1, 2150247, Note_on_c, 0, 56, 104
1, 2154772, Note_off_c, 0, 56, 104
1, 2155134, Note_on_c, 0, 63, 110
1, 2160293, Note_off_c, 0, 63, 110
1, 2160926, Note_on_c, 0, 71, 108
1, 2166899, Note_off_c, 0, 71, 108
1, 2167713, Note_on_c, 0, 68, 99
1, 2172057, Note_off_c, 0, 68, 99
1, 2174138, Note_on_c, 0, 70, 98
1, 2178279, Note_off_c, 0, 70, 98
1, 2178573, Note_on_c, 0, 66, 101
1, 2183913, Note_off_c, 0, 66, 101
1, 2184456, Note_on_c, 0, 65, 95
1, 2188257, Note_off_c, 0, 65, 95
1, 2188347, Note_on_c, 0, 60, 99
1, 2191877, Note_off_c, 0, 60, 99
1, 2194049, Note_on_c, 0, 58, 93
1, 2197669, Note_off_c, 0, 58, 93
1, 2198936, Note_on_c, 0, 51, 96
1, 2202647, Note_off_c, 0, 51, 96
1, 2202828, Note_on_c, 0, 46, 99
1, 2206720, Note_off_c, 0, 46, 99
1, 2207896, Note_on_c, 0, 45, 108
1, 2213598, Note_off_c, 0, 45, 108
1, 2214322, Note_on_c, 0, 44, 107
1, 2219300, Note_off_c, 0, 44, 107
1, 2219752, Note_on_c, 0, 58, 98
1, 2220566, Note_off_c, 0, 58, 98
1, 2220747, Note_on_c, 0, 59, 98
1, 2224005, Note_off_c, 0, 59, 98
1, 2224276, Note_on_c, 0, 58, 98
1, 2228711, Note_off_c, 0, 58, 98
1, 2229525, Note_on_c, 0, 59, 104
1, 2233960, Note_off_c, 0, 59, 104
1, 2234774, Note_on_c, 0, 64, 105
1, 2239390, Note_off_c, 0, 64, 105
1, 2239887, Note_on_c, 0, 67, 115
1, 2241108, Note_off_c, 0, 67, 115
1, 2241877, Note_on_c, 0, 68, 110
1, 2244682, Note_off_c, 0, 68, 110
1, 2244998, Note_on_c, 0, 69, 113
1, 2246265, Note_on_c, 0, 70, 116
1, 2246265, Note_off_c, 0, 69, 113
1, 2247803, Note_off_c, 0, 70, 116
1, 2247984, Note_on_c, 0, 69, 116
1, 2249613, Note_off_c, 0, 69, 116
1, 2249794, Note_on_c, 0, 70, 113
1, 2251061, Note_off_c, 0, 70, 113
1, 2251287, Note_on_c, 0, 71, 110
1, 2255088, Note_off_c, 0, 71, 110
1, 2255495, Note_on_c, 0, 72, 114
1, 2258210, Note_off_c, 0, 72, 114
1, 2258753, Note_on_c, 0, 73, 118
1, 2262192, Note_off_c, 0, 73, 118
1, 2262554, Note_on_c, 0, 74, 112
1, 2266265, Note_off_c, 0, 74, 112
1, 2266989, Note_on_c, 0, 75, 87
1, 2286359, Note_off_c, 0, 75, 87
1, 2315798, Note_on_c, 0, 60, 112
1, 2317608, Note_off_c, 0, 60, 112
1, 2318037, Note_on_c, 0, 65, 106
1, 2320571, Note_off_c, 0, 65, 106
1, 2321204, Note_on_c, 0, 65, 119
1, 2324553, Note_off_c, 0, 65, 119
1, 2325186, Note_on_c, 0, 68, 118
1, 2329892, Note_off_c, 0, 68, 118
1, 2330616, Note_on_c, 0, 72, 111
1, 2335141, Note_off_c, 0, 72, 111
1, 2336792, Note_on_c, 0, 72, 114
1, 2340616, Note_off_c, 0, 72, 114
1, 2342313, Note_on_c, 0, 72, 114
1, 2345978, Note_off_c, 0, 72, 114
1, 2346543, Note_on_c, 0, 68, 110
1, 2350163, Note_off_c, 0, 68, 110
1, 2350344, Note_on_c, 0, 63, 112
1, 2353964, Note_off_c, 0, 63, 112
1, 2355321, Note_on_c, 0, 71, 107
1, 2358670, Note_off_c, 0, 71, 107
1, 2359196, Note_on_c, 0, 68, 110
1, 2361786, Note_off_c, 0, 68, 110
1, 2362379, Note_on_c, 0, 63, 114
1, 2366090, Note_off_c, 0, 63, 114
1, 2366384, Note_on_c, 0, 61, 106
1, 2369710, Note_off_c, 0, 61, 106
1, 2371158, Note_on_c, 0, 72, 111
1, 2375050, Note_off_c, 0, 72, 111
1, 2375412, Note_on_c, 0, 68, 108
1, 2378489, Note_off_c, 0, 68, 108
1, 2379213, Note_on_c, 0, 63, 114
1, 2382290, Note_off_c, 0, 63, 114
1, 2384190, Note_on_c, 0, 71, 107
1, 2387539, Note_off_c, 0, 71, 107
1, 2387539, Note_on_c, 0, 70, 108
1, 2390435, Note_off_c, 0, 70, 108
1, 2390557, Note_on_c, 0, 61, 108
1, 2393555, Note_off_c, 0, 61, 108
1, 2397132, Note_on_c, 0, 68, 100
1, 2408084, Note_off_c, 0, 68, 100
1, 2423990, Note_on_c, 0, 68, 108
1, 2425148, Note_off_c, 0, 68, 108
1, 2425228, Note_on_c, 0, 70, 112
1, 2428317, Note_off_c, 0, 70, 112
1, 2428447, Note_on_c, 0, 72, 116
1, 2431252, Note_off_c, 0, 72, 116
1, 2431342, Note_on_c, 0, 68, 102
1, 2433333, Note_off_c, 0, 68, 102
1, 2433423, Note_on_c, 0, 70, 108
1, 2435414, Note_off_c, 0, 70, 108
1, 2435595, Note_on_c, 0, 68, 113
1, 2438400, Note_off_c, 0, 68, 113
1, 2438581, Note_on_c, 0, 65, 111
1, 2440843, Note_off_c, 0, 65, 111
1, 2441386, Note_on_c, 0, 61, 91
1, 2443377, Note_off_c, 0, 61, 91
1, 2443533, Note_on_c, 0, 68, 114
1, 2446091, Note_off_c, 0, 68, 114
1, 2446316, Note_on_c, 0, 65, 106
1, 2448759, Note_off_c, 0, 65, 106
1, 2449167, Note_on_c, 0, 61, 112
1, 2450977, Note_off_c, 0, 61, 112
1, 2451061, Note_on_c, 0, 58, 102
1, 2453323, Note_off_c, 0, 58, 102
1, 2453510, Note_on_c, 0, 63, 117
1, 2455863, Note_off_c, 0, 63, 117
1, 2456134, Note_on_c, 0, 60, 103
1, 2457944, Note_off_c, 0, 60, 103
1, 2458215, Note_on_c, 0, 56, 103
1, 2460568, Note_off_c, 0, 56, 103
1, 2460648, Note_on_c, 0, 53, 96
1, 2462367, Note_off_c, 0, 53, 96
1, 2463205, Note_on_c, 0, 58, 102
1, 2465538, Note_off_c, 0, 58, 102
1, 2465702, Note_on_c, 0, 64, 109
1, 2468598, Note_off_c, 0, 64, 109
1, 2469797, Note_on_c, 0, 75, 102
1, 2470883, Note_off_c, 0, 75, 102
1, 2471245, Note_on_c, 0, 76, 107
1, 2473145, Note_off_c, 0, 76, 107
1, 2473507, Note_on_c, 0, 68, 102
1, 2475226, Note_off_c, 0, 68, 102
1, 2475678, Note_on_c, 0, 74, 108
1, 2478031, Note_off_c, 0, 74, 108
1, 2478212, Note_on_c, 0, 73, 108
1, 2479750, Note_off_c, 0, 73, 108
1, 2479840, Note_on_c, 0, 71, 98
1, 2480835, Note_off_c, 0, 71, 98
1, 2481627, Note_on_c, 0, 75, 110
1, 2483663, Note_off_c, 0, 75, 110
1, 2483730, Note_on_c, 0, 77, 108
1, 2485721, Note_off_c, 0, 77, 108
1, 2485902, Note_on_c, 0, 76, 114
1, 2488074, Note_off_c, 0, 76, 114
1, 2488187, Note_on_c, 0, 77, 105
1, 2489046, Note_off_c, 0, 77, 105
1, 2489905, Note_on_c, 0, 61, 96
1, 2491670, Note_off_c, 0, 61, 96
1, 2493092, Note_on_c, 0, 78, 95
1, 2494186, Note_off_c, 0, 78, 95
1, 2494588, Note_on_c, 0, 79, 98
1, 2496712, Note_off_c, 0, 79, 98
1, 2498128, Note_on_c, 0, 78, 79
1, 2499173, Note_off_c, 0, 78, 79
1, 2499293, Note_on_c, 0, 79, 118
1, 2508887, Note_off_c, 0, 79, 118
1, 2509339, Note_on_c, 0, 78, 104
1, 2511511, Note_off_c, 0, 78, 104
1, 2511963, Note_on_c, 0, 76, 106
1, 2514316, Note_off_c, 0, 76, 106
1, 2514678, Note_on_c, 0, 72, 104
1, 2515945, Note_off_c, 0, 72, 104
1, 2516098, Note_on_c, 0, 65, 109
1, 2517049, Note_off_c, 0, 65, 109
1, 2517226, Note_on_c, 0, 61, 113
1, 2518188, Note_off_c, 0, 61, 113
1, 2518296, Note_on_c, 0, 57, 121
1, 2521282, Note_off_c, 0, 57, 121
1, 2522481, Note_on_c, 0, 63, 112
1, 2524562, Note_off_c, 0, 63, 112
1, 2524562, Note_on_c, 0, 80, 99
1, 2525512, Note_off_c, 0, 80, 99
1, 2527871, Note_on_c, 0, 82, 103
1, 2530284, Note_off_c, 0, 82, 103
1, 2531925, Note_on_c, 0, 82, 109
1, 2534049, Note_off_c, 0, 82, 109
1, 2534274, Note_on_c, 0, 83, 112
1, 2537202, Note_off_c, 0, 83, 112
1, 2537751, Note_on_c, 0, 83, 103
1, 2548974, Note_off_c, 0, 83, 103
1, 2549562, Note_on_c, 0, 75, 104
1, 2551417, Note_off_c, 0, 75, 104
1, 2554901, Note_on_c, 0, 83, 110
1, 2556530, Note_off_c, 0, 83, 110
1, 2557208, Note_on_c, 0, 85, 98
1, 2558294, Note_off_c, 0, 85, 98
1, 2562186, Note_on_c, 0, 87, 106
1, 2564629, Note_off_c, 0, 87, 106
1, 2564945, Note_on_c, 0, 88, 101
1, 2567750, Note_off_c, 0, 88, 101
1, 2568971, Note_on_c, 0, 85, 79
1, 2570328, Note_off_c, 0, 85, 79
1, 2570328, Note_on_c, 0, 87, 113
1, 2573043, Note_off_c, 0, 87, 113
1, 2576327, Note_on_c, 0, 84, 93
1, 2578933, Note_off_c, 0, 84, 93
1, 2580091, Note_on_c, 0, 78, 110
1, 2583349, Note_off_c, 0, 78, 110
1, 2585851, Note_on_c, 0, 75, 109
1, 2588650, Note_off_c, 0, 75, 109
1, 2589965, Note_on_c, 0, 77, 109
1, 2593676, Note_off_c, 0, 77, 109
1, 2593959, Note_on_c, 0, 75, 101
1, 2597398, Note_off_c, 0, 75, 101
1, 2598381, Note_on_c, 0, 73, 104
1, 2602182, Note_off_c, 0, 73, 104
1, 2602634, Note_on_c, 0, 72, 103
1, 2605077, Note_off_c, 0, 72, 103
1, 2607249, Note_on_c, 0, 63, 110
1, 2609964, Note_off_c, 0, 63, 110
1, 2611430, Note_on_c, 0, 70, 107
1, 2614165, Note_off_c, 0, 70, 107
1, 2614551, Note_on_c, 0, 68, 112
1, 2616900, Note_off_c, 0, 68, 112
1, 2618058, Note_on_c, 0, 68, 108
1, 2620407, Note_off_c, 0, 68, 108
1, 2621565, Note_on_c, 0, 67, 106
1, 2623882, Note_off_c, 0, 67, 106
1, 2624262, Note_on_c, 0, 65, 113
1, 2627611, Note_off_c, 0, 65, 113
1, 2628606, Note_on_c, 0, 60, 100
1, 2632860, Note_off_c, 0, 60, 100
1, 2633131, Note_on_c, 0, 63, 114
1, 2636661, Note_off_c, 0, 63, 114
1, 2637385, Note_on_c, 0, 61, 108
1, 2640100, Note_off_c, 0, 61, 108
1, 2640371, Note_on_c, 0, 56, 98
1, 2644172, Note_off_c, 0, 56, 98
1, 2644172, Note_on_c, 0, 60, 98
1, 2647521, Note_off_c, 0, 60, 98
1, 2648516, Note_on_c, 0, 58, 103
1, 2651684, Note_off_c, 0, 58, 103
1, 2652860, Note_on_c, 0, 53, 106
1, 2655484, Note_off_c, 0, 53, 106
1, 2656220, Note_on_c, 0, 58, 95
1, 2659277, Note_off_c, 0, 58, 95
1, 2660461, Note_on_c, 0, 51, 95
1, 2663991, Note_off_c, 0, 51, 95
1, 2664896, Note_on_c, 0, 58, 103
1, 2668426, Note_off_c, 0, 58, 103
1, 2668878, Note_on_c, 0, 56, 102
1, 2671683, Note_off_c, 0, 56, 102
1, 2672598, Note_on_c, 0, 53, 101
1, 2675584, Note_off_c, 0, 53, 101
1, 2676207, Note_on_c, 0, 49, 101
1, 2679284, Note_off_c, 0, 49, 101
1, 2679418, Note_on_c, 0, 51, 101
1, 2681896, Note_off_c, 0, 51, 101
1, 2682179, Note_on_c, 0, 60, 98
1, 2685437, Note_off_c, 0, 60, 98
1, 2686523, Note_on_c, 0, 58, 104
1, 2690505, Note_off_c, 0, 58, 104
1, 2690686, Note_on_c, 0, 59, 98
1, 2693944, Note_off_c, 0, 59, 98
1, 2694758, Note_on_c, 0, 60, 95
1, 2698559, Note_off_c, 0, 60, 95
1, 2699192, Note_on_c, 0, 60, 99
1, 2702314, Note_off_c, 0, 60, 99
1, 2702630, Note_on_c, 0, 58, 101
1, 2706250, Note_off_c, 0, 58, 101
1, 2706793, Note_on_c, 0, 56, 105
1, 2710232, Note_off_c, 0, 56, 105
1, 2710322, Note_on_c, 0, 54, 102
1, 2713399, Note_off_c, 0, 54, 102
1, 2713693, Note_on_c, 0, 53, 101
1, 2716046, Note_off_c, 0, 53, 101
1, 2717448, Note_on_c, 0, 51, 107
1, 2719891, Note_off_c, 0, 51, 107
1, 2720999, Note_on_c, 0, 53, 105
1, 2723895, Note_off_c, 0, 53, 105
1, 2724981, Note_on_c, 0, 49, 102
1, 2728058, Note_off_c, 0, 49, 102
1, 2728782, Note_on_c, 0, 48, 27
1, 2731225, Note_off_c, 0, 48, 27
1, 2731768, Note_on_c, 0, 46, 127
1, 2737470, Note_off_c, 0, 46, 127
1, 2737741, Note_on_c, 0, 51, 108
1, 2762722, Note_off_c, 0, 51, 108
1, 2762722, End_track
0, 0, End_of_file
