0, 0, Header, 1, 1, 840
1, 0, Start_track
1, 0, Title_t, "Melody"
1, 0, Tempo, 500000
1, 0, Key_signature, -3, "major"
1, 0, Time_signature, 4, 2, 24, 8
1, 5168, Note_on_c, 0, 51, 110
1, 5454, Note_off_c, 0, 51, 110
1, 5643, Note_on_c, 0, 52, 107
1, 6210, Note_off_c, 0, 52, 107
1, 6210, Note_on_c, 0, 60, 114
1, 6699, Note_off_c, 0, 60, 114
1, 6963, Note_on_c, 0, 52, 108
1, 7316, Note_off_c, 0, 52, 108
1, 7394, Note_on_c, 0, 53, 105
1, 7832, Note_off_c, 0, 53, 105
1, 7832, Note_on_c, 0, 55, 102
1, 8215, Note_off_c, 0, 55, 102
1, 8215, Note_on_c, 0, 56, 103
1, 8694, Note_off_c, 0, 56, 103
1, 8745, Note_on_c, 0, 53, 108
1, 9050, Note_off_c, 0, 53, 108
1, 9050, Note_on_c, 0, 54, 101
1, 9526, Note_off_c, 0, 54, 101
1, 9526, Note_on_c, 0, 57, 102
1, 9749, Note_off_c, 0, 57, 102
1, 9874, Note_on_c, 0, 62, 123
1, 10247, Note_off_c, 0, 62, 123
1, 10247, Note_on_c, 0, 63, 115
1, 10353, Note_off_c, 0, 63, 115
1, 10353, Note_on_c, 0, 62, 117
1, 10490, Note_off_c, 0, 62, 117
1, 10494, Note_on_c, 0, 60, 108
1, 10894, Note_off_c, 0, 60, 108
1, 10894, Note_on_c, 0, 58, 94
1, 11442, Note_off_c, 0, 58, 94
1, 11442, Note_on_c, 0, 63, 121
1, 11905, Note_off_c, 0, 63, 121
1, 12124, Note_on_c, 0, 63, 125
1, 12410, Note_off_c, 0, 63, 125
1, 12569, Note_on_c, 0, 62, 118
1, 13065, Note_off_c, 0, 62, 118
1, 13171, Note_on_c, 0, 65, 110
1, 13672, Note_off_c, 0, 65, 110
1, 13900, Note_on_c, 0, 65, 111
1, 14323, Note_off_c, 0, 65, 111
1, 14396, Note_on_c, 0, 63, 118
1, 14856, Note_off_c, 0, 63, 118
1, 14878, Note_on_c, 0, 60, 103
1, 15273, Note_off_c, 0, 60, 103
1, 15354, Note_on_c, 0, 63, 112
1, 15785, Note_off_c, 0, 63, 112
1, 15785, Note_on_c, 0, 67, 107
1, 16158, Note_off_c, 0, 67, 107
1, 16185, Note_on_c, 0, 65, 106
1, 16590, Note_off_c, 0, 65, 106
1, 16632, Note_on_c, 0, 67, 106
1, 17039, Note_off_c, 0, 67, 106
1, 17055, Note_on_c, 0, 68, 97
1, 17493, Note_off_c, 0, 68, 97
1, 17528, Note_on_c, 0, 70, 100
1, 17943, Note_off_c, 0, 70, 100
1, 17943, Note_on_c, 0, 67, 105
1, 18417, Note_off_c, 0, 67, 105
1, 18418, Note_on_c, 0, 58, 92
1, 18729, Note_off_c, 0, 58, 92
1, 18742, Note_on_c, 0, 60, 101
1, 19127, Note_off_c, 0, 60, 101
1, 19173, Note_on_c, 0, 65, 108
1, 19765, Note_off_c, 0, 65, 108
1, 21651, Note_on_c, 0, 68, 116
1, 22007, Note_off_c, 0, 68, 116
1, 22007, Note_on_c, 0, 64, 119
1, 22240, Note_off_c, 0, 64, 119
1, 22304, Note_on_c, 0, 61, 98
1, 22572, Note_off_c, 0, 61, 98
1, 22572, Note_on_c, 0, 56, 93
1, 22921, Note_off_c, 0, 56, 93
1, 23020, Note_on_c, 0, 66, 110
1, 23294, Note_off_c, 0, 66, 110
1, 23294, Note_on_c, 0, 68, 90
1, 23565, Note_off_c, 0, 68, 90
1, 23619, Note_on_c, 0, 66, 112
1, 24357, Note_off_c, 0, 66, 112
1, 25204, Note_on_c, 0, 67, 113
1, 25503, Note_off_c, 0, 67, 113
1, 25503, Note_on_c, 0, 68, 103
1, 25592, Note_off_c, 0, 68, 103
1, 25873, Note_on_c, 0, 67, 111
1, 26620, Note_off_c, 0, 67, 111
1, 26781, Note_on_c, 0, 65, 109
1, 27007, Note_off_c, 0, 65, 109
1, 27007, Note_on_c, 0, 67, 97
1, 27174, Note_off_c, 0, 67, 97
1, 27318, Note_on_c, 0, 65, 109
1, 28417, Note_off_c, 0, 65, 109
1, 28613, Note_on_c, 0, 63, 116
1, 29010, Note_off_c, 0, 63, 116
1, 29010, Note_on_c, 0, 65, 109
1, 29356, Note_off_c, 0, 65, 109
1, 29373, Note_on_c, 0, 63, 118
1, 29667, Note_off_c, 0, 63, 118
1, 29667, Note_on_c, 0, 67, 101
1, 30683, Note_off_c, 0, 67, 101
1, 32141, Note_on_c, 0, 62, 116
1, 32320, Note_off_c, 0, 62, 116
1, 32462, Note_on_c, 0, 60, 105
1, 32750, Note_off_c, 0, 60, 105
1, 32774, Note_on_c, 0, 65, 109
1, 33056, Note_off_c, 0, 65, 109
1, 33056, Note_on_c, 0, 62, 110
1, 33312, Note_off_c, 0, 62, 110
1, 33368, Note_on_c, 0, 64, 107
1, 33750, Note_off_c, 0, 64, 107
1, 33762, Note_on_c, 0, 60, 107
1, 34426, Note_off_c, 0, 60, 107
1, 35449, Note_on_c, 0, 67, 108
1, 35676, Note_off_c, 0, 67, 108
1, 35760, Note_on_c, 0, 65, 106
1, 36059, Note_off_c, 0, 65, 106
1, 36160, Note_on_c, 0, 70, 108
1, 36448, Note_off_c, 0, 70, 108
1, 36448, Note_on_c, 0, 67, 105
1, 37800, Note_off_c, 0, 67, 105
1, 37939, Note_on_c, 0, 58, 98
1, 38231, Note_off_c, 0, 58, 98
1, 38301, Note_on_c, 0, 65, 110
1, 39408, Note_off_c, 0, 65, 110
1, 39408, Note_on_c, 0, 62, 105
1, 39531, Note_off_c, 0, 62, 105
1, 39534, Note_on_c, 0, 63, 100
1, 39660, Note_off_c, 0, 63, 100
1, 39660, Note_on_c, 0, 65, 102
1, 39847, Note_off_c, 0, 65, 102
1, 39875, Note_on_c, 0, 62, 117
1, 40276, Note_off_c, 0, 62, 117
1, 40470, Note_on_c, 0, 58, 83
1, 40593, Note_off_c, 0, 58, 83
1, 40593, Note_on_c, 0, 60, 104
1, 40695, Note_off_c, 0, 60, 104
1, 40695, Note_on_c, 0, 62, 106
1, 40844, Note_off_c, 0, 62, 106
1, 40845, Note_on_c, 0, 58, 100
1, 41483, Note_off_c, 0, 58, 100
1, 41626, Note_on_c, 0, 55, 111
1, 41745, Note_off_c, 0, 55, 111
1, 41745, Note_on_c, 0, 56, 113
1, 41930, Note_off_c, 0, 56, 113
1, 41930, Note_on_c, 0, 58, 103
1, 42074, Note_off_c, 0, 58, 103
1, 42074, Note_on_c, 0, 55, 93
1, 43400, Note_off_c, 0, 55, 93
1, 44200, Note_on_c, 0, 53, 109
1, 44535, Note_off_c, 0, 53, 109
1, 44550, Note_on_c, 0, 50, 109
1, 44694, Note_off_c, 0, 50, 109
1, 44711, Note_on_c, 0, 51, 112
1, 44837, Note_off_c, 0, 51, 112
1, 44847, Note_on_c, 0, 55, 104
1, 44973, Note_off_c, 0, 55, 104
1, 44973, Note_on_c, 0, 58, 99
1, 45119, Note_off_c, 0, 58, 99
1, 45174, Note_on_c, 0, 62, 114
1, 45423, Note_off_c, 0, 62, 114
1, 45502, Note_on_c, 0, 59, 94
1, 45680, Note_off_c, 0, 59, 94
1, 45680, Note_on_c, 0, 60, 95
1, 45861, Note_off_c, 0, 60, 95
1, 45864, Note_on_c, 0, 63, 95
1, 45996, Note_off_c, 0, 63, 95
1, 46072, Note_on_c, 0, 67, 111
1, 46327, Note_off_c, 0, 67, 111
1, 46396, Note_on_c, 0, 62, 101
1, 46550, Note_off_c, 0, 62, 101
1, 46550, Note_on_c, 0, 63, 99
1, 46683, Note_off_c, 0, 63, 99
1, 46696, Note_on_c, 0, 67, 96
1, 46792, Note_off_c, 0, 67, 96
1, 46792, Note_on_c, 0, 70, 101
1, 46902, Note_off_c, 0, 70, 101
1, 46942, Note_on_c, 0, 74, 111
1, 47267, Note_off_c, 0, 74, 111
1, 47267, Note_on_c, 0, 75, 110
1, 47801, Note_off_c, 0, 75, 110
1, 47825, Note_on_c, 0, 70, 99
1, 48229, Note_off_c, 0, 70, 99
1, 49298, Note_on_c, 0, 69, 105
1, 49981, Note_off_c, 0, 69, 105
1, 50106, Note_on_c, 0, 61, 99
1, 50723, Note_off_c, 0, 61, 99
1, 51912, Note_on_c, 0, 60, 109
1, 52155, Note_off_c, 0, 60, 109
1, 52233, Note_on_c, 0, 59, 86
1, 52377, Note_off_c, 0, 59, 86
1, 52390, Note_on_c, 0, 60, 94
1, 52657, Note_off_c, 0, 60, 94
1, 52657, Note_on_c, 0, 63, 107
1, 52883, Note_off_c, 0, 63, 107
1, 52883, Note_on_c, 0, 62, 106
1, 53051, Note_off_c, 0, 62, 106
1, 53071, Note_on_c, 0, 63, 107
1, 53230, Note_off_c, 0, 63, 107
1, 53310, Note_on_c, 0, 64, 108
1, 53514, Note_off_c, 0, 64, 108
1, 53536, Note_on_c, 0, 65, 101
1, 53782, Note_off_c, 0, 65, 101
1, 53782, Note_on_c, 0, 62, 113
1, 54323, Note_off_c, 0, 62, 113
1, 54370, Note_on_c, 0, 58, 97
1, 54684, Note_off_c, 0, 58, 97
1, 56059, Note_on_c, 0, 56, 93
1, 56316, Note_off_c, 0, 56, 93
1, 56322, Note_on_c, 0, 58, 91
1, 56524, Note_off_c, 0, 58, 91
1, 56524, Note_on_c, 0, 60, 102
1, 56719, Note_off_c, 0, 60, 102
1, 56719, Note_on_c, 0, 63, 118
1, 56907, Note_off_c, 0, 63, 118
1, 56944, Note_on_c, 0, 66, 108
1, 57118, Note_off_c, 0, 66, 108
1, 57193, Note_on_c, 0, 67, 107
1, 57359, Note_off_c, 0, 67, 107
1, 57381, Note_on_c, 0, 66, 107
1, 57516, Note_off_c, 0, 66, 107
1, 57593, Note_on_c, 0, 67, 110
1, 57808, Note_off_c, 0, 67, 110
1, 57808, Note_on_c, 0, 63, 114
1, 58037, Note_off_c, 0, 63, 114
1, 58059, Note_on_c, 0, 58, 91
1, 58319, Note_off_c, 0, 58, 91
1, 58330, Note_on_c, 0, 54, 113
1, 58556, Note_off_c, 0, 54, 113
1, 58556, Note_on_c, 0, 55, 112
1, 58682, Note_off_c, 0, 55, 112
1, 58712, Note_on_c, 0, 58, 99
1, 58927, Note_off_c, 0, 58, 99
1, 58931, Note_on_c, 0, 63, 118
1, 59098, Note_off_c, 0, 63, 118
1, 59129, Note_on_c, 0, 62, 109
1, 59371, Note_off_c, 0, 62, 109
1, 59395, Note_on_c, 0, 60, 102
1, 59549, Note_off_c, 0, 60, 102
1, 59549, Note_on_c, 0, 65, 106
1, 59780, Note_off_c, 0, 65, 106
1, 59864, Note_on_c, 0, 58, 93
1, 60378, Note_off_c, 0, 58, 93
1, 60378, Note_on_c, 0, 61, 110
1, 60561, Note_off_c, 0, 61, 110
1, 60620, Note_on_c, 0, 63, 110
1, 60826, Note_off_c, 0, 63, 110
1, 60828, Note_on_c, 0, 65, 102
1, 61061, Note_off_c, 0, 65, 102
1, 61061, Note_on_c, 0, 68, 103
1, 61242, Note_off_c, 0, 68, 103
1, 61242, Note_on_c, 0, 73, 113
1, 61506, Note_off_c, 0, 73, 113
1, 61506, Note_on_c, 0, 68, 114
1, 61944, Note_off_c, 0, 68, 114
1, 62060, Note_on_c, 0, 59, 86
1, 62306, Note_off_c, 0, 59, 86
1, 62306, Note_on_c, 0, 61, 96
1, 62436, Note_off_c, 0, 61, 96
1, 62436, Note_on_c, 0, 62, 99
1, 62710, Note_off_c, 0, 62, 99
1, 62727, Note_on_c, 0, 64, 112
1, 62860, Note_off_c, 0, 64, 112
1, 62860, Note_on_c, 0, 66, 114
1, 63099, Note_off_c, 0, 66, 114
1, 63110, Note_on_c, 0, 64, 112
1, 63292, Note_off_c, 0, 64, 112
1, 63411, Note_on_c, 0, 62, 113
1, 63565, Note_off_c, 0, 62, 113
1, 63565, Note_on_c, 0, 61, 115
1, 63682, Note_off_c, 0, 61, 115
1, 63770, Note_on_c, 0, 59, 99
1, 64133, Note_off_c, 0, 59, 99
1, 64140, Note_on_c, 0, 54, 103
1, 64284, Note_off_c, 0, 54, 103
1, 64294, Note_on_c, 0, 57, 109
1, 64482, Note_off_c, 0, 57, 109
1, 64485, Note_on_c, 0, 54, 107
1, 64618, Note_off_c, 0, 54, 107
1, 64696, Note_on_c, 0, 56, 99
1, 64922, Note_off_c, 0, 56, 99
1, 64979, Note_on_c, 0, 52, 107
1, 65444, Note_off_c, 0, 52, 107
1, 68150, Note_on_c, 0, 68, 116
1, 68366, Note_off_c, 0, 68, 116
1, 68416, Note_on_c, 0, 67, 114
1, 68738, Note_off_c, 0, 67, 114
1, 68738, Note_on_c, 0, 70, 112
1, 69001, Note_off_c, 0, 70, 112
1, 69001, Note_on_c, 0, 68, 114
1, 69283, Note_off_c, 0, 68, 114
1, 69291, Note_on_c, 0, 72, 111
1, 69532, Note_off_c, 0, 72, 111
1, 69591, Note_on_c, 0, 70, 110
1, 69887, Note_off_c, 0, 70, 110
1, 69905, Note_on_c, 0, 73, 111
1, 70185, Note_off_c, 0, 73, 111
1, 70205, Note_on_c, 0, 72, 111
1, 70458, Note_off_c, 0, 72, 111
1, 70482, Note_on_c, 0, 75, 116
1, 71034, Note_off_c, 0, 75, 116
1, 71040, Note_on_c, 0, 72, 108
1, 71720, Note_off_c, 0, 72, 108
1, 71828, Note_on_c, 0, 69, 107
1, 72840, Note_off_c, 0, 69, 107
1, 73161, Note_on_c, 0, 67, 107
1, 73416, Note_off_c, 0, 67, 107
1, 73431, Note_on_c, 0, 63, 113
1, 73729, Note_off_c, 0, 63, 113
1, 73729, Note_on_c, 0, 60, 103
1, 74047, Note_off_c, 0, 60, 103
1, 74047, Note_on_c, 0, 57, 96
1, 74439, Note_off_c, 0, 57, 96
1, 74537, Note_on_c, 0, 62, 111
1, 74896, Note_off_c, 0, 62, 111
1, 74906, Note_on_c, 0, 60, 104
1, 75276, Note_off_c, 0, 60, 104
1, 75293, Note_on_c, 0, 56, 108
1, 76105, Note_off_c, 0, 56, 108
1, 77229, Note_on_c, 0, 68, 117
1, 77469, Note_off_c, 0, 68, 117
1, 77469, Note_on_c, 0, 64, 107
1, 77731, Note_off_c, 0, 64, 107
1, 77759, Note_on_c, 0, 60, 105
1, 77988, Note_off_c, 0, 60, 105
1, 77988, Note_on_c, 0, 56, 103
1, 78183, Note_off_c, 0, 56, 103
1, 78183, Note_on_c, 0, 62, 109
1, 78446, Note_off_c, 0, 62, 109
1, 78522, Note_on_c, 0, 56, 101
1, 79571, Note_off_c, 0, 56, 101
1, 80510, Note_on_c, 0, 67, 112
1, 80755, Note_off_c, 0, 67, 112
1, 80773, Note_on_c, 0, 66, 112
1, 80937, Note_off_c, 0, 66, 112
1, 80940, Note_on_c, 0, 65, 107
1, 81156, Note_off_c, 0, 65, 107
1, 81156, Note_on_c, 0, 64, 109
1, 81379, Note_off_c, 0, 64, 109
1, 81402, Note_on_c, 0, 62, 109
1, 81647, Note_off_c, 0, 62, 109
1, 81648, Note_on_c, 0, 60, 99
1, 81788, Note_off_c, 0, 60, 99
1, 81832, Note_on_c, 0, 59, 97
1, 82089, Note_off_c, 0, 59, 97
1, 82089, Note_on_c, 0, 62, 112
1, 82281, Note_off_c, 0, 62, 112
1, 82281, Note_on_c, 0, 65, 107
1, 82481, Note_off_c, 0, 65, 107
1, 82536, Note_on_c, 0, 69, 110
1, 82733, Note_off_c, 0, 69, 110
1, 82733, Note_on_c, 0, 67, 110
1, 82877, Note_off_c, 0, 67, 110
1, 82921, Note_on_c, 0, 65, 104
1, 83113, Note_off_c, 0, 65, 104
1, 83113, Note_on_c, 0, 64, 108
1, 83335, Note_off_c, 0, 64, 108
1, 83335, Note_on_c, 0, 67, 103
1, 83502, Note_off_c, 0, 67, 103
1, 83584, Note_on_c, 0, 70, 101
1, 83789, Note_off_c, 0, 70, 101
1, 83789, Note_on_c, 0, 74, 103
1, 83980, Note_off_c, 0, 74, 103
1, 84054, Note_on_c, 0, 66, 112
1, 84259, Note_off_c, 0, 66, 112
1, 84259, Note_on_c, 0, 67, 106
1, 84477, Note_off_c, 0, 67, 106
1, 84477, Note_on_c, 0, 70, 104
1, 84740, Note_off_c, 0, 70, 104
1, 84768, Note_on_c, 0, 67, 110
1, 84935, Note_off_c, 0, 67, 110
1, 84935, Note_on_c, 0, 69, 109
1, 85225, Note_off_c, 0, 69, 109
1, 85267, Note_on_c, 0, 64, 106
1, 85672, Note_off_c, 0, 64, 106
1, 87296, Note_on_c, 0, 66, 110
1, 87511, Note_off_c, 0, 66, 110
1, 87521, Note_on_c, 0, 67, 106
1, 87757, Note_off_c, 0, 67, 106
1, 87757, Note_on_c, 0, 63, 119
1, 87976, Note_off_c, 0, 63, 119
1, 87976, Note_on_c, 0, 62, 115
1, 88186, Note_off_c, 0, 62, 115
1, 88243, Note_on_c, 0, 60, 93
1, 88637, Note_off_c, 0, 60, 93
1, 88637, Note_on_c, 0, 66, 105
1, 88877, Note_off_c, 0, 66, 105
1, 88877, Note_on_c, 0, 67, 101
1, 89089, Note_off_c, 0, 67, 101
1, 89089, Note_on_c, 0, 63, 113
1, 89295, Note_off_c, 0, 63, 113
1, 89331, Note_on_c, 0, 60, 102
1, 89529, Note_off_c, 0, 60, 102
1, 89529, Note_on_c, 0, 56, 96
1, 89766, Note_off_c, 0, 56, 96
1, 89802, Note_on_c, 0, 55, 100
1, 89987, Note_off_c, 0, 55, 100
1, 89997, Note_on_c, 0, 53, 96
1, 90240, Note_off_c, 0, 53, 96
1, 90253, Note_on_c, 0, 51, 107
1, 90563, Note_off_c, 0, 51, 107
1, 90564, Note_on_c, 0, 50, 98
1, 91376, Note_off_c, 0, 50, 98
1, 91386, Note_on_c, 0, 58, 87
1, 91962, Note_off_c, 0, 58, 87
1, 94131, Note_on_c, 0, 63, 116
1, 94488, Note_off_c, 0, 63, 116
1, 94592, Note_on_c, 0, 58, 95
1, 95085, Note_off_c, 0, 58, 95
1, 95887, Note_on_c, 0, 65, 109
1, 96192, Note_off_c, 0, 65, 109
1, 96438, Note_on_c, 0, 58, 101
1, 96678, Note_off_c, 0, 58, 101
1, 96688, Note_on_c, 0, 66, 106
1, 97124, Note_off_c, 0, 66, 106
1, 97291, Note_on_c, 0, 58, 93
1, 97476, Note_off_c, 0, 58, 93
1, 97476, Note_on_c, 0, 67, 112
1, 97803, Note_off_c, 0, 67, 112
1, 97999, Note_on_c, 0, 58, 98
1, 98134, Note_off_c, 0, 58, 98
1, 101146, Note_on_c, 0, 68, 120
1, 101387, Note_off_c, 0, 68, 120
1, 101430, Note_on_c, 0, 67, 115
1, 101707, Note_off_c, 0, 67, 115
1, 101707, Note_on_c, 0, 68, 116
1, 101986, Note_off_c, 0, 68, 116
1, 102012, Note_on_c, 0, 67, 112
1, 102333, Note_off_c, 0, 67, 112
1, 102333, Note_on_c, 0, 63, 119
1, 103851, Note_off_c, 0, 63, 119
1, 103857, Note_on_c, 0, 58, 97
1, 104122, Note_off_c, 0, 58, 97
1, 104315, Note_on_c, 0, 64, 119
1, 104716, Note_off_c, 0, 64, 119
1, 104716, Note_on_c, 0, 61, 109
1, 105123, Note_off_c, 0, 61, 109
1, 105167, Note_on_c, 0, 57, 97
1, 105564, Note_off_c, 0, 57, 97
1, 105576, Note_on_c, 0, 55, 105
1, 105982, Note_off_c, 0, 55, 105
1, 105982, Note_on_c, 0, 63, 116
1, 106624, Note_off_c, 0, 63, 116
1, 106813, Note_on_c, 0, 63, 119
1, 107409, Note_off_c, 0, 63, 119
1, 107694, Note_on_c, 0, 60, 102
1, 108264, Note_off_c, 0, 60, 102
1, 108292, Note_on_c, 0, 63, 116
1, 108753, Note_off_c, 0, 63, 116
1, 108926, Note_on_c, 0, 63, 119
1, 109284, Note_off_c, 0, 63, 119
1, 109334, Note_on_c, 0, 67, 106
1, 109990, Note_off_c, 0, 67, 106
1, 110118, Note_on_c, 0, 67, 105
1, 110978, Note_off_c, 0, 67, 105
1, 111042, Note_on_c, 0, 63, 118
1, 111598, Note_off_c, 0, 63, 118
1, 111598, Note_on_c, 0, 58, 85
1, 111997, Note_off_c, 0, 58, 85
1, 112028, Note_on_c, 0, 62, 109
1, 112477, Note_off_c, 0, 62, 109
1, 112480, Note_on_c, 0, 65, 107
1, 112838, Note_off_c, 0, 65, 107
1, 112894, Note_on_c, 0, 63, 116
1, 113308, Note_off_c, 0, 63, 116
1, 113359, Note_on_c, 0, 58, 93
1, 113753, Note_off_c, 0, 58, 93
1, 115316, Note_on_c, 0, 61, 112
1, 115573, Note_off_c, 0, 61, 112
1, 115593, Note_on_c, 0, 64, 113
1, 115887, Note_off_c, 0, 64, 113
1, 115890, Note_on_c, 0, 67, 110
1, 116140, Note_off_c, 0, 67, 110
1, 116153, Note_on_c, 0, 65, 106
1, 116406, Note_off_c, 0, 65, 106
1, 116430, Note_on_c, 0, 68, 107
1, 116687, Note_off_c, 0, 68, 107
1, 116687, Note_on_c, 0, 72, 98
1, 116922, Note_off_c, 0, 72, 98
1, 117046, Note_on_c, 0, 71, 101
1, 117291, Note_off_c, 0, 71, 101
1, 117309, Note_on_c, 0, 68, 99
1, 117561, Note_off_c, 0, 68, 99
1, 117586, Note_on_c, 0, 65, 107
1, 117861, Note_off_c, 0, 65, 107
1, 117876, Note_on_c, 0, 62, 107
1, 118555, Note_off_c, 0, 62, 107
1, 118770, Note_on_c, 0, 70, 108
1, 119099, Note_off_c, 0, 70, 108
1, 119311, Note_on_c, 0, 67, 106
1, 119616, Note_off_c, 0, 67, 106
1, 119704, Note_on_c, 0, 62, 102
1, 120433, Note_off_c, 0, 62, 102
1, 120807, Note_on_c, 0, 65, 106
1, 121101, Note_off_c, 0, 65, 106
1, 121101, Note_on_c, 0, 62, 109
1, 121324, Note_off_c, 0, 62, 109
1, 121395, Note_on_c, 0, 63, 114
1, 121687, Note_off_c, 0, 63, 114
1, 121860, Note_on_c, 0, 58, 99
1, 122853, Note_off_c, 0, 58, 99
1, 123817, Note_on_c, 0, 56, 98
1, 124074, Note_off_c, 0, 56, 98
1, 124094, Note_on_c, 0, 58, 92
1, 124302, Note_off_c, 0, 58, 92
1, 124306, Note_on_c, 0, 60, 102
1, 124491, Note_off_c, 0, 60, 102
1, 124507, Note_on_c, 0, 63, 110
1, 124740, Note_off_c, 0, 63, 110
1, 124750, Note_on_c, 0, 66, 107
1, 124963, Note_off_c, 0, 66, 107
1, 124989, Note_on_c, 0, 67, 104
1, 125218, Note_off_c, 0, 67, 104
1, 125218, Note_on_c, 0, 66, 106
1, 125433, Note_off_c, 0, 66, 106
1, 125433, Note_on_c, 0, 67, 110
1, 125611, Note_off_c, 0, 67, 110
1, 125611, Note_on_c, 0, 63, 118
1, 125821, Note_off_c, 0, 63, 118
1, 125881, Note_on_c, 0, 58, 93
1, 126097, Note_off_c, 0, 58, 93
1, 126150, Note_on_c, 0, 54, 115
1, 126300, Note_off_c, 0, 54, 115
1, 126330, Note_on_c, 0, 55, 107
1, 126501, Note_off_c, 0, 55, 107
1, 126501, Note_on_c, 0, 58, 102
1, 126686, Note_off_c, 0, 58, 102
1, 126736, Note_on_c, 0, 63, 115
1, 126932, Note_off_c, 0, 63, 115
1, 126932, Note_on_c, 0, 62, 105
1, 127141, Note_off_c, 0, 62, 105
1, 127141, Note_on_c, 0, 60, 100
1, 127320, Note_off_c, 0, 60, 100
1, 127342, Note_on_c, 0, 65, 100
1, 127928, Note_off_c, 0, 65, 100
1, 127928, Note_on_c, 0, 62, 111
1, 128089, Note_off_c, 0, 62, 111
1, 128099, Note_on_c, 0, 63, 118
1, 128363, Note_off_c, 0, 63, 118
1, 128363, Note_on_c, 0, 60, 102
1, 128515, Note_off_c, 0, 60, 102
1, 128595, Note_on_c, 0, 56, 95
1, 128804, Note_off_c, 0, 56, 95
1, 128804, Note_on_c, 0, 53, 115
1, 129013, Note_off_c, 0, 53, 115
1, 129013, Note_on_c, 0, 55, 108
1, 129232, Note_off_c, 0, 55, 108
1, 129266, Note_on_c, 0, 53, 109
1, 129416, Note_off_c, 0, 53, 109
1, 129433, Note_on_c, 0, 52, 103
1, 129652, Note_off_c, 0, 52, 103
1, 129652, Note_on_c, 0, 53, 105
1, 129802, Note_off_c, 0, 53, 105
1, 129802, Note_on_c, 0, 57, 96
1, 130891, Note_off_c, 0, 57, 96
1, 131018, Note_on_c, 0, 60, 109
1, 131202, Note_off_c, 0, 60, 109
1, 131239, Note_on_c, 0, 61, 114
1, 131482, Note_off_c, 0, 61, 114
1, 131482, Note_on_c, 0, 57, 112
1, 131653, Note_off_c, 0, 57, 112
1, 131663, Note_on_c, 0, 52, 107
1, 131975, Note_off_c, 0, 52, 107
1, 131978, Note_on_c, 0, 51, 104
1, 132211, Note_off_c, 0, 51, 104
1, 132320, Note_on_c, 0, 56, 100
1, 132630, Note_off_c, 0, 56, 100
1, 132665, Note_on_c, 0, 54, 106
1, 132985, Note_off_c, 0, 54, 106
1, 134642, Note_on_c, 0, 53, 111
1, 134868, Note_off_c, 0, 53, 111
1, 134878, Note_on_c, 0, 52, 103
1, 135122, Note_off_c, 0, 52, 103
1, 135137, Note_on_c, 0, 53, 98
1, 135365, Note_off_c, 0, 53, 98
1, 135383, Note_on_c, 0, 55, 97
1, 135485, Note_off_c, 0, 55, 97
1, 135485, Note_on_c, 0, 56, 102
1, 135787, Note_off_c, 0, 56, 102
1, 135864, Note_on_c, 0, 55, 95
1, 136062, Note_off_c, 0, 55, 95
1, 136062, Note_on_c, 0, 56, 104
1, 136182, Note_off_c, 0, 56, 104
1, 136188, Note_on_c, 0, 58, 104
1, 136407, Note_off_c, 0, 58, 104
1, 136407, Note_on_c, 0, 60, 111
1, 136581, Note_off_c, 0, 60, 111
1, 136629, Note_on_c, 0, 59, 95
1, 136820, Note_off_c, 0, 59, 95
1, 136868, Note_on_c, 0, 60, 101
1, 137030, Note_off_c, 0, 60, 101
1, 137055, Note_on_c, 0, 62, 112
1, 137209, Note_off_c, 0, 62, 112
1, 137209, Note_on_c, 0, 63, 119
1, 137391, Note_off_c, 0, 63, 119
1, 137438, Note_on_c, 0, 62, 108
1, 137597, Note_off_c, 0, 62, 108
1, 137629, Note_on_c, 0, 63, 97
1, 137812, Note_off_c, 0, 63, 97
1, 137813, Note_on_c, 0, 65, 102
1, 138005, Note_off_c, 0, 65, 102
1, 138039, Note_on_c, 0, 67, 109
1, 138219, Note_off_c, 0, 67, 109
1, 138278, Note_on_c, 0, 66, 105
1, 138521, Note_off_c, 0, 66, 105
1, 138527, Note_on_c, 0, 67, 102
1, 138653, Note_off_c, 0, 67, 102
1, 138670, Note_on_c, 0, 68, 99
1, 138841, Note_off_c, 0, 68, 99
1, 138864, Note_on_c, 0, 70, 109
1, 139083, Note_off_c, 0, 70, 109
1, 139083, Note_on_c, 0, 67, 109
1, 139258, Note_off_c, 0, 67, 109
1, 139319, Note_on_c, 0, 68, 112
1, 139572, Note_off_c, 0, 68, 112
1, 139572, Note_on_c, 0, 65, 108
1, 139774, Note_off_c, 0, 65, 108
1, 139774, Note_on_c, 0, 67, 110
1, 140428, Note_off_c, 0, 67, 110
1, 140452, Note_on_c, 0, 70, 109
1, 140898, Note_off_c, 0, 70, 109
1, 141315, Note_on_c, 0, 67, 111
1, 141527, Note_off_c, 0, 67, 111
1, 141547, Note_on_c, 0, 68, 111
1, 141691, Note_off_c, 0, 68, 111
1, 141704, Note_on_c, 0, 67, 105
1, 141888, Note_off_c, 0, 67, 105
1, 141891, Note_on_c, 0, 65, 108
1, 142043, Note_off_c, 0, 65, 108
1, 142123, Note_on_c, 0, 64, 109
1, 142445, Note_off_c, 0, 64, 109
1, 142445, Note_on_c, 0, 72, 107
1, 142779, Note_off_c, 0, 72, 107
1, 143983, Note_on_c, 0, 75, 110
1, 144147, Note_off_c, 0, 75, 110
1, 144147, Note_on_c, 0, 72, 92
1, 144267, Note_off_c, 0, 72, 92
1, 144287, Note_on_c, 0, 68, 102
1, 144420, Note_off_c, 0, 68, 102
1, 144423, Note_on_c, 0, 65, 105
1, 144656, Note_off_c, 0, 65, 105
1, 144748, Note_on_c, 0, 63, 122
1, 144912, Note_off_c, 0, 63, 122
1, 144912, Note_on_c, 0, 62, 115
1, 145073, Note_off_c, 0, 62, 115
1, 145171, Note_on_c, 0, 60, 99
1, 145335, Note_off_c, 0, 60, 99
1, 145369, Note_on_c, 0, 59, 109
1, 145540, Note_off_c, 0, 59, 109
1, 145643, Note_on_c, 0, 60, 111
1, 145773, Note_off_c, 0, 60, 111
1, 145773, Note_on_c, 0, 62, 116
1, 145889, Note_off_c, 0, 62, 116
1, 145889, Note_on_c, 0, 67, 105
1, 146383, Note_off_c, 0, 67, 105
1, 146406, Note_on_c, 0, 62, 106
1, 146683, Note_off_c, 0, 62, 106
1, 146683, Note_on_c, 0, 65, 109
1, 146963, Note_off_c, 0, 65, 109
1, 147090, Note_on_c, 0, 63, 121
1, 147428, Note_off_c, 0, 63, 121
1, 148244, Note_on_c, 0, 62, 111
1, 148747, Note_off_c, 0, 62, 111
1, 148747, Note_on_c, 0, 60, 104
1, 149199, Note_off_c, 0, 60, 104
1, 150756, Note_on_c, 0, 67, 118
1, 151067, Note_off_c, 0, 67, 118
1, 151104, Note_on_c, 0, 63, 113
1, 151230, Note_off_c, 0, 63, 113
1, 151240, Note_on_c, 0, 60, 102
1, 151401, Note_off_c, 0, 60, 102
1, 151401, Note_on_c, 0, 56, 94
1, 151702, Note_off_c, 0, 56, 94
1, 151860, Note_on_c, 0, 65, 115
1, 152165, Note_off_c, 0, 65, 115
1, 152178, Note_on_c, 0, 62, 106
1, 152274, Note_off_c, 0, 62, 106
1, 152294, Note_on_c, 0, 58, 106
1, 152424, Note_off_c, 0, 58, 106
1, 152424, Note_on_c, 0, 55, 101
1, 152609, Note_off_c, 0, 55, 101
1, 154113, Note_on_c, 0, 63, 127
1, 154394, Note_off_c, 0, 63, 127
1, 154407, Note_on_c, 0, 60, 96
1, 154619, Note_off_c, 0, 60, 96
1, 154619, Note_on_c, 0, 56, 91
1, 154817, Note_off_c, 0, 56, 91
1, 154817, Note_on_c, 0, 53, 97
1, 155053, Note_off_c, 0, 53, 97
1, 155080, Note_on_c, 0, 62, 116
1, 155450, Note_off_c, 0, 62, 116
1, 155456, Note_on_c, 0, 61, 109
1, 155740, Note_off_c, 0, 61, 109
1, 155880, Note_on_c, 0, 60, 110
1, 156267, Note_off_c, 0, 60, 110
1, 156297, Note_on_c, 0, 59, 100
1, 156653, Note_off_c, 0, 59, 100
1, 156663, Note_on_c, 0, 57, 102
1, 157910, Note_off_c, 0, 57, 102
1, 157938, Note_on_c, 0, 52, 100
1, 158157, Note_off_c, 0, 52, 100
1, 158157, Note_on_c, 0, 56, 103
1, 158558, Note_off_c, 0, 56, 103
1, 158558, Note_on_c, 0, 54, 109
1, 158924, Note_off_c, 0, 54, 109
1, 158924, Note_on_c, 0, 61, 113
1, 159908, Note_off_c, 0, 61, 113
1, 159908, Note_on_c, 0, 58, 97
1, 160336, Note_off_c, 0, 58, 97
1, 160438, Note_on_c, 0, 58, 95
1, 160744, Note_off_c, 0, 58, 95
1, 163040, Note_on_c, 0, 58, 109
1, 163372, Note_off_c, 0, 58, 109
1, 163372, Note_on_c, 0, 67, 116
1, 163645, Note_off_c, 0, 67, 116
1, 163837, Note_on_c, 0, 67, 117
1, 164088, Note_off_c, 0, 67, 117
1, 164155, Note_on_c, 0, 68, 108
1, 164451, Note_off_c, 0, 68, 108
1, 164604, Note_on_c, 0, 68, 111
1, 164844, Note_off_c, 0, 68, 111
1, 164967, Note_on_c, 0, 70, 116
1, 165449, Note_off_c, 0, 70, 116
1, 165449, Note_on_c, 0, 58, 98
1, 166272, Note_off_c, 0, 58, 98
1, 166272, Note_on_c, 0, 67, 116
1, 166640, Note_off_c, 0, 67, 116
1, 166654, Note_on_c, 0, 63, 122
1, 167016, Note_off_c, 0, 63, 122
1, 167117, Note_on_c, 0, 63, 121
1, 167479, Note_off_c, 0, 63, 121
1, 168086, Note_on_c, 0, 58, 109
1, 168339, Note_off_c, 0, 58, 109
1, 168352, Note_on_c, 0, 61, 106
1, 168834, Note_off_c, 0, 61, 106
1, 168847, Note_on_c, 0, 68, 108
1, 169283, Note_off_c, 0, 68, 108
1, 169652, Note_on_c, 0, 68, 114
1, 170109, Note_off_c, 0, 68, 114
1, 170109, Note_on_c, 0, 66, 110
1, 170417, Note_off_c, 0, 66, 110
1, 170470, Note_on_c, 0, 73, 111
1, 170747, Note_off_c, 0, 73, 111
1, 170764, Note_on_c, 0, 71, 112
1, 171176, Note_off_c, 0, 71, 112
1, 171229, Note_on_c, 0, 66, 103
1, 172566, Note_off_c, 0, 66, 103
1, 174156, Note_on_c, 0, 65, 108
1, 174392, Note_off_c, 0, 65, 108
1, 174419, Note_on_c, 0, 72, 104
1, 174652, Note_off_c, 0, 72, 104
1, 174652, Note_on_c, 0, 68, 109
1, 174850, Note_off_c, 0, 68, 109
1, 174850, Note_on_c, 0, 65, 102
1, 175055, Note_off_c, 0, 65, 102
1, 175055, Note_on_c, 0, 61, 105
1, 175327, Note_off_c, 0, 61, 105
1, 176597, Note_on_c, 0, 71, 115
1, 176854, Note_off_c, 0, 71, 115
1, 176854, Note_on_c, 0, 67, 110
1, 177004, Note_off_c, 0, 67, 110
1, 177028, Note_on_c, 0, 64, 111
1, 177234, Note_off_c, 0, 64, 111
1, 177291, Note_on_c, 0, 61, 102
1, 177540, Note_off_c, 0, 61, 102
1, 177540, Note_on_c, 0, 67, 109
1, 177793, Note_off_c, 0, 67, 109
1, 177793, Note_on_c, 0, 68, 114
1, 178036, Note_off_c, 0, 68, 114
1, 178049, Note_on_c, 0, 65, 115
1, 178158, Note_off_c, 0, 65, 115
1, 178158, Note_on_c, 0, 61, 113
1, 178404, Note_off_c, 0, 61, 113
1, 178404, Note_on_c, 0, 58, 101
1, 178619, Note_off_c, 0, 58, 101
1, 178773, Note_on_c, 0, 63, 123
1, 178951, Note_off_c, 0, 63, 123
1, 178964, Note_on_c, 0, 62, 115
1, 179186, Note_off_c, 0, 62, 115
1, 179186, Note_on_c, 0, 61, 106
1, 179405, Note_off_c, 0, 61, 106
1, 179405, Note_on_c, 0, 65, 108
1, 179605, Note_off_c, 0, 65, 108
1, 179610, Note_on_c, 0, 60, 107
1, 179843, Note_off_c, 0, 60, 107
1, 179843, Note_on_c, 0, 59, 104
1, 180080, Note_off_c, 0, 59, 104
1, 180088, Note_on_c, 0, 58, 93
1, 180495, Note_off_c, 0, 58, 93
1, 181548, Note_on_c, 0, 67, 112
1, 181719, Note_off_c, 0, 67, 112
1, 181719, Note_on_c, 0, 66, 112
1, 181835, Note_off_c, 0, 66, 112
1, 181852, Note_on_c, 0, 65, 114
1, 181954, Note_off_c, 0, 65, 114
1, 181954, Note_on_c, 0, 63, 121
1, 182123, Note_off_c, 0, 63, 121
1, 182124, Note_on_c, 0, 62, 110
1, 182324, Note_off_c, 0, 62, 110
1, 182363, Note_on_c, 0, 60, 105
1, 182593, Note_off_c, 0, 60, 105
1, 182612, Note_on_c, 0, 58, 98
1, 182779, Note_off_c, 0, 58, 98
1, 182792, Note_on_c, 0, 57, 101
1, 183089, Note_off_c, 0, 57, 101
1, 184522, Note_on_c, 0, 68, 110
1, 184727, Note_off_c, 0, 68, 110
1, 184727, Note_on_c, 0, 67, 109
1, 184915, Note_off_c, 0, 67, 109
1, 184915, Note_on_c, 0, 66, 104
1, 185096, Note_off_c, 0, 66, 104
1, 185181, Note_on_c, 0, 58, 91
1, 185321, Note_off_c, 0, 58, 91
1, 185327, Note_on_c, 0, 62, 102
1, 185520, Note_off_c, 0, 62, 102
1, 185549, Note_on_c, 0, 66, 109
1, 185777, Note_off_c, 0, 66, 109
1, 185815, Note_on_c, 0, 62, 112
1, 185955, Note_off_c, 0, 62, 112
1, 185985, Note_on_c, 0, 60, 103
1, 186159, Note_off_c, 0, 60, 103
1, 186196, Note_on_c, 0, 56, 112
1, 186421, Note_off_c, 0, 56, 112
1, 186435, Note_on_c, 0, 54, 112
1, 186630, Note_off_c, 0, 54, 112
1, 186721, Note_on_c, 0, 55, 100
1, 187435, Note_off_c, 0, 55, 100
1, 188104, Note_on_c, 0, 67, 114
1, 188729, Note_off_c, 0, 67, 114
1, 189423, Note_on_c, 0, 65, 110
1, 189659, Note_off_c, 0, 65, 110
1, 189864, Note_on_c, 0, 64, 109
1, 190237, Note_off_c, 0, 64, 109
1, 190254, Note_on_c, 0, 60, 98
1, 190512, Note_off_c, 0, 60, 98
1, 190613, Note_on_c, 0, 65, 108
1, 190960, Note_off_c, 0, 65, 108
1, 191020, Note_on_c, 0, 65, 111
1, 191250, Note_off_c, 0, 65, 111
1, 191343, Note_on_c, 0, 66, 111
1, 191852, Note_off_c, 0, 66, 111
1, 191852, Note_on_c, 0, 67, 104
1, 192973, Note_off_c, 0, 67, 104
1, 192997, Note_on_c, 0, 65, 114
1, 193471, Note_off_c, 0, 65, 114
1, 194370, Note_on_c, 0, 72, 105
1, 196023, Note_off_c, 0, 72, 105
1, 196282, Note_on_c, 0, 71, 109
1, 196683, Note_off_c, 0, 71, 109
1, 196683, Note_on_c, 0, 70, 111
1, 197152, Note_off_c, 0, 70, 111
1, 197152, Note_on_c, 0, 77, 105
1, 198486, Note_off_c, 0, 77, 105
1, 200295, Note_on_c, 0, 70, 109
1, 200576, Note_off_c, 0, 70, 109
1, 200623, Note_on_c, 0, 74, 109
1, 200850, Note_off_c, 0, 74, 109
1, 200889, Note_on_c, 0, 75, 113
1, 201144, Note_off_c, 0, 75, 113
1, 201224, Note_on_c, 0, 70, 77
1, 201388, Note_off_c, 0, 70, 77
1, 201487, Note_on_c, 0, 74, 112
1, 201785, Note_off_c, 0, 74, 112
1, 201994, Note_on_c, 0, 75, 117
1, 202721, Note_off_c, 0, 75, 117
1, 203815, Note_on_c, 0, 69, 107
1, 204122, Note_off_c, 0, 69, 107
1, 204122, Note_on_c, 0, 70, 107
1, 204389, Note_off_c, 0, 70, 107
1, 204392, Note_on_c, 0, 66, 81
1, 204720, Note_off_c, 0, 66, 81
1, 204747, Note_on_c, 0, 69, 104
1, 205258, Note_off_c, 0, 69, 104
1, 205298, Note_on_c, 0, 70, 97
1, 206239, Note_off_c, 0, 70, 97
1, 207039, Note_on_c, 0, 63, 119
1, 207269, Note_off_c, 0, 63, 119
1, 207364, Note_on_c, 0, 66, 108
1, 207641, Note_off_c, 0, 66, 108
1, 207646, Note_on_c, 0, 67, 103
1, 207928, Note_off_c, 0, 67, 103
1, 207941, Note_on_c, 0, 63, 90
1, 208274, Note_off_c, 0, 63, 90
1, 208286, Note_on_c, 0, 66, 104
1, 208779, Note_off_c, 0, 66, 104
1, 208796, Note_on_c, 0, 67, 106
1, 209433, Note_off_c, 0, 67, 106
1, 209450, Note_on_c, 0, 63, 120
1, 210376, Note_off_c, 0, 63, 120
1, 210567, Note_on_c, 0, 65, 109
1, 211057, Note_off_c, 0, 65, 109
1, 211057, Note_on_c, 0, 63, 113
1, 211387, Note_off_c, 0, 63, 113
1, 211403, Note_on_c, 0, 68, 109
1, 211862, Note_off_c, 0, 68, 109
1, 211892, Note_on_c, 0, 61, 109
1, 212468, Note_off_c, 0, 61, 109
1, 213893, Note_on_c, 0, 67, 108
1, 214115, Note_off_c, 0, 67, 108
1, 214115, Note_on_c, 0, 68, 112
1, 214310, Note_off_c, 0, 68, 112
1, 214310, Note_on_c, 0, 64, 111
1, 214503, Note_off_c, 0, 64, 111
1, 214511, Note_on_c, 0, 67, 110
1, 214721, Note_off_c, 0, 67, 110
1, 214761, Note_on_c, 0, 65, 89
1, 215256, Note_off_c, 0, 65, 89
1, 215467, Note_on_c, 0, 67, 111
1, 215646, Note_off_c, 0, 67, 111
1, 215765, Note_on_c, 0, 68, 105
1, 215934, Note_off_c, 0, 68, 105
1, 215953, Note_on_c, 0, 64, 109
1, 216179, Note_off_c, 0, 64, 109
1, 216179, Note_on_c, 0, 67, 113
1, 216377, Note_off_c, 0, 67, 113
1, 216377, Note_on_c, 0, 65, 109
1, 216607, Note_off_c, 0, 65, 109
1, 216626, Note_on_c, 0, 63, 120
1, 216813, Note_off_c, 0, 63, 120
1, 216817, Note_on_c, 0, 62, 112
1, 217043, Note_off_c, 0, 62, 112
1, 217043, Note_on_c, 0, 60, 103
1, 217275, Note_off_c, 0, 60, 103
1, 217285, Note_on_c, 0, 59, 97
1, 217507, Note_off_c, 0, 59, 97
1, 217507, Note_on_c, 0, 60, 89
1, 217671, Note_off_c, 0, 60, 89
1, 217671, Note_on_c, 0, 67, 113
1, 217870, Note_off_c, 0, 67, 113
1, 217896, Note_on_c, 0, 65, 113
1, 218061, Note_off_c, 0, 65, 113
1, 218061, Note_on_c, 0, 63, 114
1, 218323, Note_off_c, 0, 63, 114
1, 218323, Note_on_c, 0, 60, 102
1, 218533, Note_off_c, 0, 60, 102
1, 218552, Note_on_c, 0, 56, 96
1, 218764, Note_off_c, 0, 56, 96
1, 218764, Note_on_c, 0, 53, 103
1, 218908, Note_off_c, 0, 53, 103
1, 218935, Note_on_c, 0, 55, 99
1, 219135, Note_off_c, 0, 55, 99
1, 219160, Note_on_c, 0, 53, 98
1, 219402, Note_off_c, 0, 53, 98
1, 219423, Note_on_c, 0, 52, 115
1, 219618, Note_off_c, 0, 52, 115
1, 219631, Note_on_c, 0, 53, 112
1, 219771, Note_off_c, 0, 53, 112
1, 219771, Note_on_c, 0, 58, 99
1, 219979, Note_off_c, 0, 58, 99
1, 220103, Note_on_c, 0, 63, 111
1, 220442, Note_off_c, 0, 63, 111
1, 222955, Note_on_c, 0, 61, 109
1, 223157, Note_off_c, 0, 61, 109
1, 223215, Note_on_c, 0, 64, 114
1, 223424, Note_off_c, 0, 64, 114
1, 223424, Note_on_c, 0, 67, 114
1, 223681, Note_off_c, 0, 67, 114
1, 223681, Note_on_c, 0, 64, 114
1, 223852, Note_off_c, 0, 64, 114
1, 223852, Note_on_c, 0, 65, 110
1, 224036, Note_off_c, 0, 65, 110
1, 224081, Note_on_c, 0, 67, 109
1, 224209, Note_off_c, 0, 67, 109
1, 224262, Note_on_c, 0, 68, 112
1, 224456, Note_off_c, 0, 68, 112
1, 224470, Note_on_c, 0, 70, 112
1, 224648, Note_off_c, 0, 70, 112
1, 224648, Note_on_c, 0, 71, 116
1, 224795, Note_off_c, 0, 71, 116
1, 224795, Note_on_c, 0, 73, 110
1, 224966, Note_off_c, 0, 73, 110
1, 224966, Note_on_c, 0, 70, 110
1, 225150, Note_off_c, 0, 70, 110
1, 225311, Note_on_c, 0, 68, 109
1, 225491, Note_off_c, 0, 68, 109
1, 225491, Note_on_c, 0, 67, 109
1, 225754, Note_off_c, 0, 67, 109
1, 225754, Note_on_c, 0, 65, 105
1, 226002, Note_off_c, 0, 65, 105
1, 226002, Note_on_c, 0, 63, 111
1, 226173, Note_off_c, 0, 63, 111
1, 226173, Note_on_c, 0, 62, 108
1, 226378, Note_off_c, 0, 62, 108
1, 226388, Note_on_c, 0, 65, 113
1, 226657, Note_off_c, 0, 65, 113
1, 226664, Note_on_c, 0, 62, 105
1, 226856, Note_off_c, 0, 62, 105
1, 226873, Note_on_c, 0, 63, 109
1, 227034, Note_off_c, 0, 63, 109
1, 227034, Note_on_c, 0, 65, 109
1, 227199, Note_off_c, 0, 65, 109
1, 227225, Note_on_c, 0, 62, 118
1, 227802, Note_off_c, 0, 62, 118
1, 227968, Note_on_c, 0, 62, 118
1, 228147, Note_off_c, 0, 62, 118
1, 228303, Note_on_c, 0, 58, 91
1, 228495, Note_off_c, 0, 58, 91
1, 228495, Note_on_c, 0, 60, 102
1, 228665, Note_off_c, 0, 60, 102
1, 228741, Note_on_c, 0, 62, 109
1, 228901, Note_off_c, 0, 62, 109
1, 228901, Note_on_c, 0, 58, 103
1, 229106, Note_off_c, 0, 58, 103
1, 229106, Note_on_c, 0, 55, 89
1, 229360, Note_off_c, 0, 55, 89
1, 229376, Note_on_c, 0, 56, 109
1, 229588, Note_off_c, 0, 56, 109
1, 229588, Note_on_c, 0, 58, 112
1, 229773, Note_off_c, 0, 58, 112
1, 229834, Note_on_c, 0, 55, 88
1, 230183, Note_off_c, 0, 55, 88
1, 230207, Note_on_c, 0, 51, 102
1, 230371, Note_off_c, 0, 51, 102
1, 230371, Note_on_c, 0, 53, 101
1, 230583, Note_off_c, 0, 53, 101
1, 230583, Note_on_c, 0, 50, 101
1, 230853, Note_off_c, 0, 50, 101
1, 230876, Note_on_c, 0, 46, 115
1, 231453, Note_off_c, 0, 46, 115
1, 233765, Note_on_c, 0, 51, 111
1, 233998, Note_off_c, 0, 51, 111
1, 233998, Note_on_c, 0, 48, 96
1, 234274, Note_off_c, 0, 48, 96
1, 234346, Note_on_c, 0, 51, 93
1, 234548, Note_off_c, 0, 51, 93
1, 234548, Note_on_c, 0, 55, 112
1, 234719, Note_off_c, 0, 55, 112
1, 234719, Note_on_c, 0, 60, 111
1, 235020, Note_off_c, 0, 60, 111
1, 235079, Note_on_c, 0, 58, 96
1, 236249, Note_off_c, 0, 58, 96
1, 236338, Note_on_c, 0, 54, 103
1, 236673, Note_off_c, 0, 54, 103
1, 236999, Note_on_c, 0, 49, 92
1, 237194, Note_off_c, 0, 49, 92
1, 237194, Note_on_c, 0, 54, 102
1, 237592, Note_off_c, 0, 54, 102
1, 237670, Note_on_c, 0, 57, 100
1, 238053, Note_off_c, 0, 57, 100
1, 238125, Note_on_c, 0, 64, 121
1, 238361, Note_off_c, 0, 64, 121
1, 238361, Note_on_c, 0, 66, 108
1, 238565, Note_off_c, 0, 66, 108
1, 238613, Note_on_c, 0, 63, 120
1, 239496, Note_off_c, 0, 63, 120
1, 240348, Note_on_c, 0, 60, 108
1, 240577, Note_off_c, 0, 60, 108
1, 240577, Note_on_c, 0, 62, 106
1, 240819, Note_off_c, 0, 62, 106
1, 240819, Note_on_c, 0, 63, 114
1, 241014, Note_off_c, 0, 63, 114
1, 241019, Note_on_c, 0, 65, 94
1, 241160, Note_off_c, 0, 65, 94
1, 241160, Note_on_c, 0, 67, 114
1, 241365, Note_off_c, 0, 67, 114
1, 241365, Note_on_c, 0, 68, 116
1, 241520, Note_off_c, 0, 68, 116
1, 241549, Note_on_c, 0, 64, 111
1, 241763, Note_off_c, 0, 64, 111
1, 241785, Note_on_c, 0, 67, 110
1, 241980, Note_off_c, 0, 67, 110
1, 241980, Note_on_c, 0, 65, 111
1, 242195, Note_off_c, 0, 65, 111
1, 242195, Note_on_c, 0, 63, 112
1, 242438, Note_off_c, 0, 63, 112
1, 242443, Note_on_c, 0, 62, 108
1, 242593, Note_off_c, 0, 62, 108
1, 242593, Note_on_c, 0, 60, 102
1, 242806, Note_off_c, 0, 60, 102
1, 242811, Note_on_c, 0, 59, 95
1, 243065, Note_off_c, 0, 59, 95
1, 243069, Note_on_c, 0, 60, 86
1, 243225, Note_off_c, 0, 60, 86
1, 243225, Note_on_c, 0, 67, 113
1, 243478, Note_off_c, 0, 67, 113
1, 243478, Note_on_c, 0, 65, 112
1, 243596, Note_off_c, 0, 65, 112
1, 243633, Note_on_c, 0, 63, 113
1, 243886, Note_off_c, 0, 63, 113
1, 243886, Note_on_c, 0, 60, 101
1, 244085, Note_off_c, 0, 60, 101
1, 244142, Note_on_c, 0, 56, 115
1, 244368, Note_off_c, 0, 56, 115
1, 244368, Note_on_c, 0, 53, 107
1, 244558, Note_off_c, 0, 53, 107
1, 244558, Note_on_c, 0, 55, 97
1, 244743, Note_off_c, 0, 55, 97
1, 244743, Note_on_c, 0, 53, 92
1, 244926, Note_off_c, 0, 53, 92
1, 245005, Note_on_c, 0, 52, 96
1, 245151, Note_off_c, 0, 52, 96
1, 245151, Note_on_c, 0, 53, 104
1, 245307, Note_off_c, 0, 53, 104
1, 245307, Note_on_c, 0, 58, 100
1, 245668, Note_off_c, 0, 58, 100
1, 246920, Note_on_c, 0, 63, 118
1, 247228, Note_off_c, 0, 63, 118
1, 247343, Note_on_c, 0, 63, 122
1, 247562, Note_off_c, 0, 63, 122
1, 247562, Note_on_c, 0, 67, 109
1, 247788, Note_off_c, 0, 67, 109
1, 247833, Note_on_c, 0, 64, 111
1, 248014, Note_off_c, 0, 64, 111
1, 248014, Note_on_c, 0, 65, 106
1, 248238, Note_off_c, 0, 65, 106
1, 248247, Note_on_c, 0, 67, 107
1, 248461, Note_off_c, 0, 67, 107
1, 248461, Note_on_c, 0, 68, 113
1, 248597, Note_off_c, 0, 68, 113
1, 248597, Note_on_c, 0, 64, 109
1, 248781, Note_off_c, 0, 64, 109
1, 248849, Note_on_c, 0, 60, 106
1, 249014, Note_off_c, 0, 60, 106
1, 249014, Note_on_c, 0, 56, 102
1, 249218, Note_off_c, 0, 56, 102
1, 249305, Note_on_c, 0, 52, 112
1, 249456, Note_off_c, 0, 52, 112
1, 249456, Note_on_c, 0, 55, 113
1, 249670, Note_off_c, 0, 55, 113
1, 249670, Note_on_c, 0, 53, 111
1, 249876, Note_off_c, 0, 53, 111
1, 249927, Note_on_c, 0, 52, 114
1, 250112, Note_off_c, 0, 52, 114
1, 250112, Note_on_c, 0, 53, 109
1, 250277, Note_off_c, 0, 53, 109
1, 250277, Note_on_c, 0, 56, 97
1, 250429, Note_off_c, 0, 56, 97
1, 250535, Note_on_c, 0, 60, 106
1, 250752, Note_off_c, 0, 60, 106
1, 251041, Note_on_c, 0, 59, 95
1, 251275, Note_off_c, 0, 59, 95
1, 251275, Note_on_c, 0, 61, 107
1, 251499, Note_off_c, 0, 61, 107
1, 251499, Note_on_c, 0, 62, 109
1, 251720, Note_off_c, 0, 62, 109
1, 251766, Note_on_c, 0, 64, 101
1, 251922, Note_off_c, 0, 64, 101
1, 251922, Note_on_c, 0, 66, 115
1, 252127, Note_off_c, 0, 66, 115
1, 252150, Note_on_c, 0, 62, 113
1, 252349, Note_off_c, 0, 62, 113
1, 252349, Note_on_c, 0, 59, 94
1, 252586, Note_off_c, 0, 59, 94
1, 252621, Note_on_c, 0, 55, 105
1, 252811, Note_off_c, 0, 55, 105
1, 252811, Note_on_c, 0, 58, 91
1, 253659, Note_off_c, 0, 58, 91
1, 254380, Note_on_c, 0, 67, 116
1, 254633, Note_off_c, 0, 67, 116
1, 254633, Note_on_c, 0, 68, 111
1, 254818, Note_off_c, 0, 68, 111
1, 254818, Note_on_c, 0, 63, 123
1, 255023, Note_off_c, 0, 63, 123
1, 255256, Note_on_c, 0, 65, 110
1, 255680, Note_off_c, 0, 65, 110
1, 255699, Note_on_c, 0, 62, 115
1, 255942, Note_off_c, 0, 62, 115
1, 256180, Note_on_c, 0, 63, 119
1, 256764, Note_off_c, 0, 63, 119
1, 256793, Note_on_c, 0, 60, 106
1, 257012, Note_off_c, 0, 60, 106
1, 257031, Note_on_c, 0, 62, 119
1, 257271, Note_off_c, 0, 62, 119
1, 257284, Note_on_c, 0, 58, 102
1, 257737, Note_off_c, 0, 58, 102
1, 258575, Note_on_c, 0, 60, 113
1, 258794, Note_off_c, 0, 60, 113
1, 258794, Note_on_c, 0, 63, 122
1, 259019, Note_off_c, 0, 63, 122
1, 259061, Note_on_c, 0, 67, 100
1, 259295, Note_off_c, 0, 67, 100
1, 259295, Note_on_c, 0, 70, 87
1, 259494, Note_off_c, 0, 70, 87
1, 259494, Note_on_c, 0, 74, 117
1, 259732, Note_off_c, 0, 74, 117
1, 259732, Note_on_c, 0, 75, 115
1, 259858, Note_off_c, 0, 75, 115
1, 259960, Note_on_c, 0, 75, 115
1, 260068, Note_off_c, 0, 75, 115
1, 260203, Note_on_c, 0, 75, 113
1, 260354, Note_off_c, 0, 75, 113
1, 260460, Note_on_c, 0, 75, 113
1, 260994, Note_off_c, 0, 75, 113
1, 262800, Note_on_c, 0, 72, 112
1, 262990, Note_off_c, 0, 72, 112
1, 262990, Note_on_c, 0, 73, 111
1, 263381, Note_off_c, 0, 73, 111
1, 263638, Note_on_c, 0, 73, 107
1, 263972, Note_off_c, 0, 73, 107
1, 264139, Note_on_c, 0, 73, 106
1, 264338, Note_off_c, 0, 73, 106
1, 264474, Note_on_c, 0, 73, 103
1, 265093, Note_off_c, 0, 73, 103
1, 266638, Note_on_c, 0, 75, 121
1, 267379, Note_off_c, 0, 75, 121
1, 267593, Note_on_c, 0, 72, 109
1, 267975, Note_off_c, 0, 72, 109
1, 268082, Note_on_c, 0, 68, 115
1, 268413, Note_off_c, 0, 68, 115
1, 268474, Note_on_c, 0, 65, 114
1, 268779, Note_off_c, 0, 65, 114
1, 268946, Note_on_c, 0, 60, 106
1, 269296, Note_off_c, 0, 60, 106
1, 269369, Note_on_c, 0, 63, 121
1, 269644, Note_off_c, 0, 63, 121
1, 269827, Note_on_c, 0, 60, 108
1, 270110, Note_off_c, 0, 60, 108
1, 270187, Note_on_c, 0, 63, 122
1, 270457, Note_off_c, 0, 63, 122
1, 270591, Note_on_c, 0, 60, 107
1, 270848, Note_off_c, 0, 60, 107
1, 270970, Note_on_c, 0, 62, 120
1, 271270, Note_off_c, 0, 62, 120
1, 271423, Note_on_c, 0, 67, 107
1, 272577, Note_off_c, 0, 67, 107
1, 272628, Note_on_c, 0, 63, 119
1, 273220, Note_off_c, 0, 63, 119
1, 273991, Note_on_c, 0, 68, 113
1, 274376, Note_off_c, 0, 68, 113
1, 274376, Note_on_c, 0, 65, 110
1, 274769, Note_off_c, 0, 65, 110
1, 274892, Note_on_c, 0, 61, 103
1, 275407, Note_off_c, 0, 61, 103
1, 275637, Note_on_c, 0, 66, 110
1, 276051, Note_off_c, 0, 66, 110
1, 276051, Note_on_c, 0, 63, 120
1, 276500, Note_off_c, 0, 63, 120
1, 276518, Note_on_c, 0, 59, 99
1, 276959, Note_off_c, 0, 59, 99
1, 279084, Note_on_c, 0, 72, 114
1, 280105, Note_off_c, 0, 72, 114
1, 280280, Note_on_c, 0, 70, 109
1, 280577, Note_off_c, 0, 70, 109
1, 280683, Note_on_c, 0, 68, 111
1, 281026, Note_off_c, 0, 68, 111
1, 281161, Note_on_c, 0, 67, 111
1, 281487, Note_off_c, 0, 67, 111
1, 281536, Note_on_c, 0, 65, 110
1, 281879, Note_off_c, 0, 65, 110
1, 281907, Note_on_c, 0, 63, 118
1, 282331, Note_off_c, 0, 63, 118
1, 282343, Note_on_c, 0, 62, 112
1, 282734, Note_off_c, 0, 62, 112
1, 282767, Note_on_c, 0, 61, 104
1, 283141, Note_off_c, 0, 61, 104
1, 283141, Note_on_c, 0, 63, 119
1, 283509, Note_off_c, 0, 63, 119
1, 283544, Note_on_c, 0, 65, 110
1, 284002, Note_off_c, 0, 65, 110
1, 284002, Note_on_c, 0, 67, 108
1, 284347, Note_off_c, 0, 67, 108
1, 284416, Note_on_c, 0, 72, 103
1, 284646, Note_off_c, 0, 72, 103
1, 284844, Note_on_c, 0, 70, 105
1, 285219, Note_off_c, 0, 70, 105
1, 285219, Note_on_c, 0, 69, 106
1, 285591, Note_off_c, 0, 69, 106
1, 285688, Note_on_c, 0, 70, 102
1, 286172, Note_off_c, 0, 70, 102
1, 286252, Note_on_c, 0, 75, 108
1, 286690, Note_off_c, 0, 75, 108
1, 286704, Note_on_c, 0, 72, 100
1, 287121, Note_off_c, 0, 72, 100
1, 289390, Note_on_c, 0, 74, 103
1, 289877, Note_off_c, 0, 74, 103
1, 290014, Note_on_c, 0, 68, 110
1, 290979, Note_off_c, 0, 68, 110
1, 292758, Note_on_c, 0, 74, 101
1, 292945, Note_off_c, 0, 74, 101
1, 292981, Note_on_c, 0, 73, 108
1, 293168, Note_off_c, 0, 73, 108
1, 293195, Note_on_c, 0, 72, 106
1, 293394, Note_off_c, 0, 72, 106
1, 293394, Note_on_c, 0, 70, 98
1, 293548, Note_off_c, 0, 70, 98
1, 293632, Note_on_c, 0, 71, 107
1, 293900, Note_off_c, 0, 71, 107
1, 293900, Note_on_c, 0, 62, 116
1, 294884, Note_off_c, 0, 62, 116
1, 294884, Note_on_c, 0, 69, 109
1, 295834, Note_off_c, 0, 69, 109
1, 296068, Note_on_c, 0, 67, 112
1, 296282, Note_off_c, 0, 67, 112
1, 296282, Note_on_c, 0, 69, 106
1, 296408, Note_off_c, 0, 69, 106
1, 296408, Note_on_c, 0, 67, 105
1, 296525, Note_off_c, 0, 67, 105
1, 296525, Note_on_c, 0, 65, 102
1, 296700, Note_off_c, 0, 65, 102
1, 296700, Note_on_c, 0, 63, 114
1, 296836, Note_off_c, 0, 63, 114
1, 296908, Note_on_c, 0, 64, 111
1, 297142, Note_off_c, 0, 64, 111
1, 297181, Note_on_c, 0, 60, 106
1, 298014, Note_off_c, 0, 60, 106
1, 298804, Note_on_c, 0, 60, 109
1, 299031, Note_off_c, 0, 60, 109
1, 299053, Note_on_c, 0, 58, 97
1, 299279, Note_off_c, 0, 58, 97
1, 299279, Note_on_c, 0, 57, 107
1, 299578, Note_off_c, 0, 57, 107
1, 299627, Note_on_c, 0, 57, 9
1, 299803, Note_off_c, 0, 57, 9
1, 299853, Note_on_c, 0, 58, 100
1, 300055, Note_off_c, 0, 58, 100
1, 300055, Note_on_c, 0, 60, 99
1, 300292, Note_off_c, 0, 60, 99
1, 300454, Note_on_c, 0, 60, 107
1, 300637, Note_off_c, 0, 60, 107
1, 300727, Note_on_c, 0, 62, 112
1, 300934, Note_off_c, 0, 62, 112
1, 300934, Note_on_c, 0, 63, 116
1, 301169, Note_off_c, 0, 63, 116
1, 301169, Note_on_c, 0, 62, 115
1, 301359, Note_off_c, 0, 62, 115
1, 301359, Note_on_c, 0, 60, 105
1, 301577, Note_off_c, 0, 60, 105
1, 301578, Note_on_c, 0, 58, 104
1, 301754, Note_off_c, 0, 58, 104
1, 301767, Note_on_c, 0, 57, 114
1, 301986, Note_off_c, 0, 57, 114
1, 301986, Note_on_c, 0, 60, 107
1, 302156, Note_off_c, 0, 60, 107
1, 302156, Note_on_c, 0, 63, 114
1, 302360, Note_off_c, 0, 63, 114
1, 302360, Note_on_c, 0, 67, 115
1, 302578, Note_off_c, 0, 67, 115
1, 302588, Note_on_c, 0, 65, 108
1, 303006, Note_off_c, 0, 65, 108
1, 304172, Note_on_c, 0, 67, 108
1, 304425, Note_off_c, 0, 67, 108
1, 304425, Note_on_c, 0, 68, 110
1, 304619, Note_off_c, 0, 68, 110
1, 304619, Note_on_c, 0, 64, 114
1, 304836, Note_off_c, 0, 64, 114
1, 304854, Note_on_c, 0, 67, 110
1, 305022, Note_off_c, 0, 67, 110
1, 305022, Note_on_c, 0, 65, 107
1, 305255, Note_off_c, 0, 65, 107
1, 305255, Note_on_c, 0, 63, 122
1, 305459, Note_off_c, 0, 63, 122
1, 305459, Note_on_c, 0, 62, 119
1, 305687, Note_off_c, 0, 62, 119
1, 305718, Note_on_c, 0, 60, 104
1, 305955, Note_off_c, 0, 60, 104
1, 305955, Note_on_c, 0, 58, 103
1, 306727, Note_off_c, 0, 58, 103
1, 307223, Note_on_c, 0, 70, 122
1, 307637, Note_off_c, 0, 70, 122
1, 308020, Note_on_c, 0, 67, 114
1, 308393, Note_off_c, 0, 67, 114
1, 308477, Note_on_c, 0, 65, 110
1, 308906, Note_off_c, 0, 65, 110
1, 308920, Note_on_c, 0, 63, 115
1, 309128, Note_off_c, 0, 63, 115
1, 309245, Note_on_c, 0, 65, 99
1, 310449, Note_off_c, 0, 65, 99
1, 310463, Note_on_c, 0, 67, 105
1, 310953, Note_off_c, 0, 67, 105
1, 312651, Note_on_c, 0, 63, 118
1, 312899, Note_off_c, 0, 63, 118
1, 313215, Note_on_c, 0, 63, 118
1, 313425, Note_off_c, 0, 63, 118
1, 313619, Note_on_c, 0, 63, 112
1, 313926, Note_off_c, 0, 63, 112
1, 314018, Note_on_c, 0, 63, 117
1, 314394, Note_off_c, 0, 63, 117
1, 314402, Note_on_c, 0, 60, 102
1, 314884, Note_off_c, 0, 60, 102
1, 314917, Note_on_c, 0, 58, 90
1, 315584, Note_off_c, 0, 58, 90
1, 316028, Note_on_c, 0, 71, 106
1, 316393, Note_off_c, 0, 71, 106
1, 316534, Note_on_c, 0, 71, 105
1, 316733, Note_off_c, 0, 71, 105
1, 316875, Note_on_c, 0, 71, 107
1, 317100, Note_off_c, 0, 71, 107
1, 317286, Note_on_c, 0, 71, 102
1, 317660, Note_off_c, 0, 71, 102
1, 317716, Note_on_c, 0, 69, 101
1, 318242, Note_off_c, 0, 69, 101
1, 318242, Note_on_c, 0, 66, 97
1, 318740, Note_off_c, 0, 66, 97
1, 319738, Note_on_c, 0, 70, 113
1, 319976, Note_off_c, 0, 70, 113
1, 320064, Note_on_c, 0, 67, 105
1, 320369, Note_off_c, 0, 67, 105
1, 320409, Note_on_c, 0, 63, 100
1, 320662, Note_off_c, 0, 63, 100
1, 320662, Note_on_c, 0, 60, 80
1, 320898, Note_off_c, 0, 60, 80
1, 320992, Note_on_c, 0, 68, 108
1, 321494, Note_off_c, 0, 68, 108
1, 321494, Note_on_c, 0, 65, 108
1, 321815, Note_off_c, 0, 65, 108
1, 321858, Note_on_c, 0, 62, 104
1, 322077, Note_off_c, 0, 62, 104
1, 322364, Note_on_c, 0, 58, 94
1, 322651, Note_off_c, 0, 58, 94
1, 322748, Note_on_c, 0, 66, 107
1, 323006, Note_off_c, 0, 66, 107
1, 323064, Note_on_c, 0, 67, 107
1, 323372, Note_off_c, 0, 67, 107
1, 323468, Note_on_c, 0, 68, 103
1, 323808, Note_off_c, 0, 68, 103
1, 323877, Note_on_c, 0, 69, 101
1, 324243, Note_off_c, 0, 69, 101
1, 324257, Note_on_c, 0, 70, 100
1, 324708, Note_off_c, 0, 70, 100
1, 324734, Note_on_c, 0, 67, 96
1, 325348, Note_off_c, 0, 67, 96
1, 325464, Note_on_c, 0, 67, 107
1, 325934, Note_off_c, 0, 67, 107
1, 325975, Note_on_c, 0, 63, 112
1, 326352, Note_off_c, 0, 63, 112
1, 326451, Note_on_c, 0, 58, 91
1, 327168, Note_off_c, 0, 58, 91
1, 328390, Note_on_c, 0, 58, 98
1, 328781, Note_off_c, 0, 58, 98
1, 328853, Note_on_c, 0, 59, 103
1, 329177, Note_off_c, 0, 59, 103
1, 329262, Note_on_c, 0, 60, 104
1, 329679, Note_off_c, 0, 60, 104
1, 329749, Note_on_c, 0, 68, 112
1, 330079, Note_off_c, 0, 68, 112
1, 330129, Note_on_c, 0, 65, 113
1, 330416, Note_off_c, 0, 65, 113
1, 330522, Note_on_c, 0, 66, 120
1, 330862, Note_off_c, 0, 66, 120
1, 331008, Note_on_c, 0, 67, 109
1, 331290, Note_off_c, 0, 67, 109
1, 331504, Note_on_c, 0, 63, 119
1, 331752, Note_off_c, 0, 63, 119
1, 331942, Note_on_c, 0, 58, 88
1, 332201, Note_off_c, 0, 58, 88
1, 332424, Note_on_c, 0, 58, 101
1, 332619, Note_off_c, 0, 58, 101
1, 332667, Note_on_c, 0, 65, 103
1, 333013, Note_off_c, 0, 65, 103
1, 333280, Note_on_c, 0, 63, 100
1, 334170, Note_off_c, 0, 63, 100
1, 334170, End_track
0, 0, End_of_file
