0, 0, Header, 1, 1, 192
1, 0, Start_track
1, 0, Title_t, "Melody"
1, 0, Tempo, 271493
1, 0, Key_signature, -3, "major"
1, 0, Time_signature, 4, 2, 24, 8
1, 586, Note_on_c, 0, 61, 119
1, 646, Note_off_c, 0, 61, 119
1, 649, Note_on_c, 0, 62, 121
1, 1315, Note_off_c, 0, 62, 121
1, 1405, Note_on_c, 0, 60, 108
1, 1481, Note_off_c, 0, 60, 108
1, 1483, Note_on_c, 0, 62, 115
1, 1690, Note_off_c, 0, 62, 115
1, 1739, Note_on_c, 0, 60, 108
1, 1814, Note_off_c, 0, 60, 108
1, 1819, Note_on_c, 0, 62, 118
1, 1954, Note_off_c, 0, 62, 118
1, 1997, Note_on_c, 0, 60, 110
1, 2074, Note_off_c, 0, 60, 110
1, 2134, Note_on_c, 0, 57, 102
1, 2197, Note_off_c, 0, 57, 102
1, 2263, Note_on_c, 0, 55, 114
1, 2355, Note_off_c, 0, 55, 114
1, 2412, Note_on_c, 0, 55, 107
1, 2475, Note_off_c, 0, 55, 107
1, 2556, Note_on_c, 0, 62, 120
1, 2851, Note_off_c, 0, 62, 120
1, 2863, Note_on_c, 0, 59, 102
1, 2953, Note_off_c, 0, 59, 102
1, 2963, Note_on_c, 0, 57, 103
1, 3067, Note_off_c, 0, 57, 103
1, 3069, Note_on_c, 0, 55, 103
1, 3141, Note_off_c, 0, 55, 103
1, 3152, Note_on_c, 0, 57, 108
1, 3209, Note_off_c, 0, 57, 108
1, 3281, Note_on_c, 0, 62, 121
1, 3433, Note_off_c, 0, 62, 121
1, 4070, Note_on_c, 0, 62, 119
1, 4217, Note_off_c, 0, 62, 119
1, 4219, Note_on_c, 0, 60, 104
1, 4273, Note_off_c, 0, 60, 104
1, 4275, Note_on_c, 0, 62, 122
1, 4413, Note_off_c, 0, 62, 122
1, 4413, Note_on_c, 0, 67, 115
1, 4632, Note_off_c, 0, 67, 115
1, 4685, Note_on_c, 0, 62, 120
1, 4774, Note_off_c, 0, 62, 120
1, 4788, Note_on_c, 0, 60, 107
1, 4871, Note_off_c, 0, 60, 107
1, 4876, Note_on_c, 0, 56, 107
1, 4974, Note_off_c, 0, 56, 107
1, 4988, Note_on_c, 0, 53, 107
1, 5068, Note_off_c, 0, 53, 107
1, 5108, Note_on_c, 0, 50, 98
1, 5188, Note_off_c, 0, 50, 98
1, 5206, Note_on_c, 0, 48, 99
1, 5241, Note_off_c, 0, 48, 99
1, 5288, Note_on_c, 0, 55, 110
1, 5396, Note_off_c, 0, 55, 110
1, 5428, Note_on_c, 0, 53, 103
1, 5517, Note_off_c, 0, 53, 103
1, 5559, Note_on_c, 0, 55, 114
1, 5645, Note_off_c, 0, 55, 114
1, 5645, Note_on_c, 0, 56, 110
1, 5731, Note_off_c, 0, 56, 110
1, 5733, Note_on_c, 0, 58, 110
1, 5808, Note_off_c, 0, 58, 110
1, 5810, Note_on_c, 0, 60, 114
1, 5902, Note_off_c, 0, 60, 114
1, 5916, Note_on_c, 0, 63, 123
1, 6017, Note_off_c, 0, 63, 123
1, 6022, Note_on_c, 0, 62, 118
1, 6111, Note_off_c, 0, 62, 118
1, 6117, Note_on_c, 0, 60, 103
1, 6197, Note_off_c, 0, 60, 103
1, 6225, Note_on_c, 0, 58, 102
1, 6305, Note_off_c, 0, 58, 102
1, 6310, Note_on_c, 0, 59, 103
1, 6373, Note_off_c, 0, 59, 103
1, 6392, Note_on_c, 0, 60, 113
1, 6501, Note_off_c, 0, 60, 113
1, 6545, Note_on_c, 0, 67, 99
1, 6634, Note_off_c, 0, 67, 99
1, 6645, Note_on_c, 0, 53, 96
1, 6693, Note_off_c, 0, 53, 96
1, 6694, Note_on_c, 0, 54, 94
1, 6758, Note_off_c, 0, 54, 94
1, 6778, Note_on_c, 0, 58, 107
1, 7104, Note_off_c, 0, 58, 107
1, 7355, Note_on_c, 0, 62, 123
1, 7487, Note_off_c, 0, 62, 123
1, 7495, Note_on_c, 0, 67, 115
1, 7792, Note_off_c, 0, 67, 115
1, 7792, Note_on_c, 0, 66, 117
1, 7864, Note_off_c, 0, 66, 117
1, 7875, Note_on_c, 0, 64, 119
1, 7964, Note_off_c, 0, 64, 119
1, 7968, Note_on_c, 0, 65, 120
1, 8068, Note_off_c, 0, 65, 120
1, 8082, Note_on_c, 0, 57, 95
1, 8129, Note_off_c, 0, 57, 95
1, 8146, Note_on_c, 0, 62, 115
1, 8244, Note_off_c, 0, 62, 115
1, 8249, Note_on_c, 0, 65, 120
1, 8344, Note_off_c, 0, 65, 120
1, 8352, Note_on_c, 0, 64, 122
1, 8458, Note_off_c, 0, 64, 122
1, 8458, Note_on_c, 0, 62, 117
1, 8553, Note_off_c, 0, 62, 117
1, 8558, Note_on_c, 0, 61, 115
1, 8647, Note_off_c, 0, 61, 115
1, 8656, Note_on_c, 0, 62, 109
1, 8717, Note_off_c, 0, 62, 109
1, 8739, Note_on_c, 0, 64, 120
1, 8821, Note_off_c, 0, 64, 120
1, 8829, Note_on_c, 0, 65, 118
1, 8905, Note_off_c, 0, 65, 118
1, 8953, Note_on_c, 0, 62, 123
1, 9033, Note_off_c, 0, 62, 123
1, 9046, Note_on_c, 0, 60, 109
1, 9137, Note_off_c, 0, 60, 109
1, 9147, Note_on_c, 0, 59, 106
1, 9216, Note_off_c, 0, 59, 106
1, 9230, Note_on_c, 0, 60, 110
1, 9331, Note_off_c, 0, 60, 110
1, 9333, Note_on_c, 0, 62, 123
1, 9413, Note_off_c, 0, 62, 123
1, 9434, Note_on_c, 0, 63, 119
1, 9511, Note_off_c, 0, 63, 119
1, 9524, Note_on_c, 0, 60, 106
1, 9613, Note_off_c, 0, 60, 106
1, 9630, Note_on_c, 0, 56, 104
1, 9774, Note_off_c, 0, 56, 104
1, 9798, Note_on_c, 0, 55, 117
1, 9881, Note_off_c, 0, 55, 117
1, 9908, Note_on_c, 0, 58, 117
1, 10011, Note_off_c, 0, 58, 117
1, 10118, Note_on_c, 0, 60, 102
1, 10161, Note_off_c, 0, 60, 102
1, 10165, Note_on_c, 0, 63, 118
1, 10231, Note_off_c, 0, 63, 118
1, 10255, Note_on_c, 0, 67, 118
1, 10347, Note_off_c, 0, 67, 118
1, 10369, Note_on_c, 0, 68, 118
1, 10452, Note_off_c, 0, 68, 118
1, 10469, Note_on_c, 0, 67, 117
1, 10555, Note_off_c, 0, 67, 117
1, 10583, Note_on_c, 0, 66, 119
1, 10663, Note_off_c, 0, 66, 119
1, 10681, Note_on_c, 0, 63, 116
1, 10758, Note_off_c, 0, 63, 116
1, 10782, Note_on_c, 0, 58, 97
1, 10855, Note_off_c, 0, 58, 97
1, 10862, Note_on_c, 0, 60, 103
1, 10931, Note_off_c, 0, 60, 103
1, 10967, Note_on_c, 0, 61, 117
1, 11059, Note_off_c, 0, 61, 117
1, 11065, Note_on_c, 0, 58, 108
1, 11157, Note_off_c, 0, 58, 108
1, 11166, Note_on_c, 0, 54, 106
1, 11259, Note_off_c, 0, 54, 106
1, 11280, Note_on_c, 0, 53, 103
1, 11341, Note_off_c, 0, 53, 103
1, 11369, Note_on_c, 0, 51, 120
1, 11436, Note_off_c, 0, 51, 120
1, 11454, Note_on_c, 0, 50, 109
1, 11536, Note_off_c, 0, 50, 109
1, 11816, Note_on_c, 0, 62, 123
1, 11880, Note_off_c, 0, 62, 123
1, 11883, Note_on_c, 0, 63, 120
1, 11997, Note_off_c, 0, 63, 120
1, 12001, Note_on_c, 0, 62, 120
1, 12089, Note_off_c, 0, 62, 120
1, 12108, Note_on_c, 0, 60, 120
1, 12183, Note_off_c, 0, 60, 120
1, 12219, Note_on_c, 0, 59, 114
1, 12301, Note_off_c, 0, 59, 114
1, 12333, Note_on_c, 0, 60, 106
1, 12417, Note_off_c, 0, 60, 106
1, 12427, Note_on_c, 0, 62, 125
1, 12496, Note_off_c, 0, 62, 125
1, 12514, Note_on_c, 0, 63, 117
1, 12598, Note_off_c, 0, 63, 117
1, 12620, Note_on_c, 0, 60, 110
1, 12726, Note_off_c, 0, 60, 110
1, 12745, Note_on_c, 0, 55, 108
1, 13128, Note_off_c, 0, 55, 108
1, 13735, Note_on_c, 0, 60, 113
1, 13810, Note_off_c, 0, 60, 113
1, 13822, Note_on_c, 0, 59, 111
1, 13900, Note_off_c, 0, 59, 111
1, 13929, Note_on_c, 0, 60, 114
1, 14025, Note_off_c, 0, 60, 114
1, 14028, Note_on_c, 0, 62, 125
1, 14106, Note_off_c, 0, 62, 125
1, 14128, Note_on_c, 0, 63, 122
1, 14208, Note_off_c, 0, 63, 122
1, 14222, Note_on_c, 0, 62, 118
1, 14312, Note_off_c, 0, 62, 118
1, 14312, Note_on_c, 0, 63, 120
1, 14420, Note_off_c, 0, 63, 120
1, 14428, Note_on_c, 0, 65, 119
1, 14530, Note_off_c, 0, 65, 119
1, 14533, Note_on_c, 0, 66, 119
1, 14615, Note_off_c, 0, 66, 119
1, 14633, Note_on_c, 0, 67, 115
1, 14715, Note_off_c, 0, 67, 115
1, 14723, Note_on_c, 0, 68, 118
1, 14829, Note_off_c, 0, 68, 118
1, 14833, Note_on_c, 0, 66, 123
1, 14919, Note_off_c, 0, 66, 123
1, 14924, Note_on_c, 0, 67, 114
1, 14999, Note_off_c, 0, 67, 114
1, 15013, Note_on_c, 0, 63, 121
1, 15091, Note_off_c, 0, 63, 121
1, 15100, Note_on_c, 0, 62, 118
1, 15210, Note_off_c, 0, 62, 118
1, 15218, Note_on_c, 0, 60, 95
1, 15265, Note_off_c, 0, 60, 95
1, 15295, Note_on_c, 0, 65, 112
1, 15568, Note_off_c, 0, 65, 112
1, 15583, Note_on_c, 0, 62, 122
1, 15669, Note_off_c, 0, 62, 122
1, 15677, Note_on_c, 0, 63, 115
1, 15810, Note_off_c, 0, 63, 115
1, 15853, Note_on_c, 0, 55, 92
1, 15908, Note_off_c, 0, 55, 92
1, 15920, Note_on_c, 0, 57, 94
1, 15959, Note_off_c, 0, 57, 94
1, 15979, Note_on_c, 0, 59, 95
1, 16022, Note_off_c, 0, 59, 95
1, 16040, Note_on_c, 0, 62, 124
1, 16124, Note_off_c, 0, 62, 124
1, 16156, Note_on_c, 0, 59, 100
1, 16229, Note_off_c, 0, 59, 100
1, 16249, Note_on_c, 0, 60, 101
1, 16331, Note_off_c, 0, 60, 101
1, 16349, Note_on_c, 0, 62, 111
1, 16398, Note_off_c, 0, 62, 111
1, 16404, Note_on_c, 0, 64, 121
1, 16477, Note_off_c, 0, 64, 121
1, 16489, Note_on_c, 0, 65, 119
1, 16528, Note_off_c, 0, 65, 119
1, 16540, Note_on_c, 0, 64, 122
1, 16589, Note_off_c, 0, 64, 122
1, 16603, Note_on_c, 0, 62, 122
1, 16685, Note_off_c, 0, 62, 122
1, 16721, Note_on_c, 0, 60, 111
1, 16811, Note_off_c, 0, 60, 111
1, 16827, Note_on_c, 0, 59, 108
1, 16902, Note_off_c, 0, 59, 108
1, 16941, Note_on_c, 0, 55, 101
1, 17000, Note_off_c, 0, 55, 101
1, 17030, Note_on_c, 0, 58, 113
1, 17093, Note_off_c, 0, 58, 113
1, 17107, Note_on_c, 0, 55, 103
1, 17182, Note_off_c, 0, 55, 103
1, 17229, Note_on_c, 0, 53, 102
1, 17300, Note_off_c, 0, 53, 102
1, 17304, Note_on_c, 0, 56, 113
1, 17373, Note_off_c, 0, 56, 113
1, 17393, Note_on_c, 0, 55, 106
1, 17501, Note_off_c, 0, 55, 106
1, 17515, Note_on_c, 0, 53, 109
1, 17580, Note_off_c, 0, 53, 109
1, 17594, Note_on_c, 0, 52, 102
1, 17692, Note_off_c, 0, 52, 102
1, 17703, Note_on_c, 0, 61, 110
1, 17835, Note_off_c, 0, 61, 110
1, 17910, Note_on_c, 0, 58, 102
1, 17988, Note_off_c, 0, 58, 102
1, 17996, Note_on_c, 0, 60, 114
1, 18080, Note_off_c, 0, 60, 114
1, 18122, Note_on_c, 0, 56, 96
1, 18212, Note_off_c, 0, 56, 96
1, 18256, Note_on_c, 0, 55, 104
1, 18323, Note_off_c, 0, 55, 104
1, 18335, Note_on_c, 0, 56, 105
1, 18396, Note_off_c, 0, 56, 105
1, 18404, Note_on_c, 0, 58, 116
1, 18541, Note_off_c, 0, 58, 116
1, 18584, Note_on_c, 0, 60, 105
1, 18653, Note_off_c, 0, 60, 105
1, 18671, Note_on_c, 0, 63, 111
1, 18746, Note_off_c, 0, 63, 111
1, 18758, Note_on_c, 0, 67, 118
1, 18860, Note_off_c, 0, 67, 118
1, 18915, Note_on_c, 0, 65, 115
1, 19319, Note_off_c, 0, 65, 115
1, 19812, Note_on_c, 0, 67, 115
1, 20068, Note_off_c, 0, 67, 115
1, 20076, Note_on_c, 0, 65, 113
1, 20154, Note_off_c, 0, 65, 113
1, 20172, Note_on_c, 0, 60, 110
1, 20239, Note_off_c, 0, 60, 110
1, 20239, Note_on_c, 0, 56, 108
1, 20300, Note_off_c, 0, 56, 108
1, 20304, Note_on_c, 0, 55, 111
1, 20449, Note_off_c, 0, 55, 111
1, 20455, Note_on_c, 0, 53, 111
1, 20530, Note_off_c, 0, 53, 111
1, 20630, Note_on_c, 0, 70, 115
1, 20845, Note_off_c, 0, 70, 115
1, 20853, Note_on_c, 0, 68, 117
1, 20906, Note_off_c, 0, 68, 117
1, 20908, Note_on_c, 0, 63, 117
1, 20994, Note_off_c, 0, 63, 117
1, 20994, Note_on_c, 0, 58, 113
1, 21113, Note_off_c, 0, 58, 113
1, 21121, Note_on_c, 0, 56, 106
1, 21248, Note_off_c, 0, 56, 106
1, 21554, Note_on_c, 0, 69, 124
1, 21598, Note_off_c, 0, 69, 124
1, 21601, Note_on_c, 0, 70, 119
1, 21692, Note_off_c, 0, 70, 119
1, 21828, Note_on_c, 0, 68, 118
1, 21899, Note_off_c, 0, 68, 118
1, 21938, Note_on_c, 0, 63, 120
1, 22009, Note_off_c, 0, 63, 120
1, 22022, Note_on_c, 0, 58, 105
1, 22130, Note_off_c, 0, 58, 105
1, 22172, Note_on_c, 0, 57, 89
1, 22232, Note_on_c, 0, 73, 118
1, 22232, Note_off_c, 0, 57, 89
1, 22388, Note_off_c, 0, 73, 118
1, 22393, Note_on_c, 0, 70, 117
1, 22464, Note_off_c, 0, 70, 117
1, 22482, Note_on_c, 0, 65, 112
1, 22525, Note_off_c, 0, 65, 112
1, 22531, Note_on_c, 0, 62, 116
1, 22616, Note_off_c, 0, 62, 116
1, 22621, Note_on_c, 0, 61, 113
1, 22738, Note_off_c, 0, 61, 113
1, 22754, Note_on_c, 0, 59, 108
1, 22866, Note_off_c, 0, 59, 108
1, 22913, Note_on_c, 0, 70, 116
1, 23186, Note_off_c, 0, 70, 116
1, 23194, Note_on_c, 0, 66, 118
1, 23284, Note_off_c, 0, 66, 118
1, 23295, Note_on_c, 0, 65, 123
1, 23373, Note_off_c, 0, 65, 123
1, 23384, Note_on_c, 0, 63, 122
1, 23486, Note_off_c, 0, 63, 122
1, 23664, Note_on_c, 0, 67, 122
1, 23757, Note_off_c, 0, 67, 122
1, 23762, Note_on_c, 0, 68, 117
1, 24129, Note_off_c, 0, 68, 117
1, 24151, Note_on_c, 0, 65, 114
1, 24233, Note_off_c, 0, 65, 114
1, 24255, Note_on_c, 0, 63, 118
1, 24330, Note_off_c, 0, 63, 118
1, 24339, Note_on_c, 0, 59, 107
1, 24412, Note_off_c, 0, 59, 107
1, 24486, Note_on_c, 0, 54, 107
1, 24523, Note_off_c, 0, 54, 107
1, 24533, Note_on_c, 0, 58, 108
1, 24684, Note_off_c, 0, 58, 108
1, 24721, Note_on_c, 0, 56, 109
1, 24825, Note_off_c, 0, 56, 109
1, 24903, Note_on_c, 0, 55, 107
1, 24978, Note_off_c, 0, 55, 107
1, 25041, Note_on_c, 0, 62, 118
1, 25197, Note_off_c, 0, 62, 118
1, 25629, Note_on_c, 0, 62, 116
1, 25725, Note_off_c, 0, 62, 116
1, 25735, Note_on_c, 0, 64, 118
1, 25839, Note_off_c, 0, 64, 118
1, 25843, Note_on_c, 0, 65, 115
1, 25947, Note_off_c, 0, 65, 115
1, 25947, Note_on_c, 0, 67, 112
1, 26033, Note_off_c, 0, 67, 112
1, 26044, Note_on_c, 0, 69, 115
1, 26122, Note_off_c, 0, 69, 115
1, 26152, Note_on_c, 0, 67, 115
1, 26197, Note_off_c, 0, 67, 115
1, 26198, Note_on_c, 0, 65, 117
1, 26228, Note_off_c, 0, 65, 117
1, 26234, Note_on_c, 0, 64, 117
1, 26318, Note_off_c, 0, 64, 117
1, 26367, Note_on_c, 0, 69, 116
1, 26423, Note_off_c, 0, 69, 116
1, 26454, Note_on_c, 0, 65, 119
1, 26536, Note_off_c, 0, 65, 119
1, 26550, Note_on_c, 0, 62, 120
1, 26634, Note_off_c, 0, 62, 120
1, 26638, Note_on_c, 0, 58, 105
1, 26711, Note_off_c, 0, 58, 105
1, 26816, Note_on_c, 0, 64, 124
1, 26875, Note_off_c, 0, 64, 124
1, 26893, Note_on_c, 0, 65, 116
1, 26944, Note_off_c, 0, 65, 116
1, 26952, Note_on_c, 0, 66, 118
1, 27009, Note_off_c, 0, 66, 118
1, 27019, Note_on_c, 0, 67, 114
1, 27105, Note_off_c, 0, 67, 114
1, 27109, Note_on_c, 0, 66, 118
1, 27152, Note_off_c, 0, 66, 118
1, 27156, Note_on_c, 0, 65, 118
1, 27191, Note_off_c, 0, 65, 118
1, 27193, Note_on_c, 0, 64, 122
1, 27298, Note_off_c, 0, 64, 122
1, 27306, Note_on_c, 0, 62, 124
1, 27386, Note_off_c, 0, 62, 124
1, 27394, Note_on_c, 0, 60, 110
1, 27474, Note_off_c, 0, 60, 110
1, 27515, Note_on_c, 0, 59, 113
1, 27595, Note_off_c, 0, 59, 113
1, 27604, Note_on_c, 0, 58, 110
1, 27696, Note_off_c, 0, 58, 110
1, 27704, Note_on_c, 0, 57, 103
1, 27761, Note_off_c, 0, 57, 103
1, 27767, Note_on_c, 0, 58, 110
1, 27859, Note_off_c, 0, 58, 110
1, 27981, Note_on_c, 0, 65, 116
1, 28079, Note_off_c, 0, 65, 116
1, 28097, Note_on_c, 0, 64, 105
1, 28144, Note_off_c, 0, 64, 105
1, 28176, Note_on_c, 0, 65, 118
1, 28279, Note_off_c, 0, 65, 118
1, 28349, Note_on_c, 0, 63, 124
1, 28441, Note_off_c, 0, 63, 124
1, 28457, Note_on_c, 0, 62, 113
1, 28526, Note_off_c, 0, 62, 113
1, 28546, Note_on_c, 0, 63, 121
1, 28636, Note_off_c, 0, 63, 121
1, 28675, Note_on_c, 0, 70, 120
1, 28742, Note_off_c, 0, 70, 120
1, 28764, Note_on_c, 0, 67, 116
1, 28852, Note_off_c, 0, 67, 116
1, 28860, Note_on_c, 0, 68, 118
1, 28940, Note_off_c, 0, 68, 118
1, 28964, Note_on_c, 0, 64, 122
1, 29042, Note_off_c, 0, 64, 122
1, 29078, Note_on_c, 0, 67, 117
1, 29141, Note_off_c, 0, 67, 117
1, 29157, Note_on_c, 0, 65, 120
1, 29259, Note_off_c, 0, 65, 120
1, 29283, Note_on_c, 0, 55, 106
1, 29340, Note_off_c, 0, 55, 106
1, 29356, Note_on_c, 0, 62, 119
1, 29446, Note_off_c, 0, 62, 119
1, 29458, Note_on_c, 0, 63, 120
1, 29523, Note_off_c, 0, 63, 120
1, 29557, Note_on_c, 0, 60, 109
1, 29618, Note_off_c, 0, 60, 109
1, 29630, Note_on_c, 0, 61, 116
1, 29714, Note_off_c, 0, 61, 116
1, 29932, Note_on_c, 0, 65, 120
1, 30192, Note_off_c, 0, 65, 120
1, 30211, Note_on_c, 0, 61, 119
1, 30282, Note_off_c, 0, 61, 119
1, 30300, Note_on_c, 0, 60, 112
1, 30347, Note_off_c, 0, 60, 112
1, 30353, Note_on_c, 0, 61, 112
1, 30396, Note_off_c, 0, 61, 112
1, 30418, Note_on_c, 0, 58, 109
1, 30498, Note_off_c, 0, 58, 109
1, 30498, Note_on_c, 0, 54, 103
1, 30576, Note_off_c, 0, 54, 103
1, 30604, Note_on_c, 0, 52, 106
1, 30682, Note_off_c, 0, 52, 106
1, 30686, Note_on_c, 0, 53, 106
1, 30761, Note_off_c, 0, 53, 106
1, 30802, Note_on_c, 0, 55, 104
1, 30894, Note_off_c, 0, 55, 104
1, 30908, Note_on_c, 0, 57, 105
1, 30957, Note_off_c, 0, 57, 105
1, 30969, Note_on_c, 0, 59, 106
1, 31014, Note_off_c, 0, 59, 106
1, 31043, Note_on_c, 0, 64, 121
1, 31093, Note_off_c, 0, 64, 121
1, 31097, Note_on_c, 0, 65, 120
1, 31127, Note_off_c, 0, 65, 120
1, 31132, Note_on_c, 0, 64, 125
1, 31212, Note_off_c, 0, 64, 125
1, 31217, Note_on_c, 0, 62, 122
1, 31327, Note_off_c, 0, 62, 122
1, 31329, Note_on_c, 0, 60, 117
1, 31409, Note_off_c, 0, 60, 117
1, 31415, Note_on_c, 0, 59, 111
1, 31488, Note_off_c, 0, 59, 111
1, 31535, Note_on_c, 0, 62, 110
1, 31594, Note_off_c, 0, 62, 110
1, 31601, Note_on_c, 0, 65, 120
1, 31707, Note_off_c, 0, 65, 120
1, 31709, Note_on_c, 0, 69, 117
1, 31789, Note_off_c, 0, 69, 117
1, 31802, Note_on_c, 0, 63, 117
1, 31871, Note_off_c, 0, 63, 117
1, 31877, Note_on_c, 0, 65, 114
1, 31926, Note_off_c, 0, 65, 114
1, 31943, Note_on_c, 0, 66, 115
1, 31982, Note_off_c, 0, 66, 115
1, 31995, Note_on_c, 0, 67, 109
1, 32078, Note_off_c, 0, 67, 109
1, 32081, Note_on_c, 0, 66, 118
1, 32123, Note_off_c, 0, 66, 118
1, 32127, Note_on_c, 0, 65, 117
1, 32155, Note_off_c, 0, 65, 117
1, 32159, Note_on_c, 0, 63, 117
1, 32243, Note_off_c, 0, 63, 117
1, 32382, Note_on_c, 0, 51, 100
1, 32455, Note_off_c, 0, 51, 100
1, 32459, Note_on_c, 0, 55, 112
1, 32545, Note_off_c, 0, 55, 112
1, 32550, Note_on_c, 0, 62, 124
1, 32679, Note_off_c, 0, 62, 124
1, 32686, Note_on_c, 0, 60, 109
1, 32901, Note_off_c, 0, 60, 109
1, 33363, Note_on_c, 0, 51, 114
1, 33447, Note_off_c, 0, 51, 114
1, 33471, Note_on_c, 0, 55, 115
1, 33544, Note_off_c, 0, 55, 115
1, 33562, Note_on_c, 0, 62, 125
1, 33658, Note_off_c, 0, 62, 125
1, 33677, Note_on_c, 0, 67, 122
1, 33787, Note_off_c, 0, 67, 122
1, 33845, Note_on_c, 0, 74, 113
1, 33949, Note_off_c, 0, 74, 113
1, 33973, Note_on_c, 0, 74, 116
1, 34083, Note_off_c, 0, 74, 116
1, 34092, Note_on_c, 0, 67, 121
1, 34393, Note_off_c, 0, 67, 121
1, 34711, Note_on_c, 0, 71, 120
1, 34740, Note_off_c, 0, 71, 120
1, 34745, Note_on_c, 0, 72, 118
1, 35140, Note_off_c, 0, 72, 118
1, 35155, Note_on_c, 0, 70, 122
1, 35233, Note_off_c, 0, 70, 122
1, 35258, Note_on_c, 0, 68, 117
1, 35340, Note_off_c, 0, 68, 117
1, 35352, Note_on_c, 0, 70, 117
1, 35452, Note_off_c, 0, 70, 117
1, 35467, Note_on_c, 0, 68, 119
1, 35530, Note_off_c, 0, 68, 119
1, 35563, Note_on_c, 0, 67, 116
1, 35641, Note_off_c, 0, 67, 116
1, 35659, Note_on_c, 0, 65, 118
1, 35761, Note_off_c, 0, 65, 118
1, 35765, Note_on_c, 0, 64, 119
1, 35843, Note_off_c, 0, 64, 119
1, 35851, Note_on_c, 0, 65, 116
1, 35953, Note_off_c, 0, 65, 116
1, 35960, Note_on_c, 0, 67, 116
1, 36046, Note_off_c, 0, 67, 116
1, 36054, Note_on_c, 0, 68, 119
1, 36126, Note_off_c, 0, 68, 119
1, 36156, Note_on_c, 0, 67, 113
1, 36182, Note_off_c, 0, 67, 113
1, 36187, Note_on_c, 0, 65, 118
1, 36254, Note_off_c, 0, 65, 118
1, 36266, Note_on_c, 0, 64, 121
1, 36341, Note_off_c, 0, 64, 121
1, 36347, Note_on_c, 0, 67, 117
1, 36445, Note_off_c, 0, 67, 117
1, 36450, Note_on_c, 0, 65, 117
1, 36523, Note_off_c, 0, 65, 117
1, 36553, Note_on_c, 0, 63, 123
1, 36628, Note_off_c, 0, 63, 123
1, 36635, Note_on_c, 0, 62, 119
1, 36713, Note_off_c, 0, 62, 119
1, 36747, Note_on_c, 0, 60, 110
1, 36829, Note_off_c, 0, 60, 110
1, 36857, Note_on_c, 0, 58, 97
1, 36959, Note_off_c, 0, 58, 97
1, 37020, Note_on_c, 0, 60, 113
1, 37118, Note_off_c, 0, 60, 113
1, 37148, Note_on_c, 0, 56, 111
1, 37228, Note_off_c, 0, 56, 111
1, 37238, Note_on_c, 0, 55, 119
1, 37322, Note_off_c, 0, 55, 119
1, 37330, Note_on_c, 0, 53, 112
1, 37403, Note_on_c, 0, 51, 99
1, 37403, Note_off_c, 0, 53, 112
1, 37472, Note_off_c, 0, 51, 99
1, 37506, Note_on_c, 0, 49, 114
1, 37569, Note_off_c, 0, 49, 114
1, 37587, Note_on_c, 0, 58, 114
1, 37878, Note_off_c, 0, 58, 114
1, 38379, Note_on_c, 0, 65, 123
1, 38427, Note_off_c, 0, 65, 123
1, 38430, Note_on_c, 0, 66, 116
1, 38453, Note_off_c, 0, 66, 116
1, 38461, Note_on_c, 0, 65, 120
1, 38970, Note_off_c, 0, 65, 120
1, 38996, Note_on_c, 0, 67, 120
1, 39041, Note_off_c, 0, 67, 120
1, 39044, Note_on_c, 0, 68, 122
1, 39096, Note_off_c, 0, 68, 122
1, 39110, Note_on_c, 0, 67, 116
1, 39334, Note_off_c, 0, 67, 116
1, 39399, Note_on_c, 0, 67, 117
1, 39494, Note_off_c, 0, 67, 117
1, 39510, Note_on_c, 0, 65, 119
1, 39787, Note_off_c, 0, 65, 119
1, 39867, Note_on_c, 0, 65, 116
1, 39971, Note_off_c, 0, 65, 116
1, 39971, Note_on_c, 0, 63, 120
1, 40488, Note_off_c, 0, 63, 120
1, 40518, Note_on_c, 0, 63, 122
1, 40610, Note_off_c, 0, 63, 122
1, 40632, Note_on_c, 0, 62, 120
1, 40823, Note_off_c, 0, 62, 120
1, 40843, Note_on_c, 0, 62, 115
1, 40944, Note_off_c, 0, 62, 115
1, 40975, Note_on_c, 0, 60, 105
1, 41248, Note_off_c, 0, 60, 105
1, 41250, Note_on_c, 0, 64, 119
1, 41342, Note_off_c, 0, 64, 119
1, 41348, Note_on_c, 0, 65, 118
1, 41563, Note_off_c, 0, 65, 118
1, 41580, Note_on_c, 0, 62, 119
1, 41670, Note_off_c, 0, 62, 119
1, 41674, Note_on_c, 0, 63, 119
1, 41782, Note_off_c, 0, 63, 119
1, 41786, Note_on_c, 0, 60, 110
1, 41886, Note_off_c, 0, 60, 110
1, 41918, Note_on_c, 0, 56, 104
1, 42000, Note_off_c, 0, 56, 104
1, 42064, Note_on_c, 0, 63, 117
1, 42312, Note_off_c, 0, 63, 117
1, 42317, Note_on_c, 0, 61, 111
1, 42417, Note_off_c, 0, 61, 111
1, 42429, Note_on_c, 0, 62, 121
1, 42515, Note_off_c, 0, 62, 121
1, 42522, Note_on_c, 0, 58, 100
1, 42620, Note_off_c, 0, 58, 100
1, 42628, Note_on_c, 0, 59, 101
1, 42827, Note_off_c, 0, 59, 101
1, 42847, Note_on_c, 0, 62, 119
1, 43165, Note_off_c, 0, 62, 119
1, 43181, Note_on_c, 0, 59, 105
1, 43248, Note_off_c, 0, 59, 105
1, 43280, Note_on_c, 0, 60, 118
1, 43401, Note_off_c, 0, 60, 118
1, 43429, Note_on_c, 0, 57, 103
1, 43543, Note_off_c, 0, 57, 103
1, 44394, Note_on_c, 0, 51, 115
1, 44508, Note_off_c, 0, 51, 115
1, 44512, Note_on_c, 0, 57, 105
1, 44569, Note_off_c, 0, 57, 105
1, 44608, Note_on_c, 0, 62, 121
1, 44686, Note_off_c, 0, 62, 121
1, 44729, Note_on_c, 0, 67, 116
1, 44809, Note_off_c, 0, 67, 116
1, 44809, Note_on_c, 0, 72, 119
1, 44915, Note_off_c, 0, 72, 119
1, 44960, Note_on_c, 0, 72, 118
1, 45089, Note_off_c, 0, 72, 118
1, 45092, Note_on_c, 0, 76, 116
1, 45148, Note_off_c, 0, 76, 116
1, 45151, Note_on_c, 0, 77, 122
1, 45424, Note_off_c, 0, 77, 122
1, 45455, Note_on_c, 0, 75, 118
1, 46198, Note_off_c, 0, 75, 118
1, 46256, Note_on_c, 0, 71, 115
1, 46348, Note_off_c, 0, 71, 115
1, 46359, Note_on_c, 0, 74, 114
1, 46465, Note_off_c, 0, 74, 114
1, 46476, Note_on_c, 0, 72, 116
1, 46677, Note_off_c, 0, 72, 116
1, 47087, Note_on_c, 0, 74, 123
1, 47150, Note_off_c, 0, 74, 123
1, 47158, Note_on_c, 0, 75, 118
1, 47841, Note_off_c, 0, 75, 118
1, 47894, Note_on_c, 0, 72, 112
1, 47998, Note_off_c, 0, 72, 112
1, 48079, Note_on_c, 0, 67, 118
1, 48159, Note_off_c, 0, 67, 118
1, 48185, Note_on_c, 0, 70, 120
1, 48271, Note_off_c, 0, 70, 120
1, 48313, Note_on_c, 0, 68, 119
1, 48399, Note_off_c, 0, 68, 119
1, 48477, Note_on_c, 0, 67, 118
1, 48571, Note_off_c, 0, 67, 118
1, 48579, Note_on_c, 0, 68, 118
1, 48663, Note_off_c, 0, 68, 118
1, 48674, Note_on_c, 0, 64, 122
1, 48768, Note_off_c, 0, 64, 122
1, 48776, Note_on_c, 0, 67, 114
1, 48841, Note_off_c, 0, 67, 114
1, 48875, Note_on_c, 0, 65, 119
1, 48971, Note_off_c, 0, 65, 119
1, 48981, Note_on_c, 0, 63, 122
1, 49059, Note_off_c, 0, 63, 122
1, 49075, Note_on_c, 0, 62, 123
1, 49161, Note_off_c, 0, 62, 123
1, 49173, Note_on_c, 0, 60, 106
1, 49251, Note_off_c, 0, 60, 106
1, 49267, Note_on_c, 0, 58, 103
1, 49334, Note_off_c, 0, 58, 103
1, 49334, Note_on_c, 0, 59, 94
1, 49391, Note_off_c, 0, 59, 94
1, 49403, Note_on_c, 0, 60, 106
1, 49478, Note_off_c, 0, 60, 106
1, 49523, Note_on_c, 0, 65, 101
1, 49574, Note_off_c, 0, 65, 101
1, 49786, Note_on_c, 0, 58, 112
1, 50046, Note_off_c, 0, 58, 112
1, 50623, Note_on_c, 0, 62, 123
1, 50742, Note_off_c, 0, 62, 123
1, 50785, Note_on_c, 0, 69, 114
1, 50845, Note_off_c, 0, 69, 114
1, 50852, Note_on_c, 0, 72, 115
1, 50901, Note_off_c, 0, 72, 115
1, 50923, Note_on_c, 0, 71, 118
1, 50998, Note_off_c, 0, 71, 118
1, 51008, Note_on_c, 0, 69, 119
1, 51094, Note_off_c, 0, 69, 119
1, 51120, Note_on_c, 0, 68, 117
1, 51187, Note_off_c, 0, 68, 117
1, 51194, Note_on_c, 0, 69, 120
1, 51288, Note_off_c, 0, 69, 120
1, 51300, Note_on_c, 0, 70, 118
1, 51362, Note_off_c, 0, 70, 118
1, 51375, Note_on_c, 0, 72, 114
1, 51434, Note_off_c, 0, 72, 114
1, 51481, Note_on_c, 0, 69, 116
1, 51535, Note_off_c, 0, 69, 116
1, 51599, Note_on_c, 0, 65, 125
1, 51655, Note_off_c, 0, 65, 125
1, 51662, Note_on_c, 0, 64, 122
1, 51785, Note_off_c, 0, 64, 122
1, 51787, Note_on_c, 0, 62, 106
1, 51850, Note_off_c, 0, 62, 106
1, 51862, Note_on_c, 0, 67, 118
1, 51960, Note_off_c, 0, 67, 118
1, 51990, Note_on_c, 0, 66, 119
1, 52063, Note_off_c, 0, 66, 119
1, 52073, Note_on_c, 0, 65, 120
1, 52150, Note_off_c, 0, 65, 120
1, 52154, Note_on_c, 0, 64, 122
1, 52219, Note_off_c, 0, 64, 122
1, 52243, Note_on_c, 0, 63, 120
1, 52331, Note_off_c, 0, 63, 120
1, 52363, Note_on_c, 0, 62, 120
1, 52440, Note_off_c, 0, 62, 120
1, 52445, Note_on_c, 0, 60, 106
1, 52513, Note_off_c, 0, 60, 106
1, 52540, Note_on_c, 0, 59, 103
1, 52613, Note_off_c, 0, 59, 103
1, 52621, Note_on_c, 0, 62, 127
1, 52713, Note_off_c, 0, 62, 127
1, 52722, Note_on_c, 0, 63, 120
1, 52808, Note_off_c, 0, 63, 120
1, 52819, Note_on_c, 0, 60, 110
1, 52903, Note_off_c, 0, 60, 110
1, 52941, Note_on_c, 0, 56, 103
1, 53002, Note_off_c, 0, 56, 103
1, 53020, Note_on_c, 0, 55, 103
1, 53108, Note_off_c, 0, 55, 103
1, 53126, Note_on_c, 0, 54, 97
1, 53183, Note_off_c, 0, 54, 97
1, 53218, Note_on_c, 0, 58, 116
1, 53326, Note_off_c, 0, 58, 116
1, 53353, Note_on_c, 0, 56, 108
1, 53397, Note_off_c, 0, 56, 108
1, 53494, Note_on_c, 0, 65, 117
1, 53553, Note_off_c, 0, 65, 117
1, 53558, Note_on_c, 0, 68, 117
1, 53717, Note_off_c, 0, 68, 117
1, 53730, Note_on_c, 0, 66, 117
1, 53814, Note_off_c, 0, 66, 117
1, 53858, Note_on_c, 0, 65, 112
1, 53925, Note_off_c, 0, 65, 112
1, 53947, Note_on_c, 0, 68, 121
1, 54041, Note_off_c, 0, 68, 121
1, 54065, Note_on_c, 0, 66, 119
1, 54138, Note_off_c, 0, 66, 119
1, 54240, Note_on_c, 0, 65, 121
1, 54289, Note_off_c, 0, 65, 121
1, 54292, Note_on_c, 0, 67, 117
1, 54443, Note_off_c, 0, 67, 117
1, 54505, Note_on_c, 0, 65, 120
1, 54609, Note_off_c, 0, 65, 120
1, 54627, Note_on_c, 0, 63, 120
1, 54709, Note_off_c, 0, 63, 120
1, 54713, Note_on_c, 0, 67, 119
1, 54823, Note_off_c, 0, 67, 119
1, 54835, Note_on_c, 0, 65, 120
1, 54947, Note_off_c, 0, 65, 120
1, 55012, Note_on_c, 0, 63, 100
1, 55059, Note_off_c, 0, 63, 100
1, 55067, Note_on_c, 0, 67, 116
1, 55239, Note_off_c, 0, 67, 116
1, 55263, Note_on_c, 0, 65, 121
1, 55369, Note_off_c, 0, 65, 121
1, 55390, Note_on_c, 0, 61, 110
1, 55597, Note_off_c, 0, 61, 110
1, 55621, Note_on_c, 0, 62, 121
1, 55740, Note_off_c, 0, 62, 121
1, 56107, Note_on_c, 0, 67, 113
1, 56506, Note_off_c, 0, 67, 113
1, 56518, Note_on_c, 0, 65, 120
1, 56596, Note_off_c, 0, 65, 120
1, 56618, Note_on_c, 0, 63, 123
1, 56701, Note_off_c, 0, 63, 123
1, 56708, Note_on_c, 0, 65, 116
1, 56731, Note_off_c, 0, 65, 116
1, 56735, Note_on_c, 0, 63, 121
1, 56793, Note_off_c, 0, 63, 121
1, 56797, Note_on_c, 0, 62, 121
1, 56886, Note_off_c, 0, 62, 121
1, 56891, Note_on_c, 0, 63, 110
1, 56921, Note_on_c, 0, 62, 120
1, 56921, Note_off_c, 0, 63, 110
1, 57007, Note_off_c, 0, 62, 120
1, 57015, Note_on_c, 0, 60, 109
1, 57115, Note_off_c, 0, 60, 109
1, 57121, Note_on_c, 0, 62, 121
1, 57166, Note_off_c, 0, 62, 121
1, 57170, Note_on_c, 0, 63, 120
1, 57303, Note_off_c, 0, 63, 120
1, 57354, Note_on_c, 0, 65, 94
1, 57384, Note_off_c, 0, 65, 94
1, 57392, Note_on_c, 0, 66, 118
1, 57430, Note_off_c, 0, 66, 118
1, 57435, Note_on_c, 0, 67, 117
1, 57570, Note_off_c, 0, 67, 117
1, 57575, Note_on_c, 0, 70, 120
1, 57667, Note_off_c, 0, 70, 120
1, 57674, Note_on_c, 0, 67, 119
1, 57813, Note_off_c, 0, 67, 119
1, 57820, Note_on_c, 0, 66, 118
1, 57858, Note_off_c, 0, 66, 118
1, 57972, Note_on_c, 0, 63, 122
1, 58089, Note_off_c, 0, 63, 122
1, 58092, Note_on_c, 0, 67, 117
1, 58145, Note_off_c, 0, 67, 117
1, 58177, Note_on_c, 0, 63, 120
1, 58296, Note_off_c, 0, 63, 120
1, 58361, Note_on_c, 0, 60, 104
1, 58432, Note_off_c, 0, 60, 104
1, 58442, Note_on_c, 0, 63, 122
1, 58538, Note_off_c, 0, 63, 122
1, 58572, Note_on_c, 0, 60, 112
1, 58652, Note_off_c, 0, 60, 112
1, 58701, Note_on_c, 0, 55, 100
1, 58787, Note_off_c, 0, 55, 100
1, 58826, Note_on_c, 0, 58, 113
1, 58908, Note_off_c, 0, 58, 113
1, 58938, Note_on_c, 0, 55, 106
1, 59260, Note_off_c, 0, 55, 106
1, 59587, Note_on_c, 0, 70, 120
1, 59643, Note_off_c, 0, 70, 120
1, 59651, Note_on_c, 0, 72, 119
1, 59786, Note_off_c, 0, 72, 119
1, 59856, Note_on_c, 0, 70, 122
1, 59909, Note_off_c, 0, 70, 122
1, 59916, Note_on_c, 0, 71, 118
1, 59955, Note_off_c, 0, 71, 118
1, 59967, Note_on_c, 0, 70, 121
1, 60042, Note_off_c, 0, 70, 121
1, 60050, Note_on_c, 0, 68, 117
1, 60136, Note_off_c, 0, 68, 117
1, 60148, Note_on_c, 0, 67, 121
1, 60221, Note_off_c, 0, 67, 121
1, 60259, Note_on_c, 0, 65, 122
1, 60334, Note_off_c, 0, 65, 122
1, 60414, Note_on_c, 0, 64, 123
1, 60498, Note_off_c, 0, 64, 123
1, 60528, Note_on_c, 0, 65, 120
1, 60614, Note_off_c, 0, 65, 120
1, 60624, Note_on_c, 0, 67, 118
1, 60702, Note_off_c, 0, 67, 118
1, 60720, Note_on_c, 0, 68, 122
1, 60789, Note_off_c, 0, 68, 122
1, 60823, Note_on_c, 0, 65, 119
1, 60905, Note_off_c, 0, 65, 119
1, 60946, Note_on_c, 0, 60, 104
1, 61024, Note_off_c, 0, 60, 104
1, 61026, Note_on_c, 0, 63, 124
1, 61122, Note_off_c, 0, 63, 124
1, 61128, Note_on_c, 0, 60, 109
1, 61197, Note_off_c, 0, 60, 109
1, 61201, Note_on_c, 0, 61, 115
1, 61293, Note_off_c, 0, 61, 115
1, 61299, Note_on_c, 0, 62, 119
1, 61409, Note_off_c, 0, 62, 119
1, 61462, Note_on_c, 0, 58, 94
1, 61511, Note_off_c, 0, 58, 94
1, 61521, Note_on_c, 0, 59, 102
1, 61557, Note_off_c, 0, 59, 102
1, 61575, Note_on_c, 0, 60, 111
1, 61704, Note_off_c, 0, 60, 111
1, 61729, Note_on_c, 0, 67, 101
1, 61817, Note_off_c, 0, 67, 101
1, 61821, Note_on_c, 0, 66, 100
1, 61857, Note_off_c, 0, 66, 100
1, 61978, Note_on_c, 0, 58, 114
1, 62101, Note_off_c, 0, 58, 114
1, 62121, Note_on_c, 0, 56, 105
1, 62410, Note_off_c, 0, 56, 105
1, 62697, Note_on_c, 0, 62, 126
1, 62803, Note_off_c, 0, 62, 126
1, 62814, Note_on_c, 0, 65, 124
1, 62886, Note_off_c, 0, 65, 124
1, 62896, Note_on_c, 0, 64, 123
1, 62990, Note_off_c, 0, 64, 123
1, 63046, Note_on_c, 0, 60, 106
1, 63076, Note_off_c, 0, 60, 106
1, 63101, Note_on_c, 0, 67, 119
1, 63207, Note_off_c, 0, 67, 119
1, 63280, Note_on_c, 0, 62, 125
1, 63378, Note_off_c, 0, 62, 125
1, 63390, Note_on_c, 0, 65, 125
1, 63461, Note_off_c, 0, 65, 125
1, 63473, Note_on_c, 0, 64, 126
1, 63585, Note_off_c, 0, 64, 126
1, 63672, Note_on_c, 0, 67, 117
1, 63834, Note_off_c, 0, 67, 117
1, 63846, Note_on_c, 0, 65, 106
1, 63910, Note_off_c, 0, 65, 106
1, 64242, Note_on_c, 0, 60, 118
1, 64352, Note_off_c, 0, 60, 118
1, 64352, Note_on_c, 0, 63, 125
1, 64409, Note_off_c, 0, 63, 125
1, 64427, Note_on_c, 0, 62, 119
1, 64537, Note_off_c, 0, 62, 119
1, 64573, Note_on_c, 0, 60, 97
1, 64612, Note_off_c, 0, 60, 97
1, 64622, Note_on_c, 0, 65, 118
1, 64782, Note_off_c, 0, 65, 118
1, 64806, Note_on_c, 0, 60, 117
1, 64923, Note_off_c, 0, 60, 117
1, 64931, Note_on_c, 0, 63, 124
1, 64972, Note_off_c, 0, 63, 124
1, 64978, Note_on_c, 0, 62, 120
1, 65123, Note_off_c, 0, 62, 120
1, 65139, Note_on_c, 0, 60, 97
1, 65192, Note_off_c, 0, 60, 97
1, 65206, Note_on_c, 0, 65, 118
1, 65411, Note_off_c, 0, 65, 118
1, 65581, Note_on_c, 0, 63, 121
1, 65669, Note_off_c, 0, 63, 121
1, 65718, Note_on_c, 0, 68, 116
1, 65810, Note_off_c, 0, 68, 116
1, 65885, Note_on_c, 0, 63, 106
1, 65958, Note_off_c, 0, 63, 106
1, 65976, Note_on_c, 0, 67, 117
1, 66041, Note_off_c, 0, 67, 117
1, 66047, Note_on_c, 0, 68, 113
1, 66153, Note_off_c, 0, 68, 113
1, 66157, Note_on_c, 0, 63, 118
1, 66321, Note_off_c, 0, 63, 118
1, 66321, Note_on_c, 0, 62, 120
1, 66450, Note_off_c, 0, 62, 120
1, 66472, Note_on_c, 0, 67, 113
1, 66545, Note_off_c, 0, 67, 113
1, 66705, Note_on_c, 0, 67, 113
1, 66805, Note_off_c, 0, 67, 113
1, 66837, Note_on_c, 0, 62, 120
1, 67231, Note_off_c, 0, 62, 120
1, 67292, Note_on_c, 0, 62, 124
1, 67402, Note_off_c, 0, 62, 124
1, 67407, Note_on_c, 0, 63, 117
1, 67471, Note_off_c, 0, 63, 117
1, 67480, Note_on_c, 0, 62, 120
1, 67566, Note_off_c, 0, 62, 120
1, 67602, Note_on_c, 0, 60, 109
1, 67642, Note_off_c, 0, 60, 109
1, 67653, Note_on_c, 0, 55, 105
1, 67780, Note_off_c, 0, 55, 105
1, 67827, Note_on_c, 0, 55, 105
1, 67941, Note_off_c, 0, 55, 105
1, 67977, Note_on_c, 0, 55, 103
1, 68225, Note_off_c, 0, 55, 103
1, 68792, Note_on_c, 0, 62, 118
1, 68923, Note_off_c, 0, 62, 118
1, 68972, Note_on_c, 0, 62, 119
1, 69122, Note_off_c, 0, 62, 119
1, 69199, Note_on_c, 0, 62, 119
1, 69559, Note_off_c, 0, 62, 119
1, 69638, Note_on_c, 0, 64, 113
1, 69736, Note_off_c, 0, 64, 113
1, 69828, Note_on_c, 0, 69, 116
1, 69936, Note_off_c, 0, 69, 116
1, 69991, Note_on_c, 0, 67, 120
1, 70103, Note_off_c, 0, 67, 120
1, 70107, Note_on_c, 0, 64, 118
1, 70219, Note_off_c, 0, 64, 118
1, 70241, Note_on_c, 0, 62, 121
1, 70351, Note_off_c, 0, 62, 121
1, 70361, Note_on_c, 0, 60, 106
1, 70445, Note_off_c, 0, 60, 106
1, 70464, Note_on_c, 0, 62, 120
1, 70564, Note_off_c, 0, 62, 120
1, 70624, Note_on_c, 0, 55, 102
1, 70666, Note_off_c, 0, 55, 102
1, 70734, Note_on_c, 0, 58, 92
1, 70799, Note_off_c, 0, 58, 92
1, 70807, Note_on_c, 0, 60, 112
1, 70960, Note_off_c, 0, 60, 112
1, 70980, Note_on_c, 0, 60, 114
1, 71355, Note_off_c, 0, 60, 114
1, 71828, Note_on_c, 0, 60, 112
1, 71971, Note_off_c, 0, 60, 112
1, 72070, Note_on_c, 0, 60, 114
1, 72203, Note_off_c, 0, 60, 114
1, 72235, Note_on_c, 0, 60, 113
1, 72479, Note_off_c, 0, 60, 113
1, 72513, Note_on_c, 0, 63, 119
1, 72541, Note_off_c, 0, 63, 119
1, 72573, Note_on_c, 0, 65, 118
1, 72835, Note_off_c, 0, 65, 118
1, 72902, Note_on_c, 0, 63, 121
1, 73004, Note_off_c, 0, 63, 121
1, 73008, Note_on_c, 0, 65, 118
1, 73122, Note_off_c, 0, 65, 118
1, 73131, Note_on_c, 0, 63, 119
1, 73301, Note_off_c, 0, 63, 119
1, 73520, Note_on_c, 0, 62, 122
1, 73616, Note_off_c, 0, 62, 122
1, 73631, Note_on_c, 0, 63, 121
1, 73684, Note_off_c, 0, 63, 121
1, 73696, Note_on_c, 0, 62, 118
1, 73802, Note_off_c, 0, 62, 118
1, 73831, Note_on_c, 0, 60, 109
1, 73898, Note_off_c, 0, 60, 109
1, 73908, Note_on_c, 0, 59, 100
1, 73998, Note_off_c, 0, 59, 100
1, 74018, Note_on_c, 0, 62, 109
1, 74108, Note_off_c, 0, 62, 109
1, 74114, Note_on_c, 0, 65, 116
1, 74206, Note_off_c, 0, 65, 116
1, 74206, Note_on_c, 0, 68, 115
1, 74292, Note_off_c, 0, 68, 115
1, 74294, Note_on_c, 0, 67, 113
1, 74361, Note_off_c, 0, 67, 113
1, 74404, Note_on_c, 0, 65, 117
1, 74486, Note_off_c, 0, 65, 117
1, 74503, Note_on_c, 0, 60, 113
1, 74572, Note_off_c, 0, 60, 113
1, 74612, Note_on_c, 0, 55, 103
1, 74692, Note_off_c, 0, 55, 103
1, 74800, Note_on_c, 0, 59, 96
1, 74861, Note_off_c, 0, 59, 96
1, 74863, Note_on_c, 0, 62, 120
1, 74973, Note_off_c, 0, 62, 120
1, 74990, Note_on_c, 0, 60, 95
1, 75057, Note_off_c, 0, 60, 95
1, 75062, Note_on_c, 0, 67, 105
1, 75131, Note_off_c, 0, 67, 105
1, 75186, Note_on_c, 0, 60, 99
1, 75253, Note_off_c, 0, 60, 99
1, 75267, Note_on_c, 0, 63, 118
1, 75361, Note_off_c, 0, 63, 118
1, 75369, Note_on_c, 0, 67, 114
1, 75588, Note_off_c, 0, 67, 114
1, 75635, Note_on_c, 0, 65, 121
1, 75741, Note_off_c, 0, 65, 121
1, 75746, Note_on_c, 0, 67, 118
1, 75812, Note_off_c, 0, 67, 118
1, 75822, Note_on_c, 0, 68, 115
1, 75912, Note_off_c, 0, 68, 115
1, 75937, Note_on_c, 0, 72, 117
1, 76025, Note_off_c, 0, 72, 117
1, 76213, Note_on_c, 0, 66, 120
1, 76304, Note_off_c, 0, 66, 120
1, 76311, Note_on_c, 0, 67, 116
1, 76339, Note_off_c, 0, 67, 116
1, 76347, Note_on_c, 0, 69, 116
1, 76374, Note_off_c, 0, 69, 116
1, 76376, Note_on_c, 0, 71, 110
1, 76402, Note_off_c, 0, 71, 110
1, 76407, Note_on_c, 0, 74, 112
1, 76614, Note_off_c, 0, 74, 112
1, 76640, Note_on_c, 0, 71, 118
1, 76738, Note_off_c, 0, 71, 118
1, 76777, Note_on_c, 0, 72, 117
1, 76869, Note_off_c, 0, 72, 117
1, 76907, Note_on_c, 0, 67, 115
1, 77109, Note_off_c, 0, 67, 115
1, 77890, Note_on_c, 0, 60, 118
1, 78002, Note_off_c, 0, 60, 118
1, 78002, Note_on_c, 0, 61, 119
1, 78086, Note_off_c, 0, 61, 119
1, 78096, Note_on_c, 0, 64, 121
1, 78182, Note_off_c, 0, 64, 121
1, 78202, Note_on_c, 0, 68, 113
1, 78280, Note_off_c, 0, 68, 113
1, 78304, Note_on_c, 0, 70, 117
1, 78373, Note_off_c, 0, 70, 117
1, 78477, Note_on_c, 0, 75, 122
1, 78598, Note_off_c, 0, 75, 122
1, 78618, Note_on_c, 0, 73, 114
1, 78712, Note_off_c, 0, 73, 114
1, 78721, Note_on_c, 0, 72, 113
1, 79191, Note_off_c, 0, 72, 113
1, 79215, Note_on_c, 0, 70, 119
1, 79307, Note_off_c, 0, 70, 119
1, 79331, Note_on_c, 0, 67, 111
1, 79409, Note_off_c, 0, 67, 111
1, 79416, Note_on_c, 0, 68, 115
1, 79492, Note_off_c, 0, 68, 115
1, 79517, Note_on_c, 0, 60, 99
1, 79615, Note_off_c, 0, 60, 99
1, 79649, Note_on_c, 0, 62, 105
1, 79729, Note_off_c, 0, 62, 105
1, 79733, Note_on_c, 0, 64, 106
1, 79790, Note_off_c, 0, 64, 106
1, 79810, Note_on_c, 0, 67, 115
1, 79898, Note_off_c, 0, 67, 115
1, 79916, Note_on_c, 0, 65, 113
1, 79977, Note_off_c, 0, 65, 113
1, 80005, Note_on_c, 0, 64, 110
1, 80099, Note_off_c, 0, 64, 110
1, 80106, Note_on_c, 0, 65, 116
1, 80167, Note_off_c, 0, 65, 116
1, 80171, Note_on_c, 0, 68, 118
1, 80269, Note_off_c, 0, 68, 118
1, 80300, Note_on_c, 0, 72, 118
1, 80388, Note_off_c, 0, 72, 118
1, 80393, Note_on_c, 0, 70, 111
1, 80448, Note_off_c, 0, 70, 111
1, 80893, Note_on_c, 0, 62, 124
1, 81001, Note_off_c, 0, 62, 124
1, 81001, Note_on_c, 0, 65, 107
1, 81095, Note_off_c, 0, 65, 107
1, 81101, Note_on_c, 0, 69, 112
1, 81203, Note_off_c, 0, 69, 112
1, 81213, Note_on_c, 0, 72, 112
1, 81291, Note_off_c, 0, 72, 112
1, 81307, Note_on_c, 0, 72, 112
1, 81393, Note_off_c, 0, 72, 112
1, 81493, Note_on_c, 0, 76, 124
1, 81597, Note_off_c, 0, 76, 124
1, 81703, Note_on_c, 0, 79, 121
1, 81934, Note_off_c, 0, 79, 121
1, 81950, Note_on_c, 0, 76, 125
1, 82222, Note_off_c, 0, 76, 125
1, 82507, Note_on_c, 0, 76, 117
1, 82548, Note_off_c, 0, 76, 117
1, 82556, Note_on_c, 0, 77, 114
1, 83082, Note_off_c, 0, 77, 114
1, 83160, Note_on_c, 0, 74, 116
1, 83272, Note_off_c, 0, 74, 116
1, 83324, Note_on_c, 0, 74, 120
1, 83434, Note_off_c, 0, 74, 120
1, 83475, Note_on_c, 0, 70, 116
1, 83600, Note_off_c, 0, 70, 116
1, 83622, Note_on_c, 0, 70, 115
1, 83712, Note_off_c, 0, 70, 115
1, 83768, Note_on_c, 0, 68, 112
1, 83865, Note_off_c, 0, 68, 112
1, 83870, Note_on_c, 0, 67, 117
1, 83900, Note_off_c, 0, 67, 117
1, 83902, Note_on_c, 0, 67, 110
1, 84141, Note_off_c, 0, 67, 110
1, 84623, Note_on_c, 0, 68, 118
1, 84728, Note_off_c, 0, 68, 118
1, 84731, Note_on_c, 0, 67, 112
1, 84958, Note_off_c, 0, 67, 112
1, 84971, Note_on_c, 0, 68, 119
1, 85049, Note_off_c, 0, 68, 119
1, 85056, Note_on_c, 0, 67, 115
1, 85277, Note_off_c, 0, 67, 115
1, 85323, Note_on_c, 0, 68, 119
1, 85406, Note_off_c, 0, 68, 119
1, 85416, Note_on_c, 0, 67, 114
1, 85635, Note_off_c, 0, 67, 114
1, 85695, Note_on_c, 0, 63, 120
1, 85809, Note_off_c, 0, 63, 120
1, 85821, Note_on_c, 0, 62, 120
1, 86042, Note_off_c, 0, 62, 120
1, 86058, Note_on_c, 0, 56, 109
1, 86166, Note_off_c, 0, 56, 109
1, 86186, Note_on_c, 0, 55, 113
1, 86442, Note_off_c, 0, 55, 113
1, 86552, Note_on_c, 0, 62, 121
1, 86654, Note_off_c, 0, 62, 121
1, 86658, Note_on_c, 0, 63, 124
1, 86746, Note_off_c, 0, 63, 124
1, 86764, Note_on_c, 0, 62, 120
1, 86862, Note_off_c, 0, 62, 120
1, 86890, Note_on_c, 0, 60, 109
1, 86959, Note_off_c, 0, 60, 109
1, 86965, Note_on_c, 0, 55, 104
1, 87067, Note_off_c, 0, 55, 104
1, 87130, Note_on_c, 0, 55, 103
1, 87632, Note_off_c, 0, 55, 103
1, 87632, End_track
0, 0, End_of_file
