0, 0, Header, 1, 1, 192
1, 0, Start_track
1, 0, Title_t, "Melody"
1, 0, Tempo, 331491
1, 0, Key_signature, -2, "major"
1, 0, Time_signature, 4, 2, 24, 8
1, 1626, Note_on_c, 0, 60, 118
1, 1722, Note_off_c, 0, 60, 118
1, 1733, Note_on_c, 0, 55, 113
1, 1890, Note_off_c, 0, 55, 113
1, 1995, Note_on_c, 0, 58, 106
1, 2149, Note_off_c, 0, 58, 106
1, 2200, Note_on_c, 0, 58, 99
1, 2282, Note_off_c, 0, 58, 99
1, 2331, Note_on_c, 0, 60, 109
1, 2383, Note_off_c, 0, 60, 109
1, 2398, Note_on_c, 0, 62, 108
1, 2454, Note_off_c, 0, 62, 108
1, 2465, Note_on_c, 0, 62, 117
1, 2521, Note_off_c, 0, 62, 117
1, 2528, Note_on_c, 0, 60, 107
1, 2578, Note_off_c, 0, 60, 107
1, 2593, Note_on_c, 0, 58, 99
1, 2701, Note_off_c, 0, 58, 99
1, 2786, Note_on_c, 0, 63, 119
1, 2886, Note_off_c, 0, 63, 119
1, 2915, Note_on_c, 0, 65, 112
1, 2968, Note_off_c, 0, 65, 112
1, 3004, Note_on_c, 0, 67, 109
1, 3087, Note_off_c, 0, 67, 109
1, 3141, Note_on_c, 0, 65, 117
1, 3219, Note_off_c, 0, 65, 117
1, 3297, Note_on_c, 0, 70, 117
1, 3406, Note_off_c, 0, 70, 117
1, 3490, Note_on_c, 0, 69, 117
1, 3586, Note_off_c, 0, 69, 117
1, 3596, Note_on_c, 0, 70, 119
1, 3688, Note_off_c, 0, 70, 119
1, 3738, Note_on_c, 0, 65, 116
1, 3840, Note_off_c, 0, 65, 116
1, 3887, Note_on_c, 0, 64, 116
1, 3987, Note_off_c, 0, 64, 116
1, 3995, Note_on_c, 0, 65, 113
1, 4102, Note_off_c, 0, 65, 113
1, 4179, Note_on_c, 0, 67, 112
1, 4277, Note_off_c, 0, 67, 112
1, 4287, Note_on_c, 0, 68, 117
1, 4356, Note_off_c, 0, 68, 117
1, 4383, Note_on_c, 0, 65, 112
1, 4450, Note_off_c, 0, 65, 112
1, 4472, Note_on_c, 0, 62, 118
1, 4552, Note_off_c, 0, 62, 118
1, 4661, Note_on_c, 0, 58, 93
1, 4698, Note_off_c, 0, 58, 93
1, 4703, Note_on_c, 0, 59, 87
1, 4754, Note_off_c, 0, 59, 87
1, 4771, Note_on_c, 0, 67, 113
1, 4853, Note_off_c, 0, 67, 113
1, 4872, Note_on_c, 0, 65, 113
1, 4963, Note_off_c, 0, 65, 113
1, 5047, Note_on_c, 0, 62, 113
1, 5110, Note_off_c, 0, 62, 113
1, 5114, Note_on_c, 0, 63, 114
1, 5258, Note_off_c, 0, 63, 114
1, 5267, Note_on_c, 0, 58, 99
1, 5350, Note_off_c, 0, 58, 99
1, 5790, Note_on_c, 0, 60, 115
1, 5850, Note_off_c, 0, 60, 115
1, 5856, Note_on_c, 0, 61, 122
1, 5948, Note_off_c, 0, 61, 122
1, 5951, Note_on_c, 0, 60, 109
1, 5992, Note_off_c, 0, 60, 109
1, 5994, Note_on_c, 0, 61, 114
1, 6067, Note_off_c, 0, 61, 114
1, 6085, Note_on_c, 0, 65, 115
1, 6173, Note_off_c, 0, 65, 115
1, 6174, Note_on_c, 0, 64, 112
1, 6221, Note_off_c, 0, 64, 112
1, 6274, Note_on_c, 0, 68, 114
1, 6362, Note_off_c, 0, 68, 114
1, 6384, Note_on_c, 0, 68, 96
1, 6423, Note_off_c, 0, 68, 96
1, 6446, Note_on_c, 0, 70, 109
1, 6524, Note_off_c, 0, 70, 109
1, 6526, Note_on_c, 0, 72, 114
1, 6593, Note_off_c, 0, 72, 114
1, 6596, Note_on_c, 0, 70, 101
1, 6892, Note_off_c, 0, 70, 101
1, 7571, Note_on_c, 0, 69, 120
1, 7656, Note_off_c, 0, 69, 120
1, 7667, Note_on_c, 0, 67, 110
1, 7748, Note_off_c, 0, 67, 110
1, 7771, Note_on_c, 0, 70, 117
1, 7846, Note_off_c, 0, 70, 117
1, 7872, Note_on_c, 0, 67, 115
1, 7944, Note_off_c, 0, 67, 115
1, 7968, Note_on_c, 0, 63, 118
1, 8057, Note_off_c, 0, 63, 118
1, 8064, Note_on_c, 0, 58, 97
1, 8111, Note_off_c, 0, 58, 97
1, 8204, Note_on_c, 0, 62, 118
1, 8433, Note_off_c, 0, 62, 118
1, 8475, Note_on_c, 0, 65, 117
1, 8584, Note_off_c, 0, 65, 117
1, 8816, Note_on_c, 0, 62, 116
1, 8904, Note_off_c, 0, 62, 116
1, 8915, Note_on_c, 0, 63, 120
1, 9018, Note_off_c, 0, 63, 120
1, 9020, Note_on_c, 0, 65, 113
1, 9105, Note_off_c, 0, 65, 113
1, 9117, Note_on_c, 0, 67, 113
1, 9203, Note_off_c, 0, 67, 113
1, 9219, Note_on_c, 0, 69, 114
1, 9288, Note_off_c, 0, 69, 114
1, 9311, Note_on_c, 0, 74, 108
1, 9396, Note_off_c, 0, 74, 108
1, 9500, Note_on_c, 0, 65, 104
1, 9596, Note_off_c, 0, 65, 104
1, 9622, Note_on_c, 0, 70, 117
1, 9711, Note_off_c, 0, 70, 117
1, 10092, Note_on_c, 0, 68, 114
1, 10174, Note_off_c, 0, 68, 114
1, 10191, Note_on_c, 0, 68, 114
1, 10243, Note_off_c, 0, 68, 114
1, 10294, Note_on_c, 0, 67, 109
1, 10375, Note_off_c, 0, 67, 109
1, 10387, Note_on_c, 0, 67, 111
1, 10456, Note_off_c, 0, 67, 111
1, 10473, Note_on_c, 0, 65, 109
1, 10704, Note_off_c, 0, 65, 109
1, 10759, Note_on_c, 0, 63, 120
1, 10828, Note_off_c, 0, 63, 120
1, 10841, Note_on_c, 0, 61, 110
1, 10898, Note_off_c, 0, 61, 110
1, 10908, Note_on_c, 0, 62, 110
1, 11022, Note_off_c, 0, 62, 110
1, 11058, Note_on_c, 0, 65, 116
1, 11147, Note_off_c, 0, 65, 116
1, 11158, Note_on_c, 0, 58, 92
1, 11431, Note_off_c, 0, 58, 92
1, 11453, Note_on_c, 0, 60, 112
1, 11544, Note_off_c, 0, 60, 112
1, 11564, Note_on_c, 0, 58, 97
1, 11613, Note_off_c, 0, 58, 97
1, 11654, Note_on_c, 0, 61, 112
1, 11700, Note_off_c, 0, 61, 112
1, 11705, Note_on_c, 0, 62, 111
1, 11773, Note_off_c, 0, 62, 111
1, 11804, Note_on_c, 0, 65, 116
1, 11898, Note_off_c, 0, 65, 116
1, 11953, Note_on_c, 0, 63, 117
1, 12211, Note_off_c, 0, 63, 117
1, 12234, Note_on_c, 0, 65, 110
1, 12330, Note_off_c, 0, 65, 110
1, 12331, Note_on_c, 0, 63, 113
1, 12397, Note_off_c, 0, 63, 113
1, 12401, Note_on_c, 0, 66, 108
1, 12469, Note_off_c, 0, 66, 108
1, 12471, Note_on_c, 0, 67, 107
1, 12527, Note_off_c, 0, 67, 107
1, 12550, Note_on_c, 0, 58, 95
1, 12669, Note_off_c, 0, 58, 95
1, 12949, Note_on_c, 0, 57, 97
1, 12985, Note_off_c, 0, 57, 97
1, 13014, Note_on_c, 0, 60, 111
1, 13125, Note_off_c, 0, 60, 111
1, 13139, Note_on_c, 0, 58, 92
1, 13193, Note_off_c, 0, 58, 92
1, 13198, Note_on_c, 0, 61, 112
1, 13248, Note_off_c, 0, 61, 112
1, 13253, Note_on_c, 0, 62, 115
1, 13330, Note_off_c, 0, 62, 115
1, 13336, Note_on_c, 0, 65, 113
1, 13397, Note_off_c, 0, 65, 113
1, 13424, Note_on_c, 0, 67, 114
1, 13498, Note_off_c, 0, 67, 114
1, 13519, Note_on_c, 0, 68, 113
1, 13757, Note_off_c, 0, 68, 113
1, 13775, Note_on_c, 0, 67, 116
1, 13866, Note_off_c, 0, 67, 116
1, 13879, Note_on_c, 0, 66, 106
1, 13938, Note_off_c, 0, 66, 106
1, 13963, Note_on_c, 0, 66, 104
1, 14059, Note_off_c, 0, 66, 104
1, 14081, Note_on_c, 0, 58, 96
1, 14128, Note_off_c, 0, 58, 96
1, 14681, Note_on_c, 0, 58, 98
1, 14715, Note_off_c, 0, 58, 98
1, 14748, Note_on_c, 0, 63, 123
1, 14871, Note_off_c, 0, 63, 123
1, 14900, Note_on_c, 0, 58, 89
1, 14939, Note_off_c, 0, 58, 89
1, 14949, Note_on_c, 0, 63, 119
1, 15048, Note_off_c, 0, 63, 119
1, 15060, Note_on_c, 0, 67, 105
1, 15101, Note_off_c, 0, 67, 105
1, 15156, Note_on_c, 0, 72, 101
1, 15242, Note_off_c, 0, 72, 101
1, 15248, Note_on_c, 0, 70, 109
1, 15329, Note_off_c, 0, 70, 109
1, 15343, Note_on_c, 0, 67, 110
1, 15426, Note_off_c, 0, 67, 110
1, 15441, Note_on_c, 0, 63, 120
1, 15836, Note_off_c, 0, 63, 120
1, 16286, Note_on_c, 0, 58, 98
1, 16390, Note_off_c, 0, 58, 98
1, 16423, Note_on_c, 0, 53, 97
1, 16469, Note_off_c, 0, 53, 97
1, 16490, Note_on_c, 0, 58, 90
1, 16565, Note_off_c, 0, 58, 90
1, 16590, Note_on_c, 0, 62, 120
1, 16644, Note_off_c, 0, 62, 120
1, 16663, Note_on_c, 0, 67, 114
1, 16751, Note_off_c, 0, 67, 114
1, 16766, Note_on_c, 0, 65, 112
1, 16835, Note_off_c, 0, 65, 112
1, 16858, Note_on_c, 0, 62, 117
1, 16963, Note_off_c, 0, 62, 117
1, 16975, Note_on_c, 0, 58, 98
1, 17076, Note_off_c, 0, 58, 98
1, 17172, Note_on_c, 0, 61, 120
1, 17254, Note_off_c, 0, 61, 120
1, 17261, Note_on_c, 0, 62, 119
1, 17399, Note_off_c, 0, 62, 119
1, 17413, Note_on_c, 0, 58, 96
1, 17548, Note_off_c, 0, 58, 96
1, 17571, Note_on_c, 0, 58, 100
1, 17650, Note_off_c, 0, 58, 100
1, 18205, Note_on_c, 0, 60, 115
1, 18296, Note_off_c, 0, 60, 115
1, 18313, Note_on_c, 0, 62, 121
1, 18389, Note_off_c, 0, 62, 121
1, 18412, Note_on_c, 0, 63, 125
1, 18503, Note_off_c, 0, 63, 125
1, 18511, Note_on_c, 0, 65, 115
1, 18579, Note_off_c, 0, 65, 115
1, 18597, Note_on_c, 0, 61, 121
1, 18649, Note_off_c, 0, 61, 121
1, 18656, Note_on_c, 0, 62, 119
1, 18725, Note_off_c, 0, 62, 119
1, 18734, Note_on_c, 0, 65, 109
1, 18765, Note_off_c, 0, 65, 109
1, 18794, Note_on_c, 0, 67, 113
1, 18898, Note_off_c, 0, 67, 113
1, 18914, Note_on_c, 0, 70, 109
1, 19175, Note_off_c, 0, 70, 109
1, 19193, Note_on_c, 0, 68, 116
1, 19244, Note_off_c, 0, 68, 116
1, 19246, Note_on_c, 0, 70, 103
1, 19269, Note_off_c, 0, 70, 103
1, 19276, Note_on_c, 0, 68, 109
1, 19303, Note_off_c, 0, 68, 109
1, 19309, Note_on_c, 0, 65, 111
1, 19368, Note_off_c, 0, 65, 111
1, 19379, Note_on_c, 0, 63, 123
1, 19493, Note_off_c, 0, 63, 123
1, 19520, Note_on_c, 0, 65, 107
1, 19761, Note_off_c, 0, 65, 107
1, 19888, Note_on_c, 0, 70, 111
1, 19989, Note_off_c, 0, 70, 111
1, 20059, Note_on_c, 0, 68, 109
1, 20086, Note_off_c, 0, 68, 109
1, 20100, Note_on_c, 0, 65, 112
1, 20163, Note_off_c, 0, 65, 112
1, 20174, Note_on_c, 0, 63, 120
1, 20244, Note_off_c, 0, 63, 120
1, 20247, Note_on_c, 0, 64, 110
1, 20263, Note_off_c, 0, 64, 110
1, 20265, Note_on_c, 0, 63, 117
1, 20314, Note_off_c, 0, 63, 117
1, 20321, Note_on_c, 0, 61, 111
1, 20391, Note_off_c, 0, 61, 111
1, 20393, Note_on_c, 0, 58, 97
1, 20467, Note_off_c, 0, 58, 97
1, 20471, Note_on_c, 0, 56, 103
1, 20531, Note_off_c, 0, 56, 103
1, 20551, Note_on_c, 0, 58, 93
1, 20881, Note_off_c, 0, 58, 93
1, 20889, Note_on_c, 0, 55, 97
1, 20919, Note_off_c, 0, 55, 97
1, 20939, Note_on_c, 0, 58, 94
1, 21068, Note_off_c, 0, 58, 94
1, 21081, Note_on_c, 0, 58, 97
1, 21130, Note_off_c, 0, 58, 97
1, 21432, Note_on_c, 0, 70, 115
1, 21511, Note_off_c, 0, 70, 115
1, 21526, Note_on_c, 0, 68, 104
1, 21583, Note_off_c, 0, 68, 104
1, 21585, Note_on_c, 0, 70, 88
1, 21614, Note_off_c, 0, 70, 88
1, 21620, Note_on_c, 0, 68, 103
1, 21648, Note_off_c, 0, 68, 103
1, 21653, Note_on_c, 0, 65, 102
1, 21704, Note_off_c, 0, 65, 102
1, 21718, Note_on_c, 0, 63, 115
1, 21762, Note_off_c, 0, 63, 115
1, 21766, Note_on_c, 0, 65, 102
1, 21788, Note_off_c, 0, 65, 102
1, 21791, Note_on_c, 0, 63, 116
1, 21847, Note_off_c, 0, 63, 116
1, 21852, Note_on_c, 0, 61, 109
1, 21919, Note_off_c, 0, 61, 109
1, 21922, Note_on_c, 0, 58, 96
1, 22011, Note_off_c, 0, 58, 96
1, 22027, Note_on_c, 0, 56, 97
1, 22079, Note_off_c, 0, 56, 97
1, 22090, Note_on_c, 0, 58, 94
1, 22354, Note_off_c, 0, 58, 94
1, 22425, Note_on_c, 0, 56, 93
1, 22460, Note_off_c, 0, 56, 93
1, 22499, Note_on_c, 0, 58, 98
1, 22598, Note_off_c, 0, 58, 98
1, 22610, Note_on_c, 0, 61, 116
1, 22679, Note_off_c, 0, 61, 116
1, 22980, Note_on_c, 0, 70, 112
1, 23053, Note_off_c, 0, 70, 112
1, 23055, Note_on_c, 0, 68, 98
1, 23114, Note_off_c, 0, 68, 98
1, 23122, Note_on_c, 0, 70, 83
1, 23150, Note_off_c, 0, 70, 83
1, 23157, Note_on_c, 0, 68, 101
1, 23196, Note_off_c, 0, 68, 101
1, 23204, Note_on_c, 0, 65, 110
1, 23265, Note_off_c, 0, 65, 110
1, 23278, Note_on_c, 0, 63, 118
1, 23315, Note_off_c, 0, 63, 118
1, 23324, Note_on_c, 0, 65, 108
1, 23348, Note_off_c, 0, 65, 108
1, 23357, Note_on_c, 0, 63, 121
1, 23394, Note_off_c, 0, 63, 121
1, 23402, Note_on_c, 0, 61, 114
1, 23465, Note_off_c, 0, 61, 114
1, 23468, Note_on_c, 0, 58, 98
1, 23562, Note_off_c, 0, 58, 98
1, 23574, Note_on_c, 0, 56, 103
1, 23628, Note_off_c, 0, 56, 103
1, 23643, Note_on_c, 0, 58, 100
1, 23743, Note_off_c, 0, 58, 100
1, 23836, Note_on_c, 0, 58, 99
1, 23942, Note_off_c, 0, 58, 99
1, 23962, Note_on_c, 0, 58, 100
1, 24002, Note_off_c, 0, 58, 100
1, 24041, Note_on_c, 0, 61, 114
1, 24169, Note_off_c, 0, 61, 114
1, 24226, Note_on_c, 0, 61, 116
1, 24309, Note_off_c, 0, 61, 116
1, 24333, Note_on_c, 0, 61, 114
1, 24401, Note_off_c, 0, 61, 114
1, 24425, Note_on_c, 0, 58, 90
1, 24514, Note_off_c, 0, 58, 90
1, 24532, Note_on_c, 0, 61, 112
1, 24593, Note_off_c, 0, 61, 112
1, 24613, Note_on_c, 0, 63, 117
1, 24705, Note_off_c, 0, 63, 117
1, 24835, Note_on_c, 0, 65, 112
1, 25070, Note_off_c, 0, 65, 112
1, 25122, Note_on_c, 0, 63, 121
1, 25182, Note_off_c, 0, 63, 121
1, 25212, Note_on_c, 0, 61, 107
1, 25265, Note_off_c, 0, 61, 107
1, 25270, Note_on_c, 0, 62, 111
1, 25366, Note_off_c, 0, 62, 111
1, 25395, Note_on_c, 0, 58, 101
1, 25486, Note_off_c, 0, 58, 101
1, 25515, Note_on_c, 0, 58, 95
1, 25579, Note_off_c, 0, 58, 95
1, 25606, Note_on_c, 0, 60, 111
1, 25713, Note_off_c, 0, 60, 111
1, 25827, Note_on_c, 0, 55, 108
1, 25941, Note_off_c, 0, 55, 108
1, 25959, Note_on_c, 0, 58, 93
1, 26090, Note_off_c, 0, 58, 93
1, 26097, Note_on_c, 0, 60, 107
1, 26154, Note_off_c, 0, 60, 107
1, 26175, Note_on_c, 0, 62, 122
1, 26275, Note_off_c, 0, 62, 122
1, 26395, Note_on_c, 0, 60, 113
1, 26512, Note_off_c, 0, 60, 113
1, 26529, Note_on_c, 0, 58, 102
1, 26608, Note_off_c, 0, 58, 102
1, 26898, Note_on_c, 0, 58, 118
1, 27178, Note_off_c, 0, 58, 118
1, 27195, Note_on_c, 0, 55, 93
1, 27276, Note_off_c, 0, 55, 93
1, 27325, Note_on_c, 0, 51, 109
1, 27408, Note_off_c, 0, 51, 109
1, 27691, Note_on_c, 0, 60, 113
1, 27954, Note_off_c, 0, 60, 113
1, 27968, Note_on_c, 0, 58, 101
1, 28073, Note_off_c, 0, 58, 101
1, 28083, Note_on_c, 0, 54, 100
1, 28146, Note_off_c, 0, 54, 100
1, 28446, Note_on_c, 0, 61, 113
1, 28473, Note_off_c, 0, 61, 113
1, 28476, Note_on_c, 0, 62, 120
1, 28720, Note_off_c, 0, 62, 120
1, 28737, Note_on_c, 0, 58, 96
1, 28839, Note_off_c, 0, 58, 96
1, 28870, Note_on_c, 0, 55, 105
1, 28985, Note_off_c, 0, 55, 105
1, 29063, Note_on_c, 0, 62, 120
1, 29111, Note_off_c, 0, 62, 120
1, 29115, Note_on_c, 0, 63, 118
1, 29300, Note_off_c, 0, 63, 118
1, 29320, Note_on_c, 0, 60, 110
1, 29425, Note_off_c, 0, 60, 110
1, 29437, Note_on_c, 0, 57, 106
1, 29539, Note_off_c, 0, 57, 106
1, 29624, Note_on_c, 0, 64, 121
1, 29665, Note_off_c, 0, 64, 121
1, 29671, Note_on_c, 0, 65, 114
1, 29747, Note_off_c, 0, 65, 114
1, 29815, Note_on_c, 0, 63, 113
1, 29906, Note_off_c, 0, 63, 113
1, 29922, Note_on_c, 0, 62, 111
1, 30006, Note_off_c, 0, 62, 111
1, 30020, Note_on_c, 0, 63, 121
1, 30096, Note_off_c, 0, 63, 121
1, 30105, Note_on_c, 0, 65, 115
1, 30191, Note_off_c, 0, 65, 115
1, 30276, Note_on_c, 0, 58, 97
1, 30499, Note_off_c, 0, 58, 97
1, 30866, Note_on_c, 0, 60, 111
1, 30905, Note_off_c, 0, 60, 111
1, 30917, Note_on_c, 0, 62, 111
1, 30962, Note_off_c, 0, 62, 111
1, 30966, Note_on_c, 0, 63, 112
1, 31020, Note_off_c, 0, 63, 112
1, 31035, Note_on_c, 0, 67, 109
1, 31085, Note_off_c, 0, 67, 109
1, 31091, Note_on_c, 0, 69, 115
1, 31147, Note_off_c, 0, 69, 115
1, 31148, Note_on_c, 0, 70, 116
1, 31200, Note_off_c, 0, 70, 116
1, 31204, Note_on_c, 0, 72, 108
1, 31265, Note_off_c, 0, 72, 108
1, 31268, Note_on_c, 0, 74, 109
1, 31346, Note_off_c, 0, 74, 109
1, 31752, Note_on_c, 0, 74, 110
1, 31818, Note_off_c, 0, 74, 110
1, 31820, Note_on_c, 0, 73, 111
1, 31846, Note_off_c, 0, 73, 111
1, 31846, Note_on_c, 0, 70, 111
1, 31940, Note_off_c, 0, 70, 111
1, 31968, Note_on_c, 0, 65, 112
1, 32296, Note_off_c, 0, 65, 112
1, 32352, Note_on_c, 0, 70, 113
1, 32424, Note_off_c, 0, 70, 113
1, 32456, Note_on_c, 0, 68, 116
1, 32538, Note_off_c, 0, 68, 116
1, 32565, Note_on_c, 0, 64, 119
1, 32634, Note_off_c, 0, 64, 119
1, 32650, Note_on_c, 0, 67, 114
1, 32740, Note_off_c, 0, 67, 114
1, 32761, Note_on_c, 0, 65, 116
1, 32835, Note_off_c, 0, 65, 116
1, 32850, Note_on_c, 0, 61, 109
1, 32952, Note_off_c, 0, 61, 109
1, 32958, Note_on_c, 0, 59, 103
1, 33036, Note_off_c, 0, 59, 103
1, 33041, Note_on_c, 0, 58, 102
1, 33145, Note_off_c, 0, 58, 102
1, 33157, Note_on_c, 0, 55, 102
1, 33249, Note_off_c, 0, 55, 102
1, 33254, Note_on_c, 0, 56, 95
1, 33330, Note_off_c, 0, 56, 95
1, 33348, Note_on_c, 0, 58, 100
1, 33436, Note_off_c, 0, 58, 100
1, 33449, Note_on_c, 0, 55, 105
1, 33540, Note_off_c, 0, 55, 105
1, 33548, Note_on_c, 0, 51, 106
1, 33713, Note_off_c, 0, 51, 106
1, 33719, Note_on_c, 0, 53, 102
1, 34034, Note_off_c, 0, 53, 102
1, 34609, Note_on_c, 0, 53, 113
1, 34671, Note_off_c, 0, 53, 113
1, 34672, Note_on_c, 0, 52, 110
1, 34716, Note_off_c, 0, 52, 110
1, 34743, Note_on_c, 0, 51, 104
1, 34784, Note_off_c, 0, 51, 104
1, 34787, Note_on_c, 0, 53, 100
1, 34849, Note_off_c, 0, 53, 100
1, 34852, Note_on_c, 0, 55, 11
1, 34893, Note_off_c, 0, 55, 11
1, 34895, Note_on_c, 0, 57, 43
1, 34928, Note_off_c, 0, 57, 43
1, 34930, Note_on_c, 0, 62, 118
1, 34990, Note_off_c, 0, 62, 118
1, 34992, Note_on_c, 0, 61, 108
1, 35041, Note_off_c, 0, 61, 108
1, 35043, Note_on_c, 0, 60, 107
1, 35087, Note_off_c, 0, 60, 107
1, 35093, Note_on_c, 0, 59, 104
1, 35129, Note_off_c, 0, 59, 104
1, 35131, Note_on_c, 0, 58, 100
1, 35180, Note_off_c, 0, 58, 100
1, 35192, Note_on_c, 0, 55, 100
1, 35236, Note_off_c, 0, 55, 100
1, 35248, Note_on_c, 0, 51, 98
1, 35280, Note_off_c, 0, 51, 98
1, 35295, Note_on_c, 0, 48, 101
1, 35326, Note_off_c, 0, 48, 101
1, 35515, Note_on_c, 0, 53, 115
1, 35555, Note_off_c, 0, 53, 115
1, 35560, Note_on_c, 0, 52, 110
1, 35599, Note_off_c, 0, 52, 110
1, 35609, Note_on_c, 0, 50, 108
1, 35658, Note_off_c, 0, 50, 108
1, 35664, Note_on_c, 0, 52, 106
1, 35707, Note_off_c, 0, 52, 106
1, 35718, Note_on_c, 0, 53, 106
1, 35778, Note_off_c, 0, 53, 106
1, 35790, Note_on_c, 0, 55, 105
1, 35823, Note_off_c, 0, 55, 105
1, 35831, Note_on_c, 0, 57, 100
1, 35874, Note_off_c, 0, 57, 100
1, 35880, Note_on_c, 0, 59, 104
1, 35919, Note_off_c, 0, 59, 104
1, 35922, Note_on_c, 0, 60, 109
1, 35967, Note_off_c, 0, 60, 109
1, 35975, Note_on_c, 0, 55, 112
1, 36018, Note_off_c, 0, 55, 112
1, 36393, Note_on_c, 0, 48, 116
1, 36460, Note_off_c, 0, 48, 116
1, 36467, Note_on_c, 0, 50, 104
1, 36517, Note_off_c, 0, 50, 104
1, 36524, Note_on_c, 0, 51, 101
1, 36566, Note_off_c, 0, 51, 101
1, 36594, Note_on_c, 0, 55, 105
1, 36650, Note_off_c, 0, 55, 105
1, 36659, Note_on_c, 0, 58, 99
1, 36700, Note_off_c, 0, 58, 99
1, 36714, Note_on_c, 0, 57, 106
1, 36750, Note_off_c, 0, 57, 106
1, 36769, Note_on_c, 0, 55, 105
1, 36811, Note_off_c, 0, 55, 105
1, 36882, Note_on_c, 0, 55, 101
1, 36925, Note_off_c, 0, 55, 101
1, 36936, Note_on_c, 0, 62, 118
1, 36997, Note_off_c, 0, 62, 118
1, 36998, Note_on_c, 0, 61, 108
1, 37038, Note_off_c, 0, 61, 108
1, 37046, Note_on_c, 0, 60, 102
1, 37095, Note_off_c, 0, 60, 102
1, 37116, Note_on_c, 0, 59, 98
1, 37149, Note_off_c, 0, 59, 98
1, 37160, Note_on_c, 0, 58, 100
1, 37232, Note_off_c, 0, 58, 100
1, 37566, Note_on_c, 0, 64, 115
1, 37646, Note_off_c, 0, 64, 115
1, 37650, Note_on_c, 0, 65, 105
1, 37739, Note_off_c, 0, 65, 105
1, 37851, Note_on_c, 0, 63, 119
1, 37918, Note_off_c, 0, 63, 119
1, 37928, Note_on_c, 0, 62, 110
1, 37980, Note_off_c, 0, 62, 110
1, 37985, Note_on_c, 0, 63, 119
1, 38096, Note_off_c, 0, 63, 119
1, 38111, Note_on_c, 0, 65, 114
1, 38218, Note_off_c, 0, 65, 114
1, 38636, Note_on_c, 0, 58, 88
1, 38691, Note_off_c, 0, 58, 88
1, 38708, Note_on_c, 0, 61, 106
1, 38783, Note_off_c, 0, 61, 106
1, 38785, Note_on_c, 0, 62, 116
1, 38845, Note_off_c, 0, 62, 116
1, 38862, Note_on_c, 0, 65, 116
1, 38916, Note_off_c, 0, 65, 116
1, 38942, Note_on_c, 0, 61, 99
1, 38994, Note_off_c, 0, 61, 99
1, 38999, Note_on_c, 0, 62, 104
1, 39045, Note_off_c, 0, 62, 104
1, 39067, Note_on_c, 0, 65, 114
1, 39129, Note_off_c, 0, 65, 114
1, 39167, Note_on_c, 0, 58, 98
1, 39255, Note_off_c, 0, 58, 98
1, 39292, Note_on_c, 0, 58, 92
1, 39573, Note_off_c, 0, 58, 92
1, 39632, Note_on_c, 0, 61, 106
1, 39687, Note_off_c, 0, 61, 106
1, 39698, Note_on_c, 0, 62, 107
1, 39763, Note_off_c, 0, 62, 107
1, 39769, Note_on_c, 0, 65, 105
1, 39814, Note_off_c, 0, 65, 105
1, 39816, Note_on_c, 0, 67, 111
1, 39892, Note_off_c, 0, 67, 111
1, 39896, Note_on_c, 0, 70, 118
1, 40008, Note_off_c, 0, 70, 118
1, 40026, Note_on_c, 0, 70, 119
1, 40095, Note_off_c, 0, 70, 119
1, 40383, Note_on_c, 0, 58, 95
1, 40428, Note_off_c, 0, 58, 95
1, 40442, Note_on_c, 0, 61, 102
1, 40495, Note_off_c, 0, 61, 102
1, 40504, Note_on_c, 0, 62, 113
1, 40554, Note_off_c, 0, 62, 113
1, 40561, Note_on_c, 0, 65, 111
1, 40623, Note_off_c, 0, 65, 111
1, 40644, Note_on_c, 0, 58, 95
1, 40772, Note_off_c, 0, 58, 95
1, 40804, Note_on_c, 0, 58, 94
1, 41033, Note_off_c, 0, 58, 94
1, 41298, Note_on_c, 0, 65, 117
1, 41366, Note_off_c, 0, 65, 117
1, 41406, Note_on_c, 0, 70, 117
1, 41459, Note_off_c, 0, 70, 117
1, 41523, Note_on_c, 0, 70, 114
1, 41578, Note_off_c, 0, 70, 114
1, 41614, Note_on_c, 0, 68, 116
1, 41673, Note_off_c, 0, 68, 116
1, 41727, Note_on_c, 0, 68, 118
1, 41788, Note_off_c, 0, 68, 118
1, 41812, Note_on_c, 0, 67, 115
1, 41878, Note_off_c, 0, 67, 115
1, 41914, Note_on_c, 0, 67, 113
1, 41969, Note_off_c, 0, 67, 113
1, 42008, Note_on_c, 0, 65, 115
1, 42067, Note_off_c, 0, 65, 115
1, 42117, Note_on_c, 0, 65, 116
1, 42176, Note_off_c, 0, 65, 116
1, 42193, Note_on_c, 0, 63, 124
1, 42327, Note_off_c, 0, 63, 124
1, 42345, Note_on_c, 0, 63, 123
1, 42746, Note_off_c, 0, 63, 123
1, 42768, Note_on_c, 0, 63, 121
1, 42856, Note_off_c, 0, 63, 121
1, 42867, Note_on_c, 0, 67, 114
1, 42907, Note_off_c, 0, 67, 114
1, 42914, Note_on_c, 0, 72, 118
1, 42969, Note_off_c, 0, 72, 118
1, 42979, Note_on_c, 0, 70, 107
1, 43126, Note_off_c, 0, 70, 107
1, 43160, Note_on_c, 0, 72, 114
1, 43262, Note_off_c, 0, 72, 114
1, 43352, Note_on_c, 0, 70, 109
1, 43516, Note_off_c, 0, 70, 109
1, 43558, Note_on_c, 0, 72, 106
1, 43646, Note_off_c, 0, 72, 106
1, 44034, Note_on_c, 0, 71, 111
1, 44093, Note_off_c, 0, 71, 111
1, 44105, Note_on_c, 0, 73, 105
1, 44165, Note_off_c, 0, 73, 105
1, 44246, Note_on_c, 0, 70, 115
1, 44346, Note_off_c, 0, 70, 115
1, 44421, Note_on_c, 0, 68, 115
1, 44501, Note_off_c, 0, 68, 115
1, 44522, Note_on_c, 0, 65, 112
1, 44613, Note_off_c, 0, 65, 112
1, 44620, Note_on_c, 0, 63, 122
1, 44689, Note_off_c, 0, 63, 122
1, 44719, Note_on_c, 0, 61, 108
1, 44805, Note_off_c, 0, 61, 108
1, 44817, Note_on_c, 0, 58, 106
1, 44900, Note_off_c, 0, 58, 106
1, 44924, Note_on_c, 0, 56, 99
1, 44996, Note_off_c, 0, 56, 99
1, 45109, Note_on_c, 0, 56, 101
1, 45220, Note_off_c, 0, 56, 101
1, 45289, Note_on_c, 0, 58, 96
1, 45403, Note_off_c, 0, 58, 96
1, 45437, Note_on_c, 0, 58, 121
1, 45612, Note_off_c, 0, 58, 121
1, 46016, Note_on_c, 0, 58, 103
1, 46063, Note_off_c, 0, 58, 103
1, 46104, Note_on_c, 0, 61, 113
1, 46184, Note_off_c, 0, 61, 113
1, 46192, Note_on_c, 0, 62, 119
1, 46272, Note_off_c, 0, 62, 119
1, 46288, Note_on_c, 0, 63, 124
1, 46385, Note_off_c, 0, 63, 124
1, 46403, Note_on_c, 0, 64, 119
1, 46478, Note_off_c, 0, 64, 119
1, 46488, Note_on_c, 0, 65, 112
1, 46576, Note_off_c, 0, 65, 112
1, 46604, Note_on_c, 0, 57, 100
1, 46650, Note_off_c, 0, 57, 100
1, 46677, Note_on_c, 0, 61, 111
1, 46720, Note_off_c, 0, 61, 111
1, 46732, Note_on_c, 0, 62, 115
1, 46845, Note_off_c, 0, 62, 115
1, 46865, Note_on_c, 0, 58, 99
1, 47010, Note_off_c, 0, 58, 99
1, 47068, Note_on_c, 0, 60, 111
1, 47147, Note_off_c, 0, 60, 111
1, 47178, Note_on_c, 0, 57, 106
1, 47230, Note_off_c, 0, 57, 106
1, 47254, Note_on_c, 0, 61, 111
1, 47301, Note_off_c, 0, 61, 111
1, 47304, Note_on_c, 0, 62, 112
1, 47386, Note_off_c, 0, 62, 112
1, 47414, Note_on_c, 0, 65, 111
1, 47493, Note_off_c, 0, 65, 111
1, 47562, Note_on_c, 0, 63, 116
1, 47784, Note_off_c, 0, 63, 116
1, 47814, Note_on_c, 0, 65, 109
1, 47907, Note_off_c, 0, 65, 109
1, 47916, Note_on_c, 0, 63, 113
1, 47985, Note_off_c, 0, 63, 113
1, 48000, Note_on_c, 0, 66, 108
1, 48050, Note_off_c, 0, 66, 108
1, 48057, Note_on_c, 0, 67, 108
1, 48113, Note_off_c, 0, 67, 108
1, 48143, Note_on_c, 0, 70, 104
1, 48202, Note_off_c, 0, 70, 104
1, 48237, Note_on_c, 0, 72, 98
1, 48297, Note_off_c, 0, 72, 98
1, 48328, Note_on_c, 0, 73, 97
1, 48559, Note_off_c, 0, 73, 97
1, 48602, Note_on_c, 0, 72, 98
1, 48682, Note_off_c, 0, 72, 98
1, 48706, Note_on_c, 0, 71, 108
1, 48772, Note_off_c, 0, 71, 108
1, 48799, Note_on_c, 0, 70, 106
1, 48891, Note_off_c, 0, 70, 106
1, 48932, Note_on_c, 0, 65, 107
1, 48974, Note_off_c, 0, 65, 107
1, 49310, Note_on_c, 0, 68, 113
1, 49391, Note_off_c, 0, 68, 113
1, 49395, Note_on_c, 0, 67, 114
1, 49487, Note_off_c, 0, 67, 114
1, 49505, Note_on_c, 0, 66, 115
1, 49559, Note_off_c, 0, 66, 115
1, 49595, Note_on_c, 0, 65, 113
1, 49699, Note_off_c, 0, 65, 113
1, 49730, Note_on_c, 0, 58, 106
1, 49810, Note_off_c, 0, 58, 106
1, 49896, Note_on_c, 0, 61, 112
1, 50156, Note_off_c, 0, 61, 112
1, 50179, Note_on_c, 0, 60, 109
1, 50275, Note_off_c, 0, 60, 109
1, 50288, Note_on_c, 0, 59, 104
1, 50353, Note_off_c, 0, 59, 104
1, 50387, Note_on_c, 0, 58, 97
1, 50459, Note_off_c, 0, 58, 97
1, 50487, Note_on_c, 0, 60, 118
1, 50550, Note_off_c, 0, 60, 118
1, 50584, Note_on_c, 0, 62, 114
1, 50658, Note_off_c, 0, 62, 114
1, 50678, Note_on_c, 0, 63, 122
1, 50760, Note_off_c, 0, 63, 122
1, 50763, Note_on_c, 0, 65, 115
1, 50869, Note_off_c, 0, 65, 115
1, 50907, Note_on_c, 0, 62, 105
1, 50957, Note_off_c, 0, 62, 105
1, 50970, Note_on_c, 0, 63, 107
1, 51037, Note_off_c, 0, 63, 107
1, 51048, Note_on_c, 0, 65, 117
1, 51079, Note_off_c, 0, 65, 117
1, 51087, Note_on_c, 0, 63, 121
1, 51126, Note_off_c, 0, 63, 121
1, 51137, Note_on_c, 0, 62, 117
1, 51222, Note_off_c, 0, 62, 117
1, 51245, Note_on_c, 0, 54, 107
1, 51314, Note_off_c, 0, 54, 107
1, 51318, Note_on_c, 0, 56, 101
1, 51502, Note_off_c, 0, 56, 101
1, 51513, Note_on_c, 0, 55, 108
1, 51647, Note_off_c, 0, 55, 108
1, 52165, Note_on_c, 0, 46, 114
1, 52228, Note_off_c, 0, 46, 114
1, 52246, Note_on_c, 0, 51, 110
1, 52292, Note_off_c, 0, 51, 110
1, 52308, Note_on_c, 0, 55, 109
1, 52543, Note_off_c, 0, 55, 109
1, 52567, Note_on_c, 0, 49, 109
1, 52622, Note_off_c, 0, 49, 109
1, 52637, Note_on_c, 0, 53, 114
1, 52696, Note_off_c, 0, 53, 114
1, 52711, Note_on_c, 0, 56, 108
1, 52831, Note_off_c, 0, 56, 108
1, 52849, Note_on_c, 0, 54, 106
1, 52913, Note_off_c, 0, 54, 106
1, 52936, Note_on_c, 0, 59, 103
1, 52992, Note_off_c, 0, 59, 103
1, 52998, Note_on_c, 0, 61, 117
1, 53211, Note_off_c, 0, 61, 117
1, 53610, Note_on_c, 0, 59, 103
1, 53692, Note_off_c, 0, 59, 103
1, 53699, Note_on_c, 0, 63, 125
1, 53780, Note_off_c, 0, 63, 125
1, 53805, Note_on_c, 0, 66, 114
1, 53942, Note_off_c, 0, 66, 114
1, 53976, Note_on_c, 0, 59, 94
1, 54067, Note_off_c, 0, 59, 94
1, 54089, Note_on_c, 0, 62, 116
1, 54162, Note_off_c, 0, 62, 116
1, 54203, Note_on_c, 0, 67, 117
1, 54340, Note_off_c, 0, 67, 117
1, 54436, Note_on_c, 0, 62, 104
1, 54477, Note_off_c, 0, 62, 104
1, 54497, Note_on_c, 0, 65, 113
1, 54569, Note_off_c, 0, 65, 113
1, 54606, Note_on_c, 0, 62, 110
1, 54687, Note_off_c, 0, 62, 110
1, 54691, Note_on_c, 0, 63, 120
1, 54785, Note_off_c, 0, 63, 120
1, 54790, Note_on_c, 0, 67, 108
1, 54878, Note_off_c, 0, 67, 108
1, 54889, Note_on_c, 0, 70, 107
1, 54945, Note_off_c, 0, 70, 107
1, 54985, Note_on_c, 0, 74, 110
1, 55086, Note_off_c, 0, 74, 110
1, 55113, Note_on_c, 0, 74, 111
1, 55174, Note_off_c, 0, 74, 111
1, 55196, Note_on_c, 0, 74, 109
1, 55327, Note_off_c, 0, 74, 109
1, 56163, Note_on_c, 0, 58, 91
1, 56372, Note_off_c, 0, 58, 91
1, 56392, Note_on_c, 0, 60, 93
1, 56422, Note_off_c, 0, 60, 93
1, 56434, Note_on_c, 0, 62, 101
1, 56464, Note_off_c, 0, 62, 101
1, 56485, Note_on_c, 0, 70, 120
1, 56564, Note_off_c, 0, 70, 120
1, 56597, Note_on_c, 0, 70, 119
1, 56662, Note_off_c, 0, 70, 119
1, 56676, Note_on_c, 0, 70, 120
1, 56822, Note_off_c, 0, 70, 120
1, 57567, Note_on_c, 0, 70, 116
1, 57608, Note_off_c, 0, 70, 116
1, 57629, Note_on_c, 0, 70, 117
1, 57663, Note_off_c, 0, 70, 117
1, 57759, Note_on_c, 0, 70, 118
1, 57806, Note_off_c, 0, 70, 118
1, 57828, Note_on_c, 0, 70, 116
1, 57865, Note_off_c, 0, 70, 116
1, 57965, Note_on_c, 0, 70, 116
1, 58015, Note_off_c, 0, 70, 116
1, 58034, Note_on_c, 0, 70, 114
1, 58062, Note_off_c, 0, 70, 114
1, 58162, Note_on_c, 0, 70, 112
1, 58215, Note_off_c, 0, 70, 112
1, 58230, Note_on_c, 0, 70, 112
1, 58264, Note_off_c, 0, 70, 112
1, 58350, Note_on_c, 0, 70, 115
1, 58393, Note_off_c, 0, 70, 115
1, 58411, Note_on_c, 0, 70, 114
1, 58442, Note_off_c, 0, 70, 114
1, 58542, Note_on_c, 0, 70, 112
1, 58594, Note_off_c, 0, 70, 112
1, 58612, Note_on_c, 0, 70, 114
1, 58659, Note_off_c, 0, 70, 114
1, 58734, Note_on_c, 0, 70, 112
1, 58797, Note_off_c, 0, 70, 112
1, 58813, Note_on_c, 0, 70, 116
1, 58869, Note_off_c, 0, 70, 116
1, 58927, Note_on_c, 0, 70, 112
1, 58973, Note_off_c, 0, 70, 112
1, 58991, Note_on_c, 0, 70, 115
1, 59040, Note_off_c, 0, 70, 115
1, 59120, Note_on_c, 0, 76, 121
1, 59205, Note_off_c, 0, 76, 121
1, 59209, Note_on_c, 0, 77, 105
1, 59721, Note_off_c, 0, 77, 105
1, 59770, Note_on_c, 0, 75, 114
1, 59847, Note_off_c, 0, 75, 114
1, 59859, Note_on_c, 0, 74, 112
1, 59902, Note_off_c, 0, 74, 112
1, 59908, Note_on_c, 0, 75, 109
1, 60059, Note_off_c, 0, 75, 109
1, 60061, Note_on_c, 0, 77, 109
1, 60213, Note_off_c, 0, 77, 109
1, 60560, Note_on_c, 0, 70, 95
1, 60602, Note_off_c, 0, 70, 95
1, 60659, Note_on_c, 0, 76, 122
1, 60746, Note_off_c, 0, 76, 122
1, 60761, Note_on_c, 0, 75, 115
1, 60834, Note_off_c, 0, 75, 115
1, 60848, Note_on_c, 0, 73, 107
1, 60965, Note_off_c, 0, 73, 107
1, 60981, Note_on_c, 0, 70, 112
1, 61555, Note_off_c, 0, 70, 112
1, 61569, Note_on_c, 0, 76, 117
1, 61632, Note_off_c, 0, 76, 117
1, 61636, Note_on_c, 0, 75, 107
1, 61696, Note_off_c, 0, 75, 107
1, 61708, Note_on_c, 0, 73, 104
1, 61778, Note_off_c, 0, 73, 104
1, 61788, Note_on_c, 0, 70, 109
1, 62053, Note_off_c, 0, 70, 109
1, 62096, Note_on_c, 0, 68, 113
1, 62180, Note_off_c, 0, 68, 113
1, 62188, Note_on_c, 0, 65, 108
1, 62328, Note_off_c, 0, 65, 108
1, 62334, Note_on_c, 0, 65, 111
1, 62400, Note_off_c, 0, 65, 111
1, 62406, Note_on_c, 0, 64, 109
1, 62500, Note_off_c, 0, 64, 109
1, 63066, Note_on_c, 0, 62, 113
1, 63112, Note_off_c, 0, 62, 113
1, 63114, Note_on_c, 0, 63, 117
1, 63182, Note_off_c, 0, 63, 117
1, 63192, Note_on_c, 0, 65, 113
1, 63247, Note_off_c, 0, 65, 113
1, 63256, Note_on_c, 0, 70, 117
1, 63319, Note_off_c, 0, 70, 117
1, 63323, Note_on_c, 0, 62, 114
1, 63388, Note_off_c, 0, 62, 114
1, 63394, Note_on_c, 0, 65, 115
1, 63432, Note_off_c, 0, 65, 115
1, 63437, Note_on_c, 0, 64, 123
1, 63512, Note_off_c, 0, 64, 123
1, 63518, Note_on_c, 0, 63, 116
1, 63620, Note_off_c, 0, 63, 116
1, 63629, Note_on_c, 0, 61, 112
1, 63713, Note_off_c, 0, 61, 112
1, 63733, Note_on_c, 0, 58, 97
1, 63875, Note_off_c, 0, 58, 97
1, 63919, Note_on_c, 0, 66, 114
1, 64024, Note_off_c, 0, 66, 114
1, 64059, Note_on_c, 0, 58, 89
1, 64104, Note_off_c, 0, 58, 89
1, 64111, Note_on_c, 0, 61, 103
1, 64139, Note_off_c, 0, 61, 103
1, 64144, Note_on_c, 0, 62, 111
1, 64239, Note_off_c, 0, 62, 111
1, 64271, Note_on_c, 0, 65, 112
1, 64356, Note_off_c, 0, 65, 112
1, 64416, Note_on_c, 0, 70, 109
1, 64656, Note_off_c, 0, 70, 109
1, 64703, Note_on_c, 0, 67, 109
1, 64760, Note_off_c, 0, 67, 109
1, 64790, Note_on_c, 0, 63, 116
1, 64877, Note_off_c, 0, 63, 116
1, 64890, Note_on_c, 0, 62, 113
1, 64999, Note_off_c, 0, 62, 113
1, 65058, Note_on_c, 0, 65, 111
1, 65143, Note_off_c, 0, 65, 111
1, 65191, Note_on_c, 0, 57, 100
1, 65228, Note_off_c, 0, 57, 100
1, 65235, Note_on_c, 0, 58, 95
1, 65418, Note_off_c, 0, 58, 95
1, 65448, Note_on_c, 0, 60, 111
1, 65565, Note_off_c, 0, 60, 111
1, 65570, Note_on_c, 0, 58, 98
1, 65612, Note_off_c, 0, 58, 98
1, 65633, Note_on_c, 0, 61, 107
1, 65669, Note_off_c, 0, 61, 107
1, 65671, Note_on_c, 0, 62, 113
1, 65795, Note_off_c, 0, 62, 113
1, 65812, Note_on_c, 0, 55, 102
1, 66027, Note_off_c, 0, 55, 102
1, 66375, Note_on_c, 0, 55, 119
1, 66620, Note_off_c, 0, 55, 119
1, 66641, Note_on_c, 0, 55, 101
1, 66756, Note_off_c, 0, 55, 101
1, 66779, Note_on_c, 0, 55, 116
1, 66942, Note_off_c, 0, 55, 116
1, 67356, Note_on_c, 0, 55, 112
1, 67391, Note_off_c, 0, 55, 112
1, 67412, Note_on_c, 0, 55, 105
1, 67564, Note_off_c, 0, 55, 105
1, 67579, Note_on_c, 0, 55, 115
1, 67745, Note_off_c, 0, 55, 115
1, 68104, Note_on_c, 0, 55, 109
1, 68151, Note_off_c, 0, 55, 109
1, 68161, Note_on_c, 0, 55, 103
1, 68276, Note_off_c, 0, 55, 103
1, 68310, Note_on_c, 0, 55, 113
1, 68697, Note_off_c, 0, 55, 113
1, 69065, Note_on_c, 0, 50, 111
1, 69117, Note_off_c, 0, 50, 111
1, 69123, Note_on_c, 0, 51, 106
1, 69180, Note_off_c, 0, 51, 106
1, 69184, Note_on_c, 0, 53, 103
1, 69222, Note_off_c, 0, 53, 103
1, 69224, Note_on_c, 0, 55, 108
1, 69273, Note_off_c, 0, 55, 108
1, 69276, Note_on_c, 0, 56, 111
1, 69312, Note_off_c, 0, 56, 111
1, 69323, Note_on_c, 0, 55, 105
1, 69359, Note_off_c, 0, 55, 105
1, 69367, Note_on_c, 0, 53, 9
1, 69411, Note_off_c, 0, 53, 9
1, 69415, Note_on_c, 0, 51, 93
1, 69459, Note_off_c, 0, 51, 93
1, 69464, Note_on_c, 0, 50, 93
1, 69504, Note_off_c, 0, 50, 93
1, 69550, Note_on_c, 0, 53, 107
1, 69588, Note_off_c, 0, 53, 107
1, 69592, Note_on_c, 0, 56, 107
1, 69622, Note_off_c, 0, 56, 107
1, 69635, Note_on_c, 0, 59, 106
1, 69756, Note_off_c, 0, 59, 106
1, 70399, Note_on_c, 0, 54, 106
1, 70429, Note_off_c, 0, 54, 106
1, 70435, Note_on_c, 0, 55, 97
1, 70492, Note_off_c, 0, 55, 97
1, 70497, Note_on_c, 0, 54, 92
1, 70545, Note_off_c, 0, 54, 92
1, 70552, Note_on_c, 0, 55, 102
1, 70591, Note_off_c, 0, 55, 102
1, 70592, Note_on_c, 0, 58, 103
1, 70651, Note_off_c, 0, 58, 103
1, 70662, Note_on_c, 0, 54, 96
1, 70685, Note_off_c, 0, 54, 96
1, 70688, Note_on_c, 0, 55, 97
1, 70720, Note_off_c, 0, 55, 97
1, 70731, Note_on_c, 0, 58, 101
1, 70787, Note_off_c, 0, 58, 101
1, 70797, Note_on_c, 0, 55, 102
1, 70841, Note_off_c, 0, 55, 102
1, 70847, Note_on_c, 0, 54, 102
1, 70891, Note_off_c, 0, 54, 102
1, 70901, Note_on_c, 0, 53, 108
1, 70942, Note_off_c, 0, 53, 108
1, 70961, Note_on_c, 0, 51, 105
1, 71055, Note_off_c, 0, 51, 105
1, 71339, Note_on_c, 0, 46, 106
1, 71398, Note_off_c, 0, 46, 106
1, 71402, Note_on_c, 0, 48, 104
1, 71468, Note_off_c, 0, 48, 104
1, 71489, Note_on_c, 0, 53, 103
1, 71556, Note_off_c, 0, 53, 103
1, 71564, Note_on_c, 0, 49, 101
1, 71595, Note_off_c, 0, 49, 101
1, 71597, Note_on_c, 0, 50, 98
1, 71630, Note_off_c, 0, 50, 98
1, 71634, Note_on_c, 0, 51, 103
1, 71671, Note_off_c, 0, 51, 103
1, 71677, Note_on_c, 0, 56, 105
1, 71730, Note_off_c, 0, 56, 105
1, 71742, Note_on_c, 0, 54, 99
1, 71797, Note_off_c, 0, 54, 99
1, 71828, Note_on_c, 0, 56, 111
1, 71856, Note_off_c, 0, 56, 111
1, 71862, Note_on_c, 0, 58, 106
1, 71888, Note_off_c, 0, 58, 106
1, 71897, Note_on_c, 0, 61, 106
1, 71931, Note_off_c, 0, 61, 106
1, 71941, Note_on_c, 0, 58, 90
1, 71977, Note_off_c, 0, 58, 90
1, 71998, Note_on_c, 0, 61, 105
1, 72034, Note_off_c, 0, 61, 105
1, 72046, Note_on_c, 0, 63, 106
1, 72069, Note_off_c, 0, 63, 106
1, 72075, Note_on_c, 0, 66, 109
1, 72110, Note_off_c, 0, 66, 109
1, 72119, Note_on_c, 0, 64, 119
1, 72194, Note_off_c, 0, 64, 119
1, 72476, Note_on_c, 0, 51, 107
1, 72509, Note_off_c, 0, 51, 107
1, 72548, Note_on_c, 0, 55, 93
1, 72598, Note_off_c, 0, 55, 93
1, 72613, Note_on_c, 0, 56, 110
1, 72637, Note_off_c, 0, 56, 110
1, 72648, Note_on_c, 0, 59, 106
1, 72672, Note_off_c, 0, 59, 106
1, 72687, Note_on_c, 0, 56, 106
1, 72705, Note_off_c, 0, 56, 106
1, 72756, Note_on_c, 0, 59, 104
1, 72799, Note_off_c, 0, 59, 104
1, 72807, Note_on_c, 0, 62, 109
1, 72836, Note_off_c, 0, 62, 109
1, 72836, Note_on_c, 0, 64, 119
1, 72869, Note_off_c, 0, 64, 119
1, 72874, Note_on_c, 0, 62, 106
1, 72896, Note_off_c, 0, 62, 106
1, 73512, Note_on_c, 0, 70, 101
1, 73562, Note_off_c, 0, 70, 101
1, 73712, Note_on_c, 0, 62, 115
1, 73790, Note_off_c, 0, 62, 115
1, 73800, Note_on_c, 0, 63, 122
1, 73890, Note_off_c, 0, 63, 122
1, 73906, Note_on_c, 0, 65, 111
1, 73994, Note_off_c, 0, 65, 111
1, 74017, Note_on_c, 0, 67, 114
1, 74094, Note_off_c, 0, 67, 114
1, 74109, Note_on_c, 0, 70, 115
1, 74182, Note_off_c, 0, 70, 115
1, 74194, Note_on_c, 0, 69, 115
1, 74273, Note_off_c, 0, 69, 115
1, 74294, Note_on_c, 0, 67, 113
1, 74377, Note_off_c, 0, 67, 113
1, 74410, Note_on_c, 0, 65, 111
1, 74492, Note_off_c, 0, 65, 111
1, 74623, Note_on_c, 0, 60, 92
1, 74680, Note_off_c, 0, 60, 92
1, 74683, Note_on_c, 0, 63, 118
1, 74759, Note_off_c, 0, 63, 118
1, 74788, Note_on_c, 0, 62, 113
1, 74861, Note_off_c, 0, 62, 113
1, 74876, Note_on_c, 0, 61, 104
1, 74954, Note_off_c, 0, 61, 104
1, 74966, Note_on_c, 0, 60, 103
1, 75044, Note_off_c, 0, 60, 103
1, 75059, Note_on_c, 0, 59, 106
1, 75129, Note_off_c, 0, 59, 106
1, 75137, Note_on_c, 0, 58, 105
1, 75242, Note_off_c, 0, 58, 105
1, 75443, Note_on_c, 0, 61, 109
1, 75495, Note_off_c, 0, 61, 109
1, 75500, Note_on_c, 0, 62, 116
1, 75620, Note_off_c, 0, 62, 116
1, 75633, Note_on_c, 0, 65, 117
1, 75685, Note_off_c, 0, 65, 117
1, 75722, Note_on_c, 0, 67, 112
1, 75822, Note_off_c, 0, 67, 112
1, 75900, Note_on_c, 0, 70, 111
1, 76004, Note_off_c, 0, 70, 111
1, 76017, Note_on_c, 0, 70, 113
1, 76088, Note_off_c, 0, 70, 113
1, 76104, Note_on_c, 0, 70, 114
1, 76185, Note_off_c, 0, 70, 114
1, 76205, Note_on_c, 0, 70, 114
1, 76270, Note_off_c, 0, 70, 114
1, 76302, Note_on_c, 0, 68, 115
1, 76401, Note_off_c, 0, 68, 115
1, 76429, Note_on_c, 0, 65, 110
1, 76509, Note_off_c, 0, 65, 110
1, 76564, Note_on_c, 0, 70, 105
1, 76655, Note_off_c, 0, 70, 105
1, 76684, Note_on_c, 0, 68, 110
1, 76784, Note_off_c, 0, 68, 110
1, 76811, Note_on_c, 0, 65, 106
1, 76873, Note_off_c, 0, 65, 106
1, 76962, Note_on_c, 0, 65, 109
1, 77089, Note_off_c, 0, 65, 109
1, 77531, Note_on_c, 0, 58, 95
1, 77668, Note_off_c, 0, 58, 95
1, 77705, Note_on_c, 0, 61, 103
1, 77855, Note_off_c, 0, 61, 103
1, 77880, Note_on_c, 0, 65, 108
1, 78019, Note_off_c, 0, 65, 108
1, 78055, Note_on_c, 0, 70, 100
1, 78195, Note_off_c, 0, 70, 100
1, 78241, Note_on_c, 0, 73, 99
1, 78440, Note_off_c, 0, 73, 99
1, 78447, Note_on_c, 0, 77, 110
1, 79148, Note_off_c, 0, 77, 110
1, 79757, Note_on_c, 0, 76, 119
1, 79853, Note_off_c, 0, 76, 119
1, 80474, Note_on_c, 0, 83, 114
1, 80513, Note_off_c, 0, 83, 114
1, 80521, Note_on_c, 0, 84, 108
1, 80563, Note_off_c, 0, 84, 108
1, 80674, Note_on_c, 0, 76, 116
1, 80770, Note_off_c, 0, 76, 116
1, 80787, Note_on_c, 0, 75, 114
1, 81018, Note_off_c, 0, 75, 114
1, 81048, Note_on_c, 0, 73, 108
1, 81127, Note_off_c, 0, 73, 108
1, 81146, Note_on_c, 0, 70, 105
1, 81413, Note_off_c, 0, 70, 105
1, 81435, Note_on_c, 0, 73, 110
1, 81524, Note_off_c, 0, 73, 110
1, 81622, Note_on_c, 0, 70, 100
1, 81704, Note_off_c, 0, 70, 100
1, 81720, Note_on_c, 0, 73, 108
1, 81799, Note_off_c, 0, 73, 108
1, 81820, Note_on_c, 0, 75, 111
1, 81905, Note_off_c, 0, 75, 111
1, 81910, Note_on_c, 0, 75, 123
1, 81959, Note_off_c, 0, 75, 123
1, 81961, Note_on_c, 0, 76, 119
1, 82030, Note_off_c, 0, 76, 119
1, 82040, Note_on_c, 0, 75, 115
1, 82416, Note_off_c, 0, 75, 115
1, 82835, Note_on_c, 0, 76, 121
1, 82885, Note_off_c, 0, 76, 121
1, 82890, Note_on_c, 0, 75, 112
1, 82958, Note_off_c, 0, 75, 112
1, 82969, Note_on_c, 0, 73, 100
1, 83026, Note_off_c, 0, 73, 100
1, 83027, Note_on_c, 0, 70, 107
1, 83303, Note_off_c, 0, 70, 107
1, 83331, Note_on_c, 0, 68, 115
1, 83402, Note_off_c, 0, 68, 115
1, 83422, Note_on_c, 0, 65, 107
1, 83522, Note_off_c, 0, 65, 107
1, 83537, Note_on_c, 0, 68, 114
1, 83632, Note_off_c, 0, 68, 114
1, 84558, Note_on_c, 0, 72, 115
1, 84636, Note_off_c, 0, 72, 115
1, 84638, Note_on_c, 0, 73, 108
1, 84798, Note_off_c, 0, 73, 108
1, 84838, Note_on_c, 0, 70, 101
1, 84890, Note_off_c, 0, 70, 101
1, 84912, Note_on_c, 0, 73, 102
1, 84960, Note_off_c, 0, 73, 102
1, 84989, Note_on_c, 0, 70, 105
1, 85024, Note_off_c, 0, 70, 105
1, 85039, Note_on_c, 0, 73, 98
1, 85082, Note_off_c, 0, 73, 98
1, 85096, Note_on_c, 0, 70, 109
1, 85418, Note_off_c, 0, 70, 109
1, 85484, Note_on_c, 0, 68, 113
1, 85566, Note_off_c, 0, 68, 113
1, 85624, Note_on_c, 0, 68, 111
1, 85679, Note_off_c, 0, 68, 111
1, 85701, Note_on_c, 0, 65, 109
1, 85988, Note_off_c, 0, 65, 109
1, 86034, Note_on_c, 0, 63, 121
1, 86108, Note_off_c, 0, 63, 121
1, 86112, Note_on_c, 0, 61, 105
1, 86153, Note_off_c, 0, 61, 105
1, 86155, Note_on_c, 0, 63, 116
1, 86246, Note_off_c, 0, 63, 116
1, 86266, Note_on_c, 0, 58, 95
1, 86576, Note_off_c, 0, 58, 95
1, 86634, Note_on_c, 0, 56, 103
1, 86699, Note_off_c, 0, 56, 103
1, 86709, Note_on_c, 0, 53, 101
1, 86755, Note_off_c, 0, 53, 101
1, 86760, Note_on_c, 0, 56, 104
1, 86820, Note_off_c, 0, 56, 104
1, 86831, Note_on_c, 0, 53, 101
1, 87136, Note_off_c, 0, 53, 101
1, 87142, Note_on_c, 0, 56, 98
1, 87174, Note_off_c, 0, 56, 98
1, 87178, Note_on_c, 0, 60, 103
1, 87218, Note_off_c, 0, 60, 103
1, 87226, Note_on_c, 0, 63, 111
1, 87258, Note_off_c, 0, 63, 111
1, 87268, Note_on_c, 0, 67, 108
1, 87301, Note_off_c, 0, 67, 108
1, 87320, Note_on_c, 0, 62, 114
1, 87467, Note_off_c, 0, 62, 114
1, 87481, Note_on_c, 0, 65, 104
1, 87509, Note_off_c, 0, 65, 104
1, 87516, Note_on_c, 0, 68, 105
1, 87534, Note_off_c, 0, 68, 105
1, 87543, Note_on_c, 0, 72, 102
1, 87583, Note_off_c, 0, 72, 102
1, 87591, Note_on_c, 0, 70, 115
1, 87761, Note_off_c, 0, 70, 115
1, 88057, Note_on_c, 0, 75, 113
1, 88191, Note_off_c, 0, 75, 113
1, 88333, Note_on_c, 0, 73, 107
1, 88431, Note_off_c, 0, 73, 107
1, 88485, Note_on_c, 0, 70, 111
1, 88571, Note_off_c, 0, 70, 111
1, 88632, Note_on_c, 0, 75, 111
1, 88719, Note_off_c, 0, 75, 111
1, 88750, Note_on_c, 0, 73, 108
1, 88813, Note_off_c, 0, 73, 108
1, 88829, Note_on_c, 0, 70, 106
1, 88895, Note_off_c, 0, 70, 106
1, 88918, Note_on_c, 0, 68, 115
1, 89004, Note_off_c, 0, 68, 115
1, 89024, Note_on_c, 0, 66, 114
1, 89092, Note_off_c, 0, 66, 114
1, 89119, Note_on_c, 0, 63, 118
1, 89228, Note_off_c, 0, 63, 118
1, 89238, Note_on_c, 0, 65, 112
1, 89344, Note_off_c, 0, 65, 112
1, 89599, Note_on_c, 0, 63, 116
1, 89699, Note_off_c, 0, 63, 116
1, 89700, Note_on_c, 0, 65, 106
1, 89864, Note_off_c, 0, 65, 106
1, 89873, Note_on_c, 0, 63, 121
1, 89963, Note_off_c, 0, 63, 121
1, 89976, Note_on_c, 0, 61, 103
1, 90044, Note_off_c, 0, 61, 103
1, 90063, Note_on_c, 0, 58, 97
1, 90162, Note_off_c, 0, 58, 97
1, 90279, Note_on_c, 0, 60, 110
1, 90340, Note_off_c, 0, 60, 110
1, 90350, Note_on_c, 0, 61, 108
1, 90430, Note_off_c, 0, 61, 108
1, 90452, Note_on_c, 0, 60, 105
1, 90541, Note_off_c, 0, 60, 105
1, 90562, Note_on_c, 0, 58, 99
1, 90619, Note_off_c, 0, 58, 99
1, 90647, Note_on_c, 0, 57, 101
1, 90727, Note_off_c, 0, 57, 101
1, 90755, Note_on_c, 0, 53, 107
1, 90850, Note_off_c, 0, 53, 107
1, 91692, Note_on_c, 0, 60, 112
1, 91752, Note_off_c, 0, 60, 112
1, 91761, Note_on_c, 0, 62, 117
1, 91814, Note_off_c, 0, 62, 117
1, 91822, Note_on_c, 0, 63, 104
1, 91877, Note_off_c, 0, 63, 104
1, 91904, Note_on_c, 0, 67, 112
1, 91971, Note_off_c, 0, 67, 112
1, 91972, Note_on_c, 0, 70, 106
1, 92008, Note_off_c, 0, 70, 106
1, 92011, Note_on_c, 0, 69, 114
1, 92066, Note_off_c, 0, 69, 114
1, 92072, Note_on_c, 0, 67, 115
1, 92112, Note_off_c, 0, 67, 115
1, 92117, Note_on_c, 0, 65, 116
1, 92157, Note_off_c, 0, 65, 116
1, 92163, Note_on_c, 0, 64, 116
1, 92226, Note_off_c, 0, 64, 116
1, 92228, Note_on_c, 0, 63, 113
1, 92280, Note_off_c, 0, 63, 113
1, 92283, Note_on_c, 0, 62, 106
1, 92337, Note_off_c, 0, 62, 106
1, 92343, Note_on_c, 0, 60, 106
1, 92384, Note_off_c, 0, 60, 106
1, 92388, Note_on_c, 0, 58, 99
1, 92434, Note_off_c, 0, 58, 99
1, 92438, Note_on_c, 0, 57, 108
1, 92489, Note_off_c, 0, 57, 108
1, 93106, Note_on_c, 0, 64, 120
1, 93215, Note_off_c, 0, 64, 120
1, 93221, Note_on_c, 0, 65, 118
1, 93300, Note_off_c, 0, 65, 118
1, 93952, Note_on_c, 0, 64, 121
1, 94032, Note_off_c, 0, 64, 121
1, 94043, Note_on_c, 0, 65, 115
1, 94128, Note_off_c, 0, 65, 115
1, 94153, Note_on_c, 0, 65, 117
1, 94240, Note_off_c, 0, 65, 117
1, 94251, Note_on_c, 0, 65, 119
1, 94311, Note_off_c, 0, 65, 119
1, 94338, Note_on_c, 0, 64, 121
1, 94460, Note_off_c, 0, 64, 121
1, 94464, Note_on_c, 0, 65, 116
1, 94506, Note_off_c, 0, 65, 116
1, 94525, Note_on_c, 0, 65, 117
1, 94621, Note_off_c, 0, 65, 117
1, 94632, Note_on_c, 0, 65, 120
1, 94698, Note_off_c, 0, 65, 120
1, 94713, Note_on_c, 0, 64, 122
1, 94812, Note_off_c, 0, 64, 122
1, 94814, Note_on_c, 0, 65, 118
1, 94885, Note_off_c, 0, 65, 118
1, 94896, Note_on_c, 0, 65, 119
1, 94999, Note_off_c, 0, 65, 119
1, 95016, Note_on_c, 0, 65, 121
1, 95062, Note_off_c, 0, 65, 121
1, 95073, Note_on_c, 0, 64, 121
1, 95180, Note_off_c, 0, 64, 121
1, 95183, Note_on_c, 0, 65, 118
1, 95235, Note_off_c, 0, 65, 118
1, 95250, Note_on_c, 0, 65, 117
1, 95346, Note_off_c, 0, 65, 117
1, 95356, Note_on_c, 0, 65, 120
1, 95413, Note_off_c, 0, 65, 120
1, 95436, Note_on_c, 0, 64, 118
1, 95514, Note_off_c, 0, 64, 118
1, 95522, Note_on_c, 0, 65, 110
1, 95588, Note_off_c, 0, 65, 110
1, 95604, Note_on_c, 0, 65, 113
1, 95692, Note_off_c, 0, 65, 113
1, 95708, Note_on_c, 0, 65, 116
1, 95769, Note_off_c, 0, 65, 116
1, 95783, Note_on_c, 0, 64, 113
1, 95864, Note_off_c, 0, 64, 113
1, 95866, Note_on_c, 0, 65, 109
1, 95958, Note_off_c, 0, 65, 109
1, 95962, Note_on_c, 0, 65, 111
1, 96078, Note_off_c, 0, 65, 111
1, 96083, Note_on_c, 0, 65, 109
1, 96154, Note_off_c, 0, 65, 109
1, 96218, Note_on_c, 0, 70, 112
1, 96298, Note_off_c, 0, 70, 112
1, 96374, Note_on_c, 0, 63, 127
1, 96441, Note_off_c, 0, 63, 127
1, 96449, Note_on_c, 0, 64, 116
1, 96521, Note_off_c, 0, 64, 116
1, 96527, Note_on_c, 0, 63, 114
1, 96868, Note_off_c, 0, 63, 114
1, 96881, Note_on_c, 0, 61, 115
1, 96949, Note_off_c, 0, 61, 115
1, 96972, Note_on_c, 0, 58, 100
1, 97105, Note_off_c, 0, 58, 100
1, 97115, Note_on_c, 0, 58, 105
1, 97167, Note_off_c, 0, 58, 105
1, 97788, Note_on_c, 0, 58, 93
1, 97834, Note_off_c, 0, 58, 93
1, 97853, Note_on_c, 0, 61, 111
1, 97926, Note_off_c, 0, 61, 111
1, 97931, Note_on_c, 0, 62, 101
1, 97974, Note_off_c, 0, 62, 101
1, 98010, Note_on_c, 0, 65, 112
1, 98051, Note_off_c, 0, 65, 112
1, 98058, Note_on_c, 0, 61, 105
1, 98114, Note_off_c, 0, 61, 105
1, 98123, Note_on_c, 0, 62, 104
1, 98163, Note_off_c, 0, 62, 104
1, 98184, Note_on_c, 0, 65, 116
1, 98239, Note_off_c, 0, 65, 116
1, 98254, Note_on_c, 0, 61, 102
1, 98294, Note_off_c, 0, 61, 102
1, 98309, Note_on_c, 0, 62, 107
1, 98356, Note_off_c, 0, 62, 107
1, 98369, Note_on_c, 0, 65, 114
1, 98435, Note_off_c, 0, 65, 114
1, 98488, Note_on_c, 0, 57, 95
1, 98555, Note_off_c, 0, 57, 95
1, 98560, Note_on_c, 0, 58, 95
1, 98680, Note_off_c, 0, 58, 95
1, 98775, Note_on_c, 0, 67, 118
1, 98884, Note_off_c, 0, 67, 118
1, 98905, Note_on_c, 0, 65, 116
1, 99155, Note_off_c, 0, 65, 116
1, 99881, Note_on_c, 0, 60, 116
1, 99956, Note_off_c, 0, 60, 116
1, 99969, Note_on_c, 0, 63, 124
1, 100051, Note_off_c, 0, 63, 124
1, 100059, Note_on_c, 0, 62, 102
1, 100173, Note_off_c, 0, 62, 102
1, 100183, Note_on_c, 0, 60, 81
1, 100222, Note_off_c, 0, 60, 81
1, 100243, Note_on_c, 0, 65, 120
1, 100396, Note_off_c, 0, 65, 120
1, 100428, Note_on_c, 0, 60, 98
1, 100511, Note_off_c, 0, 60, 98
1, 100539, Note_on_c, 0, 63, 120
1, 100612, Note_off_c, 0, 63, 120
1, 100627, Note_on_c, 0, 62, 106
1, 100723, Note_off_c, 0, 62, 106
1, 100740, Note_on_c, 0, 60, 84
1, 100760, Note_off_c, 0, 60, 84
1, 100808, Note_on_c, 0, 65, 116
1, 100930, Note_off_c, 0, 65, 116
1, 100990, Note_on_c, 0, 60, 110
1, 101084, Note_off_c, 0, 60, 110
1, 101101, Note_on_c, 0, 63, 118
1, 101175, Note_off_c, 0, 63, 118
1, 101179, Note_on_c, 0, 62, 100
1, 101283, Note_off_c, 0, 62, 100
1, 101299, Note_on_c, 0, 60, 98
1, 101323, Note_off_c, 0, 60, 98
1, 101377, Note_on_c, 0, 65, 108
1, 101486, Note_off_c, 0, 65, 108
1, 101490, Note_on_c, 0, 65, 119
1, 101571, Note_off_c, 0, 65, 119
1, 101589, Note_on_c, 0, 65, 114
1, 101652, Note_off_c, 0, 65, 114
1, 101676, Note_on_c, 0, 65, 118
1, 101736, Note_off_c, 0, 65, 118
1, 101756, Note_on_c, 0, 61, 113
1, 101798, Note_off_c, 0, 61, 113
1, 101804, Note_on_c, 0, 62, 116
1, 101898, Note_off_c, 0, 62, 116
1, 101912, Note_on_c, 0, 62, 122
1, 102005, Note_off_c, 0, 62, 122
1, 102941, Note_on_c, 0, 70, 116
1, 103030, Note_off_c, 0, 70, 116
1, 103120, Note_on_c, 0, 69, 123
1, 103209, Note_off_c, 0, 69, 123
1, 103299, Note_on_c, 0, 67, 119
1, 103388, Note_off_c, 0, 67, 119
1, 103584, Note_on_c, 0, 70, 117
1, 103735, Note_off_c, 0, 70, 117
1, 103778, Note_on_c, 0, 65, 103
1, 103839, Note_off_c, 0, 65, 103
1, 103950, Note_on_c, 0, 65, 9
1, 104218, Note_off_c, 0, 65, 9
1, 104249, Note_on_c, 0, 63, 119
1, 104332, Note_off_c, 0, 63, 119
1, 104337, Note_on_c, 0, 62, 116
1, 104440, Note_off_c, 0, 62, 116
1, 104499, Note_on_c, 0, 62, 117
1, 104621, Note_off_c, 0, 62, 117
1, 104683, Note_on_c, 0, 60, 113
1, 104796, Note_off_c, 0, 60, 113
1, 104856, Note_on_c, 0, 60, 113
1, 104971, Note_off_c, 0, 60, 113
1, 105043, Note_on_c, 0, 58, 91
1, 105132, Note_off_c, 0, 58, 91
1, 105147, Note_on_c, 0, 60, 109
1, 105216, Note_off_c, 0, 60, 109
1, 105236, Note_on_c, 0, 62, 117
1, 105321, Note_off_c, 0, 62, 117
1, 105342, Note_on_c, 0, 63, 120
1, 105425, Note_off_c, 0, 63, 120
1, 105442, Note_on_c, 0, 65, 112
1, 105524, Note_off_c, 0, 65, 112
1, 105730, Note_on_c, 0, 65, 116
1, 105758, Note_off_c, 0, 65, 116
1, 105759, Note_on_c, 0, 63, 117
1, 105794, Note_off_c, 0, 63, 117
1, 105801, Note_on_c, 0, 61, 110
1, 105938, Note_off_c, 0, 61, 110
1, 105945, Note_on_c, 0, 58, 92
1, 106216, Note_off_c, 0, 58, 92
1, 106659, Note_on_c, 0, 55, 93
1, 106700, Note_off_c, 0, 55, 93
1, 106705, Note_on_c, 0, 58, 95
1, 106744, Note_off_c, 0, 58, 95
1, 106751, Note_on_c, 0, 61, 109
1, 106780, Note_off_c, 0, 61, 109
1, 106781, Note_on_c, 0, 65, 115
1, 106815, Note_off_c, 0, 65, 115
1, 106818, Note_on_c, 0, 69, 117
1, 106848, Note_off_c, 0, 69, 117
1, 106855, Note_on_c, 0, 73, 117
1, 106891, Note_off_c, 0, 73, 117
1, 106897, Note_on_c, 0, 69, 114
1, 107109, Note_off_c, 0, 69, 114
1, 107125, Note_on_c, 0, 72, 114
1, 107197, Note_off_c, 0, 72, 114
1, 107229, Note_on_c, 0, 64, 116
1, 107295, Note_off_c, 0, 64, 116
1, 107297, Note_on_c, 0, 65, 104
1, 107510, Note_off_c, 0, 65, 104
1, 108060, Note_on_c, 0, 76, 123
1, 108132, Note_off_c, 0, 76, 123
1, 108137, Note_on_c, 0, 74, 110
1, 108163, Note_off_c, 0, 74, 110
1, 108165, Note_on_c, 0, 72, 102
1, 108200, Note_off_c, 0, 72, 102
1, 108204, Note_on_c, 0, 68, 114
1, 108232, Note_off_c, 0, 68, 114
1, 108239, Note_on_c, 0, 65, 114
1, 108332, Note_off_c, 0, 65, 114
1, 108413, Note_on_c, 0, 75, 115
1, 108543, Note_off_c, 0, 75, 115
1, 108549, Note_on_c, 0, 70, 103
1, 108573, Note_off_c, 0, 70, 103
1, 108576, Note_on_c, 0, 68, 110
1, 108610, Note_off_c, 0, 68, 110
1, 108617, Note_on_c, 0, 64, 120
1, 108670, Note_off_c, 0, 64, 120
1, 108673, Note_on_c, 0, 63, 123
1, 109033, Note_off_c, 0, 63, 123
1, 109037, Note_on_c, 0, 67, 107
1, 109073, Note_off_c, 0, 67, 107
1, 109073, Note_on_c, 0, 70, 111
1, 109126, Note_off_c, 0, 70, 111
1, 109130, Note_on_c, 0, 73, 109
1, 109167, Note_off_c, 0, 73, 109
1, 109171, Note_on_c, 0, 74, 105
1, 109280, Note_off_c, 0, 74, 105
1, 109288, Note_on_c, 0, 72, 103
1, 109395, Note_off_c, 0, 72, 103
1, 109644, Note_on_c, 0, 76, 116
1, 109673, Note_off_c, 0, 76, 116
1, 109678, Note_on_c, 0, 77, 112
1, 109787, Note_off_c, 0, 77, 112
1, 109903, Note_on_c, 0, 74, 116
1, 109988, Note_off_c, 0, 74, 116
1, 109994, Note_on_c, 0, 72, 94
1, 110041, Note_off_c, 0, 72, 94
1, 110146, Note_on_c, 0, 69, 98
1, 110208, Note_off_c, 0, 69, 98
1, 110232, Note_on_c, 0, 72, 101
1, 110305, Note_off_c, 0, 72, 101
1, 110309, Note_on_c, 0, 70, 111
1, 110385, Note_off_c, 0, 70, 111
1, 110428, Note_on_c, 0, 65, 109
1, 110624, Note_off_c, 0, 65, 109
1, 110954, Note_on_c, 0, 66, 113
1, 111004, Note_off_c, 0, 66, 113
1, 111007, Note_on_c, 0, 67, 115
1, 111112, Note_off_c, 0, 67, 115
1, 111118, Note_on_c, 0, 68, 114
1, 111191, Note_off_c, 0, 68, 114
1, 111203, Note_on_c, 0, 67, 114
1, 111280, Note_off_c, 0, 67, 114
1, 111284, Note_on_c, 0, 66, 111
1, 111351, Note_off_c, 0, 66, 111
1, 111368, Note_on_c, 0, 65, 114
1, 111486, Note_off_c, 0, 65, 114
1, 111505, Note_on_c, 0, 58, 102
1, 111554, Note_off_c, 0, 58, 102
1, 111588, Note_on_c, 0, 61, 116
1, 111629, Note_off_c, 0, 61, 116
1, 111631, Note_on_c, 0, 62, 115
1, 111759, Note_off_c, 0, 62, 115
1, 111770, Note_on_c, 0, 58, 101
1, 111891, Note_off_c, 0, 58, 101
1, 111924, Note_on_c, 0, 58, 92
1, 112172, Note_off_c, 0, 58, 92
1, 112172, End_track
0, 0, End_of_file
