0, 0, Header, 1, 1, 2520
1, 0, Start_track
1, 0, Note_on_c, 0, 67, 119
1, 611, Note_off_c, 0, 67, 119
1, 666, Note_on_c, 0, 69, 112
1, 2500, Note_off_c, 0, 69, 112
1, 8573, Note_on_c, 0, 68, 116
1, 9406, Note_off_c, 0, 68, 116
1, 9697, Note_on_c, 0, 65, 113
1, 10405, Note_off_c, 0, 65, 113
1, 11169, Note_on_c, 0, 71, 117
1, 12239, Note_off_c, 0, 71, 117
1, 12544, Note_on_c, 0, 70, 115
1, 13516, Note_off_c, 0, 70, 115
1, 13752, Note_on_c, 0, 68, 112
1, 14780, Note_off_c, 0, 68, 112
1, 14932, Note_on_c, 0, 65, 107
1, 20240, Note_off_c, 0, 65, 107
1, 20306, Note_on_c, 0, 68, 116
1, 21537, Note_off_c, 0, 68, 116
1, 21605, Note_on_c, 0, 69, 112
1, 22533, Note_off_c, 0, 69, 112
1, 35456, Note_on_c, 0, 67, 106
1, 36123, Note_off_c, 0, 67, 106
1, 36248, Note_on_c, 0, 69, 108
1, 36887, Note_off_c, 0, 69, 108
1, 36914, Note_on_c, 0, 70, 108
1, 37442, Note_off_c, 0, 70, 108
1, 37567, Note_on_c, 0, 71, 113
1, 38039, Note_off_c, 0, 71, 113
1, 38448, Note_on_c, 0, 72, 113
1, 39092, Note_off_c, 0, 72, 113
1, 39482, Note_on_c, 0, 72, 110
1, 40136, Note_off_c, 0, 72, 110
1, 40370, Note_on_c, 0, 70, 120
1, 40911, Note_off_c, 0, 70, 120
1, 41466, Note_on_c, 0, 70, 118
1, 42049, Note_off_c, 0, 70, 118
1, 42187, Note_on_c, 0, 67, 119
1, 43257, Note_off_c, 0, 67, 119
1, 45701, Note_on_c, 0, 69, 121
1, 46292, Note_off_c, 0, 69, 121
1, 46379, Note_on_c, 0, 68, 117
1, 46882, Note_off_c, 0, 68, 117
1, 47013, Note_on_c, 0, 67, 115
1, 47604, Note_off_c, 0, 67, 115
1, 47706, Note_on_c, 0, 66, 114
1, 48175, Note_off_c, 0, 66, 114
1, 48267, Note_on_c, 0, 65, 113
1, 48795, Note_off_c, 0, 65, 113
1, 48828, Note_on_c, 0, 62, 114
1, 49481, Note_off_c, 0, 62, 114
1, 49533, Note_on_c, 0, 69, 109
1, 50213, Note_off_c, 0, 69, 109
1, 50844, Note_on_c, 0, 57, 105
1, 51488, Note_off_c, 0, 57, 105
1, 51585, Note_on_c, 0, 55, 98
1, 52102, Note_off_c, 0, 55, 98
1, 52404, Note_on_c, 0, 53, 100
1, 52785, Note_off_c, 0, 53, 100
1, 52814, Note_on_c, 0, 54, 103
1, 53107, Note_on_c, 0, 60, 108
1, 53107, Note_off_c, 0, 54, 103
1, 53839, Note_off_c, 0, 60, 108
1, 54181, Note_on_c, 0, 57, 85
1, 54523, Note_off_c, 0, 57, 85
1, 54630, Note_on_c, 0, 58, 92
1, 54981, Note_off_c, 0, 58, 92
1, 55098, Note_on_c, 0, 60, 91
1, 55217, Title_t, "Melody"
1, 55217, Tempo, 526315
1, 55217, Key_signature, -2, "major"
1, 55217, Time_signature, 4, 2, 24, 8
1, 55478, Note_off_c, 0, 60, 91
1, 55849, Note_on_c, 0, 69, 117
1, 56396, Note_on_c, 0, 68, 114
1, 56396, Note_off_c, 0, 69, 117
1, 56884, Note_off_c, 0, 68, 114
1, 56981, Note_on_c, 0, 67, 113
1, 57762, Note_off_c, 0, 67, 113
1, 57791, Note_on_c, 0, 66, 114
1, 58299, Note_off_c, 0, 66, 114
1, 58347, Note_on_c, 0, 65, 114
1, 58835, Note_off_c, 0, 65, 114
1, 58903, Note_on_c, 0, 62, 114
1, 59499, Note_off_c, 0, 62, 114
1, 59518, Note_on_c, 0, 58, 102
1, 59879, Note_off_c, 0, 58, 102
1, 59937, Note_on_c, 0, 55, 94
1, 60396, Note_off_c, 0, 55, 94
1, 60454, Note_on_c, 0, 57, 96
1, 62144, Note_off_c, 0, 57, 96
1, 62534, Note_on_c, 0, 60, 94
1, 62827, Note_off_c, 0, 60, 94
1, 62846, Note_on_c, 0, 64, 91
1, 63080, Note_off_c, 0, 64, 91
1, 63226, Note_on_c, 0, 67, 112
1, 63997, Note_off_c, 0, 67, 112
1, 64016, Note_on_c, 0, 65, 106
1, 64700, Note_off_c, 0, 65, 106
1, 64739, Note_on_c, 0, 64, 100
1, 65383, Note_off_c, 0, 64, 100
1, 65724, Note_on_c, 0, 69, 119
1, 66622, Note_off_c, 0, 69, 119
1, 66622, Note_on_c, 0, 72, 102
1, 68644, Note_off_c, 0, 72, 102
1, 72767, Note_on_c, 0, 63, 93
1, 73060, Note_off_c, 0, 63, 93
1, 73108, Note_on_c, 0, 70, 96
1, 73322, Note_off_c, 0, 70, 96
1, 73351, Note_on_c, 0, 72, 115
1, 74181, Note_off_c, 0, 72, 115
1, 74532, Note_on_c, 0, 69, 120
1, 75333, Note_on_c, 0, 67, 116
1, 75333, Note_off_c, 0, 69, 120
1, 77981, Note_off_c, 0, 67, 116
1, 78039, Note_on_c, 0, 65, 99
1, 78517, Note_off_c, 0, 65, 99
1, 78575, Note_on_c, 0, 69, 119
1, 79366, Note_off_c, 0, 69, 119
1, 79366, Note_on_c, 0, 62, 101
1, 81955, Note_off_c, 0, 62, 101
1, 84466, Note_on_c, 0, 67, 117
1, 85032, Note_off_c, 0, 67, 117
1, 85100, Note_on_c, 0, 66, 115
1, 85676, Note_off_c, 0, 66, 115
1, 85763, Note_on_c, 0, 65, 115
1, 86349, Note_on_c, 0, 62, 115
1, 86349, Note_off_c, 0, 65, 115
1, 86857, Note_off_c, 0, 62, 115
1, 86857, Note_on_c, 0, 58, 102
1, 87404, Note_off_c, 0, 58, 102
1, 87579, Note_on_c, 0, 55, 106
1, 88145, Note_off_c, 0, 55, 106
1, 88164, Note_on_c, 0, 53, 106
1, 88848, Note_off_c, 0, 53, 106
1, 88965, Note_on_c, 0, 51, 97
1, 89287, Note_off_c, 0, 51, 97
1, 89384, Note_on_c, 0, 52, 87
1, 89765, Note_off_c, 0, 52, 87
1, 89843, Note_on_c, 0, 55, 90
1, 90145, Note_off_c, 0, 55, 90
1, 90242, Note_on_c, 0, 58, 94
1, 90632, Note_off_c, 0, 58, 94
1, 90788, Note_on_c, 0, 63, 122
1, 91608, Note_on_c, 0, 61, 101
1, 91608, Note_off_c, 0, 63, 122
1, 92077, Note_off_c, 0, 61, 101
1, 92077, Note_on_c, 0, 63, 119
1, 92848, Note_off_c, 0, 63, 119
1, 92877, Note_on_c, 0, 61, 102
1, 93326, Note_off_c, 0, 61, 102
1, 93326, Note_on_c, 0, 63, 121
1, 94019, Note_off_c, 0, 63, 121
1, 94126, Note_on_c, 0, 61, 112
1, 94673, Note_off_c, 0, 61, 112
1, 94682, Note_on_c, 0, 60, 105
1, 95229, Note_off_c, 0, 60, 105
1, 95346, Note_on_c, 0, 58, 102
1, 95942, Note_off_c, 0, 58, 102
1, 95961, Note_on_c, 0, 57, 103
1, 97671, Note_off_c, 0, 57, 103
1, 97925, Note_on_c, 0, 60, 96
1, 98257, Note_off_c, 0, 60, 96
1, 98296, Note_on_c, 0, 64, 96
1, 98569, Note_off_c, 0, 64, 96
1, 98569, Note_on_c, 0, 67, 115
1, 99331, Note_off_c, 0, 67, 115
1, 99389, Note_on_c, 0, 65, 109
1, 100004, Note_off_c, 0, 65, 109
1, 100082, Note_on_c, 0, 64, 100
1, 100580, Note_off_c, 0, 64, 100
1, 100580, Note_on_c, 0, 65, 98
1, 100892, Note_off_c, 0, 65, 98
1, 100940, Note_on_c, 0, 69, 115
1, 101848, Note_on_c, 0, 72, 102
1, 101848, Note_off_c, 0, 69, 115
1, 104134, Note_off_c, 0, 72, 102
1, 107749, Note_on_c, 0, 60, 89
1, 107973, Note_off_c, 0, 60, 89
1, 107973, Note_on_c, 0, 62, 97
1, 108139, Note_off_c, 0, 62, 97
1, 108197, Note_on_c, 0, 67, 102
1, 108490, Note_off_c, 0, 67, 102
1, 108490, Note_on_c, 0, 70, 113
1, 108900, Note_off_c, 0, 70, 113
1, 108958, Note_on_c, 0, 69, 118
1, 109642, Note_off_c, 0, 69, 118
1, 109681, Note_on_c, 0, 67, 116
1, 110335, Note_off_c, 0, 67, 116
1, 110383, Note_on_c, 0, 65, 115
1, 110959, Note_off_c, 0, 65, 115
1, 110959, Note_on_c, 0, 62, 109
1, 111388, Note_off_c, 0, 62, 109
1, 111397, Note_on_c, 0, 63, 120
1, 112159, Note_off_c, 0, 63, 120
1, 112325, Note_on_c, 0, 55, 98
1, 112735, Note_off_c, 0, 55, 98
1, 112822, Note_on_c, 0, 56, 96
1, 113232, Note_off_c, 0, 56, 96
1, 113446, Note_on_c, 0, 60, 91
1, 113856, Note_off_c, 0, 60, 91
1, 113856, Note_on_c, 0, 62, 109
1, 115849, Note_off_c, 0, 62, 109
1, 115849, Note_on_c, 0, 57, 95
1, 116318, Note_off_c, 0, 57, 95
1, 116327, Note_on_c, 0, 60, 106
1, 117304, Note_off_c, 0, 60, 106
1, 117304, Note_on_c, 0, 57, 96
1, 117714, Note_off_c, 0, 57, 96
1, 117772, Note_on_c, 0, 58, 91
1, 118094, Note_on_c, 0, 62, 90
1, 118094, Note_off_c, 0, 58, 91
1, 118484, Note_off_c, 0, 62, 90
1, 118493, Note_on_c, 0, 65, 98
1, 118922, Note_off_c, 0, 65, 98
1, 119068, Note_on_c, 0, 69, 116
1, 119742, Note_off_c, 0, 69, 116
1, 119742, Note_on_c, 0, 68, 114
1, 120279, Note_off_c, 0, 68, 114
1, 120298, Note_on_c, 0, 67, 113
1, 120982, Note_off_c, 0, 67, 113
1, 121040, Note_on_c, 0, 66, 113
1, 121645, Note_off_c, 0, 66, 113
1, 121674, Note_on_c, 0, 65, 111
1, 122230, Note_on_c, 0, 62, 112
1, 122230, Note_off_c, 0, 65, 111
1, 122904, Note_off_c, 0, 62, 112
1, 122913, Note_on_c, 0, 58, 91
1, 123548, Note_off_c, 0, 58, 91
1, 123762, Note_on_c, 0, 56, 93
1, 124113, Note_off_c, 0, 56, 93
1, 124210, Note_on_c, 0, 61, 105
1, 124884, Note_off_c, 0, 61, 105
1, 124971, Note_on_c, 0, 62, 99
1, 125430, Note_off_c, 0, 62, 99
1, 125527, Note_on_c, 0, 63, 95
1, 125996, Note_off_c, 0, 63, 95
1, 126113, Note_on_c, 0, 64, 102
1, 126523, Note_off_c, 0, 64, 102
1, 126708, Note_on_c, 0, 65, 114
1, 127362, Note_off_c, 0, 65, 114
1, 127362, Note_on_c, 0, 61, 107
1, 127928, Note_off_c, 0, 61, 107
1, 127986, Note_on_c, 0, 60, 102
1, 128582, Note_off_c, 0, 60, 102
1, 128679, Note_on_c, 0, 58, 100
1, 129167, Note_off_c, 0, 58, 100
1, 129440, Note_on_c, 0, 56, 90
1, 131511, Note_off_c, 0, 56, 90
1, 134442, Note_on_c, 0, 63, 118
1, 135174, Note_off_c, 0, 63, 118
1, 135222, Note_on_c, 0, 61, 102
1, 135583, Note_off_c, 0, 61, 102
1, 135631, Note_on_c, 0, 63, 118
1, 136451, Note_off_c, 0, 63, 118
1, 136519, Note_on_c, 0, 61, 109
1, 137085, Note_off_c, 0, 61, 109
1, 137202, Note_on_c, 0, 60, 107
1, 137983, Note_off_c, 0, 60, 107
1, 138051, Note_on_c, 0, 57, 96
1, 138735, Note_off_c, 0, 57, 96
1, 138822, Note_on_c, 0, 58, 89
1, 139066, Note_off_c, 0, 58, 89
1, 139241, Note_on_c, 0, 60, 97
1, 139622, Note_off_c, 0, 60, 97
1, 139846, Note_on_c, 0, 67, 115
1, 140481, Note_off_c, 0, 67, 115
1, 140481, Note_on_c, 0, 65, 110
1, 141057, Note_off_c, 0, 65, 110
1, 141184, Note_on_c, 0, 64, 105
1, 141750, Note_off_c, 0, 64, 105
1, 141867, Note_on_c, 0, 62, 102
1, 142238, Note_off_c, 0, 62, 102
1, 142345, Note_on_c, 0, 64, 115
1, 143224, Note_off_c, 0, 64, 115
1, 143224, Note_on_c, 0, 60, 95
1, 145197, Note_off_c, 0, 60, 95
1, 147766, Note_on_c, 0, 57, 98
1, 148489, Note_off_c, 0, 57, 98
1, 148596, Note_on_c, 0, 60, 90
1, 149231, Note_off_c, 0, 60, 90
1, 149328, Note_on_c, 0, 64, 100
1, 149689, Note_off_c, 0, 64, 100
1, 149816, Note_on_c, 0, 67, 113
1, 152063, Note_off_c, 0, 67, 113
1, 152405, Note_on_c, 0, 65, 116
1, 152991, Note_off_c, 0, 65, 116
1, 153059, Note_on_c, 0, 66, 112
1, 153317, Note_off_c, 0, 66, 112
1, 153380, Note_on_c, 0, 63, 117
1, 154083, Note_off_c, 0, 63, 117
1, 154190, Note_on_c, 0, 59, 104
1, 154727, Note_off_c, 0, 59, 104
1, 154795, Note_on_c, 0, 58, 99
1, 155391, Note_off_c, 0, 58, 99
1, 155469, Note_on_c, 0, 56, 101
1, 156270, Note_off_c, 0, 56, 101
1, 157364, Note_on_c, 0, 64, 121
1, 157881, Note_off_c, 0, 64, 121
1, 157910, Note_on_c, 0, 65, 114
1, 158457, Note_off_c, 0, 65, 114
1, 158574, Note_on_c, 0, 62, 114
1, 159072, Note_off_c, 0, 62, 114
1, 159199, Note_on_c, 0, 58, 101
1, 159619, Note_off_c, 0, 58, 101
1, 159814, Note_on_c, 0, 57, 100
1, 160410, Note_off_c, 0, 57, 100
1, 160517, Note_on_c, 0, 55, 94
1, 161034, Note_off_c, 0, 55, 94
1, 161092, Note_on_c, 0, 60, 107
1, 161942, Note_on_c, 0, 57, 97
1, 161942, Note_off_c, 0, 60, 107
1, 162450, Note_off_c, 0, 57, 97
1, 162518, Note_on_c, 0, 58, 96
1, 162987, Note_off_c, 0, 58, 96
1, 162996, Note_on_c, 0, 60, 106
1, 163699, Note_off_c, 0, 60, 106
1, 163718, Note_on_c, 0, 62, 102
1, 164294, Note_off_c, 0, 62, 102
1, 164391, Note_on_c, 0, 64, 104
1, 164860, Note_off_c, 0, 64, 104
1, 164889, Note_on_c, 0, 65, 114
1, 165504, Note_off_c, 0, 65, 114
1, 165611, Note_on_c, 0, 62, 107
1, 166167, Note_off_c, 0, 62, 107
1, 166206, Note_on_c, 0, 58, 95
1, 166762, Note_off_c, 0, 58, 95
1, 166879, Note_on_c, 0, 55, 91
1, 167357, Note_off_c, 0, 55, 91
1, 167484, Note_on_c, 0, 57, 104
1, 167972, Note_off_c, 0, 57, 104
1, 168118, Note_on_c, 0, 55, 97
1, 168753, Note_off_c, 0, 55, 97
1, 168753, Note_on_c, 0, 54, 88
1, 169036, Note_on_c, 0, 55, 96
1, 169036, Note_off_c, 0, 54, 88
1, 169534, Note_off_c, 0, 55, 96
1, 169690, Note_on_c, 0, 60, 108
1, 170510, Note_off_c, 0, 60, 108
1, 170773, Note_on_c, 0, 57, 93
1, 171183, Note_off_c, 0, 57, 93
1, 171427, Note_on_c, 0, 58, 87
1, 171700, Note_off_c, 0, 58, 87
1, 171807, Note_on_c, 0, 62, 90
1, 172021, Note_off_c, 0, 62, 90
1, 172021, Note_on_c, 0, 65, 91
1, 172226, Note_off_c, 0, 65, 91
1, 172372, Note_on_c, 0, 69, 120
1, 173104, Note_off_c, 0, 69, 120
1, 173455, Note_on_c, 0, 69, 119
1, 174266, Note_off_c, 0, 69, 119
1, 174305, Note_on_c, 0, 65, 109
1, 175018, Note_off_c, 0, 65, 109
1, 175340, Note_on_c, 0, 65, 114
1, 176033, Note_off_c, 0, 65, 114
1, 176091, Note_on_c, 0, 62, 112
1, 177156, Note_off_c, 0, 62, 112
1, 177576, Note_on_c, 0, 67, 115
1, 178357, Note_off_c, 0, 67, 115
1, 178699, Note_on_c, 0, 67, 115
1, 179451, Note_off_c, 0, 67, 115
1, 179509, Note_on_c, 0, 64, 106
1, 180320, Note_off_c, 0, 64, 106
1, 180554, Note_on_c, 0, 64, 112
1, 181286, Note_off_c, 0, 64, 112
1, 181344, Note_on_c, 0, 60, 101
1, 182096, Note_off_c, 0, 60, 101
1, 182535, Note_on_c, 0, 64, 110
1, 182818, Note_off_c, 0, 64, 110
1, 182876, Note_on_c, 0, 65, 108
1, 183384, Note_off_c, 0, 65, 108
1, 183774, Note_on_c, 0, 65, 112
1, 184506, Note_off_c, 0, 65, 112
1, 184525, Note_on_c, 0, 62, 112
1, 185248, Note_off_c, 0, 62, 112
1, 185423, Note_on_c, 0, 62, 102
1, 186194, Note_off_c, 0, 62, 102
1, 186281, Note_on_c, 0, 58, 92
1, 186906, Note_off_c, 0, 58, 92
1, 187423, Note_on_c, 0, 64, 111
1, 188175, Note_off_c, 0, 64, 111
1, 188214, Note_on_c, 0, 60, 90
1, 188546, Note_off_c, 0, 60, 90
1, 188643, Note_on_c, 0, 62, 111
1, 189405, Note_off_c, 0, 62, 111
1, 189405, Note_on_c, 0, 58, 91
1, 189825, Note_off_c, 0, 58, 91
1, 189952, Note_on_c, 0, 60, 104
1, 190655, Note_off_c, 0, 60, 104
1, 190674, Note_on_c, 0, 57, 93
1, 191045, Note_off_c, 0, 57, 93
1, 191064, Note_on_c, 0, 58, 100
1, 191562, Note_off_c, 0, 58, 100
1, 191767, Note_on_c, 0, 55, 91
1, 192196, Note_off_c, 0, 55, 91
1, 192283, Note_on_c, 0, 57, 106
1, 192859, Note_off_c, 0, 57, 106
1, 193083, Note_on_c, 0, 55, 102
1, 193581, Note_off_c, 0, 55, 102
1, 193698, Note_on_c, 0, 54, 107
1, 194186, Note_off_c, 0, 54, 107
1, 194293, Note_on_c, 0, 57, 111
1, 194674, Note_off_c, 0, 57, 111
1, 194820, Note_on_c, 0, 55, 108
1, 195298, Note_off_c, 0, 55, 108
1, 195503, Note_on_c, 0, 51, 97
1, 195932, Note_off_c, 0, 51, 97
1, 196088, Note_on_c, 0, 53, 109
1, 196732, Note_off_c, 0, 53, 109
1, 196927, Note_on_c, 0, 50, 104
1, 197288, Note_off_c, 0, 50, 104
1, 197317, Note_on_c, 0, 52, 108
1, 198987, Note_off_c, 0, 52, 108
1, 198987, Note_on_c, 0, 55, 95
1, 199260, Note_off_c, 0, 55, 95
1, 199269, Note_on_c, 0, 58, 104
1, 199571, Note_off_c, 0, 58, 104
1, 199590, Note_on_c, 0, 62, 115
1, 200078, Note_off_c, 0, 62, 115
1, 200165, Note_on_c, 0, 60, 110
1, 201005, Note_off_c, 0, 60, 110
1, 201092, Note_on_c, 0, 57, 99
1, 203720, Note_off_c, 0, 57, 99
1, 211204, Note_on_c, 0, 68, 118
1, 212132, Note_off_c, 0, 68, 118
1, 212454, Note_on_c, 0, 65, 92
1, 213753, Note_off_c, 0, 65, 92
1, 213753, Note_on_c, 0, 70, 114
1, 214124, Note_off_c, 0, 70, 114
1, 214182, Note_on_c, 0, 71, 120
1, 214455, Note_off_c, 0, 71, 120
1, 214484, Note_on_c, 0, 73, 114
1, 214796, Note_off_c, 0, 73, 114
1, 214923, Note_on_c, 0, 71, 112
1, 215245, Note_off_c, 0, 71, 112
1, 215411, Note_on_c, 0, 68, 115
1, 216603, Note_off_c, 0, 68, 115
1, 216964, Note_on_c, 0, 65, 110
1, 217696, Note_off_c, 0, 65, 110
1, 218292, Note_on_c, 0, 65, 114
1, 219445, Note_off_c, 0, 65, 114
1, 219620, Note_on_c, 0, 65, 114
1, 222707, Note_off_c, 0, 65, 114
1, 222980, Note_on_c, 0, 68, 119
1, 224181, Note_off_c, 0, 68, 119
1, 229047, Note_on_c, 0, 68, 119
1, 229916, Note_off_c, 0, 68, 119
1, 230189, Note_on_c, 0, 65, 113
1, 231048, Note_off_c, 0, 65, 113
1, 231238, Note_on_c, 0, 70, 109
1, 231780, Note_off_c, 0, 70, 109
1, 231809, Note_on_c, 0, 72, 112
1, 232248, Note_off_c, 0, 72, 112
1, 232296, Note_on_c, 0, 70, 115
1, 233175, Note_off_c, 0, 70, 115
1, 233311, Note_on_c, 0, 68, 115
1, 234346, Note_off_c, 0, 68, 115
1, 234463, Note_on_c, 0, 65, 111
1, 235322, Note_off_c, 0, 65, 111
1, 235644, Note_on_c, 0, 68, 115
1, 236621, Note_off_c, 0, 68, 115
1, 236796, Note_on_c, 0, 65, 115
1, 237841, Note_off_c, 0, 65, 115
1, 238016, Note_on_c, 0, 65, 106
1, 241045, Note_off_c, 0, 65, 106
1, 241387, Note_on_c, 0, 68, 114
1, 242188, Note_off_c, 0, 68, 114
1, 242256, Note_on_c, 0, 65, 95
1, 243067, Note_off_c, 0, 65, 95
1, 243213, Note_on_c, 0, 68, 115
1, 243984, Note_off_c, 0, 68, 115
1, 244023, Note_on_c, 0, 65, 115
1, 244814, Note_on_c, 0, 58, 86
1, 244814, Note_off_c, 0, 65, 115
1, 247188, Note_off_c, 0, 58, 86
1, 249689, Note_on_c, 0, 67, 118
1, 250050, Note_off_c, 0, 67, 118
1, 250069, Note_on_c, 0, 68, 118
1, 251803, Note_off_c, 0, 68, 118
1, 252169, Note_on_c, 0, 65, 115
1, 253028, Note_off_c, 0, 65, 115
1, 253487, Note_on_c, 0, 70, 119
1, 254151, Note_off_c, 0, 70, 119
1, 254190, Note_on_c, 0, 71, 111
1, 254717, Note_off_c, 0, 71, 111
1, 254746, Note_on_c, 0, 70, 115
1, 255127, Note_off_c, 0, 70, 115
1, 255166, Note_on_c, 0, 68, 115
1, 255977, Note_off_c, 0, 68, 115
1, 256358, Note_on_c, 0, 65, 115
1, 257198, Note_off_c, 0, 65, 115
1, 257608, Note_on_c, 0, 59, 93
1, 258067, Note_off_c, 0, 59, 93
1, 258448, Note_on_c, 0, 65, 114
1, 260959, Note_off_c, 0, 65, 114
1, 261061, Note_on_c, 0, 68, 116
1, 262214, Note_off_c, 0, 68, 116
1, 262570, Note_on_c, 0, 60, 99
1, 262833, Note_off_c, 0, 60, 99
1, 262920, Note_on_c, 0, 62, 97
1, 263389, Note_off_c, 0, 62, 97
1, 263389, Note_on_c, 0, 65, 112
1, 264786, Note_off_c, 0, 65, 112
1, 264825, Note_on_c, 0, 68, 116
1, 266095, Note_off_c, 0, 68, 116
1, 272143, Note_on_c, 0, 68, 117
1, 274273, Note_off_c, 0, 68, 117
1, 275093, Note_on_c, 0, 65, 97
1, 275503, Note_off_c, 0, 65, 97
1, 275678, Note_on_c, 0, 69, 114
1, 276126, Note_off_c, 0, 69, 114
1, 276176, Note_on_c, 0, 71, 9
1, 277299, Note_off_c, 0, 71, 9
1, 277338, Note_on_c, 0, 70, 115
1, 285868, Note_off_c, 0, 70, 115
1, 286082, Note_on_c, 0, 68, 115
1, 287293, Note_off_c, 0, 68, 115
1, 287654, Note_on_c, 0, 65, 112
1, 288367, Note_off_c, 0, 65, 112
1, 289148, Note_on_c, 0, 71, 115
1, 289812, Note_off_c, 0, 71, 115
1, 289812, Note_on_c, 0, 70, 113
1, 290515, Note_off_c, 0, 70, 113
1, 290515, Note_on_c, 0, 68, 111
1, 291111, Note_off_c, 0, 68, 111
1, 291168, Note_on_c, 0, 65, 111
1, 292286, Note_off_c, 0, 65, 111
1, 292849, Note_on_c, 0, 68, 115
1, 294246, Note_off_c, 0, 68, 115
1, 295096, Note_on_c, 0, 70, 113
1, 296366, Note_off_c, 0, 70, 113
1, 296532, Note_on_c, 0, 65, 111
1, 297694, Note_off_c, 0, 65, 111
1, 297987, Note_on_c, 0, 68, 114
1, 300908, Note_off_c, 0, 68, 114
1, 301240, Note_on_c, 0, 70, 113
1, 302588, Note_off_c, 0, 70, 113
1, 302773, Note_on_c, 0, 65, 109
1, 303544, Note_off_c, 0, 65, 109
1, 304120, Note_on_c, 0, 68, 113
1, 305439, Note_off_c, 0, 68, 113
1, 305751, Note_on_c, 0, 65, 108
1, 306786, Note_off_c, 0, 65, 108
1, 311915, Note_on_c, 0, 68, 115
1, 312941, Note_off_c, 0, 68, 115
1, 312999, Note_on_c, 0, 65, 111
1, 313546, Note_off_c, 0, 65, 111
1, 314122, Note_on_c, 0, 70, 117
1, 315108, Note_off_c, 0, 70, 117
1, 315244, Note_on_c, 0, 68, 118
1, 316709, Note_off_c, 0, 68, 118
1, 317178, Note_on_c, 0, 68, 113
1, 318106, Note_off_c, 0, 68, 113
1, 318301, Note_on_c, 0, 65, 99
1, 318740, Note_off_c, 0, 65, 99
1, 318886, Note_on_c, 0, 68, 115
1, 322384, Note_off_c, 0, 68, 115
1, 331764, Note_on_c, 0, 68, 108
1, 332643, Note_off_c, 0, 68, 108
1, 332818, Note_on_c, 0, 65, 108
1, 333482, Note_off_c, 0, 65, 108
1, 333980, Note_on_c, 0, 70, 115
1, 335240, Note_off_c, 0, 70, 115
1, 335343, Note_on_c, 0, 68, 118
1, 336510, Note_off_c, 0, 68, 118
1, 337428, Note_on_c, 0, 68, 114
1, 338229, Note_off_c, 0, 68, 114
1, 338912, Note_on_c, 0, 68, 111
1, 339644, Note_off_c, 0, 68, 111
1, 340266, Note_on_c, 0, 67, 114
1, 340627, Note_off_c, 0, 67, 114
1, 340675, Note_on_c, 0, 68, 111
1, 342426, Note_off_c, 0, 68, 111
1, 342593, Note_on_c, 0, 65, 110
1, 343335, Note_off_c, 0, 65, 110
1, 343413, Note_on_c, 0, 63, 100
1, 343911, Note_off_c, 0, 63, 100
1, 344168, Note_on_c, 0, 65, 111
1, 346127, Note_off_c, 0, 65, 111
1, 351521, Note_on_c, 0, 68, 113
1, 352556, Note_off_c, 0, 68, 113
1, 352653, Note_on_c, 0, 65, 116
1, 353688, Note_off_c, 0, 65, 116
1, 353688, Note_on_c, 0, 67, 109
1, 353932, Note_off_c, 0, 67, 109
1, 353961, Note_on_c, 0, 70, 105
1, 354557, Note_off_c, 0, 70, 105
1, 354621, Note_on_c, 0, 76, 112
1, 354909, Note_off_c, 0, 76, 112
1, 354961, Note_on_c, 0, 77, 117
1, 361784, Note_off_c, 0, 77, 117
1, 362206, Note_on_c, 0, 69, 115
1, 362616, Note_off_c, 0, 69, 115
1, 362645, Note_on_c, 0, 70, 111
1, 363255, Note_off_c, 0, 70, 111
1, 363474, Note_on_c, 0, 68, 114
1, 364314, Note_off_c, 0, 68, 114
1, 364392, Note_on_c, 0, 65, 98
1, 365036, Note_off_c, 0, 65, 98
1, 365226, Note_on_c, 0, 68, 112
1, 366796, Note_off_c, 0, 68, 112
1, 370760, Note_on_c, 0, 75, 117
1, 371159, Note_off_c, 0, 75, 117
1, 371186, Note_on_c, 0, 77, 115
1, 372381, Note_off_c, 0, 77, 115
1, 372733, Note_on_c, 0, 70, 112
1, 373153, Note_off_c, 0, 70, 112
1, 373153, Note_on_c, 0, 71, 112
1, 373915, Note_off_c, 0, 71, 112
1, 374012, Note_on_c, 0, 70, 116
1, 378340, Note_off_c, 0, 70, 116
1, 378427, Note_on_c, 0, 68, 116
1, 379286, Note_off_c, 0, 68, 116
1, 379500, Note_on_c, 0, 65, 117
1, 382792, Note_off_c, 0, 65, 117
1, 383681, Note_on_c, 0, 68, 116
1, 384120, Note_off_c, 0, 68, 116
1, 384149, Note_on_c, 0, 69, 117
1, 385008, Note_off_c, 0, 69, 117
1, 385115, Note_on_c, 0, 67, 113
1, 385613, Note_off_c, 0, 67, 113
1, 385759, Note_on_c, 0, 62, 103
1, 386091, Note_off_c, 0, 62, 103
1, 386218, Note_on_c, 0, 60, 93
1, 386784, Note_off_c, 0, 60, 93
1, 391396, Note_on_c, 0, 60, 103
1, 391786, Note_off_c, 0, 60, 103
1, 391991, Note_on_c, 0, 69, 119
1, 392567, Note_off_c, 0, 69, 119
1, 392567, Note_on_c, 0, 70, 115
1, 393006, Note_off_c, 0, 70, 115
1, 393054, Note_on_c, 0, 69, 119
1, 393777, Note_off_c, 0, 69, 119
1, 393913, Note_on_c, 0, 67, 118
1, 394597, Note_off_c, 0, 67, 118
1, 394606, Note_on_c, 0, 66, 118
1, 395182, Note_off_c, 0, 66, 118
1, 395396, Note_on_c, 0, 57, 102
1, 395796, Note_off_c, 0, 57, 102
1, 395835, Note_on_c, 0, 60, 111
1, 396382, Note_off_c, 0, 60, 111
1, 396587, Note_on_c, 0, 63, 126
1, 397153, Note_off_c, 0, 63, 126
1, 397182, Note_on_c, 0, 62, 118
1, 397836, Note_off_c, 0, 62, 118
1, 397904, Note_on_c, 0, 60, 116
1, 398529, Note_off_c, 0, 60, 116
1, 398577, Note_on_c, 0, 59, 113
1, 398997, Note_off_c, 0, 59, 113
1, 399045, Note_on_c, 0, 57, 107
1, 399621, Note_off_c, 0, 57, 107
1, 399718, Note_on_c, 0, 58, 109
1, 400489, Note_off_c, 0, 58, 109
1, 400733, Note_on_c, 0, 65, 122
1, 401544, Note_off_c, 0, 65, 122
1, 401739, Note_on_c, 0, 64, 115
1, 402247, Note_off_c, 0, 64, 115
1, 402491, Note_on_c, 0, 65, 119
1, 403038, Note_off_c, 0, 65, 119
1, 403575, Note_on_c, 0, 70, 117
1, 404288, Note_off_c, 0, 70, 117
1, 404366, Note_on_c, 0, 69, 108
1, 404981, Note_off_c, 0, 69, 108
1, 404990, Note_on_c, 0, 70, 118
1, 406006, Note_off_c, 0, 70, 118
1, 406006, Note_on_c, 0, 65, 118
1, 406777, Note_off_c, 0, 65, 118
1, 406855, Note_on_c, 0, 64, 111
1, 407353, Note_off_c, 0, 64, 111
1, 407401, Note_on_c, 0, 65, 119
1, 408387, Note_off_c, 0, 65, 119
1, 408504, Note_on_c, 0, 62, 119
1, 409373, Note_off_c, 0, 62, 119
1, 409382, Note_on_c, 0, 61, 110
1, 409987, Note_off_c, 0, 61, 110
1, 409987, Note_on_c, 0, 62, 119
1, 410925, Note_off_c, 0, 62, 119
1, 411374, Note_on_c, 0, 69, 117
1, 411970, Note_off_c, 0, 69, 117
1, 412057, Note_on_c, 0, 68, 99
1, 412574, Note_off_c, 0, 68, 99
1, 412652, Note_on_c, 0, 69, 118
1, 413541, Note_off_c, 0, 69, 118
1, 413628, Note_on_c, 0, 65, 119
1, 414487, Note_off_c, 0, 65, 119
1, 414487, Note_on_c, 0, 64, 114
1, 414985, Note_off_c, 0, 64, 114
1, 415092, Note_on_c, 0, 65, 120
1, 415834, Note_off_c, 0, 65, 120
1, 416303, Note_on_c, 0, 67, 119
1, 417065, Note_off_c, 0, 67, 119
1, 417065, Note_on_c, 0, 66, 110
1, 417573, Note_off_c, 0, 66, 110
1, 417573, Note_on_c, 0, 67, 118
1, 418305, Note_off_c, 0, 67, 118
1, 418314, Note_on_c, 0, 64, 121
1, 418890, Note_off_c, 0, 64, 121
1, 418997, Note_on_c, 0, 62, 106
1, 419524, Note_off_c, 0, 62, 106
1, 419611, Note_on_c, 0, 60, 101
1, 420040, Note_off_c, 0, 60, 101
1, 420137, Note_on_c, 0, 65, 120
1, 420879, Note_off_c, 0, 65, 120
1, 420908, Note_on_c, 0, 62, 119
1, 421513, Note_off_c, 0, 62, 119
1, 421581, Note_on_c, 0, 58, 103
1, 422001, Note_off_c, 0, 58, 103
1, 422215, Note_on_c, 0, 55, 112
1, 422596, Note_off_c, 0, 55, 112
1, 422742, Note_on_c, 0, 57, 108
1, 423396, Note_off_c, 0, 57, 108
1, 423474, Note_on_c, 0, 60, 101
1, 426620, Note_off_c, 0, 60, 101
1, 428339, Note_on_c, 0, 60, 116
1, 429091, Note_off_c, 0, 60, 116
1, 429130, Note_on_c, 0, 59, 101
1, 429511, Note_off_c, 0, 59, 101
1, 429618, Note_on_c, 0, 58, 101
1, 430360, Note_off_c, 0, 58, 101
1, 430467, Note_on_c, 0, 65, 117
1, 431082, Note_off_c, 0, 65, 117
1, 431130, Note_on_c, 0, 62, 117
1, 431716, Note_off_c, 0, 62, 117
1, 431725, Note_on_c, 0, 58, 107
1, 432145, Note_off_c, 0, 58, 107
1, 432359, Note_on_c, 0, 57, 110
1, 433140, Note_off_c, 0, 57, 110
1, 433198, Note_on_c, 0, 55, 105
1, 435416, Note_off_c, 0, 55, 105
1, 438796, Note_on_c, 0, 60, 118
1, 439704, Note_off_c, 0, 60, 118
1, 440094, Note_on_c, 0, 64, 123
1, 440768, Note_off_c, 0, 64, 123
1, 440846, Note_on_c, 0, 65, 121
1, 441471, Note_off_c, 0, 65, 121
1, 441646, Note_on_c, 0, 60, 100
1, 442378, Note_off_c, 0, 60, 100
1, 442456, Note_on_c, 0, 64, 125
1, 443921, Note_off_c, 0, 64, 125
1, 443989, Note_on_c, 0, 65, 123
1, 445366, Note_off_c, 0, 65, 123
1, 448717, Note_on_c, 0, 60, 112
1, 449410, Note_off_c, 0, 60, 112
1, 450015, Note_on_c, 0, 64, 119
1, 450845, Note_off_c, 0, 64, 119
1, 450845, Note_on_c, 0, 65, 108
1, 451607, Note_off_c, 0, 65, 108
1, 451685, Note_on_c, 0, 60, 93
1, 452320, Note_off_c, 0, 60, 93
1, 452427, Note_on_c, 0, 64, 124
1, 453912, Note_off_c, 0, 64, 124
1, 453931, Note_on_c, 0, 65, 107
1, 457077, Note_off_c, 0, 65, 107
1, 458689, Note_on_c, 0, 60, 116
1, 459490, Note_off_c, 0, 60, 116
1, 459988, Note_on_c, 0, 64, 124
1, 460838, Note_off_c, 0, 64, 124
1, 460935, Note_on_c, 0, 65, 121
1, 461638, Note_off_c, 0, 65, 121
1, 461725, Note_on_c, 0, 60, 100
1, 462526, Note_off_c, 0, 60, 100
1, 462574, Note_on_c, 0, 64, 122
1, 463834, Note_off_c, 0, 64, 122
1, 463970, Note_on_c, 0, 64, 121
1, 464585, Note_off_c, 0, 64, 121
1, 464663, Note_on_c, 0, 65, 119
1, 468415, Note_off_c, 0, 65, 119
1, 468415, Note_on_c, 0, 63, 123
1, 468678, Note_off_c, 0, 63, 123
1, 468775, Note_on_c, 0, 62, 123
1, 469068, Note_off_c, 0, 62, 123
1, 469155, Note_on_c, 0, 60, 114
1, 469584, Note_off_c, 0, 60, 114
1, 469779, Note_on_c, 0, 59, 101
1, 471000, Note_off_c, 0, 59, 101
1, 471234, Note_on_c, 0, 59, 113
1, 473794, Note_off_c, 0, 59, 113
1, 481259, Note_on_c, 0, 65, 116
1, 482050, Note_off_c, 0, 65, 116
1, 482831, Note_on_c, 0, 68, 117
1, 483925, Note_off_c, 0, 68, 117
1, 483983, Note_on_c, 0, 67, 119
1, 484969, Note_off_c, 0, 67, 119
1, 484969, Note_on_c, 0, 65, 101
1, 485809, Note_off_c, 0, 65, 101
1, 485848, Note_on_c, 0, 68, 118
1, 487186, Note_off_c, 0, 68, 118
1, 491456, Note_on_c, 0, 65, 118
1, 492364, Note_off_c, 0, 65, 118
1, 492666, Note_on_c, 0, 68, 116
1, 493633, Note_off_c, 0, 68, 116
1, 493662, Note_on_c, 0, 67, 118
1, 494346, Note_off_c, 0, 67, 118
1, 494463, Note_on_c, 0, 65, 102
1, 495361, Note_off_c, 0, 65, 102
1, 495458, Note_on_c, 0, 68, 118
1, 496396, Note_off_c, 0, 68, 118
1, 496630, Note_on_c, 0, 59, 106
1, 497783, Note_off_c, 0, 59, 106
1, 502600, Note_on_c, 0, 68, 118
1, 503137, Note_off_c, 0, 68, 118
1, 503146, Note_on_c, 0, 69, 120
1, 505080, Note_off_c, 0, 69, 120
1, 505216, Note_on_c, 0, 64, 118
1, 505548, Note_off_c, 0, 64, 118
1, 505567, Note_on_c, 0, 65, 117
1, 507560, Note_off_c, 0, 65, 117
1, 507784, Note_on_c, 0, 59, 107
1, 508096, Note_off_c, 0, 59, 107
1, 508154, Note_on_c, 0, 60, 105
1, 509898, Note_off_c, 0, 60, 105
1, 510127, Note_on_c, 0, 55, 114
1, 510586, Note_off_c, 0, 55, 114
1, 510703, Note_on_c, 0, 57, 101
1, 512579, Note_off_c, 0, 57, 101
1, 512735, Note_on_c, 0, 57, 110
1, 513291, Note_off_c, 0, 57, 110
1, 513486, Note_on_c, 0, 58, 107
1, 513935, Note_off_c, 0, 58, 107
1, 514149, Note_on_c, 0, 57, 104
1, 514705, Note_off_c, 0, 57, 104
1, 514792, Note_on_c, 0, 55, 106
1, 515358, Note_off_c, 0, 55, 106
1, 515592, Note_on_c, 0, 54, 107
1, 516158, Note_off_c, 0, 54, 107
1, 516245, Note_on_c, 0, 57, 105
1, 516743, Note_off_c, 0, 57, 105
1, 516821, Note_on_c, 0, 60, 113
1, 517417, Note_off_c, 0, 60, 113
1, 517504, Note_on_c, 0, 62, 120
1, 518100, Note_off_c, 0, 62, 120
1, 518207, Note_on_c, 0, 63, 125
1, 518861, Note_off_c, 0, 63, 125
1, 518890, Note_on_c, 0, 62, 122
1, 519495, Note_off_c, 0, 62, 122
1, 519553, Note_on_c, 0, 56, 104
1, 520237, Note_off_c, 0, 56, 104
1, 520256, Note_on_c, 0, 54, 104
1, 520500, Note_off_c, 0, 54, 104
1, 520939, Note_on_c, 0, 55, 110
1, 521583, Note_off_c, 0, 55, 110
1, 522223, Note_on_c, 0, 55, 102
1, 522501, Note_off_c, 0, 55, 102
1, 522549, Note_on_c, 0, 58, 95
1, 522822, Note_off_c, 0, 58, 95
1, 522880, Note_on_c, 0, 62, 113
1, 523319, Note_off_c, 0, 62, 113
1, 523485, Note_on_c, 0, 69, 119
1, 527354, Note_off_c, 0, 69, 119
1, 527383, Note_on_c, 0, 67, 115
1, 527842, Note_off_c, 0, 67, 115
1, 527842, Note_on_c, 0, 65, 115
1, 528037, Note_off_c, 0, 65, 115
1, 528105, Note_on_c, 0, 64, 117
1, 528769, Note_off_c, 0, 64, 117
1, 528886, Note_on_c, 0, 62, 119
1, 529413, Note_off_c, 0, 62, 119
1, 529540, Note_on_c, 0, 60, 110
1, 530155, Note_off_c, 0, 60, 110
1, 530233, Note_on_c, 0, 59, 110
1, 530789, Note_off_c, 0, 59, 110
1, 530886, Note_on_c, 0, 58, 104
1, 531286, Note_off_c, 0, 58, 104
1, 531393, Note_on_c, 0, 62, 114
1, 531989, Note_off_c, 0, 62, 114
1, 532096, Note_on_c, 0, 65, 109
1, 532584, Note_off_c, 0, 65, 109
1, 532584, Note_on_c, 0, 69, 100
1, 533140, Note_off_c, 0, 69, 100
1, 533159, Note_on_c, 0, 72, 112
1, 533833, Note_off_c, 0, 72, 112
1, 533920, Note_on_c, 0, 69, 94
1, 534457, Note_off_c, 0, 69, 94
1, 534535, Note_on_c, 0, 70, 113
1, 535199, Note_off_c, 0, 70, 113
1, 535199, Note_on_c, 0, 67, 100
1, 535873, Note_off_c, 0, 67, 100
1, 535912, Note_on_c, 0, 69, 119
1, 536537, Note_off_c, 0, 69, 119
1, 536615, Note_on_c, 0, 67, 113
1, 537289, Note_off_c, 0, 67, 113
1, 537347, Note_on_c, 0, 66, 109
1, 537884, Note_off_c, 0, 66, 109
1, 537971, Note_on_c, 0, 69, 117
1, 538547, Note_off_c, 0, 69, 117
1, 538683, Note_on_c, 0, 67, 115
1, 539220, Note_off_c, 0, 67, 115
1, 539522, Note_on_c, 0, 62, 104
1, 540010, Note_off_c, 0, 62, 104
1, 540068, Note_on_c, 0, 65, 114
1, 540712, Note_off_c, 0, 65, 114
1, 540790, Note_on_c, 0, 62, 98
1, 541210, Note_off_c, 0, 62, 98
1, 541258, Note_on_c, 0, 64, 118
1, 541844, Note_off_c, 0, 64, 118
1, 541931, Note_on_c, 0, 62, 114
1, 542673, Note_off_c, 0, 62, 114
1, 542721, Note_on_c, 0, 61, 104
1, 543180, Note_off_c, 0, 61, 104
1, 543219, Note_on_c, 0, 62, 108
1, 543766, Note_off_c, 0, 62, 108
1, 543834, Note_on_c, 0, 65, 118
1, 544517, Note_on_c, 0, 62, 112
1, 544517, Note_off_c, 0, 65, 118
1, 545181, Note_off_c, 0, 62, 112
1, 545210, Note_on_c, 0, 58, 102
1, 545698, Note_off_c, 0, 58, 102
1, 545815, Note_on_c, 0, 55, 104
1, 546323, Note_off_c, 0, 55, 104
1, 546459, Note_on_c, 0, 57, 106
1, 547055, Note_off_c, 0, 57, 106
1, 547221, Note_on_c, 0, 55, 101
1, 547885, Note_off_c, 0, 55, 101
1, 547933, Note_on_c, 0, 54, 110
1, 548372, Note_off_c, 0, 54, 110
1, 548440, Note_on_c, 0, 55, 104
1, 548850, Note_off_c, 0, 55, 104
1, 548850, Note_on_c, 0, 60, 113
1, 549631, Note_off_c, 0, 60, 113
1, 549679, Note_on_c, 0, 57, 97
1, 550255, Note_off_c, 0, 57, 97
1, 550303, Note_on_c, 0, 58, 100
1, 550527, Note_off_c, 0, 58, 100
1, 550605, Note_on_c, 0, 62, 113
1, 551113, Note_off_c, 0, 62, 113
1, 551455, Note_on_c, 0, 69, 115
1, 552119, Note_off_c, 0, 69, 115
1, 552119, Note_on_c, 0, 70, 114
1, 552705, Note_off_c, 0, 70, 114
1, 552705, Note_on_c, 0, 69, 115
1, 553418, Note_off_c, 0, 69, 115
1, 553418, Note_on_c, 0, 67, 115
1, 554102, Note_off_c, 0, 67, 115
1, 554170, Note_on_c, 0, 65, 116
1, 554697, Note_off_c, 0, 65, 116
1, 554697, Note_on_c, 0, 62, 115
1, 555381, Note_off_c, 0, 62, 115
1, 555381, Note_on_c, 0, 58, 105
1, 555898, Note_off_c, 0, 58, 105
1, 556395, Note_on_c, 0, 57, 95
1, 558347, Note_off_c, 0, 57, 95
1, 561202, Note_on_c, 0, 55, 112
1, 561778, Note_off_c, 0, 55, 112
1, 561934, Note_on_c, 0, 53, 108
1, 562510, Note_off_c, 0, 53, 108
1, 562558, Note_on_c, 0, 52, 98
1, 562812, Note_off_c, 0, 52, 98
1, 562831, Note_on_c, 0, 53, 106
1, 563544, Note_off_c, 0, 53, 106
1, 563739, Note_on_c, 0, 58, 22
1, 564315, Note_off_c, 0, 58, 22
1, 564334, Note_on_c, 0, 57, 108
1, 565096, Note_off_c, 0, 57, 108
1, 565144, Note_on_c, 0, 56, 101
1, 565525, Note_off_c, 0, 56, 101
1, 565583, Note_on_c, 0, 57, 101
1, 566306, Note_on_c, 0, 62, 124
1, 566306, Note_off_c, 0, 57, 101
1, 567097, Note_off_c, 0, 62, 124
1, 567097, Note_on_c, 0, 60, 113
1, 567595, Note_off_c, 0, 60, 113
1, 567614, Note_on_c, 0, 59, 105
1, 568102, Note_off_c, 0, 59, 105
1, 568150, Note_on_c, 0, 60, 106
1, 568843, Note_off_c, 0, 60, 106
1, 569048, Note_on_c, 0, 67, 119
1, 569653, Note_off_c, 0, 67, 119
1, 569662, Note_on_c, 0, 65, 120
1, 570023, Note_off_c, 0, 65, 120
1, 570120, Note_on_c, 0, 64, 118
1, 570569, Note_off_c, 0, 64, 118
1, 570647, Note_on_c, 0, 65, 91
1, 571233, Note_off_c, 0, 65, 91
1, 571457, Note_on_c, 0, 69, 121
1, 572189, Note_off_c, 0, 69, 121
1, 572223, Note_on_c, 0, 70, 112
1, 572784, Note_off_c, 0, 70, 112
1, 572832, Note_on_c, 0, 72, 115
1, 573183, Note_off_c, 0, 72, 115
1, 573774, Note_on_c, 0, 67, 92
1, 574008, Note_off_c, 0, 67, 92
1, 574110, Note_on_c, 0, 70, 116
1, 574881, Note_off_c, 0, 70, 116
1, 576288, Note_on_c, 0, 65, 105
1, 576688, Note_off_c, 0, 65, 105
1, 576688, Note_on_c, 0, 69, 118
1, 577254, Note_off_c, 0, 69, 118
1, 577254, Note_on_c, 0, 68, 117
1, 577810, Note_off_c, 0, 68, 117
1, 577849, Note_on_c, 0, 67, 117
1, 578542, Note_off_c, 0, 67, 117
1, 578551, Note_on_c, 0, 66, 116
1, 578971, Note_off_c, 0, 66, 116
1, 579078, Note_on_c, 0, 65, 119
1, 579742, Note_off_c, 0, 65, 119
1, 579829, Note_on_c, 0, 62, 119
1, 580425, Note_on_c, 0, 58, 109
1, 580425, Note_off_c, 0, 62, 119
1, 580952, Note_off_c, 0, 58, 109
1, 581589, Note_on_c, 0, 56, 108
1, 582137, Note_off_c, 0, 56, 108
1, 582171, Note_on_c, 0, 57, 108
1, 582921, Note_off_c, 0, 57, 108
1, 583191, Note_on_c, 0, 60, 99
1, 583468, Note_off_c, 0, 60, 99
1, 583556, Note_on_c, 0, 64, 104
1, 583966, Note_off_c, 0, 64, 104
1, 584063, Note_on_c, 0, 67, 119
1, 584727, Note_off_c, 0, 67, 119
1, 584727, Note_on_c, 0, 65, 114
1, 585362, Note_off_c, 0, 65, 114
1, 585410, Note_on_c, 0, 64, 110
1, 585918, Note_off_c, 0, 64, 110
1, 585966, Note_on_c, 0, 65, 95
1, 586141, Note_off_c, 0, 65, 95
1, 586346, Note_on_c, 0, 69, 118
1, 587225, Note_off_c, 0, 69, 118
1, 587225, Note_on_c, 0, 72, 109
1, 588944, Note_off_c, 0, 72, 109
1, 590448, Note_on_c, 0, 60, 97
1, 591073, Note_off_c, 0, 60, 97
1, 591112, Note_on_c, 0, 62, 87
1, 591375, Note_off_c, 0, 62, 87
1, 591550, Note_on_c, 0, 67, 94
1, 591833, Note_off_c, 0, 67, 94
1, 591901, Note_on_c, 0, 70, 113
1, 592545, Note_off_c, 0, 70, 113
1, 592784, Note_on_c, 0, 67, 96
1, 593135, Note_off_c, 0, 67, 96
1, 593149, Note_on_c, 0, 69, 117
1, 593735, Note_off_c, 0, 69, 117
1, 593803, Note_on_c, 0, 66, 101
1, 594174, Note_off_c, 0, 66, 101
1, 594388, Note_on_c, 0, 67, 114
1, 595072, Note_off_c, 0, 67, 114
1, 595072, Note_on_c, 0, 63, 123
1, 595795, Note_off_c, 0, 63, 123
1, 595795, Note_on_c, 0, 62, 118
1, 596107, Note_off_c, 0, 62, 118
1, 596175, Note_on_c, 0, 60, 113
1, 596829, Note_off_c, 0, 60, 113
1, 596936, Note_on_c, 0, 58, 110
1, 597356, Note_off_c, 0, 58, 110
1, 597502, Note_on_c, 0, 55, 101
1, 598088, Note_off_c, 0, 55, 101
1, 598136, Note_on_c, 0, 57, 107
1, 598595, Note_off_c, 0, 57, 107
1, 599327, Note_on_c, 0, 63, 121
1, 599913, Note_off_c, 0, 63, 121
1, 600020, Note_on_c, 0, 66, 115
1, 600674, Note_off_c, 0, 66, 115
1, 600771, Note_on_c, 0, 65, 116
1, 601103, Note_off_c, 0, 65, 116
1, 601171, Note_on_c, 0, 63, 123
1, 601786, Note_off_c, 0, 63, 123
1, 601815, Note_on_c, 0, 62, 120
1, 602508, Note_off_c, 0, 62, 120
1, 602713, Note_on_c, 0, 53, 103
1, 603406, Note_off_c, 0, 53, 103
1, 603757, Note_on_c, 0, 57, 104
1, 604089, Note_off_c, 0, 57, 104
1, 604284, Note_on_c, 0, 60, 118
1, 604997, Note_off_c, 0, 60, 118
1, 604997, Note_on_c, 0, 57, 102
1, 605426, Note_off_c, 0, 57, 102
1, 605553, Note_on_c, 0, 58, 103
1, 606119, Note_off_c, 0, 58, 103
1, 606265, Note_on_c, 0, 60, 106
1, 606685, Note_off_c, 0, 60, 106
1, 606763, Note_on_c, 0, 62, 122
1, 607456, Note_off_c, 0, 62, 122
1, 607504, Note_on_c, 0, 65, 102
1, 607933, Note_off_c, 0, 65, 102
1, 608001, Note_on_c, 0, 67, 116
1, 608860, Note_off_c, 0, 67, 116
1, 608879, Note_on_c, 0, 65, 110
1, 609367, Note_off_c, 0, 65, 110
1, 609396, Note_on_c, 0, 67, 120
1, 609728, Note_off_c, 0, 67, 120
1, 609786, Note_on_c, 0, 68, 114
1, 610391, Note_on_c, 0, 67, 117
1, 610391, Note_off_c, 0, 68, 114
1, 611026, Note_off_c, 0, 67, 117
1, 611045, Note_on_c, 0, 66, 117
1, 611660, Note_off_c, 0, 66, 117
1, 611747, Note_on_c, 0, 65, 118
1, 612323, Note_off_c, 0, 65, 118
1, 612381, Note_on_c, 0, 62, 119
1, 612957, Note_off_c, 0, 62, 119
1, 613015, Note_on_c, 0, 58, 104
1, 613591, Note_off_c, 0, 58, 104
1, 613727, Note_on_c, 0, 55, 104
1, 614156, Note_off_c, 0, 55, 104
1, 614273, Note_on_c, 0, 61, 113
1, 614986, Note_off_c, 0, 61, 113
1, 615054, Note_on_c, 0, 62, 110
1, 615542, Note_off_c, 0, 62, 110
1, 615581, Note_on_c, 0, 63, 112
1, 616128, Note_off_c, 0, 63, 112
1, 616235, Note_on_c, 0, 64, 109
1, 616645, Note_off_c, 0, 64, 109
1, 616781, Note_on_c, 0, 65, 118
1, 617445, Note_off_c, 0, 65, 118
1, 617503, Note_on_c, 0, 61, 114
1, 618294, Note_off_c, 0, 61, 114
1, 618356, Note_on_c, 0, 60, 107
1, 618679, Note_off_c, 0, 60, 107
1, 618779, Note_on_c, 0, 58, 106
1, 619185, Note_off_c, 0, 58, 106
1, 619425, Note_on_c, 0, 56, 103
1, 621242, Note_off_c, 0, 56, 103
1, 621427, Note_on_c, 0, 53, 106
1, 622023, Note_off_c, 0, 53, 106
1, 622062, Note_on_c, 0, 55, 109
1, 622697, Note_off_c, 0, 55, 109
1, 622872, Note_on_c, 0, 52, 98
1, 623419, Note_off_c, 0, 52, 98
1, 623692, Note_on_c, 0, 53, 96
1, 624248, Note_off_c, 0, 53, 96
1, 624414, Note_on_c, 0, 57, 103
1, 625117, Note_off_c, 0, 57, 103
1, 625224, Note_on_c, 0, 60, 96
1, 625634, Note_off_c, 0, 60, 96
1, 625702, Note_on_c, 0, 62, 121
1, 626337, Note_off_c, 0, 62, 121
1, 626434, Note_on_c, 0, 60, 100
1, 626873, Note_off_c, 0, 60, 100
1, 627000, Note_on_c, 0, 64, 117
1, 628084, Note_off_c, 0, 64, 117
1, 628084, Note_on_c, 0, 63, 122
1, 628787, Note_off_c, 0, 63, 122
1, 628884, Note_on_c, 0, 62, 118
1, 629362, Note_off_c, 0, 62, 118
1, 629391, Note_on_c, 0, 61, 113
1, 629860, Note_off_c, 0, 61, 113
1, 629918, Note_on_c, 0, 60, 113
1, 631188, Note_off_c, 0, 60, 113
1, 634647, Note_on_c, 0, 64, 121
1, 635135, Note_off_c, 0, 64, 121
1, 635203, Note_on_c, 0, 65, 115
1, 635461, Note_off_c, 0, 65, 115
1, 635578, Note_on_c, 0, 64, 123
1, 635944, Note_off_c, 0, 64, 123
1, 636036, Note_on_c, 0, 62, 125
1, 636597, Note_off_c, 0, 62, 125
1, 636597, Note_on_c, 0, 60, 116
1, 637212, Note_off_c, 0, 60, 116
1, 637290, Note_on_c, 0, 59, 109
1, 637827, Note_off_c, 0, 59, 109
1, 637856, Note_on_c, 0, 60, 112
1, 638432, Note_off_c, 0, 60, 112
1, 638519, Note_on_c, 0, 62, 115
1, 639124, Note_off_c, 0, 62, 115
1, 639163, Note_on_c, 0, 64, 111
1, 639641, Note_off_c, 0, 64, 111
1, 639787, Note_on_c, 0, 66, 118
1, 640519, Note_off_c, 0, 66, 118
1, 640567, Note_on_c, 0, 67, 115
1, 642110, Note_off_c, 0, 67, 115
1, 642217, Note_on_c, 0, 62, 121
1, 642988, Note_off_c, 0, 62, 121
1, 644942, Note_on_c, 0, 69, 126
1, 645538, Note_off_c, 0, 69, 126
1, 645557, Note_on_c, 0, 67, 119
1, 646035, Note_off_c, 0, 67, 119
1, 646259, Note_on_c, 0, 64, 122
1, 646943, Note_off_c, 0, 64, 122
1, 647001, Note_on_c, 0, 62, 122
1, 647509, Note_off_c, 0, 62, 122
1, 647624, Note_on_c, 0, 60, 114
1, 648061, Note_off_c, 0, 60, 114
1, 648147, Note_on_c, 0, 59, 107
1, 648609, Note_off_c, 0, 59, 107
1, 648718, Note_on_c, 0, 58, 110
1, 649274, Note_off_c, 0, 58, 110
1, 649322, Note_on_c, 0, 57, 104
1, 649918, Note_off_c, 0, 57, 104
1, 649966, Note_on_c, 0, 55, 110
1, 650483, Note_off_c, 0, 55, 110
1, 650551, Note_on_c, 0, 53, 107
1, 650990, Note_off_c, 0, 53, 107
1, 651058, Note_on_c, 0, 52, 106
1, 651448, Note_off_c, 0, 52, 106
1, 651672, Note_on_c, 0, 55, 99
1, 652033, Note_off_c, 0, 55, 99
1, 652140, Note_on_c, 0, 58, 106
1, 652843, Note_off_c, 0, 58, 106
1, 652901, Note_on_c, 0, 61, 112
1, 653780, Note_off_c, 0, 61, 112
1, 653838, Note_on_c, 0, 58, 96
1, 654228, Note_off_c, 0, 58, 96
1, 654247, Note_on_c, 0, 59, 100
1, 654686, Note_off_c, 0, 59, 100
1, 654725, Note_on_c, 0, 60, 113
1, 655506, Note_off_c, 0, 60, 113
1, 655525, Note_on_c, 0, 57, 100
1, 656023, Note_off_c, 0, 57, 100
1, 656130, Note_on_c, 0, 58, 108
1, 656706, Note_off_c, 0, 58, 108
1, 656774, Note_on_c, 0, 55, 95
1, 657125, Note_off_c, 0, 55, 95
1, 657339, Note_on_c, 0, 57, 104
1, 659000, Note_off_c, 0, 57, 104
1, 659166, Note_on_c, 0, 53, 102
1, 659674, Note_off_c, 0, 53, 102
1, 659801, Note_on_c, 0, 55, 113
1, 660465, Note_off_c, 0, 55, 113
1, 660504, Note_on_c, 0, 53, 109
1, 661090, Note_off_c, 0, 53, 109
1, 661090, Note_on_c, 0, 52, 104
1, 661637, Note_off_c, 0, 52, 104
1, 661656, Note_on_c, 0, 53, 100
1, 662154, Note_off_c, 0, 53, 100
1, 662281, Note_on_c, 0, 57, 110
1, 662925, Note_off_c, 0, 57, 110
1, 662964, Note_on_c, 0, 60, 102
1, 663315, Note_off_c, 0, 60, 102
1, 663461, Note_on_c, 0, 62, 118
1, 664193, Note_off_c, 0, 62, 118
1, 664261, Note_on_c, 0, 60, 100
1, 664651, Note_off_c, 0, 60, 100
1, 664934, Note_on_c, 0, 65, 115
1, 665530, Note_off_c, 0, 65, 115
1, 665578, Note_on_c, 0, 63, 119
1, 667160, Note_off_c, 0, 63, 119
1, 667335, Note_on_c, 0, 60, 108
1, 667833, Note_off_c, 0, 60, 108
1, 667989, Note_on_c, 0, 62, 119
1, 668555, Note_off_c, 0, 62, 119
1, 668623, Note_on_c, 0, 60, 113
1, 669307, Note_off_c, 0, 60, 113
1, 669394, Note_on_c, 0, 59, 108
1, 669794, Note_off_c, 0, 59, 108
1, 669881, Note_on_c, 0, 58, 104
1, 670359, Note_off_c, 0, 58, 104
1, 670466, Note_on_c, 0, 62, 114
1, 671062, Note_off_c, 0, 62, 114
1, 671110, Note_on_c, 0, 65, 107
1, 671598, Note_off_c, 0, 65, 107
1, 671685, Note_on_c, 0, 69, 103
1, 672134, Note_off_c, 0, 69, 103
1, 672241, Note_on_c, 0, 72, 115
1, 673061, Note_off_c, 0, 72, 115
1, 673070, Note_on_c, 0, 69, 115
1, 673988, Note_off_c, 0, 69, 115
1, 674896, Note_on_c, 0, 69, 120
1, 676019, Note_off_c, 0, 69, 120
1, 686230, Note_on_c, 0, 60, 95
1, 686484, Note_off_c, 0, 60, 95
1, 686513, Note_on_c, 0, 62, 103
1, 686708, Note_off_c, 0, 62, 103
1, 686708, Note_on_c, 0, 65, 105
1, 686981, Note_on_c, 0, 69, 100
1, 686981, Note_off_c, 0, 65, 105
1, 687567, Note_off_c, 0, 69, 100
1, 687596, Note_on_c, 0, 72, 118
1, 688328, Note_off_c, 0, 72, 118
1, 688733, Note_on_c, 0, 72, 114
1, 689485, Note_off_c, 0, 72, 114
1, 689607, Note_on_c, 0, 75, 116
1, 690266, Note_off_c, 0, 75, 116
1, 690300, Note_on_c, 0, 77, 118
1, 690954, Note_off_c, 0, 77, 118
1, 691354, Note_on_c, 0, 69, 119
1, 691920, Note_off_c, 0, 69, 119
1, 692276, Note_on_c, 0, 69, 120
1, 693047, Note_off_c, 0, 69, 120
1, 693081, Note_on_c, 0, 72, 112
1, 693686, Note_off_c, 0, 72, 112
1, 693832, Note_on_c, 0, 60, 100
1, 694379, Note_off_c, 0, 60, 100
1, 694681, Note_on_c, 0, 60, 105
1, 695316, Note_off_c, 0, 60, 105
1, 695462, Note_on_c, 0, 69, 123
1, 696165, Note_off_c, 0, 69, 123
1, 696174, Note_on_c, 0, 70, 117
1, 696613, Note_on_c, 0, 71, 114
1, 696613, Note_off_c, 0, 70, 117
1, 696740, Note_off_c, 0, 71, 114
1, 696759, Note_on_c, 0, 72, 114
1, 697110, Note_off_c, 0, 72, 114
1, 697129, Note_on_c, 0, 71, 112
1, 697295, Note_off_c, 0, 71, 112
1, 697295, Note_on_c, 0, 70, 116
1, 697871, Note_off_c, 0, 70, 116
1, 697900, Note_on_c, 0, 69, 120
1, 698632, Note_off_c, 0, 69, 120
1, 698651, Note_on_c, 0, 67, 116
1, 699256, Note_off_c, 0, 67, 116
1, 699295, Note_on_c, 0, 65, 118
1, 699920, Note_off_c, 0, 65, 118
1, 699998, Note_on_c, 0, 64, 112
1, 700574, Note_off_c, 0, 64, 112
1, 700701, Note_on_c, 0, 67, 119
1, 701257, Note_off_c, 0, 67, 119
1, 701257, Note_on_c, 0, 65, 117
1, 701872, Note_off_c, 0, 65, 117
1, 701930, Note_on_c, 0, 64, 114
1, 702506, Note_off_c, 0, 64, 114
1, 702564, Note_on_c, 0, 62, 111
1, 703081, Note_off_c, 0, 62, 111
1, 703149, Note_on_c, 0, 65, 119
1, 703823, Note_off_c, 0, 65, 119
1, 703862, Note_on_c, 0, 62, 117
1, 704516, Note_off_c, 0, 62, 117
1, 704545, Note_on_c, 0, 58, 107
1, 705150, Note_off_c, 0, 58, 107
1, 705208, Note_on_c, 0, 55, 102
1, 705618, Note_off_c, 0, 55, 102
1, 705637, Note_on_c, 0, 57, 96
1, 707679, Note_off_c, 0, 57, 96
1, 708108, Note_on_c, 0, 60, 116
1, 708909, Note_off_c, 0, 60, 116
1, 714517, Note_on_c, 0, 60, 115
1, 715670, Note_off_c, 0, 60, 115
1, 715728, Note_on_c, 0, 63, 125
1, 716187, Note_off_c, 0, 63, 125
1, 716187, Note_on_c, 0, 67, 117
1, 716538, Note_off_c, 0, 67, 117
1, 716538, Note_on_c, 0, 70, 107
1, 716899, Note_off_c, 0, 70, 107
1, 716899, Note_on_c, 0, 77, 115
1, 717768, Note_off_c, 0, 77, 115
1, 717885, Note_on_c, 0, 76, 124
1, 718256, Note_off_c, 0, 76, 124
1, 718363, Note_on_c, 0, 77, 106
1, 719828, Note_off_c, 0, 77, 106
1, 719896, Note_on_c, 0, 74, 117
1, 722182, Note_off_c, 0, 74, 117
1, 725494, Note_on_c, 0, 53, 110
1, 726461, Note_off_c, 0, 53, 110
1, 726578, Note_on_c, 0, 56, 108
1, 726880, Note_off_c, 0, 56, 108
1, 726958, Note_on_c, 0, 60, 111
1, 727202, Note_off_c, 0, 60, 111
1, 727319, Note_on_c, 0, 62, 117
1, 727729, Note_off_c, 0, 62, 117
1, 727738, Note_on_c, 0, 67, 116
1, 728148, Note_off_c, 0, 67, 116
1, 728169, Note_on_c, 0, 70, 110
1, 728415, Note_off_c, 0, 70, 110
1, 728547, Note_on_c, 0, 74, 117
1, 729543, Note_off_c, 0, 74, 117
1, 729562, Note_on_c, 0, 70, 115
1, 731711, Note_off_c, 0, 70, 115
1, 734885, Note_on_c, 0, 66, 119
1, 735336, Note_off_c, 0, 66, 119
1, 735433, Note_on_c, 0, 68, 118
1, 739629, Note_off_c, 0, 68, 118
1, 739662, Note_on_c, 0, 67, 119
1, 739964, Note_off_c, 0, 67, 119
1, 740051, Note_on_c, 0, 66, 119
1, 740314, Note_off_c, 0, 66, 119
1, 740411, Note_on_c, 0, 65, 120
1, 740704, Note_on_c, 0, 63, 125
1, 740704, Note_off_c, 0, 65, 120
1, 740928, Note_off_c, 0, 63, 125
1, 740986, Note_on_c, 0, 62, 125
1, 741318, Note_off_c, 0, 62, 125
1, 741396, Note_on_c, 0, 60, 112
1, 741708, Note_off_c, 0, 60, 112
1, 741756, Note_on_c, 0, 59, 107
1, 742283, Note_off_c, 0, 59, 107
1, 742331, Note_on_c, 0, 62, 115
1, 742702, Note_off_c, 0, 62, 115
1, 742731, Note_on_c, 0, 65, 116
1, 743082, Note_off_c, 0, 65, 116
1, 743082, Note_on_c, 0, 68, 118
1, 743590, Note_off_c, 0, 68, 118
1, 743590, Note_on_c, 0, 67, 119
1, 747811, Note_off_c, 0, 67, 119
1, 747928, Note_on_c, 0, 65, 119
1, 748993, Note_off_c, 0, 65, 119
1, 749090, Note_on_c, 0, 64, 122
1, 749969, Note_off_c, 0, 64, 122
1, 750017, Note_on_c, 0, 60, 115
1, 750945, Note_off_c, 0, 60, 115
1, 755068, Note_on_c, 0, 57, 111
1, 755869, Note_off_c, 0, 57, 111
1, 755908, Note_on_c, 0, 58, 108
1, 756191, Note_off_c, 0, 58, 108
1, 756269, Note_on_c, 0, 60, 112
1, 756601, Note_off_c, 0, 60, 112
1, 756601, Note_on_c, 0, 62, 115
1, 756737, Note_off_c, 0, 62, 115
1, 756844, Note_on_c, 0, 64, 123
1, 757019, Note_off_c, 0, 64, 123
1, 757194, Note_on_c, 0, 67, 119
1, 757584, Note_on_c, 0, 69, 120
1, 757584, Note_off_c, 0, 67, 119
1, 757935, Note_off_c, 0, 69, 120
1, 757954, Note_on_c, 0, 67, 118
1, 758129, Note_off_c, 0, 67, 118
1, 758129, Note_on_c, 0, 70, 119
1, 758334, Note_off_c, 0, 70, 119
1, 758343, Note_on_c, 0, 71, 120
1, 758890, Note_off_c, 0, 71, 120
1, 758958, Note_on_c, 0, 72, 116
1, 762964, Note_off_c, 0, 72, 116
1, 763149, Note_on_c, 0, 72, 115
1, 763451, Note_off_c, 0, 72, 115
1, 763470, Note_on_c, 0, 73, 115
1, 764828, Note_off_c, 0, 73, 115
1, 764857, Note_on_c, 0, 71, 113
1, 765091, Note_off_c, 0, 71, 113
1, 765149, Note_on_c, 0, 70, 117
1, 765598, Note_off_c, 0, 70, 117
1, 765695, Note_on_c, 0, 68, 118
1, 766232, Note_off_c, 0, 68, 118
1, 766271, Note_on_c, 0, 66, 117
1, 766583, Note_off_c, 0, 66, 117
1, 766660, Note_on_c, 0, 65, 119
1, 766994, Note_off_c, 0, 65, 119
1, 767041, Note_on_c, 0, 63, 125
1, 767463, Note_off_c, 0, 63, 125
1, 767499, Note_on_c, 0, 61, 117
1, 767899, Note_off_c, 0, 61, 117
1, 767899, Note_on_c, 0, 59, 111
1, 768524, Note_off_c, 0, 59, 111
1, 768602, Note_on_c, 0, 58, 109
1, 770663, Note_off_c, 0, 58, 109
1, 770770, Note_on_c, 0, 61, 107
1, 771048, Note_off_c, 0, 61, 107
1, 771101, Note_on_c, 0, 63, 118
1, 771423, Note_off_c, 0, 63, 118
1, 771559, Note_on_c, 0, 68, 119
1, 771881, Note_off_c, 0, 68, 119
1, 771949, Note_on_c, 0, 73, 112
1, 772418, Note_off_c, 0, 73, 112
1, 772427, Note_on_c, 0, 70, 117
1, 773658, Note_off_c, 0, 70, 117
1, 776424, Note_on_c, 0, 70, 117
1, 776872, Note_off_c, 0, 70, 117
1, 776913, Note_on_c, 0, 72, 116
1, 786779, Note_off_c, 0, 72, 116
1, 787423, Note_on_c, 0, 69, 123
1, 788312, Note_on_c, 0, 67, 118
1, 788312, Note_off_c, 0, 69, 123
1, 788976, Note_off_c, 0, 67, 118
1, 789157, Note_on_c, 0, 65, 107
1, 789525, Note_off_c, 0, 65, 107
1, 789629, Note_on_c, 0, 67, 118
1, 791436, Note_off_c, 0, 67, 118
1, 794679, Note_on_c, 0, 71, 111
1, 795068, Note_off_c, 0, 71, 111
1, 795148, Note_on_c, 0, 74, 112
1, 796652, Note_off_c, 0, 74, 112
1, 797062, Note_on_c, 0, 69, 123
1, 797824, Note_off_c, 0, 69, 123
1, 797833, Note_on_c, 0, 67, 119
1, 798536, Note_off_c, 0, 67, 119
1, 798623, Note_on_c, 0, 65, 104
1, 798945, Note_off_c, 0, 65, 104
1, 799257, Note_on_c, 0, 67, 119
1, 803693, Note_off_c, 0, 67, 119
1, 805500, Note_on_c, 0, 66, 118
1, 805793, Note_off_c, 0, 66, 118
1, 805802, Note_on_c, 0, 67, 119
1, 807912, Note_off_c, 0, 67, 119
1, 807931, Note_on_c, 0, 65, 108
1, 808644, Note_off_c, 0, 65, 108
1, 808700, Note_on_c, 0, 67, 106
1, 808855, Note_off_c, 0, 67, 106
1, 808902, Note_on_c, 0, 69, 107
1, 809064, Note_off_c, 0, 69, 107
1, 809083, Note_on_c, 0, 72, 114
1, 809283, Note_off_c, 0, 72, 114
1, 809324, Note_on_c, 0, 74, 114
1, 810481, Note_off_c, 0, 74, 114
1, 810481, Note_on_c, 0, 72, 114
1, 811537, Note_off_c, 0, 72, 114
1, 811856, Note_on_c, 0, 66, 120
1, 812106, Note_off_c, 0, 66, 120
1, 812140, Note_on_c, 0, 67, 117
1, 813133, Note_off_c, 0, 67, 117
1, 813160, Note_on_c, 0, 66, 117
1, 813563, Note_off_c, 0, 66, 117
1, 813674, Note_on_c, 0, 67, 120
1, 818121, Note_off_c, 0, 67, 120
1, 818239, Note_on_c, 0, 65, 101
1, 818801, Note_off_c, 0, 65, 101
1, 819085, Note_on_c, 0, 67, 119
1, 820565, Note_off_c, 0, 67, 119
1, 820578, Note_on_c, 0, 65, 118
1, 821523, Note_off_c, 0, 65, 118
1, 821543, Note_on_c, 0, 62, 117
1, 822175, Note_off_c, 0, 62, 117
1, 822223, Note_on_c, 0, 63, 119
1, 823042, Note_off_c, 0, 63, 119
1, 823055, Note_on_c, 0, 62, 106
1, 823312, Note_off_c, 0, 62, 106
1, 823374, Note_on_c, 0, 63, 121
1, 825917, Note_off_c, 0, 63, 121
1, 826069, Note_on_c, 0, 60, 114
1, 827097, Note_off_c, 0, 60, 114
1, 827145, Note_on_c, 0, 60, 108
1, 829021, Note_off_c, 0, 60, 108
1, 829076, Note_on_c, 0, 60, 107
1, 831223, Note_off_c, 0, 60, 107
1, 834196, Note_on_c, 0, 60, 110
1, 835002, Note_off_c, 0, 60, 110
1, 835057, Note_on_c, 0, 62, 110
1, 835703, Note_off_c, 0, 62, 110
1, 835737, Note_on_c, 0, 63, 112
1, 835924, Note_off_c, 0, 63, 112
1, 836014, Note_on_c, 0, 65, 107
1, 836340, Note_off_c, 0, 65, 107
1, 836645, Note_on_c, 0, 67, 112
1, 837624, Note_off_c, 0, 67, 112
1, 837686, Note_on_c, 0, 67, 118
1, 838387, Note_off_c, 0, 67, 118
1, 838512, Note_on_c, 0, 66, 115
1, 839241, Note_off_c, 0, 66, 115
1, 839477, Note_on_c, 0, 66, 115
1, 840338, Note_off_c, 0, 66, 115
1, 840456, Note_on_c, 0, 73, 114
1, 843124, Note_off_c, 0, 73, 114
1, 843436, Note_on_c, 0, 71, 114
1, 844123, Note_off_c, 0, 71, 114
1, 844185, Note_on_c, 0, 72, 110
1, 844949, Note_off_c, 0, 72, 110
1, 845623, Note_on_c, 0, 70, 113
1, 846276, Note_off_c, 0, 70, 113
1, 846421, Note_on_c, 0, 67, 102
1, 846865, Note_off_c, 0, 67, 102
1, 846892, Note_on_c, 0, 68, 116
1, 847670, Note_off_c, 0, 68, 116
1, 847927, Note_on_c, 0, 65, 114
1, 848601, Note_off_c, 0, 65, 114
1, 848642, Note_on_c, 0, 68, 116
1, 849232, Note_off_c, 0, 68, 116
1, 849315, Note_on_c, 0, 67, 118
1, 850002, Note_off_c, 0, 67, 118
1, 850002, Note_on_c, 0, 65, 119
1, 850523, Note_off_c, 0, 65, 119
1, 850578, Note_on_c, 0, 63, 83
1, 851154, Note_off_c, 0, 63, 83
1, 851154, Note_on_c, 0, 62, 121
1, 851751, Note_off_c, 0, 62, 121
1, 851834, Note_on_c, 0, 60, 114
1, 852521, Note_off_c, 0, 60, 114
1, 852521, Note_on_c, 0, 58, 104
1, 853181, Note_off_c, 0, 58, 104
1, 853181, Note_on_c, 0, 59, 104
1, 853646, Note_off_c, 0, 59, 104
1, 853826, Note_on_c, 0, 60, 117
1, 854381, Note_off_c, 0, 60, 117
1, 854485, Note_on_c, 0, 56, 110
1, 854978, Note_off_c, 0, 56, 110
1, 855033, Note_on_c, 0, 55, 110
1, 855505, Note_off_c, 0, 55, 110
1, 855630, Note_on_c, 0, 53, 113
1, 856227, Note_off_c, 0, 53, 113
1, 856345, Note_on_c, 0, 51, 103
1, 856810, Note_off_c, 0, 51, 103
1, 856810, Note_on_c, 0, 58, 109
1, 857629, Note_off_c, 0, 58, 109
1, 857656, Note_on_c, 0, 55, 101
1, 858065, Note_off_c, 0, 55, 101
1, 858071, Note_on_c, 0, 56, 111
1, 858626, Note_off_c, 0, 56, 111
1, 858626, Note_on_c, 0, 53, 103
1, 859195, Note_off_c, 0, 53, 103
1, 859243, Note_on_c, 0, 55, 114
1, 859944, Note_off_c, 0, 55, 114
1, 859985, Note_on_c, 0, 53, 115
1, 860582, Note_off_c, 0, 53, 115
1, 860595, Note_on_c, 0, 52, 107
1, 861095, Note_off_c, 0, 52, 107
1, 861095, Note_on_c, 0, 53, 97
1, 861470, Note_off_c, 0, 53, 97
1, 861650, Note_on_c, 0, 57, 111
1, 862462, Note_off_c, 0, 57, 111
1, 862462, Note_on_c, 0, 60, 103
1, 862871, Note_off_c, 0, 60, 103
1, 862989, Note_on_c, 0, 62, 121
1, 863732, Note_off_c, 0, 62, 121
1, 863773, Note_on_c, 0, 60, 104
1, 864155, Note_off_c, 0, 60, 104
1, 864203, Note_on_c, 0, 63, 121
1, 865439, Note_off_c, 0, 63, 121
1, 865473, Note_on_c, 0, 62, 116
1, 866140, Note_off_c, 0, 62, 116
1, 866202, Note_on_c, 0, 61, 115
1, 866799, Note_off_c, 0, 61, 115
1, 866861, Note_on_c, 0, 60, 117
1, 867555, Note_off_c, 0, 60, 117
1, 867575, Note_on_c, 0, 58, 110
1, 868151, Note_off_c, 0, 58, 110
1, 868199, Note_on_c, 0, 57, 107
1, 868845, Note_off_c, 0, 57, 107
1, 868935, Note_on_c, 0, 55, 111
1, 869539, Note_off_c, 0, 55, 111
1, 869594, Note_on_c, 0, 53, 108
1, 870219, Note_off_c, 0, 53, 108
1, 870281, Note_on_c, 0, 52, 100
1, 870586, Note_off_c, 0, 52, 100
1, 870613, Note_on_c, 0, 55, 111
1, 871516, Note_off_c, 0, 55, 111
1, 871654, Note_on_c, 0, 52, 98
1, 871924, Note_off_c, 0, 52, 98
1, 871930, Note_on_c, 0, 53, 111
1, 872458, Note_off_c, 0, 53, 111
1, 872506, Note_on_c, 0, 55, 110
1, 873277, Note_off_c, 0, 55, 110
1, 873332, Note_on_c, 0, 57, 99
1, 873818, Note_off_c, 0, 57, 99
1, 874457, Note_on_c, 0, 60, 113
1, 875228, Note_off_c, 0, 60, 113
1, 875339, Note_on_c, 0, 65, 118
1, 876110, Note_off_c, 0, 65, 118
1, 885733, Note_on_c, 0, 69, 116
1, 886379, Note_off_c, 0, 69, 116
1, 886455, Note_on_c, 0, 70, 115
1, 887059, Note_off_c, 0, 70, 115
1, 887191, Note_on_c, 0, 65, 116
1, 887830, Note_off_c, 0, 65, 116
1, 887830, Note_on_c, 0, 61, 118
1, 888330, Note_off_c, 0, 61, 118
1, 888343, Note_on_c, 0, 60, 112
1, 889051, Note_off_c, 0, 60, 112
1, 889099, Note_on_c, 0, 58, 97
1, 889613, Note_off_c, 0, 58, 97
1, 889696, Note_on_c, 0, 63, 126
1, 890411, Note_off_c, 0, 63, 126
1, 890417, Note_on_c, 0, 60, 108
1, 890778, Note_off_c, 0, 60, 108
1, 890840, Note_on_c, 0, 61, 110
1, 891354, Note_off_c, 0, 61, 110
1, 891388, Note_on_c, 0, 65, 102
1, 891652, Note_off_c, 0, 65, 102
1, 891735, Note_on_c, 0, 68, 99
1, 891943, Note_off_c, 0, 68, 99
1, 891977, Note_on_c, 0, 72, 114
1, 892310, Note_off_c, 0, 72, 114
1, 892351, Note_on_c, 0, 71, 117
1, 892552, Note_off_c, 0, 71, 117
1, 892635, Note_on_c, 0, 70, 115
1, 893614, Note_off_c, 0, 70, 115
1, 899416, Note_on_c, 0, 73, 121
1, 899924, Note_off_c, 0, 73, 121
1, 899987, Note_on_c, 0, 75, 122
1, 900539, Note_off_c, 0, 75, 122
1, 900721, Note_on_c, 0, 73, 114
1, 901367, Note_off_c, 0, 73, 114
1, 901467, Note_on_c, 0, 69, 94
1, 901571, Note_off_c, 0, 69, 94
1, 901602, Note_on_c, 0, 68, 116
1, 902296, Note_off_c, 0, 68, 116
1, 902296, Note_on_c, 0, 65, 117
1, 902441, Note_off_c, 0, 65, 117
1, 902454, Note_on_c, 0, 64, 123
1, 902822, Note_off_c, 0, 64, 123
1, 902901, Note_on_c, 0, 64, 122
1, 903116, Note_off_c, 0, 64, 122
1, 903116, Note_on_c, 0, 63, 122
1, 903657, Note_off_c, 0, 63, 122
1, 906057, Note_on_c, 0, 60, 98
1, 906557, Note_off_c, 0, 60, 98
1, 907307, Note_on_c, 0, 72, 117
1, 907828, Note_off_c, 0, 72, 117
1, 908196, Note_on_c, 0, 69, 120
1, 908883, Note_off_c, 0, 69, 120
1, 909834, Note_on_c, 0, 70, 120
1, 910626, Note_on_c, 0, 67, 116
1, 910626, Note_off_c, 0, 70, 120
1, 911425, Note_off_c, 0, 67, 116
1, 912126, Note_on_c, 0, 69, 123
1, 912890, Note_off_c, 0, 69, 123
1, 912966, Note_on_c, 0, 65, 120
1, 913688, Note_off_c, 0, 65, 120
1, 916863, Note_on_c, 0, 69, 126
1, 917502, Note_on_c, 0, 68, 120
1, 917502, Note_off_c, 0, 69, 126
1, 918009, Note_off_c, 0, 68, 120
1, 918050, Note_on_c, 0, 67, 120
1, 918828, Note_off_c, 0, 67, 120
1, 918841, Note_on_c, 0, 66, 120
1, 919341, Note_off_c, 0, 66, 120
1, 919361, Note_on_c, 0, 65, 119
1, 920021, Note_off_c, 0, 65, 119
1, 920076, Note_on_c, 0, 62, 120
1, 920701, Note_off_c, 0, 62, 120
1, 920784, Note_on_c, 0, 58, 110
1, 921242, Note_off_c, 0, 58, 110
1, 921360, Note_on_c, 0, 55, 106
1, 921839, Note_off_c, 0, 55, 106
1, 921929, Note_on_c, 0, 57, 108
1, 923325, Note_off_c, 0, 57, 108
1, 923498, Note_on_c, 0, 60, 103
1, 923713, Note_off_c, 0, 60, 103
1, 924008, Note_on_c, 0, 64, 99
1, 924306, Note_off_c, 0, 64, 99
1, 924483, Note_on_c, 0, 67, 121
1, 925372, Note_off_c, 0, 67, 121
1, 925441, Note_on_c, 0, 67, 121
1, 926559, Note_off_c, 0, 67, 121
1, 926670, Note_on_c, 0, 65, 105
1, 927114, Note_off_c, 0, 65, 105
1, 927329, Note_on_c, 0, 67, 118
1, 928322, Note_off_c, 0, 67, 118
1, 928349, Note_on_c, 0, 67, 122
1, 929161, Note_off_c, 0, 67, 122
1, 929230, Note_on_c, 0, 65, 108
1, 929723, Note_off_c, 0, 65, 108
1, 929848, Note_on_c, 0, 67, 120
1, 931383, Note_off_c, 0, 67, 120
1, 931528, Note_on_c, 0, 65, 114
1, 931861, Note_off_c, 0, 65, 114
1, 932333, Note_on_c, 0, 67, 120
1, 933229, Note_off_c, 0, 67, 120
1, 933270, Note_on_c, 0, 70, 119
1, 934340, Note_off_c, 0, 70, 119
1, 934826, Note_on_c, 0, 65, 121
1, 935722, Note_off_c, 0, 65, 121
1, 935826, Note_on_c, 0, 65, 117
1, 936694, Note_off_c, 0, 65, 117
1, 936721, Note_on_c, 0, 63, 113
1, 937290, Note_off_c, 0, 63, 113
1, 937331, Note_on_c, 0, 65, 120
1, 938171, Note_off_c, 0, 65, 120
1, 938275, Note_on_c, 0, 65, 120
1, 939053, Note_off_c, 0, 65, 120
1, 939178, Note_on_c, 0, 63, 115
1, 939671, Note_off_c, 0, 63, 115
1, 939782, Note_on_c, 0, 65, 120
1, 941331, Note_off_c, 0, 65, 120
1, 941393, Note_on_c, 0, 63, 118
1, 941921, Note_off_c, 0, 63, 118
1, 942233, Note_on_c, 0, 68, 118
1, 942886, Note_off_c, 0, 68, 118
1, 942913, Note_on_c, 0, 66, 120
1, 943468, Note_off_c, 0, 66, 120
1, 943509, Note_on_c, 0, 65, 120
1, 944085, Note_off_c, 0, 65, 120
1, 944119, Note_on_c, 0, 63, 127
1, 944737, Note_off_c, 0, 63, 127
1, 944737, Note_on_c, 0, 61, 118
1, 945424, Note_off_c, 0, 61, 118
1, 945465, Note_on_c, 0, 59, 112
1, 945861, Note_off_c, 0, 59, 112
1, 945881, Note_on_c, 0, 58, 113
1, 946416, Note_off_c, 0, 58, 113
1, 946686, Note_on_c, 0, 56, 114
1, 947200, Note_off_c, 0, 56, 114
1, 947241, Note_on_c, 0, 55, 113
1, 947810, Note_off_c, 0, 55, 113
1, 947858, Note_on_c, 0, 53, 114
1, 948393, Note_off_c, 0, 53, 114
1, 948483, Note_on_c, 0, 52, 101
1, 948886, Note_off_c, 0, 52, 101
1, 949011, Note_on_c, 0, 55, 106
1, 949163, Note_off_c, 0, 55, 106
1, 949329, Note_on_c, 0, 58, 102
1, 949495, Note_off_c, 0, 58, 102
1, 949585, Note_on_c, 0, 61, 120
1, 950328, Note_off_c, 0, 61, 120
1, 950328, Note_on_c, 0, 58, 104
1, 950828, Note_off_c, 0, 58, 104
1, 950848, Note_on_c, 0, 59, 106
1, 951271, Note_off_c, 0, 59, 106
1, 951271, Note_on_c, 0, 60, 114
1, 953195, Note_off_c, 0, 60, 114
1, 953278, Note_on_c, 0, 58, 113
1, 953958, Note_off_c, 0, 58, 113
1, 954027, Note_on_c, 0, 55, 105
1, 954492, Note_off_c, 0, 55, 105
1, 954754, Note_on_c, 0, 57, 111
1, 955608, Note_off_c, 0, 57, 111
1, 955734, Note_on_c, 0, 60, 98
1, 956192, Note_off_c, 0, 60, 98
1, 956376, Note_on_c, 0, 60, 97
1, 956779, Note_off_c, 0, 60, 97
1, 957227, Note_on_c, 0, 67, 117
1, 957866, Note_off_c, 0, 67, 117
1, 957886, Note_on_c, 0, 63, 109
1, 958219, Note_off_c, 0, 63, 109
1, 958309, Note_on_c, 0, 65, 119
1, 959010, Note_off_c, 0, 65, 119
1, 959058, Note_on_c, 0, 62, 112
1, 959523, Note_off_c, 0, 62, 112
1, 959543, Note_on_c, 0, 63, 118
1, 960467, Note_off_c, 0, 63, 118
1, 960640, Note_on_c, 0, 55, 105
1, 961036, Note_off_c, 0, 55, 105
1, 961056, Note_on_c, 0, 56, 103
1, 961403, Note_off_c, 0, 56, 103
1, 961479, Note_on_c, 0, 57, 105
1, 961916, Note_off_c, 0, 57, 105
1, 962089, Note_on_c, 0, 62, 117
1, 963965, Note_off_c, 0, 62, 117
1, 964097, Note_on_c, 0, 57, 100
1, 964534, Note_off_c, 0, 57, 100
1, 964714, Note_on_c, 0, 60, 118
1, 965381, Note_off_c, 0, 60, 118
1, 965471, Note_on_c, 0, 57, 103
1, 965978, Note_off_c, 0, 57, 103
1, 966075, Note_on_c, 0, 58, 94
1, 966575, Note_off_c, 0, 58, 94
1, 966651, Note_on_c, 0, 60, 114
1, 967373, Note_off_c, 0, 60, 114
1, 967373, Note_on_c, 0, 57, 107
1, 967928, Note_off_c, 0, 57, 107
1, 967928, Note_on_c, 0, 55, 107
1, 968553, Note_off_c, 0, 55, 107
1, 968650, Note_on_c, 0, 53, 108
1, 969275, Note_off_c, 0, 53, 108
1, 969386, Note_on_c, 0, 50, 95
1, 969907, Note_off_c, 0, 50, 95
1, 969990, Note_on_c, 0, 51, 104
1, 970469, Note_off_c, 0, 51, 104
1, 970663, Note_on_c, 0, 53, 114
1, 971128, Note_off_c, 0, 53, 114
1, 971169, Note_on_c, 0, 50, 108
1, 971669, Note_off_c, 0, 50, 108
1, 971787, Note_on_c, 0, 48, 110
1, 972377, Note_off_c, 0, 48, 110
1, 972453, Note_on_c, 0, 46, 109
1, 973161, Note_off_c, 0, 46, 109
1, 973341, Note_on_c, 0, 58, 110
1, 974272, Note_off_c, 0, 58, 110
1, 979726, Note_on_c, 0, 49, 111
1, 980330, Note_off_c, 0, 49, 111
1, 980531, Note_on_c, 0, 58, 97
1, 981024, Note_off_c, 0, 58, 97
1, 981100, Note_on_c, 0, 61, 110
1, 981850, Note_off_c, 0, 61, 110
1, 981898, Note_on_c, 0, 70, 109
1, 982669, Note_off_c, 0, 70, 109
1, 983217, Note_on_c, 0, 72, 111
1, 983633, Note_off_c, 0, 72, 111
1, 983667, Note_on_c, 0, 73, 113
1, 984229, Note_off_c, 0, 73, 113
1, 984319, Note_on_c, 0, 72, 111
1, 985069, Note_off_c, 0, 72, 111
1, 985214, Note_on_c, 0, 70, 113
1, 986020, Note_off_c, 0, 70, 113
1, 986033, Note_on_c, 0, 69, 117
1, 989403, Note_off_c, 0, 69, 117
1, 989403, Note_on_c, 0, 60, 107
1, 990209, Note_off_c, 0, 60, 107
1, 990306, Note_on_c, 0, 58, 104
1, 991112, Note_off_c, 0, 58, 104
1, 991181, Note_on_c, 0, 57, 106
1, 992362, Note_off_c, 0, 57, 106
1, 997448, Note_on_c, 0, 69, 114
1, 998059, Note_off_c, 0, 69, 114
1, 998121, Note_on_c, 0, 70, 114
1, 998746, Note_off_c, 0, 70, 114
1, 998752, Note_on_c, 0, 69, 115
1, 999446, Note_off_c, 0, 69, 115
1, 999473, Note_on_c, 0, 67, 116
1, 1000181, Note_off_c, 0, 67, 116
1, 1000222, Note_on_c, 0, 66, 115
1, 1000979, Note_off_c, 0, 66, 115
1, 1001048, Note_on_c, 0, 67, 105
1, 1001228, Note_off_c, 0, 67, 105
1, 1001311, Note_on_c, 0, 70, 110
1, 1001790, Note_off_c, 0, 70, 110
1, 1001845, Note_on_c, 0, 76, 120
1, 1002185, Note_off_c, 0, 76, 120
1, 1002212, Note_on_c, 0, 77, 116
1, 1003629, Note_off_c, 0, 77, 116
1, 1003761, Note_on_c, 0, 75, 121
1, 1004712, Note_off_c, 0, 75, 121
1, 1004850, Note_on_c, 0, 74, 115
1, 1006309, Note_off_c, 0, 74, 115
1, 1006413, Note_on_c, 0, 72, 108
1, 1007017, Note_off_c, 0, 72, 108
1, 1007065, Note_on_c, 0, 71, 111
1, 1007718, Note_off_c, 0, 71, 111
1, 1007801, Note_on_c, 0, 70, 114
1, 1009010, Note_off_c, 0, 70, 114
1, 1009169, Note_on_c, 0, 71, 112
1, 1009544, Note_off_c, 0, 71, 112
1, 1009564, Note_on_c, 0, 72, 114
1, 1011384, Note_off_c, 0, 72, 114
1, 1011418, Note_on_c, 0, 71, 117
1, 1011904, Note_off_c, 0, 71, 117
1, 1011938, Note_on_c, 0, 70, 116
1, 1012618, Note_off_c, 0, 70, 116
1, 1012645, Note_on_c, 0, 69, 120
1, 1014277, Note_off_c, 0, 69, 120
1, 1014659, Note_on_c, 0, 69, 119
1, 1014923, Note_off_c, 0, 69, 119
1, 1014950, Note_on_c, 0, 70, 117
1, 1016166, Note_off_c, 0, 70, 117
1, 1016228, Note_on_c, 0, 69, 115
1, 1016902, Note_off_c, 0, 69, 115
1, 1016943, Note_on_c, 0, 68, 120
1, 1017561, Note_off_c, 0, 68, 120
1, 1017630, Note_on_c, 0, 67, 120
1, 1018991, Note_off_c, 0, 67, 120
1, 1019095, Note_on_c, 0, 68, 119
1, 1019442, Note_off_c, 0, 68, 119
1, 1019518, Note_on_c, 0, 69, 118
1, 1023909, Note_off_c, 0, 69, 118
1, 1024492, Note_on_c, 0, 65, 116
1, 1025304, Note_off_c, 0, 65, 116
1, 1025561, Note_on_c, 0, 60, 114
1, 1026902, Note_off_c, 0, 60, 114
1, 1027235, Note_on_c, 0, 60, 108
1, 1029528, Note_off_c, 0, 60, 108
1, 1047330, Note_on_c, 0, 69, 122
1, 1048928, Note_off_c, 0, 69, 122
1, 1049615, Note_on_c, 0, 70, 117
1, 1050817, Note_off_c, 0, 70, 117
1, 1051261, Note_on_c, 0, 69, 125
1, 1053665, Note_off_c, 0, 69, 125
1, 1054401, Note_on_c, 0, 65, 119
1, 1055575, Note_off_c, 0, 65, 119
1, 1055943, Note_on_c, 0, 60, 110
1, 1057242, Note_off_c, 0, 60, 110
1, 1057596, Note_on_c, 0, 60, 116
1, 1059347, Note_off_c, 0, 60, 116
1, 1067643, Note_on_c, 0, 65, 117
1, 1068879, Note_off_c, 0, 65, 117
1, 1070032, Note_on_c, 0, 60, 113
1, 1071275, Note_off_c, 0, 60, 113
1, 1071323, Note_on_c, 0, 65, 120
1, 1072434, Note_off_c, 0, 65, 120
1, 1073330, Note_on_c, 0, 72, 117
1, 1074073, Note_off_c, 0, 72, 117
1, 1074073, Note_on_c, 0, 74, 118
1, 1075497, Note_off_c, 0, 74, 118
1, 1075758, Note_on_c, 0, 72, 116
1, 1079305, Note_off_c, 0, 72, 116
1, 1085926, Note_on_c, 0, 60, 116
1, 1086572, Note_off_c, 0, 60, 116
1, 1086766, Note_on_c, 0, 62, 102
1, 1087280, Note_off_c, 0, 62, 102
1, 1087356, Note_on_c, 0, 64, 107
1, 1087884, Note_off_c, 0, 64, 107
1, 1087897, Note_on_c, 0, 65, 109
1, 1088140, Note_off_c, 0, 65, 109
1, 1088140, Note_on_c, 0, 67, 104
1, 1088577, Note_off_c, 0, 67, 104
1, 1088646, Note_on_c, 0, 68, 116
1, 1089403, Note_off_c, 0, 68, 116
1, 1089854, Note_on_c, 0, 60, 105
1, 1090423, Note_off_c, 0, 60, 105
1, 1090485, Note_on_c, 0, 62, 114
1, 1090999, Note_off_c, 0, 62, 114
1, 1091054, Note_on_c, 0, 64, 116
1, 1091589, Note_off_c, 0, 64, 116
1, 1091644, Note_on_c, 0, 65, 113
1, 1092109, Note_off_c, 0, 65, 113
1, 1092115, Note_on_c, 0, 67, 108
1, 1092392, Note_off_c, 0, 67, 108
1, 1092419, Note_on_c, 0, 68, 118
1, 1093238, Note_off_c, 0, 68, 118
1, 1093835, Note_on_c, 0, 60, 111
1, 1094078, Note_off_c, 0, 60, 111
1, 1094119, Note_on_c, 0, 61, 107
1, 1094334, Note_off_c, 0, 61, 107
1, 1094389, Note_on_c, 0, 62, 106
1, 1094826, Note_off_c, 0, 62, 106
1, 1094853, Note_on_c, 0, 64, 111
1, 1095422, Note_off_c, 0, 64, 111
1, 1095477, Note_on_c, 0, 65, 105
1, 1095949, Note_off_c, 0, 65, 105
1, 1096213, Note_on_c, 0, 70, 117
1, 1096949, Note_off_c, 0, 70, 117
1, 1097352, Note_on_c, 0, 70, 119
1, 1098130, Note_off_c, 0, 70, 119
1, 1098164, Note_on_c, 0, 68, 118
1, 1098914, Note_off_c, 0, 68, 118
1, 1099330, Note_on_c, 0, 68, 119
1, 1100108, Note_off_c, 0, 68, 119
1, 1100198, Note_on_c, 0, 60, 115
1, 1101004, Note_off_c, 0, 60, 115
1, 1101386, Note_on_c, 0, 67, 116
1, 1101712, Note_off_c, 0, 67, 116
1, 1101718, Note_on_c, 0, 68, 119
1, 1101919, Note_off_c, 0, 68, 119
1, 1101939, Note_on_c, 0, 67, 120
1, 1102237, Note_off_c, 0, 67, 120
1, 1102285, Note_on_c, 0, 65, 120
1, 1102625, Note_off_c, 0, 65, 120
1, 1102729, Note_on_c, 0, 64, 123
1, 1103326, Note_off_c, 0, 64, 123
1, 1103381, Note_on_c, 0, 62, 121
1, 1103985, Note_off_c, 0, 62, 121
1, 1103985, Note_on_c, 0, 60, 115
1, 1104624, Note_off_c, 0, 60, 115
1, 1104651, Note_on_c, 0, 59, 109
1, 1105109, Note_off_c, 0, 59, 109
1, 1105213, Note_on_c, 0, 58, 107
1, 1105921, Note_off_c, 0, 58, 107
1, 1108818, Note_on_c, 0, 57, 112
1, 1109353, Note_off_c, 0, 57, 112
1, 1109436, Note_on_c, 0, 55, 109
1, 1110269, Note_off_c, 0, 55, 109
1, 1113583, Note_on_c, 0, 62, 123
1, 1114333, Note_off_c, 0, 62, 123
1, 1114513, Note_on_c, 0, 60, 112
1, 1115562, Note_off_c, 0, 60, 112
1, 1116097, Note_on_c, 0, 69, 124
1, 1116923, Note_off_c, 0, 69, 124
1, 1117061, Note_on_c, 0, 67, 118
1, 1118089, Note_off_c, 0, 67, 118
1, 1118089, Note_on_c, 0, 71, 111
1, 1118457, Note_off_c, 0, 71, 111
1, 1118495, Note_on_c, 0, 73, 119
1, 1118651, Note_off_c, 0, 73, 119
1, 1118699, Note_on_c, 0, 74, 118
1, 1119539, Note_off_c, 0, 74, 118
1, 1119671, Note_on_c, 0, 72, 116
1, 1121130, Note_off_c, 0, 72, 116
1, 1126028, Note_on_c, 0, 71, 116
1, 1126514, Note_off_c, 0, 71, 116
1, 1126569, Note_on_c, 0, 72, 113
1, 1127805, Note_off_c, 0, 72, 113
1, 1128756, Note_on_c, 0, 71, 114
1, 1129332, Note_off_c, 0, 71, 114
1, 1129359, Note_on_c, 0, 72, 114
1, 1130755, Note_off_c, 0, 72, 114
1, 1131296, Note_on_c, 0, 70, 121
1, 1131831, Note_off_c, 0, 70, 121
1, 1131872, Note_on_c, 0, 71, 118
1, 1132261, Note_off_c, 0, 71, 118
1, 1132309, Note_on_c, 0, 70, 119
1, 1132816, Note_off_c, 0, 70, 119
1, 1132934, Note_on_c, 0, 68, 119
1, 1133851, Note_off_c, 0, 68, 119
1, 1133996, Note_on_c, 0, 65, 121
1, 1135420, Note_off_c, 0, 65, 121
1, 1135565, Note_on_c, 0, 63, 115
1, 1136419, Note_off_c, 0, 63, 115
1, 1136613, Note_on_c, 0, 65, 9
1, 1138516, Note_off_c, 0, 65, 9
1, 1138641, Note_on_c, 0, 63, 92
1, 1138939, Note_off_c, 0, 63, 92
1, 1139001, Note_on_c, 0, 65, 120
1, 1140689, Note_off_c, 0, 65, 120
1, 1140827, Note_on_c, 0, 65, 119
1, 1142237, Note_off_c, 0, 65, 119
1, 1142424, Note_on_c, 0, 63, 94
1, 1142833, Note_off_c, 0, 63, 94
1, 1142923, Note_on_c, 0, 65, 120
1, 1143923, Note_off_c, 0, 65, 120
1, 1144099, Note_on_c, 0, 68, 119
1, 1145328, Note_off_c, 0, 68, 119
1, 1145784, Note_on_c, 0, 60, 96
1, 1146381, Note_off_c, 0, 60, 96
1, 1146561, Note_on_c, 0, 65, 118
1, 1148777, Note_off_c, 0, 65, 118
1, 1149110, Note_on_c, 0, 65, 119
1, 1150874, Note_off_c, 0, 65, 119
1, 1151610, Note_on_c, 0, 68, 122
1, 1152561, Note_off_c, 0, 68, 122
1, 1152574, Note_on_c, 0, 70, 112
1, 1152796, Note_off_c, 0, 70, 112
1, 1152844, Note_on_c, 0, 68, 119
1, 1153379, Note_off_c, 0, 68, 119
1, 1153385, Note_on_c, 0, 65, 118
1, 1154378, Note_off_c, 0, 65, 118
1, 1154482, Note_on_c, 0, 63, 126
1, 1155767, Note_off_c, 0, 63, 126
1, 1155787, Note_on_c, 0, 60, 117
1, 1156773, Note_off_c, 0, 60, 117
1, 1156911, Note_on_c, 0, 59, 109
1, 1158662, Note_off_c, 0, 59, 109
1, 1159065, Note_on_c, 0, 59, 109
1, 1160426, Note_off_c, 0, 59, 109
1, 1160460, Note_on_c, 0, 58, 111
1, 1161537, Note_off_c, 0, 58, 111
1, 1161620, Note_on_c, 0, 59, 106
1, 1161918, Note_off_c, 0, 59, 106
1, 1162050, Note_on_c, 0, 58, 108
1, 1162862, Note_off_c, 0, 58, 108
1, 1163049, Note_on_c, 0, 56, 112
1, 1163973, Note_off_c, 0, 56, 112
1, 1164111, Note_on_c, 0, 53, 110
1, 1165910, Note_off_c, 0, 53, 110
1, 1166000, Note_on_c, 0, 51, 101
1, 1166618, Note_off_c, 0, 51, 101
1, 1166701, Note_on_c, 0, 53, 104
1, 1169216, Note_off_c, 0, 53, 104
1, 1169216, End_track
0, 0, End_of_file
