0, 0, Header, 1, 1, 192
1, 0, Start_track
1, 0, Title_t, "Melody"
1, 0, Tempo, 645161
1, 0, Key_signature, 0, "major"
1, 0, Time_signature, 4, 2, 24, 8
1, 1129, Note_on_c, 0, 60, 112
1, 1173, Note_off_c, 0, 60, 112
1, 1205, Note_on_c, 0, 52, 106
1, 1251, Note_off_c, 0, 52, 106
1, 1255, Note_on_c, 0, 55, 105
1, 1298, Note_off_c, 0, 55, 105
1, 1307, Note_on_c, 0, 59, 103
1, 1342, Note_off_c, 0, 59, 103
1, 1357, Note_on_c, 0, 62, 114
1, 1397, Note_off_c, 0, 62, 114
1, 1400, Note_on_c, 0, 60, 110
1, 1438, Note_off_c, 0, 60, 110
1, 1440, Note_on_c, 0, 59, 102
1, 1482, Note_off_c, 0, 59, 102
1, 1488, Note_on_c, 0, 57, 97
1, 1529, Note_off_c, 0, 57, 97
1, 1531, Note_on_c, 0, 52, 97
1, 1566, Note_off_c, 0, 52, 97
1, 1566, Note_on_c, 0, 53, 110
1, 1633, Note_off_c, 0, 53, 110
1, 1633, Note_on_c, 0, 55, 98
1, 1741, Note_off_c, 0, 55, 98
1, 1760, Note_on_c, 0, 52, 103
1, 1806, Note_off_c, 0, 52, 103
1, 1811, Note_on_c, 0, 55, 112
1, 1848, Note_off_c, 0, 55, 112
1, 1856, Note_on_c, 0, 54, 105
1, 1900, Note_off_c, 0, 54, 105
1, 1911, Note_on_c, 0, 50, 99
1, 1948, Note_off_c, 0, 50, 99
1, 1950, Note_on_c, 0, 52, 102
1, 1990, Note_off_c, 0, 52, 102
1, 1999, Note_on_c, 0, 54, 106
1, 2036, Note_off_c, 0, 54, 106
1, 2042, Note_on_c, 0, 55, 108
1, 2095, Note_off_c, 0, 55, 108
1, 2095, Note_on_c, 0, 57, 107
1, 2132, Note_off_c, 0, 57, 107
1, 2135, Note_on_c, 0, 59, 105
1, 2172, Note_off_c, 0, 59, 105
1, 2182, Note_on_c, 0, 60, 115
1, 2220, Note_off_c, 0, 60, 115
1, 2226, Note_on_c, 0, 62, 117
1, 2284, Note_off_c, 0, 62, 117
1, 2294, Note_on_c, 0, 57, 93
1, 2396, Note_off_c, 0, 57, 93
1, 2614, Note_on_c, 0, 57, 112
1, 2655, Note_off_c, 0, 57, 112
1, 2668, Note_on_c, 0, 50, 106
1, 2706, Note_off_c, 0, 50, 106
1, 2709, Note_on_c, 0, 52, 108
1, 2757, Note_off_c, 0, 52, 108
1, 2760, Note_on_c, 0, 53, 108
1, 2810, Note_off_c, 0, 53, 108
1, 2819, Note_on_c, 0, 55, 111
1, 2882, Note_off_c, 0, 55, 111
1, 2892, Note_on_c, 0, 57, 114
1, 2939, Note_off_c, 0, 57, 114
1, 2946, Note_on_c, 0, 51, 112
1, 3025, Note_off_c, 0, 51, 112
1, 3031, Note_on_c, 0, 48, 95
1, 3072, Note_off_c, 0, 48, 95
1, 3080, Note_on_c, 0, 49, 102
1, 3121, Note_off_c, 0, 49, 102
1, 3123, Note_on_c, 0, 51, 115
1, 3166, Note_off_c, 0, 51, 115
1, 3169, Note_on_c, 0, 53, 116
1, 3226, Note_off_c, 0, 53, 116
1, 3230, Note_on_c, 0, 56, 103
1, 3333, Note_off_c, 0, 56, 103
1, 3345, Note_on_c, 0, 52, 108
1, 3403, Note_off_c, 0, 52, 108
1, 3406, Note_on_c, 0, 55, 108
1, 3445, Note_off_c, 0, 55, 108
1, 3449, Note_on_c, 0, 59, 110
1, 3494, Note_off_c, 0, 59, 110
1, 3500, Note_on_c, 0, 62, 121
1, 3548, Note_off_c, 0, 62, 121
1, 3554, Note_on_c, 0, 61, 120
1, 3597, Note_off_c, 0, 61, 120
1, 3597, Note_on_c, 0, 58, 107
1, 3637, Note_off_c, 0, 58, 107
1, 3649, Note_on_c, 0, 53, 112
1, 3711, Note_off_c, 0, 53, 112
1, 3736, Note_on_c, 0, 60, 116
1, 3781, Note_off_c, 0, 60, 116
1, 3792, Note_on_c, 0, 57, 109
1, 3827, Note_off_c, 0, 57, 109
1, 3833, Note_on_c, 0, 53, 113
1, 3876, Note_off_c, 0, 53, 113
1, 3876, Note_on_c, 0, 50, 111
1, 3915, Note_off_c, 0, 50, 111
1, 3917, Note_on_c, 0, 47, 97
1, 3966, Note_off_c, 0, 47, 97
1, 3972, Note_on_c, 0, 50, 90
1, 4010, Note_off_c, 0, 50, 90
1, 4024, Note_on_c, 0, 53, 115
1, 4081, Note_off_c, 0, 53, 115
1, 4082, Note_on_c, 0, 56, 109
1, 4120, Note_off_c, 0, 56, 109
1, 4126, Note_on_c, 0, 55, 114
1, 4162, Note_off_c, 0, 55, 114
1, 4166, Note_on_c, 0, 52, 107
1, 4219, Note_off_c, 0, 52, 107
1, 4220, Note_on_c, 0, 55, 114
1, 4264, Note_off_c, 0, 55, 114
1, 4270, Note_on_c, 0, 59, 112
1, 4304, Note_off_c, 0, 59, 112
1, 4310, Note_on_c, 0, 62, 124
1, 4374, Note_off_c, 0, 62, 124
1, 4380, Note_on_c, 0, 60, 105
1, 4504, Note_off_c, 0, 60, 105
1, 4659, Note_on_c, 0, 63, 122
1, 4733, Note_off_c, 0, 63, 122
1, 4738, Note_on_c, 0, 60, 122
1, 4779, Note_off_c, 0, 60, 122
1, 4786, Note_on_c, 0, 55, 111
1, 4832, Note_off_c, 0, 55, 111
1, 4835, Note_on_c, 0, 51, 108
1, 4869, Note_off_c, 0, 51, 108
1, 4871, Note_on_c, 0, 54, 103
1, 4964, Note_off_c, 0, 54, 103
1, 4967, Note_on_c, 0, 50, 105
1, 5010, Note_off_c, 0, 50, 105
1, 5016, Note_on_c, 0, 54, 108
1, 5065, Note_off_c, 0, 54, 108
1, 5080, Note_on_c, 0, 57, 118
1, 5123, Note_off_c, 0, 57, 118
1, 5148, Note_on_c, 0, 58, 116
1, 5194, Note_off_c, 0, 58, 116
1, 5197, Note_on_c, 0, 55, 118
1, 5241, Note_off_c, 0, 55, 118
1, 5249, Note_on_c, 0, 51, 113
1, 5299, Note_off_c, 0, 51, 113
1, 5301, Note_on_c, 0, 49, 90
1, 5340, Note_off_c, 0, 49, 90
1, 5345, Note_on_c, 0, 50, 105
1, 5395, Note_off_c, 0, 50, 105
1, 5401, Note_on_c, 0, 52, 110
1, 5442, Note_off_c, 0, 52, 110
1, 5448, Note_on_c, 0, 54, 109
1, 5495, Note_off_c, 0, 54, 109
1, 5499, Note_on_c, 0, 55, 115
1, 5543, Note_off_c, 0, 55, 115
1, 5549, Note_on_c, 0, 57, 118
1, 5599, Note_off_c, 0, 57, 118
1, 5601, Note_on_c, 0, 54, 104
1, 5621, Note_off_c, 0, 54, 104
1, 5625, Note_on_c, 0, 55, 105
1, 5706, Note_off_c, 0, 55, 105
1, 5718, Note_on_c, 0, 53, 99
1, 5774, Note_off_c, 0, 53, 99
1, 5778, Note_on_c, 0, 55, 115
1, 5824, Note_off_c, 0, 55, 115
1, 5825, Note_on_c, 0, 59, 113
1, 5863, Note_off_c, 0, 59, 113
1, 5868, Note_on_c, 0, 62, 124
1, 5911, Note_off_c, 0, 62, 124
1, 5919, Note_on_c, 0, 60, 124
1, 5966, Note_off_c, 0, 60, 124
1, 5972, Note_on_c, 0, 61, 123
1, 6012, Note_off_c, 0, 61, 123
1, 6018, Note_on_c, 0, 63, 127
1, 6055, Note_off_c, 0, 63, 127
1, 6061, Note_on_c, 0, 65, 121
1, 6102, Note_off_c, 0, 65, 121
1, 6106, Note_on_c, 0, 66, 121
1, 6163, Note_off_c, 0, 66, 121
1, 6166, Note_on_c, 0, 68, 119
1, 6258, Note_off_c, 0, 68, 119
1, 6433, Note_on_c, 0, 67, 122
1, 6455, Note_off_c, 0, 67, 122
1, 6458, Note_on_c, 0, 66, 121
1, 6482, Note_off_c, 0, 66, 121
1, 6484, Note_on_c, 0, 64, 126
1, 6536, Note_off_c, 0, 64, 126
1, 6539, Note_on_c, 0, 62, 126
1, 6581, Note_off_c, 0, 62, 126
1, 6582, Note_on_c, 0, 60, 122
1, 6633, Note_off_c, 0, 60, 122
1, 6636, Note_on_c, 0, 59, 111
1, 6676, Note_off_c, 0, 59, 111
1, 6685, Note_on_c, 0, 57, 114
1, 6726, Note_off_c, 0, 57, 114
1, 6729, Note_on_c, 0, 55, 111
1, 6778, Note_off_c, 0, 55, 111
1, 6784, Note_on_c, 0, 53, 117
1, 6833, Note_off_c, 0, 53, 117
1, 6839, Note_on_c, 0, 52, 104
1, 6860, Note_off_c, 0, 52, 104
1, 6868, Note_on_c, 0, 55, 114
1, 6929, Note_off_c, 0, 55, 114
1, 6930, Note_on_c, 0, 50, 103
1, 6968, Note_off_c, 0, 50, 103
1, 6970, Note_on_c, 0, 51, 116
1, 7022, Note_off_c, 0, 51, 116
1, 7028, Note_on_c, 0, 54, 112
1, 7066, Note_off_c, 0, 54, 112
1, 7072, Note_on_c, 0, 57, 116
1, 7115, Note_off_c, 0, 57, 116
1, 7116, Note_on_c, 0, 62, 123
1, 7162, Note_off_c, 0, 62, 123
1, 7165, Note_on_c, 0, 60, 121
1, 7217, Note_off_c, 0, 60, 121
1, 7221, Note_on_c, 0, 55, 102
1, 7258, Note_off_c, 0, 55, 102
1, 7266, Note_on_c, 0, 57, 110
1, 7308, Note_off_c, 0, 57, 110
1, 7312, Note_on_c, 0, 58, 110
1, 7356, Note_off_c, 0, 58, 110
1, 7361, Note_on_c, 0, 60, 121
1, 7403, Note_off_c, 0, 60, 121
1, 7408, Note_on_c, 0, 62, 123
1, 7453, Note_off_c, 0, 62, 123
1, 7457, Note_on_c, 0, 58, 113
1, 7499, Note_off_c, 0, 58, 113
1, 7501, Note_on_c, 0, 55, 110
1, 7550, Note_off_c, 0, 55, 110
1, 7554, Note_on_c, 0, 53, 105
1, 7634, Note_off_c, 0, 53, 105
1, 7648, Note_on_c, 0, 50, 105
1, 7689, Note_off_c, 0, 50, 105
1, 7689, Note_on_c, 0, 53, 117
1, 7729, Note_off_c, 0, 53, 117
1, 7732, Note_on_c, 0, 52, 106
1, 7779, Note_off_c, 0, 52, 106
1, 7784, Note_on_c, 0, 61, 122
1, 7823, Note_off_c, 0, 61, 122
1, 7825, Note_on_c, 0, 60, 118
1, 7874, Note_off_c, 0, 60, 118
1, 7883, Note_on_c, 0, 58, 108
1, 7925, Note_off_c, 0, 58, 108
1, 7930, Note_on_c, 0, 57, 99
1, 8025, Note_off_c, 0, 57, 99
1, 8210, Note_on_c, 0, 57, 117
1, 8259, Note_off_c, 0, 57, 117
1, 8265, Note_on_c, 0, 58, 117
1, 8298, Note_off_c, 0, 58, 117
1, 8302, Note_on_c, 0, 60, 120
1, 8351, Note_off_c, 0, 60, 120
1, 8357, Note_on_c, 0, 62, 124
1, 8395, Note_off_c, 0, 62, 124
1, 8396, Note_on_c, 0, 64, 123
1, 8449, Note_off_c, 0, 64, 123
1, 8453, Note_on_c, 0, 65, 123
1, 8488, Note_off_c, 0, 65, 123
1, 8494, Note_on_c, 0, 67, 122
1, 8547, Note_off_c, 0, 67, 122
1, 8548, Note_on_c, 0, 64, 117
1, 8582, Note_off_c, 0, 64, 117
1, 8586, Note_on_c, 0, 65, 120
1, 8635, Note_off_c, 0, 65, 120
1, 8642, Note_on_c, 0, 67, 120
1, 8687, Note_off_c, 0, 67, 120
1, 8723, Note_on_c, 0, 67, 121
1, 8747, Note_off_c, 0, 67, 121
1, 8748, Note_on_c, 0, 69, 119
1, 8845, Note_off_c, 0, 69, 119
1, 8845, Note_on_c, 0, 67, 119
1, 8872, Note_off_c, 0, 67, 119
1, 8873, Note_on_c, 0, 66, 115
1, 8891, Note_off_c, 0, 66, 115
1, 8895, Note_on_c, 0, 64, 110
1, 9012, Note_off_c, 0, 64, 110
1, 9148, Note_on_c, 0, 57, 111
1, 9185, Note_off_c, 0, 57, 111
1, 9188, Note_on_c, 0, 60, 116
1, 9233, Note_off_c, 0, 60, 116
1, 9237, Note_on_c, 0, 64, 124
1, 9288, Note_off_c, 0, 64, 124
1, 9293, Note_on_c, 0, 67, 115
1, 9339, Note_off_c, 0, 67, 115
1, 9342, Note_on_c, 0, 71, 118
1, 9406, Note_off_c, 0, 71, 118
1, 9410, Note_on_c, 0, 69, 109
1, 9518, Note_off_c, 0, 69, 109
1, 9528, Note_on_c, 0, 62, 118
1, 9570, Note_off_c, 0, 62, 118
1, 9577, Note_on_c, 0, 64, 117
1, 9618, Note_off_c, 0, 64, 117
1, 9621, Note_on_c, 0, 65, 121
1, 9666, Note_off_c, 0, 65, 121
1, 9673, Note_on_c, 0, 67, 118
1, 9712, Note_off_c, 0, 67, 118
1, 9715, Note_on_c, 0, 69, 117
1, 9756, Note_off_c, 0, 69, 117
1, 9759, Note_on_c, 0, 64, 121
1, 9805, Note_off_c, 0, 64, 121
1, 9826, Note_on_c, 0, 68, 117
1, 9852, Note_off_c, 0, 68, 117
1, 9854, Note_on_c, 0, 67, 119
1, 9871, Note_off_c, 0, 67, 119
1, 9874, Note_on_c, 0, 65, 119
1, 9909, Note_off_c, 0, 65, 119
1, 9912, Note_on_c, 0, 63, 124
1, 9963, Note_off_c, 0, 63, 124
1, 9967, Note_on_c, 0, 61, 122
1, 10006, Note_off_c, 0, 61, 122
1, 10010, Note_on_c, 0, 60, 118
1, 10036, Note_off_c, 0, 60, 118
1, 10037, Note_on_c, 0, 61, 115
1, 10055, Note_off_c, 0, 61, 115
1, 10061, Note_on_c, 0, 58, 109
1, 10099, Note_off_c, 0, 58, 109
1, 10102, Note_on_c, 0, 56, 107
1, 10155, Note_off_c, 0, 56, 107
1, 10158, Note_on_c, 0, 54, 105
1, 10192, Note_off_c, 0, 54, 105
1, 10197, Note_on_c, 0, 55, 101
1, 10251, Note_off_c, 0, 55, 101
1, 10558, Note_on_c, 0, 66, 121
1, 10584, Note_off_c, 0, 66, 121
1, 10586, Note_on_c, 0, 67, 113
1, 10644, Note_off_c, 0, 67, 113
1, 10664, Note_on_c, 0, 67, 115
1, 10725, Note_off_c, 0, 67, 115
1, 10735, Note_on_c, 0, 67, 115
1, 10793, Note_off_c, 0, 67, 115
1, 10810, Note_on_c, 0, 60, 88
1, 10828, Note_off_c, 0, 60, 88
1, 10830, Note_on_c, 0, 72, 115
1, 11269, Note_off_c, 0, 72, 115
1, 11281, Note_on_c, 0, 67, 117
1, 11353, Note_off_c, 0, 67, 117
1, 11391, Note_on_c, 0, 71, 115
1, 11635, Note_off_c, 0, 71, 115
1, 11656, Note_on_c, 0, 67, 114
1, 11699, Note_off_c, 0, 67, 114
1, 11717, Note_on_c, 0, 71, 111
1, 11732, Note_off_c, 0, 71, 111
1, 11734, Note_on_c, 0, 69, 117
1, 11758, Note_off_c, 0, 69, 117
1, 11761, Note_on_c, 0, 65, 117
1, 11807, Note_off_c, 0, 65, 117
1, 11810, Note_on_c, 0, 62, 123
1, 11856, Note_off_c, 0, 62, 123
1, 11859, Note_on_c, 0, 60, 105
1, 11894, Note_off_c, 0, 60, 105
1, 11897, Note_on_c, 0, 67, 119
1, 11962, Note_off_c, 0, 67, 119
1, 11964, Note_on_c, 0, 65, 115
1, 12080, Note_off_c, 0, 65, 115
1, 12285, Note_on_c, 0, 63, 119
1, 12340, Note_off_c, 0, 63, 119
1, 12372, Note_on_c, 0, 67, 120
1, 12433, Note_off_c, 0, 67, 120
1, 12445, Note_on_c, 0, 72, 117
1, 12501, Note_off_c, 0, 72, 117
1, 12531, Note_on_c, 0, 72, 116
1, 12589, Note_off_c, 0, 72, 116
1, 12608, Note_on_c, 0, 72, 116
1, 12662, Note_off_c, 0, 72, 116
1, 12677, Note_on_c, 0, 69, 119
1, 12709, Note_off_c, 0, 69, 119
1, 12709, Note_on_c, 0, 70, 112
1, 12744, Note_off_c, 0, 70, 112
1, 12748, Note_on_c, 0, 67, 113
1, 12860, Note_off_c, 0, 67, 113
1, 13175, Note_on_c, 0, 67, 96
1, 13202, Note_off_c, 0, 67, 96
1, 13226, Note_on_c, 0, 70, 118
1, 13266, Note_off_c, 0, 70, 118
1, 13276, Note_on_c, 0, 70, 116
1, 13310, Note_off_c, 0, 70, 116
1, 13319, Note_on_c, 0, 69, 121
1, 13369, Note_off_c, 0, 69, 121
1, 13374, Note_on_c, 0, 70, 99
1, 13411, Note_off_c, 0, 70, 99
1, 13432, Note_on_c, 0, 72, 114
1, 13488, Note_off_c, 0, 72, 114
1, 13501, Note_on_c, 0, 67, 113
1, 13542, Note_off_c, 0, 67, 113
1, 13568, Note_on_c, 0, 69, 119
1, 13584, Note_off_c, 0, 69, 119
1, 13586, Note_on_c, 0, 70, 112
1, 13624, Note_off_c, 0, 70, 112
1, 13667, Note_on_c, 0, 67, 112
1, 13737, Note_off_c, 0, 67, 112
1, 13965, Note_on_c, 0, 69, 113
1, 14017, Note_off_c, 0, 69, 113
1, 14018, Note_on_c, 0, 70, 114
1, 14033, Note_off_c, 0, 70, 114
1, 14034, Note_on_c, 0, 69, 112
1, 14057, Note_off_c, 0, 69, 112
1, 14058, Note_on_c, 0, 66, 111
1, 14111, Note_off_c, 0, 66, 111
1, 14112, Note_on_c, 0, 67, 114
1, 14150, Note_off_c, 0, 67, 114
1, 14153, Note_on_c, 0, 69, 112
1, 14203, Note_off_c, 0, 69, 112
1, 14206, Note_on_c, 0, 66, 116
1, 14247, Note_off_c, 0, 66, 116
1, 14247, Note_on_c, 0, 62, 94
1, 14298, Note_off_c, 0, 62, 94
1, 14302, Note_on_c, 0, 64, 114
1, 14344, Note_off_c, 0, 64, 114
1, 14344, Note_on_c, 0, 66, 115
1, 14398, Note_off_c, 0, 66, 115
1, 14400, Note_on_c, 0, 62, 108
1, 14479, Note_off_c, 0, 62, 108
1, 14709, Note_on_c, 0, 62, 114
1, 14748, Note_off_c, 0, 62, 114
1, 14749, Note_on_c, 0, 64, 118
1, 14777, Note_off_c, 0, 64, 118
1, 14781, Note_on_c, 0, 65, 103
1, 14807, Note_off_c, 0, 65, 103
1, 14813, Note_on_c, 0, 69, 116
1, 14842, Note_off_c, 0, 69, 116
1, 14845, Note_on_c, 0, 64, 114
1, 14885, Note_off_c, 0, 64, 114
1, 14888, Note_on_c, 0, 62, 102
1, 14915, Note_off_c, 0, 62, 102
1, 14921, Note_on_c, 0, 68, 113
1, 14951, Note_off_c, 0, 68, 113
1, 14951, Note_on_c, 0, 64, 118
1, 14968, Note_off_c, 0, 64, 118
1, 14972, Note_on_c, 0, 62, 114
1, 14992, Note_off_c, 0, 62, 114
1, 14995, Note_on_c, 0, 60, 94
1, 15011, Note_off_c, 0, 60, 94
1, 15017, Note_on_c, 0, 67, 115
1, 15045, Note_off_c, 0, 67, 115
1, 15045, Note_on_c, 0, 64, 109
1, 15080, Note_off_c, 0, 64, 109
1, 15082, Note_on_c, 0, 65, 106
1, 15097, Note_off_c, 0, 65, 106
1, 15099, Note_on_c, 0, 67, 112
1, 15110, Note_off_c, 0, 67, 112
1, 15110, Note_on_c, 0, 64, 120
1, 15148, Note_off_c, 0, 64, 120
1, 15290, Note_on_c, 0, 62, 114
1, 15327, Note_off_c, 0, 62, 114
1, 15333, Note_on_c, 0, 60, 116
1, 15373, Note_off_c, 0, 60, 116
1, 15381, Note_on_c, 0, 59, 105
1, 15422, Note_off_c, 0, 59, 105
1, 15431, Note_on_c, 0, 57, 108
1, 15475, Note_off_c, 0, 57, 108
1, 15482, Note_on_c, 0, 55, 95
1, 15513, Note_off_c, 0, 55, 95
1, 15532, Note_on_c, 0, 67, 116
1, 15573, Note_off_c, 0, 67, 116
1, 15577, Note_on_c, 0, 65, 119
1, 15614, Note_off_c, 0, 65, 119
1, 15617, Note_on_c, 0, 63, 121
1, 15666, Note_off_c, 0, 63, 121
1, 15672, Note_on_c, 0, 64, 122
1, 15719, Note_off_c, 0, 64, 122
1, 15723, Note_on_c, 0, 65, 117
1, 15764, Note_off_c, 0, 65, 117
1, 15769, Note_on_c, 0, 61, 116
1, 15820, Note_off_c, 0, 61, 116
1, 15823, Note_on_c, 0, 58, 103
1, 15844, Note_off_c, 0, 58, 103
1, 15856, Note_on_c, 0, 63, 122
1, 15913, Note_off_c, 0, 63, 122
1, 15918, Note_on_c, 0, 60, 109
1, 15943, Note_off_c, 0, 60, 109
1, 15945, Note_on_c, 0, 61, 116
1, 16001, Note_off_c, 0, 61, 116
1, 16003, Note_on_c, 0, 63, 121
1, 16050, Note_off_c, 0, 63, 121
1, 16055, Note_on_c, 0, 62, 121
1, 16105, Note_off_c, 0, 62, 121
1, 16109, Note_on_c, 0, 57, 106
1, 16150, Note_off_c, 0, 57, 106
1, 16154, Note_on_c, 0, 53, 103
1, 16225, Note_off_c, 0, 53, 103
1, 16242, Note_on_c, 0, 62, 119
1, 16302, Note_off_c, 0, 62, 119
1, 16306, Note_on_c, 0, 59, 97
1, 16330, Note_off_c, 0, 59, 97
1, 16337, Note_on_c, 0, 60, 112
1, 16388, Note_off_c, 0, 60, 112
1, 16391, Note_on_c, 0, 62, 121
1, 16435, Note_off_c, 0, 62, 121
1, 16437, Note_on_c, 0, 55, 104
1, 16499, Note_off_c, 0, 55, 104
1, 16503, Note_on_c, 0, 52, 96
1, 16620, Note_off_c, 0, 52, 96
1, 17148, Note_on_c, 0, 57, 104
1, 17176, Note_off_c, 0, 57, 104
1, 17188, Note_on_c, 0, 60, 122
1, 17231, Note_off_c, 0, 60, 122
1, 17237, Note_on_c, 0, 64, 117
1, 17292, Note_off_c, 0, 64, 117
1, 17298, Note_on_c, 0, 67, 121
1, 17360, Note_off_c, 0, 67, 121
1, 17365, Note_on_c, 0, 71, 106
1, 17417, Note_off_c, 0, 71, 106
1, 17423, Note_on_c, 0, 68, 121
1, 17527, Note_off_c, 0, 68, 121
1, 17705, Note_on_c, 0, 67, 112
1, 17724, Note_off_c, 0, 67, 112
1, 17727, Note_on_c, 0, 66, 116
1, 17748, Note_off_c, 0, 66, 116
1, 17753, Note_on_c, 0, 65, 120
1, 17816, Note_off_c, 0, 65, 120
1, 17818, Note_on_c, 0, 64, 121
1, 17848, Note_off_c, 0, 64, 121
1, 17852, Note_on_c, 0, 62, 124
1, 17902, Note_off_c, 0, 62, 124
1, 17905, Note_on_c, 0, 60, 120
1, 17955, Note_off_c, 0, 60, 120
1, 17957, Note_on_c, 0, 59, 108
1, 18001, Note_off_c, 0, 59, 108
1, 18006, Note_on_c, 0, 57, 113
1, 18047, Note_off_c, 0, 57, 113
1, 18051, Note_on_c, 0, 55, 109
1, 18100, Note_off_c, 0, 55, 109
1, 18108, Note_on_c, 0, 53, 113
1, 18155, Note_off_c, 0, 53, 113
1, 18156, Note_on_c, 0, 52, 107
1, 18195, Note_off_c, 0, 52, 107
1, 18200, Note_on_c, 0, 50, 112
1, 18256, Note_off_c, 0, 50, 112
1, 18260, Note_on_c, 0, 47, 98
1, 18290, Note_off_c, 0, 47, 98
1, 18299, Note_on_c, 0, 49, 101
1, 18342, Note_off_c, 0, 49, 101
1, 18346, Note_on_c, 0, 53, 115
1, 18400, Note_off_c, 0, 53, 115
1, 18404, Note_on_c, 0, 56, 99
1, 18430, Note_off_c, 0, 56, 99
1, 18436, Note_on_c, 0, 63, 122
1, 18487, Note_off_c, 0, 63, 122
1, 18490, Note_on_c, 0, 61, 120
1, 18526, Note_off_c, 0, 61, 120
1, 18535, Note_on_c, 0, 60, 125
1, 18590, Note_off_c, 0, 60, 125
1, 18594, Note_on_c, 0, 55, 99
1, 18626, Note_off_c, 0, 55, 99
1, 18630, Note_on_c, 0, 57, 106
1, 18685, Note_off_c, 0, 57, 106
1, 18689, Note_on_c, 0, 58, 106
1, 18766, Note_off_c, 0, 58, 106
1, 19264, Note_on_c, 0, 67, 123
1, 19331, Note_off_c, 0, 67, 123
1, 19359, Note_on_c, 0, 69, 126
1, 19423, Note_off_c, 0, 69, 126
1, 19452, Note_on_c, 0, 70, 118
1, 19512, Note_off_c, 0, 70, 118
1, 19536, Note_on_c, 0, 72, 111
1, 19605, Note_off_c, 0, 72, 111
1, 19614, Note_on_c, 0, 73, 123
1, 19688, Note_off_c, 0, 73, 123
1, 19692, Note_on_c, 0, 70, 118
1, 19705, Note_off_c, 0, 70, 118
1, 19707, Note_on_c, 0, 67, 116
1, 19723, Note_off_c, 0, 67, 116
1, 19727, Note_on_c, 0, 61, 109
1, 19767, Note_off_c, 0, 61, 109
1, 19791, Note_on_c, 0, 72, 114
1, 19931, Note_off_c, 0, 72, 114
1, 19972, Note_on_c, 0, 70, 118
1, 20021, Note_off_c, 0, 70, 118
1, 20064, Note_on_c, 0, 67, 123
1, 20092, Note_off_c, 0, 67, 123
1, 20093, Note_on_c, 0, 69, 121
1, 20281, Note_off_c, 0, 69, 121
1, 20288, Note_on_c, 0, 72, 115
1, 20346, Note_off_c, 0, 72, 115
1, 20348, Note_on_c, 0, 67, 100
1, 20483, Note_off_c, 0, 67, 100
1, 20702, Note_on_c, 0, 67, 119
1, 20725, Note_off_c, 0, 67, 119
1, 20731, Note_on_c, 0, 66, 115
1, 20756, Note_off_c, 0, 66, 115
1, 20759, Note_on_c, 0, 64, 122
1, 20808, Note_off_c, 0, 64, 122
1, 20809, Note_on_c, 0, 62, 122
1, 20873, Note_off_c, 0, 62, 122
1, 21040, Note_on_c, 0, 59, 110
1, 21078, Note_off_c, 0, 59, 110
1, 21082, Note_on_c, 0, 64, 120
1, 21123, Note_off_c, 0, 64, 120
1, 21127, Note_on_c, 0, 67, 121
1, 21175, Note_off_c, 0, 67, 121
1, 21178, Note_on_c, 0, 71, 116
1, 21214, Note_off_c, 0, 71, 116
1, 21220, Note_on_c, 0, 69, 119
1, 21265, Note_off_c, 0, 69, 119
1, 21276, Note_on_c, 0, 59, 99
1, 21305, Note_off_c, 0, 59, 99
1, 21313, Note_on_c, 0, 60, 117
1, 21365, Note_off_c, 0, 60, 117
1, 21369, Note_on_c, 0, 64, 118
1, 21404, Note_off_c, 0, 64, 118
1, 21410, Note_on_c, 0, 67, 120
1, 21451, Note_off_c, 0, 67, 120
1, 21458, Note_on_c, 0, 71, 112
1, 21503, Note_off_c, 0, 71, 112
1, 21507, Note_on_c, 0, 69, 116
1, 21547, Note_off_c, 0, 69, 116
1, 21553, Note_on_c, 0, 54, 106
1, 21572, Note_off_c, 0, 54, 106
1, 21573, Note_on_c, 0, 59, 100
1, 21598, Note_off_c, 0, 59, 100
1, 21599, Note_on_c, 0, 62, 121
1, 21632, Note_off_c, 0, 62, 121
1, 21642, Note_on_c, 0, 65, 115
1, 21656, Note_off_c, 0, 65, 115
1, 21659, Note_on_c, 0, 69, 115
1, 21672, Note_off_c, 0, 69, 115
1, 21675, Note_on_c, 0, 72, 118
1, 21701, Note_off_c, 0, 72, 118
1, 21705, Note_on_c, 0, 69, 116
1, 21743, Note_off_c, 0, 69, 116
1, 22016, Note_on_c, 0, 68, 119
1, 22063, Note_off_c, 0, 68, 119
1, 22069, Note_on_c, 0, 73, 123
1, 22123, Note_off_c, 0, 73, 123
1, 22126, Note_on_c, 0, 72, 119
1, 22166, Note_off_c, 0, 72, 119
1, 22172, Note_on_c, 0, 70, 118
1, 22218, Note_off_c, 0, 70, 118
1, 22223, Note_on_c, 0, 68, 120
1, 22262, Note_off_c, 0, 68, 120
1, 22266, Note_on_c, 0, 67, 119
1, 22316, Note_off_c, 0, 67, 119
1, 22319, Note_on_c, 0, 65, 119
1, 22365, Note_off_c, 0, 65, 119
1, 22368, Note_on_c, 0, 64, 96
1, 22398, Note_off_c, 0, 64, 96
1, 22401, Note_on_c, 0, 65, 94
1, 22414, Note_off_c, 0, 65, 94
1, 22415, Note_on_c, 0, 66, 110
1, 22438, Note_off_c, 0, 66, 110
1, 22440, Note_on_c, 0, 67, 117
1, 22506, Note_off_c, 0, 67, 117
1, 22508, Note_on_c, 0, 62, 116
1, 22559, Note_off_c, 0, 62, 116
1, 22737, Note_on_c, 0, 60, 119
1, 22790, Note_off_c, 0, 60, 119
1, 22794, Note_on_c, 0, 62, 125
1, 22839, Note_off_c, 0, 62, 125
1, 22842, Note_on_c, 0, 64, 117
1, 22887, Note_off_c, 0, 64, 117
1, 22890, Note_on_c, 0, 65, 119
1, 22930, Note_off_c, 0, 65, 119
1, 22931, Note_on_c, 0, 67, 119
1, 22981, Note_off_c, 0, 67, 119
1, 22983, Note_on_c, 0, 64, 118
1, 23020, Note_off_c, 0, 64, 118
1, 23025, Note_on_c, 0, 64, 116
1, 23063, Note_off_c, 0, 64, 116
1, 23064, Note_on_c, 0, 66, 117
1, 23265, Note_off_c, 0, 66, 117
1, 23279, Note_on_c, 0, 69, 119
1, 23326, Note_off_c, 0, 69, 119
1, 23335, Note_on_c, 0, 66, 119
1, 23375, Note_off_c, 0, 66, 119
1, 23379, Note_on_c, 0, 69, 109
1, 23416, Note_off_c, 0, 69, 109
1, 23419, Note_on_c, 0, 64, 105
1, 23556, Note_off_c, 0, 64, 105
1, 23706, Note_on_c, 0, 62, 123
1, 23750, Note_off_c, 0, 62, 123
1, 23754, Note_on_c, 0, 64, 118
1, 23797, Note_off_c, 0, 64, 118
1, 23814, Note_on_c, 0, 65, 118
1, 23854, Note_off_c, 0, 65, 118
1, 23856, Note_on_c, 0, 67, 120
1, 23893, Note_off_c, 0, 67, 120
1, 23898, Note_on_c, 0, 65, 117
1, 23924, Note_off_c, 0, 65, 117
1, 23925, Note_on_c, 0, 67, 120
1, 23969, Note_off_c, 0, 67, 120
1, 23975, Note_on_c, 0, 64, 117
1, 24075, Note_off_c, 0, 64, 117
1, 24175, Note_on_c, 0, 62, 122
1, 24196, Note_off_c, 0, 62, 122
1, 24197, Note_on_c, 0, 64, 119
1, 24235, Note_off_c, 0, 64, 119
1, 24236, Note_on_c, 0, 62, 120
1, 24253, Note_off_c, 0, 62, 120
1, 24254, Note_on_c, 0, 64, 117
1, 24310, Note_off_c, 0, 64, 117
1, 24312, Note_on_c, 0, 60, 112
1, 24391, Note_off_c, 0, 60, 112
1, 24499, Note_on_c, 0, 59, 104
1, 24639, Note_off_c, 0, 59, 104
1, 24645, Note_on_c, 0, 60, 120
1, 24696, Note_off_c, 0, 60, 120
1, 24723, Note_on_c, 0, 55, 107
1, 24799, Note_off_c, 0, 55, 107
1, 25079, Note_on_c, 0, 53, 119
1, 25117, Note_off_c, 0, 53, 119
1, 25126, Note_on_c, 0, 51, 106
1, 25164, Note_off_c, 0, 51, 106
1, 25170, Note_on_c, 0, 52, 103
1, 25201, Note_off_c, 0, 52, 103
1, 25205, Note_on_c, 0, 55, 112
1, 25258, Note_off_c, 0, 55, 112
1, 25305, Note_on_c, 0, 60, 116
1, 25377, Note_off_c, 0, 60, 116
1, 25377, End_track
0, 0, End_of_file
