0, 0, Header, 1, 1, 192
1, 0, Start_track
1, 0, Title_t, "Melody"
1, 0, Tempo, 294117
1, 0, Key_signature, -5, "major"
1, 0, Time_signature, 4, 2, 24, 8
1, 1197, Note_on_c, 0, 70, 116
1, 1397, Note_off_c, 0, 70, 116
1, 1412, Note_on_c, 0, 67, 111
1, 1491, Note_off_c, 0, 67, 111
1, 1509, Note_on_c, 0, 63, 121
1, 1581, Note_off_c, 0, 63, 121
1, 1611, Note_on_c, 0, 60, 111
1, 1694, Note_off_c, 0, 60, 111
1, 1731, Note_on_c, 0, 58, 90
1, 1806, Note_off_c, 0, 58, 90
1, 1809, Note_on_c, 0, 64, 121
1, 1881, Note_off_c, 0, 64, 121
1, 1918, Note_on_c, 0, 65, 116
1, 2016, Note_off_c, 0, 65, 116
1, 2023, Note_on_c, 0, 61, 120
1, 2087, Note_off_c, 0, 61, 120
1, 2147, Note_on_c, 0, 58, 99
1, 2234, Note_off_c, 0, 58, 99
1, 2317, Note_on_c, 0, 58, 110
1, 2407, Note_off_c, 0, 58, 110
1, 2444, Note_on_c, 0, 61, 119
1, 2523, Note_off_c, 0, 61, 119
1, 2553, Note_on_c, 0, 65, 108
1, 2636, Note_off_c, 0, 65, 108
1, 2651, Note_on_c, 0, 63, 122
1, 2757, Note_off_c, 0, 63, 122
1, 2802, Note_on_c, 0, 63, 118
1, 2949, Note_off_c, 0, 63, 118
1, 3523, Note_on_c, 0, 61, 119
1, 3600, Note_off_c, 0, 61, 119
1, 3621, Note_on_c, 0, 63, 120
1, 3700, Note_off_c, 0, 63, 120
1, 3723, Note_on_c, 0, 68, 116
1, 3800, Note_off_c, 0, 68, 116
1, 3845, Note_on_c, 0, 63, 125
1, 3962, Note_off_c, 0, 63, 125
1, 4009, Note_on_c, 0, 68, 116
1, 4112, Note_off_c, 0, 68, 116
1, 4117, Note_on_c, 0, 65, 112
1, 4476, Note_off_c, 0, 65, 112
1, 5083, Note_on_c, 0, 61, 126
1, 5133, Note_off_c, 0, 61, 126
1, 5162, Note_on_c, 0, 63, 124
1, 5260, Note_off_c, 0, 63, 124
1, 5286, Note_on_c, 0, 68, 117
1, 5373, Note_off_c, 0, 68, 117
1, 5373, Note_on_c, 0, 66, 111
1, 5439, Note_off_c, 0, 66, 111
1, 5457, Note_on_c, 0, 68, 118
1, 5539, Note_off_c, 0, 68, 118
1, 5560, Note_on_c, 0, 66, 109
1, 5637, Note_off_c, 0, 66, 109
1, 5666, Note_on_c, 0, 68, 116
1, 5748, Note_off_c, 0, 68, 116
1, 5753, Note_on_c, 0, 65, 116
1, 5934, Note_off_c, 0, 65, 116
1, 5964, Note_on_c, 0, 72, 116
1, 6094, Note_off_c, 0, 72, 116
1, 6146, Note_on_c, 0, 67, 118
1, 6244, Note_off_c, 0, 67, 118
1, 6254, Note_on_c, 0, 65, 117
1, 6325, Note_off_c, 0, 65, 117
1, 6330, Note_on_c, 0, 61, 125
1, 6412, Note_off_c, 0, 61, 125
1, 6421, Note_on_c, 0, 58, 95
1, 6492, Note_off_c, 0, 58, 95
1, 6512, Note_on_c, 0, 63, 127
1, 6645, Note_off_c, 0, 63, 127
1, 6711, Note_on_c, 0, 68, 118
1, 6849, Note_off_c, 0, 68, 118
1, 6904, Note_on_c, 0, 66, 109
1, 6983, Note_off_c, 0, 66, 109
1, 7014, Note_on_c, 0, 61, 118
1, 7099, Note_off_c, 0, 61, 118
1, 7141, Note_on_c, 0, 58, 105
1, 7220, Note_off_c, 0, 58, 105
1, 7313, Note_on_c, 0, 63, 124
1, 7403, Note_off_c, 0, 63, 124
1, 7418, Note_on_c, 0, 66, 106
1, 7492, Note_off_c, 0, 66, 106
1, 7497, Note_on_c, 0, 65, 111
1, 7590, Note_off_c, 0, 65, 111
1, 7616, Note_on_c, 0, 68, 113
1, 7711, Note_off_c, 0, 68, 113
1, 7721, Note_on_c, 0, 66, 108
1, 7779, Note_off_c, 0, 66, 108
1, 7813, Note_on_c, 0, 63, 122
1, 7882, Note_off_c, 0, 63, 122
1, 7892, Note_on_c, 0, 61, 94
1, 7974, Note_off_c, 0, 61, 94
1, 8003, Note_on_c, 0, 58, 107
1, 8061, Note_off_c, 0, 58, 107
1, 8082, Note_on_c, 0, 61, 119
1, 8156, Note_off_c, 0, 61, 119
1, 8171, Note_on_c, 0, 65, 108
1, 8261, Note_off_c, 0, 65, 108
1, 8290, Note_on_c, 0, 63, 123
1, 8356, Note_off_c, 0, 63, 123
1, 8393, Note_on_c, 0, 65, 110
1, 8456, Note_off_c, 0, 65, 110
1, 8482, Note_on_c, 0, 66, 105
1, 8553, Note_off_c, 0, 66, 105
1, 8563, Note_on_c, 0, 65, 109
1, 8624, Note_off_c, 0, 65, 109
1, 8631, Note_on_c, 0, 63, 120
1, 8742, Note_off_c, 0, 63, 120
1, 9229, Note_on_c, 0, 61, 120
1, 9310, Note_off_c, 0, 61, 120
1, 9342, Note_on_c, 0, 63, 124
1, 9414, Note_off_c, 0, 63, 124
1, 9424, Note_on_c, 0, 65, 110
1, 9549, Note_off_c, 0, 65, 110
1, 9557, Note_on_c, 0, 70, 96
1, 9644, Note_off_c, 0, 70, 96
1, 9647, Note_on_c, 0, 72, 101
1, 9834, Note_off_c, 0, 72, 101
1, 10130, Note_on_c, 0, 65, 99
1, 10213, Note_off_c, 0, 65, 99
1, 10241, Note_on_c, 0, 70, 111
1, 10324, Note_off_c, 0, 70, 111
1, 10329, Note_on_c, 0, 66, 111
1, 10383, Note_off_c, 0, 66, 111
1, 10415, Note_on_c, 0, 65, 115
1, 10517, Note_off_c, 0, 65, 115
1, 10541, Note_on_c, 0, 65, 116
1, 10597, Note_off_c, 0, 65, 116
1, 11203, Note_on_c, 0, 65, 113
1, 11237, Note_off_c, 0, 65, 113
1, 11250, Note_on_c, 0, 66, 109
1, 11314, Note_off_c, 0, 66, 109
1, 11325, Note_on_c, 0, 65, 112
1, 11366, Note_off_c, 0, 65, 112
1, 11402, Note_on_c, 0, 64, 120
1, 11491, Note_off_c, 0, 64, 120
1, 11506, Note_on_c, 0, 66, 111
1, 11555, Note_off_c, 0, 66, 111
1, 11589, Note_on_c, 0, 68, 113
1, 11679, Note_off_c, 0, 68, 113
1, 11711, Note_on_c, 0, 66, 106
1, 11758, Note_off_c, 0, 66, 106
1, 11784, Note_on_c, 0, 65, 109
1, 11859, Note_off_c, 0, 65, 109
1, 11881, Note_on_c, 0, 63, 121
1, 11943, Note_off_c, 0, 63, 121
1, 11975, Note_on_c, 0, 65, 109
1, 12219, Note_off_c, 0, 65, 109
1, 12268, Note_on_c, 0, 63, 120
1, 12340, Note_off_c, 0, 63, 120
1, 12364, Note_on_c, 0, 61, 116
1, 12441, Note_off_c, 0, 61, 116
1, 12465, Note_on_c, 0, 58, 105
1, 12514, Note_off_c, 0, 58, 105
1, 12565, Note_on_c, 0, 55, 101
1, 12646, Note_off_c, 0, 55, 101
1, 12769, Note_on_c, 0, 60, 114
1, 12839, Note_off_c, 0, 60, 114
1, 12844, Note_on_c, 0, 61, 109
1, 12893, Note_off_c, 0, 61, 109
1, 12910, Note_on_c, 0, 62, 115
1, 12944, Note_off_c, 0, 62, 115
1, 12961, Note_on_c, 0, 63, 120
1, 13004, Note_off_c, 0, 63, 120
1, 13015, Note_on_c, 0, 62, 121
1, 13056, Note_off_c, 0, 62, 121
1, 13065, Note_on_c, 0, 61, 118
1, 13119, Note_off_c, 0, 61, 118
1, 13145, Note_on_c, 0, 60, 117
1, 13228, Note_off_c, 0, 60, 117
1, 13250, Note_on_c, 0, 58, 99
1, 13301, Note_off_c, 0, 58, 99
1, 13342, Note_on_c, 0, 57, 101
1, 13408, Note_off_c, 0, 57, 101
1, 13432, Note_on_c, 0, 60, 107
1, 13498, Note_off_c, 0, 60, 107
1, 13532, Note_on_c, 0, 63, 118
1, 13600, Note_off_c, 0, 63, 118
1, 13611, Note_on_c, 0, 66, 108
1, 13671, Note_off_c, 0, 66, 108
1, 13712, Note_on_c, 0, 63, 114
1, 13784, Note_off_c, 0, 63, 114
1, 13820, Note_on_c, 0, 64, 108
1, 13893, Note_off_c, 0, 64, 108
1, 13893, Note_on_c, 0, 65, 108
1, 13949, Note_off_c, 0, 65, 108
1, 13956, Note_on_c, 0, 64, 106
1, 13984, Note_off_c, 0, 64, 106
1, 14148, Note_on_c, 0, 57, 96
1, 14199, Note_off_c, 0, 57, 96
1, 14216, Note_on_c, 0, 58, 96
1, 14255, Note_off_c, 0, 58, 96
1, 14279, Note_on_c, 0, 60, 113
1, 14381, Note_off_c, 0, 60, 113
1, 14415, Note_on_c, 0, 58, 93
1, 14746, Note_off_c, 0, 58, 93
1, 15234, Note_on_c, 0, 60, 117
1, 15334, Note_off_c, 0, 60, 117
1, 15349, Note_on_c, 0, 58, 102
1, 15409, Note_off_c, 0, 58, 102
1, 15418, Note_on_c, 0, 56, 110
1, 15507, Note_off_c, 0, 56, 110
1, 15533, Note_on_c, 0, 58, 109
1, 15610, Note_off_c, 0, 58, 109
1, 15613, Note_on_c, 0, 60, 108
1, 15719, Note_off_c, 0, 60, 108
1, 15720, Note_on_c, 0, 63, 125
1, 15805, Note_off_c, 0, 63, 125
1, 15818, Note_on_c, 0, 67, 119
1, 15905, Note_off_c, 0, 67, 119
1, 15914, Note_on_c, 0, 68, 121
1, 15991, Note_off_c, 0, 68, 121
1, 16004, Note_on_c, 0, 67, 118
1, 16091, Note_off_c, 0, 67, 118
1, 16111, Note_on_c, 0, 65, 114
1, 16181, Note_off_c, 0, 65, 114
1, 16215, Note_on_c, 0, 63, 117
1, 16296, Note_off_c, 0, 63, 117
1, 16309, Note_on_c, 0, 60, 115
1, 16382, Note_off_c, 0, 60, 115
1, 16416, Note_on_c, 0, 56, 102
1, 16506, Note_off_c, 0, 56, 102
1, 16517, Note_on_c, 0, 54, 110
1, 16571, Note_off_c, 0, 54, 110
1, 16588, Note_on_c, 0, 64, 120
1, 16703, Note_off_c, 0, 64, 120
1, 16710, Note_on_c, 0, 66, 108
1, 16764, Note_off_c, 0, 66, 108
1, 16784, Note_on_c, 0, 64, 118
1, 16888, Note_off_c, 0, 64, 118
1, 16903, Note_on_c, 0, 62, 120
1, 16976, Note_off_c, 0, 62, 120
1, 16991, Note_on_c, 0, 61, 111
1, 17097, Note_off_c, 0, 61, 111
1, 17112, Note_on_c, 0, 59, 102
1, 17191, Note_off_c, 0, 59, 102
1, 17215, Note_on_c, 0, 55, 98
1, 17304, Note_off_c, 0, 55, 98
1, 17372, Note_on_c, 0, 63, 120
1, 17449, Note_off_c, 0, 63, 120
1, 17475, Note_on_c, 0, 65, 108
1, 17558, Note_off_c, 0, 65, 108
1, 17571, Note_on_c, 0, 63, 119
1, 17658, Note_off_c, 0, 63, 119
1, 17675, Note_on_c, 0, 61, 113
1, 17758, Note_off_c, 0, 61, 113
1, 17786, Note_on_c, 0, 60, 110
1, 17869, Note_off_c, 0, 60, 110
1, 17887, Note_on_c, 0, 58, 104
1, 17949, Note_off_c, 0, 58, 104
1, 17971, Note_on_c, 0, 56, 103
1, 18052, Note_off_c, 0, 56, 103
1, 18074, Note_on_c, 0, 54, 103
1, 18142, Note_off_c, 0, 54, 103
1, 18179, Note_on_c, 0, 53, 107
1, 18271, Note_off_c, 0, 53, 107
1, 18360, Note_on_c, 0, 56, 103
1, 18424, Note_off_c, 0, 56, 103
1, 18446, Note_on_c, 0, 60, 107
1, 18506, Note_off_c, 0, 60, 107
1, 18545, Note_on_c, 0, 63, 123
1, 18649, Note_off_c, 0, 63, 123
1, 18702, Note_on_c, 0, 63, 111
1, 18830, Note_off_c, 0, 63, 111
1, 18854, Note_on_c, 0, 60, 102
1, 18918, Note_off_c, 0, 60, 102
1, 18931, Note_on_c, 0, 62, 115
1, 19082, Note_off_c, 0, 62, 115
1, 19087, Note_on_c, 0, 70, 109
1, 19198, Note_off_c, 0, 70, 109
1, 19895, Note_on_c, 0, 63, 118
1, 19972, Note_off_c, 0, 63, 118
1, 19994, Note_on_c, 0, 64, 119
1, 20041, Note_off_c, 0, 64, 119
1, 20042, Note_on_c, 0, 65, 109
1, 20083, Note_off_c, 0, 65, 109
1, 20083, Note_on_c, 0, 66, 108
1, 20137, Note_off_c, 0, 66, 108
1, 20148, Note_on_c, 0, 65, 109
1, 20197, Note_off_c, 0, 65, 109
1, 20198, Note_on_c, 0, 64, 118
1, 20271, Note_off_c, 0, 64, 118
1, 20278, Note_on_c, 0, 63, 120
1, 20348, Note_off_c, 0, 63, 120
1, 20395, Note_on_c, 0, 61, 113
1, 20470, Note_off_c, 0, 61, 113
1, 20488, Note_on_c, 0, 60, 111
1, 20578, Note_off_c, 0, 60, 111
1, 20583, Note_on_c, 0, 58, 101
1, 20666, Note_off_c, 0, 58, 101
1, 20673, Note_on_c, 0, 57, 100
1, 20763, Note_off_c, 0, 57, 100
1, 20768, Note_on_c, 0, 60, 106
1, 20836, Note_off_c, 0, 60, 106
1, 20843, Note_on_c, 0, 63, 118
1, 20922, Note_off_c, 0, 63, 118
1, 20935, Note_on_c, 0, 66, 111
1, 21018, Note_off_c, 0, 66, 111
1, 21025, Note_on_c, 0, 63, 119
1, 21100, Note_off_c, 0, 63, 119
1, 21111, Note_on_c, 0, 64, 112
1, 21198, Note_off_c, 0, 64, 112
1, 21209, Note_on_c, 0, 65, 113
1, 21317, Note_off_c, 0, 65, 113
1, 21404, Note_on_c, 0, 71, 102
1, 21451, Note_off_c, 0, 71, 102
1, 21458, Note_on_c, 0, 72, 102
1, 21545, Note_off_c, 0, 72, 102
1, 21605, Note_on_c, 0, 70, 105
1, 21665, Note_off_c, 0, 70, 105
1, 21708, Note_on_c, 0, 67, 109
1, 21761, Note_off_c, 0, 67, 109
1, 21776, Note_on_c, 0, 65, 108
1, 21866, Note_off_c, 0, 65, 108
1, 21892, Note_on_c, 0, 63, 116
1, 21964, Note_off_c, 0, 63, 116
1, 22001, Note_on_c, 0, 61, 109
1, 22122, Note_off_c, 0, 61, 109
1, 22129, Note_on_c, 0, 62, 109
1, 22176, Note_off_c, 0, 62, 109
1, 22191, Note_on_c, 0, 61, 94
1, 22348, Note_off_c, 0, 61, 94
1, 22384, Note_on_c, 0, 60, 112
1, 22493, Note_off_c, 0, 60, 112
1, 22493, Note_on_c, 0, 61, 110
1, 22566, Note_off_c, 0, 61, 110
1, 22579, Note_on_c, 0, 60, 114
1, 22666, Note_off_c, 0, 60, 114
1, 22688, Note_on_c, 0, 58, 111
1, 22775, Note_off_c, 0, 58, 111
1, 22780, Note_on_c, 0, 57, 106
1, 22853, Note_off_c, 0, 57, 106
1, 22900, Note_on_c, 0, 53, 106
1, 23241, Note_off_c, 0, 53, 106
1, 23589, Note_on_c, 0, 50, 110
1, 23679, Note_off_c, 0, 50, 110
1, 23682, Note_on_c, 0, 51, 109
1, 23752, Note_off_c, 0, 51, 109
1, 23774, Note_on_c, 0, 54, 117
1, 23842, Note_off_c, 0, 54, 117
1, 23843, Note_on_c, 0, 57, 115
1, 23915, Note_off_c, 0, 57, 115
1, 23915, Note_on_c, 0, 61, 119
1, 24062, Note_off_c, 0, 61, 119
1, 24098, Note_on_c, 0, 57, 97
1, 24188, Note_off_c, 0, 57, 97
1, 24225, Note_on_c, 0, 60, 118
1, 24778, Note_off_c, 0, 60, 118
1, 25162, Note_on_c, 0, 57, 108
1, 25237, Note_off_c, 0, 57, 108
1, 25246, Note_on_c, 0, 58, 111
1, 25306, Note_off_c, 0, 58, 111
1, 25307, Note_on_c, 0, 61, 115
1, 25354, Note_off_c, 0, 61, 115
1, 25354, Note_on_c, 0, 65, 115
1, 25437, Note_off_c, 0, 65, 115
1, 25480, Note_on_c, 0, 71, 111
1, 25552, Note_off_c, 0, 71, 111
1, 25555, Note_on_c, 0, 72, 114
1, 25651, Note_off_c, 0, 72, 114
1, 25658, Note_on_c, 0, 70, 104
1, 25764, Note_off_c, 0, 70, 104
1, 25779, Note_on_c, 0, 63, 119
1, 26112, Note_off_c, 0, 63, 119
1, 26212, Note_on_c, 0, 64, 111
1, 26274, Note_off_c, 0, 64, 111
1, 26274, Note_on_c, 0, 65, 112
1, 26484, Note_off_c, 0, 65, 112
1, 26525, Note_on_c, 0, 61, 111
1, 26595, Note_off_c, 0, 61, 111
1, 26629, Note_on_c, 0, 60, 110
1, 26735, Note_off_c, 0, 60, 110
1, 26748, Note_on_c, 0, 58, 96
1, 27000, Note_off_c, 0, 58, 96
1, 27473, Note_on_c, 0, 58, 99
1, 27524, Note_off_c, 0, 58, 99
1, 27558, Note_on_c, 0, 61, 111
1, 27628, Note_off_c, 0, 61, 111
1, 27650, Note_on_c, 0, 65, 105
1, 27718, Note_off_c, 0, 65, 105
1, 27738, Note_on_c, 0, 70, 116
1, 27851, Note_off_c, 0, 70, 116
1, 27860, Note_on_c, 0, 67, 114
1, 28096, Note_off_c, 0, 67, 114
1, 28236, Note_on_c, 0, 58, 95
1, 28289, Note_off_c, 0, 58, 95
1, 28355, Note_on_c, 0, 61, 99
1, 28408, Note_off_c, 0, 61, 99
1, 28436, Note_on_c, 0, 63, 107
1, 28489, Note_off_c, 0, 63, 107
1, 28538, Note_on_c, 0, 73, 110
1, 28647, Note_off_c, 0, 73, 110
1, 28675, Note_on_c, 0, 68, 116
1, 28866, Note_off_c, 0, 68, 116
1, 29244, Note_on_c, 0, 61, 101
1, 29280, Note_off_c, 0, 61, 101
1, 29346, Note_on_c, 0, 72, 108
1, 29455, Note_off_c, 0, 72, 108
1, 29468, Note_on_c, 0, 67, 117
1, 29701, Note_off_c, 0, 67, 117
1, 29780, Note_on_c, 0, 62, 118
1, 29870, Note_off_c, 0, 62, 118
1, 29875, Note_on_c, 0, 63, 119
1, 29983, Note_off_c, 0, 63, 119
1, 29983, Note_on_c, 0, 73, 105
1, 30075, Note_off_c, 0, 73, 105
1, 30112, Note_on_c, 0, 68, 115
1, 30214, Note_off_c, 0, 68, 115
1, 30217, Note_on_c, 0, 66, 110
1, 30389, Note_off_c, 0, 66, 110
1, 30788, Note_on_c, 0, 60, 118
1, 30880, Note_off_c, 0, 60, 118
1, 30880, Note_on_c, 0, 61, 112
1, 30976, Note_off_c, 0, 61, 112
1, 30976, Note_on_c, 0, 72, 105
1, 31065, Note_off_c, 0, 72, 105
1, 31087, Note_on_c, 0, 67, 113
1, 31212, Note_off_c, 0, 67, 113
1, 31374, Note_on_c, 0, 62, 121
1, 31470, Note_off_c, 0, 62, 121
1, 31483, Note_on_c, 0, 63, 120
1, 31549, Note_off_c, 0, 63, 120
1, 31579, Note_on_c, 0, 73, 102
1, 31654, Note_off_c, 0, 73, 102
1, 31684, Note_on_c, 0, 68, 111
1, 31765, Note_off_c, 0, 68, 111
1, 31783, Note_on_c, 0, 66, 109
1, 31870, Note_off_c, 0, 66, 109
1, 31871, Note_on_c, 0, 62, 115
1, 31967, Note_off_c, 0, 62, 115
1, 32201, Note_on_c, 0, 69, 106
1, 32269, Note_off_c, 0, 69, 106
1, 32289, Note_on_c, 0, 70, 99
1, 32338, Note_off_c, 0, 70, 99
1, 32338, Note_on_c, 0, 69, 99
1, 32394, Note_off_c, 0, 69, 99
1, 32395, Note_on_c, 0, 66, 103
1, 32487, Note_off_c, 0, 66, 103
1, 32487, Note_on_c, 0, 65, 110
1, 32581, Note_off_c, 0, 65, 110
1, 32594, Note_on_c, 0, 63, 119
1, 32694, Note_off_c, 0, 63, 119
1, 32694, Note_on_c, 0, 61, 111
1, 32762, Note_off_c, 0, 61, 111
1, 32763, Note_on_c, 0, 65, 111
1, 33044, Note_off_c, 0, 65, 111
1, 33050, Note_on_c, 0, 63, 118
1, 33154, Note_off_c, 0, 63, 118
1, 33174, Note_on_c, 0, 61, 115
1, 33276, Note_off_c, 0, 61, 115
1, 33276, Note_on_c, 0, 60, 111
1, 33370, Note_off_c, 0, 60, 111
1, 33379, Note_on_c, 0, 58, 104
1, 33471, Note_off_c, 0, 58, 104
1, 33476, Note_on_c, 0, 56, 104
1, 33519, Note_off_c, 0, 56, 104
1, 33551, Note_on_c, 0, 57, 105
1, 33659, Note_off_c, 0, 57, 105
1, 33664, Note_on_c, 0, 53, 106
1, 33965, Note_off_c, 0, 53, 106
1, 34383, Note_on_c, 0, 53, 110
1, 34462, Note_off_c, 0, 53, 110
1, 34463, Note_on_c, 0, 54, 102
1, 34571, Note_off_c, 0, 54, 102
1, 34599, Note_on_c, 0, 65, 109
1, 34838, Note_off_c, 0, 65, 109
1, 34857, Note_on_c, 0, 63, 122
1, 34963, Note_off_c, 0, 63, 122
1, 34968, Note_on_c, 0, 60, 106
1, 35058, Note_off_c, 0, 60, 106
1, 35061, Note_on_c, 0, 61, 111
1, 35157, Note_off_c, 0, 61, 111
1, 35160, Note_on_c, 0, 63, 121
1, 35254, Note_off_c, 0, 63, 121
1, 35265, Note_on_c, 0, 65, 112
1, 35348, Note_off_c, 0, 65, 112
1, 35348, Note_on_c, 0, 67, 109
1, 35437, Note_off_c, 0, 67, 109
1, 35448, Note_on_c, 0, 72, 98
1, 35540, Note_off_c, 0, 72, 98
1, 35549, Note_on_c, 0, 70, 107
1, 35626, Note_off_c, 0, 70, 107
1, 35644, Note_on_c, 0, 67, 107
1, 35738, Note_off_c, 0, 67, 107
1, 35774, Note_on_c, 0, 65, 103
1, 35847, Note_off_c, 0, 65, 103
1, 35865, Note_on_c, 0, 68, 110
1, 35942, Note_off_c, 0, 68, 110
1, 35957, Note_on_c, 0, 67, 106
1, 36046, Note_off_c, 0, 67, 106
1, 36055, Note_on_c, 0, 66, 111
1, 36119, Note_off_c, 0, 66, 111
1, 36128, Note_on_c, 0, 70, 102
1, 36203, Note_off_c, 0, 70, 102
1, 36221, Note_on_c, 0, 63, 118
1, 36277, Note_off_c, 0, 63, 118
1, 36277, Note_on_c, 0, 64, 121
1, 36292, Note_off_c, 0, 64, 121
1, 36301, Note_on_c, 0, 65, 114
1, 36409, Note_off_c, 0, 65, 114
1, 36416, Note_on_c, 0, 63, 122
1, 36527, Note_off_c, 0, 63, 122
1, 36532, Note_on_c, 0, 61, 112
1, 36785, Note_off_c, 0, 61, 112
1, 37421, Note_on_c, 0, 60, 117
1, 37458, Note_off_c, 0, 60, 117
1, 37458, Note_on_c, 0, 61, 116
1, 37535, Note_off_c, 0, 61, 116
1, 37535, Note_on_c, 0, 63, 122
1, 37578, Note_on_c, 0, 66, 111
1, 37578, Note_off_c, 0, 63, 122
1, 37636, Note_off_c, 0, 66, 111
1, 37651, Note_on_c, 0, 69, 115
1, 37704, Note_off_c, 0, 69, 115
1, 37705, Note_on_c, 0, 70, 114
1, 37739, Note_off_c, 0, 70, 114
1, 37778, Note_on_c, 0, 64, 112
1, 37819, Note_off_c, 0, 64, 112
1, 37828, Note_on_c, 0, 65, 114
1, 37983, Note_off_c, 0, 65, 114
1, 38000, Note_on_c, 0, 63, 123
1, 38104, Note_off_c, 0, 63, 123
1, 38109, Note_on_c, 0, 61, 113
1, 38290, Note_off_c, 0, 61, 113
1, 38316, Note_on_c, 0, 63, 9
1, 38334, Note_off_c, 0, 63, 9
1, 38335, Note_on_c, 0, 65, 73
1, 38361, Note_off_c, 0, 65, 73
1, 38370, Note_on_c, 0, 67, 93
1, 38415, Note_off_c, 0, 67, 93
1, 38420, Note_on_c, 0, 72, 107
1, 38446, Note_off_c, 0, 72, 107
1, 38455, Note_on_c, 0, 70, 108
1, 38587, Note_off_c, 0, 70, 108
1, 38640, Note_on_c, 0, 72, 98
1, 38715, Note_off_c, 0, 72, 98
1, 38756, Note_on_c, 0, 65, 106
1, 38981, Note_off_c, 0, 65, 106
1, 39443, Note_on_c, 0, 65, 109
1, 39516, Note_off_c, 0, 65, 109
1, 39534, Note_on_c, 0, 67, 108
1, 39607, Note_off_c, 0, 67, 108
1, 39608, Note_on_c, 0, 68, 115
1, 39702, Note_off_c, 0, 68, 115
1, 39711, Note_on_c, 0, 69, 103
1, 39748, Note_off_c, 0, 69, 103
1, 39748, Note_on_c, 0, 68, 113
1, 39795, Note_off_c, 0, 68, 113
1, 39802, Note_on_c, 0, 67, 112
1, 39885, Note_off_c, 0, 67, 112
1, 39909, Note_on_c, 0, 65, 106
1, 39979, Note_off_c, 0, 65, 106
1, 40005, Note_on_c, 0, 70, 115
1, 40095, Note_off_c, 0, 70, 115
1, 40371, Note_on_c, 0, 68, 109
1, 40480, Note_off_c, 0, 68, 109
1, 40483, Note_on_c, 0, 69, 103
1, 40517, Note_off_c, 0, 69, 103
1, 40517, Note_on_c, 0, 68, 113
1, 40568, Note_off_c, 0, 68, 113
1, 40571, Note_on_c, 0, 67, 117
1, 40679, Note_off_c, 0, 67, 117
1, 40705, Note_on_c, 0, 65, 101
1, 40761, Note_off_c, 0, 65, 101
1, 40783, Note_on_c, 0, 70, 114
1, 40870, Note_off_c, 0, 70, 114
1, 40877, Note_on_c, 0, 63, 117
1, 40928, Note_off_c, 0, 63, 117
1, 40928, Note_on_c, 0, 64, 119
1, 40973, Note_off_c, 0, 64, 119
1, 40973, Note_on_c, 0, 65, 111
1, 41151, Note_off_c, 0, 65, 111
1, 41168, Note_on_c, 0, 64, 115
1, 41266, Note_off_c, 0, 64, 115
1, 41338, Note_on_c, 0, 64, 111
1, 41436, Note_off_c, 0, 64, 111
1, 41456, Note_on_c, 0, 66, 107
1, 41531, Note_off_c, 0, 66, 107
1, 41572, Note_on_c, 0, 66, 92
1, 41825, Note_off_c, 0, 66, 92
1, 41976, Note_on_c, 0, 63, 111
1, 42070, Note_off_c, 0, 63, 111
1, 42119, Note_on_c, 0, 63, 116
1, 42215, Note_off_c, 0, 63, 116
1, 42220, Note_on_c, 0, 65, 103
1, 42320, Note_off_c, 0, 65, 103
1, 42354, Note_on_c, 0, 66, 109
1, 42439, Note_off_c, 0, 66, 109
1, 42454, Note_on_c, 0, 68, 107
1, 42548, Note_off_c, 0, 68, 107
1, 42572, Note_on_c, 0, 63, 114
1, 42625, Note_off_c, 0, 63, 114
1, 42632, Note_on_c, 0, 65, 108
1, 42779, Note_off_c, 0, 65, 108
1, 43148, Note_on_c, 0, 68, 118
1, 43208, Note_off_c, 0, 68, 118
1, 43208, Note_on_c, 0, 66, 114
1, 43238, Note_off_c, 0, 66, 114
1, 43251, Note_on_c, 0, 64, 116
1, 43311, Note_off_c, 0, 64, 116
1, 43320, Note_on_c, 0, 65, 114
1, 43342, Note_off_c, 0, 65, 114
1, 43342, Note_on_c, 0, 66, 105
1, 43385, Note_off_c, 0, 66, 105
1, 43388, Note_on_c, 0, 65, 111
1, 43475, Note_off_c, 0, 65, 111
1, 44280, Note_on_c, 0, 70, 111
1, 44314, Note_on_c, 0, 68, 112
1, 44314, Note_off_c, 0, 70, 111
1, 44351, Note_off_c, 0, 68, 112
1, 44351, Note_on_c, 0, 63, 108
1, 44466, Note_off_c, 0, 63, 108
1, 44481, Note_on_c, 0, 65, 112
1, 44549, Note_off_c, 0, 65, 112
1, 44566, Note_on_c, 0, 66, 110
1, 44645, Note_off_c, 0, 66, 110
1, 44665, Note_on_c, 0, 68, 112
1, 44735, Note_off_c, 0, 68, 112
1, 44767, Note_on_c, 0, 70, 114
1, 44850, Note_off_c, 0, 70, 114
1, 44861, Note_on_c, 0, 73, 109
1, 44944, Note_off_c, 0, 73, 109
1, 44959, Note_on_c, 0, 72, 113
1, 45036, Note_off_c, 0, 72, 113
1, 45056, Note_on_c, 0, 70, 106
1, 45126, Note_off_c, 0, 70, 106
1, 45150, Note_on_c, 0, 69, 111
1, 45250, Note_off_c, 0, 69, 111
1, 45250, Note_on_c, 0, 70, 106
1, 45320, Note_off_c, 0, 70, 106
1, 45352, Note_on_c, 0, 72, 110
1, 45456, Note_off_c, 0, 72, 110
1, 45564, Note_on_c, 0, 77, 103
1, 45939, Note_off_c, 0, 77, 103
1, 46026, Note_on_c, 0, 73, 108
1, 46109, Note_off_c, 0, 73, 108
1, 46141, Note_on_c, 0, 70, 104
1, 46226, Note_off_c, 0, 70, 104
1, 46254, Note_on_c, 0, 65, 107
1, 46341, Note_off_c, 0, 65, 107
1, 46615, Note_on_c, 0, 75, 113
1, 46709, Note_off_c, 0, 75, 113
1, 46710, Note_on_c, 0, 72, 104
1, 46789, Note_off_c, 0, 72, 104
1, 46815, Note_on_c, 0, 69, 112
1, 46894, Note_off_c, 0, 69, 112
1, 46903, Note_on_c, 0, 67, 107
1, 46939, Note_off_c, 0, 67, 107
1, 46950, Note_on_c, 0, 66, 106
1, 47071, Note_off_c, 0, 66, 106
1, 47089, Note_on_c, 0, 66, 108
1, 47149, Note_off_c, 0, 66, 108
1, 47391, Note_on_c, 0, 73, 115
1, 47474, Note_off_c, 0, 73, 115
1, 47479, Note_on_c, 0, 70, 110
1, 47552, Note_off_c, 0, 70, 110
1, 47595, Note_on_c, 0, 65, 110
1, 47676, Note_on_c, 0, 63, 119
1, 47676, Note_off_c, 0, 65, 110
1, 47784, Note_off_c, 0, 63, 119
1, 47799, Note_on_c, 0, 65, 116
1, 47899, Note_off_c, 0, 65, 116
1, 47948, Note_on_c, 0, 59, 120
1, 47997, Note_off_c, 0, 59, 120
1, 47997, Note_on_c, 0, 61, 117
1, 48290, Note_off_c, 0, 61, 117
1, 48346, Note_on_c, 0, 58, 104
1, 48400, Note_off_c, 0, 58, 104
1, 48403, Note_on_c, 0, 60, 113
1, 48490, Note_off_c, 0, 60, 113
1, 48495, Note_on_c, 0, 61, 109
1, 48567, Note_off_c, 0, 61, 109
1, 48570, Note_on_c, 0, 60, 107
1, 48600, Note_off_c, 0, 60, 107
1, 48611, Note_on_c, 0, 58, 100
1, 48677, Note_off_c, 0, 58, 100
1, 48713, Note_on_c, 0, 55, 112
1, 48762, Note_off_c, 0, 55, 112
1, 48769, Note_on_c, 0, 56, 102
1, 48846, Note_off_c, 0, 56, 102
1, 48846, Note_on_c, 0, 57, 102
1, 49024, Note_off_c, 0, 57, 102
1, 49071, Note_on_c, 0, 53, 101
1, 49362, Note_off_c, 0, 53, 101
1, 49881, Note_on_c, 0, 53, 101
1, 49917, Note_off_c, 0, 53, 101
1, 49917, Note_on_c, 0, 56, 113
1, 49945, Note_off_c, 0, 56, 113
1, 49956, Note_on_c, 0, 59, 108
1, 50010, Note_off_c, 0, 59, 108
1, 50010, Note_on_c, 0, 61, 111
1, 50044, Note_off_c, 0, 61, 111
1, 50053, Note_on_c, 0, 60, 109
1, 50119, Note_off_c, 0, 60, 109
1, 50136, Note_on_c, 0, 58, 100
1, 50187, Note_off_c, 0, 58, 100
1, 50192, Note_on_c, 0, 57, 97
1, 50252, Note_off_c, 0, 57, 97
1, 50263, Note_on_c, 0, 63, 110
1, 50312, Note_off_c, 0, 63, 110
1, 50312, Note_on_c, 0, 66, 112
1, 50357, Note_off_c, 0, 66, 112
1, 50368, Note_on_c, 0, 65, 113
1, 50449, Note_off_c, 0, 65, 113
1, 51167, Note_on_c, 0, 64, 101
1, 51203, Note_off_c, 0, 64, 101
1, 51203, Note_on_c, 0, 65, 103
1, 51248, Note_off_c, 0, 65, 103
1, 51248, Note_on_c, 0, 64, 109
1, 51361, Note_off_c, 0, 64, 109
1, 51372, Note_on_c, 0, 65, 104
1, 51432, Note_off_c, 0, 65, 104
1, 51447, Note_on_c, 0, 66, 106
1, 51526, Note_off_c, 0, 66, 106
1, 51546, Note_on_c, 0, 67, 106
1, 51610, Note_off_c, 0, 67, 106
1, 51638, Note_on_c, 0, 68, 106
1, 51713, Note_off_c, 0, 68, 106
1, 51739, Note_on_c, 0, 69, 108
1, 51824, Note_off_c, 0, 69, 108
1, 51848, Note_on_c, 0, 70, 106
1, 51933, Note_off_c, 0, 70, 106
1, 51963, Note_on_c, 0, 73, 108
1, 52057, Note_off_c, 0, 73, 108
1, 52057, Note_on_c, 0, 72, 113
1, 52155, Note_off_c, 0, 72, 113
1, 52160, Note_on_c, 0, 70, 110
1, 52239, Note_off_c, 0, 70, 110
1, 52254, Note_on_c, 0, 69, 110
1, 52337, Note_off_c, 0, 69, 110
1, 52355, Note_on_c, 0, 66, 107
1, 52411, Note_off_c, 0, 66, 107
1, 52418, Note_on_c, 0, 65, 103
1, 52539, Note_off_c, 0, 65, 103
1, 52563, Note_on_c, 0, 63, 111
1, 52621, Note_off_c, 0, 63, 111
1, 52651, Note_on_c, 0, 61, 102
1, 52777, Note_off_c, 0, 61, 102
1, 52782, Note_on_c, 0, 55, 95
1, 52852, Note_off_c, 0, 55, 95
1, 52852, Note_on_c, 0, 58, 80
1, 52905, Note_off_c, 0, 58, 80
1, 52925, Note_on_c, 0, 60, 83
1, 52998, Note_off_c, 0, 60, 83
1, 53047, Note_on_c, 0, 61, 107
1, 53166, Note_off_c, 0, 61, 107
1, 53209, Note_on_c, 0, 54, 95
1, 53248, Note_off_c, 0, 54, 95
1, 53261, Note_on_c, 0, 55, 98
1, 53310, Note_off_c, 0, 55, 98
1, 53342, Note_on_c, 0, 60, 111
1, 53883, Note_off_c, 0, 60, 111
1, 54239, Note_on_c, 0, 53, 100
1, 54297, Note_off_c, 0, 53, 100
1, 54346, Note_on_c, 0, 55, 105
1, 54435, Note_off_c, 0, 55, 105
1, 54442, Note_on_c, 0, 61, 109
1, 54512, Note_off_c, 0, 61, 109
1, 54610, Note_on_c, 0, 53, 105
1, 54661, Note_off_c, 0, 53, 105
1, 54662, Note_on_c, 0, 55, 98
1, 54715, Note_off_c, 0, 55, 98
1, 54745, Note_on_c, 0, 60, 112
1, 54875, Note_off_c, 0, 60, 112
1, 55174, Note_on_c, 0, 53, 105
1, 55238, Note_off_c, 0, 53, 105
1, 55268, Note_on_c, 0, 55, 101
1, 55336, Note_off_c, 0, 55, 101
1, 55345, Note_on_c, 0, 61, 108
1, 55428, Note_off_c, 0, 61, 108
1, 55566, Note_on_c, 0, 53, 112
1, 55600, Note_off_c, 0, 53, 112
1, 55601, Note_on_c, 0, 55, 105
1, 55633, Note_off_c, 0, 55, 105
1, 55674, Note_on_c, 0, 60, 114
1, 55793, Note_off_c, 0, 60, 114
1, 55793, Note_on_c, 0, 53, 104
1, 55849, Note_off_c, 0, 53, 104
1, 55856, Note_on_c, 0, 55, 91
1, 55918, Note_off_c, 0, 55, 91
1, 55940, Note_on_c, 0, 61, 110
1, 56010, Note_off_c, 0, 61, 110
1, 56133, Note_on_c, 0, 54, 104
1, 56174, Note_off_c, 0, 54, 104
1, 56174, Note_on_c, 0, 55, 104
1, 56204, Note_off_c, 0, 55, 104
1, 56221, Note_on_c, 0, 60, 113
1, 56313, Note_off_c, 0, 60, 113
1, 56801, Note_on_c, 0, 60, 112
1, 56893, Note_off_c, 0, 60, 112
1, 56893, Note_on_c, 0, 61, 105
1, 56970, Note_off_c, 0, 61, 105
1, 56970, Note_on_c, 0, 60, 108
1, 57064, Note_off_c, 0, 60, 108
1, 57105, Note_on_c, 0, 58, 101
1, 57169, Note_on_c, 0, 57, 110
1, 57169, Note_off_c, 0, 58, 101
1, 57311, Note_off_c, 0, 57, 110
1, 57312, Note_on_c, 0, 60, 112
1, 57382, Note_off_c, 0, 60, 112
1, 57399, Note_on_c, 0, 63, 118
1, 57486, Note_off_c, 0, 63, 118
1, 57506, Note_on_c, 0, 65, 111
1, 57579, Note_off_c, 0, 65, 111
1, 57599, Note_on_c, 0, 68, 118
1, 57686, Note_off_c, 0, 68, 118
1, 57689, Note_on_c, 0, 66, 113
1, 57755, Note_off_c, 0, 66, 113
1, 57781, Note_on_c, 0, 63, 119
1, 57877, Note_off_c, 0, 63, 119
1, 57882, Note_on_c, 0, 64, 109
1, 57957, Note_off_c, 0, 64, 109
1, 57971, Note_on_c, 0, 65, 108
1, 58096, Note_off_c, 0, 65, 108
1, 58168, Note_on_c, 0, 65, 105
1, 58255, Note_off_c, 0, 65, 105
1, 58285, Note_on_c, 0, 70, 106
1, 58336, Note_off_c, 0, 70, 106
1, 58362, Note_on_c, 0, 67, 105
1, 58483, Note_off_c, 0, 67, 105
1, 58539, Note_on_c, 0, 67, 107
1, 58616, Note_off_c, 0, 67, 107
1, 58650, Note_on_c, 0, 72, 104
1, 58712, Note_off_c, 0, 72, 104
1, 58727, Note_on_c, 0, 69, 118
1, 58850, Note_off_c, 0, 69, 118
1, 58901, Note_on_c, 0, 69, 122
1, 59003, Note_off_c, 0, 69, 122
1, 59027, Note_on_c, 0, 73, 114
1, 59093, Note_off_c, 0, 73, 114
1, 59104, Note_on_c, 0, 70, 121
1, 59242, Note_off_c, 0, 70, 121
1, 59285, Note_on_c, 0, 70, 111
1, 59393, Note_off_c, 0, 70, 111
1, 59406, Note_on_c, 0, 76, 110
1, 59453, Note_on_c, 0, 77, 105
1, 59453, Note_off_c, 0, 76, 110
1, 59606, Note_off_c, 0, 77, 105
1, 60390, Note_on_c, 0, 72, 98
1, 60420, Note_off_c, 0, 72, 98
1, 60427, Note_on_c, 0, 73, 120
1, 60472, Note_off_c, 0, 73, 120
1, 60472, Note_on_c, 0, 72, 116
1, 60494, Note_off_c, 0, 72, 116
1, 60494, Note_on_c, 0, 70, 114
1, 60573, Note_off_c, 0, 70, 114
1, 60573, Note_on_c, 0, 69, 116
1, 60637, Note_off_c, 0, 69, 116
1, 60637, Note_on_c, 0, 66, 110
1, 60701, Note_on_c, 0, 65, 107
1, 60701, Note_off_c, 0, 66, 110
1, 60727, Note_off_c, 0, 65, 107
1, 60728, Note_on_c, 0, 64, 109
1, 60752, Note_off_c, 0, 64, 109
1, 60752, Note_on_c, 0, 63, 109
1, 60797, Note_off_c, 0, 63, 109
1, 60812, Note_on_c, 0, 61, 105
1, 60844, Note_off_c, 0, 61, 105
1, 60844, Note_on_c, 0, 60, 103
1, 60953, Note_off_c, 0, 60, 103
1, 61426, Note_on_c, 0, 71, 110
1, 61503, Note_on_c, 0, 72, 94
1, 61503, Note_off_c, 0, 71, 110
1, 62187, Note_off_c, 0, 72, 94
1, 62202, Note_on_c, 0, 65, 88
1, 62277, Note_off_c, 0, 65, 88
1, 62295, Note_on_c, 0, 67, 109
1, 62384, Note_off_c, 0, 67, 109
1, 62397, Note_on_c, 0, 65, 101
1, 62467, Note_off_c, 0, 65, 101
1, 62499, Note_on_c, 0, 72, 101
1, 62576, Note_off_c, 0, 72, 101
1, 62659, Note_on_c, 0, 67, 111
1, 62767, Note_off_c, 0, 67, 111
1, 62780, Note_on_c, 0, 65, 114
1, 63085, Note_off_c, 0, 65, 114
1, 63535, Note_on_c, 0, 75, 117
1, 63758, Note_off_c, 0, 75, 117
1, 63797, Note_on_c, 0, 71, 102
1, 63863, Note_off_c, 0, 71, 102
1, 63904, Note_on_c, 0, 74, 103
1, 63964, Note_off_c, 0, 74, 103
1, 63979, Note_on_c, 0, 72, 100
1, 64100, Note_off_c, 0, 72, 100
1, 64154, Note_on_c, 0, 67, 106
1, 64248, Note_off_c, 0, 67, 106
1, 64265, Note_on_c, 0, 70, 108
1, 64323, Note_off_c, 0, 70, 108
1, 64343, Note_on_c, 0, 68, 107
1, 64451, Note_off_c, 0, 68, 107
1, 64720, Note_on_c, 0, 79, 100
1, 64820, Note_off_c, 0, 79, 100
1, 64827, Note_on_c, 0, 75, 108
1, 64919, Note_off_c, 0, 75, 108
1, 64919, Note_on_c, 0, 72, 95
1, 64991, Note_off_c, 0, 72, 95
1, 65023, Note_on_c, 0, 68, 109
1, 65106, Note_off_c, 0, 68, 109
1, 65123, Note_on_c, 0, 67, 112
1, 65219, Note_off_c, 0, 67, 112
1, 65232, Note_on_c, 0, 65, 116
1, 65345, Note_off_c, 0, 65, 116
1, 65638, Note_on_c, 0, 78, 111
1, 65747, Note_off_c, 0, 78, 111
1, 65747, Note_on_c, 0, 74, 107
1, 65832, Note_off_c, 0, 74, 107
1, 65858, Note_on_c, 0, 71, 101
1, 65948, Note_off_c, 0, 71, 101
1, 65966, Note_on_c, 0, 67, 110
1, 66056, Note_off_c, 0, 67, 110
1, 66143, Note_on_c, 0, 74, 115
1, 66173, Note_off_c, 0, 74, 115
1, 66173, Note_on_c, 0, 76, 118
1, 66233, Note_off_c, 0, 76, 118
1, 66236, Note_on_c, 0, 77, 104
1, 66376, Note_off_c, 0, 77, 104
1, 66394, Note_on_c, 0, 73, 109
1, 66483, Note_off_c, 0, 73, 109
1, 66503, Note_on_c, 0, 70, 104
1, 66584, Note_off_c, 0, 70, 104
1, 66602, Note_on_c, 0, 66, 113
1, 66664, Note_off_c, 0, 66, 113
1, 66681, Note_on_c, 0, 65, 116
1, 66821, Note_off_c, 0, 65, 116
1, 67143, Note_on_c, 0, 74, 113
1, 67205, Note_off_c, 0, 74, 113
1, 67205, Note_on_c, 0, 75, 117
1, 67273, Note_off_c, 0, 75, 117
1, 67276, Note_on_c, 0, 74, 100
1, 67323, Note_off_c, 0, 74, 100
1, 67334, Note_on_c, 0, 72, 96
1, 67415, Note_off_c, 0, 72, 96
1, 67428, Note_on_c, 0, 68, 108
1, 67505, Note_off_c, 0, 68, 108
1, 67522, Note_on_c, 0, 65, 113
1, 67603, Note_off_c, 0, 65, 113
1, 67614, Note_on_c, 0, 60, 110
1, 67678, Note_off_c, 0, 60, 110
1, 67704, Note_on_c, 0, 63, 125
1, 67798, Note_off_c, 0, 63, 125
1, 67822, Note_on_c, 0, 60, 102
1, 67873, Note_off_c, 0, 60, 102
1, 67897, Note_on_c, 0, 62, 121
1, 67991, Note_off_c, 0, 62, 121
1, 68006, Note_on_c, 0, 70, 115
1, 68151, Note_off_c, 0, 70, 115
1, 68408, Note_on_c, 0, 63, 112
1, 68478, Note_off_c, 0, 63, 112
1, 68570, Note_on_c, 0, 65, 104
1, 68647, Note_off_c, 0, 65, 104
1, 68667, Note_on_c, 0, 66, 100
1, 68729, Note_off_c, 0, 66, 100
1, 68751, Note_on_c, 0, 66, 106
1, 68813, Note_off_c, 0, 66, 106
1, 68828, Note_on_c, 0, 68, 111
1, 68911, Note_off_c, 0, 68, 111
1, 68929, Note_on_c, 0, 68, 107
1, 69002, Note_off_c, 0, 68, 107
1, 69011, Note_on_c, 0, 70, 111
1, 69081, Note_off_c, 0, 70, 111
1, 69107, Note_on_c, 0, 70, 108
1, 69186, Note_off_c, 0, 70, 108
1, 69208, Note_on_c, 0, 72, 111
1, 69249, Note_off_c, 0, 72, 111
1, 69262, Note_on_c, 0, 73, 108
1, 69388, Note_off_c, 0, 73, 108
1, 69414, Note_on_c, 0, 72, 107
1, 69531, Note_off_c, 0, 72, 107
1, 69531, Note_on_c, 0, 76, 102
1, 69572, Note_off_c, 0, 76, 102
1, 69579, Note_on_c, 0, 77, 104
1, 69791, Note_off_c, 0, 77, 104
1, 69830, Note_on_c, 0, 75, 108
1, 69930, Note_off_c, 0, 75, 108
1, 69966, Note_on_c, 0, 73, 110
1, 70062, Note_off_c, 0, 73, 110
1, 70071, Note_on_c, 0, 67, 88
1, 70370, Note_off_c, 0, 67, 88
1, 70709, Note_on_c, 0, 54, 107
1, 70799, Note_off_c, 0, 54, 107
1, 70808, Note_on_c, 0, 56, 109
1, 70844, Note_off_c, 0, 56, 109
1, 70847, Note_on_c, 0, 59, 106
1, 70877, Note_off_c, 0, 59, 106
1, 70878, Note_on_c, 0, 61, 108
1, 70934, Note_off_c, 0, 61, 108
1, 70937, Note_on_c, 0, 63, 119
1, 70982, Note_off_c, 0, 63, 119
1, 70983, Note_on_c, 0, 66, 104
1, 71010, Note_off_c, 0, 66, 104
1, 71010, Note_on_c, 0, 68, 104
1, 71021, Note_off_c, 0, 68, 104
1, 71021, Note_on_c, 0, 70, 113
1, 71048, Note_off_c, 0, 70, 113
1, 71053, Note_on_c, 0, 72, 117
1, 71102, Note_off_c, 0, 72, 117
1, 71113, Note_on_c, 0, 67, 115
1, 71253, Note_off_c, 0, 67, 115
1, 71292, Note_on_c, 0, 72, 112
1, 71339, Note_off_c, 0, 72, 112
1, 71369, Note_on_c, 0, 65, 101
1, 71518, Note_off_c, 0, 65, 101
1, 72454, Note_on_c, 0, 63, 115
1, 72491, Note_off_c, 0, 63, 115
1, 72498, Note_on_c, 0, 64, 109
1, 72530, Note_off_c, 0, 64, 109
1, 72547, Note_on_c, 0, 65, 111
1, 73850, Note_off_c, 0, 65, 111
1, 73956, Note_on_c, 0, 64, 113
1, 74029, Note_off_c, 0, 64, 113
1, 74044, Note_on_c, 0, 65, 113
1, 74133, Note_off_c, 0, 65, 113
1, 74148, Note_on_c, 0, 66, 111
1, 74204, Note_off_c, 0, 66, 111
1, 74232, Note_on_c, 0, 65, 114
1, 74358, Note_off_c, 0, 65, 114
1, 74367, Note_on_c, 0, 63, 115
1, 74440, Note_off_c, 0, 63, 115
1, 74466, Note_on_c, 0, 65, 112
1, 74553, Note_off_c, 0, 65, 112
1, 74581, Note_on_c, 0, 65, 100
1, 74698, Note_off_c, 0, 65, 100
1, 75298, Note_on_c, 0, 65, 113
1, 75343, Note_off_c, 0, 65, 113
1, 75411, Note_on_c, 0, 65, 115
1, 75530, Note_off_c, 0, 65, 115
1, 75613, Note_on_c, 0, 65, 98
1, 75654, Note_off_c, 0, 65, 98
1, 75682, Note_on_c, 0, 65, 115
1, 75844, Note_off_c, 0, 65, 115
1, 75880, Note_on_c, 0, 65, 98
1, 75967, Note_off_c, 0, 65, 98
1, 75993, Note_on_c, 0, 65, 118
1, 76152, Note_off_c, 0, 65, 118
1, 76205, Note_on_c, 0, 65, 97
1, 76250, Note_off_c, 0, 65, 97
1, 76301, Note_on_c, 0, 65, 123
1, 76460, Note_off_c, 0, 65, 123
1, 76496, Note_on_c, 0, 65, 106
1, 76533, Note_off_c, 0, 65, 106
1, 76580, Note_on_c, 0, 65, 114
1, 76619, Note_off_c, 0, 65, 114
1, 76696, Note_on_c, 0, 65, 114
1, 76936, Note_off_c, 0, 65, 114
1, 76972, Note_on_c, 0, 63, 117
1, 77045, Note_off_c, 0, 63, 117
1, 77073, Note_on_c, 0, 61, 97
1, 77124, Note_off_c, 0, 61, 97
1, 77156, Note_on_c, 0, 63, 9
1, 77281, Note_off_c, 0, 63, 9
1, 77286, Note_on_c, 0, 65, 107
1, 77479, Note_off_c, 0, 65, 107
1, 77961, Note_on_c, 0, 64, 114
1, 78014, Note_off_c, 0, 64, 114
1, 78035, Note_on_c, 0, 65, 115
1, 78091, Note_off_c, 0, 65, 115
1, 78098, Note_on_c, 0, 64, 113
1, 78524, Note_off_c, 0, 64, 113
1, 78561, Note_on_c, 0, 70, 116
1, 78631, Note_off_c, 0, 70, 116
1, 78657, Note_on_c, 0, 64, 118
1, 78710, Note_off_c, 0, 64, 118
1, 78710, Note_on_c, 0, 65, 118
1, 78742, Note_off_c, 0, 65, 118
1, 78749, Note_on_c, 0, 64, 121
1, 78834, Note_off_c, 0, 64, 121
1, 78849, Note_on_c, 0, 63, 120
1, 78936, Note_off_c, 0, 63, 120
1, 78953, Note_on_c, 0, 61, 112
1, 79015, Note_off_c, 0, 61, 112
1, 79045, Note_on_c, 0, 58, 99
1, 79120, Note_off_c, 0, 58, 99
1, 79142, Note_on_c, 0, 58, 100
1, 79223, Note_off_c, 0, 58, 100
1, 79240, Note_on_c, 0, 58, 99
1, 79291, Note_off_c, 0, 58, 99
1, 79336, Note_on_c, 0, 58, 102
1, 79398, Note_off_c, 0, 58, 102
1, 79416, Note_on_c, 0, 61, 112
1, 79535, Note_off_c, 0, 61, 112
1, 79546, Note_on_c, 0, 58, 98
1, 79593, Note_off_c, 0, 58, 98
1, 79640, Note_on_c, 0, 58, 96
1, 79689, Note_off_c, 0, 58, 96
1, 79723, Note_on_c, 0, 58, 94
1, 79783, Note_off_c, 0, 58, 94
1, 79796, Note_on_c, 0, 63, 118
1, 79902, Note_off_c, 0, 63, 118
1, 79909, Note_on_c, 0, 58, 98
1, 79958, Note_off_c, 0, 58, 98
1, 80007, Note_on_c, 0, 58, 86
1, 80063, Note_off_c, 0, 58, 86
1, 80112, Note_on_c, 0, 58, 92
1, 80165, Note_off_c, 0, 58, 92
1, 80174, Note_on_c, 0, 63, 113
1, 80213, Note_off_c, 0, 63, 113
1, 80220, Note_on_c, 0, 65, 107
1, 80274, Note_off_c, 0, 65, 107
1, 80281, Note_on_c, 0, 64, 113
1, 80351, Note_off_c, 0, 64, 113
1, 80356, Note_on_c, 0, 63, 113
1, 80437, Note_off_c, 0, 63, 113
1, 80474, Note_on_c, 0, 61, 106
1, 80542, Note_off_c, 0, 61, 106
1, 80557, Note_on_c, 0, 58, 95
1, 80678, Note_off_c, 0, 58, 95
1, 80678, Note_on_c, 0, 60, 106
1, 80738, Note_off_c, 0, 60, 106
1, 80751, Note_on_c, 0, 61, 105
1, 80845, Note_off_c, 0, 61, 105
1, 81333, Note_on_c, 0, 60, 118
1, 81425, Note_off_c, 0, 60, 118
1, 81434, Note_on_c, 0, 61, 108
1, 81530, Note_off_c, 0, 61, 108
1, 81530, Note_on_c, 0, 60, 110
1, 81607, Note_off_c, 0, 60, 110
1, 81624, Note_on_c, 0, 58, 101
1, 81697, Note_off_c, 0, 58, 101
1, 81700, Note_on_c, 0, 57, 103
1, 81777, Note_off_c, 0, 57, 103
1, 81792, Note_on_c, 0, 54, 103
1, 81854, Note_off_c, 0, 54, 103
1, 81867, Note_on_c, 0, 53, 109
1, 81975, Note_off_c, 0, 53, 109
1, 82001, Note_on_c, 0, 51, 106
1, 82061, Note_off_c, 0, 51, 106
1, 82079, Note_on_c, 0, 53, 105
1, 82147, Note_off_c, 0, 53, 105
1, 82175, Note_on_c, 0, 46, 104
1, 82555, Note_off_c, 0, 46, 104
1, 82789, Note_on_c, 0, 54, 104
1, 82904, Note_off_c, 0, 54, 104
1, 82940, Note_on_c, 0, 47, 106
1, 83351, Note_off_c, 0, 47, 106
1, 83595, Note_on_c, 0, 53, 99
1, 83667, Note_off_c, 0, 53, 99
1, 83685, Note_on_c, 0, 46, 116
1, 84211, Note_off_c, 0, 46, 116
1, 84286, Note_on_c, 0, 59, 105
1, 84367, Note_off_c, 0, 59, 105
1, 84397, Note_on_c, 0, 47, 113
1, 84639, Note_off_c, 0, 47, 113
1, 84639, Note_on_c, 0, 59, 110
1, 84731, Note_off_c, 0, 59, 110
1, 84747, Note_on_c, 0, 54, 105
1, 85046, Note_off_c, 0, 54, 105
1, 85393, Note_on_c, 0, 46, 108
1, 85501, Note_off_c, 0, 46, 108
1, 85510, Note_on_c, 0, 53, 108
1, 85580, Note_off_c, 0, 53, 108
1, 85589, Note_on_c, 0, 58, 96
1, 85666, Note_off_c, 0, 58, 96
1, 85694, Note_on_c, 0, 65, 101
1, 85775, Note_off_c, 0, 65, 101
1, 85790, Note_on_c, 0, 70, 112
1, 85877, Note_off_c, 0, 70, 112
1, 85894, Note_on_c, 0, 65, 100
1, 85975, Note_off_c, 0, 65, 100
1, 85975, Note_on_c, 0, 70, 111
1, 86056, Note_off_c, 0, 70, 111
1, 86067, Note_on_c, 0, 65, 108
1, 86152, Note_off_c, 0, 65, 108
1, 86169, Note_on_c, 0, 60, 111
1, 86267, Note_off_c, 0, 60, 111
1, 86267, Note_on_c, 0, 58, 106
1, 86342, Note_off_c, 0, 58, 106
1, 86359, Note_on_c, 0, 54, 108
1, 86423, Note_off_c, 0, 54, 108
1, 86428, Note_on_c, 0, 53, 95
1, 86517, Note_off_c, 0, 53, 95
1, 86528, Note_on_c, 0, 58, 98
1, 86732, Note_off_c, 0, 58, 98
1, 86860, Note_on_c, 0, 61, 113
1, 86990, Note_off_c, 0, 61, 113
1, 87558, Note_on_c, 0, 63, 122
1, 87605, Note_off_c, 0, 63, 122
1, 87614, Note_on_c, 0, 64, 119
1, 87691, Note_off_c, 0, 64, 119
1, 87704, Note_on_c, 0, 65, 113
1, 87813, Note_off_c, 0, 65, 113
1, 88349, Note_on_c, 0, 58, 108
1, 88388, Note_off_c, 0, 58, 108
1, 88401, Note_on_c, 0, 60, 112
1, 88454, Note_off_c, 0, 60, 112
1, 88454, Note_on_c, 0, 62, 115
1, 88503, Note_off_c, 0, 62, 115
1, 88503, Note_on_c, 0, 63, 114
1, 88552, Note_off_c, 0, 63, 114
1, 88555, Note_on_c, 0, 67, 108
1, 88606, Note_on_c, 0, 68, 116
1, 88606, Note_off_c, 0, 67, 108
1, 88657, Note_off_c, 0, 68, 116
1, 88674, Note_on_c, 0, 70, 114
1, 88818, Note_off_c, 0, 70, 114
1, 89098, Note_on_c, 0, 67, 110
1, 89202, Note_off_c, 0, 67, 110
1, 89211, Note_on_c, 0, 68, 116
1, 89305, Note_off_c, 0, 68, 116
1, 89329, Note_on_c, 0, 65, 114
1, 89418, Note_off_c, 0, 65, 114
1, 89520, Note_on_c, 0, 70, 111
1, 89565, Note_off_c, 0, 70, 111
1, 89565, Note_on_c, 0, 67, 112
1, 89593, Note_off_c, 0, 67, 112
1, 89593, Note_on_c, 0, 64, 115
1, 89699, Note_off_c, 0, 64, 115
1, 89710, Note_on_c, 0, 66, 106
1, 89791, Note_off_c, 0, 66, 106
1, 89809, Note_on_c, 0, 67, 107
1, 89915, Note_off_c, 0, 67, 107
1, 89918, Note_on_c, 0, 69, 107
1, 90007, Note_off_c, 0, 69, 107
1, 90007, Note_on_c, 0, 71, 106
1, 90103, Note_off_c, 0, 71, 106
1, 90182, Note_on_c, 0, 76, 119
1, 90341, Note_off_c, 0, 76, 119
1, 90361, Note_on_c, 0, 75, 111
1, 90662, Note_off_c, 0, 75, 111
1, 90680, Note_on_c, 0, 70, 103
1, 90765, Note_off_c, 0, 70, 103
1, 90774, Note_on_c, 0, 66, 108
1, 90866, Note_off_c, 0, 66, 108
1, 90877, Note_on_c, 0, 63, 108
1, 90966, Note_off_c, 0, 63, 108
1, 90975, Note_on_c, 0, 65, 105
1, 91058, Note_off_c, 0, 65, 105
1, 91158, Note_on_c, 0, 63, 113
1, 91434, Note_off_c, 0, 63, 113
1, 91456, Note_on_c, 0, 65, 104
1, 91600, Note_off_c, 0, 65, 104
1, 92202, Note_on_c, 0, 69, 113
1, 92236, Note_off_c, 0, 69, 113
1, 92241, Note_on_c, 0, 70, 103
1, 92536, Note_off_c, 0, 70, 103
1, 92598, Note_on_c, 0, 66, 100
1, 92664, Note_off_c, 0, 66, 100
1, 92715, Note_on_c, 0, 73, 110
1, 92796, Note_off_c, 0, 73, 110
1, 92796, Note_on_c, 0, 72, 110
1, 92822, Note_off_c, 0, 72, 110
1, 92823, Note_on_c, 0, 71, 115
1, 92847, Note_off_c, 0, 71, 115
1, 92869, Note_on_c, 0, 70, 109
1, 92984, Note_off_c, 0, 70, 109
1, 93001, Note_on_c, 0, 70, 108
1, 93116, Note_off_c, 0, 70, 108
1, 93123, Note_on_c, 0, 67, 103
1, 93185, Note_off_c, 0, 67, 103
1, 93224, Note_on_c, 0, 66, 100
1, 93432, Note_off_c, 0, 66, 100
1, 93443, Note_on_c, 0, 65, 110
1, 93518, Note_off_c, 0, 65, 110
1, 93518, Note_on_c, 0, 64, 112
1, 93569, Note_off_c, 0, 64, 112
1, 93574, Note_on_c, 0, 63, 115
1, 93714, Note_off_c, 0, 63, 115
1, 93729, Note_on_c, 0, 61, 103
1, 93791, Note_off_c, 0, 61, 103
1, 93804, Note_on_c, 0, 60, 101
1, 94042, Note_off_c, 0, 60, 101
1, 94078, Note_on_c, 0, 58, 99
1, 94136, Note_off_c, 0, 58, 99
1, 94173, Note_on_c, 0, 57, 106
1, 94284, Note_off_c, 0, 57, 106
1, 94312, Note_on_c, 0, 65, 101
1, 94359, Note_off_c, 0, 65, 101
1, 94362, Note_on_c, 0, 66, 105
1, 94401, Note_off_c, 0, 66, 105
1, 94421, Note_on_c, 0, 65, 100
1, 94470, Note_off_c, 0, 65, 100
1, 94492, Note_on_c, 0, 63, 97
1, 94564, Note_off_c, 0, 63, 97
1, 94567, Note_on_c, 0, 65, 107
1, 94815, Note_off_c, 0, 65, 107
1, 95193, Note_on_c, 0, 62, 115
1, 95285, Note_off_c, 0, 62, 115
1, 95285, Note_on_c, 0, 63, 118
1, 95366, Note_off_c, 0, 63, 118
1, 95383, Note_on_c, 0, 61, 106
1, 95494, Note_off_c, 0, 61, 106
1, 95497, Note_on_c, 0, 69, 112
1, 95567, Note_off_c, 0, 69, 112
1, 95580, Note_on_c, 0, 63, 99
1, 95659, Note_off_c, 0, 63, 99
1, 95687, Note_on_c, 0, 65, 106
1, 95787, Note_off_c, 0, 65, 106
1, 95811, Note_on_c, 0, 65, 102
1, 95943, Note_off_c, 0, 65, 102
1, 95972, Note_on_c, 0, 67, 101
1, 95996, Note_off_c, 0, 67, 101
1, 96000, Note_on_c, 0, 70, 104
1, 96018, Note_off_c, 0, 70, 104
1, 96025, Note_on_c, 0, 72, 102
1, 96053, Note_off_c, 0, 72, 102
1, 96066, Note_on_c, 0, 67, 102
1, 96170, Note_off_c, 0, 67, 102
1, 96190, Note_on_c, 0, 65, 106
1, 96335, Note_off_c, 0, 65, 106
1, 96941, Note_on_c, 0, 70, 97
1, 97016, Note_off_c, 0, 70, 97
1, 97038, Note_on_c, 0, 70, 96
1, 97115, Note_off_c, 0, 70, 96
1, 97130, Note_on_c, 0, 70, 94
1, 97192, Note_off_c, 0, 70, 94
1, 97218, Note_on_c, 0, 70, 100
1, 97265, Note_off_c, 0, 70, 100
1, 97295, Note_on_c, 0, 70, 105
1, 97353, Note_off_c, 0, 70, 105
1, 97415, Note_on_c, 0, 70, 109
1, 97468, Note_off_c, 0, 70, 109
1, 97504, Note_on_c, 0, 70, 113
1, 97574, Note_off_c, 0, 70, 113
1, 97596, Note_on_c, 0, 70, 112
1, 97662, Note_off_c, 0, 70, 112
1, 97696, Note_on_c, 0, 70, 109
1, 97762, Note_off_c, 0, 70, 109
1, 97779, Note_on_c, 0, 70, 111
1, 97845, Note_off_c, 0, 70, 111
1, 97888, Note_on_c, 0, 70, 108
1, 98022, Note_off_c, 0, 70, 108
1, 98181, Note_on_c, 0, 73, 97
1, 98254, Note_off_c, 0, 73, 97
1, 98492, Note_on_c, 0, 58, 88
1, 98562, Note_off_c, 0, 58, 88
1, 98569, Note_on_c, 0, 58, 102
1, 98642, Note_off_c, 0, 58, 102
1, 98657, Note_on_c, 0, 58, 96
1, 98713, Note_off_c, 0, 58, 96
1, 98747, Note_on_c, 0, 58, 103
1, 98815, Note_off_c, 0, 58, 103
1, 98851, Note_on_c, 0, 58, 98
1, 98894, Note_off_c, 0, 58, 98
1, 98935, Note_on_c, 0, 58, 97
1, 98993, Note_off_c, 0, 58, 97
1, 99019, Note_on_c, 0, 58, 104
1, 99083, Note_off_c, 0, 58, 104
1, 99117, Note_on_c, 0, 58, 112
1, 99173, Note_off_c, 0, 58, 112
1, 99201, Note_on_c, 0, 58, 99
1, 99254, Note_off_c, 0, 58, 99
1, 99307, Note_on_c, 0, 58, 106
1, 99369, Note_off_c, 0, 58, 106
1, 99380, Note_on_c, 0, 60, 113
1, 99429, Note_off_c, 0, 60, 113
1, 99432, Note_on_c, 0, 61, 112
1, 99549, Note_off_c, 0, 61, 112
1, 99581, Note_on_c, 0, 60, 114
1, 99617, Note_off_c, 0, 60, 114
1, 99617, Note_on_c, 0, 61, 111
1, 99728, Note_off_c, 0, 61, 111
1, 99756, Note_on_c, 0, 58, 97
1, 99848, Note_off_c, 0, 58, 97
1, 99870, Note_on_c, 0, 53, 113
1, 99938, Note_off_c, 0, 53, 113
1, 99981, Note_on_c, 0, 57, 104
1, 100053, Note_off_c, 0, 57, 104
1, 100070, Note_on_c, 0, 60, 114
1, 100159, Note_off_c, 0, 60, 114
1, 100162, Note_on_c, 0, 58, 98
1, 100298, Note_off_c, 0, 58, 98
1, 100298, Note_on_c, 0, 55, 96
1, 100652, Note_off_c, 0, 55, 96
1, 100652, End_track
0, 0, End_of_file
