0, 0, Header, 1, 1, 192
1, 0, Start_track
1, 0, Title_t, "Melody"
1, 0, Tempo, 259740
1, 0, Key_signature, -3, "major"
1, 0, Time_signature, 4, 2, 24, 8
1, 4076, Note_on_c, 0, 67, 107
1, 4192, Note_off_c, 0, 67, 107
1, 4270, Note_on_c, 0, 67, 111
1, 4386, Note_off_c, 0, 67, 111
1, 4416, Note_on_c, 0, 67, 88
1, 4527, Note_off_c, 0, 67, 88
1, 4540, Note_on_c, 0, 68, 118
1, 4642, Note_off_c, 0, 68, 118
1, 4667, Note_on_c, 0, 67, 119
1, 5010, Note_off_c, 0, 67, 119
1, 5052, Note_on_c, 0, 65, 102
1, 5159, Note_off_c, 0, 65, 102
1, 5183, Note_on_c, 0, 64, 104
1, 5241, Note_off_c, 0, 64, 104
1, 5265, Note_on_c, 0, 63, 100
1, 5601, Note_off_c, 0, 63, 100
1, 5653, Note_on_c, 0, 60, 106
1, 5729, Note_off_c, 0, 60, 106
1, 5784, Note_on_c, 0, 60, 103
1, 5986, Note_off_c, 0, 60, 103
1, 6028, Note_on_c, 0, 55, 103
1, 6156, Note_off_c, 0, 55, 103
1, 6190, Note_on_c, 0, 55, 108
1, 6333, Note_off_c, 0, 55, 108
1, 6355, Note_on_c, 0, 55, 110
1, 6424, Note_off_c, 0, 55, 110
1, 6433, Note_on_c, 0, 56, 103
1, 6574, Note_off_c, 0, 56, 103
1, 6602, Note_on_c, 0, 55, 102
1, 6710, Note_off_c, 0, 55, 102
1, 6814, Note_on_c, 0, 60, 104
1, 7087, Note_off_c, 0, 60, 104
1, 7099, Note_on_c, 0, 62, 100
1, 7166, Note_off_c, 0, 62, 100
1, 7181, Note_on_c, 0, 60, 106
1, 7292, Note_off_c, 0, 60, 106
1, 7349, Note_on_c, 0, 54, 95
1, 7398, Note_off_c, 0, 54, 95
1, 7408, Note_on_c, 0, 55, 102
1, 7525, Note_off_c, 0, 55, 102
1, 7568, Note_on_c, 0, 60, 105
1, 7635, Note_off_c, 0, 60, 105
1, 7693, Note_on_c, 0, 60, 109
1, 7825, Note_off_c, 0, 60, 109
1, 7885, Note_on_c, 0, 60, 95
1, 8046, Note_off_c, 0, 60, 95
1, 9135, Note_on_c, 0, 67, 127
1, 9446, Note_off_c, 0, 67, 127
1, 9482, Note_on_c, 0, 68, 121
1, 9868, Note_off_c, 0, 68, 121
1, 9909, Note_on_c, 0, 67, 123
1, 9948, Note_off_c, 0, 67, 123
1, 9948, Note_on_c, 0, 66, 109
1, 10024, Note_off_c, 0, 66, 109
1, 10085, Note_on_c, 0, 60, 109
1, 10195, Note_off_c, 0, 60, 109
1, 10284, Note_on_c, 0, 60, 112
1, 10391, Note_off_c, 0, 60, 112
1, 10489, Note_on_c, 0, 60, 109
1, 10618, Note_off_c, 0, 60, 109
1, 10678, Note_on_c, 0, 63, 108
1, 10801, Note_off_c, 0, 63, 108
1, 10819, Note_on_c, 0, 64, 102
1, 11055, Note_off_c, 0, 64, 102
1, 11065, Note_on_c, 0, 60, 104
1, 11209, Note_off_c, 0, 60, 104
1, 11248, Note_on_c, 0, 63, 101
1, 11409, Note_off_c, 0, 63, 101
1, 11430, Note_on_c, 0, 60, 105
1, 11494, Note_off_c, 0, 60, 105
1, 11620, Note_on_c, 0, 55, 99
1, 11764, Note_off_c, 0, 55, 99
1, 11812, Note_on_c, 0, 56, 101
1, 11999, Note_off_c, 0, 56, 101
1, 12041, Note_on_c, 0, 55, 100
1, 12179, Note_off_c, 0, 55, 100
1, 12218, Note_on_c, 0, 60, 109
1, 12294, Note_off_c, 0, 60, 109
1, 12321, Note_on_c, 0, 60, 111
1, 12382, Note_off_c, 0, 60, 111
1, 12391, Note_on_c, 0, 60, 104
1, 12472, Note_off_c, 0, 60, 104
1, 12499, Note_on_c, 0, 60, 98
1, 12586, Note_off_c, 0, 60, 98
1, 12622, Note_on_c, 0, 61, 107
1, 12647, Note_off_c, 0, 61, 107
1, 12654, Note_on_c, 0, 62, 106
1, 12714, Note_off_c, 0, 62, 106
1, 12750, Note_on_c, 0, 60, 107
1, 12846, Note_off_c, 0, 60, 107
1, 12904, Note_on_c, 0, 60, 98
1, 12982, Note_off_c, 0, 60, 98
1, 13025, Note_on_c, 0, 55, 100
1, 13115, Note_off_c, 0, 55, 100
1, 13148, Note_on_c, 0, 55, 115
1, 13244, Note_off_c, 0, 55, 115
1, 13271, Note_on_c, 0, 55, 107
1, 13369, Note_off_c, 0, 55, 107
1, 13388, Note_on_c, 0, 56, 111
1, 13487, Note_off_c, 0, 56, 111
1, 13508, Note_on_c, 0, 55, 107
1, 13637, Note_off_c, 0, 55, 107
1, 13715, Note_on_c, 0, 60, 93
1, 14291, Note_off_c, 0, 60, 93
1, 14929, Note_on_c, 0, 68, 125
1, 15051, Note_off_c, 0, 68, 125
1, 15063, Note_on_c, 0, 69, 121
1, 15268, Note_off_c, 0, 69, 121
1, 15328, Note_on_c, 0, 67, 120
1, 15430, Note_off_c, 0, 67, 120
1, 15477, Note_on_c, 0, 67, 109
1, 15620, Note_off_c, 0, 67, 109
1, 15718, Note_on_c, 0, 60, 105
1, 15928, Note_off_c, 0, 60, 105
1, 16056, Note_on_c, 0, 67, 125
1, 16169, Note_off_c, 0, 67, 125
1, 16196, Note_on_c, 0, 67, 123
1, 16283, Note_off_c, 0, 67, 123
1, 16349, Note_on_c, 0, 67, 101
1, 16441, Note_off_c, 0, 67, 101
1, 16466, Note_on_c, 0, 69, 108
1, 16620, Note_off_c, 0, 69, 108
1, 16641, Note_on_c, 0, 67, 118
1, 16771, Note_off_c, 0, 67, 118
1, 16805, Note_on_c, 0, 67, 106
1, 16985, Note_off_c, 0, 67, 106
1, 17040, Note_on_c, 0, 60, 104
1, 17173, Note_off_c, 0, 60, 104
1, 17239, Note_on_c, 0, 63, 96
1, 17580, Note_off_c, 0, 63, 96
1, 17614, Note_on_c, 0, 60, 107
1, 17729, Note_off_c, 0, 60, 107
1, 17765, Note_on_c, 0, 60, 110
1, 17872, Note_off_c, 0, 60, 110
1, 17919, Note_on_c, 0, 63, 89
1, 18330, Note_off_c, 0, 63, 89
1, 18769, Note_on_c, 0, 53, 106
1, 18878, Note_off_c, 0, 53, 106
1, 18905, Note_on_c, 0, 58, 109
1, 19025, Note_off_c, 0, 58, 109
1, 19087, Note_on_c, 0, 53, 98
1, 19138, Note_off_c, 0, 53, 98
1, 19155, Note_on_c, 0, 58, 107
1, 19277, Note_off_c, 0, 58, 107
1, 19345, Note_on_c, 0, 62, 96
1, 19480, Note_off_c, 0, 62, 96
1, 19548, Note_on_c, 0, 65, 108
1, 19655, Note_off_c, 0, 65, 108
1, 19723, Note_on_c, 0, 65, 110
1, 19825, Note_off_c, 0, 65, 110
1, 19846, Note_on_c, 0, 64, 106
1, 19903, Note_off_c, 0, 64, 106
1, 19935, Note_on_c, 0, 63, 89
1, 20063, Note_off_c, 0, 63, 89
1, 20111, Note_on_c, 0, 55, 107
1, 20220, Note_off_c, 0, 55, 107
1, 20291, Note_on_c, 0, 55, 103
1, 20634, Note_off_c, 0, 55, 103
1, 20688, Note_on_c, 0, 56, 120
1, 20803, Note_off_c, 0, 56, 120
1, 20844, Note_on_c, 0, 55, 110
1, 20962, Note_off_c, 0, 55, 110
1, 21022, Note_on_c, 0, 60, 106
1, 21717, Note_off_c, 0, 60, 106
1, 22054, Note_on_c, 0, 65, 98
1, 22099, Note_off_c, 0, 65, 98
1, 22118, Note_on_c, 0, 68, 114
1, 22169, Note_off_c, 0, 68, 114
1, 22186, Note_on_c, 0, 71, 122
1, 22233, Note_off_c, 0, 71, 122
1, 22248, Note_on_c, 0, 72, 93
1, 22357, Note_off_c, 0, 72, 93
1, 22451, Note_on_c, 0, 60, 111
1, 22523, Note_off_c, 0, 60, 111
1, 22623, Note_on_c, 0, 60, 108
1, 22865, Note_off_c, 0, 60, 108
1, 22890, Note_on_c, 0, 61, 97
1, 22960, Note_off_c, 0, 61, 97
1, 22996, Note_on_c, 0, 60, 88
1, 23131, Note_off_c, 0, 60, 88
1, 23199, Note_on_c, 0, 55, 111
1, 23426, Note_off_c, 0, 55, 111
1, 23447, Note_on_c, 0, 55, 96
1, 23595, Note_off_c, 0, 55, 96
1, 23605, Note_on_c, 0, 56, 113
1, 23755, Note_off_c, 0, 56, 113
1, 23778, Note_on_c, 0, 55, 114
1, 24044, Note_off_c, 0, 55, 114
1, 24060, Note_on_c, 0, 56, 105
1, 24120, Note_off_c, 0, 56, 105
1, 24175, Note_on_c, 0, 63, 109
1, 24499, Note_off_c, 0, 63, 109
1, 24521, Note_on_c, 0, 62, 108
1, 24616, Note_off_c, 0, 62, 108
1, 24635, Note_on_c, 0, 60, 105
1, 24742, Note_off_c, 0, 60, 105
1, 24781, Note_on_c, 0, 55, 100
1, 25280, Note_off_c, 0, 55, 100
1, 25674, Note_on_c, 0, 56, 122
1, 25783, Note_off_c, 0, 56, 122
1, 25817, Note_on_c, 0, 55, 107
1, 25930, Note_off_c, 0, 55, 107
1, 25990, Note_on_c, 0, 62, 109
1, 26058, Note_off_c, 0, 62, 109
1, 26073, Note_on_c, 0, 63, 106
1, 26444, Note_off_c, 0, 63, 106
1, 26476, Note_on_c, 0, 60, 110
1, 26566, Note_off_c, 0, 60, 110
1, 26619, Note_on_c, 0, 60, 110
1, 26694, Note_off_c, 0, 60, 110
1, 26736, Note_on_c, 0, 60, 106
1, 26841, Note_off_c, 0, 60, 106
1, 26860, Note_on_c, 0, 60, 106
1, 26969, Note_off_c, 0, 60, 106
1, 27005, Note_on_c, 0, 55, 105
1, 27116, Note_off_c, 0, 55, 105
1, 27154, Note_on_c, 0, 55, 96
1, 27497, Note_off_c, 0, 55, 96
1, 27497, End_track
0, 0, End_of_file
