0, 0, Header, 1, 1, 192
1, 0, Start_track
1, 0, Title_t, "Melody"
1, 0, Tempo, 346820
1, 0, Key_signature, -5, "major"
1, 0, Time_signature, 4, 2, 24, 8
1, 3179, Note_on_c, 0, 70, 85
1, 3267, Note_off_c, 0, 70, 85
1, 3376, Note_on_c, 0, 70, 95
1, 3445, Note_off_c, 0, 70, 95
1, 3577, Note_on_c, 0, 70, 94
1, 3684, Note_off_c, 0, 70, 94
1, 3785, Note_on_c, 0, 68, 75
1, 3820, Note_off_c, 0, 68, 75
1, 3832, Note_on_c, 0, 70, 103
1, 3946, Note_off_c, 0, 70, 103
1, 4030, Note_on_c, 0, 70, 113
1, 4129, Note_off_c, 0, 70, 113
1, 4215, Note_on_c, 0, 70, 115
1, 4324, Note_off_c, 0, 70, 115
1, 4336, Note_on_c, 0, 64, 110
1, 4383, Note_off_c, 0, 64, 110
1, 4388, Note_on_c, 0, 65, 107
1, 4508, Note_off_c, 0, 65, 107
1, 4528, Note_on_c, 0, 60, 91
1, 4574, Note_off_c, 0, 60, 91
1, 4596, Note_on_c, 0, 61, 107
1, 4702, Note_off_c, 0, 61, 107
1, 4780, Note_on_c, 0, 58, 111
1, 4892, Note_off_c, 0, 58, 111
1, 4921, Note_on_c, 0, 61, 93
1, 5189, Note_off_c, 0, 61, 93
1, 5478, Note_on_c, 0, 61, 108
1, 5529, Note_off_c, 0, 61, 108
1, 5538, Note_on_c, 0, 64, 113
1, 5624, Note_off_c, 0, 64, 113
1, 5638, Note_on_c, 0, 65, 112
1, 5707, Note_off_c, 0, 65, 112
1, 5731, Note_on_c, 0, 61, 112
1, 5816, Note_off_c, 0, 61, 112
1, 5843, Note_on_c, 0, 58, 97
1, 5915, Note_off_c, 0, 58, 97
1, 5917, Note_on_c, 0, 61, 114
1, 6019, Note_off_c, 0, 61, 114
1, 6025, Note_on_c, 0, 61, 109
1, 6110, Note_off_c, 0, 61, 109
1, 6125, Note_on_c, 0, 56, 107
1, 6234, Note_off_c, 0, 56, 107
1, 6261, Note_on_c, 0, 52, 114
1, 6405, Note_off_c, 0, 52, 114
1, 6417, Note_on_c, 0, 53, 109
1, 6715, Note_off_c, 0, 53, 109
1, 6788, Note_on_c, 0, 61, 111
1, 6861, Note_off_c, 0, 61, 111
1, 6885, Note_on_c, 0, 64, 117
1, 6925, Note_off_c, 0, 64, 117
1, 6933, Note_on_c, 0, 65, 116
1, 7005, Note_off_c, 0, 65, 116
1, 7041, Note_on_c, 0, 61, 116
1, 7121, Note_off_c, 0, 61, 116
1, 7183, Note_on_c, 0, 64, 119
1, 7229, Note_off_c, 0, 64, 119
1, 7231, Note_on_c, 0, 65, 120
1, 7297, Note_off_c, 0, 65, 120
1, 7372, Note_on_c, 0, 64, 118
1, 7457, Note_off_c, 0, 64, 118
1, 7469, Note_on_c, 0, 65, 113
1, 7620, Note_off_c, 0, 65, 113
1, 7636, Note_on_c, 0, 61, 114
1, 7698, Note_off_c, 0, 61, 114
1, 7767, Note_on_c, 0, 56, 96
1, 7808, Note_off_c, 0, 56, 96
1, 7814, Note_on_c, 0, 60, 115
1, 7876, Note_off_c, 0, 60, 115
1, 7877, Note_on_c, 0, 61, 109
1, 7986, Note_off_c, 0, 61, 109
1, 8001, Note_on_c, 0, 58, 108
1, 8099, Note_off_c, 0, 58, 108
1, 8131, Note_on_c, 0, 52, 108
1, 8240, Note_off_c, 0, 52, 108
1, 8281, Note_on_c, 0, 53, 102
1, 8364, Note_off_c, 0, 53, 102
1, 8376, Note_on_c, 0, 65, 109
1, 8494, Note_off_c, 0, 65, 109
1, 8514, Note_on_c, 0, 61, 93
1, 8825, Note_off_c, 0, 61, 93
1, 9328, Note_on_c, 0, 57, 111
1, 9372, Note_off_c, 0, 57, 111
1, 9375, Note_on_c, 0, 58, 118
1, 9447, Note_off_c, 0, 58, 118
1, 9457, Note_on_c, 0, 58, 120
1, 9559, Note_off_c, 0, 58, 120
1, 9637, Note_on_c, 0, 64, 121
1, 9720, Note_off_c, 0, 64, 121
1, 9731, Note_on_c, 0, 63, 115
1, 9808, Note_off_c, 0, 63, 115
1, 9835, Note_on_c, 0, 61, 100
1, 9902, Note_off_c, 0, 61, 100
1, 9921, Note_on_c, 0, 64, 117
1, 10032, Note_off_c, 0, 64, 117
1, 10045, Note_on_c, 0, 63, 114
1, 10141, Note_off_c, 0, 63, 114
1, 10177, Note_on_c, 0, 60, 100
1, 10230, Note_off_c, 0, 60, 100
1, 10243, Note_on_c, 0, 59, 112
1, 10405, Note_off_c, 0, 59, 112
1, 10424, Note_on_c, 0, 56, 103
1, 10465, Note_off_c, 0, 56, 103
1, 10495, Note_on_c, 0, 59, 109
1, 10543, Note_off_c, 0, 59, 109
1, 10548, Note_on_c, 0, 60, 104
1, 10602, Note_off_c, 0, 60, 104
1, 10611, Note_on_c, 0, 58, 112
1, 10688, Note_off_c, 0, 58, 112
1, 10785, Note_on_c, 0, 51, 106
1, 10902, Note_off_c, 0, 51, 106
1, 10918, Note_on_c, 0, 52, 107
1, 11009, Note_off_c, 0, 52, 107
1, 11019, Note_on_c, 0, 53, 113
1, 11147, Note_off_c, 0, 53, 113
1, 11184, Note_on_c, 0, 61, 109
1, 11239, Note_off_c, 0, 61, 109
1, 11254, Note_on_c, 0, 58, 104
1, 11331, Note_off_c, 0, 58, 104
1, 11344, Note_on_c, 0, 56, 91
1, 11415, Note_off_c, 0, 56, 91
1, 11432, Note_on_c, 0, 61, 113
1, 11560, Note_off_c, 0, 61, 113
1, 11567, Note_on_c, 0, 64, 112
1, 11685, Note_off_c, 0, 64, 112
1, 11694, Note_on_c, 0, 65, 101
1, 11798, Note_off_c, 0, 65, 101
1, 11815, Note_on_c, 0, 64, 102
1, 11909, Note_off_c, 0, 64, 102
1, 11924, Note_on_c, 0, 58, 106
1, 11997, Note_off_c, 0, 58, 106
1, 12006, Note_on_c, 0, 58, 98
1, 12288, Note_off_c, 0, 58, 98
1, 12690, Note_on_c, 0, 49, 106
1, 12759, Note_off_c, 0, 49, 106
1, 12787, Note_on_c, 0, 49, 108
1, 12872, Note_off_c, 0, 49, 108
1, 12886, Note_on_c, 0, 51, 109
1, 12935, Note_off_c, 0, 51, 109
1, 12952, Note_on_c, 0, 52, 114
1, 13035, Note_off_c, 0, 52, 114
1, 13059, Note_on_c, 0, 53, 109
1, 13152, Note_off_c, 0, 53, 109
1, 13264, Note_on_c, 0, 57, 110
1, 13304, Note_off_c, 0, 57, 110
1, 13312, Note_on_c, 0, 58, 119
1, 13410, Note_off_c, 0, 58, 119
1, 13435, Note_on_c, 0, 62, 111
1, 13496, Note_off_c, 0, 62, 111
1, 13513, Note_on_c, 0, 64, 120
1, 13607, Note_off_c, 0, 64, 120
1, 13621, Note_on_c, 0, 65, 119
1, 13715, Note_off_c, 0, 65, 119
1, 13828, Note_on_c, 0, 56, 102
1, 13884, Note_off_c, 0, 56, 102
1, 13895, Note_on_c, 0, 58, 117
1, 13997, Note_off_c, 0, 58, 117
1, 14057, Note_on_c, 0, 61, 111
1, 14163, Note_off_c, 0, 61, 111
1, 14174, Note_on_c, 0, 64, 118
1, 14235, Note_off_c, 0, 64, 118
1, 14239, Note_on_c, 0, 65, 121
1, 14295, Note_off_c, 0, 65, 121
1, 14935, Note_on_c, 0, 67, 116
1, 15044, Note_off_c, 0, 67, 116
1, 15044, Note_on_c, 0, 70, 113
1, 15219, Note_off_c, 0, 70, 113
1, 15245, Note_on_c, 0, 70, 81
1, 15457, Note_off_c, 0, 70, 81
1, 15482, Note_on_c, 0, 45, 105
1, 15767, Note_off_c, 0, 45, 105
1, 15767, Note_on_c, 0, 52, 107
1, 15908, Note_off_c, 0, 52, 107
1, 15928, Note_on_c, 0, 53, 106
1, 16057, Note_off_c, 0, 53, 106
1, 16071, Note_on_c, 0, 46, 108
1, 16181, Note_off_c, 0, 46, 108
1, 16260, Note_on_c, 0, 65, 105
1, 16334, Note_off_c, 0, 65, 105
1, 16380, Note_on_c, 0, 64, 108
1, 16494, Note_off_c, 0, 64, 108
1, 16526, Note_on_c, 0, 62, 104
1, 16617, Note_off_c, 0, 62, 104
1, 16638, Note_on_c, 0, 60, 106
1, 16738, Note_off_c, 0, 60, 106
1, 16804, Note_on_c, 0, 62, 96
1, 16897, Note_off_c, 0, 62, 96
1, 17465, Note_on_c, 0, 53, 113
1, 17562, Note_off_c, 0, 53, 113
1, 17654, Note_on_c, 0, 53, 115
1, 17747, Note_off_c, 0, 53, 115
1, 17848, Note_on_c, 0, 65, 117
1, 17953, Note_off_c, 0, 65, 117
1, 17965, Note_on_c, 0, 62, 105
1, 18021, Note_off_c, 0, 62, 105
1, 18028, Note_on_c, 0, 65, 115
1, 18111, Note_off_c, 0, 65, 115
1, 18126, Note_on_c, 0, 62, 116
1, 18180, Note_off_c, 0, 62, 116
1, 18195, Note_on_c, 0, 60, 108
1, 18326, Note_off_c, 0, 60, 108
1, 18339, Note_on_c, 0, 53, 103
1, 18548, Note_off_c, 0, 53, 103
1, 18990, Note_on_c, 0, 58, 114
1, 19287, Note_off_c, 0, 58, 114
1, 19301, Note_on_c, 0, 58, 113
1, 19351, Note_off_c, 0, 58, 113
1, 19372, Note_on_c, 0, 58, 122
1, 19440, Note_off_c, 0, 58, 122
1, 19480, Note_on_c, 0, 60, 119
1, 19555, Note_off_c, 0, 60, 119
1, 19559, Note_on_c, 0, 61, 115
1, 19624, Note_off_c, 0, 61, 115
1, 19641, Note_on_c, 0, 64, 111
1, 19687, Note_off_c, 0, 64, 111
1, 19701, Note_on_c, 0, 61, 116
1, 19746, Note_off_c, 0, 61, 116
1, 19758, Note_on_c, 0, 60, 115
1, 19856, Note_off_c, 0, 60, 115
1, 19876, Note_on_c, 0, 58, 119
1, 19966, Note_off_c, 0, 58, 119
1, 20055, Note_on_c, 0, 60, 117
1, 20120, Note_off_c, 0, 60, 117
1, 20133, Note_on_c, 0, 63, 117
1, 20236, Note_off_c, 0, 63, 117
1, 20263, Note_on_c, 0, 51, 114
1, 20404, Note_off_c, 0, 51, 114
1, 20414, Note_on_c, 0, 52, 112
1, 20530, Note_off_c, 0, 52, 112
1, 20542, Note_on_c, 0, 53, 107
1, 20639, Note_off_c, 0, 53, 107
1, 20669, Note_on_c, 0, 61, 113
1, 20767, Note_off_c, 0, 61, 113
1, 20801, Note_on_c, 0, 61, 108
1, 20901, Note_off_c, 0, 61, 108
1, 20923, Note_on_c, 0, 60, 112
1, 21014, Note_off_c, 0, 60, 112
1, 21036, Note_on_c, 0, 56, 106
1, 21142, Note_off_c, 0, 56, 106
1, 21193, Note_on_c, 0, 56, 105
1, 21394, Note_off_c, 0, 56, 105
1, 21986, Note_on_c, 0, 68, 124
1, 22077, Note_off_c, 0, 68, 124
1, 22079, Note_on_c, 0, 70, 125
1, 22329, Note_off_c, 0, 70, 125
1, 22363, Note_on_c, 0, 72, 120
1, 22421, Note_off_c, 0, 72, 120
1, 22432, Note_on_c, 0, 72, 124
1, 22600, Note_off_c, 0, 72, 124
1, 22606, Note_on_c, 0, 65, 116
1, 22739, Note_off_c, 0, 65, 116
1, 22826, Note_on_c, 0, 65, 115
1, 22923, Note_off_c, 0, 65, 115
1, 22955, Note_on_c, 0, 58, 114
1, 23060, Note_off_c, 0, 58, 114
1, 23128, Note_on_c, 0, 60, 108
1, 23193, Note_off_c, 0, 60, 108
1, 23203, Note_on_c, 0, 61, 103
1, 23344, Note_off_c, 0, 61, 103
1, 23382, Note_on_c, 0, 52, 110
1, 23543, Note_off_c, 0, 52, 110
1, 23586, Note_on_c, 0, 53, 110
1, 23693, Note_off_c, 0, 53, 110
1, 23719, Note_on_c, 0, 64, 111
1, 23768, Note_off_c, 0, 64, 111
1, 23771, Note_on_c, 0, 65, 114
1, 23839, Note_off_c, 0, 65, 114
1, 23904, Note_on_c, 0, 61, 107
1, 23977, Note_off_c, 0, 61, 107
1, 23984, Note_on_c, 0, 60, 107
1, 24077, Note_off_c, 0, 60, 107
1, 24100, Note_on_c, 0, 58, 102
1, 24235, Note_off_c, 0, 58, 102
1, 24269, Note_on_c, 0, 58, 100
1, 24454, Note_off_c, 0, 58, 100
1, 24869, Note_on_c, 0, 56, 115
1, 24920, Note_off_c, 0, 56, 115
1, 24932, Note_on_c, 0, 58, 121
1, 25015, Note_off_c, 0, 58, 121
1, 25037, Note_on_c, 0, 61, 116
1, 25107, Note_off_c, 0, 61, 116
1, 25123, Note_on_c, 0, 64, 122
1, 25160, Note_off_c, 0, 64, 122
1, 25171, Note_on_c, 0, 65, 120
1, 25235, Note_off_c, 0, 65, 120
1, 25283, Note_on_c, 0, 61, 117
1, 25384, Note_off_c, 0, 61, 117
1, 25434, Note_on_c, 0, 64, 122
1, 25510, Note_off_c, 0, 64, 122
1, 25512, Note_on_c, 0, 65, 120
1, 25578, Note_off_c, 0, 65, 120
1, 25623, Note_on_c, 0, 61, 115
1, 25733, Note_off_c, 0, 61, 115
1, 25803, Note_on_c, 0, 64, 120
1, 25899, Note_off_c, 0, 64, 120
1, 25901, Note_on_c, 0, 65, 111
1, 26019, Note_off_c, 0, 65, 111
1, 26039, Note_on_c, 0, 70, 127
1, 26155, Note_off_c, 0, 70, 127
1, 26450, Note_on_c, 0, 56, 118
1, 26528, Note_off_c, 0, 56, 118
1, 26559, Note_on_c, 0, 58, 110
1, 26632, Note_off_c, 0, 58, 110
1, 26641, Note_on_c, 0, 61, 114
1, 26728, Note_off_c, 0, 61, 114
1, 26737, Note_on_c, 0, 65, 118
1, 26821, Note_off_c, 0, 65, 118
1, 26835, Note_on_c, 0, 61, 110
1, 26911, Note_off_c, 0, 61, 110
1, 26924, Note_on_c, 0, 58, 106
1, 27003, Note_off_c, 0, 58, 106
1, 27019, Note_on_c, 0, 56, 118
1, 27123, Note_off_c, 0, 56, 118
1, 27151, Note_on_c, 0, 52, 107
1, 27285, Note_off_c, 0, 52, 107
1, 27329, Note_on_c, 0, 53, 103
1, 27578, Note_off_c, 0, 53, 103
1, 27578, End_track
0, 0, End_of_file
