0, 0, Header, 1, 1, 192
1, 0, Start_track
1, 0, Title_t, "Melody"
1, 0, Tempo, 245901
1, 0, Key_signature, -2, "major"
1, 0, Time_signature, 4, 2, 24, 8
1, 4317, Note_on_c, 0, 53, 107
1, 4484, Note_off_c, 0, 53, 107
1, 4497, Note_on_c, 0, 53, 110
1, 4569, Note_off_c, 0, 53, 110
1, 4653, Note_on_c, 0, 65, 108
1, 4793, Note_off_c, 0, 65, 108
1, 4904, Note_on_c, 0, 62, 110
1, 5058, Note_off_c, 0, 62, 110
1, 5085, Note_on_c, 0, 58, 90
1, 5582, Note_off_c, 0, 58, 90
1, 5977, Note_on_c, 0, 55, 100
1, 6094, Note_off_c, 0, 55, 100
1, 6199, Note_on_c, 0, 65, 108
1, 6313, Note_off_c, 0, 65, 108
1, 6328, Note_on_c, 0, 67, 107
1, 6490, Note_off_c, 0, 67, 107
1, 6614, Note_on_c, 0, 63, 98
1, 6747, Note_off_c, 0, 63, 98
1, 6762, Note_on_c, 0, 60, 100
1, 7160, Note_off_c, 0, 60, 100
1, 7217, Note_on_c, 0, 58, 103
1, 7360, Note_off_c, 0, 58, 103
1, 7375, Note_on_c, 0, 53, 98
1, 7499, Note_off_c, 0, 53, 98
1, 7540, Note_on_c, 0, 65, 107
1, 7664, Note_off_c, 0, 65, 107
1, 7711, Note_on_c, 0, 62, 115
1, 7822, Note_off_c, 0, 62, 115
1, 7898, Note_on_c, 0, 61, 114
1, 7999, Note_off_c, 0, 61, 114
1, 8011, Note_on_c, 0, 60, 108
1, 8077, Note_off_c, 0, 60, 108
1, 8088, Note_on_c, 0, 61, 101
1, 8170, Note_off_c, 0, 61, 101
1, 8184, Note_on_c, 0, 58, 98
1, 8295, Note_off_c, 0, 58, 98
1, 8301, Note_on_c, 0, 61, 111
1, 8415, Note_off_c, 0, 61, 111
1, 8424, Note_on_c, 0, 60, 107
1, 8489, Note_off_c, 0, 60, 107
1, 8489, Note_on_c, 0, 61, 106
1, 8581, Note_off_c, 0, 61, 106
1, 8588, Note_on_c, 0, 58, 108
1, 8658, Note_off_c, 0, 58, 108
1, 8670, Note_on_c, 0, 61, 108
1, 8775, Note_off_c, 0, 61, 108
1, 8786, Note_on_c, 0, 60, 106
1, 8852, Note_off_c, 0, 60, 106
1, 8863, Note_on_c, 0, 61, 101
1, 8953, Note_off_c, 0, 61, 101
1, 8957, Note_on_c, 0, 58, 102
1, 9068, Note_off_c, 0, 58, 102
1, 9087, Note_on_c, 0, 65, 100
1, 9302, Note_off_c, 0, 65, 100
1, 9345, Note_on_c, 0, 58, 109
1, 9456, Note_off_c, 0, 58, 109
1, 9465, Note_on_c, 0, 61, 115
1, 9579, Note_off_c, 0, 61, 115
1, 9586, Note_on_c, 0, 60, 111
1, 9641, Note_off_c, 0, 60, 111
1, 9653, Note_on_c, 0, 61, 108
1, 9721, Note_off_c, 0, 61, 108
1, 9725, Note_on_c, 0, 58, 105
1, 9839, Note_off_c, 0, 58, 105
1, 9845, Note_on_c, 0, 61, 104
1, 9969, Note_off_c, 0, 61, 104
1, 9991, Note_on_c, 0, 62, 110
1, 10226, Note_off_c, 0, 62, 110
1, 11051, Note_on_c, 0, 65, 116
1, 11172, Note_off_c, 0, 65, 116
1, 11203, Note_on_c, 0, 62, 118
1, 11308, Note_off_c, 0, 62, 118
1, 11346, Note_on_c, 0, 60, 115
1, 11435, Note_off_c, 0, 60, 115
1, 11454, Note_on_c, 0, 58, 112
1, 11565, Note_off_c, 0, 58, 112
1, 11606, Note_on_c, 0, 60, 113
1, 11695, Note_off_c, 0, 60, 113
1, 11733, Note_on_c, 0, 62, 116
1, 11863, Note_off_c, 0, 62, 116
1, 11901, Note_on_c, 0, 65, 113
1, 12069, Note_off_c, 0, 65, 113
1, 12075, Note_on_c, 0, 67, 125
1, 12215, Note_off_c, 0, 67, 125
1, 12286, Note_on_c, 0, 68, 125
1, 12438, Note_off_c, 0, 68, 125
1, 12449, Note_on_c, 0, 69, 118
1, 12563, Note_off_c, 0, 69, 118
1, 12569, Note_on_c, 0, 67, 121
1, 12718, Note_off_c, 0, 67, 121
1, 12724, Note_on_c, 0, 65, 115
1, 12838, Note_off_c, 0, 65, 115
1, 12876, Note_on_c, 0, 62, 116
1, 12946, Note_off_c, 0, 62, 116
1, 12977, Note_on_c, 0, 60, 110
1, 13117, Note_off_c, 0, 60, 110
1, 13180, Note_on_c, 0, 60, 115
1, 13269, Note_off_c, 0, 60, 115
1, 13334, Note_on_c, 0, 60, 105
1, 13492, Note_off_c, 0, 60, 105
1, 13520, Note_on_c, 0, 58, 104
1, 13647, Note_off_c, 0, 58, 104
1, 13741, Note_on_c, 0, 58, 105
1, 14003, Note_off_c, 0, 58, 105
1, 14009, Note_on_c, 0, 57, 96
1, 14080, Note_off_c, 0, 57, 96
1, 14104, Note_on_c, 0, 55, 100
1, 14298, Note_off_c, 0, 55, 100
1, 14318, Note_on_c, 0, 58, 101
1, 14440, Note_off_c, 0, 58, 101
1, 14480, Note_on_c, 0, 60, 111
1, 14588, Note_off_c, 0, 60, 111
1, 14602, Note_on_c, 0, 62, 105
1, 14828, Note_off_c, 0, 62, 105
1, 14859, Note_on_c, 0, 62, 106
1, 15034, Note_off_c, 0, 62, 106
1, 15049, Note_on_c, 0, 58, 102
1, 15208, Note_off_c, 0, 58, 102
1, 15238, Note_on_c, 0, 61, 103
1, 15381, Note_off_c, 0, 61, 103
1, 15433, Note_on_c, 0, 58, 92
1, 15952, Note_off_c, 0, 58, 92
1, 16774, Note_on_c, 0, 50, 108
1, 16926, Note_off_c, 0, 50, 108
1, 16980, Note_on_c, 0, 54, 110
1, 17148, Note_off_c, 0, 54, 110
1, 17189, Note_on_c, 0, 55, 112
1, 17341, Note_off_c, 0, 55, 112
1, 17399, Note_on_c, 0, 63, 116
1, 17526, Note_off_c, 0, 63, 116
1, 17546, Note_on_c, 0, 64, 105
1, 17718, Note_off_c, 0, 64, 105
1, 17727, Note_on_c, 0, 62, 113
1, 17905, Note_off_c, 0, 62, 113
1, 17933, Note_on_c, 0, 57, 108
1, 18082, Note_off_c, 0, 57, 108
1, 18136, Note_on_c, 0, 52, 110
1, 18279, Note_off_c, 0, 52, 110
1, 18333, Note_on_c, 0, 45, 113
1, 18476, Note_off_c, 0, 45, 113
1, 18597, Note_on_c, 0, 57, 103
1, 18753, Note_off_c, 0, 57, 103
1, 18791, Note_on_c, 0, 52, 105
1, 19001, Note_off_c, 0, 52, 105
1, 19058, Note_on_c, 0, 50, 104
1, 19261, Note_off_c, 0, 50, 104
1, 19278, Note_on_c, 0, 62, 103
1, 19486, Note_off_c, 0, 62, 103
1, 19498, Note_on_c, 0, 64, 96
1, 19644, Note_off_c, 0, 64, 96
1, 19644, Note_on_c, 0, 62, 110
1, 19816, Note_off_c, 0, 62, 110
1, 19857, Note_on_c, 0, 62, 111
1, 20003, Note_off_c, 0, 62, 111
1, 20034, Note_on_c, 0, 60, 105
1, 20177, Note_off_c, 0, 60, 105
1, 20224, Note_on_c, 0, 60, 104
1, 20383, Note_off_c, 0, 60, 104
1, 20408, Note_on_c, 0, 60, 103
1, 20570, Note_off_c, 0, 60, 103
1, 20605, Note_on_c, 0, 60, 105
1, 20722, Note_off_c, 0, 60, 105
1, 20741, Note_on_c, 0, 60, 100
1, 20903, Note_off_c, 0, 60, 100
1, 20949, Note_on_c, 0, 60, 96
1, 21336, Note_off_c, 0, 60, 96
1, 21740, Note_on_c, 0, 65, 117
1, 21867, Note_off_c, 0, 65, 117
1, 21953, Note_on_c, 0, 65, 117
1, 22067, Note_off_c, 0, 65, 117
1, 22130, Note_on_c, 0, 65, 118
1, 22231, Note_off_c, 0, 65, 118
1, 22246, Note_on_c, 0, 65, 117
1, 22328, Note_off_c, 0, 65, 117
1, 22353, Note_on_c, 0, 61, 86
1, 22431, Note_off_c, 0, 61, 86
1, 22442, Note_on_c, 0, 62, 93
1, 22502, Note_off_c, 0, 62, 93
1, 22502, Note_on_c, 0, 65, 113
1, 22594, Note_off_c, 0, 65, 113
1, 22629, Note_on_c, 0, 65, 116
1, 22711, Note_off_c, 0, 65, 116
1, 22747, Note_on_c, 0, 61, 94
1, 22821, Note_off_c, 0, 61, 94
1, 22824, Note_on_c, 0, 62, 113
1, 22890, Note_off_c, 0, 62, 113
1, 22896, Note_on_c, 0, 65, 105
1, 22978, Note_off_c, 0, 65, 105
1, 23016, Note_on_c, 0, 65, 111
1, 23095, Note_off_c, 0, 65, 111
1, 23126, Note_on_c, 0, 65, 108
1, 23176, Note_off_c, 0, 65, 108
1, 23217, Note_on_c, 0, 62, 102
1, 23376, Note_off_c, 0, 62, 102
1, 23388, Note_on_c, 0, 65, 106
1, 23480, Note_off_c, 0, 65, 106
1, 23607, Note_on_c, 0, 62, 103
1, 23661, Note_off_c, 0, 62, 103
1, 23676, Note_on_c, 0, 65, 107
1, 23768, Note_off_c, 0, 65, 107
1, 23850, Note_on_c, 0, 65, 115
1, 23920, Note_off_c, 0, 65, 115
1, 24034, Note_on_c, 0, 62, 107
1, 24123, Note_off_c, 0, 62, 107
1, 24132, Note_on_c, 0, 65, 109
1, 24227, Note_off_c, 0, 65, 109
1, 24341, Note_on_c, 0, 62, 97
1, 24411, Note_off_c, 0, 62, 97
1, 24420, Note_on_c, 0, 65, 109
1, 24525, Note_off_c, 0, 65, 109
1, 24598, Note_on_c, 0, 67, 116
1, 24715, Note_off_c, 0, 67, 116
1, 24804, Note_on_c, 0, 69, 114
1, 25090, Note_off_c, 0, 69, 114
1, 25115, Note_on_c, 0, 67, 104
1, 25306, Note_off_c, 0, 67, 104
1, 25321, Note_on_c, 0, 65, 114
1, 25422, Note_off_c, 0, 65, 114
1, 25476, Note_on_c, 0, 62, 111
1, 25558, Note_off_c, 0, 62, 111
1, 25580, Note_on_c, 0, 61, 109
1, 25780, Note_off_c, 0, 61, 109
1, 25786, Note_on_c, 0, 58, 107
1, 25868, Note_off_c, 0, 58, 107
1, 25903, Note_on_c, 0, 60, 92
1, 25950, Note_off_c, 0, 60, 92
1, 25972, Note_on_c, 0, 61, 108
1, 26070, Note_off_c, 0, 61, 108
1, 26132, Note_on_c, 0, 58, 106
1, 26227, Note_off_c, 0, 58, 106
1, 26308, Note_on_c, 0, 58, 92
1, 26661, Note_off_c, 0, 58, 92
1, 27589, Note_on_c, 0, 65, 112
1, 27808, Note_off_c, 0, 65, 112
1, 27814, Note_on_c, 0, 68, 125
1, 28183, Note_off_c, 0, 68, 125
1, 28192, Note_on_c, 0, 67, 121
1, 28518, Note_off_c, 0, 67, 121
1, 28629, Note_on_c, 0, 65, 115
1, 28998, Note_off_c, 0, 65, 115
1, 29008, Note_on_c, 0, 62, 102
1, 29189, Note_off_c, 0, 62, 102
1, 29261, Note_on_c, 0, 58, 114
1, 29387, Note_off_c, 0, 58, 114
1, 29469, Note_on_c, 0, 62, 114
1, 29860, Note_off_c, 0, 62, 114
1, 29870, Note_on_c, 0, 60, 110
1, 30019, Note_off_c, 0, 60, 110
1, 30177, Note_on_c, 0, 58, 108
1, 30353, Note_off_c, 0, 58, 108
1, 30402, Note_on_c, 0, 57, 109
1, 30560, Note_off_c, 0, 57, 109
1, 30791, Note_on_c, 0, 53, 105
1, 30926, Note_off_c, 0, 53, 105
1, 30984, Note_on_c, 0, 56, 115
1, 31051, Note_off_c, 0, 56, 115
1, 31073, Note_on_c, 0, 57, 112
1, 31168, Note_off_c, 0, 57, 112
1, 31263, Note_on_c, 0, 53, 109
1, 31367, Note_off_c, 0, 53, 109
1, 31444, Note_on_c, 0, 68, 127
1, 31552, Note_off_c, 0, 68, 127
1, 31574, Note_on_c, 0, 67, 124
1, 31728, Note_off_c, 0, 67, 124
1, 31732, Note_on_c, 0, 65, 115
1, 31858, Note_off_c, 0, 65, 115
1, 31911, Note_on_c, 0, 58, 110
1, 32001, Note_off_c, 0, 58, 110
1, 32051, Note_on_c, 0, 61, 113
1, 32159, Note_off_c, 0, 61, 113
1, 32204, Note_on_c, 0, 62, 97
1, 33323, Note_off_c, 0, 62, 97
1, 35099, Note_on_c, 0, 73, 95
1, 35162, Note_off_c, 0, 73, 95
1, 35184, Note_on_c, 0, 74, 124
1, 35369, Note_off_c, 0, 74, 124
1, 35726, Note_on_c, 0, 65, 98
1, 35834, Note_off_c, 0, 65, 98
1, 35846, Note_on_c, 0, 67, 112
1, 35935, Note_off_c, 0, 67, 112
1, 35947, Note_on_c, 0, 70, 118
1, 36058, Note_off_c, 0, 70, 118
1, 36131, Note_on_c, 0, 70, 118
1, 36252, Note_off_c, 0, 70, 118
1, 36312, Note_on_c, 0, 69, 104
1, 36369, Note_off_c, 0, 69, 104
1, 36388, Note_on_c, 0, 70, 107
1, 36493, Note_off_c, 0, 70, 107
1, 36515, Note_on_c, 0, 65, 116
1, 36613, Note_off_c, 0, 65, 116
1, 36708, Note_on_c, 0, 65, 117
1, 36835, Note_off_c, 0, 65, 117
1, 36905, Note_on_c, 0, 65, 105
1, 37038, Note_off_c, 0, 65, 105
1, 37095, Note_on_c, 0, 65, 114
1, 37174, Note_off_c, 0, 65, 114
1, 37205, Note_on_c, 0, 62, 113
1, 37281, Note_off_c, 0, 62, 113
1, 37303, Note_on_c, 0, 60, 105
1, 37398, Note_off_c, 0, 60, 105
1, 37420, Note_on_c, 0, 58, 95
1, 37490, Note_off_c, 0, 58, 95
1, 37496, Note_on_c, 0, 60, 100
1, 37582, Note_off_c, 0, 60, 100
1, 37594, Note_on_c, 0, 62, 108
1, 37667, Note_off_c, 0, 62, 108
1, 37692, Note_on_c, 0, 63, 97
1, 37771, Note_off_c, 0, 63, 97
1, 37774, Note_on_c, 0, 65, 98
1, 37847, Note_off_c, 0, 65, 98
1, 37885, Note_on_c, 0, 65, 109
1, 37974, Note_off_c, 0, 65, 109
1, 37980, Note_on_c, 0, 62, 105
1, 38062, Note_off_c, 0, 62, 105
1, 38071, Note_on_c, 0, 60, 96
1, 38163, Note_off_c, 0, 60, 96
1, 38185, Note_on_c, 0, 58, 103
1, 38306, Note_off_c, 0, 58, 103
1, 38481, Note_on_c, 0, 56, 98
1, 38570, Note_off_c, 0, 56, 98
1, 38633, Note_on_c, 0, 58, 105
1, 38738, Note_off_c, 0, 58, 105
1, 38757, Note_on_c, 0, 62, 116
1, 38852, Note_off_c, 0, 62, 116
1, 38915, Note_on_c, 0, 62, 106
1, 38988, Note_off_c, 0, 62, 106
1, 38991, Note_on_c, 0, 65, 115
1, 39124, Note_off_c, 0, 65, 115
1, 39187, Note_on_c, 0, 62, 114
1, 39308, Note_off_c, 0, 62, 114
1, 39368, Note_on_c, 0, 61, 109
1, 39485, Note_off_c, 0, 61, 109
1, 39510, Note_on_c, 0, 58, 105
1, 39662, Note_off_c, 0, 58, 105
1, 39712, Note_on_c, 0, 58, 106
1, 39762, Note_off_c, 0, 58, 106
1, 39771, Note_on_c, 0, 61, 109
1, 39876, Note_off_c, 0, 61, 109
1, 39907, Note_on_c, 0, 62, 109
1, 40158, Note_off_c, 0, 62, 109
1, 40170, Note_on_c, 0, 65, 110
1, 40291, Note_off_c, 0, 65, 110
1, 40294, Note_on_c, 0, 67, 123
1, 40395, Note_off_c, 0, 67, 123
1, 40465, Note_on_c, 0, 58, 104
1, 40586, Note_off_c, 0, 58, 104
1, 40678, Note_on_c, 0, 58, 91
1, 41101, Note_off_c, 0, 58, 91
1, 41738, Note_on_c, 0, 64, 105
1, 41804, Note_off_c, 0, 64, 105
1, 41807, Note_on_c, 0, 65, 106
1, 41857, Note_off_c, 0, 65, 106
1, 41857, Note_on_c, 0, 68, 112
1, 41904, Note_off_c, 0, 68, 112
1, 41915, Note_on_c, 0, 70, 106
1, 42055, Note_off_c, 0, 70, 106
1, 42059, Note_on_c, 0, 74, 115
1, 42167, Note_off_c, 0, 74, 115
1, 42195, Note_on_c, 0, 75, 93
1, 42290, Note_off_c, 0, 75, 93
1, 42315, Note_on_c, 0, 73, 102
1, 42452, Note_off_c, 0, 73, 102
1, 42471, Note_on_c, 0, 74, 113
1, 42576, Note_off_c, 0, 74, 113
1, 42601, Note_on_c, 0, 75, 101
1, 42687, Note_off_c, 0, 75, 101
1, 42706, Note_on_c, 0, 74, 112
1, 42871, Note_off_c, 0, 74, 112
1, 42893, Note_on_c, 0, 75, 102
1, 43132, Note_off_c, 0, 75, 102
1, 43147, Note_on_c, 0, 76, 111
1, 43465, Note_off_c, 0, 76, 111
1, 43480, Note_on_c, 0, 77, 118
1, 44356, Note_off_c, 0, 77, 118
1, 44429, Note_on_c, 0, 79, 112
1, 44604, Note_off_c, 0, 79, 112
1, 45018, Note_on_c, 0, 62, 116
1, 45142, Note_off_c, 0, 62, 116
1, 45170, Note_on_c, 0, 65, 117
1, 45256, Note_off_c, 0, 65, 117
1, 45297, Note_on_c, 0, 65, 114
1, 45421, Note_off_c, 0, 65, 114
1, 45462, Note_on_c, 0, 65, 113
1, 45516, Note_off_c, 0, 65, 113
1, 45531, Note_on_c, 0, 65, 112
1, 45648, Note_off_c, 0, 65, 112
1, 45730, Note_on_c, 0, 62, 101
1, 45863, Note_off_c, 0, 62, 101
1, 45926, Note_on_c, 0, 60, 110
1, 46031, Note_off_c, 0, 60, 110
1, 46062, Note_on_c, 0, 60, 108
1, 46195, Note_off_c, 0, 60, 108
1, 46214, Note_on_c, 0, 57, 103
1, 46264, Note_off_c, 0, 57, 103
1, 46289, Note_on_c, 0, 59, 104
1, 46355, Note_off_c, 0, 59, 104
1, 46374, Note_on_c, 0, 60, 96
1, 46450, Note_off_c, 0, 60, 96
1, 46469, Note_on_c, 0, 57, 108
1, 46599, Note_off_c, 0, 57, 108
1, 46672, Note_on_c, 0, 57, 114
1, 46761, Note_off_c, 0, 57, 114
1, 46792, Note_on_c, 0, 57, 112
1, 46897, Note_off_c, 0, 57, 112
1, 46938, Note_on_c, 0, 57, 114
1, 47065, Note_off_c, 0, 57, 114
1, 47106, Note_on_c, 0, 56, 9
1, 47211, Note_off_c, 0, 56, 9
1, 47226, Note_on_c, 0, 53, 104
1, 47334, Note_off_c, 0, 53, 104
1, 47384, Note_on_c, 0, 65, 102
1, 47489, Note_off_c, 0, 65, 102
1, 47581, Note_on_c, 0, 58, 85
1, 48008, Note_off_c, 0, 58, 85
1, 48575, Note_on_c, 0, 67, 112
1, 48661, Note_off_c, 0, 67, 112
1, 48699, Note_on_c, 0, 67, 123
1, 48807, Note_off_c, 0, 67, 123
1, 48902, Note_on_c, 0, 65, 97
1, 48949, Note_off_c, 0, 65, 97
1, 48977, Note_on_c, 0, 67, 116
1, 49078, Note_off_c, 0, 67, 116
1, 49154, Note_on_c, 0, 69, 114
1, 49249, Note_off_c, 0, 69, 114
1, 49354, Note_on_c, 0, 70, 115
1, 49512, Note_off_c, 0, 70, 115
1, 49576, Note_on_c, 0, 67, 112
1, 49655, Note_off_c, 0, 67, 112
1, 49760, Note_on_c, 0, 69, 113
1, 49881, Note_off_c, 0, 69, 113
1, 49906, Note_on_c, 0, 67, 113
1, 50004, Note_off_c, 0, 67, 113
1, 50083, Note_on_c, 0, 67, 111
1, 50272, Note_off_c, 0, 67, 111
1, 50439, Note_on_c, 0, 65, 103
1, 50528, Note_off_c, 0, 65, 103
1, 50566, Note_on_c, 0, 65, 104
1, 50690, Note_off_c, 0, 65, 104
1, 50693, Note_on_c, 0, 62, 105
1, 50820, Note_off_c, 0, 62, 105
1, 50870, Note_on_c, 0, 60, 106
1, 50975, Note_off_c, 0, 60, 106
1, 51010, Note_on_c, 0, 58, 98
1, 51102, Note_off_c, 0, 58, 98
1, 51149, Note_on_c, 0, 60, 99
1, 51225, Note_off_c, 0, 60, 99
1, 51234, Note_on_c, 0, 62, 105
1, 51326, Note_off_c, 0, 62, 105
1, 51392, Note_on_c, 0, 65, 104
1, 51637, Note_off_c, 0, 65, 104
1, 51710, Note_on_c, 0, 58, 108
1, 51815, Note_off_c, 0, 58, 108
1, 51850, Note_on_c, 0, 60, 105
1, 51916, Note_off_c, 0, 60, 105
1, 51947, Note_on_c, 0, 62, 109
1, 52039, Note_off_c, 0, 62, 109
1, 52153, Note_on_c, 0, 65, 108
1, 52290, Note_off_c, 0, 65, 108
1, 52321, Note_on_c, 0, 67, 109
1, 52454, Note_off_c, 0, 67, 109
1, 52463, Note_on_c, 0, 58, 103
1, 52641, Note_off_c, 0, 58, 103
1, 52656, Note_on_c, 0, 60, 108
1, 52732, Note_off_c, 0, 60, 108
1, 52782, Note_on_c, 0, 62, 109
1, 52852, Note_on_c, 0, 65, 103
1, 52852, Note_off_c, 0, 62, 109
1, 52953, Note_off_c, 0, 65, 103
1, 52994, Note_on_c, 0, 58, 101
1, 53102, Note_off_c, 0, 58, 101
1, 53143, Note_on_c, 0, 58, 91
1, 53732, Note_off_c, 0, 58, 91
1, 53732, End_track
0, 0, End_of_file
