0, 0, Header, 1, 1, 192
1, 0, Start_track
1, 0, Title_t, "Melody"
1, 0, Tempo, 275229
1, 0, Key_signature, -2, "major"
1, 0, Time_signature, 4, 2, 24, 8
1, 2862, Note_on_c, 0, 67, 113
1, 2963, Note_off_c, 0, 67, 113
1, 3046, Note_on_c, 0, 65, 113
1, 3129, Note_off_c, 0, 65, 113
1, 3241, Note_on_c, 0, 65, 108
1, 3394, Note_off_c, 0, 65, 108
1, 3532, Note_on_c, 0, 58, 112
1, 3634, Note_off_c, 0, 58, 112
1, 3673, Note_on_c, 0, 62, 104
1, 3744, Note_off_c, 0, 62, 104
1, 3746, Note_on_c, 0, 63, 91
1, 3848, Note_off_c, 0, 63, 91
1, 3912, Note_on_c, 0, 65, 112
1, 4103, Note_off_c, 0, 65, 112
1, 4322, Note_on_c, 0, 58, 100
1, 4404, Note_off_c, 0, 58, 100
1, 4412, Note_on_c, 0, 60, 91
1, 4449, Note_off_c, 0, 60, 91
1, 4461, Note_on_c, 0, 62, 99
1, 4560, Note_off_c, 0, 62, 99
1, 4577, Note_on_c, 0, 67, 117
1, 4714, Note_off_c, 0, 67, 117
1, 4777, Note_on_c, 0, 58, 100
1, 4941, Note_off_c, 0, 58, 100
1, 4962, Note_on_c, 0, 61, 99
1, 5013, Note_off_c, 0, 61, 99
1, 5027, Note_on_c, 0, 62, 103
1, 5138, Note_off_c, 0, 62, 103
1, 5159, Note_on_c, 0, 65, 107
1, 5237, Note_off_c, 0, 65, 107
1, 5367, Note_on_c, 0, 59, 88
1, 5406, Note_off_c, 0, 59, 88
1, 5419, Note_on_c, 0, 65, 109
1, 5545, Note_off_c, 0, 65, 109
1, 5607, Note_on_c, 0, 65, 112
1, 5726, Note_off_c, 0, 65, 112
1, 5816, Note_on_c, 0, 65, 108
1, 5952, Note_off_c, 0, 65, 108
1, 6005, Note_on_c, 0, 67, 116
1, 6154, Note_off_c, 0, 67, 116
1, 6184, Note_on_c, 0, 67, 120
1, 6311, Note_off_c, 0, 67, 120
1, 6405, Note_on_c, 0, 58, 113
1, 6494, Note_off_c, 0, 58, 113
1, 6514, Note_on_c, 0, 61, 109
1, 6591, Note_off_c, 0, 61, 109
1, 6604, Note_on_c, 0, 62, 108
1, 6688, Note_off_c, 0, 62, 108
1, 6702, Note_on_c, 0, 65, 106
1, 6819, Note_off_c, 0, 65, 106
1, 6887, Note_on_c, 0, 65, 113
1, 6957, Note_off_c, 0, 65, 113
1, 6966, Note_on_c, 0, 64, 107
1, 7002, Note_off_c, 0, 64, 107
1, 7088, Note_on_c, 0, 58, 108
1, 7191, Note_off_c, 0, 58, 108
1, 7254, Note_on_c, 0, 61, 103
1, 7302, Note_off_c, 0, 61, 103
1, 7310, Note_on_c, 0, 62, 102
1, 7382, Note_off_c, 0, 62, 102
1, 7458, Note_on_c, 0, 58, 108
1, 7548, Note_off_c, 0, 58, 108
1, 7634, Note_on_c, 0, 61, 104
1, 7724, Note_off_c, 0, 61, 104
1, 7724, Note_on_c, 0, 62, 101
1, 7903, Note_off_c, 0, 62, 101
1, 7911, Note_on_c, 0, 58, 102
1, 8014, Note_off_c, 0, 58, 102
1, 8035, Note_on_c, 0, 56, 105
1, 8136, Note_off_c, 0, 56, 105
1, 8148, Note_on_c, 0, 55, 95
1, 8239, Note_off_c, 0, 55, 95
1, 8244, Note_on_c, 0, 53, 98
1, 8366, Note_off_c, 0, 53, 98
1, 8425, Note_on_c, 0, 65, 89
1, 8888, Note_off_c, 0, 65, 89
1, 9029, Note_on_c, 0, 67, 127
1, 9148, Note_off_c, 0, 67, 127
1, 10136, Note_on_c, 0, 80, 117
1, 10218, Note_off_c, 0, 80, 117
1, 10465, Note_on_c, 0, 44, 90
1, 10568, Note_off_c, 0, 44, 90
1, 10632, Note_on_c, 0, 46, 98
1, 10725, Note_off_c, 0, 46, 98
1, 10780, Note_on_c, 0, 53, 96
1, 10992, Note_off_c, 0, 53, 96
1, 11658, Note_on_c, 0, 80, 98
1, 11759, Note_off_c, 0, 80, 98
1, 11874, Note_on_c, 0, 43, 98
1, 12013, Note_off_c, 0, 43, 98
1, 12086, Note_on_c, 0, 45, 103
1, 12234, Note_off_c, 0, 45, 103
1, 12300, Note_on_c, 0, 53, 85
1, 12601, Note_off_c, 0, 53, 85
1, 13192, Note_on_c, 0, 79, 107
1, 13281, Note_off_c, 0, 79, 107
1, 13455, Note_on_c, 0, 46, 99
1, 13604, Note_off_c, 0, 46, 99
1, 13661, Note_on_c, 0, 48, 101
1, 13814, Note_off_c, 0, 48, 101
1, 13841, Note_on_c, 0, 53, 102
1, 13964, Note_off_c, 0, 53, 102
1, 13972, Note_on_c, 0, 65, 116
1, 14068, Note_off_c, 0, 65, 116
1, 14155, Note_on_c, 0, 61, 98
1, 14203, Note_off_c, 0, 61, 98
1, 14207, Note_on_c, 0, 62, 105
1, 14336, Note_off_c, 0, 62, 105
1, 14413, Note_on_c, 0, 58, 107
1, 14506, Note_off_c, 0, 58, 107
1, 14601, Note_on_c, 0, 58, 97
1, 14850, Note_off_c, 0, 58, 97
1, 14929, Note_on_c, 0, 65, 116
1, 15071, Note_off_c, 0, 65, 116
1, 15760, Note_on_c, 0, 53, 111
1, 15855, Note_off_c, 0, 53, 111
1, 15913, Note_on_c, 0, 64, 117
1, 15945, Note_off_c, 0, 64, 117
1, 15949, Note_on_c, 0, 65, 118
1, 16020, Note_off_c, 0, 65, 118
1, 16081, Note_on_c, 0, 62, 110
1, 16143, Note_off_c, 0, 62, 110
1, 16160, Note_on_c, 0, 60, 101
1, 16276, Note_off_c, 0, 60, 101
1, 16311, Note_on_c, 0, 58, 111
1, 16380, Note_off_c, 0, 58, 111
1, 16471, Note_on_c, 0, 53, 115
1, 16597, Note_off_c, 0, 53, 115
1, 16652, Note_on_c, 0, 64, 114
1, 16698, Note_off_c, 0, 64, 114
1, 16703, Note_on_c, 0, 65, 117
1, 16801, Note_off_c, 0, 65, 117
1, 16910, Note_on_c, 0, 62, 105
1, 16996, Note_off_c, 0, 62, 105
1, 17008, Note_on_c, 0, 63, 90
1, 17078, Note_off_c, 0, 63, 90
1, 17130, Note_on_c, 0, 55, 101
1, 17241, Note_off_c, 0, 55, 101
1, 17479, Note_on_c, 0, 49, 109
1, 17635, Note_off_c, 0, 49, 109
1, 17672, Note_on_c, 0, 59, 102
1, 17710, Note_off_c, 0, 59, 102
1, 17717, Note_on_c, 0, 60, 109
1, 17742, Note_off_c, 0, 60, 109
1, 17751, Note_on_c, 0, 61, 109
1, 17937, Note_off_c, 0, 61, 109
1, 17986, Note_on_c, 0, 61, 108
1, 18075, Note_off_c, 0, 61, 108
1, 18094, Note_on_c, 0, 60, 106
1, 18206, Note_off_c, 0, 60, 106
1, 18248, Note_on_c, 0, 58, 108
1, 18327, Note_off_c, 0, 58, 108
1, 18393, Note_on_c, 0, 63, 98
1, 18547, Note_off_c, 0, 63, 98
1, 19261, Note_on_c, 0, 52, 107
1, 19357, Note_off_c, 0, 52, 107
1, 19400, Note_on_c, 0, 55, 115
1, 19518, Note_off_c, 0, 55, 115
1, 19549, Note_on_c, 0, 58, 114
1, 19649, Note_off_c, 0, 58, 114
1, 19717, Note_on_c, 0, 62, 122
1, 19831, Note_off_c, 0, 62, 122
1, 19844, Note_on_c, 0, 61, 107
1, 19887, Note_off_c, 0, 61, 107
1, 19893, Note_on_c, 0, 62, 114
1, 19991, Note_off_c, 0, 62, 114
1, 20006, Note_on_c, 0, 60, 114
1, 20098, Note_off_c, 0, 60, 114
1, 20193, Note_on_c, 0, 53, 113
1, 20286, Note_off_c, 0, 53, 113
1, 20312, Note_on_c, 0, 53, 106
1, 20418, Note_off_c, 0, 53, 106
1, 20497, Note_on_c, 0, 65, 118
1, 20544, Note_off_c, 0, 65, 118
1, 20580, Note_on_c, 0, 62, 110
1, 20682, Note_off_c, 0, 62, 110
1, 20753, Note_on_c, 0, 65, 117
1, 20827, Note_off_c, 0, 65, 117
1, 20844, Note_on_c, 0, 62, 112
1, 20909, Note_off_c, 0, 62, 112
1, 20920, Note_on_c, 0, 60, 98
1, 21028, Note_off_c, 0, 60, 98
1, 21065, Note_on_c, 0, 55, 103
1, 21129, Note_off_c, 0, 55, 103
1, 21137, Note_on_c, 0, 56, 106
1, 21254, Note_off_c, 0, 56, 106
1, 21263, Note_on_c, 0, 53, 95
1, 21323, Note_off_c, 0, 53, 95
1, 21445, Note_on_c, 0, 65, 114
1, 21532, Note_off_c, 0, 65, 114
1, 21538, Note_on_c, 0, 67, 105
1, 21728, Note_off_c, 0, 67, 105
1, 22304, Note_on_c, 0, 72, 122
1, 22427, Note_off_c, 0, 72, 122
1, 22432, Note_on_c, 0, 73, 126
1, 22688, Note_off_c, 0, 73, 126
1, 22698, Note_on_c, 0, 73, 120
1, 22843, Note_off_c, 0, 73, 120
1, 22983, Note_on_c, 0, 58, 92
1, 23037, Note_off_c, 0, 58, 92
1, 23095, Note_on_c, 0, 61, 105
1, 23149, Note_off_c, 0, 61, 105
1, 23155, Note_on_c, 0, 62, 111
1, 23219, Note_off_c, 0, 62, 111
1, 23249, Note_on_c, 0, 58, 109
1, 23321, Note_off_c, 0, 58, 109
1, 23377, Note_on_c, 0, 61, 98
1, 23436, Note_off_c, 0, 61, 98
1, 23442, Note_on_c, 0, 62, 105
1, 23496, Note_off_c, 0, 62, 105
1, 23554, Note_on_c, 0, 57, 103
1, 23683, Note_off_c, 0, 57, 103
1, 23721, Note_on_c, 0, 56, 101
1, 24004, Note_off_c, 0, 56, 101
1, 24015, Note_on_c, 0, 53, 98
1, 24121, Note_off_c, 0, 53, 98
1, 24134, Note_on_c, 0, 65, 99
1, 24273, Note_off_c, 0, 65, 99
1, 24324, Note_on_c, 0, 62, 108
1, 24428, Note_off_c, 0, 62, 108
1, 24515, Note_on_c, 0, 62, 96
1, 24757, Note_off_c, 0, 62, 96
1, 25161, Note_on_c, 0, 60, 108
1, 25247, Note_off_c, 0, 60, 108
1, 25263, Note_on_c, 0, 62, 103
1, 25324, Note_off_c, 0, 62, 103
1, 25340, Note_on_c, 0, 64, 106
1, 25462, Note_off_c, 0, 64, 106
1, 25479, Note_on_c, 0, 65, 112
1, 25562, Note_off_c, 0, 65, 112
1, 25668, Note_on_c, 0, 62, 91
1, 25709, Note_off_c, 0, 62, 91
1, 25742, Note_on_c, 0, 65, 101
1, 25887, Note_off_c, 0, 65, 101
1, 25932, Note_on_c, 0, 65, 105
1, 26069, Note_off_c, 0, 65, 105
1, 26132, Note_on_c, 0, 65, 108
1, 26235, Note_off_c, 0, 65, 108
1, 26263, Note_on_c, 0, 62, 100
1, 26416, Note_off_c, 0, 62, 100
1, 26441, Note_on_c, 0, 61, 102
1, 26467, Note_off_c, 0, 61, 102
1, 26473, Note_on_c, 0, 60, 111
1, 26614, Note_off_c, 0, 60, 111
1, 26636, Note_on_c, 0, 58, 111
1, 26742, Note_off_c, 0, 58, 111
1, 26827, Note_on_c, 0, 58, 101
1, 27157, Note_off_c, 0, 58, 101
1, 27157, End_track
0, 0, End_of_file
