0, 0, Header, 1, 1, 192
1, 0, Start_track
1, 0, Title_t, "Melody"
1, 0, Tempo, 326086
1, 0, Key_signature, -2, "major"
1, 0, Time_signature, 4, 2, 24, 8
1, 3028, Note_on_c, 0, 58, 113
1, 3077, Note_off_c, 0, 58, 113
1, 3083, Note_on_c, 0, 61, 113
1, 3129, Note_off_c, 0, 61, 113
1, 3142, Note_on_c, 0, 62, 118
1, 3218, Note_off_c, 0, 62, 118
1, 3228, Note_on_c, 0, 58, 115
1, 3318, Note_off_c, 0, 58, 115
1, 3394, Note_on_c, 0, 58, 114
1, 3493, Note_off_c, 0, 58, 114
1, 3569, Note_on_c, 0, 61, 110
1, 3666, Note_off_c, 0, 61, 110
1, 3681, Note_on_c, 0, 58, 106
1, 3752, Note_off_c, 0, 58, 106
1, 3765, Note_on_c, 0, 61, 107
1, 3838, Note_off_c, 0, 61, 107
1, 3856, Note_on_c, 0, 58, 108
1, 3956, Note_off_c, 0, 58, 108
1, 3957, Note_on_c, 0, 61, 107
1, 4033, Note_off_c, 0, 61, 107
1, 4033, Note_on_c, 0, 58, 108
1, 4130, Note_off_c, 0, 58, 108
1, 4194, Note_on_c, 0, 65, 108
1, 4333, Note_off_c, 0, 65, 108
1, 4337, Note_on_c, 0, 63, 107
1, 4405, Note_off_c, 0, 63, 107
1, 4406, Note_on_c, 0, 61, 104
1, 4511, Note_off_c, 0, 61, 104
1, 4528, Note_on_c, 0, 62, 111
1, 4594, Note_off_c, 0, 62, 111
1, 4605, Note_on_c, 0, 58, 103
1, 4710, Note_off_c, 0, 58, 103
1, 4715, Note_on_c, 0, 61, 111
1, 4786, Note_off_c, 0, 61, 111
1, 4796, Note_on_c, 0, 58, 98
1, 4970, Note_off_c, 0, 58, 98
1, 4985, Note_on_c, 0, 65, 110
1, 5104, Note_off_c, 0, 65, 110
1, 5115, Note_on_c, 0, 58, 101
1, 5183, Note_off_c, 0, 58, 101
1, 5201, Note_on_c, 0, 58, 97
1, 5284, Note_off_c, 0, 58, 97
1, 5301, Note_on_c, 0, 61, 98
1, 5352, Note_off_c, 0, 61, 98
1, 5358, Note_on_c, 0, 65, 118
1, 5434, Note_off_c, 0, 65, 118
1, 5545, Note_on_c, 0, 65, 107
1, 5654, Note_off_c, 0, 65, 107
1, 5742, Note_on_c, 0, 65, 104
1, 5859, Note_off_c, 0, 65, 104
1, 5988, Note_on_c, 0, 60, 100
1, 6087, Note_off_c, 0, 60, 100
1, 6090, Note_on_c, 0, 61, 108
1, 6214, Note_off_c, 0, 61, 108
1, 6231, Note_on_c, 0, 60, 99
1, 6412, Note_off_c, 0, 60, 99
1, 6439, Note_on_c, 0, 58, 104
1, 6505, Note_off_c, 0, 58, 104
1, 6549, Note_on_c, 0, 60, 107
1, 6586, Note_off_c, 0, 60, 107
1, 6603, Note_on_c, 0, 61, 113
1, 6664, Note_off_c, 0, 61, 113
1, 6677, Note_on_c, 0, 58, 108
1, 6740, Note_off_c, 0, 58, 108
1, 6833, Note_on_c, 0, 60, 104
1, 6875, Note_off_c, 0, 60, 104
1, 6880, Note_on_c, 0, 61, 113
1, 6950, Note_off_c, 0, 61, 113
1, 7009, Note_on_c, 0, 58, 104
1, 7220, Note_off_c, 0, 58, 104
1, 7840, Note_on_c, 0, 64, 118
1, 7907, Note_off_c, 0, 64, 118
1, 7907, Note_on_c, 0, 65, 119
1, 7995, Note_off_c, 0, 65, 119
1, 8028, Note_on_c, 0, 67, 126
1, 8169, Note_off_c, 0, 67, 126
1, 8169, Note_on_c, 0, 69, 123
1, 8272, Note_off_c, 0, 69, 123
1, 8284, Note_on_c, 0, 70, 120
1, 8398, Note_off_c, 0, 70, 120
1, 8401, Note_on_c, 0, 69, 118
1, 8500, Note_off_c, 0, 69, 118
1, 8515, Note_on_c, 0, 67, 124
1, 8615, Note_off_c, 0, 67, 124
1, 8628, Note_on_c, 0, 65, 114
1, 8723, Note_off_c, 0, 65, 114
1, 8734, Note_on_c, 0, 62, 113
1, 8810, Note_off_c, 0, 62, 113
1, 8823, Note_on_c, 0, 61, 111
1, 8940, Note_off_c, 0, 61, 111
1, 8949, Note_on_c, 0, 60, 107
1, 9017, Note_off_c, 0, 60, 107
1, 9027, Note_on_c, 0, 58, 95
1, 9099, Note_off_c, 0, 58, 95
1, 9146, Note_on_c, 0, 61, 107
1, 9246, Note_off_c, 0, 61, 107
1, 9254, Note_on_c, 0, 60, 112
1, 9350, Note_off_c, 0, 60, 112
1, 9358, Note_on_c, 0, 58, 101
1, 9446, Note_off_c, 0, 58, 101
1, 9498, Note_on_c, 0, 65, 113
1, 9586, Note_off_c, 0, 65, 113
1, 9679, Note_on_c, 0, 58, 104
1, 9746, Note_off_c, 0, 58, 104
1, 9746, Note_on_c, 0, 61, 111
1, 9858, Note_off_c, 0, 61, 111
1, 9862, Note_on_c, 0, 60, 108
1, 9922, Note_off_c, 0, 60, 108
1, 9931, Note_on_c, 0, 58, 100
1, 10003, Note_off_c, 0, 58, 100
1, 10072, Note_on_c, 0, 60, 107
1, 10158, Note_off_c, 0, 60, 107
1, 10172, Note_on_c, 0, 61, 108
1, 10308, Note_off_c, 0, 61, 108
1, 10327, Note_on_c, 0, 58, 104
1, 10396, Note_off_c, 0, 58, 104
1, 10456, Note_on_c, 0, 60, 106
1, 10535, Note_off_c, 0, 60, 106
1, 10551, Note_on_c, 0, 61, 106
1, 10683, Note_off_c, 0, 61, 106
1, 10692, Note_on_c, 0, 58, 104
1, 10836, Note_off_c, 0, 58, 104
1, 10848, Note_on_c, 0, 53, 97
1, 11268, Note_off_c, 0, 53, 97
1, 12051, Note_on_c, 0, 64, 110
1, 12123, Note_off_c, 0, 64, 110
1, 12125, Note_on_c, 0, 68, 123
1, 12410, Note_off_c, 0, 68, 123
1, 12448, Note_on_c, 0, 67, 121
1, 12609, Note_off_c, 0, 67, 121
1, 12625, Note_on_c, 0, 65, 112
1, 12699, Note_off_c, 0, 65, 112
1, 12960, Note_on_c, 0, 67, 125
1, 13051, Note_off_c, 0, 67, 125
1, 13070, Note_on_c, 0, 68, 127
1, 13211, Note_off_c, 0, 68, 127
1, 13232, Note_on_c, 0, 67, 111
1, 13361, Note_off_c, 0, 67, 111
1, 13363, Note_on_c, 0, 65, 108
1, 13531, Note_off_c, 0, 65, 108
1, 13540, Note_on_c, 0, 68, 104
1, 13602, Note_off_c, 0, 68, 104
1, 13623, Note_on_c, 0, 65, 102
1, 13690, Note_off_c, 0, 65, 102
1, 14180, Note_on_c, 0, 65, 112
1, 14292, Note_off_c, 0, 65, 112
1, 14316, Note_on_c, 0, 67, 112
1, 14361, Note_off_c, 0, 67, 112
1, 14373, Note_on_c, 0, 68, 123
1, 14500, Note_off_c, 0, 68, 123
1, 14507, Note_on_c, 0, 67, 114
1, 14555, Note_off_c, 0, 67, 114
1, 14567, Note_on_c, 0, 68, 120
1, 14672, Note_off_c, 0, 68, 120
1, 14679, Note_on_c, 0, 70, 118
1, 14948, Note_off_c, 0, 70, 118
1, 14955, Note_on_c, 0, 68, 119
1, 15087, Note_off_c, 0, 68, 119
1, 15156, Note_on_c, 0, 67, 120
1, 15280, Note_off_c, 0, 67, 120
1, 15325, Note_on_c, 0, 65, 113
1, 15437, Note_off_c, 0, 65, 113
1, 15533, Note_on_c, 0, 58, 112
1, 15645, Note_off_c, 0, 58, 112
1, 15709, Note_on_c, 0, 61, 108
1, 15747, Note_off_c, 0, 61, 108
1, 15759, Note_on_c, 0, 62, 105
1, 15838, Note_off_c, 0, 62, 105
1, 15850, Note_on_c, 0, 58, 108
1, 15912, Note_off_c, 0, 58, 108
1, 16020, Note_on_c, 0, 65, 108
1, 16375, Note_off_c, 0, 65, 108
1, 16473, Note_on_c, 0, 67, 122
1, 16590, Note_off_c, 0, 67, 122
1, 16659, Note_on_c, 0, 65, 116
1, 16762, Note_off_c, 0, 65, 116
1, 16776, Note_on_c, 0, 64, 102
1, 16824, Note_off_c, 0, 64, 102
1, 16857, Note_on_c, 0, 63, 111
1, 16991, Note_off_c, 0, 63, 111
1, 17055, Note_on_c, 0, 58, 111
1, 17160, Note_off_c, 0, 58, 111
1, 17229, Note_on_c, 0, 61, 102
1, 17284, Note_off_c, 0, 61, 102
1, 17305, Note_on_c, 0, 62, 105
1, 17391, Note_off_c, 0, 62, 105
1, 17403, Note_on_c, 0, 58, 110
1, 17482, Note_off_c, 0, 58, 110
1, 17551, Note_on_c, 0, 58, 97
1, 17812, Note_off_c, 0, 58, 97
1, 18511, Note_on_c, 0, 65, 110
1, 18575, Note_off_c, 0, 65, 110
1, 18575, Note_on_c, 0, 67, 122
1, 18683, Note_off_c, 0, 67, 122
1, 18692, Note_on_c, 0, 69, 119
1, 18764, Note_off_c, 0, 69, 119
1, 18766, Note_on_c, 0, 70, 120
1, 18866, Note_off_c, 0, 70, 120
1, 18942, Note_on_c, 0, 72, 119
1, 19059, Note_off_c, 0, 72, 119
1, 19140, Note_on_c, 0, 74, 124
1, 19276, Note_off_c, 0, 74, 124
1, 19295, Note_on_c, 0, 73, 116
1, 19383, Note_off_c, 0, 73, 116
1, 19397, Note_on_c, 0, 69, 106
1, 19478, Note_off_c, 0, 69, 106
1, 19502, Note_on_c, 0, 69, 122
1, 19569, Note_off_c, 0, 69, 122
1, 19583, Note_on_c, 0, 70, 114
1, 19681, Note_off_c, 0, 70, 114
1, 19930, Note_on_c, 0, 65, 111
1, 20050, Note_off_c, 0, 65, 111
1, 20146, Note_on_c, 0, 58, 100
1, 20328, Note_on_c, 0, 61, 109
1, 20328, Note_off_c, 0, 58, 100
1, 20436, Note_off_c, 0, 61, 109
1, 20448, Note_on_c, 0, 58, 105
1, 20551, Note_off_c, 0, 58, 105
1, 20672, Note_on_c, 0, 61, 86
1, 20717, Note_off_c, 0, 61, 86
1, 20723, Note_on_c, 0, 62, 93
1, 21016, Note_off_c, 0, 62, 93
1, 21098, Note_on_c, 0, 58, 112
1, 21225, Note_off_c, 0, 58, 112
1, 21234, Note_on_c, 0, 53, 103
1, 21416, Note_off_c, 0, 53, 103
1, 21416, Note_on_c, 0, 65, 108
1, 21533, Note_off_c, 0, 65, 108
1, 21533, End_track
0, 0, End_of_file
