0, 0, Header, 1, 1, 192
1, 0, Start_track
1, 0, Title_t, "Melody"
1, 0, Tempo, 242914
1, 0, Key_signature, 0, "major"
1, 0, Time_signature, 4, 2, 24, 8
1, 3416, Note_on_c, 0, 59, 117
1, 3491, Note_off_c, 0, 59, 117
1, 3499, Note_on_c, 0, 60, 117
1, 3590, Note_off_c, 0, 60, 117
1, 3617, Note_on_c, 0, 60, 118
1, 3696, Note_off_c, 0, 60, 118
1, 3707, Note_on_c, 0, 60, 114
1, 3773, Note_off_c, 0, 60, 114
1, 3793, Note_on_c, 0, 60, 117
1, 3884, Note_off_c, 0, 60, 117
1, 3895, Note_on_c, 0, 60, 113
1, 3962, Note_off_c, 0, 60, 113
1, 3978, Note_on_c, 0, 60, 116
1, 4073, Note_off_c, 0, 60, 116
1, 4095, Note_on_c, 0, 60, 116
1, 4165, Note_off_c, 0, 60, 116
1, 4177, Note_on_c, 0, 60, 113
1, 4267, Note_off_c, 0, 60, 113
1, 4292, Note_on_c, 0, 61, 106
1, 4371, Note_off_c, 0, 61, 106
1, 4382, Note_on_c, 0, 64, 111
1, 4538, Note_off_c, 0, 64, 111
1, 4734, Note_on_c, 0, 60, 113
1, 4803, Note_off_c, 0, 60, 113
1, 4815, Note_on_c, 0, 60, 107
1, 4892, Note_off_c, 0, 60, 107
1, 4908, Note_on_c, 0, 60, 110
1, 5016, Note_off_c, 0, 60, 110
1, 5030, Note_on_c, 0, 61, 97
1, 5071, Note_off_c, 0, 61, 97
1, 5098, Note_on_c, 0, 63, 111
1, 5243, Note_off_c, 0, 63, 111
1, 5302, Note_on_c, 0, 59, 97
1, 5366, Note_off_c, 0, 59, 97
1, 5405, Note_on_c, 0, 60, 109
1, 5651, Note_off_c, 0, 60, 109
1, 5670, Note_on_c, 0, 61, 105
1, 5823, Note_off_c, 0, 61, 105
1, 5859, Note_on_c, 0, 64, 102
1, 6029, Note_off_c, 0, 64, 102
1, 6058, Note_on_c, 0, 67, 113
1, 6254, Note_off_c, 0, 67, 113
1, 6263, Note_on_c, 0, 67, 118
1, 6388, Note_off_c, 0, 67, 118
1, 6429, Note_on_c, 0, 64, 101
1, 6541, Note_off_c, 0, 64, 101
1, 6629, Note_on_c, 0, 60, 111
1, 6722, Note_off_c, 0, 60, 111
1, 6778, Note_on_c, 0, 58, 104
1, 6876, Note_off_c, 0, 58, 104
1, 6938, Note_on_c, 0, 60, 94
1, 7342, Note_off_c, 0, 60, 94
1, 7667, Note_on_c, 0, 61, 107
1, 7708, Note_off_c, 0, 61, 107
1, 7740, Note_on_c, 0, 63, 109
1, 7831, Note_off_c, 0, 63, 109
1, 7839, Note_on_c, 0, 64, 113
1, 7984, Note_off_c, 0, 64, 113
1, 8072, Note_on_c, 0, 69, 111
1, 8212, Note_off_c, 0, 69, 111
1, 8249, Note_on_c, 0, 67, 123
1, 8357, Note_off_c, 0, 67, 123
1, 8419, Note_on_c, 0, 64, 110
1, 8502, Note_off_c, 0, 64, 110
1, 8516, Note_on_c, 0, 60, 105
1, 8638, Note_off_c, 0, 60, 105
1, 8712, Note_on_c, 0, 58, 106
1, 8795, Note_off_c, 0, 58, 106
1, 8870, Note_on_c, 0, 61, 109
1, 8966, Note_off_c, 0, 61, 109
1, 8986, Note_on_c, 0, 63, 111
1, 9118, Note_off_c, 0, 63, 111
1, 9130, Note_on_c, 0, 64, 110
1, 9315, Note_off_c, 0, 64, 110
1, 9335, Note_on_c, 0, 63, 99
1, 9447, Note_off_c, 0, 63, 99
1, 9455, Note_on_c, 0, 60, 106
1, 9567, Note_off_c, 0, 60, 106
1, 9612, Note_on_c, 0, 60, 91
1, 9989, Note_off_c, 0, 60, 91
1, 10563, Note_on_c, 0, 57, 103
1, 10613, Note_off_c, 0, 57, 103
1, 10630, Note_on_c, 0, 61, 104
1, 10678, Note_off_c, 0, 61, 104
1, 10692, Note_on_c, 0, 66, 111
1, 10735, Note_off_c, 0, 66, 111
1, 10741, Note_on_c, 0, 69, 116
1, 10766, Note_off_c, 0, 69, 116
1, 10775, Note_on_c, 0, 70, 120
1, 11023, Note_off_c, 0, 70, 120
1, 11143, Note_on_c, 0, 72, 118
1, 11249, Note_off_c, 0, 72, 118
1, 11260, Note_on_c, 0, 71, 118
1, 11356, Note_off_c, 0, 71, 118
1, 11362, Note_on_c, 0, 69, 110
1, 11395, Note_off_c, 0, 69, 110
1, 11407, Note_on_c, 0, 66, 99
1, 11448, Note_off_c, 0, 66, 99
1, 11457, Note_on_c, 0, 63, 101
1, 11500, Note_off_c, 0, 63, 101
1, 11506, Note_on_c, 0, 57, 100
1, 11526, Note_off_c, 0, 57, 100
1, 11538, Note_on_c, 0, 58, 109
1, 11792, Note_off_c, 0, 58, 109
1, 11798, Note_on_c, 0, 57, 91
1, 11822, Note_off_c, 0, 57, 91
1, 11841, Note_on_c, 0, 55, 105
1, 11966, Note_off_c, 0, 55, 105
1, 12003, Note_on_c, 0, 57, 101
1, 12170, Note_off_c, 0, 57, 101
1, 12200, Note_on_c, 0, 57, 91
1, 12264, Note_off_c, 0, 57, 91
1, 12291, Note_on_c, 0, 60, 108
1, 12384, Note_off_c, 0, 60, 108
1, 12467, Note_on_c, 0, 58, 104
1, 12604, Note_off_c, 0, 58, 104
1, 12637, Note_on_c, 0, 55, 108
1, 12757, Note_off_c, 0, 55, 108
1, 12761, Note_on_c, 0, 56, 99
1, 12917, Note_off_c, 0, 56, 99
1, 12970, Note_on_c, 0, 60, 111
1, 13082, Note_off_c, 0, 60, 111
1, 13146, Note_on_c, 0, 60, 92
1, 13742, Note_off_c, 0, 60, 92
1, 13787, Note_on_c, 0, 60, 100
1, 13938, Note_off_c, 0, 60, 100
1, 13975, Note_on_c, 0, 57, 98
1, 14045, Note_off_c, 0, 57, 98
1, 14077, Note_on_c, 0, 64, 105
1, 14127, Note_off_c, 0, 64, 105
1, 14144, Note_on_c, 0, 65, 108
1, 14258, Note_off_c, 0, 65, 108
1, 14269, Note_on_c, 0, 67, 119
1, 14425, Note_off_c, 0, 67, 119
1, 14447, Note_on_c, 0, 64, 108
1, 14530, Note_off_c, 0, 64, 108
1, 14534, Note_on_c, 0, 63, 99
1, 14577, Note_off_c, 0, 63, 99
1, 14646, Note_on_c, 0, 60, 100
1, 14779, Note_off_c, 0, 60, 100
1, 14843, Note_on_c, 0, 60, 103
1, 15018, Note_off_c, 0, 60, 103
1, 15055, Note_on_c, 0, 57, 98
1, 15088, Note_off_c, 0, 57, 98
1, 15110, Note_on_c, 0, 55, 106
1, 15214, Note_off_c, 0, 55, 106
1, 15234, Note_on_c, 0, 60, 109
1, 15371, Note_off_c, 0, 60, 109
1, 16053, Note_on_c, 0, 60, 115
1, 16220, Note_off_c, 0, 60, 115
1, 16244, Note_on_c, 0, 66, 112
1, 16323, Note_off_c, 0, 66, 112
1, 16339, Note_on_c, 0, 67, 126
1, 16468, Note_off_c, 0, 67, 126
1, 16550, Note_on_c, 0, 65, 107
1, 16643, Note_off_c, 0, 65, 107
1, 16704, Note_on_c, 0, 60, 108
1, 16802, Note_off_c, 0, 60, 108
1, 16892, Note_on_c, 0, 56, 107
1, 17011, Note_off_c, 0, 56, 107
1, 17051, Note_on_c, 0, 53, 107
1, 17180, Note_off_c, 0, 53, 107
1, 17225, Note_on_c, 0, 53, 100
1, 17589, Note_off_c, 0, 53, 100
1, 17601, Note_on_c, 0, 57, 107
1, 17718, Note_off_c, 0, 57, 107
1, 17734, Note_on_c, 0, 57, 103
1, 17845, Note_off_c, 0, 57, 103
1, 17906, Note_on_c, 0, 61, 108
1, 18025, Note_off_c, 0, 61, 108
1, 18078, Note_on_c, 0, 63, 104
1, 18189, Note_off_c, 0, 63, 104
1, 18239, Note_on_c, 0, 66, 105
1, 18303, Note_off_c, 0, 66, 105
1, 18315, Note_on_c, 0, 65, 97
1, 18344, Note_off_c, 0, 65, 97
1, 18382, Note_on_c, 0, 63, 100
1, 18498, Note_off_c, 0, 63, 100
1, 18546, Note_on_c, 0, 60, 103
1, 18654, Note_off_c, 0, 60, 103
1, 18715, Note_on_c, 0, 60, 93
1, 19102, Note_off_c, 0, 60, 93
1, 19476, Note_on_c, 0, 57, 100
1, 19511, Note_off_c, 0, 57, 100
1, 19517, Note_on_c, 0, 58, 115
1, 19705, Note_off_c, 0, 58, 115
1, 19759, Note_on_c, 0, 60, 115
1, 19934, Note_off_c, 0, 60, 115
1, 19996, Note_on_c, 0, 58, 116
1, 20115, Note_off_c, 0, 58, 116
1, 20187, Note_on_c, 0, 58, 99
1, 20641, Note_off_c, 0, 58, 99
1, 21039, Note_on_c, 0, 56, 115
1, 21113, Note_off_c, 0, 56, 115
1, 21151, Note_on_c, 0, 56, 113
1, 21284, Note_off_c, 0, 56, 113
1, 21306, Note_on_c, 0, 51, 103
1, 21362, Note_off_c, 0, 51, 103
1, 21392, Note_on_c, 0, 57, 109
1, 21640, Note_off_c, 0, 57, 109
1, 21667, Note_on_c, 0, 56, 109
1, 21887, Note_off_c, 0, 56, 109
1, 21925, Note_on_c, 0, 63, 112
1, 21995, Note_off_c, 0, 63, 112
1, 22011, Note_on_c, 0, 64, 118
1, 22080, Note_off_c, 0, 64, 118
1, 22094, Note_on_c, 0, 65, 104
1, 22519, Note_off_c, 0, 65, 104
1, 22577, Note_on_c, 0, 64, 109
1, 22760, Note_off_c, 0, 64, 109
1, 22827, Note_on_c, 0, 60, 110
1, 22978, Note_off_c, 0, 60, 110
1, 23013, Note_on_c, 0, 55, 98
1, 23361, Note_off_c, 0, 55, 98
1, 23681, Note_on_c, 0, 60, 111
1, 23805, Note_off_c, 0, 60, 111
1, 23866, Note_on_c, 0, 60, 106
1, 24001, Note_off_c, 0, 60, 106
1, 24071, Note_on_c, 0, 67, 112
1, 24425, Note_off_c, 0, 67, 112
1, 24450, Note_on_c, 0, 64, 100
1, 24464, Note_off_c, 0, 64, 100
1, 24468, Note_on_c, 0, 65, 110
1, 24556, Note_off_c, 0, 65, 110
1, 24580, Note_on_c, 0, 65, 110
1, 24689, Note_off_c, 0, 65, 110
1, 24718, Note_on_c, 0, 65, 111
1, 24809, Note_off_c, 0, 65, 111
1, 24828, Note_on_c, 0, 64, 105
1, 24992, Note_off_c, 0, 64, 105
1, 25032, Note_on_c, 0, 62, 106
1, 25117, Note_off_c, 0, 62, 106
1, 25147, Note_on_c, 0, 60, 94
1, 25477, Note_off_c, 0, 60, 94
1, 25836, Note_on_c, 0, 60, 107
1, 25926, Note_off_c, 0, 60, 107
1, 25945, Note_on_c, 0, 63, 113
1, 26096, Note_off_c, 0, 63, 113
1, 26116, Note_on_c, 0, 60, 111
1, 26241, Note_off_c, 0, 60, 111
1, 26276, Note_on_c, 0, 63, 114
1, 26398, Note_off_c, 0, 63, 114
1, 26435, Note_on_c, 0, 60, 109
1, 26565, Note_off_c, 0, 60, 109
1, 26595, Note_on_c, 0, 67, 127
1, 26711, Note_off_c, 0, 67, 127
1, 26719, Note_on_c, 0, 68, 93
1, 26807, Note_off_c, 0, 68, 93
1, 26834, Note_on_c, 0, 65, 111
1, 26904, Note_off_c, 0, 65, 111
1, 26973, Note_on_c, 0, 64, 104
1, 27073, Note_off_c, 0, 64, 104
1, 27084, Note_on_c, 0, 63, 103
1, 27195, Note_off_c, 0, 63, 103
1, 27209, Note_on_c, 0, 60, 107
1, 27360, Note_off_c, 0, 60, 107
1, 27414, Note_on_c, 0, 60, 96
1, 27855, Note_off_c, 0, 60, 96
1, 27855, End_track
0, 0, End_of_file
