0, 0, Header, 1, 1, 192
1, 0, Start_track
1, 0, Title_t, "Melody"
1, 0, Tempo, 240963
1, 0, Key_signature, -2, "major"
1, 0, Time_signature, 4, 2, 24, 8
1, 3592, Note_on_c, 0, 74, 114
1, 3707, Note_off_c, 0, 74, 114
1, 3790, Note_on_c, 0, 77, 118
1, 4076, Note_off_c, 0, 77, 118
1, 4102, Note_on_c, 0, 74, 117
1, 4186, Note_off_c, 0, 74, 117
1, 4202, Note_on_c, 0, 75, 121
1, 4344, Note_off_c, 0, 75, 121
1, 4363, Note_on_c, 0, 77, 114
1, 4541, Note_off_c, 0, 77, 114
1, 5144, Note_on_c, 0, 74, 110
1, 5274, Note_off_c, 0, 74, 110
1, 5344, Note_on_c, 0, 75, 118
1, 5640, Note_off_c, 0, 75, 118
1, 5777, Note_on_c, 0, 75, 118
1, 5877, Note_off_c, 0, 75, 118
1, 5942, Note_on_c, 0, 74, 111
1, 6058, Note_off_c, 0, 74, 111
1, 6074, Note_on_c, 0, 77, 104
1, 6327, Note_off_c, 0, 77, 104
1, 7293, Note_on_c, 0, 86, 125
1, 7405, Note_off_c, 0, 86, 125
1, 7446, Note_on_c, 0, 84, 113
1, 7488, Note_off_c, 0, 84, 113
1, 7496, Note_on_c, 0, 82, 119
1, 7598, Note_off_c, 0, 82, 119
1, 7693, Note_on_c, 0, 84, 127
1, 7796, Note_off_c, 0, 84, 127
1, 7814, Note_on_c, 0, 82, 120
1, 7866, Note_off_c, 0, 82, 120
1, 7876, Note_on_c, 0, 81, 121
1, 7978, Note_off_c, 0, 81, 121
1, 7997, Note_on_c, 0, 79, 110
1, 8042, Note_off_c, 0, 79, 110
1, 8052, Note_on_c, 0, 77, 119
1, 8154, Note_off_c, 0, 77, 119
1, 8177, Note_on_c, 0, 75, 117
1, 8264, Note_off_c, 0, 75, 117
1, 8281, Note_on_c, 0, 73, 100
1, 8349, Note_off_c, 0, 73, 100
1, 8356, Note_on_c, 0, 74, 118
1, 8417, Note_off_c, 0, 74, 118
1, 8430, Note_on_c, 0, 75, 117
1, 8555, Note_off_c, 0, 75, 117
1, 8585, Note_on_c, 0, 73, 96
1, 8620, Note_off_c, 0, 73, 96
1, 8641, Note_on_c, 0, 74, 117
1, 8741, Note_off_c, 0, 74, 117
1, 8759, Note_on_c, 0, 70, 101
1, 8893, Note_off_c, 0, 70, 101
1, 9789, Note_on_c, 0, 84, 122
1, 9841, Note_off_c, 0, 84, 122
1, 9855, Note_on_c, 0, 86, 109
1, 9917, Note_off_c, 0, 86, 109
1, 9929, Note_on_c, 0, 89, 119
1, 10130, Note_off_c, 0, 89, 119
1, 10547, Note_on_c, 0, 87, 101
1, 10666, Note_off_c, 0, 87, 101
1, 10745, Note_on_c, 0, 80, 113
1, 10833, Note_off_c, 0, 80, 113
1, 10851, Note_on_c, 0, 84, 122
1, 10992, Note_off_c, 0, 84, 122
1, 11021, Note_on_c, 0, 82, 118
1, 11119, Note_off_c, 0, 82, 118
1, 11125, Note_on_c, 0, 81, 117
1, 11222, Note_off_c, 0, 81, 117
1, 11243, Note_on_c, 0, 79, 107
1, 11291, Note_off_c, 0, 79, 107
1, 11301, Note_on_c, 0, 77, 118
1, 11426, Note_off_c, 0, 77, 118
1, 11442, Note_on_c, 0, 76, 117
1, 11515, Note_off_c, 0, 76, 117
1, 11535, Note_on_c, 0, 75, 122
1, 11633, Note_off_c, 0, 75, 122
1, 11660, Note_on_c, 0, 67, 103
1, 11720, Note_off_c, 0, 67, 103
1, 11723, Note_on_c, 0, 70, 119
1, 11797, Note_off_c, 0, 70, 119
1, 11812, Note_on_c, 0, 74, 118
1, 11903, Note_off_c, 0, 74, 118
1, 11909, Note_on_c, 0, 72, 118
1, 11952, Note_off_c, 0, 72, 118
1, 11963, Note_on_c, 0, 74, 116
1, 12015, Note_off_c, 0, 74, 116
1, 12036, Note_on_c, 0, 72, 119
1, 12085, Note_off_c, 0, 72, 119
1, 12095, Note_on_c, 0, 70, 118
1, 12205, Note_off_c, 0, 70, 118
1, 12215, Note_on_c, 0, 67, 104
1, 12263, Note_off_c, 0, 67, 104
1, 12284, Note_on_c, 0, 68, 110
1, 12391, Note_off_c, 0, 68, 110
1, 12403, Note_on_c, 0, 70, 118
1, 12476, Note_off_c, 0, 70, 118
1, 12491, Note_on_c, 0, 68, 111
1, 12543, Note_off_c, 0, 68, 111
1, 12552, Note_on_c, 0, 70, 109
1, 12597, Note_off_c, 0, 70, 109
1, 12604, Note_on_c, 0, 68, 114
1, 12659, Note_off_c, 0, 68, 114
1, 12678, Note_on_c, 0, 67, 110
1, 12764, Note_off_c, 0, 67, 110
1, 12774, Note_on_c, 0, 65, 110
1, 12865, Note_off_c, 0, 65, 110
1, 12882, Note_on_c, 0, 64, 104
1, 12930, Note_off_c, 0, 64, 104
1, 12977, Note_on_c, 0, 70, 107
1, 13060, Note_off_c, 0, 70, 107
1, 13075, Note_on_c, 0, 73, 112
1, 13158, Note_off_c, 0, 73, 112
1, 13167, Note_on_c, 0, 74, 117
1, 13234, Note_off_c, 0, 74, 117
1, 13239, Note_on_c, 0, 75, 121
1, 13351, Note_off_c, 0, 75, 121
1, 13369, Note_on_c, 0, 76, 113
1, 13421, Note_off_c, 0, 76, 113
1, 13433, Note_on_c, 0, 77, 118
1, 13539, Note_off_c, 0, 77, 118
1, 13627, Note_on_c, 0, 70, 111
1, 13728, Note_off_c, 0, 70, 111
1, 13749, Note_on_c, 0, 74, 117
1, 13818, Note_off_c, 0, 74, 117
1, 13831, Note_on_c, 0, 73, 116
1, 13926, Note_off_c, 0, 73, 116
1, 14008, Note_on_c, 0, 72, 117
1, 14132, Note_off_c, 0, 72, 117
1, 14149, Note_on_c, 0, 68, 114
1, 14210, Note_off_c, 0, 68, 114
1, 14216, Note_on_c, 0, 67, 108
1, 14318, Note_off_c, 0, 67, 108
1, 14344, Note_on_c, 0, 65, 95
1, 14391, Note_off_c, 0, 65, 95
1, 14396, Note_on_c, 0, 70, 116
1, 14513, Note_off_c, 0, 70, 116
1, 14543, Note_on_c, 0, 67, 97
1, 14594, Note_off_c, 0, 67, 97
1, 14607, Note_on_c, 0, 68, 110
1, 14731, Note_off_c, 0, 68, 110
1, 14732, Note_on_c, 0, 70, 117
1, 14779, Note_off_c, 0, 70, 117
1, 14787, Note_on_c, 0, 68, 102
1, 14860, Note_off_c, 0, 68, 102
1, 14868, Note_on_c, 0, 70, 106
1, 14909, Note_off_c, 0, 70, 106
1, 14917, Note_on_c, 0, 68, 112
1, 14968, Note_off_c, 0, 68, 112
1, 14987, Note_on_c, 0, 67, 112
1, 15081, Note_off_c, 0, 67, 112
1, 15094, Note_on_c, 0, 65, 114
1, 15300, Note_off_c, 0, 65, 114
1, 15309, Note_on_c, 0, 67, 108
1, 15359, Note_off_c, 0, 67, 108
1, 15372, Note_on_c, 0, 64, 113
1, 15928, Note_off_c, 0, 64, 113
1, 15940, Note_on_c, 0, 69, 115
1, 16058, Note_off_c, 0, 69, 115
1, 16072, Note_on_c, 0, 71, 113
1, 16128, Note_off_c, 0, 71, 113
1, 16140, Note_on_c, 0, 72, 118
1, 16244, Note_off_c, 0, 72, 118
1, 16254, Note_on_c, 0, 71, 114
1, 16315, Note_off_c, 0, 71, 114
1, 16327, Note_on_c, 0, 69, 113
1, 16440, Note_off_c, 0, 69, 113
1, 16459, Note_on_c, 0, 67, 112
1, 16536, Note_off_c, 0, 67, 112
1, 16555, Note_on_c, 0, 66, 95
1, 16641, Note_off_c, 0, 66, 95
1, 16708, Note_on_c, 0, 72, 117
1, 16828, Note_off_c, 0, 72, 117
1, 16833, Note_on_c, 0, 75, 118
1, 16933, Note_off_c, 0, 75, 118
1, 16937, Note_on_c, 0, 74, 118
1, 17017, Note_off_c, 0, 74, 118
1, 17027, Note_on_c, 0, 72, 114
1, 17099, Note_off_c, 0, 72, 114
1, 17105, Note_on_c, 0, 71, 111
1, 17160, Note_off_c, 0, 71, 111
1, 17170, Note_on_c, 0, 74, 93
1, 17238, Note_off_c, 0, 74, 93
1, 17250, Note_on_c, 0, 76, 100
1, 17294, Note_off_c, 0, 76, 100
1, 17298, Note_on_c, 0, 81, 121
1, 17400, Note_off_c, 0, 81, 121
1, 17428, Note_on_c, 0, 84, 119
1, 17486, Note_off_c, 0, 84, 119
1, 17498, Note_on_c, 0, 83, 119
1, 17610, Note_off_c, 0, 83, 119
1, 17625, Note_on_c, 0, 85, 122
1, 17942, Note_off_c, 0, 85, 122
1, 18845, Note_on_c, 0, 79, 115
1, 18927, Note_off_c, 0, 79, 115
1, 18937, Note_on_c, 0, 81, 96
1, 18992, Note_off_c, 0, 81, 96
1, 19004, Note_on_c, 0, 86, 85
1, 19121, Note_off_c, 0, 86, 85
1, 19185, Note_on_c, 0, 89, 122
1, 19258, Note_off_c, 0, 89, 122
1, 19264, Note_on_c, 0, 88, 120
1, 19549, Note_off_c, 0, 88, 120
1, 19553, Note_on_c, 0, 83, 96
1, 19609, Note_off_c, 0, 83, 96
1, 19627, Note_on_c, 0, 86, 124
1, 19740, Note_off_c, 0, 86, 124
1, 19759, Note_on_c, 0, 84, 113
1, 19879, Note_off_c, 0, 84, 113
1, 19946, Note_on_c, 0, 74, 97
1, 19987, Note_off_c, 0, 74, 97
1, 19995, Note_on_c, 0, 82, 119
1, 20112, Note_off_c, 0, 82, 119
1, 20121, Note_on_c, 0, 81, 116
1, 20182, Note_off_c, 0, 81, 116
1, 20190, Note_on_c, 0, 80, 114
1, 20288, Note_off_c, 0, 80, 114
1, 20304, Note_on_c, 0, 78, 105
1, 20350, Note_off_c, 0, 78, 105
1, 20386, Note_on_c, 0, 77, 114
1, 20482, Note_off_c, 0, 77, 114
1, 20501, Note_on_c, 0, 74, 117
1, 20572, Note_off_c, 0, 74, 117
1, 20581, Note_on_c, 0, 75, 115
1, 20687, Note_off_c, 0, 75, 115
1, 20699, Note_on_c, 0, 70, 104
1, 20984, Note_off_c, 0, 70, 104
1, 21854, Note_on_c, 0, 77, 110
1, 21901, Note_off_c, 0, 77, 110
1, 21955, Note_on_c, 0, 89, 110
1, 22170, Note_off_c, 0, 89, 110
1, 22183, Note_on_c, 0, 86, 105
1, 22393, Note_off_c, 0, 86, 105
1, 22396, Note_on_c, 0, 89, 112
1, 22544, Note_off_c, 0, 89, 112
1, 22562, Note_on_c, 0, 86, 93
1, 22736, Note_off_c, 0, 86, 93
1, 22736, Note_on_c, 0, 89, 89
1, 22955, Note_off_c, 0, 89, 89
1, 22964, Note_on_c, 0, 86, 85
1, 23132, Note_off_c, 0, 86, 85
1, 23143, Note_on_c, 0, 89, 80
1, 23351, Note_off_c, 0, 89, 80
1, 23360, Note_on_c, 0, 86, 88
1, 23545, Note_off_c, 0, 86, 88
1, 23553, Note_on_c, 0, 89, 110
1, 23757, Note_off_c, 0, 89, 110
1, 23770, Note_on_c, 0, 86, 111
1, 23974, Note_off_c, 0, 86, 111
1, 24000, Note_on_c, 0, 82, 85
1, 24169, Note_off_c, 0, 82, 85
1, 24196, Note_on_c, 0, 79, 80
1, 24242, Note_off_c, 0, 79, 80
1, 24268, Note_on_c, 0, 84, 117
1, 24453, Note_off_c, 0, 84, 117
1, 24470, Note_on_c, 0, 82, 117
1, 24577, Note_off_c, 0, 82, 117
1, 24590, Note_on_c, 0, 80, 114
1, 24657, Note_off_c, 0, 80, 114
1, 24666, Note_on_c, 0, 79, 116
1, 24750, Note_off_c, 0, 79, 116
1, 24764, Note_on_c, 0, 77, 115
1, 24839, Note_off_c, 0, 77, 115
1, 24847, Note_on_c, 0, 75, 117
1, 24964, Note_off_c, 0, 75, 117
1, 25054, Note_on_c, 0, 74, 113
1, 25155, Note_off_c, 0, 74, 113
1, 25165, Note_on_c, 0, 70, 115
1, 25230, Note_off_c, 0, 70, 115
1, 25242, Note_on_c, 0, 69, 106
1, 25309, Note_off_c, 0, 69, 106
1, 25422, Note_on_c, 0, 72, 115
1, 25534, Note_off_c, 0, 72, 115
1, 25546, Note_on_c, 0, 68, 111
1, 25626, Note_off_c, 0, 68, 111
1, 25837, Note_on_c, 0, 70, 116
1, 25949, Note_off_c, 0, 70, 116
1, 25961, Note_on_c, 0, 67, 93
1, 26015, Note_off_c, 0, 67, 93
1, 26027, Note_on_c, 0, 68, 106
1, 26124, Note_off_c, 0, 68, 106
1, 26150, Note_on_c, 0, 70, 118
1, 26228, Note_off_c, 0, 70, 118
1, 26237, Note_on_c, 0, 68, 108
1, 26286, Note_off_c, 0, 68, 108
1, 26297, Note_on_c, 0, 70, 102
1, 26339, Note_off_c, 0, 70, 102
1, 26354, Note_on_c, 0, 68, 111
1, 26410, Note_off_c, 0, 68, 111
1, 26427, Note_on_c, 0, 67, 112
1, 26515, Note_off_c, 0, 67, 112
1, 26532, Note_on_c, 0, 65, 106
1, 26643, Note_off_c, 0, 65, 106
1, 26726, Note_on_c, 0, 70, 106
1, 26792, Note_off_c, 0, 70, 106
1, 26806, Note_on_c, 0, 73, 111
1, 26899, Note_off_c, 0, 73, 111
1, 26908, Note_on_c, 0, 74, 117
1, 26973, Note_off_c, 0, 74, 117
1, 26982, Note_on_c, 0, 75, 116
1, 27084, Note_off_c, 0, 75, 116
1, 27100, Note_on_c, 0, 76, 116
1, 27164, Note_off_c, 0, 76, 116
1, 27173, Note_on_c, 0, 77, 116
1, 27286, Note_off_c, 0, 77, 116
1, 27414, Note_on_c, 0, 70, 106
1, 27481, Note_off_c, 0, 70, 106
1, 27490, Note_on_c, 0, 74, 115
1, 27555, Note_off_c, 0, 74, 115
1, 27560, Note_on_c, 0, 73, 107
1, 27689, Note_off_c, 0, 73, 107
1, 27778, Note_on_c, 0, 72, 117
1, 27868, Note_off_c, 0, 72, 117
1, 27880, Note_on_c, 0, 68, 107
1, 27940, Note_off_c, 0, 68, 107
1, 27954, Note_on_c, 0, 67, 107
1, 28071, Note_off_c, 0, 67, 107
1, 28155, Note_on_c, 0, 70, 111
1, 28301, Note_off_c, 0, 70, 111
1, 28301, End_track
0, 0, End_of_file
