0, 0, Header, 1, 1, 192
1, 0, Start_track
1, 0, Title_t, "Melody"
1, 0, Tempo, 206185
1, 0, Key_signature, -4, "major"
1, 0, Time_signature, 4, 2, 24, 8
1, 2756, Note_on_c, 0, 72, 112
1, 2807, Note_off_c, 0, 72, 112
1, 2811, Note_on_c, 0, 74, 107
1, 2889, Note_off_c, 0, 74, 107
1, 2896, Note_on_c, 0, 72, 105
1, 2958, Note_off_c, 0, 72, 105
1, 2966, Note_on_c, 0, 70, 105
1, 3036, Note_off_c, 0, 70, 105
1, 3163, Note_on_c, 0, 68, 107
1, 3254, Note_off_c, 0, 68, 107
1, 3288, Note_on_c, 0, 72, 111
1, 3348, Note_off_c, 0, 72, 111
1, 3482, Note_on_c, 0, 68, 102
1, 3542, Note_off_c, 0, 68, 102
1, 3669, Note_on_c, 0, 72, 115
1, 3737, Note_off_c, 0, 72, 115
1, 4304, Note_on_c, 0, 72, 106
1, 4347, Note_off_c, 0, 72, 106
1, 4357, Note_on_c, 0, 74, 108
1, 4422, Note_off_c, 0, 74, 108
1, 4428, Note_on_c, 0, 72, 105
1, 4469, Note_off_c, 0, 72, 105
1, 4474, Note_on_c, 0, 74, 99
1, 4519, Note_off_c, 0, 74, 99
1, 4526, Note_on_c, 0, 70, 98
1, 4598, Note_off_c, 0, 70, 98
1, 4625, Note_on_c, 0, 67, 85
1, 4687, Note_off_c, 0, 67, 85
1, 4703, Note_on_c, 0, 68, 99
1, 4813, Note_off_c, 0, 68, 99
1, 4841, Note_on_c, 0, 72, 113
1, 4913, Note_off_c, 0, 72, 113
1, 5033, Note_on_c, 0, 70, 102
1, 5087, Note_off_c, 0, 70, 102
1, 5214, Note_on_c, 0, 66, 105
1, 5319, Note_off_c, 0, 66, 105
1, 6060, Note_on_c, 0, 70, 116
1, 6143, Note_off_c, 0, 70, 116
1, 6161, Note_on_c, 0, 68, 109
1, 6206, Note_off_c, 0, 68, 109
1, 6230, Note_on_c, 0, 67, 101
1, 6297, Note_off_c, 0, 67, 101
1, 6328, Note_on_c, 0, 65, 111
1, 6417, Note_off_c, 0, 65, 111
1, 6450, Note_on_c, 0, 64, 90
1, 6527, Note_off_c, 0, 64, 90
1, 6544, Note_on_c, 0, 67, 87
1, 6587, Note_off_c, 0, 67, 87
1, 6607, Note_on_c, 0, 70, 117
1, 6688, Note_off_c, 0, 70, 117
1, 6729, Note_on_c, 0, 73, 116
1, 6804, Note_off_c, 0, 73, 116
1, 6819, Note_on_c, 0, 72, 112
1, 6883, Note_off_c, 0, 72, 112
1, 6895, Note_on_c, 0, 70, 118
1, 6980, Note_off_c, 0, 70, 118
1, 6993, Note_on_c, 0, 67, 95
1, 7095, Note_off_c, 0, 67, 95
1, 7110, Note_on_c, 0, 68, 90
1, 7158, Note_off_c, 0, 68, 90
1, 7172, Note_on_c, 0, 70, 112
1, 7282, Note_off_c, 0, 70, 112
1, 7297, Note_on_c, 0, 67, 91
1, 7369, Note_off_c, 0, 67, 91
1, 7381, Note_on_c, 0, 68, 104
1, 7449, Note_off_c, 0, 68, 104
1, 7571, Note_on_c, 0, 65, 106
1, 7633, Note_off_c, 0, 65, 106
1, 7670, Note_on_c, 0, 68, 108
1, 7737, Note_off_c, 0, 68, 108
1, 7758, Note_on_c, 0, 67, 103
1, 7817, Note_off_c, 0, 67, 103
1, 7885, Note_on_c, 0, 65, 114
1, 7941, Note_off_c, 0, 65, 114
1, 7949, Note_on_c, 0, 64, 89
1, 8035, Note_off_c, 0, 64, 89
1, 8042, Note_on_c, 0, 60, 87
1, 8129, Note_off_c, 0, 60, 87
1, 8139, Note_on_c, 0, 65, 112
1, 8233, Note_off_c, 0, 65, 112
1, 9192, Note_on_c, 0, 80, 119
1, 9565, Note_off_c, 0, 80, 119
1, 9577, Note_on_c, 0, 77, 118
1, 9645, Note_off_c, 0, 77, 118
1, 9651, Note_on_c, 0, 76, 118
1, 9731, Note_off_c, 0, 76, 118
1, 9739, Note_on_c, 0, 77, 103
1, 9782, Note_off_c, 0, 77, 103
1, 9794, Note_on_c, 0, 81, 117
1, 9840, Note_off_c, 0, 81, 117
1, 9872, Note_on_c, 0, 85, 124
1, 9943, Note_off_c, 0, 85, 124
1, 9950, Note_on_c, 0, 84, 120
1, 10022, Note_off_c, 0, 84, 120
1, 10029, Note_on_c, 0, 82, 119
1, 10067, Note_off_c, 0, 82, 119
1, 10078, Note_on_c, 0, 80, 119
1, 10148, Note_off_c, 0, 80, 119
1, 10153, Note_on_c, 0, 79, 111
1, 10199, Note_off_c, 0, 79, 111
1, 10204, Note_on_c, 0, 80, 113
1, 10257, Note_off_c, 0, 80, 113
1, 10263, Note_on_c, 0, 82, 118
1, 10353, Note_off_c, 0, 82, 118
1, 10362, Note_on_c, 0, 80, 119
1, 10437, Note_off_c, 0, 80, 119
1, 10442, Note_on_c, 0, 79, 111
1, 10519, Note_off_c, 0, 79, 111
1, 10528, Note_on_c, 0, 77, 119
1, 10610, Note_off_c, 0, 77, 119
1, 10615, Note_on_c, 0, 76, 111
1, 10678, Note_off_c, 0, 76, 111
1, 10681, Note_on_c, 0, 73, 88
1, 10718, Note_off_c, 0, 73, 88
1, 10789, Note_on_c, 0, 70, 115
1, 10885, Note_off_c, 0, 70, 115
1, 10891, Note_on_c, 0, 73, 112
1, 10960, Note_off_c, 0, 73, 112
1, 10973, Note_on_c, 0, 72, 107
1, 11061, Note_off_c, 0, 72, 107
1, 11066, Note_on_c, 0, 70, 116
1, 11144, Note_off_c, 0, 70, 116
1, 11148, Note_on_c, 0, 67, 95
1, 11203, Note_off_c, 0, 67, 95
1, 11266, Note_on_c, 0, 68, 84
1, 11330, Note_off_c, 0, 68, 84
1, 11349, Note_on_c, 0, 70, 113
1, 11449, Note_off_c, 0, 70, 113
1, 11455, Note_on_c, 0, 68, 110
1, 11534, Note_off_c, 0, 68, 110
1, 11547, Note_on_c, 0, 67, 102
1, 11609, Note_off_c, 0, 67, 102
1, 11630, Note_on_c, 0, 65, 109
1, 11715, Note_off_c, 0, 65, 109
1, 11728, Note_on_c, 0, 64, 97
1, 11798, Note_off_c, 0, 64, 97
1, 11847, Note_on_c, 0, 67, 93
1, 11895, Note_off_c, 0, 67, 93
1, 11901, Note_on_c, 0, 70, 113
1, 11998, Note_off_c, 0, 70, 113
1, 12011, Note_on_c, 0, 73, 109
1, 12105, Note_off_c, 0, 73, 109
1, 12111, Note_on_c, 0, 72, 101
1, 12198, Note_off_c, 0, 72, 101
1, 12206, Note_on_c, 0, 70, 110
1, 12284, Note_off_c, 0, 70, 110
1, 12306, Note_on_c, 0, 68, 91
1, 12362, Note_off_c, 0, 68, 91
1, 12370, Note_on_c, 0, 67, 80
1, 12423, Note_off_c, 0, 67, 80
1, 12436, Note_on_c, 0, 68, 87
1, 12481, Note_off_c, 0, 68, 87
1, 12499, Note_on_c, 0, 70, 106
1, 12580, Note_off_c, 0, 70, 106
1, 12599, Note_on_c, 0, 67, 100
1, 12653, Note_off_c, 0, 67, 100
1, 12673, Note_on_c, 0, 68, 110
1, 12745, Note_off_c, 0, 68, 110
1, 12806, Note_on_c, 0, 65, 83
1, 12870, Note_off_c, 0, 65, 83
1, 12871, Note_on_c, 0, 66, 100
1, 12955, Note_off_c, 0, 66, 100
1, 12972, Note_on_c, 0, 68, 110
1, 13054, Note_off_c, 0, 68, 110
1, 13063, Note_on_c, 0, 67, 102
1, 13129, Note_off_c, 0, 67, 102
1, 13138, Note_on_c, 0, 65, 114
1, 13209, Note_off_c, 0, 65, 114
1, 13218, Note_on_c, 0, 64, 104
1, 13266, Note_off_c, 0, 64, 104
1, 13400, Note_on_c, 0, 65, 101
1, 13496, Note_off_c, 0, 65, 101
1, 13536, Note_on_c, 0, 60, 99
1, 13589, Note_off_c, 0, 60, 99
1, 14577, Note_on_c, 0, 75, 96
1, 14717, Note_off_c, 0, 75, 96
1, 14770, Note_on_c, 0, 87, 124
1, 15232, Note_off_c, 0, 87, 124
1, 15235, Note_on_c, 0, 85, 116
1, 15285, Note_off_c, 0, 85, 116
1, 15292, Note_on_c, 0, 86, 122
1, 15415, Note_off_c, 0, 86, 122
1, 15428, Note_on_c, 0, 84, 118
1, 15551, Note_off_c, 0, 84, 118
1, 15587, Note_on_c, 0, 81, 114
1, 15668, Note_off_c, 0, 81, 114
1, 15676, Note_on_c, 0, 80, 113
1, 15812, Note_off_c, 0, 80, 113
1, 15812, Note_on_c, 0, 76, 85
1, 15857, Note_off_c, 0, 76, 85
1, 15880, Note_on_c, 0, 78, 119
1, 15951, Note_off_c, 0, 78, 119
1, 15958, Note_on_c, 0, 80, 118
1, 16045, Note_off_c, 0, 80, 118
1, 16058, Note_on_c, 0, 79, 117
1, 16122, Note_off_c, 0, 79, 117
1, 16140, Note_on_c, 0, 77, 121
1, 16214, Note_off_c, 0, 77, 121
1, 16229, Note_on_c, 0, 76, 118
1, 16310, Note_off_c, 0, 76, 118
1, 16399, Note_on_c, 0, 75, 118
1, 16510, Note_off_c, 0, 75, 118
1, 16514, Note_on_c, 0, 74, 112
1, 16585, Note_off_c, 0, 74, 112
1, 16587, Note_on_c, 0, 71, 105
1, 16674, Note_off_c, 0, 71, 105
1, 16693, Note_on_c, 0, 70, 116
1, 16778, Note_off_c, 0, 70, 116
1, 16783, Note_on_c, 0, 68, 105
1, 16886, Note_off_c, 0, 68, 105
1, 16907, Note_on_c, 0, 66, 103
1, 16961, Note_off_c, 0, 66, 103
1, 16973, Note_on_c, 0, 67, 97
1, 17045, Note_off_c, 0, 67, 97
1, 17070, Note_on_c, 0, 70, 92
1, 17334, Note_off_c, 0, 70, 92
1, 17884, Note_on_c, 0, 85, 123
1, 18235, Note_off_c, 0, 85, 123
1, 18251, Note_on_c, 0, 83, 121
1, 18292, Note_off_c, 0, 83, 121
1, 18296, Note_on_c, 0, 84, 122
1, 18411, Note_off_c, 0, 84, 122
1, 18425, Note_on_c, 0, 82, 118
1, 18498, Note_off_c, 0, 82, 118
1, 18502, Note_on_c, 0, 80, 118
1, 18602, Note_off_c, 0, 80, 118
1, 18624, Note_on_c, 0, 79, 108
1, 18681, Note_off_c, 0, 79, 108
1, 18690, Note_on_c, 0, 78, 113
1, 18773, Note_off_c, 0, 78, 113
1, 18804, Note_on_c, 0, 77, 73
1, 18868, Note_off_c, 0, 77, 73
1, 18883, Note_on_c, 0, 78, 115
1, 18962, Note_off_c, 0, 78, 115
1, 19008, Note_on_c, 0, 78, 114
1, 19074, Note_off_c, 0, 78, 114
1, 19083, Note_on_c, 0, 77, 116
1, 19185, Note_off_c, 0, 77, 116
1, 19191, Note_on_c, 0, 75, 114
1, 19262, Note_off_c, 0, 75, 114
1, 19266, Note_on_c, 0, 74, 115
1, 19383, Note_off_c, 0, 74, 115
1, 19402, Note_on_c, 0, 72, 93
1, 19449, Note_off_c, 0, 72, 93
1, 19460, Note_on_c, 0, 73, 109
1, 19600, Note_off_c, 0, 73, 109
1, 19604, Note_on_c, 0, 68, 89
1, 19653, Note_off_c, 0, 68, 89
1, 19899, Note_on_c, 0, 76, 115
1, 19957, Note_off_c, 0, 76, 115
1, 19960, Note_on_c, 0, 77, 114
1, 20013, Note_off_c, 0, 77, 114
1, 20033, Note_on_c, 0, 77, 119
1, 20320, Note_off_c, 0, 77, 119
1, 20335, Note_on_c, 0, 75, 116
1, 20376, Note_off_c, 0, 75, 116
1, 20382, Note_on_c, 0, 76, 117
1, 20469, Note_off_c, 0, 76, 117
1, 20516, Note_on_c, 0, 67, 90
1, 20551, Note_off_c, 0, 67, 90
1, 20558, Note_on_c, 0, 70, 109
1, 20664, Note_off_c, 0, 70, 109
1, 20674, Note_on_c, 0, 73, 114
1, 20753, Note_off_c, 0, 73, 114
1, 20759, Note_on_c, 0, 72, 113
1, 20827, Note_off_c, 0, 72, 113
1, 20846, Note_on_c, 0, 70, 115
1, 20929, Note_off_c, 0, 70, 115
1, 20949, Note_on_c, 0, 68, 111
1, 21004, Note_off_c, 0, 68, 111
1, 21061, Note_on_c, 0, 60, 95
1, 21137, Note_off_c, 0, 60, 95
1, 21150, Note_on_c, 0, 65, 111
1, 21220, Note_off_c, 0, 65, 111
1, 21239, Note_on_c, 0, 68, 112
1, 21313, Note_off_c, 0, 68, 112
1, 21325, Note_on_c, 0, 67, 102
1, 21398, Note_off_c, 0, 67, 102
1, 21416, Note_on_c, 0, 65, 109
1, 21516, Note_off_c, 0, 65, 109
1, 21525, Note_on_c, 0, 64, 96
1, 21593, Note_off_c, 0, 64, 96
1, 21600, Note_on_c, 0, 62, 82
1, 21668, Note_off_c, 0, 62, 82
1, 21700, Note_on_c, 0, 65, 110
1, 21804, Note_off_c, 0, 65, 110
1, 21835, Note_on_c, 0, 63, 90
1, 21884, Note_off_c, 0, 63, 90
1, 21893, Note_on_c, 0, 64, 88
1, 21986, Note_off_c, 0, 64, 88
1, 21998, Note_on_c, 0, 65, 104
1, 22101, Note_off_c, 0, 65, 104
1, 22116, Note_on_c, 0, 67, 96
1, 22205, Note_off_c, 0, 67, 96
1, 22219, Note_on_c, 0, 68, 90
1, 22264, Note_off_c, 0, 68, 90
1, 22297, Note_on_c, 0, 70, 113
1, 22388, Note_off_c, 0, 70, 113
1, 22404, Note_on_c, 0, 67, 104
1, 22465, Note_off_c, 0, 67, 104
1, 22472, Note_on_c, 0, 68, 103
1, 22561, Note_off_c, 0, 68, 103
1, 22570, Note_on_c, 0, 70, 114
1, 22657, Note_off_c, 0, 70, 114
1, 22670, Note_on_c, 0, 72, 109
1, 22741, Note_off_c, 0, 72, 109
1, 22755, Note_on_c, 0, 73, 104
1, 22818, Note_off_c, 0, 73, 104
1, 22829, Note_on_c, 0, 74, 116
1, 22916, Note_off_c, 0, 74, 116
1, 22924, Note_on_c, 0, 75, 117
1, 23012, Note_off_c, 0, 75, 117
1, 23015, Note_on_c, 0, 76, 118
1, 23076, Note_off_c, 0, 76, 118
1, 23091, Note_on_c, 0, 77, 118
1, 23170, Note_off_c, 0, 77, 118
1, 23183, Note_on_c, 0, 78, 119
1, 23304, Note_off_c, 0, 78, 119
1, 23340, Note_on_c, 0, 77, 122
1, 23480, Note_off_c, 0, 77, 122
1, 23485, Note_on_c, 0, 75, 111
1, 23530, Note_on_c, 0, 76, 115
1, 23530, Note_off_c, 0, 75, 111
1, 23579, Note_off_c, 0, 76, 115
1, 23586, Note_on_c, 0, 77, 113
1, 23697, Note_off_c, 0, 77, 113
1, 23710, Note_on_c, 0, 73, 112
1, 23763, Note_off_c, 0, 73, 112
1, 23764, Note_on_c, 0, 74, 117
1, 23849, Note_off_c, 0, 74, 117
1, 23894, Note_on_c, 0, 71, 97
1, 23943, Note_off_c, 0, 71, 97
1, 23953, Note_on_c, 0, 72, 115
1, 24070, Note_off_c, 0, 72, 115
1, 24075, Note_on_c, 0, 70, 102
1, 24170, Note_off_c, 0, 70, 102
1, 24183, Note_on_c, 0, 67, 84
1, 24240, Note_off_c, 0, 67, 84
1, 24259, Note_on_c, 0, 68, 83
1, 24330, Note_off_c, 0, 68, 83
1, 24356, Note_on_c, 0, 70, 106
1, 24462, Note_off_c, 0, 70, 106
1, 24469, Note_on_c, 0, 68, 102
1, 24556, Note_off_c, 0, 68, 102
1, 24565, Note_on_c, 0, 67, 101
1, 24637, Note_off_c, 0, 67, 101
1, 24648, Note_on_c, 0, 65, 106
1, 24737, Note_off_c, 0, 65, 106
1, 24756, Note_on_c, 0, 64, 91
1, 24828, Note_off_c, 0, 64, 91
1, 24871, Note_on_c, 0, 67, 89
1, 24904, Note_off_c, 0, 67, 89
1, 24916, Note_on_c, 0, 70, 99
1, 25013, Note_off_c, 0, 70, 99
1, 25036, Note_on_c, 0, 75, 108
1, 25074, Note_off_c, 0, 75, 108
1, 25075, Note_on_c, 0, 73, 99
1, 25274, Note_off_c, 0, 73, 99
1, 25277, Note_on_c, 0, 72, 98
1, 25419, Note_off_c, 0, 72, 98
1, 25487, Note_on_c, 0, 70, 109
1, 25588, Note_off_c, 0, 70, 109
1, 25600, Note_on_c, 0, 68, 95
1, 25724, Note_off_c, 0, 68, 95
1, 27031, Note_on_c, 0, 84, 119
1, 27126, Note_off_c, 0, 84, 119
1, 27229, Note_on_c, 0, 80, 110
1, 27286, Note_off_c, 0, 80, 110
1, 27323, Note_on_c, 0, 84, 119
1, 27402, Note_off_c, 0, 84, 119
1, 27420, Note_on_c, 0, 82, 118
1, 27520, Note_off_c, 0, 82, 118
1, 27528, Note_on_c, 0, 80, 117
1, 27612, Note_off_c, 0, 80, 117
1, 27616, Note_on_c, 0, 79, 117
1, 27713, Note_off_c, 0, 79, 117
1, 27795, Note_on_c, 0, 80, 107
1, 27935, Note_off_c, 0, 80, 107
1, 27948, Note_on_c, 0, 75, 97
1, 28002, Note_off_c, 0, 75, 97
1, 28003, Note_on_c, 0, 78, 119
1, 28089, Note_off_c, 0, 78, 119
1, 28098, Note_on_c, 0, 80, 118
1, 28180, Note_off_c, 0, 80, 118
1, 28185, Note_on_c, 0, 79, 113
1, 28263, Note_off_c, 0, 79, 113
1, 28270, Note_on_c, 0, 77, 121
1, 28357, Note_off_c, 0, 77, 121
1, 28360, Note_on_c, 0, 76, 115
1, 28453, Note_off_c, 0, 76, 115
1, 28492, Note_on_c, 0, 76, 96
1, 28541, Note_off_c, 0, 76, 96
1, 28552, Note_on_c, 0, 77, 121
1, 28631, Note_off_c, 0, 77, 121
1, 28678, Note_on_c, 0, 72, 97
1, 28734, Note_off_c, 0, 72, 97
1, 28752, Note_on_c, 0, 68, 85
1, 28819, Note_off_c, 0, 68, 85
1, 28930, Note_on_c, 0, 73, 118
1, 29011, Note_off_c, 0, 73, 118
1, 29035, Note_on_c, 0, 72, 115
1, 29119, Note_off_c, 0, 72, 115
1, 29125, Note_on_c, 0, 70, 108
1, 29201, Note_off_c, 0, 70, 108
1, 29216, Note_on_c, 0, 68, 113
1, 29293, Note_off_c, 0, 68, 113
1, 29307, Note_on_c, 0, 67, 110
1, 29366, Note_off_c, 0, 67, 110
1, 29392, Note_on_c, 0, 65, 113
1, 29477, Note_off_c, 0, 65, 113
1, 29486, Note_on_c, 0, 64, 113
1, 29530, Note_off_c, 0, 64, 113
1, 29618, Note_on_c, 0, 55, 96
1, 29676, Note_off_c, 0, 55, 96
1, 29693, Note_on_c, 0, 58, 102
1, 29774, Note_off_c, 0, 58, 102
1, 29800, Note_on_c, 0, 60, 103
1, 29874, Note_off_c, 0, 60, 103
1, 29889, Note_on_c, 0, 59, 90
1, 29949, Note_off_c, 0, 59, 90
1, 29964, Note_on_c, 0, 58, 107
1, 30045, Note_off_c, 0, 58, 107
1, 30066, Note_on_c, 0, 56, 106
1, 30127, Note_off_c, 0, 56, 106
1, 30160, Note_on_c, 0, 60, 91
1, 30218, Note_off_c, 0, 60, 91
1, 30240, Note_on_c, 0, 65, 114
1, 30340, Note_off_c, 0, 65, 114
1, 30370, Note_on_c, 0, 68, 116
1, 30446, Note_off_c, 0, 68, 116
1, 30453, Note_on_c, 0, 67, 105
1, 30515, Note_off_c, 0, 67, 105
1, 30543, Note_on_c, 0, 65, 114
1, 30626, Note_off_c, 0, 65, 114
1, 30633, Note_on_c, 0, 64, 96
1, 30710, Note_off_c, 0, 64, 96
1, 30727, Note_on_c, 0, 63, 88
1, 30803, Note_off_c, 0, 63, 88
1, 30825, Note_on_c, 0, 70, 116
1, 30906, Note_off_c, 0, 70, 116
1, 30946, Note_on_c, 0, 67, 105
1, 30995, Note_off_c, 0, 67, 105
1, 31012, Note_on_c, 0, 68, 104
1, 31099, Note_off_c, 0, 68, 104
1, 31133, Note_on_c, 0, 70, 116
1, 31199, Note_off_c, 0, 70, 116
1, 31216, Note_on_c, 0, 72, 94
1, 31301, Note_off_c, 0, 72, 94
1, 31313, Note_on_c, 0, 73, 95
1, 31370, Note_off_c, 0, 73, 95
1, 31371, Note_on_c, 0, 74, 112
1, 31481, Note_off_c, 0, 74, 112
1, 31513, Note_on_c, 0, 75, 118
1, 31609, Note_off_c, 0, 75, 118
1, 31616, Note_on_c, 0, 76, 116
1, 31690, Note_off_c, 0, 76, 116
1, 31705, Note_on_c, 0, 77, 120
1, 31769, Note_off_c, 0, 77, 120
1, 31788, Note_on_c, 0, 78, 114
1, 31858, Note_off_c, 0, 78, 114
1, 31888, Note_on_c, 0, 76, 97
1, 31956, Note_off_c, 0, 76, 97
1, 31966, Note_on_c, 0, 77, 120
1, 32071, Note_off_c, 0, 77, 120
1, 32978, Note_on_c, 0, 74, 114
1, 33060, Note_off_c, 0, 74, 114
1, 33118, Note_on_c, 0, 87, 83
1, 33175, Note_off_c, 0, 87, 83
1, 33216, Note_on_c, 0, 88, 113
1, 33303, Note_off_c, 0, 88, 113
1, 33310, Note_on_c, 0, 89, 118
1, 33716, Note_off_c, 0, 89, 118
1, 33736, Note_on_c, 0, 82, 83
1, 33804, Note_off_c, 0, 82, 83
1, 34499, Note_on_c, 0, 73, 102
1, 34540, Note_off_c, 0, 73, 102
1, 34560, Note_on_c, 0, 74, 110
1, 34615, Note_off_c, 0, 74, 110
1, 34638, Note_on_c, 0, 80, 101
1, 34667, Note_off_c, 0, 80, 101
1, 34703, Note_on_c, 0, 85, 107
1, 34811, Note_off_c, 0, 85, 107
1, 34823, Note_on_c, 0, 87, 118
1, 34897, Note_off_c, 0, 87, 118
1, 34913, Note_on_c, 0, 85, 121
1, 34964, Note_off_c, 0, 85, 121
1, 34975, Note_on_c, 0, 84, 121
1, 35033, Note_off_c, 0, 84, 121
1, 35047, Note_on_c, 0, 85, 120
1, 35099, Note_off_c, 0, 85, 120
1, 35100, Note_on_c, 0, 84, 120
1, 35191, Note_off_c, 0, 84, 120
1, 35237, Note_on_c, 0, 78, 108
1, 35297, Note_off_c, 0, 78, 108
1, 35829, Note_on_c, 0, 85, 114
1, 36028, Note_off_c, 0, 85, 114
1, 36056, Note_on_c, 0, 80, 99
1, 36187, Note_off_c, 0, 80, 99
1, 36194, Note_on_c, 0, 83, 124
1, 36327, Note_off_c, 0, 83, 124
1, 36343, Note_on_c, 0, 80, 114
1, 36391, Note_off_c, 0, 80, 114
1, 36401, Note_on_c, 0, 79, 115
1, 36524, Note_off_c, 0, 79, 115
1, 36546, Note_on_c, 0, 76, 120
1, 36717, Note_off_c, 0, 76, 120
1, 36733, Note_on_c, 0, 71, 94
1, 36789, Note_off_c, 0, 71, 94
1, 36808, Note_on_c, 0, 70, 114
1, 36887, Note_off_c, 0, 70, 114
1, 36910, Note_on_c, 0, 70, 110
1, 36971, Note_off_c, 0, 70, 110
1, 36984, Note_on_c, 0, 72, 112
1, 37068, Note_off_c, 0, 72, 112
1, 37082, Note_on_c, 0, 70, 116
1, 37158, Note_off_c, 0, 70, 116
1, 37185, Note_on_c, 0, 68, 94
1, 37256, Note_off_c, 0, 68, 94
1, 37266, Note_on_c, 0, 69, 91
1, 37323, Note_off_c, 0, 69, 91
1, 37353, Note_on_c, 0, 70, 116
1, 37440, Note_off_c, 0, 70, 116
1, 37448, Note_on_c, 0, 67, 113
1, 37516, Note_off_c, 0, 67, 113
1, 37535, Note_on_c, 0, 68, 111
1, 37601, Note_off_c, 0, 68, 111
1, 37612, Note_on_c, 0, 65, 108
1, 37877, Note_off_c, 0, 65, 108
1, 37885, Note_on_c, 0, 67, 113
1, 38012, Note_off_c, 0, 67, 113
1, 38037, Note_on_c, 0, 65, 104
1, 38300, Note_off_c, 0, 65, 104
1, 39051, Note_on_c, 0, 84, 122
1, 39109, Note_off_c, 0, 84, 122
1, 39120, Note_on_c, 0, 86, 114
1, 39157, Note_off_c, 0, 86, 114
1, 39270, Note_on_c, 0, 90, 127
1, 39358, Note_off_c, 0, 90, 127
1, 39364, Note_on_c, 0, 89, 122
1, 39538, Note_off_c, 0, 89, 122
1, 39647, Note_on_c, 0, 88, 125
1, 39749, Note_off_c, 0, 88, 125
1, 39784, Note_on_c, 0, 84, 122
1, 39841, Note_off_c, 0, 84, 122
1, 39936, Note_on_c, 0, 87, 121
1, 40061, Note_off_c, 0, 87, 121
1, 40119, Note_on_c, 0, 86, 120
1, 40236, Note_off_c, 0, 86, 120
1, 40316, Note_on_c, 0, 77, 83
1, 40359, Note_off_c, 0, 77, 83
1, 40411, Note_on_c, 0, 81, 116
1, 40475, Note_off_c, 0, 81, 116
1, 40502, Note_on_c, 0, 86, 119
1, 40559, Note_off_c, 0, 86, 119
1, 40562, Note_on_c, 0, 84, 121
1, 40620, Note_off_c, 0, 84, 121
1, 40635, Note_on_c, 0, 82, 107
1, 40686, Note_off_c, 0, 82, 107
1, 40710, Note_on_c, 0, 80, 118
1, 40776, Note_off_c, 0, 80, 118
1, 40785, Note_on_c, 0, 79, 119
1, 40858, Note_off_c, 0, 79, 119
1, 40871, Note_on_c, 0, 77, 117
1, 40957, Note_off_c, 0, 77, 117
1, 40972, Note_on_c, 0, 77, 113
1, 41039, Note_off_c, 0, 77, 113
1, 41044, Note_on_c, 0, 75, 95
1, 41099, Note_off_c, 0, 75, 95
1, 41158, Note_on_c, 0, 77, 118
1, 41249, Note_off_c, 0, 77, 118
1, 41277, Note_on_c, 0, 74, 96
1, 41313, Note_off_c, 0, 74, 96
1, 41332, Note_on_c, 0, 76, 105
1, 41417, Note_off_c, 0, 76, 105
1, 41455, Note_on_c, 0, 83, 119
1, 41622, Note_off_c, 0, 83, 119
1, 42130, Note_on_c, 0, 83, 113
1, 42266, Note_off_c, 0, 83, 113
1, 42315, Note_on_c, 0, 87, 120
1, 42649, Note_off_c, 0, 87, 120
1, 42653, Note_on_c, 0, 86, 111
1, 42903, Note_off_c, 0, 86, 111
1, 42907, Note_on_c, 0, 82, 119
1, 43245, Note_off_c, 0, 82, 119
1, 43256, Note_on_c, 0, 85, 119
1, 43641, Note_off_c, 0, 85, 119
1, 43654, Note_on_c, 0, 78, 116
1, 44007, Note_off_c, 0, 78, 116
1, 44022, Note_on_c, 0, 79, 108
1, 44084, Note_off_c, 0, 79, 108
1, 44092, Note_on_c, 0, 77, 117
1, 44155, Note_off_c, 0, 77, 117
1, 44180, Note_on_c, 0, 72, 91
1, 44236, Note_off_c, 0, 72, 91
1, 44258, Note_on_c, 0, 75, 117
1, 44372, Note_off_c, 0, 75, 117
1, 44393, Note_on_c, 0, 73, 101
1, 44469, Note_off_c, 0, 73, 101
1, 44481, Note_on_c, 0, 72, 106
1, 44537, Note_off_c, 0, 72, 106
1, 44548, Note_on_c, 0, 70, 110
1, 44614, Note_off_c, 0, 70, 110
1, 44628, Note_on_c, 0, 68, 107
1, 44713, Note_off_c, 0, 68, 107
1, 44792, Note_on_c, 0, 70, 109
1, 44884, Note_off_c, 0, 70, 109
1, 44913, Note_on_c, 0, 68, 110
1, 44972, Note_off_c, 0, 68, 110
1, 44988, Note_on_c, 0, 67, 99
1, 45054, Note_off_c, 0, 67, 99
1, 45089, Note_on_c, 0, 65, 114
1, 45157, Note_off_c, 0, 65, 114
1, 45165, Note_on_c, 0, 64, 110
1, 45215, Note_off_c, 0, 64, 110
1, 45368, Note_on_c, 0, 57, 106
1, 45425, Note_off_c, 0, 57, 106
1, 45432, Note_on_c, 0, 58, 106
1, 45491, Note_off_c, 0, 58, 106
1, 45497, Note_on_c, 0, 60, 105
1, 45557, Note_off_c, 0, 60, 105
1, 45575, Note_on_c, 0, 60, 108
1, 46156, Note_off_c, 0, 60, 108
1, 46265, Note_on_c, 0, 65, 116
1, 46389, Note_off_c, 0, 65, 116
1, 46401, Note_on_c, 0, 67, 110
1, 46476, Note_off_c, 0, 67, 110
1, 46484, Note_on_c, 0, 68, 99
1, 46545, Note_off_c, 0, 68, 99
1, 46578, Note_on_c, 0, 70, 114
1, 46684, Note_off_c, 0, 70, 114
1, 46693, Note_on_c, 0, 67, 109
1, 46748, Note_off_c, 0, 67, 109
1, 46757, Note_on_c, 0, 68, 107
1, 46836, Note_off_c, 0, 68, 107
1, 46851, Note_on_c, 0, 70, 113
1, 46927, Note_off_c, 0, 70, 113
1, 46947, Note_on_c, 0, 72, 110
1, 47013, Note_off_c, 0, 72, 110
1, 47037, Note_on_c, 0, 73, 100
1, 47089, Note_off_c, 0, 73, 100
1, 47106, Note_on_c, 0, 74, 115
1, 47195, Note_off_c, 0, 74, 115
1, 47212, Note_on_c, 0, 75, 123
1, 47308, Note_off_c, 0, 75, 123
1, 47309, Note_on_c, 0, 78, 111
1, 47373, Note_off_c, 0, 78, 111
1, 47379, Note_on_c, 0, 77, 121
1, 47468, Note_off_c, 0, 77, 121
1, 47494, Note_on_c, 0, 78, 119
1, 47577, Note_off_c, 0, 78, 119
1, 47583, Note_on_c, 0, 76, 97
1, 47640, Note_off_c, 0, 76, 97
1, 47651, Note_on_c, 0, 77, 117
1, 47806, Note_off_c, 0, 77, 117
1, 48849, Note_on_c, 0, 84, 116
1, 48977, Note_off_c, 0, 84, 116
1, 49049, Note_on_c, 0, 84, 120
1, 49365, Note_off_c, 0, 84, 120
1, 49443, Note_on_c, 0, 84, 117
1, 49534, Note_off_c, 0, 84, 117
1, 49605, Note_on_c, 0, 84, 119
1, 49848, Note_off_c, 0, 84, 119
1, 49916, Note_on_c, 0, 84, 115
1, 50051, Note_off_c, 0, 84, 115
1, 50117, Note_on_c, 0, 84, 117
1, 50296, Note_off_c, 0, 84, 117
1, 51147, Note_on_c, 0, 83, 124
1, 51226, Note_off_c, 0, 83, 124
1, 51264, Note_on_c, 0, 84, 120
1, 51331, Note_off_c, 0, 84, 120
1, 51382, Note_on_c, 0, 83, 118
1, 51444, Note_off_c, 0, 83, 118
1, 51454, Note_on_c, 0, 83, 111
1, 51527, Note_off_c, 0, 83, 111
1, 51539, Note_on_c, 0, 84, 117
1, 51615, Note_off_c, 0, 84, 117
1, 51651, Note_on_c, 0, 84, 119
1, 51711, Note_off_c, 0, 84, 119
1, 51720, Note_on_c, 0, 85, 116
1, 51809, Note_off_c, 0, 85, 116
1, 51820, Note_on_c, 0, 84, 118
1, 51916, Note_off_c, 0, 84, 118
1, 51938, Note_on_c, 0, 83, 119
1, 51986, Note_off_c, 0, 83, 119
1, 51990, Note_on_c, 0, 84, 117
1, 52044, Note_off_c, 0, 84, 117
1, 52077, Note_on_c, 0, 85, 102
1, 52120, Note_off_c, 0, 85, 102
1, 52136, Note_on_c, 0, 84, 118
1, 52204, Note_off_c, 0, 84, 118
1, 52222, Note_on_c, 0, 84, 120
1, 52293, Note_off_c, 0, 84, 120
1, 52308, Note_on_c, 0, 83, 119
1, 52376, Note_off_c, 0, 83, 119
1, 52410, Note_on_c, 0, 84, 120
1, 52483, Note_off_c, 0, 84, 120
1, 52488, Note_on_c, 0, 83, 116
1, 52549, Note_off_c, 0, 83, 116
1, 52558, Note_on_c, 0, 82, 118
1, 52615, Note_off_c, 0, 82, 118
1, 52623, Note_on_c, 0, 83, 101
1, 52682, Note_off_c, 0, 83, 101
1, 52693, Note_on_c, 0, 85, 104
1, 52905, Note_off_c, 0, 85, 104
1, 52941, Note_on_c, 0, 79, 113
1, 53020, Note_off_c, 0, 79, 113
1, 53027, Note_on_c, 0, 80, 114
1, 53088, Note_off_c, 0, 80, 114
1, 53098, Note_on_c, 0, 82, 118
1, 53198, Note_off_c, 0, 82, 118
1, 53209, Note_on_c, 0, 80, 116
1, 53284, Note_off_c, 0, 80, 116
1, 53320, Note_on_c, 0, 79, 105
1, 53365, Note_off_c, 0, 79, 105
1, 53368, Note_on_c, 0, 77, 120
1, 53438, Note_off_c, 0, 77, 120
1, 53451, Note_on_c, 0, 76, 110
1, 53528, Note_off_c, 0, 76, 110
1, 53630, Note_on_c, 0, 70, 116
1, 53708, Note_off_c, 0, 70, 116
1, 53724, Note_on_c, 0, 73, 113
1, 53792, Note_off_c, 0, 73, 113
1, 53798, Note_on_c, 0, 72, 109
1, 53865, Note_off_c, 0, 72, 109
1, 53903, Note_on_c, 0, 70, 108
1, 53974, Note_off_c, 0, 70, 108
1, 53978, Note_on_c, 0, 67, 106
1, 54063, Note_off_c, 0, 67, 106
1, 54069, Note_on_c, 0, 68, 89
1, 54156, Note_off_c, 0, 68, 89
1, 54182, Note_on_c, 0, 70, 113
1, 54269, Note_off_c, 0, 70, 113
1, 54306, Note_on_c, 0, 67, 104
1, 54349, Note_off_c, 0, 67, 104
1, 54367, Note_on_c, 0, 68, 95
1, 54579, Note_off_c, 0, 68, 95
1, 54591, Note_on_c, 0, 59, 109
1, 54661, Note_off_c, 0, 59, 109
1, 54685, Note_on_c, 0, 68, 113
1, 54747, Note_off_c, 0, 68, 113
1, 54757, Note_on_c, 0, 67, 109
1, 54796, Note_off_c, 0, 67, 109
1, 54808, Note_on_c, 0, 64, 103
1, 54858, Note_off_c, 0, 64, 103
1, 54875, Note_on_c, 0, 65, 101
1, 54946, Note_off_c, 0, 65, 101
1, 54964, Note_on_c, 0, 64, 82
1, 55121, Note_off_c, 0, 64, 82
1, 55140, Note_on_c, 0, 65, 115
1, 55248, Note_off_c, 0, 65, 115
1, 55290, Note_on_c, 0, 62, 93
1, 55348, Note_off_c, 0, 62, 93
1, 55360, Note_on_c, 0, 63, 97
1, 55439, Note_off_c, 0, 63, 97
1, 55469, Note_on_c, 0, 65, 19
1, 55537, Note_off_c, 0, 65, 19
1, 55580, Note_on_c, 0, 67, 105
1, 55650, Note_off_c, 0, 67, 105
1, 55656, Note_on_c, 0, 68, 99
1, 55722, Note_off_c, 0, 68, 99
1, 55731, Note_on_c, 0, 70, 117
1, 55834, Note_off_c, 0, 70, 117
1, 55845, Note_on_c, 0, 68, 111
1, 55915, Note_off_c, 0, 68, 111
1, 55922, Note_on_c, 0, 73, 112
1, 56008, Note_off_c, 0, 73, 112
1, 56018, Note_on_c, 0, 74, 115
1, 56098, Note_off_c, 0, 74, 115
1, 56105, Note_on_c, 0, 75, 123
1, 56202, Note_off_c, 0, 75, 123
1, 56216, Note_on_c, 0, 76, 121
1, 56277, Note_off_c, 0, 76, 121
1, 56287, Note_on_c, 0, 77, 125
1, 56355, Note_off_c, 0, 77, 125
1, 56368, Note_on_c, 0, 75, 123
1, 56453, Note_off_c, 0, 75, 123
1, 56460, Note_on_c, 0, 76, 123
1, 56521, Note_off_c, 0, 76, 123
1, 56535, Note_on_c, 0, 77, 122
1, 56719, Note_off_c, 0, 77, 122
1, 57684, Note_on_c, 0, 72, 105
1, 57841, Note_off_c, 0, 72, 105
1, 57874, Note_on_c, 0, 86, 125
1, 58013, Note_off_c, 0, 86, 125
1, 58026, Note_on_c, 0, 84, 117
1, 58188, Note_off_c, 0, 84, 117
1, 58537, Note_on_c, 0, 82, 122
1, 58631, Note_off_c, 0, 82, 122
1, 58647, Note_on_c, 0, 77, 101
1, 58732, Note_off_c, 0, 77, 101
1, 58752, Note_on_c, 0, 80, 110
1, 58816, Note_off_c, 0, 80, 110
1, 58826, Note_on_c, 0, 82, 119
1, 58871, Note_off_c, 0, 82, 119
1, 58878, Note_on_c, 0, 80, 114
1, 58962, Note_off_c, 0, 80, 114
1, 58979, Note_on_c, 0, 78, 107
1, 59083, Note_off_c, 0, 78, 107
1, 59084, Note_on_c, 0, 77, 114
1, 59131, Note_off_c, 0, 77, 114
1, 59132, Note_on_c, 0, 76, 117
1, 59479, Note_off_c, 0, 76, 117
1, 59481, Note_on_c, 0, 73, 113
1, 59572, Note_off_c, 0, 73, 113
1, 59597, Note_on_c, 0, 72, 117
1, 59703, Note_off_c, 0, 72, 117
1, 60170, Note_on_c, 0, 67, 106
1, 60206, Note_off_c, 0, 67, 106
1, 60284, Note_on_c, 0, 69, 96
1, 60314, Note_off_c, 0, 69, 96
1, 60349, Note_on_c, 0, 70, 112
1, 60434, Note_off_c, 0, 70, 112
1, 60449, Note_on_c, 0, 68, 110
1, 60496, Note_off_c, 0, 68, 110
1, 60514, Note_on_c, 0, 67, 110
1, 60582, Note_off_c, 0, 67, 110
1, 60587, Note_on_c, 0, 65, 118
1, 60688, Note_off_c, 0, 65, 118
1, 60701, Note_on_c, 0, 64, 99
1, 60792, Note_off_c, 0, 64, 99
1, 60809, Note_on_c, 0, 67, 99
1, 60860, Note_off_c, 0, 67, 99
1, 60877, Note_on_c, 0, 70, 112
1, 60970, Note_off_c, 0, 70, 112
1, 60981, Note_on_c, 0, 73, 117
1, 61051, Note_off_c, 0, 73, 117
1, 61061, Note_on_c, 0, 72, 114
1, 61152, Note_off_c, 0, 72, 114
1, 61175, Note_on_c, 0, 70, 117
1, 61267, Note_off_c, 0, 70, 117
1, 61280, Note_on_c, 0, 68, 92
1, 61338, Note_off_c, 0, 68, 92
1, 61479, Note_on_c, 0, 70, 117
1, 61552, Note_off_c, 0, 70, 117
1, 61560, Note_on_c, 0, 68, 109
1, 61630, Note_off_c, 0, 68, 109
1, 61636, Note_on_c, 0, 67, 111
1, 61713, Note_off_c, 0, 67, 111
1, 61736, Note_on_c, 0, 65, 113
1, 61810, Note_off_c, 0, 65, 113
1, 61836, Note_on_c, 0, 64, 115
1, 61908, Note_off_c, 0, 64, 115
1, 61912, Note_on_c, 0, 61, 101
1, 61960, Note_off_c, 0, 61, 101
1, 61968, Note_on_c, 0, 57, 92
1, 62002, Note_off_c, 0, 57, 92
1, 62011, Note_on_c, 0, 58, 99
1, 62126, Note_off_c, 0, 58, 99
1, 62145, Note_on_c, 0, 61, 110
1, 62203, Note_off_c, 0, 61, 110
1, 62233, Note_on_c, 0, 60, 109
1, 62299, Note_off_c, 0, 60, 109
1, 62338, Note_on_c, 0, 58, 111
1, 62414, Note_off_c, 0, 58, 111
1, 62419, Note_on_c, 0, 56, 99
1, 62581, Note_off_c, 0, 56, 99
1, 62593, Note_on_c, 0, 58, 110
1, 62722, Note_off_c, 0, 58, 110
1, 62768, Note_on_c, 0, 56, 104
1, 62971, Note_off_c, 0, 56, 104
1, 63697, Note_on_c, 0, 65, 107
1, 63757, Note_off_c, 0, 65, 107
1, 63769, Note_on_c, 0, 64, 112
1, 63835, Note_off_c, 0, 64, 112
1, 63839, Note_on_c, 0, 62, 113
1, 63899, Note_off_c, 0, 62, 113
1, 63900, Note_on_c, 0, 65, 114
1, 63962, Note_off_c, 0, 65, 114
1, 63967, Note_on_c, 0, 67, 115
1, 64034, Note_off_c, 0, 67, 115
1, 64044, Note_on_c, 0, 70, 115
1, 64120, Note_off_c, 0, 70, 115
1, 64126, Note_on_c, 0, 72, 115
1, 64181, Note_off_c, 0, 72, 115
1, 64190, Note_on_c, 0, 73, 113
1, 64238, Note_off_c, 0, 73, 113
1, 64246, Note_on_c, 0, 75, 121
1, 64340, Note_off_c, 0, 75, 121
1, 64349, Note_on_c, 0, 76, 118
1, 64387, Note_off_c, 0, 76, 118
1, 64393, Note_on_c, 0, 77, 124
1, 64473, Note_off_c, 0, 77, 124
1, 64477, Note_on_c, 0, 75, 124
1, 64606, Note_off_c, 0, 75, 124
1, 64616, Note_on_c, 0, 73, 110
1, 64671, Note_off_c, 0, 73, 110
1, 64676, Note_on_c, 0, 74, 121
1, 64801, Note_off_c, 0, 74, 121
1, 64805, Note_on_c, 0, 70, 111
1, 64834, Note_off_c, 0, 70, 111
1, 64842, Note_on_c, 0, 67, 102
1, 64963, Note_off_c, 0, 67, 102
1, 64985, Note_on_c, 0, 68, 85
1, 65069, Note_off_c, 0, 68, 85
1, 65075, Note_on_c, 0, 72, 117
1, 65151, Note_off_c, 0, 72, 117
1, 65181, Note_on_c, 0, 68, 114
1, 65245, Note_off_c, 0, 68, 114
1, 65256, Note_on_c, 0, 67, 115
1, 65354, Note_off_c, 0, 67, 115
1, 65374, Note_on_c, 0, 65, 119
1, 65469, Note_off_c, 0, 65, 119
1, 65498, Note_on_c, 0, 63, 100
1, 65592, Note_off_c, 0, 63, 100
1, 65691, Note_on_c, 0, 65, 121
1, 65756, Note_off_c, 0, 65, 121
1, 65800, Note_on_c, 0, 62, 98
1, 65850, Note_off_c, 0, 62, 98
1, 65854, Note_on_c, 0, 63, 100
1, 65937, Note_off_c, 0, 63, 100
1, 65961, Note_on_c, 0, 65, 111
1, 66335, Note_off_c, 0, 65, 111
1, 66399, Note_on_c, 0, 62, 108
1, 66443, Note_off_c, 0, 62, 108
1, 66458, Note_on_c, 0, 63, 116
1, 66530, Note_off_c, 0, 63, 116
1, 66545, Note_on_c, 0, 65, 119
1, 66626, Note_off_c, 0, 65, 119
1, 66633, Note_on_c, 0, 66, 117
1, 66728, Note_off_c, 0, 66, 117
1, 66771, Note_on_c, 0, 68, 109
1, 66801, Note_off_c, 0, 68, 109
1, 66816, Note_on_c, 0, 70, 117
1, 66916, Note_off_c, 0, 70, 117
1, 66928, Note_on_c, 0, 68, 106
1, 66973, Note_off_c, 0, 68, 106
1, 66992, Note_on_c, 0, 68, 113
1, 67030, Note_off_c, 0, 68, 113
1, 67045, Note_on_c, 0, 70, 112
1, 67110, Note_off_c, 0, 70, 112
1, 67116, Note_on_c, 0, 68, 112
1, 67146, Note_off_c, 0, 68, 112
1, 67156, Note_on_c, 0, 67, 105
1, 67180, Note_off_c, 0, 67, 105
1, 67184, Note_on_c, 0, 65, 109
1, 67247, Note_off_c, 0, 65, 109
1, 67257, Note_on_c, 0, 66, 113
1, 67365, Note_off_c, 0, 66, 113
1, 67369, Note_on_c, 0, 70, 103
1, 67431, Note_off_c, 0, 70, 103
1, 67461, Note_on_c, 0, 73, 85
1, 67525, Note_off_c, 0, 73, 85
1, 67649, Note_on_c, 0, 80, 118
1, 68162, Note_off_c, 0, 80, 118
1, 68219, Note_on_c, 0, 79, 118
1, 68265, Note_off_c, 0, 79, 118
1, 68267, Note_on_c, 0, 78, 109
1, 68305, Note_off_c, 0, 78, 109
1, 68383, Note_on_c, 0, 77, 119
1, 68472, Note_off_c, 0, 77, 119
1, 68503, Note_on_c, 0, 73, 115
1, 68561, Note_off_c, 0, 73, 115
1, 69769, Note_on_c, 0, 80, 107
1, 69892, Note_off_c, 0, 80, 107
1, 69950, Note_on_c, 0, 84, 110
1, 70094, Note_off_c, 0, 84, 110
1, 70163, Note_on_c, 0, 80, 103
1, 70261, Note_off_c, 0, 80, 103
1, 70383, Note_on_c, 0, 84, 119
1, 70478, Note_off_c, 0, 84, 119
1, 70488, Note_on_c, 0, 80, 109
1, 70541, Note_off_c, 0, 80, 109
1, 70661, Note_on_c, 0, 85, 124
1, 70822, Note_off_c, 0, 85, 124
1, 70841, Note_on_c, 0, 83, 123
1, 70907, Note_off_c, 0, 83, 123
1, 70922, Note_on_c, 0, 84, 117
1, 70994, Note_off_c, 0, 84, 117
1, 71026, Note_on_c, 0, 82, 118
1, 71107, Note_off_c, 0, 82, 118
1, 71137, Note_on_c, 0, 80, 116
1, 71224, Note_off_c, 0, 80, 116
1, 71296, Note_on_c, 0, 82, 114
1, 71375, Note_off_c, 0, 82, 114
1, 71407, Note_on_c, 0, 80, 113
1, 71492, Note_off_c, 0, 80, 113
1, 71533, Note_on_c, 0, 79, 108
1, 71582, Note_off_c, 0, 79, 108
1, 71610, Note_on_c, 0, 77, 106
1, 71720, Note_off_c, 0, 77, 106
1, 71786, Note_on_c, 0, 78, 114
1, 71825, Note_off_c, 0, 78, 114
1, 71844, Note_on_c, 0, 82, 108
1, 71880, Note_off_c, 0, 82, 108
1, 71910, Note_on_c, 0, 84, 120
1, 71999, Note_off_c, 0, 84, 120
1, 72019, Note_on_c, 0, 82, 117
1, 72060, Note_off_c, 0, 82, 117
1, 72067, Note_on_c, 0, 81, 117
1, 72101, Note_off_c, 0, 81, 117
1, 72114, Note_on_c, 0, 80, 117
1, 72224, Note_off_c, 0, 80, 117
1, 72225, Note_on_c, 0, 81, 119
1, 72287, Note_off_c, 0, 81, 119
1, 72311, Note_on_c, 0, 82, 120
1, 72396, Note_off_c, 0, 82, 120
1, 72413, Note_on_c, 0, 80, 116
1, 72475, Note_off_c, 0, 80, 116
1, 72497, Note_on_c, 0, 79, 113
1, 72563, Note_off_c, 0, 79, 113
1, 72585, Note_on_c, 0, 77, 119
1, 72659, Note_off_c, 0, 77, 119
1, 72678, Note_on_c, 0, 76, 119
1, 72757, Note_off_c, 0, 76, 119
1, 72849, Note_on_c, 0, 70, 111
1, 72932, Note_off_c, 0, 70, 111
1, 72955, Note_on_c, 0, 73, 112
1, 73006, Note_off_c, 0, 73, 112
1, 73045, Note_on_c, 0, 72, 111
1, 73121, Note_off_c, 0, 72, 111
1, 73132, Note_on_c, 0, 70, 113
1, 73187, Note_off_c, 0, 70, 113
1, 73206, Note_on_c, 0, 68, 111
1, 73299, Note_off_c, 0, 68, 111
1, 73321, Note_on_c, 0, 67, 100
1, 73374, Note_off_c, 0, 67, 100
1, 73408, Note_on_c, 0, 70, 113
1, 73495, Note_off_c, 0, 70, 113
1, 73512, Note_on_c, 0, 68, 113
1, 73567, Note_off_c, 0, 68, 113
1, 73603, Note_on_c, 0, 67, 112
1, 73658, Note_off_c, 0, 67, 112
1, 73690, Note_on_c, 0, 65, 114
1, 73775, Note_off_c, 0, 65, 114
1, 73799, Note_on_c, 0, 64, 98
1, 73871, Note_off_c, 0, 64, 98
1, 73892, Note_on_c, 0, 67, 103
1, 73937, Note_off_c, 0, 67, 103
1, 73976, Note_on_c, 0, 70, 105
1, 74036, Note_off_c, 0, 70, 105
1, 74081, Note_on_c, 0, 73, 112
1, 74139, Note_off_c, 0, 73, 112
1, 74148, Note_on_c, 0, 72, 111
1, 74241, Note_off_c, 0, 72, 111
1, 74265, Note_on_c, 0, 70, 106
1, 74375, Note_off_c, 0, 70, 106
1, 74390, Note_on_c, 0, 68, 108
1, 74424, Note_off_c, 0, 68, 108
1, 74452, Note_on_c, 0, 67, 102
1, 74529, Note_off_c, 0, 67, 102
1, 74568, Note_on_c, 0, 70, 110
1, 74636, Note_off_c, 0, 70, 110
1, 74655, Note_on_c, 0, 68, 109
1, 74708, Note_off_c, 0, 68, 109
1, 74721, Note_on_c, 0, 67, 108
1, 74817, Note_off_c, 0, 67, 108
1, 74836, Note_on_c, 0, 65, 111
1, 74900, Note_off_c, 0, 65, 111
1, 74915, Note_on_c, 0, 64, 108
1, 74973, Note_off_c, 0, 64, 108
1, 75028, Note_on_c, 0, 56, 111
1, 75071, Note_off_c, 0, 56, 111
1, 75072, Note_on_c, 0, 57, 99
1, 75110, Note_off_c, 0, 57, 99
1, 75115, Note_on_c, 0, 58, 103
1, 75188, Note_off_c, 0, 58, 103
1, 75249, Note_on_c, 0, 61, 105
1, 75299, Note_off_c, 0, 61, 105
1, 75300, Note_on_c, 0, 60, 97
1, 75358, Note_off_c, 0, 60, 97
1, 75415, Note_on_c, 0, 58, 103
1, 75488, Note_off_c, 0, 58, 103
1, 75494, Note_on_c, 0, 56, 106
1, 75589, Note_off_c, 0, 56, 106
1, 75599, Note_on_c, 0, 55, 95
1, 75669, Note_off_c, 0, 55, 95
1, 75708, Note_on_c, 0, 58, 102
1, 75792, Note_off_c, 0, 58, 102
1, 75794, Note_on_c, 0, 56, 95
1, 75866, Note_off_c, 0, 56, 95
1, 75879, Note_on_c, 0, 53, 115
1, 75960, Note_off_c, 0, 53, 115
1, 75960, End_track
0, 0, End_of_file
