0, 0, Header, 1, 1, 192
1, 0, Start_track
1, 0, Title_t, "Melody"
1, 0, Tempo, 350877
1, 0, Key_signature, 0, "major"
1, 0, Time_signature, 4, 2, 24, 8
1, 2219, Note_on_c, 0, 75, 118
1, 2393, Note_off_c, 0, 75, 118
1, 2475, Note_on_c, 0, 74, 114
1, 2859, Note_off_c, 0, 74, 114
1, 2875, Note_on_c, 0, 75, 119
1, 2994, Note_off_c, 0, 75, 119
1, 3015, Note_on_c, 0, 72, 97
1, 3055, Note_off_c, 0, 72, 97
1, 3057, Note_on_c, 0, 74, 110
1, 3189, Note_off_c, 0, 74, 110
1, 3199, Note_on_c, 0, 72, 111
1, 3259, Note_off_c, 0, 72, 111
1, 3266, Note_on_c, 0, 70, 88
1, 3393, Note_off_c, 0, 70, 88
1, 3399, Note_on_c, 0, 69, 107
1, 3435, Note_off_c, 0, 69, 107
1, 3443, Note_on_c, 0, 67, 94
1, 3569, Note_off_c, 0, 67, 94
1, 3579, Note_on_c, 0, 65, 110
1, 3634, Note_off_c, 0, 65, 110
1, 3656, Note_on_c, 0, 64, 111
1, 3781, Note_off_c, 0, 64, 111
1, 3856, Note_on_c, 0, 65, 109
1, 3997, Note_off_c, 0, 65, 109
1, 4008, Note_on_c, 0, 65, 107
1, 4149, Note_off_c, 0, 65, 107
1, 4164, Note_on_c, 0, 68, 105
1, 4400, Note_off_c, 0, 68, 105
1, 4410, Note_on_c, 0, 72, 122
1, 4514, Note_off_c, 0, 72, 122
1, 4608, Note_on_c, 0, 70, 104
1, 4724, Note_off_c, 0, 70, 104
1, 4733, Note_on_c, 0, 68, 88
1, 4940, Note_off_c, 0, 68, 88
1, 5550, Note_on_c, 0, 71, 113
1, 5584, Note_off_c, 0, 71, 113
1, 5600, Note_on_c, 0, 74, 108
1, 5637, Note_off_c, 0, 74, 108
1, 5648, Note_on_c, 0, 77, 111
1, 5673, Note_off_c, 0, 77, 111
1, 5677, Note_on_c, 0, 80, 119
1, 5746, Note_off_c, 0, 80, 119
1, 5765, Note_on_c, 0, 77, 106
1, 5798, Note_off_c, 0, 77, 106
1, 5816, Note_on_c, 0, 75, 116
1, 5851, Note_off_c, 0, 75, 116
1, 5854, Note_on_c, 0, 74, 115
1, 5890, Note_off_c, 0, 74, 115
1, 5896, Note_on_c, 0, 77, 108
1, 5923, Note_off_c, 0, 77, 108
1, 5930, Note_on_c, 0, 75, 116
1, 5974, Note_off_c, 0, 75, 116
1, 5978, Note_on_c, 0, 74, 112
1, 6021, Note_off_c, 0, 74, 112
1, 6027, Note_on_c, 0, 72, 113
1, 6070, Note_off_c, 0, 72, 113
1, 6074, Note_on_c, 0, 71, 107
1, 6101, Note_off_c, 0, 71, 107
1, 6115, Note_on_c, 0, 67, 90
1, 6156, Note_off_c, 0, 67, 90
1, 6168, Note_on_c, 0, 66, 106
1, 6206, Note_off_c, 0, 66, 106
1, 6209, Note_on_c, 0, 68, 110
1, 6246, Note_off_c, 0, 68, 110
1, 6250, Note_on_c, 0, 67, 102
1, 6285, Note_off_c, 0, 67, 102
1, 6309, Note_on_c, 0, 65, 112
1, 6356, Note_off_c, 0, 65, 112
1, 6363, Note_on_c, 0, 63, 108
1, 6427, Note_off_c, 0, 63, 108
1, 6434, Note_on_c, 0, 65, 126
1, 6510, Note_off_c, 0, 65, 126
1, 6514, Note_on_c, 0, 63, 99
1, 6545, Note_off_c, 0, 63, 99
1, 6550, Note_on_c, 0, 64, 106
1, 6600, Note_off_c, 0, 64, 106
1, 6611, Note_on_c, 0, 68, 113
1, 6644, Note_off_c, 0, 68, 113
1, 6649, Note_on_c, 0, 71, 112
1, 6669, Note_off_c, 0, 71, 112
1, 6676, Note_on_c, 0, 74, 121
1, 6757, Note_off_c, 0, 74, 121
1, 6798, Note_on_c, 0, 72, 118
1, 6842, Note_off_c, 0, 72, 118
1, 6850, Note_on_c, 0, 69, 104
1, 6894, Note_off_c, 0, 69, 104
1, 7974, Note_on_c, 0, 79, 121
1, 8093, Note_off_c, 0, 79, 121
1, 8106, Note_on_c, 0, 81, 111
1, 8144, Note_off_c, 0, 81, 111
1, 8158, Note_on_c, 0, 84, 118
1, 8287, Note_off_c, 0, 84, 118
1, 8295, Note_on_c, 0, 88, 110
1, 8670, Note_off_c, 0, 88, 110
1, 8699, Note_on_c, 0, 86, 127
1, 8759, Note_off_c, 0, 86, 127
1, 8784, Note_on_c, 0, 84, 116
1, 8894, Note_off_c, 0, 84, 116
1, 8907, Note_on_c, 0, 83, 123
1, 8990, Note_off_c, 0, 83, 123
1, 9003, Note_on_c, 0, 82, 112
1, 9099, Note_off_c, 0, 82, 112
1, 9114, Note_on_c, 0, 81, 117
1, 9186, Note_off_c, 0, 81, 117
1, 9197, Note_on_c, 0, 80, 115
1, 9292, Note_off_c, 0, 80, 115
1, 9300, Note_on_c, 0, 79, 116
1, 9370, Note_off_c, 0, 79, 116
1, 9373, Note_on_c, 0, 77, 121
1, 9456, Note_off_c, 0, 77, 121
1, 9475, Note_on_c, 0, 75, 120
1, 9526, Note_off_c, 0, 75, 120
1, 9553, Note_on_c, 0, 77, 109
1, 9624, Note_off_c, 0, 77, 109
1, 9663, Note_on_c, 0, 85, 124
1, 9746, Note_off_c, 0, 85, 124
1, 9755, Note_on_c, 0, 84, 121
1, 9836, Note_off_c, 0, 84, 121
1, 9873, Note_on_c, 0, 77, 79
1, 9904, Note_off_c, 0, 77, 79
1, 9917, Note_on_c, 0, 82, 122
1, 10022, Note_off_c, 0, 82, 122
1, 10032, Note_on_c, 0, 81, 116
1, 10102, Note_off_c, 0, 81, 116
1, 10113, Note_on_c, 0, 80, 122
1, 10206, Note_off_c, 0, 80, 122
1, 10216, Note_on_c, 0, 77, 117
1, 10277, Note_off_c, 0, 77, 117
1, 10288, Note_on_c, 0, 76, 108
1, 10456, Note_off_c, 0, 76, 108
1, 10480, Note_on_c, 0, 79, 119
1, 10576, Note_off_c, 0, 79, 119
1, 10610, Note_on_c, 0, 76, 111
1, 10655, Note_off_c, 0, 76, 111
1, 10670, Note_on_c, 0, 77, 108
1, 10769, Note_off_c, 0, 77, 108
1, 10781, Note_on_c, 0, 74, 120
1, 10859, Note_off_c, 0, 74, 120
1, 10861, Note_on_c, 0, 76, 119
1, 10895, Note_off_c, 0, 76, 119
1, 10898, Note_on_c, 0, 77, 102
1, 10929, Note_off_c, 0, 77, 102
1, 10938, Note_on_c, 0, 75, 111
1, 10977, Note_off_c, 0, 75, 111
1, 10983, Note_on_c, 0, 73, 119
1, 11031, Note_off_c, 0, 73, 119
1, 11038, Note_on_c, 0, 74, 118
1, 11151, Note_off_c, 0, 74, 118
1, 11158, Note_on_c, 0, 72, 120
1, 11204, Note_off_c, 0, 72, 120
1, 11218, Note_on_c, 0, 71, 107
1, 11319, Note_off_c, 0, 71, 107
1, 11341, Note_on_c, 0, 69, 112
1, 11396, Note_off_c, 0, 69, 112
1, 11421, Note_on_c, 0, 68, 107
1, 11493, Note_off_c, 0, 68, 107
1, 11643, Note_on_c, 0, 65, 109
1, 11739, Note_off_c, 0, 65, 109
1, 11746, Note_on_c, 0, 68, 108
1, 11804, Note_off_c, 0, 68, 108
1, 11815, Note_on_c, 0, 70, 113
1, 11900, Note_off_c, 0, 70, 113
1, 11912, Note_on_c, 0, 65, 109
1, 11990, Note_off_c, 0, 65, 109
1, 11996, Note_on_c, 0, 63, 108
1, 12098, Note_off_c, 0, 63, 108
1, 12171, Note_on_c, 0, 65, 111
1, 12288, Note_off_c, 0, 65, 111
1, 12346, Note_on_c, 0, 65, 108
1, 12485, Note_off_c, 0, 65, 108
1, 12504, Note_on_c, 0, 61, 99
1, 12667, Note_off_c, 0, 61, 99
1, 12758, Note_on_c, 0, 68, 112
1, 12883, Note_off_c, 0, 68, 112
1, 12926, Note_on_c, 0, 67, 100
1, 13073, Note_off_c, 0, 67, 100
1, 13086, Note_on_c, 0, 64, 93
1, 13296, Note_off_c, 0, 64, 93
1, 14503, Note_on_c, 0, 88, 125
1, 14571, Note_off_c, 0, 88, 125
1, 14588, Note_on_c, 0, 86, 113
1, 14642, Note_off_c, 0, 86, 113
1, 14691, Note_on_c, 0, 83, 119
1, 14731, Note_off_c, 0, 83, 119
1, 14740, Note_on_c, 0, 86, 122
1, 14817, Note_off_c, 0, 86, 122
1, 14839, Note_on_c, 0, 82, 112
1, 14873, Note_off_c, 0, 82, 112
1, 14878, Note_on_c, 0, 81, 117
1, 14918, Note_off_c, 0, 81, 117
1, 14932, Note_on_c, 0, 79, 111
1, 14961, Note_off_c, 0, 79, 111
1, 14967, Note_on_c, 0, 79, 114
1, 14985, Note_off_c, 0, 79, 114
1, 14986, Note_on_c, 0, 77, 114
1, 15008, Note_off_c, 0, 77, 114
1, 15016, Note_on_c, 0, 76, 116
1, 15056, Note_off_c, 0, 76, 116
1, 15059, Note_on_c, 0, 75, 120
1, 15105, Note_off_c, 0, 75, 120
1, 15120, Note_on_c, 0, 71, 90
1, 15157, Note_off_c, 0, 71, 90
1, 15165, Note_on_c, 0, 74, 115
1, 15187, Note_off_c, 0, 74, 115
1, 15195, Note_on_c, 0, 74, 123
1, 15247, Note_off_c, 0, 74, 123
1, 15257, Note_on_c, 0, 72, 111
1, 15289, Note_off_c, 0, 72, 111
1, 15302, Note_on_c, 0, 70, 117
1, 15338, Note_off_c, 0, 70, 117
1, 15343, Note_on_c, 0, 69, 110
1, 15389, Note_off_c, 0, 69, 110
1, 15396, Note_on_c, 0, 66, 98
1, 15433, Note_off_c, 0, 66, 98
1, 15438, Note_on_c, 0, 65, 110
1, 15476, Note_off_c, 0, 65, 110
1, 15480, Note_on_c, 0, 63, 103
1, 15522, Note_off_c, 0, 63, 103
1, 15526, Note_on_c, 0, 64, 99
1, 15554, Note_off_c, 0, 64, 99
1, 15560, Note_on_c, 0, 65, 108
1, 15623, Note_off_c, 0, 65, 108
1, 15630, Note_on_c, 0, 67, 105
1, 15666, Note_off_c, 0, 67, 105
1, 15668, Note_on_c, 0, 69, 90
1, 15704, Note_off_c, 0, 69, 90
1, 15711, Note_on_c, 0, 70, 115
1, 15756, Note_off_c, 0, 70, 115
1, 15762, Note_on_c, 0, 72, 117
1, 15796, Note_off_c, 0, 72, 117
1, 15800, Note_on_c, 0, 73, 114
1, 15835, Note_off_c, 0, 73, 114
1, 15844, Note_on_c, 0, 74, 118
1, 15881, Note_off_c, 0, 74, 118
1, 15885, Note_on_c, 0, 75, 121
1, 15931, Note_off_c, 0, 75, 121
1, 15936, Note_on_c, 0, 76, 114
1, 15971, Note_off_c, 0, 76, 114
1, 15973, Note_on_c, 0, 77, 117
1, 16013, Note_off_c, 0, 77, 117
1, 16020, Note_on_c, 0, 74, 114
1, 16051, Note_off_c, 0, 74, 114
1, 16057, Note_on_c, 0, 75, 116
1, 16081, Note_off_c, 0, 75, 116
1, 16089, Note_on_c, 0, 77, 106
1, 16111, Note_off_c, 0, 77, 106
1, 16115, Note_on_c, 0, 75, 104
1, 16145, Note_off_c, 0, 75, 104
1, 16149, Note_on_c, 0, 73, 109
1, 16171, Note_off_c, 0, 73, 109
1, 16176, Note_on_c, 0, 74, 113
1, 16218, Note_off_c, 0, 74, 113
1, 16236, Note_on_c, 0, 70, 99
1, 16317, Note_off_c, 0, 70, 99
1, 16328, Note_on_c, 0, 70, 114
1, 16368, Note_off_c, 0, 70, 114
1, 16369, Note_on_c, 0, 69, 108
1, 16424, Note_off_c, 0, 69, 108
1, 16445, Note_on_c, 0, 65, 108
1, 16509, Note_off_c, 0, 65, 108
1, 16532, Note_on_c, 0, 63, 103
1, 16582, Note_off_c, 0, 63, 103
1, 16593, Note_on_c, 0, 65, 103
1, 16645, Note_off_c, 0, 65, 103
1, 16724, Note_on_c, 0, 70, 112
1, 16784, Note_off_c, 0, 70, 112
1, 16790, Note_on_c, 0, 72, 107
1, 16808, Note_off_c, 0, 72, 107
1, 16815, Note_on_c, 0, 73, 112
1, 16845, Note_off_c, 0, 73, 112
1, 16852, Note_on_c, 0, 74, 109
1, 16882, Note_off_c, 0, 74, 109
1, 16889, Note_on_c, 0, 75, 117
1, 16946, Note_off_c, 0, 75, 117
1, 16952, Note_on_c, 0, 76, 108
1, 16989, Note_off_c, 0, 76, 108
1, 16996, Note_on_c, 0, 77, 116
1, 17028, Note_off_c, 0, 77, 116
1, 17036, Note_on_c, 0, 74, 113
1, 17063, Note_off_c, 0, 74, 113
1, 17066, Note_on_c, 0, 75, 116
1, 17090, Note_off_c, 0, 75, 116
1, 17099, Note_on_c, 0, 77, 106
1, 17124, Note_off_c, 0, 77, 106
1, 17130, Note_on_c, 0, 75, 116
1, 17180, Note_off_c, 0, 75, 116
1, 17188, Note_on_c, 0, 74, 115
1, 17236, Note_off_c, 0, 74, 115
1, 17252, Note_on_c, 0, 70, 94
1, 17279, Note_off_c, 0, 70, 94
1, 17301, Note_on_c, 0, 72, 113
1, 17331, Note_off_c, 0, 72, 113
1, 17333, Note_on_c, 0, 70, 114
1, 17393, Note_off_c, 0, 70, 114
1, 17401, Note_on_c, 0, 67, 116
1, 17434, Note_off_c, 0, 67, 116
1, 17477, Note_on_c, 0, 70, 111
1, 17770, Note_off_c, 0, 70, 111
1, 17782, Note_on_c, 0, 66, 103
1, 17830, Note_off_c, 0, 66, 103
1, 17836, Note_on_c, 0, 68, 95
1, 17862, Note_off_c, 0, 68, 95
1, 17868, Note_on_c, 0, 70, 97
1, 17912, Note_off_c, 0, 70, 97
1, 17917, Note_on_c, 0, 68, 105
1, 17960, Note_off_c, 0, 68, 105
1, 17969, Note_on_c, 0, 65, 107
1, 18047, Note_off_c, 0, 65, 107
1, 18050, Note_on_c, 0, 66, 101
1, 18085, Note_off_c, 0, 66, 101
1, 18105, Note_on_c, 0, 70, 91
1, 18148, Note_off_c, 0, 70, 91
1, 18241, Note_on_c, 0, 77, 120
1, 18348, Note_off_c, 0, 77, 120
1, 18351, Note_on_c, 0, 80, 116
1, 18429, Note_off_c, 0, 80, 116
1, 18437, Note_on_c, 0, 78, 110
1, 18560, Note_off_c, 0, 78, 110
1, 18631, Note_on_c, 0, 78, 110
1, 18732, Note_off_c, 0, 78, 110
1, 18739, Note_on_c, 0, 79, 111
1, 18790, Note_off_c, 0, 79, 111
1, 18799, Note_on_c, 0, 76, 111
1, 18924, Note_off_c, 0, 76, 111
1, 19004, Note_on_c, 0, 76, 104
1, 19036, Note_off_c, 0, 76, 104
1, 19039, Note_on_c, 0, 77, 105
1, 19065, Note_off_c, 0, 77, 105
1, 19070, Note_on_c, 0, 76, 106
1, 19112, Note_off_c, 0, 76, 106
1, 19118, Note_on_c, 0, 74, 118
1, 19183, Note_off_c, 0, 74, 118
1, 19189, Note_on_c, 0, 73, 112
1, 19294, Note_off_c, 0, 73, 112
1, 19295, Note_on_c, 0, 76, 114
1, 19363, Note_off_c, 0, 76, 114
1, 19368, Note_on_c, 0, 74, 112
1, 19482, Note_off_c, 0, 74, 112
1, 19549, Note_on_c, 0, 72, 101
1, 19649, Note_off_c, 0, 72, 101
1, 19661, Note_on_c, 0, 74, 104
1, 19738, Note_off_c, 0, 74, 104
1, 19750, Note_on_c, 0, 71, 91
1, 19846, Note_off_c, 0, 71, 91
1, 19855, Note_on_c, 0, 67, 100
1, 19936, Note_off_c, 0, 67, 100
1, 20520, Note_on_c, 0, 84, 118
1, 20637, Note_off_c, 0, 84, 118
1, 20703, Note_on_c, 0, 84, 121
1, 20847, Note_off_c, 0, 84, 121
1, 20850, Note_on_c, 0, 84, 119
1, 20902, Note_off_c, 0, 84, 119
1, 20912, Note_on_c, 0, 82, 114
1, 21026, Note_off_c, 0, 82, 114
1, 21422, Note_on_c, 0, 84, 112
1, 21459, Note_off_c, 0, 84, 112
1, 21465, Note_on_c, 0, 84, 118
1, 21495, Note_off_c, 0, 84, 118
1, 21503, Note_on_c, 0, 82, 109
1, 21615, Note_off_c, 0, 82, 109
1, 21624, Note_on_c, 0, 84, 112
1, 21672, Note_off_c, 0, 84, 112
1, 21683, Note_on_c, 0, 82, 112
1, 21792, Note_off_c, 0, 82, 112
1, 21815, Note_on_c, 0, 84, 108
1, 21887, Note_off_c, 0, 84, 108
1, 21898, Note_on_c, 0, 80, 112
1, 21944, Note_off_c, 0, 80, 112
1, 21949, Note_on_c, 0, 78, 114
1, 22118, Note_off_c, 0, 78, 114
1, 22182, Note_on_c, 0, 84, 117
1, 22241, Note_off_c, 0, 84, 117
1, 22251, Note_on_c, 0, 82, 119
1, 22350, Note_off_c, 0, 82, 119
1, 22387, Note_on_c, 0, 77, 69
1, 22409, Note_off_c, 0, 77, 69
1, 22438, Note_on_c, 0, 80, 110
1, 22560, Note_off_c, 0, 80, 110
1, 22617, Note_on_c, 0, 78, 108
1, 22717, Note_off_c, 0, 78, 108
1, 22743, Note_on_c, 0, 80, 102
1, 22812, Note_off_c, 0, 80, 102
1, 22820, Note_on_c, 0, 79, 113
1, 22909, Note_off_c, 0, 79, 113
1, 22929, Note_on_c, 0, 77, 115
1, 22987, Note_off_c, 0, 77, 115
1, 22992, Note_on_c, 0, 75, 117
1, 23105, Note_off_c, 0, 75, 117
1, 23119, Note_on_c, 0, 73, 97
1, 23171, Note_off_c, 0, 73, 97
1, 23178, Note_on_c, 0, 74, 113
1, 23306, Note_off_c, 0, 74, 113
1, 23311, Note_on_c, 0, 72, 104
1, 23372, Note_off_c, 0, 72, 104
1, 23381, Note_on_c, 0, 71, 105
1, 23491, Note_off_c, 0, 71, 105
1, 23502, Note_on_c, 0, 69, 107
1, 23546, Note_off_c, 0, 69, 107
1, 23561, Note_on_c, 0, 68, 107
1, 23688, Note_off_c, 0, 68, 107
1, 23703, Note_on_c, 0, 65, 84
1, 23738, Note_off_c, 0, 65, 84
1, 23896, Note_on_c, 0, 69, 108
1, 23950, Note_off_c, 0, 69, 108
1, 23960, Note_on_c, 0, 70, 99
1, 24116, Note_off_c, 0, 70, 99
1, 24132, Note_on_c, 0, 69, 99
1, 24292, Note_off_c, 0, 69, 99
1, 24370, Note_on_c, 0, 69, 100
1, 24401, Note_off_c, 0, 69, 100
1, 24404, Note_on_c, 0, 67, 105
1, 24444, Note_off_c, 0, 67, 105
1, 24459, Note_on_c, 0, 65, 111
1, 24533, Note_off_c, 0, 65, 111
1, 24541, Note_on_c, 0, 64, 101
1, 24632, Note_off_c, 0, 64, 101
1, 24638, Note_on_c, 0, 63, 108
1, 24734, Note_off_c, 0, 63, 108
1, 24742, Note_on_c, 0, 61, 99
1, 24824, Note_off_c, 0, 61, 99
1, 24841, Note_on_c, 0, 68, 105
1, 24894, Note_off_c, 0, 68, 105
1, 24905, Note_on_c, 0, 70, 111
1, 25025, Note_off_c, 0, 70, 111
1, 25034, Note_on_c, 0, 68, 90
1, 25074, Note_off_c, 0, 68, 90
1, 25078, Note_on_c, 0, 71, 111
1, 25202, Note_off_c, 0, 71, 111
1, 25213, Note_on_c, 0, 67, 107
1, 25270, Note_off_c, 0, 67, 107
1, 25287, Note_on_c, 0, 64, 99
1, 25400, Note_off_c, 0, 64, 99
1, 25461, Note_on_c, 0, 69, 91
1, 25648, Note_off_c, 0, 69, 91
1, 25648, End_track
0, 0, End_of_file
