0, 0, Header, 1, 1, 192
1, 0, Start_track
1, 0, Title_t, "Melody"
1, 0, Tempo, 526315
1, 0, Key_signature, -1, "major"
1, 0, Time_signature, 4, 2, 24, 8
1, 2751, Note_on_c, 0, 72, 113
1, 2787, Note_off_c, 0, 72, 113
1, 2814, Note_on_c, 0, 77, 107
1, 2864, Note_off_c, 0, 77, 107
1, 2871, Note_on_c, 0, 81, 112
1, 2917, Note_off_c, 0, 81, 112
1, 2936, Note_on_c, 0, 82, 109
1, 2997, Note_off_c, 0, 82, 109
1, 3002, Note_on_c, 0, 82, 110
1, 3053, Note_off_c, 0, 82, 110
1, 3056, Note_on_c, 0, 81, 110
1, 3136, Note_off_c, 0, 81, 110
1, 3141, Note_on_c, 0, 82, 112
1, 3189, Note_off_c, 0, 82, 112
1, 3194, Note_on_c, 0, 82, 108
1, 3244, Note_off_c, 0, 82, 108
1, 3250, Note_on_c, 0, 81, 107
1, 3326, Note_off_c, 0, 81, 107
1, 3329, Note_on_c, 0, 77, 108
1, 3396, Note_off_c, 0, 77, 108
1, 3592, Note_on_c, 0, 72, 104
1, 3633, Note_off_c, 0, 72, 104
1, 3634, Note_on_c, 0, 77, 110
1, 3682, Note_off_c, 0, 77, 110
1, 3688, Note_on_c, 0, 81, 104
1, 3714, Note_off_c, 0, 81, 104
1, 3735, Note_on_c, 0, 82, 111
1, 3791, Note_off_c, 0, 82, 111
1, 3798, Note_on_c, 0, 82, 106
1, 3845, Note_off_c, 0, 82, 106
1, 3856, Note_on_c, 0, 81, 114
1, 3904, Note_off_c, 0, 81, 114
1, 3908, Note_on_c, 0, 82, 108
1, 3984, Note_off_c, 0, 82, 108
1, 3989, Note_on_c, 0, 82, 107
1, 4048, Note_off_c, 0, 82, 107
1, 4050, Note_on_c, 0, 81, 112
1, 4108, Note_off_c, 0, 81, 112
1, 4121, Note_on_c, 0, 77, 113
1, 4168, Note_off_c, 0, 77, 113
1, 4395, Note_on_c, 0, 72, 105
1, 4430, Note_off_c, 0, 72, 105
1, 4430, Note_on_c, 0, 77, 113
1, 4485, Note_off_c, 0, 77, 113
1, 4495, Note_on_c, 0, 81, 107
1, 4532, Note_off_c, 0, 81, 107
1, 4533, Note_on_c, 0, 82, 111
1, 4595, Note_off_c, 0, 82, 111
1, 4600, Note_on_c, 0, 82, 109
1, 4658, Note_off_c, 0, 82, 109
1, 4662, Note_on_c, 0, 81, 114
1, 4723, Note_off_c, 0, 81, 114
1, 4725, Note_on_c, 0, 82, 111
1, 4796, Note_off_c, 0, 82, 111
1, 4804, Note_on_c, 0, 82, 111
1, 4859, Note_off_c, 0, 82, 111
1, 4860, Note_on_c, 0, 81, 115
1, 4910, Note_off_c, 0, 81, 115
1, 4917, Note_on_c, 0, 82, 110
1, 4978, Note_off_c, 0, 82, 110
1, 4986, Note_on_c, 0, 82, 106
1, 5041, Note_off_c, 0, 82, 106
1, 5058, Note_on_c, 0, 81, 118
1, 5108, Note_off_c, 0, 81, 118
1, 5119, Note_on_c, 0, 82, 105
1, 5177, Note_off_c, 0, 82, 105
1, 5184, Note_on_c, 0, 82, 106
1, 5239, Note_off_c, 0, 82, 106
1, 5246, Note_on_c, 0, 81, 114
1, 5308, Note_off_c, 0, 81, 114
1, 5312, Note_on_c, 0, 82, 105
1, 5373, Note_off_c, 0, 82, 105
1, 5373, Note_on_c, 0, 84, 109
1, 5404, Note_off_c, 0, 84, 109
1, 5404, Note_on_c, 0, 80, 102
1, 5435, Note_off_c, 0, 80, 102
1, 5436, Note_on_c, 0, 84, 103
1, 5462, Note_off_c, 0, 84, 103
1, 5463, Note_on_c, 0, 80, 106
1, 5492, Note_off_c, 0, 80, 106
1, 5503, Note_on_c, 0, 84, 99
1, 5529, Note_on_c, 0, 80, 101
1, 5529, Note_off_c, 0, 84, 99
1, 5563, Note_off_c, 0, 80, 101
1, 5565, Note_on_c, 0, 84, 111
1, 5603, Note_off_c, 0, 84, 111
1, 5611, Note_on_c, 0, 80, 96
1, 5643, Note_on_c, 0, 84, 106
1, 5643, Note_off_c, 0, 80, 96
1, 5684, Note_off_c, 0, 84, 106
1, 5686, Note_on_c, 0, 80, 99
1, 5714, Note_off_c, 0, 80, 99
1, 5723, Note_on_c, 0, 84, 104
1, 5760, Note_off_c, 0, 84, 104
1, 5760, Note_on_c, 0, 80, 96
1, 5794, Note_off_c, 0, 80, 96
1, 5805, Note_on_c, 0, 84, 98
1, 5828, Note_off_c, 0, 84, 98
1, 5828, Note_on_c, 0, 79, 86
1, 5874, Note_off_c, 0, 79, 86
1, 5894, Note_on_c, 0, 77, 102
1, 6025, Note_off_c, 0, 77, 102
1, 6081, Note_on_c, 0, 77, 107
1, 6153, Note_off_c, 0, 77, 107
1, 6458, Note_on_c, 0, 77, 119
1, 6617, Note_on_c, 0, 80, 107
1, 6617, Note_off_c, 0, 77, 119
1, 6734, Note_off_c, 0, 80, 107
1, 6795, Note_on_c, 0, 79, 91
1, 6812, Note_off_c, 0, 79, 91
1, 6898, Note_on_c, 0, 80, 107
1, 7002, Note_off_c, 0, 80, 107
1, 7052, Note_on_c, 0, 82, 113
1, 7199, Note_off_c, 0, 82, 113
1, 7204, Note_on_c, 0, 80, 114
1, 7233, Note_off_c, 0, 80, 114
1, 7234, Note_on_c, 0, 79, 108
1, 7256, Note_off_c, 0, 79, 108
1, 7257, Note_on_c, 0, 80, 103
1, 7358, Note_off_c, 0, 80, 103
1, 7387, Note_on_c, 0, 77, 108
1, 7461, Note_off_c, 0, 77, 108
1, 7791, Note_on_c, 0, 83, 107
1, 7963, Note_off_c, 0, 83, 107
1, 7991, Note_on_c, 0, 82, 107
1, 8092, Note_off_c, 0, 82, 107
1, 8096, Note_on_c, 0, 80, 108
1, 8183, Note_off_c, 0, 80, 108
1, 8185, Note_on_c, 0, 77, 102
1, 8219, Note_off_c, 0, 77, 102
1, 8265, Note_on_c, 0, 75, 106
1, 8324, Note_off_c, 0, 75, 106
1, 8344, Note_on_c, 0, 71, 107
1, 8421, Note_off_c, 0, 71, 107
1, 8428, Note_on_c, 0, 70, 96
1, 8478, Note_off_c, 0, 70, 96
1, 8492, Note_on_c, 0, 76, 97
1, 8529, Note_off_c, 0, 76, 97
1, 8537, Note_on_c, 0, 70, 84
1, 8568, Note_off_c, 0, 70, 84
1, 8570, Note_on_c, 0, 76, 94
1, 8607, Note_off_c, 0, 76, 94
1, 8609, Note_on_c, 0, 70, 89
1, 8634, Note_off_c, 0, 70, 89
1, 8634, Note_on_c, 0, 75, 95
1, 8663, Note_off_c, 0, 75, 95
1, 8670, Note_on_c, 0, 70, 95
1, 8704, Note_off_c, 0, 70, 95
1, 8704, Note_on_c, 0, 75, 95
1, 8751, Note_off_c, 0, 75, 95
1, 8755, Note_on_c, 0, 71, 97
1, 8777, Note_off_c, 0, 71, 97
1, 8777, Note_on_c, 0, 74, 103
1, 8808, Note_off_c, 0, 74, 103
1, 8816, Note_on_c, 0, 70, 111
1, 8912, Note_off_c, 0, 70, 111
1, 8914, Note_on_c, 0, 67, 114
1, 8979, Note_off_c, 0, 67, 114
1, 8992, Note_on_c, 0, 65, 102
1, 9064, Note_off_c, 0, 65, 102
1, 9169, Note_on_c, 0, 62, 100
1, 9222, Note_off_c, 0, 62, 100
1, 9227, Note_on_c, 0, 65, 96
1, 9328, Note_off_c, 0, 65, 96
1, 9335, Note_on_c, 0, 62, 97
1, 9370, Note_off_c, 0, 62, 97
1, 9371, Note_on_c, 0, 65, 101
1, 9406, Note_off_c, 0, 65, 101
1, 9406, Note_on_c, 0, 67, 99
1, 9452, Note_off_c, 0, 67, 99
1, 9452, Note_on_c, 0, 68, 98
1, 9510, Note_off_c, 0, 68, 98
1, 9511, Note_on_c, 0, 70, 93
1, 9686, Note_off_c, 0, 70, 93
1, 10147, Note_on_c, 0, 65, 106
1, 10196, Note_off_c, 0, 65, 106
1, 10196, Note_on_c, 0, 69, 117
1, 10237, Note_off_c, 0, 69, 117
1, 10239, Note_on_c, 0, 70, 114
1, 10297, Note_off_c, 0, 70, 114
1, 10298, Note_on_c, 0, 69, 110
1, 10332, Note_off_c, 0, 69, 110
1, 10332, Note_on_c, 0, 68, 113
1, 10412, Note_off_c, 0, 68, 113
1, 10419, Note_on_c, 0, 67, 93
1, 10441, Note_off_c, 0, 67, 93
1, 10441, Note_on_c, 0, 65, 111
1, 10481, Note_off_c, 0, 65, 111
1, 10504, Note_on_c, 0, 62, 102
1, 10565, Note_off_c, 0, 62, 102
1, 10690, Note_on_c, 0, 65, 97
1, 11060, Note_off_c, 0, 65, 97
1, 12178, Note_on_c, 0, 86, 113
1, 12206, Note_off_c, 0, 86, 113
1, 12226, Note_on_c, 0, 89, 115
1, 12907, Note_off_c, 0, 89, 115
1, 12966, Note_on_c, 0, 87, 113
1, 13007, Note_off_c, 0, 87, 113
1, 13020, Note_on_c, 0, 89, 117
1, 13068, Note_off_c, 0, 89, 117
1, 13704, Note_on_c, 0, 84, 102
1, 13838, Note_off_c, 0, 84, 102
1, 13838, Note_on_c, 0, 89, 122
1, 13952, Note_off_c, 0, 89, 122
1, 13958, Note_on_c, 0, 87, 124
1, 14045, Note_off_c, 0, 87, 124
1, 14045, Note_on_c, 0, 81, 106
1, 14119, Note_off_c, 0, 81, 106
1, 14120, Note_on_c, 0, 87, 127
1, 14197, Note_off_c, 0, 87, 127
1, 14232, Note_on_c, 0, 85, 101
1, 14351, Note_off_c, 0, 85, 101
1, 14355, Note_on_c, 0, 82, 116
1, 14393, Note_off_c, 0, 82, 116
1, 14397, Note_on_c, 0, 81, 121
1, 14429, Note_off_c, 0, 81, 121
1, 14430, Note_on_c, 0, 80, 103
1, 14491, Note_off_c, 0, 80, 103
1, 14493, Note_on_c, 0, 79, 109
1, 14531, Note_off_c, 0, 79, 109
1, 14532, Note_on_c, 0, 78, 110
1, 14567, Note_off_c, 0, 78, 110
1, 14580, Note_on_c, 0, 77, 117
1, 14618, Note_off_c, 0, 77, 117
1, 14618, Note_on_c, 0, 76, 116
1, 14659, Note_off_c, 0, 76, 116
1, 14660, Note_on_c, 0, 75, 109
1, 14706, Note_off_c, 0, 75, 109
1, 14720, Note_on_c, 0, 74, 111
1, 14763, Note_off_c, 0, 74, 111
1, 14768, Note_on_c, 0, 73, 112
1, 14805, Note_off_c, 0, 73, 112
1, 14819, Note_on_c, 0, 72, 107
1, 14845, Note_off_c, 0, 72, 107
1, 14845, Note_on_c, 0, 70, 111
1, 14886, Note_off_c, 0, 70, 111
1, 14887, Note_on_c, 0, 70, 113
1, 14940, Note_off_c, 0, 70, 113
1, 14941, Note_on_c, 0, 67, 111
1, 14981, Note_off_c, 0, 67, 111
1, 14982, Note_on_c, 0, 69, 109
1, 15021, Note_off_c, 0, 69, 109
1, 15033, Note_on_c, 0, 72, 103
1, 15070, Note_off_c, 0, 72, 103
1, 15076, Note_on_c, 0, 66, 106
1, 15128, Note_off_c, 0, 66, 106
1, 15130, Note_on_c, 0, 64, 101
1, 15164, Note_off_c, 0, 64, 101
1, 15165, Note_on_c, 0, 65, 102
1, 15202, Note_off_c, 0, 65, 102
1, 15204, Note_on_c, 0, 63, 105
1, 15248, Note_off_c, 0, 63, 105
1, 15251, Note_on_c, 0, 62, 103
1, 15289, Note_off_c, 0, 62, 103
1, 15296, Note_on_c, 0, 66, 107
1, 15342, Note_off_c, 0, 66, 107
1, 15344, Note_on_c, 0, 68, 109
1, 15376, Note_off_c, 0, 68, 109
1, 15381, Note_on_c, 0, 70, 108
1, 15425, Note_off_c, 0, 70, 108
1, 15426, Note_on_c, 0, 71, 110
1, 15471, Note_off_c, 0, 71, 110
1, 15553, Note_on_c, 0, 74, 100
1, 15595, Note_off_c, 0, 74, 100
1, 15596, Note_on_c, 0, 71, 94
1, 15610, Note_off_c, 0, 71, 94
1, 15612, Note_on_c, 0, 73, 113
1, 15664, Note_off_c, 0, 73, 113
1, 15669, Note_on_c, 0, 71, 111
1, 15713, Note_off_c, 0, 71, 111
1, 15725, Note_on_c, 0, 67, 102
1, 15765, Note_off_c, 0, 67, 102
1, 15765, Note_on_c, 0, 68, 108
1, 15849, Note_off_c, 0, 68, 108
1, 15849, Note_on_c, 0, 65, 100
1, 15890, Note_off_c, 0, 65, 100
1, 15892, Note_on_c, 0, 71, 100
1, 15927, Note_off_c, 0, 71, 100
1, 15931, Note_on_c, 0, 67, 105
1, 15980, Note_off_c, 0, 67, 105
1, 15980, Note_on_c, 0, 65, 110
1, 16056, Note_off_c, 0, 65, 110
1, 16305, Note_on_c, 0, 66, 105
1, 16349, Note_off_c, 0, 66, 105
1, 16376, Note_on_c, 0, 68, 102
1, 16467, Note_off_c, 0, 68, 102
1, 16496, Note_on_c, 0, 70, 115
1, 16533, Note_off_c, 0, 70, 115
1, 16551, Note_on_c, 0, 71, 106
1, 16626, Note_off_c, 0, 71, 106
1, 16667, Note_on_c, 0, 72, 108
1, 16749, Note_off_c, 0, 72, 108
1, 16752, Note_on_c, 0, 77, 108
1, 16837, Note_off_c, 0, 77, 108
1, 16858, Note_on_c, 0, 71, 110
1, 16912, Note_off_c, 0, 71, 110
1, 16928, Note_on_c, 0, 70, 105
1, 17033, Note_off_c, 0, 70, 105
1, 17053, Note_on_c, 0, 69, 104
1, 17184, Note_off_c, 0, 69, 104
1, 17184, End_track
0, 0, End_of_file
