0, 0, Header, 1, 1, 192
1, 0, Start_track
1, 0, Title_t, "Melody"
1, 0, Tempo, 292682
1, 0, Key_signature, -2, "major"
1, 0, Time_signature, 4, 2, 24, 8
1, 3525, Note_on_c, 0, 78, 118
1, 3554, Note_off_c, 0, 78, 118
1, 3563, Note_on_c, 0, 81, 118
1, 3588, Note_off_c, 0, 81, 118
1, 3594, Note_on_c, 0, 83, 116
1, 3610, Note_off_c, 0, 83, 116
1, 3616, Note_on_c, 0, 84, 109
1, 3636, Note_off_c, 0, 84, 109
1, 3641, Note_on_c, 0, 85, 118
1, 3659, Note_off_c, 0, 85, 118
1, 3667, Note_on_c, 0, 86, 120
1, 3689, Note_off_c, 0, 86, 120
1, 3691, Note_on_c, 0, 87, 113
1, 3745, Note_off_c, 0, 87, 113
1, 3749, Note_on_c, 0, 88, 121
1, 3801, Note_off_c, 0, 88, 121
1, 3811, Note_on_c, 0, 89, 108
1, 3841, Note_off_c, 0, 89, 108
1, 3846, Note_on_c, 0, 89, 106
1, 3904, Note_off_c, 0, 89, 106
1, 3909, Note_on_c, 0, 90, 106
1, 4028, Note_off_c, 0, 90, 106
1, 4971, Note_on_c, 0, 87, 121
1, 5094, Note_off_c, 0, 87, 121
1, 5122, Note_on_c, 0, 86, 110
1, 5158, Note_off_c, 0, 86, 110
1, 5169, Note_on_c, 0, 86, 101
1, 5255, Note_off_c, 0, 86, 101
1, 5292, Note_on_c, 0, 84, 104
1, 5541, Note_off_c, 0, 84, 104
1, 5555, Note_on_c, 0, 82, 109
1, 5643, Note_off_c, 0, 82, 109
1, 5659, Note_on_c, 0, 81, 114
1, 5731, Note_off_c, 0, 81, 114
1, 5743, Note_on_c, 0, 80, 101
1, 5846, Note_off_c, 0, 80, 101
1, 5940, Note_on_c, 0, 78, 100
1, 6053, Note_off_c, 0, 78, 100
1, 6054, Note_on_c, 0, 80, 102
1, 6122, Note_off_c, 0, 80, 102
1, 6126, Note_on_c, 0, 79, 113
1, 6237, Note_off_c, 0, 79, 113
1, 6241, Note_on_c, 0, 77, 118
1, 6308, Note_off_c, 0, 77, 118
1, 6314, Note_on_c, 0, 75, 112
1, 6469, Note_off_c, 0, 75, 112
1, 6493, Note_on_c, 0, 74, 111
1, 6622, Note_off_c, 0, 74, 111
1, 6629, Note_on_c, 0, 75, 100
1, 6655, Note_off_c, 0, 75, 100
1, 6664, Note_on_c, 0, 74, 93
1, 6684, Note_off_c, 0, 74, 93
1, 6699, Note_on_c, 0, 71, 101
1, 6813, Note_off_c, 0, 71, 101
1, 6830, Note_on_c, 0, 69, 86
1, 6868, Note_off_c, 0, 69, 86
1, 6875, Note_on_c, 0, 70, 102
1, 6988, Note_off_c, 0, 70, 102
1, 7003, Note_on_c, 0, 68, 104
1, 7075, Note_off_c, 0, 68, 104
1, 7081, Note_on_c, 0, 67, 90
1, 7140, Note_off_c, 0, 67, 90
1, 7219, Note_on_c, 0, 73, 96
1, 7235, Note_off_c, 0, 73, 96
1, 7238, Note_on_c, 0, 75, 98
1, 7264, Note_off_c, 0, 75, 98
1, 7275, Note_on_c, 0, 77, 120
1, 7372, Note_off_c, 0, 77, 120
1, 7398, Note_on_c, 0, 75, 104
1, 7456, Note_off_c, 0, 75, 104
1, 7478, Note_on_c, 0, 73, 91
1, 7563, Note_off_c, 0, 73, 91
1, 7572, Note_on_c, 0, 74, 116
1, 7652, Note_off_c, 0, 74, 116
1, 7660, Note_on_c, 0, 75, 109
1, 7761, Note_off_c, 0, 75, 109
1, 7768, Note_on_c, 0, 73, 104
1, 7825, Note_off_c, 0, 73, 104
1, 7843, Note_on_c, 0, 70, 94
1, 7961, Note_off_c, 0, 70, 94
1, 8022, Note_on_c, 0, 72, 98
1, 8184, Note_off_c, 0, 72, 98
1, 8234, Note_on_c, 0, 70, 102
1, 8373, Note_off_c, 0, 70, 102
1, 8398, Note_on_c, 0, 68, 92
1, 8583, Note_off_c, 0, 68, 92
1, 8608, Note_on_c, 0, 67, 97
1, 8727, Note_off_c, 0, 67, 97
1, 8736, Note_on_c, 0, 65, 94
1, 8782, Note_off_c, 0, 65, 94
1, 8800, Note_on_c, 0, 63, 91
1, 8946, Note_off_c, 0, 63, 91
1, 9014, Note_on_c, 0, 62, 84
1, 9117, Note_off_c, 0, 62, 84
1, 9127, Note_on_c, 0, 65, 78
1, 9367, Note_off_c, 0, 65, 78
1, 9803, Note_on_c, 0, 61, 102
1, 9866, Note_off_c, 0, 61, 102
1, 9885, Note_on_c, 0, 65, 96
1, 9939, Note_off_c, 0, 65, 96
1, 9945, Note_on_c, 0, 69, 108
1, 10064, Note_off_c, 0, 69, 108
1, 10136, Note_on_c, 0, 67, 103
1, 10255, Note_off_c, 0, 67, 103
1, 10260, Note_on_c, 0, 71, 102
1, 10319, Note_off_c, 0, 71, 102
1, 10451, Note_on_c, 0, 69, 102
1, 10516, Note_off_c, 0, 69, 102
1, 10546, Note_on_c, 0, 73, 106
1, 10704, Note_off_c, 0, 73, 106
1, 10710, Note_on_c, 0, 71, 99
1, 10845, Note_off_c, 0, 71, 99
1, 10847, Note_on_c, 0, 75, 106
1, 10939, Note_off_c, 0, 75, 106
1, 11128, Note_on_c, 0, 77, 119
1, 11236, Note_off_c, 0, 77, 119
1, 11299, Note_on_c, 0, 74, 109
1, 11404, Note_off_c, 0, 74, 109
1, 11416, Note_on_c, 0, 77, 120
1, 11476, Note_off_c, 0, 77, 120
1, 11498, Note_on_c, 0, 73, 102
1, 11538, Note_off_c, 0, 73, 102
1, 11549, Note_on_c, 0, 74, 102
1, 11597, Note_off_c, 0, 74, 102
1, 11602, Note_on_c, 0, 73, 95
1, 11644, Note_off_c, 0, 73, 95
1, 11652, Note_on_c, 0, 72, 93
1, 11793, Note_off_c, 0, 72, 93
1, 11807, Note_on_c, 0, 70, 91
1, 12041, Note_off_c, 0, 70, 91
1, 12852, Note_on_c, 0, 80, 110
1, 12916, Note_off_c, 0, 80, 110
1, 13026, Note_on_c, 0, 82, 105
1, 13145, Note_off_c, 0, 82, 105
1, 13211, Note_on_c, 0, 82, 111
1, 13325, Note_off_c, 0, 82, 111
1, 13424, Note_on_c, 0, 84, 115
1, 13693, Note_off_c, 0, 84, 115
1, 13725, Note_on_c, 0, 79, 114
1, 13793, Note_off_c, 0, 79, 114
1, 13928, Note_on_c, 0, 79, 112
1, 13987, Note_off_c, 0, 79, 112
1, 14101, Note_on_c, 0, 79, 94
1, 14169, Note_off_c, 0, 79, 94
1, 14176, Note_on_c, 0, 82, 104
1, 14465, Note_off_c, 0, 82, 104
1, 14522, Note_on_c, 0, 80, 102
1, 14594, Note_off_c, 0, 80, 102
1, 14691, Note_on_c, 0, 72, 97
1, 14756, Note_off_c, 0, 72, 97
1, 14776, Note_on_c, 0, 75, 104
1, 14871, Note_off_c, 0, 75, 104
1, 14888, Note_on_c, 0, 79, 107
1, 14964, Note_off_c, 0, 79, 107
1, 14984, Note_on_c, 0, 77, 106
1, 15058, Note_off_c, 0, 77, 106
1, 15064, Note_on_c, 0, 75, 109
1, 15147, Note_off_c, 0, 75, 109
1, 15160, Note_on_c, 0, 73, 92
1, 15235, Note_off_c, 0, 73, 92
1, 15250, Note_on_c, 0, 74, 103
1, 15314, Note_off_c, 0, 74, 103
1, 15332, Note_on_c, 0, 75, 107
1, 15461, Note_off_c, 0, 75, 107
1, 15515, Note_on_c, 0, 74, 102
1, 15627, Note_off_c, 0, 74, 102
1, 15639, Note_on_c, 0, 70, 106
1, 15715, Note_off_c, 0, 70, 106
1, 15716, Note_on_c, 0, 68, 102
1, 15769, Note_off_c, 0, 68, 102
1, 15772, Note_on_c, 0, 70, 99
1, 15814, Note_off_c, 0, 70, 99
1, 15822, Note_on_c, 0, 68, 95
1, 15869, Note_off_c, 0, 68, 95
1, 15903, Note_on_c, 0, 65, 93
1, 16001, Note_off_c, 0, 65, 93
1, 16019, Note_on_c, 0, 67, 90
1, 16292, Note_off_c, 0, 67, 90
1, 16316, Note_on_c, 0, 61, 93
1, 16393, Note_off_c, 0, 61, 93
1, 16413, Note_on_c, 0, 72, 97
1, 16487, Note_off_c, 0, 72, 97
1, 16501, Note_on_c, 0, 70, 99
1, 16664, Note_off_c, 0, 70, 99
1, 17585, Note_on_c, 0, 65, 101
1, 17648, Note_off_c, 0, 65, 101
1, 17777, Note_on_c, 0, 65, 87
1, 17831, Note_off_c, 0, 65, 87
1, 17838, Note_on_c, 0, 67, 93
1, 17893, Note_off_c, 0, 67, 93
1, 17904, Note_on_c, 0, 68, 99
1, 17966, Note_off_c, 0, 68, 99
1, 17970, Note_on_c, 0, 70, 107
1, 18025, Note_off_c, 0, 70, 107
1, 18036, Note_on_c, 0, 72, 105
1, 18105, Note_off_c, 0, 72, 105
1, 18110, Note_on_c, 0, 73, 106
1, 18142, Note_off_c, 0, 73, 106
1, 18152, Note_on_c, 0, 74, 110
1, 18201, Note_off_c, 0, 74, 110
1, 18211, Note_on_c, 0, 75, 112
1, 18265, Note_off_c, 0, 75, 112
1, 18273, Note_on_c, 0, 76, 119
1, 18325, Note_off_c, 0, 76, 119
1, 18336, Note_on_c, 0, 77, 123
1, 18388, Note_off_c, 0, 77, 123
1, 18396, Note_on_c, 0, 78, 115
1, 18431, Note_off_c, 0, 78, 115
1, 18440, Note_on_c, 0, 79, 110
1, 18472, Note_off_c, 0, 79, 110
1, 18478, Note_on_c, 0, 78, 111
1, 18530, Note_off_c, 0, 78, 111
1, 18542, Note_on_c, 0, 76, 115
1, 18604, Note_off_c, 0, 76, 115
1, 18606, Note_on_c, 0, 77, 118
1, 18722, Note_off_c, 0, 77, 118
1, 18731, Note_on_c, 0, 74, 116
1, 18787, Note_off_c, 0, 74, 116
1, 18796, Note_on_c, 0, 76, 104
1, 18832, Note_off_c, 0, 76, 104
1, 18836, Note_on_c, 0, 77, 110
1, 18868, Note_off_c, 0, 77, 110
1, 18878, Note_on_c, 0, 75, 104
1, 18924, Note_off_c, 0, 75, 104
1, 18932, Note_on_c, 0, 73, 104
1, 18990, Note_off_c, 0, 73, 104
1, 18994, Note_on_c, 0, 74, 109
1, 19117, Note_off_c, 0, 74, 109
1, 19141, Note_on_c, 0, 71, 91
1, 19187, Note_off_c, 0, 71, 91
1, 19201, Note_on_c, 0, 72, 101
1, 19294, Note_off_c, 0, 72, 101
1, 19300, Note_on_c, 0, 70, 102
1, 19385, Note_off_c, 0, 70, 102
1, 19393, Note_on_c, 0, 69, 102
1, 19429, Note_off_c, 0, 69, 102
1, 19432, Note_on_c, 0, 70, 99
1, 19462, Note_off_c, 0, 70, 99
1, 19474, Note_on_c, 0, 69, 100
1, 19506, Note_off_c, 0, 69, 100
1, 19515, Note_on_c, 0, 67, 99
1, 19571, Note_off_c, 0, 67, 99
1, 19602, Note_on_c, 0, 65, 99
1, 19716, Note_off_c, 0, 65, 99
1, 19748, Note_on_c, 0, 62, 97
1, 19778, Note_off_c, 0, 62, 97
1, 19783, Note_on_c, 0, 63, 85
1, 19821, Note_off_c, 0, 63, 85
1, 19838, Note_on_c, 0, 67, 92
1, 19872, Note_off_c, 0, 67, 92
1, 19879, Note_on_c, 0, 70, 110
1, 19945, Note_off_c, 0, 70, 110
1, 19965, Note_on_c, 0, 74, 111
1, 20052, Note_off_c, 0, 74, 111
1, 20073, Note_on_c, 0, 77, 115
1, 20147, Note_off_c, 0, 77, 115
1, 20162, Note_on_c, 0, 75, 109
1, 20249, Note_off_c, 0, 75, 109
1, 20306, Note_on_c, 0, 69, 95
1, 20347, Note_off_c, 0, 69, 95
1, 20358, Note_on_c, 0, 70, 100
1, 20439, Note_off_c, 0, 70, 100
1, 20446, Note_on_c, 0, 74, 108
1, 20526, Note_off_c, 0, 74, 108
1, 20532, Note_on_c, 0, 73, 107
1, 20621, Note_off_c, 0, 73, 107
1, 20642, Note_on_c, 0, 71, 95
1, 20695, Note_off_c, 0, 71, 95
1, 20732, Note_on_c, 0, 72, 100
1, 20836, Note_off_c, 0, 72, 100
1, 20904, Note_on_c, 0, 70, 99
1, 21001, Note_off_c, 0, 70, 99
1, 21028, Note_on_c, 0, 77, 115
1, 21127, Note_off_c, 0, 77, 115
1, 22265, Note_on_c, 0, 83, 111
1, 22282, Note_off_c, 0, 83, 111
1, 22283, Note_on_c, 0, 82, 107
1, 22319, Note_off_c, 0, 82, 107
1, 22326, Note_on_c, 0, 83, 102
1, 22352, Note_off_c, 0, 83, 102
1, 22369, Note_on_c, 0, 82, 103
1, 22394, Note_off_c, 0, 82, 103
1, 22421, Note_on_c, 0, 82, 116
1, 22495, Note_off_c, 0, 82, 116
1, 22519, Note_on_c, 0, 81, 84
1, 22563, Note_off_c, 0, 81, 84
1, 22575, Note_on_c, 0, 82, 99
1, 22619, Note_off_c, 0, 82, 99
1, 22630, Note_on_c, 0, 81, 96
1, 22668, Note_off_c, 0, 81, 96
1, 22684, Note_on_c, 0, 82, 101
1, 22773, Note_off_c, 0, 82, 101
1, 22805, Note_on_c, 0, 81, 100
1, 22834, Note_off_c, 0, 81, 100
1, 22844, Note_on_c, 0, 82, 107
1, 22869, Note_off_c, 0, 82, 107
1, 22893, Note_on_c, 0, 81, 100
1, 22933, Note_off_c, 0, 81, 100
1, 22948, Note_on_c, 0, 82, 101
1, 22991, Note_off_c, 0, 82, 101
1, 23006, Note_on_c, 0, 82, 106
1, 23066, Note_off_c, 0, 82, 106
1, 23078, Note_on_c, 0, 85, 127
1, 23136, Note_off_c, 0, 85, 127
1, 23146, Note_on_c, 0, 86, 105
1, 23222, Note_off_c, 0, 86, 105
1, 23764, Note_on_c, 0, 82, 112
1, 23808, Note_off_c, 0, 82, 112
1, 23817, Note_on_c, 0, 83, 99
1, 23854, Note_off_c, 0, 83, 99
1, 23869, Note_on_c, 0, 82, 101
1, 23914, Note_off_c, 0, 82, 101
1, 23938, Note_on_c, 0, 82, 108
1, 23994, Note_off_c, 0, 82, 108
1, 24017, Note_on_c, 0, 83, 95
1, 24055, Note_off_c, 0, 83, 95
1, 24092, Note_on_c, 0, 82, 99
1, 24134, Note_off_c, 0, 82, 99
1, 24153, Note_on_c, 0, 83, 88
1, 24187, Note_off_c, 0, 83, 88
1, 24197, Note_on_c, 0, 82, 89
1, 24219, Note_off_c, 0, 82, 89
1, 24236, Note_on_c, 0, 83, 112
1, 24300, Note_off_c, 0, 83, 112
1, 24311, Note_on_c, 0, 82, 97
1, 24343, Note_off_c, 0, 82, 97
1, 24362, Note_on_c, 0, 83, 108
1, 24392, Note_off_c, 0, 83, 108
1, 24401, Note_on_c, 0, 82, 96
1, 24431, Note_on_c, 0, 83, 102
1, 24431, Note_off_c, 0, 82, 96
1, 24459, Note_off_c, 0, 83, 102
1, 24474, Note_on_c, 0, 82, 95
1, 24491, Note_off_c, 0, 82, 95
1, 24496, Note_on_c, 0, 83, 115
1, 24585, Note_off_c, 0, 83, 115
1, 24598, Note_on_c, 0, 84, 112
1, 24628, Note_off_c, 0, 84, 112
1, 24638, Note_on_c, 0, 85, 118
1, 24688, Note_off_c, 0, 85, 118
1, 24707, Note_on_c, 0, 86, 117
1, 24736, Note_off_c, 0, 86, 117
1, 24743, Note_on_c, 0, 87, 110
1, 24782, Note_off_c, 0, 87, 110
1, 24785, Note_on_c, 0, 88, 111
1, 24826, Note_off_c, 0, 88, 111
1, 24835, Note_on_c, 0, 89, 119
1, 25411, Note_off_c, 0, 89, 119
1, 25449, Note_on_c, 0, 87, 102
1, 25603, Note_off_c, 0, 87, 102
1, 25641, Note_on_c, 0, 85, 115
1, 25764, Note_off_c, 0, 85, 115
1, 25770, Note_on_c, 0, 82, 100
1, 25843, Note_off_c, 0, 82, 100
1, 25935, Note_on_c, 0, 89, 116
1, 26031, Note_off_c, 0, 89, 116
1, 26921, Note_on_c, 0, 87, 107
1, 26991, Note_off_c, 0, 87, 107
1, 27004, Note_on_c, 0, 86, 112
1, 27066, Note_off_c, 0, 86, 112
1, 27137, Note_on_c, 0, 84, 111
1, 27224, Note_off_c, 0, 84, 111
1, 27296, Note_on_c, 0, 83, 111
1, 27389, Note_off_c, 0, 83, 111
1, 27484, Note_on_c, 0, 70, 68
1, 27547, Note_off_c, 0, 70, 68
1, 27568, Note_on_c, 0, 77, 97
1, 27669, Note_off_c, 0, 77, 97
1, 27677, Note_on_c, 0, 80, 103
1, 27762, Note_off_c, 0, 80, 103
1, 27770, Note_on_c, 0, 79, 110
1, 27865, Note_off_c, 0, 79, 110
1, 27877, Note_on_c, 0, 77, 114
1, 27942, Note_off_c, 0, 77, 114
1, 27950, Note_on_c, 0, 75, 102
1, 28123, Note_off_c, 0, 75, 102
1, 28127, Note_on_c, 0, 77, 107
1, 28307, Note_off_c, 0, 77, 107
1, 28329, Note_on_c, 0, 75, 97
1, 28509, Note_off_c, 0, 75, 97
1, 28576, Note_on_c, 0, 72, 83
1, 28650, Note_off_c, 0, 72, 83
1, 28667, Note_on_c, 0, 75, 103
1, 28732, Note_off_c, 0, 75, 103
1, 28742, Note_on_c, 0, 74, 98
1, 28849, Note_off_c, 0, 74, 98
1, 28857, Note_on_c, 0, 72, 105
1, 28938, Note_off_c, 0, 72, 105
1, 28950, Note_on_c, 0, 71, 101
1, 29057, Note_off_c, 0, 71, 101
1, 29063, Note_on_c, 0, 70, 106
1, 29116, Note_off_c, 0, 70, 106
1, 29130, Note_on_c, 0, 69, 93
1, 29232, Note_off_c, 0, 69, 93
1, 29246, Note_on_c, 0, 67, 97
1, 29294, Note_off_c, 0, 67, 97
1, 29322, Note_on_c, 0, 65, 99
1, 29440, Note_off_c, 0, 65, 99
1, 29455, Note_on_c, 0, 63, 92
1, 29496, Note_off_c, 0, 63, 92
1, 29499, Note_on_c, 0, 64, 87
1, 29575, Note_off_c, 0, 64, 87
1, 29582, Note_on_c, 0, 68, 84
1, 29616, Note_off_c, 0, 68, 84
1, 29622, Note_on_c, 0, 71, 107
1, 29684, Note_off_c, 0, 71, 107
1, 29689, Note_on_c, 0, 74, 115
1, 29797, Note_off_c, 0, 74, 115
1, 29803, Note_on_c, 0, 77, 118
1, 29873, Note_off_c, 0, 77, 118
1, 29877, Note_on_c, 0, 75, 108
1, 30033, Note_off_c, 0, 75, 108
1, 30045, Note_on_c, 0, 74, 108
1, 30170, Note_off_c, 0, 74, 108
1, 30202, Note_on_c, 0, 70, 107
1, 30305, Note_off_c, 0, 70, 107
1, 30311, Note_on_c, 0, 69, 86
1, 30375, Note_off_c, 0, 69, 86
1, 31204, Note_on_c, 0, 84, 114
1, 31291, Note_off_c, 0, 84, 114
1, 31391, Note_on_c, 0, 87, 109
1, 31701, Note_off_c, 0, 87, 109
1, 31756, Note_on_c, 0, 85, 102
1, 31797, Note_off_c, 0, 85, 102
1, 31798, Note_on_c, 0, 86, 112
1, 31921, Note_off_c, 0, 86, 112
1, 31934, Note_on_c, 0, 82, 108
1, 32006, Note_off_c, 0, 82, 108
1, 32577, Note_on_c, 0, 87, 112
1, 32676, Note_off_c, 0, 87, 112
1, 32684, Note_on_c, 0, 86, 101
1, 32746, Note_off_c, 0, 86, 101
1, 32760, Note_on_c, 0, 86, 118
1, 32824, Note_off_c, 0, 86, 118
1, 32824, Note_on_c, 0, 85, 83
1, 32863, Note_off_c, 0, 85, 83
1, 32871, Note_on_c, 0, 84, 109
1, 32949, Note_off_c, 0, 84, 109
1, 32961, Note_on_c, 0, 82, 106
1, 33072, Note_off_c, 0, 82, 106
1, 33078, Note_on_c, 0, 81, 111
1, 33146, Note_off_c, 0, 81, 111
1, 33150, Note_on_c, 0, 80, 107
1, 33262, Note_off_c, 0, 80, 107
1, 33334, Note_on_c, 0, 77, 93
1, 33425, Note_off_c, 0, 77, 93
1, 33435, Note_on_c, 0, 80, 98
1, 33509, Note_off_c, 0, 80, 98
1, 33520, Note_on_c, 0, 79, 108
1, 33624, Note_off_c, 0, 79, 108
1, 33634, Note_on_c, 0, 77, 118
1, 33698, Note_off_c, 0, 77, 118
1, 33708, Note_on_c, 0, 75, 111
1, 33861, Note_off_c, 0, 75, 111
1, 33884, Note_on_c, 0, 74, 105
1, 34029, Note_off_c, 0, 74, 105
1, 34041, Note_on_c, 0, 73, 92
1, 34151, Note_off_c, 0, 73, 92
1, 34175, Note_on_c, 0, 70, 99
1, 34286, Note_off_c, 0, 70, 99
1, 34299, Note_on_c, 0, 68, 101
1, 34440, Note_off_c, 0, 68, 101
1, 34484, Note_on_c, 0, 68, 101
1, 34559, Note_off_c, 0, 68, 101
1, 34566, Note_on_c, 0, 70, 106
1, 34646, Note_off_c, 0, 70, 106
1, 34657, Note_on_c, 0, 73, 99
1, 34759, Note_off_c, 0, 73, 99
1, 34769, Note_on_c, 0, 77, 100
1, 35029, Note_off_c, 0, 77, 100
1, 35929, Note_on_c, 0, 77, 114
1, 35982, Note_off_c, 0, 77, 114
1, 35991, Note_on_c, 0, 80, 108
1, 36046, Note_off_c, 0, 80, 108
1, 36055, Note_on_c, 0, 80, 107
1, 36092, Note_off_c, 0, 80, 107
1, 36111, Note_on_c, 0, 77, 118
1, 36163, Note_off_c, 0, 77, 118
1, 36171, Note_on_c, 0, 79, 110
1, 36197, Note_off_c, 0, 79, 110
1, 36208, Note_on_c, 0, 80, 104
1, 36245, Note_off_c, 0, 80, 104
1, 36260, Note_on_c, 0, 80, 102
1, 36284, Note_off_c, 0, 80, 102
1, 36301, Note_on_c, 0, 77, 117
1, 36344, Note_off_c, 0, 77, 117
1, 36350, Note_on_c, 0, 78, 117
1, 36369, Note_off_c, 0, 78, 117
1, 36380, Note_on_c, 0, 80, 107
1, 36399, Note_off_c, 0, 80, 107
1, 36404, Note_on_c, 0, 81, 82
1, 36462, Note_off_c, 0, 81, 82
1, 36475, Note_on_c, 0, 80, 100
1, 36495, Note_off_c, 0, 80, 100
1, 36513, Note_on_c, 0, 77, 111
1, 36567, Note_off_c, 0, 77, 111
1, 36581, Note_on_c, 0, 80, 104
1, 36606, Note_off_c, 0, 80, 104
1, 36633, Note_on_c, 0, 80, 99
1, 36690, Note_off_c, 0, 80, 99
1, 36690, Note_on_c, 0, 77, 112
1, 36727, Note_off_c, 0, 77, 112
1, 36737, Note_on_c, 0, 79, 103
1, 36761, Note_off_c, 0, 79, 103
1, 36775, Note_on_c, 0, 80, 97
1, 36809, Note_off_c, 0, 80, 97
1, 36825, Note_on_c, 0, 80, 100
1, 36877, Note_off_c, 0, 80, 100
1, 36886, Note_on_c, 0, 77, 106
1, 36942, Note_off_c, 0, 77, 106
1, 36957, Note_on_c, 0, 80, 102
1, 36989, Note_off_c, 0, 80, 102
1, 36995, Note_on_c, 0, 81, 107
1, 37017, Note_off_c, 0, 81, 107
1, 37027, Note_on_c, 0, 80, 82
1, 37053, Note_off_c, 0, 80, 82
1, 37075, Note_on_c, 0, 77, 110
1, 37136, Note_off_c, 0, 77, 110
1, 37148, Note_on_c, 0, 80, 103
1, 37186, Note_off_c, 0, 80, 103
1, 37195, Note_on_c, 0, 80, 107
1, 37250, Note_off_c, 0, 80, 107
1, 37265, Note_on_c, 0, 77, 102
1, 37315, Note_off_c, 0, 77, 102
1, 37325, Note_on_c, 0, 80, 100
1, 37359, Note_off_c, 0, 80, 100
1, 37369, Note_on_c, 0, 81, 101
1, 37398, Note_off_c, 0, 81, 101
1, 37415, Note_on_c, 0, 80, 92
1, 37437, Note_off_c, 0, 80, 92
1, 37443, Note_on_c, 0, 77, 100
1, 37508, Note_off_c, 0, 77, 100
1, 37537, Note_on_c, 0, 80, 102
1, 37575, Note_off_c, 0, 80, 102
1, 37590, Note_on_c, 0, 81, 91
1, 37616, Note_off_c, 0, 81, 91
1, 37633, Note_on_c, 0, 80, 100
1, 37658, Note_off_c, 0, 80, 100
1, 37671, Note_on_c, 0, 79, 102
1, 37724, Note_off_c, 0, 79, 102
1, 37753, Note_on_c, 0, 77, 116
1, 37850, Note_off_c, 0, 77, 116
1, 37861, Note_on_c, 0, 76, 102
1, 37941, Note_off_c, 0, 76, 102
1, 37947, Note_on_c, 0, 75, 105
1, 38027, Note_off_c, 0, 75, 105
1, 38035, Note_on_c, 0, 74, 106
1, 38106, Note_off_c, 0, 74, 106
1, 38122, Note_on_c, 0, 72, 100
1, 38152, Note_off_c, 0, 72, 100
1, 38163, Note_on_c, 0, 74, 104
1, 38192, Note_off_c, 0, 74, 104
1, 38202, Note_on_c, 0, 72, 99
1, 38235, Note_off_c, 0, 72, 99
1, 38245, Note_on_c, 0, 70, 105
1, 38301, Note_off_c, 0, 70, 105
1, 38309, Note_on_c, 0, 69, 95
1, 38398, Note_off_c, 0, 69, 95
1, 38423, Note_on_c, 0, 67, 90
1, 38504, Note_off_c, 0, 67, 90
1, 38512, Note_on_c, 0, 65, 98
1, 38597, Note_off_c, 0, 65, 98
1, 38717, Note_on_c, 0, 67, 87
1, 38759, Note_off_c, 0, 67, 87
1, 38779, Note_on_c, 0, 70, 103
1, 38859, Note_off_c, 0, 70, 103
1, 38878, Note_on_c, 0, 75, 98
1, 38997, Note_off_c, 0, 75, 98
1, 39000, Note_on_c, 0, 73, 95
1, 39048, Note_off_c, 0, 73, 95
1, 39064, Note_on_c, 0, 74, 107
1, 39167, Note_off_c, 0, 74, 107
1, 39180, Note_on_c, 0, 75, 106
1, 39232, Note_off_c, 0, 75, 106
1, 39244, Note_on_c, 0, 76, 105
1, 39345, Note_off_c, 0, 76, 105
1, 39349, Note_on_c, 0, 78, 117
1, 39421, Note_off_c, 0, 78, 117
1, 39429, Note_on_c, 0, 79, 103
1, 39466, Note_off_c, 0, 79, 103
1, 39476, Note_on_c, 0, 80, 34
1, 39508, Note_off_c, 0, 80, 34
1, 39518, Note_on_c, 0, 78, 118
1, 39550, Note_off_c, 0, 78, 118
1, 39559, Note_on_c, 0, 76, 112
1, 39621, Note_off_c, 0, 76, 112
1, 39625, Note_on_c, 0, 77, 120
1, 39746, Note_off_c, 0, 77, 120
1, 39756, Note_on_c, 0, 74, 119
1, 39804, Note_off_c, 0, 74, 119
1, 39809, Note_on_c, 0, 75, 104
1, 39835, Note_off_c, 0, 75, 104
1, 39851, Note_on_c, 0, 77, 110
1, 39877, Note_off_c, 0, 77, 110
1, 39889, Note_on_c, 0, 75, 105
1, 39933, Note_off_c, 0, 75, 105
1, 39947, Note_on_c, 0, 73, 107
1, 39989, Note_off_c, 0, 73, 107
1, 39997, Note_on_c, 0, 74, 110
1, 40122, Note_off_c, 0, 74, 110
1, 40132, Note_on_c, 0, 69, 95
1, 40180, Note_off_c, 0, 69, 95
1, 40202, Note_on_c, 0, 72, 109
1, 40301, Note_off_c, 0, 72, 109
1, 40317, Note_on_c, 0, 70, 108
1, 40373, Note_off_c, 0, 70, 108
1, 40382, Note_on_c, 0, 69, 106
1, 40505, Note_off_c, 0, 69, 106
1, 40564, Note_on_c, 0, 70, 113
1, 40640, Note_off_c, 0, 70, 113
1, 40640, End_track
0, 0, End_of_file
