0, 0, Header, 1, 1, 192
1, 0, Start_track
1, 0, Title_t, "Melody"
1, 0, Tempo, 331491
1, 0, Key_signature, -5, "major"
1, 0, Time_signature, 4, 2, 24, 8
1, 2607, Note_on_c, 0, 68, 108
1, 2674, Note_off_c, 0, 68, 108
1, 2696, Note_on_c, 0, 70, 110
1, 2740, Note_off_c, 0, 70, 110
1, 2770, Note_on_c, 0, 76, 104
1, 2875, Note_off_c, 0, 76, 104
1, 2881, Note_on_c, 0, 75, 115
1, 2936, Note_off_c, 0, 75, 115
1, 2947, Note_on_c, 0, 76, 122
1, 3052, Note_off_c, 0, 76, 122
1, 3067, Note_on_c, 0, 77, 121
1, 3117, Note_off_c, 0, 77, 121
1, 3140, Note_on_c, 0, 78, 118
1, 3240, Note_off_c, 0, 78, 118
1, 3312, Note_on_c, 0, 77, 115
1, 3453, Note_off_c, 0, 77, 115
1, 3569, Note_on_c, 0, 72, 96
1, 3634, Note_off_c, 0, 72, 96
1, 3655, Note_on_c, 0, 77, 116
1, 3723, Note_off_c, 0, 77, 116
1, 3752, Note_on_c, 0, 75, 110
1, 3873, Note_off_c, 0, 75, 110
1, 3904, Note_on_c, 0, 73, 116
1, 4031, Note_off_c, 0, 73, 116
1, 4093, Note_on_c, 0, 72, 100
1, 4188, Note_off_c, 0, 72, 100
1, 4219, Note_on_c, 0, 70, 111
1, 4279, Note_off_c, 0, 70, 111
1, 4283, Note_on_c, 0, 68, 104
1, 4322, Note_off_c, 0, 68, 104
1, 4329, Note_on_c, 0, 70, 103
1, 4352, Note_off_c, 0, 70, 103
1, 4362, Note_on_c, 0, 68, 108
1, 4392, Note_off_c, 0, 68, 108
1, 4407, Note_on_c, 0, 67, 110
1, 4457, Note_off_c, 0, 67, 110
1, 4510, Note_on_c, 0, 65, 110
1, 4580, Note_off_c, 0, 65, 110
1, 4604, Note_on_c, 0, 63, 94
1, 4637, Note_off_c, 0, 63, 94
1, 4676, Note_on_c, 0, 64, 95
1, 4724, Note_off_c, 0, 64, 95
1, 4731, Note_on_c, 0, 67, 93
1, 4765, Note_off_c, 0, 67, 93
1, 4780, Note_on_c, 0, 70, 108
1, 4841, Note_off_c, 0, 70, 108
1, 4870, Note_on_c, 0, 73, 115
1, 4982, Note_off_c, 0, 73, 115
1, 4993, Note_on_c, 0, 72, 110
1, 5037, Note_off_c, 0, 72, 110
1, 5060, Note_on_c, 0, 68, 95
1, 5084, Note_off_c, 0, 68, 95
1, 5089, Note_on_c, 0, 67, 101
1, 5158, Note_off_c, 0, 67, 101
1, 5159, Note_on_c, 0, 66, 101
1, 5229, Note_off_c, 0, 66, 101
1, 5257, Note_on_c, 0, 70, 108
1, 5352, Note_off_c, 0, 70, 108
1, 5453, Note_on_c, 0, 68, 102
1, 5539, Note_off_c, 0, 68, 102
1, 5548, Note_on_c, 0, 70, 115
1, 5581, Note_off_c, 0, 70, 115
1, 5602, Note_on_c, 0, 68, 102
1, 5650, Note_off_c, 0, 68, 102
1, 5659, Note_on_c, 0, 70, 99
1, 5686, Note_off_c, 0, 70, 99
1, 5707, Note_on_c, 0, 68, 102
1, 5772, Note_off_c, 0, 68, 102
1, 5814, Note_on_c, 0, 65, 101
1, 5889, Note_off_c, 0, 65, 101
1, 5898, Note_on_c, 0, 66, 98
1, 5966, Note_off_c, 0, 66, 98
1, 6000, Note_on_c, 0, 68, 97
1, 6167, Note_off_c, 0, 68, 97
1, 7169, Note_on_c, 0, 77, 120
1, 7192, Note_off_c, 0, 77, 120
1, 7202, Note_on_c, 0, 76, 122
1, 7229, Note_off_c, 0, 76, 122
1, 7247, Note_on_c, 0, 80, 121
1, 7276, Note_off_c, 0, 80, 121
1, 7294, Note_on_c, 0, 84, 120
1, 7345, Note_off_c, 0, 84, 120
1, 7351, Note_on_c, 0, 83, 111
1, 7376, Note_off_c, 0, 83, 111
1, 7381, Note_on_c, 0, 82, 108
1, 7415, Note_off_c, 0, 82, 108
1, 7428, Note_on_c, 0, 81, 119
1, 7468, Note_off_c, 0, 81, 119
1, 7480, Note_on_c, 0, 80, 117
1, 7526, Note_off_c, 0, 80, 117
1, 7539, Note_on_c, 0, 77, 116
1, 7584, Note_off_c, 0, 77, 116
1, 7591, Note_on_c, 0, 78, 120
1, 7629, Note_off_c, 0, 78, 120
1, 7640, Note_on_c, 0, 79, 110
1, 7677, Note_off_c, 0, 79, 110
1, 7683, Note_on_c, 0, 78, 105
1, 7701, Note_off_c, 0, 78, 105
1, 7705, Note_on_c, 0, 77, 109
1, 7740, Note_off_c, 0, 77, 109
1, 7752, Note_on_c, 0, 75, 108
1, 7785, Note_off_c, 0, 75, 108
1, 7803, Note_on_c, 0, 73, 106
1, 7840, Note_off_c, 0, 73, 106
1, 7851, Note_on_c, 0, 77, 115
1, 7891, Note_off_c, 0, 77, 115
1, 7902, Note_on_c, 0, 73, 108
1, 7935, Note_off_c, 0, 73, 108
1, 7938, Note_on_c, 0, 74, 108
1, 7962, Note_off_c, 0, 74, 108
1, 7972, Note_on_c, 0, 77, 115
1, 8003, Note_off_c, 0, 77, 115
1, 8004, Note_on_c, 0, 76, 107
1, 8023, Note_off_c, 0, 76, 107
1, 8031, Note_on_c, 0, 74, 110
1, 8067, Note_off_c, 0, 74, 110
1, 8075, Note_on_c, 0, 73, 102
1, 8121, Note_off_c, 0, 73, 102
1, 8128, Note_on_c, 0, 72, 104
1, 8164, Note_off_c, 0, 72, 104
1, 8173, Note_on_c, 0, 70, 105
1, 8204, Note_off_c, 0, 70, 105
1, 8211, Note_on_c, 0, 68, 99
1, 8258, Note_off_c, 0, 68, 99
1, 8285, Note_on_c, 0, 69, 92
1, 8306, Note_off_c, 0, 69, 92
1, 8306, Note_on_c, 0, 70, 106
1, 8340, Note_off_c, 0, 70, 106
1, 8347, Note_on_c, 0, 68, 106
1, 8373, Note_off_c, 0, 68, 106
1, 8378, Note_on_c, 0, 67, 98
1, 8396, Note_off_c, 0, 67, 98
1, 8400, Note_on_c, 0, 68, 100
1, 8440, Note_off_c, 0, 68, 100
1, 8455, Note_on_c, 0, 65, 102
1, 8483, Note_off_c, 0, 65, 102
1, 8488, Note_on_c, 0, 64, 93
1, 8515, Note_off_c, 0, 64, 93
1, 8515, Note_on_c, 0, 63, 90
1, 8556, Note_off_c, 0, 63, 90
1, 8562, Note_on_c, 0, 65, 110
1, 8621, Note_off_c, 0, 65, 110
1, 8643, Note_on_c, 0, 62, 112
1, 8673, Note_off_c, 0, 62, 112
1, 8679, Note_on_c, 0, 63, 99
1, 8703, Note_off_c, 0, 63, 99
1, 8711, Note_on_c, 0, 65, 104
1, 8753, Note_off_c, 0, 65, 104
1, 8757, Note_on_c, 0, 67, 102
1, 8804, Note_off_c, 0, 67, 102
1, 8813, Note_on_c, 0, 68, 106
1, 8845, Note_off_c, 0, 68, 106
1, 8856, Note_on_c, 0, 70, 105
1, 8892, Note_off_c, 0, 70, 105
1, 8908, Note_on_c, 0, 68, 112
1, 8931, Note_off_c, 0, 68, 112
1, 8936, Note_on_c, 0, 67, 104
1, 8967, Note_off_c, 0, 67, 104
1, 8977, Note_on_c, 0, 69, 107
1, 9003, Note_off_c, 0, 69, 107
1, 9010, Note_on_c, 0, 70, 107
1, 9052, Note_off_c, 0, 70, 107
1, 9062, Note_on_c, 0, 74, 93
1, 9089, Note_off_c, 0, 74, 93
1, 9097, Note_on_c, 0, 77, 118
1, 9454, Note_off_c, 0, 77, 118
1, 9459, Note_on_c, 0, 72, 111
1, 9528, Note_off_c, 0, 72, 111
1, 9533, Note_on_c, 0, 73, 109
1, 9605, Note_off_c, 0, 73, 109
1, 9622, Note_on_c, 0, 74, 121
1, 9698, Note_off_c, 0, 74, 121
1, 9745, Note_on_c, 0, 77, 107
1, 9771, Note_off_c, 0, 77, 107
1, 9773, Note_on_c, 0, 78, 104
1, 9793, Note_off_c, 0, 78, 104
1, 9796, Note_on_c, 0, 77, 105
1, 9812, Note_off_c, 0, 77, 105
1, 9822, Note_on_c, 0, 73, 118
1, 9898, Note_off_c, 0, 73, 118
1, 9924, Note_on_c, 0, 72, 106
1, 10023, Note_off_c, 0, 72, 106
1, 10032, Note_on_c, 0, 70, 109
1, 10095, Note_off_c, 0, 70, 109
1, 10113, Note_on_c, 0, 68, 110
1, 10136, Note_off_c, 0, 68, 110
1, 10142, Note_on_c, 0, 69, 93
1, 10157, Note_off_c, 0, 69, 93
1, 10165, Note_on_c, 0, 68, 92
1, 10187, Note_off_c, 0, 68, 92
1, 10197, Note_on_c, 0, 67, 101
1, 10249, Note_off_c, 0, 67, 101
1, 10296, Note_on_c, 0, 66, 101
1, 10389, Note_off_c, 0, 66, 101
1, 10404, Note_on_c, 0, 70, 107
1, 10468, Note_off_c, 0, 70, 107
1, 10496, Note_on_c, 0, 65, 98
1, 10603, Note_off_c, 0, 65, 98
1, 10639, Note_on_c, 0, 62, 102
1, 10699, Note_off_c, 0, 62, 102
1, 10705, Note_on_c, 0, 63, 93
1, 10768, Note_off_c, 0, 63, 93
1, 10777, Note_on_c, 0, 65, 87
1, 11070, Note_off_c, 0, 65, 87
1, 11976, Note_on_c, 0, 80, 122
1, 12066, Note_off_c, 0, 80, 122
1, 12087, Note_on_c, 0, 82, 112
1, 12126, Note_off_c, 0, 82, 112
1, 12150, Note_on_c, 0, 84, 115
1, 12250, Note_off_c, 0, 84, 115
1, 12309, Note_on_c, 0, 87, 119
1, 12445, Note_off_c, 0, 87, 119
1, 12470, Note_on_c, 0, 84, 113
1, 12560, Note_off_c, 0, 84, 113
1, 12640, Note_on_c, 0, 87, 120
1, 12722, Note_off_c, 0, 87, 120
1, 12727, Note_on_c, 0, 86, 118
1, 12813, Note_off_c, 0, 86, 118
1, 12843, Note_on_c, 0, 83, 116
1, 12941, Note_off_c, 0, 83, 116
1, 13009, Note_on_c, 0, 85, 119
1, 13188, Note_off_c, 0, 85, 119
1, 13193, Note_on_c, 0, 86, 101
1, 13252, Note_off_c, 0, 86, 101
1, 13299, Note_on_c, 0, 83, 110
1, 13366, Note_off_c, 0, 83, 110
1, 13379, Note_on_c, 0, 85, 123
1, 13459, Note_off_c, 0, 85, 123
1, 13469, Note_on_c, 0, 84, 112
1, 13565, Note_off_c, 0, 84, 112
1, 13569, Note_on_c, 0, 83, 121
1, 13632, Note_off_c, 0, 83, 121
1, 13653, Note_on_c, 0, 81, 112
1, 13748, Note_off_c, 0, 81, 112
1, 13761, Note_on_c, 0, 79, 113
1, 13835, Note_off_c, 0, 79, 113
1, 13841, Note_on_c, 0, 78, 111
1, 13939, Note_off_c, 0, 78, 111
1, 14050, Note_on_c, 0, 72, 95
1, 14141, Note_off_c, 0, 72, 95
1, 14153, Note_on_c, 0, 78, 112
1, 14409, Note_off_c, 0, 78, 112
1, 14428, Note_on_c, 0, 78, 118
1, 14529, Note_off_c, 0, 78, 118
1, 14550, Note_on_c, 0, 78, 102
1, 14597, Note_off_c, 0, 78, 102
1, 14623, Note_on_c, 0, 77, 115
1, 14699, Note_off_c, 0, 77, 115
1, 14739, Note_on_c, 0, 68, 95
1, 14773, Note_off_c, 0, 68, 95
1, 14817, Note_on_c, 0, 72, 90
1, 14896, Note_off_c, 0, 72, 90
1, 14905, Note_on_c, 0, 75, 113
1, 14966, Note_off_c, 0, 75, 113
1, 14985, Note_on_c, 0, 74, 108
1, 15127, Note_off_c, 0, 74, 108
1, 15148, Note_on_c, 0, 73, 107
1, 15258, Note_off_c, 0, 73, 107
1, 15284, Note_on_c, 0, 80, 116
1, 15409, Note_off_c, 0, 80, 116
1, 16123, Note_on_c, 0, 84, 114
1, 16190, Note_off_c, 0, 84, 114
1, 16202, Note_on_c, 0, 83, 112
1, 16232, Note_off_c, 0, 83, 112
1, 16237, Note_on_c, 0, 82, 94
1, 16265, Note_off_c, 0, 82, 94
1, 16293, Note_on_c, 0, 81, 114
1, 16339, Note_off_c, 0, 81, 114
1, 16348, Note_on_c, 0, 80, 120
1, 16374, Note_off_c, 0, 80, 120
1, 16384, Note_on_c, 0, 79, 110
1, 16423, Note_off_c, 0, 79, 110
1, 16440, Note_on_c, 0, 77, 115
1, 16479, Note_off_c, 0, 77, 115
1, 16491, Note_on_c, 0, 76, 108
1, 16533, Note_off_c, 0, 76, 108
1, 16557, Note_on_c, 0, 69, 88
1, 16593, Note_off_c, 0, 69, 88
1, 16597, Note_on_c, 0, 70, 103
1, 16629, Note_off_c, 0, 70, 103
1, 16632, Note_on_c, 0, 74, 117
1, 16668, Note_off_c, 0, 74, 117
1, 16670, Note_on_c, 0, 73, 102
1, 16699, Note_off_c, 0, 73, 102
1, 16705, Note_on_c, 0, 69, 96
1, 16736, Note_off_c, 0, 69, 96
1, 16761, Note_on_c, 0, 72, 110
1, 16823, Note_off_c, 0, 72, 110
1, 16835, Note_on_c, 0, 69, 99
1, 16867, Note_off_c, 0, 69, 99
1, 16884, Note_on_c, 0, 70, 101
1, 16945, Note_off_c, 0, 70, 101
1, 16987, Note_on_c, 0, 70, 107
1, 17028, Note_off_c, 0, 70, 107
1, 17045, Note_on_c, 0, 69, 110
1, 17089, Note_off_c, 0, 69, 110
1, 17098, Note_on_c, 0, 68, 106
1, 17124, Note_off_c, 0, 68, 106
1, 17127, Note_on_c, 0, 67, 103
1, 17147, Note_off_c, 0, 67, 103
1, 17158, Note_on_c, 0, 66, 103
1, 17192, Note_off_c, 0, 66, 103
1, 17195, Note_on_c, 0, 65, 111
1, 17221, Note_off_c, 0, 65, 111
1, 17230, Note_on_c, 0, 64, 100
1, 17266, Note_off_c, 0, 64, 100
1, 17284, Note_on_c, 0, 66, 94
1, 17313, Note_off_c, 0, 66, 94
1, 17321, Note_on_c, 0, 70, 104
1, 17355, Note_off_c, 0, 70, 104
1, 17369, Note_on_c, 0, 73, 112
1, 17609, Note_off_c, 0, 73, 112
1, 17624, Note_on_c, 0, 72, 114
1, 17651, Note_off_c, 0, 72, 114
1, 17654, Note_on_c, 0, 73, 112
1, 17695, Note_off_c, 0, 73, 112
1, 17702, Note_on_c, 0, 72, 115
1, 17732, Note_off_c, 0, 72, 115
1, 17745, Note_on_c, 0, 68, 107
1, 17784, Note_off_c, 0, 68, 107
1, 17820, Note_on_c, 0, 70, 109
1, 17909, Note_off_c, 0, 70, 109
1, 17935, Note_on_c, 0, 65, 89
1, 17975, Note_off_c, 0, 65, 89
1, 17992, Note_on_c, 0, 68, 106
1, 18025, Note_off_c, 0, 68, 106
1, 18029, Note_on_c, 0, 70, 108
1, 18049, Note_off_c, 0, 70, 108
1, 18059, Note_on_c, 0, 68, 110
1, 18101, Note_off_c, 0, 68, 110
1, 18120, Note_on_c, 0, 65, 112
1, 18173, Note_off_c, 0, 65, 112
1, 18199, Note_on_c, 0, 60, 94
1, 18290, Note_off_c, 0, 60, 94
1, 18321, Note_on_c, 0, 56, 105
1, 18396, Note_off_c, 0, 56, 105
1, 18411, Note_on_c, 0, 63, 107
1, 18504, Note_off_c, 0, 63, 107
1, 18517, Note_on_c, 0, 60, 88
1, 18555, Note_off_c, 0, 60, 88
1, 18560, Note_on_c, 0, 61, 93
1, 18619, Note_off_c, 0, 61, 93
1, 18621, Note_on_c, 0, 64, 89
1, 18645, Note_off_c, 0, 64, 89
1, 18650, Note_on_c, 0, 65, 101
1, 18682, Note_off_c, 0, 65, 101
1, 18696, Note_on_c, 0, 68, 110
1, 18748, Note_off_c, 0, 68, 110
1, 18769, Note_on_c, 0, 70, 111
1, 18923, Note_off_c, 0, 70, 111
1, 18976, Note_on_c, 0, 70, 105
1, 19080, Note_off_c, 0, 70, 105
1, 19084, Note_on_c, 0, 71, 108
1, 19327, Note_off_c, 0, 71, 108
1, 19362, Note_on_c, 0, 68, 110
1, 19456, Note_off_c, 0, 68, 110
1, 19474, Note_on_c, 0, 65, 89
1, 19512, Note_off_c, 0, 65, 89
1, 19524, Note_on_c, 0, 70, 96
1, 19713, Note_off_c, 0, 70, 96
1, 20425, Note_on_c, 0, 69, 114
1, 20482, Note_off_c, 0, 69, 114
1, 20490, Note_on_c, 0, 70, 107
1, 20521, Note_off_c, 0, 70, 107
1, 20543, Note_on_c, 0, 73, 97
1, 20578, Note_off_c, 0, 73, 97
1, 20595, Note_on_c, 0, 77, 111
1, 20638, Note_off_c, 0, 77, 111
1, 20672, Note_on_c, 0, 84, 119
1, 20793, Note_off_c, 0, 84, 119
1, 20804, Note_on_c, 0, 83, 106
1, 20859, Note_off_c, 0, 83, 106
1, 20870, Note_on_c, 0, 81, 117
1, 20981, Note_off_c, 0, 81, 117
1, 20996, Note_on_c, 0, 77, 110
1, 21051, Note_off_c, 0, 77, 110
1, 21064, Note_on_c, 0, 73, 113
1, 21175, Note_off_c, 0, 73, 113
1, 21187, Note_on_c, 0, 71, 90
1, 21221, Note_off_c, 0, 71, 90
1, 21250, Note_on_c, 0, 80, 122
1, 21350, Note_off_c, 0, 80, 122
1, 21359, Note_on_c, 0, 82, 113
1, 21429, Note_off_c, 0, 82, 113
1, 21449, Note_on_c, 0, 79, 113
1, 21534, Note_off_c, 0, 79, 113
1, 21543, Note_on_c, 0, 77, 113
1, 21606, Note_off_c, 0, 77, 113
1, 21616, Note_on_c, 0, 75, 110
1, 21710, Note_off_c, 0, 75, 110
1, 21720, Note_on_c, 0, 74, 114
1, 21798, Note_off_c, 0, 74, 114
1, 21804, Note_on_c, 0, 73, 107
1, 21910, Note_off_c, 0, 73, 107
1, 22010, Note_on_c, 0, 72, 97
1, 22095, Note_off_c, 0, 72, 97
1, 22111, Note_on_c, 0, 72, 104
1, 22366, Note_off_c, 0, 72, 104
1, 22412, Note_on_c, 0, 70, 108
1, 22505, Note_off_c, 0, 70, 108
1, 22518, Note_on_c, 0, 65, 90
1, 22565, Note_off_c, 0, 65, 90
1, 22582, Note_on_c, 0, 68, 104
1, 22611, Note_off_c, 0, 68, 104
1, 22626, Note_on_c, 0, 70, 102
1, 22641, Note_off_c, 0, 70, 102
1, 22656, Note_on_c, 0, 68, 103
1, 22689, Note_off_c, 0, 68, 103
1, 22701, Note_on_c, 0, 65, 102
1, 22740, Note_off_c, 0, 65, 102
1, 22882, Note_on_c, 0, 73, 99
1, 22931, Note_off_c, 0, 73, 99
1, 22945, Note_on_c, 0, 77, 115
1, 23059, Note_off_c, 0, 77, 115
1, 23081, Note_on_c, 0, 80, 120
1, 23228, Note_off_c, 0, 80, 120
1, 23720, Note_on_c, 0, 80, 118
1, 23830, Note_off_c, 0, 80, 118
1, 23906, Note_on_c, 0, 80, 117
1, 23999, Note_off_c, 0, 80, 117
1, 24093, Note_on_c, 0, 85, 122
1, 24370, Note_off_c, 0, 85, 122
1, 24404, Note_on_c, 0, 82, 110
1, 24514, Note_off_c, 0, 82, 110
1, 24590, Note_on_c, 0, 78, 111
1, 24679, Note_off_c, 0, 78, 111
1, 24696, Note_on_c, 0, 75, 107
1, 24769, Note_off_c, 0, 75, 107
1, 24871, Note_on_c, 0, 80, 118
1, 24975, Note_off_c, 0, 80, 118
1, 24982, Note_on_c, 0, 79, 112
1, 25030, Note_off_c, 0, 79, 112
1, 25053, Note_on_c, 0, 78, 113
1, 25167, Note_off_c, 0, 78, 113
1, 25187, Note_on_c, 0, 73, 81
1, 25218, Note_off_c, 0, 73, 81
1, 25236, Note_on_c, 0, 77, 114
1, 25350, Note_off_c, 0, 77, 114
1, 25443, Note_on_c, 0, 72, 93
1, 25554, Note_off_c, 0, 72, 93
1, 25563, Note_on_c, 0, 73, 92
1, 25804, Note_off_c, 0, 73, 92
1, 26385, Note_on_c, 0, 80, 120
1, 26492, Note_off_c, 0, 80, 120
1, 26555, Note_on_c, 0, 85, 122
1, 26655, Note_off_c, 0, 85, 122
1, 26714, Note_on_c, 0, 89, 113
1, 27049, Note_off_c, 0, 89, 113
1, 27073, Note_on_c, 0, 83, 90
1, 27109, Note_off_c, 0, 83, 90
1, 27143, Note_on_c, 0, 87, 105
1, 27255, Note_off_c, 0, 87, 105
1, 27279, Note_on_c, 0, 85, 116
1, 27370, Note_off_c, 0, 85, 116
1, 27531, Note_on_c, 0, 84, 107
1, 27564, Note_off_c, 0, 84, 107
1, 27569, Note_on_c, 0, 85, 117
1, 27611, Note_off_c, 0, 85, 117
1, 27615, Note_on_c, 0, 84, 111
1, 27648, Note_off_c, 0, 84, 111
1, 27651, Note_on_c, 0, 83, 117
1, 27740, Note_off_c, 0, 83, 117
1, 27742, Note_on_c, 0, 82, 110
1, 27821, Note_off_c, 0, 82, 110
1, 27840, Note_on_c, 0, 81, 119
1, 27909, Note_off_c, 0, 81, 119
1, 27913, Note_on_c, 0, 80, 118
1, 28013, Note_off_c, 0, 80, 118
1, 28018, Note_on_c, 0, 79, 108
1, 28075, Note_off_c, 0, 79, 108
1, 28092, Note_on_c, 0, 78, 113
1, 28204, Note_off_c, 0, 78, 113
1, 28219, Note_on_c, 0, 77, 113
1, 28282, Note_off_c, 0, 77, 113
1, 28301, Note_on_c, 0, 76, 99
1, 28322, Note_off_c, 0, 76, 99
1, 28326, Note_on_c, 0, 77, 112
1, 28353, Note_off_c, 0, 77, 112
1, 28358, Note_on_c, 0, 76, 103
1, 28380, Note_off_c, 0, 76, 103
1, 28383, Note_on_c, 0, 74, 112
1, 28465, Note_off_c, 0, 74, 112
1, 28488, Note_on_c, 0, 72, 111
1, 28595, Note_off_c, 0, 72, 111
1, 28598, Note_on_c, 0, 71, 105
1, 28663, Note_off_c, 0, 71, 105
1, 28674, Note_on_c, 0, 69, 107
1, 28704, Note_off_c, 0, 69, 107
1, 28705, Note_on_c, 0, 70, 109
1, 28768, Note_off_c, 0, 70, 109
1, 28798, Note_on_c, 0, 62, 90
1, 28828, Note_off_c, 0, 62, 90
1, 28874, Note_on_c, 0, 65, 95
1, 28971, Note_off_c, 0, 65, 95
1, 28979, Note_on_c, 0, 69, 115
1, 29062, Note_off_c, 0, 69, 115
1, 29068, Note_on_c, 0, 68, 102
1, 29149, Note_off_c, 0, 68, 102
1, 29172, Note_on_c, 0, 67, 111
1, 29227, Note_off_c, 0, 67, 111
1, 29237, Note_on_c, 0, 65, 104
1, 29336, Note_off_c, 0, 65, 104
1, 29452, Note_on_c, 0, 64, 93
1, 29489, Note_off_c, 0, 64, 93
1, 29499, Note_on_c, 0, 67, 95
1, 29535, Note_off_c, 0, 67, 95
1, 29541, Note_on_c, 0, 70, 110
1, 29592, Note_off_c, 0, 70, 110
1, 29613, Note_on_c, 0, 73, 113
1, 29659, Note_off_c, 0, 73, 113
1, 29669, Note_on_c, 0, 72, 106
1, 29711, Note_off_c, 0, 72, 106
1, 29728, Note_on_c, 0, 70, 108
1, 29789, Note_off_c, 0, 70, 108
1, 29804, Note_on_c, 0, 68, 107
1, 29905, Note_off_c, 0, 68, 107
1, 29914, Note_on_c, 0, 70, 111
1, 29992, Note_off_c, 0, 70, 111
1, 30046, Note_on_c, 0, 65, 82
1, 30095, Note_off_c, 0, 65, 82
1, 30102, Note_on_c, 0, 66, 90
1, 30164, Note_off_c, 0, 66, 90
1, 30185, Note_on_c, 0, 68, 99
1, 30359, Note_off_c, 0, 68, 99
1, 31315, Note_on_c, 0, 73, 115
1, 31343, Note_off_c, 0, 73, 115
1, 31346, Note_on_c, 0, 74, 112
1, 31382, Note_off_c, 0, 74, 112
1, 31387, Note_on_c, 0, 73, 110
1, 31424, Note_off_c, 0, 73, 110
1, 31430, Note_on_c, 0, 74, 110
1, 31468, Note_off_c, 0, 74, 110
1, 31483, Note_on_c, 0, 77, 108
1, 31525, Note_off_c, 0, 77, 108
1, 31544, Note_on_c, 0, 73, 103
1, 31569, Note_off_c, 0, 73, 103
1, 31588, Note_on_c, 0, 77, 106
1, 31608, Note_off_c, 0, 77, 106
1, 31623, Note_on_c, 0, 77, 116
1, 31658, Note_off_c, 0, 77, 116
1, 31679, Note_on_c, 0, 73, 112
1, 31717, Note_off_c, 0, 73, 112
1, 31718, Note_on_c, 0, 74, 109
1, 31739, Note_off_c, 0, 74, 109
1, 31742, Note_on_c, 0, 73, 106
1, 31763, Note_off_c, 0, 73, 106
1, 31773, Note_on_c, 0, 71, 102
1, 31821, Note_off_c, 0, 71, 102
1, 31823, Note_on_c, 0, 72, 102
1, 31854, Note_off_c, 0, 72, 102
1, 31859, Note_on_c, 0, 75, 105
1, 31901, Note_off_c, 0, 75, 105
1, 31918, Note_on_c, 0, 71, 109
1, 31959, Note_off_c, 0, 71, 109
1, 31964, Note_on_c, 0, 72, 107
1, 31994, Note_off_c, 0, 72, 107
1, 31999, Note_on_c, 0, 75, 110
1, 32041, Note_off_c, 0, 75, 110
1, 32056, Note_on_c, 0, 72, 99
1, 32083, Note_off_c, 0, 72, 99
1, 32097, Note_on_c, 0, 70, 98
1, 32131, Note_off_c, 0, 70, 98
1, 32137, Note_on_c, 0, 69, 103
1, 32183, Note_off_c, 0, 69, 103
1, 32191, Note_on_c, 0, 70, 95
1, 32227, Note_off_c, 0, 70, 95
1, 32231, Note_on_c, 0, 74, 108
1, 32275, Note_off_c, 0, 74, 108
1, 32298, Note_on_c, 0, 69, 98
1, 32330, Note_off_c, 0, 69, 98
1, 32334, Note_on_c, 0, 70, 102
1, 32357, Note_off_c, 0, 70, 102
1, 32367, Note_on_c, 0, 74, 104
1, 32401, Note_off_c, 0, 74, 104
1, 32406, Note_on_c, 0, 70, 99
1, 32437, Note_off_c, 0, 70, 99
1, 32442, Note_on_c, 0, 69, 100
1, 32455, Note_off_c, 0, 69, 100
1, 32470, Note_on_c, 0, 68, 101
1, 32512, Note_off_c, 0, 68, 101
1, 32518, Note_on_c, 0, 67, 100
1, 32561, Note_off_c, 0, 67, 100
1, 32589, Note_on_c, 0, 72, 102
1, 32652, Note_off_c, 0, 72, 102
1, 32661, Note_on_c, 0, 68, 99
1, 32694, Note_off_c, 0, 68, 99
1, 32698, Note_on_c, 0, 69, 94
1, 32719, Note_off_c, 0, 69, 94
1, 32726, Note_on_c, 0, 72, 106
1, 32779, Note_off_c, 0, 72, 106
1, 32812, Note_on_c, 0, 68, 99
1, 32873, Note_off_c, 0, 68, 99
1, 32888, Note_on_c, 0, 70, 105
1, 32925, Note_off_c, 0, 70, 105
1, 32945, Note_on_c, 0, 72, 109
1, 32980, Note_off_c, 0, 72, 109
1, 32985, Note_on_c, 0, 73, 110
1, 33011, Note_off_c, 0, 73, 110
1, 33016, Note_on_c, 0, 74, 111
1, 33048, Note_off_c, 0, 74, 111
1, 33060, Note_on_c, 0, 75, 111
1, 33101, Note_off_c, 0, 75, 111
1, 33109, Note_on_c, 0, 76, 117
1, 33156, Note_off_c, 0, 76, 117
1, 33166, Note_on_c, 0, 77, 113
1, 33254, Note_off_c, 0, 77, 113
1, 33266, Note_on_c, 0, 73, 112
1, 33322, Note_off_c, 0, 73, 112
1, 33353, Note_on_c, 0, 72, 101
1, 33459, Note_off_c, 0, 72, 101
1, 33529, Note_on_c, 0, 75, 107
1, 33567, Note_off_c, 0, 75, 107
1, 33572, Note_on_c, 0, 77, 105
1, 33617, Note_off_c, 0, 77, 105
1, 33627, Note_on_c, 0, 75, 83
1, 33655, Note_off_c, 0, 75, 83
1, 33663, Note_on_c, 0, 73, 107
1, 33714, Note_off_c, 0, 73, 107
1, 33751, Note_on_c, 0, 70, 107
1, 33817, Note_off_c, 0, 70, 107
1, 33916, Note_on_c, 0, 72, 110
1, 33950, Note_off_c, 0, 72, 110
1, 33955, Note_on_c, 0, 73, 110
1, 33988, Note_off_c, 0, 73, 110
1, 33994, Note_on_c, 0, 72, 109
1, 34019, Note_off_c, 0, 72, 109
1, 34031, Note_on_c, 0, 71, 107
1, 34108, Note_off_c, 0, 71, 107
1, 34118, Note_on_c, 0, 70, 107
1, 34222, Note_off_c, 0, 70, 107
1, 34227, Note_on_c, 0, 69, 110
1, 34285, Note_off_c, 0, 69, 110
1, 34302, Note_on_c, 0, 68, 101
1, 34383, Note_off_c, 0, 68, 101
1, 34400, Note_on_c, 0, 67, 9
1, 34458, Note_off_c, 0, 67, 9
1, 34498, Note_on_c, 0, 66, 94
1, 34570, Note_off_c, 0, 66, 94
1, 34605, Note_on_c, 0, 70, 116
1, 34663, Note_off_c, 0, 70, 116
1, 34683, Note_on_c, 0, 65, 106
1, 34834, Note_off_c, 0, 65, 106
1, 34849, Note_on_c, 0, 63, 102
1, 34960, Note_off_c, 0, 63, 102
1, 34971, Note_on_c, 0, 68, 95
1, 35266, Note_off_c, 0, 68, 95
1, 35839, Note_on_c, 0, 80, 122
1, 35941, Note_off_c, 0, 80, 122
1, 36022, Note_on_c, 0, 82, 114
1, 36160, Note_off_c, 0, 82, 114
1, 36234, Note_on_c, 0, 84, 119
1, 36344, Note_off_c, 0, 84, 119
1, 36375, Note_on_c, 0, 85, 123
1, 36490, Note_off_c, 0, 85, 123
1, 36543, Note_on_c, 0, 87, 111
1, 36639, Note_off_c, 0, 87, 111
1, 36706, Note_on_c, 0, 84, 113
1, 36792, Note_off_c, 0, 84, 113
1, 36857, Note_on_c, 0, 78, 97
1, 36922, Note_off_c, 0, 78, 97
1, 36963, Note_on_c, 0, 86, 121
1, 37078, Note_off_c, 0, 86, 121
1, 37093, Note_on_c, 0, 83, 120
1, 37218, Note_off_c, 0, 83, 120
1, 37640, Note_on_c, 0, 85, 124
1, 37674, Note_off_c, 0, 85, 124
1, 37682, Note_on_c, 0, 86, 123
1, 37745, Note_off_c, 0, 86, 123
1, 37752, Note_on_c, 0, 85, 127
1, 37891, Note_off_c, 0, 85, 127
1, 37921, Note_on_c, 0, 83, 118
1, 38002, Note_off_c, 0, 83, 118
1, 38017, Note_on_c, 0, 85, 123
1, 38097, Note_off_c, 0, 85, 123
1, 38101, Note_on_c, 0, 84, 113
1, 38179, Note_off_c, 0, 84, 113
1, 38208, Note_on_c, 0, 82, 116
1, 38268, Note_off_c, 0, 82, 116
1, 38283, Note_on_c, 0, 80, 123
1, 38385, Note_off_c, 0, 80, 123
1, 38392, Note_on_c, 0, 79, 115
1, 38462, Note_off_c, 0, 79, 115
1, 38469, Note_on_c, 0, 78, 118
1, 38571, Note_off_c, 0, 78, 118
1, 38650, Note_on_c, 0, 73, 109
1, 38758, Note_off_c, 0, 73, 109
1, 38786, Note_on_c, 0, 77, 115
1, 39154, Note_off_c, 0, 77, 115
1, 39159, Note_on_c, 0, 78, 115
1, 39229, Note_off_c, 0, 78, 115
1, 39241, Note_on_c, 0, 77, 115
1, 39335, Note_off_c, 0, 77, 115
1, 39370, Note_on_c, 0, 68, 84
1, 39419, Note_off_c, 0, 68, 84
1, 39444, Note_on_c, 0, 72, 91
1, 39538, Note_off_c, 0, 72, 91
1, 39545, Note_on_c, 0, 75, 114
1, 39604, Note_off_c, 0, 75, 114
1, 39622, Note_on_c, 0, 74, 109
1, 39745, Note_off_c, 0, 74, 109
1, 39765, Note_on_c, 0, 72, 86
1, 39800, Note_off_c, 0, 72, 86
1, 39807, Note_on_c, 0, 73, 119
1, 39905, Note_off_c, 0, 73, 119
1, 39947, Note_on_c, 0, 80, 119
1, 40057, Note_off_c, 0, 80, 119
1, 40579, Note_on_c, 0, 67, 104
1, 40625, Note_off_c, 0, 67, 104
1, 40659, Note_on_c, 0, 74, 112
1, 40696, Note_off_c, 0, 74, 112
1, 40726, Note_on_c, 0, 79, 115
1, 40799, Note_off_c, 0, 79, 115
1, 40846, Note_on_c, 0, 78, 114
1, 40925, Note_off_c, 0, 78, 114
1, 40967, Note_on_c, 0, 74, 113
1, 41039, Note_off_c, 0, 74, 113
1, 41054, Note_on_c, 0, 77, 112
1, 41122, Note_off_c, 0, 77, 112
1, 41210, Note_on_c, 0, 80, 89
1, 41244, Note_off_c, 0, 80, 89
1, 41245, Note_on_c, 0, 83, 111
1, 41291, Note_off_c, 0, 83, 111
1, 41302, Note_on_c, 0, 85, 123
1, 41372, Note_off_c, 0, 85, 123
1, 41398, Note_on_c, 0, 84, 114
1, 41443, Note_off_c, 0, 84, 114
1, 41448, Note_on_c, 0, 82, 110
1, 41500, Note_off_c, 0, 82, 110
1, 41508, Note_on_c, 0, 80, 122
1, 41555, Note_off_c, 0, 80, 122
1, 41563, Note_on_c, 0, 79, 108
1, 41589, Note_off_c, 0, 79, 108
1, 41592, Note_on_c, 0, 80, 114
1, 41644, Note_off_c, 0, 80, 114
1, 41659, Note_on_c, 0, 82, 114
1, 41793, Note_off_c, 0, 82, 114
1, 41822, Note_on_c, 0, 77, 117
1, 41885, Note_off_c, 0, 77, 117
1, 41890, Note_on_c, 0, 80, 109
1, 41941, Note_off_c, 0, 80, 109
1, 41946, Note_on_c, 0, 82, 100
1, 41969, Note_off_c, 0, 82, 100
1, 41979, Note_on_c, 0, 80, 100
1, 42009, Note_off_c, 0, 80, 100
1, 42011, Note_on_c, 0, 77, 117
1, 42074, Note_off_c, 0, 77, 117
1, 42096, Note_on_c, 0, 78, 119
1, 42182, Note_off_c, 0, 78, 119
1, 42195, Note_on_c, 0, 76, 112
1, 42260, Note_off_c, 0, 76, 112
1, 42267, Note_on_c, 0, 77, 116
1, 42369, Note_off_c, 0, 77, 116
1, 42394, Note_on_c, 0, 68, 81
1, 42444, Note_off_c, 0, 68, 81
1, 42447, Note_on_c, 0, 72, 91
1, 42560, Note_off_c, 0, 72, 91
1, 42567, Note_on_c, 0, 75, 118
1, 42641, Note_off_c, 0, 75, 118
1, 42658, Note_on_c, 0, 74, 115
1, 42764, Note_off_c, 0, 74, 115
1, 42775, Note_on_c, 0, 72, 113
1, 42838, Note_off_c, 0, 72, 113
1, 42839, Note_on_c, 0, 73, 113
1, 42938, Note_off_c, 0, 73, 113
1, 42947, Note_on_c, 0, 71, 84
1, 43018, Note_off_c, 0, 71, 84
1, 43025, Note_on_c, 0, 72, 109
1, 43075, Note_off_c, 0, 72, 109
1, 43082, Note_on_c, 0, 74, 107
1, 43115, Note_off_c, 0, 74, 107
1, 43115, Note_on_c, 0, 72, 113
1, 43146, Note_off_c, 0, 72, 113
1, 43155, Note_on_c, 0, 71, 115
1, 43227, Note_off_c, 0, 71, 115
1, 43231, Note_on_c, 0, 70, 111
1, 43328, Note_off_c, 0, 70, 111
1, 43339, Note_on_c, 0, 69, 116
1, 43407, Note_off_c, 0, 69, 116
1, 43423, Note_on_c, 0, 68, 117
1, 43517, Note_off_c, 0, 68, 117
1, 43546, Note_on_c, 0, 63, 91
1, 43598, Note_off_c, 0, 63, 91
1, 43620, Note_on_c, 0, 65, 105
1, 43711, Note_off_c, 0, 65, 105
1, 43727, Note_on_c, 0, 68, 117
1, 43795, Note_off_c, 0, 68, 117
1, 43852, Note_on_c, 0, 65, 93
1, 43885, Note_off_c, 0, 65, 93
1, 43897, Note_on_c, 0, 68, 101
1, 43937, Note_off_c, 0, 68, 101
1, 43943, Note_on_c, 0, 72, 114
1, 43985, Note_off_c, 0, 72, 114
1, 44016, Note_on_c, 0, 76, 116
1, 44113, Note_off_c, 0, 76, 116
1, 44123, Note_on_c, 0, 74, 116
1, 44208, Note_off_c, 0, 74, 116
1, 44216, Note_on_c, 0, 75, 114
1, 44300, Note_off_c, 0, 75, 114
1, 44317, Note_on_c, 0, 72, 116
1, 44378, Note_off_c, 0, 72, 116
1, 44401, Note_on_c, 0, 68, 108
1, 44496, Note_off_c, 0, 68, 108
1, 44504, Note_on_c, 0, 65, 95
1, 44547, Note_off_c, 0, 65, 95
1, 44573, Note_on_c, 0, 73, 109
1, 44610, Note_off_c, 0, 73, 109
1, 44613, Note_on_c, 0, 74, 109
1, 44649, Note_off_c, 0, 74, 109
1, 44654, Note_on_c, 0, 73, 105
1, 44685, Note_off_c, 0, 73, 105
1, 44689, Note_on_c, 0, 71, 104
1, 44735, Note_off_c, 0, 71, 104
1, 44783, Note_on_c, 0, 68, 101
1, 44860, Note_off_c, 0, 68, 101
1, 44894, Note_on_c, 0, 65, 91
1, 44929, Note_off_c, 0, 65, 91
1, 44959, Note_on_c, 0, 70, 107
1, 45071, Note_off_c, 0, 70, 107
1, 45079, Note_on_c, 0, 68, 105
1, 45150, Note_off_c, 0, 68, 105
1, 45155, Note_on_c, 0, 67, 94
1, 45200, Note_off_c, 0, 67, 94
1, 45203, Note_on_c, 0, 68, 77
1, 45249, Note_off_c, 0, 68, 77
1, 45257, Note_on_c, 0, 72, 114
1, 45310, Note_off_c, 0, 72, 114
1, 45343, Note_on_c, 0, 77, 119
1, 45432, Note_off_c, 0, 77, 119
1, 45444, Note_on_c, 0, 76, 91
1, 45502, Note_off_c, 0, 76, 91
1, 45561, Note_on_c, 0, 75, 81
1, 45606, Note_off_c, 0, 75, 81
1, 45623, Note_on_c, 0, 80, 97
1, 45680, Note_off_c, 0, 80, 97
1, 45716, Note_on_c, 0, 84, 119
1, 45835, Note_off_c, 0, 84, 119
1, 45850, Note_on_c, 0, 81, 105
1, 46015, Note_off_c, 0, 81, 105
1, 47068, Note_on_c, 0, 83, 90
1, 47140, Note_off_c, 0, 83, 90
1, 47146, Note_on_c, 0, 90, 120
1, 47604, Note_off_c, 0, 90, 120
1, 47618, Note_on_c, 0, 85, 119
1, 47690, Note_off_c, 0, 85, 119
1, 47730, Note_on_c, 0, 82, 109
1, 47782, Note_off_c, 0, 82, 109
1, 47808, Note_on_c, 0, 80, 115
1, 47903, Note_off_c, 0, 80, 115
1, 47908, Note_on_c, 0, 79, 109
1, 47965, Note_off_c, 0, 79, 109
1, 47978, Note_on_c, 0, 78, 114
1, 48078, Note_off_c, 0, 78, 114
1, 48098, Note_on_c, 0, 77, 110
1, 48161, Note_off_c, 0, 77, 110
1, 48195, Note_on_c, 0, 75, 104
1, 48268, Note_off_c, 0, 75, 104
1, 48286, Note_on_c, 0, 73, 108
1, 48346, Note_off_c, 0, 73, 108
1, 48380, Note_on_c, 0, 72, 100
1, 48450, Note_off_c, 0, 72, 100
1, 48473, Note_on_c, 0, 70, 102
1, 48527, Note_off_c, 0, 70, 102
1, 48550, Note_on_c, 0, 68, 103
1, 48582, Note_off_c, 0, 68, 103
1, 48592, Note_on_c, 0, 70, 100
1, 48607, Note_off_c, 0, 70, 100
1, 48617, Note_on_c, 0, 68, 99
1, 48653, Note_off_c, 0, 68, 99
1, 48654, Note_on_c, 0, 67, 103
1, 48708, Note_off_c, 0, 67, 103
1, 48716, Note_on_c, 0, 66, 110
1, 48842, Note_off_c, 0, 66, 110
1, 48939, Note_on_c, 0, 68, 105
1, 49014, Note_off_c, 0, 68, 105
1, 49024, Note_on_c, 0, 66, 99
1, 49044, Note_off_c, 0, 66, 99
1, 49048, Note_on_c, 0, 65, 98
1, 49088, Note_off_c, 0, 65, 98
1, 49107, Note_on_c, 0, 63, 99
1, 49217, Note_off_c, 0, 63, 99
1, 49233, Note_on_c, 0, 65, 106
1, 49307, Note_off_c, 0, 65, 106
1, 49325, Note_on_c, 0, 66, 100
1, 49403, Note_off_c, 0, 66, 100
1, 49403, End_track
0, 0, End_of_file
