0, 0, Header, 1, 1, 192
1, 0, Start_track
1, 0, Title_t, "Melody"
1, 0, Tempo, 606060
1, 0, Key_signature, -5, "major"
1, 0, Time_signature, 4, 2, 24, 8
1, 1770, Note_on_c, 0, 56, 110
1, 1878, Note_off_c, 0, 56, 110
1, 1887, Note_on_c, 0, 58, 111
1, 2278, Note_off_c, 0, 58, 111
1, 2316, Note_on_c, 0, 56, 111
1, 2374, Note_off_c, 0, 56, 111
1, 2374, Note_on_c, 0, 54, 104
1, 2423, Note_off_c, 0, 54, 104
1, 2435, Note_on_c, 0, 53, 104
1, 2473, Note_off_c, 0, 53, 104
1, 2485, Note_on_c, 0, 51, 102
1, 2523, Note_off_c, 0, 51, 102
1, 2548, Note_on_c, 0, 49, 102
1, 2610, Note_off_c, 0, 49, 102
1, 2633, Note_on_c, 0, 47, 97
1, 2794, Note_off_c, 0, 47, 97
1, 2865, Note_on_c, 0, 46, 102
1, 2914, Note_off_c, 0, 46, 102
1, 2941, Note_on_c, 0, 49, 101
1, 2998, Note_off_c, 0, 49, 101
1, 3012, Note_on_c, 0, 51, 104
1, 3074, Note_off_c, 0, 51, 104
1, 3077, Note_on_c, 0, 54, 99
1, 3126, Note_off_c, 0, 54, 99
1, 3126, Note_on_c, 0, 58, 111
1, 3192, Note_off_c, 0, 58, 111
1, 3208, Note_on_c, 0, 52, 86
1, 3419, Note_off_c, 0, 52, 86
1, 3477, Note_on_c, 0, 58, 113
1, 3522, Note_off_c, 0, 58, 113
1, 3527, Note_on_c, 0, 57, 108
1, 3589, Note_off_c, 0, 57, 108
1, 3598, Note_on_c, 0, 56, 108
1, 3656, Note_off_c, 0, 56, 108
1, 3656, Note_on_c, 0, 49, 103
1, 3716, Note_off_c, 0, 49, 103
1, 3739, Note_on_c, 0, 53, 82
1, 3880, Note_off_c, 0, 53, 82
1, 4071, Note_on_c, 0, 56, 127
1, 4157, Note_off_c, 0, 56, 127
1, 4160, Note_on_c, 0, 61, 124
1, 4235, Note_off_c, 0, 61, 124
1, 4239, Note_on_c, 0, 63, 108
1, 4272, Note_off_c, 0, 63, 108
1, 4279, Note_on_c, 0, 65, 101
1, 4333, Note_off_c, 0, 65, 101
1, 4353, Note_on_c, 0, 59, 88
1, 4630, Note_off_c, 0, 59, 88
1, 4652, Note_on_c, 0, 56, 104
1, 4721, Note_off_c, 0, 56, 104
1, 4735, Note_on_c, 0, 57, 104
1, 4814, Note_off_c, 0, 57, 104
1, 4852, Note_on_c, 0, 50, 91
1, 5070, Note_off_c, 0, 50, 91
1, 5095, Note_on_c, 0, 49, 99
1, 5220, Note_off_c, 0, 49, 99
1, 5231, Note_on_c, 0, 58, 84
1, 5446, Note_off_c, 0, 58, 84
1, 5603, Note_on_c, 0, 51, 104
1, 5656, Note_off_c, 0, 51, 104
1, 5661, Note_on_c, 0, 54, 104
1, 5798, Note_off_c, 0, 54, 104
1, 5809, Note_on_c, 0, 49, 107
1, 5860, Note_off_c, 0, 49, 107
1, 5883, Note_on_c, 0, 51, 106
1, 5936, Note_off_c, 0, 51, 106
1, 5936, Note_on_c, 0, 54, 110
1, 5998, Note_off_c, 0, 54, 110
1, 6010, Note_on_c, 0, 49, 99
1, 6057, Note_off_c, 0, 49, 99
1, 6069, Note_on_c, 0, 51, 93
1, 6216, Note_off_c, 0, 51, 93
1, 6250, Note_on_c, 0, 55, 104
1, 6294, Note_off_c, 0, 55, 104
1, 6319, Note_on_c, 0, 49, 96
1, 6361, Note_off_c, 0, 49, 96
1, 6379, Note_on_c, 0, 52, 81
1, 6507, Note_off_c, 0, 52, 81
1, 6540, Note_on_c, 0, 55, 103
1, 6595, Note_off_c, 0, 55, 103
1, 6604, Note_on_c, 0, 49, 107
1, 6672, Note_off_c, 0, 49, 107
1, 6674, Note_on_c, 0, 51, 106
1, 6711, Note_off_c, 0, 51, 106
1, 6713, Note_on_c, 0, 52, 102
1, 6755, Note_off_c, 0, 52, 102
1, 6758, Note_on_c, 0, 53, 97
1, 6813, Note_off_c, 0, 53, 97
1, 6820, Note_on_c, 0, 56, 94
1, 6888, Note_off_c, 0, 56, 94
1, 6888, Note_on_c, 0, 49, 100
1, 6943, Note_off_c, 0, 49, 100
1, 6966, Note_on_c, 0, 53, 88
1, 7171, Note_off_c, 0, 53, 88
1, 7499, Note_on_c, 0, 54, 111
1, 7559, Note_off_c, 0, 54, 111
1, 7564, Note_on_c, 0, 56, 112
1, 7687, Note_off_c, 0, 56, 112
1, 7698, Note_on_c, 0, 61, 124
1, 7764, Note_off_c, 0, 61, 124
1, 7819, Note_on_c, 0, 54, 102
1, 7859, Note_off_c, 0, 54, 102
1, 7864, Note_on_c, 0, 55, 101
1, 7965, Note_off_c, 0, 55, 101
1, 7985, Note_on_c, 0, 61, 119
1, 8060, Note_off_c, 0, 61, 119
1, 8094, Note_on_c, 0, 54, 93
1, 8401, Note_off_c, 0, 54, 93
1, 8482, Note_on_c, 0, 50, 95
1, 8535, Note_off_c, 0, 50, 95
1, 8555, Note_on_c, 0, 53, 107
1, 8580, Note_off_c, 0, 53, 107
1, 8600, Note_on_c, 0, 51, 104
1, 8638, Note_off_c, 0, 51, 104
1, 8639, Note_on_c, 0, 58, 94
1, 8890, Note_off_c, 0, 58, 94
1, 9044, Note_on_c, 0, 50, 121
1, 9088, Note_off_c, 0, 50, 121
1, 9106, Note_on_c, 0, 51, 110
1, 9205, Note_off_c, 0, 51, 110
1, 9232, Note_on_c, 0, 49, 107
1, 9285, Note_off_c, 0, 49, 107
1, 9299, Note_on_c, 0, 50, 111
1, 9356, Note_off_c, 0, 50, 111
1, 9357, Note_on_c, 0, 57, 104
1, 9572, Note_off_c, 0, 57, 104
1, 9783, Note_on_c, 0, 49, 101
1, 9961, Note_off_c, 0, 49, 101
1, 9979, Note_on_c, 0, 53, 111
1, 10043, Note_off_c, 0, 53, 111
1, 10066, Note_on_c, 0, 54, 117
1, 10113, Note_off_c, 0, 54, 117
1, 10120, Note_on_c, 0, 49, 107
1, 10167, Note_off_c, 0, 49, 107
1, 10183, Note_on_c, 0, 54, 110
1, 10245, Note_off_c, 0, 54, 110
1, 10257, Note_on_c, 0, 55, 104
1, 10291, Note_off_c, 0, 55, 104
1, 10318, Note_on_c, 0, 49, 105
1, 10376, Note_off_c, 0, 49, 105
1, 10390, Note_on_c, 0, 54, 101
1, 10417, Note_off_c, 0, 54, 101
1, 10426, Note_on_c, 0, 56, 90
1, 10953, Note_off_c, 0, 56, 90
1, 10953, End_track
0, 0, End_of_file
