0, 0, Header, 1, 1, 840
1, 0, Start_track
1, 0, Title_t, "Melody"
1, 0, Tempo, 600000
1, 0, Key_signature, -5, "major"
1, 0, Time_signature, 4, 2, 24, 8
1, 7771, Note_on_c, 0, 56, 126
1, 7949, Note_off_c, 0, 56, 126
1, 8014, Note_on_c, 0, 61, 124
1, 8233, Note_off_c, 0, 61, 124
1, 8279, Note_on_c, 0, 64, 112
1, 8370, Note_off_c, 0, 64, 112
1, 8396, Note_on_c, 0, 65, 119
1, 8554, Note_off_c, 0, 65, 119
1, 8637, Note_on_c, 0, 68, 121
1, 8832, Note_off_c, 0, 68, 121
1, 8880, Note_on_c, 0, 61, 117
1, 9148, Note_off_c, 0, 61, 117
1, 9391, Note_on_c, 0, 61, 121
1, 9691, Note_off_c, 0, 61, 121
1, 9717, Note_on_c, 0, 61, 106
1, 9934, Note_off_c, 0, 61, 106
1, 9944, Note_on_c, 0, 65, 97
1, 11049, Note_off_c, 0, 65, 97
1, 11160, Note_on_c, 0, 68, 103
1, 11387, Note_off_c, 0, 68, 103
1, 11435, Note_on_c, 0, 65, 104
1, 11605, Note_off_c, 0, 65, 104
1, 11710, Note_on_c, 0, 61, 114
1, 11978, Note_off_c, 0, 61, 114
1, 12026, Note_on_c, 0, 59, 107
1, 12253, Note_off_c, 0, 59, 107
1, 12383, Note_on_c, 0, 58, 106
1, 12643, Note_off_c, 0, 58, 106
1, 12773, Note_on_c, 0, 58, 109
1, 13098, Note_off_c, 0, 58, 109
1, 13228, Note_on_c, 0, 61, 104
1, 13512, Note_off_c, 0, 61, 104
1, 13527, Note_on_c, 0, 64, 100
1, 14559, Note_off_c, 0, 64, 100
1, 14672, Note_on_c, 0, 68, 114
1, 14915, Note_off_c, 0, 68, 114
1, 14996, Note_on_c, 0, 64, 112
1, 15191, Note_off_c, 0, 64, 112
1, 15264, Note_on_c, 0, 61, 115
1, 15491, Note_on_c, 0, 58, 108
1, 15491, Note_off_c, 0, 61, 115
1, 15751, Note_off_c, 0, 58, 108
1, 15921, Note_on_c, 0, 63, 113
1, 16124, Note_off_c, 0, 63, 113
1, 16335, Note_on_c, 0, 63, 119
1, 16611, Note_off_c, 0, 63, 119
1, 16659, Note_on_c, 0, 58, 93
1, 17512, Note_off_c, 0, 58, 93
1, 18479, Note_on_c, 0, 56, 119
1, 18763, Note_off_c, 0, 56, 119
1, 18884, Note_on_c, 0, 54, 113
1, 19103, Note_off_c, 0, 54, 113
1, 19176, Note_on_c, 0, 53, 108
1, 19338, Note_off_c, 0, 53, 108
1, 19468, Note_on_c, 0, 53, 110
1, 19671, Note_off_c, 0, 53, 110
1, 19694, Note_on_c, 0, 61, 102
1, 19946, Note_off_c, 0, 61, 102
1, 19978, Note_on_c, 0, 63, 104
1, 20368, Note_off_c, 0, 63, 104
1, 20368, Note_on_c, 0, 59, 110
1, 20611, Note_off_c, 0, 59, 110
1, 20611, Note_on_c, 0, 56, 99
1, 20749, Note_off_c, 0, 56, 99
1, 20749, Note_on_c, 0, 58, 109
1, 20879, Note_off_c, 0, 58, 109
1, 20935, Note_on_c, 0, 56, 103
1, 21097, Note_off_c, 0, 56, 103
1, 21121, Note_on_c, 0, 51, 103
1, 21251, Note_off_c, 0, 51, 103
1, 21275, Note_on_c, 0, 54, 102
1, 21445, Note_off_c, 0, 54, 102
1, 21477, Note_on_c, 0, 53, 81
1, 22192, Note_off_c, 0, 53, 81
1, 22915, Note_on_c, 0, 52, 113
1, 23077, Note_off_c, 0, 52, 113
1, 23109, Note_on_c, 0, 54, 106
1, 23263, Note_off_c, 0, 54, 106
1, 23279, Note_on_c, 0, 56, 118
1, 23490, Note_off_c, 0, 56, 118
1, 23530, Note_on_c, 0, 58, 115
1, 23684, Note_off_c, 0, 58, 115
1, 23692, Note_on_c, 0, 61, 120
1, 23887, Note_off_c, 0, 61, 120
1, 23919, Note_on_c, 0, 63, 127
1, 24073, Note_off_c, 0, 63, 127
1, 24138, Note_on_c, 0, 64, 116
1, 24316, Note_off_c, 0, 64, 116
1, 24381, Note_on_c, 0, 66, 98
1, 24494, Note_off_c, 0, 66, 98
1, 24518, Note_on_c, 0, 68, 118
1, 24688, Note_off_c, 0, 68, 118
1, 24761, Note_on_c, 0, 63, 123
1, 24980, Note_off_c, 0, 63, 123
1, 24996, Note_on_c, 0, 61, 115
1, 25166, Note_off_c, 0, 61, 115
1, 25198, Note_on_c, 0, 58, 109
1, 25393, Note_off_c, 0, 58, 109
1, 25423, Note_on_c, 0, 62, 104
1, 25593, Note_off_c, 0, 62, 104
1, 25611, Note_on_c, 0, 63, 112
1, 26177, Note_off_c, 0, 63, 112
1, 26225, Note_on_c, 0, 61, 108
1, 26352, Note_off_c, 0, 61, 108
1, 26364, Note_on_c, 0, 63, 108
1, 26453, Note_off_c, 0, 63, 108
1, 26495, Note_on_c, 0, 62, 114
1, 26610, Note_off_c, 0, 62, 114
1, 26630, Note_on_c, 0, 61, 116
1, 26825, Note_off_c, 0, 61, 116
1, 26825, Note_on_c, 0, 58, 108
1, 27011, Note_off_c, 0, 58, 108
1, 27035, Note_on_c, 0, 56, 108
1, 27213, Note_off_c, 0, 56, 108
1, 27261, Note_on_c, 0, 54, 107
1, 27456, Note_off_c, 0, 54, 107
1, 27464, Note_on_c, 0, 56, 108
1, 27675, Note_off_c, 0, 56, 108
1, 27886, Note_on_c, 0, 51, 103
1, 28162, Note_off_c, 0, 51, 103
1, 28292, Note_on_c, 0, 58, 103
1, 28690, Note_off_c, 0, 58, 103
1, 28779, Note_on_c, 0, 57, 115
1, 28949, Note_off_c, 0, 57, 115
1, 29095, Note_on_c, 0, 56, 96
1, 29696, Note_off_c, 0, 56, 96
1, 30313, Note_on_c, 0, 53, 116
1, 30548, Note_off_c, 0, 53, 116
1, 30604, Note_on_c, 0, 49, 115
1, 30807, Note_off_c, 0, 49, 115
1, 30863, Note_on_c, 0, 48, 113
1, 31114, Note_off_c, 0, 48, 113
1, 31154, Note_on_c, 0, 52, 107
1, 31365, Note_off_c, 0, 52, 107
1, 31373, Note_on_c, 0, 56, 121
1, 31673, Note_off_c, 0, 56, 121
1, 31747, Note_on_c, 0, 58, 108
1, 31861, Note_off_c, 0, 58, 108
1, 31867, Note_on_c, 0, 60, 101
1, 32070, Note_off_c, 0, 60, 101
1, 32110, Note_on_c, 0, 58, 111
1, 32337, Note_off_c, 0, 58, 111
1, 32377, Note_on_c, 0, 53, 110
1, 32604, Note_off_c, 0, 53, 110
1, 32612, Note_on_c, 0, 56, 111
1, 32701, Note_off_c, 0, 56, 111
1, 32725, Note_on_c, 0, 58, 109
1, 32838, Note_off_c, 0, 58, 109
1, 32862, Note_on_c, 0, 53, 91
1, 32959, Note_off_c, 0, 53, 91
1, 33015, Note_on_c, 0, 56, 99
1, 33299, Note_off_c, 0, 56, 99
1, 33924, Note_on_c, 0, 51, 115
1, 34289, Note_off_c, 0, 51, 115
1, 34305, Note_on_c, 0, 50, 104
1, 34524, Note_off_c, 0, 50, 104
1, 34572, Note_on_c, 0, 53, 109
1, 34750, Note_off_c, 0, 53, 109
1, 34831, Note_on_c, 0, 56, 118
1, 35107, Note_off_c, 0, 56, 118
1, 35163, Note_on_c, 0, 58, 106
1, 35284, Note_off_c, 0, 58, 106
1, 35349, Note_on_c, 0, 59, 105
1, 35633, Note_off_c, 0, 59, 105
1, 35657, Note_on_c, 0, 57, 109
1, 35860, Note_off_c, 0, 57, 109
1, 35908, Note_on_c, 0, 58, 108
1, 36159, Note_off_c, 0, 58, 108
1, 36207, Note_on_c, 0, 63, 102
1, 36784, Note_off_c, 0, 63, 102
1, 37279, Note_on_c, 0, 58, 123
1, 37514, Note_off_c, 0, 58, 123
1, 37554, Note_on_c, 0, 62, 117
1, 37797, Note_off_c, 0, 62, 117
1, 37870, Note_on_c, 0, 66, 94
1, 38113, Note_off_c, 0, 66, 94
1, 38153, Note_on_c, 0, 70, 105
1, 38348, Note_off_c, 0, 70, 105
1, 38429, Note_on_c, 0, 67, 96
1, 38526, Note_off_c, 0, 67, 96
1, 38542, Note_on_c, 0, 66, 97
1, 38737, Note_off_c, 0, 66, 97
1, 38737, Note_on_c, 0, 62, 113
1, 39013, Note_off_c, 0, 62, 113
1, 39013, Note_on_c, 0, 58, 110
1, 39264, Note_on_c, 0, 61, 118
1, 39264, Note_off_c, 0, 58, 110
1, 39548, Note_off_c, 0, 61, 118
1, 39637, Note_on_c, 0, 66, 95
1, 39913, Note_off_c, 0, 66, 95
1, 39937, Note_on_c, 0, 70, 105
1, 40148, Note_off_c, 0, 70, 105
1, 40164, Note_on_c, 0, 66, 103
1, 40220, Note_off_c, 0, 66, 103
1, 40236, Note_on_c, 0, 67, 104
1, 40303, Note_off_c, 0, 67, 104
1, 40322, Note_on_c, 0, 66, 89
1, 40418, Note_off_c, 0, 66, 89
1, 40454, Note_on_c, 0, 61, 116
1, 40640, Note_off_c, 0, 61, 116
1, 40664, Note_on_c, 0, 58, 111
1, 40826, Note_off_c, 0, 58, 111
1, 40842, Note_on_c, 0, 54, 94
1, 40980, Note_off_c, 0, 54, 94
1, 41085, Note_on_c, 0, 60, 117
1, 41288, Note_off_c, 0, 60, 117
1, 41393, Note_on_c, 0, 58, 99
1, 41612, Note_off_c, 0, 58, 99
1, 41786, Note_on_c, 0, 66, 102
1, 41948, Note_off_c, 0, 66, 102
1, 42008, Note_on_c, 0, 60, 117
1, 42178, Note_off_c, 0, 60, 117
1, 42186, Note_on_c, 0, 58, 108
1, 42332, Note_off_c, 0, 58, 108
1, 42364, Note_on_c, 0, 54, 102
1, 42534, Note_off_c, 0, 54, 102
1, 42651, Note_on_c, 0, 52, 86
1, 43228, Note_off_c, 0, 52, 86
1, 43882, Note_on_c, 0, 58, 121
1, 44085, Note_off_c, 0, 58, 121
1, 44093, Note_on_c, 0, 53, 113
1, 44353, Note_off_c, 0, 53, 113
1, 44409, Note_on_c, 0, 54, 109
1, 44677, Note_off_c, 0, 54, 109
1, 44685, Note_on_c, 0, 61, 121
1, 44912, Note_off_c, 0, 61, 121
1, 44944, Note_on_c, 0, 63, 123
1, 45220, Note_off_c, 0, 63, 123
1, 45228, Note_on_c, 0, 55, 94
1, 45463, Note_off_c, 0, 55, 94
1, 45519, Note_on_c, 0, 61, 115
1, 45722, Note_off_c, 0, 61, 115
1, 45795, Note_on_c, 0, 63, 119
1, 46022, Note_off_c, 0, 63, 119
1, 46054, Note_on_c, 0, 56, 97
1, 46500, Note_off_c, 0, 56, 97
1, 46500, Note_on_c, 0, 49, 96
1, 46873, Note_off_c, 0, 49, 96
1, 46962, Note_on_c, 0, 53, 96
1, 47081, Note_off_c, 0, 53, 96
1, 47103, Note_on_c, 0, 54, 91
1, 47509, Note_off_c, 0, 54, 91
1, 47626, Note_on_c, 0, 53, 80
1, 50998, Note_off_c, 0, 53, 80
1, 50998, End_track
0, 0, End_of_file
