0, 0, Header, 1, 1, 192
1, 0, Start_track
1, 0, Title_t, "Melody"
1, 0, Tempo, 208333
1, 0, Key_signature, -4, "major"
1, 0, Time_signature, 4, 2, 24, 8
1, 5098, Note_on_c, 0, 55, 117
1, 5192, Note_off_c, 0, 55, 117
1, 5203, Note_on_c, 0, 56, 112
1, 5287, Note_off_c, 0, 56, 112
1, 5306, Note_on_c, 0, 58, 115
1, 5413, Note_off_c, 0, 58, 115
1, 5419, Note_on_c, 0, 59, 111
1, 5462, Note_off_c, 0, 59, 111
1, 5472, Note_on_c, 0, 60, 117
1, 5831, Note_off_c, 0, 60, 117
1, 5849, Note_on_c, 0, 56, 115
1, 5957, Note_off_c, 0, 56, 115
1, 6029, Note_on_c, 0, 55, 110
1, 6234, Note_off_c, 0, 55, 110
1, 6241, Note_on_c, 0, 52, 118
1, 6337, Note_off_c, 0, 52, 118
1, 6345, Note_on_c, 0, 53, 113
1, 6418, Note_off_c, 0, 53, 113
1, 6420, Note_on_c, 0, 59, 113
1, 6497, Note_off_c, 0, 59, 113
1, 7224, Note_on_c, 0, 60, 121
1, 7333, Note_off_c, 0, 60, 121
1, 7345, Note_on_c, 0, 64, 121
1, 7382, Note_off_c, 0, 64, 121
1, 7422, Note_on_c, 0, 68, 124
1, 7510, Note_off_c, 0, 68, 124
1, 7539, Note_on_c, 0, 72, 122
1, 7703, Note_off_c, 0, 72, 122
1, 7721, Note_on_c, 0, 71, 126
1, 7878, Note_off_c, 0, 71, 126
1, 7890, Note_on_c, 0, 65, 115
1, 8510, Note_off_c, 0, 65, 115
1, 8576, Note_on_c, 0, 68, 121
1, 8640, Note_off_c, 0, 68, 121
1, 8650, Note_on_c, 0, 71, 114
1, 8684, Note_off_c, 0, 71, 114
1, 8688, Note_on_c, 0, 68, 117
1, 8766, Note_off_c, 0, 68, 117
1, 8768, Note_on_c, 0, 67, 122
1, 8854, Note_off_c, 0, 67, 122
1, 8858, Note_on_c, 0, 65, 121
1, 8955, Note_off_c, 0, 65, 121
1, 8959, Note_on_c, 0, 64, 119
1, 9061, Note_off_c, 0, 64, 119
1, 9067, Note_on_c, 0, 65, 114
1, 9124, Note_off_c, 0, 65, 114
1, 9129, Note_on_c, 0, 67, 114
1, 9238, Note_off_c, 0, 67, 114
1, 9253, Note_on_c, 0, 64, 111
1, 9314, Note_off_c, 0, 64, 111
1, 9319, Note_on_c, 0, 65, 114
1, 9406, Note_off_c, 0, 65, 114
1, 9411, Note_on_c, 0, 61, 122
1, 9517, Note_off_c, 0, 61, 122
1, 9522, Note_on_c, 0, 60, 121
1, 9628, Note_off_c, 0, 60, 121
1, 9633, Note_on_c, 0, 58, 113
1, 9694, Note_off_c, 0, 58, 113
1, 9728, Note_on_c, 0, 56, 109
1, 9816, Note_off_c, 0, 56, 109
1, 9819, Note_on_c, 0, 55, 109
1, 9892, Note_off_c, 0, 55, 109
1, 9902, Note_on_c, 0, 53, 107
1, 9995, Note_off_c, 0, 53, 107
1, 10090, Note_on_c, 0, 55, 110
1, 10197, Note_off_c, 0, 55, 110
1, 10206, Note_on_c, 0, 53, 110
1, 10268, Note_off_c, 0, 53, 110
1, 10277, Note_on_c, 0, 52, 113
1, 10385, Note_off_c, 0, 52, 113
1, 10392, Note_on_c, 0, 50, 108
1, 10468, Note_off_c, 0, 50, 108
1, 10476, Note_on_c, 0, 49, 105
1, 10601, Note_off_c, 0, 49, 105
1, 10681, Note_on_c, 0, 55, 110
1, 10743, Note_off_c, 0, 55, 110
1, 10761, Note_on_c, 0, 52, 108
1, 10831, Note_off_c, 0, 52, 108
1, 10841, Note_on_c, 0, 53, 108
1, 10908, Note_off_c, 0, 53, 108
1, 10925, Note_on_c, 0, 60, 123
1, 11037, Note_off_c, 0, 60, 123
1, 11645, Note_on_c, 0, 61, 127
1, 11751, Note_off_c, 0, 61, 127
1, 11756, Note_on_c, 0, 62, 113
1, 12687, Note_off_c, 0, 62, 113
1, 12692, Note_on_c, 0, 65, 116
1, 12768, Note_off_c, 0, 65, 116
1, 12777, Note_on_c, 0, 68, 119
1, 12861, Note_off_c, 0, 68, 119
1, 12883, Note_on_c, 0, 60, 111
1, 12965, Note_off_c, 0, 60, 111
1, 12987, Note_on_c, 0, 61, 122
1, 13088, Note_off_c, 0, 61, 122
1, 13110, Note_on_c, 0, 64, 116
1, 13168, Note_off_c, 0, 64, 116
1, 13174, Note_on_c, 0, 67, 113
1, 13236, Note_off_c, 0, 67, 113
1, 13263, Note_on_c, 0, 70, 107
1, 13313, Note_off_c, 0, 70, 107
1, 13355, Note_on_c, 0, 61, 119
1, 13457, Note_off_c, 0, 61, 119
1, 13465, Note_on_c, 0, 62, 111
1, 13525, Note_off_c, 0, 62, 111
1, 13529, Note_on_c, 0, 67, 112
1, 13601, Note_off_c, 0, 67, 112
1, 13608, Note_on_c, 0, 66, 115
1, 13663, Note_off_c, 0, 66, 115
1, 13668, Note_on_c, 0, 65, 121
1, 13715, Note_off_c, 0, 65, 121
1, 13721, Note_on_c, 0, 64, 115
1, 13841, Note_off_c, 0, 64, 115
1, 13849, Note_on_c, 0, 65, 112
1, 13902, Note_off_c, 0, 65, 112
1, 13907, Note_on_c, 0, 67, 111
1, 14024, Note_off_c, 0, 67, 111
1, 14030, Note_on_c, 0, 64, 118
1, 14089, Note_off_c, 0, 64, 118
1, 14095, Note_on_c, 0, 65, 112
1, 14165, Note_off_c, 0, 65, 112
1, 14172, Note_on_c, 0, 60, 123
1, 14305, Note_off_c, 0, 60, 123
1, 14843, Note_on_c, 0, 60, 119
1, 14945, Note_off_c, 0, 60, 119
1, 14949, Note_on_c, 0, 62, 107
1, 15414, Note_off_c, 0, 62, 107
1, 15426, Note_on_c, 0, 61, 115
1, 15569, Note_off_c, 0, 61, 115
1, 15577, Note_on_c, 0, 61, 122
1, 15676, Note_off_c, 0, 61, 122
1, 15698, Note_on_c, 0, 60, 125
1, 15836, Note_off_c, 0, 60, 125
1, 15846, Note_on_c, 0, 56, 113
1, 16012, Note_off_c, 0, 56, 113
1, 16041, Note_on_c, 0, 53, 107
1, 16111, Note_off_c, 0, 53, 107
1, 16122, Note_on_c, 0, 55, 99
1, 16353, Note_off_c, 0, 55, 99
1, 16416, Note_on_c, 0, 53, 108
1, 16528, Note_off_c, 0, 53, 108
1, 16967, Note_on_c, 0, 61, 124
1, 17062, Note_off_c, 0, 61, 124
1, 17067, Note_on_c, 0, 62, 118
1, 17112, Note_off_c, 0, 62, 118
1, 17139, Note_on_c, 0, 67, 119
1, 17221, Note_off_c, 0, 67, 119
1, 17228, Note_on_c, 0, 66, 118
1, 17272, Note_off_c, 0, 66, 118
1, 17289, Note_on_c, 0, 65, 120
1, 17340, Note_off_c, 0, 65, 120
1, 17350, Note_on_c, 0, 64, 120
1, 17456, Note_off_c, 0, 64, 120
1, 17464, Note_on_c, 0, 65, 113
1, 17554, Note_off_c, 0, 65, 113
1, 17559, Note_on_c, 0, 66, 119
1, 17639, Note_off_c, 0, 66, 119
1, 17642, Note_on_c, 0, 67, 118
1, 17713, Note_off_c, 0, 67, 118
1, 17713, Note_on_c, 0, 68, 121
1, 17810, Note_off_c, 0, 68, 121
1, 17826, Note_on_c, 0, 64, 115
1, 17903, Note_off_c, 0, 64, 115
1, 17924, Note_on_c, 0, 67, 117
1, 17998, Note_off_c, 0, 67, 117
1, 18017, Note_on_c, 0, 65, 114
1, 18084, Note_off_c, 0, 65, 114
1, 18091, Note_on_c, 0, 63, 121
1, 18195, Note_off_c, 0, 63, 121
1, 18211, Note_on_c, 0, 62, 114
1, 18275, Note_off_c, 0, 62, 114
1, 18292, Note_on_c, 0, 60, 122
1, 18395, Note_off_c, 0, 60, 122
1, 18406, Note_on_c, 0, 56, 113
1, 18488, Note_off_c, 0, 56, 113
1, 18494, Note_on_c, 0, 53, 106
1, 18562, Note_off_c, 0, 53, 106
1, 18565, Note_on_c, 0, 54, 108
1, 18621, Note_off_c, 0, 54, 108
1, 18629, Note_on_c, 0, 55, 106
1, 18758, Note_off_c, 0, 55, 106
1, 18769, Note_on_c, 0, 58, 107
1, 18825, Note_off_c, 0, 58, 107
1, 18829, Note_on_c, 0, 61, 122
1, 18938, Note_off_c, 0, 61, 122
1, 18956, Note_on_c, 0, 62, 113
1, 19020, Note_off_c, 0, 62, 113
1, 19022, Note_on_c, 0, 65, 113
1, 19112, Note_off_c, 0, 65, 113
1, 19116, Note_on_c, 0, 62, 117
1, 19213, Note_off_c, 0, 62, 117
1, 19217, Note_on_c, 0, 63, 117
1, 19273, Note_off_c, 0, 63, 117
1, 19294, Note_on_c, 0, 65, 111
1, 19417, Note_off_c, 0, 65, 111
1, 19422, Note_on_c, 0, 66, 103
1, 19472, Note_off_c, 0, 66, 103
1, 19478, Note_on_c, 0, 67, 111
1, 19557, Note_off_c, 0, 67, 111
1, 19567, Note_on_c, 0, 72, 118
1, 19693, Note_off_c, 0, 72, 118
1, 19694, Note_on_c, 0, 70, 114
1, 19738, Note_off_c, 0, 70, 114
1, 19744, Note_on_c, 0, 67, 115
1, 19856, Note_off_c, 0, 67, 115
1, 20145, Note_on_c, 0, 61, 126
1, 20253, Note_off_c, 0, 61, 126
1, 20263, Note_on_c, 0, 62, 116
1, 20333, Note_off_c, 0, 62, 116
1, 20353, Note_on_c, 0, 63, 121
1, 20468, Note_off_c, 0, 63, 121
1, 20485, Note_on_c, 0, 65, 114
1, 20588, Note_off_c, 0, 65, 114
1, 20593, Note_on_c, 0, 66, 113
1, 20652, Note_off_c, 0, 66, 113
1, 20662, Note_on_c, 0, 67, 109
1, 20711, Note_off_c, 0, 67, 109
1, 20714, Note_on_c, 0, 66, 113
1, 20759, Note_off_c, 0, 66, 113
1, 20780, Note_on_c, 0, 65, 114
1, 20852, Note_off_c, 0, 65, 114
1, 20858, Note_on_c, 0, 63, 117
1, 20941, Note_off_c, 0, 63, 117
1, 20947, Note_on_c, 0, 60, 120
1, 21059, Note_off_c, 0, 60, 120
1, 21065, Note_on_c, 0, 58, 109
1, 21124, Note_off_c, 0, 58, 109
1, 21131, Note_on_c, 0, 56, 113
1, 21241, Note_off_c, 0, 56, 113
1, 21250, Note_on_c, 0, 54, 107
1, 21303, Note_off_c, 0, 54, 107
1, 21308, Note_on_c, 0, 53, 107
1, 21430, Note_off_c, 0, 53, 107
1, 21499, Note_on_c, 0, 61, 125
1, 21651, Note_off_c, 0, 61, 125
1, 21667, Note_on_c, 0, 64, 115
1, 21715, Note_off_c, 0, 64, 115
1, 21724, Note_on_c, 0, 65, 113
1, 21830, Note_off_c, 0, 65, 113
1, 21830, Note_on_c, 0, 68, 115
1, 21921, Note_off_c, 0, 68, 115
1, 21924, Note_on_c, 0, 66, 107
1, 21993, Note_off_c, 0, 66, 107
1, 21998, Note_on_c, 0, 65, 117
1, 22091, Note_off_c, 0, 65, 117
1, 22095, Note_on_c, 0, 64, 122
1, 22199, Note_off_c, 0, 64, 122
1, 22232, Note_on_c, 0, 58, 108
1, 22286, Note_off_c, 0, 58, 108
1, 22287, Note_on_c, 0, 60, 118
1, 22403, Note_off_c, 0, 60, 118
1, 22407, Note_on_c, 0, 62, 111
1, 22506, Note_off_c, 0, 62, 111
1, 22513, Note_on_c, 0, 64, 115
1, 22603, Note_off_c, 0, 64, 115
1, 22613, Note_on_c, 0, 67, 107
1, 22682, Note_off_c, 0, 67, 107
1, 22690, Note_on_c, 0, 65, 104
1, 22756, Note_off_c, 0, 65, 104
1, 22758, Note_on_c, 0, 64, 106
1, 22849, Note_off_c, 0, 64, 106
1, 22859, Note_on_c, 0, 67, 110
1, 22961, Note_off_c, 0, 67, 110
1, 22966, Note_on_c, 0, 64, 111
1, 23051, Note_off_c, 0, 64, 111
1, 23060, Note_on_c, 0, 65, 110
1, 23130, Note_off_c, 0, 65, 110
1, 23138, Note_on_c, 0, 61, 119
1, 23251, Note_off_c, 0, 61, 119
1, 23256, Note_on_c, 0, 60, 115
1, 23318, Note_off_c, 0, 60, 115
1, 23835, Note_on_c, 0, 63, 119
1, 24050, Note_off_c, 0, 63, 119
1, 24050, Note_on_c, 0, 65, 119
1, 24468, Note_off_c, 0, 65, 119
1, 24539, Note_on_c, 0, 66, 120
1, 24621, Note_off_c, 0, 66, 120
1, 24627, Note_on_c, 0, 67, 114
1, 24696, Note_off_c, 0, 67, 114
1, 24704, Note_on_c, 0, 72, 112
1, 24766, Note_off_c, 0, 72, 112
1, 24777, Note_on_c, 0, 65, 107
1, 25329, Note_off_c, 0, 65, 107
1, 25347, Note_on_c, 0, 63, 116
1, 25427, Note_off_c, 0, 63, 116
1, 25429, Note_on_c, 0, 64, 111
1, 25474, Note_off_c, 0, 64, 111
1, 25493, Note_on_c, 0, 72, 110
1, 25575, Note_off_c, 0, 72, 110
1, 25601, Note_on_c, 0, 66, 101
1, 26053, Note_off_c, 0, 66, 101
1, 26095, Note_on_c, 0, 64, 116
1, 26157, Note_off_c, 0, 64, 116
1, 26160, Note_on_c, 0, 65, 111
1, 26227, Note_off_c, 0, 65, 111
1, 26235, Note_on_c, 0, 60, 118
1, 26344, Note_off_c, 0, 60, 118
1, 26888, Note_on_c, 0, 62, 115
1, 27068, Note_off_c, 0, 62, 115
1, 27073, Note_on_c, 0, 64, 116
1, 27650, Note_off_c, 0, 64, 116
1, 27658, Note_on_c, 0, 61, 120
1, 27731, Note_off_c, 0, 61, 120
1, 27749, Note_on_c, 0, 61, 119
1, 27837, Note_off_c, 0, 61, 119
1, 27851, Note_on_c, 0, 60, 108
1, 28373, Note_off_c, 0, 60, 108
1, 28419, Note_on_c, 0, 58, 116
1, 28517, Note_off_c, 0, 58, 116
1, 28533, Note_on_c, 0, 56, 113
1, 28612, Note_off_c, 0, 56, 113
1, 28622, Note_on_c, 0, 55, 102
1, 28676, Note_off_c, 0, 55, 102
1, 28684, Note_on_c, 0, 53, 110
1, 28771, Note_off_c, 0, 53, 110
1, 28790, Note_on_c, 0, 52, 112
1, 28890, Note_off_c, 0, 52, 112
1, 28900, Note_on_c, 0, 53, 110
1, 28934, Note_off_c, 0, 53, 110
1, 28955, Note_on_c, 0, 55, 112
1, 29029, Note_off_c, 0, 55, 112
1, 29075, Note_on_c, 0, 52, 113
1, 29148, Note_off_c, 0, 52, 113
1, 29161, Note_on_c, 0, 53, 112
1, 29220, Note_off_c, 0, 53, 112
1, 29233, Note_on_c, 0, 56, 106
1, 29305, Note_off_c, 0, 56, 106
1, 29309, Note_on_c, 0, 60, 117
1, 29436, Note_off_c, 0, 60, 117
1, 29445, Note_on_c, 0, 65, 107
1, 29500, Note_off_c, 0, 65, 107
1, 29507, Note_on_c, 0, 68, 107
1, 29592, Note_off_c, 0, 68, 107
1, 29602, Note_on_c, 0, 72, 117
1, 29757, Note_off_c, 0, 72, 117
1, 30237, Note_on_c, 0, 72, 122
1, 30845, Note_off_c, 0, 72, 122
1, 30870, Note_on_c, 0, 75, 106
1, 30921, Note_off_c, 0, 75, 106
1, 30924, Note_on_c, 0, 73, 106
1, 30980, Note_off_c, 0, 73, 106
1, 30996, Note_on_c, 0, 77, 111
1, 31560, Note_off_c, 0, 77, 111
1, 31596, Note_on_c, 0, 73, 112
1, 31921, Note_off_c, 0, 73, 112
1, 31936, Note_on_c, 0, 71, 117
1, 31990, Note_off_c, 0, 71, 117
1, 31995, Note_on_c, 0, 72, 116
1, 32069, Note_off_c, 0, 72, 116
1, 32077, Note_on_c, 0, 71, 113
1, 32146, Note_off_c, 0, 71, 113
1, 32151, Note_on_c, 0, 70, 112
1, 32209, Note_off_c, 0, 70, 112
1, 32263, Note_on_c, 0, 68, 107
1, 32334, Note_off_c, 0, 68, 107
1, 32339, Note_on_c, 0, 67, 105
1, 32417, Note_off_c, 0, 67, 105
1, 32425, Note_on_c, 0, 65, 105
1, 32497, Note_off_c, 0, 65, 105
1, 32537, Note_on_c, 0, 67, 104
1, 32630, Note_off_c, 0, 67, 104
1, 32634, Note_on_c, 0, 65, 112
1, 32723, Note_off_c, 0, 65, 112
1, 32729, Note_on_c, 0, 64, 116
1, 32841, Note_off_c, 0, 64, 116
1, 32846, Note_on_c, 0, 62, 109
1, 32930, Note_off_c, 0, 62, 109
1, 32939, Note_on_c, 0, 61, 110
1, 33041, Note_off_c, 0, 61, 110
1, 33057, Note_on_c, 0, 60, 112
1, 33131, Note_off_c, 0, 60, 112
1, 33136, Note_on_c, 0, 58, 110
1, 33210, Note_off_c, 0, 58, 110
1, 33233, Note_on_c, 0, 56, 105
1, 33318, Note_off_c, 0, 56, 105
1, 33326, Note_on_c, 0, 55, 106
1, 33401, Note_off_c, 0, 55, 106
1, 33409, Note_on_c, 0, 53, 107
1, 33489, Note_off_c, 0, 53, 107
1, 33490, Note_on_c, 0, 52, 108
1, 33583, Note_off_c, 0, 52, 108
1, 33610, Note_on_c, 0, 53, 101
1, 33664, Note_off_c, 0, 53, 101
1, 33675, Note_on_c, 0, 55, 105
1, 33782, Note_off_c, 0, 55, 105
1, 33792, Note_on_c, 0, 52, 109
1, 33859, Note_off_c, 0, 52, 109
1, 33866, Note_on_c, 0, 53, 103
1, 33928, Note_off_c, 0, 53, 103
1, 33941, Note_on_c, 0, 60, 116
1, 34047, Note_off_c, 0, 60, 116
1, 34363, Note_on_c, 0, 53, 112
1, 34407, Note_off_c, 0, 53, 112
1, 34411, Note_on_c, 0, 54, 115
1, 34496, Note_off_c, 0, 54, 115
1, 34515, Note_on_c, 0, 58, 112
1, 34593, Note_off_c, 0, 58, 112
1, 34603, Note_on_c, 0, 61, 115
1, 34684, Note_off_c, 0, 61, 115
1, 34742, Note_on_c, 0, 64, 102
1, 34799, Note_off_c, 0, 64, 102
1, 34805, Note_on_c, 0, 68, 104
1, 34899, Note_off_c, 0, 68, 104
1, 34913, Note_on_c, 0, 66, 101
1, 34963, Note_off_c, 0, 66, 101
1, 34971, Note_on_c, 0, 65, 112
1, 35095, Note_off_c, 0, 65, 112
1, 35118, Note_on_c, 0, 58, 101
1, 35176, Note_off_c, 0, 58, 101
1, 35188, Note_on_c, 0, 60, 113
1, 35291, Note_off_c, 0, 60, 113
1, 35299, Note_on_c, 0, 62, 108
1, 35361, Note_off_c, 0, 62, 108
1, 35367, Note_on_c, 0, 67, 112
1, 35424, Note_off_c, 0, 67, 112
1, 35429, Note_on_c, 0, 66, 108
1, 35466, Note_off_c, 0, 66, 108
1, 35475, Note_on_c, 0, 65, 111
1, 35535, Note_off_c, 0, 65, 111
1, 35544, Note_on_c, 0, 64, 120
1, 35656, Note_off_c, 0, 64, 120
1, 35670, Note_on_c, 0, 62, 111
1, 35728, Note_off_c, 0, 62, 111
1, 35736, Note_on_c, 0, 61, 113
1, 35861, Note_off_c, 0, 61, 113
1, 35868, Note_on_c, 0, 60, 115
1, 35942, Note_off_c, 0, 60, 115
1, 35952, Note_on_c, 0, 58, 107
1, 36032, Note_off_c, 0, 58, 107
1, 36046, Note_on_c, 0, 56, 100
1, 36109, Note_off_c, 0, 56, 100
1, 36126, Note_on_c, 0, 55, 108
1, 36206, Note_off_c, 0, 55, 108
1, 36218, Note_on_c, 0, 53, 105
1, 36279, Note_off_c, 0, 53, 105
1, 36295, Note_on_c, 0, 52, 106
1, 36426, Note_off_c, 0, 52, 106
1, 36477, Note_on_c, 0, 55, 103
1, 36600, Note_off_c, 0, 55, 103
1, 36607, Note_on_c, 0, 52, 109
1, 36675, Note_off_c, 0, 52, 109
1, 36685, Note_on_c, 0, 53, 105
1, 36732, Note_off_c, 0, 53, 105
1, 36743, Note_on_c, 0, 60, 117
1, 36835, Note_off_c, 0, 60, 117
1, 37091, Note_on_c, 0, 54, 114
1, 37181, Note_off_c, 0, 54, 114
1, 37195, Note_on_c, 0, 56, 107
1, 37261, Note_off_c, 0, 56, 107
1, 37269, Note_on_c, 0, 60, 120
1, 37367, Note_off_c, 0, 60, 120
1, 37376, Note_on_c, 0, 63, 113
1, 37450, Note_off_c, 0, 63, 113
1, 37485, Note_on_c, 0, 58, 105
1, 37573, Note_off_c, 0, 58, 105
1, 37591, Note_on_c, 0, 59, 103
1, 37641, Note_off_c, 0, 59, 103
1, 37653, Note_on_c, 0, 61, 119
1, 37757, Note_off_c, 0, 61, 119
1, 37771, Note_on_c, 0, 62, 109
1, 37839, Note_off_c, 0, 62, 109
1, 37863, Note_on_c, 0, 67, 111
1, 37943, Note_off_c, 0, 67, 111
1, 38058, Note_on_c, 0, 60, 114
1, 38171, Note_off_c, 0, 60, 114
1, 38175, Note_on_c, 0, 62, 108
1, 38225, Note_off_c, 0, 62, 108
1, 38234, Note_on_c, 0, 63, 113
1, 38341, Note_off_c, 0, 63, 113
1, 38351, Note_on_c, 0, 64, 112
1, 38407, Note_off_c, 0, 64, 112
1, 38418, Note_on_c, 0, 67, 114
1, 38503, Note_off_c, 0, 67, 114
1, 38508, Note_on_c, 0, 65, 112
1, 38575, Note_off_c, 0, 65, 112
1, 38591, Note_on_c, 0, 64, 119
1, 38705, Note_off_c, 0, 64, 119
1, 38714, Note_on_c, 0, 65, 112
1, 38792, Note_off_c, 0, 65, 112
1, 39238, Note_on_c, 0, 60, 115
1, 39354, Note_off_c, 0, 60, 115
1, 39361, Note_on_c, 0, 61, 114
1, 39780, Note_off_c, 0, 61, 114
1, 39825, Note_on_c, 0, 59, 104
1, 39856, Note_off_c, 0, 59, 104
1, 39865, Note_on_c, 0, 60, 122
1, 40007, Note_off_c, 0, 60, 122
1, 40021, Note_on_c, 0, 53, 101
1, 40101, Note_off_c, 0, 53, 101
1, 40261, Note_on_c, 0, 52, 110
1, 40322, Note_off_c, 0, 52, 110
1, 40338, Note_on_c, 0, 54, 111
1, 40575, Note_off_c, 0, 54, 111
1, 40581, Note_on_c, 0, 52, 110
1, 40660, Note_off_c, 0, 52, 110
1, 40669, Note_on_c, 0, 53, 108
1, 40746, Note_off_c, 0, 53, 108
1, 40768, Note_on_c, 0, 60, 121
1, 40873, Note_off_c, 0, 60, 121
1, 41206, Note_on_c, 0, 56, 118
1, 41319, Note_off_c, 0, 56, 118
1, 41324, Note_on_c, 0, 57, 112
1, 41376, Note_off_c, 0, 57, 112
1, 41383, Note_on_c, 0, 61, 115
1, 41519, Note_off_c, 0, 61, 115
1, 41531, Note_on_c, 0, 62, 111
1, 41583, Note_off_c, 0, 62, 111
1, 41589, Note_on_c, 0, 67, 113
1, 41679, Note_off_c, 0, 67, 113
1, 41691, Note_on_c, 0, 64, 111
1, 41733, Note_off_c, 0, 64, 111
1, 41738, Note_on_c, 0, 62, 121
1, 41772, Note_off_c, 0, 62, 121
1, 41775, Note_on_c, 0, 63, 121
1, 41972, Note_off_c, 0, 63, 121
1, 41977, Note_on_c, 0, 61, 116
1, 42088, Note_off_c, 0, 61, 116
1, 42093, Note_on_c, 0, 62, 113
1, 42138, Note_off_c, 0, 62, 113
1, 42143, Note_on_c, 0, 65, 114
1, 42254, Note_off_c, 0, 65, 114
1, 42261, Note_on_c, 0, 60, 117
1, 42352, Note_off_c, 0, 60, 117
1, 42358, Note_on_c, 0, 56, 108
1, 42445, Note_off_c, 0, 56, 108
1, 42453, Note_on_c, 0, 53, 104
1, 42526, Note_off_c, 0, 53, 104
1, 42534, Note_on_c, 0, 55, 106
1, 42605, Note_off_c, 0, 55, 106
1, 42948, Note_on_c, 0, 63, 122
1, 43200, Note_off_c, 0, 63, 122
1, 43235, Note_on_c, 0, 67, 104
1, 43282, Note_off_c, 0, 67, 104
1, 43314, Note_on_c, 0, 72, 119
1, 43425, Note_off_c, 0, 72, 119
1, 43431, Note_on_c, 0, 71, 122
1, 43532, Note_off_c, 0, 71, 122
1, 43540, Note_on_c, 0, 70, 110
1, 43899, Note_off_c, 0, 70, 110
1, 43918, Note_on_c, 0, 67, 111
1, 44027, Note_off_c, 0, 67, 111
1, 44095, Note_on_c, 0, 66, 106
1, 44187, Note_off_c, 0, 66, 106
1, 44489, Note_on_c, 0, 61, 118
1, 44590, Note_off_c, 0, 61, 118
1, 44599, Note_on_c, 0, 62, 114
1, 44666, Note_off_c, 0, 62, 114
1, 44687, Note_on_c, 0, 63, 118
1, 44795, Note_off_c, 0, 63, 118
1, 44824, Note_on_c, 0, 65, 112
1, 44890, Note_off_c, 0, 65, 112
1, 44904, Note_on_c, 0, 66, 115
1, 44982, Note_off_c, 0, 66, 115
1, 44991, Note_on_c, 0, 65, 116
1, 45055, Note_off_c, 0, 65, 116
1, 45070, Note_on_c, 0, 64, 115
1, 45200, Note_off_c, 0, 64, 115
1, 45211, Note_on_c, 0, 55, 105
1, 45257, Note_off_c, 0, 55, 105
1, 45265, Note_on_c, 0, 54, 106
1, 45351, Note_off_c, 0, 54, 106
1, 45373, Note_on_c, 0, 63, 114
1, 45440, Note_off_c, 0, 63, 114
1, 45448, Note_on_c, 0, 60, 116
1, 45564, Note_off_c, 0, 60, 116
1, 45574, Note_on_c, 0, 58, 104
1, 45643, Note_off_c, 0, 58, 104
1, 45652, Note_on_c, 0, 54, 101
1, 45731, Note_off_c, 0, 54, 101
1, 45742, Note_on_c, 0, 52, 106
1, 45808, Note_off_c, 0, 52, 106
1, 45823, Note_on_c, 0, 53, 102
1, 45913, Note_off_c, 0, 53, 102
1, 45934, Note_on_c, 0, 56, 107
1, 45994, Note_off_c, 0, 56, 107
1, 46006, Note_on_c, 0, 61, 115
1, 46152, Note_off_c, 0, 61, 115
1, 46155, Note_on_c, 0, 64, 113
1, 46234, Note_off_c, 0, 64, 113
1, 46242, Note_on_c, 0, 65, 107
1, 46308, Note_off_c, 0, 65, 107
1, 46310, Note_on_c, 0, 68, 112
1, 46400, Note_off_c, 0, 68, 112
1, 46412, Note_on_c, 0, 67, 112
1, 46489, Note_off_c, 0, 67, 112
1, 46493, Note_on_c, 0, 66, 106
1, 46529, Note_off_c, 0, 66, 106
1, 46534, Note_on_c, 0, 65, 112
1, 46594, Note_off_c, 0, 65, 112
1, 46601, Note_on_c, 0, 64, 116
1, 46705, Note_off_c, 0, 64, 116
1, 46715, Note_on_c, 0, 61, 118
1, 46776, Note_off_c, 0, 61, 118
1, 46796, Note_on_c, 0, 58, 108
1, 46892, Note_off_c, 0, 58, 108
1, 46899, Note_on_c, 0, 59, 98
1, 46962, Note_off_c, 0, 59, 98
1, 46968, Note_on_c, 0, 60, 118
1, 47070, Note_off_c, 0, 60, 118
1, 47084, Note_on_c, 0, 58, 105
1, 47147, Note_off_c, 0, 58, 105
1, 47158, Note_on_c, 0, 56, 112
1, 47261, Note_off_c, 0, 56, 112
1, 47272, Note_on_c, 0, 55, 105
1, 47320, Note_off_c, 0, 55, 105
1, 47332, Note_on_c, 0, 53, 115
1, 47452, Note_off_c, 0, 53, 115
1, 47526, Note_on_c, 0, 55, 110
1, 47638, Note_off_c, 0, 55, 110
1, 47650, Note_on_c, 0, 52, 104
1, 47720, Note_off_c, 0, 52, 104
1, 47731, Note_on_c, 0, 53, 111
1, 47822, Note_off_c, 0, 53, 111
1, 47824, Note_on_c, 0, 60, 103
1, 47908, Note_off_c, 0, 60, 103
1, 48345, Note_on_c, 0, 60, 126
1, 48550, Note_off_c, 0, 60, 126
1, 48563, Note_on_c, 0, 61, 118
1, 48669, Note_off_c, 0, 61, 118
1, 48683, Note_on_c, 0, 62, 114
1, 48757, Note_off_c, 0, 62, 114
1, 48774, Note_on_c, 0, 67, 103
1, 48860, Note_off_c, 0, 67, 103
1, 48916, Note_on_c, 0, 60, 101
1, 49596, Note_off_c, 0, 60, 101
1, 49654, Note_on_c, 0, 57, 111
1, 49723, Note_off_c, 0, 57, 111
1, 49728, Note_on_c, 0, 58, 104
1, 49792, Note_off_c, 0, 58, 104
1, 49807, Note_on_c, 0, 60, 121
1, 49908, Note_off_c, 0, 60, 121
1, 49922, Note_on_c, 0, 61, 114
1, 49985, Note_off_c, 0, 61, 114
1, 50018, Note_on_c, 0, 53, 97
1, 50519, Note_off_c, 0, 53, 97
1, 50533, Note_on_c, 0, 58, 90
1, 50611, Note_off_c, 0, 58, 90
1, 50624, Note_on_c, 0, 60, 121
1, 50741, Note_off_c, 0, 60, 121
1, 51231, Note_on_c, 0, 61, 120
1, 51339, Note_off_c, 0, 61, 120
1, 51339, Note_on_c, 0, 62, 106
1, 51867, Note_off_c, 0, 62, 106
1, 51875, Note_on_c, 0, 60, 115
1, 51967, Note_off_c, 0, 60, 115
1, 51983, Note_on_c, 0, 64, 101
1, 52023, Note_off_c, 0, 64, 101
1, 52032, Note_on_c, 0, 68, 90
1, 52084, Note_off_c, 0, 68, 90
1, 52112, Note_on_c, 0, 74, 112
1, 52210, Note_off_c, 0, 74, 112
1, 52222, Note_on_c, 0, 73, 110
1, 52265, Note_off_c, 0, 73, 110
1, 52270, Note_on_c, 0, 72, 116
1, 52377, Note_off_c, 0, 72, 116
1, 52414, Note_on_c, 0, 67, 108
1, 52561, Note_off_c, 0, 67, 108
1, 52576, Note_on_c, 0, 66, 104
1, 52650, Note_off_c, 0, 66, 104
1, 52673, Note_on_c, 0, 65, 110
1, 52734, Note_off_c, 0, 65, 110
1, 52746, Note_on_c, 0, 62, 116
1, 52845, Note_off_c, 0, 62, 116
1, 52925, Note_on_c, 0, 61, 118
1, 52981, Note_off_c, 0, 61, 118
1, 52997, Note_on_c, 0, 60, 118
1, 53102, Note_off_c, 0, 60, 118
1, 53113, Note_on_c, 0, 55, 108
1, 53197, Note_off_c, 0, 55, 108
1, 53204, Note_on_c, 0, 54, 112
1, 53253, Note_off_c, 0, 54, 112
1, 53263, Note_on_c, 0, 53, 111
1, 53342, Note_off_c, 0, 53, 111
1, 53342, End_track
0, 0, End_of_file
