0, 0, Header, 1, 1, 840
1, 0, Start_track
1, 0, Title_t, "Melody"
1, 0, Tempo, 845070
1, 0, Key_signature, 1, "major"
1, 0, Time_signature, 4, 2, 24, 8
1, 8940, Note_on_c, 0, 55, 116
1, 9159, Note_off_c, 0, 55, 116
1, 9182, Note_on_c, 0, 51, 109
1, 9372, Note_off_c, 0, 51, 109
1, 9395, Note_on_c, 0, 53, 110
1, 9562, Note_off_c, 0, 53, 110
1, 9619, Note_on_c, 0, 57, 115
1, 9769, Note_off_c, 0, 57, 115
1, 9780, Note_on_c, 0, 60, 120
1, 9935, Note_off_c, 0, 60, 120
1, 9975, Note_on_c, 0, 62, 116
1, 10142, Note_off_c, 0, 62, 116
1, 10182, Note_on_c, 0, 64, 116
1, 10366, Note_off_c, 0, 64, 116
1, 10371, Note_on_c, 0, 67, 115
1, 10544, Note_off_c, 0, 67, 115
1, 10544, Note_on_c, 0, 65, 108
1, 10580, Note_off_c, 0, 65, 108
1, 10600, Note_on_c, 0, 67, 117
1, 10685, Note_off_c, 0, 67, 117
1, 10697, Note_on_c, 0, 65, 108
1, 10757, Note_off_c, 0, 65, 108
1, 10765, Note_on_c, 0, 62, 109
1, 10927, Note_off_c, 0, 62, 109
1, 10959, Note_on_c, 0, 64, 115
1, 11125, Note_off_c, 0, 64, 115
1, 11177, Note_on_c, 0, 60, 114
1, 11351, Note_off_c, 0, 60, 114
1, 11359, Note_on_c, 0, 57, 101
1, 11541, Note_off_c, 0, 57, 101
1, 11597, Note_on_c, 0, 62, 107
1, 12132, Note_off_c, 0, 62, 107
1, 12172, Note_on_c, 0, 58, 102
1, 12366, Note_off_c, 0, 58, 102
1, 12430, Note_on_c, 0, 53, 97
1, 12580, Note_off_c, 0, 53, 97
1, 12657, Note_on_c, 0, 57, 107
1, 12811, Note_off_c, 0, 57, 107
1, 12904, Note_on_c, 0, 52, 89
1, 13025, Note_off_c, 0, 52, 89
1, 13077, Note_on_c, 0, 55, 103
1, 13243, Note_off_c, 0, 55, 103
1, 13267, Note_on_c, 0, 53, 102
1, 13392, Note_off_c, 0, 53, 102
1, 13436, Note_on_c, 0, 50, 84
1, 13825, Note_off_c, 0, 50, 84
1, 14502, Note_on_c, 0, 53, 114
1, 14660, Note_off_c, 0, 53, 114
1, 14672, Note_on_c, 0, 57, 113
1, 14793, Note_off_c, 0, 57, 113
1, 14793, Note_on_c, 0, 60, 117
1, 14890, Note_off_c, 0, 60, 117
1, 14930, Note_on_c, 0, 62, 113
1, 15067, Note_off_c, 0, 62, 113
1, 15095, Note_on_c, 0, 64, 112
1, 15314, Note_off_c, 0, 64, 112
1, 15334, Note_on_c, 0, 67, 120
1, 15504, Note_off_c, 0, 67, 120
1, 15528, Note_on_c, 0, 65, 116
1, 15718, Note_off_c, 0, 65, 116
1, 15758, Note_on_c, 0, 60, 118
1, 15960, Note_off_c, 0, 60, 118
1, 15980, Note_on_c, 0, 67, 109
1, 16020, Note_off_c, 0, 67, 109
1, 16024, Note_on_c, 0, 68, 112
1, 16210, Note_off_c, 0, 68, 112
1, 16242, Note_on_c, 0, 67, 110
1, 16290, Note_on_c, 0, 68, 110
1, 16290, Note_off_c, 0, 67, 110
1, 16419, Note_off_c, 0, 68, 110
1, 16419, Note_on_c, 0, 65, 105
1, 16585, Note_off_c, 0, 65, 105
1, 16609, Note_on_c, 0, 58, 103
1, 16771, Note_off_c, 0, 58, 103
1, 16771, Note_on_c, 0, 62, 94
1, 16795, Note_off_c, 0, 62, 94
1, 16807, Note_on_c, 0, 63, 112
1, 16977, Note_off_c, 0, 63, 112
1, 16989, Note_on_c, 0, 62, 86
1, 17029, Note_off_c, 0, 62, 86
1, 17041, Note_on_c, 0, 63, 111
1, 17183, Note_off_c, 0, 63, 111
1, 17183, Note_on_c, 0, 61, 104
1, 17807, Note_off_c, 0, 61, 104
1, 18407, Note_on_c, 0, 67, 115
1, 18459, Note_on_c, 0, 68, 115
1, 18459, Note_off_c, 0, 67, 115
1, 18600, Note_off_c, 0, 68, 115
1, 18652, Note_on_c, 0, 67, 114
1, 18696, Note_off_c, 0, 67, 114
1, 18700, Note_on_c, 0, 68, 112
1, 18825, Note_off_c, 0, 68, 112
1, 18861, Note_on_c, 0, 65, 112
1, 19039, Note_off_c, 0, 65, 112
1, 19055, Note_on_c, 0, 58, 107
1, 19253, Note_off_c, 0, 58, 107
1, 19273, Note_on_c, 0, 62, 112
1, 19313, Note_off_c, 0, 62, 112
1, 19313, Note_on_c, 0, 63, 112
1, 19467, Note_off_c, 0, 63, 112
1, 19495, Note_on_c, 0, 62, 93
1, 19527, Note_off_c, 0, 62, 93
1, 19539, Note_on_c, 0, 63, 106
1, 19693, Note_off_c, 0, 63, 106
1, 19709, Note_on_c, 0, 61, 112
1, 20090, Note_off_c, 0, 61, 112
1, 20090, Note_on_c, 0, 57, 105
1, 20130, Note_off_c, 0, 57, 105
1, 20130, Note_on_c, 0, 58, 97
1, 20288, Note_off_c, 0, 58, 97
1, 20332, Note_on_c, 0, 57, 99
1, 20376, Note_off_c, 0, 57, 99
1, 20380, Note_on_c, 0, 58, 99
1, 20509, Note_off_c, 0, 58, 99
1, 20509, Note_on_c, 0, 56, 108
1, 20788, Note_off_c, 0, 56, 108
1, 20788, Note_on_c, 0, 49, 84
1, 20909, Note_off_c, 0, 49, 84
1, 20921, Note_on_c, 0, 52, 99
1, 20961, Note_off_c, 0, 52, 99
1, 20961, Note_on_c, 0, 53, 97
1, 21103, Note_off_c, 0, 53, 97
1, 21155, Note_on_c, 0, 52, 89
1, 21211, Note_off_c, 0, 52, 89
1, 21227, Note_on_c, 0, 53, 91
1, 21356, Note_off_c, 0, 53, 91
1, 21356, Note_on_c, 0, 51, 86
1, 21769, Note_off_c, 0, 51, 86
1, 22044, Note_on_c, 0, 49, 97
1, 22117, Note_off_c, 0, 49, 97
1, 22141, Note_on_c, 0, 51, 98
1, 22205, Note_off_c, 0, 51, 98
1, 22233, Note_on_c, 0, 58, 95
1, 22342, Note_off_c, 0, 58, 95
1, 22354, Note_on_c, 0, 56, 96
1, 22564, Note_off_c, 0, 56, 96
1, 22706, Note_on_c, 0, 55, 95
1, 22900, Note_off_c, 0, 55, 95
1, 22960, Note_on_c, 0, 55, 97
1, 23093, Note_off_c, 0, 55, 97
1, 23125, Note_on_c, 0, 53, 93
1, 23291, Note_off_c, 0, 53, 93
1, 23352, Note_on_c, 0, 48, 91
1, 23940, Note_off_c, 0, 48, 91
1, 24466, Note_on_c, 0, 57, 119
1, 24636, Note_off_c, 0, 57, 119
1, 24640, Note_on_c, 0, 60, 117
1, 24777, Note_off_c, 0, 60, 117
1, 24801, Note_on_c, 0, 62, 115
1, 24938, Note_off_c, 0, 62, 115
1, 24962, Note_on_c, 0, 64, 119
1, 25144, Note_off_c, 0, 64, 119
1, 25156, Note_on_c, 0, 67, 121
1, 25362, Note_off_c, 0, 67, 121
1, 25390, Note_on_c, 0, 64, 118
1, 25536, Note_off_c, 0, 64, 118
1, 25556, Note_on_c, 0, 65, 112
1, 25775, Note_off_c, 0, 65, 112
1, 25775, Note_on_c, 0, 69, 116
1, 26026, Note_off_c, 0, 69, 116
1, 26026, Note_on_c, 0, 73, 107
1, 26070, Note_off_c, 0, 73, 107
1, 26070, Note_on_c, 0, 74, 115
1, 26264, Note_off_c, 0, 74, 115
1, 26280, Note_on_c, 0, 73, 108
1, 26446, Note_off_c, 0, 73, 108
1, 26462, Note_on_c, 0, 72, 114
1, 26612, Note_off_c, 0, 72, 114
1, 26616, Note_on_c, 0, 69, 115
1, 26721, Note_off_c, 0, 69, 115
1, 26753, Note_on_c, 0, 64, 112
1, 26911, Note_off_c, 0, 64, 112
1, 26915, Note_on_c, 0, 67, 111
1, 27044, Note_off_c, 0, 67, 111
1, 27044, Note_on_c, 0, 65, 106
1, 27096, Note_off_c, 0, 65, 106
1, 27120, Note_on_c, 0, 62, 111
1, 27261, Note_off_c, 0, 62, 111
1, 27289, Note_on_c, 0, 64, 110
1, 27406, Note_off_c, 0, 64, 110
1, 27414, Note_on_c, 0, 60, 106
1, 27527, Note_off_c, 0, 60, 106
1, 27563, Note_on_c, 0, 57, 92
1, 28147, Note_off_c, 0, 57, 92
1, 28650, Note_on_c, 0, 55, 119
1, 28698, Note_off_c, 0, 55, 119
1, 28698, Note_on_c, 0, 56, 120
1, 28864, Note_off_c, 0, 56, 120
1, 28908, Note_on_c, 0, 55, 118
1, 28936, Note_off_c, 0, 55, 118
1, 28936, Note_on_c, 0, 56, 116
1, 29086, Note_off_c, 0, 56, 116
1, 29114, Note_on_c, 0, 55, 115
1, 29298, Note_off_c, 0, 55, 115
1, 29321, Note_on_c, 0, 60, 118
1, 29390, Note_off_c, 0, 60, 118
1, 29390, Note_on_c, 0, 63, 100
1, 31005, Note_off_c, 0, 63, 100
1, 31189, Note_on_c, 0, 62, 104
1, 31310, Note_off_c, 0, 62, 104
1, 31346, Note_on_c, 0, 60, 112
1, 31500, Note_off_c, 0, 60, 112
1, 31516, Note_on_c, 0, 58, 104
1, 31670, Note_off_c, 0, 58, 104
1, 31706, Note_on_c, 0, 57, 107
1, 31868, Note_off_c, 0, 57, 107
1, 31936, Note_on_c, 0, 55, 100
1, 32126, Note_off_c, 0, 55, 100
1, 32178, Note_on_c, 0, 51, 97
1, 32348, Note_off_c, 0, 51, 97
1, 32372, Note_on_c, 0, 48, 86
1, 32465, Note_off_c, 0, 48, 86
1, 32517, Note_on_c, 0, 50, 91
1, 32683, Note_off_c, 0, 50, 91
1, 32747, Note_on_c, 0, 54, 100
1, 32889, Note_off_c, 0, 54, 100
1, 32921, Note_on_c, 0, 57, 84
1, 33586, Note_off_c, 0, 57, 84
1, 33902, Note_on_c, 0, 55, 108
1, 34344, Note_off_c, 0, 55, 108
1, 34396, Note_on_c, 0, 57, 112
1, 34505, Note_off_c, 0, 57, 112
1, 34533, Note_on_c, 0, 60, 117
1, 34679, Note_off_c, 0, 60, 117
1, 34764, Note_on_c, 0, 62, 113
1, 34934, Note_off_c, 0, 62, 113
1, 34962, Note_on_c, 0, 63, 114
1, 35120, Note_off_c, 0, 63, 114
1, 35132, Note_on_c, 0, 62, 110
1, 35541, Note_off_c, 0, 62, 110
1, 35557, Note_on_c, 0, 60, 112
1, 35723, Note_off_c, 0, 60, 112
1, 35743, Note_on_c, 0, 58, 100
1, 35856, Note_off_c, 0, 58, 100
1, 35920, Note_on_c, 0, 54, 103
1, 36009, Note_off_c, 0, 54, 103
1, 36037, Note_on_c, 0, 57, 102
1, 36126, Note_off_c, 0, 57, 102
1, 36150, Note_on_c, 0, 55, 98
1, 36231, Note_off_c, 0, 55, 98
1, 36275, Note_on_c, 0, 51, 97
1, 36425, Note_off_c, 0, 51, 97
1, 36433, Note_on_c, 0, 50, 89
1, 36822, Note_off_c, 0, 50, 89
1, 37296, Note_on_c, 0, 51, 108
1, 37478, Note_off_c, 0, 51, 108
1, 37506, Note_on_c, 0, 50, 98
1, 37692, Note_off_c, 0, 50, 98
1, 37760, Note_on_c, 0, 56, 100
1, 37885, Note_off_c, 0, 56, 100
1, 37885, Note_on_c, 0, 58, 86
1, 38923, Note_off_c, 0, 58, 86
1, 39430, Note_on_c, 0, 49, 109
1, 39645, Note_off_c, 0, 49, 109
1, 39661, Note_on_c, 0, 52, 107
1, 39855, Note_off_c, 0, 52, 107
1, 39879, Note_on_c, 0, 55, 115
1, 40089, Note_off_c, 0, 55, 115
1, 40105, Note_on_c, 0, 58, 118
1, 40259, Note_off_c, 0, 58, 118
1, 40259, Note_on_c, 0, 60, 119
1, 40396, Note_off_c, 0, 60, 119
1, 40416, Note_on_c, 0, 61, 118
1, 40566, Note_off_c, 0, 61, 118
1, 40586, Note_on_c, 0, 58, 103
1, 40727, Note_off_c, 0, 58, 103
1, 40735, Note_on_c, 0, 52, 103
1, 40856, Note_off_c, 0, 52, 103
1, 40924, Note_on_c, 0, 49, 102
1, 41070, Note_off_c, 0, 49, 102
1, 41098, Note_on_c, 0, 48, 98
1, 41235, Note_off_c, 0, 48, 98
1, 41239, Note_on_c, 0, 57, 103
1, 41376, Note_off_c, 0, 57, 103
1, 41376, Note_on_c, 0, 52, 89
1, 41440, Note_off_c, 0, 52, 89
1, 41496, Note_on_c, 0, 57, 108
1, 41646, Note_off_c, 0, 57, 108
1, 41650, Note_on_c, 0, 52, 89
1, 41714, Note_off_c, 0, 52, 89
1, 41746, Note_on_c, 0, 55, 100
1, 41802, Note_off_c, 0, 55, 100
1, 41826, Note_on_c, 0, 52, 89
1, 41911, Note_off_c, 0, 52, 89
1, 41939, Note_on_c, 0, 54, 90
1, 42470, Note_off_c, 0, 54, 90
1, 42891, Note_on_c, 0, 57, 120
1, 43045, Note_off_c, 0, 57, 120
1, 43097, Note_on_c, 0, 54, 116
1, 43291, Note_off_c, 0, 54, 116
1, 43299, Note_on_c, 0, 55, 113
1, 43473, Note_off_c, 0, 55, 113
1, 43477, Note_on_c, 0, 57, 117
1, 43639, Note_off_c, 0, 57, 117
1, 43663, Note_on_c, 0, 58, 115
1, 43809, Note_off_c, 0, 58, 115
1, 43821, Note_on_c, 0, 60, 116
1, 44027, Note_on_c, 0, 62, 116
1, 44027, Note_off_c, 0, 60, 116
1, 44233, Note_off_c, 0, 62, 116
1, 44273, Note_on_c, 0, 64, 116
1, 44471, Note_off_c, 0, 64, 116
1, 44531, Note_on_c, 0, 69, 115
1, 44741, Note_off_c, 0, 69, 115
1, 44765, Note_on_c, 0, 66, 116
1, 44947, Note_off_c, 0, 66, 116
1, 44951, Note_on_c, 0, 67, 108
1, 45153, Note_off_c, 0, 67, 108
1, 45157, Note_on_c, 0, 62, 111
1, 45335, Note_off_c, 0, 62, 111
1, 45339, Note_on_c, 0, 58, 104
1, 45485, Note_off_c, 0, 58, 104
1, 45541, Note_on_c, 0, 55, 104
1, 45739, Note_off_c, 0, 55, 104
1, 45747, Note_on_c, 0, 61, 110
1, 45962, Note_off_c, 0, 61, 110
1, 45966, Note_on_c, 0, 57, 100
1, 46075, Note_off_c, 0, 57, 100
1, 46075, Note_on_c, 0, 60, 96
1, 46565, Note_off_c, 0, 60, 96
1, 47023, Note_on_c, 0, 56, 103
1, 47087, Note_off_c, 0, 56, 103
1, 47095, Note_on_c, 0, 58, 106
1, 47155, Note_off_c, 0, 58, 106
1, 47195, Note_on_c, 0, 60, 96
1, 47913, Note_off_c, 0, 60, 96
1, 47969, Note_on_c, 0, 59, 108
1, 48025, Note_off_c, 0, 59, 108
1, 48033, Note_on_c, 0, 58, 107
1, 48154, Note_off_c, 0, 58, 107
1, 48194, Note_on_c, 0, 53, 92
1, 48725, Note_off_c, 0, 53, 92
1, 49337, Note_on_c, 0, 57, 123
1, 49511, Note_off_c, 0, 57, 123
1, 49511, Note_on_c, 0, 60, 119
1, 49677, Note_off_c, 0, 60, 119
1, 49709, Note_on_c, 0, 62, 114
1, 49891, Note_off_c, 0, 62, 114
1, 49891, Note_on_c, 0, 64, 117
1, 50061, Note_off_c, 0, 64, 117
1, 50093, Note_on_c, 0, 60, 117
1, 50263, Note_off_c, 0, 60, 117
1, 50299, Note_on_c, 0, 57, 110
1, 50457, Note_off_c, 0, 57, 110
1, 50497, Note_on_c, 0, 52, 96
1, 50679, Note_off_c, 0, 52, 96
1, 50743, Note_on_c, 0, 51, 100
1, 50933, Note_off_c, 0, 51, 100
1, 50949, Note_on_c, 0, 56, 104
1, 51184, Note_off_c, 0, 56, 104
1, 51204, Note_on_c, 0, 65, 99
1, 51382, Note_off_c, 0, 65, 99
1, 51414, Note_on_c, 0, 63, 107
1, 51568, Note_off_c, 0, 63, 107
1, 51592, Note_on_c, 0, 56, 87
1, 52330, Note_off_c, 0, 56, 87
1, 52662, Note_on_c, 0, 55, 110
1, 52848, Note_off_c, 0, 55, 110
1, 52872, Note_on_c, 0, 62, 109
1, 53014, Note_off_c, 0, 62, 109
1, 53026, Note_on_c, 0, 55, 98
1, 53196, Note_off_c, 0, 55, 98
1, 53232, Note_on_c, 0, 53, 92
1, 53438, Note_off_c, 0, 53, 92
1, 53470, Note_on_c, 0, 54, 107
1, 53652, Note_off_c, 0, 54, 107
1, 53652, Note_on_c, 0, 62, 99
1, 53850, Note_off_c, 0, 62, 99
1, 53886, Note_on_c, 0, 58, 101
1, 54040, Note_off_c, 0, 58, 101
1, 54040, Note_on_c, 0, 54, 99
1, 54226, Note_off_c, 0, 54, 99
1, 54311, Note_on_c, 0, 53, 98
1, 54469, Note_off_c, 0, 53, 98
1, 54469, Note_on_c, 0, 62, 99
1, 54623, Note_off_c, 0, 62, 99
1, 54675, Note_on_c, 0, 58, 98
1, 54849, Note_off_c, 0, 58, 98
1, 54873, Note_on_c, 0, 53, 98
1, 55014, Note_off_c, 0, 53, 98
1, 55062, Note_on_c, 0, 50, 80
1, 55155, Note_off_c, 0, 50, 80
1, 55167, Note_on_c, 0, 53, 90
1, 55304, Note_off_c, 0, 53, 90
1, 55342, Note_on_c, 0, 50, 88
1, 55399, Note_off_c, 0, 50, 88
1, 55410, Note_on_c, 0, 53, 92
1, 55467, Note_off_c, 0, 53, 92
1, 55478, Note_on_c, 0, 50, 82
1, 55570, Note_off_c, 0, 50, 82
1, 55649, Note_on_c, 0, 52, 79
1, 55908, Note_off_c, 0, 52, 79
1, 55932, Note_on_c, 0, 60, 94
1, 56061, Note_off_c, 0, 60, 94
1, 56093, Note_on_c, 0, 57, 85
1, 56701, Note_off_c, 0, 57, 85
1, 57382, Note_on_c, 0, 55, 117
1, 57568, Note_off_c, 0, 55, 117
1, 57576, Note_on_c, 0, 52, 105
1, 57734, Note_off_c, 0, 52, 105
1, 57758, Note_on_c, 0, 53, 113
1, 57916, Note_off_c, 0, 53, 113
1, 57924, Note_on_c, 0, 57, 118
1, 58061, Note_off_c, 0, 57, 118
1, 58061, Note_on_c, 0, 60, 117
1, 58203, Note_off_c, 0, 60, 117
1, 58207, Note_on_c, 0, 62, 116
1, 58349, Note_off_c, 0, 62, 116
1, 58357, Note_on_c, 0, 64, 116
1, 58511, Note_off_c, 0, 64, 116
1, 58511, Note_on_c, 0, 67, 111
1, 58652, Note_on_c, 0, 65, 109
1, 58652, Note_off_c, 0, 67, 111
1, 58684, Note_off_c, 0, 65, 109
1, 58724, Note_on_c, 0, 67, 116
1, 58780, Note_off_c, 0, 67, 116
1, 58800, Note_on_c, 0, 65, 111
1, 58889, Note_off_c, 0, 65, 111
1, 58889, Note_on_c, 0, 62, 112
1, 58982, Note_off_c, 0, 62, 112
1, 59038, Note_on_c, 0, 60, 114
1, 59208, Note_off_c, 0, 60, 114
1, 59228, Note_on_c, 0, 57, 109
1, 59378, Note_off_c, 0, 57, 109
1, 59414, Note_on_c, 0, 55, 103
1, 59551, Note_off_c, 0, 55, 103
1, 59571, Note_on_c, 0, 52, 94
1, 59704, Note_off_c, 0, 52, 94
1, 59736, Note_on_c, 0, 55, 105
1, 59865, Note_off_c, 0, 55, 105
1, 59889, Note_on_c, 0, 52, 93
1, 59994, Note_off_c, 0, 52, 93
1, 60022, Note_on_c, 0, 53, 88
1, 60626, Note_off_c, 0, 53, 88
1, 61027, Note_on_c, 0, 51, 111
1, 61233, Note_off_c, 0, 51, 111
1, 61253, Note_on_c, 0, 48, 104
1, 61451, Note_off_c, 0, 48, 104
1, 61471, Note_on_c, 0, 49, 107
1, 61629, Note_off_c, 0, 49, 107
1, 61629, Note_on_c, 0, 51, 111
1, 61783, Note_off_c, 0, 51, 111
1, 61783, Note_on_c, 0, 53, 109
1, 61973, Note_off_c, 0, 53, 109
1, 61993, Note_on_c, 0, 56, 113
1, 62179, Note_off_c, 0, 56, 113
1, 62183, Note_on_c, 0, 58, 109
1, 62300, Note_off_c, 0, 58, 109
1, 62308, Note_on_c, 0, 61, 26
1, 62429, Note_off_c, 0, 61, 26
1, 62461, Note_on_c, 0, 63, 124
1, 62659, Note_off_c, 0, 63, 124
1, 62683, Note_on_c, 0, 65, 120
1, 62881, Note_off_c, 0, 65, 120
1, 62905, Note_on_c, 0, 70, 122
1, 63083, Note_off_c, 0, 70, 122
1, 63103, Note_on_c, 0, 65, 117
1, 63322, Note_off_c, 0, 65, 117
1, 63338, Note_on_c, 0, 67, 110
1, 63451, Note_off_c, 0, 67, 110
1, 63451, Note_on_c, 0, 68, 111
1, 63584, Note_off_c, 0, 68, 111
1, 63600, Note_on_c, 0, 65, 113
1, 63786, Note_off_c, 0, 65, 113
1, 63810, Note_on_c, 0, 65, 108
1, 63891, Note_off_c, 0, 65, 108
1, 63907, Note_on_c, 0, 63, 120
1, 64032, Note_off_c, 0, 63, 120
1, 64044, Note_on_c, 0, 61, 114
1, 64198, Note_off_c, 0, 61, 114
1, 64198, Note_on_c, 0, 56, 103
1, 65074, Note_off_c, 0, 56, 103
1, 65272, Note_on_c, 0, 54, 115
1, 65470, Note_off_c, 0, 54, 115
1, 65514, Note_on_c, 0, 56, 120
1, 65708, Note_off_c, 0, 56, 120
1, 65732, Note_on_c, 0, 58, 116
1, 65878, Note_off_c, 0, 58, 116
1, 65878, Note_on_c, 0, 61, 120
1, 66015, Note_off_c, 0, 61, 120
1, 66047, Note_on_c, 0, 63, 127
1, 66257, Note_off_c, 0, 63, 127
1, 66325, Note_on_c, 0, 67, 116
1, 66381, Note_off_c, 0, 67, 116
1, 66381, Note_on_c, 0, 68, 103
1, 66535, Note_off_c, 0, 68, 103
1, 66547, Note_on_c, 0, 67, 108
1, 66595, Note_off_c, 0, 67, 108
1, 66595, Note_on_c, 0, 68, 110
1, 66700, Note_off_c, 0, 68, 110
1, 66700, Note_on_c, 0, 66, 114
1, 66862, Note_off_c, 0, 66, 114
1, 66862, Note_on_c, 0, 63, 125
1, 67259, Note_off_c, 0, 63, 125
1, 67275, Note_on_c, 0, 61, 114
1, 67343, Note_off_c, 0, 61, 114
1, 67363, Note_on_c, 0, 63, 119
1, 67431, Note_off_c, 0, 63, 119
1, 67439, Note_on_c, 0, 61, 119
1, 67540, Note_off_c, 0, 61, 119
1, 67540, Note_on_c, 0, 58, 104
1, 67673, Note_off_c, 0, 58, 104
1, 67685, Note_on_c, 0, 56, 114
1, 68042, Note_off_c, 0, 56, 114
1, 68050, Note_on_c, 0, 54, 105
1, 68106, Note_off_c, 0, 54, 105
1, 68118, Note_on_c, 0, 56, 102
1, 68162, Note_off_c, 0, 56, 102
1, 68214, Note_on_c, 0, 54, 104
1, 68266, Note_off_c, 0, 54, 104
1, 68290, Note_on_c, 0, 51, 99
1, 68436, Note_off_c, 0, 51, 99
1, 68480, Note_on_c, 0, 49, 88
1, 69263, Note_off_c, 0, 49, 88
1, 69506, Note_on_c, 0, 54, 113
1, 69655, Note_off_c, 0, 54, 113
1, 69655, Note_on_c, 0, 56, 106
1, 70575, Note_off_c, 0, 56, 106
1, 70693, Note_on_c, 0, 49, 102
1, 70855, Note_off_c, 0, 49, 102
1, 70895, Note_on_c, 0, 51, 107
1, 71101, Note_off_c, 0, 51, 107
1, 71129, Note_on_c, 0, 56, 117
1, 71275, Note_off_c, 0, 56, 117
1, 71275, Note_on_c, 0, 54, 110
1, 71449, Note_off_c, 0, 54, 110
1, 71457, Note_on_c, 0, 49, 108
1, 72061, Note_off_c, 0, 49, 108
1, 72129, Note_on_c, 0, 51, 102
1, 72676, Note_off_c, 0, 51, 102
1, 72787, Note_on_c, 0, 52, 88
1, 73594, Note_off_c, 0, 52, 88
1, 73628, Note_on_c, 0, 53, 102
1, 77090, Note_off_c, 0, 53, 102
1, 77090, End_track
0, 0, End_of_file
