0, 0, Header, 1, 1, 840
1, 0, Start_track
1, 0, Title_t, "Melody"
1, 0, Tempo, 566037
1, 0, Key_signature, -1, "major"
1, 0, Time_signature, 4, 2, 24, 8
1, 12403, Note_on_c, 0, 57, 118
1, 12596, Note_off_c, 0, 57, 118
1, 12626, Note_on_c, 0, 58, 117
1, 12807, Note_off_c, 0, 58, 117
1, 12825, Note_on_c, 0, 60, 110
1, 13012, Note_off_c, 0, 60, 110
1, 13012, Note_on_c, 0, 64, 115
1, 13236, Note_off_c, 0, 64, 115
1, 13260, Note_on_c, 0, 68, 108
1, 13435, Note_off_c, 0, 68, 108
1, 13441, Note_on_c, 0, 72, 116
1, 13646, Note_off_c, 0, 72, 116
1, 13652, Note_on_c, 0, 69, 109
1, 14463, Note_off_c, 0, 69, 109
1, 14503, Note_on_c, 0, 64, 115
1, 14765, Note_off_c, 0, 64, 115
1, 14801, Note_on_c, 0, 65, 112
1, 14973, Note_off_c, 0, 65, 112
1, 14988, Note_on_c, 0, 67, 100
1, 15143, Note_off_c, 0, 67, 100
1, 15153, Note_on_c, 0, 65, 107
1, 15292, Note_off_c, 0, 65, 107
1, 15315, Note_on_c, 0, 66, 106
1, 16172, Note_off_c, 0, 66, 106
1, 16216, Note_on_c, 0, 63, 117
1, 16414, Note_off_c, 0, 63, 117
1, 16442, Note_on_c, 0, 62, 120
1, 16613, Note_off_c, 0, 62, 120
1, 16619, Note_on_c, 0, 60, 112
1, 16837, Note_off_c, 0, 60, 112
1, 16849, Note_on_c, 0, 59, 106
1, 17048, Note_off_c, 0, 59, 106
1, 17097, Note_on_c, 0, 58, 96
1, 17729, Note_off_c, 0, 58, 96
1, 17747, Note_on_c, 0, 57, 107
1, 17856, Note_off_c, 0, 57, 107
1, 17887, Note_on_c, 0, 55, 97
1, 18371, Note_off_c, 0, 55, 97
1, 18425, Note_on_c, 0, 50, 105
1, 18655, Note_off_c, 0, 50, 105
1, 18695, Note_on_c, 0, 54, 101
1, 18913, Note_off_c, 0, 54, 101
1, 19004, Note_on_c, 0, 58, 101
1, 19190, Note_off_c, 0, 58, 101
1, 19221, Note_on_c, 0, 53, 100
1, 19345, Note_off_c, 0, 53, 100
1, 19391, Note_on_c, 0, 50, 90
1, 19590, Note_off_c, 0, 50, 90
1, 19621, Note_on_c, 0, 52, 93
1, 19857, Note_off_c, 0, 52, 93
1, 21322, Note_on_c, 0, 73, 102
1, 21479, Note_off_c, 0, 73, 102
1, 21496, Note_on_c, 0, 72, 111
1, 21607, Note_off_c, 0, 72, 111
1, 21610, Note_on_c, 0, 71, 109
1, 21673, Note_off_c, 0, 71, 109
1, 21696, Note_on_c, 0, 70, 113
1, 21907, Note_off_c, 0, 70, 113
1, 21948, Note_on_c, 0, 66, 105
1, 22130, Note_off_c, 0, 66, 105
1, 22147, Note_on_c, 0, 69, 101
1, 22307, Note_off_c, 0, 69, 101
1, 22329, Note_on_c, 0, 67, 103
1, 22491, Note_off_c, 0, 67, 103
1, 22527, Note_on_c, 0, 65, 106
1, 22684, Note_off_c, 0, 65, 106
1, 22713, Note_on_c, 0, 62, 113
1, 22882, Note_off_c, 0, 62, 113
1, 22909, Note_on_c, 0, 64, 122
1, 23302, Note_off_c, 0, 64, 122
1, 23330, Note_on_c, 0, 61, 116
1, 23525, Note_off_c, 0, 61, 116
1, 23539, Note_on_c, 0, 60, 108
1, 23763, Note_off_c, 0, 60, 108
1, 23766, Note_on_c, 0, 58, 107
1, 23929, Note_off_c, 0, 58, 107
1, 23955, Note_on_c, 0, 55, 104
1, 24115, Note_off_c, 0, 55, 104
1, 24127, Note_on_c, 0, 56, 102
1, 24266, Note_off_c, 0, 56, 102
1, 24295, Note_on_c, 0, 57, 103
1, 24510, Note_off_c, 0, 57, 103
1, 24946, Note_on_c, 0, 67, 97
1, 25133, Note_off_c, 0, 67, 97
1, 25157, Note_on_c, 0, 64, 101
1, 25314, Note_off_c, 0, 64, 101
1, 25332, Note_on_c, 0, 65, 102
1, 25974, Note_off_c, 0, 65, 102
1, 25986, Note_on_c, 0, 62, 111
1, 26167, Note_off_c, 0, 62, 111
1, 26227, Note_on_c, 0, 58, 102
1, 26367, Note_off_c, 0, 58, 102
1, 26436, Note_on_c, 0, 55, 100
1, 26623, Note_off_c, 0, 55, 100
1, 26648, Note_on_c, 0, 52, 100
1, 26793, Note_off_c, 0, 52, 100
1, 27050, Note_on_c, 0, 55, 108
1, 27194, Note_off_c, 0, 55, 108
1, 27218, Note_on_c, 0, 52, 104
1, 27412, Note_off_c, 0, 52, 104
1, 27438, Note_on_c, 0, 53, 110
1, 27656, Note_off_c, 0, 53, 110
1, 27681, Note_on_c, 0, 57, 104
1, 27849, Note_off_c, 0, 57, 104
1, 27866, Note_on_c, 0, 60, 105
1, 28023, Note_off_c, 0, 60, 105
1, 28067, Note_on_c, 0, 62, 114
1, 28211, Note_off_c, 0, 62, 114
1, 28228, Note_on_c, 0, 63, 115
1, 28415, Note_off_c, 0, 63, 115
1, 28442, Note_on_c, 0, 65, 97
1, 28671, Note_off_c, 0, 65, 97
1, 28711, Note_on_c, 0, 67, 72
1, 29712, Note_off_c, 0, 67, 72
1, 30894, Note_on_c, 0, 65, 115
1, 31221, Note_off_c, 0, 65, 115
1, 31266, Note_on_c, 0, 69, 113
1, 31552, Note_off_c, 0, 69, 113
1, 31570, Note_on_c, 0, 72, 115
1, 31821, Note_off_c, 0, 72, 115
1, 31839, Note_on_c, 0, 70, 112
1, 32117, Note_off_c, 0, 70, 112
1, 32144, Note_on_c, 0, 65, 109
1, 32383, Note_off_c, 0, 65, 109
1, 32434, Note_on_c, 0, 63, 117
1, 32664, Note_off_c, 0, 63, 117
1, 32745, Note_on_c, 0, 61, 112
1, 32981, Note_off_c, 0, 61, 112
1, 32981, Note_on_c, 0, 58, 101
1, 33193, Note_off_c, 0, 58, 101
1, 33211, Note_on_c, 0, 53, 104
1, 33447, Note_off_c, 0, 53, 104
1, 33475, Note_on_c, 0, 49, 100
1, 33720, Note_off_c, 0, 49, 100
1, 33732, Note_on_c, 0, 48, 91
1, 33974, Note_off_c, 0, 48, 91
1, 33987, Note_on_c, 0, 55, 103
1, 34236, Note_off_c, 0, 55, 103
1, 34257, Note_on_c, 0, 52, 100
1, 34458, Note_off_c, 0, 52, 100
1, 34491, Note_on_c, 0, 53, 105
1, 34704, Note_off_c, 0, 53, 105
1, 34793, Note_on_c, 0, 60, 84
1, 35095, Note_off_c, 0, 60, 84
1, 35125, Note_on_c, 0, 57, 101
1, 35427, Note_off_c, 0, 57, 101
1, 35445, Note_on_c, 0, 58, 106
1, 35650, Note_off_c, 0, 58, 106
1, 35711, Note_on_c, 0, 52, 103
1, 35983, Note_off_c, 0, 52, 103
1, 36006, Note_on_c, 0, 56, 97
1, 36283, Note_off_c, 0, 56, 97
1, 36313, Note_on_c, 0, 60, 88
1, 37045, Note_off_c, 0, 60, 88
1, 37912, Note_on_c, 0, 55, 105
1, 38227, Note_off_c, 0, 55, 105
1, 38245, Note_on_c, 0, 57, 109
1, 38484, Note_off_c, 0, 57, 109
1, 38497, Note_on_c, 0, 65, 105
1, 39520, Note_off_c, 0, 65, 105
1, 39539, Note_on_c, 0, 66, 101
1, 39613, Note_off_c, 0, 66, 101
1, 39628, Note_on_c, 0, 65, 113
1, 39735, Note_off_c, 0, 65, 113
1, 39756, Note_on_c, 0, 62, 116
1, 39949, Note_off_c, 0, 62, 116
1, 39985, Note_on_c, 0, 64, 118
1, 40190, Note_off_c, 0, 64, 118
1, 40223, Note_on_c, 0, 60, 109
1, 40385, Note_off_c, 0, 60, 109
1, 40444, Note_on_c, 0, 55, 102
1, 40612, Note_off_c, 0, 55, 102
1, 40663, Note_on_c, 0, 52, 103
1, 40831, Note_off_c, 0, 52, 103
1, 40849, Note_on_c, 0, 55, 105
1, 41036, Note_off_c, 0, 55, 105
1, 41075, Note_on_c, 0, 52, 105
1, 41240, Note_off_c, 0, 52, 105
1, 41256, Note_on_c, 0, 53, 107
1, 41409, Note_off_c, 0, 53, 107
1, 41421, Note_on_c, 0, 57, 110
1, 41602, Note_off_c, 0, 57, 110
1, 41629, Note_on_c, 0, 60, 98
1, 43003, Note_off_c, 0, 60, 98
1, 43362, Note_on_c, 0, 59, 114
1, 43512, Note_off_c, 0, 59, 114
1, 43523, Note_on_c, 0, 60, 115
1, 43691, Note_off_c, 0, 60, 115
1, 43724, Note_on_c, 0, 61, 109
1, 43978, Note_off_c, 0, 61, 109
1, 44030, Note_on_c, 0, 62, 111
1, 44260, Note_off_c, 0, 62, 111
1, 44308, Note_on_c, 0, 65, 106
1, 44495, Note_off_c, 0, 65, 106
1, 44511, Note_on_c, 0, 62, 110
1, 44829, Note_off_c, 0, 62, 110
1, 44862, Note_on_c, 0, 64, 115
1, 45196, Note_off_c, 0, 64, 115
1, 45213, Note_on_c, 0, 67, 97
1, 45440, Note_off_c, 0, 67, 97
1, 45629, Note_on_c, 0, 72, 90
1, 46701, Note_off_c, 0, 72, 90
1, 48132, Note_on_c, 0, 74, 108
1, 48263, Note_off_c, 0, 74, 108
1, 48282, Note_on_c, 0, 73, 110
1, 48409, Note_off_c, 0, 73, 110
1, 48416, Note_on_c, 0, 72, 116
1, 48535, Note_off_c, 0, 72, 116
1, 48546, Note_on_c, 0, 71, 115
1, 48642, Note_off_c, 0, 71, 115
1, 48659, Note_on_c, 0, 70, 110
1, 49591, Note_off_c, 0, 70, 110
1, 49613, Note_on_c, 0, 67, 107
1, 49804, Note_off_c, 0, 67, 107
1, 49818, Note_on_c, 0, 66, 109
1, 50017, Note_off_c, 0, 66, 109
1, 50029, Note_on_c, 0, 63, 114
1, 50210, Note_off_c, 0, 63, 114
1, 50220, Note_on_c, 0, 61, 106
1, 50418, Note_off_c, 0, 61, 106
1, 50439, Note_on_c, 0, 57, 98
1, 50560, Note_off_c, 0, 57, 98
1, 50578, Note_on_c, 0, 54, 103
1, 50747, Note_off_c, 0, 54, 103
1, 50781, Note_on_c, 0, 51, 104
1, 51013, Note_off_c, 0, 51, 104
1, 51042, Note_on_c, 0, 49, 99
1, 51169, Note_off_c, 0, 49, 99
1, 51178, Note_on_c, 0, 48, 92
1, 51348, Note_off_c, 0, 48, 92
1, 51395, Note_on_c, 0, 55, 106
1, 51619, Note_off_c, 0, 55, 106
1, 51658, Note_on_c, 0, 52, 107
1, 51809, Note_off_c, 0, 52, 107
1, 51827, Note_on_c, 0, 53, 103
1, 52137, Note_off_c, 0, 53, 103
1, 52229, Note_on_c, 0, 62, 115
1, 52816, Note_off_c, 0, 62, 115
1, 52846, Note_on_c, 0, 57, 110
1, 53094, Note_off_c, 0, 57, 110
1, 53140, Note_on_c, 0, 60, 104
1, 53806, Note_off_c, 0, 60, 104
1, 54678, Note_on_c, 0, 67, 111
1, 54873, Note_off_c, 0, 67, 111
1, 54885, Note_on_c, 0, 63, 114
1, 55119, Note_off_c, 0, 63, 114
1, 55196, Note_on_c, 0, 58, 100
1, 55326, Note_off_c, 0, 58, 100
1, 55346, Note_on_c, 0, 59, 100
1, 55507, Note_off_c, 0, 59, 100
1, 55536, Note_on_c, 0, 62, 114
1, 55796, Note_off_c, 0, 62, 114
1, 55800, Note_on_c, 0, 60, 110
1, 56133, Note_off_c, 0, 60, 110
1, 56149, Note_on_c, 0, 61, 109
1, 56342, Note_off_c, 0, 61, 109
1, 56525, Note_on_c, 0, 57, 113
1, 56765, Note_off_c, 0, 57, 113
1, 56787, Note_on_c, 0, 55, 106
1, 57017, Note_off_c, 0, 55, 106
1, 57047, Note_on_c, 0, 51, 107
1, 57289, Note_off_c, 0, 51, 107
1, 57337, Note_on_c, 0, 50, 108
1, 57645, Note_off_c, 0, 50, 108
1, 57681, Note_on_c, 0, 53, 109
1, 57977, Note_off_c, 0, 53, 109
1, 58052, Note_on_c, 0, 58, 99
1, 58373, Note_off_c, 0, 58, 99
1, 58373, Note_on_c, 0, 60, 88
1, 59246, Note_off_c, 0, 60, 88
1, 59271, Note_on_c, 0, 58, 108
1, 59610, Note_off_c, 0, 58, 108
1, 59658, Note_on_c, 0, 53, 90
1, 60651, Note_off_c, 0, 53, 90
1, 61352, Note_on_c, 0, 56, 113
1, 61444, Note_off_c, 0, 56, 113
1, 61450, Note_on_c, 0, 57, 121
1, 61589, Note_off_c, 0, 57, 121
1, 61658, Note_on_c, 0, 58, 116
1, 61835, Note_off_c, 0, 58, 116
1, 61874, Note_on_c, 0, 57, 113
1, 62043, Note_off_c, 0, 57, 113
1, 62068, Note_on_c, 0, 53, 110
1, 62334, Note_off_c, 0, 53, 110
1, 62386, Note_on_c, 0, 50, 109
1, 62640, Note_off_c, 0, 50, 109
1, 62664, Note_on_c, 0, 52, 112
1, 62930, Note_off_c, 0, 52, 112
1, 62939, Note_on_c, 0, 55, 108
1, 63150, Note_off_c, 0, 55, 108
1, 63215, Note_on_c, 0, 60, 112
1, 63502, Note_off_c, 0, 60, 112
1, 63724, Note_on_c, 0, 57, 119
1, 63976, Note_off_c, 0, 57, 119
1, 64139, Note_on_c, 0, 53, 104
1, 64836, Note_off_c, 0, 53, 104
1, 65998, Note_on_c, 0, 54, 121
1, 66076, Note_off_c, 0, 54, 121
1, 66085, Note_on_c, 0, 55, 127
1, 66240, Note_off_c, 0, 55, 127
1, 66256, Note_on_c, 0, 57, 120
1, 66545, Note_off_c, 0, 57, 120
1, 66599, Note_on_c, 0, 58, 119
1, 66845, Note_off_c, 0, 58, 119
1, 66851, Note_on_c, 0, 58, 123
1, 66971, Note_off_c, 0, 58, 123
1, 66983, Note_on_c, 0, 59, 108
1, 67073, Note_off_c, 0, 59, 108
1, 67141, Note_on_c, 0, 60, 115
1, 67317, Note_off_c, 0, 60, 115
1, 67388, Note_on_c, 0, 57, 109
1, 67498, Note_off_c, 0, 57, 109
1, 67523, Note_on_c, 0, 61, 116
1, 67716, Note_off_c, 0, 61, 116
1, 67774, Note_on_c, 0, 57, 109
1, 67870, Note_off_c, 0, 57, 109
1, 67887, Note_on_c, 0, 61, 115
1, 68019, Note_off_c, 0, 61, 115
1, 68035, Note_on_c, 0, 62, 116
1, 68443, Note_off_c, 0, 62, 116
1, 68483, Note_on_c, 0, 63, 115
1, 68744, Note_off_c, 0, 63, 115
1, 68772, Note_on_c, 0, 64, 115
1, 68999, Note_off_c, 0, 64, 115
1, 69072, Note_on_c, 0, 65, 105
1, 69224, Note_off_c, 0, 65, 105
1, 69395, Note_on_c, 0, 53, 113
1, 69691, Note_off_c, 0, 53, 113
1, 69765, Note_on_c, 0, 56, 98
1, 70613, Note_off_c, 0, 56, 98
1, 71420, Note_on_c, 0, 54, 112
1, 71715, Note_off_c, 0, 54, 112
1, 71736, Note_on_c, 0, 55, 109
1, 71899, Note_off_c, 0, 55, 109
1, 71927, Note_on_c, 0, 58, 107
1, 72119, Note_off_c, 0, 58, 107
1, 72144, Note_on_c, 0, 62, 107
1, 72345, Note_off_c, 0, 62, 107
1, 72440, Note_on_c, 0, 65, 103
1, 72636, Note_off_c, 0, 65, 103
1, 72726, Note_on_c, 0, 63, 100
1, 73028, Note_off_c, 0, 63, 100
1, 73106, Note_on_c, 0, 54, 99
1, 73978, Note_off_c, 0, 54, 99
1, 74930, Note_on_c, 0, 51, 111
1, 75208, Note_off_c, 0, 51, 111
1, 75218, Note_on_c, 0, 53, 118
1, 75434, Note_off_c, 0, 53, 118
1, 75471, Note_on_c, 0, 52, 116
1, 75705, Note_off_c, 0, 52, 116
1, 75779, Note_on_c, 0, 51, 111
1, 76106, Note_off_c, 0, 51, 111
1, 76126, Note_on_c, 0, 55, 113
1, 76367, Note_off_c, 0, 55, 113
1, 76476, Note_on_c, 0, 65, 105
1, 76657, Note_off_c, 0, 65, 105
1, 76769, Note_on_c, 0, 61, 96
1, 77043, Note_off_c, 0, 61, 96
1, 77086, Note_on_c, 0, 57, 114
1, 77263, Note_off_c, 0, 57, 114
1, 77373, Note_on_c, 0, 51, 110
1, 77633, Note_off_c, 0, 51, 110
1, 77675, Note_on_c, 0, 50, 114
1, 77909, Note_off_c, 0, 50, 114
1, 77928, Note_on_c, 0, 53, 111
1, 78249, Note_off_c, 0, 53, 111
1, 78265, Note_on_c, 0, 57, 103
1, 78544, Note_off_c, 0, 57, 103
1, 78580, Note_on_c, 0, 60, 95
1, 78971, Note_off_c, 0, 60, 95
1, 79001, Note_on_c, 0, 58, 116
1, 79266, Note_off_c, 0, 58, 116
1, 79308, Note_on_c, 0, 53, 100
1, 80610, Note_off_c, 0, 53, 100
1, 81211, Note_on_c, 0, 70, 115
1, 81430, Note_off_c, 0, 70, 115
1, 81518, Note_on_c, 0, 63, 117
1, 81649, Note_off_c, 0, 63, 117
1, 81670, Note_on_c, 0, 64, 116
1, 81883, Note_off_c, 0, 64, 116
1, 81897, Note_on_c, 0, 65, 115
1, 82133, Note_off_c, 0, 65, 115
1, 82178, Note_on_c, 0, 67, 112
1, 82457, Note_off_c, 0, 67, 112
1, 82486, Note_on_c, 0, 68, 110
1, 82740, Note_off_c, 0, 68, 110
1, 82756, Note_on_c, 0, 72, 113
1, 82989, Note_off_c, 0, 72, 113
1, 83052, Note_on_c, 0, 67, 98
1, 83851, Note_off_c, 0, 67, 98
1, 83943, Note_on_c, 0, 65, 109
1, 84118, Note_off_c, 0, 65, 109
1, 84236, Note_on_c, 0, 62, 120
1, 84484, Note_off_c, 0, 62, 120
1, 84535, Note_on_c, 0, 60, 101
1, 84740, Note_off_c, 0, 60, 101
1, 84803, Note_on_c, 0, 55, 106
1, 84894, Note_off_c, 0, 55, 106
1, 84910, Note_on_c, 0, 56, 110
1, 85082, Note_off_c, 0, 56, 110
1, 85097, Note_on_c, 0, 55, 109
1, 85292, Note_off_c, 0, 55, 109
1, 85326, Note_on_c, 0, 58, 111
1, 85538, Note_off_c, 0, 58, 111
1, 85580, Note_on_c, 0, 63, 99
1, 85752, Note_off_c, 0, 63, 99
1, 85758, Note_on_c, 0, 65, 95
1, 86277, Note_off_c, 0, 65, 95
1, 86305, Note_on_c, 0, 63, 112
1, 86501, Note_off_c, 0, 63, 112
1, 86701, Note_on_c, 0, 54, 98
1, 87421, Note_off_c, 0, 54, 98
1, 88245, Note_on_c, 0, 53, 112
1, 88487, Note_off_c, 0, 53, 112
1, 88505, Note_on_c, 0, 58, 112
1, 88632, Note_off_c, 0, 58, 112
1, 88662, Note_on_c, 0, 62, 122
1, 88874, Note_off_c, 0, 62, 122
1, 88892, Note_on_c, 0, 63, 122
1, 89061, Note_off_c, 0, 63, 122
1, 89079, Note_on_c, 0, 62, 119
1, 89333, Note_off_c, 0, 62, 119
1, 89339, Note_on_c, 0, 60, 116
1, 89544, Note_off_c, 0, 60, 116
1, 89554, Note_on_c, 0, 58, 112
1, 89705, Note_off_c, 0, 58, 112
1, 89736, Note_on_c, 0, 55, 111
1, 89984, Note_off_c, 0, 55, 111
1, 90000, Note_on_c, 0, 53, 102
1, 90381, Note_off_c, 0, 53, 102
1, 90401, Note_on_c, 0, 52, 103
1, 90691, Note_off_c, 0, 52, 103
1, 90921, Note_on_c, 0, 51, 84
1, 91066, Note_off_c, 0, 51, 84
1, 91066, Note_on_c, 0, 49, 106
1, 91193, Note_off_c, 0, 49, 106
1, 91210, Note_on_c, 0, 50, 113
1, 91524, Note_off_c, 0, 50, 113
1, 91586, Note_on_c, 0, 58, 109
1, 92292, Note_off_c, 0, 58, 109
1, 92325, Note_on_c, 0, 55, 115
1, 92512, Note_off_c, 0, 55, 115
1, 92531, Note_on_c, 0, 56, 115
1, 92706, Note_off_c, 0, 56, 115
1, 92782, Note_on_c, 0, 60, 107
1, 92867, Note_off_c, 0, 60, 107
1, 92884, Note_on_c, 0, 63, 117
1, 93114, Note_off_c, 0, 63, 117
1, 93163, Note_on_c, 0, 67, 108
1, 93290, Note_off_c, 0, 67, 108
1, 93313, Note_on_c, 0, 66, 104
1, 93482, Note_off_c, 0, 66, 104
1, 95024, Note_on_c, 0, 63, 116
1, 95228, Note_off_c, 0, 63, 116
1, 95252, Note_on_c, 0, 65, 104
1, 96693, Note_off_c, 0, 65, 104
1, 96717, Note_on_c, 0, 66, 99
1, 96795, Note_off_c, 0, 66, 99
1, 96816, Note_on_c, 0, 69, 111
1, 97076, Note_off_c, 0, 69, 111
1, 97122, Note_on_c, 0, 60, 99
1, 98560, Note_off_c, 0, 60, 99
1, 98886, Note_on_c, 0, 63, 115
1, 99011, Note_off_c, 0, 63, 115
1, 99035, Note_on_c, 0, 65, 117
1, 99296, Note_off_c, 0, 65, 117
1, 99385, Note_on_c, 0, 62, 117
1, 99433, Note_off_c, 0, 62, 117
1, 99438, Note_on_c, 0, 63, 120
1, 99487, Note_off_c, 0, 63, 120
1, 99502, Note_on_c, 0, 64, 113
1, 99576, Note_off_c, 0, 64, 113
1, 99584, Note_on_c, 0, 63, 116
1, 99772, Note_off_c, 0, 63, 116
1, 99812, Note_on_c, 0, 61, 116
1, 99934, Note_off_c, 0, 61, 116
1, 100009, Note_on_c, 0, 62, 119
1, 100256, Note_off_c, 0, 62, 119
1, 100268, Note_on_c, 0, 63, 119
1, 100685, Note_off_c, 0, 63, 119
1, 100734, Note_on_c, 0, 61, 118
1, 100858, Note_off_c, 0, 61, 118
1, 100883, Note_on_c, 0, 63, 111
1, 101027, Note_off_c, 0, 63, 111
1, 101100, Note_on_c, 0, 60, 98
1, 102452, Note_off_c, 0, 60, 98
1, 102974, Note_on_c, 0, 58, 111
1, 103281, Note_off_c, 0, 58, 111
1, 103296, Note_on_c, 0, 60, 97
1, 103498, Note_off_c, 0, 60, 97
1, 103510, Note_on_c, 0, 56, 114
1, 103811, Note_off_c, 0, 56, 114
1, 103831, Note_on_c, 0, 57, 100
1, 105157, Note_off_c, 0, 57, 100
1, 105166, Note_on_c, 0, 55, 112
1, 105331, Note_off_c, 0, 55, 112
1, 105355, Note_on_c, 0, 57, 114
1, 105473, Note_off_c, 0, 57, 114
1, 105550, Note_on_c, 0, 48, 103
1, 106695, Note_off_c, 0, 48, 103
1, 107250, Note_on_c, 0, 55, 116
1, 107465, Note_off_c, 0, 55, 116
1, 107510, Note_on_c, 0, 52, 116
1, 107641, Note_off_c, 0, 52, 116
1, 107655, Note_on_c, 0, 53, 117
1, 107880, Note_off_c, 0, 53, 117
1, 107893, Note_on_c, 0, 57, 119
1, 108015, Note_off_c, 0, 57, 119
1, 108076, Note_on_c, 0, 60, 117
1, 108257, Note_off_c, 0, 60, 117
1, 108277, Note_on_c, 0, 63, 120
1, 108476, Note_off_c, 0, 63, 120
1, 108528, Note_on_c, 0, 67, 114
1, 108713, Note_off_c, 0, 67, 114
1, 108722, Note_on_c, 0, 63, 119
1, 108993, Note_off_c, 0, 63, 119
1, 109051, Note_on_c, 0, 58, 109
1, 109197, Note_off_c, 0, 58, 109
1, 109220, Note_on_c, 0, 59, 114
1, 109363, Note_off_c, 0, 59, 114
1, 109368, Note_on_c, 0, 61, 115
1, 109548, Note_off_c, 0, 61, 115
1, 109563, Note_on_c, 0, 63, 121
1, 109752, Note_off_c, 0, 63, 121
1, 109773, Note_on_c, 0, 68, 110
1, 109949, Note_off_c, 0, 68, 110
1, 109953, Note_on_c, 0, 66, 118
1, 110120, Note_off_c, 0, 66, 118
1, 110128, Note_on_c, 0, 63, 125
1, 110356, Note_off_c, 0, 63, 125
1, 110409, Note_on_c, 0, 61, 118
1, 110541, Note_off_c, 0, 61, 118
1, 110550, Note_on_c, 0, 59, 109
1, 110741, Note_off_c, 0, 59, 109
1, 110804, Note_on_c, 0, 54, 116
1, 110966, Note_off_c, 0, 54, 116
1, 110976, Note_on_c, 0, 52, 113
1, 111113, Note_off_c, 0, 52, 113
1, 111174, Note_on_c, 0, 51, 111
1, 111386, Note_off_c, 0, 51, 111
1, 111429, Note_on_c, 0, 49, 107
1, 111587, Note_off_c, 0, 49, 107
1, 111665, Note_on_c, 0, 52, 115
1, 111782, Note_off_c, 0, 52, 115
1, 111795, Note_on_c, 0, 55, 120
1, 111975, Note_off_c, 0, 55, 120
1, 112000, Note_on_c, 0, 52, 114
1, 112124, Note_off_c, 0, 52, 114
1, 112136, Note_on_c, 0, 53, 118
1, 112347, Note_off_c, 0, 53, 118
1, 112371, Note_on_c, 0, 57, 109
1, 112491, Note_off_c, 0, 57, 109
1, 112550, Note_on_c, 0, 62, 124
1, 112749, Note_off_c, 0, 62, 124
1, 112771, Note_on_c, 0, 65, 112
1, 112957, Note_off_c, 0, 65, 112
1, 112964, Note_on_c, 0, 58, 116
1, 113115, Note_off_c, 0, 58, 116
1, 113135, Note_on_c, 0, 59, 108
1, 113307, Note_off_c, 0, 59, 108
1, 113337, Note_on_c, 0, 62, 120
1, 113517, Note_off_c, 0, 62, 120
1, 113550, Note_on_c, 0, 65, 110
1, 113712, Note_off_c, 0, 65, 110
1, 113739, Note_on_c, 0, 68, 112
1, 113881, Note_off_c, 0, 68, 112
1, 114850, Note_on_c, 0, 69, 116
1, 115112, Note_off_c, 0, 69, 116
1, 115237, Note_on_c, 0, 70, 115
1, 115452, Note_off_c, 0, 70, 115
1, 115547, Note_on_c, 0, 71, 108
1, 115769, Note_off_c, 0, 71, 108
1, 115784, Note_on_c, 0, 72, 114
1, 115988, Note_off_c, 0, 72, 114
1, 116130, Note_on_c, 0, 61, 113
1, 116214, Note_off_c, 0, 61, 113
1, 116230, Note_on_c, 0, 62, 113
1, 116451, Note_off_c, 0, 62, 113
1, 116509, Note_on_c, 0, 63, 118
1, 116717, Note_off_c, 0, 63, 118
1, 116800, Note_on_c, 0, 64, 114
1, 117042, Note_off_c, 0, 64, 114
1, 117061, Note_on_c, 0, 65, 107
1, 117220, Note_off_c, 0, 65, 107
1, 117412, Note_on_c, 0, 66, 98
1, 117646, Note_off_c, 0, 66, 98
1, 117726, Note_on_c, 0, 67, 90
1, 117880, Note_off_c, 0, 67, 90
1, 118005, Note_on_c, 0, 62, 113
1, 118319, Note_off_c, 0, 62, 113
1, 118327, Note_on_c, 0, 60, 97
1, 119485, Note_off_c, 0, 60, 97
1, 119937, Note_on_c, 0, 56, 97
1, 120619, Note_off_c, 0, 56, 97
1, 120632, Note_on_c, 0, 60, 87
1, 123133, Note_off_c, 0, 60, 87
1, 123133, End_track
0, 0, End_of_file
