0, 0, Header, 1, 1, 192
1, 0, Start_track
1, 0, Note_on_c, 0, 55, 87
1, 75, Note_off_c, 0, 55, 87
1, 83, Note_on_c, 0, 54, 91
1, 120, Note_off_c, 0, 54, 91
1, 133, Note_on_c, 0, 55, 93
1, 204, Note_off_c, 0, 55, 93
1, 206, Note_on_c, 0, 58, 96
1, 261, Note_off_c, 0, 58, 96
1, 269, Note_on_c, 0, 62, 107
1, 324, Note_off_c, 0, 62, 107
1, 335, Note_on_c, 0, 65, 107
1, 388, Note_off_c, 0, 65, 107
1, 392, Note_on_c, 0, 63, 112
1, 443, Note_off_c, 0, 63, 112
1, 458, Note_on_c, 0, 62, 115
1, 518, Note_off_c, 0, 62, 115
1, 520, Note_on_c, 0, 60, 111
1, 566, Note_off_c, 0, 60, 111
1, 581, Note_on_c, 0, 58, 109
1, 645, Note_off_c, 0, 58, 109
1, 649, Note_on_c, 0, 55, 101
1, 920, Note_off_c, 0, 55, 101
1, 935, Note_on_c, 0, 58, 108
1, 1001, Note_off_c, 0, 58, 108
1, 1038, Note_on_c, 0, 62, 116
1, 1111, Note_off_c, 0, 62, 116
1, 1122, Note_on_c, 0, 65, 99
1, 1173, Note_off_c, 0, 65, 99
1, 1179, Note_on_c, 0, 62, 106
1, 1308, Note_off_c, 0, 62, 106
1, 1308, Note_on_c, 0, 58, 101
1, 1533, Note_off_c, 0, 58, 101
1, 1758, Title_t, "Melody"
1, 1758, Tempo, 500000
1, 1758, Key_signature, -2, "major"
1, 1758, Time_signature, 4, 2, 24, 8
1, 1764, Note_on_c, 0, 63, 117
1, 1813, Note_off_c, 0, 63, 117
1, 1827, Note_on_c, 0, 65, 117
1, 2096, Note_off_c, 0, 65, 117
1, 2112, Note_on_c, 0, 66, 119
1, 2156, Note_off_c, 0, 66, 119
1, 2160, Note_on_c, 0, 67, 109
1, 2215, Note_off_c, 0, 67, 109
1, 2223, Note_on_c, 0, 63, 115
1, 2276, Note_off_c, 0, 63, 115
1, 2284, Note_on_c, 0, 62, 115
1, 2335, Note_off_c, 0, 62, 115
1, 2343, Note_on_c, 0, 60, 104
1, 2412, Note_off_c, 0, 60, 104
1, 2418, Note_on_c, 0, 58, 107
1, 2471, Note_off_c, 0, 58, 107
1, 2471, Note_on_c, 0, 55, 106
1, 2531, Note_off_c, 0, 55, 106
1, 2542, Note_on_c, 0, 57, 99
1, 2642, Note_off_c, 0, 57, 99
1, 2657, Note_on_c, 0, 65, 95
1, 2699, Note_off_c, 0, 65, 95
1, 2731, Note_on_c, 0, 61, 90
1, 2892, Note_off_c, 0, 61, 90
1, 2907, Note_on_c, 0, 60, 88
1, 3239, Note_off_c, 0, 60, 88
1, 3250, Note_on_c, 0, 58, 94
1, 3325, Note_off_c, 0, 58, 94
1, 3357, Note_on_c, 0, 65, 93
1, 3592, Note_off_c, 0, 65, 93
1, 3906, Note_on_c, 0, 72, 119
1, 3986, Note_off_c, 0, 72, 119
1, 3992, Note_on_c, 0, 69, 118
1, 4058, Note_off_c, 0, 69, 118
1, 4064, Note_on_c, 0, 70, 115
1, 4162, Note_off_c, 0, 70, 115
1, 4166, Note_on_c, 0, 69, 120
1, 4210, Note_off_c, 0, 69, 120
1, 4210, Note_on_c, 0, 67, 119
1, 4270, Note_off_c, 0, 67, 119
1, 4272, Note_on_c, 0, 65, 122
1, 4325, Note_off_c, 0, 65, 122
1, 4336, Note_on_c, 0, 63, 121
1, 4396, Note_off_c, 0, 63, 121
1, 4398, Note_on_c, 0, 62, 120
1, 4449, Note_off_c, 0, 62, 120
1, 4453, Note_on_c, 0, 60, 112
1, 4502, Note_off_c, 0, 60, 112
1, 4506, Note_on_c, 0, 58, 103
1, 4579, Note_off_c, 0, 58, 103
1, 4584, Note_on_c, 0, 57, 107
1, 4663, Note_off_c, 0, 57, 107
1, 4674, Note_on_c, 0, 64, 110
1, 4867, Note_off_c, 0, 64, 110
1, 4875, Note_on_c, 0, 56, 110
1, 5004, Note_off_c, 0, 56, 110
1, 5030, Note_on_c, 0, 64, 101
1, 5141, Note_off_c, 0, 64, 101
1, 5152, Note_on_c, 0, 55, 111
1, 5265, Note_off_c, 0, 55, 111
1, 5273, Note_on_c, 0, 64, 110
1, 5348, Note_off_c, 0, 64, 110
1, 5397, Note_on_c, 0, 54, 97
1, 5519, Note_off_c, 0, 54, 97
1, 5755, Note_on_c, 0, 63, 115
1, 5805, Note_off_c, 0, 63, 115
1, 5809, Note_on_c, 0, 63, 113
1, 5904, Note_off_c, 0, 63, 113
1, 5905, Note_on_c, 0, 61, 100
1, 5956, Note_off_c, 0, 61, 100
1, 5964, Note_on_c, 0, 62, 93
1, 6271, Note_off_c, 0, 62, 93
1, 6464, Note_on_c, 0, 49, 111
1, 6553, Note_off_c, 0, 49, 111
1, 6559, Note_on_c, 0, 51, 105
1, 6652, Note_off_c, 0, 51, 105
1, 6663, Note_on_c, 0, 48, 99
1, 6714, Note_off_c, 0, 48, 99
1, 6718, Note_on_c, 0, 50, 102
1, 7027, Note_off_c, 0, 50, 102
1, 7049, Note_on_c, 0, 57, 106
1, 7106, Note_off_c, 0, 57, 106
1, 7114, Note_on_c, 0, 54, 100
1, 7169, Note_off_c, 0, 54, 100
1, 7171, Note_on_c, 0, 55, 105
1, 7226, Note_off_c, 0, 55, 105
1, 7230, Note_on_c, 0, 58, 100
1, 7281, Note_off_c, 0, 58, 100
1, 7281, Note_on_c, 0, 62, 99
1, 7359, Note_off_c, 0, 62, 99
1, 7359, Note_on_c, 0, 67, 92
1, 7412, Note_off_c, 0, 67, 92
1, 7416, Note_on_c, 0, 64, 87
1, 7466, Note_off_c, 0, 64, 87
1, 7468, Note_on_c, 0, 65, 82
1, 7684, Note_off_c, 0, 65, 82
1, 7897, Note_on_c, 0, 63, 94
1, 7923, Note_off_c, 0, 63, 94
1, 7925, Note_on_c, 0, 64, 114
1, 7958, Note_off_c, 0, 64, 114
1, 7960, Note_on_c, 0, 65, 111
1, 8020, Note_off_c, 0, 65, 111
1, 8028, Note_on_c, 0, 61, 115
1, 8097, Note_off_c, 0, 61, 115
1, 8099, Note_on_c, 0, 65, 117
1, 8172, Note_off_c, 0, 65, 117
1, 8172, Note_on_c, 0, 60, 110
1, 8290, Note_off_c, 0, 60, 110
1, 8290, Note_on_c, 0, 65, 122
1, 8439, Note_off_c, 0, 65, 122
1, 8445, Note_on_c, 0, 56, 103
1, 8601, Note_off_c, 0, 56, 103
1, 8601, Note_on_c, 0, 58, 102
1, 8862, Note_off_c, 0, 58, 102
1, 8876, Note_on_c, 0, 56, 98
1, 8949, Note_off_c, 0, 56, 98
1, 8966, Note_on_c, 0, 55, 95
1, 9204, Note_off_c, 0, 55, 95
1, 9482, Note_on_c, 0, 58, 111
1, 9629, Note_off_c, 0, 58, 111
1, 9631, Note_on_c, 0, 62, 120
1, 9726, Note_off_c, 0, 62, 120
1, 9752, Note_on_c, 0, 64, 113
1, 9801, Note_off_c, 0, 64, 113
1, 9803, Note_on_c, 0, 65, 113
1, 9865, Note_off_c, 0, 65, 113
1, 9867, Note_on_c, 0, 63, 115
1, 9924, Note_off_c, 0, 63, 115
1, 9944, Note_on_c, 0, 67, 86
1, 10019, Note_off_c, 0, 67, 86
1, 10030, Note_on_c, 0, 70, 96
1, 10087, Note_off_c, 0, 70, 96
1, 10089, Note_on_c, 0, 69, 93
1, 10142, Note_off_c, 0, 69, 93
1, 10166, Note_on_c, 0, 72, 84
1, 10248, Note_off_c, 0, 72, 84
1, 10254, Note_on_c, 0, 67, 92
1, 10309, Note_off_c, 0, 67, 92
1, 10326, Note_on_c, 0, 63, 94
1, 10597, Note_off_c, 0, 63, 94
1, 10773, Note_on_c, 0, 60, 112
1, 10822, Note_off_c, 0, 60, 112
1, 10822, Note_on_c, 0, 62, 114
1, 10857, Note_off_c, 0, 62, 114
1, 10857, Note_on_c, 0, 65, 114
1, 10890, Note_off_c, 0, 65, 114
1, 10894, Note_on_c, 0, 62, 105
1, 10938, Note_off_c, 0, 62, 105
1, 10946, Note_on_c, 0, 63, 108
1, 10983, Note_off_c, 0, 63, 108
1, 10985, Note_on_c, 0, 65, 105
1, 11025, Note_off_c, 0, 65, 105
1, 11038, Note_on_c, 0, 67, 113
1, 11272, Note_off_c, 0, 67, 113
1, 11272, Note_on_c, 0, 66, 102
1, 11300, Note_off_c, 0, 66, 102
1, 11308, Note_on_c, 0, 67, 99
1, 11330, Note_off_c, 0, 67, 99
1, 11330, Note_on_c, 0, 66, 92
1, 11356, Note_off_c, 0, 66, 92
1, 11356, Note_on_c, 0, 65, 97
1, 11418, Note_off_c, 0, 65, 97
1, 11418, Note_on_c, 0, 62, 111
1, 11587, Note_off_c, 0, 62, 111
1, 11587, Note_on_c, 0, 60, 103
1, 11636, Note_off_c, 0, 60, 103
1, 11643, Note_on_c, 0, 58, 97
1, 11678, Note_off_c, 0, 58, 97
1, 11678, Note_on_c, 0, 59, 96
1, 11722, Note_off_c, 0, 59, 96
1, 11723, Note_on_c, 0, 64, 110
1, 11762, Note_off_c, 0, 64, 110
1, 11762, Note_on_c, 0, 65, 105
1, 11776, Note_off_c, 0, 65, 105
1, 11777, Note_on_c, 0, 64, 111
1, 11819, Note_off_c, 0, 64, 111
1, 11825, Note_on_c, 0, 62, 110
1, 11873, Note_off_c, 0, 62, 110
1, 11874, Note_on_c, 0, 59, 97
1, 11906, Note_off_c, 0, 59, 97
1, 11906, Note_on_c, 0, 56, 95
1, 11946, Note_off_c, 0, 56, 95
1, 11966, Note_on_c, 0, 53, 100
1, 12003, Note_off_c, 0, 53, 100
1, 12010, Note_on_c, 0, 52, 94
1, 12179, Note_off_c, 0, 52, 94
1, 12432, Note_on_c, 0, 74, 114
1, 12461, Note_off_c, 0, 74, 114
1, 12467, Note_on_c, 0, 72, 124
1, 12499, Note_off_c, 0, 72, 124
1, 12502, Note_on_c, 0, 71, 119
1, 12523, Note_off_c, 0, 71, 119
1, 12526, Note_on_c, 0, 70, 119
1, 12563, Note_off_c, 0, 70, 119
1, 12573, Note_on_c, 0, 67, 121
1, 12610, Note_off_c, 0, 67, 121
1, 12614, Note_on_c, 0, 66, 120
1, 12646, Note_off_c, 0, 66, 120
1, 12649, Note_on_c, 0, 62, 109
1, 12694, Note_off_c, 0, 62, 109
1, 12695, Note_on_c, 0, 58, 107
1, 12749, Note_off_c, 0, 58, 107
1, 12752, Note_on_c, 0, 54, 104
1, 12814, Note_off_c, 0, 54, 104
1, 12831, Note_on_c, 0, 52, 91
1, 12878, Note_off_c, 0, 52, 91
1, 12878, Note_on_c, 0, 53, 108
1, 12918, Note_off_c, 0, 53, 108
1, 12922, Note_on_c, 0, 57, 100
1, 12943, Note_off_c, 0, 57, 100
1, 12968, Note_on_c, 0, 61, 108
1, 13005, Note_off_c, 0, 61, 108
1, 13009, Note_on_c, 0, 62, 108
1, 13062, Note_off_c, 0, 62, 108
1, 13079, Note_on_c, 0, 65, 112
1, 13126, Note_off_c, 0, 65, 112
1, 13130, Note_on_c, 0, 64, 120
1, 13162, Note_off_c, 0, 64, 120
1, 13162, Note_on_c, 0, 65, 118
1, 13188, Note_off_c, 0, 65, 118
1, 13189, Note_on_c, 0, 64, 115
1, 13237, Note_off_c, 0, 64, 115
1, 13241, Note_on_c, 0, 61, 109
1, 13280, Note_off_c, 0, 61, 109
1, 13287, Note_on_c, 0, 60, 104
1, 13318, Note_off_c, 0, 60, 104
1, 13319, Note_on_c, 0, 58, 107
1, 13351, Note_off_c, 0, 58, 107
1, 13351, Note_on_c, 0, 56, 102
1, 13380, Note_off_c, 0, 56, 102
1, 13386, Note_on_c, 0, 55, 96
1, 13431, Note_off_c, 0, 55, 96
1, 13454, Note_on_c, 0, 51, 97
1, 13511, Note_off_c, 0, 51, 97
1, 13512, Note_on_c, 0, 52, 103
1, 13552, Note_off_c, 0, 52, 103
1, 13555, Note_on_c, 0, 55, 99
1, 13595, Note_off_c, 0, 55, 99
1, 13596, Note_on_c, 0, 52, 101
1, 13632, Note_off_c, 0, 52, 101
1, 13635, Note_on_c, 0, 54, 97
1, 13692, Note_off_c, 0, 54, 97
1, 13695, Note_on_c, 0, 55, 95
1, 13729, Note_off_c, 0, 55, 95
1, 13732, Note_on_c, 0, 56, 87
1, 13771, Note_off_c, 0, 56, 87
1, 13774, Note_on_c, 0, 57, 90
1, 13810, Note_off_c, 0, 57, 90
1, 13810, Note_on_c, 0, 60, 97
1, 13838, Note_off_c, 0, 60, 97
1, 13838, Note_on_c, 0, 62, 102
1, 13867, Note_off_c, 0, 62, 102
1, 13868, Note_on_c, 0, 63, 101
1, 13897, Note_off_c, 0, 63, 101
1, 13900, Note_on_c, 0, 65, 114
1, 13961, Note_off_c, 0, 65, 114
1, 13968, Note_on_c, 0, 64, 113
1, 14008, Note_off_c, 0, 64, 113
1, 14008, Note_on_c, 0, 65, 110
1, 14065, Note_off_c, 0, 65, 110
1, 14072, Note_on_c, 0, 67, 100
1, 14139, Note_off_c, 0, 67, 100
1, 14143, Note_on_c, 0, 68, 97
1, 14213, Note_off_c, 0, 68, 97
1, 14477, Note_on_c, 0, 69, 115
1, 14580, Note_off_c, 0, 69, 115
1, 14584, Note_on_c, 0, 72, 126
1, 14641, Note_off_c, 0, 72, 126
1, 14655, Note_on_c, 0, 67, 117
1, 14769, Note_off_c, 0, 67, 117
1, 14773, Note_on_c, 0, 63, 118
1, 14851, Note_off_c, 0, 63, 118
1, 14855, Note_on_c, 0, 60, 106
1, 14938, Note_off_c, 0, 60, 106
1, 14939, Note_on_c, 0, 61, 101
1, 14990, Note_off_c, 0, 61, 101
1, 15010, Note_on_c, 0, 62, 111
1, 15099, Note_off_c, 0, 62, 111
1, 15109, Note_on_c, 0, 65, 100
1, 15165, Note_off_c, 0, 65, 100
1, 15166, Note_on_c, 0, 69, 101
1, 15234, Note_off_c, 0, 69, 101
1, 15244, Note_on_c, 0, 72, 100
1, 15316, Note_off_c, 0, 72, 100
1, 15402, Note_on_c, 0, 69, 99
1, 15444, Note_off_c, 0, 69, 99
1, 15444, Note_on_c, 0, 70, 98
1, 15552, Note_off_c, 0, 70, 98
1, 15553, Note_on_c, 0, 67, 102
1, 15625, Note_off_c, 0, 67, 102
1, 15635, Note_on_c, 0, 63, 115
1, 15735, Note_off_c, 0, 63, 115
1, 15738, Note_on_c, 0, 60, 98
1, 15817, Note_off_c, 0, 60, 98
1, 15824, Note_on_c, 0, 62, 110
1, 15941, Note_off_c, 0, 62, 110
1, 15944, Note_on_c, 0, 65, 92
1, 16191, Note_off_c, 0, 65, 92
1, 16426, Note_on_c, 0, 62, 118
1, 16534, Note_off_c, 0, 62, 118
1, 16546, Note_on_c, 0, 62, 120
1, 16655, Note_off_c, 0, 62, 120
1, 16673, Note_on_c, 0, 63, 110
1, 16694, Note_off_c, 0, 63, 110
1, 16697, Note_on_c, 0, 64, 113
1, 16781, Note_off_c, 0, 64, 113
1, 16787, Note_on_c, 0, 66, 115
1, 16909, Note_off_c, 0, 66, 115
1, 16927, Note_on_c, 0, 64, 114
1, 16969, Note_off_c, 0, 64, 114
1, 16969, Note_on_c, 0, 66, 104
1, 16992, Note_off_c, 0, 66, 104
1, 16995, Note_on_c, 0, 64, 103
1, 17322, Note_off_c, 0, 64, 103
1, 17475, Note_on_c, 0, 57, 113
1, 17520, Note_off_c, 0, 57, 113
1, 17524, Note_on_c, 0, 59, 108
1, 17697, Note_off_c, 0, 59, 108
1, 17706, Note_on_c, 0, 57, 111
1, 17735, Note_off_c, 0, 57, 111
1, 17735, Note_on_c, 0, 59, 93
1, 17767, Note_off_c, 0, 59, 93
1, 17768, Note_on_c, 0, 57, 91
1, 18073, Note_off_c, 0, 57, 91
1, 18243, Note_on_c, 0, 55, 107
1, 18454, Note_off_c, 0, 55, 107
1, 18455, Note_on_c, 0, 57, 106
1, 18503, Note_off_c, 0, 57, 106
1, 18507, Note_on_c, 0, 58, 106
1, 18566, Note_off_c, 0, 58, 106
1, 18570, Note_on_c, 0, 60, 97
1, 18615, Note_off_c, 0, 60, 97
1, 18615, Note_on_c, 0, 62, 104
1, 18702, Note_off_c, 0, 62, 104
1, 18705, Note_on_c, 0, 63, 107
1, 18802, Note_off_c, 0, 63, 107
1, 18803, Note_on_c, 0, 61, 98
1, 18840, Note_off_c, 0, 61, 98
1, 18840, Note_on_c, 0, 62, 100
1, 18985, Note_off_c, 0, 62, 100
1, 19014, Note_on_c, 0, 55, 85
1, 19277, Note_off_c, 0, 55, 85
1, 19475, Note_on_c, 0, 56, 101
1, 19638, Note_off_c, 0, 56, 101
1, 19644, Note_on_c, 0, 58, 98
1, 19914, Note_off_c, 0, 58, 98
1, 19969, Note_on_c, 0, 65, 117
1, 20071, Note_off_c, 0, 65, 117
1, 20079, Note_on_c, 0, 61, 111
1, 20168, Note_off_c, 0, 61, 111
1, 20183, Note_on_c, 0, 57, 109
1, 20263, Note_off_c, 0, 57, 109
1, 20263, Note_on_c, 0, 53, 103
1, 20369, Note_off_c, 0, 53, 103
1, 20389, Note_on_c, 0, 60, 90
1, 20478, Note_off_c, 0, 60, 90
1, 20482, Note_on_c, 0, 57, 104
1, 20580, Note_off_c, 0, 57, 104
1, 20580, Note_on_c, 0, 53, 101
1, 20669, Note_off_c, 0, 53, 101
1, 20685, Note_on_c, 0, 57, 98
1, 20727, Note_off_c, 0, 57, 98
1, 20734, Note_on_c, 0, 59, 103
1, 20791, Note_off_c, 0, 59, 103
1, 20795, Note_on_c, 0, 58, 103
1, 20971, Note_off_c, 0, 58, 103
1, 21254, Note_on_c, 0, 51, 70
1, 21280, Note_off_c, 0, 51, 70
1, 21286, Note_on_c, 0, 54, 110
1, 21395, Note_off_c, 0, 54, 110
1, 21403, Note_on_c, 0, 55, 111
1, 21449, Note_off_c, 0, 55, 111
1, 21449, Note_on_c, 0, 58, 109
1, 21506, Note_off_c, 0, 58, 109
1, 21506, Note_on_c, 0, 62, 101
1, 21557, Note_off_c, 0, 62, 101
1, 21559, Note_on_c, 0, 65, 89
1, 21645, Note_off_c, 0, 65, 89
1, 21651, Note_on_c, 0, 63, 106
1, 21731, Note_off_c, 0, 63, 106
1, 21784, Note_on_c, 0, 55, 98
1, 21844, Note_off_c, 0, 55, 98
1, 21850, Note_on_c, 0, 58, 109
1, 21925, Note_off_c, 0, 58, 109
1, 21929, Note_on_c, 0, 62, 112
1, 22029, Note_off_c, 0, 62, 112
1, 22037, Note_on_c, 0, 60, 108
1, 22094, Note_off_c, 0, 60, 108
1, 22122, Note_on_c, 0, 54, 9
1, 22601, Note_off_c, 0, 54, 9
1, 22817, Note_on_c, 0, 53, 123
1, 22901, Note_off_c, 0, 53, 123
1, 22909, Note_on_c, 0, 49, 124
1, 22991, Note_off_c, 0, 49, 124
1, 22993, Note_on_c, 0, 50, 127
1, 23071, Note_off_c, 0, 50, 127
1, 23095, Note_on_c, 0, 53, 122
1, 23164, Note_off_c, 0, 53, 122
1, 23177, Note_on_c, 0, 57, 120
1, 23261, Note_off_c, 0, 57, 120
1, 23263, Note_on_c, 0, 60, 96
1, 23361, Note_off_c, 0, 60, 96
1, 23392, Note_on_c, 0, 58, 110
1, 23452, Note_off_c, 0, 58, 110
1, 23469, Note_on_c, 0, 57, 92
1, 23830, Note_off_c, 0, 57, 92
1, 23941, Note_on_c, 0, 54, 120
1, 23985, Note_off_c, 0, 54, 120
1, 23985, Note_on_c, 0, 55, 120
1, 24031, Note_off_c, 0, 55, 120
1, 24044, Note_on_c, 0, 56, 117
1, 24159, Note_off_c, 0, 56, 117
1, 24159, Note_on_c, 0, 54, 119
1, 24201, Note_off_c, 0, 54, 119
1, 24209, Note_on_c, 0, 55, 118
1, 24284, Note_off_c, 0, 55, 118
1, 24284, Note_on_c, 0, 58, 115
1, 24319, Note_off_c, 0, 58, 115
1, 24325, Note_on_c, 0, 62, 125
1, 24405, Note_off_c, 0, 62, 125
1, 24419, Note_on_c, 0, 63, 116
1, 24500, Note_off_c, 0, 63, 116
1, 24512, Note_on_c, 0, 65, 103
1, 24880, Note_off_c, 0, 65, 103
1, 24882, Note_on_c, 0, 63, 113
1, 24964, Note_off_c, 0, 63, 113
1, 24970, Note_on_c, 0, 62, 116
1, 25048, Note_off_c, 0, 62, 116
1, 25090, Note_on_c, 0, 51, 104
1, 25310, Note_off_c, 0, 51, 104
1, 25633, Note_on_c, 0, 54, 117
1, 25706, Note_off_c, 0, 54, 117
1, 25706, Note_on_c, 0, 52, 107
1, 25772, Note_off_c, 0, 52, 107
1, 25780, Note_on_c, 0, 53, 106
1, 25840, Note_off_c, 0, 53, 106
1, 25846, Note_on_c, 0, 57, 110
1, 25908, Note_off_c, 0, 57, 110
1, 25908, Note_on_c, 0, 60, 115
1, 26019, Note_off_c, 0, 60, 115
1, 26034, Note_on_c, 0, 65, 122
1, 26132, Note_off_c, 0, 65, 122
1, 26152, Note_on_c, 0, 59, 96
1, 26399, Note_off_c, 0, 59, 96
1, 26405, Note_on_c, 0, 55, 111
1, 26442, Note_off_c, 0, 55, 111
1, 26449, Note_on_c, 0, 58, 109
1, 26593, Note_off_c, 0, 58, 109
1, 26594, Note_on_c, 0, 54, 109
1, 26638, Note_off_c, 0, 54, 109
1, 26644, Note_on_c, 0, 55, 107
1, 26692, Note_off_c, 0, 55, 107
1, 26693, Note_on_c, 0, 58, 107
1, 26725, Note_off_c, 0, 58, 107
1, 26732, Note_on_c, 0, 62, 108
1, 26760, Note_off_c, 0, 62, 108
1, 26760, Note_on_c, 0, 65, 108
1, 26788, Note_off_c, 0, 65, 108
1, 26791, Note_on_c, 0, 62, 96
1, 26828, Note_off_c, 0, 62, 96
1, 26832, Note_on_c, 0, 63, 105
1, 26979, Note_off_c, 0, 63, 105
1, 26988, Note_on_c, 0, 60, 104
1, 27038, Note_off_c, 0, 60, 104
1, 27041, Note_on_c, 0, 61, 113
1, 27098, Note_off_c, 0, 61, 113
1, 27104, Note_on_c, 0, 57, 106
1, 27143, Note_off_c, 0, 57, 106
1, 27147, Note_on_c, 0, 55, 108
1, 27187, Note_off_c, 0, 55, 108
1, 27197, Note_on_c, 0, 51, 101
1, 27240, Note_off_c, 0, 51, 101
1, 27243, Note_on_c, 0, 50, 102
1, 27424, Note_off_c, 0, 50, 102
1, 27424, End_track
0, 0, End_of_file
