0, 0, Header, 1, 1, 840
1, 0, Start_track
1, 0, Title_t, "Melody"
1, 0, Tempo, 606060
1, 0, Key_signature, -5, "major"
1, 0, Time_signature, 4, 2, 24, 8
1, 14932, Note_on_c, 0, 51, 107
1, 15390, Note_off_c, 0, 51, 107
1, 15407, Note_on_c, 0, 56, 108
1, 15627, Note_off_c, 0, 56, 108
1, 15689, Note_on_c, 0, 59, 109
1, 15952, Note_off_c, 0, 59, 109
1, 15985, Note_on_c, 0, 58, 110
1, 16182, Note_off_c, 0, 58, 110
1, 16198, Note_on_c, 0, 51, 84
1, 17858, Note_off_c, 0, 51, 84
1, 18126, Note_on_c, 0, 52, 99
1, 18352, Note_off_c, 0, 52, 99
1, 18394, Note_on_c, 0, 53, 108
1, 18606, Note_off_c, 0, 53, 108
1, 18622, Note_on_c, 0, 54, 104
1, 18853, Note_off_c, 0, 54, 104
1, 18915, Note_on_c, 0, 56, 103
1, 19163, Note_off_c, 0, 56, 103
1, 19185, Note_on_c, 0, 53, 103
1, 19428, Note_off_c, 0, 53, 103
1, 19433, Note_on_c, 0, 51, 97
1, 19605, Note_off_c, 0, 51, 97
1, 19718, Note_on_c, 0, 58, 99
1, 19995, Note_off_c, 0, 58, 99
1, 20037, Note_on_c, 0, 58, 90
1, 21174, Note_off_c, 0, 58, 90
1, 21810, Note_on_c, 0, 52, 106
1, 21999, Note_off_c, 0, 52, 106
1, 22024, Note_on_c, 0, 56, 111
1, 22219, Note_off_c, 0, 56, 111
1, 22264, Note_on_c, 0, 64, 118
1, 22433, Note_off_c, 0, 64, 118
1, 22474, Note_on_c, 0, 60, 110
1, 22669, Note_off_c, 0, 60, 110
1, 22701, Note_on_c, 0, 58, 102
1, 22884, Note_off_c, 0, 58, 102
1, 22907, Note_on_c, 0, 54, 102
1, 23033, Note_off_c, 0, 54, 102
1, 23075, Note_on_c, 0, 53, 91
1, 24157, Note_off_c, 0, 53, 91
1, 24201, Note_on_c, 0, 56, 106
1, 24388, Note_off_c, 0, 56, 106
1, 24420, Note_on_c, 0, 58, 105
1, 24592, Note_off_c, 0, 58, 105
1, 24620, Note_on_c, 0, 56, 99
1, 24734, Note_off_c, 0, 56, 99
1, 24796, Note_on_c, 0, 58, 103
1, 25222, Note_off_c, 0, 58, 103
1, 25278, Note_on_c, 0, 51, 95
1, 25412, Note_off_c, 0, 51, 95
1, 25426, Note_on_c, 0, 54, 95
1, 25538, Note_off_c, 0, 54, 95
1, 25546, Note_on_c, 0, 58, 97
1, 25680, Note_off_c, 0, 58, 97
1, 25684, Note_on_c, 0, 63, 114
1, 25935, Note_off_c, 0, 63, 114
1, 25953, Note_on_c, 0, 61, 115
1, 26136, Note_off_c, 0, 61, 115
1, 26168, Note_on_c, 0, 58, 100
1, 26322, Note_off_c, 0, 58, 100
1, 26374, Note_on_c, 0, 54, 101
1, 26510, Note_off_c, 0, 54, 101
1, 26544, Note_on_c, 0, 53, 92
1, 26723, Note_off_c, 0, 53, 92
1, 27215, Note_on_c, 0, 56, 107
1, 27593, Note_off_c, 0, 56, 107
1, 27609, Note_on_c, 0, 63, 116
1, 27948, Note_off_c, 0, 63, 116
1, 27972, Note_on_c, 0, 61, 121
1, 28273, Note_off_c, 0, 61, 121
1, 28341, Note_on_c, 0, 60, 109
1, 28884, Note_off_c, 0, 60, 109
1, 28910, Note_on_c, 0, 58, 100
1, 29306, Note_off_c, 0, 58, 100
1, 29350, Note_on_c, 0, 52, 89
1, 29543, Note_off_c, 0, 52, 89
1, 29557, Note_on_c, 0, 53, 92
1, 29687, Note_off_c, 0, 53, 92
1, 29729, Note_on_c, 0, 51, 83
1, 30555, Note_off_c, 0, 51, 83
1, 31166, Note_on_c, 0, 54, 101
1, 31507, Note_off_c, 0, 54, 101
1, 31537, Note_on_c, 0, 58, 101
1, 31854, Note_off_c, 0, 58, 101
1, 31872, Note_on_c, 0, 61, 114
1, 32131, Note_off_c, 0, 61, 114
1, 32169, Note_on_c, 0, 58, 104
1, 32380, Note_off_c, 0, 58, 104
1, 32402, Note_on_c, 0, 56, 101
1, 32603, Note_off_c, 0, 56, 101
1, 32649, Note_on_c, 0, 54, 96
1, 32844, Note_off_c, 0, 54, 96
1, 32880, Note_on_c, 0, 49, 98
1, 33127, Note_off_c, 0, 49, 98
1, 33137, Note_on_c, 0, 51, 98
1, 33297, Note_off_c, 0, 51, 98
1, 33325, Note_on_c, 0, 53, 85
1, 34066, Note_off_c, 0, 53, 85
1, 34597, Note_on_c, 0, 53, 100
1, 35063, Note_off_c, 0, 53, 100
1, 35097, Note_on_c, 0, 54, 108
1, 35286, Note_off_c, 0, 54, 108
1, 35301, Note_on_c, 0, 53, 109
1, 35586, Note_off_c, 0, 53, 109
1, 35593, Note_on_c, 0, 57, 112
1, 35853, Note_off_c, 0, 57, 112
1, 35857, Note_on_c, 0, 61, 118
1, 36088, Note_off_c, 0, 61, 118
1, 36132, Note_on_c, 0, 53, 108
1, 36387, Note_off_c, 0, 53, 108
1, 36415, Note_on_c, 0, 57, 113
1, 36696, Note_off_c, 0, 57, 113
1, 36812, Note_on_c, 0, 60, 86
1, 37276, Note_off_c, 0, 60, 86
1, 37318, Note_on_c, 0, 59, 95
1, 37537, Note_off_c, 0, 59, 95
1, 37585, Note_on_c, 0, 58, 96
1, 37806, Note_off_c, 0, 58, 96
1, 37872, Note_on_c, 0, 53, 95
1, 38447, Note_off_c, 0, 53, 95
1, 38527, Note_on_c, 0, 59, 92
1, 39031, Note_off_c, 0, 59, 92
1, 39053, Note_on_c, 0, 58, 97
1, 39223, Note_off_c, 0, 58, 97
1, 39273, Note_on_c, 0, 57, 103
1, 39486, Note_off_c, 0, 57, 103
1, 39539, Note_on_c, 0, 52, 88
1, 39744, Note_off_c, 0, 52, 88
1, 39766, Note_on_c, 0, 54, 92
1, 39949, Note_off_c, 0, 54, 92
1, 39964, Note_on_c, 0, 56, 81
1, 40792, Note_off_c, 0, 56, 81
1, 41247, Note_on_c, 0, 53, 113
1, 41470, Note_off_c, 0, 53, 113
1, 41485, Note_on_c, 0, 52, 109
1, 41643, Note_off_c, 0, 52, 109
1, 41668, Note_on_c, 0, 51, 107
1, 41899, Note_off_c, 0, 51, 107
1, 41904, Note_on_c, 0, 56, 110
1, 42085, Note_off_c, 0, 56, 110
1, 42104, Note_on_c, 0, 59, 108
1, 42324, Note_off_c, 0, 59, 108
1, 42357, Note_on_c, 0, 51, 101
1, 42540, Note_off_c, 0, 51, 101
1, 42549, Note_on_c, 0, 50, 89
1, 43313, Note_off_c, 0, 50, 89
1, 43887, Note_on_c, 0, 51, 106
1, 44061, Note_off_c, 0, 51, 106
1, 44068, Note_on_c, 0, 53, 116
1, 44277, Note_off_c, 0, 53, 116
1, 44284, Note_on_c, 0, 54, 111
1, 44472, Note_off_c, 0, 54, 111
1, 44490, Note_on_c, 0, 56, 108
1, 44662, Note_off_c, 0, 56, 108
1, 44691, Note_on_c, 0, 58, 109
1, 44903, Note_off_c, 0, 58, 109
1, 44911, Note_on_c, 0, 61, 120
1, 45097, Note_off_c, 0, 61, 120
1, 45112, Note_on_c, 0, 65, 123
1, 45294, Note_off_c, 0, 65, 123
1, 45327, Note_on_c, 0, 63, 122
1, 45482, Note_off_c, 0, 63, 122
1, 45506, Note_on_c, 0, 62, 116
1, 45702, Note_off_c, 0, 62, 116
1, 45718, Note_on_c, 0, 65, 122
1, 45992, Note_off_c, 0, 65, 122
1, 46001, Note_on_c, 0, 68, 111
1, 46273, Note_off_c, 0, 68, 111
1, 46275, Note_on_c, 0, 71, 106
1, 46559, Note_off_c, 0, 71, 106
1, 46577, Note_on_c, 0, 69, 111
1, 46801, Note_off_c, 0, 69, 111
1, 46826, Note_on_c, 0, 70, 107
1, 47048, Note_off_c, 0, 70, 107
1, 47077, Note_on_c, 0, 66, 107
1, 47239, Note_off_c, 0, 66, 107
1, 47250, Note_on_c, 0, 65, 120
1, 47321, Note_off_c, 0, 65, 120
1, 47329, Note_on_c, 0, 64, 111
1, 47438, Note_off_c, 0, 64, 111
1, 47447, Note_on_c, 0, 63, 117
1, 47605, Note_off_c, 0, 63, 117
1, 47627, Note_on_c, 0, 62, 113
1, 47876, Note_off_c, 0, 62, 113
1, 47905, Note_on_c, 0, 70, 101
1, 48136, Note_off_c, 0, 70, 101
1, 48150, Note_on_c, 0, 66, 100
1, 48326, Note_off_c, 0, 66, 100
1, 48341, Note_on_c, 0, 62, 106
1, 48526, Note_off_c, 0, 62, 106
1, 48531, Note_on_c, 0, 61, 113
1, 48755, Note_off_c, 0, 61, 113
1, 48769, Note_on_c, 0, 58, 102
1, 48937, Note_off_c, 0, 58, 102
1, 48983, Note_on_c, 0, 54, 99
1, 49091, Note_off_c, 0, 54, 99
1, 49106, Note_on_c, 0, 51, 94
1, 49240, Note_off_c, 0, 51, 94
1, 49249, Note_on_c, 0, 49, 94
1, 49402, Note_off_c, 0, 49, 94
1, 49408, Note_on_c, 0, 48, 96
1, 49627, Note_off_c, 0, 48, 96
1, 49693, Note_on_c, 0, 56, 100
1, 49822, Note_off_c, 0, 56, 100
1, 49842, Note_on_c, 0, 54, 91
1, 50053, Note_off_c, 0, 54, 91
1, 50090, Note_on_c, 0, 53, 84
1, 50918, Note_off_c, 0, 53, 84
1, 51124, Note_on_c, 0, 56, 110
1, 51305, Note_off_c, 0, 56, 110
1, 51317, Note_on_c, 0, 58, 108
1, 51540, Note_off_c, 0, 58, 108
1, 51558, Note_on_c, 0, 60, 111
1, 51791, Note_off_c, 0, 60, 111
1, 51813, Note_on_c, 0, 63, 118
1, 52129, Note_off_c, 0, 63, 118
1, 52151, Note_on_c, 0, 60, 114
1, 52354, Note_off_c, 0, 60, 114
1, 52375, Note_on_c, 0, 61, 123
1, 52580, Note_off_c, 0, 61, 123
1, 52588, Note_on_c, 0, 63, 121
1, 52812, Note_off_c, 0, 63, 121
1, 52827, Note_on_c, 0, 65, 123
1, 53091, Note_off_c, 0, 65, 123
1, 53120, Note_on_c, 0, 68, 102
1, 53381, Note_off_c, 0, 68, 102
1, 53405, Note_on_c, 0, 66, 109
1, 53600, Note_off_c, 0, 66, 109
1, 53628, Note_on_c, 0, 65, 123
1, 53828, Note_off_c, 0, 65, 123
1, 53850, Note_on_c, 0, 66, 107
1, 54015, Note_off_c, 0, 66, 107
1, 54030, Note_on_c, 0, 68, 105
1, 54232, Note_off_c, 0, 68, 105
1, 54254, Note_on_c, 0, 70, 103
1, 54447, Note_off_c, 0, 70, 103
1, 54462, Note_on_c, 0, 72, 87
1, 54708, Note_off_c, 0, 72, 87
1, 54714, Note_on_c, 0, 65, 115
1, 54992, Note_off_c, 0, 65, 115
1, 55300, Note_on_c, 0, 64, 115
1, 55536, Note_off_c, 0, 64, 115
1, 55550, Note_on_c, 0, 66, 109
1, 55772, Note_off_c, 0, 66, 109
1, 55780, Note_on_c, 0, 67, 100
1, 55931, Note_off_c, 0, 67, 100
1, 55963, Note_on_c, 0, 69, 102
1, 56187, Note_off_c, 0, 69, 102
1, 56201, Note_on_c, 0, 71, 88
1, 56427, Note_off_c, 0, 71, 88
1, 56445, Note_on_c, 0, 64, 104
1, 57006, Note_off_c, 0, 64, 104
1, 57032, Note_on_c, 0, 63, 110
1, 57238, Note_off_c, 0, 63, 110
1, 57260, Note_on_c, 0, 65, 114
1, 57476, Note_off_c, 0, 65, 114
1, 57490, Note_on_c, 0, 66, 100
1, 57687, Note_off_c, 0, 66, 100
1, 57713, Note_on_c, 0, 68, 93
1, 57862, Note_off_c, 0, 68, 93
1, 57890, Note_on_c, 0, 70, 86
1, 58512, Note_off_c, 0, 70, 86
1, 58985, Note_on_c, 0, 68, 106
1, 59174, Note_off_c, 0, 68, 106
1, 59186, Note_on_c, 0, 66, 111
1, 59368, Note_off_c, 0, 66, 111
1, 59370, Note_on_c, 0, 62, 114
1, 59538, Note_off_c, 0, 62, 114
1, 59552, Note_on_c, 0, 65, 115
1, 59645, Note_off_c, 0, 65, 115
1, 59657, Note_on_c, 0, 63, 113
1, 59751, Note_off_c, 0, 63, 113
1, 59779, Note_on_c, 0, 61, 115
1, 59934, Note_off_c, 0, 61, 115
1, 59938, Note_on_c, 0, 58, 103
1, 60100, Note_off_c, 0, 58, 103
1, 60121, Note_on_c, 0, 54, 102
1, 60229, Note_off_c, 0, 54, 102
1, 60250, Note_on_c, 0, 53, 102
1, 60544, Note_off_c, 0, 53, 102
1, 60560, Note_on_c, 0, 57, 103
1, 60773, Note_off_c, 0, 57, 103
1, 60795, Note_on_c, 0, 60, 104
1, 60953, Note_off_c, 0, 60, 104
1, 60955, Note_on_c, 0, 62, 112
1, 61150, Note_off_c, 0, 62, 112
1, 61168, Note_on_c, 0, 63, 114
1, 61391, Note_off_c, 0, 63, 114
1, 61405, Note_on_c, 0, 65, 120
1, 61622, Note_off_c, 0, 65, 120
1, 61636, Note_on_c, 0, 67, 100
1, 61788, Note_off_c, 0, 67, 100
1, 61812, Note_on_c, 0, 63, 117
1, 62002, Note_off_c, 0, 63, 117
1, 62028, Note_on_c, 0, 59, 99
1, 62214, Note_off_c, 0, 59, 99
1, 62228, Note_on_c, 0, 62, 109
1, 62400, Note_off_c, 0, 62, 109
1, 62422, Note_on_c, 0, 60, 102
1, 62607, Note_off_c, 0, 60, 102
1, 62629, Note_on_c, 0, 58, 99
1, 62777, Note_off_c, 0, 58, 99
1, 62801, Note_on_c, 0, 57, 106
1, 62976, Note_off_c, 0, 57, 106
1, 62998, Note_on_c, 0, 54, 97
1, 63157, Note_off_c, 0, 54, 97
1, 63179, Note_on_c, 0, 53, 99
1, 63389, Note_off_c, 0, 53, 99
1, 63414, Note_on_c, 0, 51, 91
1, 63534, Note_off_c, 0, 51, 91
1, 64703, Note_on_c, 0, 56, 111
1, 65132, Note_off_c, 0, 56, 111
1, 65150, Note_on_c, 0, 55, 108
1, 65398, Note_off_c, 0, 55, 108
1, 65403, Note_on_c, 0, 64, 116
1, 65658, Note_off_c, 0, 64, 116
1, 65663, Note_on_c, 0, 61, 121
1, 65868, Note_off_c, 0, 61, 121
1, 65884, Note_on_c, 0, 55, 108
1, 66079, Note_off_c, 0, 55, 108
1, 66098, Note_on_c, 0, 54, 103
1, 66290, Note_off_c, 0, 54, 103
1, 66336, Note_on_c, 0, 63, 122
1, 66515, Note_off_c, 0, 63, 122
1, 66534, Note_on_c, 0, 60, 107
1, 66751, Note_off_c, 0, 60, 107
1, 66783, Note_on_c, 0, 54, 103
1, 66923, Note_off_c, 0, 54, 103
1, 66942, Note_on_c, 0, 53, 89
1, 67692, Note_off_c, 0, 53, 89
1, 67990, Note_on_c, 0, 57, 110
1, 68826, Note_off_c, 0, 57, 110
1, 68878, Note_on_c, 0, 66, 107
1, 69427, Note_off_c, 0, 66, 107
1, 69433, Note_on_c, 0, 64, 118
1, 69630, Note_off_c, 0, 64, 118
1, 69665, Note_on_c, 0, 62, 117
1, 69813, Note_off_c, 0, 62, 117
1, 69834, Note_on_c, 0, 61, 117
1, 70051, Note_off_c, 0, 61, 117
1, 70065, Note_on_c, 0, 55, 107
1, 70210, Note_off_c, 0, 55, 107
1, 70239, Note_on_c, 0, 54, 96
1, 70653, Note_off_c, 0, 54, 96
1, 70674, Note_on_c, 0, 57, 106
1, 70989, Note_off_c, 0, 57, 106
1, 70994, Note_on_c, 0, 59, 102
1, 71107, Note_off_c, 0, 59, 102
1, 71116, Note_on_c, 0, 64, 116
1, 71323, Note_off_c, 0, 64, 116
1, 71331, Note_on_c, 0, 62, 110
1, 71517, Note_off_c, 0, 62, 110
1, 71535, Note_on_c, 0, 57, 108
1, 71748, Note_off_c, 0, 57, 108
1, 71773, Note_on_c, 0, 55, 102
1, 72026, Note_off_c, 0, 55, 102
1, 72047, Note_on_c, 0, 55, 100
1, 72324, Note_off_c, 0, 55, 100
1, 72346, Note_on_c, 0, 62, 98
1, 73050, Note_off_c, 0, 62, 98
1, 73614, Note_on_c, 0, 57, 113
1, 74092, Note_off_c, 0, 57, 113
1, 74100, Note_on_c, 0, 58, 104
1, 74271, Note_off_c, 0, 58, 104
1, 74276, Note_on_c, 0, 61, 119
1, 74469, Note_off_c, 0, 61, 119
1, 74478, Note_on_c, 0, 64, 117
1, 74644, Note_off_c, 0, 64, 117
1, 74666, Note_on_c, 0, 61, 119
1, 74855, Note_off_c, 0, 61, 119
1, 74864, Note_on_c, 0, 62, 115
1, 75112, Note_off_c, 0, 62, 115
1, 75150, Note_on_c, 0, 66, 112
1, 75393, Note_off_c, 0, 66, 112
1, 75510, Note_on_c, 0, 69, 115
1, 75727, Note_off_c, 0, 69, 115
1, 75748, Note_on_c, 0, 67, 106
1, 75913, Note_off_c, 0, 67, 106
1, 75934, Note_on_c, 0, 62, 116
1, 76146, Note_off_c, 0, 62, 116
1, 76162, Note_on_c, 0, 60, 103
1, 76532, Note_off_c, 0, 60, 103
1, 76550, Note_on_c, 0, 58, 101
1, 76733, Note_off_c, 0, 58, 101
1, 76764, Note_on_c, 0, 57, 101
1, 77383, Note_off_c, 0, 57, 101
1, 77861, Note_on_c, 0, 67, 110
1, 78087, Note_off_c, 0, 67, 110
1, 78098, Note_on_c, 0, 65, 122
1, 78337, Note_off_c, 0, 65, 122
1, 78359, Note_on_c, 0, 66, 116
1, 78486, Note_off_c, 0, 66, 116
1, 78495, Note_on_c, 0, 64, 116
1, 78746, Note_off_c, 0, 64, 116
1, 78777, Note_on_c, 0, 65, 127
1, 78963, Note_off_c, 0, 65, 127
1, 78979, Note_on_c, 0, 62, 113
1, 79154, Note_off_c, 0, 62, 113
1, 79173, Note_on_c, 0, 59, 105
1, 79361, Note_off_c, 0, 59, 105
1, 79370, Note_on_c, 0, 56, 104
1, 79483, Note_off_c, 0, 56, 104
1, 79497, Note_on_c, 0, 55, 107
1, 79730, Note_off_c, 0, 55, 107
1, 79752, Note_on_c, 0, 64, 114
1, 79934, Note_off_c, 0, 64, 114
1, 79955, Note_on_c, 0, 61, 115
1, 80177, Note_off_c, 0, 61, 115
1, 80191, Note_on_c, 0, 55, 104
1, 80346, Note_off_c, 0, 55, 104
1, 80365, Note_on_c, 0, 54, 96
1, 80736, Note_off_c, 0, 54, 96
1, 80772, Note_on_c, 0, 57, 110
1, 81018, Note_off_c, 0, 57, 110
1, 81034, Note_on_c, 0, 59, 103
1, 81171, Note_off_c, 0, 59, 103
1, 81189, Note_on_c, 0, 64, 115
1, 81391, Note_off_c, 0, 64, 115
1, 81409, Note_on_c, 0, 59, 96
1, 81558, Note_off_c, 0, 59, 96
1, 81579, Note_on_c, 0, 62, 115
1, 81674, Note_off_c, 0, 62, 115
1, 81680, Note_on_c, 0, 63, 113
1, 81726, Note_off_c, 0, 63, 113
1, 81743, Note_on_c, 0, 62, 111
1, 81860, Note_off_c, 0, 62, 111
1, 81876, Note_on_c, 0, 59, 93
1, 81983, Note_off_c, 0, 59, 93
1, 82007, Note_on_c, 0, 57, 88
1, 82722, Note_off_c, 0, 57, 88
1, 83273, Note_on_c, 0, 71, 110
1, 83660, Note_off_c, 0, 71, 110
1, 83668, Note_on_c, 0, 74, 109
1, 83802, Note_off_c, 0, 74, 109
1, 83809, Note_on_c, 0, 73, 107
1, 83856, Note_off_c, 0, 73, 107
1, 83871, Note_on_c, 0, 72, 103
1, 83981, Note_off_c, 0, 72, 103
1, 83995, Note_on_c, 0, 71, 112
1, 84270, Note_off_c, 0, 71, 112
1, 84285, Note_on_c, 0, 69, 113
1, 84476, Note_off_c, 0, 69, 113
1, 84495, Note_on_c, 0, 67, 108
1, 84719, Note_off_c, 0, 67, 108
1, 84733, Note_on_c, 0, 66, 115
1, 84877, Note_off_c, 0, 66, 115
1, 84891, Note_on_c, 0, 65, 9
1, 85100, Note_off_c, 0, 65, 9
1, 85119, Note_on_c, 0, 64, 114
1, 85277, Note_off_c, 0, 64, 114
1, 85289, Note_on_c, 0, 62, 120
1, 85505, Note_off_c, 0, 62, 120
1, 85519, Note_on_c, 0, 61, 116
1, 85702, Note_off_c, 0, 61, 116
1, 85730, Note_on_c, 0, 58, 103
1, 85869, Note_off_c, 0, 58, 103
1, 85890, Note_on_c, 0, 57, 105
1, 86146, Note_off_c, 0, 57, 105
1, 86152, Note_on_c, 0, 56, 95
1, 86332, Note_off_c, 0, 56, 95
1, 86361, Note_on_c, 0, 53, 100
1, 86527, Note_off_c, 0, 53, 100
1, 86536, Note_on_c, 0, 51, 91
1, 86779, Note_off_c, 0, 51, 91
1, 87218, Note_on_c, 0, 55, 108
1, 87404, Note_off_c, 0, 55, 108
1, 87406, Note_on_c, 0, 52, 93
1, 87623, Note_off_c, 0, 52, 93
1, 87634, Note_on_c, 0, 53, 93
1, 87675, Note_off_c, 0, 53, 93
1, 87685, Note_on_c, 0, 55, 104
1, 87835, Note_off_c, 0, 55, 104
1, 87859, Note_on_c, 0, 57, 107
1, 88067, Note_off_c, 0, 57, 107
1, 88079, Note_on_c, 0, 59, 99
1, 88232, Note_off_c, 0, 59, 99
1, 88239, Note_on_c, 0, 62, 110
1, 88439, Note_off_c, 0, 62, 110
1, 88463, Note_on_c, 0, 59, 93
1, 88632, Note_off_c, 0, 59, 93
1, 88653, Note_on_c, 0, 60, 103
1, 88876, Note_off_c, 0, 60, 103
1, 88898, Note_on_c, 0, 57, 103
1, 89080, Note_off_c, 0, 57, 103
1, 89089, Note_on_c, 0, 55, 98
1, 89345, Note_off_c, 0, 55, 98
1, 89373, Note_on_c, 0, 52, 87
1, 89472, Note_off_c, 0, 52, 87
1, 89488, Note_on_c, 0, 54, 102
1, 89696, Note_off_c, 0, 54, 102
1, 89734, Note_on_c, 0, 63, 93
1, 90224, Note_off_c, 0, 63, 93
1, 90612, Note_on_c, 0, 68, 100
1, 90678, Note_off_c, 0, 68, 100
1, 90682, Note_on_c, 0, 66, 120
1, 90776, Note_off_c, 0, 66, 120
1, 90787, Note_on_c, 0, 65, 123
1, 91015, Note_off_c, 0, 65, 123
1, 91026, Note_on_c, 0, 62, 118
1, 91199, Note_off_c, 0, 62, 118
1, 91218, Note_on_c, 0, 61, 123
1, 91395, Note_off_c, 0, 61, 123
1, 91405, Note_on_c, 0, 65, 119
1, 91601, Note_off_c, 0, 65, 119
1, 91615, Note_on_c, 0, 69, 112
1, 91821, Note_off_c, 0, 69, 112
1, 91830, Note_on_c, 0, 73, 109
1, 92015, Note_off_c, 0, 73, 109
1, 92030, Note_on_c, 0, 72, 98
1, 92230, Note_off_c, 0, 72, 98
1, 92237, Note_on_c, 0, 65, 114
1, 92434, Note_off_c, 0, 65, 114
1, 92448, Note_on_c, 0, 69, 108
1, 92640, Note_off_c, 0, 69, 108
1, 92647, Note_on_c, 0, 72, 104
1, 92805, Note_off_c, 0, 72, 104
1, 92828, Note_on_c, 0, 59, 94
1, 93246, Note_off_c, 0, 59, 94
1, 93268, Note_on_c, 0, 62, 109
1, 93471, Note_off_c, 0, 62, 109
1, 93487, Note_on_c, 0, 65, 110
1, 93671, Note_off_c, 0, 65, 110
1, 93688, Note_on_c, 0, 67, 99
1, 93835, Note_off_c, 0, 67, 99
1, 93844, Note_on_c, 0, 65, 120
1, 94076, Note_off_c, 0, 65, 120
1, 94094, Note_on_c, 0, 64, 109
1, 94245, Note_off_c, 0, 64, 109
1, 94288, Note_on_c, 0, 55, 104
1, 94489, Note_off_c, 0, 55, 104
1, 94494, Note_on_c, 0, 54, 105
1, 94702, Note_off_c, 0, 54, 105
1, 94717, Note_on_c, 0, 63, 109
1, 94918, Note_off_c, 0, 63, 109
1, 94930, Note_on_c, 0, 59, 97
1, 95143, Note_off_c, 0, 59, 97
1, 95154, Note_on_c, 0, 51, 89
1, 95263, Note_off_c, 0, 51, 89
1, 95273, Note_on_c, 0, 50, 106
1, 95421, Note_off_c, 0, 50, 106
1, 95925, Note_on_c, 0, 56, 109
1, 96375, Note_off_c, 0, 56, 109
1, 96406, Note_on_c, 0, 58, 109
1, 96536, Note_off_c, 0, 58, 109
1, 96548, Note_on_c, 0, 59, 105
1, 96780, Note_off_c, 0, 59, 105
1, 96790, Note_on_c, 0, 61, 120
1, 96990, Note_off_c, 0, 61, 120
1, 96991, Note_on_c, 0, 62, 115
1, 97141, Note_off_c, 0, 62, 115
1, 97165, Note_on_c, 0, 65, 117
1, 97381, Note_off_c, 0, 65, 117
1, 97393, Note_on_c, 0, 63, 119
1, 97571, Note_off_c, 0, 63, 119
1, 97585, Note_on_c, 0, 61, 112
1, 97799, Note_off_c, 0, 61, 112
1, 97808, Note_on_c, 0, 58, 90
1, 98420, Note_off_c, 0, 58, 90
1, 98917, Note_on_c, 0, 63, 123
1, 99124, Note_off_c, 0, 63, 123
1, 99139, Note_on_c, 0, 62, 108
1, 99254, Note_off_c, 0, 62, 108
1, 99285, Note_on_c, 0, 66, 102
1, 99412, Note_off_c, 0, 66, 102
1, 99421, Note_on_c, 0, 70, 106
1, 99570, Note_off_c, 0, 70, 106
1, 99593, Note_on_c, 0, 62, 97
1, 100751, Note_off_c, 0, 62, 97
1, 100758, Note_on_c, 0, 61, 113
1, 100981, Note_off_c, 0, 61, 113
1, 100992, Note_on_c, 0, 58, 106
1, 101126, Note_off_c, 0, 58, 106
1, 101154, Note_on_c, 0, 56, 100
1, 101218, Note_off_c, 0, 56, 100
1, 101231, Note_on_c, 0, 58, 101
1, 101281, Note_off_c, 0, 58, 101
1, 101291, Note_on_c, 0, 56, 99
1, 101378, Note_off_c, 0, 56, 99
1, 101407, Note_on_c, 0, 54, 94
1, 101591, Note_off_c, 0, 54, 94
1, 101597, Note_on_c, 0, 51, 96
1, 101828, Note_off_c, 0, 51, 96
1, 101837, Note_on_c, 0, 49, 98
1, 102035, Note_off_c, 0, 49, 98
1, 102038, Note_on_c, 0, 48, 98
1, 102196, Note_off_c, 0, 48, 98
1, 102218, Note_on_c, 0, 54, 92
1, 102285, Note_off_c, 0, 54, 92
1, 102313, Note_on_c, 0, 56, 92
1, 102465, Note_off_c, 0, 56, 92
1, 102619, Note_on_c, 0, 54, 97
1, 102696, Note_off_c, 0, 54, 97
1, 102712, Note_on_c, 0, 58, 98
1, 102815, Note_off_c, 0, 58, 98
1, 102861, Note_on_c, 0, 55, 92
1, 102998, Note_off_c, 0, 55, 92
1, 103013, Note_on_c, 0, 56, 101
1, 103134, Note_off_c, 0, 56, 101
1, 103158, Note_on_c, 0, 60, 98
1, 103221, Note_off_c, 0, 60, 98
1, 103231, Note_on_c, 0, 57, 92
1, 103260, Note_off_c, 0, 57, 92
1, 103269, Note_on_c, 0, 54, 94
1, 103423, Note_off_c, 0, 54, 94
1, 103430, Note_on_c, 0, 58, 96
1, 103592, Note_off_c, 0, 58, 96
1, 103608, Note_on_c, 0, 54, 94
1, 103651, Note_off_c, 0, 54, 94
1, 103662, Note_on_c, 0, 53, 84
1, 104166, Note_off_c, 0, 53, 84
1, 104895, Note_on_c, 0, 56, 112
1, 105173, Note_off_c, 0, 56, 112
1, 105178, Note_on_c, 0, 53, 103
1, 105404, Note_off_c, 0, 53, 103
1, 105413, Note_on_c, 0, 54, 103
1, 105493, Note_off_c, 0, 54, 103
1, 105500, Note_on_c, 0, 58, 106
1, 105594, Note_off_c, 0, 58, 106
1, 105613, Note_on_c, 0, 63, 117
1, 105776, Note_off_c, 0, 63, 117
1, 105790, Note_on_c, 0, 61, 120
1, 105992, Note_off_c, 0, 61, 120
1, 106014, Note_on_c, 0, 58, 100
1, 106148, Note_off_c, 0, 58, 100
1, 106161, Note_on_c, 0, 54, 95
1, 106807, Note_off_c, 0, 54, 95
1, 106840, Note_on_c, 0, 52, 92
1, 106948, Note_off_c, 0, 52, 92
1, 106954, Note_on_c, 0, 53, 98
1, 107124, Note_off_c, 0, 53, 98
1, 107131, Note_on_c, 0, 56, 102
1, 107241, Note_off_c, 0, 56, 102
1, 107256, Note_on_c, 0, 61, 110
1, 107445, Note_off_c, 0, 61, 110
1, 107452, Note_on_c, 0, 60, 103
1, 107659, Note_off_c, 0, 60, 103
1, 107684, Note_on_c, 0, 56, 99
1, 107872, Note_off_c, 0, 56, 99
1, 107872, Note_on_c, 0, 53, 90
1, 108480, Note_off_c, 0, 53, 90
1, 108495, Note_on_c, 0, 51, 97
1, 108660, Note_off_c, 0, 51, 97
1, 108669, Note_on_c, 0, 52, 98
1, 108803, Note_off_c, 0, 52, 98
1, 108814, Note_on_c, 0, 55, 98
1, 108973, Note_off_c, 0, 55, 98
1, 108980, Note_on_c, 0, 61, 111
1, 109156, Note_off_c, 0, 61, 111
1, 109175, Note_on_c, 0, 59, 95
1, 109360, Note_off_c, 0, 59, 95
1, 109382, Note_on_c, 0, 55, 98
1, 109546, Note_off_c, 0, 55, 98
1, 109568, Note_on_c, 0, 52, 82
1, 110203, Note_off_c, 0, 52, 82
1, 110722, Note_on_c, 0, 51, 100
1, 110850, Note_off_c, 0, 51, 100
1, 110856, Note_on_c, 0, 54, 103
1, 110947, Note_off_c, 0, 54, 103
1, 110953, Note_on_c, 0, 58, 103
1, 111059, Note_off_c, 0, 58, 103
1, 111078, Note_on_c, 0, 61, 119
1, 111246, Note_off_c, 0, 61, 119
1, 111258, Note_on_c, 0, 65, 118
1, 111463, Note_off_c, 0, 65, 118
1, 111483, Note_on_c, 0, 63, 121
1, 111690, Note_off_c, 0, 63, 121
1, 111700, Note_on_c, 0, 61, 120
1, 111931, Note_off_c, 0, 61, 120
1, 111966, Note_on_c, 0, 58, 92
1, 112865, Note_off_c, 0, 58, 92
1, 112886, Note_on_c, 0, 56, 102
1, 112972, Note_off_c, 0, 56, 102
1, 112976, Note_on_c, 0, 58, 99
1, 113076, Note_off_c, 0, 58, 99
1, 113085, Note_on_c, 0, 56, 99
1, 113174, Note_off_c, 0, 56, 99
1, 113182, Note_on_c, 0, 54, 96
1, 113292, Note_off_c, 0, 54, 96
1, 113303, Note_on_c, 0, 51, 95
1, 113493, Note_off_c, 0, 51, 95
1, 113519, Note_on_c, 0, 49, 95
1, 113708, Note_off_c, 0, 49, 95
1, 113726, Note_on_c, 0, 48, 91
1, 114134, Note_off_c, 0, 48, 91
1, 114153, Note_on_c, 0, 54, 98
1, 114485, Note_off_c, 0, 54, 98
1, 114534, Note_on_c, 0, 53, 85
1, 115338, Note_off_c, 0, 53, 85
1, 115756, Note_on_c, 0, 57, 113
1, 116033, Note_off_c, 0, 57, 113
1, 116043, Note_on_c, 0, 60, 114
1, 116292, Note_off_c, 0, 60, 114
1, 116318, Note_on_c, 0, 61, 119
1, 116593, Note_off_c, 0, 61, 119
1, 116659, Note_on_c, 0, 53, 109
1, 116928, Note_off_c, 0, 53, 109
1, 116942, Note_on_c, 0, 57, 112
1, 117195, Note_off_c, 0, 57, 112
1, 117219, Note_on_c, 0, 60, 97
1, 117643, Note_off_c, 0, 60, 97
1, 117667, Note_on_c, 0, 58, 103
1, 117910, Note_off_c, 0, 58, 103
1, 117924, Note_on_c, 0, 65, 95
1, 118863, Note_off_c, 0, 65, 95
1, 119202, Note_on_c, 0, 59, 104
1, 119479, Note_off_c, 0, 59, 104
1, 119497, Note_on_c, 0, 57, 105
1, 119750, Note_off_c, 0, 57, 105
1, 119754, Note_on_c, 0, 64, 108
1, 120423, Note_off_c, 0, 64, 108
1, 120443, Note_on_c, 0, 58, 102
1, 120690, Note_off_c, 0, 58, 102
1, 120726, Note_on_c, 0, 56, 95
1, 120919, Note_off_c, 0, 56, 95
1, 120955, Note_on_c, 0, 63, 85
1, 122192, Note_off_c, 0, 63, 85
1, 122550, Note_on_c, 0, 62, 120
1, 122801, Note_off_c, 0, 62, 120
1, 122831, Note_on_c, 0, 65, 124
1, 123134, Note_off_c, 0, 65, 124
1, 123154, Note_on_c, 0, 68, 110
1, 123459, Note_off_c, 0, 68, 110
1, 123475, Note_on_c, 0, 71, 108
1, 123752, Note_off_c, 0, 71, 108
1, 123758, Note_on_c, 0, 69, 111
1, 124055, Note_off_c, 0, 69, 111
1, 124077, Note_on_c, 0, 70, 112
1, 124284, Note_off_c, 0, 70, 112
1, 124302, Note_on_c, 0, 75, 94
1, 124507, Note_off_c, 0, 75, 94
1, 124533, Note_on_c, 0, 68, 86
1, 125930, Note_off_c, 0, 68, 86
1, 125946, Note_on_c, 0, 66, 107
1, 126163, Note_off_c, 0, 66, 107
1, 126183, Note_on_c, 0, 65, 114
1, 126438, Note_off_c, 0, 65, 114
1, 126480, Note_on_c, 0, 72, 84
1, 126580, Note_off_c, 0, 72, 84
1, 126632, Note_on_c, 0, 63, 101
1, 127380, Note_off_c, 0, 63, 101
1, 127942, Note_on_c, 0, 61, 122
1, 128169, Note_off_c, 0, 61, 122
1, 128173, Note_on_c, 0, 62, 116
1, 128339, Note_off_c, 0, 62, 116
1, 128354, Note_on_c, 0, 65, 120
1, 128563, Note_off_c, 0, 65, 120
1, 128570, Note_on_c, 0, 63, 124
1, 128786, Note_off_c, 0, 63, 124
1, 128797, Note_on_c, 0, 62, 115
1, 128978, Note_off_c, 0, 62, 115
1, 128986, Note_on_c, 0, 59, 103
1, 129182, Note_off_c, 0, 59, 103
1, 129189, Note_on_c, 0, 58, 104
1, 129364, Note_off_c, 0, 58, 104
1, 129379, Note_on_c, 0, 56, 100
1, 129551, Note_off_c, 0, 56, 100
1, 129569, Note_on_c, 0, 54, 105
1, 129776, Note_off_c, 0, 54, 105
1, 129777, Note_on_c, 0, 53, 106
1, 129962, Note_off_c, 0, 53, 106
1, 129984, Note_on_c, 0, 51, 99
1, 130189, Note_off_c, 0, 51, 99
1, 130201, Note_on_c, 0, 50, 96
1, 130353, Note_off_c, 0, 50, 96
1, 130364, Note_on_c, 0, 59, 104
1, 130574, Note_off_c, 0, 59, 104
1, 130595, Note_on_c, 0, 57, 106
1, 130788, Note_off_c, 0, 57, 106
1, 130796, Note_on_c, 0, 56, 91
1, 131586, Note_off_c, 0, 56, 91
1, 132014, Note_on_c, 0, 61, 122
1, 132275, Note_off_c, 0, 61, 122
1, 132309, Note_on_c, 0, 65, 107
1, 132689, Note_off_c, 0, 65, 107
1, 132709, Note_on_c, 0, 68, 106
1, 132859, Note_off_c, 0, 68, 106
1, 132876, Note_on_c, 0, 66, 111
1, 133068, Note_off_c, 0, 66, 111
1, 133079, Note_on_c, 0, 63, 114
1, 133267, Note_off_c, 0, 63, 114
1, 133293, Note_on_c, 0, 61, 107
1, 133724, Note_off_c, 0, 61, 107
1, 133775, Note_on_c, 0, 54, 98
1, 133943, Note_off_c, 0, 54, 98
1, 133955, Note_on_c, 0, 52, 90
1, 134065, Note_off_c, 0, 52, 90
1, 134083, Note_on_c, 0, 53, 99
1, 134550, Note_off_c, 0, 53, 99
1, 134550, Note_on_c, 0, 56, 99
1, 134755, Note_off_c, 0, 56, 99
1, 134762, Note_on_c, 0, 58, 101
1, 134955, Note_off_c, 0, 58, 101
1, 134974, Note_on_c, 0, 60, 102
1, 135188, Note_off_c, 0, 60, 102
1, 135203, Note_on_c, 0, 65, 110
1, 135395, Note_off_c, 0, 65, 110
1, 135402, Note_on_c, 0, 68, 106
1, 135611, Note_off_c, 0, 68, 106
1, 135619, Note_on_c, 0, 72, 105
1, 135768, Note_off_c, 0, 72, 105
1, 135782, Note_on_c, 0, 59, 95
1, 136235, Note_off_c, 0, 59, 95
1, 136270, Note_on_c, 0, 61, 111
1, 136479, Note_off_c, 0, 61, 111
1, 136500, Note_on_c, 0, 64, 110
1, 136649, Note_off_c, 0, 64, 110
1, 136698, Note_on_c, 0, 67, 99
1, 136854, Note_off_c, 0, 67, 99
1, 136889, Note_on_c, 0, 71, 102
1, 137060, Note_off_c, 0, 71, 102
1, 137084, Note_on_c, 0, 66, 103
1, 137280, Note_off_c, 0, 66, 103
1, 137288, Note_on_c, 0, 64, 103
1, 137456, Note_off_c, 0, 64, 103
1, 137474, Note_on_c, 0, 63, 93
1, 138169, Note_off_c, 0, 63, 93
1, 138743, Note_on_c, 0, 66, 109
1, 139001, Note_off_c, 0, 66, 109
1, 139018, Note_on_c, 0, 68, 111
1, 139213, Note_off_c, 0, 68, 111
1, 139232, Note_on_c, 0, 70, 103
1, 139627, Note_off_c, 0, 70, 103
1, 139669, Note_on_c, 0, 66, 93
1, 139783, Note_off_c, 0, 66, 93
1, 139797, Note_on_c, 0, 68, 104
1, 139852, Note_off_c, 0, 68, 104
1, 139858, Note_on_c, 0, 66, 110
1, 140033, Note_off_c, 0, 66, 110
1, 140045, Note_on_c, 0, 63, 118
1, 140241, Note_off_c, 0, 63, 118
1, 140256, Note_on_c, 0, 61, 112
1, 140445, Note_off_c, 0, 61, 112
1, 140466, Note_on_c, 0, 58, 101
1, 140618, Note_off_c, 0, 58, 101
1, 140649, Note_on_c, 0, 54, 95
1, 140780, Note_off_c, 0, 54, 95
1, 140800, Note_on_c, 0, 53, 91
1, 141650, Note_off_c, 0, 53, 91
1, 142146, Note_on_c, 0, 69, 93
1, 142508, Note_off_c, 0, 69, 93
1, 142519, Note_on_c, 0, 74, 102
1, 142632, Note_off_c, 0, 74, 102
1, 142640, Note_on_c, 0, 73, 97
1, 142711, Note_off_c, 0, 73, 97
1, 142720, Note_on_c, 0, 72, 91
1, 142820, Note_off_c, 0, 72, 91
1, 142828, Note_on_c, 0, 71, 100
1, 142940, Note_off_c, 0, 71, 100
1, 142948, Note_on_c, 0, 70, 98
1, 143030, Note_off_c, 0, 70, 98
1, 143053, Note_on_c, 0, 69, 96
1, 143238, Note_off_c, 0, 69, 96
1, 143253, Note_on_c, 0, 72, 94
1, 143306, Note_off_c, 0, 72, 94
1, 143319, Note_on_c, 0, 71, 97
1, 143363, Note_off_c, 0, 71, 97
1, 143373, Note_on_c, 0, 67, 99
1, 143475, Note_off_c, 0, 67, 99
1, 143481, Note_on_c, 0, 66, 108
1, 143590, Note_off_c, 0, 66, 108
1, 143605, Note_on_c, 0, 64, 110
1, 143736, Note_off_c, 0, 64, 110
1, 143743, Note_on_c, 0, 63, 112
1, 143929, Note_off_c, 0, 63, 112
1, 143951, Note_on_c, 0, 60, 92
1, 144037, Note_off_c, 0, 60, 92
1, 144042, Note_on_c, 0, 61, 96
1, 144155, Note_off_c, 0, 61, 96
1, 144197, Note_on_c, 0, 63, 113
1, 144329, Note_off_c, 0, 63, 113
1, 144343, Note_on_c, 0, 60, 100
1, 144471, Note_off_c, 0, 60, 100
1, 144486, Note_on_c, 0, 61, 102
1, 144549, Note_off_c, 0, 61, 102
1, 144565, Note_on_c, 0, 63, 111
1, 144669, Note_off_c, 0, 63, 111
1, 144684, Note_on_c, 0, 65, 97
1, 145587, Note_off_c, 0, 65, 97
1, 145747, Note_on_c, 0, 66, 99
1, 145862, Note_off_c, 0, 66, 99
1, 145874, Note_on_c, 0, 65, 122
1, 145961, Note_off_c, 0, 65, 122
1, 145978, Note_on_c, 0, 64, 114
1, 146071, Note_off_c, 0, 64, 114
1, 146087, Note_on_c, 0, 62, 110
1, 146181, Note_off_c, 0, 62, 110
1, 146186, Note_on_c, 0, 61, 111
1, 146318, Note_off_c, 0, 61, 111
1, 146323, Note_on_c, 0, 59, 101
1, 146396, Note_off_c, 0, 59, 101
1, 146402, Note_on_c, 0, 57, 104
1, 146487, Note_off_c, 0, 57, 104
1, 146497, Note_on_c, 0, 55, 105
1, 146616, Note_off_c, 0, 55, 105
1, 146620, Note_on_c, 0, 54, 99
1, 146752, Note_off_c, 0, 54, 99
1, 146796, Note_on_c, 0, 61, 105
1, 146940, Note_off_c, 0, 61, 105
1, 146946, Note_on_c, 0, 63, 111
1, 147055, Note_off_c, 0, 63, 111
1, 147063, Note_on_c, 0, 65, 115
1, 147162, Note_off_c, 0, 65, 115
1, 147173, Note_on_c, 0, 63, 111
1, 147280, Note_off_c, 0, 63, 111
1, 147286, Note_on_c, 0, 60, 97
1, 147360, Note_off_c, 0, 60, 97
1, 147370, Note_on_c, 0, 58, 98
1, 147440, Note_off_c, 0, 58, 98
1, 147457, Note_on_c, 0, 56, 102
1, 147538, Note_off_c, 0, 56, 102
1, 147553, Note_on_c, 0, 54, 101
1, 147616, Note_off_c, 0, 54, 101
1, 147623, Note_on_c, 0, 53, 95
1, 147772, Note_off_c, 0, 53, 95
1, 147781, Note_on_c, 0, 56, 99
1, 147852, Note_off_c, 0, 56, 99
1, 147873, Note_on_c, 0, 61, 105
1, 148007, Note_off_c, 0, 61, 105
1, 148022, Note_on_c, 0, 65, 102
1, 148238, Note_off_c, 0, 65, 102
1, 148250, Note_on_c, 0, 68, 102
1, 148337, Note_off_c, 0, 68, 102
1, 148347, Note_on_c, 0, 67, 93
1, 148471, Note_off_c, 0, 67, 93
1, 148508, Note_on_c, 0, 64, 107
1, 148611, Note_off_c, 0, 64, 107
1, 148624, Note_on_c, 0, 62, 110
1, 148747, Note_off_c, 0, 62, 110
1, 148756, Note_on_c, 0, 60, 96
1, 148822, Note_off_c, 0, 60, 96
1, 148835, Note_on_c, 0, 59, 97
1, 148939, Note_off_c, 0, 59, 97
1, 148949, Note_on_c, 0, 57, 98
1, 149034, Note_off_c, 0, 57, 98
1, 149052, Note_on_c, 0, 55, 96
1, 149214, Note_off_c, 0, 55, 96
1, 149221, Note_on_c, 0, 54, 92
1, 149368, Note_off_c, 0, 54, 92
1, 149377, Note_on_c, 0, 63, 109
1, 149469, Note_off_c, 0, 63, 109
1, 149486, Note_on_c, 0, 65, 109
1, 149530, Note_off_c, 0, 65, 109
1, 149534, Note_on_c, 0, 63, 112
1, 149679, Note_off_c, 0, 63, 112
1, 149712, Note_on_c, 0, 59, 95
1, 149819, Note_off_c, 0, 59, 95
1, 149882, Note_on_c, 0, 53, 90
1, 150449, Note_off_c, 0, 53, 90
1, 150532, Note_on_c, 0, 53, 96
1, 150612, Note_off_c, 0, 53, 96
1, 150624, Note_on_c, 0, 56, 100
1, 150694, Note_off_c, 0, 56, 100
1, 150703, Note_on_c, 0, 59, 100
1, 150807, Note_off_c, 0, 59, 100
1, 150816, Note_on_c, 0, 58, 84
1, 151390, Note_off_c, 0, 58, 84
1, 152022, Note_on_c, 0, 63, 120
1, 152244, Note_off_c, 0, 63, 120
1, 152256, Note_on_c, 0, 65, 114
1, 152575, Note_off_c, 0, 65, 114
1, 152589, Note_on_c, 0, 67, 108
1, 152668, Note_off_c, 0, 67, 108
1, 152673, Note_on_c, 0, 66, 118
1, 152724, Note_off_c, 0, 66, 118
1, 152744, Note_on_c, 0, 65, 112
1, 152905, Note_off_c, 0, 65, 112
1, 152919, Note_on_c, 0, 63, 120
1, 153190, Note_off_c, 0, 63, 120
1, 153202, Note_on_c, 0, 62, 116
1, 153419, Note_off_c, 0, 62, 116
1, 153443, Note_on_c, 0, 65, 120
1, 153674, Note_off_c, 0, 65, 120
1, 153705, Note_on_c, 0, 68, 105
1, 153900, Note_off_c, 0, 68, 105
1, 153902, Note_on_c, 0, 71, 107
1, 154156, Note_off_c, 0, 71, 107
1, 154171, Note_on_c, 0, 70, 108
1, 154411, Note_off_c, 0, 70, 108
1, 154432, Note_on_c, 0, 66, 111
1, 154627, Note_off_c, 0, 66, 111
1, 154696, Note_on_c, 0, 62, 110
1, 154884, Note_off_c, 0, 62, 110
1, 154896, Note_on_c, 0, 65, 120
1, 155096, Note_off_c, 0, 65, 120
1, 155116, Note_on_c, 0, 63, 109
1, 155399, Note_off_c, 0, 63, 109
1, 155416, Note_on_c, 0, 58, 100
1, 155590, Note_off_c, 0, 58, 100
1, 155599, Note_on_c, 0, 54, 103
1, 155750, Note_off_c, 0, 54, 103
1, 155752, Note_on_c, 0, 51, 101
1, 156008, Note_off_c, 0, 51, 101
1, 156027, Note_on_c, 0, 50, 88
1, 156230, Note_off_c, 0, 50, 88
1, 156234, Note_on_c, 0, 59, 101
1, 156429, Note_off_c, 0, 59, 101
1, 156445, Note_on_c, 0, 57, 90
1, 157279, Note_off_c, 0, 57, 90
1, 157815, Note_on_c, 0, 56, 112
1, 157959, Note_off_c, 0, 56, 112
1, 157978, Note_on_c, 0, 58, 109
1, 158201, Note_off_c, 0, 58, 109
1, 158222, Note_on_c, 0, 60, 111
1, 158400, Note_off_c, 0, 60, 111
1, 158418, Note_on_c, 0, 63, 122
1, 158623, Note_off_c, 0, 63, 122
1, 158634, Note_on_c, 0, 61, 120
1, 158843, Note_off_c, 0, 61, 120
1, 158867, Note_on_c, 0, 56, 106
1, 159025, Note_off_c, 0, 56, 106
1, 159041, Note_on_c, 0, 54, 104
1, 159270, Note_off_c, 0, 54, 104
1, 159281, Note_on_c, 0, 58, 102
1, 159481, Note_off_c, 0, 58, 102
1, 159481, Note_on_c, 0, 63, 115
1, 159703, Note_off_c, 0, 63, 115
1, 159749, Note_on_c, 0, 58, 96
1, 159857, Note_off_c, 0, 58, 96
1, 159869, Note_on_c, 0, 61, 101
1, 160663, Note_off_c, 0, 61, 101
1, 160995, Note_on_c, 0, 52, 100
1, 161161, Note_off_c, 0, 52, 100
1, 161168, Note_on_c, 0, 53, 112
1, 161364, Note_off_c, 0, 53, 112
1, 161380, Note_on_c, 0, 54, 107
1, 161529, Note_off_c, 0, 54, 107
1, 161547, Note_on_c, 0, 56, 102
1, 161784, Note_off_c, 0, 56, 102
1, 161799, Note_on_c, 0, 58, 106
1, 161967, Note_off_c, 0, 58, 106
1, 161982, Note_on_c, 0, 60, 104
1, 162213, Note_off_c, 0, 60, 104
1, 162227, Note_on_c, 0, 61, 116
1, 162386, Note_off_c, 0, 61, 116
1, 162393, Note_on_c, 0, 63, 121
1, 162600, Note_off_c, 0, 63, 121
1, 162621, Note_on_c, 0, 62, 112
1, 162780, Note_off_c, 0, 62, 112
1, 162788, Note_on_c, 0, 59, 104
1, 162956, Note_off_c, 0, 59, 104
1, 162980, Note_on_c, 0, 50, 87
1, 163141, Note_off_c, 0, 50, 87
1, 163173, Note_on_c, 0, 53, 101
1, 163413, Note_off_c, 0, 53, 101
1, 163418, Note_on_c, 0, 56, 95
1, 163627, Note_off_c, 0, 56, 95
1, 163628, Note_on_c, 0, 59, 100
1, 163841, Note_off_c, 0, 59, 100
1, 163873, Note_on_c, 0, 57, 91
1, 163980, Note_off_c, 0, 57, 91
1, 163999, Note_on_c, 0, 58, 92
1, 164583, Note_off_c, 0, 58, 92
1, 165318, Note_on_c, 0, 65, 119
1, 165565, Note_off_c, 0, 65, 119
1, 165574, Note_on_c, 0, 62, 118
1, 165749, Note_off_c, 0, 62, 118
1, 165774, Note_on_c, 0, 63, 120
1, 165983, Note_off_c, 0, 63, 120
1, 165999, Note_on_c, 0, 65, 121
1, 166191, Note_off_c, 0, 65, 121
1, 166203, Note_on_c, 0, 66, 112
1, 166378, Note_off_c, 0, 66, 112
1, 166394, Note_on_c, 0, 68, 107
1, 166580, Note_off_c, 0, 68, 107
1, 166595, Note_on_c, 0, 70, 109
1, 166814, Note_off_c, 0, 70, 109
1, 166832, Note_on_c, 0, 66, 116
1, 166991, Note_off_c, 0, 66, 116
1, 167017, Note_on_c, 0, 65, 120
1, 167203, Note_off_c, 0, 65, 120
1, 167228, Note_on_c, 0, 63, 119
1, 167413, Note_off_c, 0, 63, 119
1, 167442, Note_on_c, 0, 61, 105
1, 167642, Note_off_c, 0, 61, 105
1, 167661, Note_on_c, 0, 60, 100
1, 167822, Note_off_c, 0, 60, 100
1, 167837, Note_on_c, 0, 66, 47
1, 168029, Note_off_c, 0, 66, 47
1, 168053, Note_on_c, 0, 65, 104
1, 168686, Note_off_c, 0, 65, 104
1, 168712, Note_on_c, 0, 63, 108
1, 168912, Note_off_c, 0, 63, 108
1, 168931, Note_on_c, 0, 61, 99
1, 169148, Note_off_c, 0, 61, 99
1, 169169, Note_on_c, 0, 60, 92
1, 169310, Note_off_c, 0, 60, 92
1, 169329, Note_on_c, 0, 58, 97
1, 169477, Note_off_c, 0, 58, 97
1, 169509, Note_on_c, 0, 57, 100
1, 169740, Note_off_c, 0, 57, 100
1, 169766, Note_on_c, 0, 61, 98
1, 169962, Note_off_c, 0, 61, 98
1, 169973, Note_on_c, 0, 54, 84
1, 170622, Note_off_c, 0, 54, 84
1, 171170, Note_on_c, 0, 53, 106
1, 171369, Note_off_c, 0, 53, 106
1, 171380, Note_on_c, 0, 57, 107
1, 171603, Note_off_c, 0, 57, 107
1, 171605, Note_on_c, 0, 60, 108
1, 171885, Note_off_c, 0, 60, 108
1, 171906, Note_on_c, 0, 58, 99
1, 172178, Note_off_c, 0, 58, 99
1, 172185, Note_on_c, 0, 51, 101
1, 172463, Note_off_c, 0, 51, 101
1, 172475, Note_on_c, 0, 50, 94
1, 172691, Note_off_c, 0, 50, 94
1, 172709, Note_on_c, 0, 59, 96
1, 172931, Note_off_c, 0, 59, 96
1, 172945, Note_on_c, 0, 54, 86
1, 173155, Note_off_c, 0, 54, 86
1, 173179, Note_on_c, 0, 64, 97
1, 173430, Note_off_c, 0, 64, 97
1, 173448, Note_on_c, 0, 59, 90
1, 173695, Note_off_c, 0, 59, 90
1, 173719, Note_on_c, 0, 57, 96
1, 173966, Note_off_c, 0, 57, 96
1, 173981, Note_on_c, 0, 56, 86
1, 174688, Note_off_c, 0, 56, 86
1, 175256, Note_on_c, 0, 61, 105
1, 176772, Note_off_c, 0, 61, 105
1, 176800, Note_on_c, 0, 64, 109
1, 177021, Note_off_c, 0, 64, 109
1, 177025, Note_on_c, 0, 55, 97
1, 177279, Note_off_c, 0, 55, 97
1, 177298, Note_on_c, 0, 54, 91
1, 177783, Note_off_c, 0, 54, 91
1, 177826, Note_on_c, 0, 57, 104
1, 178070, Note_off_c, 0, 57, 104
1, 178089, Note_on_c, 0, 59, 98
1, 178202, Note_off_c, 0, 59, 98
1, 178228, Note_on_c, 0, 64, 108
1, 178336, Note_off_c, 0, 64, 108
1, 178344, Note_on_c, 0, 65, 110
1, 178475, Note_off_c, 0, 65, 110
1, 178483, Note_on_c, 0, 64, 108
1, 178576, Note_off_c, 0, 64, 108
1, 178597, Note_on_c, 0, 62, 109
1, 178807, Note_off_c, 0, 62, 109
1, 178855, Note_on_c, 0, 55, 89
1, 179712, Note_off_c, 0, 55, 89
1, 180400, Note_on_c, 0, 57, 111
1, 180639, Note_off_c, 0, 57, 111
1, 180639, Note_on_c, 0, 59, 99
1, 180803, Note_off_c, 0, 59, 99
1, 180818, Note_on_c, 0, 64, 113
1, 181035, Note_off_c, 0, 64, 113
1, 181053, Note_on_c, 0, 61, 115
1, 181246, Note_off_c, 0, 61, 115
1, 181258, Note_on_c, 0, 62, 109
1, 181426, Note_off_c, 0, 62, 109
1, 181458, Note_on_c, 0, 64, 108
1, 181624, Note_off_c, 0, 64, 108
1, 181693, Note_on_c, 0, 69, 105
1, 181872, Note_off_c, 0, 69, 105
1, 181882, Note_on_c, 0, 71, 97
1, 181939, Note_off_c, 0, 71, 97
1, 181946, Note_on_c, 0, 69, 101
1, 182051, Note_off_c, 0, 69, 101
1, 182060, Note_on_c, 0, 67, 101
1, 182331, Note_off_c, 0, 67, 101
1, 182348, Note_on_c, 0, 60, 99
1, 182803, Note_off_c, 0, 60, 99
1, 182809, Note_on_c, 0, 58, 83
1, 183766, Note_off_c, 0, 58, 83
1, 184207, Note_on_c, 0, 67, 99
1, 184417, Note_off_c, 0, 67, 99
1, 184430, Note_on_c, 0, 65, 110
1, 184626, Note_off_c, 0, 65, 110
1, 184638, Note_on_c, 0, 66, 106
1, 184757, Note_off_c, 0, 66, 106
1, 184776, Note_on_c, 0, 67, 102
1, 184834, Note_off_c, 0, 67, 102
1, 184845, Note_on_c, 0, 66, 107
1, 184898, Note_off_c, 0, 66, 107
1, 184905, Note_on_c, 0, 64, 110
1, 185035, Note_off_c, 0, 64, 110
1, 185052, Note_on_c, 0, 62, 107
1, 185265, Note_off_c, 0, 62, 107
1, 185297, Note_on_c, 0, 59, 98
1, 185452, Note_off_c, 0, 59, 98
1, 185473, Note_on_c, 0, 57, 104
1, 185707, Note_off_c, 0, 57, 104
1, 185736, Note_on_c, 0, 55, 100
1, 185902, Note_off_c, 0, 55, 100
1, 185921, Note_on_c, 0, 56, 98
1, 186018, Note_off_c, 0, 56, 98
1, 186025, Note_on_c, 0, 59, 91
1, 186128, Note_off_c, 0, 59, 91
1, 186147, Note_on_c, 0, 62, 104
1, 186278, Note_off_c, 0, 62, 104
1, 186295, Note_on_c, 0, 65, 114
1, 186513, Note_off_c, 0, 65, 114
1, 186527, Note_on_c, 0, 63, 108
1, 186694, Note_off_c, 0, 63, 108
1, 186704, Note_on_c, 0, 64, 101
1, 186859, Note_off_c, 0, 64, 101
1, 186872, Note_on_c, 0, 61, 104
1, 187025, Note_off_c, 0, 61, 104
1, 187034, Note_on_c, 0, 59, 94
1, 187134, Note_off_c, 0, 59, 94
1, 187145, Note_on_c, 0, 55, 95
1, 187365, Note_off_c, 0, 55, 95
1, 187374, Note_on_c, 0, 53, 96
1, 187545, Note_off_c, 0, 53, 96
1, 187552, Note_on_c, 0, 54, 94
1, 187694, Note_off_c, 0, 54, 94
1, 187712, Note_on_c, 0, 57, 95
1, 187818, Note_off_c, 0, 57, 95
1, 187831, Note_on_c, 0, 59, 94
1, 187953, Note_off_c, 0, 59, 94
1, 187983, Note_on_c, 0, 64, 106
1, 188197, Note_off_c, 0, 64, 106
1, 188351, Note_on_c, 0, 62, 93
1, 189131, Note_off_c, 0, 62, 93
1, 189652, Note_on_c, 0, 74, 110
1, 189840, Note_off_c, 0, 74, 110
1, 189886, Note_on_c, 0, 70, 107
1, 190047, Note_off_c, 0, 70, 107
1, 190081, Note_on_c, 0, 66, 110
1, 190290, Note_off_c, 0, 66, 110
1, 190301, Note_on_c, 0, 60, 105
1, 190485, Note_off_c, 0, 60, 105
1, 190504, Note_on_c, 0, 59, 97
1, 190916, Note_off_c, 0, 59, 97
1, 190916, Note_on_c, 0, 64, 110
1, 191097, Note_off_c, 0, 64, 110
1, 191166, Note_on_c, 0, 59, 99
1, 191311, Note_off_c, 0, 59, 99
1, 191337, Note_on_c, 0, 62, 110
1, 191523, Note_off_c, 0, 62, 110
1, 191541, Note_on_c, 0, 64, 108
1, 191695, Note_off_c, 0, 64, 108
1, 191717, Note_on_c, 0, 65, 117
1, 191968, Note_off_c, 0, 65, 117
1, 191985, Note_on_c, 0, 67, 97
1, 192123, Note_off_c, 0, 67, 97
1, 192133, Note_on_c, 0, 68, 101
1, 192343, Note_off_c, 0, 68, 101
1, 192350, Note_on_c, 0, 69, 108
1, 192569, Note_off_c, 0, 69, 108
1, 192993, Note_on_c, 0, 79, 103
1, 193191, Note_off_c, 0, 79, 103
1, 193206, Note_on_c, 0, 75, 105
1, 193375, Note_off_c, 0, 75, 105
1, 193394, Note_on_c, 0, 71, 104
1, 193594, Note_off_c, 0, 71, 104
1, 193610, Note_on_c, 0, 67, 101
1, 193787, Note_off_c, 0, 67, 101
1, 193799, Note_on_c, 0, 66, 111
1, 193964, Note_off_c, 0, 66, 111
1, 193973, Note_on_c, 0, 65, 118
1, 194172, Note_off_c, 0, 65, 118
1, 194180, Note_on_c, 0, 64, 109
1, 194430, Note_off_c, 0, 64, 109
1, 194473, Note_on_c, 0, 55, 100
1, 194625, Note_off_c, 0, 55, 100
1, 194636, Note_on_c, 0, 57, 100
1, 194805, Note_off_c, 0, 57, 100
1, 194822, Note_on_c, 0, 59, 99
1, 195011, Note_off_c, 0, 59, 99
1, 195024, Note_on_c, 0, 62, 109
1, 195235, Note_off_c, 0, 62, 109
1, 195247, Note_on_c, 0, 59, 99
1, 195436, Note_off_c, 0, 59, 99
1, 195445, Note_on_c, 0, 60, 100
1, 195598, Note_off_c, 0, 60, 100
1, 195616, Note_on_c, 0, 62, 106
1, 195800, Note_off_c, 0, 62, 106
1, 195831, Note_on_c, 0, 64, 109
1, 196028, Note_off_c, 0, 64, 109
1, 196064, Note_on_c, 0, 67, 94
1, 196176, Note_off_c, 0, 67, 94
1, 196189, Note_on_c, 0, 69, 109
1, 196424, Note_off_c, 0, 69, 109
1, 196476, Note_on_c, 0, 73, 97
1, 196645, Note_off_c, 0, 73, 97
1, 196680, Note_on_c, 0, 66, 94
1, 197204, Note_off_c, 0, 66, 94
1, 197779, Note_on_c, 0, 65, 103
1, 198213, Note_off_c, 0, 65, 103
1, 198245, Note_on_c, 0, 69, 104
1, 198371, Note_off_c, 0, 69, 104
1, 198409, Note_on_c, 0, 63, 103
1, 198516, Note_off_c, 0, 63, 103
1, 198527, Note_on_c, 0, 65, 108
1, 198592, Note_off_c, 0, 65, 108
1, 198606, Note_on_c, 0, 64, 110
1, 198704, Note_off_c, 0, 64, 110
1, 198723, Note_on_c, 0, 62, 104
1, 198866, Note_off_c, 0, 62, 104
1, 198877, Note_on_c, 0, 61, 110
1, 199050, Note_off_c, 0, 61, 110
1, 199052, Note_on_c, 0, 57, 102
1, 199203, Note_off_c, 0, 57, 102
1, 199217, Note_on_c, 0, 60, 99
1, 199454, Note_off_c, 0, 60, 99
1, 199462, Note_on_c, 0, 57, 103
1, 199621, Note_off_c, 0, 57, 103
1, 199652, Note_on_c, 0, 53, 95
1, 199814, Note_off_c, 0, 53, 95
1, 199860, Note_on_c, 0, 48, 90
1, 200219, Note_off_c, 0, 48, 90
1, 200258, Note_on_c, 0, 57, 105
1, 200436, Note_off_c, 0, 57, 105
1, 200450, Note_on_c, 0, 53, 101
1, 200720, Note_off_c, 0, 53, 101
1, 200828, Note_on_c, 0, 52, 87
1, 201308, Note_off_c, 0, 52, 87
1, 201694, Note_on_c, 0, 51, 100
1, 201865, Note_off_c, 0, 51, 100
1, 201880, Note_on_c, 0, 54, 96
1, 202069, Note_off_c, 0, 54, 96
1, 202071, Note_on_c, 0, 61, 116
1, 202290, Note_off_c, 0, 61, 116
1, 202302, Note_on_c, 0, 59, 103
1, 202462, Note_off_c, 0, 59, 103
1, 202546, Note_on_c, 0, 51, 101
1, 202749, Note_off_c, 0, 51, 101
1, 202763, Note_on_c, 0, 53, 100
1, 202905, Note_off_c, 0, 53, 100
1, 202907, Note_on_c, 0, 60, 105
1, 203098, Note_off_c, 0, 60, 105
1, 203122, Note_on_c, 0, 58, 100
1, 203299, Note_off_c, 0, 58, 100
1, 203326, Note_on_c, 0, 62, 113
1, 203515, Note_off_c, 0, 62, 113
1, 203529, Note_on_c, 0, 65, 114
1, 203749, Note_off_c, 0, 65, 114
1, 203775, Note_on_c, 0, 68, 107
1, 203954, Note_off_c, 0, 68, 107
1, 203968, Note_on_c, 0, 65, 119
1, 204191, Note_off_c, 0, 65, 119
1, 204206, Note_on_c, 0, 66, 86
1, 205022, Note_off_c, 0, 66, 86
1, 205416, Note_on_c, 0, 51, 103
1, 205721, Note_off_c, 0, 51, 103
1, 205750, Note_on_c, 0, 53, 105
1, 205967, Note_off_c, 0, 53, 105
1, 205991, Note_on_c, 0, 51, 101
1, 206228, Note_off_c, 0, 51, 101
1, 206268, Note_on_c, 0, 53, 91
1, 207386, Note_off_c, 0, 53, 91
1, 207402, Note_on_c, 0, 51, 96
1, 207544, Note_off_c, 0, 51, 96
1, 207601, Note_on_c, 0, 58, 85
1, 209142, Note_off_c, 0, 58, 85
1, 209521, Note_on_c, 0, 60, 112
1, 209772, Note_off_c, 0, 60, 112
1, 209780, Note_on_c, 0, 61, 118
1, 210007, Note_off_c, 0, 61, 118
1, 210023, Note_on_c, 0, 58, 106
1, 210204, Note_off_c, 0, 58, 106
1, 210236, Note_on_c, 0, 60, 108
1, 210448, Note_off_c, 0, 60, 108
1, 210462, Note_on_c, 0, 56, 105
1, 210630, Note_off_c, 0, 56, 105
1, 210648, Note_on_c, 0, 52, 94
1, 210813, Note_off_c, 0, 52, 94
1, 211032, Note_on_c, 0, 53, 91
1, 211983, Note_off_c, 0, 53, 91
1, 212263, Note_on_c, 0, 56, 107
1, 212482, Note_off_c, 0, 56, 107
1, 212494, Note_on_c, 0, 58, 108
1, 212689, Note_off_c, 0, 58, 108
1, 212711, Note_on_c, 0, 60, 105
1, 212903, Note_off_c, 0, 60, 105
1, 212928, Note_on_c, 0, 63, 120
1, 213114, Note_off_c, 0, 63, 120
1, 213130, Note_on_c, 0, 61, 118
1, 213340, Note_off_c, 0, 61, 118
1, 213345, Note_on_c, 0, 58, 102
1, 213511, Note_off_c, 0, 58, 102
1, 213548, Note_on_c, 0, 54, 90
1, 214388, Note_off_c, 0, 54, 90
1, 214672, Note_on_c, 0, 52, 106
1, 214786, Note_off_c, 0, 52, 106
1, 214792, Note_on_c, 0, 53, 106
1, 214953, Note_off_c, 0, 53, 106
1, 214956, Note_on_c, 0, 56, 109
1, 215085, Note_off_c, 0, 56, 109
1, 215106, Note_on_c, 0, 60, 110
1, 215384, Note_off_c, 0, 60, 110
1, 215408, Note_on_c, 0, 63, 116
1, 215821, Note_off_c, 0, 63, 116
1, 215837, Note_on_c, 0, 61, 119
1, 216124, Note_off_c, 0, 61, 119
1, 216155, Note_on_c, 0, 60, 110
1, 216628, Note_off_c, 0, 60, 110
1, 216644, Note_on_c, 0, 58, 93
1, 217537, Note_off_c, 0, 58, 93
1, 217658, Note_on_c, 0, 54, 102
1, 217736, Note_off_c, 0, 54, 102
1, 217762, Note_on_c, 0, 51, 95
1, 218664, Note_off_c, 0, 51, 95
1, 219047, Note_on_c, 0, 54, 110
1, 219379, Note_off_c, 0, 54, 110
1, 219405, Note_on_c, 0, 58, 101
1, 219792, Note_off_c, 0, 58, 101
1, 219801, Note_on_c, 0, 61, 119
1, 220098, Note_off_c, 0, 61, 119
1, 220112, Note_on_c, 0, 58, 106
1, 220370, Note_off_c, 0, 58, 106
1, 220381, Note_on_c, 0, 56, 108
1, 220562, Note_off_c, 0, 56, 108
1, 220578, Note_on_c, 0, 54, 102
1, 220754, Note_off_c, 0, 54, 102
1, 220841, Note_on_c, 0, 49, 96
1, 221000, Note_off_c, 0, 49, 96
1, 221008, Note_on_c, 0, 51, 100
1, 221104, Note_off_c, 0, 51, 100
1, 221118, Note_on_c, 0, 53, 95
1, 221836, Note_off_c, 0, 53, 95
1, 222480, Note_on_c, 0, 53, 105
1, 223027, Note_off_c, 0, 53, 105
1, 223045, Note_on_c, 0, 54, 106
1, 223309, Note_off_c, 0, 54, 106
1, 223317, Note_on_c, 0, 57, 112
1, 223605, Note_off_c, 0, 57, 112
1, 223619, Note_on_c, 0, 60, 110
1, 223982, Note_off_c, 0, 60, 110
1, 224006, Note_on_c, 0, 61, 116
1, 224274, Note_off_c, 0, 61, 116
1, 224313, Note_on_c, 0, 53, 108
1, 224535, Note_off_c, 0, 53, 108
1, 224563, Note_on_c, 0, 57, 109
1, 224862, Note_off_c, 0, 57, 109
1, 224901, Note_on_c, 0, 60, 84
1, 226666, Note_off_c, 0, 60, 84
1, 226695, Note_on_c, 0, 58, 104
1, 226898, Note_off_c, 0, 58, 104
1, 226928, Note_on_c, 0, 53, 101
1, 227127, Note_off_c, 0, 53, 101
1, 227137, Note_on_c, 0, 51, 95
1, 227322, Note_off_c, 0, 51, 95
1, 227334, Note_on_c, 0, 48, 84
1, 227595, Note_off_c, 0, 48, 84
1, 227623, Note_on_c, 0, 49, 86
1, 227800, Note_off_c, 0, 49, 86
1, 227814, Note_on_c, 0, 51, 80
1, 228035, Note_off_c, 0, 51, 80
1, 228069, Note_on_c, 0, 53, 83
1, 228300, Note_off_c, 0, 53, 83
1, 228306, Note_on_c, 0, 58, 75
1, 228571, Note_off_c, 0, 58, 75
1, 228605, Note_on_c, 0, 59, 47
1, 229972, Note_off_c, 0, 59, 47
1, 229972, End_track
0, 0, End_of_file
