0, 0, Header, 1, 1, 1320
1, 0, Start_track
1, 0, Title_t, "Melody"
1, 0, Tempo, 517241
1, 0, Key_signature, -1, "major"
1, 0, Time_signature, 4, 2, 24, 8
1, 12295, Note_on_c, 0, 53, 110
1, 12576, Note_off_c, 0, 53, 110
1, 12635, Note_on_c, 0, 56, 107
1, 13390, Note_off_c, 0, 56, 107
1, 13671, Note_on_c, 0, 58, 112
1, 14100, Note_off_c, 0, 58, 112
1, 14262, Note_on_c, 0, 55, 99
1, 14469, Note_off_c, 0, 55, 99
1, 14602, Note_on_c, 0, 58, 106
1, 15564, Note_off_c, 0, 58, 106
1, 15697, Note_on_c, 0, 57, 106
1, 16393, Note_off_c, 0, 57, 106
1, 16422, Note_on_c, 0, 53, 102
1, 16599, Note_off_c, 0, 53, 102
1, 17665, Note_on_c, 0, 53, 111
1, 17872, Note_off_c, 0, 53, 111
1, 18020, Note_on_c, 0, 56, 111
1, 18642, Note_off_c, 0, 56, 111
1, 18849, Note_on_c, 0, 58, 104
1, 19441, Note_off_c, 0, 58, 104
1, 19455, Note_on_c, 0, 57, 98
1, 19603, Note_off_c, 0, 57, 98
1, 19662, Note_on_c, 0, 58, 104
1, 20639, Note_off_c, 0, 58, 104
1, 20653, Note_on_c, 0, 57, 97
1, 21364, Note_off_c, 0, 57, 97
1, 21675, Note_on_c, 0, 60, 105
1, 22030, Note_off_c, 0, 60, 105
1, 22044, Note_on_c, 0, 59, 98
1, 22132, Note_off_c, 0, 59, 98
1, 22887, Note_on_c, 0, 53, 111
1, 23212, Note_off_c, 0, 53, 111
1, 23256, Note_on_c, 0, 56, 110
1, 24322, Note_off_c, 0, 56, 110
1, 24410, Note_on_c, 0, 57, 101
1, 24706, Note_off_c, 0, 57, 101
1, 24839, Note_on_c, 0, 65, 105
1, 25979, Note_off_c, 0, 65, 105
1, 26141, Note_on_c, 0, 63, 105
1, 26926, Note_off_c, 0, 63, 105
1, 26970, Note_on_c, 0, 55, 103
1, 27369, Note_off_c, 0, 55, 103
1, 27413, Note_on_c, 0, 62, 107
1, 28050, Note_off_c, 0, 62, 107
1, 28094, Note_on_c, 0, 60, 103
1, 28597, Note_off_c, 0, 60, 103
1, 28626, Note_on_c, 0, 57, 92
1, 29307, Note_off_c, 0, 57, 92
1, 29455, Note_on_c, 0, 51, 110
1, 30077, Note_off_c, 0, 51, 110
1, 30151, Note_on_c, 0, 50, 102
1, 30728, Note_off_c, 0, 50, 102
1, 30982, Note_on_c, 0, 60, 91
1, 33242, Note_off_c, 0, 60, 91
1, 33460, Note_on_c, 0, 59, 107
1, 33647, Note_off_c, 0, 59, 107
1, 33657, Note_on_c, 0, 60, 105
1, 33886, Note_off_c, 0, 60, 105
1, 33938, Note_on_c, 0, 59, 100
1, 34354, Note_off_c, 0, 59, 100
1, 34354, Note_on_c, 0, 58, 103
1, 34583, Note_off_c, 0, 58, 103
1, 34593, Note_on_c, 0, 56, 103
1, 35259, Note_off_c, 0, 56, 103
1, 35571, Note_on_c, 0, 56, 97
1, 36466, Note_off_c, 0, 56, 97
1, 38903, Note_on_c, 0, 45, 110
1, 39121, Note_off_c, 0, 45, 110
1, 39225, Note_on_c, 0, 46, 115
1, 39433, Note_off_c, 0, 46, 115
1, 39474, Note_on_c, 0, 50, 110
1, 39807, Note_off_c, 0, 50, 110
1, 39817, Note_on_c, 0, 53, 116
1, 40202, Note_off_c, 0, 53, 116
1, 40326, Note_on_c, 0, 56, 116
1, 40763, Note_off_c, 0, 56, 116
1, 40783, Note_on_c, 0, 57, 118
1, 41345, Note_off_c, 0, 57, 118
1, 41386, Note_on_c, 0, 60, 113
1, 41958, Note_off_c, 0, 60, 113
1, 42989, Note_on_c, 0, 57, 121
1, 43457, Note_off_c, 0, 57, 121
1, 43561, Note_on_c, 0, 58, 116
1, 44008, Note_off_c, 0, 58, 116
1, 44070, Note_on_c, 0, 65, 101
1, 44882, Note_off_c, 0, 65, 101
1, 45465, Note_on_c, 0, 57, 115
1, 45725, Note_off_c, 0, 57, 115
1, 46318, Note_on_c, 0, 59, 108
1, 46672, Note_off_c, 0, 59, 108
1, 46713, Note_on_c, 0, 62, 114
1, 47212, Note_off_c, 0, 62, 114
1, 47326, Note_on_c, 0, 65, 116
1, 48044, Note_off_c, 0, 65, 116
1, 48044, Note_on_c, 0, 68, 109
1, 48418, Note_off_c, 0, 68, 109
1, 48490, Note_on_c, 0, 69, 93
1, 49292, Note_off_c, 0, 69, 93
1, 49427, Note_on_c, 0, 64, 118
1, 49864, Note_off_c, 0, 64, 118
1, 49916, Note_on_c, 0, 63, 103
1, 50405, Note_off_c, 0, 63, 103
1, 50748, Note_on_c, 0, 61, 105
1, 51237, Note_off_c, 0, 61, 105
1, 51268, Note_on_c, 0, 62, 105
1, 51955, Note_off_c, 0, 62, 105
1, 54881, Note_on_c, 0, 65, 115
1, 59922, Note_off_c, 0, 65, 115
1, 59994, Note_on_c, 0, 66, 109
1, 60150, Note_off_c, 0, 66, 109
1, 60150, Note_on_c, 0, 65, 117
1, 60483, Note_off_c, 0, 65, 117
1, 60493, Note_on_c, 0, 62, 114
1, 60826, Note_off_c, 0, 62, 114
1, 60930, Note_on_c, 0, 56, 97
1, 61211, Note_off_c, 0, 56, 97
1, 61332, Note_on_c, 0, 52, 113
1, 61487, Note_off_c, 0, 52, 113
1, 62386, Note_on_c, 0, 53, 94
1, 64500, Note_off_c, 0, 53, 94
1, 64593, Note_on_c, 0, 57, 112
1, 64988, Note_off_c, 0, 57, 112
1, 65071, Note_on_c, 0, 60, 111
1, 65393, Note_off_c, 0, 60, 111
1, 68497, Note_on_c, 0, 65, 114
1, 71361, Note_off_c, 0, 65, 114
1, 72200, Note_on_c, 0, 74, 116
1, 72370, Note_off_c, 0, 74, 116
1, 72377, Note_on_c, 0, 73, 115
1, 72621, Note_off_c, 0, 73, 115
1, 72621, Note_on_c, 0, 72, 121
1, 72776, Note_off_c, 0, 72, 121
1, 72798, Note_on_c, 0, 71, 113
1, 73235, Note_off_c, 0, 71, 113
1, 73272, Note_on_c, 0, 67, 119
1, 73479, Note_off_c, 0, 67, 119
1, 73501, Note_on_c, 0, 68, 116
1, 73671, Note_off_c, 0, 68, 116
1, 73678, Note_on_c, 0, 69, 119
1, 73848, Note_off_c, 0, 69, 119
1, 73855, Note_on_c, 0, 72, 111
1, 74099, Note_off_c, 0, 72, 111
1, 74121, Note_on_c, 0, 71, 115
1, 74246, Note_off_c, 0, 71, 115
1, 74260, Note_on_c, 0, 67, 122
1, 74497, Note_off_c, 0, 67, 122
1, 74519, Note_on_c, 0, 63, 113
1, 74770, Note_off_c, 0, 63, 113
1, 74792, Note_on_c, 0, 58, 105
1, 75117, Note_off_c, 0, 58, 105
1, 75161, Note_on_c, 0, 59, 107
1, 75435, Note_off_c, 0, 59, 107
1, 75457, Note_on_c, 0, 62, 116
1, 75694, Note_off_c, 0, 62, 116
1, 75708, Note_on_c, 0, 60, 110
1, 75930, Note_off_c, 0, 60, 110
1, 75981, Note_on_c, 0, 58, 109
1, 76410, Note_off_c, 0, 58, 109
1, 76439, Note_on_c, 0, 56, 105
1, 76579, Note_off_c, 0, 56, 105
1, 76601, Note_on_c, 0, 55, 108
1, 76763, Note_off_c, 0, 55, 108
1, 76777, Note_on_c, 0, 54, 104
1, 76925, Note_off_c, 0, 54, 104
1, 76999, Note_on_c, 0, 52, 121
1, 77095, Note_off_c, 0, 52, 121
1, 77124, Note_on_c, 0, 51, 116
1, 77212, Note_off_c, 0, 51, 116
1, 77241, Note_on_c, 0, 50, 105
1, 77485, Note_off_c, 0, 50, 105
1, 77699, Note_on_c, 0, 57, 102
1, 77928, Note_off_c, 0, 57, 102
1, 77965, Note_on_c, 0, 60, 107
1, 78476, Note_off_c, 0, 60, 107
1, 78476, Note_on_c, 0, 57, 103
1, 78683, Note_off_c, 0, 57, 103
1, 78749, Note_on_c, 0, 58, 105
1, 79000, Note_off_c, 0, 58, 105
1, 79037, Note_on_c, 0, 62, 103
1, 79207, Note_off_c, 0, 62, 103
1, 79207, Note_on_c, 0, 67, 120
1, 79555, Note_off_c, 0, 67, 120
1, 79614, Note_on_c, 0, 64, 124
1, 79888, Note_off_c, 0, 64, 124
1, 79910, Note_on_c, 0, 65, 124
1, 80235, Note_off_c, 0, 65, 124
1, 80316, Note_on_c, 0, 55, 105
1, 82056, Note_off_c, 0, 55, 105
1, 82100, Note_on_c, 0, 56, 112
1, 82240, Note_off_c, 0, 56, 112
1, 82284, Note_on_c, 0, 58, 113
1, 82454, Note_off_c, 0, 58, 113
1, 82461, Note_on_c, 0, 61, 101
1, 82690, Note_off_c, 0, 61, 101
1, 82690, Note_on_c, 0, 64, 108
1, 82875, Note_off_c, 0, 64, 108
1, 82882, Note_on_c, 0, 67, 116
1, 83104, Note_off_c, 0, 67, 116
1, 83133, Note_on_c, 0, 65, 117
1, 83295, Note_off_c, 0, 65, 117
1, 83309, Note_on_c, 0, 64, 118
1, 83464, Note_off_c, 0, 64, 118
1, 83471, Note_on_c, 0, 65, 116
1, 83626, Note_off_c, 0, 65, 116
1, 83633, Note_on_c, 0, 66, 113
1, 83766, Note_off_c, 0, 66, 113
1, 83795, Note_on_c, 0, 67, 110
1, 83950, Note_off_c, 0, 67, 110
1, 83979, Note_on_c, 0, 68, 102
1, 84149, Note_off_c, 0, 68, 102
1, 84163, Note_on_c, 0, 70, 106
1, 84296, Note_off_c, 0, 70, 106
1, 84310, Note_on_c, 0, 71, 116
1, 84472, Note_off_c, 0, 71, 116
1, 84531, Note_on_c, 0, 72, 112
1, 84812, Note_off_c, 0, 72, 112
1, 87219, Note_on_c, 0, 72, 122
1, 87915, Note_off_c, 0, 72, 122
1, 87937, Note_on_c, 0, 74, 109
1, 88092, Note_off_c, 0, 74, 109
1, 88277, Note_on_c, 0, 77, 116
1, 92343, Note_off_c, 0, 77, 116
1, 92365, Note_on_c, 0, 75, 117
1, 92609, Note_off_c, 0, 75, 117
1, 92631, Note_on_c, 0, 77, 123
1, 93290, Note_off_c, 0, 77, 123
1, 93290, Note_on_c, 0, 76, 119
1, 93386, Note_off_c, 0, 76, 119
1, 93408, Note_on_c, 0, 73, 115
1, 93615, Note_off_c, 0, 73, 115
1, 93637, Note_on_c, 0, 72, 120
1, 93777, Note_off_c, 0, 72, 120
1, 93806, Note_on_c, 0, 71, 112
1, 93909, Note_off_c, 0, 71, 112
1, 93916, Note_on_c, 0, 72, 106
1, 94041, Note_off_c, 0, 72, 106
1, 94048, Note_on_c, 0, 71, 109
1, 94188, Note_off_c, 0, 71, 109
1, 94210, Note_on_c, 0, 67, 118
1, 94484, Note_off_c, 0, 67, 118
1, 94646, Note_on_c, 0, 65, 111
1, 98075, Note_off_c, 0, 65, 111
1, 98178, Note_on_c, 0, 71, 109
1, 98792, Note_off_c, 0, 71, 109
1, 99066, Note_on_c, 0, 65, 96
1, 101028, Note_off_c, 0, 65, 96
1, 102087, Note_on_c, 0, 70, 121
1, 102575, Note_off_c, 0, 70, 121
1, 102619, Note_on_c, 0, 65, 113
1, 103485, Note_off_c, 0, 65, 113
1, 103581, Note_on_c, 0, 68, 120
1, 104010, Note_off_c, 0, 68, 120
1, 104032, Note_on_c, 0, 69, 114
1, 104639, Note_off_c, 0, 69, 114
1, 104705, Note_on_c, 0, 57, 107
1, 105179, Note_off_c, 0, 57, 107
1, 105186, Note_on_c, 0, 60, 98
1, 106645, Note_off_c, 0, 60, 98
1, 108644, Note_on_c, 0, 68, 117
1, 108843, Note_off_c, 0, 68, 117
1, 108954, Note_on_c, 0, 66, 119
1, 109065, Note_off_c, 0, 66, 119
1, 109361, Note_on_c, 0, 64, 123
1, 109827, Note_off_c, 0, 64, 123
1, 109871, Note_on_c, 0, 56, 110
1, 110004, Note_off_c, 0, 56, 110
1, 110070, Note_on_c, 0, 57, 117
1, 110284, Note_off_c, 0, 57, 117
1, 110439, Note_on_c, 0, 60, 116
1, 110646, Note_off_c, 0, 60, 116
1, 110771, Note_on_c, 0, 64, 122
1, 111000, Note_off_c, 0, 64, 122
1, 111014, Note_on_c, 0, 68, 116
1, 111265, Note_off_c, 0, 68, 116
1, 111302, Note_on_c, 0, 72, 107
1, 111464, Note_off_c, 0, 72, 107
1, 111478, Note_on_c, 0, 69, 112
1, 111789, Note_off_c, 0, 69, 112
1, 111833, Note_on_c, 0, 68, 120
1, 112484, Note_off_c, 0, 68, 120
1, 112602, Note_on_c, 0, 56, 118
1, 114476, Note_off_c, 0, 56, 118
1, 114550, Note_on_c, 0, 55, 115
1, 114824, Note_off_c, 0, 55, 115
1, 114942, Note_on_c, 0, 58, 108
1, 115164, Note_off_c, 0, 58, 108
1, 115193, Note_on_c, 0, 62, 118
1, 115830, Note_off_c, 0, 62, 118
1, 115867, Note_on_c, 0, 63, 114
1, 116163, Note_off_c, 0, 63, 114
1, 116177, Note_on_c, 0, 64, 118
1, 116510, Note_off_c, 0, 64, 118
1, 116517, Note_on_c, 0, 65, 108
1, 116642, Note_off_c, 0, 65, 108
1, 116656, Note_on_c, 0, 66, 99
1, 116744, Note_off_c, 0, 66, 99
1, 116781, Note_on_c, 0, 65, 111
1, 116988, Note_off_c, 0, 65, 111
1, 117032, Note_on_c, 0, 62, 99
1, 118291, Note_off_c, 0, 62, 99
1, 120365, Note_on_c, 0, 64, 123
1, 120579, Note_off_c, 0, 64, 123
1, 120608, Note_on_c, 0, 65, 122
1, 120956, Note_off_c, 0, 65, 122
1, 121200, Note_on_c, 0, 70, 122
1, 121666, Note_off_c, 0, 70, 122
1, 121688, Note_on_c, 0, 69, 116
1, 122139, Note_off_c, 0, 69, 116
1, 122346, Note_on_c, 0, 65, 124
1, 122886, Note_off_c, 0, 65, 124
1, 123048, Note_on_c, 0, 60, 115
1, 123692, Note_off_c, 0, 60, 115
1, 123817, Note_on_c, 0, 64, 125
1, 124668, Note_off_c, 0, 64, 125
1, 124697, Note_on_c, 0, 65, 126
1, 124971, Note_off_c, 0, 65, 126
1, 125689, Note_on_c, 0, 60, 89
1, 125777, Note_off_c, 0, 60, 89
1, 125799, Note_on_c, 0, 61, 121
1, 126332, Note_off_c, 0, 61, 121
1, 126361, Note_on_c, 0, 62, 120
1, 126583, Note_off_c, 0, 62, 120
1, 126627, Note_on_c, 0, 64, 127
1, 126752, Note_off_c, 0, 64, 127
1, 126766, Note_on_c, 0, 62, 118
1, 126869, Note_off_c, 0, 62, 118
1, 126869, Note_on_c, 0, 64, 123
1, 127009, Note_off_c, 0, 64, 123
1, 127023, Note_on_c, 0, 62, 116
1, 127104, Note_off_c, 0, 62, 116
1, 127104, Note_on_c, 0, 65, 117
1, 127215, Note_off_c, 0, 65, 117
1, 127266, Note_on_c, 0, 63, 115
1, 127354, Note_off_c, 0, 63, 115
1, 127357, Note_on_c, 0, 65, 113
1, 127519, Note_off_c, 0, 65, 113
1, 127563, Note_on_c, 0, 63, 114
1, 127666, Note_off_c, 0, 63, 114
1, 127684, Note_on_c, 0, 64, 112
1, 127832, Note_off_c, 0, 64, 112
1, 127850, Note_on_c, 0, 62, 107
1, 127990, Note_off_c, 0, 62, 107
1, 128019, Note_on_c, 0, 64, 97
1, 128137, Note_off_c, 0, 64, 97
1, 128140, Note_on_c, 0, 62, 102
1, 128251, Note_off_c, 0, 62, 102
1, 128262, Note_on_c, 0, 64, 108
1, 128395, Note_off_c, 0, 64, 108
1, 128398, Note_on_c, 0, 62, 103
1, 128553, Note_off_c, 0, 62, 103
1, 128553, Note_on_c, 0, 64, 101
1, 128634, Note_off_c, 0, 64, 101
1, 128634, Note_on_c, 0, 62, 97
1, 128952, Note_off_c, 0, 62, 97
1, 128966, Note_on_c, 0, 61, 110
1, 129180, Note_off_c, 0, 61, 110
1, 129187, Note_on_c, 0, 63, 105
1, 129261, Note_off_c, 0, 63, 105
1, 129261, Note_on_c, 0, 61, 104
1, 129360, Note_off_c, 0, 61, 104
1, 129360, Note_on_c, 0, 60, 106
1, 129430, Note_off_c, 0, 60, 106
1, 129670, Note_on_c, 0, 63, 98
1, 129755, Note_off_c, 0, 63, 98
1, 129769, Note_on_c, 0, 62, 102
1, 129846, Note_off_c, 0, 62, 102
1, 129849, Note_on_c, 0, 61, 106
1, 129989, Note_off_c, 0, 61, 106
1, 129989, Note_on_c, 0, 60, 108
1, 130218, Note_off_c, 0, 60, 108
1, 130236, Note_on_c, 0, 55, 102
1, 130350, Note_off_c, 0, 55, 102
1, 131038, Note_on_c, 0, 52, 110
1, 131356, Note_off_c, 0, 52, 110
1, 131548, Note_on_c, 0, 58, 104
1, 131866, Note_off_c, 0, 58, 104
1, 131895, Note_on_c, 0, 59, 110
1, 132272, Note_off_c, 0, 59, 110
1, 132368, Note_on_c, 0, 57, 103
1, 132893, Note_off_c, 0, 57, 103
1, 132915, Note_on_c, 0, 58, 110
1, 133603, Note_off_c, 0, 58, 110
1, 133728, Note_on_c, 0, 60, 102
1, 134142, Note_off_c, 0, 60, 102
1, 134290, Note_on_c, 0, 56, 101
1, 135778, Note_off_c, 0, 56, 101
1, 135778, End_track
0, 0, End_of_file
