0, 0, Header, 1, 1, 192
1, 0, Start_track
1, 0, Title_t, "Melody"
1, 0, Tempo, 410958
1, 0, Key_signature, -1, "major"
1, 0, Time_signature, 4, 2, 24, 8
1, 1451, Note_on_c, 0, 75, 107
1, 1536, Note_off_c, 0, 75, 107
1, 1635, Note_on_c, 0, 72, 96
1, 2119, Note_off_c, 0, 72, 96
1, 2229, Note_on_c, 0, 71, 93
1, 2286, Note_off_c, 0, 71, 93
1, 2430, Note_on_c, 0, 67, 90
1, 2923, Note_off_c, 0, 67, 90
1, 3003, Note_on_c, 0, 64, 99
1, 3052, Note_off_c, 0, 64, 99
1, 3204, Note_on_c, 0, 60, 81
1, 3602, Note_off_c, 0, 60, 81
1, 4141, Note_on_c, 0, 81, 114
1, 4214, Note_off_c, 0, 81, 114
1, 4343, Note_on_c, 0, 77, 110
1, 4851, Note_off_c, 0, 77, 110
1, 4914, Note_on_c, 0, 76, 111
1, 4953, Note_off_c, 0, 76, 111
1, 5098, Note_on_c, 0, 72, 101
1, 5293, Note_off_c, 0, 72, 101
1, 5307, Note_on_c, 0, 68, 103
1, 5355, Note_off_c, 0, 68, 103
1, 5456, Note_on_c, 0, 64, 103
1, 5677, Note_off_c, 0, 64, 103
1, 5700, Note_on_c, 0, 60, 93
1, 5792, Note_off_c, 0, 60, 93
1, 5837, Note_on_c, 0, 62, 90
1, 6222, Note_off_c, 0, 62, 90
1, 7157, Note_on_c, 0, 72, 104
1, 7201, Note_off_c, 0, 72, 104
1, 7325, Note_on_c, 0, 69, 102
1, 7503, Note_off_c, 0, 69, 102
1, 7530, Note_on_c, 0, 65, 99
1, 7581, Note_off_c, 0, 65, 99
1, 7712, Note_on_c, 0, 61, 94
1, 7832, Note_off_c, 0, 61, 94
1, 7895, Note_on_c, 0, 75, 108
1, 7935, Note_off_c, 0, 75, 108
1, 8043, Note_on_c, 0, 72, 94
1, 8178, Note_off_c, 0, 72, 94
1, 8240, Note_on_c, 0, 79, 108
1, 8277, Note_off_c, 0, 79, 108
1, 8409, Note_on_c, 0, 76, 107
1, 8630, Note_off_c, 0, 76, 107
1, 8681, Note_on_c, 0, 71, 98
1, 8732, Note_off_c, 0, 71, 98
1, 8860, Note_on_c, 0, 69, 98
1, 9014, Note_off_c, 0, 69, 98
1, 9031, Note_on_c, 0, 67, 99
1, 9142, Note_off_c, 0, 67, 99
1, 9190, Note_on_c, 0, 64, 85
1, 9439, Note_off_c, 0, 64, 85
1, 10165, Note_on_c, 0, 78, 122
1, 10247, Note_off_c, 0, 78, 122
1, 10312, Note_on_c, 0, 75, 113
1, 10539, Note_off_c, 0, 75, 113
1, 10572, Note_on_c, 0, 71, 99
1, 10675, Note_off_c, 0, 71, 99
1, 10718, Note_on_c, 0, 73, 96
1, 11264, Note_off_c, 0, 73, 96
1, 11329, Note_on_c, 0, 68, 97
1, 11867, Note_off_c, 0, 68, 97
1, 11936, Note_on_c, 0, 64, 100
1, 12205, Note_off_c, 0, 64, 100
1, 12233, Note_on_c, 0, 63, 98
1, 12614, Note_off_c, 0, 63, 98
1, 12668, Note_on_c, 0, 64, 105
1, 12756, Note_off_c, 0, 64, 105
1, 12767, Note_on_c, 0, 67, 106
1, 12837, Note_off_c, 0, 67, 106
1, 12853, Note_on_c, 0, 69, 103
1, 12947, Note_off_c, 0, 69, 103
1, 12956, Note_on_c, 0, 72, 106
1, 12984, Note_off_c, 0, 72, 106
1, 12997, Note_on_c, 0, 70, 100
1, 13554, Note_off_c, 0, 70, 100
1, 13590, Note_on_c, 0, 67, 98
1, 13637, Note_off_c, 0, 67, 98
1, 13710, Note_on_c, 0, 77, 114
1, 13768, Note_off_c, 0, 77, 114
1, 13872, Note_on_c, 0, 74, 105
1, 14067, Note_off_c, 0, 74, 105
1, 14120, Note_on_c, 0, 67, 84
1, 14175, Note_off_c, 0, 67, 84
1, 14297, Note_on_c, 0, 70, 98
1, 14411, Note_off_c, 0, 70, 98
1, 14500, Note_on_c, 0, 64, 96
1, 14645, Note_off_c, 0, 64, 96
1, 14709, Note_on_c, 0, 75, 111
1, 14801, Note_off_c, 0, 75, 111
1, 14830, Note_on_c, 0, 69, 80
1, 14862, Note_off_c, 0, 69, 80
1, 14890, Note_on_c, 0, 73, 101
1, 15000, Note_off_c, 0, 73, 101
1, 15025, Note_on_c, 0, 72, 88
1, 15214, Note_off_c, 0, 72, 88
1, 15744, Note_on_c, 0, 68, 109
1, 15809, Note_off_c, 0, 68, 109
1, 15821, Note_on_c, 0, 69, 101
1, 15872, Note_off_c, 0, 69, 101
1, 15878, Note_on_c, 0, 73, 89
1, 15912, Note_off_c, 0, 73, 89
1, 15918, Note_on_c, 0, 74, 122
1, 16002, Note_off_c, 0, 74, 122
1, 16046, Note_on_c, 0, 74, 112
1, 16132, Note_off_c, 0, 74, 112
1, 16140, Note_on_c, 0, 75, 105
1, 16288, Note_off_c, 0, 75, 105
1, 16309, Note_on_c, 0, 77, 106
1, 16378, Note_off_c, 0, 77, 106
1, 16388, Note_on_c, 0, 74, 106
1, 16507, Note_off_c, 0, 74, 106
1, 16581, Note_on_c, 0, 72, 97
1, 16650, Note_off_c, 0, 72, 97
1, 16704, Note_on_c, 0, 69, 96
1, 16797, Note_off_c, 0, 69, 96
1, 16878, Note_on_c, 0, 64, 96
1, 16901, Note_off_c, 0, 64, 96
1, 16940, Note_on_c, 0, 67, 101
1, 17021, Note_off_c, 0, 67, 101
1, 17032, Note_on_c, 0, 64, 99
1, 17093, Note_off_c, 0, 64, 99
1, 17119, Note_on_c, 0, 66, 98
1, 17202, Note_off_c, 0, 66, 98
1, 17224, Note_on_c, 0, 63, 104
1, 17305, Note_off_c, 0, 63, 104
1, 17313, Note_on_c, 0, 62, 96
1, 17423, Note_off_c, 0, 62, 96
1, 17433, Note_on_c, 0, 60, 93
1, 17512, Note_off_c, 0, 60, 93
1, 17525, Note_on_c, 0, 61, 95
1, 17809, Note_off_c, 0, 61, 95
1, 18538, Note_on_c, 0, 60, 92
1, 18644, Note_off_c, 0, 60, 92
1, 18688, Note_on_c, 0, 60, 99
1, 18706, Note_off_c, 0, 60, 99
1, 18712, Note_on_c, 0, 61, 93
1, 18817, Note_off_c, 0, 61, 93
1, 18819, Note_on_c, 0, 60, 84
1, 18839, Note_off_c, 0, 60, 84
1, 18880, Note_on_c, 0, 60, 88
1, 18971, Note_off_c, 0, 60, 88
1, 19008, Note_on_c, 0, 60, 96
1, 19026, Note_off_c, 0, 60, 96
1, 19027, Note_on_c, 0, 61, 92
1, 19149, Note_off_c, 0, 61, 92
1, 19150, Note_on_c, 0, 60, 80
1, 19169, Note_off_c, 0, 60, 80
1, 19227, Note_on_c, 0, 60, 90
1, 19304, Note_off_c, 0, 60, 90
1, 19348, Note_on_c, 0, 60, 95
1, 19371, Note_off_c, 0, 60, 95
1, 19371, Note_on_c, 0, 61, 92
1, 19512, Note_off_c, 0, 61, 92
1, 19514, Note_on_c, 0, 60, 84
1, 19535, Note_off_c, 0, 60, 84
1, 19611, Note_on_c, 0, 60, 89
1, 19682, Note_off_c, 0, 60, 89
1, 19708, Note_on_c, 0, 61, 92
1, 19813, Note_off_c, 0, 61, 92
1, 19836, Note_on_c, 0, 63, 100
1, 19883, Note_off_c, 0, 63, 100
1, 19893, Note_on_c, 0, 65, 97
1, 20005, Note_off_c, 0, 65, 97
1, 20040, Note_on_c, 0, 63, 98
1, 20116, Note_off_c, 0, 63, 98
1, 20214, Note_on_c, 0, 61, 92
1, 20286, Note_off_c, 0, 61, 92
1, 20408, Note_on_c, 0, 60, 88
1, 20482, Note_off_c, 0, 60, 88
1, 20514, Note_on_c, 0, 59, 81
1, 20797, Note_off_c, 0, 59, 81
1, 21399, Note_on_c, 0, 71, 117
1, 21486, Note_off_c, 0, 71, 117
1, 21590, Note_on_c, 0, 68, 113
1, 21669, Note_off_c, 0, 68, 113
1, 21751, Note_on_c, 0, 76, 115
1, 21788, Note_off_c, 0, 76, 115
1, 21792, Note_on_c, 0, 77, 121
1, 21873, Note_off_c, 0, 77, 121
1, 21954, Note_on_c, 0, 76, 121
1, 22041, Note_off_c, 0, 76, 121
1, 22135, Note_on_c, 0, 72, 109
1, 22178, Note_off_c, 0, 72, 109
1, 22227, Note_on_c, 0, 69, 111
1, 22307, Note_off_c, 0, 69, 111
1, 22344, Note_on_c, 0, 67, 97
1, 22395, Note_off_c, 0, 67, 97
1, 22403, Note_on_c, 0, 68, 96
1, 22630, Note_off_c, 0, 68, 96
1, 23290, Note_on_c, 0, 69, 110
1, 23349, Note_off_c, 0, 69, 110
1, 23372, Note_on_c, 0, 72, 100
1, 23459, Note_off_c, 0, 72, 100
1, 23479, Note_on_c, 0, 77, 95
1, 23499, Note_off_c, 0, 77, 95
1, 23500, Note_on_c, 0, 74, 118
1, 23552, Note_off_c, 0, 74, 118
1, 23599, Note_on_c, 0, 76, 126
1, 23637, Note_off_c, 0, 76, 126
1, 23644, Note_on_c, 0, 77, 125
1, 23843, Note_off_c, 0, 77, 125
1, 23859, Note_on_c, 0, 74, 111
1, 23904, Note_off_c, 0, 74, 111
1, 23916, Note_on_c, 0, 77, 100
1, 24075, Note_off_c, 0, 77, 100
1, 24095, Note_on_c, 0, 77, 121
1, 24236, Note_off_c, 0, 77, 121
1, 24749, Note_on_c, 0, 72, 103
1, 24847, Note_off_c, 0, 72, 103
1, 24873, Note_on_c, 0, 77, 108
1, 24930, Note_off_c, 0, 77, 108
1, 24945, Note_on_c, 0, 77, 124
1, 25059, Note_off_c, 0, 77, 124
1, 25074, Note_on_c, 0, 79, 120
1, 26066, Note_off_c, 0, 79, 120
1, 26103, Note_on_c, 0, 75, 111
1, 26208, Note_off_c, 0, 75, 111
1, 26230, Note_on_c, 0, 72, 110
1, 26283, Note_off_c, 0, 72, 110
1, 26302, Note_on_c, 0, 69, 109
1, 26380, Note_off_c, 0, 69, 109
1, 26415, Note_on_c, 0, 65, 111
1, 26460, Note_off_c, 0, 65, 111
1, 26478, Note_on_c, 0, 61, 102
1, 26589, Note_off_c, 0, 61, 102
1, 26619, Note_on_c, 0, 57, 91
1, 26655, Note_off_c, 0, 57, 91
1, 26670, Note_on_c, 0, 60, 86
1, 26857, Note_off_c, 0, 60, 86
1, 26893, Note_on_c, 0, 64, 102
1, 26944, Note_off_c, 0, 64, 102
1, 26967, Note_on_c, 0, 67, 92
1, 27000, Note_off_c, 0, 67, 92
1, 27009, Note_on_c, 0, 71, 120
1, 27068, Note_off_c, 0, 71, 120
1, 27074, Note_on_c, 0, 74, 121
1, 27189, Note_off_c, 0, 74, 121
1, 27198, Note_on_c, 0, 71, 105
1, 27233, Note_off_c, 0, 71, 105
1, 27236, Note_on_c, 0, 72, 118
1, 27349, Note_off_c, 0, 72, 118
1, 27360, Note_on_c, 0, 74, 99
1, 27380, Note_off_c, 0, 74, 99
1, 27382, Note_on_c, 0, 72, 113
1, 27421, Note_off_c, 0, 72, 113
1, 27427, Note_on_c, 0, 71, 105
1, 27540, Note_off_c, 0, 71, 105
1, 27560, Note_on_c, 0, 69, 108
1, 27635, Note_off_c, 0, 69, 108
1, 27728, Note_on_c, 0, 67, 109
1, 27874, Note_off_c, 0, 67, 109
1, 27905, Note_on_c, 0, 64, 10
1, 27986, Note_off_c, 0, 64, 10
1, 27993, Note_on_c, 0, 62, 101
1, 28080, Note_off_c, 0, 62, 101
1, 28116, Note_on_c, 0, 57, 108
1, 28159, Note_off_c, 0, 57, 108
1, 28171, Note_on_c, 0, 61, 89
1, 28330, Note_off_c, 0, 61, 89
1, 28822, Note_on_c, 0, 76, 120
1, 28858, Note_off_c, 0, 76, 120
1, 28861, Note_on_c, 0, 77, 96
1, 28931, Note_off_c, 0, 77, 96
1, 28979, Note_on_c, 0, 75, 104
1, 28995, Note_off_c, 0, 75, 104
1, 28998, Note_on_c, 0, 73, 108
1, 29174, Note_off_c, 0, 73, 108
1, 29235, Note_on_c, 0, 78, 121
1, 29306, Note_off_c, 0, 78, 121
1, 29343, Note_on_c, 0, 75, 103
1, 29421, Note_off_c, 0, 75, 103
1, 29441, Note_on_c, 0, 73, 103
1, 29502, Note_off_c, 0, 73, 103
1, 29527, Note_on_c, 0, 72, 93
1, 29599, Note_off_c, 0, 72, 93
1, 29612, Note_on_c, 0, 70, 104
1, 29683, Note_off_c, 0, 70, 104
1, 29686, Note_on_c, 0, 69, 102
1, 29755, Note_off_c, 0, 69, 102
1, 29782, Note_on_c, 0, 64, 103
1, 29827, Note_off_c, 0, 64, 103
1, 29858, Note_on_c, 0, 60, 92
1, 29935, Note_off_c, 0, 60, 92
1, 29950, Note_on_c, 0, 58, 96
1, 30013, Note_off_c, 0, 58, 96
1, 30033, Note_on_c, 0, 57, 83
1, 30311, Note_off_c, 0, 57, 83
1, 30731, Note_on_c, 0, 60, 95
1, 30764, Note_off_c, 0, 60, 95
1, 30779, Note_on_c, 0, 62, 95
1, 30817, Note_off_c, 0, 62, 95
1, 30827, Note_on_c, 0, 64, 100
1, 30854, Note_off_c, 0, 64, 100
1, 30863, Note_on_c, 0, 65, 107
1, 30897, Note_off_c, 0, 65, 107
1, 30899, Note_on_c, 0, 67, 117
1, 30941, Note_off_c, 0, 67, 117
1, 30943, Note_on_c, 0, 69, 117
1, 30980, Note_off_c, 0, 69, 117
1, 30982, Note_on_c, 0, 70, 120
1, 31048, Note_off_c, 0, 70, 120
1, 31055, Note_on_c, 0, 72, 119
1, 31136, Note_off_c, 0, 72, 119
1, 31165, Note_on_c, 0, 73, 121
1, 31263, Note_off_c, 0, 73, 121
1, 31272, Note_on_c, 0, 75, 124
1, 31370, Note_off_c, 0, 75, 124
1, 31391, Note_on_c, 0, 73, 119
1, 31460, Note_off_c, 0, 73, 119
1, 31489, Note_on_c, 0, 75, 121
1, 31637, Note_off_c, 0, 75, 121
1, 31845, Note_on_c, 0, 73, 120
1, 31915, Note_off_c, 0, 73, 120
1, 31969, Note_on_c, 0, 75, 125
1, 32038, Note_off_c, 0, 75, 125
1, 32052, Note_on_c, 0, 77, 120
1, 32072, Note_off_c, 0, 77, 120
1, 32083, Note_on_c, 0, 78, 116
1, 32107, Note_off_c, 0, 78, 116
1, 32108, Note_on_c, 0, 75, 116
1, 32128, Note_off_c, 0, 75, 116
1, 32136, Note_on_c, 0, 73, 120
1, 32230, Note_off_c, 0, 73, 120
1, 32266, Note_on_c, 0, 75, 124
1, 32340, Note_off_c, 0, 75, 124
1, 32351, Note_on_c, 0, 77, 113
1, 32372, Note_off_c, 0, 77, 113
1, 32377, Note_on_c, 0, 78, 111
1, 32397, Note_off_c, 0, 78, 111
1, 32402, Note_on_c, 0, 75, 110
1, 32419, Note_off_c, 0, 75, 110
1, 32429, Note_on_c, 0, 73, 120
1, 32484, Note_off_c, 0, 73, 120
1, 32507, Note_on_c, 0, 72, 110
1, 32582, Note_off_c, 0, 72, 110
1, 32610, Note_on_c, 0, 70, 116
1, 32665, Note_off_c, 0, 70, 116
1, 32710, Note_on_c, 0, 71, 119
1, 32753, Note_off_c, 0, 71, 119
1, 32761, Note_on_c, 0, 72, 117
1, 32904, Note_off_c, 0, 72, 117
1, 32914, Note_on_c, 0, 71, 115
1, 33001, Note_off_c, 0, 71, 115
1, 33019, Note_on_c, 0, 72, 115
1, 33232, Note_off_c, 0, 72, 115
1, 33543, Note_on_c, 0, 72, 118
1, 33608, Note_off_c, 0, 72, 118
1, 33631, Note_on_c, 0, 74, 119
1, 33711, Note_off_c, 0, 74, 119
1, 33730, Note_on_c, 0, 76, 126
1, 33788, Note_off_c, 0, 76, 126
1, 33812, Note_on_c, 0, 77, 124
1, 33914, Note_off_c, 0, 77, 124
1, 33923, Note_on_c, 0, 78, 126
1, 33983, Note_off_c, 0, 78, 126
1, 33993, Note_on_c, 0, 79, 124
1, 34087, Note_off_c, 0, 79, 124
1, 34109, Note_on_c, 0, 82, 124
1, 34209, Note_off_c, 0, 82, 124
1, 34249, Note_on_c, 0, 81, 122
1, 34350, Note_off_c, 0, 81, 122
1, 34365, Note_on_c, 0, 79, 100
1, 34380, Note_off_c, 0, 79, 100
1, 34384, Note_on_c, 0, 77, 115
1, 34440, Note_off_c, 0, 77, 115
1, 34447, Note_on_c, 0, 80, 119
1, 34528, Note_off_c, 0, 80, 119
1, 34539, Note_on_c, 0, 77, 119
1, 34600, Note_off_c, 0, 77, 119
1, 34607, Note_on_c, 0, 76, 120
1, 34688, Note_off_c, 0, 76, 120
1, 34708, Note_on_c, 0, 73, 116
1, 34787, Note_off_c, 0, 73, 116
1, 34895, Note_on_c, 0, 65, 116
1, 34948, Note_off_c, 0, 65, 116
1, 35006, Note_on_c, 0, 71, 117
1, 35087, Note_off_c, 0, 71, 117
1, 35096, Note_on_c, 0, 73, 116
1, 35170, Note_off_c, 0, 73, 116
1, 35180, Note_on_c, 0, 74, 121
1, 35267, Note_off_c, 0, 74, 121
1, 35281, Note_on_c, 0, 70, 107
1, 35361, Note_off_c, 0, 70, 107
1, 35372, Note_on_c, 0, 69, 108
1, 35453, Note_off_c, 0, 69, 108
1, 35480, Note_on_c, 0, 67, 107
1, 35543, Note_off_c, 0, 67, 107
1, 35552, Note_on_c, 0, 68, 105
1, 35635, Note_off_c, 0, 68, 105
1, 35644, Note_on_c, 0, 65, 106
1, 35684, Note_off_c, 0, 65, 106
1, 35687, Note_on_c, 0, 64, 109
1, 35730, Note_off_c, 0, 64, 109
1, 35733, Note_on_c, 0, 62, 103
1, 35838, Note_off_c, 0, 62, 103
1, 35848, Note_on_c, 0, 64, 104
1, 35890, Note_off_c, 0, 64, 104
1, 35910, Note_on_c, 0, 61, 101
1, 36009, Note_off_c, 0, 61, 101
1, 36037, Note_on_c, 0, 58, 93
1, 36067, Note_off_c, 0, 58, 93
1, 36080, Note_on_c, 0, 59, 99
1, 36201, Note_off_c, 0, 59, 99
1, 36208, Note_on_c, 0, 57, 85
1, 36428, Note_off_c, 0, 57, 85
1, 36834, Note_on_c, 0, 76, 122
1, 36854, Note_off_c, 0, 76, 122
1, 36857, Note_on_c, 0, 77, 124
1, 36933, Note_off_c, 0, 77, 124
1, 37028, Note_on_c, 0, 77, 122
1, 37169, Note_off_c, 0, 77, 122
1, 37187, Note_on_c, 0, 77, 119
1, 37396, Note_off_c, 0, 77, 119
1, 37408, Note_on_c, 0, 82, 106
1, 37430, Note_off_c, 0, 82, 106
1, 37431, Note_on_c, 0, 77, 100
1, 37446, Note_off_c, 0, 77, 100
1, 37451, Note_on_c, 0, 75, 102
1, 37462, Note_off_c, 0, 75, 102
1, 37462, Note_on_c, 0, 74, 113
1, 37564, Note_off_c, 0, 74, 113
1, 37572, Note_on_c, 0, 77, 111
1, 37613, Note_off_c, 0, 77, 111
1, 37654, Note_on_c, 0, 81, 122
1, 37765, Note_off_c, 0, 81, 122
1, 37790, Note_on_c, 0, 81, 124
1, 37921, Note_off_c, 0, 81, 124
1, 38560, Note_on_c, 0, 81, 123
1, 38620, Note_off_c, 0, 81, 123
1, 38685, Note_on_c, 0, 82, 125
1, 38732, Note_off_c, 0, 82, 125
1, 38746, Note_on_c, 0, 83, 127
1, 38800, Note_off_c, 0, 83, 127
1, 38814, Note_on_c, 0, 84, 119
1, 39217, Note_off_c, 0, 84, 119
1, 39297, Note_on_c, 0, 85, 122
1, 39366, Note_off_c, 0, 85, 122
1, 39375, Note_on_c, 0, 84, 120
1, 39461, Note_off_c, 0, 84, 120
1, 39478, Note_on_c, 0, 82, 116
1, 39550, Note_off_c, 0, 82, 116
1, 39565, Note_on_c, 0, 81, 114
1, 39647, Note_off_c, 0, 81, 114
1, 39667, Note_on_c, 0, 77, 112
1, 39716, Note_off_c, 0, 77, 112
1, 39752, Note_on_c, 0, 72, 106
1, 39833, Note_off_c, 0, 72, 106
1, 39844, Note_on_c, 0, 70, 111
1, 39913, Note_off_c, 0, 70, 111
1, 39930, Note_on_c, 0, 69, 104
1, 40017, Note_off_c, 0, 69, 104
1, 40037, Note_on_c, 0, 65, 115
1, 40095, Note_off_c, 0, 65, 115
1, 40119, Note_on_c, 0, 60, 97
1, 40196, Note_off_c, 0, 60, 97
1, 40211, Note_on_c, 0, 58, 106
1, 40268, Note_off_c, 0, 58, 106
1, 40279, Note_on_c, 0, 57, 90
1, 40477, Note_off_c, 0, 57, 90
1, 40652, Note_on_c, 0, 69, 120
1, 40781, Note_off_c, 0, 69, 120
1, 40801, Note_on_c, 0, 64, 106
1, 40835, Note_off_c, 0, 64, 106
1, 40846, Note_on_c, 0, 67, 113
1, 40965, Note_off_c, 0, 67, 113
1, 40973, Note_on_c, 0, 64, 102
1, 41026, Note_off_c, 0, 64, 102
1, 41035, Note_on_c, 0, 66, 102
1, 41358, Note_off_c, 0, 66, 102
1, 41426, Note_on_c, 0, 63, 111
1, 41517, Note_off_c, 0, 63, 111
1, 41522, Note_on_c, 0, 61, 96
1, 41545, Note_off_c, 0, 61, 96
1, 41566, Note_on_c, 0, 58, 96
1, 41592, Note_off_c, 0, 58, 96
1, 41611, Note_on_c, 0, 62, 106
1, 41718, Note_off_c, 0, 62, 106
1, 41746, Note_on_c, 0, 58, 97
1, 41777, Note_off_c, 0, 58, 97
1, 41793, Note_on_c, 0, 61, 83
1, 42103, Note_off_c, 0, 61, 83
1, 42471, Note_on_c, 0, 70, 117
1, 42547, Note_off_c, 0, 70, 117
1, 42565, Note_on_c, 0, 68, 107
1, 42650, Note_off_c, 0, 68, 107
1, 42669, Note_on_c, 0, 65, 107
1, 42718, Note_off_c, 0, 65, 107
1, 42723, Note_on_c, 0, 61, 94
1, 42847, Note_off_c, 0, 61, 94
1, 42863, Note_on_c, 0, 58, 99
1, 42883, Note_off_c, 0, 58, 99
1, 42914, Note_on_c, 0, 60, 96
1, 42989, Note_off_c, 0, 60, 96
1, 43031, Note_on_c, 0, 62, 109
1, 43075, Note_off_c, 0, 62, 109
1, 43076, Note_on_c, 0, 64, 106
1, 43124, Note_off_c, 0, 64, 106
1, 43132, Note_on_c, 0, 65, 104
1, 43169, Note_off_c, 0, 65, 104
1, 43256, Note_on_c, 0, 67, 109
1, 43303, Note_off_c, 0, 67, 109
1, 43316, Note_on_c, 0, 69, 111
1, 43384, Note_off_c, 0, 69, 111
1, 43452, Note_on_c, 0, 70, 118
1, 43491, Note_off_c, 0, 70, 118
1, 43510, Note_on_c, 0, 72, 115
1, 43571, Note_off_c, 0, 72, 115
1, 43644, Note_on_c, 0, 73, 119
1, 43691, Note_off_c, 0, 73, 119
1, 43702, Note_on_c, 0, 75, 122
1, 43743, Note_off_c, 0, 75, 122
1, 43759, Note_on_c, 0, 77, 119
1, 44171, Note_off_c, 0, 77, 119
1, 44193, Note_on_c, 0, 75, 115
1, 44230, Note_off_c, 0, 75, 115
1, 44320, Note_on_c, 0, 72, 106
1, 44423, Note_off_c, 0, 72, 106
1, 44461, Note_on_c, 0, 69, 103
1, 44493, Note_off_c, 0, 69, 103
1, 44562, Note_on_c, 0, 65, 110
1, 44655, Note_off_c, 0, 65, 110
1, 44702, Note_on_c, 0, 61, 104
1, 44742, Note_off_c, 0, 61, 104
1, 44830, Note_on_c, 0, 58, 94
1, 44976, Note_off_c, 0, 58, 94
1, 45200, Note_on_c, 0, 79, 120
1, 45241, Note_off_c, 0, 79, 120
1, 45312, Note_on_c, 0, 76, 120
1, 45456, Note_off_c, 0, 76, 120
1, 45483, Note_on_c, 0, 72, 112
1, 45515, Note_off_c, 0, 72, 112
1, 45582, Note_on_c, 0, 68, 110
1, 45759, Note_off_c, 0, 68, 110
1, 45783, Note_on_c, 0, 68, 110
1, 45969, Note_off_c, 0, 68, 110
1, 46471, Note_on_c, 0, 70, 117
1, 46496, Note_off_c, 0, 70, 117
1, 46501, Note_on_c, 0, 68, 114
1, 46521, Note_off_c, 0, 68, 114
1, 46525, Note_on_c, 0, 67, 102
1, 46632, Note_off_c, 0, 67, 102
1, 46670, Note_on_c, 0, 69, 104
1, 46724, Note_off_c, 0, 69, 104
1, 46732, Note_on_c, 0, 70, 103
1, 46814, Note_off_c, 0, 70, 103
1, 46850, Note_on_c, 0, 72, 94
1, 46910, Note_off_c, 0, 72, 94
1, 46934, Note_on_c, 0, 74, 101
1, 47006, Note_off_c, 0, 74, 101
1, 47036, Note_on_c, 0, 77, 122
1, 47108, Note_off_c, 0, 77, 122
1, 47153, Note_on_c, 0, 80, 124
1, 47179, Note_off_c, 0, 80, 124
1, 47185, Note_on_c, 0, 79, 123
1, 47243, Note_off_c, 0, 79, 123
1, 47245, Note_on_c, 0, 80, 123
1, 47274, Note_off_c, 0, 80, 123
1, 47330, Note_on_c, 0, 80, 125
1, 47368, Note_off_c, 0, 80, 125
1, 47369, Note_on_c, 0, 79, 114
1, 47473, Note_off_c, 0, 79, 114
1, 47475, Note_on_c, 0, 80, 114
1, 47508, Note_off_c, 0, 80, 114
1, 47534, Note_on_c, 0, 77, 112
1, 47638, Note_off_c, 0, 77, 112
1, 47666, Note_on_c, 0, 79, 122
1, 47776, Note_off_c, 0, 79, 122
1, 47843, Note_on_c, 0, 77, 119
1, 48794, Note_off_c, 0, 77, 119
1, 48824, Note_on_c, 0, 77, 113
1, 48844, Note_off_c, 0, 77, 113
1, 48848, Note_on_c, 0, 76, 115
1, 48887, Note_off_c, 0, 76, 115
1, 48899, Note_on_c, 0, 75, 109
1, 48971, Note_off_c, 0, 75, 109
1, 49003, Note_on_c, 0, 74, 103
1, 49055, Note_off_c, 0, 74, 103
1, 49100, Note_on_c, 0, 73, 97
1, 49162, Note_off_c, 0, 73, 97
1, 49203, Note_on_c, 0, 71, 98
1, 49261, Note_off_c, 0, 71, 98
1, 49268, Note_on_c, 0, 72, 93
1, 49303, Note_off_c, 0, 72, 93
1, 49358, Note_on_c, 0, 71, 99
1, 49418, Note_off_c, 0, 71, 99
1, 49426, Note_on_c, 0, 72, 94
1, 49460, Note_off_c, 0, 72, 94
1, 49491, Note_on_c, 0, 71, 101
1, 49555, Note_off_c, 0, 71, 101
1, 49560, Note_on_c, 0, 72, 92
1, 49599, Note_off_c, 0, 72, 92
1, 49632, Note_on_c, 0, 71, 97
1, 49673, Note_off_c, 0, 71, 97
1, 49676, Note_on_c, 0, 72, 94
1, 49747, Note_off_c, 0, 72, 94
1, 49769, Note_on_c, 0, 71, 93
1, 49800, Note_off_c, 0, 71, 93
1, 49810, Note_on_c, 0, 72, 108
1, 49891, Note_off_c, 0, 72, 108
1, 49909, Note_on_c, 0, 71, 108
1, 49934, Note_off_c, 0, 71, 108
1, 49943, Note_on_c, 0, 72, 95
1, 50195, Note_off_c, 0, 72, 95
1, 50197, Note_on_c, 0, 70, 91
1, 50232, Note_off_c, 0, 70, 91
1, 50235, Note_on_c, 0, 67, 85
1, 50261, Note_off_c, 0, 67, 85
1, 50302, Note_on_c, 0, 61, 70
1, 50611, Note_off_c, 0, 61, 70
1, 50611, End_track
0, 0, End_of_file
