0, 0, Header, 1, 1, 192
1, 0, Start_track
1, 0, Title_t, "Melody"
1, 0, Tempo, 284360
1, 0, Key_signature, -2, "major"
1, 0, Time_signature, 4, 2, 24, 8
1, 3184, Note_on_c, 0, 76, 114
1, 3309, Note_off_c, 0, 76, 114
1, 3330, Note_on_c, 0, 79, 97
1, 3366, Note_off_c, 0, 79, 97
1, 3375, Note_on_c, 0, 81, 119
1, 3492, Note_off_c, 0, 81, 119
1, 3505, Note_on_c, 0, 81, 121
1, 3854, Note_off_c, 0, 81, 121
1, 4162, Note_on_c, 0, 76, 114
1, 4328, Note_off_c, 0, 76, 114
1, 4378, Note_on_c, 0, 79, 117
1, 4520, Note_off_c, 0, 79, 117
1, 4758, Note_on_c, 0, 76, 116
1, 4889, Note_off_c, 0, 76, 116
1, 4899, Note_on_c, 0, 79, 122
1, 5171, Note_off_c, 0, 79, 122
1, 5171, Note_on_c, 0, 81, 121
1, 5650, Note_off_c, 0, 81, 121
1, 5676, Note_on_c, 0, 81, 119
1, 5718, Note_off_c, 0, 81, 119
1, 5722, Note_on_c, 0, 82, 120
1, 5751, Note_off_c, 0, 82, 120
1, 5757, Note_on_c, 0, 81, 123
1, 5872, Note_off_c, 0, 81, 123
1, 5904, Note_on_c, 0, 76, 109
1, 5938, Note_off_c, 0, 76, 109
1, 5960, Note_on_c, 0, 79, 120
1, 6058, Note_off_c, 0, 79, 120
1, 6434, Note_on_c, 0, 76, 117
1, 6501, Note_off_c, 0, 76, 117
1, 6511, Note_on_c, 0, 79, 119
1, 6624, Note_off_c, 0, 79, 119
1, 6638, Note_on_c, 0, 81, 123
1, 6718, Note_off_c, 0, 81, 123
1, 6732, Note_on_c, 0, 81, 119
1, 7299, Note_off_c, 0, 81, 119
1, 7330, Note_on_c, 0, 79, 114
1, 7422, Note_off_c, 0, 79, 114
1, 7440, Note_on_c, 0, 76, 115
1, 7518, Note_off_c, 0, 76, 115
1, 7526, Note_on_c, 0, 74, 116
1, 7593, Note_off_c, 0, 74, 116
1, 7615, Note_on_c, 0, 73, 114
1, 7687, Note_off_c, 0, 73, 114
1, 7695, Note_on_c, 0, 72, 112
1, 7796, Note_off_c, 0, 72, 112
1, 7816, Note_on_c, 0, 71, 114
1, 7892, Note_off_c, 0, 71, 114
1, 7898, Note_on_c, 0, 70, 116
1, 7979, Note_off_c, 0, 70, 116
1, 8015, Note_on_c, 0, 65, 116
1, 8066, Note_off_c, 0, 65, 116
1, 8091, Note_on_c, 0, 67, 115
1, 8149, Note_off_c, 0, 67, 115
1, 8157, Note_on_c, 0, 69, 116
1, 8203, Note_off_c, 0, 69, 116
1, 8209, Note_on_c, 0, 70, 115
1, 8253, Note_off_c, 0, 70, 115
1, 8264, Note_on_c, 0, 69, 115
1, 8389, Note_off_c, 0, 69, 115
1, 8409, Note_on_c, 0, 70, 107
1, 8453, Note_off_c, 0, 70, 107
1, 8457, Note_on_c, 0, 66, 109
1, 8585, Note_off_c, 0, 66, 109
1, 8601, Note_on_c, 0, 69, 113
1, 8660, Note_off_c, 0, 69, 113
1, 8690, Note_on_c, 0, 64, 113
1, 8822, Note_off_c, 0, 64, 113
1, 8835, Note_on_c, 0, 64, 100
1, 9110, Note_off_c, 0, 64, 100
1, 9592, Note_on_c, 0, 81, 116
1, 9717, Note_off_c, 0, 81, 116
1, 9734, Note_on_c, 0, 82, 114
1, 9791, Note_off_c, 0, 82, 114
1, 9804, Note_on_c, 0, 84, 121
1, 9916, Note_off_c, 0, 84, 121
1, 9937, Note_on_c, 0, 84, 121
1, 10009, Note_off_c, 0, 84, 121
1, 11107, Note_on_c, 0, 79, 107
1, 11160, Note_off_c, 0, 79, 107
1, 11171, Note_on_c, 0, 81, 124
1, 11276, Note_off_c, 0, 81, 124
1, 11286, Note_on_c, 0, 84, 120
1, 11350, Note_off_c, 0, 84, 120
1, 11364, Note_on_c, 0, 84, 120
1, 11453, Note_off_c, 0, 84, 120
1, 11460, Note_on_c, 0, 86, 121
1, 11554, Note_off_c, 0, 86, 121
1, 11562, Note_on_c, 0, 84, 120
1, 11659, Note_off_c, 0, 84, 120
1, 11668, Note_on_c, 0, 82, 120
1, 11728, Note_off_c, 0, 82, 120
1, 11737, Note_on_c, 0, 81, 120
1, 11844, Note_off_c, 0, 81, 120
1, 11861, Note_on_c, 0, 74, 106
1, 11920, Note_off_c, 0, 74, 106
1, 11935, Note_on_c, 0, 79, 119
1, 12042, Note_off_c, 0, 79, 119
1, 12057, Note_on_c, 0, 74, 111
1, 12115, Note_off_c, 0, 74, 111
1, 12126, Note_on_c, 0, 78, 118
1, 12223, Note_off_c, 0, 78, 118
1, 12236, Note_on_c, 0, 75, 124
1, 12326, Note_off_c, 0, 75, 124
1, 12335, Note_on_c, 0, 74, 121
1, 12423, Note_off_c, 0, 74, 121
1, 12433, Note_on_c, 0, 72, 118
1, 12514, Note_off_c, 0, 72, 118
1, 12527, Note_on_c, 0, 71, 108
1, 12623, Note_off_c, 0, 71, 108
1, 12637, Note_on_c, 0, 68, 92
1, 12702, Note_off_c, 0, 68, 92
1, 12710, Note_on_c, 0, 69, 112
1, 12816, Note_off_c, 0, 69, 112
1, 12891, Note_on_c, 0, 69, 111
1, 13212, Note_off_c, 0, 69, 111
1, 13220, Note_on_c, 0, 67, 110
1, 13297, Note_off_c, 0, 67, 110
1, 13405, Note_on_c, 0, 76, 121
1, 13500, Note_off_c, 0, 76, 121
1, 13579, Note_on_c, 0, 74, 117
1, 13664, Note_off_c, 0, 74, 117
1, 13678, Note_on_c, 0, 70, 113
1, 13792, Note_off_c, 0, 70, 113
1, 13877, Note_on_c, 0, 66, 112
1, 13978, Note_off_c, 0, 66, 112
1, 14066, Note_on_c, 0, 68, 115
1, 14161, Note_off_c, 0, 68, 115
1, 14178, Note_on_c, 0, 63, 116
1, 14245, Note_off_c, 0, 63, 116
1, 14261, Note_on_c, 0, 60, 110
1, 14354, Note_off_c, 0, 60, 110
1, 14370, Note_on_c, 0, 55, 103
1, 14430, Note_off_c, 0, 55, 103
1, 14444, Note_on_c, 0, 57, 112
1, 14678, Note_off_c, 0, 57, 112
1, 14692, Note_on_c, 0, 61, 111
1, 14757, Note_off_c, 0, 61, 111
1, 14788, Note_on_c, 0, 64, 107
1, 14849, Note_off_c, 0, 64, 107
1, 14864, Note_on_c, 0, 68, 117
1, 14979, Note_off_c, 0, 68, 117
1, 14998, Note_on_c, 0, 69, 106
1, 15290, Note_off_c, 0, 69, 106
1, 15713, Note_on_c, 0, 79, 110
1, 15747, Note_off_c, 0, 79, 110
1, 15761, Note_on_c, 0, 80, 117
1, 15797, Note_off_c, 0, 80, 117
1, 15809, Note_on_c, 0, 79, 114
1, 16203, Note_off_c, 0, 79, 114
1, 16221, Note_on_c, 0, 75, 117
1, 16309, Note_off_c, 0, 75, 117
1, 17223, Note_on_c, 0, 69, 115
1, 17258, Note_off_c, 0, 69, 115
1, 17265, Note_on_c, 0, 70, 109
1, 17292, Note_off_c, 0, 70, 109
1, 17306, Note_on_c, 0, 72, 102
1, 17398, Note_off_c, 0, 72, 102
1, 17417, Note_on_c, 0, 75, 117
1, 17485, Note_off_c, 0, 75, 117
1, 17494, Note_on_c, 0, 79, 118
1, 17654, Note_off_c, 0, 79, 118
1, 17687, Note_on_c, 0, 79, 115
1, 17842, Note_off_c, 0, 79, 115
1, 17852, Note_on_c, 0, 81, 108
1, 17880, Note_off_c, 0, 81, 108
1, 17887, Note_on_c, 0, 78, 111
1, 17905, Note_off_c, 0, 78, 111
1, 17912, Note_on_c, 0, 75, 118
1, 17969, Note_off_c, 0, 75, 118
1, 17983, Note_on_c, 0, 73, 104
1, 18011, Note_off_c, 0, 73, 104
1, 18022, Note_on_c, 0, 70, 114
1, 18060, Note_off_c, 0, 70, 114
1, 18065, Note_on_c, 0, 68, 113
1, 18173, Note_off_c, 0, 68, 113
1, 18187, Note_on_c, 0, 66, 101
1, 18246, Note_off_c, 0, 66, 101
1, 18258, Note_on_c, 0, 67, 115
1, 18357, Note_off_c, 0, 67, 115
1, 18381, Note_on_c, 0, 70, 108
1, 18424, Note_off_c, 0, 70, 108
1, 18432, Note_on_c, 0, 69, 111
1, 18458, Note_off_c, 0, 69, 111
1, 18462, Note_on_c, 0, 65, 113
1, 18561, Note_off_c, 0, 65, 113
1, 18638, Note_on_c, 0, 63, 118
1, 18746, Note_off_c, 0, 63, 118
1, 18763, Note_on_c, 0, 65, 118
1, 18802, Note_off_c, 0, 65, 118
1, 18836, Note_on_c, 0, 62, 115
1, 18931, Note_off_c, 0, 62, 115
1, 18944, Note_on_c, 0, 55, 101
1, 18999, Note_off_c, 0, 55, 101
1, 19024, Note_on_c, 0, 60, 112
1, 19117, Note_off_c, 0, 60, 112
1, 19134, Note_on_c, 0, 58, 110
1, 19199, Note_off_c, 0, 58, 110
1, 19335, Note_on_c, 0, 58, 102
1, 19379, Note_off_c, 0, 58, 102
1, 19387, Note_on_c, 0, 63, 115
1, 19492, Note_off_c, 0, 63, 115
1, 19808, Note_on_c, 0, 65, 119
1, 19892, Note_off_c, 0, 65, 119
1, 19908, Note_on_c, 0, 69, 115
1, 19983, Note_off_c, 0, 69, 115
1, 19993, Note_on_c, 0, 72, 119
1, 20097, Note_off_c, 0, 72, 119
1, 20106, Note_on_c, 0, 77, 119
1, 20156, Note_off_c, 0, 77, 119
1, 20171, Note_on_c, 0, 81, 120
1, 20436, Note_off_c, 0, 81, 120
1, 20588, Note_on_c, 0, 64, 115
1, 20674, Note_off_c, 0, 64, 115
1, 20691, Note_on_c, 0, 68, 116
1, 20764, Note_off_c, 0, 68, 116
1, 20776, Note_on_c, 0, 71, 114
1, 20866, Note_off_c, 0, 71, 114
1, 20880, Note_on_c, 0, 73, 113
1, 20936, Note_off_c, 0, 73, 113
1, 20949, Note_on_c, 0, 78, 116
1, 20979, Note_off_c, 0, 78, 116
1, 20995, Note_on_c, 0, 76, 118
1, 21148, Note_off_c, 0, 76, 118
1, 21515, Note_on_c, 0, 63, 114
1, 21599, Note_off_c, 0, 63, 114
1, 21610, Note_on_c, 0, 66, 112
1, 21682, Note_off_c, 0, 66, 112
1, 21690, Note_on_c, 0, 64, 113
1, 21763, Note_off_c, 0, 64, 113
1, 21772, Note_on_c, 0, 69, 116
1, 21802, Note_off_c, 0, 69, 116
1, 21807, Note_on_c, 0, 67, 113
1, 21845, Note_off_c, 0, 67, 113
1, 21848, Note_on_c, 0, 68, 117
1, 21872, Note_off_c, 0, 68, 117
1, 21878, Note_on_c, 0, 69, 115
1, 21908, Note_off_c, 0, 69, 115
1, 21912, Note_on_c, 0, 71, 115
1, 21940, Note_off_c, 0, 71, 115
1, 21946, Note_on_c, 0, 73, 116
1, 21976, Note_off_c, 0, 73, 116
1, 21978, Note_on_c, 0, 75, 106
1, 22000, Note_off_c, 0, 75, 106
1, 22003, Note_on_c, 0, 78, 113
1, 22055, Note_off_c, 0, 78, 113
1, 22056, Note_on_c, 0, 82, 120
1, 22129, Note_off_c, 0, 82, 120
1, 22624, Note_on_c, 0, 79, 120
1, 22738, Note_off_c, 0, 79, 120
1, 22760, Note_on_c, 0, 82, 120
1, 22871, Note_off_c, 0, 82, 120
1, 24131, Note_on_c, 0, 77, 113
1, 24202, Note_off_c, 0, 77, 113
1, 24210, Note_on_c, 0, 79, 119
1, 24299, Note_off_c, 0, 79, 119
1, 24308, Note_on_c, 0, 81, 122
1, 24379, Note_off_c, 0, 81, 122
1, 24390, Note_on_c, 0, 82, 121
1, 24487, Note_off_c, 0, 82, 121
1, 24499, Note_on_c, 0, 81, 113
1, 24555, Note_off_c, 0, 81, 113
1, 24570, Note_on_c, 0, 82, 121
1, 24665, Note_off_c, 0, 82, 121
1, 24677, Note_on_c, 0, 81, 120
1, 24748, Note_off_c, 0, 81, 120
1, 24759, Note_on_c, 0, 79, 115
1, 24846, Note_off_c, 0, 79, 115
1, 24872, Note_on_c, 0, 76, 119
1, 24938, Note_off_c, 0, 76, 119
1, 24947, Note_on_c, 0, 75, 118
1, 25060, Note_off_c, 0, 75, 118
1, 25070, Note_on_c, 0, 73, 115
1, 25160, Note_off_c, 0, 73, 115
1, 25169, Note_on_c, 0, 74, 120
1, 25521, Note_off_c, 0, 74, 120
1, 25558, Note_on_c, 0, 77, 120
1, 26009, Note_off_c, 0, 77, 120
1, 26034, Note_on_c, 0, 74, 123
1, 26113, Note_off_c, 0, 74, 123
1, 26116, Note_on_c, 0, 73, 114
1, 26218, Note_off_c, 0, 73, 114
1, 26223, Note_on_c, 0, 74, 125
1, 26300, Note_off_c, 0, 74, 125
1, 26315, Note_on_c, 0, 80, 116
1, 26396, Note_off_c, 0, 80, 116
1, 26425, Note_on_c, 0, 75, 122
1, 26479, Note_off_c, 0, 75, 122
1, 26494, Note_on_c, 0, 72, 102
1, 26594, Note_off_c, 0, 72, 102
1, 26615, Note_on_c, 0, 68, 119
1, 26663, Note_off_c, 0, 68, 119
1, 26684, Note_on_c, 0, 66, 112
1, 26753, Note_off_c, 0, 66, 112
1, 26805, Note_on_c, 0, 69, 117
1, 26867, Note_off_c, 0, 69, 117
1, 26875, Note_on_c, 0, 68, 117
1, 26963, Note_off_c, 0, 68, 117
1, 26992, Note_on_c, 0, 63, 118
1, 27053, Note_off_c, 0, 63, 118
1, 27060, Note_on_c, 0, 60, 112
1, 27161, Note_off_c, 0, 60, 112
1, 27170, Note_on_c, 0, 56, 106
1, 27223, Note_off_c, 0, 56, 106
1, 27230, Note_on_c, 0, 58, 114
1, 27339, Note_off_c, 0, 58, 114
1, 27354, Note_on_c, 0, 61, 110
1, 27442, Note_off_c, 0, 61, 110
1, 27933, Note_on_c, 0, 73, 118
1, 28026, Note_off_c, 0, 73, 118
1, 28099, Note_on_c, 0, 76, 118
1, 28153, Note_off_c, 0, 76, 118
1, 28179, Note_on_c, 0, 80, 118
1, 28504, Note_off_c, 0, 80, 118
1, 28538, Note_on_c, 0, 75, 122
1, 28639, Note_off_c, 0, 75, 122
1, 28695, Note_on_c, 0, 79, 112
1, 28744, Note_off_c, 0, 79, 112
1, 28758, Note_on_c, 0, 82, 119
1, 28985, Note_off_c, 0, 82, 119
1, 29540, Note_on_c, 0, 73, 111
1, 29655, Note_off_c, 0, 73, 111
1, 29669, Note_on_c, 0, 76, 119
1, 29724, Note_off_c, 0, 76, 119
1, 29729, Note_on_c, 0, 80, 118
1, 29910, Note_off_c, 0, 80, 118
1, 29938, Note_on_c, 0, 80, 114
1, 30107, Note_off_c, 0, 80, 114
1, 30132, Note_on_c, 0, 80, 114
1, 30303, Note_off_c, 0, 80, 114
1, 30329, Note_on_c, 0, 82, 117
1, 30413, Note_off_c, 0, 82, 117
1, 30440, Note_on_c, 0, 78, 118
1, 30510, Note_off_c, 0, 78, 118
1, 30526, Note_on_c, 0, 75, 121
1, 30751, Note_off_c, 0, 75, 121
1, 31082, Note_on_c, 0, 73, 112
1, 31164, Note_off_c, 0, 73, 112
1, 31262, Note_on_c, 0, 76, 120
1, 32006, Note_off_c, 0, 76, 120
1, 32042, Note_on_c, 0, 76, 119
1, 32131, Note_off_c, 0, 76, 119
1, 32147, Note_on_c, 0, 77, 121
1, 32203, Note_off_c, 0, 77, 121
1, 32214, Note_on_c, 0, 75, 119
1, 32319, Note_off_c, 0, 75, 119
1, 32336, Note_on_c, 0, 73, 117
1, 32398, Note_off_c, 0, 73, 117
1, 32407, Note_on_c, 0, 74, 121
1, 32498, Note_off_c, 0, 74, 121
1, 32524, Note_on_c, 0, 70, 115
1, 32568, Note_off_c, 0, 70, 115
1, 32592, Note_on_c, 0, 72, 118
1, 32696, Note_off_c, 0, 72, 118
1, 32705, Note_on_c, 0, 71, 112
1, 32763, Note_off_c, 0, 71, 112
1, 32787, Note_on_c, 0, 70, 113
1, 33077, Note_off_c, 0, 70, 113
1, 33142, Note_on_c, 0, 70, 106
1, 33177, Note_off_c, 0, 70, 106
1, 33186, Note_on_c, 0, 67, 111
1, 33248, Note_off_c, 0, 67, 111
1, 33259, Note_on_c, 0, 69, 110
1, 33289, Note_off_c, 0, 69, 110
1, 33293, Note_on_c, 0, 70, 116
1, 33341, Note_off_c, 0, 70, 116
1, 33346, Note_on_c, 0, 69, 114
1, 33526, Note_off_c, 0, 69, 114
1, 34024, Note_on_c, 0, 76, 120
1, 34119, Note_off_c, 0, 76, 120
1, 34172, Note_on_c, 0, 76, 118
1, 34547, Note_off_c, 0, 76, 118
1, 34576, Note_on_c, 0, 74, 114
1, 34624, Note_off_c, 0, 74, 114
1, 34646, Note_on_c, 0, 77, 121
1, 34938, Note_off_c, 0, 77, 121
1, 35008, Note_on_c, 0, 76, 122
1, 35165, Note_off_c, 0, 76, 122
1, 35174, Note_on_c, 0, 71, 105
1, 35208, Note_off_c, 0, 71, 105
1, 35216, Note_on_c, 0, 77, 119
1, 35366, Note_off_c, 0, 77, 119
1, 35920, Note_on_c, 0, 70, 99
1, 35970, Note_off_c, 0, 70, 99
1, 35985, Note_on_c, 0, 76, 108
1, 36087, Note_off_c, 0, 76, 108
1, 36095, Note_on_c, 0, 77, 115
1, 36172, Note_off_c, 0, 77, 115
1, 36183, Note_on_c, 0, 79, 119
1, 36271, Note_off_c, 0, 79, 119
1, 36282, Note_on_c, 0, 81, 119
1, 36349, Note_off_c, 0, 81, 119
1, 36361, Note_on_c, 0, 82, 121
1, 36447, Note_off_c, 0, 82, 121
1, 36464, Note_on_c, 0, 80, 115
1, 36534, Note_off_c, 0, 80, 115
1, 36545, Note_on_c, 0, 81, 122
1, 36636, Note_off_c, 0, 81, 122
1, 36648, Note_on_c, 0, 79, 116
1, 36754, Note_off_c, 0, 79, 116
1, 36761, Note_on_c, 0, 78, 118
1, 36834, Note_off_c, 0, 78, 118
1, 36865, Note_on_c, 0, 75, 122
1, 36933, Note_off_c, 0, 75, 122
1, 36941, Note_on_c, 0, 74, 123
1, 37031, Note_off_c, 0, 74, 123
1, 37040, Note_on_c, 0, 72, 117
1, 37110, Note_off_c, 0, 72, 117
1, 37116, Note_on_c, 0, 71, 113
1, 37209, Note_off_c, 0, 71, 113
1, 37224, Note_on_c, 0, 69, 103
1, 37283, Note_off_c, 0, 69, 103
1, 37296, Note_on_c, 0, 70, 117
1, 37406, Note_off_c, 0, 70, 117
1, 37414, Note_on_c, 0, 66, 111
1, 37494, Note_off_c, 0, 66, 111
1, 37954, Note_on_c, 0, 69, 116
1, 38024, Note_off_c, 0, 69, 116
1, 38048, Note_on_c, 0, 67, 111
1, 38139, Note_off_c, 0, 67, 111
1, 38144, Note_on_c, 0, 69, 117
1, 38212, Note_off_c, 0, 69, 117
1, 38217, Note_on_c, 0, 70, 117
1, 38320, Note_off_c, 0, 70, 117
1, 38329, Note_on_c, 0, 72, 118
1, 38403, Note_off_c, 0, 72, 118
1, 38406, Note_on_c, 0, 74, 120
1, 38521, Note_off_c, 0, 74, 120
1, 38526, Note_on_c, 0, 77, 117
1, 38577, Note_off_c, 0, 77, 117
1, 38587, Note_on_c, 0, 81, 120
1, 38723, Note_off_c, 0, 81, 120
1, 38735, Note_on_c, 0, 74, 99
1, 38774, Note_off_c, 0, 74, 99
1, 38783, Note_on_c, 0, 79, 116
1, 39148, Note_off_c, 0, 79, 116
1, 39161, Note_on_c, 0, 82, 121
1, 39301, Note_off_c, 0, 82, 121
1, 39310, Note_on_c, 0, 84, 123
1, 39382, Note_off_c, 0, 84, 123
1, 40307, Note_on_c, 0, 87, 9
1, 41589, Note_off_c, 0, 87, 9
1, 41606, Note_on_c, 0, 86, 122
1, 41717, Note_off_c, 0, 86, 122
1, 41891, Note_on_c, 0, 81, 126
1, 41988, Note_off_c, 0, 81, 126
1, 42002, Note_on_c, 0, 80, 124
1, 42092, Note_off_c, 0, 80, 124
1, 42099, Note_on_c, 0, 80, 117
1, 42123, Note_off_c, 0, 80, 117
1, 42133, Note_on_c, 0, 78, 125
1, 42185, Note_off_c, 0, 78, 125
1, 42194, Note_on_c, 0, 77, 125
1, 42290, Note_off_c, 0, 77, 125
1, 42302, Note_on_c, 0, 76, 121
1, 42350, Note_off_c, 0, 76, 121
1, 42369, Note_on_c, 0, 77, 120
1, 42454, Note_off_c, 0, 77, 120
1, 42465, Note_on_c, 0, 76, 123
1, 42542, Note_off_c, 0, 76, 123
1, 42550, Note_on_c, 0, 75, 124
1, 42642, Note_off_c, 0, 75, 124
1, 42650, Note_on_c, 0, 74, 123
1, 42716, Note_off_c, 0, 74, 123
1, 42726, Note_on_c, 0, 72, 120
1, 42765, Note_off_c, 0, 72, 120
1, 42772, Note_on_c, 0, 73, 111
1, 42810, Note_off_c, 0, 73, 111
1, 42816, Note_on_c, 0, 72, 120
1, 42847, Note_off_c, 0, 72, 120
1, 42853, Note_on_c, 0, 71, 111
1, 42920, Note_off_c, 0, 71, 111
1, 42936, Note_on_c, 0, 70, 116
1, 43017, Note_off_c, 0, 70, 116
1, 43027, Note_on_c, 0, 69, 116
1, 43097, Note_off_c, 0, 69, 116
1, 43105, Note_on_c, 0, 68, 116
1, 43193, Note_off_c, 0, 68, 116
1, 43201, Note_on_c, 0, 70, 117
1, 43243, Note_off_c, 0, 70, 117
1, 43258, Note_on_c, 0, 67, 114
1, 43377, Note_off_c, 0, 67, 114
1, 43394, Note_on_c, 0, 70, 112
1, 43645, Note_off_c, 0, 70, 112
1, 44147, Note_on_c, 0, 66, 118
1, 44171, Note_off_c, 0, 66, 118
1, 44177, Note_on_c, 0, 67, 121
1, 44212, Note_off_c, 0, 67, 121
1, 44226, Note_on_c, 0, 68, 119
1, 44299, Note_off_c, 0, 68, 119
1, 44333, Note_on_c, 0, 70, 119
1, 44397, Note_off_c, 0, 70, 119
1, 44414, Note_on_c, 0, 72, 117
1, 44493, Note_off_c, 0, 72, 117
1, 44499, Note_on_c, 0, 74, 127
1, 44580, Note_off_c, 0, 74, 127
1, 44583, Note_on_c, 0, 76, 124
1, 44675, Note_off_c, 0, 76, 124
1, 44687, Note_on_c, 0, 77, 123
1, 44737, Note_off_c, 0, 77, 123
1, 44757, Note_on_c, 0, 79, 122
1, 44883, Note_off_c, 0, 79, 122
1, 44960, Note_on_c, 0, 77, 121
1, 45059, Note_off_c, 0, 77, 121
1, 45142, Note_on_c, 0, 80, 117
1, 45252, Note_off_c, 0, 80, 117
1, 45278, Note_on_c, 0, 74, 103
1, 45315, Note_off_c, 0, 74, 103
1, 45332, Note_on_c, 0, 79, 121
1, 45442, Note_off_c, 0, 79, 121
1, 45461, Note_on_c, 0, 73, 97
1, 45496, Note_off_c, 0, 73, 97
1, 45510, Note_on_c, 0, 77, 113
1, 45831, Note_off_c, 0, 77, 113
1, 46092, Note_on_c, 0, 79, 120
1, 46240, Note_off_c, 0, 79, 120
1, 46252, Note_on_c, 0, 82, 122
1, 46815, Note_off_c, 0, 82, 122
1, 46839, Note_on_c, 0, 79, 114
1, 46942, Note_off_c, 0, 79, 114
1, 46956, Note_on_c, 0, 81, 121
1, 47064, Note_off_c, 0, 81, 121
1, 47995, Note_on_c, 0, 76, 112
1, 48064, Note_off_c, 0, 76, 112
1, 48086, Note_on_c, 0, 77, 122
1, 48156, Note_off_c, 0, 77, 122
1, 48174, Note_on_c, 0, 79, 122
1, 48264, Note_off_c, 0, 79, 122
1, 48268, Note_on_c, 0, 81, 120
1, 48329, Note_off_c, 0, 81, 120
1, 48335, Note_on_c, 0, 82, 117
1, 48426, Note_off_c, 0, 82, 117
1, 48437, Note_on_c, 0, 84, 123
1, 48694, Note_off_c, 0, 84, 123
1, 48711, Note_on_c, 0, 82, 121
1, 48806, Note_off_c, 0, 82, 121
1, 48849, Note_on_c, 0, 81, 121
1, 49001, Note_off_c, 0, 81, 121
1, 49003, Note_on_c, 0, 77, 112
1, 49073, Note_off_c, 0, 77, 112
1, 49087, Note_on_c, 0, 77, 120
1, 49175, Note_off_c, 0, 77, 120
1, 49185, Note_on_c, 0, 82, 119
1, 49264, Note_off_c, 0, 82, 119
1, 49277, Note_on_c, 0, 80, 120
1, 49378, Note_off_c, 0, 80, 120
1, 49388, Note_on_c, 0, 78, 112
1, 49415, Note_off_c, 0, 78, 112
1, 49420, Note_on_c, 0, 76, 123
1, 49472, Note_off_c, 0, 76, 123
1, 49475, Note_on_c, 0, 77, 123
1, 49564, Note_off_c, 0, 77, 123
1, 49574, Note_on_c, 0, 76, 124
1, 49640, Note_off_c, 0, 76, 124
1, 49647, Note_on_c, 0, 75, 124
1, 49733, Note_off_c, 0, 75, 124
1, 49745, Note_on_c, 0, 74, 124
1, 49800, Note_off_c, 0, 74, 124
1, 49815, Note_on_c, 0, 73, 119
1, 49905, Note_off_c, 0, 73, 119
1, 49927, Note_on_c, 0, 71, 110
1, 50002, Note_off_c, 0, 71, 110
1, 50011, Note_on_c, 0, 72, 118
1, 50293, Note_off_c, 0, 72, 118
1, 50406, Note_on_c, 0, 69, 112
1, 50492, Note_off_c, 0, 69, 112
1, 50500, Note_on_c, 0, 70, 118
1, 50568, Note_off_c, 0, 70, 118
1, 50576, Note_on_c, 0, 72, 117
1, 50675, Note_off_c, 0, 72, 117
1, 50684, Note_on_c, 0, 70, 113
1, 50960, Note_off_c, 0, 70, 113
1, 51260, Note_on_c, 0, 82, 114
1, 51357, Note_off_c, 0, 82, 114
1, 51437, Note_on_c, 0, 82, 117
1, 51519, Note_off_c, 0, 82, 117
1, 51532, Note_on_c, 0, 81, 124
1, 51685, Note_off_c, 0, 81, 124
1, 51706, Note_on_c, 0, 78, 116
1, 51808, Note_off_c, 0, 78, 116
1, 51899, Note_on_c, 0, 75, 123
1, 51997, Note_off_c, 0, 75, 123
1, 52070, Note_on_c, 0, 72, 121
1, 52171, Note_off_c, 0, 72, 121
1, 52191, Note_on_c, 0, 69, 100
1, 52235, Note_off_c, 0, 69, 100
1, 52254, Note_on_c, 0, 73, 117
1, 52350, Note_off_c, 0, 73, 117
1, 52381, Note_on_c, 0, 70, 117
1, 52431, Note_off_c, 0, 70, 117
1, 52453, Note_on_c, 0, 66, 118
1, 52550, Note_off_c, 0, 66, 118
1, 52556, Note_on_c, 0, 69, 107
1, 52825, Note_off_c, 0, 69, 107
1, 52837, Note_on_c, 0, 64, 105
1, 52941, Note_off_c, 0, 64, 105
1, 52941, End_track
0, 0, End_of_file
