0, 0, Header, 1, 1, 192
1, 0, Start_track
1, 0, Title_t, "Melody"
1, 0, Tempo, 447761
1, 0, Key_signature, 0, "major"
1, 0, Time_signature, 4, 2, 24, 8
1, 2591, Note_on_c, 0, 59, 91
1, 2714, Note_off_c, 0, 59, 91
1, 2730, Note_on_c, 0, 60, 94
1, 2763, Note_off_c, 0, 60, 94
1, 2773, Note_on_c, 0, 62, 90
1, 2790, Note_off_c, 0, 62, 90
1, 2810, Note_on_c, 0, 64, 106
1, 2902, Note_off_c, 0, 64, 106
1, 2914, Note_on_c, 0, 67, 116
1, 2992, Note_off_c, 0, 67, 116
1, 3004, Note_on_c, 0, 68, 118
1, 3092, Note_off_c, 0, 68, 118
1, 3107, Note_on_c, 0, 69, 113
1, 3178, Note_off_c, 0, 69, 113
1, 3192, Note_on_c, 0, 74, 118
1, 3346, Note_off_c, 0, 74, 118
1, 3364, Note_on_c, 0, 67, 93
1, 3724, Note_off_c, 0, 67, 93
1, 4698, Note_on_c, 0, 59, 77
1, 4793, Note_off_c, 0, 59, 77
1, 4809, Note_on_c, 0, 60, 93
1, 4848, Note_off_c, 0, 60, 93
1, 4857, Note_on_c, 0, 62, 87
1, 4879, Note_off_c, 0, 62, 87
1, 4890, Note_on_c, 0, 64, 99
1, 4975, Note_off_c, 0, 64, 99
1, 4992, Note_on_c, 0, 67, 104
1, 5055, Note_off_c, 0, 67, 104
1, 5064, Note_on_c, 0, 70, 105
1, 5154, Note_off_c, 0, 70, 105
1, 5160, Note_on_c, 0, 72, 117
1, 5234, Note_off_c, 0, 72, 117
1, 5247, Note_on_c, 0, 73, 116
1, 5345, Note_off_c, 0, 73, 116
1, 5358, Note_on_c, 0, 75, 115
1, 5438, Note_off_c, 0, 75, 115
1, 5456, Note_on_c, 0, 76, 103
1, 5602, Note_off_c, 0, 76, 103
1, 5620, Note_on_c, 0, 68, 91
1, 5872, Note_off_c, 0, 68, 91
1, 6571, Note_on_c, 0, 65, 94
1, 6660, Note_off_c, 0, 65, 94
1, 6677, Note_on_c, 0, 68, 108
1, 6742, Note_off_c, 0, 68, 108
1, 6755, Note_on_c, 0, 69, 108
1, 6832, Note_off_c, 0, 69, 108
1, 6867, Note_on_c, 0, 72, 108
1, 6947, Note_off_c, 0, 72, 108
1, 6996, Note_on_c, 0, 74, 107
1, 7129, Note_off_c, 0, 74, 107
1, 7155, Note_on_c, 0, 63, 96
1, 7315, Note_off_c, 0, 63, 96
1, 7328, Note_on_c, 0, 62, 86
1, 7464, Note_off_c, 0, 62, 86
1, 7519, Note_on_c, 0, 70, 95
1, 7669, Note_off_c, 0, 70, 95
1, 8564, Note_on_c, 0, 60, 91
1, 8594, Note_off_c, 0, 60, 91
1, 8616, Note_on_c, 0, 64, 94
1, 8659, Note_off_c, 0, 64, 94
1, 8670, Note_on_c, 0, 67, 106
1, 8712, Note_off_c, 0, 67, 106
1, 8723, Note_on_c, 0, 71, 116
1, 8753, Note_off_c, 0, 71, 116
1, 8788, Note_on_c, 0, 74, 108
1, 8842, Note_off_c, 0, 74, 108
1, 8848, Note_on_c, 0, 78, 124
1, 8897, Note_off_c, 0, 78, 124
1, 8909, Note_on_c, 0, 74, 121
1, 8958, Note_off_c, 0, 74, 121
1, 8963, Note_on_c, 0, 78, 122
1, 9021, Note_off_c, 0, 78, 122
1, 9029, Note_on_c, 0, 74, 117
1, 9086, Note_off_c, 0, 74, 117
1, 9091, Note_on_c, 0, 71, 111
1, 9153, Note_off_c, 0, 71, 111
1, 9170, Note_on_c, 0, 73, 98
1, 9437, Note_off_c, 0, 73, 98
1, 9822, Note_on_c, 0, 70, 104
1, 9867, Note_off_c, 0, 70, 104
1, 9873, Note_on_c, 0, 67, 99
1, 9925, Note_off_c, 0, 67, 99
1, 9936, Note_on_c, 0, 69, 93
1, 10088, Note_off_c, 0, 69, 93
1, 11007, Note_on_c, 0, 67, 103
1, 11082, Note_off_c, 0, 67, 103
1, 11098, Note_on_c, 0, 69, 108
1, 11180, Note_off_c, 0, 69, 108
1, 11193, Note_on_c, 0, 73, 118
1, 11270, Note_off_c, 0, 73, 118
1, 11280, Note_on_c, 0, 69, 108
1, 11370, Note_off_c, 0, 69, 108
1, 11377, Note_on_c, 0, 67, 103
1, 11451, Note_off_c, 0, 67, 103
1, 11463, Note_on_c, 0, 64, 95
1, 11625, Note_off_c, 0, 64, 95
1, 11646, Note_on_c, 0, 64, 98
1, 11756, Note_off_c, 0, 64, 98
1, 11767, Note_on_c, 0, 62, 97
1, 11830, Note_off_c, 0, 62, 97
1, 11865, Note_on_c, 0, 66, 100
1, 11949, Note_off_c, 0, 66, 100
1, 11961, Note_on_c, 0, 70, 114
1, 12030, Note_off_c, 0, 70, 114
1, 12038, Note_on_c, 0, 73, 120
1, 12127, Note_off_c, 0, 73, 120
1, 12141, Note_on_c, 0, 78, 125
1, 12225, Note_off_c, 0, 78, 125
1, 12246, Note_on_c, 0, 77, 124
1, 12392, Note_off_c, 0, 77, 124
1, 12420, Note_on_c, 0, 72, 107
1, 12496, Note_off_c, 0, 72, 107
1, 12500, Note_on_c, 0, 73, 104
1, 12537, Note_off_c, 0, 73, 104
1, 12541, Note_on_c, 0, 74, 113
1, 12587, Note_off_c, 0, 74, 113
1, 12627, Note_on_c, 0, 72, 104
1, 12702, Note_off_c, 0, 72, 104
1, 12724, Note_on_c, 0, 69, 105
1, 12775, Note_off_c, 0, 69, 105
1, 12798, Note_on_c, 0, 65, 99
1, 12862, Note_off_c, 0, 65, 99
1, 12867, Note_on_c, 0, 64, 97
1, 12916, Note_off_c, 0, 64, 97
1, 12921, Note_on_c, 0, 63, 97
1, 12983, Note_off_c, 0, 63, 97
1, 12989, Note_on_c, 0, 62, 85
1, 13132, Note_off_c, 0, 62, 85
1, 13447, Note_on_c, 0, 70, 110
1, 13547, Note_off_c, 0, 70, 110
1, 13588, Note_on_c, 0, 61, 97
1, 13652, Note_off_c, 0, 61, 97
1, 13673, Note_on_c, 0, 70, 99
1, 13736, Note_off_c, 0, 70, 99
1, 13757, Note_on_c, 0, 58, 82
1, 13791, Note_off_c, 0, 58, 82
1, 13810, Note_on_c, 0, 60, 84
1, 14053, Note_off_c, 0, 60, 84
1, 15129, Note_on_c, 0, 77, 124
1, 15213, Note_off_c, 0, 77, 124
1, 15232, Note_on_c, 0, 72, 115
1, 15318, Note_off_c, 0, 72, 115
1, 15333, Note_on_c, 0, 77, 122
1, 15397, Note_off_c, 0, 77, 122
1, 15419, Note_on_c, 0, 68, 111
1, 15501, Note_off_c, 0, 68, 111
1, 15533, Note_on_c, 0, 65, 101
1, 15576, Note_off_c, 0, 65, 101
1, 15598, Note_on_c, 0, 60, 90
1, 15672, Note_off_c, 0, 60, 90
1, 15694, Note_on_c, 0, 70, 103
1, 15759, Note_off_c, 0, 70, 103
1, 15803, Note_on_c, 0, 65, 79
1, 15842, Note_off_c, 0, 65, 79
1, 15849, Note_on_c, 0, 58, 86
1, 15891, Note_off_c, 0, 58, 86
1, 15894, Note_on_c, 0, 56, 87
1, 15929, Note_off_c, 0, 56, 87
1, 15941, Note_on_c, 0, 55, 88
1, 15978, Note_off_c, 0, 55, 88
1, 16003, Note_on_c, 0, 62, 93
1, 16114, Note_off_c, 0, 62, 93
1, 16122, Note_on_c, 0, 64, 95
1, 16244, Note_off_c, 0, 64, 95
1, 16276, Note_on_c, 0, 67, 87
1, 16466, Note_off_c, 0, 67, 87
1, 17365, Note_on_c, 0, 60, 89
1, 17398, Note_off_c, 0, 60, 89
1, 17405, Note_on_c, 0, 62, 97
1, 17451, Note_off_c, 0, 62, 97
1, 17469, Note_on_c, 0, 64, 104
1, 17577, Note_off_c, 0, 64, 104
1, 17591, Note_on_c, 0, 65, 115
1, 17655, Note_off_c, 0, 65, 115
1, 17666, Note_on_c, 0, 67, 116
1, 17745, Note_off_c, 0, 67, 116
1, 17756, Note_on_c, 0, 69, 119
1, 17828, Note_off_c, 0, 69, 119
1, 17836, Note_on_c, 0, 70, 120
1, 17919, Note_off_c, 0, 70, 120
1, 17930, Note_on_c, 0, 72, 120
1, 18009, Note_off_c, 0, 72, 120
1, 18022, Note_on_c, 0, 73, 124
1, 18103, Note_off_c, 0, 73, 124
1, 18116, Note_on_c, 0, 75, 124
1, 18170, Note_off_c, 0, 75, 124
1, 18173, Note_on_c, 0, 77, 122
1, 18223, Note_off_c, 0, 77, 122
1, 18228, Note_on_c, 0, 78, 124
1, 18309, Note_off_c, 0, 78, 124
1, 18505, Note_on_c, 0, 77, 122
1, 18554, Note_off_c, 0, 77, 122
1, 18559, Note_on_c, 0, 75, 119
1, 18607, Note_off_c, 0, 75, 119
1, 18615, Note_on_c, 0, 73, 111
1, 18696, Note_off_c, 0, 73, 111
1, 18884, Note_on_c, 0, 71, 111
1, 18918, Note_off_c, 0, 71, 111
1, 18922, Note_on_c, 0, 70, 106
1, 18981, Note_off_c, 0, 70, 106
1, 18995, Note_on_c, 0, 68, 102
1, 19098, Note_off_c, 0, 68, 102
1, 19131, Note_on_c, 0, 70, 101
1, 19181, Note_off_c, 0, 70, 101
1, 19191, Note_on_c, 0, 67, 92
1, 19330, Note_off_c, 0, 67, 92
1, 19455, Note_on_c, 0, 70, 114
1, 19533, Note_off_c, 0, 70, 114
1, 19590, Note_on_c, 0, 67, 106
1, 19631, Note_off_c, 0, 67, 106
1, 19635, Note_on_c, 0, 70, 100
1, 19662, Note_off_c, 0, 70, 100
1, 19670, Note_on_c, 0, 66, 110
1, 19769, Note_off_c, 0, 66, 110
1, 19835, Note_on_c, 0, 70, 107
1, 19873, Note_off_c, 0, 70, 107
1, 19881, Note_on_c, 0, 68, 106
1, 19982, Note_off_c, 0, 68, 106
1, 20010, Note_on_c, 0, 70, 104
1, 20044, Note_off_c, 0, 70, 104
1, 20051, Note_on_c, 0, 66, 102
1, 20146, Note_off_c, 0, 66, 102
1, 20169, Note_on_c, 0, 70, 104
1, 20256, Note_off_c, 0, 70, 104
1, 20300, Note_on_c, 0, 68, 103
1, 20359, Note_off_c, 0, 68, 103
1, 20365, Note_on_c, 0, 70, 99
1, 20406, Note_off_c, 0, 70, 99
1, 20478, Note_on_c, 0, 67, 99
1, 20568, Note_off_c, 0, 67, 99
1, 20591, Note_on_c, 0, 70, 108
1, 20663, Note_off_c, 0, 70, 108
1, 20683, Note_on_c, 0, 67, 102
1, 20742, Note_off_c, 0, 67, 102
1, 20768, Note_on_c, 0, 70, 115
1, 20810, Note_off_c, 0, 70, 115
1, 20824, Note_on_c, 0, 69, 104
1, 20908, Note_off_c, 0, 69, 104
1, 20920, Note_on_c, 0, 70, 112
1, 20955, Note_off_c, 0, 70, 112
1, 20968, Note_on_c, 0, 68, 108
1, 21037, Note_off_c, 0, 68, 108
1, 21056, Note_on_c, 0, 70, 111
1, 21095, Note_off_c, 0, 70, 111
1, 21108, Note_on_c, 0, 67, 98
1, 21167, Note_off_c, 0, 67, 98
1, 21184, Note_on_c, 0, 70, 111
1, 21225, Note_off_c, 0, 70, 111
1, 21236, Note_on_c, 0, 67, 107
1, 21311, Note_off_c, 0, 67, 107
1, 21345, Note_on_c, 0, 70, 113
1, 21381, Note_off_c, 0, 70, 113
1, 21392, Note_on_c, 0, 69, 108
1, 21496, Note_off_c, 0, 69, 108
1, 21512, Note_on_c, 0, 70, 112
1, 21546, Note_off_c, 0, 70, 112
1, 21554, Note_on_c, 0, 68, 110
1, 21628, Note_off_c, 0, 68, 110
1, 21636, Note_on_c, 0, 70, 111
1, 21661, Note_off_c, 0, 70, 111
1, 21670, Note_on_c, 0, 67, 104
1, 21726, Note_off_c, 0, 67, 104
1, 21744, Note_on_c, 0, 70, 111
1, 21773, Note_off_c, 0, 70, 111
1, 21779, Note_on_c, 0, 69, 108
1, 21846, Note_off_c, 0, 69, 108
1, 21856, Note_on_c, 0, 70, 109
1, 21877, Note_off_c, 0, 70, 109
1, 21883, Note_on_c, 0, 68, 114
1, 21960, Note_off_c, 0, 68, 114
1, 21975, Note_on_c, 0, 69, 109
1, 21993, Note_off_c, 0, 69, 109
1, 22003, Note_on_c, 0, 67, 105
1, 22079, Note_off_c, 0, 67, 105
1, 22093, Note_on_c, 0, 70, 112
1, 22183, Note_off_c, 0, 70, 112
1, 22197, Note_on_c, 0, 68, 115
1, 22285, Note_off_c, 0, 68, 115
1, 22295, Note_on_c, 0, 69, 106
1, 22316, Note_off_c, 0, 69, 106
1, 22320, Note_on_c, 0, 68, 112
1, 22390, Note_off_c, 0, 68, 112
1, 22396, Note_on_c, 0, 69, 98
1, 22418, Note_off_c, 0, 69, 98
1, 22427, Note_on_c, 0, 67, 108
1, 22522, Note_off_c, 0, 67, 108
1, 22535, Note_on_c, 0, 70, 106
1, 22615, Note_off_c, 0, 70, 106
1, 22632, Note_on_c, 0, 64, 115
1, 22674, Note_off_c, 0, 64, 115
1, 22711, Note_on_c, 0, 69, 105
1, 22762, Note_off_c, 0, 69, 105
1, 22782, Note_on_c, 0, 68, 110
1, 22838, Note_off_c, 0, 68, 110
1, 22848, Note_on_c, 0, 70, 97
1, 22872, Note_off_c, 0, 70, 97
1, 22885, Note_on_c, 0, 67, 96
1, 23080, Note_off_c, 0, 67, 96
1, 23605, Note_on_c, 0, 64, 99
1, 23667, Note_off_c, 0, 64, 99
1, 23680, Note_on_c, 0, 67, 105
1, 23744, Note_off_c, 0, 67, 105
1, 23778, Note_on_c, 0, 70, 118
1, 23844, Note_off_c, 0, 70, 118
1, 23868, Note_on_c, 0, 75, 117
1, 23961, Note_off_c, 0, 75, 117
1, 23971, Note_on_c, 0, 80, 123
1, 24057, Note_off_c, 0, 80, 123
1, 24067, Note_on_c, 0, 78, 112
1, 24169, Note_off_c, 0, 78, 112
1, 24183, Note_on_c, 0, 76, 107
1, 24260, Note_off_c, 0, 76, 107
1, 24338, Note_on_c, 0, 75, 108
1, 24425, Note_off_c, 0, 75, 108
1, 24492, Note_on_c, 0, 73, 107
1, 24577, Note_off_c, 0, 73, 107
1, 24622, Note_on_c, 0, 72, 99
1, 24700, Note_off_c, 0, 72, 99
1, 24753, Note_on_c, 0, 70, 104
1, 24827, Note_off_c, 0, 70, 104
1, 24890, Note_on_c, 0, 69, 99
1, 24985, Note_off_c, 0, 69, 99
1, 25009, Note_on_c, 0, 68, 102
1, 25460, Note_off_c, 0, 68, 102
1, 25901, Note_on_c, 0, 62, 89
1, 25938, Note_off_c, 0, 62, 89
1, 25967, Note_on_c, 0, 65, 103
1, 26010, Note_off_c, 0, 65, 103
1, 26024, Note_on_c, 0, 68, 109
1, 26061, Note_off_c, 0, 68, 109
1, 26070, Note_on_c, 0, 70, 118
1, 26137, Note_off_c, 0, 70, 118
1, 26144, Note_on_c, 0, 68, 110
1, 26563, Note_off_c, 0, 68, 110
1, 26580, Note_on_c, 0, 64, 102
1, 26678, Note_off_c, 0, 64, 102
1, 26711, Note_on_c, 0, 64, 99
1, 26757, Note_off_c, 0, 64, 99
1, 27069, Note_on_c, 0, 60, 94
1, 27097, Note_off_c, 0, 60, 94
1, 27121, Note_on_c, 0, 64, 107
1, 27215, Note_off_c, 0, 64, 107
1, 27229, Note_on_c, 0, 67, 104
1, 27278, Note_off_c, 0, 67, 104
1, 27307, Note_on_c, 0, 70, 109
1, 27412, Note_off_c, 0, 70, 109
1, 27425, Note_on_c, 0, 75, 114
1, 27857, Note_off_c, 0, 75, 114
1, 27871, Note_on_c, 0, 73, 103
1, 27984, Note_off_c, 0, 73, 103
1, 27992, Note_on_c, 0, 80, 117
1, 28123, Note_off_c, 0, 80, 117
1, 28958, Note_on_c, 0, 70, 117
1, 29028, Note_off_c, 0, 70, 117
1, 29042, Note_on_c, 0, 75, 113
1, 29134, Note_off_c, 0, 75, 113
1, 29141, Note_on_c, 0, 80, 111
1, 30051, Note_off_c, 0, 80, 111
1, 30128, Note_on_c, 0, 69, 103
1, 30471, Note_off_c, 0, 69, 103
1, 30489, Note_on_c, 0, 74, 112
1, 30550, Note_off_c, 0, 74, 112
1, 30562, Note_on_c, 0, 79, 107
1, 31211, Note_off_c, 0, 79, 107
1, 31435, Note_on_c, 0, 68, 111
1, 31507, Note_off_c, 0, 68, 111
1, 31509, Note_on_c, 0, 73, 107
1, 31631, Note_off_c, 0, 73, 107
1, 31639, Note_on_c, 0, 78, 110
1, 31722, Note_off_c, 0, 78, 110
1, 32184, Note_on_c, 0, 77, 107
1, 32267, Note_off_c, 0, 77, 107
1, 32305, Note_on_c, 0, 76, 123
1, 32387, Note_off_c, 0, 76, 123
1, 32423, Note_on_c, 0, 71, 108
1, 32465, Note_off_c, 0, 71, 108
1, 32480, Note_on_c, 0, 74, 106
1, 32567, Note_off_c, 0, 74, 106
1, 32579, Note_on_c, 0, 73, 103
1, 32645, Note_off_c, 0, 73, 103
1, 32662, Note_on_c, 0, 72, 103
1, 32736, Note_off_c, 0, 72, 103
1, 32764, Note_on_c, 0, 67, 110
1, 32813, Note_off_c, 0, 67, 110
1, 32827, Note_on_c, 0, 64, 104
1, 32925, Note_off_c, 0, 64, 104
1, 32943, Note_on_c, 0, 62, 102
1, 33005, Note_off_c, 0, 62, 102
1, 33027, Note_on_c, 0, 59, 88
1, 33167, Note_off_c, 0, 59, 88
1, 33542, Note_on_c, 0, 82, 116
1, 33958, Note_off_c, 0, 82, 116
1, 33966, Note_on_c, 0, 79, 109
1, 34052, Note_off_c, 0, 79, 109
1, 34074, Note_on_c, 0, 77, 111
1, 34161, Note_off_c, 0, 77, 111
1, 34165, Note_on_c, 0, 76, 118
1, 34300, Note_off_c, 0, 76, 118
1, 34306, Note_on_c, 0, 76, 112
1, 34418, Note_off_c, 0, 76, 112
1, 35511, Note_on_c, 0, 79, 116
1, 35623, Note_off_c, 0, 79, 116
1, 35637, Note_on_c, 0, 81, 121
1, 35697, Note_off_c, 0, 81, 121
1, 35708, Note_on_c, 0, 82, 121
1, 35811, Note_off_c, 0, 82, 121
1, 35839, Note_on_c, 0, 84, 112
1, 35887, Note_off_c, 0, 84, 112
1, 35915, Note_on_c, 0, 86, 125
1, 36039, Note_off_c, 0, 86, 125
1, 36060, Note_on_c, 0, 84, 116
1, 36173, Note_off_c, 0, 84, 116
1, 36242, Note_on_c, 0, 82, 119
1, 36375, Note_off_c, 0, 82, 119
1, 36387, Note_on_c, 0, 81, 109
1, 36685, Note_off_c, 0, 81, 109
1, 36708, Note_on_c, 0, 77, 116
1, 36841, Note_off_c, 0, 77, 116
1, 36855, Note_on_c, 0, 76, 111
1, 36925, Note_off_c, 0, 76, 111
1, 36934, Note_on_c, 0, 74, 113
1, 37088, Note_off_c, 0, 74, 113
1, 37109, Note_on_c, 0, 72, 107
1, 37217, Note_off_c, 0, 72, 107
1, 37240, Note_on_c, 0, 70, 100
1, 37467, Note_off_c, 0, 70, 100
1, 37494, Note_on_c, 0, 68, 95
1, 37660, Note_off_c, 0, 68, 95
1, 37673, Note_on_c, 0, 65, 85
1, 37892, Note_off_c, 0, 65, 85
1, 38179, Note_on_c, 0, 60, 94
1, 38206, Note_off_c, 0, 60, 94
1, 38242, Note_on_c, 0, 65, 106
1, 38277, Note_off_c, 0, 65, 106
1, 38306, Note_on_c, 0, 69, 93
1, 38336, Note_off_c, 0, 69, 93
1, 38341, Note_on_c, 0, 70, 116
1, 38413, Note_off_c, 0, 70, 116
1, 38416, Note_on_c, 0, 69, 114
1, 38467, Note_off_c, 0, 69, 114
1, 38479, Note_on_c, 0, 70, 117
1, 38533, Note_off_c, 0, 70, 117
1, 38538, Note_on_c, 0, 69, 114
1, 38582, Note_off_c, 0, 69, 114
1, 38588, Note_on_c, 0, 70, 118
1, 38655, Note_off_c, 0, 70, 118
1, 38659, Note_on_c, 0, 69, 99
1, 38714, Note_off_c, 0, 69, 99
1, 38718, Note_on_c, 0, 70, 117
1, 38780, Note_off_c, 0, 70, 117
1, 38785, Note_on_c, 0, 69, 100
1, 38846, Note_off_c, 0, 69, 100
1, 38850, Note_on_c, 0, 70, 114
1, 38915, Note_off_c, 0, 70, 114
1, 38921, Note_on_c, 0, 69, 94
1, 38974, Note_off_c, 0, 69, 94
1, 38983, Note_on_c, 0, 70, 117
1, 39043, Note_off_c, 0, 70, 117
1, 39049, Note_on_c, 0, 69, 91
1, 39098, Note_off_c, 0, 69, 91
1, 39108, Note_on_c, 0, 70, 116
1, 39193, Note_off_c, 0, 70, 116
1, 39196, Note_on_c, 0, 69, 95
1, 39238, Note_off_c, 0, 69, 95
1, 39242, Note_on_c, 0, 70, 113
1, 39317, Note_off_c, 0, 70, 113
1, 39322, Note_on_c, 0, 69, 97
1, 39362, Note_off_c, 0, 69, 97
1, 39370, Note_on_c, 0, 70, 113
1, 39437, Note_off_c, 0, 70, 113
1, 39441, Note_on_c, 0, 69, 97
1, 39484, Note_off_c, 0, 69, 97
1, 39489, Note_on_c, 0, 70, 113
1, 39675, Note_off_c, 0, 70, 113
1, 40024, Note_on_c, 0, 70, 119
1, 40068, Note_off_c, 0, 70, 119
1, 40070, Note_on_c, 0, 68, 106
1, 40129, Note_off_c, 0, 68, 106
1, 40132, Note_on_c, 0, 70, 116
1, 40204, Note_off_c, 0, 70, 116
1, 40211, Note_on_c, 0, 68, 105
1, 40250, Note_off_c, 0, 68, 105
1, 40257, Note_on_c, 0, 70, 117
1, 40343, Note_off_c, 0, 70, 117
1, 40348, Note_on_c, 0, 68, 101
1, 40375, Note_off_c, 0, 68, 101
1, 40384, Note_on_c, 0, 70, 116
1, 40461, Note_off_c, 0, 70, 116
1, 40468, Note_on_c, 0, 69, 95
1, 40509, Note_off_c, 0, 69, 95
1, 40523, Note_on_c, 0, 70, 114
1, 40592, Note_off_c, 0, 70, 114
1, 40595, Note_on_c, 0, 69, 99
1, 40636, Note_off_c, 0, 69, 99
1, 40647, Note_on_c, 0, 70, 115
1, 40725, Note_off_c, 0, 70, 115
1, 40730, Note_on_c, 0, 69, 95
1, 40775, Note_off_c, 0, 69, 95
1, 40778, Note_on_c, 0, 70, 117
1, 40847, Note_off_c, 0, 70, 117
1, 40858, Note_on_c, 0, 69, 99
1, 40898, Note_off_c, 0, 69, 99
1, 40904, Note_on_c, 0, 70, 118
1, 40974, Note_off_c, 0, 70, 118
1, 40981, Note_on_c, 0, 69, 106
1, 41020, Note_off_c, 0, 69, 106
1, 41029, Note_on_c, 0, 70, 114
1, 41231, Note_off_c, 0, 70, 114
1, 41897, Note_on_c, 0, 74, 105
1, 41979, Note_off_c, 0, 74, 105
1, 42013, Note_on_c, 0, 78, 125
1, 42109, Note_off_c, 0, 78, 125
1, 42133, Note_on_c, 0, 74, 113
1, 42203, Note_off_c, 0, 74, 113
1, 42209, Note_on_c, 0, 71, 106
1, 42301, Note_off_c, 0, 71, 106
1, 42321, Note_on_c, 0, 67, 108
1, 42381, Note_off_c, 0, 67, 108
1, 42399, Note_on_c, 0, 64, 109
1, 42437, Note_off_c, 0, 64, 109
1, 42444, Note_on_c, 0, 65, 109
1, 42482, Note_off_c, 0, 65, 109
1, 42487, Note_on_c, 0, 64, 101
1, 42508, Note_off_c, 0, 64, 101
1, 42516, Note_on_c, 0, 62, 98
1, 42569, Note_off_c, 0, 62, 98
1, 42600, Note_on_c, 0, 68, 118
1, 42693, Note_off_c, 0, 68, 118
1, 42709, Note_on_c, 0, 63, 108
1, 42775, Note_off_c, 0, 63, 108
1, 42783, Note_on_c, 0, 59, 96
1, 42901, Note_off_c, 0, 59, 96
1, 42921, Note_on_c, 0, 56, 91
1, 42946, Note_off_c, 0, 56, 91
1, 42955, Note_on_c, 0, 58, 97
1, 43048, Note_off_c, 0, 58, 97
1, 43116, Note_on_c, 0, 80, 125
1, 43195, Note_off_c, 0, 80, 125
1, 43265, Note_on_c, 0, 78, 112
1, 43356, Note_off_c, 0, 78, 112
1, 43393, Note_on_c, 0, 77, 108
1, 43518, Note_off_c, 0, 77, 108
1, 43537, Note_on_c, 0, 75, 110
1, 43601, Note_off_c, 0, 75, 110
1, 43624, Note_on_c, 0, 70, 94
1, 43686, Note_off_c, 0, 70, 94
1, 43698, Note_on_c, 0, 67, 95
1, 43759, Note_off_c, 0, 67, 95
1, 43777, Note_on_c, 0, 63, 91
1, 43910, Note_off_c, 0, 63, 91
1, 44254, Note_on_c, 0, 77, 124
1, 44357, Note_off_c, 0, 77, 124
1, 44431, Note_on_c, 0, 77, 113
1, 44454, Note_off_c, 0, 77, 113
1, 44458, Note_on_c, 0, 76, 113
1, 44485, Note_off_c, 0, 76, 113
1, 44493, Note_on_c, 0, 74, 111
1, 44612, Note_off_c, 0, 74, 111
1, 44632, Note_on_c, 0, 69, 107
1, 44662, Note_off_c, 0, 69, 107
1, 44683, Note_on_c, 0, 66, 102
1, 44762, Note_off_c, 0, 66, 102
1, 44780, Note_on_c, 0, 64, 90
1, 44836, Note_off_c, 0, 64, 90
1, 44900, Note_on_c, 0, 69, 115
1, 44929, Note_off_c, 0, 69, 115
1, 44933, Note_on_c, 0, 70, 116
1, 44959, Note_off_c, 0, 70, 116
1, 44965, Note_on_c, 0, 69, 108
1, 44999, Note_off_c, 0, 69, 108
1, 45007, Note_on_c, 0, 67, 106
1, 45048, Note_off_c, 0, 67, 106
1, 45055, Note_on_c, 0, 65, 101
1, 45200, Note_off_c, 0, 65, 101
1, 45219, Note_on_c, 0, 64, 100
1, 45319, Note_off_c, 0, 64, 100
1, 45578, Note_on_c, 0, 74, 123
1, 45659, Note_off_c, 0, 74, 123
1, 45666, Note_on_c, 0, 77, 118
1, 45785, Note_off_c, 0, 77, 118
1, 45795, Note_on_c, 0, 77, 120
1, 45849, Note_off_c, 0, 77, 120
1, 45866, Note_on_c, 0, 74, 110
1, 45943, Note_off_c, 0, 74, 110
1, 46020, Note_on_c, 0, 77, 122
1, 46136, Note_off_c, 0, 77, 122
1, 46587, Note_on_c, 0, 69, 116
1, 46612, Note_off_c, 0, 69, 116
1, 46615, Note_on_c, 0, 68, 117
1, 46634, Note_off_c, 0, 68, 117
1, 46639, Note_on_c, 0, 67, 95
1, 46755, Note_off_c, 0, 67, 95
1, 46768, Note_on_c, 0, 69, 116
1, 46824, Note_off_c, 0, 69, 116
1, 46835, Note_on_c, 0, 70, 111
1, 46942, Note_off_c, 0, 70, 111
1, 46957, Note_on_c, 0, 72, 119
1, 47008, Note_off_c, 0, 72, 119
1, 47014, Note_on_c, 0, 74, 119
1, 47145, Note_off_c, 0, 74, 119
1, 47156, Note_on_c, 0, 76, 110
1, 47213, Note_off_c, 0, 76, 110
1, 47227, Note_on_c, 0, 81, 123
1, 47336, Note_off_c, 0, 81, 123
1, 47347, Note_on_c, 0, 81, 125
1, 47419, Note_off_c, 0, 81, 125
1, 47430, Note_on_c, 0, 77, 122
1, 47545, Note_off_c, 0, 77, 122
1, 47549, Note_on_c, 0, 80, 116
1, 47819, Note_off_c, 0, 80, 116
1, 48152, Note_on_c, 0, 79, 96
1, 48172, Note_off_c, 0, 79, 96
1, 48177, Note_on_c, 0, 77, 121
1, 48200, Note_off_c, 0, 77, 121
1, 48221, Note_on_c, 0, 72, 95
1, 48347, Note_off_c, 0, 72, 95
1, 48375, Note_on_c, 0, 74, 121
1, 48430, Note_off_c, 0, 74, 121
1, 48465, Note_on_c, 0, 77, 127
1, 48550, Note_off_c, 0, 77, 127
1, 48566, Note_on_c, 0, 81, 122
1, 48716, Note_off_c, 0, 81, 122
1, 48751, Note_on_c, 0, 81, 123
1, 48816, Note_off_c, 0, 81, 123
1, 48822, Note_on_c, 0, 82, 119
1, 48901, Note_off_c, 0, 82, 119
1, 48910, Note_on_c, 0, 81, 120
1, 49017, Note_off_c, 0, 81, 120
1, 49044, Note_on_c, 0, 77, 119
1, 49149, Note_off_c, 0, 77, 119
1, 49182, Note_on_c, 0, 75, 110
1, 49297, Note_off_c, 0, 75, 110
1, 49320, Note_on_c, 0, 77, 122
1, 49390, Note_off_c, 0, 77, 122
1, 49465, Note_on_c, 0, 74, 119
1, 49528, Note_off_c, 0, 74, 119
1, 49531, Note_on_c, 0, 75, 107
1, 49588, Note_off_c, 0, 75, 107
1, 49626, Note_on_c, 0, 74, 113
1, 49739, Note_off_c, 0, 74, 113
1, 49753, Note_on_c, 0, 70, 87
1, 49946, Note_off_c, 0, 70, 87
1, 50259, Note_on_c, 0, 70, 117
1, 50359, Note_off_c, 0, 70, 117
1, 50370, Note_on_c, 0, 69, 111
1, 50442, Note_off_c, 0, 69, 111
1, 50486, Note_on_c, 0, 74, 107
1, 50562, Note_off_c, 0, 74, 107
1, 50761, Note_on_c, 0, 67, 94
1, 50876, Note_off_c, 0, 67, 94
1, 50900, Note_on_c, 0, 71, 105
1, 50947, Note_off_c, 0, 71, 105
1, 51137, Note_on_c, 0, 72, 95
1, 51249, Note_off_c, 0, 72, 95
1, 51300, Note_on_c, 0, 62, 10
1, 51352, Note_off_c, 0, 62, 10
1, 51498, Note_on_c, 0, 58, 97
1, 51558, Note_off_c, 0, 58, 97
1, 51576, Note_on_c, 0, 61, 117
1, 51663, Note_off_c, 0, 61, 117
1, 51691, Note_on_c, 0, 70, 117
1, 51746, Note_off_c, 0, 70, 117
1, 51746, End_track
0, 0, End_of_file
