0, 0, Header, 1, 1, 192
1, 0, Start_track
1, 0, Title_t, "Melody"
1, 0, Tempo, 394736
1, 0, Key_signature, 1, "major"
1, 0, Time_signature, 4, 2, 24, 8
1, 978, Note_on_c, 0, 79, 127
1, 1007, Note_off_c, 0, 79, 127
1, 1012, Note_on_c, 0, 80, 124
1, 1040, Note_off_c, 0, 80, 124
1, 1044, Note_on_c, 0, 79, 122
1, 1153, Note_off_c, 0, 79, 122
1, 1161, Note_on_c, 0, 77, 118
1, 1220, Note_off_c, 0, 77, 118
1, 1229, Note_on_c, 0, 76, 110
1, 1284, Note_off_c, 0, 76, 110
1, 1290, Note_on_c, 0, 77, 115
1, 1313, Note_off_c, 0, 77, 115
1, 1322, Note_on_c, 0, 76, 108
1, 1348, Note_off_c, 0, 76, 108
1, 1349, Note_on_c, 0, 74, 118
1, 1410, Note_off_c, 0, 74, 118
1, 1414, Note_on_c, 0, 75, 126
1, 1503, Note_off_c, 0, 75, 126
1, 1528, Note_on_c, 0, 66, 105
1, 1574, Note_off_c, 0, 66, 105
1, 1586, Note_on_c, 0, 63, 106
1, 1613, Note_off_c, 0, 63, 106
1, 1619, Note_on_c, 0, 68, 102
1, 1647, Note_off_c, 0, 68, 102
1, 1653, Note_on_c, 0, 72, 96
1, 1688, Note_off_c, 0, 72, 96
1, 1702, Note_on_c, 0, 77, 118
1, 1794, Note_off_c, 0, 77, 118
1, 1804, Note_on_c, 0, 75, 123
1, 1910, Note_off_c, 0, 75, 123
1, 1920, Note_on_c, 0, 73, 117
1, 1987, Note_off_c, 0, 73, 117
1, 1990, Note_on_c, 0, 74, 116
1, 2093, Note_off_c, 0, 74, 116
1, 2097, Note_on_c, 0, 73, 119
1, 2179, Note_off_c, 0, 73, 119
1, 2187, Note_on_c, 0, 72, 118
1, 2248, Note_off_c, 0, 72, 118
1, 2255, Note_on_c, 0, 66, 112
1, 2300, Note_off_c, 0, 66, 112
1, 2302, Note_on_c, 0, 63, 115
1, 2333, Note_off_c, 0, 63, 115
1, 2338, Note_on_c, 0, 61, 108
1, 2493, Note_off_c, 0, 61, 108
1, 2542, Note_on_c, 0, 60, 103
1, 2732, Note_off_c, 0, 60, 103
1, 2753, Note_on_c, 0, 61, 104
1, 2935, Note_off_c, 0, 61, 104
1, 2948, Note_on_c, 0, 60, 84
1, 2980, Note_off_c, 0, 60, 84
1, 2992, Note_on_c, 0, 62, 107
1, 3126, Note_off_c, 0, 62, 107
1, 3138, Note_on_c, 0, 63, 106
1, 3308, Note_off_c, 0, 63, 106
1, 3720, Note_on_c, 0, 62, 82
1, 3748, Note_off_c, 0, 62, 82
1, 3757, Note_on_c, 0, 64, 104
1, 3878, Note_off_c, 0, 64, 104
1, 3885, Note_on_c, 0, 65, 112
1, 3941, Note_off_c, 0, 65, 112
1, 3946, Note_on_c, 0, 67, 109
1, 4052, Note_off_c, 0, 67, 109
1, 4063, Note_on_c, 0, 69, 115
1, 4117, Note_off_c, 0, 69, 115
1, 4126, Note_on_c, 0, 70, 112
1, 4276, Note_off_c, 0, 70, 112
1, 4296, Note_on_c, 0, 70, 96
1, 4325, Note_off_c, 0, 70, 96
1, 4339, Note_on_c, 0, 72, 107
1, 4471, Note_off_c, 0, 72, 107
1, 4479, Note_on_c, 0, 70, 102
1, 4515, Note_off_c, 0, 70, 102
1, 4523, Note_on_c, 0, 73, 102
1, 4654, Note_off_c, 0, 73, 102
1, 4672, Note_on_c, 0, 75, 107
1, 4835, Note_off_c, 0, 75, 107
1, 5224, Note_on_c, 0, 70, 104
1, 5258, Note_off_c, 0, 70, 104
1, 5275, Note_on_c, 0, 76, 118
1, 5423, Note_off_c, 0, 76, 118
1, 5469, Note_on_c, 0, 78, 115
1, 5609, Note_off_c, 0, 78, 115
1, 5616, Note_on_c, 0, 74, 111
1, 5722, Note_off_c, 0, 74, 111
1, 5809, Note_on_c, 0, 71, 105
1, 5939, Note_off_c, 0, 71, 105
1, 6001, Note_on_c, 0, 67, 106
1, 6063, Note_off_c, 0, 67, 106
1, 6081, Note_on_c, 0, 64, 104
1, 6173, Note_off_c, 0, 64, 104
1, 6201, Note_on_c, 0, 57, 97
1, 6243, Note_off_c, 0, 57, 97
1, 6265, Note_on_c, 0, 62, 97
1, 6374, Note_off_c, 0, 62, 97
1, 6390, Note_on_c, 0, 64, 93
1, 6539, Note_off_c, 0, 64, 93
1, 6553, Note_on_c, 0, 65, 104
1, 6584, Note_off_c, 0, 65, 104
1, 6599, Note_on_c, 0, 63, 101
1, 6629, Note_off_c, 0, 63, 101
1, 6638, Note_on_c, 0, 62, 85
1, 6763, Note_off_c, 0, 62, 85
1, 6777, Note_on_c, 0, 64, 103
1, 6833, Note_off_c, 0, 64, 103
1, 6844, Note_on_c, 0, 67, 101
1, 6954, Note_off_c, 0, 67, 101
1, 6963, Note_on_c, 0, 69, 108
1, 7015, Note_off_c, 0, 69, 108
1, 7031, Note_on_c, 0, 71, 111
1, 7114, Note_off_c, 0, 71, 111
1, 7152, Note_on_c, 0, 78, 122
1, 7272, Note_off_c, 0, 78, 122
1, 7353, Note_on_c, 0, 71, 112
1, 7467, Note_off_c, 0, 71, 112
1, 7549, Note_on_c, 0, 69, 111
1, 7642, Note_off_c, 0, 69, 111
1, 7647, Note_on_c, 0, 70, 110
1, 7728, Note_off_c, 0, 70, 110
1, 7810, Note_on_c, 0, 78, 120
1, 7942, Note_off_c, 0, 78, 120
1, 8016, Note_on_c, 0, 69, 113
1, 8136, Note_off_c, 0, 69, 113
1, 8154, Note_on_c, 0, 65, 103
1, 8194, Note_off_c, 0, 65, 103
1, 8215, Note_on_c, 0, 68, 113
1, 8313, Note_off_c, 0, 68, 113
1, 8411, Note_on_c, 0, 76, 119
1, 8450, Note_off_c, 0, 76, 119
1, 8459, Note_on_c, 0, 77, 122
1, 8578, Note_off_c, 0, 77, 122
1, 8583, Note_on_c, 0, 76, 118
1, 8687, Note_off_c, 0, 76, 118
1, 8707, Note_on_c, 0, 74, 109
1, 8788, Note_off_c, 0, 74, 109
1, 9121, Note_on_c, 0, 65, 107
1, 9150, Note_off_c, 0, 65, 107
1, 9211, Note_on_c, 0, 71, 119
1, 9266, Note_off_c, 0, 71, 119
1, 9274, Note_on_c, 0, 72, 116
1, 9367, Note_off_c, 0, 72, 116
1, 9385, Note_on_c, 0, 71, 113
1, 9484, Note_off_c, 0, 71, 113
1, 9512, Note_on_c, 0, 68, 103
1, 9682, Note_off_c, 0, 68, 103
1, 9845, Note_on_c, 0, 64, 112
1, 9874, Note_off_c, 0, 64, 112
1, 9879, Note_on_c, 0, 65, 109
1, 9915, Note_off_c, 0, 65, 109
1, 9967, Note_on_c, 0, 64, 111
1, 10065, Note_off_c, 0, 64, 111
1, 10075, Note_on_c, 0, 59, 92
1, 10111, Note_off_c, 0, 59, 92
1, 10112, Note_on_c, 0, 62, 93
1, 10237, Note_off_c, 0, 62, 93
1, 10242, Note_on_c, 0, 56, 92
1, 10288, Note_off_c, 0, 56, 92
1, 10302, Note_on_c, 0, 60, 92
1, 10380, Note_off_c, 0, 60, 92
1, 10388, Note_on_c, 0, 62, 96
1, 10423, Note_off_c, 0, 62, 96
1, 10428, Note_on_c, 0, 64, 102
1, 10492, Note_off_c, 0, 64, 102
1, 10495, Note_on_c, 0, 69, 114
1, 10634, Note_off_c, 0, 69, 114
1, 10646, Note_on_c, 0, 67, 98
1, 10722, Note_off_c, 0, 67, 98
1, 10732, Note_on_c, 0, 68, 100
1, 10832, Note_off_c, 0, 68, 100
1, 10844, Note_on_c, 0, 71, 109
1, 10899, Note_off_c, 0, 71, 109
1, 10908, Note_on_c, 0, 68, 96
1, 11001, Note_off_c, 0, 68, 96
1, 11026, Note_on_c, 0, 69, 96
1, 11081, Note_off_c, 0, 69, 96
1, 11101, Note_on_c, 0, 76, 125
1, 11203, Note_off_c, 0, 76, 125
1, 11229, Note_on_c, 0, 71, 106
1, 11279, Note_off_c, 0, 71, 106
1, 11293, Note_on_c, 0, 74, 117
1, 11407, Note_off_c, 0, 74, 117
1, 11415, Note_on_c, 0, 73, 104
1, 11505, Note_off_c, 0, 73, 104
1, 11515, Note_on_c, 0, 72, 104
1, 11540, Note_off_c, 0, 72, 104
1, 11544, Note_on_c, 0, 73, 94
1, 11582, Note_off_c, 0, 73, 94
1, 11582, Note_on_c, 0, 70, 95
1, 11600, Note_off_c, 0, 70, 95
1, 11601, Note_on_c, 0, 67, 104
1, 11671, Note_off_c, 0, 67, 104
1, 11684, Note_on_c, 0, 64, 104
1, 11777, Note_off_c, 0, 64, 104
1, 11804, Note_on_c, 0, 61, 100
1, 11846, Note_off_c, 0, 61, 100
1, 11846, Note_on_c, 0, 63, 89
1, 12004, Note_off_c, 0, 63, 89
1, 12723, Note_on_c, 0, 65, 117
1, 12804, Note_off_c, 0, 65, 117
1, 12813, Note_on_c, 0, 63, 101
1, 12908, Note_off_c, 0, 63, 101
1, 12916, Note_on_c, 0, 65, 116
1, 12986, Note_off_c, 0, 65, 116
1, 12994, Note_on_c, 0, 67, 108
1, 13087, Note_off_c, 0, 67, 108
1, 13092, Note_on_c, 0, 68, 107
1, 13128, Note_off_c, 0, 68, 107
1, 13132, Note_on_c, 0, 70, 116
1, 13182, Note_off_c, 0, 70, 116
1, 13186, Note_on_c, 0, 72, 113
1, 13228, Note_off_c, 0, 72, 113
1, 13230, Note_on_c, 0, 74, 114
1, 13277, Note_off_c, 0, 74, 114
1, 13280, Note_on_c, 0, 75, 115
1, 13319, Note_off_c, 0, 75, 115
1, 13322, Note_on_c, 0, 77, 121
1, 13369, Note_off_c, 0, 77, 121
1, 13372, Note_on_c, 0, 78, 124
1, 13445, Note_off_c, 0, 78, 124
1, 13484, Note_on_c, 0, 74, 110
1, 13548, Note_off_c, 0, 74, 110
1, 13563, Note_on_c, 0, 71, 102
1, 13667, Note_off_c, 0, 71, 102
1, 13675, Note_on_c, 0, 69, 105
1, 13733, Note_off_c, 0, 69, 105
1, 13743, Note_on_c, 0, 68, 94
1, 13822, Note_off_c, 0, 68, 94
1, 13839, Note_on_c, 0, 75, 101
1, 13868, Note_off_c, 0, 75, 101
1, 13880, Note_on_c, 0, 77, 124
1, 13934, Note_off_c, 0, 77, 124
1, 13936, Note_on_c, 0, 76, 119
1, 14038, Note_off_c, 0, 76, 119
1, 14048, Note_on_c, 0, 77, 115
1, 14122, Note_off_c, 0, 77, 115
1, 14138, Note_on_c, 0, 75, 116
1, 14223, Note_off_c, 0, 75, 116
1, 14238, Note_on_c, 0, 71, 103
1, 14284, Note_off_c, 0, 71, 103
1, 14303, Note_on_c, 0, 74, 108
1, 14395, Note_off_c, 0, 74, 108
1, 14412, Note_on_c, 0, 73, 106
1, 14478, Note_off_c, 0, 73, 106
1, 14492, Note_on_c, 0, 72, 104
1, 14577, Note_off_c, 0, 72, 104
1, 14592, Note_on_c, 0, 55, 107
1, 14792, Note_off_c, 0, 55, 107
1, 14802, Note_on_c, 0, 61, 115
1, 14847, Note_off_c, 0, 61, 115
1, 14847, Note_on_c, 0, 64, 123
1, 14890, Note_off_c, 0, 64, 123
1, 14899, Note_on_c, 0, 61, 109
1, 14991, Note_off_c, 0, 61, 109
1, 15012, Note_on_c, 0, 70, 116
1, 15070, Note_off_c, 0, 70, 116
1, 15077, Note_on_c, 0, 69, 113
1, 15153, Note_off_c, 0, 69, 113
1, 15166, Note_on_c, 0, 74, 116
1, 15230, Note_off_c, 0, 74, 116
1, 15236, Note_on_c, 0, 73, 112
1, 15333, Note_off_c, 0, 73, 112
1, 15351, Note_on_c, 0, 69, 111
1, 15415, Note_off_c, 0, 69, 111
1, 15447, Note_on_c, 0, 65, 105
1, 15488, Note_off_c, 0, 65, 105
1, 15498, Note_on_c, 0, 62, 101
1, 15551, Note_off_c, 0, 62, 101
1, 15565, Note_on_c, 0, 58, 106
1, 15618, Note_off_c, 0, 58, 106
1, 15640, Note_on_c, 0, 66, 103
1, 15911, Note_off_c, 0, 66, 103
1, 15940, Note_on_c, 0, 69, 102
1, 16051, Note_off_c, 0, 69, 102
1, 16299, Note_on_c, 0, 58, 109
1, 16351, Note_off_c, 0, 58, 109
1, 16357, Note_on_c, 0, 60, 104
1, 16403, Note_off_c, 0, 60, 104
1, 16408, Note_on_c, 0, 63, 99
1, 16443, Note_off_c, 0, 63, 99
1, 16451, Note_on_c, 0, 68, 100
1, 16479, Note_off_c, 0, 68, 100
1, 16485, Note_on_c, 0, 72, 113
1, 16571, Note_off_c, 0, 72, 113
1, 16613, Note_on_c, 0, 79, 119
1, 16747, Note_off_c, 0, 79, 119
1, 16766, Note_on_c, 0, 74, 105
1, 16806, Note_off_c, 0, 74, 105
1, 16825, Note_on_c, 0, 77, 118
1, 16997, Note_off_c, 0, 77, 118
1, 17069, Note_on_c, 0, 73, 112
1, 17133, Note_off_c, 0, 73, 112
1, 17144, Note_on_c, 0, 75, 116
1, 17208, Note_off_c, 0, 75, 116
1, 17229, Note_on_c, 0, 72, 94
1, 17268, Note_off_c, 0, 72, 94
1, 17278, Note_on_c, 0, 73, 110
1, 17405, Note_off_c, 0, 73, 110
1, 17422, Note_on_c, 0, 70, 106
1, 17452, Note_off_c, 0, 70, 106
1, 17471, Note_on_c, 0, 72, 108
1, 17513, Note_off_c, 0, 72, 108
1, 17527, Note_on_c, 0, 68, 97
1, 17557, Note_off_c, 0, 68, 97
1, 17561, Note_on_c, 0, 70, 112
1, 17651, Note_off_c, 0, 70, 112
1, 17659, Note_on_c, 0, 66, 91
1, 17689, Note_off_c, 0, 66, 91
1, 17696, Note_on_c, 0, 69, 112
1, 17794, Note_off_c, 0, 69, 112
1, 17816, Note_on_c, 0, 67, 113
1, 17892, Note_off_c, 0, 67, 113
1, 17907, Note_on_c, 0, 64, 85
1, 17931, Note_off_c, 0, 64, 85
1, 17939, Note_on_c, 0, 66, 106
1, 18111, Note_off_c, 0, 66, 106
1, 18140, Note_on_c, 0, 64, 99
1, 18203, Note_off_c, 0, 64, 99
1, 18208, Note_on_c, 0, 62, 99
1, 18272, Note_off_c, 0, 62, 99
1, 18542, Note_on_c, 0, 76, 123
1, 18624, Note_off_c, 0, 76, 123
1, 18726, Note_on_c, 0, 74, 119
1, 18803, Note_off_c, 0, 74, 119
1, 18915, Note_on_c, 0, 62, 100
1, 18970, Note_off_c, 0, 62, 100
1, 19113, Note_on_c, 0, 64, 111
1, 19178, Note_off_c, 0, 64, 111
1, 19285, Note_on_c, 0, 68, 106
1, 19338, Note_off_c, 0, 68, 106
1, 19463, Note_on_c, 0, 78, 121
1, 19549, Note_off_c, 0, 78, 121
1, 19652, Note_on_c, 0, 79, 112
1, 19677, Note_off_c, 0, 79, 112
1, 19677, Note_on_c, 0, 80, 121
1, 19728, Note_off_c, 0, 80, 121
1, 19840, Note_on_c, 0, 77, 116
1, 19908, Note_off_c, 0, 77, 116
1, 20026, Note_on_c, 0, 68, 94
1, 20077, Note_off_c, 0, 68, 94
1, 20104, Note_on_c, 0, 76, 107
1, 20182, Note_off_c, 0, 76, 107
1, 20214, Note_on_c, 0, 65, 96
1, 20260, Note_off_c, 0, 65, 96
1, 20301, Note_on_c, 0, 68, 107
1, 20382, Note_off_c, 0, 68, 107
1, 20398, Note_on_c, 0, 70, 99
1, 20482, Note_off_c, 0, 70, 99
1, 20498, Note_on_c, 0, 65, 106
1, 20559, Note_off_c, 0, 65, 106
1, 20610, Note_on_c, 0, 58, 99
1, 20670, Note_off_c, 0, 58, 99
1, 20676, Note_on_c, 0, 61, 98
1, 20733, Note_off_c, 0, 61, 98
1, 20740, Note_on_c, 0, 64, 99
1, 20786, Note_off_c, 0, 64, 99
1, 20797, Note_on_c, 0, 70, 99
1, 20860, Note_off_c, 0, 70, 99
1, 20869, Note_on_c, 0, 69, 96
1, 20963, Note_off_c, 0, 69, 96
1, 20993, Note_on_c, 0, 57, 101
1, 21045, Note_off_c, 0, 57, 101
1, 21055, Note_on_c, 0, 55, 87
1, 21105, Note_off_c, 0, 55, 87
1, 21112, Note_on_c, 0, 57, 92
1, 21190, Note_off_c, 0, 57, 92
1, 21219, Note_on_c, 0, 60, 92
1, 21261, Note_off_c, 0, 60, 92
1, 21271, Note_on_c, 0, 64, 99
1, 21328, Note_off_c, 0, 64, 99
1, 21332, Note_on_c, 0, 67, 106
1, 21386, Note_off_c, 0, 67, 106
1, 21389, Note_on_c, 0, 71, 109
1, 21502, Note_off_c, 0, 71, 109
1, 21511, Note_on_c, 0, 74, 108
1, 21587, Note_off_c, 0, 74, 108
1, 21595, Note_on_c, 0, 72, 103
1, 21776, Note_off_c, 0, 72, 103
1, 22095, Note_on_c, 0, 68, 120
1, 22160, Note_off_c, 0, 68, 120
1, 22166, Note_on_c, 0, 71, 117
1, 22285, Note_off_c, 0, 71, 117
1, 22313, Note_on_c, 0, 68, 102
1, 22374, Note_off_c, 0, 68, 102
1, 22387, Note_on_c, 0, 72, 106
1, 22462, Note_off_c, 0, 72, 106
1, 22463, Note_on_c, 0, 69, 106
1, 22498, Note_off_c, 0, 69, 106
1, 22506, Note_on_c, 0, 71, 109
1, 22573, Note_off_c, 0, 71, 109
1, 22579, Note_on_c, 0, 72, 105
1, 22671, Note_off_c, 0, 72, 105
1, 22677, Note_on_c, 0, 74, 121
1, 22753, Note_off_c, 0, 74, 121
1, 22758, Note_on_c, 0, 76, 119
1, 22885, Note_off_c, 0, 76, 119
1, 22904, Note_on_c, 0, 76, 124
1, 22964, Note_off_c, 0, 76, 124
1, 22969, Note_on_c, 0, 77, 119
1, 23079, Note_off_c, 0, 77, 119
1, 23090, Note_on_c, 0, 75, 113
1, 23291, Note_off_c, 0, 75, 113
1, 23658, Note_on_c, 0, 76, 124
1, 23709, Note_off_c, 0, 76, 124
1, 23716, Note_on_c, 0, 77, 125
1, 23761, Note_off_c, 0, 77, 125
1, 23823, Note_on_c, 0, 76, 123
1, 23876, Note_off_c, 0, 76, 123
1, 23880, Note_on_c, 0, 77, 120
1, 23928, Note_off_c, 0, 77, 120
1, 23968, Note_on_c, 0, 80, 113
1, 24087, Note_off_c, 0, 80, 113
1, 24092, Note_on_c, 0, 78, 114
1, 24418, Note_off_c, 0, 78, 114
1, 24427, Note_on_c, 0, 81, 115
1, 24485, Note_off_c, 0, 81, 115
1, 24512, Note_on_c, 0, 77, 114
1, 24613, Note_off_c, 0, 77, 114
1, 24641, Note_on_c, 0, 74, 98
1, 24681, Note_off_c, 0, 74, 98
1, 24697, Note_on_c, 0, 76, 117
1, 24812, Note_off_c, 0, 76, 117
1, 24824, Note_on_c, 0, 81, 110
1, 24904, Note_off_c, 0, 81, 110
1, 25194, Note_on_c, 0, 70, 110
1, 25226, Note_off_c, 0, 70, 110
1, 25241, Note_on_c, 0, 77, 118
1, 25328, Note_off_c, 0, 77, 118
1, 25351, Note_on_c, 0, 75, 97
1, 25370, Note_off_c, 0, 75, 97
1, 25429, Note_on_c, 0, 74, 112
1, 25534, Note_off_c, 0, 74, 112
1, 25562, Note_on_c, 0, 79, 124
1, 25644, Note_off_c, 0, 79, 124
1, 25818, Note_on_c, 0, 74, 113
1, 25966, Note_off_c, 0, 74, 113
1, 25973, Note_on_c, 0, 69, 82
1, 26001, Note_off_c, 0, 69, 82
1, 26011, Note_on_c, 0, 73, 111
1, 26126, Note_off_c, 0, 73, 111
1, 26134, Note_on_c, 0, 67, 81
1, 26174, Note_off_c, 0, 67, 81
1, 26190, Note_on_c, 0, 72, 99
1, 26285, Note_off_c, 0, 72, 99
1, 26328, Note_on_c, 0, 77, 108
1, 26397, Note_off_c, 0, 77, 108
1, 26541, Note_on_c, 0, 65, 104
1, 26572, Note_off_c, 0, 65, 104
1, 26597, Note_on_c, 0, 73, 100
1, 26712, Note_off_c, 0, 73, 100
1, 26731, Note_on_c, 0, 64, 81
1, 26750, Note_off_c, 0, 64, 81
1, 26766, Note_on_c, 0, 71, 100
1, 26881, Note_off_c, 0, 71, 100
1, 26916, Note_on_c, 0, 59, 78
1, 26941, Note_off_c, 0, 59, 78
1, 26944, Note_on_c, 0, 70, 88
1, 27084, Note_off_c, 0, 70, 88
1, 27088, Note_on_c, 0, 69, 90
1, 27163, Note_off_c, 0, 69, 90
1, 27163, End_track
0, 0, End_of_file
