0, 0, Header, 1, 1, 192
1, 0, Start_track
1, 0, Title_t, "Melody"
1, 0, Tempo, 301507
1, 0, Key_signature, 2, "major"
1, 0, Time_signature, 4, 2, 24, 8
1, 2715, Note_on_c, 0, 80, 109
1, 2822, Note_off_c, 0, 80, 109
1, 2828, Note_on_c, 0, 78, 93
1, 2840, Note_off_c, 0, 78, 93
1, 2847, Note_on_c, 0, 76, 97
1, 2904, Note_off_c, 0, 76, 97
1, 2907, Note_on_c, 0, 73, 103
1, 2993, Note_off_c, 0, 73, 103
1, 3017, Note_on_c, 0, 69, 102
1, 3081, Note_off_c, 0, 69, 102
1, 3096, Note_on_c, 0, 66, 98
1, 3344, Note_off_c, 0, 66, 98
1, 3917, Note_on_c, 0, 64, 107
1, 3960, Note_off_c, 0, 64, 107
1, 3970, Note_on_c, 0, 62, 91
1, 4079, Note_off_c, 0, 62, 91
1, 4094, Note_on_c, 0, 64, 108
1, 4151, Note_off_c, 0, 64, 108
1, 4159, Note_on_c, 0, 66, 103
1, 4256, Note_off_c, 0, 66, 103
1, 4270, Note_on_c, 0, 69, 93
1, 4339, Note_off_c, 0, 69, 93
1, 4342, Note_on_c, 0, 73, 115
1, 4434, Note_off_c, 0, 73, 115
1, 4449, Note_on_c, 0, 76, 118
1, 4534, Note_off_c, 0, 76, 118
1, 4548, Note_on_c, 0, 74, 105
1, 4837, Note_off_c, 0, 74, 105
1, 4849, Note_on_c, 0, 75, 105
1, 4934, Note_off_c, 0, 75, 105
1, 4949, Note_on_c, 0, 70, 101
1, 5193, Note_off_c, 0, 70, 101
1, 5234, Note_on_c, 0, 63, 107
1, 5561, Note_off_c, 0, 63, 107
1, 5584, Note_on_c, 0, 65, 109
1, 5652, Note_off_c, 0, 65, 109
1, 5661, Note_on_c, 0, 67, 105
1, 5738, Note_off_c, 0, 67, 105
1, 5785, Note_on_c, 0, 69, 89
1, 5826, Note_off_c, 0, 69, 89
1, 5837, Note_on_c, 0, 70, 112
1, 5925, Note_off_c, 0, 70, 112
1, 5950, Note_on_c, 0, 73, 86
1, 5993, Note_off_c, 0, 73, 86
1, 6003, Note_on_c, 0, 74, 96
1, 6023, Note_off_c, 0, 74, 96
1, 6034, Note_on_c, 0, 75, 98
1, 6124, Note_off_c, 0, 75, 98
1, 6132, Note_on_c, 0, 76, 119
1, 6207, Note_off_c, 0, 76, 119
1, 6217, Note_on_c, 0, 75, 113
1, 6298, Note_off_c, 0, 75, 113
1, 6329, Note_on_c, 0, 73, 75
1, 6365, Note_off_c, 0, 73, 75
1, 6374, Note_on_c, 0, 74, 108
1, 6457, Note_off_c, 0, 74, 108
1, 6470, Note_on_c, 0, 73, 103
1, 6542, Note_off_c, 0, 73, 103
1, 6553, Note_on_c, 0, 72, 101
1, 6645, Note_off_c, 0, 72, 101
1, 6669, Note_on_c, 0, 70, 104
1, 6744, Note_off_c, 0, 70, 104
1, 6826, Note_on_c, 0, 70, 104
1, 6880, Note_off_c, 0, 70, 104
1, 6880, Note_on_c, 0, 69, 101
1, 6926, Note_off_c, 0, 69, 101
1, 6929, Note_on_c, 0, 67, 101
1, 6995, Note_off_c, 0, 67, 101
1, 7007, Note_on_c, 0, 65, 97
1, 7113, Note_off_c, 0, 65, 97
1, 7785, Note_on_c, 0, 58, 94
1, 7835, Note_off_c, 0, 58, 94
1, 7844, Note_on_c, 0, 60, 90
1, 8088, Note_off_c, 0, 60, 90
1, 8090, Note_on_c, 0, 62, 102
1, 8196, Note_off_c, 0, 62, 102
1, 8208, Note_on_c, 0, 63, 106
1, 8430, Note_off_c, 0, 63, 106
1, 8437, Note_on_c, 0, 65, 111
1, 8506, Note_off_c, 0, 65, 111
1, 8514, Note_on_c, 0, 67, 108
1, 8591, Note_off_c, 0, 67, 108
1, 8596, Note_on_c, 0, 69, 111
1, 8634, Note_off_c, 0, 69, 111
1, 8636, Note_on_c, 0, 70, 116
1, 8689, Note_off_c, 0, 70, 116
1, 8690, Note_on_c, 0, 72, 117
1, 8747, Note_off_c, 0, 72, 117
1, 8753, Note_on_c, 0, 74, 116
1, 8954, Note_off_c, 0, 74, 116
1, 8954, Note_on_c, 0, 75, 111
1, 9233, Note_off_c, 0, 75, 111
1, 9238, Note_on_c, 0, 74, 109
1, 9323, Note_off_c, 0, 74, 109
1, 9335, Note_on_c, 0, 72, 98
1, 9442, Note_off_c, 0, 72, 98
1, 9872, Note_on_c, 0, 69, 108
1, 9943, Note_off_c, 0, 69, 108
1, 9948, Note_on_c, 0, 67, 105
1, 10046, Note_off_c, 0, 67, 105
1, 10060, Note_on_c, 0, 65, 87
1, 10103, Note_off_c, 0, 65, 87
1, 10106, Note_on_c, 0, 66, 99
1, 10204, Note_off_c, 0, 66, 99
1, 10244, Note_on_c, 0, 77, 119
1, 10290, Note_off_c, 0, 77, 119
1, 10293, Note_on_c, 0, 75, 113
1, 10414, Note_off_c, 0, 75, 113
1, 10489, Note_on_c, 0, 74, 107
1, 10590, Note_off_c, 0, 74, 107
1, 10612, Note_on_c, 0, 65, 90
1, 10648, Note_off_c, 0, 65, 90
1, 10663, Note_on_c, 0, 73, 107
1, 10753, Note_off_c, 0, 73, 107
1, 10776, Note_on_c, 0, 68, 104
1, 10828, Note_off_c, 0, 68, 104
1, 10836, Note_on_c, 0, 65, 96
1, 10935, Note_off_c, 0, 65, 96
1, 10965, Note_on_c, 0, 58, 94
1, 11001, Note_off_c, 0, 58, 94
1, 11012, Note_on_c, 0, 62, 106
1, 11109, Note_off_c, 0, 62, 106
1, 11119, Note_on_c, 0, 65, 102
1, 11161, Note_off_c, 0, 65, 102
1, 11216, Note_on_c, 0, 61, 97
1, 11308, Note_off_c, 0, 61, 97
1, 11313, Note_on_c, 0, 58, 81
1, 11349, Note_off_c, 0, 58, 81
1, 11377, Note_on_c, 0, 60, 94
1, 11499, Note_off_c, 0, 60, 94
1, 11501, Note_on_c, 0, 57, 91
1, 11540, Note_off_c, 0, 57, 91
1, 11549, Note_on_c, 0, 59, 97
1, 11669, Note_off_c, 0, 59, 97
1, 11674, Note_on_c, 0, 64, 97
1, 11741, Note_off_c, 0, 64, 97
1, 11745, Note_on_c, 0, 69, 104
1, 11770, Note_off_c, 0, 69, 104
1, 11775, Note_on_c, 0, 70, 111
1, 11810, Note_off_c, 0, 70, 111
1, 11811, Note_on_c, 0, 69, 99
1, 11850, Note_off_c, 0, 69, 99
1, 11861, Note_on_c, 0, 67, 95
1, 11911, Note_off_c, 0, 67, 95
1, 11923, Note_on_c, 0, 70, 108
1, 12052, Note_off_c, 0, 70, 108
1, 12141, Note_on_c, 0, 67, 97
1, 12229, Note_off_c, 0, 67, 97
1, 12251, Note_on_c, 0, 63, 87
1, 12492, Note_off_c, 0, 63, 87
1, 12501, Note_on_c, 0, 62, 89
1, 12680, Note_off_c, 0, 62, 89
1, 12696, Note_on_c, 0, 61, 99
1, 12791, Note_off_c, 0, 61, 99
1, 12890, Note_on_c, 0, 60, 86
1, 13057, Note_off_c, 0, 60, 86
1, 14746, Note_on_c, 0, 64, 108
1, 14806, Note_off_c, 0, 64, 108
1, 14819, Note_on_c, 0, 67, 110
1, 14916, Note_off_c, 0, 67, 110
1, 14926, Note_on_c, 0, 71, 118
1, 14987, Note_off_c, 0, 71, 118
1, 15002, Note_on_c, 0, 74, 119
1, 15094, Note_off_c, 0, 74, 119
1, 15179, Note_on_c, 0, 78, 121
1, 15385, Note_off_c, 0, 78, 121
1, 15402, Note_on_c, 0, 74, 119
1, 15562, Note_off_c, 0, 74, 119
1, 15578, Note_on_c, 0, 71, 109
1, 15679, Note_off_c, 0, 71, 109
1, 15692, Note_on_c, 0, 73, 105
1, 15982, Note_off_c, 0, 73, 105
1, 16776, Note_on_c, 0, 64, 98
1, 16859, Note_off_c, 0, 64, 98
1, 16879, Note_on_c, 0, 62, 97
1, 16951, Note_off_c, 0, 62, 97
1, 16955, Note_on_c, 0, 63, 97
1, 17033, Note_off_c, 0, 63, 97
1, 17045, Note_on_c, 0, 65, 113
1, 17121, Note_off_c, 0, 65, 113
1, 17123, Note_on_c, 0, 67, 105
1, 17227, Note_off_c, 0, 67, 105
1, 17234, Note_on_c, 0, 70, 91
1, 17282, Note_off_c, 0, 70, 91
1, 17287, Note_on_c, 0, 74, 121
1, 17396, Note_off_c, 0, 74, 121
1, 17408, Note_on_c, 0, 77, 111
1, 17458, Note_off_c, 0, 77, 111
1, 17459, Note_on_c, 0, 81, 119
1, 17661, Note_off_c, 0, 81, 119
1, 17672, Note_on_c, 0, 77, 103
1, 17792, Note_off_c, 0, 77, 103
1, 17796, Note_on_c, 0, 74, 105
1, 17849, Note_off_c, 0, 74, 105
1, 17861, Note_on_c, 0, 70, 93
1, 17982, Note_off_c, 0, 70, 93
1, 17987, Note_on_c, 0, 68, 94
1, 18029, Note_off_c, 0, 68, 94
1, 18040, Note_on_c, 0, 67, 103
1, 18155, Note_off_c, 0, 67, 103
1, 18173, Note_on_c, 0, 70, 104
1, 18225, Note_off_c, 0, 70, 104
1, 18236, Note_on_c, 0, 67, 84
1, 18360, Note_off_c, 0, 67, 84
1, 18426, Note_on_c, 0, 69, 107
1, 18528, Note_off_c, 0, 69, 107
1, 18538, Note_on_c, 0, 67, 96
1, 18619, Note_off_c, 0, 67, 96
1, 18626, Note_on_c, 0, 65, 96
1, 18712, Note_off_c, 0, 65, 96
1, 18726, Note_on_c, 0, 64, 110
1, 18798, Note_off_c, 0, 64, 110
1, 18806, Note_on_c, 0, 63, 96
1, 18896, Note_off_c, 0, 63, 96
1, 18903, Note_on_c, 0, 65, 115
1, 18955, Note_off_c, 0, 65, 115
1, 18961, Note_on_c, 0, 62, 101
1, 19061, Note_off_c, 0, 62, 101
1, 19155, Note_on_c, 0, 60, 85
1, 19345, Note_off_c, 0, 60, 85
1, 19700, Note_on_c, 0, 58, 112
1, 19751, Note_off_c, 0, 58, 112
1, 19756, Note_on_c, 0, 56, 109
1, 19919, Note_off_c, 0, 56, 109
1, 19983, Note_on_c, 0, 70, 118
1, 20101, Note_off_c, 0, 70, 118
1, 20126, Note_on_c, 0, 67, 102
1, 20161, Note_off_c, 0, 67, 102
1, 20166, Note_on_c, 0, 68, 101
1, 20285, Note_off_c, 0, 68, 101
1, 20289, Note_on_c, 0, 70, 94
1, 20345, Note_off_c, 0, 70, 94
1, 20350, Note_on_c, 0, 71, 110
1, 20439, Note_off_c, 0, 71, 110
1, 20468, Note_on_c, 0, 74, 108
1, 20523, Note_off_c, 0, 74, 108
1, 20536, Note_on_c, 0, 71, 100
1, 20608, Note_off_c, 0, 71, 100
1, 20645, Note_on_c, 0, 65, 104
1, 20706, Note_off_c, 0, 65, 104
1, 20715, Note_on_c, 0, 67, 98
1, 20800, Note_off_c, 0, 67, 98
1, 20833, Note_on_c, 0, 63, 94
1, 20889, Note_off_c, 0, 63, 94
1, 20899, Note_on_c, 0, 62, 94
1, 20994, Note_off_c, 0, 62, 94
1, 21077, Note_on_c, 0, 63, 88
1, 21184, Note_off_c, 0, 63, 88
1, 21295, Note_on_c, 0, 60, 88
1, 21403, Note_off_c, 0, 60, 88
1, 21410, Note_on_c, 0, 62, 95
1, 21524, Note_off_c, 0, 62, 95
1, 21535, Note_on_c, 0, 63, 85
1, 21716, Note_off_c, 0, 63, 85
1, 22216, Note_on_c, 0, 69, 91
1, 22253, Note_off_c, 0, 69, 91
1, 22271, Note_on_c, 0, 71, 108
1, 22394, Note_off_c, 0, 71, 108
1, 22399, Note_on_c, 0, 68, 95
1, 22466, Note_off_c, 0, 68, 95
1, 22469, Note_on_c, 0, 70, 105
1, 22587, Note_off_c, 0, 70, 105
1, 22591, Note_on_c, 0, 72, 110
1, 22648, Note_off_c, 0, 72, 110
1, 22661, Note_on_c, 0, 73, 108
1, 22916, Note_off_c, 0, 73, 108
1, 22957, Note_on_c, 0, 69, 103
1, 23007, Note_off_c, 0, 69, 103
1, 23020, Note_on_c, 0, 67, 101
1, 23139, Note_off_c, 0, 67, 101
1, 23150, Note_on_c, 0, 69, 102
1, 23217, Note_off_c, 0, 69, 102
1, 23228, Note_on_c, 0, 66, 95
1, 23327, Note_off_c, 0, 66, 95
1, 23801, Note_on_c, 0, 76, 116
1, 23826, Note_off_c, 0, 76, 116
1, 23833, Note_on_c, 0, 77, 127
1, 23962, Note_off_c, 0, 77, 127
1, 24008, Note_on_c, 0, 73, 107
1, 24050, Note_off_c, 0, 73, 107
1, 24056, Note_on_c, 0, 74, 111
1, 24124, Note_off_c, 0, 74, 111
1, 24126, Note_on_c, 0, 77, 121
1, 24200, Note_off_c, 0, 77, 121
1, 24215, Note_on_c, 0, 76, 118
1, 24306, Note_off_c, 0, 76, 118
1, 24343, Note_on_c, 0, 67, 90
1, 24382, Note_off_c, 0, 67, 90
1, 24404, Note_on_c, 0, 70, 109
1, 24495, Note_off_c, 0, 70, 109
1, 24510, Note_on_c, 0, 74, 123
1, 24589, Note_off_c, 0, 74, 123
1, 24590, Note_on_c, 0, 73, 117
1, 24695, Note_off_c, 0, 73, 117
1, 24744, Note_on_c, 0, 62, 98
1, 24790, Note_off_c, 0, 62, 98
1, 24801, Note_on_c, 0, 66, 98
1, 24843, Note_off_c, 0, 66, 98
1, 24846, Note_on_c, 0, 67, 91
1, 24901, Note_off_c, 0, 67, 91
1, 24913, Note_on_c, 0, 72, 108
1, 24988, Note_off_c, 0, 72, 108
1, 24996, Note_on_c, 0, 71, 108
1, 25103, Note_off_c, 0, 71, 108
1, 25137, Note_on_c, 0, 62, 82
1, 25175, Note_off_c, 0, 62, 82
1, 25207, Note_on_c, 0, 65, 88
1, 25288, Note_off_c, 0, 65, 88
1, 25303, Note_on_c, 0, 70, 114
1, 25378, Note_off_c, 0, 70, 114
1, 25383, Note_on_c, 0, 69, 106
1, 25477, Note_off_c, 0, 69, 106
1, 25490, Note_on_c, 0, 65, 98
1, 25553, Note_off_c, 0, 65, 98
1, 25560, Note_on_c, 0, 68, 112
1, 25680, Note_off_c, 0, 68, 112
1, 25686, Note_on_c, 0, 65, 100
1, 25743, Note_off_c, 0, 65, 100
1, 25754, Note_on_c, 0, 67, 111
1, 25865, Note_off_c, 0, 67, 111
1, 25870, Note_on_c, 0, 65, 95
1, 25926, Note_off_c, 0, 65, 95
1, 25938, Note_on_c, 0, 66, 109
1, 26070, Note_off_c, 0, 66, 109
1, 26092, Note_on_c, 0, 64, 83
1, 26131, Note_off_c, 0, 64, 83
1, 26142, Note_on_c, 0, 65, 109
1, 26247, Note_off_c, 0, 65, 109
1, 26275, Note_on_c, 0, 57, 94
1, 26325, Note_off_c, 0, 57, 94
1, 26334, Note_on_c, 0, 61, 86
1, 26395, Note_off_c, 0, 61, 86
1, 26401, Note_on_c, 0, 64, 93
1, 26476, Note_off_c, 0, 64, 93
1, 26482, Note_on_c, 0, 65, 104
1, 26542, Note_off_c, 0, 65, 104
1, 26551, Note_on_c, 0, 64, 100
1, 26649, Note_off_c, 0, 64, 100
1, 26669, Note_on_c, 0, 58, 95
1, 26722, Note_off_c, 0, 58, 95
1, 26736, Note_on_c, 0, 63, 104
1, 26828, Note_off_c, 0, 63, 104
1, 26861, Note_on_c, 0, 58, 85
1, 26912, Note_off_c, 0, 58, 85
1, 26922, Note_on_c, 0, 61, 94
1, 27025, Note_off_c, 0, 61, 94
1, 27051, Note_on_c, 0, 58, 91
1, 27102, Note_off_c, 0, 58, 91
1, 27108, Note_on_c, 0, 60, 91
1, 27220, Note_off_c, 0, 60, 91
1, 27260, Note_on_c, 0, 58, 86
1, 27299, Note_off_c, 0, 58, 86
1, 27325, Note_on_c, 0, 59, 85
1, 27548, Note_off_c, 0, 59, 85
1, 27548, End_track
0, 0, End_of_file
