0, 0, Header, 1, 1, 192
1, 0, Start_track
1, 0, Title_t, "Melody"
1, 0, Tempo, 355029
1, 0, Key_signature, 2, "major"
1, 0, Time_signature, 4, 2, 24, 8
1, 2944, Note_on_c, 0, 68, 102
1, 3036, Note_off_c, 0, 68, 102
1, 3084, Note_on_c, 0, 64, 95
1, 3322, Note_off_c, 0, 64, 95
1, 3355, Note_on_c, 0, 62, 96
1, 3436, Note_off_c, 0, 62, 96
1, 3451, Note_on_c, 0, 64, 106
1, 3555, Note_off_c, 0, 64, 106
1, 3624, Note_on_c, 0, 68, 109
1, 3681, Note_off_c, 0, 68, 109
1, 3689, Note_on_c, 0, 69, 104
1, 3794, Note_off_c, 0, 69, 104
1, 3847, Note_on_c, 0, 67, 93
1, 4056, Note_off_c, 0, 67, 93
1, 4126, Note_on_c, 0, 63, 86
1, 4235, Note_off_c, 0, 63, 86
1, 4247, Note_on_c, 0, 65, 80
1, 4445, Note_off_c, 0, 65, 80
1, 5545, Note_on_c, 0, 65, 115
1, 5611, Note_off_c, 0, 65, 115
1, 5623, Note_on_c, 0, 68, 90
1, 5659, Note_off_c, 0, 68, 90
1, 5680, Note_on_c, 0, 72, 92
1, 5710, Note_off_c, 0, 72, 92
1, 5734, Note_on_c, 0, 74, 121
1, 5782, Note_off_c, 0, 74, 121
1, 5808, Note_on_c, 0, 75, 127
1, 5921, Note_off_c, 0, 75, 127
1, 5940, Note_on_c, 0, 76, 101
1, 5964, Note_off_c, 0, 76, 101
1, 5983, Note_on_c, 0, 77, 125
1, 6073, Note_off_c, 0, 77, 125
1, 6100, Note_on_c, 0, 77, 99
1, 6662, Note_off_c, 0, 77, 99
1, 6679, Note_on_c, 0, 78, 111
1, 6797, Note_off_c, 0, 78, 111
1, 6817, Note_on_c, 0, 77, 117
1, 6868, Note_off_c, 0, 77, 117
1, 6886, Note_on_c, 0, 75, 121
1, 6938, Note_off_c, 0, 75, 121
1, 6944, Note_on_c, 0, 76, 117
1, 7098, Note_off_c, 0, 76, 117
1, 7121, Note_on_c, 0, 74, 113
1, 7143, Note_off_c, 0, 74, 113
1, 7157, Note_on_c, 0, 73, 108
1, 7191, Note_off_c, 0, 73, 108
1, 7211, Note_on_c, 0, 71, 105
1, 7281, Note_off_c, 0, 71, 105
1, 7283, Note_on_c, 0, 73, 103
1, 7457, Note_off_c, 0, 73, 103
1, 7486, Note_on_c, 0, 69, 99
1, 7536, Note_off_c, 0, 69, 99
1, 7541, Note_on_c, 0, 67, 90
1, 7599, Note_off_c, 0, 67, 90
1, 7611, Note_on_c, 0, 65, 89
1, 7662, Note_off_c, 0, 65, 89
1, 7665, Note_on_c, 0, 64, 92
1, 8015, Note_off_c, 0, 64, 92
1, 8024, Note_on_c, 0, 63, 97
1, 8123, Note_off_c, 0, 63, 97
1, 8156, Note_on_c, 0, 58, 90
1, 8202, Note_off_c, 0, 58, 90
1, 8222, Note_on_c, 0, 62, 98
1, 8313, Note_off_c, 0, 62, 98
1, 8351, Note_on_c, 0, 57, 86
1, 8396, Note_off_c, 0, 57, 86
1, 8405, Note_on_c, 0, 61, 95
1, 8536, Note_off_c, 0, 61, 95
1, 8539, Note_on_c, 0, 62, 90
1, 8728, Note_off_c, 0, 62, 90
1, 8803, Note_on_c, 0, 74, 100
1, 8897, Note_off_c, 0, 74, 100
1, 8942, Note_on_c, 0, 70, 93
1, 8967, Note_off_c, 0, 70, 93
1, 8985, Note_on_c, 0, 72, 99
1, 9068, Note_off_c, 0, 72, 99
1, 9112, Note_on_c, 0, 69, 97
1, 9161, Note_off_c, 0, 69, 97
1, 9493, Note_on_c, 0, 69, 85
1, 9523, Note_off_c, 0, 69, 85
1, 9561, Note_on_c, 0, 74, 121
1, 9645, Note_off_c, 0, 74, 121
1, 9667, Note_on_c, 0, 74, 113
1, 9688, Note_off_c, 0, 74, 113
1, 9695, Note_on_c, 0, 74, 121
1, 9731, Note_off_c, 0, 74, 121
1, 9751, Note_on_c, 0, 74, 118
1, 9813, Note_off_c, 0, 74, 118
1, 9825, Note_on_c, 0, 74, 101
1, 9864, Note_off_c, 0, 74, 101
1, 9877, Note_on_c, 0, 74, 108
1, 9917, Note_off_c, 0, 74, 108
1, 9934, Note_on_c, 0, 74, 119
1, 10055, Note_off_c, 0, 74, 119
1, 10063, Note_on_c, 0, 62, 94
1, 10273, Note_off_c, 0, 62, 94
1, 10282, Note_on_c, 0, 64, 89
1, 10477, Note_off_c, 0, 64, 89
1, 10819, Note_on_c, 0, 64, 113
1, 10873, Note_off_c, 0, 64, 113
1, 10886, Note_on_c, 0, 62, 94
1, 10984, Note_off_c, 0, 62, 94
1, 10998, Note_on_c, 0, 64, 115
1, 11065, Note_off_c, 0, 64, 115
1, 11067, Note_on_c, 0, 67, 116
1, 11165, Note_off_c, 0, 67, 116
1, 11183, Note_on_c, 0, 69, 114
1, 11243, Note_off_c, 0, 69, 114
1, 11251, Note_on_c, 0, 70, 115
1, 11359, Note_off_c, 0, 70, 115
1, 11369, Note_on_c, 0, 74, 121
1, 11779, Note_off_c, 0, 74, 121
1, 11785, Note_on_c, 0, 73, 106
1, 11834, Note_off_c, 0, 73, 106
1, 12392, Note_on_c, 0, 66, 108
1, 12414, Note_off_c, 0, 66, 108
1, 12422, Note_on_c, 0, 62, 98
1, 12553, Note_off_c, 0, 62, 98
1, 12563, Note_on_c, 0, 64, 109
1, 12683, Note_off_c, 0, 64, 109
1, 12710, Note_on_c, 0, 62, 100
1, 12851, Note_off_c, 0, 62, 100
1, 12851, Note_on_c, 0, 64, 111
1, 12949, Note_off_c, 0, 64, 111
1, 12964, Note_on_c, 0, 64, 110
1, 12987, Note_off_c, 0, 64, 110
1, 12990, Note_on_c, 0, 65, 112
1, 13329, Note_off_c, 0, 65, 112
1, 13336, Note_on_c, 0, 64, 105
1, 13425, Note_off_c, 0, 64, 105
1, 13483, Note_on_c, 0, 62, 102
1, 13518, Note_off_c, 0, 62, 102
1, 13538, Note_on_c, 0, 65, 103
1, 13651, Note_off_c, 0, 65, 103
1, 13660, Note_on_c, 0, 66, 108
1, 13927, Note_off_c, 0, 66, 108
1, 14210, Note_on_c, 0, 63, 97
1, 14245, Note_off_c, 0, 63, 97
1, 14258, Note_on_c, 0, 66, 115
1, 14363, Note_off_c, 0, 66, 115
1, 14376, Note_on_c, 0, 67, 118
1, 14422, Note_off_c, 0, 67, 118
1, 14424, Note_on_c, 0, 68, 106
1, 15755, Note_off_c, 0, 68, 106
1, 15764, Note_on_c, 0, 66, 88
1, 15789, Note_off_c, 0, 66, 88
1, 15799, Note_on_c, 0, 64, 101
1, 15834, Note_off_c, 0, 64, 101
1, 15861, Note_on_c, 0, 68, 111
1, 15972, Note_off_c, 0, 68, 111
1, 15981, Note_on_c, 0, 69, 112
1, 16246, Note_off_c, 0, 69, 112
1, 16259, Note_on_c, 0, 67, 93
1, 16296, Note_off_c, 0, 67, 93
1, 16951, Note_on_c, 0, 65, 110
1, 17002, Note_off_c, 0, 65, 110
1, 17011, Note_on_c, 0, 63, 103
1, 17071, Note_off_c, 0, 63, 103
1, 17110, Note_on_c, 0, 62, 93
1, 17168, Note_off_c, 0, 62, 93
1, 17234, Note_on_c, 0, 63, 108
1, 17280, Note_off_c, 0, 63, 108
1, 17307, Note_on_c, 0, 65, 108
1, 17433, Note_off_c, 0, 65, 108
1, 17442, Note_on_c, 0, 67, 114
1, 17497, Note_off_c, 0, 67, 114
1, 17510, Note_on_c, 0, 69, 115
1, 17545, Note_off_c, 0, 69, 115
1, 17558, Note_on_c, 0, 70, 117
1, 17590, Note_off_c, 0, 70, 117
1, 17603, Note_on_c, 0, 72, 118
1, 17628, Note_off_c, 0, 72, 118
1, 17646, Note_on_c, 0, 74, 119
1, 17702, Note_off_c, 0, 74, 119
1, 17715, Note_on_c, 0, 72, 117
1, 18123, Note_off_c, 0, 72, 117
1, 18137, Note_on_c, 0, 70, 111
1, 18194, Note_off_c, 0, 70, 111
1, 18210, Note_on_c, 0, 69, 110
1, 18274, Note_off_c, 0, 69, 110
1, 18286, Note_on_c, 0, 70, 104
1, 18320, Note_off_c, 0, 70, 104
1, 18324, Note_on_c, 0, 69, 107
1, 18366, Note_off_c, 0, 69, 107
1, 18375, Note_on_c, 0, 67, 104
1, 18447, Note_off_c, 0, 67, 104
1, 18451, Note_on_c, 0, 65, 97
1, 18666, Note_off_c, 0, 65, 97
1, 19025, Note_on_c, 0, 69, 94
1, 19058, Note_off_c, 0, 69, 94
1, 19106, Note_on_c, 0, 74, 125
1, 19238, Note_off_c, 0, 74, 125
1, 19249, Note_on_c, 0, 73, 116
1, 19294, Note_off_c, 0, 73, 116
1, 19311, Note_on_c, 0, 74, 122
1, 20232, Note_off_c, 0, 74, 122
1, 20246, Time_signature, 5, 2, 24, 8
1, 20246, Note_on_c, 0, 72, 111
1, 20268, Note_off_c, 0, 72, 111
1, 20292, Note_on_c, 0, 74, 120
1, 20381, Note_off_c, 0, 74, 120
1, 20390, Note_on_c, 0, 77, 122
1, 20458, Note_off_c, 0, 77, 122
1, 20483, Note_on_c, 0, 75, 125
1, 20559, Note_off_c, 0, 75, 125
1, 20584, Note_on_c, 0, 74, 123
1, 21152, Note_off_c, 0, 74, 123
1, 21166, Time_signature, 4, 2, 24, 8
1, 21166, Note_on_c, 0, 72, 118
1, 21211, Note_off_c, 0, 72, 118
1, 21231, Note_on_c, 0, 70, 116
1, 21352, Note_off_c, 0, 70, 116
1, 21357, Note_on_c, 0, 69, 116
1, 21747, Note_off_c, 0, 69, 116
1, 21999, Note_on_c, 0, 69, 116
1, 22057, Note_off_c, 0, 69, 116
1, 22066, Note_on_c, 0, 70, 120
1, 22161, Note_off_c, 0, 70, 120
1, 22173, Note_on_c, 0, 73, 123
1, 22508, Note_off_c, 0, 73, 123
1, 22531, Note_on_c, 0, 73, 120
1, 22992, Note_off_c, 0, 73, 120
1, 23384, Note_on_c, 0, 76, 125
1, 23655, Note_off_c, 0, 76, 125
1, 23686, Note_on_c, 0, 74, 123
1, 23753, Note_off_c, 0, 74, 123
1, 23785, Note_on_c, 0, 66, 112
1, 23822, Note_off_c, 0, 66, 112
1, 23853, Note_on_c, 0, 69, 115
1, 24487, Note_off_c, 0, 69, 115
1, 24552, Note_on_c, 0, 78, 122
1, 25086, Note_off_c, 0, 78, 122
1, 25147, Note_on_c, 0, 76, 110
1, 25228, Note_off_c, 0, 76, 110
1, 25287, Note_on_c, 0, 69, 104
1, 25398, Note_off_c, 0, 69, 104
1, 25408, Note_on_c, 0, 69, 93
1, 26210, Note_off_c, 0, 69, 93
1, 26210, End_track
0, 0, End_of_file
