0, 0, Header, 1, 1, 192
1, 0, Start_track
1, 0, Title_t, "Melody"
1, 0, Tempo, 254237
1, 0, Key_signature, -1, "major"
1, 0, Time_signature, 4, 2, 24, 8
1, 3454, Note_on_c, 0, 72, 113
1, 3557, Note_off_c, 0, 72, 113
1, 3561, Note_on_c, 0, 73, 116
1, 3659, Note_off_c, 0, 73, 116
1, 3667, Note_on_c, 0, 70, 115
1, 3759, Note_off_c, 0, 70, 115
1, 3765, Note_on_c, 0, 66, 114
1, 3852, Note_off_c, 0, 66, 114
1, 3858, Note_on_c, 0, 61, 103
1, 3982, Note_off_c, 0, 61, 103
1, 3988, Note_on_c, 0, 57, 94
1, 4047, Note_off_c, 0, 57, 94
1, 4057, Note_on_c, 0, 61, 111
1, 4166, Note_off_c, 0, 61, 111
1, 4174, Note_on_c, 0, 59, 95
1, 4228, Note_off_c, 0, 59, 95
1, 4232, Note_on_c, 0, 60, 110
1, 4335, Note_off_c, 0, 60, 110
1, 4391, Note_on_c, 0, 60, 104
1, 4445, Note_off_c, 0, 60, 104
1, 4462, Note_on_c, 0, 56, 94
1, 4565, Note_off_c, 0, 56, 94
1, 4580, Note_on_c, 0, 64, 101
1, 4621, Note_off_c, 0, 64, 101
1, 4631, Note_on_c, 0, 68, 122
1, 4749, Note_off_c, 0, 68, 122
1, 4762, Note_on_c, 0, 70, 115
1, 4816, Note_off_c, 0, 70, 115
1, 4824, Note_on_c, 0, 66, 117
1, 4891, Note_off_c, 0, 66, 117
1, 4915, Note_on_c, 0, 63, 110
1, 5007, Note_off_c, 0, 63, 110
1, 5017, Note_on_c, 0, 58, 100
1, 5128, Note_off_c, 0, 58, 100
1, 5222, Note_on_c, 0, 61, 112
1, 5338, Note_off_c, 0, 61, 112
1, 5388, Note_on_c, 0, 57, 91
1, 5434, Note_off_c, 0, 57, 91
1, 5438, Note_on_c, 0, 58, 97
1, 5527, Note_off_c, 0, 58, 97
1, 5529, Note_on_c, 0, 61, 112
1, 5610, Note_off_c, 0, 61, 112
1, 5875, Note_on_c, 0, 61, 103
1, 5924, Note_off_c, 0, 61, 103
1, 5924, Note_on_c, 0, 63, 111
1, 5963, Note_off_c, 0, 63, 111
1, 5978, Note_on_c, 0, 66, 109
1, 6021, Note_off_c, 0, 66, 109
1, 6023, Note_on_c, 0, 67, 112
1, 6079, Note_off_c, 0, 67, 112
1, 6089, Note_on_c, 0, 68, 109
1, 6130, Note_off_c, 0, 68, 109
1, 6131, Note_on_c, 0, 71, 115
1, 6175, Note_off_c, 0, 71, 115
1, 6190, Note_on_c, 0, 75, 110
1, 6227, Note_off_c, 0, 75, 110
1, 6233, Note_on_c, 0, 77, 111
1, 6274, Note_off_c, 0, 77, 111
1, 6282, Note_on_c, 0, 78, 109
1, 6330, Note_off_c, 0, 78, 109
1, 6334, Note_on_c, 0, 79, 112
1, 6382, Note_off_c, 0, 79, 112
1, 6382, Note_on_c, 0, 77, 101
1, 6418, Note_off_c, 0, 77, 101
1, 6423, Note_on_c, 0, 75, 111
1, 6477, Note_off_c, 0, 75, 111
1, 6490, Note_on_c, 0, 72, 108
1, 6549, Note_off_c, 0, 72, 108
1, 6559, Note_on_c, 0, 76, 109
1, 6600, Note_off_c, 0, 76, 109
1, 6610, Note_on_c, 0, 75, 110
1, 6651, Note_off_c, 0, 75, 110
1, 6655, Note_on_c, 0, 74, 112
1, 6685, Note_off_c, 0, 74, 112
1, 6685, Note_on_c, 0, 72, 111
1, 6748, Note_off_c, 0, 72, 111
1, 6752, Note_on_c, 0, 68, 113
1, 6793, Note_off_c, 0, 68, 113
1, 6801, Note_on_c, 0, 67, 115
1, 6842, Note_off_c, 0, 67, 115
1, 6852, Note_on_c, 0, 63, 103
1, 6889, Note_off_c, 0, 63, 103
1, 6897, Note_on_c, 0, 61, 96
1, 6932, Note_off_c, 0, 61, 96
1, 6938, Note_on_c, 0, 63, 105
1, 6975, Note_off_c, 0, 63, 105
1, 6979, Note_on_c, 0, 67, 114
1, 7025, Note_off_c, 0, 67, 114
1, 7031, Note_on_c, 0, 63, 112
1, 7061, Note_off_c, 0, 63, 112
1, 7067, Note_on_c, 0, 65, 113
1, 7110, Note_off_c, 0, 65, 113
1, 7118, Note_on_c, 0, 66, 104
1, 7146, Note_off_c, 0, 66, 104
1, 7167, Note_on_c, 0, 67, 110
1, 7221, Note_off_c, 0, 67, 110
1, 7229, Note_on_c, 0, 68, 97
1, 7268, Note_off_c, 0, 68, 97
1, 7281, Note_on_c, 0, 71, 113
1, 7331, Note_off_c, 0, 71, 113
1, 7340, Note_on_c, 0, 68, 112
1, 7370, Note_off_c, 0, 68, 112
1, 7376, Note_on_c, 0, 67, 113
1, 7413, Note_off_c, 0, 67, 113
1, 7417, Note_on_c, 0, 65, 108
1, 7449, Note_off_c, 0, 65, 108
1, 7457, Note_on_c, 0, 63, 104
1, 7500, Note_off_c, 0, 63, 104
1, 7504, Note_on_c, 0, 61, 103
1, 7536, Note_off_c, 0, 61, 103
1, 7545, Note_on_c, 0, 59, 99
1, 7630, Note_off_c, 0, 59, 99
1, 7632, Note_on_c, 0, 63, 93
1, 7671, Note_off_c, 0, 63, 93
1, 7671, Note_on_c, 0, 68, 116
1, 7749, Note_off_c, 0, 68, 116
1, 7976, Note_on_c, 0, 63, 112
1, 8048, Note_off_c, 0, 63, 112
1, 8058, Note_on_c, 0, 66, 118
1, 8147, Note_off_c, 0, 66, 118
1, 8171, Note_on_c, 0, 72, 116
1, 8243, Note_off_c, 0, 72, 116
1, 8251, Note_on_c, 0, 70, 115
1, 8347, Note_off_c, 0, 70, 115
1, 8360, Note_on_c, 0, 66, 115
1, 8445, Note_off_c, 0, 66, 115
1, 8451, Note_on_c, 0, 61, 110
1, 8545, Note_off_c, 0, 61, 110
1, 8549, Note_on_c, 0, 57, 95
1, 8597, Note_off_c, 0, 57, 95
1, 8614, Note_on_c, 0, 61, 113
1, 8719, Note_off_c, 0, 61, 113
1, 8727, Note_on_c, 0, 58, 106
1, 8753, Note_off_c, 0, 58, 106
1, 8761, Note_on_c, 0, 54, 108
1, 8804, Note_off_c, 0, 54, 108
1, 8812, Note_on_c, 0, 55, 103
1, 8875, Note_off_c, 0, 55, 103
1, 8892, Note_on_c, 0, 54, 110
1, 8944, Note_off_c, 0, 54, 110
1, 8957, Note_on_c, 0, 56, 106
1, 9020, Note_off_c, 0, 56, 106
1, 9033, Note_on_c, 0, 60, 105
1, 9072, Note_off_c, 0, 60, 105
1, 9078, Note_on_c, 0, 63, 102
1, 9126, Note_off_c, 0, 63, 102
1, 9126, Note_on_c, 0, 66, 117
1, 9176, Note_off_c, 0, 66, 117
1, 9176, Note_on_c, 0, 67, 116
1, 9204, Note_off_c, 0, 67, 116
1, 9214, Note_on_c, 0, 68, 109
1, 9292, Note_off_c, 0, 68, 109
1, 9296, Note_on_c, 0, 72, 111
1, 9337, Note_off_c, 0, 72, 111
1, 9337, Note_on_c, 0, 75, 113
1, 9413, Note_off_c, 0, 75, 113
1, 9419, Note_on_c, 0, 73, 109
1, 9456, Note_off_c, 0, 73, 109
1, 9458, Note_on_c, 0, 70, 113
1, 9499, Note_off_c, 0, 70, 113
1, 9499, Note_on_c, 0, 72, 103
1, 9560, Note_off_c, 0, 72, 103
1, 9573, Note_on_c, 0, 73, 121
1, 9603, Note_off_c, 0, 73, 121
1, 9609, Note_on_c, 0, 75, 107
1, 9663, Note_off_c, 0, 75, 107
1, 9676, Note_on_c, 0, 72, 117
1, 9717, Note_off_c, 0, 72, 117
1, 9717, Note_on_c, 0, 67, 111
1, 9857, Note_off_c, 0, 67, 111
1, 9861, Note_on_c, 0, 68, 110
1, 9915, Note_off_c, 0, 68, 110
1, 9924, Note_on_c, 0, 69, 115
1, 10062, Note_off_c, 0, 69, 115
1, 10065, Note_on_c, 0, 66, 117
1, 10141, Note_off_c, 0, 66, 117
1, 10154, Note_on_c, 0, 62, 100
1, 10263, Note_off_c, 0, 62, 100
1, 10295, Note_on_c, 0, 56, 107
1, 10417, Note_off_c, 0, 56, 107
1, 10427, Note_on_c, 0, 58, 108
1, 10527, Note_off_c, 0, 58, 108
1, 10527, Note_on_c, 0, 59, 97
1, 10577, Note_off_c, 0, 59, 97
1, 10593, Note_on_c, 0, 60, 96
1, 10722, Note_off_c, 0, 60, 96
1, 10734, Note_on_c, 0, 63, 113
1, 10832, Note_off_c, 0, 63, 113
1, 10834, Note_on_c, 0, 60, 105
1, 10866, Note_off_c, 0, 60, 105
1, 10872, Note_on_c, 0, 58, 101
1, 10924, Note_off_c, 0, 58, 101
1, 10924, Note_on_c, 0, 61, 113
1, 11040, Note_off_c, 0, 61, 113
1, 11040, Note_on_c, 0, 53, 104
1, 11088, Note_off_c, 0, 53, 104
1, 11092, Note_on_c, 0, 56, 104
1, 11118, Note_off_c, 0, 56, 104
1, 11128, Note_on_c, 0, 58, 106
1, 11198, Note_off_c, 0, 58, 106
1, 11206, Note_on_c, 0, 61, 107
1, 11280, Note_off_c, 0, 61, 107
1, 11295, Note_on_c, 0, 60, 107
1, 11349, Note_off_c, 0, 60, 107
1, 11355, Note_on_c, 0, 61, 97
1, 11390, Note_off_c, 0, 61, 97
1, 11394, Note_on_c, 0, 60, 103
1, 11446, Note_off_c, 0, 60, 103
1, 11454, Note_on_c, 0, 58, 99
1, 11524, Note_off_c, 0, 58, 99
1, 11530, Note_on_c, 0, 57, 99
1, 11582, Note_on_c, 0, 60, 100
1, 11582, Note_off_c, 0, 57, 99
1, 11623, Note_off_c, 0, 60, 100
1, 11627, Note_on_c, 0, 64, 102
1, 11675, Note_off_c, 0, 64, 102
1, 11683, Note_on_c, 0, 67, 118
1, 11772, Note_off_c, 0, 67, 118
1, 11801, Note_on_c, 0, 64, 100
1, 11862, Note_off_c, 0, 64, 100
1, 11867, Note_on_c, 0, 66, 115
1, 11950, Note_off_c, 0, 66, 115
1, 12007, Note_on_c, 0, 76, 86
1, 12037, Note_off_c, 0, 76, 86
1, 12046, Note_on_c, 0, 78, 114
1, 12190, Note_off_c, 0, 78, 114
1, 12199, Note_on_c, 0, 74, 104
1, 12303, Note_off_c, 0, 74, 104
1, 12350, Note_on_c, 0, 70, 110
1, 12448, Note_off_c, 0, 70, 110
1, 12452, Note_on_c, 0, 66, 115
1, 12573, Note_off_c, 0, 66, 115
1, 12859, Note_on_c, 0, 75, 115
1, 12912, Note_off_c, 0, 75, 115
1, 12916, Note_on_c, 0, 76, 115
1, 12980, Note_off_c, 0, 76, 115
1, 12990, Note_on_c, 0, 79, 116
1, 13167, Note_off_c, 0, 79, 116
1, 13182, Note_on_c, 0, 78, 120
1, 13214, Note_off_c, 0, 78, 120
1, 13217, Note_on_c, 0, 77, 106
1, 13300, Note_off_c, 0, 77, 106
1, 13306, Note_on_c, 0, 74, 110
1, 13342, Note_off_c, 0, 74, 110
1, 13348, Note_on_c, 0, 72, 108
1, 13378, Note_off_c, 0, 72, 108
1, 13387, Note_on_c, 0, 69, 113
1, 13410, Note_off_c, 0, 69, 113
1, 13414, Note_on_c, 0, 67, 117
1, 13472, Note_off_c, 0, 67, 117
1, 13481, Note_on_c, 0, 68, 115
1, 13519, Note_off_c, 0, 68, 115
1, 13522, Note_on_c, 0, 69, 115
1, 13577, Note_off_c, 0, 69, 115
1, 13584, Note_on_c, 0, 70, 112
1, 13636, Note_off_c, 0, 70, 112
1, 13654, Note_on_c, 0, 67, 119
1, 13709, Note_off_c, 0, 67, 119
1, 13713, Note_on_c, 0, 66, 116
1, 13740, Note_off_c, 0, 66, 116
1, 13746, Note_on_c, 0, 63, 109
1, 13793, Note_off_c, 0, 63, 109
1, 13796, Note_on_c, 0, 60, 101
1, 13825, Note_off_c, 0, 60, 101
1, 13831, Note_on_c, 0, 58, 106
1, 13888, Note_off_c, 0, 58, 106
1, 13901, Note_on_c, 0, 54, 109
1, 13958, Note_off_c, 0, 54, 109
1, 13961, Note_on_c, 0, 61, 108
1, 14033, Note_off_c, 0, 61, 108
1, 14039, Note_on_c, 0, 59, 103
1, 14124, Note_off_c, 0, 59, 103
1, 14127, Note_on_c, 0, 60, 109
1, 14279, Note_off_c, 0, 60, 109
1, 14285, Note_on_c, 0, 67, 113
1, 14391, Note_off_c, 0, 67, 113
1, 14444, Note_on_c, 0, 60, 93
1, 14485, Note_off_c, 0, 60, 93
1, 14518, Note_on_c, 0, 65, 123
1, 14633, Note_off_c, 0, 65, 123
1, 15261, Note_on_c, 0, 63, 101
1, 15307, Note_off_c, 0, 63, 101
1, 15315, Note_on_c, 0, 65, 117
1, 15365, Note_off_c, 0, 65, 117
1, 15375, Note_on_c, 0, 68, 117
1, 15423, Note_off_c, 0, 68, 117
1, 15429, Note_on_c, 0, 70, 115
1, 15488, Note_off_c, 0, 70, 115
1, 15488, Note_on_c, 0, 72, 117
1, 15549, Note_off_c, 0, 72, 117
1, 15557, Note_on_c, 0, 77, 112
1, 15622, Note_off_c, 0, 77, 112
1, 15628, Note_on_c, 0, 72, 115
1, 15695, Note_off_c, 0, 72, 115
1, 15695, Note_on_c, 0, 71, 120
1, 15747, Note_off_c, 0, 71, 120
1, 15753, Note_on_c, 0, 72, 116
1, 15847, Note_off_c, 0, 72, 116
1, 15851, Note_on_c, 0, 77, 101
1, 15901, Note_off_c, 0, 77, 101
1, 15925, Note_on_c, 0, 70, 113
1, 16021, Note_off_c, 0, 70, 113
1, 16031, Note_on_c, 0, 72, 111
1, 16105, Note_off_c, 0, 72, 111
1, 16124, Note_on_c, 0, 77, 99
1, 16176, Note_off_c, 0, 77, 99
1, 16176, Note_on_c, 0, 70, 118
1, 16246, Note_off_c, 0, 70, 118
1, 16265, Note_on_c, 0, 72, 103
1, 16368, Note_off_c, 0, 72, 103
1, 16394, Note_on_c, 0, 77, 99
1, 16442, Note_off_c, 0, 77, 99
1, 16459, Note_on_c, 0, 70, 119
1, 16540, Note_off_c, 0, 70, 119
1, 16550, Note_on_c, 0, 72, 94
1, 16580, Note_off_c, 0, 72, 94
1, 16621, Note_on_c, 0, 77, 95
1, 16669, Note_off_c, 0, 77, 95
1, 16677, Note_on_c, 0, 70, 116
1, 16755, Note_off_c, 0, 70, 116
1, 16779, Note_on_c, 0, 72, 92
1, 16871, Note_off_c, 0, 72, 92
1, 16901, Note_on_c, 0, 77, 101
1, 16942, Note_off_c, 0, 77, 101
1, 16942, Note_on_c, 0, 70, 112
1, 17003, Note_off_c, 0, 70, 112
1, 17020, Note_on_c, 0, 71, 111
1, 17107, Note_off_c, 0, 71, 111
1, 17573, Note_on_c, 0, 74, 79
1, 17629, Note_off_c, 0, 74, 79
1, 17644, Note_on_c, 0, 70, 116
1, 17738, Note_off_c, 0, 70, 116
1, 17746, Note_on_c, 0, 68, 114
1, 17802, Note_off_c, 0, 68, 114
1, 17808, Note_on_c, 0, 65, 119
1, 17902, Note_off_c, 0, 65, 119
1, 17902, Note_on_c, 0, 63, 112
1, 17950, Note_off_c, 0, 63, 112
1, 17950, Note_on_c, 0, 58, 107
1, 18026, Note_off_c, 0, 58, 107
1, 18199, Note_on_c, 0, 62, 110
1, 18275, Note_off_c, 0, 62, 110
1, 18281, Note_on_c, 0, 60, 111
1, 18364, Note_off_c, 0, 60, 111
1, 18370, Note_on_c, 0, 59, 103
1, 18497, Note_off_c, 0, 59, 103
1, 18512, Note_on_c, 0, 62, 106
1, 18568, Note_off_c, 0, 62, 106
1, 18568, Note_on_c, 0, 68, 118
1, 18666, Note_off_c, 0, 68, 118
1, 18672, Note_on_c, 0, 67, 116
1, 18764, Note_off_c, 0, 67, 116
1, 18768, Note_on_c, 0, 65, 117
1, 18864, Note_off_c, 0, 65, 117
1, 18881, Note_on_c, 0, 63, 109
1, 18933, Note_off_c, 0, 63, 109
1, 18950, Note_on_c, 0, 64, 104
1, 19079, Note_off_c, 0, 64, 104
1, 19135, Note_on_c, 0, 58, 100
1, 19231, Note_off_c, 0, 58, 100
1, 19266, Note_on_c, 0, 62, 107
1, 19329, Note_off_c, 0, 62, 107
1, 19335, Note_on_c, 0, 60, 107
1, 19394, Note_off_c, 0, 60, 107
1, 19394, Note_on_c, 0, 64, 107
1, 19420, Note_off_c, 0, 64, 107
1, 19433, Note_on_c, 0, 60, 105
1, 19463, Note_off_c, 0, 60, 105
1, 19469, Note_on_c, 0, 58, 111
1, 19532, Note_off_c, 0, 58, 111
1, 19532, Note_on_c, 0, 56, 108
1, 19615, Note_off_c, 0, 56, 108
1, 19654, Note_on_c, 0, 61, 102
1, 19721, Note_off_c, 0, 61, 102
1, 19734, Note_on_c, 0, 64, 104
1, 19830, Note_off_c, 0, 64, 104
1, 19838, Note_on_c, 0, 66, 113
1, 19995, Note_off_c, 0, 66, 113
1, 19997, Note_on_c, 0, 63, 96
1, 20091, Note_off_c, 0, 63, 96
1, 20496, Note_on_c, 0, 73, 119
1, 20581, Note_off_c, 0, 73, 119
1, 20690, Note_on_c, 0, 74, 116
1, 20902, Note_off_c, 0, 74, 116
1, 20915, Note_on_c, 0, 76, 96
1, 20956, Note_off_c, 0, 76, 96
1, 20958, Note_on_c, 0, 72, 106
1, 20997, Note_off_c, 0, 72, 106
1, 21005, Note_on_c, 0, 70, 114
1, 21125, Note_off_c, 0, 70, 114
1, 21131, Note_on_c, 0, 73, 110
1, 21181, Note_off_c, 0, 73, 110
1, 21231, Note_on_c, 0, 73, 119
1, 21338, Note_off_c, 0, 73, 119
1, 21344, Note_on_c, 0, 66, 107
1, 21407, Note_off_c, 0, 66, 107
1, 21413, Note_on_c, 0, 70, 114
1, 21505, Note_off_c, 0, 70, 114
1, 21524, Note_on_c, 0, 73, 118
1, 21587, Note_off_c, 0, 73, 118
1, 21589, Note_on_c, 0, 72, 118
1, 21632, Note_off_c, 0, 72, 118
1, 21642, Note_on_c, 0, 73, 119
1, 21685, Note_off_c, 0, 73, 119
1, 21689, Note_on_c, 0, 72, 115
1, 21737, Note_off_c, 0, 72, 115
1, 21752, Note_on_c, 0, 70, 101
1, 21793, Note_off_c, 0, 70, 101
1, 21808, Note_on_c, 0, 69, 114
1, 21911, Note_off_c, 0, 69, 114
1, 21919, Note_on_c, 0, 72, 113
1, 22093, Note_off_c, 0, 72, 113
1, 22142, Note_on_c, 0, 68, 107
1, 22183, Note_off_c, 0, 68, 107
1, 22187, Note_on_c, 0, 69, 116
1, 22281, Note_off_c, 0, 69, 116
1, 22302, Note_on_c, 0, 66, 114
1, 22375, Note_off_c, 0, 66, 114
1, 22390, Note_on_c, 0, 63, 104
1, 22471, Note_off_c, 0, 63, 104
1, 22475, Note_on_c, 0, 60, 102
1, 22525, Note_off_c, 0, 60, 102
1, 22548, Note_on_c, 0, 62, 111
1, 22646, Note_off_c, 0, 62, 111
1, 22655, Note_on_c, 0, 60, 106
1, 22730, Note_off_c, 0, 60, 106
1, 22734, Note_on_c, 0, 58, 104
1, 22821, Note_off_c, 0, 58, 104
1, 22848, Note_on_c, 0, 57, 102
1, 22934, Note_off_c, 0, 57, 102
1, 22943, Note_on_c, 0, 56, 109
1, 22999, Note_off_c, 0, 56, 109
1, 23009, Note_on_c, 0, 59, 94
1, 23055, Note_off_c, 0, 59, 94
1, 23070, Note_on_c, 0, 62, 105
1, 23124, Note_off_c, 0, 62, 105
1, 23124, Note_on_c, 0, 66, 117
1, 23213, Note_off_c, 0, 66, 117
1, 23221, Note_on_c, 0, 70, 114
1, 23286, Note_off_c, 0, 70, 114
1, 23299, Note_on_c, 0, 74, 113
1, 23358, Note_off_c, 0, 74, 113
1, 23364, Note_on_c, 0, 72, 109
1, 23427, Note_off_c, 0, 72, 109
1, 23440, Note_on_c, 0, 66, 111
1, 23516, Note_off_c, 0, 66, 111
1, 23531, Note_on_c, 0, 73, 117
1, 23587, Note_off_c, 0, 73, 117
1, 23587, Note_on_c, 0, 74, 114
1, 23641, Note_off_c, 0, 74, 114
1, 23641, Note_on_c, 0, 72, 102
1, 23684, Note_off_c, 0, 72, 102
1, 23690, Note_on_c, 0, 71, 100
1, 23742, Note_off_c, 0, 71, 100
1, 23750, Note_on_c, 0, 72, 118
1, 23804, Note_off_c, 0, 72, 118
1, 23806, Note_on_c, 0, 75, 111
1, 23854, Note_off_c, 0, 75, 111
1, 23862, Note_on_c, 0, 72, 107
1, 23897, Note_off_c, 0, 72, 107
1, 23903, Note_on_c, 0, 70, 109
1, 23946, Note_off_c, 0, 70, 109
1, 23956, Note_on_c, 0, 67, 111
1, 24015, Note_off_c, 0, 67, 111
1, 24028, Note_on_c, 0, 68, 108
1, 24087, Note_off_c, 0, 68, 108
1, 24100, Note_on_c, 0, 69, 115
1, 24203, Note_off_c, 0, 69, 115
1, 24213, Note_on_c, 0, 65, 114
1, 24296, Note_off_c, 0, 65, 114
1, 24306, Note_on_c, 0, 62, 93
1, 24411, Note_off_c, 0, 62, 93
1, 24506, Note_on_c, 0, 68, 118
1, 24546, Note_off_c, 0, 68, 118
1, 24546, Note_on_c, 0, 67, 115
1, 24589, Note_off_c, 0, 67, 115
1, 24598, Note_on_c, 0, 65, 106
1, 24641, Note_off_c, 0, 65, 106
1, 24653, Note_on_c, 0, 64, 102
1, 24743, Note_off_c, 0, 64, 102
1, 24750, Note_on_c, 0, 62, 100
1, 24825, Note_off_c, 0, 62, 100
1, 24835, Note_on_c, 0, 60, 105
1, 24978, Note_off_c, 0, 60, 105
1, 24984, Note_on_c, 0, 57, 105
1, 25039, Note_off_c, 0, 57, 105
1, 25059, Note_on_c, 0, 59, 91
1, 25108, Note_off_c, 0, 59, 91
1, 25114, Note_on_c, 0, 62, 92
1, 25164, Note_off_c, 0, 62, 92
1, 25170, Note_on_c, 0, 64, 96
1, 25220, Note_off_c, 0, 64, 96
1, 25230, Note_on_c, 0, 67, 116
1, 25340, Note_off_c, 0, 67, 116
1, 25344, Note_on_c, 0, 64, 105
1, 25390, Note_off_c, 0, 64, 105
1, 25402, Note_on_c, 0, 65, 117
1, 25523, Note_off_c, 0, 65, 117
1, 25550, Note_on_c, 0, 67, 109
1, 25605, Note_off_c, 0, 67, 109
1, 25612, Note_on_c, 0, 70, 97
1, 25645, Note_off_c, 0, 70, 97
1, 25657, Note_on_c, 0, 72, 105
1, 25697, Note_off_c, 0, 72, 105
1, 25709, Note_on_c, 0, 74, 116
1, 25738, Note_off_c, 0, 74, 116
1, 25744, Note_on_c, 0, 76, 106
1, 25791, Note_off_c, 0, 76, 106
1, 25829, Note_on_c, 0, 79, 115
1, 26009, Note_off_c, 0, 79, 115
1, 26015, Note_on_c, 0, 77, 109
1, 26065, Note_off_c, 0, 77, 109
1, 26066, Note_on_c, 0, 76, 112
1, 26112, Note_off_c, 0, 76, 112
1, 26124, Note_on_c, 0, 72, 111
1, 26156, Note_off_c, 0, 72, 111
1, 26172, Note_on_c, 0, 69, 106
1, 26216, Note_off_c, 0, 69, 106
1, 26229, Note_on_c, 0, 72, 106
1, 26259, Note_off_c, 0, 72, 106
1, 26269, Note_on_c, 0, 76, 105
1, 26307, Note_off_c, 0, 76, 105
1, 26328, Note_on_c, 0, 79, 113
1, 26463, Note_off_c, 0, 79, 113
1, 26470, Note_on_c, 0, 76, 110
1, 26513, Note_off_c, 0, 76, 110
1, 26523, Note_on_c, 0, 72, 100
1, 26560, Note_off_c, 0, 72, 100
1, 26577, Note_on_c, 0, 68, 106
1, 26675, Note_off_c, 0, 68, 106
1, 26675, Note_on_c, 0, 72, 99
1, 26712, Note_off_c, 0, 72, 99
1, 26716, Note_on_c, 0, 76, 110
1, 26775, Note_off_c, 0, 76, 110
1, 26801, Note_on_c, 0, 79, 119
1, 26912, Note_off_c, 0, 79, 119
1, 26925, Note_on_c, 0, 76, 100
1, 26979, Note_off_c, 0, 76, 100
1, 26981, Note_on_c, 0, 72, 108
1, 27013, Note_off_c, 0, 72, 108
1, 27023, Note_on_c, 0, 68, 109
1, 27093, Note_off_c, 0, 68, 109
1, 27106, Note_on_c, 0, 77, 93
1, 27158, Note_off_c, 0, 77, 93
1, 27177, Note_on_c, 0, 79, 116
1, 27280, Note_off_c, 0, 79, 116
1, 27311, Note_on_c, 0, 75, 103
1, 27352, Note_off_c, 0, 75, 103
1, 27353, Note_on_c, 0, 73, 106
1, 27393, Note_off_c, 0, 73, 106
1, 27396, Note_on_c, 0, 72, 106
1, 27429, Note_off_c, 0, 72, 106
1, 27429, Note_on_c, 0, 67, 106
1, 27487, Note_off_c, 0, 67, 106
1, 27490, Note_on_c, 0, 63, 106
1, 27533, Note_off_c, 0, 63, 106
1, 27544, Note_on_c, 0, 62, 101
1, 27621, Note_off_c, 0, 62, 101
1, 27631, Note_on_c, 0, 63, 99
1, 27661, Note_off_c, 0, 63, 99
1, 27666, Note_on_c, 0, 60, 100
1, 27716, Note_off_c, 0, 60, 100
1, 27771, Note_on_c, 0, 60, 94
1, 27824, Note_on_c, 0, 62, 100
1, 27824, Note_off_c, 0, 60, 94
1, 27874, Note_off_c, 0, 62, 100
1, 27900, Note_on_c, 0, 65, 112
1, 27994, Note_off_c, 0, 65, 112
1, 28483, Note_on_c, 0, 68, 120
1, 28541, Note_off_c, 0, 68, 120
1, 28553, Note_on_c, 0, 70, 120
1, 28580, Note_off_c, 0, 70, 120
1, 28586, Note_on_c, 0, 68, 119
1, 28630, Note_off_c, 0, 68, 119
1, 28633, Note_on_c, 0, 67, 119
1, 28683, Note_off_c, 0, 67, 119
1, 28687, Note_on_c, 0, 66, 124
1, 28744, Note_off_c, 0, 66, 124
1, 28751, Note_on_c, 0, 65, 120
1, 28838, Note_off_c, 0, 65, 120
1, 28848, Note_on_c, 0, 63, 111
1, 28920, Note_off_c, 0, 63, 111
1, 28927, Note_on_c, 0, 60, 113
1, 28984, Note_off_c, 0, 60, 113
1, 28990, Note_on_c, 0, 61, 105
1, 29037, Note_off_c, 0, 61, 105
1, 29049, Note_on_c, 0, 63, 99
1, 29092, Note_off_c, 0, 63, 99
1, 29119, Note_on_c, 0, 66, 107
1, 29167, Note_off_c, 0, 66, 107
1, 29175, Note_on_c, 0, 63, 118
1, 29227, Note_off_c, 0, 63, 118
1, 29237, Note_on_c, 0, 56, 108
1, 29337, Note_off_c, 0, 56, 108
1, 29363, Note_on_c, 0, 59, 113
1, 29413, Note_off_c, 0, 59, 113
1, 29423, Note_on_c, 0, 61, 102
1, 29555, Note_off_c, 0, 61, 102
1, 29562, Note_on_c, 0, 65, 115
1, 29629, Note_off_c, 0, 65, 115
1, 29659, Note_on_c, 0, 71, 110
1, 29729, Note_off_c, 0, 71, 110
1, 29753, Note_on_c, 0, 74, 117
1, 29845, Note_off_c, 0, 74, 117
1, 29864, Note_on_c, 0, 72, 108
1, 29956, Note_off_c, 0, 72, 108
1, 29962, Note_on_c, 0, 71, 108
1, 29994, Note_off_c, 0, 71, 108
1, 30009, Note_on_c, 0, 72, 123
1, 30114, Note_off_c, 0, 72, 123
1, 30129, Note_on_c, 0, 75, 104
1, 30164, Note_off_c, 0, 75, 104
1, 30164, Note_on_c, 0, 72, 115
1, 30218, Note_off_c, 0, 72, 115
1, 30222, Note_on_c, 0, 70, 119
1, 30287, Note_off_c, 0, 70, 119
1, 30313, Note_on_c, 0, 68, 111
1, 30359, Note_off_c, 0, 68, 111
1, 30361, Note_on_c, 0, 67, 113
1, 30457, Note_off_c, 0, 67, 113
1, 30465, Note_on_c, 0, 68, 115
1, 30554, Note_off_c, 0, 68, 115
1, 30578, Note_on_c, 0, 71, 121
1, 30696, Note_off_c, 0, 71, 121
1, 30700, Note_on_c, 0, 73, 114
1, 30770, Note_off_c, 0, 73, 114
1, 30774, Note_on_c, 0, 78, 120
1, 31039, Note_off_c, 0, 78, 120
1, 31046, Note_on_c, 0, 77, 120
1, 31101, Note_off_c, 0, 77, 120
1, 31101, Note_on_c, 0, 76, 113
1, 31162, Note_off_c, 0, 76, 113
1, 31162, Note_on_c, 0, 73, 111
1, 31202, Note_off_c, 0, 73, 111
1, 31202, Note_on_c, 0, 70, 113
1, 31226, Note_on_c, 0, 67, 113
1, 31226, Note_off_c, 0, 70, 113
1, 31287, Note_off_c, 0, 67, 113
1, 31290, Note_on_c, 0, 68, 116
1, 31333, Note_off_c, 0, 68, 116
1, 31345, Note_on_c, 0, 70, 97
1, 31412, Note_off_c, 0, 70, 97
1, 31421, Note_on_c, 0, 73, 107
1, 31467, Note_off_c, 0, 73, 107
1, 31482, Note_on_c, 0, 76, 111
1, 31537, Note_off_c, 0, 76, 111
1, 31546, Note_on_c, 0, 78, 114
1, 31579, Note_off_c, 0, 78, 114
1, 31594, Note_on_c, 0, 79, 123
1, 31791, Note_off_c, 0, 79, 123
1, 31798, Note_on_c, 0, 78, 118
1, 31854, Note_off_c, 0, 78, 118
1, 31860, Note_on_c, 0, 76, 105
1, 31910, Note_off_c, 0, 76, 105
1, 31914, Note_on_c, 0, 73, 108
1, 31953, Note_off_c, 0, 73, 108
1, 31959, Note_on_c, 0, 71, 110
1, 31987, Note_off_c, 0, 71, 110
1, 31987, Note_on_c, 0, 69, 116
1, 32019, Note_off_c, 0, 69, 116
1, 32023, Note_on_c, 0, 68, 113
1, 32075, Note_off_c, 0, 68, 113
1, 32075, Note_on_c, 0, 70, 109
1, 32101, Note_off_c, 0, 70, 109
1, 32101, Note_on_c, 0, 73, 107
1, 32127, Note_off_c, 0, 73, 107
1, 32135, Note_on_c, 0, 77, 117
1, 32178, Note_off_c, 0, 77, 117
1, 32188, Note_on_c, 0, 79, 117
1, 32365, Note_off_c, 0, 79, 117
1, 32378, Note_on_c, 0, 80, 118
1, 32452, Note_off_c, 0, 80, 118
1, 32473, Note_on_c, 0, 81, 113
1, 32731, Note_off_c, 0, 81, 113
1, 32748, Note_on_c, 0, 77, 111
1, 32796, Note_off_c, 0, 77, 111
1, 32802, Note_on_c, 0, 76, 104
1, 32837, Note_off_c, 0, 76, 104
1, 32843, Note_on_c, 0, 73, 97
1, 32871, Note_off_c, 0, 73, 97
1, 32871, Note_on_c, 0, 70, 100
1, 32903, Note_off_c, 0, 70, 100
1, 32912, Note_on_c, 0, 68, 113
1, 32938, Note_off_c, 0, 68, 113
1, 32941, Note_on_c, 0, 67, 113
1, 32969, Note_off_c, 0, 67, 113
1, 32972, Note_on_c, 0, 65, 112
1, 32991, Note_off_c, 0, 65, 112
1, 32998, Note_on_c, 0, 63, 102
1, 33022, Note_off_c, 0, 63, 102
1, 33026, Note_on_c, 0, 60, 95
1, 33067, Note_off_c, 0, 60, 95
1, 33074, Note_on_c, 0, 59, 105
1, 33105, Note_off_c, 0, 59, 105
1, 33109, Note_on_c, 0, 58, 105
1, 33130, Note_off_c, 0, 58, 105
1, 33130, Note_on_c, 0, 57, 112
1, 33178, Note_off_c, 0, 57, 112
1, 33193, Note_on_c, 0, 60, 97
1, 33221, Note_off_c, 0, 60, 97
1, 33221, Note_on_c, 0, 63, 108
1, 33249, Note_off_c, 0, 63, 108
1, 33255, Note_on_c, 0, 66, 116
1, 33290, Note_off_c, 0, 66, 116
1, 33303, Note_on_c, 0, 67, 120
1, 33388, Note_off_c, 0, 67, 120
1, 33653, Note_on_c, 0, 73, 120
1, 33740, Note_off_c, 0, 73, 120
1, 33750, Note_on_c, 0, 69, 111
1, 33842, Note_off_c, 0, 69, 111
1, 33846, Note_on_c, 0, 66, 121
1, 33933, Note_off_c, 0, 66, 121
1, 33937, Note_on_c, 0, 62, 113
1, 34018, Note_off_c, 0, 62, 113
1, 34024, Note_on_c, 0, 58, 103
1, 34102, Note_off_c, 0, 58, 103
1, 34117, Note_on_c, 0, 54, 106
1, 34191, Note_off_c, 0, 54, 106
1, 34201, Note_on_c, 0, 62, 114
1, 34310, Note_off_c, 0, 62, 114
1, 34320, Note_on_c, 0, 59, 105
1, 34381, Note_off_c, 0, 59, 105
1, 34385, Note_on_c, 0, 60, 112
1, 34498, Note_off_c, 0, 60, 112
1, 34506, Note_on_c, 0, 58, 115
1, 34554, Note_off_c, 0, 58, 115
1, 34560, Note_on_c, 0, 57, 110
1, 34616, Note_off_c, 0, 57, 110
1, 34622, Note_on_c, 0, 60, 108
1, 34663, Note_off_c, 0, 60, 108
1, 34684, Note_on_c, 0, 64, 107
1, 34730, Note_off_c, 0, 64, 107
1, 34738, Note_on_c, 0, 67, 118
1, 34862, Note_off_c, 0, 67, 118
1, 34870, Note_on_c, 0, 74, 120
1, 34940, Note_off_c, 0, 74, 120
1, 34950, Note_on_c, 0, 76, 116
1, 34993, Note_off_c, 0, 76, 116
1, 34997, Note_on_c, 0, 74, 114
1, 35040, Note_off_c, 0, 74, 114
1, 35064, Note_on_c, 0, 76, 104
1, 35123, Note_off_c, 0, 76, 104
1, 35162, Note_on_c, 0, 76, 119
1, 35322, Note_off_c, 0, 76, 119
1, 35359, Note_on_c, 0, 79, 109
1, 35488, Note_off_c, 0, 79, 109
1, 36117, Note_on_c, 0, 79, 127
1, 36220, Note_off_c, 0, 79, 127
1, 36230, Note_on_c, 0, 77, 119
1, 36293, Note_off_c, 0, 77, 119
1, 36330, Note_on_c, 0, 76, 112
1, 36376, Note_off_c, 0, 76, 112
1, 36376, Note_on_c, 0, 69, 115
1, 36435, Note_off_c, 0, 69, 115
1, 36460, Note_on_c, 0, 75, 121
1, 36591, Note_off_c, 0, 75, 121
1, 36600, Note_on_c, 0, 76, 118
1, 36854, Note_off_c, 0, 76, 118
1, 36858, Note_on_c, 0, 74, 108
1, 36893, Note_off_c, 0, 74, 108
1, 36906, Note_on_c, 0, 72, 122
1, 36941, Note_off_c, 0, 72, 122
1, 36947, Note_on_c, 0, 70, 115
1, 36982, Note_off_c, 0, 70, 115
1, 36984, Note_on_c, 0, 69, 113
1, 37047, Note_off_c, 0, 69, 113
1, 37064, Note_on_c, 0, 71, 94
1, 37103, Note_off_c, 0, 71, 94
1, 37122, Note_on_c, 0, 75, 98
1, 37204, Note_off_c, 0, 75, 98
1, 37205, Note_on_c, 0, 76, 116
1, 37268, Note_off_c, 0, 76, 116
1, 37272, Note_on_c, 0, 74, 114
1, 37318, Note_off_c, 0, 74, 114
1, 37322, Note_on_c, 0, 72, 117
1, 37363, Note_off_c, 0, 72, 117
1, 37378, Note_on_c, 0, 67, 116
1, 37421, Note_off_c, 0, 67, 116
1, 37440, Note_on_c, 0, 69, 115
1, 37479, Note_off_c, 0, 69, 115
1, 37503, Note_on_c, 0, 72, 108
1, 37559, Note_off_c, 0, 72, 108
1, 37567, Note_on_c, 0, 77, 116
1, 37786, Note_off_c, 0, 77, 116
1, 37814, Note_on_c, 0, 75, 116
1, 37895, Note_off_c, 0, 75, 116
1, 37910, Note_on_c, 0, 74, 110
1, 37942, Note_off_c, 0, 74, 110
1, 37946, Note_on_c, 0, 72, 109
1, 37983, Note_off_c, 0, 72, 109
1, 37987, Note_on_c, 0, 68, 114
1, 38050, Note_off_c, 0, 68, 114
1, 38050, Note_on_c, 0, 66, 113
1, 38087, Note_off_c, 0, 66, 113
1, 38091, Note_on_c, 0, 64, 108
1, 38117, Note_off_c, 0, 64, 108
1, 38125, Note_on_c, 0, 62, 98
1, 38155, Note_off_c, 0, 62, 98
1, 38157, Note_on_c, 0, 61, 104
1, 38189, Note_off_c, 0, 61, 104
1, 38195, Note_on_c, 0, 60, 112
1, 38254, Note_off_c, 0, 60, 112
1, 38262, Note_on_c, 0, 58, 104
1, 38310, Note_off_c, 0, 58, 104
1, 38329, Note_on_c, 0, 55, 103
1, 38396, Note_off_c, 0, 55, 103
1, 38411, Note_on_c, 0, 60, 107
1, 38459, Note_off_c, 0, 60, 107
1, 38465, Note_on_c, 0, 63, 105
1, 38511, Note_off_c, 0, 63, 105
1, 38519, Note_on_c, 0, 67, 118
1, 38600, Note_off_c, 0, 67, 118
1, 38602, Note_on_c, 0, 65, 119
1, 38700, Note_off_c, 0, 65, 119
1, 39123, Note_on_c, 0, 68, 119
1, 39197, Note_off_c, 0, 68, 119
1, 39225, Note_on_c, 0, 71, 118
1, 39268, Note_off_c, 0, 71, 118
1, 39272, Note_on_c, 0, 68, 116
1, 39342, Note_off_c, 0, 68, 116
1, 39352, Note_on_c, 0, 71, 110
1, 39387, Note_off_c, 0, 71, 110
1, 39400, Note_on_c, 0, 68, 114
1, 39450, Note_off_c, 0, 68, 114
1, 39465, Note_on_c, 0, 71, 116
1, 39504, Note_off_c, 0, 71, 116
1, 39510, Note_on_c, 0, 68, 114
1, 39545, Note_off_c, 0, 68, 114
1, 39553, Note_on_c, 0, 71, 113
1, 39579, Note_off_c, 0, 71, 113
1, 39596, Note_on_c, 0, 68, 116
1, 39644, Note_off_c, 0, 68, 116
1, 39659, Note_on_c, 0, 69, 117
1, 39731, Note_off_c, 0, 69, 117
1, 39735, Note_on_c, 0, 71, 114
1, 39783, Note_off_c, 0, 71, 114
1, 39785, Note_on_c, 0, 69, 112
1, 39839, Note_off_c, 0, 69, 112
1, 39849, Note_on_c, 0, 71, 115
1, 39868, Note_off_c, 0, 71, 115
1, 39874, Note_on_c, 0, 69, 113
1, 39913, Note_off_c, 0, 69, 113
1, 39921, Note_on_c, 0, 71, 117
1, 39947, Note_off_c, 0, 71, 117
1, 39955, Note_on_c, 0, 69, 107
1, 40016, Note_off_c, 0, 69, 107
1, 40044, Note_on_c, 0, 70, 112
1, 40125, Note_off_c, 0, 70, 112
1, 40131, Note_on_c, 0, 69, 108
1, 40168, Note_off_c, 0, 69, 108
1, 40181, Note_on_c, 0, 68, 116
1, 40229, Note_off_c, 0, 68, 116
1, 40229, Note_on_c, 0, 72, 112
1, 40281, Note_off_c, 0, 72, 112
1, 40289, Note_on_c, 0, 70, 114
1, 40376, Note_off_c, 0, 70, 114
1, 40386, Note_on_c, 0, 72, 106
1, 40418, Note_off_c, 0, 72, 106
1, 40428, Note_on_c, 0, 71, 121
1, 40539, Note_off_c, 0, 71, 121
1, 40549, Note_on_c, 0, 72, 113
1, 40599, Note_off_c, 0, 72, 113
1, 40612, Note_on_c, 0, 71, 115
1, 40664, Note_off_c, 0, 71, 115
1, 40668, Note_on_c, 0, 72, 108
1, 40696, Note_off_c, 0, 72, 108
1, 40704, Note_on_c, 0, 71, 113
1, 40741, Note_off_c, 0, 71, 113
1, 40751, Note_on_c, 0, 72, 105
1, 40799, Note_off_c, 0, 72, 105
1, 40834, Note_on_c, 0, 72, 124
1, 40882, Note_off_c, 0, 72, 124
1, 40917, Note_on_c, 0, 73, 119
1, 40991, Note_off_c, 0, 73, 119
1, 41006, Note_on_c, 0, 70, 116
1, 41098, Note_off_c, 0, 70, 116
1, 41124, Note_on_c, 0, 66, 116
1, 41211, Note_off_c, 0, 66, 116
1, 41215, Note_on_c, 0, 61, 106
1, 41280, Note_off_c, 0, 61, 106
1, 41295, Note_on_c, 0, 58, 97
1, 41360, Note_off_c, 0, 58, 97
1, 41364, Note_on_c, 0, 62, 108
1, 41475, Note_off_c, 0, 62, 108
1, 41477, Note_on_c, 0, 59, 103
1, 41523, Note_off_c, 0, 59, 103
1, 41540, Note_on_c, 0, 60, 118
1, 41607, Note_off_c, 0, 60, 118
1, 41617, Note_on_c, 0, 64, 109
1, 41671, Note_off_c, 0, 64, 109
1, 41679, Note_on_c, 0, 60, 107
1, 41729, Note_off_c, 0, 60, 107
1, 41733, Note_on_c, 0, 57, 117
1, 41779, Note_off_c, 0, 57, 117
1, 41803, Note_on_c, 0, 63, 97
1, 41884, Note_off_c, 0, 63, 97
1, 41894, Note_on_c, 0, 69, 106
1, 41955, Note_off_c, 0, 69, 106
1, 41987, Note_on_c, 0, 70, 114
1, 42057, Note_off_c, 0, 70, 114
1, 42063, Note_on_c, 0, 66, 120
1, 42133, Note_off_c, 0, 66, 120
1, 42146, Note_on_c, 0, 67, 117
1, 42240, Note_off_c, 0, 67, 117
1, 42246, Note_on_c, 0, 69, 110
1, 42322, Note_off_c, 0, 69, 110
1, 42324, Note_on_c, 0, 70, 115
1, 42394, Note_off_c, 0, 70, 115
1, 42418, Note_on_c, 0, 72, 117
1, 42494, Note_off_c, 0, 72, 117
1, 42509, Note_on_c, 0, 74, 114
1, 42609, Note_off_c, 0, 74, 114
1, 42633, Note_on_c, 0, 71, 115
1, 42681, Note_off_c, 0, 71, 115
1, 42685, Note_on_c, 0, 73, 119
1, 42792, Note_off_c, 0, 73, 119
1, 42807, Note_on_c, 0, 70, 111
1, 42894, Note_off_c, 0, 70, 111
1, 42900, Note_on_c, 0, 66, 113
1, 43005, Note_off_c, 0, 66, 113
1, 43022, Note_on_c, 0, 63, 99
1, 43081, Note_off_c, 0, 63, 99
1, 43081, Note_on_c, 0, 69, 109
1, 43131, Note_off_c, 0, 69, 109
1, 43133, Note_on_c, 0, 70, 116
1, 43154, Note_off_c, 0, 70, 116
1, 43158, Note_on_c, 0, 69, 114
1, 43199, Note_off_c, 0, 69, 114
1, 43212, Note_on_c, 0, 66, 117
1, 43273, Note_off_c, 0, 66, 117
1, 43279, Note_on_c, 0, 67, 117
1, 43403, Note_off_c, 0, 67, 117
1, 43411, Note_on_c, 0, 69, 114
1, 43514, Note_off_c, 0, 69, 114
1, 43516, Note_on_c, 0, 70, 110
1, 43586, Note_off_c, 0, 70, 110
1, 43614, Note_on_c, 0, 72, 106
1, 43681, Note_off_c, 0, 72, 106
1, 43687, Note_on_c, 0, 74, 117
1, 43763, Note_off_c, 0, 74, 117
1, 43778, Note_on_c, 0, 71, 115
1, 43845, Note_off_c, 0, 71, 115
1, 43873, Note_on_c, 0, 72, 117
1, 43921, Note_off_c, 0, 72, 117
1, 43929, Note_on_c, 0, 74, 117
1, 43964, Note_off_c, 0, 74, 117
1, 43970, Note_on_c, 0, 70, 107
1, 44059, Note_off_c, 0, 70, 107
1, 44080, Note_on_c, 0, 66, 115
1, 44165, Note_off_c, 0, 66, 115
1, 44173, Note_on_c, 0, 62, 105
1, 44265, Note_off_c, 0, 62, 105
1, 44273, Note_on_c, 0, 58, 106
1, 44360, Note_off_c, 0, 58, 106
1, 44373, Note_on_c, 0, 55, 111
1, 44434, Note_off_c, 0, 55, 111
1, 44440, Note_on_c, 0, 62, 111
1, 44532, Note_off_c, 0, 62, 111
1, 44538, Note_on_c, 0, 59, 103
1, 44584, Note_off_c, 0, 59, 103
1, 44586, Note_on_c, 0, 60, 109
1, 44634, Note_off_c, 0, 60, 109
1, 44647, Note_on_c, 0, 62, 102
1, 44701, Note_off_c, 0, 62, 102
1, 44707, Note_on_c, 0, 60, 105
1, 44774, Note_off_c, 0, 60, 105
1, 44782, Note_on_c, 0, 57, 9
1, 44852, Note_off_c, 0, 57, 9
1, 44858, Note_on_c, 0, 60, 101
1, 44908, Note_off_c, 0, 60, 101
1, 44929, Note_on_c, 0, 64, 106
1, 44970, Note_off_c, 0, 64, 106
1, 44970, Note_on_c, 0, 67, 119
1, 45092, Note_off_c, 0, 67, 119
1, 45102, Note_on_c, 0, 64, 112
1, 45148, Note_off_c, 0, 64, 112
1, 45151, Note_on_c, 0, 65, 123
1, 45286, Note_off_c, 0, 65, 123
1, 45286, Note_on_c, 0, 67, 116
1, 45372, Note_off_c, 0, 67, 116
1, 45546, Note_on_c, 0, 72, 126
1, 45642, Note_off_c, 0, 72, 126
1, 45642, Note_on_c, 0, 75, 116
1, 45681, Note_off_c, 0, 75, 116
1, 45681, Note_on_c, 0, 72, 104
1, 45700, Note_off_c, 0, 72, 104
1, 45713, Note_on_c, 0, 70, 120
1, 45759, Note_off_c, 0, 70, 120
1, 45767, Note_on_c, 0, 69, 119
1, 45877, Note_off_c, 0, 69, 119
1, 45877, Note_on_c, 0, 65, 117
1, 45984, Note_off_c, 0, 65, 117
1, 45984, Note_on_c, 0, 61, 111
1, 46036, Note_off_c, 0, 61, 111
1, 46048, Note_on_c, 0, 58, 106
1, 46125, Note_off_c, 0, 58, 106
1, 46143, Note_on_c, 0, 67, 120
1, 46312, Note_off_c, 0, 67, 120
1, 46324, Note_on_c, 0, 64, 103
1, 46512, Note_off_c, 0, 64, 103
1, 46545, Note_on_c, 0, 67, 119
1, 46652, Note_off_c, 0, 67, 119
1, 46670, Note_on_c, 0, 64, 101
1, 46928, Note_off_c, 0, 64, 101
1, 46928, End_track
0, 0, End_of_file
