0, 0, Header, 1, 1, 20160
1, 0, Start_track
1, 0, Note_on_c, 0, 69, 112
1, 1720, Note_off_c, 0, 69, 112
1, 1720, Note_on_c, 0, 67, 106
1, 2825, Note_off_c, 0, 67, 106
1, 3193, Note_on_c, 0, 68, 110
1, 4421, Note_off_c, 0, 68, 110
1, 4543, Note_on_c, 0, 69, 103
1, 6631, Note_off_c, 0, 69, 103
1, 6753, Note_on_c, 0, 70, 92
1, 8841, Note_off_c, 0, 70, 92
1, 9455, Note_on_c, 0, 71, 78
1, 11421, Note_off_c, 0, 71, 78
1, 13264, Note_on_c, 0, 75, 109
1, 16458, Note_off_c, 0, 75, 109
1, 16703, Note_on_c, 0, 76, 108
1, 32431, Note_off_c, 0, 76, 108
1, 34151, Note_on_c, 0, 74, 106
1, 35748, Note_off_c, 0, 74, 106
1, 35870, Note_on_c, 0, 76, 104
1, 38204, Note_off_c, 0, 76, 104
1, 38818, Note_on_c, 0, 74, 105
1, 40784, Note_off_c, 0, 74, 105
1, 41152, Note_on_c, 0, 72, 105
1, 43732, Note_off_c, 0, 72, 105
1, 43732, Note_on_c, 0, 71, 100
1, 44999, Note_on_c, 0, 69, 97
1, 44999, Note_off_c, 0, 71, 100
1, 46596, Note_off_c, 0, 69, 97
1, 47417, Note_on_c, 0, 67, 109
1, 50366, Note_off_c, 0, 67, 109
1, 50488, Note_on_c, 0, 66, 113
1, 52208, Note_off_c, 0, 66, 113
1, 52945, Note_on_c, 0, 64, 94
1, 55771, Note_off_c, 0, 64, 94
1, 58474, Note_on_c, 0, 62, 100
1, 60562, Note_off_c, 0, 62, 100
1, 60562, Note_on_c, 0, 59, 97
1, 62405, Note_off_c, 0, 59, 97
1, 62650, Note_on_c, 0, 61, 95
1, 65230, Note_off_c, 0, 61, 95
1, 65475, Note_on_c, 0, 59, 91
1, 67195, Note_off_c, 0, 59, 91
1, 71618, Note_on_c, 0, 55, 101
1, 74444, Note_off_c, 0, 55, 101
1, 74444, Note_on_c, 0, 56, 94
1, 80710, Note_off_c, 0, 56, 94
1, 82184, Note_on_c, 0, 63, 111
1, 83658, Note_off_c, 0, 63, 111
1, 84272, Note_on_c, 0, 67, 119
1, 85500, Note_off_c, 0, 67, 119
1, 85745, Note_on_c, 0, 68, 116
1, 93732, Note_off_c, 0, 68, 116
1, 94223, Note_on_c, 0, 71, 114
1, 98523, Note_off_c, 0, 71, 114
1, 99751, Note_on_c, 0, 69, 102
1, 103683, Note_off_c, 0, 69, 102
1, 104420, Note_on_c, 0, 61, 101
1, 105648, Note_off_c, 0, 61, 101
1, 106508, Note_on_c, 0, 62, 97
1, 111177, Note_off_c, 0, 62, 97
1, 111177, Note_on_c, 0, 66, 92
1, 142388, Note_off_c, 0, 66, 92
1, 155536, Note_on_c, 0, 72, 118
1, 157993, Note_off_c, 0, 72, 118
1, 157993, Note_on_c, 0, 75, 117
1, 160819, Note_off_c, 0, 75, 117
1, 160819, Note_on_c, 0, 74, 109
1, 162785, Note_off_c, 0, 74, 109
1, 162785, Note_on_c, 0, 72, 119
1, 164996, Note_off_c, 0, 72, 119
1, 165241, Note_on_c, 0, 70, 112
1, 167084, Note_off_c, 0, 70, 112
1, 167329, Note_on_c, 0, 68, 114
1, 169786, Note_off_c, 0, 68, 114
1, 170031, Note_on_c, 0, 65, 113
1, 172488, Note_off_c, 0, 65, 113
1, 172762, Note_on_c, 0, 60, 96
1, 178982, Note_off_c, 0, 60, 96
1, 179327, Note_on_c, 0, 63, 105
1, 182437, Note_off_c, 0, 63, 105
1, 182807, Note_on_c, 0, 60, 102
1, 184281, Note_off_c, 0, 60, 102
1, 184895, Note_on_c, 0, 61, 103
1, 187966, Note_off_c, 0, 61, 103
1, 191775, Note_on_c, 0, 60, 102
1, 193249, Note_off_c, 0, 60, 102
1, 193249, Note_on_c, 0, 63, 111
1, 195460, Note_off_c, 0, 63, 111
1, 196074, Note_on_c, 0, 64, 113
1, 208607, Note_off_c, 0, 64, 113
1, 208607, Note_on_c, 0, 60, 96
1, 210573, Note_off_c, 0, 60, 96
1, 210695, Note_on_c, 0, 61, 99
1, 212415, Note_off_c, 0, 61, 99
1, 212783, Note_on_c, 0, 63, 93
1, 215363, Note_off_c, 0, 63, 93
1, 215485, Note_on_c, 0, 60, 98
1, 217328, Note_off_c, 0, 60, 98
1, 217573, Note_on_c, 0, 61, 99
1, 218678, Note_off_c, 0, 61, 99
1, 218800, Note_on_c, 0, 63, 98
1, 221011, Note_off_c, 0, 63, 98
1, 221563, Note_on_c, 0, 66, 103
1, 226785, Note_off_c, 0, 66, 103
1, 226785, Note_on_c, 0, 75, 123
1, 231577, Note_on_c, 0, 72, 114
1, 231577, Note_off_c, 0, 75, 123
1, 233665, Note_off_c, 0, 72, 114
1, 234156, Note_on_c, 0, 73, 108
1, 236244, Note_off_c, 0, 73, 108
1, 236244, Note_on_c, 0, 75, 107
1, 239561, Note_off_c, 0, 75, 107
1, 239561, Note_on_c, 0, 73, 111
1, 241158, Note_off_c, 0, 73, 111
1, 241158, Note_on_c, 0, 72, 109
1, 242141, Note_off_c, 0, 72, 109
1, 242141, Note_on_c, 0, 70, 112
1, 244229, Note_off_c, 0, 70, 112
1, 244229, Note_on_c, 0, 68, 114
1, 247546, Note_off_c, 0, 68, 114
1, 247736, Note_on_c, 0, 65, 103
1, 250126, Note_off_c, 0, 65, 103
1, 250126, Note_on_c, 0, 60, 89
1, 251723, Note_off_c, 0, 60, 89
1, 251968, Note_on_c, 0, 61, 95
1, 254179, Note_off_c, 0, 61, 95
1, 254424, Note_on_c, 0, 63, 102
1, 257496, Note_off_c, 0, 63, 102
1, 257496, Note_on_c, 0, 60, 95
1, 259584, Note_off_c, 0, 60, 95
1, 259584, Note_on_c, 0, 61, 93
1, 262287, Note_off_c, 0, 61, 93
1, 263270, Note_on_c, 0, 52, 93
1, 264990, Note_off_c, 0, 52, 93
1, 265604, Note_on_c, 0, 51, 90
1, 272362, Note_off_c, 0, 51, 90
1, 278014, Note_on_c, 0, 52, 91
1, 291039, Note_off_c, 0, 52, 91
1, 317335, Note_on_c, 0, 58, 98
1, 320529, Note_off_c, 0, 58, 98
1, 320774, Note_on_c, 0, 59, 90
1, 322740, Note_off_c, 0, 59, 90
1, 322862, Note_on_c, 0, 61, 100
1, 325934, Note_off_c, 0, 61, 100
1, 325934, Note_on_c, 0, 59, 87
1, 328022, Note_off_c, 0, 59, 87
1, 328636, Note_on_c, 0, 60, 79
1, 330356, Note_on_c, 0, 63, 72
1, 330356, Note_off_c, 0, 60, 79
1, 333059, Note_off_c, 0, 63, 72
1, 333059, Note_on_c, 0, 66, 120
1, 336622, Note_off_c, 0, 66, 120
1, 336867, Note_on_c, 0, 63, 102
1, 339078, Note_off_c, 0, 63, 102
1, 339815, Note_on_c, 0, 64, 97
1, 342149, Note_on_c, 0, 66, 98
1, 342149, Note_off_c, 0, 64, 97
1, 344237, Note_on_c, 0, 70, 107
1, 344237, Note_off_c, 0, 66, 98
1, 345465, Note_off_c, 0, 70, 107
1, 345833, Note_on_c, 0, 71, 115
1, 356032, Note_off_c, 0, 71, 115
1, 356523, Note_on_c, 0, 69, 97
1, 358366, Note_on_c, 0, 67, 99
1, 358366, Note_off_c, 0, 69, 97
1, 360700, Note_on_c, 0, 68, 99
1, 360700, Note_off_c, 0, 67, 99
1, 362420, Note_off_c, 0, 68, 99
1, 362420, Note_on_c, 0, 71, 89
1, 363771, Note_off_c, 0, 71, 89
1, 364139, Note_on_c, 0, 74, 92
1, 365490, Note_off_c, 0, 74, 92
1, 365981, Note_on_c, 0, 76, 116
1, 368438, Note_off_c, 0, 76, 116
1, 368438, Note_on_c, 0, 77, 115
1, 376425, Note_off_c, 0, 77, 115
1, 376670, Note_on_c, 0, 76, 117
1, 377653, Note_off_c, 0, 76, 117
1, 379004, Note_on_c, 0, 75, 108
1, 380970, Note_off_c, 0, 75, 108
1, 381338, Note_on_c, 0, 74, 111
1, 382566, Note_on_c, 0, 72, 116
1, 382566, Note_off_c, 0, 74, 111
1, 384040, Note_off_c, 0, 72, 116
1, 384531, Note_on_c, 0, 71, 114
1, 386988, Note_off_c, 0, 71, 114
1, 386988, Note_on_c, 0, 69, 102
1, 388954, Note_off_c, 0, 69, 102
1, 389664, Note_on_c, 0, 67, 106
1, 390787, Note_off_c, 0, 67, 106
1, 391042, Note_on_c, 0, 68, 108
1, 393622, Note_off_c, 0, 68, 108
1, 415617, Note_on_c, 0, 70, 113
1, 418074, Note_on_c, 0, 66, 109
1, 418074, Note_off_c, 0, 70, 113
1, 420654, Note_on_c, 0, 63, 103
1, 420654, Note_off_c, 0, 66, 109
1, 423357, Note_off_c, 0, 63, 103
1, 423357, Note_on_c, 0, 58, 98
1, 425445, Note_on_c, 0, 61, 106
1, 425445, Note_off_c, 0, 58, 98
1, 428394, Note_off_c, 0, 61, 106
1, 428394, Note_on_c, 0, 63, 98
1, 430237, Note_off_c, 0, 63, 98
1, 430237, Note_on_c, 0, 58, 96
1, 432817, Note_off_c, 0, 58, 96
1, 433062, Note_on_c, 0, 57, 102
1, 435150, Note_off_c, 0, 57, 102
1, 435518, Note_on_c, 0, 56, 98
1, 443136, Note_off_c, 0, 56, 98
1, 454120, Title_t, "Melody"
1, 454120, Tempo, 952380
1, 454120, Key_signature, 0, "major"
1, 454120, Time_signature, 4, 2, 24, 8
1, 470783, Note_on_c, 0, 60, 86
1, 473117, Note_off_c, 0, 60, 86
1, 473485, Note_on_c, 0, 61, 104
1, 474222, Note_on_c, 0, 62, 105
1, 474222, Note_off_c, 0, 61, 104
1, 474959, Note_off_c, 0, 62, 105
1, 474959, Note_on_c, 0, 63, 110
1, 476556, Note_on_c, 0, 65, 106
1, 476556, Note_off_c, 0, 63, 110
1, 477784, Note_off_c, 0, 65, 106
1, 478029, Note_on_c, 0, 67, 108
1, 479749, Note_on_c, 0, 68, 100
1, 479749, Note_off_c, 0, 67, 108
1, 481223, Note_off_c, 0, 68, 100
1, 481223, Note_on_c, 0, 70, 90
1, 482083, Note_off_c, 0, 70, 90
1, 482820, Note_on_c, 0, 73, 89
1, 483434, Note_off_c, 0, 73, 89
1, 484048, Note_on_c, 0, 76, 115
1, 486997, Note_off_c, 0, 76, 115
1, 486997, Note_on_c, 0, 79, 110
1, 489454, Note_off_c, 0, 79, 110
1, 489699, Note_on_c, 0, 78, 102
1, 491542, Note_on_c, 0, 75, 76
1, 491542, Note_off_c, 0, 78, 102
1, 493508, Note_off_c, 0, 75, 76
1, 493630, Note_on_c, 0, 76, 110
1, 496824, Note_off_c, 0, 76, 110
1, 497315, Note_on_c, 0, 74, 105
1, 499035, Note_off_c, 0, 74, 105
1, 499035, Note_on_c, 0, 73, 105
1, 502967, Note_off_c, 0, 73, 105
1, 513288, Note_on_c, 0, 73, 93
1, 515376, Note_off_c, 0, 73, 93
1, 515614, Note_on_c, 0, 74, 113
1, 517082, Note_off_c, 0, 74, 113
1, 517095, Note_on_c, 0, 75, 112
1, 519798, Note_off_c, 0, 75, 112
1, 520043, Note_on_c, 0, 79, 120
1, 523115, Note_off_c, 0, 79, 120
1, 523237, Note_on_c, 0, 80, 111
1, 527414, Note_off_c, 0, 80, 111
1, 527536, Note_on_c, 0, 78, 109
1, 530239, Note_off_c, 0, 78, 109
1, 530730, Note_on_c, 0, 75, 110
1, 533433, Note_off_c, 0, 75, 110
1, 533678, Note_on_c, 0, 72, 109
1, 535766, Note_off_c, 0, 72, 109
1, 535766, Note_on_c, 0, 73, 100
1, 537117, Note_off_c, 0, 73, 100
1, 537731, Note_on_c, 0, 74, 106
1, 540680, Note_off_c, 0, 74, 106
1, 541294, Note_on_c, 0, 70, 114
1, 543628, Note_off_c, 0, 70, 114
1, 543873, Note_on_c, 0, 66, 119
1, 545839, Note_off_c, 0, 66, 119
1, 546207, Note_on_c, 0, 63, 106
1, 548541, Note_on_c, 0, 58, 102
1, 548541, Note_off_c, 0, 63, 106
1, 550998, Note_off_c, 0, 58, 102
1, 551735, Note_on_c, 0, 54, 92
1, 553332, Note_off_c, 0, 54, 92
1, 553332, Note_on_c, 0, 61, 116
1, 557509, Note_on_c, 0, 58, 98
1, 557509, Note_off_c, 0, 61, 116
1, 559352, Note_off_c, 0, 58, 98
1, 560089, Note_on_c, 0, 60, 108
1, 561072, Note_off_c, 0, 60, 108
1, 562300, Note_on_c, 0, 63, 94
1, 563651, Note_off_c, 0, 63, 94
1, 563651, Note_on_c, 0, 67, 88
1, 565125, Note_on_c, 0, 69, 106
1, 565125, Note_off_c, 0, 67, 88
1, 566845, Note_off_c, 0, 69, 106
1, 567459, Note_on_c, 0, 70, 108
1, 581835, Note_off_c, 0, 70, 108
1, 582449, Note_on_c, 0, 69, 108
1, 583923, Note_off_c, 0, 69, 108
1, 584045, Note_on_c, 0, 70, 113
1, 585150, Note_off_c, 0, 70, 113
1, 585518, Note_on_c, 0, 69, 110
1, 587115, Note_off_c, 0, 69, 110
1, 587115, Note_on_c, 0, 67, 113
1, 589695, Note_off_c, 0, 67, 113
1, 589940, Note_on_c, 0, 68, 114
1, 592274, Note_off_c, 0, 68, 114
1, 592888, Note_on_c, 0, 70, 105
1, 594485, Note_off_c, 0, 70, 105
1, 594730, Note_on_c, 0, 71, 101
1, 596081, Note_off_c, 0, 71, 101
1, 596081, Note_on_c, 0, 73, 92
1, 597555, Note_off_c, 0, 73, 92
1, 598369, Note_on_c, 0, 74, 103
1, 599259, Note_off_c, 0, 74, 103
1, 599274, Note_on_c, 0, 75, 114
1, 601854, Note_off_c, 0, 75, 114
1, 601976, Note_on_c, 0, 78, 117
1, 609103, Note_off_c, 0, 78, 117
1, 609348, Note_on_c, 0, 77, 110
1, 610822, Note_off_c, 0, 77, 110
1, 611190, Note_on_c, 0, 76, 110
1, 612418, Note_off_c, 0, 76, 110
1, 612564, Note_on_c, 0, 75, 109
1, 613773, Note_off_c, 0, 75, 109
1, 613902, Note_on_c, 0, 74, 104
1, 615673, Note_off_c, 0, 74, 104
1, 615733, Note_on_c, 0, 72, 98
1, 616716, Note_off_c, 0, 72, 98
1, 617330, Note_on_c, 0, 68, 112
1, 619418, Note_off_c, 0, 68, 112
1, 656650, Note_on_c, 0, 72, 120
1, 659844, Note_off_c, 0, 72, 120
1, 660089, Note_on_c, 0, 76, 114
1, 662055, Note_off_c, 0, 76, 114
1, 662583, Note_on_c, 0, 74, 110
1, 664008, Note_off_c, 0, 74, 110
1, 664019, Note_on_c, 0, 72, 119
1, 666476, Note_off_c, 0, 72, 119
1, 666598, Note_on_c, 0, 71, 111
1, 669055, Note_off_c, 0, 71, 111
1, 669546, Note_on_c, 0, 69, 110
1, 672003, Note_on_c, 0, 67, 112
1, 672003, Note_off_c, 0, 69, 110
1, 673969, Note_off_c, 0, 67, 112
1, 673969, Note_on_c, 0, 65, 104
1, 676303, Note_off_c, 0, 65, 104
1, 677040, Note_on_c, 0, 66, 110
1, 678883, Note_off_c, 0, 66, 110
1, 678883, Note_on_c, 0, 68, 101
1, 681586, Note_off_c, 0, 68, 101
1, 682200, Note_on_c, 0, 72, 106
1, 683305, Note_off_c, 0, 72, 106
1, 683305, Note_on_c, 0, 75, 111
1, 686991, Note_on_c, 0, 72, 106
1, 686991, Note_off_c, 0, 75, 111
1, 688834, Note_off_c, 0, 72, 106
1, 688834, Note_on_c, 0, 73, 95
1, 690554, Note_off_c, 0, 73, 95
1, 691414, Note_on_c, 0, 74, 115
1, 699278, Note_off_c, 0, 74, 115
1, 699769, Note_on_c, 0, 76, 104
1, 701120, Note_off_c, 0, 76, 104
1, 701280, Note_on_c, 0, 75, 107
1, 702748, Note_off_c, 0, 75, 107
1, 702877, Note_on_c, 0, 73, 106
1, 703654, Note_off_c, 0, 73, 106
1, 703821, Note_on_c, 0, 70, 106
1, 706893, Note_off_c, 0, 70, 106
1, 707261, Note_on_c, 0, 69, 107
1, 709841, Note_off_c, 0, 69, 107
1, 709841, Note_on_c, 0, 67, 110
1, 712544, Note_off_c, 0, 67, 110
1, 712544, Note_on_c, 0, 66, 113
1, 714387, Note_on_c, 0, 63, 99
1, 714387, Note_off_c, 0, 66, 113
1, 716475, Note_off_c, 0, 63, 99
1, 716843, Note_on_c, 0, 60, 95
1, 718563, Note_off_c, 0, 60, 95
1, 718685, Note_on_c, 0, 62, 102
1, 721388, Note_on_c, 0, 57, 89
1, 721388, Note_off_c, 0, 62, 102
1, 723231, Note_off_c, 0, 57, 89
1, 723599, Note_on_c, 0, 58, 103
1, 725073, Note_off_c, 0, 58, 103
1, 725933, Note_on_c, 0, 62, 102
1, 728759, Note_off_c, 0, 62, 102
1, 728919, Note_on_c, 0, 58, 101
1, 730479, Note_on_c, 0, 59, 92
1, 730479, Note_off_c, 0, 58, 101
1, 731953, Note_off_c, 0, 59, 92
1, 732321, Note_on_c, 0, 60, 99
1, 735393, Note_off_c, 0, 60, 99
1, 736007, Note_on_c, 0, 58, 108
1, 738095, Note_off_c, 0, 58, 108
1, 738832, Note_on_c, 0, 57, 100
1, 740920, Note_off_c, 0, 57, 100
1, 741165, Note_on_c, 0, 55, 96
1, 742639, Note_off_c, 0, 55, 96
1, 742639, Note_on_c, 0, 53, 90
1, 745465, Note_off_c, 0, 53, 90
1, 745465, Note_on_c, 0, 52, 93
1, 746693, Note_off_c, 0, 52, 93
1, 747307, Note_on_c, 0, 53, 88
1, 747921, Note_off_c, 0, 53, 88
1, 748049, Note_on_c, 0, 55, 86
1, 748956, Note_off_c, 0, 55, 86
1, 749026, Note_on_c, 0, 58, 90
1, 750377, Note_off_c, 0, 58, 90
1, 750991, Note_on_c, 0, 61, 101
1, 752834, Note_off_c, 0, 61, 101
1, 753571, Note_on_c, 0, 58, 88
1, 755414, Note_off_c, 0, 58, 88
1, 755414, Note_on_c, 0, 59, 93
1, 756519, Note_off_c, 0, 59, 93
1, 756519, Note_on_c, 0, 60, 91
1, 760205, Note_off_c, 0, 60, 91
1, 767086, Note_on_c, 0, 57, 96
1, 769789, Note_on_c, 0, 53, 92
1, 769789, Note_off_c, 0, 57, 96
1, 771140, Note_off_c, 0, 53, 92
1, 771262, Note_on_c, 0, 54, 89
1, 771876, Note_off_c, 0, 54, 89
1, 772736, Note_on_c, 0, 57, 90
1, 775562, Note_off_c, 0, 57, 90
1, 775562, Note_on_c, 0, 60, 93
1, 776545, Note_off_c, 0, 60, 93
1, 777282, Note_on_c, 0, 63, 91
1, 778633, Note_off_c, 0, 63, 91
1, 778878, Note_on_c, 0, 67, 98
1, 780844, Note_off_c, 0, 67, 98
1, 780966, Note_on_c, 0, 68, 101
1, 782071, Note_off_c, 0, 68, 101
1, 782193, Note_on_c, 0, 74, 91
1, 783790, Note_off_c, 0, 74, 91
1, 783790, Note_on_c, 0, 76, 99
1, 784650, Note_on_c, 0, 78, 109
1, 784650, Note_off_c, 0, 76, 99
1, 786370, Note_off_c, 0, 78, 109
1, 786370, Note_on_c, 0, 79, 120
1, 789441, Note_on_c, 0, 77, 112
1, 789441, Note_off_c, 0, 79, 120
1, 791775, Note_off_c, 0, 77, 112
1, 791775, Note_on_c, 0, 74, 109
1, 794478, Note_off_c, 0, 74, 109
1, 794478, Note_on_c, 0, 75, 114
1, 797918, Note_off_c, 0, 75, 114
1, 798409, Note_on_c, 0, 76, 97
1, 798777, Note_off_c, 0, 76, 97
1, 798777, Note_on_c, 0, 75, 115
1, 800865, Note_on_c, 0, 76, 118
1, 800865, Note_off_c, 0, 75, 115
1, 812169, Note_off_c, 0, 76, 118
1, 812169, Note_on_c, 0, 75, 114
1, 813274, Note_off_c, 0, 75, 114
1, 813274, Note_on_c, 0, 74, 111
1, 814502, Note_off_c, 0, 74, 111
1, 814624, Note_on_c, 0, 72, 108
1, 815238, Note_off_c, 0, 72, 108
1, 815606, Note_on_c, 0, 70, 97
1, 816711, Note_off_c, 0, 70, 97
1, 816833, Note_on_c, 0, 67, 107
1, 817693, Note_off_c, 0, 67, 107
1, 817693, Note_on_c, 0, 64, 101
1, 818553, Note_off_c, 0, 64, 101
1, 818553, Note_on_c, 0, 62, 96
1, 819536, Note_off_c, 0, 62, 96
1, 819536, Note_on_c, 0, 60, 92
1, 821256, Note_off_c, 0, 60, 92
1, 821624, Note_on_c, 0, 58, 86
1, 823712, Note_off_c, 0, 58, 86
1, 837228, Note_on_c, 0, 63, 104
1, 839562, Note_off_c, 0, 63, 104
1, 840422, Note_on_c, 0, 64, 93
1, 854798, Note_off_c, 0, 64, 93
1, 877162, Note_on_c, 0, 72, 123
1, 880602, Note_off_c, 0, 72, 123
1, 881339, Note_on_c, 0, 75, 125
1, 888466, Note_off_c, 0, 75, 125
1, 888588, Note_on_c, 0, 76, 109
1, 890308, Note_off_c, 0, 76, 109
1, 890430, Note_on_c, 0, 75, 120
1, 892396, Note_off_c, 0, 75, 120
1, 893256, Note_on_c, 0, 74, 116
1, 893993, Note_off_c, 0, 74, 116
1, 894484, Note_on_c, 0, 72, 118
1, 895221, Note_off_c, 0, 72, 118
1, 895589, Note_on_c, 0, 70, 121
1, 896817, Note_off_c, 0, 70, 121
1, 897308, Note_on_c, 0, 68, 119
1, 899642, Note_on_c, 0, 67, 117
1, 899642, Note_off_c, 0, 68, 119
1, 902222, Note_off_c, 0, 67, 117
1, 902222, Note_on_c, 0, 65, 107
1, 904802, Note_off_c, 0, 65, 107
1, 905293, Note_on_c, 0, 63, 102
1, 907136, Note_off_c, 0, 63, 102
1, 907258, Note_on_c, 0, 60, 94
1, 909346, Note_on_c, 0, 62, 107
1, 909346, Note_off_c, 0, 60, 94
1, 912786, Note_off_c, 0, 62, 107
1, 912908, Note_on_c, 0, 60, 104
1, 914996, Note_on_c, 0, 58, 105
1, 914996, Note_off_c, 0, 60, 104
1, 917576, Note_off_c, 0, 58, 105
1, 917576, Note_on_c, 0, 57, 105
1, 919910, Note_on_c, 0, 56, 99
1, 919910, Note_off_c, 0, 57, 105
1, 921630, Note_off_c, 0, 56, 99
1, 921630, Note_on_c, 0, 60, 94
1, 922613, Note_off_c, 0, 60, 94
1, 923350, Note_on_c, 0, 64, 95
1, 924210, Note_off_c, 0, 64, 95
1, 924824, Note_on_c, 0, 65, 104
1, 928141, Note_off_c, 0, 65, 104
1, 928263, Note_on_c, 0, 70, 112
1, 930843, Note_on_c, 0, 68, 122
1, 930843, Note_off_c, 0, 70, 112
1, 933054, Note_off_c, 0, 68, 122
1, 933545, Note_on_c, 0, 67, 113
1, 936002, Note_off_c, 0, 67, 113
1, 936124, Note_on_c, 0, 65, 114
1, 938090, Note_off_c, 0, 65, 114
1, 938827, Note_on_c, 0, 63, 106
1, 940793, Note_off_c, 0, 63, 106
1, 940793, Note_on_c, 0, 60, 90
1, 942759, Note_off_c, 0, 60, 90
1, 943127, Note_on_c, 0, 61, 119
1, 945338, Note_off_c, 0, 61, 119
1, 945829, Note_on_c, 0, 62, 116
1, 948655, Note_off_c, 0, 62, 116
1, 948777, Note_on_c, 0, 60, 107
1, 950497, Note_off_c, 0, 60, 107
1, 950619, Note_on_c, 0, 58, 103
1, 953568, Note_off_c, 0, 58, 103
1, 953690, Note_on_c, 0, 57, 105
1, 956147, Note_off_c, 0, 57, 105
1, 956147, Note_on_c, 0, 56, 101
1, 958604, Note_off_c, 0, 56, 101
1, 959095, Note_on_c, 0, 60, 97
1, 961921, Note_off_c, 0, 60, 97
1, 961921, Note_on_c, 0, 55, 96
1, 964009, Note_on_c, 0, 53, 104
1, 964009, Note_off_c, 0, 55, 96
1, 966589, Note_off_c, 0, 53, 104
1, 966589, Note_on_c, 0, 51, 96
1, 968677, Note_off_c, 0, 51, 96
1, 968799, Note_on_c, 0, 50, 99
1, 971010, Note_off_c, 0, 50, 99
1, 971010, Note_on_c, 0, 53, 96
1, 972853, Note_off_c, 0, 53, 96
1, 973590, Note_on_c, 0, 56, 97
1, 974818, Note_on_c, 0, 59, 96
1, 974818, Note_off_c, 0, 56, 97
1, 976906, Note_off_c, 0, 59, 96
1, 976906, Note_on_c, 0, 58, 102
1, 979117, Note_off_c, 0, 58, 102
1, 979117, Note_on_c, 0, 57, 104
1, 980714, Note_off_c, 0, 57, 104
1, 980836, Note_on_c, 0, 55, 100
1, 983293, Note_off_c, 0, 55, 100
1, 983293, Note_on_c, 0, 56, 106
1, 984767, Note_on_c, 0, 60, 101
1, 984767, Note_off_c, 0, 56, 106
1, 985750, Note_off_c, 0, 60, 101
1, 985750, Note_on_c, 0, 64, 98
1, 987224, Note_off_c, 0, 64, 98
1, 987346, Note_on_c, 0, 67, 114
1, 990295, Note_off_c, 0, 67, 114
1, 990295, Note_on_c, 0, 64, 101
1, 991892, Note_off_c, 0, 64, 101
1, 991892, Note_on_c, 0, 65, 102
1, 993120, Note_off_c, 0, 65, 102
1, 993242, Note_on_c, 0, 66, 102
1, 994593, Note_off_c, 0, 66, 102
1, 994593, Note_on_c, 0, 68, 97
1, 996067, Note_off_c, 0, 68, 97
1, 996312, Note_on_c, 0, 70, 90
1, 997295, Note_off_c, 0, 70, 90
1, 997786, Note_on_c, 0, 74, 115
1, 1000489, Note_off_c, 0, 74, 115
1, 1000653, Note_on_c, 0, 76, 112
1, 1006830, Note_off_c, 0, 76, 112
1, 1006877, Note_on_c, 0, 74, 97
1, 1008228, Note_off_c, 0, 74, 97
1, 1008228, Note_on_c, 0, 72, 107
1, 1009702, Note_off_c, 0, 72, 107
1, 1009702, Note_on_c, 0, 70, 104
1, 1011299, Note_off_c, 0, 70, 104
1, 1011299, Note_on_c, 0, 68, 116
1, 1014370, Note_on_c, 0, 67, 111
1, 1014370, Note_off_c, 0, 68, 116
1, 1016704, Note_off_c, 0, 67, 111
1, 1016826, Note_on_c, 0, 65, 113
1, 1019037, Note_on_c, 0, 63, 102
1, 1019037, Note_off_c, 0, 65, 113
1, 1022354, Note_off_c, 0, 63, 102
1, 1023091, Note_on_c, 0, 62, 110
1, 1026531, Note_off_c, 0, 62, 110
1, 1026531, Note_on_c, 0, 60, 104
1, 1029111, Note_off_c, 0, 60, 104
1, 1029111, Note_on_c, 0, 58, 99
1, 1032183, Note_off_c, 0, 58, 99
1, 1032428, Note_on_c, 0, 56, 89
1, 1035745, Note_off_c, 0, 56, 89
1, 1058846, Note_on_c, 0, 58, 111
1, 1061549, Note_off_c, 0, 58, 111
1, 1062040, Note_on_c, 0, 61, 108
1, 1064006, Note_off_c, 0, 61, 108
1, 1064128, Note_on_c, 0, 60, 106
1, 1066462, Note_off_c, 0, 60, 106
1, 1066953, Note_on_c, 0, 58, 110
1, 1069656, Note_off_c, 0, 58, 110
1, 1069656, Note_on_c, 0, 56, 107
1, 1071744, Note_off_c, 0, 56, 107
1, 1071744, Note_on_c, 0, 55, 103
1, 1073341, Note_off_c, 0, 55, 103
1, 1073341, Note_on_c, 0, 53, 99
1, 1077518, Note_off_c, 0, 53, 99
1, 1077518, Note_on_c, 0, 55, 105
1, 1078623, Note_off_c, 0, 55, 105
1, 1078623, Note_on_c, 0, 57, 101
1, 1079974, Note_off_c, 0, 57, 101
1, 1080096, Note_on_c, 0, 61, 109
1, 1082184, Note_off_c, 0, 61, 109
1, 1083167, Note_on_c, 0, 58, 102
1, 1085747, Note_off_c, 0, 58, 102
1, 1085747, Note_on_c, 0, 60, 91
1, 1087221, Note_off_c, 0, 60, 91
1, 1087221, Note_on_c, 0, 62, 116
1, 1090170, Note_off_c, 0, 62, 116
1, 1090415, Note_on_c, 0, 63, 120
1, 1107372, Note_off_c, 0, 63, 120
1, 1107372, Note_on_c, 0, 61, 104
1, 1108846, Note_off_c, 0, 61, 104
1, 1109091, Note_on_c, 0, 60, 103
1, 1110196, Note_off_c, 0, 60, 103
1, 1110441, Note_on_c, 0, 58, 108
1, 1111546, Note_on_c, 0, 63, 114
1, 1111546, Note_off_c, 0, 58, 108
1, 1114003, Note_off_c, 0, 63, 114
1, 1114003, Note_on_c, 0, 61, 107
1, 1115477, Note_on_c, 0, 60, 106
1, 1115477, Note_off_c, 0, 61, 107
1, 1116705, Note_on_c, 0, 58, 107
1, 1116705, Note_off_c, 0, 60, 106
1, 1118671, Note_off_c, 0, 58, 107
1, 1118671, Note_on_c, 0, 63, 109
1, 1128501, Note_off_c, 0, 63, 109
1, 1128501, Note_on_c, 0, 61, 102
1, 1129361, Note_off_c, 0, 61, 102
1, 1129606, Note_on_c, 0, 60, 98
1, 1131449, Note_on_c, 0, 58, 104
1, 1131449, Note_off_c, 0, 60, 98
1, 1133660, Note_off_c, 0, 58, 104
1, 1133660, Note_on_c, 0, 57, 104
1, 1135011, Note_off_c, 0, 57, 104
1, 1135103, Note_on_c, 0, 60, 100
1, 1136010, Note_off_c, 0, 60, 100
1, 1136053, Note_on_c, 0, 62, 100
1, 1136976, Note_off_c, 0, 62, 100
1, 1136976, Note_on_c, 0, 67, 112
1, 1139064, Note_on_c, 0, 64, 111
1, 1139064, Note_off_c, 0, 67, 112
1, 1141275, Note_off_c, 0, 64, 111
1, 1141397, Note_on_c, 0, 65, 112
1, 1142625, Note_on_c, 0, 67, 114
1, 1142625, Note_off_c, 0, 65, 112
1, 1144713, Note_off_c, 0, 67, 114
1, 1144713, Note_on_c, 0, 69, 101
1, 1146924, Note_off_c, 0, 69, 101
1, 1146924, Note_on_c, 0, 71, 97
1, 1148521, Note_off_c, 0, 71, 97
1, 1148766, Note_on_c, 0, 73, 108
1, 1149503, Note_off_c, 0, 73, 108
1, 1149503, Note_on_c, 0, 75, 127
1, 1154541, Note_off_c, 0, 75, 127
1, 1154663, Note_on_c, 0, 74, 122
1, 1156751, Note_off_c, 0, 74, 122
1, 1156873, Note_on_c, 0, 72, 120
1, 1158839, Note_on_c, 0, 70, 111
1, 1158839, Note_off_c, 0, 72, 120
1, 1162402, Note_off_c, 0, 70, 111
1, 1162402, Note_on_c, 0, 69, 108
1, 1164613, Note_off_c, 0, 69, 108
1, 1164981, Note_on_c, 0, 67, 116
1, 1166947, Note_on_c, 0, 66, 91
1, 1166947, Note_off_c, 0, 67, 116
1, 1168786, Note_off_c, 0, 66, 91
1, 1168786, Note_on_c, 0, 69, 98
1, 1171120, Note_off_c, 0, 69, 98
1, 1171246, Note_on_c, 0, 72, 105
1, 1173089, Note_off_c, 0, 72, 105
1, 1173457, Note_on_c, 0, 75, 124
1, 1176528, Note_on_c, 0, 72, 109
1, 1176528, Note_off_c, 0, 75, 124
1, 1179599, Note_off_c, 0, 72, 109
1, 1179599, Note_on_c, 0, 73, 92
1, 1180827, Note_off_c, 0, 73, 92
1, 1181318, Note_on_c, 0, 74, 114
1, 1191025, Note_off_c, 0, 74, 114
1, 1202207, Note_on_c, 0, 74, 109
1, 1204050, Note_off_c, 0, 74, 109
1, 1204418, Note_on_c, 0, 76, 125
1, 1207490, Note_off_c, 0, 76, 125
1, 1207702, Note_on_c, 0, 79, 118
1, 1209905, Note_off_c, 0, 79, 118
1, 1209947, Note_on_c, 0, 78, 119
1, 1213387, Note_off_c, 0, 78, 119
1, 1213632, Note_on_c, 0, 77, 111
1, 1216458, Note_on_c, 0, 75, 116
1, 1216458, Note_off_c, 0, 77, 111
1, 1219284, Note_off_c, 0, 75, 116
1, 1219284, Note_on_c, 0, 72, 110
1, 1222517, Note_on_c, 0, 76, 117
1, 1222517, Note_off_c, 0, 72, 110
1, 1224936, Note_off_c, 0, 76, 117
1, 1225022, Note_on_c, 0, 75, 108
1, 1226750, Note_off_c, 0, 75, 108
1, 1226778, Note_on_c, 0, 74, 109
1, 1228006, Note_off_c, 0, 74, 109
1, 1228251, Note_on_c, 0, 72, 117
1, 1230462, Note_off_c, 0, 72, 117
1, 1230462, Note_on_c, 0, 70, 117
1, 1232550, Note_off_c, 0, 70, 117
1, 1232550, Note_on_c, 0, 68, 123
1, 1234270, Note_off_c, 0, 68, 123
1, 1235130, Note_on_c, 0, 67, 116
1, 1236973, Note_off_c, 0, 67, 116
1, 1237587, Note_on_c, 0, 65, 116
1, 1239307, Note_off_c, 0, 65, 116
1, 1239307, Note_on_c, 0, 63, 115
1, 1242256, Note_off_c, 0, 63, 115
1, 1242256, Note_on_c, 0, 64, 109
1, 1244590, Note_off_c, 0, 64, 109
1, 1244590, Note_on_c, 0, 67, 116
1, 1246433, Note_on_c, 0, 70, 118
1, 1246433, Note_off_c, 0, 67, 116
1, 1249013, Note_off_c, 0, 70, 118
1, 1249135, Note_on_c, 0, 73, 126
1, 1251592, Note_off_c, 0, 73, 126
1, 1252083, Note_on_c, 0, 70, 115
1, 1253926, Note_off_c, 0, 70, 115
1, 1254048, Note_on_c, 0, 71, 106
1, 1255276, Note_off_c, 0, 71, 106
1, 1256136, Note_on_c, 0, 72, 119
1, 1259576, Note_off_c, 0, 72, 119
1, 1259698, Note_on_c, 0, 70, 119
1, 1262032, Note_off_c, 0, 70, 119
1, 1262032, Note_on_c, 0, 68, 116
1, 1265349, Note_off_c, 0, 68, 116
1, 1265349, Note_on_c, 0, 72, 113
1, 1266823, Note_off_c, 0, 72, 113
1, 1266823, Note_on_c, 0, 67, 112
1, 1269157, Note_on_c, 0, 66, 126
1, 1269157, Note_off_c, 0, 67, 112
1, 1272351, Note_off_c, 0, 66, 126
1, 1272351, Note_on_c, 0, 65, 115
1, 1275177, Note_off_c, 0, 65, 115
1, 1275177, Note_on_c, 0, 63, 109
1, 1277388, Note_off_c, 0, 63, 109
1, 1277388, Note_on_c, 0, 60, 98
1, 1279722, Note_off_c, 0, 60, 98
1, 1279844, Note_on_c, 0, 61, 96
1, 1281564, Note_off_c, 0, 61, 96
1, 1281809, Note_on_c, 0, 62, 104
1, 1283897, Note_off_c, 0, 62, 104
1, 1284703, Note_on_c, 0, 64, 90
1, 1330149, Note_off_c, 0, 64, 90
1, 1330149, End_track
0, 0, End_of_file
