0, 0, Header, 1, 1, 840
1, 0, Start_track
1, 0, Title_t, "Melody"
1, 0, Tempo, 465116
1, 0, Key_signature, 1, "major"
1, 0, Time_signature, 4, 2, 24, 8
1, 5137, Note_on_c, 0, 61, 105
1, 5283, Note_off_c, 0, 61, 105
1, 5303, Note_on_c, 0, 62, 111
1, 5449, Note_off_c, 0, 62, 111
1, 5449, Note_on_c, 0, 65, 118
1, 5889, Note_off_c, 0, 65, 118
1, 6014, Note_on_c, 0, 73, 125
1, 6380, Note_off_c, 0, 73, 125
1, 6652, Note_on_c, 0, 73, 119
1, 7008, Note_off_c, 0, 73, 119
1, 7259, Note_on_c, 0, 72, 111
1, 7458, Note_off_c, 0, 72, 111
1, 7499, Note_on_c, 0, 73, 114
1, 7855, Note_off_c, 0, 73, 114
1, 8033, Note_on_c, 0, 69, 109
1, 8557, Note_off_c, 0, 69, 109
1, 8724, Note_on_c, 0, 74, 110
1, 9007, Note_off_c, 0, 74, 110
1, 9017, Note_on_c, 0, 76, 120
1, 9635, Note_off_c, 0, 76, 120
1, 9655, Note_on_c, 0, 74, 117
1, 10231, Note_off_c, 0, 74, 117
1, 10576, Note_on_c, 0, 69, 91
1, 11267, Note_off_c, 0, 69, 91
1, 11350, Note_on_c, 0, 71, 115
1, 11528, Note_off_c, 0, 71, 115
1, 11569, Note_on_c, 0, 72, 99
1, 13697, Note_off_c, 0, 72, 99
1, 13702, Note_on_c, 0, 74, 89
1, 13759, Note_off_c, 0, 74, 89
1, 13774, Note_on_c, 0, 73, 94
1, 13810, Note_off_c, 0, 73, 94
1, 13825, Note_on_c, 0, 70, 102
1, 13861, Note_off_c, 0, 70, 102
1, 13881, Note_on_c, 0, 71, 104
1, 14185, Note_off_c, 0, 71, 104
1, 14530, Note_on_c, 0, 62, 84
1, 15242, Note_off_c, 0, 62, 84
1, 16143, Note_on_c, 0, 62, 91
1, 17191, Note_off_c, 0, 62, 91
1, 20304, Note_on_c, 0, 80, 79
1, 20461, Note_off_c, 0, 80, 79
1, 20461, Note_on_c, 0, 81, 119
1, 20859, Note_off_c, 0, 81, 119
1, 21183, Note_on_c, 0, 80, 106
1, 21308, Note_off_c, 0, 80, 106
1, 21402, Note_on_c, 0, 81, 104
1, 24001, Note_off_c, 0, 81, 104
1, 24074, Note_on_c, 0, 77, 106
1, 25447, Note_off_c, 0, 77, 106
1, 25551, Note_on_c, 0, 75, 98
1, 25708, Note_off_c, 0, 75, 98
1, 25865, Note_on_c, 0, 77, 106
1, 26179, Note_off_c, 0, 77, 106
1, 26252, Note_on_c, 0, 75, 101
1, 26325, Note_off_c, 0, 75, 101
1, 26387, Note_on_c, 0, 77, 112
1, 26670, Note_off_c, 0, 77, 112
1, 29972, Note_on_c, 0, 71, 98
1, 30160, Note_off_c, 0, 71, 98
1, 30160, Note_on_c, 0, 72, 96
1, 30254, Note_off_c, 0, 72, 96
1, 30295, Note_on_c, 0, 74, 110
1, 30420, Note_off_c, 0, 74, 110
1, 30440, Note_on_c, 0, 76, 116
1, 30702, Note_on_c, 0, 74, 114
1, 30702, Note_off_c, 0, 76, 116
1, 30890, Note_off_c, 0, 74, 114
1, 30890, Note_on_c, 0, 72, 109
1, 30994, Note_off_c, 0, 72, 109
1, 30994, Note_on_c, 0, 71, 102
1, 31130, Note_off_c, 0, 71, 102
1, 31213, Note_on_c, 0, 69, 106
1, 31359, Note_off_c, 0, 69, 106
1, 31385, Note_on_c, 0, 67, 103
1, 31615, Note_off_c, 0, 67, 103
1, 31620, Note_on_c, 0, 65, 98
1, 31787, Note_off_c, 0, 65, 98
1, 31849, Note_on_c, 0, 64, 99
1, 31995, Note_off_c, 0, 64, 99
1, 32005, Note_on_c, 0, 67, 101
1, 32120, Note_off_c, 0, 67, 101
1, 32182, Note_on_c, 0, 70, 104
1, 32370, Note_off_c, 0, 70, 104
1, 32411, Note_on_c, 0, 72, 108
1, 32641, Note_off_c, 0, 72, 108
1, 32693, Note_on_c, 0, 69, 89
1, 32986, Note_off_c, 0, 69, 89
1, 32986, Note_on_c, 0, 75, 113
1, 33342, Note_off_c, 0, 75, 113
1, 33342, Note_on_c, 0, 73, 115
1, 33410, Note_off_c, 0, 73, 115
1, 33441, Note_on_c, 0, 72, 107
1, 33530, Note_off_c, 0, 72, 107
1, 33545, Note_on_c, 0, 71, 107
1, 33644, Note_off_c, 0, 71, 107
1, 33680, Note_on_c, 0, 71, 113
1, 33737, Note_off_c, 0, 71, 113
1, 33742, Note_on_c, 0, 69, 107
1, 33841, Note_off_c, 0, 69, 107
1, 33882, Note_on_c, 0, 67, 102
1, 34023, Note_off_c, 0, 67, 102
1, 34064, Note_on_c, 0, 67, 112
1, 34137, Note_off_c, 0, 67, 112
1, 34173, Note_on_c, 0, 65, 98
1, 34277, Note_off_c, 0, 65, 98
1, 34318, Note_on_c, 0, 64, 95
1, 34475, Note_off_c, 0, 64, 95
1, 34475, Note_on_c, 0, 62, 95
1, 34600, Note_off_c, 0, 62, 95
1, 34662, Note_on_c, 0, 63, 99
1, 34934, Note_off_c, 0, 63, 99
1, 34986, Note_on_c, 0, 46, 113
1, 35206, Note_off_c, 0, 46, 113
1, 35258, Note_on_c, 0, 61, 108
1, 35509, Note_off_c, 0, 61, 108
1, 35509, Note_on_c, 0, 58, 91
1, 35739, Note_off_c, 0, 58, 91
1, 35969, Note_on_c, 0, 60, 102
1, 36147, Note_on_c, 0, 58, 102
1, 36147, Note_off_c, 0, 60, 102
1, 36377, Note_off_c, 0, 58, 102
1, 36387, Note_on_c, 0, 57, 101
1, 36512, Note_off_c, 0, 57, 101
1, 36512, Note_on_c, 0, 55, 105
1, 36711, Note_off_c, 0, 55, 105
1, 36731, Note_on_c, 0, 53, 102
1, 36951, Note_off_c, 0, 53, 102
1, 36951, Note_on_c, 0, 57, 96
1, 37108, Note_off_c, 0, 57, 96
1, 37160, Note_on_c, 0, 60, 93
1, 37254, Note_off_c, 0, 60, 93
1, 37274, Note_on_c, 0, 63, 102
1, 37504, Note_off_c, 0, 63, 102
1, 37504, Note_on_c, 0, 59, 92
1, 37703, Note_off_c, 0, 59, 92
1, 37703, Note_on_c, 0, 61, 94
1, 37891, Note_off_c, 0, 61, 94
1, 37953, Note_on_c, 0, 62, 106
1, 38152, Note_off_c, 0, 62, 106
1, 38204, Note_on_c, 0, 60, 99
1, 38308, Note_off_c, 0, 60, 99
1, 38308, Note_on_c, 0, 58, 99
1, 38465, Note_off_c, 0, 58, 99
1, 38475, Note_on_c, 0, 59, 94
1, 38558, Note_off_c, 0, 59, 94
1, 38589, Note_on_c, 0, 62, 96
1, 38678, Note_off_c, 0, 62, 96
1, 38704, Note_on_c, 0, 65, 92
1, 38829, Note_off_c, 0, 65, 92
1, 38881, Note_on_c, 0, 69, 111
1, 39048, Note_on_c, 0, 65, 105
1, 39048, Note_off_c, 0, 69, 111
1, 39247, Note_off_c, 0, 65, 105
1, 39288, Note_on_c, 0, 67, 97
1, 39518, Note_on_c, 0, 69, 88
1, 39518, Note_off_c, 0, 67, 97
1, 39675, Note_off_c, 0, 69, 88
1, 39732, Note_on_c, 0, 70, 78
1, 39842, Note_off_c, 0, 70, 78
1, 39936, Note_on_c, 0, 74, 95
1, 40082, Note_off_c, 0, 74, 95
1, 40123, Note_on_c, 0, 79, 108
1, 40322, Note_off_c, 0, 79, 108
1, 40353, Note_on_c, 0, 77, 104
1, 40677, Note_off_c, 0, 77, 104
1, 42763, Note_on_c, 0, 86, 108
1, 43150, Note_off_c, 0, 86, 108
1, 45246, Note_on_c, 0, 80, 118
1, 45350, Note_off_c, 0, 80, 118
1, 45370, Note_on_c, 0, 81, 113
1, 45852, Note_off_c, 0, 81, 113
1, 46942, Note_on_c, 0, 57, 103
1, 47434, Note_off_c, 0, 57, 103
1, 48440, Note_on_c, 0, 74, 109
1, 48597, Note_off_c, 0, 74, 109
1, 48607, Note_on_c, 0, 76, 112
1, 48994, Note_off_c, 0, 76, 112
1, 49339, Note_on_c, 0, 69, 107
1, 49569, Note_off_c, 0, 69, 107
1, 49569, Note_on_c, 0, 74, 116
1, 50323, Note_off_c, 0, 74, 116
1, 50427, Note_on_c, 0, 69, 101
1, 51150, Note_off_c, 0, 69, 101
1, 51212, Note_on_c, 0, 72, 111
1, 53665, Note_off_c, 0, 72, 111
1, 53769, Note_on_c, 0, 73, 114
1, 54513, Note_off_c, 0, 73, 114
1, 55194, Note_on_c, 0, 71, 109
1, 55571, Note_off_c, 0, 71, 109
1, 55633, Note_on_c, 0, 73, 111
1, 56157, Note_off_c, 0, 73, 111
1, 57687, Note_on_c, 0, 71, 101
1, 57938, Note_off_c, 0, 71, 101
1, 57938, Note_on_c, 0, 74, 101
1, 60359, Note_off_c, 0, 74, 101
1, 60442, Note_on_c, 0, 75, 114
1, 60756, Note_off_c, 0, 75, 114
1, 60782, Note_on_c, 0, 73, 111
1, 60834, Note_off_c, 0, 73, 111
1, 60839, Note_on_c, 0, 72, 113
1, 60880, Note_off_c, 0, 72, 113
1, 60900, Note_on_c, 0, 70, 103
1, 61099, Note_off_c, 0, 70, 103
1, 61109, Note_on_c, 0, 69, 105
1, 61308, Note_off_c, 0, 69, 105
1, 61318, Note_on_c, 0, 67, 105
1, 61548, Note_off_c, 0, 67, 105
1, 61568, Note_on_c, 0, 65, 99
1, 61725, Note_off_c, 0, 65, 99
1, 61766, Note_on_c, 0, 63, 94
1, 61912, Note_off_c, 0, 63, 94
1, 61932, Note_on_c, 0, 62, 91
1, 62005, Note_off_c, 0, 62, 91
1, 62036, Note_on_c, 0, 61, 96
1, 62350, Note_off_c, 0, 61, 96
1, 62370, Note_on_c, 0, 62, 105
1, 62600, Note_off_c, 0, 62, 105
1, 62615, Note_on_c, 0, 60, 97
1, 62709, Note_off_c, 0, 60, 97
1, 62724, Note_on_c, 0, 59, 88
1, 62970, Note_off_c, 0, 59, 88
1, 63127, Note_on_c, 0, 62, 96
1, 63237, Note_off_c, 0, 62, 96
1, 63247, Note_on_c, 0, 69, 108
1, 63446, Note_off_c, 0, 69, 108
1, 63446, Note_on_c, 0, 65, 101
1, 63613, Note_off_c, 0, 65, 101
1, 63660, Note_on_c, 0, 67, 100
1, 63728, Note_off_c, 0, 67, 100
1, 63743, Note_on_c, 0, 67, 100
1, 63853, Note_off_c, 0, 67, 100
1, 63873, Note_on_c, 0, 69, 100
1, 63962, Note_off_c, 0, 69, 100
1, 63988, Note_on_c, 0, 69, 95
1, 64113, Note_off_c, 0, 69, 95
1, 64128, Note_on_c, 0, 70, 95
1, 64185, Note_off_c, 0, 70, 95
1, 64205, Note_on_c, 0, 70, 91
1, 64294, Note_off_c, 0, 70, 91
1, 64330, Note_on_c, 0, 72, 95
1, 64434, Note_off_c, 0, 72, 95
1, 64465, Note_on_c, 0, 74, 111
1, 64674, Note_off_c, 0, 74, 111
1, 64715, Note_on_c, 0, 72, 111
1, 64924, Note_off_c, 0, 72, 111
1, 64944, Note_on_c, 0, 71, 104
1, 65122, Note_off_c, 0, 71, 104
1, 65122, Note_on_c, 0, 69, 101
1, 65342, Note_off_c, 0, 69, 101
1, 65352, Note_on_c, 0, 68, 106
1, 65582, Note_off_c, 0, 68, 106
1, 65613, Note_on_c, 0, 76, 101
1, 65785, Note_off_c, 0, 76, 101
1, 65785, Note_on_c, 0, 77, 108
1, 65984, Note_off_c, 0, 77, 108
1, 65989, Note_on_c, 0, 79, 102
1, 66104, Note_off_c, 0, 79, 102
1, 66104, Note_on_c, 0, 81, 115
1, 66334, Note_off_c, 0, 81, 115
1, 70705, Note_on_c, 0, 70, 99
1, 70862, Note_off_c, 0, 70, 99
1, 70940, Note_on_c, 0, 72, 108
1, 71065, Note_off_c, 0, 72, 108
1, 71148, Note_on_c, 0, 74, 106
1, 71226, Note_off_c, 0, 74, 106
1, 71226, Note_on_c, 0, 76, 113
1, 71383, Note_off_c, 0, 76, 113
1, 71493, Note_on_c, 0, 74, 115
1, 71561, Note_off_c, 0, 74, 115
1, 71571, Note_on_c, 0, 70, 108
1, 71686, Note_off_c, 0, 70, 108
1, 71717, Note_on_c, 0, 71, 110
1, 71926, Note_off_c, 0, 71, 110
1, 71926, Note_on_c, 0, 69, 105
1, 72104, Note_off_c, 0, 69, 105
1, 72104, Note_on_c, 0, 67, 107
1, 72324, Note_off_c, 0, 67, 107
1, 72324, Note_on_c, 0, 65, 109
1, 72523, Note_off_c, 0, 65, 109
1, 72523, Note_on_c, 0, 63, 100
1, 72680, Note_off_c, 0, 63, 100
1, 72721, Note_on_c, 0, 59, 90
1, 72930, Note_off_c, 0, 59, 90
1, 72961, Note_on_c, 0, 62, 110
1, 73212, Note_off_c, 0, 62, 110
1, 73253, Note_on_c, 0, 58, 114
1, 73368, Note_off_c, 0, 58, 114
1, 73378, Note_on_c, 0, 60, 99
1, 73587, Note_off_c, 0, 60, 99
1, 73587, Note_on_c, 0, 62, 101
1, 73723, Note_off_c, 0, 62, 101
1, 73723, Note_on_c, 0, 60, 102
1, 73827, Note_on_c, 0, 58, 103
1, 73827, Note_off_c, 0, 60, 102
1, 74026, Note_off_c, 0, 58, 103
1, 74067, Note_on_c, 0, 57, 112
1, 74245, Note_off_c, 0, 57, 112
1, 74245, Note_on_c, 0, 55, 102
1, 74433, Note_off_c, 0, 55, 102
1, 74485, Note_on_c, 0, 53, 99
1, 74715, Note_off_c, 0, 53, 99
1, 74715, Note_on_c, 0, 57, 101
1, 74767, Note_off_c, 0, 57, 101
1, 74767, Note_on_c, 0, 60, 101
1, 74945, Note_off_c, 0, 60, 101
1, 74965, Note_on_c, 0, 63, 105
1, 75174, Note_off_c, 0, 63, 105
1, 75174, Note_on_c, 0, 60, 100
1, 75289, Note_off_c, 0, 60, 100
1, 75362, Note_on_c, 0, 61, 95
1, 75487, Note_off_c, 0, 61, 95
1, 75518, Note_on_c, 0, 62, 112
1, 75748, Note_off_c, 0, 62, 112
1, 75784, Note_on_c, 0, 62, 105
1, 75841, Note_off_c, 0, 62, 105
1, 75856, Note_on_c, 0, 60, 104
1, 75934, Note_off_c, 0, 60, 104
1, 75970, Note_on_c, 0, 58, 98
1, 76111, Note_off_c, 0, 58, 98
1, 76131, Note_on_c, 0, 63, 87
1, 76288, Note_off_c, 0, 63, 87
1, 76308, Note_on_c, 0, 70, 92
1, 76559, Note_off_c, 0, 70, 92
1, 76559, Note_on_c, 0, 67, 103
1, 76747, Note_off_c, 0, 67, 103
1, 76757, Note_on_c, 0, 68, 112
1, 76914, Note_off_c, 0, 68, 112
1, 76966, Note_on_c, 0, 69, 105
1, 77175, Note_off_c, 0, 69, 105
1, 78286, Note_on_c, 0, 68, 117
1, 78537, Note_off_c, 0, 68, 117
1, 78547, Note_on_c, 0, 70, 113
1, 78777, Note_off_c, 0, 70, 113
1, 78797, Note_on_c, 0, 75, 116
1, 79038, Note_off_c, 0, 75, 116
1, 79038, Note_on_c, 0, 72, 105
1, 79184, Note_off_c, 0, 72, 105
1, 79184, Note_on_c, 0, 74, 116
1, 79435, Note_off_c, 0, 74, 116
1, 79435, Note_on_c, 0, 72, 116
1, 79613, Note_off_c, 0, 72, 116
1, 79633, Note_on_c, 0, 71, 111
1, 79779, Note_off_c, 0, 71, 111
1, 79831, Note_on_c, 0, 68, 113
1, 79988, Note_off_c, 0, 68, 113
1, 80061, Note_on_c, 0, 69, 111
1, 80207, Note_off_c, 0, 69, 111
1, 80227, Note_on_c, 0, 71, 104
1, 80310, Note_off_c, 0, 71, 104
1, 80310, Note_on_c, 0, 74, 99
1, 80372, Note_off_c, 0, 74, 99
1, 80372, Note_on_c, 0, 76, 104
1, 80434, Note_off_c, 0, 76, 104
1, 80434, Note_on_c, 0, 80, 112
1, 83222, Note_off_c, 0, 80, 112
1, 83326, Note_on_c, 0, 80, 104
1, 83441, Note_off_c, 0, 80, 104
1, 83441, Note_on_c, 0, 75, 100
1, 83640, Note_off_c, 0, 75, 100
1, 83692, Note_on_c, 0, 72, 105
1, 83975, Note_off_c, 0, 72, 105
1, 84006, Note_on_c, 0, 68, 109
1, 84320, Note_off_c, 0, 68, 109
1, 84320, Note_on_c, 0, 72, 104
1, 84508, Note_off_c, 0, 72, 104
1, 84508, Note_on_c, 0, 75, 96
1, 84728, Note_off_c, 0, 75, 96
1, 84864, Note_on_c, 0, 80, 107
1, 85220, Note_off_c, 0, 80, 107
1, 85387, Note_on_c, 0, 75, 105
1, 85691, Note_off_c, 0, 75, 105
1, 85753, Note_on_c, 0, 72, 112
1, 86172, Note_off_c, 0, 72, 112
1, 86633, Note_on_c, 0, 72, 115
1, 86800, Note_off_c, 0, 72, 115
1, 86820, Note_on_c, 0, 73, 100
1, 87197, Note_off_c, 0, 73, 100
1, 87511, Note_on_c, 0, 79, 112
1, 87689, Note_off_c, 0, 79, 112
1, 87720, Note_on_c, 0, 80, 106
1, 87898, Note_off_c, 0, 80, 106
1, 87908, Note_on_c, 0, 84, 108
1, 88882, Note_off_c, 0, 84, 108
1, 89112, Note_on_c, 0, 80, 113
1, 89594, Note_off_c, 0, 80, 113
1, 90453, Note_on_c, 0, 68, 111
1, 90673, Note_off_c, 0, 68, 111
1, 90673, Note_on_c, 0, 72, 111
1, 90914, Note_off_c, 0, 72, 111
1, 90924, Note_on_c, 0, 76, 99
1, 91165, Note_off_c, 0, 76, 99
1, 91217, Note_on_c, 0, 80, 113
1, 91384, Note_off_c, 0, 80, 113
1, 91509, Note_on_c, 0, 84, 106
1, 92106, Note_off_c, 0, 84, 106
1, 92525, Note_on_c, 0, 77, 109
1, 92849, Note_off_c, 0, 77, 109
1, 93079, Note_on_c, 0, 87, 109
1, 93865, Note_off_c, 0, 87, 109
1, 93938, Note_on_c, 0, 84, 106
1, 94629, Note_off_c, 0, 84, 106
1, 94828, Note_on_c, 0, 85, 113
1, 95373, Note_off_c, 0, 85, 113
1, 95530, Note_on_c, 0, 77, 91
1, 96043, Note_off_c, 0, 77, 91
1, 98139, Note_on_c, 0, 80, 119
1, 98338, Note_off_c, 0, 80, 119
1, 98348, Note_on_c, 0, 81, 122
1, 98557, Note_off_c, 0, 81, 122
1, 98557, Note_on_c, 0, 80, 119
1, 98735, Note_off_c, 0, 80, 119
1, 98787, Note_on_c, 0, 77, 110
1, 98986, Note_off_c, 0, 77, 110
1, 99038, Note_on_c, 0, 73, 104
1, 99310, Note_off_c, 0, 73, 104
1, 99325, Note_on_c, 0, 69, 102
1, 99644, Note_off_c, 0, 69, 102
1, 101164, Note_on_c, 0, 75, 87
1, 101268, Note_off_c, 0, 75, 87
1, 101278, Note_on_c, 0, 74, 102
1, 101382, Note_off_c, 0, 74, 102
1, 101392, Note_on_c, 0, 72, 107
1, 101507, Note_off_c, 0, 72, 107
1, 101527, Note_on_c, 0, 69, 101
1, 101778, Note_off_c, 0, 69, 101
1, 101778, Note_on_c, 0, 71, 103
1, 101914, Note_off_c, 0, 71, 103
1, 101945, Note_on_c, 0, 72, 100
1, 102070, Note_off_c, 0, 72, 100
1, 102143, Note_on_c, 0, 73, 95
1, 102258, Note_off_c, 0, 73, 95
1, 102352, Note_on_c, 0, 76, 111
1, 102561, Note_off_c, 0, 76, 111
1, 102571, Note_on_c, 0, 74, 114
1, 102788, Note_on_c, 0, 72, 116
1, 102788, Note_off_c, 0, 74, 114
1, 102913, Note_off_c, 0, 72, 116
1, 102935, Note_on_c, 0, 71, 111
1, 103104, Note_off_c, 0, 71, 111
1, 103126, Note_on_c, 0, 69, 104
1, 103332, Note_off_c, 0, 69, 104
1, 103332, Note_on_c, 0, 67, 101
1, 103523, Note_off_c, 0, 67, 101
1, 103552, Note_on_c, 0, 65, 106
1, 103773, Note_off_c, 0, 65, 106
1, 103773, Note_on_c, 0, 64, 105
1, 104244, Note_off_c, 0, 64, 105
1, 104280, Note_on_c, 0, 62, 97
1, 104434, Note_off_c, 0, 62, 97
1, 104448, Note_on_c, 0, 63, 104
1, 104764, Note_off_c, 0, 63, 104
1, 104771, Note_on_c, 0, 60, 104
1, 104881, Note_off_c, 0, 60, 104
1, 104925, Note_on_c, 0, 61, 101
1, 105131, Note_off_c, 0, 61, 101
1, 105145, Note_on_c, 0, 57, 97
1, 105262, Note_off_c, 0, 57, 97
1, 105276, Note_on_c, 0, 59, 91
1, 105408, Note_off_c, 0, 59, 91
1, 105496, Note_on_c, 0, 62, 101
1, 105739, Note_off_c, 0, 62, 101
1, 105820, Note_on_c, 0, 57, 108
1, 105908, Note_off_c, 0, 57, 108
1, 105908, Note_on_c, 0, 59, 98
1, 106048, Note_off_c, 0, 59, 98
1, 106158, Note_on_c, 0, 62, 104
1, 106530, Note_off_c, 0, 62, 104
1, 106949, Note_on_c, 0, 72, 102
1, 107169, Note_off_c, 0, 72, 102
1, 107169, Note_on_c, 0, 74, 117
1, 107493, Note_off_c, 0, 74, 117
1, 107639, Note_on_c, 0, 67, 100
1, 108037, Note_on_c, 0, 71, 93
1, 108037, Note_off_c, 0, 67, 100
1, 108225, Note_off_c, 0, 71, 93
1, 108240, Note_on_c, 0, 72, 119
1, 108394, Note_off_c, 0, 72, 119
1, 108452, Note_on_c, 0, 74, 122
1, 108717, Note_off_c, 0, 74, 122
1, 108798, Note_on_c, 0, 67, 104
1, 109112, Note_off_c, 0, 67, 104
1, 109112, Note_on_c, 0, 71, 98
1, 109311, Note_off_c, 0, 71, 98
1, 109436, Note_on_c, 0, 73, 120
1, 109687, Note_off_c, 0, 73, 120
1, 109718, Note_on_c, 0, 74, 120
1, 109938, Note_off_c, 0, 74, 120
1, 110000, Note_on_c, 0, 67, 95
1, 110377, Note_off_c, 0, 67, 95
1, 110502, Note_on_c, 0, 73, 110
1, 110711, Note_off_c, 0, 73, 110
1, 110836, Note_on_c, 0, 74, 119
1, 111926, Note_off_c, 0, 74, 119
1, 111983, Note_on_c, 0, 76, 99
1, 112145, Note_off_c, 0, 76, 99
1, 112166, Note_on_c, 0, 73, 95
1, 112281, Note_off_c, 0, 73, 95
1, 112291, Note_on_c, 0, 72, 107
1, 112395, Note_off_c, 0, 72, 107
1, 112407, Note_on_c, 0, 70, 109
1, 112657, Note_off_c, 0, 70, 109
1, 112671, Note_on_c, 0, 67, 103
1, 112877, Note_off_c, 0, 67, 103
1, 112906, Note_on_c, 0, 65, 100
1, 113082, Note_off_c, 0, 65, 100
1, 113082, Note_on_c, 0, 62, 95
1, 113509, Note_off_c, 0, 62, 95
1, 114968, Note_on_c, 0, 72, 119
1, 115277, Note_off_c, 0, 72, 119
1, 115277, Note_on_c, 0, 75, 107
1, 115468, Note_off_c, 0, 75, 107
1, 115492, Note_on_c, 0, 72, 119
1, 115586, Note_off_c, 0, 72, 119
1, 115599, Note_on_c, 0, 70, 114
1, 115820, Note_off_c, 0, 70, 114
1, 115820, Note_on_c, 0, 67, 104
1, 116026, Note_off_c, 0, 67, 104
1, 116055, Note_on_c, 0, 65, 93
1, 116320, Note_off_c, 0, 65, 93
1, 116349, Note_on_c, 0, 72, 114
1, 116629, Note_off_c, 0, 72, 114
1, 116673, Note_on_c, 0, 75, 101
1, 116835, Note_on_c, 0, 73, 112
1, 116835, Note_off_c, 0, 75, 101
1, 116923, Note_off_c, 0, 73, 112
1, 116981, Note_on_c, 0, 70, 109
1, 117187, Note_off_c, 0, 70, 109
1, 117187, Note_on_c, 0, 67, 100
1, 117526, Note_off_c, 0, 67, 100
1, 117688, Note_on_c, 0, 72, 115
1, 117864, Note_off_c, 0, 72, 115
1, 117967, Note_on_c, 0, 74, 108
1, 120488, Note_off_c, 0, 74, 108
1, 122227, Note_on_c, 0, 72, 91
1, 122418, Note_off_c, 0, 72, 91
1, 122506, Note_on_c, 0, 74, 115
1, 122859, Note_off_c, 0, 74, 115
1, 123168, Note_on_c, 0, 79, 109
1, 123536, Note_off_c, 0, 79, 109
1, 123565, Note_on_c, 0, 77, 107
1, 127235, Note_off_c, 0, 77, 107
1, 127485, Note_on_c, 0, 75, 119
1, 127735, Note_off_c, 0, 75, 119
1, 127735, Note_on_c, 0, 76, 99
1, 127911, Note_off_c, 0, 76, 99
1, 127911, Note_on_c, 0, 80, 116
1, 128220, Note_off_c, 0, 80, 116
1, 129900, Note_on_c, 0, 79, 123
1, 130076, Note_off_c, 0, 79, 123
1, 130076, Note_on_c, 0, 80, 126
1, 130304, Note_off_c, 0, 80, 126
1, 130304, Note_on_c, 0, 79, 120
1, 130421, Note_off_c, 0, 79, 120
1, 130421, Note_on_c, 0, 78, 107
1, 130553, Note_off_c, 0, 78, 107
1, 130553, Note_on_c, 0, 77, 115
1, 130678, Note_off_c, 0, 77, 115
1, 130678, Note_on_c, 0, 76, 119
1, 130759, Note_off_c, 0, 76, 119
1, 130759, Note_on_c, 0, 75, 114
1, 130950, Note_off_c, 0, 75, 114
1, 130957, Note_on_c, 0, 73, 102
1, 131111, Note_off_c, 0, 73, 102
1, 131155, Note_on_c, 0, 76, 114
1, 131376, Note_off_c, 0, 76, 114
1, 131383, Note_on_c, 0, 74, 114
1, 131559, Note_off_c, 0, 74, 114
1, 131559, Note_on_c, 0, 73, 114
1, 131706, Note_off_c, 0, 73, 114
1, 131720, Note_on_c, 0, 72, 106
1, 131926, Note_off_c, 0, 72, 106
1, 131926, Note_on_c, 0, 67, 100
1, 132051, Note_off_c, 0, 67, 100
1, 132080, Note_on_c, 0, 68, 104
1, 132286, Note_off_c, 0, 68, 104
1, 132300, Note_on_c, 0, 69, 105
1, 132558, Note_off_c, 0, 69, 105
1, 132602, Note_on_c, 0, 65, 103
1, 132801, Note_off_c, 0, 65, 103
1, 132808, Note_on_c, 0, 61, 109
1, 132859, Note_off_c, 0, 61, 109
1, 132859, Note_on_c, 0, 59, 107
1, 133006, Note_off_c, 0, 59, 107
1, 133035, Note_on_c, 0, 60, 102
1, 133285, Note_off_c, 0, 60, 102
1, 133292, Note_on_c, 0, 57, 99
1, 133402, Note_off_c, 0, 57, 99
1, 133446, Note_on_c, 0, 59, 97
1, 133681, Note_off_c, 0, 59, 97
1, 133695, Note_on_c, 0, 57, 95
1, 134144, Note_off_c, 0, 57, 95
1, 135942, Note_on_c, 0, 58, 117
1, 136207, Note_off_c, 0, 58, 117
1, 136221, Note_on_c, 0, 57, 106
1, 136383, Note_off_c, 0, 57, 106
1, 136456, Note_on_c, 0, 58, 104
1, 136610, Note_off_c, 0, 58, 104
1, 136617, Note_on_c, 0, 59, 101
1, 136698, Note_off_c, 0, 59, 101
1, 136793, Note_on_c, 0, 62, 102
1, 137132, Note_off_c, 0, 62, 102
1, 137139, Note_on_c, 0, 64, 110
1, 137374, Note_off_c, 0, 64, 110
1, 137381, Note_on_c, 0, 62, 111
1, 137528, Note_off_c, 0, 62, 111
1, 137557, Note_on_c, 0, 60, 106
1, 137719, Note_off_c, 0, 60, 106
1, 137719, Note_on_c, 0, 59, 108
1, 137895, Note_off_c, 0, 59, 108
1, 137939, Note_on_c, 0, 57, 110
1, 138115, Note_off_c, 0, 57, 110
1, 138147, Note_on_c, 0, 55, 108
1, 138262, Note_off_c, 0, 55, 108
1, 138282, Note_on_c, 0, 53, 108
1, 138460, Note_off_c, 0, 53, 108
1, 138518, Note_on_c, 0, 58, 102
1, 138702, Note_off_c, 0, 58, 102
1, 138746, Note_on_c, 0, 60, 99
1, 138922, Note_off_c, 0, 60, 99
1, 138980, Note_on_c, 0, 63, 105
1, 139208, Note_off_c, 0, 63, 105
1, 139274, Note_on_c, 0, 60, 105
1, 139362, Note_off_c, 0, 60, 105
1, 139369, Note_on_c, 0, 61, 108
1, 139479, Note_off_c, 0, 61, 108
1, 139515, Note_on_c, 0, 62, 111
1, 139809, Note_off_c, 0, 62, 111
1, 139809, Note_on_c, 0, 60, 107
1, 139926, Note_off_c, 0, 60, 107
1, 139948, Note_on_c, 0, 58, 103
1, 140065, Note_off_c, 0, 58, 103
1, 140065, Note_on_c, 0, 55, 104
1, 140160, Note_off_c, 0, 55, 104
1, 140211, Note_on_c, 0, 60, 96
1, 140314, Note_off_c, 0, 60, 96
1, 140343, Note_on_c, 0, 66, 100
1, 140424, Note_off_c, 0, 66, 100
1, 140431, Note_on_c, 0, 69, 104
1, 141433, Note_off_c, 0, 69, 104
1, 143895, Note_on_c, 0, 72, 124
1, 144293, Note_off_c, 0, 72, 124
1, 148855, Note_on_c, 0, 72, 120
1, 149223, Note_off_c, 0, 72, 120
1, 149554, Note_on_c, 0, 84, 106
1, 149996, Note_off_c, 0, 84, 106
1, 150467, Note_on_c, 0, 84, 115
1, 151027, Note_off_c, 0, 84, 115
1, 151321, Note_on_c, 0, 80, 123
1, 151468, Note_off_c, 0, 80, 123
1, 151526, Note_on_c, 0, 81, 119
1, 152012, Note_off_c, 0, 81, 119
1, 152247, Note_on_c, 0, 77, 106
1, 152733, Note_off_c, 0, 77, 106
1, 152777, Note_on_c, 0, 74, 109
1, 152983, Note_off_c, 0, 74, 109
1, 153130, Note_on_c, 0, 76, 109
1, 153778, Note_off_c, 0, 76, 109
1, 153813, Note_on_c, 0, 74, 119
1, 154373, Note_off_c, 0, 74, 119
1, 154381, Note_on_c, 0, 75, 114
1, 156105, Note_off_c, 0, 75, 114
1, 158161, Note_on_c, 0, 75, 119
1, 158360, Note_off_c, 0, 75, 119
1, 158389, Note_on_c, 0, 77, 102
1, 158521, Note_off_c, 0, 77, 102
1, 158557, Note_on_c, 0, 75, 111
1, 158733, Note_off_c, 0, 75, 111
1, 158740, Note_on_c, 0, 74, 110
1, 158953, Note_off_c, 0, 74, 110
1, 158953, Note_on_c, 0, 72, 107
1, 159166, Note_off_c, 0, 72, 107
1, 159188, Note_on_c, 0, 70, 109
1, 159423, Note_off_c, 0, 70, 109
1, 159423, Note_on_c, 0, 69, 103
1, 159592, Note_off_c, 0, 69, 103
1, 159592, Note_on_c, 0, 67, 104
1, 159791, Note_off_c, 0, 67, 104
1, 159798, Note_on_c, 0, 65, 103
1, 160009, Note_off_c, 0, 65, 103
1, 160009, Note_on_c, 0, 63, 101
1, 160230, Note_off_c, 0, 63, 101
1, 160265, Note_on_c, 0, 60, 96
1, 160411, Note_off_c, 0, 60, 96
1, 160426, Note_on_c, 0, 61, 104
1, 160546, Note_off_c, 0, 61, 104
1, 160614, Note_on_c, 0, 62, 107
1, 160886, Note_off_c, 0, 62, 107
1, 160906, Note_on_c, 0, 60, 109
1, 160989, Note_off_c, 0, 60, 109
1, 161009, Note_on_c, 0, 58, 101
1, 161139, Note_off_c, 0, 58, 101
1, 161139, Note_on_c, 0, 63, 97
1, 161212, Note_off_c, 0, 63, 97
1, 161212, Note_on_c, 0, 65, 93
1, 161241, Note_off_c, 0, 65, 93
1, 161285, Note_on_c, 0, 66, 92
1, 161366, Note_off_c, 0, 66, 92
1, 161395, Note_on_c, 0, 69, 112
1, 161682, Note_off_c, 0, 69, 112
1, 161696, Note_on_c, 0, 65, 109
1, 161828, Note_off_c, 0, 65, 109
1, 161828, Note_on_c, 0, 67, 109
1, 162012, Note_off_c, 0, 67, 109
1, 162078, Note_on_c, 0, 69, 107
1, 162291, Note_off_c, 0, 69, 107
1, 162335, Note_on_c, 0, 71, 109
1, 162526, Note_on_c, 0, 72, 103
1, 162526, Note_off_c, 0, 71, 109
1, 162666, Note_off_c, 0, 72, 103
1, 162717, Note_on_c, 0, 74, 111
1, 162901, Note_off_c, 0, 74, 111
1, 162915, Note_on_c, 0, 72, 116
1, 163158, Note_off_c, 0, 72, 116
1, 163202, Note_on_c, 0, 71, 102
1, 163378, Note_off_c, 0, 71, 102
1, 163407, Note_on_c, 0, 68, 108
1, 163606, Note_off_c, 0, 68, 108
1, 163606, Note_on_c, 0, 69, 101
1, 163827, Note_off_c, 0, 69, 101
1, 163827, Note_on_c, 0, 65, 106
1, 163974, Note_off_c, 0, 65, 106
1, 163996, Note_on_c, 0, 61, 99
1, 164143, Note_off_c, 0, 61, 99
1, 164143, Note_on_c, 0, 57, 96
1, 164378, Note_off_c, 0, 57, 96
1, 164503, Note_on_c, 0, 60, 107
1, 164687, Note_off_c, 0, 60, 107
1, 164687, Note_on_c, 0, 57, 96
1, 164856, Note_off_c, 0, 57, 96
1, 164892, Note_on_c, 0, 59, 110
1, 165172, Note_off_c, 0, 59, 110
1, 166786, Note_on_c, 0, 58, 106
1, 166896, Note_off_c, 0, 58, 106
1, 166962, Note_on_c, 0, 60, 105
1, 167124, Note_off_c, 0, 60, 105
1, 167153, Note_on_c, 0, 62, 104
1, 167381, Note_off_c, 0, 62, 104
1, 167395, Note_on_c, 0, 61, 108
1, 167468, Note_off_c, 0, 61, 108
1, 167482, Note_on_c, 0, 59, 103
1, 167563, Note_off_c, 0, 59, 103
1, 167585, Note_on_c, 0, 58, 98
1, 167651, Note_off_c, 0, 58, 98
1, 167651, Note_on_c, 0, 62, 100
1, 167857, Note_off_c, 0, 62, 100
1, 167857, Note_on_c, 0, 67, 100
1, 167967, Note_off_c, 0, 67, 100
1, 167989, Note_on_c, 0, 71, 116
1, 168210, Note_off_c, 0, 71, 116
1, 168667, Note_on_c, 0, 58, 112
1, 168777, Note_off_c, 0, 58, 112
1, 168791, Note_on_c, 0, 59, 104
1, 168945, Note_off_c, 0, 59, 104
1, 168952, Note_on_c, 0, 61, 107
1, 169018, Note_off_c, 0, 61, 107
1, 169062, Note_on_c, 0, 63, 109
1, 169187, Note_on_c, 0, 62, 107
1, 169187, Note_off_c, 0, 63, 109
1, 169282, Note_off_c, 0, 62, 107
1, 169289, Note_on_c, 0, 60, 105
1, 169392, Note_off_c, 0, 60, 105
1, 169392, Note_on_c, 0, 59, 102
1, 169627, Note_off_c, 0, 59, 102
1, 169678, Note_on_c, 0, 76, 117
1, 169906, Note_off_c, 0, 76, 117
1, 169906, Note_on_c, 0, 75, 116
1, 170060, Note_off_c, 0, 75, 116
1, 170082, Note_on_c, 0, 72, 108
1, 170362, Note_off_c, 0, 72, 108
1, 170376, Note_on_c, 0, 59, 124
1, 170516, Note_off_c, 0, 59, 124
1, 170552, Note_on_c, 0, 60, 103
1, 170669, Note_off_c, 0, 60, 103
1, 170720, Note_on_c, 0, 62, 102
1, 170926, Note_off_c, 0, 62, 102
1, 170926, Note_on_c, 0, 60, 99
1, 171043, Note_off_c, 0, 60, 99
1, 171079, Note_on_c, 0, 59, 101
1, 171248, Note_off_c, 0, 59, 101
1, 171498, Note_on_c, 0, 76, 113
1, 171645, Note_off_c, 0, 76, 113
1, 171667, Note_on_c, 0, 75, 113
1, 171799, Note_off_c, 0, 75, 113
1, 171828, Note_on_c, 0, 72, 113
1, 172034, Note_off_c, 0, 72, 113
1, 172328, Note_on_c, 0, 59, 104
1, 172482, Note_off_c, 0, 59, 104
1, 172518, Note_on_c, 0, 61, 97
1, 172599, Note_off_c, 0, 61, 97
1, 172665, Note_on_c, 0, 62, 99
1, 172753, Note_off_c, 0, 62, 99
1, 172797, Note_on_c, 0, 60, 102
1, 172863, Note_off_c, 0, 60, 102
1, 172892, Note_on_c, 0, 59, 106
1, 173127, Note_off_c, 0, 59, 106
1, 173355, Note_on_c, 0, 76, 116
1, 173531, Note_off_c, 0, 76, 116
1, 173575, Note_on_c, 0, 75, 118
1, 173656, Note_off_c, 0, 75, 118
1, 173685, Note_on_c, 0, 74, 111
1, 173825, Note_off_c, 0, 74, 111
1, 173935, Note_on_c, 0, 59, 97
1, 174097, Note_off_c, 0, 59, 97
1, 174133, Note_on_c, 0, 60, 100
1, 174221, Note_off_c, 0, 60, 100
1, 174272, Note_on_c, 0, 61, 101
1, 174353, Note_off_c, 0, 61, 101
1, 174397, Note_on_c, 0, 62, 101
1, 174551, Note_off_c, 0, 62, 101
1, 174632, Note_on_c, 0, 59, 106
1, 174683, Note_off_c, 0, 59, 106
1, 174741, Note_on_c, 0, 60, 103
1, 174807, Note_off_c, 0, 60, 103
1, 174851, Note_on_c, 0, 62, 108
1, 174924, Note_off_c, 0, 62, 108
1, 174931, Note_on_c, 0, 60, 104
1, 174975, Note_off_c, 0, 60, 104
1, 175026, Note_on_c, 0, 59, 98
1, 175180, Note_off_c, 0, 59, 98
1, 175216, Note_on_c, 0, 64, 88
1, 175356, Note_off_c, 0, 64, 88
1, 175442, Note_on_c, 0, 71, 108
1, 175736, Note_off_c, 0, 71, 108
1, 177081, Note_on_c, 0, 50, 117
1, 177368, Note_off_c, 0, 50, 117
1, 177394, Note_on_c, 0, 62, 104
1, 177858, Note_off_c, 0, 62, 104
1, 177931, Note_on_c, 0, 69, 108
1, 178270, Note_off_c, 0, 69, 108
1, 178284, Note_on_c, 0, 74, 118
1, 178797, Note_off_c, 0, 74, 118
1, 178985, Note_on_c, 0, 86, 88
1, 179614, Note_off_c, 0, 86, 88
1, 180001, Note_on_c, 0, 81, 113
1, 180588, Note_off_c, 0, 81, 113
1, 180797, Note_on_c, 0, 77, 114
1, 181300, Note_off_c, 0, 77, 114
1, 181394, Note_on_c, 0, 53, 109
1, 181823, Note_off_c, 0, 53, 109
1, 182273, Note_on_c, 0, 69, 110
1, 182734, Note_off_c, 0, 69, 110
1, 183090, Note_on_c, 0, 76, 117
1, 183456, Note_off_c, 0, 76, 117
1, 183875, Note_on_c, 0, 79, 109
1, 184283, Note_off_c, 0, 79, 109
1, 184283, Note_on_c, 0, 77, 113
1, 184618, Note_off_c, 0, 77, 113
1, 184827, Note_on_c, 0, 74, 81
1, 185015, Note_off_c, 0, 74, 81
1, 185035, Note_on_c, 0, 76, 112
1, 185433, Note_off_c, 0, 76, 112
1, 185527, Note_on_c, 0, 53, 107
1, 185925, Note_off_c, 0, 53, 107
1, 186291, Note_on_c, 0, 55, 112
1, 186794, Note_off_c, 0, 55, 112
1, 188146, Note_on_c, 0, 55, 108
1, 188477, Note_off_c, 0, 55, 108
1, 188638, Note_on_c, 0, 62, 96
1, 188847, Note_off_c, 0, 62, 96
1, 188930, Note_on_c, 0, 65, 95
1, 189160, Note_off_c, 0, 65, 95
1, 189264, Note_on_c, 0, 67, 113
1, 189568, Note_off_c, 0, 67, 113
1, 189840, Note_on_c, 0, 67, 104
1, 192114, Note_off_c, 0, 67, 104
1, 192176, Note_on_c, 0, 68, 108
1, 192312, Note_off_c, 0, 68, 108
1, 192332, Note_on_c, 0, 69, 94
1, 192447, Note_off_c, 0, 69, 94
1, 192457, Note_on_c, 0, 70, 109
1, 193861, Note_off_c, 0, 70, 109
1, 193986, Note_on_c, 0, 70, 106
1, 194132, Note_off_c, 0, 70, 106
1, 194163, Note_on_c, 0, 72, 112
1, 194267, Note_on_c, 0, 74, 102
1, 194267, Note_off_c, 0, 72, 112
1, 194434, Note_off_c, 0, 74, 102
1, 194434, Note_on_c, 0, 71, 109
1, 194528, Note_off_c, 0, 71, 109
1, 194538, Note_on_c, 0, 70, 106
1, 194747, Note_off_c, 0, 70, 106
1, 194747, Note_on_c, 0, 67, 106
1, 195011, Note_off_c, 0, 67, 106
1, 195011, Note_on_c, 0, 65, 113
1, 195136, Note_off_c, 0, 65, 113
1, 195150, Note_on_c, 0, 63, 107
1, 195297, Note_off_c, 0, 63, 107
1, 195326, Note_on_c, 0, 60, 95
1, 195510, Note_off_c, 0, 60, 95
1, 195561, Note_on_c, 0, 61, 100
1, 195760, Note_off_c, 0, 61, 100
1, 195863, Note_on_c, 0, 62, 103
1, 196084, Note_off_c, 0, 62, 103
1, 196128, Note_on_c, 0, 61, 102
1, 196319, Note_off_c, 0, 61, 102
1, 196333, Note_on_c, 0, 60, 102
1, 196502, Note_off_c, 0, 60, 102
1, 196516, Note_on_c, 0, 58, 95
1, 196692, Note_off_c, 0, 58, 95
1, 198122, Note_on_c, 0, 62, 99
1, 198254, Note_off_c, 0, 62, 99
1, 198254, Note_on_c, 0, 60, 106
1, 198430, Note_off_c, 0, 60, 106
1, 198452, Note_on_c, 0, 57, 103
1, 198569, Note_off_c, 0, 57, 103
1, 198598, Note_on_c, 0, 58, 107
1, 198752, Note_off_c, 0, 58, 107
1, 198759, Note_on_c, 0, 59, 98
1, 198891, Note_off_c, 0, 59, 98
1, 199045, Note_on_c, 0, 62, 107
1, 199420, Note_off_c, 0, 62, 107
1, 202951, Note_on_c, 0, 67, 109
1, 203328, Note_off_c, 0, 67, 109
1, 203390, Note_on_c, 0, 71, 108
1, 203673, Note_off_c, 0, 71, 108
1, 203673, Note_on_c, 0, 73, 120
1, 203914, Note_off_c, 0, 73, 120
1, 203924, Note_on_c, 0, 75, 115
1, 204133, Note_off_c, 0, 75, 115
1, 204153, Note_on_c, 0, 73, 118
1, 204247, Note_off_c, 0, 73, 118
1, 204252, Note_on_c, 0, 72, 118
1, 204330, Note_off_c, 0, 72, 118
1, 204330, Note_on_c, 0, 70, 111
1, 204560, Note_off_c, 0, 70, 111
1, 204560, Note_on_c, 0, 67, 104
1, 204916, Note_off_c, 0, 67, 104
1, 204957, Note_on_c, 0, 65, 104
1, 205575, Note_off_c, 0, 65, 104
1, 207315, Note_on_c, 0, 67, 108
1, 207660, Note_off_c, 0, 67, 108
1, 207660, Note_on_c, 0, 70, 109
1, 207953, Note_off_c, 0, 70, 109
1, 207994, Note_on_c, 0, 72, 117
1, 208339, Note_off_c, 0, 72, 117
1, 210404, Note_on_c, 0, 64, 89
1, 210540, Note_off_c, 0, 64, 89
1, 210623, Note_on_c, 0, 67, 109
1, 210853, Note_on_c, 0, 70, 105
1, 210853, Note_off_c, 0, 67, 109
1, 211136, Note_off_c, 0, 70, 105
1, 211240, Note_on_c, 0, 70, 109
1, 211512, Note_off_c, 0, 70, 109
1, 211669, Note_on_c, 0, 70, 111
1, 211910, Note_off_c, 0, 70, 111
1, 211941, Note_on_c, 0, 67, 100
1, 212161, Note_off_c, 0, 67, 100
1, 212276, Note_on_c, 0, 71, 114
1, 212359, Note_off_c, 0, 71, 114
1, 212359, Note_on_c, 0, 72, 120
1, 212537, Note_off_c, 0, 72, 120
1, 212610, Note_on_c, 0, 72, 117
1, 212893, Note_off_c, 0, 72, 117
1, 212987, Note_on_c, 0, 67, 102
1, 213196, Note_off_c, 0, 67, 102
1, 213279, Note_on_c, 0, 70, 108
1, 213478, Note_off_c, 0, 70, 108
1, 213540, Note_on_c, 0, 70, 114
1, 213791, Note_off_c, 0, 70, 114
1, 213916, Note_on_c, 0, 70, 115
1, 214261, Note_off_c, 0, 70, 115
1, 214281, Note_on_c, 0, 67, 108
1, 214511, Note_off_c, 0, 67, 108
1, 214573, Note_on_c, 0, 71, 112
1, 214625, Note_off_c, 0, 71, 112
1, 214625, Note_on_c, 0, 72, 120
1, 214876, Note_off_c, 0, 72, 120
1, 214949, Note_on_c, 0, 72, 117
1, 215179, Note_off_c, 0, 72, 117
1, 215199, Note_on_c, 0, 67, 98
1, 215492, Note_off_c, 0, 67, 98
1, 215492, Note_on_c, 0, 70, 102
1, 215743, Note_off_c, 0, 70, 102
1, 215826, Note_on_c, 0, 70, 116
1, 216046, Note_off_c, 0, 70, 116
1, 216150, Note_on_c, 0, 70, 9
1, 216506, Note_off_c, 0, 70, 9
1, 216516, Note_on_c, 0, 67, 94
1, 216725, Note_on_c, 0, 71, 112
1, 216725, Note_off_c, 0, 67, 94
1, 216861, Note_off_c, 0, 71, 112
1, 216881, Note_on_c, 0, 72, 116
1, 217101, Note_off_c, 0, 72, 116
1, 217195, Note_on_c, 0, 72, 118
1, 217467, Note_off_c, 0, 72, 118
1, 217467, Note_on_c, 0, 67, 102
1, 217718, Note_off_c, 0, 67, 102
1, 217749, Note_on_c, 0, 70, 107
1, 217853, Note_off_c, 0, 70, 107
1, 217853, Note_on_c, 0, 71, 105
1, 217947, Note_off_c, 0, 71, 105
1, 218041, Note_on_c, 0, 72, 125
1, 218292, Note_off_c, 0, 72, 125
1, 218323, Note_on_c, 0, 72, 119
1, 218595, Note_off_c, 0, 72, 119
1, 218647, Note_on_c, 0, 67, 92
1, 218919, Note_off_c, 0, 67, 92
1, 218929, Note_on_c, 0, 70, 112
1, 219233, Note_off_c, 0, 70, 112
1, 219264, Note_on_c, 0, 72, 119
1, 220039, Note_off_c, 0, 72, 119
1, 221122, Note_on_c, 0, 70, 116
1, 221284, Note_off_c, 0, 70, 116
1, 221335, Note_on_c, 0, 72, 118
1, 221482, Note_off_c, 0, 72, 118
1, 221482, Note_on_c, 0, 74, 121
1, 221666, Note_off_c, 0, 74, 121
1, 221739, Note_on_c, 0, 72, 127
1, 221915, Note_off_c, 0, 72, 127
1, 221937, Note_on_c, 0, 71, 114
1, 222091, Note_off_c, 0, 71, 114
1, 222091, Note_on_c, 0, 67, 111
1, 222231, Note_off_c, 0, 67, 111
1, 222231, Note_on_c, 0, 68, 116
1, 222378, Note_off_c, 0, 68, 116
1, 222400, Note_on_c, 0, 69, 118
1, 222562, Note_off_c, 0, 69, 118
1, 222679, Note_on_c, 0, 65, 119
1, 222848, Note_off_c, 0, 65, 119
1, 222848, Note_on_c, 0, 62, 102
1, 223039, Note_off_c, 0, 62, 102
1, 227506, Note_on_c, 0, 78, 88
1, 227652, Note_off_c, 0, 78, 88
1, 227683, Note_on_c, 0, 79, 117
1, 227924, Note_off_c, 0, 79, 117
1, 227965, Note_on_c, 0, 77, 126
1, 228279, Note_off_c, 0, 77, 126
1, 228362, Note_on_c, 0, 71, 96
1, 228592, Note_off_c, 0, 71, 96
1, 228665, Note_on_c, 0, 75, 120
1, 228895, Note_off_c, 0, 75, 120
1, 228895, Note_on_c, 0, 76, 119
1, 229199, Note_off_c, 0, 76, 119
1, 229199, Note_on_c, 0, 74, 119
1, 229513, Note_off_c, 0, 74, 119
1, 229565, Note_on_c, 0, 69, 113
1, 229869, Note_off_c, 0, 69, 113
1, 229889, Note_on_c, 0, 68, 96
1, 230056, Note_off_c, 0, 68, 96
1, 230213, Note_on_c, 0, 62, 100
1, 232802, Note_off_c, 0, 62, 100
1, 232896, Note_on_c, 0, 64, 111
1, 233231, Note_off_c, 0, 64, 111
1, 233419, Note_on_c, 0, 62, 101
1, 233565, Note_off_c, 0, 62, 101
1, 233680, Note_on_c, 0, 67, 110
1, 234592, Note_off_c, 0, 67, 110
1, 234623, Note_on_c, 0, 66, 103
1, 234769, Note_off_c, 0, 66, 103
1, 237914, Note_on_c, 0, 75, 113
1, 238165, Note_off_c, 0, 75, 113
1, 238206, Note_on_c, 0, 77, 116
1, 238415, Note_off_c, 0, 77, 116
1, 238435, Note_on_c, 0, 75, 120
1, 238634, Note_off_c, 0, 75, 120
1, 238654, Note_on_c, 0, 74, 120
1, 238884, Note_off_c, 0, 74, 120
1, 238884, Note_on_c, 0, 72, 119
1, 239104, Note_off_c, 0, 72, 119
1, 239104, Note_on_c, 0, 70, 116
1, 239292, Note_off_c, 0, 70, 116
1, 239292, Note_on_c, 0, 69, 114
1, 239459, Note_off_c, 0, 69, 114
1, 239469, Note_on_c, 0, 67, 109
1, 239657, Note_off_c, 0, 67, 109
1, 239657, Note_on_c, 0, 65, 107
1, 239898, Note_off_c, 0, 65, 107
1, 239918, Note_on_c, 0, 63, 100
1, 240159, Note_off_c, 0, 63, 100
1, 240177, Note_on_c, 0, 60, 104
1, 240280, Note_off_c, 0, 60, 104
1, 240302, Note_on_c, 0, 61, 110
1, 240390, Note_off_c, 0, 61, 110
1, 240456, Note_on_c, 0, 62, 114
1, 240699, Note_off_c, 0, 62, 114
1, 240713, Note_on_c, 0, 60, 99
1, 240853, Note_off_c, 0, 60, 99
1, 240890, Note_on_c, 0, 58, 105
1, 241007, Note_off_c, 0, 58, 105
1, 241058, Note_on_c, 0, 61, 114
1, 241146, Note_off_c, 0, 61, 114
1, 241160, Note_on_c, 0, 65, 104
1, 241292, Note_off_c, 0, 65, 104
1, 241321, Note_on_c, 0, 69, 117
1, 241505, Note_off_c, 0, 69, 117
1, 241534, Note_on_c, 0, 65, 113
1, 241674, Note_off_c, 0, 65, 113
1, 241714, Note_on_c, 0, 67, 111
1, 241824, Note_off_c, 0, 67, 111
1, 241855, Note_on_c, 0, 67, 111
1, 241949, Note_off_c, 0, 67, 111
1, 241949, Note_on_c, 0, 69, 113
1, 242066, Note_off_c, 0, 69, 113
1, 242094, Note_on_c, 0, 69, 92
1, 242848, Note_off_c, 0, 69, 92
1, 242864, Note_on_c, 0, 77, 122
1, 243365, Note_off_c, 0, 77, 122
1, 243486, Note_on_c, 0, 64, 99
1, 243554, Note_off_c, 0, 64, 99
1, 243569, Note_on_c, 0, 62, 99
1, 243652, Note_off_c, 0, 62, 99
1, 243678, Note_on_c, 0, 65, 98
1, 248862, Note_off_c, 0, 65, 98
1, 248862, End_track
0, 0, End_of_file
