0, 0, Header, 1, 1, 192
1, 0, Start_track
1, 0, Note_on_c, 0, 79, 119
1, 521, Title_t, "Melody"
1, 521, Tempo, 348837
1, 521, Key_signature, -3, "major"
1, 521, Time_signature, 4, 2, 24, 8
1, 524, Note_off_c, 0, 79, 119
1, 550, Note_on_c, 0, 75, 107
1, 585, Note_off_c, 0, 75, 107
1, 593, Note_on_c, 0, 77, 122
1, 911, Note_off_c, 0, 77, 122
1, 911, Note_on_c, 0, 76, 122
1, 1006, Note_off_c, 0, 76, 122
1, 1006, Note_on_c, 0, 74, 118
1, 1047, Note_off_c, 0, 74, 118
1, 1056, Note_on_c, 0, 73, 112
1, 1091, Note_off_c, 0, 73, 112
1, 1097, Note_on_c, 0, 72, 109
1, 1173, Note_off_c, 0, 72, 109
1, 1201, Note_on_c, 0, 71, 114
1, 1290, Note_off_c, 0, 71, 114
1, 1309, Note_on_c, 0, 70, 125
1, 1398, Note_off_c, 0, 70, 125
1, 1398, Note_on_c, 0, 67, 113
1, 1471, Note_off_c, 0, 67, 113
1, 1483, Note_on_c, 0, 68, 116
1, 1543, Note_off_c, 0, 68, 116
1, 1552, Note_on_c, 0, 70, 124
1, 1615, Note_off_c, 0, 70, 124
1, 1624, Note_on_c, 0, 68, 118
1, 1681, Note_off_c, 0, 68, 118
1, 1687, Note_on_c, 0, 67, 124
1, 1744, Note_off_c, 0, 67, 124
1, 1756, Note_on_c, 0, 69, 118
1, 1794, Note_off_c, 0, 69, 118
1, 1822, Note_on_c, 0, 66, 101
1, 1879, Note_off_c, 0, 66, 101
1, 1891, Note_on_c, 0, 62, 101
1, 1954, Note_on_c, 0, 65, 98
1, 1954, Note_off_c, 0, 62, 101
1, 2056, Note_off_c, 0, 65, 98
1, 2068, Note_on_c, 0, 63, 99
1, 2128, Note_off_c, 0, 63, 99
1, 2169, Note_on_c, 0, 55, 105
1, 2239, Note_off_c, 0, 55, 105
1, 2251, Note_on_c, 0, 56, 97
1, 2366, Note_off_c, 0, 56, 97
1, 2372, Note_on_c, 0, 58, 89
1, 2685, Note_off_c, 0, 58, 89
1, 2927, Note_on_c, 0, 55, 106
1, 2990, Note_off_c, 0, 55, 106
1, 2990, Note_on_c, 0, 58, 99
1, 3028, Note_off_c, 0, 58, 99
1, 3043, Note_on_c, 0, 62, 100
1, 3074, Note_off_c, 0, 62, 100
1, 3077, Note_on_c, 0, 65, 109
1, 3207, Note_off_c, 0, 65, 109
1, 3226, Note_on_c, 0, 62, 104
1, 3302, Note_off_c, 0, 62, 104
1, 3304, Note_on_c, 0, 63, 106
1, 3371, Note_off_c, 0, 63, 106
1, 3379, Note_on_c, 0, 65, 116
1, 3464, Note_off_c, 0, 65, 116
1, 3481, Note_on_c, 0, 67, 120
1, 3557, Note_off_c, 0, 67, 120
1, 3583, Note_on_c, 0, 70, 125
1, 3686, Note_off_c, 0, 70, 125
1, 3703, Note_on_c, 0, 73, 119
1, 3806, Note_off_c, 0, 73, 119
1, 3823, Note_on_c, 0, 71, 109
1, 3894, Note_off_c, 0, 71, 109
1, 3907, Note_on_c, 0, 68, 109
1, 4702, Note_off_c, 0, 68, 109
1, 5108, Note_on_c, 0, 69, 82
1, 5139, Note_off_c, 0, 69, 82
1, 5156, Note_on_c, 0, 70, 122
1, 5207, Note_off_c, 0, 70, 122
1, 5224, Note_on_c, 0, 71, 113
1, 5257, Note_off_c, 0, 71, 113
1, 5259, Note_on_c, 0, 72, 112
1, 5297, Note_off_c, 0, 72, 112
1, 5305, Note_on_c, 0, 71, 117
1, 5343, Note_on_c, 0, 70, 117
1, 5343, Note_off_c, 0, 71, 117
1, 5390, Note_off_c, 0, 70, 117
1, 5390, Note_on_c, 0, 69, 117
1, 5416, Note_off_c, 0, 69, 117
1, 5429, Note_on_c, 0, 70, 118
1, 5464, Note_off_c, 0, 70, 118
1, 5479, Note_on_c, 0, 71, 107
1, 5517, Note_off_c, 0, 71, 107
1, 5517, Note_on_c, 0, 72, 106
1, 5566, Note_off_c, 0, 72, 106
1, 5567, Note_on_c, 0, 71, 110
1, 5610, Note_off_c, 0, 71, 110
1, 5619, Note_on_c, 0, 70, 120
1, 5654, Note_on_c, 0, 69, 119
1, 5654, Note_off_c, 0, 70, 120
1, 5669, Note_off_c, 0, 69, 119
1, 5673, Note_on_c, 0, 70, 116
1, 5709, Note_off_c, 0, 70, 116
1, 5710, Note_on_c, 0, 69, 115
1, 5733, Note_off_c, 0, 69, 115
1, 5742, Note_on_c, 0, 68, 104
1, 5780, Note_off_c, 0, 68, 104
1, 5968, Note_on_c, 0, 68, 98
1, 5999, Note_off_c, 0, 68, 98
1, 6010, Note_on_c, 0, 69, 125
1, 6054, Note_off_c, 0, 69, 125
1, 6058, Note_on_c, 0, 70, 120
1, 6091, Note_off_c, 0, 70, 120
1, 6106, Note_on_c, 0, 69, 121
1, 6275, Note_off_c, 0, 69, 121
1, 6279, Note_on_c, 0, 67, 115
1, 6307, Note_off_c, 0, 67, 115
1, 6313, Note_on_c, 0, 62, 102
1, 6381, Note_off_c, 0, 62, 102
1, 6408, Note_on_c, 0, 65, 105
1, 6499, Note_off_c, 0, 65, 105
1, 6506, Note_on_c, 0, 63, 103
1, 6593, Note_off_c, 0, 63, 103
1, 6600, Note_on_c, 0, 58, 106
1, 6657, Note_off_c, 0, 58, 106
1, 6666, Note_on_c, 0, 55, 106
1, 6784, Note_off_c, 0, 55, 106
1, 6784, Note_on_c, 0, 56, 99
1, 6854, Note_off_c, 0, 56, 99
1, 6854, Note_on_c, 0, 58, 95
1, 7146, Note_off_c, 0, 58, 95
1, 7762, Note_on_c, 0, 70, 101
1, 7829, Note_off_c, 0, 70, 101
1, 7832, Note_on_c, 0, 75, 114
1, 7919, Note_off_c, 0, 75, 114
1, 8388, Note_on_c, 0, 74, 116
1, 8495, Note_off_c, 0, 74, 116
1, 8507, Note_on_c, 0, 75, 114
1, 8580, Note_off_c, 0, 75, 114
1, 8587, Note_on_c, 0, 74, 113
1, 8679, Note_off_c, 0, 74, 113
1, 8699, Note_on_c, 0, 76, 93
1, 8754, Note_off_c, 0, 76, 93
1, 8833, Note_on_c, 0, 70, 106
1, 8903, Note_off_c, 0, 70, 106
1, 8904, Note_on_c, 0, 67, 115
1, 8971, Note_off_c, 0, 67, 115
1, 8978, Note_on_c, 0, 68, 108
1, 9021, Note_off_c, 0, 68, 108
1, 9031, Note_on_c, 0, 70, 116
1, 9097, Note_off_c, 0, 70, 116
1, 9102, Note_on_c, 0, 68, 114
1, 9154, Note_off_c, 0, 68, 114
1, 9166, Note_on_c, 0, 67, 113
1, 9235, Note_off_c, 0, 67, 113
1, 9243, Note_on_c, 0, 69, 114
1, 9287, Note_off_c, 0, 69, 114
1, 9294, Note_on_c, 0, 67, 112
1, 9331, Note_off_c, 0, 67, 112
1, 9337, Note_on_c, 0, 65, 97
1, 9362, Note_off_c, 0, 65, 97
1, 9369, Note_on_c, 0, 62, 98
1, 9452, Note_off_c, 0, 62, 98
1, 9477, Note_on_c, 0, 65, 103
1, 9544, Note_off_c, 0, 65, 103
1, 9548, Note_on_c, 0, 63, 95
1, 9624, Note_off_c, 0, 63, 95
1, 9657, Note_on_c, 0, 55, 106
1, 9733, Note_off_c, 0, 55, 106
1, 9744, Note_on_c, 0, 56, 97
1, 9846, Note_off_c, 0, 56, 97
1, 9857, Note_on_c, 0, 58, 107
1, 9919, Note_off_c, 0, 58, 107
1, 9931, Note_on_c, 0, 55, 107
1, 9996, Note_off_c, 0, 55, 107
1, 10003, Note_on_c, 0, 56, 101
1, 10049, Note_off_c, 0, 56, 101
1, 10056, Note_on_c, 0, 58, 99
1, 10087, Note_off_c, 0, 58, 99
1, 10091, Note_on_c, 0, 62, 94
1, 10127, Note_off_c, 0, 62, 94
1, 10142, Note_on_c, 0, 65, 110
1, 10242, Note_off_c, 0, 65, 110
1, 10251, Note_on_c, 0, 62, 93
1, 10303, Note_off_c, 0, 62, 93
1, 10315, Note_on_c, 0, 63, 101
1, 10390, Note_off_c, 0, 63, 101
1, 10402, Note_on_c, 0, 65, 99
1, 10435, Note_off_c, 0, 65, 99
1, 10442, Note_on_c, 0, 67, 108
1, 10509, Note_off_c, 0, 67, 108
1, 10524, Note_on_c, 0, 70, 120
1, 10632, Note_off_c, 0, 70, 120
1, 10654, Note_on_c, 0, 72, 103
1, 10708, Note_off_c, 0, 72, 103
1, 10725, Note_on_c, 0, 73, 114
1, 10832, Note_off_c, 0, 73, 114
1, 10843, Note_on_c, 0, 72, 107
1, 10898, Note_off_c, 0, 72, 107
1, 10904, Note_on_c, 0, 70, 119
1, 11027, Note_off_c, 0, 70, 119
1, 11028, Note_on_c, 0, 67, 109
1, 11096, Note_off_c, 0, 67, 109
1, 11103, Note_on_c, 0, 68, 115
1, 11197, Note_off_c, 0, 68, 115
1, 11462, Note_on_c, 0, 68, 119
1, 11529, Note_off_c, 0, 68, 119
1, 11540, Note_on_c, 0, 70, 122
1, 11599, Note_off_c, 0, 70, 122
1, 11602, Note_on_c, 0, 67, 114
1, 11640, Note_off_c, 0, 67, 114
1, 11647, Note_on_c, 0, 66, 109
1, 11678, Note_off_c, 0, 66, 109
1, 11695, Note_on_c, 0, 65, 106
1, 11762, Note_off_c, 0, 65, 106
1, 11781, Note_on_c, 0, 63, 106
1, 11851, Note_off_c, 0, 63, 106
1, 11865, Note_on_c, 0, 61, 92
1, 11968, Note_off_c, 0, 61, 92
1, 12766, Note_on_c, 0, 53, 114
1, 12823, Note_off_c, 0, 53, 114
1, 12834, Note_on_c, 0, 55, 101
1, 12873, Note_off_c, 0, 55, 101
1, 12887, Note_on_c, 0, 58, 94
1, 12933, Note_off_c, 0, 58, 94
1, 12944, Note_on_c, 0, 61, 103
1, 13012, Note_off_c, 0, 61, 103
1, 13047, Note_on_c, 0, 65, 111
1, 13146, Note_off_c, 0, 65, 111
1, 13149, Note_on_c, 0, 63, 98
1, 13209, Note_off_c, 0, 63, 98
1, 13212, Note_on_c, 0, 61, 91
1, 13311, Note_off_c, 0, 61, 91
1, 13312, Note_on_c, 0, 60, 97
1, 13377, Note_off_c, 0, 60, 97
1, 13389, Note_on_c, 0, 55, 105
1, 13548, Note_off_c, 0, 55, 105
1, 13552, Note_on_c, 0, 63, 98
1, 13599, Note_off_c, 0, 63, 98
1, 13621, Note_on_c, 0, 67, 119
1, 13723, Note_off_c, 0, 67, 119
1, 13734, Note_on_c, 0, 70, 127
1, 13817, Note_off_c, 0, 70, 127
1, 13823, Note_on_c, 0, 68, 111
1, 13957, Note_off_c, 0, 68, 111
1, 14000, Note_on_c, 0, 63, 96
1, 14102, Note_off_c, 0, 63, 96
1, 14113, Note_on_c, 0, 65, 105
1, 14236, Note_off_c, 0, 65, 105
1, 14240, Note_on_c, 0, 63, 100
1, 14359, Note_off_c, 0, 63, 100
1, 14390, Note_on_c, 0, 55, 105
1, 14482, Note_off_c, 0, 55, 105
1, 14482, Note_on_c, 0, 56, 94
1, 14563, Note_off_c, 0, 56, 94
1, 14564, Note_on_c, 0, 58, 95
1, 14848, Note_off_c, 0, 58, 95
1, 15651, Note_on_c, 0, 70, 115
1, 15692, Note_off_c, 0, 70, 115
1, 15703, Note_on_c, 0, 67, 102
1, 15725, Note_off_c, 0, 67, 102
1, 15731, Note_on_c, 0, 63, 99
1, 15761, Note_off_c, 0, 63, 99
1, 15769, Note_on_c, 0, 64, 106
1, 15814, Note_off_c, 0, 64, 106
1, 15836, Note_on_c, 0, 66, 104
1, 15858, Note_off_c, 0, 66, 104
1, 15858, Note_on_c, 0, 68, 106
1, 15881, Note_off_c, 0, 68, 106
1, 15885, Note_on_c, 0, 70, 117
1, 16254, Note_off_c, 0, 70, 117
1, 16284, Note_on_c, 0, 68, 111
1, 16389, Note_off_c, 0, 68, 111
1, 16430, Note_on_c, 0, 68, 104
1, 16511, Note_off_c, 0, 68, 104
1, 16538, Note_on_c, 0, 68, 113
1, 16630, Note_off_c, 0, 68, 113
1, 16636, Note_on_c, 0, 66, 108
1, 16725, Note_off_c, 0, 66, 108
1, 16768, Note_on_c, 0, 66, 106
1, 16847, Note_off_c, 0, 66, 106
1, 16882, Note_on_c, 0, 66, 107
1, 16897, Note_off_c, 0, 66, 107
1, 16914, Note_on_c, 0, 65, 99
1, 17107, Note_off_c, 0, 65, 99
1, 17325, Note_on_c, 0, 60, 106
1, 17355, Note_off_c, 0, 60, 106
1, 17369, Note_on_c, 0, 63, 97
1, 17394, Note_off_c, 0, 63, 97
1, 17394, Note_on_c, 0, 67, 110
1, 17448, Note_off_c, 0, 67, 110
1, 17448, Note_on_c, 0, 70, 116
1, 17519, Note_off_c, 0, 70, 116
1, 17519, Note_on_c, 0, 67, 101
1, 17568, Note_off_c, 0, 67, 101
1, 17573, Note_on_c, 0, 69, 108
1, 17633, Note_off_c, 0, 69, 108
1, 17639, Note_on_c, 0, 67, 107
1, 17679, Note_off_c, 0, 67, 107
1, 17690, Note_on_c, 0, 65, 104
1, 17737, Note_off_c, 0, 65, 104
1, 17737, Note_on_c, 0, 63, 97
1, 17790, Note_off_c, 0, 63, 97
1, 17796, Note_on_c, 0, 62, 101
1, 17865, Note_off_c, 0, 62, 101
1, 17865, Note_on_c, 0, 65, 97
1, 17934, Note_off_c, 0, 65, 97
1, 17934, Note_on_c, 0, 62, 94
1, 17965, Note_off_c, 0, 62, 94
1, 17973, Note_on_c, 0, 63, 106
1, 18026, Note_off_c, 0, 63, 106
1, 18028, Note_on_c, 0, 66, 95
1, 18052, Note_off_c, 0, 66, 95
1, 18056, Note_on_c, 0, 69, 102
1, 18112, Note_off_c, 0, 69, 102
1, 18112, Note_on_c, 0, 71, 108
1, 18165, Note_off_c, 0, 71, 108
1, 18185, Note_on_c, 0, 73, 96
1, 18207, Note_off_c, 0, 73, 96
1, 18224, Note_on_c, 0, 74, 108
1, 18253, Note_off_c, 0, 74, 108
1, 18261, Note_on_c, 0, 76, 111
1, 18303, Note_off_c, 0, 76, 111
1, 18316, Note_on_c, 0, 75, 108
1, 18338, Note_off_c, 0, 75, 108
1, 18355, Note_on_c, 0, 74, 110
1, 18393, Note_off_c, 0, 74, 110
1, 18393, Note_on_c, 0, 73, 104
1, 18422, Note_off_c, 0, 73, 104
1, 18422, Note_on_c, 0, 71, 106
1, 18453, Note_off_c, 0, 71, 106
1, 18470, Note_on_c, 0, 69, 104
1, 18508, Note_off_c, 0, 69, 104
1, 18514, Note_on_c, 0, 67, 105
1, 18581, Note_off_c, 0, 67, 105
1, 18605, Note_on_c, 0, 70, 106
1, 18667, Note_off_c, 0, 70, 106
1, 18678, Note_on_c, 0, 68, 102
1, 18740, Note_off_c, 0, 68, 102
1, 19038, Note_on_c, 0, 68, 103
1, 19073, Note_off_c, 0, 68, 103
1, 19075, Note_on_c, 0, 69, 113
1, 19122, Note_off_c, 0, 69, 113
1, 19126, Note_on_c, 0, 70, 114
1, 19188, Note_off_c, 0, 70, 114
1, 19188, Note_on_c, 0, 69, 113
1, 19237, Note_off_c, 0, 69, 113
1, 19237, Note_on_c, 0, 67, 113
1, 19279, Note_off_c, 0, 67, 113
1, 19287, Note_on_c, 0, 63, 104
1, 19322, Note_off_c, 0, 63, 104
1, 19334, Note_on_c, 0, 62, 101
1, 19363, Note_off_c, 0, 62, 101
1, 19371, Note_on_c, 0, 63, 96
1, 19409, Note_off_c, 0, 63, 96
1, 19425, Note_on_c, 0, 65, 104
1, 19469, Note_off_c, 0, 65, 104
1, 19480, Note_on_c, 0, 62, 103
1, 19515, Note_off_c, 0, 62, 103
1, 19528, Note_on_c, 0, 63, 104
1, 19590, Note_off_c, 0, 63, 104
1, 19610, Note_on_c, 0, 62, 106
1, 19654, Note_off_c, 0, 62, 106
1, 19654, Note_on_c, 0, 60, 106
1, 19694, Note_off_c, 0, 60, 106
1, 19694, Note_on_c, 0, 57, 100
1, 19750, Note_off_c, 0, 57, 100
1, 19763, Note_on_c, 0, 55, 107
1, 19819, Note_off_c, 0, 55, 107
1, 19830, Note_on_c, 0, 53, 104
1, 19883, Note_off_c, 0, 53, 104
1, 19889, Note_on_c, 0, 51, 109
1, 19929, Note_off_c, 0, 51, 109
1, 19931, Note_on_c, 0, 46, 110
1, 19950, Note_off_c, 0, 46, 110
1, 19950, Note_on_c, 0, 53, 111
1, 19999, Note_off_c, 0, 53, 111
1, 20018, Note_on_c, 0, 50, 108
1, 20078, Note_off_c, 0, 50, 108
1, 20089, Note_on_c, 0, 47, 118
1, 20109, Note_off_c, 0, 47, 118
1, 20109, Note_on_c, 0, 42, 112
1, 20156, Note_off_c, 0, 42, 112
1, 20185, Note_on_c, 0, 46, 108
1, 20222, Note_off_c, 0, 46, 108
1, 20222, Note_on_c, 0, 51, 108
1, 20273, Note_off_c, 0, 51, 108
1, 20274, Note_on_c, 0, 49, 106
1, 20319, Note_off_c, 0, 49, 106
1, 20319, Note_on_c, 0, 46, 108
1, 20358, Note_off_c, 0, 46, 108
1, 20372, Note_on_c, 0, 50, 113
1, 20407, Note_off_c, 0, 50, 113
1, 20409, Note_on_c, 0, 49, 104
1, 20469, Note_off_c, 0, 49, 104
1, 20477, Note_on_c, 0, 46, 96
1, 20521, Note_off_c, 0, 46, 96
1, 20534, Note_on_c, 0, 43, 100
1, 20578, Note_off_c, 0, 43, 100
1, 20591, Note_on_c, 0, 41, 97
1, 20653, Note_off_c, 0, 41, 97
1, 20666, Note_on_c, 0, 43, 92
1, 20713, Note_off_c, 0, 43, 92
1, 20724, Note_on_c, 0, 46, 105
1, 20755, Note_off_c, 0, 46, 105
1, 20755, Note_on_c, 0, 51, 104
1, 20793, Note_off_c, 0, 51, 104
1, 20808, Note_on_c, 0, 55, 106
1, 20895, Note_off_c, 0, 55, 106
1, 20908, Note_on_c, 0, 54, 105
1, 20957, Note_off_c, 0, 54, 105
1, 20974, Note_on_c, 0, 58, 92
1, 21016, Note_off_c, 0, 58, 92
1, 21022, Note_on_c, 0, 63, 93
1, 21044, Note_off_c, 0, 63, 93
1, 21059, Note_on_c, 0, 64, 97
1, 21081, Note_off_c, 0, 64, 97
1, 21087, Note_on_c, 0, 65, 103
1, 21154, Note_off_c, 0, 65, 103
1, 21172, Note_on_c, 0, 62, 94
1, 21215, Note_off_c, 0, 62, 94
1, 21221, Note_on_c, 0, 64, 98
1, 21248, Note_off_c, 0, 64, 98
1, 21251, Note_on_c, 0, 67, 100
1, 21271, Note_off_c, 0, 67, 100
1, 21280, Note_on_c, 0, 69, 104
1, 21299, Note_off_c, 0, 69, 104
1, 21305, Note_on_c, 0, 71, 99
1, 21325, Note_off_c, 0, 71, 99
1, 21332, Note_on_c, 0, 72, 107
1, 21371, Note_off_c, 0, 72, 107
1, 21382, Note_on_c, 0, 73, 109
1, 21424, Note_off_c, 0, 73, 109
1, 21447, Note_on_c, 0, 69, 106
1, 21525, Note_off_c, 0, 69, 106
1, 21537, Note_on_c, 0, 68, 108
1, 21643, Note_off_c, 0, 68, 108
1, 21835, Note_on_c, 0, 68, 106
1, 21893, Note_off_c, 0, 68, 106
1, 21915, Note_on_c, 0, 60, 94
1, 21946, Note_off_c, 0, 60, 94
1, 21954, Note_on_c, 0, 63, 100
1, 21985, Note_off_c, 0, 63, 100
1, 21987, Note_on_c, 0, 67, 107
1, 22018, Note_off_c, 0, 67, 107
1, 22023, Note_on_c, 0, 65, 107
1, 22058, Note_off_c, 0, 65, 107
1, 22061, Note_on_c, 0, 63, 101
1, 22115, Note_off_c, 0, 63, 101
1, 22115, Note_on_c, 0, 62, 99
1, 22171, Note_off_c, 0, 62, 99
1, 22181, Note_on_c, 0, 63, 95
1, 22213, Note_off_c, 0, 63, 95
1, 22213, Note_on_c, 0, 65, 96
1, 22270, Note_off_c, 0, 65, 96
1, 22273, Note_on_c, 0, 63, 107
1, 22308, Note_off_c, 0, 63, 107
1, 22316, Note_on_c, 0, 62, 106
1, 22344, Note_off_c, 0, 62, 106
1, 22344, Note_on_c, 0, 60, 106
1, 22372, Note_off_c, 0, 60, 106
1, 22376, Note_on_c, 0, 59, 107
1, 22410, Note_off_c, 0, 59, 107
1, 22412, Note_on_c, 0, 55, 108
1, 22488, Note_off_c, 0, 55, 108
1, 22494, Note_on_c, 0, 53, 110
1, 22545, Note_off_c, 0, 53, 110
1, 22546, Note_on_c, 0, 51, 110
1, 22593, Note_off_c, 0, 51, 110
1, 22602, Note_on_c, 0, 49, 111
1, 22630, Note_off_c, 0, 49, 111
1, 22635, Note_on_c, 0, 48, 117
1, 22677, Note_off_c, 0, 48, 117
1, 22683, Note_on_c, 0, 46, 108
1, 22720, Note_off_c, 0, 46, 108
1, 22732, Note_on_c, 0, 43, 107
1, 22781, Note_off_c, 0, 43, 107
1, 22794, Note_on_c, 0, 42, 105
1, 22853, Note_off_c, 0, 42, 105
1, 22868, Note_on_c, 0, 50, 111
1, 22907, Note_off_c, 0, 50, 111
1, 22910, Note_on_c, 0, 53, 111
1, 22952, Note_off_c, 0, 53, 111
1, 22953, Note_on_c, 0, 52, 108
1, 22993, Note_off_c, 0, 52, 108
1, 23014, Note_on_c, 0, 58, 101
1, 23069, Note_off_c, 0, 58, 101
1, 23077, Note_on_c, 0, 62, 92
1, 23098, Note_off_c, 0, 62, 92
1, 23102, Note_on_c, 0, 65, 91
1, 23133, Note_off_c, 0, 65, 91
1, 23143, Note_on_c, 0, 67, 103
1, 23187, Note_off_c, 0, 67, 103
1, 23192, Note_on_c, 0, 65, 108
1, 23253, Note_off_c, 0, 65, 108
1, 23455, Note_on_c, 0, 70, 105
1, 23475, Note_off_c, 0, 70, 105
1, 23480, Note_on_c, 0, 69, 121
1, 23493, Note_off_c, 0, 69, 121
1, 23498, Note_on_c, 0, 67, 111
1, 23532, Note_off_c, 0, 67, 111
1, 23547, Note_on_c, 0, 62, 103
1, 23609, Note_on_c, 0, 65, 112
1, 23609, Note_off_c, 0, 62, 103
1, 23643, Note_off_c, 0, 65, 112
1, 23649, Note_on_c, 0, 63, 102
1, 23706, Note_off_c, 0, 63, 102
1, 23719, Note_on_c, 0, 64, 107
1, 23740, Note_off_c, 0, 64, 107
1, 23747, Note_on_c, 0, 66, 104
1, 23758, Note_off_c, 0, 66, 104
1, 23765, Note_on_c, 0, 70, 103
1, 23791, Note_off_c, 0, 70, 103
1, 23808, Note_on_c, 0, 72, 114
1, 23874, Note_off_c, 0, 72, 114
1, 23879, Note_on_c, 0, 71, 110
1, 23984, Note_off_c, 0, 71, 110
1, 24015, Note_on_c, 0, 70, 116
1, 24086, Note_off_c, 0, 70, 116
1, 24090, Note_on_c, 0, 68, 111
1, 24212, Note_off_c, 0, 68, 111
1, 24245, Note_on_c, 0, 60, 100
1, 24285, Note_off_c, 0, 60, 100
1, 24289, Note_on_c, 0, 63, 99
1, 24386, Note_off_c, 0, 63, 99
1, 24407, Note_on_c, 0, 67, 115
1, 24471, Note_off_c, 0, 67, 115
1, 24481, Note_on_c, 0, 65, 110
1, 24519, Note_off_c, 0, 65, 110
1, 24526, Note_on_c, 0, 66, 106
1, 24565, Note_off_c, 0, 66, 106
1, 24573, Note_on_c, 0, 65, 108
1, 24612, Note_off_c, 0, 65, 108
1, 24617, Note_on_c, 0, 63, 102
1, 24679, Note_off_c, 0, 63, 102
1, 24692, Note_on_c, 0, 62, 98
1, 24752, Note_off_c, 0, 62, 98
1, 24763, Note_on_c, 0, 63, 92
1, 24789, Note_off_c, 0, 63, 92
1, 24796, Note_on_c, 0, 62, 103
1, 24823, Note_off_c, 0, 62, 103
1, 24823, Note_on_c, 0, 63, 109
1, 24864, Note_off_c, 0, 63, 109
1, 24876, Note_on_c, 0, 65, 105
1, 24993, Note_off_c, 0, 65, 105
1, 25007, Note_on_c, 0, 62, 90
1, 25046, Note_off_c, 0, 62, 90
1, 25056, Note_on_c, 0, 63, 100
1, 25170, Note_off_c, 0, 63, 100
1, 25183, Note_on_c, 0, 70, 118
1, 25357, Note_off_c, 0, 70, 118
1, 25626, Note_on_c, 0, 70, 109
1, 26927, Note_off_c, 0, 70, 109
1, 27173, Note_on_c, 0, 74, 113
1, 27260, Note_off_c, 0, 74, 113
1, 27261, Note_on_c, 0, 79, 104
1, 27323, Note_off_c, 0, 79, 104
1, 27325, Note_on_c, 0, 74, 101
1, 27372, Note_off_c, 0, 74, 101
1, 27392, Note_on_c, 0, 74, 108
1, 27479, Note_off_c, 0, 74, 108
1, 27494, Note_on_c, 0, 72, 108
1, 27562, Note_off_c, 0, 72, 108
1, 27568, Note_on_c, 0, 70, 122
1, 27678, Note_off_c, 0, 70, 122
1, 27689, Note_on_c, 0, 67, 112
1, 27754, Note_off_c, 0, 67, 112
1, 27757, Note_on_c, 0, 68, 111
1, 27801, Note_off_c, 0, 68, 111
1, 27813, Note_on_c, 0, 70, 108
1, 27864, Note_off_c, 0, 70, 108
1, 27864, Note_on_c, 0, 68, 111
1, 27924, Note_off_c, 0, 68, 111
1, 27938, Note_on_c, 0, 67, 111
1, 28033, Note_off_c, 0, 67, 111
1, 28048, Note_on_c, 0, 70, 115
1, 28079, Note_off_c, 0, 70, 115
1, 28091, Note_on_c, 0, 67, 107
1, 28114, Note_off_c, 0, 67, 107
1, 28120, Note_on_c, 0, 65, 108
1, 28139, Note_off_c, 0, 65, 108
1, 28142, Note_on_c, 0, 63, 95
1, 28280, Note_off_c, 0, 63, 95
1, 28284, Note_on_c, 0, 65, 106
1, 28351, Note_off_c, 0, 65, 106
1, 28362, Note_on_c, 0, 65, 106
1, 28461, Note_off_c, 0, 65, 106
1, 28473, Note_on_c, 0, 63, 85
1, 28500, Note_off_c, 0, 63, 85
1, 28505, Note_on_c, 0, 66, 99
1, 28667, Note_off_c, 0, 66, 99
1, 28678, Note_on_c, 0, 63, 91
1, 28717, Note_off_c, 0, 63, 91
1, 28724, Note_on_c, 0, 65, 108
1, 28843, Note_off_c, 0, 65, 108
1, 28849, Note_on_c, 0, 68, 108
1, 28984, Note_off_c, 0, 68, 108
1, 29511, Note_on_c, 0, 69, 120
1, 29603, Note_off_c, 0, 69, 120
1, 29609, Note_on_c, 0, 70, 122
1, 29696, Note_off_c, 0, 70, 122
1, 29699, Note_on_c, 0, 69, 114
1, 29729, Note_off_c, 0, 69, 114
1, 29741, Note_on_c, 0, 70, 120
1, 29782, Note_off_c, 0, 70, 120
1, 29788, Note_on_c, 0, 69, 115
1, 29821, Note_on_c, 0, 67, 109
1, 29821, Note_off_c, 0, 69, 115
1, 29870, Note_off_c, 0, 67, 109
1, 29882, Note_on_c, 0, 65, 109
1, 29984, Note_off_c, 0, 65, 109
1, 30020, Note_on_c, 0, 64, 110
1, 30072, Note_off_c, 0, 64, 110
1, 30092, Note_on_c, 0, 63, 105
1, 30175, Note_off_c, 0, 63, 105
1, 30189, Note_on_c, 0, 65, 107
1, 30241, Note_off_c, 0, 65, 107
1, 30250, Note_on_c, 0, 63, 102
1, 30357, Note_off_c, 0, 63, 102
1, 30363, Note_on_c, 0, 59, 105
1, 30407, Note_off_c, 0, 59, 105
1, 30422, Note_on_c, 0, 60, 100
1, 30545, Note_off_c, 0, 60, 100
1, 30560, Note_on_c, 0, 56, 108
1, 30631, Note_off_c, 0, 56, 108
1, 30635, Note_on_c, 0, 55, 112
1, 30735, Note_off_c, 0, 55, 112
1, 30739, Note_on_c, 0, 53, 110
1, 30788, Note_off_c, 0, 53, 110
1, 30792, Note_on_c, 0, 51, 111
1, 30865, Note_off_c, 0, 51, 111
1, 30868, Note_on_c, 0, 50, 104
1, 30997, Note_off_c, 0, 50, 104
1, 30997, Note_on_c, 0, 53, 111
1, 31121, Note_off_c, 0, 53, 111
1, 31143, Note_on_c, 0, 50, 108
1, 31192, Note_off_c, 0, 50, 108
1, 31199, Note_on_c, 0, 51, 109
1, 31337, Note_off_c, 0, 51, 109
1, 31338, Note_on_c, 0, 58, 101
1, 31561, Note_off_c, 0, 58, 101
1, 32348, Note_on_c, 0, 70, 124
1, 32482, Note_off_c, 0, 70, 124
1, 32486, Note_on_c, 0, 67, 109
1, 32546, Note_off_c, 0, 67, 109
1, 32554, Note_on_c, 0, 68, 116
1, 32641, Note_off_c, 0, 68, 116
1, 32654, Note_on_c, 0, 70, 117
1, 32725, Note_off_c, 0, 70, 117
1, 32725, Note_on_c, 0, 66, 113
1, 32774, Note_off_c, 0, 66, 113
1, 32784, Note_on_c, 0, 67, 115
1, 32923, Note_off_c, 0, 67, 115
1, 32951, Note_on_c, 0, 67, 96
1, 33007, Note_off_c, 0, 67, 96
1, 33430, Note_on_c, 0, 70, 116
1, 33506, Note_off_c, 0, 70, 116
1, 33508, Note_on_c, 0, 68, 118
1, 33552, Note_off_c, 0, 68, 118
1, 33558, Note_on_c, 0, 67, 112
1, 33677, Note_off_c, 0, 67, 112
1, 33706, Note_on_c, 0, 65, 116
1, 33820, Note_off_c, 0, 65, 116
1, 33826, Note_on_c, 0, 62, 107
1, 33879, Note_off_c, 0, 62, 107
1, 33892, Note_on_c, 0, 63, 110
1, 33995, Note_off_c, 0, 63, 110
1, 33997, Note_on_c, 0, 65, 114
1, 34039, Note_off_c, 0, 65, 114
1, 34041, Note_on_c, 0, 63, 110
1, 34085, Note_on_c, 0, 62, 108
1, 34085, Note_off_c, 0, 63, 110
1, 34195, Note_off_c, 0, 62, 108
1, 34206, Note_on_c, 0, 60, 108
1, 34295, Note_off_c, 0, 60, 108
1, 34295, Note_on_c, 0, 58, 106
1, 34375, Note_off_c, 0, 58, 106
1, 34377, Note_on_c, 0, 55, 118
1, 34475, Note_off_c, 0, 55, 118
1, 34481, Note_on_c, 0, 55, 118
1, 34550, Note_off_c, 0, 55, 118
1, 34561, Note_on_c, 0, 53, 116
1, 34619, Note_off_c, 0, 53, 116
1, 34621, Note_on_c, 0, 51, 115
1, 34686, Note_off_c, 0, 51, 115
1, 34688, Note_on_c, 0, 50, 108
1, 34836, Note_off_c, 0, 50, 108
1, 34853, Note_on_c, 0, 53, 114
1, 34963, Note_off_c, 0, 53, 114
1, 34971, Note_on_c, 0, 50, 111
1, 35029, Note_off_c, 0, 50, 111
1, 35037, Note_on_c, 0, 51, 124
1, 35129, Note_off_c, 0, 51, 124
1, 35129, Note_on_c, 0, 53, 120
1, 35205, Note_off_c, 0, 53, 120
1, 35213, Note_on_c, 0, 55, 111
1, 35320, Note_off_c, 0, 55, 111
1, 35355, Note_on_c, 0, 55, 113
1, 35413, Note_off_c, 0, 55, 113
1, 35417, Note_on_c, 0, 58, 107
1, 35493, Note_off_c, 0, 58, 107
1, 35542, Note_on_c, 0, 55, 114
1, 35620, Note_off_c, 0, 55, 114
1, 35628, Note_on_c, 0, 58, 100
1, 35675, Note_off_c, 0, 58, 100
1, 35686, Note_on_c, 0, 62, 104
1, 35730, Note_off_c, 0, 62, 104
1, 35736, Note_on_c, 0, 65, 112
1, 35785, Note_off_c, 0, 65, 112
1, 35791, Note_on_c, 0, 62, 103
1, 35892, Note_off_c, 0, 62, 103
1, 35923, Note_on_c, 0, 63, 100
1, 35990, Note_off_c, 0, 63, 100
1, 36003, Note_on_c, 0, 64, 114
1, 36077, Note_off_c, 0, 64, 114
1, 36083, Note_on_c, 0, 67, 117
1, 36161, Note_off_c, 0, 67, 117
1, 36169, Note_on_c, 0, 70, 125
1, 36281, Note_off_c, 0, 70, 125
1, 36281, Note_on_c, 0, 72, 106
1, 36298, Note_off_c, 0, 72, 106
1, 36309, Note_on_c, 0, 73, 116
1, 36387, Note_off_c, 0, 73, 116
1, 36387, Note_on_c, 0, 72, 114
1, 36463, Note_on_c, 0, 70, 119
1, 36463, Note_off_c, 0, 72, 114
1, 36525, Note_off_c, 0, 70, 119
1, 36545, Note_on_c, 0, 68, 110
1, 36695, Note_off_c, 0, 68, 110
1, 36708, Note_on_c, 0, 70, 120
1, 36858, Note_off_c, 0, 70, 120
1, 36869, Note_on_c, 0, 66, 110
1, 36954, Note_off_c, 0, 66, 110
1, 37297, Note_on_c, 0, 72, 96
1, 37351, Note_off_c, 0, 72, 96
1, 37366, Note_on_c, 0, 73, 112
1, 37425, Note_off_c, 0, 73, 112
1, 37450, Note_on_c, 0, 64, 101
1, 37494, Note_off_c, 0, 64, 101
1, 37508, Note_on_c, 0, 65, 114
1, 37615, Note_off_c, 0, 65, 114
1, 37615, Note_on_c, 0, 67, 117
1, 37686, Note_off_c, 0, 67, 117
1, 37698, Note_on_c, 0, 68, 114
1, 37742, Note_off_c, 0, 68, 114
1, 37759, Note_on_c, 0, 69, 118
1, 37824, Note_off_c, 0, 69, 118
1, 37824, Note_on_c, 0, 68, 116
1, 37867, Note_off_c, 0, 68, 116
1, 37873, Note_on_c, 0, 67, 115
1, 37936, Note_off_c, 0, 67, 115
1, 37939, Note_on_c, 0, 69, 126
1, 37964, Note_off_c, 0, 69, 126
1, 37967, Note_on_c, 0, 68, 117
1, 37989, Note_off_c, 0, 68, 117
1, 37992, Note_on_c, 0, 67, 116
1, 38031, Note_off_c, 0, 67, 116
1, 38040, Note_on_c, 0, 65, 108
1, 38079, Note_off_c, 0, 65, 108
1, 38080, Note_on_c, 0, 62, 103
1, 38238, Note_off_c, 0, 62, 103
1, 38258, Note_on_c, 0, 65, 108
1, 38344, Note_off_c, 0, 65, 108
1, 38828, Note_on_c, 0, 67, 118
1, 38887, Note_off_c, 0, 67, 118
1, 38887, Note_on_c, 0, 70, 124
1, 39049, Note_off_c, 0, 70, 124
1, 39071, Note_on_c, 0, 67, 111
1, 39099, Note_off_c, 0, 67, 111
1, 39108, Note_on_c, 0, 70, 121
1, 39229, Note_off_c, 0, 70, 121
1, 39241, Note_on_c, 0, 67, 114
1, 39279, Note_off_c, 0, 67, 114
1, 39294, Note_on_c, 0, 69, 124
1, 39319, Note_off_c, 0, 69, 124
1, 39333, Note_on_c, 0, 70, 119
1, 39427, Note_off_c, 0, 70, 119
1, 39428, Note_on_c, 0, 67, 115
1, 39467, Note_off_c, 0, 67, 115
1, 39478, Note_on_c, 0, 70, 120
1, 39597, Note_off_c, 0, 70, 120
1, 39614, Note_on_c, 0, 67, 112
1, 39663, Note_off_c, 0, 67, 112
1, 39669, Note_on_c, 0, 70, 124
1, 39788, Note_off_c, 0, 70, 124
1, 39789, Note_on_c, 0, 67, 109
1, 39822, Note_off_c, 0, 67, 109
1, 39841, Note_on_c, 0, 70, 123
1, 40000, Note_off_c, 0, 70, 123
1, 40015, Note_on_c, 0, 67, 96
1, 40054, Note_off_c, 0, 67, 96
1, 40139, Note_on_c, 0, 67, 99
1, 40182, Note_off_c, 0, 67, 99
1, 40185, Note_on_c, 0, 70, 110
1, 40234, Note_off_c, 0, 70, 110
1, 40249, Note_on_c, 0, 72, 111
1, 40351, Note_off_c, 0, 72, 111
1, 40581, Note_on_c, 0, 72, 110
1, 40612, Note_off_c, 0, 72, 110
1, 40616, Note_on_c, 0, 73, 104
1, 40636, Note_off_c, 0, 73, 104
1, 40651, Note_on_c, 0, 74, 118
1, 40679, Note_off_c, 0, 74, 118
1, 40693, Note_on_c, 0, 76, 117
1, 40760, Note_off_c, 0, 76, 117
1, 40767, Note_on_c, 0, 74, 117
1, 40788, Note_off_c, 0, 74, 117
1, 40793, Note_on_c, 0, 73, 107
1, 40812, Note_off_c, 0, 73, 107
1, 40815, Note_on_c, 0, 72, 111
1, 40840, Note_off_c, 0, 72, 111
1, 40845, Note_on_c, 0, 74, 102
1, 40868, Note_off_c, 0, 74, 102
1, 40871, Note_on_c, 0, 76, 97
1, 40912, Note_off_c, 0, 76, 97
1, 41068, Note_on_c, 0, 71, 115
1, 41109, Note_off_c, 0, 71, 115
1, 41109, Note_on_c, 0, 72, 110
1, 41135, Note_off_c, 0, 72, 110
1, 41137, Note_on_c, 0, 74, 109
1, 41160, Note_off_c, 0, 74, 109
1, 41174, Note_on_c, 0, 75, 111
1, 41240, Note_off_c, 0, 75, 111
1, 41243, Note_on_c, 0, 74, 112
1, 41264, Note_off_c, 0, 74, 112
1, 41270, Note_on_c, 0, 73, 112
1, 41298, Note_off_c, 0, 73, 112
1, 41301, Note_on_c, 0, 72, 109
1, 41399, Note_off_c, 0, 72, 109
1, 41549, Note_on_c, 0, 72, 104
1, 41574, Note_off_c, 0, 72, 104
1, 41576, Note_on_c, 0, 74, 109
1, 41618, Note_off_c, 0, 74, 109
1, 41623, Note_on_c, 0, 75, 116
1, 41658, Note_off_c, 0, 75, 116
1, 41675, Note_on_c, 0, 76, 112
1, 41715, Note_off_c, 0, 76, 112
1, 41716, Note_on_c, 0, 75, 114
1, 41733, Note_off_c, 0, 75, 114
1, 41737, Note_on_c, 0, 74, 113
1, 41763, Note_off_c, 0, 74, 113
1, 41772, Note_on_c, 0, 73, 107
1, 41803, Note_off_c, 0, 73, 107
1, 41813, Note_on_c, 0, 71, 112
1, 41851, Note_off_c, 0, 71, 112
1, 41864, Note_on_c, 0, 70, 115
1, 41887, Note_off_c, 0, 70, 115
1, 41897, Note_on_c, 0, 69, 116
1, 41929, Note_off_c, 0, 69, 116
1, 41933, Note_on_c, 0, 67, 113
1, 41996, Note_off_c, 0, 67, 113
1, 42000, Note_on_c, 0, 69, 114
1, 42043, Note_off_c, 0, 69, 114
1, 42050, Note_on_c, 0, 70, 119
1, 42101, Note_off_c, 0, 70, 119
1, 42111, Note_on_c, 0, 68, 110
1, 42142, Note_off_c, 0, 68, 110
1, 42146, Note_on_c, 0, 67, 112
1, 42183, Note_off_c, 0, 67, 112
1, 42183, Note_on_c, 0, 69, 117
1, 42229, Note_off_c, 0, 69, 117
1, 42233, Note_on_c, 0, 68, 113
1, 42261, Note_off_c, 0, 68, 113
1, 42265, Note_on_c, 0, 67, 113
1, 42286, Note_off_c, 0, 67, 113
1, 42287, Note_on_c, 0, 65, 109
1, 42329, Note_off_c, 0, 65, 109
1, 42335, Note_on_c, 0, 62, 102
1, 42374, Note_off_c, 0, 62, 102
1, 42382, Note_on_c, 0, 63, 100
1, 42423, Note_off_c, 0, 63, 100
1, 42428, Note_on_c, 0, 65, 98
1, 42485, Note_off_c, 0, 65, 98
1, 42493, Note_on_c, 0, 63, 108
1, 42540, Note_off_c, 0, 63, 108
1, 42545, Note_on_c, 0, 62, 108
1, 42573, Note_off_c, 0, 62, 108
1, 42577, Note_on_c, 0, 60, 105
1, 42610, Note_off_c, 0, 60, 105
1, 42610, Note_on_c, 0, 59, 105
1, 42639, Note_off_c, 0, 59, 105
1, 42643, Note_on_c, 0, 55, 108
1, 42700, Note_off_c, 0, 55, 108
1, 42707, Note_on_c, 0, 53, 109
1, 42767, Note_off_c, 0, 53, 109
1, 42779, Note_on_c, 0, 51, 110
1, 42822, Note_off_c, 0, 51, 110
1, 42830, Note_on_c, 0, 50, 106
1, 42851, Note_off_c, 0, 50, 106
1, 42851, Note_on_c, 0, 53, 110
1, 42899, Note_off_c, 0, 53, 110
1, 42905, Note_on_c, 0, 50, 113
1, 42943, Note_off_c, 0, 50, 113
1, 42945, Note_on_c, 0, 51, 115
1, 42992, Note_off_c, 0, 51, 115
1, 43008, Note_on_c, 0, 52, 107
1, 43046, Note_off_c, 0, 52, 107
1, 43048, Note_on_c, 0, 50, 114
1, 43086, Note_off_c, 0, 50, 114
1, 43089, Note_on_c, 0, 48, 110
1, 43131, Note_off_c, 0, 48, 110
1, 43137, Note_on_c, 0, 46, 104
1, 43175, Note_off_c, 0, 46, 104
1, 43187, Note_on_c, 0, 45, 98
1, 43215, Note_off_c, 0, 45, 98
1, 43225, Note_on_c, 0, 43, 115
1, 43298, Note_off_c, 0, 43, 115
1, 43335, Note_on_c, 0, 46, 105
1, 43366, Note_off_c, 0, 46, 105
1, 43369, Note_on_c, 0, 43, 100
1, 43412, Note_off_c, 0, 43, 100
1, 43417, Note_on_c, 0, 44, 112
1, 43485, Note_off_c, 0, 44, 112
1, 43486, Note_on_c, 0, 47, 108
1, 43527, Note_off_c, 0, 47, 108
1, 43530, Note_on_c, 0, 49, 110
1, 43564, Note_off_c, 0, 49, 110
1, 43571, Note_on_c, 0, 51, 110
1, 43603, Note_off_c, 0, 51, 110
1, 43625, Note_on_c, 0, 53, 111
1, 43667, Note_off_c, 0, 53, 111
1, 43912, Note_on_c, 0, 49, 116
1, 43934, Note_off_c, 0, 49, 116
1, 43940, Note_on_c, 0, 51, 117
1, 44004, Note_off_c, 0, 51, 117
1, 44004, Note_on_c, 0, 50, 114
1, 44041, Note_off_c, 0, 50, 114
1, 44049, Note_on_c, 0, 49, 110
1, 44093, Note_off_c, 0, 49, 110
1, 44094, Note_on_c, 0, 48, 103
1, 44143, Note_off_c, 0, 48, 103
1, 44151, Note_on_c, 0, 43, 99
1, 44195, Note_off_c, 0, 43, 99
1, 44217, Note_on_c, 0, 43, 113
1, 44302, Note_off_c, 0, 43, 113
1, 44318, Note_on_c, 0, 46, 101
1, 44362, Note_off_c, 0, 46, 101
1, 44365, Note_on_c, 0, 41, 96
1, 44406, Note_off_c, 0, 41, 96
1, 44412, Note_on_c, 0, 43, 104
1, 44439, Note_off_c, 0, 43, 104
1, 44442, Note_on_c, 0, 45, 95
1, 44466, Note_off_c, 0, 45, 95
1, 44477, Note_on_c, 0, 46, 100
1, 44504, Note_off_c, 0, 46, 100
1, 44511, Note_on_c, 0, 48, 106
1, 44545, Note_off_c, 0, 48, 106
1, 44558, Note_on_c, 0, 51, 116
1, 44601, Note_off_c, 0, 51, 116
1, 44607, Note_on_c, 0, 49, 105
1, 44651, Note_off_c, 0, 49, 105
1, 44664, Note_on_c, 0, 50, 117
1, 44719, Note_off_c, 0, 50, 117
1, 44730, Note_on_c, 0, 49, 110
1, 44761, Note_off_c, 0, 49, 110
1, 44764, Note_on_c, 0, 48, 110
1, 44788, Note_off_c, 0, 48, 110
1, 44790, Note_on_c, 0, 47, 104
1, 44811, Note_off_c, 0, 47, 104
1, 44823, Note_on_c, 0, 44, 100
1, 44855, Note_off_c, 0, 44, 100
1, 44862, Note_on_c, 0, 43, 93
1, 44917, Note_off_c, 0, 43, 93
1, 44941, Note_on_c, 0, 45, 108
1, 44982, Note_off_c, 0, 45, 108
1, 44991, Note_on_c, 0, 43, 105
1, 45026, Note_off_c, 0, 43, 105
1, 45040, Note_on_c, 0, 46, 111
1, 45056, Note_off_c, 0, 46, 111
1, 45066, Note_on_c, 0, 49, 112
1, 45091, Note_off_c, 0, 49, 112
1, 45096, Note_on_c, 0, 52, 105
1, 45113, Note_off_c, 0, 52, 105
1, 45118, Note_on_c, 0, 54, 104
1, 45159, Note_off_c, 0, 54, 104
1, 45181, Note_on_c, 0, 58, 105
1, 45209, Note_off_c, 0, 58, 105
1, 45219, Note_on_c, 0, 54, 98
1, 45249, Note_off_c, 0, 54, 98
1, 45268, Note_on_c, 0, 58, 103
1, 45301, Note_off_c, 0, 58, 103
1, 45310, Note_on_c, 0, 62, 93
1, 45331, Note_off_c, 0, 62, 93
1, 45340, Note_on_c, 0, 63, 96
1, 45383, Note_off_c, 0, 63, 96
1, 45415, Note_on_c, 0, 64, 107
1, 45434, Note_off_c, 0, 64, 107
1, 45441, Note_on_c, 0, 67, 100
1, 45466, Note_off_c, 0, 67, 100
1, 45469, Note_on_c, 0, 65, 104
1, 45503, Note_off_c, 0, 65, 104
1, 45519, Note_on_c, 0, 62, 103
1, 45542, Note_off_c, 0, 62, 103
1, 45549, Note_on_c, 0, 63, 101
1, 45575, Note_off_c, 0, 63, 101
1, 45583, Note_on_c, 0, 65, 100
1, 45602, Note_off_c, 0, 65, 100
1, 45607, Note_on_c, 0, 67, 104
1, 45626, Note_off_c, 0, 67, 104
1, 45629, Note_on_c, 0, 68, 104
1, 45674, Note_off_c, 0, 68, 104
1, 45689, Note_on_c, 0, 66, 109
1, 45718, Note_off_c, 0, 66, 109
1, 45719, Note_on_c, 0, 65, 112
1, 45777, Note_off_c, 0, 65, 112
1, 45781, Note_on_c, 0, 63, 105
1, 45822, Note_off_c, 0, 63, 105
1, 45832, Note_on_c, 0, 62, 104
1, 45926, Note_off_c, 0, 62, 104
1, 45956, Note_on_c, 0, 65, 111
1, 45981, Note_off_c, 0, 65, 111
1, 45992, Note_on_c, 0, 62, 103
1, 46030, Note_off_c, 0, 62, 103
1, 46032, Note_on_c, 0, 64, 103
1, 46049, Note_off_c, 0, 64, 103
1, 46052, Note_on_c, 0, 67, 104
1, 46067, Note_off_c, 0, 67, 104
1, 46074, Note_on_c, 0, 64, 100
1, 46100, Note_off_c, 0, 64, 100
1, 46108, Note_on_c, 0, 63, 110
1, 46138, Note_off_c, 0, 63, 110
1, 46142, Note_on_c, 0, 62, 106
1, 46180, Note_off_c, 0, 62, 106
1, 46183, Note_on_c, 0, 60, 103
1, 46213, Note_off_c, 0, 60, 103
1, 46220, Note_on_c, 0, 58, 103
1, 46256, Note_off_c, 0, 58, 103
1, 46261, Note_on_c, 0, 56, 106
1, 46288, Note_off_c, 0, 56, 106
1, 46295, Note_on_c, 0, 55, 109
1, 46336, Note_off_c, 0, 55, 109
1, 46338, Note_on_c, 0, 53, 107
1, 46385, Note_off_c, 0, 53, 107
1, 46391, Note_on_c, 0, 51, 112
1, 46434, Note_off_c, 0, 51, 112
1, 46441, Note_on_c, 0, 50, 114
1, 46480, Note_off_c, 0, 50, 114
1, 46491, Note_on_c, 0, 48, 111
1, 46519, Note_off_c, 0, 48, 111
1, 46524, Note_on_c, 0, 46, 103
1, 46555, Note_off_c, 0, 46, 103
1, 46562, Note_on_c, 0, 44, 98
1, 46585, Note_off_c, 0, 44, 98
1, 46591, Note_on_c, 0, 43, 114
1, 46637, Note_off_c, 0, 43, 114
1, 46637, Note_on_c, 0, 41, 107
1, 46684, Note_off_c, 0, 41, 107
1, 46696, Note_on_c, 0, 48, 108
1, 46717, Note_off_c, 0, 48, 108
1, 46725, Note_on_c, 0, 51, 111
1, 46747, Note_off_c, 0, 51, 111
1, 46753, Note_on_c, 0, 54, 107
1, 46813, Note_off_c, 0, 54, 107
1, 46824, Note_on_c, 0, 58, 107
1, 46871, Note_off_c, 0, 58, 107
1, 46872, Note_on_c, 0, 60, 102
1, 46890, Note_off_c, 0, 60, 102
1, 46892, Note_on_c, 0, 64, 102
1, 46914, Note_off_c, 0, 64, 102
1, 46916, Note_on_c, 0, 67, 106
1, 46930, Note_off_c, 0, 67, 106
1, 46933, Note_on_c, 0, 69, 101
1, 46955, Note_off_c, 0, 69, 101
1, 46958, Note_on_c, 0, 71, 95
1, 46996, Note_off_c, 0, 71, 95
1, 47000, Note_on_c, 0, 73, 104
1, 47037, Note_off_c, 0, 73, 104
1, 47049, Note_on_c, 0, 75, 118
1, 47141, Note_off_c, 0, 75, 118
1, 47331, Note_on_c, 0, 74, 113
1, 47393, Note_off_c, 0, 74, 113
1, 47400, Note_on_c, 0, 73, 110
1, 47439, Note_off_c, 0, 73, 110
1, 47466, Note_on_c, 0, 70, 106
1, 47513, Note_off_c, 0, 70, 106
1, 47519, Note_on_c, 0, 67, 111
1, 47715, Note_off_c, 0, 67, 111
1, 47716, Note_on_c, 0, 70, 125
1, 47816, Note_off_c, 0, 70, 125
1, 47846, Note_on_c, 0, 67, 111
1, 47940, Note_off_c, 0, 67, 111
1, 47949, Note_on_c, 0, 68, 114
1, 47998, Note_off_c, 0, 68, 114
1, 48007, Note_on_c, 0, 70, 111
1, 48058, Note_off_c, 0, 70, 111
1, 48064, Note_on_c, 0, 68, 116
1, 48115, Note_off_c, 0, 68, 116
1, 48130, Note_on_c, 0, 67, 111
1, 48200, Note_off_c, 0, 67, 111
1, 48211, Note_on_c, 0, 69, 121
1, 48242, Note_off_c, 0, 69, 121
1, 48251, Note_on_c, 0, 67, 110
1, 48292, Note_off_c, 0, 67, 110
1, 48315, Note_on_c, 0, 62, 101
1, 48460, Note_off_c, 0, 62, 101
1, 48467, Note_on_c, 0, 65, 105
1, 48526, Note_off_c, 0, 65, 105
1, 48693, Note_on_c, 0, 62, 95
1, 48796, Note_off_c, 0, 62, 95
1, 48803, Note_on_c, 0, 63, 108
1, 48850, Note_off_c, 0, 63, 108
1, 48865, Note_on_c, 0, 67, 118
1, 48948, Note_off_c, 0, 67, 118
1, 48963, Note_on_c, 0, 70, 117
1, 49046, Note_off_c, 0, 70, 117
1, 49052, Note_on_c, 0, 74, 119
1, 49147, Note_off_c, 0, 74, 119
1, 49154, Note_on_c, 0, 72, 108
1, 49193, Note_off_c, 0, 72, 108
1, 49196, Note_on_c, 0, 69, 108
1, 49224, Note_on_c, 0, 63, 104
1, 49224, Note_off_c, 0, 69, 108
1, 49321, Note_off_c, 0, 63, 104
1, 49436, Note_on_c, 0, 65, 109
1, 49519, Note_off_c, 0, 65, 109
1, 49712, Note_on_c, 0, 70, 113
1, 49758, Note_off_c, 0, 70, 113
1, 49758, Note_on_c, 0, 67, 110
1, 49796, Note_off_c, 0, 67, 110
1, 49802, Note_on_c, 0, 62, 100
1, 49897, Note_off_c, 0, 62, 100
1, 49917, Note_on_c, 0, 62, 103
1, 49947, Note_off_c, 0, 62, 103
1, 49956, Note_on_c, 0, 64, 100
1, 49987, Note_off_c, 0, 64, 100
1, 50001, Note_on_c, 0, 65, 116
1, 50119, Note_off_c, 0, 65, 116
1, 50123, Note_on_c, 0, 62, 102
1, 50170, Note_off_c, 0, 62, 102
1, 50190, Note_on_c, 0, 63, 106
1, 50289, Note_off_c, 0, 63, 106
1, 50295, Note_on_c, 0, 65, 114
1, 50339, Note_off_c, 0, 65, 114
1, 50339, Note_on_c, 0, 63, 113
1, 50366, Note_on_c, 0, 62, 106
1, 50366, Note_off_c, 0, 63, 113
1, 50449, Note_off_c, 0, 62, 106
1, 50472, Note_on_c, 0, 60, 106
1, 50559, Note_off_c, 0, 60, 106
1, 50562, Note_on_c, 0, 58, 104
1, 50662, Note_off_c, 0, 58, 104
1, 50662, End_track
0, 0, End_of_file
