0, 0, Header, 1, 1, 5040
1, 0, Start_track
1, 0, Title_t, "Melody"
1, 0, Tempo, 833333
1, 0, Key_signature, -1, "major"
1, 0, Time_signature, 4, 2, 24, 8
1, 44201, Note_on_c, 0, 67, 115
1, 45184, Note_off_c, 0, 67, 115
1, 45219, Note_on_c, 0, 66, 111
1, 45605, Note_off_c, 0, 66, 111
1, 45753, Note_on_c, 0, 64, 121
1, 46104, Note_off_c, 0, 64, 121
1, 46123, Note_on_c, 0, 62, 108
1, 46544, Note_off_c, 0, 62, 108
1, 46641, Note_on_c, 0, 63, 114
1, 47085, Note_off_c, 0, 63, 114
1, 47307, Note_on_c, 0, 63, 110
1, 48319, Note_off_c, 0, 63, 110
1, 48874, Note_on_c, 0, 54, 111
1, 49231, Note_off_c, 0, 54, 111
1, 49268, Note_on_c, 0, 56, 109
1, 49539, Note_off_c, 0, 56, 109
1, 49835, Note_on_c, 0, 58, 115
1, 51217, Note_off_c, 0, 58, 115
1, 51426, Note_on_c, 0, 62, 106
1, 52820, Note_off_c, 0, 62, 106
1, 52857, Note_on_c, 0, 60, 107
1, 53227, Note_off_c, 0, 60, 107
1, 53276, Note_on_c, 0, 62, 108
1, 53621, Note_off_c, 0, 62, 108
1, 53732, Note_on_c, 0, 60, 115
1, 54126, Note_off_c, 0, 60, 115
1, 54187, Note_on_c, 0, 58, 116
1, 54976, Note_off_c, 0, 58, 116
1, 55062, Note_on_c, 0, 57, 105
1, 56061, Note_off_c, 0, 57, 105
1, 56295, Note_on_c, 0, 60, 110
1, 56727, Note_off_c, 0, 60, 110
1, 56727, Note_on_c, 0, 63, 110
1, 56986, Note_off_c, 0, 63, 110
1, 57541, Note_on_c, 0, 67, 114
1, 58651, Note_off_c, 0, 67, 114
1, 58897, Note_on_c, 0, 59, 99
1, 59217, Note_off_c, 0, 59, 99
1, 59317, Note_on_c, 0, 60, 100
1, 59625, Note_off_c, 0, 60, 100
1, 59734, Note_on_c, 0, 64, 111
1, 60203, Note_off_c, 0, 64, 111
1, 60338, Note_on_c, 0, 65, 115
1, 61473, Note_off_c, 0, 65, 115
1, 61818, Note_on_c, 0, 67, 110
1, 62756, Note_off_c, 0, 67, 110
1, 63039, Note_on_c, 0, 68, 113
1, 64149, Note_off_c, 0, 68, 113
1, 64223, Note_on_c, 0, 70, 110
1, 65395, Note_off_c, 0, 70, 110
1, 65419, Note_on_c, 0, 72, 116
1, 66789, Note_off_c, 0, 72, 116
1, 67085, Note_on_c, 0, 64, 111
1, 68257, Note_off_c, 0, 64, 111
1, 68516, Note_on_c, 0, 60, 103
1, 69972, Note_off_c, 0, 60, 103
1, 71140, Note_on_c, 0, 64, 97
1, 76262, Note_off_c, 0, 64, 97
1, 85718, Note_on_c, 0, 72, 119
1, 86639, Note_off_c, 0, 72, 119
1, 86665, Note_on_c, 0, 74, 113
1, 87165, Note_off_c, 0, 74, 113
1, 87200, Note_on_c, 0, 76, 119
1, 87893, Note_off_c, 0, 76, 119
1, 87901, Note_on_c, 0, 77, 119
1, 88813, Note_off_c, 0, 77, 119
1, 88839, Note_on_c, 0, 76, 120
1, 91059, Note_off_c, 0, 76, 120
1, 91216, Note_on_c, 0, 72, 112
1, 92576, Note_off_c, 0, 72, 112
1, 92769, Note_on_c, 0, 73, 113
1, 93234, Note_off_c, 0, 73, 113
1, 93269, Note_on_c, 0, 74, 109
1, 94023, Note_off_c, 0, 74, 109
1, 94172, Note_on_c, 0, 72, 113
1, 95681, Note_off_c, 0, 72, 113
1, 95733, Note_on_c, 0, 69, 104
1, 96601, Note_off_c, 0, 69, 104
1, 96601, Note_on_c, 0, 70, 112
1, 98084, Note_off_c, 0, 70, 112
1, 98162, Note_on_c, 0, 72, 114
1, 99101, Note_off_c, 0, 72, 114
1, 99355, Note_on_c, 0, 67, 111
1, 99899, Note_off_c, 0, 67, 111
1, 99899, Note_on_c, 0, 69, 112
1, 100741, Note_off_c, 0, 69, 112
1, 101048, Note_on_c, 0, 65, 120
1, 101952, Note_off_c, 0, 65, 120
1, 102092, Note_on_c, 0, 62, 91
1, 102688, Note_off_c, 0, 62, 91
1, 103521, Note_on_c, 0, 58, 107
1, 104223, Note_off_c, 0, 58, 107
1, 104319, Note_on_c, 0, 67, 116
1, 104819, Note_off_c, 0, 67, 116
1, 104819, Note_on_c, 0, 68, 108
1, 105556, Note_off_c, 0, 68, 108
1, 105556, Note_on_c, 0, 67, 106
1, 106100, Note_off_c, 0, 67, 106
1, 106187, Note_on_c, 0, 65, 109
1, 106827, Note_off_c, 0, 65, 109
1, 106897, Note_on_c, 0, 63, 121
1, 107291, Note_off_c, 0, 63, 121
1, 107326, Note_on_c, 0, 64, 116
1, 108396, Note_off_c, 0, 64, 116
1, 108562, Note_on_c, 0, 61, 102
1, 108798, Note_on_c, 0, 60, 102
1, 108798, Note_off_c, 0, 61, 102
1, 109184, Note_off_c, 0, 60, 102
1, 109298, Note_on_c, 0, 63, 110
1, 110798, Note_off_c, 0, 63, 110
1, 110903, Note_on_c, 0, 59, 99
1, 112763, Note_off_c, 0, 59, 99
1, 113816, Note_on_c, 0, 58, 104
1, 114333, Note_off_c, 0, 58, 104
1, 114438, Note_on_c, 0, 60, 112
1, 114859, Note_off_c, 0, 60, 112
1, 114859, Note_on_c, 0, 63, 97
1, 115183, Note_off_c, 0, 63, 97
1, 115349, Note_on_c, 0, 64, 105
1, 115945, Note_off_c, 0, 64, 105
1, 116120, Note_on_c, 0, 66, 99
1, 116778, Note_off_c, 0, 66, 99
1, 117137, Note_on_c, 0, 71, 91
1, 117619, Note_off_c, 0, 71, 91
1, 118005, Note_on_c, 0, 75, 116
1, 118540, Note_off_c, 0, 75, 116
1, 118540, Note_on_c, 0, 76, 103
1, 123069, Note_off_c, 0, 76, 103
1, 129518, Note_on_c, 0, 74, 115
1, 130382, Note_off_c, 0, 74, 115
1, 130604, Note_on_c, 0, 75, 115
1, 131344, Note_off_c, 0, 75, 115
1, 131381, Note_on_c, 0, 74, 111
1, 131887, Note_off_c, 0, 74, 111
1, 132059, Note_on_c, 0, 70, 111
1, 132873, Note_off_c, 0, 70, 111
1, 132996, Note_on_c, 0, 65, 119
1, 133576, Note_off_c, 0, 65, 119
1, 133576, Note_on_c, 0, 62, 111
1, 134267, Note_off_c, 0, 62, 111
1, 134464, Note_on_c, 0, 60, 103
1, 135118, Note_off_c, 0, 60, 103
1, 135241, Note_on_c, 0, 61, 118
1, 135524, Note_off_c, 0, 61, 118
1, 135524, Note_on_c, 0, 62, 103
1, 136227, Note_off_c, 0, 62, 103
1, 136510, Note_on_c, 0, 53, 107
1, 137164, Note_off_c, 0, 53, 107
1, 137238, Note_on_c, 0, 55, 106
1, 138336, Note_off_c, 0, 55, 106
1, 138336, Note_on_c, 0, 56, 108
1, 140150, Note_off_c, 0, 56, 108
1, 146790, Note_on_c, 0, 61, 108
1, 147271, Note_off_c, 0, 61, 108
1, 147332, Note_on_c, 0, 63, 120
1, 147739, Note_off_c, 0, 63, 120
1, 147763, Note_on_c, 0, 65, 114
1, 148367, Note_off_c, 0, 65, 114
1, 148391, Note_on_c, 0, 66, 105
1, 148909, Note_off_c, 0, 66, 105
1, 148958, Note_on_c, 0, 67, 99
1, 149587, Note_off_c, 0, 67, 99
1, 149624, Note_on_c, 0, 70, 95
1, 149944, Note_off_c, 0, 70, 95
1, 149968, Note_on_c, 0, 72, 119
1, 150659, Note_off_c, 0, 72, 119
1, 150770, Note_on_c, 0, 68, 115
1, 151226, Note_off_c, 0, 68, 115
1, 151287, Note_on_c, 0, 67, 105
1, 151768, Note_off_c, 0, 67, 105
1, 151903, Note_on_c, 0, 65, 102
1, 152421, Note_off_c, 0, 65, 102
1, 152618, Note_on_c, 0, 70, 120
1, 153062, Note_off_c, 0, 70, 120
1, 153086, Note_on_c, 0, 71, 103
1, 156023, Note_off_c, 0, 71, 103
1, 156417, Note_on_c, 0, 71, 97
1, 156972, Note_off_c, 0, 71, 97
1, 157009, Note_on_c, 0, 72, 104
1, 157638, Note_off_c, 0, 72, 104
1, 157650, Note_on_c, 0, 73, 121
1, 157983, Note_off_c, 0, 73, 121
1, 157983, Note_on_c, 0, 74, 115
1, 158402, Note_off_c, 0, 74, 115
1, 158402, Note_on_c, 0, 72, 117
1, 158908, Note_off_c, 0, 72, 117
1, 158908, Note_on_c, 0, 71, 114
1, 159537, Note_off_c, 0, 71, 114
1, 159561, Note_on_c, 0, 69, 116
1, 160178, Note_off_c, 0, 69, 116
1, 160178, Note_on_c, 0, 67, 115
1, 160856, Note_off_c, 0, 67, 115
1, 160942, Note_on_c, 0, 65, 114
1, 161559, Note_off_c, 0, 65, 114
1, 161608, Note_on_c, 0, 64, 107
1, 162274, Note_off_c, 0, 64, 107
1, 162434, Note_on_c, 0, 59, 101
1, 162927, Note_on_c, 0, 62, 111
1, 162927, Note_off_c, 0, 59, 101
1, 163593, Note_off_c, 0, 62, 111
1, 163728, Note_on_c, 0, 59, 106
1, 164234, Note_off_c, 0, 59, 106
1, 164234, Note_on_c, 0, 60, 110
1, 164925, Note_off_c, 0, 60, 110
1, 165169, Note_on_c, 0, 59, 106
1, 165660, Note_off_c, 0, 59, 106
1, 166133, Note_on_c, 0, 56, 109
1, 166764, Note_off_c, 0, 56, 109
1, 166764, Note_on_c, 0, 57, 108
1, 171240, Note_off_c, 0, 57, 108
1, 171562, Note_on_c, 0, 60, 108
1, 171845, Note_off_c, 0, 60, 108
1, 171845, Note_on_c, 0, 64, 120
1, 172338, Note_off_c, 0, 64, 120
1, 172510, Note_on_c, 0, 67, 115
1, 173312, Note_off_c, 0, 67, 115
1, 173398, Note_on_c, 0, 64, 118
1, 173792, Note_off_c, 0, 64, 118
1, 173964, Note_on_c, 0, 59, 102
1, 174309, Note_off_c, 0, 59, 102
1, 174370, Note_on_c, 0, 57, 101
1, 175209, Note_off_c, 0, 57, 101
1, 175875, Note_on_c, 0, 62, 114
1, 176479, Note_off_c, 0, 62, 114
1, 176479, Note_on_c, 0, 64, 119
1, 178330, Note_off_c, 0, 64, 119
1, 178330, Note_on_c, 0, 62, 105
1, 180477, Note_off_c, 0, 62, 105
1, 186068, Note_on_c, 0, 76, 121
1, 186820, Note_off_c, 0, 76, 121
1, 186820, Note_on_c, 0, 77, 122
1, 187214, Note_off_c, 0, 77, 122
1, 187275, Note_on_c, 0, 76, 122
1, 187978, Note_off_c, 0, 76, 122
1, 187990, Note_on_c, 0, 74, 111
1, 188681, Note_off_c, 0, 74, 111
1, 188681, Note_on_c, 0, 72, 111
1, 189335, Note_off_c, 0, 72, 111
1, 189335, Note_on_c, 0, 70, 110
1, 189915, Note_off_c, 0, 70, 110
1, 190100, Note_on_c, 0, 67, 111
1, 190482, Note_off_c, 0, 67, 111
1, 190482, Note_on_c, 0, 68, 109
1, 191012, Note_off_c, 0, 68, 109
1, 191123, Note_on_c, 0, 69, 118
1, 191715, Note_off_c, 0, 69, 118
1, 191715, Note_on_c, 0, 70, 110
1, 192233, Note_off_c, 0, 70, 110
1, 192257, Note_on_c, 0, 69, 115
1, 192787, Note_off_c, 0, 69, 115
1, 192947, Note_on_c, 0, 67, 116
1, 193675, Note_off_c, 0, 67, 116
1, 193823, Note_on_c, 0, 66, 116
1, 194316, Note_off_c, 0, 66, 116
1, 194340, Note_on_c, 0, 64, 116
1, 195574, Note_off_c, 0, 64, 116
1, 195796, Note_on_c, 0, 60, 105
1, 196203, Note_off_c, 0, 60, 105
1, 196375, Note_on_c, 0, 63, 112
1, 197016, Note_off_c, 0, 63, 112
1, 197151, Note_on_c, 0, 60, 107
1, 197545, Note_off_c, 0, 60, 107
1, 197569, Note_on_c, 0, 61, 114
1, 198260, Note_off_c, 0, 61, 114
1, 198408, Note_on_c, 0, 54, 109
1, 198840, Note_off_c, 0, 54, 109
1, 198889, Note_on_c, 0, 58, 110
1, 199629, Note_off_c, 0, 58, 110
1, 199641, Note_on_c, 0, 61, 117
1, 200233, Note_off_c, 0, 61, 117
1, 200233, Note_on_c, 0, 58, 114
1, 200948, Note_off_c, 0, 58, 114
1, 201540, Note_on_c, 0, 60, 117
1, 202169, Note_off_c, 0, 60, 117
1, 202292, Note_on_c, 0, 58, 111
1, 203143, Note_off_c, 0, 58, 111
1, 203241, Note_on_c, 0, 60, 103
1, 203500, Note_off_c, 0, 60, 103
1, 203598, Note_on_c, 0, 63, 107
1, 203881, Note_off_c, 0, 63, 107
1, 204090, Note_on_c, 0, 70, 117
1, 204805, Note_off_c, 0, 70, 117
1, 204842, Note_on_c, 0, 69, 111
1, 205274, Note_off_c, 0, 69, 111
1, 205397, Note_on_c, 0, 66, 115
1, 205779, Note_off_c, 0, 66, 115
1, 205877, Note_on_c, 0, 67, 109
1, 206518, Note_off_c, 0, 67, 109
1, 206616, Note_on_c, 0, 68, 105
1, 207171, Note_off_c, 0, 68, 105
1, 207257, Note_on_c, 0, 70, 98
1, 207763, Note_off_c, 0, 70, 98
1, 207763, Note_on_c, 0, 72, 101
1, 208417, Note_off_c, 0, 72, 101
1, 208417, Note_on_c, 0, 74, 118
1, 208997, Note_off_c, 0, 74, 118
1, 209034, Note_on_c, 0, 72, 114
1, 209601, Note_off_c, 0, 72, 114
1, 209749, Note_on_c, 0, 70, 111
1, 210403, Note_off_c, 0, 70, 111
1, 210403, Note_on_c, 0, 69, 104
1, 210760, Note_off_c, 0, 69, 104
1, 211117, Note_on_c, 0, 77, 117
1, 211561, Note_off_c, 0, 77, 117
1, 211598, Note_on_c, 0, 79, 112
1, 216572, Note_off_c, 0, 79, 112
1, 216979, Note_on_c, 0, 79, 104
1, 217472, Note_off_c, 0, 79, 104
1, 224248, Note_on_c, 0, 78, 127
1, 224667, Note_off_c, 0, 78, 127
1, 224824, Note_on_c, 0, 79, 117
1, 228387, Note_off_c, 0, 79, 117
1, 228603, Note_on_c, 0, 78, 116
1, 229244, Note_off_c, 0, 78, 116
1, 229330, Note_on_c, 0, 76, 111
1, 229786, Note_on_c, 0, 75, 115
1, 229786, Note_off_c, 0, 76, 111
1, 230279, Note_off_c, 0, 75, 115
1, 230476, Note_on_c, 0, 73, 105
1, 230982, Note_off_c, 0, 73, 105
1, 231080, Note_on_c, 0, 72, 115
1, 231721, Note_off_c, 0, 72, 115
1, 231844, Note_on_c, 0, 71, 105
1, 232115, Note_off_c, 0, 71, 105
1, 232115, Note_on_c, 0, 72, 110
1, 232398, Note_off_c, 0, 72, 110
1, 232509, Note_on_c, 0, 68, 112
1, 233200, Note_off_c, 0, 68, 112
1, 233274, Note_on_c, 0, 66, 104
1, 233767, Note_on_c, 0, 64, 107
1, 233767, Note_off_c, 0, 66, 104
1, 234470, Note_off_c, 0, 64, 107
1, 234470, Note_on_c, 0, 60, 99
1, 235247, Note_off_c, 0, 60, 99
1, 235247, Note_on_c, 0, 63, 103
1, 236752, Note_off_c, 0, 63, 103
1, 242861, Note_on_c, 0, 75, 116
1, 243428, Note_off_c, 0, 75, 116
1, 243428, Note_on_c, 0, 76, 119
1, 244106, Note_off_c, 0, 76, 119
1, 244303, Note_on_c, 0, 75, 111
1, 244660, Note_off_c, 0, 75, 111
1, 244795, Note_on_c, 0, 73, 109
1, 245387, Note_off_c, 0, 73, 109
1, 245485, Note_on_c, 0, 72, 109
1, 245991, Note_off_c, 0, 72, 109
1, 246151, Note_on_c, 0, 71, 109
1, 246632, Note_off_c, 0, 71, 109
1, 246706, Note_on_c, 0, 70, 110
1, 247372, Note_off_c, 0, 70, 110
1, 247483, Note_on_c, 0, 67, 108
1, 248013, Note_off_c, 0, 67, 108
1, 248099, Note_on_c, 0, 68, 109
1, 248654, Note_off_c, 0, 68, 109
1, 248728, Note_on_c, 0, 69, 113
1, 249308, Note_off_c, 0, 69, 113
1, 249493, Note_on_c, 0, 65, 118
1, 249875, Note_off_c, 0, 65, 118
1, 249875, Note_on_c, 0, 61, 108
1, 250405, Note_off_c, 0, 61, 108
1, 250454, Note_on_c, 0, 57, 111
1, 250750, Note_off_c, 0, 57, 111
1, 250861, Note_on_c, 0, 58, 104
1, 251342, Note_off_c, 0, 58, 104
1, 251366, Note_on_c, 0, 59, 106
1, 251983, Note_off_c, 0, 59, 106
1, 252131, Note_on_c, 0, 63, 114
1, 252563, Note_off_c, 0, 63, 114
1, 253032, Note_on_c, 0, 66, 102
1, 253365, Note_off_c, 0, 66, 102
1, 253402, Note_on_c, 0, 71, 105
1, 253648, Note_off_c, 0, 71, 105
1, 253783, Note_on_c, 0, 75, 118
1, 254091, Note_off_c, 0, 75, 118
1, 254103, Note_on_c, 0, 78, 113
1, 254423, Note_off_c, 0, 78, 113
1, 254423, Note_on_c, 0, 81, 112
1, 258594, Note_off_c, 0, 81, 112
1, 258606, Note_on_c, 0, 77, 105
1, 258988, Note_off_c, 0, 77, 105
1, 259012, Note_on_c, 0, 76, 102
1, 259209, Note_off_c, 0, 76, 102
1, 259270, Note_on_c, 0, 73, 101
1, 259590, Note_off_c, 0, 73, 101
1, 259750, Note_on_c, 0, 69, 102
1, 259935, Note_off_c, 0, 69, 102
1, 260009, Note_on_c, 0, 65, 110
1, 260243, Note_off_c, 0, 65, 110
1, 260378, Note_on_c, 0, 61, 94
1, 260785, Note_off_c, 0, 61, 94
1, 261266, Note_on_c, 0, 70, 118
1, 261747, Note_off_c, 0, 70, 118
1, 261821, Note_on_c, 0, 71, 117
1, 262475, Note_off_c, 0, 71, 117
1, 262660, Note_on_c, 0, 67, 113
1, 263005, Note_off_c, 0, 67, 113
1, 263066, Note_on_c, 0, 63, 112
1, 263325, Note_off_c, 0, 63, 112
1, 263460, Note_on_c, 0, 59, 97
1, 263706, Note_off_c, 0, 59, 97
1, 264125, Note_on_c, 0, 68, 106
1, 264655, Note_off_c, 0, 68, 106
1, 264655, Note_on_c, 0, 69, 115
1, 265407, Note_off_c, 0, 69, 115
1, 265542, Note_on_c, 0, 65, 117
1, 265912, Note_off_c, 0, 65, 117
1, 266047, Note_on_c, 0, 61, 104
1, 266306, Note_off_c, 0, 61, 104
1, 266429, Note_on_c, 0, 57, 106
1, 266688, Note_off_c, 0, 57, 106
1, 266712, Note_on_c, 0, 55, 102
1, 267045, Note_off_c, 0, 55, 102
1, 267365, Note_on_c, 0, 67, 112
1, 268475, Note_off_c, 0, 67, 112
1, 268635, Note_on_c, 0, 63, 108
1, 268857, Note_off_c, 0, 63, 108
1, 268931, Note_on_c, 0, 59, 91
1, 269202, Note_off_c, 0, 59, 91
1, 269411, Note_on_c, 0, 57, 108
1, 269744, Note_off_c, 0, 57, 108
1, 269768, Note_on_c, 0, 65, 112
1, 271101, Note_off_c, 0, 65, 112
1, 271335, Note_on_c, 0, 61, 100
1, 271581, Note_off_c, 0, 61, 100
1, 271605, Note_on_c, 0, 57, 103
1, 271851, Note_off_c, 0, 57, 103
1, 271912, Note_on_c, 0, 55, 99
1, 272109, Note_off_c, 0, 55, 99
1, 272158, Note_on_c, 0, 53, 99
1, 272552, Note_off_c, 0, 53, 99
1, 272848, Note_on_c, 0, 58, 102
1, 273193, Note_off_c, 0, 58, 102
1, 273193, Note_on_c, 0, 59, 107
1, 273489, Note_off_c, 0, 59, 107
1, 273550, Note_on_c, 0, 63, 107
1, 273858, Note_off_c, 0, 63, 107
1, 273944, Note_on_c, 0, 65, 124
1, 274203, Note_off_c, 0, 65, 124
1, 274351, Note_on_c, 0, 68, 108
1, 274721, Note_off_c, 0, 68, 108
1, 274795, Note_on_c, 0, 67, 107
1, 275140, Note_off_c, 0, 67, 107
1, 275275, Note_on_c, 0, 73, 100
1, 275497, Note_on_c, 0, 75, 103
1, 275497, Note_off_c, 0, 73, 100
1, 275941, Note_off_c, 0, 75, 103
1, 276138, Note_on_c, 0, 71, 113
1, 276890, Note_off_c, 0, 71, 113
1, 287714, Note_on_c, 0, 72, 117
1, 288220, Note_off_c, 0, 72, 117
1, 289096, Note_on_c, 0, 74, 117
1, 289737, Note_off_c, 0, 74, 117
1, 289737, Note_on_c, 0, 75, 116
1, 290391, Note_off_c, 0, 75, 116
1, 291292, Note_on_c, 0, 74, 118
1, 291835, Note_off_c, 0, 74, 118
1, 291872, Note_on_c, 0, 75, 112
1, 292637, Note_off_c, 0, 75, 112
1, 293624, Note_on_c, 0, 72, 115
1, 294525, Note_off_c, 0, 72, 115
1, 294673, Note_on_c, 0, 76, 104
1, 295006, Note_off_c, 0, 76, 104
1, 295092, Note_on_c, 0, 75, 99
1, 295511, Note_off_c, 0, 75, 99
1, 295634, Note_on_c, 0, 70, 113
1, 296349, Note_off_c, 0, 70, 113
1, 296534, Note_on_c, 0, 65, 116
1, 297805, Note_off_c, 0, 65, 116
1, 299076, Note_on_c, 0, 65, 112
1, 301124, Note_off_c, 0, 65, 112
1, 301506, Note_on_c, 0, 62, 103
1, 302567, Note_off_c, 0, 62, 103
1, 302628, Note_on_c, 0, 61, 97
1, 303232, Note_off_c, 0, 61, 97
1, 303232, Note_on_c, 0, 62, 107
1, 304071, Note_off_c, 0, 62, 107
1, 304071, Note_on_c, 0, 65, 116
1, 305181, Note_off_c, 0, 65, 116
1, 309130, Note_on_c, 0, 74, 118
1, 309808, Note_off_c, 0, 74, 118
1, 309808, Note_on_c, 0, 75, 113
1, 310585, Note_off_c, 0, 75, 113
1, 311436, Note_on_c, 0, 74, 118
1, 312102, Note_off_c, 0, 74, 118
1, 312102, Note_on_c, 0, 75, 114
1, 312978, Note_off_c, 0, 75, 114
1, 314101, Note_on_c, 0, 72, 112
1, 314866, Note_off_c, 0, 72, 112
1, 315297, Note_on_c, 0, 75, 113
1, 315691, Note_off_c, 0, 75, 113
1, 315789, Note_on_c, 0, 73, 101
1, 316122, Note_off_c, 0, 73, 101
1, 316270, Note_on_c, 0, 65, 114
1, 316973, Note_off_c, 0, 65, 114
1, 317096, Note_on_c, 0, 68, 106
1, 317824, Note_off_c, 0, 68, 106
1, 317873, Note_on_c, 0, 70, 111
1, 318206, Note_off_c, 0, 70, 111
1, 318909, Note_on_c, 0, 70, 112
1, 319427, Note_off_c, 0, 70, 112
1, 319476, Note_on_c, 0, 72, 114
1, 319932, Note_off_c, 0, 72, 114
1, 320092, Note_on_c, 0, 77, 104
1, 320598, Note_off_c, 0, 77, 104
1, 320820, Note_on_c, 0, 69, 107
1, 321202, Note_off_c, 0, 69, 107
1, 321276, Note_on_c, 0, 70, 104
1, 321485, Note_off_c, 0, 70, 104
1, 321620, Note_on_c, 0, 72, 107
1, 322027, Note_off_c, 0, 72, 107
1, 322113, Note_on_c, 0, 75, 106
1, 322409, Note_off_c, 0, 75, 106
1, 322507, Note_on_c, 0, 71, 104
1, 322988, Note_off_c, 0, 71, 104
1, 322988, Note_on_c, 0, 68, 117
1, 323794, Note_off_c, 0, 68, 117
1, 323794, Note_on_c, 0, 65, 116
1, 324601, Note_off_c, 0, 65, 116
1, 324627, Note_on_c, 0, 63, 98
1, 325021, Note_off_c, 0, 63, 98
1, 325029, Note_on_c, 0, 61, 101
1, 325318, Note_off_c, 0, 61, 101
1, 325326, Note_on_c, 0, 63, 105
1, 325720, Note_off_c, 0, 63, 105
1, 325746, Note_on_c, 0, 65, 116
1, 326263, Note_off_c, 0, 65, 116
1, 326306, Note_on_c, 0, 65, 118
1, 326850, Note_off_c, 0, 65, 118
1, 326893, Note_on_c, 0, 67, 103
1, 327068, Note_off_c, 0, 67, 103
1, 327076, Note_on_c, 0, 68, 112
1, 327427, Note_off_c, 0, 68, 112
1, 327593, Note_on_c, 0, 68, 110
1, 328646, Note_off_c, 0, 68, 110
1, 329216, Note_on_c, 0, 69, 104
1, 329303, Note_on_c, 0, 70, 93
1, 329303, Note_off_c, 0, 69, 104
1, 329715, Note_off_c, 0, 70, 93
1, 329793, Note_on_c, 0, 70, 115
1, 330398, Note_off_c, 0, 70, 115
1, 330792, Note_on_c, 0, 71, 105
1, 331362, Note_off_c, 0, 71, 105
1, 331423, Note_on_c, 0, 72, 111
1, 332204, Note_off_c, 0, 72, 111
1, 332660, Note_on_c, 0, 63, 110
1, 333274, Note_off_c, 0, 63, 110
1, 333423, Note_on_c, 0, 65, 114
1, 334125, Note_off_c, 0, 65, 114
1, 334177, Note_on_c, 0, 68, 104
1, 335037, Note_off_c, 0, 68, 104
1, 335186, Note_on_c, 0, 69, 103
1, 335537, Note_off_c, 0, 69, 103
1, 335580, Note_on_c, 0, 70, 112
1, 336097, Note_off_c, 0, 70, 112
1, 336175, Note_on_c, 0, 70, 111
1, 336912, Note_off_c, 0, 70, 111
1, 336990, Note_on_c, 0, 71, 116
1, 337226, Note_off_c, 0, 71, 116
1, 337234, Note_on_c, 0, 72, 111
1, 337681, Note_off_c, 0, 72, 111
1, 337830, Note_on_c, 0, 72, 110
1, 338084, Note_off_c, 0, 72, 110
1, 338119, Note_on_c, 0, 75, 106
1, 338399, Note_off_c, 0, 75, 106
1, 338469, Note_on_c, 0, 72, 113
1, 338846, Note_off_c, 0, 72, 113
1, 338916, Note_on_c, 0, 70, 112
1, 339135, Note_off_c, 0, 70, 112
1, 339284, Note_on_c, 0, 68, 113
1, 339520, Note_off_c, 0, 68, 113
1, 339598, Note_on_c, 0, 65, 111
1, 340019, Note_off_c, 0, 65, 111
1, 340168, Note_on_c, 0, 62, 97
1, 340598, Note_off_c, 0, 62, 97
1, 340905, Note_on_c, 0, 69, 111
1, 342625, Note_off_c, 0, 69, 111
1, 348014, Note_on_c, 0, 68, 117
1, 348628, Note_off_c, 0, 68, 117
1, 348750, Note_on_c, 0, 70, 108
1, 349074, Note_off_c, 0, 70, 108
1, 349074, Note_on_c, 0, 71, 114
1, 349855, Note_off_c, 0, 71, 114
1, 349916, Note_on_c, 0, 72, 111
1, 351276, Note_off_c, 0, 72, 111
1, 351433, Note_on_c, 0, 76, 104
1, 351678, Note_off_c, 0, 76, 104
1, 351748, Note_on_c, 0, 75, 106
1, 351862, Note_off_c, 0, 75, 106
1, 351914, Note_on_c, 0, 72, 115
1, 352344, Note_off_c, 0, 72, 115
1, 352352, Note_on_c, 0, 70, 110
1, 353282, Note_off_c, 0, 70, 110
1, 353317, Note_on_c, 0, 69, 107
1, 354563, Note_off_c, 0, 69, 107
1, 354677, Note_on_c, 0, 65, 116
1, 355502, Note_off_c, 0, 65, 116
1, 355589, Note_on_c, 0, 62, 103
1, 356177, Note_off_c, 0, 62, 103
1, 356291, Note_on_c, 0, 63, 111
1, 357116, Note_off_c, 0, 63, 111
1, 357230, Note_on_c, 0, 60, 99
1, 357703, Note_off_c, 0, 60, 99
1, 358238, Note_on_c, 0, 67, 119
1, 358790, Note_off_c, 0, 67, 119
1, 358807, Note_on_c, 0, 68, 111
1, 359122, Note_off_c, 0, 68, 111
1, 359227, Note_on_c, 0, 67, 116
1, 359753, Note_off_c, 0, 67, 116
1, 359753, Note_on_c, 0, 65, 113
1, 360481, Note_off_c, 0, 65, 113
1, 360638, Note_on_c, 0, 64, 118
1, 362226, Note_off_c, 0, 64, 118
1, 362287, Note_on_c, 0, 62, 21
1, 362611, Note_off_c, 0, 62, 21
1, 363058, Note_on_c, 0, 63, 108
1, 364093, Note_off_c, 0, 63, 108
1, 364347, Note_on_c, 0, 70, 111
1, 364654, Note_off_c, 0, 70, 111
1, 364671, Note_on_c, 0, 71, 115
1, 365039, Note_off_c, 0, 71, 115
1, 365161, Note_on_c, 0, 70, 110
1, 365468, Note_off_c, 0, 70, 110
1, 365582, Note_on_c, 0, 69, 98
1, 365871, Note_off_c, 0, 69, 98
1, 365976, Note_on_c, 0, 68, 92
1, 366362, Note_off_c, 0, 68, 92
1, 366783, Note_on_c, 0, 66, 96
1, 367467, Note_off_c, 0, 66, 96
1, 367940, Note_on_c, 0, 70, 108
1, 369300, Note_off_c, 0, 70, 108
1, 370318, Note_on_c, 0, 72, 112
1, 371871, Note_off_c, 0, 72, 112
1, 372099, Note_on_c, 0, 72, 112
1, 373082, Note_off_c, 0, 72, 112
1, 374056, Note_on_c, 0, 70, 108
1, 374608, Note_off_c, 0, 70, 108
1, 374783, Note_on_c, 0, 72, 113
1, 375546, Note_off_c, 0, 72, 113
1, 375624, Note_on_c, 0, 75, 109
1, 375983, Note_off_c, 0, 75, 109
1, 376097, Note_on_c, 0, 72, 107
1, 376298, Note_off_c, 0, 72, 107
1, 376350, Note_on_c, 0, 70, 106
1, 376990, Note_off_c, 0, 70, 106
1, 376998, Note_on_c, 0, 68, 109
1, 378060, Note_off_c, 0, 68, 109
1, 378174, Note_on_c, 0, 65, 107
1, 378797, Note_off_c, 0, 65, 107
1, 379183, Note_on_c, 0, 70, 116
1, 379402, Note_off_c, 0, 70, 116
1, 379402, Note_on_c, 0, 72, 111
1, 380244, Note_off_c, 0, 72, 111
1, 380735, Note_on_c, 0, 72, 114
1, 381744, Note_off_c, 0, 72, 114
1, 382314, Note_on_c, 0, 72, 113
1, 382647, Note_off_c, 0, 72, 113
1, 382699, Note_on_c, 0, 71, 112
1, 383058, Note_off_c, 0, 71, 112
1, 383058, Note_on_c, 0, 72, 110
1, 383488, Note_off_c, 0, 72, 110
1, 383830, Note_on_c, 0, 75, 110
1, 384154, Note_off_c, 0, 75, 110
1, 384224, Note_on_c, 0, 72, 109
1, 384566, Note_off_c, 0, 72, 109
1, 384566, Note_on_c, 0, 70, 106
1, 385303, Note_off_c, 0, 70, 106
1, 385320, Note_on_c, 0, 68, 112
1, 385934, Note_off_c, 0, 68, 112
1, 386021, Note_on_c, 0, 65, 103
1, 387284, Note_off_c, 0, 65, 103
1, 387336, Note_on_c, 0, 68, 109
1, 387994, Note_off_c, 0, 68, 109
1, 388713, Note_on_c, 0, 72, 109
1, 389064, Note_off_c, 0, 72, 109
1, 389116, Note_on_c, 0, 70, 115
1, 389431, Note_off_c, 0, 70, 115
1, 389431, Note_on_c, 0, 72, 113
1, 390212, Note_off_c, 0, 72, 113
1, 390580, Note_on_c, 0, 72, 114
1, 390983, Note_off_c, 0, 72, 114
1, 391026, Note_on_c, 0, 71, 117
1, 391359, Note_off_c, 0, 71, 117
1, 391359, Note_on_c, 0, 72, 114
1, 391736, Note_off_c, 0, 72, 114
1, 391946, Note_on_c, 0, 72, 100
1, 392209, Note_off_c, 0, 72, 100
1, 392209, Note_on_c, 0, 70, 112
1, 392454, Note_off_c, 0, 70, 112
1, 392454, Note_on_c, 0, 72, 112
1, 393138, Note_off_c, 0, 72, 112
1, 393381, Note_on_c, 0, 76, 100
1, 393652, Note_off_c, 0, 76, 100
1, 393707, Note_on_c, 0, 72, 108
1, 394031, Note_off_c, 0, 72, 108
1, 394045, Note_on_c, 0, 71, 105
1, 394369, Note_off_c, 0, 71, 105
1, 394459, Note_on_c, 0, 68, 108
1, 395196, Note_off_c, 0, 68, 108
1, 395257, Note_on_c, 0, 65, 106
1, 395722, Note_off_c, 0, 65, 106
1, 395722, Note_on_c, 0, 68, 98
1, 396213, Note_off_c, 0, 68, 98
1, 396274, Note_on_c, 0, 69, 107
1, 396616, Note_off_c, 0, 69, 107
1, 396756, Note_on_c, 0, 70, 116
1, 397159, Note_off_c, 0, 70, 116
1, 397290, Note_on_c, 0, 72, 113
1, 398097, Note_off_c, 0, 72, 113
1, 398377, Note_on_c, 0, 76, 104
1, 398666, Note_off_c, 0, 76, 104
1, 398841, Note_on_c, 0, 72, 109
1, 399235, Note_off_c, 0, 72, 109
1, 399305, Note_on_c, 0, 71, 108
1, 399743, Note_off_c, 0, 71, 108
1, 399821, Note_on_c, 0, 68, 102
1, 400224, Note_off_c, 0, 68, 102
1, 400302, Note_on_c, 0, 65, 109
1, 400846, Note_off_c, 0, 65, 109
1, 408368, Note_on_c, 0, 72, 115
1, 410018, Note_off_c, 0, 72, 115
1, 410816, Note_on_c, 0, 79, 109
1, 412123, Note_off_c, 0, 79, 109
1, 412166, Note_on_c, 0, 77, 108
1, 413429, Note_off_c, 0, 77, 108
1, 413437, Note_on_c, 0, 76, 115
1, 414885, Note_off_c, 0, 76, 115
1, 416192, Note_on_c, 0, 74, 115
1, 416560, Note_off_c, 0, 74, 115
1, 416595, Note_on_c, 0, 76, 112
1, 418569, Note_off_c, 0, 76, 112
1, 419078, Note_on_c, 0, 74, 107
1, 420078, Note_off_c, 0, 74, 107
1, 420543, Note_on_c, 0, 76, 111
1, 421403, Note_off_c, 0, 76, 111
1, 421639, Note_on_c, 0, 74, 109
1, 422095, Note_off_c, 0, 74, 109
1, 422217, Note_on_c, 0, 76, 113
1, 422813, Note_off_c, 0, 76, 113
1, 422865, Note_on_c, 0, 74, 107
1, 423268, Note_off_c, 0, 74, 107
1, 423285, Note_on_c, 0, 72, 112
1, 424162, Note_off_c, 0, 72, 112
1, 424205, Note_on_c, 0, 70, 103
1, 424415, Note_off_c, 0, 70, 103
1, 424695, Note_on_c, 0, 70, 108
1, 425019, Note_off_c, 0, 70, 108
1, 425045, Note_on_c, 0, 69, 112
1, 425712, Note_off_c, 0, 69, 112
1, 426106, Note_on_c, 0, 65, 115
1, 427080, Note_off_c, 0, 65, 115
1, 427080, Note_on_c, 0, 61, 99
1, 427299, Note_off_c, 0, 61, 99
1, 427351, Note_on_c, 0, 62, 89
1, 428465, Note_off_c, 0, 62, 89
1, 428570, Note_on_c, 0, 65, 104
1, 428745, Note_off_c, 0, 65, 104
1, 428762, Note_on_c, 0, 62, 96
1, 428919, Note_on_c, 0, 60, 101
1, 428919, Note_off_c, 0, 62, 96
1, 429173, Note_off_c, 0, 60, 101
1, 429585, Note_on_c, 0, 67, 114
1, 430805, Note_off_c, 0, 67, 114
1, 434289, Note_on_c, 0, 84, 113
1, 435965, Note_off_c, 0, 84, 113
1, 437141, Note_on_c, 0, 79, 110
1, 438659, Note_off_c, 0, 79, 110
1, 438808, Note_on_c, 0, 80, 112
1, 439115, Note_off_c, 0, 80, 112
1, 439141, Note_on_c, 0, 81, 109
1, 439500, Note_off_c, 0, 81, 109
1, 439561, Note_on_c, 0, 80, 104
1, 440087, Note_off_c, 0, 80, 104
1, 440148, Note_on_c, 0, 81, 114
1, 440376, Note_off_c, 0, 81, 114
1, 440376, Note_on_c, 0, 82, 111
1, 441280, Note_off_c, 0, 82, 111
1, 441490, Note_on_c, 0, 78, 110
1, 442516, Note_off_c, 0, 78, 110
1, 442630, Note_on_c, 0, 73, 112
1, 443226, Note_off_c, 0, 73, 112
1, 443226, Note_on_c, 0, 70, 110
1, 443901, Note_off_c, 0, 70, 110
1, 444076, Note_on_c, 0, 65, 109
1, 444751, Note_off_c, 0, 65, 109
1, 444847, Note_on_c, 0, 61, 100
1, 446804, Note_off_c, 0, 61, 100
1, 447146, Note_on_c, 0, 64, 113
1, 447593, Note_off_c, 0, 64, 113
1, 448040, Note_on_c, 0, 54, 102
1, 448557, Note_off_c, 0, 54, 102
1, 448697, Note_on_c, 0, 58, 107
1, 449364, Note_off_c, 0, 58, 107
1, 449451, Note_on_c, 0, 61, 114
1, 449722, Note_off_c, 0, 61, 114
1, 449731, Note_on_c, 0, 62, 103
1, 450687, Note_off_c, 0, 62, 103
1, 450748, Note_on_c, 0, 61, 106
1, 451415, Note_off_c, 0, 61, 106
1, 451572, Note_on_c, 0, 62, 93
1, 454775, Note_off_c, 0, 62, 93
1, 456223, Note_on_c, 0, 70, 117
1, 456512, Note_off_c, 0, 70, 117
1, 456547, Note_on_c, 0, 72, 112
1, 458811, Note_off_c, 0, 72, 112
1, 459214, Note_on_c, 0, 77, 98
1, 459573, Note_off_c, 0, 77, 98
1, 459590, Note_on_c, 0, 76, 103
1, 459862, Note_off_c, 0, 76, 103
1, 459940, Note_on_c, 0, 72, 108
1, 460317, Note_off_c, 0, 72, 108
1, 460422, Note_on_c, 0, 70, 110
1, 461668, Note_off_c, 0, 70, 110
1, 461729, Note_on_c, 0, 69, 105
1, 462975, Note_off_c, 0, 69, 105
1, 463124, Note_on_c, 0, 67, 107
1, 465256, Note_off_c, 0, 67, 107
1, 472435, Note_on_c, 0, 61, 108
1, 472935, Note_off_c, 0, 61, 108
1, 472935, Note_on_c, 0, 64, 112
1, 473487, Note_off_c, 0, 64, 112
1, 473574, Note_on_c, 0, 68, 117
1, 474091, Note_off_c, 0, 68, 117
1, 474222, Note_on_c, 0, 69, 103
1, 474520, Note_off_c, 0, 69, 103
1, 474669, Note_on_c, 0, 70, 100
1, 474976, Note_off_c, 0, 70, 100
1, 475090, Note_on_c, 0, 71, 105
1, 475458, Note_on_c, 0, 73, 103
1, 475458, Note_off_c, 0, 71, 105
1, 475738, Note_off_c, 0, 73, 103
1, 476080, Note_on_c, 0, 74, 114
1, 476589, Note_off_c, 0, 74, 114
1, 476650, Note_on_c, 0, 76, 114
1, 479871, Note_off_c, 0, 76, 114
1, 480160, Note_on_c, 0, 76, 114
1, 480704, Note_off_c, 0, 76, 114
1, 481002, Note_on_c, 0, 74, 110
1, 481475, Note_off_c, 0, 74, 110
1, 481475, Note_on_c, 0, 76, 113
1, 482115, Note_off_c, 0, 76, 113
1, 482150, Note_on_c, 0, 75, 107
1, 482685, Note_off_c, 0, 75, 107
1, 482807, Note_on_c, 0, 73, 109
1, 483395, Note_off_c, 0, 73, 109
1, 483526, Note_on_c, 0, 72, 112
1, 484140, Note_off_c, 0, 72, 112
1, 484148, Note_on_c, 0, 73, 104
1, 484718, Note_off_c, 0, 73, 104
1, 484735, Note_on_c, 0, 72, 110
1, 485402, Note_off_c, 0, 72, 110
1, 485472, Note_on_c, 0, 70, 102
1, 485621, Note_off_c, 0, 70, 102
1, 485621, Note_on_c, 0, 71, 107
1, 486252, Note_off_c, 0, 71, 107
1, 486278, Note_on_c, 0, 70, 109
1, 486848, Note_off_c, 0, 70, 109
1, 486891, Note_on_c, 0, 69, 106
1, 487531, Note_off_c, 0, 69, 106
1, 490769, Note_on_c, 0, 60, 118
1, 491041, Note_off_c, 0, 60, 118
1, 491155, Note_on_c, 0, 64, 114
1, 491462, Note_off_c, 0, 64, 114
1, 491593, Note_on_c, 0, 67, 112
1, 492154, Note_off_c, 0, 67, 112
1, 492303, Note_on_c, 0, 71, 111
1, 493031, Note_off_c, 0, 71, 111
1, 493031, Note_on_c, 0, 69, 104
1, 493504, Note_off_c, 0, 69, 104
1, 494232, Note_on_c, 0, 73, 111
1, 495092, Note_off_c, 0, 73, 111
1, 495434, Note_on_c, 0, 69, 115
1, 496171, Note_off_c, 0, 69, 115
1, 496908, Note_on_c, 0, 71, 111
1, 498154, Note_off_c, 0, 71, 111
1, 498154, Note_on_c, 0, 67, 114
1, 498803, Note_off_c, 0, 67, 114
1, 498899, Note_on_c, 0, 63, 106
1, 499276, Note_off_c, 0, 63, 106
1, 499311, Note_on_c, 0, 64, 109
1, 499793, Note_off_c, 0, 64, 109
1, 499863, Note_on_c, 0, 61, 104
1, 500214, Note_off_c, 0, 61, 104
1, 500214, Note_on_c, 0, 63, 105
1, 500766, Note_off_c, 0, 63, 105
1, 500809, Note_on_c, 0, 67, 111
1, 501432, Note_off_c, 0, 67, 111
1, 501756, Note_on_c, 0, 71, 109
1, 502335, Note_off_c, 0, 71, 109
1, 502343, Note_on_c, 0, 69, 107
1, 502860, Note_off_c, 0, 69, 107
1, 502938, Note_on_c, 0, 65, 117
1, 503605, Note_off_c, 0, 65, 117
1, 503622, Note_on_c, 0, 61, 106
1, 503955, Note_off_c, 0, 61, 106
1, 504060, Note_on_c, 0, 55, 106
1, 504261, Note_off_c, 0, 55, 106
1, 504269, Note_on_c, 0, 53, 115
1, 504558, Note_off_c, 0, 53, 115
1, 504645, Note_on_c, 0, 67, 114
1, 505224, Note_off_c, 0, 67, 114
1, 505820, Note_on_c, 0, 58, 107
1, 506416, Note_off_c, 0, 58, 107
1, 506802, Note_on_c, 0, 61, 104
1, 507135, Note_off_c, 0, 61, 104
1, 507235, Note_on_c, 0, 67, 106
1, 507678, Note_off_c, 0, 67, 106
1, 507704, Note_on_c, 0, 68, 104
1, 508164, Note_off_c, 0, 68, 104
1, 508304, Note_on_c, 0, 72, 104
1, 508549, Note_on_c, 0, 71, 115
1, 508549, Note_off_c, 0, 72, 104
1, 508737, Note_off_c, 0, 71, 115
1, 508737, Note_on_c, 0, 65, 113
1, 509404, Note_off_c, 0, 65, 113
1, 512219, Note_on_c, 0, 65, 113
1, 513120, Note_off_c, 0, 65, 113
1, 513132, Note_on_c, 0, 67, 96
1, 513891, Note_off_c, 0, 67, 96
1, 513965, Note_on_c, 0, 68, 106
1, 514261, Note_off_c, 0, 68, 106
1, 514304, Note_on_c, 0, 69, 102
1, 514723, Note_off_c, 0, 69, 102
1, 514766, Note_on_c, 0, 69, 117
1, 515315, Note_off_c, 0, 69, 117
1, 515358, Note_on_c, 0, 67, 110
1, 516166, Note_off_c, 0, 67, 110
1, 516172, Note_on_c, 0, 66, 109
1, 516727, Note_off_c, 0, 66, 109
1, 516973, Note_on_c, 0, 64, 110
1, 517627, Note_off_c, 0, 64, 110
1, 517707, Note_on_c, 0, 61, 104
1, 518280, Note_off_c, 0, 61, 104
1, 518354, Note_on_c, 0, 63, 113
1, 519051, Note_off_c, 0, 63, 113
1, 519069, Note_on_c, 0, 59, 102
1, 519562, Note_off_c, 0, 59, 102
1, 519648, Note_on_c, 0, 61, 108
1, 520240, Note_off_c, 0, 61, 108
1, 520418, Note_on_c, 0, 57, 104
1, 521053, Note_off_c, 0, 57, 104
1, 522052, Note_on_c, 0, 69, 106
1, 522329, Note_off_c, 0, 69, 106
1, 522335, Note_on_c, 0, 71, 113
1, 522871, Note_off_c, 0, 71, 113
1, 537238, Note_on_c, 0, 73, 117
1, 538003, Note_off_c, 0, 73, 117
1, 538003, Note_on_c, 0, 75, 115
1, 538965, Note_off_c, 0, 75, 115
1, 540119, Note_on_c, 0, 75, 113
1, 541038, Note_off_c, 0, 75, 113
1, 541038, Note_on_c, 0, 76, 110
1, 541507, Note_off_c, 0, 76, 110
1, 542599, Note_on_c, 0, 75, 112
1, 543475, Note_off_c, 0, 75, 112
1, 543518, Note_on_c, 0, 76, 110
1, 543987, Note_off_c, 0, 76, 110
1, 544301, Note_on_c, 0, 72, 107
1, 545405, Note_off_c, 0, 72, 107
1, 546367, Note_on_c, 0, 74, 115
1, 547329, Note_off_c, 0, 74, 115
1, 547341, Note_on_c, 0, 75, 105
1, 548291, Note_off_c, 0, 75, 105
1, 553221, Note_on_c, 0, 73, 99
1, 553572, Note_off_c, 0, 73, 99
1, 554232, Note_on_c, 0, 75, 119
1, 554775, Note_off_c, 0, 75, 119
1, 554799, Note_on_c, 0, 76, 110
1, 555644, Note_off_c, 0, 76, 110
1, 556872, Note_on_c, 0, 75, 117
1, 557865, Note_off_c, 0, 75, 117
1, 557871, Note_on_c, 0, 76, 112
1, 558377, Note_off_c, 0, 76, 112
1, 559259, Note_on_c, 0, 75, 114
1, 560079, Note_off_c, 0, 75, 114
1, 560122, Note_on_c, 0, 76, 108
1, 560714, Note_off_c, 0, 76, 108
1, 560788, Note_on_c, 0, 73, 97
1, 561170, Note_off_c, 0, 73, 97
1, 561898, Note_on_c, 0, 75, 115
1, 562891, Note_off_c, 0, 75, 115
1, 562971, Note_on_c, 0, 76, 108
1, 563328, Note_off_c, 0, 76, 108
1, 563834, Note_on_c, 0, 72, 101
1, 564444, Note_off_c, 0, 72, 101
1, 565974, Note_on_c, 0, 74, 112
1, 567053, Note_off_c, 0, 74, 112
1, 567059, Note_on_c, 0, 75, 105
1, 567768, Note_off_c, 0, 75, 105
1, 568465, Note_on_c, 0, 74, 113
1, 569378, Note_off_c, 0, 74, 113
1, 569415, Note_on_c, 0, 75, 100
1, 570112, Note_off_c, 0, 75, 100
1, 570494, Note_on_c, 0, 74, 111
1, 571129, Note_off_c, 0, 74, 111
1, 571135, Note_on_c, 0, 75, 107
1, 571659, Note_off_c, 0, 75, 107
1, 572300, Note_on_c, 0, 74, 108
1, 572769, Note_off_c, 0, 74, 108
1, 572812, Note_on_c, 0, 75, 107
1, 573145, Note_off_c, 0, 75, 107
1, 573188, Note_on_c, 0, 77, 112
1, 573607, Note_off_c, 0, 77, 112
1, 573773, Note_on_c, 0, 76, 112
1, 573976, Note_off_c, 0, 76, 112
1, 574031, Note_on_c, 0, 72, 107
1, 574351, Note_off_c, 0, 72, 107
1, 574369, Note_on_c, 0, 70, 105
1, 574591, Note_off_c, 0, 70, 105
1, 574665, Note_on_c, 0, 68, 111
1, 574924, Note_off_c, 0, 68, 111
1, 574985, Note_on_c, 0, 65, 106
1, 576157, Note_off_c, 0, 65, 106
1, 576194, Note_on_c, 0, 60, 105
1, 576946, Note_off_c, 0, 60, 105
1, 577248, Note_on_c, 0, 65, 106
1, 578488, Note_off_c, 0, 65, 106
1, 583684, Note_on_c, 0, 61, 111
1, 584109, Note_off_c, 0, 61, 111
1, 584127, Note_on_c, 0, 63, 112
1, 584602, Note_off_c, 0, 63, 112
1, 584639, Note_on_c, 0, 65, 118
1, 585348, Note_off_c, 0, 65, 118
1, 585348, Note_on_c, 0, 68, 96
1, 585940, Note_off_c, 0, 68, 96
1, 586106, Note_on_c, 0, 69, 95
1, 586686, Note_off_c, 0, 69, 95
1, 586821, Note_on_c, 0, 70, 107
1, 587154, Note_off_c, 0, 70, 107
1, 587154, Note_on_c, 0, 71, 115
1, 588338, Note_off_c, 0, 71, 115
1, 591343, Note_on_c, 0, 59, 119
1, 591750, Note_off_c, 0, 59, 119
1, 591836, Note_on_c, 0, 63, 125
1, 592218, Note_off_c, 0, 63, 125
1, 592329, Note_on_c, 0, 67, 113
1, 592693, Note_off_c, 0, 67, 113
1, 592878, Note_on_c, 0, 71, 111
1, 593451, Note_off_c, 0, 71, 111
1, 593451, Note_on_c, 0, 69, 109
1, 593920, Note_off_c, 0, 69, 109
1, 593981, Note_on_c, 0, 67, 102
1, 594524, Note_off_c, 0, 67, 102
1, 594659, Note_on_c, 0, 66, 109
1, 594837, Note_off_c, 0, 66, 109
1, 594837, Note_on_c, 0, 65, 115
1, 595238, Note_off_c, 0, 65, 115
1, 595262, Note_on_c, 0, 64, 105
1, 596144, Note_off_c, 0, 64, 105
1, 596440, Note_on_c, 0, 63, 113
1, 596983, Note_off_c, 0, 63, 113
1, 597266, Note_on_c, 0, 55, 100
1, 598247, Note_off_c, 0, 55, 100
1, 601690, Note_on_c, 0, 63, 117
1, 601918, Note_off_c, 0, 63, 117
1, 601942, Note_on_c, 0, 59, 110
1, 602232, Note_off_c, 0, 59, 110
1, 602466, Note_on_c, 0, 54, 113
1, 602910, Note_off_c, 0, 54, 113
1, 602990, Note_on_c, 0, 55, 114
1, 603378, Note_off_c, 0, 55, 114
1, 603526, Note_on_c, 0, 57, 111
1, 604050, Note_off_c, 0, 57, 111
1, 604087, Note_on_c, 0, 58, 110
1, 604438, Note_off_c, 0, 58, 110
1, 604481, Note_on_c, 0, 60, 103
1, 604863, Note_off_c, 0, 60, 103
1, 604906, Note_on_c, 0, 63, 113
1, 605331, Note_off_c, 0, 63, 113
1, 605405, Note_on_c, 0, 60, 112
1, 605769, Note_off_c, 0, 60, 112
1, 605954, Note_on_c, 0, 62, 111
1, 606657, Note_off_c, 0, 62, 111
1, 606681, Note_on_c, 0, 60, 117
1, 607162, Note_off_c, 0, 60, 117
1, 607162, Note_on_c, 0, 59, 109
1, 607865, Note_off_c, 0, 59, 109
1, 607939, Note_on_c, 0, 61, 113
1, 608451, Note_off_c, 0, 61, 113
1, 608451, Note_on_c, 0, 63, 111
1, 609037, Note_off_c, 0, 63, 111
1, 609290, Note_on_c, 0, 69, 106
1, 609796, Note_off_c, 0, 69, 106
1, 609870, Note_on_c, 0, 69, 117
1, 610425, Note_off_c, 0, 69, 117
1, 610529, Note_on_c, 0, 66, 110
1, 611115, Note_off_c, 0, 66, 110
1, 611158, Note_on_c, 0, 67, 105
1, 611565, Note_off_c, 0, 67, 105
1, 611688, Note_on_c, 0, 68, 104
1, 612212, Note_off_c, 0, 68, 104
1, 612465, Note_on_c, 0, 69, 98
1, 612977, Note_off_c, 0, 69, 98
1, 613143, Note_on_c, 0, 72, 103
1, 613599, Note_off_c, 0, 72, 103
1, 613611, Note_on_c, 0, 74, 109
1, 614240, Note_off_c, 0, 74, 109
1, 614277, Note_on_c, 0, 72, 112
1, 614931, Note_off_c, 0, 72, 112
1, 614937, Note_on_c, 0, 70, 110
1, 615399, Note_off_c, 0, 70, 110
1, 615473, Note_on_c, 0, 68, 111
1, 615966, Note_off_c, 0, 68, 111
1, 616646, Note_on_c, 0, 68, 96
1, 617263, Note_off_c, 0, 68, 96
1, 617631, Note_on_c, 0, 84, 113
1, 618581, Note_off_c, 0, 84, 113
1, 618945, Note_on_c, 0, 84, 112
1, 619790, Note_off_c, 0, 84, 112
1, 620120, Note_on_c, 0, 68, 86
1, 621076, Note_off_c, 0, 68, 86
1, 621690, Note_on_c, 0, 80, 112
1, 622208, Note_off_c, 0, 80, 112
1, 622208, Note_on_c, 0, 81, 117
1, 622849, Note_off_c, 0, 81, 117
1, 622855, Note_on_c, 0, 82, 103
1, 623373, Note_off_c, 0, 82, 103
1, 623465, Note_on_c, 0, 84, 97
1, 623767, Note_off_c, 0, 84, 97
1, 623779, Note_on_c, 0, 78, 116
1, 624093, Note_off_c, 0, 78, 116
1, 624099, Note_on_c, 0, 77, 107
1, 624277, Note_off_c, 0, 77, 107
1, 624314, Note_on_c, 0, 74, 105
1, 624764, Note_off_c, 0, 74, 105
1, 624764, Note_on_c, 0, 71, 110
1, 625344, Note_off_c, 0, 71, 110
1, 625350, Note_on_c, 0, 66, 111
1, 625812, Note_off_c, 0, 66, 111
1, 625812, Note_on_c, 0, 62, 98
1, 626237, Note_off_c, 0, 62, 98
1, 626237, Note_on_c, 0, 59, 104
1, 626669, Note_off_c, 0, 59, 104
1, 626743, Note_on_c, 0, 54, 99
1, 627113, Note_off_c, 0, 54, 99
1, 627495, Note_on_c, 0, 58, 104
1, 627797, Note_off_c, 0, 58, 104
1, 627914, Note_on_c, 0, 62, 104
1, 628759, Note_off_c, 0, 62, 104
1, 628931, Note_on_c, 0, 60, 111
1, 629325, Note_off_c, 0, 60, 111
1, 629325, Note_on_c, 0, 62, 117
1, 629898, Note_off_c, 0, 62, 117
1, 630009, Note_on_c, 0, 60, 111
1, 630342, Note_off_c, 0, 60, 111
1, 630391, Note_on_c, 0, 58, 107
1, 630841, Note_off_c, 0, 58, 107
1, 630871, Note_on_c, 0, 60, 102
1, 631161, Note_off_c, 0, 60, 102
1, 631216, Note_on_c, 0, 61, 119
1, 631487, Note_off_c, 0, 61, 119
1, 631524, Note_on_c, 0, 65, 116
1, 631832, Note_off_c, 0, 65, 116
1, 631881, Note_on_c, 0, 68, 111
1, 632337, Note_off_c, 0, 68, 111
1, 632361, Note_on_c, 0, 74, 103
1, 632694, Note_off_c, 0, 74, 103
1, 632971, Note_on_c, 0, 65, 112
1, 633359, Note_off_c, 0, 65, 112
1, 633365, Note_on_c, 0, 68, 93
1, 633957, Note_off_c, 0, 68, 93
1, 637610, Note_on_c, 0, 61, 112
1, 637912, Note_off_c, 0, 61, 112
1, 637967, Note_on_c, 0, 63, 118
1, 638355, Note_off_c, 0, 63, 118
1, 638373, Note_on_c, 0, 64, 123
1, 638774, Note_off_c, 0, 64, 123
1, 638872, Note_on_c, 0, 67, 107
1, 639285, Note_off_c, 0, 67, 107
1, 639303, Note_on_c, 0, 66, 102
1, 639660, Note_off_c, 0, 66, 102
1, 639660, Note_on_c, 0, 68, 91
1, 639888, Note_off_c, 0, 68, 91
1, 639888, Note_on_c, 0, 70, 92
1, 640215, Note_off_c, 0, 70, 92
1, 640227, Note_on_c, 0, 72, 114
1, 640671, Note_off_c, 0, 72, 114
1, 640732, Note_on_c, 0, 74, 111
1, 641151, Note_off_c, 0, 74, 111
1, 641644, Note_on_c, 0, 70, 112
1, 642193, Note_off_c, 0, 70, 112
1, 642273, Note_on_c, 0, 71, 111
1, 642760, Note_off_c, 0, 71, 111
1, 642790, Note_on_c, 0, 72, 115
1, 643758, Note_off_c, 0, 72, 115
1, 643782, Note_on_c, 0, 74, 108
1, 644096, Note_off_c, 0, 74, 108
1, 644102, Note_on_c, 0, 75, 112
1, 644626, Note_off_c, 0, 75, 112
1, 644700, Note_on_c, 0, 74, 105
1, 644971, Note_off_c, 0, 74, 105
1, 644971, Note_on_c, 0, 72, 107
1, 645187, Note_off_c, 0, 72, 107
1, 645291, Note_on_c, 0, 70, 108
1, 645469, Note_off_c, 0, 70, 108
1, 645469, Note_on_c, 0, 68, 113
1, 645771, Note_off_c, 0, 68, 113
1, 645869, Note_on_c, 0, 65, 114
1, 646449, Note_off_c, 0, 65, 114
1, 646504, Note_on_c, 0, 61, 109
1, 646818, Note_off_c, 0, 61, 109
1, 646848, Note_on_c, 0, 58, 106
1, 647131, Note_off_c, 0, 58, 106
1, 647242, Note_on_c, 0, 56, 113
1, 647661, Note_off_c, 0, 56, 113
1, 647839, Note_on_c, 0, 53, 112
1, 648320, Note_off_c, 0, 53, 112
1, 648369, Note_on_c, 0, 52, 106
1, 649486, Note_off_c, 0, 52, 106
1, 655095, Note_on_c, 0, 61, 110
1, 655329, Note_off_c, 0, 61, 110
1, 655329, Note_on_c, 0, 63, 116
1, 655791, Note_on_c, 0, 67, 115
1, 655791, Note_off_c, 0, 63, 116
1, 656438, Note_off_c, 0, 67, 115
1, 656481, Note_on_c, 0, 70, 113
1, 657048, Note_off_c, 0, 70, 113
1, 657078, Note_on_c, 0, 69, 115
1, 657701, Note_off_c, 0, 69, 115
1, 657719, Note_on_c, 0, 65, 116
1, 658225, Note_off_c, 0, 65, 116
1, 658391, Note_on_c, 0, 62, 103
1, 659322, Note_off_c, 0, 62, 103
1, 659340, Note_on_c, 0, 60, 101
1, 659531, Note_off_c, 0, 60, 101
1, 659709, Note_on_c, 0, 67, 111
1, 660363, Note_off_c, 0, 67, 111
1, 660437, Note_on_c, 0, 65, 110
1, 660980, Note_off_c, 0, 65, 110
1, 660980, Note_on_c, 0, 64, 108
1, 661689, Note_off_c, 0, 64, 108
1, 661824, Note_on_c, 0, 62, 104
1, 662305, Note_off_c, 0, 62, 104
1, 662366, Note_on_c, 0, 60, 108
1, 662822, Note_off_c, 0, 60, 108
1, 663068, Note_on_c, 0, 58, 107
1, 663518, Note_off_c, 0, 58, 107
1, 663690, Note_on_c, 0, 57, 109
1, 663980, Note_off_c, 0, 57, 109
1, 664029, Note_on_c, 0, 60, 106
1, 664374, Note_off_c, 0, 60, 106
1, 664503, Note_on_c, 0, 64, 106
1, 664873, Note_off_c, 0, 64, 106
1, 664879, Note_on_c, 0, 67, 104
1, 665230, Note_off_c, 0, 67, 104
1, 665316, Note_on_c, 0, 64, 109
1, 665686, Note_off_c, 0, 64, 109
1, 665686, Note_on_c, 0, 65, 117
1, 666266, Note_off_c, 0, 65, 117
1, 666407, Note_on_c, 0, 67, 105
1, 666894, Note_off_c, 0, 67, 105
1, 666955, Note_on_c, 0, 65, 102
1, 667232, Note_off_c, 0, 65, 102
1, 667528, Note_on_c, 0, 72, 97
1, 667774, Note_off_c, 0, 72, 97
1, 667780, Note_on_c, 0, 71, 105
1, 668107, Note_off_c, 0, 71, 105
1, 668242, Note_on_c, 0, 72, 105
1, 670463, Note_off_c, 0, 72, 105
1, 670574, Note_on_c, 0, 74, 112
1, 671197, Note_on_c, 0, 75, 110
1, 671197, Note_off_c, 0, 74, 112
1, 672030, Note_off_c, 0, 75, 110
1, 672283, Note_on_c, 0, 72, 98
1, 674535, Note_off_c, 0, 72, 98
1, 674639, Note_on_c, 0, 74, 113
1, 675077, Note_off_c, 0, 74, 113
1, 675101, Note_on_c, 0, 75, 115
1, 675952, Note_off_c, 0, 75, 115
1, 676649, Note_on_c, 0, 72, 103
1, 677013, Note_off_c, 0, 72, 103
1, 677087, Note_on_c, 0, 72, 103
1, 677525, Note_off_c, 0, 72, 103
1, 677790, Note_on_c, 0, 75, 113
1, 678141, Note_off_c, 0, 75, 113
1, 678159, Note_on_c, 0, 74, 116
1, 678529, Note_off_c, 0, 74, 116
1, 678559, Note_on_c, 0, 75, 109
1, 679855, Note_off_c, 0, 75, 109
1, 679972, Note_on_c, 0, 72, 107
1, 681058, Note_off_c, 0, 72, 107
1, 681243, Note_on_c, 0, 76, 99
1, 681446, Note_off_c, 0, 76, 99
1, 681594, Note_on_c, 0, 73, 99
1, 681902, Note_off_c, 0, 73, 99
1, 682142, Note_on_c, 0, 71, 89
1, 682499, Note_off_c, 0, 71, 89
1, 684597, Note_on_c, 0, 72, 114
1, 685442, Note_off_c, 0, 72, 114
1, 685540, Note_on_c, 0, 76, 109
1, 685965, Note_off_c, 0, 76, 109
1, 686020, Note_on_c, 0, 73, 93
1, 686495, Note_off_c, 0, 73, 93
1, 686569, Note_on_c, 0, 72, 97
1, 687025, Note_off_c, 0, 72, 97
1, 687025, Note_on_c, 0, 71, 102
1, 687889, Note_off_c, 0, 71, 102
1, 688098, Note_on_c, 0, 72, 113
1, 688585, Note_off_c, 0, 72, 113
1, 688868, Note_on_c, 0, 75, 97
1, 689250, Note_off_c, 0, 75, 97
1, 689367, Note_on_c, 0, 75, 103
1, 689761, Note_off_c, 0, 75, 103
1, 689865, Note_on_c, 0, 72, 105
1, 690142, Note_off_c, 0, 72, 105
1, 690148, Note_on_c, 0, 70, 109
1, 690394, Note_off_c, 0, 70, 109
1, 690394, Note_on_c, 0, 71, 109
1, 691066, Note_off_c, 0, 71, 109
1, 691109, Note_on_c, 0, 68, 106
1, 692460, Note_off_c, 0, 68, 106
1, 696718, Note_on_c, 0, 72, 117
1, 697520, Note_off_c, 0, 72, 117
1, 697643, Note_on_c, 0, 75, 93
1, 697970, Note_off_c, 0, 75, 93
1, 697994, Note_on_c, 0, 74, 102
1, 698672, Note_off_c, 0, 74, 102
1, 698690, Note_on_c, 0, 70, 108
1, 699560, Note_off_c, 0, 70, 108
1, 699634, Note_on_c, 0, 69, 116
1, 700467, Note_off_c, 0, 69, 116
1, 700689, Note_on_c, 0, 65, 116
1, 701553, Note_off_c, 0, 65, 116
1, 701617, Note_on_c, 0, 62, 87
1, 703477, Note_off_c, 0, 62, 87
1, 704168, Note_on_c, 0, 67, 109
1, 705297, Note_off_c, 0, 67, 109
1, 705611, Note_on_c, 0, 62, 106
1, 706530, Note_off_c, 0, 62, 106
1, 706548, Note_on_c, 0, 67, 106
1, 708424, Note_off_c, 0, 67, 106
1, 708467, Note_on_c, 0, 69, 104
1, 710540, Note_off_c, 0, 69, 104
1, 715341, Note_on_c, 0, 61, 107
1, 715847, Note_off_c, 0, 61, 107
1, 715896, Note_on_c, 0, 63, 116
1, 716476, Note_off_c, 0, 63, 116
1, 716661, Note_on_c, 0, 68, 111
1, 717389, Note_off_c, 0, 68, 111
1, 717389, Note_on_c, 0, 70, 98
1, 717833, Note_off_c, 0, 70, 98
1, 717907, Note_on_c, 0, 71, 108
1, 718659, Note_off_c, 0, 71, 108
1, 718905, Note_on_c, 0, 74, 115
1, 719583, Note_off_c, 0, 74, 115
1, 719977, Note_on_c, 0, 76, 113
1, 720705, Note_off_c, 0, 76, 113
1, 720754, Note_on_c, 0, 78, 113
1, 722815, Note_off_c, 0, 78, 113
1, 722938, Note_on_c, 0, 77, 106
1, 723370, Note_off_c, 0, 77, 106
1, 723530, Note_on_c, 0, 78, 107
1, 724036, Note_off_c, 0, 78, 107
1, 724036, Note_on_c, 0, 77, 110
1, 724529, Note_off_c, 0, 77, 110
1, 724578, Note_on_c, 0, 78, 9
1, 725824, Note_off_c, 0, 78, 9
1, 726367, Note_on_c, 0, 74, 117
1, 726959, Note_off_c, 0, 74, 117
1, 727045, Note_on_c, 0, 76, 115
1, 727501, Note_off_c, 0, 76, 115
1, 727513, Note_on_c, 0, 75, 114
1, 728056, Note_off_c, 0, 75, 114
1, 728352, Note_on_c, 0, 73, 109
1, 728845, Note_off_c, 0, 73, 109
1, 729091, Note_on_c, 0, 72, 116
1, 729485, Note_off_c, 0, 72, 116
1, 729559, Note_on_c, 0, 74, 112
1, 730102, Note_off_c, 0, 74, 112
1, 730213, Note_on_c, 0, 72, 116
1, 730719, Note_off_c, 0, 72, 116
1, 730916, Note_on_c, 0, 71, 114
1, 731471, Note_off_c, 0, 71, 114
1, 731569, Note_on_c, 0, 70, 114
1, 732198, Note_off_c, 0, 70, 114
1, 732296, Note_on_c, 0, 67, 107
1, 732863, Note_off_c, 0, 67, 107
1, 732986, Note_on_c, 0, 68, 113
1, 733566, Note_off_c, 0, 68, 113
1, 733812, Note_on_c, 0, 69, 120
1, 734404, Note_off_c, 0, 69, 120
1, 735305, Note_on_c, 0, 69, 117
1, 735749, Note_off_c, 0, 69, 117
1, 735786, Note_on_c, 0, 73, 112
1, 736230, Note_off_c, 0, 73, 112
1, 736316, Note_on_c, 0, 69, 115
1, 736896, Note_off_c, 0, 69, 115
1, 738142, Note_on_c, 0, 69, 112
1, 738561, Note_off_c, 0, 69, 112
1, 738561, Note_on_c, 0, 73, 111
1, 738993, Note_off_c, 0, 73, 111
1, 739227, Note_on_c, 0, 69, 116
1, 739831, Note_off_c, 0, 69, 116
1, 740534, Note_on_c, 0, 69, 110
1, 741064, Note_off_c, 0, 69, 110
1, 741064, Note_on_c, 0, 73, 104
1, 741483, Note_off_c, 0, 73, 104
1, 741643, Note_on_c, 0, 69, 111
1, 742198, Note_off_c, 0, 69, 111
1, 742407, Note_on_c, 0, 67, 109
1, 742950, Note_on_c, 0, 65, 111
1, 742950, Note_off_c, 0, 67, 109
1, 743381, Note_off_c, 0, 65, 111
1, 743393, Note_on_c, 0, 67, 107
1, 743911, Note_off_c, 0, 67, 107
1, 744071, Note_on_c, 0, 69, 123
1, 744626, Note_off_c, 0, 69, 123
1, 745452, Note_on_c, 0, 69, 115
1, 746019, Note_off_c, 0, 69, 115
1, 746142, Note_on_c, 0, 73, 114
1, 746524, Note_off_c, 0, 73, 114
1, 746524, Note_on_c, 0, 71, 117
1, 746832, Note_on_c, 0, 67, 108
1, 746832, Note_off_c, 0, 71, 117
1, 747609, Note_off_c, 0, 67, 108
1, 747609, Note_on_c, 0, 61, 116
1, 748003, Note_off_c, 0, 61, 116
1, 748126, Note_on_c, 0, 67, 116
1, 748755, Note_off_c, 0, 67, 116
1, 748853, Note_on_c, 0, 71, 110
1, 749383, Note_off_c, 0, 71, 110
1, 749383, Note_on_c, 0, 67, 114
1, 749864, Note_off_c, 0, 67, 114
1, 749975, Note_on_c, 0, 61, 116
1, 750481, Note_off_c, 0, 61, 116
1, 750838, Note_on_c, 0, 67, 118
1, 751405, Note_off_c, 0, 67, 118
1, 751454, Note_on_c, 0, 71, 110
1, 752009, Note_off_c, 0, 71, 110
1, 752009, Note_on_c, 0, 69, 112
1, 752589, Note_off_c, 0, 69, 112
1, 752589, Note_on_c, 0, 67, 112
1, 753119, Note_off_c, 0, 67, 112
1, 753267, Note_on_c, 0, 65, 111
1, 753884, Note_off_c, 0, 65, 111
1, 754464, Note_on_c, 0, 65, 115
1, 755204, Note_off_c, 0, 65, 115
1, 755784, Note_on_c, 0, 65, 117
1, 756314, Note_off_c, 0, 65, 117
1, 756363, Note_on_c, 0, 69, 115
1, 756844, Note_off_c, 0, 69, 115
1, 757004, Note_on_c, 0, 65, 114
1, 757621, Note_off_c, 0, 65, 114
1, 757633, Note_on_c, 0, 61, 123
1, 758077, Note_off_c, 0, 61, 123
1, 758249, Note_on_c, 0, 65, 120
1, 758705, Note_off_c, 0, 65, 120
1, 759001, Note_on_c, 0, 69, 104
1, 759445, Note_off_c, 0, 69, 104
1, 759556, Note_on_c, 0, 63, 112
1, 760086, Note_off_c, 0, 63, 112
1, 760283, Note_on_c, 0, 61, 106
1, 760789, Note_off_c, 0, 61, 106
1, 760789, Note_on_c, 0, 63, 115
1, 761356, Note_off_c, 0, 63, 115
1, 761356, Note_on_c, 0, 65, 109
1, 761849, Note_off_c, 0, 65, 109
1, 761972, Note_on_c, 0, 60, 125
1, 762206, Note_off_c, 0, 60, 125
1, 762206, Note_on_c, 0, 61, 117
1, 762884, Note_off_c, 0, 61, 117
1, 762884, End_track
0, 0, End_of_file
