0, 0, Header, 1, 1, -10096
1, 0, Start_track
1, 0, Title_t, "Melody"
1, 0, Tempo, 800000
1, 0, Key_signature, -3, "major"
1, 0, Time_signature, 4, 2, 24, 8
1, 600600, Note_on_c, 0, 62, 112
1, 607954, Note_off_c, 0, 62, 112
1, 613045, Note_on_c, 0, 65, 120
1, 628602, Note_off_c, 0, 65, 120
1, 631713, Note_on_c, 0, 65, 119
1, 642744, Note_off_c, 0, 65, 119
1, 664084, Note_on_c, 0, 65, 106
1, 686008, Note_off_c, 0, 65, 106
1, 768614, Note_on_c, 0, 62, 117
1, 774554, Note_off_c, 0, 62, 117
1, 776251, Note_on_c, 0, 65, 116
1, 797182, Note_off_c, 0, 65, 116
1, 802669, Note_on_c, 0, 65, 113
1, 815114, Note_off_c, 0, 65, 113
1, 863652, Note_on_c, 0, 62, 112
1, 868743, Note_off_c, 0, 62, 112
1, 869874, Note_on_c, 0, 65, 109
1, 890805, Note_off_c, 0, 65, 109
1, 892219, Note_on_c, 0, 66, 113
1, 902967, Note_off_c, 0, 66, 113
1, 917958, Note_on_c, 0, 56, 96
1, 945395, Note_off_c, 0, 56, 96
1, 982732, Note_on_c, 0, 66, 121
1, 988954, Note_off_c, 0, 66, 121
1, 989802, Note_on_c, 0, 62, 113
1, 997722, Note_off_c, 0, 62, 113
1, 999419, Note_on_c, 0, 56, 102
1, 1007056, Note_off_c, 0, 56, 102
1, 1009035, Note_on_c, 0, 54, 103
1, 1022895, Note_off_c, 0, 54, 103
1, 1086537, Note_on_c, 0, 53, 106
1, 1092194, Note_off_c, 0, 53, 106
1, 1093325, Note_on_c, 0, 49, 103
1, 1101527, Note_off_c, 0, 49, 103
1, 1103224, Note_on_c, 0, 51, 95
1, 1106335, Note_off_c, 0, 51, 95
1, 1107733, Note_on_c, 0, 53, 100
1, 1111086, Note_off_c, 0, 53, 100
1, 1111673, Note_on_c, 0, 55, 107
1, 1116098, Note_off_c, 0, 55, 107
1, 1117647, Note_on_c, 0, 61, 115
1, 1121041, Note_off_c, 0, 61, 115
1, 1122455, Note_on_c, 0, 63, 120
1, 1127546, Note_off_c, 0, 63, 120
1, 1129111, Note_on_c, 0, 67, 125
1, 1142788, Note_off_c, 0, 67, 125
1, 1151305, Note_on_c, 0, 71, 121
1, 1168276, Note_off_c, 0, 71, 121
1, 1170142, Note_on_c, 0, 75, 119
1, 1184423, Note_off_c, 0, 75, 119
1, 1193675, Note_on_c, 0, 71, 121
1, 1207352, Note_off_c, 0, 71, 121
1, 1215510, Note_on_c, 0, 67, 121
1, 1226258, Note_off_c, 0, 67, 121
1, 1227389, Note_on_c, 0, 63, 112
1, 1233611, Note_off_c, 0, 63, 112
1, 1235025, Note_on_c, 0, 61, 110
1, 1242096, Note_off_c, 0, 61, 110
1, 1245490, Note_on_c, 0, 55, 105
1, 1251430, Note_off_c, 0, 55, 105
1, 1253007, Note_on_c, 0, 51, 100
1, 1257249, Note_off_c, 0, 51, 100
1, 1260448, Note_on_c, 0, 47, 100
1, 1272918, Note_off_c, 0, 47, 100
1, 1361175, Note_on_c, 0, 55, 108
1, 1365135, Note_off_c, 0, 55, 108
1, 1366266, Note_on_c, 0, 56, 107
1, 1371640, Note_off_c, 0, 56, 107
1, 1372488, Note_on_c, 0, 58, 106
1, 1375316, Note_off_c, 0, 58, 106
1, 1376164, Note_on_c, 0, 62, 117
1, 1378992, Note_off_c, 0, 62, 117
1, 1379274, Note_on_c, 0, 65, 122
1, 1385214, Note_on_c, 0, 62, 117
1, 1385214, Note_off_c, 0, 65, 122
1, 1390022, Note_off_c, 0, 62, 117
1, 1390870, Note_on_c, 0, 63, 119
1, 1395395, Note_off_c, 0, 63, 119
1, 1399355, Note_on_c, 0, 65, 115
1, 1408406, Note_off_c, 0, 65, 115
1, 1409254, Note_on_c, 0, 67, 117
1, 1414628, Note_off_c, 0, 67, 117
1, 1415476, Note_on_c, 0, 69, 110
1, 1418870, Note_off_c, 0, 69, 110
1, 1420001, Note_on_c, 0, 70, 118
1, 1426506, Note_off_c, 0, 70, 118
1, 1427920, Note_on_c, 0, 69, 122
1, 1437820, Note_off_c, 0, 69, 122
1, 1437820, Note_on_c, 0, 67, 121
1, 1442345, Note_off_c, 0, 67, 121
1, 1443759, Note_on_c, 0, 65, 118
1, 1449699, Note_off_c, 0, 65, 118
1, 1450547, Note_on_c, 0, 62, 114
1, 1454507, Note_off_c, 0, 62, 114
1, 1456486, Note_on_c, 0, 63, 114
1, 1461577, Note_off_c, 0, 63, 114
1, 1464971, Note_on_c, 0, 64, 118
1, 1470345, Note_off_c, 0, 64, 118
1, 1472890, Note_on_c, 0, 62, 118
1, 1476850, Note_off_c, 0, 62, 118
1, 1478829, Note_on_c, 0, 61, 103
1, 1482506, Note_off_c, 0, 61, 103
1, 1485309, Note_on_c, 0, 64, 109
1, 1489734, Note_off_c, 0, 64, 109
1, 1489935, Note_on_c, 0, 67, 123
1, 1496773, Note_off_c, 0, 67, 123
1, 1497778, Note_on_c, 0, 70, 118
1, 1506225, Note_off_c, 0, 70, 118
1, 1508839, Note_on_c, 0, 67, 115
1, 1515476, Note_off_c, 0, 67, 115
1, 1521912, Note_on_c, 0, 68, 125
1, 1528549, Note_off_c, 0, 68, 125
1, 1538002, Note_on_c, 0, 66, 111
1, 1543634, Note_off_c, 0, 66, 111
1, 1554897, Note_on_c, 0, 63, 111
1, 1568977, Note_off_c, 0, 63, 111
1, 1645009, Note_on_c, 0, 63, 123
1, 1650238, Note_off_c, 0, 63, 123
1, 1652048, Note_on_c, 0, 65, 120
1, 1659691, Note_off_c, 0, 65, 120
1, 1662104, Note_on_c, 0, 66, 119
1, 1669546, Note_off_c, 0, 66, 119
1, 1671020, Note_on_c, 0, 68, 124
1, 1695911, Note_off_c, 0, 68, 124
1, 1739329, Note_on_c, 0, 69, 120
1, 1746471, Note_off_c, 0, 69, 120
1, 1746783, Note_on_c, 0, 70, 117
1, 1751610, Note_off_c, 0, 70, 117
1, 1752414, Note_on_c, 0, 69, 118
1, 1758247, Note_off_c, 0, 69, 118
1, 1760057, Note_on_c, 0, 67, 124
1, 1765890, Note_off_c, 0, 67, 124
1, 1767499, Note_on_c, 0, 66, 120
1, 1776148, Note_off_c, 0, 66, 120
1, 1776751, Note_on_c, 0, 69, 116
1, 1780170, Note_off_c, 0, 69, 116
1, 1781376, Note_on_c, 0, 66, 120
1, 1786605, Note_off_c, 0, 66, 120
1, 1788817, Note_on_c, 0, 65, 113
1, 1795857, Note_off_c, 0, 65, 113
1, 1797466, Note_on_c, 0, 64, 118
1, 1803098, Note_off_c, 0, 64, 118
1, 1805109, Note_on_c, 0, 65, 120
1, 1809333, Note_off_c, 0, 65, 120
1, 1810942, Note_on_c, 0, 64, 120
1, 1816574, Note_off_c, 0, 64, 120
1, 1818384, Note_on_c, 0, 63, 120
1, 1825021, Note_off_c, 0, 63, 120
1, 1826630, Note_on_c, 0, 62, 121
1, 1832262, Note_off_c, 0, 62, 121
1, 1833670, Note_on_c, 0, 63, 119
1, 1837894, Note_off_c, 0, 63, 119
1, 1839905, Note_on_c, 0, 62, 115
1, 1846140, Note_off_c, 0, 62, 115
1, 1846743, Note_on_c, 0, 61, 114
1, 1852978, Note_off_c, 0, 61, 114
1, 1854184, Note_on_c, 0, 60, 115
1, 1863235, Note_off_c, 0, 60, 115
1, 1864039, Note_on_c, 0, 58, 110
1, 1869671, Note_off_c, 0, 58, 110
1, 1870877, Note_on_c, 0, 57, 103
1, 1875503, Note_off_c, 0, 57, 103
1, 1876106, Note_on_c, 0, 54, 105
1, 1885358, Note_off_c, 0, 54, 105
1, 1981102, Note_on_c, 0, 53, 110
1, 1989147, Note_off_c, 0, 53, 110
1, 1989750, Note_on_c, 0, 51, 102
1, 1993772, Note_off_c, 0, 51, 102
1, 1995984, Note_on_c, 0, 50, 108
1, 2010265, Note_off_c, 0, 50, 108
1, 2011471, Note_on_c, 0, 53, 108
1, 2017706, Note_off_c, 0, 53, 108
1, 2018309, Note_on_c, 0, 50, 110
1, 2023538, Note_off_c, 0, 50, 110
1, 2024744, Note_on_c, 0, 51, 107
1, 2030174, Note_off_c, 0, 51, 107
1, 2031582, Note_on_c, 0, 53, 105
1, 2038420, Note_off_c, 0, 53, 105
1, 2041034, Note_on_c, 0, 55, 102
1, 2046263, Note_off_c, 0, 55, 102
1, 2050889, Note_on_c, 0, 58, 112
1, 2058130, Note_off_c, 0, 58, 112
1, 2058331, Note_on_c, 0, 53, 106
1, 2061147, Note_off_c, 0, 53, 106
1, 2061147, Note_on_c, 0, 55, 107
1, 2064566, Note_off_c, 0, 55, 107
1, 2065370, Note_on_c, 0, 56, 108
1, 2073415, Note_off_c, 0, 56, 108
1, 2074822, Note_on_c, 0, 58, 113
1, 2079850, Note_off_c, 0, 58, 113
1, 2081861, Note_on_c, 0, 62, 111
1, 2095739, Note_off_c, 0, 62, 111
1, 2096543, Note_on_c, 0, 65, 122
1, 2102175, Note_off_c, 0, 65, 122
1, 2102577, Note_on_c, 0, 62, 117
1, 2108007, Note_off_c, 0, 62, 117
1, 2109213, Note_on_c, 0, 63, 121
1, 2112833, Note_off_c, 0, 63, 121
1, 2114039, Note_on_c, 0, 65, 118
1, 2122487, Note_off_c, 0, 65, 118
1, 2123895, Note_on_c, 0, 67, 120
1, 2131136, Note_off_c, 0, 67, 120
1, 2133952, Note_on_c, 0, 70, 111
1, 2175588, Note_off_c, 0, 70, 111
1, 2246591, Note_on_c, 0, 76, 122
1, 2252021, Note_off_c, 0, 76, 122
1, 2253630, Note_on_c, 0, 75, 116
1, 2259463, Note_off_c, 0, 75, 116
1, 2260871, Note_on_c, 0, 74, 117
1, 2265497, Note_off_c, 0, 74, 117
1, 2267709, Note_on_c, 0, 73, 118
1, 2273341, Note_off_c, 0, 73, 118
1, 2274145, Note_on_c, 0, 72, 121
1, 2280179, Note_off_c, 0, 72, 121
1, 2281587, Note_on_c, 0, 71, 121
1, 2288023, Note_off_c, 0, 71, 121
1, 2289833, Note_on_c, 0, 73, 112
1, 2297476, Note_off_c, 0, 73, 112
1, 2299688, Note_on_c, 0, 68, 117
1, 2306728, Note_off_c, 0, 68, 117
1, 2307934, Note_on_c, 0, 69, 112
1, 2314974, Note_off_c, 0, 69, 112
1, 2316180, Note_on_c, 0, 66, 111
1, 2321409, Note_off_c, 0, 66, 111
1, 2322414, Note_on_c, 0, 68, 121
1, 2328247, Note_off_c, 0, 68, 121
1, 2329655, Note_on_c, 0, 66, 117
1, 2334080, Note_off_c, 0, 66, 117
1, 2335286, Note_on_c, 0, 67, 121
1, 2343331, Note_off_c, 0, 67, 121
1, 2343733, Note_on_c, 0, 65, 119
1, 2349365, Note_off_c, 0, 65, 119
1, 2350169, Note_on_c, 0, 62, 114
1, 2354594, Note_off_c, 0, 62, 114
1, 2355800, Note_on_c, 0, 63, 113
1, 2362638, Note_off_c, 0, 63, 113
1, 2364247, Note_on_c, 0, 64, 119
1, 2368672, Note_off_c, 0, 64, 119
1, 2369878, Note_on_c, 0, 62, 114
1, 2376314, Note_off_c, 0, 62, 114
1, 2378727, Note_on_c, 0, 61, 112
1, 2382749, Note_off_c, 0, 61, 112
1, 2384157, Note_on_c, 0, 64, 112
1, 2390593, Note_off_c, 0, 64, 112
1, 2390794, Note_on_c, 0, 67, 124
1, 2398035, Note_off_c, 0, 67, 124
1, 2400649, Note_on_c, 0, 70, 117
1, 2406482, Note_off_c, 0, 70, 117
1, 2409499, Note_on_c, 0, 67, 117
1, 2417947, Note_off_c, 0, 67, 117
1, 2418952, Note_on_c, 0, 68, 123
1, 2426796, Note_off_c, 0, 68, 123
1, 2429612, Note_on_c, 0, 60, 114
1, 2434238, Note_off_c, 0, 60, 114
1, 2435042, Note_on_c, 0, 63, 109
1, 2441478, Note_off_c, 0, 63, 109
1, 2441478, Note_on_c, 0, 67, 124
1, 2447713, Note_off_c, 0, 67, 124
1, 2448316, Note_on_c, 0, 65, 115
1, 2453344, Note_off_c, 0, 65, 115
1, 2454148, Note_on_c, 0, 63, 112
1, 2460986, Note_off_c, 0, 63, 112
1, 2463198, Note_on_c, 0, 65, 118
1, 2468427, Note_off_c, 0, 65, 118
1, 2473053, Note_on_c, 0, 63, 117
1, 2477478, Note_off_c, 0, 63, 117
1, 2479690, Note_on_c, 0, 62, 117
1, 2484115, Note_off_c, 0, 62, 117
1, 2485724, Note_on_c, 0, 60, 119
1, 2492562, Note_off_c, 0, 60, 119
1, 2493768, Note_on_c, 0, 58, 104
1, 2498595, Note_off_c, 0, 58, 104
1, 2501008, Note_on_c, 0, 56, 111
1, 2506036, Note_off_c, 0, 56, 111
1, 2507242, Note_on_c, 0, 55, 107
1, 2511667, Note_off_c, 0, 55, 107
1, 2512873, Note_on_c, 0, 53, 106
1, 2517499, Note_off_c, 0, 53, 106
1, 2518705, Note_on_c, 0, 51, 103
1, 2523532, Note_off_c, 0, 51, 103
1, 2525342, Note_on_c, 0, 48, 116
1, 2534192, Note_off_c, 0, 48, 116
1, 2536806, Note_on_c, 0, 51, 110
1, 2542236, Note_off_c, 0, 51, 110
1, 2544046, Note_on_c, 0, 48, 108
1, 2547867, Note_off_c, 0, 48, 108
1, 2549476, Note_on_c, 0, 50, 109
1, 2555309, Note_off_c, 0, 50, 109
1, 2559130, Note_on_c, 0, 41, 104
1, 2569589, Note_off_c, 0, 41, 104
1, 2629410, Note_on_c, 0, 51, 120
1, 2631602, Note_off_c, 0, 51, 120
1, 2631884, Note_on_c, 0, 49, 109
1, 2634288, Note_off_c, 0, 49, 109
1, 2635021, Note_on_c, 0, 46, 111
1, 2637837, Note_off_c, 0, 46, 111
1, 2639986, Note_on_c, 0, 44, 111
1, 2644612, Note_off_c, 0, 44, 111
1, 2646020, Note_on_c, 0, 48, 110
1, 2651450, Note_off_c, 0, 48, 110
1, 2652053, Note_on_c, 0, 51, 112
1, 2657886, Note_off_c, 0, 51, 112
1, 2658690, Note_on_c, 0, 48, 113
1, 2662712, Note_off_c, 0, 48, 113
1, 2663315, Note_on_c, 0, 50, 113
1, 2668947, Note_off_c, 0, 50, 113
1, 2670757, Note_on_c, 0, 48, 116
1, 2676791, Note_off_c, 0, 48, 116
1, 2678199, Note_on_c, 0, 46, 113
1, 2683026, Note_off_c, 0, 46, 113
1, 2683629, Note_on_c, 0, 45, 106
1, 2689261, Note_off_c, 0, 45, 106
1, 2690669, Note_on_c, 0, 43, 125
1, 2693686, Note_off_c, 0, 43, 125
1, 2694490, Note_on_c, 0, 44, 105
1, 2757850, Note_off_c, 0, 44, 105
1, 2758313, Note_on_c, 0, 51, 108
1, 2759821, Note_off_c, 0, 51, 108
1, 2760463, Note_on_c, 0, 53, 114
1, 2765692, Note_off_c, 0, 53, 114
1, 2768005, Note_on_c, 0, 59, 119
1, 2771223, Note_off_c, 0, 59, 119
1, 2771927, Note_on_c, 0, 63, 124
1, 2776553, Note_off_c, 0, 63, 124
1, 2776854, Note_on_c, 0, 65, 124
1, 2781078, Note_off_c, 0, 65, 124
1, 2781782, Note_on_c, 0, 67, 127
1, 2789123, Note_off_c, 0, 67, 127
1, 2789525, Note_on_c, 0, 68, 118
1, 2829150, Note_off_c, 0, 68, 118
1, 2914092, Note_on_c, 0, 70, 116
1, 2919724, Note_off_c, 0, 70, 116
1, 2921776, Note_on_c, 0, 75, 121
1, 2936861, Note_off_c, 0, 75, 121
1, 2939475, Note_on_c, 0, 75, 122
1, 2953353, Note_off_c, 0, 75, 122
1, 2955565, Note_on_c, 0, 75, 122
1, 2965823, Note_off_c, 0, 75, 122
1, 2968840, Note_on_c, 0, 75, 121
1, 2980707, Note_off_c, 0, 75, 121
1, 2982919, Note_on_c, 0, 74, 121
1, 2986941, Note_off_c, 0, 74, 121
1, 2987142, Note_on_c, 0, 75, 122
1, 2995187, Note_off_c, 0, 75, 122
1, 2996594, Note_on_c, 0, 73, 118
1, 3007053, Note_off_c, 0, 73, 118
1, 3008134, Note_on_c, 0, 72, 112
1, 3026449, Note_off_c, 0, 72, 112
1, 3083487, Note_on_c, 0, 75, 119
1, 3086705, Note_off_c, 0, 75, 119
1, 3087107, Note_on_c, 0, 77, 115
1, 3095756, Note_off_c, 0, 77, 115
1, 3097767, Note_on_c, 0, 69, 121
1, 3103600, Note_off_c, 0, 69, 121
1, 3104806, Note_on_c, 0, 68, 117
1, 3111644, Note_off_c, 0, 68, 117
1, 3112247, Note_on_c, 0, 66, 117
1, 3128740, Note_off_c, 0, 66, 117
1, 3335514, Note_on_c, 0, 78, 119
1, 3338531, Note_off_c, 0, 78, 119
1, 3339033, Note_on_c, 0, 79, 117
1, 3392034, Note_off_c, 0, 79, 117
1, 3392335, Note_on_c, 0, 78, 113
1, 3396961, Note_off_c, 0, 78, 113
1, 3397061, Note_on_c, 0, 80, 118
1, 3431255, Note_off_c, 0, 80, 118
1, 3432160, Note_on_c, 0, 77, 119
1, 3438194, Note_off_c, 0, 77, 119
1, 3439300, Note_on_c, 0, 79, 113
1, 3457805, Note_off_c, 0, 79, 113
1, 3459706, Note_on_c, 0, 69, 119
1, 3488203, Note_off_c, 0, 69, 119
1, 3587344, Note_on_c, 0, 77, 117
1, 3717316, Note_off_c, 0, 77, 117
1, 3758309, Note_on_c, 0, 76, 124
1, 3763337, Note_off_c, 0, 76, 124
1, 3763337, Note_on_c, 0, 75, 120
1, 3767359, Note_off_c, 0, 75, 120
1, 3768581, Note_on_c, 0, 74, 118
1, 3771975, Note_off_c, 0, 74, 118
1, 3772682, Note_on_c, 0, 73, 117
1, 3781167, Note_off_c, 0, 73, 117
1, 3781308, Note_on_c, 0, 72, 119
1, 3787955, Note_off_c, 0, 72, 119
1, 3788379, Note_on_c, 0, 71, 118
1, 3791490, Note_off_c, 0, 71, 118
1, 3791772, Note_on_c, 0, 69, 116
1, 3799691, Note_off_c, 0, 69, 116
1, 3800115, Note_on_c, 0, 68, 117
1, 3808600, Note_off_c, 0, 68, 117
1, 3808882, Note_on_c, 0, 66, 110
1, 3816236, Note_off_c, 0, 66, 110
1, 3817650, Note_on_c, 0, 69, 118
1, 3824155, Note_off_c, 0, 69, 118
1, 3824862, Note_on_c, 0, 66, 114
1, 3830519, Note_off_c, 0, 66, 114
1, 3830801, Note_on_c, 0, 67, 122
1, 3838013, Note_off_c, 0, 67, 122
1, 3838720, Note_on_c, 0, 63, 115
1, 3846922, Note_off_c, 0, 63, 115
1, 3847063, Note_on_c, 0, 59, 114
1, 3851164, Note_off_c, 0, 59, 114
1, 3852295, Note_on_c, 0, 55, 108
1, 3860356, Note_off_c, 0, 55, 108
1, 3860497, Note_on_c, 0, 51, 111
1, 3863325, Note_off_c, 0, 51, 111
1, 3866012, Note_on_c, 0, 47, 116
1, 3871669, Note_off_c, 0, 47, 116
1, 3871939, Note_on_c, 0, 44, 113
1, 3875358, Note_off_c, 0, 44, 113
1, 3875628, Note_on_c, 0, 37, 110
1, 3939412, Note_off_c, 0, 37, 110
1, 3988558, Note_on_c, 0, 37, 111
1, 3994922, Note_off_c, 0, 37, 111
1, 3995036, Note_on_c, 0, 44, 109
1, 3998606, Note_off_c, 0, 44, 109
1, 3999159, Note_on_c, 0, 46, 110
1, 4003260, Note_off_c, 0, 46, 110
1, 4006651, Note_on_c, 0, 51, 117
1, 4014294, Note_off_c, 0, 51, 117
1, 4015903, Note_on_c, 0, 48, 116
1, 4019322, Note_off_c, 0, 48, 116
1, 4019472, Note_on_c, 0, 50, 117
1, 4026009, Note_off_c, 0, 50, 117
1, 4028012, Note_on_c, 0, 48, 124
1, 4033881, Note_off_c, 0, 48, 124
1, 4034729, Note_on_c, 0, 46, 111
1, 4040527, Note_off_c, 0, 46, 111
1, 4040880, Note_on_c, 0, 45, 106
1, 4045759, Note_off_c, 0, 45, 106
1, 4047385, Note_on_c, 0, 43, 113
1, 4049789, Note_off_c, 0, 43, 113
1, 4050354, Note_on_c, 0, 44, 109
1, 4056506, Note_off_c, 0, 44, 109
1, 4057071, Note_on_c, 0, 46, 111
1, 4061384, Note_off_c, 0, 46, 111
1, 4061596, Note_on_c, 0, 48, 118
1, 4066546, Note_off_c, 0, 48, 118
1, 4067748, Note_on_c, 0, 51, 115
1, 4074780, Note_off_c, 0, 51, 115
1, 4074780, Note_on_c, 0, 55, 114
1, 4083690, Note_off_c, 0, 55, 114
1, 4084082, Note_on_c, 0, 56, 108
1, 4088607, Note_off_c, 0, 56, 108
1, 4089311, Note_on_c, 0, 63, 123
1, 4095958, Note_off_c, 0, 63, 123
1, 4096401, Note_on_c, 0, 58, 110
1, 4102270, Note_off_c, 0, 58, 110
1, 4102749, Note_on_c, 0, 62, 116
1, 4105931, Note_off_c, 0, 62, 116
1, 4106708, Note_on_c, 0, 63, 123
1, 4111021, Note_off_c, 0, 63, 123
1, 4111869, Note_on_c, 0, 62, 118
1, 4113707, Note_off_c, 0, 62, 118
1, 4114060, Note_on_c, 0, 64, 119
1, 4118232, Note_off_c, 0, 64, 119
1, 4118444, Note_on_c, 0, 65, 120
1, 4125869, Note_off_c, 0, 65, 120
1, 4126010, Note_on_c, 0, 69, 118
1, 4132798, Note_off_c, 0, 69, 118
1, 4133293, Note_on_c, 0, 66, 119
1, 4138172, Note_off_c, 0, 66, 119
1, 4138454, Note_on_c, 0, 67, 126
1, 4147788, Note_off_c, 0, 67, 126
1, 4148000, Note_on_c, 0, 65, 117
1, 4153940, Note_off_c, 0, 65, 117
1, 4154576, Note_on_c, 0, 62, 114
1, 4159596, Note_off_c, 0, 62, 114
1, 4160161, Note_on_c, 0, 63, 118
1, 4167020, Note_off_c, 0, 63, 118
1, 4168009, Note_on_c, 0, 64, 123
1, 4174868, Note_off_c, 0, 64, 123
1, 4175238, Note_on_c, 0, 62, 113
1, 4181976, Note_off_c, 0, 62, 113
1, 4182780, Note_on_c, 0, 63, 123
1, 4189719, Note_off_c, 0, 63, 123
1, 4190020, Note_on_c, 0, 65, 117
1, 4200881, Note_off_c, 0, 65, 117
1, 4201987, Note_on_c, 0, 67, 121
1, 4208624, Note_off_c, 0, 67, 121
1, 4209529, Note_on_c, 0, 70, 121
1, 4217273, Note_off_c, 0, 70, 121
1, 4217273, Note_on_c, 0, 67, 121
1, 4222100, Note_off_c, 0, 67, 121
1, 4222200, Note_on_c, 0, 69, 121
1, 4230748, Note_off_c, 0, 69, 121
1, 4231250, Note_on_c, 0, 66, 121
1, 4243821, Note_off_c, 0, 66, 121
1, 4309997, Note_on_c, 0, 68, 124
1, 4315629, Note_off_c, 0, 68, 124
1, 4316031, Note_on_c, 0, 69, 118
1, 4320456, Note_off_c, 0, 69, 118
1, 4320858, Note_on_c, 0, 71, 116
1, 4327294, Note_off_c, 0, 71, 116
1, 4328098, Note_on_c, 0, 73, 121
1, 4335942, Note_off_c, 0, 73, 121
1, 4336746, Note_on_c, 0, 75, 9
1, 4374560, Note_off_c, 0, 75, 9
1, 4472717, Note_on_c, 0, 69, 121
1, 4477745, Note_off_c, 0, 69, 121
1, 4478643, Note_on_c, 0, 70, 119
1, 4485007, Note_off_c, 0, 70, 119
1, 4485855, Note_on_c, 0, 76, 107
1, 4492643, Note_off_c, 0, 76, 107
1, 4493067, Note_on_c, 0, 73, 120
1, 4497309, Note_off_c, 0, 73, 120
1, 4498299, Note_on_c, 0, 74, 117
1, 4505794, Note_off_c, 0, 74, 117
1, 4506359, Note_on_c, 0, 73, 115
1, 4511733, Note_off_c, 0, 73, 115
1, 4512157, Note_on_c, 0, 72, 120
1, 4520076, Note_off_c, 0, 72, 120
1, 4521773, Note_on_c, 0, 70, 116
1, 4528844, Note_off_c, 0, 70, 116
1, 4529551, Note_on_c, 0, 69, 115
1, 4537046, Note_off_c, 0, 69, 115
1, 4537894, Note_on_c, 0, 66, 112
1, 4543409, Note_off_c, 0, 66, 112
1, 4544257, Note_on_c, 0, 69, 119
1, 4550621, Note_off_c, 0, 69, 119
1, 4550903, Note_on_c, 0, 66, 112
1, 4555428, Note_off_c, 0, 66, 112
1, 4556276, Note_on_c, 0, 67, 124
1, 4563347, Note_off_c, 0, 67, 124
1, 4563629, Note_on_c, 0, 65, 119
1, 4569003, Note_off_c, 0, 65, 119
1, 4569144, Note_on_c, 0, 62, 112
1, 4574094, Note_off_c, 0, 62, 112
1, 4575508, Note_on_c, 0, 63, 115
1, 4581023, Note_off_c, 0, 63, 115
1, 4581447, Note_on_c, 0, 65, 119
1, 4590074, Note_off_c, 0, 65, 119
1, 4590356, Note_on_c, 0, 63, 120
1, 4596720, Note_off_c, 0, 63, 120
1, 4597427, Note_on_c, 0, 62, 118
1, 4603508, Note_off_c, 0, 62, 118
1, 4604356, Note_on_c, 0, 60, 121
1, 4612558, Note_off_c, 0, 60, 121
1, 4612982, Note_on_c, 0, 58, 103
1, 4617083, Note_off_c, 0, 58, 103
1, 4617790, Note_on_c, 0, 56, 112
1, 4624437, Note_off_c, 0, 56, 112
1, 4624578, Note_on_c, 0, 55, 113
1, 4629245, Note_off_c, 0, 55, 113
1, 4630800, Note_on_c, 0, 53, 111
1, 4634618, Note_off_c, 0, 53, 111
1, 4635749, Note_on_c, 0, 51, 112
1, 4642961, Note_off_c, 0, 51, 112
1, 4643951, Note_on_c, 0, 50, 107
1, 4647486, Note_off_c, 0, 50, 107
1, 4648051, Note_on_c, 0, 48, 107
1, 4652293, Note_off_c, 0, 48, 107
1, 4653141, Note_on_c, 0, 53, 109
1, 4659788, Note_off_c, 0, 53, 109
1, 4660636, Note_on_c, 0, 50, 105
1, 4663606, Note_off_c, 0, 50, 105
1, 4664737, Note_on_c, 0, 51, 112
1, 4669828, Note_off_c, 0, 51, 112
1, 4670252, Note_on_c, 0, 52, 104
1, 4672656, Note_off_c, 0, 52, 104
1, 4673080, Note_on_c, 0, 53, 109
1, 4678312, Note_off_c, 0, 53, 109
1, 4679019, Note_on_c, 0, 55, 106
1, 4683969, Note_off_c, 0, 55, 106
1, 4684393, Note_on_c, 0, 56, 104
1, 4689060, Note_off_c, 0, 56, 104
1, 4691605, Note_on_c, 0, 58, 105
1, 4697686, Note_off_c, 0, 58, 105
1, 4698958, Note_on_c, 0, 54, 108
1, 4701362, Note_off_c, 0, 54, 108
1, 4701644, Note_on_c, 0, 55, 110
1, 4706452, Note_off_c, 0, 55, 110
1, 4707442, Note_on_c, 0, 56, 110
1, 4709846, Note_off_c, 0, 56, 110
1, 4710553, Note_on_c, 0, 55, 110
1, 4716068, Note_off_c, 0, 55, 110
1, 4716775, Note_on_c, 0, 58, 107
1, 4720027, Note_off_c, 0, 58, 107
1, 4720734, Note_on_c, 0, 62, 112
1, 4725825, Note_off_c, 0, 62, 112
1, 4726532, Note_on_c, 0, 63, 113
1, 4731764, Note_off_c, 0, 63, 113
1, 4732612, Note_on_c, 0, 65, 123
1, 4738693, Note_off_c, 0, 65, 123
1, 4738975, Note_on_c, 0, 62, 115
1, 4743076, Note_off_c, 0, 62, 115
1, 4743924, Note_on_c, 0, 63, 115
1, 4748591, Note_off_c, 0, 63, 115
1, 4751278, Note_on_c, 0, 65, 117
1, 4756652, Note_off_c, 0, 65, 117
1, 4756652, Note_on_c, 0, 67, 109
1, 4759339, Note_off_c, 0, 67, 109
1, 4760329, Note_on_c, 0, 68, 95
1, 4762026, Note_off_c, 0, 68, 95
1, 4763723, Note_on_c, 0, 70, 114
1, 4765985, Note_off_c, 0, 70, 114
1, 4766692, Note_on_c, 0, 72, 114
1, 4771076, Note_off_c, 0, 72, 114
1, 4771358, Note_on_c, 0, 74, 120
1, 4785642, Note_off_c, 0, 74, 120
1, 4853527, Note_on_c, 0, 75, 118
1, 4859608, Note_off_c, 0, 75, 118
1, 4860456, Note_on_c, 0, 74, 121
1, 4863991, Note_off_c, 0, 74, 121
1, 4865405, Note_on_c, 0, 73, 120
1, 4871769, Note_off_c, 0, 73, 120
1, 4872334, Note_on_c, 0, 72, 119
1, 4877849, Note_off_c, 0, 72, 119
1, 4878556, Note_on_c, 0, 71, 122
1, 4885203, Note_off_c, 0, 71, 122
1, 4890577, Note_on_c, 0, 70, 113
1, 4895951, Note_off_c, 0, 70, 113
1, 4896799, Note_on_c, 0, 69, 110
1, 4900476, Note_off_c, 0, 69, 110
1, 4901324, Note_on_c, 0, 66, 107
1, 4906415, Note_off_c, 0, 66, 107
1, 4906980, Note_on_c, 0, 69, 118
1, 4913768, Note_off_c, 0, 69, 118
1, 4914475, Note_on_c, 0, 66, 111
1, 4919566, Note_off_c, 0, 66, 111
1, 4920980, Note_on_c, 0, 67, 124
1, 4927910, Note_off_c, 0, 67, 124
1, 4928051, Note_on_c, 0, 65, 117
1, 4934981, Note_off_c, 0, 65, 117
1, 4935122, Note_on_c, 0, 62, 112
1, 4940354, Note_off_c, 0, 62, 112
1, 4941485, Note_on_c, 0, 63, 114
1, 4947000, Note_off_c, 0, 63, 114
1, 4949262, Note_on_c, 0, 64, 118
1, 4953504, Note_off_c, 0, 64, 118
1, 4954635, Note_on_c, 0, 62, 119
1, 4960857, Note_off_c, 0, 62, 119
1, 4961564, Note_on_c, 0, 61, 116
1, 4968918, Note_off_c, 0, 61, 116
1, 4970615, Note_on_c, 0, 64, 110
1, 4974999, Note_off_c, 0, 64, 110
1, 4984474, Note_on_c, 0, 56, 98
1, 4998616, Note_off_c, 0, 56, 98
1, 5084038, Note_on_c, 0, 65, 121
1, 5090543, Note_off_c, 0, 65, 121
1, 5092098, Note_on_c, 0, 67, 120
1, 5097613, Note_off_c, 0, 67, 120
1, 5097754, Note_on_c, 0, 68, 124
1, 5103976, Note_off_c, 0, 68, 124
1, 5138767, Note_on_c, 0, 65, 121
1, 5144424, Note_off_c, 0, 65, 121
1, 5145414, Note_on_c, 0, 67, 121
1, 5151212, Note_off_c, 0, 67, 121
1, 5152343, Note_on_c, 0, 68, 123
1, 5157858, Note_off_c, 0, 68, 123
1, 5159272, Note_on_c, 0, 67, 123
1, 5165636, Note_off_c, 0, 67, 123
1, 5166343, Note_on_c, 0, 65, 116
1, 5171717, Note_off_c, 0, 65, 116
1, 5172282, Note_on_c, 0, 63, 115
1, 5176949, Note_off_c, 0, 63, 115
1, 5178929, Note_on_c, 0, 62, 113
1, 5185151, Note_off_c, 0, 62, 113
1, 5185999, Note_on_c, 0, 60, 120
1, 5193353, Note_off_c, 0, 60, 120
1, 5194060, Note_on_c, 0, 58, 108
1, 5197454, Note_off_c, 0, 58, 108
1, 5199009, Note_on_c, 0, 56, 111
1, 5205373, Note_off_c, 0, 56, 111
1, 5206645, Note_on_c, 0, 55, 111
1, 5212302, Note_off_c, 0, 55, 111
1, 5213150, Note_on_c, 0, 53, 106
1, 5216544, Note_off_c, 0, 53, 106
1, 5217675, Note_on_c, 0, 51, 107
1, 5224039, Note_off_c, 0, 51, 107
1, 5225877, Note_on_c, 0, 48, 107
1, 5230261, Note_off_c, 0, 48, 107
1, 5235210, Note_on_c, 0, 51, 112
1, 5241150, Note_off_c, 0, 51, 112
1, 5242281, Note_on_c, 0, 41, 112
1, 5247513, Note_off_c, 0, 41, 112
1, 5248647, Note_on_c, 0, 46, 114
1, 5253575, Note_off_c, 0, 46, 114
1, 5255184, Note_on_c, 0, 53, 115
1, 5259508, Note_off_c, 0, 53, 115
1, 5261921, Note_on_c, 0, 41, 120
1, 5267351, Note_off_c, 0, 41, 120
1, 5268583, Note_on_c, 0, 46, 104
1, 5273511, Note_off_c, 0, 46, 104
1, 5276000, Note_on_c, 0, 51, 109
1, 5284045, Note_off_c, 0, 51, 109
1, 5305265, Note_on_c, 0, 51, 112
1, 5310494, Note_off_c, 0, 51, 112
1, 5311499, Note_on_c, 0, 41, 112
1, 5316427, Note_off_c, 0, 41, 112
1, 5317533, Note_on_c, 0, 46, 112
1, 5322461, Note_off_c, 0, 46, 112
1, 5323567, Note_on_c, 0, 51, 115
1, 5329903, Note_off_c, 0, 51, 115
1, 5330506, Note_on_c, 0, 41, 106
1, 5335534, Note_off_c, 0, 41, 106
1, 5336137, Note_on_c, 0, 46, 109
1, 5341668, Note_off_c, 0, 46, 109
1, 5341969, Note_on_c, 0, 51, 117
1, 5348405, Note_off_c, 0, 51, 117
1, 5349410, Note_on_c, 0, 41, 118
1, 5355746, Note_off_c, 0, 41, 118
1, 5356248, Note_on_c, 0, 46, 109
1, 5360974, Note_off_c, 0, 46, 109
1, 5361778, Note_on_c, 0, 51, 116
1, 5367510, Note_off_c, 0, 51, 116
1, 5368314, Note_on_c, 0, 41, 111
1, 5374348, Note_off_c, 0, 41, 111
1, 5375052, Note_on_c, 0, 46, 112
1, 5379577, Note_off_c, 0, 46, 112
1, 5380582, Note_on_c, 0, 51, 116
1, 5387923, Note_off_c, 0, 51, 116
1, 5388325, Note_on_c, 0, 42, 106
1, 5393554, Note_off_c, 0, 42, 106
1, 5394056, Note_on_c, 0, 47, 118
1, 5399587, Note_off_c, 0, 47, 118
1, 5400894, Note_on_c, 0, 52, 111
1, 5407330, Note_off_c, 0, 52, 111
1, 5408536, Note_on_c, 0, 42, 114
1, 5413262, Note_off_c, 0, 42, 114
1, 5415172, Note_on_c, 0, 47, 113
1, 5421206, Note_off_c, 0, 47, 113
1, 5421708, Note_on_c, 0, 52, 110
1, 5428848, Note_off_c, 0, 52, 110
1, 5430256, Note_on_c, 0, 42, 106
1, 5434882, Note_off_c, 0, 42, 106
1, 5435384, Note_on_c, 0, 47, 106
1, 5442122, Note_off_c, 0, 47, 106
1, 5442926, Note_on_c, 0, 52, 113
1, 5450468, Note_off_c, 0, 52, 113
1, 5451473, Note_on_c, 0, 42, 119
1, 5456501, Note_off_c, 0, 42, 119
1, 5457707, Note_on_c, 0, 47, 105
1, 5462836, Note_off_c, 0, 47, 105
1, 5463841, Note_on_c, 0, 52, 112
1, 5470881, Note_off_c, 0, 52, 112
1, 5471283, Note_on_c, 0, 42, 105
1, 5476512, Note_off_c, 0, 42, 105
1, 5477216, Note_on_c, 0, 47, 106
1, 5481138, Note_off_c, 0, 47, 106
1, 5482244, Note_on_c, 0, 52, 115
1, 5488982, Note_off_c, 0, 52, 115
1, 5489685, Note_on_c, 0, 42, 106
1, 5494512, Note_off_c, 0, 42, 106
1, 5495417, Note_on_c, 0, 47, 109
1, 5500546, Note_off_c, 0, 47, 109
1, 5501752, Note_on_c, 0, 51, 115
1, 5508289, Note_off_c, 0, 51, 115
1, 5509696, Note_on_c, 0, 44, 118
1, 5515629, Note_off_c, 0, 44, 118
1, 5515930, Note_on_c, 0, 46, 111
1, 5520656, Note_off_c, 0, 46, 111
1, 5520957, Note_on_c, 0, 51, 116
1, 5528198, Note_off_c, 0, 51, 116
1, 5529103, Note_on_c, 0, 44, 105
1, 5534735, Note_off_c, 0, 44, 105
1, 5534936, Note_on_c, 0, 47, 111
1, 5539662, Note_off_c, 0, 47, 111
1, 5540064, Note_on_c, 0, 51, 117
1, 5547305, Note_off_c, 0, 51, 117
1, 5548574, Note_on_c, 0, 42, 107
1, 5553665, Note_off_c, 0, 42, 107
1, 5553665, Note_on_c, 0, 47, 118
1, 5560453, Note_off_c, 0, 47, 118
1, 5562008, Note_on_c, 0, 51, 118
1, 5567948, Note_off_c, 0, 51, 118
1, 5569079, Note_on_c, 0, 42, 112
1, 5574877, Note_off_c, 0, 42, 112
1, 5575725, Note_on_c, 0, 47, 112
1, 5581665, Note_off_c, 0, 47, 112
1, 5582513, Note_on_c, 0, 51, 118
1, 5588735, Note_off_c, 0, 51, 118
1, 5589866, Note_on_c, 0, 42, 109
1, 5594815, Note_off_c, 0, 42, 109
1, 5595663, Note_on_c, 0, 47, 116
1, 5600754, Note_off_c, 0, 47, 116
1, 5602592, Note_on_c, 0, 51, 119
1, 5608814, Note_off_c, 0, 51, 119
1, 5610723, Note_on_c, 0, 39, 122
1, 5614980, Note_off_c, 0, 39, 122
1, 5614980, Note_on_c, 0, 46, 117
1, 5620354, Note_off_c, 0, 46, 117
1, 5622924, Note_on_c, 0, 51, 117
1, 5631573, Note_off_c, 0, 51, 117
1, 5661423, Note_on_c, 0, 51, 120
1, 5666655, Note_off_c, 0, 51, 120
1, 5667220, Note_on_c, 0, 43, 124
1, 5672311, Note_off_c, 0, 43, 124
1, 5672593, Note_on_c, 0, 48, 113
1, 5675421, Note_off_c, 0, 48, 113
1, 5675703, Note_on_c, 0, 53, 116
1, 5680935, Note_off_c, 0, 53, 116
1, 5682066, Note_on_c, 0, 59, 108
1, 5683904, Note_off_c, 0, 59, 108
1, 5684611, Note_on_c, 0, 63, 120
1, 5687722, Note_off_c, 0, 63, 120
1, 5687722, Note_on_c, 0, 67, 122
1, 5690409, Note_off_c, 0, 67, 122
1, 5690550, Note_on_c, 0, 69, 119
1, 5695358, Note_off_c, 0, 69, 119
1, 5695782, Note_on_c, 0, 66, 119
1, 5719400, Note_off_c, 0, 66, 119
1, 5750841, Note_on_c, 0, 62, 111
1, 5753952, Note_off_c, 0, 62, 111
1, 5755265, Note_on_c, 0, 63, 121
1, 5759690, Note_off_c, 0, 63, 121
1, 5759690, Note_on_c, 0, 65, 117
1, 5763210, Note_off_c, 0, 65, 117
1, 5764316, Note_on_c, 0, 69, 115
1, 5769646, Note_off_c, 0, 69, 115
1, 5770953, Note_on_c, 0, 67, 114
1, 5812287, Note_off_c, 0, 67, 114
1, 5842863, Note_on_c, 0, 62, 117
1, 5846681, Note_off_c, 0, 62, 117
1, 5847246, Note_on_c, 0, 63, 120
1, 5852337, Note_off_c, 0, 63, 120
1, 5852761, Note_on_c, 0, 66, 120
1, 5856720, Note_off_c, 0, 66, 120
1, 5857427, Note_on_c, 0, 68, 119
1, 5880762, Note_off_c, 0, 68, 119
1, 5881469, Note_on_c, 0, 67, 120
1, 5903673, Note_off_c, 0, 67, 120
1, 5926229, Note_on_c, 0, 62, 114
1, 5928491, Note_off_c, 0, 62, 114
1, 5929836, Note_on_c, 0, 66, 115
1, 5932806, Note_off_c, 0, 66, 115
1, 5933088, Note_on_c, 0, 69, 115
1, 5935916, Note_off_c, 0, 69, 115
1, 5936340, Note_on_c, 0, 68, 119
1, 5941572, Note_off_c, 0, 68, 119
1, 5941854, Note_on_c, 0, 65, 118
1, 5947511, Note_off_c, 0, 65, 118
1, 5947793, Note_on_c, 0, 67, 119
1, 5990080, Note_off_c, 0, 67, 119
1, 6015229, Note_on_c, 0, 62, 118
1, 6018547, Note_off_c, 0, 62, 118
1, 6019653, Note_on_c, 0, 63, 123
1, 6023575, Note_off_c, 0, 63, 123
1, 6024279, Note_on_c, 0, 69, 115
1, 6038660, Note_off_c, 0, 69, 115
1, 6039162, Note_on_c, 0, 68, 120
1, 6042179, Note_off_c, 0, 68, 120
1, 6042480, Note_on_c, 0, 69, 117
1, 6044793, Note_off_c, 0, 69, 117
1, 6045698, Note_on_c, 0, 68, 119
1, 6065309, Note_off_c, 0, 68, 119
1, 6083361, Note_on_c, 0, 62, 113
1, 6091174, Note_off_c, 0, 62, 113
1, 6091959, Note_on_c, 0, 63, 116
1, 6096007, Note_off_c, 0, 63, 116
1, 6096007, Note_on_c, 0, 66, 117
1, 6098599, Note_off_c, 0, 66, 117
1, 6099475, Note_on_c, 0, 68, 122
1, 6104418, Note_off_c, 0, 68, 122
1, 6105785, Note_on_c, 0, 68, 124
1, 6113931, Note_off_c, 0, 68, 124
1, 6114081, Note_on_c, 0, 67, 123
1, 6134597, Note_off_c, 0, 67, 123
1, 6134773, Note_on_c, 0, 70, 116
1, 6139701, Note_off_c, 0, 70, 116
1, 6142944, Note_on_c, 0, 62, 111
1, 6151165, Note_off_c, 0, 62, 111
1, 6151793, Note_on_c, 0, 66, 119
1, 6155187, Note_off_c, 0, 66, 119
1, 6155916, Note_on_c, 0, 68, 120
1, 6160944, Note_off_c, 0, 68, 120
1, 6161852, Note_on_c, 0, 66, 115
1, 6197391, Note_off_c, 0, 66, 115
1, 6222895, Note_on_c, 0, 62, 122
1, 6225811, Note_off_c, 0, 62, 122
1, 6226213, Note_on_c, 0, 63, 124
1, 6230034, Note_off_c, 0, 63, 124
1, 6230134, Note_on_c, 0, 67, 121
1, 6232547, Note_off_c, 0, 67, 121
1, 6233653, Note_on_c, 0, 70, 116
1, 6239184, Note_off_c, 0, 70, 116
1, 6239787, Note_on_c, 0, 69, 118
1, 6246223, Note_off_c, 0, 69, 118
1, 6246927, Note_on_c, 0, 68, 123
1, 6263621, Note_off_c, 0, 68, 123
1, 6269655, Note_on_c, 0, 60, 109
1, 6272068, Note_off_c, 0, 60, 109
1, 6272872, Note_on_c, 0, 63, 118
1, 6277397, Note_off_c, 0, 63, 118
1, 6278996, Note_on_c, 0, 68, 120
1, 6285431, Note_off_c, 0, 68, 120
1, 6286347, Note_on_c, 0, 68, 124
1, 6291677, Note_off_c, 0, 68, 124
1, 6292179, Note_on_c, 0, 66, 119
1, 6312092, Note_off_c, 0, 66, 119
1, 6370216, Note_on_c, 0, 71, 126
1, 6384641, Note_off_c, 0, 71, 126
1, 6398783, Note_on_c, 0, 75, 121
1, 6418017, Note_off_c, 0, 75, 121
1, 6424026, Note_on_c, 0, 79, 119
1, 6502874, Note_off_c, 0, 79, 119
1, 6564536, Note_on_c, 0, 71, 125
1, 6576133, Note_off_c, 0, 71, 125
1, 6584034, Note_on_c, 0, 75, 118
1, 6591388, Note_off_c, 0, 75, 118
1, 6592783, Note_on_c, 0, 79, 119
1, 6611388, Note_off_c, 0, 79, 119
1, 6619936, Note_on_c, 0, 77, 120
1, 6625366, Note_off_c, 0, 77, 120
1, 6625969, Note_on_c, 0, 79, 121
1, 6638238, Note_off_c, 0, 79, 121
1, 6646635, Note_on_c, 0, 75, 120
1, 6665793, Note_off_c, 0, 75, 120
1, 6674492, Note_on_c, 0, 71, 114
1, 6695200, Note_off_c, 0, 71, 114
1, 6695561, Note_on_c, 0, 73, 96
1, 6701092, Note_off_c, 0, 73, 96
1, 6731967, Note_on_c, 0, 73, 118
1, 6738001, Note_off_c, 0, 73, 118
1, 6740615, Note_on_c, 0, 69, 117
1, 6745643, Note_off_c, 0, 69, 117
1, 6746849, Note_on_c, 0, 67, 124
1, 6752481, Note_off_c, 0, 67, 124
1, 6753687, Note_on_c, 0, 63, 117
1, 6762939, Note_off_c, 0, 63, 117
1, 6764347, Note_on_c, 0, 60, 111
1, 6769375, Note_off_c, 0, 60, 111
1, 6771185, Note_on_c, 0, 52, 108
1, 6786069, Note_off_c, 0, 52, 108
1, 6887243, Note_on_c, 0, 65, 119
1, 6894484, Note_off_c, 0, 65, 119
1, 6895489, Note_on_c, 0, 66, 122
1, 6900316, Note_off_c, 0, 66, 122
1, 6901120, Note_on_c, 0, 70, 114
1, 6907154, Note_off_c, 0, 70, 114
1, 6907154, Note_on_c, 0, 66, 120
1, 6913389, Note_off_c, 0, 66, 120
1, 6914797, Note_on_c, 0, 65, 120
1, 6921635, Note_off_c, 0, 65, 120
1, 6923043, Note_on_c, 0, 63, 121
1, 6928272, Note_off_c, 0, 63, 121
1, 6929881, Note_on_c, 0, 65, 108
1, 6968701, Note_off_c, 0, 65, 108
1, 6998269, Note_on_c, 0, 65, 121
1, 7001889, Note_off_c, 0, 65, 121
1, 7002693, Note_on_c, 0, 66, 121
1, 7006917, Note_off_c, 0, 66, 121
1, 7007721, Note_on_c, 0, 70, 114
1, 7014358, Note_off_c, 0, 70, 114
1, 7015363, Note_on_c, 0, 66, 112
1, 7019385, Note_off_c, 0, 66, 112
1, 7020591, Note_on_c, 0, 65, 115
1, 7028033, Note_off_c, 0, 65, 115
1, 7029239, Note_on_c, 0, 63, 115
1, 7035675, Note_off_c, 0, 63, 115
1, 7038491, Note_on_c, 0, 69, 110
1, 7082138, Note_off_c, 0, 69, 110
1, 7109091, Note_on_c, 0, 65, 124
1, 7112912, Note_off_c, 0, 65, 124
1, 7113515, Note_on_c, 0, 66, 121
1, 7119348, Note_off_c, 0, 66, 121
1, 7119951, Note_on_c, 0, 69, 116
1, 7126186, Note_off_c, 0, 69, 116
1, 7126789, Note_on_c, 0, 66, 116
1, 7130811, Note_off_c, 0, 66, 116
1, 7131816, Note_on_c, 0, 65, 116
1, 7136643, Note_off_c, 0, 65, 116
1, 7137045, Note_on_c, 0, 62, 118
1, 7142475, Note_off_c, 0, 62, 118
1, 7144888, Note_on_c, 0, 65, 114
1, 7173249, Note_off_c, 0, 65, 114
1, 7176065, Note_on_c, 0, 66, 118
1, 7181294, Note_off_c, 0, 66, 118
1, 7181495, Note_on_c, 0, 69, 116
1, 7184512, Note_off_c, 0, 69, 116
1, 7185115, Note_on_c, 0, 70, 120
1, 7189942, Note_off_c, 0, 70, 120
1, 7190545, Note_on_c, 0, 66, 118
1, 7195372, Note_off_c, 0, 66, 118
1, 7196402, Note_on_c, 0, 65, 114
1, 7222849, Note_off_c, 0, 65, 114
1, 7269944, Note_on_c, 0, 62, 126
1, 7273621, Note_off_c, 0, 62, 126
1, 7275035, Note_on_c, 0, 63, 122
1, 7280409, Note_off_c, 0, 63, 122
1, 7281823, Note_on_c, 0, 65, 118
1, 7289035, Note_off_c, 0, 65, 118
1, 7289600, Note_on_c, 0, 63, 118
1, 7295115, Note_off_c, 0, 63, 118
1, 7296105, Note_on_c, 0, 62, 118
1, 7300489, Note_off_c, 0, 62, 118
1, 7302186, Note_on_c, 0, 60, 123
1, 7309540, Note_off_c, 0, 60, 123
1, 7310954, Note_on_c, 0, 58, 108
1, 7316186, Note_off_c, 0, 58, 108
1, 7317883, Note_on_c, 0, 56, 111
1, 7323823, Note_off_c, 0, 56, 111
1, 7324247, Note_on_c, 0, 55, 112
1, 7330328, Note_off_c, 0, 55, 112
1, 7332449, Note_on_c, 0, 53, 110
1, 7336409, Note_off_c, 0, 53, 110
1, 7338247, Note_on_c, 0, 51, 108
1, 7342772, Note_off_c, 0, 51, 108
1, 7344186, Note_on_c, 0, 50, 106
1, 7350408, Note_off_c, 0, 50, 106
1, 7351398, Note_on_c, 0, 53, 113
1, 7357338, Note_off_c, 0, 53, 113
1, 7358469, Note_on_c, 0, 50, 111
1, 7362853, Note_off_c, 0, 50, 111
1, 7364267, Note_on_c, 0, 51, 118
1, 7369641, Note_off_c, 0, 51, 118
1, 7370913, Note_on_c, 0, 53, 111
1, 7376711, Note_off_c, 0, 53, 111
1, 7377276, Note_on_c, 0, 55, 109
1, 7382791, Note_off_c, 0, 55, 109
1, 7383498, Note_on_c, 0, 56, 104
1, 7390003, Note_off_c, 0, 56, 104
1, 7391134, Note_on_c, 0, 58, 103
1, 7394811, Note_off_c, 0, 58, 103
1, 7398488, Note_on_c, 0, 53, 105
1, 7399902, Note_off_c, 0, 53, 105
1, 7400609, Note_on_c, 0, 55, 108
1, 7403579, Note_off_c, 0, 55, 108
1, 7404569, Note_on_c, 0, 56, 105
1, 7410509, Note_off_c, 0, 56, 105
1, 7411357, Note_on_c, 0, 58, 105
1, 7413761, Note_off_c, 0, 58, 105
1, 7413902, Note_on_c, 0, 62, 110
1, 7420549, Note_off_c, 0, 62, 110
1, 7421114, Note_on_c, 0, 63, 110
1, 7425922, Note_off_c, 0, 63, 110
1, 7427477, Note_on_c, 0, 62, 111
1, 7430588, Note_off_c, 0, 62, 111
1, 7431719, Note_on_c, 0, 65, 119
1, 7437376, Note_off_c, 0, 65, 119
1, 7438648, Note_on_c, 0, 62, 116
1, 7442466, Note_off_c, 0, 62, 116
1, 7443880, Note_on_c, 0, 63, 120
1, 7449820, Note_off_c, 0, 63, 120
1, 7450527, Note_on_c, 0, 65, 112
1, 7459154, Note_off_c, 0, 65, 112
1, 7459436, Note_on_c, 0, 67, 118
1, 7464103, Note_off_c, 0, 67, 118
1, 7464668, Note_on_c, 0, 70, 109
1, 7468486, Note_off_c, 0, 70, 109
1, 7469193, Note_on_c, 0, 67, 115
1, 7472728, Note_off_c, 0, 67, 115
1, 7473293, Note_on_c, 0, 76, 113
1, 7524631, Note_off_c, 0, 76, 113
1, 7526328, Note_on_c, 0, 76, 114
1, 7533965, Note_off_c, 0, 76, 114
1, 7534672, Note_on_c, 0, 75, 117
1, 7539197, Note_off_c, 0, 75, 117
1, 7540186, Note_on_c, 0, 74, 113
1, 7546974, Note_off_c, 0, 74, 113
1, 7547539, Note_on_c, 0, 72, 118
1, 7554610, Note_off_c, 0, 72, 118
1, 7555458, Note_on_c, 0, 71, 122
1, 7561680, Note_off_c, 0, 71, 122
1, 7562457, Note_on_c, 0, 69, 115
1, 7574973, Note_off_c, 0, 69, 115
1, 7577235, Note_on_c, 0, 66, 111
1, 7580487, Note_off_c, 0, 66, 111
1, 7581335, Note_on_c, 0, 69, 118
1, 7589679, Note_off_c, 0, 69, 118
1, 7589961, Note_on_c, 0, 66, 113
1, 7594062, Note_off_c, 0, 66, 113
1, 7595193, Note_on_c, 0, 67, 120
1, 7601981, Note_off_c, 0, 67, 120
1, 7602970, Note_on_c, 0, 65, 116
1, 7610041, Note_off_c, 0, 65, 116
1, 7611031, Note_on_c, 0, 63, 112
1, 7615981, Note_off_c, 0, 63, 112
1, 7617253, Note_on_c, 0, 62, 119
1, 7622344, Note_off_c, 0, 62, 119
1, 7623899, Note_on_c, 0, 60, 119
1, 7629980, Note_off_c, 0, 60, 119
1, 7630404, Note_on_c, 0, 58, 113
1, 7634222, Note_off_c, 0, 58, 113
1, 7638747, Note_on_c, 0, 56, 106
1, 7644687, Note_off_c, 0, 56, 106
1, 7645394, Note_on_c, 0, 55, 106
1, 7652041, Note_off_c, 0, 55, 106
1, 7652323, Note_on_c, 0, 53, 107
1, 7656141, Note_off_c, 0, 53, 107
1, 7656423, Note_on_c, 0, 51, 106
1, 7660948, Note_off_c, 0, 51, 106
1, 7662220, Note_on_c, 0, 48, 104
1, 7666038, Note_off_c, 0, 48, 104
1, 7667735, Note_on_c, 0, 51, 108
1, 7673533, Note_off_c, 0, 51, 108
1, 7675371, Note_on_c, 0, 48, 103
1, 7679331, Note_off_c, 0, 48, 103
1, 7680038, Note_on_c, 0, 50, 101
1, 7687392, Note_off_c, 0, 50, 101
1, 7687957, Note_on_c, 0, 46, 103
1, 7700119, Note_off_c, 0, 46, 103
1, 7764327, Note_on_c, 0, 55, 109
1, 7771115, Note_off_c, 0, 55, 109
1, 7774085, Note_on_c, 0, 58, 113
1, 7777479, Note_off_c, 0, 58, 113
1, 7777479, Note_on_c, 0, 62, 116
1, 7780590, Note_off_c, 0, 62, 116
1, 7780731, Note_on_c, 0, 67, 121
1, 7817078, Note_off_c, 0, 67, 121
1, 7817926, Note_on_c, 0, 68, 117
1, 7833483, Note_off_c, 0, 68, 117
1, 7834190, Note_on_c, 0, 71, 114
1, 7887932, Note_off_c, 0, 71, 114
1, 7911974, Note_on_c, 0, 71, 117
1, 7916358, Note_off_c, 0, 71, 117
1, 7917913, Note_on_c, 0, 72, 114
1, 7923145, Note_off_c, 0, 72, 114
1, 7924559, Note_on_c, 0, 73, 106
1, 7927811, Note_off_c, 0, 73, 106
1, 7929366, Note_on_c, 0, 74, 121
1, 7936296, Note_off_c, 0, 74, 121
1, 7937144, Note_on_c, 0, 75, 117
1, 7941669, Note_off_c, 0, 75, 117
1, 7943762, Note_on_c, 0, 76, 121
1, 7951003, Note_off_c, 0, 76, 121
1, 7951606, Note_on_c, 0, 77, 117
1, 7955729, Note_off_c, 0, 77, 117
1, 7956231, Note_on_c, 0, 76, 119
1, 7961561, Note_off_c, 0, 76, 119
1, 7962566, Note_on_c, 0, 75, 121
1, 7967494, Note_off_c, 0, 75, 121
1, 7968197, Note_on_c, 0, 74, 120
1, 7975639, Note_off_c, 0, 74, 120
1, 7975840, Note_on_c, 0, 72, 121
1, 7982075, Note_off_c, 0, 72, 121
1, 7982779, Note_on_c, 0, 71, 121
1, 7990422, Note_off_c, 0, 71, 121
1, 7990723, Note_on_c, 0, 69, 120
1, 7997461, Note_off_c, 0, 69, 120
1, 7997739, Note_on_c, 0, 70, 109
1, 8004515, Note_off_c, 0, 70, 109
1, 8005808, Note_on_c, 0, 66, 109
1, 8009830, Note_off_c, 0, 66, 109
1, 8011439, Note_on_c, 0, 69, 119
1, 8017775, Note_off_c, 0, 69, 119
1, 8018378, Note_on_c, 0, 66, 117
1, 8021696, Note_off_c, 0, 66, 117
1, 8022601, Note_on_c, 0, 67, 121
1, 8031652, Note_off_c, 0, 67, 121
1, 8031953, Note_on_c, 0, 65, 118
1, 8037685, Note_off_c, 0, 65, 118
1, 8038288, Note_on_c, 0, 62, 112
1, 8042512, Note_off_c, 0, 62, 112
1, 8044193, Note_on_c, 0, 63, 116
1, 8051233, Note_off_c, 0, 63, 116
1, 8051971, Note_on_c, 0, 64, 120
1, 8057703, Note_off_c, 0, 64, 120
1, 8059104, Note_on_c, 0, 65, 120
1, 8063830, Note_off_c, 0, 65, 120
1, 8064433, Note_on_c, 0, 64, 118
1, 8070869, Note_off_c, 0, 64, 118
1, 8071271, Note_on_c, 0, 63, 122
1, 8076903, Note_off_c, 0, 63, 122
1, 8077990, Note_on_c, 0, 62, 114
1, 8082374, Note_off_c, 0, 62, 114
1, 8086899, Note_on_c, 0, 61, 118
1, 8093404, Note_off_c, 0, 61, 118
1, 8094959, Note_on_c, 0, 60, 118
1, 8101181, Note_off_c, 0, 60, 118
1, 8102312, Note_on_c, 0, 58, 111
1, 8106979, Note_off_c, 0, 58, 111
1, 8107827, Note_on_c, 0, 56, 106
1, 8115888, Note_off_c, 0, 56, 106
1, 8116170, Note_on_c, 0, 55, 107
1, 8121544, Note_off_c, 0, 55, 107
1, 8121826, Note_on_c, 0, 53, 102
1, 8123947, Note_off_c, 0, 53, 102
1, 8124654, Note_on_c, 0, 51, 104
1, 8126351, Note_off_c, 0, 51, 104
1, 8127199, Note_on_c, 0, 48, 106
1, 8132290, Note_off_c, 0, 48, 106
1, 8133987, Note_on_c, 0, 51, 110
1, 8136108, Note_off_c, 0, 51, 110
1, 8136390, Note_on_c, 0, 54, 105
1, 8160998, Note_off_c, 0, 54, 105
1, 8188010, Note_on_c, 0, 54, 97
1, 8259431, Note_off_c, 0, 54, 97
1, 8260138, Note_on_c, 0, 55, 113
1, 8266502, Note_off_c, 0, 55, 113
1, 8289130, Note_on_c, 0, 73, 120
1, 8294080, Note_off_c, 0, 73, 120
1, 8294645, Note_on_c, 0, 74, 110
1, 8297897, Note_off_c, 0, 74, 110
1, 8300159, Note_on_c, 0, 54, 105
1, 8318261, Note_off_c, 0, 54, 105
1, 8318261, Note_on_c, 0, 57, 115
1, 8322362, Note_off_c, 0, 57, 115
1, 8322927, Note_on_c, 0, 56, 109
1, 8325755, Note_off_c, 0, 56, 109
1, 8337635, Note_on_c, 0, 54, 103
1, 8366344, Note_off_c, 0, 54, 103
1, 8366485, Note_on_c, 0, 57, 115
1, 8369596, Note_off_c, 0, 57, 115
1, 8370020, Note_on_c, 0, 56, 101
1, 8373037, Note_off_c, 0, 56, 101
1, 8380627, Note_on_c, 0, 54, 97
1, 8462372, Note_off_c, 0, 54, 97
1, 8462937, Note_on_c, 0, 53, 9
1, 8539167, Note_off_c, 0, 53, 9
1, 8539167, End_track
0, 0, End_of_file
