0, 0, Header, 1, 1, 192
1, 0, Start_track
1, 0, Title_t, "Melody"
1, 0, Tempo, 298507
1, 0, Key_signature, -4, "major"
1, 0, Time_signature, 4, 2, 24, 8
1, 1999, Note_on_c, 0, 77, 116
1, 2122, Note_off_c, 0, 77, 116
1, 2189, Note_on_c, 0, 80, 112
1, 2301, Note_off_c, 0, 80, 112
1, 2405, Note_on_c, 0, 77, 125
1, 2498, Note_off_c, 0, 77, 125
1, 2524, Note_on_c, 0, 80, 109
1, 2609, Note_off_c, 0, 80, 109
1, 2609, Note_on_c, 0, 79, 113
1, 2735, Note_off_c, 0, 79, 113
1, 2746, Note_on_c, 0, 77, 106
1, 2854, Note_off_c, 0, 77, 106
1, 2913, Note_on_c, 0, 75, 118
1, 2980, Note_off_c, 0, 75, 118
1, 2980, Note_on_c, 0, 76, 90
1, 3009, Note_off_c, 0, 76, 90
1, 3027, Note_on_c, 0, 77, 118
1, 3056, Note_off_c, 0, 77, 118
1, 3070, Note_on_c, 0, 76, 112
1, 3118, Note_off_c, 0, 76, 112
1, 3125, Note_on_c, 0, 74, 111
1, 3192, Note_off_c, 0, 74, 111
1, 3333, Note_on_c, 0, 69, 100
1, 3392, Note_off_c, 0, 69, 100
1, 3392, Note_on_c, 0, 73, 80
1, 3421, Note_on_c, 0, 74, 86
1, 3421, Note_off_c, 0, 73, 80
1, 3462, Note_off_c, 0, 74, 86
1, 3469, Note_on_c, 0, 73, 107
1, 3551, Note_off_c, 0, 73, 107
1, 3562, Note_on_c, 0, 71, 95
1, 3647, Note_off_c, 0, 71, 95
1, 3658, Note_on_c, 0, 69, 103
1, 3732, Note_off_c, 0, 69, 103
1, 3735, Note_on_c, 0, 67, 97
1, 3809, Note_off_c, 0, 67, 97
1, 3823, Note_on_c, 0, 68, 90
1, 3905, Note_off_c, 0, 68, 90
1, 3905, Note_on_c, 0, 70, 106
1, 3983, Note_on_c, 0, 68, 93
1, 3983, Note_off_c, 0, 70, 106
1, 4091, Note_off_c, 0, 68, 93
1, 4091, Note_on_c, 0, 70, 111
1, 4180, Note_off_c, 0, 70, 111
1, 4183, Note_on_c, 0, 72, 113
1, 4272, Note_off_c, 0, 72, 113
1, 4294, Note_on_c, 0, 75, 108
1, 4383, Note_off_c, 0, 75, 108
1, 4386, Note_on_c, 0, 77, 121
1, 4490, Note_off_c, 0, 77, 121
1, 4512, Note_on_c, 0, 75, 83
1, 4575, Note_off_c, 0, 75, 83
1, 4604, Note_on_c, 0, 78, 116
1, 4738, Note_off_c, 0, 78, 116
1, 4805, Note_on_c, 0, 72, 106
1, 4924, Note_off_c, 0, 72, 106
1, 4946, Note_on_c, 0, 77, 117
1, 5177, Note_off_c, 0, 77, 117
1, 5262, Note_on_c, 0, 75, 112
1, 5359, Note_off_c, 0, 75, 112
1, 5366, Note_on_c, 0, 74, 110
1, 5451, Note_on_c, 0, 73, 96
1, 5451, Note_off_c, 0, 74, 110
1, 5555, Note_off_c, 0, 73, 96
1, 5555, Note_on_c, 0, 72, 104
1, 5640, Note_off_c, 0, 72, 104
1, 5654, Note_on_c, 0, 71, 105
1, 5747, Note_off_c, 0, 71, 105
1, 5747, Note_on_c, 0, 70, 103
1, 5847, Note_off_c, 0, 70, 103
1, 5847, Note_on_c, 0, 69, 103
1, 5921, Note_off_c, 0, 69, 103
1, 5928, Note_on_c, 0, 68, 95
1, 6017, Note_off_c, 0, 68, 95
1, 6020, Note_on_c, 0, 70, 100
1, 6102, Note_off_c, 0, 70, 100
1, 6113, Note_on_c, 0, 69, 93
1, 6277, Note_off_c, 0, 69, 93
1, 6725, Note_on_c, 0, 75, 116
1, 6795, Note_off_c, 0, 75, 116
1, 6802, Note_on_c, 0, 74, 98
1, 6843, Note_off_c, 0, 74, 98
1, 6854, Note_on_c, 0, 73, 102
1, 6895, Note_off_c, 0, 73, 102
1, 6902, Note_on_c, 0, 74, 97
1, 6991, Note_off_c, 0, 74, 97
1, 6998, Note_on_c, 0, 71, 106
1, 7087, Note_off_c, 0, 71, 106
1, 7087, Note_on_c, 0, 70, 105
1, 7180, Note_off_c, 0, 70, 105
1, 7194, Note_on_c, 0, 68, 92
1, 7283, Note_off_c, 0, 68, 92
1, 7283, Note_on_c, 0, 69, 107
1, 7365, Note_off_c, 0, 69, 107
1, 7368, Note_on_c, 0, 67, 107
1, 7457, Note_off_c, 0, 67, 107
1, 7468, Note_on_c, 0, 66, 100
1, 7546, Note_off_c, 0, 66, 100
1, 7572, Note_on_c, 0, 64, 95
1, 7646, Note_off_c, 0, 64, 95
1, 7660, Note_on_c, 0, 65, 96
1, 7757, Note_on_c, 0, 67, 99
1, 7757, Note_off_c, 0, 65, 96
1, 7857, Note_off_c, 0, 67, 99
1, 7860, Note_on_c, 0, 68, 99
1, 7957, Note_off_c, 0, 68, 99
1, 7975, Note_on_c, 0, 70, 106
1, 8060, Note_off_c, 0, 70, 106
1, 8071, Note_on_c, 0, 71, 106
1, 8156, Note_off_c, 0, 71, 106
1, 8163, Note_on_c, 0, 69, 108
1, 8263, Note_off_c, 0, 69, 108
1, 8352, Note_on_c, 0, 66, 86
1, 8434, Note_on_c, 0, 68, 97
1, 8434, Note_off_c, 0, 66, 86
1, 8478, Note_off_c, 0, 68, 97
1, 8489, Note_on_c, 0, 70, 98
1, 8541, Note_off_c, 0, 70, 98
1, 8548, Note_on_c, 0, 68, 102
1, 8607, Note_off_c, 0, 68, 102
1, 8621, Note_on_c, 0, 67, 102
1, 8718, Note_off_c, 0, 67, 102
1, 8718, Note_on_c, 0, 65, 110
1, 8818, Note_off_c, 0, 65, 110
1, 8825, Note_on_c, 0, 62, 90
1, 8899, Note_off_c, 0, 62, 90
1, 8902, Note_on_c, 0, 63, 81
1, 8972, Note_off_c, 0, 63, 81
1, 9005, Note_on_c, 0, 65, 105
1, 9079, Note_off_c, 0, 65, 105
1, 9101, Note_on_c, 0, 68, 98
1, 9190, Note_off_c, 0, 68, 98
1, 9204, Note_on_c, 0, 72, 108
1, 9260, Note_off_c, 0, 72, 108
1, 9260, Note_on_c, 0, 73, 103
1, 9304, Note_off_c, 0, 73, 103
1, 9304, Note_on_c, 0, 72, 105
1, 9356, Note_off_c, 0, 72, 105
1, 9370, Note_on_c, 0, 70, 93
1, 9496, Note_off_c, 0, 70, 93
1, 9581, Note_on_c, 0, 70, 112
1, 9614, Note_off_c, 0, 70, 112
1, 9625, Note_on_c, 0, 71, 102
1, 9662, Note_off_c, 0, 71, 102
1, 9673, Note_on_c, 0, 70, 91
1, 9732, Note_on_c, 0, 69, 105
1, 9732, Note_off_c, 0, 70, 91
1, 9806, Note_off_c, 0, 69, 105
1, 9977, Note_on_c, 0, 78, 107
1, 10044, Note_off_c, 0, 78, 107
1, 10081, Note_on_c, 0, 77, 119
1, 10297, Note_off_c, 0, 77, 119
1, 10338, Note_on_c, 0, 75, 95
1, 10491, Note_off_c, 0, 75, 95
1, 10509, Note_on_c, 0, 72, 74
1, 10594, Note_off_c, 0, 72, 74
1, 10612, Note_on_c, 0, 73, 93
1, 10716, Note_off_c, 0, 73, 93
1, 10764, Note_on_c, 0, 73, 108
1, 10808, Note_off_c, 0, 73, 108
1, 10819, Note_on_c, 0, 72, 106
1, 10856, Note_off_c, 0, 72, 106
1, 10856, Note_on_c, 0, 70, 109
1, 10919, Note_off_c, 0, 70, 109
1, 10941, Note_on_c, 0, 69, 112
1, 11041, Note_off_c, 0, 69, 112
1, 11048, Note_on_c, 0, 66, 104
1, 11163, Note_off_c, 0, 66, 104
1, 11245, Note_on_c, 0, 65, 110
1, 11364, Note_off_c, 0, 65, 110
1, 11416, Note_on_c, 0, 63, 105
1, 11539, Note_off_c, 0, 63, 105
1, 11553, Note_on_c, 0, 64, 84
1, 11594, Note_off_c, 0, 64, 84
1, 11601, Note_on_c, 0, 67, 72
1, 11634, Note_off_c, 0, 67, 72
1, 11652, Note_on_c, 0, 68, 84
1, 11708, Note_off_c, 0, 68, 84
1, 11719, Note_on_c, 0, 72, 111
1, 11827, Note_off_c, 0, 72, 111
1, 11834, Note_on_c, 0, 70, 101
1, 11998, Note_off_c, 0, 70, 101
1, 12961, Note_on_c, 0, 75, 117
1, 13106, Note_off_c, 0, 75, 117
1, 13162, Note_on_c, 0, 77, 121
1, 13311, Note_off_c, 0, 77, 121
1, 13381, Note_on_c, 0, 80, 114
1, 13519, Note_off_c, 0, 80, 114
1, 13552, Note_on_c, 0, 84, 122
1, 13708, Note_off_c, 0, 84, 122
1, 13711, Note_on_c, 0, 82, 96
1, 13826, Note_off_c, 0, 82, 96
1, 13837, Note_on_c, 0, 80, 111
1, 13941, Note_off_c, 0, 80, 111
1, 13952, Note_on_c, 0, 79, 112
1, 14041, Note_off_c, 0, 79, 112
1, 14048, Note_on_c, 0, 77, 125
1, 14111, Note_off_c, 0, 77, 125
1, 14125, Note_on_c, 0, 76, 99
1, 14173, Note_off_c, 0, 76, 99
1, 14176, Note_on_c, 0, 77, 112
1, 14194, Note_off_c, 0, 77, 112
1, 14197, Note_on_c, 0, 76, 106
1, 14253, Note_off_c, 0, 76, 106
1, 14260, Note_on_c, 0, 74, 118
1, 14323, Note_off_c, 0, 74, 118
1, 14337, Note_on_c, 0, 75, 111
1, 14407, Note_off_c, 0, 75, 111
1, 14425, Note_on_c, 0, 73, 104
1, 14522, Note_off_c, 0, 73, 104
1, 14529, Note_on_c, 0, 72, 109
1, 14611, Note_off_c, 0, 72, 109
1, 14611, Note_on_c, 0, 70, 96
1, 14689, Note_off_c, 0, 70, 96
1, 14689, Note_on_c, 0, 68, 96
1, 14718, Note_off_c, 0, 68, 96
1, 14721, Note_on_c, 0, 69, 102
1, 14769, Note_off_c, 0, 69, 102
1, 14769, Note_on_c, 0, 68, 109
1, 14825, Note_off_c, 0, 68, 109
1, 14836, Note_on_c, 0, 65, 100
1, 14895, Note_off_c, 0, 65, 100
1, 14917, Note_on_c, 0, 66, 106
1, 14995, Note_off_c, 0, 66, 106
1, 15006, Note_on_c, 0, 68, 90
1, 15069, Note_off_c, 0, 68, 90
1, 15098, Note_on_c, 0, 70, 91
1, 15187, Note_off_c, 0, 70, 91
1, 15187, Note_on_c, 0, 73, 86
1, 15269, Note_off_c, 0, 73, 86
1, 15302, Note_on_c, 0, 77, 121
1, 15406, Note_off_c, 0, 77, 121
1, 15409, Note_on_c, 0, 76, 100
1, 15498, Note_off_c, 0, 76, 100
1, 15501, Note_on_c, 0, 75, 106
1, 15583, Note_off_c, 0, 75, 106
1, 15583, Note_on_c, 0, 73, 108
1, 15665, Note_off_c, 0, 73, 108
1, 15672, Note_on_c, 0, 72, 92
1, 15735, Note_off_c, 0, 72, 92
1, 15746, Note_on_c, 0, 70, 109
1, 15839, Note_off_c, 0, 70, 109
1, 15850, Note_on_c, 0, 69, 101
1, 15887, Note_off_c, 0, 69, 101
1, 15894, Note_on_c, 0, 70, 101
1, 15935, Note_off_c, 0, 70, 101
1, 15940, Note_on_c, 0, 69, 103
1, 15984, Note_off_c, 0, 69, 103
1, 15985, Note_on_c, 0, 67, 101
1, 16055, Note_off_c, 0, 67, 101
1, 16055, Note_on_c, 0, 68, 104
1, 16185, Note_off_c, 0, 68, 104
1, 16300, Note_on_c, 0, 66, 91
1, 16378, Note_off_c, 0, 66, 91
1, 16411, Note_on_c, 0, 65, 104
1, 16496, Note_off_c, 0, 65, 104
1, 16496, Note_on_c, 0, 61, 93
1, 16585, Note_off_c, 0, 61, 93
1, 16585, Note_on_c, 0, 58, 90
1, 16663, Note_off_c, 0, 58, 90
1, 16674, Note_on_c, 0, 57, 109
1, 16752, Note_off_c, 0, 57, 109
1, 16774, Note_on_c, 0, 63, 99
1, 16867, Note_off_c, 0, 63, 99
1, 17094, Note_on_c, 0, 63, 106
1, 17187, Note_off_c, 0, 63, 106
1, 17187, Note_on_c, 0, 64, 106
1, 17269, Note_off_c, 0, 64, 106
1, 17269, Note_on_c, 0, 65, 104
1, 17336, Note_off_c, 0, 65, 104
1, 17358, Note_on_c, 0, 68, 111
1, 17447, Note_off_c, 0, 68, 111
1, 17450, Note_on_c, 0, 65, 89
1, 17520, Note_off_c, 0, 65, 89
1, 17527, Note_on_c, 0, 66, 109
1, 17597, Note_off_c, 0, 66, 109
1, 17604, Note_on_c, 0, 68, 103
1, 17689, Note_off_c, 0, 68, 103
1, 17700, Note_on_c, 0, 70, 89
1, 17800, Note_off_c, 0, 70, 89
1, 17814, Note_on_c, 0, 73, 94
1, 17922, Note_off_c, 0, 73, 94
1, 17929, Note_on_c, 0, 75, 116
1, 18022, Note_off_c, 0, 75, 116
1, 18096, Note_on_c, 0, 78, 109
1, 18208, Note_off_c, 0, 78, 109
1, 18208, Note_on_c, 0, 76, 67
1, 18260, Note_off_c, 0, 76, 67
1, 18274, Note_on_c, 0, 77, 116
1, 18352, Note_off_c, 0, 77, 116
1, 18411, Note_on_c, 0, 72, 98
1, 18500, Note_off_c, 0, 72, 98
1, 18500, Note_on_c, 0, 69, 105
1, 18600, Note_off_c, 0, 69, 105
1, 18633, Note_on_c, 0, 73, 116
1, 18674, Note_off_c, 0, 73, 116
1, 18703, Note_on_c, 0, 74, 104
1, 18856, Note_off_c, 0, 74, 104
1, 18863, Note_on_c, 0, 72, 108
1, 18967, Note_off_c, 0, 72, 108
1, 18978, Note_on_c, 0, 74, 107
1, 19071, Note_off_c, 0, 74, 107
1, 19071, Note_on_c, 0, 71, 104
1, 19138, Note_off_c, 0, 71, 104
1, 19156, Note_on_c, 0, 73, 102
1, 19226, Note_off_c, 0, 73, 102
1, 19244, Note_on_c, 0, 71, 103
1, 19329, Note_off_c, 0, 71, 103
1, 19332, Note_on_c, 0, 73, 107
1, 19417, Note_off_c, 0, 73, 107
1, 19461, Note_on_c, 0, 78, 116
1, 19561, Note_off_c, 0, 78, 116
1, 19572, Note_on_c, 0, 76, 94
1, 19702, Note_off_c, 0, 76, 94
1, 19743, Note_on_c, 0, 75, 111
1, 19840, Note_off_c, 0, 75, 111
1, 19910, Note_on_c, 0, 72, 96
1, 20010, Note_off_c, 0, 72, 96
1, 20528, Note_on_c, 0, 72, 101
1, 20613, Note_off_c, 0, 72, 101
1, 20646, Note_on_c, 0, 74, 117
1, 20806, Note_off_c, 0, 74, 117
1, 20820, Note_on_c, 0, 77, 127
1, 20917, Note_off_c, 0, 77, 127
1, 20928, Note_on_c, 0, 72, 103
1, 21028, Note_off_c, 0, 72, 103
1, 21028, Note_on_c, 0, 74, 101
1, 21098, Note_off_c, 0, 74, 101
1, 21124, Note_on_c, 0, 70, 92
1, 21221, Note_off_c, 0, 70, 92
1, 21314, Note_on_c, 0, 69, 109
1, 21429, Note_off_c, 0, 69, 109
1, 21481, Note_on_c, 0, 71, 106
1, 21589, Note_off_c, 0, 71, 106
1, 21596, Note_on_c, 0, 66, 98
1, 21689, Note_off_c, 0, 66, 98
1, 21689, Note_on_c, 0, 64, 92
1, 21909, Note_off_c, 0, 64, 92
1, 22480, Note_on_c, 0, 75, 115
1, 22595, Note_off_c, 0, 75, 115
1, 22647, Note_on_c, 0, 80, 116
1, 22762, Note_off_c, 0, 80, 116
1, 22818, Note_on_c, 0, 84, 110
1, 22937, Note_off_c, 0, 84, 110
1, 22948, Note_on_c, 0, 82, 123
1, 23060, Note_off_c, 0, 82, 123
1, 23060, Note_on_c, 0, 81, 114
1, 23183, Note_off_c, 0, 81, 114
1, 23246, Note_on_c, 0, 75, 108
1, 23343, Note_off_c, 0, 75, 108
1, 23354, Note_on_c, 0, 78, 113
1, 23458, Note_off_c, 0, 78, 113
1, 23458, Note_on_c, 0, 77, 110
1, 23555, Note_off_c, 0, 77, 110
1, 23555, Note_on_c, 0, 75, 109
1, 23633, Note_off_c, 0, 75, 109
1, 23647, Note_on_c, 0, 74, 108
1, 23744, Note_off_c, 0, 74, 108
1, 23744, Note_on_c, 0, 73, 102
1, 23837, Note_on_c, 0, 74, 93
1, 23837, Note_off_c, 0, 73, 102
1, 23889, Note_off_c, 0, 74, 93
1, 23889, Note_on_c, 0, 72, 104
1, 23937, Note_off_c, 0, 72, 104
1, 23955, Note_on_c, 0, 71, 103
1, 23992, Note_off_c, 0, 71, 103
1, 24010, Note_on_c, 0, 70, 104
1, 24095, Note_off_c, 0, 70, 104
1, 24106, Note_on_c, 0, 69, 99
1, 24184, Note_off_c, 0, 69, 99
1, 24198, Note_on_c, 0, 68, 101
1, 24302, Note_off_c, 0, 68, 101
1, 24302, Note_on_c, 0, 70, 101
1, 24395, Note_off_c, 0, 70, 101
1, 24398, Note_on_c, 0, 69, 96
1, 24431, Note_off_c, 0, 69, 96
1, 24445, Note_on_c, 0, 70, 100
1, 24478, Note_off_c, 0, 70, 100
1, 24481, Note_on_c, 0, 69, 98
1, 24514, Note_on_c, 0, 67, 97
1, 24514, Note_off_c, 0, 69, 98
1, 24596, Note_off_c, 0, 67, 97
1, 24610, Note_on_c, 0, 66, 95
1, 24733, Note_off_c, 0, 66, 95
1, 25087, Note_on_c, 0, 72, 118
1, 25217, Note_off_c, 0, 72, 118
1, 25228, Note_on_c, 0, 73, 104
1, 25269, Note_off_c, 0, 73, 104
1, 25283, Note_on_c, 0, 74, 109
1, 25324, Note_off_c, 0, 74, 109
1, 25338, Note_on_c, 0, 75, 123
1, 25464, Note_off_c, 0, 75, 123
1, 25493, Note_on_c, 0, 73, 100
1, 25597, Note_off_c, 0, 73, 100
1, 25608, Note_on_c, 0, 74, 98
1, 25649, Note_off_c, 0, 74, 98
1, 25660, Note_on_c, 0, 75, 113
1, 25697, Note_off_c, 0, 75, 113
1, 25715, Note_on_c, 0, 76, 113
1, 25845, Note_off_c, 0, 76, 113
1, 25867, Note_on_c, 0, 74, 111
1, 25971, Note_off_c, 0, 74, 111
1, 25997, Note_on_c, 0, 75, 108
1, 26045, Note_off_c, 0, 75, 108
1, 26056, Note_on_c, 0, 76, 109
1, 26082, Note_off_c, 0, 76, 109
1, 26093, Note_on_c, 0, 77, 122
1, 26231, Note_off_c, 0, 77, 122
1, 26260, Note_on_c, 0, 75, 107
1, 26349, Note_off_c, 0, 75, 107
1, 26371, Note_on_c, 0, 76, 106
1, 26412, Note_off_c, 0, 76, 106
1, 26415, Note_on_c, 0, 77, 115
1, 26456, Note_off_c, 0, 77, 115
1, 26478, Note_on_c, 0, 78, 120
1, 26604, Note_off_c, 0, 78, 120
1, 26604, End_track
0, 0, End_of_file
