0, 0, Header, 1, 1, 192
1, 0, Start_track
1, 0, Title_t, "Melody"
1, 0, Tempo, 267857
1, 0, Key_signature, -1, "major"
1, 0, Time_signature, 4, 2, 24, 8
1, 2582, Note_on_c, 0, 62, 107
1, 2630, Note_off_c, 0, 62, 107
1, 2645, Note_on_c, 0, 65, 118
1, 2715, Note_off_c, 0, 65, 118
1, 2754, Note_on_c, 0, 63, 94
1, 2793, Note_off_c, 0, 63, 94
1, 2796, Note_on_c, 0, 64, 107
1, 2872, Note_off_c, 0, 64, 107
1, 2882, Note_on_c, 0, 65, 111
1, 2938, Note_off_c, 0, 65, 111
1, 2950, Note_on_c, 0, 66, 110
1, 3010, Note_off_c, 0, 66, 110
1, 3022, Note_on_c, 0, 67, 120
1, 3107, Note_off_c, 0, 67, 120
1, 3117, Note_on_c, 0, 69, 117
1, 3202, Note_off_c, 0, 69, 117
1, 3209, Note_on_c, 0, 70, 117
1, 3293, Note_off_c, 0, 70, 117
1, 3301, Note_on_c, 0, 72, 125
1, 3392, Note_off_c, 0, 72, 125
1, 3400, Note_on_c, 0, 74, 116
1, 3479, Note_off_c, 0, 74, 116
1, 3481, Note_on_c, 0, 77, 122
1, 3568, Note_off_c, 0, 77, 122
1, 3576, Note_on_c, 0, 76, 113
1, 3669, Note_off_c, 0, 76, 113
1, 3690, Note_on_c, 0, 75, 122
1, 3773, Note_off_c, 0, 75, 122
1, 3778, Note_on_c, 0, 74, 112
1, 3875, Note_off_c, 0, 74, 112
1, 3884, Note_on_c, 0, 73, 116
1, 3949, Note_off_c, 0, 73, 116
1, 3953, Note_on_c, 0, 72, 107
1, 4071, Note_off_c, 0, 72, 107
1, 4089, Note_on_c, 0, 64, 98
1, 4178, Note_off_c, 0, 64, 98
1, 4186, Note_on_c, 0, 65, 104
1, 4264, Note_off_c, 0, 65, 104
1, 4295, Note_on_c, 0, 70, 122
1, 4379, Note_off_c, 0, 70, 122
1, 4381, Note_on_c, 0, 69, 109
1, 4477, Note_off_c, 0, 69, 109
1, 4503, Note_on_c, 0, 65, 109
1, 4561, Note_off_c, 0, 65, 109
1, 4565, Note_on_c, 0, 62, 90
1, 4623, Note_off_c, 0, 62, 90
1, 4785, Note_on_c, 0, 67, 118
1, 4884, Note_off_c, 0, 67, 118
1, 4888, Note_on_c, 0, 64, 97
1, 4948, Note_off_c, 0, 64, 97
1, 4959, Note_on_c, 0, 62, 114
1, 5051, Note_off_c, 0, 62, 114
1, 5069, Note_on_c, 0, 67, 120
1, 5133, Note_off_c, 0, 67, 120
1, 5147, Note_on_c, 0, 69, 100
1, 5246, Note_off_c, 0, 69, 100
1, 5262, Note_on_c, 0, 72, 119
1, 5330, Note_off_c, 0, 72, 119
1, 5330, Note_on_c, 0, 74, 117
1, 5449, Note_off_c, 0, 74, 117
1, 5468, Note_on_c, 0, 77, 120
1, 5850, Note_off_c, 0, 77, 120
1, 5853, Note_on_c, 0, 80, 119
1, 5875, Note_off_c, 0, 80, 119
1, 5875, Note_on_c, 0, 77, 120
1, 5899, Note_off_c, 0, 77, 120
1, 5909, Note_on_c, 0, 72, 108
1, 5922, Note_off_c, 0, 72, 108
1, 5940, Note_on_c, 0, 68, 111
1, 6089, Note_off_c, 0, 68, 111
1, 6089, Note_on_c, 0, 65, 109
1, 6203, Note_off_c, 0, 65, 109
1, 7268, Note_on_c, 0, 67, 113
1, 7377, Note_off_c, 0, 67, 113
1, 7391, Note_on_c, 0, 69, 120
1, 7462, Note_off_c, 0, 69, 120
1, 7465, Note_on_c, 0, 70, 114
1, 7566, Note_off_c, 0, 70, 114
1, 7572, Note_on_c, 0, 72, 124
1, 7645, Note_off_c, 0, 72, 124
1, 7648, Note_on_c, 0, 74, 119
1, 7727, Note_off_c, 0, 74, 119
1, 7756, Note_on_c, 0, 77, 126
1, 7833, Note_off_c, 0, 77, 126
1, 7843, Note_on_c, 0, 81, 117
1, 7876, Note_off_c, 0, 81, 117
1, 7884, Note_on_c, 0, 82, 122
1, 7990, Note_off_c, 0, 82, 122
1, 7991, Note_on_c, 0, 81, 115
1, 8035, Note_off_c, 0, 81, 115
1, 8038, Note_on_c, 0, 79, 120
1, 8119, Note_off_c, 0, 79, 120
1, 8155, Note_on_c, 0, 77, 119
1, 8245, Note_off_c, 0, 77, 119
1, 8252, Note_on_c, 0, 76, 119
1, 8341, Note_off_c, 0, 76, 119
1, 8349, Note_on_c, 0, 75, 121
1, 8425, Note_off_c, 0, 75, 121
1, 8433, Note_on_c, 0, 74, 122
1, 8507, Note_off_c, 0, 74, 122
1, 8523, Note_on_c, 0, 73, 120
1, 8610, Note_off_c, 0, 73, 120
1, 8621, Note_on_c, 0, 72, 117
1, 8720, Note_off_c, 0, 72, 117
1, 8726, Note_on_c, 0, 69, 116
1, 8813, Note_off_c, 0, 69, 116
1, 8932, Note_on_c, 0, 67, 120
1, 9011, Note_off_c, 0, 67, 120
1, 9020, Note_on_c, 0, 68, 107
1, 9108, Note_off_c, 0, 68, 107
1, 9143, Note_on_c, 0, 75, 124
1, 9208, Note_off_c, 0, 75, 124
1, 9224, Note_on_c, 0, 72, 104
1, 9286, Note_off_c, 0, 72, 104
1, 9307, Note_on_c, 0, 73, 117
1, 9369, Note_off_c, 0, 73, 117
1, 9373, Note_on_c, 0, 74, 119
1, 9468, Note_off_c, 0, 74, 119
1, 9471, Note_on_c, 0, 70, 116
1, 9545, Note_off_c, 0, 70, 116
1, 9545, Note_on_c, 0, 67, 113
1, 9651, Note_off_c, 0, 67, 113
1, 9669, Note_on_c, 0, 65, 115
1, 9751, Note_off_c, 0, 65, 115
1, 9754, Note_on_c, 0, 64, 112
1, 9821, Note_off_c, 0, 64, 112
1, 9878, Note_on_c, 0, 73, 119
1, 9959, Note_off_c, 0, 73, 119
1, 9985, Note_on_c, 0, 70, 100
1, 10051, Note_off_c, 0, 70, 100
1, 10062, Note_on_c, 0, 71, 120
1, 10136, Note_off_c, 0, 71, 120
1, 10150, Note_on_c, 0, 72, 108
1, 10254, Note_off_c, 0, 72, 108
1, 10328, Note_on_c, 0, 64, 116
1, 10371, Note_off_c, 0, 64, 116
1, 10389, Note_on_c, 0, 67, 110
1, 10432, Note_off_c, 0, 67, 110
1, 10457, Note_on_c, 0, 70, 123
1, 10509, Note_off_c, 0, 70, 123
1, 10520, Note_on_c, 0, 69, 115
1, 10615, Note_off_c, 0, 69, 115
1, 10997, Note_on_c, 0, 60, 110
1, 11063, Note_on_c, 0, 62, 110
1, 11063, Note_off_c, 0, 60, 110
1, 11146, Note_off_c, 0, 62, 110
1, 11195, Note_on_c, 0, 65, 99
1, 11249, Note_off_c, 0, 65, 99
1, 11277, Note_on_c, 0, 67, 117
1, 11395, Note_off_c, 0, 67, 117
1, 11401, Note_on_c, 0, 64, 106
1, 11473, Note_off_c, 0, 64, 106
1, 11481, Note_on_c, 0, 65, 101
1, 11566, Note_off_c, 0, 65, 101
1, 11574, Note_on_c, 0, 67, 115
1, 11659, Note_off_c, 0, 67, 115
1, 11662, Note_on_c, 0, 68, 112
1, 11713, Note_off_c, 0, 68, 112
1, 11719, Note_on_c, 0, 70, 111
1, 11766, Note_off_c, 0, 70, 111
1, 11773, Note_on_c, 0, 68, 117
1, 11828, Note_off_c, 0, 68, 117
1, 11853, Note_on_c, 0, 67, 117
1, 11952, Note_off_c, 0, 67, 117
1, 11981, Note_on_c, 0, 65, 99
1, 12039, Note_off_c, 0, 65, 99
1, 12044, Note_on_c, 0, 70, 122
1, 12162, Note_off_c, 0, 70, 122
1, 12183, Note_on_c, 0, 65, 107
1, 12286, Note_off_c, 0, 65, 107
1, 13673, Note_on_c, 0, 84, 126
1, 13705, Note_off_c, 0, 84, 126
1, 13705, Note_on_c, 0, 83, 121
1, 13718, Note_off_c, 0, 83, 121
1, 13734, Note_on_c, 0, 82, 118
1, 13750, Note_off_c, 0, 82, 118
1, 13751, Note_on_c, 0, 81, 119
1, 13761, Note_off_c, 0, 81, 119
1, 13765, Note_on_c, 0, 79, 115
1, 13855, Note_off_c, 0, 79, 115
1, 13861, Note_on_c, 0, 77, 120
1, 13935, Note_off_c, 0, 77, 120
1, 13939, Note_on_c, 0, 76, 118
1, 14032, Note_off_c, 0, 76, 118
1, 14040, Note_on_c, 0, 75, 119
1, 14130, Note_off_c, 0, 75, 119
1, 14138, Note_on_c, 0, 74, 120
1, 14232, Note_off_c, 0, 74, 120
1, 14239, Note_on_c, 0, 73, 119
1, 14313, Note_off_c, 0, 73, 119
1, 14322, Note_on_c, 0, 72, 114
1, 14405, Note_off_c, 0, 72, 114
1, 14413, Note_on_c, 0, 71, 118
1, 14506, Note_off_c, 0, 71, 118
1, 14524, Note_on_c, 0, 70, 104
1, 14589, Note_off_c, 0, 70, 104
1, 14601, Note_on_c, 0, 69, 118
1, 14667, Note_off_c, 0, 69, 118
1, 14675, Note_on_c, 0, 68, 107
1, 14757, Note_off_c, 0, 68, 107
1, 14762, Note_on_c, 0, 67, 110
1, 14871, Note_off_c, 0, 67, 110
1, 14877, Note_on_c, 0, 66, 113
1, 14942, Note_off_c, 0, 66, 113
1, 14969, Note_on_c, 0, 65, 99
1, 15033, Note_off_c, 0, 65, 99
1, 15043, Note_on_c, 0, 64, 103
1, 15123, Note_off_c, 0, 64, 103
1, 15134, Note_on_c, 0, 62, 101
1, 15233, Note_off_c, 0, 62, 101
1, 15299, Note_on_c, 0, 65, 113
1, 15360, Note_off_c, 0, 65, 113
1, 15366, Note_on_c, 0, 62, 95
1, 15429, Note_off_c, 0, 62, 95
1, 15436, Note_on_c, 0, 63, 112
1, 15535, Note_off_c, 0, 63, 112
1, 15537, Note_on_c, 0, 65, 110
1, 15618, Note_off_c, 0, 65, 110
1, 15641, Note_on_c, 0, 66, 111
1, 15713, Note_off_c, 0, 66, 111
1, 15752, Note_on_c, 0, 68, 115
1, 15820, Note_off_c, 0, 68, 115
1, 15830, Note_on_c, 0, 70, 117
1, 15919, Note_off_c, 0, 70, 117
1, 15922, Note_on_c, 0, 73, 115
1, 15990, Note_off_c, 0, 73, 115
1, 16006, Note_on_c, 0, 72, 108
1, 16085, Note_off_c, 0, 72, 108
1, 16107, Note_on_c, 0, 70, 94
1, 16161, Note_off_c, 0, 70, 94
1, 16171, Note_on_c, 0, 68, 112
1, 16237, Note_off_c, 0, 68, 112
1, 16256, Note_on_c, 0, 66, 113
1, 16341, Note_off_c, 0, 66, 113
1, 16466, Note_on_c, 0, 72, 101
1, 16536, Note_off_c, 0, 72, 101
1, 16549, Note_on_c, 0, 75, 121
1, 16648, Note_off_c, 0, 75, 121
1, 16660, Note_on_c, 0, 72, 112
1, 16743, Note_off_c, 0, 72, 112
1, 16749, Note_on_c, 0, 70, 99
1, 16789, Note_off_c, 0, 70, 99
1, 16803, Note_on_c, 0, 68, 99
1, 16843, Note_off_c, 0, 68, 99
1, 16881, Note_on_c, 0, 64, 108
1, 16926, Note_off_c, 0, 64, 108
1, 16950, Note_on_c, 0, 71, 105
1, 16976, Note_off_c, 0, 71, 105
1, 16983, Note_on_c, 0, 72, 117
1, 17042, Note_off_c, 0, 72, 117
1, 17054, Note_on_c, 0, 71, 114
1, 17120, Note_off_c, 0, 71, 114
1, 17132, Note_on_c, 0, 69, 112
1, 17206, Note_off_c, 0, 69, 112
1, 17239, Note_on_c, 0, 64, 98
1, 17530, Note_off_c, 0, 64, 98
1, 17627, Note_on_c, 0, 62, 119
1, 17699, Note_off_c, 0, 62, 119
1, 17705, Note_on_c, 0, 63, 113
1, 17791, Note_off_c, 0, 63, 113
1, 17802, Note_on_c, 0, 65, 114
1, 17862, Note_off_c, 0, 65, 114
1, 17876, Note_on_c, 0, 66, 107
1, 17963, Note_off_c, 0, 66, 107
1, 17973, Note_on_c, 0, 68, 108
1, 18054, Note_off_c, 0, 68, 108
1, 18069, Note_on_c, 0, 70, 120
1, 18162, Note_off_c, 0, 70, 120
1, 18181, Note_on_c, 0, 73, 122
1, 18248, Note_off_c, 0, 73, 122
1, 18254, Note_on_c, 0, 72, 108
1, 18363, Note_off_c, 0, 72, 108
1, 18373, Note_on_c, 0, 70, 120
1, 18431, Note_off_c, 0, 70, 120
1, 18448, Note_on_c, 0, 69, 106
1, 18484, Note_off_c, 0, 69, 106
1, 18497, Note_on_c, 0, 70, 112
1, 18535, Note_off_c, 0, 70, 112
1, 18540, Note_on_c, 0, 69, 116
1, 18602, Note_off_c, 0, 69, 116
1, 18629, Note_on_c, 0, 66, 110
1, 18769, Note_off_c, 0, 66, 110
1, 19136, Note_on_c, 0, 60, 107
1, 19194, Note_off_c, 0, 60, 107
1, 19239, Note_on_c, 0, 65, 116
1, 19306, Note_off_c, 0, 65, 116
1, 19323, Note_on_c, 0, 67, 118
1, 19399, Note_off_c, 0, 67, 118
1, 19405, Note_on_c, 0, 68, 104
1, 19490, Note_off_c, 0, 68, 104
1, 19497, Note_on_c, 0, 70, 119
1, 19571, Note_off_c, 0, 70, 119
1, 19587, Note_on_c, 0, 69, 117
1, 19652, Note_off_c, 0, 69, 117
1, 19662, Note_on_c, 0, 67, 113
1, 19749, Note_off_c, 0, 67, 113
1, 19760, Note_on_c, 0, 66, 114
1, 19830, Note_off_c, 0, 66, 114
1, 20622, Note_on_c, 0, 76, 125
1, 20659, Note_off_c, 0, 76, 125
1, 20666, Note_on_c, 0, 77, 117
1, 20791, Note_off_c, 0, 77, 117
1, 20843, Note_on_c, 0, 72, 120
1, 20923, Note_off_c, 0, 72, 120
1, 21010, Note_on_c, 0, 75, 123
1, 21077, Note_off_c, 0, 75, 123
1, 21097, Note_on_c, 0, 73, 120
1, 21149, Note_off_c, 0, 73, 120
1, 21198, Note_on_c, 0, 65, 106
1, 21247, Note_off_c, 0, 65, 106
1, 21293, Note_on_c, 0, 68, 118
1, 21347, Note_off_c, 0, 68, 118
1, 21366, Note_on_c, 0, 72, 118
1, 21421, Note_off_c, 0, 72, 118
1, 21429, Note_on_c, 0, 73, 108
1, 21483, Note_off_c, 0, 73, 108
1, 21519, Note_on_c, 0, 68, 118
1, 21581, Note_off_c, 0, 68, 118
1, 21605, Note_on_c, 0, 67, 107
1, 21685, Note_off_c, 0, 67, 107
1, 21708, Note_on_c, 0, 65, 116
1, 21776, Note_off_c, 0, 65, 116
1, 21786, Note_on_c, 0, 64, 113
1, 21844, Note_off_c, 0, 64, 113
1, 21903, Note_on_c, 0, 73, 119
1, 21970, Note_off_c, 0, 73, 119
1, 21990, Note_on_c, 0, 70, 98
1, 22063, Note_off_c, 0, 70, 98
1, 22076, Note_on_c, 0, 71, 115
1, 22134, Note_off_c, 0, 71, 115
1, 22158, Note_on_c, 0, 72, 119
1, 22264, Note_off_c, 0, 72, 119
1, 22284, Note_on_c, 0, 64, 111
1, 22374, Note_off_c, 0, 64, 111
1, 22388, Note_on_c, 0, 65, 106
1, 22443, Note_off_c, 0, 65, 106
1, 22472, Note_on_c, 0, 69, 121
1, 22546, Note_off_c, 0, 69, 121
1, 22554, Note_on_c, 0, 70, 115
1, 22634, Note_off_c, 0, 70, 115
1, 22654, Note_on_c, 0, 69, 118
1, 22727, Note_off_c, 0, 69, 118
1, 22748, Note_on_c, 0, 63, 113
1, 22802, Note_off_c, 0, 63, 113
1, 22818, Note_on_c, 0, 64, 96
1, 22891, Note_off_c, 0, 64, 96
1, 22930, Note_on_c, 0, 67, 114
1, 23016, Note_off_c, 0, 67, 114
1, 23042, Note_on_c, 0, 64, 103
1, 23113, Note_off_c, 0, 64, 103
1, 23123, Note_on_c, 0, 65, 102
1, 23190, Note_off_c, 0, 65, 102
1, 23222, Note_on_c, 0, 67, 121
1, 23289, Note_off_c, 0, 67, 121
1, 23310, Note_on_c, 0, 69, 117
1, 23350, Note_off_c, 0, 69, 117
1, 23363, Note_on_c, 0, 73, 101
1, 23403, Note_off_c, 0, 73, 101
1, 23423, Note_on_c, 0, 72, 120
1, 23487, Note_off_c, 0, 72, 120
1, 23501, Note_on_c, 0, 74, 123
1, 23588, Note_off_c, 0, 74, 123
1, 23608, Note_on_c, 0, 77, 122
1, 23684, Note_off_c, 0, 77, 122
1, 23704, Note_on_c, 0, 79, 123
1, 23799, Note_off_c, 0, 79, 123
1, 23816, Note_on_c, 0, 80, 117
1, 24060, Note_off_c, 0, 80, 117
1, 24079, Note_on_c, 0, 74, 120
1, 24260, Note_off_c, 0, 74, 120
1, 25553, Note_on_c, 0, 79, 119
1, 25589, Note_off_c, 0, 79, 119
1, 25593, Note_on_c, 0, 77, 117
1, 25633, Note_off_c, 0, 77, 117
1, 25637, Note_on_c, 0, 76, 119
1, 25727, Note_off_c, 0, 76, 119
1, 25748, Note_on_c, 0, 74, 118
1, 25816, Note_off_c, 0, 74, 118
1, 25822, Note_on_c, 0, 72, 118
1, 25881, Note_off_c, 0, 72, 118
1, 25943, Note_on_c, 0, 69, 118
1, 25985, Note_off_c, 0, 69, 118
1, 25994, Note_on_c, 0, 70, 117
1, 26114, Note_off_c, 0, 70, 117
1, 26221, Note_on_c, 0, 67, 114
1, 26305, Note_off_c, 0, 67, 114
1, 26315, Note_on_c, 0, 70, 112
1, 26402, Note_off_c, 0, 70, 112
1, 26404, Note_on_c, 0, 69, 117
1, 26480, Note_off_c, 0, 69, 117
1, 26484, Note_on_c, 0, 67, 117
1, 26552, Note_off_c, 0, 67, 117
1, 26559, Note_on_c, 0, 66, 114
1, 26648, Note_off_c, 0, 66, 114
1, 26674, Note_on_c, 0, 64, 104
1, 26738, Note_off_c, 0, 64, 104
1, 26754, Note_on_c, 0, 65, 107
1, 26846, Note_off_c, 0, 65, 107
1, 26867, Note_on_c, 0, 67, 118
1, 26943, Note_off_c, 0, 67, 118
1, 26981, Note_on_c, 0, 69, 100
1, 27058, Note_off_c, 0, 69, 100
1, 27069, Note_on_c, 0, 72, 118
1, 27147, Note_off_c, 0, 72, 118
1, 27167, Note_on_c, 0, 74, 115
1, 27251, Note_off_c, 0, 74, 115
1, 27337, Note_on_c, 0, 77, 121
1, 27429, Note_off_c, 0, 77, 121
1, 27448, Note_on_c, 0, 75, 121
1, 27535, Note_off_c, 0, 75, 121
1, 27543, Note_on_c, 0, 76, 115
1, 27605, Note_off_c, 0, 76, 115
1, 27610, Note_on_c, 0, 75, 109
1, 27633, Note_off_c, 0, 75, 109
1, 27650, Note_on_c, 0, 72, 114
1, 27714, Note_off_c, 0, 72, 114
1, 27738, Note_on_c, 0, 69, 113
1, 27822, Note_off_c, 0, 69, 113
1, 27886, Note_on_c, 0, 68, 94
1, 27912, Note_off_c, 0, 68, 94
1, 27938, Note_on_c, 0, 73, 118
1, 27983, Note_off_c, 0, 73, 118
1, 28000, Note_on_c, 0, 74, 114
1, 28169, Note_off_c, 0, 74, 114
1, 28335, Note_on_c, 0, 69, 103
1, 28411, Note_off_c, 0, 69, 103
1, 28428, Note_on_c, 0, 70, 100
1, 28489, Note_off_c, 0, 70, 100
1, 28496, Note_on_c, 0, 71, 109
1, 28586, Note_off_c, 0, 71, 109
1, 28587, Note_on_c, 0, 72, 110
1, 28667, Note_off_c, 0, 72, 110
1, 28671, Note_on_c, 0, 73, 119
1, 28752, Note_off_c, 0, 73, 119
1, 28775, Note_on_c, 0, 74, 122
1, 28861, Note_off_c, 0, 74, 122
1, 28872, Note_on_c, 0, 70, 109
1, 28948, Note_off_c, 0, 70, 109
1, 28986, Note_on_c, 0, 67, 112
1, 29037, Note_off_c, 0, 67, 112
1, 29070, Note_on_c, 0, 72, 123
1, 29163, Note_off_c, 0, 72, 123
1, 29174, Note_on_c, 0, 70, 119
1, 29247, Note_off_c, 0, 70, 119
1, 29369, Note_on_c, 0, 65, 113
1, 29434, Note_off_c, 0, 65, 113
1, 29444, Note_on_c, 0, 69, 120
1, 29527, Note_off_c, 0, 69, 120
1, 29534, Note_on_c, 0, 68, 119
1, 29620, Note_off_c, 0, 68, 119
1, 29628, Note_on_c, 0, 67, 116
1, 29709, Note_off_c, 0, 67, 116
1, 29716, Note_on_c, 0, 66, 113
1, 29806, Note_off_c, 0, 66, 113
1, 29817, Note_on_c, 0, 65, 116
1, 29920, Note_off_c, 0, 65, 116
1, 29922, Note_on_c, 0, 67, 111
1, 29987, Note_off_c, 0, 67, 111
1, 30001, Note_on_c, 0, 68, 114
1, 30075, Note_off_c, 0, 68, 114
1, 30118, Note_on_c, 0, 70, 119
1, 30167, Note_off_c, 0, 70, 119
1, 30171, Note_on_c, 0, 72, 112
1, 30214, Note_off_c, 0, 72, 112
1, 30215, Note_on_c, 0, 74, 116
1, 30260, Note_off_c, 0, 74, 116
1, 30271, Note_on_c, 0, 72, 115
1, 30347, Note_off_c, 0, 72, 115
1, 30366, Note_on_c, 0, 70, 117
1, 30466, Note_off_c, 0, 70, 117
1, 30485, Note_on_c, 0, 67, 103
1, 30555, Note_off_c, 0, 67, 103
1, 30569, Note_on_c, 0, 68, 119
1, 30653, Note_off_c, 0, 68, 119
1, 30683, Note_on_c, 0, 65, 108
1, 30744, Note_off_c, 0, 65, 108
1, 30859, Note_on_c, 0, 63, 100
1, 30916, Note_off_c, 0, 63, 100
1, 30923, Note_on_c, 0, 67, 117
1, 31040, Note_off_c, 0, 67, 117
1, 31060, Note_on_c, 0, 65, 114
1, 31121, Note_off_c, 0, 65, 114
1, 31265, Note_on_c, 0, 62, 108
1, 31348, Note_off_c, 0, 62, 108
1, 31359, Note_on_c, 0, 64, 108
1, 31436, Note_off_c, 0, 64, 108
1, 31457, Note_on_c, 0, 67, 111
1, 31506, Note_off_c, 0, 67, 111
1, 31514, Note_on_c, 0, 69, 115
1, 31609, Note_off_c, 0, 69, 115
1, 31616, Note_on_c, 0, 70, 121
1, 31715, Note_off_c, 0, 70, 121
1, 32215, Note_on_c, 0, 69, 119
1, 32258, Note_off_c, 0, 69, 119
1, 32262, Note_on_c, 0, 68, 124
1, 32302, Note_off_c, 0, 68, 124
1, 32312, Note_on_c, 0, 67, 117
1, 32355, Note_off_c, 0, 67, 117
1, 32412, Note_on_c, 0, 65, 115
1, 32450, Note_off_c, 0, 65, 115
1, 32451, Note_on_c, 0, 64, 113
1, 32547, Note_off_c, 0, 64, 113
1, 32583, Note_on_c, 0, 67, 107
1, 32625, Note_off_c, 0, 67, 107
1, 32649, Note_on_c, 0, 74, 117
1, 32722, Note_off_c, 0, 74, 117
1, 32765, Note_on_c, 0, 77, 126
1, 32839, Note_off_c, 0, 77, 126
1, 32841, Note_on_c, 0, 76, 123
1, 32868, Note_off_c, 0, 76, 123
1, 32882, Note_on_c, 0, 77, 117
1, 32911, Note_off_c, 0, 77, 117
1, 32911, Note_on_c, 0, 76, 117
1, 32963, Note_off_c, 0, 76, 117
1, 32971, Note_on_c, 0, 74, 119
1, 33017, Note_off_c, 0, 74, 119
1, 33024, Note_on_c, 0, 73, 122
1, 33127, Note_off_c, 0, 73, 122
1, 33138, Note_on_c, 0, 71, 112
1, 33212, Note_off_c, 0, 71, 112
1, 33219, Note_on_c, 0, 72, 117
1, 33305, Note_off_c, 0, 72, 117
1, 33316, Note_on_c, 0, 68, 117
1, 33408, Note_off_c, 0, 68, 117
1, 33424, Note_on_c, 0, 64, 116
1, 33510, Note_off_c, 0, 64, 116
1, 33533, Note_on_c, 0, 60, 106
1, 33595, Note_off_c, 0, 60, 106
1, 33618, Note_on_c, 0, 68, 109
1, 33651, Note_off_c, 0, 68, 109
1, 33658, Note_on_c, 0, 70, 119
1, 33701, Note_off_c, 0, 70, 119
1, 33712, Note_on_c, 0, 69, 116
1, 33741, Note_off_c, 0, 69, 116
1, 33757, Note_on_c, 0, 68, 117
1, 33797, Note_off_c, 0, 68, 117
1, 33799, Note_on_c, 0, 66, 119
1, 33908, Note_off_c, 0, 66, 119
1, 33918, Note_on_c, 0, 65, 119
1, 34002, Note_off_c, 0, 65, 119
1, 34013, Note_on_c, 0, 64, 114
1, 34090, Note_off_c, 0, 64, 114
1, 34104, Note_on_c, 0, 68, 103
1, 34140, Note_off_c, 0, 68, 103
1, 34147, Note_on_c, 0, 70, 100
1, 34182, Note_off_c, 0, 70, 100
1, 34198, Note_on_c, 0, 75, 122
1, 34309, Note_off_c, 0, 75, 122
1, 34320, Note_on_c, 0, 73, 121
1, 34387, Note_off_c, 0, 73, 121
1, 34410, Note_on_c, 0, 72, 117
1, 34439, Note_off_c, 0, 72, 117
1, 34452, Note_on_c, 0, 74, 114
1, 34494, Note_off_c, 0, 74, 114
1, 34511, Note_on_c, 0, 72, 118
1, 34551, Note_off_c, 0, 72, 118
1, 34571, Note_on_c, 0, 69, 112
1, 34667, Note_off_c, 0, 69, 112
1, 34757, Note_on_c, 0, 72, 107
1, 34944, Note_off_c, 0, 72, 107
1, 35505, Note_on_c, 0, 72, 119
1, 35544, Note_off_c, 0, 72, 119
1, 35545, Note_on_c, 0, 73, 120
1, 35590, Note_off_c, 0, 73, 120
1, 35594, Note_on_c, 0, 74, 112
1, 35622, Note_off_c, 0, 74, 112
1, 35625, Note_on_c, 0, 75, 123
1, 35665, Note_off_c, 0, 75, 123
1, 35666, Note_on_c, 0, 77, 115
1, 35685, Note_off_c, 0, 77, 115
1, 35692, Note_on_c, 0, 76, 121
1, 35712, Note_off_c, 0, 76, 121
1, 35717, Note_on_c, 0, 77, 123
1, 35738, Note_off_c, 0, 77, 123
1, 35748, Note_on_c, 0, 76, 119
1, 35805, Note_off_c, 0, 76, 119
1, 35818, Note_on_c, 0, 75, 113
1, 35877, Note_off_c, 0, 75, 113
1, 35890, Note_on_c, 0, 73, 119
1, 35938, Note_off_c, 0, 73, 119
1, 35941, Note_on_c, 0, 72, 107
1, 35975, Note_off_c, 0, 72, 107
1, 35975, Note_on_c, 0, 75, 118
1, 36003, Note_off_c, 0, 75, 118
1, 36011, Note_on_c, 0, 74, 120
1, 36042, Note_off_c, 0, 74, 120
1, 36052, Note_on_c, 0, 72, 118
1, 36099, Note_off_c, 0, 72, 118
1, 36105, Note_on_c, 0, 68, 108
1, 36159, Note_off_c, 0, 68, 108
1, 36169, Note_on_c, 0, 69, 114
1, 36234, Note_off_c, 0, 69, 114
1, 36280, Note_on_c, 0, 72, 123
1, 36364, Note_off_c, 0, 72, 123
1, 36380, Note_on_c, 0, 68, 118
1, 36445, Note_off_c, 0, 68, 118
1, 36448, Note_on_c, 0, 67, 109
1, 36547, Note_off_c, 0, 67, 109
1, 36557, Note_on_c, 0, 65, 116
1, 36614, Note_off_c, 0, 65, 116
1, 36653, Note_on_c, 0, 70, 118
1, 36749, Note_off_c, 0, 70, 118
1, 36762, Note_on_c, 0, 68, 110
1, 36786, Note_off_c, 0, 68, 110
1, 36793, Note_on_c, 0, 70, 112
1, 36827, Note_off_c, 0, 70, 112
1, 36838, Note_on_c, 0, 68, 113
1, 36903, Note_off_c, 0, 68, 113
1, 36932, Note_on_c, 0, 65, 109
1, 37208, Note_off_c, 0, 65, 109
1, 37314, Note_on_c, 0, 65, 114
1, 37369, Note_off_c, 0, 65, 114
1, 37377, Note_on_c, 0, 68, 111
1, 37435, Note_off_c, 0, 68, 111
1, 37439, Note_on_c, 0, 69, 107
1, 37480, Note_off_c, 0, 69, 107
1, 37484, Note_on_c, 0, 68, 110
1, 37536, Note_off_c, 0, 68, 110
1, 37553, Note_on_c, 0, 67, 110
1, 37624, Note_off_c, 0, 67, 110
1, 37649, Note_on_c, 0, 65, 112
1, 37746, Note_off_c, 0, 65, 112
1, 37753, Note_on_c, 0, 64, 106
1, 37829, Note_off_c, 0, 64, 106
1, 37871, Note_on_c, 0, 67, 115
1, 37940, Note_off_c, 0, 67, 115
1, 37940, Note_on_c, 0, 70, 118
1, 38022, Note_off_c, 0, 70, 118
1, 38061, Note_on_c, 0, 72, 100
1, 38121, Note_off_c, 0, 72, 100
1, 38166, Note_on_c, 0, 73, 123
1, 38240, Note_off_c, 0, 73, 123
1, 38240, Note_on_c, 0, 75, 116
1, 38275, Note_off_c, 0, 75, 116
1, 38275, Note_on_c, 0, 74, 118
1, 38319, Note_off_c, 0, 74, 118
1, 38326, Note_on_c, 0, 72, 120
1, 38389, Note_off_c, 0, 72, 120
1, 38454, Note_on_c, 0, 70, 112
1, 38497, Note_off_c, 0, 70, 112
1, 38504, Note_on_c, 0, 69, 105
1, 38579, Note_off_c, 0, 69, 105
1, 38701, Note_on_c, 0, 79, 120
1, 38818, Note_off_c, 0, 79, 120
1, 38901, Note_on_c, 0, 77, 121
1, 39006, Note_off_c, 0, 77, 121
1, 39112, Note_on_c, 0, 72, 114
1, 39197, Note_off_c, 0, 72, 114
1, 39203, Note_on_c, 0, 74, 116
1, 39272, Note_off_c, 0, 74, 116
1, 39274, Note_on_c, 0, 75, 118
1, 39392, Note_off_c, 0, 75, 118
1, 39485, Note_on_c, 0, 73, 122
1, 39578, Note_off_c, 0, 73, 122
1, 39583, Note_on_c, 0, 72, 111
1, 39609, Note_off_c, 0, 72, 111
1, 39613, Note_on_c, 0, 73, 119
1, 39634, Note_off_c, 0, 73, 119
1, 39650, Note_on_c, 0, 72, 113
1, 39720, Note_off_c, 0, 72, 113
1, 39755, Note_on_c, 0, 70, 116
1, 39819, Note_off_c, 0, 70, 116
1, 39839, Note_on_c, 0, 68, 113
1, 39916, Note_off_c, 0, 68, 113
1, 39933, Note_on_c, 0, 67, 113
1, 40003, Note_off_c, 0, 67, 113
1, 40032, Note_on_c, 0, 65, 114
1, 40102, Note_off_c, 0, 65, 114
1, 40189, Note_on_c, 0, 63, 109
1, 40300, Note_off_c, 0, 63, 109
1, 40310, Note_on_c, 0, 65, 110
1, 40369, Note_off_c, 0, 65, 110
1, 40420, Note_on_c, 0, 60, 106
1, 40501, Note_off_c, 0, 60, 106
1, 40511, Note_on_c, 0, 61, 106
1, 40580, Note_off_c, 0, 61, 106
1, 40601, Note_on_c, 0, 64, 110
1, 40696, Note_off_c, 0, 64, 110
1, 40709, Note_on_c, 0, 68, 96
1, 40752, Note_off_c, 0, 68, 96
1, 40778, Note_on_c, 0, 72, 120
1, 40862, Note_off_c, 0, 72, 120
1, 40872, Note_on_c, 0, 70, 121
1, 40943, Note_off_c, 0, 70, 121
1, 40947, Note_on_c, 0, 68, 109
1, 40980, Note_off_c, 0, 68, 109
1, 40980, Note_on_c, 0, 70, 104
1, 41010, Note_off_c, 0, 70, 104
1, 41011, Note_on_c, 0, 67, 104
1, 41063, Note_off_c, 0, 67, 104
1, 41066, Note_on_c, 0, 65, 117
1, 41121, Note_off_c, 0, 65, 117
1, 41150, Note_on_c, 0, 62, 115
1, 41236, Note_off_c, 0, 62, 115
1, 41272, Note_on_c, 0, 65, 113
1, 41343, Note_off_c, 0, 65, 113
1, 41377, Note_on_c, 0, 69, 105
1, 41438, Note_off_c, 0, 69, 105
1, 41460, Note_on_c, 0, 72, 110
1, 41517, Note_off_c, 0, 72, 110
1, 41537, Note_on_c, 0, 76, 125
1, 41624, Note_off_c, 0, 76, 125
1, 41634, Note_on_c, 0, 75, 119
1, 41705, Note_off_c, 0, 75, 119
1, 41716, Note_on_c, 0, 74, 121
1, 41796, Note_off_c, 0, 74, 121
1, 41807, Note_on_c, 0, 73, 123
1, 41869, Note_off_c, 0, 73, 123
1, 41886, Note_on_c, 0, 72, 10
1, 41970, Note_off_c, 0, 72, 10
1, 42022, Note_on_c, 0, 77, 122
1, 42188, Note_off_c, 0, 77, 122
1, 42207, Note_on_c, 0, 75, 115
1, 42239, Note_off_c, 0, 75, 115
1, 42249, Note_on_c, 0, 76, 112
1, 42266, Note_off_c, 0, 76, 112
1, 42277, Note_on_c, 0, 75, 120
1, 42351, Note_off_c, 0, 75, 120
1, 42377, Note_on_c, 0, 73, 124
1, 42458, Note_off_c, 0, 73, 124
1, 42475, Note_on_c, 0, 71, 121
1, 42548, Note_off_c, 0, 71, 121
1, 42574, Note_on_c, 0, 69, 120
1, 42639, Note_off_c, 0, 69, 120
1, 42658, Note_on_c, 0, 68, 113
1, 42682, Note_off_c, 0, 68, 113
1, 42695, Note_on_c, 0, 69, 109
1, 42709, Note_off_c, 0, 69, 109
1, 42742, Note_on_c, 0, 68, 114
1, 42793, Note_off_c, 0, 68, 114
1, 42854, Note_on_c, 0, 66, 115
1, 42948, Note_off_c, 0, 66, 115
1, 43018, Note_on_c, 0, 68, 118
1, 43156, Note_off_c, 0, 68, 118
1, 43177, Note_on_c, 0, 66, 120
1, 43260, Note_off_c, 0, 66, 120
1, 43796, Note_on_c, 0, 80, 122
1, 43819, Note_off_c, 0, 80, 122
1, 43825, Note_on_c, 0, 81, 122
1, 43865, Note_off_c, 0, 81, 122
1, 43868, Note_on_c, 0, 80, 119
1, 43930, Note_off_c, 0, 80, 119
1, 43935, Note_on_c, 0, 79, 122
1, 44019, Note_off_c, 0, 79, 122
1, 44081, Note_on_c, 0, 77, 122
1, 44121, Note_off_c, 0, 77, 122
1, 44128, Note_on_c, 0, 76, 123
1, 44156, Note_off_c, 0, 76, 123
1, 44159, Note_on_c, 0, 77, 117
1, 44179, Note_off_c, 0, 77, 117
1, 44196, Note_on_c, 0, 76, 120
1, 44229, Note_off_c, 0, 76, 120
1, 44242, Note_on_c, 0, 74, 121
1, 44309, Note_off_c, 0, 74, 121
1, 44314, Note_on_c, 0, 73, 122
1, 44416, Note_off_c, 0, 73, 122
1, 44424, Note_on_c, 0, 71, 120
1, 44495, Note_off_c, 0, 71, 120
1, 44512, Note_on_c, 0, 69, 118
1, 44776, Note_off_c, 0, 69, 118
1, 44815, Note_on_c, 0, 67, 112
1, 44879, Note_off_c, 0, 67, 112
1, 44884, Note_on_c, 0, 68, 122
1, 44946, Note_off_c, 0, 68, 122
1, 44954, Note_on_c, 0, 70, 116
1, 44978, Note_off_c, 0, 70, 116
1, 44986, Note_on_c, 0, 68, 117
1, 45037, Note_off_c, 0, 68, 117
1, 45053, Note_on_c, 0, 65, 118
1, 45143, Note_off_c, 0, 65, 118
1, 45189, Note_on_c, 0, 60, 103
1, 45250, Note_off_c, 0, 60, 103
1, 45260, Note_on_c, 0, 63, 109
1, 45482, Note_off_c, 0, 63, 109
1, 45673, Note_on_c, 0, 60, 103
1, 45699, Note_off_c, 0, 60, 103
1, 45716, Note_on_c, 0, 64, 119
1, 45758, Note_off_c, 0, 64, 119
1, 45788, Note_on_c, 0, 68, 115
1, 45827, Note_off_c, 0, 68, 115
1, 45852, Note_on_c, 0, 70, 116
1, 45930, Note_off_c, 0, 70, 116
1, 45936, Note_on_c, 0, 72, 124
1, 46009, Note_off_c, 0, 72, 124
1, 46023, Note_on_c, 0, 73, 117
1, 46106, Note_off_c, 0, 73, 117
1, 46120, Note_on_c, 0, 74, 107
1, 46165, Note_off_c, 0, 74, 107
1, 46184, Note_on_c, 0, 72, 118
1, 46268, Note_off_c, 0, 72, 118
1, 46298, Note_on_c, 0, 70, 113
1, 46362, Note_off_c, 0, 70, 113
1, 46372, Note_on_c, 0, 69, 102
1, 46453, Note_off_c, 0, 69, 102
1, 46486, Note_on_c, 0, 72, 100
1, 46553, Note_off_c, 0, 72, 100
1, 46566, Note_on_c, 0, 79, 123
1, 46682, Note_off_c, 0, 79, 123
1, 46780, Note_on_c, 0, 77, 124
1, 46916, Note_off_c, 0, 77, 124
1, 47081, Note_on_c, 0, 76, 122
1, 47340, Note_off_c, 0, 76, 122
1, 47350, Note_on_c, 0, 72, 109
1, 47415, Note_off_c, 0, 72, 109
1, 47530, Note_on_c, 0, 74, 112
1, 47718, Note_off_c, 0, 74, 112
1, 47742, Note_on_c, 0, 72, 109
1, 47816, Note_off_c, 0, 72, 109
1, 47921, Note_on_c, 0, 80, 121
1, 47982, Note_off_c, 0, 80, 121
1, 47985, Note_on_c, 0, 79, 120
1, 48026, Note_off_c, 0, 79, 120
1, 48029, Note_on_c, 0, 80, 122
1, 48095, Note_off_c, 0, 80, 122
1, 48096, Note_on_c, 0, 79, 120
1, 48169, Note_off_c, 0, 79, 120
1, 48234, Note_on_c, 0, 77, 105
1, 48284, Note_off_c, 0, 77, 105
1, 48336, Note_on_c, 0, 80, 125
1, 48449, Note_off_c, 0, 80, 125
1, 48466, Note_on_c, 0, 72, 116
1, 48590, Note_off_c, 0, 72, 116
1, 49424, Note_on_c, 0, 86, 123
1, 49481, Note_off_c, 0, 86, 123
1, 49481, Note_on_c, 0, 84, 121
1, 49518, Note_off_c, 0, 84, 121
1, 49526, Note_on_c, 0, 84, 125
1, 49564, Note_off_c, 0, 84, 125
1, 49568, Note_on_c, 0, 83, 122
1, 49644, Note_off_c, 0, 83, 122
1, 49678, Note_on_c, 0, 82, 121
1, 49761, Note_off_c, 0, 82, 121
1, 49767, Note_on_c, 0, 81, 119
1, 49852, Note_off_c, 0, 81, 119
1, 49892, Note_on_c, 0, 77, 116
1, 49950, Note_off_c, 0, 77, 116
1, 49966, Note_on_c, 0, 77, 122
1, 50060, Note_off_c, 0, 77, 122
1, 50070, Note_on_c, 0, 76, 119
1, 50154, Note_off_c, 0, 76, 119
1, 50275, Note_on_c, 0, 67, 106
1, 50349, Note_off_c, 0, 67, 106
1, 50361, Note_on_c, 0, 70, 115
1, 50434, Note_off_c, 0, 70, 115
1, 50456, Note_on_c, 0, 72, 120
1, 50539, Note_off_c, 0, 72, 120
1, 50542, Note_on_c, 0, 73, 118
1, 50630, Note_off_c, 0, 73, 118
1, 50636, Note_on_c, 0, 75, 112
1, 50678, Note_off_c, 0, 75, 112
1, 50684, Note_on_c, 0, 74, 117
1, 50730, Note_off_c, 0, 74, 117
1, 50730, Note_on_c, 0, 72, 119
1, 50810, Note_off_c, 0, 72, 119
1, 50836, Note_on_c, 0, 70, 113
1, 50907, Note_off_c, 0, 70, 113
1, 50918, Note_on_c, 0, 69, 106
1, 50961, Note_off_c, 0, 69, 106
1, 50963, Note_on_c, 0, 70, 110
1, 50992, Note_off_c, 0, 70, 110
1, 51002, Note_on_c, 0, 69, 106
1, 51038, Note_off_c, 0, 69, 106
1, 51058, Note_on_c, 0, 71, 115
1, 51110, Note_off_c, 0, 71, 115
1, 51115, Note_on_c, 0, 72, 114
1, 51224, Note_off_c, 0, 72, 114
1, 51311, Note_on_c, 0, 73, 120
1, 51397, Note_off_c, 0, 73, 120
1, 51408, Note_on_c, 0, 74, 114
1, 51483, Note_off_c, 0, 74, 114
1, 51489, Note_on_c, 0, 70, 115
1, 51570, Note_off_c, 0, 70, 115
1, 51587, Note_on_c, 0, 68, 83
1, 51658, Note_off_c, 0, 68, 83
1, 51690, Note_on_c, 0, 72, 120
1, 51776, Note_off_c, 0, 72, 120
1, 51790, Note_on_c, 0, 70, 117
1, 51852, Note_off_c, 0, 70, 117
1, 52006, Note_on_c, 0, 65, 111
1, 52041, Note_off_c, 0, 65, 111
1, 52051, Note_on_c, 0, 68, 112
1, 52145, Note_off_c, 0, 68, 112
1, 52151, Note_on_c, 0, 75, 108
1, 52181, Note_off_c, 0, 75, 108
1, 52189, Note_on_c, 0, 70, 102
1, 52218, Note_off_c, 0, 70, 102
1, 52234, Note_on_c, 0, 68, 115
1, 52333, Note_off_c, 0, 68, 115
1, 52365, Note_on_c, 0, 67, 114
1, 52458, Note_off_c, 0, 67, 114
1, 52802, Note_on_c, 0, 71, 118
1, 52851, Note_off_c, 0, 71, 118
1, 52860, Note_on_c, 0, 72, 104
1, 52916, Note_off_c, 0, 72, 104
1, 52928, Note_on_c, 0, 74, 112
1, 52988, Note_off_c, 0, 74, 112
1, 53004, Note_on_c, 0, 77, 122
1, 53144, Note_off_c, 0, 77, 122
1, 53147, Note_on_c, 0, 80, 122
1, 53249, Note_off_c, 0, 80, 122
1, 53334, Note_on_c, 0, 81, 121
1, 53448, Note_off_c, 0, 81, 121
1, 53545, Note_on_c, 0, 83, 118
1, 53679, Note_off_c, 0, 83, 118
1, 53731, Note_on_c, 0, 84, 120
1, 53874, Note_off_c, 0, 84, 120
1, 53986, Note_on_c, 0, 88, 123
1, 54072, Note_off_c, 0, 88, 123
1, 54075, Note_on_c, 0, 89, 122
1, 54633, Note_off_c, 0, 89, 122
1, 54647, Note_on_c, 0, 88, 120
1, 54772, Note_off_c, 0, 88, 120
1, 54856, Note_on_c, 0, 87, 120
1, 54892, Note_off_c, 0, 87, 120
1, 54897, Note_on_c, 0, 86, 115
1, 54942, Note_off_c, 0, 86, 115
1, 55010, Note_on_c, 0, 85, 125
1, 55110, Note_off_c, 0, 85, 125
1, 55120, Note_on_c, 0, 82, 121
1, 55236, Note_off_c, 0, 82, 121
1, 55946, Note_on_c, 0, 82, 120
1, 56005, Note_off_c, 0, 82, 120
1, 56014, Note_on_c, 0, 81, 119
1, 56080, Note_off_c, 0, 81, 119
1, 56081, Note_on_c, 0, 80, 111
1, 56116, Note_off_c, 0, 80, 111
1, 56153, Note_on_c, 0, 77, 123
1, 56227, Note_off_c, 0, 77, 123
1, 56232, Note_on_c, 0, 76, 119
1, 56313, Note_off_c, 0, 76, 119
1, 56329, Note_on_c, 0, 75, 111
1, 56401, Note_off_c, 0, 75, 111
1, 56404, Note_on_c, 0, 74, 116
1, 56487, Note_off_c, 0, 74, 116
1, 56500, Note_on_c, 0, 73, 116
1, 56575, Note_off_c, 0, 73, 116
1, 56581, Note_on_c, 0, 72, 115
1, 56679, Note_off_c, 0, 72, 115
1, 56692, Note_on_c, 0, 70, 118
1, 56769, Note_off_c, 0, 70, 118
1, 56790, Note_on_c, 0, 67, 102
1, 56858, Note_off_c, 0, 67, 102
1, 56881, Note_on_c, 0, 68, 117
1, 56946, Note_off_c, 0, 68, 117
1, 56951, Note_on_c, 0, 69, 112
1, 56977, Note_off_c, 0, 69, 112
1, 56984, Note_on_c, 0, 70, 95
1, 57019, Note_off_c, 0, 70, 95
1, 57021, Note_on_c, 0, 69, 103
1, 57044, Note_off_c, 0, 69, 103
1, 57044, Note_on_c, 0, 68, 96
1, 57065, Note_off_c, 0, 68, 96
1, 57073, Note_on_c, 0, 72, 119
1, 57143, Note_off_c, 0, 72, 119
1, 57181, Note_on_c, 0, 67, 111
1, 57254, Note_off_c, 0, 67, 111
1, 57293, Note_on_c, 0, 64, 94
1, 57349, Note_off_c, 0, 64, 94
1, 57357, Note_on_c, 0, 65, 107
1, 57423, Note_off_c, 0, 65, 107
1, 57469, Note_on_c, 0, 67, 117
1, 57529, Note_off_c, 0, 67, 117
1, 57557, Note_on_c, 0, 69, 103
1, 57590, Note_off_c, 0, 69, 103
1, 57631, Note_on_c, 0, 72, 121
1, 57729, Note_off_c, 0, 72, 121
1, 57740, Note_on_c, 0, 68, 92
1, 57817, Note_off_c, 0, 68, 92
1, 57821, Note_on_c, 0, 70, 108
1, 57889, Note_off_c, 0, 70, 108
1, 57916, Note_on_c, 0, 77, 118
1, 57991, Note_off_c, 0, 77, 118
1, 58012, Note_on_c, 0, 80, 119
1, 58080, Note_off_c, 0, 80, 119
1, 58108, Note_on_c, 0, 83, 113
1, 58141, Note_off_c, 0, 83, 113
1, 58141, Note_on_c, 0, 84, 119
1, 58209, Note_off_c, 0, 84, 119
1, 58212, Note_on_c, 0, 83, 113
1, 58243, Note_off_c, 0, 83, 113
1, 58245, Note_on_c, 0, 81, 115
1, 58279, Note_off_c, 0, 81, 115
1, 58290, Note_on_c, 0, 79, 116
1, 58377, Note_off_c, 0, 79, 116
1, 58398, Note_on_c, 0, 77, 117
1, 58466, Note_off_c, 0, 77, 117
1, 58476, Note_on_c, 0, 76, 115
1, 58571, Note_off_c, 0, 76, 115
1, 58588, Note_on_c, 0, 75, 121
1, 58654, Note_off_c, 0, 75, 121
1, 58664, Note_on_c, 0, 74, 114
1, 58750, Note_off_c, 0, 74, 114
1, 58763, Note_on_c, 0, 73, 117
1, 58830, Note_off_c, 0, 73, 117
1, 58838, Note_on_c, 0, 72, 117
1, 58936, Note_off_c, 0, 72, 117
1, 58971, Note_on_c, 0, 64, 102
1, 59041, Note_off_c, 0, 64, 102
1, 59057, Note_on_c, 0, 65, 99
1, 59138, Note_off_c, 0, 65, 99
1, 59152, Note_on_c, 0, 71, 111
1, 59191, Note_off_c, 0, 71, 111
1, 59206, Note_on_c, 0, 69, 116
1, 59308, Note_off_c, 0, 69, 116
1, 59326, Note_on_c, 0, 67, 118
1, 59409, Note_off_c, 0, 67, 118
1, 59452, Note_on_c, 0, 65, 95
1, 59535, Note_off_c, 0, 65, 95
1, 59592, Note_on_c, 0, 67, 112
1, 59678, Note_off_c, 0, 67, 112
1, 59710, Note_on_c, 0, 64, 108
1, 59774, Note_off_c, 0, 64, 108
1, 59790, Note_on_c, 0, 65, 102
1, 59864, Note_off_c, 0, 65, 102
1, 59877, Note_on_c, 0, 67, 119
1, 59957, Note_off_c, 0, 67, 119
1, 59961, Note_on_c, 0, 68, 116
1, 60028, Note_off_c, 0, 68, 116
1, 60041, Note_on_c, 0, 69, 108
1, 60073, Note_off_c, 0, 69, 108
1, 60083, Note_on_c, 0, 68, 119
1, 60157, Note_off_c, 0, 68, 119
1, 60173, Note_on_c, 0, 67, 112
1, 60231, Note_off_c, 0, 67, 112
1, 60289, Note_on_c, 0, 65, 104
1, 60359, Note_off_c, 0, 65, 104
1, 60370, Note_on_c, 0, 68, 117
1, 60397, Note_off_c, 0, 68, 117
1, 60408, Note_on_c, 0, 69, 104
1, 60435, Note_off_c, 0, 69, 104
1, 60451, Note_on_c, 0, 68, 118
1, 60508, Note_off_c, 0, 68, 118
1, 60523, Note_on_c, 0, 67, 113
1, 60629, Note_off_c, 0, 67, 113
1, 60656, Note_on_c, 0, 65, 97
1, 60700, Note_off_c, 0, 65, 97
1, 60707, Note_on_c, 0, 68, 104
1, 60752, Note_off_c, 0, 68, 104
1, 60759, Note_on_c, 0, 69, 104
1, 60798, Note_off_c, 0, 69, 104
1, 60818, Note_on_c, 0, 68, 119
1, 60886, Note_off_c, 0, 68, 119
1, 60894, Note_on_c, 0, 67, 109
1, 61002, Note_off_c, 0, 67, 109
1, 61094, Note_on_c, 0, 72, 118
1, 61152, Note_off_c, 0, 72, 118
1, 61154, Note_on_c, 0, 74, 118
1, 61212, Note_off_c, 0, 74, 118
1, 61218, Note_on_c, 0, 72, 118
1, 61282, Note_off_c, 0, 72, 118
1, 61285, Note_on_c, 0, 71, 113
1, 61366, Note_off_c, 0, 71, 113
1, 61398, Note_on_c, 0, 69, 104
1, 61455, Note_off_c, 0, 69, 104
1, 61463, Note_on_c, 0, 70, 118
1, 61555, Note_off_c, 0, 70, 118
1, 61597, Note_on_c, 0, 61, 94
1, 61642, Note_off_c, 0, 61, 94
1, 61677, Note_on_c, 0, 65, 107
1, 61744, Note_off_c, 0, 65, 107
1, 61780, Note_on_c, 0, 69, 117
1, 61858, Note_off_c, 0, 69, 117
1, 61868, Note_on_c, 0, 67, 96
1, 62066, Note_off_c, 0, 67, 96
1, 63116, Note_on_c, 0, 85, 127
1, 63202, Note_off_c, 0, 85, 127
1, 63202, Note_on_c, 0, 84, 119
1, 63240, Note_off_c, 0, 84, 119
1, 63242, Note_on_c, 0, 82, 117
1, 63303, Note_off_c, 0, 82, 117
1, 63310, Note_on_c, 0, 81, 124
1, 63393, Note_off_c, 0, 81, 124
1, 63403, Note_on_c, 0, 80, 118
1, 63483, Note_off_c, 0, 80, 118
1, 63491, Note_on_c, 0, 79, 118
1, 63569, Note_off_c, 0, 79, 118
1, 63573, Note_on_c, 0, 78, 120
1, 63670, Note_off_c, 0, 78, 120
1, 63674, Note_on_c, 0, 77, 119
1, 63721, Note_off_c, 0, 77, 119
1, 63728, Note_on_c, 0, 75, 118
1, 63833, Note_off_c, 0, 75, 118
1, 63842, Note_on_c, 0, 73, 113
1, 63920, Note_off_c, 0, 73, 113
1, 63937, Note_on_c, 0, 72, 118
1, 64014, Note_off_c, 0, 72, 118
1, 64044, Note_on_c, 0, 70, 91
1, 64102, Note_off_c, 0, 70, 91
1, 64133, Note_on_c, 0, 71, 117
1, 64223, Note_off_c, 0, 71, 117
1, 64240, Note_on_c, 0, 69, 116
1, 64292, Note_off_c, 0, 69, 116
1, 64295, Note_on_c, 0, 68, 117
1, 64393, Note_off_c, 0, 68, 117
1, 64428, Note_on_c, 0, 66, 118
1, 64495, Note_off_c, 0, 66, 118
1, 64504, Note_on_c, 0, 65, 113
1, 64547, Note_off_c, 0, 65, 113
1, 64582, Note_on_c, 0, 72, 114
1, 64620, Note_off_c, 0, 72, 114
1, 64637, Note_on_c, 0, 74, 111
1, 64688, Note_off_c, 0, 74, 111
1, 64699, Note_on_c, 0, 75, 116
1, 64858, Note_off_c, 0, 75, 116
1, 64888, Note_on_c, 0, 73, 124
1, 64978, Note_off_c, 0, 73, 124
1, 64998, Note_on_c, 0, 68, 117
1, 65073, Note_off_c, 0, 68, 117
1, 65116, Note_on_c, 0, 64, 107
1, 65181, Note_off_c, 0, 64, 107
1, 65188, Note_on_c, 0, 65, 116
1, 65252, Note_off_c, 0, 65, 116
1, 65271, Note_on_c, 0, 62, 116
1, 65361, Note_off_c, 0, 62, 116
1, 65375, Note_on_c, 0, 65, 110
1, 65449, Note_off_c, 0, 65, 110
1, 65468, Note_on_c, 0, 69, 116
1, 65539, Note_off_c, 0, 69, 116
1, 65566, Note_on_c, 0, 72, 105
1, 65638, Note_off_c, 0, 72, 105
1, 65652, Note_on_c, 0, 74, 122
1, 65749, Note_off_c, 0, 74, 122
1, 65751, Note_on_c, 0, 73, 121
1, 65798, Note_off_c, 0, 73, 121
1, 65803, Note_on_c, 0, 72, 109
1, 65836, Note_off_c, 0, 72, 109
1, 65845, Note_on_c, 0, 71, 121
1, 65941, Note_off_c, 0, 71, 121
1, 65955, Note_on_c, 0, 67, 105
1, 66021, Note_off_c, 0, 67, 105
1, 66035, Note_on_c, 0, 70, 113
1, 66122, Note_off_c, 0, 70, 113
1, 66135, Note_on_c, 0, 58, 94
1, 66191, Note_off_c, 0, 58, 94
1, 66200, Note_on_c, 0, 63, 120
1, 66308, Note_off_c, 0, 63, 120
1, 66330, Note_on_c, 0, 65, 108
1, 66388, Note_off_c, 0, 65, 108
1, 66417, Note_on_c, 0, 66, 112
1, 66533, Note_off_c, 0, 66, 112
1, 66544, Note_on_c, 0, 68, 109
1, 66604, Note_off_c, 0, 68, 109
1, 66607, Note_on_c, 0, 70, 118
1, 66696, Note_off_c, 0, 70, 118
1, 66704, Note_on_c, 0, 69, 116
1, 66853, Note_off_c, 0, 69, 116
1, 66916, Note_on_c, 0, 80, 118
1, 67332, Note_off_c, 0, 80, 118
1, 67335, Note_on_c, 0, 78, 106
1, 67355, Note_off_c, 0, 78, 106
1, 67360, Note_on_c, 0, 79, 118
1, 67403, Note_off_c, 0, 79, 118
1, 67410, Note_on_c, 0, 78, 119
1, 67472, Note_off_c, 0, 78, 119
1, 67557, Note_on_c, 0, 77, 119
1, 67618, Note_off_c, 0, 77, 119
1, 67732, Note_on_c, 0, 72, 110
1, 67806, Note_off_c, 0, 72, 110
1, 67819, Note_on_c, 0, 77, 122
1, 67908, Note_off_c, 0, 77, 122
1, 67915, Note_on_c, 0, 76, 120
1, 68006, Note_off_c, 0, 76, 120
1, 68016, Note_on_c, 0, 74, 117
1, 68085, Note_off_c, 0, 74, 117
1, 68094, Note_on_c, 0, 73, 120
1, 68182, Note_off_c, 0, 73, 120
1, 68189, Note_on_c, 0, 71, 105
1, 68259, Note_off_c, 0, 71, 105
1, 68262, Note_on_c, 0, 70, 111
1, 68349, Note_off_c, 0, 70, 111
1, 68596, Note_on_c, 0, 70, 109
1, 68650, Note_off_c, 0, 70, 109
1, 68665, Note_on_c, 0, 73, 116
1, 68858, Note_off_c, 0, 73, 116
1, 68865, Note_on_c, 0, 71, 114
1, 68894, Note_off_c, 0, 71, 114
1, 68901, Note_on_c, 0, 72, 108
1, 68933, Note_off_c, 0, 72, 108
1, 68944, Note_on_c, 0, 71, 101
1, 68971, Note_off_c, 0, 71, 101
1, 68984, Note_on_c, 0, 69, 107
1, 69030, Note_off_c, 0, 69, 107
1, 69051, Note_on_c, 0, 68, 110
1, 69173, Note_off_c, 0, 68, 110
1, 69190, Note_on_c, 0, 65, 94
1, 69389, Note_off_c, 0, 65, 94
1, 69860, Note_on_c, 0, 80, 109
1, 69882, Note_off_c, 0, 80, 109
1, 69883, Note_on_c, 0, 81, 119
1, 69906, Note_off_c, 0, 81, 119
1, 69915, Note_on_c, 0, 80, 126
1, 69962, Note_off_c, 0, 80, 126
1, 69964, Note_on_c, 0, 79, 116
1, 70021, Note_off_c, 0, 79, 116
1, 70064, Note_on_c, 0, 77, 112
1, 70119, Note_off_c, 0, 77, 112
1, 70125, Note_on_c, 0, 76, 121
1, 70257, Note_off_c, 0, 76, 121
1, 70276, Note_on_c, 0, 72, 114
1, 70338, Note_off_c, 0, 72, 114
1, 70536, Note_on_c, 0, 77, 120
1, 70620, Note_off_c, 0, 77, 120
1, 70708, Note_on_c, 0, 72, 104
1, 70780, Note_off_c, 0, 72, 104
1, 70917, Note_on_c, 0, 77, 122
1, 70999, Note_off_c, 0, 77, 122
1, 71108, Note_on_c, 0, 72, 90
1, 71191, Note_off_c, 0, 72, 90
1, 71237, Note_on_c, 0, 77, 123
1, 71328, Note_off_c, 0, 77, 123
1, 71407, Note_on_c, 0, 72, 94
1, 71477, Note_off_c, 0, 72, 94
1, 71493, Note_on_c, 0, 77, 124
1, 71560, Note_off_c, 0, 77, 124
1, 71572, Note_on_c, 0, 77, 123
1, 71646, Note_off_c, 0, 77, 123
1, 71664, Note_on_c, 0, 76, 120
1, 71754, Note_off_c, 0, 76, 120
1, 71769, Note_on_c, 0, 77, 120
1, 71828, Note_off_c, 0, 77, 120
1, 71949, Note_on_c, 0, 75, 107
1, 72028, Note_off_c, 0, 75, 107
1, 72035, Note_on_c, 0, 77, 115
1, 72113, Note_off_c, 0, 77, 115
1, 72121, Note_on_c, 0, 76, 116
1, 72145, Note_off_c, 0, 76, 116
1, 72146, Note_on_c, 0, 77, 115
1, 72167, Note_off_c, 0, 77, 115
1, 72173, Note_on_c, 0, 79, 109
1, 72214, Note_off_c, 0, 79, 109
1, 72218, Note_on_c, 0, 80, 118
1, 72251, Note_off_c, 0, 80, 118
1, 72260, Note_on_c, 0, 81, 111
1, 72280, Note_off_c, 0, 81, 111
1, 72293, Note_on_c, 0, 80, 112
1, 72317, Note_off_c, 0, 80, 112
1, 72330, Note_on_c, 0, 81, 108
1, 72357, Note_off_c, 0, 81, 108
1, 72364, Note_on_c, 0, 80, 122
1, 72399, Note_off_c, 0, 80, 122
1, 72415, Note_on_c, 0, 79, 118
1, 72489, Note_off_c, 0, 79, 118
1, 72502, Note_on_c, 0, 77, 122
1, 72569, Note_off_c, 0, 77, 122
1, 72585, Note_on_c, 0, 75, 120
1, 72662, Note_off_c, 0, 75, 120
1, 72689, Note_on_c, 0, 74, 114
1, 72763, Note_off_c, 0, 74, 114
1, 72767, Note_on_c, 0, 72, 111
1, 72786, Note_off_c, 0, 72, 111
1, 72803, Note_on_c, 0, 74, 117
1, 72824, Note_off_c, 0, 74, 117
1, 72841, Note_on_c, 0, 72, 117
1, 72868, Note_off_c, 0, 72, 117
1, 72882, Note_on_c, 0, 71, 109
1, 72922, Note_off_c, 0, 71, 109
1, 72942, Note_on_c, 0, 68, 114
1, 73050, Note_off_c, 0, 68, 114
1, 73074, Note_on_c, 0, 67, 108
1, 73145, Note_off_c, 0, 67, 108
1, 73279, Note_on_c, 0, 62, 94
1, 73352, Note_off_c, 0, 62, 94
1, 73518, Note_on_c, 0, 65, 110
1, 73594, Note_off_c, 0, 65, 110
1, 73612, Note_on_c, 0, 67, 110
1, 73686, Note_off_c, 0, 67, 110
1, 73707, Note_on_c, 0, 69, 112
1, 73775, Note_off_c, 0, 69, 112
1, 73780, Note_on_c, 0, 70, 106
1, 73868, Note_off_c, 0, 70, 106
1, 73875, Note_on_c, 0, 72, 117
1, 73983, Note_off_c, 0, 72, 117
1, 73992, Note_on_c, 0, 73, 115
1, 74049, Note_off_c, 0, 73, 115
1, 74057, Note_on_c, 0, 74, 119
1, 74140, Note_off_c, 0, 74, 119
1, 74161, Note_on_c, 0, 70, 103
1, 74247, Note_off_c, 0, 70, 103
1, 74294, Note_on_c, 0, 67, 96
1, 74446, Note_off_c, 0, 67, 96
1, 74557, Note_on_c, 0, 65, 110
1, 74628, Note_off_c, 0, 65, 110
1, 74660, Note_on_c, 0, 64, 107
1, 74758, Note_off_c, 0, 64, 107
1, 74764, Note_on_c, 0, 61, 93
1, 74807, Note_off_c, 0, 61, 93
1, 74814, Note_on_c, 0, 67, 116
1, 74911, Note_off_c, 0, 67, 116
1, 74925, Note_on_c, 0, 64, 100
1, 74989, Note_off_c, 0, 64, 100
1, 75019, Note_on_c, 0, 65, 112
1, 75065, Note_off_c, 0, 65, 112
1, 75079, Note_on_c, 0, 64, 103
1, 75090, Note_off_c, 0, 64, 103
1, 75097, Note_on_c, 0, 65, 104
1, 75114, Note_off_c, 0, 65, 104
1, 75121, Note_on_c, 0, 64, 103
1, 75180, Note_off_c, 0, 64, 103
1, 75201, Note_on_c, 0, 62, 100
1, 75278, Note_off_c, 0, 62, 100
1, 75321, Note_on_c, 0, 65, 110
1, 75395, Note_off_c, 0, 65, 110
1, 75400, Note_on_c, 0, 69, 115
1, 75516, Note_off_c, 0, 69, 115
1, 75522, Note_on_c, 0, 72, 119
1, 75737, Note_off_c, 0, 72, 119
1, 75756, Note_on_c, 0, 68, 117
1, 75840, Note_off_c, 0, 68, 117
1, 75856, Note_on_c, 0, 65, 94
1, 75892, Note_off_c, 0, 65, 94
1, 75896, Note_on_c, 0, 64, 95
1, 75938, Note_off_c, 0, 64, 95
1, 75943, Note_on_c, 0, 61, 88
1, 76054, Note_off_c, 0, 61, 88
1, 76155, Note_on_c, 0, 67, 114
1, 76301, Note_off_c, 0, 67, 114
1, 76352, Note_on_c, 0, 64, 88
1, 76436, Note_off_c, 0, 64, 88
1, 76504, Note_on_c, 0, 65, 103
1, 76574, Note_off_c, 0, 65, 103
1, 76574, End_track
0, 0, End_of_file
