0, 0, Header, 1, 1, 192
1, 0, Start_track
1, 0, Title_t, "Melody"
1, 0, Tempo, 410958
1, 0, Key_signature, -2, "major"
1, 0, Time_signature, 4, 2, 24, 8
1, 2757, Note_on_c, 0, 65, 109
1, 2835, Note_off_c, 0, 65, 109
1, 2864, Note_on_c, 0, 67, 118
1, 2912, Note_off_c, 0, 67, 118
1, 2958, Note_on_c, 0, 69, 116
1, 3039, Note_off_c, 0, 69, 116
1, 3120, Note_on_c, 0, 70, 117
1, 3259, Note_off_c, 0, 70, 117
1, 3313, Note_on_c, 0, 77, 127
1, 3399, Note_off_c, 0, 77, 127
1, 3416, Note_on_c, 0, 77, 125
1, 3485, Note_off_c, 0, 77, 125
1, 3505, Note_on_c, 0, 76, 122
1, 3658, Note_off_c, 0, 76, 122
1, 3676, Note_on_c, 0, 77, 121
1, 3788, Note_off_c, 0, 77, 121
1, 3813, Note_on_c, 0, 72, 106
1, 3853, Note_off_c, 0, 72, 106
1, 3862, Note_on_c, 0, 74, 117
1, 3956, Note_off_c, 0, 74, 117
1, 4008, Note_on_c, 0, 70, 113
1, 4116, Note_off_c, 0, 70, 113
1, 4181, Note_on_c, 0, 70, 103
1, 4216, Note_off_c, 0, 70, 103
1, 4217, Note_on_c, 0, 69, 109
1, 4234, Note_off_c, 0, 69, 109
1, 4259, Note_on_c, 0, 65, 98
1, 4339, Note_off_c, 0, 65, 98
1, 4357, Note_on_c, 0, 67, 114
1, 4427, Note_off_c, 0, 67, 114
1, 4431, Note_on_c, 0, 69, 112
1, 4543, Note_off_c, 0, 69, 112
1, 4617, Note_on_c, 0, 70, 114
1, 4749, Note_off_c, 0, 70, 114
1, 4925, Note_on_c, 0, 77, 121
1, 5019, Note_off_c, 0, 77, 121
1, 5032, Note_on_c, 0, 76, 120
1, 5193, Note_off_c, 0, 76, 120
1, 5203, Note_on_c, 0, 77, 119
1, 5315, Note_off_c, 0, 77, 119
1, 5333, Note_on_c, 0, 73, 112
1, 5396, Note_off_c, 0, 73, 112
1, 5408, Note_on_c, 0, 74, 110
1, 5486, Note_off_c, 0, 74, 110
1, 5505, Note_on_c, 0, 70, 116
1, 5556, Note_off_c, 0, 70, 116
1, 5581, Note_on_c, 0, 67, 94
1, 5605, Note_off_c, 0, 67, 94
1, 5608, Note_on_c, 0, 68, 100
1, 5627, Note_off_c, 0, 68, 100
1, 5640, Note_on_c, 0, 67, 109
1, 5665, Note_off_c, 0, 67, 109
1, 5681, Note_on_c, 0, 65, 109
1, 5738, Note_off_c, 0, 65, 109
1, 5774, Note_on_c, 0, 65, 106
1, 5839, Note_off_c, 0, 65, 106
1, 5856, Note_on_c, 0, 69, 115
1, 5929, Note_off_c, 0, 69, 115
1, 5948, Note_on_c, 0, 72, 103
1, 5964, Note_off_c, 0, 72, 103
1, 5966, Note_on_c, 0, 73, 106
1, 5991, Note_off_c, 0, 73, 106
1, 5998, Note_on_c, 0, 71, 109
1, 6035, Note_off_c, 0, 71, 109
1, 6052, Note_on_c, 0, 69, 114
1, 6130, Note_off_c, 0, 69, 114
1, 6152, Note_on_c, 0, 70, 113
1, 6236, Note_off_c, 0, 70, 113
1, 6256, Note_on_c, 0, 67, 91
1, 6310, Note_off_c, 0, 67, 91
1, 6316, Note_on_c, 0, 68, 106
1, 6407, Note_off_c, 0, 68, 106
1, 6433, Note_on_c, 0, 70, 90
1, 6658, Note_off_c, 0, 70, 90
1, 7272, Note_on_c, 0, 66, 104
1, 7344, Note_off_c, 0, 66, 104
1, 7363, Note_on_c, 0, 67, 115
1, 7440, Note_off_c, 0, 67, 115
1, 7470, Note_on_c, 0, 70, 120
1, 7557, Note_off_c, 0, 70, 120
1, 7567, Note_on_c, 0, 74, 125
1, 7644, Note_off_c, 0, 74, 125
1, 7659, Note_on_c, 0, 76, 116
1, 7687, Note_off_c, 0, 76, 116
1, 7690, Note_on_c, 0, 77, 125
1, 7752, Note_off_c, 0, 77, 125
1, 7763, Note_on_c, 0, 76, 116
1, 7785, Note_off_c, 0, 76, 116
1, 7788, Note_on_c, 0, 77, 125
1, 7841, Note_off_c, 0, 77, 125
1, 7847, Note_on_c, 0, 76, 104
1, 7871, Note_off_c, 0, 76, 104
1, 7877, Note_on_c, 0, 77, 124
1, 7947, Note_off_c, 0, 77, 124
1, 7960, Note_on_c, 0, 75, 123
1, 8038, Note_off_c, 0, 75, 123
1, 8041, Note_on_c, 0, 73, 116
1, 8081, Note_off_c, 0, 73, 116
1, 8096, Note_on_c, 0, 72, 112
1, 8134, Note_off_c, 0, 72, 112
1, 8145, Note_on_c, 0, 70, 120
1, 8203, Note_off_c, 0, 70, 120
1, 8226, Note_on_c, 0, 68, 116
1, 8328, Note_off_c, 0, 68, 116
1, 8333, Note_on_c, 0, 65, 89
1, 8516, Note_off_c, 0, 65, 89
1, 9404, Note_on_c, 0, 84, 124
1, 9442, Note_off_c, 0, 84, 124
1, 9443, Note_on_c, 0, 83, 125
1, 9470, Note_off_c, 0, 83, 125
1, 9478, Note_on_c, 0, 81, 121
1, 9513, Note_off_c, 0, 81, 121
1, 9530, Note_on_c, 0, 77, 122
1, 9565, Note_off_c, 0, 77, 122
1, 9578, Note_on_c, 0, 75, 123
1, 9617, Note_off_c, 0, 75, 123
1, 9634, Note_on_c, 0, 73, 119
1, 9676, Note_off_c, 0, 73, 119
1, 9678, Note_on_c, 0, 74, 119
1, 9716, Note_off_c, 0, 74, 119
1, 9723, Note_on_c, 0, 70, 120
1, 9763, Note_off_c, 0, 70, 120
1, 9771, Note_on_c, 0, 67, 99
1, 9817, Note_off_c, 0, 67, 99
1, 9826, Note_on_c, 0, 65, 88
1, 9857, Note_off_c, 0, 65, 88
1, 9871, Note_on_c, 0, 73, 100
1, 9885, Note_off_c, 0, 73, 100
1, 9891, Note_on_c, 0, 74, 111
1, 9914, Note_off_c, 0, 74, 111
1, 9919, Note_on_c, 0, 72, 114
1, 9957, Note_off_c, 0, 72, 114
1, 9968, Note_on_c, 0, 70, 91
1, 9992, Note_off_c, 0, 70, 91
1, 9999, Note_on_c, 0, 69, 91
1, 10039, Note_off_c, 0, 69, 91
1, 10046, Note_on_c, 0, 70, 111
1, 10089, Note_off_c, 0, 70, 111
1, 10097, Note_on_c, 0, 69, 112
1, 10130, Note_off_c, 0, 69, 112
1, 10140, Note_on_c, 0, 67, 104
1, 10178, Note_off_c, 0, 67, 104
1, 10180, Note_on_c, 0, 66, 98
1, 10228, Note_off_c, 0, 66, 98
1, 10231, Note_on_c, 0, 65, 107
1, 10280, Note_off_c, 0, 65, 107
1, 10289, Note_on_c, 0, 62, 87
1, 10322, Note_off_c, 0, 62, 87
1, 10322, Note_on_c, 0, 63, 87
1, 10348, Note_off_c, 0, 63, 87
1, 10368, Note_on_c, 0, 65, 87
1, 10394, Note_off_c, 0, 65, 87
1, 10406, Note_on_c, 0, 67, 103
1, 10443, Note_off_c, 0, 67, 103
1, 10461, Note_on_c, 0, 63, 94
1, 10488, Note_off_c, 0, 63, 94
1, 10498, Note_on_c, 0, 61, 97
1, 10538, Note_off_c, 0, 61, 97
1, 10542, Note_on_c, 0, 59, 69
1, 10573, Note_off_c, 0, 59, 69
1, 10576, Note_on_c, 0, 60, 70
1, 10595, Note_off_c, 0, 60, 70
1, 10598, Note_on_c, 0, 65, 108
1, 10639, Note_off_c, 0, 65, 108
1, 10651, Note_on_c, 0, 62, 91
1, 10680, Note_off_c, 0, 62, 91
1, 10690, Note_on_c, 0, 63, 90
1, 10724, Note_off_c, 0, 63, 90
1, 10734, Note_on_c, 0, 65, 99
1, 10765, Note_off_c, 0, 65, 99
1, 10774, Note_on_c, 0, 67, 98
1, 10816, Note_off_c, 0, 67, 98
1, 10838, Note_on_c, 0, 70, 93
1, 10869, Note_off_c, 0, 70, 93
1, 10872, Note_on_c, 0, 74, 90
1, 10922, Note_off_c, 0, 74, 90
1, 10932, Note_on_c, 0, 73, 108
1, 10968, Note_off_c, 0, 73, 108
1, 10976, Note_on_c, 0, 72, 105
1, 11004, Note_off_c, 0, 72, 105
1, 11010, Note_on_c, 0, 70, 106
1, 11045, Note_off_c, 0, 70, 106
1, 11048, Note_on_c, 0, 69, 104
1, 11098, Note_off_c, 0, 69, 104
1, 11108, Note_on_c, 0, 72, 91
1, 11144, Note_off_c, 0, 72, 91
1, 11148, Note_on_c, 0, 75, 115
1, 11181, Note_off_c, 0, 75, 115
1, 11197, Note_on_c, 0, 79, 117
1, 11233, Note_off_c, 0, 79, 117
1, 11238, Note_on_c, 0, 78, 111
1, 11284, Note_off_c, 0, 78, 111
1, 11305, Note_on_c, 0, 77, 97
1, 11365, Note_off_c, 0, 77, 97
1, 11384, Note_on_c, 0, 74, 96
1, 11419, Note_off_c, 0, 74, 96
1, 11432, Note_on_c, 0, 75, 114
1, 11481, Note_off_c, 0, 75, 114
1, 11487, Note_on_c, 0, 67, 87
1, 11524, Note_off_c, 0, 67, 87
1, 11525, Note_on_c, 0, 68, 84
1, 11554, Note_off_c, 0, 68, 84
1, 11568, Note_on_c, 0, 74, 114
1, 11614, Note_off_c, 0, 74, 114
1, 11628, Note_on_c, 0, 72, 109
1, 11657, Note_off_c, 0, 72, 109
1, 11666, Note_on_c, 0, 70, 111
1, 11696, Note_off_c, 0, 70, 111
1, 11707, Note_on_c, 0, 69, 101
1, 11758, Note_off_c, 0, 69, 101
1, 11777, Note_on_c, 0, 72, 77
1, 11790, Note_off_c, 0, 72, 77
1, 11803, Note_on_c, 0, 75, 111
1, 11835, Note_off_c, 0, 75, 111
1, 11849, Note_on_c, 0, 79, 117
1, 11888, Note_off_c, 0, 79, 117
1, 11893, Note_on_c, 0, 78, 113
1, 11924, Note_off_c, 0, 78, 113
1, 11933, Note_on_c, 0, 76, 104
1, 11966, Note_off_c, 0, 76, 104
1, 11970, Note_on_c, 0, 77, 114
1, 12021, Note_off_c, 0, 77, 114
1, 12028, Note_on_c, 0, 75, 120
1, 12076, Note_off_c, 0, 75, 120
1, 12085, Note_on_c, 0, 74, 110
1, 12129, Note_off_c, 0, 74, 110
1, 12141, Note_on_c, 0, 72, 103
1, 12174, Note_off_c, 0, 72, 103
1, 12180, Note_on_c, 0, 71, 104
1, 12218, Note_off_c, 0, 71, 104
1, 12227, Note_on_c, 0, 69, 95
1, 12264, Note_off_c, 0, 69, 95
1, 12275, Note_on_c, 0, 70, 111
1, 12312, Note_off_c, 0, 70, 111
1, 12324, Note_on_c, 0, 68, 106
1, 12388, Note_off_c, 0, 68, 106
1, 12963, Note_on_c, 0, 66, 114
1, 13040, Note_off_c, 0, 66, 114
1, 13053, Note_on_c, 0, 67, 90
1, 13084, Note_off_c, 0, 67, 90
1, 13104, Note_on_c, 0, 70, 86
1, 13146, Note_off_c, 0, 70, 86
1, 13156, Note_on_c, 0, 74, 116
1, 13235, Note_off_c, 0, 74, 116
1, 13240, Note_on_c, 0, 77, 124
1, 13331, Note_off_c, 0, 77, 124
1, 13351, Note_on_c, 0, 75, 121
1, 13431, Note_off_c, 0, 75, 121
1, 13449, Note_on_c, 0, 72, 91
1, 13515, Note_off_c, 0, 72, 91
1, 13524, Note_on_c, 0, 73, 118
1, 13612, Note_off_c, 0, 73, 118
1, 13628, Note_on_c, 0, 74, 111
1, 13718, Note_off_c, 0, 74, 111
1, 13728, Note_on_c, 0, 70, 114
1, 13799, Note_off_c, 0, 70, 114
1, 13827, Note_on_c, 0, 67, 102
1, 13903, Note_off_c, 0, 67, 102
1, 13919, Note_on_c, 0, 66, 109
1, 13989, Note_off_c, 0, 66, 109
1, 14021, Note_on_c, 0, 65, 92
1, 14088, Note_off_c, 0, 65, 92
1, 14105, Note_on_c, 0, 69, 117
1, 14174, Note_off_c, 0, 69, 117
1, 14181, Note_on_c, 0, 72, 87
1, 14194, Note_off_c, 0, 72, 87
1, 14197, Note_on_c, 0, 74, 103
1, 14223, Note_off_c, 0, 74, 103
1, 14235, Note_on_c, 0, 72, 112
1, 14268, Note_off_c, 0, 72, 112
1, 14274, Note_on_c, 0, 71, 110
1, 14335, Note_off_c, 0, 71, 110
1, 14354, Note_on_c, 0, 70, 115
1, 14465, Note_off_c, 0, 70, 115
1, 14470, Note_on_c, 0, 69, 114
1, 14544, Note_off_c, 0, 69, 114
1, 14549, Note_on_c, 0, 68, 94
1, 14624, Note_off_c, 0, 68, 94
1, 14662, Note_on_c, 0, 75, 116
1, 14739, Note_off_c, 0, 75, 116
1, 14779, Note_on_c, 0, 79, 116
1, 14842, Note_off_c, 0, 79, 116
1, 14853, Note_on_c, 0, 78, 103
1, 14889, Note_off_c, 0, 78, 103
1, 14909, Note_on_c, 0, 77, 122
1, 14954, Note_off_c, 0, 77, 122
1, 14968, Note_on_c, 0, 76, 114
1, 15069, Note_off_c, 0, 76, 114
1, 15085, Note_on_c, 0, 70, 95
1, 15137, Note_off_c, 0, 70, 95
1, 15159, Note_on_c, 0, 75, 117
1, 15282, Note_off_c, 0, 75, 117
1, 15564, Note_on_c, 0, 82, 123
1, 15657, Note_off_c, 0, 82, 123
1, 15664, Note_on_c, 0, 81, 121
1, 15704, Note_off_c, 0, 81, 121
1, 15707, Note_on_c, 0, 80, 121
1, 15747, Note_off_c, 0, 80, 121
1, 15753, Note_on_c, 0, 79, 117
1, 15815, Note_off_c, 0, 79, 117
1, 15823, Note_on_c, 0, 77, 119
1, 15877, Note_off_c, 0, 77, 119
1, 15885, Note_on_c, 0, 75, 118
1, 15949, Note_off_c, 0, 75, 118
1, 15964, Note_on_c, 0, 74, 115
1, 16040, Note_off_c, 0, 74, 115
1, 16055, Note_on_c, 0, 73, 116
1, 16128, Note_off_c, 0, 73, 116
1, 16135, Note_on_c, 0, 72, 100
1, 16155, Note_off_c, 0, 72, 100
1, 16161, Note_on_c, 0, 73, 114
1, 16184, Note_off_c, 0, 73, 114
1, 16195, Note_on_c, 0, 72, 110
1, 16239, Note_off_c, 0, 72, 110
1, 16253, Note_on_c, 0, 71, 108
1, 16321, Note_off_c, 0, 71, 108
1, 16331, Note_on_c, 0, 70, 113
1, 16423, Note_off_c, 0, 70, 113
1, 16428, Note_on_c, 0, 68, 116
1, 16507, Note_off_c, 0, 68, 116
1, 16536, Note_on_c, 0, 65, 99
1, 16615, Note_off_c, 0, 65, 99
1, 16621, Note_on_c, 0, 66, 112
1, 16706, Note_off_c, 0, 66, 112
1, 16713, Note_on_c, 0, 67, 109
1, 16809, Note_off_c, 0, 67, 109
1, 16827, Note_on_c, 0, 65, 115
1, 16883, Note_off_c, 0, 65, 115
1, 16930, Note_on_c, 0, 62, 81
1, 16996, Note_off_c, 0, 62, 81
1, 17016, Note_on_c, 0, 63, 104
1, 17104, Note_off_c, 0, 63, 104
1, 17122, Note_on_c, 0, 64, 107
1, 17210, Note_off_c, 0, 64, 107
1, 17229, Note_on_c, 0, 73, 120
1, 17298, Note_off_c, 0, 73, 120
1, 17332, Note_on_c, 0, 70, 81
1, 17413, Note_off_c, 0, 70, 81
1, 17423, Note_on_c, 0, 71, 112
1, 17504, Note_off_c, 0, 71, 112
1, 17509, Note_on_c, 0, 72, 101
1, 17603, Note_off_c, 0, 72, 101
1, 17613, Note_on_c, 0, 68, 106
1, 17689, Note_off_c, 0, 68, 106
1, 17713, Note_on_c, 0, 65, 89
1, 17772, Note_off_c, 0, 65, 89
1, 17792, Note_on_c, 0, 63, 102
1, 17876, Note_off_c, 0, 63, 102
1, 17887, Note_on_c, 0, 62, 95
1, 17981, Note_off_c, 0, 62, 95
1, 18001, Note_on_c, 0, 71, 110
1, 18053, Note_off_c, 0, 71, 110
1, 18107, Note_on_c, 0, 68, 84
1, 18175, Note_off_c, 0, 68, 84
1, 18176, Note_on_c, 0, 69, 103
1, 18249, Note_off_c, 0, 69, 103
1, 18266, Note_on_c, 0, 70, 102
1, 18355, Note_off_c, 0, 70, 102
1, 18380, Note_on_c, 0, 67, 88
1, 18604, Note_off_c, 0, 67, 88
1, 19336, Note_on_c, 0, 78, 124
1, 19389, Note_off_c, 0, 78, 124
1, 19389, Note_on_c, 0, 79, 119
1, 19484, Note_off_c, 0, 79, 119
1, 19547, Note_on_c, 0, 74, 120
1, 19649, Note_off_c, 0, 74, 120
1, 19702, Note_on_c, 0, 77, 122
1, 19789, Note_off_c, 0, 77, 122
1, 19813, Note_on_c, 0, 75, 114
1, 19899, Note_off_c, 0, 75, 114
1, 19909, Note_on_c, 0, 74, 116
1, 19990, Note_off_c, 0, 74, 116
1, 19994, Note_on_c, 0, 72, 101
1, 20011, Note_off_c, 0, 72, 101
1, 20017, Note_on_c, 0, 74, 113
1, 20037, Note_off_c, 0, 74, 113
1, 20051, Note_on_c, 0, 72, 112
1, 20073, Note_off_c, 0, 72, 112
1, 20083, Note_on_c, 0, 71, 111
1, 20146, Note_off_c, 0, 71, 111
1, 20162, Note_on_c, 0, 70, 112
1, 20259, Note_off_c, 0, 70, 112
1, 20267, Note_on_c, 0, 68, 112
1, 20345, Note_off_c, 0, 68, 112
1, 20369, Note_on_c, 0, 65, 94
1, 20450, Note_off_c, 0, 65, 94
1, 20456, Note_on_c, 0, 66, 109
1, 20532, Note_off_c, 0, 66, 109
1, 20540, Note_on_c, 0, 67, 108
1, 20630, Note_off_c, 0, 67, 108
1, 20643, Note_on_c, 0, 65, 115
1, 20705, Note_off_c, 0, 65, 115
1, 20719, Note_on_c, 0, 63, 96
1, 20742, Note_off_c, 0, 63, 96
1, 20752, Note_on_c, 0, 64, 108
1, 20779, Note_off_c, 0, 64, 108
1, 20783, Note_on_c, 0, 63, 102
1, 20806, Note_off_c, 0, 63, 102
1, 20816, Note_on_c, 0, 62, 106
1, 20885, Note_off_c, 0, 62, 106
1, 20916, Note_on_c, 0, 63, 97
1, 21020, Note_off_c, 0, 63, 97
1, 21041, Note_on_c, 0, 76, 111
1, 21097, Note_off_c, 0, 76, 111
1, 21114, Note_on_c, 0, 73, 100
1, 21137, Note_off_c, 0, 73, 100
1, 21142, Note_on_c, 0, 74, 114
1, 21170, Note_off_c, 0, 74, 114
1, 21180, Note_on_c, 0, 73, 112
1, 21215, Note_off_c, 0, 73, 112
1, 21224, Note_on_c, 0, 71, 106
1, 21300, Note_off_c, 0, 71, 106
1, 21306, Note_on_c, 0, 72, 107
1, 21410, Note_off_c, 0, 72, 107
1, 21426, Note_on_c, 0, 70, 102
1, 21540, Note_off_c, 0, 70, 102
1, 21544, Note_on_c, 0, 69, 89
1, 21606, Note_off_c, 0, 69, 89
1, 21615, Note_on_c, 0, 70, 115
1, 21701, Note_off_c, 0, 70, 115
1, 21726, Note_on_c, 0, 74, 114
1, 21827, Note_off_c, 0, 74, 114
1, 21850, Note_on_c, 0, 77, 118
1, 21955, Note_off_c, 0, 77, 118
1, 22001, Note_on_c, 0, 74, 114
1, 22092, Note_off_c, 0, 74, 114
1, 22106, Note_on_c, 0, 75, 118
1, 22191, Note_off_c, 0, 75, 118
1, 22218, Note_on_c, 0, 67, 85
1, 22272, Note_off_c, 0, 67, 85
1, 22308, Note_on_c, 0, 70, 109
1, 22394, Note_off_c, 0, 70, 109
1, 22431, Note_on_c, 0, 74, 112
1, 22523, Note_off_c, 0, 74, 112
1, 22574, Note_on_c, 0, 73, 113
1, 22661, Note_off_c, 0, 73, 113
1, 22676, Note_on_c, 0, 69, 100
1, 22776, Note_off_c, 0, 69, 100
1, 22783, Note_on_c, 0, 65, 82
1, 22836, Note_off_c, 0, 65, 82
1, 22863, Note_on_c, 0, 72, 99
1, 22940, Note_off_c, 0, 72, 99
1, 22958, Note_on_c, 0, 69, 95
1, 22981, Note_off_c, 0, 69, 95
1, 22994, Note_on_c, 0, 65, 102
1, 23016, Note_off_c, 0, 65, 102
1, 23019, Note_on_c, 0, 64, 95
1, 23044, Note_off_c, 0, 64, 95
1, 23049, Note_on_c, 0, 62, 104
1, 23132, Note_off_c, 0, 62, 104
1, 23163, Note_on_c, 0, 61, 92
1, 23270, Note_off_c, 0, 61, 92
1, 23716, Note_on_c, 0, 60, 96
1, 23752, Note_off_c, 0, 60, 96
1, 23760, Note_on_c, 0, 62, 89
1, 23797, Note_off_c, 0, 62, 89
1, 23806, Note_on_c, 0, 63, 94
1, 23842, Note_off_c, 0, 63, 94
1, 23852, Note_on_c, 0, 65, 91
1, 23878, Note_off_c, 0, 65, 91
1, 23896, Note_on_c, 0, 67, 94
1, 23928, Note_off_c, 0, 67, 94
1, 23946, Note_on_c, 0, 70, 98
1, 23982, Note_off_c, 0, 70, 98
1, 23989, Note_on_c, 0, 73, 97
1, 24013, Note_off_c, 0, 73, 97
1, 24033, Note_on_c, 0, 69, 101
1, 24067, Note_off_c, 0, 69, 101
1, 24076, Note_on_c, 0, 72, 107
1, 24114, Note_off_c, 0, 72, 107
1, 24122, Note_on_c, 0, 70, 105
1, 24148, Note_off_c, 0, 70, 105
1, 24154, Note_on_c, 0, 69, 107
1, 24204, Note_off_c, 0, 69, 107
1, 24223, Note_on_c, 0, 72, 93
1, 24264, Note_off_c, 0, 72, 93
1, 24271, Note_on_c, 0, 75, 118
1, 24307, Note_off_c, 0, 75, 118
1, 24326, Note_on_c, 0, 79, 103
1, 24413, Note_off_c, 0, 79, 103
1, 24440, Note_on_c, 0, 77, 120
1, 24517, Note_off_c, 0, 77, 120
1, 25528, Note_on_c, 0, 82, 122
1, 25618, Note_off_c, 0, 82, 122
1, 25633, Note_on_c, 0, 82, 119
1, 25692, Note_off_c, 0, 82, 119
1, 25703, Note_on_c, 0, 80, 115
1, 25727, Note_off_c, 0, 80, 115
1, 25735, Note_on_c, 0, 79, 123
1, 25804, Note_off_c, 0, 79, 123
1, 25819, Note_on_c, 0, 78, 122
1, 25889, Note_off_c, 0, 78, 122
1, 25912, Note_on_c, 0, 77, 123
1, 26012, Note_off_c, 0, 77, 123
1, 26030, Note_on_c, 0, 69, 87
1, 26076, Note_off_c, 0, 69, 87
1, 26101, Note_on_c, 0, 70, 118
1, 26198, Note_off_c, 0, 70, 118
1, 26209, Note_on_c, 0, 75, 119
1, 26289, Note_off_c, 0, 75, 119
1, 26305, Note_on_c, 0, 74, 119
1, 26386, Note_off_c, 0, 74, 119
1, 26407, Note_on_c, 0, 70, 110
1, 26478, Note_off_c, 0, 70, 110
1, 26494, Note_on_c, 0, 67, 98
1, 26578, Note_off_c, 0, 67, 98
1, 26589, Note_on_c, 0, 65, 92
1, 26645, Note_off_c, 0, 65, 92
1, 26664, Note_on_c, 0, 71, 107
1, 26686, Note_off_c, 0, 71, 107
1, 26687, Note_on_c, 0, 72, 119
1, 26771, Note_off_c, 0, 72, 119
1, 26781, Note_on_c, 0, 70, 115
1, 26839, Note_off_c, 0, 70, 115
1, 26864, Note_on_c, 0, 69, 86
1, 26948, Note_off_c, 0, 69, 86
1, 26955, Note_on_c, 0, 70, 116
1, 27025, Note_off_c, 0, 70, 116
1, 27044, Note_on_c, 0, 74, 119
1, 27155, Note_off_c, 0, 74, 119
1, 27175, Note_on_c, 0, 77, 112
1, 27339, Note_off_c, 0, 77, 112
1, 27339, End_track
0, 0, End_of_file
