0, 0, Header, 1, 1, 192
1, 0, Start_track
1, 0, Title_t, "Melody"
1, 0, Tempo, 408163
1, 0, Key_signature, -2, "major"
1, 0, Time_signature, 4, 2, 24, 8
1, 2246, Note_on_c, 0, 79, 117
1, 2347, Note_off_c, 0, 79, 117
1, 2389, Note_on_c, 0, 79, 115
1, 2460, Note_off_c, 0, 79, 115
1, 2523, Note_on_c, 0, 74, 121
1, 2619, Note_off_c, 0, 74, 121
1, 2636, Note_on_c, 0, 77, 111
1, 2828, Note_off_c, 0, 77, 111
1, 3131, Note_on_c, 0, 75, 121
1, 3197, Note_off_c, 0, 75, 121
1, 3269, Note_on_c, 0, 77, 120
1, 3356, Note_off_c, 0, 77, 120
1, 3369, Note_on_c, 0, 75, 120
1, 3460, Note_off_c, 0, 75, 120
1, 3477, Note_on_c, 0, 74, 116
1, 3553, Note_off_c, 0, 74, 116
1, 3568, Note_on_c, 0, 72, 115
1, 3679, Note_off_c, 0, 72, 115
1, 3721, Note_on_c, 0, 73, 109
1, 3756, Note_off_c, 0, 73, 109
1, 3765, Note_on_c, 0, 74, 118
1, 3848, Note_off_c, 0, 74, 118
1, 3891, Note_on_c, 0, 74, 119
1, 3972, Note_off_c, 0, 74, 119
1, 4055, Note_on_c, 0, 69, 119
1, 4115, Note_off_c, 0, 69, 119
1, 4149, Note_on_c, 0, 72, 92
1, 4173, Note_off_c, 0, 72, 92
1, 4178, Note_on_c, 0, 74, 118
1, 4197, Note_off_c, 0, 74, 118
1, 4204, Note_on_c, 0, 72, 111
1, 4254, Note_off_c, 0, 72, 111
1, 4260, Note_on_c, 0, 70, 116
1, 4336, Note_off_c, 0, 70, 116
1, 4349, Note_on_c, 0, 69, 111
1, 4373, Note_off_c, 0, 69, 111
1, 4375, Note_on_c, 0, 70, 113
1, 4402, Note_off_c, 0, 70, 113
1, 4406, Note_on_c, 0, 69, 111
1, 4427, Note_off_c, 0, 69, 111
1, 4444, Note_on_c, 0, 67, 113
1, 4516, Note_off_c, 0, 67, 113
1, 4530, Note_on_c, 0, 65, 113
1, 4612, Note_off_c, 0, 65, 113
1, 4636, Note_on_c, 0, 62, 89
1, 4685, Note_off_c, 0, 62, 89
1, 4692, Note_on_c, 0, 63, 92
1, 4730, Note_off_c, 0, 63, 92
1, 4754, Note_on_c, 0, 67, 91
1, 4784, Note_off_c, 0, 67, 91
1, 4797, Note_on_c, 0, 70, 120
1, 4868, Note_off_c, 0, 70, 120
1, 4886, Note_on_c, 0, 74, 119
1, 4970, Note_off_c, 0, 74, 119
1, 4984, Note_on_c, 0, 77, 115
1, 5052, Note_off_c, 0, 77, 115
1, 5062, Note_on_c, 0, 75, 109
1, 5163, Note_off_c, 0, 75, 109
1, 5180, Note_on_c, 0, 72, 84
1, 5209, Note_off_c, 0, 72, 84
1, 5245, Note_on_c, 0, 74, 117
1, 5342, Note_off_c, 0, 74, 117
1, 5358, Note_on_c, 0, 70, 112
1, 5429, Note_off_c, 0, 70, 112
1, 5435, Note_on_c, 0, 69, 97
1, 5455, Note_off_c, 0, 69, 97
1, 5460, Note_on_c, 0, 70, 105
1, 5485, Note_off_c, 0, 70, 105
1, 5489, Note_on_c, 0, 69, 102
1, 5517, Note_off_c, 0, 69, 102
1, 5533, Note_on_c, 0, 67, 110
1, 5605, Note_off_c, 0, 67, 110
1, 5615, Note_on_c, 0, 68, 109
1, 5726, Note_off_c, 0, 68, 109
1, 5755, Note_on_c, 0, 79, 102
1, 5913, Note_off_c, 0, 79, 102
1, 6265, Note_on_c, 0, 77, 116
1, 6310, Note_off_c, 0, 77, 116
1, 6317, Note_on_c, 0, 76, 115
1, 6358, Note_off_c, 0, 76, 115
1, 6367, Note_on_c, 0, 75, 87
1, 6384, Note_off_c, 0, 75, 87
1, 6392, Note_on_c, 0, 74, 105
1, 6441, Note_off_c, 0, 74, 105
1, 6444, Note_on_c, 0, 72, 90
1, 6467, Note_off_c, 0, 72, 90
1, 6471, Note_on_c, 0, 68, 89
1, 6491, Note_off_c, 0, 68, 89
1, 6492, Note_on_c, 0, 70, 90
1, 6517, Note_off_c, 0, 70, 90
1, 6529, Note_on_c, 0, 74, 108
1, 6574, Note_off_c, 0, 74, 108
1, 6576, Note_on_c, 0, 73, 101
1, 6614, Note_off_c, 0, 73, 101
1, 6617, Note_on_c, 0, 72, 103
1, 6658, Note_off_c, 0, 72, 103
1, 6661, Note_on_c, 0, 70, 116
1, 6698, Note_off_c, 0, 70, 116
1, 6701, Note_on_c, 0, 69, 110
1, 6729, Note_off_c, 0, 69, 110
1, 6734, Note_on_c, 0, 70, 97
1, 6769, Note_off_c, 0, 70, 97
1, 6772, Note_on_c, 0, 71, 88
1, 6792, Note_off_c, 0, 71, 88
1, 6795, Note_on_c, 0, 72, 103
1, 6849, Note_off_c, 0, 72, 103
1, 6857, Note_on_c, 0, 69, 95
1, 6897, Note_off_c, 0, 69, 95
1, 6901, Note_on_c, 0, 70, 115
1, 6942, Note_off_c, 0, 70, 115
1, 6950, Note_on_c, 0, 68, 114
1, 6992, Note_off_c, 0, 68, 114
1, 6995, Note_on_c, 0, 67, 103
1, 7030, Note_off_c, 0, 67, 103
1, 7039, Note_on_c, 0, 65, 89
1, 7086, Note_off_c, 0, 65, 89
1, 7090, Note_on_c, 0, 69, 106
1, 7114, Note_on_c, 0, 70, 110
1, 7114, Note_off_c, 0, 69, 106
1, 7136, Note_off_c, 0, 70, 110
1, 7138, Note_on_c, 0, 69, 107
1, 7163, Note_off_c, 0, 69, 107
1, 7170, Note_on_c, 0, 67, 105
1, 7217, Note_off_c, 0, 67, 105
1, 7219, Note_on_c, 0, 65, 107
1, 7255, Note_off_c, 0, 65, 107
1, 7260, Note_on_c, 0, 63, 95
1, 7303, Note_off_c, 0, 63, 95
1, 7311, Note_on_c, 0, 62, 93
1, 7355, Note_off_c, 0, 62, 93
1, 7366, Note_on_c, 0, 65, 93
1, 7397, Note_off_c, 0, 65, 93
1, 7413, Note_on_c, 0, 69, 88
1, 7449, Note_off_c, 0, 69, 88
1, 7458, Note_on_c, 0, 72, 109
1, 7503, Note_off_c, 0, 72, 109
1, 7511, Note_on_c, 0, 69, 97
1, 7556, Note_off_c, 0, 69, 97
1, 7602, Note_on_c, 0, 72, 116
1, 7644, Note_off_c, 0, 72, 116
1, 7652, Note_on_c, 0, 73, 107
1, 7689, Note_off_c, 0, 73, 107
1, 7698, Note_on_c, 0, 74, 106
1, 7741, Note_off_c, 0, 74, 106
1, 7752, Note_on_c, 0, 79, 114
1, 7785, Note_off_c, 0, 79, 114
1, 7791, Note_on_c, 0, 75, 101
1, 7815, Note_off_c, 0, 75, 101
1, 7820, Note_on_c, 0, 73, 101
1, 7848, Note_off_c, 0, 73, 101
1, 7852, Note_on_c, 0, 77, 108
1, 7903, Note_off_c, 0, 77, 108
1, 7915, Note_on_c, 0, 74, 75
1, 7935, Note_off_c, 0, 74, 75
1, 8007, Note_on_c, 0, 75, 115
1, 8043, Note_off_c, 0, 75, 115
1, 8062, Note_on_c, 0, 75, 96
1, 8135, Note_off_c, 0, 75, 96
1, 8149, Note_on_c, 0, 72, 102
1, 8198, Note_off_c, 0, 72, 102
1, 8226, Note_on_c, 0, 65, 106
1, 8257, Note_off_c, 0, 65, 106
1, 8262, Note_on_c, 0, 70, 108
1, 8345, Note_off_c, 0, 70, 108
1, 9029, Note_on_c, 0, 77, 119
1, 9107, Note_off_c, 0, 77, 119
1, 9213, Note_on_c, 0, 79, 119
1, 9322, Note_off_c, 0, 79, 119
1, 9361, Note_on_c, 0, 82, 119
1, 9487, Note_off_c, 0, 82, 119
1, 9513, Note_on_c, 0, 86, 123
1, 9593, Note_off_c, 0, 86, 123
1, 9609, Note_on_c, 0, 81, 111
1, 9705, Note_off_c, 0, 81, 111
1, 9714, Note_on_c, 0, 84, 119
1, 9785, Note_off_c, 0, 84, 119
1, 9794, Note_on_c, 0, 82, 118
1, 9902, Note_off_c, 0, 82, 118
1, 9902, Note_on_c, 0, 65, 90
1, 9956, Note_off_c, 0, 65, 90
1, 9977, Note_on_c, 0, 77, 120
1, 10092, Note_off_c, 0, 77, 120
1, 10112, Note_on_c, 0, 81, 117
1, 10209, Note_off_c, 0, 81, 117
1, 10218, Note_on_c, 0, 86, 123
1, 10248, Note_off_c, 0, 86, 123
1, 10252, Note_on_c, 0, 89, 104
1, 10290, Note_off_c, 0, 89, 104
1, 10313, Note_on_c, 0, 79, 117
1, 10373, Note_off_c, 0, 79, 117
1, 10374, Note_on_c, 0, 77, 119
1, 10463, Note_off_c, 0, 77, 119
1, 10471, Note_on_c, 0, 76, 120
1, 10539, Note_off_c, 0, 76, 120
1, 10552, Note_on_c, 0, 75, 121
1, 10658, Note_off_c, 0, 75, 121
1, 10746, Note_on_c, 0, 70, 119
1, 10830, Note_off_c, 0, 70, 119
1, 10856, Note_on_c, 0, 73, 116
1, 10920, Note_off_c, 0, 73, 116
1, 10928, Note_on_c, 0, 74, 110
1, 11010, Note_off_c, 0, 74, 110
1, 11023, Note_on_c, 0, 70, 111
1, 11085, Note_off_c, 0, 70, 111
1, 11109, Note_on_c, 0, 67, 107
1, 11191, Note_off_c, 0, 67, 107
1, 11203, Note_on_c, 0, 65, 92
1, 11261, Note_off_c, 0, 65, 92
1, 11278, Note_on_c, 0, 69, 114
1, 11376, Note_off_c, 0, 69, 114
1, 11390, Note_on_c, 0, 70, 111
1, 11461, Note_off_c, 0, 70, 111
1, 11468, Note_on_c, 0, 72, 106
1, 11564, Note_off_c, 0, 72, 106
1, 11582, Note_on_c, 0, 68, 95
1, 11788, Note_off_c, 0, 68, 95
1, 12387, Note_on_c, 0, 77, 119
1, 12500, Note_off_c, 0, 77, 119
1, 12513, Note_on_c, 0, 79, 109
1, 12584, Note_off_c, 0, 79, 109
1, 12596, Note_on_c, 0, 82, 116
1, 12721, Note_off_c, 0, 82, 116
1, 12745, Note_on_c, 0, 86, 127
1, 12853, Note_off_c, 0, 86, 127
1, 12894, Note_on_c, 0, 82, 115
1, 12978, Note_off_c, 0, 82, 115
1, 13008, Note_on_c, 0, 80, 100
1, 13056, Note_off_c, 0, 80, 100
1, 13063, Note_on_c, 0, 84, 110
1, 13090, Note_off_c, 0, 84, 110
1, 13121, Note_on_c, 0, 79, 111
1, 13178, Note_off_c, 0, 79, 111
1, 13192, Note_on_c, 0, 77, 121
1, 13284, Note_off_c, 0, 77, 121
1, 13294, Note_on_c, 0, 75, 121
1, 13357, Note_off_c, 0, 75, 121
1, 13362, Note_on_c, 0, 74, 113
1, 13434, Note_off_c, 0, 74, 113
1, 13474, Note_on_c, 0, 73, 118
1, 13526, Note_off_c, 0, 73, 118
1, 13534, Note_on_c, 0, 74, 119
1, 13578, Note_off_c, 0, 74, 119
1, 13596, Note_on_c, 0, 70, 119
1, 13635, Note_off_c, 0, 70, 119
1, 13642, Note_on_c, 0, 69, 112
1, 13692, Note_off_c, 0, 69, 112
1, 13731, Note_on_c, 0, 68, 108
1, 13774, Note_off_c, 0, 68, 108
1, 13784, Note_on_c, 0, 70, 102
1, 13817, Note_off_c, 0, 70, 102
1, 13822, Note_on_c, 0, 72, 106
1, 13861, Note_off_c, 0, 72, 106
1, 13875, Note_on_c, 0, 75, 113
1, 13912, Note_off_c, 0, 75, 113
1, 13914, Note_on_c, 0, 79, 106
1, 13931, Note_off_c, 0, 79, 106
1, 13933, Note_on_c, 0, 80, 106
1, 13962, Note_off_c, 0, 80, 106
1, 13965, Note_on_c, 0, 79, 96
1, 13985, Note_off_c, 0, 79, 96
1, 13995, Note_on_c, 0, 77, 113
1, 14045, Note_off_c, 0, 77, 113
1, 14051, Note_on_c, 0, 75, 116
1, 14090, Note_off_c, 0, 75, 116
1, 14095, Note_on_c, 0, 74, 112
1, 14133, Note_off_c, 0, 74, 112
1, 14133, Note_on_c, 0, 77, 117
1, 14179, Note_off_c, 0, 77, 117
1, 14185, Note_on_c, 0, 76, 109
1, 14221, Note_off_c, 0, 76, 109
1, 14227, Note_on_c, 0, 74, 100
1, 14262, Note_off_c, 0, 74, 100
1, 14268, Note_on_c, 0, 75, 110
1, 14323, Note_off_c, 0, 75, 110
1, 14329, Note_on_c, 0, 67, 91
1, 14363, Note_off_c, 0, 67, 91
1, 14373, Note_on_c, 0, 70, 94
1, 14401, Note_off_c, 0, 70, 94
1, 14409, Note_on_c, 0, 73, 116
1, 14443, Note_off_c, 0, 73, 116
1, 14445, Note_on_c, 0, 74, 110
1, 14498, Note_off_c, 0, 74, 110
1, 14513, Note_on_c, 0, 71, 107
1, 14558, Note_off_c, 0, 71, 107
1, 14560, Note_on_c, 0, 69, 92
1, 14596, Note_off_c, 0, 69, 92
1, 14637, Note_on_c, 0, 68, 111
1, 14682, Note_off_c, 0, 68, 111
1, 14686, Note_on_c, 0, 72, 110
1, 14723, Note_off_c, 0, 72, 110
1, 14727, Note_on_c, 0, 68, 84
1, 14758, Note_off_c, 0, 68, 84
1, 14786, Note_on_c, 0, 64, 96
1, 14816, Note_off_c, 0, 64, 96
1, 14826, Note_on_c, 0, 65, 112
1, 14866, Note_off_c, 0, 65, 112
1, 14872, Note_on_c, 0, 63, 84
1, 14904, Note_off_c, 0, 63, 84
1, 14911, Note_on_c, 0, 64, 97
1, 14957, Note_off_c, 0, 64, 97
1, 15029, Note_on_c, 0, 62, 104
1, 15056, Note_off_c, 0, 62, 104
1, 15062, Note_on_c, 0, 63, 105
1, 15089, Note_off_c, 0, 63, 105
1, 15094, Note_on_c, 0, 65, 105
1, 15133, Note_off_c, 0, 65, 105
1, 15147, Note_on_c, 0, 67, 110
1, 15194, Note_off_c, 0, 67, 110
1, 15198, Note_on_c, 0, 68, 102
1, 15235, Note_off_c, 0, 68, 102
1, 15241, Note_on_c, 0, 70, 112
1, 15272, Note_off_c, 0, 70, 112
1, 15281, Note_on_c, 0, 72, 107
1, 15312, Note_off_c, 0, 72, 107
1, 15319, Note_on_c, 0, 75, 105
1, 15353, Note_off_c, 0, 75, 105
1, 15377, Note_on_c, 0, 80, 110
1, 15415, Note_off_c, 0, 80, 110
1, 15424, Note_on_c, 0, 79, 104
1, 15455, Note_off_c, 0, 79, 104
1, 15463, Note_on_c, 0, 77, 105
1, 15498, Note_off_c, 0, 77, 105
1, 15507, Note_on_c, 0, 75, 116
1, 15542, Note_off_c, 0, 75, 116
1, 15550, Note_on_c, 0, 74, 120
1, 15588, Note_off_c, 0, 74, 120
1, 15595, Note_on_c, 0, 75, 112
1, 15631, Note_off_c, 0, 75, 112
1, 15637, Note_on_c, 0, 76, 95
1, 15666, Note_off_c, 0, 76, 95
1, 15670, Note_on_c, 0, 77, 114
1, 15710, Note_off_c, 0, 77, 114
1, 15722, Note_on_c, 0, 74, 107
1, 15749, Note_off_c, 0, 74, 107
1, 15755, Note_on_c, 0, 75, 118
1, 15810, Note_off_c, 0, 75, 118
1, 15823, Note_on_c, 0, 67, 97
1, 15859, Note_off_c, 0, 67, 97
1, 15866, Note_on_c, 0, 70, 95
1, 15897, Note_off_c, 0, 70, 95
1, 15905, Note_on_c, 0, 73, 116
1, 15935, Note_off_c, 0, 73, 116
1, 15939, Note_on_c, 0, 74, 116
1, 15985, Note_off_c, 0, 74, 116
1, 15993, Note_on_c, 0, 71, 114
1, 16037, Note_off_c, 0, 71, 114
1, 16049, Note_on_c, 0, 70, 97
1, 16074, Note_off_c, 0, 70, 97
1, 16086, Note_on_c, 0, 69, 108
1, 16116, Note_off_c, 0, 69, 108
1, 16122, Note_on_c, 0, 68, 107
1, 16158, Note_off_c, 0, 68, 107
1, 16170, Note_on_c, 0, 72, 117
1, 16200, Note_off_c, 0, 72, 117
1, 16227, Note_on_c, 0, 67, 102
1, 16258, Note_off_c, 0, 67, 102
1, 16265, Note_on_c, 0, 64, 93
1, 16297, Note_off_c, 0, 64, 93
1, 16309, Note_on_c, 0, 65, 112
1, 16345, Note_off_c, 0, 65, 112
1, 16375, Note_on_c, 0, 60, 99
1, 16413, Note_off_c, 0, 60, 99
1, 16420, Note_on_c, 0, 63, 112
1, 16457, Note_off_c, 0, 63, 112
1, 16481, Note_on_c, 0, 61, 82
1, 16512, Note_off_c, 0, 61, 82
1, 16523, Note_on_c, 0, 63, 104
1, 16555, Note_off_c, 0, 63, 104
1, 16560, Note_on_c, 0, 64, 103
1, 16580, Note_off_c, 0, 64, 103
1, 16591, Note_on_c, 0, 65, 108
1, 16639, Note_off_c, 0, 65, 108
1, 16657, Note_on_c, 0, 67, 110
1, 16693, Note_off_c, 0, 67, 110
1, 16699, Note_on_c, 0, 68, 104
1, 16744, Note_off_c, 0, 68, 104
1, 16757, Note_on_c, 0, 70, 105
1, 16797, Note_off_c, 0, 70, 105
1, 16804, Note_on_c, 0, 72, 108
1, 16841, Note_off_c, 0, 72, 108
1, 16850, Note_on_c, 0, 68, 114
1, 16878, Note_off_c, 0, 68, 114
1, 16890, Note_on_c, 0, 67, 107
1, 16924, Note_off_c, 0, 67, 107
1, 16949, Note_on_c, 0, 65, 101
1, 16976, Note_off_c, 0, 65, 101
1, 16982, Note_on_c, 0, 70, 114
1, 17027, Note_off_c, 0, 70, 114
1, 17037, Note_on_c, 0, 68, 112
1, 17063, Note_off_c, 0, 68, 112
1, 17068, Note_on_c, 0, 67, 108
1, 17102, Note_off_c, 0, 67, 108
1, 17112, Note_on_c, 0, 65, 112
1, 17155, Note_off_c, 0, 65, 112
1, 17161, Note_on_c, 0, 64, 109
1, 17176, Note_off_c, 0, 64, 109
1, 17193, Note_on_c, 0, 61, 98
1, 17244, Note_off_c, 0, 61, 98
1, 17248, Note_on_c, 0, 63, 108
1, 17304, Note_off_c, 0, 63, 108
1, 17308, Note_on_c, 0, 60, 83
1, 17335, Note_off_c, 0, 60, 83
1, 17343, Note_on_c, 0, 61, 102
1, 17404, Note_off_c, 0, 61, 102
1, 18195, Note_on_c, 0, 72, 111
1, 18259, Note_off_c, 0, 72, 111
1, 18269, Note_on_c, 0, 75, 90
1, 18286, Note_off_c, 0, 75, 90
1, 18296, Note_on_c, 0, 79, 123
1, 18361, Note_off_c, 0, 79, 123
1, 18384, Note_on_c, 0, 82, 122
1, 18497, Note_off_c, 0, 82, 122
1, 18504, Note_on_c, 0, 81, 117
1, 18568, Note_off_c, 0, 81, 117
1, 18580, Note_on_c, 0, 80, 111
1, 18628, Note_off_c, 0, 80, 111
1, 18632, Note_on_c, 0, 82, 111
1, 18666, Note_off_c, 0, 82, 111
1, 18674, Note_on_c, 0, 80, 99
1, 18693, Note_off_c, 0, 80, 99
1, 18699, Note_on_c, 0, 79, 122
1, 18775, Note_off_c, 0, 79, 122
1, 18786, Note_on_c, 0, 77, 120
1, 18889, Note_off_c, 0, 77, 120
1, 18897, Note_on_c, 0, 75, 119
1, 18992, Note_off_c, 0, 75, 119
1, 19000, Note_on_c, 0, 74, 115
1, 19093, Note_off_c, 0, 74, 115
1, 19097, Note_on_c, 0, 72, 111
1, 19189, Note_off_c, 0, 72, 111
1, 19195, Note_on_c, 0, 70, 113
1, 19298, Note_off_c, 0, 70, 113
1, 19304, Note_on_c, 0, 69, 116
1, 19344, Note_off_c, 0, 69, 116
1, 19355, Note_on_c, 0, 68, 103
1, 19462, Note_off_c, 0, 68, 103
1, 19472, Note_on_c, 0, 70, 114
1, 19561, Note_off_c, 0, 70, 114
1, 19568, Note_on_c, 0, 67, 105
1, 19670, Note_off_c, 0, 67, 105
1, 19676, Note_on_c, 0, 65, 110
1, 19740, Note_off_c, 0, 65, 110
1, 19752, Note_on_c, 0, 63, 113
1, 19788, Note_off_c, 0, 63, 113
1, 19788, Note_on_c, 0, 65, 111
1, 19812, Note_off_c, 0, 65, 111
1, 19818, Note_on_c, 0, 63, 114
1, 19848, Note_off_c, 0, 63, 114
1, 19867, Note_on_c, 0, 62, 109
1, 19937, Note_off_c, 0, 62, 109
1, 19949, Note_on_c, 0, 63, 105
1, 20039, Note_off_c, 0, 63, 105
1, 20084, Note_on_c, 0, 74, 113
1, 20149, Note_off_c, 0, 74, 113
1, 20155, Note_on_c, 0, 73, 109
1, 20172, Note_off_c, 0, 73, 109
1, 20175, Note_on_c, 0, 74, 110
1, 20206, Note_off_c, 0, 74, 110
1, 20211, Note_on_c, 0, 73, 109
1, 20236, Note_off_c, 0, 73, 109
1, 20248, Note_on_c, 0, 71, 115
1, 20337, Note_off_c, 0, 71, 115
1, 20352, Note_on_c, 0, 72, 112
1, 20496, Note_off_c, 0, 72, 112
1, 20536, Note_on_c, 0, 70, 115
1, 20641, Note_off_c, 0, 70, 115
1, 20726, Note_on_c, 0, 77, 116
1, 20822, Note_off_c, 0, 77, 116
1, 20829, Note_on_c, 0, 74, 120
1, 20915, Note_off_c, 0, 74, 120
1, 20923, Note_on_c, 0, 69, 119
1, 21028, Note_off_c, 0, 69, 119
1, 21062, Note_on_c, 0, 65, 105
1, 21105, Note_off_c, 0, 65, 105
1, 21116, Note_on_c, 0, 67, 119
1, 21216, Note_off_c, 0, 67, 119
1, 21236, Note_on_c, 0, 62, 107
1, 21308, Note_off_c, 0, 62, 107
1, 21330, Note_on_c, 0, 60, 99
1, 21410, Note_off_c, 0, 60, 99
1, 21422, Note_on_c, 0, 65, 97
1, 21581, Note_off_c, 0, 65, 97
1, 22220, Note_on_c, 0, 77, 120
1, 22265, Note_off_c, 0, 77, 120
1, 22275, Note_on_c, 0, 75, 114
1, 22299, Note_off_c, 0, 75, 114
1, 22309, Note_on_c, 0, 74, 108
1, 22341, Note_off_c, 0, 74, 108
1, 22356, Note_on_c, 0, 72, 112
1, 22398, Note_off_c, 0, 72, 112
1, 22401, Note_on_c, 0, 71, 104
1, 22435, Note_off_c, 0, 71, 104
1, 22446, Note_on_c, 0, 80, 113
1, 22480, Note_off_c, 0, 80, 113
1, 22488, Note_on_c, 0, 78, 114
1, 22506, Note_off_c, 0, 78, 114
1, 22508, Note_on_c, 0, 77, 116
1, 22538, Note_off_c, 0, 77, 116
1, 22541, Note_on_c, 0, 76, 104
1, 22585, Note_off_c, 0, 76, 104
1, 22590, Note_on_c, 0, 79, 117
1, 22635, Note_off_c, 0, 79, 117
1, 22645, Note_on_c, 0, 75, 116
1, 22690, Note_off_c, 0, 75, 116
1, 22699, Note_on_c, 0, 74, 108
1, 22739, Note_off_c, 0, 74, 108
1, 22747, Note_on_c, 0, 72, 92
1, 22780, Note_off_c, 0, 72, 92
1, 22789, Note_on_c, 0, 77, 113
1, 22832, Note_off_c, 0, 77, 113
1, 22836, Note_on_c, 0, 76, 116
1, 22883, Note_off_c, 0, 76, 116
1, 22883, Note_on_c, 0, 75, 113
1, 22915, Note_off_c, 0, 75, 113
1, 22926, Note_on_c, 0, 67, 95
1, 22961, Note_off_c, 0, 67, 95
1, 22977, Note_on_c, 0, 73, 110
1, 23007, Note_off_c, 0, 73, 110
1, 23011, Note_on_c, 0, 74, 90
1, 23022, Note_off_c, 0, 74, 90
1, 23024, Note_on_c, 0, 73, 114
1, 23047, Note_off_c, 0, 73, 114
1, 23053, Note_on_c, 0, 74, 111
1, 23096, Note_off_c, 0, 74, 111
1, 23105, Note_on_c, 0, 70, 117
1, 23144, Note_off_c, 0, 70, 117
1, 23147, Note_on_c, 0, 69, 114
1, 23172, Note_off_c, 0, 69, 114
1, 23249, Note_on_c, 0, 74, 75
1, 23259, Note_off_c, 0, 74, 75
1, 23261, Note_on_c, 0, 75, 109
1, 23304, Note_off_c, 0, 75, 109
1, 23312, Note_on_c, 0, 71, 85
1, 23324, Note_off_c, 0, 71, 85
1, 23326, Note_on_c, 0, 69, 99
1, 23351, Note_off_c, 0, 69, 99
1, 23367, Note_on_c, 0, 73, 105
1, 23406, Note_off_c, 0, 73, 105
1, 23412, Note_on_c, 0, 64, 91
1, 23447, Note_off_c, 0, 64, 91
1, 23459, Note_on_c, 0, 70, 98
1, 23506, Note_off_c, 0, 70, 98
1, 23516, Note_on_c, 0, 68, 100
1, 23606, Note_off_c, 0, 68, 100
1, 24237, Note_on_c, 0, 65, 116
1, 24289, Note_off_c, 0, 65, 116
1, 24295, Note_on_c, 0, 67, 95
1, 24337, Note_off_c, 0, 67, 95
1, 24381, Note_on_c, 0, 70, 99
1, 24405, Note_off_c, 0, 70, 99
1, 24423, Note_on_c, 0, 74, 122
1, 24492, Note_off_c, 0, 74, 122
1, 24509, Note_on_c, 0, 76, 106
1, 24525, Note_off_c, 0, 76, 106
1, 24528, Note_on_c, 0, 77, 115
1, 24605, Note_off_c, 0, 77, 115
1, 24614, Note_on_c, 0, 76, 110
1, 24636, Note_off_c, 0, 76, 110
1, 24638, Note_on_c, 0, 77, 114
1, 24693, Note_off_c, 0, 77, 114
1, 24704, Note_on_c, 0, 76, 111
1, 24740, Note_off_c, 0, 76, 111
1, 24745, Note_on_c, 0, 77, 112
1, 24800, Note_off_c, 0, 77, 112
1, 24807, Note_on_c, 0, 75, 120
1, 24870, Note_off_c, 0, 75, 120
1, 24886, Note_on_c, 0, 72, 104
1, 24915, Note_off_c, 0, 72, 104
1, 24929, Note_on_c, 0, 74, 114
1, 24990, Note_off_c, 0, 74, 114
1, 25005, Note_on_c, 0, 70, 118
1, 25076, Note_off_c, 0, 70, 118
1, 25095, Note_on_c, 0, 67, 115
1, 25182, Note_off_c, 0, 67, 115
1, 25195, Note_on_c, 0, 65, 97
1, 25261, Note_off_c, 0, 65, 97
1, 25273, Note_on_c, 0, 69, 119
1, 25378, Note_off_c, 0, 69, 119
1, 25390, Note_on_c, 0, 65, 95
1, 25442, Note_off_c, 0, 65, 95
1, 25451, Note_on_c, 0, 69, 120
1, 25586, Note_off_c, 0, 69, 120
1, 25594, Note_on_c, 0, 70, 119
1, 25827, Note_off_c, 0, 70, 119
1, 25839, Note_on_c, 0, 68, 114
1, 25935, Note_off_c, 0, 68, 114
1, 25956, Note_on_c, 0, 65, 114
1, 26024, Note_off_c, 0, 65, 114
1, 26054, Note_on_c, 0, 61, 104
1, 26077, Note_off_c, 0, 61, 104
1, 26082, Note_on_c, 0, 62, 106
1, 26152, Note_off_c, 0, 62, 106
1, 26246, Note_on_c, 0, 64, 105
1, 26594, Note_off_c, 0, 64, 105
1, 26610, Note_on_c, 0, 63, 110
1, 26727, Note_off_c, 0, 63, 110
1, 26727, End_track
0, 0, End_of_file
