0, 0, Header, 1, 1, 192
1, 0, Start_track
1, 0, Title_t, "Melody"
1, 0, Tempo, 200000
1, 0, Key_signature, -2, "major"
1, 0, Time_signature, 4, 2, 24, 8
1, 3252, Note_on_c, 0, 74, 114
1, 3341, Note_off_c, 0, 74, 114
1, 3449, Note_on_c, 0, 77, 125
1, 3680, Note_off_c, 0, 77, 125
1, 3730, Note_on_c, 0, 74, 116
1, 3833, Note_off_c, 0, 74, 116
1, 3841, Note_on_c, 0, 75, 125
1, 3952, Note_off_c, 0, 75, 125
1, 3973, Note_on_c, 0, 77, 116
1, 4067, Note_off_c, 0, 77, 116
1, 4813, Note_on_c, 0, 74, 102
1, 4906, Note_off_c, 0, 74, 102
1, 5000, Note_on_c, 0, 75, 124
1, 5259, Note_off_c, 0, 75, 124
1, 5288, Note_on_c, 0, 74, 104
1, 5357, Note_off_c, 0, 74, 104
1, 5367, Note_on_c, 0, 75, 122
1, 5492, Note_off_c, 0, 75, 122
1, 5502, Note_on_c, 0, 73, 119
1, 5577, Note_off_c, 0, 73, 119
1, 5590, Note_on_c, 0, 74, 121
1, 5673, Note_off_c, 0, 74, 121
1, 5695, Note_on_c, 0, 77, 120
1, 5767, Note_off_c, 0, 77, 120
1, 5866, Note_on_c, 0, 73, 120
1, 5957, Note_off_c, 0, 73, 120
1, 5962, Note_on_c, 0, 74, 113
1, 6033, Note_off_c, 0, 74, 113
1, 6056, Note_on_c, 0, 77, 115
1, 6146, Note_off_c, 0, 77, 115
1, 6162, Note_on_c, 0, 73, 111
1, 6214, Note_off_c, 0, 73, 111
1, 6220, Note_on_c, 0, 74, 120
1, 6263, Note_off_c, 0, 74, 120
1, 6274, Note_on_c, 0, 73, 118
1, 6352, Note_off_c, 0, 73, 118
1, 6365, Note_on_c, 0, 72, 110
1, 6448, Note_off_c, 0, 72, 110
1, 6459, Note_on_c, 0, 70, 119
1, 6543, Note_off_c, 0, 70, 119
1, 6561, Note_on_c, 0, 68, 108
1, 6613, Note_off_c, 0, 68, 108
1, 6614, Note_on_c, 0, 70, 108
1, 6673, Note_off_c, 0, 70, 108
1, 6679, Note_on_c, 0, 68, 118
1, 6813, Note_off_c, 0, 68, 118
1, 6819, Note_on_c, 0, 67, 104
1, 6873, Note_off_c, 0, 67, 104
1, 6891, Note_on_c, 0, 64, 104
1, 6970, Note_off_c, 0, 64, 104
1, 6982, Note_on_c, 0, 65, 117
1, 7072, Note_off_c, 0, 65, 117
1, 7116, Note_on_c, 0, 62, 92
1, 7163, Note_off_c, 0, 62, 92
1, 7167, Note_on_c, 0, 63, 102
1, 7250, Note_off_c, 0, 63, 102
1, 7255, Note_on_c, 0, 65, 108
1, 7350, Note_off_c, 0, 65, 108
1, 7373, Note_on_c, 0, 67, 101
1, 7455, Note_off_c, 0, 67, 101
1, 7470, Note_on_c, 0, 69, 97
1, 7515, Note_off_c, 0, 69, 97
1, 7527, Note_on_c, 0, 70, 121
1, 7641, Note_off_c, 0, 70, 121
1, 7652, Note_on_c, 0, 72, 118
1, 7743, Note_off_c, 0, 72, 118
1, 7755, Note_on_c, 0, 73, 118
1, 7824, Note_off_c, 0, 73, 118
1, 7832, Note_on_c, 0, 74, 122
1, 7923, Note_off_c, 0, 74, 122
1, 7939, Note_on_c, 0, 75, 113
1, 8031, Note_off_c, 0, 75, 113
1, 8043, Note_on_c, 0, 73, 102
1, 8107, Note_off_c, 0, 73, 102
1, 8111, Note_on_c, 0, 74, 119
1, 8220, Note_off_c, 0, 74, 119
1, 8231, Note_on_c, 0, 70, 116
1, 8324, Note_off_c, 0, 70, 116
1, 9542, Note_on_c, 0, 84, 104
1, 9618, Note_off_c, 0, 84, 104
1, 9624, Note_on_c, 0, 81, 119
1, 9687, Note_off_c, 0, 81, 119
1, 9692, Note_on_c, 0, 79, 120
1, 9746, Note_off_c, 0, 79, 120
1, 9749, Note_on_c, 0, 77, 121
1, 9830, Note_off_c, 0, 77, 121
1, 9843, Note_on_c, 0, 75, 118
1, 9938, Note_off_c, 0, 75, 118
1, 9951, Note_on_c, 0, 73, 117
1, 10028, Note_off_c, 0, 73, 117
1, 10031, Note_on_c, 0, 74, 116
1, 10122, Note_off_c, 0, 74, 116
1, 10127, Note_on_c, 0, 70, 115
1, 10232, Note_off_c, 0, 70, 115
1, 10242, Note_on_c, 0, 67, 98
1, 10325, Note_off_c, 0, 67, 98
1, 10362, Note_on_c, 0, 70, 91
1, 10418, Note_off_c, 0, 70, 91
1, 10423, Note_on_c, 0, 72, 109
1, 10478, Note_off_c, 0, 72, 109
1, 10485, Note_on_c, 0, 73, 112
1, 10531, Note_off_c, 0, 73, 112
1, 10535, Note_on_c, 0, 72, 119
1, 10609, Note_off_c, 0, 72, 119
1, 10616, Note_on_c, 0, 71, 105
1, 10677, Note_off_c, 0, 71, 105
1, 10686, Note_on_c, 0, 69, 96
1, 10784, Note_off_c, 0, 69, 96
1, 10794, Note_on_c, 0, 70, 116
1, 10892, Note_off_c, 0, 70, 116
1, 10896, Note_on_c, 0, 69, 108
1, 10998, Note_off_c, 0, 69, 108
1, 11017, Note_on_c, 0, 65, 91
1, 11091, Note_off_c, 0, 65, 91
1, 11118, Note_on_c, 0, 62, 85
1, 11196, Note_off_c, 0, 62, 85
1, 11203, Note_on_c, 0, 68, 111
1, 11276, Note_off_c, 0, 68, 111
1, 11292, Note_on_c, 0, 67, 112
1, 11382, Note_off_c, 0, 67, 112
1, 11392, Note_on_c, 0, 65, 105
1, 11482, Note_off_c, 0, 65, 105
1, 11510, Note_on_c, 0, 62, 88
1, 11583, Note_off_c, 0, 62, 88
1, 11597, Note_on_c, 0, 63, 104
1, 11685, Note_off_c, 0, 63, 104
1, 11686, Note_on_c, 0, 65, 110
1, 11762, Note_off_c, 0, 65, 110
1, 11786, Note_on_c, 0, 67, 99
1, 11881, Note_off_c, 0, 67, 99
1, 11897, Note_on_c, 0, 69, 89
1, 11950, Note_off_c, 0, 69, 89
1, 11955, Note_on_c, 0, 70, 107
1, 12056, Note_off_c, 0, 70, 107
1, 12072, Note_on_c, 0, 72, 120
1, 12168, Note_off_c, 0, 72, 120
1, 12175, Note_on_c, 0, 73, 115
1, 12243, Note_off_c, 0, 73, 115
1, 12251, Note_on_c, 0, 74, 118
1, 12351, Note_off_c, 0, 74, 118
1, 12362, Note_on_c, 0, 75, 106
1, 12506, Note_off_c, 0, 75, 106
1, 12513, Note_on_c, 0, 74, 116
1, 12616, Note_off_c, 0, 74, 116
1, 12746, Note_on_c, 0, 86, 122
1, 12848, Note_off_c, 0, 86, 122
1, 12868, Note_on_c, 0, 85, 127
1, 12940, Note_off_c, 0, 85, 127
1, 12945, Note_on_c, 0, 84, 122
1, 13018, Note_off_c, 0, 84, 122
1, 13024, Note_on_c, 0, 82, 120
1, 13101, Note_off_c, 0, 82, 120
1, 13117, Note_on_c, 0, 81, 114
1, 13149, Note_off_c, 0, 81, 114
1, 13156, Note_on_c, 0, 79, 109
1, 13213, Note_off_c, 0, 79, 109
1, 13219, Note_on_c, 0, 77, 113
1, 13306, Note_off_c, 0, 77, 113
1, 13322, Note_on_c, 0, 75, 115
1, 13410, Note_off_c, 0, 75, 115
1, 13414, Note_on_c, 0, 73, 116
1, 13505, Note_off_c, 0, 73, 116
1, 13511, Note_on_c, 0, 74, 111
1, 13600, Note_off_c, 0, 74, 111
1, 13603, Note_on_c, 0, 77, 110
1, 13690, Note_off_c, 0, 77, 110
1, 13705, Note_on_c, 0, 72, 100
1, 13743, Note_off_c, 0, 72, 100
1, 13760, Note_on_c, 0, 74, 107
1, 13808, Note_off_c, 0, 74, 107
1, 13814, Note_on_c, 0, 73, 115
1, 13875, Note_off_c, 0, 73, 115
1, 13888, Note_on_c, 0, 72, 117
1, 14024, Note_off_c, 0, 72, 117
1, 14024, Note_on_c, 0, 70, 107
1, 14141, Note_off_c, 0, 70, 107
1, 15412, Note_on_c, 0, 69, 113
1, 15478, Note_off_c, 0, 69, 113
1, 15509, Note_on_c, 0, 71, 113
1, 15580, Note_off_c, 0, 71, 113
1, 15587, Note_on_c, 0, 72, 117
1, 15683, Note_off_c, 0, 72, 117
1, 15700, Note_on_c, 0, 74, 96
1, 15781, Note_off_c, 0, 74, 96
1, 15806, Note_on_c, 0, 76, 120
1, 15886, Note_off_c, 0, 76, 120
1, 15911, Note_on_c, 0, 79, 114
1, 15997, Note_off_c, 0, 79, 114
1, 16006, Note_on_c, 0, 78, 117
1, 16089, Note_off_c, 0, 78, 117
1, 16095, Note_on_c, 0, 76, 118
1, 16166, Note_off_c, 0, 76, 118
1, 16174, Note_on_c, 0, 74, 117
1, 16259, Note_off_c, 0, 74, 117
1, 16297, Note_on_c, 0, 71, 101
1, 16361, Note_off_c, 0, 71, 101
1, 16369, Note_on_c, 0, 72, 105
1, 16450, Note_off_c, 0, 72, 105
1, 16456, Note_on_c, 0, 74, 103
1, 16529, Note_off_c, 0, 74, 103
1, 16538, Note_on_c, 0, 76, 112
1, 16595, Note_off_c, 0, 76, 112
1, 16599, Note_on_c, 0, 77, 122
1, 16660, Note_off_c, 0, 77, 122
1, 16665, Note_on_c, 0, 76, 119
1, 16735, Note_off_c, 0, 76, 119
1, 16744, Note_on_c, 0, 74, 116
1, 16845, Note_off_c, 0, 74, 116
1, 16853, Note_on_c, 0, 72, 117
1, 16933, Note_off_c, 0, 72, 117
1, 16935, Note_on_c, 0, 71, 110
1, 16995, Note_off_c, 0, 71, 110
1, 17018, Note_on_c, 0, 69, 117
1, 17101, Note_off_c, 0, 69, 117
1, 17109, Note_on_c, 0, 67, 97
1, 17191, Note_off_c, 0, 67, 97
1, 17244, Note_on_c, 0, 66, 93
1, 17294, Note_off_c, 0, 66, 93
1, 17310, Note_on_c, 0, 65, 94
1, 17391, Note_off_c, 0, 65, 94
1, 17400, Note_on_c, 0, 64, 114
1, 17489, Note_off_c, 0, 64, 114
1, 17496, Note_on_c, 0, 62, 105
1, 17553, Note_off_c, 0, 62, 105
1, 17586, Note_on_c, 0, 60, 106
1, 17703, Note_off_c, 0, 60, 106
1, 17712, Note_on_c, 0, 59, 100
1, 17773, Note_off_c, 0, 59, 100
1, 17892, Note_on_c, 0, 65, 111
1, 17957, Note_off_c, 0, 65, 111
1, 17998, Note_on_c, 0, 68, 115
1, 18069, Note_off_c, 0, 68, 115
1, 18088, Note_on_c, 0, 65, 102
1, 18175, Note_off_c, 0, 65, 102
1, 18204, Note_on_c, 0, 66, 106
1, 18238, Note_off_c, 0, 66, 106
1, 18244, Note_on_c, 0, 67, 117
1, 18340, Note_off_c, 0, 67, 117
1, 18373, Note_on_c, 0, 65, 109
1, 18443, Note_off_c, 0, 65, 109
1, 18447, Note_on_c, 0, 64, 103
1, 18556, Note_off_c, 0, 64, 103
1, 18580, Note_on_c, 0, 67, 97
1, 18637, Note_off_c, 0, 67, 97
1, 18644, Note_on_c, 0, 70, 116
1, 18712, Note_off_c, 0, 70, 116
1, 18747, Note_on_c, 0, 74, 114
1, 18803, Note_off_c, 0, 74, 114
1, 18836, Note_on_c, 0, 69, 99
1, 18872, Note_off_c, 0, 69, 99
1, 18876, Note_on_c, 0, 70, 114
1, 18944, Note_off_c, 0, 70, 114
1, 18949, Note_on_c, 0, 71, 111
1, 19023, Note_off_c, 0, 71, 111
1, 19034, Note_on_c, 0, 72, 111
1, 19088, Note_off_c, 0, 72, 111
1, 19095, Note_on_c, 0, 71, 108
1, 19151, Note_off_c, 0, 71, 108
1, 19167, Note_on_c, 0, 69, 103
1, 19222, Note_off_c, 0, 69, 103
1, 19230, Note_on_c, 0, 70, 113
1, 19310, Note_off_c, 0, 70, 113
1, 19318, Note_on_c, 0, 72, 117
1, 19395, Note_off_c, 0, 72, 117
1, 19401, Note_on_c, 0, 74, 114
1, 19484, Note_off_c, 0, 74, 114
1, 19502, Note_on_c, 0, 76, 113
1, 19577, Note_off_c, 0, 76, 113
1, 19588, Note_on_c, 0, 81, 118
1, 19651, Note_off_c, 0, 81, 118
1, 19698, Note_on_c, 0, 79, 119
1, 19771, Note_off_c, 0, 79, 119
1, 19798, Note_on_c, 0, 79, 121
1, 19854, Note_off_c, 0, 79, 121
1, 19863, Note_on_c, 0, 78, 118
1, 19905, Note_off_c, 0, 78, 118
1, 19912, Note_on_c, 0, 76, 108
1, 19968, Note_off_c, 0, 76, 108
1, 19971, Note_on_c, 0, 75, 115
1, 20066, Note_off_c, 0, 75, 115
1, 20070, Note_on_c, 0, 67, 100
1, 20137, Note_off_c, 0, 67, 100
1, 20157, Note_on_c, 0, 72, 106
1, 20209, Note_off_c, 0, 72, 106
1, 20225, Note_on_c, 0, 75, 115
1, 20295, Note_off_c, 0, 75, 115
1, 20315, Note_on_c, 0, 74, 114
1, 20402, Note_off_c, 0, 74, 114
1, 20405, Note_on_c, 0, 72, 112
1, 20482, Note_off_c, 0, 72, 112
1, 20487, Note_on_c, 0, 71, 115
1, 20565, Note_off_c, 0, 71, 115
1, 20589, Note_on_c, 0, 70, 104
1, 20652, Note_off_c, 0, 70, 104
1, 20655, Note_on_c, 0, 69, 109
1, 20752, Note_off_c, 0, 69, 109
1, 20816, Note_on_c, 0, 72, 103
1, 20905, Note_off_c, 0, 72, 103
1, 20913, Note_on_c, 0, 75, 115
1, 20975, Note_off_c, 0, 75, 115
1, 20975, Note_on_c, 0, 78, 121
1, 21056, Note_off_c, 0, 78, 121
1, 21065, Note_on_c, 0, 75, 112
1, 21173, Note_off_c, 0, 75, 112
1, 21204, Note_on_c, 0, 76, 117
1, 21275, Note_off_c, 0, 76, 117
1, 21281, Note_on_c, 0, 77, 120
1, 21370, Note_off_c, 0, 77, 120
1, 21409, Note_on_c, 0, 68, 102
1, 21473, Note_off_c, 0, 68, 102
1, 21488, Note_on_c, 0, 70, 107
1, 21560, Note_off_c, 0, 70, 107
1, 21574, Note_on_c, 0, 75, 123
1, 21697, Note_off_c, 0, 75, 123
1, 21698, Note_on_c, 0, 72, 98
1, 21772, Note_off_c, 0, 72, 98
1, 21781, Note_on_c, 0, 73, 108
1, 21845, Note_off_c, 0, 73, 108
1, 21849, Note_on_c, 0, 74, 113
1, 21936, Note_off_c, 0, 74, 113
1, 21952, Note_on_c, 0, 70, 114
1, 22023, Note_off_c, 0, 70, 114
1, 22050, Note_on_c, 0, 67, 94
1, 22117, Note_off_c, 0, 67, 94
1, 22143, Note_on_c, 0, 65, 88
1, 22209, Note_off_c, 0, 65, 88
1, 22223, Note_on_c, 0, 72, 109
1, 22320, Note_off_c, 0, 72, 109
1, 22328, Note_on_c, 0, 70, 117
1, 22408, Note_off_c, 0, 70, 117
1, 22413, Note_on_c, 0, 67, 89
1, 22472, Note_off_c, 0, 67, 89
1, 22483, Note_on_c, 0, 64, 84
1, 22540, Note_off_c, 0, 64, 84
1, 22565, Note_on_c, 0, 66, 95
1, 22610, Note_off_c, 0, 66, 95
1, 22621, Note_on_c, 0, 69, 111
1, 22707, Note_off_c, 0, 69, 111
1, 22715, Note_on_c, 0, 68, 109
1, 22788, Note_off_c, 0, 68, 109
1, 22792, Note_on_c, 0, 67, 111
1, 22897, Note_off_c, 0, 67, 111
1, 22901, Note_on_c, 0, 66, 115
1, 22992, Note_off_c, 0, 66, 115
1, 23001, Note_on_c, 0, 65, 107
1, 23064, Note_off_c, 0, 65, 107
1, 23082, Note_on_c, 0, 64, 98
1, 23165, Note_off_c, 0, 64, 98
1, 23181, Note_on_c, 0, 63, 90
1, 23276, Note_off_c, 0, 63, 90
1, 23287, Note_on_c, 0, 67, 115
1, 23383, Note_off_c, 0, 67, 115
1, 23490, Note_on_c, 0, 64, 84
1, 23563, Note_off_c, 0, 64, 84
1, 23571, Note_on_c, 0, 65, 108
1, 23665, Note_off_c, 0, 65, 108
1, 23722, Note_on_c, 0, 62, 90
1, 23754, Note_off_c, 0, 62, 90
1, 23759, Note_on_c, 0, 63, 96
1, 23860, Note_off_c, 0, 63, 96
1, 23873, Note_on_c, 0, 65, 113
1, 23961, Note_off_c, 0, 65, 113
1, 23968, Note_on_c, 0, 67, 95
1, 24078, Note_off_c, 0, 67, 95
1, 24084, Note_on_c, 0, 69, 99
1, 24134, Note_off_c, 0, 69, 99
1, 24141, Note_on_c, 0, 70, 109
1, 24250, Note_off_c, 0, 70, 109
1, 24254, Note_on_c, 0, 72, 118
1, 24344, Note_off_c, 0, 72, 118
1, 24356, Note_on_c, 0, 73, 110
1, 24443, Note_off_c, 0, 73, 110
1, 24449, Note_on_c, 0, 74, 113
1, 24517, Note_off_c, 0, 74, 113
1, 24524, Note_on_c, 0, 75, 109
1, 24642, Note_off_c, 0, 75, 109
1, 24650, Note_on_c, 0, 73, 104
1, 24701, Note_off_c, 0, 73, 104
1, 24706, Note_on_c, 0, 74, 116
1, 24816, Note_off_c, 0, 74, 116
1, 24837, Note_on_c, 0, 68, 112
1, 24940, Note_off_c, 0, 68, 112
1, 26801, Note_on_c, 0, 77, 115
1, 26922, Note_off_c, 0, 77, 115
1, 27007, Note_on_c, 0, 79, 119
1, 27117, Note_off_c, 0, 79, 119
1, 27195, Note_on_c, 0, 82, 121
1, 27302, Note_off_c, 0, 82, 121
1, 27360, Note_on_c, 0, 84, 124
1, 27496, Note_off_c, 0, 84, 124
1, 27507, Note_on_c, 0, 85, 119
1, 27634, Note_off_c, 0, 85, 119
1, 27726, Note_on_c, 0, 86, 123
1, 27979, Note_off_c, 0, 86, 123
1, 28001, Note_on_c, 0, 70, 90
1, 28053, Note_off_c, 0, 70, 90
1, 29216, Note_on_c, 0, 88, 103
1, 29296, Note_off_c, 0, 88, 103
1, 29310, Note_on_c, 0, 84, 120
1, 29385, Note_off_c, 0, 84, 120
1, 29395, Note_on_c, 0, 82, 113
1, 29466, Note_off_c, 0, 82, 113
1, 29469, Note_on_c, 0, 81, 114
1, 29551, Note_off_c, 0, 81, 114
1, 29556, Note_on_c, 0, 84, 116
1, 29639, Note_off_c, 0, 84, 116
1, 29645, Note_on_c, 0, 80, 109
1, 29754, Note_off_c, 0, 80, 109
1, 29761, Note_on_c, 0, 74, 103
1, 29829, Note_off_c, 0, 74, 103
1, 29836, Note_on_c, 0, 81, 114
1, 29897, Note_off_c, 0, 81, 114
1, 29900, Note_on_c, 0, 82, 116
1, 29951, Note_off_c, 0, 82, 116
1, 29953, Note_on_c, 0, 81, 115
1, 30032, Note_off_c, 0, 81, 115
1, 30032, Note_on_c, 0, 79, 105
1, 30104, Note_off_c, 0, 79, 105
1, 30110, Note_on_c, 0, 77, 124
1, 30188, Note_off_c, 0, 77, 124
1, 30198, Note_on_c, 0, 75, 112
1, 30268, Note_off_c, 0, 75, 112
1, 30312, Note_on_c, 0, 73, 115
1, 30396, Note_off_c, 0, 73, 115
1, 30402, Note_on_c, 0, 74, 101
1, 30458, Note_off_c, 0, 74, 101
1, 30508, Note_on_c, 0, 76, 111
1, 30552, Note_off_c, 0, 76, 111
1, 30554, Note_on_c, 0, 77, 119
1, 30944, Note_off_c, 0, 77, 119
1, 30958, Note_on_c, 0, 74, 115
1, 31049, Note_off_c, 0, 74, 115
1, 31281, Note_on_c, 0, 76, 122
1, 31363, Note_off_c, 0, 76, 122
1, 31374, Note_on_c, 0, 75, 114
1, 31452, Note_off_c, 0, 75, 114
1, 31455, Note_on_c, 0, 74, 111
1, 31530, Note_off_c, 0, 74, 111
1, 31534, Note_on_c, 0, 72, 113
1, 31626, Note_off_c, 0, 72, 113
1, 31648, Note_on_c, 0, 73, 109
1, 31729, Note_off_c, 0, 73, 109
1, 31733, Note_on_c, 0, 74, 110
1, 31825, Note_off_c, 0, 74, 110
1, 31829, Note_on_c, 0, 70, 109
1, 31921, Note_off_c, 0, 70, 109
1, 31933, Note_on_c, 0, 67, 92
1, 32013, Note_off_c, 0, 67, 92
1, 32045, Note_on_c, 0, 65, 90
1, 32107, Note_off_c, 0, 65, 90
1, 32137, Note_on_c, 0, 72, 109
1, 32166, Note_off_c, 0, 72, 109
1, 32173, Note_on_c, 0, 74, 108
1, 32222, Note_off_c, 0, 74, 108
1, 32232, Note_on_c, 0, 72, 108
1, 32281, Note_off_c, 0, 72, 108
1, 32304, Note_on_c, 0, 70, 95
1, 32361, Note_off_c, 0, 70, 95
1, 32387, Note_on_c, 0, 65, 95
1, 32476, Note_off_c, 0, 65, 95
1, 32490, Note_on_c, 0, 69, 99
1, 32526, Note_off_c, 0, 69, 99
1, 32534, Note_on_c, 0, 70, 113
1, 32595, Note_off_c, 0, 70, 113
1, 32605, Note_on_c, 0, 69, 103
1, 32656, Note_off_c, 0, 69, 103
1, 32661, Note_on_c, 0, 67, 106
1, 32752, Note_off_c, 0, 67, 106
1, 33654, Note_on_c, 0, 77, 119
1, 33983, Note_off_c, 0, 77, 119
1, 34009, Note_on_c, 0, 74, 113
1, 34136, Note_off_c, 0, 74, 113
1, 34259, Note_on_c, 0, 77, 122
1, 34366, Note_off_c, 0, 77, 122
1, 34377, Note_on_c, 0, 75, 119
1, 34489, Note_off_c, 0, 75, 119
1, 34505, Note_on_c, 0, 70, 103
1, 34579, Note_off_c, 0, 70, 103
1, 34584, Note_on_c, 0, 67, 107
1, 34681, Note_off_c, 0, 67, 107
1, 34720, Note_on_c, 0, 66, 100
1, 34888, Note_off_c, 0, 66, 100
1, 35086, Note_on_c, 0, 74, 112
1, 35333, Note_off_c, 0, 74, 112
1, 35338, Note_on_c, 0, 72, 112
1, 35432, Note_off_c, 0, 72, 112
1, 35434, Note_on_c, 0, 70, 113
1, 35520, Note_off_c, 0, 70, 113
1, 35525, Note_on_c, 0, 69, 103
1, 35608, Note_off_c, 0, 69, 103
1, 35613, Note_on_c, 0, 68, 104
1, 35686, Note_off_c, 0, 68, 104
1, 35690, Note_on_c, 0, 67, 108
1, 35775, Note_off_c, 0, 67, 108
1, 35786, Note_on_c, 0, 66, 101
1, 35881, Note_off_c, 0, 66, 101
1, 35891, Note_on_c, 0, 65, 104
1, 35965, Note_off_c, 0, 65, 104
1, 36012, Note_on_c, 0, 62, 91
1, 36086, Note_off_c, 0, 62, 91
1, 36094, Note_on_c, 0, 63, 91
1, 36167, Note_off_c, 0, 63, 91
1, 36185, Note_on_c, 0, 65, 105
1, 36276, Note_off_c, 0, 65, 105
1, 36290, Note_on_c, 0, 67, 91
1, 36379, Note_off_c, 0, 67, 91
1, 36403, Note_on_c, 0, 69, 92
1, 36452, Note_off_c, 0, 69, 92
1, 36454, Note_on_c, 0, 70, 112
1, 36532, Note_off_c, 0, 70, 112
1, 36553, Note_on_c, 0, 72, 115
1, 36647, Note_off_c, 0, 72, 115
1, 36657, Note_on_c, 0, 73, 113
1, 36738, Note_off_c, 0, 73, 113
1, 36751, Note_on_c, 0, 74, 114
1, 36824, Note_off_c, 0, 74, 114
1, 36832, Note_on_c, 0, 75, 115
1, 36926, Note_off_c, 0, 75, 115
1, 36965, Note_on_c, 0, 73, 96
1, 37036, Note_off_c, 0, 73, 96
1, 37050, Note_on_c, 0, 74, 109
1, 37161, Note_off_c, 0, 74, 109
1, 37359, Note_on_c, 0, 79, 105
1, 37406, Note_off_c, 0, 79, 105
1, 37410, Note_on_c, 0, 77, 113
1, 37602, Note_off_c, 0, 77, 113
1, 37613, Note_on_c, 0, 75, 116
1, 37730, Note_off_c, 0, 75, 116
1, 37734, Note_on_c, 0, 74, 112
1, 37823, Note_off_c, 0, 74, 112
1, 37825, Note_on_c, 0, 72, 112
1, 37917, Note_off_c, 0, 72, 112
1, 37920, Note_on_c, 0, 73, 114
1, 37994, Note_off_c, 0, 73, 114
1, 37997, Note_on_c, 0, 74, 111
1, 38076, Note_off_c, 0, 74, 111
1, 38084, Note_on_c, 0, 70, 109
1, 38170, Note_off_c, 0, 70, 109
1, 38181, Note_on_c, 0, 67, 92
1, 38248, Note_off_c, 0, 67, 92
1, 38284, Note_on_c, 0, 65, 91
1, 38349, Note_off_c, 0, 65, 91
1, 38354, Note_on_c, 0, 72, 111
1, 38466, Note_off_c, 0, 72, 111
1, 38502, Note_on_c, 0, 69, 88
1, 38555, Note_off_c, 0, 69, 88
1, 38563, Note_on_c, 0, 70, 115
1, 38664, Note_off_c, 0, 70, 115
1, 38686, Note_on_c, 0, 65, 109
1, 38777, Note_off_c, 0, 65, 109
1, 39683, Note_on_c, 0, 81, 114
1, 39762, Note_off_c, 0, 81, 114
1, 39765, Note_on_c, 0, 82, 124
1, 39811, Note_off_c, 0, 82, 124
1, 39814, Note_on_c, 0, 81, 117
1, 39876, Note_off_c, 0, 81, 117
1, 39891, Note_on_c, 0, 79, 118
1, 40002, Note_off_c, 0, 79, 118
1, 40005, Note_on_c, 0, 78, 110
1, 40106, Note_off_c, 0, 78, 110
1, 40167, Note_on_c, 0, 76, 115
1, 40252, Note_off_c, 0, 76, 115
1, 40263, Note_on_c, 0, 74, 107
1, 40311, Note_off_c, 0, 74, 107
1, 40336, Note_on_c, 0, 73, 97
1, 40394, Note_off_c, 0, 73, 97
1, 40407, Note_on_c, 0, 72, 115
1, 40503, Note_off_c, 0, 72, 115
1, 40529, Note_on_c, 0, 76, 113
1, 40611, Note_off_c, 0, 76, 113
1, 40620, Note_on_c, 0, 74, 109
1, 40659, Note_off_c, 0, 74, 109
1, 40669, Note_on_c, 0, 71, 90
1, 40699, Note_off_c, 0, 71, 90
1, 40701, Note_on_c, 0, 69, 95
1, 40778, Note_off_c, 0, 69, 95
1, 40790, Note_on_c, 0, 74, 114
1, 40873, Note_off_c, 0, 74, 114
1, 40881, Note_on_c, 0, 72, 113
1, 40975, Note_off_c, 0, 72, 113
1, 40981, Note_on_c, 0, 71, 110
1, 41041, Note_off_c, 0, 71, 110
1, 41060, Note_on_c, 0, 69, 112
1, 41124, Note_off_c, 0, 69, 112
1, 41132, Note_on_c, 0, 67, 108
1, 41185, Note_off_c, 0, 67, 108
1, 41261, Note_on_c, 0, 66, 94
1, 41321, Note_off_c, 0, 66, 94
1, 41330, Note_on_c, 0, 65, 108
1, 41401, Note_off_c, 0, 65, 108
1, 41443, Note_on_c, 0, 69, 112
1, 41533, Note_off_c, 0, 69, 112
1, 41539, Note_on_c, 0, 64, 106
1, 41642, Note_off_c, 0, 64, 106
1, 41657, Note_on_c, 0, 62, 97
1, 41766, Note_off_c, 0, 62, 97
1, 42779, Note_on_c, 0, 62, 102
1, 42836, Note_off_c, 0, 62, 102
1, 42848, Note_on_c, 0, 67, 106
1, 42945, Note_off_c, 0, 67, 106
1, 42954, Note_on_c, 0, 70, 96
1, 43051, Note_off_c, 0, 70, 96
1, 43104, Note_on_c, 0, 66, 84
1, 43165, Note_off_c, 0, 66, 84
1, 43171, Note_on_c, 0, 70, 98
1, 43262, Note_off_c, 0, 70, 98
1, 43264, Note_on_c, 0, 74, 110
1, 43334, Note_off_c, 0, 74, 110
1, 43340, Note_on_c, 0, 78, 122
1, 43434, Note_off_c, 0, 78, 122
1, 43436, Note_on_c, 0, 77, 114
1, 43518, Note_off_c, 0, 77, 114
1, 43531, Note_on_c, 0, 74, 114
1, 43601, Note_off_c, 0, 74, 114
1, 43615, Note_on_c, 0, 70, 104
1, 43694, Note_off_c, 0, 70, 104
1, 43724, Note_on_c, 0, 67, 97
1, 43806, Note_off_c, 0, 67, 97
1, 43806, Note_on_c, 0, 76, 118
1, 43893, Note_off_c, 0, 76, 118
1, 43931, Note_on_c, 0, 75, 118
1, 44024, Note_off_c, 0, 75, 118
1, 44028, Note_on_c, 0, 74, 108
1, 44100, Note_off_c, 0, 74, 108
1, 44126, Note_on_c, 0, 68, 99
1, 44172, Note_off_c, 0, 68, 99
1, 44204, Note_on_c, 0, 75, 115
1, 44293, Note_off_c, 0, 75, 115
1, 44299, Note_on_c, 0, 72, 73
1, 44348, Note_off_c, 0, 72, 73
1, 44438, Note_on_c, 0, 75, 117
1, 44586, Note_off_c, 0, 75, 117
1, 44589, Note_on_c, 0, 74, 110
1, 44661, Note_off_c, 0, 74, 110
1, 44664, Note_on_c, 0, 72, 114
1, 44752, Note_off_c, 0, 72, 114
1, 44758, Note_on_c, 0, 71, 110
1, 44850, Note_off_c, 0, 71, 110
1, 44857, Note_on_c, 0, 70, 111
1, 44922, Note_off_c, 0, 70, 111
1, 44929, Note_on_c, 0, 69, 105
1, 45026, Note_off_c, 0, 69, 105
1, 45073, Note_on_c, 0, 72, 94
1, 45122, Note_off_c, 0, 72, 94
1, 45130, Note_on_c, 0, 75, 117
1, 45218, Note_off_c, 0, 75, 117
1, 45230, Note_on_c, 0, 78, 119
1, 45500, Note_off_c, 0, 78, 119
1, 45507, Note_on_c, 0, 77, 112
1, 45599, Note_off_c, 0, 77, 112
1, 45620, Note_on_c, 0, 75, 114
1, 45698, Note_off_c, 0, 75, 114
1, 45709, Note_on_c, 0, 73, 114
1, 45784, Note_off_c, 0, 73, 114
1, 45792, Note_on_c, 0, 74, 111
1, 46005, Note_off_c, 0, 74, 111
1, 46016, Note_on_c, 0, 77, 119
1, 46146, Note_off_c, 0, 77, 119
1, 46349, Note_on_c, 0, 74, 118
1, 46439, Note_off_c, 0, 74, 118
1, 46449, Note_on_c, 0, 75, 109
1, 46529, Note_off_c, 0, 75, 109
1, 46581, Note_on_c, 0, 70, 109
1, 46655, Note_off_c, 0, 70, 109
1, 46659, Note_on_c, 0, 67, 94
1, 46759, Note_off_c, 0, 67, 94
1, 46765, Note_on_c, 0, 66, 88
1, 46822, Note_off_c, 0, 66, 88
1, 46876, Note_on_c, 0, 74, 107
1, 47420, Note_off_c, 0, 74, 107
1, 47424, Note_on_c, 0, 72, 108
1, 47529, Note_off_c, 0, 72, 108
1, 47534, Note_on_c, 0, 70, 114
1, 47623, Note_off_c, 0, 70, 114
1, 47632, Note_on_c, 0, 69, 109
1, 47712, Note_off_c, 0, 69, 109
1, 47719, Note_on_c, 0, 68, 107
1, 47816, Note_off_c, 0, 68, 107
1, 47818, Note_on_c, 0, 67, 104
1, 47888, Note_off_c, 0, 67, 104
1, 47894, Note_on_c, 0, 66, 101
1, 47987, Note_off_c, 0, 66, 101
1, 47988, Note_on_c, 0, 65, 107
1, 48080, Note_off_c, 0, 65, 107
1, 48109, Note_on_c, 0, 62, 91
1, 48162, Note_off_c, 0, 62, 91
1, 48165, Note_on_c, 0, 63, 88
1, 48256, Note_off_c, 0, 63, 88
1, 48261, Note_on_c, 0, 65, 109
1, 48345, Note_off_c, 0, 65, 109
1, 48353, Note_on_c, 0, 67, 92
1, 48446, Note_off_c, 0, 67, 92
1, 48450, Note_on_c, 0, 69, 94
1, 48518, Note_off_c, 0, 69, 94
1, 48523, Note_on_c, 0, 70, 117
1, 48621, Note_off_c, 0, 70, 117
1, 48625, Note_on_c, 0, 72, 115
1, 48718, Note_off_c, 0, 72, 115
1, 48722, Note_on_c, 0, 73, 113
1, 48810, Note_off_c, 0, 73, 113
1, 48812, Note_on_c, 0, 74, 114
1, 48899, Note_off_c, 0, 74, 114
1, 48902, Note_on_c, 0, 70, 110
1, 49015, Note_off_c, 0, 70, 110
1, 49020, Note_on_c, 0, 67, 90
1, 49089, Note_off_c, 0, 67, 90
1, 49129, Note_on_c, 0, 72, 106
1, 49168, Note_off_c, 0, 72, 106
1, 49171, Note_on_c, 0, 74, 109
1, 49203, Note_off_c, 0, 74, 109
1, 49213, Note_on_c, 0, 72, 115
1, 49289, Note_off_c, 0, 72, 115
1, 49297, Note_on_c, 0, 70, 112
1, 49377, Note_off_c, 0, 70, 112
1, 49401, Note_on_c, 0, 65, 101
1, 49460, Note_off_c, 0, 65, 101
1, 49523, Note_on_c, 0, 68, 101
1, 49565, Note_off_c, 0, 68, 101
1, 49574, Note_on_c, 0, 70, 108
1, 49632, Note_off_c, 0, 70, 108
1, 49636, Note_on_c, 0, 68, 109
1, 49677, Note_off_c, 0, 68, 109
1, 49687, Note_on_c, 0, 67, 103
1, 49771, Note_off_c, 0, 67, 103
1, 49795, Note_on_c, 0, 65, 107
1, 49857, Note_off_c, 0, 65, 107
1, 49870, Note_on_c, 0, 64, 94
1, 49951, Note_off_c, 0, 64, 94
1, 49979, Note_on_c, 0, 67, 95
1, 50016, Note_off_c, 0, 67, 95
1, 50035, Note_on_c, 0, 70, 106
1, 50119, Note_off_c, 0, 70, 106
1, 50129, Note_on_c, 0, 74, 111
1, 50395, Note_off_c, 0, 74, 111
1, 50412, Note_on_c, 0, 72, 108
1, 50508, Note_off_c, 0, 72, 108
1, 50523, Note_on_c, 0, 70, 112
1, 50594, Note_off_c, 0, 70, 112
1, 50599, Note_on_c, 0, 69, 99
1, 50684, Note_off_c, 0, 69, 99
1, 50709, Note_on_c, 0, 72, 112
1, 50778, Note_off_c, 0, 72, 112
1, 50784, Note_on_c, 0, 71, 102
1, 50855, Note_off_c, 0, 71, 102
1, 50861, Note_on_c, 0, 69, 99
1, 50945, Note_off_c, 0, 69, 99
1, 50953, Note_on_c, 0, 70, 111
1, 51052, Note_off_c, 0, 70, 111
1, 51080, Note_on_c, 0, 67, 110
1, 51169, Note_off_c, 0, 67, 110
1, 51178, Note_on_c, 0, 66, 96
1, 51243, Note_off_c, 0, 66, 96
1, 51258, Note_on_c, 0, 64, 97
1, 51371, Note_off_c, 0, 64, 97
1, 51378, Note_on_c, 0, 65, 109
1, 51442, Note_off_c, 0, 65, 109
1, 51495, Note_on_c, 0, 58, 104
1, 51604, Note_off_c, 0, 58, 104
1, 51604, End_track
0, 0, End_of_file
