0, 0, Header, 1, 1, 192
1, 0, Start_track
1, 0, Title_t, "Melody"
1, 0, Tempo, 368098
1, 0, Key_signature, -5, "major"
1, 0, Time_signature, 4, 2, 24, 8
1, 2019, Note_on_c, 0, 68, 106
1, 2066, Note_off_c, 0, 68, 106
1, 2072, Note_on_c, 0, 70, 116
1, 2106, Note_off_c, 0, 70, 116
1, 2111, Note_on_c, 0, 68, 112
1, 2165, Note_off_c, 0, 68, 112
1, 2205, Note_on_c, 0, 65, 104
1, 2285, Note_off_c, 0, 65, 104
1, 2294, Note_on_c, 0, 70, 120
1, 2367, Note_off_c, 0, 70, 120
1, 2398, Note_on_c, 0, 68, 116
1, 2468, Note_off_c, 0, 68, 116
1, 3063, Note_on_c, 0, 65, 118
1, 3141, Note_off_c, 0, 65, 118
1, 3154, Note_on_c, 0, 66, 116
1, 3229, Note_off_c, 0, 66, 116
1, 3246, Note_on_c, 0, 68, 111
1, 3320, Note_off_c, 0, 68, 111
1, 3343, Note_on_c, 0, 70, 122
1, 3415, Note_off_c, 0, 70, 122
1, 3436, Note_on_c, 0, 72, 125
1, 3512, Note_off_c, 0, 72, 125
1, 3531, Note_on_c, 0, 73, 124
1, 3601, Note_off_c, 0, 73, 124
1, 3629, Note_on_c, 0, 75, 123
1, 3698, Note_off_c, 0, 75, 123
1, 3764, Note_on_c, 0, 76, 122
1, 3794, Note_off_c, 0, 76, 122
1, 3798, Note_on_c, 0, 77, 124
1, 3859, Note_off_c, 0, 77, 124
1, 3952, Note_on_c, 0, 72, 121
1, 4020, Note_off_c, 0, 72, 121
1, 4057, Note_on_c, 0, 75, 99
1, 4076, Note_off_c, 0, 75, 99
1, 4079, Note_on_c, 0, 74, 122
1, 4123, Note_off_c, 0, 74, 122
1, 4130, Note_on_c, 0, 73, 121
1, 4234, Note_off_c, 0, 73, 121
1, 4248, Note_on_c, 0, 71, 122
1, 4351, Note_off_c, 0, 71, 122
1, 4430, Note_on_c, 0, 63, 115
1, 4492, Note_off_c, 0, 63, 115
1, 4603, Note_on_c, 0, 65, 116
1, 4658, Note_off_c, 0, 65, 116
1, 4772, Note_on_c, 0, 70, 120
1, 4845, Note_off_c, 0, 70, 120
1, 4848, Note_on_c, 0, 69, 112
1, 4889, Note_off_c, 0, 69, 112
1, 4917, Note_on_c, 0, 65, 105
1, 4943, Note_off_c, 0, 65, 105
1, 4957, Note_on_c, 0, 61, 97
1, 5007, Note_off_c, 0, 61, 97
1, 5076, Note_on_c, 0, 67, 124
1, 5121, Note_off_c, 0, 67, 124
1, 5123, Note_on_c, 0, 68, 121
1, 5167, Note_off_c, 0, 68, 121
1, 5169, Note_on_c, 0, 70, 118
1, 5204, Note_off_c, 0, 70, 118
1, 5220, Note_on_c, 0, 68, 117
1, 5256, Note_off_c, 0, 68, 117
1, 5268, Note_on_c, 0, 66, 115
1, 5361, Note_off_c, 0, 66, 115
1, 5378, Note_on_c, 0, 63, 118
1, 5450, Note_off_c, 0, 63, 118
1, 5459, Note_on_c, 0, 64, 120
1, 5552, Note_off_c, 0, 64, 120
1, 5559, Note_on_c, 0, 62, 101
1, 5596, Note_off_c, 0, 62, 101
1, 5933, Note_on_c, 0, 61, 94
1, 5969, Note_off_c, 0, 61, 94
1, 6005, Note_on_c, 0, 64, 123
1, 6097, Note_off_c, 0, 64, 123
1, 6127, Note_on_c, 0, 66, 122
1, 6239, Note_off_c, 0, 66, 122
1, 6243, Note_on_c, 0, 69, 112
1, 6274, Note_off_c, 0, 69, 112
1, 6279, Note_on_c, 0, 67, 117
1, 6325, Note_off_c, 0, 67, 117
1, 6330, Note_on_c, 0, 66, 114
1, 6395, Note_off_c, 0, 66, 114
1, 6407, Note_on_c, 0, 64, 116
1, 6504, Note_off_c, 0, 64, 116
1, 6523, Note_on_c, 0, 61, 88
1, 6565, Note_off_c, 0, 61, 88
1, 6600, Note_on_c, 0, 65, 118
1, 6668, Note_off_c, 0, 65, 118
1, 6670, Note_on_c, 0, 66, 120
1, 6757, Note_off_c, 0, 66, 120
1, 6770, Note_on_c, 0, 65, 118
1, 6867, Note_off_c, 0, 65, 118
1, 6888, Note_on_c, 0, 56, 104
1, 7124, Note_off_c, 0, 56, 104
1, 8184, Note_on_c, 0, 71, 122
1, 8243, Note_off_c, 0, 71, 122
1, 8281, Note_on_c, 0, 73, 119
1, 8323, Note_off_c, 0, 73, 119
1, 8335, Note_on_c, 0, 77, 103
1, 8364, Note_off_c, 0, 77, 103
1, 8372, Note_on_c, 0, 80, 121
1, 8443, Note_off_c, 0, 80, 121
1, 8482, Note_on_c, 0, 84, 125
1, 8563, Note_off_c, 0, 84, 125
1, 8571, Note_on_c, 0, 83, 124
1, 8645, Note_off_c, 0, 83, 124
1, 8664, Note_on_c, 0, 82, 124
1, 8740, Note_off_c, 0, 82, 124
1, 8772, Note_on_c, 0, 81, 124
1, 8841, Note_off_c, 0, 81, 124
1, 8862, Note_on_c, 0, 80, 120
1, 8898, Note_off_c, 0, 80, 120
1, 8901, Note_on_c, 0, 82, 123
1, 8941, Note_off_c, 0, 82, 123
1, 8942, Note_on_c, 0, 80, 118
1, 8961, Note_off_c, 0, 80, 118
1, 8965, Note_on_c, 0, 79, 121
1, 9036, Note_off_c, 0, 79, 121
1, 9044, Note_on_c, 0, 78, 120
1, 9138, Note_off_c, 0, 78, 120
1, 9145, Note_on_c, 0, 77, 122
1, 9208, Note_off_c, 0, 77, 122
1, 9216, Note_on_c, 0, 76, 121
1, 9251, Note_off_c, 0, 76, 121
1, 9256, Note_on_c, 0, 77, 123
1, 9276, Note_off_c, 0, 77, 123
1, 9279, Note_on_c, 0, 76, 123
1, 9321, Note_off_c, 0, 76, 123
1, 9328, Note_on_c, 0, 74, 121
1, 9399, Note_off_c, 0, 74, 121
1, 9417, Note_on_c, 0, 71, 117
1, 9453, Note_off_c, 0, 71, 117
1, 9462, Note_on_c, 0, 73, 98
1, 9480, Note_off_c, 0, 73, 98
1, 9488, Note_on_c, 0, 71, 114
1, 9519, Note_off_c, 0, 71, 114
1, 9522, Note_on_c, 0, 69, 116
1, 9545, Note_off_c, 0, 69, 116
1, 9560, Note_on_c, 0, 69, 113
1, 9599, Note_off_c, 0, 69, 113
1, 9629, Note_on_c, 0, 68, 117
1, 9706, Note_off_c, 0, 68, 117
1, 9719, Note_on_c, 0, 65, 112
1, 9781, Note_off_c, 0, 65, 112
1, 9790, Note_on_c, 0, 66, 102
1, 9865, Note_off_c, 0, 66, 102
1, 9880, Note_on_c, 0, 67, 118
1, 9944, Note_off_c, 0, 67, 118
1, 9971, Note_on_c, 0, 68, 104
1, 10056, Note_off_c, 0, 68, 104
1, 10062, Note_on_c, 0, 70, 120
1, 10136, Note_off_c, 0, 70, 120
1, 10150, Note_on_c, 0, 72, 108
1, 10229, Note_off_c, 0, 72, 108
1, 10249, Note_on_c, 0, 73, 122
1, 10327, Note_off_c, 0, 73, 122
1, 10339, Note_on_c, 0, 75, 123
1, 10420, Note_off_c, 0, 75, 123
1, 10426, Note_on_c, 0, 77, 118
1, 10493, Note_off_c, 0, 77, 118
1, 10511, Note_on_c, 0, 78, 121
1, 10600, Note_off_c, 0, 78, 121
1, 10609, Note_on_c, 0, 79, 124
1, 10684, Note_off_c, 0, 79, 124
1, 10700, Note_on_c, 0, 80, 119
1, 10785, Note_off_c, 0, 80, 119
1, 10852, Note_on_c, 0, 72, 95
1, 10880, Note_off_c, 0, 72, 95
1, 10897, Note_on_c, 0, 73, 124
1, 10984, Note_off_c, 0, 73, 124
1, 11001, Note_on_c, 0, 78, 122
1, 11086, Note_off_c, 0, 78, 122
1, 11090, Note_on_c, 0, 77, 118
1, 11160, Note_off_c, 0, 77, 118
1, 11183, Note_on_c, 0, 73, 123
1, 11241, Note_off_c, 0, 73, 123
1, 11256, Note_on_c, 0, 70, 117
1, 11351, Note_off_c, 0, 70, 117
1, 11376, Note_on_c, 0, 68, 98
1, 11410, Note_off_c, 0, 68, 98
1, 11450, Note_on_c, 0, 73, 108
1, 11653, Note_off_c, 0, 73, 108
1, 12139, Note_on_c, 0, 73, 125
1, 12212, Note_off_c, 0, 73, 125
1, 12233, Note_on_c, 0, 76, 120
1, 12262, Note_off_c, 0, 76, 120
1, 12266, Note_on_c, 0, 77, 124
1, 12340, Note_off_c, 0, 77, 124
1, 12346, Note_on_c, 0, 80, 125
1, 12414, Note_off_c, 0, 80, 125
1, 12428, Note_on_c, 0, 82, 125
1, 12531, Note_off_c, 0, 82, 125
1, 12618, Note_on_c, 0, 85, 127
1, 12748, Note_off_c, 0, 85, 127
1, 12819, Note_on_c, 0, 85, 124
1, 12914, Note_off_c, 0, 85, 124
1, 12917, Note_on_c, 0, 87, 100
1, 13032, Note_off_c, 0, 87, 100
1, 14094, Note_on_c, 0, 86, 126
1, 14161, Note_off_c, 0, 86, 126
1, 14165, Note_on_c, 0, 85, 125
1, 14215, Note_off_c, 0, 85, 125
1, 14283, Note_on_c, 0, 84, 123
1, 14361, Note_off_c, 0, 84, 123
1, 14453, Note_on_c, 0, 83, 122
1, 14516, Note_off_c, 0, 83, 122
1, 14519, Note_on_c, 0, 81, 117
1, 14548, Note_off_c, 0, 81, 117
1, 14554, Note_on_c, 0, 80, 124
1, 14638, Note_off_c, 0, 80, 124
1, 14641, Note_on_c, 0, 78, 124
1, 14705, Note_off_c, 0, 78, 124
1, 14731, Note_on_c, 0, 76, 125
1, 14821, Note_off_c, 0, 76, 125
1, 14828, Note_on_c, 0, 75, 124
1, 14900, Note_off_c, 0, 75, 124
1, 14923, Note_on_c, 0, 73, 117
1, 15006, Note_off_c, 0, 73, 117
1, 15016, Note_on_c, 0, 71, 119
1, 15095, Note_off_c, 0, 71, 119
1, 15113, Note_on_c, 0, 70, 119
1, 15189, Note_off_c, 0, 70, 119
1, 15193, Note_on_c, 0, 69, 121
1, 15255, Note_off_c, 0, 69, 121
1, 15282, Note_on_c, 0, 68, 105
1, 15317, Note_off_c, 0, 68, 105
1, 15337, Note_on_c, 0, 68, 121
1, 15376, Note_off_c, 0, 68, 121
1, 15385, Note_on_c, 0, 67, 118
1, 15452, Note_off_c, 0, 67, 118
1, 15480, Note_on_c, 0, 65, 114
1, 15506, Note_off_c, 0, 65, 114
1, 15507, Note_on_c, 0, 66, 117
1, 15560, Note_off_c, 0, 66, 117
1, 15600, Note_on_c, 0, 61, 87
1, 15631, Note_off_c, 0, 61, 87
1, 15795, Note_on_c, 0, 63, 124
1, 15822, Note_off_c, 0, 63, 124
1, 15823, Note_on_c, 0, 64, 121
1, 15885, Note_off_c, 0, 64, 121
1, 15890, Note_on_c, 0, 65, 118
1, 15960, Note_off_c, 0, 65, 118
1, 15979, Note_on_c, 0, 60, 97
1, 16007, Note_off_c, 0, 60, 97
1, 16019, Note_on_c, 0, 63, 110
1, 16149, Note_off_c, 0, 63, 110
1, 16230, Note_on_c, 0, 63, 98
1, 16267, Note_off_c, 0, 63, 98
1, 16304, Note_on_c, 0, 65, 98
1, 16332, Note_off_c, 0, 65, 98
1, 16339, Note_on_c, 0, 68, 119
1, 16391, Note_off_c, 0, 68, 119
1, 16422, Note_on_c, 0, 72, 122
1, 16520, Note_off_c, 0, 72, 122
1, 16529, Note_on_c, 0, 75, 122
1, 16603, Note_off_c, 0, 75, 122
1, 16634, Note_on_c, 0, 80, 122
1, 16712, Note_off_c, 0, 80, 122
1, 16722, Note_on_c, 0, 75, 121
1, 16793, Note_off_c, 0, 75, 121
1, 16823, Note_on_c, 0, 74, 121
1, 16909, Note_off_c, 0, 74, 121
1, 16941, Note_on_c, 0, 79, 122
1, 17033, Note_off_c, 0, 79, 122
1, 17096, Note_on_c, 0, 77, 123
1, 17177, Note_off_c, 0, 77, 123
1, 17184, Note_on_c, 0, 78, 124
1, 17261, Note_off_c, 0, 78, 124
1, 17291, Note_on_c, 0, 66, 95
1, 17328, Note_off_c, 0, 66, 95
1, 17370, Note_on_c, 0, 73, 121
1, 17452, Note_off_c, 0, 73, 121
1, 17454, Note_on_c, 0, 77, 124
1, 17533, Note_off_c, 0, 77, 124
1, 17550, Note_on_c, 0, 76, 115
1, 17565, Note_off_c, 0, 76, 115
1, 17568, Note_on_c, 0, 77, 120
1, 17603, Note_off_c, 0, 77, 120
1, 17606, Note_on_c, 0, 76, 120
1, 17649, Note_off_c, 0, 76, 120
1, 17654, Note_on_c, 0, 74, 123
1, 17714, Note_off_c, 0, 74, 123
1, 17749, Note_on_c, 0, 75, 118
1, 17820, Note_off_c, 0, 75, 118
1, 17833, Note_on_c, 0, 73, 114
1, 17903, Note_off_c, 0, 73, 114
1, 17925, Note_on_c, 0, 72, 117
1, 18012, Note_off_c, 0, 72, 117
1, 18023, Note_on_c, 0, 70, 121
1, 18090, Note_off_c, 0, 70, 121
1, 18093, Note_on_c, 0, 69, 107
1, 18126, Note_off_c, 0, 69, 107
1, 18129, Note_on_c, 0, 70, 116
1, 18168, Note_off_c, 0, 70, 116
1, 18169, Note_on_c, 0, 69, 117
1, 18210, Note_off_c, 0, 69, 117
1, 18214, Note_on_c, 0, 67, 114
1, 18276, Note_off_c, 0, 67, 114
1, 18297, Note_on_c, 0, 68, 111
1, 18355, Note_off_c, 0, 68, 111
1, 18405, Note_on_c, 0, 66, 116
1, 18442, Note_off_c, 0, 66, 116
1, 18498, Note_on_c, 0, 63, 99
1, 18554, Note_off_c, 0, 63, 99
1, 18575, Note_on_c, 0, 64, 115
1, 18643, Note_off_c, 0, 64, 115
1, 18666, Note_on_c, 0, 65, 113
1, 18749, Note_off_c, 0, 65, 113
1, 18778, Note_on_c, 0, 68, 100
1, 18821, Note_off_c, 0, 68, 100
1, 18847, Note_on_c, 0, 70, 120
1, 18941, Note_off_c, 0, 70, 120
1, 19041, Note_on_c, 0, 73, 123
1, 19165, Note_off_c, 0, 73, 123
1, 19429, Note_on_c, 0, 70, 122
1, 19481, Note_off_c, 0, 70, 122
1, 19485, Note_on_c, 0, 71, 119
1, 19532, Note_off_c, 0, 71, 119
1, 19543, Note_on_c, 0, 70, 120
1, 19600, Note_off_c, 0, 70, 120
1, 19616, Note_on_c, 0, 69, 116
1, 19699, Note_off_c, 0, 69, 116
1, 19704, Note_on_c, 0, 68, 118
1, 19767, Note_off_c, 0, 68, 118
1, 19781, Note_on_c, 0, 67, 111
1, 19879, Note_off_c, 0, 67, 111
1, 19879, End_track
0, 0, End_of_file
