0, 0, Header, 1, 1, 2520
1, 0, Start_track
1, 0, Title_t, "Melody"
1, 0, Tempo, 476190
1, 0, Time_signature, 4, 2, 24, 8
1, 40024, Note_on_c, 0, 62, 94
1, 41060, Note_off_c, 0, 62, 94
1, 41060, Note_on_c, 0, 64, 101
1, 42248, Note_off_c, 0, 64, 101
1, 42356, Note_on_c, 0, 62, 95
1, 43457, Note_off_c, 0, 62, 95
1, 43629, Note_on_c, 0, 69, 117
1, 44881, Note_off_c, 0, 69, 117
1, 44945, Note_on_c, 0, 71, 114
1, 46111, Note_off_c, 0, 71, 114
1, 46434, Note_on_c, 0, 62, 97
1, 48572, Note_off_c, 0, 62, 97
1, 48615, Note_on_c, 0, 64, 106
1, 50019, Note_off_c, 0, 64, 106
1, 50127, Note_on_c, 0, 62, 96
1, 51055, Note_off_c, 0, 62, 96
1, 51055, Note_on_c, 0, 67, 104
1, 79065, Note_off_c, 0, 67, 104
1, 79310, Note_on_c, 0, 67, 99
1, 79740, Note_off_c, 0, 67, 99
1, 79740, Note_on_c, 0, 69, 98
1, 80139, Note_off_c, 0, 69, 98
1, 80323, Note_on_c, 0, 72, 94
1, 80691, Note_off_c, 0, 72, 94
1, 80844, Note_on_c, 0, 74, 104
1, 81427, Note_on_c, 0, 72, 100
1, 81427, Note_off_c, 0, 74, 104
1, 81857, Note_off_c, 0, 72, 100
1, 82010, Note_on_c, 0, 69, 97
1, 82347, Note_off_c, 0, 69, 97
1, 82531, Note_on_c, 0, 67, 98
1, 85111, Note_off_c, 0, 67, 98
1, 85111, Note_on_c, 0, 66, 98
1, 85387, Note_off_c, 0, 66, 98
1, 85509, Note_on_c, 0, 65, 110
1, 85846, Note_off_c, 0, 65, 110
1, 85907, Note_on_c, 0, 64, 102
1, 86244, Note_off_c, 0, 64, 102
1, 86336, Note_on_c, 0, 62, 97
1, 86888, Note_off_c, 0, 62, 97
1, 87103, Note_on_c, 0, 60, 87
1, 91065, Note_off_c, 0, 60, 87
1, 101417, Note_on_c, 0, 74, 127
1, 103782, Note_off_c, 0, 74, 127
1, 103782, Note_on_c, 0, 76, 118
1, 105410, Note_on_c, 0, 74, 120
1, 105410, Note_off_c, 0, 76, 118
1, 106976, Note_off_c, 0, 74, 120
1, 107160, Note_on_c, 0, 76, 118
1, 108665, Note_off_c, 0, 76, 118
1, 108665, Note_on_c, 0, 74, 120
1, 109893, Note_off_c, 0, 74, 120
1, 110015, Note_on_c, 0, 76, 119
1, 111182, Note_off_c, 0, 76, 119
1, 111366, Note_on_c, 0, 74, 121
1, 112625, Note_off_c, 0, 74, 121
1, 112717, Note_on_c, 0, 83, 114
1, 114191, Note_off_c, 0, 83, 114
1, 114375, Note_on_c, 0, 81, 120
1, 115419, Note_off_c, 0, 81, 120
1, 116064, Note_on_c, 0, 81, 118
1, 125126, Note_off_c, 0, 81, 118
1, 127829, Note_on_c, 0, 74, 121
1, 128965, Note_off_c, 0, 74, 121
1, 129057, Note_on_c, 0, 76, 119
1, 130070, Note_off_c, 0, 76, 119
1, 130100, Note_on_c, 0, 74, 121
1, 131175, Note_off_c, 0, 74, 121
1, 131297, Note_on_c, 0, 83, 117
1, 132495, Note_off_c, 0, 83, 117
1, 132648, Note_on_c, 0, 81, 117
1, 133723, Note_off_c, 0, 81, 117
1, 134214, Note_on_c, 0, 81, 114
1, 135381, Note_off_c, 0, 81, 114
1, 135657, Note_on_c, 0, 72, 113
1, 136486, Note_off_c, 0, 72, 113
1, 136977, Note_on_c, 0, 72, 114
1, 138052, Note_off_c, 0, 72, 114
1, 138113, Note_on_c, 0, 74, 122
1, 139249, Note_off_c, 0, 74, 122
1, 139525, Note_on_c, 0, 74, 122
1, 140354, Note_off_c, 0, 74, 122
1, 140384, Note_on_c, 0, 72, 112
1, 141152, Note_off_c, 0, 72, 112
1, 141582, Note_on_c, 0, 79, 113
1, 142595, Note_off_c, 0, 79, 113
1, 142687, Note_on_c, 0, 77, 118
1, 143762, Note_off_c, 0, 77, 118
1, 144038, Note_on_c, 0, 77, 115
1, 159920, Note_off_c, 0, 77, 115
1, 159995, Note_on_c, 0, 74, 112
1, 160491, Note_off_c, 0, 74, 112
1, 160534, Note_on_c, 0, 72, 101
1, 160922, Note_off_c, 0, 72, 101
1, 161008, Note_on_c, 0, 70, 107
1, 161310, Note_off_c, 0, 70, 107
1, 161526, Note_on_c, 0, 69, 108
1, 161806, Note_off_c, 0, 69, 108
1, 161935, Note_on_c, 0, 67, 106
1, 163403, Note_off_c, 0, 67, 106
1, 163532, Note_on_c, 0, 68, 101
1, 164698, Note_off_c, 0, 68, 101
1, 164741, Note_on_c, 0, 67, 96
1, 165302, Note_off_c, 0, 67, 96
1, 165518, Note_on_c, 0, 65, 101
1, 166144, Note_off_c, 0, 65, 101
1, 166403, Note_on_c, 0, 63, 94
1, 166942, Note_off_c, 0, 63, 94
1, 167050, Note_on_c, 0, 62, 92
1, 167719, Note_off_c, 0, 62, 92
1, 167783, Note_on_c, 0, 63, 85
1, 168647, Note_off_c, 0, 63, 85
1, 168647, Note_on_c, 0, 60, 83
1, 175191, Note_off_c, 0, 60, 83
1, 183723, Note_on_c, 0, 65, 104
1, 187373, Note_off_c, 0, 65, 104
1, 187481, Note_on_c, 0, 68, 110
1, 188993, Note_off_c, 0, 68, 110
1, 189014, Note_on_c, 0, 65, 99
1, 189942, Note_off_c, 0, 65, 99
1, 189942, Note_on_c, 0, 68, 110
1, 192058, Note_off_c, 0, 68, 110
1, 192144, Note_on_c, 0, 72, 116
1, 197868, Note_off_c, 0, 72, 116
1, 198235, Note_on_c, 0, 72, 115
1, 199725, Note_off_c, 0, 72, 115
1, 199854, Note_on_c, 0, 73, 114
1, 201106, Note_off_c, 0, 73, 114
1, 201235, Note_on_c, 0, 75, 114
1, 202833, Note_off_c, 0, 75, 114
1, 203070, Note_on_c, 0, 77, 114
1, 204949, Note_off_c, 0, 77, 114
1, 205035, Note_on_c, 0, 70, 92
1, 222963, Note_off_c, 0, 70, 92
1, 223459, Note_on_c, 0, 71, 93
1, 224992, Note_off_c, 0, 71, 93
1, 225856, Note_on_c, 0, 70, 97
1, 227368, Note_off_c, 0, 70, 97
1, 228188, Note_on_c, 0, 71, 94
1, 229419, Note_off_c, 0, 71, 94
1, 230110, Note_on_c, 0, 71, 86
1, 230606, Note_off_c, 0, 71, 86
1, 230908, Note_on_c, 0, 70, 99
1, 232549, Note_off_c, 0, 70, 99
1, 233218, Note_on_c, 0, 71, 97
1, 235183, Note_off_c, 0, 71, 97
1, 235377, Note_on_c, 0, 71, 78
1, 235744, Note_off_c, 0, 71, 78
1, 235765, Note_on_c, 0, 70, 99
1, 237212, Note_off_c, 0, 70, 99
1, 237708, Note_on_c, 0, 68, 89
1, 240883, Note_off_c, 0, 68, 89
1, 240904, Note_on_c, 0, 70, 99
1, 242200, Note_off_c, 0, 70, 99
1, 242761, Note_on_c, 0, 71, 93
1, 246886, Note_off_c, 0, 71, 93
1, 247123, Note_on_c, 0, 68, 87
1, 247706, Note_off_c, 0, 68, 87
1, 247749, Note_on_c, 0, 65, 92
1, 248396, Note_off_c, 0, 65, 92
1, 248957, Note_on_c, 0, 70, 94
1, 249496, Note_off_c, 0, 70, 94
1, 249560, Note_on_c, 0, 68, 94
1, 250186, Note_off_c, 0, 68, 94
1, 250272, Note_on_c, 0, 63, 84
1, 251006, Note_off_c, 0, 63, 84
1, 251329, Note_on_c, 0, 61, 82
1, 252041, Note_off_c, 0, 61, 82
1, 252751, Note_on_c, 0, 63, 84
1, 254563, Note_off_c, 0, 63, 84
1, 265345, Note_on_c, 0, 64, 85
1, 266036, Note_off_c, 0, 64, 85
1, 267051, Note_on_c, 0, 64, 88
1, 268217, Note_off_c, 0, 64, 88
1, 268973, Note_on_c, 0, 64, 89
1, 283099, Note_off_c, 0, 64, 89
1, 283271, Note_on_c, 0, 65, 97
1, 283832, Note_off_c, 0, 65, 97
1, 283983, Note_on_c, 0, 67, 101
1, 284739, Note_off_c, 0, 67, 101
1, 284955, Note_on_c, 0, 69, 103
1, 290139, Note_off_c, 0, 69, 103
1, 290160, Note_on_c, 0, 67, 94
1, 290808, Note_off_c, 0, 67, 94
1, 290808, Note_on_c, 0, 65, 95
1, 291607, Note_off_c, 0, 65, 95
1, 291715, Note_on_c, 0, 64, 84
1, 301607, Note_off_c, 0, 64, 84
1, 305797, Note_on_c, 0, 63, 94
1, 306401, Note_off_c, 0, 63, 94
1, 306422, Note_on_c, 0, 62, 95
1, 307026, Note_off_c, 0, 62, 95
1, 307026, Note_on_c, 0, 60, 93
1, 307609, Note_off_c, 0, 60, 93
1, 308516, Note_on_c, 0, 60, 91
1, 309077, Note_off_c, 0, 60, 91
1, 309077, Note_on_c, 0, 62, 91
1, 309595, Note_off_c, 0, 62, 91
1, 309703, Note_on_c, 0, 63, 102
1, 310307, Note_off_c, 0, 63, 102
1, 310307, Note_on_c, 0, 65, 95
1, 310760, Note_off_c, 0, 65, 95
1, 310803, Note_on_c, 0, 67, 103
1, 311407, Note_off_c, 0, 67, 103
1, 311515, Note_on_c, 0, 69, 104
1, 312119, Note_off_c, 0, 69, 104
1, 312248, Note_on_c, 0, 70, 108
1, 312680, Note_off_c, 0, 70, 108
1, 312701, Note_on_c, 0, 72, 113
1, 313413, Note_off_c, 0, 72, 113
1, 313477, Note_on_c, 0, 74, 117
1, 314081, Note_off_c, 0, 74, 117
1, 314081, Note_on_c, 0, 75, 114
1, 315096, Note_off_c, 0, 75, 114
1, 315160, Note_on_c, 0, 77, 118
1, 316585, Note_off_c, 0, 77, 118
1, 316585, Note_on_c, 0, 74, 9
1, 317773, Note_off_c, 0, 74, 9
1, 317945, Note_on_c, 0, 74, 123
1, 323323, Note_off_c, 0, 74, 123
1, 323387, Note_on_c, 0, 72, 104
1, 323970, Note_off_c, 0, 72, 104
1, 324142, Note_on_c, 0, 70, 104
1, 324660, Note_off_c, 0, 70, 104
1, 325286, Note_on_c, 0, 74, 112
1, 325674, Note_off_c, 0, 74, 112
1, 325846, Note_on_c, 0, 72, 106
1, 326105, Note_off_c, 0, 72, 106
1, 326148, Note_on_c, 0, 70, 110
1, 326536, Note_off_c, 0, 70, 110
1, 326579, Note_on_c, 0, 68, 109
1, 326903, Note_off_c, 0, 68, 109
1, 327054, Note_on_c, 0, 67, 105
1, 331805, Note_off_c, 0, 67, 105
1, 342972, Note_on_c, 0, 76, 108
1, 343555, Note_off_c, 0, 76, 108
1, 343641, Note_on_c, 0, 79, 111
1, 344289, Note_off_c, 0, 79, 111
1, 344440, Note_on_c, 0, 83, 120
1, 345088, Note_off_c, 0, 83, 120
1, 345455, Note_on_c, 0, 76, 111
1, 346211, Note_off_c, 0, 76, 111
1, 346686, Note_on_c, 0, 79, 115
1, 347485, Note_off_c, 0, 79, 115
1, 347593, Note_on_c, 0, 83, 112
1, 348219, Note_off_c, 0, 83, 112
1, 348931, Note_on_c, 0, 76, 109
1, 349687, Note_off_c, 0, 76, 109
1, 350075, Note_on_c, 0, 81, 112
1, 350744, Note_off_c, 0, 81, 112
1, 351672, Note_on_c, 0, 83, 113
1, 352341, Note_off_c, 0, 83, 113
1, 353140, Note_on_c, 0, 83, 106
1, 354025, Note_off_c, 0, 83, 106
1, 354305, Note_on_c, 0, 84, 117
1, 355298, Note_off_c, 0, 84, 117
1, 355557, Note_on_c, 0, 83, 107
1, 356593, Note_off_c, 0, 83, 107
1, 357025, Note_on_c, 0, 79, 116
1, 357716, Note_off_c, 0, 79, 116
1, 357802, Note_on_c, 0, 81, 118
1, 358579, Note_off_c, 0, 81, 118
1, 359097, Note_on_c, 0, 83, 116
1, 359788, Note_off_c, 0, 83, 116
1, 360263, Note_on_c, 0, 83, 111
1, 360738, Note_off_c, 0, 83, 111
1, 361278, Note_on_c, 0, 84, 97
1, 361882, Note_off_c, 0, 84, 97
1, 361882, Note_on_c, 0, 83, 118
1, 362357, Note_off_c, 0, 83, 118
1, 362572, Note_on_c, 0, 83, 106
1, 363263, Note_off_c, 0, 83, 106
1, 363263, Note_on_c, 0, 79, 115
1, 363954, Note_off_c, 0, 79, 115
1, 364472, Note_on_c, 0, 83, 118
1, 365163, Note_off_c, 0, 83, 118
1, 365681, Note_on_c, 0, 83, 116
1, 366350, Note_off_c, 0, 83, 116
1, 366350, Note_on_c, 0, 84, 104
1, 366998, Note_off_c, 0, 84, 104
1, 367278, Note_on_c, 0, 83, 114
1, 367796, Note_off_c, 0, 83, 114
1, 367925, Note_on_c, 0, 79, 109
1, 368551, Note_off_c, 0, 79, 109
1, 369307, Note_on_c, 0, 83, 117
1, 369717, Note_off_c, 0, 83, 117
1, 370472, Note_on_c, 0, 84, 112
1, 371141, Note_off_c, 0, 84, 112
1, 371551, Note_on_c, 0, 83, 95
1, 372458, Note_off_c, 0, 83, 95
1, 372781, Note_on_c, 0, 79, 96
1, 373688, Note_off_c, 0, 79, 96
1, 373860, Note_on_c, 0, 77, 95
1, 374205, Note_off_c, 0, 77, 95
1, 374377, Note_on_c, 0, 81, 67
1, 374593, Note_off_c, 0, 81, 67
1, 374830, Note_on_c, 0, 83, 103
1, 375218, Note_off_c, 0, 83, 103
1, 375218, Note_on_c, 0, 85, 111
1, 375585, Note_off_c, 0, 85, 111
1, 375779, Note_on_c, 0, 86, 102
1, 376340, Note_off_c, 0, 86, 102
1, 376469, Note_on_c, 0, 84, 107
1, 376944, Note_off_c, 0, 84, 107
1, 377095, Note_on_c, 0, 84, 116
1, 377570, Note_off_c, 0, 84, 116
1, 377742, Note_on_c, 0, 83, 103
1, 378368, Note_off_c, 0, 83, 103
1, 378476, Note_on_c, 0, 81, 108
1, 379016, Note_off_c, 0, 81, 108
1, 379080, Note_on_c, 0, 79, 114
1, 379641, Note_off_c, 0, 79, 114
1, 379684, Note_on_c, 0, 78, 112
1, 380332, Note_off_c, 0, 78, 112
1, 380332, Note_on_c, 0, 73, 109
1, 380807, Note_off_c, 0, 73, 109
1, 380936, Note_on_c, 0, 74, 110
1, 381627, Note_off_c, 0, 74, 110
1, 381691, Note_on_c, 0, 73, 113
1, 382209, Note_off_c, 0, 73, 113
1, 382209, Note_on_c, 0, 72, 107
1, 382813, Note_off_c, 0, 72, 107
1, 382877, Note_on_c, 0, 70, 111
1, 383503, Note_off_c, 0, 70, 111
1, 383589, Note_on_c, 0, 69, 109
1, 384215, Note_off_c, 0, 69, 109
1, 384344, Note_on_c, 0, 67, 112
1, 384884, Note_off_c, 0, 67, 112
1, 384927, Note_on_c, 0, 65, 109
1, 385423, Note_off_c, 0, 65, 109
1, 385531, Note_on_c, 0, 64, 104
1, 386200, Note_off_c, 0, 64, 104
1, 386286, Note_on_c, 0, 63, 103
1, 386804, Note_off_c, 0, 63, 103
1, 386804, Note_on_c, 0, 62, 104
1, 387257, Note_off_c, 0, 62, 104
1, 387300, Note_on_c, 0, 60, 89
1, 387969, Note_off_c, 0, 60, 89
1, 387990, Note_on_c, 0, 63, 99
1, 388508, Note_off_c, 0, 63, 99
1, 388594, Note_on_c, 0, 67, 96
1, 389090, Note_off_c, 0, 67, 96
1, 389219, Note_on_c, 0, 69, 92
1, 389564, Note_off_c, 0, 69, 92
1, 389564, Note_on_c, 0, 73, 91
1, 389758, Note_off_c, 0, 73, 91
1, 389887, Note_on_c, 0, 75, 115
1, 390362, Note_on_c, 0, 77, 110
1, 390362, Note_off_c, 0, 75, 115
1, 390923, Note_off_c, 0, 77, 110
1, 391592, Note_on_c, 0, 72, 112
1, 391916, Note_off_c, 0, 72, 112
1, 391916, Note_on_c, 0, 74, 110
1, 392110, Note_off_c, 0, 74, 110
1, 392174, Note_on_c, 0, 75, 111
1, 392411, Note_off_c, 0, 75, 111
1, 392411, Note_on_c, 0, 77, 107
1, 392821, Note_off_c, 0, 77, 107
1, 393209, Note_on_c, 0, 72, 74
1, 393576, Note_off_c, 0, 72, 74
1, 393640, Note_on_c, 0, 74, 114
1, 393877, Note_off_c, 0, 74, 114
1, 393941, Note_on_c, 0, 75, 112
1, 394157, Note_off_c, 0, 75, 112
1, 394394, Note_on_c, 0, 77, 107
1, 394847, Note_off_c, 0, 77, 107
1, 395754, Note_on_c, 0, 72, 73
1, 395991, Note_off_c, 0, 72, 73
1, 396077, Note_on_c, 0, 74, 88
1, 396314, Note_off_c, 0, 74, 88
1, 396529, Note_on_c, 0, 75, 105
1, 396874, Note_off_c, 0, 75, 105
1, 397198, Note_on_c, 0, 74, 81
1, 397565, Note_off_c, 0, 74, 81
1, 397802, Note_on_c, 0, 75, 118
1, 398190, Note_off_c, 0, 75, 118
1, 398190, Note_on_c, 0, 77, 104
1, 398557, Note_off_c, 0, 77, 104
1, 398902, Note_on_c, 0, 75, 109
1, 399139, Note_off_c, 0, 75, 109
1, 399311, Note_on_c, 0, 74, 108
1, 399505, Note_off_c, 0, 74, 108
1, 399807, Note_on_c, 0, 75, 110
1, 400087, Note_off_c, 0, 75, 110
1, 400346, Note_on_c, 0, 72, 70
1, 400605, Note_off_c, 0, 72, 70
1, 400691, Note_on_c, 0, 74, 109
1, 401015, Note_off_c, 0, 74, 109
1, 401231, Note_on_c, 0, 77, 83
1, 401792, Note_off_c, 0, 77, 83
1, 402202, Note_on_c, 0, 79, 108
1, 402612, Note_off_c, 0, 79, 108
1, 402655, Note_on_c, 0, 77, 98
1, 403022, Note_on_c, 0, 75, 111
1, 403022, Note_off_c, 0, 77, 98
1, 403432, Note_off_c, 0, 75, 111
1, 403626, Note_on_c, 0, 77, 97
1, 404058, Note_off_c, 0, 77, 97
1, 404058, Note_on_c, 0, 75, 104
1, 404317, Note_off_c, 0, 75, 104
1, 404403, Note_on_c, 0, 74, 101
1, 404748, Note_off_c, 0, 74, 101
1, 405007, Note_on_c, 0, 75, 108
1, 405287, Note_off_c, 0, 75, 108
1, 405395, Note_on_c, 0, 73, 99
1, 405675, Note_off_c, 0, 73, 99
1, 405675, Note_on_c, 0, 72, 100
1, 406063, Note_off_c, 0, 72, 100
1, 406214, Note_on_c, 0, 74, 106
1, 406365, Note_off_c, 0, 74, 106
1, 406429, Note_on_c, 0, 72, 101
1, 406688, Note_off_c, 0, 72, 101
1, 406796, Note_on_c, 0, 70, 108
1, 407141, Note_off_c, 0, 70, 108
1, 407227, Note_on_c, 0, 72, 100
1, 407529, Note_off_c, 0, 72, 100
1, 407529, Note_on_c, 0, 70, 84
1, 407723, Note_off_c, 0, 70, 84
1, 407723, Note_on_c, 0, 69, 98
1, 408003, Note_off_c, 0, 69, 98
1, 408046, Note_on_c, 0, 67, 105
1, 408326, Note_off_c, 0, 67, 105
1, 408494, Note_on_c, 0, 63, 90
1, 408818, Note_off_c, 0, 63, 90
1, 408908, Note_on_c, 0, 62, 99
1, 409188, Note_off_c, 0, 62, 99
1, 409188, Note_on_c, 0, 60, 97
1, 409576, Note_off_c, 0, 60, 97
1, 409576, Note_on_c, 0, 58, 96
1, 409964, Note_off_c, 0, 58, 96
1, 410007, Note_on_c, 0, 57, 103
1, 410266, Note_off_c, 0, 57, 103
1, 410309, Note_on_c, 0, 55, 93
1, 410827, Note_off_c, 0, 55, 93
1, 414887, Note_on_c, 0, 79, 51
1, 415124, Note_off_c, 0, 79, 51
1, 415188, Note_on_c, 0, 80, 114
1, 415814, Note_off_c, 0, 80, 114
1, 415829, Note_on_c, 0, 79, 107
1, 416044, Note_off_c, 0, 79, 107
1, 416136, Note_on_c, 0, 78, 108
1, 416381, Note_off_c, 0, 78, 108
1, 416525, Note_on_c, 0, 75, 89
1, 416870, Note_off_c, 0, 75, 89
1, 416977, Note_on_c, 0, 76, 113
1, 417538, Note_off_c, 0, 76, 113
1, 417624, Note_on_c, 0, 75, 116
1, 418164, Note_off_c, 0, 75, 116
1, 418228, Note_on_c, 0, 74, 112
1, 418789, Note_off_c, 0, 74, 112
1, 418853, Note_on_c, 0, 72, 111
1, 419371, Note_on_c, 0, 70, 112
1, 419371, Note_off_c, 0, 72, 111
1, 420018, Note_off_c, 0, 70, 112
1, 420018, Note_on_c, 0, 69, 109
1, 420730, Note_off_c, 0, 69, 109
1, 420773, Note_on_c, 0, 67, 110
1, 421464, Note_off_c, 0, 67, 110
1, 421485, Note_on_c, 0, 65, 108
1, 422133, Note_off_c, 0, 65, 108
1, 422133, Note_on_c, 0, 64, 111
1, 422716, Note_off_c, 0, 64, 111
1, 422737, Note_on_c, 0, 63, 99
1, 423428, Note_off_c, 0, 63, 99
1, 423428, Note_on_c, 0, 62, 109
1, 423959, Note_on_c, 0, 60, 100
1, 423959, Note_off_c, 0, 62, 109
1, 424563, Note_off_c, 0, 60, 100
1, 424657, Note_on_c, 0, 58, 102
1, 425261, Note_off_c, 0, 58, 102
1, 425304, Note_on_c, 0, 57, 99
1, 426016, Note_off_c, 0, 57, 99
1, 426793, Note_on_c, 0, 57, 97
1, 427376, Note_off_c, 0, 57, 97
1, 428175, Note_on_c, 0, 57, 103
1, 428542, Note_off_c, 0, 57, 103
1, 428758, Note_on_c, 0, 60, 103
1, 429276, Note_off_c, 0, 60, 103
1, 429362, Note_on_c, 0, 61, 100
1, 429858, Note_off_c, 0, 61, 100
1, 429858, Note_on_c, 0, 62, 102
1, 430506, Note_off_c, 0, 62, 102
1, 430527, Note_on_c, 0, 64, 103
1, 431196, Note_on_c, 0, 66, 108
1, 431196, Note_off_c, 0, 64, 103
1, 431714, Note_off_c, 0, 66, 108
1, 431778, Note_on_c, 0, 67, 105
1, 432296, Note_off_c, 0, 67, 105
1, 432403, Note_on_c, 0, 69, 95
1, 432964, Note_off_c, 0, 69, 95
1, 433007, Note_on_c, 0, 71, 117
1, 433482, Note_off_c, 0, 71, 117
1, 433568, Note_on_c, 0, 72, 115
1, 433956, Note_off_c, 0, 72, 115
1, 433977, Note_on_c, 0, 73, 117
1, 434603, Note_off_c, 0, 73, 117
1, 434667, Note_on_c, 0, 74, 108
1, 435811, Note_off_c, 0, 74, 108
1, 435811, Note_on_c, 0, 71, 103
1, 437301, Note_off_c, 0, 71, 103
1, 437399, Note_on_c, 0, 68, 108
1, 438059, Note_off_c, 0, 68, 108
1, 438181, Note_on_c, 0, 69, 104
1, 438856, Note_off_c, 0, 69, 104
1, 438994, Note_on_c, 0, 68, 104
1, 439500, Note_off_c, 0, 68, 104
1, 439807, Note_on_c, 0, 69, 108
1, 441097, Note_off_c, 0, 69, 108
1, 441588, Note_on_c, 0, 63, 105
1, 442908, Note_off_c, 0, 63, 105
1, 442984, Note_on_c, 0, 64, 99
1, 444412, Note_off_c, 0, 64, 99
1, 444550, Note_on_c, 0, 61, 90
1, 445379, Note_off_c, 0, 61, 90
1, 445609, Note_on_c, 0, 62, 90
1, 446515, Note_off_c, 0, 62, 90
1, 446714, Note_on_c, 0, 64, 90
1, 450953, Note_off_c, 0, 64, 90
1, 457158, Note_on_c, 0, 68, 119
1, 457618, Note_off_c, 0, 68, 119
1, 457771, Note_on_c, 0, 69, 119
1, 458339, Note_off_c, 0, 69, 119
1, 458385, Note_on_c, 0, 66, 117
1, 460059, Note_off_c, 0, 66, 117
1, 460243, Note_on_c, 0, 64, 111
1, 460703, Note_off_c, 0, 64, 111
1, 460841, Note_on_c, 0, 60, 100
1, 461271, Note_off_c, 0, 60, 100
1, 461271, Note_on_c, 0, 62, 100
1, 461839, Note_off_c, 0, 62, 100
1, 462161, Note_on_c, 0, 61, 107
1, 462698, Note_off_c, 0, 61, 107
1, 462713, Note_on_c, 0, 62, 108
1, 463219, Note_off_c, 0, 62, 108
1, 463219, Note_on_c, 0, 57, 105
1, 464094, Note_off_c, 0, 57, 105
1, 468410, Note_on_c, 0, 61, 105
1, 468901, Note_off_c, 0, 61, 105
1, 469008, Note_on_c, 0, 63, 109
1, 469468, Note_off_c, 0, 63, 109
1, 469514, Note_on_c, 0, 67, 114
1, 470066, Note_off_c, 0, 67, 114
1, 470234, Note_on_c, 0, 70, 107
1, 470725, Note_off_c, 0, 70, 107
1, 470878, Note_on_c, 0, 74, 113
1, 471277, Note_off_c, 0, 74, 113
1, 471369, Note_on_c, 0, 75, 123
1, 471691, Note_off_c, 0, 75, 123
1, 471752, Note_on_c, 0, 76, 107
1, 471967, Note_off_c, 0, 76, 107
1, 472166, Note_on_c, 0, 77, 116
1, 474485, Note_off_c, 0, 77, 116
1, 474500, Note_on_c, 0, 74, 109
1, 474761, Note_off_c, 0, 74, 109
1, 474883, Note_on_c, 0, 75, 118
1, 475067, Note_off_c, 0, 75, 118
1, 475189, Note_on_c, 0, 76, 117
1, 475388, Note_off_c, 0, 76, 117
1, 475449, Note_on_c, 0, 77, 118
1, 475955, Note_off_c, 0, 77, 118
1, 476031, Note_on_c, 0, 72, 111
1, 476384, Note_off_c, 0, 72, 111
1, 476430, Note_on_c, 0, 74, 103
1, 476614, Note_off_c, 0, 74, 103
1, 476706, Note_on_c, 0, 75, 119
1, 477397, Note_off_c, 0, 75, 119
1, 477550, Note_on_c, 0, 70, 101
1, 477934, Note_off_c, 0, 70, 101
1, 477980, Note_on_c, 0, 72, 117
1, 478271, Note_off_c, 0, 72, 117
1, 478332, Note_on_c, 0, 74, 110
1, 478992, Note_off_c, 0, 74, 110
1, 479084, Note_on_c, 0, 67, 108
1, 479452, Note_off_c, 0, 67, 108
1, 479544, Note_on_c, 0, 69, 110
1, 479851, Note_off_c, 0, 69, 110
1, 479927, Note_on_c, 0, 70, 107
1, 480234, Note_off_c, 0, 70, 107
1, 480571, Note_on_c, 0, 63, 104
1, 480893, Note_off_c, 0, 63, 104
1, 480954, Note_on_c, 0, 65, 103
1, 481353, Note_off_c, 0, 65, 103
1, 481368, Note_on_c, 0, 67, 106
1, 482028, Note_off_c, 0, 67, 106
1, 482596, Note_on_c, 0, 60, 95
1, 482903, Note_off_c, 0, 60, 95
1, 482949, Note_on_c, 0, 62, 92
1, 483302, Note_off_c, 0, 62, 92
1, 483470, Note_on_c, 0, 63, 107
1, 484007, Note_off_c, 0, 63, 107
1, 484099, Note_on_c, 0, 62, 102
1, 484314, Note_off_c, 0, 62, 102
1, 484406, Note_on_c, 0, 63, 107
1, 484805, Note_off_c, 0, 63, 107
1, 484851, Note_on_c, 0, 65, 104
1, 485127, Note_off_c, 0, 65, 104
1, 485188, Note_on_c, 0, 63, 108
1, 485418, Note_off_c, 0, 63, 108
1, 485464, Note_on_c, 0, 65, 93
1, 485801, Note_off_c, 0, 65, 93
1, 485985, Note_on_c, 0, 67, 80
1, 486430, Note_off_c, 0, 67, 80
1, 486568, Note_on_c, 0, 65, 102
1, 486875, Note_off_c, 0, 65, 102
1, 486967, Note_on_c, 0, 67, 99
1, 487320, Note_off_c, 0, 67, 99
1, 487473, Note_on_c, 0, 69, 102
1, 487795, Note_off_c, 0, 69, 102
1, 487841, Note_on_c, 0, 67, 102
1, 488102, Note_off_c, 0, 67, 102
1, 488194, Note_on_c, 0, 69, 99
1, 488439, Note_off_c, 0, 69, 99
1, 488485, Note_on_c, 0, 70, 106
1, 488822, Note_off_c, 0, 70, 106
1, 488929, Note_on_c, 0, 69, 107
1, 489236, Note_off_c, 0, 69, 107
1, 489328, Note_on_c, 0, 70, 100
1, 489512, Note_off_c, 0, 70, 100
1, 489558, Note_on_c, 0, 72, 104
1, 489942, Note_off_c, 0, 72, 104
1, 489972, Note_on_c, 0, 70, 105
1, 490279, Note_off_c, 0, 70, 105
1, 490325, Note_on_c, 0, 72, 105
1, 490693, Note_off_c, 0, 72, 105
1, 490769, Note_on_c, 0, 74, 111
1, 491122, Note_off_c, 0, 74, 111
1, 491244, Note_on_c, 0, 72, 110
1, 491535, Note_off_c, 0, 72, 110
1, 491719, Note_on_c, 0, 76, 90
1, 492149, Note_off_c, 0, 76, 90
1, 492333, Note_on_c, 0, 74, 119
1, 492670, Note_off_c, 0, 74, 119
1, 492792, Note_on_c, 0, 75, 119
1, 493129, Note_off_c, 0, 75, 119
1, 493144, Note_on_c, 0, 77, 119
1, 493282, Note_off_c, 0, 77, 119
1, 493389, Note_on_c, 0, 79, 111
1, 493819, Note_off_c, 0, 79, 111
1, 493819, Note_on_c, 0, 77, 112
1, 494126, Note_off_c, 0, 77, 112
1, 494233, Note_on_c, 0, 74, 95
1, 494632, Note_off_c, 0, 74, 95
1, 494847, Note_on_c, 0, 78, 98
1, 495154, Note_off_c, 0, 78, 98
1, 495322, Note_on_c, 0, 74, 115
1, 495598, Note_off_c, 0, 74, 115
1, 495690, Note_on_c, 0, 75, 106
1, 495874, Note_off_c, 0, 75, 106
1, 495950, Note_on_c, 0, 74, 111
1, 496241, Note_off_c, 0, 74, 111
1, 496333, Note_on_c, 0, 72, 109
1, 496655, Note_off_c, 0, 72, 109
1, 496670, Note_on_c, 0, 70, 107
1, 496977, Note_off_c, 0, 70, 107
1, 496992, Note_on_c, 0, 69, 110
1, 497253, Note_off_c, 0, 69, 110
1, 497283, Note_on_c, 0, 67, 106
1, 497590, Note_off_c, 0, 67, 106
1, 497636, Note_on_c, 0, 65, 105
1, 497835, Note_off_c, 0, 65, 105
1, 497911, Note_on_c, 0, 64, 117
1, 498079, Note_off_c, 0, 64, 117
1, 498324, Note_on_c, 0, 63, 106
1, 498508, Note_off_c, 0, 63, 106
1, 498554, Note_on_c, 0, 62, 101
1, 498692, Note_off_c, 0, 62, 101
1, 498707, Note_on_c, 0, 60, 100
1, 498891, Note_off_c, 0, 60, 100
1, 498921, Note_on_c, 0, 58, 103
1, 499182, Note_off_c, 0, 58, 103
1, 499258, Note_on_c, 0, 56, 95
1, 499626, Note_off_c, 0, 56, 95
1, 499779, Note_on_c, 0, 57, 99
1, 500009, Note_off_c, 0, 57, 99
1, 500254, Note_on_c, 0, 58, 109
1, 500515, Note_off_c, 0, 58, 109
1, 500515, Note_on_c, 0, 60, 102
1, 500668, Note_off_c, 0, 60, 102
1, 500883, Note_on_c, 0, 62, 104
1, 501067, Note_off_c, 0, 62, 104
1, 501159, Note_on_c, 0, 63, 96
1, 501389, Note_off_c, 0, 63, 96
1, 501465, Note_on_c, 0, 64, 106
1, 501756, Note_off_c, 0, 64, 106
1, 501832, Note_on_c, 0, 67, 97
1, 502031, Note_off_c, 0, 67, 97
1, 502123, Note_on_c, 0, 68, 100
1, 502384, Note_off_c, 0, 68, 100
1, 502476, Note_on_c, 0, 70, 108
1, 502783, Note_off_c, 0, 70, 108
1, 502798, Note_on_c, 0, 72, 107
1, 503289, Note_off_c, 0, 72, 107
1, 503304, Note_on_c, 0, 69, 109
1, 503503, Note_off_c, 0, 69, 109
1, 503656, Note_on_c, 0, 72, 113
1, 504101, Note_off_c, 0, 72, 113
1, 504131, Note_on_c, 0, 70, 109
1, 504315, Note_off_c, 0, 70, 109
1, 504361, Note_on_c, 0, 68, 105
1, 504683, Note_off_c, 0, 68, 105
1, 504759, Note_on_c, 0, 67, 110
1, 505004, Note_on_c, 0, 65, 110
1, 505004, Note_off_c, 0, 67, 110
1, 505265, Note_off_c, 0, 65, 110
1, 505295, Note_on_c, 0, 64, 102
1, 505602, Note_off_c, 0, 64, 102
1, 505602, Note_on_c, 0, 62, 110
1, 505970, Note_off_c, 0, 62, 110
1, 506031, Note_on_c, 0, 61, 110
1, 506353, Note_off_c, 0, 61, 110
1, 506429, Note_on_c, 0, 60, 110
1, 506705, Note_off_c, 0, 60, 110
1, 506797, Note_on_c, 0, 58, 114
1, 507042, Note_off_c, 0, 58, 114
1, 507042, Note_on_c, 0, 60, 98
1, 507303, Note_off_c, 0, 60, 98
1, 507303, Note_on_c, 0, 61, 104
1, 507564, Note_off_c, 0, 61, 104
1, 507640, Note_on_c, 0, 63, 111
1, 507962, Note_off_c, 0, 63, 111
1, 507992, Note_on_c, 0, 65, 111
1, 508191, Note_off_c, 0, 65, 111
1, 508267, Note_on_c, 0, 67, 109
1, 508589, Note_off_c, 0, 67, 109
1, 508635, Note_on_c, 0, 68, 110
1, 508911, Note_off_c, 0, 68, 110
1, 508972, Note_on_c, 0, 70, 100
1, 509140, Note_off_c, 0, 70, 100
1, 509278, Note_on_c, 0, 72, 112
1, 509708, Note_off_c, 0, 72, 112
1, 509769, Note_on_c, 0, 69, 109
1, 509999, Note_off_c, 0, 69, 109
1, 510091, Note_on_c, 0, 72, 111
1, 510459, Note_off_c, 0, 72, 111
1, 510597, Note_on_c, 0, 70, 101
1, 510827, Note_off_c, 0, 70, 101
1, 510827, Note_on_c, 0, 68, 109
1, 511057, Note_off_c, 0, 68, 109
1, 511149, Note_on_c, 0, 67, 109
1, 511364, Note_off_c, 0, 67, 109
1, 511517, Note_on_c, 0, 65, 106
1, 511854, Note_off_c, 0, 65, 106
1, 511961, Note_on_c, 0, 63, 111
1, 512375, Note_off_c, 0, 63, 111
1, 512375, Note_on_c, 0, 61, 119
1, 512636, Note_off_c, 0, 61, 119
1, 512712, Note_on_c, 0, 60, 114
1, 513003, Note_off_c, 0, 60, 114
1, 513049, Note_on_c, 0, 58, 108
1, 513310, Note_off_c, 0, 58, 108
1, 513417, Note_on_c, 0, 60, 106
1, 513585, Note_off_c, 0, 60, 106
1, 513615, Note_on_c, 0, 61, 97
1, 513845, Note_off_c, 0, 61, 97
1, 513967, Note_on_c, 0, 63, 97
1, 514212, Note_off_c, 0, 63, 97
1, 514380, Note_on_c, 0, 65, 107
1, 514625, Note_off_c, 0, 65, 107
1, 514717, Note_on_c, 0, 67, 101
1, 514978, Note_off_c, 0, 67, 101
1, 515131, Note_on_c, 0, 68, 100
1, 515376, Note_off_c, 0, 68, 100
1, 515437, Note_on_c, 0, 70, 107
1, 515682, Note_off_c, 0, 70, 107
1, 515758, Note_on_c, 0, 72, 111
1, 516111, Note_off_c, 0, 72, 111
1, 516172, Note_on_c, 0, 69, 98
1, 516479, Note_off_c, 0, 69, 98
1, 516509, Note_on_c, 0, 72, 109
1, 516969, Note_off_c, 0, 72, 109
1, 516984, Note_on_c, 0, 70, 100
1, 517337, Note_off_c, 0, 70, 100
1, 517352, Note_on_c, 0, 68, 108
1, 517536, Note_off_c, 0, 68, 108
1, 517597, Note_on_c, 0, 67, 106
1, 517934, Note_off_c, 0, 67, 106
1, 517964, Note_on_c, 0, 65, 108
1, 518163, Note_off_c, 0, 65, 108
1, 518178, Note_on_c, 0, 63, 107
1, 518393, Note_off_c, 0, 63, 107
1, 518408, Note_on_c, 0, 61, 105
1, 518653, Note_off_c, 0, 61, 105
1, 518745, Note_on_c, 0, 60, 104
1, 519036, Note_off_c, 0, 60, 104
1, 519097, Note_on_c, 0, 58, 103
1, 519419, Note_off_c, 0, 58, 103
1, 519557, Note_on_c, 0, 57, 110
1, 519833, Note_off_c, 0, 57, 110
1, 524302, Note_on_c, 0, 60, 95
1, 524655, Note_off_c, 0, 60, 95
1, 524885, Note_on_c, 0, 61, 93
1, 525222, Note_off_c, 0, 61, 93
1, 525329, Note_on_c, 0, 63, 99
1, 525590, Note_off_c, 0, 63, 99
1, 525728, Note_on_c, 0, 65, 98
1, 525989, Note_off_c, 0, 65, 98
1, 526157, Note_on_c, 0, 67, 108
1, 526464, Note_off_c, 0, 67, 108
1, 526648, Note_on_c, 0, 70, 93
1, 526847, Note_off_c, 0, 70, 93
1, 527077, Note_on_c, 0, 72, 107
1, 527399, Note_off_c, 0, 72, 107
1, 527798, Note_on_c, 0, 68, 106
1, 528135, Note_off_c, 0, 68, 106
1, 528196, Note_on_c, 0, 70, 100
1, 528533, Note_off_c, 0, 70, 100
1, 528655, Note_on_c, 0, 68, 105
1, 528870, Note_off_c, 0, 68, 105
1, 528946, Note_on_c, 0, 67, 108
1, 529222, Note_off_c, 0, 67, 108
1, 529237, Note_on_c, 0, 65, 106
1, 529544, Note_on_c, 0, 63, 107
1, 529544, Note_off_c, 0, 65, 106
1, 529789, Note_off_c, 0, 63, 107
1, 529789, Note_on_c, 0, 62, 109
1, 530019, Note_off_c, 0, 62, 109
1, 530034, Note_on_c, 0, 61, 105
1, 530233, Note_off_c, 0, 61, 105
1, 530263, Note_on_c, 0, 60, 107
1, 530416, Note_off_c, 0, 60, 107
1, 530462, Note_on_c, 0, 58, 101
1, 530661, Note_off_c, 0, 58, 101
1, 530829, Note_on_c, 0, 57, 104
1, 531090, Note_off_c, 0, 57, 104
1, 531151, Note_on_c, 0, 58, 99
1, 531473, Note_off_c, 0, 58, 99
1, 531488, Note_on_c, 0, 60, 105
1, 531779, Note_off_c, 0, 60, 105
1, 531779, Note_on_c, 0, 63, 99
1, 532040, Note_off_c, 0, 63, 99
1, 532070, Note_on_c, 0, 65, 100
1, 532331, Note_off_c, 0, 65, 100
1, 532469, Note_on_c, 0, 66, 98
1, 532760, Note_off_c, 0, 66, 98
1, 532882, Note_on_c, 0, 68, 100
1, 533127, Note_off_c, 0, 68, 100
1, 533265, Note_on_c, 0, 70, 97
1, 533618, Note_off_c, 0, 70, 97
1, 533664, Note_on_c, 0, 72, 109
1, 534063, Note_off_c, 0, 72, 109
1, 534170, Note_on_c, 0, 69, 110
1, 534338, Note_off_c, 0, 69, 110
1, 534460, Note_on_c, 0, 75, 101
1, 534690, Note_off_c, 0, 75, 101
1, 534812, Note_on_c, 0, 72, 109
1, 535073, Note_off_c, 0, 72, 109
1, 535119, Note_on_c, 0, 70, 112
1, 535287, Note_off_c, 0, 70, 112
1, 535333, Note_on_c, 0, 68, 113
1, 535563, Note_off_c, 0, 68, 113
1, 535563, Note_on_c, 0, 67, 113
1, 535793, Note_off_c, 0, 67, 113
1, 535915, Note_on_c, 0, 65, 111
1, 536130, Note_off_c, 0, 65, 111
1, 536176, Note_on_c, 0, 63, 108
1, 536391, Note_off_c, 0, 63, 108
1, 536559, Note_on_c, 0, 62, 108
1, 536850, Note_off_c, 0, 62, 108
1, 536972, Note_on_c, 0, 61, 106
1, 537555, Note_off_c, 0, 61, 106
1, 537585, Note_on_c, 0, 58, 107
1, 537938, Note_off_c, 0, 58, 107
1, 537999, Note_on_c, 0, 60, 106
1, 538260, Note_off_c, 0, 60, 106
1, 538382, Note_on_c, 0, 61, 107
1, 538550, Note_off_c, 0, 61, 107
1, 538657, Note_on_c, 0, 63, 106
1, 538918, Note_off_c, 0, 63, 106
1, 539056, Note_on_c, 0, 65, 112
1, 539271, Note_off_c, 0, 65, 112
1, 539424, Note_on_c, 0, 67, 107
1, 539654, Note_off_c, 0, 67, 107
1, 539684, Note_on_c, 0, 68, 107
1, 539960, Note_off_c, 0, 68, 107
1, 540067, Note_on_c, 0, 70, 105
1, 540282, Note_off_c, 0, 70, 105
1, 540374, Note_on_c, 0, 72, 95
1, 540834, Note_off_c, 0, 72, 95
1, 541018, Note_on_c, 0, 69, 110
1, 541340, Note_off_c, 0, 69, 110
1, 541340, Note_on_c, 0, 72, 101
1, 541770, Note_off_c, 0, 72, 101
1, 541785, Note_on_c, 0, 70, 102
1, 542153, Note_off_c, 0, 70, 102
1, 542168, Note_on_c, 0, 68, 108
1, 542429, Note_off_c, 0, 68, 108
1, 542429, Note_on_c, 0, 67, 104
1, 542690, Note_off_c, 0, 67, 104
1, 542736, Note_on_c, 0, 65, 111
1, 543073, Note_off_c, 0, 65, 111
1, 543149, Note_on_c, 0, 64, 104
1, 543410, Note_off_c, 0, 64, 104
1, 543440, Note_on_c, 0, 62, 99
1, 543639, Note_off_c, 0, 62, 99
1, 543746, Note_on_c, 0, 61, 93
1, 544053, Note_off_c, 0, 61, 93
1, 544237, Note_on_c, 0, 63, 94
1, 544421, Note_off_c, 0, 63, 94
1, 544421, Note_on_c, 0, 64, 101
1, 544559, Note_off_c, 0, 64, 101
1, 544674, Note_on_c, 0, 66, 106
1, 544766, Note_off_c, 0, 66, 106
1, 544827, Note_on_c, 0, 68, 100
1, 544915, Note_off_c, 0, 68, 100
1, 544915, Note_on_c, 0, 69, 100
1, 545114, Note_off_c, 0, 69, 100
1, 545240, Note_on_c, 0, 71, 90
1, 545531, Note_off_c, 0, 71, 90
1, 545707, Note_on_c, 0, 69, 100
1, 545799, Note_off_c, 0, 69, 100
1, 545879, Note_on_c, 0, 68, 93
1, 545955, Note_off_c, 0, 68, 93
1, 545955, Note_on_c, 0, 66, 105
1, 546047, Note_off_c, 0, 66, 105
1, 546150, Note_on_c, 0, 65, 96
1, 546395, Note_off_c, 0, 65, 96
1, 546456, Note_on_c, 0, 63, 106
1, 546624, Note_off_c, 0, 63, 106
1, 546624, Note_on_c, 0, 69, 102
1, 547023, Note_off_c, 0, 69, 102
1, 547092, Note_on_c, 0, 67, 104
1, 547284, Note_off_c, 0, 67, 104
1, 547284, Note_on_c, 0, 69, 108
1, 547668, Note_off_c, 0, 69, 108
1, 547836, Note_on_c, 0, 75, 110
1, 548266, Note_off_c, 0, 75, 110
1, 548312, Note_on_c, 0, 73, 113
1, 548573, Note_off_c, 0, 73, 113
1, 548695, Note_on_c, 0, 71, 107
1, 548910, Note_off_c, 0, 71, 107
1, 549002, Note_on_c, 0, 70, 108
1, 549447, Note_off_c, 0, 70, 108
1, 549477, Note_on_c, 0, 68, 109
1, 549784, Note_off_c, 0, 68, 109
1, 549891, Note_on_c, 0, 67, 105
1, 550198, Note_off_c, 0, 67, 105
1, 550290, Note_on_c, 0, 66, 108
1, 550627, Note_off_c, 0, 66, 108
1, 550719, Note_on_c, 0, 65, 101
1, 550934, Note_off_c, 0, 65, 101
1, 551195, Note_on_c, 0, 63, 106
1, 551425, Note_off_c, 0, 63, 106
1, 551655, Note_on_c, 0, 64, 103
1, 552008, Note_off_c, 0, 64, 103
1, 552115, Note_on_c, 0, 63, 113
1, 552422, Note_off_c, 0, 63, 113
1, 552468, Note_on_c, 0, 65, 104
1, 552621, Note_off_c, 0, 65, 104
1, 552713, Note_on_c, 0, 66, 108
1, 552912, Note_off_c, 0, 66, 108
1, 553004, Note_on_c, 0, 68, 108
1, 553172, Note_off_c, 0, 68, 108
1, 553310, Note_on_c, 0, 70, 106
1, 553709, Note_off_c, 0, 70, 106
1, 553770, Note_on_c, 0, 71, 102
1, 554061, Note_off_c, 0, 71, 102
1, 554091, Note_on_c, 0, 72, 111
1, 554321, Note_off_c, 0, 72, 111
1, 554443, Note_on_c, 0, 75, 111
1, 554596, Note_off_c, 0, 75, 111
1, 554649, Note_on_c, 0, 72, 112
1, 554817, Note_off_c, 0, 72, 112
1, 554824, Note_on_c, 0, 75, 111
1, 555100, Note_off_c, 0, 75, 111
1, 555130, Note_on_c, 0, 73, 107
1, 555421, Note_off_c, 0, 73, 107
1, 555436, Note_on_c, 0, 71, 110
1, 555697, Note_off_c, 0, 71, 110
1, 555881, Note_on_c, 0, 69, 105
1, 556157, Note_off_c, 0, 69, 105
1, 556249, Note_on_c, 0, 68, 103
1, 556586, Note_off_c, 0, 68, 103
1, 556693, Note_on_c, 0, 66, 103
1, 557061, Note_off_c, 0, 66, 103
1, 557061, Note_on_c, 0, 64, 99
1, 557199, Note_off_c, 0, 64, 99
1, 557229, Note_on_c, 0, 63, 94
1, 557397, Note_off_c, 0, 63, 94
1, 557519, Note_on_c, 0, 61, 99
1, 557979, Note_off_c, 0, 61, 99
1, 558101, Note_on_c, 0, 60, 101
1, 558561, Note_off_c, 0, 60, 101
1, 558837, Note_on_c, 0, 64, 113
1, 559144, Note_off_c, 0, 64, 113
1, 559343, Note_on_c, 0, 66, 106
1, 559573, Note_off_c, 0, 66, 106
1, 559741, Note_on_c, 0, 68, 96
1, 559940, Note_off_c, 0, 68, 96
1, 560124, Note_on_c, 0, 70, 80
1, 560308, Note_off_c, 0, 70, 80
1, 560615, Note_on_c, 0, 71, 100
1, 560799, Note_off_c, 0, 71, 100
1, 560952, Note_on_c, 0, 73, 107
1, 561182, Note_off_c, 0, 73, 107
1, 561182, Note_on_c, 0, 74, 107
1, 561350, Note_off_c, 0, 74, 107
1, 561488, Note_on_c, 0, 72, 92
1, 561641, Note_off_c, 0, 72, 92
1, 561809, Note_on_c, 0, 74, 106
1, 562054, Note_off_c, 0, 74, 106
1, 562084, Note_on_c, 0, 73, 111
1, 562191, Note_off_c, 0, 73, 111
1, 562191, Note_on_c, 0, 71, 104
1, 562513, Note_off_c, 0, 71, 104
1, 562528, Note_on_c, 0, 70, 101
1, 562942, Note_off_c, 0, 70, 101
1, 563003, Note_on_c, 0, 68, 104
1, 563279, Note_off_c, 0, 68, 104
1, 563355, Note_on_c, 0, 67, 100
1, 563616, Note_off_c, 0, 67, 100
1, 563692, Note_on_c, 0, 66, 105
1, 563876, Note_off_c, 0, 66, 105
1, 563998, Note_on_c, 0, 64, 107
1, 564443, Note_off_c, 0, 64, 107
1, 564458, Note_on_c, 0, 63, 106
1, 564765, Note_on_c, 0, 61, 103
1, 564765, Note_off_c, 0, 63, 106
1, 564995, Note_off_c, 0, 61, 103
1, 565102, Note_on_c, 0, 63, 104
1, 565332, Note_off_c, 0, 63, 104
1, 565500, Note_on_c, 0, 64, 106
1, 565730, Note_off_c, 0, 64, 106
1, 565837, Note_on_c, 0, 66, 100
1, 566144, Note_off_c, 0, 66, 100
1, 566190, Note_on_c, 0, 68, 102
1, 566620, Note_off_c, 0, 68, 102
1, 566620, Note_on_c, 0, 70, 106
1, 567004, Note_off_c, 0, 70, 106
1, 567096, Note_on_c, 0, 71, 97
1, 567311, Note_off_c, 0, 71, 97
1, 567418, Note_on_c, 0, 72, 103
1, 567755, Note_off_c, 0, 72, 103
1, 567908, Note_on_c, 0, 75, 114
1, 568245, Note_off_c, 0, 75, 114
1, 568306, Note_on_c, 0, 74, 106
1, 568567, Note_off_c, 0, 74, 106
1, 568597, Note_on_c, 0, 72, 107
1, 568873, Note_off_c, 0, 72, 107
1, 568873, Note_on_c, 0, 71, 115
1, 569118, Note_off_c, 0, 71, 115
1, 569179, Note_on_c, 0, 70, 109
1, 569455, Note_off_c, 0, 70, 109
1, 569485, Note_on_c, 0, 68, 113
1, 569684, Note_off_c, 0, 68, 113
1, 569822, Note_on_c, 0, 67, 109
1, 570021, Note_off_c, 0, 67, 109
1, 570097, Note_on_c, 0, 66, 108
1, 570419, Note_off_c, 0, 66, 108
1, 570419, Note_on_c, 0, 64, 110
1, 570772, Note_off_c, 0, 64, 110
1, 570848, Note_on_c, 0, 63, 110
1, 571185, Note_off_c, 0, 63, 110
1, 571246, Note_on_c, 0, 62, 107
1, 571583, Note_off_c, 0, 62, 107
1, 571675, Note_on_c, 0, 61, 105
1, 572074, Note_off_c, 0, 61, 105
1, 572120, Note_on_c, 0, 60, 110
1, 572381, Note_off_c, 0, 60, 110
1, 572534, Note_on_c, 0, 59, 96
1, 572764, Note_off_c, 0, 59, 96
1, 572948, Note_on_c, 0, 57, 101
1, 573285, Note_off_c, 0, 57, 101
1, 577570, Note_on_c, 0, 64, 101
1, 578046, Note_off_c, 0, 64, 101
1, 578122, Note_on_c, 0, 62, 96
1, 578613, Note_off_c, 0, 62, 96
1, 578720, Note_on_c, 0, 60, 84
1, 579226, Note_off_c, 0, 60, 84
1, 579226, Note_on_c, 0, 62, 92
1, 579610, Note_off_c, 0, 62, 92
1, 579732, Note_on_c, 0, 64, 87
1, 594892, Note_off_c, 0, 64, 87
1, 605997, Note_on_c, 0, 67, 112
1, 607609, Note_off_c, 0, 67, 112
1, 608008, Note_on_c, 0, 67, 115
1, 609267, Note_off_c, 0, 67, 115
1, 609819, Note_on_c, 0, 67, 114
1, 610571, Note_off_c, 0, 67, 114
1, 610601, Note_on_c, 0, 66, 109
1, 611461, Note_off_c, 0, 66, 109
1, 611676, Note_on_c, 0, 64, 113
1, 612336, Note_off_c, 0, 64, 113
1, 612428, Note_on_c, 0, 66, 111
1, 613211, Note_off_c, 0, 66, 111
1, 613226, Note_on_c, 0, 67, 105
1, 624131, Note_off_c, 0, 67, 105
1, 624207, Note_on_c, 0, 69, 120
1, 625927, Note_off_c, 0, 69, 120
1, 626095, Note_on_c, 0, 70, 121
1, 627569, Note_off_c, 0, 70, 121
1, 627599, Note_on_c, 0, 69, 117
1, 628582, Note_off_c, 0, 69, 117
1, 628720, Note_on_c, 0, 67, 114
1, 629687, Note_off_c, 0, 67, 114
1, 629779, Note_on_c, 0, 69, 118
1, 630961, Note_off_c, 0, 69, 118
1, 630961, Note_on_c, 0, 70, 9
1, 644508, Note_off_c, 0, 70, 9
1, 656104, Note_on_c, 0, 74, 120
1, 664505, Note_off_c, 0, 74, 120
1, 664581, Note_on_c, 0, 71, 106
1, 665333, Note_off_c, 0, 71, 106
1, 665532, Note_on_c, 0, 64, 83
1, 666392, Note_off_c, 0, 64, 83
1, 666392, End_track
0, 0, End_of_file
