0, 0, Header, 1, 1, 192
1, 0, Start_track
1, 0, Title_t, "Melody"
1, 0, Tempo, 419580
1, 0, Key_signature, -3, "major"
1, 0, Time_signature, 4, 2, 24, 8
1, 4065, Note_on_c, 0, 78, 121
1, 4140, Note_off_c, 0, 78, 121
1, 4147, Note_on_c, 0, 77, 119
1, 4226, Note_off_c, 0, 77, 119
1, 4240, Note_on_c, 0, 78, 120
1, 4333, Note_off_c, 0, 78, 120
1, 4340, Note_on_c, 0, 77, 120
1, 4389, Note_off_c, 0, 77, 120
1, 4398, Note_on_c, 0, 75, 115
1, 4445, Note_off_c, 0, 75, 115
1, 4461, Note_on_c, 0, 72, 117
1, 4510, Note_off_c, 0, 72, 117
1, 4536, Note_on_c, 0, 75, 116
1, 4647, Note_off_c, 0, 75, 116
1, 4678, Note_on_c, 0, 77, 122
1, 4810, Note_off_c, 0, 77, 122
1, 5161, Note_on_c, 0, 78, 120
1, 5248, Note_off_c, 0, 78, 120
1, 5256, Note_on_c, 0, 77, 122
1, 5356, Note_off_c, 0, 77, 122
1, 5390, Note_on_c, 0, 78, 120
1, 5510, Note_off_c, 0, 78, 120
1, 5517, Note_on_c, 0, 77, 121
1, 5597, Note_off_c, 0, 77, 121
1, 5651, Note_on_c, 0, 78, 121
1, 5797, Note_off_c, 0, 78, 121
1, 5809, Note_on_c, 0, 77, 122
1, 5886, Note_off_c, 0, 77, 122
1, 5897, Note_on_c, 0, 77, 109
1, 5958, Note_off_c, 0, 77, 109
1, 5971, Note_on_c, 0, 72, 115
1, 6036, Note_off_c, 0, 72, 115
1, 6047, Note_on_c, 0, 75, 118
1, 6173, Note_off_c, 0, 75, 118
1, 6177, Note_on_c, 0, 77, 120
1, 6261, Note_off_c, 0, 77, 120
1, 6736, Note_on_c, 0, 78, 119
1, 6911, Note_off_c, 0, 78, 119
1, 6917, Note_on_c, 0, 77, 101
1, 6968, Note_off_c, 0, 77, 101
1, 6992, Note_on_c, 0, 75, 116
1, 7122, Note_off_c, 0, 75, 116
1, 7129, Note_on_c, 0, 72, 82
1, 7168, Note_off_c, 0, 72, 82
1, 7183, Note_on_c, 0, 77, 118
1, 7311, Note_off_c, 0, 77, 118
1, 7317, Note_on_c, 0, 75, 113
1, 7381, Note_off_c, 0, 75, 113
1, 7385, Note_on_c, 0, 72, 114
1, 7505, Note_off_c, 0, 72, 114
1, 7513, Note_on_c, 0, 68, 86
1, 7550, Note_off_c, 0, 68, 86
1, 7589, Note_on_c, 0, 71, 94
1, 7666, Note_off_c, 0, 71, 94
1, 7674, Note_on_c, 0, 70, 97
1, 7756, Note_off_c, 0, 70, 97
1, 7770, Note_on_c, 0, 72, 104
1, 8125, Note_off_c, 0, 72, 104
1, 8139, Note_on_c, 0, 70, 108
1, 8252, Note_off_c, 0, 70, 108
1, 8267, Note_on_c, 0, 67, 101
1, 8511, Note_off_c, 0, 67, 101
1, 8837, Note_on_c, 0, 81, 120
1, 8920, Note_off_c, 0, 81, 120
1, 8928, Note_on_c, 0, 80, 118
1, 9020, Note_off_c, 0, 80, 118
1, 9030, Note_on_c, 0, 79, 117
1, 9113, Note_off_c, 0, 79, 117
1, 9132, Note_on_c, 0, 78, 119
1, 9213, Note_off_c, 0, 78, 119
1, 9227, Note_on_c, 0, 76, 116
1, 9261, Note_off_c, 0, 76, 116
1, 9268, Note_on_c, 0, 74, 117
1, 9333, Note_off_c, 0, 74, 117
1, 9336, Note_on_c, 0, 73, 116
1, 9406, Note_off_c, 0, 73, 116
1, 9420, Note_on_c, 0, 71, 114
1, 9497, Note_off_c, 0, 71, 114
1, 9502, Note_on_c, 0, 72, 116
1, 9588, Note_off_c, 0, 72, 116
1, 9602, Note_on_c, 0, 70, 106
1, 9666, Note_off_c, 0, 70, 106
1, 9697, Note_on_c, 0, 63, 108
1, 9789, Note_off_c, 0, 63, 108
1, 9806, Note_on_c, 0, 65, 95
1, 9846, Note_off_c, 0, 65, 95
1, 9866, Note_on_c, 0, 66, 93
1, 9886, Note_on_c, 0, 67, 107
1, 9886, Note_off_c, 0, 66, 93
1, 9899, Note_off_c, 0, 67, 107
1, 9899, Note_on_c, 0, 69, 114
1, 10043, Note_off_c, 0, 69, 114
1, 10057, Note_on_c, 0, 65, 108
1, 10167, Note_off_c, 0, 65, 108
1, 10199, Note_on_c, 0, 62, 91
1, 10227, Note_off_c, 0, 62, 91
1, 10253, Note_on_c, 0, 72, 108
1, 10422, Note_off_c, 0, 72, 108
1, 10436, Note_on_c, 0, 68, 107
1, 10535, Note_off_c, 0, 68, 107
1, 10554, Note_on_c, 0, 67, 97
1, 11401, Note_off_c, 0, 67, 97
1, 11653, Note_on_c, 0, 68, 111
1, 11714, Note_off_c, 0, 68, 111
1, 11722, Note_on_c, 0, 70, 114
1, 11780, Note_off_c, 0, 70, 114
1, 11804, Note_on_c, 0, 72, 117
1, 11981, Note_off_c, 0, 72, 117
1, 11989, Note_on_c, 0, 70, 113
1, 12046, Note_off_c, 0, 70, 113
1, 12060, Note_on_c, 0, 68, 110
1, 12136, Note_off_c, 0, 68, 110
1, 12146, Note_on_c, 0, 67, 99
1, 12722, Note_off_c, 0, 67, 99
1, 13177, Note_on_c, 0, 77, 118
1, 13228, Note_off_c, 0, 77, 118
1, 13241, Note_on_c, 0, 75, 115
1, 13290, Note_off_c, 0, 75, 115
1, 13304, Note_on_c, 0, 77, 116
1, 13354, Note_off_c, 0, 77, 116
1, 13363, Note_on_c, 0, 75, 117
1, 13414, Note_off_c, 0, 75, 117
1, 13425, Note_on_c, 0, 77, 116
1, 13481, Note_off_c, 0, 77, 116
1, 13488, Note_on_c, 0, 75, 116
1, 13545, Note_off_c, 0, 75, 116
1, 13554, Note_on_c, 0, 77, 118
1, 13597, Note_off_c, 0, 77, 118
1, 13609, Note_on_c, 0, 75, 117
1, 13653, Note_off_c, 0, 75, 117
1, 13681, Note_on_c, 0, 77, 116
1, 13947, Note_off_c, 0, 77, 116
1, 14167, Note_on_c, 0, 72, 116
1, 14220, Note_off_c, 0, 72, 116
1, 14238, Note_on_c, 0, 75, 118
1, 14341, Note_off_c, 0, 75, 118
1, 14357, Note_on_c, 0, 77, 117
1, 14422, Note_off_c, 0, 77, 117
1, 14750, Note_on_c, 0, 77, 119
1, 15825, Note_off_c, 0, 77, 119
1, 15843, Note_on_c, 0, 75, 114
1, 15891, Note_off_c, 0, 75, 114
1, 15897, Note_on_c, 0, 72, 110
1, 15943, Note_off_c, 0, 72, 110
1, 15948, Note_on_c, 0, 75, 114
1, 15992, Note_off_c, 0, 75, 114
1, 16002, Note_on_c, 0, 77, 99
1, 16055, Note_off_c, 0, 77, 99
1, 16480, Note_on_c, 0, 80, 114
1, 16529, Note_off_c, 0, 80, 114
1, 16540, Note_on_c, 0, 78, 118
1, 16614, Note_off_c, 0, 78, 118
1, 16852, Note_on_c, 0, 70, 83
1, 16884, Note_off_c, 0, 70, 83
1, 16897, Note_on_c, 0, 77, 116
1, 17027, Note_off_c, 0, 77, 116
1, 17065, Note_on_c, 0, 75, 116
1, 17138, Note_off_c, 0, 75, 116
1, 17252, Note_on_c, 0, 72, 111
1, 17355, Note_off_c, 0, 72, 111
1, 17359, Note_on_c, 0, 71, 96
1, 17439, Note_off_c, 0, 71, 96
1, 17516, Note_on_c, 0, 70, 103
1, 17618, Note_off_c, 0, 70, 103
1, 17629, Note_on_c, 0, 67, 101
1, 17673, Note_off_c, 0, 67, 101
1, 17705, Note_on_c, 0, 63, 97
1, 17739, Note_off_c, 0, 63, 97
1, 17758, Note_on_c, 0, 60, 83
1, 17797, Note_off_c, 0, 60, 83
1, 17831, Note_on_c, 0, 56, 84
1, 17861, Note_off_c, 0, 56, 84
1, 17900, Note_on_c, 0, 65, 94
1, 18203, Note_off_c, 0, 65, 94
1, 18287, Note_on_c, 0, 66, 98
1, 18301, Note_off_c, 0, 66, 98
1, 18306, Note_on_c, 0, 67, 98
1, 18452, Note_off_c, 0, 67, 98
1, 18466, Note_on_c, 0, 72, 116
1, 18585, Note_off_c, 0, 72, 116
1, 18595, Note_on_c, 0, 74, 115
1, 18859, Note_off_c, 0, 74, 115
1, 18874, Note_on_c, 0, 75, 106
1, 18979, Note_off_c, 0, 75, 106
1, 19000, Note_on_c, 0, 70, 98
1, 19042, Note_off_c, 0, 70, 98
1, 19577, Note_on_c, 0, 77, 119
1, 19653, Note_off_c, 0, 77, 119
1, 19665, Note_on_c, 0, 80, 116
1, 19750, Note_off_c, 0, 80, 116
1, 19778, Note_on_c, 0, 81, 112
1, 19835, Note_off_c, 0, 81, 112
1, 19854, Note_on_c, 0, 82, 115
1, 19957, Note_off_c, 0, 82, 115
1, 19962, Note_on_c, 0, 81, 118
1, 20031, Note_off_c, 0, 81, 118
1, 20063, Note_on_c, 0, 80, 117
1, 20164, Note_off_c, 0, 80, 117
1, 20171, Note_on_c, 0, 82, 104
1, 20213, Note_off_c, 0, 82, 104
1, 20220, Note_on_c, 0, 81, 110
1, 20241, Note_off_c, 0, 81, 110
1, 20251, Note_on_c, 0, 79, 113
1, 20338, Note_off_c, 0, 79, 113
1, 20359, Note_on_c, 0, 75, 117
1, 20395, Note_off_c, 0, 75, 117
1, 20401, Note_on_c, 0, 72, 112
1, 20431, Note_off_c, 0, 72, 112
1, 20441, Note_on_c, 0, 74, 110
1, 20476, Note_off_c, 0, 74, 110
1, 20484, Note_on_c, 0, 72, 113
1, 20537, Note_off_c, 0, 72, 113
1, 20632, Note_on_c, 0, 76, 116
1, 20736, Note_off_c, 0, 76, 116
1, 20743, Note_on_c, 0, 72, 114
1, 20814, Note_off_c, 0, 72, 114
1, 20827, Note_on_c, 0, 69, 113
1, 20925, Note_off_c, 0, 69, 113
1, 20950, Note_on_c, 0, 66, 98
1, 20968, Note_off_c, 0, 66, 98
1, 20981, Note_on_c, 0, 63, 98
1, 20999, Note_off_c, 0, 63, 98
1, 21017, Note_on_c, 0, 68, 103
1, 21046, Note_off_c, 0, 68, 103
1, 21063, Note_on_c, 0, 71, 102
1, 21088, Note_off_c, 0, 71, 102
1, 21099, Note_on_c, 0, 68, 108
1, 21134, Note_off_c, 0, 68, 108
1, 21140, Note_on_c, 0, 65, 93
1, 21165, Note_off_c, 0, 65, 93
1, 21200, Note_on_c, 0, 61, 104
1, 21311, Note_off_c, 0, 61, 104
1, 21387, Note_on_c, 0, 68, 110
1, 21418, Note_off_c, 0, 68, 110
1, 21420, Note_on_c, 0, 70, 110
1, 21445, Note_off_c, 0, 70, 110
1, 21456, Note_on_c, 0, 68, 100
1, 21488, Note_off_c, 0, 68, 100
1, 21503, Note_on_c, 0, 66, 100
1, 21562, Note_off_c, 0, 66, 100
1, 21593, Note_on_c, 0, 62, 100
1, 21709, Note_off_c, 0, 62, 100
1, 21766, Note_on_c, 0, 63, 95
1, 21928, Note_off_c, 0, 63, 95
1, 21931, Note_on_c, 0, 65, 97
1, 22039, Note_off_c, 0, 65, 97
1, 22428, Note_on_c, 0, 72, 105
1, 22465, Note_off_c, 0, 72, 105
1, 22480, Note_on_c, 0, 72, 108
1, 22513, Note_off_c, 0, 72, 108
1, 22536, Note_on_c, 0, 72, 99
1, 22573, Note_off_c, 0, 72, 99
1, 22614, Note_on_c, 0, 72, 111
1, 22656, Note_off_c, 0, 72, 111
1, 22679, Note_on_c, 0, 72, 108
1, 22713, Note_off_c, 0, 72, 108
1, 22731, Note_on_c, 0, 72, 103
1, 22780, Note_off_c, 0, 72, 103
1, 22799, Note_on_c, 0, 72, 109
1, 22841, Note_off_c, 0, 72, 109
1, 22854, Note_on_c, 0, 73, 108
1, 22915, Note_off_c, 0, 73, 108
1, 22922, Note_on_c, 0, 72, 103
1, 22977, Note_off_c, 0, 72, 103
1, 22982, Note_on_c, 0, 70, 99
1, 23159, Note_off_c, 0, 70, 99
1, 24374, Note_on_c, 0, 63, 110
1, 24502, Note_off_c, 0, 63, 110
1, 24508, Note_on_c, 0, 60, 85
1, 24530, Note_off_c, 0, 60, 85
1, 24564, Note_on_c, 0, 65, 115
1, 24696, Note_off_c, 0, 65, 115
1, 24743, Note_on_c, 0, 63, 112
1, 24874, Note_off_c, 0, 63, 112
1, 24886, Note_on_c, 0, 60, 96
1, 24913, Note_off_c, 0, 60, 96
1, 24936, Note_on_c, 0, 65, 114
1, 25066, Note_off_c, 0, 65, 114
1, 25124, Note_on_c, 0, 66, 110
1, 25247, Note_off_c, 0, 66, 110
1, 25262, Note_on_c, 0, 63, 97
1, 25289, Note_off_c, 0, 63, 97
1, 25314, Note_on_c, 0, 65, 113
1, 25442, Note_off_c, 0, 65, 113
1, 25459, Note_on_c, 0, 60, 90
1, 25484, Note_off_c, 0, 60, 90
1, 25506, Note_on_c, 0, 63, 107
1, 25672, Note_off_c, 0, 63, 107
1, 25681, Note_on_c, 0, 65, 109
1, 25771, Note_off_c, 0, 65, 109
1, 26010, Note_on_c, 0, 67, 106
1, 26034, Note_off_c, 0, 67, 106
1, 26046, Note_on_c, 0, 69, 114
1, 26215, Note_off_c, 0, 69, 114
1, 26218, Note_on_c, 0, 68, 109
1, 26245, Note_off_c, 0, 68, 109
1, 26260, Note_on_c, 0, 65, 103
1, 26296, Note_off_c, 0, 65, 103
1, 26302, Note_on_c, 0, 67, 114
1, 26400, Note_off_c, 0, 67, 114
1, 26405, Note_on_c, 0, 69, 115
1, 26480, Note_off_c, 0, 69, 115
1, 26494, Note_on_c, 0, 70, 114
1, 26572, Note_off_c, 0, 70, 114
1, 26587, Note_on_c, 0, 72, 116
1, 26673, Note_off_c, 0, 72, 116
1, 26680, Note_on_c, 0, 73, 117
1, 26765, Note_off_c, 0, 73, 117
1, 26784, Note_on_c, 0, 75, 115
1, 26856, Note_off_c, 0, 75, 115
1, 26872, Note_on_c, 0, 77, 118
1, 26962, Note_off_c, 0, 77, 118
1, 26963, Note_on_c, 0, 78, 116
1, 27036, Note_off_c, 0, 78, 116
1, 27061, Note_on_c, 0, 80, 121
1, 27155, Note_off_c, 0, 80, 121
1, 27167, Note_on_c, 0, 77, 117
1, 27238, Note_off_c, 0, 77, 117
1, 27245, Note_on_c, 0, 73, 115
1, 27347, Note_off_c, 0, 73, 115
1, 27562, Note_on_c, 0, 78, 20
1, 27578, Note_off_c, 0, 78, 20
1, 27580, Note_on_c, 0, 79, 122
1, 27689, Note_off_c, 0, 79, 122
1, 27699, Note_on_c, 0, 80, 121
1, 27752, Note_off_c, 0, 80, 121
1, 27760, Note_on_c, 0, 81, 122
1, 27831, Note_off_c, 0, 81, 122
1, 27851, Note_on_c, 0, 82, 121
1, 27936, Note_off_c, 0, 82, 121
1, 27944, Note_on_c, 0, 81, 120
1, 28019, Note_off_c, 0, 81, 120
1, 28029, Note_on_c, 0, 80, 121
1, 28139, Note_off_c, 0, 80, 121
1, 28326, Note_on_c, 0, 77, 112
1, 28349, Note_off_c, 0, 77, 112
1, 28355, Note_on_c, 0, 79, 121
1, 28400, Note_off_c, 0, 79, 121
1, 28415, Note_on_c, 0, 77, 118
1, 28496, Note_off_c, 0, 77, 118
1, 28515, Note_on_c, 0, 79, 121
1, 28591, Note_off_c, 0, 79, 121
1, 28606, Note_on_c, 0, 80, 122
1, 28685, Note_off_c, 0, 80, 122
1, 28689, Note_on_c, 0, 82, 119
1, 28766, Note_off_c, 0, 82, 119
1, 28782, Note_on_c, 0, 84, 127
1, 28861, Note_off_c, 0, 84, 127
1, 28874, Note_on_c, 0, 87, 121
1, 28973, Note_off_c, 0, 87, 121
1, 28981, Note_on_c, 0, 86, 115
1, 29278, Note_off_c, 0, 86, 115
1, 29285, Note_on_c, 0, 83, 116
1, 29378, Note_off_c, 0, 83, 116
1, 29848, Note_on_c, 0, 83, 119
1, 29882, Note_off_c, 0, 83, 119
1, 29888, Note_on_c, 0, 84, 118
1, 30662, Note_off_c, 0, 84, 118
1, 30684, Note_on_c, 0, 82, 113
1, 30742, Note_off_c, 0, 82, 113
1, 30754, Note_on_c, 0, 82, 113
1, 30793, Note_off_c, 0, 82, 113
1, 30798, Note_on_c, 0, 79, 114
1, 30848, Note_off_c, 0, 79, 114
1, 30856, Note_on_c, 0, 82, 115
1, 30908, Note_off_c, 0, 82, 115
1, 30920, Note_on_c, 0, 86, 85
1, 31012, Note_off_c, 0, 86, 85
1, 31381, Note_on_c, 0, 83, 115
1, 31414, Note_off_c, 0, 83, 115
1, 31421, Note_on_c, 0, 84, 119
1, 32268, Note_off_c, 0, 84, 119
1, 32274, Note_on_c, 0, 82, 114
1, 32291, Note_off_c, 0, 82, 114
1, 32299, Note_on_c, 0, 82, 118
1, 32328, Note_off_c, 0, 82, 118
1, 32363, Note_on_c, 0, 79, 115
1, 32410, Note_off_c, 0, 79, 115
1, 32417, Note_on_c, 0, 82, 116
1, 32459, Note_off_c, 0, 82, 116
1, 32474, Note_on_c, 0, 79, 84
1, 32557, Note_off_c, 0, 79, 84
1, 32949, Note_on_c, 0, 84, 118
1, 33736, Note_off_c, 0, 84, 118
1, 33766, Note_on_c, 0, 82, 112
1, 33872, Note_off_c, 0, 82, 112
1, 33880, Note_on_c, 0, 84, 105
1, 33940, Note_off_c, 0, 84, 105
1, 33964, Note_on_c, 0, 79, 112
1, 34084, Note_off_c, 0, 79, 112
1, 34101, Note_on_c, 0, 83, 109
1, 34129, Note_off_c, 0, 83, 109
1, 34146, Note_on_c, 0, 77, 117
1, 34259, Note_off_c, 0, 77, 117
1, 34275, Note_on_c, 0, 82, 109
1, 34307, Note_off_c, 0, 82, 109
1, 34339, Note_on_c, 0, 73, 107
1, 34491, Note_off_c, 0, 73, 107
1, 34509, Note_on_c, 0, 77, 101
1, 34566, Note_off_c, 0, 77, 101
1, 34575, Note_on_c, 0, 76, 97
1, 34665, Note_off_c, 0, 76, 97
1, 34704, Note_on_c, 0, 73, 103
1, 34887, Note_off_c, 0, 73, 103
1, 34904, Note_on_c, 0, 78, 93
1, 34970, Note_off_c, 0, 78, 93
1, 34975, Note_on_c, 0, 79, 86
1, 35026, Note_off_c, 0, 79, 86
1, 35036, Note_on_c, 0, 74, 99
1, 35087, Note_off_c, 0, 74, 99
1, 35120, Note_on_c, 0, 73, 102
1, 35208, Note_off_c, 0, 73, 102
1, 35215, Note_on_c, 0, 75, 95
1, 35354, Note_off_c, 0, 75, 95
1, 35363, Note_on_c, 0, 80, 98
1, 35434, Note_off_c, 0, 80, 98
1, 35457, Note_on_c, 0, 73, 111
1, 35474, Note_off_c, 0, 73, 111
1, 35475, Note_on_c, 0, 72, 122
1, 35579, Note_off_c, 0, 72, 122
1, 35594, Note_on_c, 0, 66, 116
1, 35669, Note_off_c, 0, 66, 116
1, 35680, Note_on_c, 0, 65, 115
1, 35726, Note_off_c, 0, 65, 115
1, 35736, Note_on_c, 0, 63, 114
1, 35765, Note_off_c, 0, 63, 114
1, 35772, Note_on_c, 0, 61, 106
1, 35811, Note_off_c, 0, 61, 106
1, 35820, Note_on_c, 0, 63, 108
1, 35829, Note_off_c, 0, 63, 108
1, 35834, Note_on_c, 0, 65, 118
1, 35980, Note_off_c, 0, 65, 118
1, 36001, Note_on_c, 0, 63, 118
1, 36095, Note_off_c, 0, 63, 118
1, 36113, Note_on_c, 0, 60, 109
1, 36265, Note_off_c, 0, 60, 109
1, 36363, Note_on_c, 0, 69, 118
1, 36407, Note_off_c, 0, 69, 118
1, 36424, Note_on_c, 0, 67, 116
1, 36462, Note_off_c, 0, 67, 116
1, 36470, Note_on_c, 0, 68, 115
1, 36520, Note_off_c, 0, 68, 115
1, 36531, Note_on_c, 0, 66, 119
1, 36564, Note_off_c, 0, 66, 119
1, 36583, Note_on_c, 0, 63, 114
1, 36621, Note_off_c, 0, 63, 114
1, 36645, Note_on_c, 0, 61, 101
1, 36672, Note_off_c, 0, 61, 101
1, 36677, Note_on_c, 0, 65, 109
1, 36728, Note_off_c, 0, 65, 109
1, 37228, Note_on_c, 0, 77, 117
1, 37250, Note_off_c, 0, 77, 117
1, 37257, Note_on_c, 0, 79, 120
1, 37296, Note_off_c, 0, 79, 120
1, 37427, Note_on_c, 0, 76, 116
1, 37634, Note_off_c, 0, 76, 116
1, 37689, Note_on_c, 0, 77, 120
1, 37770, Note_off_c, 0, 77, 120
1, 37787, Note_on_c, 0, 76, 116
1, 37851, Note_off_c, 0, 76, 116
1, 37868, Note_on_c, 0, 75, 121
1, 37958, Note_off_c, 0, 75, 121
1, 38050, Note_on_c, 0, 71, 116
1, 38162, Note_off_c, 0, 71, 116
1, 38245, Note_on_c, 0, 72, 115
1, 38349, Note_off_c, 0, 72, 115
1, 38423, Note_on_c, 0, 69, 113
1, 38596, Note_off_c, 0, 69, 113
1, 38617, Note_on_c, 0, 67, 107
1, 38715, Note_off_c, 0, 67, 107
1, 38726, Note_on_c, 0, 61, 96
1, 38802, Note_off_c, 0, 61, 96
1, 38813, Note_on_c, 0, 68, 107
1, 38982, Note_off_c, 0, 68, 107
1, 39007, Note_on_c, 0, 65, 110
1, 39111, Note_off_c, 0, 65, 110
1, 39140, Note_on_c, 0, 61, 110
1, 39229, Note_off_c, 0, 61, 110
1, 39238, Note_on_c, 0, 60, 103
1, 39388, Note_off_c, 0, 60, 103
1, 39405, Note_on_c, 0, 58, 103
1, 39486, Note_off_c, 0, 58, 103
1, 39608, Note_on_c, 0, 67, 107
1, 39795, Note_off_c, 0, 67, 107
1, 39806, Note_on_c, 0, 68, 99
1, 39880, Note_off_c, 0, 68, 99
1, 40000, Note_on_c, 0, 64, 101
1, 40304, Note_off_c, 0, 64, 101
1, 40689, Note_on_c, 0, 66, 111
1, 40704, Note_off_c, 0, 66, 111
1, 40708, Note_on_c, 0, 67, 119
1, 40725, Note_off_c, 0, 67, 119
1, 40732, Note_on_c, 0, 68, 117
1, 41012, Note_off_c, 0, 68, 117
1, 41016, Note_on_c, 0, 67, 115
1, 41076, Note_off_c, 0, 67, 115
1, 41081, Note_on_c, 0, 65, 110
1, 41133, Note_off_c, 0, 65, 110
1, 41146, Note_on_c, 0, 67, 115
1, 41284, Note_off_c, 0, 67, 115
1, 41294, Note_on_c, 0, 63, 107
1, 41497, Note_off_c, 0, 63, 107
1, 41497, End_track
0, 0, End_of_file
