0, 0, Header, 1, 1, 840
1, 0, Start_track
1, 0, Title_t, "Melody"
1, 0, Tempo, 508474
1, 0, Time_signature, 4, 2, 24, 8
1, 11270, Note_on_c, 0, 62, 88
1, 11485, Note_off_c, 0, 62, 88
1, 11525, Note_on_c, 0, 63, 93
1, 11696, Note_off_c, 0, 63, 93
1, 11766, Note_on_c, 0, 65, 93
1, 11975, Note_off_c, 0, 65, 93
1, 12012, Note_on_c, 0, 67, 100
1, 12622, Note_off_c, 0, 67, 100
1, 12692, Note_on_c, 0, 67, 101
1, 12799, Note_off_c, 0, 67, 101
1, 14575, Note_on_c, 0, 80, 117
1, 14724, Note_off_c, 0, 80, 117
1, 14750, Note_on_c, 0, 82, 108
1, 14848, Note_off_c, 0, 82, 108
1, 14867, Note_on_c, 0, 79, 114
1, 15002, Note_off_c, 0, 79, 114
1, 15045, Note_on_c, 0, 77, 121
1, 15205, Note_off_c, 0, 77, 121
1, 15282, Note_on_c, 0, 75, 120
1, 15451, Note_off_c, 0, 75, 120
1, 15471, Note_on_c, 0, 74, 122
1, 15684, Note_off_c, 0, 74, 122
1, 15695, Note_on_c, 0, 72, 120
1, 15874, Note_off_c, 0, 72, 120
1, 15905, Note_on_c, 0, 71, 111
1, 16062, Note_off_c, 0, 71, 111
1, 16109, Note_on_c, 0, 68, 115
1, 16264, Note_off_c, 0, 68, 115
1, 16284, Note_on_c, 0, 67, 115
1, 16500, Note_off_c, 0, 67, 115
1, 16538, Note_on_c, 0, 65, 110
1, 16722, Note_off_c, 0, 65, 110
1, 16765, Note_on_c, 0, 63, 108
1, 16985, Note_off_c, 0, 63, 108
1, 17042, Note_on_c, 0, 62, 102
1, 17257, Note_off_c, 0, 62, 102
1, 17290, Note_on_c, 0, 60, 91
1, 17648, Note_off_c, 0, 60, 91
1, 17929, Note_on_c, 0, 60, 89
1, 18605, Note_off_c, 0, 60, 89
1, 18756, Note_on_c, 0, 62, 92
1, 19535, Note_off_c, 0, 62, 92
1, 19573, Note_on_c, 0, 63, 96
1, 20090, Note_off_c, 0, 63, 96
1, 20161, Note_on_c, 0, 62, 86
1, 21601, Note_off_c, 0, 62, 86
1, 21644, Note_on_c, 0, 69, 102
1, 21717, Note_off_c, 0, 69, 102
1, 21726, Note_on_c, 0, 70, 107
1, 21827, Note_off_c, 0, 70, 107
1, 21837, Note_on_c, 0, 69, 108
1, 21905, Note_off_c, 0, 69, 108
1, 21931, Note_on_c, 0, 67, 106
1, 22098, Note_off_c, 0, 67, 106
1, 22135, Note_on_c, 0, 66, 103
1, 22286, Note_off_c, 0, 66, 103
1, 22401, Note_on_c, 0, 57, 102
1, 22535, Note_off_c, 0, 57, 102
1, 22608, Note_on_c, 0, 60, 86
1, 22729, Note_off_c, 0, 60, 86
1, 22750, Note_on_c, 0, 62, 91
1, 22897, Note_off_c, 0, 62, 91
1, 22940, Note_on_c, 0, 65, 102
1, 23360, Note_off_c, 0, 65, 102
1, 23394, Note_on_c, 0, 63, 98
1, 23530, Note_off_c, 0, 63, 98
1, 23565, Note_on_c, 0, 65, 105
1, 23704, Note_off_c, 0, 65, 105
1, 23821, Note_on_c, 0, 61, 87
1, 24272, Note_off_c, 0, 61, 87
1, 24290, Note_on_c, 0, 62, 77
1, 25316, Note_off_c, 0, 62, 77
1, 27182, Note_on_c, 0, 77, 121
1, 27410, Note_off_c, 0, 77, 121
1, 27424, Note_on_c, 0, 78, 117
1, 27604, Note_off_c, 0, 78, 117
1, 27627, Note_on_c, 0, 77, 118
1, 27843, Note_off_c, 0, 77, 118
1, 27870, Note_on_c, 0, 75, 117
1, 28086, Note_off_c, 0, 75, 117
1, 28095, Note_on_c, 0, 73, 121
1, 28273, Note_off_c, 0, 73, 121
1, 28303, Note_on_c, 0, 72, 116
1, 28483, Note_off_c, 0, 72, 116
1, 28503, Note_on_c, 0, 71, 116
1, 28679, Note_off_c, 0, 71, 116
1, 28701, Note_on_c, 0, 70, 114
1, 28890, Note_off_c, 0, 70, 114
1, 28912, Note_on_c, 0, 68, 115
1, 29103, Note_off_c, 0, 68, 115
1, 29130, Note_on_c, 0, 65, 107
1, 29308, Note_off_c, 0, 65, 107
1, 29357, Note_on_c, 0, 61, 103
1, 29560, Note_off_c, 0, 61, 103
1, 29573, Note_on_c, 0, 58, 88
1, 29735, Note_off_c, 0, 58, 88
1, 29783, Note_on_c, 0, 63, 106
1, 30931, Note_off_c, 0, 63, 106
1, 30943, Note_on_c, 0, 73, 121
1, 31170, Note_off_c, 0, 73, 121
1, 31189, Note_on_c, 0, 71, 117
1, 31376, Note_off_c, 0, 71, 117
1, 31395, Note_on_c, 0, 72, 119
1, 31578, Note_off_c, 0, 72, 119
1, 31588, Note_on_c, 0, 68, 115
1, 31763, Note_off_c, 0, 68, 115
1, 31772, Note_on_c, 0, 65, 106
1, 32030, Note_off_c, 0, 65, 106
1, 32153, Note_on_c, 0, 70, 113
1, 32772, Note_off_c, 0, 70, 113
1, 32782, Note_on_c, 0, 67, 98
1, 32925, Note_off_c, 0, 67, 98
1, 32970, Note_on_c, 0, 68, 111
1, 33186, Note_off_c, 0, 68, 111
1, 33248, Note_on_c, 0, 65, 99
1, 33430, Note_off_c, 0, 65, 99
1, 37667, Note_on_c, 0, 79, 117
1, 38061, Note_off_c, 0, 79, 117
1, 38269, Note_on_c, 0, 79, 114
1, 38684, Note_off_c, 0, 79, 114
1, 38845, Note_on_c, 0, 79, 117
1, 39627, Note_off_c, 0, 79, 117
1, 39677, Note_on_c, 0, 79, 119
1, 40206, Note_off_c, 0, 79, 119
1, 40426, Note_on_c, 0, 79, 116
1, 41282, Note_off_c, 0, 79, 116
1, 41324, Note_on_c, 0, 79, 120
1, 41851, Note_off_c, 0, 79, 120
1, 42058, Note_on_c, 0, 79, 118
1, 42897, Note_off_c, 0, 79, 118
1, 42939, Note_on_c, 0, 79, 121
1, 43586, Note_off_c, 0, 79, 121
1, 43731, Note_on_c, 0, 79, 122
1, 43951, Note_off_c, 0, 79, 122
1, 43968, Note_on_c, 0, 77, 125
1, 44141, Note_off_c, 0, 77, 125
1, 44179, Note_on_c, 0, 75, 124
1, 44393, Note_off_c, 0, 75, 124
1, 44407, Note_on_c, 0, 74, 124
1, 44718, Note_off_c, 0, 74, 124
1, 44724, Note_on_c, 0, 72, 117
1, 46291, Note_off_c, 0, 72, 117
1, 46328, Note_on_c, 0, 70, 114
1, 46429, Note_off_c, 0, 70, 114
1, 46457, Note_on_c, 0, 69, 114
1, 46574, Note_off_c, 0, 69, 114
1, 46596, Note_on_c, 0, 67, 114
1, 46742, Note_off_c, 0, 67, 114
1, 46768, Note_on_c, 0, 66, 111
1, 46953, Note_off_c, 0, 66, 111
1, 47012, Note_on_c, 0, 75, 120
1, 47256, Note_off_c, 0, 75, 120
1, 47275, Note_on_c, 0, 74, 122
1, 47754, Note_off_c, 0, 74, 122
1, 47758, Note_on_c, 0, 66, 103
1, 48074, Note_off_c, 0, 66, 103
1, 50483, Note_on_c, 0, 62, 87
1, 51048, Note_off_c, 0, 62, 87
1, 51253, Note_on_c, 0, 69, 106
1, 51674, Note_off_c, 0, 69, 106
1, 52085, Note_on_c, 0, 69, 105
1, 52428, Note_off_c, 0, 69, 105
1, 52883, Note_on_c, 0, 69, 108
1, 53402, Note_off_c, 0, 69, 108
1, 53698, Note_on_c, 0, 69, 107
1, 54143, Note_off_c, 0, 69, 107
1, 54523, Note_on_c, 0, 69, 107
1, 55059, Note_off_c, 0, 69, 107
1, 55412, Note_on_c, 0, 69, 104
1, 55857, Note_off_c, 0, 69, 104
1, 56254, Note_on_c, 0, 69, 105
1, 56729, Note_off_c, 0, 69, 105
1, 57162, Note_on_c, 0, 69, 110
1, 57320, Note_off_c, 0, 69, 110
1, 57360, Note_on_c, 0, 71, 105
1, 57616, Note_off_c, 0, 71, 105
1, 57690, Note_on_c, 0, 68, 96
1, 61991, Note_off_c, 0, 68, 96
1, 62060, Note_on_c, 0, 67, 98
1, 62267, Note_off_c, 0, 67, 98
1, 62326, Note_on_c, 0, 65, 100
1, 62517, Note_off_c, 0, 65, 100
1, 62551, Note_on_c, 0, 63, 104
1, 62747, Note_off_c, 0, 63, 104
1, 62762, Note_on_c, 0, 62, 96
1, 62883, Note_off_c, 0, 62, 96
1, 62896, Note_on_c, 0, 60, 92
1, 63030, Note_off_c, 0, 60, 92
1, 63058, Note_on_c, 0, 62, 97
1, 63231, Note_off_c, 0, 62, 97
1, 63274, Note_on_c, 0, 63, 101
1, 63446, Note_off_c, 0, 63, 101
1, 63479, Note_on_c, 0, 65, 97
1, 63601, Note_off_c, 0, 65, 97
1, 63656, Note_on_c, 0, 67, 104
1, 63853, Note_off_c, 0, 67, 104
1, 63870, Note_on_c, 0, 63, 99
1, 64016, Note_off_c, 0, 63, 99
1, 64055, Note_on_c, 0, 60, 88
1, 64204, Note_off_c, 0, 60, 88
1, 64262, Note_on_c, 0, 65, 106
1, 64435, Note_off_c, 0, 65, 106
1, 64482, Note_on_c, 0, 63, 94
1, 64624, Note_off_c, 0, 63, 94
1, 64655, Note_on_c, 0, 65, 99
1, 64808, Note_off_c, 0, 65, 99
1, 64823, Note_on_c, 0, 67, 100
1, 65004, Note_off_c, 0, 67, 100
1, 65069, Note_on_c, 0, 70, 85
1, 65150, Note_off_c, 0, 70, 85
1, 65205, Note_on_c, 0, 74, 115
1, 65412, Note_off_c, 0, 74, 115
1, 65439, Note_on_c, 0, 70, 106
1, 65603, Note_off_c, 0, 70, 106
1, 65653, Note_on_c, 0, 67, 107
1, 65844, Note_off_c, 0, 67, 107
1, 65904, Note_on_c, 0, 63, 74
1, 65980, Note_off_c, 0, 63, 74
1, 66082, Note_on_c, 0, 72, 108
1, 66239, Note_off_c, 0, 72, 108
1, 66309, Note_on_c, 0, 72, 102
1, 66496, Note_off_c, 0, 72, 102
1, 69339, Note_on_c, 0, 66, 106
1, 69566, Note_off_c, 0, 66, 106
1, 69665, Note_on_c, 0, 65, 102
1, 69821, Note_off_c, 0, 65, 102
1, 69902, Note_on_c, 0, 67, 106
1, 70089, Note_off_c, 0, 67, 106
1, 70146, Note_on_c, 0, 65, 107
1, 70295, Note_off_c, 0, 65, 107
1, 70382, Note_on_c, 0, 67, 105
1, 70574, Note_off_c, 0, 67, 105
1, 70667, Note_on_c, 0, 60, 90
1, 70820, Note_off_c, 0, 60, 90
1, 70871, Note_on_c, 0, 63, 88
1, 71813, Note_off_c, 0, 63, 88
1, 77392, Note_on_c, 0, 77, 116
1, 77668, Note_off_c, 0, 77, 116
1, 77700, Note_on_c, 0, 73, 117
1, 78227, Note_off_c, 0, 73, 117
1, 78252, Note_on_c, 0, 72, 116
1, 79307, Note_off_c, 0, 72, 116
1, 79371, Note_on_c, 0, 70, 117
1, 79741, Note_off_c, 0, 70, 117
1, 80191, Note_on_c, 0, 76, 118
1, 80674, Note_off_c, 0, 76, 118
1, 80714, Note_on_c, 0, 72, 117
1, 80998, Note_off_c, 0, 72, 117
1, 81033, Note_on_c, 0, 69, 113
1, 81592, Note_off_c, 0, 69, 113
1, 81615, Note_on_c, 0, 64, 103
1, 81866, Note_off_c, 0, 64, 103
1, 81891, Note_on_c, 0, 67, 115
1, 82373, Note_off_c, 0, 67, 115
1, 82487, Note_on_c, 0, 64, 103
1, 82618, Note_off_c, 0, 64, 103
1, 82714, Note_on_c, 0, 66, 110
1, 83047, Note_off_c, 0, 66, 110
1, 83198, Note_on_c, 0, 74, 125
1, 83631, Note_off_c, 0, 74, 125
1, 83737, Note_on_c, 0, 74, 125
1, 83967, Note_off_c, 0, 74, 125
1, 83990, Note_on_c, 0, 76, 117
1, 84229, Note_off_c, 0, 76, 117
1, 84247, Note_on_c, 0, 74, 123
1, 84537, Note_off_c, 0, 74, 123
1, 84565, Note_on_c, 0, 71, 110
1, 86058, Note_off_c, 0, 71, 110
1, 86090, Note_on_c, 0, 69, 108
1, 86272, Note_off_c, 0, 69, 108
1, 86286, Note_on_c, 0, 70, 108
1, 86355, Note_off_c, 0, 70, 108
1, 86374, Note_on_c, 0, 69, 109
1, 86509, Note_off_c, 0, 69, 109
1, 86536, Note_on_c, 0, 66, 102
1, 86718, Note_off_c, 0, 66, 102
1, 86792, Note_on_c, 0, 69, 110
1, 86971, Note_off_c, 0, 69, 110
1, 87233, Note_on_c, 0, 68, 107
1, 87684, Note_off_c, 0, 68, 107
1, 87983, Note_on_c, 0, 59, 100
1, 88090, Note_off_c, 0, 59, 100
1, 88127, Note_on_c, 0, 62, 97
1, 88348, Note_off_c, 0, 62, 97
1, 88371, Note_on_c, 0, 64, 102
1, 88599, Note_off_c, 0, 64, 102
1, 88670, Note_on_c, 0, 65, 127
1, 89209, Note_off_c, 0, 65, 127
1, 89230, Note_on_c, 0, 64, 104
1, 90039, Note_off_c, 0, 64, 104
1, 90162, Note_on_c, 0, 62, 101
1, 90349, Note_off_c, 0, 62, 101
1, 90394, Note_on_c, 0, 64, 89
1, 90810, Note_off_c, 0, 64, 89
1, 90922, Note_on_c, 0, 69, 100
1, 91694, Note_off_c, 0, 69, 100
1, 94899, Note_on_c, 0, 78, 117
1, 95109, Note_off_c, 0, 78, 117
1, 95137, Note_on_c, 0, 80, 118
1, 95303, Note_off_c, 0, 80, 118
1, 95340, Note_on_c, 0, 82, 119
1, 95525, Note_off_c, 0, 82, 119
1, 95558, Note_on_c, 0, 80, 118
1, 95737, Note_off_c, 0, 80, 118
1, 95754, Note_on_c, 0, 78, 115
1, 95946, Note_off_c, 0, 78, 115
1, 95962, Note_on_c, 0, 77, 121
1, 96157, Note_off_c, 0, 77, 121
1, 96186, Note_on_c, 0, 76, 119
1, 96398, Note_off_c, 0, 76, 119
1, 96418, Note_on_c, 0, 75, 117
1, 96619, Note_off_c, 0, 75, 117
1, 96634, Note_on_c, 0, 74, 122
1, 96841, Note_off_c, 0, 74, 122
1, 96855, Note_on_c, 0, 73, 117
1, 97028, Note_off_c, 0, 73, 117
1, 97055, Note_on_c, 0, 71, 114
1, 97220, Note_off_c, 0, 71, 114
1, 97265, Note_on_c, 0, 67, 113
1, 97389, Note_off_c, 0, 67, 113
1, 97433, Note_on_c, 0, 62, 95
1, 97732, Note_off_c, 0, 62, 95
1, 97843, Note_on_c, 0, 69, 107
1, 97898, Note_off_c, 0, 69, 107
1, 97910, Note_on_c, 0, 70, 114
1, 97977, Note_off_c, 0, 70, 114
1, 97982, Note_on_c, 0, 69, 115
1, 98061, Note_off_c, 0, 69, 115
1, 98075, Note_on_c, 0, 66, 107
1, 98230, Note_off_c, 0, 66, 107
1, 98271, Note_on_c, 0, 62, 101
1, 98495, Note_off_c, 0, 62, 101
1, 98520, Note_on_c, 0, 59, 83
1, 98650, Note_off_c, 0, 59, 83
1, 98684, Note_on_c, 0, 68, 9
1, 98900, Note_off_c, 0, 68, 9
1, 98916, Note_on_c, 0, 64, 9
1, 99092, Note_off_c, 0, 64, 9
1, 99153, Note_on_c, 0, 61, 99
1, 99304, Note_off_c, 0, 61, 99
1, 99383, Note_on_c, 0, 57, 93
1, 99476, Note_off_c, 0, 57, 93
1, 99559, Note_on_c, 0, 66, 107
1, 100428, Note_off_c, 0, 66, 107
1, 102257, Note_on_c, 0, 74, 122
1, 102482, Note_off_c, 0, 74, 122
1, 102537, Note_on_c, 0, 74, 119
1, 102695, Note_off_c, 0, 74, 119
1, 102742, Note_on_c, 0, 74, 124
1, 103031, Note_off_c, 0, 74, 124
1, 103105, Note_on_c, 0, 74, 120
1, 103265, Note_off_c, 0, 74, 120
1, 103322, Note_on_c, 0, 74, 124
1, 103610, Note_off_c, 0, 74, 124
1, 103690, Note_on_c, 0, 74, 124
1, 103907, Note_off_c, 0, 74, 124
1, 103974, Note_on_c, 0, 74, 126
1, 104177, Note_off_c, 0, 74, 126
1, 104208, Note_on_c, 0, 71, 116
1, 104483, Note_off_c, 0, 71, 116
1, 104521, Note_on_c, 0, 69, 109
1, 106702, Note_off_c, 0, 69, 109
1, 106719, Note_on_c, 0, 66, 101
1, 106894, Note_off_c, 0, 66, 101
1, 106961, Note_on_c, 0, 62, 95
1, 107089, Note_off_c, 0, 62, 95
1, 107129, Note_on_c, 0, 64, 93
1, 107938, Note_off_c, 0, 64, 93
1, 110930, Note_on_c, 0, 58, 101
1, 111046, Note_off_c, 0, 58, 101
1, 111076, Note_on_c, 0, 60, 100
1, 111233, Note_off_c, 0, 60, 100
1, 111273, Note_on_c, 0, 61, 96
1, 111429, Note_off_c, 0, 61, 96
1, 111495, Note_on_c, 0, 63, 108
1, 111691, Note_off_c, 0, 63, 108
1, 111704, Note_on_c, 0, 65, 107
1, 111855, Note_off_c, 0, 65, 107
1, 111874, Note_on_c, 0, 67, 113
1, 112075, Note_off_c, 0, 67, 113
1, 112088, Note_on_c, 0, 68, 112
1, 112235, Note_off_c, 0, 68, 112
1, 112277, Note_on_c, 0, 70, 106
1, 112441, Note_off_c, 0, 70, 106
1, 112472, Note_on_c, 0, 72, 113
1, 112685, Note_off_c, 0, 72, 113
1, 112703, Note_on_c, 0, 68, 100
1, 112851, Note_off_c, 0, 68, 100
1, 112878, Note_on_c, 0, 70, 114
1, 113035, Note_off_c, 0, 70, 114
1, 113076, Note_on_c, 0, 67, 107
1, 113261, Note_off_c, 0, 67, 107
1, 113292, Note_on_c, 0, 63, 108
1, 113434, Note_off_c, 0, 63, 108
1, 113697, Note_on_c, 0, 70, 112
1, 113970, Note_off_c, 0, 70, 112
1, 114152, Note_on_c, 0, 70, 108
1, 114439, Note_off_c, 0, 70, 108
1, 114561, Note_on_c, 0, 70, 114
1, 114883, Note_off_c, 0, 70, 114
1, 115013, Note_on_c, 0, 70, 116
1, 115347, Note_off_c, 0, 70, 116
1, 115414, Note_on_c, 0, 70, 116
1, 115671, Note_off_c, 0, 70, 116
1, 115686, Note_on_c, 0, 71, 112
1, 115961, Note_off_c, 0, 71, 112
1, 115976, Note_on_c, 0, 70, 115
1, 116776, Note_off_c, 0, 70, 115
1, 116819, Note_on_c, 0, 67, 108
1, 116986, Note_off_c, 0, 67, 108
1, 117025, Note_on_c, 0, 70, 116
1, 117267, Note_off_c, 0, 70, 116
1, 117305, Note_on_c, 0, 67, 116
1, 117505, Note_off_c, 0, 67, 116
1, 117539, Note_on_c, 0, 63, 109
1, 117808, Note_off_c, 0, 63, 109
1, 117834, Note_on_c, 0, 58, 99
1, 117992, Note_off_c, 0, 58, 99
1, 118087, Note_on_c, 0, 70, 116
1, 118282, Note_off_c, 0, 70, 116
1, 118316, Note_on_c, 0, 67, 111
1, 118553, Note_off_c, 0, 67, 111
1, 118593, Note_on_c, 0, 63, 110
1, 118768, Note_off_c, 0, 63, 110
1, 118845, Note_on_c, 0, 58, 96
1, 118998, Note_off_c, 0, 58, 96
1, 119054, Note_on_c, 0, 70, 111
1, 119321, Note_off_c, 0, 70, 111
1, 119340, Note_on_c, 0, 67, 112
1, 119568, Note_off_c, 0, 67, 112
1, 119599, Note_on_c, 0, 63, 110
1, 119820, Note_off_c, 0, 63, 110
1, 119857, Note_on_c, 0, 58, 94
1, 119969, Note_off_c, 0, 58, 94
1, 120117, Note_on_c, 0, 70, 114
1, 120383, Note_off_c, 0, 70, 114
1, 120406, Note_on_c, 0, 67, 108
1, 120597, Note_off_c, 0, 67, 108
1, 120624, Note_on_c, 0, 63, 113
1, 120861, Note_off_c, 0, 63, 113
1, 120913, Note_on_c, 0, 58, 97
1, 121083, Note_off_c, 0, 58, 97
1, 121152, Note_on_c, 0, 70, 114
1, 121350, Note_off_c, 0, 70, 114
1, 121373, Note_on_c, 0, 67, 113
1, 121599, Note_off_c, 0, 67, 113
1, 121616, Note_on_c, 0, 63, 112
1, 121801, Note_off_c, 0, 63, 112
1, 121872, Note_on_c, 0, 58, 99
1, 122038, Note_off_c, 0, 58, 99
1, 122135, Note_on_c, 0, 70, 113
1, 122357, Note_off_c, 0, 70, 113
1, 122380, Note_on_c, 0, 67, 110
1, 122601, Note_off_c, 0, 67, 110
1, 122663, Note_on_c, 0, 63, 107
1, 122893, Note_off_c, 0, 63, 107
1, 123133, Note_on_c, 0, 65, 104
1, 124395, Note_off_c, 0, 65, 104
1, 124462, Note_on_c, 0, 63, 101
1, 124943, Note_off_c, 0, 63, 101
1, 124958, Note_on_c, 0, 60, 110
1, 125037, Note_off_c, 0, 60, 110
1, 125050, Note_on_c, 0, 63, 101
1, 125148, Note_off_c, 0, 63, 101
1, 125156, Note_on_c, 0, 65, 100
1, 125721, Note_off_c, 0, 65, 100
1, 128567, Note_on_c, 0, 77, 120
1, 128677, Note_off_c, 0, 77, 120
1, 128689, Note_on_c, 0, 76, 119
1, 128801, Note_off_c, 0, 76, 119
1, 128821, Note_on_c, 0, 75, 117
1, 128969, Note_off_c, 0, 75, 117
1, 128987, Note_on_c, 0, 74, 117
1, 129160, Note_off_c, 0, 74, 117
1, 129181, Note_on_c, 0, 69, 107
1, 129333, Note_off_c, 0, 69, 107
1, 129379, Note_on_c, 0, 70, 110
1, 129545, Note_off_c, 0, 70, 110
1, 129562, Note_on_c, 0, 68, 115
1, 129760, Note_off_c, 0, 68, 115
1, 129779, Note_on_c, 0, 67, 115
1, 129975, Note_off_c, 0, 67, 115
1, 130018, Note_on_c, 0, 66, 114
1, 130179, Note_off_c, 0, 66, 114
1, 130207, Note_on_c, 0, 65, 116
1, 130402, Note_off_c, 0, 65, 116
1, 130425, Note_on_c, 0, 63, 111
1, 130621, Note_off_c, 0, 63, 111
1, 130649, Note_on_c, 0, 62, 103
1, 130823, Note_off_c, 0, 62, 103
1, 130868, Note_on_c, 0, 61, 82
1, 131223, Note_off_c, 0, 61, 82
1, 131241, Note_on_c, 0, 64, 99
1, 131308, Note_off_c, 0, 64, 99
1, 131312, Note_on_c, 0, 66, 103
1, 131374, Note_off_c, 0, 66, 103
1, 131380, Note_on_c, 0, 68, 115
1, 131492, Note_off_c, 0, 68, 115
1, 131500, Note_on_c, 0, 67, 110
1, 131801, Note_off_c, 0, 67, 110
1, 131811, Note_on_c, 0, 62, 85
1, 131936, Note_off_c, 0, 62, 85
1, 131963, Note_on_c, 0, 65, 107
1, 132208, Note_off_c, 0, 65, 107
1, 132231, Note_on_c, 0, 63, 103
1, 132476, Note_off_c, 0, 63, 103
1, 132538, Note_on_c, 0, 60, 87
1, 133465, Note_off_c, 0, 60, 87
1, 135067, Note_on_c, 0, 75, 111
1, 136268, Note_off_c, 0, 75, 111
1, 136308, Note_on_c, 0, 74, 105
1, 136487, Note_off_c, 0, 74, 105
1, 136525, Note_on_c, 0, 72, 108
1, 136769, Note_off_c, 0, 72, 108
1, 136796, Note_on_c, 0, 71, 108
1, 137189, Note_off_c, 0, 71, 108
1, 137322, Note_on_c, 0, 62, 86
1, 137583, Note_off_c, 0, 62, 86
1, 137608, Note_on_c, 0, 64, 92
1, 138041, Note_off_c, 0, 64, 92
1, 138081, Note_on_c, 0, 66, 103
1, 138331, Note_off_c, 0, 66, 103
1, 138424, Note_on_c, 0, 67, 108
1, 138818, Note_off_c, 0, 67, 108
1, 138901, Note_on_c, 0, 69, 109
1, 139194, Note_off_c, 0, 69, 109
1, 139282, Note_on_c, 0, 71, 108
1, 139779, Note_off_c, 0, 71, 108
1, 139804, Note_on_c, 0, 73, 109
1, 141199, Note_off_c, 0, 73, 109
1, 141260, Note_on_c, 0, 70, 102
1, 141472, Note_off_c, 0, 70, 102
1, 141487, Note_on_c, 0, 68, 98
1, 141758, Note_off_c, 0, 68, 98
1, 141800, Note_on_c, 0, 70, 100
1, 142770, Note_off_c, 0, 70, 100
1, 143492, Note_on_c, 0, 72, 111
1, 143746, Note_off_c, 0, 72, 111
1, 143774, Note_on_c, 0, 67, 105
1, 143988, Note_off_c, 0, 67, 105
1, 144025, Note_on_c, 0, 67, 105
1, 144247, Note_off_c, 0, 67, 105
1, 144327, Note_on_c, 0, 67, 108
1, 144606, Note_off_c, 0, 67, 108
1, 144770, Note_on_c, 0, 67, 109
1, 145079, Note_off_c, 0, 67, 109
1, 145245, Note_on_c, 0, 67, 110
1, 145780, Note_off_c, 0, 67, 110
1, 145791, Note_on_c, 0, 68, 108
1, 146047, Note_off_c, 0, 68, 108
1, 146068, Note_on_c, 0, 70, 108
1, 146314, Note_off_c, 0, 70, 108
1, 146348, Note_on_c, 0, 65, 89
1, 147134, Note_off_c, 0, 65, 89
1, 149778, Note_on_c, 0, 79, 66
1, 149889, Note_off_c, 0, 79, 66
1, 149889, Note_on_c, 0, 84, 89
1, 150569, Note_off_c, 0, 84, 89
1, 152599, Note_on_c, 0, 79, 115
1, 152775, Note_off_c, 0, 79, 115
1, 152791, Note_on_c, 0, 78, 117
1, 152860, Note_off_c, 0, 78, 117
1, 152876, Note_on_c, 0, 77, 118
1, 153047, Note_off_c, 0, 77, 118
1, 153067, Note_on_c, 0, 75, 114
1, 153324, Note_off_c, 0, 75, 114
1, 153345, Note_on_c, 0, 77, 116
1, 153591, Note_off_c, 0, 77, 116
1, 153610, Note_on_c, 0, 79, 113
1, 153919, Note_off_c, 0, 79, 113
1, 154313, Note_on_c, 0, 72, 112
1, 154531, Note_off_c, 0, 72, 112
1, 154558, Note_on_c, 0, 74, 124
1, 154784, Note_off_c, 0, 74, 124
1, 154813, Note_on_c, 0, 75, 115
1, 155023, Note_off_c, 0, 75, 115
1, 155051, Note_on_c, 0, 74, 119
1, 155282, Note_off_c, 0, 74, 119
1, 155321, Note_on_c, 0, 72, 114
1, 155529, Note_off_c, 0, 72, 114
1, 155602, Note_on_c, 0, 67, 107
1, 155804, Note_off_c, 0, 67, 107
1, 155839, Note_on_c, 0, 63, 104
1, 156061, Note_off_c, 0, 63, 104
1, 156084, Note_on_c, 0, 62, 102
1, 156311, Note_off_c, 0, 62, 102
1, 157253, Note_on_c, 0, 74, 119
1, 157763, Note_off_c, 0, 74, 119
1, 158080, Note_on_c, 0, 74, 118
1, 158615, Note_off_c, 0, 74, 118
1, 158899, Note_on_c, 0, 74, 120
1, 159473, Note_off_c, 0, 74, 120
1, 159706, Note_on_c, 0, 74, 117
1, 160232, Note_off_c, 0, 74, 117
1, 160302, Note_on_c, 0, 72, 115
1, 160630, Note_off_c, 0, 72, 115
1, 160656, Note_on_c, 0, 67, 110
1, 161033, Note_off_c, 0, 67, 110
1, 161119, Note_on_c, 0, 63, 106
1, 161497, Note_off_c, 0, 63, 106
1, 161517, Note_on_c, 0, 62, 99
1, 162012, Note_off_c, 0, 62, 99
1, 162251, Note_on_c, 0, 70, 106
1, 162374, Note_off_c, 0, 70, 106
1, 162394, Note_on_c, 0, 71, 101
1, 162554, Note_off_c, 0, 71, 101
1, 162586, Note_on_c, 0, 72, 114
1, 162804, Note_off_c, 0, 72, 114
1, 162853, Note_on_c, 0, 71, 109
1, 164485, Note_off_c, 0, 71, 109
1, 164574, Note_on_c, 0, 62, 95
1, 164666, Note_off_c, 0, 62, 95
1, 164809, Note_on_c, 0, 69, 105
1, 164984, Note_off_c, 0, 69, 105
1, 165034, Note_on_c, 0, 66, 103
1, 165228, Note_off_c, 0, 66, 103
1, 165259, Note_on_c, 0, 62, 93
1, 165463, Note_off_c, 0, 62, 93
1, 165498, Note_on_c, 0, 64, 101
1, 165664, Note_off_c, 0, 64, 101
1, 165680, Note_on_c, 0, 65, 104
1, 165868, Note_off_c, 0, 65, 104
1, 165925, Note_on_c, 0, 67, 110
1, 166077, Note_off_c, 0, 67, 110
1, 166130, Note_on_c, 0, 71, 83
1, 166278, Note_off_c, 0, 71, 83
1, 166315, Note_on_c, 0, 72, 109
1, 166448, Note_off_c, 0, 72, 109
1, 166503, Note_on_c, 0, 71, 113
1, 166676, Note_off_c, 0, 71, 113
1, 166740, Note_on_c, 0, 69, 109
1, 166886, Note_off_c, 0, 69, 109
1, 166906, Note_on_c, 0, 67, 112
1, 167109, Note_off_c, 0, 67, 112
1, 167135, Note_on_c, 0, 66, 104
1, 167323, Note_off_c, 0, 66, 104
1, 167338, Note_on_c, 0, 65, 101
1, 168036, Note_off_c, 0, 65, 101
1, 168062, Note_on_c, 0, 64, 98
1, 169488, Note_off_c, 0, 64, 98
1, 169592, Note_on_c, 0, 60, 92
1, 169717, Note_off_c, 0, 60, 92
1, 169730, Note_on_c, 0, 62, 97
1, 170005, Note_off_c, 0, 62, 97
1, 170044, Note_on_c, 0, 64, 92
1, 172280, Note_off_c, 0, 64, 92
1, 172310, Note_on_c, 0, 61, 97
1, 172601, Note_off_c, 0, 61, 97
1, 172688, Note_on_c, 0, 64, 86
1, 172839, Note_off_c, 0, 64, 86
1, 172926, Note_on_c, 0, 69, 97
1, 173231, Note_off_c, 0, 69, 97
1, 173288, Note_on_c, 0, 67, 99
1, 173495, Note_off_c, 0, 67, 99
1, 173538, Note_on_c, 0, 63, 96
1, 173704, Note_off_c, 0, 63, 96
1, 173732, Note_on_c, 0, 60, 84
1, 174531, Note_off_c, 0, 60, 84
1, 176589, Note_on_c, 0, 66, 97
1, 176682, Note_off_c, 0, 66, 97
1, 176705, Note_on_c, 0, 63, 95
1, 176797, Note_off_c, 0, 63, 95
1, 176808, Note_on_c, 0, 60, 99
1, 176901, Note_off_c, 0, 60, 99
1, 176903, Note_on_c, 0, 62, 97
1, 176953, Note_off_c, 0, 62, 97
1, 176962, Note_on_c, 0, 63, 96
1, 177042, Note_off_c, 0, 63, 96
1, 177076, Note_on_c, 0, 69, 88
1, 177193, Note_off_c, 0, 69, 88
1, 177234, Note_on_c, 0, 67, 95
1, 177343, Note_off_c, 0, 67, 95
1, 177357, Note_on_c, 0, 62, 95
1, 177443, Note_off_c, 0, 62, 95
1, 177451, Note_on_c, 0, 60, 93
1, 177554, Note_off_c, 0, 60, 93
1, 177571, Note_on_c, 0, 67, 110
1, 177648, Note_off_c, 0, 67, 110
1, 177655, Note_on_c, 0, 69, 112
1, 177714, Note_off_c, 0, 69, 112
1, 177728, Note_on_c, 0, 70, 116
1, 177797, Note_off_c, 0, 70, 116
1, 177814, Note_on_c, 0, 69, 113
1, 178060, Note_off_c, 0, 69, 113
1, 182461, Note_on_c, 0, 78, 120
1, 182744, Note_off_c, 0, 78, 120
1, 182786, Note_on_c, 0, 77, 121
1, 182964, Note_off_c, 0, 77, 121
1, 183012, Note_on_c, 0, 75, 113
1, 183244, Note_off_c, 0, 75, 113
1, 183289, Note_on_c, 0, 77, 120
1, 183521, Note_off_c, 0, 77, 120
1, 183596, Note_on_c, 0, 65, 92
1, 183840, Note_off_c, 0, 65, 92
1, 183858, Note_on_c, 0, 65, 109
1, 184126, Note_off_c, 0, 65, 109
1, 184171, Note_on_c, 0, 65, 113
1, 184373, Note_off_c, 0, 65, 113
1, 184433, Note_on_c, 0, 65, 115
1, 184647, Note_off_c, 0, 65, 115
1, 184699, Note_on_c, 0, 65, 112
1, 184929, Note_off_c, 0, 65, 112
1, 184977, Note_on_c, 0, 65, 114
1, 185219, Note_off_c, 0, 65, 114
1, 185274, Note_on_c, 0, 65, 112
1, 185499, Note_off_c, 0, 65, 112
1, 185537, Note_on_c, 0, 65, 112
1, 185767, Note_off_c, 0, 65, 112
1, 185834, Note_on_c, 0, 65, 108
1, 186029, Note_off_c, 0, 65, 108
1, 186089, Note_on_c, 0, 65, 111
1, 186304, Note_off_c, 0, 65, 111
1, 186376, Note_on_c, 0, 65, 109
1, 186601, Note_off_c, 0, 65, 109
1, 186658, Note_on_c, 0, 65, 110
1, 186877, Note_off_c, 0, 65, 110
1, 186954, Note_on_c, 0, 63, 106
1, 187166, Note_off_c, 0, 63, 106
1, 187216, Note_on_c, 0, 65, 110
1, 187426, Note_off_c, 0, 65, 110
1, 187473, Note_on_c, 0, 67, 118
1, 187700, Note_off_c, 0, 67, 118
1, 187732, Note_on_c, 0, 70, 116
1, 187981, Note_off_c, 0, 70, 116
1, 188002, Note_on_c, 0, 69, 109
1, 188256, Note_off_c, 0, 69, 109
1, 188293, Note_on_c, 0, 67, 114
1, 188574, Note_off_c, 0, 67, 114
1, 188638, Note_on_c, 0, 64, 99
1, 188759, Note_off_c, 0, 64, 99
1, 188855, Note_on_c, 0, 66, 116
1, 189084, Note_off_c, 0, 66, 116
1, 189348, Note_on_c, 0, 73, 119
1, 189621, Note_off_c, 0, 73, 119
1, 189654, Note_on_c, 0, 73, 117
1, 189932, Note_off_c, 0, 73, 117
1, 189991, Note_on_c, 0, 73, 118
1, 191520, Note_off_c, 0, 73, 118
1, 191752, Note_on_c, 0, 72, 110
1, 192090, Note_off_c, 0, 72, 110
1, 192193, Note_on_c, 0, 69, 106
1, 192439, Note_off_c, 0, 69, 106
1, 192510, Note_on_c, 0, 65, 98
1, 192828, Note_off_c, 0, 65, 98
1, 193259, Note_on_c, 0, 69, 94
1, 193370, Note_off_c, 0, 69, 94
1, 193385, Note_on_c, 0, 70, 98
1, 193466, Note_off_c, 0, 70, 98
1, 193483, Note_on_c, 0, 69, 88
1, 193723, Note_off_c, 0, 69, 88
1, 193770, Note_on_c, 0, 66, 87
1, 193955, Note_off_c, 0, 66, 87
1, 194018, Note_on_c, 0, 62, 80
1, 195096, Note_off_c, 0, 62, 80
1, 195139, Note_on_c, 0, 63, 92
1, 195704, Note_off_c, 0, 63, 92
1, 195730, Note_on_c, 0, 62, 82
1, 196209, Note_off_c, 0, 62, 82
1, 196249, Note_on_c, 0, 61, 80
1, 197790, Note_off_c, 0, 61, 80
1, 197847, Note_on_c, 0, 64, 9
1, 198321, Note_off_c, 0, 64, 9
1, 201881, Note_on_c, 0, 78, 118
1, 202468, Note_off_c, 0, 78, 118
1, 202515, Note_on_c, 0, 78, 119
1, 203006, Note_off_c, 0, 78, 119
1, 203077, Note_on_c, 0, 78, 117
1, 204175, Note_off_c, 0, 78, 117
1, 204203, Note_on_c, 0, 75, 113
1, 204457, Note_off_c, 0, 75, 113
1, 204480, Note_on_c, 0, 76, 109
1, 204712, Note_off_c, 0, 76, 109
1, 204791, Note_on_c, 0, 75, 113
1, 205481, Note_off_c, 0, 75, 113
1, 205564, Note_on_c, 0, 73, 116
1, 206266, Note_off_c, 0, 73, 116
1, 206381, Note_on_c, 0, 73, 116
1, 207173, Note_off_c, 0, 73, 116
1, 207184, Note_on_c, 0, 72, 105
1, 207278, Note_off_c, 0, 72, 105
1, 207311, Note_on_c, 0, 71, 110
1, 207722, Note_off_c, 0, 71, 110
1, 207838, Note_on_c, 0, 66, 85
1, 208294, Note_off_c, 0, 66, 85
1, 209947, Note_on_c, 0, 76, 117
1, 210225, Note_off_c, 0, 76, 117
1, 210248, Note_on_c, 0, 74, 119
1, 210524, Note_off_c, 0, 74, 119
1, 210579, Note_on_c, 0, 76, 117
1, 210826, Note_off_c, 0, 76, 117
1, 210832, Note_on_c, 0, 74, 119
1, 211086, Note_off_c, 0, 74, 119
1, 211121, Note_on_c, 0, 76, 118
1, 211378, Note_off_c, 0, 76, 118
1, 211406, Note_on_c, 0, 74, 119
1, 211650, Note_off_c, 0, 74, 119
1, 211678, Note_on_c, 0, 76, 118
1, 211935, Note_off_c, 0, 76, 118
1, 211958, Note_on_c, 0, 74, 122
1, 212141, Note_off_c, 0, 74, 122
1, 212275, Note_on_c, 0, 76, 116
1, 212521, Note_off_c, 0, 76, 116
1, 212542, Note_on_c, 0, 74, 122
1, 212734, Note_off_c, 0, 74, 122
1, 212867, Note_on_c, 0, 76, 116
1, 213111, Note_off_c, 0, 76, 116
1, 213121, Note_on_c, 0, 74, 120
1, 213340, Note_off_c, 0, 74, 120
1, 213382, Note_on_c, 0, 76, 118
1, 213655, Note_off_c, 0, 76, 118
1, 213676, Note_on_c, 0, 74, 117
1, 213906, Note_off_c, 0, 74, 117
1, 213963, Note_on_c, 0, 76, 116
1, 214237, Note_off_c, 0, 76, 116
1, 214247, Note_on_c, 0, 74, 118
1, 214454, Note_off_c, 0, 74, 118
1, 214529, Note_on_c, 0, 76, 115
1, 214802, Note_off_c, 0, 76, 115
1, 214834, Note_on_c, 0, 77, 116
1, 215086, Note_off_c, 0, 77, 116
1, 215116, Note_on_c, 0, 76, 115
1, 215380, Note_off_c, 0, 76, 115
1, 215408, Note_on_c, 0, 74, 118
1, 216340, Note_off_c, 0, 74, 118
1, 217262, Note_on_c, 0, 71, 106
1, 217336, Note_off_c, 0, 71, 106
1, 217359, Note_on_c, 0, 68, 99
1, 217460, Note_off_c, 0, 68, 99
1, 217477, Note_on_c, 0, 73, 106
1, 217635, Note_off_c, 0, 73, 106
1, 217675, Note_on_c, 0, 73, 110
1, 219667, Note_off_c, 0, 73, 110
1, 219682, Note_on_c, 0, 71, 103
1, 219873, Note_off_c, 0, 71, 103
1, 219904, Note_on_c, 0, 69, 99
1, 222847, Note_off_c, 0, 69, 99
1, 222858, Note_on_c, 0, 66, 96
1, 223016, Note_off_c, 0, 66, 96
1, 223071, Note_on_c, 0, 65, 109
1, 223852, Note_off_c, 0, 65, 109
1, 223878, Note_on_c, 0, 63, 81
1, 225781, Note_off_c, 0, 63, 81
1, 225781, End_track
0, 0, End_of_file
