0, 0, Header, 1, 1, 192
1, 0, Start_track
1, 0, Title_t, "Melody"
1, 0, Tempo, 410958
1, 0, Key_signature, 3, "major"
1, 0, Time_signature, 4, 2, 24, 8
1, 2266, Note_on_c, 0, 61, 121
1, 2348, Note_off_c, 0, 61, 121
1, 2412, Note_on_c, 0, 64, 127
1, 2513, Note_off_c, 0, 64, 127
1, 2517, Note_on_c, 0, 63, 126
1, 2651, Note_off_c, 0, 63, 126
1, 2671, Note_on_c, 0, 68, 126
1, 2789, Note_off_c, 0, 68, 126
1, 2831, Note_on_c, 0, 68, 116
1, 2937, Note_off_c, 0, 68, 116
1, 2960, Note_on_c, 0, 68, 114
1, 3429, Note_off_c, 0, 68, 114
1, 3473, Note_on_c, 0, 66, 105
1, 3589, Note_off_c, 0, 66, 105
1, 3618, Note_on_c, 0, 61, 102
1, 3976, Note_off_c, 0, 61, 102
1, 4505, Note_on_c, 0, 69, 115
1, 4534, Note_off_c, 0, 69, 115
1, 4544, Note_on_c, 0, 71, 119
1, 4580, Note_off_c, 0, 71, 119
1, 4593, Note_on_c, 0, 73, 118
1, 4950, Note_off_c, 0, 73, 118
1, 4958, Note_on_c, 0, 74, 121
1, 4987, Note_on_c, 0, 76, 114
1, 4987, Note_off_c, 0, 74, 121
1, 5005, Note_off_c, 0, 76, 114
1, 5006, Note_on_c, 0, 77, 122
1, 5048, Note_off_c, 0, 77, 122
1, 5058, Note_on_c, 0, 81, 115
1, 5209, Note_off_c, 0, 81, 115
1, 5217, Note_on_c, 0, 79, 113
1, 5248, Note_off_c, 0, 79, 113
1, 5258, Note_on_c, 0, 77, 117
1, 5284, Note_off_c, 0, 77, 117
1, 5291, Note_on_c, 0, 76, 110
1, 5314, Note_off_c, 0, 76, 110
1, 5317, Note_on_c, 0, 77, 109
1, 5337, Note_off_c, 0, 77, 109
1, 5354, Note_on_c, 0, 73, 113
1, 5512, Note_off_c, 0, 73, 113
1, 5524, Note_on_c, 0, 74, 107
1, 5546, Note_off_c, 0, 74, 107
1, 5554, Note_on_c, 0, 73, 112
1, 5670, Note_off_c, 0, 73, 112
1, 5670, Note_on_c, 0, 74, 113
1, 5709, Note_off_c, 0, 74, 113
1, 5718, Note_on_c, 0, 73, 110
1, 5801, Note_off_c, 0, 73, 110
1, 5808, Note_on_c, 0, 76, 108
1, 5840, Note_off_c, 0, 76, 108
1, 5843, Note_on_c, 0, 75, 106
1, 5912, Note_off_c, 0, 75, 106
1, 5922, Note_on_c, 0, 76, 100
1, 5952, Note_off_c, 0, 76, 100
1, 5971, Note_on_c, 0, 73, 109
1, 6085, Note_off_c, 0, 73, 109
1, 6124, Note_on_c, 0, 66, 96
1, 6241, Note_off_c, 0, 66, 96
1, 6249, Note_on_c, 0, 69, 104
1, 6533, Note_off_c, 0, 69, 104
1, 6985, Note_on_c, 0, 76, 114
1, 7022, Note_off_c, 0, 76, 114
1, 7037, Note_on_c, 0, 79, 116
1, 7080, Note_off_c, 0, 79, 116
1, 7101, Note_on_c, 0, 81, 115
1, 7326, Note_off_c, 0, 81, 115
1, 7374, Note_on_c, 0, 79, 112
1, 7448, Note_off_c, 0, 79, 112
1, 7475, Note_on_c, 0, 77, 117
1, 7564, Note_off_c, 0, 77, 117
1, 7566, Note_on_c, 0, 76, 117
1, 7657, Note_off_c, 0, 76, 117
1, 7663, Note_on_c, 0, 74, 118
1, 7753, Note_off_c, 0, 74, 118
1, 7764, Note_on_c, 0, 72, 114
1, 7849, Note_off_c, 0, 72, 114
1, 7869, Note_on_c, 0, 71, 115
1, 7938, Note_off_c, 0, 71, 115
1, 7951, Note_on_c, 0, 69, 110
1, 8028, Note_off_c, 0, 69, 110
1, 8041, Note_on_c, 0, 67, 110
1, 8139, Note_off_c, 0, 67, 110
1, 8149, Note_on_c, 0, 66, 108
1, 8224, Note_off_c, 0, 66, 108
1, 8236, Note_on_c, 0, 65, 111
1, 8503, Note_off_c, 0, 65, 111
1, 8507, Note_on_c, 0, 66, 106
1, 8549, Note_off_c, 0, 66, 106
1, 8557, Note_on_c, 0, 68, 113
1, 8597, Note_off_c, 0, 68, 113
1, 8607, Note_on_c, 0, 69, 113
1, 8849, Note_off_c, 0, 69, 113
1, 8862, Note_on_c, 0, 71, 110
1, 8903, Note_off_c, 0, 71, 110
1, 8909, Note_on_c, 0, 73, 115
1, 8963, Note_off_c, 0, 73, 115
1, 8988, Note_on_c, 0, 69, 108
1, 9115, Note_off_c, 0, 69, 108
1, 9145, Note_on_c, 0, 69, 106
1, 9430, Note_off_c, 0, 69, 106
1, 10041, Note_on_c, 0, 73, 117
1, 10093, Note_off_c, 0, 73, 117
1, 10111, Note_on_c, 0, 76, 119
1, 10209, Note_off_c, 0, 76, 119
1, 10226, Note_on_c, 0, 76, 126
1, 10283, Note_off_c, 0, 76, 126
1, 10289, Note_on_c, 0, 80, 121
1, 10396, Note_off_c, 0, 80, 121
1, 10404, Note_on_c, 0, 83, 119
1, 11358, Note_off_c, 0, 83, 119
1, 11557, Note_on_c, 0, 73, 113
1, 11601, Note_off_c, 0, 73, 113
1, 11622, Note_on_c, 0, 76, 119
1, 11726, Note_off_c, 0, 76, 119
1, 11738, Note_on_c, 0, 78, 116
1, 11805, Note_off_c, 0, 78, 116
1, 11811, Note_on_c, 0, 80, 119
1, 11943, Note_on_c, 0, 83, 120
1, 11943, Note_off_c, 0, 80, 119
1, 12508, Note_off_c, 0, 83, 120
1, 13077, Note_on_c, 0, 81, 119
1, 13290, Note_off_c, 0, 81, 119
1, 13326, Note_on_c, 0, 86, 119
1, 13397, Note_off_c, 0, 86, 119
1, 13401, Note_on_c, 0, 85, 122
1, 13487, Note_off_c, 0, 85, 122
1, 13491, Note_on_c, 0, 88, 118
1, 14274, Note_off_c, 0, 88, 118
1, 14636, Note_on_c, 0, 69, 110
1, 14851, Note_off_c, 0, 69, 110
1, 14878, Note_on_c, 0, 73, 113
1, 14936, Note_off_c, 0, 73, 113
1, 14963, Note_on_c, 0, 78, 112
1, 15001, Note_off_c, 0, 78, 112
1, 15016, Note_on_c, 0, 81, 116
1, 15064, Note_off_c, 0, 81, 116
1, 15102, Note_on_c, 0, 83, 121
1, 15171, Note_off_c, 0, 83, 121
1, 15197, Note_on_c, 0, 83, 118
1, 15264, Note_off_c, 0, 83, 118
1, 15275, Note_on_c, 0, 80, 118
1, 15342, Note_off_c, 0, 80, 118
1, 15386, Note_on_c, 0, 80, 110
1, 15462, Note_off_c, 0, 80, 110
1, 15468, Note_on_c, 0, 76, 111
1, 15566, Note_off_c, 0, 76, 111
1, 15567, Note_on_c, 0, 74, 117
1, 15650, Note_off_c, 0, 74, 117
1, 15653, Note_on_c, 0, 73, 114
1, 15757, Note_off_c, 0, 73, 114
1, 15761, Note_on_c, 0, 71, 113
1, 15834, Note_off_c, 0, 71, 113
1, 15852, Note_on_c, 0, 69, 109
1, 15953, Note_off_c, 0, 69, 109
1, 15970, Note_on_c, 0, 65, 116
1, 16039, Note_off_c, 0, 65, 116
1, 16052, Note_on_c, 0, 61, 109
1, 16136, Note_off_c, 0, 61, 109
1, 16146, Note_on_c, 0, 57, 97
1, 16180, Note_off_c, 0, 57, 97
1, 16239, Note_on_c, 0, 64, 111
1, 16274, Note_off_c, 0, 64, 111
1, 16274, Note_on_c, 0, 65, 109
1, 16307, Note_off_c, 0, 65, 109
1, 16311, Note_on_c, 0, 64, 108
1, 16345, Note_off_c, 0, 64, 108
1, 16349, Note_on_c, 0, 61, 111
1, 16384, Note_off_c, 0, 61, 111
1, 16424, Note_on_c, 0, 62, 103
1, 16500, Note_off_c, 0, 62, 103
1, 16537, Note_on_c, 0, 65, 102
1, 16574, Note_off_c, 0, 65, 102
1, 16595, Note_on_c, 0, 69, 105
1, 16630, Note_off_c, 0, 69, 105
1, 16648, Note_on_c, 0, 69, 102
1, 16685, Note_off_c, 0, 69, 102
1, 16704, Note_on_c, 0, 76, 111
1, 16756, Note_off_c, 0, 76, 111
1, 16771, Note_on_c, 0, 79, 109
1, 16813, Note_off_c, 0, 79, 109
1, 16826, Note_on_c, 0, 76, 113
1, 16860, Note_off_c, 0, 76, 113
1, 16866, Note_on_c, 0, 77, 108
1, 16903, Note_off_c, 0, 77, 108
1, 16914, Note_on_c, 0, 74, 99
1, 16935, Note_off_c, 0, 74, 99
1, 16938, Note_on_c, 0, 73, 112
1, 17027, Note_off_c, 0, 73, 112
1, 17052, Note_on_c, 0, 76, 109
1, 17141, Note_off_c, 0, 76, 109
1, 17155, Note_on_c, 0, 74, 112
1, 17254, Note_off_c, 0, 74, 112
1, 17273, Note_on_c, 0, 69, 102
1, 17462, Note_off_c, 0, 69, 102
1, 18232, Note_on_c, 0, 78, 114
1, 18298, Note_off_c, 0, 78, 114
1, 18313, Note_on_c, 0, 76, 118
1, 18398, Note_off_c, 0, 76, 118
1, 18444, Note_on_c, 0, 73, 117
1, 18561, Note_off_c, 0, 73, 117
1, 18628, Note_on_c, 0, 72, 115
1, 18690, Note_off_c, 0, 72, 115
1, 18700, Note_on_c, 0, 71, 116
1, 18811, Note_off_c, 0, 71, 116
1, 18817, Note_on_c, 0, 69, 111
1, 19050, Note_off_c, 0, 69, 111
1, 19073, Note_on_c, 0, 66, 116
1, 19114, Note_off_c, 0, 66, 116
1, 19120, Note_on_c, 0, 64, 117
1, 19147, Note_off_c, 0, 64, 117
1, 19154, Note_on_c, 0, 66, 111
1, 19194, Note_off_c, 0, 66, 111
1, 19206, Note_on_c, 0, 64, 114
1, 19267, Note_on_c, 0, 61, 110
1, 19267, Note_off_c, 0, 64, 114
1, 19448, Note_off_c, 0, 61, 110
1, 19471, Note_on_c, 0, 59, 109
1, 19597, Note_off_c, 0, 59, 109
1, 19616, Note_on_c, 0, 57, 112
1, 20171, Note_off_c, 0, 57, 112
1, 20171, End_track
0, 0, End_of_file
