0, 0, Header, 1, 1, 20160
1, 0, Start_track
1, 0, Title_t, "Melody"
1, 0, Tempo, 821917
1, 0, Key_signature, -1, "major"
1, 0, Time_signature, 4, 2, 24, 8
1, 155827, Note_on_c, 0, 77, 111
1, 158980, Note_off_c, 0, 77, 111
1, 162210, Note_on_c, 0, 80, 109
1, 166632, Note_off_c, 0, 80, 109
1, 167099, Note_on_c, 0, 79, 109
1, 171646, Note_off_c, 0, 79, 109
1, 172144, Note_on_c, 0, 77, 112
1, 175040, Note_off_c, 0, 77, 112
1, 177469, Note_on_c, 0, 75, 100
1, 183386, Note_off_c, 0, 75, 100
1, 184631, Note_on_c, 0, 77, 111
1, 191483, Note_off_c, 0, 77, 111
1, 192043, Note_on_c, 0, 68, 107
1, 198085, Note_off_c, 0, 68, 107
1, 253704, Note_on_c, 0, 74, 114
1, 258242, Note_off_c, 0, 74, 114
1, 259621, Note_on_c, 0, 77, 111
1, 263358, Note_off_c, 0, 77, 111
1, 265716, Note_on_c, 0, 79, 106
1, 269809, Note_off_c, 0, 79, 106
1, 270398, Note_on_c, 0, 80, 113
1, 292523, Note_off_c, 0, 80, 113
1, 294414, Note_on_c, 0, 79, 108
1, 296594, Note_off_c, 0, 79, 108
1, 296994, Note_on_c, 0, 80, 107
1, 297928, Note_off_c, 0, 80, 107
1, 298461, Note_on_c, 0, 81, 108
1, 300018, Note_off_c, 0, 81, 108
1, 300907, Note_on_c, 0, 77, 114
1, 302686, Note_off_c, 0, 77, 114
1, 306423, Note_on_c, 0, 80, 111
1, 310739, Note_off_c, 0, 80, 111
1, 311940, Note_on_c, 0, 79, 109
1, 315277, Note_off_c, 0, 79, 109
1, 316033, Note_on_c, 0, 77, 109
1, 320838, Note_off_c, 0, 77, 109
1, 321149, Note_on_c, 0, 75, 108
1, 323996, Note_off_c, 0, 75, 108
1, 325731, Note_on_c, 0, 77, 110
1, 330580, Note_off_c, 0, 77, 110
1, 333383, Note_on_c, 0, 68, 110
1, 338321, Note_off_c, 0, 68, 110
1, 391626, Note_on_c, 0, 81, 118
1, 395416, Note_off_c, 0, 81, 118
1, 395843, Note_on_c, 0, 82, 111
1, 400221, Note_off_c, 0, 82, 111
1, 403184, Note_on_c, 0, 81, 110
1, 408363, Note_off_c, 0, 81, 110
1, 411353, Note_on_c, 0, 79, 111
1, 414983, Note_off_c, 0, 79, 111
1, 416558, Note_on_c, 0, 78, 112
1, 420322, Note_off_c, 0, 78, 112
1, 421443, Note_on_c, 0, 76, 113
1, 424700, Note_off_c, 0, 76, 113
1, 425380, Note_on_c, 0, 74, 104
1, 426941, Note_off_c, 0, 74, 104
1, 427341, Note_on_c, 0, 76, 110
1, 428822, Note_off_c, 0, 76, 110
1, 429102, Note_on_c, 0, 78, 104
1, 430623, Note_off_c, 0, 78, 104
1, 430845, Note_on_c, 0, 76, 105
1, 432073, Note_off_c, 0, 76, 105
1, 432491, Note_on_c, 0, 73, 110
1, 435774, Note_off_c, 0, 73, 110
1, 436788, Note_on_c, 0, 71, 113
1, 441940, Note_off_c, 0, 71, 113
1, 442927, Note_on_c, 0, 70, 111
1, 446851, Note_off_c, 0, 70, 111
1, 447376, Note_on_c, 0, 69, 105
1, 454957, Note_off_c, 0, 69, 105
1, 457368, Note_on_c, 0, 80, 115
1, 459957, Note_off_c, 0, 80, 115
1, 460304, Note_on_c, 0, 81, 109
1, 461665, Note_off_c, 0, 81, 109
1, 462092, Note_on_c, 0, 80, 106
1, 463587, Note_off_c, 0, 80, 106
1, 463747, Note_on_c, 0, 77, 111
1, 465268, Note_off_c, 0, 77, 111
1, 469512, Note_on_c, 0, 80, 113
1, 474023, Note_off_c, 0, 80, 113
1, 476879, Note_on_c, 0, 68, 111
1, 482031, Note_off_c, 0, 68, 111
1, 544849, Note_on_c, 0, 62, 111
1, 546272, Note_off_c, 0, 62, 111
1, 546561, Note_on_c, 0, 63, 109
1, 547918, Note_off_c, 0, 63, 109
1, 547962, Note_on_c, 0, 65, 112
1, 549096, Note_off_c, 0, 65, 112
1, 549198, Note_on_c, 0, 68, 113
1, 550532, Note_off_c, 0, 68, 113
1, 550852, Note_on_c, 0, 67, 108
1, 552173, Note_off_c, 0, 67, 108
1, 552876, Note_on_c, 0, 65, 114
1, 554055, Note_off_c, 0, 65, 114
1, 554321, Note_on_c, 0, 68, 113
1, 556843, Note_off_c, 0, 68, 113
1, 559138, Note_on_c, 0, 65, 112
1, 565358, Note_off_c, 0, 65, 112
1, 566879, Note_on_c, 0, 67, 107
1, 568093, Note_off_c, 0, 67, 107
1, 568386, Note_on_c, 0, 68, 114
1, 569520, Note_off_c, 0, 68, 114
1, 570067, Note_on_c, 0, 71, 111
1, 572109, Note_off_c, 0, 71, 111
1, 572229, Note_on_c, 0, 70, 114
1, 573376, Note_off_c, 0, 70, 114
1, 573763, Note_on_c, 0, 68, 111
1, 575605, Note_off_c, 0, 68, 111
1, 575831, Note_on_c, 0, 71, 114
1, 578781, Note_off_c, 0, 71, 114
1, 581722, Note_on_c, 0, 61, 103
1, 583234, Note_off_c, 0, 61, 103
1, 583656, Note_on_c, 0, 63, 108
1, 584835, Note_off_c, 0, 63, 108
1, 584990, Note_on_c, 0, 65, 108
1, 586614, Note_off_c, 0, 65, 108
1, 587303, Note_on_c, 0, 67, 114
1, 588704, Note_off_c, 0, 67, 114
1, 589104, Note_on_c, 0, 68, 110
1, 590216, Note_off_c, 0, 68, 110
1, 590625, Note_on_c, 0, 71, 114
1, 592262, Note_off_c, 0, 71, 114
1, 592951, Note_on_c, 0, 73, 115
1, 594196, Note_off_c, 0, 73, 115
1, 594373, Note_on_c, 0, 74, 115
1, 595529, Note_off_c, 0, 74, 115
1, 595640, Note_on_c, 0, 76, 114
1, 597063, Note_off_c, 0, 76, 114
1, 597307, Note_on_c, 0, 77, 104
1, 598842, Note_off_c, 0, 77, 104
1, 599019, Note_on_c, 0, 79, 113
1, 600643, Note_off_c, 0, 79, 113
1, 600865, Note_on_c, 0, 80, 108
1, 602333, Note_off_c, 0, 80, 108
1, 643068, Note_on_c, 0, 80, 113
1, 647593, Note_off_c, 0, 80, 113
1, 647962, Note_on_c, 0, 85, 99
1, 652269, Note_off_c, 0, 85, 99
1, 652838, Note_on_c, 0, 77, 111
1, 656362, Note_off_c, 0, 77, 111
1, 657903, Note_on_c, 0, 77, 112
1, 662247, Note_off_c, 0, 77, 112
1, 662927, Note_on_c, 0, 76, 113
1, 668012, Note_off_c, 0, 76, 113
1, 668412, Note_on_c, 0, 74, 111
1, 672957, Note_off_c, 0, 74, 111
1, 673617, Note_on_c, 0, 72, 111
1, 675559, Note_off_c, 0, 72, 111
1, 676077, Note_on_c, 0, 73, 103
1, 677698, Note_off_c, 0, 73, 103
1, 677960, Note_on_c, 0, 72, 111
1, 679201, Note_off_c, 0, 72, 111
1, 679461, Note_on_c, 0, 71, 109
1, 682844, Note_off_c, 0, 71, 109
1, 684686, Note_on_c, 0, 70, 112
1, 689311, Note_off_c, 0, 70, 112
1, 689471, Note_on_c, 0, 69, 108
1, 692975, Note_off_c, 0, 69, 108
1, 694176, Note_on_c, 0, 67, 109
1, 699261, Note_off_c, 0, 67, 109
1, 699741, Note_on_c, 0, 65, 111
1, 703605, Note_off_c, 0, 65, 111
1, 704325, Note_on_c, 0, 64, 112
1, 709350, Note_off_c, 0, 64, 112
1, 709830, Note_on_c, 0, 61, 99
1, 712793, Note_off_c, 0, 61, 99
1, 713333, Note_on_c, 0, 62, 108
1, 716176, Note_off_c, 0, 62, 108
1, 716516, Note_on_c, 0, 64, 112
1, 718037, Note_off_c, 0, 64, 112
1, 718377, Note_on_c, 0, 67, 110
1, 721640, Note_off_c, 0, 67, 110
1, 723281, Note_on_c, 0, 64, 112
1, 728667, Note_off_c, 0, 64, 112
1, 729187, Note_on_c, 0, 65, 114
1, 733051, Note_off_c, 0, 65, 114
1, 734152, Note_on_c, 0, 69, 109
1, 738216, Note_off_c, 0, 69, 109
1, 739056, Note_on_c, 0, 72, 108
1, 742700, Note_off_c, 0, 72, 108
1, 744341, Note_on_c, 0, 73, 114
1, 749226, Note_off_c, 0, 73, 114
1, 749806, Note_on_c, 0, 75, 109
1, 754271, Note_off_c, 0, 75, 109
1, 754411, Note_on_c, 0, 77, 113
1, 758635, Note_off_c, 0, 77, 113
1, 759335, Note_on_c, 0, 78, 110
1, 763239, Note_off_c, 0, 78, 110
1, 764540, Note_on_c, 0, 80, 113
1, 769145, Note_off_c, 0, 80, 113
1, 769725, Note_on_c, 0, 82, 112
1, 773549, Note_off_c, 0, 82, 112
1, 774269, Note_on_c, 0, 81, 107
1, 779074, Note_off_c, 0, 81, 107
1, 780395, Note_on_c, 0, 84, 112
1, 791727, Note_off_c, 0, 84, 112
1, 792147, Note_on_c, 0, 82, 112
1, 794729, Note_off_c, 0, 82, 112
1, 795610, Note_on_c, 0, 74, 103
1, 797492, Note_off_c, 0, 74, 103
1, 798633, Note_on_c, 0, 77, 113
1, 801135, Note_off_c, 0, 77, 113
1, 803217, Note_on_c, 0, 81, 108
1, 806741, Note_off_c, 0, 81, 108
1, 807762, Note_on_c, 0, 79, 107
1, 811105, Note_off_c, 0, 79, 107
1, 812666, Note_on_c, 0, 77, 111
1, 817251, Note_off_c, 0, 77, 111
1, 817811, Note_on_c, 0, 76, 113
1, 820233, Note_off_c, 0, 76, 113
1, 822976, Note_on_c, 0, 74, 113
1, 827561, Note_off_c, 0, 74, 113
1, 828201, Note_on_c, 0, 73, 112
1, 831084, Note_off_c, 0, 73, 112
1, 832245, Note_on_c, 0, 72, 108
1, 834968, Note_off_c, 0, 72, 108
1, 836867, Note_on_c, 0, 73, 97
1, 838255, Note_off_c, 0, 73, 97
1, 839026, Note_on_c, 0, 70, 104
1, 842855, Note_off_c, 0, 70, 104
1, 843430, Note_on_c, 0, 69, 103
1, 849862, Note_off_c, 0, 69, 103
1, 850738, Note_on_c, 0, 67, 106
1, 855418, Note_off_c, 0, 67, 106
1, 857296, Note_on_c, 0, 75, 113
1, 872531, Note_off_c, 0, 75, 113
1, 873437, Note_on_c, 0, 73, 110
1, 878693, Note_off_c, 0, 73, 110
1, 879436, Note_on_c, 0, 78, 107
1, 891787, Note_off_c, 0, 78, 107
1, 906701, Note_on_c, 0, 75, 112
1, 914354, Note_off_c, 0, 75, 112
1, 914882, Note_on_c, 0, 73, 102
1, 916834, Note_off_c, 0, 73, 102
1, 917924, Note_on_c, 0, 66, 101
1, 928758, Note_off_c, 0, 66, 101
1, 945999, Note_on_c, 0, 75, 116
1, 950826, Note_off_c, 0, 75, 116
1, 950926, Note_on_c, 0, 73, 114
1, 955853, Note_off_c, 0, 73, 114
1, 958151, Note_on_c, 0, 66, 103
1, 975966, Note_off_c, 0, 66, 103
1, 979365, Note_on_c, 0, 75, 110
1, 990506, Note_off_c, 0, 75, 110
1, 991063, Note_on_c, 0, 73, 115
1, 995818, Note_off_c, 0, 73, 115
1, 997037, Note_on_c, 0, 66, 107
1, 1012628, Note_off_c, 0, 66, 107
1, 1016276, Note_on_c, 0, 66, 110
1, 1018660, Note_off_c, 0, 66, 110
1, 1020724, Note_on_c, 0, 75, 110
1, 1025476, Note_off_c, 0, 75, 110
1, 1026330, Note_on_c, 0, 75, 113
1, 1029248, Note_off_c, 0, 75, 113
1, 1029497, Note_on_c, 0, 73, 113
1, 1035619, Note_off_c, 0, 73, 113
1, 1036366, Note_on_c, 0, 73, 114
1, 1038519, Note_off_c, 0, 73, 114
1, 1039141, Note_on_c, 0, 66, 101
1, 1046473, Note_off_c, 0, 66, 101
1, 1047434, Note_on_c, 0, 66, 105
1, 1048946, Note_off_c, 0, 66, 105
1, 1110100, Note_on_c, 0, 77, 118
1, 1115581, Note_off_c, 0, 77, 118
1, 1118606, Note_on_c, 0, 75, 113
1, 1122379, Note_off_c, 0, 75, 113
1, 1123535, Note_on_c, 0, 80, 108
1, 1124923, Note_off_c, 0, 80, 108
1, 1125403, Note_on_c, 0, 75, 113
1, 1127147, Note_off_c, 0, 75, 113
1, 1127769, Note_on_c, 0, 71, 113
1, 1130972, Note_off_c, 0, 71, 113
1, 1132004, Note_on_c, 0, 70, 111
1, 1135652, Note_off_c, 0, 70, 111
1, 1136417, Note_on_c, 0, 68, 106
1, 1139513, Note_off_c, 0, 68, 106
1, 1141435, Note_on_c, 0, 70, 110
1, 1146703, Note_off_c, 0, 70, 110
1, 1147076, Note_on_c, 0, 70, 110
1, 1150119, Note_off_c, 0, 70, 110
1, 1150581, Note_on_c, 0, 68, 111
1, 1155760, Note_off_c, 0, 68, 111
1, 1156756, Note_on_c, 0, 68, 113
1, 1158838, Note_off_c, 0, 68, 113
1, 1161365, Note_on_c, 0, 70, 111
1, 1166900, Note_off_c, 0, 70, 111
1, 1168056, Note_on_c, 0, 70, 113
1, 1170779, Note_off_c, 0, 70, 113
1, 1171651, Note_on_c, 0, 68, 98
1, 1175317, Note_off_c, 0, 68, 98
1, 1176954, Note_on_c, 0, 68, 107
1, 1178288, Note_off_c, 0, 68, 107
1, 1181669, Note_on_c, 0, 70, 115
1, 1185513, Note_off_c, 0, 70, 115
1, 1186687, Note_on_c, 0, 70, 111
1, 1188876, Note_off_c, 0, 70, 111
1, 1189623, Note_on_c, 0, 68, 100
1, 1190779, Note_off_c, 0, 68, 100
1, 1190992, Note_on_c, 0, 67, 105
1, 1193109, Note_off_c, 0, 67, 105
1, 1193625, Note_on_c, 0, 68, 109
1, 1195831, Note_off_c, 0, 68, 109
1, 1196436, Note_on_c, 0, 68, 115
1, 1198518, Note_off_c, 0, 68, 115
1, 1199835, Note_on_c, 0, 65, 109
1, 1204017, Note_off_c, 0, 65, 109
1, 1205529, Note_on_c, 0, 65, 97
1, 1207202, Note_off_c, 0, 65, 97
1, 1243581, Note_on_c, 0, 68, 117
1, 1246588, Note_off_c, 0, 68, 117
1, 1246997, Note_on_c, 0, 69, 112
1, 1249079, Note_off_c, 0, 69, 112
1, 1249345, Note_on_c, 0, 72, 114
1, 1251302, Note_off_c, 0, 72, 114
1, 1251533, Note_on_c, 0, 74, 112
1, 1253793, Note_off_c, 0, 74, 112
1, 1257779, Note_on_c, 0, 89, 110
1, 1262157, Note_off_c, 0, 89, 110
1, 1266941, Note_on_c, 0, 74, 115
1, 1269393, Note_off_c, 0, 74, 115
1, 1269993, Note_on_c, 0, 75, 109
1, 1286962, Note_off_c, 0, 75, 109
1, 1288406, Note_on_c, 0, 71, 111
1, 1293905, Note_off_c, 0, 71, 111
1, 1294619, Note_on_c, 0, 70, 106
1, 1307183, Note_off_c, 0, 70, 106
1, 1307893, Note_on_c, 0, 68, 109
1, 1310135, Note_off_c, 0, 68, 109
1, 1310419, Note_on_c, 0, 69, 94
1, 1311558, Note_off_c, 0, 69, 94
1, 1312002, Note_on_c, 0, 68, 113
1, 1313390, Note_off_c, 0, 68, 113
1, 1313941, Note_on_c, 0, 65, 106
1, 1316236, Note_off_c, 0, 65, 106
1, 1319692, Note_on_c, 0, 70, 109
1, 1324347, Note_off_c, 0, 70, 109
1, 1325098, Note_on_c, 0, 68, 108
1, 1327856, Note_off_c, 0, 68, 108
1, 1329475, Note_on_c, 0, 65, 107
1, 1333960, Note_off_c, 0, 65, 107
1, 1335170, Note_on_c, 0, 63, 105
1, 1337376, Note_off_c, 0, 63, 105
1, 1337981, Note_on_c, 0, 65, 105
1, 1344352, Note_off_c, 0, 65, 105
1, 1345016, Note_on_c, 0, 65, 105
1, 1354476, Note_off_c, 0, 65, 105
1, 1422627, Note_on_c, 0, 65, 116
1, 1425723, Note_off_c, 0, 65, 116
1, 1426150, Note_on_c, 0, 63, 115
1, 1428695, Note_off_c, 0, 63, 115
1, 1428908, Note_on_c, 0, 65, 110
1, 1429815, Note_off_c, 0, 65, 110
1, 1430188, Note_on_c, 0, 63, 115
1, 1431754, Note_off_c, 0, 63, 115
1, 1432181, Note_on_c, 0, 61, 113
1, 1433854, Note_off_c, 0, 61, 113
1, 1437680, Note_on_c, 0, 62, 108
1, 1442503, Note_off_c, 0, 62, 108
1, 1443428, Note_on_c, 0, 60, 110
1, 1447290, Note_off_c, 0, 60, 110
1, 1447877, Note_on_c, 0, 58, 110
1, 1452433, Note_off_c, 0, 58, 110
1, 1453678, Note_on_c, 0, 57, 111
1, 1457326, Note_off_c, 0, 57, 111
1, 1457628, Note_on_c, 0, 56, 116
1, 1464355, Note_off_c, 0, 56, 116
1, 1464871, Note_on_c, 0, 58, 114
1, 1468252, Note_off_c, 0, 58, 114
1, 1469533, Note_on_c, 0, 60, 9
1, 1474480, Note_off_c, 0, 60, 9
1, 1474889, Note_on_c, 0, 63, 110
1, 1479178, Note_off_c, 0, 63, 110
1, 1479800, Note_on_c, 0, 67, 113
1, 1487186, Note_off_c, 0, 67, 113
1, 1488983, Note_on_c, 0, 67, 107
1, 1499145, Note_off_c, 0, 67, 107
1, 1500123, Note_on_c, 0, 67, 109
1, 1524613, Note_off_c, 0, 67, 109
1, 1526072, Note_on_c, 0, 63, 108
1, 1529275, Note_off_c, 0, 63, 108
1, 1530912, Note_on_c, 0, 67, 115
1, 1534542, Note_off_c, 0, 67, 115
1, 1535538, Note_on_c, 0, 63, 110
1, 1539382, Note_off_c, 0, 63, 110
1, 1540058, Note_on_c, 0, 67, 109
1, 1551164, Note_off_c, 0, 67, 109
1, 1613510, Note_on_c, 0, 69, 113
1, 1615859, Note_off_c, 0, 69, 113
1, 1616375, Note_on_c, 0, 71, 118
1, 1618101, Note_off_c, 0, 71, 118
1, 1618189, Note_on_c, 0, 72, 116
1, 1619630, Note_off_c, 0, 72, 116
1, 1619914, Note_on_c, 0, 74, 109
1, 1621195, Note_off_c, 0, 74, 109
1, 1621372, Note_on_c, 0, 76, 113
1, 1632122, Note_off_c, 0, 76, 113
1, 1632994, Note_on_c, 0, 72, 109
1, 1634524, Note_off_c, 0, 72, 109
1, 1634844, Note_on_c, 0, 71, 110
1, 1637602, Note_off_c, 0, 71, 110
1, 1640592, Note_on_c, 0, 73, 112
1, 1652303, Note_off_c, 0, 73, 112
1, 1652715, Note_on_c, 0, 72, 113
1, 1654216, Note_off_c, 0, 72, 113
1, 1654766, Note_on_c, 0, 71, 113
1, 1656392, Note_off_c, 0, 71, 113
1, 1705908, Note_on_c, 0, 73, 117
1, 1711443, Note_off_c, 0, 73, 117
1, 1711745, Note_on_c, 0, 72, 111
1, 1715447, Note_off_c, 0, 72, 111
1, 1715874, Note_on_c, 0, 71, 113
1, 1721195, Note_off_c, 0, 71, 113
1, 1721639, Note_on_c, 0, 70, 110
1, 1726017, Note_off_c, 0, 70, 110
1, 1726301, Note_on_c, 0, 68, 112
1, 1728579, Note_off_c, 0, 68, 112
1, 1728881, Note_on_c, 0, 70, 104
1, 1730073, Note_off_c, 0, 70, 104
1, 1730357, Note_on_c, 0, 68, 98
1, 1731691, Note_off_c, 0, 68, 98
1, 1732153, Note_on_c, 0, 66, 107
1, 1734626, Note_off_c, 0, 66, 107
1, 1736599, Note_on_c, 0, 63, 109
1, 1740303, Note_off_c, 0, 63, 109
1, 1742380, Note_on_c, 0, 59, 104
1, 1746009, Note_off_c, 0, 59, 104
1, 1747185, Note_on_c, 0, 57, 107
1, 1763428, Note_off_c, 0, 57, 107
1, 1764128, Note_on_c, 0, 55, 103
1, 1766981, Note_off_c, 0, 55, 103
1, 1767673, Note_on_c, 0, 60, 103
1, 1773226, Note_off_c, 0, 60, 103
1, 1774789, Note_on_c, 0, 58, 106
1, 1777967, Note_off_c, 0, 58, 106
1, 1778315, Note_on_c, 0, 62, 114
1, 1782622, Note_off_c, 0, 62, 114
1, 1783066, Note_on_c, 0, 60, 97
1, 1786305, Note_off_c, 0, 60, 97
1, 1786927, Note_on_c, 0, 64, 109
1, 1789703, Note_off_c, 0, 64, 109
1, 1790432, Note_on_c, 0, 62, 109
1, 1792727, Note_off_c, 0, 62, 109
1, 1793029, Note_on_c, 0, 65, 110
1, 1795200, Note_off_c, 0, 65, 110
1, 1795449, Note_on_c, 0, 64, 106
1, 1797068, Note_off_c, 0, 64, 106
1, 1797584, Note_on_c, 0, 67, 111
1, 1800022, Note_off_c, 0, 67, 111
1, 1800324, Note_on_c, 0, 65, 111
1, 1802370, Note_off_c, 0, 65, 111
1, 1802583, Note_on_c, 0, 69, 111
1, 1804362, Note_off_c, 0, 69, 111
1, 1805002, Note_on_c, 0, 67, 111
1, 1807173, Note_off_c, 0, 67, 111
1, 1807706, Note_on_c, 0, 70, 114
1, 1809450, Note_off_c, 0, 70, 114
1, 1809841, Note_on_c, 0, 69, 111
1, 1812261, Note_off_c, 0, 69, 111
1, 1812812, Note_on_c, 0, 72, 105
1, 1817795, Note_off_c, 0, 72, 105
1, 1846058, Note_on_c, 0, 61, 116
1, 1848709, Note_off_c, 0, 61, 116
1, 1849189, Note_on_c, 0, 63, 111
1, 1851200, Note_off_c, 0, 63, 111
1, 1851342, Note_on_c, 0, 64, 117
1, 1852872, Note_off_c, 0, 64, 117
1, 1853299, Note_on_c, 0, 67, 108
1, 1854936, Note_off_c, 0, 67, 108
1, 1855220, Note_on_c, 0, 68, 115
1, 1856697, Note_off_c, 0, 68, 115
1, 1857035, Note_on_c, 0, 71, 112
1, 1859864, Note_off_c, 0, 71, 112
1, 1860059, Note_on_c, 0, 75, 110
1, 1868068, Note_off_c, 0, 75, 110
1, 1868245, Note_on_c, 0, 73, 113
1, 1870167, Note_off_c, 0, 73, 113
1, 1870487, Note_on_c, 0, 71, 112
1, 1872800, Note_off_c, 0, 71, 112
1, 1873120, Note_on_c, 0, 70, 112
1, 1874721, Note_off_c, 0, 70, 112
1, 1875130, Note_on_c, 0, 68, 110
1, 1876998, Note_off_c, 0, 68, 110
1, 1878048, Note_on_c, 0, 66, 109
1, 1879347, Note_off_c, 0, 66, 109
1, 1880325, Note_on_c, 0, 65, 110
1, 1882727, Note_off_c, 0, 65, 110
1, 1883009, Note_on_c, 0, 64, 107
1, 1891418, Note_off_c, 0, 64, 107
1, 1926046, Note_on_c, 0, 71, 117
1, 1930620, Note_off_c, 0, 71, 117
1, 1930993, Note_on_c, 0, 73, 115
1, 1934659, Note_off_c, 0, 73, 115
1, 1934783, Note_on_c, 0, 75, 112
1, 1939766, Note_off_c, 0, 75, 112
1, 1941919, Note_on_c, 0, 78, 111
1, 1955142, Note_off_c, 0, 78, 111
1, 1955436, Note_on_c, 0, 75, 113
1, 1957363, Note_off_c, 0, 75, 113
1, 1957604, Note_on_c, 0, 77, 113
1, 1958729, Note_off_c, 0, 77, 113
1, 1958851, Note_on_c, 0, 75, 108
1, 1960417, Note_off_c, 0, 75, 108
1, 1960918, Note_on_c, 0, 73, 112
1, 1963964, Note_off_c, 0, 73, 112
1, 1964979, Note_on_c, 0, 71, 112
1, 1970763, Note_off_c, 0, 71, 112
1, 1971724, Note_on_c, 0, 66, 109
1, 1973610, Note_off_c, 0, 66, 109
1, 1981458, Note_on_c, 0, 66, 95
1, 1982080, Note_off_c, 0, 66, 95
1, 1984607, Note_on_c, 0, 75, 110
1, 1994289, Note_off_c, 0, 75, 110
1, 1994591, Note_on_c, 0, 73, 113
1, 2000624, Note_off_c, 0, 73, 113
1, 2002530, Note_on_c, 0, 71, 108
1, 2006334, Note_off_c, 0, 71, 108
1, 2012791, Note_on_c, 0, 66, 112
1, 2022952, Note_off_c, 0, 66, 112
1, 2025980, Note_on_c, 0, 75, 116
1, 2032036, Note_off_c, 0, 75, 116
1, 2032061, Note_on_c, 0, 77, 106
1, 2033537, Note_off_c, 0, 77, 106
1, 2033712, Note_on_c, 0, 75, 111
1, 2035438, Note_off_c, 0, 75, 111
1, 2036499, Note_on_c, 0, 73, 114
1, 2042069, Note_off_c, 0, 73, 114
1, 2042905, Note_on_c, 0, 73, 114
1, 2046268, Note_off_c, 0, 73, 114
1, 2046748, Note_on_c, 0, 71, 109
1, 2052336, Note_off_c, 0, 71, 109
1, 2052976, Note_on_c, 0, 71, 108
1, 2056304, Note_off_c, 0, 71, 108
1, 2056820, Note_on_c, 0, 66, 106
1, 2059151, Note_off_c, 0, 66, 106
1, 2102984, Note_on_c, 0, 77, 109
1, 2105336, Note_off_c, 0, 77, 109
1, 2106912, Note_on_c, 0, 80, 114
1, 2111292, Note_off_c, 0, 80, 114
1, 2112318, Note_on_c, 0, 81, 112
1, 2115621, Note_off_c, 0, 81, 112
1, 2116797, Note_on_c, 0, 82, 112
1, 2121752, Note_off_c, 0, 82, 112
1, 2122627, Note_on_c, 0, 83, 111
1, 2126431, Note_off_c, 0, 83, 111
1, 2128032, Note_on_c, 0, 84, 112
1, 2132937, Note_off_c, 0, 84, 112
1, 2137120, Note_on_c, 0, 80, 110
1, 2138882, Note_off_c, 0, 80, 110
1, 2138967, Note_on_c, 0, 79, 111
1, 2140557, Note_off_c, 0, 79, 111
1, 2140838, Note_on_c, 0, 81, 112
1, 2142942, Note_off_c, 0, 81, 112
1, 2146459, Note_on_c, 0, 77, 112
1, 2153115, Note_off_c, 0, 77, 112
1, 2154533, Note_on_c, 0, 78, 108
1, 2155484, Note_off_c, 0, 78, 108
1, 2155659, Note_on_c, 0, 77, 101
1, 2156910, Note_off_c, 0, 77, 101
1, 2173604, Note_on_c, 0, 77, 116
1, 2175353, Note_off_c, 0, 77, 116
1, 2176380, Note_on_c, 0, 82, 116
1, 2178558, Note_off_c, 0, 82, 116
1, 2179867, Note_on_c, 0, 82, 111
1, 2182289, Note_off_c, 0, 82, 111
1, 2182913, Note_on_c, 0, 83, 113
1, 2186082, Note_off_c, 0, 83, 113
1, 2186387, Note_on_c, 0, 82, 106
1, 2189397, Note_off_c, 0, 82, 106
1, 2189996, Note_on_c, 0, 80, 112
1, 2192700, Note_off_c, 0, 80, 112
1, 2193287, Note_on_c, 0, 77, 110
1, 2196076, Note_off_c, 0, 77, 110
1, 2197201, Note_on_c, 0, 75, 110
1, 2200015, Note_off_c, 0, 75, 110
1, 2200663, Note_on_c, 0, 72, 109
1, 2203391, Note_off_c, 0, 72, 109
1, 2203733, Note_on_c, 0, 71, 112
1, 2206473, Note_off_c, 0, 71, 112
1, 2207109, Note_on_c, 0, 70, 107
1, 2210339, Note_off_c, 0, 70, 107
1, 2210828, Note_on_c, 0, 68, 111
1, 2213434, Note_off_c, 0, 68, 111
1, 2213960, Note_on_c, 0, 65, 110
1, 2216517, Note_off_c, 0, 65, 110
1, 2217789, Note_on_c, 0, 63, 107
1, 2220725, Note_off_c, 0, 63, 107
1, 2221445, Note_on_c, 0, 61, 108
1, 2224399, Note_off_c, 0, 61, 108
1, 2224968, Note_on_c, 0, 60, 103
1, 2227673, Note_off_c, 0, 60, 103
1, 2228189, Note_on_c, 0, 58, 108
1, 2231285, Note_off_c, 0, 58, 108
1, 2231623, Note_on_c, 0, 56, 105
1, 2234150, Note_off_c, 0, 56, 105
1, 2234523, Note_on_c, 0, 53, 106
1, 2237263, Note_off_c, 0, 53, 106
1, 2237547, Note_on_c, 0, 56, 109
1, 2241426, Note_off_c, 0, 56, 109
1, 2242048, Note_on_c, 0, 53, 109
1, 2244361, Note_off_c, 0, 53, 109
1, 2244788, Note_on_c, 0, 56, 110
1, 2248685, Note_off_c, 0, 56, 110
1, 2249450, Note_on_c, 0, 53, 101
1, 2251585, Note_off_c, 0, 53, 101
1, 2251887, Note_on_c, 0, 56, 112
1, 2255944, Note_off_c, 0, 56, 112
1, 2256299, Note_on_c, 0, 53, 92
1, 2258416, Note_off_c, 0, 53, 92
1, 2258825, Note_on_c, 0, 56, 110
1, 2262918, Note_off_c, 0, 56, 110
1, 2263345, Note_on_c, 0, 53, 98
1, 2265765, Note_off_c, 0, 53, 98
1, 2266120, Note_on_c, 0, 56, 106
1, 2270462, Note_off_c, 0, 56, 106
1, 2270871, Note_on_c, 0, 53, 105
1, 2272722, Note_off_c, 0, 53, 105
1, 2272917, Note_on_c, 0, 56, 111
1, 2276779, Note_off_c, 0, 56, 111
1, 2277081, Note_on_c, 0, 53, 98
1, 2279109, Note_off_c, 0, 53, 98
1, 2279340, Note_on_c, 0, 56, 110
1, 2283522, Note_off_c, 0, 56, 110
1, 2283895, Note_on_c, 0, 53, 95
1, 2285443, Note_off_c, 0, 53, 95
1, 2285763, Note_on_c, 0, 56, 111
1, 2290123, Note_off_c, 0, 56, 111
1, 2290852, Note_on_c, 0, 53, 105
1, 2292204, Note_off_c, 0, 53, 105
1, 2292684, Note_on_c, 0, 56, 111
1, 2297169, Note_off_c, 0, 56, 111
1, 2297685, Note_on_c, 0, 53, 103
1, 2298396, Note_off_c, 0, 53, 103
1, 2298734, Note_on_c, 0, 56, 109
1, 2303557, Note_off_c, 0, 56, 109
1, 2304001, Note_on_c, 0, 53, 108
1, 2304771, Note_off_c, 0, 53, 108
1, 2305003, Note_on_c, 0, 56, 127
1, 2308208, Note_off_c, 0, 56, 127
1, 2308519, Note_on_c, 0, 53, 119
1, 2313680, Note_off_c, 0, 53, 119
1, 2314498, Note_on_c, 0, 53, 104
1, 2321902, Note_off_c, 0, 53, 104
1, 2345180, Note_on_c, 0, 75, 113
1, 2349234, Note_off_c, 0, 75, 113
1, 2350016, Note_on_c, 0, 71, 113
1, 2352891, Note_off_c, 0, 71, 113
1, 2352952, Note_on_c, 0, 73, 110
1, 2354518, Note_off_c, 0, 73, 110
1, 2354750, Note_on_c, 0, 69, 107
1, 2356817, Note_off_c, 0, 69, 107
1, 2356939, Note_on_c, 0, 66, 111
1, 2359606, Note_off_c, 0, 66, 111
1, 2360438, Note_on_c, 0, 64, 112
1, 2362530, Note_off_c, 0, 64, 112
1, 2362860, Note_on_c, 0, 63, 107
1, 2364303, Note_off_c, 0, 63, 107
1, 2364939, Note_on_c, 0, 60, 110
1, 2367019, Note_off_c, 0, 60, 110
1, 2367728, Note_on_c, 0, 61, 105
1, 2371863, Note_off_c, 0, 61, 105
1, 2373270, Note_on_c, 0, 57, 108
1, 2375827, Note_off_c, 0, 57, 108
1, 2376353, Note_on_c, 0, 56, 109
1, 2379644, Note_off_c, 0, 56, 109
1, 2380830, Note_on_c, 0, 54, 110
1, 2382897, Note_off_c, 0, 54, 110
1, 2383386, Note_on_c, 0, 59, 107
1, 2386885, Note_off_c, 0, 59, 107
1, 2410114, Note_on_c, 0, 65, 111
1, 2416165, Note_off_c, 0, 65, 111
1, 2417446, Note_on_c, 0, 63, 112
1, 2420097, Note_off_c, 0, 63, 112
1, 2420417, Note_on_c, 0, 62, 110
1, 2422285, Note_off_c, 0, 62, 110
1, 2422747, Note_on_c, 0, 63, 110
1, 2424437, Note_off_c, 0, 63, 110
1, 2424579, Note_on_c, 0, 62, 112
1, 2426074, Note_off_c, 0, 62, 112
1, 2426821, Note_on_c, 0, 60, 109
1, 2428760, Note_off_c, 0, 60, 109
1, 2430628, Note_on_c, 0, 58, 113
1, 2436430, Note_off_c, 0, 58, 113
1, 2436981, Note_on_c, 0, 57, 108
1, 2440700, Note_off_c, 0, 57, 108
1, 2441500, Note_on_c, 0, 56, 108
1, 2447053, Note_off_c, 0, 56, 108
1, 2447836, Note_on_c, 0, 55, 110
1, 2452232, Note_off_c, 0, 55, 110
1, 2452890, Note_on_c, 0, 53, 109
1, 2457464, Note_off_c, 0, 53, 109
1, 2458353, Note_on_c, 0, 55, 103
1, 2461948, Note_off_c, 0, 55, 103
1, 2462321, Note_on_c, 0, 56, 108
1, 2468817, Note_off_c, 0, 56, 108
1, 2469422, Note_on_c, 0, 59, 109
1, 2472928, Note_off_c, 0, 59, 109
1, 2473475, Note_on_c, 0, 60, 104
1, 2478555, Note_off_c, 0, 60, 104
1, 2479781, Note_on_c, 0, 65, 97
1, 2491344, Note_off_c, 0, 65, 97
1, 2510978, Note_on_c, 0, 65, 112
1, 2513896, Note_off_c, 0, 65, 112
1, 2515052, Note_on_c, 0, 68, 116
1, 2518736, Note_off_c, 0, 68, 116
1, 2519091, Note_on_c, 0, 65, 115
1, 2520586, Note_off_c, 0, 65, 115
1, 2521280, Note_on_c, 0, 67, 113
1, 2524323, Note_off_c, 0, 67, 113
1, 2524732, Note_on_c, 0, 65, 111
1, 2530338, Note_off_c, 0, 65, 111
1, 2531761, Note_on_c, 0, 62, 109
1, 2533629, Note_off_c, 0, 62, 109
1, 2535462, Note_on_c, 0, 68, 114
1, 2537964, Note_off_c, 0, 68, 114
1, 2538589, Note_on_c, 0, 65, 113
1, 2539940, Note_off_c, 0, 65, 113
1, 2540816, Note_on_c, 0, 67, 112
1, 2544019, Note_off_c, 0, 67, 112
1, 2545145, Note_on_c, 0, 65, 106
1, 2552473, Note_off_c, 0, 65, 106
1, 2552473, Note_on_c, 0, 62, 106
1, 2554110, Note_off_c, 0, 62, 106
1, 2583726, Note_on_c, 0, 62, 115
1, 2584954, Note_off_c, 0, 62, 115
1, 2585932, Note_on_c, 0, 66, 114
1, 2587071, Note_off_c, 0, 66, 114
1, 2587444, Note_on_c, 0, 67, 114
1, 2588422, Note_off_c, 0, 67, 114
1, 2588582, Note_on_c, 0, 69, 109
1, 2589827, Note_off_c, 0, 69, 109
1, 2590360, Note_on_c, 0, 71, 116
1, 2591605, Note_off_c, 0, 71, 116
1, 2591711, Note_on_c, 0, 72, 104
1, 2592387, Note_off_c, 0, 72, 104
1, 2592440, Note_on_c, 0, 74, 115
1, 2594148, Note_off_c, 0, 74, 115
1, 2594547, Note_on_c, 0, 73, 113
1, 2603858, Note_off_c, 0, 73, 113
1, 2603980, Note_on_c, 0, 71, 112
1, 2606170, Note_off_c, 0, 71, 112
1, 2606280, Note_on_c, 0, 69, 109
1, 2607552, Note_off_c, 0, 69, 109
1, 2607850, Note_on_c, 0, 68, 108
1, 2608828, Note_off_c, 0, 68, 108
1, 2609023, Note_on_c, 0, 67, 109
1, 2611301, Note_off_c, 0, 67, 109
1, 2611639, Note_on_c, 0, 65, 105
1, 2613187, Note_off_c, 0, 65, 105
1, 2613400, Note_on_c, 0, 64, 112
1, 2614628, Note_off_c, 0, 64, 112
1, 2614930, Note_on_c, 0, 62, 112
1, 2617136, Note_off_c, 0, 62, 112
1, 2617911, Note_on_c, 0, 61, 107
1, 2623527, Note_off_c, 0, 61, 107
1, 2653941, Note_on_c, 0, 76, 117
1, 2656557, Note_off_c, 0, 76, 117
1, 2658230, Note_on_c, 0, 79, 114
1, 2662999, Note_off_c, 0, 79, 114
1, 2663586, Note_on_c, 0, 83, 112
1, 2667537, Note_off_c, 0, 83, 112
1, 2667928, Note_on_c, 0, 81, 112
1, 2672377, Note_off_c, 0, 81, 112
1, 2673676, Note_on_c, 0, 79, 113
1, 2676363, Note_off_c, 0, 79, 113
1, 2678747, Note_on_c, 0, 78, 112
1, 2683534, Note_off_c, 0, 78, 112
1, 2683996, Note_on_c, 0, 75, 111
1, 2687929, Note_off_c, 0, 75, 111
1, 2688551, Note_on_c, 0, 71, 112
1, 2693267, Note_off_c, 0, 71, 112
1, 2693480, Note_on_c, 0, 73, 112
1, 2697182, Note_off_c, 0, 73, 112
1, 2698623, Note_on_c, 0, 66, 109
1, 2702663, Note_off_c, 0, 66, 109
1, 2704069, Note_on_c, 0, 68, 111
1, 2707575, Note_off_c, 0, 68, 111
1, 2708529, Note_on_c, 0, 60, 108
1, 2713609, Note_off_c, 0, 60, 108
1, 2714234, Note_on_c, 0, 61, 111
1, 2716511, Note_off_c, 0, 61, 111
1, 2734907, Note_on_c, 0, 69, 114
1, 2736508, Note_off_c, 0, 69, 114
1, 2739999, Note_on_c, 0, 72, 112
1, 2741155, Note_off_c, 0, 72, 112
1, 2741457, Note_on_c, 0, 73, 113
1, 2742560, Note_off_c, 0, 73, 113
1, 2742666, Note_on_c, 0, 72, 110
1, 2743555, Note_off_c, 0, 72, 110
1, 2744302, Note_on_c, 0, 71, 113
1, 2748342, Note_off_c, 0, 71, 113
1, 2749356, Note_on_c, 0, 70, 111
1, 2753805, Note_off_c, 0, 70, 111
1, 2755015, Note_on_c, 0, 69, 108
1, 2759072, Note_off_c, 0, 69, 108
1, 2759730, Note_on_c, 0, 67, 108
1, 2765122, Note_off_c, 0, 67, 108
1, 2766709, Note_on_c, 0, 62, 110
1, 2777321, Note_off_c, 0, 62, 110
1, 2779377, Note_on_c, 0, 66, 102
1, 2785641, Note_off_c, 0, 66, 102
1, 2786584, Note_on_c, 0, 62, 109
1, 2788879, Note_off_c, 0, 62, 109
1, 2789484, Note_on_c, 0, 65, 112
1, 2795873, Note_off_c, 0, 65, 112
1, 2796389, Note_on_c, 0, 63, 106
1, 2825186, Note_off_c, 0, 63, 106
1, 2826004, Note_on_c, 0, 61, 107
1, 2828353, Note_off_c, 0, 61, 107
1, 2829385, Note_on_c, 0, 66, 107
1, 2837287, Note_off_c, 0, 66, 107
1, 2837714, Note_on_c, 0, 68, 110
1, 2838959, Note_off_c, 0, 68, 110
1, 2839208, Note_on_c, 0, 70, 108
1, 2840133, Note_off_c, 0, 70, 108
1, 2840310, Note_on_c, 0, 71, 112
1, 2842659, Note_off_c, 0, 71, 112
1, 2843121, Note_on_c, 0, 73, 115
1, 2848638, Note_off_c, 0, 73, 115
1, 2848887, Note_on_c, 0, 71, 109
1, 2850257, Note_off_c, 0, 71, 109
1, 2850595, Note_on_c, 0, 70, 100
1, 2851217, Note_off_c, 0, 70, 100
1, 2851412, Note_on_c, 0, 68, 107
1, 2853120, Note_off_c, 0, 68, 107
1, 2853404, Note_on_c, 0, 67, 106
1, 2854204, Note_off_c, 0, 67, 106
1, 2854594, Note_on_c, 0, 66, 103
1, 2865356, Note_off_c, 0, 66, 103
1, 2893501, Note_on_c, 0, 71, 112
1, 2900104, Note_off_c, 0, 71, 112
1, 2903521, Note_on_c, 0, 71, 111
1, 2920446, Note_off_c, 0, 71, 111
1, 2923738, Note_on_c, 0, 70, 107
1, 2929789, Note_off_c, 0, 70, 107
1, 2930661, Note_on_c, 0, 66, 109
1, 2933722, Note_off_c, 0, 66, 109
1, 2934031, Note_on_c, 0, 68, 9
1, 2953302, Note_off_c, 0, 68, 9
1, 2953850, Note_on_c, 0, 66, 111
1, 2958922, Note_off_c, 0, 66, 111
1, 2960666, Note_on_c, 0, 63, 106
1, 2978695, Note_off_c, 0, 63, 106
1, 2979300, Note_on_c, 0, 66, 111
1, 2982592, Note_off_c, 0, 66, 111
1, 2983283, Note_on_c, 0, 68, 112
1, 2989064, Note_off_c, 0, 68, 112
1, 2989839, Note_on_c, 0, 65, 93
1, 2990815, Note_off_c, 0, 65, 93
1, 3025091, Note_on_c, 0, 75, 114
1, 3026746, Note_off_c, 0, 75, 114
1, 3026923, Note_on_c, 0, 74, 117
1, 3028257, Note_off_c, 0, 74, 117
1, 3028488, Note_on_c, 0, 75, 116
1, 3030267, Note_off_c, 0, 75, 116
1, 3030872, Note_on_c, 0, 71, 112
1, 3033648, Note_off_c, 0, 71, 112
1, 3034626, Note_on_c, 0, 70, 113
1, 3036797, Note_off_c, 0, 70, 113
1, 3037419, Note_on_c, 0, 68, 112
1, 3040782, Note_off_c, 0, 68, 112
1, 3041493, Note_on_c, 0, 65, 112
1, 3042827, Note_off_c, 0, 65, 112
1, 3044216, Note_on_c, 0, 63, 110
1, 3045993, Note_off_c, 0, 63, 110
1, 3046393, Note_on_c, 0, 60, 106
1, 3047844, Note_off_c, 0, 60, 106
1, 3048770, Note_on_c, 0, 58, 109
1, 3050622, Note_off_c, 0, 58, 109
1, 3051447, Note_on_c, 0, 56, 105
1, 3053249, Note_off_c, 0, 56, 105
1, 3054124, Note_on_c, 0, 57, 107
1, 3056526, Note_off_c, 0, 57, 107
1, 3057351, Note_on_c, 0, 65, 107
1, 3080026, Note_off_c, 0, 65, 107
1, 3083980, Note_on_c, 0, 65, 108
1, 3088184, Note_off_c, 0, 65, 108
1, 3090436, Note_on_c, 0, 65, 103
1, 3099646, Note_off_c, 0, 65, 103
1, 3099646, End_track
0, 0, End_of_file
