0, 0, Header, 1, 1, 192
1, 0, Start_track
1, 0, Title_t, "Melody"
1, 0, Tempo, 526315
1, 0, Key_signature, -1, "major"
1, 0, Time_signature, 4, 2, 24, 8
1, 1764, Note_on_c, 0, 77, 124
1, 1840, Note_off_c, 0, 77, 124
1, 2214, Note_on_c, 0, 68, 114
1, 2358, Note_off_c, 0, 68, 114
1, 2358, Note_on_c, 0, 65, 85
1, 2405, Note_off_c, 0, 65, 85
1, 2411, Note_on_c, 0, 68, 108
1, 2533, Note_off_c, 0, 68, 108
1, 2609, Note_on_c, 0, 65, 113
1, 2747, Note_off_c, 0, 65, 113
1, 2812, Note_on_c, 0, 65, 114
1, 2969, Note_off_c, 0, 65, 114
1, 3009, Note_on_c, 0, 68, 105
1, 3056, Note_off_c, 0, 68, 105
1, 3061, Note_on_c, 0, 65, 110
1, 3118, Note_off_c, 0, 65, 110
1, 3119, Note_on_c, 0, 68, 116
1, 3184, Note_off_c, 0, 68, 116
1, 3191, Note_on_c, 0, 65, 116
1, 3321, Note_off_c, 0, 65, 116
1, 3332, Note_on_c, 0, 65, 111
1, 3487, Note_off_c, 0, 65, 111
1, 4294, Note_on_c, 0, 80, 121
1, 4379, Note_off_c, 0, 80, 121
1, 4384, Note_on_c, 0, 79, 117
1, 4484, Note_off_c, 0, 79, 117
1, 4493, Note_on_c, 0, 77, 119
1, 4696, Note_off_c, 0, 77, 119
1, 4706, Note_on_c, 0, 75, 115
1, 4775, Note_off_c, 0, 75, 115
1, 4788, Note_on_c, 0, 74, 112
1, 4885, Note_off_c, 0, 74, 112
1, 4894, Note_on_c, 0, 72, 112
1, 5058, Note_off_c, 0, 72, 112
1, 5087, Note_on_c, 0, 68, 112
1, 5164, Note_off_c, 0, 68, 112
1, 5173, Note_on_c, 0, 67, 112
1, 5273, Note_off_c, 0, 67, 112
1, 5276, Note_on_c, 0, 65, 105
1, 5478, Note_off_c, 0, 65, 105
1, 5723, Note_on_c, 0, 77, 124
1, 5780, Note_off_c, 0, 77, 124
1, 6037, Note_on_c, 0, 65, 96
1, 6064, Note_off_c, 0, 65, 96
1, 6101, Note_on_c, 0, 68, 107
1, 6230, Note_off_c, 0, 68, 107
1, 6248, Note_on_c, 0, 65, 91
1, 6274, Note_off_c, 0, 65, 91
1, 6293, Note_on_c, 0, 68, 99
1, 6406, Note_off_c, 0, 68, 99
1, 6419, Note_on_c, 0, 65, 114
1, 6481, Note_off_c, 0, 65, 114
1, 7317, Note_on_c, 0, 74, 93
1, 7372, Note_off_c, 0, 74, 93
1, 7380, Note_on_c, 0, 77, 122
1, 7425, Note_off_c, 0, 77, 122
1, 7441, Note_on_c, 0, 79, 120
1, 7502, Note_off_c, 0, 79, 120
1, 7503, Note_on_c, 0, 77, 93
1, 7567, Note_off_c, 0, 77, 93
1, 7573, Note_on_c, 0, 79, 119
1, 7634, Note_off_c, 0, 79, 119
1, 7638, Note_on_c, 0, 77, 114
1, 7694, Note_off_c, 0, 77, 114
1, 7695, Note_on_c, 0, 79, 118
1, 7750, Note_off_c, 0, 79, 118
1, 7750, Note_on_c, 0, 77, 112
1, 7814, Note_off_c, 0, 77, 112
1, 7833, Note_on_c, 0, 80, 122
1, 7893, Note_off_c, 0, 80, 122
1, 7894, Note_on_c, 0, 77, 120
1, 7932, Note_off_c, 0, 77, 120
1, 8087, Note_on_c, 0, 74, 106
1, 8132, Note_off_c, 0, 74, 106
1, 8143, Note_on_c, 0, 77, 118
1, 8193, Note_off_c, 0, 77, 118
1, 8215, Note_on_c, 0, 77, 120
1, 8272, Note_off_c, 0, 77, 120
1, 8275, Note_on_c, 0, 77, 107
1, 8316, Note_off_c, 0, 77, 107
1, 8336, Note_on_c, 0, 79, 117
1, 8390, Note_off_c, 0, 79, 117
1, 8401, Note_on_c, 0, 77, 122
1, 8445, Note_off_c, 0, 77, 122
1, 8461, Note_on_c, 0, 79, 117
1, 8510, Note_off_c, 0, 79, 117
1, 8516, Note_on_c, 0, 77, 117
1, 8561, Note_off_c, 0, 77, 117
1, 8587, Note_on_c, 0, 80, 122
1, 8655, Note_on_c, 0, 77, 121
1, 8655, Note_off_c, 0, 80, 122
1, 8689, Note_off_c, 0, 77, 121
1, 8727, Note_on_c, 0, 79, 117
1, 8781, Note_off_c, 0, 79, 117
1, 8806, Note_on_c, 0, 77, 121
1, 8879, Note_off_c, 0, 77, 121
1, 8918, Note_on_c, 0, 74, 108
1, 8947, Note_off_c, 0, 74, 108
1, 8948, Note_on_c, 0, 72, 116
1, 9008, Note_off_c, 0, 72, 116
1, 10027, Note_on_c, 0, 75, 117
1, 10413, Note_off_c, 0, 75, 117
1, 10447, Note_on_c, 0, 70, 121
1, 10467, Note_off_c, 0, 70, 121
1, 10469, Note_on_c, 0, 71, 120
1, 10498, Note_off_c, 0, 71, 120
1, 10519, Note_on_c, 0, 70, 115
1, 10650, Note_off_c, 0, 70, 115
1, 10657, Note_on_c, 0, 68, 109
1, 10698, Note_off_c, 0, 68, 109
1, 10704, Note_on_c, 0, 70, 112
1, 10875, Note_off_c, 0, 70, 112
1, 10901, Note_on_c, 0, 68, 115
1, 10996, Note_off_c, 0, 68, 115
1, 11090, Note_on_c, 0, 71, 110
1, 11266, Note_off_c, 0, 71, 110
1, 11301, Note_on_c, 0, 70, 108
1, 11373, Note_off_c, 0, 70, 108
1, 11378, Note_on_c, 0, 68, 109
1, 11424, Note_off_c, 0, 68, 109
1, 11430, Note_on_c, 0, 65, 109
1, 11467, Note_off_c, 0, 65, 109
1, 11497, Note_on_c, 0, 70, 106
1, 11671, Note_off_c, 0, 70, 106
1, 11675, Note_on_c, 0, 68, 107
1, 11752, Note_off_c, 0, 68, 107
1, 11810, Note_on_c, 0, 75, 114
1, 12048, Note_off_c, 0, 75, 114
1, 12080, Note_on_c, 0, 71, 112
1, 12123, Note_off_c, 0, 71, 112
1, 12133, Note_on_c, 0, 70, 108
1, 12185, Note_off_c, 0, 70, 108
1, 12188, Note_on_c, 0, 68, 108
1, 12248, Note_off_c, 0, 68, 108
1, 12261, Note_on_c, 0, 70, 109
1, 12379, Note_off_c, 0, 70, 109
1, 12385, Note_on_c, 0, 68, 111
1, 12422, Note_off_c, 0, 68, 111
1, 12424, Note_on_c, 0, 65, 110
1, 12578, Note_off_c, 0, 65, 110
1, 12591, Note_on_c, 0, 63, 95
1, 12615, Note_off_c, 0, 63, 95
1, 12642, Note_on_c, 0, 65, 93
1, 12806, Note_off_c, 0, 65, 93
1, 12838, Note_on_c, 0, 68, 94
1, 12917, Note_off_c, 0, 68, 94
1, 13539, Note_on_c, 0, 80, 122
1, 13638, Note_off_c, 0, 80, 122
1, 13719, Note_on_c, 0, 77, 125
1, 13818, Note_off_c, 0, 77, 125
1, 13923, Note_on_c, 0, 71, 118
1, 13979, Note_off_c, 0, 71, 118
1, 13988, Note_on_c, 0, 70, 113
1, 14046, Note_off_c, 0, 70, 113
1, 14052, Note_on_c, 0, 68, 111
1, 14109, Note_off_c, 0, 68, 111
1, 14111, Note_on_c, 0, 65, 108
1, 14167, Note_off_c, 0, 65, 108
1, 14169, Note_on_c, 0, 70, 114
1, 14225, Note_off_c, 0, 70, 114
1, 14235, Note_on_c, 0, 65, 105
1, 14291, Note_off_c, 0, 65, 105
1, 14291, Note_on_c, 0, 71, 112
1, 14348, Note_off_c, 0, 71, 112
1, 14359, Note_on_c, 0, 65, 104
1, 14418, Note_on_c, 0, 68, 110
1, 14418, Note_off_c, 0, 65, 104
1, 14477, Note_off_c, 0, 68, 110
1, 14481, Note_on_c, 0, 65, 99
1, 14542, Note_off_c, 0, 65, 99
1, 14543, Note_on_c, 0, 71, 114
1, 14603, Note_off_c, 0, 71, 114
1, 14611, Note_on_c, 0, 65, 106
1, 14663, Note_off_c, 0, 65, 106
1, 14664, Note_on_c, 0, 70, 105
1, 14733, Note_off_c, 0, 70, 105
1, 14738, Note_on_c, 0, 68, 107
1, 14792, Note_off_c, 0, 68, 107
1, 14801, Note_on_c, 0, 65, 95
1, 14857, Note_off_c, 0, 65, 95
1, 15066, Note_on_c, 0, 75, 115
1, 15204, Note_off_c, 0, 75, 115
1, 15421, Note_on_c, 0, 71, 114
1, 15496, Note_off_c, 0, 71, 114
1, 15509, Note_on_c, 0, 70, 102
1, 15619, Note_off_c, 0, 70, 102
1, 15624, Note_on_c, 0, 68, 104
1, 15882, Note_off_c, 0, 68, 104
1, 15898, Note_on_c, 0, 68, 106
1, 15956, Note_off_c, 0, 68, 106
1, 15959, Note_on_c, 0, 65, 97
1, 16004, Note_off_c, 0, 65, 97
1, 16015, Note_on_c, 0, 68, 105
1, 16070, Note_off_c, 0, 68, 105
1, 16083, Note_on_c, 0, 65, 102
1, 16148, Note_off_c, 0, 65, 102
1, 16148, Note_on_c, 0, 71, 105
1, 16207, Note_off_c, 0, 71, 105
1, 16212, Note_on_c, 0, 65, 101
1, 16264, Note_off_c, 0, 65, 101
1, 16271, Note_on_c, 0, 70, 100
1, 16329, Note_off_c, 0, 70, 100
1, 16331, Note_on_c, 0, 65, 102
1, 16394, Note_off_c, 0, 65, 102
1, 16399, Note_on_c, 0, 68, 111
1, 16463, Note_off_c, 0, 68, 111
1, 16481, Note_on_c, 0, 65, 100
1, 16593, Note_off_c, 0, 65, 100
1, 16607, Note_on_c, 0, 65, 99
1, 16748, Note_off_c, 0, 65, 99
1, 17351, Note_on_c, 0, 62, 104
1, 17367, Note_off_c, 0, 62, 104
1, 17368, Note_on_c, 0, 63, 116
1, 17739, Note_off_c, 0, 63, 116
1, 17744, Note_on_c, 0, 60, 91
1, 17805, Note_off_c, 0, 60, 91
1, 17815, Note_on_c, 0, 63, 103
1, 17909, Note_off_c, 0, 63, 103
1, 17931, Note_on_c, 0, 67, 110
1, 17995, Note_off_c, 0, 67, 110
1, 18031, Note_on_c, 0, 65, 104
1, 18186, Note_off_c, 0, 65, 104
1, 18305, Note_on_c, 0, 77, 125
1, 18390, Note_off_c, 0, 77, 125
1, 19625, Note_on_c, 0, 83, 123
1, 19663, Note_off_c, 0, 83, 123
1, 19672, Note_on_c, 0, 83, 126
1, 19710, Note_off_c, 0, 83, 126
1, 19823, Note_on_c, 0, 79, 116
1, 19850, Note_off_c, 0, 79, 116
1, 19923, Note_on_c, 0, 80, 122
1, 19961, Note_off_c, 0, 80, 122
1, 19971, Note_on_c, 0, 80, 124
1, 20014, Note_on_c, 0, 77, 121
1, 20014, Note_off_c, 0, 80, 124
1, 20046, Note_off_c, 0, 77, 121
1, 20075, Note_on_c, 0, 80, 123
1, 20109, Note_off_c, 0, 80, 123
1, 20156, Note_on_c, 0, 82, 116
1, 20205, Note_off_c, 0, 82, 116
1, 20372, Note_on_c, 0, 81, 120
1, 20393, Note_off_c, 0, 81, 120
1, 20396, Note_on_c, 0, 83, 115
1, 20420, Note_off_c, 0, 83, 115
1, 20463, Note_on_c, 0, 83, 124
1, 20515, Note_off_c, 0, 83, 124
1, 20559, Note_on_c, 0, 77, 122
1, 20607, Note_off_c, 0, 77, 122
1, 20649, Note_on_c, 0, 80, 125
1, 20696, Note_off_c, 0, 80, 125
1, 20702, Note_on_c, 0, 80, 121
1, 20745, Note_off_c, 0, 80, 121
1, 20748, Note_on_c, 0, 77, 122
1, 20796, Note_off_c, 0, 77, 122
1, 20814, Note_on_c, 0, 80, 123
1, 20866, Note_off_c, 0, 80, 123
1, 20900, Note_on_c, 0, 82, 118
1, 20955, Note_off_c, 0, 82, 118
1, 21095, Note_on_c, 0, 75, 102
1, 21122, Note_off_c, 0, 75, 102
1, 21127, Note_on_c, 0, 83, 127
1, 21174, Note_off_c, 0, 83, 127
1, 21222, Note_on_c, 0, 83, 121
1, 21272, Note_off_c, 0, 83, 121
1, 21317, Note_on_c, 0, 77, 122
1, 21371, Note_off_c, 0, 77, 122
1, 21403, Note_on_c, 0, 80, 123
1, 21446, Note_off_c, 0, 80, 123
1, 21461, Note_on_c, 0, 80, 121
1, 21493, Note_off_c, 0, 80, 121
1, 21496, Note_on_c, 0, 77, 122
1, 21550, Note_off_c, 0, 77, 122
1, 21562, Note_on_c, 0, 80, 124
1, 21599, Note_off_c, 0, 80, 124
1, 21658, Note_on_c, 0, 82, 123
1, 21694, Note_off_c, 0, 82, 123
1, 21843, Note_on_c, 0, 71, 97
1, 21871, Note_off_c, 0, 71, 97
1, 21888, Note_on_c, 0, 83, 125
1, 21931, Note_off_c, 0, 83, 125
1, 21981, Note_on_c, 0, 83, 119
1, 22032, Note_off_c, 0, 83, 119
1, 22069, Note_on_c, 0, 77, 121
1, 22114, Note_off_c, 0, 77, 121
1, 22163, Note_on_c, 0, 80, 118
1, 22203, Note_off_c, 0, 80, 118
1, 22209, Note_on_c, 0, 80, 112
1, 22243, Note_off_c, 0, 80, 112
1, 22249, Note_on_c, 0, 77, 117
1, 22300, Note_off_c, 0, 77, 117
1, 22322, Note_on_c, 0, 80, 118
1, 22369, Note_off_c, 0, 80, 118
1, 22406, Note_on_c, 0, 82, 122
1, 22442, Note_off_c, 0, 82, 122
1, 22635, Note_on_c, 0, 83, 124
1, 22669, Note_off_c, 0, 83, 124
1, 22719, Note_on_c, 0, 82, 117
1, 22755, Note_off_c, 0, 82, 117
1, 22768, Note_on_c, 0, 80, 119
1, 22812, Note_off_c, 0, 80, 119
1, 22817, Note_on_c, 0, 77, 111
1, 22859, Note_off_c, 0, 77, 111
1, 22911, Note_on_c, 0, 80, 121
1, 22951, Note_off_c, 0, 80, 121
1, 22954, Note_on_c, 0, 80, 112
1, 22993, Note_off_c, 0, 80, 112
1, 22996, Note_on_c, 0, 77, 119
1, 23042, Note_off_c, 0, 77, 119
1, 23060, Note_on_c, 0, 80, 117
1, 23098, Note_off_c, 0, 80, 117
1, 23146, Note_on_c, 0, 82, 121
1, 23185, Note_off_c, 0, 82, 121
1, 23343, Note_on_c, 0, 74, 94
1, 23370, Note_off_c, 0, 74, 94
1, 23377, Note_on_c, 0, 83, 123
1, 23420, Note_off_c, 0, 83, 123
1, 23480, Note_on_c, 0, 82, 119
1, 23521, Note_off_c, 0, 82, 119
1, 23524, Note_on_c, 0, 80, 119
1, 23554, Note_off_c, 0, 80, 119
1, 23561, Note_on_c, 0, 79, 113
1, 23574, Note_off_c, 0, 79, 113
1, 23577, Note_on_c, 0, 77, 119
1, 23613, Note_off_c, 0, 77, 119
1, 23647, Note_on_c, 0, 80, 119
1, 23697, Note_off_c, 0, 80, 119
1, 23708, Note_on_c, 0, 80, 116
1, 23731, Note_off_c, 0, 80, 116
1, 23737, Note_on_c, 0, 77, 120
1, 23786, Note_off_c, 0, 77, 120
1, 23804, Note_on_c, 0, 80, 120
1, 23845, Note_off_c, 0, 80, 120
1, 23891, Note_on_c, 0, 82, 115
1, 23937, Note_off_c, 0, 82, 115
1, 24105, Note_on_c, 0, 75, 87
1, 24127, Note_off_c, 0, 75, 87
1, 24127, Note_on_c, 0, 83, 123
1, 24174, Note_off_c, 0, 83, 123
1, 24217, Note_on_c, 0, 82, 120
1, 24253, Note_off_c, 0, 82, 120
1, 24279, Note_on_c, 0, 80, 121
1, 24312, Note_off_c, 0, 80, 121
1, 24317, Note_on_c, 0, 79, 111
1, 24350, Note_off_c, 0, 79, 111
1, 24396, Note_on_c, 0, 80, 119
1, 24434, Note_off_c, 0, 80, 119
1, 24447, Note_on_c, 0, 80, 111
1, 24481, Note_off_c, 0, 80, 111
1, 24486, Note_on_c, 0, 77, 118
1, 24544, Note_off_c, 0, 77, 118
1, 24553, Note_on_c, 0, 75, 115
1, 24604, Note_off_c, 0, 75, 115
1, 24635, Note_on_c, 0, 77, 106
1, 24656, Note_off_c, 0, 77, 106
1, 24660, Note_on_c, 0, 75, 112
1, 24673, Note_off_c, 0, 75, 112
1, 24675, Note_on_c, 0, 71, 111
1, 24732, Note_off_c, 0, 71, 111
1, 24735, Note_on_c, 0, 70, 110
1, 24887, Note_off_c, 0, 70, 110
1, 24890, Note_on_c, 0, 68, 111
1, 24912, Note_off_c, 0, 68, 111
1, 24914, Note_on_c, 0, 65, 106
1, 24941, Note_off_c, 0, 65, 106
1, 24944, Note_on_c, 0, 63, 109
1, 24965, Note_off_c, 0, 63, 109
1, 24974, Note_on_c, 0, 60, 106
1, 24997, Note_off_c, 0, 60, 106
1, 24998, Note_on_c, 0, 58, 99
1, 25017, Note_off_c, 0, 58, 99
1, 25018, Note_on_c, 0, 56, 96
1, 25035, Note_off_c, 0, 56, 96
1, 25038, Note_on_c, 0, 54, 84
1, 25064, Note_off_c, 0, 54, 84
1, 25070, Note_on_c, 0, 56, 112
1, 25333, Note_off_c, 0, 56, 112
1, 25345, Note_on_c, 0, 56, 102
1, 25391, Note_off_c, 0, 56, 102
1, 25393, Note_on_c, 0, 54, 91
1, 25430, Note_off_c, 0, 54, 91
1, 25434, Note_on_c, 0, 56, 98
1, 25485, Note_off_c, 0, 56, 98
1, 25495, Note_on_c, 0, 58, 102
1, 25525, Note_off_c, 0, 58, 102
1, 25535, Note_on_c, 0, 60, 101
1, 25561, Note_off_c, 0, 60, 101
1, 25571, Note_on_c, 0, 63, 100
1, 25601, Note_off_c, 0, 63, 100
1, 25608, Note_on_c, 0, 65, 104
1, 25634, Note_off_c, 0, 65, 104
1, 25638, Note_on_c, 0, 68, 107
1, 25675, Note_off_c, 0, 68, 107
1, 25677, Note_on_c, 0, 70, 94
1, 25871, Note_off_c, 0, 70, 94
1, 26516, Note_on_c, 0, 77, 121
1, 26578, Note_off_c, 0, 77, 121
1, 26587, Note_on_c, 0, 72, 109
1, 26626, Note_off_c, 0, 72, 109
1, 26652, Note_on_c, 0, 70, 119
1, 26690, Note_off_c, 0, 70, 119
1, 26692, Note_on_c, 0, 71, 114
1, 26716, Note_off_c, 0, 71, 114
1, 26718, Note_on_c, 0, 70, 117
1, 26776, Note_off_c, 0, 70, 117
1, 26777, Note_on_c, 0, 68, 118
1, 26837, Note_off_c, 0, 68, 118
1, 26843, Note_on_c, 0, 65, 109
1, 26876, Note_off_c, 0, 65, 109
1, 26914, Note_on_c, 0, 70, 117
1, 26945, Note_off_c, 0, 70, 117
1, 26951, Note_on_c, 0, 68, 115
1, 27003, Note_off_c, 0, 68, 115
1, 27003, Note_on_c, 0, 65, 111
1, 27049, Note_off_c, 0, 65, 111
1, 27049, Note_on_c, 0, 63, 101
1, 27083, Note_off_c, 0, 63, 101
1, 27102, Note_on_c, 0, 65, 106
1, 27242, Note_off_c, 0, 65, 106
1, 27284, Note_on_c, 0, 68, 108
1, 27326, Note_off_c, 0, 68, 108
1, 27328, Note_on_c, 0, 67, 102
1, 27388, Note_off_c, 0, 67, 102
1, 27390, Note_on_c, 0, 68, 107
1, 27452, Note_off_c, 0, 68, 107
1, 28360, Note_on_c, 0, 80, 125
1, 28439, Note_off_c, 0, 80, 125
1, 28445, Note_on_c, 0, 79, 120
1, 28543, Note_off_c, 0, 79, 120
1, 28551, Note_on_c, 0, 77, 118
1, 28714, Note_off_c, 0, 77, 118
1, 28745, Note_on_c, 0, 75, 116
1, 28835, Note_on_c, 0, 74, 118
1, 28835, Note_off_c, 0, 75, 116
1, 28938, Note_off_c, 0, 74, 118
1, 28951, Note_on_c, 0, 72, 117
1, 29070, Note_off_c, 0, 72, 117
1, 29127, Note_on_c, 0, 68, 115
1, 29219, Note_off_c, 0, 68, 115
1, 29220, Note_on_c, 0, 67, 109
1, 29314, Note_off_c, 0, 67, 109
1, 29339, Note_on_c, 0, 65, 111
1, 29441, Note_off_c, 0, 65, 111
1, 29508, Note_on_c, 0, 63, 116
1, 29594, Note_off_c, 0, 63, 116
1, 29601, Note_on_c, 0, 62, 115
1, 29698, Note_off_c, 0, 62, 115
1, 29713, Note_on_c, 0, 60, 110
1, 29769, Note_off_c, 0, 60, 110
1, 29902, Note_on_c, 0, 72, 122
1, 29979, Note_off_c, 0, 72, 122
1, 29983, Note_on_c, 0, 74, 122
1, 30093, Note_off_c, 0, 74, 122
1, 30093, Note_on_c, 0, 72, 117
1, 30188, Note_off_c, 0, 72, 117
1, 30292, Note_on_c, 0, 67, 113
1, 30317, Note_off_c, 0, 67, 113
1, 30321, Note_on_c, 0, 68, 113
1, 30360, Note_off_c, 0, 68, 113
1, 30368, Note_on_c, 0, 67, 110
1, 30455, Note_off_c, 0, 67, 110
1, 30474, Note_on_c, 0, 65, 109
1, 30592, Note_off_c, 0, 65, 109
1, 30673, Note_on_c, 0, 60, 96
1, 30722, Note_off_c, 0, 60, 96
1, 30748, Note_on_c, 0, 62, 100
1, 30793, Note_off_c, 0, 62, 100
1, 30795, Note_on_c, 0, 64, 92
1, 30817, Note_off_c, 0, 64, 92
1, 30822, Note_on_c, 0, 63, 101
1, 30852, Note_off_c, 0, 63, 101
1, 30852, Note_on_c, 0, 60, 91
1, 30903, Note_off_c, 0, 60, 91
1, 30927, Note_on_c, 0, 62, 100
1, 30950, Note_off_c, 0, 62, 100
1, 30952, Note_on_c, 0, 63, 107
1, 31089, Note_off_c, 0, 63, 107
1, 31117, Note_on_c, 0, 62, 102
1, 31234, Note_off_c, 0, 62, 102
1, 31237, Note_on_c, 0, 61, 103
1, 31291, Note_off_c, 0, 61, 103
1, 31432, Note_on_c, 0, 75, 123
1, 31527, Note_off_c, 0, 75, 123
1, 31530, Note_on_c, 0, 74, 118
1, 31616, Note_off_c, 0, 74, 118
1, 31629, Note_on_c, 0, 72, 113
1, 31671, Note_off_c, 0, 72, 113
1, 31816, Note_on_c, 0, 68, 107
1, 31891, Note_off_c, 0, 68, 107
1, 31901, Note_on_c, 0, 67, 103
1, 31998, Note_off_c, 0, 67, 103
1, 32004, Note_on_c, 0, 65, 99
1, 32044, Note_off_c, 0, 65, 99
1, 32190, Note_on_c, 0, 80, 120
1, 32272, Note_off_c, 0, 80, 120
1, 32279, Note_on_c, 0, 79, 112
1, 32374, Note_off_c, 0, 79, 112
1, 32382, Note_on_c, 0, 77, 117
1, 32457, Note_off_c, 0, 77, 117
1, 32566, Note_on_c, 0, 74, 117
1, 32594, Note_off_c, 0, 74, 117
1, 32597, Note_on_c, 0, 75, 119
1, 32660, Note_off_c, 0, 75, 119
1, 32662, Note_on_c, 0, 74, 117
1, 32752, Note_off_c, 0, 74, 117
1, 32767, Note_on_c, 0, 72, 114
1, 32836, Note_off_c, 0, 72, 114
1, 32939, Note_on_c, 0, 67, 110
1, 32990, Note_off_c, 0, 67, 110
1, 32990, Note_on_c, 0, 68, 109
1, 33033, Note_off_c, 0, 68, 109
1, 33037, Note_on_c, 0, 67, 112
1, 33137, Note_off_c, 0, 67, 112
1, 33155, Note_on_c, 0, 65, 94
1, 34303, Note_off_c, 0, 65, 94
1, 34378, Note_on_c, 0, 68, 101
1, 34511, Note_off_c, 0, 68, 101
1, 34521, Note_on_c, 0, 65, 93
1, 34561, Note_off_c, 0, 65, 93
1, 34561, Note_on_c, 0, 68, 100
1, 34678, Note_off_c, 0, 68, 100
1, 34724, Note_on_c, 0, 65, 101
1, 34863, Note_off_c, 0, 65, 101
1, 34874, Note_on_c, 0, 65, 99
1, 34918, Note_off_c, 0, 65, 99
1, 35648, Note_on_c, 0, 75, 120
1, 35734, Note_off_c, 0, 75, 120
1, 35741, Note_on_c, 0, 72, 115
1, 35837, Note_off_c, 0, 72, 115
1, 35844, Note_on_c, 0, 73, 117
1, 35924, Note_off_c, 0, 73, 117
1, 35933, Note_on_c, 0, 72, 113
1, 36023, Note_off_c, 0, 72, 113
1, 36036, Note_on_c, 0, 68, 115
1, 36102, Note_off_c, 0, 68, 115
1, 36126, Note_on_c, 0, 64, 105
1, 36217, Note_off_c, 0, 64, 105
1, 36237, Note_on_c, 0, 63, 98
1, 36567, Note_off_c, 0, 63, 98
1, 36577, Note_on_c, 0, 61, 97
1, 36618, Note_off_c, 0, 61, 97
1, 36628, Note_on_c, 0, 63, 94
1, 36664, Note_off_c, 0, 63, 94
1, 36693, Note_on_c, 0, 60, 95
1, 36809, Note_off_c, 0, 60, 95
1, 36814, Note_on_c, 0, 65, 99
1, 36968, Note_off_c, 0, 65, 99
1, 38013, Note_on_c, 0, 72, 114
1, 38055, Note_off_c, 0, 72, 114
1, 38055, Note_on_c, 0, 75, 120
1, 38095, Note_off_c, 0, 75, 120
1, 38124, Note_on_c, 0, 79, 120
1, 38237, Note_off_c, 0, 79, 120
1, 38271, Note_on_c, 0, 72, 108
1, 38300, Note_off_c, 0, 72, 108
1, 38307, Note_on_c, 0, 75, 90
1, 38361, Note_off_c, 0, 75, 90
1, 38386, Note_on_c, 0, 79, 120
1, 38501, Note_off_c, 0, 79, 120
1, 38575, Note_on_c, 0, 71, 109
1, 38617, Note_off_c, 0, 71, 109
1, 38626, Note_on_c, 0, 74, 110
1, 38656, Note_off_c, 0, 74, 110
1, 38690, Note_on_c, 0, 79, 120
1, 38802, Note_off_c, 0, 79, 120
1, 38839, Note_on_c, 0, 72, 106
1, 38871, Note_off_c, 0, 72, 106
1, 38881, Note_on_c, 0, 75, 109
1, 38909, Note_off_c, 0, 75, 109
1, 38957, Note_on_c, 0, 79, 120
1, 39085, Note_off_c, 0, 79, 120
1, 39150, Note_on_c, 0, 72, 109
1, 39189, Note_off_c, 0, 72, 109
1, 39195, Note_on_c, 0, 75, 102
1, 39227, Note_off_c, 0, 75, 102
1, 39270, Note_on_c, 0, 79, 123
1, 39388, Note_off_c, 0, 79, 123
1, 39411, Note_on_c, 0, 72, 108
1, 39442, Note_off_c, 0, 72, 108
1, 39462, Note_on_c, 0, 75, 105
1, 39490, Note_off_c, 0, 75, 105
1, 39537, Note_on_c, 0, 79, 120
1, 39711, Note_off_c, 0, 79, 120
1, 39722, Note_on_c, 0, 72, 117
1, 39759, Note_off_c, 0, 72, 117
1, 39773, Note_on_c, 0, 75, 118
1, 39807, Note_off_c, 0, 75, 118
1, 39852, Note_on_c, 0, 79, 122
1, 39900, Note_off_c, 0, 79, 122
1, 39902, Note_on_c, 0, 80, 122
1, 39939, Note_off_c, 0, 80, 122
1, 39941, Note_on_c, 0, 79, 118
1, 40136, Note_off_c, 0, 79, 118
1, 40375, Note_on_c, 0, 74, 123
1, 40416, Note_off_c, 0, 74, 123
1, 40418, Note_on_c, 0, 75, 123
1, 40462, Note_off_c, 0, 75, 123
1, 40469, Note_on_c, 0, 74, 123
1, 40518, Note_off_c, 0, 74, 123
1, 40520, Note_on_c, 0, 72, 122
1, 40589, Note_off_c, 0, 72, 122
1, 40625, Note_on_c, 0, 79, 120
1, 40808, Note_off_c, 0, 79, 120
1, 40812, Note_on_c, 0, 80, 105
1, 40883, Note_off_c, 0, 80, 105
1, 40886, Note_on_c, 0, 79, 119
1, 41362, Note_off_c, 0, 79, 119
1, 41402, Note_on_c, 0, 77, 121
1, 41485, Note_off_c, 0, 77, 121
1, 41487, Note_on_c, 0, 75, 122
1, 41543, Note_off_c, 0, 75, 122
1, 41543, Note_on_c, 0, 74, 122
1, 41590, Note_off_c, 0, 74, 122
1, 41606, Note_on_c, 0, 72, 116
1, 41785, Note_off_c, 0, 72, 116
1, 41815, Note_on_c, 0, 70, 111
1, 41861, Note_off_c, 0, 70, 111
1, 41905, Note_on_c, 0, 68, 115
1, 41951, Note_off_c, 0, 68, 115
1, 41958, Note_on_c, 0, 67, 113
1, 42013, Note_off_c, 0, 67, 113
1, 42023, Note_on_c, 0, 65, 106
1, 42235, Note_off_c, 0, 65, 106
1, 42251, Note_on_c, 0, 65, 107
1, 42294, Note_off_c, 0, 65, 107
1, 42321, Note_on_c, 0, 65, 109
1, 42363, Note_off_c, 0, 65, 109
1, 42378, Note_on_c, 0, 63, 90
1, 42407, Note_off_c, 0, 63, 90
1, 42424, Note_on_c, 0, 65, 102
1, 42687, Note_off_c, 0, 65, 102
1, 42698, Note_on_c, 0, 65, 106
1, 42743, Note_off_c, 0, 65, 106
1, 42749, Note_on_c, 0, 63, 101
1, 42797, Note_off_c, 0, 63, 101
1, 42814, Note_on_c, 0, 65, 101
1, 42979, Note_off_c, 0, 65, 101
1, 43988, Note_on_c, 0, 77, 116
1, 44036, Note_off_c, 0, 77, 116
1, 44038, Note_on_c, 0, 81, 123
1, 44081, Note_off_c, 0, 81, 123
1, 44089, Note_on_c, 0, 79, 118
1, 44126, Note_off_c, 0, 79, 118
1, 44131, Note_on_c, 0, 77, 121
1, 44175, Note_off_c, 0, 77, 121
1, 44182, Note_on_c, 0, 76, 121
1, 44221, Note_off_c, 0, 76, 121
1, 44225, Note_on_c, 0, 74, 121
1, 44265, Note_off_c, 0, 74, 121
1, 44266, Note_on_c, 0, 73, 121
1, 44306, Note_off_c, 0, 73, 121
1, 44308, Note_on_c, 0, 74, 122
1, 44352, Note_off_c, 0, 74, 122
1, 44362, Note_on_c, 0, 76, 123
1, 44402, Note_off_c, 0, 76, 123
1, 44408, Note_on_c, 0, 77, 123
1, 44448, Note_off_c, 0, 77, 123
1, 44455, Note_on_c, 0, 74, 123
1, 44502, Note_off_c, 0, 74, 123
1, 44510, Note_on_c, 0, 70, 118
1, 44555, Note_off_c, 0, 70, 118
1, 44559, Note_on_c, 0, 69, 119
1, 44606, Note_off_c, 0, 69, 119
1, 44617, Note_on_c, 0, 67, 116
1, 44663, Note_off_c, 0, 67, 116
1, 44704, Note_on_c, 0, 75, 121
1, 44753, Note_off_c, 0, 75, 121
1, 44783, Note_on_c, 0, 72, 119
1, 44826, Note_off_c, 0, 72, 119
1, 44826, Note_on_c, 0, 73, 117
1, 44883, Note_off_c, 0, 73, 117
1, 44886, Note_on_c, 0, 72, 117
1, 44940, Note_off_c, 0, 72, 117
1, 44975, Note_on_c, 0, 69, 116
1, 45018, Note_off_c, 0, 69, 116
1, 45025, Note_on_c, 0, 70, 112
1, 45073, Note_off_c, 0, 70, 112
1, 45079, Note_on_c, 0, 69, 117
1, 45115, Note_off_c, 0, 69, 117
1, 45177, Note_on_c, 0, 67, 112
1, 45205, Note_off_c, 0, 67, 112
1, 45211, Note_on_c, 0, 66, 109
1, 45255, Note_off_c, 0, 66, 109
1, 45258, Note_on_c, 0, 64, 114
1, 45301, Note_off_c, 0, 64, 114
1, 45315, Note_on_c, 0, 63, 108
1, 45343, Note_off_c, 0, 63, 108
1, 45351, Note_on_c, 0, 61, 110
1, 45396, Note_off_c, 0, 61, 110
1, 45404, Note_on_c, 0, 60, 98
1, 45454, Note_off_c, 0, 60, 98
1, 45467, Note_on_c, 0, 58, 93
1, 45514, Note_off_c, 0, 58, 93
1, 45533, Note_on_c, 0, 67, 111
1, 45579, Note_off_c, 0, 67, 111
1, 45586, Note_on_c, 0, 64, 106
1, 45634, Note_off_c, 0, 64, 106
1, 45685, Note_on_c, 0, 65, 108
1, 45725, Note_off_c, 0, 65, 108
1, 45727, Note_on_c, 0, 67, 111
1, 45765, Note_off_c, 0, 67, 111
1, 45767, Note_on_c, 0, 69, 113
1, 45803, Note_off_c, 0, 69, 113
1, 45809, Note_on_c, 0, 72, 120
1, 45847, Note_off_c, 0, 72, 120
1, 45854, Note_on_c, 0, 69, 115
1, 45903, Note_off_c, 0, 69, 115
1, 45909, Note_on_c, 0, 70, 119
1, 45940, Note_off_c, 0, 70, 119
1, 45951, Note_on_c, 0, 74, 122
1, 45997, Note_off_c, 0, 74, 122
1, 46000, Note_on_c, 0, 77, 120
1, 46038, Note_off_c, 0, 77, 120
1, 46046, Note_on_c, 0, 81, 121
1, 46089, Note_off_c, 0, 81, 121
1, 46094, Note_on_c, 0, 79, 117
1, 46137, Note_off_c, 0, 79, 117
1, 46143, Note_on_c, 0, 78, 116
1, 46188, Note_off_c, 0, 78, 116
1, 46190, Note_on_c, 0, 76, 118
1, 46238, Note_off_c, 0, 76, 118
1, 46243, Note_on_c, 0, 75, 113
1, 46281, Note_off_c, 0, 75, 113
1, 46288, Note_on_c, 0, 73, 114
1, 46323, Note_off_c, 0, 73, 114
1, 46336, Note_on_c, 0, 72, 109
1, 46371, Note_off_c, 0, 72, 109
1, 46380, Note_on_c, 0, 71, 108
1, 46418, Note_off_c, 0, 71, 108
1, 46425, Note_on_c, 0, 70, 105
1, 46466, Note_off_c, 0, 70, 105
1, 46473, Note_on_c, 0, 69, 110
1, 46506, Note_off_c, 0, 69, 110
1, 46509, Note_on_c, 0, 67, 107
1, 46552, Note_off_c, 0, 67, 107
1, 46559, Note_on_c, 0, 65, 111
1, 46589, Note_off_c, 0, 65, 111
1, 46597, Note_on_c, 0, 64, 102
1, 46637, Note_off_c, 0, 64, 102
1, 46644, Note_on_c, 0, 67, 108
1, 46677, Note_off_c, 0, 67, 108
1, 46686, Note_on_c, 0, 70, 104
1, 46728, Note_off_c, 0, 70, 104
1, 46738, Note_on_c, 0, 70, 97
1, 46760, Note_off_c, 0, 70, 97
1, 46768, Note_on_c, 0, 75, 116
1, 46819, Note_off_c, 0, 75, 116
1, 46825, Note_on_c, 0, 74, 120
1, 46868, Note_off_c, 0, 74, 120
1, 46874, Note_on_c, 0, 73, 114
1, 46915, Note_off_c, 0, 73, 114
1, 46919, Note_on_c, 0, 71, 112
1, 46967, Note_off_c, 0, 71, 112
1, 46968, Note_on_c, 0, 72, 109
1, 46999, Note_off_c, 0, 72, 109
1, 47025, Note_on_c, 0, 79, 107
1, 47048, Note_off_c, 0, 79, 107
1, 47053, Note_on_c, 0, 75, 116
1, 47091, Note_off_c, 0, 75, 116
1, 47098, Note_on_c, 0, 74, 118
1, 47125, Note_off_c, 0, 74, 118
1, 47129, Note_on_c, 0, 72, 110
1, 47156, Note_off_c, 0, 72, 110
1, 47178, Note_on_c, 0, 77, 120
1, 47244, Note_off_c, 0, 77, 120
1, 47251, Note_on_c, 0, 75, 116
1, 47297, Note_off_c, 0, 75, 116
1, 47790, Note_on_c, 0, 74, 110
1, 47848, Note_off_c, 0, 74, 110
1, 47872, Note_on_c, 0, 72, 117
1, 47916, Note_off_c, 0, 72, 117
1, 47921, Note_on_c, 0, 70, 117
1, 47954, Note_off_c, 0, 70, 117
1, 47964, Note_on_c, 0, 69, 118
1, 48004, Note_off_c, 0, 69, 118
1, 48012, Note_on_c, 0, 68, 118
1, 48049, Note_off_c, 0, 68, 118
1, 48057, Note_on_c, 0, 67, 115
1, 48093, Note_off_c, 0, 67, 115
1, 48102, Note_on_c, 0, 65, 112
1, 48143, Note_off_c, 0, 65, 112
1, 48156, Note_on_c, 0, 64, 112
1, 48189, Note_off_c, 0, 64, 112
1, 48192, Note_on_c, 0, 62, 110
1, 48232, Note_off_c, 0, 62, 110
1, 48244, Note_on_c, 0, 61, 111
1, 48278, Note_off_c, 0, 61, 111
1, 48285, Note_on_c, 0, 60, 105
1, 48326, Note_off_c, 0, 60, 105
1, 48337, Note_on_c, 0, 58, 110
1, 48378, Note_off_c, 0, 58, 110
1, 48385, Note_on_c, 0, 55, 91
1, 48436, Note_off_c, 0, 55, 91
1, 48441, Note_on_c, 0, 56, 100
1, 48472, Note_off_c, 0, 56, 100
1, 48478, Note_on_c, 0, 57, 100
1, 48522, Note_off_c, 0, 57, 100
1, 48539, Note_on_c, 0, 65, 107
1, 48681, Note_off_c, 0, 65, 107
1, 49635, Note_on_c, 0, 78, 123
1, 49682, Note_off_c, 0, 78, 123
1, 49683, Note_on_c, 0, 80, 119
1, 49715, Note_off_c, 0, 80, 119
1, 49719, Note_on_c, 0, 77, 122
1, 49891, Note_off_c, 0, 77, 122
1, 49924, Note_on_c, 0, 75, 119
1, 49982, Note_off_c, 0, 75, 119
1, 49986, Note_on_c, 0, 77, 115
1, 50017, Note_off_c, 0, 77, 115
1, 50062, Note_on_c, 0, 74, 112
1, 50325, Note_off_c, 0, 74, 112
1, 50365, Note_on_c, 0, 72, 117
1, 50429, Note_off_c, 0, 72, 117
1, 50447, Note_on_c, 0, 70, 116
1, 50525, Note_off_c, 0, 70, 116
1, 50555, Note_on_c, 0, 69, 119
1, 50629, Note_off_c, 0, 69, 119
1, 50638, Note_on_c, 0, 68, 116
1, 50684, Note_off_c, 0, 68, 116
1, 50685, Note_on_c, 0, 70, 110
1, 50703, Note_off_c, 0, 70, 110
1, 50706, Note_on_c, 0, 68, 117
1, 50739, Note_off_c, 0, 68, 117
1, 50745, Note_on_c, 0, 67, 117
1, 50798, Note_off_c, 0, 67, 117
1, 50809, Note_on_c, 0, 65, 109
1, 50920, Note_off_c, 0, 65, 109
1, 50972, Note_on_c, 0, 62, 91
1, 50990, Note_off_c, 0, 62, 91
1, 50993, Note_on_c, 0, 63, 108
1, 51043, Note_off_c, 0, 63, 108
1, 51049, Note_on_c, 0, 65, 101
1, 51080, Note_off_c, 0, 65, 101
1, 51088, Note_on_c, 0, 63, 99
1, 51114, Note_off_c, 0, 63, 99
1, 51119, Note_on_c, 0, 60, 93
1, 51155, Note_off_c, 0, 60, 93
1, 51191, Note_on_c, 0, 62, 105
1, 51252, Note_off_c, 0, 62, 105
1, 51303, Note_on_c, 0, 71, 119
1, 51340, Note_off_c, 0, 71, 119
1, 51344, Note_on_c, 0, 72, 120
1, 51428, Note_off_c, 0, 72, 120
1, 51455, Note_on_c, 0, 70, 114
1, 51505, Note_off_c, 0, 70, 114
1, 51508, Note_on_c, 0, 68, 114
1, 51564, Note_off_c, 0, 68, 114
1, 51579, Note_on_c, 0, 65, 103
1, 51671, Note_off_c, 0, 65, 103
1, 51765, Note_on_c, 0, 65, 104
1, 51886, Note_off_c, 0, 65, 104
1, 51935, Note_on_c, 0, 65, 103
1, 52103, Note_off_c, 0, 65, 103
1, 52142, Note_on_c, 0, 65, 103
1, 52264, Note_off_c, 0, 65, 103
1, 52332, Note_on_c, 0, 65, 102
1, 52464, Note_off_c, 0, 65, 102
1, 52516, Note_on_c, 0, 65, 103
1, 52627, Note_off_c, 0, 65, 103
1, 52713, Note_on_c, 0, 65, 106
1, 52822, Note_off_c, 0, 65, 106
1, 52910, Note_on_c, 0, 65, 104
1, 53018, Note_off_c, 0, 65, 104
1, 53104, Note_on_c, 0, 70, 112
1, 53143, Note_off_c, 0, 70, 112
1, 53144, Note_on_c, 0, 69, 107
1, 53199, Note_off_c, 0, 69, 107
1, 53212, Note_on_c, 0, 65, 102
1, 53278, Note_off_c, 0, 65, 102
1, 53308, Note_on_c, 0, 60, 95
1, 53394, Note_off_c, 0, 60, 95
1, 53403, Note_on_c, 0, 58, 103
1, 53529, Note_off_c, 0, 58, 103
1, 54749, Note_on_c, 0, 75, 120
1, 54927, Note_off_c, 0, 75, 120
1, 54945, Note_on_c, 0, 75, 119
1, 55011, Note_off_c, 0, 75, 119
1, 55013, Note_on_c, 0, 74, 108
1, 55110, Note_off_c, 0, 74, 108
1, 55128, Note_on_c, 0, 74, 124
1, 55208, Note_off_c, 0, 74, 124
1, 55214, Note_on_c, 0, 73, 107
1, 55304, Note_off_c, 0, 73, 107
1, 55316, Note_on_c, 0, 73, 123
1, 55388, Note_off_c, 0, 73, 123
1, 55394, Note_on_c, 0, 72, 105
1, 55486, Note_off_c, 0, 72, 105
1, 55509, Note_on_c, 0, 72, 116
1, 55577, Note_off_c, 0, 72, 116
1, 55585, Note_on_c, 0, 71, 108
1, 55684, Note_off_c, 0, 71, 108
1, 55691, Note_on_c, 0, 71, 111
1, 55752, Note_off_c, 0, 71, 111
1, 55758, Note_on_c, 0, 70, 102
1, 55878, Note_off_c, 0, 70, 102
1, 55888, Note_on_c, 0, 70, 107
1, 55949, Note_off_c, 0, 70, 107
1, 55951, Note_on_c, 0, 68, 111
1, 56008, Note_off_c, 0, 68, 111
1, 56008, End_track
0, 0, End_of_file
