0, 0, Header, 1, 1, 840
1, 0, Start_track
1, 0, Title_t, "Melody"
1, 0, Tempo, 476190
1, 0, Time_signature, 4, 2, 24, 8
1, 14688, Note_on_c, 0, 62, 117
1, 14983, Note_off_c, 0, 62, 117
1, 14983, Note_on_c, 0, 60, 115
1, 15206, Note_off_c, 0, 60, 115
1, 15256, Note_on_c, 0, 59, 89
1, 15558, Note_off_c, 0, 59, 89
1, 15572, Note_on_c, 0, 60, 96
1, 15838, Note_off_c, 0, 60, 96
1, 15852, Note_on_c, 0, 64, 101
1, 16104, Note_off_c, 0, 64, 101
1, 16104, Note_on_c, 0, 67, 101
1, 16687, Note_off_c, 0, 67, 101
1, 16708, Note_on_c, 0, 69, 99
1, 17420, Note_off_c, 0, 69, 99
1, 17420, Note_on_c, 0, 74, 107
1, 18492, Note_off_c, 0, 74, 107
1, 18506, Note_on_c, 0, 72, 106
1, 18722, Note_off_c, 0, 72, 106
1, 18729, Note_on_c, 0, 71, 103
1, 18981, Note_off_c, 0, 71, 103
1, 18981, Note_on_c, 0, 67, 102
1, 20082, Note_off_c, 0, 67, 102
1, 20082, Note_on_c, 0, 69, 99
1, 20362, Note_off_c, 0, 69, 99
1, 20376, Note_on_c, 0, 67, 104
1, 20628, Note_off_c, 0, 67, 104
1, 20649, Note_on_c, 0, 62, 99
1, 22895, Note_off_c, 0, 62, 99
1, 22909, Note_on_c, 0, 67, 107
1, 23182, Note_off_c, 0, 67, 107
1, 23189, Note_on_c, 0, 62, 107
1, 23412, Note_off_c, 0, 62, 107
1, 23412, Note_on_c, 0, 60, 103
1, 26320, Note_off_c, 0, 60, 103
1, 26356, Note_on_c, 0, 62, 98
1, 26622, Note_off_c, 0, 62, 98
1, 26650, Note_on_c, 0, 63, 91
1, 26952, Note_off_c, 0, 63, 91
1, 26973, Note_on_c, 0, 64, 110
1, 27145, Note_off_c, 0, 64, 110
1, 27181, Note_on_c, 0, 65, 97
1, 28196, Note_off_c, 0, 65, 97
1, 28203, Note_on_c, 0, 63, 97
1, 28433, Note_off_c, 0, 63, 97
1, 28447, Note_on_c, 0, 62, 106
1, 28663, Note_off_c, 0, 62, 106
1, 28677, Note_on_c, 0, 60, 85
1, 30851, Note_off_c, 0, 60, 85
1, 34127, Note_on_c, 0, 60, 127
1, 34307, Note_off_c, 0, 60, 127
1, 34307, Note_on_c, 0, 65, 124
1, 34537, Note_off_c, 0, 65, 124
1, 34537, Note_on_c, 0, 70, 117
1, 36250, Note_off_c, 0, 70, 117
1, 36257, Note_on_c, 0, 72, 122
1, 36530, Note_off_c, 0, 72, 122
1, 36530, Note_on_c, 0, 65, 114
1, 38546, Note_off_c, 0, 65, 114
1, 38567, Note_on_c, 0, 70, 115
1, 38739, Note_off_c, 0, 70, 115
1, 38818, Note_on_c, 0, 65, 114
1, 39026, Note_off_c, 0, 65, 114
1, 39054, Note_on_c, 0, 68, 122
1, 39198, Note_off_c, 0, 68, 122
1, 39219, Note_on_c, 0, 70, 118
1, 40047, Note_off_c, 0, 70, 118
1, 40075, Note_on_c, 0, 69, 115
1, 40485, Note_off_c, 0, 69, 115
1, 40521, Note_on_c, 0, 65, 117
1, 40801, Note_off_c, 0, 65, 117
1, 40844, Note_on_c, 0, 62, 115
1, 41110, Note_off_c, 0, 62, 115
1, 41110, Note_on_c, 0, 60, 104
1, 43478, Note_off_c, 0, 60, 104
1, 46667, Note_on_c, 0, 50, 112
1, 46847, Note_off_c, 0, 50, 112
1, 46854, Note_on_c, 0, 59, 108
1, 47034, Note_off_c, 0, 59, 108
1, 47055, Note_on_c, 0, 60, 72
1, 47163, Note_off_c, 0, 60, 72
1, 47184, Note_on_c, 0, 64, 112
1, 47385, Note_off_c, 0, 64, 112
1, 47399, Note_on_c, 0, 67, 108
1, 47535, Note_off_c, 0, 67, 108
1, 47535, Note_on_c, 0, 71, 117
1, 47650, Note_off_c, 0, 71, 117
1, 47678, Note_on_c, 0, 74, 118
1, 49154, Note_off_c, 0, 74, 118
1, 49154, Note_on_c, 0, 72, 117
1, 49341, Note_off_c, 0, 72, 117
1, 49369, Note_on_c, 0, 71, 116
1, 49599, Note_off_c, 0, 71, 116
1, 49613, Note_on_c, 0, 69, 114
1, 52176, Note_off_c, 0, 69, 114
1, 52176, Note_on_c, 0, 71, 113
1, 52406, Note_off_c, 0, 71, 113
1, 52434, Note_on_c, 0, 69, 110
1, 52635, Note_off_c, 0, 69, 110
1, 52642, Note_on_c, 0, 67, 113
1, 52814, Note_off_c, 0, 67, 113
1, 52814, Note_on_c, 0, 66, 110
1, 53001, Note_off_c, 0, 66, 110
1, 53029, Note_on_c, 0, 64, 109
1, 53209, Note_off_c, 0, 64, 109
1, 53230, Note_on_c, 0, 62, 106
1, 53438, Note_off_c, 0, 62, 106
1, 53452, Note_on_c, 0, 60, 100
1, 53632, Note_off_c, 0, 60, 100
1, 53646, Note_on_c, 0, 59, 105
1, 53826, Note_off_c, 0, 59, 105
1, 53840, Note_on_c, 0, 57, 103
1, 54034, Note_off_c, 0, 57, 103
1, 54034, Note_on_c, 0, 55, 108
1, 54228, Note_off_c, 0, 55, 108
1, 54249, Note_on_c, 0, 53, 91
1, 57258, Note_off_c, 0, 53, 91
1, 57258, Note_on_c, 0, 58, 80
1, 57459, Note_off_c, 0, 58, 80
1, 57487, Note_on_c, 0, 53, 76
1, 57645, Note_off_c, 0, 53, 76
1, 57645, Note_on_c, 0, 60, 100
1, 57983, Note_off_c, 0, 60, 100
1, 58040, Note_on_c, 0, 65, 99
1, 58241, Note_off_c, 0, 65, 99
1, 59774, Note_on_c, 0, 58, 9
1, 59989, Note_off_c, 0, 58, 9
1, 60075, Note_on_c, 0, 53, 9
1, 60197, Note_off_c, 0, 53, 9
1, 60218, Note_on_c, 0, 60, 9
1, 60556, Note_off_c, 0, 60, 9
1, 60570, Note_on_c, 0, 65, 9
1, 60771, Note_off_c, 0, 65, 9
1, 61001, Note_on_c, 0, 70, 71
1, 61238, Note_off_c, 0, 70, 71
1, 62462, Note_on_c, 0, 58, 109
1, 62656, Note_off_c, 0, 58, 109
1, 62656, Note_on_c, 0, 53, 110
1, 62871, Note_off_c, 0, 53, 110
1, 62871, Note_on_c, 0, 60, 96
1, 63216, Note_off_c, 0, 60, 96
1, 63230, Note_on_c, 0, 65, 110
1, 63446, Note_off_c, 0, 65, 110
1, 65306, Note_on_c, 0, 61, 113
1, 65471, Note_off_c, 0, 61, 113
1, 65499, Note_on_c, 0, 64, 106
1, 65628, Note_off_c, 0, 64, 106
1, 65646, Note_on_c, 0, 62, 114
1, 65784, Note_off_c, 0, 62, 114
1, 65784, Note_on_c, 0, 59, 105
1, 65942, Note_off_c, 0, 59, 105
1, 65972, Note_on_c, 0, 55, 114
1, 66120, Note_off_c, 0, 55, 114
1, 66145, Note_on_c, 0, 54, 116
1, 66267, Note_off_c, 0, 54, 116
1, 66287, Note_on_c, 0, 57, 116
1, 66415, Note_off_c, 0, 57, 116
1, 66435, Note_on_c, 0, 54, 106
1, 66583, Note_off_c, 0, 54, 106
1, 66598, Note_on_c, 0, 56, 116
1, 66736, Note_off_c, 0, 56, 116
1, 66915, Note_on_c, 0, 59, 88
1, 67032, Note_off_c, 0, 59, 88
1, 67057, Note_on_c, 0, 61, 116
1, 67220, Note_off_c, 0, 61, 116
1, 67220, Note_on_c, 0, 66, 118
1, 67455, Note_off_c, 0, 66, 118
1, 67470, Note_on_c, 0, 64, 72
1, 67700, Note_off_c, 0, 64, 72
1, 67787, Note_on_c, 0, 62, 114
1, 67935, Note_on_c, 0, 63, 113
1, 67935, Note_off_c, 0, 62, 114
1, 68114, Note_off_c, 0, 63, 113
1, 68114, Note_on_c, 0, 61, 100
1, 68359, Note_off_c, 0, 61, 100
1, 68763, Note_on_c, 0, 60, 103
1, 68947, Note_off_c, 0, 60, 103
1, 68982, Note_on_c, 0, 61, 102
1, 69058, Note_off_c, 0, 61, 102
1, 69058, Note_on_c, 0, 62, 102
1, 69160, Note_off_c, 0, 62, 102
1, 69165, Note_on_c, 0, 63, 101
1, 69380, Note_on_c, 0, 60, 99
1, 69380, Note_off_c, 0, 63, 101
1, 69528, Note_off_c, 0, 60, 99
1, 69574, Note_on_c, 0, 61, 97
1, 69686, Note_off_c, 0, 61, 97
1, 69711, Note_on_c, 0, 63, 94
1, 69910, Note_off_c, 0, 63, 94
1, 69950, Note_on_c, 0, 65, 94
1, 70103, Note_off_c, 0, 65, 94
1, 70118, Note_on_c, 0, 68, 89
1, 70302, Note_off_c, 0, 68, 89
1, 70312, Note_on_c, 0, 72, 91
1, 70496, Note_off_c, 0, 72, 91
1, 70501, Note_on_c, 0, 73, 89
1, 70702, Note_off_c, 0, 73, 89
1, 70723, Note_on_c, 0, 72, 90
1, 70881, Note_off_c, 0, 72, 90
1, 70902, Note_on_c, 0, 71, 88
1, 71103, Note_off_c, 0, 71, 88
1, 71131, Note_on_c, 0, 70, 88
1, 71303, Note_off_c, 0, 70, 88
1, 71317, Note_on_c, 0, 68, 90
1, 71489, Note_off_c, 0, 68, 90
1, 71496, Note_on_c, 0, 67, 87
1, 71719, Note_off_c, 0, 67, 87
1, 71740, Note_on_c, 0, 65, 88
1, 71884, Note_off_c, 0, 65, 88
1, 71891, Note_on_c, 0, 63, 87
1, 72152, Note_off_c, 0, 63, 87
1, 72152, Note_on_c, 0, 61, 97
1, 72315, Note_off_c, 0, 61, 97
1, 72315, Note_on_c, 0, 58, 103
1, 72487, Note_off_c, 0, 58, 103
1, 72515, Note_on_c, 0, 53, 97
1, 72709, Note_off_c, 0, 53, 97
1, 72743, Note_on_c, 0, 60, 93
1, 72973, Note_off_c, 0, 60, 93
1, 73008, Note_on_c, 0, 61, 86
1, 73223, Note_off_c, 0, 61, 86
1, 73223, Note_on_c, 0, 60, 85
1, 73402, Note_off_c, 0, 60, 85
1, 73417, Note_on_c, 0, 59, 84
1, 73570, Note_off_c, 0, 59, 84
1, 73580, Note_on_c, 0, 58, 86
1, 73784, Note_off_c, 0, 58, 86
1, 73809, Note_on_c, 0, 53, 88
1, 73962, Note_off_c, 0, 53, 88
1, 74084, Note_on_c, 0, 56, 75
1, 74334, Note_off_c, 0, 56, 75
1, 74349, Note_on_c, 0, 55, 92
1, 74533, Note_off_c, 0, 55, 92
1, 74558, Note_on_c, 0, 53, 94
1, 74834, Note_off_c, 0, 53, 94
1, 74854, Note_on_c, 0, 51, 68
1, 75002, Note_off_c, 0, 51, 68
1, 75037, Note_on_c, 0, 50, 9
1, 75129, Note_off_c, 0, 50, 9
1, 75159, Note_on_c, 0, 49, 96
1, 75420, Note_off_c, 0, 49, 96
1, 75455, Note_on_c, 0, 51, 96
1, 75608, Note_off_c, 0, 51, 96
1, 75638, Note_on_c, 0, 53, 54
1, 75842, Note_off_c, 0, 53, 54
1, 75867, Note_on_c, 0, 56, 69
1, 76046, Note_off_c, 0, 56, 69
1, 76051, Note_on_c, 0, 60, 92
1, 76527, Note_off_c, 0, 60, 92
1, 76629, Note_on_c, 0, 57, 83
1, 76849, Note_off_c, 0, 57, 83
1, 76884, Note_on_c, 0, 58, 97
1, 77472, Note_off_c, 0, 58, 97
1, 77502, Note_on_c, 0, 60, 63
1, 77686, Note_off_c, 0, 60, 63
1, 77716, Note_on_c, 0, 61, 96
1, 77915, Note_off_c, 0, 61, 96
1, 77940, Note_on_c, 0, 63, 98
1, 78119, Note_off_c, 0, 63, 98
1, 78119, Note_on_c, 0, 65, 80
1, 78364, Note_off_c, 0, 65, 80
1, 78364, Note_on_c, 0, 67, 75
1, 78573, Note_off_c, 0, 67, 75
1, 78593, Note_on_c, 0, 68, 98
1, 78767, Note_off_c, 0, 68, 98
1, 78782, Note_on_c, 0, 70, 98
1, 78934, Note_off_c, 0, 70, 98
1, 78934, Note_on_c, 0, 72, 89
1, 79157, Note_off_c, 0, 72, 89
1, 79157, Note_on_c, 0, 73, 89
1, 79265, Note_off_c, 0, 73, 89
1, 79286, Note_on_c, 0, 72, 88
1, 79934, Note_off_c, 0, 72, 88
1, 79948, Note_on_c, 0, 68, 89
1, 80106, Note_off_c, 0, 68, 89
1, 80106, Note_on_c, 0, 70, 93
1, 80343, Note_off_c, 0, 70, 93
1, 83871, Note_on_c, 0, 74, 62
1, 83993, Note_off_c, 0, 74, 62
1, 84021, Note_on_c, 0, 75, 9
1, 85885, Note_off_c, 0, 75, 9
1, 85885, Note_on_c, 0, 73, 9
1, 87461, Note_off_c, 0, 73, 9
1, 87461, Note_on_c, 0, 71, 9
1, 87691, Note_off_c, 0, 71, 9
1, 87725, Note_on_c, 0, 70, 9
1, 87940, Note_off_c, 0, 70, 9
1, 87980, Note_on_c, 0, 68, 9
1, 88123, Note_off_c, 0, 68, 9
1, 88148, Note_on_c, 0, 66, 20
1, 88327, Note_off_c, 0, 66, 20
1, 88352, Note_on_c, 0, 65, 86
1, 88520, Note_off_c, 0, 65, 86
1, 88555, Note_on_c, 0, 64, 45
1, 88698, Note_off_c, 0, 64, 45
1, 88708, Note_on_c, 0, 65, 9
1, 88784, Note_off_c, 0, 65, 9
1, 88819, Note_on_c, 0, 66, 89
1, 88957, Note_off_c, 0, 66, 89
1, 88982, Note_on_c, 0, 68, 88
1, 89150, Note_off_c, 0, 68, 88
1, 89201, Note_on_c, 0, 64, 85
1, 89380, Note_off_c, 0, 64, 85
1, 89400, Note_on_c, 0, 63, 75
1, 89620, Note_on_c, 0, 61, 93
1, 89620, Note_off_c, 0, 63, 75
1, 89794, Note_off_c, 0, 61, 93
1, 89968, Note_on_c, 0, 63, 93
1, 90167, Note_off_c, 0, 63, 93
1, 90187, Note_on_c, 0, 61, 90
1, 90366, Note_off_c, 0, 61, 90
1, 90442, Note_on_c, 0, 59, 90
1, 90610, Note_off_c, 0, 59, 90
1, 90620, Note_on_c, 0, 58, 88
1, 90804, Note_off_c, 0, 58, 88
1, 90885, Note_on_c, 0, 56, 87
1, 91043, Note_off_c, 0, 56, 87
1, 91058, Note_on_c, 0, 54, 86
1, 91232, Note_off_c, 0, 54, 86
1, 91738, Note_on_c, 0, 51, 86
1, 91891, Note_off_c, 0, 51, 86
1, 91931, Note_on_c, 0, 52, 85
1, 92105, Note_off_c, 0, 52, 85
1, 93016, Note_on_c, 0, 56, 94
1, 93174, Note_off_c, 0, 56, 94
1, 93209, Note_on_c, 0, 59, 94
1, 93372, Note_off_c, 0, 59, 94
1, 93469, Note_on_c, 0, 56, 95
1, 93540, Note_off_c, 0, 56, 95
1, 93540, Note_on_c, 0, 63, 92
1, 93755, Note_off_c, 0, 63, 92
1, 93785, Note_on_c, 0, 61, 84
1, 93928, Note_off_c, 0, 61, 84
1, 96841, Note_on_c, 0, 69, 94
1, 97066, Note_off_c, 0, 69, 94
1, 97066, Note_on_c, 0, 71, 95
1, 97255, Note_off_c, 0, 71, 95
1, 97331, Note_on_c, 0, 74, 88
1, 97551, Note_off_c, 0, 74, 88
1, 97576, Note_on_c, 0, 72, 83
1, 97729, Note_off_c, 0, 72, 83
1, 97764, Note_on_c, 0, 71, 83
1, 97932, Note_off_c, 0, 71, 83
1, 97947, Note_on_c, 0, 69, 85
1, 98172, Note_off_c, 0, 69, 85
1, 98223, Note_on_c, 0, 68, 81
1, 98386, Note_off_c, 0, 68, 81
1, 98386, Note_on_c, 0, 71, 80
1, 98570, Note_on_c, 0, 69, 81
1, 98570, Note_off_c, 0, 71, 80
1, 98779, Note_off_c, 0, 69, 81
1, 98819, Note_on_c, 0, 67, 77
1, 98993, Note_off_c, 0, 67, 77
1, 99003, Note_on_c, 0, 66, 81
1, 99136, Note_off_c, 0, 66, 81
1, 99151, Note_on_c, 0, 64, 80
1, 99325, Note_off_c, 0, 64, 80
1, 99340, Note_on_c, 0, 62, 84
1, 99544, Note_off_c, 0, 62, 84
1, 99564, Note_on_c, 0, 61, 85
1, 99722, Note_off_c, 0, 61, 85
1, 99722, Note_on_c, 0, 60, 105
1, 99916, Note_on_c, 0, 64, 87
1, 99916, Note_off_c, 0, 60, 105
1, 100110, Note_off_c, 0, 64, 87
1, 100182, Note_on_c, 0, 59, 9
1, 101053, Note_off_c, 0, 59, 9
1, 101189, Note_on_c, 0, 55, 9
1, 101291, Note_off_c, 0, 55, 9
1, 101306, Note_on_c, 0, 53, 9
1, 101403, Note_off_c, 0, 53, 9
1, 101443, Note_on_c, 0, 48, 74
1, 102006, Note_off_c, 0, 48, 74
1, 102103, Note_on_c, 0, 52, 96
1, 102179, Note_off_c, 0, 52, 96
1, 102219, Note_on_c, 0, 55, 86
1, 102300, Note_off_c, 0, 55, 86
1, 102366, Note_on_c, 0, 59, 53
1, 102519, Note_off_c, 0, 59, 53
1, 102600, Note_on_c, 0, 63, 74
1, 102697, Note_off_c, 0, 63, 74
1, 102697, Note_on_c, 0, 67, 90
1, 102773, Note_off_c, 0, 67, 90
1, 102783, Note_on_c, 0, 71, 89
1, 102916, Note_off_c, 0, 71, 89
1, 102916, Note_on_c, 0, 74, 91
1, 103074, Note_off_c, 0, 74, 91
1, 103084, Note_on_c, 0, 71, 102
1, 103217, Note_off_c, 0, 71, 102
1, 103237, Note_on_c, 0, 67, 92
1, 103359, Note_off_c, 0, 67, 92
1, 103399, Note_on_c, 0, 64, 89
1, 103506, Note_off_c, 0, 64, 89
1, 103541, Note_on_c, 0, 59, 104
1, 103725, Note_off_c, 0, 59, 104
1, 103725, Note_on_c, 0, 55, 107
1, 103842, Note_off_c, 0, 55, 107
1, 103852, Note_on_c, 0, 52, 107
1, 103949, Note_off_c, 0, 52, 107
1, 103974, Note_on_c, 0, 48, 112
1, 104583, Note_off_c, 0, 48, 112
1, 109452, Note_on_c, 0, 60, 105
1, 109732, Note_off_c, 0, 60, 105
1, 110156, Note_on_c, 0, 65, 93
1, 110400, Note_off_c, 0, 65, 93
1, 111012, Note_on_c, 0, 67, 9
1, 111314, Note_off_c, 0, 67, 9
1, 112653, Note_on_c, 0, 70, 9
1, 112837, Note_off_c, 0, 70, 9
1, 112857, Note_on_c, 0, 72, 9
1, 113051, Note_off_c, 0, 72, 9
1, 113051, Note_on_c, 0, 65, 9
1, 113219, Note_off_c, 0, 65, 9
1, 114074, Note_on_c, 0, 65, 85
1, 114202, Note_off_c, 0, 65, 85
1, 114227, Note_on_c, 0, 70, 110
1, 114370, Note_off_c, 0, 70, 110
1, 114370, Note_on_c, 0, 65, 111
1, 114498, Note_off_c, 0, 65, 111
1, 114503, Note_on_c, 0, 60, 101
1, 114712, Note_off_c, 0, 60, 101
1, 115239, Note_on_c, 0, 60, 66
1, 115331, Note_off_c, 0, 60, 66
1, 115336, Note_on_c, 0, 65, 67
1, 115448, Note_off_c, 0, 65, 67
1, 115468, Note_on_c, 0, 70, 114
1, 115575, Note_off_c, 0, 70, 114
1, 115585, Note_on_c, 0, 65, 118
1, 115684, Note_off_c, 0, 65, 118
1, 115684, Note_on_c, 0, 58, 85
1, 115755, Note_off_c, 0, 58, 85
1, 115804, Note_on_c, 0, 55, 113
1, 115906, Note_off_c, 0, 55, 113
1, 115936, Note_on_c, 0, 53, 60
1, 116120, Note_off_c, 0, 53, 60
1, 116120, Note_on_c, 0, 48, 104
1, 116427, Note_off_c, 0, 48, 104
1, 117061, Note_on_c, 0, 53, 120
1, 117183, Note_off_c, 0, 53, 120
1, 117193, Note_on_c, 0, 58, 94
1, 117315, Note_off_c, 0, 58, 94
1, 117325, Note_on_c, 0, 63, 9
1, 117427, Note_off_c, 0, 63, 9
1, 117483, Note_on_c, 0, 70, 76
1, 117626, Note_off_c, 0, 70, 76
1, 117626, Note_on_c, 0, 65, 105
1, 121041, Note_off_c, 0, 65, 105
1, 121117, Note_on_c, 0, 62, 96
1, 124424, Note_off_c, 0, 62, 96
1, 124424, End_track
0, 0, End_of_file
