0, 0, Header, 1, 1, 192
1, 0, Start_track
1, 0, Title_t, "Melody"
1, 0, Tempo, 223048
1, 0, Key_signature, -4, "major"
1, 0, Time_signature, 4, 2, 24, 8
1, 4244, Note_on_c, 0, 60, 106
1, 4337, Note_off_c, 0, 60, 106
1, 4436, Note_on_c, 0, 61, 103
1, 4555, Note_off_c, 0, 61, 103
1, 4619, Note_on_c, 0, 60, 104
1, 4736, Note_off_c, 0, 60, 104
1, 4748, Note_on_c, 0, 56, 100
1, 4817, Note_off_c, 0, 56, 100
1, 4840, Note_on_c, 0, 51, 86
1, 4915, Note_off_c, 0, 51, 86
1, 5021, Note_on_c, 0, 60, 101
1, 5283, Note_off_c, 0, 60, 101
1, 5307, Note_on_c, 0, 61, 104
1, 5446, Note_off_c, 0, 61, 104
1, 5446, Note_on_c, 0, 60, 100
1, 5580, Note_off_c, 0, 60, 100
1, 5597, Note_on_c, 0, 56, 103
1, 5719, Note_off_c, 0, 56, 103
1, 5727, Note_on_c, 0, 58, 103
1, 5839, Note_off_c, 0, 58, 103
1, 5895, Note_on_c, 0, 63, 99
1, 6169, Note_off_c, 0, 63, 99
1, 6743, Note_on_c, 0, 51, 112
1, 6827, Note_off_c, 0, 51, 112
1, 6842, Note_on_c, 0, 52, 102
1, 6931, Note_off_c, 0, 52, 102
1, 6946, Note_on_c, 0, 53, 101
1, 7047, Note_off_c, 0, 53, 101
1, 7062, Note_on_c, 0, 56, 92
1, 7128, Note_off_c, 0, 56, 92
1, 7149, Note_on_c, 0, 58, 107
1, 7221, Note_off_c, 0, 58, 107
1, 7239, Note_on_c, 0, 56, 101
1, 7323, Note_off_c, 0, 56, 101
1, 7335, Note_on_c, 0, 55, 93
1, 7407, Note_off_c, 0, 55, 93
1, 7416, Note_on_c, 0, 56, 95
1, 7495, Note_off_c, 0, 56, 95
1, 7507, Note_on_c, 0, 59, 104
1, 7596, Note_off_c, 0, 59, 104
1, 7608, Note_on_c, 0, 60, 96
1, 7702, Note_off_c, 0, 60, 96
1, 7719, Note_on_c, 0, 61, 102
1, 7793, Note_off_c, 0, 61, 102
1, 7805, Note_on_c, 0, 62, 93
1, 7887, Note_off_c, 0, 62, 93
1, 7906, Note_on_c, 0, 63, 111
1, 8003, Note_off_c, 0, 63, 111
1, 8095, Note_on_c, 0, 61, 102
1, 8129, Note_off_c, 0, 61, 102
1, 8142, Note_on_c, 0, 60, 102
1, 8178, Note_off_c, 0, 60, 102
1, 8196, Note_on_c, 0, 58, 108
1, 8272, Note_off_c, 0, 58, 108
1, 8284, Note_on_c, 0, 54, 98
1, 8386, Note_off_c, 0, 54, 98
1, 8405, Note_on_c, 0, 51, 92
1, 8474, Note_off_c, 0, 51, 92
1, 8511, Note_on_c, 0, 60, 108
1, 8608, Note_off_c, 0, 60, 108
1, 8620, Note_on_c, 0, 59, 105
1, 8697, Note_off_c, 0, 59, 105
1, 8706, Note_on_c, 0, 58, 102
1, 8798, Note_off_c, 0, 58, 102
1, 8802, Note_on_c, 0, 57, 104
1, 8876, Note_off_c, 0, 57, 104
1, 8890, Note_on_c, 0, 56, 104
1, 8996, Note_off_c, 0, 56, 104
1, 8997, Note_on_c, 0, 54, 102
1, 9069, Note_off_c, 0, 54, 102
1, 9088, Note_on_c, 0, 53, 109
1, 9182, Note_off_c, 0, 53, 109
1, 9194, Note_on_c, 0, 56, 104
1, 9261, Note_off_c, 0, 56, 104
1, 9270, Note_on_c, 0, 58, 103
1, 9339, Note_off_c, 0, 58, 103
1, 9348, Note_on_c, 0, 60, 104
1, 9424, Note_off_c, 0, 60, 104
1, 9440, Note_on_c, 0, 58, 101
1, 9546, Note_off_c, 0, 58, 101
1, 9647, Note_on_c, 0, 60, 101
1, 9929, Note_off_c, 0, 60, 101
1, 9938, Note_on_c, 0, 58, 109
1, 10027, Note_off_c, 0, 58, 109
1, 10035, Note_on_c, 0, 56, 107
1, 10132, Note_off_c, 0, 56, 107
1, 10145, Note_on_c, 0, 52, 102
1, 10219, Note_off_c, 0, 52, 102
1, 10231, Note_on_c, 0, 51, 99
1, 10303, Note_off_c, 0, 51, 99
1, 10412, Note_on_c, 0, 51, 102
1, 10636, Note_off_c, 0, 51, 102
1, 10794, Note_on_c, 0, 55, 104
1, 10856, Note_off_c, 0, 55, 104
1, 10878, Note_on_c, 0, 56, 106
1, 11117, Note_off_c, 0, 56, 106
1, 11199, Note_on_c, 0, 58, 108
1, 11287, Note_off_c, 0, 58, 108
1, 11384, Note_on_c, 0, 63, 112
1, 11493, Note_off_c, 0, 63, 112
1, 11501, Note_on_c, 0, 62, 108
1, 11587, Note_off_c, 0, 62, 108
1, 11599, Note_on_c, 0, 61, 103
1, 11681, Note_off_c, 0, 61, 103
1, 11707, Note_on_c, 0, 58, 107
1, 11771, Note_off_c, 0, 58, 107
1, 11792, Note_on_c, 0, 60, 96
1, 11836, Note_off_c, 0, 60, 96
1, 11857, Note_on_c, 0, 63, 103
1, 11889, Note_off_c, 0, 63, 103
1, 11913, Note_on_c, 0, 65, 97
1, 11947, Note_off_c, 0, 65, 97
1, 11973, Note_on_c, 0, 68, 109
1, 12214, Note_off_c, 0, 68, 109
1, 12260, Note_on_c, 0, 68, 113
1, 12392, Note_off_c, 0, 68, 113
1, 12908, Note_on_c, 0, 56, 103
1, 13006, Note_off_c, 0, 56, 103
1, 13020, Note_on_c, 0, 56, 98
1, 13104, Note_off_c, 0, 56, 98
1, 13152, Note_on_c, 0, 66, 98
1, 13219, Note_off_c, 0, 66, 98
1, 13226, Note_on_c, 0, 66, 105
1, 13285, Note_off_c, 0, 66, 105
1, 13297, Note_on_c, 0, 65, 105
1, 13394, Note_off_c, 0, 65, 105
1, 13401, Note_on_c, 0, 65, 108
1, 13480, Note_off_c, 0, 65, 108
1, 13508, Note_on_c, 0, 64, 110
1, 13596, Note_off_c, 0, 64, 110
1, 13614, Note_on_c, 0, 64, 112
1, 13675, Note_off_c, 0, 64, 112
1, 13694, Note_on_c, 0, 61, 100
1, 13775, Note_off_c, 0, 61, 100
1, 13874, Note_on_c, 0, 60, 95
1, 14158, Note_off_c, 0, 60, 95
1, 14261, Note_on_c, 0, 58, 102
1, 14362, Note_off_c, 0, 58, 102
1, 14371, Note_on_c, 0, 60, 100
1, 14442, Note_off_c, 0, 60, 100
1, 14466, Note_on_c, 0, 58, 101
1, 14553, Note_off_c, 0, 58, 101
1, 14562, Note_on_c, 0, 56, 107
1, 14641, Note_off_c, 0, 56, 107
1, 14658, Note_on_c, 0, 52, 107
1, 14745, Note_off_c, 0, 52, 107
1, 14767, Note_on_c, 0, 49, 104
1, 14831, Note_off_c, 0, 49, 104
1, 14843, Note_on_c, 0, 48, 108
1, 14947, Note_off_c, 0, 48, 108
1, 14956, Note_on_c, 0, 50, 96
1, 15045, Note_off_c, 0, 50, 96
1, 15057, Note_on_c, 0, 52, 95
1, 15164, Note_off_c, 0, 52, 95
1, 15171, Note_on_c, 0, 54, 94
1, 15245, Note_off_c, 0, 54, 94
1, 15258, Note_on_c, 0, 55, 98
1, 15334, Note_off_c, 0, 55, 98
1, 15343, Note_on_c, 0, 52, 87
1, 15420, Note_off_c, 0, 52, 87
1, 15434, Note_on_c, 0, 53, 100
1, 15527, Note_off_c, 0, 53, 100
1, 15548, Note_on_c, 0, 55, 97
1, 15627, Note_off_c, 0, 55, 97
1, 15634, Note_on_c, 0, 56, 100
1, 15731, Note_off_c, 0, 56, 100
1, 15750, Note_on_c, 0, 58, 96
1, 15809, Note_off_c, 0, 58, 96
1, 15813, Note_on_c, 0, 59, 104
1, 15900, Note_off_c, 0, 59, 104
1, 15914, Note_on_c, 0, 60, 91
1, 15976, Note_off_c, 0, 60, 91
1, 15988, Note_on_c, 0, 61, 100
1, 16111, Note_off_c, 0, 61, 100
1, 16133, Note_on_c, 0, 59, 108
1, 16180, Note_off_c, 0, 59, 108
1, 16193, Note_on_c, 0, 60, 102
1, 16281, Note_off_c, 0, 60, 102
1, 16309, Note_on_c, 0, 56, 108
1, 16373, Note_off_c, 0, 56, 108
1, 16386, Note_on_c, 0, 55, 93
1, 16479, Note_off_c, 0, 55, 93
1, 16493, Note_on_c, 0, 53, 90
1, 16554, Note_off_c, 0, 53, 90
1, 16562, Note_on_c, 0, 58, 104
1, 16685, Note_off_c, 0, 58, 104
1, 16702, Note_on_c, 0, 56, 91
1, 16751, Note_off_c, 0, 56, 91
1, 16772, Note_on_c, 0, 58, 106
1, 16861, Note_off_c, 0, 58, 106
1, 16885, Note_on_c, 0, 56, 106
1, 16957, Note_off_c, 0, 56, 106
1, 16961, Note_on_c, 0, 55, 99
1, 17035, Note_off_c, 0, 55, 99
1, 17052, Note_on_c, 0, 53, 100
1, 17116, Note_off_c, 0, 53, 100
1, 17135, Note_on_c, 0, 64, 103
1, 17237, Note_off_c, 0, 64, 103
1, 17303, Note_on_c, 0, 55, 101
1, 17390, Note_off_c, 0, 55, 101
1, 17523, Note_on_c, 0, 53, 103
1, 17636, Note_off_c, 0, 53, 103
1, 17647, Note_on_c, 0, 55, 102
1, 17709, Note_off_c, 0, 55, 102
1, 17725, Note_on_c, 0, 57, 101
1, 17822, Note_off_c, 0, 57, 101
1, 17829, Note_on_c, 0, 58, 103
1, 17907, Note_off_c, 0, 58, 103
1, 17929, Note_on_c, 0, 60, 104
1, 18037, Note_off_c, 0, 60, 104
1, 18045, Note_on_c, 0, 57, 97
1, 18117, Note_off_c, 0, 57, 97
1, 18121, Note_on_c, 0, 58, 107
1, 18208, Note_off_c, 0, 58, 107
1, 18211, Note_on_c, 0, 60, 103
1, 18297, Note_off_c, 0, 60, 103
1, 18324, Note_on_c, 0, 62, 107
1, 18406, Note_off_c, 0, 62, 107
1, 18413, Note_on_c, 0, 58, 101
1, 18505, Note_off_c, 0, 58, 101
1, 19027, Note_on_c, 0, 58, 108
1, 19136, Note_off_c, 0, 58, 108
1, 19155, Note_on_c, 0, 60, 97
1, 19222, Note_off_c, 0, 60, 97
1, 19244, Note_on_c, 0, 61, 106
1, 19356, Note_off_c, 0, 61, 106
1, 19368, Note_on_c, 0, 58, 111
1, 19425, Note_off_c, 0, 58, 111
1, 19444, Note_on_c, 0, 55, 101
1, 19508, Note_off_c, 0, 55, 101
1, 19522, Note_on_c, 0, 53, 92
1, 19604, Note_off_c, 0, 53, 92
1, 19611, Note_on_c, 0, 56, 108
1, 19722, Note_off_c, 0, 56, 108
1, 19908, Note_on_c, 0, 56, 105
1, 20026, Note_off_c, 0, 56, 105
1, 20200, Note_on_c, 0, 56, 108
1, 20304, Note_off_c, 0, 56, 108
1, 20326, Note_on_c, 0, 58, 95
1, 20392, Note_off_c, 0, 58, 95
1, 20411, Note_on_c, 0, 60, 105
1, 20485, Note_off_c, 0, 60, 105
1, 20524, Note_on_c, 0, 54, 104
1, 20638, Note_off_c, 0, 54, 104
1, 20777, Note_on_c, 0, 56, 103
1, 20879, Note_off_c, 0, 56, 103
1, 20898, Note_on_c, 0, 58, 95
1, 20967, Note_off_c, 0, 58, 95
1, 20979, Note_on_c, 0, 60, 105
1, 21058, Note_off_c, 0, 60, 105
1, 21070, Note_on_c, 0, 56, 97
1, 21136, Note_off_c, 0, 56, 97
1, 21144, Note_on_c, 0, 58, 102
1, 21190, Note_off_c, 0, 58, 102
1, 21194, Note_on_c, 0, 60, 102
1, 21257, Note_off_c, 0, 60, 102
1, 21271, Note_on_c, 0, 58, 105
1, 21328, Note_off_c, 0, 58, 105
1, 21334, Note_on_c, 0, 56, 101
1, 21492, Note_off_c, 0, 56, 101
1, 21539, Note_on_c, 0, 58, 105
1, 21646, Note_off_c, 0, 58, 105
1, 21658, Note_on_c, 0, 54, 87
1, 21712, Note_off_c, 0, 54, 87
1, 21731, Note_on_c, 0, 56, 104
1, 21815, Note_off_c, 0, 56, 104
1, 21913, Note_on_c, 0, 59, 103
1, 22204, Note_off_c, 0, 59, 103
1, 22221, Note_on_c, 0, 58, 108
1, 22314, Note_off_c, 0, 58, 108
1, 22340, Note_on_c, 0, 56, 105
1, 22439, Note_off_c, 0, 56, 105
1, 22451, Note_on_c, 0, 52, 103
1, 22509, Note_off_c, 0, 52, 103
1, 22523, Note_on_c, 0, 49, 101
1, 22612, Note_off_c, 0, 49, 101
1, 22689, Note_on_c, 0, 51, 109
1, 22833, Note_off_c, 0, 51, 109
1, 22885, Note_on_c, 0, 56, 99
1, 23011, Note_off_c, 0, 56, 99
1, 23100, Note_on_c, 0, 60, 93
1, 23408, Note_off_c, 0, 60, 93
1, 24533, Note_on_c, 0, 60, 117
1, 24671, Note_off_c, 0, 60, 117
1, 24679, Note_on_c, 0, 61, 114
1, 24827, Note_off_c, 0, 61, 114
1, 24848, Note_on_c, 0, 60, 105
1, 24960, Note_off_c, 0, 60, 105
1, 25017, Note_on_c, 0, 63, 109
1, 25366, Note_off_c, 0, 63, 109
1, 25400, Note_on_c, 0, 60, 103
1, 25443, Note_off_c, 0, 60, 103
1, 25454, Note_on_c, 0, 61, 100
1, 25746, Note_off_c, 0, 61, 100
1, 25769, Note_on_c, 0, 60, 103
1, 26067, Note_off_c, 0, 60, 103
1, 26086, Note_on_c, 0, 56, 97
1, 26225, Note_off_c, 0, 56, 97
1, 26922, Note_on_c, 0, 63, 116
1, 27010, Note_off_c, 0, 63, 116
1, 27037, Note_on_c, 0, 63, 117
1, 27120, Note_off_c, 0, 63, 117
1, 27124, Note_on_c, 0, 61, 106
1, 27225, Note_off_c, 0, 61, 106
1, 27329, Note_on_c, 0, 59, 113
1, 27415, Note_off_c, 0, 59, 113
1, 27426, Note_on_c, 0, 60, 105
1, 27515, Note_off_c, 0, 60, 105
1, 27528, Note_on_c, 0, 56, 100
1, 27612, Note_off_c, 0, 56, 100
1, 27705, Note_on_c, 0, 58, 101
1, 27858, Note_off_c, 0, 58, 101
1, 27884, Note_on_c, 0, 56, 86
1, 28207, Note_off_c, 0, 56, 86
1, 28566, Note_on_c, 0, 63, 110
1, 28638, Note_off_c, 0, 63, 110
1, 28712, Note_on_c, 0, 61, 107
1, 28784, Note_off_c, 0, 61, 107
1, 28793, Note_on_c, 0, 60, 101
1, 28907, Note_off_c, 0, 60, 101
1, 28913, Note_on_c, 0, 56, 96
1, 28997, Note_off_c, 0, 56, 96
1, 29016, Note_on_c, 0, 53, 104
1, 29100, Note_off_c, 0, 53, 104
1, 29209, Note_on_c, 0, 56, 102
1, 29303, Note_off_c, 0, 56, 102
1, 29395, Note_on_c, 0, 53, 104
1, 29487, Note_off_c, 0, 53, 104
1, 29601, Note_on_c, 0, 56, 102
1, 29685, Note_off_c, 0, 56, 102
1, 29752, Note_on_c, 0, 59, 97
1, 29871, Note_off_c, 0, 59, 97
1, 29895, Note_on_c, 0, 63, 103
1, 29958, Note_off_c, 0, 63, 103
1, 29977, Note_on_c, 0, 65, 108
1, 30061, Note_off_c, 0, 65, 108
1, 30080, Note_on_c, 0, 64, 115
1, 30151, Note_off_c, 0, 64, 115
1, 30160, Note_on_c, 0, 63, 113
1, 30241, Note_off_c, 0, 63, 113
1, 30258, Note_on_c, 0, 61, 114
1, 30341, Note_off_c, 0, 61, 114
1, 30363, Note_on_c, 0, 60, 107
1, 30442, Note_off_c, 0, 60, 107
1, 30459, Note_on_c, 0, 58, 103
1, 30551, Note_off_c, 0, 58, 103
1, 30555, Note_on_c, 0, 57, 86
1, 30647, Note_off_c, 0, 57, 86
1, 30666, Note_on_c, 0, 58, 93
1, 30733, Note_off_c, 0, 58, 93
1, 30747, Note_on_c, 0, 60, 102
1, 30844, Note_off_c, 0, 60, 102
1, 30848, Note_on_c, 0, 57, 88
1, 30915, Note_off_c, 0, 57, 88
1, 30929, Note_on_c, 0, 58, 94
1, 31016, Note_off_c, 0, 58, 94
1, 31028, Note_on_c, 0, 60, 104
1, 31100, Note_off_c, 0, 60, 104
1, 31112, Note_on_c, 0, 61, 100
1, 31196, Note_off_c, 0, 61, 100
1, 31210, Note_on_c, 0, 58, 110
1, 31287, Note_off_c, 0, 58, 110
1, 31296, Note_on_c, 0, 56, 98
1, 31370, Note_off_c, 0, 56, 98
1, 31388, Note_on_c, 0, 51, 88
1, 31466, Note_off_c, 0, 51, 88
1, 31474, Note_on_c, 0, 53, 102
1, 31583, Note_off_c, 0, 53, 102
1, 31596, Note_on_c, 0, 55, 102
1, 31673, Note_off_c, 0, 55, 102
1, 31682, Note_on_c, 0, 56, 105
1, 31779, Note_off_c, 0, 56, 105
1, 31786, Note_on_c, 0, 58, 106
1, 31858, Note_off_c, 0, 58, 106
1, 31882, Note_on_c, 0, 59, 105
1, 31981, Note_off_c, 0, 59, 105
1, 31992, Note_on_c, 0, 60, 103
1, 32065, Note_off_c, 0, 60, 103
1, 32079, Note_on_c, 0, 61, 95
1, 32151, Note_off_c, 0, 61, 95
1, 32168, Note_on_c, 0, 62, 91
1, 32227, Note_off_c, 0, 62, 91
1, 32256, Note_on_c, 0, 63, 109
1, 32347, Note_off_c, 0, 63, 109
1, 32408, Note_on_c, 0, 59, 92
1, 32457, Note_off_c, 0, 59, 92
1, 32464, Note_on_c, 0, 61, 101
1, 32528, Note_off_c, 0, 61, 101
1, 32542, Note_on_c, 0, 58, 92
1, 32626, Note_off_c, 0, 58, 92
1, 32638, Note_on_c, 0, 60, 103
1, 32725, Note_off_c, 0, 60, 103
1, 32732, Note_on_c, 0, 58, 109
1, 32828, Note_off_c, 0, 58, 109
1, 32841, Note_on_c, 0, 56, 101
1, 32940, Note_off_c, 0, 56, 101
1, 32962, Note_on_c, 0, 54, 105
1, 33031, Note_off_c, 0, 54, 105
1, 33034, Note_on_c, 0, 51, 102
1, 33120, Note_off_c, 0, 51, 102
1, 33148, Note_on_c, 0, 48, 105
1, 33211, Note_off_c, 0, 48, 105
1, 33400, Note_on_c, 0, 46, 107
1, 33727, Note_off_c, 0, 46, 107
1, 33745, Note_on_c, 0, 49, 99
1, 34008, Note_off_c, 0, 49, 99
1, 34047, Note_on_c, 0, 50, 104
1, 34134, Note_off_c, 0, 50, 104
1, 34156, Note_on_c, 0, 53, 98
1, 34333, Note_off_c, 0, 53, 98
1, 34355, Note_on_c, 0, 56, 104
1, 34442, Note_off_c, 0, 56, 104
1, 34539, Note_on_c, 0, 58, 110
1, 34628, Note_off_c, 0, 58, 110
1, 34722, Note_on_c, 0, 56, 108
1, 34801, Note_off_c, 0, 56, 108
1, 34918, Note_on_c, 0, 58, 111
1, 35000, Note_off_c, 0, 58, 111
1, 35012, Note_on_c, 0, 60, 103
1, 35204, Note_off_c, 0, 60, 103
1, 35210, Note_on_c, 0, 65, 115
1, 35472, Note_off_c, 0, 65, 115
1, 36247, Note_on_c, 0, 68, 106
1, 36326, Note_off_c, 0, 68, 106
1, 36353, Note_on_c, 0, 68, 111
1, 36442, Note_off_c, 0, 68, 111
1, 36450, Note_on_c, 0, 67, 112
1, 36533, Note_off_c, 0, 67, 112
1, 36545, Note_on_c, 0, 67, 112
1, 36609, Note_off_c, 0, 67, 112
1, 36618, Note_on_c, 0, 65, 109
1, 36700, Note_off_c, 0, 65, 109
1, 36727, Note_on_c, 0, 65, 106
1, 36801, Note_off_c, 0, 65, 106
1, 36805, Note_on_c, 0, 63, 110
1, 36982, Note_off_c, 0, 63, 110
1, 37007, Note_on_c, 0, 57, 99
1, 37107, Note_off_c, 0, 57, 99
1, 37925, Note_on_c, 0, 56, 106
1, 38024, Note_off_c, 0, 56, 106
1, 38055, Note_on_c, 0, 60, 106
1, 38113, Note_off_c, 0, 60, 106
1, 38132, Note_on_c, 0, 64, 117
1, 38234, Note_off_c, 0, 64, 117
1, 38316, Note_on_c, 0, 66, 111
1, 38415, Note_off_c, 0, 66, 111
1, 38429, Note_on_c, 0, 64, 104
1, 38502, Note_off_c, 0, 64, 104
1, 38529, Note_on_c, 0, 66, 107
1, 38623, Note_off_c, 0, 66, 107
1, 38636, Note_on_c, 0, 64, 111
1, 38740, Note_off_c, 0, 64, 111
1, 38757, Note_on_c, 0, 63, 105
1, 38834, Note_off_c, 0, 63, 105
1, 38846, Note_on_c, 0, 62, 97
1, 38910, Note_off_c, 0, 62, 97
1, 38924, Note_on_c, 0, 63, 111
1, 39013, Note_off_c, 0, 63, 111
1, 39017, Note_on_c, 0, 61, 99
1, 39094, Note_off_c, 0, 61, 99
1, 39113, Note_on_c, 0, 60, 98
1, 39197, Note_off_c, 0, 60, 98
1, 39200, Note_on_c, 0, 58, 106
1, 39272, Note_off_c, 0, 58, 106
1, 39295, Note_on_c, 0, 60, 99
1, 39392, Note_off_c, 0, 60, 99
1, 39465, Note_on_c, 0, 59, 99
1, 39756, Note_off_c, 0, 59, 99
1, 39764, Note_on_c, 0, 60, 102
1, 40197, Note_off_c, 0, 60, 102
1, 40444, Note_on_c, 0, 59, 112
1, 40541, Note_off_c, 0, 59, 112
1, 40548, Note_on_c, 0, 60, 96
1, 40620, Note_off_c, 0, 60, 96
1, 40642, Note_on_c, 0, 65, 112
1, 40734, Note_off_c, 0, 65, 112
1, 40746, Note_on_c, 0, 60, 107
1, 40833, Note_off_c, 0, 60, 107
1, 40850, Note_on_c, 0, 56, 97
1, 40919, Note_off_c, 0, 56, 97
1, 40926, Note_on_c, 0, 53, 99
1, 40995, Note_off_c, 0, 53, 99
1, 41036, Note_on_c, 0, 59, 98
1, 41340, Note_off_c, 0, 59, 98
1, 41364, Note_on_c, 0, 60, 109
1, 41490, Note_off_c, 0, 60, 109
1, 41547, Note_on_c, 0, 64, 116
1, 41680, Note_off_c, 0, 64, 116
1, 41749, Note_on_c, 0, 63, 105
1, 42070, Note_off_c, 0, 63, 105
1, 42078, Note_on_c, 0, 60, 106
1, 42146, Note_off_c, 0, 60, 106
1, 42158, Note_on_c, 0, 57, 105
1, 42259, Note_off_c, 0, 57, 105
1, 42297, Note_on_c, 0, 53, 103
1, 42386, Note_off_c, 0, 53, 103
1, 42704, Note_on_c, 0, 62, 110
1, 42793, Note_off_c, 0, 62, 110
1, 42814, Note_on_c, 0, 60, 110
1, 42881, Note_off_c, 0, 60, 110
1, 42910, Note_on_c, 0, 58, 106
1, 42972, Note_off_c, 0, 58, 106
1, 42991, Note_on_c, 0, 56, 104
1, 43063, Note_off_c, 0, 56, 104
1, 43082, Note_on_c, 0, 53, 103
1, 43159, Note_off_c, 0, 53, 103
1, 43177, Note_on_c, 0, 51, 92
1, 43244, Note_off_c, 0, 51, 92
1, 43272, Note_on_c, 0, 61, 104
1, 43374, Note_off_c, 0, 61, 104
1, 43406, Note_on_c, 0, 60, 92
1, 43473, Note_off_c, 0, 60, 92
1, 43477, Note_on_c, 0, 58, 93
1, 43569, Note_off_c, 0, 58, 93
1, 43588, Note_on_c, 0, 56, 106
1, 43670, Note_off_c, 0, 56, 106
1, 43684, Note_on_c, 0, 55, 101
1, 43753, Note_off_c, 0, 55, 101
1, 43767, Note_on_c, 0, 53, 106
1, 43854, Note_off_c, 0, 53, 106
1, 43869, Note_on_c, 0, 51, 104
1, 43948, Note_off_c, 0, 51, 104
1, 43959, Note_on_c, 0, 49, 98
1, 44023, Note_off_c, 0, 49, 98
1, 44039, Note_on_c, 0, 48, 103
1, 44165, Note_off_c, 0, 48, 103
1, 44186, Note_on_c, 0, 51, 97
1, 44304, Note_off_c, 0, 51, 97
1, 44406, Note_on_c, 0, 56, 110
1, 44510, Note_off_c, 0, 56, 110
1, 44596, Note_on_c, 0, 58, 107
1, 44689, Note_off_c, 0, 58, 107
1, 44796, Note_on_c, 0, 59, 104
1, 44883, Note_off_c, 0, 59, 104
1, 44892, Note_on_c, 0, 60, 103
1, 44961, Note_off_c, 0, 60, 103
1, 44973, Note_on_c, 0, 61, 102
1, 45065, Note_off_c, 0, 61, 102
1, 45074, Note_on_c, 0, 62, 98
1, 45160, Note_off_c, 0, 62, 98
1, 45174, Note_on_c, 0, 63, 111
1, 45268, Note_off_c, 0, 63, 111
1, 45287, Note_on_c, 0, 60, 105
1, 45351, Note_off_c, 0, 60, 105
1, 45364, Note_on_c, 0, 56, 100
1, 45443, Note_off_c, 0, 56, 100
1, 45455, Note_on_c, 0, 52, 89
1, 45537, Note_off_c, 0, 52, 89
1, 45546, Note_on_c, 0, 53, 104
1, 45830, Note_off_c, 0, 53, 104
1, 45871, Note_on_c, 0, 56, 104
1, 46002, Note_off_c, 0, 56, 104
1, 46479, Note_on_c, 0, 58, 117
1, 46551, Note_off_c, 0, 58, 117
1, 46565, Note_on_c, 0, 59, 113
1, 46678, Note_off_c, 0, 59, 113
1, 46691, Note_on_c, 0, 58, 110
1, 46755, Note_off_c, 0, 58, 110
1, 46774, Note_on_c, 0, 58, 109
1, 46848, Note_off_c, 0, 58, 109
1, 46861, Note_on_c, 0, 56, 109
1, 46918, Note_off_c, 0, 56, 109
1, 46937, Note_on_c, 0, 56, 98
1, 46996, Note_off_c, 0, 56, 98
1, 47043, Note_on_c, 0, 58, 101
1, 47091, Note_off_c, 0, 58, 101
1, 47103, Note_on_c, 0, 59, 107
1, 47171, Note_off_c, 0, 59, 107
1, 47189, Note_on_c, 0, 59, 108
1, 47245, Note_off_c, 0, 59, 108
1, 47264, Note_on_c, 0, 58, 103
1, 47346, Note_off_c, 0, 58, 103
1, 47368, Note_on_c, 0, 58, 104
1, 47442, Note_off_c, 0, 58, 104
1, 47466, Note_on_c, 0, 56, 96
1, 47582, Note_off_c, 0, 56, 96
1, 47639, Note_on_c, 0, 62, 109
1, 47715, Note_off_c, 0, 62, 109
1, 47734, Note_on_c, 0, 62, 107
1, 47813, Note_off_c, 0, 62, 107
1, 47822, Note_on_c, 0, 61, 103
1, 47884, Note_off_c, 0, 61, 103
1, 47913, Note_on_c, 0, 61, 106
1, 47977, Note_off_c, 0, 61, 106
1, 47991, Note_on_c, 0, 59, 108
1, 48065, Note_off_c, 0, 59, 108
1, 48082, Note_on_c, 0, 59, 105
1, 48159, Note_off_c, 0, 59, 105
1, 48195, Note_on_c, 0, 58, 106
1, 48278, Note_off_c, 0, 58, 106
1, 48300, Note_on_c, 0, 58, 107
1, 48372, Note_off_c, 0, 58, 107
1, 48393, Note_on_c, 0, 56, 107
1, 48471, Note_off_c, 0, 56, 107
1, 48490, Note_on_c, 0, 56, 110
1, 48557, Note_off_c, 0, 56, 110
1, 48579, Note_on_c, 0, 54, 98
1, 48641, Note_off_c, 0, 54, 98
1, 48773, Note_on_c, 0, 56, 106
1, 48867, Note_off_c, 0, 56, 106
1, 48950, Note_on_c, 0, 54, 99
1, 49048, Note_off_c, 0, 54, 99
1, 49122, Note_on_c, 0, 56, 93
1, 49425, Note_off_c, 0, 56, 93
1, 49623, Note_on_c, 0, 59, 115
1, 49722, Note_off_c, 0, 59, 115
1, 49736, Note_on_c, 0, 60, 102
1, 49873, Note_off_c, 0, 60, 102
1, 49902, Note_on_c, 0, 65, 112
1, 49991, Note_off_c, 0, 65, 112
1, 50098, Note_on_c, 0, 63, 98
1, 50385, Note_off_c, 0, 63, 98
1, 50402, Note_on_c, 0, 55, 101
1, 50516, Note_off_c, 0, 55, 101
1, 50533, Note_on_c, 0, 56, 98
1, 50637, Note_off_c, 0, 56, 98
1, 50655, Note_on_c, 0, 61, 99
1, 50757, Note_off_c, 0, 61, 99
1, 50780, Note_on_c, 0, 60, 104
1, 50878, Note_off_c, 0, 60, 104
1, 51155, Note_on_c, 0, 58, 9
1, 51239, Note_off_c, 0, 58, 9
1, 51272, Note_on_c, 0, 60, 102
1, 51416, Note_off_c, 0, 60, 102
1, 51435, Note_on_c, 0, 65, 115
1, 51524, Note_off_c, 0, 65, 115
1, 51613, Note_on_c, 0, 63, 116
1, 51715, Note_off_c, 0, 63, 116
1, 51811, Note_on_c, 0, 59, 109
1, 51912, Note_off_c, 0, 59, 109
1, 52001, Note_on_c, 0, 63, 118
1, 52078, Note_off_c, 0, 63, 118
1, 52085, Note_on_c, 0, 59, 105
1, 52159, Note_off_c, 0, 59, 105
1, 52173, Note_on_c, 0, 56, 111
1, 52265, Note_off_c, 0, 56, 111
1, 52279, Note_on_c, 0, 53, 108
1, 52523, Note_off_c, 0, 53, 108
1, 52930, Note_on_c, 0, 59, 113
1, 53017, Note_off_c, 0, 59, 113
1, 53024, Note_on_c, 0, 60, 92
1, 53111, Note_off_c, 0, 60, 92
1, 53119, Note_on_c, 0, 65, 114
1, 53242, Note_off_c, 0, 65, 114
1, 53250, Note_on_c, 0, 64, 111
1, 53311, Note_off_c, 0, 64, 111
1, 53315, Note_on_c, 0, 65, 113
1, 53418, Note_off_c, 0, 65, 113
1, 53436, Note_on_c, 0, 64, 122
1, 53502, Note_off_c, 0, 64, 122
1, 53526, Note_on_c, 0, 63, 115
1, 53615, Note_off_c, 0, 63, 115
1, 53638, Note_on_c, 0, 55, 104
1, 53707, Note_off_c, 0, 55, 104
1, 53729, Note_on_c, 0, 56, 92
1, 53868, Note_off_c, 0, 56, 92
1, 53877, Note_on_c, 0, 61, 104
1, 53986, Note_off_c, 0, 61, 104
1, 53993, Note_on_c, 0, 60, 95
1, 54090, Note_off_c, 0, 60, 95
1, 54099, Note_on_c, 0, 58, 110
1, 54180, Note_off_c, 0, 58, 110
1, 54208, Note_on_c, 0, 56, 108
1, 54281, Note_off_c, 0, 56, 108
1, 54289, Note_on_c, 0, 57, 108
1, 54386, Note_off_c, 0, 57, 108
1, 54398, Note_on_c, 0, 54, 113
1, 54468, Note_off_c, 0, 54, 113
1, 54482, Note_on_c, 0, 53, 110
1, 54561, Note_off_c, 0, 53, 110
1, 54576, Note_on_c, 0, 51, 111
1, 54649, Note_off_c, 0, 51, 111
1, 54663, Note_on_c, 0, 49, 107
1, 54745, Note_off_c, 0, 49, 107
1, 54766, Note_on_c, 0, 41, 107
1, 54853, Note_off_c, 0, 41, 107
1, 54863, Note_on_c, 0, 44, 102
1, 54942, Note_off_c, 0, 44, 102
1, 55022, Note_on_c, 0, 59, 103
1, 55176, Note_off_c, 0, 59, 103
1, 55187, Note_on_c, 0, 60, 104
1, 55261, Note_off_c, 0, 60, 104
1, 55271, Note_on_c, 0, 61, 96
1, 55344, Note_off_c, 0, 61, 96
1, 55358, Note_on_c, 0, 62, 93
1, 55407, Note_off_c, 0, 62, 93
1, 55417, Note_on_c, 0, 63, 112
1, 55518, Note_off_c, 0, 63, 112
1, 55547, Note_on_c, 0, 56, 96
1, 55596, Note_off_c, 0, 56, 96
1, 55621, Note_on_c, 0, 61, 101
1, 55690, Note_off_c, 0, 61, 101
1, 55740, Note_on_c, 0, 58, 97
1, 55799, Note_off_c, 0, 58, 97
1, 55819, Note_on_c, 0, 60, 108
1, 55898, Note_off_c, 0, 60, 108
1, 55932, Note_on_c, 0, 56, 101
1, 55989, Note_off_c, 0, 56, 101
1, 56007, Note_on_c, 0, 58, 111
1, 56101, Note_off_c, 0, 58, 111
1, 56148, Note_on_c, 0, 55, 98
1, 56227, Note_off_c, 0, 55, 98
1, 56241, Note_on_c, 0, 56, 101
1, 56664, Note_off_c, 0, 56, 101
1, 56692, Note_on_c, 0, 60, 105
1, 56719, Note_off_c, 0, 60, 105
1, 56726, Note_on_c, 0, 61, 102
1, 56740, Note_off_c, 0, 61, 102
1, 56744, Note_on_c, 0, 63, 104
1, 56767, Note_off_c, 0, 63, 104
1, 56780, Note_on_c, 0, 65, 110
1, 56888, Note_off_c, 0, 65, 110
1, 56909, Note_on_c, 0, 63, 104
1, 56962, Note_off_c, 0, 63, 104
1, 56999, Note_on_c, 0, 66, 117
1, 57130, Note_off_c, 0, 66, 117
1, 57144, Note_on_c, 0, 65, 114
1, 57252, Note_off_c, 0, 65, 114
1, 57280, Note_on_c, 0, 63, 112
1, 57367, Note_off_c, 0, 63, 112
1, 57471, Note_on_c, 0, 56, 111
1, 57523, Note_off_c, 0, 56, 111
1, 57539, Note_on_c, 0, 58, 108
1, 57642, Note_off_c, 0, 58, 108
1, 57658, Note_on_c, 0, 56, 94
1, 57721, Note_off_c, 0, 56, 94
1, 57721, Note_on_c, 0, 59, 106
1, 57903, Note_off_c, 0, 59, 106
1, 57912, Note_on_c, 0, 58, 106
1, 58006, Note_off_c, 0, 58, 106
1, 58008, Note_on_c, 0, 56, 113
1, 58102, Note_off_c, 0, 56, 113
1, 58206, Note_on_c, 0, 49, 94
1, 58487, Note_off_c, 0, 49, 94
1, 59035, Note_on_c, 0, 50, 114
1, 59117, Note_off_c, 0, 50, 114
1, 59134, Note_on_c, 0, 53, 105
1, 59201, Note_off_c, 0, 53, 105
1, 59201, Note_on_c, 0, 56, 107
1, 59313, Note_off_c, 0, 56, 107
1, 59327, Note_on_c, 0, 59, 116
1, 59429, Note_off_c, 0, 59, 116
1, 59433, Note_on_c, 0, 58, 111
1, 59519, Note_off_c, 0, 58, 111
1, 59540, Note_on_c, 0, 56, 100
1, 59602, Note_off_c, 0, 56, 100
1, 59611, Note_on_c, 0, 57, 113
1, 59703, Note_off_c, 0, 57, 113
1, 59710, Note_on_c, 0, 54, 104
1, 59792, Note_off_c, 0, 54, 104
1, 59804, Note_on_c, 0, 53, 107
1, 59901, Note_off_c, 0, 53, 107
1, 59918, Note_on_c, 0, 51, 104
1, 59982, Note_off_c, 0, 51, 104
1, 60009, Note_on_c, 0, 49, 103
1, 60088, Note_off_c, 0, 49, 103
1, 60124, Note_on_c, 0, 53, 109
1, 60206, Note_off_c, 0, 53, 109
1, 60217, Note_on_c, 0, 56, 101
1, 60298, Note_off_c, 0, 56, 101
1, 60321, Note_on_c, 0, 59, 106
1, 60399, Note_off_c, 0, 59, 106
1, 60413, Note_on_c, 0, 60, 99
1, 60486, Note_off_c, 0, 60, 99
1, 60508, Note_on_c, 0, 63, 106
1, 60555, Note_off_c, 0, 63, 106
1, 60579, Note_on_c, 0, 65, 109
1, 60666, Note_off_c, 0, 65, 109
1, 60714, Note_on_c, 0, 68, 115
1, 60845, Note_off_c, 0, 68, 115
1, 60864, Note_on_c, 0, 65, 105
1, 60931, Note_off_c, 0, 65, 105
1, 60954, Note_on_c, 0, 68, 109
1, 61332, Note_off_c, 0, 68, 109
1, 61726, Note_on_c, 0, 68, 111
1, 62473, Note_off_c, 0, 68, 111
1, 62494, Note_on_c, 0, 64, 112
1, 62597, Note_off_c, 0, 64, 112
1, 62714, Note_on_c, 0, 60, 110
1, 62801, Note_off_c, 0, 60, 110
1, 62920, Note_on_c, 0, 56, 90
1, 63333, Note_off_c, 0, 56, 90
1, 63342, Note_on_c, 0, 67, 100
1, 63373, Note_off_c, 0, 67, 100
1, 63381, Note_on_c, 0, 68, 116
1, 63635, Note_off_c, 0, 68, 116
1, 63641, Note_on_c, 0, 65, 116
1, 63723, Note_off_c, 0, 65, 116
1, 63730, Note_on_c, 0, 62, 106
1, 63817, Note_off_c, 0, 62, 106
1, 63839, Note_on_c, 0, 60, 113
1, 63938, Note_off_c, 0, 60, 113
1, 63984, Note_on_c, 0, 56, 90
1, 64552, Note_off_c, 0, 56, 90
1, 64564, Note_on_c, 0, 68, 99
1, 64756, Note_off_c, 0, 68, 99
1, 64780, Note_on_c, 0, 65, 110
1, 64887, Note_off_c, 0, 65, 110
1, 64974, Note_on_c, 0, 60, 112
1, 65056, Note_off_c, 0, 60, 112
1, 65170, Note_on_c, 0, 56, 109
1, 65247, Note_off_c, 0, 56, 109
1, 65353, Note_on_c, 0, 60, 111
1, 65427, Note_off_c, 0, 60, 111
1, 65446, Note_on_c, 0, 64, 119
1, 65522, Note_off_c, 0, 64, 119
1, 65548, Note_on_c, 0, 68, 111
1, 65675, Note_off_c, 0, 68, 111
1, 65719, Note_on_c, 0, 64, 117
1, 65812, Note_off_c, 0, 64, 117
1, 65844, Note_on_c, 0, 60, 106
1, 65915, Note_off_c, 0, 60, 106
1, 65946, Note_on_c, 0, 56, 102
1, 66048, Note_off_c, 0, 56, 102
1, 66275, Note_on_c, 0, 56, 104
1, 66322, Note_off_c, 0, 56, 104
1, 66330, Note_on_c, 0, 58, 109
1, 66369, Note_off_c, 0, 58, 109
1, 66380, Note_on_c, 0, 60, 105
1, 66421, Note_off_c, 0, 60, 105
1, 66443, Note_on_c, 0, 63, 115
1, 66481, Note_off_c, 0, 63, 115
1, 66507, Note_on_c, 0, 68, 112
1, 66615, Note_off_c, 0, 68, 112
1, 66699, Note_on_c, 0, 65, 113
1, 66801, Note_off_c, 0, 65, 113
1, 66875, Note_on_c, 0, 56, 100
1, 67072, Note_off_c, 0, 56, 100
1, 67175, Note_on_c, 0, 65, 109
1, 67273, Note_off_c, 0, 65, 109
1, 67281, Note_on_c, 0, 62, 104
1, 67343, Note_off_c, 0, 62, 104
1, 67382, Note_on_c, 0, 58, 105
1, 67469, Note_off_c, 0, 58, 105
1, 67828, Note_on_c, 0, 61, 112
1, 67915, Note_off_c, 0, 61, 112
1, 67926, Note_on_c, 0, 60, 103
1, 68000, Note_off_c, 0, 60, 103
1, 68014, Note_on_c, 0, 58, 114
1, 68103, Note_off_c, 0, 58, 114
1, 68110, Note_on_c, 0, 56, 109
1, 68184, Note_off_c, 0, 56, 109
1, 68198, Note_on_c, 0, 55, 101
1, 68295, Note_off_c, 0, 55, 101
1, 68304, Note_on_c, 0, 56, 100
1, 68376, Note_off_c, 0, 56, 100
1, 68393, Note_on_c, 0, 58, 112
1, 68507, Note_off_c, 0, 58, 112
1, 68519, Note_on_c, 0, 55, 103
1, 68563, Note_off_c, 0, 55, 103
1, 68585, Note_on_c, 0, 56, 109
1, 68634, Note_off_c, 0, 56, 109
1, 68638, Note_on_c, 0, 60, 103
1, 68676, Note_off_c, 0, 60, 103
1, 68698, Note_on_c, 0, 63, 116
1, 68764, Note_off_c, 0, 63, 116
1, 68782, Note_on_c, 0, 67, 115
1, 68879, Note_off_c, 0, 67, 115
1, 68891, Note_on_c, 0, 68, 113
1, 69042, Note_off_c, 0, 68, 113
1, 69364, Note_on_c, 0, 62, 107
1, 69443, Note_off_c, 0, 62, 107
1, 69457, Note_on_c, 0, 63, 111
1, 69546, Note_off_c, 0, 63, 111
1, 69635, Note_on_c, 0, 59, 110
1, 69723, Note_off_c, 0, 59, 110
1, 69732, Note_on_c, 0, 60, 107
1, 69835, Note_off_c, 0, 60, 107
1, 69952, Note_on_c, 0, 56, 108
1, 70034, Note_off_c, 0, 56, 108
1, 70148, Note_on_c, 0, 56, 110
1, 70225, Note_off_c, 0, 56, 110
1, 70317, Note_on_c, 0, 56, 114
1, 70426, Note_off_c, 0, 56, 114
1, 70435, Note_on_c, 0, 58, 102
1, 70513, Note_off_c, 0, 58, 102
1, 70525, Note_on_c, 0, 59, 112
1, 70591, Note_off_c, 0, 59, 112
1, 70639, Note_on_c, 0, 53, 103
1, 70740, Note_off_c, 0, 53, 103
1, 71235, Note_on_c, 0, 54, 108
1, 71294, Note_off_c, 0, 54, 108
1, 71310, Note_on_c, 0, 56, 113
1, 71364, Note_off_c, 0, 56, 113
1, 71385, Note_on_c, 0, 59, 112
1, 71438, Note_off_c, 0, 59, 112
1, 71452, Note_on_c, 0, 63, 116
1, 71570, Note_off_c, 0, 63, 116
1, 71573, Note_on_c, 0, 61, 106
1, 71647, Note_off_c, 0, 61, 106
1, 71669, Note_on_c, 0, 60, 107
1, 71753, Note_off_c, 0, 60, 107
1, 71755, Note_on_c, 0, 58, 111
1, 71827, Note_off_c, 0, 58, 111
1, 71853, Note_on_c, 0, 57, 102
1, 71951, Note_off_c, 0, 57, 102
1, 71960, Note_on_c, 0, 58, 100
1, 72014, Note_off_c, 0, 58, 100
1, 72030, Note_on_c, 0, 60, 109
1, 72128, Note_off_c, 0, 60, 109
1, 72146, Note_on_c, 0, 57, 100
1, 72212, Note_off_c, 0, 57, 100
1, 72220, Note_on_c, 0, 58, 103
1, 72317, Note_off_c, 0, 58, 103
1, 72324, Note_on_c, 0, 60, 109
1, 72390, Note_off_c, 0, 60, 109
1, 72407, Note_on_c, 0, 61, 101
1, 72494, Note_off_c, 0, 61, 101
1, 72508, Note_on_c, 0, 64, 102
1, 72580, Note_off_c, 0, 64, 102
1, 72591, Note_on_c, 0, 65, 109
1, 72693, Note_off_c, 0, 65, 109
1, 72709, Note_on_c, 0, 63, 101
1, 72758, Note_off_c, 0, 63, 101
1, 72770, Note_on_c, 0, 68, 112
1, 72859, Note_off_c, 0, 68, 112
1, 72978, Note_on_c, 0, 63, 99
1, 73252, Note_off_c, 0, 63, 99
1, 73279, Note_on_c, 0, 63, 115
1, 73391, Note_off_c, 0, 63, 115
1, 74033, Note_on_c, 0, 64, 115
1, 74120, Note_off_c, 0, 64, 115
1, 74124, Note_on_c, 0, 65, 114
1, 74217, Note_off_c, 0, 65, 114
1, 74260, Note_on_c, 0, 65, 109
1, 74424, Note_off_c, 0, 65, 109
1, 74491, Note_on_c, 0, 65, 110
1, 74615, Note_off_c, 0, 65, 110
1, 74874, Note_on_c, 0, 65, 108
1, 75013, Note_off_c, 0, 65, 108
1, 75176, Note_on_c, 0, 65, 108
1, 75222, Note_off_c, 0, 65, 108
1, 75226, Note_on_c, 0, 66, 113
1, 75345, Note_off_c, 0, 66, 113
1, 75366, Note_on_c, 0, 66, 112
1, 75433, Note_off_c, 0, 66, 112
1, 75452, Note_on_c, 0, 65, 110
1, 75550, Note_off_c, 0, 65, 110
1, 75627, Note_on_c, 0, 62, 104
1, 75651, Note_off_c, 0, 62, 104
1, 75659, Note_on_c, 0, 63, 113
1, 75731, Note_off_c, 0, 63, 113
1, 75824, Note_on_c, 0, 56, 104
1, 75932, Note_off_c, 0, 56, 104
1, 76023, Note_on_c, 0, 58, 109
1, 76080, Note_off_c, 0, 58, 109
1, 76089, Note_on_c, 0, 59, 107
1, 76188, Note_off_c, 0, 59, 107
1, 76212, Note_on_c, 0, 58, 108
1, 76286, Note_off_c, 0, 58, 108
1, 76419, Note_on_c, 0, 56, 92
1, 76731, Note_off_c, 0, 56, 92
1, 77086, Note_on_c, 0, 64, 114
1, 77146, Note_off_c, 0, 64, 114
1, 77153, Note_on_c, 0, 65, 109
1, 77255, Note_off_c, 0, 65, 109
1, 77270, Note_on_c, 0, 65, 108
1, 77424, Note_off_c, 0, 65, 108
1, 77559, Note_on_c, 0, 65, 111
1, 77656, Note_off_c, 0, 65, 111
1, 77745, Note_on_c, 0, 65, 112
1, 77844, Note_off_c, 0, 65, 112
1, 77933, Note_on_c, 0, 65, 107
1, 78035, Note_off_c, 0, 65, 107
1, 78117, Note_on_c, 0, 65, 113
1, 78224, Note_off_c, 0, 65, 113
1, 78315, Note_on_c, 0, 68, 107
1, 78574, Note_off_c, 0, 68, 107
1, 78629, Note_on_c, 0, 65, 108
1, 78728, Note_off_c, 0, 65, 108
1, 78750, Note_on_c, 0, 63, 106
1, 78824, Note_off_c, 0, 63, 106
1, 78851, Note_on_c, 0, 59, 103
1, 78910, Note_off_c, 0, 59, 103
1, 78927, Note_on_c, 0, 56, 105
1, 78994, Note_off_c, 0, 56, 105
1, 79121, Note_on_c, 0, 59, 103
1, 79330, Note_off_c, 0, 59, 103
1, 79366, Note_on_c, 0, 58, 105
1, 79612, Note_off_c, 0, 58, 105
1, 80295, Note_on_c, 0, 65, 111
1, 80497, Note_off_c, 0, 65, 111
1, 80502, Note_on_c, 0, 63, 105
1, 80581, Note_off_c, 0, 63, 105
1, 80626, Note_on_c, 0, 65, 118
1, 80694, Note_off_c, 0, 65, 118
1, 80704, Note_on_c, 0, 66, 113
1, 80760, Note_off_c, 0, 66, 113
1, 80775, Note_on_c, 0, 65, 106
1, 80869, Note_off_c, 0, 65, 106
1, 80877, Note_on_c, 0, 63, 113
1, 80945, Note_off_c, 0, 63, 113
1, 81046, Note_on_c, 0, 56, 103
1, 81127, Note_off_c, 0, 56, 103
1, 81137, Note_on_c, 0, 58, 105
1, 81230, Note_off_c, 0, 58, 105
1, 81244, Note_on_c, 0, 56, 95
1, 81298, Note_off_c, 0, 56, 95
1, 81324, Note_on_c, 0, 58, 112
1, 81433, Note_off_c, 0, 58, 112
1, 81447, Note_on_c, 0, 59, 111
1, 81501, Note_off_c, 0, 59, 111
1, 81502, Note_on_c, 0, 58, 107
1, 81596, Note_off_c, 0, 58, 107
1, 81612, Note_on_c, 0, 56, 110
1, 81750, Note_off_c, 0, 56, 110
1, 81798, Note_on_c, 0, 51, 107
1, 81848, Note_off_c, 0, 51, 107
1, 81865, Note_on_c, 0, 53, 112
1, 82019, Note_off_c, 0, 53, 112
1, 82026, Note_on_c, 0, 51, 103
1, 82068, Note_off_c, 0, 51, 103
1, 82075, Note_on_c, 0, 54, 108
1, 82262, Note_off_c, 0, 54, 108
1, 82311, Note_on_c, 0, 53, 106
1, 82419, Note_off_c, 0, 53, 106
1, 82480, Note_on_c, 0, 51, 108
1, 82588, Note_off_c, 0, 51, 108
1, 82680, Note_on_c, 0, 53, 111
1, 82785, Note_off_c, 0, 53, 111
1, 82873, Note_on_c, 0, 56, 109
1, 82977, Note_off_c, 0, 56, 109
1, 83066, Note_on_c, 0, 58, 116
1, 83174, Note_off_c, 0, 58, 116
1, 83251, Note_on_c, 0, 59, 115
1, 83333, Note_off_c, 0, 59, 115
1, 83348, Note_on_c, 0, 58, 114
1, 83424, Note_off_c, 0, 58, 114
1, 83436, Note_on_c, 0, 56, 105
1, 83577, Note_off_c, 0, 56, 105
1, 83644, Note_on_c, 0, 54, 109
1, 83694, Note_off_c, 0, 54, 109
1, 83706, Note_on_c, 0, 55, 102
1, 83753, Note_off_c, 0, 55, 102
1, 83774, Note_on_c, 0, 56, 103
1, 83893, Note_off_c, 0, 56, 103
1, 83941, Note_on_c, 0, 56, 96
1, 84000, Note_off_c, 0, 56, 96
1, 84004, Note_on_c, 0, 58, 113
1, 84098, Note_off_c, 0, 58, 113
1, 84122, Note_on_c, 0, 56, 103
1, 84186, Note_off_c, 0, 56, 103
1, 84195, Note_on_c, 0, 57, 113
1, 84298, Note_off_c, 0, 57, 113
1, 84305, Note_on_c, 0, 58, 111
1, 84347, Note_off_c, 0, 58, 111
1, 84363, Note_on_c, 0, 60, 113
1, 84502, Note_off_c, 0, 60, 113
1, 84516, Note_on_c, 0, 57, 108
1, 84563, Note_off_c, 0, 57, 108
1, 84569, Note_on_c, 0, 58, 112
1, 84659, Note_off_c, 0, 58, 112
1, 84677, Note_on_c, 0, 58, 112
1, 84742, Note_off_c, 0, 58, 112
1, 84755, Note_on_c, 0, 61, 104
1, 84870, Note_off_c, 0, 61, 104
1, 84893, Note_on_c, 0, 63, 110
1, 84954, Note_off_c, 0, 63, 110
1, 84957, Note_on_c, 0, 65, 118
1, 85004, Note_off_c, 0, 65, 118
1, 85068, Note_on_c, 0, 67, 96
1, 85106, Note_off_c, 0, 67, 96
1, 85106, Note_on_c, 0, 68, 120
1, 85351, Note_off_c, 0, 68, 120
1, 85361, Note_on_c, 0, 67, 102
1, 85446, Note_off_c, 0, 67, 102
1, 85466, Note_on_c, 0, 68, 111
1, 85883, Note_off_c, 0, 68, 111
1, 86288, Note_on_c, 0, 67, 117
1, 86368, Note_off_c, 0, 67, 117
1, 86476, Note_on_c, 0, 65, 116
1, 86567, Note_off_c, 0, 65, 116
1, 86675, Note_on_c, 0, 63, 120
1, 86787, Note_off_c, 0, 63, 120
1, 86797, Note_on_c, 0, 64, 113
1, 86868, Note_off_c, 0, 64, 113
1, 86877, Note_on_c, 0, 67, 106
1, 86956, Note_off_c, 0, 67, 106
1, 86978, Note_on_c, 0, 60, 95
1, 87198, Note_off_c, 0, 60, 95
1, 87419, Note_on_c, 0, 60, 106
1, 87510, Note_off_c, 0, 60, 106
1, 87518, Note_on_c, 0, 64, 111
1, 87586, Note_off_c, 0, 64, 111
1, 87594, Note_on_c, 0, 63, 110
1, 87684, Note_off_c, 0, 63, 110
1, 87708, Note_on_c, 0, 60, 103
1, 87786, Note_off_c, 0, 60, 103
1, 87810, Note_on_c, 0, 53, 103
1, 87932, Note_off_c, 0, 53, 103
1, 87936, Note_on_c, 0, 55, 102
1, 88000, Note_off_c, 0, 55, 102
1, 88008, Note_on_c, 0, 56, 100
1, 88081, Note_off_c, 0, 56, 100
1, 88121, Note_on_c, 0, 58, 94
1, 88189, Note_off_c, 0, 58, 94
1, 88203, Note_on_c, 0, 60, 104
1, 88279, Note_off_c, 0, 60, 104
1, 88298, Note_on_c, 0, 58, 102
1, 88364, Note_off_c, 0, 58, 102
1, 88383, Note_on_c, 0, 60, 107
1, 88479, Note_off_c, 0, 60, 107
1, 88488, Note_on_c, 0, 58, 108
1, 88577, Note_off_c, 0, 58, 108
1, 88584, Note_on_c, 0, 56, 105
1, 88661, Note_off_c, 0, 56, 105
1, 88669, Note_on_c, 0, 55, 102
1, 88762, Note_off_c, 0, 55, 102
1, 88778, Note_on_c, 0, 53, 106
1, 88876, Note_off_c, 0, 53, 106
1, 88955, Note_on_c, 0, 55, 102
1, 89082, Note_off_c, 0, 55, 102
1, 89120, Note_on_c, 0, 52, 99
1, 89156, Note_off_c, 0, 52, 99
1, 89157, Note_on_c, 0, 53, 111
1, 89255, Note_off_c, 0, 53, 111
1, 89267, Note_on_c, 0, 55, 108
1, 89337, Note_off_c, 0, 55, 108
1, 89344, Note_on_c, 0, 56, 106
1, 89430, Note_off_c, 0, 56, 106
1, 89457, Note_on_c, 0, 58, 110
1, 89537, Note_off_c, 0, 58, 110
1, 89546, Note_on_c, 0, 58, 98
1, 89625, Note_off_c, 0, 58, 98
1, 89640, Note_on_c, 0, 59, 94
1, 89708, Note_off_c, 0, 59, 94
1, 89723, Note_on_c, 0, 60, 109
1, 89794, Note_off_c, 0, 60, 109
1, 89801, Note_on_c, 0, 61, 90
1, 89877, Note_off_c, 0, 61, 90
1, 89928, Note_on_c, 0, 60, 106
1, 90019, Note_off_c, 0, 60, 106
1, 90027, Note_on_c, 0, 59, 110
1, 90114, Note_off_c, 0, 59, 110
1, 90122, Note_on_c, 0, 58, 107
1, 90218, Note_off_c, 0, 58, 107
1, 90225, Note_on_c, 0, 56, 112
1, 90300, Note_off_c, 0, 56, 112
1, 90315, Note_on_c, 0, 52, 106
1, 90392, Note_off_c, 0, 52, 106
1, 90679, Note_on_c, 0, 55, 108
1, 90776, Note_off_c, 0, 55, 108
1, 90812, Note_on_c, 0, 52, 99
1, 90873, Note_off_c, 0, 52, 99
1, 90878, Note_on_c, 0, 53, 114
1, 90988, Note_off_c, 0, 53, 114
1, 90998, Note_on_c, 0, 55, 107
1, 91066, Note_off_c, 0, 55, 107
1, 91074, Note_on_c, 0, 57, 114
1, 91161, Note_off_c, 0, 57, 114
1, 91475, Note_on_c, 0, 55, 108
1, 91543, Note_off_c, 0, 55, 108
1, 91551, Note_on_c, 0, 56, 113
1, 91628, Note_off_c, 0, 56, 113
1, 91642, Note_on_c, 0, 58, 112
1, 91724, Note_off_c, 0, 58, 112
1, 91736, Note_on_c, 0, 59, 113
1, 91815, Note_off_c, 0, 59, 113
1, 91822, Note_on_c, 0, 60, 108
1, 91912, Note_off_c, 0, 60, 108
1, 91917, Note_on_c, 0, 59, 115
1, 92001, Note_off_c, 0, 59, 115
1, 92009, Note_on_c, 0, 58, 114
1, 92103, Note_off_c, 0, 58, 114
1, 92108, Note_on_c, 0, 57, 109
1, 92181, Note_off_c, 0, 57, 109
1, 92193, Note_on_c, 0, 56, 111
1, 92280, Note_off_c, 0, 56, 111
1, 92305, Note_on_c, 0, 53, 112
1, 92398, Note_off_c, 0, 53, 112
1, 92415, Note_on_c, 0, 49, 105
1, 92534, Note_off_c, 0, 49, 105
1, 92553, Note_on_c, 0, 46, 110
1, 92635, Note_off_c, 0, 46, 110
1, 92645, Note_on_c, 0, 47, 105
1, 92922, Note_off_c, 0, 47, 105
1, 92939, Note_on_c, 0, 48, 106
1, 93042, Note_off_c, 0, 48, 106
1, 93156, Note_on_c, 0, 47, 106
1, 93358, Note_off_c, 0, 47, 106
1, 93373, Note_on_c, 0, 48, 112
1, 93471, Note_off_c, 0, 48, 112
1, 93565, Note_on_c, 0, 53, 115
1, 93654, Note_off_c, 0, 53, 115
1, 93666, Note_on_c, 0, 50, 107
1, 93730, Note_off_c, 0, 50, 107
1, 93754, Note_on_c, 0, 51, 111
1, 93833, Note_off_c, 0, 51, 111
1, 93843, Note_on_c, 0, 53, 114
1, 93929, Note_off_c, 0, 53, 114
1, 93948, Note_on_c, 0, 54, 108
1, 94021, Note_off_c, 0, 54, 108
1, 94042, Note_on_c, 0, 56, 103
1, 94123, Note_off_c, 0, 56, 103
1, 94137, Note_on_c, 0, 60, 110
1, 94474, Note_off_c, 0, 60, 110
1, 94526, Note_on_c, 0, 56, 109
1, 94619, Note_off_c, 0, 56, 109
1, 94715, Note_on_c, 0, 58, 104
1, 94883, Note_off_c, 0, 58, 104
1, 94896, Note_on_c, 0, 56, 106
1, 94998, Note_off_c, 0, 56, 106
1, 95026, Note_on_c, 0, 53, 100
1, 95377, Note_off_c, 0, 53, 100
1, 95761, Note_on_c, 0, 58, 113
1, 95848, Note_off_c, 0, 58, 113
1, 95869, Note_on_c, 0, 60, 109
1, 96209, Note_off_c, 0, 60, 109
1, 96802, Note_on_c, 0, 60, 110
1, 96879, Note_off_c, 0, 60, 110
1, 96896, Note_on_c, 0, 61, 107
1, 96964, Note_off_c, 0, 61, 107
1, 96976, Note_on_c, 0, 62, 110
1, 97098, Note_off_c, 0, 62, 110
1, 97112, Note_on_c, 0, 63, 115
1, 97196, Note_off_c, 0, 63, 115
1, 97290, Note_on_c, 0, 68, 96
1, 97372, Note_off_c, 0, 68, 96
1, 97489, Note_on_c, 0, 68, 95
1, 97583, Note_off_c, 0, 68, 95
1, 98244, Note_on_c, 0, 60, 112
1, 98323, Note_off_c, 0, 60, 112
1, 98386, Note_on_c, 0, 61, 111
1, 98480, Note_off_c, 0, 61, 111
1, 98491, Note_on_c, 0, 62, 107
1, 98605, Note_off_c, 0, 62, 107
1, 98666, Note_on_c, 0, 63, 113
1, 98772, Note_off_c, 0, 63, 113
1, 98865, Note_on_c, 0, 56, 99
1, 99114, Note_off_c, 0, 56, 99
1, 99176, Note_on_c, 0, 60, 112
1, 99259, Note_off_c, 0, 60, 112
1, 99272, Note_on_c, 0, 61, 108
1, 99388, Note_off_c, 0, 61, 108
1, 99421, Note_on_c, 0, 62, 111
1, 99513, Note_off_c, 0, 62, 111
1, 99570, Note_on_c, 0, 63, 107
1, 99646, Note_off_c, 0, 63, 107
1, 99752, Note_on_c, 0, 68, 114
1, 99852, Note_off_c, 0, 68, 114
1, 100019, Note_on_c, 0, 63, 109
1, 100118, Note_off_c, 0, 63, 109
1, 100211, Note_on_c, 0, 61, 101
1, 100309, Note_off_c, 0, 61, 101
1, 100409, Note_on_c, 0, 59, 111
1, 100470, Note_off_c, 0, 59, 111
1, 100480, Note_on_c, 0, 60, 108
1, 100543, Note_off_c, 0, 60, 108
1, 100544, Note_on_c, 0, 59, 111
1, 100601, Note_off_c, 0, 59, 111
1, 100609, Note_on_c, 0, 56, 98
1, 100758, Note_off_c, 0, 56, 98
1, 100784, Note_on_c, 0, 59, 106
1, 100924, Note_off_c, 0, 59, 106
1, 100939, Note_on_c, 0, 61, 107
1, 101068, Note_off_c, 0, 61, 107
1, 101087, Note_on_c, 0, 63, 114
1, 101190, Note_off_c, 0, 63, 114
1, 101272, Note_on_c, 0, 56, 100
1, 101376, Note_off_c, 0, 56, 100
1, 101444, Note_on_c, 0, 63, 112
1, 101511, Note_off_c, 0, 63, 112
1, 101540, Note_on_c, 0, 61, 108
1, 101624, Note_off_c, 0, 61, 108
1, 101641, Note_on_c, 0, 59, 111
1, 101713, Note_off_c, 0, 59, 111
1, 101717, Note_on_c, 0, 56, 107
1, 101790, Note_off_c, 0, 56, 107
1, 101805, Note_on_c, 0, 53, 112
1, 101873, Note_off_c, 0, 53, 112
1, 101938, Note_on_c, 0, 56, 111
1, 102031, Note_off_c, 0, 56, 111
1, 102113, Note_on_c, 0, 56, 113
1, 102207, Note_off_c, 0, 56, 113
1, 102305, Note_on_c, 0, 56, 116
1, 102394, Note_off_c, 0, 56, 116
1, 102408, Note_on_c, 0, 58, 107
1, 102472, Note_off_c, 0, 58, 107
1, 102487, Note_on_c, 0, 59, 36
1, 102576, Note_off_c, 0, 59, 36
1, 102602, Note_on_c, 0, 60, 100
1, 102675, Note_off_c, 0, 60, 100
1, 102699, Note_on_c, 0, 65, 107
1, 102796, Note_off_c, 0, 65, 107
1, 102803, Note_on_c, 0, 64, 121
1, 102891, Note_off_c, 0, 64, 121
1, 102903, Note_on_c, 0, 63, 112
1, 102967, Note_off_c, 0, 63, 112
1, 102982, Note_on_c, 0, 60, 112
1, 103064, Note_off_c, 0, 60, 112
1, 103076, Note_on_c, 0, 57, 109
1, 103145, Note_off_c, 0, 57, 109
1, 103166, Note_on_c, 0, 54, 99
1, 103245, Note_off_c, 0, 54, 99
1, 103254, Note_on_c, 0, 61, 101
1, 103342, Note_off_c, 0, 61, 101
1, 103351, Note_on_c, 0, 60, 105
1, 103437, Note_off_c, 0, 60, 105
1, 103456, Note_on_c, 0, 58, 102
1, 103550, Note_off_c, 0, 58, 102
1, 103561, Note_on_c, 0, 56, 107
1, 103642, Note_off_c, 0, 56, 107
1, 103649, Note_on_c, 0, 55, 100
1, 103747, Note_off_c, 0, 55, 100
1, 103755, Note_on_c, 0, 53, 110
1, 103844, Note_off_c, 0, 53, 110
1, 103860, Note_on_c, 0, 51, 93
1, 103981, Note_off_c, 0, 51, 93
1, 104410, Note_on_c, 0, 52, 108
1, 104471, Note_off_c, 0, 52, 108
1, 104477, Note_on_c, 0, 50, 102
1, 104553, Note_off_c, 0, 50, 102
1, 104562, Note_on_c, 0, 49, 111
1, 104641, Note_off_c, 0, 49, 111
1, 104653, Note_on_c, 0, 47, 105
1, 104752, Note_off_c, 0, 47, 105
1, 104760, Note_on_c, 0, 48, 107
1, 104847, Note_off_c, 0, 48, 107
1, 104859, Note_on_c, 0, 51, 114
1, 104937, Note_off_c, 0, 51, 114
1, 104949, Note_on_c, 0, 53, 104
1, 105038, Note_off_c, 0, 53, 104
1, 105057, Note_on_c, 0, 56, 108
1, 105129, Note_off_c, 0, 56, 108
1, 105146, Note_on_c, 0, 53, 109
1, 105218, Note_off_c, 0, 53, 109
1, 105305, Note_on_c, 0, 56, 101
1, 105597, Note_off_c, 0, 56, 101
1, 105620, Note_on_c, 0, 59, 106
1, 105706, Note_off_c, 0, 59, 106
1, 105715, Note_on_c, 0, 60, 102
1, 105804, Note_off_c, 0, 60, 102
1, 105810, Note_on_c, 0, 65, 107
1, 105891, Note_off_c, 0, 65, 107
1, 105913, Note_on_c, 0, 60, 107
1, 105981, Note_off_c, 0, 60, 107
1, 106054, Note_on_c, 0, 65, 101
1, 106352, Note_off_c, 0, 65, 101
1, 106393, Note_on_c, 0, 59, 100
1, 106490, Note_off_c, 0, 59, 100
1, 106569, Note_on_c, 0, 59, 108
1, 106667, Note_off_c, 0, 59, 108
1, 106758, Note_on_c, 0, 56, 107
1, 106802, Note_off_c, 0, 56, 107
1, 106811, Note_on_c, 0, 58, 104
1, 106845, Note_off_c, 0, 58, 104
1, 106853, Note_on_c, 0, 60, 105
1, 106915, Note_off_c, 0, 60, 105
1, 106936, Note_on_c, 0, 59, 112
1, 107005, Note_off_c, 0, 59, 112
1, 107008, Note_on_c, 0, 56, 107
1, 107082, Note_off_c, 0, 56, 107
1, 107204, Note_on_c, 0, 58, 108
1, 107363, Note_off_c, 0, 58, 108
1, 107381, Note_on_c, 0, 56, 98
1, 107457, Note_off_c, 0, 56, 98
1, 107480, Note_on_c, 0, 58, 113
1, 107572, Note_off_c, 0, 58, 113
1, 107669, Note_on_c, 0, 56, 111
1, 107733, Note_off_c, 0, 56, 111
1, 107757, Note_on_c, 0, 53, 107
1, 107881, Note_off_c, 0, 53, 107
1, 108132, Note_on_c, 0, 51, 108
1, 108216, Note_off_c, 0, 51, 108
1, 108228, Note_on_c, 0, 53, 114
1, 108344, Note_off_c, 0, 53, 114
1, 108348, Note_on_c, 0, 55, 106
1, 108415, Note_off_c, 0, 55, 106
1, 108426, Note_on_c, 0, 56, 112
1, 108512, Note_off_c, 0, 56, 112
1, 108523, Note_on_c, 0, 57, 110
1, 108620, Note_off_c, 0, 57, 110
1, 108632, Note_on_c, 0, 58, 101
1, 108720, Note_off_c, 0, 58, 101
1, 108728, Note_on_c, 0, 60, 112
1, 108836, Note_off_c, 0, 60, 112
1, 108842, Note_on_c, 0, 57, 103
1, 108908, Note_off_c, 0, 57, 103
1, 108925, Note_on_c, 0, 58, 105
1, 109007, Note_off_c, 0, 58, 105
1, 109016, Note_on_c, 0, 60, 114
1, 109083, Note_off_c, 0, 60, 114
1, 109097, Note_on_c, 0, 61, 103
1, 109196, Note_off_c, 0, 61, 103
1, 109205, Note_on_c, 0, 63, 108
1, 109262, Note_off_c, 0, 63, 108
1, 109268, Note_on_c, 0, 65, 110
1, 109376, Note_off_c, 0, 65, 110
1, 109382, Note_on_c, 0, 67, 100
1, 109430, Note_off_c, 0, 67, 100
1, 109447, Note_on_c, 0, 68, 116
1, 109543, Note_off_c, 0, 68, 116
1, 109561, Note_on_c, 0, 67, 106
1, 109625, Note_off_c, 0, 67, 106
1, 109634, Note_on_c, 0, 68, 111
1, 109757, Note_off_c, 0, 68, 111
1, 109765, Note_on_c, 0, 67, 107
1, 109813, Note_off_c, 0, 67, 107
1, 109822, Note_on_c, 0, 66, 111
1, 109873, Note_off_c, 0, 66, 111
1, 109877, Note_on_c, 0, 65, 109
1, 109984, Note_off_c, 0, 65, 109
1, 110001, Note_on_c, 0, 63, 108
1, 110089, Note_off_c, 0, 63, 108
1, 110904, Note_on_c, 0, 63, 106
1, 111011, Note_off_c, 0, 63, 106
1, 111023, Note_on_c, 0, 64, 113
1, 111104, Note_off_c, 0, 64, 113
1, 111123, Note_on_c, 0, 60, 104
1, 111179, Note_off_c, 0, 60, 104
1, 111190, Note_on_c, 0, 62, 99
1, 111298, Note_off_c, 0, 62, 99
1, 111361, Note_on_c, 0, 64, 110
1, 111458, Note_off_c, 0, 64, 110
1, 111487, Note_on_c, 0, 60, 100
1, 111556, Note_off_c, 0, 60, 100
1, 111574, Note_on_c, 0, 62, 102
1, 111672, Note_off_c, 0, 62, 102
1, 111682, Note_on_c, 0, 60, 100
1, 111748, Note_off_c, 0, 60, 100
1, 111751, Note_on_c, 0, 62, 101
1, 111845, Note_off_c, 0, 62, 101
1, 111861, Note_on_c, 0, 60, 107
1, 111925, Note_off_c, 0, 60, 107
1, 111943, Note_on_c, 0, 58, 106
1, 112013, Note_off_c, 0, 58, 106
1, 112021, Note_on_c, 0, 56, 102
1, 112091, Note_off_c, 0, 56, 102
1, 112101, Note_on_c, 0, 54, 103
1, 112167, Note_off_c, 0, 54, 103
1, 112182, Note_on_c, 0, 53, 97
1, 112254, Note_off_c, 0, 53, 97
1, 112626, Note_on_c, 0, 60, 109
1, 112710, Note_off_c, 0, 60, 109
1, 112714, Note_on_c, 0, 62, 105
1, 112783, Note_off_c, 0, 62, 105
1, 112794, Note_on_c, 0, 60, 96
1, 112880, Note_off_c, 0, 60, 96
1, 112897, Note_on_c, 0, 65, 112
1, 112960, Note_off_c, 0, 65, 112
1, 113177, Note_on_c, 0, 60, 110
1, 113248, Note_off_c, 0, 60, 110
1, 113262, Note_on_c, 0, 62, 106
1, 113324, Note_off_c, 0, 62, 106
1, 113337, Note_on_c, 0, 60, 108
1, 113417, Note_off_c, 0, 60, 108
1, 113422, Note_on_c, 0, 56, 105
1, 113511, Note_off_c, 0, 56, 105
1, 113520, Note_on_c, 0, 53, 112
1, 113617, Note_off_c, 0, 53, 112
1, 114109, Note_on_c, 0, 60, 107
1, 114185, Note_off_c, 0, 60, 107
1, 114201, Note_on_c, 0, 62, 110
1, 114277, Note_off_c, 0, 62, 110
1, 114296, Note_on_c, 0, 60, 97
1, 114357, Note_off_c, 0, 60, 97
1, 114374, Note_on_c, 0, 64, 117
1, 114470, Note_off_c, 0, 64, 117
1, 114481, Note_on_c, 0, 62, 110
1, 114543, Note_off_c, 0, 62, 110
1, 114564, Note_on_c, 0, 60, 109
1, 114655, Note_off_c, 0, 60, 109
1, 114687, Note_on_c, 0, 61, 90
1, 114739, Note_off_c, 0, 61, 90
1, 114758, Note_on_c, 0, 63, 111
1, 114847, Note_off_c, 0, 63, 111
1, 114893, Note_on_c, 0, 61, 97
1, 114970, Note_off_c, 0, 61, 97
1, 114987, Note_on_c, 0, 60, 102
1, 115066, Note_off_c, 0, 60, 102
1, 115071, Note_on_c, 0, 58, 110
1, 115171, Note_off_c, 0, 58, 110
1, 115181, Note_on_c, 0, 57, 104
1, 115267, Note_off_c, 0, 57, 104
1, 115275, Note_on_c, 0, 58, 102
1, 115334, Note_off_c, 0, 58, 102
1, 115343, Note_on_c, 0, 60, 111
1, 115452, Note_off_c, 0, 60, 111
1, 115471, Note_on_c, 0, 56, 97
1, 115508, Note_off_c, 0, 56, 97
1, 115520, Note_on_c, 0, 58, 101
1, 115614, Note_off_c, 0, 58, 101
1, 115623, Note_on_c, 0, 60, 110
1, 115689, Note_off_c, 0, 60, 110
1, 115716, Note_on_c, 0, 62, 106
1, 115813, Note_off_c, 0, 62, 106
1, 115891, Note_on_c, 0, 56, 106
1, 115997, Note_off_c, 0, 56, 106
1, 116004, Note_on_c, 0, 58, 102
1, 116078, Note_off_c, 0, 58, 102
1, 116091, Note_on_c, 0, 60, 109
1, 116188, Note_off_c, 0, 60, 109
1, 116216, Note_on_c, 0, 55, 93
1, 116291, Note_off_c, 0, 55, 93
1, 116299, Note_on_c, 0, 56, 102
1, 116383, Note_off_c, 0, 56, 102
1, 116398, Note_on_c, 0, 58, 103
1, 116457, Note_off_c, 0, 58, 103
1, 116469, Note_on_c, 0, 59, 112
1, 116574, Note_off_c, 0, 59, 112
1, 116585, Note_on_c, 0, 60, 111
1, 116669, Note_off_c, 0, 60, 111
1, 116686, Note_on_c, 0, 61, 107
1, 116759, Note_off_c, 0, 61, 107
1, 116787, Note_on_c, 0, 58, 113
1, 116858, Note_off_c, 0, 58, 113
1, 116870, Note_on_c, 0, 55, 101
1, 116961, Note_off_c, 0, 55, 101
1, 116992, Note_on_c, 0, 51, 108
1, 117076, Note_off_c, 0, 51, 108
1, 117079, Note_on_c, 0, 53, 106
1, 117200, Note_off_c, 0, 53, 106
1, 117245, Note_on_c, 0, 56, 111
1, 117318, Note_off_c, 0, 56, 111
1, 117439, Note_on_c, 0, 60, 112
1, 117518, Note_off_c, 0, 60, 112
1, 117633, Note_on_c, 0, 65, 112
1, 117726, Note_off_c, 0, 65, 112
1, 117800, Note_on_c, 0, 66, 109
1, 117952, Note_off_c, 0, 66, 109
1, 117960, Note_on_c, 0, 65, 104
1, 118074, Note_off_c, 0, 65, 104
1, 118108, Note_on_c, 0, 63, 110
1, 118232, Note_off_c, 0, 63, 110
1, 118290, Note_on_c, 0, 56, 106
1, 118368, Note_off_c, 0, 56, 106
1, 118387, Note_on_c, 0, 58, 108
1, 118470, Note_off_c, 0, 58, 108
1, 118481, Note_on_c, 0, 56, 99
1, 118549, Note_off_c, 0, 56, 99
1, 118577, Note_on_c, 0, 59, 105
1, 118669, Note_off_c, 0, 59, 105
1, 118675, Note_on_c, 0, 60, 111
1, 118722, Note_off_c, 0, 60, 111
1, 118737, Note_on_c, 0, 61, 110
1, 118835, Note_off_c, 0, 61, 110
1, 118849, Note_on_c, 0, 62, 94
1, 118912, Note_off_c, 0, 62, 94
1, 118931, Note_on_c, 0, 63, 113
1, 119029, Note_off_c, 0, 63, 113
1, 119039, Note_on_c, 0, 59, 108
1, 119093, Note_off_c, 0, 59, 108
1, 119105, Note_on_c, 0, 56, 113
1, 119162, Note_off_c, 0, 56, 113
1, 119170, Note_on_c, 0, 53, 103
1, 119259, Note_off_c, 0, 53, 103
1, 119273, Note_on_c, 0, 58, 104
1, 119448, Note_off_c, 0, 58, 104
1, 119458, Note_on_c, 0, 56, 97
1, 119554, Note_off_c, 0, 56, 97
1, 119580, Note_on_c, 0, 58, 113
1, 119659, Note_off_c, 0, 58, 113
1, 119739, Note_on_c, 0, 56, 112
1, 119806, Note_off_c, 0, 56, 112
1, 119828, Note_on_c, 0, 53, 106
1, 119934, Note_off_c, 0, 53, 106
1, 120030, Note_on_c, 0, 56, 109
1, 120154, Note_off_c, 0, 56, 109
1, 120221, Note_on_c, 0, 63, 107
1, 120337, Note_off_c, 0, 63, 107
1, 120428, Note_on_c, 0, 56, 95
1, 120786, Note_off_c, 0, 56, 95
1, 121123, Note_on_c, 0, 65, 114
1, 121202, Note_off_c, 0, 65, 114
1, 121213, Note_on_c, 0, 63, 113
1, 121340, Note_off_c, 0, 63, 113
1, 121367, Note_on_c, 0, 65, 116
1, 121481, Note_off_c, 0, 65, 116
1, 121495, Note_on_c, 0, 63, 110
1, 121598, Note_off_c, 0, 63, 110
1, 121682, Note_on_c, 0, 56, 109
1, 121905, Note_off_c, 0, 56, 109
1, 122651, Note_on_c, 0, 64, 117
1, 122694, Note_off_c, 0, 64, 117
1, 122695, Note_on_c, 0, 65, 115
1, 122902, Note_off_c, 0, 65, 115
1, 122917, Note_on_c, 0, 68, 117
1, 123006, Note_off_c, 0, 68, 117
1, 123093, Note_on_c, 0, 60, 96
1, 123384, Note_off_c, 0, 60, 96
1, 123394, Note_on_c, 0, 64, 111
1, 123501, Note_off_c, 0, 64, 111
1, 123507, Note_on_c, 0, 65, 106
1, 123656, Note_off_c, 0, 65, 106
1, 123668, Note_on_c, 0, 68, 112
1, 123757, Note_off_c, 0, 68, 112
1, 123867, Note_on_c, 0, 60, 102
1, 124153, Note_off_c, 0, 60, 102
1, 124167, Note_on_c, 0, 64, 115
1, 124242, Note_off_c, 0, 64, 115
1, 124256, Note_on_c, 0, 65, 110
1, 124419, Note_off_c, 0, 65, 110
1, 124432, Note_on_c, 0, 68, 115
1, 124544, Note_off_c, 0, 68, 115
1, 124593, Note_on_c, 0, 59, 94
1, 124690, Note_off_c, 0, 59, 94
1, 124748, Note_on_c, 0, 59, 107
1, 124937, Note_off_c, 0, 59, 107
1, 125674, Note_on_c, 0, 63, 119
1, 125733, Note_off_c, 0, 63, 119
1, 125736, Note_on_c, 0, 65, 112
1, 125925, Note_off_c, 0, 65, 112
1, 125935, Note_on_c, 0, 68, 119
1, 126021, Note_off_c, 0, 68, 119
1, 126124, Note_on_c, 0, 60, 98
1, 126419, Note_off_c, 0, 60, 98
1, 126436, Note_on_c, 0, 64, 112
1, 126527, Note_off_c, 0, 64, 112
1, 126539, Note_on_c, 0, 65, 104
1, 126679, Note_off_c, 0, 65, 104
1, 126684, Note_on_c, 0, 68, 115
1, 126775, Note_off_c, 0, 68, 115
1, 126901, Note_on_c, 0, 59, 108
1, 127034, Note_off_c, 0, 59, 108
1, 127037, Note_on_c, 0, 60, 106
1, 127184, Note_off_c, 0, 60, 106
1, 127201, Note_on_c, 0, 64, 111
1, 127295, Note_off_c, 0, 64, 111
1, 127312, Note_on_c, 0, 65, 105
1, 127444, Note_off_c, 0, 65, 105
1, 127466, Note_on_c, 0, 68, 112
1, 127562, Note_off_c, 0, 68, 112
1, 127583, Note_on_c, 0, 68, 103
1, 127707, Note_off_c, 0, 68, 103
1, 127783, Note_on_c, 0, 61, 106
1, 128000, Note_off_c, 0, 61, 106
1, 128750, Note_on_c, 0, 63, 100
1, 128809, Note_off_c, 0, 63, 100
1, 128821, Note_on_c, 0, 65, 106
1, 128952, Note_off_c, 0, 65, 106
1, 128974, Note_on_c, 0, 68, 114
1, 129056, Note_off_c, 0, 68, 114
1, 129105, Note_on_c, 0, 65, 109
1, 129211, Note_off_c, 0, 65, 109
1, 129224, Note_on_c, 0, 60, 92
1, 129338, Note_off_c, 0, 60, 92
1, 129385, Note_on_c, 0, 65, 110
1, 129463, Note_off_c, 0, 65, 110
1, 129482, Note_on_c, 0, 60, 108
1, 129539, Note_off_c, 0, 60, 108
1, 129561, Note_on_c, 0, 56, 98
1, 129670, Note_off_c, 0, 56, 98
1, 129764, Note_on_c, 0, 60, 110
1, 129837, Note_off_c, 0, 60, 110
1, 129852, Note_on_c, 0, 56, 104
1, 129938, Note_off_c, 0, 56, 104
1, 129950, Note_on_c, 0, 54, 108
1, 130032, Note_off_c, 0, 54, 108
1, 130053, Note_on_c, 0, 56, 102
1, 130134, Note_off_c, 0, 56, 102
1, 130151, Note_on_c, 0, 58, 105
1, 130212, Note_off_c, 0, 58, 105
1, 130241, Note_on_c, 0, 60, 101
1, 130305, Note_off_c, 0, 60, 101
1, 130315, Note_on_c, 0, 65, 108
1, 130431, Note_off_c, 0, 65, 108
1, 130440, Note_on_c, 0, 60, 93
1, 130489, Note_off_c, 0, 60, 93
1, 130512, Note_on_c, 0, 64, 112
1, 130603, Note_off_c, 0, 64, 112
1, 130621, Note_on_c, 0, 63, 110
1, 130703, Note_off_c, 0, 63, 110
1, 130709, Note_on_c, 0, 62, 104
1, 130775, Note_off_c, 0, 62, 104
1, 130787, Note_on_c, 0, 61, 106
1, 130873, Note_off_c, 0, 61, 106
1, 130886, Note_on_c, 0, 60, 109
1, 130979, Note_off_c, 0, 60, 109
1, 130994, Note_on_c, 0, 58, 110
1, 131087, Note_off_c, 0, 58, 110
1, 131102, Note_on_c, 0, 56, 108
1, 131186, Note_off_c, 0, 56, 108
1, 131202, Note_on_c, 0, 53, 111
1, 131280, Note_off_c, 0, 53, 111
1, 131296, Note_on_c, 0, 56, 96
1, 131387, Note_off_c, 0, 56, 96
1, 131401, Note_on_c, 0, 59, 99
1, 131454, Note_off_c, 0, 59, 99
1, 131483, Note_on_c, 0, 63, 106
1, 131560, Note_off_c, 0, 63, 106
1, 131646, Note_on_c, 0, 59, 105
1, 131749, Note_off_c, 0, 59, 105
1, 131761, Note_on_c, 0, 63, 104
1, 131824, Note_off_c, 0, 63, 104
1, 131872, Note_on_c, 0, 62, 102
1, 131938, Note_off_c, 0, 62, 102
1, 131955, Note_on_c, 0, 59, 107
1, 132016, Note_off_c, 0, 59, 107
1, 132031, Note_on_c, 0, 56, 106
1, 132110, Note_off_c, 0, 56, 106
1, 132135, Note_on_c, 0, 53, 97
1, 132224, Note_off_c, 0, 53, 97
1, 132236, Note_on_c, 0, 61, 105
1, 132330, Note_off_c, 0, 61, 105
1, 132340, Note_on_c, 0, 60, 103
1, 132413, Note_off_c, 0, 60, 103
1, 132423, Note_on_c, 0, 58, 109
1, 132526, Note_off_c, 0, 58, 109
1, 132547, Note_on_c, 0, 56, 106
1, 132604, Note_off_c, 0, 56, 106
1, 132622, Note_on_c, 0, 57, 106
1, 132718, Note_off_c, 0, 57, 106
1, 132749, Note_on_c, 0, 54, 112
1, 132807, Note_off_c, 0, 54, 112
1, 132820, Note_on_c, 0, 53, 108
1, 132901, Note_off_c, 0, 53, 108
1, 132913, Note_on_c, 0, 51, 103
1, 132966, Note_off_c, 0, 51, 103
1, 132982, Note_on_c, 0, 49, 107
1, 133049, Note_off_c, 0, 49, 107
1, 133081, Note_on_c, 0, 48, 97
1, 133148, Note_off_c, 0, 48, 97
1, 133165, Note_on_c, 0, 46, 103
1, 133273, Note_off_c, 0, 46, 103
1, 133292, Note_on_c, 0, 45, 90
1, 133355, Note_off_c, 0, 45, 90
1, 133379, Note_on_c, 0, 44, 104
1, 133593, Note_off_c, 0, 44, 104
1, 133610, Note_on_c, 0, 45, 127
1, 133692, Note_off_c, 0, 45, 127
1, 133699, Note_on_c, 0, 43, 118
1, 133761, Note_off_c, 0, 43, 118
1, 133770, Note_on_c, 0, 44, 121
1, 133842, Note_off_c, 0, 44, 121
1, 133844, Note_on_c, 0, 46, 107
1, 133928, Note_off_c, 0, 46, 107
1, 133941, Note_on_c, 0, 47, 107
1, 134022, Note_off_c, 0, 47, 107
1, 134034, Note_on_c, 0, 48, 96
1, 134084, Note_off_c, 0, 48, 96
1, 134099, Note_on_c, 0, 49, 108
1, 134172, Note_off_c, 0, 49, 108
1, 134182, Note_on_c, 0, 47, 98
1, 134282, Note_off_c, 0, 47, 98
1, 134301, Note_on_c, 0, 48, 104
1, 134393, Note_off_c, 0, 48, 104
1, 134402, Note_on_c, 0, 51, 105
1, 134481, Note_off_c, 0, 51, 105
1, 134482, Note_on_c, 0, 53, 112
1, 134595, Note_off_c, 0, 53, 112
1, 134617, Note_on_c, 0, 56, 111
1, 134674, Note_off_c, 0, 56, 111
1, 134686, Note_on_c, 0, 57, 111
1, 134740, Note_off_c, 0, 57, 111
1, 134749, Note_on_c, 0, 58, 117
1, 134807, Note_off_c, 0, 58, 117
1, 134824, Note_on_c, 0, 59, 115
1, 134873, Note_off_c, 0, 59, 115
1, 134892, Note_on_c, 0, 60, 109
1, 134948, Note_off_c, 0, 60, 109
1, 134963, Note_on_c, 0, 62, 110
1, 135013, Note_off_c, 0, 62, 110
1, 135020, Note_on_c, 0, 64, 104
1, 135090, Note_off_c, 0, 64, 104
1, 135218, Note_on_c, 0, 65, 115
1, 135349, Note_off_c, 0, 65, 115
1, 135999, Note_on_c, 0, 64, 116
1, 136097, Note_off_c, 0, 64, 116
1, 136117, Note_on_c, 0, 65, 111
1, 136173, Note_off_c, 0, 65, 111
1, 136185, Note_on_c, 0, 67, 113
1, 136278, Note_off_c, 0, 67, 113
1, 136389, Note_on_c, 0, 60, 108
1, 136480, Note_off_c, 0, 60, 108
1, 136578, Note_on_c, 0, 60, 112
1, 136690, Note_off_c, 0, 60, 112
1, 136769, Note_on_c, 0, 60, 113
1, 136934, Note_off_c, 0, 60, 113
1, 136946, Note_on_c, 0, 58, 112
1, 137044, Note_off_c, 0, 58, 112
1, 137050, Note_on_c, 0, 56, 108
1, 137123, Note_off_c, 0, 56, 108
1, 137220, Note_on_c, 0, 53, 108
1, 137484, Note_off_c, 0, 53, 108
1, 138068, Note_on_c, 0, 53, 109
1, 138126, Note_off_c, 0, 53, 109
1, 138144, Note_on_c, 0, 56, 106
1, 138181, Note_off_c, 0, 56, 106
1, 138204, Note_on_c, 0, 60, 106
1, 138258, Note_off_c, 0, 60, 106
1, 138285, Note_on_c, 0, 65, 114
1, 138358, Note_off_c, 0, 65, 114
1, 138456, Note_on_c, 0, 60, 106
1, 138550, Note_off_c, 0, 60, 106
1, 138564, Note_on_c, 0, 64, 111
1, 138650, Note_off_c, 0, 64, 111
1, 138736, Note_on_c, 0, 60, 108
1, 138815, Note_off_c, 0, 60, 108
1, 138825, Note_on_c, 0, 56, 107
1, 138912, Note_off_c, 0, 56, 107
1, 138926, Note_on_c, 0, 53, 95
1, 139017, Note_off_c, 0, 53, 95
1, 139064, Note_on_c, 0, 63, 113
1, 139132, Note_off_c, 0, 63, 113
1, 139200, Note_on_c, 0, 60, 112
1, 139310, Note_off_c, 0, 60, 112
1, 139326, Note_on_c, 0, 62, 113
1, 139404, Note_off_c, 0, 62, 113
1, 139498, Note_on_c, 0, 60, 111
1, 139556, Note_off_c, 0, 60, 111
1, 139565, Note_on_c, 0, 57, 109
1, 139649, Note_off_c, 0, 57, 109
1, 139682, Note_on_c, 0, 53, 104
1, 139769, Note_off_c, 0, 53, 104
1, 139788, Note_on_c, 0, 61, 105
1, 139891, Note_off_c, 0, 61, 105
1, 139943, Note_on_c, 0, 57, 107
1, 140042, Note_off_c, 0, 57, 107
1, 140065, Note_on_c, 0, 54, 105
1, 140158, Note_off_c, 0, 54, 105
1, 140349, Note_on_c, 0, 60, 106
1, 140449, Note_off_c, 0, 60, 106
1, 140471, Note_on_c, 0, 56, 106
1, 140537, Note_off_c, 0, 56, 106
1, 140570, Note_on_c, 0, 53, 104
1, 140657, Note_off_c, 0, 53, 104
1, 140725, Note_on_c, 0, 59, 113
1, 140821, Note_off_c, 0, 59, 113
1, 140828, Note_on_c, 0, 55, 101
1, 140894, Note_off_c, 0, 55, 101
1, 140909, Note_on_c, 0, 51, 105
1, 141002, Note_off_c, 0, 51, 105
1, 141025, Note_on_c, 0, 49, 109
1, 141097, Note_off_c, 0, 49, 109
1, 141131, Note_on_c, 0, 46, 103
1, 141213, Note_off_c, 0, 46, 103
1, 141229, Note_on_c, 0, 47, 100
1, 141308, Note_off_c, 0, 47, 100
1, 141320, Note_on_c, 0, 48, 107
1, 141458, Note_off_c, 0, 48, 107
1, 141490, Note_on_c, 0, 51, 109
1, 141562, Note_off_c, 0, 51, 109
1, 141684, Note_on_c, 0, 53, 116
1, 141778, Note_off_c, 0, 53, 116
1, 141862, Note_on_c, 0, 56, 112
1, 141948, Note_off_c, 0, 56, 112
1, 142041, Note_on_c, 0, 59, 110
1, 142144, Note_off_c, 0, 59, 110
1, 142161, Note_on_c, 0, 60, 113
1, 142212, Note_off_c, 0, 60, 113
1, 142225, Note_on_c, 0, 61, 107
1, 142317, Note_off_c, 0, 61, 107
1, 142335, Note_on_c, 0, 62, 106
1, 142416, Note_off_c, 0, 62, 106
1, 142424, Note_on_c, 0, 63, 110
1, 142513, Note_off_c, 0, 63, 110
1, 142526, Note_on_c, 0, 60, 106
1, 142580, Note_off_c, 0, 60, 106
1, 142592, Note_on_c, 0, 57, 100
1, 142651, Note_off_c, 0, 57, 100
1, 142670, Note_on_c, 0, 54, 96
1, 142754, Note_off_c, 0, 54, 96
1, 142776, Note_on_c, 0, 52, 109
1, 142824, Note_off_c, 0, 52, 109
1, 142831, Note_on_c, 0, 53, 105
1, 143136, Note_off_c, 0, 53, 105
1, 143211, Note_on_c, 0, 63, 110
1, 143272, Note_off_c, 0, 63, 110
1, 143370, Note_on_c, 0, 61, 109
1, 143478, Note_off_c, 0, 61, 109
1, 143499, Note_on_c, 0, 63, 114
1, 143569, Note_off_c, 0, 63, 114
1, 143658, Note_on_c, 0, 61, 96
1, 143953, Note_off_c, 0, 61, 96
1, 144334, Note_on_c, 0, 59, 115
1, 144418, Note_off_c, 0, 59, 115
1, 144433, Note_on_c, 0, 61, 102
1, 144503, Note_off_c, 0, 61, 102
1, 144513, Note_on_c, 0, 63, 110
1, 144534, Note_off_c, 0, 63, 110
1, 144551, Note_on_c, 0, 65, 115
1, 144630, Note_off_c, 0, 65, 115
1, 144640, Note_on_c, 0, 64, 122
1, 144697, Note_off_c, 0, 64, 122
1, 144704, Note_on_c, 0, 63, 108
1, 144777, Note_off_c, 0, 63, 108
1, 145283, Note_on_c, 0, 59, 110
1, 145352, Note_off_c, 0, 59, 110
1, 145368, Note_on_c, 0, 60, 102
1, 145431, Note_off_c, 0, 60, 102
1, 145457, Note_on_c, 0, 65, 113
1, 145564, Note_off_c, 0, 65, 113
1, 145582, Note_on_c, 0, 64, 119
1, 145669, Note_off_c, 0, 64, 119
1, 145686, Note_on_c, 0, 63, 114
1, 145734, Note_off_c, 0, 63, 114
1, 145828, Note_on_c, 0, 59, 112
1, 145912, Note_off_c, 0, 59, 112
1, 145940, Note_on_c, 0, 60, 97
1, 146022, Note_off_c, 0, 60, 97
1, 146042, Note_on_c, 0, 59, 114
1, 146117, Note_off_c, 0, 59, 114
1, 146134, Note_on_c, 0, 60, 97
1, 146209, Note_off_c, 0, 60, 97
1, 146221, Note_on_c, 0, 65, 110
1, 146308, Note_off_c, 0, 65, 110
1, 146317, Note_on_c, 0, 64, 111
1, 146406, Note_off_c, 0, 64, 111
1, 146419, Note_on_c, 0, 63, 113
1, 146493, Note_off_c, 0, 63, 113
1, 146520, Note_on_c, 0, 60, 111
1, 146577, Note_off_c, 0, 60, 111
1, 146603, Note_on_c, 0, 56, 114
1, 146687, Note_off_c, 0, 56, 114
1, 146701, Note_on_c, 0, 53, 100
1, 146767, Note_off_c, 0, 53, 100
1, 146798, Note_on_c, 0, 61, 108
1, 146904, Note_off_c, 0, 61, 108
1, 146921, Note_on_c, 0, 60, 105
1, 146978, Note_off_c, 0, 60, 105
1, 146984, Note_on_c, 0, 58, 111
1, 147096, Note_off_c, 0, 58, 111
1, 147110, Note_on_c, 0, 56, 108
1, 147196, Note_off_c, 0, 56, 108
1, 147204, Note_on_c, 0, 55, 106
1, 147275, Note_off_c, 0, 55, 106
1, 147286, Note_on_c, 0, 53, 107
1, 147363, Note_off_c, 0, 53, 107
1, 147381, Note_on_c, 0, 51, 99
1, 147588, Note_off_c, 0, 51, 99
1, 147588, End_track
0, 0, End_of_file
