0, 0, Header, 1, 1, 192
1, 0, Start_track
1, 0, Title_t, "Melody"
1, 0, Tempo, 521739
1, 0, Key_signature, 0, "major"
1, 0, Time_signature, 4, 2, 24, 8
1, 2443, Note_on_c, 0, 55, 98
1, 2476, Note_off_c, 0, 55, 98
1, 2495, Note_on_c, 0, 57, 103
1, 2538, Note_off_c, 0, 57, 103
1, 2572, Note_on_c, 0, 48, 93
1, 2653, Note_off_c, 0, 48, 93
1, 2660, Note_on_c, 0, 43, 107
1, 2716, Note_off_c, 0, 43, 107
1, 2729, Note_on_c, 0, 45, 95
1, 2853, Note_off_c, 0, 45, 95
1, 2903, Note_on_c, 0, 50, 96
1, 3008, Note_off_c, 0, 50, 96
1, 3054, Note_on_c, 0, 42, 102
1, 3100, Note_off_c, 0, 42, 102
1, 3106, Note_on_c, 0, 45, 89
1, 3236, Note_off_c, 0, 45, 89
1, 3289, Note_on_c, 0, 51, 94
1, 3397, Note_off_c, 0, 51, 94
1, 3417, Note_on_c, 0, 43, 111
1, 3484, Note_off_c, 0, 43, 111
1, 3496, Note_on_c, 0, 45, 96
1, 3615, Note_off_c, 0, 45, 96
1, 3691, Note_on_c, 0, 52, 96
1, 3777, Note_off_c, 0, 52, 96
1, 3814, Note_on_c, 0, 43, 88
1, 3854, Note_off_c, 0, 43, 88
1, 3872, Note_on_c, 0, 45, 91
1, 4018, Note_off_c, 0, 45, 91
1, 4079, Note_on_c, 0, 53, 92
1, 4186, Note_off_c, 0, 53, 92
1, 4219, Note_on_c, 0, 54, 87
1, 4334, Note_off_c, 0, 54, 87
1, 4391, Note_on_c, 0, 55, 90
1, 4530, Note_off_c, 0, 55, 90
1, 4568, Note_on_c, 0, 43, 115
1, 4621, Note_off_c, 0, 43, 115
1, 4629, Note_on_c, 0, 45, 100
1, 4693, Note_off_c, 0, 45, 100
1, 4693, Note_on_c, 0, 48, 100
1, 4729, Note_off_c, 0, 48, 100
1, 4735, Note_on_c, 0, 50, 105
1, 4820, Note_off_c, 0, 50, 105
1, 4830, Note_on_c, 0, 48, 96
1, 4940, Note_off_c, 0, 48, 96
1, 4958, Note_on_c, 0, 48, 91
1, 5125, Note_off_c, 0, 48, 91
1, 5323, Note_on_c, 0, 57, 119
1, 5376, Note_off_c, 0, 57, 119
1, 5386, Note_on_c, 0, 55, 108
1, 5439, Note_off_c, 0, 55, 108
1, 5442, Note_on_c, 0, 52, 108
1, 5497, Note_off_c, 0, 52, 108
1, 5513, Note_on_c, 0, 45, 105
1, 5577, Note_off_c, 0, 45, 105
1, 5583, Note_on_c, 0, 48, 92
1, 5688, Note_off_c, 0, 48, 92
1, 5699, Note_on_c, 0, 48, 97
1, 5783, Note_off_c, 0, 48, 97
1, 6088, Note_on_c, 0, 55, 114
1, 6139, Note_off_c, 0, 55, 114
1, 6155, Note_on_c, 0, 53, 106
1, 6203, Note_off_c, 0, 53, 106
1, 6209, Note_on_c, 0, 51, 99
1, 6255, Note_off_c, 0, 51, 99
1, 6266, Note_on_c, 0, 48, 105
1, 6335, Note_off_c, 0, 48, 105
1, 6346, Note_on_c, 0, 45, 97
1, 6453, Note_off_c, 0, 45, 97
1, 6478, Note_on_c, 0, 43, 92
1, 6647, Note_off_c, 0, 43, 92
1, 6691, Note_on_c, 0, 43, 85
1, 6721, Note_off_c, 0, 43, 85
1, 6724, Note_on_c, 0, 46, 99
1, 6829, Note_off_c, 0, 46, 99
1, 6847, Note_on_c, 0, 43, 94
1, 7042, Note_off_c, 0, 43, 94
1, 7398, Note_on_c, 0, 43, 115
1, 7465, Note_off_c, 0, 43, 115
1, 7489, Note_on_c, 0, 48, 105
1, 7515, Note_off_c, 0, 48, 105
1, 7516, Note_on_c, 0, 46, 95
1, 7555, Note_off_c, 0, 46, 95
1, 7585, Note_on_c, 0, 43, 95
1, 7664, Note_off_c, 0, 43, 95
1, 7674, Note_on_c, 0, 47, 102
1, 7761, Note_off_c, 0, 47, 102
1, 7782, Note_on_c, 0, 43, 97
1, 7825, Note_off_c, 0, 43, 97
1, 7845, Note_on_c, 0, 48, 93
1, 7965, Note_off_c, 0, 48, 93
1, 8167, Note_on_c, 0, 57, 117
1, 8257, Note_off_c, 0, 57, 117
1, 8267, Note_on_c, 0, 55, 90
1, 8393, Note_off_c, 0, 55, 90
1, 8546, Note_on_c, 0, 52, 111
1, 8618, Note_off_c, 0, 52, 111
1, 8646, Note_on_c, 0, 50, 100
1, 8744, Note_off_c, 0, 50, 100
1, 8756, Note_on_c, 0, 50, 97
1, 8792, Note_off_c, 0, 50, 97
1, 8827, Note_on_c, 0, 45, 104
1, 8923, Note_off_c, 0, 45, 104
1, 8943, Note_on_c, 0, 43, 93
1, 9098, Note_off_c, 0, 43, 93
1, 9122, Note_on_c, 0, 45, 94
1, 9178, Note_off_c, 0, 45, 94
1, 9188, Note_on_c, 0, 55, 84
1, 9305, Note_off_c, 0, 55, 84
1, 9319, Note_on_c, 0, 53, 114
1, 9385, Note_off_c, 0, 53, 114
1, 9395, Note_on_c, 0, 52, 98
1, 9475, Note_off_c, 0, 52, 98
1, 9515, Note_on_c, 0, 50, 110
1, 9574, Note_off_c, 0, 50, 110
1, 9580, Note_on_c, 0, 48, 94
1, 9715, Note_off_c, 0, 48, 94
1, 10349, Note_on_c, 0, 50, 107
1, 10441, Note_off_c, 0, 50, 107
1, 10458, Note_on_c, 0, 49, 108
1, 10517, Note_off_c, 0, 49, 108
1, 10530, Note_on_c, 0, 50, 107
1, 10615, Note_off_c, 0, 50, 107
1, 10645, Note_on_c, 0, 52, 109
1, 10715, Note_off_c, 0, 52, 109
1, 10722, Note_on_c, 0, 53, 106
1, 10812, Note_off_c, 0, 53, 106
1, 10840, Note_on_c, 0, 57, 117
1, 10905, Note_off_c, 0, 57, 117
1, 10924, Note_on_c, 0, 55, 103
1, 11041, Note_off_c, 0, 55, 103
1, 11047, Note_on_c, 0, 52, 99
1, 11107, Note_off_c, 0, 52, 99
1, 11126, Note_on_c, 0, 48, 86
1, 11244, Note_off_c, 0, 48, 86
1, 11424, Note_on_c, 0, 57, 118
1, 11481, Note_off_c, 0, 57, 118
1, 11497, Note_on_c, 0, 55, 112
1, 11548, Note_off_c, 0, 55, 112
1, 11556, Note_on_c, 0, 52, 103
1, 11604, Note_off_c, 0, 52, 103
1, 11620, Note_on_c, 0, 48, 92
1, 11799, Note_off_c, 0, 48, 92
1, 11809, Note_on_c, 0, 50, 105
1, 11846, Note_off_c, 0, 50, 105
1, 11860, Note_on_c, 0, 48, 89
1, 11992, Note_off_c, 0, 48, 89
1, 12015, Note_on_c, 0, 48, 110
1, 12076, Note_off_c, 0, 48, 110
1, 12090, Note_on_c, 0, 52, 99
1, 12157, Note_off_c, 0, 52, 99
1, 12165, Note_on_c, 0, 51, 97
1, 12192, Note_off_c, 0, 51, 97
1, 12214, Note_on_c, 0, 48, 96
1, 12257, Note_off_c, 0, 48, 96
1, 12267, Note_on_c, 0, 50, 97
1, 12353, Note_off_c, 0, 50, 97
1, 12387, Note_on_c, 0, 48, 90
1, 12556, Note_off_c, 0, 48, 90
1, 12578, Note_on_c, 0, 48, 97
1, 12651, Note_off_c, 0, 48, 97
1, 12660, Note_on_c, 0, 50, 94
1, 12735, Note_off_c, 0, 50, 94
1, 12757, Note_on_c, 0, 48, 85
1, 12800, Note_off_c, 0, 48, 85
1, 12819, Note_on_c, 0, 50, 92
1, 12840, Note_off_c, 0, 50, 92
1, 12842, Note_on_c, 0, 52, 92
1, 12942, Note_off_c, 0, 52, 92
1, 12953, Note_on_c, 0, 55, 87
1, 13075, Note_off_c, 0, 55, 87
1, 14159, Note_on_c, 0, 60, 127
1, 14264, Note_off_c, 0, 60, 127
1, 14270, Note_on_c, 0, 60, 119
1, 14292, Note_off_c, 0, 60, 119
1, 14298, Note_on_c, 0, 59, 117
1, 14324, Note_off_c, 0, 59, 117
1, 14327, Note_on_c, 0, 58, 115
1, 14358, Note_off_c, 0, 58, 115
1, 14362, Note_on_c, 0, 57, 113
1, 14473, Note_off_c, 0, 57, 113
1, 14491, Note_on_c, 0, 53, 109
1, 14545, Note_off_c, 0, 53, 109
1, 14567, Note_on_c, 0, 50, 84
1, 14650, Note_off_c, 0, 50, 84
1, 14678, Note_on_c, 0, 48, 86
1, 14717, Note_off_c, 0, 48, 86
1, 14738, Note_on_c, 0, 62, 117
1, 14818, Note_off_c, 0, 62, 117
1, 14822, Note_on_c, 0, 61, 119
1, 14865, Note_off_c, 0, 61, 119
1, 14867, Note_on_c, 0, 60, 109
1, 14896, Note_off_c, 0, 60, 109
1, 14900, Note_on_c, 0, 59, 105
1, 14940, Note_off_c, 0, 59, 105
1, 14943, Note_on_c, 0, 58, 98
1, 15022, Note_off_c, 0, 58, 98
1, 15049, Note_on_c, 0, 55, 100
1, 15104, Note_off_c, 0, 55, 100
1, 15127, Note_on_c, 0, 52, 91
1, 15226, Note_off_c, 0, 52, 91
1, 15305, Note_on_c, 0, 64, 115
1, 15397, Note_off_c, 0, 64, 115
1, 15423, Note_on_c, 0, 62, 110
1, 15483, Note_off_c, 0, 62, 110
1, 15505, Note_on_c, 0, 60, 91
1, 15601, Note_off_c, 0, 60, 91
1, 15621, Note_on_c, 0, 57, 110
1, 15666, Note_off_c, 0, 57, 110
1, 15696, Note_on_c, 0, 53, 89
1, 15793, Note_off_c, 0, 53, 89
1, 15817, Note_on_c, 0, 50, 84
1, 15874, Note_off_c, 0, 50, 84
1, 16066, Note_on_c, 0, 54, 101
1, 16108, Note_off_c, 0, 54, 101
1, 16117, Note_on_c, 0, 57, 103
1, 16143, Note_off_c, 0, 57, 103
1, 16169, Note_on_c, 0, 60, 108
1, 16213, Note_off_c, 0, 60, 108
1, 16215, Note_on_c, 0, 63, 113
1, 16270, Note_off_c, 0, 63, 113
1, 16279, Note_on_c, 0, 62, 106
1, 16348, Note_off_c, 0, 62, 106
1, 16372, Note_on_c, 0, 60, 108
1, 16441, Note_off_c, 0, 60, 108
1, 16449, Note_on_c, 0, 59, 105
1, 16481, Note_off_c, 0, 59, 105
1, 16490, Note_on_c, 0, 60, 100
1, 16518, Note_off_c, 0, 60, 100
1, 16525, Note_on_c, 0, 59, 92
1, 16546, Note_off_c, 0, 59, 92
1, 16557, Note_on_c, 0, 57, 93
1, 16605, Note_off_c, 0, 57, 93
1, 16632, Note_on_c, 0, 58, 94
1, 16711, Note_off_c, 0, 58, 94
1, 16739, Note_on_c, 0, 55, 102
1, 16787, Note_off_c, 0, 55, 102
1, 16797, Note_on_c, 0, 52, 87
1, 16893, Note_off_c, 0, 52, 87
1, 16921, Note_on_c, 0, 48, 89
1, 16970, Note_off_c, 0, 48, 89
1, 16992, Note_on_c, 0, 50, 91
1, 17085, Note_off_c, 0, 50, 91
1, 17117, Note_on_c, 0, 57, 88
1, 17297, Note_off_c, 0, 57, 88
1, 17565, Note_on_c, 0, 56, 108
1, 17613, Note_off_c, 0, 56, 108
1, 17619, Note_on_c, 0, 53, 98
1, 17651, Note_off_c, 0, 53, 98
1, 17658, Note_on_c, 0, 55, 109
1, 17702, Note_off_c, 0, 55, 109
1, 17714, Note_on_c, 0, 53, 94
1, 17748, Note_off_c, 0, 53, 94
1, 17774, Note_on_c, 0, 62, 110
1, 17815, Note_off_c, 0, 62, 110
1, 17827, Note_on_c, 0, 56, 96
1, 17894, Note_off_c, 0, 56, 96
1, 18154, Note_on_c, 0, 50, 98
1, 18259, Note_off_c, 0, 50, 98
1, 18338, Note_on_c, 0, 53, 89
1, 18441, Note_off_c, 0, 53, 89
1, 18468, Note_on_c, 0, 55, 105
1, 18525, Note_off_c, 0, 55, 105
1, 18534, Note_on_c, 0, 56, 101
1, 18582, Note_off_c, 0, 56, 101
1, 18599, Note_on_c, 0, 55, 96
1, 18640, Note_off_c, 0, 55, 96
1, 18648, Note_on_c, 0, 53, 106
1, 18704, Note_off_c, 0, 53, 106
1, 18731, Note_on_c, 0, 60, 111
1, 18796, Note_off_c, 0, 60, 111
1, 18849, Note_on_c, 0, 57, 112
1, 18905, Note_off_c, 0, 57, 112
1, 18928, Note_on_c, 0, 53, 98
1, 19011, Note_off_c, 0, 53, 98
1, 19039, Note_on_c, 0, 50, 93
1, 19096, Note_off_c, 0, 50, 93
1, 19693, Note_on_c, 0, 50, 107
1, 19727, Note_off_c, 0, 50, 107
1, 19735, Note_on_c, 0, 50, 104
1, 19781, Note_off_c, 0, 50, 104
1, 19783, Note_on_c, 0, 48, 97
1, 19819, Note_off_c, 0, 48, 97
1, 19823, Note_on_c, 0, 48, 95
1, 19856, Note_off_c, 0, 48, 95
1, 19872, Note_on_c, 0, 50, 103
1, 19904, Note_off_c, 0, 50, 103
1, 19915, Note_on_c, 0, 50, 99
1, 19949, Note_off_c, 0, 50, 99
1, 19953, Note_on_c, 0, 48, 99
1, 20010, Note_off_c, 0, 48, 99
1, 20062, Note_on_c, 0, 50, 85
1, 20212, Note_off_c, 0, 50, 85
1, 20428, Note_on_c, 0, 50, 109
1, 20464, Note_off_c, 0, 50, 109
1, 20477, Note_on_c, 0, 50, 106
1, 20509, Note_off_c, 0, 50, 106
1, 20518, Note_on_c, 0, 48, 100
1, 20561, Note_off_c, 0, 48, 100
1, 20571, Note_on_c, 0, 48, 99
1, 20608, Note_off_c, 0, 48, 99
1, 20616, Note_on_c, 0, 50, 105
1, 20656, Note_off_c, 0, 50, 105
1, 20660, Note_on_c, 0, 50, 103
1, 20700, Note_off_c, 0, 50, 103
1, 20704, Note_on_c, 0, 48, 99
1, 20742, Note_off_c, 0, 48, 99
1, 20808, Note_on_c, 0, 51, 108
1, 20843, Note_off_c, 0, 51, 108
1, 20849, Note_on_c, 0, 52, 109
1, 20871, Note_off_c, 0, 52, 109
1, 20876, Note_on_c, 0, 51, 105
1, 20905, Note_off_c, 0, 51, 105
1, 20915, Note_on_c, 0, 48, 96
1, 20965, Note_off_c, 0, 48, 96
1, 21001, Note_on_c, 0, 50, 88
1, 21132, Note_off_c, 0, 50, 88
1, 21390, Note_on_c, 0, 50, 106
1, 21411, Note_off_c, 0, 50, 106
1, 21423, Note_on_c, 0, 50, 101
1, 21447, Note_off_c, 0, 50, 101
1, 21466, Note_on_c, 0, 48, 100
1, 21520, Note_off_c, 0, 48, 100
1, 21570, Note_on_c, 0, 57, 116
1, 21663, Note_off_c, 0, 57, 116
1, 21753, Note_on_c, 0, 57, 9
1, 21941, Note_off_c, 0, 57, 9
1, 21952, Note_on_c, 0, 55, 106
1, 22049, Note_off_c, 0, 55, 106
1, 22066, Note_on_c, 0, 52, 109
1, 22129, Note_off_c, 0, 52, 109
1, 22138, Note_on_c, 0, 48, 97
1, 22227, Note_off_c, 0, 48, 97
1, 22244, Note_on_c, 0, 45, 103
1, 22305, Note_off_c, 0, 45, 103
1, 22339, Note_on_c, 0, 50, 108
1, 22376, Note_off_c, 0, 50, 108
1, 22386, Note_on_c, 0, 50, 105
1, 22416, Note_off_c, 0, 50, 105
1, 22425, Note_on_c, 0, 48, 99
1, 22455, Note_off_c, 0, 48, 99
1, 22460, Note_on_c, 0, 48, 100
1, 22493, Note_off_c, 0, 48, 100
1, 22517, Note_on_c, 0, 50, 116
1, 22550, Note_off_c, 0, 50, 116
1, 22562, Note_on_c, 0, 50, 114
1, 22595, Note_off_c, 0, 50, 114
1, 22604, Note_on_c, 0, 48, 111
1, 22639, Note_off_c, 0, 48, 111
1, 22653, Note_on_c, 0, 48, 104
1, 22684, Note_off_c, 0, 48, 104
1, 22689, Note_on_c, 0, 51, 112
1, 22728, Note_off_c, 0, 51, 112
1, 22743, Note_on_c, 0, 51, 110
1, 22772, Note_off_c, 0, 51, 110
1, 22782, Note_on_c, 0, 48, 106
1, 22823, Note_off_c, 0, 48, 106
1, 22832, Note_on_c, 0, 48, 100
1, 22859, Note_off_c, 0, 48, 100
1, 22875, Note_on_c, 0, 57, 113
1, 22919, Note_off_c, 0, 57, 113
1, 22931, Note_on_c, 0, 55, 107
1, 22970, Note_off_c, 0, 55, 107
1, 22978, Note_on_c, 0, 51, 102
1, 23011, Note_off_c, 0, 51, 102
1, 23026, Note_on_c, 0, 48, 96
1, 23053, Note_off_c, 0, 48, 96
1, 23370, Note_on_c, 0, 46, 117
1, 23398, Note_off_c, 0, 46, 117
1, 23404, Note_on_c, 0, 48, 105
1, 23452, Note_off_c, 0, 48, 105
1, 23465, Note_on_c, 0, 52, 104
1, 23505, Note_off_c, 0, 52, 104
1, 23509, Note_on_c, 0, 55, 110
1, 23560, Note_off_c, 0, 55, 110
1, 23566, Note_on_c, 0, 57, 104
1, 23614, Note_off_c, 0, 57, 104
1, 23618, Note_on_c, 0, 58, 103
1, 23637, Note_off_c, 0, 58, 103
1, 23641, Note_on_c, 0, 62, 113
1, 23690, Note_off_c, 0, 62, 113
1, 23702, Note_on_c, 0, 58, 106
1, 23742, Note_off_c, 0, 58, 106
1, 23746, Note_on_c, 0, 55, 92
1, 23774, Note_off_c, 0, 55, 92
1, 23823, Note_on_c, 0, 60, 114
1, 23869, Note_off_c, 0, 60, 114
1, 23879, Note_on_c, 0, 57, 115
1, 23912, Note_off_c, 0, 57, 115
1, 23925, Note_on_c, 0, 53, 96
1, 23958, Note_off_c, 0, 53, 96
1, 23972, Note_on_c, 0, 50, 97
1, 24006, Note_off_c, 0, 50, 97
1, 24321, Note_on_c, 0, 48, 106
1, 24363, Note_off_c, 0, 48, 106
1, 24366, Note_on_c, 0, 50, 108
1, 24408, Note_off_c, 0, 50, 108
1, 24415, Note_on_c, 0, 51, 110
1, 24445, Note_off_c, 0, 51, 110
1, 24454, Note_on_c, 0, 53, 112
1, 24488, Note_off_c, 0, 53, 112
1, 24499, Note_on_c, 0, 50, 103
1, 24528, Note_off_c, 0, 50, 103
1, 24535, Note_on_c, 0, 51, 98
1, 24569, Note_off_c, 0, 51, 98
1, 24581, Note_on_c, 0, 48, 101
1, 24650, Note_off_c, 0, 48, 101
1, 24784, Note_on_c, 0, 47, 114
1, 24833, Note_off_c, 0, 47, 114
1, 24837, Note_on_c, 0, 48, 103
1, 24859, Note_off_c, 0, 48, 103
1, 24870, Note_on_c, 0, 50, 115
1, 24905, Note_off_c, 0, 50, 115
1, 24923, Note_on_c, 0, 47, 113
1, 24959, Note_off_c, 0, 47, 113
1, 24966, Note_on_c, 0, 48, 108
1, 24998, Note_off_c, 0, 48, 108
1, 25004, Note_on_c, 0, 50, 115
1, 25042, Note_off_c, 0, 50, 115
1, 25053, Note_on_c, 0, 51, 109
1, 25082, Note_off_c, 0, 51, 109
1, 25094, Note_on_c, 0, 52, 103
1, 25131, Note_off_c, 0, 52, 103
1, 25135, Note_on_c, 0, 53, 110
1, 25186, Note_off_c, 0, 53, 110
1, 25202, Note_on_c, 0, 51, 110
1, 25227, Note_off_c, 0, 51, 110
1, 25231, Note_on_c, 0, 52, 110
1, 25274, Note_off_c, 0, 52, 110
1, 25289, Note_on_c, 0, 55, 96
1, 25310, Note_off_c, 0, 55, 96
1, 25316, Note_on_c, 0, 57, 110
1, 25354, Note_off_c, 0, 57, 110
1, 25358, Note_on_c, 0, 55, 109
1, 25391, Note_off_c, 0, 55, 109
1, 25414, Note_on_c, 0, 60, 116
1, 25472, Note_off_c, 0, 60, 116
1, 25478, Note_on_c, 0, 62, 120
1, 25531, Note_off_c, 0, 62, 120
1, 25536, Note_on_c, 0, 64, 117
1, 25561, Note_off_c, 0, 64, 117
1, 25568, Note_on_c, 0, 63, 119
1, 25592, Note_off_c, 0, 63, 119
1, 25604, Note_on_c, 0, 60, 110
1, 25637, Note_off_c, 0, 60, 110
1, 25644, Note_on_c, 0, 58, 114
1, 25693, Note_off_c, 0, 58, 114
1, 25695, Note_on_c, 0, 55, 110
1, 25738, Note_off_c, 0, 55, 110
1, 25763, Note_on_c, 0, 53, 105
1, 25790, Note_off_c, 0, 53, 105
1, 25801, Note_on_c, 0, 51, 103
1, 25843, Note_off_c, 0, 51, 103
1, 25848, Note_on_c, 0, 52, 101
1, 25893, Note_off_c, 0, 52, 101
1, 25916, Note_on_c, 0, 55, 103
1, 25958, Note_off_c, 0, 55, 103
1, 25961, Note_on_c, 0, 57, 108
1, 26007, Note_off_c, 0, 57, 108
1, 26011, Note_on_c, 0, 60, 103
1, 26068, Note_off_c, 0, 60, 103
1, 26093, Note_on_c, 0, 48, 79
1, 26198, Note_off_c, 0, 48, 79
1, 26198, End_track
0, 0, End_of_file
