0, 0, Header, 1, 1, 192
1, 0, Start_track
1, 0, Title_t, "Melody"
1, 0, Tempo, 253164
1, 0, Key_signature, 1, "major"
1, 0, Time_signature, 4, 2, 24, 8
1, 4929, Note_on_c, 0, 50, 108
1, 4997, Note_off_c, 0, 50, 108
1, 5113, Note_on_c, 0, 52, 107
1, 5185, Note_off_c, 0, 52, 107
1, 5310, Note_on_c, 0, 55, 109
1, 5389, Note_off_c, 0, 55, 109
1, 5702, Note_on_c, 0, 55, 104
1, 5813, Note_off_c, 0, 55, 104
1, 5850, Note_on_c, 0, 55, 106
1, 5913, Note_off_c, 0, 55, 106
1, 5990, Note_on_c, 0, 58, 112
1, 6078, Note_off_c, 0, 58, 112
1, 6190, Note_on_c, 0, 55, 100
1, 6429, Note_off_c, 0, 55, 100
1, 6446, Note_on_c, 0, 50, 103
1, 6520, Note_off_c, 0, 50, 103
1, 6638, Note_on_c, 0, 52, 108
1, 6726, Note_off_c, 0, 52, 108
1, 6836, Note_on_c, 0, 55, 104
1, 6904, Note_off_c, 0, 55, 104
1, 7229, Note_on_c, 0, 55, 106
1, 7330, Note_off_c, 0, 55, 106
1, 7418, Note_on_c, 0, 55, 110
1, 7509, Note_off_c, 0, 55, 110
1, 7543, Note_on_c, 0, 61, 112
1, 7636, Note_off_c, 0, 61, 112
1, 7729, Note_on_c, 0, 60, 114
1, 7847, Note_off_c, 0, 60, 114
1, 7906, Note_on_c, 0, 60, 115
1, 7994, Note_off_c, 0, 60, 115
1, 8007, Note_on_c, 0, 58, 107
1, 8101, Note_off_c, 0, 58, 107
1, 8110, Note_on_c, 0, 55, 102
1, 8183, Note_off_c, 0, 55, 102
1, 8183, Note_on_c, 0, 51, 97
1, 8271, Note_off_c, 0, 51, 97
1, 8282, Note_on_c, 0, 48, 99
1, 8378, Note_off_c, 0, 48, 99
1, 8389, Note_on_c, 0, 49, 100
1, 8473, Note_off_c, 0, 49, 100
1, 8487, Note_on_c, 0, 50, 98
1, 8577, Note_off_c, 0, 50, 98
1, 8588, Note_on_c, 0, 53, 93
1, 8700, Note_off_c, 0, 53, 93
1, 8764, Note_on_c, 0, 53, 107
1, 8864, Note_off_c, 0, 53, 107
1, 8872, Note_on_c, 0, 50, 100
1, 8921, Note_off_c, 0, 50, 100
1, 8934, Note_on_c, 0, 44, 97
1, 9015, Note_off_c, 0, 44, 97
1, 9037, Note_on_c, 0, 43, 90
1, 9099, Note_off_c, 0, 43, 90
1, 9117, Note_on_c, 0, 45, 106
1, 9218, Note_off_c, 0, 45, 106
1, 9235, Note_on_c, 0, 48, 103
1, 9352, Note_off_c, 0, 48, 103
1, 9360, Note_on_c, 0, 52, 96
1, 9420, Note_off_c, 0, 52, 96
1, 9443, Note_on_c, 0, 55, 110
1, 9499, Note_off_c, 0, 55, 110
1, 9513, Note_on_c, 0, 54, 109
1, 9607, Note_off_c, 0, 54, 109
1, 9609, Note_on_c, 0, 55, 103
1, 9670, Note_off_c, 0, 55, 103
1, 9685, Note_on_c, 0, 57, 115
1, 9799, Note_off_c, 0, 57, 115
1, 9811, Note_on_c, 0, 54, 122
1, 9888, Note_off_c, 0, 54, 122
1, 9911, Note_on_c, 0, 55, 110
1, 9999, Note_off_c, 0, 55, 110
1, 10022, Note_on_c, 0, 57, 104
1, 10084, Note_off_c, 0, 57, 104
1, 10103, Note_on_c, 0, 59, 115
1, 10200, Note_off_c, 0, 59, 115
1, 10215, Note_on_c, 0, 60, 104
1, 10277, Note_off_c, 0, 60, 104
1, 10291, Note_on_c, 0, 62, 110
1, 10380, Note_off_c, 0, 62, 110
1, 10404, Note_on_c, 0, 67, 86
1, 10853, Note_off_c, 0, 67, 86
1, 11426, Note_on_c, 0, 67, 105
1, 11466, Note_off_c, 0, 67, 105
1, 11474, Note_on_c, 0, 66, 114
1, 11526, Note_off_c, 0, 66, 114
1, 11532, Note_on_c, 0, 64, 117
1, 11577, Note_off_c, 0, 64, 117
1, 11588, Note_on_c, 0, 62, 112
1, 11629, Note_off_c, 0, 62, 112
1, 11642, Note_on_c, 0, 60, 117
1, 11744, Note_off_c, 0, 60, 117
1, 11761, Note_on_c, 0, 59, 118
1, 11836, Note_off_c, 0, 59, 118
1, 11851, Note_on_c, 0, 57, 115
1, 11929, Note_off_c, 0, 57, 115
1, 11944, Note_on_c, 0, 55, 111
1, 12008, Note_off_c, 0, 55, 111
1, 12015, Note_on_c, 0, 54, 89
1, 12114, Note_off_c, 0, 54, 89
1, 12130, Note_on_c, 0, 55, 99
1, 12180, Note_off_c, 0, 55, 99
1, 12194, Note_on_c, 0, 57, 119
1, 12312, Note_off_c, 0, 57, 119
1, 12313, Note_on_c, 0, 54, 111
1, 12379, Note_off_c, 0, 54, 111
1, 12507, Note_on_c, 0, 57, 119
1, 12591, Note_off_c, 0, 57, 119
1, 12598, Note_on_c, 0, 58, 116
1, 12675, Note_off_c, 0, 58, 116
1, 12692, Note_on_c, 0, 55, 112
1, 12771, Note_off_c, 0, 55, 112
1, 12788, Note_on_c, 0, 51, 102
1, 12859, Note_off_c, 0, 51, 102
1, 12879, Note_on_c, 0, 48, 105
1, 12970, Note_off_c, 0, 48, 105
1, 12981, Note_on_c, 0, 49, 106
1, 13073, Note_off_c, 0, 49, 106
1, 13095, Note_on_c, 0, 50, 91
1, 13152, Note_off_c, 0, 50, 91
1, 13165, Note_on_c, 0, 52, 109
1, 13277, Note_off_c, 0, 52, 109
1, 13282, Note_on_c, 0, 49, 112
1, 13354, Note_off_c, 0, 49, 112
1, 13369, Note_on_c, 0, 50, 99
1, 13455, Note_off_c, 0, 50, 99
1, 13473, Note_on_c, 0, 52, 109
1, 13534, Note_off_c, 0, 52, 109
1, 13540, Note_on_c, 0, 54, 105
1, 13615, Note_off_c, 0, 54, 105
1, 13633, Note_on_c, 0, 55, 93
1, 13701, Note_off_c, 0, 55, 93
1, 13716, Note_on_c, 0, 57, 113
1, 13835, Note_off_c, 0, 57, 113
1, 13839, Note_on_c, 0, 54, 116
1, 13921, Note_off_c, 0, 54, 116
1, 13936, Note_on_c, 0, 55, 97
1, 14029, Note_off_c, 0, 55, 97
1, 14043, Note_on_c, 0, 57, 116
1, 14122, Note_off_c, 0, 57, 116
1, 14133, Note_on_c, 0, 58, 111
1, 14230, Note_off_c, 0, 58, 111
1, 14232, Note_on_c, 0, 55, 111
1, 14326, Note_off_c, 0, 55, 111
1, 14333, Note_on_c, 0, 51, 98
1, 14422, Note_off_c, 0, 51, 98
1, 14425, Note_on_c, 0, 49, 109
1, 14497, Note_off_c, 0, 49, 109
1, 14512, Note_on_c, 0, 50, 101
1, 14644, Note_off_c, 0, 50, 101
1, 14707, Note_on_c, 0, 53, 120
1, 14792, Note_off_c, 0, 53, 120
1, 14897, Note_on_c, 0, 58, 118
1, 14974, Note_off_c, 0, 58, 118
1, 15099, Note_on_c, 0, 62, 111
1, 15187, Note_off_c, 0, 62, 111
1, 15261, Note_on_c, 0, 60, 105
1, 15506, Note_off_c, 0, 60, 105
1, 15568, Note_on_c, 0, 51, 105
1, 15653, Note_off_c, 0, 51, 105
1, 15684, Note_on_c, 0, 57, 110
1, 15789, Note_off_c, 0, 57, 110
1, 15807, Note_on_c, 0, 60, 116
1, 15892, Note_off_c, 0, 60, 116
1, 15953, Note_on_c, 0, 59, 114
1, 16034, Note_off_c, 0, 59, 114
1, 16148, Note_on_c, 0, 55, 97
1, 16324, Note_off_c, 0, 55, 97
1, 17665, Note_on_c, 0, 55, 110
1, 17742, Note_off_c, 0, 55, 110
1, 17753, Note_on_c, 0, 60, 117
1, 17853, Note_off_c, 0, 60, 117
1, 17858, Note_on_c, 0, 62, 109
1, 17929, Note_off_c, 0, 62, 109
1, 17943, Note_on_c, 0, 63, 109
1, 18037, Note_off_c, 0, 63, 109
1, 18048, Note_on_c, 0, 60, 110
1, 18118, Note_off_c, 0, 60, 110
1, 18123, Note_on_c, 0, 55, 101
1, 18206, Note_off_c, 0, 55, 101
1, 18264, Note_on_c, 0, 51, 95
1, 18316, Note_off_c, 0, 51, 95
1, 18317, Note_on_c, 0, 54, 120
1, 18447, Note_off_c, 0, 54, 120
1, 18452, Note_on_c, 0, 57, 113
1, 18496, Note_off_c, 0, 57, 113
1, 18504, Note_on_c, 0, 60, 108
1, 18631, Note_off_c, 0, 60, 108
1, 18635, Note_on_c, 0, 62, 93
1, 18699, Note_off_c, 0, 62, 93
1, 18733, Note_on_c, 0, 63, 109
1, 18819, Note_off_c, 0, 63, 109
1, 18832, Note_on_c, 0, 59, 110
1, 18912, Note_on_c, 0, 55, 98
1, 18912, Note_off_c, 0, 59, 110
1, 18980, Note_off_c, 0, 55, 98
1, 19042, Note_on_c, 0, 54, 112
1, 19105, Note_off_c, 0, 54, 112
1, 19109, Note_on_c, 0, 55, 113
1, 19203, Note_off_c, 0, 55, 113
1, 19212, Note_on_c, 0, 57, 109
1, 19287, Note_off_c, 0, 57, 109
1, 19303, Note_on_c, 0, 59, 105
1, 19384, Note_off_c, 0, 59, 105
1, 19390, Note_on_c, 0, 60, 99
1, 19440, Note_off_c, 0, 60, 99
1, 19451, Note_on_c, 0, 62, 104
1, 19570, Note_off_c, 0, 62, 104
1, 19594, Note_on_c, 0, 59, 104
1, 19660, Note_off_c, 0, 59, 104
1, 19671, Note_on_c, 0, 61, 98
1, 19770, Note_off_c, 0, 61, 98
1, 19786, Note_on_c, 0, 62, 104
1, 19853, Note_off_c, 0, 62, 104
1, 19865, Note_on_c, 0, 63, 108
1, 19946, Note_off_c, 0, 63, 108
1, 19964, Note_on_c, 0, 65, 119
1, 20070, Note_off_c, 0, 65, 119
1, 20077, Note_on_c, 0, 66, 111
1, 20166, Note_off_c, 0, 66, 111
1, 20168, Note_on_c, 0, 62, 106
1, 20227, Note_off_c, 0, 62, 106
1, 20240, Note_on_c, 0, 59, 106
1, 20341, Note_off_c, 0, 59, 106
1, 20352, Note_on_c, 0, 56, 105
1, 20441, Note_off_c, 0, 56, 105
1, 20445, Note_on_c, 0, 54, 98
1, 20556, Note_off_c, 0, 54, 98
1, 20563, Note_on_c, 0, 51, 89
1, 20735, Note_off_c, 0, 51, 89
1, 20923, Note_on_c, 0, 51, 109
1, 20987, Note_off_c, 0, 51, 109
1, 20996, Note_on_c, 0, 54, 118
1, 21051, Note_off_c, 0, 54, 118
1, 21055, Note_on_c, 0, 55, 102
1, 21178, Note_off_c, 0, 55, 102
1, 21196, Note_on_c, 0, 58, 117
1, 21317, Note_off_c, 0, 58, 117
1, 21395, Note_on_c, 0, 51, 93
1, 21554, Note_off_c, 0, 51, 93
1, 21665, Note_on_c, 0, 51, 105
1, 21748, Note_off_c, 0, 51, 105
1, 21759, Note_on_c, 0, 54, 106
1, 21935, Note_off_c, 0, 54, 106
1, 21957, Note_on_c, 0, 60, 112
1, 22090, Note_off_c, 0, 60, 112
1, 22141, Note_on_c, 0, 58, 113
1, 22267, Note_off_c, 0, 58, 113
1, 22270, Note_on_c, 0, 60, 98
1, 22330, Note_off_c, 0, 60, 98
1, 22341, Note_on_c, 0, 63, 109
1, 22440, Note_off_c, 0, 63, 109
1, 22452, Note_on_c, 0, 60, 115
1, 22533, Note_off_c, 0, 60, 115
1, 22537, Note_on_c, 0, 58, 110
1, 22626, Note_off_c, 0, 58, 110
1, 22630, Note_on_c, 0, 55, 97
1, 22713, Note_off_c, 0, 55, 97
1, 22737, Note_on_c, 0, 51, 86
1, 22864, Note_off_c, 0, 51, 86
1, 23282, Note_on_c, 0, 50, 109
1, 23417, Note_off_c, 0, 50, 109
1, 23423, Note_on_c, 0, 51, 102
1, 23943, Note_off_c, 0, 51, 102
1, 23963, Note_on_c, 0, 50, 108
1, 24043, Note_off_c, 0, 50, 108
1, 24056, Note_on_c, 0, 49, 104
1, 24206, Note_off_c, 0, 49, 104
1, 24222, Note_on_c, 0, 50, 104
1, 24304, Note_off_c, 0, 50, 104
1, 24351, Note_on_c, 0, 58, 107
1, 24521, Note_off_c, 0, 58, 107
1, 24535, Note_on_c, 0, 57, 119
1, 24634, Note_off_c, 0, 57, 119
1, 24639, Note_on_c, 0, 55, 86
1, 24955, Note_off_c, 0, 55, 86
1, 25529, Note_on_c, 0, 55, 115
1, 25591, Note_off_c, 0, 55, 115
1, 25597, Note_on_c, 0, 54, 120
1, 25754, Note_off_c, 0, 54, 120
1, 25761, Note_on_c, 0, 55, 114
1, 25852, Note_off_c, 0, 55, 114
1, 25900, Note_on_c, 0, 63, 110
1, 26012, Note_off_c, 0, 63, 110
1, 26063, Note_on_c, 0, 62, 110
1, 26151, Note_off_c, 0, 62, 110
1, 26164, Note_on_c, 0, 60, 109
1, 26352, Note_off_c, 0, 60, 109
1, 26399, Note_on_c, 0, 60, 106
1, 26443, Note_off_c, 0, 60, 106
1, 26448, Note_on_c, 0, 62, 85
1, 26476, Note_off_c, 0, 62, 85
1, 26477, Note_on_c, 0, 64, 111
1, 26529, Note_off_c, 0, 64, 111
1, 26541, Note_on_c, 0, 67, 113
1, 26643, Note_off_c, 0, 67, 113
1, 26649, Note_on_c, 0, 66, 119
1, 26732, Note_off_c, 0, 66, 119
1, 26738, Note_on_c, 0, 65, 122
1, 26834, Note_off_c, 0, 65, 122
1, 26837, Note_on_c, 0, 62, 116
1, 26907, Note_off_c, 0, 62, 116
1, 26922, Note_on_c, 0, 58, 108
1, 26999, Note_off_c, 0, 58, 108
1, 27015, Note_on_c, 0, 55, 108
1, 27109, Note_off_c, 0, 55, 108
1, 27118, Note_on_c, 0, 51, 97
1, 27229, Note_off_c, 0, 51, 97
1, 27234, Note_on_c, 0, 52, 103
1, 27292, Note_off_c, 0, 52, 103
1, 27299, Note_on_c, 0, 53, 120
1, 27396, Note_off_c, 0, 53, 120
1, 27416, Note_on_c, 0, 54, 113
1, 27472, Note_off_c, 0, 54, 113
1, 27487, Note_on_c, 0, 57, 109
1, 27584, Note_off_c, 0, 57, 109
1, 27592, Note_on_c, 0, 60, 102
1, 27682, Note_off_c, 0, 60, 102
1, 27689, Note_on_c, 0, 65, 115
1, 27799, Note_off_c, 0, 65, 115
1, 27810, Note_on_c, 0, 63, 111
1, 27847, Note_off_c, 0, 63, 111
1, 27851, Note_on_c, 0, 64, 117
1, 27890, Note_off_c, 0, 64, 117
1, 27907, Note_on_c, 0, 63, 103
1, 28141, Note_off_c, 0, 63, 103
1, 28186, Note_on_c, 0, 62, 108
1, 28254, Note_off_c, 0, 62, 108
1, 28366, Note_on_c, 0, 62, 108
1, 28424, Note_off_c, 0, 62, 108
1, 28428, Note_on_c, 0, 63, 112
1, 28645, Note_off_c, 0, 63, 112
1, 28660, Note_on_c, 0, 62, 102
1, 28957, Note_off_c, 0, 62, 102
1, 29380, Note_on_c, 0, 62, 116
1, 29453, Note_off_c, 0, 62, 116
1, 29461, Note_on_c, 0, 63, 118
1, 29494, Note_off_c, 0, 63, 118
1, 29505, Note_on_c, 0, 62, 114
1, 29543, Note_off_c, 0, 62, 114
1, 29555, Note_on_c, 0, 60, 118
1, 29630, Note_off_c, 0, 60, 118
1, 29639, Note_on_c, 0, 62, 111
1, 29679, Note_off_c, 0, 62, 111
1, 29694, Note_on_c, 0, 60, 115
1, 29743, Note_off_c, 0, 60, 115
1, 29763, Note_on_c, 0, 59, 117
1, 29815, Note_off_c, 0, 59, 117
1, 29952, Note_on_c, 0, 62, 109
1, 30025, Note_off_c, 0, 62, 109
1, 30159, Note_on_c, 0, 67, 110
1, 30248, Note_off_c, 0, 67, 110
1, 30548, Note_on_c, 0, 55, 109
1, 30628, Note_off_c, 0, 55, 109
1, 30638, Note_on_c, 0, 58, 104
1, 30726, Note_off_c, 0, 58, 104
1, 30727, Note_on_c, 0, 63, 106
1, 30823, Note_off_c, 0, 63, 106
1, 30851, Note_on_c, 0, 57, 106
1, 30899, Note_off_c, 0, 57, 106
1, 30909, Note_on_c, 0, 60, 116
1, 31031, Note_off_c, 0, 60, 116
1, 31035, Note_on_c, 0, 65, 116
1, 31130, Note_off_c, 0, 65, 116
1, 31133, Note_on_c, 0, 63, 106
1, 31224, Note_off_c, 0, 63, 106
1, 31236, Note_on_c, 0, 60, 118
1, 31307, Note_off_c, 0, 60, 118
1, 31316, Note_on_c, 0, 62, 103
1, 31488, Note_off_c, 0, 62, 103
1, 31508, Note_on_c, 0, 59, 112
1, 31600, Note_off_c, 0, 59, 112
1, 31696, Note_on_c, 0, 50, 98
1, 31822, Note_off_c, 0, 50, 98
1, 32013, Note_on_c, 0, 50, 108
1, 32082, Note_off_c, 0, 50, 108
1, 32095, Note_on_c, 0, 51, 102
1, 32161, Note_off_c, 0, 51, 102
1, 32176, Note_on_c, 0, 55, 104
1, 32248, Note_off_c, 0, 55, 104
1, 32258, Note_on_c, 0, 58, 115
1, 32358, Note_off_c, 0, 58, 115
1, 32370, Note_on_c, 0, 60, 117
1, 32444, Note_off_c, 0, 60, 117
1, 32455, Note_on_c, 0, 61, 116
1, 32549, Note_off_c, 0, 61, 116
1, 32564, Note_on_c, 0, 57, 114
1, 32624, Note_off_c, 0, 57, 114
1, 32635, Note_on_c, 0, 54, 101
1, 32765, Note_off_c, 0, 54, 101
1, 32822, Note_on_c, 0, 60, 120
1, 32945, Note_off_c, 0, 60, 120
1, 32955, Note_on_c, 0, 57, 114
1, 33026, Note_off_c, 0, 57, 114
1, 33033, Note_on_c, 0, 53, 115
1, 33127, Note_off_c, 0, 53, 115
1, 33137, Note_on_c, 0, 50, 91
1, 33326, Note_off_c, 0, 50, 91
1, 33384, Note_on_c, 0, 49, 109
1, 33510, Note_off_c, 0, 49, 109
1, 33527, Note_on_c, 0, 51, 107
1, 33593, Note_off_c, 0, 51, 107
1, 33610, Note_on_c, 0, 52, 106
1, 33679, Note_off_c, 0, 52, 106
1, 33698, Note_on_c, 0, 54, 127
1, 33779, Note_off_c, 0, 54, 127
1, 33783, Note_on_c, 0, 55, 110
1, 33874, Note_off_c, 0, 55, 110
1, 33897, Note_on_c, 0, 57, 109
1, 33974, Note_off_c, 0, 57, 109
1, 33994, Note_on_c, 0, 58, 117
1, 34091, Note_off_c, 0, 58, 117
1, 34095, Note_on_c, 0, 55, 113
1, 34152, Note_off_c, 0, 55, 113
1, 34155, Note_on_c, 0, 57, 115
1, 34293, Note_off_c, 0, 57, 115
1, 34301, Note_on_c, 0, 55, 110
1, 34544, Note_off_c, 0, 55, 110
1, 34559, Note_on_c, 0, 56, 108
1, 34611, Note_off_c, 0, 56, 108
1, 34615, Note_on_c, 0, 58, 116
1, 34631, Note_off_c, 0, 58, 116
1, 34645, Note_on_c, 0, 60, 119
1, 34683, Note_off_c, 0, 60, 119
1, 34690, Note_on_c, 0, 62, 113
1, 34737, Note_off_c, 0, 62, 113
1, 34738, Note_on_c, 0, 64, 113
1, 34873, Note_off_c, 0, 64, 113
1, 35809, Note_on_c, 0, 55, 113
1, 35865, Note_off_c, 0, 55, 113
1, 35877, Note_on_c, 0, 64, 110
1, 35949, Note_off_c, 0, 64, 110
1, 35989, Note_on_c, 0, 62, 115
1, 36058, Note_off_c, 0, 62, 115
1, 36066, Note_on_c, 0, 63, 102
1, 36147, Note_off_c, 0, 63, 102
1, 36154, Note_on_c, 0, 62, 112
1, 36235, Note_off_c, 0, 62, 112
1, 36270, Note_on_c, 0, 62, 105
1, 36360, Note_off_c, 0, 62, 105
1, 36368, Note_on_c, 0, 59, 113
1, 36450, Note_off_c, 0, 59, 113
1, 36458, Note_on_c, 0, 55, 97
1, 36549, Note_off_c, 0, 55, 97
1, 36605, Note_on_c, 0, 55, 98
1, 36647, Note_off_c, 0, 55, 98
1, 36653, Note_on_c, 0, 60, 118
1, 36734, Note_off_c, 0, 60, 118
1, 36841, Note_on_c, 0, 60, 114
1, 36872, Note_off_c, 0, 60, 114
1, 36880, Note_on_c, 0, 61, 112
1, 36953, Note_off_c, 0, 61, 112
1, 36961, Note_on_c, 0, 60, 113
1, 37014, Note_off_c, 0, 60, 113
1, 37025, Note_on_c, 0, 54, 105
1, 37137, Note_off_c, 0, 54, 105
1, 37163, Note_on_c, 0, 51, 95
1, 37308, Note_off_c, 0, 51, 95
1, 37369, Note_on_c, 0, 49, 103
1, 37426, Note_off_c, 0, 49, 103
1, 37432, Note_on_c, 0, 50, 98
1, 37546, Note_off_c, 0, 50, 98
1, 37557, Note_on_c, 0, 54, 109
1, 37618, Note_off_c, 0, 54, 109
1, 37630, Note_on_c, 0, 55, 99
1, 37723, Note_off_c, 0, 55, 99
1, 37732, Note_on_c, 0, 57, 104
1, 37784, Note_off_c, 0, 57, 104
1, 37796, Note_on_c, 0, 58, 118
1, 37905, Note_off_c, 0, 58, 118
1, 37916, Note_on_c, 0, 54, 115
1, 37990, Note_off_c, 0, 54, 115
1, 38090, Note_on_c, 0, 57, 116
1, 38185, Note_off_c, 0, 57, 116
1, 38190, Note_on_c, 0, 58, 109
1, 38271, Note_off_c, 0, 58, 109
1, 38273, Note_on_c, 0, 60, 109
1, 38364, Note_off_c, 0, 60, 109
1, 38369, Note_on_c, 0, 62, 108
1, 38442, Note_off_c, 0, 62, 108
1, 38447, Note_on_c, 0, 60, 109
1, 38539, Note_off_c, 0, 60, 109
1, 38551, Note_on_c, 0, 61, 110
1, 38657, Note_off_c, 0, 61, 110
1, 38669, Note_on_c, 0, 57, 110
1, 38714, Note_off_c, 0, 57, 110
1, 38723, Note_on_c, 0, 54, 115
1, 38802, Note_off_c, 0, 54, 115
1, 39122, Note_on_c, 0, 61, 116
1, 39222, Note_off_c, 0, 61, 116
1, 39227, Note_on_c, 0, 62, 105
1, 39300, Note_off_c, 0, 62, 105
1, 39313, Note_on_c, 0, 67, 112
1, 39419, Note_off_c, 0, 67, 112
1, 39442, Note_on_c, 0, 65, 117
1, 39515, Note_off_c, 0, 65, 117
1, 39540, Note_on_c, 0, 61, 97
1, 39583, Note_off_c, 0, 61, 97
1, 39592, Note_on_c, 0, 58, 100
1, 39654, Note_off_c, 0, 58, 100
1, 39663, Note_on_c, 0, 59, 110
1, 39764, Note_off_c, 0, 59, 110
1, 39773, Note_on_c, 0, 60, 110
1, 39867, Note_off_c, 0, 60, 110
1, 39882, Note_on_c, 0, 65, 113
1, 39983, Note_off_c, 0, 65, 113
1, 39998, Note_on_c, 0, 64, 120
1, 40077, Note_off_c, 0, 64, 120
1, 40091, Note_on_c, 0, 63, 107
1, 40169, Note_off_c, 0, 63, 107
1, 40201, Note_on_c, 0, 60, 115
1, 40250, Note_off_c, 0, 60, 115
1, 40259, Note_on_c, 0, 57, 104
1, 40384, Note_off_c, 0, 57, 104
1, 40394, Note_on_c, 0, 54, 97
1, 40463, Note_off_c, 0, 54, 97
1, 40480, Note_on_c, 0, 55, 106
1, 40585, Note_off_c, 0, 55, 106
1, 40598, Note_on_c, 0, 57, 114
1, 40689, Note_off_c, 0, 57, 114
1, 40697, Note_on_c, 0, 59, 105
1, 40801, Note_off_c, 0, 59, 105
1, 40809, Note_on_c, 0, 61, 95
1, 40859, Note_off_c, 0, 61, 95
1, 40867, Note_on_c, 0, 62, 108
1, 40977, Note_off_c, 0, 62, 108
1, 40988, Note_on_c, 0, 64, 97
1, 41016, Note_off_c, 0, 64, 97
1, 41030, Note_on_c, 0, 66, 103
1, 41158, Note_off_c, 0, 66, 103
1, 41166, Note_on_c, 0, 67, 119
1, 41489, Note_off_c, 0, 67, 119
1, 41612, Note_on_c, 0, 55, 113
1, 41714, Note_off_c, 0, 55, 113
1, 41805, Note_on_c, 0, 60, 110
1, 41934, Note_off_c, 0, 60, 110
1, 42004, Note_on_c, 0, 63, 113
1, 42106, Note_off_c, 0, 63, 113
1, 42109, Note_on_c, 0, 65, 112
1, 42339, Note_off_c, 0, 65, 112
1, 42360, Note_on_c, 0, 63, 101
1, 42409, Note_off_c, 0, 63, 101
1, 42416, Note_on_c, 0, 65, 116
1, 42593, Note_off_c, 0, 65, 116
1, 42629, Note_on_c, 0, 63, 99
1, 42673, Note_off_c, 0, 63, 99
1, 42686, Note_on_c, 0, 60, 104
1, 43024, Note_off_c, 0, 60, 104
1, 43296, Note_on_c, 0, 55, 112
1, 43371, Note_off_c, 0, 55, 112
1, 43387, Note_on_c, 0, 60, 113
1, 43477, Note_off_c, 0, 60, 113
1, 43496, Note_on_c, 0, 63, 97
1, 43540, Note_off_c, 0, 63, 97
1, 43549, Note_on_c, 0, 65, 121
1, 43651, Note_off_c, 0, 65, 121
1, 43658, Note_on_c, 0, 66, 116
1, 43714, Note_off_c, 0, 66, 116
1, 43726, Note_on_c, 0, 65, 118
1, 43808, Note_off_c, 0, 65, 118
1, 43832, Note_on_c, 0, 63, 105
1, 43889, Note_off_c, 0, 63, 105
1, 43945, Note_on_c, 0, 65, 112
1, 44093, Note_off_c, 0, 65, 112
1, 44120, Note_on_c, 0, 63, 107
1, 44230, Note_off_c, 0, 63, 107
1, 44264, Note_on_c, 0, 60, 116
1, 44356, Note_off_c, 0, 60, 116
1, 44442, Note_on_c, 0, 60, 109
1, 44758, Note_off_c, 0, 60, 109
1, 44818, Note_on_c, 0, 55, 113
1, 44908, Note_off_c, 0, 55, 113
1, 44927, Note_on_c, 0, 60, 110
1, 44982, Note_off_c, 0, 60, 110
1, 45032, Note_on_c, 0, 63, 101
1, 45068, Note_off_c, 0, 63, 101
1, 45080, Note_on_c, 0, 65, 112
1, 45130, Note_off_c, 0, 65, 112
1, 45138, Note_on_c, 0, 66, 109
1, 45199, Note_off_c, 0, 66, 109
1, 45215, Note_on_c, 0, 65, 113
1, 45306, Note_off_c, 0, 65, 113
1, 45326, Note_on_c, 0, 63, 112
1, 45406, Note_off_c, 0, 63, 112
1, 45505, Note_on_c, 0, 65, 118
1, 45574, Note_off_c, 0, 65, 118
1, 45700, Note_on_c, 0, 63, 106
1, 45777, Note_off_c, 0, 63, 106
1, 45854, Note_on_c, 0, 60, 111
1, 45972, Note_off_c, 0, 60, 111
1, 45978, Note_on_c, 0, 56, 115
1, 46044, Note_off_c, 0, 56, 115
1, 46056, Note_on_c, 0, 55, 100
1, 46149, Note_off_c, 0, 55, 100
1, 46155, Note_on_c, 0, 53, 106
1, 46211, Note_off_c, 0, 53, 106
1, 46239, Note_on_c, 0, 58, 114
1, 46335, Note_off_c, 0, 58, 114
1, 46347, Note_on_c, 0, 57, 115
1, 46417, Note_off_c, 0, 57, 115
1, 46432, Note_on_c, 0, 56, 101
1, 46512, Note_off_c, 0, 56, 101
1, 46542, Note_on_c, 0, 54, 125
1, 46623, Note_off_c, 0, 54, 125
1, 46627, Note_on_c, 0, 55, 124
1, 46722, Note_off_c, 0, 55, 124
1, 46746, Note_on_c, 0, 58, 112
1, 46806, Note_off_c, 0, 58, 112
1, 46814, Note_on_c, 0, 60, 118
1, 46951, Note_off_c, 0, 60, 118
1, 46955, Note_on_c, 0, 63, 93
1, 46995, Note_off_c, 0, 63, 93
1, 47003, Note_on_c, 0, 65, 119
1, 47115, Note_off_c, 0, 65, 119
1, 47134, Note_on_c, 0, 63, 92
1, 47256, Note_off_c, 0, 63, 92
1, 47868, Note_on_c, 0, 67, 124
1, 47959, Note_off_c, 0, 67, 124
1, 48038, Note_on_c, 0, 67, 121
1, 48124, Note_off_c, 0, 67, 121
1, 48133, Note_on_c, 0, 66, 116
1, 48205, Note_off_c, 0, 66, 116
1, 48221, Note_on_c, 0, 66, 108
1, 48277, Note_off_c, 0, 66, 108
1, 48300, Note_on_c, 0, 62, 104
1, 48399, Note_off_c, 0, 62, 104
1, 48435, Note_on_c, 0, 62, 105
1, 48488, Note_off_c, 0, 62, 105
1, 48498, Note_on_c, 0, 59, 107
1, 48654, Note_off_c, 0, 59, 107
1, 48711, Note_on_c, 0, 65, 112
1, 48795, Note_off_c, 0, 65, 112
1, 48821, Note_on_c, 0, 65, 112
1, 48890, Note_off_c, 0, 65, 112
1, 48896, Note_on_c, 0, 63, 104
1, 48973, Note_off_c, 0, 63, 104
1, 48997, Note_on_c, 0, 63, 109
1, 49062, Note_off_c, 0, 63, 109
1, 49074, Note_on_c, 0, 60, 114
1, 49197, Note_off_c, 0, 60, 114
1, 49266, Note_on_c, 0, 57, 118
1, 49404, Note_off_c, 0, 57, 118
1, 49476, Note_on_c, 0, 66, 120
1, 49576, Note_off_c, 0, 66, 120
1, 49591, Note_on_c, 0, 66, 116
1, 49659, Note_off_c, 0, 66, 116
1, 49670, Note_on_c, 0, 62, 110
1, 49763, Note_off_c, 0, 62, 110
1, 49777, Note_on_c, 0, 62, 110
1, 49836, Note_off_c, 0, 62, 110
1, 49854, Note_on_c, 0, 59, 117
1, 49974, Note_off_c, 0, 59, 117
1, 50032, Note_on_c, 0, 55, 121
1, 50164, Note_off_c, 0, 55, 121
1, 50241, Note_on_c, 0, 63, 115
1, 50289, Note_off_c, 0, 63, 115
1, 50300, Note_on_c, 0, 64, 113
1, 50339, Note_off_c, 0, 64, 113
1, 50351, Note_on_c, 0, 63, 112
1, 50402, Note_off_c, 0, 63, 112
1, 50433, Note_on_c, 0, 60, 115
1, 50552, Note_off_c, 0, 60, 115
1, 50570, Note_on_c, 0, 62, 109
1, 50640, Note_off_c, 0, 62, 109
1, 50653, Note_on_c, 0, 63, 111
1, 50722, Note_off_c, 0, 63, 111
1, 50743, Note_on_c, 0, 64, 110
1, 50826, Note_off_c, 0, 64, 110
1, 50835, Note_on_c, 0, 65, 111
1, 50937, Note_off_c, 0, 65, 111
1, 50943, Note_on_c, 0, 63, 110
1, 51022, Note_off_c, 0, 63, 110
1, 51030, Note_on_c, 0, 60, 114
1, 51082, Note_off_c, 0, 60, 114
1, 51092, Note_on_c, 0, 57, 107
1, 51160, Note_off_c, 0, 57, 107
1, 51163, Note_on_c, 0, 53, 118
1, 51277, Note_off_c, 0, 53, 118
1, 51297, Note_on_c, 0, 55, 106
1, 51382, Note_off_c, 0, 55, 106
1, 51393, Note_on_c, 0, 57, 111
1, 51461, Note_off_c, 0, 57, 111
1, 51477, Note_on_c, 0, 58, 112
1, 51569, Note_off_c, 0, 58, 112
1, 51577, Note_on_c, 0, 61, 110
1, 51612, Note_off_c, 0, 61, 110
1, 51623, Note_on_c, 0, 62, 103
1, 51764, Note_off_c, 0, 62, 103
1, 51776, Note_on_c, 0, 58, 116
1, 51862, Note_off_c, 0, 58, 116
1, 51950, Note_on_c, 0, 60, 113
1, 52086, Note_off_c, 0, 60, 113
1, 52091, Note_on_c, 0, 61, 104
1, 52260, Note_off_c, 0, 61, 104
1, 52271, Note_on_c, 0, 61, 112
1, 52356, Note_off_c, 0, 61, 112
1, 52368, Note_on_c, 0, 60, 108
1, 52511, Note_off_c, 0, 60, 108
1, 52531, Note_on_c, 0, 58, 108
1, 52656, Note_off_c, 0, 58, 108
1, 52676, Note_on_c, 0, 55, 115
1, 52753, Note_off_c, 0, 55, 115
1, 52854, Note_on_c, 0, 55, 99
1, 53115, Note_off_c, 0, 55, 99
1, 53621, Note_on_c, 0, 61, 115
1, 53738, Note_off_c, 0, 61, 115
1, 53875, Note_on_c, 0, 60, 110
1, 53969, Note_off_c, 0, 60, 110
1, 54080, Note_on_c, 0, 58, 118
1, 54169, Note_off_c, 0, 58, 118
1, 54269, Note_on_c, 0, 55, 114
1, 54364, Note_off_c, 0, 55, 114
1, 54399, Note_on_c, 0, 55, 116
1, 54456, Note_off_c, 0, 55, 116
1, 54668, Note_on_c, 0, 55, 101
1, 54736, Note_off_c, 0, 55, 101
1, 54969, Note_on_c, 0, 55, 103
1, 55034, Note_off_c, 0, 55, 103
1, 55245, Note_on_c, 0, 55, 101
1, 55345, Note_off_c, 0, 55, 101
1, 55345, End_track
0, 0, End_of_file
