0, 0, Header, 1, 1, 192
1, 0, Start_track
1, 0, Title_t, "Melody"
1, 0, Tempo, 236220
1, 0, Key_signature, -2, "major"
1, 0, Time_signature, 4, 2, 24, 8
1, 5864, Note_on_c, 0, 60, 93
1, 6265, Note_off_c, 0, 60, 93
1, 6283, Note_on_c, 0, 60, 116
1, 6406, Note_off_c, 0, 60, 116
1, 6423, Note_on_c, 0, 62, 114
1, 6486, Note_off_c, 0, 62, 114
1, 6507, Note_on_c, 0, 64, 117
1, 6592, Note_off_c, 0, 64, 117
1, 6603, Note_on_c, 0, 65, 117
1, 6688, Note_off_c, 0, 65, 117
1, 6703, Note_on_c, 0, 60, 106
1, 6810, Note_off_c, 0, 60, 106
1, 6821, Note_on_c, 0, 59, 112
1, 6889, Note_off_c, 0, 59, 112
1, 6904, Note_on_c, 0, 58, 105
1, 7001, Note_off_c, 0, 58, 105
1, 7099, Note_on_c, 0, 60, 96
1, 7478, Note_off_c, 0, 60, 96
1, 7501, Note_on_c, 0, 60, 95
1, 7870, Note_off_c, 0, 60, 95
1, 7898, Note_on_c, 0, 60, 111
1, 8025, Note_off_c, 0, 60, 111
1, 8102, Note_on_c, 0, 58, 117
1, 8171, Note_off_c, 0, 58, 117
1, 8179, Note_on_c, 0, 60, 112
1, 8235, Note_off_c, 0, 60, 112
1, 8245, Note_on_c, 0, 58, 115
1, 8321, Note_off_c, 0, 58, 115
1, 8337, Note_on_c, 0, 56, 105
1, 8414, Note_off_c, 0, 56, 105
1, 8430, Note_on_c, 0, 53, 114
1, 8491, Note_off_c, 0, 53, 114
1, 8496, Note_on_c, 0, 50, 98
1, 8568, Note_off_c, 0, 50, 98
1, 8725, Note_on_c, 0, 53, 113
1, 8823, Note_off_c, 0, 53, 113
1, 8830, Note_on_c, 0, 56, 112
1, 8884, Note_off_c, 0, 56, 112
1, 8897, Note_on_c, 0, 57, 102
1, 9006, Note_off_c, 0, 57, 102
1, 9026, Note_on_c, 0, 60, 91
1, 9086, Note_off_c, 0, 60, 91
1, 9110, Note_on_c, 0, 62, 118
1, 9208, Note_off_c, 0, 62, 118
1, 9315, Note_on_c, 0, 63, 120
1, 9409, Note_off_c, 0, 63, 120
1, 9521, Note_on_c, 0, 62, 98
1, 9602, Note_off_c, 0, 62, 98
1, 9621, Note_on_c, 0, 60, 114
1, 9687, Note_off_c, 0, 60, 114
1, 9709, Note_on_c, 0, 58, 105
1, 9779, Note_off_c, 0, 58, 105
1, 10286, Note_on_c, 0, 60, 124
1, 10381, Note_off_c, 0, 60, 124
1, 10393, Note_on_c, 0, 58, 119
1, 10472, Note_off_c, 0, 58, 119
1, 10492, Note_on_c, 0, 57, 105
1, 10602, Note_off_c, 0, 57, 105
1, 10670, Note_on_c, 0, 58, 120
1, 10792, Note_off_c, 0, 58, 120
1, 10803, Note_on_c, 0, 57, 115
1, 10874, Note_off_c, 0, 57, 115
1, 10893, Note_on_c, 0, 55, 107
1, 10982, Note_off_c, 0, 55, 107
1, 10993, Note_on_c, 0, 57, 117
1, 11097, Note_off_c, 0, 57, 117
1, 11209, Note_on_c, 0, 53, 111
1, 11376, Note_off_c, 0, 53, 111
1, 11393, Note_on_c, 0, 53, 119
1, 11475, Note_off_c, 0, 53, 119
1, 11477, Note_on_c, 0, 57, 117
1, 11612, Note_off_c, 0, 57, 117
1, 11668, Note_on_c, 0, 62, 120
1, 11802, Note_off_c, 0, 62, 120
1, 11880, Note_on_c, 0, 59, 111
1, 11964, Note_off_c, 0, 59, 111
1, 11968, Note_on_c, 0, 60, 109
1, 12236, Note_off_c, 0, 60, 109
1, 12247, Note_on_c, 0, 55, 96
1, 12627, Note_off_c, 0, 55, 96
1, 13173, Note_on_c, 0, 62, 114
1, 13343, Note_off_c, 0, 62, 114
1, 13362, Note_on_c, 0, 60, 106
1, 13432, Note_off_c, 0, 60, 106
1, 13444, Note_on_c, 0, 63, 118
1, 13544, Note_off_c, 0, 63, 118
1, 13558, Note_on_c, 0, 60, 110
1, 13624, Note_off_c, 0, 60, 110
1, 13633, Note_on_c, 0, 62, 113
1, 13755, Note_off_c, 0, 62, 113
1, 13849, Note_on_c, 0, 60, 116
1, 13932, Note_off_c, 0, 60, 116
1, 13968, Note_on_c, 0, 53, 115
1, 14028, Note_off_c, 0, 53, 115
1, 14037, Note_on_c, 0, 55, 104
1, 14134, Note_off_c, 0, 55, 104
1, 14149, Note_on_c, 0, 53, 103
1, 14220, Note_off_c, 0, 53, 103
1, 14268, Note_on_c, 0, 59, 115
1, 14365, Note_off_c, 0, 59, 115
1, 14383, Note_on_c, 0, 60, 109
1, 14425, Note_off_c, 0, 60, 109
1, 14429, Note_on_c, 0, 59, 113
1, 14460, Note_off_c, 0, 59, 113
1, 14467, Note_on_c, 0, 58, 113
1, 14531, Note_off_c, 0, 58, 113
1, 14534, Note_on_c, 0, 53, 101
1, 14603, Note_off_c, 0, 53, 101
1, 14634, Note_on_c, 0, 56, 112
1, 14745, Note_off_c, 0, 56, 112
1, 14764, Note_on_c, 0, 53, 115
1, 14822, Note_off_c, 0, 53, 115
1, 14842, Note_on_c, 0, 50, 100
1, 14911, Note_off_c, 0, 50, 100
1, 14917, Note_on_c, 0, 48, 106
1, 14986, Note_off_c, 0, 48, 106
1, 15041, Note_on_c, 0, 53, 118
1, 15137, Note_off_c, 0, 53, 118
1, 15159, Note_on_c, 0, 56, 108
1, 15227, Note_off_c, 0, 56, 108
1, 15232, Note_on_c, 0, 57, 102
1, 15324, Note_off_c, 0, 57, 102
1, 15371, Note_on_c, 0, 60, 93
1, 15405, Note_off_c, 0, 60, 93
1, 15430, Note_on_c, 0, 64, 110
1, 15483, Note_off_c, 0, 64, 110
1, 15531, Note_on_c, 0, 63, 117
1, 15596, Note_off_c, 0, 63, 117
1, 16374, Note_on_c, 0, 65, 121
1, 16448, Note_off_c, 0, 65, 121
1, 16455, Note_on_c, 0, 64, 119
1, 16510, Note_off_c, 0, 64, 119
1, 16522, Note_on_c, 0, 62, 103
1, 16575, Note_off_c, 0, 62, 103
1, 16586, Note_on_c, 0, 60, 115
1, 16667, Note_off_c, 0, 60, 115
1, 16977, Note_on_c, 0, 60, 114
1, 17033, Note_off_c, 0, 60, 114
1, 17040, Note_on_c, 0, 58, 116
1, 17132, Note_off_c, 0, 58, 116
1, 17144, Note_on_c, 0, 57, 111
1, 17191, Note_off_c, 0, 57, 111
1, 17193, Note_on_c, 0, 55, 105
1, 17265, Note_off_c, 0, 55, 105
1, 17583, Note_on_c, 0, 55, 113
1, 17661, Note_off_c, 0, 55, 113
1, 17670, Note_on_c, 0, 53, 110
1, 17739, Note_off_c, 0, 53, 110
1, 17744, Note_on_c, 0, 52, 104
1, 17841, Note_off_c, 0, 52, 104
1, 17877, Note_on_c, 0, 53, 114
1, 17946, Note_off_c, 0, 53, 114
1, 18149, Note_on_c, 0, 50, 112
1, 18243, Note_off_c, 0, 50, 112
1, 18258, Note_on_c, 0, 48, 112
1, 18327, Note_off_c, 0, 48, 112
1, 18343, Note_on_c, 0, 49, 111
1, 18440, Note_off_c, 0, 49, 111
1, 18480, Note_on_c, 0, 51, 111
1, 18533, Note_off_c, 0, 51, 111
1, 18540, Note_on_c, 0, 52, 105
1, 18638, Note_off_c, 0, 52, 105
1, 18666, Note_on_c, 0, 54, 113
1, 18734, Note_off_c, 0, 54, 113
1, 18746, Note_on_c, 0, 55, 98
1, 18821, Note_off_c, 0, 55, 98
1, 18840, Note_on_c, 0, 57, 107
1, 18926, Note_off_c, 0, 57, 107
1, 18954, Note_on_c, 0, 58, 119
1, 19031, Note_off_c, 0, 58, 119
1, 19038, Note_on_c, 0, 56, 113
1, 19108, Note_off_c, 0, 56, 113
1, 19128, Note_on_c, 0, 57, 107
1, 19207, Note_off_c, 0, 57, 107
1, 19227, Note_on_c, 0, 60, 107
1, 19278, Note_off_c, 0, 60, 107
1, 19278, Note_on_c, 0, 64, 116
1, 19319, Note_off_c, 0, 64, 116
1, 19322, Note_on_c, 0, 65, 119
1, 19413, Note_off_c, 0, 65, 119
1, 19437, Note_on_c, 0, 61, 99
1, 19490, Note_off_c, 0, 61, 99
1, 19503, Note_on_c, 0, 64, 120
1, 19604, Note_off_c, 0, 64, 120
1, 19616, Note_on_c, 0, 61, 110
1, 19679, Note_off_c, 0, 61, 110
1, 19693, Note_on_c, 0, 62, 108
1, 19808, Note_off_c, 0, 62, 108
1, 19814, Note_on_c, 0, 61, 109
1, 19904, Note_off_c, 0, 61, 109
1, 19908, Note_on_c, 0, 60, 109
1, 19993, Note_off_c, 0, 60, 109
1, 20004, Note_on_c, 0, 58, 117
1, 20071, Note_off_c, 0, 58, 117
1, 20084, Note_on_c, 0, 59, 106
1, 20261, Note_off_c, 0, 59, 106
1, 20297, Note_on_c, 0, 57, 104
1, 20401, Note_off_c, 0, 57, 104
1, 20494, Note_on_c, 0, 59, 104
1, 20775, Note_off_c, 0, 59, 104
1, 20805, Note_on_c, 0, 57, 112
1, 20902, Note_off_c, 0, 57, 112
1, 20913, Note_on_c, 0, 54, 102
1, 21002, Note_off_c, 0, 54, 102
1, 21007, Note_on_c, 0, 52, 101
1, 21123, Note_off_c, 0, 52, 101
1, 21622, Note_on_c, 0, 52, 115
1, 21711, Note_off_c, 0, 52, 115
1, 21729, Note_on_c, 0, 50, 109
1, 21819, Note_off_c, 0, 50, 109
1, 21824, Note_on_c, 0, 49, 105
1, 21929, Note_off_c, 0, 49, 105
1, 21930, Note_on_c, 0, 50, 102
1, 21995, Note_off_c, 0, 50, 102
1, 22001, Note_on_c, 0, 52, 111
1, 22113, Note_off_c, 0, 52, 111
1, 22118, Note_on_c, 0, 49, 106
1, 22174, Note_off_c, 0, 49, 106
1, 22179, Note_on_c, 0, 47, 114
1, 22232, Note_off_c, 0, 47, 114
1, 22245, Note_on_c, 0, 41, 115
1, 22302, Note_off_c, 0, 41, 115
1, 22321, Note_on_c, 0, 57, 114
1, 22370, Note_off_c, 0, 57, 114
1, 22376, Note_on_c, 0, 59, 116
1, 22422, Note_off_c, 0, 59, 116
1, 22426, Note_on_c, 0, 64, 122
1, 22601, Note_off_c, 0, 64, 122
1, 22608, Note_on_c, 0, 62, 111
1, 22703, Note_off_c, 0, 62, 111
1, 22803, Note_on_c, 0, 55, 98
1, 23067, Note_off_c, 0, 55, 98
1, 23098, Note_on_c, 0, 57, 114
1, 23193, Note_off_c, 0, 57, 114
1, 23200, Note_on_c, 0, 58, 107
1, 23301, Note_off_c, 0, 58, 107
1, 23310, Note_on_c, 0, 60, 103
1, 23355, Note_off_c, 0, 60, 103
1, 23357, Note_on_c, 0, 62, 110
1, 23466, Note_off_c, 0, 62, 110
1, 23484, Note_on_c, 0, 60, 115
1, 23580, Note_off_c, 0, 60, 115
1, 24519, Note_on_c, 0, 60, 117
1, 24632, Note_off_c, 0, 60, 117
1, 24650, Note_on_c, 0, 62, 99
1, 24740, Note_off_c, 0, 62, 99
1, 24747, Note_on_c, 0, 65, 123
1, 24849, Note_off_c, 0, 65, 123
1, 24877, Note_on_c, 0, 67, 124
1, 25009, Note_off_c, 0, 67, 124
1, 25129, Note_on_c, 0, 55, 100
1, 25237, Note_off_c, 0, 55, 100
1, 25253, Note_on_c, 0, 57, 105
1, 25330, Note_off_c, 0, 57, 105
1, 25344, Note_on_c, 0, 60, 114
1, 25438, Note_off_c, 0, 60, 114
1, 25475, Note_on_c, 0, 62, 110
1, 25596, Note_off_c, 0, 62, 110
1, 25698, Note_on_c, 0, 48, 112
1, 25834, Note_off_c, 0, 48, 112
1, 25843, Note_on_c, 0, 50, 104
1, 25910, Note_off_c, 0, 50, 104
1, 25922, Note_on_c, 0, 53, 114
1, 26044, Note_off_c, 0, 53, 114
1, 26065, Note_on_c, 0, 55, 111
1, 26188, Note_off_c, 0, 55, 111
1, 26326, Note_on_c, 0, 57, 118
1, 26423, Note_off_c, 0, 57, 118
1, 26435, Note_on_c, 0, 58, 110
1, 26494, Note_off_c, 0, 58, 110
1, 26522, Note_on_c, 0, 60, 112
1, 26636, Note_off_c, 0, 60, 112
1, 26656, Note_on_c, 0, 62, 112
1, 26905, Note_off_c, 0, 62, 112
1, 26926, Note_on_c, 0, 58, 111
1, 27032, Note_off_c, 0, 58, 111
1, 27050, Note_on_c, 0, 55, 108
1, 27150, Note_off_c, 0, 55, 108
1, 27216, Note_on_c, 0, 60, 113
1, 27329, Note_off_c, 0, 60, 113
1, 27439, Note_on_c, 0, 60, 109
1, 27634, Note_off_c, 0, 60, 109
1, 27689, Note_on_c, 0, 57, 112
1, 27798, Note_off_c, 0, 57, 112
1, 27902, Note_on_c, 0, 53, 103
1, 28175, Note_off_c, 0, 53, 103
1, 28194, Note_on_c, 0, 58, 114
1, 28255, Note_off_c, 0, 58, 114
1, 28263, Note_on_c, 0, 60, 108
1, 28451, Note_off_c, 0, 60, 108
1, 28470, Note_on_c, 0, 58, 111
1, 28541, Note_off_c, 0, 58, 111
1, 28569, Note_on_c, 0, 59, 107
1, 28594, Note_off_c, 0, 59, 107
1, 28596, Note_on_c, 0, 58, 112
1, 28638, Note_off_c, 0, 58, 112
1, 28649, Note_on_c, 0, 56, 104
1, 28758, Note_off_c, 0, 56, 104
1, 28781, Note_on_c, 0, 53, 110
1, 28834, Note_off_c, 0, 53, 110
1, 28850, Note_on_c, 0, 50, 102
1, 28944, Note_off_c, 0, 50, 102
1, 28962, Note_on_c, 0, 48, 97
1, 29029, Note_off_c, 0, 48, 97
1, 29054, Note_on_c, 0, 53, 102
1, 29342, Note_off_c, 0, 53, 102
1, 29357, Note_on_c, 0, 53, 118
1, 29449, Note_off_c, 0, 53, 118
1, 30563, Note_on_c, 0, 53, 115
1, 30670, Note_off_c, 0, 53, 115
1, 30765, Note_on_c, 0, 57, 114
1, 30877, Note_off_c, 0, 57, 114
1, 30891, Note_on_c, 0, 62, 110
1, 30955, Note_off_c, 0, 62, 110
1, 30973, Note_on_c, 0, 60, 101
1, 31153, Note_off_c, 0, 60, 101
1, 31176, Note_on_c, 0, 62, 108
1, 31268, Note_off_c, 0, 62, 108
1, 31368, Note_on_c, 0, 55, 106
1, 31474, Note_off_c, 0, 55, 106
1, 31484, Note_on_c, 0, 57, 112
1, 31542, Note_off_c, 0, 57, 112
1, 31561, Note_on_c, 0, 58, 108
1, 31687, Note_off_c, 0, 58, 108
1, 31704, Note_on_c, 0, 60, 103
1, 31744, Note_off_c, 0, 60, 103
1, 31749, Note_on_c, 0, 62, 98
1, 31942, Note_off_c, 0, 62, 98
1, 31960, Note_on_c, 0, 60, 110
1, 32061, Note_off_c, 0, 60, 110
1, 32157, Note_on_c, 0, 62, 97
1, 32460, Note_off_c, 0, 62, 97
1, 32473, Note_on_c, 0, 60, 111
1, 32574, Note_off_c, 0, 60, 111
1, 32591, Note_on_c, 0, 57, 112
1, 32674, Note_off_c, 0, 57, 112
1, 32699, Note_on_c, 0, 55, 109
1, 32780, Note_off_c, 0, 55, 109
1, 33414, Note_on_c, 0, 59, 114
1, 33508, Note_off_c, 0, 59, 114
1, 33516, Note_on_c, 0, 60, 108
1, 33703, Note_off_c, 0, 60, 108
1, 33703, Note_on_c, 0, 53, 110
1, 33841, Note_off_c, 0, 53, 110
1, 33898, Note_on_c, 0, 57, 112
1, 34011, Note_off_c, 0, 57, 112
1, 34018, Note_on_c, 0, 62, 106
1, 34095, Note_off_c, 0, 62, 106
1, 34113, Note_on_c, 0, 60, 100
1, 34284, Note_off_c, 0, 60, 100
1, 34293, Note_on_c, 0, 62, 108
1, 34405, Note_off_c, 0, 62, 108
1, 34494, Note_on_c, 0, 65, 106
1, 34742, Note_off_c, 0, 65, 106
1, 34791, Note_on_c, 0, 61, 116
1, 34875, Note_off_c, 0, 61, 116
1, 34895, Note_on_c, 0, 60, 105
1, 34965, Note_off_c, 0, 60, 105
1, 34987, Note_on_c, 0, 58, 113
1, 35066, Note_off_c, 0, 58, 113
1, 35087, Note_on_c, 0, 55, 94
1, 35157, Note_off_c, 0, 55, 94
1, 35182, Note_on_c, 0, 56, 103
1, 35256, Note_off_c, 0, 56, 103
1, 35273, Note_on_c, 0, 57, 107
1, 35379, Note_off_c, 0, 57, 107
1, 35395, Note_on_c, 0, 60, 101
1, 35442, Note_off_c, 0, 60, 101
1, 35472, Note_on_c, 0, 62, 109
1, 35563, Note_off_c, 0, 62, 109
1, 35673, Note_on_c, 0, 63, 122
1, 35745, Note_off_c, 0, 63, 122
1, 35749, Note_on_c, 0, 64, 113
1, 35823, Note_off_c, 0, 64, 113
1, 35856, Note_on_c, 0, 62, 104
1, 35940, Note_off_c, 0, 62, 104
1, 35961, Note_on_c, 0, 60, 110
1, 36065, Note_off_c, 0, 60, 110
1, 36165, Note_on_c, 0, 53, 109
1, 36313, Note_off_c, 0, 53, 109
1, 36342, Note_on_c, 0, 53, 113
1, 36414, Note_off_c, 0, 53, 113
1, 36414, Note_on_c, 0, 60, 112
1, 36521, Note_off_c, 0, 60, 112
1, 36597, Note_on_c, 0, 53, 108
1, 36715, Note_off_c, 0, 53, 108
1, 36804, Note_on_c, 0, 58, 99
1, 37108, Note_off_c, 0, 58, 99
1, 37207, Note_on_c, 0, 60, 106
1, 37497, Note_off_c, 0, 60, 106
1, 37513, Note_on_c, 0, 55, 101
1, 37582, Note_off_c, 0, 55, 101
1, 38290, Note_on_c, 0, 60, 111
1, 38357, Note_off_c, 0, 60, 111
1, 38362, Note_on_c, 0, 58, 115
1, 38458, Note_off_c, 0, 58, 115
1, 38468, Note_on_c, 0, 60, 108
1, 38530, Note_off_c, 0, 60, 108
1, 38562, Note_on_c, 0, 57, 111
1, 38638, Note_off_c, 0, 57, 111
1, 38650, Note_on_c, 0, 58, 114
1, 38727, Note_off_c, 0, 58, 114
1, 38739, Note_on_c, 0, 57, 108
1, 38814, Note_off_c, 0, 57, 108
1, 38843, Note_on_c, 0, 55, 108
1, 38898, Note_off_c, 0, 55, 108
1, 38938, Note_on_c, 0, 53, 111
1, 39037, Note_off_c, 0, 53, 111
1, 39051, Note_on_c, 0, 51, 98
1, 39122, Note_off_c, 0, 51, 98
1, 39150, Note_on_c, 0, 52, 104
1, 39232, Note_off_c, 0, 52, 104
1, 39237, Note_on_c, 0, 55, 106
1, 39314, Note_off_c, 0, 55, 106
1, 39352, Note_on_c, 0, 57, 97
1, 39418, Note_off_c, 0, 57, 97
1, 39500, Note_on_c, 0, 60, 107
1, 39527, Note_off_c, 0, 60, 107
1, 39527, Note_on_c, 0, 63, 115
1, 39601, Note_off_c, 0, 63, 115
1, 39628, Note_on_c, 0, 61, 115
1, 39697, Note_off_c, 0, 61, 115
1, 39716, Note_on_c, 0, 60, 113
1, 39795, Note_off_c, 0, 60, 113
1, 39823, Note_on_c, 0, 58, 115
1, 39902, Note_off_c, 0, 58, 115
1, 40104, Note_on_c, 0, 62, 110
1, 40181, Note_off_c, 0, 62, 110
1, 40204, Note_on_c, 0, 59, 95
1, 40273, Note_off_c, 0, 59, 95
1, 40283, Note_on_c, 0, 60, 109
1, 40386, Note_off_c, 0, 60, 109
1, 40390, Note_on_c, 0, 57, 109
1, 40476, Note_off_c, 0, 57, 109
1, 40500, Note_on_c, 0, 53, 94
1, 40588, Note_off_c, 0, 53, 94
1, 40665, Note_on_c, 0, 58, 113
1, 40777, Note_off_c, 0, 58, 113
1, 40878, Note_on_c, 0, 58, 115
1, 40970, Note_off_c, 0, 58, 115
1, 40975, Note_on_c, 0, 56, 112
1, 41061, Note_off_c, 0, 56, 112
1, 41075, Note_on_c, 0, 55, 102
1, 41144, Note_off_c, 0, 55, 102
1, 41155, Note_on_c, 0, 53, 114
1, 41244, Note_off_c, 0, 53, 114
1, 41261, Note_on_c, 0, 52, 101
1, 41325, Note_off_c, 0, 52, 101
1, 41346, Note_on_c, 0, 50, 110
1, 41404, Note_off_c, 0, 50, 110
1, 41412, Note_on_c, 0, 48, 109
1, 41445, Note_off_c, 0, 48, 109
1, 41460, Note_on_c, 0, 47, 93
1, 41566, Note_off_c, 0, 47, 93
1, 41594, Note_on_c, 0, 50, 103
1, 41696, Note_off_c, 0, 50, 103
1, 41727, Note_on_c, 0, 47, 105
1, 41776, Note_off_c, 0, 47, 105
1, 41785, Note_on_c, 0, 48, 107
1, 41898, Note_off_c, 0, 48, 107
1, 41905, Note_on_c, 0, 50, 113
1, 41999, Note_off_c, 0, 50, 113
1, 42006, Note_on_c, 0, 52, 102
1, 42074, Note_off_c, 0, 52, 102
1, 42103, Note_on_c, 0, 53, 102
1, 42167, Note_off_c, 0, 53, 102
1, 42190, Note_on_c, 0, 55, 111
1, 42302, Note_off_c, 0, 55, 111
1, 42313, Note_on_c, 0, 51, 108
1, 42354, Note_off_c, 0, 51, 108
1, 42370, Note_on_c, 0, 53, 115
1, 42477, Note_off_c, 0, 53, 115
1, 42498, Note_on_c, 0, 57, 113
1, 42565, Note_off_c, 0, 57, 113
1, 42590, Note_on_c, 0, 60, 101
1, 42632, Note_off_c, 0, 60, 101
1, 42642, Note_on_c, 0, 62, 104
1, 42671, Note_off_c, 0, 62, 104
1, 42678, Note_on_c, 0, 64, 113
1, 42739, Note_off_c, 0, 64, 113
1, 42746, Note_on_c, 0, 65, 119
1, 42859, Note_off_c, 0, 65, 119
1, 42936, Note_on_c, 0, 61, 108
1, 43032, Note_off_c, 0, 61, 108
1, 43720, Note_on_c, 0, 53, 118
1, 43783, Note_off_c, 0, 53, 118
1, 43795, Note_on_c, 0, 55, 107
1, 43832, Note_off_c, 0, 55, 107
1, 43850, Note_on_c, 0, 60, 111
1, 43901, Note_off_c, 0, 60, 111
1, 43915, Note_on_c, 0, 65, 116
1, 44017, Note_off_c, 0, 65, 116
1, 44089, Note_on_c, 0, 61, 108
1, 44202, Note_off_c, 0, 61, 108
1, 44313, Note_on_c, 0, 58, 108
1, 44416, Note_off_c, 0, 58, 108
1, 44492, Note_on_c, 0, 64, 101
1, 44764, Note_off_c, 0, 64, 101
1, 44799, Note_on_c, 0, 60, 111
1, 44876, Note_off_c, 0, 60, 111
1, 44902, Note_on_c, 0, 57, 105
1, 44998, Note_off_c, 0, 57, 105
1, 45004, Note_on_c, 0, 54, 106
1, 45075, Note_off_c, 0, 54, 106
1, 45625, Note_on_c, 0, 54, 103
1, 45694, Note_off_c, 0, 54, 103
1, 45707, Note_on_c, 0, 57, 111
1, 45758, Note_off_c, 0, 57, 111
1, 45767, Note_on_c, 0, 60, 109
1, 45808, Note_off_c, 0, 60, 109
1, 45818, Note_on_c, 0, 63, 120
1, 45902, Note_off_c, 0, 63, 120
1, 46018, Note_on_c, 0, 62, 109
1, 46085, Note_off_c, 0, 62, 109
1, 46106, Note_on_c, 0, 61, 113
1, 46198, Note_off_c, 0, 61, 113
1, 46203, Note_on_c, 0, 60, 109
1, 46267, Note_off_c, 0, 60, 109
1, 46279, Note_on_c, 0, 58, 112
1, 46380, Note_off_c, 0, 58, 112
1, 46388, Note_on_c, 0, 59, 104
1, 46471, Note_off_c, 0, 59, 104
1, 46495, Note_on_c, 0, 62, 94
1, 46544, Note_off_c, 0, 62, 94
1, 46552, Note_on_c, 0, 64, 112
1, 46646, Note_off_c, 0, 64, 112
1, 46664, Note_on_c, 0, 62, 96
1, 46720, Note_off_c, 0, 62, 96
1, 46775, Note_on_c, 0, 67, 116
1, 46861, Note_off_c, 0, 67, 116
1, 46883, Note_on_c, 0, 64, 104
1, 46932, Note_off_c, 0, 64, 104
1, 46943, Note_on_c, 0, 65, 115
1, 47034, Note_off_c, 0, 65, 115
1, 47043, Note_on_c, 0, 64, 108
1, 47109, Note_off_c, 0, 64, 108
1, 47133, Note_on_c, 0, 62, 101
1, 47194, Note_off_c, 0, 62, 101
1, 47200, Note_on_c, 0, 64, 101
1, 47301, Note_off_c, 0, 64, 101
1, 47349, Note_on_c, 0, 60, 104
1, 47393, Note_off_c, 0, 60, 104
1, 47397, Note_on_c, 0, 62, 111
1, 47484, Note_off_c, 0, 62, 111
1, 47721, Note_on_c, 0, 60, 110
1, 47816, Note_off_c, 0, 60, 110
1, 47830, Note_on_c, 0, 59, 112
1, 47900, Note_off_c, 0, 59, 112
1, 47911, Note_on_c, 0, 58, 112
1, 47992, Note_off_c, 0, 58, 112
1, 48003, Note_on_c, 0, 56, 108
1, 48074, Note_off_c, 0, 56, 108
1, 48094, Note_on_c, 0, 57, 115
1, 48189, Note_off_c, 0, 57, 115
1, 48197, Note_on_c, 0, 55, 109
1, 48259, Note_off_c, 0, 55, 109
1, 48276, Note_on_c, 0, 53, 108
1, 48363, Note_off_c, 0, 53, 108
1, 48372, Note_on_c, 0, 51, 105
1, 48474, Note_off_c, 0, 51, 105
1, 48483, Note_on_c, 0, 52, 108
1, 48560, Note_off_c, 0, 52, 108
1, 48584, Note_on_c, 0, 55, 112
1, 48654, Note_off_c, 0, 55, 112
1, 48671, Note_on_c, 0, 58, 111
1, 48763, Note_off_c, 0, 58, 111
1, 48772, Note_on_c, 0, 60, 103
1, 48847, Note_off_c, 0, 60, 103
1, 48868, Note_on_c, 0, 62, 113
1, 48951, Note_off_c, 0, 62, 113
1, 48966, Note_on_c, 0, 61, 108
1, 49033, Note_off_c, 0, 61, 108
1, 49042, Note_on_c, 0, 60, 111
1, 49143, Note_off_c, 0, 60, 111
1, 49156, Note_on_c, 0, 55, 110
1, 49238, Note_off_c, 0, 55, 110
1, 49438, Note_on_c, 0, 60, 114
1, 49548, Note_off_c, 0, 60, 114
1, 49554, Note_on_c, 0, 65, 118
1, 49660, Note_off_c, 0, 65, 118
1, 49828, Note_on_c, 0, 60, 114
1, 49915, Note_off_c, 0, 60, 114
1, 50115, Note_on_c, 0, 55, 107
1, 50201, Note_off_c, 0, 55, 107
1, 50217, Note_on_c, 0, 60, 108
1, 50307, Note_off_c, 0, 60, 108
1, 50331, Note_on_c, 0, 65, 112
1, 50575, Note_off_c, 0, 65, 112
1, 50594, Note_on_c, 0, 60, 107
1, 50686, Note_off_c, 0, 60, 107
1, 50785, Note_on_c, 0, 55, 102
1, 50900, Note_off_c, 0, 55, 102
1, 50986, Note_on_c, 0, 58, 117
1, 51087, Note_off_c, 0, 58, 117
1, 51096, Note_on_c, 0, 57, 104
1, 51145, Note_off_c, 0, 57, 104
1, 51159, Note_on_c, 0, 55, 107
1, 51255, Note_off_c, 0, 55, 107
1, 51270, Note_on_c, 0, 53, 111
1, 51352, Note_off_c, 0, 53, 111
1, 51361, Note_on_c, 0, 52, 111
1, 51458, Note_off_c, 0, 52, 111
1, 51466, Note_on_c, 0, 48, 111
1, 51556, Note_off_c, 0, 48, 111
1, 51852, Note_on_c, 0, 61, 115
1, 52047, Note_off_c, 0, 61, 115
1, 52049, Note_on_c, 0, 62, 115
1, 52126, Note_off_c, 0, 62, 115
1, 52137, Note_on_c, 0, 60, 93
1, 52457, Note_off_c, 0, 60, 93
1, 52880, Note_on_c, 0, 65, 117
1, 52989, Note_off_c, 0, 65, 117
1, 53088, Note_on_c, 0, 55, 110
1, 53180, Note_off_c, 0, 55, 110
1, 53201, Note_on_c, 0, 65, 109
1, 53258, Note_off_c, 0, 65, 109
1, 53273, Note_on_c, 0, 68, 116
1, 53386, Note_off_c, 0, 68, 116
1, 53404, Note_on_c, 0, 68, 118
1, 53476, Note_off_c, 0, 68, 118
1, 53484, Note_on_c, 0, 67, 117
1, 53574, Note_off_c, 0, 67, 117
1, 53589, Note_on_c, 0, 67, 121
1, 53687, Note_off_c, 0, 67, 121
1, 53694, Note_on_c, 0, 65, 113
1, 53777, Note_off_c, 0, 65, 113
1, 53786, Note_on_c, 0, 65, 112
1, 53841, Note_off_c, 0, 65, 112
1, 53859, Note_on_c, 0, 60, 110
1, 53957, Note_off_c, 0, 60, 110
1, 54064, Note_on_c, 0, 62, 110
1, 54236, Note_off_c, 0, 62, 110
1, 54245, Note_on_c, 0, 60, 90
1, 54575, Note_off_c, 0, 60, 90
1, 55318, Note_on_c, 0, 60, 98
1, 55410, Note_off_c, 0, 60, 98
1, 55501, Note_on_c, 0, 60, 116
1, 55565, Note_off_c, 0, 60, 116
1, 55586, Note_on_c, 0, 62, 112
1, 56422, Note_off_c, 0, 62, 112
1, 56443, Note_on_c, 0, 67, 113
1, 56487, Note_off_c, 0, 67, 113
1, 56504, Note_on_c, 0, 69, 119
1, 56626, Note_off_c, 0, 69, 119
1, 56755, Note_on_c, 0, 62, 111
1, 57018, Note_off_c, 0, 62, 111
1, 57053, Note_on_c, 0, 69, 114
1, 57777, Note_off_c, 0, 69, 114
1, 57886, Note_on_c, 0, 62, 111
1, 57999, Note_off_c, 0, 62, 111
1, 58080, Note_on_c, 0, 68, 114
1, 58205, Note_off_c, 0, 68, 114
1, 58280, Note_on_c, 0, 67, 119
1, 58376, Note_off_c, 0, 67, 119
1, 58401, Note_on_c, 0, 65, 105
1, 58472, Note_off_c, 0, 65, 105
1, 58483, Note_on_c, 0, 67, 118
1, 58572, Note_off_c, 0, 67, 118
1, 58578, Note_on_c, 0, 65, 117
1, 58646, Note_off_c, 0, 65, 117
1, 58676, Note_on_c, 0, 63, 114
1, 58753, Note_off_c, 0, 63, 114
1, 58773, Note_on_c, 0, 60, 116
1, 58842, Note_off_c, 0, 60, 116
1, 58854, Note_on_c, 0, 57, 107
1, 58973, Note_off_c, 0, 57, 107
1, 59003, Note_on_c, 0, 53, 114
1, 59097, Note_off_c, 0, 53, 114
1, 59111, Note_on_c, 0, 55, 105
1, 59170, Note_off_c, 0, 55, 105
1, 59181, Note_on_c, 0, 56, 112
1, 59274, Note_off_c, 0, 56, 112
1, 59297, Note_on_c, 0, 58, 110
1, 59426, Note_off_c, 0, 58, 110
1, 59447, Note_on_c, 0, 59, 109
1, 59536, Note_off_c, 0, 59, 109
1, 59634, Note_on_c, 0, 62, 107
1, 59722, Note_off_c, 0, 62, 107
1, 59733, Note_on_c, 0, 59, 110
1, 59800, Note_off_c, 0, 59, 110
1, 59810, Note_on_c, 0, 60, 101
1, 59895, Note_off_c, 0, 60, 101
1, 59915, Note_on_c, 0, 62, 109
1, 59989, Note_off_c, 0, 62, 109
1, 60010, Note_on_c, 0, 64, 113
1, 60081, Note_off_c, 0, 64, 113
1, 60103, Note_on_c, 0, 65, 100
1, 60177, Note_off_c, 0, 65, 100
1, 60182, Note_on_c, 0, 67, 113
1, 60291, Note_off_c, 0, 67, 113
1, 60321, Note_on_c, 0, 65, 101
1, 60370, Note_off_c, 0, 65, 101
1, 60387, Note_on_c, 0, 67, 111
1, 60498, Note_off_c, 0, 67, 111
1, 60508, Note_on_c, 0, 65, 113
1, 60592, Note_off_c, 0, 65, 113
1, 61145, Note_on_c, 0, 62, 110
1, 61270, Note_off_c, 0, 62, 110
1, 61272, Note_on_c, 0, 64, 114
1, 61312, Note_off_c, 0, 64, 114
1, 61320, Note_on_c, 0, 65, 112
1, 61351, Note_off_c, 0, 65, 112
1, 61353, Note_on_c, 0, 69, 116
1, 61435, Note_off_c, 0, 69, 116
1, 61466, Note_on_c, 0, 60, 108
1, 61539, Note_off_c, 0, 60, 108
1, 61559, Note_on_c, 0, 62, 109
1, 61717, Note_off_c, 0, 62, 109
1, 61727, Note_on_c, 0, 67, 109
1, 62123, Note_off_c, 0, 67, 109
1, 62337, Note_on_c, 0, 62, 109
1, 62431, Note_off_c, 0, 62, 109
1, 62437, Note_on_c, 0, 65, 111
1, 62465, Note_off_c, 0, 65, 111
1, 62470, Note_on_c, 0, 67, 113
1, 62493, Note_off_c, 0, 67, 113
1, 62497, Note_on_c, 0, 69, 116
1, 62595, Note_off_c, 0, 69, 116
1, 62704, Note_on_c, 0, 62, 105
1, 62795, Note_off_c, 0, 62, 105
1, 62901, Note_on_c, 0, 67, 117
1, 62998, Note_off_c, 0, 67, 117
1, 63012, Note_on_c, 0, 65, 111
1, 63056, Note_off_c, 0, 65, 111
1, 63089, Note_on_c, 0, 67, 115
1, 63186, Note_off_c, 0, 67, 115
1, 63194, Note_on_c, 0, 65, 113
1, 63274, Note_off_c, 0, 65, 113
1, 63289, Note_on_c, 0, 64, 110
1, 63391, Note_off_c, 0, 64, 110
1, 63398, Note_on_c, 0, 62, 110
1, 63478, Note_off_c, 0, 62, 110
1, 63857, Note_on_c, 0, 65, 116
1, 63957, Note_off_c, 0, 65, 116
1, 63967, Note_on_c, 0, 62, 96
1, 64030, Note_off_c, 0, 62, 96
1, 64045, Note_on_c, 0, 64, 114
1, 64136, Note_off_c, 0, 64, 114
1, 64152, Note_on_c, 0, 62, 111
1, 64225, Note_off_c, 0, 62, 111
1, 64237, Note_on_c, 0, 60, 110
1, 64355, Note_off_c, 0, 60, 110
1, 64364, Note_on_c, 0, 59, 113
1, 64428, Note_off_c, 0, 59, 113
1, 64434, Note_on_c, 0, 58, 113
1, 64545, Note_off_c, 0, 58, 113
1, 64560, Note_on_c, 0, 56, 109
1, 64623, Note_off_c, 0, 56, 109
1, 64636, Note_on_c, 0, 57, 106
1, 64738, Note_off_c, 0, 57, 106
1, 64755, Note_on_c, 0, 58, 112
1, 64820, Note_off_c, 0, 58, 112
1, 64830, Note_on_c, 0, 59, 110
1, 64925, Note_off_c, 0, 59, 110
1, 64941, Note_on_c, 0, 60, 108
1, 65009, Note_off_c, 0, 60, 108
1, 65019, Note_on_c, 0, 62, 106
1, 65119, Note_off_c, 0, 62, 106
1, 65143, Note_on_c, 0, 59, 96
1, 65204, Note_off_c, 0, 59, 96
1, 65218, Note_on_c, 0, 60, 113
1, 65311, Note_off_c, 0, 60, 113
1, 65326, Note_on_c, 0, 62, 107
1, 65378, Note_off_c, 0, 62, 107
1, 65393, Note_on_c, 0, 63, 112
1, 65515, Note_off_c, 0, 63, 112
1, 65521, Note_on_c, 0, 64, 100
1, 65559, Note_off_c, 0, 64, 100
1, 65573, Note_on_c, 0, 63, 113
1, 65641, Note_off_c, 0, 63, 113
1, 65668, Note_on_c, 0, 62, 104
1, 65753, Note_off_c, 0, 62, 104
1, 65765, Note_on_c, 0, 61, 109
1, 65856, Note_off_c, 0, 61, 109
1, 65866, Note_on_c, 0, 60, 90
1, 65940, Note_off_c, 0, 60, 90
1, 66178, Note_on_c, 0, 59, 111
1, 66264, Note_off_c, 0, 59, 111
1, 66341, Note_on_c, 0, 62, 111
1, 66463, Note_off_c, 0, 62, 111
1, 66520, Note_on_c, 0, 60, 110
1, 66639, Note_off_c, 0, 60, 110
1, 66659, Note_on_c, 0, 57, 111
1, 66727, Note_off_c, 0, 57, 111
1, 66751, Note_on_c, 0, 53, 102
1, 66841, Note_off_c, 0, 53, 102
1, 66929, Note_on_c, 0, 58, 114
1, 67028, Note_off_c, 0, 58, 114
1, 67041, Note_on_c, 0, 57, 112
1, 67108, Note_off_c, 0, 57, 112
1, 67122, Note_on_c, 0, 55, 108
1, 67226, Note_off_c, 0, 55, 108
1, 67233, Note_on_c, 0, 53, 109
1, 67314, Note_off_c, 0, 53, 109
1, 67342, Note_on_c, 0, 51, 104
1, 67429, Note_off_c, 0, 51, 104
1, 67444, Note_on_c, 0, 52, 106
1, 67671, Note_off_c, 0, 52, 106
1, 67685, Note_on_c, 0, 55, 104
1, 67787, Note_off_c, 0, 55, 104
1, 67883, Note_on_c, 0, 59, 109
1, 67994, Note_off_c, 0, 59, 109
1, 68068, Note_on_c, 0, 62, 110
1, 68190, Note_off_c, 0, 62, 110
1, 68263, Note_on_c, 0, 66, 106
1, 68552, Note_off_c, 0, 66, 106
1, 68594, Note_on_c, 0, 62, 107
1, 68674, Note_off_c, 0, 62, 107
1, 68688, Note_on_c, 0, 65, 113
1, 68841, Note_off_c, 0, 65, 113
1, 68850, Note_on_c, 0, 61, 111
1, 68942, Note_off_c, 0, 61, 111
1, 68985, Note_on_c, 0, 63, 112
1, 69045, Note_off_c, 0, 63, 112
1, 69053, Note_on_c, 0, 64, 108
1, 69256, Note_off_c, 0, 64, 108
1, 69265, Note_on_c, 0, 60, 109
1, 69366, Note_off_c, 0, 60, 109
1, 69371, Note_on_c, 0, 57, 113
1, 69463, Note_off_c, 0, 57, 113
1, 69948, Note_on_c, 0, 57, 110
1, 70020, Note_off_c, 0, 57, 110
1, 70047, Note_on_c, 0, 60, 109
1, 70142, Note_off_c, 0, 60, 109
1, 70156, Note_on_c, 0, 64, 116
1, 70229, Note_off_c, 0, 64, 116
1, 70236, Note_on_c, 0, 63, 117
1, 70311, Note_off_c, 0, 63, 117
1, 70323, Note_on_c, 0, 60, 118
1, 70391, Note_off_c, 0, 60, 118
1, 70398, Note_on_c, 0, 57, 111
1, 70448, Note_off_c, 0, 57, 111
1, 70614, Note_on_c, 0, 61, 119
1, 70690, Note_off_c, 0, 61, 119
1, 70695, Note_on_c, 0, 62, 107
1, 70787, Note_off_c, 0, 62, 107
1, 70797, Note_on_c, 0, 59, 108
1, 70870, Note_off_c, 0, 59, 108
1, 70897, Note_on_c, 0, 55, 104
1, 71008, Note_off_c, 0, 55, 104
1, 71436, Note_on_c, 0, 55, 108
1, 71524, Note_off_c, 0, 55, 108
1, 71532, Note_on_c, 0, 59, 107
1, 71624, Note_off_c, 0, 59, 107
1, 71628, Note_on_c, 0, 62, 116
1, 71711, Note_off_c, 0, 62, 116
1, 71718, Note_on_c, 0, 61, 106
1, 71793, Note_off_c, 0, 61, 106
1, 71819, Note_on_c, 0, 59, 113
1, 71899, Note_off_c, 0, 59, 113
1, 72098, Note_on_c, 0, 60, 113
1, 72214, Note_off_c, 0, 60, 113
1, 72221, Note_on_c, 0, 59, 103
1, 72300, Note_off_c, 0, 59, 103
1, 72310, Note_on_c, 0, 58, 101
1, 72392, Note_off_c, 0, 58, 101
1, 72407, Note_on_c, 0, 56, 110
1, 72479, Note_off_c, 0, 56, 110
1, 72489, Note_on_c, 0, 57, 104
1, 72591, Note_off_c, 0, 57, 104
1, 72610, Note_on_c, 0, 60, 108
1, 72658, Note_off_c, 0, 60, 108
1, 72665, Note_on_c, 0, 62, 111
1, 72783, Note_off_c, 0, 62, 111
1, 73062, Note_on_c, 0, 54, 113
1, 73136, Note_off_c, 0, 54, 113
1, 73160, Note_on_c, 0, 57, 107
1, 73247, Note_off_c, 0, 57, 107
1, 73267, Note_on_c, 0, 60, 104
1, 73354, Note_off_c, 0, 60, 104
1, 73361, Note_on_c, 0, 63, 112
1, 73441, Note_off_c, 0, 63, 112
1, 73448, Note_on_c, 0, 60, 96
1, 73523, Note_off_c, 0, 60, 96
1, 73531, Note_on_c, 0, 61, 92
1, 73608, Note_off_c, 0, 61, 92
1, 73620, Note_on_c, 0, 62, 108
1, 73708, Note_off_c, 0, 62, 108
1, 73730, Note_on_c, 0, 61, 108
1, 73816, Note_off_c, 0, 61, 108
1, 73825, Note_on_c, 0, 60, 108
1, 73913, Note_off_c, 0, 60, 108
1, 73925, Note_on_c, 0, 59, 113
1, 73997, Note_off_c, 0, 59, 113
1, 74004, Note_on_c, 0, 58, 111
1, 74103, Note_off_c, 0, 58, 111
1, 74123, Note_on_c, 0, 56, 102
1, 74183, Note_off_c, 0, 56, 102
1, 74189, Note_on_c, 0, 57, 117
1, 74283, Note_off_c, 0, 57, 117
1, 74301, Note_on_c, 0, 55, 113
1, 74373, Note_off_c, 0, 55, 113
1, 74390, Note_on_c, 0, 53, 110
1, 74481, Note_off_c, 0, 53, 110
1, 74503, Note_on_c, 0, 51, 111
1, 74599, Note_off_c, 0, 51, 111
1, 74603, Note_on_c, 0, 52, 102
1, 74697, Note_off_c, 0, 52, 102
1, 74708, Note_on_c, 0, 55, 109
1, 74778, Note_off_c, 0, 55, 109
1, 74793, Note_on_c, 0, 57, 106
1, 74879, Note_off_c, 0, 57, 106
1, 74886, Note_on_c, 0, 60, 95
1, 74961, Note_off_c, 0, 60, 95
1, 74972, Note_on_c, 0, 63, 114
1, 75078, Note_off_c, 0, 63, 114
1, 75187, Note_on_c, 0, 63, 115
1, 75257, Note_off_c, 0, 63, 115
1, 75263, Note_on_c, 0, 61, 115
1, 75363, Note_off_c, 0, 61, 115
1, 75367, Note_on_c, 0, 60, 113
1, 75427, Note_off_c, 0, 60, 113
1, 75452, Note_on_c, 0, 58, 105
1, 75528, Note_off_c, 0, 58, 105
1, 75540, Note_on_c, 0, 60, 113
1, 75637, Note_off_c, 0, 60, 113
1, 75669, Note_on_c, 0, 58, 112
1, 75770, Note_off_c, 0, 58, 112
1, 76087, Note_on_c, 0, 60, 115
1, 76190, Note_off_c, 0, 60, 115
1, 76196, Note_on_c, 0, 59, 119
1, 76256, Note_off_c, 0, 59, 119
1, 76264, Note_on_c, 0, 58, 117
1, 76358, Note_off_c, 0, 58, 117
1, 76380, Note_on_c, 0, 56, 112
1, 76436, Note_off_c, 0, 56, 112
1, 76463, Note_on_c, 0, 57, 112
1, 76526, Note_off_c, 0, 57, 112
1, 76545, Note_on_c, 0, 60, 103
1, 76598, Note_off_c, 0, 60, 103
1, 76607, Note_on_c, 0, 62, 112
1, 76661, Note_off_c, 0, 62, 112
1, 76669, Note_on_c, 0, 65, 115
1, 76773, Note_off_c, 0, 65, 115
1, 76789, Note_on_c, 0, 65, 122
1, 76887, Note_off_c, 0, 65, 122
1, 77043, Note_on_c, 0, 53, 106
1, 77132, Note_off_c, 0, 53, 106
1, 77335, Note_on_c, 0, 65, 118
1, 77454, Note_off_c, 0, 65, 118
1, 77608, Note_on_c, 0, 65, 120
1, 77705, Note_off_c, 0, 65, 120
1, 77721, Note_on_c, 0, 65, 120
1, 77794, Note_off_c, 0, 65, 120
1, 77809, Note_on_c, 0, 65, 119
1, 77897, Note_off_c, 0, 65, 119
1, 77910, Note_on_c, 0, 65, 117
1, 78016, Note_off_c, 0, 65, 117
1, 78171, Note_on_c, 0, 65, 119
1, 78279, Note_off_c, 0, 65, 119
1, 78304, Note_on_c, 0, 65, 103
1, 78463, Note_off_c, 0, 65, 103
1, 78470, Note_on_c, 0, 65, 121
1, 78588, Note_off_c, 0, 65, 121
1, 79275, Note_on_c, 0, 60, 115
1, 79381, Note_off_c, 0, 60, 115
1, 79398, Note_on_c, 0, 62, 116
1, 79462, Note_off_c, 0, 62, 116
1, 79474, Note_on_c, 0, 64, 110
1, 79550, Note_off_c, 0, 64, 110
1, 79571, Note_on_c, 0, 65, 122
1, 79655, Note_off_c, 0, 65, 122
1, 79712, Note_on_c, 0, 58, 96
1, 79758, Note_off_c, 0, 58, 96
1, 79784, Note_on_c, 0, 60, 92
1, 79835, Note_off_c, 0, 60, 92
1, 79849, Note_on_c, 0, 62, 111
1, 79913, Note_off_c, 0, 62, 111
1, 79961, Note_on_c, 0, 64, 114
1, 80010, Note_off_c, 0, 64, 114
1, 80024, Note_on_c, 0, 55, 98
1, 80114, Note_off_c, 0, 55, 98
1, 80131, Note_on_c, 0, 57, 98
1, 80201, Note_off_c, 0, 57, 98
1, 80219, Note_on_c, 0, 58, 115
1, 80325, Note_off_c, 0, 58, 115
1, 80422, Note_on_c, 0, 62, 107
1, 80506, Note_off_c, 0, 62, 107
1, 80531, Note_on_c, 0, 60, 96
1, 80599, Note_off_c, 0, 60, 96
1, 80616, Note_on_c, 0, 58, 105
1, 80702, Note_off_c, 0, 58, 105
1, 80722, Note_on_c, 0, 57, 115
1, 80776, Note_off_c, 0, 57, 115
1, 80796, Note_on_c, 0, 55, 106
1, 80880, Note_off_c, 0, 55, 106
1, 80921, Note_on_c, 0, 53, 110
1, 80993, Note_off_c, 0, 53, 110
1, 80998, Note_on_c, 0, 50, 99
1, 81109, Note_off_c, 0, 50, 99
1, 81112, Note_on_c, 0, 51, 110
1, 81182, Note_off_c, 0, 51, 110
1, 81188, Note_on_c, 0, 52, 104
1, 81244, Note_off_c, 0, 52, 104
1, 81295, Note_on_c, 0, 55, 109
1, 81362, Note_off_c, 0, 55, 109
1, 81364, Note_on_c, 0, 57, 109
1, 81468, Note_off_c, 0, 57, 109
1, 81493, Note_on_c, 0, 62, 93
1, 81524, Note_off_c, 0, 62, 93
1, 81569, Note_on_c, 0, 66, 117
1, 81666, Note_off_c, 0, 66, 117
1, 81677, Note_on_c, 0, 62, 110
1, 81743, Note_off_c, 0, 62, 110
1, 81749, Note_on_c, 0, 58, 100
1, 81833, Note_off_c, 0, 58, 100
1, 81941, Note_on_c, 0, 65, 116
1, 82035, Note_off_c, 0, 65, 116
1, 82132, Note_on_c, 0, 63, 103
1, 82213, Note_off_c, 0, 63, 103
1, 82225, Note_on_c, 0, 64, 113
1, 82289, Note_off_c, 0, 64, 113
1, 82312, Note_on_c, 0, 60, 96
1, 82400, Note_off_c, 0, 60, 96
1, 82408, Note_on_c, 0, 61, 89
1, 82476, Note_off_c, 0, 61, 89
1, 82500, Note_on_c, 0, 62, 112
1, 82581, Note_off_c, 0, 62, 112
1, 82589, Note_on_c, 0, 61, 115
1, 82678, Note_off_c, 0, 61, 115
1, 82686, Note_on_c, 0, 60, 112
1, 82767, Note_off_c, 0, 60, 112
1, 82774, Note_on_c, 0, 59, 111
1, 82855, Note_off_c, 0, 59, 111
1, 82860, Note_on_c, 0, 58, 110
1, 82974, Note_off_c, 0, 58, 110
1, 82977, Note_on_c, 0, 56, 94
1, 83038, Note_off_c, 0, 56, 94
1, 83065, Note_on_c, 0, 57, 115
1, 83161, Note_off_c, 0, 57, 115
1, 83166, Note_on_c, 0, 55, 110
1, 83235, Note_off_c, 0, 55, 110
1, 83246, Note_on_c, 0, 53, 108
1, 83326, Note_off_c, 0, 53, 108
1, 83479, Note_on_c, 0, 56, 101
1, 83666, Note_off_c, 0, 56, 101
1, 83678, Note_on_c, 0, 55, 93
1, 83735, Note_off_c, 0, 55, 93
1, 83798, Note_on_c, 0, 53, 109
1, 83998, Note_off_c, 0, 53, 109
1, 84664, Note_on_c, 0, 56, 117
1, 84744, Note_off_c, 0, 56, 117
1, 84757, Note_on_c, 0, 55, 106
1, 84844, Note_off_c, 0, 55, 106
1, 84862, Note_on_c, 0, 53, 114
1, 84965, Note_off_c, 0, 53, 114
1, 84968, Note_on_c, 0, 51, 107
1, 85056, Note_off_c, 0, 51, 107
1, 85076, Note_on_c, 0, 52, 106
1, 85117, Note_off_c, 0, 52, 106
1, 85148, Note_on_c, 0, 50, 107
1, 85202, Note_off_c, 0, 50, 107
1, 85233, Note_on_c, 0, 48, 106
1, 85313, Note_off_c, 0, 48, 106
1, 85778, Note_on_c, 0, 48, 110
1, 85848, Note_off_c, 0, 48, 110
1, 85868, Note_on_c, 0, 49, 103
1, 85954, Note_off_c, 0, 49, 103
1, 85964, Note_on_c, 0, 50, 111
1, 86032, Note_off_c, 0, 50, 111
1, 86050, Note_on_c, 0, 53, 111
1, 86164, Note_off_c, 0, 53, 111
1, 86169, Note_on_c, 0, 55, 109
1, 86219, Note_off_c, 0, 55, 109
1, 86247, Note_on_c, 0, 57, 114
1, 86326, Note_off_c, 0, 57, 114
1, 86428, Note_on_c, 0, 60, 101
1, 86668, Note_off_c, 0, 60, 101
1, 86705, Note_on_c, 0, 59, 112
1, 86778, Note_off_c, 0, 59, 112
1, 86789, Note_on_c, 0, 58, 113
1, 86890, Note_off_c, 0, 58, 113
1, 86926, Note_on_c, 0, 55, 109
1, 87018, Note_off_c, 0, 55, 109
1, 87260, Note_on_c, 0, 48, 110
1, 87337, Note_off_c, 0, 48, 110
1, 87347, Note_on_c, 0, 49, 102
1, 87447, Note_off_c, 0, 49, 102
1, 87454, Note_on_c, 0, 50, 103
1, 87528, Note_off_c, 0, 50, 103
1, 87562, Note_on_c, 0, 53, 110
1, 87639, Note_off_c, 0, 53, 110
1, 87670, Note_on_c, 0, 57, 114
1, 87734, Note_off_c, 0, 57, 114
1, 87743, Note_on_c, 0, 60, 107
1, 87831, Note_off_c, 0, 60, 107
1, 87933, Note_on_c, 0, 57, 110
1, 88118, Note_off_c, 0, 57, 110
1, 88141, Note_on_c, 0, 58, 118
1, 88212, Note_off_c, 0, 58, 118
1, 88321, Note_on_c, 0, 55, 99
1, 88551, Note_off_c, 0, 55, 99
1, 88592, Note_on_c, 0, 56, 108
1, 88688, Note_off_c, 0, 56, 108
1, 88698, Note_on_c, 0, 57, 109
1, 88814, Note_off_c, 0, 57, 109
1, 88825, Note_on_c, 0, 60, 98
1, 88872, Note_off_c, 0, 60, 98
1, 88895, Note_on_c, 0, 62, 112
1, 88977, Note_off_c, 0, 62, 112
1, 88999, Note_on_c, 0, 61, 114
1, 89056, Note_off_c, 0, 61, 114
1, 89068, Note_on_c, 0, 60, 109
1, 89151, Note_off_c, 0, 60, 109
1, 89192, Note_on_c, 0, 57, 114
1, 89266, Note_off_c, 0, 57, 114
1, 89276, Note_on_c, 0, 53, 100
1, 89356, Note_off_c, 0, 53, 100
1, 89464, Note_on_c, 0, 58, 113
1, 89551, Note_off_c, 0, 58, 113
1, 89565, Note_on_c, 0, 56, 94
1, 89607, Note_off_c, 0, 56, 94
1, 89657, Note_on_c, 0, 58, 118
1, 89734, Note_off_c, 0, 58, 118
1, 89748, Note_on_c, 0, 56, 113
1, 89819, Note_off_c, 0, 56, 113
1, 89839, Note_on_c, 0, 55, 107
1, 89923, Note_off_c, 0, 55, 107
1, 89951, Note_on_c, 0, 53, 116
1, 90015, Note_off_c, 0, 53, 116
1, 90023, Note_on_c, 0, 52, 109
1, 90084, Note_off_c, 0, 52, 109
1, 90105, Note_on_c, 0, 50, 111
1, 90177, Note_off_c, 0, 50, 111
1, 90192, Note_on_c, 0, 48, 110
1, 90278, Note_off_c, 0, 48, 110
1, 90292, Note_on_c, 0, 47, 92
1, 90348, Note_off_c, 0, 47, 92
1, 90374, Note_on_c, 0, 50, 111
1, 90506, Note_off_c, 0, 50, 111
1, 90518, Note_on_c, 0, 47, 106
1, 90578, Note_off_c, 0, 47, 106
1, 90597, Note_on_c, 0, 48, 103
1, 90683, Note_off_c, 0, 48, 103
1, 90686, Note_on_c, 0, 50, 108
1, 90735, Note_off_c, 0, 50, 108
1, 90748, Note_on_c, 0, 52, 106
1, 90829, Note_off_c, 0, 52, 106
1, 90898, Note_on_c, 0, 53, 99
1, 90952, Note_off_c, 0, 53, 99
1, 90956, Note_on_c, 0, 55, 110
1, 91023, Note_off_c, 0, 55, 110
1, 91088, Note_on_c, 0, 53, 113
1, 91178, Note_off_c, 0, 53, 113
1, 91266, Note_on_c, 0, 61, 111
1, 91303, Note_off_c, 0, 61, 111
1, 91310, Note_on_c, 0, 62, 114
1, 91734, Note_off_c, 0, 62, 114
1, 92099, Note_on_c, 0, 49, 108
1, 92187, Note_off_c, 0, 49, 108
1, 92211, Note_on_c, 0, 52, 109
1, 92268, Note_off_c, 0, 52, 109
1, 92285, Note_on_c, 0, 55, 103
1, 92379, Note_off_c, 0, 55, 103
1, 92384, Note_on_c, 0, 57, 105
1, 92466, Note_off_c, 0, 57, 105
1, 92496, Note_on_c, 0, 60, 113
1, 92584, Note_off_c, 0, 60, 113
1, 92597, Note_on_c, 0, 58, 117
1, 92671, Note_off_c, 0, 58, 117
1, 93040, Note_on_c, 0, 49, 109
1, 93135, Note_off_c, 0, 49, 109
1, 93251, Note_on_c, 0, 50, 110
1, 93483, Note_off_c, 0, 50, 110
1, 93551, Note_on_c, 0, 62, 116
1, 93915, Note_off_c, 0, 62, 116
1, 93950, Note_on_c, 0, 59, 111
1, 94018, Note_off_c, 0, 59, 111
1, 94039, Note_on_c, 0, 57, 111
1, 94113, Note_off_c, 0, 57, 111
1, 94135, Note_on_c, 0, 50, 98
1, 94281, Note_off_c, 0, 50, 98
1, 94728, Note_on_c, 0, 50, 111
1, 94845, Note_off_c, 0, 50, 111
1, 94941, Note_on_c, 0, 62, 119
1, 95056, Note_off_c, 0, 62, 119
1, 95143, Note_on_c, 0, 61, 107
1, 95193, Note_off_c, 0, 61, 107
1, 95201, Note_on_c, 0, 60, 106
1, 95243, Note_off_c, 0, 60, 106
1, 95247, Note_on_c, 0, 58, 116
1, 95278, Note_off_c, 0, 58, 116
1, 95287, Note_on_c, 0, 57, 114
1, 95344, Note_off_c, 0, 57, 114
1, 95383, Note_on_c, 0, 53, 108
1, 95450, Note_off_c, 0, 53, 108
1, 95457, Note_on_c, 0, 51, 100
1, 95507, Note_off_c, 0, 51, 100
1, 95554, Note_on_c, 0, 60, 111
1, 95644, Note_off_c, 0, 60, 111
1, 95703, Note_on_c, 0, 57, 107
1, 95748, Note_off_c, 0, 57, 107
1, 95751, Note_on_c, 0, 58, 105
1, 95817, Note_off_c, 0, 58, 105
1, 95828, Note_on_c, 0, 59, 110
1, 95911, Note_off_c, 0, 59, 110
1, 96113, Note_on_c, 0, 57, 116
1, 96202, Note_off_c, 0, 57, 116
1, 96210, Note_on_c, 0, 56, 112
1, 96276, Note_off_c, 0, 56, 112
1, 96283, Note_on_c, 0, 55, 103
1, 96353, Note_off_c, 0, 55, 103
1, 96368, Note_on_c, 0, 54, 109
1, 96443, Note_off_c, 0, 54, 109
1, 96451, Note_on_c, 0, 53, 113
1, 96586, Note_off_c, 0, 53, 113
1, 96590, Note_on_c, 0, 51, 104
1, 96661, Note_off_c, 0, 51, 104
1, 96687, Note_on_c, 0, 52, 101
1, 96769, Note_off_c, 0, 52, 101
1, 96795, Note_on_c, 0, 55, 107
1, 96839, Note_off_c, 0, 55, 107
1, 96859, Note_on_c, 0, 57, 116
1, 96958, Note_off_c, 0, 57, 116
1, 97038, Note_on_c, 0, 60, 111
1, 97137, Note_off_c, 0, 60, 111
1, 97224, Note_on_c, 0, 54, 119
1, 97296, Note_off_c, 0, 54, 119
1, 97326, Note_on_c, 0, 58, 108
1, 97396, Note_off_c, 0, 58, 108
1, 97406, Note_on_c, 0, 62, 104
1, 97481, Note_off_c, 0, 62, 104
1, 97508, Note_on_c, 0, 66, 115
1, 97585, Note_off_c, 0, 66, 115
1, 97601, Note_on_c, 0, 62, 94
1, 97659, Note_off_c, 0, 62, 94
1, 97806, Note_on_c, 0, 65, 118
1, 97892, Note_off_c, 0, 65, 118
1, 97978, Note_on_c, 0, 63, 104
1, 98061, Note_off_c, 0, 63, 104
1, 98075, Note_on_c, 0, 64, 113
1, 98162, Note_off_c, 0, 64, 113
1, 98179, Note_on_c, 0, 60, 93
1, 98260, Note_off_c, 0, 60, 93
1, 98282, Note_on_c, 0, 61, 92
1, 98356, Note_off_c, 0, 61, 92
1, 98368, Note_on_c, 0, 62, 116
1, 98460, Note_off_c, 0, 62, 116
1, 98478, Note_on_c, 0, 61, 118
1, 98542, Note_off_c, 0, 61, 118
1, 98559, Note_on_c, 0, 60, 112
1, 98638, Note_off_c, 0, 60, 112
1, 98652, Note_on_c, 0, 59, 114
1, 98728, Note_off_c, 0, 59, 114
1, 98732, Note_on_c, 0, 58, 114
1, 98803, Note_off_c, 0, 58, 114
1, 98809, Note_on_c, 0, 56, 95
1, 98884, Note_off_c, 0, 56, 95
1, 98914, Note_on_c, 0, 57, 117
1, 98999, Note_off_c, 0, 57, 117
1, 99014, Note_on_c, 0, 55, 112
1, 99093, Note_off_c, 0, 55, 112
1, 99105, Note_on_c, 0, 54, 100
1, 99172, Note_off_c, 0, 54, 100
1, 99215, Note_on_c, 0, 55, 95
1, 99259, Note_off_c, 0, 55, 95
1, 99309, Note_on_c, 0, 57, 117
1, 99411, Note_off_c, 0, 57, 117
1, 99435, Note_on_c, 0, 54, 114
1, 99496, Note_off_c, 0, 54, 114
1, 99540, Note_on_c, 0, 57, 105
1, 99609, Note_off_c, 0, 57, 105
1, 99622, Note_on_c, 0, 60, 107
1, 99652, Note_off_c, 0, 60, 107
1, 99664, Note_on_c, 0, 62, 108
1, 99692, Note_off_c, 0, 62, 108
1, 99718, Note_on_c, 0, 65, 115
1, 99865, Note_off_c, 0, 65, 115
1, 99872, Note_on_c, 0, 62, 110
1, 99945, Note_off_c, 0, 62, 110
1, 99986, Note_on_c, 0, 55, 107
1, 100055, Note_off_c, 0, 55, 107
1, 100516, Note_on_c, 0, 55, 112
1, 100593, Note_off_c, 0, 55, 112
1, 100596, Note_on_c, 0, 56, 115
1, 100692, Note_off_c, 0, 56, 115
1, 100702, Note_on_c, 0, 57, 106
1, 100783, Note_off_c, 0, 57, 106
1, 100796, Note_on_c, 0, 62, 112
1, 100885, Note_off_c, 0, 62, 112
1, 100901, Note_on_c, 0, 60, 116
1, 100963, Note_off_c, 0, 60, 116
1, 100988, Note_on_c, 0, 57, 111
1, 101038, Note_off_c, 0, 57, 111
1, 101063, Note_on_c, 0, 53, 107
1, 101140, Note_off_c, 0, 53, 107
1, 101184, Note_on_c, 0, 58, 116
1, 101278, Note_off_c, 0, 58, 116
1, 101290, Note_on_c, 0, 56, 107
1, 101338, Note_off_c, 0, 56, 107
1, 101376, Note_on_c, 0, 58, 114
1, 101462, Note_off_c, 0, 58, 114
1, 101476, Note_on_c, 0, 56, 101
1, 101525, Note_off_c, 0, 56, 101
1, 101559, Note_on_c, 0, 58, 118
1, 101642, Note_off_c, 0, 58, 118
1, 101650, Note_on_c, 0, 56, 95
1, 101720, Note_off_c, 0, 56, 95
1, 101745, Note_on_c, 0, 58, 117
1, 101839, Note_off_c, 0, 58, 117
1, 101853, Note_on_c, 0, 56, 105
1, 101924, Note_off_c, 0, 56, 105
1, 101965, Note_on_c, 0, 58, 118
1, 102049, Note_off_c, 0, 58, 118
1, 102066, Note_on_c, 0, 56, 113
1, 102139, Note_off_c, 0, 56, 113
1, 102164, Note_on_c, 0, 53, 107
1, 102237, Note_off_c, 0, 53, 107
1, 102344, Note_on_c, 0, 56, 110
1, 102450, Note_off_c, 0, 56, 110
1, 102466, Note_on_c, 0, 57, 115
1, 102521, Note_off_c, 0, 57, 115
1, 102538, Note_on_c, 0, 58, 116
1, 102613, Note_off_c, 0, 58, 116
1, 102620, Note_on_c, 0, 59, 102
1, 102669, Note_off_c, 0, 59, 102
1, 102717, Note_on_c, 0, 60, 100
1, 102825, Note_off_c, 0, 60, 100
1, 102846, Note_on_c, 0, 65, 127
1, 102906, Note_off_c, 0, 65, 127
1, 102910, Note_on_c, 0, 66, 125
1, 102947, Note_off_c, 0, 66, 125
1, 102954, Note_on_c, 0, 65, 107
1, 103393, Note_off_c, 0, 65, 107
1, 103398, Note_on_c, 0, 64, 114
1, 103464, Note_off_c, 0, 64, 114
1, 103467, Note_on_c, 0, 62, 118
1, 103524, Note_off_c, 0, 62, 118
1, 103529, Note_on_c, 0, 60, 116
1, 103586, Note_off_c, 0, 60, 116
1, 103590, Note_on_c, 0, 58, 118
1, 103644, Note_off_c, 0, 58, 118
1, 103652, Note_on_c, 0, 57, 115
1, 103696, Note_off_c, 0, 57, 115
1, 103701, Note_on_c, 0, 55, 109
1, 103744, Note_off_c, 0, 55, 109
1, 103761, Note_on_c, 0, 53, 113
1, 103811, Note_off_c, 0, 53, 113
1, 103823, Note_on_c, 0, 51, 111
1, 103862, Note_off_c, 0, 51, 111
1, 103869, Note_on_c, 0, 50, 106
1, 103959, Note_off_c, 0, 50, 106
1, 103959, End_track
0, 0, End_of_file
