0, 0, Header, 1, 1, 192
1, 0, Start_track
1, 0, Title_t, "Melody"
1, 0, Tempo, 434782
1, 0, Key_signature, 1, "major"
1, 0, Time_signature, 4, 2, 24, 8
1, 912, Note_on_c, 0, 55, 105
1, 1026, Note_off_c, 0, 55, 105
1, 1036, Note_on_c, 0, 50, 98
1, 1105, Note_off_c, 0, 50, 98
1, 1114, Note_on_c, 0, 47, 99
1, 1221, Note_off_c, 0, 47, 99
1, 1231, Note_on_c, 0, 44, 98
1, 1313, Note_off_c, 0, 44, 98
1, 1321, Note_on_c, 0, 47, 94
1, 1447, Note_off_c, 0, 47, 94
1, 1519, Note_on_c, 0, 52, 100
1, 1645, Note_off_c, 0, 52, 100
1, 1656, Note_on_c, 0, 52, 98
1, 1711, Note_off_c, 0, 52, 98
1, 1726, Note_on_c, 0, 50, 94
1, 1827, Note_off_c, 0, 50, 94
1, 1831, Note_on_c, 0, 46, 104
1, 1920, Note_off_c, 0, 46, 104
1, 1934, Note_on_c, 0, 48, 97
1, 2061, Note_off_c, 0, 48, 97
1, 2108, Note_on_c, 0, 55, 115
1, 2234, Note_off_c, 0, 55, 115
1, 2242, Note_on_c, 0, 57, 119
1, 2307, Note_off_c, 0, 57, 119
1, 2321, Note_on_c, 0, 58, 113
1, 2418, Note_off_c, 0, 58, 113
1, 2427, Note_on_c, 0, 59, 113
1, 2503, Note_off_c, 0, 59, 113
1, 2526, Note_on_c, 0, 60, 118
1, 2629, Note_off_c, 0, 60, 118
1, 2644, Note_on_c, 0, 61, 118
1, 2723, Note_off_c, 0, 61, 118
1, 2730, Note_on_c, 0, 62, 114
1, 2840, Note_off_c, 0, 62, 114
1, 2846, Note_on_c, 0, 67, 105
1, 2916, Note_off_c, 0, 67, 105
1, 2925, Note_on_c, 0, 64, 106
1, 3023, Note_off_c, 0, 64, 106
1, 3037, Note_on_c, 0, 63, 114
1, 3133, Note_off_c, 0, 63, 114
1, 3144, Note_on_c, 0, 62, 108
1, 3221, Note_off_c, 0, 62, 108
1, 3239, Note_on_c, 0, 55, 95
1, 3291, Note_off_c, 0, 55, 95
1, 3303, Note_on_c, 0, 57, 109
1, 3424, Note_off_c, 0, 57, 109
1, 3450, Note_on_c, 0, 58, 92
1, 3657, Note_off_c, 0, 58, 92
1, 3991, Note_on_c, 0, 62, 113
1, 4050, Note_off_c, 0, 62, 113
1, 4060, Note_on_c, 0, 64, 110
1, 4184, Note_off_c, 0, 64, 110
1, 4197, Note_on_c, 0, 63, 114
1, 4282, Note_off_c, 0, 63, 114
1, 4290, Note_on_c, 0, 62, 106
1, 4367, Note_off_c, 0, 62, 106
1, 4386, Note_on_c, 0, 55, 111
1, 4458, Note_off_c, 0, 55, 111
1, 4462, Note_on_c, 0, 57, 112
1, 4566, Note_off_c, 0, 57, 112
1, 4583, Note_on_c, 0, 60, 117
1, 4665, Note_off_c, 0, 60, 117
1, 4673, Note_on_c, 0, 59, 106
1, 4755, Note_off_c, 0, 59, 106
1, 4807, Note_on_c, 0, 50, 96
1, 4874, Note_off_c, 0, 50, 96
1, 4875, Note_on_c, 0, 52, 96
1, 4982, Note_off_c, 0, 52, 96
1, 4991, Note_on_c, 0, 53, 95
1, 5206, Note_off_c, 0, 53, 95
1, 5226, Note_on_c, 0, 53, 94
1, 5272, Note_off_c, 0, 53, 94
1, 5283, Note_on_c, 0, 52, 99
1, 5377, Note_off_c, 0, 52, 99
1, 5537, Note_on_c, 0, 58, 111
1, 5628, Note_off_c, 0, 58, 111
1, 5640, Note_on_c, 0, 57, 107
1, 5727, Note_off_c, 0, 57, 107
1, 5745, Note_on_c, 0, 55, 108
1, 5805, Note_off_c, 0, 55, 108
1, 5813, Note_on_c, 0, 61, 100
1, 5966, Note_off_c, 0, 61, 100
1, 5975, Note_on_c, 0, 61, 110
1, 6023, Note_off_c, 0, 61, 110
1, 6035, Note_on_c, 0, 60, 110
1, 6126, Note_off_c, 0, 60, 110
1, 6136, Note_on_c, 0, 58, 111
1, 6248, Note_off_c, 0, 58, 111
1, 6517, Note_on_c, 0, 55, 115
1, 6579, Note_off_c, 0, 55, 115
1, 6587, Note_on_c, 0, 58, 102
1, 6803, Note_off_c, 0, 58, 102
1, 6813, Note_on_c, 0, 55, 112
1, 6921, Note_off_c, 0, 55, 112
1, 6947, Note_on_c, 0, 50, 100
1, 7051, Note_off_c, 0, 50, 100
1, 7102, Note_on_c, 0, 50, 97
1, 7171, Note_off_c, 0, 50, 97
1, 7193, Note_on_c, 0, 48, 100
1, 7304, Note_off_c, 0, 48, 100
1, 7305, Note_on_c, 0, 45, 109
1, 7396, Note_off_c, 0, 45, 109
1, 7404, Note_on_c, 0, 47, 89
1, 7505, Note_off_c, 0, 47, 89
1, 7513, Note_on_c, 0, 50, 99
1, 7579, Note_off_c, 0, 50, 99
1, 7592, Note_on_c, 0, 52, 101
1, 7707, Note_off_c, 0, 52, 101
1, 7717, Note_on_c, 0, 50, 88
1, 7747, Note_off_c, 0, 50, 88
1, 7767, Note_on_c, 0, 55, 110
1, 7897, Note_off_c, 0, 55, 110
1, 7901, Note_on_c, 0, 57, 86
1, 7948, Note_off_c, 0, 57, 86
1, 7960, Note_on_c, 0, 59, 101
1, 8078, Note_off_c, 0, 59, 101
1, 8086, Note_on_c, 0, 62, 95
1, 8411, Note_off_c, 0, 62, 95
1, 8641, Note_on_c, 0, 62, 106
1, 8723, Note_off_c, 0, 62, 106
1, 8731, Note_on_c, 0, 64, 94
1, 8898, Note_off_c, 0, 64, 94
1, 8928, Note_on_c, 0, 67, 110
1, 9036, Note_off_c, 0, 67, 110
1, 9296, Note_on_c, 0, 62, 95
1, 9544, Note_off_c, 0, 62, 95
1, 9639, Note_on_c, 0, 59, 112
1, 9705, Note_off_c, 0, 59, 112
1, 9722, Note_on_c, 0, 60, 114
1, 9814, Note_off_c, 0, 60, 114
1, 9826, Note_on_c, 0, 62, 91
1, 9874, Note_off_c, 0, 62, 91
1, 9897, Note_on_c, 0, 64, 105
1, 10018, Note_off_c, 0, 64, 105
1, 10025, Note_on_c, 0, 57, 114
1, 10149, Note_off_c, 0, 57, 114
1, 10191, Note_on_c, 0, 59, 107
1, 10263, Note_off_c, 0, 59, 107
1, 10273, Note_on_c, 0, 60, 101
1, 10451, Note_off_c, 0, 60, 101
1, 10470, Note_on_c, 0, 59, 102
1, 10558, Note_off_c, 0, 59, 102
1, 10579, Note_on_c, 0, 60, 112
1, 10653, Note_off_c, 0, 60, 112
1, 10660, Note_on_c, 0, 62, 105
1, 10756, Note_off_c, 0, 62, 105
1, 10852, Note_on_c, 0, 55, 108
1, 10960, Note_off_c, 0, 55, 108
1, 10964, Note_on_c, 0, 57, 116
1, 11027, Note_off_c, 0, 57, 116
1, 11045, Note_on_c, 0, 59, 109
1, 11138, Note_off_c, 0, 59, 109
1, 11400, Note_on_c, 0, 49, 100
1, 11504, Note_off_c, 0, 49, 100
1, 11516, Note_on_c, 0, 51, 107
1, 11594, Note_off_c, 0, 51, 107
1, 11597, Note_on_c, 0, 53, 123
1, 11662, Note_off_c, 0, 53, 123
1, 11674, Note_on_c, 0, 56, 107
1, 11724, Note_off_c, 0, 56, 107
1, 11725, Note_on_c, 0, 60, 115
1, 11797, Note_off_c, 0, 60, 115
1, 11805, Note_on_c, 0, 63, 118
1, 11891, Note_off_c, 0, 63, 118
1, 11905, Note_on_c, 0, 61, 118
1, 11971, Note_off_c, 0, 61, 118
1, 11977, Note_on_c, 0, 62, 105
1, 12082, Note_off_c, 0, 62, 105
1, 12090, Note_on_c, 0, 61, 117
1, 12175, Note_off_c, 0, 61, 117
1, 12184, Note_on_c, 0, 60, 106
1, 12300, Note_off_c, 0, 60, 106
1, 12324, Note_on_c, 0, 59, 103
1, 12453, Note_off_c, 0, 59, 103
1, 12469, Note_on_c, 0, 57, 97
1, 12721, Note_off_c, 0, 57, 97
1, 12738, Note_on_c, 0, 55, 110
1, 12843, Note_off_c, 0, 55, 110
1, 12847, Note_on_c, 0, 53, 122
1, 12968, Note_off_c, 0, 53, 122
1, 12970, Note_on_c, 0, 56, 91
1, 13003, Note_off_c, 0, 56, 91
1, 13005, Note_on_c, 0, 57, 98
1, 13033, Note_off_c, 0, 57, 98
1, 13038, Note_on_c, 0, 60, 109
1, 13091, Note_off_c, 0, 60, 109
1, 13096, Note_on_c, 0, 65, 94
1, 13225, Note_off_c, 0, 65, 94
1, 13226, Note_on_c, 0, 63, 111
1, 13323, Note_off_c, 0, 63, 111
1, 13329, Note_on_c, 0, 62, 104
1, 13404, Note_off_c, 0, 62, 104
1, 13411, Note_on_c, 0, 60, 112
1, 13496, Note_off_c, 0, 60, 112
1, 13501, Note_on_c, 0, 59, 94
1, 13619, Note_off_c, 0, 59, 94
1, 13632, Note_on_c, 0, 62, 101
1, 13658, Note_off_c, 0, 62, 101
1, 13663, Note_on_c, 0, 63, 105
1, 13699, Note_off_c, 0, 63, 105
1, 13705, Note_on_c, 0, 67, 112
1, 13814, Note_off_c, 0, 67, 112
1, 14626, Note_on_c, 0, 67, 112
1, 14732, Note_off_c, 0, 67, 112
1, 14742, Note_on_c, 0, 68, 109
1, 14824, Note_off_c, 0, 68, 109
1, 14842, Note_on_c, 0, 64, 111
1, 14920, Note_off_c, 0, 64, 111
1, 14930, Note_on_c, 0, 61, 119
1, 15016, Note_off_c, 0, 61, 119
1, 15025, Note_on_c, 0, 57, 103
1, 15178, Note_off_c, 0, 57, 103
1, 15220, Note_on_c, 0, 56, 106
1, 15336, Note_off_c, 0, 56, 106
1, 15371, Note_on_c, 0, 54, 112
1, 15487, Note_off_c, 0, 54, 112
1, 15510, Note_on_c, 0, 56, 109
1, 15576, Note_off_c, 0, 56, 109
1, 15583, Note_on_c, 0, 57, 112
1, 15677, Note_off_c, 0, 57, 112
1, 15695, Note_on_c, 0, 59, 110
1, 15773, Note_off_c, 0, 59, 110
1, 15780, Note_on_c, 0, 61, 103
1, 15974, Note_off_c, 0, 61, 103
1, 15982, Note_on_c, 0, 64, 112
1, 16082, Note_off_c, 0, 64, 112
1, 16087, Note_on_c, 0, 61, 116
1, 16176, Note_off_c, 0, 61, 116
1, 16183, Note_on_c, 0, 63, 112
1, 16269, Note_off_c, 0, 63, 112
1, 16278, Note_on_c, 0, 64, 112
1, 16378, Note_off_c, 0, 64, 112
1, 16383, Note_on_c, 0, 66, 104
1, 16480, Note_off_c, 0, 66, 104
1, 16501, Note_on_c, 0, 67, 107
1, 16612, Note_off_c, 0, 67, 107
1, 16659, Note_on_c, 0, 66, 99
1, 16726, Note_off_c, 0, 66, 99
1, 16754, Note_on_c, 0, 64, 106
1, 16831, Note_off_c, 0, 64, 106
1, 16850, Note_on_c, 0, 59, 101
1, 16917, Note_off_c, 0, 59, 101
1, 16941, Note_on_c, 0, 57, 103
1, 17028, Note_off_c, 0, 57, 103
1, 17042, Note_on_c, 0, 59, 103
1, 17277, Note_off_c, 0, 59, 103
1, 17332, Note_on_c, 0, 52, 98
1, 17445, Note_off_c, 0, 52, 98
1, 17797, Note_on_c, 0, 52, 100
1, 17854, Note_off_c, 0, 52, 100
1, 17877, Note_on_c, 0, 55, 108
1, 17977, Note_off_c, 0, 55, 108
1, 17983, Note_on_c, 0, 59, 104
1, 18070, Note_off_c, 0, 59, 104
1, 18077, Note_on_c, 0, 64, 108
1, 18174, Note_off_c, 0, 64, 108
1, 18203, Note_on_c, 0, 54, 98
1, 18239, Note_off_c, 0, 54, 98
1, 18245, Note_on_c, 0, 57, 100
1, 18362, Note_off_c, 0, 57, 100
1, 18375, Note_on_c, 0, 61, 117
1, 18452, Note_off_c, 0, 61, 117
1, 18467, Note_on_c, 0, 64, 113
1, 18567, Note_off_c, 0, 64, 113
1, 18579, Note_on_c, 0, 59, 96
1, 18634, Note_off_c, 0, 59, 96
1, 18656, Note_on_c, 0, 62, 107
1, 18745, Note_off_c, 0, 62, 107
1, 18847, Note_on_c, 0, 61, 116
1, 18930, Note_off_c, 0, 61, 116
1, 18937, Note_on_c, 0, 59, 109
1, 19013, Note_off_c, 0, 59, 109
1, 19034, Note_on_c, 0, 57, 99
1, 19126, Note_off_c, 0, 57, 99
1, 19130, Note_on_c, 0, 56, 110
1, 19230, Note_off_c, 0, 56, 110
1, 19232, Note_on_c, 0, 55, 101
1, 19323, Note_off_c, 0, 55, 101
1, 19331, Note_on_c, 0, 52, 103
1, 19395, Note_off_c, 0, 52, 103
1, 19401, Note_on_c, 0, 49, 100
1, 19556, Note_off_c, 0, 49, 100
1, 19609, Note_on_c, 0, 50, 103
1, 19738, Note_off_c, 0, 50, 103
1, 20445, Note_on_c, 0, 38, 114
1, 20543, Note_off_c, 0, 38, 114
1, 20556, Note_on_c, 0, 45, 113
1, 20640, Note_off_c, 0, 45, 113
1, 20649, Note_on_c, 0, 46, 114
1, 20743, Note_off_c, 0, 46, 114
1, 20757, Note_on_c, 0, 50, 96
1, 20841, Note_off_c, 0, 50, 96
1, 20845, Note_on_c, 0, 54, 120
1, 20922, Note_off_c, 0, 54, 120
1, 20935, Note_on_c, 0, 57, 108
1, 21024, Note_off_c, 0, 57, 108
1, 21031, Note_on_c, 0, 58, 115
1, 21093, Note_off_c, 0, 58, 115
1, 21123, Note_on_c, 0, 54, 95
1, 21207, Note_off_c, 0, 54, 95
1, 21212, Note_on_c, 0, 55, 102
1, 21275, Note_off_c, 0, 55, 102
1, 21299, Note_on_c, 0, 57, 112
1, 21400, Note_off_c, 0, 57, 112
1, 21407, Note_on_c, 0, 54, 91
1, 21479, Note_off_c, 0, 54, 91
1, 21493, Note_on_c, 0, 55, 99
1, 21670, Note_off_c, 0, 55, 99
1, 21672, Note_on_c, 0, 62, 109
1, 21840, Note_off_c, 0, 62, 109
1, 21868, Note_on_c, 0, 60, 93
1, 22051, Note_off_c, 0, 60, 93
1, 22061, Note_on_c, 0, 64, 114
1, 22209, Note_off_c, 0, 64, 114
1, 22269, Note_on_c, 0, 57, 101
1, 22370, Note_off_c, 0, 57, 101
1, 22377, Note_on_c, 0, 58, 108
1, 22436, Note_off_c, 0, 58, 108
1, 22440, Note_on_c, 0, 59, 110
1, 22461, Note_off_c, 0, 59, 110
1, 22464, Note_on_c, 0, 60, 112
1, 22551, Note_off_c, 0, 60, 112
1, 22561, Note_on_c, 0, 58, 96
1, 22634, Note_off_c, 0, 58, 96
1, 22639, Note_on_c, 0, 59, 94
1, 22737, Note_off_c, 0, 59, 94
1, 22746, Note_on_c, 0, 60, 114
1, 22835, Note_off_c, 0, 60, 114
1, 22847, Note_on_c, 0, 62, 107
1, 22963, Note_off_c, 0, 62, 107
1, 23021, Note_on_c, 0, 55, 109
1, 23127, Note_off_c, 0, 55, 109
1, 23135, Note_on_c, 0, 57, 113
1, 23209, Note_off_c, 0, 57, 113
1, 23219, Note_on_c, 0, 59, 103
1, 23320, Note_off_c, 0, 59, 103
1, 23329, Note_on_c, 0, 60, 111
1, 23403, Note_off_c, 0, 60, 111
1, 23419, Note_on_c, 0, 62, 105
1, 23497, Note_off_c, 0, 62, 105
1, 23501, Note_on_c, 0, 64, 111
1, 23576, Note_off_c, 0, 64, 111
1, 23588, Note_on_c, 0, 65, 100
1, 23729, Note_off_c, 0, 65, 100
1, 23745, Note_on_c, 0, 65, 97
1, 23960, Note_off_c, 0, 65, 97
1, 23978, Note_on_c, 0, 64, 106
1, 24074, Note_off_c, 0, 64, 106
1, 24081, Note_on_c, 0, 61, 104
1, 24154, Note_off_c, 0, 61, 104
1, 24168, Note_on_c, 0, 62, 97
1, 24352, Note_off_c, 0, 62, 97
1, 24444, Note_on_c, 0, 61, 112
1, 24543, Note_off_c, 0, 61, 112
1, 24551, Note_on_c, 0, 60, 107
1, 24623, Note_off_c, 0, 60, 107
1, 24632, Note_on_c, 0, 59, 103
1, 24701, Note_off_c, 0, 59, 103
1, 24718, Note_on_c, 0, 57, 111
1, 24812, Note_off_c, 0, 57, 111
1, 25192, Note_on_c, 0, 62, 104
1, 25234, Note_off_c, 0, 62, 104
1, 25245, Note_on_c, 0, 61, 114
1, 25298, Note_off_c, 0, 61, 114
1, 25315, Note_on_c, 0, 60, 9
1, 25398, Note_off_c, 0, 60, 9
1, 25411, Note_on_c, 0, 57, 127
1, 25462, Note_off_c, 0, 57, 127
1, 25475, Note_on_c, 0, 54, 116
1, 25571, Note_off_c, 0, 54, 116
1, 25604, Note_on_c, 0, 50, 94
1, 25646, Note_off_c, 0, 50, 94
1, 25661, Note_on_c, 0, 55, 114
1, 25775, Note_off_c, 0, 55, 114
1, 25787, Note_on_c, 0, 57, 124
1, 25846, Note_off_c, 0, 57, 124
1, 25856, Note_on_c, 0, 59, 111
1, 25947, Note_off_c, 0, 59, 111
1, 25959, Note_on_c, 0, 57, 124
1, 26030, Note_off_c, 0, 57, 124
1, 26039, Note_on_c, 0, 55, 112
1, 26153, Note_off_c, 0, 55, 112
1, 26163, Note_on_c, 0, 62, 95
1, 26339, Note_off_c, 0, 62, 95
1, 26727, Note_on_c, 0, 62, 113
1, 26764, Note_off_c, 0, 62, 113
1, 26767, Note_on_c, 0, 61, 117
1, 26807, Note_off_c, 0, 61, 117
1, 26816, Note_on_c, 0, 60, 112
1, 26916, Note_off_c, 0, 60, 112
1, 26923, Note_on_c, 0, 59, 114
1, 26983, Note_off_c, 0, 59, 114
1, 27004, Note_on_c, 0, 57, 110
1, 27090, Note_off_c, 0, 57, 110
1, 27094, Note_on_c, 0, 55, 97
1, 27172, Note_off_c, 0, 55, 97
1, 27174, Note_on_c, 0, 59, 100
1, 27820, Note_off_c, 0, 59, 100
1, 27836, Note_on_c, 0, 55, 92
1, 27881, Note_off_c, 0, 55, 92
1, 27888, Note_on_c, 0, 53, 98
1, 27944, Note_off_c, 0, 53, 98
1, 27955, Note_on_c, 0, 52, 88
1, 28542, Note_off_c, 0, 52, 88
1, 28542, End_track
0, 0, End_of_file
