0, 0, Header, 1, 1, 192
1, 0, Start_track
1, 0, Title_t, "Melody"
1, 0, Tempo, 348837
1, 0, Key_signature, -2, "major"
1, 0, Time_signature, 4, 2, 24, 8
1, 2084, Note_on_c, 0, 57, 118
1, 2124, Note_off_c, 0, 57, 118
1, 2138, Note_on_c, 0, 58, 104
1, 2232, Note_off_c, 0, 58, 104
1, 2279, Note_on_c, 0, 55, 109
1, 2312, Note_off_c, 0, 55, 109
1, 2336, Note_on_c, 0, 57, 111
1, 2424, Note_off_c, 0, 57, 111
1, 2435, Note_on_c, 0, 58, 102
1, 2519, Note_off_c, 0, 58, 102
1, 2538, Note_on_c, 0, 60, 111
1, 2641, Note_off_c, 0, 60, 111
1, 2837, Note_on_c, 0, 57, 121
1, 2877, Note_off_c, 0, 57, 121
1, 2901, Note_on_c, 0, 58, 96
1, 2990, Note_off_c, 0, 58, 96
1, 3035, Note_on_c, 0, 60, 96
1, 3072, Note_off_c, 0, 60, 96
1, 3090, Note_on_c, 0, 62, 110
1, 3186, Note_off_c, 0, 62, 110
1, 3215, Note_on_c, 0, 58, 109
1, 3258, Note_off_c, 0, 58, 109
1, 3272, Note_on_c, 0, 60, 110
1, 3365, Note_off_c, 0, 60, 110
1, 3404, Note_on_c, 0, 57, 96
1, 3458, Note_off_c, 0, 57, 96
1, 3482, Note_on_c, 0, 58, 114
1, 3580, Note_off_c, 0, 58, 114
1, 3597, Note_on_c, 0, 60, 110
1, 3687, Note_off_c, 0, 60, 110
1, 3692, Note_on_c, 0, 62, 88
1, 3813, Note_off_c, 0, 62, 88
1, 3822, Note_on_c, 0, 63, 92
1, 3863, Note_off_c, 0, 63, 92
1, 3878, Note_on_c, 0, 65, 107
1, 4024, Note_off_c, 0, 65, 107
1, 4030, Note_on_c, 0, 63, 100
1, 4104, Note_off_c, 0, 63, 100
1, 4173, Note_on_c, 0, 54, 95
1, 4488, Note_off_c, 0, 54, 95
1, 4528, Note_on_c, 0, 63, 113
1, 4611, Note_off_c, 0, 63, 113
1, 4647, Note_on_c, 0, 62, 109
1, 4738, Note_off_c, 0, 62, 109
1, 4780, Note_on_c, 0, 58, 114
1, 4863, Note_off_c, 0, 58, 114
1, 4907, Note_on_c, 0, 53, 112
1, 4961, Note_off_c, 0, 53, 112
1, 4967, Note_on_c, 0, 51, 107
1, 5015, Note_off_c, 0, 51, 107
1, 5027, Note_on_c, 0, 52, 106
1, 5119, Note_off_c, 0, 52, 106
1, 5149, Note_on_c, 0, 61, 111
1, 5230, Note_off_c, 0, 61, 111
1, 5353, Note_on_c, 0, 60, 108
1, 5554, Note_off_c, 0, 60, 108
1, 5563, Note_on_c, 0, 58, 103
1, 5644, Note_off_c, 0, 58, 103
1, 5688, Note_on_c, 0, 57, 109
1, 5775, Note_off_c, 0, 57, 109
1, 5843, Note_on_c, 0, 55, 115
1, 5912, Note_off_c, 0, 55, 115
1, 5936, Note_on_c, 0, 53, 104
1, 6008, Note_off_c, 0, 53, 104
1, 6045, Note_on_c, 0, 51, 109
1, 6104, Note_off_c, 0, 51, 109
1, 6118, Note_on_c, 0, 50, 103
1, 6219, Note_off_c, 0, 50, 103
1, 6241, Note_on_c, 0, 60, 104
1, 6349, Note_off_c, 0, 60, 104
1, 6481, Note_on_c, 0, 55, 101
1, 6648, Note_off_c, 0, 55, 101
1, 7164, Note_on_c, 0, 55, 123
1, 7226, Note_off_c, 0, 55, 123
1, 7237, Note_on_c, 0, 60, 115
1, 7324, Note_off_c, 0, 60, 115
1, 7352, Note_on_c, 0, 55, 112
1, 7399, Note_off_c, 0, 55, 112
1, 7414, Note_on_c, 0, 58, 123
1, 7509, Note_off_c, 0, 58, 123
1, 7530, Note_on_c, 0, 57, 122
1, 7614, Note_off_c, 0, 57, 122
1, 7725, Note_on_c, 0, 53, 89
1, 7972, Note_off_c, 0, 53, 89
1, 7981, Note_on_c, 0, 56, 120
1, 8078, Note_off_c, 0, 56, 120
1, 8092, Note_on_c, 0, 55, 118
1, 8173, Note_off_c, 0, 55, 118
1, 8183, Note_on_c, 0, 54, 95
1, 8300, Note_off_c, 0, 54, 95
1, 8316, Note_on_c, 0, 55, 108
1, 8360, Note_off_c, 0, 55, 108
1, 8365, Note_on_c, 0, 60, 109
1, 8560, Note_off_c, 0, 60, 109
1, 8571, Note_on_c, 0, 58, 113
1, 8655, Note_off_c, 0, 58, 113
1, 8683, Note_on_c, 0, 56, 105
1, 8725, Note_off_c, 0, 56, 105
1, 8739, Note_on_c, 0, 57, 118
1, 8860, Note_off_c, 0, 57, 118
1, 8870, Note_on_c, 0, 60, 107
1, 8902, Note_off_c, 0, 60, 107
1, 8909, Note_on_c, 0, 63, 107
1, 8947, Note_off_c, 0, 63, 107
1, 8959, Note_on_c, 0, 67, 108
1, 9107, Note_off_c, 0, 67, 108
1, 9142, Note_on_c, 0, 65, 96
1, 9481, Note_off_c, 0, 65, 96
1, 9824, Note_on_c, 0, 53, 116
1, 9883, Note_off_c, 0, 53, 116
1, 9893, Note_on_c, 0, 54, 117
1, 9998, Note_off_c, 0, 54, 117
1, 10002, Note_on_c, 0, 58, 118
1, 10061, Note_off_c, 0, 58, 118
1, 10081, Note_on_c, 0, 60, 113
1, 10180, Note_off_c, 0, 60, 113
1, 10201, Note_on_c, 0, 64, 111
1, 10265, Note_off_c, 0, 64, 111
1, 10275, Note_on_c, 0, 65, 120
1, 10431, Note_off_c, 0, 65, 120
1, 10436, Note_on_c, 0, 63, 114
1, 10537, Note_off_c, 0, 63, 114
1, 10586, Note_on_c, 0, 63, 110
1, 10680, Note_off_c, 0, 63, 110
1, 10753, Note_on_c, 0, 62, 118
1, 10817, Note_off_c, 0, 62, 118
1, 10824, Note_on_c, 0, 61, 102
1, 10941, Note_off_c, 0, 61, 102
1, 10955, Note_on_c, 0, 62, 102
1, 11038, Note_off_c, 0, 62, 102
1, 11044, Note_on_c, 0, 63, 109
1, 11190, Note_off_c, 0, 63, 109
1, 11219, Note_on_c, 0, 59, 106
1, 11280, Note_off_c, 0, 59, 106
1, 11325, Note_on_c, 0, 62, 112
1, 11386, Note_off_c, 0, 62, 112
1, 11398, Note_on_c, 0, 60, 108
1, 11455, Note_off_c, 0, 60, 108
1, 11461, Note_on_c, 0, 62, 104
1, 11504, Note_off_c, 0, 62, 104
1, 11509, Note_on_c, 0, 60, 104
1, 11559, Note_off_c, 0, 60, 104
1, 11586, Note_on_c, 0, 55, 98
1, 11679, Note_off_c, 0, 55, 98
1, 11690, Note_on_c, 0, 58, 116
1, 11770, Note_off_c, 0, 58, 116
1, 11786, Note_on_c, 0, 57, 105
1, 11873, Note_off_c, 0, 57, 105
1, 11889, Note_on_c, 0, 53, 106
1, 11936, Note_off_c, 0, 53, 106
1, 11949, Note_on_c, 0, 55, 98
1, 12079, Note_off_c, 0, 55, 98
1, 12101, Note_on_c, 0, 53, 94
1, 12131, Note_off_c, 0, 53, 94
1, 12159, Note_on_c, 0, 62, 111
1, 12256, Note_off_c, 0, 62, 111
1, 12298, Note_on_c, 0, 58, 99
1, 12390, Note_off_c, 0, 58, 99
1, 12666, Note_on_c, 0, 53, 117
1, 12697, Note_off_c, 0, 53, 117
1, 12703, Note_on_c, 0, 55, 104
1, 12833, Note_off_c, 0, 55, 104
1, 12861, Note_on_c, 0, 53, 96
1, 12896, Note_off_c, 0, 53, 96
1, 12927, Note_on_c, 0, 63, 113
1, 13065, Note_off_c, 0, 63, 113
1, 13090, Note_on_c, 0, 60, 88
1, 13201, Note_off_c, 0, 60, 88
1, 13216, Note_on_c, 0, 57, 120
1, 13329, Note_off_c, 0, 57, 120
1, 13409, Note_on_c, 0, 53, 115
1, 13455, Note_off_c, 0, 53, 115
1, 13480, Note_on_c, 0, 55, 101
1, 13583, Note_off_c, 0, 55, 101
1, 13609, Note_on_c, 0, 53, 101
1, 13644, Note_off_c, 0, 53, 101
1, 13672, Note_on_c, 0, 65, 113
1, 13772, Note_off_c, 0, 65, 113
1, 13805, Note_on_c, 0, 58, 99
1, 13899, Note_off_c, 0, 58, 99
1, 14339, Note_on_c, 0, 58, 125
1, 14371, Note_off_c, 0, 58, 125
1, 14379, Note_on_c, 0, 57, 123
1, 14421, Note_off_c, 0, 57, 123
1, 14433, Note_on_c, 0, 56, 109
1, 14519, Note_off_c, 0, 56, 109
1, 14539, Note_on_c, 0, 60, 122
1, 14592, Note_off_c, 0, 60, 122
1, 14618, Note_on_c, 0, 53, 99
1, 14694, Note_off_c, 0, 53, 99
1, 14722, Note_on_c, 0, 56, 126
1, 14779, Note_off_c, 0, 56, 126
1, 14808, Note_on_c, 0, 50, 109
1, 14901, Note_off_c, 0, 50, 109
1, 14923, Note_on_c, 0, 45, 127
1, 14971, Note_off_c, 0, 45, 127
1, 14987, Note_on_c, 0, 48, 102
1, 15030, Note_off_c, 0, 48, 102
1, 15053, Note_on_c, 0, 46, 118
1, 15097, Note_off_c, 0, 46, 118
1, 15108, Note_on_c, 0, 48, 110
1, 15165, Note_off_c, 0, 48, 110
1, 15184, Note_on_c, 0, 51, 109
1, 15262, Note_off_c, 0, 51, 109
1, 15301, Note_on_c, 0, 53, 115
1, 15345, Note_off_c, 0, 53, 115
1, 15371, Note_on_c, 0, 55, 89
1, 15496, Note_off_c, 0, 55, 89
1, 15503, Note_on_c, 0, 56, 98
1, 15543, Note_off_c, 0, 56, 98
1, 15568, Note_on_c, 0, 58, 118
1, 15675, Note_off_c, 0, 58, 118
1, 15688, Note_on_c, 0, 60, 101
1, 15736, Note_off_c, 0, 60, 101
1, 15756, Note_on_c, 0, 62, 116
1, 15867, Note_off_c, 0, 62, 116
1, 15887, Note_on_c, 0, 62, 119
1, 15916, Note_off_c, 0, 62, 119
1, 15918, Note_on_c, 0, 64, 117
1, 16112, Note_off_c, 0, 64, 117
1, 16132, Note_on_c, 0, 62, 107
1, 16212, Note_off_c, 0, 62, 107
1, 16258, Note_on_c, 0, 61, 97
1, 16432, Note_off_c, 0, 61, 97
1, 16443, Note_on_c, 0, 62, 92
1, 16486, Note_off_c, 0, 62, 92
1, 16501, Note_on_c, 0, 64, 115
1, 16621, Note_off_c, 0, 64, 115
1, 16639, Note_on_c, 0, 65, 115
1, 16729, Note_off_c, 0, 65, 115
1, 16826, Note_on_c, 0, 60, 93
1, 17055, Note_off_c, 0, 60, 93
1, 17583, Note_on_c, 0, 62, 117
1, 17613, Note_off_c, 0, 62, 117
1, 17616, Note_on_c, 0, 60, 113
1, 17648, Note_off_c, 0, 60, 113
1, 17664, Note_on_c, 0, 59, 107
1, 17763, Note_off_c, 0, 59, 107
1, 17790, Note_on_c, 0, 60, 114
1, 17845, Note_off_c, 0, 60, 114
1, 17853, Note_on_c, 0, 62, 117
1, 17958, Note_off_c, 0, 62, 117
1, 17976, Note_on_c, 0, 63, 101
1, 18018, Note_off_c, 0, 63, 101
1, 18028, Note_on_c, 0, 65, 117
1, 18142, Note_off_c, 0, 65, 117
1, 18161, Note_on_c, 0, 67, 116
1, 18239, Note_off_c, 0, 67, 116
1, 18331, Note_on_c, 0, 60, 104
1, 18602, Note_off_c, 0, 60, 104
1, 18610, Note_on_c, 0, 59, 105
1, 18714, Note_off_c, 0, 59, 105
1, 18791, Note_on_c, 0, 62, 115
1, 18910, Note_off_c, 0, 62, 115
1, 18940, Note_on_c, 0, 63, 120
1, 19033, Note_off_c, 0, 63, 120
1, 19118, Note_on_c, 0, 55, 96
1, 19257, Note_off_c, 0, 55, 96
1, 19293, Note_on_c, 0, 53, 91
1, 19357, Note_off_c, 0, 53, 91
1, 19368, Note_on_c, 0, 54, 114
1, 19487, Note_off_c, 0, 54, 114
1, 19491, Note_on_c, 0, 56, 100
1, 19540, Note_off_c, 0, 56, 100
1, 19556, Note_on_c, 0, 57, 111
1, 19676, Note_off_c, 0, 57, 111
1, 19688, Note_on_c, 0, 60, 112
1, 19792, Note_off_c, 0, 60, 112
1, 19868, Note_on_c, 0, 58, 110
1, 19924, Note_off_c, 0, 58, 110
1, 19944, Note_on_c, 0, 57, 96
1, 20019, Note_off_c, 0, 57, 96
1, 20044, Note_on_c, 0, 58, 86
1, 20119, Note_off_c, 0, 58, 86
1, 20142, Note_on_c, 0, 62, 112
1, 20237, Note_off_c, 0, 62, 112
1, 20271, Note_on_c, 0, 65, 108
1, 20335, Note_off_c, 0, 65, 108
1, 20338, Note_on_c, 0, 67, 106
1, 20442, Note_off_c, 0, 67, 106
1, 20449, Note_on_c, 0, 65, 90
1, 20741, Note_off_c, 0, 65, 90
1, 21197, Note_on_c, 0, 65, 119
1, 21248, Note_off_c, 0, 65, 119
1, 21249, Note_on_c, 0, 67, 109
1, 21270, Note_off_c, 0, 67, 109
1, 21275, Note_on_c, 0, 69, 114
1, 21382, Note_off_c, 0, 69, 114
1, 21448, Note_on_c, 0, 62, 102
1, 21554, Note_off_c, 0, 62, 102
1, 21587, Note_on_c, 0, 65, 114
1, 21700, Note_off_c, 0, 65, 114
1, 21776, Note_on_c, 0, 58, 115
1, 21819, Note_off_c, 0, 58, 115
1, 21851, Note_on_c, 0, 62, 108
1, 22035, Note_off_c, 0, 62, 108
1, 22041, Note_on_c, 0, 65, 115
1, 22136, Note_off_c, 0, 65, 115
1, 22168, Note_on_c, 0, 68, 115
1, 22235, Note_off_c, 0, 68, 115
1, 22257, Note_on_c, 0, 61, 107
1, 22334, Note_off_c, 0, 61, 107
1, 22354, Note_on_c, 0, 65, 113
1, 22410, Note_off_c, 0, 65, 113
1, 22448, Note_on_c, 0, 58, 96
1, 22515, Note_off_c, 0, 58, 96
1, 22535, Note_on_c, 0, 61, 111
1, 22575, Note_off_c, 0, 61, 111
1, 22626, Note_on_c, 0, 54, 93
1, 22759, Note_off_c, 0, 54, 93
1, 22762, Note_on_c, 0, 51, 98
1, 22811, Note_off_c, 0, 51, 98
1, 22818, Note_on_c, 0, 53, 105
1, 22892, Note_off_c, 0, 53, 105
1, 22918, Note_on_c, 0, 55, 115
1, 22985, Note_off_c, 0, 55, 115
1, 23107, Note_on_c, 0, 58, 103
1, 23160, Note_off_c, 0, 58, 103
1, 23174, Note_on_c, 0, 59, 114
1, 23277, Note_off_c, 0, 59, 114
1, 23296, Note_on_c, 0, 60, 101
1, 23343, Note_off_c, 0, 60, 101
1, 23353, Note_on_c, 0, 62, 118
1, 23467, Note_off_c, 0, 62, 118
1, 23492, Note_on_c, 0, 63, 115
1, 23585, Note_off_c, 0, 63, 115
1, 23654, Note_on_c, 0, 67, 108
1, 23734, Note_off_c, 0, 67, 108
1, 23753, Note_on_c, 0, 60, 107
1, 23832, Note_off_c, 0, 60, 107
1, 23851, Note_on_c, 0, 63, 115
1, 23892, Note_off_c, 0, 63, 115
1, 23906, Note_on_c, 0, 57, 102
1, 24003, Note_off_c, 0, 57, 102
1, 24036, Note_on_c, 0, 60, 111
1, 24087, Note_off_c, 0, 60, 111
1, 24101, Note_on_c, 0, 53, 94
1, 24214, Note_off_c, 0, 53, 94
1, 24232, Note_on_c, 0, 55, 106
1, 24281, Note_off_c, 0, 55, 106
1, 24286, Note_on_c, 0, 57, 96
1, 24397, Note_off_c, 0, 57, 96
1, 24409, Note_on_c, 0, 58, 100
1, 24466, Note_off_c, 0, 58, 100
1, 24477, Note_on_c, 0, 59, 108
1, 24587, Note_off_c, 0, 59, 108
1, 24603, Note_on_c, 0, 60, 89
1, 24654, Note_off_c, 0, 60, 89
1, 24666, Note_on_c, 0, 62, 119
1, 24756, Note_off_c, 0, 62, 119
1, 24780, Note_on_c, 0, 60, 110
1, 24856, Note_off_c, 0, 60, 110
1, 24937, Note_on_c, 0, 59, 93
1, 24972, Note_off_c, 0, 59, 93
1, 24973, Note_on_c, 0, 60, 99
1, 25016, Note_off_c, 0, 60, 99
1, 25037, Note_on_c, 0, 63, 121
1, 25123, Note_off_c, 0, 63, 121
1, 25156, Note_on_c, 0, 55, 105
1, 25211, Note_off_c, 0, 55, 105
1, 25217, Note_on_c, 0, 58, 116
1, 25325, Note_off_c, 0, 58, 116
1, 25365, Note_on_c, 0, 55, 105
1, 25401, Note_off_c, 0, 55, 105
1, 25416, Note_on_c, 0, 57, 113
1, 25522, Note_off_c, 0, 57, 113
1, 25543, Note_on_c, 0, 58, 107
1, 25590, Note_off_c, 0, 58, 107
1, 25598, Note_on_c, 0, 60, 107
1, 25698, Note_off_c, 0, 60, 107
1, 25711, Note_on_c, 0, 58, 93
1, 25976, Note_off_c, 0, 58, 93
1, 26309, Note_on_c, 0, 58, 114
1, 26336, Note_off_c, 0, 58, 114
1, 26339, Note_on_c, 0, 62, 112
1, 26365, Note_off_c, 0, 62, 112
1, 26376, Note_on_c, 0, 67, 123
1, 26553, Note_off_c, 0, 67, 123
1, 26561, Note_on_c, 0, 65, 94
1, 26880, Note_off_c, 0, 65, 94
1, 26925, Note_on_c, 0, 62, 115
1, 26985, Note_off_c, 0, 62, 115
1, 26987, Note_on_c, 0, 63, 104
1, 27029, Note_off_c, 0, 63, 104
1, 27034, Note_on_c, 0, 60, 108
1, 27072, Note_off_c, 0, 60, 108
1, 27077, Note_on_c, 0, 58, 107
1, 27128, Note_off_c, 0, 58, 107
1, 27133, Note_on_c, 0, 57, 107
1, 27200, Note_off_c, 0, 57, 107
1, 27206, Note_on_c, 0, 55, 98
1, 27251, Note_off_c, 0, 55, 98
1, 27260, Note_on_c, 0, 53, 99
1, 27313, Note_off_c, 0, 53, 99
1, 27332, Note_on_c, 0, 50, 100
1, 27486, Note_off_c, 0, 50, 100
1, 27486, End_track
0, 0, End_of_file
