0, 0, Header, 1, 1, 2520
1, 0, Start_track
1, 0, Note_on_c, 0, 63, 88
1, 1503, Note_off_c, 0, 63, 88
1, 2323, Note_on_c, 0, 60, 93
1, 3292, Note_off_c, 0, 60, 93
1, 3341, Note_on_c, 0, 61, 95
1, 4286, Note_off_c, 0, 61, 95
1, 4630, Note_on_c, 0, 58, 101
1, 6448, Note_off_c, 0, 58, 101
1, 6448, Note_on_c, 0, 56, 106
1, 7103, Title_t, "Melody"
1, 7103, Tempo, 588235
1, 7103, Key_signature, -3, "major"
1, 7103, Time_signature, 4, 2, 24, 8
1, 7671, Note_off_c, 0, 56, 106
1, 11197, Note_on_c, 0, 70, 111
1, 11793, Note_off_c, 0, 70, 111
1, 11842, Note_on_c, 0, 72, 110
1, 13707, Note_off_c, 0, 72, 110
1, 13731, Note_on_c, 0, 70, 103
1, 14576, Note_off_c, 0, 70, 103
1, 14625, Note_on_c, 0, 63, 117
1, 15470, Note_off_c, 0, 63, 117
1, 15569, Note_on_c, 0, 68, 100
1, 16390, Note_off_c, 0, 68, 100
1, 16599, Note_on_c, 0, 67, 107
1, 17071, Note_off_c, 0, 67, 107
1, 17158, Note_on_c, 0, 63, 102
1, 17857, Note_off_c, 0, 63, 102
1, 18049, Note_on_c, 0, 58, 104
1, 18573, Note_off_c, 0, 58, 104
1, 18835, Note_on_c, 0, 56, 107
1, 19412, Note_off_c, 0, 56, 107
1, 19569, Note_on_c, 0, 55, 102
1, 21474, Note_off_c, 0, 55, 102
1, 21474, Note_on_c, 0, 63, 107
1, 27331, Note_off_c, 0, 63, 107
1, 30185, Note_on_c, 0, 68, 102
1, 30827, Note_off_c, 0, 68, 102
1, 30827, Note_on_c, 0, 70, 105
1, 31211, Note_off_c, 0, 70, 105
1, 31280, Note_on_c, 0, 68, 101
1, 31717, Note_off_c, 0, 68, 101
1, 31751, Note_on_c, 0, 63, 112
1, 35003, Note_off_c, 0, 63, 112
1, 35003, Note_on_c, 0, 68, 108
1, 35964, Note_off_c, 0, 68, 108
1, 35964, Note_on_c, 0, 67, 107
1, 36698, Note_off_c, 0, 67, 107
1, 36698, Note_on_c, 0, 63, 117
1, 39495, Note_off_c, 0, 63, 117
1, 39547, Note_on_c, 0, 60, 94
1, 40106, Note_off_c, 0, 60, 94
1, 40424, Note_on_c, 0, 63, 114
1, 41219, Note_off_c, 0, 63, 114
1, 41268, Note_on_c, 0, 63, 114
1, 42002, Note_off_c, 0, 63, 114
1, 46688, Note_on_c, 0, 55, 101
1, 47185, Note_off_c, 0, 55, 101
1, 47185, Note_on_c, 0, 58, 95
1, 47483, Note_off_c, 0, 58, 95
1, 47483, Note_on_c, 0, 61, 105
1, 48552, Note_off_c, 0, 61, 105
1, 48552, Note_on_c, 0, 65, 111
1, 49372, Note_off_c, 0, 65, 111
1, 49372, Note_on_c, 0, 67, 113
1, 50565, Note_off_c, 0, 67, 113
1, 50888, Note_on_c, 0, 70, 108
1, 51385, Note_off_c, 0, 70, 108
1, 51385, Note_on_c, 0, 72, 106
1, 54220, Note_off_c, 0, 72, 106
1, 54418, Note_on_c, 0, 67, 107
1, 55213, Note_off_c, 0, 67, 107
1, 55834, Note_on_c, 0, 69, 99
1, 56157, Note_off_c, 0, 69, 99
1, 56256, Note_on_c, 0, 70, 103
1, 56935, Note_off_c, 0, 70, 103
1, 56935, Note_on_c, 0, 67, 89
1, 57319, Note_off_c, 0, 67, 89
1, 57319, Note_on_c, 0, 63, 93
1, 57633, Note_on_c, 0, 61, 102
1, 57633, Note_off_c, 0, 63, 93
1, 59486, Note_off_c, 0, 61, 102
1, 59695, Note_on_c, 0, 63, 117
1, 60884, Note_off_c, 0, 63, 117
1, 60988, Note_on_c, 0, 59, 94
1, 61547, Note_off_c, 0, 59, 94
1, 61547, Note_on_c, 0, 60, 97
1, 64344, Note_off_c, 0, 60, 97
1, 64798, Note_on_c, 0, 68, 104
1, 67665, Note_off_c, 0, 68, 104
1, 72289, Note_on_c, 0, 68, 112
1, 72786, Note_off_c, 0, 68, 112
1, 73574, Note_on_c, 0, 68, 111
1, 74623, Note_off_c, 0, 68, 111
1, 74657, Note_on_c, 0, 70, 107
1, 75286, Note_off_c, 0, 70, 107
1, 75793, Note_on_c, 0, 66, 112
1, 76215, Note_off_c, 0, 66, 112
1, 76215, Note_on_c, 0, 65, 112
1, 76836, Note_off_c, 0, 65, 112
1, 76885, Note_on_c, 0, 63, 114
1, 79720, Note_off_c, 0, 63, 114
1, 82277, Note_on_c, 0, 69, 77
1, 82504, Note_off_c, 0, 69, 77
1, 82573, Note_on_c, 0, 68, 114
1, 83062, Note_off_c, 0, 68, 114
1, 83062, Note_on_c, 0, 70, 102
1, 87363, Note_off_c, 0, 70, 102
1, 87397, Note_on_c, 0, 68, 109
1, 88043, Note_off_c, 0, 68, 109
1, 88112, Note_on_c, 0, 68, 107
1, 88916, Note_off_c, 0, 68, 107
1, 88916, Note_on_c, 0, 67, 109
1, 89440, Note_off_c, 0, 67, 109
1, 89440, Note_on_c, 0, 65, 106
1, 90086, Note_off_c, 0, 65, 106
1, 90103, Note_on_c, 0, 63, 112
1, 90837, Note_off_c, 0, 63, 112
1, 90889, Note_on_c, 0, 62, 113
1, 91413, Note_off_c, 0, 62, 113
1, 91413, Note_on_c, 0, 60, 108
1, 92059, Note_off_c, 0, 60, 108
1, 92059, Note_on_c, 0, 58, 104
1, 92688, Note_off_c, 0, 58, 104
1, 92967, Note_on_c, 0, 55, 96
1, 93386, Note_off_c, 0, 55, 96
1, 93543, Note_on_c, 0, 56, 104
1, 94207, Note_off_c, 0, 56, 104
1, 94311, Note_on_c, 0, 57, 96
1, 94555, Note_off_c, 0, 57, 96
1, 94555, Note_on_c, 0, 60, 111
1, 95219, Note_off_c, 0, 60, 111
1, 95219, Note_on_c, 0, 62, 98
1, 95778, Note_off_c, 0, 62, 98
1, 95865, Note_on_c, 0, 67, 113
1, 96616, Note_off_c, 0, 67, 113
1, 96616, Note_on_c, 0, 65, 110
1, 97070, Note_off_c, 0, 65, 110
1, 97122, Note_on_c, 0, 62, 107
1, 98066, Note_off_c, 0, 62, 107
1, 102530, Note_on_c, 0, 60, 96
1, 102878, Note_off_c, 0, 60, 96
1, 102927, Note_on_c, 0, 58, 104
1, 103250, Note_off_c, 0, 58, 104
1, 103250, Note_on_c, 0, 63, 116
1, 104219, Note_off_c, 0, 63, 116
1, 104219, Note_on_c, 0, 65, 109
1, 105039, Note_off_c, 0, 65, 109
1, 105262, Note_on_c, 0, 66, 107
1, 105635, Note_off_c, 0, 66, 107
1, 105635, Note_on_c, 0, 67, 108
1, 106356, Note_off_c, 0, 67, 108
1, 106405, Note_on_c, 0, 68, 98
1, 107374, Note_off_c, 0, 68, 98
1, 107970, Note_on_c, 0, 70, 102
1, 108964, Note_off_c, 0, 70, 102
1, 109063, Note_on_c, 0, 66, 106
1, 109311, Note_off_c, 0, 66, 106
1, 109311, Note_on_c, 0, 67, 106
1, 110032, Note_on_c, 0, 63, 115
1, 110032, Note_off_c, 0, 67, 106
1, 110952, Note_off_c, 0, 63, 115
1, 112779, Note_on_c, 0, 57, 86
1, 113089, Note_off_c, 0, 57, 86
1, 113089, Note_on_c, 0, 59, 102
1, 113250, Note_off_c, 0, 59, 102
1, 113250, Note_on_c, 0, 62, 102
1, 113548, Note_off_c, 0, 62, 102
1, 113622, Note_on_c, 0, 63, 119
1, 114355, Note_off_c, 0, 63, 119
1, 114454, Note_on_c, 0, 65, 113
1, 115063, Note_off_c, 0, 65, 113
1, 115112, Note_on_c, 0, 66, 107
1, 115795, Note_off_c, 0, 66, 107
1, 115795, Note_on_c, 0, 67, 109
1, 116628, Note_off_c, 0, 67, 109
1, 116715, Note_on_c, 0, 72, 112
1, 117560, Note_off_c, 0, 72, 112
1, 117808, Note_on_c, 0, 65, 107
1, 118268, Note_off_c, 0, 65, 107
1, 118280, Note_on_c, 0, 67, 102
1, 119150, Note_off_c, 0, 67, 102
1, 119162, Note_on_c, 0, 63, 113
1, 120803, Note_off_c, 0, 63, 113
1, 122108, Note_on_c, 0, 56, 78
1, 122530, Note_off_c, 0, 56, 78
1, 122865, Note_on_c, 0, 59, 92
1, 123362, Note_off_c, 0, 59, 92
1, 123710, Note_on_c, 0, 60, 99
1, 124393, Note_off_c, 0, 60, 99
1, 124455, Note_on_c, 0, 63, 115
1, 125312, Note_on_c, 0, 65, 112
1, 125312, Note_off_c, 0, 63, 115
1, 126269, Note_off_c, 0, 65, 112
1, 126306, Note_on_c, 0, 66, 108
1, 127176, Note_off_c, 0, 66, 108
1, 127213, Note_on_c, 0, 63, 93
1, 127996, Note_off_c, 0, 63, 93
1, 127996, Note_on_c, 0, 67, 103
1, 128219, Note_off_c, 0, 67, 103
1, 128281, Note_on_c, 0, 69, 106
1, 129076, Note_off_c, 0, 69, 106
1, 129076, Note_on_c, 0, 68, 113
1, 130941, Note_off_c, 0, 68, 113
1, 131314, Note_on_c, 0, 66, 108
1, 132072, Note_off_c, 0, 66, 108
1, 132183, Note_on_c, 0, 63, 116
1, 132953, Note_off_c, 0, 63, 116
1, 132965, Note_on_c, 0, 58, 100
1, 133748, Note_off_c, 0, 58, 100
1, 133934, Note_on_c, 0, 56, 104
1, 134518, Note_off_c, 0, 56, 104
1, 134580, Note_on_c, 0, 51, 87
1, 135077, Note_off_c, 0, 51, 87
1, 135126, Note_on_c, 0, 54, 96
1, 137675, Note_off_c, 0, 54, 96
1, 145570, Note_on_c, 0, 72, 81
1, 145843, Note_off_c, 0, 72, 81
1, 145892, Note_on_c, 0, 71, 114
1, 146401, Note_off_c, 0, 71, 114
1, 146438, Note_on_c, 0, 70, 108
1, 147009, Note_off_c, 0, 70, 108
1, 147108, Note_on_c, 0, 68, 112
1, 147692, Note_off_c, 0, 68, 112
1, 147816, Note_on_c, 0, 67, 109
1, 148350, Note_off_c, 0, 67, 109
1, 148374, Note_on_c, 0, 65, 110
1, 149070, Note_off_c, 0, 65, 110
1, 149082, Note_on_c, 0, 64, 114
1, 149753, Note_off_c, 0, 64, 114
1, 149753, Note_on_c, 0, 61, 112
1, 150188, Note_off_c, 0, 61, 112
1, 150225, Note_on_c, 0, 60, 108
1, 150759, Note_off_c, 0, 60, 108
1, 150846, Note_on_c, 0, 58, 103
1, 151368, Note_off_c, 0, 58, 103
1, 151616, Note_on_c, 0, 57, 97
1, 152337, Note_off_c, 0, 57, 97
1, 152337, Note_on_c, 0, 60, 91
1, 152809, Note_off_c, 0, 60, 91
1, 152809, Note_on_c, 0, 63, 112
1, 153778, Note_off_c, 0, 63, 112
1, 154101, Note_on_c, 0, 67, 100
1, 156438, Note_off_c, 0, 67, 100
1, 156587, Note_on_c, 0, 56, 101
1, 157345, Note_off_c, 0, 56, 101
1, 157755, Note_on_c, 0, 67, 107
1, 158314, Note_off_c, 0, 67, 107
1, 158401, Note_on_c, 0, 68, 101
1, 158836, Note_off_c, 0, 68, 101
1, 158860, Note_on_c, 0, 67, 110
1, 159195, Note_on_c, 0, 65, 105
1, 159195, Note_off_c, 0, 67, 110
1, 159580, Note_off_c, 0, 65, 105
1, 159928, Note_on_c, 0, 62, 113
1, 160475, Note_off_c, 0, 62, 113
1, 160524, Note_on_c, 0, 59, 96
1, 161207, Note_off_c, 0, 59, 96
1, 161691, Note_on_c, 0, 58, 102
1, 162387, Note_off_c, 0, 58, 102
1, 162387, Note_on_c, 0, 63, 112
1, 163157, Note_off_c, 0, 63, 112
1, 164164, Note_on_c, 0, 63, 101
1, 166203, Note_off_c, 0, 63, 101
1, 166227, Note_on_c, 0, 58, 86
1, 166674, Note_off_c, 0, 58, 86
1, 166711, Note_on_c, 0, 56, 107
1, 167320, Note_off_c, 0, 56, 107
1, 167382, Note_on_c, 0, 63, 117
1, 168003, Note_off_c, 0, 63, 117
1, 168873, Note_on_c, 0, 57, 104
1, 169892, Note_off_c, 0, 57, 104
1, 169916, Note_on_c, 0, 63, 100
1, 170711, Note_off_c, 0, 63, 100
1, 171494, Note_on_c, 0, 58, 101
1, 172339, Note_off_c, 0, 58, 101
1, 172339, Note_on_c, 0, 63, 101
1, 174502, Note_off_c, 0, 63, 101
1, 177747, Note_on_c, 0, 63, 114
1, 178418, Note_off_c, 0, 63, 114
1, 178716, Note_on_c, 0, 63, 115
1, 179486, Note_off_c, 0, 63, 115
1, 179809, Note_on_c, 0, 67, 100
1, 179995, Note_off_c, 0, 67, 100
1, 180019, Note_on_c, 0, 68, 113
1, 180678, Note_on_c, 0, 67, 108
1, 180678, Note_off_c, 0, 68, 113
1, 181424, Note_off_c, 0, 67, 108
1, 181523, Note_on_c, 0, 63, 110
1, 182393, Note_off_c, 0, 63, 110
1, 182579, Note_on_c, 0, 63, 115
1, 183897, Note_off_c, 0, 63, 115
1, 184170, Note_on_c, 0, 63, 113
1, 184928, Note_off_c, 0, 63, 113
1, 187665, Note_on_c, 0, 63, 117
1, 188102, Note_off_c, 0, 63, 117
1, 188644, Note_on_c, 0, 63, 118
1, 189308, Note_off_c, 0, 63, 118
1, 190024, Note_on_c, 0, 68, 109
1, 190391, Note_off_c, 0, 68, 109
1, 190443, Note_on_c, 0, 70, 107
1, 191334, Note_off_c, 0, 70, 107
1, 191386, Note_on_c, 0, 68, 108
1, 191875, Note_off_c, 0, 68, 108
1, 191927, Note_on_c, 0, 66, 108
1, 192171, Note_off_c, 0, 66, 108
1, 192171, Note_on_c, 0, 63, 114
1, 193464, Note_off_c, 0, 63, 114
1, 193743, Note_on_c, 0, 63, 119
1, 194197, Note_off_c, 0, 63, 119
1, 197746, Note_on_c, 0, 63, 115
1, 198200, Note_off_c, 0, 63, 115
1, 198619, Note_on_c, 0, 63, 112
1, 199283, Note_off_c, 0, 63, 112
1, 199726, Note_on_c, 0, 67, 100
1, 199900, Note_off_c, 0, 67, 100
1, 199937, Note_on_c, 0, 68, 108
1, 200571, Note_off_c, 0, 68, 108
1, 200620, Note_on_c, 0, 67, 107
1, 200856, Note_off_c, 0, 67, 107
1, 200856, Note_on_c, 0, 63, 111
1, 203317, Note_off_c, 0, 63, 111
1, 203379, Note_on_c, 0, 62, 112
1, 203863, Note_off_c, 0, 62, 112
1, 204211, Note_on_c, 0, 63, 109
1, 204695, Note_off_c, 0, 63, 109
1, 204881, Note_on_c, 0, 63, 110
1, 205602, Note_off_c, 0, 63, 110
1, 206831, Note_on_c, 0, 63, 117
1, 207291, Note_off_c, 0, 63, 117
1, 207392, Note_on_c, 0, 63, 115
1, 208088, Note_off_c, 0, 63, 115
1, 209295, Note_on_c, 0, 63, 113
1, 211394, Note_off_c, 0, 63, 113
1, 211394, Note_on_c, 0, 61, 100
1, 211990, Note_off_c, 0, 61, 100
1, 212014, Note_on_c, 0, 67, 107
1, 212710, Note_off_c, 0, 67, 107
1, 212772, Note_on_c, 0, 63, 115
1, 213542, Note_off_c, 0, 63, 115
1, 214344, Note_on_c, 0, 63, 99
1, 216966, Note_off_c, 0, 63, 99
1, 219621, Note_on_c, 0, 72, 109
1, 220541, Note_off_c, 0, 72, 109
1, 221038, Note_on_c, 0, 63, 113
1, 223947, Note_off_c, 0, 63, 113
1, 229939, Note_on_c, 0, 63, 119
1, 230516, Note_off_c, 0, 63, 119
1, 230516, Note_on_c, 0, 65, 106
1, 231040, Note_off_c, 0, 65, 106
1, 231267, Note_on_c, 0, 68, 114
1, 231948, Note_off_c, 0, 68, 114
1, 232017, Note_on_c, 0, 70, 106
1, 232768, Note_off_c, 0, 70, 106
1, 233205, Note_on_c, 0, 70, 112
1, 233379, Note_off_c, 0, 70, 112
1, 233466, Note_on_c, 0, 72, 104
1, 234305, Note_off_c, 0, 72, 104
1, 234654, Note_on_c, 0, 70, 111
1, 234968, Note_off_c, 0, 70, 111
1, 234968, Note_on_c, 0, 72, 100
1, 235982, Note_off_c, 0, 72, 100
1, 236156, Note_on_c, 0, 70, 113
1, 236645, Note_off_c, 0, 70, 113
1, 236767, Note_on_c, 0, 72, 107
1, 237326, Note_off_c, 0, 72, 107
1, 237448, Note_on_c, 0, 68, 115
1, 238269, Note_off_c, 0, 68, 115
1, 238391, Note_on_c, 0, 63, 117
1, 239230, Note_off_c, 0, 63, 117
1, 239789, Note_on_c, 0, 63, 105
1, 242376, Note_off_c, 0, 63, 105
1, 247429, Note_on_c, 0, 74, 95
1, 247953, Note_off_c, 0, 74, 95
1, 248407, Note_on_c, 0, 72, 111
1, 248809, Note_on_c, 0, 70, 108
1, 248809, Note_off_c, 0, 72, 111
1, 249403, Note_off_c, 0, 70, 108
1, 249595, Note_on_c, 0, 69, 110
1, 250049, Note_off_c, 0, 69, 110
1, 250188, Note_on_c, 0, 68, 112
1, 250782, Note_off_c, 0, 68, 112
1, 251061, Note_on_c, 0, 67, 114
1, 251550, Note_off_c, 0, 67, 114
1, 251619, Note_on_c, 0, 65, 107
1, 252126, Note_off_c, 0, 65, 107
1, 252545, Note_on_c, 0, 64, 114
1, 253122, Note_off_c, 0, 64, 114
1, 253506, Note_on_c, 0, 67, 9
1, 254117, Note_off_c, 0, 67, 9
1, 254117, Note_on_c, 0, 65, 94
1, 254938, Note_off_c, 0, 65, 94
1, 255112, Note_on_c, 0, 63, 112
1, 256021, Note_off_c, 0, 63, 112
1, 256021, Note_on_c, 0, 61, 97
1, 256458, Note_off_c, 0, 61, 97
1, 256475, Note_on_c, 0, 62, 107
1, 256737, Note_off_c, 0, 62, 107
1, 256841, Note_on_c, 0, 65, 96
1, 257085, Note_off_c, 0, 65, 96
1, 257085, Note_on_c, 0, 72, 110
1, 257714, Note_off_c, 0, 72, 110
1, 257766, Note_on_c, 0, 70, 103
1, 258290, Note_off_c, 0, 70, 103
1, 258482, Note_on_c, 0, 69, 105
1, 259128, Note_off_c, 0, 69, 105
1, 259215, Note_on_c, 0, 68, 107
1, 259687, Note_off_c, 0, 68, 107
1, 259756, Note_on_c, 0, 63, 92
1, 260193, Note_off_c, 0, 63, 92
1, 260402, Note_on_c, 0, 65, 108
1, 260794, Note_off_c, 0, 65, 108
1, 260794, Note_on_c, 0, 67, 109
1, 262534, Note_off_c, 0, 67, 109
1, 262583, Note_on_c, 0, 68, 105
1, 262781, Note_off_c, 0, 68, 105
1, 262781, Note_on_c, 0, 65, 106
1, 262955, Note_off_c, 0, 65, 106
1, 262955, Note_on_c, 0, 63, 103
1, 265416, Note_off_c, 0, 63, 103
1, 267514, Note_on_c, 0, 63, 119
1, 268038, Note_off_c, 0, 63, 119
1, 268177, Note_on_c, 0, 65, 105
1, 268631, Note_off_c, 0, 65, 105
1, 268823, Note_on_c, 0, 67, 111
1, 270221, Note_off_c, 0, 67, 111
1, 270238, Note_on_c, 0, 70, 98
1, 270867, Note_off_c, 0, 70, 98
1, 270867, Note_on_c, 0, 75, 109
1, 272230, Note_off_c, 0, 75, 109
1, 272544, Note_on_c, 0, 72, 111
1, 273418, Note_off_c, 0, 72, 111
1, 273522, Note_on_c, 0, 73, 108
1, 275340, Note_off_c, 0, 73, 108
1, 275409, Note_on_c, 0, 72, 110
1, 275636, Note_off_c, 0, 72, 110
1, 275636, Note_on_c, 0, 71, 107
1, 275898, Note_off_c, 0, 71, 107
1, 275950, Note_on_c, 0, 70, 105
1, 276562, Note_off_c, 0, 70, 105
1, 276562, Note_on_c, 0, 68, 115
1, 277156, Note_off_c, 0, 68, 115
1, 277260, Note_on_c, 0, 67, 108
1, 277697, Note_off_c, 0, 67, 108
1, 277697, Note_on_c, 0, 65, 109
1, 278588, Note_off_c, 0, 65, 109
1, 278588, Note_on_c, 0, 63, 112
1, 279007, Note_off_c, 0, 63, 112
1, 279094, Note_on_c, 0, 62, 113
1, 279740, Note_off_c, 0, 62, 113
1, 279809, Note_on_c, 0, 61, 102
1, 280508, Note_off_c, 0, 61, 102
1, 280700, Note_on_c, 0, 66, 99
1, 281084, Note_off_c, 0, 66, 99
1, 281084, Note_on_c, 0, 72, 110
1, 282063, Note_off_c, 0, 72, 110
1, 282255, Note_on_c, 0, 70, 111
1, 282762, Note_off_c, 0, 70, 111
1, 282919, Note_on_c, 0, 72, 105
1, 283216, Note_off_c, 0, 72, 105
1, 283320, Note_on_c, 0, 71, 110
1, 283634, Note_off_c, 0, 71, 110
1, 283634, Note_on_c, 0, 67, 108
1, 284088, Note_off_c, 0, 67, 108
1, 284315, Note_on_c, 0, 65, 107
1, 284752, Note_off_c, 0, 65, 107
1, 284752, Note_on_c, 0, 63, 115
1, 285416, Note_off_c, 0, 63, 115
1, 285590, Note_on_c, 0, 61, 109
1, 286044, Note_off_c, 0, 61, 109
1, 286044, Note_on_c, 0, 60, 100
1, 286603, Note_off_c, 0, 60, 100
1, 286655, Note_on_c, 0, 63, 112
1, 287144, Note_off_c, 0, 63, 112
1, 287144, Note_on_c, 0, 65, 107
1, 288140, Note_off_c, 0, 65, 107
1, 288384, Note_on_c, 0, 68, 98
1, 290920, Note_off_c, 0, 68, 98
1, 294433, Note_on_c, 0, 70, 110
1, 295027, Note_off_c, 0, 70, 110
1, 295096, Note_on_c, 0, 72, 112
1, 297124, Note_off_c, 0, 72, 112
1, 297124, Note_on_c, 0, 67, 111
1, 297666, Note_off_c, 0, 67, 111
1, 297683, Note_on_c, 0, 69, 107
1, 298347, Note_off_c, 0, 69, 107
1, 298416, Note_on_c, 0, 65, 111
1, 299010, Note_off_c, 0, 65, 111
1, 299044, Note_on_c, 0, 66, 109
1, 299586, Note_off_c, 0, 66, 109
1, 299778, Note_on_c, 0, 62, 116
1, 300127, Note_off_c, 0, 62, 116
1, 300127, Note_on_c, 0, 63, 118
1, 300721, Note_off_c, 0, 63, 118
1, 300755, Note_on_c, 0, 58, 101
1, 301174, Note_off_c, 0, 58, 101
1, 301174, Note_on_c, 0, 60, 103
1, 302048, Note_off_c, 0, 60, 103
1, 302048, Note_on_c, 0, 56, 105
1, 302520, Note_off_c, 0, 56, 105
1, 302589, Note_on_c, 0, 57, 108
1, 303428, Note_off_c, 0, 57, 108
1, 303428, Note_on_c, 0, 58, 101
1, 304547, Note_off_c, 0, 58, 101
1, 304547, Note_on_c, 0, 67, 116
1, 305421, Note_off_c, 0, 67, 116
1, 308761, Note_on_c, 0, 67, 113
1, 309656, Note_off_c, 0, 67, 113
1, 309718, Note_on_c, 0, 64, 115
1, 310526, Note_off_c, 0, 64, 115
1, 312378, Note_on_c, 0, 67, 112
1, 313260, Note_off_c, 0, 67, 112
1, 313297, Note_on_c, 0, 64, 104
1, 313694, Note_off_c, 0, 64, 104
1, 313756, Note_on_c, 0, 65, 111
1, 314551, Note_off_c, 0, 65, 111
1, 314613, Note_on_c, 0, 60, 103
1, 315408, Note_off_c, 0, 60, 103
1, 316353, Note_on_c, 0, 63, 119
1, 316862, Note_off_c, 0, 63, 119
1, 316899, Note_on_c, 0, 64, 117
1, 318266, Note_off_c, 0, 64, 117
1, 318315, Note_on_c, 0, 60, 93
1, 318700, Note_off_c, 0, 60, 93
1, 318700, Note_on_c, 0, 63, 114
1, 319533, Note_off_c, 0, 63, 114
1, 319620, Note_on_c, 0, 60, 94
1, 320005, Note_off_c, 0, 60, 94
1, 320005, Note_on_c, 0, 62, 113
1, 321086, Note_off_c, 0, 62, 113
1, 321235, Note_on_c, 0, 70, 106
1, 322416, Note_off_c, 0, 70, 106
1, 322416, Note_on_c, 0, 70, 80
1, 322416, Note_off_c, 0, 70, 80
1, 322490, Note_on_c, 0, 66, 110
1, 323223, Note_off_c, 0, 66, 110
1, 323882, Note_on_c, 0, 63, 105
1, 326244, Note_off_c, 0, 63, 105
1, 328892, Note_on_c, 0, 63, 113
1, 329961, Note_off_c, 0, 63, 113
1, 331204, Note_on_c, 0, 67, 74
1, 331514, Note_off_c, 0, 67, 74
1, 331526, Note_on_c, 0, 68, 116
1, 332122, Note_off_c, 0, 68, 116
1, 332258, Note_on_c, 0, 67, 109
1, 332829, Note_off_c, 0, 67, 109
1, 332829, Note_on_c, 0, 63, 116
1, 333736, Note_off_c, 0, 63, 116
1, 333823, Note_on_c, 0, 58, 94
1, 334183, Note_off_c, 0, 58, 94
1, 334183, Note_on_c, 0, 63, 114
1, 336371, Note_off_c, 0, 63, 114
1, 341928, Note_on_c, 0, 60, 108
1, 342505, Note_on_c, 0, 63, 115
1, 342505, Note_off_c, 0, 60, 108
1, 343134, Note_off_c, 0, 63, 115
1, 343238, Note_on_c, 0, 65, 111
1, 344304, Note_off_c, 0, 65, 111
1, 344304, Note_on_c, 0, 60, 97
1, 344706, Note_off_c, 0, 60, 97
1, 344706, Note_on_c, 0, 63, 114
1, 347661, Note_off_c, 0, 63, 114
1, 348615, Note_on_c, 0, 58, 110
1, 349560, Note_off_c, 0, 58, 110
1, 349758, Note_on_c, 0, 56, 106
1, 352070, Note_off_c, 0, 56, 106
1, 352070, Note_on_c, 0, 63, 117
1, 353860, Note_off_c, 0, 63, 117
1, 353909, Note_on_c, 0, 53, 104
1, 354456, Note_off_c, 0, 53, 104
1, 354456, Note_on_c, 0, 55, 103
1, 356917, Note_off_c, 0, 55, 103
1, 361990, Note_on_c, 0, 60, 106
1, 362860, Note_off_c, 0, 60, 106
1, 362984, Note_on_c, 0, 63, 120
1, 363779, Note_off_c, 0, 63, 120
1, 363779, Note_on_c, 0, 65, 113
1, 364574, Note_off_c, 0, 65, 113
1, 364574, Note_on_c, 0, 60, 97
1, 365220, Note_off_c, 0, 60, 97
1, 365220, Note_on_c, 0, 63, 112
1, 368651, Note_off_c, 0, 63, 112
1, 368874, Note_on_c, 0, 58, 104
1, 369843, Note_off_c, 0, 58, 104
1, 369843, Note_on_c, 0, 56, 106
1, 372255, Note_off_c, 0, 56, 106
1, 372578, Note_on_c, 0, 63, 116
1, 373995, Note_off_c, 0, 63, 116
1, 374293, Note_on_c, 0, 53, 100
1, 374616, Note_off_c, 0, 53, 100
1, 374616, Note_on_c, 0, 55, 103
1, 377152, Note_off_c, 0, 55, 103
1, 382427, Note_on_c, 0, 65, 108
1, 383196, Note_off_c, 0, 65, 108
1, 383196, Note_on_c, 0, 68, 112
1, 384035, Note_off_c, 0, 68, 112
1, 384035, Note_on_c, 0, 70, 108
1, 384979, Note_off_c, 0, 70, 108
1, 384979, Note_on_c, 0, 65, 110
1, 385678, Note_off_c, 0, 65, 110
1, 385678, Note_on_c, 0, 68, 114
1, 389175, Note_off_c, 0, 68, 114
1, 389244, Note_on_c, 0, 63, 117
1, 390572, Note_off_c, 0, 63, 117
1, 390572, Note_on_c, 0, 61, 113
1, 392495, Note_off_c, 0, 61, 113
1, 392495, Note_on_c, 0, 66, 95
1, 392809, Note_off_c, 0, 66, 95
1, 392878, Note_on_c, 0, 68, 111
1, 394416, Note_off_c, 0, 68, 111
1, 394416, Note_on_c, 0, 60, 98
1, 397178, Note_off_c, 0, 60, 98
1, 403088, Note_on_c, 0, 62, 111
1, 403647, Note_off_c, 0, 62, 111
1, 403647, Note_on_c, 0, 64, 118
1, 403996, Note_on_c, 0, 65, 107
1, 403996, Note_off_c, 0, 64, 118
1, 404870, Note_off_c, 0, 65, 107
1, 404870, Note_on_c, 0, 67, 114
1, 406024, Note_off_c, 0, 67, 114
1, 406024, Note_on_c, 0, 68, 117
1, 406933, Note_off_c, 0, 68, 117
1, 406933, Note_on_c, 0, 70, 110
1, 407807, Note_off_c, 0, 70, 110
1, 408366, Note_on_c, 0, 70, 117
1, 408925, Note_off_c, 0, 70, 117
1, 408925, Note_on_c, 0, 72, 113
1, 410953, Note_off_c, 0, 72, 113
1, 410953, Note_on_c, 0, 68, 113
1, 411617, Note_off_c, 0, 68, 113
1, 411651, Note_on_c, 0, 67, 109
1, 412210, Note_off_c, 0, 67, 109
1, 412314, Note_on_c, 0, 65, 110
1, 413048, Note_off_c, 0, 65, 110
1, 413082, Note_on_c, 0, 64, 112
1, 413606, Note_off_c, 0, 64, 112
1, 413606, Note_on_c, 0, 60, 93
1, 414165, Note_off_c, 0, 60, 93
1, 414165, Note_on_c, 0, 63, 116
1, 415039, Note_on_c, 0, 61, 96
1, 415039, Note_off_c, 0, 63, 116
1, 415433, Note_off_c, 0, 61, 96
1, 415433, Note_on_c, 0, 62, 103
1, 417099, Note_off_c, 0, 62, 103
1, 417099, Note_on_c, 0, 67, 85
1, 417297, Note_off_c, 0, 67, 85
1, 417297, Note_on_c, 0, 71, 107
1, 417893, Note_off_c, 0, 71, 107
1, 417893, Note_on_c, 0, 70, 107
1, 418838, Note_off_c, 0, 70, 107
1, 426472, Note_on_c, 0, 71, 93
1, 426969, Note_off_c, 0, 71, 93
1, 426969, Note_on_c, 0, 73, 110
1, 427914, Note_off_c, 0, 73, 110
1, 427914, Note_on_c, 0, 71, 93
1, 428311, Note_off_c, 0, 71, 93
1, 428509, Note_on_c, 0, 73, 108
1, 429205, Note_off_c, 0, 73, 108
1, 429205, Note_on_c, 0, 70, 102
1, 430000, Note_off_c, 0, 70, 102
1, 430000, Note_on_c, 0, 63, 107
1, 431143, Note_off_c, 0, 63, 107
1, 431192, Note_on_c, 0, 68, 102
1, 432037, Note_off_c, 0, 68, 102
1, 432534, Note_on_c, 0, 68, 108
1, 433230, Note_off_c, 0, 68, 108
1, 433279, Note_on_c, 0, 66, 102
1, 434174, Note_off_c, 0, 66, 102
1, 434223, Note_on_c, 0, 63, 113
1, 435317, Note_off_c, 0, 63, 113
1, 435615, Note_on_c, 0, 65, 109
1, 436261, Note_off_c, 0, 65, 109
1, 436310, Note_on_c, 0, 67, 109
1, 437503, Note_off_c, 0, 67, 109
1, 437512, Note_on_c, 0, 68, 111
1, 438071, Note_off_c, 0, 68, 111
1, 438071, Note_on_c, 0, 67, 107
1, 438630, Note_off_c, 0, 67, 107
1, 438874, Note_on_c, 0, 63, 111
1, 439433, Note_off_c, 0, 63, 111
1, 439433, Note_on_c, 0, 62, 114
1, 439957, Note_off_c, 0, 62, 114
1, 439957, Note_on_c, 0, 66, 89
1, 440621, Note_off_c, 0, 66, 89
1, 440690, Note_on_c, 0, 67, 86
1, 441179, Note_off_c, 0, 67, 86
1, 441248, Note_on_c, 0, 72, 114
1, 441947, Note_off_c, 0, 72, 114
1, 442296, Note_on_c, 0, 70, 113
1, 442785, Note_off_c, 0, 70, 113
1, 442924, Note_on_c, 0, 72, 105
1, 443483, Note_off_c, 0, 72, 105
1, 443552, Note_on_c, 0, 67, 109
1, 444286, Note_off_c, 0, 67, 109
1, 444286, Note_on_c, 0, 65, 99
1, 444705, Note_off_c, 0, 65, 99
1, 444914, Note_on_c, 0, 63, 116
1, 445508, Note_off_c, 0, 63, 116
1, 445577, Note_on_c, 0, 61, 112
1, 445961, Note_off_c, 0, 61, 112
1, 446065, Note_on_c, 0, 60, 108
1, 446589, Note_off_c, 0, 60, 108
1, 446589, Note_on_c, 0, 63, 110
1, 447288, Note_off_c, 0, 63, 110
1, 447288, Note_on_c, 0, 65, 102
1, 447742, Note_off_c, 0, 65, 102
1, 447742, Note_on_c, 0, 67, 93
1, 448406, Note_off_c, 0, 67, 93
1, 448406, Note_on_c, 0, 70, 105
1, 451693, Note_off_c, 0, 70, 105
1, 451693, Note_on_c, 0, 68, 110
1, 452182, Note_off_c, 0, 68, 110
1, 452216, Note_on_c, 0, 67, 108
1, 452670, Note_off_c, 0, 67, 108
1, 452670, Note_on_c, 0, 65, 108
1, 453299, Note_off_c, 0, 65, 108
1, 453299, Note_on_c, 0, 63, 114
1, 454313, Note_off_c, 0, 63, 114
1, 459418, Note_on_c, 0, 72, 113
1, 460222, Note_off_c, 0, 72, 113
1, 460222, Note_on_c, 0, 70, 110
1, 460711, Note_off_c, 0, 70, 110
1, 460711, Note_on_c, 0, 69, 110
1, 461532, Note_off_c, 0, 69, 110
1, 461532, Note_on_c, 0, 67, 115
1, 462178, Note_off_c, 0, 67, 115
1, 462282, Note_on_c, 0, 66, 111
1, 462928, Note_off_c, 0, 66, 111
1, 462997, Note_on_c, 0, 61, 78
1, 463346, Note_off_c, 0, 61, 78
1, 463415, Note_on_c, 0, 60, 111
1, 464061, Note_off_c, 0, 60, 111
1, 464061, Note_on_c, 0, 63, 117
1, 464725, Note_off_c, 0, 63, 117
1, 464725, Note_on_c, 0, 62, 113
1, 465232, Note_off_c, 0, 62, 113
1, 465301, Note_on_c, 0, 60, 107
1, 465860, Note_off_c, 0, 60, 107
1, 465877, Note_on_c, 0, 58, 100
1, 466349, Note_off_c, 0, 58, 100
1, 466558, Note_on_c, 0, 60, 99
1, 467082, Note_off_c, 0, 60, 99
1, 467082, Note_on_c, 0, 63, 118
1, 467868, Note_off_c, 0, 63, 118
1, 467868, Note_on_c, 0, 65, 111
1, 468427, Note_off_c, 0, 65, 111
1, 468479, Note_on_c, 0, 66, 110
1, 468933, Note_off_c, 0, 66, 110
1, 468985, Note_on_c, 0, 67, 107
1, 469002, Note_on_c, 0, 67, 111
1, 469002, Note_off_c, 0, 67, 107
1, 469823, Note_off_c, 0, 67, 111
1, 469823, Note_on_c, 0, 68, 114
1, 470382, Note_off_c, 0, 68, 114
1, 470434, Note_on_c, 0, 69, 108
1, 470986, Note_off_c, 0, 69, 108
1, 470986, Note_on_c, 0, 70, 106
1, 471533, Note_off_c, 0, 70, 106
1, 471709, Note_on_c, 0, 67, 100
1, 472023, Note_on_c, 0, 68, 112
1, 472023, Note_off_c, 0, 67, 100
1, 472897, Note_off_c, 0, 68, 112
1, 472931, Note_on_c, 0, 70, 104
1, 473280, Note_off_c, 0, 70, 104
1, 473280, Note_on_c, 0, 67, 109
1, 474136, Note_off_c, 0, 67, 109
1, 474205, Note_on_c, 0, 65, 110
1, 474799, Note_off_c, 0, 65, 110
1, 474799, Note_on_c, 0, 64, 102
1, 475253, Note_off_c, 0, 64, 102
1, 475287, Note_on_c, 0, 67, 106
1, 475899, Note_off_c, 0, 67, 106
1, 475899, Note_on_c, 0, 65, 111
1, 476563, Note_off_c, 0, 65, 111
1, 476563, Note_on_c, 0, 60, 111
1, 477402, Note_off_c, 0, 60, 111
1, 478118, Note_on_c, 0, 58, 97
1, 478485, Note_off_c, 0, 58, 97
1, 478764, Note_on_c, 0, 60, 103
1, 480495, Note_off_c, 0, 60, 103
1, 482167, Note_on_c, 0, 64, 118
1, 482962, Note_off_c, 0, 64, 118
1, 482962, Note_on_c, 0, 65, 114
1, 483533, Note_off_c, 0, 65, 114
1, 483657, Note_on_c, 0, 59, 99
1, 484403, Note_off_c, 0, 59, 99
1, 484452, Note_on_c, 0, 61, 107
1, 485222, Note_off_c, 0, 61, 107
1, 485793, Note_on_c, 0, 58, 107
1, 486738, Note_off_c, 0, 58, 107
1, 486936, Note_on_c, 0, 63, 114
1, 487806, Note_off_c, 0, 63, 114
1, 490566, Note_on_c, 0, 67, 85
1, 491137, Note_off_c, 0, 67, 85
1, 491335, Note_on_c, 0, 68, 112
1, 492230, Note_off_c, 0, 68, 112
1, 492254, Note_on_c, 0, 67, 113
1, 492776, Note_on_c, 0, 63, 118
1, 492776, Note_off_c, 0, 67, 113
1, 493546, Note_off_c, 0, 63, 118
1, 493620, Note_on_c, 0, 58, 108
1, 494042, Note_off_c, 0, 58, 108
1, 494265, Note_on_c, 0, 56, 106
1, 495259, Note_off_c, 0, 56, 106
1, 495259, Note_on_c, 0, 55, 103
1, 495706, Note_off_c, 0, 55, 103
1, 495706, Note_on_c, 0, 58, 102
1, 496228, Note_off_c, 0, 58, 102
1, 497123, Note_on_c, 0, 63, 117
1, 497844, Note_off_c, 0, 63, 117
1, 503737, Note_on_c, 0, 63, 117
1, 504532, Note_off_c, 0, 63, 117
1, 504755, Note_on_c, 0, 63, 118
1, 505177, Note_off_c, 0, 63, 118
1, 505773, Note_on_c, 0, 60, 79
1, 506220, Note_off_c, 0, 60, 79
1, 506394, Note_on_c, 0, 63, 114
1, 507214, Note_off_c, 0, 63, 114
1, 507288, Note_on_c, 0, 63, 104
1, 508009, Note_off_c, 0, 63, 104
1, 508531, Note_on_c, 0, 60, 103
1, 509177, Note_off_c, 0, 60, 103
1, 509724, Note_on_c, 0, 63, 113
1, 510519, Note_off_c, 0, 63, 113
1, 511090, Note_on_c, 0, 60, 100
1, 511860, Note_off_c, 0, 60, 100
1, 512233, Note_on_c, 0, 63, 111
1, 512929, Note_off_c, 0, 63, 111
1, 513401, Note_on_c, 0, 60, 95
1, 514047, Note_off_c, 0, 60, 95
1, 514047, Note_on_c, 0, 63, 117
1, 514693, Note_off_c, 0, 63, 117
1, 515264, Note_on_c, 0, 63, 115
1, 516308, Note_off_c, 0, 63, 115
1, 516681, Note_on_c, 0, 60, 102
1, 517501, Note_off_c, 0, 60, 102
1, 517600, Note_on_c, 0, 63, 113
1, 518246, Note_off_c, 0, 63, 113
1, 521105, Note_on_c, 0, 63, 86
1, 521776, Note_off_c, 0, 63, 86
1, 522149, Note_on_c, 0, 68, 113
1, 522696, Note_on_c, 0, 69, 106
1, 522696, Note_off_c, 0, 68, 113
1, 523243, Note_off_c, 0, 69, 106
1, 523243, Note_on_c, 0, 68, 112
1, 523914, Note_off_c, 0, 68, 112
1, 524809, Note_on_c, 0, 67, 110
1, 525356, Note_off_c, 0, 67, 110
1, 525480, Note_on_c, 0, 68, 109
1, 526325, Note_off_c, 0, 68, 109
1, 526698, Note_on_c, 0, 65, 97
1, 526996, Note_off_c, 0, 65, 97
1, 526996, Note_on_c, 0, 63, 116
1, 527941, Note_off_c, 0, 63, 116
1, 528164, Note_on_c, 0, 63, 117
1, 528686, Note_off_c, 0, 63, 117
1, 529133, Note_on_c, 0, 60, 102
1, 529854, Note_off_c, 0, 60, 102
1, 530251, Note_on_c, 0, 63, 101
1, 531171, Note_off_c, 0, 63, 101
1, 531369, Note_on_c, 0, 60, 95
1, 531791, Note_off_c, 0, 60, 95
1, 531940, Note_on_c, 0, 63, 114
1, 532760, Note_off_c, 0, 63, 114
1, 533157, Note_on_c, 0, 67, 112
1, 534027, Note_off_c, 0, 67, 112
1, 534176, Note_on_c, 0, 68, 109
1, 535742, Note_off_c, 0, 68, 109
1, 535742, Note_on_c, 0, 66, 105
1, 536587, Note_off_c, 0, 66, 105
1, 536711, Note_on_c, 0, 63, 116
1, 537282, Note_off_c, 0, 63, 116
1, 537928, Note_on_c, 0, 63, 85
1, 539469, Note_off_c, 0, 63, 85
1, 541184, Note_on_c, 0, 63, 97
1, 541706, Note_off_c, 0, 63, 97
1, 542128, Note_on_c, 0, 67, 110
1, 542724, Note_off_c, 0, 67, 110
1, 542724, Note_on_c, 0, 70, 107
1, 543569, Note_off_c, 0, 70, 107
1, 543569, Note_on_c, 0, 68, 108
1, 543942, Note_off_c, 0, 68, 108
1, 543991, Note_on_c, 0, 65, 102
1, 544214, Note_off_c, 0, 65, 102
1, 544214, Note_on_c, 0, 63, 110
1, 544562, Note_off_c, 0, 63, 110
1, 544562, Note_on_c, 0, 61, 104
1, 544760, Note_off_c, 0, 61, 104
1, 544760, Note_on_c, 0, 68, 111
1, 545630, Note_off_c, 0, 68, 111
1, 545630, Note_on_c, 0, 65, 104
1, 546003, Note_off_c, 0, 65, 104
1, 546052, Note_on_c, 0, 63, 114
1, 546972, Note_off_c, 0, 63, 114
1, 547618, Note_on_c, 0, 63, 115
1, 548065, Note_off_c, 0, 63, 115
1, 548363, Note_on_c, 0, 63, 101
1, 549133, Note_off_c, 0, 63, 101
1, 551943, Note_on_c, 0, 63, 116
1, 552490, Note_off_c, 0, 63, 116
1, 553186, Note_on_c, 0, 66, 109
1, 553534, Note_off_c, 0, 66, 109
1, 554105, Note_on_c, 0, 63, 100
1, 554701, Note_off_c, 0, 63, 100
1, 554800, Note_on_c, 0, 66, 107
1, 555471, Note_off_c, 0, 66, 107
1, 555844, Note_on_c, 0, 65, 108
1, 556515, Note_off_c, 0, 65, 108
1, 556515, Note_on_c, 0, 66, 109
1, 557460, Note_off_c, 0, 66, 109
1, 557460, Note_on_c, 0, 63, 116
1, 557932, Note_off_c, 0, 63, 116
1, 558305, Note_on_c, 0, 63, 114
1, 558852, Note_off_c, 0, 63, 114
1, 561612, Note_on_c, 0, 63, 71
1, 562159, Note_off_c, 0, 63, 71
1, 562208, Note_on_c, 0, 68, 110
1, 562904, Note_off_c, 0, 68, 110
1, 563028, Note_on_c, 0, 66, 107
1, 563450, Note_on_c, 0, 63, 114
1, 563450, Note_off_c, 0, 66, 107
1, 564419, Note_off_c, 0, 63, 114
1, 564841, Note_on_c, 0, 63, 106
1, 566631, Note_off_c, 0, 63, 106
1, 567252, Note_on_c, 0, 65, 106
1, 567873, Note_off_c, 0, 65, 106
1, 568121, Note_on_c, 0, 65, 104
1, 568817, Note_off_c, 0, 65, 104
1, 571154, Note_on_c, 0, 61, 79
1, 571527, Note_off_c, 0, 61, 79
1, 571676, Note_on_c, 0, 64, 118
1, 572471, Note_off_c, 0, 64, 118
1, 572570, Note_on_c, 0, 67, 110
1, 572967, Note_off_c, 0, 67, 110
1, 573190, Note_on_c, 0, 65, 105
1, 573836, Note_off_c, 0, 65, 105
1, 573935, Note_on_c, 0, 61, 84
1, 574233, Note_off_c, 0, 61, 84
1, 574257, Note_on_c, 0, 63, 113
1, 575127, Note_off_c, 0, 63, 113
1, 575276, Note_on_c, 0, 61, 98
1, 575524, Note_off_c, 0, 61, 98
1, 575698, Note_on_c, 0, 62, 114
1, 576419, Note_off_c, 0, 62, 114
1, 576443, Note_on_c, 0, 60, 110
1, 576940, Note_off_c, 0, 60, 110
1, 576940, Note_on_c, 0, 58, 95
1, 579178, Note_off_c, 0, 58, 95
1, 582584, Note_on_c, 0, 58, 103
1, 583006, Note_off_c, 0, 58, 103
1, 583006, Note_on_c, 0, 60, 99
1, 583528, Note_off_c, 0, 60, 99
1, 583552, Note_on_c, 0, 63, 112
1, 584347, Note_off_c, 0, 63, 112
1, 584844, Note_on_c, 0, 68, 100
1, 585366, Note_off_c, 0, 68, 100
1, 586136, Note_on_c, 0, 65, 97
1, 587031, Note_off_c, 0, 65, 97
1, 587478, Note_on_c, 0, 63, 116
1, 588025, Note_off_c, 0, 63, 116
1, 588398, Note_on_c, 0, 63, 113
1, 588845, Note_off_c, 0, 63, 113
1, 590511, Note_on_c, 0, 68, 113
1, 591157, Note_off_c, 0, 68, 113
1, 591355, Note_on_c, 0, 65, 104
1, 591653, Note_off_c, 0, 65, 104
1, 591653, Note_on_c, 0, 67, 105
1, 592374, Note_off_c, 0, 67, 105
1, 592374, Note_on_c, 0, 63, 115
1, 592871, Note_off_c, 0, 63, 115
1, 593169, Note_on_c, 0, 63, 112
1, 593691, Note_off_c, 0, 63, 112
1, 594188, Note_on_c, 0, 66, 77
1, 594436, Note_off_c, 0, 66, 77
1, 594734, Note_on_c, 0, 63, 91
1, 595007, Note_off_c, 0, 63, 91
1, 595056, Note_on_c, 0, 67, 111
1, 595727, Note_off_c, 0, 67, 111
1, 596124, Note_on_c, 0, 66, 97
1, 596322, Note_off_c, 0, 66, 97
1, 596322, Note_on_c, 0, 67, 109
1, 596943, Note_off_c, 0, 67, 109
1, 597166, Note_on_c, 0, 63, 116
1, 597762, Note_off_c, 0, 63, 116
1, 599461, Note_on_c, 0, 70, 108
1, 600300, Note_off_c, 0, 70, 108
1, 600300, Note_on_c, 0, 72, 111
1, 601803, Note_off_c, 0, 72, 111
1, 601803, Note_on_c, 0, 70, 103
1, 602292, Note_off_c, 0, 70, 103
1, 602536, Note_on_c, 0, 68, 113
1, 603130, Note_off_c, 0, 68, 113
1, 603130, Note_on_c, 0, 67, 100
1, 603567, Note_off_c, 0, 67, 100
1, 603654, Note_on_c, 0, 65, 107
1, 604248, Note_off_c, 0, 65, 107
1, 604248, Note_on_c, 0, 63, 102
1, 604755, Note_off_c, 0, 63, 102
1, 605139, Note_on_c, 0, 62, 108
1, 605628, Note_off_c, 0, 62, 108
1, 605628, Note_on_c, 0, 61, 92
1, 606100, Note_off_c, 0, 61, 92
1, 606309, Note_on_c, 0, 65, 108
1, 606955, Note_off_c, 0, 65, 108
1, 607042, Note_on_c, 0, 63, 110
1, 607723, Note_off_c, 0, 63, 110
1, 607880, Note_on_c, 0, 61, 101
1, 608352, Note_off_c, 0, 61, 101
1, 608386, Note_on_c, 0, 60, 92
1, 608770, Note_off_c, 0, 60, 92
1, 608839, Note_on_c, 0, 65, 93
1, 609188, Note_off_c, 0, 65, 93
1, 609345, Note_on_c, 0, 70, 101
1, 610324, Note_off_c, 0, 70, 101
1, 610603, Note_on_c, 0, 69, 108
1, 611372, Note_off_c, 0, 69, 108
1, 611441, Note_on_c, 0, 67, 94
1, 611843, Note_off_c, 0, 67, 94
1, 611843, Note_on_c, 0, 68, 111
1, 612734, Note_off_c, 0, 68, 111
1, 612734, Note_on_c, 0, 67, 110
1, 613223, Note_off_c, 0, 67, 110
1, 613223, Note_on_c, 0, 65, 97
1, 613835, Note_off_c, 0, 65, 97
1, 613974, Note_on_c, 0, 64, 113
1, 614498, Note_off_c, 0, 64, 113
1, 614585, Note_on_c, 0, 63, 109
1, 616595, Note_off_c, 0, 63, 109
1, 620214, Note_on_c, 0, 70, 94
1, 620616, Note_off_c, 0, 70, 94
1, 620650, Note_on_c, 0, 72, 112
1, 621454, Note_off_c, 0, 72, 112
1, 621576, Note_on_c, 0, 65, 112
1, 621995, Note_off_c, 0, 65, 112
1, 622029, Note_on_c, 0, 66, 112
1, 622693, Note_off_c, 0, 66, 112
1, 622850, Note_on_c, 0, 67, 103
1, 623234, Note_off_c, 0, 67, 103
1, 623303, Note_on_c, 0, 69, 109
1, 623967, Note_off_c, 0, 69, 109
1, 623967, Note_on_c, 0, 62, 111
1, 624613, Note_off_c, 0, 62, 111
1, 624630, Note_on_c, 0, 63, 112
1, 625346, Note_off_c, 0, 63, 112
1, 625346, Note_on_c, 0, 59, 104
1, 625818, Note_off_c, 0, 59, 104
1, 625835, Note_on_c, 0, 60, 101
1, 626429, Note_off_c, 0, 60, 101
1, 629349, Note_on_c, 0, 58, 104
1, 629926, Note_off_c, 0, 58, 104
1, 630048, Note_on_c, 0, 60, 105
1, 630625, Note_off_c, 0, 60, 105
1, 630625, Note_on_c, 0, 63, 118
1, 631114, Note_off_c, 0, 63, 118
1, 631306, Note_on_c, 0, 65, 111
1, 631900, Note_off_c, 0, 65, 111
1, 632057, Note_on_c, 0, 66, 112
1, 632336, Note_off_c, 0, 66, 112
1, 632370, Note_on_c, 0, 67, 106
1, 633174, Note_off_c, 0, 67, 106
1, 633208, Note_on_c, 0, 72, 114
1, 633750, Note_off_c, 0, 72, 114
1, 633994, Note_on_c, 0, 71, 111
1, 634273, Note_off_c, 0, 71, 111
1, 634325, Note_on_c, 0, 70, 105
1, 635111, Note_on_c, 0, 67, 110
1, 635111, Note_off_c, 0, 70, 105
1, 635775, Note_off_c, 0, 67, 110
1, 635775, Note_on_c, 0, 64, 116
1, 636491, Note_off_c, 0, 64, 116
1, 636560, Note_on_c, 0, 61, 91
1, 637014, Note_off_c, 0, 61, 91
1, 637328, Note_on_c, 0, 66, 113
1, 637607, Note_off_c, 0, 66, 113
1, 637641, Note_on_c, 0, 67, 111
1, 637973, Note_on_c, 0, 68, 110
1, 637973, Note_off_c, 0, 67, 111
1, 638794, Note_off_c, 0, 68, 110
1, 638986, Note_on_c, 0, 68, 110
1, 639388, Note_off_c, 0, 68, 110
1, 639388, Note_on_c, 0, 66, 109
1, 639737, Note_off_c, 0, 66, 109
1, 639789, Note_on_c, 0, 65, 110
1, 640156, Note_off_c, 0, 65, 110
1, 640383, Note_on_c, 0, 60, 109
1, 640907, Note_off_c, 0, 60, 109
1, 641291, Note_on_c, 0, 60, 92
1, 641850, Note_off_c, 0, 60, 92
1, 641972, Note_on_c, 0, 67, 82
1, 642251, Note_off_c, 0, 67, 82
1, 642408, Note_on_c, 0, 68, 112
1, 643247, Note_off_c, 0, 68, 112
1, 643369, Note_on_c, 0, 66, 111
1, 643963, Note_off_c, 0, 66, 111
1, 644120, Note_on_c, 0, 64, 114
1, 644627, Note_off_c, 0, 64, 114
1, 645134, Note_on_c, 0, 59, 102
1, 645693, Note_off_c, 0, 59, 102
1, 645762, Note_on_c, 0, 58, 102
1, 646478, Note_off_c, 0, 58, 102
1, 646565, Note_on_c, 0, 56, 106
1, 647037, Note_off_c, 0, 56, 106
1, 647054, Note_on_c, 0, 55, 98
1, 649659, Note_on_c, 0, 63, 116
1, 649659, Note_off_c, 0, 55, 98
1, 650655, Note_off_c, 0, 63, 116
1, 652928, Note_on_c, 0, 56, 111
1, 653574, Note_off_c, 0, 56, 111
1, 653923, Note_on_c, 0, 63, 114
1, 654639, Note_off_c, 0, 63, 114
1, 655076, Note_on_c, 0, 55, 104
1, 655530, Note_off_c, 0, 55, 104
1, 655564, Note_on_c, 0, 57, 105
1, 656490, Note_off_c, 0, 57, 105
1, 656594, Note_on_c, 0, 63, 112
1, 657153, Note_off_c, 0, 63, 112
1, 657345, Note_on_c, 0, 58, 95
1, 659233, Note_off_c, 0, 58, 95
1, 663219, Note_on_c, 0, 62, 103
1, 663697, Note_off_c, 0, 62, 103
1, 663697, Note_on_c, 0, 65, 107
1, 668813, Note_off_c, 0, 65, 107
1, 668813, Note_on_c, 0, 63, 102
1, 669372, Note_off_c, 0, 63, 102
1, 669441, Note_on_c, 0, 65, 112
1, 671399, Note_off_c, 0, 65, 112
1, 671399, Note_on_c, 0, 63, 98
1, 671853, Note_off_c, 0, 63, 98
1, 672027, Note_on_c, 0, 65, 114
1, 673845, Note_off_c, 0, 65, 114
1, 673845, Note_on_c, 0, 63, 100
1, 674404, Note_off_c, 0, 63, 100
1, 674473, Note_on_c, 0, 65, 111
1, 676326, Note_off_c, 0, 65, 111
1, 676955, Note_on_c, 0, 65, 111
1, 677724, Note_off_c, 0, 65, 111
1, 677933, Note_on_c, 0, 65, 114
1, 678527, Note_off_c, 0, 65, 114
1, 683178, Note_on_c, 0, 68, 113
1, 684017, Note_off_c, 0, 68, 113
1, 684191, Note_on_c, 0, 67, 114
1, 685100, Note_off_c, 0, 67, 114
1, 685421, Note_on_c, 0, 64, 113
1, 685980, Note_off_c, 0, 64, 113
1, 686007, Note_on_c, 0, 65, 110
1, 688245, Note_off_c, 0, 65, 110
1, 688245, Note_on_c, 0, 63, 117
1, 689189, Note_off_c, 0, 63, 117
1, 689258, Note_on_c, 0, 62, 114
1, 689817, Note_off_c, 0, 62, 114
1, 689886, Note_on_c, 0, 61, 110
1, 690550, Note_off_c, 0, 61, 110
1, 690724, Note_on_c, 0, 58, 106
1, 691318, Note_off_c, 0, 58, 106
1, 691352, Note_on_c, 0, 63, 115
1, 692051, Note_on_c, 0, 65, 107
1, 692051, Note_off_c, 0, 63, 115
1, 698520, Note_off_c, 0, 65, 107
1, 698520, Note_on_c, 0, 61, 109
1, 699219, Note_on_c, 0, 58, 104
1, 699219, Note_off_c, 0, 61, 109
1, 699918, Note_off_c, 0, 58, 104
1, 700057, Note_on_c, 0, 57, 110
1, 700616, Note_off_c, 0, 57, 110
1, 700860, Note_on_c, 0, 53, 100
1, 701174, Note_on_c, 0, 56, 111
1, 701174, Note_off_c, 0, 53, 100
1, 702188, Note_off_c, 0, 56, 111
1, 702572, Note_on_c, 0, 55, 110
1, 703306, Note_off_c, 0, 55, 110
1, 703306, Note_on_c, 0, 51, 104
1, 704739, Note_off_c, 0, 51, 104
1, 710026, Note_on_c, 0, 44, 117
1, 710921, Note_off_c, 0, 44, 117
1, 711169, Note_on_c, 0, 51, 103
1, 712014, Note_off_c, 0, 51, 103
1, 712014, Note_on_c, 0, 56, 110
1, 713058, Note_off_c, 0, 56, 110
1, 713157, Note_on_c, 0, 58, 108
1, 713803, Note_off_c, 0, 58, 108
1, 714001, Note_on_c, 0, 59, 106
1, 714597, Note_off_c, 0, 59, 106
1, 714696, Note_on_c, 0, 60, 106
1, 715243, Note_off_c, 0, 60, 106
1, 715392, Note_on_c, 0, 65, 111
1, 716088, Note_off_c, 0, 65, 111
1, 716088, Note_on_c, 0, 64, 117
1, 716759, Note_off_c, 0, 64, 117
1, 716833, Note_on_c, 0, 63, 118
1, 717504, Note_off_c, 0, 63, 118
1, 717504, Note_on_c, 0, 61, 112
1, 717901, Note_off_c, 0, 61, 112
1, 718025, Note_on_c, 0, 60, 109
1, 718572, Note_off_c, 0, 60, 109
1, 718572, Note_on_c, 0, 63, 119
1, 719293, Note_off_c, 0, 63, 119
1, 719293, Note_on_c, 0, 65, 109
1, 719889, Note_off_c, 0, 65, 109
1, 719889, Note_on_c, 0, 67, 111
1, 720585, Note_off_c, 0, 67, 111
1, 720609, Note_on_c, 0, 70, 112
1, 721777, Note_off_c, 0, 70, 112
1, 721777, Note_on_c, 0, 67, 105
1, 722448, Note_off_c, 0, 67, 105
1, 722572, Note_on_c, 0, 68, 116
1, 723218, Note_off_c, 0, 68, 116
1, 723317, Note_on_c, 0, 63, 117
1, 724610, Note_off_c, 0, 63, 117
1, 731125, Note_on_c, 0, 75, 99
1, 731672, Note_off_c, 0, 75, 99
1, 731672, Note_on_c, 0, 74, 112
1, 731870, Note_off_c, 0, 74, 112
1, 731969, Note_on_c, 0, 73, 114
1, 732192, Note_off_c, 0, 73, 114
1, 732241, Note_on_c, 0, 72, 114
1, 732464, Note_off_c, 0, 72, 114
1, 732488, Note_on_c, 0, 70, 108
1, 732861, Note_off_c, 0, 70, 108
1, 732861, Note_on_c, 0, 68, 108
1, 733582, Note_off_c, 0, 68, 108
1, 733656, Note_on_c, 0, 67, 113
1, 734103, Note_off_c, 0, 67, 113
1, 734152, Note_on_c, 0, 65, 107
1, 734748, Note_off_c, 0, 65, 107
1, 734748, Note_on_c, 0, 63, 113
1, 735270, Note_off_c, 0, 63, 113
1, 735394, Note_on_c, 0, 62, 113
1, 736164, Note_off_c, 0, 62, 113
1, 736164, Note_on_c, 0, 72, 104
1, 736661, Note_off_c, 0, 72, 104
1, 736884, Note_on_c, 0, 67, 103
1, 737829, Note_off_c, 0, 67, 103
1, 737903, Note_on_c, 0, 69, 103
1, 738450, Note_off_c, 0, 69, 103
1, 738549, Note_on_c, 0, 70, 110
1, 739369, Note_off_c, 0, 70, 110
1, 739418, Note_on_c, 0, 69, 111
1, 740064, Note_off_c, 0, 69, 111
1, 740064, Note_on_c, 0, 68, 112
1, 740785, Note_off_c, 0, 68, 112
1, 740834, Note_on_c, 0, 67, 112
1, 741281, Note_off_c, 0, 67, 112
1, 741355, Note_on_c, 0, 65, 109
1, 741703, Note_off_c, 0, 65, 109
1, 741802, Note_on_c, 0, 63, 116
1, 742349, Note_off_c, 0, 63, 116
1, 742349, Note_on_c, 0, 62, 111
1, 742871, Note_off_c, 0, 62, 111
1, 742871, Note_on_c, 0, 64, 108
1, 743020, Note_off_c, 0, 64, 108
1, 743020, Note_on_c, 0, 68, 107
1, 743641, Note_off_c, 0, 68, 107
1, 743641, Note_on_c, 0, 70, 115
1, 744138, Note_off_c, 0, 70, 115
1, 744138, Note_on_c, 0, 72, 116
1, 744958, Note_off_c, 0, 72, 116
1, 744958, Note_on_c, 0, 70, 106
1, 745679, Note_off_c, 0, 70, 106
1, 745703, Note_on_c, 0, 68, 109
1, 746250, Note_off_c, 0, 68, 109
1, 746349, Note_on_c, 0, 67, 110
1, 747020, Note_off_c, 0, 67, 110
1, 747020, Note_on_c, 0, 65, 108
1, 747542, Note_off_c, 0, 65, 108
1, 747566, Note_on_c, 0, 63, 105
1, 747963, Note_off_c, 0, 63, 105
1, 748932, Note_on_c, 0, 66, 108
1, 749329, Note_off_c, 0, 66, 108
1, 749378, Note_on_c, 0, 68, 113
1, 751715, Note_on_c, 0, 65, 110
1, 751715, Note_off_c, 0, 68, 113
1, 752361, Note_off_c, 0, 65, 110
1, 752460, Note_on_c, 0, 63, 108
1, 753007, Note_off_c, 0, 63, 108
1, 753504, Note_on_c, 0, 63, 111
1, 755045, Note_off_c, 0, 63, 111
1, 758526, Note_on_c, 0, 71, 82
1, 758899, Note_off_c, 0, 71, 82
1, 758998, Note_on_c, 0, 72, 113
1, 760216, Note_off_c, 0, 72, 113
1, 760390, Note_on_c, 0, 69, 107
1, 760812, Note_off_c, 0, 69, 107
1, 761508, Note_on_c, 0, 65, 108
1, 762030, Note_off_c, 0, 65, 108
1, 762030, Note_on_c, 0, 67, 113
1, 762701, Note_off_c, 0, 67, 113
1, 762775, Note_on_c, 0, 63, 118
1, 763620, Note_off_c, 0, 63, 118
1, 763818, Note_on_c, 0, 63, 117
1, 764265, Note_off_c, 0, 63, 117
1, 765309, Note_on_c, 0, 68, 108
1, 765905, Note_off_c, 0, 68, 108
1, 765979, Note_on_c, 0, 67, 107
1, 766650, Note_off_c, 0, 67, 107
1, 766848, Note_on_c, 0, 63, 9
1, 767668, Note_on_c, 0, 58, 100
1, 767668, Note_off_c, 0, 63, 9
1, 767916, Note_off_c, 0, 58, 100
1, 768164, Note_on_c, 0, 63, 118
1, 768959, Note_off_c, 0, 63, 118
1, 769207, Note_on_c, 0, 63, 119
1, 769679, Note_off_c, 0, 63, 119
1, 770524, Note_on_c, 0, 68, 113
1, 771319, Note_off_c, 0, 68, 113
1, 771393, Note_on_c, 0, 63, 118
1, 771964, Note_off_c, 0, 63, 118
1, 772535, Note_on_c, 0, 67, 73
1, 772684, Note_off_c, 0, 67, 73
1, 772783, Note_on_c, 0, 66, 110
1, 773230, Note_off_c, 0, 66, 110
1, 773727, Note_on_c, 0, 63, 101
1, 774274, Note_off_c, 0, 63, 101
1, 774970, Note_on_c, 0, 63, 106
1, 775492, Note_off_c, 0, 63, 106
1, 775790, Note_on_c, 0, 68, 101
1, 776834, Note_off_c, 0, 68, 101
1, 777057, Note_on_c, 0, 65, 115
1, 777554, Note_off_c, 0, 65, 115
1, 777678, Note_on_c, 0, 66, 97
1, 778225, Note_off_c, 0, 66, 97
1, 778448, Note_on_c, 0, 63, 118
1, 779069, Note_off_c, 0, 63, 118
1, 779392, Note_on_c, 0, 63, 121
1, 779839, Note_off_c, 0, 63, 121
1, 780386, Note_on_c, 0, 67, 90
1, 780634, Note_off_c, 0, 67, 90
1, 780634, Note_on_c, 0, 68, 115
1, 781355, Note_off_c, 0, 68, 115
1, 781678, Note_on_c, 0, 63, 116
1, 782051, Note_off_c, 0, 63, 116
1, 783020, Note_on_c, 0, 66, 114
1, 783517, Note_off_c, 0, 66, 114
1, 784113, Note_on_c, 0, 63, 113
1, 784510, Note_off_c, 0, 63, 113
1, 785156, Note_on_c, 0, 63, 109
1, 785727, Note_off_c, 0, 63, 109
1, 785727, Note_on_c, 0, 68, 117
1, 786398, Note_off_c, 0, 68, 117
1, 786920, Note_on_c, 0, 65, 115
1, 787865, Note_off_c, 0, 65, 115
1, 788287, Note_on_c, 0, 63, 119
1, 789008, Note_off_c, 0, 63, 119
1, 791867, Note_on_c, 0, 72, 116
1, 792513, Note_off_c, 0, 72, 116
1, 792612, Note_on_c, 0, 71, 117
1, 793009, Note_off_c, 0, 71, 117
1, 793058, Note_on_c, 0, 70, 111
1, 793704, Note_off_c, 0, 70, 111
1, 793778, Note_on_c, 0, 68, 117
1, 794300, Note_off_c, 0, 68, 117
1, 794349, Note_on_c, 0, 67, 107
1, 794970, Note_off_c, 0, 67, 107
1, 794970, Note_on_c, 0, 65, 113
1, 795591, Note_off_c, 0, 65, 113
1, 795591, Note_on_c, 0, 64, 116
1, 796312, Note_off_c, 0, 64, 116
1, 796361, Note_on_c, 0, 61, 115
1, 796709, Note_off_c, 0, 61, 115
1, 796808, Note_on_c, 0, 60, 111
1, 797429, Note_off_c, 0, 60, 111
1, 797429, Note_on_c, 0, 58, 111
1, 798000, Note_off_c, 0, 58, 111
1, 798024, Note_on_c, 0, 57, 109
1, 798869, Note_off_c, 0, 57, 109
1, 799540, Note_on_c, 0, 67, 116
1, 800211, Note_off_c, 0, 67, 116
1, 800907, Note_on_c, 0, 67, 112
1, 801653, Note_off_c, 0, 67, 112
1, 802249, Note_on_c, 0, 57, 108
1, 802970, Note_off_c, 0, 57, 108
1, 803019, Note_on_c, 0, 56, 106
1, 803640, Note_off_c, 0, 56, 106
1, 804013, Note_on_c, 0, 66, 113
1, 804734, Note_off_c, 0, 66, 113
1, 805853, Note_on_c, 0, 66, 114
1, 807071, Note_off_c, 0, 66, 114
1, 807071, Note_on_c, 0, 62, 117
1, 807642, Note_off_c, 0, 62, 117
1, 808335, Note_on_c, 0, 63, 117
1, 809401, Note_off_c, 0, 63, 117
1, 813683, Note_on_c, 0, 61, 112
1, 814230, Note_off_c, 0, 61, 112
1, 814230, Note_on_c, 0, 63, 116
1, 815896, Note_off_c, 0, 63, 116
1, 816169, Note_on_c, 0, 60, 110
1, 816492, Note_off_c, 0, 60, 110
1, 816566, Note_on_c, 0, 63, 111
1, 817436, Note_on_c, 0, 59, 101
1, 817436, Note_off_c, 0, 63, 111
1, 817958, Note_off_c, 0, 59, 101
1, 817958, Note_on_c, 0, 63, 119
1, 818679, Note_off_c, 0, 63, 119
1, 818679, Note_on_c, 0, 58, 103
1, 820021, Note_off_c, 0, 58, 103
1, 821164, Note_on_c, 0, 55, 104
1, 821860, Note_off_c, 0, 55, 104
1, 821860, Note_on_c, 0, 58, 105
1, 822755, Note_off_c, 0, 58, 105
1, 822755, Note_on_c, 0, 55, 94
1, 823103, Note_off_c, 0, 55, 94
1, 823277, Note_on_c, 0, 56, 111
1, 824047, Note_off_c, 0, 56, 111
1, 824494, Note_on_c, 0, 60, 85
1, 824792, Note_off_c, 0, 60, 85
1, 824792, Note_on_c, 0, 63, 109
1, 825737, Note_off_c, 0, 63, 109
1, 825811, Note_on_c, 0, 67, 98
1, 826333, Note_off_c, 0, 67, 98
1, 826556, Note_on_c, 0, 66, 112
1, 827451, Note_off_c, 0, 66, 112
1, 827451, End_track
0, 0, End_of_file
