0, 0, Header, 1, 1, 840
1, 0, Start_track
1, 0, Title_t, "Melody"
1, 0, Tempo, 361445
1, 0, Key_signature, -4, "major"
1, 0, Time_signature, 4, 2, 24, 8
1, 9449, Note_on_c, 0, 58, 95
1, 9619, Note_off_c, 0, 58, 95
1, 9698, Note_on_c, 0, 60, 103
1, 9880, Note_off_c, 0, 60, 103
1, 9905, Note_on_c, 0, 62, 108
1, 10117, Note_off_c, 0, 62, 108
1, 10157, Note_on_c, 0, 70, 117
1, 10526, Note_off_c, 0, 70, 117
1, 10556, Note_on_c, 0, 68, 118
1, 10940, Note_off_c, 0, 68, 118
1, 10980, Note_on_c, 0, 67, 115
1, 11288, Note_off_c, 0, 67, 115
1, 11328, Note_on_c, 0, 66, 112
1, 11631, Note_off_c, 0, 66, 112
1, 11766, Note_on_c, 0, 65, 118
1, 12183, Note_off_c, 0, 65, 118
1, 12183, Note_on_c, 0, 63, 122
1, 12602, Note_off_c, 0, 63, 122
1, 12647, Note_on_c, 0, 61, 123
1, 12950, Note_off_c, 0, 61, 123
1, 13035, Note_on_c, 0, 60, 116
1, 13394, Note_off_c, 0, 60, 116
1, 13408, Note_on_c, 0, 58, 115
1, 13716, Note_off_c, 0, 58, 115
1, 13771, Note_on_c, 0, 56, 110
1, 14175, Note_off_c, 0, 56, 110
1, 14245, Note_on_c, 0, 55, 113
1, 14676, Note_off_c, 0, 55, 113
1, 14740, Note_on_c, 0, 54, 114
1, 15117, Note_off_c, 0, 54, 114
1, 15170, Note_on_c, 0, 56, 107
1, 15547, Note_off_c, 0, 56, 107
1, 15749, Note_on_c, 0, 52, 110
1, 15910, Note_off_c, 0, 52, 110
1, 15958, Note_on_c, 0, 53, 105
1, 16811, Note_off_c, 0, 53, 105
1, 16864, Note_on_c, 0, 63, 123
1, 17300, Note_off_c, 0, 63, 123
1, 17324, Note_on_c, 0, 61, 120
1, 17782, Note_off_c, 0, 61, 120
1, 18003, Note_on_c, 0, 56, 112
1, 18542, Note_off_c, 0, 56, 112
1, 18549, Note_on_c, 0, 53, 111
1, 18899, Note_off_c, 0, 53, 111
1, 18966, Note_on_c, 0, 52, 108
1, 20180, Note_off_c, 0, 52, 108
1, 20282, Note_on_c, 0, 61, 118
1, 20647, Note_off_c, 0, 61, 118
1, 20674, Note_on_c, 0, 60, 116
1, 21262, Note_off_c, 0, 60, 116
1, 21372, Note_on_c, 0, 55, 108
1, 21857, Note_off_c, 0, 55, 108
1, 21910, Note_on_c, 0, 52, 112
1, 22254, Note_off_c, 0, 52, 112
1, 22322, Note_on_c, 0, 51, 109
1, 23631, Note_off_c, 0, 51, 109
1, 23725, Note_on_c, 0, 59, 105
1, 24806, Note_off_c, 0, 59, 105
1, 24876, Note_on_c, 0, 51, 107
1, 25426, Note_off_c, 0, 51, 107
1, 25767, Note_on_c, 0, 50, 107
1, 26557, Note_off_c, 0, 50, 107
1, 26612, Note_on_c, 0, 50, 105
1, 26918, Note_off_c, 0, 50, 105
1, 26923, Note_on_c, 0, 58, 112
1, 27253, Note_off_c, 0, 58, 112
1, 29468, Note_on_c, 0, 58, 111
1, 29809, Note_off_c, 0, 58, 111
1, 29865, Note_on_c, 0, 61, 109
1, 30140, Note_off_c, 0, 61, 109
1, 30140, Note_on_c, 0, 65, 98
1, 30268, Note_off_c, 0, 65, 98
1, 30304, Note_on_c, 0, 68, 115
1, 30854, Note_off_c, 0, 68, 115
1, 30869, Note_on_c, 0, 72, 115
1, 31419, Note_off_c, 0, 72, 115
1, 31437, Note_on_c, 0, 65, 114
1, 31854, Note_off_c, 0, 65, 114
1, 31958, Note_on_c, 0, 72, 114
1, 32394, Note_off_c, 0, 72, 114
1, 32403, Note_on_c, 0, 71, 113
1, 33010, Note_off_c, 0, 71, 113
1, 33161, Note_on_c, 0, 64, 124
1, 34261, Note_off_c, 0, 64, 124
1, 35884, Note_on_c, 0, 70, 113
1, 36182, Note_off_c, 0, 70, 113
1, 36208, Note_on_c, 0, 68, 111
1, 36518, Note_off_c, 0, 68, 111
1, 36558, Note_on_c, 0, 70, 116
1, 36969, Note_off_c, 0, 70, 116
1, 37027, Note_on_c, 0, 68, 120
1, 37406, Note_off_c, 0, 68, 120
1, 37481, Note_on_c, 0, 67, 113
1, 37791, Note_off_c, 0, 67, 113
1, 37831, Note_on_c, 0, 65, 112
1, 38195, Note_off_c, 0, 65, 112
1, 38220, Note_on_c, 0, 63, 121
1, 38580, Note_off_c, 0, 63, 121
1, 38672, Note_on_c, 0, 65, 111
1, 39036, Note_off_c, 0, 65, 111
1, 39096, Note_on_c, 0, 66, 112
1, 39460, Note_off_c, 0, 66, 112
1, 39526, Note_on_c, 0, 68, 95
1, 39848, Note_off_c, 0, 68, 95
1, 39872, Note_on_c, 0, 69, 115
1, 40246, Note_off_c, 0, 69, 115
1, 40246, Note_on_c, 0, 67, 99
1, 40606, Note_off_c, 0, 67, 99
1, 40681, Note_on_c, 0, 68, 120
1, 41155, Note_off_c, 0, 68, 120
1, 41210, Note_on_c, 0, 66, 114
1, 41551, Note_off_c, 0, 66, 114
1, 41607, Note_on_c, 0, 65, 111
1, 41957, Note_off_c, 0, 65, 111
1, 42025, Note_on_c, 0, 63, 119
1, 42518, Note_off_c, 0, 63, 119
1, 42518, Note_on_c, 0, 61, 103
1, 43618, Note_off_c, 0, 61, 103
1, 43790, Note_on_c, 0, 68, 118
1, 44113, Note_off_c, 0, 68, 118
1, 45741, Note_on_c, 0, 65, 111
1, 46044, Note_off_c, 0, 65, 111
1, 46044, Note_on_c, 0, 67, 120
1, 47125, Note_off_c, 0, 67, 120
1, 47138, Note_on_c, 0, 66, 119
1, 47229, Note_off_c, 0, 66, 119
1, 47247, Note_on_c, 0, 65, 117
1, 47389, Note_off_c, 0, 65, 117
1, 47417, Note_on_c, 0, 64, 123
1, 47891, Note_off_c, 0, 64, 123
1, 47919, Note_on_c, 0, 60, 114
1, 48355, Note_off_c, 0, 60, 114
1, 48355, Note_on_c, 0, 55, 112
1, 48848, Note_off_c, 0, 55, 112
1, 49137, Note_on_c, 0, 65, 115
1, 49418, Note_off_c, 0, 65, 115
1, 49438, Note_on_c, 0, 66, 118
1, 50314, Note_off_c, 0, 66, 118
1, 50344, Note_on_c, 0, 64, 122
1, 50704, Note_off_c, 0, 64, 122
1, 50704, Note_on_c, 0, 63, 124
1, 51102, Note_off_c, 0, 63, 124
1, 51220, Note_on_c, 0, 59, 109
1, 51504, Note_off_c, 0, 59, 109
1, 51556, Note_on_c, 0, 54, 111
1, 52125, Note_off_c, 0, 54, 111
1, 52143, Note_on_c, 0, 52, 103
1, 52340, Note_off_c, 0, 52, 103
1, 52459, Note_on_c, 0, 53, 104
1, 53727, Note_off_c, 0, 53, 104
1, 58617, Note_on_c, 0, 63, 125
1, 59041, Note_off_c, 0, 63, 125
1, 59098, Note_on_c, 0, 68, 120
1, 59648, Note_off_c, 0, 68, 120
1, 59681, Note_on_c, 0, 63, 109
1, 59865, Note_off_c, 0, 63, 109
1, 59902, Note_on_c, 0, 67, 111
1, 60390, Note_off_c, 0, 67, 111
1, 60404, Note_on_c, 0, 70, 109
1, 60745, Note_off_c, 0, 70, 109
1, 60759, Note_on_c, 0, 68, 114
1, 61271, Note_off_c, 0, 68, 114
1, 61299, Note_on_c, 0, 63, 119
1, 61564, Note_off_c, 0, 63, 119
1, 61658, Note_on_c, 0, 62, 106
1, 62089, Note_off_c, 0, 62, 106
1, 62112, Note_on_c, 0, 65, 107
1, 62453, Note_off_c, 0, 65, 107
1, 62566, Note_on_c, 0, 63, 111
1, 62869, Note_off_c, 0, 63, 111
1, 62925, Note_on_c, 0, 60, 106
1, 63285, Note_off_c, 0, 60, 106
1, 63356, Note_on_c, 0, 59, 97
1, 63688, Note_off_c, 0, 59, 97
1, 63725, Note_on_c, 0, 61, 118
1, 64161, Note_off_c, 0, 61, 118
1, 64232, Note_on_c, 0, 60, 110
1, 64592, Note_off_c, 0, 60, 110
1, 64592, Note_on_c, 0, 56, 111
1, 64933, Note_off_c, 0, 56, 111
1, 65008, Note_on_c, 0, 55, 105
1, 65368, Note_off_c, 0, 55, 105
1, 65386, Note_on_c, 0, 58, 109
1, 65841, Note_off_c, 0, 58, 109
1, 65897, Note_on_c, 0, 56, 110
1, 66238, Note_off_c, 0, 56, 110
1, 66304, Note_on_c, 0, 53, 107
1, 66569, Note_off_c, 0, 53, 107
1, 66630, Note_on_c, 0, 54, 109
1, 66848, Note_off_c, 0, 54, 109
1, 66881, Note_on_c, 0, 57, 101
1, 67089, Note_off_c, 0, 57, 101
1, 67107, Note_on_c, 0, 61, 111
1, 67277, Note_off_c, 0, 61, 111
1, 67528, Note_on_c, 0, 65, 113
1, 67888, Note_off_c, 0, 65, 113
1, 67902, Note_on_c, 0, 63, 107
1, 68167, Note_off_c, 0, 63, 107
1, 68290, Note_on_c, 0, 68, 116
1, 68764, Note_off_c, 0, 68, 116
1, 68768, Note_on_c, 0, 66, 113
1, 69100, Note_off_c, 0, 66, 113
1, 69194, Note_on_c, 0, 64, 118
1, 69611, Note_off_c, 0, 64, 118
1, 69625, Note_on_c, 0, 65, 111
1, 70345, Note_off_c, 0, 65, 111
1, 70420, Note_on_c, 0, 67, 106
1, 70685, Note_off_c, 0, 67, 106
1, 70722, Note_on_c, 0, 65, 112
1, 70892, Note_on_c, 0, 63, 116
1, 70892, Note_off_c, 0, 65, 112
1, 71347, Note_off_c, 0, 63, 116
1, 71384, Note_on_c, 0, 61, 119
1, 71592, Note_off_c, 0, 61, 119
1, 72350, Note_on_c, 0, 61, 114
1, 72805, Note_off_c, 0, 61, 114
1, 73260, Note_on_c, 0, 61, 108
1, 74322, Note_off_c, 0, 61, 108
1, 75067, Note_on_c, 0, 61, 112
1, 75896, Note_off_c, 0, 61, 112
1, 79058, Note_on_c, 0, 63, 122
1, 79328, Note_off_c, 0, 63, 122
1, 79380, Note_on_c, 0, 66, 101
1, 79503, Note_off_c, 0, 66, 101
1, 79526, Note_on_c, 0, 63, 114
1, 79630, Note_off_c, 0, 63, 114
1, 79648, Note_on_c, 0, 61, 113
1, 80003, Note_off_c, 0, 61, 113
1, 80036, Note_on_c, 0, 68, 117
1, 80472, Note_off_c, 0, 68, 117
1, 80490, Note_on_c, 0, 64, 124
1, 80973, Note_off_c, 0, 64, 124
1, 81001, Note_on_c, 0, 63, 117
1, 81551, Note_off_c, 0, 63, 117
1, 81688, Note_on_c, 0, 61, 113
1, 82171, Note_off_c, 0, 61, 113
1, 82223, Note_on_c, 0, 60, 107
1, 83228, Note_off_c, 0, 60, 107
1, 83322, Note_on_c, 0, 63, 100
1, 83587, Note_off_c, 0, 63, 100
1, 83596, Note_on_c, 0, 67, 91
1, 83705, Note_off_c, 0, 67, 91
1, 83723, Note_on_c, 0, 70, 107
1, 84178, Note_off_c, 0, 70, 107
1, 84206, Note_on_c, 0, 68, 115
1, 84566, Note_off_c, 0, 68, 115
1, 84589, Note_on_c, 0, 67, 112
1, 84944, Note_off_c, 0, 67, 112
1, 84981, Note_on_c, 0, 65, 111
1, 85403, Note_off_c, 0, 65, 111
1, 85451, Note_on_c, 0, 64, 118
1, 85821, Note_off_c, 0, 64, 118
1, 85989, Note_on_c, 0, 63, 114
1, 86387, Note_off_c, 0, 63, 114
1, 86405, Note_on_c, 0, 60, 105
1, 87192, Note_off_c, 0, 60, 105
1, 90711, Note_on_c, 0, 73, 117
1, 91261, Note_off_c, 0, 73, 117
1, 91298, Note_on_c, 0, 72, 118
1, 91746, Note_off_c, 0, 72, 118
1, 91746, Note_on_c, 0, 66, 112
1, 92220, Note_off_c, 0, 66, 112
1, 92250, Note_on_c, 0, 67, 111
1, 92482, Note_off_c, 0, 67, 111
1, 92662, Note_on_c, 0, 70, 111
1, 94483, Note_off_c, 0, 70, 111
1, 94525, Note_on_c, 0, 69, 116
1, 94861, Note_off_c, 0, 69, 116
1, 94884, Note_on_c, 0, 68, 113
1, 95287, Note_off_c, 0, 68, 113
1, 95443, Note_on_c, 0, 66, 112
1, 95803, Note_off_c, 0, 66, 112
1, 95803, Note_on_c, 0, 64, 117
1, 96182, Note_off_c, 0, 64, 117
1, 96267, Note_on_c, 0, 65, 111
1, 96954, Note_off_c, 0, 65, 111
1, 97001, Note_on_c, 0, 67, 105
1, 97214, Note_off_c, 0, 67, 105
1, 97242, Note_on_c, 0, 65, 114
1, 97403, Note_off_c, 0, 65, 114
1, 97412, Note_on_c, 0, 63, 115
1, 97985, Note_off_c, 0, 63, 115
1, 98018, Note_on_c, 0, 61, 119
1, 98269, Note_off_c, 0, 61, 119
1, 99236, Note_on_c, 0, 62, 114
1, 99596, Note_off_c, 0, 62, 114
1, 99614, Note_on_c, 0, 64, 123
1, 100372, Note_off_c, 0, 64, 123
1, 100409, Note_on_c, 0, 67, 106
1, 100674, Note_off_c, 0, 67, 106
1, 100702, Note_on_c, 0, 64, 122
1, 100977, Note_off_c, 0, 64, 122
1, 101010, Note_on_c, 0, 62, 119
1, 101398, Note_off_c, 0, 62, 119
1, 101416, Note_on_c, 0, 60, 114
1, 101643, Note_off_c, 0, 60, 114
1, 102899, Note_on_c, 0, 68, 113
1, 103145, Note_off_c, 0, 68, 113
1, 103178, Note_on_c, 0, 67, 118
1, 103268, Note_off_c, 0, 67, 118
1, 103286, Note_on_c, 0, 66, 115
1, 103546, Note_off_c, 0, 66, 115
1, 103768, Note_on_c, 0, 64, 123
1, 104147, Note_off_c, 0, 64, 123
1, 104184, Note_on_c, 0, 63, 116
1, 104629, Note_off_c, 0, 63, 116
1, 104690, Note_on_c, 0, 61, 117
1, 105022, Note_off_c, 0, 61, 117
1, 105107, Note_on_c, 0, 59, 106
1, 105529, Note_off_c, 0, 59, 106
1, 105870, Note_on_c, 0, 65, 105
1, 105993, Note_off_c, 0, 65, 105
1, 106011, Note_on_c, 0, 67, 116
1, 106599, Note_off_c, 0, 67, 116
1, 106693, Note_on_c, 0, 65, 111
1, 107091, Note_off_c, 0, 65, 111
1, 107204, Note_on_c, 0, 63, 119
1, 107526, Note_off_c, 0, 63, 119
1, 107644, Note_on_c, 0, 62, 118
1, 107952, Note_off_c, 0, 62, 118
1, 108004, Note_on_c, 0, 60, 114
1, 108298, Note_off_c, 0, 60, 114
1, 108335, Note_on_c, 0, 59, 102
1, 109003, Note_off_c, 0, 59, 102
1, 109268, Note_on_c, 0, 58, 105
1, 110311, Note_off_c, 0, 58, 105
1, 111354, Note_on_c, 0, 58, 111
1, 111790, Note_off_c, 0, 58, 111
1, 111801, Note_on_c, 0, 61, 110
1, 112094, Note_off_c, 0, 61, 110
1, 112104, Note_on_c, 0, 65, 100
1, 112250, Note_off_c, 0, 65, 100
1, 112262, Note_on_c, 0, 68, 113
1, 112684, Note_on_c, 0, 72, 118
1, 112684, Note_off_c, 0, 68, 113
1, 113257, Note_off_c, 0, 72, 118
1, 113285, Note_on_c, 0, 68, 108
1, 113469, Note_off_c, 0, 68, 108
1, 113516, Note_on_c, 0, 72, 120
1, 114089, Note_off_c, 0, 72, 120
1, 114373, Note_on_c, 0, 70, 119
1, 114648, Note_off_c, 0, 70, 119
1, 114704, Note_on_c, 0, 72, 105
1, 114874, Note_off_c, 0, 72, 105
1, 114911, Note_on_c, 0, 71, 112
1, 115195, Note_off_c, 0, 71, 112
1, 115270, Note_on_c, 0, 67, 112
1, 115744, Note_off_c, 0, 67, 112
1, 116123, Note_on_c, 0, 68, 112
1, 116673, Note_off_c, 0, 68, 112
1, 116967, Note_on_c, 0, 68, 99
1, 118389, Note_off_c, 0, 68, 99
1, 119470, Note_on_c, 0, 72, 116
1, 119746, Note_off_c, 0, 72, 116
1, 119799, Note_on_c, 0, 73, 116
1, 120014, Note_off_c, 0, 73, 116
1, 120061, Note_on_c, 0, 72, 114
1, 120270, Note_off_c, 0, 72, 114
1, 120357, Note_on_c, 0, 68, 117
1, 121928, Note_off_c, 0, 68, 117
1, 121975, Note_on_c, 0, 65, 115
1, 122474, Note_off_c, 0, 65, 115
1, 122838, Note_on_c, 0, 68, 113
1, 123350, Note_off_c, 0, 68, 113
1, 123518, Note_on_c, 0, 68, 113
1, 123801, Note_off_c, 0, 68, 113
1, 125568, Note_on_c, 0, 70, 115
1, 125716, Note_off_c, 0, 70, 115
1, 125810, Note_on_c, 0, 72, 116
1, 126106, Note_off_c, 0, 72, 116
1, 126348, Note_on_c, 0, 67, 110
1, 127015, Note_off_c, 0, 67, 110
1, 127129, Note_on_c, 0, 67, 112
1, 127378, Note_off_c, 0, 67, 112
1, 129789, Note_on_c, 0, 73, 114
1, 130623, Note_off_c, 0, 73, 114
1, 130729, Note_on_c, 0, 71, 111
1, 131005, Note_off_c, 0, 71, 111
1, 131119, Note_on_c, 0, 66, 115
1, 131543, Note_off_c, 0, 66, 115
1, 131590, Note_on_c, 0, 61, 119
1, 132149, Note_off_c, 0, 61, 119
1, 132283, Note_on_c, 0, 59, 106
1, 132606, Note_off_c, 0, 59, 106
1, 133064, Note_on_c, 0, 70, 110
1, 133273, Note_off_c, 0, 70, 110
1, 133360, Note_on_c, 0, 72, 116
1, 133818, Note_off_c, 0, 72, 116
1, 133885, Note_on_c, 0, 70, 108
1, 134282, Note_off_c, 0, 70, 108
1, 134369, Note_on_c, 0, 65, 117
1, 134787, Note_off_c, 0, 65, 117
1, 134888, Note_on_c, 0, 60, 110
1, 135346, Note_off_c, 0, 60, 110
1, 135393, Note_on_c, 0, 58, 100
1, 136283, Note_off_c, 0, 58, 100
1, 137839, Note_on_c, 0, 53, 105
1, 138180, Note_off_c, 0, 53, 105
1, 138352, Note_on_c, 0, 58, 106
1, 138588, Note_off_c, 0, 58, 106
1, 138675, Note_on_c, 0, 61, 115
1, 138924, Note_off_c, 0, 61, 115
1, 139106, Note_on_c, 0, 65, 114
1, 139463, Note_off_c, 0, 65, 114
1, 139543, Note_on_c, 0, 68, 116
1, 139941, Note_off_c, 0, 68, 116
1, 140049, Note_on_c, 0, 72, 115
1, 140332, Note_off_c, 0, 72, 115
1, 140392, Note_on_c, 0, 70, 110
1, 140695, Note_off_c, 0, 70, 110
1, 140830, Note_on_c, 0, 68, 117
1, 141342, Note_off_c, 0, 68, 117
1, 141469, Note_on_c, 0, 65, 103
1, 141592, Note_off_c, 0, 65, 103
1, 141701, Note_on_c, 0, 67, 114
1, 142270, Note_off_c, 0, 67, 114
1, 142378, Note_on_c, 0, 70, 109
1, 142978, Note_off_c, 0, 70, 109
1, 143004, Note_on_c, 0, 68, 119
1, 143326, Note_off_c, 0, 68, 119
1, 145506, Note_on_c, 0, 62, 116
1, 145843, Note_off_c, 0, 62, 116
1, 145896, Note_on_c, 0, 63, 116
1, 146172, Note_off_c, 0, 63, 116
1, 146185, Note_on_c, 0, 66, 101
1, 146326, Note_off_c, 0, 66, 101
1, 146373, Note_on_c, 0, 70, 108
1, 146636, Note_off_c, 0, 70, 108
1, 146811, Note_on_c, 0, 73, 118
1, 147161, Note_off_c, 0, 73, 118
1, 147248, Note_on_c, 0, 70, 101
1, 147436, Note_off_c, 0, 70, 101
1, 147496, Note_on_c, 0, 72, 115
1, 147981, Note_off_c, 0, 72, 115
1, 148028, Note_on_c, 0, 70, 114
1, 148291, Note_off_c, 0, 70, 114
1, 148466, Note_on_c, 0, 68, 117
1, 148830, Note_off_c, 0, 68, 117
1, 148883, Note_on_c, 0, 65, 116
1, 149179, Note_off_c, 0, 65, 116
1, 149219, Note_on_c, 0, 66, 110
1, 149503, Note_off_c, 0, 66, 110
1, 149702, Note_on_c, 0, 66, 115
1, 149965, Note_off_c, 0, 66, 115
1, 150052, Note_on_c, 0, 65, 103
1, 150241, Note_off_c, 0, 65, 103
1, 150316, Note_on_c, 0, 65, 111
1, 150581, Note_off_c, 0, 65, 111
1, 150610, Note_on_c, 0, 68, 115
1, 150873, Note_off_c, 0, 68, 115
1, 150960, Note_on_c, 0, 70, 112
1, 151371, Note_off_c, 0, 70, 112
1, 151451, Note_on_c, 0, 65, 104
1, 151754, Note_off_c, 0, 65, 104
1, 151754, Note_on_c, 0, 68, 112
1, 152607, Note_off_c, 0, 68, 112
1, 152623, Note_on_c, 0, 70, 113
1, 153000, Note_off_c, 0, 70, 113
1, 153534, Note_on_c, 0, 64, 126
1, 153989, Note_off_c, 0, 64, 126
1, 154292, Note_on_c, 0, 69, 113
1, 154823, Note_off_c, 0, 69, 113
1, 155195, Note_on_c, 0, 67, 108
1, 155847, Note_off_c, 0, 67, 108
1, 155978, Note_on_c, 0, 69, 106
1, 156355, Note_off_c, 0, 69, 106
1, 156840, Note_on_c, 0, 63, 120
1, 157264, Note_off_c, 0, 63, 120
1, 157702, Note_on_c, 0, 68, 115
1, 158328, Note_off_c, 0, 68, 115
1, 158574, Note_on_c, 0, 66, 108
1, 159313, Note_off_c, 0, 66, 108
1, 159464, Note_on_c, 0, 68, 114
1, 159919, Note_off_c, 0, 68, 114
1, 159975, Note_on_c, 0, 62, 113
1, 160544, Note_off_c, 0, 62, 113
1, 160834, Note_on_c, 0, 67, 113
1, 161611, Note_off_c, 0, 67, 113
1, 161639, Note_on_c, 0, 65, 106
1, 161828, Note_off_c, 0, 65, 106
1, 162021, Note_on_c, 0, 65, 101
1, 163557, Note_off_c, 0, 65, 101
1, 164008, Note_on_c, 0, 58, 106
1, 164439, Note_off_c, 0, 58, 106
1, 164479, Note_on_c, 0, 61, 108
1, 164755, Note_off_c, 0, 61, 108
1, 164755, Note_on_c, 0, 65, 96
1, 164889, Note_off_c, 0, 65, 96
1, 164915, Note_on_c, 0, 68, 115
1, 165137, Note_off_c, 0, 68, 115
1, 165354, Note_on_c, 0, 72, 116
1, 165695, Note_off_c, 0, 72, 116
1, 165713, Note_on_c, 0, 73, 114
1, 166092, Note_off_c, 0, 73, 114
1, 166152, Note_on_c, 0, 69, 109
1, 166509, Note_off_c, 0, 69, 109
1, 166562, Note_on_c, 0, 72, 117
1, 166845, Note_off_c, 0, 72, 117
1, 166885, Note_on_c, 0, 70, 107
1, 167262, Note_off_c, 0, 70, 107
1, 167359, Note_on_c, 0, 65, 96
1, 167681, Note_off_c, 0, 65, 96
1, 167794, Note_on_c, 0, 68, 117
1, 168135, Note_off_c, 0, 68, 117
1, 168210, Note_on_c, 0, 70, 109
1, 168416, Note_off_c, 0, 70, 109
1, 168416, Note_on_c, 0, 68, 113
1, 168681, Note_off_c, 0, 68, 113
1, 168755, Note_on_c, 0, 67, 110
1, 169038, Note_off_c, 0, 67, 110
1, 169062, Note_on_c, 0, 65, 111
1, 169536, Note_off_c, 0, 65, 111
1, 169604, Note_on_c, 0, 63, 120
1, 169941, Note_off_c, 0, 63, 120
1, 169974, Note_on_c, 0, 61, 118
1, 170277, Note_off_c, 0, 61, 118
1, 170445, Note_on_c, 0, 60, 111
1, 170782, Note_off_c, 0, 60, 111
1, 170808, Note_on_c, 0, 58, 106
1, 171185, Note_off_c, 0, 58, 106
1, 171205, Note_on_c, 0, 56, 108
1, 171609, Note_off_c, 0, 56, 108
1, 171636, Note_on_c, 0, 55, 109
1, 171958, Note_off_c, 0, 55, 109
1, 171995, Note_on_c, 0, 54, 102
1, 172526, Note_off_c, 0, 54, 102
1, 174015, Note_on_c, 0, 54, 106
1, 174163, Note_off_c, 0, 54, 106
1, 174183, Note_on_c, 0, 58, 102
1, 174277, Note_off_c, 0, 58, 102
1, 174330, Note_on_c, 0, 61, 112
1, 174424, Note_off_c, 0, 61, 112
1, 174450, Note_on_c, 0, 65, 109
1, 174665, Note_off_c, 0, 65, 109
1, 174840, Note_on_c, 0, 63, 107
1, 175008, Note_off_c, 0, 63, 107
1, 175075, Note_on_c, 0, 68, 109
1, 175452, Note_off_c, 0, 68, 109
1, 175554, Note_on_c, 0, 66, 105
1, 175760, Note_off_c, 0, 66, 105
1, 175760, Note_on_c, 0, 69, 105
1, 175873, Note_off_c, 0, 69, 105
1, 175886, Note_on_c, 0, 71, 115
1, 176584, Note_off_c, 0, 71, 115
1, 176633, Note_on_c, 0, 69, 114
1, 177088, Note_off_c, 0, 69, 114
1, 177144, Note_on_c, 0, 68, 110
1, 177997, Note_off_c, 0, 68, 110
1, 178988, Note_on_c, 0, 64, 110
1, 179224, Note_off_c, 0, 64, 110
1, 179250, Note_on_c, 0, 65, 103
1, 179344, Note_off_c, 0, 65, 103
1, 179357, Note_on_c, 0, 70, 99
1, 179599, Note_off_c, 0, 70, 99
1, 179652, Note_on_c, 0, 69, 112
1, 179874, Note_off_c, 0, 69, 112
1, 179946, Note_on_c, 0, 68, 116
1, 180818, Note_off_c, 0, 68, 116
1, 180850, Note_on_c, 0, 70, 106
1, 181099, Note_off_c, 0, 70, 106
1, 181132, Note_on_c, 0, 69, 111
1, 181327, Note_off_c, 0, 69, 111
1, 181353, Note_on_c, 0, 68, 114
1, 181798, Note_off_c, 0, 68, 114
1, 181858, Note_on_c, 0, 70, 106
1, 182080, Note_off_c, 0, 70, 106
1, 182120, Note_on_c, 0, 69, 111
1, 182376, Note_off_c, 0, 69, 111
1, 182423, Note_on_c, 0, 68, 106
1, 183212, Note_off_c, 0, 68, 106
1, 183258, Note_on_c, 0, 66, 107
1, 183371, Note_off_c, 0, 66, 107
1, 183389, Note_on_c, 0, 65, 113
1, 183749, Note_off_c, 0, 65, 113
1, 183824, Note_on_c, 0, 61, 114
1, 184032, Note_off_c, 0, 61, 114
1, 184032, Note_on_c, 0, 58, 109
1, 184335, Note_off_c, 0, 58, 109
1, 184335, Note_on_c, 0, 57, 111
1, 184543, Note_off_c, 0, 57, 111
1, 184580, Note_on_c, 0, 56, 109
1, 184997, Note_off_c, 0, 56, 109
1, 185015, Note_on_c, 0, 54, 110
1, 185261, Note_off_c, 0, 54, 110
1, 185298, Note_on_c, 0, 53, 107
1, 185635, Note_off_c, 0, 53, 107
1, 185635, Note_on_c, 0, 55, 103
1, 185721, Note_off_c, 0, 55, 103
1, 185761, Note_on_c, 0, 57, 107
1, 185847, Note_off_c, 0, 57, 107
1, 185865, Note_on_c, 0, 58, 105
1, 185959, Note_off_c, 0, 58, 105
1, 185966, Note_on_c, 0, 61, 103
1, 186031, Note_off_c, 0, 61, 103
1, 186051, Note_on_c, 0, 63, 120
1, 186253, Note_off_c, 0, 63, 120
1, 186260, Note_on_c, 0, 60, 111
1, 186430, Note_off_c, 0, 60, 111
1, 186486, Note_on_c, 0, 61, 108
1, 186713, Note_off_c, 0, 61, 108
1, 186731, Note_on_c, 0, 63, 114
1, 186977, Note_off_c, 0, 63, 114
1, 186995, Note_on_c, 0, 64, 116
1, 187203, Note_off_c, 0, 64, 116
1, 187203, Note_on_c, 0, 66, 110
1, 187392, Note_off_c, 0, 66, 110
1, 187392, Note_on_c, 0, 68, 102
1, 187619, Note_off_c, 0, 68, 102
1, 187619, Note_on_c, 0, 70, 102
1, 187789, Note_off_c, 0, 70, 102
1, 187789, Note_on_c, 0, 75, 111
1, 188320, Note_off_c, 0, 75, 111
1, 188333, Note_on_c, 0, 73, 114
1, 188722, Note_off_c, 0, 73, 114
1, 188757, Note_on_c, 0, 68, 117
1, 189217, Note_off_c, 0, 68, 117
1, 189228, Note_on_c, 0, 64, 119
1, 189645, Note_off_c, 0, 64, 119
1, 189682, Note_on_c, 0, 63, 116
1, 190118, Note_off_c, 0, 63, 116
1, 190118, Note_on_c, 0, 61, 114
1, 190421, Note_off_c, 0, 61, 114
1, 190468, Note_on_c, 0, 60, 114
1, 190856, Note_off_c, 0, 60, 114
1, 192354, Note_on_c, 0, 63, 116
1, 192790, Note_off_c, 0, 63, 116
1, 192790, Note_on_c, 0, 68, 110
1, 193178, Note_off_c, 0, 68, 110
1, 193358, Note_on_c, 0, 72, 115
1, 193718, Note_off_c, 0, 72, 115
1, 193945, Note_on_c, 0, 72, 120
1, 194115, Note_off_c, 0, 72, 120
1, 194133, Note_on_c, 0, 73, 115
1, 194417, Note_off_c, 0, 73, 115
1, 194435, Note_on_c, 0, 72, 112
1, 194681, Note_off_c, 0, 72, 112
1, 194775, Note_on_c, 0, 68, 113
1, 195192, Note_off_c, 0, 68, 113
1, 195192, Note_on_c, 0, 63, 121
1, 195590, Note_off_c, 0, 63, 121
1, 195608, Note_on_c, 0, 61, 112
1, 195835, Note_off_c, 0, 61, 112
1, 195860, Note_on_c, 0, 63, 118
1, 196043, Note_off_c, 0, 63, 118
1, 196043, Note_on_c, 0, 60, 112
1, 196650, Note_off_c, 0, 60, 112
1, 198404, Note_on_c, 0, 73, 100
1, 198612, Note_off_c, 0, 73, 100
1, 198621, Note_on_c, 0, 71, 119
1, 198763, Note_off_c, 0, 71, 119
1, 198810, Note_on_c, 0, 70, 110
1, 199967, Note_off_c, 0, 70, 110
1, 200042, Note_on_c, 0, 68, 116
1, 200374, Note_off_c, 0, 68, 116
1, 200421, Note_on_c, 0, 67, 113
1, 200914, Note_off_c, 0, 67, 113
1, 200932, Note_on_c, 0, 66, 108
1, 201093, Note_off_c, 0, 66, 108
1, 201121, Note_on_c, 0, 65, 112
1, 201301, Note_off_c, 0, 65, 112
1, 201338, Note_on_c, 0, 64, 119
1, 201726, Note_off_c, 0, 64, 119
1, 201792, Note_on_c, 0, 61, 117
1, 202142, Note_off_c, 0, 61, 117
1, 202217, Note_on_c, 0, 60, 114
1, 202634, Note_off_c, 0, 60, 114
1, 202681, Note_on_c, 0, 58, 114
1, 202918, Note_off_c, 0, 58, 114
1, 202974, Note_on_c, 0, 56, 113
1, 203410, Note_off_c, 0, 56, 113
1, 203485, Note_on_c, 0, 54, 109
1, 203807, Note_off_c, 0, 54, 109
1, 203828, Note_on_c, 0, 53, 103
1, 204439, Note_off_c, 0, 53, 103
1, 204868, Note_on_c, 0, 58, 104
1, 205057, Note_off_c, 0, 58, 104
1, 205075, Note_on_c, 0, 60, 99
1, 205196, Note_off_c, 0, 60, 99
1, 205207, Note_on_c, 0, 63, 118
1, 205491, Note_off_c, 0, 63, 118
1, 205566, Note_on_c, 0, 61, 108
1, 205774, Note_off_c, 0, 61, 108
1, 205774, Note_on_c, 0, 63, 111
1, 206039, Note_off_c, 0, 63, 111
1, 206078, Note_on_c, 0, 65, 105
1, 206194, Note_off_c, 0, 65, 105
1, 206209, Note_on_c, 0, 68, 114
1, 206607, Note_off_c, 0, 68, 114
1, 206625, Note_on_c, 0, 65, 107
1, 206947, Note_off_c, 0, 65, 107
1, 207003, Note_on_c, 0, 65, 118
1, 207173, Note_off_c, 0, 65, 118
1, 207229, Note_on_c, 0, 67, 114
1, 207665, Note_off_c, 0, 67, 114
1, 207712, Note_on_c, 0, 62, 117
1, 207939, Note_off_c, 0, 62, 117
1, 208024, Note_on_c, 0, 58, 103
1, 208185, Note_off_c, 0, 58, 103
1, 208270, Note_on_c, 0, 66, 111
1, 208516, Note_off_c, 0, 66, 111
1, 208563, Note_on_c, 0, 62, 111
1, 208695, Note_off_c, 0, 62, 111
1, 208761, Note_on_c, 0, 58, 105
1, 208855, Note_off_c, 0, 58, 105
1, 208940, Note_on_c, 0, 65, 111
1, 209215, Note_off_c, 0, 65, 111
1, 209262, Note_on_c, 0, 62, 108
1, 209518, Note_off_c, 0, 62, 108
1, 209717, Note_on_c, 0, 64, 118
1, 210238, Note_off_c, 0, 64, 118
1, 210992, Note_on_c, 0, 58, 106
1, 211143, Note_off_c, 0, 58, 106
1, 211166, Note_on_c, 0, 61, 101
1, 211336, Note_off_c, 0, 61, 101
1, 211411, Note_on_c, 0, 68, 118
1, 211676, Note_off_c, 0, 68, 118
1, 211761, Note_on_c, 0, 71, 117
1, 212007, Note_off_c, 0, 71, 117
1, 212054, Note_on_c, 0, 69, 110
1, 212348, Note_off_c, 0, 69, 110
1, 212442, Note_on_c, 0, 61, 107
1, 212612, Note_off_c, 0, 61, 107
1, 212654, Note_on_c, 0, 64, 105
1, 212782, Note_off_c, 0, 64, 105
1, 212786, Note_on_c, 0, 68, 114
1, 213075, Note_off_c, 0, 68, 114
1, 213131, Note_on_c, 0, 66, 110
1, 213444, Note_off_c, 0, 66, 110
1, 214349, Note_on_c, 0, 68, 83
1, 214453, Note_off_c, 0, 68, 83
1, 214490, Note_on_c, 0, 70, 111
1, 215054, Note_off_c, 0, 70, 111
1, 215077, Note_on_c, 0, 69, 112
1, 215266, Note_off_c, 0, 69, 112
1, 215289, Note_on_c, 0, 68, 120
1, 215492, Note_off_c, 0, 68, 120
1, 215541, Note_on_c, 0, 67, 111
1, 215696, Note_off_c, 0, 67, 111
1, 215722, Note_on_c, 0, 65, 114
1, 215937, Note_off_c, 0, 65, 114
1, 215957, Note_on_c, 0, 63, 122
1, 216220, Note_off_c, 0, 63, 122
1, 216273, Note_on_c, 0, 62, 118
1, 216455, Note_off_c, 0, 62, 118
1, 216488, Note_on_c, 0, 60, 110
1, 216683, Note_off_c, 0, 60, 110
1, 216730, Note_on_c, 0, 59, 108
1, 216878, Note_off_c, 0, 59, 108
1, 216904, Note_on_c, 0, 57, 108
1, 217059, Note_off_c, 0, 57, 108
1, 217119, Note_on_c, 0, 58, 108
1, 217294, Note_off_c, 0, 58, 108
1, 217381, Note_on_c, 0, 60, 109
1, 217556, Note_off_c, 0, 60, 109
1, 217576, Note_on_c, 0, 61, 107
1, 217710, Note_off_c, 0, 61, 107
1, 217772, Note_on_c, 0, 63, 111
1, 217878, Note_off_c, 0, 63, 111
1, 217878, Note_on_c, 0, 65, 111
1, 217999, Note_off_c, 0, 65, 111
1, 218009, Note_on_c, 0, 68, 116
1, 218293, Note_off_c, 0, 68, 116
1, 218330, Note_on_c, 0, 67, 113
1, 218557, Note_off_c, 0, 67, 113
1, 218570, Note_on_c, 0, 65, 111
1, 218738, Note_off_c, 0, 65, 111
1, 218802, Note_on_c, 0, 63, 119
1, 218953, Note_off_c, 0, 63, 119
1, 219047, Note_on_c, 0, 62, 115
1, 219255, Note_off_c, 0, 62, 115
1, 219292, Note_on_c, 0, 61, 103
1, 219413, Note_off_c, 0, 61, 103
1, 219424, Note_on_c, 0, 63, 110
1, 219575, Note_off_c, 0, 63, 110
1, 219707, Note_on_c, 0, 72, 117
1, 220124, Note_off_c, 0, 72, 117
1, 222144, Note_on_c, 0, 73, 108
1, 222562, Note_off_c, 0, 73, 108
1, 222723, Note_on_c, 0, 68, 111
1, 222938, Note_off_c, 0, 68, 111
1, 222986, Note_on_c, 0, 63, 113
1, 223204, Note_off_c, 0, 63, 113
1, 223227, Note_on_c, 0, 62, 119
1, 223463, Note_off_c, 0, 62, 119
1, 223503, Note_on_c, 0, 61, 110
1, 223779, Note_off_c, 0, 61, 110
1, 223847, Note_on_c, 0, 58, 98
1, 223989, Note_off_c, 0, 58, 98
1, 224093, Note_on_c, 0, 60, 106
1, 224747, Note_off_c, 0, 60, 106
1, 224851, Note_on_c, 0, 68, 100
1, 226397, Note_off_c, 0, 68, 100
1, 228107, Note_on_c, 0, 73, 115
1, 228471, Note_off_c, 0, 73, 115
1, 228540, Note_on_c, 0, 72, 117
1, 228691, Note_off_c, 0, 72, 117
1, 228733, Note_on_c, 0, 71, 118
1, 228840, Note_off_c, 0, 71, 118
1, 228880, Note_on_c, 0, 68, 115
1, 229250, Note_off_c, 0, 68, 115
1, 229323, Note_on_c, 0, 73, 117
1, 229711, Note_off_c, 0, 73, 117
1, 229780, Note_on_c, 0, 72, 114
1, 229935, Note_off_c, 0, 72, 114
1, 229965, Note_on_c, 0, 68, 107
1, 230420, Note_off_c, 0, 68, 107
1, 230420, Note_on_c, 0, 73, 113
1, 230780, Note_off_c, 0, 73, 113
1, 230830, Note_on_c, 0, 72, 114
1, 230998, Note_off_c, 0, 72, 114
1, 231044, Note_on_c, 0, 68, 110
1, 231423, Note_off_c, 0, 68, 110
1, 231423, Note_on_c, 0, 73, 115
1, 231792, Note_off_c, 0, 73, 115
1, 231820, Note_on_c, 0, 72, 115
1, 232000, Note_off_c, 0, 72, 115
1, 232013, Note_on_c, 0, 68, 118
1, 232815, Note_off_c, 0, 68, 118
1, 232842, Note_on_c, 0, 73, 113
1, 233354, Note_off_c, 0, 73, 113
1, 233380, Note_on_c, 0, 72, 108
1, 233487, Note_off_c, 0, 72, 108
1, 233570, Note_on_c, 0, 68, 109
1, 234015, Note_off_c, 0, 68, 109
1, 234081, Note_on_c, 0, 73, 111
1, 234327, Note_off_c, 0, 73, 111
1, 234345, Note_on_c, 0, 72, 116
1, 234658, Note_off_c, 0, 72, 116
1, 234658, Note_on_c, 0, 67, 107
1, 235701, Note_off_c, 0, 67, 107
1, 237939, Note_on_c, 0, 73, 109
1, 238071, Note_off_c, 0, 73, 109
1, 238080, Note_on_c, 0, 72, 115
1, 238193, Note_off_c, 0, 72, 115
1, 238221, Note_on_c, 0, 71, 116
1, 238410, Note_off_c, 0, 71, 116
1, 238552, Note_on_c, 0, 68, 111
1, 238836, Note_off_c, 0, 68, 111
1, 238845, Note_on_c, 0, 67, 111
1, 238968, Note_off_c, 0, 67, 111
1, 238988, Note_on_c, 0, 66, 114
1, 239210, Note_off_c, 0, 66, 114
1, 239365, Note_on_c, 0, 61, 114
1, 239706, Note_off_c, 0, 61, 114
1, 239723, Note_on_c, 0, 60, 116
1, 239900, Note_off_c, 0, 60, 116
1, 239913, Note_on_c, 0, 59, 105
1, 240273, Note_off_c, 0, 59, 105
1, 241174, Note_on_c, 0, 71, 113
1, 241278, Note_off_c, 0, 71, 113
1, 241306, Note_on_c, 0, 72, 117
1, 242036, Note_off_c, 0, 72, 117
1, 242126, Note_on_c, 0, 70, 108
1, 242321, Note_off_c, 0, 70, 108
1, 242357, Note_on_c, 0, 69, 109
1, 242489, Note_off_c, 0, 69, 109
1, 242498, Note_on_c, 0, 68, 114
1, 242754, Note_off_c, 0, 68, 114
1, 242772, Note_on_c, 0, 67, 112
1, 242923, Note_off_c, 0, 67, 112
1, 242931, Note_on_c, 0, 65, 116
1, 243092, Note_off_c, 0, 65, 116
1, 243130, Note_on_c, 0, 63, 114
1, 243319, Note_off_c, 0, 63, 114
1, 243327, Note_on_c, 0, 62, 116
1, 243509, Note_off_c, 0, 62, 116
1, 243522, Note_on_c, 0, 60, 111
1, 243697, Note_off_c, 0, 60, 111
1, 243711, Note_on_c, 0, 59, 106
1, 243891, Note_off_c, 0, 59, 106
1, 243914, Note_on_c, 0, 56, 106
1, 244023, Note_off_c, 0, 56, 106
1, 244070, Note_on_c, 0, 58, 104
1, 244278, Note_off_c, 0, 58, 104
1, 244358, Note_on_c, 0, 60, 104
1, 244490, Note_off_c, 0, 60, 104
1, 244523, Note_on_c, 0, 61, 102
1, 244670, Note_off_c, 0, 61, 102
1, 244684, Note_on_c, 0, 63, 97
1, 244759, Note_off_c, 0, 63, 97
1, 244792, Note_on_c, 0, 65, 104
1, 244967, Note_off_c, 0, 65, 104
1, 245028, Note_on_c, 0, 68, 112
1, 245227, Note_off_c, 0, 68, 112
1, 245236, Note_on_c, 0, 67, 106
1, 245473, Note_off_c, 0, 67, 106
1, 245491, Note_on_c, 0, 65, 107
1, 245737, Note_off_c, 0, 65, 107
1, 245755, Note_on_c, 0, 63, 114
1, 245954, Note_off_c, 0, 63, 114
1, 245982, Note_on_c, 0, 62, 106
1, 246162, Note_off_c, 0, 62, 106
1, 246228, Note_on_c, 0, 61, 105
1, 246455, Note_off_c, 0, 61, 105
1, 246464, Note_on_c, 0, 63, 109
1, 246663, Note_off_c, 0, 63, 109
1, 246696, Note_on_c, 0, 65, 98
1, 246781, Note_off_c, 0, 65, 98
1, 246840, Note_on_c, 0, 68, 105
1, 247096, Note_off_c, 0, 68, 105
1, 247230, Note_on_c, 0, 71, 110
1, 247457, Note_off_c, 0, 71, 110
1, 247494, Note_on_c, 0, 72, 113
1, 247740, Note_off_c, 0, 72, 113
1, 247763, Note_on_c, 0, 68, 115
1, 247895, Note_off_c, 0, 68, 115
1, 247932, Note_on_c, 0, 65, 99
1, 248126, Note_off_c, 0, 65, 99
1, 248173, Note_on_c, 0, 68, 109
1, 248367, Note_off_c, 0, 68, 109
1, 248395, Note_on_c, 0, 70, 108
1, 248551, Note_off_c, 0, 70, 108
1, 248569, Note_on_c, 0, 67, 109
1, 248739, Note_off_c, 0, 67, 109
1, 248852, Note_on_c, 0, 63, 105
1, 249003, Note_off_c, 0, 63, 105
1, 249021, Note_on_c, 0, 66, 111
1, 249267, Note_off_c, 0, 66, 111
1, 249276, Note_on_c, 0, 68, 112
1, 249460, Note_off_c, 0, 68, 112
1, 249488, Note_on_c, 0, 67, 112
1, 249710, Note_off_c, 0, 67, 112
1, 249724, Note_on_c, 0, 65, 111
1, 249908, Note_off_c, 0, 65, 111
1, 249922, Note_on_c, 0, 63, 116
1, 250125, Note_off_c, 0, 63, 116
1, 250158, Note_on_c, 0, 61, 101
1, 250314, Note_off_c, 0, 61, 101
1, 250332, Note_on_c, 0, 60, 113
1, 250483, Note_off_c, 0, 60, 113
1, 250511, Note_on_c, 0, 58, 100
1, 250710, Note_off_c, 0, 58, 100
1, 250737, Note_on_c, 0, 56, 112
1, 250898, Note_off_c, 0, 56, 112
1, 250904, Note_on_c, 0, 55, 106
1, 251079, Note_off_c, 0, 55, 106
1, 251096, Note_on_c, 0, 54, 101
1, 251807, Note_off_c, 0, 54, 101
1, 253068, Note_on_c, 0, 65, 101
1, 253347, Note_off_c, 0, 65, 101
1, 253399, Note_on_c, 0, 63, 116
1, 253626, Note_off_c, 0, 63, 116
1, 253682, Note_on_c, 0, 62, 108
1, 253862, Note_off_c, 0, 62, 108
1, 254013, Note_on_c, 0, 68, 116
1, 255255, Note_off_c, 0, 68, 116
1, 255297, Note_on_c, 0, 67, 110
1, 255467, Note_off_c, 0, 67, 110
1, 255495, Note_on_c, 0, 65, 113
1, 255627, Note_off_c, 0, 65, 113
1, 255655, Note_on_c, 0, 64, 118
1, 255906, Note_off_c, 0, 64, 118
1, 255939, Note_on_c, 0, 60, 112
1, 256171, Note_off_c, 0, 60, 112
1, 256208, Note_on_c, 0, 56, 103
1, 257327, Note_off_c, 0, 56, 103
1, 258323, Note_on_c, 0, 49, 116
1, 258778, Note_off_c, 0, 49, 116
1, 258834, Note_on_c, 0, 56, 99
1, 259080, Note_off_c, 0, 56, 99
1, 259174, Note_on_c, 0, 61, 117
1, 259648, Note_off_c, 0, 61, 117
1, 259657, Note_on_c, 0, 63, 123
1, 259941, Note_off_c, 0, 63, 123
1, 260007, Note_on_c, 0, 65, 115
1, 260590, Note_off_c, 0, 65, 115
1, 260613, Note_on_c, 0, 64, 93
1, 260850, Note_off_c, 0, 64, 93
1, 260911, Note_on_c, 0, 65, 115
1, 261077, Note_off_c, 0, 65, 115
1, 261138, Note_on_c, 0, 67, 117
1, 262238, Note_off_c, 0, 67, 117
1, 262280, Note_on_c, 0, 65, 113
1, 262474, Note_off_c, 0, 65, 113
1, 262497, Note_on_c, 0, 64, 119
1, 262971, Note_off_c, 0, 64, 119
1, 263018, Note_on_c, 0, 60, 114
1, 263463, Note_off_c, 0, 60, 114
1, 263486, Note_on_c, 0, 55, 106
1, 263993, Note_off_c, 0, 55, 106
1, 264931, Note_on_c, 0, 47, 117
1, 265357, Note_off_c, 0, 47, 117
1, 265831, Note_on_c, 0, 59, 108
1, 266295, Note_off_c, 0, 59, 108
1, 266332, Note_on_c, 0, 61, 109
1, 266720, Note_off_c, 0, 61, 109
1, 266729, Note_on_c, 0, 63, 118
1, 267136, Note_off_c, 0, 63, 118
1, 267164, Note_on_c, 0, 66, 112
1, 267619, Note_off_c, 0, 66, 112
1, 267671, Note_on_c, 0, 65, 111
1, 268090, Note_off_c, 0, 65, 111
1, 268120, Note_on_c, 0, 60, 94
1, 268205, Note_off_c, 0, 60, 94
1, 268261, Note_on_c, 0, 63, 112
1, 268839, Note_off_c, 0, 63, 112
1, 268924, Note_on_c, 0, 63, 119
1, 269151, Note_off_c, 0, 63, 119
1, 269169, Note_on_c, 0, 62, 116
1, 269662, Note_off_c, 0, 62, 116
1, 269667, Note_on_c, 0, 72, 92
1, 270456, Note_off_c, 0, 72, 92
1, 272545, Note_on_c, 0, 70, 107
1, 272715, Note_off_c, 0, 70, 107
1, 272788, Note_on_c, 0, 72, 117
1, 273583, Note_off_c, 0, 72, 117
1, 273667, Note_on_c, 0, 68, 111
1, 273808, Note_off_c, 0, 68, 111
1, 273811, Note_on_c, 0, 65, 112
1, 273972, Note_off_c, 0, 65, 112
1, 274012, Note_on_c, 0, 61, 91
1, 274234, Note_off_c, 0, 61, 91
1, 274314, Note_on_c, 0, 70, 109
1, 274948, Note_off_c, 0, 70, 109
1, 275064, Note_on_c, 0, 65, 93
1, 275139, Note_off_c, 0, 65, 93
1, 275202, Note_on_c, 0, 63, 106
1, 275420, Note_off_c, 0, 63, 106
1, 275505, Note_on_c, 0, 60, 14
1, 275685, Note_off_c, 0, 60, 14
1, 275775, Note_on_c, 0, 68, 116
1, 276199, Note_off_c, 0, 68, 116
1, 276252, Note_on_c, 0, 63, 107
1, 276461, Note_off_c, 0, 63, 107
1, 276508, Note_on_c, 0, 67, 114
1, 277040, Note_off_c, 0, 67, 114
1, 277053, Note_on_c, 0, 65, 115
1, 277477, Note_off_c, 0, 65, 115
1, 277501, Note_on_c, 0, 63, 121
1, 277927, Note_off_c, 0, 63, 121
1, 277954, Note_on_c, 0, 62, 118
1, 278284, Note_off_c, 0, 62, 118
1, 278304, Note_on_c, 0, 61, 110
1, 278674, Note_off_c, 0, 61, 110
1, 278854, Note_on_c, 0, 61, 111
1, 278996, Note_off_c, 0, 61, 111
1, 279062, Note_on_c, 0, 60, 110
1, 279583, Note_off_c, 0, 60, 110
1, 279664, Note_on_c, 0, 58, 113
1, 279958, Note_off_c, 0, 58, 113
1, 280076, Note_on_c, 0, 56, 111
1, 280398, Note_off_c, 0, 56, 111
1, 280425, Note_on_c, 0, 55, 105
1, 280607, Note_off_c, 0, 55, 105
1, 280714, Note_on_c, 0, 54, 107
1, 281563, Note_off_c, 0, 54, 107
1, 283782, Note_on_c, 0, 61, 113
1, 284092, Note_off_c, 0, 61, 113
1, 284179, Note_on_c, 0, 64, 122
1, 284523, Note_off_c, 0, 64, 122
1, 284624, Note_on_c, 0, 65, 113
1, 285012, Note_off_c, 0, 65, 113
1, 285040, Note_on_c, 0, 66, 114
1, 285390, Note_off_c, 0, 66, 114
1, 285456, Note_on_c, 0, 67, 119
1, 285892, Note_off_c, 0, 67, 119
1, 286062, Note_on_c, 0, 68, 120
1, 286488, Note_off_c, 0, 68, 120
1, 286715, Note_on_c, 0, 61, 113
1, 287179, Note_off_c, 0, 61, 113
1, 287406, Note_on_c, 0, 63, 123
1, 287747, Note_off_c, 0, 63, 123
1, 287803, Note_on_c, 0, 65, 114
1, 288799, Note_off_c, 0, 65, 114
1, 288884, Note_on_c, 0, 68, 116
1, 289339, Note_off_c, 0, 68, 116
1, 290165, Note_on_c, 0, 55, 101
1, 290259, Note_off_c, 0, 55, 101
1, 290292, Note_on_c, 0, 58, 102
1, 290447, Note_off_c, 0, 58, 102
1, 290484, Note_on_c, 0, 61, 113
1, 290740, Note_off_c, 0, 61, 113
1, 290958, Note_on_c, 0, 64, 121
1, 291252, Note_off_c, 0, 64, 121
1, 291289, Note_on_c, 0, 65, 109
1, 291668, Note_off_c, 0, 65, 109
1, 291734, Note_on_c, 0, 66, 111
1, 292056, Note_off_c, 0, 66, 111
1, 292084, Note_on_c, 0, 67, 113
1, 292434, Note_off_c, 0, 67, 113
1, 292509, Note_on_c, 0, 68, 117
1, 292916, Note_off_c, 0, 68, 117
1, 292925, Note_on_c, 0, 67, 115
1, 293351, Note_off_c, 0, 67, 115
1, 293398, Note_on_c, 0, 66, 115
1, 293625, Note_off_c, 0, 66, 115
1, 293672, Note_on_c, 0, 67, 112
1, 293795, Note_off_c, 0, 67, 112
1, 293823, Note_on_c, 0, 66, 119
1, 293927, Note_off_c, 0, 66, 119
1, 293945, Note_on_c, 0, 65, 119
1, 294115, Note_off_c, 0, 65, 119
1, 294151, Note_on_c, 0, 64, 127
1, 294623, Note_off_c, 0, 64, 127
1, 295005, Note_on_c, 0, 75, 122
1, 295460, Note_off_c, 0, 75, 122
1, 295485, Note_on_c, 0, 73, 120
1, 295855, Note_off_c, 0, 73, 120
1, 295935, Note_on_c, 0, 68, 114
1, 296272, Note_off_c, 0, 68, 114
1, 296339, Note_on_c, 0, 64, 120
1, 296775, Note_off_c, 0, 64, 120
1, 296812, Note_on_c, 0, 63, 120
1, 297238, Note_off_c, 0, 63, 120
1, 297266, Note_on_c, 0, 61, 112
1, 297598, Note_off_c, 0, 61, 112
1, 297644, Note_on_c, 0, 60, 107
1, 297974, Note_off_c, 0, 60, 107
1, 299748, Note_on_c, 0, 73, 120
1, 300118, Note_off_c, 0, 73, 120
1, 300166, Note_on_c, 0, 72, 113
1, 300564, Note_off_c, 0, 72, 113
1, 300573, Note_on_c, 0, 70, 107
1, 300914, Note_off_c, 0, 70, 107
1, 300946, Note_on_c, 0, 68, 117
1, 301310, Note_off_c, 0, 68, 117
1, 301377, Note_on_c, 0, 70, 110
1, 301565, Note_off_c, 0, 70, 110
1, 301632, Note_on_c, 0, 68, 119
1, 301847, Note_off_c, 0, 68, 119
1, 301880, Note_on_c, 0, 67, 113
1, 302190, Note_off_c, 0, 67, 113
1, 302223, Note_on_c, 0, 65, 115
1, 302580, Note_off_c, 0, 65, 115
1, 302620, Note_on_c, 0, 63, 122
1, 303004, Note_off_c, 0, 63, 122
1, 303044, Note_on_c, 0, 60, 115
1, 303381, Note_off_c, 0, 60, 115
1, 303488, Note_on_c, 0, 56, 109
1, 303865, Note_off_c, 0, 56, 109
1, 303918, Note_on_c, 0, 53, 99
1, 304120, Note_off_c, 0, 53, 99
1, 304227, Note_on_c, 0, 58, 115
1, 304766, Note_off_c, 0, 58, 115
1, 304779, Note_on_c, 0, 54, 115
1, 305008, Note_off_c, 0, 54, 115
1, 305061, Note_on_c, 0, 55, 107
1, 305533, Note_off_c, 0, 55, 107
1, 305580, Note_on_c, 0, 57, 112
1, 305856, Note_off_c, 0, 57, 112
1, 305893, Note_on_c, 0, 58, 110
1, 306270, Note_off_c, 0, 58, 110
1, 306276, Note_on_c, 0, 60, 109
1, 306721, Note_off_c, 0, 60, 109
1, 306758, Note_on_c, 0, 61, 118
1, 307014, Note_off_c, 0, 61, 118
1, 307148, Note_on_c, 0, 57, 111
1, 307384, Note_off_c, 0, 57, 111
1, 307539, Note_on_c, 0, 58, 109
1, 307835, Note_off_c, 0, 58, 109
1, 307963, Note_on_c, 0, 60, 113
1, 308286, Note_off_c, 0, 60, 113
1, 308414, Note_on_c, 0, 61, 108
1, 308778, Note_off_c, 0, 61, 108
1, 308818, Note_on_c, 0, 63, 117
1, 309236, Note_off_c, 0, 63, 117
1, 309296, Note_on_c, 0, 64, 122
1, 309646, Note_off_c, 0, 64, 122
1, 309706, Note_on_c, 0, 66, 98
1, 310043, Note_off_c, 0, 66, 98
1, 310110, Note_on_c, 0, 67, 106
1, 310514, Note_off_c, 0, 67, 106
1, 310581, Note_on_c, 0, 64, 106
1, 310810, Note_off_c, 0, 64, 106
1, 310870, Note_on_c, 0, 65, 112
1, 311362, Note_off_c, 0, 65, 112
1, 311422, Note_on_c, 0, 68, 115
1, 311772, Note_off_c, 0, 68, 115
1, 313269, Note_on_c, 0, 68, 120
1, 313869, Note_off_c, 0, 68, 120
1, 313895, Note_on_c, 0, 65, 114
1, 314151, Note_off_c, 0, 65, 114
1, 314191, Note_on_c, 0, 64, 123
1, 314649, Note_off_c, 0, 64, 123
1, 314756, Note_on_c, 0, 67, 113
1, 315187, Note_off_c, 0, 67, 113
1, 316812, Note_on_c, 0, 67, 118
1, 316994, Note_off_c, 0, 67, 118
1, 317034, Note_on_c, 0, 68, 115
1, 317182, Note_off_c, 0, 68, 115
1, 317208, Note_on_c, 0, 67, 116
1, 317315, Note_on_c, 0, 64, 120
1, 317315, Note_off_c, 0, 67, 116
1, 317598, Note_off_c, 0, 64, 120
1, 317651, Note_on_c, 0, 63, 123
1, 318163, Note_off_c, 0, 63, 123
1, 318176, Note_on_c, 0, 66, 111
1, 318445, Note_off_c, 0, 66, 111
1, 319348, Note_on_c, 0, 65, 115
1, 319550, Note_off_c, 0, 65, 115
1, 319576, Note_on_c, 0, 66, 113
1, 320452, Note_off_c, 0, 66, 113
1, 320465, Note_on_c, 0, 67, 106
1, 320626, Note_off_c, 0, 67, 106
1, 320639, Note_on_c, 0, 66, 106
1, 320787, Note_off_c, 0, 66, 106
1, 320827, Note_on_c, 0, 62, 116
1, 321366, Note_off_c, 0, 62, 116
1, 321392, Note_on_c, 0, 65, 114
1, 321742, Note_off_c, 0, 65, 114
1, 324413, Note_on_c, 0, 70, 112
1, 324574, Note_off_c, 0, 70, 112
1, 324614, Note_on_c, 0, 72, 117
1, 325018, Note_off_c, 0, 72, 117
1, 325233, Note_on_c, 0, 68, 118
1, 325732, Note_off_c, 0, 68, 118
1, 325785, Note_on_c, 0, 65, 101
1, 325946, Note_off_c, 0, 65, 101
1, 326107, Note_on_c, 0, 68, 106
1, 326768, Note_off_c, 0, 68, 106
1, 326902, Note_on_c, 0, 65, 104
1, 327090, Note_off_c, 0, 65, 104
1, 327116, Note_on_c, 0, 68, 102
1, 327257, Note_off_c, 0, 68, 102
1, 327290, Note_on_c, 0, 72, 116
1, 327647, Note_off_c, 0, 72, 116
1, 327748, Note_on_c, 0, 70, 103
1, 328071, Note_off_c, 0, 70, 103
1, 328084, Note_on_c, 0, 71, 112
1, 328380, Note_off_c, 0, 71, 112
1, 328609, Note_on_c, 0, 66, 109
1, 328973, Note_off_c, 0, 66, 109
1, 328986, Note_on_c, 0, 64, 125
1, 329309, Note_off_c, 0, 64, 125
1, 329538, Note_on_c, 0, 59, 105
1, 330010, Note_off_c, 0, 59, 105
1, 330266, Note_on_c, 0, 61, 106
1, 330616, Note_off_c, 0, 61, 106
1, 330683, Note_on_c, 0, 63, 120
1, 330939, Note_off_c, 0, 63, 120
1, 332328, Note_on_c, 0, 68, 118
1, 332557, Note_off_c, 0, 68, 118
1, 332597, Note_on_c, 0, 67, 117
1, 332839, Note_off_c, 0, 67, 117
1, 332879, Note_on_c, 0, 66, 115
1, 333054, Note_off_c, 0, 66, 115
1, 333101, Note_on_c, 0, 65, 118
1, 333451, Note_off_c, 0, 65, 118
1, 333525, Note_on_c, 0, 63, 121
1, 334024, Note_off_c, 0, 63, 121
1, 334064, Note_on_c, 0, 61, 117
1, 334441, Note_off_c, 0, 61, 117
1, 334548, Note_on_c, 0, 59, 110
1, 334777, Note_off_c, 0, 59, 110
1, 334830, Note_on_c, 0, 60, 110
1, 335248, Note_off_c, 0, 60, 110
1, 335328, Note_on_c, 0, 63, 117
1, 335483, Note_off_c, 0, 63, 117
1, 335509, Note_on_c, 0, 66, 102
1, 335643, Note_off_c, 0, 66, 102
1, 335669, Note_on_c, 0, 70, 111
1, 335837, Note_off_c, 0, 70, 111
1, 336120, Note_on_c, 0, 68, 115
1, 336565, Note_off_c, 0, 68, 115
1, 336591, Note_on_c, 0, 65, 104
1, 336860, Note_off_c, 0, 65, 104
1, 336913, Note_on_c, 0, 66, 114
1, 337270, Note_off_c, 0, 66, 114
1, 337290, Note_on_c, 0, 67, 115
1, 337451, Note_off_c, 0, 67, 115
1, 337477, Note_on_c, 0, 66, 114
1, 337638, Note_off_c, 0, 66, 114
1, 337745, Note_on_c, 0, 65, 108
1, 338163, Note_off_c, 0, 65, 108
1, 338216, Note_on_c, 0, 61, 117
1, 338404, Note_off_c, 0, 61, 117
1, 338404, End_track
0, 0, End_of_file
