0, 0, Header, 1, 1, 840
1, 0, Start_track
1, 0, Title_t, "Melody"
1, 0, Tempo, 495867
1, 0, Key_signature, -5, "major"
1, 0, Time_signature, 4, 2, 24, 8
1, 22185, Note_on_c, 0, 56, 117
1, 22430, Note_off_c, 0, 56, 117
1, 22554, Note_on_c, 0, 61, 119
1, 22809, Note_off_c, 0, 61, 119
1, 22822, Note_on_c, 0, 65, 120
1, 23008, Note_off_c, 0, 65, 120
1, 23322, Note_on_c, 0, 63, 121
1, 23543, Note_off_c, 0, 63, 121
1, 23581, Note_on_c, 0, 61, 117
1, 23926, Note_off_c, 0, 61, 117
1, 24555, Note_on_c, 0, 58, 100
1, 24682, Note_off_c, 0, 58, 100
1, 24701, Note_on_c, 0, 59, 106
1, 24780, Note_off_c, 0, 59, 106
1, 24799, Note_on_c, 0, 63, 124
1, 24935, Note_off_c, 0, 63, 124
1, 24981, Note_on_c, 0, 67, 104
1, 25105, Note_off_c, 0, 67, 104
1, 25189, Note_on_c, 0, 70, 122
1, 25520, Note_off_c, 0, 70, 122
1, 25599, Note_on_c, 0, 69, 120
1, 25977, Note_off_c, 0, 69, 120
1, 26027, Note_on_c, 0, 68, 118
1, 26410, Note_off_c, 0, 68, 118
1, 26461, Note_on_c, 0, 67, 120
1, 26818, Note_off_c, 0, 67, 120
1, 26902, Note_on_c, 0, 66, 117
1, 27389, Note_off_c, 0, 66, 117
1, 27570, Note_on_c, 0, 63, 120
1, 28126, Note_off_c, 0, 63, 120
1, 28236, Note_on_c, 0, 64, 107
1, 29209, Note_off_c, 0, 64, 107
1, 29628, Note_on_c, 0, 61, 102
1, 29802, Note_off_c, 0, 61, 102
1, 29836, Note_on_c, 0, 65, 120
1, 30138, Note_off_c, 0, 65, 120
1, 30238, Note_on_c, 0, 66, 116
1, 30636, Note_off_c, 0, 66, 116
1, 30712, Note_on_c, 0, 65, 115
1, 30955, Note_off_c, 0, 65, 115
1, 31001, Note_on_c, 0, 61, 116
1, 31144, Note_off_c, 0, 61, 116
1, 31166, Note_on_c, 0, 62, 110
1, 31255, Note_off_c, 0, 62, 110
1, 31299, Note_on_c, 0, 61, 111
1, 31452, Note_off_c, 0, 61, 111
1, 31502, Note_on_c, 0, 59, 101
1, 31723, Note_off_c, 0, 59, 101
1, 31788, Note_on_c, 0, 63, 122
1, 32413, Note_off_c, 0, 63, 122
1, 32464, Note_on_c, 0, 59, 105
1, 33162, Note_off_c, 0, 59, 105
1, 36206, Note_on_c, 0, 61, 120
1, 36469, Note_off_c, 0, 61, 120
1, 36513, Note_on_c, 0, 59, 110
1, 36832, Note_off_c, 0, 59, 110
1, 36900, Note_on_c, 0, 58, 96
1, 37177, Note_off_c, 0, 58, 96
1, 37282, Note_on_c, 0, 61, 121
1, 37618, Note_off_c, 0, 61, 121
1, 37667, Note_on_c, 0, 63, 125
1, 38082, Note_off_c, 0, 63, 125
1, 38145, Note_on_c, 0, 65, 121
1, 38479, Note_off_c, 0, 65, 121
1, 38624, Note_on_c, 0, 68, 115
1, 38826, Note_off_c, 0, 68, 115
1, 38841, Note_on_c, 0, 70, 119
1, 38981, Note_off_c, 0, 70, 119
1, 39000, Note_on_c, 0, 68, 117
1, 39093, Note_off_c, 0, 68, 117
1, 39118, Note_on_c, 0, 67, 116
1, 39422, Note_off_c, 0, 67, 116
1, 39455, Note_on_c, 0, 66, 112
1, 39828, Note_off_c, 0, 66, 112
1, 39889, Note_on_c, 0, 65, 114
1, 40220, Note_off_c, 0, 65, 114
1, 40303, Note_on_c, 0, 64, 110
1, 41337, Note_off_c, 0, 64, 110
1, 41408, Note_on_c, 0, 63, 116
1, 41707, Note_off_c, 0, 63, 116
1, 41793, Note_on_c, 0, 62, 116
1, 41970, Note_off_c, 0, 62, 116
1, 42060, Note_on_c, 0, 61, 114
1, 42205, Note_off_c, 0, 61, 114
1, 42254, Note_on_c, 0, 57, 107
1, 42440, Note_off_c, 0, 57, 107
1, 42484, Note_on_c, 0, 54, 107
1, 42739, Note_off_c, 0, 54, 107
1, 42763, Note_on_c, 0, 56, 110
1, 42999, Note_off_c, 0, 56, 110
1, 43029, Note_on_c, 0, 54, 117
1, 43122, Note_off_c, 0, 54, 117
1, 43151, Note_on_c, 0, 53, 109
1, 43240, Note_off_c, 0, 53, 109
1, 43381, Note_on_c, 0, 49, 106
1, 43467, Note_off_c, 0, 49, 106
1, 43496, Note_on_c, 0, 51, 103
1, 43610, Note_off_c, 0, 51, 103
1, 43618, Note_on_c, 0, 53, 110
1, 44425, Note_off_c, 0, 53, 110
1, 46803, Note_on_c, 0, 72, 124
1, 47039, Note_off_c, 0, 72, 124
1, 47066, Note_on_c, 0, 71, 122
1, 47257, Note_off_c, 0, 71, 122
1, 47296, Note_on_c, 0, 70, 98
1, 47529, Note_off_c, 0, 70, 98
1, 47549, Note_on_c, 0, 69, 114
1, 47752, Note_off_c, 0, 69, 114
1, 47783, Note_on_c, 0, 68, 113
1, 47997, Note_off_c, 0, 68, 113
1, 48040, Note_on_c, 0, 66, 115
1, 48212, Note_off_c, 0, 66, 115
1, 48244, Note_on_c, 0, 65, 107
1, 48404, Note_off_c, 0, 65, 107
1, 48423, Note_on_c, 0, 63, 116
1, 48628, Note_off_c, 0, 63, 116
1, 48653, Note_on_c, 0, 62, 118
1, 48836, Note_off_c, 0, 62, 118
1, 48858, Note_on_c, 0, 65, 99
1, 48992, Note_off_c, 0, 65, 99
1, 49035, Note_on_c, 0, 59, 107
1, 49254, Note_off_c, 0, 59, 107
1, 49385, Note_on_c, 0, 58, 94
1, 49511, Note_off_c, 0, 58, 94
1, 49540, Note_on_c, 0, 59, 89
1, 49645, Note_off_c, 0, 59, 89
1, 49665, Note_on_c, 0, 66, 115
1, 49832, Note_off_c, 0, 66, 115
1, 49856, Note_on_c, 0, 65, 111
1, 49994, Note_off_c, 0, 65, 111
1, 50023, Note_on_c, 0, 63, 115
1, 50270, Note_off_c, 0, 63, 115
1, 50311, Note_on_c, 0, 62, 101
1, 50418, Note_off_c, 0, 62, 101
1, 50435, Note_on_c, 0, 63, 102
1, 50550, Note_off_c, 0, 63, 102
1, 50594, Note_on_c, 0, 65, 113
1, 50865, Note_off_c, 0, 65, 113
1, 50887, Note_on_c, 0, 62, 103
1, 50990, Note_off_c, 0, 62, 103
1, 51015, Note_on_c, 0, 63, 115
1, 51262, Note_off_c, 0, 63, 115
1, 51303, Note_on_c, 0, 58, 97
1, 51491, Note_off_c, 0, 58, 97
1, 51548, Note_on_c, 0, 54, 109
1, 51795, Note_off_c, 0, 54, 109
1, 51864, Note_on_c, 0, 58, 94
1, 52609, Note_off_c, 0, 58, 94
1, 53822, Note_on_c, 0, 51, 108
1, 53987, Note_off_c, 0, 51, 108
1, 53993, Note_on_c, 0, 57, 101
1, 54058, Note_off_c, 0, 57, 101
1, 54069, Note_on_c, 0, 62, 104
1, 54178, Note_off_c, 0, 62, 104
1, 54201, Note_on_c, 0, 67, 112
1, 54285, Note_off_c, 0, 67, 112
1, 54299, Note_on_c, 0, 70, 111
1, 54484, Note_off_c, 0, 70, 111
1, 54523, Note_on_c, 0, 64, 118
1, 55693, Note_off_c, 0, 64, 118
1, 55784, Note_on_c, 0, 70, 103
1, 55889, Note_off_c, 0, 70, 103
1, 55902, Note_on_c, 0, 67, 103
1, 55990, Note_off_c, 0, 67, 103
1, 56143, Note_on_c, 0, 63, 106
1, 56803, Note_off_c, 0, 63, 106
1, 57670, Note_on_c, 0, 63, 121
1, 57989, Note_off_c, 0, 63, 121
1, 58032, Note_on_c, 0, 60, 98
1, 58187, Note_off_c, 0, 60, 98
1, 58231, Note_on_c, 0, 61, 101
1, 58400, Note_off_c, 0, 61, 101
1, 58503, Note_on_c, 0, 63, 105
1, 58601, Note_off_c, 0, 63, 105
1, 58626, Note_on_c, 0, 64, 116
1, 58729, Note_off_c, 0, 64, 116
1, 58742, Note_on_c, 0, 65, 111
1, 58926, Note_off_c, 0, 65, 111
1, 59008, Note_on_c, 0, 70, 105
1, 59250, Note_off_c, 0, 70, 105
1, 59301, Note_on_c, 0, 69, 115
1, 59537, Note_off_c, 0, 69, 115
1, 59566, Note_on_c, 0, 68, 110
1, 59728, Note_off_c, 0, 68, 110
1, 59757, Note_on_c, 0, 67, 109
1, 59992, Note_off_c, 0, 67, 109
1, 60054, Note_on_c, 0, 66, 111
1, 60155, Note_off_c, 0, 66, 111
1, 60177, Note_on_c, 0, 65, 105
1, 60263, Note_off_c, 0, 65, 105
1, 60304, Note_on_c, 0, 62, 111
1, 60544, Note_off_c, 0, 62, 111
1, 61112, Note_on_c, 0, 65, 113
1, 61283, Note_off_c, 0, 65, 113
1, 61322, Note_on_c, 0, 62, 105
1, 61468, Note_off_c, 0, 62, 105
1, 61507, Note_on_c, 0, 63, 119
1, 61733, Note_off_c, 0, 63, 119
1, 61774, Note_on_c, 0, 61, 116
1, 61983, Note_off_c, 0, 61, 116
1, 62012, Note_on_c, 0, 60, 106
1, 62153, Note_off_c, 0, 60, 106
1, 62204, Note_on_c, 0, 58, 100
1, 62330, Note_off_c, 0, 58, 100
1, 62425, Note_on_c, 0, 57, 103
1, 62547, Note_off_c, 0, 57, 103
1, 62576, Note_on_c, 0, 58, 91
1, 62690, Note_off_c, 0, 58, 91
1, 62790, Note_on_c, 0, 61, 122
1, 62966, Note_off_c, 0, 61, 122
1, 63019, Note_on_c, 0, 57, 108
1, 63193, Note_off_c, 0, 57, 108
1, 63244, Note_on_c, 0, 54, 107
1, 63534, Note_off_c, 0, 54, 107
1, 63563, Note_on_c, 0, 56, 115
1, 64109, Note_off_c, 0, 56, 115
1, 64760, Note_on_c, 0, 61, 120
1, 65155, Note_off_c, 0, 61, 120
1, 65383, Note_on_c, 0, 63, 123
1, 65941, Note_off_c, 0, 63, 123
1, 65980, Note_on_c, 0, 65, 116
1, 66840, Note_off_c, 0, 65, 116
1, 67911, Note_on_c, 0, 54, 105
1, 68220, Note_off_c, 0, 54, 105
1, 68294, Note_on_c, 0, 61, 121
1, 68582, Note_off_c, 0, 61, 121
1, 68855, Note_on_c, 0, 63, 120
1, 69339, Note_off_c, 0, 63, 120
1, 69380, Note_on_c, 0, 64, 109
1, 70237, Note_off_c, 0, 64, 109
1, 72879, Note_on_c, 0, 56, 116
1, 73145, Note_off_c, 0, 56, 116
1, 73181, Note_on_c, 0, 61, 119
1, 73486, Note_off_c, 0, 61, 119
1, 73546, Note_on_c, 0, 63, 125
1, 73865, Note_off_c, 0, 63, 125
1, 73909, Note_on_c, 0, 65, 121
1, 74228, Note_off_c, 0, 65, 121
1, 74326, Note_on_c, 0, 66, 119
1, 74633, Note_off_c, 0, 66, 119
1, 74690, Note_on_c, 0, 65, 117
1, 74912, Note_off_c, 0, 65, 117
1, 74975, Note_on_c, 0, 61, 114
1, 75194, Note_off_c, 0, 61, 114
1, 75232, Note_on_c, 0, 62, 95
1, 75563, Note_off_c, 0, 62, 95
1, 75588, Note_on_c, 0, 63, 120
1, 75823, Note_off_c, 0, 63, 120
1, 75885, Note_on_c, 0, 59, 108
1, 76099, Note_off_c, 0, 59, 108
1, 76458, Note_on_c, 0, 61, 114
1, 76741, Note_off_c, 0, 61, 114
1, 76779, Note_on_c, 0, 59, 105
1, 77017, Note_off_c, 0, 59, 105
1, 77138, Note_on_c, 0, 58, 95
1, 78050, Note_off_c, 0, 58, 95
1, 80877, Note_on_c, 0, 73, 121
1, 81162, Note_off_c, 0, 73, 121
1, 81234, Note_on_c, 0, 71, 118
1, 81495, Note_off_c, 0, 71, 118
1, 81517, Note_on_c, 0, 68, 114
1, 81814, Note_off_c, 0, 68, 114
1, 81841, Note_on_c, 0, 67, 112
1, 82134, Note_off_c, 0, 67, 112
1, 82168, Note_on_c, 0, 66, 114
1, 82390, Note_off_c, 0, 66, 114
1, 82438, Note_on_c, 0, 64, 116
1, 82699, Note_off_c, 0, 64, 116
1, 82737, Note_on_c, 0, 61, 103
1, 82883, Note_off_c, 0, 61, 103
1, 82965, Note_on_c, 0, 65, 113
1, 84213, Note_off_c, 0, 65, 113
1, 85240, Note_on_c, 0, 63, 118
1, 85520, Note_off_c, 0, 63, 118
1, 86303, Note_on_c, 0, 66, 107
1, 86866, Note_off_c, 0, 66, 107
1, 86936, Note_on_c, 0, 68, 119
1, 87140, Note_off_c, 0, 68, 119
1, 87164, Note_on_c, 0, 66, 121
1, 87286, Note_off_c, 0, 66, 121
1, 87320, Note_on_c, 0, 65, 108
1, 87532, Note_off_c, 0, 65, 108
1, 87563, Note_on_c, 0, 63, 120
1, 87708, Note_off_c, 0, 63, 120
1, 87725, Note_on_c, 0, 62, 121
1, 87937, Note_off_c, 0, 62, 121
1, 88056, Note_on_c, 0, 56, 107
1, 88347, Note_off_c, 0, 56, 107
1, 88509, Note_on_c, 0, 59, 111
1, 88737, Note_off_c, 0, 59, 111
1, 88756, Note_on_c, 0, 58, 103
1, 88839, Note_off_c, 0, 58, 103
1, 88886, Note_on_c, 0, 57, 100
1, 89109, Note_off_c, 0, 57, 100
1, 89287, Note_on_c, 0, 65, 118
1, 89483, Note_off_c, 0, 65, 118
1, 89500, Note_on_c, 0, 66, 118
1, 89742, Note_off_c, 0, 66, 118
1, 89770, Note_on_c, 0, 62, 117
1, 89970, Note_off_c, 0, 62, 117
1, 90020, Note_on_c, 0, 65, 118
1, 90254, Note_off_c, 0, 65, 118
1, 90269, Note_on_c, 0, 63, 111
1, 91077, Note_off_c, 0, 63, 111
1, 91659, Note_on_c, 0, 70, 112
1, 91774, Note_off_c, 0, 70, 112
1, 91793, Note_on_c, 0, 65, 117
1, 91928, Note_off_c, 0, 65, 117
1, 91947, Note_on_c, 0, 63, 122
1, 92090, Note_off_c, 0, 63, 122
1, 92102, Note_on_c, 0, 62, 122
1, 92378, Note_off_c, 0, 62, 122
1, 92572, Note_on_c, 0, 58, 102
1, 92747, Note_off_c, 0, 58, 102
1, 92833, Note_on_c, 0, 61, 110
1, 92935, Note_off_c, 0, 61, 110
1, 92953, Note_on_c, 0, 62, 111
1, 93067, Note_off_c, 0, 62, 111
1, 93102, Note_on_c, 0, 61, 110
1, 93267, Note_off_c, 0, 61, 110
1, 93305, Note_on_c, 0, 58, 98
1, 93423, Note_off_c, 0, 58, 98
1, 93545, Note_on_c, 0, 60, 109
1, 94046, Note_off_c, 0, 60, 109
1, 94115, Note_on_c, 0, 65, 111
1, 94740, Note_off_c, 0, 65, 111
1, 95746, Note_on_c, 0, 67, 118
1, 96064, Note_off_c, 0, 67, 118
1, 96152, Note_on_c, 0, 68, 115
1, 96565, Note_off_c, 0, 68, 115
1, 96616, Note_on_c, 0, 66, 117
1, 96947, Note_off_c, 0, 66, 117
1, 97059, Note_on_c, 0, 65, 113
1, 97700, Note_off_c, 0, 65, 113
1, 97834, Note_on_c, 0, 61, 118
1, 98074, Note_off_c, 0, 61, 118
1, 98257, Note_on_c, 0, 61, 98
1, 99302, Note_off_c, 0, 61, 98
1, 103564, Note_on_c, 0, 71, 9
1, 103977, Note_off_c, 0, 71, 9
1, 104021, Note_on_c, 0, 70, 118
1, 104256, Note_off_c, 0, 70, 118
1, 104311, Note_on_c, 0, 68, 121
1, 104661, Note_off_c, 0, 68, 121
1, 104866, Note_on_c, 0, 71, 118
1, 105229, Note_off_c, 0, 71, 118
1, 105327, Note_on_c, 0, 70, 116
1, 105473, Note_off_c, 0, 70, 116
1, 105493, Note_on_c, 0, 68, 120
1, 105707, Note_off_c, 0, 68, 120
1, 105738, Note_on_c, 0, 67, 116
1, 105960, Note_off_c, 0, 67, 116
1, 106148, Note_on_c, 0, 71, 110
1, 106462, Note_off_c, 0, 71, 110
1, 106500, Note_on_c, 0, 70, 112
1, 106636, Note_off_c, 0, 70, 112
1, 106670, Note_on_c, 0, 70, 111
1, 106789, Note_off_c, 0, 70, 111
1, 106821, Note_on_c, 0, 68, 119
1, 106986, Note_off_c, 0, 68, 119
1, 107013, Note_on_c, 0, 67, 123
1, 107282, Note_off_c, 0, 67, 123
1, 107693, Note_on_c, 0, 63, 124
1, 107898, Note_off_c, 0, 63, 124
1, 107914, Note_on_c, 0, 65, 117
1, 107979, Note_off_c, 0, 65, 117
1, 107981, Note_on_c, 0, 64, 119
1, 108117, Note_off_c, 0, 64, 119
1, 108156, Note_on_c, 0, 63, 125
1, 108404, Note_off_c, 0, 63, 125
1, 108434, Note_on_c, 0, 61, 125
1, 108593, Note_off_c, 0, 61, 125
1, 108631, Note_on_c, 0, 60, 112
1, 108913, Note_off_c, 0, 60, 112
1, 108984, Note_on_c, 0, 63, 125
1, 109222, Note_off_c, 0, 63, 125
1, 109263, Note_on_c, 0, 60, 109
1, 109458, Note_off_c, 0, 60, 109
1, 109482, Note_on_c, 0, 61, 124
1, 109646, Note_off_c, 0, 61, 124
1, 109693, Note_on_c, 0, 58, 105
1, 109838, Note_off_c, 0, 58, 105
1, 109871, Note_on_c, 0, 54, 113
1, 110027, Note_off_c, 0, 54, 113
1, 110056, Note_on_c, 0, 51, 111
1, 110244, Note_off_c, 0, 51, 111
1, 110273, Note_on_c, 0, 52, 106
1, 110511, Note_off_c, 0, 52, 106
1, 111126, Note_on_c, 0, 60, 110
1, 111320, Note_off_c, 0, 60, 110
1, 111339, Note_on_c, 0, 58, 102
1, 111404, Note_off_c, 0, 58, 102
1, 111437, Note_on_c, 0, 56, 110
1, 111648, Note_off_c, 0, 56, 110
1, 111709, Note_on_c, 0, 66, 102
1, 111861, Note_off_c, 0, 66, 102
1, 111895, Note_on_c, 0, 64, 112
1, 112060, Note_off_c, 0, 64, 112
1, 112342, Note_on_c, 0, 60, 118
1, 112510, Note_off_c, 0, 60, 118
1, 112538, Note_on_c, 0, 63, 127
1, 112732, Note_off_c, 0, 63, 127
1, 112765, Note_on_c, 0, 61, 119
1, 112962, Note_off_c, 0, 61, 119
1, 112987, Note_on_c, 0, 63, 120
1, 113197, Note_off_c, 0, 63, 120
1, 113233, Note_on_c, 0, 66, 110
1, 113510, Note_off_c, 0, 66, 110
1, 113534, Note_on_c, 0, 68, 119
1, 113846, Note_off_c, 0, 68, 119
1, 114412, Note_on_c, 0, 66, 121
1, 114610, Note_off_c, 0, 66, 121
1, 114633, Note_on_c, 0, 67, 119
1, 114702, Note_off_c, 0, 67, 119
1, 114707, Note_on_c, 0, 66, 124
1, 114821, Note_off_c, 0, 66, 124
1, 114837, Note_on_c, 0, 65, 121
1, 115047, Note_off_c, 0, 65, 121
1, 115088, Note_on_c, 0, 61, 115
1, 115324, Note_off_c, 0, 61, 115
1, 115343, Note_on_c, 0, 62, 107
1, 115479, Note_off_c, 0, 62, 107
1, 115509, Note_on_c, 0, 63, 122
1, 115748, Note_off_c, 0, 63, 122
1, 116031, Note_on_c, 0, 60, 103
1, 116155, Note_off_c, 0, 60, 103
1, 116176, Note_on_c, 0, 61, 125
1, 116349, Note_off_c, 0, 61, 125
1, 116401, Note_on_c, 0, 59, 113
1, 116623, Note_off_c, 0, 59, 113
1, 116648, Note_on_c, 0, 56, 116
1, 116793, Note_off_c, 0, 56, 116
1, 116940, Note_on_c, 0, 58, 104
1, 117387, Note_off_c, 0, 58, 104
1, 118380, Note_on_c, 0, 61, 123
1, 118667, Note_off_c, 0, 61, 123
1, 118831, Note_on_c, 0, 73, 126
1, 119105, Note_off_c, 0, 73, 126
1, 119136, Note_on_c, 0, 71, 120
1, 119395, Note_off_c, 0, 71, 120
1, 119420, Note_on_c, 0, 68, 115
1, 119805, Note_off_c, 0, 68, 115
1, 119839, Note_on_c, 0, 67, 114
1, 120071, Note_off_c, 0, 67, 114
1, 120114, Note_on_c, 0, 66, 114
1, 120348, Note_off_c, 0, 66, 114
1, 120452, Note_on_c, 0, 64, 114
1, 120782, Note_off_c, 0, 64, 114
1, 120831, Note_on_c, 0, 61, 113
1, 121091, Note_off_c, 0, 61, 113
1, 121206, Note_on_c, 0, 56, 114
1, 121489, Note_off_c, 0, 56, 114
1, 121521, Note_on_c, 0, 54, 106
1, 122502, Note_off_c, 0, 54, 106
1, 125046, Note_on_c, 0, 49, 101
1, 125310, Note_off_c, 0, 49, 101
1, 125337, Note_on_c, 0, 52, 104
1, 125677, Note_off_c, 0, 52, 104
1, 125706, Note_on_c, 0, 55, 107
1, 125839, Note_off_c, 0, 55, 107
1, 125859, Note_on_c, 0, 58, 95
1, 125983, Note_off_c, 0, 58, 95
1, 126015, Note_on_c, 0, 64, 103
1, 126120, Note_off_c, 0, 64, 103
1, 126178, Note_on_c, 0, 61, 116
1, 126577, Note_off_c, 0, 61, 116
1, 126701, Note_on_c, 0, 65, 113
1, 127095, Note_off_c, 0, 65, 113
1, 127179, Note_on_c, 0, 68, 114
1, 127538, Note_off_c, 0, 68, 114
1, 127614, Note_on_c, 0, 73, 117
1, 127921, Note_off_c, 0, 73, 117
1, 128007, Note_on_c, 0, 68, 116
1, 128331, Note_off_c, 0, 68, 116
1, 128358, Note_on_c, 0, 67, 116
1, 128617, Note_off_c, 0, 67, 116
1, 128634, Note_on_c, 0, 66, 111
1, 128799, Note_off_c, 0, 66, 111
1, 128895, Note_on_c, 0, 64, 108
1, 129078, Note_off_c, 0, 64, 108
1, 129124, Note_on_c, 0, 59, 106
1, 129286, Note_off_c, 0, 59, 106
1, 129310, Note_on_c, 0, 56, 104
1, 129412, Note_off_c, 0, 56, 104
1, 129435, Note_on_c, 0, 55, 104
1, 129597, Note_off_c, 0, 55, 104
1, 129669, Note_on_c, 0, 52, 92
1, 130074, Note_off_c, 0, 52, 92
1, 130999, Note_on_c, 0, 51, 98
1, 131091, Note_off_c, 0, 51, 98
1, 131122, Note_on_c, 0, 56, 94
1, 131201, Note_off_c, 0, 56, 94
1, 131223, Note_on_c, 0, 61, 99
1, 131326, Note_off_c, 0, 61, 99
1, 131387, Note_on_c, 0, 68, 118
1, 131689, Note_off_c, 0, 68, 118
1, 131708, Note_on_c, 0, 66, 118
1, 131904, Note_off_c, 0, 66, 118
1, 132013, Note_on_c, 0, 58, 97
1, 132135, Note_off_c, 0, 58, 97
1, 132176, Note_on_c, 0, 61, 102
1, 132279, Note_off_c, 0, 61, 102
1, 132306, Note_on_c, 0, 65, 121
1, 132665, Note_off_c, 0, 65, 121
1, 132694, Note_on_c, 0, 63, 122
1, 133157, Note_off_c, 0, 63, 122
1, 134088, Note_on_c, 0, 63, 106
1, 134241, Note_off_c, 0, 63, 106
1, 134286, Note_on_c, 0, 67, 96
1, 134412, Note_off_c, 0, 67, 96
1, 134501, Note_on_c, 0, 71, 117
1, 134751, Note_off_c, 0, 71, 117
1, 134822, Note_on_c, 0, 69, 116
1, 135082, Note_off_c, 0, 69, 116
1, 135508, Note_on_c, 0, 68, 112
1, 135818, Note_off_c, 0, 68, 112
1, 135849, Note_on_c, 0, 66, 116
1, 136175, Note_off_c, 0, 66, 116
1, 137863, Note_on_c, 0, 63, 114
1, 137965, Note_off_c, 0, 63, 114
1, 137974, Note_on_c, 0, 64, 116
1, 138066, Note_off_c, 0, 64, 116
1, 138087, Note_on_c, 0, 65, 114
1, 138182, Note_off_c, 0, 65, 114
1, 138248, Note_on_c, 0, 66, 116
1, 138445, Note_off_c, 0, 66, 116
1, 138495, Note_on_c, 0, 67, 111
1, 138628, Note_off_c, 0, 67, 111
1, 138648, Note_on_c, 0, 68, 119
1, 138827, Note_off_c, 0, 68, 119
1, 138877, Note_on_c, 0, 66, 113
1, 138996, Note_off_c, 0, 66, 113
1, 139046, Note_on_c, 0, 65, 106
1, 139266, Note_off_c, 0, 65, 106
1, 139295, Note_on_c, 0, 63, 112
1, 139467, Note_off_c, 0, 63, 112
1, 139513, Note_on_c, 0, 62, 111
1, 139718, Note_off_c, 0, 62, 111
1, 139747, Note_on_c, 0, 59, 106
1, 139916, Note_off_c, 0, 59, 106
1, 139957, Note_on_c, 0, 56, 102
1, 140149, Note_off_c, 0, 56, 102
1, 140183, Note_on_c, 0, 57, 90
1, 140314, Note_off_c, 0, 57, 90
1, 140367, Note_on_c, 0, 58, 103
1, 140571, Note_off_c, 0, 58, 103
1, 140588, Note_on_c, 0, 57, 104
1, 140758, Note_off_c, 0, 57, 104
1, 140765, Note_on_c, 0, 56, 108
1, 140959, Note_off_c, 0, 56, 108
1, 140982, Note_on_c, 0, 55, 102
1, 141092, Note_off_c, 0, 55, 102
1, 141133, Note_on_c, 0, 54, 106
1, 141273, Note_off_c, 0, 54, 106
1, 141370, Note_on_c, 0, 65, 110
1, 141518, Note_off_c, 0, 65, 110
1, 141546, Note_on_c, 0, 63, 110
1, 141745, Note_off_c, 0, 63, 110
1, 141770, Note_on_c, 0, 61, 88
1, 141868, Note_off_c, 0, 61, 88
1, 143099, Note_on_c, 0, 56, 88
1, 143347, Note_off_c, 0, 56, 88
1, 143510, Note_on_c, 0, 54, 92
1, 143620, Note_off_c, 0, 54, 92
1, 143792, Note_on_c, 0, 53, 114
1, 143985, Note_off_c, 0, 53, 114
1, 143985, End_track
0, 0, End_of_file
