0, 0, Header, 1, 1, 192
1, 0, Start_track
1, 0, Title_t, "Melody"
1, 0, Tempo, 269058
1, 0, Key_signature, 0, "major"
1, 0, Time_signature, 4, 2, 24, 8
1, 1760, Note_on_c, 0, 67, 95
1, 1884, Note_off_c, 0, 67, 95
1, 1884, Note_on_c, 0, 64, 101
1, 2020, Note_off_c, 0, 64, 101
1, 2285, Note_on_c, 0, 67, 109
1, 2429, Note_off_c, 0, 67, 109
1, 2457, Note_on_c, 0, 63, 121
1, 2593, Note_off_c, 0, 63, 121
1, 2928, Note_on_c, 0, 62, 108
1, 3027, Note_off_c, 0, 62, 108
1, 3027, Note_on_c, 0, 60, 104
1, 3155, Note_off_c, 0, 60, 104
1, 3494, Note_on_c, 0, 58, 102
1, 3696, Note_off_c, 0, 58, 102
1, 3874, Note_on_c, 0, 60, 105
1, 4006, Note_off_c, 0, 60, 105
1, 4030, Note_on_c, 0, 55, 113
1, 4145, Note_off_c, 0, 55, 113
1, 4418, Note_on_c, 0, 64, 118
1, 4583, Note_off_c, 0, 64, 118
1, 4810, Note_on_c, 0, 59, 108
1, 4925, Note_off_c, 0, 59, 108
1, 5061, Note_on_c, 0, 62, 105
1, 5185, Note_off_c, 0, 62, 105
1, 5189, Note_on_c, 0, 59, 94
1, 5292, Note_off_c, 0, 59, 94
1, 5292, Note_on_c, 0, 60, 108
1, 5399, Note_off_c, 0, 60, 108
1, 5399, Note_on_c, 0, 67, 118
1, 5510, Note_off_c, 0, 67, 118
1, 5510, Note_on_c, 0, 65, 117
1, 5630, Note_off_c, 0, 65, 117
1, 5638, Note_on_c, 0, 63, 106
1, 5716, Note_off_c, 0, 63, 106
1, 5724, Note_on_c, 0, 64, 120
1, 5835, Note_off_c, 0, 64, 120
1, 5839, Note_on_c, 0, 62, 110
1, 5946, Note_off_c, 0, 62, 110
1, 6090, Note_on_c, 0, 61, 111
1, 6214, Note_off_c, 0, 61, 111
1, 6234, Note_on_c, 0, 59, 107
1, 6325, Note_off_c, 0, 59, 107
1, 6403, Note_on_c, 0, 57, 108
1, 6510, Note_off_c, 0, 57, 108
1, 6514, Note_on_c, 0, 58, 109
1, 6642, Note_off_c, 0, 58, 109
1, 6675, Note_on_c, 0, 60, 110
1, 6741, Note_off_c, 0, 60, 110
1, 6741, Note_on_c, 0, 61, 107
1, 6844, Note_off_c, 0, 61, 107
1, 6844, Note_on_c, 0, 63, 105
1, 6914, Note_off_c, 0, 63, 105
1, 6918, Note_on_c, 0, 65, 112
1, 7004, Note_off_c, 0, 65, 112
1, 7020, Note_on_c, 0, 68, 111
1, 7111, Note_off_c, 0, 68, 111
1, 7127, Note_on_c, 0, 67, 102
1, 7213, Note_off_c, 0, 67, 102
1, 7213, Note_on_c, 0, 65, 115
1, 7295, Note_off_c, 0, 65, 115
1, 7307, Note_on_c, 0, 63, 113
1, 7398, Note_off_c, 0, 63, 113
1, 7398, Note_on_c, 0, 61, 110
1, 7497, Note_off_c, 0, 61, 110
1, 7497, Note_on_c, 0, 58, 100
1, 7592, Note_off_c, 0, 58, 100
1, 7596, Note_on_c, 0, 59, 98
1, 7641, Note_off_c, 0, 59, 98
1, 7645, Note_on_c, 0, 60, 110
1, 7765, Note_off_c, 0, 60, 110
1, 7769, Note_on_c, 0, 63, 97
1, 7868, Note_off_c, 0, 63, 97
1, 7880, Note_on_c, 0, 58, 100
1, 7975, Note_off_c, 0, 58, 100
1, 7983, Note_on_c, 0, 55, 97
1, 8049, Note_off_c, 0, 55, 97
1, 8053, Note_on_c, 0, 56, 102
1, 8284, Note_off_c, 0, 56, 102
1, 9137, Note_on_c, 0, 69, 116
1, 9207, Note_off_c, 0, 69, 116
1, 9219, Note_on_c, 0, 71, 113
1, 9413, Note_off_c, 0, 71, 113
1, 9417, Note_on_c, 0, 69, 100
1, 9541, Note_off_c, 0, 69, 100
1, 9541, Note_on_c, 0, 67, 112
1, 9632, Note_off_c, 0, 67, 112
1, 9644, Note_on_c, 0, 66, 110
1, 9772, Note_off_c, 0, 66, 110
1, 9780, Note_on_c, 0, 64, 107
1, 9833, Note_off_c, 0, 64, 107
1, 9841, Note_on_c, 0, 62, 111
1, 9911, Note_off_c, 0, 62, 111
1, 9919, Note_on_c, 0, 61, 111
1, 10014, Note_off_c, 0, 61, 111
1, 10018, Note_on_c, 0, 60, 107
1, 10071, Note_off_c, 0, 60, 107
1, 10095, Note_on_c, 0, 59, 104
1, 10198, Note_off_c, 0, 59, 104
1, 10206, Note_on_c, 0, 57, 102
1, 10276, Note_off_c, 0, 57, 102
1, 10288, Note_on_c, 0, 55, 97
1, 10358, Note_off_c, 0, 55, 97
1, 10378, Note_on_c, 0, 53, 105
1, 10481, Note_off_c, 0, 53, 105
1, 10481, Note_on_c, 0, 55, 103
1, 10534, Note_off_c, 0, 55, 103
1, 10567, Note_on_c, 0, 57, 104
1, 10666, Note_off_c, 0, 57, 104
1, 10682, Note_on_c, 0, 60, 105
1, 10777, Note_off_c, 0, 60, 105
1, 10777, Note_on_c, 0, 64, 112
1, 10868, Note_off_c, 0, 64, 112
1, 10880, Note_on_c, 0, 65, 108
1, 10975, Note_off_c, 0, 65, 108
1, 10975, Note_on_c, 0, 61, 104
1, 11078, Note_off_c, 0, 61, 104
1, 11078, Note_on_c, 0, 64, 109
1, 11169, Note_off_c, 0, 64, 109
1, 11181, Note_on_c, 0, 62, 111
1, 11280, Note_off_c, 0, 62, 111
1, 11280, Note_on_c, 0, 64, 115
1, 11375, Note_off_c, 0, 64, 115
1, 11387, Note_on_c, 0, 65, 98
1, 11440, Note_off_c, 0, 65, 98
1, 11468, Note_on_c, 0, 67, 102
1, 11542, Note_off_c, 0, 67, 102
1, 11542, Note_on_c, 0, 69, 101
1, 11624, Note_off_c, 0, 69, 101
1, 11661, Note_on_c, 0, 72, 110
1, 11776, Note_off_c, 0, 72, 110
1, 11788, Note_on_c, 0, 71, 99
1, 11858, Note_off_c, 0, 71, 99
1, 11866, Note_on_c, 0, 69, 98
1, 11936, Note_off_c, 0, 69, 98
1, 11944, Note_on_c, 0, 67, 102
1, 12076, Note_off_c, 0, 67, 102
1, 12320, Note_on_c, 0, 66, 114
1, 12419, Note_off_c, 0, 66, 114
1, 12431, Note_on_c, 0, 67, 110
1, 12513, Note_off_c, 0, 67, 110
1, 12533, Note_on_c, 0, 70, 99
1, 12653, Note_off_c, 0, 70, 99
1, 12661, Note_on_c, 0, 69, 103
1, 12718, Note_off_c, 0, 69, 103
1, 12722, Note_on_c, 0, 68, 98
1, 12808, Note_off_c, 0, 68, 98
1, 12841, Note_on_c, 0, 59, 100
1, 12915, Note_off_c, 0, 59, 100
1, 12923, Note_on_c, 0, 60, 109
1, 13026, Note_off_c, 0, 60, 109
1, 13030, Note_on_c, 0, 63, 117
1, 13104, Note_off_c, 0, 63, 117
1, 13112, Note_on_c, 0, 65, 113
1, 13236, Note_off_c, 0, 65, 113
1, 13252, Note_on_c, 0, 66, 115
1, 13343, Note_off_c, 0, 66, 115
1, 13355, Note_on_c, 0, 67, 112
1, 13425, Note_off_c, 0, 67, 112
1, 13441, Note_on_c, 0, 65, 118
1, 13548, Note_off_c, 0, 65, 118
1, 13560, Note_on_c, 0, 64, 109
1, 13675, Note_off_c, 0, 64, 109
1, 13782, Note_on_c, 0, 55, 96
1, 13839, Note_off_c, 0, 55, 96
1, 13839, Note_on_c, 0, 57, 91
1, 13888, Note_off_c, 0, 57, 91
1, 13896, Note_on_c, 0, 62, 108
1, 14011, Note_off_c, 0, 62, 108
1, 14015, Note_on_c, 0, 59, 99
1, 14085, Note_off_c, 0, 59, 99
1, 14089, Note_on_c, 0, 60, 106
1, 14192, Note_off_c, 0, 60, 106
1, 14208, Note_on_c, 0, 62, 109
1, 14290, Note_off_c, 0, 62, 109
1, 14294, Note_on_c, 0, 63, 97
1, 14364, Note_off_c, 0, 63, 97
1, 14368, Note_on_c, 0, 64, 90
1, 14417, Note_off_c, 0, 64, 90
1, 14425, Note_on_c, 0, 65, 111
1, 14524, Note_off_c, 0, 65, 111
1, 14524, Note_on_c, 0, 64, 98
1, 14594, Note_off_c, 0, 64, 98
1, 14606, Note_on_c, 0, 62, 112
1, 14697, Note_off_c, 0, 62, 112
1, 14697, Note_on_c, 0, 60, 109
1, 14763, Note_off_c, 0, 60, 109
1, 14783, Note_on_c, 0, 55, 96
1, 14886, Note_off_c, 0, 55, 96
1, 14886, Note_on_c, 0, 58, 105
1, 14997, Note_on_c, 0, 55, 103
1, 14997, Note_off_c, 0, 58, 105
1, 15050, Note_off_c, 0, 55, 103
1, 15074, Note_on_c, 0, 56, 101
1, 15189, Note_on_c, 0, 58, 104
1, 15189, Note_off_c, 0, 56, 101
1, 15259, Note_off_c, 0, 58, 104
1, 15263, Note_on_c, 0, 60, 104
1, 15383, Note_on_c, 0, 63, 111
1, 15383, Note_off_c, 0, 60, 104
1, 15457, Note_off_c, 0, 63, 111
1, 15473, Note_on_c, 0, 67, 101
1, 15622, Note_off_c, 0, 67, 101
1, 15684, Note_on_c, 0, 67, 107
1, 15795, Note_off_c, 0, 67, 107
1, 15861, Note_on_c, 0, 67, 110
1, 15972, Note_off_c, 0, 67, 110
1, 15972, Note_on_c, 0, 68, 105
1, 16038, Note_off_c, 0, 68, 105
1, 16054, Note_on_c, 0, 67, 107
1, 16157, Note_off_c, 0, 67, 107
1, 16185, Note_on_c, 0, 68, 98
1, 16226, Note_off_c, 0, 68, 98
1, 16234, Note_on_c, 0, 67, 110
1, 16258, Note_off_c, 0, 67, 110
1, 16258, Note_on_c, 0, 65, 106
1, 16547, Note_off_c, 0, 65, 106
1, 16986, Note_on_c, 0, 69, 94
1, 17052, Note_off_c, 0, 69, 94
1, 17072, Note_on_c, 0, 71, 116
1, 17287, Note_off_c, 0, 71, 116
1, 17299, Note_on_c, 0, 69, 101
1, 17340, Note_off_c, 0, 69, 101
1, 17340, Note_on_c, 0, 67, 114
1, 17397, Note_off_c, 0, 67, 114
1, 17409, Note_on_c, 0, 66, 122
1, 17657, Note_off_c, 0, 66, 122
1, 17690, Note_on_c, 0, 62, 114
1, 17731, Note_off_c, 0, 62, 114
1, 17747, Note_on_c, 0, 61, 103
1, 17780, Note_off_c, 0, 61, 103
1, 17792, Note_on_c, 0, 59, 104
1, 18077, Note_off_c, 0, 59, 104
1, 18342, Note_on_c, 0, 61, 100
1, 18370, Note_off_c, 0, 61, 100
1, 18382, Note_on_c, 0, 62, 106
1, 18419, Note_off_c, 0, 62, 106
1, 18419, Note_on_c, 0, 64, 108
1, 18485, Note_off_c, 0, 64, 108
1, 18505, Note_on_c, 0, 66, 111
1, 18616, Note_off_c, 0, 66, 111
1, 18636, Note_on_c, 0, 62, 109
1, 18718, Note_off_c, 0, 62, 109
1, 18718, Note_on_c, 0, 61, 108
1, 18755, Note_off_c, 0, 61, 108
1, 18788, Note_on_c, 0, 62, 106
1, 18833, Note_off_c, 0, 62, 106
1, 18849, Note_on_c, 0, 59, 105
1, 18898, Note_off_c, 0, 59, 105
1, 18914, Note_on_c, 0, 58, 108
1, 19063, Note_off_c, 0, 58, 108
1, 19071, Note_on_c, 0, 60, 99
1, 19137, Note_off_c, 0, 60, 99
1, 19165, Note_on_c, 0, 61, 109
1, 19218, Note_on_c, 0, 63, 106
1, 19218, Note_off_c, 0, 61, 109
1, 19292, Note_off_c, 0, 63, 106
1, 19300, Note_on_c, 0, 65, 113
1, 19378, Note_off_c, 0, 65, 113
1, 19406, Note_on_c, 0, 68, 110
1, 19513, Note_off_c, 0, 68, 110
1, 19513, Note_on_c, 0, 67, 109
1, 19566, Note_off_c, 0, 67, 109
1, 19590, Note_on_c, 0, 65, 118
1, 19660, Note_off_c, 0, 65, 118
1, 19660, Note_on_c, 0, 63, 119
1, 19788, Note_off_c, 0, 63, 119
1, 19800, Note_on_c, 0, 60, 115
1, 19874, Note_off_c, 0, 60, 115
1, 20047, Note_on_c, 0, 60, 99
1, 20399, Note_off_c, 0, 60, 99
1, 20929, Note_on_c, 0, 56, 109
1, 21086, Note_off_c, 0, 56, 109
1, 21135, Note_on_c, 0, 57, 111
1, 21325, Note_off_c, 0, 57, 111
1, 21333, Note_on_c, 0, 59, 109
1, 21494, Note_off_c, 0, 59, 109
1, 21531, Note_on_c, 0, 60, 106
1, 21684, Note_off_c, 0, 60, 106
1, 21712, Note_on_c, 0, 62, 114
1, 21877, Note_off_c, 0, 62, 114
1, 21905, Note_on_c, 0, 64, 110
1, 21996, Note_off_c, 0, 64, 110
1, 22066, Note_on_c, 0, 67, 109
1, 22161, Note_off_c, 0, 67, 109
1, 22165, Note_on_c, 0, 66, 114
1, 22272, Note_off_c, 0, 66, 114
1, 22280, Note_on_c, 0, 64, 107
1, 22321, Note_off_c, 0, 64, 107
1, 22321, Note_on_c, 0, 62, 111
1, 22445, Note_off_c, 0, 62, 111
1, 22457, Note_on_c, 0, 61, 111
1, 22556, Note_off_c, 0, 61, 111
1, 22556, Note_on_c, 0, 60, 110
1, 22634, Note_off_c, 0, 60, 110
1, 22638, Note_on_c, 0, 59, 110
1, 22737, Note_off_c, 0, 59, 110
1, 22753, Note_on_c, 0, 57, 107
1, 22848, Note_on_c, 0, 55, 108
1, 22848, Note_off_c, 0, 57, 107
1, 22910, Note_off_c, 0, 55, 108
1, 22930, Note_on_c, 0, 53, 114
1, 22987, Note_off_c, 0, 53, 114
1, 23053, Note_on_c, 0, 52, 89
1, 23135, Note_off_c, 0, 52, 89
1, 23155, Note_on_c, 0, 53, 107
1, 23237, Note_off_c, 0, 53, 107
1, 23237, Note_on_c, 0, 55, 111
1, 23336, Note_off_c, 0, 55, 111
1, 23336, Note_on_c, 0, 57, 102
1, 23410, Note_off_c, 0, 57, 102
1, 23414, Note_on_c, 0, 60, 106
1, 23500, Note_off_c, 0, 60, 106
1, 23549, Note_on_c, 0, 64, 110
1, 23656, Note_off_c, 0, 64, 110
1, 23656, Note_on_c, 0, 61, 110
1, 23709, Note_off_c, 0, 61, 110
1, 23709, Note_on_c, 0, 62, 109
1, 23804, Note_off_c, 0, 62, 109
1, 23824, Note_on_c, 0, 67, 103
1, 24064, Note_off_c, 0, 67, 103
1, 24660, Note_on_c, 0, 59, 107
1, 24755, Note_off_c, 0, 59, 107
1, 24759, Note_on_c, 0, 60, 109
1, 24866, Note_on_c, 0, 65, 114
1, 24866, Note_off_c, 0, 60, 109
1, 24994, Note_off_c, 0, 65, 114
1, 24994, Note_on_c, 0, 64, 113
1, 25068, Note_off_c, 0, 64, 113
1, 25080, Note_on_c, 0, 63, 109
1, 25191, Note_off_c, 0, 63, 109
1, 25191, Note_on_c, 0, 61, 113
1, 25257, Note_off_c, 0, 61, 113
1, 25265, Note_on_c, 0, 60, 107
1, 25331, Note_off_c, 0, 60, 107
1, 25339, Note_on_c, 0, 58, 111
1, 25417, Note_off_c, 0, 58, 111
1, 25437, Note_on_c, 0, 56, 107
1, 25552, Note_off_c, 0, 56, 107
1, 25552, Note_on_c, 0, 54, 116
1, 25651, Note_off_c, 0, 54, 116
1, 25655, Note_on_c, 0, 53, 101
1, 25986, Note_off_c, 0, 53, 101
1, 26027, Note_on_c, 0, 55, 113
1, 26234, Note_off_c, 0, 55, 113
1, 26258, Note_on_c, 0, 59, 106
1, 26506, Note_off_c, 0, 59, 106
1, 26518, Note_on_c, 0, 57, 109
1, 26621, Note_off_c, 0, 57, 109
1, 26645, Note_on_c, 0, 56, 106
1, 26752, Note_off_c, 0, 56, 106
1, 26780, Note_on_c, 0, 57, 110
1, 26891, Note_off_c, 0, 57, 110
1, 26932, Note_on_c, 0, 60, 106
1, 27176, Note_off_c, 0, 60, 106
1, 27188, Note_on_c, 0, 58, 111
1, 27312, Note_off_c, 0, 58, 111
1, 27312, Note_on_c, 0, 56, 107
1, 27398, Note_off_c, 0, 56, 107
1, 27795, Note_on_c, 0, 67, 116
1, 27919, Note_off_c, 0, 67, 116
1, 27947, Note_on_c, 0, 67, 111
1, 28067, Note_off_c, 0, 67, 111
1, 28087, Note_on_c, 0, 67, 90
1, 28149, Note_off_c, 0, 67, 90
1, 28157, Note_on_c, 0, 65, 117
1, 28223, Note_off_c, 0, 65, 117
1, 28260, Note_on_c, 0, 58, 110
1, 28330, Note_off_c, 0, 58, 110
1, 28358, Note_on_c, 0, 70, 109
1, 28453, Note_off_c, 0, 70, 109
1, 28477, Note_on_c, 0, 68, 109
1, 28597, Note_off_c, 0, 68, 109
1, 28609, Note_on_c, 0, 67, 114
1, 28712, Note_off_c, 0, 67, 114
1, 28745, Note_on_c, 0, 65, 112
1, 28997, Note_off_c, 0, 65, 112
1, 29001, Note_on_c, 0, 64, 115
1, 29087, Note_on_c, 0, 55, 105
1, 29087, Note_off_c, 0, 64, 115
1, 29281, Note_off_c, 0, 55, 105
1, 29309, Note_on_c, 0, 57, 103
1, 29557, Note_off_c, 0, 57, 103
1, 30422, Note_on_c, 0, 64, 113
1, 30517, Note_off_c, 0, 64, 113
1, 30521, Note_on_c, 0, 62, 118
1, 30607, Note_off_c, 0, 62, 118
1, 30673, Note_on_c, 0, 54, 110
1, 30722, Note_off_c, 0, 54, 110
1, 30734, Note_on_c, 0, 57, 106
1, 30816, Note_off_c, 0, 57, 106
1, 30836, Note_on_c, 0, 61, 116
1, 30943, Note_off_c, 0, 61, 116
1, 31013, Note_on_c, 0, 59, 109
1, 31095, Note_off_c, 0, 59, 109
1, 31210, Note_on_c, 0, 63, 118
1, 31296, Note_off_c, 0, 63, 118
1, 31300, Note_on_c, 0, 61, 115
1, 31391, Note_off_c, 0, 61, 115
1, 31428, Note_on_c, 0, 53, 96
1, 31490, Note_off_c, 0, 53, 96
1, 31494, Note_on_c, 0, 56, 106
1, 31618, Note_off_c, 0, 56, 106
1, 31622, Note_on_c, 0, 58, 115
1, 31667, Note_off_c, 0, 58, 115
1, 31667, Note_on_c, 0, 60, 113
1, 31824, Note_off_c, 0, 60, 113
1, 31948, Note_on_c, 0, 52, 93
1, 32014, Note_off_c, 0, 52, 93
1, 32014, Note_on_c, 0, 55, 102
1, 32071, Note_off_c, 0, 55, 102
1, 32071, Note_on_c, 0, 58, 113
1, 32191, Note_off_c, 0, 58, 113
1, 32195, Note_on_c, 0, 55, 104
1, 32257, Note_on_c, 0, 56, 100
1, 32257, Note_off_c, 0, 55, 104
1, 32319, Note_off_c, 0, 56, 100
1, 32319, Note_on_c, 0, 58, 109
1, 32389, Note_on_c, 0, 59, 111
1, 32389, Note_off_c, 0, 58, 109
1, 32500, Note_off_c, 0, 59, 111
1, 32500, Note_on_c, 0, 60, 118
1, 32595, Note_off_c, 0, 60, 118
1, 32595, Note_on_c, 0, 61, 113
1, 32690, Note_off_c, 0, 61, 113
1, 32694, Note_on_c, 0, 59, 111
1, 32772, Note_on_c, 0, 60, 115
1, 32772, Note_off_c, 0, 59, 111
1, 32921, Note_off_c, 0, 60, 115
1, 32921, Note_on_c, 0, 63, 115
1, 33049, Note_off_c, 0, 63, 115
1, 33053, Note_on_c, 0, 65, 101
1, 33110, Note_off_c, 0, 65, 101
1, 33110, Note_on_c, 0, 67, 106
1, 33172, Note_off_c, 0, 67, 106
1, 33172, Note_on_c, 0, 70, 112
1, 33300, Note_off_c, 0, 70, 112
1, 33316, Note_on_c, 0, 68, 103
1, 33378, Note_off_c, 0, 68, 103
1, 33937, Note_on_c, 0, 68, 105
1, 34019, Note_off_c, 0, 68, 105
1, 34027, Note_on_c, 0, 71, 117
1, 34126, Note_off_c, 0, 71, 117
1, 34126, Note_on_c, 0, 68, 102
1, 34233, Note_off_c, 0, 68, 102
1, 34237, Note_on_c, 0, 65, 92
1, 34311, Note_off_c, 0, 65, 92
1, 34339, Note_on_c, 0, 68, 109
1, 34500, Note_off_c, 0, 68, 109
1, 34500, Note_on_c, 0, 64, 109
1, 34611, Note_off_c, 0, 64, 109
1, 34619, Note_on_c, 0, 68, 103
1, 34710, Note_off_c, 0, 68, 103
1, 34730, Note_on_c, 0, 64, 115
1, 34821, Note_off_c, 0, 64, 115
1, 34829, Note_on_c, 0, 60, 112
1, 34911, Note_off_c, 0, 60, 112
1, 35449, Note_on_c, 0, 67, 120
1, 35560, Note_off_c, 0, 67, 120
1, 35560, Note_on_c, 0, 68, 106
1, 35622, Note_off_c, 0, 68, 106
1, 35622, Note_on_c, 0, 69, 105
1, 35655, Note_off_c, 0, 69, 105
1, 35671, Note_on_c, 0, 70, 120
1, 35766, Note_off_c, 0, 70, 120
1, 35770, Note_on_c, 0, 68, 108
1, 35819, Note_off_c, 0, 68, 108
1, 35827, Note_on_c, 0, 67, 118
1, 35930, Note_off_c, 0, 67, 118
1, 35950, Note_on_c, 0, 63, 119
1, 36065, Note_off_c, 0, 63, 119
1, 36065, Note_on_c, 0, 59, 107
1, 36139, Note_off_c, 0, 59, 107
1, 36139, Note_on_c, 0, 55, 102
1, 36242, Note_off_c, 0, 55, 102
1, 36242, Note_on_c, 0, 61, 111
1, 36349, Note_off_c, 0, 61, 111
1, 36382, Note_on_c, 0, 65, 116
1, 36460, Note_off_c, 0, 65, 116
1, 36460, Note_on_c, 0, 61, 104
1, 36497, Note_off_c, 0, 61, 104
1, 36513, Note_on_c, 0, 63, 102
1, 36558, Note_off_c, 0, 63, 102
1, 36566, Note_on_c, 0, 61, 115
1, 36644, Note_off_c, 0, 61, 115
1, 36652, Note_on_c, 0, 60, 114
1, 36747, Note_off_c, 0, 60, 114
1, 37024, Note_on_c, 0, 65, 114
1, 37131, Note_off_c, 0, 65, 114
1, 37131, Note_on_c, 0, 64, 116
1, 37226, Note_off_c, 0, 64, 116
1, 37230, Note_on_c, 0, 63, 115
1, 37312, Note_off_c, 0, 63, 115
1, 37345, Note_on_c, 0, 70, 104
1, 37402, Note_off_c, 0, 70, 104
1, 37406, Note_on_c, 0, 69, 109
1, 37455, Note_off_c, 0, 69, 109
1, 37463, Note_on_c, 0, 68, 111
1, 37578, Note_off_c, 0, 68, 111
1, 37706, Note_on_c, 0, 60, 109
1, 37768, Note_off_c, 0, 60, 109
1, 37768, Note_on_c, 0, 63, 105
1, 37825, Note_off_c, 0, 63, 105
1, 37841, Note_on_c, 0, 67, 116
1, 37952, Note_off_c, 0, 67, 116
1, 37952, Note_on_c, 0, 65, 118
1, 38018, Note_on_c, 0, 62, 106
1, 38018, Note_off_c, 0, 65, 118
1, 38084, Note_off_c, 0, 62, 106
1, 38084, Note_on_c, 0, 63, 109
1, 38187, Note_off_c, 0, 63, 109
1, 38199, Note_on_c, 0, 64, 114
1, 38348, Note_off_c, 0, 64, 114
1, 38397, Note_on_c, 0, 67, 107
1, 38546, Note_off_c, 0, 67, 107
1, 38608, Note_on_c, 0, 70, 111
1, 38690, Note_on_c, 0, 72, 112
1, 38690, Note_off_c, 0, 70, 111
1, 38839, Note_off_c, 0, 72, 112
1, 38851, Note_on_c, 0, 71, 108
1, 38921, Note_off_c, 0, 71, 108
1, 38921, Note_on_c, 0, 69, 102
1, 38978, Note_off_c, 0, 69, 102
1, 38994, Note_on_c, 0, 67, 106
1, 39105, Note_off_c, 0, 67, 106
1, 39129, Note_on_c, 0, 65, 116
1, 39215, Note_off_c, 0, 65, 116
1, 39215, Note_on_c, 0, 63, 109
1, 39281, Note_off_c, 0, 63, 109
1, 39281, Note_on_c, 0, 62, 112
1, 39384, Note_off_c, 0, 62, 112
1, 39384, Note_on_c, 0, 60, 113
1, 39475, Note_off_c, 0, 60, 113
1, 39491, Note_on_c, 0, 59, 109
1, 39598, Note_off_c, 0, 59, 109
1, 39610, Note_on_c, 0, 58, 108
1, 39696, Note_off_c, 0, 58, 108
1, 39700, Note_on_c, 0, 57, 109
1, 39782, Note_off_c, 0, 57, 109
1, 39798, Note_on_c, 0, 56, 108
1, 39922, Note_off_c, 0, 56, 108
1, 40195, Note_on_c, 0, 67, 116
1, 40261, Note_off_c, 0, 67, 116
1, 40273, Note_on_c, 0, 68, 106
1, 40318, Note_off_c, 0, 68, 106
1, 40318, Note_on_c, 0, 67, 121
1, 40367, Note_off_c, 0, 67, 121
1, 40367, Note_on_c, 0, 65, 118
1, 40644, Note_off_c, 0, 65, 118
1, 41286, Note_on_c, 0, 66, 119
1, 41410, Note_off_c, 0, 66, 119
1, 41414, Note_on_c, 0, 67, 114
1, 41496, Note_off_c, 0, 67, 114
1, 41508, Note_on_c, 0, 71, 110
1, 41619, Note_off_c, 0, 71, 110
1, 41619, Note_on_c, 0, 69, 103
1, 41676, Note_off_c, 0, 69, 103
1, 41837, Note_on_c, 0, 66, 114
1, 41919, Note_off_c, 0, 66, 114
1, 41943, Note_on_c, 0, 67, 107
1, 42021, Note_off_c, 0, 67, 107
1, 42062, Note_on_c, 0, 71, 109
1, 42190, Note_off_c, 0, 71, 109
1, 42194, Note_on_c, 0, 69, 101
1, 42289, Note_off_c, 0, 69, 101
1, 42289, Note_on_c, 0, 67, 81
1, 42342, Note_off_c, 0, 67, 81
1, 42375, Note_on_c, 0, 68, 96
1, 42441, Note_off_c, 0, 68, 96
1, 42474, Note_on_c, 0, 71, 9
1, 42569, Note_off_c, 0, 71, 9
1, 42581, Note_on_c, 0, 69, 103
1, 42672, Note_off_c, 0, 69, 103
1, 42754, Note_on_c, 0, 69, 98
1, 42811, Note_off_c, 0, 69, 98
1, 42819, Note_on_c, 0, 67, 113
1, 42843, Note_off_c, 0, 67, 113
1, 42851, Note_on_c, 0, 66, 124
1, 42958, Note_off_c, 0, 66, 124
1, 42974, Note_on_c, 0, 69, 94
1, 43019, Note_off_c, 0, 69, 94
1, 43118, Note_on_c, 0, 62, 112
1, 43221, Note_off_c, 0, 62, 112
1, 43229, Note_on_c, 0, 59, 105
1, 43307, Note_off_c, 0, 59, 105
1, 43323, Note_on_c, 0, 57, 102
1, 43418, Note_on_c, 0, 58, 99
1, 43418, Note_off_c, 0, 57, 102
1, 43500, Note_off_c, 0, 58, 99
1, 43504, Note_on_c, 0, 60, 111
1, 43582, Note_off_c, 0, 60, 111
1, 43598, Note_on_c, 0, 61, 108
1, 43718, Note_off_c, 0, 61, 108
1, 43974, Note_on_c, 0, 66, 124
1, 44077, Note_off_c, 0, 66, 124
1, 44085, Note_on_c, 0, 65, 118
1, 44192, Note_off_c, 0, 65, 118
1, 44192, Note_on_c, 0, 64, 115
1, 44262, Note_on_c, 0, 62, 109
1, 44262, Note_off_c, 0, 64, 115
1, 44361, Note_off_c, 0, 62, 109
1, 44377, Note_on_c, 0, 63, 116
1, 44480, Note_off_c, 0, 63, 116
1, 44629, Note_on_c, 0, 60, 116
1, 44715, Note_off_c, 0, 60, 116
1, 44727, Note_on_c, 0, 55, 112
1, 44847, Note_off_c, 0, 55, 112
1, 45095, Note_on_c, 0, 58, 109
1, 45260, Note_off_c, 0, 58, 109
1, 45260, Note_on_c, 0, 56, 98
1, 45355, Note_off_c, 0, 56, 98
1, 45355, Note_on_c, 0, 53, 100
1, 45433, Note_off_c, 0, 53, 100
1, 45437, Note_on_c, 0, 60, 115
1, 45557, Note_off_c, 0, 60, 115
1, 45569, Note_on_c, 0, 63, 116
1, 45693, Note_off_c, 0, 63, 116
1, 46049, Note_on_c, 0, 45, 114
1, 46198, Note_off_c, 0, 45, 114
1, 46198, Note_on_c, 0, 52, 100
1, 46305, Note_off_c, 0, 52, 100
1, 46317, Note_on_c, 0, 55, 113
1, 46441, Note_off_c, 0, 55, 113
1, 46441, Note_on_c, 0, 52, 93
1, 46540, Note_off_c, 0, 52, 93
1, 46560, Note_on_c, 0, 54, 107
1, 46659, Note_off_c, 0, 54, 107
1, 46675, Note_on_c, 0, 57, 102
1, 46741, Note_off_c, 0, 57, 102
1, 46745, Note_on_c, 0, 60, 103
1, 46877, Note_off_c, 0, 60, 103
1, 46881, Note_on_c, 0, 64, 127
1, 46980, Note_off_c, 0, 64, 127
1, 47017, Note_on_c, 0, 66, 117
1, 47132, Note_off_c, 0, 66, 117
1, 47132, Note_on_c, 0, 71, 109
1, 47260, Note_off_c, 0, 71, 109
1, 47268, Note_on_c, 0, 70, 112
1, 47338, Note_off_c, 0, 70, 112
1, 47350, Note_on_c, 0, 69, 95
1, 47453, Note_off_c, 0, 69, 95
1, 47457, Note_on_c, 0, 65, 114
1, 47552, Note_off_c, 0, 65, 114
1, 47552, Note_on_c, 0, 62, 109
1, 47622, Note_off_c, 0, 62, 109
1, 47622, Note_on_c, 0, 58, 85
1, 47688, Note_off_c, 0, 58, 85
1, 47696, Note_on_c, 0, 61, 110
1, 47811, Note_off_c, 0, 61, 110
1, 47811, Note_on_c, 0, 64, 115
1, 47893, Note_on_c, 0, 62, 105
1, 47893, Note_off_c, 0, 64, 115
1, 47979, Note_off_c, 0, 62, 105
1, 47979, Note_on_c, 0, 60, 107
1, 48070, Note_off_c, 0, 60, 107
1, 48074, Note_on_c, 0, 59, 99
1, 48181, Note_off_c, 0, 59, 99
1, 48189, Note_on_c, 0, 62, 112
1, 48275, Note_off_c, 0, 62, 112
1, 48287, Note_on_c, 0, 65, 104
1, 48361, Note_off_c, 0, 65, 104
1, 48394, Note_on_c, 0, 68, 106
1, 48439, Note_off_c, 0, 68, 106
1, 48451, Note_on_c, 0, 65, 110
1, 48558, Note_off_c, 0, 65, 110
1, 48570, Note_on_c, 0, 66, 119
1, 48644, Note_on_c, 0, 67, 113
1, 48644, Note_off_c, 0, 66, 119
1, 48759, Note_off_c, 0, 67, 113
1, 48759, Note_on_c, 0, 65, 109
1, 48837, Note_off_c, 0, 65, 109
1, 48845, Note_on_c, 0, 64, 110
1, 48940, Note_off_c, 0, 64, 110
1, 48940, Note_on_c, 0, 60, 105
1, 49047, Note_off_c, 0, 60, 105
1, 49519, Note_on_c, 0, 70, 119
1, 49597, Note_off_c, 0, 70, 119
1, 49597, Note_on_c, 0, 72, 119
1, 49762, Note_off_c, 0, 72, 119
1, 49762, Note_on_c, 0, 70, 105
1, 49877, Note_off_c, 0, 70, 105
1, 49889, Note_on_c, 0, 68, 109
1, 50000, Note_off_c, 0, 68, 109
1, 50012, Note_on_c, 0, 67, 109
1, 50069, Note_off_c, 0, 67, 109
1, 50069, Note_on_c, 0, 65, 115
1, 50180, Note_off_c, 0, 65, 115
1, 50180, Note_on_c, 0, 62, 106
1, 50250, Note_off_c, 0, 62, 106
1, 50250, Note_on_c, 0, 63, 103
1, 50336, Note_off_c, 0, 63, 103
1, 50402, Note_on_c, 0, 64, 99
1, 50513, Note_off_c, 0, 64, 99
1, 50595, Note_on_c, 0, 64, 104
1, 50719, Note_off_c, 0, 64, 104
1, 50760, Note_on_c, 0, 64, 114
1, 50822, Note_off_c, 0, 64, 114
1, 50842, Note_on_c, 0, 65, 119
1, 50924, Note_off_c, 0, 65, 119
1, 50936, Note_on_c, 0, 64, 107
1, 51039, Note_off_c, 0, 64, 107
1, 51051, Note_on_c, 0, 60, 111
1, 51154, Note_off_c, 0, 60, 111
1, 51187, Note_on_c, 0, 55, 108
1, 51468, Note_off_c, 0, 55, 108
1, 51468, Note_on_c, 0, 58, 110
1, 51600, Note_off_c, 0, 58, 110
1, 51604, Note_on_c, 0, 60, 110
1, 51806, Note_off_c, 0, 60, 110
1, 51810, Note_on_c, 0, 58, 112
1, 51909, Note_off_c, 0, 58, 112
1, 51909, Note_on_c, 0, 56, 100
1, 52240, Note_off_c, 0, 56, 100
1, 52252, Note_on_c, 0, 66, 107
1, 52359, Note_off_c, 0, 66, 107
1, 52367, Note_on_c, 0, 67, 115
1, 52549, Note_off_c, 0, 67, 115
1, 52561, Note_on_c, 0, 68, 108
1, 52602, Note_off_c, 0, 68, 108
1, 52614, Note_on_c, 0, 67, 107
1, 52647, Note_off_c, 0, 67, 107
1, 52655, Note_on_c, 0, 65, 118
1, 52853, Note_off_c, 0, 65, 118
1, 53830, Note_on_c, 0, 71, 118
1, 53921, Note_off_c, 0, 71, 118
1, 53933, Note_on_c, 0, 72, 116
1, 54028, Note_off_c, 0, 72, 116
1, 54036, Note_on_c, 0, 71, 106
1, 54118, Note_off_c, 0, 71, 106
1, 54118, Note_on_c, 0, 69, 100
1, 54180, Note_off_c, 0, 69, 100
1, 54196, Note_on_c, 0, 67, 112
1, 54316, Note_off_c, 0, 67, 112
1, 54340, Note_on_c, 0, 64, 112
1, 54472, Note_off_c, 0, 64, 112
1, 54666, Note_on_c, 0, 58, 113
1, 54744, Note_off_c, 0, 58, 113
1, 54748, Note_on_c, 0, 60, 93
1, 54781, Note_off_c, 0, 60, 93
1, 54785, Note_on_c, 0, 62, 106
1, 54834, Note_off_c, 0, 62, 106
1, 54850, Note_on_c, 0, 66, 104
1, 54924, Note_off_c, 0, 66, 104
1, 54932, Note_on_c, 0, 73, 118
1, 55093, Note_off_c, 0, 73, 118
1, 55126, Note_on_c, 0, 71, 113
1, 55241, Note_off_c, 0, 71, 113
1, 55249, Note_on_c, 0, 69, 102
1, 55352, Note_off_c, 0, 69, 102
1, 55356, Note_on_c, 0, 68, 95
1, 55476, Note_off_c, 0, 68, 95
1, 55476, Note_on_c, 0, 64, 107
1, 55571, Note_off_c, 0, 64, 107
1, 55649, Note_on_c, 0, 70, 111
1, 55731, Note_off_c, 0, 70, 111
1, 55731, Note_on_c, 0, 72, 111
1, 56041, Note_off_c, 0, 72, 111
1, 56044, Note_on_c, 0, 70, 105
1, 56073, Note_off_c, 0, 70, 105
1, 56077, Note_on_c, 0, 68, 95
1, 56114, Note_off_c, 0, 68, 95
1, 56122, Note_on_c, 0, 67, 113
1, 56345, Note_off_c, 0, 67, 113
1, 56357, Note_on_c, 0, 65, 113
1, 56439, Note_off_c, 0, 65, 113
1, 56447, Note_on_c, 0, 63, 107
1, 56538, Note_off_c, 0, 63, 107
1, 56542, Note_on_c, 0, 60, 100
1, 56877, Note_off_c, 0, 60, 100
1, 57282, Note_on_c, 0, 70, 109
1, 57397, Note_off_c, 0, 70, 109
1, 57401, Note_on_c, 0, 67, 98
1, 57487, Note_off_c, 0, 67, 98
1, 57495, Note_on_c, 0, 68, 103
1, 57598, Note_off_c, 0, 68, 103
1, 57606, Note_on_c, 0, 70, 107
1, 57668, Note_off_c, 0, 70, 107
1, 57680, Note_on_c, 0, 68, 102
1, 57729, Note_off_c, 0, 68, 102
1, 57729, Note_on_c, 0, 67, 113
1, 57824, Note_off_c, 0, 67, 113
1, 57824, Note_on_c, 0, 65, 114
1, 57935, Note_off_c, 0, 65, 114
1, 58361, Note_on_c, 0, 69, 111
1, 58427, Note_off_c, 0, 69, 111
1, 58431, Note_on_c, 0, 71, 111
1, 58613, Note_off_c, 0, 71, 111
1, 58613, Note_on_c, 0, 74, 120
1, 58733, Note_off_c, 0, 74, 120
1, 58745, Note_on_c, 0, 73, 123
1, 58844, Note_off_c, 0, 73, 123
1, 58852, Note_on_c, 0, 72, 111
1, 58943, Note_off_c, 0, 72, 111
1, 58943, Note_on_c, 0, 71, 106
1, 59021, Note_off_c, 0, 71, 106
1, 59025, Note_on_c, 0, 69, 95
1, 59107, Note_off_c, 0, 69, 95
1, 59127, Note_on_c, 0, 67, 108
1, 59238, Note_off_c, 0, 67, 108
1, 59246, Note_on_c, 0, 66, 110
1, 59332, Note_on_c, 0, 64, 103
1, 59332, Note_off_c, 0, 66, 110
1, 59414, Note_off_c, 0, 64, 103
1, 59426, Note_on_c, 0, 62, 90
1, 59492, Note_off_c, 0, 62, 90
1, 59500, Note_on_c, 0, 64, 106
1, 59570, Note_off_c, 0, 64, 106
1, 59586, Note_on_c, 0, 65, 111
1, 59685, Note_off_c, 0, 65, 111
1, 59689, Note_on_c, 0, 67, 110
1, 59775, Note_off_c, 0, 67, 110
1, 59775, Note_on_c, 0, 64, 93
1, 59845, Note_off_c, 0, 64, 93
1, 59845, Note_on_c, 0, 65, 109
1, 59952, Note_off_c, 0, 65, 109
1, 59964, Note_on_c, 0, 62, 108
1, 60088, Note_off_c, 0, 62, 108
1, 60092, Note_on_c, 0, 64, 98
1, 60191, Note_off_c, 0, 64, 98
1, 60195, Note_on_c, 0, 65, 95
1, 60232, Note_on_c, 0, 67, 98
1, 60232, Note_off_c, 0, 65, 95
1, 60289, Note_off_c, 0, 67, 98
1, 60313, Note_on_c, 0, 70, 94
1, 60433, Note_off_c, 0, 70, 94
1, 60474, Note_on_c, 0, 68, 97
1, 60569, Note_off_c, 0, 68, 97
1, 60573, Note_on_c, 0, 66, 86
1, 60651, Note_off_c, 0, 66, 86
1, 60651, Note_on_c, 0, 63, 119
1, 60742, Note_off_c, 0, 63, 119
1, 60758, Note_on_c, 0, 60, 103
1, 60840, Note_off_c, 0, 60, 103
1, 60840, Note_on_c, 0, 58, 103
1, 60914, Note_off_c, 0, 58, 103
1, 60914, Note_on_c, 0, 56, 109
1, 61034, Note_off_c, 0, 56, 109
1, 61034, Note_on_c, 0, 55, 106
1, 61141, Note_off_c, 0, 55, 106
1, 61451, Note_on_c, 0, 64, 86
1, 61529, Note_off_c, 0, 64, 86
1, 61545, Note_on_c, 0, 65, 117
1, 61785, Note_off_c, 0, 65, 117
1, 61801, Note_on_c, 0, 63, 112
1, 62032, Note_off_c, 0, 63, 112
1, 62036, Note_on_c, 0, 60, 108
1, 62193, Note_off_c, 0, 60, 108
1, 62213, Note_on_c, 0, 56, 110
1, 62399, Note_off_c, 0, 56, 110
1, 62399, Note_on_c, 0, 53, 105
1, 62560, Note_off_c, 0, 53, 105
1, 62646, Note_on_c, 0, 55, 107
1, 62757, Note_off_c, 0, 55, 107
1, 62827, Note_on_c, 0, 64, 98
1, 62980, Note_off_c, 0, 64, 98
1, 63050, Note_on_c, 0, 64, 103
1, 63161, Note_off_c, 0, 64, 103
1, 63247, Note_on_c, 0, 64, 105
1, 63362, Note_off_c, 0, 64, 105
1, 63403, Note_on_c, 0, 64, 106
1, 63498, Note_off_c, 0, 64, 106
1, 63502, Note_on_c, 0, 67, 116
1, 63539, Note_off_c, 0, 67, 116
1, 63554, Note_on_c, 0, 64, 109
1, 63578, Note_off_c, 0, 64, 109
1, 63578, Note_on_c, 0, 62, 111
1, 63714, Note_off_c, 0, 62, 111
1, 63714, Note_on_c, 0, 60, 107
1, 63966, Note_off_c, 0, 60, 107
1, 64537, Note_on_c, 0, 55, 109
1, 64652, Note_off_c, 0, 55, 109
1, 64652, Note_on_c, 0, 58, 101
1, 64734, Note_off_c, 0, 58, 101
1, 64734, Note_on_c, 0, 60, 108
1, 64841, Note_off_c, 0, 60, 108
1, 64845, Note_on_c, 0, 63, 114
1, 64927, Note_off_c, 0, 63, 114
1, 64951, Note_on_c, 0, 67, 113
1, 65050, Note_off_c, 0, 67, 113
1, 65087, Note_on_c, 0, 67, 111
1, 65186, Note_off_c, 0, 67, 111
1, 65214, Note_on_c, 0, 65, 112
1, 65317, Note_off_c, 0, 65, 112
1, 65321, Note_on_c, 0, 67, 113
1, 65436, Note_off_c, 0, 67, 113
1, 65436, Note_on_c, 0, 65, 112
1, 65580, Note_off_c, 0, 65, 112
1, 66101, Note_on_c, 0, 64, 111
1, 66192, Note_off_c, 0, 64, 111
1, 66216, Note_on_c, 0, 69, 104
1, 66319, Note_off_c, 0, 69, 104
1, 66372, Note_on_c, 0, 62, 108
1, 66483, Note_off_c, 0, 62, 108
1, 66499, Note_on_c, 0, 67, 111
1, 66598, Note_off_c, 0, 67, 111
1, 66626, Note_on_c, 0, 60, 106
1, 66737, Note_off_c, 0, 60, 106
1, 66753, Note_on_c, 0, 65, 105
1, 66848, Note_off_c, 0, 65, 105
1, 66864, Note_on_c, 0, 64, 109
1, 67133, Note_off_c, 0, 64, 109
1, 67141, Note_on_c, 0, 62, 109
1, 67256, Note_off_c, 0, 62, 109
1, 67260, Note_on_c, 0, 61, 110
1, 67462, Note_off_c, 0, 61, 110
1, 67462, Note_on_c, 0, 59, 97
1, 67536, Note_off_c, 0, 59, 97
1, 67536, Note_on_c, 0, 57, 116
1, 67610, Note_off_c, 0, 57, 116
1, 67622, Note_on_c, 0, 58, 102
1, 67721, Note_off_c, 0, 58, 102
1, 67729, Note_on_c, 0, 60, 108
1, 67803, Note_off_c, 0, 60, 108
1, 67803, Note_on_c, 0, 61, 104
1, 67898, Note_off_c, 0, 61, 104
1, 67914, Note_on_c, 0, 63, 105
1, 67992, Note_off_c, 0, 63, 105
1, 68000, Note_on_c, 0, 65, 106
1, 68062, Note_off_c, 0, 65, 106
1, 68078, Note_on_c, 0, 67, 101
1, 68164, Note_off_c, 0, 67, 101
1, 68164, Note_on_c, 0, 72, 110
1, 68337, Note_off_c, 0, 72, 110
1, 68337, Note_on_c, 0, 70, 101
1, 68568, Note_off_c, 0, 70, 101
1, 68568, Note_on_c, 0, 67, 100
1, 68696, Note_off_c, 0, 67, 100
1, 68820, Note_on_c, 0, 70, 104
1, 69147, Note_off_c, 0, 70, 104
1, 69184, Note_on_c, 0, 67, 105
1, 69287, Note_off_c, 0, 67, 105
1, 69361, Note_on_c, 0, 63, 116
1, 69522, Note_off_c, 0, 63, 116
1, 69522, Note_on_c, 0, 60, 93
1, 69617, Note_off_c, 0, 60, 93
1, 70325, Note_on_c, 0, 69, 107
1, 70391, Note_off_c, 0, 69, 107
1, 70415, Note_on_c, 0, 71, 105
1, 70593, Note_off_c, 0, 71, 105
1, 70601, Note_on_c, 0, 69, 79
1, 70675, Note_off_c, 0, 69, 79
1, 70679, Note_on_c, 0, 67, 109
1, 70765, Note_off_c, 0, 67, 109
1, 70765, Note_on_c, 0, 66, 108
1, 70860, Note_off_c, 0, 66, 108
1, 70897, Note_on_c, 0, 64, 114
1, 70979, Note_off_c, 0, 64, 114
1, 70979, Note_on_c, 0, 62, 101
1, 71053, Note_off_c, 0, 62, 101
1, 71053, Note_on_c, 0, 61, 100
1, 71139, Note_off_c, 0, 61, 100
1, 71143, Note_on_c, 0, 60, 101
1, 71225, Note_off_c, 0, 60, 101
1, 71225, Note_on_c, 0, 59, 92
1, 71357, Note_off_c, 0, 59, 92
1, 71357, Note_on_c, 0, 57, 92
1, 71439, Note_off_c, 0, 57, 92
1, 71439, Note_on_c, 0, 55, 96
1, 71538, Note_off_c, 0, 55, 96
1, 71542, Note_on_c, 0, 53, 99
1, 71641, Note_off_c, 0, 53, 99
1, 71645, Note_on_c, 0, 64, 107
1, 71881, Note_off_c, 0, 64, 107
1, 71885, Note_on_c, 0, 62, 104
1, 72129, Note_off_c, 0, 62, 104
1, 72207, Note_on_c, 0, 67, 109
1, 72364, Note_off_c, 0, 67, 109
1, 73370, Note_on_c, 0, 62, 103
1, 73494, Note_off_c, 0, 62, 103
1, 73535, Note_on_c, 0, 61, 98
1, 73605, Note_off_c, 0, 61, 98
1, 73605, Note_on_c, 0, 60, 95
1, 73716, Note_off_c, 0, 60, 95
1, 73732, Note_on_c, 0, 65, 107
1, 73831, Note_off_c, 0, 65, 107
1, 73884, Note_on_c, 0, 64, 108
1, 73962, Note_off_c, 0, 64, 108
1, 73982, Note_on_c, 0, 63, 112
1, 74060, Note_off_c, 0, 63, 112
1, 74113, Note_on_c, 0, 58, 108
1, 74204, Note_off_c, 0, 58, 108
1, 74237, Note_on_c, 0, 57, 89
1, 74311, Note_off_c, 0, 57, 89
1, 74323, Note_on_c, 0, 56, 107
1, 74409, Note_off_c, 0, 56, 107
1, 74500, Note_on_c, 0, 62, 112
1, 74557, Note_off_c, 0, 62, 112
1, 74573, Note_on_c, 0, 63, 116
1, 74730, Note_off_c, 0, 63, 116
1, 74758, Note_on_c, 0, 59, 96
1, 74861, Note_off_c, 0, 59, 96
1, 74976, Note_on_c, 0, 62, 110
1, 75029, Note_off_c, 0, 62, 110
1, 75053, Note_on_c, 0, 62, 107
1, 75144, Note_off_c, 0, 62, 107
1, 75160, Note_on_c, 0, 59, 86
1, 75300, Note_off_c, 0, 59, 86
1, 75328, Note_on_c, 0, 62, 102
1, 75601, Note_off_c, 0, 62, 102
1, 75601, End_track
0, 0, End_of_file
