0, 0, Header, 1, 1, 192
1, 0, Start_track
1, 0, Title_t, "Melody"
1, 0, Tempo, 504201
1, 0, Key_signature, -4, "major"
1, 0, Time_signature, 4, 2, 24, 8
1, 2420, Note_on_c, 0, 80, 108
1, 2528, Note_off_c, 0, 80, 108
1, 2610, Note_on_c, 0, 78, 103
1, 2719, Note_off_c, 0, 78, 103
1, 2793, Note_on_c, 0, 75, 103
1, 2898, Note_off_c, 0, 75, 103
1, 2980, Note_on_c, 0, 73, 111
1, 3073, Note_off_c, 0, 73, 111
1, 3146, Note_on_c, 0, 68, 113
1, 3225, Note_off_c, 0, 68, 113
1, 3277, Note_on_c, 0, 72, 101
1, 3307, Note_off_c, 0, 72, 101
1, 3309, Note_on_c, 0, 73, 116
1, 3335, Note_off_c, 0, 73, 116
1, 3341, Note_on_c, 0, 72, 121
1, 3365, Note_off_c, 0, 72, 121
1, 3380, Note_on_c, 0, 71, 120
1, 3415, Note_off_c, 0, 71, 120
1, 3437, Note_on_c, 0, 68, 99
1, 3547, Note_off_c, 0, 68, 99
1, 3615, Note_on_c, 0, 70, 117
1, 3643, Note_off_c, 0, 70, 117
1, 3649, Note_on_c, 0, 72, 107
1, 3755, Note_off_c, 0, 72, 107
1, 3761, Note_on_c, 0, 70, 105
1, 3778, Note_off_c, 0, 70, 105
1, 3785, Note_on_c, 0, 72, 115
1, 3854, Note_off_c, 0, 72, 115
1, 4588, Note_on_c, 0, 65, 87
1, 4713, Note_off_c, 0, 65, 87
1, 4781, Note_on_c, 0, 77, 112
1, 4880, Note_off_c, 0, 77, 112
1, 4900, Note_on_c, 0, 75, 112
1, 4940, Note_off_c, 0, 75, 112
1, 4964, Note_on_c, 0, 70, 121
1, 5018, Note_off_c, 0, 70, 121
1, 5021, Note_on_c, 0, 71, 111
1, 5084, Note_off_c, 0, 71, 111
1, 5094, Note_on_c, 0, 68, 88
1, 5317, Note_off_c, 0, 68, 88
1, 5355, Note_on_c, 0, 65, 97
1, 5435, Note_off_c, 0, 65, 97
1, 5439, Note_on_c, 0, 64, 69
1, 5459, Note_off_c, 0, 64, 69
1, 6304, Note_on_c, 0, 82, 103
1, 6409, Note_off_c, 0, 82, 103
1, 6497, Note_on_c, 0, 81, 101
1, 6590, Note_off_c, 0, 81, 101
1, 6624, Note_on_c, 0, 80, 108
1, 6678, Note_off_c, 0, 80, 108
1, 6724, Note_on_c, 0, 77, 109
1, 6790, Note_off_c, 0, 77, 109
1, 6800, Note_on_c, 0, 76, 112
1, 6857, Note_off_c, 0, 76, 112
1, 6870, Note_on_c, 0, 75, 110
1, 6952, Note_off_c, 0, 75, 110
1, 6987, Note_on_c, 0, 71, 122
1, 7021, Note_off_c, 0, 71, 122
1, 7031, Note_on_c, 0, 72, 118
1, 7071, Note_off_c, 0, 72, 118
1, 7080, Note_on_c, 0, 68, 112
1, 7160, Note_off_c, 0, 68, 112
1, 7180, Note_on_c, 0, 67, 103
1, 7217, Note_off_c, 0, 67, 103
1, 7245, Note_on_c, 0, 66, 100
1, 7300, Note_off_c, 0, 66, 100
1, 7306, Note_on_c, 0, 70, 113
1, 7358, Note_off_c, 0, 70, 113
1, 7376, Note_on_c, 0, 73, 121
1, 7442, Note_off_c, 0, 73, 121
1, 7465, Note_on_c, 0, 77, 112
1, 7556, Note_off_c, 0, 77, 112
1, 7565, Note_on_c, 0, 80, 104
1, 7611, Note_off_c, 0, 80, 104
1, 7645, Note_on_c, 0, 75, 113
1, 7682, Note_off_c, 0, 75, 113
1, 7688, Note_on_c, 0, 76, 112
1, 7736, Note_off_c, 0, 76, 112
1, 7767, Note_on_c, 0, 75, 106
1, 7841, Note_off_c, 0, 75, 106
1, 7865, Note_on_c, 0, 70, 106
1, 7938, Note_off_c, 0, 70, 106
1, 7962, Note_on_c, 0, 65, 94
1, 7983, Note_off_c, 0, 65, 94
1, 8007, Note_on_c, 0, 68, 106
1, 8094, Note_off_c, 0, 68, 106
1, 8118, Note_on_c, 0, 70, 107
1, 8164, Note_off_c, 0, 70, 107
1, 8191, Note_on_c, 0, 64, 94
1, 8229, Note_off_c, 0, 64, 94
1, 8239, Note_on_c, 0, 65, 86
1, 8310, Note_off_c, 0, 65, 86
1, 8316, Note_on_c, 0, 68, 89
1, 8552, Note_off_c, 0, 68, 89
1, 9455, Note_on_c, 0, 63, 94
1, 9470, Note_off_c, 0, 63, 94
1, 9476, Note_on_c, 0, 64, 107
1, 9514, Note_off_c, 0, 64, 107
1, 9520, Note_on_c, 0, 65, 95
1, 9583, Note_off_c, 0, 65, 95
1, 9592, Note_on_c, 0, 68, 106
1, 9632, Note_off_c, 0, 68, 106
1, 9649, Note_on_c, 0, 70, 110
1, 9697, Note_off_c, 0, 70, 110
1, 9709, Note_on_c, 0, 71, 117
1, 9828, Note_off_c, 0, 71, 117
1, 9848, Note_on_c, 0, 65, 100
1, 9889, Note_off_c, 0, 65, 100
1, 9902, Note_on_c, 0, 70, 117
1, 9956, Note_off_c, 0, 70, 117
1, 9965, Note_on_c, 0, 71, 113
1, 10030, Note_off_c, 0, 71, 113
1, 10093, Note_on_c, 0, 68, 98
1, 10208, Note_off_c, 0, 68, 98
1, 10217, Note_on_c, 0, 70, 107
1, 10279, Note_off_c, 0, 70, 107
1, 10300, Note_on_c, 0, 68, 103
1, 10396, Note_off_c, 0, 68, 103
1, 10414, Note_on_c, 0, 65, 84
1, 10491, Note_off_c, 0, 65, 84
1, 10599, Note_on_c, 0, 70, 118
1, 10664, Note_off_c, 0, 70, 118
1, 10684, Note_on_c, 0, 68, 91
1, 10760, Note_off_c, 0, 68, 91
1, 10789, Note_on_c, 0, 70, 102
1, 11001, Note_off_c, 0, 70, 102
1, 11123, Note_on_c, 0, 65, 85
1, 11161, Note_off_c, 0, 65, 85
1, 11171, Note_on_c, 0, 68, 105
1, 11225, Note_off_c, 0, 68, 105
1, 11237, Note_on_c, 0, 70, 122
1, 11294, Note_off_c, 0, 70, 122
1, 11303, Note_on_c, 0, 71, 117
1, 11371, Note_off_c, 0, 71, 117
1, 11434, Note_on_c, 0, 70, 119
1, 11493, Note_off_c, 0, 70, 119
1, 11505, Note_on_c, 0, 71, 121
1, 11588, Note_off_c, 0, 71, 121
1, 11619, Note_on_c, 0, 68, 102
1, 11720, Note_off_c, 0, 68, 102
1, 11741, Note_on_c, 0, 70, 115
1, 11807, Note_off_c, 0, 70, 115
1, 11828, Note_on_c, 0, 68, 108
1, 11913, Note_off_c, 0, 68, 108
1, 11937, Note_on_c, 0, 65, 107
1, 11994, Note_off_c, 0, 65, 107
1, 12096, Note_on_c, 0, 72, 120
1, 12189, Note_off_c, 0, 72, 120
1, 12199, Note_on_c, 0, 70, 115
1, 12292, Note_off_c, 0, 70, 115
1, 12323, Note_on_c, 0, 67, 102
1, 12347, Note_off_c, 0, 67, 102
1, 12368, Note_on_c, 0, 69, 112
1, 12428, Note_off_c, 0, 69, 112
1, 12448, Note_on_c, 0, 65, 101
1, 12497, Note_off_c, 0, 65, 101
1, 12506, Note_on_c, 0, 64, 105
1, 12549, Note_off_c, 0, 64, 105
1, 12559, Note_on_c, 0, 63, 103
1, 12646, Note_off_c, 0, 63, 103
1, 12682, Note_on_c, 0, 60, 107
1, 12743, Note_off_c, 0, 60, 107
1, 12756, Note_on_c, 0, 62, 96
1, 12925, Note_off_c, 0, 62, 96
1, 12938, Note_on_c, 0, 65, 103
1, 12993, Note_off_c, 0, 65, 103
1, 13010, Note_on_c, 0, 68, 111
1, 13058, Note_off_c, 0, 68, 111
1, 13068, Note_on_c, 0, 71, 116
1, 13119, Note_off_c, 0, 71, 116
1, 13134, Note_on_c, 0, 67, 92
1, 13232, Note_off_c, 0, 67, 92
1, 13261, Note_on_c, 0, 65, 85
1, 13507, Note_off_c, 0, 65, 85
1, 13949, Note_on_c, 0, 64, 115
1, 14000, Note_off_c, 0, 64, 115
1, 14017, Note_on_c, 0, 65, 115
1, 14083, Note_off_c, 0, 65, 115
1, 14088, Note_on_c, 0, 67, 113
1, 14133, Note_off_c, 0, 67, 113
1, 14140, Note_on_c, 0, 68, 122
1, 14197, Note_off_c, 0, 68, 122
1, 14213, Note_on_c, 0, 69, 125
1, 14270, Note_off_c, 0, 69, 125
1, 14274, Note_on_c, 0, 70, 122
1, 14330, Note_off_c, 0, 70, 122
1, 14352, Note_on_c, 0, 73, 121
1, 14408, Note_off_c, 0, 73, 121
1, 14416, Note_on_c, 0, 74, 113
1, 14483, Note_off_c, 0, 74, 113
1, 14489, Note_on_c, 0, 76, 113
1, 14546, Note_off_c, 0, 76, 113
1, 14553, Note_on_c, 0, 77, 109
1, 14598, Note_off_c, 0, 77, 109
1, 14634, Note_on_c, 0, 79, 110
1, 14684, Note_off_c, 0, 79, 110
1, 14691, Note_on_c, 0, 80, 101
1, 14745, Note_off_c, 0, 80, 101
1, 14774, Note_on_c, 0, 83, 117
1, 14832, Note_off_c, 0, 83, 117
1, 14835, Note_on_c, 0, 84, 116
1, 14900, Note_off_c, 0, 84, 116
1, 15393, Note_on_c, 0, 80, 107
1, 15507, Note_off_c, 0, 80, 107
1, 15525, Note_on_c, 0, 75, 94
1, 15581, Note_off_c, 0, 75, 94
1, 15594, Note_on_c, 0, 80, 101
1, 15725, Note_off_c, 0, 80, 101
1, 15784, Note_on_c, 0, 80, 91
1, 15939, Note_off_c, 0, 80, 91
1, 15974, Note_on_c, 0, 80, 97
1, 16121, Note_off_c, 0, 80, 97
1, 16169, Note_on_c, 0, 80, 91
1, 16313, Note_off_c, 0, 80, 91
1, 16354, Note_on_c, 0, 80, 101
1, 16496, Note_off_c, 0, 80, 101
1, 16551, Note_on_c, 0, 80, 97
1, 16706, Note_off_c, 0, 80, 97
1, 16743, Note_on_c, 0, 80, 102
1, 16898, Note_off_c, 0, 80, 102
1, 16930, Note_on_c, 0, 80, 102
1, 17031, Note_off_c, 0, 80, 102
1, 17068, Note_on_c, 0, 75, 114
1, 17137, Note_off_c, 0, 75, 114
1, 17157, Note_on_c, 0, 71, 115
1, 17247, Note_off_c, 0, 71, 115
1, 17257, Note_on_c, 0, 68, 98
1, 17315, Note_off_c, 0, 68, 98
1, 17340, Note_on_c, 0, 71, 123
1, 17426, Note_off_c, 0, 71, 123
1, 17433, Note_on_c, 0, 72, 126
1, 17513, Note_off_c, 0, 72, 126
1, 17530, Note_on_c, 0, 73, 116
1, 17627, Note_off_c, 0, 73, 116
1, 17640, Note_on_c, 0, 74, 114
1, 17731, Note_off_c, 0, 74, 114
1, 17755, Note_on_c, 0, 73, 120
1, 17800, Note_off_c, 0, 73, 120
1, 17805, Note_on_c, 0, 74, 120
1, 17860, Note_off_c, 0, 74, 120
1, 17886, Note_on_c, 0, 73, 117
1, 17928, Note_off_c, 0, 73, 117
1, 17930, Note_on_c, 0, 74, 119
1, 17975, Note_off_c, 0, 74, 119
1, 18008, Note_on_c, 0, 74, 117
1, 18090, Note_off_c, 0, 74, 117
1, 18097, Note_on_c, 0, 73, 112
1, 18157, Note_off_c, 0, 73, 112
1, 18175, Note_on_c, 0, 71, 114
1, 18266, Note_off_c, 0, 71, 114
1, 18282, Note_on_c, 0, 68, 104
1, 18362, Note_off_c, 0, 68, 104
1, 18387, Note_on_c, 0, 77, 105
1, 18459, Note_off_c, 0, 77, 105
1, 18474, Note_on_c, 0, 75, 114
1, 18541, Note_off_c, 0, 75, 114
1, 18550, Note_on_c, 0, 70, 122
1, 18582, Note_off_c, 0, 70, 122
1, 18587, Note_on_c, 0, 71, 109
1, 18629, Note_off_c, 0, 71, 109
1, 18645, Note_on_c, 0, 68, 103
1, 18677, Note_off_c, 0, 68, 103
1, 18706, Note_on_c, 0, 67, 98
1, 18742, Note_off_c, 0, 67, 98
1, 18774, Note_on_c, 0, 63, 96
1, 18809, Note_off_c, 0, 63, 96
1, 18843, Note_on_c, 0, 58, 97
1, 18911, Note_off_c, 0, 58, 97
1, 18930, Note_on_c, 0, 64, 97
1, 18955, Note_off_c, 0, 64, 97
1, 18962, Note_on_c, 0, 65, 97
1, 18990, Note_off_c, 0, 65, 97
1, 19011, Note_on_c, 0, 63, 80
1, 19411, Note_off_c, 0, 63, 80
1, 19964, Note_on_c, 0, 75, 113
1, 20003, Note_off_c, 0, 75, 113
1, 20008, Note_on_c, 0, 77, 107
1, 20083, Note_off_c, 0, 77, 107
1, 20100, Note_on_c, 0, 80, 106
1, 20164, Note_off_c, 0, 80, 106
1, 20186, Note_on_c, 0, 75, 116
1, 20216, Note_off_c, 0, 75, 116
1, 20220, Note_on_c, 0, 76, 114
1, 20269, Note_off_c, 0, 76, 114
1, 20281, Note_on_c, 0, 75, 112
1, 20348, Note_off_c, 0, 75, 112
1, 20372, Note_on_c, 0, 70, 112
1, 20471, Note_off_c, 0, 70, 112
1, 20485, Note_on_c, 0, 68, 92
1, 20713, Note_off_c, 0, 68, 92
1, 20739, Note_on_c, 0, 65, 97
1, 20810, Note_off_c, 0, 65, 97
1, 20815, Note_on_c, 0, 64, 84
1, 20843, Note_off_c, 0, 64, 84
1, 21437, Note_on_c, 0, 70, 124
1, 21493, Note_off_c, 0, 70, 124
1, 21497, Note_on_c, 0, 71, 127
1, 21627, Note_off_c, 0, 71, 127
1, 21683, Note_on_c, 0, 70, 122
1, 21755, Note_off_c, 0, 70, 122
1, 21759, Note_on_c, 0, 71, 114
1, 21858, Note_off_c, 0, 71, 114
1, 21869, Note_on_c, 0, 68, 97
1, 21975, Note_off_c, 0, 68, 97
1, 22622, Note_on_c, 0, 70, 118
1, 22672, Note_off_c, 0, 70, 118
1, 22676, Note_on_c, 0, 71, 123
1, 22751, Note_off_c, 0, 71, 123
1, 22762, Note_on_c, 0, 68, 99
1, 22843, Note_off_c, 0, 68, 99
1, 22861, Note_on_c, 0, 71, 125
1, 22960, Note_off_c, 0, 71, 125
1, 22992, Note_on_c, 0, 73, 117
1, 23056, Note_off_c, 0, 73, 117
1, 23065, Note_on_c, 0, 74, 118
1, 23131, Note_off_c, 0, 74, 118
1, 23140, Note_on_c, 0, 73, 114
1, 23204, Note_off_c, 0, 73, 114
1, 23657, Note_on_c, 0, 68, 107
1, 23724, Note_off_c, 0, 68, 107
1, 23743, Note_on_c, 0, 71, 124
1, 23820, Note_off_c, 0, 71, 124
1, 23865, Note_on_c, 0, 73, 120
1, 23929, Note_off_c, 0, 73, 120
1, 23938, Note_on_c, 0, 74, 113
1, 24033, Note_off_c, 0, 74, 113
1, 24039, Note_on_c, 0, 73, 75
1, 24068, Note_off_c, 0, 73, 75
1, 24300, Note_on_c, 0, 70, 114
1, 24475, Note_off_c, 0, 70, 114
1, 24497, Note_on_c, 0, 68, 109
1, 24524, Note_off_c, 0, 68, 109
1, 24532, Note_on_c, 0, 69, 113
1, 24586, Note_off_c, 0, 69, 113
1, 24598, Note_on_c, 0, 68, 107
1, 24632, Note_off_c, 0, 68, 107
1, 24691, Note_on_c, 0, 65, 94
1, 24740, Note_off_c, 0, 65, 94
1, 24762, Note_on_c, 0, 68, 100
1, 24870, Note_off_c, 0, 68, 100
1, 24950, Note_on_c, 0, 70, 105
1, 24984, Note_off_c, 0, 70, 105
1, 24991, Note_on_c, 0, 71, 116
1, 25031, Note_off_c, 0, 71, 116
1, 25033, Note_on_c, 0, 72, 114
1, 25110, Note_off_c, 0, 72, 114
1, 25139, Note_on_c, 0, 65, 90
1, 25238, Note_off_c, 0, 65, 90
1, 25324, Note_on_c, 0, 68, 89
1, 25589, Note_off_c, 0, 68, 89
1, 26049, Note_on_c, 0, 80, 102
1, 26784, Note_off_c, 0, 80, 102
1, 26871, Note_on_c, 0, 80, 98
1, 27004, Note_off_c, 0, 80, 98
1, 27021, Note_on_c, 0, 80, 103
1, 27075, Note_off_c, 0, 80, 103
1, 27588, Note_on_c, 0, 83, 116
1, 27739, Note_off_c, 0, 83, 116
1, 27816, Note_on_c, 0, 83, 116
1, 27948, Note_off_c, 0, 83, 116
1, 28004, Note_on_c, 0, 80, 99
1, 28087, Note_off_c, 0, 80, 99
1, 28114, Note_on_c, 0, 78, 100
1, 28176, Note_off_c, 0, 78, 100
1, 28201, Note_on_c, 0, 75, 104
1, 28295, Note_off_c, 0, 75, 104
1, 28309, Note_on_c, 0, 73, 111
1, 28400, Note_off_c, 0, 73, 111
1, 28427, Note_on_c, 0, 71, 120
1, 28535, Note_off_c, 0, 71, 120
1, 28574, Note_on_c, 0, 68, 93
1, 28675, Note_off_c, 0, 68, 93
1, 28688, Note_on_c, 0, 70, 110
1, 28733, Note_off_c, 0, 70, 110
1, 28739, Note_on_c, 0, 71, 125
1, 28791, Note_off_c, 0, 71, 125
1, 28808, Note_on_c, 0, 68, 93
1, 28861, Note_off_c, 0, 68, 93
1, 28874, Note_on_c, 0, 71, 122
1, 28951, Note_off_c, 0, 71, 122
1, 28955, Note_on_c, 0, 72, 121
1, 29053, Note_off_c, 0, 72, 121
1, 29069, Note_on_c, 0, 73, 120
1, 29164, Note_off_c, 0, 73, 120
1, 29179, Note_on_c, 0, 74, 116
1, 29262, Note_off_c, 0, 74, 116
1, 29273, Note_on_c, 0, 75, 108
1, 29338, Note_off_c, 0, 75, 108
1, 29365, Note_on_c, 0, 71, 113
1, 29403, Note_off_c, 0, 71, 113
1, 29406, Note_on_c, 0, 72, 109
1, 29461, Note_off_c, 0, 72, 109
1, 29472, Note_on_c, 0, 68, 107
1, 29526, Note_off_c, 0, 68, 107
1, 29547, Note_on_c, 0, 63, 95
1, 29602, Note_off_c, 0, 63, 95
1, 29610, Note_on_c, 0, 60, 94
1, 29634, Note_off_c, 0, 60, 94
1, 29635, Note_on_c, 0, 61, 91
1, 29673, Note_off_c, 0, 61, 91
1, 29679, Note_on_c, 0, 57, 97
1, 29727, Note_off_c, 0, 57, 97
1, 29740, Note_on_c, 0, 59, 100
1, 29785, Note_off_c, 0, 59, 100
1, 29790, Note_on_c, 0, 60, 90
1, 29836, Note_off_c, 0, 60, 90
1, 29858, Note_on_c, 0, 63, 105
1, 29938, Note_off_c, 0, 63, 105
1, 29958, Note_on_c, 0, 63, 98
1, 29975, Note_off_c, 0, 63, 98
1, 29982, Note_on_c, 0, 64, 106
1, 30002, Note_off_c, 0, 64, 106
1, 30006, Note_on_c, 0, 65, 98
1, 30075, Note_off_c, 0, 65, 98
1, 30092, Note_on_c, 0, 68, 93
1, 30205, Note_off_c, 0, 68, 93
1, 30219, Note_on_c, 0, 70, 115
1, 30257, Note_off_c, 0, 70, 115
1, 30264, Note_on_c, 0, 72, 119
1, 30333, Note_off_c, 0, 72, 119
1, 30340, Note_on_c, 0, 75, 110
1, 30469, Note_off_c, 0, 75, 110
1, 30486, Note_on_c, 0, 76, 108
1, 30523, Note_off_c, 0, 76, 108
1, 30526, Note_on_c, 0, 77, 102
1, 30599, Note_off_c, 0, 77, 102
1, 30623, Note_on_c, 0, 80, 103
1, 30700, Note_off_c, 0, 80, 103
1, 30731, Note_on_c, 0, 75, 104
1, 30768, Note_off_c, 0, 75, 104
1, 30774, Note_on_c, 0, 77, 103
1, 30825, Note_off_c, 0, 77, 103
1, 30873, Note_on_c, 0, 75, 107
1, 30943, Note_off_c, 0, 75, 107
1, 30992, Note_on_c, 0, 71, 116
1, 31076, Note_off_c, 0, 71, 116
1, 31091, Note_on_c, 0, 70, 107
1, 31199, Note_off_c, 0, 70, 107
1, 31219, Note_on_c, 0, 70, 94
1, 31675, Note_off_c, 0, 70, 94
1, 32241, Note_on_c, 0, 70, 116
1, 32381, Note_off_c, 0, 70, 116
1, 32419, Note_on_c, 0, 65, 98
1, 32529, Note_off_c, 0, 65, 98
1, 32538, Note_on_c, 0, 70, 114
1, 32607, Note_off_c, 0, 70, 114
1, 32612, Note_on_c, 0, 68, 108
1, 32696, Note_off_c, 0, 68, 108
1, 32739, Note_on_c, 0, 60, 98
1, 32799, Note_off_c, 0, 60, 98
1, 32801, Note_on_c, 0, 61, 91
1, 32854, Note_off_c, 0, 61, 91
1, 32866, Note_on_c, 0, 65, 89
1, 32899, Note_off_c, 0, 65, 89
1, 32910, Note_on_c, 0, 68, 110
1, 33007, Note_off_c, 0, 68, 110
1, 33026, Note_on_c, 0, 70, 108
1, 33054, Note_off_c, 0, 70, 108
1, 33062, Note_on_c, 0, 72, 118
1, 33143, Note_off_c, 0, 72, 118
1, 33173, Note_on_c, 0, 68, 109
1, 33264, Note_off_c, 0, 68, 109
1, 33309, Note_on_c, 0, 65, 89
1, 33360, Note_off_c, 0, 65, 89
1, 33369, Note_on_c, 0, 70, 112
1, 33482, Note_off_c, 0, 70, 112
1, 33498, Note_on_c, 0, 65, 75
1, 33542, Note_off_c, 0, 65, 75
1, 33558, Note_on_c, 0, 68, 87
1, 33805, Note_off_c, 0, 68, 87
1, 34252, Note_on_c, 0, 69, 109
1, 34321, Note_off_c, 0, 69, 109
1, 34330, Note_on_c, 0, 73, 117
1, 34441, Note_off_c, 0, 73, 117
1, 34453, Note_on_c, 0, 77, 110
1, 34521, Note_off_c, 0, 77, 110
1, 34540, Note_on_c, 0, 80, 101
1, 34642, Note_off_c, 0, 80, 101
1, 34712, Note_on_c, 0, 70, 80
1, 34895, Note_off_c, 0, 70, 80
1, 34916, Note_on_c, 0, 73, 95
1, 35069, Note_off_c, 0, 73, 95
1, 35111, Note_on_c, 0, 76, 108
1, 35172, Note_off_c, 0, 76, 108
1, 35178, Note_on_c, 0, 77, 93
1, 35231, Note_off_c, 0, 77, 93
1, 35245, Note_on_c, 0, 73, 111
1, 35312, Note_off_c, 0, 73, 111
1, 35813, Note_on_c, 0, 65, 94
1, 35867, Note_off_c, 0, 65, 94
1, 35883, Note_on_c, 0, 68, 99
1, 35989, Note_off_c, 0, 68, 99
1, 36002, Note_on_c, 0, 72, 121
1, 36090, Note_off_c, 0, 72, 121
1, 36102, Note_on_c, 0, 77, 109
1, 36189, Note_off_c, 0, 77, 109
1, 36255, Note_on_c, 0, 65, 83
1, 36356, Note_off_c, 0, 65, 83
1, 36439, Note_on_c, 0, 68, 103
1, 36568, Note_off_c, 0, 68, 103
1, 36598, Note_on_c, 0, 65, 76
1, 36625, Note_off_c, 0, 65, 76
1, 36632, Note_on_c, 0, 68, 97
1, 36759, Note_off_c, 0, 68, 97
1, 36774, Note_on_c, 0, 71, 115
1, 36806, Note_off_c, 0, 71, 115
1, 36806, Note_on_c, 0, 72, 114
1, 36873, Note_off_c, 0, 72, 114
1, 36891, Note_on_c, 0, 69, 104
1, 36939, Note_off_c, 0, 69, 104
1, 36959, Note_on_c, 0, 65, 97
1, 37006, Note_off_c, 0, 65, 97
1, 37015, Note_on_c, 0, 63, 89
1, 37132, Note_off_c, 0, 63, 89
1, 37163, Note_on_c, 0, 62, 99
1, 37393, Note_off_c, 0, 62, 99
1, 37593, Note_on_c, 0, 65, 102
1, 37697, Note_off_c, 0, 65, 102
1, 37702, Note_on_c, 0, 68, 122
1, 37799, Note_off_c, 0, 68, 122
1, 37809, Note_on_c, 0, 72, 121
1, 37906, Note_off_c, 0, 72, 121
1, 37918, Note_on_c, 0, 77, 109
1, 37980, Note_off_c, 0, 77, 109
1, 37988, Note_on_c, 0, 72, 111
1, 38120, Note_off_c, 0, 72, 111
1, 38179, Note_on_c, 0, 65, 83
1, 38258, Note_off_c, 0, 65, 83
1, 38284, Note_on_c, 0, 68, 111
1, 38360, Note_off_c, 0, 68, 111
1, 38383, Note_on_c, 0, 70, 107
1, 38404, Note_off_c, 0, 70, 107
1, 38412, Note_on_c, 0, 72, 119
1, 38506, Note_off_c, 0, 72, 119
1, 38532, Note_on_c, 0, 70, 109
1, 38561, Note_off_c, 0, 70, 109
1, 38566, Note_on_c, 0, 72, 116
1, 38656, Note_off_c, 0, 72, 116
1, 38666, Note_on_c, 0, 70, 106
1, 38686, Note_off_c, 0, 70, 106
1, 38689, Note_on_c, 0, 72, 114
1, 38757, Note_off_c, 0, 72, 114
1, 38788, Note_on_c, 0, 65, 86
1, 38853, Note_off_c, 0, 65, 86
1, 38869, Note_on_c, 0, 70, 95
1, 39115, Note_off_c, 0, 70, 95
1, 39142, Note_on_c, 0, 65, 87
1, 39198, Note_off_c, 0, 65, 87
1, 39204, Note_on_c, 0, 64, 82
1, 39233, Note_off_c, 0, 64, 82
1, 40110, Note_on_c, 0, 68, 110
1, 40226, Note_off_c, 0, 68, 110
1, 40230, Note_on_c, 0, 67, 98
1, 40277, Note_off_c, 0, 67, 98
1, 40291, Note_on_c, 0, 73, 96
1, 40356, Note_off_c, 0, 73, 96
1, 40365, Note_on_c, 0, 74, 111
1, 40393, Note_off_c, 0, 74, 111
1, 40404, Note_on_c, 0, 75, 107
1, 41770, Note_off_c, 0, 75, 107
1, 41798, Note_on_c, 0, 80, 103
1, 41873, Note_off_c, 0, 80, 103
1, 41912, Note_on_c, 0, 75, 99
1, 42345, Note_off_c, 0, 75, 99
1, 42351, Note_on_c, 0, 74, 90
1, 42381, Note_off_c, 0, 74, 90
1, 42389, Note_on_c, 0, 71, 105
1, 42455, Note_off_c, 0, 71, 105
1, 42470, Note_on_c, 0, 68, 100
1, 42529, Note_off_c, 0, 68, 100
1, 42539, Note_on_c, 0, 72, 111
1, 42565, Note_off_c, 0, 72, 111
1, 42566, Note_on_c, 0, 73, 114
1, 42603, Note_off_c, 0, 73, 114
1, 42609, Note_on_c, 0, 75, 111
1, 42654, Note_off_c, 0, 75, 111
1, 42672, Note_on_c, 0, 71, 116
1, 42724, Note_off_c, 0, 71, 116
1, 42733, Note_on_c, 0, 72, 107
1, 42785, Note_off_c, 0, 72, 107
1, 42792, Note_on_c, 0, 68, 101
1, 42849, Note_off_c, 0, 68, 101
1, 42867, Note_on_c, 0, 63, 96
1, 42910, Note_off_c, 0, 63, 96
1, 42934, Note_on_c, 0, 61, 94
1, 42983, Note_off_c, 0, 61, 94
1, 43069, Note_on_c, 0, 59, 98
1, 43103, Note_off_c, 0, 59, 98
1, 43111, Note_on_c, 0, 60, 91
1, 43176, Note_off_c, 0, 60, 91
1, 43183, Note_on_c, 0, 63, 92
1, 43286, Note_off_c, 0, 63, 92
1, 43309, Note_on_c, 0, 65, 98
1, 43359, Note_off_c, 0, 65, 98
1, 43370, Note_on_c, 0, 68, 92
1, 43391, Note_off_c, 0, 68, 92
1, 43406, Note_on_c, 0, 70, 117
1, 43491, Note_off_c, 0, 70, 117
1, 43500, Note_on_c, 0, 69, 98
1, 43529, Note_off_c, 0, 69, 98
1, 43533, Note_on_c, 0, 70, 112
1, 43673, Note_off_c, 0, 70, 112
1, 43702, Note_on_c, 0, 70, 108
1, 43751, Note_off_c, 0, 70, 108
1, 43763, Note_on_c, 0, 65, 86
1, 43873, Note_off_c, 0, 65, 86
1, 44147, Note_on_c, 0, 70, 114
1, 44269, Note_off_c, 0, 70, 114
1, 44337, Note_on_c, 0, 70, 118
1, 44454, Note_off_c, 0, 70, 118
1, 44478, Note_on_c, 0, 70, 117
1, 44555, Note_off_c, 0, 70, 117
1, 44602, Note_on_c, 0, 64, 92
1, 44678, Note_off_c, 0, 64, 92
1, 44733, Note_on_c, 0, 70, 118
1, 44843, Note_off_c, 0, 70, 118
1, 44872, Note_on_c, 0, 65, 86
1, 44900, Note_off_c, 0, 65, 86
1, 44906, Note_on_c, 0, 68, 9
1, 45096, Note_off_c, 0, 68, 9
1, 45119, Note_on_c, 0, 63, 95
1, 45173, Note_off_c, 0, 63, 95
1, 45199, Note_on_c, 0, 60, 78
1, 45232, Note_off_c, 0, 60, 78
1, 45245, Note_on_c, 0, 61, 84
1, 45283, Note_off_c, 0, 61, 84
1, 45317, Note_on_c, 0, 70, 112
1, 45426, Note_off_c, 0, 70, 112
1, 45442, Note_on_c, 0, 68, 88
1, 45676, Note_off_c, 0, 68, 88
1, 46456, Note_on_c, 0, 83, 115
1, 46609, Note_off_c, 0, 83, 115
1, 46635, Note_on_c, 0, 83, 113
1, 46827, Note_off_c, 0, 83, 113
1, 46853, Note_on_c, 0, 80, 105
1, 46966, Note_off_c, 0, 80, 105
1, 46978, Note_on_c, 0, 78, 103
1, 47039, Note_off_c, 0, 78, 103
1, 47053, Note_on_c, 0, 75, 113
1, 47154, Note_off_c, 0, 75, 113
1, 47169, Note_on_c, 0, 73, 116
1, 47233, Note_off_c, 0, 73, 116
1, 47260, Note_on_c, 0, 71, 119
1, 47382, Note_off_c, 0, 71, 119
1, 47425, Note_on_c, 0, 71, 115
1, 47546, Note_off_c, 0, 71, 115
1, 47560, Note_on_c, 0, 70, 102
1, 47826, Note_off_c, 0, 70, 102
1, 47947, Note_on_c, 0, 68, 110
1, 48013, Note_off_c, 0, 68, 110
1, 48030, Note_on_c, 0, 71, 119
1, 48065, Note_off_c, 0, 71, 119
1, 48073, Note_on_c, 0, 72, 118
1, 48132, Note_off_c, 0, 72, 118
1, 48145, Note_on_c, 0, 75, 116
1, 48206, Note_off_c, 0, 75, 116
1, 48221, Note_on_c, 0, 77, 107
1, 48307, Note_off_c, 0, 77, 107
1, 48320, Note_on_c, 0, 75, 111
1, 48384, Note_off_c, 0, 75, 111
1, 48428, Note_on_c, 0, 78, 104
1, 48495, Note_off_c, 0, 78, 104
1, 48517, Note_on_c, 0, 75, 112
1, 48582, Note_off_c, 0, 75, 112
1, 48594, Note_on_c, 0, 72, 117
1, 48684, Note_off_c, 0, 72, 117
1, 48698, Note_on_c, 0, 70, 116
1, 48780, Note_off_c, 0, 70, 116
1, 48793, Note_on_c, 0, 69, 102
1, 48937, Note_off_c, 0, 69, 102
1, 48959, Note_on_c, 0, 72, 123
1, 49017, Note_off_c, 0, 72, 123
1, 49031, Note_on_c, 0, 75, 119
1, 49086, Note_off_c, 0, 75, 119
1, 49091, Note_on_c, 0, 77, 110
1, 49179, Note_off_c, 0, 77, 110
1, 49192, Note_on_c, 0, 78, 108
1, 49241, Note_off_c, 0, 78, 108
1, 49249, Note_on_c, 0, 80, 104
1, 49294, Note_off_c, 0, 80, 104
1, 49305, Note_on_c, 0, 77, 109
1, 49377, Note_off_c, 0, 77, 109
1, 49398, Note_on_c, 0, 75, 114
1, 49459, Note_off_c, 0, 75, 114
1, 49465, Note_on_c, 0, 77, 108
1, 49500, Note_off_c, 0, 77, 108
1, 49521, Note_on_c, 0, 74, 110
1, 49622, Note_off_c, 0, 74, 110
1, 49656, Note_on_c, 0, 65, 94
1, 49705, Note_off_c, 0, 65, 94
1, 49722, Note_on_c, 0, 68, 99
1, 49845, Note_off_c, 0, 68, 99
1, 49850, Note_on_c, 0, 70, 109
1, 49871, Note_off_c, 0, 70, 109
1, 49880, Note_on_c, 0, 72, 102
1, 50201, Note_off_c, 0, 72, 102
1, 50449, Note_on_c, 0, 80, 104
1, 50619, Note_off_c, 0, 80, 104
1, 50702, Note_on_c, 0, 80, 101
1, 50803, Note_off_c, 0, 80, 101
1, 50823, Note_on_c, 0, 75, 112
1, 50864, Note_off_c, 0, 75, 112
1, 50882, Note_on_c, 0, 71, 105
1, 51005, Note_off_c, 0, 71, 105
1, 51056, Note_on_c, 0, 70, 105
1, 51260, Note_off_c, 0, 70, 105
1, 51268, Note_on_c, 0, 65, 96
1, 51380, Note_off_c, 0, 65, 96
1, 51440, Note_on_c, 0, 68, 97
1, 51619, Note_off_c, 0, 68, 97
1, 51653, Note_on_c, 0, 65, 93
1, 51751, Note_off_c, 0, 65, 93
1, 51779, Note_on_c, 0, 68, 112
1, 51860, Note_off_c, 0, 68, 112
1, 51881, Note_on_c, 0, 72, 120
1, 51989, Note_off_c, 0, 72, 120
1, 52014, Note_on_c, 0, 75, 109
1, 52083, Note_off_c, 0, 75, 109
1, 52094, Note_on_c, 0, 72, 115
1, 52163, Note_off_c, 0, 72, 115
1, 52177, Note_on_c, 0, 70, 118
1, 52245, Note_off_c, 0, 70, 118
1, 52256, Note_on_c, 0, 67, 101
1, 52282, Note_off_c, 0, 67, 101
1, 52292, Note_on_c, 0, 69, 112
1, 52351, Note_off_c, 0, 69, 112
1, 52357, Note_on_c, 0, 72, 108
1, 52422, Note_off_c, 0, 72, 108
1, 52427, Note_on_c, 0, 66, 88
1, 52549, Note_off_c, 0, 66, 88
1, 52600, Note_on_c, 0, 65, 75
1, 52777, Note_off_c, 0, 65, 75
1, 52777, End_track
0, 0, End_of_file
