0, 0, Header, 1, 1, 192
1, 0, Start_track
1, 0, Title_t, "Melody"
1, 0, Tempo, 285714
1, 0, Key_signature, -2, "major"
1, 0, Time_signature, 4, 2, 24, 8
1, 1824, Note_on_c, 0, 70, 114
1, 1917, Note_off_c, 0, 70, 114
1, 2010, Note_on_c, 0, 70, 116
1, 2097, Note_off_c, 0, 70, 116
1, 2190, Note_on_c, 0, 70, 118
1, 2332, Note_off_c, 0, 70, 118
1, 2458, Note_on_c, 0, 72, 122
1, 2551, Note_off_c, 0, 72, 122
1, 2561, Note_on_c, 0, 73, 122
1, 2643, Note_off_c, 0, 73, 122
1, 2692, Note_on_c, 0, 67, 100
1, 2807, Note_off_c, 0, 67, 100
1, 2845, Note_on_c, 0, 70, 117
1, 2932, Note_off_c, 0, 70, 117
1, 2937, Note_on_c, 0, 69, 92
1, 3019, Note_off_c, 0, 69, 92
1, 3545, Note_on_c, 0, 73, 122
1, 3621, Note_off_c, 0, 73, 122
1, 3626, Note_on_c, 0, 74, 124
1, 3741, Note_off_c, 0, 74, 124
1, 3762, Note_on_c, 0, 75, 118
1, 3860, Note_off_c, 0, 75, 118
1, 3925, Note_on_c, 0, 74, 121
1, 4023, Note_off_c, 0, 74, 121
1, 4023, Note_on_c, 0, 75, 123
1, 4154, Note_off_c, 0, 75, 123
1, 4175, Note_on_c, 0, 74, 120
1, 4268, Note_off_c, 0, 74, 120
1, 4322, Note_on_c, 0, 74, 124
1, 4398, Note_off_c, 0, 74, 124
1, 4513, Note_on_c, 0, 67, 111
1, 4705, Note_off_c, 0, 67, 111
1, 4770, Note_on_c, 0, 70, 107
1, 4885, Note_off_c, 0, 70, 107
1, 4989, Note_on_c, 0, 70, 120
1, 5049, Note_off_c, 0, 70, 120
1, 5092, Note_on_c, 0, 70, 119
1, 5141, Note_off_c, 0, 70, 119
1, 5146, Note_on_c, 0, 69, 118
1, 5244, Note_off_c, 0, 69, 118
1, 5254, Note_on_c, 0, 67, 116
1, 5358, Note_off_c, 0, 67, 116
1, 5473, Note_on_c, 0, 63, 97
1, 5758, Note_off_c, 0, 63, 97
1, 5952, Note_on_c, 0, 73, 124
1, 6017, Note_on_c, 0, 74, 120
1, 6017, Note_off_c, 0, 73, 124
1, 6104, Note_off_c, 0, 74, 120
1, 6106, Note_on_c, 0, 73, 121
1, 6199, Note_off_c, 0, 73, 121
1, 6199, Note_on_c, 0, 74, 123
1, 6292, Note_off_c, 0, 74, 123
1, 6297, Note_on_c, 0, 72, 118
1, 6387, Note_off_c, 0, 72, 118
1, 6414, Note_on_c, 0, 67, 108
1, 6482, Note_off_c, 0, 67, 108
1, 6580, Note_on_c, 0, 70, 113
1, 6826, Note_off_c, 0, 70, 113
1, 6828, Note_on_c, 0, 67, 107
1, 6929, Note_off_c, 0, 67, 107
1, 6937, Note_on_c, 0, 65, 98
1, 7024, Note_off_c, 0, 65, 98
1, 7048, Note_on_c, 0, 64, 110
1, 7163, Note_off_c, 0, 64, 110
1, 7182, Note_on_c, 0, 67, 116
1, 7272, Note_off_c, 0, 67, 116
1, 7288, Note_on_c, 0, 69, 113
1, 7400, Note_off_c, 0, 69, 113
1, 7400, Note_on_c, 0, 67, 110
1, 7506, Note_off_c, 0, 67, 110
1, 7541, Note_on_c, 0, 63, 112
1, 7752, Note_off_c, 0, 63, 112
1, 7827, Note_on_c, 0, 62, 93
1, 7928, Note_off_c, 0, 62, 93
1, 7935, Note_on_c, 0, 67, 118
1, 8009, Note_off_c, 0, 67, 118
1, 8009, Note_on_c, 0, 69, 114
1, 8141, Note_off_c, 0, 69, 114
1, 8148, Note_on_c, 0, 67, 111
1, 8261, Note_off_c, 0, 67, 111
1, 8307, Note_on_c, 0, 63, 108
1, 8525, Note_off_c, 0, 63, 108
1, 8591, Note_on_c, 0, 61, 102
1, 8711, Note_off_c, 0, 61, 102
1, 8711, Note_on_c, 0, 62, 105
1, 8831, Note_off_c, 0, 62, 105
1, 8897, Note_on_c, 0, 65, 109
1, 9107, Note_off_c, 0, 65, 109
1, 9548, Note_on_c, 0, 73, 125
1, 9613, Note_off_c, 0, 73, 125
1, 9623, Note_on_c, 0, 74, 126
1, 9710, Note_off_c, 0, 74, 126
1, 9720, Note_on_c, 0, 75, 125
1, 9826, Note_off_c, 0, 75, 125
1, 9826, Note_on_c, 0, 74, 118
1, 9954, Note_off_c, 0, 74, 118
1, 10006, Note_on_c, 0, 72, 118
1, 10085, Note_off_c, 0, 72, 118
1, 10153, Note_on_c, 0, 67, 112
1, 10224, Note_off_c, 0, 67, 112
1, 10243, Note_on_c, 0, 63, 116
1, 10336, Note_off_c, 0, 63, 116
1, 10374, Note_on_c, 0, 60, 100
1, 10522, Note_off_c, 0, 60, 100
1, 10650, Note_on_c, 0, 72, 118
1, 10737, Note_off_c, 0, 72, 118
1, 10761, Note_on_c, 0, 70, 114
1, 10840, Note_off_c, 0, 70, 114
1, 10848, Note_on_c, 0, 69, 119
1, 10922, Note_off_c, 0, 69, 119
1, 11020, Note_on_c, 0, 69, 117
1, 11102, Note_off_c, 0, 69, 117
1, 11123, Note_on_c, 0, 66, 112
1, 11205, Note_off_c, 0, 66, 112
1, 11215, Note_on_c, 0, 62, 105
1, 11302, Note_off_c, 0, 62, 105
1, 11315, Note_on_c, 0, 64, 113
1, 11402, Note_off_c, 0, 64, 113
1, 11495, Note_on_c, 0, 57, 99
1, 11640, Note_off_c, 0, 57, 99
1, 11642, Note_on_c, 0, 55, 96
1, 11891, Note_off_c, 0, 55, 96
1, 12306, Note_on_c, 0, 77, 102
1, 12352, Note_off_c, 0, 77, 102
1, 12367, Note_on_c, 0, 79, 118
1, 15565, Note_off_c, 0, 79, 118
1, 16001, Note_on_c, 0, 77, 122
1, 16067, Note_off_c, 0, 77, 122
1, 16067, Note_on_c, 0, 79, 117
1, 16137, Note_off_c, 0, 79, 117
1, 16144, Note_on_c, 0, 81, 124
1, 16280, Note_off_c, 0, 81, 124
1, 16319, Note_on_c, 0, 81, 125
1, 16443, Note_off_c, 0, 81, 125
1, 16474, Note_on_c, 0, 81, 125
1, 16684, Note_off_c, 0, 81, 125
1, 16719, Note_on_c, 0, 79, 123
1, 16804, Note_off_c, 0, 79, 123
1, 16854, Note_on_c, 0, 79, 121
1, 16967, Note_off_c, 0, 79, 121
1, 17017, Note_on_c, 0, 74, 116
1, 17122, Note_on_c, 0, 77, 124
1, 17122, Note_off_c, 0, 74, 116
1, 17223, Note_off_c, 0, 77, 124
1, 17223, Note_on_c, 0, 76, 121
1, 17293, Note_off_c, 0, 76, 121
1, 17304, Note_on_c, 0, 75, 124
1, 17417, Note_off_c, 0, 75, 124
1, 17428, Note_on_c, 0, 74, 120
1, 17545, Note_off_c, 0, 74, 120
1, 17607, Note_on_c, 0, 74, 119
1, 17860, Note_off_c, 0, 74, 119
1, 17906, Note_on_c, 0, 72, 113
1, 17999, Note_off_c, 0, 72, 113
1, 18069, Note_on_c, 0, 72, 120
1, 18158, Note_off_c, 0, 72, 120
1, 18177, Note_on_c, 0, 70, 114
1, 18278, Note_off_c, 0, 70, 114
1, 18363, Note_on_c, 0, 67, 113
1, 18425, Note_off_c, 0, 67, 113
1, 18436, Note_on_c, 0, 70, 119
1, 18553, Note_off_c, 0, 70, 119
1, 18556, Note_on_c, 0, 67, 101
1, 18634, Note_off_c, 0, 67, 101
1, 18649, Note_on_c, 0, 68, 110
1, 18719, Note_off_c, 0, 68, 110
1, 18738, Note_on_c, 0, 69, 112
1, 18983, Note_off_c, 0, 69, 112
1, 18983, Note_on_c, 0, 67, 112
1, 19057, Note_off_c, 0, 67, 112
1, 19111, Note_on_c, 0, 65, 103
1, 19165, Note_off_c, 0, 65, 103
1, 19176, Note_on_c, 0, 63, 105
1, 19300, Note_off_c, 0, 63, 105
1, 19596, Note_on_c, 0, 73, 126
1, 19674, Note_off_c, 0, 73, 126
1, 19677, Note_on_c, 0, 74, 123
1, 19755, Note_off_c, 0, 74, 123
1, 19770, Note_on_c, 0, 73, 125
1, 19855, Note_off_c, 0, 73, 125
1, 19855, Note_on_c, 0, 74, 123
1, 19936, Note_off_c, 0, 74, 123
1, 19936, Note_on_c, 0, 72, 120
1, 20025, Note_off_c, 0, 72, 120
1, 20095, Note_on_c, 0, 67, 108
1, 20196, Note_off_c, 0, 67, 108
1, 20238, Note_on_c, 0, 70, 116
1, 20499, Note_off_c, 0, 70, 116
1, 20522, Note_on_c, 0, 67, 108
1, 20596, Note_off_c, 0, 67, 108
1, 20635, Note_on_c, 0, 65, 110
1, 20689, Note_off_c, 0, 65, 110
1, 20696, Note_on_c, 0, 64, 109
1, 20797, Note_off_c, 0, 64, 109
1, 20863, Note_on_c, 0, 67, 102
1, 20952, Note_off_c, 0, 67, 102
1, 20963, Note_on_c, 0, 70, 107
1, 21060, Note_off_c, 0, 70, 107
1, 21075, Note_on_c, 0, 69, 113
1, 21184, Note_off_c, 0, 69, 113
1, 21238, Note_on_c, 0, 67, 107
1, 21312, Note_off_c, 0, 67, 107
1, 21401, Note_on_c, 0, 69, 113
1, 21596, Note_off_c, 0, 69, 113
1, 21615, Note_on_c, 0, 63, 113
1, 21825, Note_off_c, 0, 63, 113
1, 22417, Note_on_c, 0, 74, 124
1, 22475, Note_off_c, 0, 74, 124
1, 22490, Note_on_c, 0, 75, 123
1, 22529, Note_off_c, 0, 75, 123
1, 22540, Note_on_c, 0, 76, 121
1, 22582, Note_off_c, 0, 76, 121
1, 22582, Note_on_c, 0, 77, 127
1, 22886, Note_off_c, 0, 77, 127
1, 22886, Note_on_c, 0, 76, 121
1, 22925, Note_off_c, 0, 76, 121
1, 22932, Note_on_c, 0, 75, 120
1, 22971, Note_off_c, 0, 75, 120
1, 22982, Note_on_c, 0, 74, 120
1, 23126, Note_off_c, 0, 74, 120
1, 23200, Note_on_c, 0, 73, 124
1, 23278, Note_off_c, 0, 73, 124
1, 23285, Note_on_c, 0, 74, 124
1, 23351, Note_off_c, 0, 74, 124
1, 23378, Note_on_c, 0, 75, 124
1, 23467, Note_off_c, 0, 75, 124
1, 23494, Note_on_c, 0, 74, 120
1, 23599, Note_off_c, 0, 74, 120
1, 23680, Note_on_c, 0, 72, 118
1, 23882, Note_off_c, 0, 72, 118
1, 23940, Note_on_c, 0, 67, 106
1, 24021, Note_off_c, 0, 67, 106
1, 24130, Note_on_c, 0, 70, 120
1, 24243, Note_off_c, 0, 70, 120
1, 24348, Note_on_c, 0, 70, 122
1, 24426, Note_off_c, 0, 70, 122
1, 24437, Note_on_c, 0, 69, 119
1, 24518, Note_off_c, 0, 69, 119
1, 24798, Note_on_c, 0, 77, 83
1, 24852, Note_off_c, 0, 77, 83
1, 24852, Note_on_c, 0, 78, 91
1, 24871, Note_off_c, 0, 78, 91
1, 24890, Note_on_c, 0, 80, 120
1, 25557, Note_off_c, 0, 80, 120
1, 25580, Note_on_c, 0, 79, 92
1, 25622, Note_off_c, 0, 79, 92
1, 25661, Note_on_c, 0, 77, 120
1, 25762, Note_off_c, 0, 77, 120
1, 25847, Note_on_c, 0, 75, 126
1, 25948, Note_off_c, 0, 75, 126
1, 25994, Note_on_c, 0, 73, 121
1, 26107, Note_off_c, 0, 73, 121
1, 26142, Note_on_c, 0, 74, 118
1, 26255, Note_off_c, 0, 74, 118
1, 26301, Note_on_c, 0, 77, 122
1, 26410, Note_off_c, 0, 77, 122
1, 26456, Note_on_c, 0, 74, 113
1, 26545, Note_off_c, 0, 74, 113
1, 26560, Note_on_c, 0, 77, 123
1, 26630, Note_off_c, 0, 77, 123
1, 26649, Note_on_c, 0, 76, 120
1, 26719, Note_off_c, 0, 76, 120
1, 26726, Note_on_c, 0, 75, 122
1, 26835, Note_off_c, 0, 75, 122
1, 26838, Note_on_c, 0, 74, 115
1, 26896, Note_off_c, 0, 74, 115
1, 26903, Note_on_c, 0, 73, 122
1, 27008, Note_off_c, 0, 73, 122
1, 27027, Note_on_c, 0, 74, 121
1, 27081, Note_off_c, 0, 74, 121
1, 27096, Note_on_c, 0, 73, 120
1, 27201, Note_off_c, 0, 73, 120
1, 27204, Note_on_c, 0, 74, 122
1, 27297, Note_off_c, 0, 74, 122
1, 27297, Note_on_c, 0, 73, 120
1, 27386, Note_off_c, 0, 73, 120
1, 27386, Note_on_c, 0, 74, 122
1, 27475, Note_off_c, 0, 74, 122
1, 27475, Note_on_c, 0, 72, 118
1, 27564, Note_off_c, 0, 72, 118
1, 27626, Note_on_c, 0, 67, 102
1, 27723, Note_off_c, 0, 67, 102
1, 27793, Note_on_c, 0, 70, 112
1, 28003, Note_off_c, 0, 70, 112
1, 28057, Note_on_c, 0, 67, 112
1, 28146, Note_off_c, 0, 67, 112
1, 28255, Note_on_c, 0, 73, 124
1, 28344, Note_off_c, 0, 73, 124
1, 28355, Note_on_c, 0, 74, 121
1, 28413, Note_off_c, 0, 74, 121
1, 28424, Note_on_c, 0, 73, 121
1, 28505, Note_off_c, 0, 73, 121
1, 28512, Note_on_c, 0, 74, 122
1, 28593, Note_off_c, 0, 74, 122
1, 28596, Note_on_c, 0, 77, 123
1, 28709, Note_off_c, 0, 77, 123
1, 28724, Note_on_c, 0, 74, 121
1, 28829, Note_off_c, 0, 74, 121
1, 28903, Note_on_c, 0, 70, 97
1, 29008, Note_off_c, 0, 70, 97
1, 29167, Note_on_c, 0, 70, 116
1, 29245, Note_off_c, 0, 70, 116
1, 29291, Note_on_c, 0, 70, 115
1, 29345, Note_off_c, 0, 70, 115
1, 29345, Note_on_c, 0, 69, 112
1, 29419, Note_off_c, 0, 69, 112
1, 29458, Note_on_c, 0, 69, 104
1, 29543, Note_off_c, 0, 69, 104
1, 29550, Note_on_c, 0, 67, 111
1, 29631, Note_off_c, 0, 67, 111
1, 29744, Note_on_c, 0, 65, 112
1, 29845, Note_off_c, 0, 65, 112
1, 29845, End_track
0, 0, End_of_file
