0, 0, Header, 1, 1, 192
1, 0, Start_track
1, 0, Title_t, "Melody"
1, 0, Tempo, 229007
1, 0, Time_signature, 4, 2, 24, 8
1, 4578, Note_on_c, 0, 60, 104
1, 4872, Note_off_c, 0, 60, 104
1, 4899, Note_on_c, 0, 65, 95
1, 5326, Note_off_c, 0, 65, 95
1, 5349, Note_on_c, 0, 61, 111
1, 5639, Note_off_c, 0, 61, 111
1, 5666, Note_on_c, 0, 66, 104
1, 6035, Note_off_c, 0, 66, 104
1, 6076, Note_on_c, 0, 68, 101
1, 6377, Note_off_c, 0, 68, 101
1, 6397, Note_on_c, 0, 63, 95
1, 7030, Note_off_c, 0, 63, 95
1, 7093, Note_on_c, 0, 62, 108
1, 7241, Note_off_c, 0, 62, 108
1, 7278, Note_on_c, 0, 67, 106
1, 7503, Note_off_c, 0, 67, 106
1, 7585, Note_on_c, 0, 72, 116
1, 7684, Note_off_c, 0, 72, 116
1, 7783, Note_on_c, 0, 69, 95
1, 8015, Note_off_c, 0, 69, 95
1, 8049, Note_on_c, 0, 64, 93
1, 8254, Note_off_c, 0, 64, 93
1, 8267, Note_on_c, 0, 65, 95
1, 8513, Note_off_c, 0, 65, 95
1, 8530, Note_on_c, 0, 64, 92
1, 8673, Note_off_c, 0, 64, 92
1, 8741, Note_on_c, 0, 74, 115
1, 8997, Note_off_c, 0, 74, 115
1, 9007, Note_on_c, 0, 72, 107
1, 9150, Note_off_c, 0, 72, 107
1, 9218, Note_on_c, 0, 66, 111
1, 9382, Note_off_c, 0, 66, 111
1, 9666, Note_on_c, 0, 77, 112
1, 9784, Note_off_c, 0, 77, 112
1, 9792, Note_on_c, 0, 75, 103
1, 9891, Note_off_c, 0, 75, 103
1, 9894, Note_on_c, 0, 73, 96
1, 9979, Note_off_c, 0, 73, 96
1, 10716, Note_on_c, 0, 71, 107
1, 10830, Note_off_c, 0, 71, 107
1, 10840, Note_on_c, 0, 69, 88
1, 10915, Note_off_c, 0, 69, 88
1, 10921, Note_on_c, 0, 71, 98
1, 11074, Note_off_c, 0, 71, 98
1, 11512, Note_on_c, 0, 68, 107
1, 11659, Note_off_c, 0, 68, 107
1, 11659, Note_on_c, 0, 66, 95
1, 11737, Note_off_c, 0, 66, 95
1, 11737, Note_on_c, 0, 68, 103
1, 11887, Note_off_c, 0, 68, 103
1, 12085, Note_on_c, 0, 61, 119
1, 12211, Note_off_c, 0, 61, 119
1, 12211, Note_on_c, 0, 59, 96
1, 12293, Note_off_c, 0, 59, 96
1, 12293, Note_on_c, 0, 61, 118
1, 12498, Note_off_c, 0, 61, 118
1, 13170, Note_on_c, 0, 55, 99
1, 13267, Note_off_c, 0, 55, 99
1, 13276, Note_on_c, 0, 56, 105
1, 13392, Note_off_c, 0, 56, 105
1, 13547, Note_on_c, 0, 58, 111
1, 13613, Note_off_c, 0, 58, 111
1, 13614, Note_on_c, 0, 60, 110
1, 13706, Note_off_c, 0, 60, 110
1, 13911, Note_on_c, 0, 62, 124
1, 13998, Note_off_c, 0, 62, 124
1, 14002, Note_on_c, 0, 63, 105
1, 14118, Note_off_c, 0, 63, 105
1, 14262, Note_on_c, 0, 65, 107
1, 14352, Note_off_c, 0, 65, 107
1, 14353, Note_on_c, 0, 66, 112
1, 14469, Note_off_c, 0, 66, 112
1, 14894, Note_on_c, 0, 69, 105
1, 14988, Note_off_c, 0, 69, 105
1, 15041, Note_on_c, 0, 66, 108
1, 15146, Note_off_c, 0, 66, 108
1, 15146, Note_on_c, 0, 62, 104
1, 15233, Note_off_c, 0, 62, 104
1, 15237, Note_on_c, 0, 59, 99
1, 15314, Note_off_c, 0, 59, 99
1, 16095, Note_on_c, 0, 59, 108
1, 16235, Note_off_c, 0, 59, 108
1, 16296, Note_on_c, 0, 64, 99
1, 16407, Note_off_c, 0, 64, 99
1, 16407, Note_on_c, 0, 66, 113
1, 16494, Note_off_c, 0, 66, 113
1, 16583, Note_on_c, 0, 68, 111
1, 16673, Note_off_c, 0, 68, 111
1, 16770, Note_on_c, 0, 69, 106
1, 16848, Note_off_c, 0, 69, 106
1, 16958, Note_on_c, 0, 67, 110
1, 17050, Note_off_c, 0, 67, 110
1, 17050, Note_on_c, 0, 64, 98
1, 17171, Note_off_c, 0, 64, 98
1, 17171, Note_on_c, 0, 59, 105
1, 17278, Note_off_c, 0, 59, 105
1, 17282, Note_on_c, 0, 62, 113
1, 17389, Note_off_c, 0, 62, 113
1, 17427, Note_on_c, 0, 62, 116
1, 17597, Note_off_c, 0, 62, 116
1, 18390, Note_on_c, 0, 60, 108
1, 18643, Note_off_c, 0, 60, 108
1, 18691, Note_on_c, 0, 65, 89
1, 19182, Note_off_c, 0, 65, 89
1, 19258, Note_on_c, 0, 58, 105
1, 19323, Note_off_c, 0, 58, 105
1, 19434, Note_on_c, 0, 63, 103
1, 19872, Note_off_c, 0, 63, 103
1, 19919, Note_on_c, 0, 59, 107
1, 20021, Note_off_c, 0, 59, 107
1, 20113, Note_on_c, 0, 66, 99
1, 20571, Note_off_c, 0, 66, 99
1, 20604, Note_on_c, 0, 67, 100
1, 20750, Note_off_c, 0, 67, 100
1, 20827, Note_on_c, 0, 59, 107
1, 21070, Note_off_c, 0, 59, 107
1, 21083, Note_on_c, 0, 58, 100
1, 21175, Note_off_c, 0, 58, 100
1, 21180, Note_on_c, 0, 59, 100
1, 21345, Note_off_c, 0, 59, 100
1, 22323, Note_on_c, 0, 67, 110
1, 22439, Note_off_c, 0, 67, 110
1, 22439, Note_on_c, 0, 69, 99
1, 22521, Note_off_c, 0, 69, 99
1, 22540, Note_on_c, 0, 71, 108
1, 22671, Note_off_c, 0, 71, 108
1, 22709, Note_on_c, 0, 69, 102
1, 22820, Note_off_c, 0, 69, 102
1, 22824, Note_on_c, 0, 67, 96
1, 22911, Note_off_c, 0, 67, 96
1, 22925, Note_on_c, 0, 65, 95
1, 22968, Note_off_c, 0, 65, 95
1, 23009, Note_on_c, 0, 71, 110
1, 23166, Note_off_c, 0, 71, 110
1, 24625, Note_on_c, 0, 69, 105
1, 24729, Note_off_c, 0, 69, 105
1, 24735, Note_on_c, 0, 70, 91
1, 24825, Note_off_c, 0, 70, 91
1, 24825, Note_on_c, 0, 72, 106
1, 24936, Note_off_c, 0, 72, 106
1, 24940, Note_on_c, 0, 74, 113
1, 25017, Note_off_c, 0, 74, 113
1, 25026, Note_on_c, 0, 76, 115
1, 25128, Note_off_c, 0, 76, 115
1, 25132, Note_on_c, 0, 74, 115
1, 25209, Note_off_c, 0, 74, 115
1, 25223, Note_on_c, 0, 72, 112
1, 25325, Note_off_c, 0, 72, 112
1, 25326, Note_on_c, 0, 69, 92
1, 25396, Note_off_c, 0, 69, 92
1, 25397, Note_on_c, 0, 67, 97
1, 25482, Note_on_c, 0, 69, 101
1, 25482, Note_off_c, 0, 67, 97
1, 25593, Note_off_c, 0, 69, 101
1, 25674, Note_on_c, 0, 67, 101
1, 25804, Note_off_c, 0, 67, 101
1, 27694, Note_on_c, 0, 75, 112
1, 27784, Note_off_c, 0, 75, 112
1, 27891, Note_on_c, 0, 71, 109
1, 28014, Note_off_c, 0, 71, 109
1, 28075, Note_on_c, 0, 67, 107
1, 28174, Note_off_c, 0, 67, 107
1, 28285, Note_on_c, 0, 73, 101
1, 28392, Note_off_c, 0, 73, 101
1, 28447, Note_on_c, 0, 69, 102
1, 28568, Note_off_c, 0, 69, 102
1, 28679, Note_on_c, 0, 65, 93
1, 28752, Note_off_c, 0, 65, 93
1, 28766, Note_on_c, 0, 71, 105
1, 28965, Note_off_c, 0, 71, 105
1, 28969, Note_on_c, 0, 68, 107
1, 29071, Note_off_c, 0, 68, 107
1, 29071, Note_on_c, 0, 65, 93
1, 29144, Note_off_c, 0, 65, 93
1, 29156, Note_on_c, 0, 69, 101
1, 29299, Note_off_c, 0, 69, 101
1, 29303, Note_on_c, 0, 66, 103
1, 29356, Note_off_c, 0, 66, 103
1, 29385, Note_on_c, 0, 62, 97
1, 29462, Note_off_c, 0, 62, 97
1, 29462, Note_on_c, 0, 66, 117
1, 29583, Note_off_c, 0, 66, 117
1, 29587, Note_on_c, 0, 62, 95
1, 29660, Note_off_c, 0, 62, 95
1, 29679, Note_on_c, 0, 66, 117
1, 29771, Note_off_c, 0, 66, 117
1, 29775, Note_on_c, 0, 62, 103
1, 29882, Note_off_c, 0, 62, 103
1, 29882, Note_on_c, 0, 59, 95
1, 29950, Note_off_c, 0, 59, 95
1, 29950, Note_on_c, 0, 67, 111
1, 30096, Note_off_c, 0, 67, 111
1, 30096, Note_on_c, 0, 64, 99
1, 30173, Note_off_c, 0, 64, 99
1, 30175, Note_on_c, 0, 65, 94
1, 30238, Note_off_c, 0, 65, 94
1, 30257, Note_on_c, 0, 67, 111
1, 30373, Note_off_c, 0, 67, 111
1, 30404, Note_on_c, 0, 68, 104
1, 30472, Note_off_c, 0, 68, 104
1, 30486, Note_on_c, 0, 70, 94
1, 30561, Note_off_c, 0, 70, 94
1, 30568, Note_on_c, 0, 71, 105
1, 30643, Note_off_c, 0, 71, 105
1, 30664, Note_on_c, 0, 68, 103
1, 30717, Note_off_c, 0, 68, 103
1, 30731, Note_on_c, 0, 70, 104
1, 30842, Note_off_c, 0, 70, 104
1, 30846, Note_on_c, 0, 67, 109
1, 30928, Note_off_c, 0, 67, 109
1, 30947, Note_on_c, 0, 63, 104
1, 31063, Note_off_c, 0, 63, 104
1, 31070, Note_on_c, 0, 60, 95
1, 31133, Note_off_c, 0, 60, 95
1, 31133, Note_on_c, 0, 62, 119
1, 31235, Note_off_c, 0, 62, 119
1, 31247, Note_on_c, 0, 63, 106
1, 31329, Note_off_c, 0, 63, 106
1, 31340, Note_on_c, 0, 65, 101
1, 31422, Note_off_c, 0, 65, 101
1, 31433, Note_on_c, 0, 67, 112
1, 31530, Note_off_c, 0, 67, 112
1, 31550, Note_on_c, 0, 68, 100
1, 31638, Note_off_c, 0, 68, 100
1, 31680, Note_on_c, 0, 70, 93
1, 31729, Note_off_c, 0, 70, 93
1, 31735, Note_on_c, 0, 71, 104
1, 31823, Note_on_c, 0, 72, 108
1, 31823, Note_off_c, 0, 71, 104
1, 31905, Note_off_c, 0, 72, 108
1, 31908, Note_on_c, 0, 73, 96
1, 31957, Note_off_c, 0, 73, 96
1, 31968, Note_on_c, 0, 74, 114
1, 32022, Note_off_c, 0, 74, 114
1, 32036, Note_on_c, 0, 75, 105
1, 32138, Note_off_c, 0, 75, 105
1, 32151, Note_on_c, 0, 77, 98
1, 32197, Note_off_c, 0, 77, 98
1, 32215, Note_on_c, 0, 78, 123
1, 32289, Note_off_c, 0, 78, 123
1, 32290, Note_on_c, 0, 74, 116
1, 32438, Note_off_c, 0, 74, 116
1, 33859, Note_on_c, 0, 83, 124
1, 33918, Note_on_c, 0, 82, 109
1, 33918, Note_off_c, 0, 83, 124
1, 33983, Note_off_c, 0, 82, 109
1, 33986, Note_on_c, 0, 80, 107
1, 34061, Note_off_c, 0, 80, 107
1, 34074, Note_on_c, 0, 76, 114
1, 34164, Note_off_c, 0, 76, 114
1, 34165, Note_on_c, 0, 75, 107
1, 34279, Note_off_c, 0, 75, 107
1, 34289, Note_on_c, 0, 73, 97
1, 34365, Note_off_c, 0, 73, 97
1, 34373, Note_on_c, 0, 72, 100
1, 34453, Note_off_c, 0, 72, 100
1, 34464, Note_on_c, 0, 71, 114
1, 34554, Note_off_c, 0, 71, 114
1, 34562, Note_on_c, 0, 69, 100
1, 34642, Note_off_c, 0, 69, 100
1, 34647, Note_on_c, 0, 67, 105
1, 34753, Note_off_c, 0, 67, 105
1, 34753, Note_on_c, 0, 68, 102
1, 34838, Note_off_c, 0, 68, 102
1, 34841, Note_on_c, 0, 71, 106
1, 35000, Note_off_c, 0, 71, 106
1, 35256, Note_on_c, 0, 59, 94
1, 35319, Note_off_c, 0, 59, 94
1, 35325, Note_on_c, 0, 67, 107
1, 35578, Note_off_c, 0, 67, 107
1, 35627, Note_on_c, 0, 64, 107
1, 35712, Note_off_c, 0, 64, 107
1, 35729, Note_on_c, 0, 66, 105
1, 35816, Note_off_c, 0, 66, 105
1, 35823, Note_on_c, 0, 69, 108
1, 35920, Note_off_c, 0, 69, 108
1, 35920, Note_on_c, 0, 68, 107
1, 36007, Note_off_c, 0, 68, 107
1, 36009, Note_on_c, 0, 66, 101
1, 36067, Note_off_c, 0, 66, 101
1, 36113, Note_on_c, 0, 67, 92
1, 36186, Note_off_c, 0, 67, 92
1, 36190, Note_on_c, 0, 69, 99
1, 36299, Note_off_c, 0, 69, 99
1, 36301, Note_on_c, 0, 71, 100
1, 36415, Note_off_c, 0, 71, 100
1, 36480, Note_on_c, 0, 74, 118
1, 36672, Note_off_c, 0, 74, 118
1, 36689, Note_on_c, 0, 71, 106
1, 36832, Note_off_c, 0, 71, 106
1, 36909, Note_on_c, 0, 71, 108
1, 36974, Note_off_c, 0, 71, 108
1, 36974, Note_on_c, 0, 72, 97
1, 37387, Note_off_c, 0, 72, 97
1, 37394, Note_on_c, 0, 68, 112
1, 37479, Note_off_c, 0, 68, 112
1, 37580, Note_on_c, 0, 65, 107
1, 37655, Note_off_c, 0, 65, 107
1, 37781, Note_on_c, 0, 65, 109
1, 37876, Note_off_c, 0, 65, 109
1, 37961, Note_on_c, 0, 63, 104
1, 38038, Note_off_c, 0, 63, 104
1, 38042, Note_on_c, 0, 65, 99
1, 38197, Note_off_c, 0, 65, 99
1, 38728, Note_on_c, 0, 59, 89
1, 38791, Note_off_c, 0, 59, 89
1, 38806, Note_on_c, 0, 63, 117
1, 38912, Note_off_c, 0, 63, 117
1, 38912, Note_on_c, 0, 59, 96
1, 38990, Note_off_c, 0, 59, 96
1, 38990, Note_on_c, 0, 61, 104
1, 39089, Note_off_c, 0, 61, 104
1, 39095, Note_on_c, 0, 63, 115
1, 39189, Note_off_c, 0, 63, 115
1, 39192, Note_on_c, 0, 64, 97
1, 39303, Note_off_c, 0, 64, 97
1, 39311, Note_on_c, 0, 66, 111
1, 39453, Note_off_c, 0, 66, 111
1, 39499, Note_on_c, 0, 69, 106
1, 39593, Note_off_c, 0, 69, 106
1, 39597, Note_on_c, 0, 71, 103
1, 39679, Note_off_c, 0, 71, 103
1, 39683, Note_on_c, 0, 72, 106
1, 39768, Note_off_c, 0, 72, 106
1, 39770, Note_on_c, 0, 74, 106
1, 39933, Note_off_c, 0, 74, 106
1, 39945, Note_on_c, 0, 75, 107
1, 40108, Note_off_c, 0, 75, 107
1, 40638, Note_on_c, 0, 64, 88
1, 40696, Note_off_c, 0, 64, 88
1, 40708, Note_on_c, 0, 75, 111
1, 40832, Note_off_c, 0, 75, 111
1, 40832, Note_on_c, 0, 74, 113
1, 40919, Note_off_c, 0, 74, 113
1, 40926, Note_on_c, 0, 73, 103
1, 40984, Note_off_c, 0, 73, 103
1, 40984, Note_on_c, 0, 72, 115
1, 41088, Note_off_c, 0, 72, 115
1, 41105, Note_on_c, 0, 70, 98
1, 41168, Note_off_c, 0, 70, 98
1, 41168, Note_on_c, 0, 68, 111
1, 41277, Note_off_c, 0, 68, 111
1, 41279, Note_on_c, 0, 67, 98
1, 41361, Note_off_c, 0, 67, 98
1, 41392, Note_on_c, 0, 66, 115
1, 41555, Note_off_c, 0, 66, 115
1, 41559, Note_on_c, 0, 64, 109
1, 41661, Note_off_c, 0, 64, 109
1, 41661, Note_on_c, 0, 63, 108
1, 41755, Note_off_c, 0, 63, 108
1, 41762, Note_on_c, 0, 61, 111
1, 41852, Note_off_c, 0, 61, 111
1, 41861, Note_on_c, 0, 62, 105
1, 41953, Note_off_c, 0, 62, 105
1, 41967, Note_on_c, 0, 64, 104
1, 42127, Note_off_c, 0, 64, 104
1, 42170, Note_on_c, 0, 67, 100
1, 42260, Note_off_c, 0, 67, 100
1, 42262, Note_on_c, 0, 69, 99
1, 42432, Note_off_c, 0, 69, 99
1, 42447, Note_on_c, 0, 66, 108
1, 42536, Note_off_c, 0, 66, 108
1, 42536, Note_on_c, 0, 64, 99
1, 42577, Note_off_c, 0, 64, 99
1, 42577, Note_on_c, 0, 62, 100
1, 42654, Note_off_c, 0, 62, 100
1, 42654, Note_on_c, 0, 68, 105
1, 42819, Note_off_c, 0, 68, 105
1, 42819, Note_on_c, 0, 64, 103
1, 42889, Note_off_c, 0, 64, 103
1, 42895, Note_on_c, 0, 62, 113
1, 42965, Note_off_c, 0, 62, 113
1, 42969, Note_on_c, 0, 59, 102
1, 43024, Note_off_c, 0, 59, 102
1, 43024, Note_on_c, 0, 66, 111
1, 43201, Note_off_c, 0, 66, 111
1, 43208, Note_on_c, 0, 62, 112
1, 43288, Note_off_c, 0, 62, 112
1, 43292, Note_on_c, 0, 61, 112
1, 43343, Note_off_c, 0, 61, 112
1, 43343, Note_on_c, 0, 59, 99
1, 43394, Note_off_c, 0, 59, 99
1, 43400, Note_on_c, 0, 64, 108
1, 43571, Note_off_c, 0, 64, 108
1, 43571, Note_on_c, 0, 61, 107
1, 43661, Note_off_c, 0, 61, 107
1, 43671, Note_on_c, 0, 59, 88
1, 43719, Note_on_c, 0, 57, 87
1, 43719, Note_off_c, 0, 59, 88
1, 43762, Note_off_c, 0, 57, 87
1, 43770, Note_on_c, 0, 60, 111
1, 43986, Note_off_c, 0, 60, 111
1, 44076, Note_on_c, 0, 58, 105
1, 44168, Note_off_c, 0, 58, 105
1, 44187, Note_on_c, 0, 57, 90
1, 44255, Note_off_c, 0, 57, 90
1, 44255, Note_on_c, 0, 58, 112
1, 44376, Note_off_c, 0, 58, 112
1, 44376, Note_on_c, 0, 62, 106
1, 44466, Note_off_c, 0, 62, 106
1, 44468, Note_on_c, 0, 65, 91
1, 44528, Note_off_c, 0, 65, 91
1, 44545, Note_on_c, 0, 69, 104
1, 44642, Note_off_c, 0, 69, 104
1, 44644, Note_on_c, 0, 72, 114
1, 44750, Note_off_c, 0, 72, 114
1, 44755, Note_on_c, 0, 67, 100
1, 44831, Note_off_c, 0, 67, 100
1, 44841, Note_on_c, 0, 70, 104
1, 44914, Note_off_c, 0, 70, 104
1, 44921, Note_on_c, 0, 69, 102
1, 45064, Note_off_c, 0, 69, 102
1, 45787, Note_on_c, 0, 64, 109
1, 45878, Note_off_c, 0, 64, 109
1, 45878, Note_on_c, 0, 69, 100
1, 45948, Note_off_c, 0, 69, 100
1, 45979, Note_on_c, 0, 74, 118
1, 46078, Note_off_c, 0, 74, 118
1, 46087, Note_on_c, 0, 69, 97
1, 46223, Note_off_c, 0, 69, 97
1, 46276, Note_on_c, 0, 74, 111
1, 46378, Note_off_c, 0, 74, 111
1, 46387, Note_on_c, 0, 79, 112
1, 46477, Note_off_c, 0, 79, 112
1, 46479, Note_on_c, 0, 78, 113
1, 46581, Note_off_c, 0, 78, 113
1, 46581, Note_on_c, 0, 76, 105
1, 46651, Note_off_c, 0, 76, 105
1, 46651, Note_on_c, 0, 72, 105
1, 46804, Note_off_c, 0, 72, 105
1, 47388, Note_on_c, 0, 82, 121
1, 47488, Note_off_c, 0, 82, 121
1, 47489, Note_on_c, 0, 81, 113
1, 47584, Note_off_c, 0, 81, 113
1, 47589, Note_on_c, 0, 80, 114
1, 47665, Note_off_c, 0, 80, 114
1, 47673, Note_on_c, 0, 77, 113
1, 47767, Note_off_c, 0, 77, 113
1, 47773, Note_on_c, 0, 75, 114
1, 47870, Note_off_c, 0, 75, 114
1, 47881, Note_on_c, 0, 73, 100
1, 47957, Note_on_c, 0, 71, 105
1, 47957, Note_off_c, 0, 73, 100
1, 48069, Note_off_c, 0, 71, 105
1, 48069, Note_on_c, 0, 70, 100
1, 48164, Note_off_c, 0, 70, 100
1, 48256, Note_on_c, 0, 73, 97
1, 48363, Note_off_c, 0, 73, 97
1, 48871, Note_on_c, 0, 64, 112
1, 48977, Note_off_c, 0, 64, 112
1, 48977, Note_on_c, 0, 69, 97
1, 49069, Note_off_c, 0, 69, 97
1, 49069, Note_on_c, 0, 73, 103
1, 49176, Note_off_c, 0, 73, 103
1, 49189, Note_on_c, 0, 66, 102
1, 49281, Note_off_c, 0, 66, 102
1, 49281, Note_on_c, 0, 71, 98
1, 49347, Note_off_c, 0, 71, 98
1, 49358, Note_on_c, 0, 76, 118
1, 49482, Note_off_c, 0, 76, 118
1, 49490, Note_on_c, 0, 71, 93
1, 49555, Note_off_c, 0, 71, 93
1, 49556, Note_on_c, 0, 76, 121
1, 49639, Note_off_c, 0, 76, 121
1, 49647, Note_on_c, 0, 71, 103
1, 49741, Note_off_c, 0, 71, 103
1, 49759, Note_on_c, 0, 64, 100
1, 49837, Note_off_c, 0, 64, 100
1, 50396, Note_on_c, 0, 64, 111
1, 50484, Note_off_c, 0, 64, 111
1, 50490, Note_on_c, 0, 69, 99
1, 50577, Note_off_c, 0, 69, 99
1, 50585, Note_on_c, 0, 73, 93
1, 50675, Note_off_c, 0, 73, 93
1, 50775, Note_on_c, 0, 81, 109
1, 50872, Note_off_c, 0, 81, 109
1, 50878, Note_on_c, 0, 85, 106
1, 50966, Note_off_c, 0, 85, 106
1, 50974, Note_on_c, 0, 88, 97
1, 51073, Note_off_c, 0, 88, 97
1, 51149, Note_on_c, 0, 88, 101
1, 51239, Note_off_c, 0, 88, 101
1, 51242, Note_on_c, 0, 85, 104
1, 51332, Note_off_c, 0, 85, 104
1, 51335, Note_on_c, 0, 87, 106
1, 51708, Note_off_c, 0, 87, 106
1, 51711, Note_on_c, 0, 86, 103
1, 51817, Note_off_c, 0, 86, 103
1, 52037, Note_on_c, 0, 87, 100
1, 52339, Note_on_c, 0, 85, 109
1, 52339, Note_off_c, 0, 87, 100
1, 52453, Note_off_c, 0, 85, 109
1, 52603, Note_on_c, 0, 87, 102
1, 52899, Note_off_c, 0, 87, 102
1, 52907, Note_on_c, 0, 84, 100
1, 52982, Note_off_c, 0, 84, 100
1, 53070, Note_on_c, 0, 87, 112
1, 53193, Note_off_c, 0, 87, 112
1, 53193, Note_on_c, 0, 83, 116
1, 53439, Note_off_c, 0, 83, 116
1, 53480, Note_on_c, 0, 82, 117
1, 53572, Note_off_c, 0, 82, 117
1, 53655, Note_on_c, 0, 83, 126
1, 53790, Note_off_c, 0, 83, 126
1, 53796, Note_on_c, 0, 81, 103
1, 54021, Note_off_c, 0, 81, 103
1, 54079, Note_on_c, 0, 80, 120
1, 54171, Note_off_c, 0, 80, 120
1, 54261, Note_on_c, 0, 81, 114
1, 54375, Note_off_c, 0, 81, 114
1, 54378, Note_on_c, 0, 79, 97
1, 54644, Note_off_c, 0, 79, 97
1, 54676, Note_on_c, 0, 75, 91
1, 54721, Note_off_c, 0, 75, 91
1, 54876, Note_on_c, 0, 75, 97
1, 54930, Note_off_c, 0, 75, 97
1, 54948, Note_on_c, 0, 78, 117
1, 55062, Note_off_c, 0, 78, 117
1, 55075, Note_on_c, 0, 79, 109
1, 55148, Note_off_c, 0, 79, 109
1, 55154, Note_on_c, 0, 77, 111
1, 55246, Note_off_c, 0, 77, 111
1, 55348, Note_on_c, 0, 76, 117
1, 55447, Note_off_c, 0, 76, 117
1, 55448, Note_on_c, 0, 77, 114
1, 55540, Note_off_c, 0, 77, 114
1, 55540, Note_on_c, 0, 75, 101
1, 55683, Note_off_c, 0, 75, 101
1, 55720, Note_on_c, 0, 74, 117
1, 55853, Note_off_c, 0, 74, 117
1, 55854, Note_on_c, 0, 75, 106
1, 55968, Note_off_c, 0, 75, 106
1, 55973, Note_on_c, 0, 72, 94
1, 56043, Note_off_c, 0, 72, 94
1, 56560, Note_on_c, 0, 74, 118
1, 56640, Note_off_c, 0, 74, 118
1, 56640, Note_on_c, 0, 73, 111
1, 56704, Note_off_c, 0, 73, 111
1, 56706, Note_on_c, 0, 72, 105
1, 56794, Note_off_c, 0, 72, 105
1, 56794, Note_on_c, 0, 71, 103
1, 56876, Note_off_c, 0, 71, 103
1, 56882, Note_on_c, 0, 70, 94
1, 56985, Note_off_c, 0, 70, 94
1, 57004, Note_on_c, 0, 68, 90
1, 57038, Note_off_c, 0, 68, 90
1, 57038, Note_on_c, 0, 69, 101
1, 57180, Note_off_c, 0, 69, 101
1, 57188, Note_on_c, 0, 67, 92
1, 57246, Note_off_c, 0, 67, 92
1, 57252, Note_on_c, 0, 68, 102
1, 57338, Note_off_c, 0, 68, 102
1, 57344, Note_on_c, 0, 71, 110
1, 57459, Note_off_c, 0, 71, 110
1, 57463, Note_on_c, 0, 70, 93
1, 57531, Note_off_c, 0, 70, 93
1, 57531, Note_on_c, 0, 68, 103
1, 57628, Note_off_c, 0, 68, 103
1, 57632, Note_on_c, 0, 67, 92
1, 57722, Note_off_c, 0, 67, 92
1, 57739, Note_on_c, 0, 66, 117
1, 57839, Note_off_c, 0, 66, 117
1, 57841, Note_on_c, 0, 65, 99
1, 57928, Note_off_c, 0, 65, 99
1, 58003, Note_on_c, 0, 63, 115
1, 58116, Note_off_c, 0, 63, 115
1, 58116, Note_on_c, 0, 59, 98
1, 58176, Note_off_c, 0, 59, 98
1, 58234, Note_on_c, 0, 63, 85
1, 58293, Note_off_c, 0, 63, 85
1, 60398, Note_on_c, 0, 60, 106
1, 60477, Note_off_c, 0, 60, 106
1, 60483, Note_on_c, 0, 62, 95
1, 60529, Note_off_c, 0, 62, 95
1, 60532, Note_on_c, 0, 64, 103
1, 60573, Note_off_c, 0, 64, 103
1, 60586, Note_on_c, 0, 67, 102
1, 60711, Note_off_c, 0, 67, 102
1, 60711, Note_on_c, 0, 63, 100
1, 60891, Note_off_c, 0, 63, 100
1, 60991, Note_on_c, 0, 58, 90
1, 61038, Note_off_c, 0, 58, 90
1, 61044, Note_on_c, 0, 65, 103
1, 61179, Note_off_c, 0, 65, 103
1, 61186, Note_on_c, 0, 62, 115
1, 61261, Note_off_c, 0, 62, 115
1, 61275, Note_on_c, 0, 58, 93
1, 61421, Note_off_c, 0, 58, 93
1, 61448, Note_on_c, 0, 60, 113
1, 61628, Note_off_c, 0, 60, 113
1, 61635, Note_on_c, 0, 58, 100
1, 61734, Note_off_c, 0, 58, 100
1, 61734, Note_on_c, 0, 60, 110
1, 61934, Note_off_c, 0, 60, 110
1, 61934, Note_on_c, 0, 65, 94
1, 61991, Note_off_c, 0, 65, 94
1, 62006, Note_on_c, 0, 69, 100
1, 62105, Note_off_c, 0, 69, 100
1, 62106, Note_on_c, 0, 68, 95
1, 62198, Note_off_c, 0, 68, 95
1, 62210, Note_on_c, 0, 67, 89
1, 62295, Note_off_c, 0, 67, 89
1, 62299, Note_on_c, 0, 63, 115
1, 62430, Note_off_c, 0, 63, 115
1, 62431, Note_on_c, 0, 62, 112
1, 62516, Note_off_c, 0, 62, 112
1, 62516, Note_on_c, 0, 60, 94
1, 62584, Note_off_c, 0, 60, 94
1, 62592, Note_on_c, 0, 65, 104
1, 62697, Note_off_c, 0, 65, 104
1, 62701, Note_on_c, 0, 62, 98
1, 62777, Note_off_c, 0, 62, 98
1, 62777, Note_on_c, 0, 63, 105
1, 62868, Note_off_c, 0, 63, 105
1, 62873, Note_on_c, 0, 65, 99
1, 62997, Note_off_c, 0, 65, 99
1, 63000, Note_on_c, 0, 67, 99
1, 63087, Note_off_c, 0, 67, 99
1, 63092, Note_on_c, 0, 68, 106
1, 63192, Note_off_c, 0, 68, 106
1, 63194, Note_on_c, 0, 70, 92
1, 63257, Note_off_c, 0, 70, 92
1, 63258, Note_on_c, 0, 71, 108
1, 63365, Note_off_c, 0, 71, 108
1, 63365, Note_on_c, 0, 73, 100
1, 63457, Note_on_c, 0, 74, 110
1, 63457, Note_off_c, 0, 73, 100
1, 63533, Note_off_c, 0, 74, 110
1, 63536, Note_on_c, 0, 76, 106
1, 63641, Note_off_c, 0, 76, 106
1, 63643, Note_on_c, 0, 77, 112
1, 63750, Note_off_c, 0, 77, 112
1, 64080, Note_on_c, 0, 80, 108
1, 64256, Note_off_c, 0, 80, 108
1, 64359, Note_on_c, 0, 74, 87
1, 64427, Note_off_c, 0, 74, 87
1, 64446, Note_on_c, 0, 79, 107
1, 64564, Note_off_c, 0, 79, 107
1, 64565, Note_on_c, 0, 80, 115
1, 64641, Note_off_c, 0, 80, 115
1, 64642, Note_on_c, 0, 79, 101
1, 64732, Note_off_c, 0, 79, 101
1, 64738, Note_on_c, 0, 78, 116
1, 64825, Note_off_c, 0, 78, 116
1, 64828, Note_on_c, 0, 77, 97
1, 64904, Note_off_c, 0, 77, 97
1, 64910, Note_on_c, 0, 76, 114
1, 65024, Note_off_c, 0, 76, 114
1, 65032, Note_on_c, 0, 74, 105
1, 65132, Note_off_c, 0, 74, 105
1, 65132, Note_on_c, 0, 72, 92
1, 65193, Note_off_c, 0, 72, 92
1, 65193, Note_on_c, 0, 77, 112
1, 65316, Note_off_c, 0, 77, 112
1, 65327, Note_on_c, 0, 72, 97
1, 65427, Note_off_c, 0, 72, 97
1, 65427, Note_on_c, 0, 73, 93
1, 65497, Note_off_c, 0, 73, 93
1, 65497, Note_on_c, 0, 75, 109
1, 65601, Note_off_c, 0, 75, 109
1, 65601, Note_on_c, 0, 76, 104
1, 65674, Note_off_c, 0, 76, 104
1, 65674, Note_on_c, 0, 78, 119
1, 65805, Note_off_c, 0, 78, 119
1, 65864, Note_on_c, 0, 81, 117
1, 65970, Note_off_c, 0, 81, 117
1, 65971, Note_on_c, 0, 83, 114
1, 66061, Note_off_c, 0, 83, 114
1, 66069, Note_on_c, 0, 84, 97
1, 66134, Note_off_c, 0, 84, 97
1, 66140, Note_on_c, 0, 86, 98
1, 66251, Note_off_c, 0, 86, 98
1, 66348, Note_on_c, 0, 88, 79
1, 66898, Note_off_c, 0, 88, 79
1, 66923, Note_on_c, 0, 86, 101
1, 67030, Note_off_c, 0, 86, 101
1, 67030, Note_on_c, 0, 88, 93
1, 67106, Note_off_c, 0, 88, 93
1, 67119, Note_on_c, 0, 83, 109
1, 67365, Note_off_c, 0, 83, 109
1, 67411, Note_on_c, 0, 81, 117
1, 67530, Note_off_c, 0, 81, 117
1, 67603, Note_on_c, 0, 83, 105
1, 67972, Note_off_c, 0, 83, 105
1, 67972, Note_on_c, 0, 78, 105
1, 68421, Note_off_c, 0, 78, 105
1, 68450, Note_on_c, 0, 76, 112
1, 68544, Note_off_c, 0, 76, 112
1, 68544, Note_on_c, 0, 78, 121
1, 68670, Note_off_c, 0, 78, 121
1, 68671, Note_on_c, 0, 71, 91
1, 68925, Note_off_c, 0, 71, 91
1, 68933, Note_on_c, 0, 64, 91
1, 69016, Note_off_c, 0, 64, 91
1, 69017, Note_on_c, 0, 69, 100
1, 69102, Note_off_c, 0, 69, 100
1, 69107, Note_on_c, 0, 71, 103
1, 69199, Note_off_c, 0, 71, 103
1, 69199, Note_on_c, 0, 66, 108
1, 69308, Note_off_c, 0, 66, 108
1, 69311, Note_on_c, 0, 59, 91
1, 69377, Note_off_c, 0, 59, 91
1, 69383, Note_on_c, 0, 64, 106
1, 69473, Note_off_c, 0, 64, 106
1, 69481, Note_on_c, 0, 66, 107
1, 69561, Note_off_c, 0, 66, 107
1, 69567, Note_on_c, 0, 59, 98
1, 69717, Note_off_c, 0, 59, 98
1, 70225, Note_on_c, 0, 58, 111
1, 70331, Note_off_c, 0, 58, 111
1, 70331, Note_on_c, 0, 60, 103
1, 70425, Note_off_c, 0, 60, 103
1, 70426, Note_on_c, 0, 65, 101
1, 70530, Note_off_c, 0, 65, 101
1, 70531, Note_on_c, 0, 60, 101
1, 70962, Note_off_c, 0, 60, 101
1, 70991, Note_on_c, 0, 63, 113
1, 71091, Note_off_c, 0, 63, 113
1, 71091, Note_on_c, 0, 68, 109
1, 71183, Note_off_c, 0, 68, 109
1, 71183, Note_on_c, 0, 62, 113
1, 71432, Note_off_c, 0, 62, 113
1, 71476, Note_on_c, 0, 66, 106
1, 71551, Note_off_c, 0, 66, 106
1, 71557, Note_on_c, 0, 69, 107
1, 71647, Note_off_c, 0, 69, 107
1, 71652, Note_on_c, 0, 66, 98
1, 71725, Note_off_c, 0, 66, 98
1, 71726, Note_on_c, 0, 67, 104
1, 71838, Note_off_c, 0, 67, 104
1, 71881, Note_on_c, 0, 69, 84
1, 71925, Note_off_c, 0, 69, 84
1, 71943, Note_on_c, 0, 71, 96
1, 71997, Note_off_c, 0, 71, 96
1, 72008, Note_on_c, 0, 74, 118
1, 72129, Note_off_c, 0, 74, 118
1, 72129, Note_on_c, 0, 71, 104
1, 72211, Note_off_c, 0, 71, 104
1, 72221, Note_on_c, 0, 69, 95
1, 72297, Note_off_c, 0, 69, 95
1, 72305, Note_on_c, 0, 67, 89
1, 72388, Note_off_c, 0, 67, 89
1, 72410, Note_on_c, 0, 73, 106
1, 72512, Note_off_c, 0, 73, 106
1, 72512, Note_on_c, 0, 71, 108
1, 72609, Note_off_c, 0, 71, 108
1, 72619, Note_on_c, 0, 69, 96
1, 72701, Note_off_c, 0, 69, 96
1, 72702, Note_on_c, 0, 67, 96
1, 72790, Note_off_c, 0, 67, 96
1, 72795, Note_on_c, 0, 70, 101
1, 72878, Note_off_c, 0, 70, 101
1, 72878, Note_on_c, 0, 67, 94
1, 72961, Note_off_c, 0, 67, 94
1, 72966, Note_on_c, 0, 68, 98
1, 73077, Note_off_c, 0, 68, 98
1, 73083, Note_on_c, 0, 70, 96
1, 73187, Note_off_c, 0, 70, 96
1, 75893, Note_on_c, 0, 70, 97
1, 75954, Note_off_c, 0, 70, 97
1, 76085, Note_on_c, 0, 82, 115
1, 76182, Note_off_c, 0, 82, 115
1, 76265, Note_on_c, 0, 82, 111
1, 76360, Note_off_c, 0, 82, 111
1, 76464, Note_on_c, 0, 80, 85
1, 76549, Note_off_c, 0, 80, 85
1, 76554, Note_on_c, 0, 82, 110
1, 76707, Note_off_c, 0, 82, 110
1, 76737, Note_on_c, 0, 80, 107
1, 76860, Note_off_c, 0, 80, 107
1, 76866, Note_on_c, 0, 77, 98
1, 76922, Note_off_c, 0, 77, 98
1, 77584, Note_on_c, 0, 79, 102
1, 77873, Note_off_c, 0, 79, 102
1, 77891, Note_on_c, 0, 77, 115
1, 77988, Note_off_c, 0, 77, 115
1, 77999, Note_on_c, 0, 79, 106
1, 78094, Note_off_c, 0, 79, 106
1, 78099, Note_on_c, 0, 77, 106
1, 78191, Note_off_c, 0, 77, 106
1, 78194, Note_on_c, 0, 74, 114
1, 78298, Note_off_c, 0, 74, 114
1, 78299, Note_on_c, 0, 72, 97
1, 78418, Note_off_c, 0, 72, 97
1, 78457, Note_on_c, 0, 69, 95
1, 78602, Note_off_c, 0, 69, 95
1, 78648, Note_on_c, 0, 72, 104
1, 78829, Note_off_c, 0, 72, 104
1, 79318, Note_on_c, 0, 69, 102
1, 79442, Note_off_c, 0, 69, 102
1, 79445, Note_on_c, 0, 70, 95
1, 79533, Note_off_c, 0, 70, 95
1, 79533, Note_on_c, 0, 71, 103
1, 79678, Note_off_c, 0, 71, 103
1, 79700, Note_on_c, 0, 67, 111
1, 79773, Note_off_c, 0, 67, 111
1, 79790, Note_on_c, 0, 64, 94
1, 79885, Note_off_c, 0, 64, 94
1, 79898, Note_on_c, 0, 60, 93
1, 79973, Note_off_c, 0, 60, 93
1, 79974, Note_on_c, 0, 65, 103
1, 80080, Note_off_c, 0, 65, 103
1, 80086, Note_on_c, 0, 63, 110
1, 80162, Note_off_c, 0, 63, 110
1, 80419, Note_on_c, 0, 61, 80
1, 80439, Note_off_c, 0, 61, 80
1, 80447, Note_on_c, 0, 62, 111
1, 80594, Note_off_c, 0, 62, 111
1, 80628, Note_on_c, 0, 61, 120
1, 80737, Note_off_c, 0, 61, 120
1, 80743, Note_on_c, 0, 65, 96
1, 80825, Note_off_c, 0, 65, 96
1, 80825, Note_on_c, 0, 68, 96
1, 80900, Note_off_c, 0, 68, 96
1, 80901, Note_on_c, 0, 72, 107
1, 81027, Note_off_c, 0, 72, 107
1, 81032, Note_on_c, 0, 70, 92
1, 81103, Note_off_c, 0, 70, 92
1, 81108, Note_on_c, 0, 71, 103
1, 81203, Note_off_c, 0, 71, 103
1, 81208, Note_on_c, 0, 67, 109
1, 81296, Note_off_c, 0, 67, 109
1, 81301, Note_on_c, 0, 66, 102
1, 81396, Note_off_c, 0, 66, 102
1, 81397, Note_on_c, 0, 64, 95
1, 81450, Note_off_c, 0, 64, 95
1, 81450, Note_on_c, 0, 69, 102
1, 81559, Note_off_c, 0, 69, 102
1, 81559, Note_on_c, 0, 66, 101
1, 81632, Note_off_c, 0, 66, 101
1, 81632, Note_on_c, 0, 67, 101
1, 81736, Note_off_c, 0, 67, 101
1, 81739, Note_on_c, 0, 69, 105
1, 81836, Note_off_c, 0, 69, 105
1, 81836, Note_on_c, 0, 70, 89
1, 81938, Note_off_c, 0, 70, 89
1, 81946, Note_on_c, 0, 71, 106
1, 82044, Note_off_c, 0, 71, 106
1, 82044, Note_on_c, 0, 74, 109
1, 82126, Note_off_c, 0, 74, 109
1, 82134, Note_on_c, 0, 78, 109
1, 82209, Note_off_c, 0, 78, 109
1, 82212, Note_on_c, 0, 81, 117
1, 82312, Note_off_c, 0, 81, 117
1, 82320, Note_on_c, 0, 78, 112
1, 82424, Note_off_c, 0, 78, 112
1, 82435, Note_on_c, 0, 74, 105
1, 82513, Note_off_c, 0, 74, 105
1, 82523, Note_on_c, 0, 71, 91
1, 82572, Note_off_c, 0, 71, 91
1, 82572, Note_on_c, 0, 78, 117
1, 82693, Note_off_c, 0, 78, 117
1, 82694, Note_on_c, 0, 76, 110
1, 82810, Note_off_c, 0, 76, 110
1, 82825, Note_on_c, 0, 73, 91
1, 82895, Note_off_c, 0, 73, 91
1, 82901, Note_on_c, 0, 71, 102
1, 82984, Note_off_c, 0, 71, 102
1, 82987, Note_on_c, 0, 70, 95
1, 83075, Note_off_c, 0, 70, 95
1, 83076, Note_on_c, 0, 71, 100
1, 83204, Note_off_c, 0, 71, 100
1, 85127, Note_on_c, 0, 63, 88
1, 85212, Note_off_c, 0, 63, 88
1, 85225, Note_on_c, 0, 73, 110
1, 85368, Note_off_c, 0, 73, 110
1, 85378, Note_on_c, 0, 69, 89
1, 85706, Note_off_c, 0, 69, 89
1, 85733, Note_on_c, 0, 64, 87
1, 85787, Note_off_c, 0, 64, 87
1, 85787, Note_on_c, 0, 71, 110
1, 85930, Note_off_c, 0, 71, 110
1, 85943, Note_on_c, 0, 67, 96
1, 86213, Note_off_c, 0, 67, 96
1, 86286, Note_on_c, 0, 64, 91
1, 86333, Note_off_c, 0, 64, 91
1, 86334, Note_on_c, 0, 69, 101
1, 86484, Note_off_c, 0, 69, 101
1, 86487, Note_on_c, 0, 66, 102
1, 86829, Note_off_c, 0, 66, 102
1, 86839, Note_on_c, 0, 64, 83
1, 86907, Note_off_c, 0, 64, 83
1, 86907, Note_on_c, 0, 67, 109
1, 87045, Note_off_c, 0, 67, 109
1, 87051, Note_on_c, 0, 65, 94
1, 87280, Note_off_c, 0, 65, 94
1, 87425, Note_on_c, 0, 58, 90
1, 87483, Note_off_c, 0, 58, 90
1, 87483, Note_on_c, 0, 65, 104
1, 87582, Note_off_c, 0, 65, 104
1, 87582, Note_on_c, 0, 63, 100
1, 87804, Note_off_c, 0, 63, 100
1, 87804, Note_on_c, 0, 59, 98
1, 87872, Note_off_c, 0, 59, 98
1, 87875, Note_on_c, 0, 62, 119
1, 88039, Note_off_c, 0, 62, 119
1, 88049, Note_on_c, 0, 64, 98
1, 88206, Note_off_c, 0, 64, 98
1, 88212, Note_on_c, 0, 59, 99
1, 88249, Note_off_c, 0, 59, 99
1, 88252, Note_on_c, 0, 66, 111
1, 88385, Note_on_c, 0, 69, 100
1, 88385, Note_off_c, 0, 66, 111
1, 88552, Note_off_c, 0, 69, 100
1, 88552, Note_on_c, 0, 64, 93
1, 88630, Note_off_c, 0, 64, 93
1, 88630, Note_on_c, 0, 71, 109
1, 88770, Note_off_c, 0, 71, 109
1, 88770, Note_on_c, 0, 73, 100
1, 88923, Note_on_c, 0, 61, 96
1, 88923, Note_off_c, 0, 73, 100
1, 89011, Note_off_c, 0, 61, 96
1, 89014, Note_on_c, 0, 68, 110
1, 89137, Note_on_c, 0, 66, 110
1, 89137, Note_off_c, 0, 68, 110
1, 89314, Note_off_c, 0, 66, 110
1, 89327, Note_on_c, 0, 61, 111
1, 89388, Note_off_c, 0, 61, 111
1, 89388, Note_on_c, 0, 69, 104
1, 89490, Note_on_c, 0, 74, 116
1, 89490, Note_off_c, 0, 69, 104
1, 89709, Note_off_c, 0, 74, 116
1, 89719, Note_on_c, 0, 63, 97
1, 89790, Note_off_c, 0, 63, 97
1, 89957, Note_on_c, 0, 79, 102
1, 90247, Note_off_c, 0, 79, 102
1, 90253, Note_on_c, 0, 74, 117
1, 90448, Note_off_c, 0, 74, 117
1, 90448, Note_on_c, 0, 77, 110
1, 90632, Note_off_c, 0, 77, 110
1, 90645, Note_on_c, 0, 72, 110
1, 90812, Note_off_c, 0, 72, 110
1, 90818, Note_on_c, 0, 74, 117
1, 90937, Note_off_c, 0, 74, 117
1, 90940, Note_on_c, 0, 72, 108
1, 91022, Note_off_c, 0, 72, 108
1, 91025, Note_on_c, 0, 69, 99
1, 91120, Note_off_c, 0, 69, 99
1, 91123, Note_on_c, 0, 67, 100
1, 91194, Note_off_c, 0, 67, 100
1, 91211, Note_on_c, 0, 62, 98
1, 91279, Note_off_c, 0, 62, 98
1, 91279, Note_on_c, 0, 69, 105
1, 91398, Note_off_c, 0, 69, 105
1, 91398, Note_on_c, 0, 62, 92
1, 91486, Note_off_c, 0, 62, 92
1, 91489, Note_on_c, 0, 67, 104
1, 91622, Note_off_c, 0, 67, 104
1, 92159, Note_on_c, 0, 76, 113
1, 92282, Note_off_c, 0, 76, 113
1, 92282, Note_on_c, 0, 79, 96
1, 92350, Note_off_c, 0, 79, 96
1, 92360, Note_on_c, 0, 83, 108
1, 92407, Note_off_c, 0, 83, 108
1, 92430, Note_on_c, 0, 86, 109
1, 92512, Note_off_c, 0, 86, 109
1, 92522, Note_on_c, 0, 85, 104
1, 92604, Note_off_c, 0, 85, 104
1, 92624, Note_on_c, 0, 84, 93
1, 92689, Note_off_c, 0, 84, 93
1, 92699, Note_on_c, 0, 83, 122
1, 92798, Note_off_c, 0, 83, 122
1, 92815, Note_on_c, 0, 82, 109
1, 92883, Note_off_c, 0, 82, 109
1, 92896, Note_on_c, 0, 80, 116
1, 92984, Note_off_c, 0, 80, 116
1, 93001, Note_on_c, 0, 79, 103
1, 93083, Note_off_c, 0, 79, 103
1, 93083, Note_on_c, 0, 78, 127
1, 93192, Note_off_c, 0, 78, 127
1, 93198, Note_on_c, 0, 77, 103
1, 93263, Note_off_c, 0, 77, 103
1, 93276, Note_on_c, 0, 76, 115
1, 93378, Note_off_c, 0, 76, 115
1, 93388, Note_on_c, 0, 75, 105
1, 93466, Note_off_c, 0, 75, 105
1, 93486, Note_on_c, 0, 73, 99
1, 93551, Note_off_c, 0, 73, 99
1, 93568, Note_on_c, 0, 72, 94
1, 93653, Note_off_c, 0, 72, 94
1, 93663, Note_on_c, 0, 70, 104
1, 93769, Note_off_c, 0, 70, 104
1, 93779, Note_on_c, 0, 69, 97
1, 93854, Note_off_c, 0, 69, 97
1, 93867, Note_on_c, 0, 67, 94
1, 93938, Note_off_c, 0, 67, 94
1, 93972, Note_on_c, 0, 70, 100
1, 94047, Note_off_c, 0, 70, 100
1, 94047, Note_on_c, 0, 67, 98
1, 94122, Note_off_c, 0, 67, 98
1, 94125, Note_on_c, 0, 68, 90
1, 94193, Note_off_c, 0, 68, 90
1, 94216, Note_on_c, 0, 70, 96
1, 94311, Note_off_c, 0, 70, 96
1, 94437, Note_on_c, 0, 73, 100
1, 94515, Note_off_c, 0, 73, 100
1, 94515, Note_on_c, 0, 75, 101
1, 94607, Note_off_c, 0, 75, 101
1, 94627, Note_on_c, 0, 78, 95
1, 95023, Note_off_c, 0, 78, 95
1, 96488, Note_on_c, 0, 71, 87
1, 96541, Note_off_c, 0, 71, 87
1, 96548, Note_on_c, 0, 82, 105
1, 96732, Note_off_c, 0, 82, 105
1, 96780, Note_on_c, 0, 79, 96
1, 96865, Note_off_c, 0, 79, 96
1, 96871, Note_on_c, 0, 75, 104
1, 96931, Note_off_c, 0, 75, 104
1, 96931, Note_on_c, 0, 71, 104
1, 97023, Note_off_c, 0, 71, 104
1, 97040, Note_on_c, 0, 70, 102
1, 97111, Note_off_c, 0, 70, 102
1, 97117, Note_on_c, 0, 69, 90
1, 97202, Note_off_c, 0, 69, 90
1, 97211, Note_on_c, 0, 67, 103
1, 97320, Note_off_c, 0, 67, 103
1, 97332, Note_on_c, 0, 68, 100
1, 97429, Note_off_c, 0, 68, 100
1, 97453, Note_on_c, 0, 72, 118
1, 97560, Note_off_c, 0, 72, 118
1, 97560, Note_on_c, 0, 67, 96
1, 97654, Note_off_c, 0, 67, 96
1, 97654, Note_on_c, 0, 65, 92
1, 97709, Note_off_c, 0, 65, 92
1, 97709, Note_on_c, 0, 70, 100
1, 97801, Note_off_c, 0, 70, 100
1, 97837, Note_on_c, 0, 68, 96
1, 97905, Note_off_c, 0, 68, 96
1, 97914, Note_on_c, 0, 72, 111
1, 98021, Note_off_c, 0, 72, 111
1, 98025, Note_on_c, 0, 67, 105
1, 98122, Note_off_c, 0, 67, 105
1, 98122, Note_on_c, 0, 63, 102
1, 98207, Note_off_c, 0, 63, 102
1, 98211, Note_on_c, 0, 60, 93
1, 98266, Note_off_c, 0, 60, 93
1, 98273, Note_on_c, 0, 65, 101
1, 98367, Note_off_c, 0, 65, 101
1, 98381, Note_on_c, 0, 61, 109
1, 98466, Note_off_c, 0, 61, 109
1, 98466, Note_on_c, 0, 62, 104
1, 98548, Note_off_c, 0, 62, 104
1, 98567, Note_on_c, 0, 66, 114
1, 98657, Note_off_c, 0, 66, 114
1, 98664, Note_on_c, 0, 69, 89
1, 98751, Note_off_c, 0, 69, 89
1, 98763, Note_on_c, 0, 73, 89
1, 98818, Note_off_c, 0, 73, 89
1, 98827, Note_on_c, 0, 76, 114
1, 98924, Note_off_c, 0, 76, 114
1, 98936, Note_on_c, 0, 74, 112
1, 99033, Note_on_c, 0, 73, 96
1, 99033, Note_off_c, 0, 74, 112
1, 99113, Note_off_c, 0, 73, 96
1, 99126, Note_on_c, 0, 71, 107
1, 99208, Note_off_c, 0, 71, 107
1, 99213, Note_on_c, 0, 70, 80
1, 99675, Note_off_c, 0, 70, 80
1, 99819, Note_on_c, 0, 68, 102
1, 99911, Note_off_c, 0, 68, 102
1, 99920, Note_on_c, 0, 70, 96
1, 100034, Note_off_c, 0, 70, 96
1, 100063, Note_on_c, 0, 61, 9
1, 100476, Note_off_c, 0, 61, 9
1, 100843, Note_on_c, 0, 64, 107
1, 100985, Note_off_c, 0, 64, 107
1, 100986, Note_on_c, 0, 66, 112
1, 101122, Note_off_c, 0, 66, 112
1, 101136, Note_on_c, 0, 67, 108
1, 101255, Note_off_c, 0, 67, 108
1, 101255, Note_on_c, 0, 69, 98
1, 101362, Note_off_c, 0, 69, 98
1, 101369, Note_on_c, 0, 71, 99
1, 101468, Note_off_c, 0, 71, 99
1, 101482, Note_on_c, 0, 74, 106
1, 101776, Note_off_c, 0, 74, 106
1, 102289, Note_on_c, 0, 75, 100
1, 102578, Note_off_c, 0, 75, 100
1, 102597, Note_on_c, 0, 72, 91
1, 103163, Note_off_c, 0, 72, 91
1, 103418, Note_on_c, 0, 62, 94
1, 103467, Note_off_c, 0, 62, 94
1, 103467, Note_on_c, 0, 74, 117
1, 103632, Note_off_c, 0, 74, 117
1, 103635, Note_on_c, 0, 71, 87
1, 104150, Note_off_c, 0, 71, 87
1, 104183, Note_on_c, 0, 63, 93
1, 104255, Note_off_c, 0, 63, 93
1, 104277, Note_on_c, 0, 73, 104
1, 104384, Note_off_c, 0, 73, 104
1, 104391, Note_on_c, 0, 70, 81
1, 104904, Note_off_c, 0, 70, 81
1, 104935, Note_on_c, 0, 69, 103
1, 105039, Note_off_c, 0, 69, 103
1, 105133, Note_on_c, 0, 72, 109
1, 105295, Note_off_c, 0, 72, 109
1, 105822, Note_on_c, 0, 71, 118
1, 105929, Note_off_c, 0, 71, 118
1, 105934, Note_on_c, 0, 68, 107
1, 106026, Note_off_c, 0, 68, 107
1, 106901, Note_on_c, 0, 63, 94
1, 106974, Note_off_c, 0, 63, 94
1, 106986, Note_on_c, 0, 71, 108
1, 107132, Note_off_c, 0, 71, 108
1, 107168, Note_on_c, 0, 71, 112
1, 107275, Note_off_c, 0, 71, 112
1, 107280, Note_on_c, 0, 68, 97
1, 107368, Note_off_c, 0, 68, 97
1, 107371, Note_on_c, 0, 71, 101
1, 107442, Note_off_c, 0, 71, 101
1, 107448, Note_on_c, 0, 73, 108
1, 107550, Note_off_c, 0, 73, 108
1, 107550, Note_on_c, 0, 71, 102
1, 107635, Note_off_c, 0, 71, 102
1, 107645, Note_on_c, 0, 68, 96
1, 107727, Note_off_c, 0, 68, 96
1, 107750, Note_on_c, 0, 71, 107
1, 107892, Note_off_c, 0, 71, 107
1, 108579, Note_on_c, 0, 64, 107
1, 108606, Note_on_c, 0, 69, 119
1, 108606, Note_off_c, 0, 64, 107
1, 108676, Note_off_c, 0, 69, 119
1, 108768, Note_on_c, 0, 60, 103
1, 108810, Note_off_c, 0, 60, 103
1, 108817, Note_on_c, 0, 66, 103
1, 108887, Note_off_c, 0, 66, 103
1, 108887, Note_on_c, 0, 69, 114
1, 108979, Note_off_c, 0, 69, 114
1, 109006, Note_on_c, 0, 71, 115
1, 109094, Note_off_c, 0, 71, 115
1, 109104, Note_on_c, 0, 69, 107
1, 109182, Note_off_c, 0, 69, 107
1, 109182, Note_on_c, 0, 65, 108
1, 109265, Note_off_c, 0, 65, 108
1, 109265, Note_on_c, 0, 69, 113
1, 109386, Note_off_c, 0, 69, 113
1, 112351, Note_on_c, 0, 84, 100
1, 112457, Note_off_c, 0, 84, 100
1, 112464, Note_on_c, 0, 83, 114
1, 112552, Note_off_c, 0, 83, 114
1, 112555, Note_on_c, 0, 81, 111
1, 112626, Note_off_c, 0, 81, 111
1, 112646, Note_on_c, 0, 79, 112
1, 112728, Note_off_c, 0, 79, 112
1, 112738, Note_on_c, 0, 77, 114
1, 112830, Note_off_c, 0, 77, 114
1, 112840, Note_on_c, 0, 74, 114
1, 112939, Note_off_c, 0, 74, 114
1, 112945, Note_on_c, 0, 72, 108
1, 113027, Note_off_c, 0, 72, 108
1, 113040, Note_on_c, 0, 70, 106
1, 113105, Note_off_c, 0, 70, 106
1, 113105, Note_on_c, 0, 69, 100
1, 113207, Note_off_c, 0, 69, 100
1, 113213, Note_on_c, 0, 70, 105
1, 113274, Note_off_c, 0, 70, 105
1, 113277, Note_on_c, 0, 72, 110
1, 113384, Note_off_c, 0, 72, 110
1, 113384, Note_on_c, 0, 74, 117
1, 113474, Note_off_c, 0, 74, 117
1, 113474, Note_on_c, 0, 69, 101
1, 113696, Note_off_c, 0, 69, 101
1, 113747, Note_on_c, 0, 69, 100
1, 113935, Note_off_c, 0, 69, 100
1, 113958, Note_on_c, 0, 72, 113
1, 114118, Note_off_c, 0, 72, 113
1, 114118, Note_on_c, 0, 76, 103
1, 114299, Note_off_c, 0, 76, 103
1, 114302, Note_on_c, 0, 79, 113
1, 114486, Note_off_c, 0, 79, 113
1, 114506, Note_on_c, 0, 78, 125
1, 114690, Note_off_c, 0, 78, 125
1, 114690, Note_on_c, 0, 75, 113
1, 114796, Note_off_c, 0, 75, 113
1, 114802, Note_on_c, 0, 74, 111
1, 114884, Note_off_c, 0, 74, 111
1, 114890, Note_on_c, 0, 72, 116
1, 115013, Note_off_c, 0, 72, 116
1, 115019, Note_on_c, 0, 71, 108
1, 115104, Note_off_c, 0, 71, 108
1, 115104, Note_on_c, 0, 68, 111
1, 115198, Note_off_c, 0, 68, 111
1, 115198, Note_on_c, 0, 67, 102
1, 115285, Note_off_c, 0, 67, 102
1, 115287, Note_on_c, 0, 66, 119
1, 115379, Note_off_c, 0, 66, 119
1, 115380, Note_on_c, 0, 65, 109
1, 115455, Note_off_c, 0, 65, 109
1, 115461, Note_on_c, 0, 64, 95
1, 115531, Note_off_c, 0, 64, 95
1, 115532, Note_on_c, 0, 63, 113
1, 115663, Note_off_c, 0, 63, 113
1, 115672, Note_on_c, 0, 59, 106
1, 115747, Note_off_c, 0, 59, 106
1, 115754, Note_on_c, 0, 61, 114
1, 115854, Note_off_c, 0, 61, 114
1, 115857, Note_on_c, 0, 62, 101
1, 115976, Note_off_c, 0, 62, 101
1, 115987, Note_on_c, 0, 59, 95
1, 116079, Note_off_c, 0, 59, 95
1, 116079, Note_on_c, 0, 69, 108
1, 116205, Note_off_c, 0, 69, 108
1, 116210, Note_on_c, 0, 66, 117
1, 116312, Note_off_c, 0, 66, 117
1, 116313, Note_on_c, 0, 64, 104
1, 116388, Note_off_c, 0, 64, 104
1, 116397, Note_on_c, 0, 62, 104
1, 116472, Note_off_c, 0, 62, 104
1, 116484, Note_on_c, 0, 66, 117
1, 116598, Note_off_c, 0, 66, 117
1, 116610, Note_on_c, 0, 62, 103
1, 116670, Note_off_c, 0, 62, 103
1, 116672, Note_on_c, 0, 64, 100
1, 116754, Note_off_c, 0, 64, 100
1, 116766, Note_on_c, 0, 66, 110
1, 116843, Note_off_c, 0, 66, 110
1, 116863, Note_on_c, 0, 71, 116
1, 116980, Note_off_c, 0, 71, 116
1, 116980, Note_on_c, 0, 69, 99
1, 117062, Note_off_c, 0, 69, 99
1, 117140, Note_on_c, 0, 64, 106
1, 117225, Note_off_c, 0, 64, 106
1, 117227, Note_on_c, 0, 63, 113
1, 117324, Note_off_c, 0, 63, 113
1, 117328, Note_on_c, 0, 64, 107
1, 117415, Note_off_c, 0, 64, 107
1, 117419, Note_on_c, 0, 66, 102
1, 117530, Note_off_c, 0, 66, 102
1, 117530, Note_on_c, 0, 68, 91
1, 117603, Note_off_c, 0, 68, 91
1, 117622, Note_on_c, 0, 71, 110
1, 117721, Note_off_c, 0, 71, 110
1, 117730, Note_on_c, 0, 67, 112
1, 117815, Note_off_c, 0, 67, 112
1, 117824, Note_on_c, 0, 64, 93
1, 117906, Note_off_c, 0, 64, 93
1, 118010, Note_on_c, 0, 63, 116
1, 118102, Note_off_c, 0, 63, 116
1, 118109, Note_on_c, 0, 59, 104
1, 118167, Note_off_c, 0, 59, 104
1, 118181, Note_on_c, 0, 61, 101
1, 118256, Note_off_c, 0, 61, 101
1, 118270, Note_on_c, 0, 63, 113
1, 118350, Note_off_c, 0, 63, 113
1, 118367, Note_on_c, 0, 60, 94
1, 118454, Note_on_c, 0, 63, 116
1, 118454, Note_off_c, 0, 60, 94
1, 118558, Note_off_c, 0, 63, 116
1, 118575, Note_on_c, 0, 67, 102
1, 118679, Note_off_c, 0, 67, 102
1, 118690, Note_on_c, 0, 70, 104
1, 118763, Note_off_c, 0, 70, 104
1, 118795, Note_on_c, 0, 65, 90
1, 118870, Note_off_c, 0, 65, 90
1, 118883, Note_on_c, 0, 68, 110
1, 118966, Note_off_c, 0, 68, 110
1, 118976, Note_on_c, 0, 72, 107
1, 119078, Note_off_c, 0, 72, 107
1, 119088, Note_on_c, 0, 75, 99
1, 119159, Note_off_c, 0, 75, 99
1, 119164, Note_on_c, 0, 77, 114
1, 119324, Note_off_c, 0, 77, 114
1, 119358, Note_on_c, 0, 74, 116
1, 119469, Note_off_c, 0, 74, 116
1, 119469, Note_on_c, 0, 77, 117
1, 119573, Note_off_c, 0, 77, 117
1, 119579, Note_on_c, 0, 74, 113
1, 119669, Note_off_c, 0, 74, 113
1, 119672, Note_on_c, 0, 70, 98
1, 119731, Note_off_c, 0, 70, 98
1, 119754, Note_on_c, 0, 67, 94
1, 119834, Note_off_c, 0, 67, 94
1, 119851, Note_on_c, 0, 67, 106
1, 119929, Note_off_c, 0, 67, 106
1, 119937, Note_on_c, 0, 69, 94
1, 120010, Note_off_c, 0, 69, 94
1, 120020, Note_on_c, 0, 74, 120
1, 120148, Note_off_c, 0, 74, 120
1, 120148, Note_on_c, 0, 78, 100
1, 120223, Note_off_c, 0, 78, 100
1, 120228, Note_on_c, 0, 81, 113
1, 120371, Note_off_c, 0, 81, 113
1, 120371, Note_on_c, 0, 73, 103
1, 120449, Note_off_c, 0, 73, 103
1, 120449, End_track
0, 0, End_of_file
