0, 0, Header, 1, 1, 192
1, 0, Start_track
1, 0, Title_t, "Melody"
1, 0, Tempo, 224719
1, 0, Time_signature, 4, 2, 24, 8
1, 5890, Note_on_c, 0, 57, 96
1, 6161, Note_off_c, 0, 57, 96
1, 6170, Note_on_c, 0, 62, 112
1, 6390, Note_off_c, 0, 62, 112
1, 6390, Note_on_c, 0, 57, 101
1, 6558, Note_off_c, 0, 57, 101
1, 6558, Note_on_c, 0, 56, 100
1, 7254, Note_off_c, 0, 56, 100
1, 7392, Note_on_c, 0, 55, 118
1, 7512, Note_off_c, 0, 55, 118
1, 7513, Note_on_c, 0, 54, 111
1, 7596, Note_off_c, 0, 54, 111
1, 7597, Note_on_c, 0, 55, 111
1, 7684, Note_off_c, 0, 55, 111
1, 7685, Note_on_c, 0, 57, 107
1, 7765, Note_off_c, 0, 57, 107
1, 7765, Note_on_c, 0, 58, 107
1, 7836, Note_off_c, 0, 58, 107
1, 7836, Note_on_c, 0, 60, 119
1, 7944, Note_off_c, 0, 60, 119
1, 7945, Note_on_c, 0, 61, 116
1, 8054, Note_off_c, 0, 61, 116
1, 8054, Note_on_c, 0, 62, 111
1, 8127, Note_off_c, 0, 62, 111
1, 8127, Note_on_c, 0, 67, 112
1, 8311, Note_off_c, 0, 67, 112
1, 8420, Note_on_c, 0, 62, 118
1, 8542, Note_off_c, 0, 62, 118
1, 8634, Note_on_c, 0, 61, 122
1, 8761, Note_off_c, 0, 61, 122
1, 9296, Note_on_c, 0, 60, 121
1, 9464, Note_off_c, 0, 60, 121
1, 9558, Note_on_c, 0, 59, 121
1, 9664, Note_off_c, 0, 59, 121
1, 9668, Note_on_c, 0, 58, 107
1, 9759, Note_off_c, 0, 58, 107
1, 9766, Note_on_c, 0, 57, 104
1, 9845, Note_off_c, 0, 57, 104
1, 9849, Note_on_c, 0, 56, 109
1, 9967, Note_off_c, 0, 56, 109
1, 10620, Note_on_c, 0, 55, 116
1, 10741, Note_off_c, 0, 55, 116
1, 10831, Note_on_c, 0, 53, 112
1, 10922, Note_off_c, 0, 53, 112
1, 10940, Note_on_c, 0, 55, 107
1, 11008, Note_off_c, 0, 55, 107
1, 11010, Note_on_c, 0, 56, 108
1, 11084, Note_off_c, 0, 56, 108
1, 11108, Note_on_c, 0, 57, 101
1, 11189, Note_off_c, 0, 57, 101
1, 11193, Note_on_c, 0, 58, 104
1, 11273, Note_off_c, 0, 58, 104
1, 11277, Note_on_c, 0, 60, 112
1, 11356, Note_off_c, 0, 60, 112
1, 11357, Note_on_c, 0, 63, 108
1, 11515, Note_off_c, 0, 63, 108
1, 11572, Note_on_c, 0, 62, 118
1, 11735, Note_off_c, 0, 62, 118
1, 11787, Note_on_c, 0, 61, 122
1, 11876, Note_off_c, 0, 61, 122
1, 11879, Note_on_c, 0, 59, 113
1, 11942, Note_off_c, 0, 59, 113
1, 12359, Note_on_c, 0, 60, 117
1, 12471, Note_off_c, 0, 60, 117
1, 12483, Note_on_c, 0, 57, 97
1, 12518, Note_off_c, 0, 57, 97
1, 12533, Note_on_c, 0, 58, 109
1, 12650, Note_off_c, 0, 58, 109
1, 12924, Note_on_c, 0, 57, 110
1, 13037, Note_off_c, 0, 57, 110
1, 13042, Note_on_c, 0, 55, 105
1, 13118, Note_off_c, 0, 55, 105
1, 13133, Note_on_c, 0, 56, 112
1, 13220, Note_off_c, 0, 56, 112
1, 13223, Note_on_c, 0, 54, 106
1, 13304, Note_off_c, 0, 54, 106
1, 13310, Note_on_c, 0, 55, 110
1, 13390, Note_off_c, 0, 55, 110
1, 13398, Note_on_c, 0, 54, 115
1, 13483, Note_off_c, 0, 54, 115
1, 13489, Note_on_c, 0, 53, 105
1, 13604, Note_off_c, 0, 53, 105
1, 13610, Note_on_c, 0, 52, 118
1, 13707, Note_off_c, 0, 52, 118
1, 13719, Note_on_c, 0, 50, 96
1, 13823, Note_off_c, 0, 50, 96
1, 13877, Note_on_c, 0, 51, 110
1, 14004, Note_off_c, 0, 51, 110
1, 14016, Note_on_c, 0, 48, 111
1, 14111, Note_off_c, 0, 48, 111
1, 14112, Note_on_c, 0, 49, 113
1, 14186, Note_off_c, 0, 49, 113
1, 14191, Note_on_c, 0, 51, 105
1, 14278, Note_off_c, 0, 51, 105
1, 14281, Note_on_c, 0, 52, 107
1, 14364, Note_off_c, 0, 52, 107
1, 14364, Note_on_c, 0, 54, 108
1, 14454, Note_off_c, 0, 54, 108
1, 14454, Note_on_c, 0, 55, 106
1, 14539, Note_off_c, 0, 55, 106
1, 14542, Note_on_c, 0, 57, 103
1, 14627, Note_off_c, 0, 57, 103
1, 14630, Note_on_c, 0, 58, 106
1, 14715, Note_off_c, 0, 58, 106
1, 14715, Note_on_c, 0, 60, 112
1, 14814, Note_on_c, 0, 61, 123
1, 14814, Note_off_c, 0, 60, 112
1, 14929, Note_off_c, 0, 61, 123
1, 15040, Note_on_c, 0, 60, 114
1, 15325, Note_off_c, 0, 60, 114
1, 15325, Note_on_c, 0, 55, 98
1, 15502, Note_off_c, 0, 55, 98
1, 15505, Note_on_c, 0, 58, 103
1, 15695, Note_off_c, 0, 58, 103
1, 15698, Note_on_c, 0, 57, 104
1, 15818, Note_off_c, 0, 57, 104
1, 15818, Note_on_c, 0, 56, 103
1, 15917, Note_off_c, 0, 56, 103
1, 15917, Note_on_c, 0, 58, 109
1, 15979, Note_off_c, 0, 58, 109
1, 15985, Note_on_c, 0, 60, 107
1, 16169, Note_off_c, 0, 60, 107
1, 16175, Note_on_c, 0, 55, 116
1, 16297, Note_off_c, 0, 55, 116
1, 16298, Note_on_c, 0, 56, 114
1, 16388, Note_off_c, 0, 56, 114
1, 16388, Note_on_c, 0, 58, 109
1, 16510, Note_off_c, 0, 58, 109
1, 16595, Note_on_c, 0, 53, 117
1, 16692, Note_off_c, 0, 53, 117
1, 16695, Note_on_c, 0, 55, 107
1, 16799, Note_off_c, 0, 55, 107
1, 16799, Note_on_c, 0, 56, 107
1, 16931, Note_off_c, 0, 56, 107
1, 16979, Note_on_c, 0, 52, 111
1, 17094, Note_off_c, 0, 52, 111
1, 17094, Note_on_c, 0, 53, 112
1, 17144, Note_off_c, 0, 53, 112
1, 17144, Note_on_c, 0, 55, 116
1, 17248, Note_off_c, 0, 55, 116
1, 17248, Note_on_c, 0, 53, 107
1, 17499, Note_off_c, 0, 53, 107
1, 18186, Note_on_c, 0, 48, 108
1, 18283, Note_off_c, 0, 48, 108
1, 18294, Note_on_c, 0, 51, 108
1, 18377, Note_off_c, 0, 51, 108
1, 18390, Note_on_c, 0, 55, 108
1, 18480, Note_off_c, 0, 55, 108
1, 18500, Note_on_c, 0, 50, 100
1, 18566, Note_off_c, 0, 50, 100
1, 18658, Note_on_c, 0, 56, 115
1, 18753, Note_off_c, 0, 56, 115
1, 18754, Note_on_c, 0, 57, 111
1, 18844, Note_off_c, 0, 57, 111
1, 18850, Note_on_c, 0, 58, 112
1, 19071, Note_off_c, 0, 58, 112
1, 19076, Note_on_c, 0, 56, 115
1, 19184, Note_off_c, 0, 56, 115
1, 20008, Note_on_c, 0, 58, 121
1, 20144, Note_off_c, 0, 58, 121
1, 20147, Note_on_c, 0, 55, 114
1, 20242, Note_off_c, 0, 55, 114
1, 20245, Note_on_c, 0, 56, 113
1, 20314, Note_off_c, 0, 56, 113
1, 20314, Note_on_c, 0, 58, 117
1, 20395, Note_off_c, 0, 58, 117
1, 20408, Note_on_c, 0, 59, 101
1, 20481, Note_off_c, 0, 59, 101
1, 20489, Note_on_c, 0, 61, 102
1, 20625, Note_off_c, 0, 61, 102
1, 20635, Note_on_c, 0, 63, 119
1, 20704, Note_off_c, 0, 63, 119
1, 20709, Note_on_c, 0, 64, 112
1, 20777, Note_off_c, 0, 64, 112
1, 20777, Note_on_c, 0, 65, 108
1, 20869, Note_off_c, 0, 65, 108
1, 20884, Note_on_c, 0, 67, 108
1, 20969, Note_off_c, 0, 67, 108
1, 20969, Note_on_c, 0, 68, 110
1, 21103, Note_off_c, 0, 68, 110
1, 21103, Note_on_c, 0, 64, 102
1, 21153, Note_off_c, 0, 64, 102
1, 21153, Note_on_c, 0, 67, 119
1, 21313, Note_off_c, 0, 67, 119
1, 21313, Note_on_c, 0, 64, 96
1, 21353, Note_off_c, 0, 64, 96
1, 21384, Note_on_c, 0, 65, 108
1, 21471, Note_off_c, 0, 65, 108
1, 21476, Note_on_c, 0, 67, 121
1, 21584, Note_off_c, 0, 67, 121
1, 21601, Note_on_c, 0, 68, 107
1, 21667, Note_off_c, 0, 68, 107
1, 21673, Note_on_c, 0, 70, 108
1, 21761, Note_off_c, 0, 70, 108
1, 21776, Note_on_c, 0, 71, 108
1, 21861, Note_off_c, 0, 71, 108
1, 21861, Note_on_c, 0, 72, 116
1, 21969, Note_off_c, 0, 72, 116
1, 21972, Note_on_c, 0, 73, 110
1, 22066, Note_off_c, 0, 73, 110
1, 22067, Note_on_c, 0, 74, 104
1, 22227, Note_off_c, 0, 74, 104
1, 22237, Note_on_c, 0, 73, 117
1, 22327, Note_off_c, 0, 73, 117
1, 22330, Note_on_c, 0, 72, 115
1, 22382, Note_off_c, 0, 72, 115
1, 22397, Note_on_c, 0, 71, 104
1, 22452, Note_off_c, 0, 71, 104
1, 22452, Note_on_c, 0, 70, 120
1, 22546, Note_off_c, 0, 70, 120
1, 22551, Note_on_c, 0, 69, 111
1, 22634, Note_off_c, 0, 69, 111
1, 22637, Note_on_c, 0, 68, 115
1, 22760, Note_on_c, 0, 67, 104
1, 22760, Note_off_c, 0, 68, 115
1, 22828, Note_off_c, 0, 67, 104
1, 22828, Note_on_c, 0, 66, 117
1, 22955, Note_off_c, 0, 66, 117
1, 22956, Note_on_c, 0, 65, 111
1, 23029, Note_off_c, 0, 65, 111
1, 23029, Note_on_c, 0, 64, 113
1, 23117, Note_off_c, 0, 64, 113
1, 23117, Note_on_c, 0, 63, 115
1, 23240, Note_off_c, 0, 63, 115
1, 23241, Note_on_c, 0, 68, 114
1, 23315, Note_off_c, 0, 68, 114
1, 23315, Note_on_c, 0, 62, 116
1, 23454, Note_off_c, 0, 62, 116
1, 23508, Note_on_c, 0, 62, 123
1, 23680, Note_off_c, 0, 62, 123
1, 23709, Note_on_c, 0, 62, 122
1, 23825, Note_off_c, 0, 62, 122
1, 23831, Note_on_c, 0, 60, 113
1, 23912, Note_off_c, 0, 60, 113
1, 23912, Note_on_c, 0, 61, 120
1, 23995, Note_off_c, 0, 61, 120
1, 23995, Note_on_c, 0, 64, 119
1, 24087, Note_off_c, 0, 64, 119
1, 24087, Note_on_c, 0, 63, 120
1, 24199, Note_off_c, 0, 63, 120
1, 24199, Note_on_c, 0, 61, 126
1, 24303, Note_off_c, 0, 61, 126
1, 24306, Note_on_c, 0, 60, 101
1, 24365, Note_off_c, 0, 60, 101
1, 24377, Note_on_c, 0, 58, 122
1, 24519, Note_off_c, 0, 58, 122
1, 24524, Note_on_c, 0, 57, 105
1, 24591, Note_off_c, 0, 57, 105
1, 24597, Note_on_c, 0, 55, 99
1, 24672, Note_off_c, 0, 55, 99
1, 24692, Note_on_c, 0, 56, 123
1, 24807, Note_off_c, 0, 56, 123
1, 24807, Note_on_c, 0, 52, 113
1, 24881, Note_off_c, 0, 52, 113
1, 24881, Note_on_c, 0, 54, 107
1, 24973, Note_off_c, 0, 54, 107
1, 24979, Note_on_c, 0, 57, 113
1, 25070, Note_off_c, 0, 57, 113
1, 25071, Note_on_c, 0, 56, 119
1, 25175, Note_off_c, 0, 56, 119
1, 25175, Note_on_c, 0, 54, 116
1, 25275, Note_off_c, 0, 54, 116
1, 25275, Note_on_c, 0, 53, 116
1, 25357, Note_off_c, 0, 53, 116
1, 25357, Note_on_c, 0, 54, 119
1, 25476, Note_off_c, 0, 54, 119
1, 25476, Note_on_c, 0, 56, 117
1, 25583, Note_off_c, 0, 56, 117
1, 25586, Note_on_c, 0, 57, 116
1, 25655, Note_off_c, 0, 57, 116
1, 25655, Note_on_c, 0, 58, 111
1, 25741, Note_off_c, 0, 58, 111
1, 25745, Note_on_c, 0, 60, 109
1, 25841, Note_off_c, 0, 60, 109
1, 25842, Note_on_c, 0, 62, 114
1, 25937, Note_off_c, 0, 62, 114
1, 25939, Note_on_c, 0, 63, 119
1, 26059, Note_off_c, 0, 63, 119
1, 26144, Note_on_c, 0, 59, 101
1, 26223, Note_off_c, 0, 59, 101
1, 26223, Note_on_c, 0, 62, 122
1, 26352, Note_off_c, 0, 62, 122
1, 26352, Note_on_c, 0, 61, 123
1, 26447, Note_off_c, 0, 61, 123
1, 26450, Note_on_c, 0, 60, 115
1, 26528, Note_off_c, 0, 60, 115
1, 26528, Note_on_c, 0, 59, 115
1, 26624, Note_off_c, 0, 59, 115
1, 26624, Note_on_c, 0, 58, 113
1, 26698, Note_off_c, 0, 58, 113
1, 26698, Note_on_c, 0, 56, 118
1, 26802, Note_off_c, 0, 56, 118
1, 26803, Note_on_c, 0, 55, 116
1, 26867, Note_off_c, 0, 55, 116
1, 26898, Note_on_c, 0, 54, 117
1, 27013, Note_off_c, 0, 54, 117
1, 27015, Note_on_c, 0, 53, 113
1, 27110, Note_off_c, 0, 53, 113
1, 27112, Note_on_c, 0, 52, 108
1, 27189, Note_off_c, 0, 52, 108
1, 27195, Note_on_c, 0, 51, 111
1, 27331, Note_off_c, 0, 51, 111
1, 27397, Note_on_c, 0, 51, 108
1, 27504, Note_off_c, 0, 51, 108
1, 27527, Note_on_c, 0, 56, 117
1, 27643, Note_off_c, 0, 56, 117
1, 27643, Note_on_c, 0, 52, 111
1, 27774, Note_off_c, 0, 52, 111
1, 27797, Note_on_c, 0, 52, 113
1, 27906, Note_off_c, 0, 52, 113
1, 27914, Note_on_c, 0, 56, 116
1, 28005, Note_off_c, 0, 56, 116
1, 28007, Note_on_c, 0, 53, 114
1, 28138, Note_off_c, 0, 53, 114
1, 28195, Note_on_c, 0, 53, 109
1, 28306, Note_off_c, 0, 53, 109
1, 28306, Note_on_c, 0, 57, 109
1, 28374, Note_off_c, 0, 57, 109
1, 28383, Note_on_c, 0, 54, 112
1, 28525, Note_off_c, 0, 54, 112
1, 28583, Note_on_c, 0, 54, 114
1, 28678, Note_off_c, 0, 54, 114
1, 28684, Note_on_c, 0, 58, 116
1, 28786, Note_off_c, 0, 58, 116
1, 28795, Note_on_c, 0, 55, 112
1, 28880, Note_off_c, 0, 55, 112
1, 28880, Note_on_c, 0, 59, 119
1, 29015, Note_off_c, 0, 59, 119
1, 29069, Note_on_c, 0, 56, 116
1, 29186, Note_off_c, 0, 56, 116
1, 29255, Note_on_c, 0, 60, 118
1, 29406, Note_off_c, 0, 60, 118
1, 29472, Note_on_c, 0, 56, 100
1, 29542, Note_off_c, 0, 56, 100
1, 29543, Note_on_c, 0, 59, 118
1, 29706, Note_off_c, 0, 59, 118
1, 29766, Note_on_c, 0, 56, 112
1, 29863, Note_off_c, 0, 56, 112
1, 29867, Note_on_c, 0, 57, 113
1, 29948, Note_off_c, 0, 57, 113
1, 29949, Note_on_c, 0, 58, 114
1, 30037, Note_off_c, 0, 58, 114
1, 30039, Note_on_c, 0, 59, 114
1, 30127, Note_off_c, 0, 59, 114
1, 30130, Note_on_c, 0, 60, 114
1, 30210, Note_off_c, 0, 60, 114
1, 30211, Note_on_c, 0, 61, 123
1, 30289, Note_off_c, 0, 61, 123
1, 30297, Note_on_c, 0, 62, 114
1, 30429, Note_off_c, 0, 62, 114
1, 30506, Note_on_c, 0, 63, 107
1, 30863, Note_off_c, 0, 63, 107
1, 30876, Note_on_c, 0, 62, 118
1, 31153, Note_off_c, 0, 62, 118
1, 31154, Note_on_c, 0, 61, 125
1, 31431, Note_off_c, 0, 61, 125
1, 32060, Note_on_c, 0, 62, 124
1, 32208, Note_off_c, 0, 62, 124
1, 32248, Note_on_c, 0, 62, 119
1, 32370, Note_off_c, 0, 62, 119
1, 32371, Note_on_c, 0, 60, 103
1, 32461, Note_off_c, 0, 60, 103
1, 32464, Note_on_c, 0, 61, 122
1, 32561, Note_off_c, 0, 61, 122
1, 32571, Note_on_c, 0, 59, 102
1, 32625, Note_off_c, 0, 59, 102
1, 32628, Note_on_c, 0, 60, 121
1, 32734, Note_off_c, 0, 60, 121
1, 32740, Note_on_c, 0, 59, 114
1, 32825, Note_off_c, 0, 59, 114
1, 32842, Note_on_c, 0, 58, 104
1, 32901, Note_off_c, 0, 58, 104
1, 33129, Note_on_c, 0, 67, 106
1, 33320, Note_off_c, 0, 67, 106
1, 33332, Note_on_c, 0, 66, 102
1, 33389, Note_off_c, 0, 66, 102
1, 33394, Note_on_c, 0, 67, 114
1, 33591, Note_off_c, 0, 67, 114
1, 33803, Note_on_c, 0, 66, 108
1, 33949, Note_off_c, 0, 66, 108
1, 33981, Note_on_c, 0, 65, 108
1, 34125, Note_off_c, 0, 65, 108
1, 34268, Note_on_c, 0, 63, 114
1, 34445, Note_off_c, 0, 63, 114
1, 34455, Note_on_c, 0, 63, 119
1, 34552, Note_off_c, 0, 63, 119
1, 34562, Note_on_c, 0, 61, 116
1, 34663, Note_off_c, 0, 61, 116
1, 35322, Note_on_c, 0, 62, 118
1, 35452, Note_off_c, 0, 62, 118
1, 35452, Note_on_c, 0, 60, 109
1, 35516, Note_off_c, 0, 60, 109
1, 35517, Note_on_c, 0, 61, 119
1, 35619, Note_off_c, 0, 61, 119
1, 35619, Note_on_c, 0, 63, 115
1, 35725, Note_off_c, 0, 63, 115
1, 35725, Note_on_c, 0, 64, 101
1, 35787, Note_off_c, 0, 64, 101
1, 35800, Note_on_c, 0, 66, 105
1, 35876, Note_off_c, 0, 66, 105
1, 35909, Note_on_c, 0, 67, 101
1, 35983, Note_off_c, 0, 67, 101
1, 35983, Note_on_c, 0, 69, 109
1, 36103, Note_off_c, 0, 69, 109
1, 36104, Note_on_c, 0, 70, 105
1, 36196, Note_off_c, 0, 70, 105
1, 36199, Note_on_c, 0, 72, 98
1, 36267, Note_off_c, 0, 72, 98
1, 36280, Note_on_c, 0, 73, 113
1, 36403, Note_off_c, 0, 73, 113
1, 36411, Note_on_c, 0, 70, 93
1, 36475, Note_off_c, 0, 70, 93
1, 36481, Note_on_c, 0, 72, 105
1, 36575, Note_off_c, 0, 72, 105
1, 36575, Note_on_c, 0, 67, 113
1, 36683, Note_off_c, 0, 67, 113
1, 36689, Note_on_c, 0, 64, 101
1, 36784, Note_off_c, 0, 64, 101
1, 36789, Note_on_c, 0, 60, 98
1, 36848, Note_off_c, 0, 60, 98
1, 36872, Note_on_c, 0, 70, 113
1, 36955, Note_off_c, 0, 70, 113
1, 36967, Note_on_c, 0, 60, 98
1, 37010, Note_off_c, 0, 60, 98
1, 37041, Note_on_c, 0, 65, 100
1, 37112, Note_off_c, 0, 65, 100
1, 37129, Note_on_c, 0, 70, 110
1, 37212, Note_off_c, 0, 70, 110
1, 37220, Note_on_c, 0, 69, 107
1, 37298, Note_off_c, 0, 69, 107
1, 37308, Note_on_c, 0, 66, 101
1, 37398, Note_off_c, 0, 66, 101
1, 37408, Note_on_c, 0, 65, 98
1, 37486, Note_off_c, 0, 65, 98
1, 37492, Note_on_c, 0, 63, 119
1, 37600, Note_off_c, 0, 63, 119
1, 37603, Note_on_c, 0, 62, 111
1, 37690, Note_off_c, 0, 62, 111
1, 37698, Note_on_c, 0, 60, 110
1, 37776, Note_off_c, 0, 60, 110
1, 37781, Note_on_c, 0, 59, 113
1, 37885, Note_off_c, 0, 59, 113
1, 37893, Note_on_c, 0, 58, 110
1, 37969, Note_off_c, 0, 58, 110
1, 38565, Note_on_c, 0, 57, 107
1, 38662, Note_off_c, 0, 57, 107
1, 38667, Note_on_c, 0, 55, 106
1, 38759, Note_off_c, 0, 55, 106
1, 38764, Note_on_c, 0, 56, 107
1, 38825, Note_off_c, 0, 56, 107
1, 38830, Note_on_c, 0, 59, 115
1, 38922, Note_off_c, 0, 59, 115
1, 38934, Note_on_c, 0, 58, 110
1, 39036, Note_off_c, 0, 58, 110
1, 39041, Note_on_c, 0, 56, 117
1, 39133, Note_off_c, 0, 56, 117
1, 39134, Note_on_c, 0, 55, 104
1, 39219, Note_off_c, 0, 55, 104
1, 39227, Note_on_c, 0, 54, 113
1, 39328, Note_off_c, 0, 54, 113
1, 39331, Note_on_c, 0, 53, 96
1, 39399, Note_off_c, 0, 53, 96
1, 39405, Note_on_c, 0, 52, 118
1, 39535, Note_off_c, 0, 52, 118
1, 39538, Note_on_c, 0, 50, 104
1, 39660, Note_off_c, 0, 50, 104
1, 39700, Note_on_c, 0, 54, 113
1, 39820, Note_off_c, 0, 54, 113
1, 39824, Note_on_c, 0, 51, 103
1, 39874, Note_off_c, 0, 51, 103
1, 39883, Note_on_c, 0, 51, 100
1, 39940, Note_off_c, 0, 51, 100
1, 39966, Note_on_c, 0, 55, 115
1, 40065, Note_off_c, 0, 55, 115
1, 40068, Note_on_c, 0, 54, 116
1, 40183, Note_off_c, 0, 54, 116
1, 40188, Note_on_c, 0, 51, 103
1, 40236, Note_off_c, 0, 51, 103
1, 40284, Note_on_c, 0, 51, 105
1, 40378, Note_off_c, 0, 51, 105
1, 40378, Note_on_c, 0, 52, 100
1, 40468, Note_off_c, 0, 52, 100
1, 40471, Note_on_c, 0, 55, 104
1, 40561, Note_off_c, 0, 55, 104
1, 40561, Note_on_c, 0, 56, 112
1, 40684, Note_off_c, 0, 56, 112
1, 40684, Note_on_c, 0, 52, 110
1, 40762, Note_off_c, 0, 52, 110
1, 40767, Note_on_c, 0, 53, 105
1, 40876, Note_off_c, 0, 53, 105
1, 40882, Note_on_c, 0, 56, 106
1, 40969, Note_off_c, 0, 56, 106
1, 40970, Note_on_c, 0, 57, 110
1, 41071, Note_off_c, 0, 57, 110
1, 41074, Note_on_c, 0, 53, 107
1, 41147, Note_off_c, 0, 53, 107
1, 41148, Note_on_c, 0, 54, 109
1, 41236, Note_off_c, 0, 54, 109
1, 41248, Note_on_c, 0, 57, 96
1, 41336, Note_off_c, 0, 57, 96
1, 41339, Note_on_c, 0, 58, 111
1, 41459, Note_off_c, 0, 58, 111
1, 41462, Note_on_c, 0, 54, 97
1, 41557, Note_off_c, 0, 54, 97
1, 42024, Note_on_c, 0, 59, 118
1, 42144, Note_off_c, 0, 59, 118
1, 42178, Note_on_c, 0, 55, 107
1, 42239, Note_off_c, 0, 55, 107
1, 42251, Note_on_c, 0, 56, 102
1, 42320, Note_off_c, 0, 56, 102
1, 42339, Note_on_c, 0, 59, 102
1, 42426, Note_off_c, 0, 59, 102
1, 42429, Note_on_c, 0, 60, 114
1, 42526, Note_off_c, 0, 60, 114
1, 42526, Note_on_c, 0, 61, 127
1, 42634, Note_off_c, 0, 61, 127
1, 42838, Note_on_c, 0, 57, 111
1, 42951, Note_off_c, 0, 57, 111
1, 43020, Note_on_c, 0, 60, 116
1, 43150, Note_off_c, 0, 60, 116
1, 43181, Note_on_c, 0, 58, 107
1, 43277, Note_off_c, 0, 58, 107
1, 43279, Note_on_c, 0, 60, 119
1, 43383, Note_off_c, 0, 60, 119
1, 43383, Note_on_c, 0, 61, 116
1, 43491, Note_off_c, 0, 61, 116
1, 43496, Note_on_c, 0, 62, 112
1, 43555, Note_on_c, 0, 65, 117
1, 43555, Note_off_c, 0, 62, 112
1, 43671, Note_off_c, 0, 65, 117
1, 43676, Note_on_c, 0, 62, 119
1, 43778, Note_off_c, 0, 62, 119
1, 43788, Note_on_c, 0, 58, 107
1, 43873, Note_off_c, 0, 58, 107
1, 43874, Note_on_c, 0, 55, 102
1, 43948, Note_off_c, 0, 55, 102
1, 43953, Note_on_c, 0, 60, 119
1, 44109, Note_off_c, 0, 60, 119
1, 44157, Note_on_c, 0, 58, 109
1, 44231, Note_off_c, 0, 58, 109
1, 44232, Note_on_c, 0, 60, 118
1, 44347, Note_off_c, 0, 60, 118
1, 44352, Note_on_c, 0, 61, 121
1, 44453, Note_off_c, 0, 61, 121
1, 44453, Note_on_c, 0, 63, 118
1, 44541, Note_off_c, 0, 63, 118
1, 44542, Note_on_c, 0, 64, 111
1, 44627, Note_off_c, 0, 64, 111
1, 44627, Note_on_c, 0, 66, 99
1, 44728, Note_off_c, 0, 66, 99
1, 44731, Note_on_c, 0, 69, 104
1, 44788, Note_off_c, 0, 69, 104
1, 44788, Note_on_c, 0, 73, 117
1, 44918, Note_off_c, 0, 73, 117
1, 44933, Note_on_c, 0, 69, 98
1, 44974, Note_off_c, 0, 69, 98
1, 44977, Note_on_c, 0, 72, 109
1, 45106, Note_off_c, 0, 72, 109
1, 45109, Note_on_c, 0, 71, 97
1, 45199, Note_off_c, 0, 71, 97
1, 45202, Note_on_c, 0, 70, 108
1, 45287, Note_off_c, 0, 70, 108
1, 45299, Note_on_c, 0, 68, 99
1, 45405, Note_off_c, 0, 68, 99
1, 46604, Note_on_c, 0, 75, 121
1, 46710, Note_off_c, 0, 75, 121
1, 46716, Note_on_c, 0, 76, 110
1, 46789, Note_off_c, 0, 76, 110
1, 46798, Note_on_c, 0, 77, 112
1, 46883, Note_off_c, 0, 77, 112
1, 46891, Note_on_c, 0, 80, 113
1, 46972, Note_off_c, 0, 80, 113
1, 46972, Note_on_c, 0, 77, 115
1, 47055, Note_off_c, 0, 77, 115
1, 47061, Note_on_c, 0, 75, 120
1, 47170, Note_off_c, 0, 75, 120
1, 47171, Note_on_c, 0, 74, 98
1, 47258, Note_off_c, 0, 74, 98
1, 47270, Note_on_c, 0, 73, 118
1, 47383, Note_off_c, 0, 73, 118
1, 47396, Note_on_c, 0, 72, 104
1, 47464, Note_off_c, 0, 72, 104
1, 47469, Note_on_c, 0, 71, 104
1, 47559, Note_off_c, 0, 71, 104
1, 47560, Note_on_c, 0, 70, 109
1, 47634, Note_off_c, 0, 70, 109
1, 47635, Note_on_c, 0, 68, 110
1, 47746, Note_off_c, 0, 68, 110
1, 47751, Note_on_c, 0, 67, 105
1, 47839, Note_off_c, 0, 67, 105
1, 47839, Note_on_c, 0, 66, 106
1, 47945, Note_off_c, 0, 66, 106
1, 47951, Note_on_c, 0, 65, 103
1, 48034, Note_off_c, 0, 65, 103
1, 48040, Note_on_c, 0, 64, 103
1, 48116, Note_off_c, 0, 64, 103
1, 48128, Note_on_c, 0, 63, 116
1, 48218, Note_off_c, 0, 63, 116
1, 48240, Note_on_c, 0, 59, 103
1, 48309, Note_off_c, 0, 59, 103
1, 48319, Note_on_c, 0, 62, 122
1, 48434, Note_off_c, 0, 62, 122
1, 48437, Note_on_c, 0, 59, 107
1, 48489, Note_off_c, 0, 59, 107
1, 48514, Note_on_c, 0, 60, 100
1, 48608, Note_off_c, 0, 60, 100
1, 48614, Note_on_c, 0, 62, 118
1, 48750, Note_off_c, 0, 62, 118
1, 48751, Note_on_c, 0, 63, 111
1, 48834, Note_off_c, 0, 63, 111
1, 48834, Note_on_c, 0, 65, 104
1, 48915, Note_off_c, 0, 65, 104
1, 48921, Note_on_c, 0, 66, 104
1, 49018, Note_off_c, 0, 66, 104
1, 49033, Note_on_c, 0, 63, 104
1, 49109, Note_off_c, 0, 63, 104
1, 49112, Note_on_c, 0, 65, 112
1, 49211, Note_off_c, 0, 65, 112
1, 49211, Note_on_c, 0, 62, 113
1, 49294, Note_off_c, 0, 62, 113
1, 49318, Note_on_c, 0, 58, 104
1, 49406, Note_off_c, 0, 58, 104
1, 49419, Note_on_c, 0, 55, 98
1, 49474, Note_off_c, 0, 55, 98
1, 49496, Note_on_c, 0, 63, 118
1, 49583, Note_off_c, 0, 63, 118
1, 49595, Note_on_c, 0, 60, 113
1, 49746, Note_off_c, 0, 60, 113
1, 49771, Note_on_c, 0, 61, 125
1, 49906, Note_off_c, 0, 61, 125
1, 49997, Note_on_c, 0, 58, 100
1, 50061, Note_off_c, 0, 58, 100
1, 50064, Note_on_c, 0, 60, 117
1, 50190, Note_off_c, 0, 60, 117
1, 50191, Note_on_c, 0, 57, 102
1, 50260, Note_off_c, 0, 57, 102
1, 50267, Note_on_c, 0, 58, 110
1, 50414, Note_off_c, 0, 58, 110
1, 50469, Note_on_c, 0, 55, 112
1, 50621, Note_off_c, 0, 55, 112
1, 50676, Note_on_c, 0, 56, 113
1, 50816, Note_off_c, 0, 56, 113
1, 50846, Note_on_c, 0, 55, 9
1, 50945, Note_off_c, 0, 55, 9
1, 50992, Note_on_c, 0, 51, 104
1, 51032, Note_off_c, 0, 51, 104
1, 51067, Note_on_c, 0, 54, 120
1, 51151, Note_off_c, 0, 54, 120
1, 51158, Note_on_c, 0, 50, 106
1, 51247, Note_off_c, 0, 50, 106
1, 51316, Note_on_c, 0, 53, 118
1, 51459, Note_off_c, 0, 53, 118
1, 51539, Note_on_c, 0, 51, 112
1, 51644, Note_off_c, 0, 51, 112
1, 51738, Note_on_c, 0, 48, 103
1, 51857, Note_off_c, 0, 48, 103
1, 52241, Note_on_c, 0, 50, 117
1, 52361, Note_off_c, 0, 50, 117
1, 52361, Note_on_c, 0, 47, 112
1, 52413, Note_off_c, 0, 47, 112
1, 52413, Note_on_c, 0, 48, 109
1, 52498, Note_off_c, 0, 48, 109
1, 52501, Note_on_c, 0, 50, 111
1, 52605, Note_off_c, 0, 50, 111
1, 52610, Note_on_c, 0, 51, 112
1, 52695, Note_off_c, 0, 51, 112
1, 52696, Note_on_c, 0, 53, 121
1, 52798, Note_off_c, 0, 53, 121
1, 52800, Note_on_c, 0, 54, 114
1, 52895, Note_off_c, 0, 54, 114
1, 52899, Note_on_c, 0, 55, 114
1, 52967, Note_off_c, 0, 55, 114
1, 52975, Note_on_c, 0, 60, 118
1, 53074, Note_off_c, 0, 60, 118
1, 53075, Note_on_c, 0, 59, 114
1, 53161, Note_off_c, 0, 59, 114
1, 53164, Note_on_c, 0, 58, 111
1, 53249, Note_off_c, 0, 58, 111
1, 53252, Note_on_c, 0, 56, 114
1, 53354, Note_off_c, 0, 56, 114
1, 53356, Note_on_c, 0, 55, 108
1, 53434, Note_off_c, 0, 55, 108
1, 53437, Note_on_c, 0, 54, 117
1, 53567, Note_off_c, 0, 54, 117
1, 53573, Note_on_c, 0, 53, 106
1, 53656, Note_off_c, 0, 53, 106
1, 53658, Note_on_c, 0, 51, 107
1, 53758, Note_off_c, 0, 51, 107
1, 53765, Note_on_c, 0, 50, 109
1, 53879, Note_off_c, 0, 50, 109
1, 55111, Note_on_c, 0, 50, 111
1, 55224, Note_off_c, 0, 50, 111
1, 55298, Note_on_c, 0, 54, 110
1, 55381, Note_off_c, 0, 54, 110
1, 55394, Note_on_c, 0, 58, 110
1, 55477, Note_off_c, 0, 58, 110
1, 55497, Note_on_c, 0, 51, 109
1, 55641, Note_off_c, 0, 51, 109
1, 55649, Note_on_c, 0, 55, 108
1, 55757, Note_off_c, 0, 55, 108
1, 55758, Note_on_c, 0, 59, 108
1, 55841, Note_off_c, 0, 59, 108
1, 55841, Note_on_c, 0, 52, 108
1, 55997, Note_off_c, 0, 52, 108
1, 56005, Note_on_c, 0, 56, 112
1, 56113, Note_off_c, 0, 56, 112
1, 56121, Note_on_c, 0, 60, 118
1, 56204, Note_off_c, 0, 60, 118
1, 56204, Note_on_c, 0, 53, 113
1, 56306, Note_off_c, 0, 53, 113
1, 56325, Note_on_c, 0, 57, 105
1, 56398, Note_off_c, 0, 57, 105
1, 56408, Note_on_c, 0, 61, 123
1, 56503, Note_on_c, 0, 54, 119
1, 56503, Note_off_c, 0, 61, 123
1, 56632, Note_off_c, 0, 54, 119
1, 56704, Note_on_c, 0, 58, 109
1, 56741, Note_off_c, 0, 58, 109
1, 56745, Note_on_c, 0, 62, 116
1, 56807, Note_off_c, 0, 62, 116
1, 56810, Note_on_c, 0, 55, 114
1, 56957, Note_off_c, 0, 55, 114
1, 56975, Note_on_c, 0, 59, 101
1, 57072, Note_off_c, 0, 59, 101
1, 57077, Note_on_c, 0, 63, 115
1, 57158, Note_off_c, 0, 63, 115
1, 57158, Note_on_c, 0, 56, 122
1, 57276, Note_off_c, 0, 56, 122
1, 57286, Note_on_c, 0, 60, 106
1, 57373, Note_off_c, 0, 60, 106
1, 57373, Note_on_c, 0, 64, 106
1, 57493, Note_off_c, 0, 64, 106
1, 57493, Note_on_c, 0, 57, 103
1, 57587, Note_off_c, 0, 57, 103
1, 57587, Note_on_c, 0, 61, 117
1, 57691, Note_off_c, 0, 61, 117
1, 57692, Note_on_c, 0, 65, 106
1, 57744, Note_off_c, 0, 65, 106
1, 57744, Note_on_c, 0, 58, 115
1, 57876, Note_off_c, 0, 58, 115
1, 57882, Note_on_c, 0, 62, 111
1, 57950, Note_off_c, 0, 62, 111
1, 57956, Note_on_c, 0, 66, 102
1, 58107, Note_off_c, 0, 66, 102
1, 58157, Note_on_c, 0, 67, 111
1, 58352, Note_off_c, 0, 67, 111
1, 58362, Note_on_c, 0, 63, 110
1, 58473, Note_off_c, 0, 63, 110
1, 58479, Note_on_c, 0, 59, 99
1, 58543, Note_off_c, 0, 59, 99
1, 58548, Note_on_c, 0, 68, 109
1, 58663, Note_off_c, 0, 68, 109
1, 58663, Note_on_c, 0, 64, 105
1, 58739, Note_off_c, 0, 64, 105
1, 58763, Note_on_c, 0, 60, 104
1, 58815, Note_off_c, 0, 60, 104
1, 58820, Note_on_c, 0, 69, 114
1, 58928, Note_off_c, 0, 69, 114
1, 58933, Note_on_c, 0, 68, 109
1, 59032, Note_off_c, 0, 68, 109
1, 59035, Note_on_c, 0, 66, 102
1, 59134, Note_off_c, 0, 66, 102
1, 59140, Note_on_c, 0, 65, 106
1, 59211, Note_off_c, 0, 65, 106
1, 59226, Note_on_c, 0, 63, 106
1, 59450, Note_off_c, 0, 63, 106
1, 59898, Note_on_c, 0, 62, 123
1, 60018, Note_off_c, 0, 62, 123
1, 60019, Note_on_c, 0, 60, 112
1, 60095, Note_off_c, 0, 60, 112
1, 60101, Note_on_c, 0, 61, 113
1, 60160, Note_off_c, 0, 61, 113
1, 60165, Note_on_c, 0, 64, 109
1, 60262, Note_off_c, 0, 64, 109
1, 60263, Note_on_c, 0, 63, 114
1, 60350, Note_off_c, 0, 63, 114
1, 60360, Note_on_c, 0, 61, 121
1, 60466, Note_off_c, 0, 61, 121
1, 60474, Note_on_c, 0, 60, 106
1, 60550, Note_off_c, 0, 60, 106
1, 60552, Note_on_c, 0, 61, 124
1, 60770, Note_off_c, 0, 61, 124
1, 60778, Note_on_c, 0, 68, 101
1, 60839, Note_off_c, 0, 68, 101
1, 60854, Note_on_c, 0, 72, 100
1, 60993, Note_off_c, 0, 72, 100
1, 61073, Note_on_c, 0, 71, 104
1, 61144, Note_off_c, 0, 71, 104
1, 61147, Note_on_c, 0, 67, 111
1, 61223, Note_off_c, 0, 67, 111
1, 61224, Note_on_c, 0, 64, 102
1, 61332, Note_off_c, 0, 64, 102
1, 61342, Note_on_c, 0, 60, 97
1, 61399, Note_off_c, 0, 60, 97
1, 61449, Note_on_c, 0, 70, 113
1, 61522, Note_off_c, 0, 70, 113
1, 61528, Note_on_c, 0, 62, 112
1, 61613, Note_off_c, 0, 62, 112
1, 61640, Note_on_c, 0, 66, 94
1, 61709, Note_on_c, 0, 70, 110
1, 61709, Note_off_c, 0, 66, 94
1, 61808, Note_off_c, 0, 70, 110
1, 61808, Note_on_c, 0, 69, 103
1, 61886, Note_off_c, 0, 69, 103
1, 61892, Note_on_c, 0, 66, 104
1, 61986, Note_off_c, 0, 66, 104
1, 61994, Note_on_c, 0, 65, 103
1, 62068, Note_off_c, 0, 65, 103
1, 62086, Note_on_c, 0, 64, 113
1, 62190, Note_off_c, 0, 64, 113
1, 62196, Note_on_c, 0, 62, 112
1, 62308, Note_off_c, 0, 62, 112
1, 62317, Note_on_c, 0, 60, 98
1, 62386, Note_off_c, 0, 60, 98
1, 62386, Note_on_c, 0, 63, 115
1, 62565, Note_off_c, 0, 63, 115
1, 62566, Note_on_c, 0, 58, 101
1, 62657, Note_off_c, 0, 58, 101
1, 62657, Note_on_c, 0, 63, 117
1, 62778, Note_off_c, 0, 63, 117
1, 62779, Note_on_c, 0, 62, 117
1, 62858, Note_off_c, 0, 62, 117
1, 62858, Note_on_c, 0, 61, 122
1, 62947, Note_off_c, 0, 61, 122
1, 62950, Note_on_c, 0, 60, 111
1, 63045, Note_off_c, 0, 60, 111
1, 63056, Note_on_c, 0, 58, 115
1, 63161, Note_off_c, 0, 58, 115
1, 63164, Note_on_c, 0, 57, 110
1, 63244, Note_off_c, 0, 57, 110
1, 63247, Note_on_c, 0, 55, 104
1, 63346, Note_off_c, 0, 55, 104
1, 63347, Note_on_c, 0, 54, 105
1, 63433, Note_off_c, 0, 54, 105
1, 63439, Note_on_c, 0, 57, 104
1, 63548, Note_off_c, 0, 57, 104
1, 63555, Note_on_c, 0, 56, 111
1, 63636, Note_off_c, 0, 56, 111
1, 63637, Note_on_c, 0, 54, 105
1, 63715, Note_off_c, 0, 54, 105
1, 63723, Note_on_c, 0, 55, 106
1, 63834, Note_off_c, 0, 55, 106
1, 63834, Note_on_c, 0, 57, 107
1, 63910, Note_off_c, 0, 57, 107
1, 63914, Note_on_c, 0, 58, 104
1, 64006, Note_off_c, 0, 58, 104
1, 64009, Note_on_c, 0, 60, 115
1, 64130, Note_off_c, 0, 60, 115
1, 64134, Note_on_c, 0, 62, 106
1, 64222, Note_off_c, 0, 62, 106
1, 64229, Note_on_c, 0, 65, 100
1, 64303, Note_off_c, 0, 65, 100
1, 64304, Note_on_c, 0, 69, 114
1, 64410, Note_off_c, 0, 69, 114
1, 64417, Note_on_c, 0, 65, 110
1, 64486, Note_off_c, 0, 65, 110
1, 64490, Note_on_c, 0, 62, 107
1, 64586, Note_off_c, 0, 62, 107
1, 64590, Note_on_c, 0, 60, 103
1, 64656, Note_off_c, 0, 60, 103
1, 64670, Note_on_c, 0, 68, 110
1, 64771, Note_off_c, 0, 68, 110
1, 64778, Note_on_c, 0, 64, 106
1, 64862, Note_off_c, 0, 64, 106
1, 64865, Note_on_c, 0, 61, 119
1, 64961, Note_off_c, 0, 61, 119
1, 64965, Note_on_c, 0, 59, 111
1, 65051, Note_off_c, 0, 59, 111
1, 65067, Note_on_c, 0, 58, 103
1, 65133, Note_off_c, 0, 58, 103
1, 65139, Note_on_c, 0, 59, 112
1, 65222, Note_off_c, 0, 59, 112
1, 65222, Note_on_c, 0, 58, 108
1, 65362, Note_off_c, 0, 58, 108
1, 65469, Note_on_c, 0, 57, 101
1, 65556, Note_off_c, 0, 57, 101
1, 65556, Note_on_c, 0, 58, 108
1, 65639, Note_off_c, 0, 58, 108
1, 65639, Note_on_c, 0, 57, 100
1, 65729, Note_off_c, 0, 57, 100
1, 65818, Note_on_c, 0, 56, 110
1, 65905, Note_off_c, 0, 56, 110
1, 65905, Note_on_c, 0, 57, 115
1, 65995, Note_off_c, 0, 57, 115
1, 66002, Note_on_c, 0, 56, 110
1, 66102, Note_off_c, 0, 56, 110
1, 66225, Note_on_c, 0, 55, 104
1, 66293, Note_off_c, 0, 55, 104
1, 66293, Note_on_c, 0, 56, 109
1, 66395, Note_off_c, 0, 56, 109
1, 66398, Note_on_c, 0, 55, 104
1, 66481, Note_off_c, 0, 55, 104
1, 66485, Note_on_c, 0, 54, 104
1, 67323, Note_off_c, 0, 54, 104
1, 67387, Note_on_c, 0, 54, 106
1, 67648, Note_off_c, 0, 54, 106
1, 67656, Note_on_c, 0, 54, 108
1, 67914, Note_off_c, 0, 54, 108
1, 67924, Note_on_c, 0, 58, 104
1, 68046, Note_off_c, 0, 58, 104
1, 68047, Note_on_c, 0, 53, 102
1, 68859, Note_off_c, 0, 53, 102
1, 68955, Note_on_c, 0, 54, 104
1, 69250, Note_off_c, 0, 54, 104
1, 69259, Note_on_c, 0, 54, 105
1, 69513, Note_off_c, 0, 54, 105
1, 69513, Note_on_c, 0, 58, 106
1, 69633, Note_off_c, 0, 58, 106
1, 69642, Note_on_c, 0, 53, 103
1, 70438, Note_off_c, 0, 53, 103
1, 70493, Note_on_c, 0, 54, 104
1, 70768, Note_off_c, 0, 54, 104
1, 70774, Note_on_c, 0, 54, 110
1, 71025, Note_off_c, 0, 54, 110
1, 71037, Note_on_c, 0, 58, 104
1, 71171, Note_off_c, 0, 58, 104
1, 71177, Note_on_c, 0, 62, 95
1, 71959, Note_off_c, 0, 62, 95
1, 72028, Note_on_c, 0, 54, 110
1, 72308, Note_off_c, 0, 54, 110
1, 72314, Note_on_c, 0, 54, 110
1, 72580, Note_off_c, 0, 54, 110
1, 72586, Note_on_c, 0, 58, 105
1, 72697, Note_off_c, 0, 58, 105
1, 72698, Note_on_c, 0, 53, 103
1, 73561, Note_off_c, 0, 53, 103
1, 73561, End_track
0, 0, End_of_file
