0, 0, Header, 1, 1, 192
1, 0, Start_track
1, 0, Title_t, "Melody"
1, 0, Tempo, 209790
1, 0, Time_signature, 4, 2, 24, 8
1, 4249, Note_on_c, 0, 61, 115
1, 4383, Note_off_c, 0, 61, 115
1, 4383, Note_on_c, 0, 67, 111
1, 4476, Note_off_c, 0, 67, 111
1, 4476, Note_on_c, 0, 61, 112
1, 4627, Note_off_c, 0, 61, 112
1, 5062, Note_on_c, 0, 61, 114
1, 5183, Note_off_c, 0, 61, 114
1, 5190, Note_on_c, 0, 58, 94
1, 5266, Note_off_c, 0, 58, 94
1, 5266, Note_on_c, 0, 61, 107
1, 5396, Note_off_c, 0, 61, 107
1, 6238, Note_on_c, 0, 67, 122
1, 6357, Note_off_c, 0, 67, 122
1, 6364, Note_on_c, 0, 66, 113
1, 6468, Note_off_c, 0, 66, 113
1, 6482, Note_on_c, 0, 65, 112
1, 6541, Note_off_c, 0, 65, 112
1, 6548, Note_on_c, 0, 64, 116
1, 6633, Note_off_c, 0, 64, 116
1, 6640, Note_on_c, 0, 63, 116
1, 6718, Note_off_c, 0, 63, 116
1, 6723, Note_on_c, 0, 61, 115
1, 6814, Note_off_c, 0, 61, 115
1, 6814, Note_on_c, 0, 60, 105
1, 6884, Note_off_c, 0, 60, 105
1, 6897, Note_on_c, 0, 58, 107
1, 7001, Note_off_c, 0, 58, 107
1, 7014, Note_on_c, 0, 56, 108
1, 7105, Note_off_c, 0, 56, 108
1, 7767, Note_on_c, 0, 56, 116
1, 7937, Note_off_c, 0, 56, 116
1, 7963, Note_on_c, 0, 55, 108
1, 8082, Note_off_c, 0, 55, 108
1, 8095, Note_on_c, 0, 52, 100
1, 8182, Note_off_c, 0, 52, 100
1, 8184, Note_on_c, 0, 53, 107
1, 8247, Note_off_c, 0, 53, 107
1, 8249, Note_on_c, 0, 54, 113
1, 8320, Note_off_c, 0, 54, 113
1, 8333, Note_on_c, 0, 53, 106
1, 8410, Note_off_c, 0, 53, 106
1, 8415, Note_on_c, 0, 54, 90
1, 8481, Note_off_c, 0, 54, 90
1, 9118, Note_on_c, 0, 54, 119
1, 9248, Note_off_c, 0, 54, 119
1, 9250, Note_on_c, 0, 52, 102
1, 9332, Note_off_c, 0, 52, 102
1, 9332, Note_on_c, 0, 53, 115
1, 9448, Note_off_c, 0, 53, 115
1, 9455, Note_on_c, 0, 51, 105
1, 9547, Note_off_c, 0, 51, 105
1, 9557, Note_on_c, 0, 50, 96
1, 9652, Note_off_c, 0, 50, 96
1, 9665, Note_on_c, 0, 51, 108
1, 9773, Note_off_c, 0, 51, 108
1, 9773, Note_on_c, 0, 55, 104
1, 9842, Note_off_c, 0, 55, 104
1, 9842, Note_on_c, 0, 58, 105
1, 9900, Note_off_c, 0, 58, 105
1, 9900, Note_on_c, 0, 62, 116
1, 10038, Note_off_c, 0, 62, 116
1, 10048, Note_on_c, 0, 55, 102
1, 10125, Note_off_c, 0, 55, 102
1, 10483, Note_on_c, 0, 60, 116
1, 10793, Note_off_c, 0, 60, 116
1, 10793, Note_on_c, 0, 58, 104
1, 10907, Note_off_c, 0, 58, 104
1, 10909, Note_on_c, 0, 55, 91
1, 11012, Note_off_c, 0, 55, 91
1, 11012, Note_on_c, 0, 56, 105
1, 11118, Note_off_c, 0, 56, 105
1, 11120, Note_on_c, 0, 58, 99
1, 11194, Note_off_c, 0, 58, 99
1, 11194, Note_on_c, 0, 60, 113
1, 11316, Note_off_c, 0, 60, 113
1, 11321, Note_on_c, 0, 62, 112
1, 11423, Note_off_c, 0, 62, 112
1, 11427, Note_on_c, 0, 63, 105
1, 11498, Note_off_c, 0, 63, 105
1, 11505, Note_on_c, 0, 65, 111
1, 11624, Note_off_c, 0, 65, 111
1, 11626, Note_on_c, 0, 67, 105
1, 11716, Note_off_c, 0, 67, 105
1, 11716, Note_on_c, 0, 68, 106
1, 11819, Note_off_c, 0, 68, 106
1, 11819, Note_on_c, 0, 70, 87
1, 11946, Note_off_c, 0, 70, 87
1, 12918, Note_on_c, 0, 65, 113
1, 12996, Note_off_c, 0, 65, 113
1, 13000, Note_on_c, 0, 67, 108
1, 13204, Note_off_c, 0, 67, 108
1, 13209, Note_on_c, 0, 65, 107
1, 13325, Note_off_c, 0, 65, 107
1, 13325, Note_on_c, 0, 60, 105
1, 13412, Note_off_c, 0, 60, 105
1, 13417, Note_on_c, 0, 60, 101
1, 13528, Note_off_c, 0, 60, 101
1, 14845, Note_on_c, 0, 62, 124
1, 14969, Note_off_c, 0, 62, 124
1, 14971, Note_on_c, 0, 63, 114
1, 15071, Note_on_c, 0, 62, 107
1, 15071, Note_off_c, 0, 63, 114
1, 15150, Note_off_c, 0, 62, 107
1, 15150, Note_on_c, 0, 61, 118
1, 15245, Note_off_c, 0, 61, 118
1, 15332, Note_on_c, 0, 59, 115
1, 15446, Note_off_c, 0, 59, 115
1, 15446, Note_on_c, 0, 57, 100
1, 15554, Note_off_c, 0, 57, 100
1, 15561, Note_on_c, 0, 55, 103
1, 15643, Note_off_c, 0, 55, 103
1, 15680, Note_on_c, 0, 58, 109
1, 15743, Note_off_c, 0, 58, 109
1, 15743, Note_on_c, 0, 55, 103
1, 15835, Note_off_c, 0, 55, 103
1, 15845, Note_on_c, 0, 56, 95
1, 15924, Note_off_c, 0, 56, 95
1, 15924, Note_on_c, 0, 58, 99
1, 16014, Note_off_c, 0, 58, 99
1, 17071, Note_on_c, 0, 54, 111
1, 17158, Note_off_c, 0, 54, 111
1, 17158, Note_on_c, 0, 55, 97
1, 17250, Note_off_c, 0, 55, 97
1, 17260, Note_on_c, 0, 57, 104
1, 17363, Note_off_c, 0, 57, 104
1, 17370, Note_on_c, 0, 58, 104
1, 17468, Note_off_c, 0, 58, 104
1, 17470, Note_on_c, 0, 60, 110
1, 17586, Note_off_c, 0, 60, 110
1, 17588, Note_on_c, 0, 61, 86
1, 17707, Note_off_c, 0, 61, 86
1, 17762, Note_on_c, 0, 60, 117
1, 17918, Note_off_c, 0, 60, 117
1, 17989, Note_on_c, 0, 58, 113
1, 18066, Note_off_c, 0, 58, 113
1, 18066, Note_on_c, 0, 60, 117
1, 18132, Note_off_c, 0, 60, 117
1, 18132, Note_on_c, 0, 61, 116
1, 18238, Note_on_c, 0, 63, 113
1, 18238, Note_off_c, 0, 61, 116
1, 18330, Note_off_c, 0, 63, 113
1, 18330, Note_on_c, 0, 64, 106
1, 18420, Note_off_c, 0, 64, 106
1, 18420, Note_on_c, 0, 66, 108
1, 18515, Note_off_c, 0, 66, 108
1, 18600, Note_on_c, 0, 67, 113
1, 18642, Note_off_c, 0, 67, 113
1, 18644, Note_on_c, 0, 69, 108
1, 18758, Note_off_c, 0, 69, 108
1, 18758, Note_on_c, 0, 70, 104
1, 18816, Note_off_c, 0, 70, 104
1, 18816, Note_on_c, 0, 72, 102
1, 18893, Note_off_c, 0, 72, 102
1, 18895, Note_on_c, 0, 73, 107
1, 18982, Note_off_c, 0, 73, 107
1, 18989, Note_on_c, 0, 70, 92
1, 19050, Note_off_c, 0, 70, 92
1, 19057, Note_on_c, 0, 72, 112
1, 19176, Note_off_c, 0, 72, 112
1, 19186, Note_on_c, 0, 70, 95
1, 19255, Note_off_c, 0, 70, 95
1, 19273, Note_on_c, 0, 71, 106
1, 19360, Note_off_c, 0, 71, 106
1, 19360, Note_on_c, 0, 69, 107
1, 19490, Note_off_c, 0, 69, 107
1, 19490, Note_on_c, 0, 68, 110
1, 19556, Note_off_c, 0, 68, 110
1, 19556, Note_on_c, 0, 66, 108
1, 19659, Note_off_c, 0, 66, 108
1, 19669, Note_on_c, 0, 65, 105
1, 19746, Note_off_c, 0, 65, 105
1, 19751, Note_on_c, 0, 63, 126
1, 19875, Note_off_c, 0, 63, 126
1, 19880, Note_on_c, 0, 60, 97
1, 19946, Note_off_c, 0, 60, 97
1, 19953, Note_on_c, 0, 61, 112
1, 20022, Note_off_c, 0, 61, 112
1, 20027, Note_on_c, 0, 62, 123
1, 20112, Note_off_c, 0, 62, 123
1, 20141, Note_on_c, 0, 61, 117
1, 20297, Note_off_c, 0, 61, 117
1, 20304, Note_on_c, 0, 59, 119
1, 20412, Note_off_c, 0, 59, 119
1, 20412, Note_on_c, 0, 58, 109
1, 20491, Note_off_c, 0, 58, 109
1, 20501, Note_on_c, 0, 56, 118
1, 20580, Note_off_c, 0, 56, 118
1, 20593, Note_on_c, 0, 55, 107
1, 20683, Note_off_c, 0, 55, 107
1, 20688, Note_on_c, 0, 54, 122
1, 20802, Note_off_c, 0, 54, 122
1, 20802, Note_on_c, 0, 53, 114
1, 20884, Note_off_c, 0, 53, 114
1, 20891, Note_on_c, 0, 52, 107
1, 20981, Note_off_c, 0, 52, 107
1, 20994, Note_on_c, 0, 51, 108
1, 21079, Note_off_c, 0, 51, 108
1, 21079, Note_on_c, 0, 48, 105
1, 21190, Note_off_c, 0, 48, 105
1, 21190, Note_on_c, 0, 49, 104
1, 21267, Note_off_c, 0, 49, 104
1, 21269, Note_on_c, 0, 51, 108
1, 21343, Note_off_c, 0, 51, 108
1, 21345, Note_on_c, 0, 52, 105
1, 21443, Note_off_c, 0, 52, 105
1, 21443, Note_on_c, 0, 54, 106
1, 21538, Note_off_c, 0, 54, 106
1, 21556, Note_on_c, 0, 53, 107
1, 21630, Note_off_c, 0, 53, 107
1, 21640, Note_on_c, 0, 54, 104
1, 21732, Note_off_c, 0, 54, 104
1, 21734, Note_on_c, 0, 56, 109
1, 21845, Note_off_c, 0, 56, 109
1, 21850, Note_on_c, 0, 57, 112
1, 21924, Note_on_c, 0, 59, 113
1, 21924, Note_off_c, 0, 57, 112
1, 22024, Note_off_c, 0, 59, 113
1, 22034, Note_on_c, 0, 57, 106
1, 22113, Note_on_c, 0, 56, 113
1, 22113, Note_off_c, 0, 57, 106
1, 22195, Note_off_c, 0, 56, 113
1, 22195, Note_on_c, 0, 54, 114
1, 22293, Note_off_c, 0, 54, 114
1, 22293, Note_on_c, 0, 53, 103
1, 22367, Note_off_c, 0, 53, 103
1, 22374, Note_on_c, 0, 51, 103
1, 22453, Note_off_c, 0, 51, 103
1, 22455, Note_on_c, 0, 52, 98
1, 22529, Note_on_c, 0, 54, 103
1, 22529, Note_off_c, 0, 52, 98
1, 22621, Note_off_c, 0, 54, 103
1, 22634, Note_on_c, 0, 56, 106
1, 22724, Note_off_c, 0, 56, 106
1, 22739, Note_on_c, 0, 60, 112
1, 22855, Note_off_c, 0, 60, 112
1, 22862, Note_on_c, 0, 54, 101
1, 22962, Note_off_c, 0, 54, 101
1, 23596, Note_on_c, 0, 54, 119
1, 23773, Note_off_c, 0, 54, 119
1, 23781, Note_on_c, 0, 60, 116
1, 23910, Note_off_c, 0, 60, 116
1, 23910, Note_on_c, 0, 55, 106
1, 23984, Note_off_c, 0, 55, 106
1, 24053, Note_on_c, 0, 61, 120
1, 24183, Note_off_c, 0, 61, 120
1, 24201, Note_on_c, 0, 56, 115
1, 24355, Note_off_c, 0, 56, 115
1, 24355, Note_on_c, 0, 62, 114
1, 24469, Note_off_c, 0, 62, 114
1, 24471, Note_on_c, 0, 57, 104
1, 24556, Note_off_c, 0, 57, 104
1, 24617, Note_on_c, 0, 63, 118
1, 24765, Note_on_c, 0, 58, 109
1, 24765, Note_off_c, 0, 63, 118
1, 24850, Note_off_c, 0, 58, 109
1, 24881, Note_on_c, 0, 64, 110
1, 25013, Note_off_c, 0, 64, 110
1, 25015, Note_on_c, 0, 57, 109
1, 25094, Note_off_c, 0, 57, 109
1, 25163, Note_on_c, 0, 63, 120
1, 25269, Note_off_c, 0, 63, 120
1, 25295, Note_on_c, 0, 56, 114
1, 25441, Note_off_c, 0, 56, 114
1, 25855, Note_on_c, 0, 62, 126
1, 25971, Note_off_c, 0, 62, 126
1, 25976, Note_on_c, 0, 61, 120
1, 26079, Note_off_c, 0, 61, 120
1, 26086, Note_on_c, 0, 60, 114
1, 26155, Note_off_c, 0, 60, 114
1, 26162, Note_on_c, 0, 59, 110
1, 26265, Note_off_c, 0, 59, 110
1, 26272, Note_on_c, 0, 58, 103
1, 26364, Note_off_c, 0, 58, 103
1, 26364, Note_on_c, 0, 57, 102
1, 26459, Note_off_c, 0, 57, 102
1, 26469, Note_on_c, 0, 56, 106
1, 26554, Note_off_c, 0, 56, 106
1, 26561, Note_on_c, 0, 60, 118
1, 26661, Note_off_c, 0, 60, 118
1, 26666, Note_on_c, 0, 55, 104
1, 26751, Note_off_c, 0, 55, 104
1, 26751, Note_on_c, 0, 53, 102
1, 26833, Note_off_c, 0, 53, 102
1, 26851, Note_on_c, 0, 58, 111
1, 26938, Note_off_c, 0, 58, 111
1, 27376, Note_on_c, 0, 55, 111
1, 27487, Note_off_c, 0, 55, 111
1, 27492, Note_on_c, 0, 56, 109
1, 27577, Note_off_c, 0, 56, 109
1, 27693, Note_on_c, 0, 63, 105
1, 27796, Note_off_c, 0, 63, 105
1, 27796, Note_on_c, 0, 67, 111
1, 27947, Note_off_c, 0, 67, 111
1, 27973, Note_on_c, 0, 66, 100
1, 28065, Note_on_c, 0, 67, 112
1, 28065, Note_off_c, 0, 66, 100
1, 28142, Note_off_c, 0, 67, 112
1, 28144, Note_on_c, 0, 66, 113
1, 28199, Note_off_c, 0, 66, 113
1, 28199, Note_on_c, 0, 64, 102
1, 28262, Note_off_c, 0, 64, 102
1, 28269, Note_on_c, 0, 62, 120
1, 28354, Note_off_c, 0, 62, 120
1, 28356, Note_on_c, 0, 63, 118
1, 28454, Note_off_c, 0, 63, 118
1, 28459, Note_on_c, 0, 61, 120
1, 28581, Note_off_c, 0, 61, 120
1, 28634, Note_on_c, 0, 58, 110
1, 28734, Note_off_c, 0, 58, 110
1, 28739, Note_on_c, 0, 57, 104
1, 28837, Note_off_c, 0, 57, 104
1, 28844, Note_on_c, 0, 55, 99
1, 28939, Note_off_c, 0, 55, 99
1, 28939, Note_on_c, 0, 60, 119
1, 29053, Note_off_c, 0, 60, 119
1, 29053, Note_on_c, 0, 57, 108
1, 29143, Note_off_c, 0, 57, 108
1, 29145, Note_on_c, 0, 58, 108
1, 29216, Note_off_c, 0, 58, 108
1, 29218, Note_on_c, 0, 60, 119
1, 29324, Note_off_c, 0, 60, 119
1, 29326, Note_on_c, 0, 61, 115
1, 29426, Note_off_c, 0, 61, 115
1, 29426, Note_on_c, 0, 63, 115
1, 29503, Note_off_c, 0, 63, 115
1, 29503, Note_on_c, 0, 64, 111
1, 29572, Note_off_c, 0, 64, 111
1, 29579, Note_on_c, 0, 66, 102
1, 29664, Note_off_c, 0, 66, 102
1, 29666, Note_on_c, 0, 67, 100
1, 29748, Note_off_c, 0, 67, 100
1, 29755, Note_on_c, 0, 69, 113
1, 29869, Note_off_c, 0, 69, 113
1, 29890, Note_on_c, 0, 70, 102
1, 29945, Note_off_c, 0, 70, 102
1, 29952, Note_on_c, 0, 72, 99
1, 30042, Note_off_c, 0, 72, 99
1, 30052, Note_on_c, 0, 73, 110
1, 30152, Note_off_c, 0, 73, 110
1, 30165, Note_on_c, 0, 70, 96
1, 30226, Note_off_c, 0, 70, 96
1, 30226, Note_on_c, 0, 72, 109
1, 30332, Note_off_c, 0, 72, 109
1, 30332, Note_on_c, 0, 70, 104
1, 30401, Note_off_c, 0, 70, 104
1, 30411, Note_on_c, 0, 69, 106
1, 30472, Note_off_c, 0, 69, 106
1, 30485, Note_on_c, 0, 67, 97
1, 30551, Note_off_c, 0, 67, 97
1, 30566, Note_on_c, 0, 66, 103
1, 30643, Note_off_c, 0, 66, 103
1, 30656, Note_on_c, 0, 64, 110
1, 30764, Note_off_c, 0, 64, 110
1, 30764, Note_on_c, 0, 63, 105
1, 30854, Note_off_c, 0, 63, 105
1, 31712, Note_on_c, 0, 62, 123
1, 31804, Note_off_c, 0, 62, 123
1, 31817, Note_on_c, 0, 61, 119
1, 31933, Note_off_c, 0, 61, 119
1, 31940, Note_on_c, 0, 62, 114
1, 32025, Note_off_c, 0, 62, 114
1, 32030, Note_on_c, 0, 63, 127
1, 32109, Note_off_c, 0, 63, 127
1, 32122, Note_on_c, 0, 60, 98
1, 32204, Note_off_c, 0, 60, 98
1, 32204, Note_on_c, 0, 65, 114
1, 32310, Note_off_c, 0, 65, 114
1, 32315, Note_on_c, 0, 66, 109
1, 32437, Note_off_c, 0, 66, 109
1, 32437, Note_on_c, 0, 67, 120
1, 32524, Note_off_c, 0, 67, 120
1, 32529, Note_on_c, 0, 68, 102
1, 32614, Note_off_c, 0, 68, 102
1, 32621, Note_on_c, 0, 71, 97
1, 32676, Note_off_c, 0, 71, 97
1, 32678, Note_on_c, 0, 75, 123
1, 32792, Note_off_c, 0, 75, 123
1, 32792, Note_on_c, 0, 71, 103
1, 32887, Note_off_c, 0, 71, 103
1, 32902, Note_on_c, 0, 68, 103
1, 33000, Note_off_c, 0, 68, 103
1, 33045, Note_on_c, 0, 75, 121
1, 33220, Note_off_c, 0, 75, 121
1, 33342, Note_on_c, 0, 75, 119
1, 33498, Note_off_c, 0, 75, 119
1, 33516, Note_on_c, 0, 76, 93
1, 33712, Note_off_c, 0, 76, 93
1, 33727, Note_on_c, 0, 73, 116
1, 33886, Note_off_c, 0, 73, 116
1, 33888, Note_on_c, 0, 71, 98
1, 34012, Note_off_c, 0, 71, 98
1, 34104, Note_on_c, 0, 77, 115
1, 34284, Note_off_c, 0, 77, 115
1, 34297, Note_on_c, 0, 74, 117
1, 34413, Note_off_c, 0, 74, 117
1, 34420, Note_on_c, 0, 70, 100
1, 34563, Note_off_c, 0, 70, 100
1, 34578, Note_on_c, 0, 78, 110
1, 34902, Note_off_c, 0, 78, 110
1, 35714, Note_on_c, 0, 77, 124
1, 35822, Note_off_c, 0, 77, 124
1, 35824, Note_on_c, 0, 78, 113
1, 35930, Note_off_c, 0, 78, 113
1, 35930, Note_on_c, 0, 77, 107
1, 36038, Note_off_c, 0, 77, 107
1, 36040, Note_on_c, 0, 75, 100
1, 36119, Note_off_c, 0, 75, 100
1, 36121, Note_on_c, 0, 76, 108
1, 36206, Note_off_c, 0, 76, 108
1, 36211, Note_on_c, 0, 77, 118
1, 36346, Note_off_c, 0, 77, 118
1, 36348, Note_on_c, 0, 76, 104
1, 36414, Note_off_c, 0, 76, 104
1, 36414, Note_on_c, 0, 73, 108
1, 36501, Note_off_c, 0, 73, 108
1, 36508, Note_on_c, 0, 75, 118
1, 36611, Note_off_c, 0, 75, 118
1, 36613, Note_on_c, 0, 76, 107
1, 36692, Note_off_c, 0, 76, 107
1, 36697, Note_on_c, 0, 75, 112
1, 36784, Note_off_c, 0, 75, 112
1, 36791, Note_on_c, 0, 72, 106
1, 36878, Note_off_c, 0, 72, 106
1, 36880, Note_on_c, 0, 74, 113
1, 36959, Note_on_c, 0, 75, 120
1, 36959, Note_off_c, 0, 74, 113
1, 37051, Note_off_c, 0, 75, 120
1, 37053, Note_on_c, 0, 74, 106
1, 37143, Note_off_c, 0, 74, 106
1, 37148, Note_on_c, 0, 71, 102
1, 37233, Note_off_c, 0, 71, 102
1, 37243, Note_on_c, 0, 73, 113
1, 37325, Note_off_c, 0, 73, 113
1, 37330, Note_on_c, 0, 74, 111
1, 37428, Note_off_c, 0, 74, 111
1, 37433, Note_on_c, 0, 73, 107
1, 37528, Note_off_c, 0, 73, 107
1, 37528, Note_on_c, 0, 70, 103
1, 37589, Note_off_c, 0, 70, 103
1, 37589, Note_on_c, 0, 72, 107
1, 37679, Note_off_c, 0, 72, 107
1, 37681, Note_on_c, 0, 73, 114
1, 37789, Note_off_c, 0, 73, 114
1, 37791, Note_on_c, 0, 72, 110
1, 37889, Note_off_c, 0, 72, 110
1, 37891, Note_on_c, 0, 70, 110
1, 37965, Note_off_c, 0, 70, 110
1, 37975, Note_on_c, 0, 69, 96
1, 38046, Note_off_c, 0, 69, 96
1, 38056, Note_on_c, 0, 68, 110
1, 38159, Note_off_c, 0, 68, 110
1, 38159, Note_on_c, 0, 67, 100
1, 38236, Note_off_c, 0, 67, 100
1, 38241, Note_on_c, 0, 66, 113
1, 38333, Note_off_c, 0, 66, 113
1, 38340, Note_on_c, 0, 65, 110
1, 38432, Note_off_c, 0, 65, 110
1, 38434, Note_on_c, 0, 64, 111
1, 38521, Note_off_c, 0, 64, 111
1, 38528, Note_on_c, 0, 63, 116
1, 38695, Note_off_c, 0, 63, 116
1, 39486, Note_on_c, 0, 62, 124
1, 39613, Note_off_c, 0, 62, 124
1, 39620, Note_on_c, 0, 61, 114
1, 39723, Note_off_c, 0, 61, 114
1, 39723, Note_on_c, 0, 62, 110
1, 39831, Note_off_c, 0, 62, 110
1, 39831, Note_on_c, 0, 64, 102
1, 39939, Note_off_c, 0, 64, 102
1, 39939, Note_on_c, 0, 66, 96
1, 40031, Note_off_c, 0, 66, 96
1, 40031, Note_on_c, 0, 67, 107
1, 40094, Note_off_c, 0, 67, 107
1, 40104, Note_on_c, 0, 69, 117
1, 40204, Note_off_c, 0, 69, 117
1, 40211, Note_on_c, 0, 66, 106
1, 40290, Note_off_c, 0, 66, 106
1, 40300, Note_on_c, 0, 62, 110
1, 40377, Note_off_c, 0, 62, 110
1, 40382, Note_on_c, 0, 59, 107
1, 40461, Note_off_c, 0, 59, 107
1, 40466, Note_on_c, 0, 61, 122
1, 40556, Note_off_c, 0, 61, 122
1, 40556, Note_on_c, 0, 59, 112
1, 40617, Note_off_c, 0, 59, 112
1, 40627, Note_on_c, 0, 58, 100
1, 40725, Note_off_c, 0, 58, 100
1, 40743, Note_on_c, 0, 65, 112
1, 40910, Note_off_c, 0, 65, 112
1, 41056, Note_on_c, 0, 60, 113
1, 41252, Note_off_c, 0, 60, 113
1, 41414, Note_on_c, 0, 60, 120
1, 41605, Note_off_c, 0, 60, 120
1, 41605, Note_on_c, 0, 58, 100
1, 41687, Note_on_c, 0, 60, 113
1, 41687, Note_off_c, 0, 58, 100
1, 41817, Note_off_c, 0, 60, 113
1, 41912, Note_on_c, 0, 61, 123
1, 42044, Note_off_c, 0, 61, 123
1, 42046, Note_on_c, 0, 58, 99
1, 42152, Note_off_c, 0, 58, 99
1, 42545, Note_on_c, 0, 60, 121
1, 42696, Note_off_c, 0, 60, 121
1, 42706, Note_on_c, 0, 57, 106
1, 42759, Note_off_c, 0, 57, 106
1, 42759, Note_on_c, 0, 58, 105
1, 42830, Note_on_c, 0, 60, 117
1, 42830, Note_off_c, 0, 58, 105
1, 42960, Note_off_c, 0, 60, 117
1, 42960, Note_on_c, 0, 61, 112
1, 43047, Note_off_c, 0, 61, 112
1, 43049, Note_on_c, 0, 62, 107
1, 43120, Note_off_c, 0, 62, 107
1, 43120, Note_on_c, 0, 67, 120
1, 43231, Note_off_c, 0, 67, 120
1, 43241, Note_on_c, 0, 66, 118
1, 43326, Note_off_c, 0, 66, 118
1, 43336, Note_on_c, 0, 65, 104
1, 43407, Note_off_c, 0, 65, 104
1, 43412, Note_on_c, 0, 64, 115
1, 43512, Note_off_c, 0, 64, 115
1, 43512, Note_on_c, 0, 63, 115
1, 43615, Note_off_c, 0, 63, 115
1, 43615, Note_on_c, 0, 61, 122
1, 43694, Note_off_c, 0, 61, 122
1, 43701, Note_on_c, 0, 60, 106
1, 43786, Note_off_c, 0, 60, 106
1, 43788, Note_on_c, 0, 59, 119
1, 43907, Note_off_c, 0, 59, 119
1, 43917, Note_on_c, 0, 57, 106
1, 43999, Note_off_c, 0, 57, 106
1, 43999, Note_on_c, 0, 55, 99
1, 44073, Note_off_c, 0, 55, 99
1, 44083, Note_on_c, 0, 61, 122
1, 44183, Note_off_c, 0, 61, 122
1, 44204, Note_on_c, 0, 53, 102
1, 44275, Note_on_c, 0, 57, 95
1, 44275, Note_off_c, 0, 53, 102
1, 44362, Note_off_c, 0, 57, 95
1, 44369, Note_on_c, 0, 61, 124
1, 44483, Note_off_c, 0, 61, 124
1, 44509, Note_on_c, 0, 56, 105
1, 44578, Note_off_c, 0, 56, 105
1, 44578, Note_on_c, 0, 57, 108
1, 44652, Note_off_c, 0, 57, 108
1, 44657, Note_on_c, 0, 61, 114
1, 44760, Note_off_c, 0, 61, 114
1, 44765, Note_on_c, 0, 64, 98
1, 44844, Note_off_c, 0, 64, 98
1, 44851, Note_on_c, 0, 69, 114
1, 44957, Note_off_c, 0, 69, 114
1, 44967, Note_on_c, 0, 64, 111
1, 45052, Note_off_c, 0, 64, 111
1, 45059, Note_on_c, 0, 61, 114
1, 45149, Note_off_c, 0, 61, 114
1, 45149, Note_on_c, 0, 57, 91
1, 45226, Note_off_c, 0, 57, 91
1, 45249, Note_on_c, 0, 68, 106
1, 45397, Note_off_c, 0, 68, 106
1, 45513, Note_on_c, 0, 68, 114
1, 45613, Note_off_c, 0, 68, 114
1, 45613, Note_on_c, 0, 63, 115
1, 45711, Note_off_c, 0, 63, 115
1, 45721, Note_on_c, 0, 68, 114
1, 45808, Note_off_c, 0, 68, 114
1, 45808, Note_on_c, 0, 63, 113
1, 45919, Note_off_c, 0, 63, 113
1, 45929, Note_on_c, 0, 60, 104
1, 46043, Note_off_c, 0, 60, 104
1, 46053, Note_on_c, 0, 56, 98
1, 46183, Note_off_c, 0, 56, 98
1, 46196, Note_on_c, 0, 66, 107
1, 46304, Note_off_c, 0, 66, 107
1, 46319, Note_on_c, 0, 60, 114
1, 46417, Note_off_c, 0, 60, 114
1, 46417, Note_on_c, 0, 56, 116
1, 46497, Note_off_c, 0, 56, 116
1, 46510, Note_on_c, 0, 52, 112
1, 46610, Note_off_c, 0, 52, 112
1, 46628, Note_on_c, 0, 51, 106
1, 46687, Note_off_c, 0, 51, 106
1, 46698, Note_on_c, 0, 49, 110
1, 46759, Note_off_c, 0, 49, 110
1, 46773, Note_on_c, 0, 50, 104
1, 46843, Note_off_c, 0, 50, 104
1, 46918, Note_on_c, 0, 56, 95
1, 47010, Note_off_c, 0, 56, 95
1, 47010, Note_on_c, 0, 60, 114
1, 47148, Note_off_c, 0, 60, 114
1, 47148, Note_on_c, 0, 54, 98
1, 47243, Note_off_c, 0, 54, 98
1, 47253, Note_on_c, 0, 55, 101
1, 47345, Note_off_c, 0, 55, 101
1, 47355, Note_on_c, 0, 58, 109
1, 47447, Note_off_c, 0, 58, 109
1, 47447, Note_on_c, 0, 57, 101
1, 47561, Note_off_c, 0, 57, 101
1, 47578, Note_on_c, 0, 56, 91
1, 47676, Note_off_c, 0, 56, 91
1, 47936, Note_on_c, 0, 56, 120
1, 48036, Note_off_c, 0, 56, 120
1, 48054, Note_on_c, 0, 53, 108
1, 48123, Note_off_c, 0, 53, 108
1, 48149, Note_on_c, 0, 56, 120
1, 48257, Note_off_c, 0, 56, 120
1, 48493, Note_on_c, 0, 60, 119
1, 48623, Note_off_c, 0, 60, 119
1, 48623, Note_on_c, 0, 56, 113
1, 48708, Note_on_c, 0, 60, 107
1, 48708, Note_off_c, 0, 56, 113
1, 48819, Note_off_c, 0, 60, 107
1, 49050, Note_on_c, 0, 63, 122
1, 49174, Note_off_c, 0, 63, 122
1, 49174, Note_on_c, 0, 60, 111
1, 49266, Note_off_c, 0, 60, 111
1, 49268, Note_on_c, 0, 63, 104
1, 49400, Note_off_c, 0, 63, 104
1, 49450, Note_on_c, 0, 67, 116
1, 49548, Note_off_c, 0, 67, 116
1, 49548, Note_on_c, 0, 63, 97
1, 49635, Note_on_c, 0, 67, 111
1, 49635, Note_off_c, 0, 63, 97
1, 49722, Note_off_c, 0, 67, 111
1, 49727, Note_on_c, 0, 70, 114
1, 49841, Note_off_c, 0, 70, 114
1, 49896, Note_on_c, 0, 67, 105
1, 49975, Note_off_c, 0, 67, 105
1, 49975, Note_on_c, 0, 70, 113
1, 50115, Note_off_c, 0, 70, 113
1, 50189, Note_on_c, 0, 67, 114
1, 50329, Note_off_c, 0, 67, 114
1, 50339, Note_on_c, 0, 63, 107
1, 50413, Note_off_c, 0, 63, 107
1, 50426, Note_on_c, 0, 67, 107
1, 50550, Note_off_c, 0, 67, 107
1, 51668, Note_on_c, 0, 70, 113
1, 51800, Note_off_c, 0, 70, 113
1, 51807, Note_on_c, 0, 67, 108
1, 51905, Note_off_c, 0, 67, 108
1, 51905, Note_on_c, 0, 70, 112
1, 52019, Note_off_c, 0, 70, 112
1, 52082, Note_on_c, 0, 75, 120
1, 52209, Note_off_c, 0, 75, 120
1, 52222, Note_on_c, 0, 70, 100
1, 52288, Note_off_c, 0, 70, 100
1, 52293, Note_on_c, 0, 75, 115
1, 52423, Note_off_c, 0, 75, 115
1, 52478, Note_on_c, 0, 70, 107
1, 52586, Note_off_c, 0, 70, 107
1, 52588, Note_on_c, 0, 67, 108
1, 52657, Note_off_c, 0, 67, 108
1, 52657, Note_on_c, 0, 70, 102
1, 52784, Note_off_c, 0, 70, 102
1, 53595, Note_on_c, 0, 68, 114
1, 53707, Note_off_c, 0, 68, 114
1, 53707, Note_on_c, 0, 65, 105
1, 53797, Note_off_c, 0, 65, 105
1, 53802, Note_on_c, 0, 68, 105
1, 53892, Note_off_c, 0, 68, 105
1, 53899, Note_on_c, 0, 73, 113
1, 54021, Note_off_c, 0, 73, 113
1, 54098, Note_on_c, 0, 68, 97
1, 54151, Note_off_c, 0, 68, 97
1, 54151, Note_on_c, 0, 73, 114
1, 54328, Note_off_c, 0, 73, 114
1, 55121, Note_on_c, 0, 66, 103
1, 55259, Note_off_c, 0, 66, 103
1, 55264, Note_on_c, 0, 63, 93
1, 55335, Note_off_c, 0, 63, 93
1, 55348, Note_on_c, 0, 66, 108
1, 55427, Note_off_c, 0, 66, 108
1, 55427, Note_on_c, 0, 63, 108
1, 55496, Note_off_c, 0, 63, 108
1, 55501, Note_on_c, 0, 65, 116
1, 55596, Note_off_c, 0, 65, 116
1, 55596, Note_on_c, 0, 64, 112
1, 55699, Note_off_c, 0, 64, 112
1, 55701, Note_on_c, 0, 63, 98
1, 55793, Note_off_c, 0, 63, 98
1, 56249, Note_on_c, 0, 63, 123
1, 56360, Note_off_c, 0, 63, 123
1, 56360, Note_on_c, 0, 61, 111
1, 56429, Note_off_c, 0, 61, 111
1, 56434, Note_on_c, 0, 62, 121
1, 56526, Note_off_c, 0, 62, 121
1, 56533, Note_on_c, 0, 61, 113
1, 56639, Note_on_c, 0, 60, 106
1, 56639, Note_off_c, 0, 61, 113
1, 56697, Note_off_c, 0, 60, 106
1, 56697, Note_on_c, 0, 59, 117
1, 56808, Note_off_c, 0, 59, 117
1, 56829, Note_on_c, 0, 58, 105
1, 56921, Note_off_c, 0, 58, 105
1, 56921, Note_on_c, 0, 56, 103
1, 57019, Note_off_c, 0, 56, 103
1, 57072, Note_on_c, 0, 56, 110
1, 57178, Note_off_c, 0, 56, 110
1, 57193, Note_on_c, 0, 59, 98
1, 57309, Note_off_c, 0, 59, 98
1, 57399, Note_on_c, 0, 67, 119
1, 57510, Note_off_c, 0, 67, 119
1, 57512, Note_on_c, 0, 68, 108
1, 57623, Note_off_c, 0, 68, 108
1, 57623, Note_on_c, 0, 67, 109
1, 57697, Note_off_c, 0, 67, 109
1, 57704, Note_on_c, 0, 66, 106
1, 57783, Note_off_c, 0, 66, 106
1, 57860, Note_on_c, 0, 64, 113
1, 57958, Note_off_c, 0, 64, 113
1, 57963, Note_on_c, 0, 62, 111
1, 58055, Note_off_c, 0, 62, 111
1, 58065, Note_on_c, 0, 60, 96
1, 58155, Note_off_c, 0, 60, 96
1, 58165, Note_on_c, 0, 63, 118
1, 58279, Note_off_c, 0, 63, 118
1, 58294, Note_on_c, 0, 57, 103
1, 58365, Note_off_c, 0, 57, 103
1, 58375, Note_on_c, 0, 61, 117
1, 58457, Note_off_c, 0, 61, 117
1, 58457, Note_on_c, 0, 63, 124
1, 58552, Note_off_c, 0, 63, 124
1, 58562, Note_on_c, 0, 65, 115
1, 58657, Note_off_c, 0, 65, 115
1, 58659, Note_on_c, 0, 66, 102
1, 58730, Note_off_c, 0, 66, 102
1, 58743, Note_on_c, 0, 68, 107
1, 58828, Note_on_c, 0, 71, 114
1, 58828, Note_off_c, 0, 68, 107
1, 58942, Note_off_c, 0, 71, 114
1, 58992, Note_on_c, 0, 69, 114
1, 59100, Note_off_c, 0, 69, 114
1, 59105, Note_on_c, 0, 68, 112
1, 59184, Note_off_c, 0, 68, 112
1, 59189, Note_on_c, 0, 66, 110
1, 59271, Note_off_c, 0, 66, 110
1, 59281, Note_on_c, 0, 65, 105
1, 59387, Note_off_c, 0, 65, 105
1, 59392, Note_on_c, 0, 63, 124
1, 59482, Note_off_c, 0, 63, 124
1, 59482, Note_on_c, 0, 62, 118
1, 59590, Note_off_c, 0, 62, 118
1, 59675, Note_on_c, 0, 69, 109
1, 59937, Note_off_c, 0, 69, 109
1, 59942, Note_on_c, 0, 67, 118
1, 60066, Note_off_c, 0, 67, 118
1, 60079, Note_on_c, 0, 66, 113
1, 60156, Note_off_c, 0, 66, 113
1, 60156, Note_on_c, 0, 64, 111
1, 60254, Note_off_c, 0, 64, 111
1, 60259, Note_on_c, 0, 63, 122
1, 60357, Note_off_c, 0, 63, 122
1, 60367, Note_on_c, 0, 61, 112
1, 60462, Note_off_c, 0, 61, 112
1, 60464, Note_on_c, 0, 60, 97
1, 60551, Note_off_c, 0, 60, 97
1, 60641, Note_on_c, 0, 67, 122
1, 60760, Note_on_c, 0, 65, 121
1, 60760, Note_off_c, 0, 67, 122
1, 60855, Note_off_c, 0, 65, 121
1, 60860, Note_on_c, 0, 64, 113
1, 60952, Note_off_c, 0, 64, 113
1, 60954, Note_on_c, 0, 62, 120
1, 61041, Note_on_c, 0, 63, 122
1, 61041, Note_off_c, 0, 62, 120
1, 61133, Note_off_c, 0, 63, 122
1, 61133, Note_on_c, 0, 61, 121
1, 61225, Note_off_c, 0, 61, 121
1, 61225, Note_on_c, 0, 60, 97
1, 61302, Note_off_c, 0, 60, 97
1, 61302, Note_on_c, 0, 58, 114
1, 61410, Note_on_c, 0, 57, 108
1, 61410, Note_off_c, 0, 58, 114
1, 61500, Note_off_c, 0, 57, 108
1, 61510, Note_on_c, 0, 55, 105
1, 61616, Note_off_c, 0, 55, 105
1, 61618, Note_on_c, 0, 57, 105
1, 61697, Note_off_c, 0, 57, 105
1, 61705, Note_on_c, 0, 53, 113
1, 61749, Note_off_c, 0, 53, 113
1, 61750, Note_on_c, 0, 54, 110
1, 61800, Note_off_c, 0, 54, 110
1, 61805, Note_on_c, 0, 55, 95
1, 61916, Note_off_c, 0, 55, 95
1, 62734, Note_on_c, 0, 53, 118
1, 62927, Note_off_c, 0, 53, 118
1, 62932, Note_on_c, 0, 53, 117
1, 63062, Note_off_c, 0, 53, 117
1, 63069, Note_on_c, 0, 56, 116
1, 63175, Note_off_c, 0, 56, 116
1, 63182, Note_on_c, 0, 55, 105
1, 63333, Note_off_c, 0, 55, 105
1, 63351, Note_on_c, 0, 55, 109
1, 63459, Note_off_c, 0, 55, 109
1, 63466, Note_on_c, 0, 58, 111
1, 63585, Note_off_c, 0, 58, 111
1, 63598, Note_on_c, 0, 56, 103
1, 63733, Note_off_c, 0, 56, 103
1, 63740, Note_on_c, 0, 56, 103
1, 63817, Note_on_c, 0, 60, 116
1, 63817, Note_off_c, 0, 56, 103
1, 63941, Note_off_c, 0, 60, 116
1, 63946, Note_on_c, 0, 58, 102
1, 64105, Note_off_c, 0, 58, 102
1, 64115, Note_on_c, 0, 58, 100
1, 64202, Note_off_c, 0, 58, 100
1, 64202, Note_on_c, 0, 62, 119
1, 64310, Note_off_c, 0, 62, 119
1, 64315, Note_on_c, 0, 60, 106
1, 64477, Note_off_c, 0, 60, 106
1, 64490, Note_on_c, 0, 60, 108
1, 64585, Note_off_c, 0, 60, 108
1, 64585, Note_on_c, 0, 63, 123
1, 64712, Note_off_c, 0, 63, 123
1, 64712, Note_on_c, 0, 62, 111
1, 64882, Note_off_c, 0, 62, 111
1, 64897, Note_on_c, 0, 62, 115
1, 64995, Note_off_c, 0, 62, 115
1, 64995, Note_on_c, 0, 65, 111
1, 65098, Note_on_c, 0, 61, 108
1, 65098, Note_off_c, 0, 65, 111
1, 65252, Note_off_c, 0, 61, 108
1, 65273, Note_on_c, 0, 61, 120
1, 65379, Note_off_c, 0, 61, 120
1, 65379, Note_on_c, 0, 65, 115
1, 65509, Note_off_c, 0, 65, 115
1, 65519, Note_on_c, 0, 63, 106
1, 65675, Note_off_c, 0, 63, 106
1, 65688, Note_on_c, 0, 63, 111
1, 65765, Note_off_c, 0, 63, 111
1, 65767, Note_on_c, 0, 67, 113
1, 65859, Note_off_c, 0, 67, 113
1, 65859, Note_on_c, 0, 65, 112
1, 66031, Note_off_c, 0, 65, 112
1, 66049, Note_on_c, 0, 65, 107
1, 66211, Note_off_c, 0, 65, 107
1, 66521, Note_on_c, 0, 64, 107
1, 66661, Note_off_c, 0, 64, 107
1, 66708, Note_on_c, 0, 64, 108
1, 66851, Note_off_c, 0, 64, 108
1, 66912, Note_on_c, 0, 67, 116
1, 67023, Note_off_c, 0, 67, 116
1, 67033, Note_on_c, 0, 65, 110
1, 67165, Note_off_c, 0, 65, 110
1, 67210, Note_on_c, 0, 65, 111
1, 67332, Note_off_c, 0, 65, 111
1, 67332, Note_on_c, 0, 68, 113
1, 67438, Note_off_c, 0, 68, 113
1, 67438, Note_on_c, 0, 67, 105
1, 67581, Note_off_c, 0, 67, 105
1, 67602, Note_on_c, 0, 67, 105
1, 67697, Note_off_c, 0, 67, 105
1, 67697, Note_on_c, 0, 70, 114
1, 67829, Note_off_c, 0, 70, 114
1, 67834, Note_on_c, 0, 68, 110
1, 67985, Note_off_c, 0, 68, 110
1, 68468, Note_on_c, 0, 69, 106
1, 68640, Note_off_c, 0, 69, 106
1, 68661, Note_on_c, 0, 69, 108
1, 68815, Note_off_c, 0, 69, 108
1, 68849, Note_on_c, 0, 72, 108
1, 68965, Note_off_c, 0, 72, 108
1, 68972, Note_on_c, 0, 71, 110
1, 69120, Note_off_c, 0, 71, 110
1, 69173, Note_on_c, 0, 71, 107
1, 69263, Note_off_c, 0, 71, 107
1, 69268, Note_on_c, 0, 74, 117
1, 69382, Note_off_c, 0, 74, 117
1, 69384, Note_on_c, 0, 73, 111
1, 69551, Note_off_c, 0, 73, 111
1, 69553, Note_on_c, 0, 73, 111
1, 69653, Note_off_c, 0, 73, 111
1, 69655, Note_on_c, 0, 76, 112
1, 69766, Note_off_c, 0, 76, 112
1, 69771, Note_on_c, 0, 75, 116
1, 69917, Note_off_c, 0, 75, 116
1, 69938, Note_on_c, 0, 75, 110
1, 70033, Note_off_c, 0, 75, 110
1, 70051, Note_on_c, 0, 78, 118
1, 70138, Note_off_c, 0, 78, 118
1, 70145, Note_on_c, 0, 77, 115
1, 70296, Note_off_c, 0, 77, 115
1, 70330, Note_on_c, 0, 77, 101
1, 70438, Note_off_c, 0, 77, 101
1, 70440, Note_on_c, 0, 80, 104
1, 70530, Note_off_c, 0, 80, 104
1, 70545, Note_on_c, 0, 78, 119
1, 70680, Note_off_c, 0, 78, 119
1, 70692, Note_on_c, 0, 78, 93
1, 70819, Note_off_c, 0, 78, 93
1, 70820, Note_on_c, 0, 81, 110
1, 70936, Note_off_c, 0, 81, 110
1, 70946, Note_on_c, 0, 83, 93
1, 71331, Note_off_c, 0, 83, 93
1, 71450, Note_on_c, 0, 81, 114
1, 71580, Note_off_c, 0, 81, 114
1, 71587, Note_on_c, 0, 80, 95
1, 71727, Note_off_c, 0, 80, 95
1, 71740, Note_on_c, 0, 78, 124
1, 71835, Note_off_c, 0, 78, 124
1, 71842, Note_on_c, 0, 77, 114
1, 71919, Note_off_c, 0, 77, 114
1, 71929, Note_on_c, 0, 75, 122
1, 72040, Note_off_c, 0, 75, 122
1, 72045, Note_on_c, 0, 74, 111
1, 72127, Note_off_c, 0, 74, 111
1, 72132, Note_on_c, 0, 72, 105
1, 72222, Note_off_c, 0, 72, 105
1, 72229, Note_on_c, 0, 71, 102
1, 72298, Note_off_c, 0, 71, 102
1, 72298, Note_on_c, 0, 74, 114
1, 72409, Note_off_c, 0, 74, 114
1, 72416, Note_on_c, 0, 73, 103
1, 72514, Note_on_c, 0, 71, 100
1, 72514, Note_off_c, 0, 73, 103
1, 72585, Note_off_c, 0, 71, 100
1, 72585, Note_on_c, 0, 72, 109
1, 72699, Note_off_c, 0, 72, 109
1, 72704, Note_on_c, 0, 71, 101
1, 72815, Note_off_c, 0, 71, 101
1, 72815, Note_on_c, 0, 72, 105
1, 72915, Note_off_c, 0, 72, 105
1, 72920, Note_on_c, 0, 74, 113
1, 72999, Note_off_c, 0, 74, 113
1, 73006, Note_on_c, 0, 75, 119
1, 73093, Note_off_c, 0, 75, 119
1, 73100, Note_on_c, 0, 77, 119
1, 73187, Note_off_c, 0, 77, 119
1, 73192, Note_on_c, 0, 78, 108
1, 73263, Note_off_c, 0, 78, 108
1, 73263, Note_on_c, 0, 79, 99
1, 73334, Note_off_c, 0, 79, 99
1, 73334, Note_on_c, 0, 82, 122
1, 73440, Note_on_c, 0, 78, 119
1, 73440, Note_off_c, 0, 82, 122
1, 73532, Note_off_c, 0, 78, 119
1, 73537, Note_on_c, 0, 77, 111
1, 73608, Note_off_c, 0, 77, 111
1, 73615, Note_on_c, 0, 75, 126
1, 73670, Note_off_c, 0, 75, 126
1, 73688, Note_on_c, 0, 74, 119
1, 73730, Note_off_c, 0, 74, 119
1, 73740, Note_on_c, 0, 73, 104
1, 73785, Note_off_c, 0, 73, 104
1, 73803, Note_on_c, 0, 72, 103
1, 73898, Note_off_c, 0, 72, 103
1, 73905, Note_on_c, 0, 70, 106
1, 74019, Note_off_c, 0, 70, 106
1, 74032, Note_on_c, 0, 66, 103
1, 74111, Note_off_c, 0, 66, 103
1, 74111, Note_on_c, 0, 65, 104
1, 74203, Note_off_c, 0, 65, 104
1, 74218, Note_on_c, 0, 62, 104
1, 74465, Note_off_c, 0, 62, 104
1, 74685, Note_on_c, 0, 65, 115
1, 74870, Note_off_c, 0, 65, 115
1, 74973, Note_on_c, 0, 62, 119
1, 75071, Note_off_c, 0, 62, 119
1, 75071, Note_on_c, 0, 63, 115
1, 75171, Note_off_c, 0, 63, 115
1, 75173, Note_on_c, 0, 65, 111
1, 75303, Note_off_c, 0, 65, 111
1, 75380, Note_on_c, 0, 67, 99
1, 75438, Note_off_c, 0, 67, 99
1, 75438, Note_on_c, 0, 70, 115
1, 75592, Note_off_c, 0, 70, 115
1, 76205, Note_on_c, 0, 68, 114
1, 76303, Note_off_c, 0, 68, 114
1, 76310, Note_on_c, 0, 69, 104
1, 76392, Note_off_c, 0, 69, 104
1, 76399, Note_on_c, 0, 67, 97
1, 76486, Note_off_c, 0, 67, 97
1, 76491, Note_on_c, 0, 66, 113
1, 76605, Note_off_c, 0, 66, 113
1, 76610, Note_on_c, 0, 65, 112
1, 76692, Note_off_c, 0, 65, 112
1, 76694, Note_on_c, 0, 64, 112
1, 76792, Note_off_c, 0, 64, 112
1, 76797, Note_on_c, 0, 63, 122
1, 76905, Note_off_c, 0, 63, 122
1, 76910, Note_on_c, 0, 61, 120
1, 77064, Note_off_c, 0, 61, 120
1, 77071, Note_on_c, 0, 59, 117
1, 77209, Note_off_c, 0, 59, 117
1, 77209, Note_on_c, 0, 57, 100
1, 77286, Note_off_c, 0, 57, 100
1, 77291, Note_on_c, 0, 55, 101
1, 77370, Note_off_c, 0, 55, 101
1, 77377, Note_on_c, 0, 58, 109
1, 77475, Note_off_c, 0, 58, 109
1, 77477, Note_on_c, 0, 55, 110
1, 77583, Note_off_c, 0, 55, 110
1, 77583, Note_on_c, 0, 58, 97
1, 77681, Note_off_c, 0, 58, 97
1, 77763, Note_on_c, 0, 61, 121
1, 77887, Note_off_c, 0, 61, 121
1, 77894, Note_on_c, 0, 58, 106
1, 77986, Note_off_c, 0, 58, 106
1, 77993, Note_on_c, 0, 61, 109
1, 78083, Note_off_c, 0, 61, 109
1, 78122, Note_on_c, 0, 65, 113
1, 78244, Note_off_c, 0, 65, 113
1, 78254, Note_on_c, 0, 61, 112
1, 78373, Note_off_c, 0, 61, 112
1, 78375, Note_on_c, 0, 65, 103
1, 78454, Note_off_c, 0, 65, 103
1, 78523, Note_on_c, 0, 68, 110
1, 78655, Note_off_c, 0, 68, 110
1, 78774, Note_on_c, 0, 72, 100
1, 78951, Note_off_c, 0, 72, 100
1, 78974, Note_on_c, 0, 72, 106
1, 79120, Note_off_c, 0, 72, 106
1, 79159, Note_on_c, 0, 70, 109
1, 79278, Note_off_c, 0, 70, 109
1, 79285, Note_on_c, 0, 68, 99
1, 79362, Note_off_c, 0, 68, 99
1, 79364, Note_on_c, 0, 70, 100
1, 79403, Note_off_c, 0, 70, 100
1, 79403, Note_on_c, 0, 68, 105
1, 79434, Note_off_c, 0, 68, 105
1, 79449, Note_on_c, 0, 65, 111
1, 79587, Note_off_c, 0, 65, 111
1, 80456, Note_on_c, 0, 58, 112
1, 80545, Note_off_c, 0, 58, 112
1, 80545, Note_on_c, 0, 59, 105
1, 80638, Note_off_c, 0, 59, 105
1, 80662, Note_on_c, 0, 61, 106
1, 80811, Note_off_c, 0, 61, 106
1, 80816, Note_on_c, 0, 62, 106
1, 80872, Note_on_c, 0, 64, 109
1, 80872, Note_off_c, 0, 62, 106
1, 80982, Note_off_c, 0, 64, 109
1, 80982, Note_on_c, 0, 65, 108
1, 81051, Note_off_c, 0, 65, 108
1, 81058, Note_on_c, 0, 67, 104
1, 81134, Note_off_c, 0, 67, 104
1, 81139, Note_on_c, 0, 68, 118
1, 81226, Note_off_c, 0, 68, 118
1, 81239, Note_on_c, 0, 65, 111
1, 81334, Note_off_c, 0, 65, 111
1, 81339, Note_on_c, 0, 62, 109
1, 81443, Note_off_c, 0, 62, 109
1, 81450, Note_on_c, 0, 59, 103
1, 81524, Note_off_c, 0, 59, 103
1, 81529, Note_on_c, 0, 65, 112
1, 81633, Note_off_c, 0, 65, 112
1, 81642, Note_on_c, 0, 61, 103
1, 81701, Note_off_c, 0, 61, 103
1, 81701, Note_on_c, 0, 64, 114
1, 81790, Note_off_c, 0, 64, 114
1, 81795, Note_on_c, 0, 61, 115
1, 81923, Note_off_c, 0, 61, 115
1, 81965, Note_on_c, 0, 61, 122
1, 82116, Note_off_c, 0, 61, 122
1, 82116, Note_on_c, 0, 64, 106
1, 82200, Note_off_c, 0, 64, 106
1, 82207, Note_on_c, 0, 68, 100
1, 82281, Note_off_c, 0, 68, 100
1, 82294, Note_on_c, 0, 72, 108
1, 82350, Note_off_c, 0, 72, 108
1, 82355, Note_on_c, 0, 69, 105
1, 82427, Note_off_c, 0, 69, 105
1, 82428, Note_on_c, 0, 70, 109
1, 82534, Note_off_c, 0, 70, 109
1, 82537, Note_on_c, 0, 72, 113
1, 82658, Note_off_c, 0, 72, 113
1, 82661, Note_on_c, 0, 73, 109
1, 82739, Note_off_c, 0, 73, 109
1, 82746, Note_on_c, 0, 75, 111
1, 82818, Note_off_c, 0, 75, 111
1, 82819, Note_on_c, 0, 80, 105
1, 82910, Note_off_c, 0, 80, 105
1, 82910, Note_on_c, 0, 78, 114
1, 82997, Note_off_c, 0, 78, 114
1, 83008, Note_on_c, 0, 73, 110
1, 83099, Note_off_c, 0, 73, 110
1, 83106, Note_on_c, 0, 69, 95
1, 83169, Note_off_c, 0, 69, 95
1, 83174, Note_on_c, 0, 68, 106
1, 83267, Note_off_c, 0, 68, 106
1, 83270, Note_on_c, 0, 67, 110
1, 83355, Note_off_c, 0, 67, 110
1, 83364, Note_on_c, 0, 66, 102
1, 83455, Note_on_c, 0, 68, 111
1, 83455, Note_off_c, 0, 66, 102
1, 83563, Note_off_c, 0, 68, 111
1, 83563, Note_on_c, 0, 65, 105
1, 83652, Note_off_c, 0, 65, 105
1, 83653, Note_on_c, 0, 63, 122
1, 83770, Note_off_c, 0, 63, 122
1, 83777, Note_on_c, 0, 60, 105
1, 83831, Note_off_c, 0, 60, 105
1, 83834, Note_on_c, 0, 61, 113
1, 83959, Note_off_c, 0, 61, 113
1, 83968, Note_on_c, 0, 62, 103
1, 84154, Note_off_c, 0, 62, 103
1, 84497, Note_on_c, 0, 63, 123
1, 84820, Note_off_c, 0, 63, 123
1, 84825, Note_on_c, 0, 60, 98
1, 84903, Note_on_c, 0, 63, 121
1, 84903, Note_off_c, 0, 60, 98
1, 85043, Note_off_c, 0, 63, 121
1, 85043, Note_on_c, 0, 60, 108
1, 85119, Note_off_c, 0, 60, 108
1, 85120, Note_on_c, 0, 63, 122
1, 85304, Note_off_c, 0, 63, 122
1, 85673, Note_on_c, 0, 64, 114
1, 85749, Note_off_c, 0, 64, 114
1, 85749, Note_on_c, 0, 65, 109
1, 85823, Note_off_c, 0, 65, 109
1, 85828, Note_on_c, 0, 64, 115
1, 85875, Note_off_c, 0, 64, 115
1, 85879, Note_on_c, 0, 61, 113
1, 85982, Note_off_c, 0, 61, 113
1, 86063, Note_on_c, 0, 64, 109
1, 86121, Note_off_c, 0, 64, 109
1, 86126, Note_on_c, 0, 65, 112
1, 86201, Note_off_c, 0, 65, 112
1, 86205, Note_on_c, 0, 64, 111
1, 86255, Note_off_c, 0, 64, 111
1, 86255, Note_on_c, 0, 61, 108
1, 86322, Note_off_c, 0, 61, 108
1, 86323, Note_on_c, 0, 65, 111
1, 86647, Note_off_c, 0, 65, 111
1, 87223, Note_on_c, 0, 67, 121
1, 87330, Note_off_c, 0, 67, 121
1, 87334, Note_on_c, 0, 66, 117
1, 87437, Note_off_c, 0, 66, 117
1, 87443, Note_on_c, 0, 65, 96
1, 87500, Note_off_c, 0, 65, 96
1, 87508, Note_on_c, 0, 63, 124
1, 87616, Note_off_c, 0, 63, 124
1, 87619, Note_on_c, 0, 62, 115
1, 87681, Note_off_c, 0, 62, 115
1, 87683, Note_on_c, 0, 60, 112
1, 87769, Note_off_c, 0, 60, 112
1, 87774, Note_on_c, 0, 58, 108
1, 87900, Note_off_c, 0, 58, 108
1, 88552, Note_on_c, 0, 67, 121
1, 88669, Note_off_c, 0, 67, 121
1, 88669, Note_on_c, 0, 66, 113
1, 88741, Note_off_c, 0, 66, 113
1, 88748, Note_on_c, 0, 65, 105
1, 88824, Note_off_c, 0, 65, 105
1, 88827, Note_on_c, 0, 63, 125
1, 88924, Note_off_c, 0, 63, 125
1, 88933, Note_on_c, 0, 62, 116
1, 89015, Note_off_c, 0, 62, 116
1, 89018, Note_on_c, 0, 60, 104
1, 89100, Note_off_c, 0, 60, 104
1, 89103, Note_on_c, 0, 58, 107
1, 89220, Note_off_c, 0, 58, 107
1, 90280, Note_on_c, 0, 67, 123
1, 90401, Note_off_c, 0, 67, 123
1, 90404, Note_on_c, 0, 66, 116
1, 90491, Note_off_c, 0, 66, 116
1, 90491, Note_on_c, 0, 65, 104
1, 90548, Note_off_c, 0, 65, 104
1, 90557, Note_on_c, 0, 63, 125
1, 90644, Note_off_c, 0, 63, 125
1, 90649, Note_on_c, 0, 62, 110
1, 90731, Note_off_c, 0, 62, 110
1, 90738, Note_on_c, 0, 60, 109
1, 90823, Note_off_c, 0, 60, 109
1, 90824, Note_on_c, 0, 58, 106
1, 90911, Note_off_c, 0, 58, 106
1, 91785, Note_on_c, 0, 67, 121
1, 91869, Note_off_c, 0, 67, 121
1, 91872, Note_on_c, 0, 65, 111
1, 91984, Note_off_c, 0, 65, 111
1, 91984, Note_on_c, 0, 66, 103
1, 92066, Note_off_c, 0, 66, 103
1, 92071, Note_on_c, 0, 65, 113
1, 92190, Note_off_c, 0, 65, 113
1, 92234, Note_on_c, 0, 63, 109
1, 92342, Note_off_c, 0, 63, 109
1, 92347, Note_on_c, 0, 62, 100
1, 92444, Note_off_c, 0, 62, 100
1, 93217, Note_on_c, 0, 67, 121
1, 93323, Note_off_c, 0, 67, 121
1, 93326, Note_on_c, 0, 68, 115
1, 93402, Note_off_c, 0, 68, 115
1, 93405, Note_on_c, 0, 66, 101
1, 93479, Note_off_c, 0, 66, 101
1, 93484, Note_on_c, 0, 67, 114
1, 93588, Note_off_c, 0, 67, 114
1, 93589, Note_on_c, 0, 65, 109
1, 93671, Note_off_c, 0, 65, 109
1, 93671, Note_on_c, 0, 66, 105
1, 93807, Note_off_c, 0, 66, 105
1, 93807, Note_on_c, 0, 64, 103
1, 93863, Note_off_c, 0, 64, 103
1, 93866, Note_on_c, 0, 65, 110
1, 94021, Note_off_c, 0, 65, 110
1, 94149, Note_on_c, 0, 63, 123
1, 94246, Note_off_c, 0, 63, 123
1, 94249, Note_on_c, 0, 64, 109
1, 94357, Note_off_c, 0, 64, 109
1, 94366, Note_on_c, 0, 66, 106
1, 94511, Note_off_c, 0, 66, 106
1, 94511, Note_on_c, 0, 69, 113
1, 94643, Note_off_c, 0, 69, 113
1, 94643, Note_on_c, 0, 70, 107
1, 94713, Note_off_c, 0, 70, 107
1, 94720, Note_on_c, 0, 71, 92
1, 94804, Note_off_c, 0, 71, 92
1, 94818, Note_on_c, 0, 73, 112
1, 94916, Note_off_c, 0, 73, 112
1, 94916, Note_on_c, 0, 70, 101
1, 94992, Note_off_c, 0, 70, 101
1, 94999, Note_on_c, 0, 72, 103
1, 95163, Note_off_c, 0, 72, 103
1, 95164, Note_on_c, 0, 70, 103
1, 95291, Note_on_c, 0, 68, 104
1, 95291, Note_off_c, 0, 70, 103
1, 95375, Note_off_c, 0, 68, 104
1, 95375, Note_on_c, 0, 69, 110
1, 95516, Note_off_c, 0, 69, 110
1, 95936, Note_on_c, 0, 67, 121
1, 96046, Note_off_c, 0, 67, 121
1, 96046, Note_on_c, 0, 66, 114
1, 96137, Note_off_c, 0, 66, 114
1, 96137, Note_on_c, 0, 67, 101
1, 96239, Note_off_c, 0, 67, 101
1, 96240, Note_on_c, 0, 68, 105
1, 96381, Note_off_c, 0, 68, 105
1, 96427, Note_on_c, 0, 71, 106
1, 96557, Note_off_c, 0, 71, 106
1, 96562, Note_on_c, 0, 73, 104
1, 96631, Note_off_c, 0, 73, 104
1, 96640, Note_on_c, 0, 74, 102
1, 96699, Note_off_c, 0, 74, 102
1, 96704, Note_on_c, 0, 75, 117
1, 96819, Note_off_c, 0, 75, 117
1, 96820, Note_on_c, 0, 72, 101
1, 96883, Note_on_c, 0, 74, 110
1, 96883, Note_off_c, 0, 72, 101
1, 96995, Note_off_c, 0, 74, 110
1, 96995, Note_on_c, 0, 72, 99
1, 97073, Note_off_c, 0, 72, 99
1, 97082, Note_on_c, 0, 73, 109
1, 97179, Note_off_c, 0, 73, 109
1, 97182, Note_on_c, 0, 70, 96
1, 97267, Note_off_c, 0, 70, 96
1, 97270, Note_on_c, 0, 72, 108
1, 97398, Note_off_c, 0, 72, 108
1, 97403, Note_on_c, 0, 69, 97
1, 97475, Note_off_c, 0, 69, 97
1, 97478, Note_on_c, 0, 70, 92
1, 97562, Note_off_c, 0, 70, 92
1, 97562, Note_on_c, 0, 68, 98
1, 97631, Note_off_c, 0, 68, 98
1, 97634, Note_on_c, 0, 69, 114
1, 97723, Note_off_c, 0, 69, 114
1, 97723, Note_on_c, 0, 68, 110
1, 97797, Note_off_c, 0, 68, 110
1, 97839, Note_on_c, 0, 67, 101
1, 97908, Note_off_c, 0, 67, 101
1, 97908, Note_on_c, 0, 66, 110
1, 97999, Note_off_c, 0, 66, 110
1, 98017, Note_on_c, 0, 65, 105
1, 98099, Note_off_c, 0, 65, 105
1, 98112, Note_on_c, 0, 64, 110
1, 98203, Note_off_c, 0, 64, 110
1, 98212, Note_on_c, 0, 63, 118
1, 98339, Note_off_c, 0, 63, 118
1, 98344, Note_on_c, 0, 66, 102
1, 98465, Note_off_c, 0, 66, 102
1, 98964, Note_on_c, 0, 65, 112
1, 99163, Note_off_c, 0, 65, 112
1, 99173, Note_on_c, 0, 65, 123
1, 99284, Note_off_c, 0, 65, 123
1, 99302, Note_on_c, 0, 63, 121
1, 99408, Note_off_c, 0, 63, 121
1, 99426, Note_on_c, 0, 63, 103
1, 99548, Note_off_c, 0, 63, 103
1, 99561, Note_on_c, 0, 65, 110
1, 99738, Note_off_c, 0, 65, 110
1, 99751, Note_on_c, 0, 65, 113
1, 99865, Note_off_c, 0, 65, 113
1, 99883, Note_on_c, 0, 61, 112
1, 100007, Note_off_c, 0, 61, 112
1, 100041, Note_on_c, 0, 61, 109
1, 100147, Note_off_c, 0, 61, 109
1, 100147, Note_on_c, 0, 65, 113
1, 100346, Note_off_c, 0, 65, 113
1, 100369, Note_on_c, 0, 65, 113
1, 100430, Note_off_c, 0, 65, 113
1, 100448, Note_on_c, 0, 60, 111
1, 100522, Note_off_c, 0, 60, 111
1, 100622, Note_on_c, 0, 60, 108
1, 100730, Note_off_c, 0, 60, 108
1, 100730, Note_on_c, 0, 65, 114
1, 100886, Note_off_c, 0, 65, 114
1, 100920, Note_on_c, 0, 65, 114
1, 101044, Note_off_c, 0, 65, 114
1, 101044, Note_on_c, 0, 58, 108
1, 101163, Note_off_c, 0, 58, 108
1, 101186, Note_on_c, 0, 58, 106
1, 101297, Note_off_c, 0, 58, 106
1, 101297, Note_on_c, 0, 59, 115
1, 101443, Note_off_c, 0, 59, 115
1, 101474, Note_on_c, 0, 59, 106
1, 101572, Note_off_c, 0, 59, 106
1, 101574, Note_on_c, 0, 68, 106
1, 101704, Note_off_c, 0, 68, 106
1, 101749, Note_on_c, 0, 68, 94
1, 101857, Note_off_c, 0, 68, 94
1, 101864, Note_on_c, 0, 67, 110
1, 101999, Note_off_c, 0, 67, 110
1, 102046, Note_on_c, 0, 67, 112
1, 102157, Note_on_c, 0, 61, 116
1, 102157, Note_off_c, 0, 67, 112
1, 102265, Note_off_c, 0, 61, 116
1, 102323, Note_on_c, 0, 61, 115
1, 102450, Note_off_c, 0, 61, 115
1, 102450, Note_on_c, 0, 65, 109
1, 102556, Note_off_c, 0, 65, 109
1, 102561, Note_on_c, 0, 68, 107
1, 102624, Note_off_c, 0, 68, 107
1, 102626, Note_on_c, 0, 72, 106
1, 102753, Note_off_c, 0, 72, 106
1, 102753, Note_on_c, 0, 69, 99
1, 102811, Note_off_c, 0, 69, 99
1, 102811, Note_on_c, 0, 70, 103
1, 102890, Note_off_c, 0, 70, 103
1, 102892, Note_on_c, 0, 72, 114
1, 102984, Note_off_c, 0, 72, 114
1, 102989, Note_on_c, 0, 73, 111
1, 103071, Note_off_c, 0, 73, 111
1, 103071, Note_on_c, 0, 75, 115
1, 103166, Note_off_c, 0, 75, 115
1, 103171, Note_on_c, 0, 76, 110
1, 103261, Note_off_c, 0, 76, 110
1, 103261, Note_on_c, 0, 78, 116
1, 103380, Note_off_c, 0, 78, 116
1, 103380, Note_on_c, 0, 79, 99
1, 103433, Note_off_c, 0, 79, 99
1, 103433, Note_on_c, 0, 81, 108
1, 103576, Note_off_c, 0, 81, 108
1, 103576, Note_on_c, 0, 82, 103
1, 103637, Note_off_c, 0, 82, 103
1, 103639, Note_on_c, 0, 84, 104
1, 103700, Note_off_c, 0, 84, 104
1, 103707, Note_on_c, 0, 85, 109
1, 103837, Note_off_c, 0, 85, 109
1, 103900, Note_on_c, 0, 84, 112
1, 104014, Note_off_c, 0, 84, 112
1, 104014, Note_on_c, 0, 82, 115
1, 104104, Note_off_c, 0, 82, 115
1, 104109, Note_on_c, 0, 81, 102
1, 104180, Note_off_c, 0, 81, 102
1, 104180, Note_on_c, 0, 79, 99
1, 104257, Note_off_c, 0, 79, 99
1, 104264, Note_on_c, 0, 78, 116
1, 104375, Note_off_c, 0, 78, 116
1, 104382, Note_on_c, 0, 76, 101
1, 104451, Note_off_c, 0, 76, 101
1, 104451, Note_on_c, 0, 77, 112
1, 104573, Note_off_c, 0, 77, 112
1, 106150, Note_on_c, 0, 84, 102
1, 106335, Note_off_c, 0, 84, 102
1, 106340, Note_on_c, 0, 87, 104
1, 106496, Note_off_c, 0, 87, 104
1, 106501, Note_on_c, 0, 86, 125
1, 106538, Note_off_c, 0, 86, 125
1, 106538, Note_on_c, 0, 85, 112
1, 106596, Note_off_c, 0, 85, 112
1, 106603, Note_on_c, 0, 84, 104
1, 106695, Note_off_c, 0, 84, 104
1, 106695, Note_on_c, 0, 82, 119
1, 106780, Note_off_c, 0, 82, 119
1, 106785, Note_on_c, 0, 81, 104
1, 106846, Note_off_c, 0, 81, 104
1, 106848, Note_on_c, 0, 79, 101
1, 106927, Note_off_c, 0, 79, 101
1, 106948, Note_on_c, 0, 80, 97
1, 107033, Note_off_c, 0, 80, 97
1, 107040, Note_on_c, 0, 77, 99
1, 107109, Note_off_c, 0, 77, 99
1, 107116, Note_on_c, 0, 78, 110
1, 107208, Note_off_c, 0, 78, 110
1, 107223, Note_on_c, 0, 76, 99
1, 107302, Note_off_c, 0, 76, 99
1, 107309, Note_on_c, 0, 77, 118
1, 107415, Note_off_c, 0, 77, 118
1, 107422, Note_on_c, 0, 75, 88
1, 107507, Note_off_c, 0, 75, 88
1, 108043, Note_on_c, 0, 73, 103
1, 108141, Note_off_c, 0, 73, 103
1, 108141, Note_on_c, 0, 77, 105
1, 108295, Note_off_c, 0, 77, 105
1, 108337, Note_on_c, 0, 77, 118
1, 108570, Note_off_c, 0, 77, 118
1, 108639, Note_on_c, 0, 79, 104
1, 108790, Note_off_c, 0, 79, 104
1, 108843, Note_on_c, 0, 73, 101
1, 108962, Note_off_c, 0, 73, 101
1, 109012, Note_on_c, 0, 77, 9
1, 109166, Note_off_c, 0, 77, 9
1, 109179, Note_on_c, 0, 79, 9
1, 109378, Note_off_c, 0, 79, 9
1, 109996, Note_on_c, 0, 74, 118
1, 110110, Note_off_c, 0, 74, 118
1, 110123, Note_on_c, 0, 75, 118
1, 110208, Note_off_c, 0, 75, 118
1, 110218, Note_on_c, 0, 74, 105
1, 110289, Note_off_c, 0, 74, 105
1, 110299, Note_on_c, 0, 70, 113
1, 110386, Note_off_c, 0, 70, 113
1, 110391, Note_on_c, 0, 65, 104
1, 110486, Note_off_c, 0, 65, 104
1, 110486, Note_on_c, 0, 63, 125
1, 110578, Note_off_c, 0, 63, 125
1, 110580, Note_on_c, 0, 61, 115
1, 110696, Note_off_c, 0, 61, 115
1, 110696, End_track
0, 0, End_of_file
