0, 0, Header, 1, 1, 192
1, 0, Start_track
1, 0, Title_t, "Melody"
1, 0, Tempo, 213523
1, 0, Time_signature, 4, 2, 24, 8
1, 3640, Note_on_c, 0, 65, 118
1, 3759, Note_off_c, 0, 65, 118
1, 3764, Note_on_c, 0, 63, 116
1, 3863, Note_off_c, 0, 63, 116
1, 3868, Note_on_c, 0, 62, 110
1, 3941, Note_off_c, 0, 62, 110
1, 3946, Note_on_c, 0, 60, 108
1, 4008, Note_off_c, 0, 60, 108
1, 4008, Note_on_c, 0, 63, 114
1, 4127, Note_off_c, 0, 63, 114
1, 4139, Note_on_c, 0, 59, 104
1, 4199, Note_off_c, 0, 59, 104
1, 4208, Note_on_c, 0, 62, 118
1, 4332, Note_off_c, 0, 62, 118
1, 4335, Note_on_c, 0, 59, 96
1, 4393, Note_on_c, 0, 60, 109
1, 4393, Note_off_c, 0, 59, 96
1, 4501, Note_off_c, 0, 60, 109
1, 4504, Note_on_c, 0, 62, 109
1, 4604, Note_off_c, 0, 62, 109
1, 4604, Note_on_c, 0, 63, 108
1, 4694, Note_on_c, 0, 65, 102
1, 4694, Note_off_c, 0, 63, 108
1, 4802, Note_off_c, 0, 65, 102
1, 4802, Note_on_c, 0, 66, 96
1, 4902, Note_off_c, 0, 66, 96
1, 4903, Note_on_c, 0, 63, 95
1, 4985, Note_off_c, 0, 63, 95
1, 4992, Note_on_c, 0, 67, 109
1, 5085, Note_off_c, 0, 67, 109
1, 5090, Note_on_c, 0, 64, 104
1, 5180, Note_off_c, 0, 64, 104
1, 5193, Note_on_c, 0, 60, 108
1, 5260, Note_off_c, 0, 60, 108
1, 5280, Note_on_c, 0, 56, 104
1, 5345, Note_off_c, 0, 56, 104
1, 5900, Note_on_c, 0, 63, 124
1, 6037, Note_off_c, 0, 63, 124
1, 6039, Note_on_c, 0, 62, 120
1, 6121, Note_off_c, 0, 62, 120
1, 6123, Note_on_c, 0, 61, 117
1, 6223, Note_off_c, 0, 61, 117
1, 6225, Note_on_c, 0, 60, 118
1, 6315, Note_off_c, 0, 60, 118
1, 6320, Note_on_c, 0, 58, 108
1, 6395, Note_off_c, 0, 58, 108
1, 6408, Note_on_c, 0, 56, 115
1, 6503, Note_off_c, 0, 56, 115
1, 6505, Note_on_c, 0, 55, 107
1, 6581, Note_off_c, 0, 55, 107
1, 6586, Note_on_c, 0, 54, 117
1, 6698, Note_off_c, 0, 54, 117
1, 6701, Note_on_c, 0, 53, 111
1, 6849, Note_off_c, 0, 53, 111
1, 7840, Note_on_c, 0, 57, 110
1, 7930, Note_off_c, 0, 57, 110
1, 7932, Note_on_c, 0, 54, 107
1, 7980, Note_off_c, 0, 54, 107
1, 7982, Note_on_c, 0, 55, 103
1, 8108, Note_off_c, 0, 55, 103
1, 8114, Note_on_c, 0, 57, 105
1, 8190, Note_off_c, 0, 57, 105
1, 8195, Note_on_c, 0, 58, 105
1, 8286, Note_off_c, 0, 58, 105
1, 8291, Note_on_c, 0, 60, 115
1, 8394, Note_off_c, 0, 60, 115
1, 8403, Note_on_c, 0, 61, 108
1, 8481, Note_off_c, 0, 61, 108
1, 8484, Note_on_c, 0, 62, 118
1, 8591, Note_off_c, 0, 62, 118
1, 8600, Note_on_c, 0, 63, 119
1, 8777, Note_off_c, 0, 63, 119
1, 8782, Note_on_c, 0, 62, 119
1, 8879, Note_off_c, 0, 62, 119
1, 8884, Note_on_c, 0, 60, 115
1, 8976, Note_off_c, 0, 60, 115
1, 8982, Note_on_c, 0, 59, 102
1, 9077, Note_off_c, 0, 59, 102
1, 9170, Note_on_c, 0, 62, 122
1, 9344, Note_off_c, 0, 62, 122
1, 9349, Note_on_c, 0, 60, 111
1, 9472, Note_off_c, 0, 60, 111
1, 9477, Note_on_c, 0, 58, 106
1, 9567, Note_off_c, 0, 58, 106
1, 9570, Note_on_c, 0, 57, 97
1, 9648, Note_off_c, 0, 57, 97
1, 9744, Note_on_c, 0, 60, 120
1, 9890, Note_off_c, 0, 60, 120
1, 9891, Note_on_c, 0, 58, 109
1, 9966, Note_off_c, 0, 58, 109
1, 9968, Note_on_c, 0, 57, 103
1, 10034, Note_off_c, 0, 57, 103
1, 10040, Note_on_c, 0, 55, 106
1, 10120, Note_off_c, 0, 55, 106
1, 10127, Note_on_c, 0, 58, 111
1, 10277, Note_off_c, 0, 58, 111
1, 10416, Note_on_c, 0, 57, 104
1, 10489, Note_off_c, 0, 57, 104
1, 10492, Note_on_c, 0, 56, 108
1, 10576, Note_off_c, 0, 56, 108
1, 10578, Note_on_c, 0, 60, 117
1, 10675, Note_off_c, 0, 60, 117
1, 10686, Note_on_c, 0, 55, 103
1, 10766, Note_off_c, 0, 55, 103
1, 10839, Note_on_c, 0, 58, 114
1, 10972, Note_off_c, 0, 58, 114
1, 10972, Note_on_c, 0, 54, 108
1, 11028, Note_off_c, 0, 54, 108
1, 11028, Note_on_c, 0, 57, 109
1, 11121, Note_off_c, 0, 57, 109
1, 11124, Note_on_c, 0, 54, 108
1, 11200, Note_off_c, 0, 54, 108
1, 11218, Note_on_c, 0, 55, 100
1, 11301, Note_off_c, 0, 55, 100
1, 11316, Note_on_c, 0, 57, 104
1, 11395, Note_off_c, 0, 57, 104
1, 11409, Note_on_c, 0, 58, 116
1, 11483, Note_on_c, 0, 60, 116
1, 11483, Note_off_c, 0, 58, 116
1, 11608, Note_off_c, 0, 60, 116
1, 11609, Note_on_c, 0, 61, 111
1, 11683, Note_off_c, 0, 61, 111
1, 11683, Note_on_c, 0, 65, 110
1, 11740, Note_off_c, 0, 65, 110
1, 11742, Note_on_c, 0, 69, 117
1, 11860, Note_off_c, 0, 69, 117
1, 11861, Note_on_c, 0, 67, 114
1, 11932, Note_off_c, 0, 67, 114
1, 11939, Note_on_c, 0, 65, 110
1, 12032, Note_off_c, 0, 65, 110
1, 12035, Note_on_c, 0, 61, 118
1, 12131, Note_off_c, 0, 61, 118
1, 12136, Note_on_c, 0, 60, 95
1, 12206, Note_off_c, 0, 60, 95
1, 12209, Note_on_c, 0, 58, 109
1, 12306, Note_off_c, 0, 58, 109
1, 12315, Note_on_c, 0, 57, 96
1, 12401, Note_off_c, 0, 57, 96
1, 12401, Note_on_c, 0, 58, 103
1, 12502, Note_off_c, 0, 58, 103
1, 12513, Note_on_c, 0, 62, 109
1, 12597, Note_off_c, 0, 62, 109
1, 12606, Note_on_c, 0, 67, 111
1, 12692, Note_off_c, 0, 67, 111
1, 12692, Note_on_c, 0, 60, 111
1, 12839, Note_off_c, 0, 60, 111
1, 13465, Note_on_c, 0, 65, 123
1, 13582, Note_off_c, 0, 65, 123
1, 13587, Note_on_c, 0, 64, 114
1, 13660, Note_off_c, 0, 64, 114
1, 13660, Note_on_c, 0, 62, 112
1, 13764, Note_on_c, 0, 60, 114
1, 13764, Note_off_c, 0, 62, 112
1, 13836, Note_off_c, 0, 60, 114
1, 13836, Note_on_c, 0, 63, 117
1, 13923, Note_off_c, 0, 63, 117
1, 13924, Note_on_c, 0, 64, 115
1, 14015, Note_off_c, 0, 64, 115
1, 14016, Note_on_c, 0, 63, 114
1, 14122, Note_off_c, 0, 63, 114
1, 14123, Note_on_c, 0, 61, 122
1, 14212, Note_off_c, 0, 61, 122
1, 14220, Note_on_c, 0, 60, 104
1, 14296, Note_off_c, 0, 60, 104
1, 14318, Note_on_c, 0, 58, 114
1, 14494, Note_off_c, 0, 58, 114
1, 14507, Note_on_c, 0, 55, 108
1, 14681, Note_off_c, 0, 55, 108
1, 14687, Note_on_c, 0, 57, 106
1, 14796, Note_off_c, 0, 57, 106
1, 14798, Note_on_c, 0, 56, 113
1, 14951, Note_off_c, 0, 56, 113
1, 14975, Note_on_c, 0, 55, 108
1, 15084, Note_off_c, 0, 55, 108
1, 15087, Note_on_c, 0, 57, 109
1, 15170, Note_off_c, 0, 57, 109
1, 15173, Note_on_c, 0, 58, 108
1, 15252, Note_off_c, 0, 58, 108
1, 15253, Note_on_c, 0, 60, 115
1, 15344, Note_off_c, 0, 60, 115
1, 15349, Note_on_c, 0, 61, 120
1, 15469, Note_off_c, 0, 61, 120
1, 15476, Note_on_c, 0, 59, 108
1, 15558, Note_off_c, 0, 59, 108
1, 15559, Note_on_c, 0, 60, 117
1, 15668, Note_off_c, 0, 60, 117
1, 15668, Note_on_c, 0, 57, 110
1, 15744, Note_off_c, 0, 57, 110
1, 15746, Note_on_c, 0, 58, 110
1, 15851, Note_off_c, 0, 58, 110
1, 15857, Note_on_c, 0, 55, 99
1, 15928, Note_off_c, 0, 55, 99
1, 15958, Note_on_c, 0, 57, 104
1, 16033, Note_on_c, 0, 56, 110
1, 16033, Note_off_c, 0, 57, 104
1, 16126, Note_off_c, 0, 56, 110
1, 16131, Note_on_c, 0, 55, 109
1, 16211, Note_off_c, 0, 55, 109
1, 16217, Note_on_c, 0, 54, 121
1, 16329, Note_off_c, 0, 54, 121
1, 16338, Note_on_c, 0, 53, 110
1, 16418, Note_off_c, 0, 53, 110
1, 16421, Note_on_c, 0, 52, 115
1, 16508, Note_off_c, 0, 52, 115
1, 16513, Note_on_c, 0, 50, 113
1, 16604, Note_off_c, 0, 50, 113
1, 16679, Note_on_c, 0, 51, 114
1, 16765, Note_off_c, 0, 51, 114
1, 16773, Note_on_c, 0, 49, 107
1, 16890, Note_off_c, 0, 49, 107
1, 16983, Note_on_c, 0, 49, 110
1, 17070, Note_off_c, 0, 49, 110
1, 17083, Note_on_c, 0, 52, 109
1, 17162, Note_off_c, 0, 52, 109
1, 17172, Note_on_c, 0, 56, 113
1, 17243, Note_off_c, 0, 56, 113
1, 17250, Note_on_c, 0, 60, 114
1, 17368, Note_off_c, 0, 60, 114
1, 17373, Note_on_c, 0, 55, 103
1, 17439, Note_off_c, 0, 55, 103
1, 17447, Note_on_c, 0, 56, 113
1, 17536, Note_off_c, 0, 56, 113
1, 17539, Note_on_c, 0, 58, 114
1, 17633, Note_off_c, 0, 58, 114
1, 17727, Note_on_c, 0, 61, 120
1, 17820, Note_off_c, 0, 61, 120
1, 17821, Note_on_c, 0, 63, 118
1, 17913, Note_off_c, 0, 63, 118
1, 17917, Note_on_c, 0, 65, 117
1, 18013, Note_off_c, 0, 65, 117
1, 18017, Note_on_c, 0, 66, 107
1, 18134, Note_off_c, 0, 66, 107
1, 20009, Note_on_c, 0, 60, 116
1, 20111, Note_off_c, 0, 60, 116
1, 20111, Note_on_c, 0, 65, 108
1, 20180, Note_off_c, 0, 65, 108
1, 20180, Note_on_c, 0, 70, 120
1, 20300, Note_off_c, 0, 70, 120
1, 20310, Note_on_c, 0, 69, 118
1, 20383, Note_off_c, 0, 69, 118
1, 20383, Note_on_c, 0, 65, 114
1, 20466, Note_off_c, 0, 65, 114
1, 20466, Note_on_c, 0, 60, 118
1, 20575, Note_off_c, 0, 60, 118
1, 20785, Note_on_c, 0, 59, 115
1, 20889, Note_off_c, 0, 59, 115
1, 20893, Note_on_c, 0, 64, 109
1, 20950, Note_off_c, 0, 64, 109
1, 20955, Note_on_c, 0, 69, 119
1, 21054, Note_off_c, 0, 69, 119
1, 21057, Note_on_c, 0, 68, 112
1, 21145, Note_off_c, 0, 68, 112
1, 21152, Note_on_c, 0, 63, 120
1, 21247, Note_off_c, 0, 63, 120
1, 21250, Note_on_c, 0, 62, 112
1, 21374, Note_off_c, 0, 62, 112
1, 21529, Note_on_c, 0, 58, 113
1, 21646, Note_off_c, 0, 58, 113
1, 21646, Note_on_c, 0, 63, 114
1, 21734, Note_off_c, 0, 63, 114
1, 21734, Note_on_c, 0, 68, 114
1, 21827, Note_off_c, 0, 68, 114
1, 21828, Note_on_c, 0, 67, 112
1, 21914, Note_off_c, 0, 67, 112
1, 21914, Note_on_c, 0, 68, 110
1, 21996, Note_off_c, 0, 68, 110
1, 21996, Note_on_c, 0, 67, 105
1, 22089, Note_off_c, 0, 67, 105
1, 22092, Note_on_c, 0, 63, 123
1, 22196, Note_off_c, 0, 63, 123
1, 22197, Note_on_c, 0, 62, 112
1, 22263, Note_off_c, 0, 62, 112
1, 22268, Note_on_c, 0, 61, 121
1, 22376, Note_off_c, 0, 61, 121
1, 22381, Note_on_c, 0, 60, 100
1, 22452, Note_off_c, 0, 60, 100
1, 22459, Note_on_c, 0, 59, 115
1, 22574, Note_off_c, 0, 59, 115
1, 22574, Note_on_c, 0, 57, 108
1, 22680, Note_off_c, 0, 57, 108
1, 22683, Note_on_c, 0, 55, 111
1, 22738, Note_off_c, 0, 55, 111
1, 22738, Note_on_c, 0, 58, 114
1, 22859, Note_off_c, 0, 58, 114
1, 23359, Note_on_c, 0, 57, 110
1, 23465, Note_off_c, 0, 57, 110
1, 23468, Note_on_c, 0, 56, 104
1, 23524, Note_off_c, 0, 56, 104
1, 23531, Note_on_c, 0, 57, 107
1, 23613, Note_off_c, 0, 57, 107
1, 23616, Note_on_c, 0, 62, 123
1, 23705, Note_off_c, 0, 62, 123
1, 23716, Note_on_c, 0, 61, 123
1, 23820, Note_off_c, 0, 61, 123
1, 23845, Note_on_c, 0, 58, 109
1, 23916, Note_off_c, 0, 58, 109
1, 23916, Note_on_c, 0, 57, 115
1, 24000, Note_off_c, 0, 57, 115
1, 24003, Note_on_c, 0, 58, 114
1, 24100, Note_off_c, 0, 58, 114
1, 24100, Note_on_c, 0, 57, 100
1, 24180, Note_off_c, 0, 57, 100
1, 24189, Note_on_c, 0, 58, 105
1, 24282, Note_off_c, 0, 58, 105
1, 25265, Note_on_c, 0, 57, 105
1, 25430, Note_off_c, 0, 57, 105
1, 25439, Note_on_c, 0, 58, 105
1, 25503, Note_off_c, 0, 58, 105
1, 25510, Note_on_c, 0, 59, 110
1, 25590, Note_off_c, 0, 59, 110
1, 25615, Note_on_c, 0, 60, 113
1, 25853, Note_off_c, 0, 60, 113
1, 25856, Note_on_c, 0, 59, 110
1, 25911, Note_off_c, 0, 59, 110
1, 25912, Note_on_c, 0, 58, 113
1, 25970, Note_off_c, 0, 58, 113
1, 25982, Note_on_c, 0, 57, 107
1, 26062, Note_off_c, 0, 57, 107
1, 26074, Note_on_c, 0, 56, 117
1, 26182, Note_off_c, 0, 56, 117
1, 26182, Note_on_c, 0, 55, 110
1, 26259, Note_off_c, 0, 55, 110
1, 26270, Note_on_c, 0, 54, 101
1, 26315, Note_off_c, 0, 54, 101
1, 26469, Note_on_c, 0, 57, 110
1, 26645, Note_off_c, 0, 57, 110
1, 26655, Note_on_c, 0, 54, 114
1, 26752, Note_off_c, 0, 54, 114
1, 26757, Note_on_c, 0, 55, 101
1, 26860, Note_on_c, 0, 57, 106
1, 26860, Note_off_c, 0, 55, 101
1, 26933, Note_off_c, 0, 57, 106
1, 26938, Note_on_c, 0, 58, 108
1, 27033, Note_off_c, 0, 58, 108
1, 27035, Note_on_c, 0, 60, 116
1, 27148, Note_off_c, 0, 60, 116
1, 27155, Note_on_c, 0, 62, 115
1, 27250, Note_off_c, 0, 62, 115
1, 27250, Note_on_c, 0, 65, 107
1, 27337, Note_off_c, 0, 65, 107
1, 27348, Note_on_c, 0, 69, 109
1, 27505, Note_off_c, 0, 69, 109
1, 27553, Note_on_c, 0, 69, 108
1, 27712, Note_off_c, 0, 69, 108
1, 27743, Note_on_c, 0, 69, 111
1, 27868, Note_off_c, 0, 69, 111
1, 27870, Note_on_c, 0, 70, 107
1, 27982, Note_off_c, 0, 70, 107
1, 28115, Note_on_c, 0, 66, 102
1, 28224, Note_off_c, 0, 66, 102
1, 28229, Note_on_c, 0, 69, 115
1, 28419, Note_off_c, 0, 69, 115
1, 28432, Note_on_c, 0, 67, 116
1, 28512, Note_off_c, 0, 67, 116
1, 28535, Note_on_c, 0, 62, 110
1, 28608, Note_off_c, 0, 62, 110
1, 28615, Note_on_c, 0, 60, 98
1, 28873, Note_off_c, 0, 60, 98
1, 29526, Note_on_c, 0, 60, 115
1, 29621, Note_off_c, 0, 60, 115
1, 29637, Note_on_c, 0, 65, 102
1, 29704, Note_off_c, 0, 65, 102
1, 29709, Note_on_c, 0, 69, 105
1, 29791, Note_off_c, 0, 69, 105
1, 29791, Note_on_c, 0, 74, 111
1, 29906, Note_off_c, 0, 74, 111
1, 29915, Note_on_c, 0, 69, 102
1, 29981, Note_off_c, 0, 69, 102
1, 29988, Note_on_c, 0, 72, 112
1, 30103, Note_off_c, 0, 72, 112
1, 30117, Note_on_c, 0, 65, 111
1, 30192, Note_off_c, 0, 65, 111
1, 30192, Note_on_c, 0, 69, 102
1, 30283, Note_off_c, 0, 69, 102
1, 30306, Note_on_c, 0, 58, 106
1, 30456, Note_off_c, 0, 58, 106
1, 30980, Note_on_c, 0, 58, 116
1, 31062, Note_off_c, 0, 58, 116
1, 31073, Note_on_c, 0, 63, 111
1, 31155, Note_on_c, 0, 67, 106
1, 31155, Note_off_c, 0, 63, 111
1, 31244, Note_off_c, 0, 67, 106
1, 31256, Note_on_c, 0, 72, 116
1, 31349, Note_off_c, 0, 72, 116
1, 31354, Note_on_c, 0, 70, 107
1, 31438, Note_off_c, 0, 70, 107
1, 31438, Note_on_c, 0, 72, 108
1, 31526, Note_on_c, 0, 70, 109
1, 31526, Note_off_c, 0, 72, 108
1, 31593, Note_off_c, 0, 70, 109
1, 31598, Note_on_c, 0, 66, 105
1, 31673, Note_off_c, 0, 66, 105
1, 31682, Note_on_c, 0, 65, 98
1, 31768, Note_off_c, 0, 65, 98
1, 31778, Note_on_c, 0, 63, 119
1, 31911, Note_off_c, 0, 63, 119
1, 31912, Note_on_c, 0, 60, 105
1, 31974, Note_off_c, 0, 60, 105
1, 31976, Note_on_c, 0, 61, 104
1, 32056, Note_off_c, 0, 61, 104
1, 32070, Note_on_c, 0, 62, 121
1, 32172, Note_off_c, 0, 62, 121
1, 32177, Note_on_c, 0, 57, 103
1, 32248, Note_off_c, 0, 57, 103
1, 32257, Note_on_c, 0, 60, 120
1, 32363, Note_off_c, 0, 60, 120
1, 32370, Note_on_c, 0, 57, 107
1, 32441, Note_off_c, 0, 57, 107
1, 32450, Note_on_c, 0, 58, 106
1, 32536, Note_off_c, 0, 58, 106
1, 32592, Note_on_c, 0, 50, 98
1, 32655, Note_off_c, 0, 50, 98
1, 32660, Note_on_c, 0, 54, 107
1, 32727, Note_off_c, 0, 54, 107
1, 32731, Note_on_c, 0, 57, 107
1, 32813, Note_off_c, 0, 57, 107
1, 32843, Note_on_c, 0, 56, 116
1, 32950, Note_off_c, 0, 56, 116
1, 32951, Note_on_c, 0, 54, 107
1, 33024, Note_off_c, 0, 54, 107
1, 33026, Note_on_c, 0, 55, 110
1, 33134, Note_off_c, 0, 55, 110
1, 33143, Note_on_c, 0, 57, 103
1, 33227, Note_off_c, 0, 57, 103
1, 33228, Note_on_c, 0, 58, 107
1, 33308, Note_off_c, 0, 58, 107
1, 33308, Note_on_c, 0, 60, 120
1, 33417, Note_off_c, 0, 60, 120
1, 33426, Note_on_c, 0, 61, 117
1, 33518, Note_off_c, 0, 61, 117
1, 33528, Note_on_c, 0, 62, 112
1, 33597, Note_off_c, 0, 62, 112
1, 33607, Note_on_c, 0, 63, 121
1, 33727, Note_off_c, 0, 63, 121
1, 33727, Note_on_c, 0, 62, 119
1, 33819, Note_off_c, 0, 62, 119
1, 33825, Note_on_c, 0, 61, 118
1, 33924, Note_off_c, 0, 61, 118
1, 33925, Note_on_c, 0, 60, 111
1, 33999, Note_off_c, 0, 60, 111
1, 34001, Note_on_c, 0, 64, 114
1, 34094, Note_off_c, 0, 64, 114
1, 34095, Note_on_c, 0, 63, 121
1, 34181, Note_off_c, 0, 63, 121
1, 34184, Note_on_c, 0, 62, 109
1, 34272, Note_off_c, 0, 62, 109
1, 34352, Note_on_c, 0, 62, 123
1, 34470, Note_off_c, 0, 62, 123
1, 34471, Note_on_c, 0, 61, 123
1, 34568, Note_off_c, 0, 61, 123
1, 34569, Note_on_c, 0, 60, 108
1, 34662, Note_off_c, 0, 60, 108
1, 34663, Note_on_c, 0, 59, 108
1, 34736, Note_off_c, 0, 59, 108
1, 34739, Note_on_c, 0, 63, 121
1, 34860, Note_off_c, 0, 63, 121
1, 34863, Note_on_c, 0, 62, 117
1, 34928, Note_off_c, 0, 62, 117
1, 34928, Note_on_c, 0, 61, 120
1, 35036, Note_off_c, 0, 61, 120
1, 35038, Note_on_c, 0, 60, 107
1, 35129, Note_off_c, 0, 60, 107
1, 35139, Note_on_c, 0, 60, 118
1, 35240, Note_off_c, 0, 60, 118
1, 35242, Note_on_c, 0, 59, 114
1, 35322, Note_off_c, 0, 59, 114
1, 35324, Note_on_c, 0, 58, 105
1, 35414, Note_off_c, 0, 58, 105
1, 35419, Note_on_c, 0, 57, 94
1, 35493, Note_off_c, 0, 57, 94
1, 35502, Note_on_c, 0, 62, 121
1, 35614, Note_off_c, 0, 62, 121
1, 35617, Note_on_c, 0, 61, 120
1, 35724, Note_off_c, 0, 61, 120
1, 35730, Note_on_c, 0, 60, 110
1, 35820, Note_off_c, 0, 60, 110
1, 35823, Note_on_c, 0, 59, 103
1, 35906, Note_off_c, 0, 59, 103
1, 36078, Note_on_c, 0, 59, 120
1, 36182, Note_off_c, 0, 59, 120
1, 36183, Note_on_c, 0, 58, 113
1, 36301, Note_off_c, 0, 58, 113
1, 36304, Note_on_c, 0, 57, 104
1, 36390, Note_off_c, 0, 57, 104
1, 36393, Note_on_c, 0, 56, 104
1, 36471, Note_off_c, 0, 56, 104
1, 36477, Note_on_c, 0, 60, 118
1, 36602, Note_off_c, 0, 60, 118
1, 36603, Note_on_c, 0, 59, 114
1, 36695, Note_off_c, 0, 59, 114
1, 36695, Note_on_c, 0, 58, 107
1, 36798, Note_on_c, 0, 57, 102
1, 36798, Note_off_c, 0, 58, 107
1, 36851, Note_off_c, 0, 57, 102
1, 36869, Note_on_c, 0, 58, 115
1, 36976, Note_off_c, 0, 58, 115
1, 36982, Note_on_c, 0, 56, 110
1, 37134, Note_off_c, 0, 56, 110
1, 37184, Note_on_c, 0, 55, 107
1, 37240, Note_off_c, 0, 55, 107
1, 37240, Note_on_c, 0, 59, 117
1, 37353, Note_on_c, 0, 58, 114
1, 37353, Note_off_c, 0, 59, 117
1, 37413, Note_off_c, 0, 58, 114
1, 37413, Note_on_c, 0, 57, 111
1, 37465, Note_off_c, 0, 57, 111
1, 37471, Note_on_c, 0, 56, 105
1, 37510, Note_off_c, 0, 56, 105
1, 37510, Note_on_c, 0, 60, 117
1, 37605, Note_off_c, 0, 60, 117
1, 37607, Note_on_c, 0, 59, 113
1, 37663, Note_off_c, 0, 59, 113
1, 37663, Note_on_c, 0, 58, 110
1, 37708, Note_off_c, 0, 58, 110
1, 37714, Note_on_c, 0, 57, 101
1, 37755, Note_off_c, 0, 57, 101
1, 37777, Note_on_c, 0, 61, 123
1, 37844, Note_off_c, 0, 61, 123
1, 37844, Note_on_c, 0, 62, 116
1, 37906, Note_off_c, 0, 62, 116
1, 37907, Note_on_c, 0, 61, 115
1, 37957, Note_off_c, 0, 61, 115
1, 37957, Note_on_c, 0, 60, 110
1, 38015, Note_off_c, 0, 60, 110
1, 38016, Note_on_c, 0, 59, 108
1, 38090, Note_off_c, 0, 59, 108
1, 38100, Note_on_c, 0, 63, 120
1, 38199, Note_off_c, 0, 63, 120
1, 38200, Note_on_c, 0, 62, 117
1, 38239, Note_off_c, 0, 62, 117
1, 38239, Note_on_c, 0, 61, 121
1, 38305, Note_off_c, 0, 61, 121
1, 38306, Note_on_c, 0, 60, 109
1, 38373, Note_off_c, 0, 60, 109
1, 38375, Note_on_c, 0, 65, 116
1, 38485, Note_off_c, 0, 65, 116
1, 38490, Note_on_c, 0, 64, 112
1, 38536, Note_off_c, 0, 64, 112
1, 38541, Note_on_c, 0, 63, 111
1, 38595, Note_off_c, 0, 63, 111
1, 38596, Note_on_c, 0, 62, 114
1, 38676, Note_off_c, 0, 62, 114
1, 38676, Note_on_c, 0, 66, 108
1, 38763, Note_off_c, 0, 66, 108
1, 38765, Note_on_c, 0, 65, 111
1, 38826, Note_off_c, 0, 65, 111
1, 38836, Note_on_c, 0, 64, 107
1, 38875, Note_off_c, 0, 64, 107
1, 38884, Note_on_c, 0, 62, 112
1, 38945, Note_off_c, 0, 62, 112
1, 38947, Note_on_c, 0, 69, 115
1, 39117, Note_off_c, 0, 69, 115
1, 39522, Note_on_c, 0, 67, 118
1, 39635, Note_off_c, 0, 67, 118
1, 39636, Note_on_c, 0, 69, 109
1, 39714, Note_off_c, 0, 69, 109
1, 39716, Note_on_c, 0, 67, 106
1, 39799, Note_off_c, 0, 67, 106
1, 39799, Note_on_c, 0, 66, 106
1, 39870, Note_off_c, 0, 66, 106
1, 39872, Note_on_c, 0, 65, 100
1, 39967, Note_off_c, 0, 65, 100
1, 39980, Note_on_c, 0, 64, 115
1, 40111, Note_off_c, 0, 64, 115
1, 40118, Note_on_c, 0, 62, 115
1, 40211, Note_off_c, 0, 62, 115
1, 40264, Note_on_c, 0, 65, 118
1, 40360, Note_off_c, 0, 65, 118
1, 40365, Note_on_c, 0, 61, 120
1, 40466, Note_off_c, 0, 61, 120
1, 40553, Note_on_c, 0, 61, 123
1, 40688, Note_off_c, 0, 61, 123
1, 40688, Note_on_c, 0, 65, 103
1, 40780, Note_off_c, 0, 65, 103
1, 40780, Note_on_c, 0, 68, 97
1, 40853, Note_off_c, 0, 68, 97
1, 40853, Note_on_c, 0, 72, 103
1, 40986, Note_off_c, 0, 72, 103
1, 40991, Note_on_c, 0, 69, 99
1, 41041, Note_on_c, 0, 70, 104
1, 41041, Note_off_c, 0, 69, 99
1, 41124, Note_off_c, 0, 70, 104
1, 41124, Note_on_c, 0, 72, 110
1, 41237, Note_off_c, 0, 72, 110
1, 41244, Note_on_c, 0, 73, 103
1, 41311, Note_off_c, 0, 73, 103
1, 41314, Note_on_c, 0, 74, 109
1, 41396, Note_off_c, 0, 74, 109
1, 41401, Note_on_c, 0, 75, 119
1, 41510, Note_off_c, 0, 75, 119
1, 41519, Note_on_c, 0, 74, 105
1, 41623, Note_off_c, 0, 74, 105
1, 41628, Note_on_c, 0, 73, 110
1, 41699, Note_off_c, 0, 73, 110
1, 41701, Note_on_c, 0, 72, 110
1, 41805, Note_off_c, 0, 72, 110
1, 41811, Note_on_c, 0, 70, 113
1, 41886, Note_off_c, 0, 70, 113
1, 41891, Note_on_c, 0, 68, 112
1, 41992, Note_off_c, 0, 68, 112
1, 41997, Note_on_c, 0, 67, 102
1, 42084, Note_off_c, 0, 67, 102
1, 42089, Note_on_c, 0, 66, 108
1, 42193, Note_off_c, 0, 66, 108
1, 42196, Note_on_c, 0, 65, 102
1, 42258, Note_off_c, 0, 65, 102
1, 42259, Note_on_c, 0, 64, 109
1, 42366, Note_off_c, 0, 64, 109
1, 42368, Note_on_c, 0, 63, 110
1, 42497, Note_off_c, 0, 63, 110
1, 42497, Note_on_c, 0, 69, 112
1, 42560, Note_off_c, 0, 69, 112
1, 42566, Note_on_c, 0, 62, 112
1, 42679, Note_off_c, 0, 62, 112
1, 42767, Note_on_c, 0, 62, 121
1, 42936, Note_off_c, 0, 62, 121
1, 43959, Note_on_c, 0, 60, 116
1, 44072, Note_off_c, 0, 60, 116
1, 44073, Note_on_c, 0, 62, 105
1, 44166, Note_off_c, 0, 62, 105
1, 44171, Note_on_c, 0, 60, 105
1, 44273, Note_off_c, 0, 60, 105
1, 44280, Note_on_c, 0, 57, 102
1, 44351, Note_off_c, 0, 57, 102
1, 44369, Note_on_c, 0, 55, 107
1, 44449, Note_off_c, 0, 55, 107
1, 44458, Note_on_c, 0, 57, 104
1, 44542, Note_off_c, 0, 57, 104
1, 44557, Note_on_c, 0, 55, 108
1, 44712, Note_off_c, 0, 55, 108
1, 45526, Note_on_c, 0, 62, 120
1, 45636, Note_off_c, 0, 62, 120
1, 45643, Note_on_c, 0, 61, 117
1, 45721, Note_off_c, 0, 61, 117
1, 45727, Note_on_c, 0, 60, 111
1, 45810, Note_off_c, 0, 60, 111
1, 45812, Note_on_c, 0, 59, 109
1, 45903, Note_off_c, 0, 59, 109
1, 45906, Note_on_c, 0, 58, 103
1, 45981, Note_off_c, 0, 58, 103
1, 45981, Note_on_c, 0, 62, 115
1, 46077, Note_off_c, 0, 62, 115
1, 46077, Note_on_c, 0, 57, 105
1, 46134, Note_off_c, 0, 57, 105
1, 46655, Note_on_c, 0, 62, 120
1, 46767, Note_off_c, 0, 62, 120
1, 46772, Note_on_c, 0, 59, 108
1, 46858, Note_off_c, 0, 59, 108
1, 46858, Note_on_c, 0, 60, 111
1, 46946, Note_off_c, 0, 60, 111
1, 46948, Note_on_c, 0, 62, 119
1, 47043, Note_off_c, 0, 62, 119
1, 47044, Note_on_c, 0, 63, 114
1, 47122, Note_off_c, 0, 63, 114
1, 47122, Note_on_c, 0, 65, 113
1, 47230, Note_off_c, 0, 65, 113
1, 47232, Note_on_c, 0, 66, 99
1, 47320, Note_off_c, 0, 66, 99
1, 47321, Note_on_c, 0, 69, 103
1, 47399, Note_off_c, 0, 69, 103
1, 47399, Note_on_c, 0, 74, 109
1, 47507, Note_off_c, 0, 74, 109
1, 47508, Note_on_c, 0, 73, 100
1, 47596, Note_off_c, 0, 73, 100
1, 47602, Note_on_c, 0, 72, 95
1, 47686, Note_off_c, 0, 72, 95
1, 47691, Note_on_c, 0, 68, 113
1, 47807, Note_off_c, 0, 68, 113
1, 47812, Note_on_c, 0, 67, 107
1, 47873, Note_off_c, 0, 67, 107
1, 47873, Note_on_c, 0, 65, 113
1, 47961, Note_off_c, 0, 65, 113
1, 47966, Note_on_c, 0, 63, 109
1, 48074, Note_off_c, 0, 63, 109
1, 48922, Note_on_c, 0, 62, 121
1, 49032, Note_off_c, 0, 62, 121
1, 49037, Note_on_c, 0, 59, 103
1, 49117, Note_off_c, 0, 59, 103
1, 49118, Note_on_c, 0, 60, 106
1, 49214, Note_off_c, 0, 60, 106
1, 49214, Note_on_c, 0, 62, 112
1, 49300, Note_off_c, 0, 62, 112
1, 49300, Note_on_c, 0, 63, 107
1, 49382, Note_off_c, 0, 63, 107
1, 49384, Note_on_c, 0, 65, 113
1, 49474, Note_off_c, 0, 65, 113
1, 49474, Note_on_c, 0, 66, 94
1, 49575, Note_off_c, 0, 66, 94
1, 49578, Note_on_c, 0, 67, 91
1, 49648, Note_off_c, 0, 67, 91
1, 49648, Note_on_c, 0, 72, 110
1, 49756, Note_off_c, 0, 72, 110
1, 49756, Note_on_c, 0, 71, 103
1, 49835, Note_off_c, 0, 71, 103
1, 49838, Note_on_c, 0, 70, 109
1, 49941, Note_off_c, 0, 70, 109
1, 49942, Note_on_c, 0, 68, 109
1, 50039, Note_off_c, 0, 68, 109
1, 50039, Note_on_c, 0, 67, 103
1, 50123, Note_off_c, 0, 67, 103
1, 50125, Note_on_c, 0, 66, 105
1, 50215, Note_off_c, 0, 66, 105
1, 50217, Note_on_c, 0, 65, 104
1, 50321, Note_off_c, 0, 65, 104
1, 50324, Note_on_c, 0, 64, 110
1, 50406, Note_off_c, 0, 64, 110
1, 50411, Note_on_c, 0, 62, 89
1, 50494, Note_off_c, 0, 62, 89
1, 51740, Note_on_c, 0, 62, 123
1, 51864, Note_off_c, 0, 62, 123
1, 51864, Note_on_c, 0, 61, 114
1, 51968, Note_off_c, 0, 61, 114
1, 51968, Note_on_c, 0, 60, 109
1, 52072, Note_off_c, 0, 60, 109
1, 52161, Note_on_c, 0, 64, 112
1, 52276, Note_off_c, 0, 64, 112
1, 52276, Note_on_c, 0, 63, 115
1, 52380, Note_off_c, 0, 63, 115
1, 52383, Note_on_c, 0, 62, 108
1, 52509, Note_off_c, 0, 62, 108
1, 52540, Note_on_c, 0, 67, 116
1, 52672, Note_off_c, 0, 67, 116
1, 52672, Note_on_c, 0, 66, 107
1, 52761, Note_on_c, 0, 65, 101
1, 52761, Note_off_c, 0, 66, 107
1, 52867, Note_off_c, 0, 65, 101
1, 52923, Note_on_c, 0, 65, 116
1, 53044, Note_off_c, 0, 65, 116
1, 53047, Note_on_c, 0, 64, 112
1, 53142, Note_off_c, 0, 64, 112
1, 53149, Note_on_c, 0, 63, 105
1, 53255, Note_off_c, 0, 63, 105
1, 53491, Note_on_c, 0, 62, 9
1, 53834, Note_off_c, 0, 62, 9
1, 53846, Note_on_c, 0, 65, 104
1, 54115, Note_off_c, 0, 65, 104
1, 54118, Note_on_c, 0, 60, 91
1, 54387, Note_off_c, 0, 60, 91
1, 54498, Note_on_c, 0, 63, 115
1, 54694, Note_off_c, 0, 63, 115
1, 54701, Note_on_c, 0, 60, 102
1, 54779, Note_off_c, 0, 60, 102
1, 54782, Note_on_c, 0, 62, 118
1, 54982, Note_off_c, 0, 62, 118
1, 55070, Note_on_c, 0, 58, 99
1, 55176, Note_off_c, 0, 58, 99
1, 55176, Note_on_c, 0, 60, 114
1, 55355, Note_off_c, 0, 60, 114
1, 55485, Note_on_c, 0, 57, 105
1, 55580, Note_off_c, 0, 57, 105
1, 55688, Note_on_c, 0, 58, 109
1, 55810, Note_off_c, 0, 58, 109
1, 55852, Note_on_c, 0, 54, 89
1, 55923, Note_off_c, 0, 54, 89
1, 55945, Note_on_c, 0, 57, 110
1, 56025, Note_off_c, 0, 57, 110
1, 56026, Note_on_c, 0, 54, 112
1, 56112, Note_off_c, 0, 54, 112
1, 56174, Note_on_c, 0, 55, 112
1, 56251, Note_off_c, 0, 55, 112
1, 56252, Note_on_c, 0, 57, 103
1, 56312, Note_off_c, 0, 57, 103
1, 56315, Note_on_c, 0, 58, 104
1, 56406, Note_off_c, 0, 58, 104
1, 56431, Note_on_c, 0, 60, 118
1, 56539, Note_off_c, 0, 60, 118
1, 56546, Note_on_c, 0, 62, 96
1, 56639, Note_off_c, 0, 62, 96
1, 56688, Note_on_c, 0, 69, 117
1, 56796, Note_off_c, 0, 69, 117
1, 56797, Note_on_c, 0, 70, 111
1, 56896, Note_off_c, 0, 70, 111
1, 56901, Note_on_c, 0, 69, 110
1, 56978, Note_off_c, 0, 69, 110
1, 56978, Note_on_c, 0, 68, 112
1, 57084, Note_off_c, 0, 68, 112
1, 57085, Note_on_c, 0, 67, 106
1, 57174, Note_off_c, 0, 67, 106
1, 57180, Note_on_c, 0, 66, 112
1, 57280, Note_off_c, 0, 66, 112
1, 57282, Note_on_c, 0, 65, 109
1, 57360, Note_off_c, 0, 65, 109
1, 57360, Note_on_c, 0, 64, 111
1, 57455, Note_off_c, 0, 64, 111
1, 57458, Note_on_c, 0, 63, 119
1, 57533, Note_off_c, 0, 63, 119
1, 57534, Note_on_c, 0, 61, 126
1, 57613, Note_off_c, 0, 61, 126
1, 57616, Note_on_c, 0, 60, 116
1, 57707, Note_off_c, 0, 60, 116
1, 57712, Note_on_c, 0, 58, 121
1, 57808, Note_off_c, 0, 58, 121
1, 57815, Note_on_c, 0, 57, 115
1, 57886, Note_off_c, 0, 57, 115
1, 57891, Note_on_c, 0, 55, 108
1, 57995, Note_off_c, 0, 55, 108
1, 58006, Note_on_c, 0, 54, 105
1, 58071, Note_off_c, 0, 54, 105
1, 58081, Note_on_c, 0, 56, 109
1, 58296, Note_off_c, 0, 56, 109
1, 58314, Note_on_c, 0, 54, 101
1, 58360, Note_off_c, 0, 54, 101
1, 58360, Note_on_c, 0, 55, 110
1, 58465, Note_off_c, 0, 55, 110
1, 58465, Note_on_c, 0, 57, 103
1, 58547, Note_off_c, 0, 57, 103
1, 58561, Note_on_c, 0, 58, 106
1, 58652, Note_off_c, 0, 58, 106
1, 58652, Note_on_c, 0, 59, 115
1, 58757, Note_off_c, 0, 59, 115
1, 58759, Note_on_c, 0, 61, 123
1, 58860, Note_off_c, 0, 61, 123
1, 58860, Note_on_c, 0, 63, 115
1, 58994, Note_off_c, 0, 63, 115
1, 59040, Note_on_c, 0, 66, 111
1, 59077, Note_off_c, 0, 66, 111
1, 59087, Note_on_c, 0, 67, 111
1, 59118, Note_off_c, 0, 67, 111
1, 59127, Note_on_c, 0, 68, 112
1, 59214, Note_off_c, 0, 68, 112
1, 59214, Note_on_c, 0, 73, 120
1, 59327, Note_off_c, 0, 73, 120
1, 59337, Note_on_c, 0, 68, 99
1, 59417, Note_off_c, 0, 68, 99
1, 59508, Note_on_c, 0, 72, 120
1, 59676, Note_off_c, 0, 72, 120
1, 59712, Note_on_c, 0, 69, 110
1, 59791, Note_off_c, 0, 69, 110
1, 59802, Note_on_c, 0, 65, 108
1, 59888, Note_off_c, 0, 65, 108
1, 59901, Note_on_c, 0, 62, 115
1, 59968, Note_off_c, 0, 62, 115
1, 60252, Note_on_c, 0, 67, 118
1, 60429, Note_off_c, 0, 67, 118
1, 60470, Note_on_c, 0, 64, 109
1, 60535, Note_off_c, 0, 64, 109
1, 60536, Note_on_c, 0, 61, 116
1, 60632, Note_off_c, 0, 61, 116
1, 60635, Note_on_c, 0, 59, 110
1, 60747, Note_off_c, 0, 59, 110
1, 60924, Note_on_c, 0, 65, 111
1, 61047, Note_off_c, 0, 65, 111
1, 61095, Note_on_c, 0, 62, 118
1, 61260, Note_off_c, 0, 62, 118
1, 61265, Note_on_c, 0, 58, 110
1, 61402, Note_off_c, 0, 58, 110
1, 61411, Note_on_c, 0, 55, 98
1, 61481, Note_off_c, 0, 55, 98
1, 61741, Note_on_c, 0, 58, 116
1, 61862, Note_off_c, 0, 58, 116
1, 61863, Note_on_c, 0, 57, 106
1, 61947, Note_off_c, 0, 57, 106
1, 61948, Note_on_c, 0, 56, 114
1, 62036, Note_off_c, 0, 56, 114
1, 62036, Note_on_c, 0, 58, 112
1, 62111, Note_off_c, 0, 58, 112
1, 62117, Note_on_c, 0, 59, 106
1, 62218, Note_off_c, 0, 59, 106
1, 62219, Note_on_c, 0, 60, 116
1, 62320, Note_off_c, 0, 60, 116
1, 62323, Note_on_c, 0, 61, 122
1, 62413, Note_off_c, 0, 61, 122
1, 62416, Note_on_c, 0, 62, 118
1, 62623, Note_off_c, 0, 62, 118
1, 62628, Note_on_c, 0, 65, 106
1, 62701, Note_off_c, 0, 65, 106
1, 62704, Note_on_c, 0, 69, 117
1, 62792, Note_off_c, 0, 69, 117
1, 62802, Note_on_c, 0, 67, 109
1, 62876, Note_off_c, 0, 67, 109
1, 62883, Note_on_c, 0, 65, 106
1, 62959, Note_off_c, 0, 65, 106
1, 62961, Note_on_c, 0, 61, 127
1, 63074, Note_off_c, 0, 61, 127
1, 63075, Note_on_c, 0, 60, 96
1, 63153, Note_off_c, 0, 60, 96
1, 63153, Note_on_c, 0, 58, 112
1, 63252, Note_off_c, 0, 58, 112
1, 63253, Note_on_c, 0, 57, 100
1, 63339, Note_off_c, 0, 57, 100
1, 63340, Note_on_c, 0, 58, 107
1, 63441, Note_off_c, 0, 58, 107
1, 63444, Note_on_c, 0, 62, 110
1, 63616, Note_off_c, 0, 62, 110
1, 65945, Note_on_c, 0, 67, 115
1, 66059, Note_off_c, 0, 67, 115
1, 66061, Note_on_c, 0, 72, 105
1, 66148, Note_off_c, 0, 72, 105
1, 66154, Note_on_c, 0, 77, 119
1, 66304, Note_off_c, 0, 77, 119
1, 66705, Note_on_c, 0, 75, 123
1, 66826, Note_off_c, 0, 75, 123
1, 66827, Note_on_c, 0, 76, 104
1, 66932, Note_off_c, 0, 76, 104
1, 66935, Note_on_c, 0, 75, 113
1, 67021, Note_off_c, 0, 75, 113
1, 67026, Note_on_c, 0, 73, 115
1, 67125, Note_off_c, 0, 73, 115
1, 67125, Note_on_c, 0, 72, 98
1, 67201, Note_off_c, 0, 72, 98
1, 67203, Note_on_c, 0, 70, 118
1, 67307, Note_off_c, 0, 70, 118
1, 67307, Note_on_c, 0, 69, 112
1, 67382, Note_off_c, 0, 69, 112
1, 67382, Note_on_c, 0, 67, 112
1, 67473, Note_on_c, 0, 68, 109
1, 67473, Note_off_c, 0, 67, 112
1, 67565, Note_off_c, 0, 68, 109
1, 67565, Note_on_c, 0, 66, 107
1, 67657, Note_off_c, 0, 66, 107
1, 67657, Note_on_c, 0, 65, 103
1, 67752, Note_off_c, 0, 65, 103
1, 67754, Note_on_c, 0, 63, 124
1, 67858, Note_off_c, 0, 63, 124
1, 67860, Note_on_c, 0, 60, 113
1, 67944, Note_off_c, 0, 60, 113
1, 67944, Note_on_c, 0, 61, 116
1, 68031, Note_off_c, 0, 61, 116
1, 68032, Note_on_c, 0, 62, 121
1, 68137, Note_off_c, 0, 62, 121
1, 68140, Note_on_c, 0, 61, 122
1, 68248, Note_off_c, 0, 61, 122
1, 68251, Note_on_c, 0, 60, 111
1, 68320, Note_off_c, 0, 60, 111
1, 68320, Note_on_c, 0, 59, 113
1, 68423, Note_off_c, 0, 59, 113
1, 68428, Note_on_c, 0, 58, 104
1, 68536, Note_off_c, 0, 58, 104
1, 68541, Note_on_c, 0, 56, 109
1, 68633, Note_off_c, 0, 56, 109
1, 68633, Note_on_c, 0, 57, 96
1, 68948, Note_off_c, 0, 57, 96
1, 69000, Note_on_c, 0, 62, 109
1, 69399, Note_off_c, 0, 62, 109
1, 69400, Note_on_c, 0, 58, 111
1, 69662, Note_off_c, 0, 58, 111
1, 69664, Note_on_c, 0, 63, 118
1, 69878, Note_off_c, 0, 63, 118
1, 69898, Note_on_c, 0, 56, 115
1, 70032, Note_off_c, 0, 56, 115
1, 70508, Note_on_c, 0, 54, 116
1, 70607, Note_off_c, 0, 54, 116
1, 70608, Note_on_c, 0, 55, 112
1, 70701, Note_off_c, 0, 55, 112
1, 71114, Note_on_c, 0, 56, 120
1, 71234, Note_off_c, 0, 56, 120
1, 71235, Note_on_c, 0, 57, 114
1, 71314, Note_off_c, 0, 57, 114
1, 71375, Note_on_c, 0, 58, 113
1, 71463, Note_off_c, 0, 58, 113
1, 71463, Note_on_c, 0, 59, 107
1, 71570, Note_off_c, 0, 59, 107
1, 71571, Note_on_c, 0, 60, 116
1, 71672, Note_off_c, 0, 60, 116
1, 71672, Note_on_c, 0, 61, 118
1, 71758, Note_off_c, 0, 61, 118
1, 71758, Note_on_c, 0, 62, 113
1, 71842, Note_off_c, 0, 62, 113
1, 71844, Note_on_c, 0, 63, 117
1, 71937, Note_off_c, 0, 63, 117
1, 71943, Note_on_c, 0, 61, 117
1, 72035, Note_off_c, 0, 61, 117
1, 72035, Note_on_c, 0, 62, 120
1, 72139, Note_off_c, 0, 62, 120
1, 72144, Note_on_c, 0, 61, 119
1, 72240, Note_off_c, 0, 61, 119
1, 72243, Note_on_c, 0, 60, 116
1, 72317, Note_off_c, 0, 60, 116
1, 72319, Note_on_c, 0, 59, 114
1, 72423, Note_off_c, 0, 59, 114
1, 72433, Note_on_c, 0, 58, 109
1, 72520, Note_off_c, 0, 58, 109
1, 72523, Note_on_c, 0, 56, 112
1, 72613, Note_off_c, 0, 56, 112
1, 72616, Note_on_c, 0, 55, 107
1, 72709, Note_off_c, 0, 55, 107
1, 72710, Note_on_c, 0, 57, 103
1, 72802, Note_off_c, 0, 57, 103
1, 72804, Note_on_c, 0, 58, 113
1, 72888, Note_off_c, 0, 58, 113
1, 72893, Note_on_c, 0, 60, 115
1, 73003, Note_off_c, 0, 60, 115
1, 73010, Note_on_c, 0, 62, 104
1, 73101, Note_off_c, 0, 62, 104
1, 73104, Note_on_c, 0, 65, 100
1, 73184, Note_off_c, 0, 65, 100
1, 73186, Note_on_c, 0, 69, 116
1, 73278, Note_off_c, 0, 69, 116
1, 73281, Note_on_c, 0, 65, 112
1, 73369, Note_off_c, 0, 65, 112
1, 73380, Note_on_c, 0, 62, 114
1, 73475, Note_off_c, 0, 62, 114
1, 73475, Note_on_c, 0, 60, 107
1, 73551, Note_off_c, 0, 60, 107
1, 73551, Note_on_c, 0, 70, 109
1, 73648, Note_off_c, 0, 70, 109
1, 73651, Note_on_c, 0, 66, 105
1, 73738, Note_off_c, 0, 66, 105
1, 73745, Note_on_c, 0, 63, 115
1, 73835, Note_off_c, 0, 63, 115
1, 73850, Note_on_c, 0, 59, 100
1, 74128, Note_off_c, 0, 59, 100
1, 75028, Note_on_c, 0, 72, 112
1, 75159, Note_off_c, 0, 72, 112
1, 75159, Note_on_c, 0, 69, 99
1, 75268, Note_off_c, 0, 69, 99
1, 75268, Note_on_c, 0, 65, 98
1, 75343, Note_off_c, 0, 65, 98
1, 75344, Note_on_c, 0, 62, 106
1, 75426, Note_off_c, 0, 62, 106
1, 75426, Note_on_c, 0, 74, 111
1, 75677, Note_off_c, 0, 74, 111
1, 75690, Note_on_c, 0, 69, 119
1, 75790, Note_off_c, 0, 69, 119
1, 75795, Note_on_c, 0, 67, 107
1, 75890, Note_off_c, 0, 67, 107
1, 75897, Note_on_c, 0, 64, 103
1, 75950, Note_off_c, 0, 64, 103
1, 76529, Note_on_c, 0, 72, 112
1, 76660, Note_off_c, 0, 72, 112
1, 76669, Note_on_c, 0, 69, 108
1, 76752, Note_off_c, 0, 69, 108
1, 76757, Note_on_c, 0, 65, 103
1, 76843, Note_off_c, 0, 65, 103
1, 76849, Note_on_c, 0, 62, 101
1, 76936, Note_off_c, 0, 62, 101
1, 76936, Note_on_c, 0, 70, 113
1, 77050, Note_off_c, 0, 70, 113
1, 77052, Note_on_c, 0, 67, 107
1, 77152, Note_off_c, 0, 67, 107
1, 77155, Note_on_c, 0, 63, 115
1, 77222, Note_off_c, 0, 63, 115
1, 77225, Note_on_c, 0, 60, 105
1, 77287, Note_off_c, 0, 60, 105
1, 77322, Note_on_c, 0, 58, 107
1, 77415, Note_off_c, 0, 58, 107
1, 77416, Note_on_c, 0, 57, 104
1, 77504, Note_off_c, 0, 57, 104
1, 77504, Note_on_c, 0, 56, 110
1, 77569, Note_off_c, 0, 56, 110
1, 77569, Note_on_c, 0, 61, 124
1, 77702, Note_off_c, 0, 61, 124
1, 77707, Note_on_c, 0, 55, 109
1, 77774, Note_off_c, 0, 55, 109
1, 77780, Note_on_c, 0, 53, 102
1, 77850, Note_off_c, 0, 53, 102
1, 77859, Note_on_c, 0, 58, 114
1, 77947, Note_off_c, 0, 58, 114
1, 77954, Note_on_c, 0, 54, 110
1, 78044, Note_off_c, 0, 54, 110
1, 78046, Note_on_c, 0, 57, 108
1, 78128, Note_off_c, 0, 57, 108
1, 78135, Note_on_c, 0, 54, 105
1, 78195, Note_off_c, 0, 54, 105
1, 78234, Note_on_c, 0, 55, 108
1, 78320, Note_off_c, 0, 55, 108
1, 78327, Note_on_c, 0, 57, 99
1, 78417, Note_off_c, 0, 57, 99
1, 78420, Note_on_c, 0, 58, 109
1, 78516, Note_off_c, 0, 58, 109
1, 78516, Note_on_c, 0, 60, 116
1, 78636, Note_off_c, 0, 60, 116
1, 78642, Note_on_c, 0, 61, 113
1, 78741, Note_off_c, 0, 61, 113
1, 78744, Note_on_c, 0, 65, 103
1, 78817, Note_off_c, 0, 65, 103
1, 78817, Note_on_c, 0, 69, 116
1, 78905, Note_off_c, 0, 69, 116
1, 78908, Note_on_c, 0, 67, 110
1, 79021, Note_off_c, 0, 67, 110
1, 79024, Note_on_c, 0, 65, 110
1, 79086, Note_off_c, 0, 65, 110
1, 79086, Note_on_c, 0, 61, 116
1, 79159, Note_off_c, 0, 61, 116
1, 79187, Note_on_c, 0, 60, 98
1, 79378, Note_off_c, 0, 60, 98
1, 80715, Note_on_c, 0, 62, 103
1, 81445, Note_off_c, 0, 62, 103
1, 81843, Note_on_c, 0, 63, 124
1, 81974, Note_off_c, 0, 63, 124
1, 81976, Note_on_c, 0, 64, 112
1, 82086, Note_off_c, 0, 64, 112
1, 82089, Note_on_c, 0, 65, 104
1, 82199, Note_off_c, 0, 65, 104
1, 82632, Note_on_c, 0, 61, 123
1, 82739, Note_off_c, 0, 61, 123
1, 82740, Note_on_c, 0, 62, 122
1, 82831, Note_off_c, 0, 62, 122
1, 82831, Note_on_c, 0, 63, 112
1, 82951, Note_off_c, 0, 63, 112
1, 83020, Note_on_c, 0, 60, 118
1, 83120, Note_off_c, 0, 60, 118
1, 83120, Note_on_c, 0, 61, 113
1, 83203, Note_off_c, 0, 61, 113
1, 83204, Note_on_c, 0, 62, 112
1, 83341, Note_off_c, 0, 62, 112
1, 83386, Note_on_c, 0, 59, 114
1, 83483, Note_off_c, 0, 59, 114
1, 83483, Note_on_c, 0, 60, 111
1, 83573, Note_off_c, 0, 60, 111
1, 83573, Note_on_c, 0, 61, 117
1, 83691, Note_off_c, 0, 61, 117
1, 84147, Note_on_c, 0, 62, 124
1, 84269, Note_off_c, 0, 62, 124
1, 84269, Note_on_c, 0, 59, 106
1, 84349, Note_on_c, 0, 60, 110
1, 84349, Note_off_c, 0, 59, 106
1, 84441, Note_off_c, 0, 60, 110
1, 84442, Note_on_c, 0, 62, 115
1, 84547, Note_off_c, 0, 62, 115
1, 84548, Note_on_c, 0, 63, 114
1, 84628, Note_off_c, 0, 63, 114
1, 84628, Note_on_c, 0, 65, 113
1, 84736, Note_off_c, 0, 65, 113
1, 84736, Note_on_c, 0, 66, 101
1, 84850, Note_off_c, 0, 66, 101
1, 84929, Note_on_c, 0, 74, 117
1, 85016, Note_off_c, 0, 74, 117
1, 85018, Note_on_c, 0, 75, 120
1, 85117, Note_off_c, 0, 75, 120
1, 85117, Note_on_c, 0, 74, 111
1, 85184, Note_off_c, 0, 74, 111
1, 85184, Note_on_c, 0, 73, 100
1, 85285, Note_off_c, 0, 73, 100
1, 85285, Note_on_c, 0, 72, 98
1, 85368, Note_off_c, 0, 72, 98
1, 85368, Note_on_c, 0, 70, 113
1, 85473, Note_off_c, 0, 70, 113
1, 85483, Note_on_c, 0, 69, 108
1, 85554, Note_off_c, 0, 69, 108
1, 85556, Note_on_c, 0, 67, 101
1, 85646, Note_off_c, 0, 67, 101
1, 85653, Note_on_c, 0, 70, 109
1, 85767, Note_off_c, 0, 70, 109
1, 85776, Note_on_c, 0, 62, 102
1, 85841, Note_off_c, 0, 62, 102
1, 85848, Note_on_c, 0, 69, 111
1, 86005, Note_off_c, 0, 69, 111
1, 86170, Note_on_c, 0, 69, 117
1, 86310, Note_off_c, 0, 69, 117
1, 86312, Note_on_c, 0, 70, 111
1, 86400, Note_off_c, 0, 70, 111
1, 86400, Note_on_c, 0, 69, 105
1, 86476, Note_off_c, 0, 69, 105
1, 86477, Note_on_c, 0, 68, 108
1, 86577, Note_off_c, 0, 68, 108
1, 86582, Note_on_c, 0, 67, 100
1, 86674, Note_off_c, 0, 67, 100
1, 86675, Note_on_c, 0, 66, 109
1, 86782, Note_off_c, 0, 66, 109
1, 86787, Note_on_c, 0, 65, 107
1, 86854, Note_off_c, 0, 65, 107
1, 86861, Note_on_c, 0, 64, 110
1, 86952, Note_off_c, 0, 64, 110
1, 86952, Note_on_c, 0, 63, 114
1, 87043, Note_off_c, 0, 63, 114
1, 87045, Note_on_c, 0, 61, 119
1, 87158, Note_off_c, 0, 61, 119
1, 87161, Note_on_c, 0, 60, 97
1, 87235, Note_off_c, 0, 60, 97
1, 87242, Note_on_c, 0, 58, 114
1, 87352, Note_off_c, 0, 58, 114
1, 87358, Note_on_c, 0, 57, 108
1, 87448, Note_off_c, 0, 57, 108
1, 87454, Note_on_c, 0, 55, 107
1, 87553, Note_off_c, 0, 55, 107
1, 87555, Note_on_c, 0, 54, 100
1, 87693, Note_off_c, 0, 54, 100
1, 87729, Note_on_c, 0, 54, 111
1, 87822, Note_off_c, 0, 54, 111
1, 87824, Note_on_c, 0, 57, 104
1, 87923, Note_off_c, 0, 57, 104
1, 87933, Note_on_c, 0, 55, 104
1, 88007, Note_off_c, 0, 55, 104
1, 88697, Note_on_c, 0, 58, 113
1, 88809, Note_off_c, 0, 58, 113
1, 88818, Note_on_c, 0, 54, 107
1, 88866, Note_off_c, 0, 54, 107
1, 88870, Note_on_c, 0, 57, 108
1, 88970, Note_off_c, 0, 57, 108
1, 88995, Note_on_c, 0, 54, 108
1, 89069, Note_off_c, 0, 54, 108
1, 89071, Note_on_c, 0, 55, 109
1, 89167, Note_off_c, 0, 55, 109
1, 89168, Note_on_c, 0, 57, 103
1, 89257, Note_off_c, 0, 57, 103
1, 89259, Note_on_c, 0, 58, 105
1, 89360, Note_off_c, 0, 58, 105
1, 89363, Note_on_c, 0, 60, 106
1, 89433, Note_off_c, 0, 60, 106
1, 89438, Note_on_c, 0, 62, 112
1, 89520, Note_off_c, 0, 62, 112
1, 89524, Note_on_c, 0, 65, 109
1, 89624, Note_off_c, 0, 65, 109
1, 89625, Note_on_c, 0, 69, 108
1, 89762, Note_off_c, 0, 69, 108
1, 90584, Note_on_c, 0, 70, 116
1, 90703, Note_off_c, 0, 70, 116
1, 90708, Note_on_c, 0, 66, 100
1, 90758, Note_off_c, 0, 66, 100
1, 90761, Note_on_c, 0, 69, 116
1, 90863, Note_off_c, 0, 69, 116
1, 90864, Note_on_c, 0, 68, 110
1, 90980, Note_off_c, 0, 68, 110
1, 90983, Note_on_c, 0, 67, 108
1, 91055, Note_off_c, 0, 67, 108
1, 91059, Note_on_c, 0, 65, 114
1, 91170, Note_on_c, 0, 63, 108
1, 91170, Note_off_c, 0, 65, 114
1, 91259, Note_off_c, 0, 63, 108
1, 91259, Note_on_c, 0, 61, 118
1, 91349, Note_off_c, 0, 61, 118
1, 91352, Note_on_c, 0, 62, 108
1, 91607, Note_off_c, 0, 62, 108
1, 91608, Note_on_c, 0, 72, 103
1, 91802, Note_off_c, 0, 72, 103
1, 91819, Note_on_c, 0, 62, 106
1, 91885, Note_off_c, 0, 62, 106
1, 91890, Note_on_c, 0, 60, 107
1, 92147, Note_off_c, 0, 60, 107
1, 92208, Note_on_c, 0, 70, 108
1, 92389, Note_off_c, 0, 70, 108
1, 92424, Note_on_c, 0, 60, 95
1, 92474, Note_off_c, 0, 60, 95
1, 92476, Note_on_c, 0, 58, 104
1, 92640, Note_off_c, 0, 58, 104
1, 92640, End_track
0, 0, End_of_file
