0, 0, Header, 1, 1, 192
1, 0, Start_track
1, 0, Title_t, "Melody"
1, 0, Tempo, 203389
1, 0, Time_signature, 4, 2, 24, 8
1, 2847, Note_on_c, 0, 60, 89
1, 2920, Note_off_c, 0, 60, 89
1, 2923, Note_on_c, 0, 63, 88
1, 2992, Note_off_c, 0, 63, 88
1, 3013, Note_on_c, 0, 67, 82
1, 3535, Note_off_c, 0, 67, 82
1, 4047, Note_on_c, 0, 63, 107
1, 4149, Note_off_c, 0, 63, 107
1, 4160, Note_on_c, 0, 65, 96
1, 4258, Note_off_c, 0, 65, 96
1, 4263, Note_on_c, 0, 62, 103
1, 4345, Note_off_c, 0, 62, 103
1, 5570, Note_on_c, 0, 62, 99
1, 5652, Note_off_c, 0, 62, 99
1, 5664, Note_on_c, 0, 63, 120
1, 5803, Note_off_c, 0, 63, 120
1, 5875, Note_on_c, 0, 61, 104
1, 5948, Note_off_c, 0, 61, 104
1, 5959, Note_on_c, 0, 62, 118
1, 6016, Note_off_c, 0, 62, 118
1, 6027, Note_on_c, 0, 63, 94
1, 6142, Note_off_c, 0, 63, 94
1, 6165, Note_on_c, 0, 66, 98
1, 6245, Note_off_c, 0, 66, 98
1, 6254, Note_on_c, 0, 67, 94
1, 6354, Note_off_c, 0, 67, 94
1, 6355, Note_on_c, 0, 69, 102
1, 6416, Note_off_c, 0, 69, 102
1, 6417, Note_on_c, 0, 70, 114
1, 6569, Note_off_c, 0, 70, 114
1, 7176, Note_on_c, 0, 63, 100
1, 7437, Note_off_c, 0, 63, 100
1, 7455, Note_on_c, 0, 63, 97
1, 7711, Note_off_c, 0, 63, 97
1, 7750, Note_on_c, 0, 77, 115
1, 7855, Note_off_c, 0, 77, 115
1, 7858, Note_on_c, 0, 76, 122
1, 7960, Note_off_c, 0, 76, 122
1, 7961, Note_on_c, 0, 75, 116
1, 8044, Note_off_c, 0, 75, 116
1, 8049, Note_on_c, 0, 71, 111
1, 8153, Note_off_c, 0, 71, 111
1, 8157, Note_on_c, 0, 70, 106
1, 8252, Note_off_c, 0, 70, 106
1, 8253, Note_on_c, 0, 69, 101
1, 8353, Note_off_c, 0, 69, 101
1, 8357, Note_on_c, 0, 68, 105
1, 8413, Note_off_c, 0, 68, 105
1, 8417, Note_on_c, 0, 71, 109
1, 8549, Note_off_c, 0, 71, 109
1, 9781, Note_on_c, 0, 71, 121
1, 9904, Note_off_c, 0, 71, 121
1, 9907, Note_on_c, 0, 69, 103
1, 9985, Note_off_c, 0, 69, 103
1, 9985, Note_on_c, 0, 67, 90
1, 10073, Note_off_c, 0, 67, 90
1, 10098, Note_on_c, 0, 62, 98
1, 10188, Note_off_c, 0, 62, 98
1, 10191, Note_on_c, 0, 66, 108
1, 10287, Note_off_c, 0, 66, 108
1, 10287, Note_on_c, 0, 63, 110
1, 10387, Note_off_c, 0, 63, 110
1, 10388, Note_on_c, 0, 65, 99
1, 10482, Note_off_c, 0, 65, 99
1, 10491, Note_on_c, 0, 63, 122
1, 10568, Note_off_c, 0, 63, 122
1, 10573, Note_on_c, 0, 62, 114
1, 10657, Note_off_c, 0, 62, 114
1, 10662, Note_on_c, 0, 60, 101
1, 10748, Note_off_c, 0, 60, 101
1, 10761, Note_on_c, 0, 59, 103
1, 10848, Note_off_c, 0, 59, 103
1, 10856, Note_on_c, 0, 62, 119
1, 10960, Note_off_c, 0, 62, 119
1, 10961, Note_on_c, 0, 61, 113
1, 11033, Note_off_c, 0, 61, 113
1, 11040, Note_on_c, 0, 59, 99
1, 11092, Note_off_c, 0, 59, 99
1, 11094, Note_on_c, 0, 60, 103
1, 11232, Note_off_c, 0, 60, 103
1, 11237, Note_on_c, 0, 56, 108
1, 11308, Note_off_c, 0, 56, 108
1, 11314, Note_on_c, 0, 55, 107
1, 11396, Note_off_c, 0, 55, 107
1, 11396, Note_on_c, 0, 56, 107
1, 11497, Note_off_c, 0, 56, 107
1, 11507, Note_on_c, 0, 58, 99
1, 11590, Note_off_c, 0, 58, 99
1, 11594, Note_on_c, 0, 59, 107
1, 11680, Note_off_c, 0, 59, 107
1, 12371, Note_on_c, 0, 51, 86
1, 12434, Note_off_c, 0, 51, 86
1, 12456, Note_on_c, 0, 55, 119
1, 12549, Note_off_c, 0, 55, 119
1, 12558, Note_on_c, 0, 56, 108
1, 12644, Note_off_c, 0, 56, 108
1, 12644, Note_on_c, 0, 58, 103
1, 12736, Note_off_c, 0, 58, 103
1, 12736, Note_on_c, 0, 59, 114
1, 12851, Note_off_c, 0, 59, 114
1, 13487, Note_on_c, 0, 55, 108
1, 13547, Note_off_c, 0, 55, 108
1, 13563, Note_on_c, 0, 57, 111
1, 13619, Note_on_c, 0, 58, 105
1, 13619, Note_off_c, 0, 57, 111
1, 13698, Note_off_c, 0, 58, 105
1, 13698, Note_on_c, 0, 60, 100
1, 13788, Note_off_c, 0, 60, 100
1, 13789, Note_on_c, 0, 61, 119
1, 13933, Note_off_c, 0, 61, 119
1, 14522, Note_on_c, 0, 50, 94
1, 14597, Note_off_c, 0, 50, 94
1, 14638, Note_on_c, 0, 55, 111
1, 14743, Note_off_c, 0, 55, 111
1, 14752, Note_on_c, 0, 56, 114
1, 14838, Note_off_c, 0, 56, 114
1, 14838, Note_on_c, 0, 58, 99
1, 14928, Note_off_c, 0, 58, 99
1, 14933, Note_on_c, 0, 59, 105
1, 15073, Note_off_c, 0, 59, 105
1, 15714, Note_on_c, 0, 55, 98
1, 15761, Note_off_c, 0, 55, 98
1, 15771, Note_on_c, 0, 57, 109
1, 15828, Note_off_c, 0, 57, 109
1, 15845, Note_on_c, 0, 58, 100
1, 15931, Note_off_c, 0, 58, 100
1, 15939, Note_on_c, 0, 60, 101
1, 16019, Note_off_c, 0, 60, 101
1, 16033, Note_on_c, 0, 61, 111
1, 16171, Note_off_c, 0, 61, 111
1, 16851, Note_on_c, 0, 55, 113
1, 16953, Note_off_c, 0, 55, 113
1, 16968, Note_on_c, 0, 56, 111
1, 17048, Note_off_c, 0, 56, 111
1, 17057, Note_on_c, 0, 58, 101
1, 17137, Note_off_c, 0, 58, 101
1, 17154, Note_on_c, 0, 59, 110
1, 17350, Note_off_c, 0, 59, 110
1, 17956, Note_on_c, 0, 55, 98
1, 18054, Note_off_c, 0, 55, 98
1, 18059, Note_on_c, 0, 57, 110
1, 18122, Note_off_c, 0, 57, 110
1, 18127, Note_on_c, 0, 58, 96
1, 18211, Note_off_c, 0, 58, 96
1, 18221, Note_on_c, 0, 60, 101
1, 18300, Note_off_c, 0, 60, 101
1, 18303, Note_on_c, 0, 61, 113
1, 18470, Note_off_c, 0, 61, 113
1, 19126, Note_on_c, 0, 51, 89
1, 19176, Note_off_c, 0, 51, 89
1, 19204, Note_on_c, 0, 55, 115
1, 19306, Note_off_c, 0, 55, 115
1, 19306, Note_on_c, 0, 56, 106
1, 19369, Note_off_c, 0, 56, 106
1, 19382, Note_on_c, 0, 58, 98
1, 19457, Note_off_c, 0, 58, 98
1, 19470, Note_on_c, 0, 59, 105
1, 19624, Note_off_c, 0, 59, 105
1, 20363, Note_on_c, 0, 57, 107
1, 20453, Note_off_c, 0, 57, 107
1, 20455, Note_on_c, 0, 58, 93
1, 20545, Note_off_c, 0, 58, 93
1, 20547, Note_on_c, 0, 60, 97
1, 20631, Note_off_c, 0, 60, 97
1, 20636, Note_on_c, 0, 61, 117
1, 20774, Note_off_c, 0, 61, 117
1, 21430, Note_on_c, 0, 51, 93
1, 21495, Note_off_c, 0, 51, 93
1, 21514, Note_on_c, 0, 55, 111
1, 21627, Note_off_c, 0, 55, 111
1, 21627, Note_on_c, 0, 56, 104
1, 21704, Note_off_c, 0, 56, 104
1, 21704, Note_on_c, 0, 58, 97
1, 21800, Note_off_c, 0, 58, 97
1, 21803, Note_on_c, 0, 59, 115
1, 22011, Note_off_c, 0, 59, 115
1, 22011, Note_on_c, 0, 58, 109
1, 22120, Note_off_c, 0, 58, 109
1, 22127, Note_on_c, 0, 55, 108
1, 22227, Note_off_c, 0, 55, 108
1, 22240, Note_on_c, 0, 56, 106
1, 22303, Note_off_c, 0, 56, 106
1, 22311, Note_on_c, 0, 58, 100
1, 22388, Note_off_c, 0, 58, 100
1, 22397, Note_on_c, 0, 59, 104
1, 22487, Note_off_c, 0, 59, 104
1, 22487, Note_on_c, 0, 61, 112
1, 22565, Note_off_c, 0, 61, 112
1, 22566, Note_on_c, 0, 62, 110
1, 22664, Note_off_c, 0, 62, 110
1, 22665, Note_on_c, 0, 65, 100
1, 22948, Note_off_c, 0, 65, 100
1, 22967, Note_on_c, 0, 60, 97
1, 23032, Note_off_c, 0, 60, 97
1, 23062, Note_on_c, 0, 65, 100
1, 23324, Note_off_c, 0, 65, 100
1, 23333, Note_on_c, 0, 60, 91
1, 23417, Note_off_c, 0, 60, 91
1, 23417, Note_on_c, 0, 63, 123
1, 23565, Note_off_c, 0, 63, 123
1, 23618, Note_on_c, 0, 65, 100
1, 23787, Note_off_c, 0, 65, 100
1, 24524, Note_on_c, 0, 58, 93
1, 24604, Note_off_c, 0, 58, 93
1, 24634, Note_on_c, 0, 67, 105
1, 24778, Note_off_c, 0, 67, 105
1, 24826, Note_on_c, 0, 65, 105
1, 24910, Note_off_c, 0, 65, 105
1, 24933, Note_on_c, 0, 63, 111
1, 25121, Note_off_c, 0, 63, 111
1, 25724, Note_on_c, 0, 58, 95
1, 25777, Note_off_c, 0, 58, 95
1, 25796, Note_on_c, 0, 67, 105
1, 25946, Note_off_c, 0, 67, 105
1, 25950, Note_on_c, 0, 60, 97
1, 26002, Note_off_c, 0, 60, 97
1, 26016, Note_on_c, 0, 65, 92
1, 26133, Note_off_c, 0, 65, 92
1, 26137, Note_on_c, 0, 60, 95
1, 26180, Note_off_c, 0, 60, 95
1, 26185, Note_on_c, 0, 63, 124
1, 26308, Note_off_c, 0, 63, 124
1, 26312, Note_on_c, 0, 56, 107
1, 26358, Note_off_c, 0, 56, 107
1, 26366, Note_on_c, 0, 62, 119
1, 26502, Note_off_c, 0, 62, 119
1, 26502, Note_on_c, 0, 59, 101
1, 26577, Note_on_c, 0, 60, 97
1, 26577, Note_off_c, 0, 59, 101
1, 26650, Note_off_c, 0, 60, 97
1, 26655, Note_on_c, 0, 62, 111
1, 26770, Note_off_c, 0, 62, 111
1, 26770, Note_on_c, 0, 63, 112
1, 26864, Note_off_c, 0, 63, 112
1, 26869, Note_on_c, 0, 65, 95
1, 26956, Note_off_c, 0, 65, 95
1, 26957, Note_on_c, 0, 67, 91
1, 27039, Note_off_c, 0, 67, 91
1, 27040, Note_on_c, 0, 71, 110
1, 27111, Note_off_c, 0, 71, 110
1, 27111, Note_on_c, 0, 74, 117
1, 27242, Note_off_c, 0, 74, 117
1, 27246, Note_on_c, 0, 72, 105
1, 27337, Note_off_c, 0, 72, 105
1, 27634, Note_on_c, 0, 62, 94
1, 27670, Note_off_c, 0, 62, 94
1, 27675, Note_on_c, 0, 77, 111
1, 27828, Note_off_c, 0, 77, 111
1, 27830, Note_on_c, 0, 72, 101
1, 27856, Note_off_c, 0, 72, 101
1, 27860, Note_on_c, 0, 75, 116
1, 28057, Note_off_c, 0, 75, 116
1, 28402, Note_on_c, 0, 63, 107
1, 28451, Note_off_c, 0, 63, 107
1, 28481, Note_on_c, 0, 74, 115
1, 28737, Note_off_c, 0, 74, 115
1, 28742, Note_on_c, 0, 63, 115
1, 28791, Note_off_c, 0, 63, 115
1, 28795, Note_on_c, 0, 72, 113
1, 28875, Note_off_c, 0, 72, 113
1, 28885, Note_on_c, 0, 73, 95
1, 29106, Note_off_c, 0, 73, 95
1, 29121, Note_on_c, 0, 70, 113
1, 29305, Note_off_c, 0, 70, 113
1, 29313, Note_on_c, 0, 68, 117
1, 29423, Note_off_c, 0, 68, 117
1, 29425, Note_on_c, 0, 67, 107
1, 29515, Note_off_c, 0, 67, 107
1, 29516, Note_on_c, 0, 65, 91
1, 29581, Note_off_c, 0, 65, 91
1, 29600, Note_on_c, 0, 68, 107
1, 29742, Note_off_c, 0, 68, 107
1, 29784, Note_on_c, 0, 64, 110
1, 29879, Note_off_c, 0, 64, 110
1, 29892, Note_on_c, 0, 68, 115
1, 29996, Note_off_c, 0, 68, 115
1, 30002, Note_on_c, 0, 67, 114
1, 30067, Note_off_c, 0, 67, 114
1, 30069, Note_on_c, 0, 66, 112
1, 30162, Note_off_c, 0, 66, 112
1, 30230, Note_on_c, 0, 64, 122
1, 30356, Note_off_c, 0, 64, 122
1, 30356, Note_on_c, 0, 62, 112
1, 30435, Note_off_c, 0, 62, 112
1, 30439, Note_on_c, 0, 60, 101
1, 30496, Note_off_c, 0, 60, 101
1, 30500, Note_on_c, 0, 63, 125
1, 30678, Note_off_c, 0, 63, 125
1, 31387, Note_on_c, 0, 58, 98
1, 31496, Note_off_c, 0, 58, 98
1, 31582, Note_on_c, 0, 57, 110
1, 31697, Note_off_c, 0, 57, 110
1, 31702, Note_on_c, 0, 62, 99
1, 31855, Note_off_c, 0, 62, 99
1, 31878, Note_on_c, 0, 67, 108
1, 31980, Note_off_c, 0, 67, 108
1, 31991, Note_on_c, 0, 72, 103
1, 32060, Note_off_c, 0, 72, 103
1, 32065, Note_on_c, 0, 75, 117
1, 32145, Note_off_c, 0, 75, 117
1, 32145, Note_on_c, 0, 79, 112
1, 32260, Note_off_c, 0, 79, 112
1, 32265, Note_on_c, 0, 73, 88
1, 32338, Note_off_c, 0, 73, 88
1, 32338, Note_on_c, 0, 74, 112
1, 32413, Note_off_c, 0, 74, 112
1, 32418, Note_on_c, 0, 77, 112
1, 32504, Note_off_c, 0, 77, 112
1, 32509, Note_on_c, 0, 76, 127
1, 32605, Note_off_c, 0, 76, 127
1, 32628, Note_on_c, 0, 75, 110
1, 32782, Note_off_c, 0, 75, 110
1, 32856, Note_on_c, 0, 70, 123
1, 32892, Note_off_c, 0, 70, 123
1, 32893, Note_on_c, 0, 71, 114
1, 33031, Note_off_c, 0, 71, 114
1, 33139, Note_on_c, 0, 70, 115
1, 33250, Note_off_c, 0, 70, 115
1, 33265, Note_on_c, 0, 62, 107
1, 33363, Note_off_c, 0, 62, 107
1, 33363, Note_on_c, 0, 67, 104
1, 33418, Note_off_c, 0, 67, 104
1, 33425, Note_on_c, 0, 70, 120
1, 33517, Note_off_c, 0, 70, 120
1, 34472, Note_on_c, 0, 67, 117
1, 34585, Note_off_c, 0, 67, 117
1, 34590, Note_on_c, 0, 69, 106
1, 34843, Note_off_c, 0, 69, 106
1, 34933, Note_on_c, 0, 67, 103
1, 35279, Note_off_c, 0, 67, 103
1, 35281, Note_on_c, 0, 62, 104
1, 35560, Note_off_c, 0, 62, 104
1, 35601, Note_on_c, 0, 65, 98
1, 35857, Note_off_c, 0, 65, 98
1, 35970, Note_on_c, 0, 62, 105
1, 36060, Note_off_c, 0, 62, 105
1, 36066, Note_on_c, 0, 63, 113
1, 36268, Note_off_c, 0, 63, 113
1, 37179, Note_on_c, 0, 58, 88
1, 37209, Note_off_c, 0, 58, 88
1, 37221, Note_on_c, 0, 62, 109
1, 37518, Note_off_c, 0, 62, 109
1, 37519, Note_on_c, 0, 61, 122
1, 37601, Note_off_c, 0, 61, 122
1, 37607, Note_on_c, 0, 60, 98
1, 37716, Note_off_c, 0, 60, 98
1, 37716, Note_on_c, 0, 62, 118
1, 37839, Note_off_c, 0, 62, 118
1, 37845, Note_on_c, 0, 63, 103
1, 37958, Note_off_c, 0, 63, 103
1, 37958, Note_on_c, 0, 65, 89
1, 38033, Note_off_c, 0, 65, 89
1, 38046, Note_on_c, 0, 67, 100
1, 38122, Note_off_c, 0, 67, 100
1, 38123, Note_on_c, 0, 71, 108
1, 38192, Note_off_c, 0, 71, 108
1, 38193, Note_on_c, 0, 74, 114
1, 38314, Note_off_c, 0, 74, 114
1, 38319, Note_on_c, 0, 71, 101
1, 38371, Note_off_c, 0, 71, 101
1, 38382, Note_on_c, 0, 72, 107
1, 38486, Note_off_c, 0, 72, 107
1, 38495, Note_on_c, 0, 74, 107
1, 38575, Note_off_c, 0, 74, 107
1, 38580, Note_on_c, 0, 75, 109
1, 38668, Note_off_c, 0, 75, 109
1, 38675, Note_on_c, 0, 77, 112
1, 38752, Note_off_c, 0, 77, 112
1, 38773, Note_on_c, 0, 78, 112
1, 38869, Note_off_c, 0, 78, 112
1, 38880, Note_on_c, 0, 79, 106
1, 38941, Note_off_c, 0, 79, 106
1, 38952, Note_on_c, 0, 82, 106
1, 39052, Note_off_c, 0, 82, 106
1, 39057, Note_on_c, 0, 81, 101
1, 39124, Note_off_c, 0, 81, 101
1, 39137, Note_on_c, 0, 80, 109
1, 39214, Note_off_c, 0, 80, 109
1, 39217, Note_on_c, 0, 78, 121
1, 39376, Note_off_c, 0, 78, 121
1, 39399, Note_on_c, 0, 75, 121
1, 39539, Note_off_c, 0, 75, 121
1, 39546, Note_on_c, 0, 74, 101
1, 39626, Note_off_c, 0, 74, 101
1, 39676, Note_on_c, 0, 75, 110
1, 39897, Note_off_c, 0, 75, 110
1, 41979, Note_on_c, 0, 78, 120
1, 42098, Note_off_c, 0, 78, 120
1, 42105, Note_on_c, 0, 79, 98
1, 42176, Note_off_c, 0, 79, 98
1, 42195, Note_on_c, 0, 87, 109
1, 42273, Note_off_c, 0, 87, 109
1, 42284, Note_on_c, 0, 77, 106
1, 42376, Note_off_c, 0, 77, 106
1, 42385, Note_on_c, 0, 78, 110
1, 42460, Note_off_c, 0, 78, 110
1, 42463, Note_on_c, 0, 86, 98
1, 42518, Note_off_c, 0, 86, 98
1, 42519, Note_on_c, 0, 76, 125
1, 42650, Note_off_c, 0, 76, 125
1, 42653, Note_on_c, 0, 77, 100
1, 42706, Note_off_c, 0, 77, 100
1, 42715, Note_on_c, 0, 85, 109
1, 42797, Note_off_c, 0, 85, 109
1, 42802, Note_on_c, 0, 75, 118
1, 42934, Note_off_c, 0, 75, 118
1, 42944, Note_on_c, 0, 76, 109
1, 42982, Note_off_c, 0, 76, 109
1, 42987, Note_on_c, 0, 84, 113
1, 43071, Note_off_c, 0, 84, 113
1, 43074, Note_on_c, 0, 74, 114
1, 43274, Note_off_c, 0, 74, 114
1, 43736, Note_on_c, 0, 83, 114
1, 43762, Note_off_c, 0, 83, 114
1, 43762, Note_on_c, 0, 82, 117
1, 43792, Note_off_c, 0, 82, 117
1, 43795, Note_on_c, 0, 80, 108
1, 43899, Note_off_c, 0, 80, 108
1, 43908, Note_on_c, 0, 79, 114
1, 43998, Note_off_c, 0, 79, 114
1, 44007, Note_on_c, 0, 78, 118
1, 44174, Note_off_c, 0, 78, 118
1, 44563, Note_on_c, 0, 77, 110
1, 44713, Note_off_c, 0, 77, 110
1, 44718, Note_on_c, 0, 74, 107
1, 44772, Note_off_c, 0, 74, 107
1, 44782, Note_on_c, 0, 75, 111
1, 44842, Note_off_c, 0, 75, 111
1, 44850, Note_on_c, 0, 77, 114
1, 44904, Note_off_c, 0, 77, 114
1, 44909, Note_on_c, 0, 75, 122
1, 44999, Note_off_c, 0, 75, 122
1, 45002, Note_on_c, 0, 74, 104
1, 45077, Note_off_c, 0, 74, 104
1, 45080, Note_on_c, 0, 72, 104
1, 45158, Note_off_c, 0, 72, 104
1, 45171, Note_on_c, 0, 71, 107
1, 45236, Note_off_c, 0, 71, 107
1, 45249, Note_on_c, 0, 74, 118
1, 45358, Note_off_c, 0, 74, 118
1, 45375, Note_on_c, 0, 73, 105
1, 45425, Note_off_c, 0, 73, 105
1, 45438, Note_on_c, 0, 71, 96
1, 45495, Note_off_c, 0, 71, 96
1, 45508, Note_on_c, 0, 72, 108
1, 45781, Note_off_c, 0, 72, 108
1, 45942, Note_on_c, 0, 68, 103
1, 46136, Note_off_c, 0, 68, 103
1, 46139, Note_on_c, 0, 67, 97
1, 46206, Note_on_c, 0, 66, 114
1, 46206, Note_off_c, 0, 67, 97
1, 46419, Note_off_c, 0, 66, 114
1, 46430, Note_on_c, 0, 64, 112
1, 46507, Note_off_c, 0, 64, 112
1, 46507, Note_on_c, 0, 63, 123
1, 46678, Note_off_c, 0, 63, 123
1, 46718, Note_on_c, 0, 59, 97
1, 46773, Note_off_c, 0, 59, 97
1, 46773, Note_on_c, 0, 62, 118
1, 46900, Note_on_c, 0, 61, 111
1, 46900, Note_off_c, 0, 62, 118
1, 46990, Note_off_c, 0, 61, 111
1, 46999, Note_on_c, 0, 59, 99
1, 47060, Note_off_c, 0, 59, 99
1, 47079, Note_on_c, 0, 60, 111
1, 47194, Note_off_c, 0, 60, 111
1, 47194, Note_on_c, 0, 56, 100
1, 47249, Note_off_c, 0, 56, 100
1, 47321, Note_on_c, 0, 56, 107
1, 47597, Note_off_c, 0, 56, 107
1, 47623, Note_on_c, 0, 67, 105
1, 47796, Note_off_c, 0, 67, 105
1, 47801, Note_on_c, 0, 65, 92
1, 47910, Note_off_c, 0, 65, 92
1, 47919, Note_on_c, 0, 67, 105
1, 48028, Note_off_c, 0, 67, 105
1, 48033, Note_on_c, 0, 68, 99
1, 48131, Note_off_c, 0, 68, 99
1, 48136, Note_on_c, 0, 69, 108
1, 48201, Note_off_c, 0, 69, 108
1, 48201, Note_on_c, 0, 70, 116
1, 48320, Note_off_c, 0, 70, 116
1, 48322, Note_on_c, 0, 69, 106
1, 48411, Note_off_c, 0, 69, 106
1, 48416, Note_on_c, 0, 68, 106
1, 48525, Note_off_c, 0, 68, 106
1, 48533, Note_on_c, 0, 67, 94
1, 48639, Note_off_c, 0, 67, 94
1, 48641, Note_on_c, 0, 68, 101
1, 48750, Note_off_c, 0, 68, 101
1, 48751, Note_on_c, 0, 69, 102
1, 48824, Note_off_c, 0, 69, 102
1, 48825, Note_on_c, 0, 70, 116
1, 48955, Note_off_c, 0, 70, 116
1, 48963, Note_on_c, 0, 69, 112
1, 49046, Note_off_c, 0, 69, 112
1, 49047, Note_on_c, 0, 68, 108
1, 49114, Note_off_c, 0, 68, 108
1, 49122, Note_on_c, 0, 67, 101
1, 49227, Note_off_c, 0, 67, 101
1, 49232, Note_on_c, 0, 68, 106
1, 49315, Note_off_c, 0, 68, 106
1, 49317, Note_on_c, 0, 69, 109
1, 49377, Note_off_c, 0, 69, 109
1, 49385, Note_on_c, 0, 70, 117
1, 49505, Note_on_c, 0, 69, 111
1, 49505, Note_off_c, 0, 70, 117
1, 49561, Note_off_c, 0, 69, 111
1, 49561, Note_on_c, 0, 68, 110
1, 49643, Note_off_c, 0, 68, 110
1, 49645, Note_on_c, 0, 67, 104
1, 49732, Note_off_c, 0, 67, 104
1, 49738, Note_on_c, 0, 68, 107
1, 49829, Note_off_c, 0, 68, 107
1, 49832, Note_on_c, 0, 69, 106
1, 49897, Note_off_c, 0, 69, 106
1, 49920, Note_on_c, 0, 70, 118
1, 49989, Note_off_c, 0, 70, 118
1, 50008, Note_on_c, 0, 69, 113
1, 50073, Note_off_c, 0, 69, 113
1, 50081, Note_on_c, 0, 68, 107
1, 50152, Note_off_c, 0, 68, 107
1, 50152, Note_on_c, 0, 67, 106
1, 50241, Note_off_c, 0, 67, 106
1, 50253, Note_on_c, 0, 68, 95
1, 50372, Note_off_c, 0, 68, 95
1, 50377, Note_on_c, 0, 69, 104
1, 50444, Note_off_c, 0, 69, 104
1, 50445, Note_on_c, 0, 70, 117
1, 50549, Note_off_c, 0, 70, 117
1, 50554, Note_on_c, 0, 69, 108
1, 50637, Note_off_c, 0, 69, 108
1, 50646, Note_on_c, 0, 68, 107
1, 50728, Note_off_c, 0, 68, 107
1, 50738, Note_on_c, 0, 67, 99
1, 50817, Note_off_c, 0, 67, 99
1, 50821, Note_on_c, 0, 68, 106
1, 50923, Note_off_c, 0, 68, 106
1, 50925, Note_on_c, 0, 69, 109
1, 51008, Note_off_c, 0, 69, 109
1, 51010, Note_on_c, 0, 70, 119
1, 51111, Note_off_c, 0, 70, 119
1, 51113, Note_on_c, 0, 69, 110
1, 51206, Note_off_c, 0, 69, 110
1, 51211, Note_on_c, 0, 68, 105
1, 51286, Note_off_c, 0, 68, 105
1, 51290, Note_on_c, 0, 67, 100
1, 51380, Note_off_c, 0, 67, 100
1, 51392, Note_on_c, 0, 68, 100
1, 51483, Note_off_c, 0, 68, 100
1, 51489, Note_on_c, 0, 69, 104
1, 51579, Note_off_c, 0, 69, 104
1, 51584, Note_on_c, 0, 70, 118
1, 51677, Note_off_c, 0, 70, 118
1, 51677, Note_on_c, 0, 69, 111
1, 51764, Note_off_c, 0, 69, 111
1, 51779, Note_on_c, 0, 68, 105
1, 51865, Note_on_c, 0, 67, 97
1, 51865, Note_off_c, 0, 68, 105
1, 51981, Note_off_c, 0, 67, 97
1, 51986, Note_on_c, 0, 68, 101
1, 52057, Note_off_c, 0, 68, 101
1, 52059, Note_on_c, 0, 69, 108
1, 52139, Note_off_c, 0, 69, 108
1, 52152, Note_on_c, 0, 70, 116
1, 52249, Note_off_c, 0, 70, 116
1, 52252, Note_on_c, 0, 69, 107
1, 52342, Note_off_c, 0, 69, 107
1, 52343, Note_on_c, 0, 68, 100
1, 52495, Note_off_c, 0, 68, 100
1, 52513, Note_on_c, 0, 67, 107
1, 52760, Note_off_c, 0, 67, 107
1, 52782, Note_on_c, 0, 70, 110
1, 53057, Note_off_c, 0, 70, 110
1, 53074, Note_on_c, 0, 75, 118
1, 53345, Note_off_c, 0, 75, 118
1, 53366, Note_on_c, 0, 80, 116
1, 53616, Note_off_c, 0, 80, 116
1, 53631, Note_on_c, 0, 85, 98
1, 53862, Note_off_c, 0, 85, 98
1, 53899, Note_on_c, 0, 80, 108
1, 54183, Note_off_c, 0, 80, 108
1, 54220, Note_on_c, 0, 91, 113
1, 54333, Note_off_c, 0, 91, 113
1, 54342, Note_on_c, 0, 90, 98
1, 54465, Note_off_c, 0, 90, 98
1, 54532, Note_on_c, 0, 89, 112
1, 54630, Note_off_c, 0, 89, 112
1, 54633, Note_on_c, 0, 88, 80
1, 54771, Note_off_c, 0, 88, 80
1, 55757, Note_on_c, 0, 89, 111
1, 55886, Note_off_c, 0, 89, 111
1, 55891, Note_on_c, 0, 88, 88
1, 55973, Note_off_c, 0, 88, 88
1, 55986, Note_on_c, 0, 87, 99
1, 56053, Note_off_c, 0, 87, 99
1, 56060, Note_on_c, 0, 83, 114
1, 56150, Note_off_c, 0, 83, 114
1, 56173, Note_on_c, 0, 82, 101
1, 56263, Note_on_c, 0, 80, 41
1, 56263, Note_off_c, 0, 82, 101
1, 56361, Note_off_c, 0, 80, 41
1, 56370, Note_on_c, 0, 79, 85
1, 56423, Note_off_c, 0, 79, 85
1, 56428, Note_on_c, 0, 78, 123
1, 56539, Note_off_c, 0, 78, 123
1, 56548, Note_on_c, 0, 77, 106
1, 56626, Note_off_c, 0, 77, 106
1, 56639, Note_on_c, 0, 75, 110
1, 56700, Note_off_c, 0, 75, 110
1, 56730, Note_on_c, 0, 78, 121
1, 57015, Note_off_c, 0, 78, 121
1, 57036, Note_on_c, 0, 74, 113
1, 57132, Note_off_c, 0, 74, 113
1, 57871, Note_on_c, 0, 77, 107
1, 58165, Note_off_c, 0, 77, 107
1, 58170, Note_on_c, 0, 74, 119
1, 58314, Note_off_c, 0, 74, 119
1, 58319, Note_on_c, 0, 71, 109
1, 58434, Note_off_c, 0, 71, 109
1, 58445, Note_on_c, 0, 67, 101
1, 58581, Note_off_c, 0, 67, 101
1, 58586, Note_on_c, 0, 69, 103
1, 58726, Note_off_c, 0, 69, 103
1, 59433, Note_on_c, 0, 74, 125
1, 59602, Note_off_c, 0, 74, 125
1, 59609, Note_on_c, 0, 71, 115
1, 59736, Note_off_c, 0, 71, 115
1, 59743, Note_on_c, 0, 67, 101
1, 59816, Note_off_c, 0, 67, 101
1, 59841, Note_on_c, 0, 62, 103
1, 59918, Note_off_c, 0, 62, 103
1, 59939, Note_on_c, 0, 64, 115
1, 60056, Note_off_c, 0, 64, 115
1, 60551, Note_on_c, 0, 62, 102
1, 60608, Note_off_c, 0, 62, 102
1, 60638, Note_on_c, 0, 71, 121
1, 60755, Note_off_c, 0, 71, 121
1, 60781, Note_on_c, 0, 67, 108
1, 60902, Note_off_c, 0, 67, 108
1, 60919, Note_on_c, 0, 62, 102
1, 61013, Note_off_c, 0, 62, 102
1, 61028, Note_on_c, 0, 59, 95
1, 61103, Note_off_c, 0, 59, 95
1, 61118, Note_on_c, 0, 60, 106
1, 61239, Note_off_c, 0, 60, 106
1, 61769, Note_on_c, 0, 69, 118
1, 61878, Note_off_c, 0, 69, 118
1, 61878, Note_on_c, 0, 65, 100
1, 61985, Note_off_c, 0, 65, 100
1, 61992, Note_on_c, 0, 62, 109
1, 62105, Note_off_c, 0, 62, 109
1, 62106, Note_on_c, 0, 57, 95
1, 62186, Note_off_c, 0, 57, 95
1, 62197, Note_on_c, 0, 59, 109
1, 62341, Note_off_c, 0, 59, 109
1, 62888, Note_on_c, 0, 67, 116
1, 63015, Note_off_c, 0, 67, 116
1, 63038, Note_on_c, 0, 62, 111
1, 63142, Note_off_c, 0, 62, 111
1, 63147, Note_on_c, 0, 59, 106
1, 63225, Note_off_c, 0, 59, 106
1, 63244, Note_on_c, 0, 55, 97
1, 63336, Note_off_c, 0, 55, 97
1, 63355, Note_on_c, 0, 57, 103
1, 63574, Note_off_c, 0, 57, 103
1, 64057, Note_on_c, 0, 65, 98
1, 64261, Note_off_c, 0, 65, 98
1, 64305, Note_on_c, 0, 62, 104
1, 64391, Note_off_c, 0, 62, 104
1, 64406, Note_on_c, 0, 57, 101
1, 64510, Note_off_c, 0, 57, 101
1, 64519, Note_on_c, 0, 53, 94
1, 64597, Note_off_c, 0, 53, 94
1, 64604, Note_on_c, 0, 55, 97
1, 65361, Note_off_c, 0, 55, 97
1, 65384, Note_on_c, 0, 63, 111
1, 65580, Note_off_c, 0, 63, 111
1, 65595, Note_on_c, 0, 60, 93
1, 65700, Note_off_c, 0, 60, 93
1, 65709, Note_on_c, 0, 55, 98
1, 65797, Note_off_c, 0, 55, 98
1, 65816, Note_on_c, 0, 51, 87
1, 65941, Note_off_c, 0, 51, 87
1, 65942, Note_on_c, 0, 53, 77
1, 66841, Note_off_c, 0, 53, 77
1, 66841, End_track
0, 0, End_of_file
