0, 0, Header, 1, 1, 192
1, 0, Start_track
1, 0, Title_t, "Melody"
1, 0, Tempo, 285714
1, 0, Key_signature, -2, "major"
1, 0, Time_signature, 4, 2, 24, 8
1, 2798, Note_on_c, 0, 65, 118
1, 2895, Note_off_c, 0, 65, 118
1, 2902, Note_on_c, 0, 67, 122
1, 2964, Note_off_c, 0, 67, 122
1, 3010, Note_on_c, 0, 69, 124
1, 3111, Note_off_c, 0, 69, 124
1, 3135, Note_on_c, 0, 67, 115
1, 3214, Note_off_c, 0, 67, 115
1, 3222, Note_on_c, 0, 70, 121
1, 3393, Note_off_c, 0, 70, 121
1, 3393, Note_on_c, 0, 67, 120
1, 3525, Note_off_c, 0, 67, 120
1, 3528, Note_on_c, 0, 69, 121
1, 3660, Note_off_c, 0, 69, 121
1, 3691, Note_on_c, 0, 65, 109
1, 3776, Note_off_c, 0, 65, 109
1, 3799, Note_on_c, 0, 67, 119
1, 3912, Note_off_c, 0, 67, 119
1, 3939, Note_on_c, 0, 65, 114
1, 4067, Note_off_c, 0, 65, 114
1, 4082, Note_on_c, 0, 64, 119
1, 4152, Note_off_c, 0, 64, 119
1, 4171, Note_on_c, 0, 63, 113
1, 4264, Note_off_c, 0, 63, 113
1, 4279, Note_on_c, 0, 62, 112
1, 4388, Note_off_c, 0, 62, 112
1, 4481, Note_on_c, 0, 62, 115
1, 4578, Note_off_c, 0, 62, 115
1, 4652, Note_on_c, 0, 55, 100
1, 4886, Note_off_c, 0, 55, 100
1, 4897, Note_on_c, 0, 62, 112
1, 5033, Note_off_c, 0, 62, 112
1, 5079, Note_on_c, 0, 62, 114
1, 5160, Note_off_c, 0, 62, 114
1, 5249, Note_on_c, 0, 62, 104
1, 5642, Note_off_c, 0, 62, 104
1, 6035, Note_on_c, 0, 59, 113
1, 6172, Note_off_c, 0, 59, 113
1, 6195, Note_on_c, 0, 62, 122
1, 6366, Note_off_c, 0, 62, 122
1, 6436, Note_on_c, 0, 62, 117
1, 6556, Note_off_c, 0, 62, 117
1, 6595, Note_on_c, 0, 63, 118
1, 6680, Note_off_c, 0, 63, 118
1, 6695, Note_on_c, 0, 62, 119
1, 6780, Note_off_c, 0, 62, 119
1, 6791, Note_on_c, 0, 60, 109
1, 6865, Note_off_c, 0, 60, 109
1, 6872, Note_on_c, 0, 58, 115
1, 7008, Note_off_c, 0, 58, 115
1, 7039, Note_on_c, 0, 55, 105
1, 7230, Note_off_c, 0, 55, 105
1, 7475, Note_on_c, 0, 67, 124
1, 7560, Note_off_c, 0, 67, 124
1, 7563, Note_on_c, 0, 69, 123
1, 7644, Note_off_c, 0, 69, 123
1, 7667, Note_on_c, 0, 70, 123
1, 7924, Note_off_c, 0, 70, 123
1, 7931, Note_on_c, 0, 69, 91
1, 7950, Note_off_c, 0, 69, 91
1, 7973, Note_on_c, 0, 70, 124
1, 8035, Note_off_c, 0, 70, 124
1, 8074, Note_on_c, 0, 69, 122
1, 8230, Note_off_c, 0, 69, 122
1, 8230, Note_on_c, 0, 67, 120
1, 8386, Note_off_c, 0, 67, 120
1, 8464, Note_on_c, 0, 65, 118
1, 8545, Note_off_c, 0, 65, 118
1, 8552, Note_on_c, 0, 64, 117
1, 8622, Note_off_c, 0, 64, 117
1, 8645, Note_on_c, 0, 63, 118
1, 8734, Note_off_c, 0, 63, 118
1, 8741, Note_on_c, 0, 67, 121
1, 8811, Note_off_c, 0, 67, 121
1, 8811, Note_on_c, 0, 55, 111
1, 8924, Note_off_c, 0, 55, 111
1, 8931, Note_on_c, 0, 56, 127
1, 9032, Note_on_c, 0, 57, 114
1, 9032, Note_off_c, 0, 56, 127
1, 9106, Note_off_c, 0, 57, 114
1, 9129, Note_on_c, 0, 65, 112
1, 9195, Note_off_c, 0, 65, 112
1, 9218, Note_on_c, 0, 62, 116
1, 9296, Note_off_c, 0, 62, 116
1, 9325, Note_on_c, 0, 55, 104
1, 9385, Note_off_c, 0, 55, 104
1, 9385, Note_on_c, 0, 53, 110
1, 9724, Note_off_c, 0, 53, 110
1, 9747, Note_on_c, 0, 58, 108
1, 9836, Note_off_c, 0, 58, 108
1, 9855, Note_on_c, 0, 62, 101
1, 9952, Note_off_c, 0, 62, 101
1, 9966, Note_on_c, 0, 65, 115
1, 10114, Note_off_c, 0, 65, 115
1, 10138, Note_on_c, 0, 62, 108
1, 10352, Note_off_c, 0, 62, 108
1, 10621, Note_on_c, 0, 60, 119
1, 10741, Note_off_c, 0, 60, 119
1, 10807, Note_on_c, 0, 58, 113
1, 10892, Note_off_c, 0, 58, 113
1, 10919, Note_on_c, 0, 55, 114
1, 11051, Note_off_c, 0, 55, 114
1, 11062, Note_on_c, 0, 58, 118
1, 11182, Note_off_c, 0, 58, 118
1, 11209, Note_on_c, 0, 60, 116
1, 11318, Note_off_c, 0, 60, 116
1, 11333, Note_on_c, 0, 58, 118
1, 11430, Note_off_c, 0, 58, 118
1, 11453, Note_on_c, 0, 57, 113
1, 11776, Note_off_c, 0, 57, 113
1, 12107, Note_on_c, 0, 62, 121
1, 12216, Note_off_c, 0, 62, 121
1, 12216, Note_on_c, 0, 60, 118
1, 12325, Note_off_c, 0, 60, 118
1, 12340, Note_on_c, 0, 58, 105
1, 12433, Note_off_c, 0, 58, 105
1, 12436, Note_on_c, 0, 60, 118
1, 12549, Note_off_c, 0, 60, 118
1, 12568, Note_on_c, 0, 58, 113
1, 12638, Note_off_c, 0, 58, 113
1, 12638, Note_on_c, 0, 61, 122
1, 12739, Note_off_c, 0, 61, 122
1, 12746, Note_on_c, 0, 58, 109
1, 12804, Note_off_c, 0, 58, 109
1, 12811, Note_on_c, 0, 61, 120
1, 12920, Note_off_c, 0, 61, 120
1, 12923, Note_on_c, 0, 58, 109
1, 13001, Note_off_c, 0, 58, 109
1, 13024, Note_on_c, 0, 62, 121
1, 13121, Note_off_c, 0, 62, 121
1, 13132, Note_on_c, 0, 65, 116
1, 13284, Note_off_c, 0, 65, 116
1, 13299, Note_on_c, 0, 64, 121
1, 13380, Note_off_c, 0, 64, 121
1, 13419, Note_on_c, 0, 63, 116
1, 13500, Note_off_c, 0, 63, 116
1, 13679, Note_on_c, 0, 62, 111
1, 13764, Note_off_c, 0, 62, 111
1, 13865, Note_on_c, 0, 55, 115
1, 13962, Note_off_c, 0, 55, 115
1, 13965, Note_on_c, 0, 54, 115
1, 14027, Note_off_c, 0, 54, 115
1, 14046, Note_on_c, 0, 55, 102
1, 14127, Note_off_c, 0, 55, 102
1, 14127, Note_on_c, 0, 60, 108
1, 14181, Note_off_c, 0, 60, 108
1, 14192, Note_on_c, 0, 62, 113
1, 14289, Note_off_c, 0, 62, 113
1, 14296, Note_on_c, 0, 53, 114
1, 14409, Note_off_c, 0, 53, 114
1, 14533, Note_on_c, 0, 58, 116
1, 14653, Note_off_c, 0, 58, 116
1, 14653, Note_on_c, 0, 62, 117
1, 14719, Note_off_c, 0, 62, 117
1, 14734, Note_on_c, 0, 65, 110
1, 14843, Note_off_c, 0, 65, 110
1, 14850, Note_on_c, 0, 69, 122
1, 14982, Note_off_c, 0, 69, 122
1, 14989, Note_on_c, 0, 67, 124
1, 15102, Note_off_c, 0, 67, 124
1, 15141, Note_on_c, 0, 66, 118
1, 15219, Note_off_c, 0, 66, 118
1, 15343, Note_on_c, 0, 55, 110
1, 15424, Note_off_c, 0, 55, 110
1, 15435, Note_on_c, 0, 56, 115
1, 15524, Note_off_c, 0, 56, 115
1, 15535, Note_on_c, 0, 58, 115
1, 15624, Note_off_c, 0, 58, 115
1, 15639, Note_on_c, 0, 62, 106
1, 15810, Note_off_c, 0, 62, 106
1, 15884, Note_on_c, 0, 53, 119
1, 15993, Note_off_c, 0, 53, 119
1, 15993, Note_on_c, 0, 58, 110
1, 16242, Note_off_c, 0, 58, 110
1, 16620, Note_on_c, 0, 67, 125
1, 16705, Note_off_c, 0, 67, 125
1, 16736, Note_on_c, 0, 67, 124
1, 16806, Note_off_c, 0, 67, 124
1, 16824, Note_on_c, 0, 67, 124
1, 16906, Note_off_c, 0, 67, 124
1, 16922, Note_on_c, 0, 67, 120
1, 17003, Note_off_c, 0, 67, 120
1, 17017, Note_on_c, 0, 67, 126
1, 17096, Note_off_c, 0, 67, 126
1, 17107, Note_on_c, 0, 67, 120
1, 17173, Note_off_c, 0, 67, 120
1, 17191, Note_on_c, 0, 67, 120
1, 17276, Note_off_c, 0, 67, 120
1, 17297, Note_on_c, 0, 67, 123
1, 17378, Note_off_c, 0, 67, 123
1, 17417, Note_on_c, 0, 67, 122
1, 17502, Note_off_c, 0, 67, 122
1, 17529, Note_on_c, 0, 67, 121
1, 17591, Note_off_c, 0, 67, 121
1, 17607, Note_on_c, 0, 67, 123
1, 17681, Note_off_c, 0, 67, 123
1, 17694, Note_on_c, 0, 67, 118
1, 17776, Note_off_c, 0, 67, 118
1, 17776, Note_on_c, 0, 69, 123
1, 17998, Note_off_c, 0, 69, 123
1, 18002, Note_on_c, 0, 67, 122
1, 18103, Note_off_c, 0, 67, 122
1, 18103, Note_on_c, 0, 69, 121
1, 18163, Note_off_c, 0, 69, 121
1, 18179, Note_on_c, 0, 67, 116
1, 18280, Note_off_c, 0, 67, 116
1, 18296, Note_on_c, 0, 62, 116
1, 18394, Note_off_c, 0, 62, 116
1, 18394, Note_on_c, 0, 61, 110
1, 18492, Note_off_c, 0, 61, 110
1, 18505, Note_on_c, 0, 60, 107
1, 18710, Note_off_c, 0, 60, 107
1, 18781, Note_on_c, 0, 61, 114
1, 18907, Note_off_c, 0, 61, 114
1, 18907, Note_on_c, 0, 62, 109
1, 19063, Note_off_c, 0, 62, 109
1, 19068, Note_on_c, 0, 58, 118
1, 19150, Note_off_c, 0, 58, 118
1, 19265, Note_on_c, 0, 55, 106
1, 19629, Note_off_c, 0, 55, 106
1, 20007, Note_on_c, 0, 62, 119
1, 20083, Note_off_c, 0, 62, 119
1, 20217, Note_on_c, 0, 61, 122
1, 20288, Note_off_c, 0, 61, 122
1, 20403, Note_on_c, 0, 60, 117
1, 20482, Note_off_c, 0, 60, 117
1, 20594, Note_on_c, 0, 58, 118
1, 20654, Note_off_c, 0, 58, 118
1, 20788, Note_on_c, 0, 55, 116
1, 20862, Note_off_c, 0, 55, 116
1, 20974, Note_on_c, 0, 58, 117
1, 21039, Note_off_c, 0, 58, 117
1, 21143, Note_on_c, 0, 55, 119
1, 21208, Note_off_c, 0, 55, 119
1, 21342, Note_on_c, 0, 60, 115
1, 21427, Note_off_c, 0, 60, 115
1, 21539, Note_on_c, 0, 58, 118
1, 21613, Note_off_c, 0, 58, 118
1, 21725, Note_on_c, 0, 57, 119
1, 21796, Note_off_c, 0, 57, 119
1, 21935, Note_on_c, 0, 55, 115
1, 22022, Note_off_c, 0, 55, 115
1, 22109, Note_on_c, 0, 57, 122
1, 22180, Note_off_c, 0, 57, 122
1, 22286, Note_on_c, 0, 53, 111
1, 22365, Note_off_c, 0, 53, 111
1, 22466, Note_on_c, 0, 65, 120
1, 22553, Note_off_c, 0, 65, 120
1, 22572, Note_on_c, 0, 64, 120
1, 22646, Note_off_c, 0, 64, 120
1, 22670, Note_on_c, 0, 61, 108
1, 22801, Note_off_c, 0, 61, 108
1, 23279, Note_on_c, 0, 53, 121
1, 23353, Note_off_c, 0, 53, 121
1, 23353, Note_on_c, 0, 58, 120
1, 23434, Note_off_c, 0, 58, 120
1, 23434, Note_on_c, 0, 62, 106
1, 23515, Note_off_c, 0, 62, 106
1, 23515, Note_on_c, 0, 65, 118
1, 23608, Note_off_c, 0, 65, 118
1, 23638, Note_on_c, 0, 67, 122
1, 23753, Note_off_c, 0, 67, 122
1, 23799, Note_on_c, 0, 69, 126
1, 24097, Note_off_c, 0, 69, 126
1, 24107, Note_on_c, 0, 67, 120
1, 24210, Note_on_c, 0, 65, 113
1, 24210, Note_off_c, 0, 67, 120
1, 24276, Note_off_c, 0, 65, 113
1, 24311, Note_on_c, 0, 62, 113
1, 24404, Note_off_c, 0, 62, 113
1, 24454, Note_on_c, 0, 60, 112
1, 24676, Note_off_c, 0, 60, 112
1, 24847, Note_on_c, 0, 58, 118
1, 24967, Note_off_c, 0, 58, 118
1, 25013, Note_on_c, 0, 55, 110
1, 25110, Note_off_c, 0, 55, 110
1, 25152, Note_on_c, 0, 62, 114
1, 25382, Note_off_c, 0, 62, 114
1, 25795, Note_on_c, 0, 73, 126
1, 25869, Note_off_c, 0, 73, 126
1, 25880, Note_on_c, 0, 74, 125
1, 26227, Note_off_c, 0, 74, 125
1, 26242, Note_on_c, 0, 71, 110
1, 26284, Note_off_c, 0, 71, 110
1, 26284, Note_on_c, 0, 72, 122
1, 26299, Note_off_c, 0, 72, 122
1, 26302, Note_on_c, 0, 75, 116
1, 26348, Note_off_c, 0, 75, 116
1, 26367, Note_on_c, 0, 72, 120
1, 26499, Note_off_c, 0, 72, 120
1, 26510, Note_on_c, 0, 70, 125
1, 26712, Note_off_c, 0, 70, 125
1, 26778, Note_on_c, 0, 67, 116
1, 26871, Note_off_c, 0, 67, 116
1, 26976, Note_on_c, 0, 65, 112
1, 27089, Note_off_c, 0, 65, 112
1, 27096, Note_on_c, 0, 64, 118
1, 27154, Note_off_c, 0, 64, 118
1, 27154, Note_on_c, 0, 63, 117
1, 27243, Note_off_c, 0, 63, 117
1, 27266, Note_on_c, 0, 62, 114
1, 27355, Note_off_c, 0, 62, 114
1, 27448, Note_on_c, 0, 62, 118
1, 27557, Note_off_c, 0, 62, 118
1, 27603, Note_on_c, 0, 55, 105
1, 27681, Note_off_c, 0, 55, 105
1, 27696, Note_on_c, 0, 54, 114
1, 27761, Note_off_c, 0, 54, 114
1, 27761, Note_on_c, 0, 55, 101
1, 27842, Note_off_c, 0, 55, 101
1, 27902, Note_on_c, 0, 62, 117
1, 28002, Note_off_c, 0, 62, 117
1, 28002, Note_on_c, 0, 53, 112
1, 28099, Note_off_c, 0, 53, 112
1, 28184, Note_on_c, 0, 53, 96
1, 28258, Note_off_c, 0, 53, 96
1, 28269, Note_on_c, 0, 58, 121
1, 28382, Note_off_c, 0, 58, 121
1, 28382, Note_on_c, 0, 53, 104
1, 28499, Note_off_c, 0, 53, 104
1, 28518, Note_on_c, 0, 58, 117
1, 28615, Note_off_c, 0, 58, 117
1, 28615, Note_on_c, 0, 62, 108
1, 28696, Note_off_c, 0, 62, 108
1, 28699, Note_on_c, 0, 65, 118
1, 28792, Note_off_c, 0, 65, 118
1, 28827, Note_on_c, 0, 64, 115
1, 28916, Note_off_c, 0, 64, 115
1, 28986, Note_on_c, 0, 63, 115
1, 29067, Note_off_c, 0, 63, 115
1, 29078, Note_on_c, 0, 62, 110
1, 29206, Note_off_c, 0, 62, 110
1, 29241, Note_on_c, 0, 65, 117
1, 29373, Note_off_c, 0, 65, 117
1, 29376, Note_on_c, 0, 62, 113
1, 29457, Note_off_c, 0, 62, 113
1, 29476, Note_on_c, 0, 61, 116
1, 29725, Note_off_c, 0, 61, 116
1, 29783, Note_on_c, 0, 58, 112
1, 30067, Note_off_c, 0, 58, 112
1, 30067, End_track
0, 0, End_of_file
