0, 0, Header, 1, 1, 192
1, 0, Start_track
1, 0, Title_t, "Melody"
1, 0, Tempo, 255319
1, 0, Key_signature, -2, "major"
1, 0, Time_signature, 4, 2, 24, 8
1, 5029, Note_on_c, 0, 63, 115
1, 5077, Note_off_c, 0, 63, 115
1, 5114, Note_on_c, 0, 62, 109
1, 5199, Note_off_c, 0, 62, 109
1, 5297, Note_on_c, 0, 58, 95
1, 5785, Note_off_c, 0, 58, 95
1, 5833, Note_on_c, 0, 63, 105
1, 5900, Note_off_c, 0, 63, 105
1, 5910, Note_on_c, 0, 62, 103
1, 6008, Note_off_c, 0, 62, 103
1, 6027, Note_on_c, 0, 58, 116
1, 6092, Note_off_c, 0, 58, 116
1, 6214, Note_on_c, 0, 58, 97
1, 6492, Note_off_c, 0, 58, 97
1, 6623, Note_on_c, 0, 63, 114
1, 6675, Note_off_c, 0, 63, 114
1, 6718, Note_on_c, 0, 62, 100
1, 6803, Note_off_c, 0, 62, 100
1, 6899, Note_on_c, 0, 58, 111
1, 7222, Note_off_c, 0, 58, 111
1, 7312, Note_on_c, 0, 63, 113
1, 7474, Note_off_c, 0, 63, 113
1, 7498, Note_on_c, 0, 62, 110
1, 7591, Note_off_c, 0, 62, 110
1, 7632, Note_on_c, 0, 58, 116
1, 7745, Note_off_c, 0, 58, 116
1, 8212, Note_on_c, 0, 63, 108
1, 8406, Note_off_c, 0, 63, 108
1, 8440, Note_on_c, 0, 61, 98
1, 8503, Note_off_c, 0, 61, 98
1, 8538, Note_on_c, 0, 63, 114
1, 8658, Note_off_c, 0, 63, 114
1, 8692, Note_on_c, 0, 61, 113
1, 8801, Note_off_c, 0, 61, 113
1, 8892, Note_on_c, 0, 61, 106
1, 9062, Note_off_c, 0, 61, 106
1, 9094, Note_on_c, 0, 58, 110
1, 9205, Note_off_c, 0, 58, 110
1, 9303, Note_on_c, 0, 58, 98
1, 9562, Note_off_c, 0, 58, 98
1, 10013, Note_on_c, 0, 63, 108
1, 10089, Note_off_c, 0, 63, 108
1, 10098, Note_on_c, 0, 62, 110
1, 10194, Note_off_c, 0, 62, 110
1, 10233, Note_on_c, 0, 58, 112
1, 10285, Note_off_c, 0, 58, 112
1, 10411, Note_on_c, 0, 63, 115
1, 10469, Note_off_c, 0, 63, 115
1, 10484, Note_on_c, 0, 62, 109
1, 10590, Note_off_c, 0, 62, 109
1, 10624, Note_on_c, 0, 58, 109
1, 10667, Note_off_c, 0, 58, 109
1, 10995, Note_on_c, 0, 67, 119
1, 11069, Note_off_c, 0, 67, 119
1, 11075, Note_on_c, 0, 65, 111
1, 11183, Note_off_c, 0, 65, 111
1, 11194, Note_on_c, 0, 62, 113
1, 11285, Note_off_c, 0, 62, 113
1, 11587, Note_on_c, 0, 63, 119
1, 11661, Note_off_c, 0, 63, 119
1, 11669, Note_on_c, 0, 62, 112
1, 11769, Note_off_c, 0, 62, 112
1, 11776, Note_on_c, 0, 58, 114
1, 11872, Note_off_c, 0, 58, 114
1, 12059, Note_on_c, 0, 53, 103
1, 12270, Note_off_c, 0, 53, 103
1, 12565, Note_on_c, 0, 62, 114
1, 12628, Note_off_c, 0, 62, 114
1, 12641, Note_on_c, 0, 60, 106
1, 12743, Note_off_c, 0, 60, 106
1, 12771, Note_on_c, 0, 53, 103
1, 12849, Note_off_c, 0, 53, 103
1, 13188, Note_on_c, 0, 64, 104
1, 13215, Note_off_c, 0, 64, 104
1, 13219, Note_on_c, 0, 63, 110
1, 13246, Note_off_c, 0, 63, 110
1, 13258, Note_on_c, 0, 62, 114
1, 13330, Note_off_c, 0, 62, 114
1, 13366, Note_on_c, 0, 58, 116
1, 13462, Note_off_c, 0, 58, 116
1, 13639, Note_on_c, 0, 58, 103
1, 13860, Note_off_c, 0, 58, 103
1, 14351, Note_on_c, 0, 62, 109
1, 14399, Note_off_c, 0, 62, 109
1, 14405, Note_on_c, 0, 63, 107
1, 14578, Note_off_c, 0, 63, 107
1, 14619, Note_on_c, 0, 62, 113
1, 14691, Note_off_c, 0, 62, 113
1, 14805, Note_on_c, 0, 63, 111
1, 14986, Note_off_c, 0, 63, 111
1, 14994, Note_on_c, 0, 62, 110
1, 15094, Note_off_c, 0, 62, 110
1, 15119, Note_on_c, 0, 58, 109
1, 15845, Note_off_c, 0, 58, 109
1, 15918, Note_on_c, 0, 61, 99
1, 15965, Note_off_c, 0, 61, 99
1, 15974, Note_on_c, 0, 62, 105
1, 16092, Note_off_c, 0, 62, 105
1, 16114, Note_on_c, 0, 65, 107
1, 16162, Note_off_c, 0, 65, 107
1, 16184, Note_on_c, 0, 67, 103
1, 16286, Note_off_c, 0, 67, 103
1, 16306, Note_on_c, 0, 72, 106
1, 16409, Note_off_c, 0, 72, 106
1, 16414, Note_on_c, 0, 70, 121
1, 16852, Note_off_c, 0, 70, 121
1, 16921, Note_on_c, 0, 68, 114
1, 17034, Note_off_c, 0, 68, 114
1, 17110, Note_on_c, 0, 65, 96
1, 17153, Note_off_c, 0, 65, 96
1, 17184, Note_on_c, 0, 68, 118
1, 17295, Note_off_c, 0, 68, 118
1, 17303, Note_on_c, 0, 65, 105
1, 17375, Note_off_c, 0, 65, 105
1, 17579, Note_on_c, 0, 65, 107
1, 17656, Note_off_c, 0, 65, 107
1, 17789, Note_on_c, 0, 58, 94
1, 17835, Note_off_c, 0, 58, 94
1, 17965, Note_on_c, 0, 63, 106
1, 18055, Note_off_c, 0, 63, 106
1, 18065, Note_on_c, 0, 65, 102
1, 18302, Note_off_c, 0, 65, 102
1, 18367, Note_on_c, 0, 63, 110
1, 18469, Note_off_c, 0, 63, 110
1, 18495, Note_on_c, 0, 65, 101
1, 18791, Note_off_c, 0, 65, 101
1, 19546, Note_on_c, 0, 65, 104
1, 19625, Note_off_c, 0, 65, 104
1, 19669, Note_on_c, 0, 67, 108
1, 19711, Note_off_c, 0, 67, 108
1, 19729, Note_on_c, 0, 69, 115
1, 19832, Note_off_c, 0, 69, 115
1, 19848, Note_on_c, 0, 70, 119
1, 19926, Note_off_c, 0, 70, 119
1, 19939, Note_on_c, 0, 69, 118
1, 20026, Note_off_c, 0, 69, 118
1, 20046, Note_on_c, 0, 67, 108
1, 20104, Note_off_c, 0, 67, 108
1, 20120, Note_on_c, 0, 65, 100
1, 20207, Note_off_c, 0, 65, 100
1, 20245, Note_on_c, 0, 64, 110
1, 20312, Note_off_c, 0, 64, 110
1, 20349, Note_on_c, 0, 62, 105
1, 20425, Note_off_c, 0, 62, 105
1, 20547, Note_on_c, 0, 62, 107
1, 20793, Note_off_c, 0, 62, 107
1, 20852, Note_on_c, 0, 67, 108
1, 20941, Note_off_c, 0, 67, 108
1, 21005, Note_on_c, 0, 65, 103
1, 21092, Note_off_c, 0, 65, 103
1, 21138, Note_on_c, 0, 63, 112
1, 21229, Note_off_c, 0, 63, 112
1, 21325, Note_on_c, 0, 63, 111
1, 21806, Note_off_c, 0, 63, 111
1, 22283, Note_on_c, 0, 69, 121
1, 22383, Note_off_c, 0, 69, 121
1, 22391, Note_on_c, 0, 70, 120
1, 22449, Note_off_c, 0, 70, 120
1, 22525, Note_on_c, 0, 67, 116
1, 22586, Note_off_c, 0, 67, 116
1, 22598, Note_on_c, 0, 69, 119
1, 22709, Note_off_c, 0, 69, 119
1, 22729, Note_on_c, 0, 65, 112
1, 22870, Note_off_c, 0, 65, 112
1, 22882, Note_on_c, 0, 65, 102
1, 23233, Note_off_c, 0, 65, 102
1, 23985, Note_on_c, 0, 67, 112
1, 24050, Note_off_c, 0, 67, 112
1, 24063, Note_on_c, 0, 67, 109
1, 24141, Note_off_c, 0, 67, 109
1, 24158, Note_on_c, 0, 69, 112
1, 24225, Note_off_c, 0, 69, 112
1, 24234, Note_on_c, 0, 70, 121
1, 24338, Note_off_c, 0, 70, 121
1, 24350, Note_on_c, 0, 72, 124
1, 24415, Note_off_c, 0, 72, 124
1, 24420, Note_on_c, 0, 69, 116
1, 24509, Note_off_c, 0, 69, 116
1, 24602, Note_on_c, 0, 70, 123
1, 24718, Note_off_c, 0, 70, 123
1, 24801, Note_on_c, 0, 65, 104
1, 24871, Note_off_c, 0, 65, 104
1, 25002, Note_on_c, 0, 69, 121
1, 25102, Note_off_c, 0, 69, 121
1, 25111, Note_on_c, 0, 70, 119
1, 25190, Note_off_c, 0, 70, 119
1, 25202, Note_on_c, 0, 69, 119
1, 25281, Note_off_c, 0, 69, 119
1, 25306, Note_on_c, 0, 67, 112
1, 25388, Note_off_c, 0, 67, 112
1, 25403, Note_on_c, 0, 65, 103
1, 25504, Note_off_c, 0, 65, 103
1, 25512, Note_on_c, 0, 64, 109
1, 25576, Note_off_c, 0, 64, 109
1, 25585, Note_on_c, 0, 63, 109
1, 25687, Note_off_c, 0, 63, 109
1, 25779, Note_on_c, 0, 62, 101
1, 25879, Note_off_c, 0, 62, 101
1, 25890, Note_on_c, 0, 61, 100
1, 25963, Note_off_c, 0, 61, 100
1, 25976, Note_on_c, 0, 58, 108
1, 26072, Note_off_c, 0, 58, 108
1, 26092, Note_on_c, 0, 57, 103
1, 26136, Note_off_c, 0, 57, 103
1, 26154, Note_on_c, 0, 56, 98
1, 26263, Note_off_c, 0, 56, 98
1, 26278, Note_on_c, 0, 58, 104
1, 26354, Note_off_c, 0, 58, 104
1, 26371, Note_on_c, 0, 60, 100
1, 26475, Note_off_c, 0, 60, 100
1, 26509, Note_on_c, 0, 65, 104
1, 26555, Note_off_c, 0, 65, 104
1, 26559, Note_on_c, 0, 67, 109
1, 26661, Note_off_c, 0, 67, 109
1, 26742, Note_on_c, 0, 67, 110
1, 26854, Note_off_c, 0, 67, 110
1, 26863, Note_on_c, 0, 66, 107
1, 26936, Note_off_c, 0, 66, 107
1, 27200, Note_on_c, 0, 58, 93
1, 27261, Note_off_c, 0, 58, 93
1, 27292, Note_on_c, 0, 64, 111
1, 27379, Note_off_c, 0, 64, 111
1, 27392, Note_on_c, 0, 65, 102
1, 27866, Note_off_c, 0, 65, 102
1, 27924, Note_on_c, 0, 63, 115
1, 28039, Note_off_c, 0, 63, 115
1, 28052, Note_on_c, 0, 61, 88
1, 28101, Note_off_c, 0, 61, 88
1, 28114, Note_on_c, 0, 63, 113
1, 28222, Note_off_c, 0, 63, 113
1, 28240, Note_on_c, 0, 61, 101
1, 28334, Note_off_c, 0, 61, 101
1, 28914, Note_on_c, 0, 71, 114
1, 29016, Note_off_c, 0, 71, 114
1, 29031, Note_on_c, 0, 72, 123
1, 29090, Note_off_c, 0, 72, 123
1, 29123, Note_on_c, 0, 69, 121
1, 29199, Note_off_c, 0, 69, 121
1, 29224, Note_on_c, 0, 65, 107
1, 29295, Note_off_c, 0, 65, 107
1, 29310, Note_on_c, 0, 62, 112
1, 29409, Note_off_c, 0, 62, 112
1, 29574, Note_on_c, 0, 70, 118
1, 29684, Note_off_c, 0, 70, 118
1, 29769, Note_on_c, 0, 71, 124
1, 29872, Note_off_c, 0, 71, 124
1, 29965, Note_on_c, 0, 68, 125
1, 30029, Note_off_c, 0, 68, 125
1, 30067, Note_on_c, 0, 64, 112
1, 30154, Note_off_c, 0, 64, 112
1, 30178, Note_on_c, 0, 61, 108
1, 30271, Note_off_c, 0, 61, 108
1, 30580, Note_on_c, 0, 70, 123
1, 30656, Note_off_c, 0, 70, 123
1, 30663, Note_on_c, 0, 69, 119
1, 30742, Note_off_c, 0, 69, 119
1, 30760, Note_on_c, 0, 67, 108
1, 30825, Note_off_c, 0, 67, 108
1, 30833, Note_on_c, 0, 65, 106
1, 30928, Note_off_c, 0, 65, 106
1, 30962, Note_on_c, 0, 64, 107
1, 31017, Note_off_c, 0, 64, 107
1, 31021, Note_on_c, 0, 63, 112
1, 31124, Note_off_c, 0, 63, 112
1, 31156, Note_on_c, 0, 58, 89
1, 31209, Note_off_c, 0, 58, 89
1, 31242, Note_on_c, 0, 62, 105
1, 31324, Note_off_c, 0, 62, 105
1, 31331, Note_on_c, 0, 65, 105
1, 31522, Note_off_c, 0, 65, 105
1, 31594, Note_on_c, 0, 61, 104
1, 31679, Note_off_c, 0, 61, 104
1, 31715, Note_on_c, 0, 65, 113
1, 31824, Note_off_c, 0, 65, 113
1, 31997, Note_on_c, 0, 60, 104
1, 32147, Note_off_c, 0, 60, 104
1, 32158, Note_on_c, 0, 60, 101
1, 32280, Note_off_c, 0, 60, 101
1, 32294, Note_on_c, 0, 60, 107
1, 32419, Note_off_c, 0, 60, 107
1, 33109, Note_on_c, 0, 61, 102
1, 33161, Note_off_c, 0, 61, 102
1, 33168, Note_on_c, 0, 62, 110
1, 33281, Note_off_c, 0, 62, 110
1, 33296, Note_on_c, 0, 65, 99
1, 33341, Note_off_c, 0, 65, 99
1, 33356, Note_on_c, 0, 67, 113
1, 33412, Note_off_c, 0, 67, 113
1, 33532, Note_on_c, 0, 70, 114
1, 33628, Note_off_c, 0, 70, 114
1, 33722, Note_on_c, 0, 70, 119
1, 33840, Note_off_c, 0, 70, 119
1, 33929, Note_on_c, 0, 70, 121
1, 34242, Note_off_c, 0, 70, 121
1, 34260, Note_on_c, 0, 70, 122
1, 34357, Note_off_c, 0, 70, 122
1, 34449, Note_on_c, 0, 70, 120
1, 34553, Note_off_c, 0, 70, 120
1, 34641, Note_on_c, 0, 70, 121
1, 34715, Note_off_c, 0, 70, 121
1, 34730, Note_on_c, 0, 70, 124
1, 34987, Note_off_c, 0, 70, 124
1, 35040, Note_on_c, 0, 70, 123
1, 35280, Note_off_c, 0, 70, 123
1, 35298, Note_on_c, 0, 68, 123
1, 35418, Note_off_c, 0, 68, 123
1, 35430, Note_on_c, 0, 65, 100
1, 35476, Note_off_c, 0, 65, 100
1, 35482, Note_on_c, 0, 68, 122
1, 35605, Note_off_c, 0, 68, 122
1, 35615, Note_on_c, 0, 70, 121
1, 36070, Note_off_c, 0, 70, 121
1, 36731, Note_on_c, 0, 72, 117
1, 36803, Note_off_c, 0, 72, 117
1, 36815, Note_on_c, 0, 73, 122
1, 36884, Note_off_c, 0, 73, 122
1, 36903, Note_on_c, 0, 73, 120
1, 36967, Note_off_c, 0, 73, 120
1, 36988, Note_on_c, 0, 73, 122
1, 37061, Note_off_c, 0, 73, 122
1, 37105, Note_on_c, 0, 69, 118
1, 37169, Note_off_c, 0, 69, 118
1, 37184, Note_on_c, 0, 70, 117
1, 37251, Note_off_c, 0, 70, 117
1, 37266, Note_on_c, 0, 70, 123
1, 37343, Note_off_c, 0, 70, 123
1, 37359, Note_on_c, 0, 70, 124
1, 37423, Note_off_c, 0, 70, 124
1, 37475, Note_on_c, 0, 66, 109
1, 37540, Note_off_c, 0, 66, 109
1, 37552, Note_on_c, 0, 67, 110
1, 37614, Note_off_c, 0, 67, 110
1, 37643, Note_on_c, 0, 67, 111
1, 37709, Note_off_c, 0, 67, 111
1, 37729, Note_on_c, 0, 67, 112
1, 37804, Note_off_c, 0, 67, 112
1, 37837, Note_on_c, 0, 63, 116
1, 37917, Note_off_c, 0, 63, 116
1, 37932, Note_on_c, 0, 64, 108
1, 38010, Note_off_c, 0, 64, 108
1, 38024, Note_on_c, 0, 64, 112
1, 38103, Note_off_c, 0, 64, 112
1, 38120, Note_on_c, 0, 64, 112
1, 38195, Note_off_c, 0, 64, 112
1, 38199, Note_on_c, 0, 61, 101
1, 38273, Note_off_c, 0, 61, 101
1, 38617, Note_on_c, 0, 69, 117
1, 38718, Note_off_c, 0, 69, 117
1, 38737, Note_on_c, 0, 70, 99
1, 38777, Note_off_c, 0, 70, 99
1, 38805, Note_on_c, 0, 72, 111
1, 38880, Note_off_c, 0, 72, 111
1, 38923, Note_on_c, 0, 67, 113
1, 38987, Note_off_c, 0, 67, 113
1, 39066, Note_on_c, 0, 69, 116
1, 39146, Note_off_c, 0, 69, 116
1, 39155, Note_on_c, 0, 70, 119
1, 39266, Note_off_c, 0, 70, 119
1, 39290, Note_on_c, 0, 69, 121
1, 39375, Note_off_c, 0, 69, 121
1, 39460, Note_on_c, 0, 67, 110
1, 39532, Note_off_c, 0, 67, 110
1, 39551, Note_on_c, 0, 65, 106
1, 39628, Note_off_c, 0, 65, 106
1, 39644, Note_on_c, 0, 64, 112
1, 39713, Note_off_c, 0, 64, 112
1, 39738, Note_on_c, 0, 63, 121
1, 39854, Note_off_c, 0, 63, 121
1, 39872, Note_on_c, 0, 63, 118
1, 40106, Note_off_c, 0, 63, 118
1, 40125, Note_on_c, 0, 63, 117
1, 40243, Note_off_c, 0, 63, 117
1, 40812, Note_on_c, 0, 62, 109
1, 40901, Note_off_c, 0, 62, 109
1, 40919, Note_on_c, 0, 59, 106
1, 41053, Note_off_c, 0, 59, 106
1, 41061, Note_on_c, 0, 60, 110
1, 41201, Note_off_c, 0, 60, 110
1, 41302, Note_on_c, 0, 63, 117
1, 41411, Note_off_c, 0, 63, 117
1, 41493, Note_on_c, 0, 67, 115
1, 41594, Note_off_c, 0, 67, 115
1, 41693, Note_on_c, 0, 72, 116
1, 41797, Note_off_c, 0, 72, 116
1, 41888, Note_on_c, 0, 69, 123
1, 41973, Note_off_c, 0, 69, 123
1, 41989, Note_on_c, 0, 67, 120
1, 42058, Note_off_c, 0, 67, 120
1, 42065, Note_on_c, 0, 65, 113
1, 42167, Note_off_c, 0, 65, 113
1, 42179, Note_on_c, 0, 64, 116
1, 42236, Note_off_c, 0, 64, 116
1, 42261, Note_on_c, 0, 63, 118
1, 42347, Note_off_c, 0, 63, 118
1, 42425, Note_on_c, 0, 62, 116
1, 42523, Note_off_c, 0, 62, 116
1, 42533, Note_on_c, 0, 61, 106
1, 42597, Note_off_c, 0, 61, 106
1, 42610, Note_on_c, 0, 57, 106
1, 42707, Note_off_c, 0, 57, 106
1, 42849, Note_on_c, 0, 60, 105
1, 42925, Note_off_c, 0, 60, 105
1, 42937, Note_on_c, 0, 58, 102
1, 43009, Note_off_c, 0, 58, 102
1, 43020, Note_on_c, 0, 57, 103
1, 43136, Note_off_c, 0, 57, 103
1, 43148, Note_on_c, 0, 58, 92
1, 43201, Note_off_c, 0, 58, 92
1, 43202, Note_on_c, 0, 62, 109
1, 43310, Note_off_c, 0, 62, 109
1, 43316, Note_on_c, 0, 65, 103
1, 43585, Note_off_c, 0, 65, 103
1, 44115, Note_on_c, 0, 64, 91
1, 44166, Note_off_c, 0, 64, 91
1, 44169, Note_on_c, 0, 67, 108
1, 44256, Note_off_c, 0, 67, 108
1, 44282, Note_on_c, 0, 70, 122
1, 44672, Note_off_c, 0, 70, 122
1, 44751, Note_on_c, 0, 68, 121
1, 44862, Note_off_c, 0, 68, 121
1, 44884, Note_on_c, 0, 65, 101
1, 45077, Note_off_c, 0, 65, 101
1, 45473, Note_on_c, 0, 64, 110
1, 45535, Note_off_c, 0, 64, 110
1, 45538, Note_on_c, 0, 65, 93
1, 45686, Note_off_c, 0, 65, 93
1, 45692, Note_on_c, 0, 58, 99
1, 45754, Note_off_c, 0, 58, 99
1, 45910, Note_on_c, 0, 63, 110
1, 45966, Note_off_c, 0, 63, 110
1, 45972, Note_on_c, 0, 65, 101
1, 46113, Note_off_c, 0, 65, 101
1, 46116, Note_on_c, 0, 62, 98
1, 46177, Note_off_c, 0, 62, 98
1, 47002, Note_on_c, 0, 63, 111
1, 47076, Note_off_c, 0, 63, 111
1, 47083, Note_on_c, 0, 65, 95
1, 47627, Note_off_c, 0, 65, 95
1, 47834, Note_on_c, 0, 65, 103
1, 47984, Note_off_c, 0, 65, 103
1, 47991, Note_on_c, 0, 62, 89
1, 48033, Note_off_c, 0, 62, 89
1, 48544, Note_on_c, 0, 65, 100
1, 48606, Note_off_c, 0, 65, 100
1, 48630, Note_on_c, 0, 64, 106
1, 48700, Note_off_c, 0, 64, 106
1, 48724, Note_on_c, 0, 65, 102
1, 48780, Note_off_c, 0, 65, 102
1, 48801, Note_on_c, 0, 65, 95
1, 48873, Note_off_c, 0, 65, 95
1, 48893, Note_on_c, 0, 65, 95
1, 48972, Note_off_c, 0, 65, 95
1, 49043, Note_on_c, 0, 64, 100
1, 49093, Note_off_c, 0, 64, 100
1, 49111, Note_on_c, 0, 65, 97
1, 49184, Note_off_c, 0, 65, 97
1, 49198, Note_on_c, 0, 65, 94
1, 49263, Note_off_c, 0, 65, 94
1, 49280, Note_on_c, 0, 65, 97
1, 49320, Note_off_c, 0, 65, 97
1, 49399, Note_on_c, 0, 64, 104
1, 49474, Note_off_c, 0, 64, 104
1, 49484, Note_on_c, 0, 65, 103
1, 49561, Note_off_c, 0, 65, 103
1, 49577, Note_on_c, 0, 65, 96
1, 49647, Note_off_c, 0, 65, 96
1, 49664, Note_on_c, 0, 65, 96
1, 49730, Note_off_c, 0, 65, 96
1, 49774, Note_on_c, 0, 66, 98
1, 49922, Note_off_c, 0, 66, 98
1, 49946, Note_on_c, 0, 67, 106
1, 50026, Note_off_c, 0, 67, 106
1, 50042, Note_on_c, 0, 57, 109
1, 50138, Note_off_c, 0, 57, 109
1, 50632, Note_on_c, 0, 57, 100
1, 50671, Note_off_c, 0, 57, 100
1, 50680, Note_on_c, 0, 58, 96
1, 50732, Note_off_c, 0, 58, 96
1, 50748, Note_on_c, 0, 62, 85
1, 50793, Note_off_c, 0, 62, 85
1, 50812, Note_on_c, 0, 65, 82
1, 50873, Note_off_c, 0, 65, 82
1, 50919, Note_on_c, 0, 69, 115
1, 51000, Note_off_c, 0, 69, 115
1, 51018, Note_on_c, 0, 70, 113
1, 51100, Note_off_c, 0, 70, 113
1, 51112, Note_on_c, 0, 67, 106
1, 51177, Note_off_c, 0, 67, 106
1, 51199, Note_on_c, 0, 69, 114
1, 51267, Note_off_c, 0, 69, 114
1, 51300, Note_on_c, 0, 65, 91
1, 51358, Note_off_c, 0, 65, 91
1, 51375, Note_on_c, 0, 68, 112
1, 51450, Note_off_c, 0, 68, 112
1, 51488, Note_on_c, 0, 63, 100
1, 51560, Note_off_c, 0, 63, 100
1, 51600, Note_on_c, 0, 64, 98
1, 51656, Note_off_c, 0, 64, 98
1, 51680, Note_on_c, 0, 62, 99
1, 51730, Note_off_c, 0, 62, 99
1, 51829, Note_on_c, 0, 63, 107
1, 51960, Note_off_c, 0, 63, 107
1, 52045, Note_on_c, 0, 60, 100
1, 52381, Note_off_c, 0, 60, 100
1, 52422, Note_on_c, 0, 60, 94
1, 52798, Note_off_c, 0, 60, 94
1, 52817, Note_on_c, 0, 60, 93
1, 52896, Note_off_c, 0, 60, 93
1, 52988, Note_on_c, 0, 67, 107
1, 53175, Note_off_c, 0, 67, 107
1, 53221, Note_on_c, 0, 65, 97
1, 53376, Note_off_c, 0, 65, 97
1, 53389, Note_on_c, 0, 62, 101
1, 53488, Note_off_c, 0, 62, 101
1, 53520, Note_on_c, 0, 60, 99
1, 53610, Note_off_c, 0, 60, 99
1, 53714, Note_on_c, 0, 60, 95
1, 53935, Note_off_c, 0, 60, 95
1, 53959, Note_on_c, 0, 60, 96
1, 54076, Note_off_c, 0, 60, 96
1, 54386, Note_on_c, 0, 58, 106
1, 54516, Note_off_c, 0, 58, 106
1, 54552, Note_on_c, 0, 55, 101
1, 54628, Note_off_c, 0, 55, 101
1, 55020, Note_on_c, 0, 58, 96
1, 55305, Note_off_c, 0, 58, 96
1, 55319, Note_on_c, 0, 60, 94
1, 55425, Note_off_c, 0, 60, 94
1, 55429, Note_on_c, 0, 58, 87
1, 55476, Note_off_c, 0, 58, 87
1, 55480, Note_on_c, 0, 61, 102
1, 55590, Note_off_c, 0, 61, 102
1, 55856, Note_on_c, 0, 61, 106
1, 56057, Note_off_c, 0, 61, 106
1, 56066, Note_on_c, 0, 63, 108
1, 56187, Note_off_c, 0, 63, 108
1, 56194, Note_on_c, 0, 64, 108
1, 56309, Note_off_c, 0, 64, 108
1, 56576, Note_on_c, 0, 58, 106
1, 56637, Note_off_c, 0, 58, 106
1, 56652, Note_on_c, 0, 61, 98
1, 56756, Note_off_c, 0, 61, 98
1, 56770, Note_on_c, 0, 62, 101
1, 56832, Note_off_c, 0, 62, 101
1, 56847, Note_on_c, 0, 63, 106
1, 56959, Note_off_c, 0, 63, 106
1, 56971, Note_on_c, 0, 64, 99
1, 57046, Note_off_c, 0, 64, 99
1, 57051, Note_on_c, 0, 65, 92
1, 57121, Note_off_c, 0, 65, 92
1, 57148, Note_on_c, 0, 67, 96
1, 57209, Note_off_c, 0, 67, 96
1, 57219, Note_on_c, 0, 69, 116
1, 57303, Note_off_c, 0, 69, 116
1, 57341, Note_on_c, 0, 70, 114
1, 57415, Note_off_c, 0, 70, 114
1, 57424, Note_on_c, 0, 69, 115
1, 57514, Note_off_c, 0, 69, 115
1, 57533, Note_on_c, 0, 67, 104
1, 57589, Note_off_c, 0, 67, 104
1, 57618, Note_on_c, 0, 65, 95
1, 57687, Note_off_c, 0, 65, 95
1, 57741, Note_on_c, 0, 64, 102
1, 57789, Note_off_c, 0, 64, 102
1, 57805, Note_on_c, 0, 63, 106
1, 57895, Note_off_c, 0, 63, 106
1, 57927, Note_on_c, 0, 57, 93
1, 57970, Note_off_c, 0, 57, 93
1, 57991, Note_on_c, 0, 58, 101
1, 58063, Note_off_c, 0, 58, 101
1, 58121, Note_on_c, 0, 61, 104
1, 58171, Note_off_c, 0, 61, 104
1, 58179, Note_on_c, 0, 62, 94
1, 58347, Note_off_c, 0, 62, 94
1, 58359, Note_on_c, 0, 65, 91
1, 58844, Note_off_c, 0, 65, 91
1, 59370, Note_on_c, 0, 68, 112
1, 59457, Note_off_c, 0, 68, 112
1, 59473, Note_on_c, 0, 68, 114
1, 59529, Note_off_c, 0, 68, 114
1, 59545, Note_on_c, 0, 68, 114
1, 59634, Note_off_c, 0, 68, 114
1, 59657, Note_on_c, 0, 68, 113
1, 59731, Note_off_c, 0, 68, 113
1, 59742, Note_on_c, 0, 68, 114
1, 59835, Note_off_c, 0, 68, 114
1, 59854, Note_on_c, 0, 65, 101
1, 59918, Note_off_c, 0, 65, 101
1, 60109, Note_on_c, 0, 65, 95
1, 60277, Note_off_c, 0, 65, 95
1, 60297, Note_on_c, 0, 65, 97
1, 60369, Note_off_c, 0, 65, 97
1, 61152, Note_on_c, 0, 62, 99
1, 61270, Note_off_c, 0, 62, 99
1, 61279, Note_on_c, 0, 57, 104
1, 61717, Note_off_c, 0, 57, 104
1, 61846, Note_on_c, 0, 63, 112
1, 61939, Note_off_c, 0, 63, 112
1, 61955, Note_on_c, 0, 58, 104
1, 62155, Note_off_c, 0, 58, 104
1, 62231, Note_on_c, 0, 64, 105
1, 62335, Note_off_c, 0, 64, 105
1, 62359, Note_on_c, 0, 59, 96
1, 62526, Note_off_c, 0, 59, 96
1, 62623, Note_on_c, 0, 65, 101
1, 62697, Note_off_c, 0, 65, 101
1, 62744, Note_on_c, 0, 60, 103
1, 62808, Note_off_c, 0, 60, 103
1, 63189, Note_on_c, 0, 65, 89
1, 63291, Note_off_c, 0, 65, 89
1, 63305, Note_on_c, 0, 67, 87
1, 63360, Note_off_c, 0, 67, 87
1, 63370, Note_on_c, 0, 68, 110
1, 63460, Note_off_c, 0, 68, 110
1, 63475, Note_on_c, 0, 70, 108
1, 63559, Note_off_c, 0, 70, 108
1, 63580, Note_on_c, 0, 68, 107
1, 63664, Note_off_c, 0, 68, 107
1, 63975, Note_on_c, 0, 67, 102
1, 64037, Note_off_c, 0, 67, 102
1, 64058, Note_on_c, 0, 66, 102
1, 64126, Note_off_c, 0, 66, 102
1, 64141, Note_on_c, 0, 65, 93
1, 64243, Note_off_c, 0, 65, 93
1, 64273, Note_on_c, 0, 64, 98
1, 64320, Note_off_c, 0, 64, 98
1, 64336, Note_on_c, 0, 63, 105
1, 64439, Note_off_c, 0, 63, 105
1, 64461, Note_on_c, 0, 58, 95
1, 64503, Note_off_c, 0, 58, 95
1, 64512, Note_on_c, 0, 58, 94
1, 64627, Note_off_c, 0, 58, 94
1, 64646, Note_on_c, 0, 60, 92
1, 64715, Note_off_c, 0, 60, 92
1, 64719, Note_on_c, 0, 61, 94
1, 64811, Note_off_c, 0, 61, 94
1, 64825, Note_on_c, 0, 63, 100
1, 64884, Note_off_c, 0, 63, 100
1, 64890, Note_on_c, 0, 64, 100
1, 64951, Note_off_c, 0, 64, 100
1, 65245, Note_on_c, 0, 58, 97
1, 65342, Note_off_c, 0, 58, 97
1, 65405, Note_on_c, 0, 60, 94
1, 65467, Note_off_c, 0, 60, 94
1, 65471, Note_on_c, 0, 61, 96
1, 65550, Note_off_c, 0, 61, 96
1, 65580, Note_on_c, 0, 63, 100
1, 65647, Note_off_c, 0, 63, 100
1, 65656, Note_on_c, 0, 64, 98
1, 65748, Note_off_c, 0, 64, 98
1, 65762, Note_on_c, 0, 66, 105
1, 65822, Note_off_c, 0, 66, 105
1, 65828, Note_on_c, 0, 67, 105
1, 65919, Note_off_c, 0, 67, 105
1, 66727, Note_on_c, 0, 69, 113
1, 66787, Note_off_c, 0, 69, 113
1, 66795, Note_on_c, 0, 70, 108
1, 66897, Note_off_c, 0, 70, 108
1, 66927, Note_on_c, 0, 72, 120
1, 66982, Note_off_c, 0, 72, 120
1, 66996, Note_on_c, 0, 73, 115
1, 67078, Note_off_c, 0, 73, 115
1, 67179, Note_on_c, 0, 69, 110
1, 67287, Note_off_c, 0, 69, 110
1, 67384, Note_on_c, 0, 70, 114
1, 67489, Note_off_c, 0, 70, 114
1, 67558, Note_on_c, 0, 66, 104
1, 67680, Note_off_c, 0, 66, 104
1, 67761, Note_on_c, 0, 67, 105
1, 67882, Note_off_c, 0, 67, 105
1, 67970, Note_on_c, 0, 63, 107
1, 68049, Note_off_c, 0, 63, 107
1, 68063, Note_on_c, 0, 64, 101
1, 68154, Note_off_c, 0, 64, 101
1, 68335, Note_on_c, 0, 61, 97
1, 68410, Note_off_c, 0, 61, 97
1, 68534, Note_on_c, 0, 69, 110
1, 68635, Note_off_c, 0, 69, 110
1, 68639, Note_on_c, 0, 70, 112
1, 68714, Note_off_c, 0, 70, 112
1, 68737, Note_on_c, 0, 67, 104
1, 68807, Note_off_c, 0, 67, 104
1, 68844, Note_on_c, 0, 69, 108
1, 68916, Note_off_c, 0, 69, 108
1, 68930, Note_on_c, 0, 65, 94
1, 69002, Note_off_c, 0, 65, 94
1, 69041, Note_on_c, 0, 67, 100
1, 69114, Note_off_c, 0, 67, 100
1, 69127, Note_on_c, 0, 63, 100
1, 69217, Note_off_c, 0, 63, 100
1, 69226, Note_on_c, 0, 65, 97
1, 69295, Note_off_c, 0, 65, 97
1, 69317, Note_on_c, 0, 62, 100
1, 69372, Note_off_c, 0, 62, 100
1, 69882, Note_on_c, 0, 60, 98
1, 69975, Note_off_c, 0, 60, 98
1, 69996, Note_on_c, 0, 60, 95
1, 70053, Note_off_c, 0, 60, 95
1, 70074, Note_on_c, 0, 60, 99
1, 70149, Note_off_c, 0, 60, 99
1, 70173, Note_on_c, 0, 60, 101
1, 70223, Note_off_c, 0, 60, 101
1, 70243, Note_on_c, 0, 60, 93
1, 70358, Note_off_c, 0, 60, 93
1, 70382, Note_on_c, 0, 60, 100
1, 70439, Note_off_c, 0, 60, 100
1, 70449, Note_on_c, 0, 60, 103
1, 70530, Note_off_c, 0, 60, 103
1, 70558, Note_on_c, 0, 60, 100
1, 70609, Note_off_c, 0, 60, 100
1, 70767, Note_on_c, 0, 60, 108
1, 70962, Note_off_c, 0, 60, 108
1, 70991, Note_on_c, 0, 60, 95
1, 71042, Note_off_c, 0, 60, 95
1, 71088, Note_on_c, 0, 61, 107
1, 71162, Note_off_c, 0, 61, 107
1, 71183, Note_on_c, 0, 60, 102
1, 71288, Note_off_c, 0, 60, 102
1, 71301, Note_on_c, 0, 60, 99
1, 71361, Note_off_c, 0, 60, 99
1, 71388, Note_on_c, 0, 60, 95
1, 71572, Note_off_c, 0, 60, 95
1, 71586, Note_on_c, 0, 60, 101
1, 71711, Note_off_c, 0, 60, 101
1, 71734, Note_on_c, 0, 60, 102
1, 71795, Note_off_c, 0, 60, 102
1, 71824, Note_on_c, 0, 60, 101
1, 71896, Note_off_c, 0, 60, 101
1, 71929, Note_on_c, 0, 60, 102
1, 72023, Note_off_c, 0, 60, 102
1, 72043, Note_on_c, 0, 60, 101
1, 72120, Note_off_c, 0, 60, 101
1, 72313, Note_on_c, 0, 60, 95
1, 72603, Note_off_c, 0, 60, 95
1, 72619, Note_on_c, 0, 60, 105
1, 72690, Note_off_c, 0, 60, 105
1, 73007, Note_on_c, 0, 67, 109
1, 73260, Note_off_c, 0, 67, 109
1, 73285, Note_on_c, 0, 65, 108
1, 73351, Note_off_c, 0, 65, 108
1, 73501, Note_on_c, 0, 60, 97
1, 73814, Note_off_c, 0, 60, 97
1, 74402, Note_on_c, 0, 57, 100
1, 74463, Note_off_c, 0, 57, 100
1, 74472, Note_on_c, 0, 58, 98
1, 74531, Note_off_c, 0, 58, 98
1, 74558, Note_on_c, 0, 60, 96
1, 74633, Note_off_c, 0, 60, 96
1, 74642, Note_on_c, 0, 61, 102
1, 74724, Note_off_c, 0, 61, 102
1, 74747, Note_on_c, 0, 63, 107
1, 74815, Note_off_c, 0, 63, 107
1, 74826, Note_on_c, 0, 60, 96
1, 74927, Note_off_c, 0, 60, 96
1, 74962, Note_on_c, 0, 61, 103
1, 75029, Note_off_c, 0, 61, 103
1, 75035, Note_on_c, 0, 58, 96
1, 75124, Note_off_c, 0, 58, 96
1, 75154, Note_on_c, 0, 60, 97
1, 75198, Note_off_c, 0, 60, 97
1, 75215, Note_on_c, 0, 61, 101
1, 75313, Note_off_c, 0, 61, 101
1, 75331, Note_on_c, 0, 63, 101
1, 75394, Note_off_c, 0, 63, 101
1, 75400, Note_on_c, 0, 65, 97
1, 75476, Note_off_c, 0, 65, 97
1, 76027, Note_on_c, 0, 67, 108
1, 76192, Note_off_c, 0, 67, 108
1, 76201, Note_on_c, 0, 65, 99
1, 76352, Note_off_c, 0, 65, 99
1, 76360, Note_on_c, 0, 62, 106
1, 76419, Note_off_c, 0, 62, 106
1, 76554, Note_on_c, 0, 63, 111
1, 76893, Note_off_c, 0, 63, 111
1, 76920, Note_on_c, 0, 63, 98
1, 76989, Note_off_c, 0, 63, 98
1, 77720, Note_on_c, 0, 67, 105
1, 77766, Note_off_c, 0, 67, 105
1, 77887, Note_on_c, 0, 70, 111
1, 77966, Note_off_c, 0, 70, 111
1, 78084, Note_on_c, 0, 72, 120
1, 78337, Note_off_c, 0, 72, 120
1, 78390, Note_on_c, 0, 73, 124
1, 78466, Note_off_c, 0, 73, 124
1, 78480, Note_on_c, 0, 72, 118
1, 78633, Note_off_c, 0, 72, 118
1, 78658, Note_on_c, 0, 70, 118
1, 78771, Note_off_c, 0, 70, 118
1, 78780, Note_on_c, 0, 67, 112
1, 79005, Note_off_c, 0, 67, 112
1, 79039, Note_on_c, 0, 67, 111
1, 79105, Note_off_c, 0, 67, 111
1, 79132, Note_on_c, 0, 67, 111
1, 79191, Note_off_c, 0, 67, 111
1, 79216, Note_on_c, 0, 67, 110
1, 79305, Note_off_c, 0, 67, 110
1, 79323, Note_on_c, 0, 67, 110
1, 79383, Note_off_c, 0, 67, 110
1, 79409, Note_on_c, 0, 67, 111
1, 79488, Note_off_c, 0, 67, 111
1, 79510, Note_on_c, 0, 67, 107
1, 79579, Note_off_c, 0, 67, 107
1, 79598, Note_on_c, 0, 67, 109
1, 79670, Note_off_c, 0, 67, 109
1, 79707, Note_on_c, 0, 67, 110
1, 79754, Note_off_c, 0, 67, 110
1, 79790, Note_on_c, 0, 67, 108
1, 79855, Note_off_c, 0, 67, 108
1, 79993, Note_on_c, 0, 67, 106
1, 80249, Note_off_c, 0, 67, 106
1, 80283, Note_on_c, 0, 67, 105
1, 80464, Note_off_c, 0, 67, 105
1, 80494, Note_on_c, 0, 65, 94
1, 80541, Note_off_c, 0, 65, 94
1, 80562, Note_on_c, 0, 67, 105
1, 80796, Note_off_c, 0, 67, 105
1, 80843, Note_on_c, 0, 67, 105
1, 81039, Note_off_c, 0, 67, 105
1, 81052, Note_on_c, 0, 65, 87
1, 81102, Note_off_c, 0, 65, 87
1, 81115, Note_on_c, 0, 67, 106
1, 81206, Note_off_c, 0, 67, 106
1, 81225, Note_on_c, 0, 65, 102
1, 81292, Note_off_c, 0, 65, 102
1, 81302, Note_on_c, 0, 62, 103
1, 81367, Note_off_c, 0, 62, 103
1, 81509, Note_on_c, 0, 60, 94
1, 81685, Note_off_c, 0, 60, 94
1, 81696, Note_on_c, 0, 60, 95
1, 81768, Note_off_c, 0, 60, 95
1, 82411, Note_on_c, 0, 58, 97
1, 82446, Note_off_c, 0, 58, 97
1, 82464, Note_on_c, 0, 61, 100
1, 82511, Note_off_c, 0, 61, 100
1, 82542, Note_on_c, 0, 63, 94
1, 82589, Note_off_c, 0, 63, 94
1, 82605, Note_on_c, 0, 65, 102
1, 82670, Note_off_c, 0, 65, 102
1, 82687, Note_on_c, 0, 63, 107
1, 82972, Note_off_c, 0, 63, 107
1, 82996, Note_on_c, 0, 62, 98
1, 83035, Note_off_c, 0, 62, 98
1, 83041, Note_on_c, 0, 63, 106
1, 83319, Note_off_c, 0, 63, 106
1, 83364, Note_on_c, 0, 61, 96
1, 83417, Note_off_c, 0, 61, 96
1, 83427, Note_on_c, 0, 63, 110
1, 83511, Note_off_c, 0, 63, 110
1, 83528, Note_on_c, 0, 65, 105
1, 83610, Note_off_c, 0, 65, 105
1, 83932, Note_on_c, 0, 58, 84
1, 83968, Note_off_c, 0, 58, 84
1, 83977, Note_on_c, 0, 61, 90
1, 84044, Note_off_c, 0, 61, 90
1, 84059, Note_on_c, 0, 63, 86
1, 84101, Note_off_c, 0, 63, 86
1, 84113, Note_on_c, 0, 65, 101
1, 84192, Note_off_c, 0, 65, 101
1, 84205, Note_on_c, 0, 63, 108
1, 84441, Note_off_c, 0, 63, 108
1, 84478, Note_on_c, 0, 61, 96
1, 84534, Note_off_c, 0, 61, 96
1, 84544, Note_on_c, 0, 63, 106
1, 84642, Note_off_c, 0, 63, 106
1, 84654, Note_on_c, 0, 61, 95
1, 84704, Note_off_c, 0, 61, 95
1, 84717, Note_on_c, 0, 58, 92
1, 84825, Note_off_c, 0, 58, 92
1, 84936, Note_on_c, 0, 58, 88
1, 85101, Note_off_c, 0, 58, 88
1, 85117, Note_on_c, 0, 58, 97
1, 85190, Note_off_c, 0, 58, 97
1, 85825, Note_on_c, 0, 60, 94
1, 85917, Note_off_c, 0, 60, 94
1, 85981, Note_on_c, 0, 62, 95
1, 86043, Note_off_c, 0, 62, 95
1, 86056, Note_on_c, 0, 63, 101
1, 86148, Note_off_c, 0, 63, 101
1, 86180, Note_on_c, 0, 65, 93
1, 86233, Note_off_c, 0, 65, 93
1, 86248, Note_on_c, 0, 67, 106
1, 86349, Note_off_c, 0, 67, 106
1, 86355, Note_on_c, 0, 70, 105
1, 86452, Note_off_c, 0, 70, 105
1, 86469, Note_on_c, 0, 69, 113
1, 86558, Note_off_c, 0, 69, 113
1, 86581, Note_on_c, 0, 69, 113
1, 86670, Note_off_c, 0, 69, 113
1, 86755, Note_on_c, 0, 68, 106
1, 86822, Note_off_c, 0, 68, 106
1, 86845, Note_on_c, 0, 67, 108
1, 86964, Note_off_c, 0, 67, 108
1, 86983, Note_on_c, 0, 67, 108
1, 87079, Note_off_c, 0, 67, 108
1, 87134, Note_on_c, 0, 68, 112
1, 87223, Note_off_c, 0, 68, 112
1, 87228, Note_on_c, 0, 69, 114
1, 87343, Note_off_c, 0, 69, 114
1, 87370, Note_on_c, 0, 69, 114
1, 87444, Note_off_c, 0, 69, 114
1, 87527, Note_on_c, 0, 68, 109
1, 87597, Note_off_c, 0, 68, 109
1, 87613, Note_on_c, 0, 67, 108
1, 87721, Note_off_c, 0, 67, 108
1, 87754, Note_on_c, 0, 67, 109
1, 87832, Note_off_c, 0, 67, 109
1, 87911, Note_on_c, 0, 68, 113
1, 87987, Note_off_c, 0, 68, 113
1, 87992, Note_on_c, 0, 69, 113
1, 88098, Note_off_c, 0, 69, 113
1, 88123, Note_on_c, 0, 69, 113
1, 88202, Note_off_c, 0, 69, 113
1, 88281, Note_on_c, 0, 69, 111
1, 88351, Note_off_c, 0, 69, 111
1, 88362, Note_on_c, 0, 67, 110
1, 88463, Note_off_c, 0, 67, 110
1, 88481, Note_on_c, 0, 67, 108
1, 88570, Note_off_c, 0, 67, 108
1, 88655, Note_on_c, 0, 67, 103
1, 88727, Note_off_c, 0, 67, 103
1, 88745, Note_on_c, 0, 65, 105
1, 88818, Note_off_c, 0, 65, 105
1, 88943, Note_on_c, 0, 62, 89
1, 89026, Note_off_c, 0, 62, 89
1, 89042, Note_on_c, 0, 64, 94
1, 89104, Note_off_c, 0, 64, 94
1, 89113, Note_on_c, 0, 65, 104
1, 89195, Note_off_c, 0, 65, 104
1, 89236, Note_on_c, 0, 70, 113
1, 89318, Note_off_c, 0, 70, 113
1, 89532, Note_on_c, 0, 63, 98
1, 89613, Note_off_c, 0, 63, 98
1, 89631, Note_on_c, 0, 65, 91
1, 89683, Note_off_c, 0, 65, 91
1, 89689, Note_on_c, 0, 67, 105
1, 89788, Note_off_c, 0, 67, 105
1, 89798, Note_on_c, 0, 69, 108
1, 89900, Note_off_c, 0, 69, 108
1, 90210, Note_on_c, 0, 67, 9
1, 90259, Note_off_c, 0, 67, 9
1, 90282, Note_on_c, 0, 65, 101
1, 90358, Note_off_c, 0, 65, 101
1, 90392, Note_on_c, 0, 67, 103
1, 90447, Note_off_c, 0, 67, 103
1, 90458, Note_on_c, 0, 63, 106
1, 90553, Note_off_c, 0, 63, 106
1, 90583, Note_on_c, 0, 65, 104
1, 90645, Note_off_c, 0, 65, 104
1, 90662, Note_on_c, 0, 62, 94
1, 90717, Note_off_c, 0, 62, 94
1, 90772, Note_on_c, 0, 63, 99
1, 90831, Note_off_c, 0, 63, 99
1, 90833, Note_on_c, 0, 60, 99
1, 90927, Note_off_c, 0, 60, 99
1, 90956, Note_on_c, 0, 62, 103
1, 91011, Note_off_c, 0, 62, 103
1, 91021, Note_on_c, 0, 58, 101
1, 91186, Note_off_c, 0, 58, 101
1, 91216, Note_on_c, 0, 60, 99
1, 91281, Note_off_c, 0, 60, 99
1, 91290, Note_on_c, 0, 56, 102
1, 91414, Note_off_c, 0, 56, 102
1, 91788, Note_on_c, 0, 55, 96
1, 91811, Note_off_c, 0, 55, 96
1, 91818, Note_on_c, 0, 56, 96
1, 91876, Note_off_c, 0, 56, 96
1, 91880, Note_on_c, 0, 58, 93
1, 91952, Note_off_c, 0, 58, 93
1, 91956, Note_on_c, 0, 58, 99
1, 92020, Note_off_c, 0, 58, 99
1, 92023, Note_on_c, 0, 57, 101
1, 92080, Note_off_c, 0, 57, 101
1, 92089, Note_on_c, 0, 55, 97
1, 92148, Note_off_c, 0, 55, 97
1, 92171, Note_on_c, 0, 55, 93
1, 92225, Note_off_c, 0, 55, 93
1, 92582, Note_on_c, 0, 58, 97
1, 92698, Note_off_c, 0, 58, 97
1, 92712, Note_on_c, 0, 60, 96
1, 92822, Note_off_c, 0, 60, 96
1, 92855, Note_on_c, 0, 61, 98
1, 92933, Note_off_c, 0, 61, 98
1, 93016, Note_on_c, 0, 63, 107
1, 93078, Note_off_c, 0, 63, 107
1, 93091, Note_on_c, 0, 64, 103
1, 93183, Note_off_c, 0, 64, 103
1, 93223, Note_on_c, 0, 67, 106
1, 93288, Note_off_c, 0, 67, 106
1, 93299, Note_on_c, 0, 65, 101
1, 93401, Note_off_c, 0, 65, 101
1, 93429, Note_on_c, 0, 62, 100
1, 93501, Note_off_c, 0, 62, 100
1, 93684, Note_on_c, 0, 62, 100
1, 93966, Note_off_c, 0, 62, 100
1, 94860, Note_on_c, 0, 73, 117
1, 94932, Note_off_c, 0, 73, 117
1, 94934, Note_on_c, 0, 74, 118
1, 95665, Note_off_c, 0, 74, 118
1, 95715, Note_on_c, 0, 72, 117
1, 95839, Note_off_c, 0, 72, 117
1, 95882, Note_on_c, 0, 70, 113
1, 95960, Note_off_c, 0, 70, 113
1, 95999, Note_on_c, 0, 69, 112
1, 96075, Note_off_c, 0, 69, 112
1, 96096, Note_on_c, 0, 67, 102
1, 96163, Note_off_c, 0, 67, 102
1, 96187, Note_on_c, 0, 65, 108
1, 96266, Note_off_c, 0, 65, 108
1, 96312, Note_on_c, 0, 63, 103
1, 96346, Note_off_c, 0, 63, 103
1, 96378, Note_on_c, 0, 62, 98
1, 96460, Note_off_c, 0, 62, 98
1, 96488, Note_on_c, 0, 65, 101
1, 96532, Note_off_c, 0, 65, 101
1, 96544, Note_on_c, 0, 67, 102
1, 96638, Note_off_c, 0, 67, 102
1, 96726, Note_on_c, 0, 70, 110
1, 96948, Note_off_c, 0, 70, 110
1, 96963, Note_on_c, 0, 70, 101
1, 97059, Note_off_c, 0, 70, 101
1, 97408, Note_on_c, 0, 68, 112
1, 97640, Note_off_c, 0, 68, 112
1, 97653, Note_on_c, 0, 65, 102
1, 97741, Note_off_c, 0, 65, 102
1, 97863, Note_on_c, 0, 68, 112
1, 97971, Note_off_c, 0, 68, 112
1, 97982, Note_on_c, 0, 69, 106
1, 98014, Note_off_c, 0, 69, 106
1, 98035, Note_on_c, 0, 70, 112
1, 98114, Note_off_c, 0, 70, 112
1, 98219, Note_on_c, 0, 70, 118
1, 98306, Note_off_c, 0, 70, 118
1, 98321, Note_on_c, 0, 69, 92
1, 98363, Note_off_c, 0, 69, 92
1, 98549, Note_on_c, 0, 65, 92
1, 98589, Note_off_c, 0, 65, 92
1, 98603, Note_on_c, 0, 67, 103
1, 98743, Note_off_c, 0, 67, 103
1, 98777, Note_on_c, 0, 70, 112
1, 98877, Note_off_c, 0, 70, 112
1, 98893, Note_on_c, 0, 70, 122
1, 98978, Note_off_c, 0, 70, 122
1, 99116, Note_on_c, 0, 65, 93
1, 99148, Note_off_c, 0, 65, 93
1, 99181, Note_on_c, 0, 67, 109
1, 99352, Note_off_c, 0, 67, 109
1, 99374, Note_on_c, 0, 68, 110
1, 99470, Note_off_c, 0, 68, 110
1, 99485, Note_on_c, 0, 70, 117
1, 99589, Note_off_c, 0, 70, 117
1, 100127, Note_on_c, 0, 68, 108
1, 100232, Note_off_c, 0, 68, 108
1, 100272, Note_on_c, 0, 58, 86
1, 100314, Note_off_c, 0, 58, 86
1, 100318, Note_on_c, 0, 62, 101
1, 100376, Note_off_c, 0, 62, 101
1, 100410, Note_on_c, 0, 67, 113
1, 100460, Note_off_c, 0, 67, 113
1, 100465, Note_on_c, 0, 66, 103
1, 100508, Note_off_c, 0, 66, 103
1, 100510, Note_on_c, 0, 67, 106
1, 100652, Note_off_c, 0, 67, 106
1, 100687, Note_on_c, 0, 58, 101
1, 100749, Note_off_c, 0, 58, 101
1, 100855, Note_on_c, 0, 64, 95
1, 100950, Note_off_c, 0, 64, 95
1, 100960, Note_on_c, 0, 65, 101
1, 101926, Note_off_c, 0, 65, 101
1, 102038, Note_on_c, 0, 63, 98
1, 102122, Note_off_c, 0, 63, 98
1, 102129, Note_on_c, 0, 65, 90
1, 102184, Note_off_c, 0, 65, 90
1, 102199, Note_on_c, 0, 67, 106
1, 102292, Note_off_c, 0, 67, 106
1, 102300, Note_on_c, 0, 65, 100
1, 102370, Note_off_c, 0, 65, 100
1, 102490, Note_on_c, 0, 65, 96
1, 102761, Note_off_c, 0, 65, 96
1, 102768, Note_on_c, 0, 65, 98
1, 102874, Note_off_c, 0, 65, 98
1, 103797, Note_on_c, 0, 65, 103
1, 103871, Note_off_c, 0, 65, 103
1, 103887, Note_on_c, 0, 64, 102
1, 103984, Note_off_c, 0, 64, 102
1, 103994, Note_on_c, 0, 65, 101
1, 104094, Note_off_c, 0, 65, 101
1, 104542, Note_on_c, 0, 65, 100
1, 104632, Note_off_c, 0, 65, 100
1, 104646, Note_on_c, 0, 64, 106
1, 104733, Note_off_c, 0, 64, 106
1, 104749, Note_on_c, 0, 65, 95
1, 104851, Note_off_c, 0, 65, 95
1, 105324, Note_on_c, 0, 65, 98
1, 105378, Note_off_c, 0, 65, 98
1, 105386, Note_on_c, 0, 63, 103
1, 105443, Note_off_c, 0, 63, 103
1, 105449, Note_on_c, 0, 64, 100
1, 105507, Note_off_c, 0, 64, 100
1, 105510, Note_on_c, 0, 65, 105
1, 105567, Note_off_c, 0, 65, 105
1, 105583, Note_on_c, 0, 65, 104
1, 105648, Note_off_c, 0, 65, 104
1, 105780, Note_on_c, 0, 63, 97
1, 105825, Note_off_c, 0, 63, 97
1, 105830, Note_on_c, 0, 64, 97
1, 105892, Note_off_c, 0, 64, 97
1, 105895, Note_on_c, 0, 65, 105
1, 105958, Note_off_c, 0, 65, 105
1, 105963, Note_on_c, 0, 65, 110
1, 106033, Note_off_c, 0, 65, 110
1, 106165, Note_on_c, 0, 63, 100
1, 106205, Note_off_c, 0, 63, 100
1, 106211, Note_on_c, 0, 64, 101
1, 106265, Note_off_c, 0, 64, 101
1, 106274, Note_on_c, 0, 65, 107
1, 106330, Note_off_c, 0, 65, 107
1, 106336, Note_on_c, 0, 65, 108
1, 106417, Note_off_c, 0, 65, 108
1, 106518, Note_on_c, 0, 63, 99
1, 106581, Note_off_c, 0, 63, 99
1, 106585, Note_on_c, 0, 64, 102
1, 106628, Note_off_c, 0, 64, 102
1, 106642, Note_on_c, 0, 65, 110
1, 106692, Note_off_c, 0, 65, 110
1, 106722, Note_on_c, 0, 65, 108
1, 106789, Note_off_c, 0, 65, 108
1, 107106, Note_on_c, 0, 65, 107
1, 107195, Note_off_c, 0, 65, 107
1, 107223, Note_on_c, 0, 64, 98
1, 107270, Note_off_c, 0, 64, 98
1, 107286, Note_on_c, 0, 65, 109
1, 107378, Note_off_c, 0, 65, 109
1, 107393, Note_on_c, 0, 67, 107
1, 107463, Note_off_c, 0, 67, 107
1, 107664, Note_on_c, 0, 65, 102
1, 107917, Note_off_c, 0, 65, 102
1, 107937, Note_on_c, 0, 62, 96
1, 108022, Note_off_c, 0, 62, 96
1, 108333, Note_on_c, 0, 63, 99
1, 108398, Note_off_c, 0, 63, 99
1, 108414, Note_on_c, 0, 62, 100
1, 108493, Note_off_c, 0, 62, 100
1, 108507, Note_on_c, 0, 62, 100
1, 108569, Note_off_c, 0, 62, 100
1, 108591, Note_on_c, 0, 60, 98
1, 108655, Note_off_c, 0, 60, 98
1, 108696, Note_on_c, 0, 60, 91
1, 108758, Note_off_c, 0, 60, 91
1, 108769, Note_on_c, 0, 58, 100
1, 108943, Note_off_c, 0, 58, 100
1, 108964, Note_on_c, 0, 57, 105
1, 109080, Note_off_c, 0, 57, 105
1, 109090, Note_on_c, 0, 56, 100
1, 109149, Note_off_c, 0, 56, 100
1, 110048, Note_on_c, 0, 58, 94
1, 110099, Note_off_c, 0, 58, 94
1, 110108, Note_on_c, 0, 60, 99
1, 110219, Note_off_c, 0, 60, 99
1, 110244, Note_on_c, 0, 57, 83
1, 110290, Note_off_c, 0, 57, 83
1, 110303, Note_on_c, 0, 58, 104
1, 110462, Note_off_c, 0, 58, 104
1, 110512, Note_on_c, 0, 60, 100
1, 110581, Note_off_c, 0, 60, 100
1, 110597, Note_on_c, 0, 57, 103
1, 110650, Note_off_c, 0, 57, 103
1, 110662, Note_on_c, 0, 58, 100
1, 110823, Note_off_c, 0, 58, 100
1, 110849, Note_on_c, 0, 60, 104
1, 110967, Note_off_c, 0, 60, 104
1, 110978, Note_on_c, 0, 58, 104
1, 111086, Note_off_c, 0, 58, 104
1, 111366, Note_on_c, 0, 61, 102
1, 111414, Note_off_c, 0, 61, 102
1, 111426, Note_on_c, 0, 62, 98
1, 111552, Note_off_c, 0, 62, 98
1, 111554, Note_on_c, 0, 65, 90
1, 111606, Note_off_c, 0, 65, 90
1, 111609, Note_on_c, 0, 67, 106
1, 111717, Note_off_c, 0, 67, 106
1, 111803, Note_on_c, 0, 65, 100
1, 111972, Note_off_c, 0, 65, 100
1, 111989, Note_on_c, 0, 67, 109
1, 112112, Note_off_c, 0, 67, 109
1, 112118, Note_on_c, 0, 65, 92
1, 112184, Note_off_c, 0, 65, 92
1, 112195, Note_on_c, 0, 68, 113
1, 112309, Note_off_c, 0, 68, 113
1, 112342, Note_on_c, 0, 67, 92
1, 112382, Note_off_c, 0, 67, 92
1, 112392, Note_on_c, 0, 67, 111
1, 112500, Note_off_c, 0, 67, 111
1, 112507, Note_on_c, 0, 65, 105
1, 112592, Note_off_c, 0, 65, 105
1, 112897, Note_on_c, 0, 74, 112
1, 112981, Note_off_c, 0, 74, 112
1, 112985, Note_on_c, 0, 72, 108
1, 113114, Note_off_c, 0, 72, 108
1, 113237, Note_on_c, 0, 70, 111
1, 113347, Note_off_c, 0, 70, 111
1, 113371, Note_on_c, 0, 69, 112
1, 113506, Note_off_c, 0, 69, 112
1, 113605, Note_on_c, 0, 67, 102
1, 113697, Note_off_c, 0, 67, 102
1, 113703, Note_on_c, 0, 65, 102
1, 113840, Note_off_c, 0, 65, 102
1, 113865, Note_on_c, 0, 67, 103
1, 113977, Note_off_c, 0, 67, 103
1, 113987, Note_on_c, 0, 63, 108
1, 114110, Note_off_c, 0, 63, 108
1, 114482, Note_on_c, 0, 61, 91
1, 114553, Note_off_c, 0, 61, 91
1, 114557, Note_on_c, 0, 62, 92
1, 114621, Note_off_c, 0, 62, 92
1, 114626, Note_on_c, 0, 63, 102
1, 114740, Note_off_c, 0, 63, 102
1, 114755, Note_on_c, 0, 65, 98
1, 114816, Note_off_c, 0, 65, 98
1, 114827, Note_on_c, 0, 66, 101
1, 114908, Note_off_c, 0, 66, 101
1, 114930, Note_on_c, 0, 70, 107
1, 115020, Note_off_c, 0, 70, 107
1, 115185, Note_on_c, 0, 70, 103
1, 115528, Note_off_c, 0, 70, 103
1, 115946, Note_on_c, 0, 61, 104
1, 115992, Note_off_c, 0, 61, 104
1, 115995, Note_on_c, 0, 62, 96
1, 116281, Note_off_c, 0, 62, 96
1, 116300, Note_on_c, 0, 65, 106
1, 116425, Note_off_c, 0, 65, 106
1, 116646, Note_on_c, 0, 62, 90
1, 116704, Note_off_c, 0, 62, 90
1, 116724, Note_on_c, 0, 63, 102
1, 116834, Note_off_c, 0, 63, 102
1, 116843, Note_on_c, 0, 67, 87
1, 116887, Note_off_c, 0, 67, 87
1, 116895, Note_on_c, 0, 70, 110
1, 117005, Note_off_c, 0, 70, 110
1, 117040, Note_on_c, 0, 74, 114
1, 117175, Note_off_c, 0, 74, 114
1, 117235, Note_on_c, 0, 72, 115
1, 117353, Note_off_c, 0, 72, 115
1, 117419, Note_on_c, 0, 70, 111
1, 117525, Note_off_c, 0, 70, 111
1, 117593, Note_on_c, 0, 69, 114
1, 117662, Note_off_c, 0, 69, 114
1, 117682, Note_on_c, 0, 68, 106
1, 117764, Note_off_c, 0, 68, 106
1, 117863, Note_on_c, 0, 67, 107
1, 117963, Note_off_c, 0, 67, 107
1, 117973, Note_on_c, 0, 65, 107
1, 118084, Note_off_c, 0, 65, 107
1, 118154, Note_on_c, 0, 64, 109
1, 118277, Note_off_c, 0, 64, 109
1, 118325, Note_on_c, 0, 66, 104
1, 118395, Note_off_c, 0, 66, 104
1, 118401, Note_on_c, 0, 68, 112
1, 118517, Note_off_c, 0, 68, 112
1, 118606, Note_on_c, 0, 66, 106
1, 118711, Note_off_c, 0, 66, 106
1, 118720, Note_on_c, 0, 64, 111
1, 118815, Note_off_c, 0, 64, 111
1, 118815, Note_on_c, 0, 58, 84
1, 118857, Note_off_c, 0, 58, 84
1, 119006, Note_on_c, 0, 63, 102
1, 119091, Note_off_c, 0, 63, 102
1, 119096, Note_on_c, 0, 65, 103
1, 119162, Note_off_c, 0, 65, 103
1, 119174, Note_on_c, 0, 67, 105
1, 119303, Note_off_c, 0, 67, 105
1, 119352, Note_on_c, 0, 65, 106
1, 119467, Note_off_c, 0, 65, 106
1, 119482, Note_on_c, 0, 63, 99
1, 119766, Note_off_c, 0, 63, 99
1, 120531, Note_on_c, 0, 72, 111
1, 120621, Note_off_c, 0, 72, 111
1, 120629, Note_on_c, 0, 70, 110
1, 120689, Note_off_c, 0, 70, 110
1, 120710, Note_on_c, 0, 69, 110
1, 120806, Note_off_c, 0, 69, 110
1, 120812, Note_on_c, 0, 67, 103
1, 120875, Note_off_c, 0, 67, 103
1, 120898, Note_on_c, 0, 65, 109
1, 120977, Note_off_c, 0, 65, 109
1, 120985, Note_on_c, 0, 64, 105
1, 121070, Note_off_c, 0, 64, 105
1, 121086, Note_on_c, 0, 62, 97
1, 121167, Note_off_c, 0, 62, 97
1, 121180, Note_on_c, 0, 60, 94
1, 121239, Note_off_c, 0, 60, 94
1, 121293, Note_on_c, 0, 59, 92
1, 121331, Note_off_c, 0, 59, 92
1, 121752, Note_on_c, 0, 68, 109
1, 121813, Note_off_c, 0, 68, 109
1, 121829, Note_on_c, 0, 67, 102
1, 121902, Note_off_c, 0, 67, 102
1, 121938, Note_on_c, 0, 65, 107
1, 121988, Note_off_c, 0, 65, 107
1, 122021, Note_on_c, 0, 63, 105
1, 122150, Note_off_c, 0, 63, 105
1, 122241, Note_on_c, 0, 63, 106
1, 122598, Note_off_c, 0, 63, 106
1, 122630, Note_on_c, 0, 63, 108
1, 123035, Note_off_c, 0, 63, 108
1, 123093, Note_on_c, 0, 62, 102
1, 123148, Note_off_c, 0, 62, 102
1, 123154, Note_on_c, 0, 63, 107
1, 123246, Note_off_c, 0, 63, 107
1, 123254, Note_on_c, 0, 62, 94
1, 123317, Note_off_c, 0, 62, 94
1, 123329, Note_on_c, 0, 63, 107
1, 123434, Note_off_c, 0, 63, 107
1, 123449, Note_on_c, 0, 62, 98
1, 123517, Note_off_c, 0, 62, 98
1, 123527, Note_on_c, 0, 63, 106
1, 123617, Note_off_c, 0, 63, 106
1, 123649, Note_on_c, 0, 63, 108
1, 123697, Note_off_c, 0, 63, 108
1, 123716, Note_on_c, 0, 62, 100
1, 123751, Note_off_c, 0, 62, 100
1, 123890, Note_on_c, 0, 63, 107
1, 123990, Note_off_c, 0, 63, 107
1, 125003, Note_on_c, 0, 63, 103
1, 125320, Note_off_c, 0, 63, 103
1, 125404, Note_on_c, 0, 62, 101
1, 125501, Note_off_c, 0, 62, 101
1, 125512, Note_on_c, 0, 63, 96
1, 125551, Note_off_c, 0, 63, 96
1, 125560, Note_on_c, 0, 65, 100
1, 125661, Note_off_c, 0, 65, 100
1, 125689, Note_on_c, 0, 60, 105
1, 125766, Note_off_c, 0, 60, 105
1, 125881, Note_on_c, 0, 58, 103
1, 126127, Note_off_c, 0, 58, 103
1, 126168, Note_on_c, 0, 58, 101
1, 126258, Note_off_c, 0, 58, 101
1, 126622, Note_on_c, 0, 63, 103
1, 126836, Note_off_c, 0, 63, 103
1, 126903, Note_on_c, 0, 62, 96
1, 126992, Note_off_c, 0, 62, 96
1, 127014, Note_on_c, 0, 64, 108
1, 127078, Note_off_c, 0, 64, 108
1, 127094, Note_on_c, 0, 65, 104
1, 127162, Note_off_c, 0, 65, 104
1, 127265, Note_on_c, 0, 60, 93
1, 127584, Note_off_c, 0, 60, 93
1, 128157, Note_on_c, 0, 68, 103
1, 128285, Note_off_c, 0, 68, 103
1, 128306, Note_on_c, 0, 61, 95
1, 128348, Note_off_c, 0, 61, 95
1, 128465, Note_on_c, 0, 67, 106
1, 128533, Note_off_c, 0, 67, 106
1, 128543, Note_on_c, 0, 66, 102
1, 128601, Note_off_c, 0, 66, 102
1, 128618, Note_on_c, 0, 65, 107
1, 128713, Note_off_c, 0, 65, 107
1, 128728, Note_on_c, 0, 64, 110
1, 128781, Note_off_c, 0, 64, 110
1, 128793, Note_on_c, 0, 63, 108
1, 128877, Note_off_c, 0, 63, 108
1, 128887, Note_on_c, 0, 62, 103
1, 128954, Note_off_c, 0, 62, 103
1, 128972, Note_on_c, 0, 61, 99
1, 129042, Note_off_c, 0, 61, 99
1, 129169, Note_on_c, 0, 60, 101
1, 129242, Note_off_c, 0, 60, 101
1, 129268, Note_on_c, 0, 57, 107
1, 129313, Note_off_c, 0, 57, 107
1, 129330, Note_on_c, 0, 58, 105
1, 129396, Note_off_c, 0, 58, 105
1, 129412, Note_on_c, 0, 62, 94
1, 129458, Note_off_c, 0, 62, 94
1, 129469, Note_on_c, 0, 65, 102
1, 129522, Note_off_c, 0, 65, 102
1, 129563, Note_on_c, 0, 69, 112
1, 129664, Note_off_c, 0, 69, 112
1, 129679, Note_on_c, 0, 67, 111
1, 129748, Note_off_c, 0, 67, 111
1, 129833, Note_on_c, 0, 67, 112
1, 129948, Note_off_c, 0, 67, 112
1, 129984, Note_on_c, 0, 65, 103
1, 131422, Note_off_c, 0, 65, 103
1, 131907, Note_on_c, 0, 67, 108
1, 131971, Note_off_c, 0, 67, 108
1, 132000, Note_on_c, 0, 69, 113
1, 132087, Note_off_c, 0, 69, 113
1, 132113, Note_on_c, 0, 70, 117
1, 132200, Note_off_c, 0, 70, 117
1, 132280, Note_on_c, 0, 72, 118
1, 132381, Note_off_c, 0, 72, 118
1, 132411, Note_on_c, 0, 74, 122
1, 132513, Note_off_c, 0, 74, 122
1, 132546, Note_on_c, 0, 72, 114
1, 132628, Note_off_c, 0, 72, 114
1, 132649, Note_on_c, 0, 70, 112
1, 132727, Note_off_c, 0, 70, 112
1, 132780, Note_on_c, 0, 69, 115
1, 132869, Note_off_c, 0, 69, 115
1, 132888, Note_on_c, 0, 70, 115
1, 132947, Note_off_c, 0, 70, 115
1, 132988, Note_on_c, 0, 67, 105
1, 133066, Note_off_c, 0, 67, 105
1, 133075, Note_on_c, 0, 69, 111
1, 133130, Note_off_c, 0, 69, 111
1, 133153, Note_on_c, 0, 65, 102
1, 133222, Note_off_c, 0, 65, 102
1, 134045, Note_on_c, 0, 70, 118
1, 134103, Note_off_c, 0, 70, 118
1, 134217, Note_on_c, 0, 70, 110
1, 134269, Note_off_c, 0, 70, 110
1, 134281, Note_on_c, 0, 70, 115
1, 134331, Note_off_c, 0, 70, 115
1, 134346, Note_on_c, 0, 70, 119
1, 134399, Note_off_c, 0, 70, 119
1, 134425, Note_on_c, 0, 70, 115
1, 134946, Note_off_c, 0, 70, 115
1, 135055, Note_on_c, 0, 69, 116
1, 135128, Note_off_c, 0, 69, 116
1, 135151, Note_on_c, 0, 67, 9
1, 135201, Note_off_c, 0, 67, 9
1, 135237, Note_on_c, 0, 65, 104
1, 135302, Note_off_c, 0, 65, 104
1, 135331, Note_on_c, 0, 64, 109
1, 135403, Note_off_c, 0, 64, 109
1, 135424, Note_on_c, 0, 62, 102
1, 135497, Note_off_c, 0, 62, 102
1, 135530, Note_on_c, 0, 60, 97
1, 135589, Note_off_c, 0, 60, 97
1, 135612, Note_on_c, 0, 58, 105
1, 135698, Note_off_c, 0, 58, 105
1, 135716, Note_on_c, 0, 57, 97
1, 135748, Note_off_c, 0, 57, 97
1, 135766, Note_on_c, 0, 56, 104
1, 135857, Note_off_c, 0, 56, 104
1, 135920, Note_on_c, 0, 61, 94
1, 135956, Note_off_c, 0, 61, 94
1, 135962, Note_on_c, 0, 63, 103
1, 136057, Note_off_c, 0, 63, 103
1, 136066, Note_on_c, 0, 67, 108
1, 136124, Note_off_c, 0, 67, 108
1, 136142, Note_on_c, 0, 65, 109
1, 136221, Note_off_c, 0, 65, 109
1, 136252, Note_on_c, 0, 63, 108
1, 136302, Note_off_c, 0, 63, 108
1, 136346, Note_on_c, 0, 62, 105
1, 136428, Note_off_c, 0, 62, 105
1, 136949, Note_on_c, 0, 55, 92
1, 136999, Note_off_c, 0, 55, 92
1, 137022, Note_on_c, 0, 58, 103
1, 137060, Note_off_c, 0, 58, 103
1, 137092, Note_on_c, 0, 61, 108
1, 137164, Note_off_c, 0, 61, 108
1, 137190, Note_on_c, 0, 63, 108
1, 137260, Note_off_c, 0, 63, 108
1, 137275, Note_on_c, 0, 60, 98
1, 137351, Note_off_c, 0, 60, 98
1, 137381, Note_on_c, 0, 61, 102
1, 137423, Note_off_c, 0, 61, 102
1, 137450, Note_on_c, 0, 58, 110
1, 137529, Note_off_c, 0, 58, 110
1, 138135, Note_on_c, 0, 64, 104
1, 138385, Note_off_c, 0, 64, 104
1, 138398, Note_on_c, 0, 61, 108
1, 138476, Note_off_c, 0, 61, 108
1, 138509, Note_on_c, 0, 64, 117
1, 138602, Note_off_c, 0, 64, 117
1, 138766, Note_on_c, 0, 64, 118
1, 138856, Note_off_c, 0, 64, 118
1, 138869, Note_on_c, 0, 64, 113
1, 138940, Note_off_c, 0, 64, 113
1, 138963, Note_on_c, 0, 61, 109
1, 139038, Note_off_c, 0, 61, 109
1, 139050, Note_on_c, 0, 64, 117
1, 139119, Note_off_c, 0, 64, 117
1, 139149, Note_on_c, 0, 61, 95
1, 139219, Note_off_c, 0, 61, 95
1, 139324, Note_on_c, 0, 64, 115
1, 139399, Note_off_c, 0, 64, 115
1, 139527, Note_on_c, 0, 61, 102
1, 139579, Note_off_c, 0, 61, 102
1, 139712, Note_on_c, 0, 64, 116
1, 139801, Note_off_c, 0, 64, 116
1, 139891, Note_on_c, 0, 61, 101
1, 139998, Note_off_c, 0, 61, 101
1, 140010, Note_on_c, 0, 64, 118
1, 140105, Note_off_c, 0, 64, 118
1, 140271, Note_on_c, 0, 64, 115
1, 140352, Note_off_c, 0, 64, 115
1, 140369, Note_on_c, 0, 64, 114
1, 140434, Note_off_c, 0, 64, 114
1, 140454, Note_on_c, 0, 61, 103
1, 140527, Note_off_c, 0, 61, 103
1, 140548, Note_on_c, 0, 64, 115
1, 140646, Note_off_c, 0, 64, 115
1, 140815, Note_on_c, 0, 64, 114
1, 140904, Note_off_c, 0, 64, 114
1, 141011, Note_on_c, 0, 64, 105
1, 141344, Note_off_c, 0, 64, 105
1, 141353, Note_on_c, 0, 61, 105
1, 141455, Note_off_c, 0, 61, 105
1, 141486, Note_on_c, 0, 64, 113
1, 141683, Note_off_c, 0, 64, 113
1, 141720, Note_on_c, 0, 61, 95
1, 141772, Note_off_c, 0, 61, 95
1, 141777, Note_on_c, 0, 64, 115
1, 141964, Note_off_c, 0, 64, 115
1, 141979, Note_on_c, 0, 61, 104
1, 142054, Note_off_c, 0, 61, 104
1, 142648, Note_on_c, 0, 61, 104
1, 142714, Note_off_c, 0, 61, 104
1, 142721, Note_on_c, 0, 62, 100
1, 142801, Note_off_c, 0, 62, 100
1, 142830, Note_on_c, 0, 65, 98
1, 142868, Note_off_c, 0, 65, 98
1, 142885, Note_on_c, 0, 67, 114
1, 142969, Note_off_c, 0, 67, 114
1, 142988, Note_on_c, 0, 70, 123
1, 143155, Note_off_c, 0, 70, 123
1, 143207, Note_on_c, 0, 67, 102
1, 143261, Note_off_c, 0, 67, 102
1, 143266, Note_on_c, 0, 70, 122
1, 143431, Note_off_c, 0, 70, 122
1, 143469, Note_on_c, 0, 67, 107
1, 143536, Note_off_c, 0, 67, 107
1, 143549, Note_on_c, 0, 70, 122
1, 143727, Note_off_c, 0, 70, 122
1, 143780, Note_on_c, 0, 67, 96
1, 143812, Note_off_c, 0, 67, 96
1, 143842, Note_on_c, 0, 70, 123
1, 144001, Note_off_c, 0, 70, 123
1, 144039, Note_on_c, 0, 67, 95
1, 144108, Note_off_c, 0, 67, 95
1, 144116, Note_on_c, 0, 70, 123
1, 144301, Note_off_c, 0, 70, 123
1, 144336, Note_on_c, 0, 67, 100
1, 144386, Note_off_c, 0, 67, 100
1, 144402, Note_on_c, 0, 70, 120
1, 144554, Note_off_c, 0, 70, 120
1, 144586, Note_on_c, 0, 67, 101
1, 144665, Note_off_c, 0, 67, 101
1, 144680, Note_on_c, 0, 70, 120
1, 144879, Note_off_c, 0, 70, 120
1, 144951, Note_on_c, 0, 67, 111
1, 145110, Note_off_c, 0, 67, 111
1, 145113, Note_on_c, 0, 63, 93
1, 145161, Note_off_c, 0, 63, 93
1, 145748, Note_on_c, 0, 73, 116
1, 145852, Note_off_c, 0, 73, 116
1, 145864, Note_on_c, 0, 71, 90
1, 145902, Note_off_c, 0, 71, 90
1, 145911, Note_on_c, 0, 72, 115
1, 146009, Note_off_c, 0, 72, 115
1, 146024, Note_on_c, 0, 70, 113
1, 146108, Note_off_c, 0, 70, 113
1, 146993, Note_on_c, 0, 68, 110
1, 147126, Note_off_c, 0, 68, 110
1, 147181, Note_on_c, 0, 65, 100
1, 147216, Note_off_c, 0, 65, 100
1, 147230, Note_on_c, 0, 67, 113
1, 147444, Note_off_c, 0, 67, 113
1, 147536, Note_on_c, 0, 66, 105
1, 147709, Note_off_c, 0, 66, 105
1, 147734, Note_on_c, 0, 62, 97
1, 147772, Note_off_c, 0, 62, 97
1, 147783, Note_on_c, 0, 65, 110
1, 148041, Note_off_c, 0, 65, 110
1, 148090, Note_on_c, 0, 64, 109
1, 148271, Note_off_c, 0, 64, 109
1, 148300, Note_on_c, 0, 61, 90
1, 148345, Note_off_c, 0, 61, 90
1, 148369, Note_on_c, 0, 63, 101
1, 148573, Note_off_c, 0, 63, 101
1, 148657, Note_on_c, 0, 62, 110
1, 148818, Note_off_c, 0, 62, 110
1, 148838, Note_on_c, 0, 60, 96
1, 148884, Note_off_c, 0, 60, 96
1, 148910, Note_on_c, 0, 62, 104
1, 148997, Note_off_c, 0, 62, 104
1, 149232, Note_on_c, 0, 60, 104
1, 149416, Note_off_c, 0, 60, 104
1, 149505, Note_on_c, 0, 59, 102
1, 149601, Note_off_c, 0, 59, 102
1, 149878, Note_on_c, 0, 58, 105
1, 149956, Note_off_c, 0, 58, 105
1, 149992, Note_on_c, 0, 61, 103
1, 150047, Note_off_c, 0, 61, 103
1, 150065, Note_on_c, 0, 62, 104
1, 150144, Note_off_c, 0, 62, 104
1, 150172, Note_on_c, 0, 64, 112
1, 150237, Note_off_c, 0, 64, 112
1, 150242, Note_on_c, 0, 65, 107
1, 150278, Note_off_c, 0, 65, 107
1, 150426, Note_on_c, 0, 65, 110
1, 150590, Note_off_c, 0, 65, 110
1, 150619, Note_on_c, 0, 67, 103
1, 150879, Note_off_c, 0, 67, 103
1, 150946, Note_on_c, 0, 65, 112
1, 151021, Note_off_c, 0, 65, 112
1, 151315, Note_on_c, 0, 64, 105
1, 151388, Note_off_c, 0, 64, 105
1, 151396, Note_on_c, 0, 63, 110
1, 151500, Note_off_c, 0, 63, 110
1, 151583, Note_on_c, 0, 58, 101
1, 151689, Note_off_c, 0, 58, 101
1, 151697, Note_on_c, 0, 61, 100
1, 151743, Note_off_c, 0, 61, 100
1, 151747, Note_on_c, 0, 62, 106
1, 151873, Note_off_c, 0, 62, 106
1, 151880, Note_on_c, 0, 65, 101
1, 151930, Note_off_c, 0, 65, 101
1, 151933, Note_on_c, 0, 67, 108
1, 152022, Note_off_c, 0, 67, 108
1, 152152, Note_on_c, 0, 70, 127
1, 152380, Note_off_c, 0, 70, 127
1, 152382, Note_on_c, 0, 67, 118
1, 152431, Note_off_c, 0, 67, 118
1, 152438, Note_on_c, 0, 65, 103
1, 152461, Note_off_c, 0, 65, 103
1, 152464, Note_on_c, 0, 62, 100
1, 152494, Note_off_c, 0, 62, 100
1, 152507, Note_on_c, 0, 58, 85
1, 152734, Note_off_c, 0, 58, 85
1, 152743, Note_on_c, 0, 53, 96
1, 152798, Note_off_c, 0, 53, 96
1, 152798, End_track
0, 0, End_of_file
