0, 0, Header, 1, 1, 9240
1, 0, Start_track
1, 0, Title_t, "Melody"
1, 0, Tempo, 937500
1, 0, Key_signature, -2, "major"
1, 0, Time_signature, 4, 2, 24, 8
1, 82793, Note_on_c, 0, 60, 110
1, 83751, Note_off_c, 0, 60, 110
1, 83994, Note_on_c, 0, 62, 100
1, 85109, Note_off_c, 0, 62, 100
1, 85395, Note_on_c, 0, 65, 92
1, 86195, Note_off_c, 0, 65, 92
1, 86280, Note_on_c, 0, 67, 120
1, 87538, Note_off_c, 0, 67, 120
1, 88811, Note_on_c, 0, 70, 121
1, 91099, Note_off_c, 0, 70, 121
1, 91671, Note_on_c, 0, 70, 125
1, 93101, Note_off_c, 0, 70, 125
1, 93673, Note_on_c, 0, 70, 124
1, 95274, Note_off_c, 0, 70, 124
1, 95731, Note_on_c, 0, 70, 121
1, 97218, Note_off_c, 0, 70, 121
1, 97332, Note_on_c, 0, 68, 108
1, 99105, Note_off_c, 0, 68, 108
1, 99319, Note_on_c, 0, 65, 107
1, 101092, Note_off_c, 0, 65, 107
1, 101621, Note_on_c, 0, 63, 101
1, 103337, Note_off_c, 0, 63, 101
1, 103680, Note_on_c, 0, 58, 90
1, 105796, Note_off_c, 0, 58, 90
1, 105910, Note_on_c, 0, 61, 97
1, 107154, Note_off_c, 0, 61, 97
1, 107311, Note_on_c, 0, 62, 83
1, 109299, Note_off_c, 0, 62, 83
1, 109484, Note_on_c, 0, 65, 107
1, 114461, Note_off_c, 0, 65, 107
1, 114818, Note_on_c, 0, 65, 105
1, 119266, Note_off_c, 0, 65, 105
1, 119448, Note_on_c, 0, 64, 106
1, 120896, Note_off_c, 0, 64, 106
1, 121056, Note_on_c, 0, 63, 102
1, 122745, Note_off_c, 0, 63, 102
1, 122986, Note_on_c, 0, 62, 106
1, 124997, Note_off_c, 0, 62, 106
1, 125241, Note_on_c, 0, 61, 104
1, 127114, Note_off_c, 0, 61, 104
1, 129960, Note_on_c, 0, 51, 95
1, 131991, Note_off_c, 0, 51, 95
1, 134096, Note_on_c, 0, 60, 96
1, 143509, Note_off_c, 0, 60, 96
1, 163386, Note_on_c, 0, 60, 109
1, 165245, Note_off_c, 0, 60, 109
1, 165513, Note_on_c, 0, 58, 106
1, 166890, Note_off_c, 0, 58, 106
1, 167151, Note_on_c, 0, 57, 90
1, 169775, Note_off_c, 0, 57, 90
1, 169996, Note_on_c, 0, 58, 73
1, 170619, Note_off_c, 0, 58, 73
1, 171373, Note_on_c, 0, 62, 93
1, 173857, Note_off_c, 0, 62, 93
1, 173951, Note_on_c, 0, 65, 109
1, 179901, Note_off_c, 0, 65, 109
1, 181066, Note_on_c, 0, 63, 104
1, 183840, Note_off_c, 0, 63, 104
1, 190780, Note_on_c, 0, 61, 110
1, 192831, Note_off_c, 0, 61, 110
1, 195083, Note_on_c, 0, 69, 118
1, 197034, Note_off_c, 0, 69, 118
1, 197235, Note_on_c, 0, 67, 115
1, 199065, Note_off_c, 0, 67, 115
1, 199165, Note_on_c, 0, 65, 108
1, 201317, Note_off_c, 0, 65, 108
1, 201397, Note_on_c, 0, 64, 100
1, 202945, Note_off_c, 0, 64, 100
1, 202985, Note_on_c, 0, 62, 102
1, 205298, Note_off_c, 0, 62, 102
1, 205447, Note_on_c, 0, 60, 107
1, 206915, Note_off_c, 0, 60, 107
1, 207187, Note_on_c, 0, 58, 98
1, 209862, Note_off_c, 0, 58, 98
1, 210083, Note_on_c, 0, 56, 105
1, 210937, Note_off_c, 0, 56, 105
1, 211470, Note_on_c, 0, 56, 103
1, 212515, Note_off_c, 0, 56, 103
1, 213007, Note_on_c, 0, 60, 97
1, 214052, Note_off_c, 0, 60, 97
1, 214263, Note_on_c, 0, 63, 93
1, 215650, Note_off_c, 0, 63, 93
1, 215690, Note_on_c, 0, 66, 105
1, 217098, Note_off_c, 0, 66, 105
1, 217218, Note_on_c, 0, 67, 106
1, 219038, Note_off_c, 0, 67, 106
1, 219540, Note_on_c, 0, 60, 85
1, 220143, Note_off_c, 0, 60, 85
1, 220979, Note_on_c, 0, 66, 103
1, 222395, Note_off_c, 0, 66, 103
1, 222545, Note_on_c, 0, 67, 105
1, 224111, Note_off_c, 0, 67, 105
1, 224296, Note_on_c, 0, 66, 90
1, 227786, Note_off_c, 0, 66, 90
1, 228338, Note_on_c, 0, 70, 97
1, 229062, Note_off_c, 0, 70, 97
1, 229333, Note_on_c, 0, 56, 98
1, 231514, Note_off_c, 0, 56, 98
1, 233120, Note_on_c, 0, 65, 105
1, 238726, Note_off_c, 0, 65, 105
1, 238811, Note_on_c, 0, 60, 109
1, 241643, Note_off_c, 0, 60, 109
1, 243416, Note_on_c, 0, 63, 102
1, 246362, Note_off_c, 0, 63, 102
1, 246705, Note_on_c, 0, 61, 94
1, 250881, Note_off_c, 0, 61, 94
1, 268338, Note_on_c, 0, 61, 113
1, 269646, Note_off_c, 0, 61, 113
1, 269674, Note_on_c, 0, 60, 98
1, 270632, Note_off_c, 0, 60, 98
1, 270660, Note_on_c, 0, 61, 94
1, 272719, Note_off_c, 0, 61, 94
1, 273005, Note_on_c, 0, 58, 97
1, 274707, Note_off_c, 0, 58, 97
1, 274764, Note_on_c, 0, 61, 114
1, 275550, Note_off_c, 0, 61, 114
1, 275735, Note_on_c, 0, 60, 105
1, 276864, Note_off_c, 0, 60, 105
1, 277164, Note_on_c, 0, 61, 89
1, 278951, Note_off_c, 0, 61, 89
1, 287318, Note_on_c, 0, 64, 103
1, 291623, Note_off_c, 0, 64, 103
1, 291780, Note_on_c, 0, 61, 95
1, 292795, Note_off_c, 0, 61, 95
1, 293171, Note_on_c, 0, 64, 102
1, 296389, Note_off_c, 0, 64, 102
1, 302348, Note_on_c, 0, 67, 114
1, 304779, Note_off_c, 0, 67, 114
1, 305079, Note_on_c, 0, 66, 104
1, 306376, Note_off_c, 0, 66, 104
1, 306494, Note_on_c, 0, 65, 108
1, 309400, Note_off_c, 0, 65, 108
1, 316591, Note_on_c, 0, 62, 108
1, 319709, Note_off_c, 0, 62, 108
1, 325873, Note_on_c, 0, 63, 109
1, 328333, Note_off_c, 0, 63, 109
1, 329977, Note_on_c, 0, 58, 110
1, 332508, Note_off_c, 0, 58, 110
1, 332693, Note_on_c, 0, 62, 101
1, 339701, Note_off_c, 0, 62, 101
1, 342713, Note_on_c, 0, 57, 108
1, 344010, Note_off_c, 0, 57, 108
1, 344162, Note_on_c, 0, 60, 109
1, 346679, Note_off_c, 0, 60, 109
1, 346736, Note_on_c, 0, 57, 107
1, 348009, Note_off_c, 0, 57, 107
1, 348212, Note_on_c, 0, 58, 107
1, 349438, Note_off_c, 0, 58, 107
1, 349866, Note_on_c, 0, 62, 92
1, 350910, Note_off_c, 0, 62, 92
1, 350988, Note_on_c, 0, 65, 105
1, 352876, Note_off_c, 0, 65, 105
1, 353383, Note_on_c, 0, 69, 113
1, 355499, Note_off_c, 0, 69, 113
1, 355541, Note_on_c, 0, 67, 121
1, 357715, Note_off_c, 0, 67, 121
1, 357761, Note_on_c, 0, 67, 104
1, 358394, Note_off_c, 0, 67, 104
1, 358544, Note_on_c, 0, 65, 106
1, 359962, Note_off_c, 0, 65, 106
1, 360073, Note_on_c, 0, 64, 100
1, 361646, Note_off_c, 0, 64, 100
1, 361774, Note_on_c, 0, 62, 101
1, 365163, Note_off_c, 0, 62, 101
1, 366192, Note_on_c, 0, 60, 107
1, 369825, Note_off_c, 0, 60, 107
1, 369867, Note_on_c, 0, 59, 108
1, 372527, Note_off_c, 0, 59, 108
1, 374400, Note_on_c, 0, 68, 124
1, 375959, Note_off_c, 0, 68, 124
1, 376001, Note_on_c, 0, 67, 119
1, 378904, Note_off_c, 0, 67, 119
1, 379161, Note_on_c, 0, 62, 83
1, 380176, Note_off_c, 0, 62, 83
1, 380562, Note_on_c, 0, 65, 110
1, 382979, Note_off_c, 0, 65, 110
1, 383007, Note_on_c, 0, 63, 102
1, 384709, Note_off_c, 0, 63, 102
1, 384794, Note_on_c, 0, 58, 103
1, 387254, Note_off_c, 0, 58, 103
1, 387518, Note_on_c, 0, 55, 78
1, 389016, Note_off_c, 0, 55, 78
1, 389084, Note_on_c, 0, 60, 94
1, 389770, Note_off_c, 0, 60, 94
1, 389798, Note_on_c, 0, 62, 87
1, 392186, Note_off_c, 0, 62, 87
1, 392386, Note_on_c, 0, 60, 95
1, 404315, Note_off_c, 0, 60, 95
1, 425209, Note_on_c, 0, 62, 100
1, 427059, Note_off_c, 0, 62, 100
1, 427119, Note_on_c, 0, 63, 102
1, 429492, Note_off_c, 0, 63, 102
1, 431141, Note_on_c, 0, 58, 108
1, 433403, Note_off_c, 0, 58, 108
1, 433654, Note_on_c, 0, 62, 110
1, 435584, Note_off_c, 0, 62, 110
1, 435624, Note_on_c, 0, 60, 109
1, 437595, Note_off_c, 0, 60, 109
1, 437947, Note_on_c, 0, 58, 104
1, 439586, Note_off_c, 0, 58, 104
1, 439686, Note_on_c, 0, 57, 103
1, 440993, Note_off_c, 0, 57, 103
1, 441465, Note_on_c, 0, 60, 100
1, 442259, Note_off_c, 0, 60, 100
1, 442379, Note_on_c, 0, 63, 114
1, 443686, Note_off_c, 0, 63, 114
1, 444852, Note_on_c, 0, 68, 112
1, 449015, Note_off_c, 0, 68, 112
1, 449075, Note_on_c, 0, 66, 111
1, 452152, Note_off_c, 0, 66, 111
1, 452333, Note_on_c, 0, 60, 87
1, 453720, Note_off_c, 0, 60, 87
1, 453722, Note_on_c, 0, 64, 98
1, 455066, Note_off_c, 0, 64, 98
1, 455180, Note_on_c, 0, 65, 108
1, 464734, Note_off_c, 0, 65, 108
1, 465273, Note_on_c, 0, 58, 106
1, 467063, Note_off_c, 0, 58, 106
1, 467279, Note_on_c, 0, 58, 104
1, 469310, Note_off_c, 0, 58, 104
1, 469567, Note_on_c, 0, 58, 102
1, 472184, Note_off_c, 0, 58, 102
1, 479653, Note_on_c, 0, 63, 99
1, 480980, Note_off_c, 0, 63, 99
1, 482086, Note_on_c, 0, 55, 99
1, 482790, Note_off_c, 0, 55, 99
1, 483624, Note_on_c, 0, 58, 100
1, 485152, Note_off_c, 0, 58, 100
1, 485353, Note_on_c, 0, 62, 108
1, 487102, Note_off_c, 0, 62, 108
1, 487293, Note_on_c, 0, 65, 104
1, 488922, Note_off_c, 0, 65, 104
1, 489495, Note_on_c, 0, 60, 110
1, 490782, Note_off_c, 0, 60, 110
1, 491385, Note_on_c, 0, 58, 93
1, 492320, Note_off_c, 0, 58, 93
1, 492772, Note_on_c, 0, 60, 100
1, 499228, Note_off_c, 0, 60, 100
1, 529137, Note_on_c, 0, 65, 110
1, 537182, Note_off_c, 0, 65, 110
1, 538268, Note_on_c, 0, 70, 120
1, 541647, Note_off_c, 0, 70, 120
1, 548123, Note_on_c, 0, 69, 117
1, 550235, Note_off_c, 0, 69, 117
1, 550295, Note_on_c, 0, 67, 122
1, 551984, Note_off_c, 0, 67, 122
1, 552104, Note_on_c, 0, 65, 109
1, 554135, Note_off_c, 0, 65, 109
1, 554255, Note_on_c, 0, 63, 108
1, 555823, Note_off_c, 0, 63, 108
1, 555943, Note_on_c, 0, 62, 105
1, 560629, Note_off_c, 0, 62, 105
1, 560689, Note_on_c, 0, 65, 115
1, 563585, Note_off_c, 0, 65, 115
1, 566159, Note_on_c, 0, 57, 110
1, 574687, Note_off_c, 0, 57, 110
1, 575672, Note_on_c, 0, 64, 111
1, 578809, Note_off_c, 0, 64, 111
1, 585821, Note_on_c, 0, 63, 111
1, 587580, Note_off_c, 0, 63, 111
1, 587622, Note_on_c, 0, 60, 113
1, 589681, Note_off_c, 0, 60, 113
1, 589824, Note_on_c, 0, 57, 105
1, 591611, Note_off_c, 0, 57, 105
1, 592221, Note_on_c, 0, 55, 106
1, 593694, Note_off_c, 0, 55, 106
1, 593749, Note_on_c, 0, 54, 98
1, 596109, Note_off_c, 0, 54, 98
1, 596544, Note_on_c, 0, 63, 115
1, 598060, Note_off_c, 0, 63, 115
1, 598243, Note_on_c, 0, 60, 110
1, 600666, Note_off_c, 0, 60, 110
1, 600836, Note_on_c, 0, 61, 100
1, 602213, Note_off_c, 0, 61, 100
1, 602434, Note_on_c, 0, 62, 104
1, 604606, Note_off_c, 0, 62, 104
1, 604927, Note_on_c, 0, 60, 107
1, 606355, Note_off_c, 0, 60, 107
1, 606656, Note_on_c, 0, 58, 107
1, 609562, Note_off_c, 0, 58, 107
1, 609925, Note_on_c, 0, 57, 95
1, 610897, Note_off_c, 0, 57, 95
1, 611040, Note_on_c, 0, 60, 104
1, 613775, Note_off_c, 0, 60, 104
1, 613985, Note_on_c, 0, 58, 106
1, 616368, Note_off_c, 0, 58, 106
1, 631092, Note_on_c, 0, 72, 125
1, 633394, Note_off_c, 0, 72, 125
1, 633501, Note_on_c, 0, 71, 124
1, 635188, Note_off_c, 0, 71, 124
1, 635309, Note_on_c, 0, 70, 115
1, 637554, Note_off_c, 0, 70, 115
1, 637711, Note_on_c, 0, 69, 118
1, 639270, Note_off_c, 0, 69, 118
1, 639797, Note_on_c, 0, 68, 116
1, 642713, Note_off_c, 0, 68, 116
1, 643946, Note_on_c, 0, 60, 108
1, 647278, Note_off_c, 0, 60, 108
1, 647489, Note_on_c, 0, 65, 102
1, 648826, Note_off_c, 0, 65, 102
1, 648936, Note_on_c, 0, 67, 98
1, 650424, Note_off_c, 0, 67, 98
1, 651924, Note_on_c, 0, 60, 97
1, 655085, Note_off_c, 0, 60, 97
1, 655957, Note_on_c, 0, 66, 92
1, 659833, Note_off_c, 0, 66, 92
1, 660037, Note_on_c, 0, 70, 99
1, 661394, Note_off_c, 0, 70, 99
1, 661645, Note_on_c, 0, 56, 82
1, 669590, Note_off_c, 0, 56, 82
1, 684104, Note_on_c, 0, 72, 116
1, 685205, Note_off_c, 0, 72, 116
1, 685348, Note_on_c, 0, 73, 110
1, 686878, Note_off_c, 0, 73, 110
1, 688751, Note_on_c, 0, 72, 124
1, 692412, Note_off_c, 0, 72, 124
1, 693356, Note_on_c, 0, 70, 99
1, 694414, Note_off_c, 0, 70, 99
1, 694471, Note_on_c, 0, 72, 120
1, 697446, Note_off_c, 0, 72, 120
1, 697546, Note_on_c, 0, 73, 108
1, 701036, Note_off_c, 0, 73, 108
1, 720360, Note_on_c, 0, 72, 126
1, 721075, Note_off_c, 0, 72, 126
1, 721189, Note_on_c, 0, 73, 115
1, 723406, Note_off_c, 0, 73, 115
1, 725279, Note_on_c, 0, 72, 127
1, 727910, Note_off_c, 0, 72, 127
1, 729411, Note_on_c, 0, 70, 119
1, 731384, Note_off_c, 0, 70, 119
1, 732885, Note_on_c, 0, 68, 116
1, 734401, Note_off_c, 0, 68, 116
1, 735223, Note_on_c, 0, 65, 109
1, 737143, Note_off_c, 0, 65, 109
1, 737253, Note_on_c, 0, 63, 104
1, 738701, Note_off_c, 0, 63, 104
1, 738841, Note_on_c, 0, 58, 103
1, 740510, Note_off_c, 0, 58, 103
1, 740833, Note_on_c, 0, 60, 109
1, 742320, Note_off_c, 0, 60, 109
1, 742399, Note_on_c, 0, 62, 107
1, 745094, Note_off_c, 0, 62, 107
1, 745337, Note_on_c, 0, 65, 112
1, 747931, Note_off_c, 0, 65, 112
1, 750013, Note_on_c, 0, 60, 110
1, 757636, Note_off_c, 0, 60, 110
1, 757804, Note_on_c, 0, 58, 95
1, 758950, Note_off_c, 0, 58, 95
1, 758990, Note_on_c, 0, 60, 109
1, 761122, Note_off_c, 0, 60, 109
1, 761745, Note_on_c, 0, 62, 110
1, 768422, Note_off_c, 0, 62, 110
1, 768582, Note_on_c, 0, 53, 104
1, 773992, Note_off_c, 0, 53, 104
1, 797810, Note_on_c, 0, 65, 109
1, 800470, Note_off_c, 0, 65, 109
1, 801886, Note_on_c, 0, 63, 107
1, 804217, Note_off_c, 0, 63, 107
1, 805132, Note_on_c, 0, 62, 106
1, 807906, Note_off_c, 0, 62, 106
1, 808764, Note_on_c, 0, 60, 108
1, 810323, Note_off_c, 0, 60, 108
1, 810423, Note_on_c, 0, 59, 109
1, 811696, Note_off_c, 0, 59, 109
1, 814458, Note_on_c, 0, 53, 106
1, 817213, Note_off_c, 0, 53, 106
1, 817414, Note_on_c, 0, 56, 106
1, 818741, Note_off_c, 0, 56, 106
1, 818922, Note_on_c, 0, 55, 109
1, 820893, Note_off_c, 0, 55, 109
1, 823393, Note_on_c, 0, 53, 110
1, 825996, Note_off_c, 0, 53, 110
1, 826339, Note_on_c, 0, 51, 97
1, 832847, Note_off_c, 0, 51, 97
1, 851355, Note_on_c, 0, 54, 92
1, 852299, Note_off_c, 0, 54, 92
1, 852384, Note_on_c, 0, 55, 95
1, 854229, Note_off_c, 0, 55, 95
1, 854661, Note_on_c, 0, 58, 91
1, 855747, Note_off_c, 0, 58, 91
1, 855787, Note_on_c, 0, 60, 112
1, 858281, Note_off_c, 0, 60, 112
1, 858561, Note_on_c, 0, 58, 101
1, 860150, Note_off_c, 0, 58, 101
1, 860583, Note_on_c, 0, 60, 105
1, 862001, Note_off_c, 0, 60, 105
1, 862111, Note_on_c, 0, 61, 99
1, 864142, Note_off_c, 0, 61, 99
1, 864956, Note_on_c, 0, 61, 100
1, 867812, Note_off_c, 0, 61, 100
1, 867892, Note_on_c, 0, 60, 99
1, 875434, Note_off_c, 0, 60, 99
1, 898967, Note_on_c, 0, 65, 108
1, 901923, Note_off_c, 0, 65, 108
1, 903451, Note_on_c, 0, 62, 103
1, 906669, Note_off_c, 0, 62, 103
1, 906850, Note_on_c, 0, 63, 79
1, 907694, Note_off_c, 0, 63, 79
1, 908337, Note_on_c, 0, 65, 104
1, 910549, Note_off_c, 0, 65, 104
1, 910860, Note_on_c, 0, 70, 115
1, 912549, Note_off_c, 0, 70, 115
1, 912770, Note_on_c, 0, 69, 123
1, 914982, Note_off_c, 0, 69, 123
1, 915092, Note_on_c, 0, 67, 119
1, 917073, Note_off_c, 0, 67, 119
1, 917223, Note_on_c, 0, 65, 107
1, 919656, Note_off_c, 0, 65, 107
1, 919887, Note_on_c, 0, 64, 106
1, 921516, Note_off_c, 0, 64, 106
1, 921646, Note_on_c, 0, 63, 104
1, 923084, Note_off_c, 0, 63, 104
1, 923526, Note_on_c, 0, 56, 74
1, 924229, Note_off_c, 0, 56, 74
1, 924419, Note_on_c, 0, 58, 99
1, 925885, Note_off_c, 0, 58, 99
1, 925927, Note_on_c, 0, 62, 108
1, 928702, Note_off_c, 0, 62, 108
1, 928862, Note_on_c, 0, 61, 110
1, 930169, Note_off_c, 0, 61, 110
1, 930470, Note_on_c, 0, 57, 111
1, 932954, Note_off_c, 0, 57, 111
1, 933124, Note_on_c, 0, 56, 101
1, 934169, Note_off_c, 0, 56, 101
1, 934329, Note_on_c, 0, 58, 85
1, 935244, Note_off_c, 0, 58, 85
1, 935435, Note_on_c, 0, 60, 110
1, 943279, Note_off_c, 0, 60, 110
1, 943359, Note_on_c, 0, 57, 91
1, 944746, Note_off_c, 0, 57, 91
1, 944906, Note_on_c, 0, 60, 111
1, 947540, Note_off_c, 0, 60, 111
1, 947902, Note_on_c, 0, 62, 106
1, 954398, Note_off_c, 0, 62, 106
1, 955584, Note_on_c, 0, 63, 100
1, 957937, Note_off_c, 0, 63, 100
1, 959646, Note_on_c, 0, 58, 99
1, 962120, Note_off_c, 0, 58, 99
1, 962200, Note_on_c, 0, 61, 101
1, 963165, Note_off_c, 0, 61, 101
1, 966021, Note_on_c, 0, 62, 96
1, 968796, Note_off_c, 0, 62, 96
1, 968876, Note_on_c, 0, 65, 108
1, 971169, Note_off_c, 0, 65, 108
1, 971169, End_track
0, 0, End_of_file
