0, 0, Header, 1, 1, 192
1, 0, Start_track
1, 0, Title_t, "Melody"
1, 0, Tempo, 214285
1, 0, Key_signature, -1, "major"
1, 0, Time_signature, 4, 2, 24, 8
1, 5152, Note_on_c, 0, 65, 99
1, 5199, Note_off_c, 0, 65, 99
1, 5220, Note_on_c, 0, 65, 99
1, 5274, Note_off_c, 0, 65, 99
1, 5416, Note_on_c, 0, 65, 104
1, 5682, Note_off_c, 0, 65, 104
1, 5711, Note_on_c, 0, 65, 106
1, 5972, Note_off_c, 0, 65, 106
1, 6003, Note_on_c, 0, 62, 100
1, 6090, Note_off_c, 0, 62, 100
1, 6111, Note_on_c, 0, 65, 90
1, 6173, Note_off_c, 0, 65, 90
1, 6185, Note_on_c, 0, 67, 114
1, 6289, Note_off_c, 0, 67, 114
1, 6312, Note_on_c, 0, 64, 99
1, 6418, Note_off_c, 0, 64, 99
1, 6442, Note_on_c, 0, 62, 87
1, 6535, Note_off_c, 0, 62, 87
1, 6628, Note_on_c, 0, 65, 107
1, 6984, Note_off_c, 0, 65, 107
1, 7032, Note_on_c, 0, 65, 100
1, 7385, Note_off_c, 0, 65, 100
1, 7539, Note_on_c, 0, 68, 114
1, 7632, Note_off_c, 0, 68, 114
1, 7642, Note_on_c, 0, 69, 112
1, 7819, Note_off_c, 0, 69, 112
1, 7833, Note_on_c, 0, 60, 92
1, 7962, Note_off_c, 0, 60, 92
1, 8020, Note_on_c, 0, 62, 98
1, 8111, Note_off_c, 0, 62, 98
1, 8270, Note_on_c, 0, 65, 108
1, 8451, Note_off_c, 0, 65, 108
1, 8577, Note_on_c, 0, 60, 94
1, 8904, Note_off_c, 0, 60, 94
1, 9426, Note_on_c, 0, 62, 103
1, 9539, Note_off_c, 0, 62, 103
1, 9615, Note_on_c, 0, 57, 96
1, 9693, Note_off_c, 0, 57, 96
1, 9724, Note_on_c, 0, 60, 92
1, 9789, Note_off_c, 0, 60, 92
1, 9821, Note_on_c, 0, 58, 97
1, 10077, Note_off_c, 0, 58, 97
1, 10162, Note_on_c, 0, 60, 94
1, 10222, Note_off_c, 0, 60, 94
1, 10238, Note_on_c, 0, 61, 100
1, 10384, Note_off_c, 0, 61, 100
1, 10396, Note_on_c, 0, 62, 107
1, 10498, Note_off_c, 0, 62, 107
1, 10622, Note_on_c, 0, 69, 112
1, 10868, Note_off_c, 0, 69, 112
1, 10938, Note_on_c, 0, 64, 98
1, 11299, Note_off_c, 0, 64, 98
1, 11586, Note_on_c, 0, 67, 108
1, 11657, Note_off_c, 0, 67, 108
1, 11675, Note_on_c, 0, 64, 103
1, 11786, Note_off_c, 0, 64, 103
1, 11791, Note_on_c, 0, 65, 107
1, 11882, Note_off_c, 0, 65, 107
1, 12002, Note_on_c, 0, 62, 106
1, 12055, Note_off_c, 0, 62, 106
1, 12069, Note_on_c, 0, 64, 103
1, 12191, Note_off_c, 0, 64, 103
1, 12211, Note_on_c, 0, 60, 101
1, 12278, Note_off_c, 0, 60, 101
1, 12367, Note_on_c, 0, 62, 103
1, 12469, Note_off_c, 0, 62, 103
1, 12542, Note_on_c, 0, 58, 93
1, 12622, Note_off_c, 0, 58, 93
1, 12645, Note_on_c, 0, 60, 101
1, 12747, Note_off_c, 0, 60, 101
1, 12812, Note_on_c, 0, 56, 100
1, 12870, Note_off_c, 0, 56, 100
1, 12895, Note_on_c, 0, 58, 101
1, 12982, Note_off_c, 0, 58, 101
1, 13113, Note_on_c, 0, 56, 103
1, 13169, Note_off_c, 0, 56, 103
1, 13198, Note_on_c, 0, 57, 100
1, 13349, Note_off_c, 0, 57, 100
1, 13411, Note_on_c, 0, 53, 88
1, 13469, Note_off_c, 0, 53, 88
1, 13492, Note_on_c, 0, 55, 100
1, 13605, Note_off_c, 0, 55, 100
1, 13725, Note_on_c, 0, 52, 92
1, 13770, Note_off_c, 0, 52, 92
1, 13800, Note_on_c, 0, 53, 95
1, 13946, Note_off_c, 0, 53, 95
1, 13958, Note_on_c, 0, 55, 98
1, 14062, Note_off_c, 0, 55, 98
1, 14081, Note_on_c, 0, 57, 95
1, 14166, Note_off_c, 0, 57, 95
1, 14262, Note_on_c, 0, 57, 95
1, 14305, Note_off_c, 0, 57, 95
1, 14349, Note_on_c, 0, 60, 97
1, 14487, Note_off_c, 0, 60, 97
1, 15402, Note_on_c, 0, 66, 107
1, 15471, Note_off_c, 0, 66, 107
1, 15486, Note_on_c, 0, 67, 102
1, 15549, Note_off_c, 0, 67, 102
1, 15587, Note_on_c, 0, 64, 103
1, 15711, Note_off_c, 0, 64, 103
1, 15793, Note_on_c, 0, 64, 102
1, 15873, Note_off_c, 0, 64, 102
1, 15873, Note_on_c, 0, 65, 103
1, 15960, Note_off_c, 0, 65, 103
1, 15980, Note_on_c, 0, 62, 110
1, 16080, Note_off_c, 0, 62, 110
1, 16109, Note_on_c, 0, 60, 85
1, 16160, Note_off_c, 0, 60, 85
1, 16192, Note_on_c, 0, 64, 103
1, 16277, Note_off_c, 0, 64, 103
1, 16300, Note_on_c, 0, 64, 107
1, 16347, Note_off_c, 0, 64, 107
1, 16378, Note_on_c, 0, 60, 99
1, 16462, Note_off_c, 0, 60, 99
1, 16505, Note_on_c, 0, 57, 88
1, 16560, Note_off_c, 0, 57, 88
1, 16596, Note_on_c, 0, 61, 111
1, 16633, Note_off_c, 0, 61, 111
1, 16644, Note_on_c, 0, 62, 106
1, 16745, Note_off_c, 0, 62, 106
1, 16765, Note_on_c, 0, 58, 93
1, 16876, Note_off_c, 0, 58, 93
1, 16985, Note_on_c, 0, 60, 99
1, 17145, Note_off_c, 0, 60, 99
1, 17166, Note_on_c, 0, 60, 95
1, 17312, Note_off_c, 0, 60, 95
1, 17357, Note_on_c, 0, 60, 99
1, 17623, Note_off_c, 0, 60, 99
1, 17666, Note_on_c, 0, 58, 90
1, 17730, Note_off_c, 0, 58, 90
1, 17753, Note_on_c, 0, 57, 84
1, 17857, Note_off_c, 0, 57, 84
1, 17862, Note_on_c, 0, 58, 84
1, 17904, Note_off_c, 0, 58, 84
1, 17919, Note_on_c, 0, 62, 106
1, 18023, Note_off_c, 0, 62, 106
1, 18043, Note_on_c, 0, 65, 101
1, 18465, Note_off_c, 0, 65, 101
1, 19083, Note_on_c, 0, 65, 104
1, 19148, Note_off_c, 0, 65, 104
1, 19265, Note_on_c, 0, 66, 106
1, 19334, Note_off_c, 0, 66, 106
1, 19361, Note_on_c, 0, 67, 108
1, 19432, Note_off_c, 0, 67, 108
1, 19461, Note_on_c, 0, 67, 100
1, 19603, Note_off_c, 0, 67, 100
1, 19641, Note_on_c, 0, 62, 104
1, 19725, Note_off_c, 0, 62, 104
1, 19750, Note_on_c, 0, 65, 109
1, 19857, Note_off_c, 0, 65, 109
1, 19884, Note_on_c, 0, 65, 111
1, 19962, Note_off_c, 0, 65, 111
1, 20075, Note_on_c, 0, 60, 101
1, 20129, Note_off_c, 0, 60, 101
1, 20158, Note_on_c, 0, 63, 105
1, 20258, Note_off_c, 0, 63, 105
1, 20290, Note_on_c, 0, 63, 110
1, 20359, Note_off_c, 0, 63, 110
1, 20441, Note_on_c, 0, 60, 91
1, 20494, Note_off_c, 0, 60, 91
1, 20533, Note_on_c, 0, 62, 107
1, 20644, Note_off_c, 0, 62, 107
1, 20665, Note_on_c, 0, 62, 108
1, 20754, Note_off_c, 0, 62, 108
1, 20807, Note_on_c, 0, 57, 99
1, 20858, Note_off_c, 0, 57, 99
1, 20887, Note_on_c, 0, 60, 102
1, 20974, Note_off_c, 0, 60, 102
1, 21006, Note_on_c, 0, 58, 98
1, 21106, Note_off_c, 0, 58, 98
1, 21124, Note_on_c, 0, 57, 93
1, 21189, Note_off_c, 0, 57, 93
1, 21216, Note_on_c, 0, 58, 83
1, 21280, Note_off_c, 0, 58, 83
1, 21298, Note_on_c, 0, 62, 109
1, 21378, Note_off_c, 0, 62, 109
1, 21407, Note_on_c, 0, 65, 110
1, 21977, Note_off_c, 0, 65, 110
1, 22489, Note_on_c, 0, 63, 111
1, 22578, Note_off_c, 0, 63, 111
1, 22605, Note_on_c, 0, 63, 103
1, 22707, Note_off_c, 0, 63, 103
1, 22781, Note_on_c, 0, 60, 98
1, 22850, Note_off_c, 0, 60, 98
1, 22859, Note_on_c, 0, 61, 107
1, 22944, Note_off_c, 0, 61, 107
1, 22954, Note_on_c, 0, 61, 98
1, 23072, Note_off_c, 0, 61, 98
1, 23168, Note_on_c, 0, 63, 106
1, 23237, Note_off_c, 0, 63, 106
1, 23246, Note_on_c, 0, 65, 109
1, 23326, Note_off_c, 0, 65, 109
1, 23357, Note_on_c, 0, 65, 104
1, 23477, Note_off_c, 0, 65, 104
1, 23542, Note_on_c, 0, 68, 114
1, 23615, Note_off_c, 0, 68, 114
1, 23646, Note_on_c, 0, 67, 113
1, 23746, Note_off_c, 0, 67, 113
1, 23782, Note_on_c, 0, 67, 114
1, 23873, Note_off_c, 0, 67, 114
1, 23938, Note_on_c, 0, 65, 109
1, 23994, Note_off_c, 0, 65, 109
1, 24032, Note_on_c, 0, 63, 107
1, 24125, Note_off_c, 0, 63, 107
1, 24163, Note_on_c, 0, 60, 100
1, 24384, Note_off_c, 0, 60, 100
1, 24426, Note_on_c, 0, 60, 92
1, 24736, Note_off_c, 0, 60, 92
1, 25120, Note_on_c, 0, 65, 100
1, 25443, Note_off_c, 0, 65, 100
1, 25475, Note_on_c, 0, 64, 96
1, 25555, Note_off_c, 0, 64, 96
1, 25573, Note_on_c, 0, 65, 109
1, 25664, Note_off_c, 0, 65, 109
1, 25707, Note_on_c, 0, 60, 99
1, 25781, Note_off_c, 0, 60, 99
1, 26037, Note_on_c, 0, 65, 103
1, 26121, Note_off_c, 0, 65, 103
1, 26225, Note_on_c, 0, 65, 101
1, 26307, Note_off_c, 0, 65, 101
1, 26328, Note_on_c, 0, 60, 101
1, 26390, Note_off_c, 0, 60, 101
1, 26625, Note_on_c, 0, 69, 112
1, 26696, Note_off_c, 0, 69, 112
1, 26750, Note_on_c, 0, 69, 93
1, 26839, Note_off_c, 0, 69, 93
1, 27594, Note_on_c, 0, 69, 114
1, 27679, Note_off_c, 0, 69, 114
1, 27748, Note_on_c, 0, 69, 110
1, 27824, Note_off_c, 0, 69, 110
1, 27879, Note_on_c, 0, 62, 109
1, 27946, Note_off_c, 0, 62, 109
1, 28162, Note_on_c, 0, 69, 109
1, 28268, Note_off_c, 0, 69, 109
1, 28339, Note_on_c, 0, 69, 107
1, 28424, Note_off_c, 0, 69, 107
1, 28466, Note_on_c, 0, 62, 104
1, 28531, Note_off_c, 0, 62, 104
1, 28747, Note_on_c, 0, 65, 100
1, 28836, Note_off_c, 0, 65, 100
1, 28874, Note_on_c, 0, 65, 110
1, 28974, Note_off_c, 0, 65, 110
1, 29028, Note_on_c, 0, 60, 97
1, 29380, Note_off_c, 0, 60, 97
1, 29884, Note_on_c, 0, 65, 107
1, 30160, Note_off_c, 0, 65, 107
1, 30170, Note_on_c, 0, 64, 101
1, 30246, Note_off_c, 0, 64, 101
1, 30260, Note_on_c, 0, 65, 112
1, 30336, Note_off_c, 0, 65, 112
1, 30474, Note_on_c, 0, 60, 92
1, 30554, Note_off_c, 0, 60, 92
1, 30667, Note_on_c, 0, 62, 105
1, 30879, Note_off_c, 0, 62, 105
1, 30900, Note_on_c, 0, 62, 107
1, 31066, Note_off_c, 0, 62, 107
1, 31839, Note_on_c, 0, 71, 120
1, 31910, Note_off_c, 0, 71, 120
1, 31920, Note_on_c, 0, 72, 118
1, 32099, Note_off_c, 0, 72, 118
1, 32228, Note_on_c, 0, 60, 107
1, 32443, Note_off_c, 0, 60, 107
1, 32567, Note_on_c, 0, 62, 113
1, 33217, Note_off_c, 0, 62, 113
1, 33334, Note_on_c, 0, 69, 109
1, 33396, Note_off_c, 0, 69, 109
1, 33416, Note_on_c, 0, 67, 114
1, 33498, Note_off_c, 0, 67, 114
1, 33525, Note_on_c, 0, 69, 113
1, 33576, Note_off_c, 0, 69, 113
1, 33616, Note_on_c, 0, 67, 115
1, 33692, Note_off_c, 0, 67, 115
1, 33721, Note_on_c, 0, 67, 110
1, 33816, Note_off_c, 0, 67, 110
1, 33918, Note_on_c, 0, 69, 109
1, 33987, Note_off_c, 0, 69, 109
1, 34018, Note_on_c, 0, 67, 112
1, 34102, Note_off_c, 0, 67, 112
1, 34138, Note_on_c, 0, 67, 109
1, 34238, Note_off_c, 0, 67, 109
1, 34316, Note_on_c, 0, 69, 107
1, 34369, Note_off_c, 0, 69, 107
1, 34400, Note_on_c, 0, 67, 112
1, 34480, Note_off_c, 0, 67, 112
1, 34523, Note_on_c, 0, 67, 114
1, 34605, Note_off_c, 0, 67, 114
1, 34701, Note_on_c, 0, 69, 110
1, 34746, Note_off_c, 0, 69, 110
1, 34777, Note_on_c, 0, 67, 110
1, 34877, Note_off_c, 0, 67, 110
1, 34906, Note_on_c, 0, 65, 112
1, 34984, Note_off_c, 0, 65, 112
1, 35375, Note_on_c, 0, 64, 105
1, 35431, Note_off_c, 0, 64, 105
1, 35449, Note_on_c, 0, 65, 106
1, 35523, Note_off_c, 0, 65, 106
1, 35563, Note_on_c, 0, 62, 106
1, 35630, Note_off_c, 0, 62, 106
1, 35666, Note_on_c, 0, 64, 100
1, 35760, Note_off_c, 0, 64, 100
1, 35775, Note_on_c, 0, 60, 93
1, 35839, Note_off_c, 0, 60, 93
1, 35954, Note_on_c, 0, 62, 100
1, 36144, Note_off_c, 0, 62, 100
1, 36182, Note_on_c, 0, 58, 97
1, 36313, Note_off_c, 0, 58, 97
1, 36406, Note_on_c, 0, 60, 100
1, 36455, Note_off_c, 0, 60, 100
1, 36480, Note_on_c, 0, 58, 97
1, 36560, Note_off_c, 0, 58, 97
1, 36581, Note_on_c, 0, 57, 88
1, 36643, Note_off_c, 0, 57, 88
1, 36670, Note_on_c, 0, 60, 97
1, 36752, Note_off_c, 0, 60, 97
1, 36916, Note_on_c, 0, 60, 92
1, 37285, Note_off_c, 0, 60, 92
1, 37764, Note_on_c, 0, 60, 97
1, 37838, Note_off_c, 0, 60, 97
1, 37850, Note_on_c, 0, 62, 104
1, 37932, Note_off_c, 0, 62, 104
1, 37952, Note_on_c, 0, 64, 99
1, 37994, Note_off_c, 0, 64, 99
1, 38028, Note_on_c, 0, 65, 104
1, 38126, Note_off_c, 0, 65, 104
1, 38243, Note_on_c, 0, 67, 109
1, 38307, Note_off_c, 0, 67, 109
1, 38343, Note_on_c, 0, 65, 104
1, 38417, Note_off_c, 0, 65, 104
1, 38448, Note_on_c, 0, 64, 102
1, 38524, Note_off_c, 0, 64, 102
1, 38533, Note_on_c, 0, 65, 101
1, 38637, Note_off_c, 0, 65, 101
1, 38651, Note_on_c, 0, 64, 105
1, 38709, Note_off_c, 0, 64, 105
1, 38752, Note_on_c, 0, 62, 113
1, 38825, Note_off_c, 0, 62, 113
1, 38852, Note_on_c, 0, 60, 103
1, 38908, Note_off_c, 0, 60, 103
1, 39149, Note_on_c, 0, 62, 108
1, 39234, Note_off_c, 0, 62, 108
1, 39257, Note_on_c, 0, 58, 96
1, 39394, Note_off_c, 0, 58, 96
1, 39419, Note_on_c, 0, 60, 102
1, 39483, Note_off_c, 0, 60, 102
1, 39536, Note_on_c, 0, 57, 94
1, 39601, Note_off_c, 0, 57, 94
1, 39719, Note_on_c, 0, 58, 98
1, 39773, Note_off_c, 0, 58, 98
1, 39837, Note_on_c, 0, 60, 101
1, 39901, Note_off_c, 0, 60, 101
1, 39924, Note_on_c, 0, 62, 106
1, 39986, Note_off_c, 0, 62, 106
1, 40025, Note_on_c, 0, 63, 98
1, 40087, Note_off_c, 0, 63, 98
1, 40091, Note_on_c, 0, 65, 101
1, 40187, Note_off_c, 0, 65, 101
1, 40208, Note_on_c, 0, 67, 106
1, 40385, Note_off_c, 0, 67, 106
1, 40823, Note_on_c, 0, 67, 115
1, 40899, Note_off_c, 0, 67, 115
1, 40920, Note_on_c, 0, 65, 107
1, 40973, Note_off_c, 0, 65, 107
1, 40987, Note_on_c, 0, 64, 100
1, 41045, Note_off_c, 0, 64, 100
1, 41068, Note_on_c, 0, 62, 110
1, 41163, Note_off_c, 0, 62, 110
1, 41183, Note_on_c, 0, 61, 103
1, 41305, Note_off_c, 0, 61, 103
1, 41312, Note_on_c, 0, 62, 112
1, 41562, Note_off_c, 0, 62, 112
1, 41611, Note_on_c, 0, 64, 107
1, 41718, Note_off_c, 0, 64, 107
1, 41728, Note_on_c, 0, 65, 108
1, 41945, Note_off_c, 0, 65, 108
1, 42681, Note_on_c, 0, 64, 108
1, 42730, Note_off_c, 0, 64, 108
1, 42739, Note_on_c, 0, 65, 109
1, 42916, Note_off_c, 0, 65, 109
1, 42976, Note_on_c, 0, 60, 99
1, 43054, Note_off_c, 0, 60, 99
1, 43156, Note_on_c, 0, 62, 104
1, 43569, Note_off_c, 0, 62, 104
1, 44329, Note_on_c, 0, 69, 115
1, 44369, Note_off_c, 0, 69, 115
1, 44379, Note_on_c, 0, 70, 118
1, 44698, Note_off_c, 0, 70, 118
1, 44754, Note_on_c, 0, 65, 109
1, 44977, Note_off_c, 0, 65, 109
1, 45020, Note_on_c, 0, 64, 103
1, 45062, Note_off_c, 0, 64, 103
1, 45078, Note_on_c, 0, 63, 103
1, 45187, Note_off_c, 0, 63, 103
1, 45225, Note_on_c, 0, 55, 87
1, 45283, Note_off_c, 0, 55, 87
1, 45303, Note_on_c, 0, 58, 100
1, 45368, Note_off_c, 0, 58, 100
1, 45388, Note_on_c, 0, 62, 110
1, 45731, Note_off_c, 0, 62, 110
1, 45835, Note_on_c, 0, 60, 95
1, 45897, Note_off_c, 0, 60, 95
1, 45940, Note_on_c, 0, 58, 102
1, 46020, Note_off_c, 0, 58, 102
1, 46045, Note_on_c, 0, 57, 97
1, 46134, Note_off_c, 0, 57, 97
1, 46182, Note_on_c, 0, 60, 79
1, 46236, Note_off_c, 0, 60, 79
1, 46246, Note_on_c, 0, 62, 107
1, 46328, Note_off_c, 0, 62, 107
1, 46344, Note_on_c, 0, 65, 104
1, 46713, Note_off_c, 0, 65, 104
1, 47199, Note_on_c, 0, 58, 103
1, 47303, Note_off_c, 0, 58, 103
1, 47345, Note_on_c, 0, 60, 102
1, 47407, Note_off_c, 0, 60, 102
1, 47456, Note_on_c, 0, 61, 102
1, 47541, Note_off_c, 0, 61, 102
1, 47561, Note_on_c, 0, 63, 107
1, 47795, Note_off_c, 0, 63, 107
1, 47831, Note_on_c, 0, 65, 106
1, 48035, Note_off_c, 0, 65, 106
1, 48112, Note_on_c, 0, 61, 101
1, 48151, Note_off_c, 0, 61, 101
1, 48173, Note_on_c, 0, 63, 111
1, 48352, Note_off_c, 0, 63, 111
1, 48383, Note_on_c, 0, 61, 102
1, 48501, Note_off_c, 0, 61, 102
1, 48513, Note_on_c, 0, 60, 99
1, 48589, Note_off_c, 0, 60, 99
1, 48698, Note_on_c, 0, 58, 104
1, 48763, Note_off_c, 0, 58, 104
1, 48775, Note_on_c, 0, 57, 102
1, 49164, Note_off_c, 0, 57, 102
1, 49354, Note_on_c, 0, 62, 109
1, 49584, Note_off_c, 0, 62, 109
1, 49693, Note_on_c, 0, 55, 100
1, 49954, Note_off_c, 0, 55, 100
1, 50506, Note_on_c, 0, 62, 110
1, 50818, Note_off_c, 0, 62, 110
1, 50838, Note_on_c, 0, 61, 97
1, 50891, Note_off_c, 0, 61, 97
1, 50894, Note_on_c, 0, 62, 111
1, 51184, Note_off_c, 0, 62, 111
1, 51247, Note_on_c, 0, 60, 102
1, 51298, Note_off_c, 0, 60, 102
1, 51316, Note_on_c, 0, 62, 106
1, 51403, Note_off_c, 0, 62, 106
1, 51413, Note_on_c, 0, 64, 101
1, 51480, Note_off_c, 0, 64, 101
1, 51500, Note_on_c, 0, 65, 113
1, 51553, Note_off_c, 0, 65, 113
1, 51578, Note_on_c, 0, 67, 101
1, 51641, Note_off_c, 0, 67, 101
1, 51666, Note_on_c, 0, 68, 115
1, 51766, Note_off_c, 0, 68, 115
1, 51780, Note_on_c, 0, 67, 121
1, 51845, Note_off_c, 0, 67, 121
1, 51866, Note_on_c, 0, 65, 114
1, 51950, Note_off_c, 0, 65, 114
1, 51978, Note_on_c, 0, 64, 103
1, 52043, Note_off_c, 0, 64, 103
1, 52062, Note_on_c, 0, 65, 99
1, 52126, Note_off_c, 0, 65, 99
1, 52157, Note_on_c, 0, 62, 103
1, 52215, Note_off_c, 0, 62, 103
1, 52434, Note_on_c, 0, 62, 9
1, 52832, Note_off_c, 0, 62, 9
1, 53218, Note_on_c, 0, 68, 116
1, 53279, Note_off_c, 0, 68, 116
1, 53297, Note_on_c, 0, 68, 116
1, 53350, Note_off_c, 0, 68, 116
1, 53379, Note_on_c, 0, 68, 114
1, 53458, Note_off_c, 0, 68, 114
1, 53484, Note_on_c, 0, 68, 115
1, 53546, Note_off_c, 0, 68, 115
1, 53582, Note_on_c, 0, 68, 115
1, 53666, Note_off_c, 0, 68, 115
1, 54208, Note_on_c, 0, 68, 116
1, 54472, Note_off_c, 0, 68, 116
1, 54473, Note_on_c, 0, 65, 87
1, 54534, Note_off_c, 0, 65, 87
1, 54767, Note_on_c, 0, 67, 112
1, 54829, Note_off_c, 0, 67, 112
1, 54836, Note_on_c, 0, 68, 107
1, 54896, Note_off_c, 0, 68, 107
1, 54932, Note_on_c, 0, 68, 116
1, 54997, Note_off_c, 0, 68, 116
1, 55035, Note_on_c, 0, 68, 118
1, 55104, Note_off_c, 0, 68, 118
1, 55133, Note_on_c, 0, 68, 116
1, 55224, Note_off_c, 0, 68, 116
1, 55255, Note_on_c, 0, 65, 107
1, 55362, Note_off_c, 0, 65, 107
1, 55579, Note_on_c, 0, 65, 104
1, 55908, Note_off_c, 0, 65, 104
1, 56601, Note_on_c, 0, 74, 127
1, 56688, Note_off_c, 0, 74, 127
1, 56709, Note_on_c, 0, 72, 117
1, 56829, Note_off_c, 0, 72, 117
1, 57097, Note_on_c, 0, 65, 116
1, 57259, Note_off_c, 0, 65, 116
1, 57432, Note_on_c, 0, 70, 107
1, 57534, Note_off_c, 0, 70, 107
1, 57552, Note_on_c, 0, 69, 111
1, 57678, Note_off_c, 0, 69, 111
1, 57893, Note_on_c, 0, 60, 82
1, 57995, Note_off_c, 0, 60, 82
1, 58088, Note_on_c, 0, 67, 113
1, 58256, Note_off_c, 0, 67, 113
1, 58279, Note_on_c, 0, 65, 112
1, 58500, Note_off_c, 0, 65, 112
1, 58582, Note_on_c, 0, 57, 91
1, 58821, Note_off_c, 0, 57, 91
1, 58879, Note_on_c, 0, 62, 104
1, 58990, Note_off_c, 0, 62, 104
1, 59070, Note_on_c, 0, 60, 100
1, 59289, Note_off_c, 0, 60, 100
1, 59378, Note_on_c, 0, 53, 96
1, 59471, Note_off_c, 0, 53, 96
1, 59591, Note_on_c, 0, 58, 93
1, 59691, Note_off_c, 0, 58, 93
1, 59718, Note_on_c, 0, 57, 92
1, 59805, Note_off_c, 0, 57, 92
1, 59916, Note_on_c, 0, 60, 96
1, 60135, Note_off_c, 0, 60, 96
1, 60213, Note_on_c, 0, 55, 94
1, 60604, Note_off_c, 0, 55, 94
1, 60991, Note_on_c, 0, 65, 103
1, 61232, Note_off_c, 0, 65, 103
1, 61266, Note_on_c, 0, 64, 105
1, 61331, Note_off_c, 0, 64, 105
1, 61385, Note_on_c, 0, 60, 102
1, 61580, Note_off_c, 0, 60, 102
1, 61770, Note_on_c, 0, 60, 94
1, 62044, Note_off_c, 0, 60, 94
1, 62927, Note_on_c, 0, 69, 108
1, 63000, Note_off_c, 0, 69, 108
1, 63029, Note_on_c, 0, 72, 108
1, 63131, Note_off_c, 0, 72, 108
1, 63233, Note_on_c, 0, 67, 109
1, 63304, Note_off_c, 0, 67, 109
1, 63318, Note_on_c, 0, 70, 100
1, 63477, Note_off_c, 0, 70, 100
1, 63720, Note_on_c, 0, 65, 103
1, 63785, Note_off_c, 0, 65, 103
1, 63817, Note_on_c, 0, 69, 109
1, 63906, Note_off_c, 0, 69, 109
1, 64008, Note_on_c, 0, 64, 97
1, 64066, Note_off_c, 0, 64, 97
1, 64082, Note_on_c, 0, 67, 110
1, 64193, Note_off_c, 0, 67, 110
1, 64439, Note_on_c, 0, 62, 102
1, 64499, Note_off_c, 0, 62, 102
1, 64533, Note_on_c, 0, 65, 111
1, 64629, Note_off_c, 0, 65, 111
1, 64766, Note_on_c, 0, 61, 100
1, 64800, Note_off_c, 0, 61, 100
1, 64834, Note_on_c, 0, 64, 109
1, 64945, Note_off_c, 0, 64, 109
1, 65041, Note_on_c, 0, 58, 99
1, 65114, Note_off_c, 0, 58, 99
1, 65139, Note_on_c, 0, 62, 103
1, 65385, Note_off_c, 0, 62, 103
1, 65397, Note_on_c, 0, 57, 97
1, 65475, Note_off_c, 0, 57, 97
1, 65610, Note_on_c, 0, 60, 99
1, 65763, Note_off_c, 0, 60, 99
1, 66424, Note_on_c, 0, 55, 97
1, 66473, Note_off_c, 0, 55, 97
1, 66522, Note_on_c, 0, 57, 98
1, 66567, Note_off_c, 0, 57, 98
1, 66585, Note_on_c, 0, 58, 99
1, 66658, Note_off_c, 0, 58, 99
1, 66685, Note_on_c, 0, 61, 100
1, 66738, Note_off_c, 0, 61, 100
1, 66767, Note_on_c, 0, 62, 109
1, 66816, Note_off_c, 0, 62, 109
1, 66892, Note_on_c, 0, 64, 99
1, 66946, Note_off_c, 0, 64, 99
1, 66966, Note_on_c, 0, 65, 108
1, 67031, Note_off_c, 0, 65, 108
1, 67078, Note_on_c, 0, 67, 103
1, 67127, Note_off_c, 0, 67, 103
1, 67136, Note_on_c, 0, 68, 113
1, 67223, Note_off_c, 0, 68, 113
1, 67233, Note_on_c, 0, 67, 105
1, 67309, Note_off_c, 0, 67, 105
1, 67319, Note_on_c, 0, 68, 112
1, 67395, Note_off_c, 0, 68, 112
1, 67424, Note_on_c, 0, 67, 102
1, 67497, Note_off_c, 0, 67, 102
1, 67518, Note_on_c, 0, 68, 110
1, 67592, Note_off_c, 0, 68, 110
1, 67602, Note_on_c, 0, 67, 103
1, 67687, Note_off_c, 0, 67, 103
1, 67694, Note_on_c, 0, 68, 110
1, 67756, Note_off_c, 0, 68, 110
1, 67783, Note_on_c, 0, 67, 99
1, 67887, Note_off_c, 0, 67, 99
1, 67914, Note_on_c, 0, 68, 104
1, 68089, Note_off_c, 0, 68, 104
1, 68098, Note_on_c, 0, 67, 104
1, 68178, Note_off_c, 0, 67, 104
1, 68207, Note_on_c, 0, 65, 107
1, 68313, Note_off_c, 0, 65, 107
1, 68415, Note_on_c, 0, 62, 99
1, 68822, Note_off_c, 0, 62, 99
1, 69432, Note_on_c, 0, 65, 102
1, 69499, Note_off_c, 0, 65, 102
1, 69566, Note_on_c, 0, 68, 89
1, 69614, Note_off_c, 0, 68, 89
1, 69625, Note_on_c, 0, 70, 100
1, 69694, Note_off_c, 0, 70, 100
1, 69745, Note_on_c, 0, 72, 95
1, 69801, Note_off_c, 0, 72, 95
1, 69815, Note_on_c, 0, 73, 102
1, 69944, Note_off_c, 0, 73, 102
1, 69960, Note_on_c, 0, 72, 91
1, 69992, Note_off_c, 0, 72, 91
1, 70012, Note_on_c, 0, 73, 108
1, 70119, Note_off_c, 0, 73, 108
1, 70137, Note_on_c, 0, 72, 93
1, 70173, Note_off_c, 0, 72, 93
1, 70204, Note_on_c, 0, 73, 117
1, 70333, Note_off_c, 0, 73, 117
1, 70391, Note_on_c, 0, 72, 108
1, 70456, Note_off_c, 0, 72, 108
1, 70481, Note_on_c, 0, 70, 104
1, 70570, Note_off_c, 0, 70, 104
1, 70679, Note_on_c, 0, 65, 106
1, 70872, Note_off_c, 0, 65, 106
1, 70959, Note_on_c, 0, 67, 103
1, 71392, Note_off_c, 0, 67, 103
1, 71858, Note_on_c, 0, 63, 106
1, 71932, Note_off_c, 0, 63, 106
1, 72023, Note_on_c, 0, 62, 100
1, 72103, Note_off_c, 0, 62, 100
1, 72113, Note_on_c, 0, 61, 95
1, 72219, Note_off_c, 0, 61, 95
1, 72293, Note_on_c, 0, 63, 107
1, 72494, Note_off_c, 0, 63, 107
1, 72534, Note_on_c, 0, 60, 96
1, 72651, Note_off_c, 0, 60, 96
1, 72668, Note_on_c, 0, 61, 97
1, 72755, Note_off_c, 0, 61, 97
1, 72792, Note_on_c, 0, 58, 98
1, 72888, Note_off_c, 0, 58, 98
1, 72983, Note_on_c, 0, 60, 98
1, 73030, Note_off_c, 0, 60, 98
1, 73040, Note_on_c, 0, 61, 99
1, 73109, Note_off_c, 0, 61, 99
1, 73143, Note_on_c, 0, 63, 83
1, 73186, Note_off_c, 0, 63, 83
1, 73239, Note_on_c, 0, 65, 105
1, 73323, Note_off_c, 0, 65, 105
1, 73344, Note_on_c, 0, 67, 107
1, 73404, Note_off_c, 0, 67, 107
1, 73442, Note_on_c, 0, 67, 110
1, 73509, Note_off_c, 0, 67, 110
1, 73541, Note_on_c, 0, 65, 109
1, 73612, Note_off_c, 0, 65, 109
1, 73659, Note_on_c, 0, 64, 108
1, 73748, Note_off_c, 0, 64, 108
1, 74389, Note_on_c, 0, 62, 101
1, 74462, Note_off_c, 0, 62, 101
1, 74624, Note_on_c, 0, 64, 104
1, 74995, Note_off_c, 0, 64, 104
1, 75009, Note_on_c, 0, 65, 105
1, 75085, Note_off_c, 0, 65, 105
1, 75198, Note_on_c, 0, 62, 106
1, 75646, Note_off_c, 0, 62, 106
1, 75688, Note_on_c, 0, 64, 100
1, 75762, Note_off_c, 0, 64, 100
1, 75783, Note_on_c, 0, 65, 110
1, 75867, Note_off_c, 0, 65, 110
1, 75894, Note_on_c, 0, 62, 107
1, 75954, Note_off_c, 0, 62, 107
1, 76082, Note_on_c, 0, 64, 104
1, 76297, Note_off_c, 0, 64, 104
1, 76311, Note_on_c, 0, 65, 108
1, 76506, Note_off_c, 0, 65, 108
1, 76584, Note_on_c, 0, 62, 104
1, 76863, Note_off_c, 0, 62, 104
1, 76892, Note_on_c, 0, 64, 100
1, 77087, Note_off_c, 0, 64, 100
1, 77105, Note_on_c, 0, 65, 105
1, 77276, Note_off_c, 0, 65, 105
1, 77314, Note_on_c, 0, 62, 100
1, 77659, Note_off_c, 0, 62, 100
1, 77894, Note_on_c, 0, 64, 108
1, 77956, Note_off_c, 0, 64, 108
1, 77974, Note_on_c, 0, 65, 108
1, 78045, Note_off_c, 0, 65, 108
1, 78081, Note_on_c, 0, 62, 102
1, 78146, Note_off_c, 0, 62, 102
1, 78182, Note_on_c, 0, 64, 110
1, 78227, Note_off_c, 0, 64, 110
1, 78243, Note_on_c, 0, 65, 106
1, 78325, Note_off_c, 0, 65, 106
1, 78366, Note_on_c, 0, 62, 87
1, 78417, Note_off_c, 0, 62, 87
1, 78426, Note_on_c, 0, 64, 103
1, 78495, Note_off_c, 0, 64, 103
1, 78516, Note_on_c, 0, 65, 104
1, 78574, Note_off_c, 0, 65, 104
1, 78599, Note_on_c, 0, 62, 101
1, 78705, Note_off_c, 0, 62, 101
1, 78728, Note_on_c, 0, 64, 97
1, 78775, Note_off_c, 0, 64, 97
1, 78795, Note_on_c, 0, 65, 104
1, 78862, Note_off_c, 0, 65, 104
1, 78935, Note_on_c, 0, 62, 99
1, 78984, Note_off_c, 0, 62, 99
1, 79007, Note_on_c, 0, 64, 109
1, 79069, Note_off_c, 0, 64, 109
1, 79087, Note_on_c, 0, 65, 102
1, 79147, Note_off_c, 0, 65, 102
1, 79190, Note_on_c, 0, 62, 97
1, 79274, Note_off_c, 0, 62, 97
1, 79331, Note_on_c, 0, 64, 94
1, 79365, Note_off_c, 0, 64, 94
1, 79375, Note_on_c, 0, 65, 107
1, 79451, Note_off_c, 0, 65, 107
1, 79500, Note_on_c, 0, 62, 86
1, 79536, Note_off_c, 0, 62, 86
1, 79565, Note_on_c, 0, 64, 102
1, 79630, Note_off_c, 0, 64, 102
1, 79642, Note_on_c, 0, 65, 104
1, 79737, Note_off_c, 0, 65, 104
1, 80121, Note_on_c, 0, 65, 107
1, 80408, Note_off_c, 0, 65, 107
1, 80418, Note_on_c, 0, 64, 94
1, 80478, Note_off_c, 0, 64, 94
1, 80492, Note_on_c, 0, 65, 107
1, 80596, Note_off_c, 0, 65, 107
1, 81334, Note_on_c, 0, 69, 107
1, 81429, Note_off_c, 0, 69, 107
1, 81439, Note_on_c, 0, 67, 112
1, 81471, Note_off_c, 0, 67, 112
1, 81503, Note_on_c, 0, 65, 103
1, 81590, Note_off_c, 0, 65, 103
1, 81657, Note_on_c, 0, 67, 110
1, 81721, Note_off_c, 0, 67, 110
1, 81742, Note_on_c, 0, 65, 109
1, 81829, Note_off_c, 0, 65, 109
1, 81971, Note_on_c, 0, 64, 103
1, 82036, Note_off_c, 0, 64, 103
1, 82173, Note_on_c, 0, 65, 106
1, 82375, Note_off_c, 0, 65, 106
1, 82422, Note_on_c, 0, 62, 103
1, 82581, Note_off_c, 0, 62, 103
1, 82599, Note_on_c, 0, 64, 85
1, 82670, Note_off_c, 0, 64, 85
1, 82843, Note_on_c, 0, 60, 97
1, 83106, Note_off_c, 0, 60, 97
1, 83143, Note_on_c, 0, 60, 91
1, 83488, Note_off_c, 0, 60, 91
1, 84386, Note_on_c, 0, 67, 103
1, 84439, Note_off_c, 0, 67, 103
1, 84550, Note_on_c, 0, 67, 101
1, 84595, Note_off_c, 0, 67, 101
1, 84620, Note_on_c, 0, 67, 99
1, 84671, Note_off_c, 0, 67, 99
1, 84691, Note_on_c, 0, 67, 104
1, 84740, Note_off_c, 0, 67, 104
1, 84780, Note_on_c, 0, 67, 111
1, 85253, Note_off_c, 0, 67, 111
1, 85291, Note_on_c, 0, 67, 105
1, 85336, Note_off_c, 0, 67, 105
1, 85368, Note_on_c, 0, 67, 106
1, 85415, Note_off_c, 0, 67, 106
1, 85440, Note_on_c, 0, 67, 111
1, 85487, Note_off_c, 0, 67, 111
1, 85532, Note_on_c, 0, 67, 114
1, 85643, Note_off_c, 0, 67, 114
1, 85692, Note_on_c, 0, 72, 108
1, 85734, Note_off_c, 0, 72, 108
1, 85757, Note_on_c, 0, 72, 101
1, 85806, Note_off_c, 0, 72, 101
1, 85837, Note_on_c, 0, 72, 109
1, 85869, Note_off_c, 0, 72, 109
1, 85890, Note_on_c, 0, 72, 112
1, 85954, Note_off_c, 0, 72, 112
1, 86001, Note_on_c, 0, 67, 107
1, 86090, Note_off_c, 0, 67, 107
1, 86260, Note_on_c, 0, 67, 105
1, 86351, Note_off_c, 0, 67, 105
1, 87466, Note_on_c, 0, 72, 110
1, 87800, Note_off_c, 0, 72, 110
1, 87825, Note_on_c, 0, 70, 104
1, 87912, Note_off_c, 0, 70, 104
1, 87932, Note_on_c, 0, 69, 91
1, 87977, Note_off_c, 0, 69, 91
1, 88017, Note_on_c, 0, 70, 100
1, 88070, Note_off_c, 0, 70, 100
1, 88121, Note_on_c, 0, 72, 103
1, 88217, Note_off_c, 0, 72, 103
1, 88326, Note_on_c, 0, 72, 108
1, 88563, Note_off_c, 0, 72, 108
1, 88583, Note_on_c, 0, 70, 106
1, 88683, Note_off_c, 0, 70, 106
1, 88706, Note_on_c, 0, 69, 92
1, 88770, Note_off_c, 0, 69, 92
1, 88784, Note_on_c, 0, 70, 107
1, 88869, Note_off_c, 0, 70, 107
1, 88900, Note_on_c, 0, 72, 100
1, 89013, Note_off_c, 0, 72, 100
1, 90144, Note_on_c, 0, 70, 101
1, 90229, Note_off_c, 0, 70, 101
1, 90247, Note_on_c, 0, 69, 82
1, 90307, Note_off_c, 0, 69, 82
1, 90327, Note_on_c, 0, 70, 103
1, 90405, Note_off_c, 0, 70, 103
1, 90426, Note_on_c, 0, 72, 110
1, 90515, Note_off_c, 0, 72, 110
1, 90613, Note_on_c, 0, 71, 110
1, 90675, Note_off_c, 0, 71, 110
1, 90698, Note_on_c, 0, 70, 102
1, 90816, Note_off_c, 0, 70, 102
1, 90892, Note_on_c, 0, 69, 108
1, 90974, Note_off_c, 0, 69, 108
1, 91006, Note_on_c, 0, 67, 109
1, 91093, Note_off_c, 0, 67, 109
1, 91202, Note_on_c, 0, 65, 102
1, 91298, Note_off_c, 0, 65, 102
1, 91318, Note_on_c, 0, 64, 86
1, 91389, Note_off_c, 0, 64, 86
1, 91478, Note_on_c, 0, 58, 94
1, 91543, Note_off_c, 0, 58, 94
1, 91589, Note_on_c, 0, 63, 102
1, 91791, Note_off_c, 0, 63, 102
1, 91823, Note_on_c, 0, 61, 100
1, 91919, Note_off_c, 0, 61, 100
1, 91959, Note_on_c, 0, 59, 91
1, 92043, Note_off_c, 0, 59, 91
1, 92057, Note_on_c, 0, 60, 98
1, 92174, Note_off_c, 0, 60, 98
1, 92206, Note_on_c, 0, 57, 95
1, 92280, Note_off_c, 0, 57, 95
1, 92354, Note_on_c, 0, 58, 87
1, 92450, Note_off_c, 0, 58, 87
1, 92453, Note_on_c, 0, 60, 93
1, 92496, Note_off_c, 0, 60, 93
1, 92526, Note_on_c, 0, 65, 110
1, 92615, Note_off_c, 0, 65, 110
1, 93589, Note_on_c, 0, 65, 103
1, 93879, Note_off_c, 0, 65, 103
1, 93955, Note_on_c, 0, 63, 102
1, 94050, Note_off_c, 0, 63, 102
1, 94137, Note_on_c, 0, 60, 95
1, 94217, Note_off_c, 0, 60, 95
1, 94264, Note_on_c, 0, 62, 109
1, 94357, Note_off_c, 0, 62, 109
1, 94439, Note_on_c, 0, 65, 104
1, 94691, Note_off_c, 0, 65, 104
1, 94744, Note_on_c, 0, 61, 97
1, 94890, Note_off_c, 0, 61, 97
1, 94911, Note_on_c, 0, 65, 108
1, 94985, Note_off_c, 0, 65, 108
1, 95173, Note_on_c, 0, 60, 90
1, 95297, Note_off_c, 0, 60, 90
1, 95408, Note_on_c, 0, 65, 108
1, 95471, Note_off_c, 0, 65, 108
1, 95522, Note_on_c, 0, 58, 97
1, 95651, Note_off_c, 0, 58, 97
1, 95687, Note_on_c, 0, 65, 107
1, 95776, Note_off_c, 0, 65, 107
1, 95843, Note_on_c, 0, 57, 96
1, 95989, Note_off_c, 0, 57, 96
1, 96023, Note_on_c, 0, 65, 98
1, 96125, Note_off_c, 0, 65, 98
1, 96216, Note_on_c, 0, 56, 96
1, 96356, Note_off_c, 0, 56, 96
1, 96791, Note_on_c, 0, 63, 103
1, 96909, Note_off_c, 0, 63, 103
1, 96965, Note_on_c, 0, 60, 91
1, 97019, Note_off_c, 0, 60, 91
1, 97031, Note_on_c, 0, 61, 95
1, 97118, Note_off_c, 0, 61, 95
1, 97132, Note_on_c, 0, 63, 109
1, 97197, Note_off_c, 0, 63, 109
1, 97224, Note_on_c, 0, 60, 96
1, 97289, Note_off_c, 0, 60, 96
1, 97321, Note_on_c, 0, 61, 96
1, 97403, Note_off_c, 0, 61, 96
1, 97413, Note_on_c, 0, 58, 95
1, 97497, Note_off_c, 0, 58, 95
1, 97976, Note_on_c, 0, 64, 109
1, 98060, Note_off_c, 0, 64, 109
1, 98083, Note_on_c, 0, 60, 101
1, 98123, Note_off_c, 0, 60, 101
1, 98168, Note_on_c, 0, 57, 95
1, 98241, Note_off_c, 0, 57, 95
1, 98288, Note_on_c, 0, 55, 101
1, 98357, Note_off_c, 0, 55, 101
1, 98382, Note_on_c, 0, 54, 93
1, 98455, Note_off_c, 0, 54, 93
1, 98508, Note_on_c, 0, 56, 82
1, 98561, Note_off_c, 0, 56, 82
1, 98581, Note_on_c, 0, 60, 99
1, 98634, Note_off_c, 0, 60, 99
1, 98652, Note_on_c, 0, 63, 100
1, 98712, Note_off_c, 0, 63, 100
1, 98726, Note_on_c, 0, 60, 95
1, 98780, Note_off_c, 0, 60, 95
1, 98863, Note_on_c, 0, 61, 98
1, 98921, Note_off_c, 0, 61, 98
1, 98925, Note_on_c, 0, 62, 102
1, 98992, Note_off_c, 0, 62, 102
1, 99028, Note_on_c, 0, 64, 102
1, 99073, Note_off_c, 0, 64, 102
1, 99091, Note_on_c, 0, 65, 105
1, 99178, Note_off_c, 0, 65, 105
1, 99218, Note_on_c, 0, 67, 96
1, 99261, Note_off_c, 0, 67, 96
1, 99299, Note_on_c, 0, 69, 113
1, 99408, Note_off_c, 0, 69, 113
1, 99698, Note_on_c, 0, 67, 105
1, 99966, Note_off_c, 0, 67, 105
1, 99987, Note_on_c, 0, 65, 88
1, 100032, Note_off_c, 0, 65, 88
1, 100048, Note_on_c, 0, 67, 109
1, 100157, Note_off_c, 0, 67, 109
1, 100173, Note_on_c, 0, 65, 105
1, 100269, Note_off_c, 0, 65, 105
1, 100378, Note_on_c, 0, 64, 102
1, 100504, Note_off_c, 0, 64, 102
1, 100577, Note_on_c, 0, 64, 104
1, 100743, Note_off_c, 0, 64, 104
1, 100785, Note_on_c, 0, 62, 95
1, 100828, Note_off_c, 0, 62, 95
1, 100851, Note_on_c, 0, 64, 103
1, 100999, Note_off_c, 0, 64, 103
1, 101037, Note_on_c, 0, 62, 103
1, 101113, Note_off_c, 0, 62, 103
1, 101262, Note_on_c, 0, 59, 96
1, 101364, Note_off_c, 0, 59, 96
1, 101506, Note_on_c, 0, 67, 111
1, 101612, Note_off_c, 0, 67, 111
1, 101629, Note_on_c, 0, 69, 107
1, 101942, Note_off_c, 0, 69, 107
1, 102406, Note_on_c, 0, 65, 85
1, 102548, Note_off_c, 0, 65, 85
1, 102601, Note_on_c, 0, 62, 107
1, 102736, Note_off_c, 0, 62, 107
1, 102810, Note_on_c, 0, 58, 96
1, 102961, Note_off_c, 0, 58, 96
1, 103105, Note_on_c, 0, 69, 101
1, 103496, Note_off_c, 0, 69, 101
1, 104278, Note_on_c, 0, 69, 111
1, 104446, Note_off_c, 0, 69, 111
1, 104482, Note_on_c, 0, 67, 105
1, 104520, Note_off_c, 0, 67, 105
1, 104551, Note_on_c, 0, 65, 89
1, 104629, Note_off_c, 0, 65, 89
1, 104689, Note_on_c, 0, 69, 108
1, 104862, Note_off_c, 0, 69, 108
1, 104885, Note_on_c, 0, 65, 102
1, 104932, Note_off_c, 0, 65, 102
1, 105103, Note_on_c, 0, 69, 113
1, 105157, Note_off_c, 0, 69, 113
1, 105182, Note_on_c, 0, 68, 90
1, 105242, Note_off_c, 0, 68, 90
1, 105274, Note_on_c, 0, 69, 113
1, 105336, Note_off_c, 0, 69, 113
1, 105389, Note_on_c, 0, 65, 94
1, 105442, Note_off_c, 0, 65, 94
1, 105676, Note_on_c, 0, 69, 115
1, 105741, Note_off_c, 0, 69, 115
1, 105758, Note_on_c, 0, 68, 89
1, 105823, Note_off_c, 0, 68, 89
1, 105838, Note_on_c, 0, 69, 110
1, 105894, Note_off_c, 0, 69, 110
1, 105930, Note_on_c, 0, 65, 97
1, 106004, Note_off_c, 0, 65, 97
1, 106201, Note_on_c, 0, 69, 113
1, 106279, Note_off_c, 0, 69, 113
1, 106299, Note_on_c, 0, 68, 9
1, 106342, Note_off_c, 0, 68, 9
1, 106363, Note_on_c, 0, 69, 113
1, 106427, Note_off_c, 0, 69, 113
1, 106469, Note_on_c, 0, 65, 96
1, 106578, Note_off_c, 0, 65, 96
1, 106748, Note_on_c, 0, 69, 115
1, 106819, Note_off_c, 0, 69, 115
1, 106844, Note_on_c, 0, 70, 111
1, 106920, Note_off_c, 0, 70, 111
1, 106945, Note_on_c, 0, 69, 111
1, 107019, Note_off_c, 0, 69, 111
1, 107042, Note_on_c, 0, 70, 112
1, 107115, Note_off_c, 0, 70, 112
1, 107144, Note_on_c, 0, 70, 114
1, 107204, Note_off_c, 0, 70, 114
1, 107235, Note_on_c, 0, 70, 110
1, 107341, Note_off_c, 0, 70, 110
1, 107361, Note_on_c, 0, 69, 102
1, 107428, Note_off_c, 0, 69, 102
1, 107446, Note_on_c, 0, 70, 113
1, 107513, Note_off_c, 0, 70, 113
1, 107545, Note_on_c, 0, 70, 113
1, 107610, Note_off_c, 0, 70, 113
1, 107631, Note_on_c, 0, 70, 111
1, 107720, Note_off_c, 0, 70, 111
1, 107740, Note_on_c, 0, 70, 118
1, 107811, Note_off_c, 0, 70, 118
1, 107842, Note_on_c, 0, 70, 111
1, 107907, Note_off_c, 0, 70, 111
1, 108031, Note_on_c, 0, 70, 111
1, 108310, Note_off_c, 0, 70, 111
1, 108319, Note_on_c, 0, 69, 116
1, 108390, Note_off_c, 0, 69, 116
1, 108428, Note_on_c, 0, 68, 97
1, 108484, Note_off_c, 0, 68, 97
1, 108507, Note_on_c, 0, 70, 114
1, 108671, Note_off_c, 0, 70, 114
1, 108689, Note_on_c, 0, 69, 112
1, 108753, Note_off_c, 0, 69, 112
1, 108890, Note_on_c, 0, 65, 107
1, 109058, Note_off_c, 0, 65, 107
1, 109206, Note_on_c, 0, 60, 96
1, 109566, Note_off_c, 0, 60, 96
1, 110573, Note_on_c, 0, 60, 98
1, 110618, Note_off_c, 0, 60, 98
1, 110647, Note_on_c, 0, 62, 91
1, 110727, Note_off_c, 0, 62, 91
1, 110836, Note_on_c, 0, 64, 100
1, 110956, Note_off_c, 0, 64, 100
1, 111001, Note_on_c, 0, 65, 101
1, 111136, Note_off_c, 0, 65, 101
1, 111167, Note_on_c, 0, 67, 113
1, 111322, Note_off_c, 0, 67, 113
1, 111347, Note_on_c, 0, 68, 113
1, 111475, Note_off_c, 0, 68, 113
1, 111531, Note_on_c, 0, 69, 116
1, 111697, Note_off_c, 0, 69, 116
1, 111735, Note_on_c, 0, 70, 116
1, 111888, Note_off_c, 0, 70, 116
1, 111944, Note_on_c, 0, 71, 107
1, 112099, Note_off_c, 0, 71, 107
1, 112124, Note_on_c, 0, 72, 110
1, 112252, Note_off_c, 0, 72, 110
1, 112555, Note_on_c, 0, 57, 100
1, 112686, Note_off_c, 0, 57, 100
1, 112710, Note_on_c, 0, 58, 96
1, 112869, Note_off_c, 0, 58, 96
1, 112932, Note_on_c, 0, 59, 101
1, 113074, Note_off_c, 0, 59, 101
1, 113130, Note_on_c, 0, 60, 97
1, 113270, Note_off_c, 0, 60, 97
1, 113302, Note_on_c, 0, 61, 100
1, 113428, Note_off_c, 0, 61, 100
1, 113468, Note_on_c, 0, 62, 102
1, 113610, Note_off_c, 0, 62, 102
1, 113648, Note_on_c, 0, 63, 103
1, 113786, Note_off_c, 0, 63, 103
1, 113807, Note_on_c, 0, 64, 101
1, 113962, Note_off_c, 0, 64, 101
1, 114004, Note_on_c, 0, 65, 105
1, 114135, Note_off_c, 0, 65, 105
1, 114199, Note_on_c, 0, 66, 109
1, 114347, Note_off_c, 0, 66, 109
1, 114381, Note_on_c, 0, 67, 111
1, 114483, Note_off_c, 0, 67, 111
1, 115120, Note_on_c, 0, 55, 95
1, 115182, Note_off_c, 0, 55, 95
1, 115257, Note_on_c, 0, 57, 100
1, 115353, Note_off_c, 0, 57, 100
1, 115362, Note_on_c, 0, 58, 92
1, 115513, Note_off_c, 0, 58, 92
1, 115569, Note_on_c, 0, 60, 94
1, 115722, Note_off_c, 0, 60, 94
1, 115747, Note_on_c, 0, 61, 96
1, 115885, Note_off_c, 0, 61, 96
1, 115914, Note_on_c, 0, 62, 99
1, 116062, Note_off_c, 0, 62, 99
1, 116109, Note_on_c, 0, 63, 101
1, 116244, Note_off_c, 0, 63, 101
1, 116262, Note_on_c, 0, 64, 96
1, 116413, Note_off_c, 0, 64, 96
1, 116471, Note_on_c, 0, 65, 103
1, 116613, Note_off_c, 0, 65, 103
1, 116636, Note_on_c, 0, 67, 112
1, 116809, Note_off_c, 0, 67, 112
1, 116832, Note_on_c, 0, 69, 114
1, 116992, Note_off_c, 0, 69, 114
1, 117023, Note_on_c, 0, 70, 113
1, 117204, Note_off_c, 0, 70, 113
1, 117231, Note_on_c, 0, 72, 97
1, 117384, Note_off_c, 0, 72, 97
1, 118016, Note_on_c, 0, 70, 105
1, 118167, Note_off_c, 0, 70, 105
1, 118196, Note_on_c, 0, 69, 111
1, 118347, Note_off_c, 0, 69, 111
1, 118370, Note_on_c, 0, 67, 111
1, 118525, Note_off_c, 0, 67, 111
1, 118543, Note_on_c, 0, 65, 108
1, 118619, Note_off_c, 0, 65, 108
1, 118653, Note_on_c, 0, 63, 100
1, 118770, Note_off_c, 0, 63, 100
1, 119047, Note_on_c, 0, 61, 100
1, 119142, Note_off_c, 0, 61, 100
1, 119151, Note_on_c, 0, 62, 96
1, 119295, Note_off_c, 0, 62, 96
1, 119316, Note_on_c, 0, 65, 105
1, 119392, Note_off_c, 0, 65, 105
1, 119519, Note_on_c, 0, 60, 97
1, 119729, Note_off_c, 0, 60, 97
1, 119748, Note_on_c, 0, 58, 81
1, 119844, Note_off_c, 0, 58, 81
1, 119869, Note_on_c, 0, 60, 103
1, 119929, Note_off_c, 0, 60, 103
1, 119946, Note_on_c, 0, 58, 94
1, 120327, Note_off_c, 0, 58, 94
1, 121016, Note_on_c, 0, 63, 98
1, 121129, Note_off_c, 0, 63, 98
1, 121158, Note_on_c, 0, 61, 95
1, 121189, Note_off_c, 0, 61, 95
1, 121207, Note_on_c, 0, 63, 104
1, 121289, Note_off_c, 0, 63, 104
1, 121303, Note_on_c, 0, 61, 98
1, 121365, Note_off_c, 0, 61, 98
1, 121392, Note_on_c, 0, 60, 87
1, 121437, Note_off_c, 0, 60, 87
1, 121487, Note_on_c, 0, 58, 93
1, 121567, Note_off_c, 0, 58, 93
1, 121711, Note_on_c, 0, 63, 106
1, 121811, Note_off_c, 0, 63, 106
1, 121862, Note_on_c, 0, 61, 96
1, 121909, Note_off_c, 0, 61, 96
1, 121927, Note_on_c, 0, 63, 99
1, 122003, Note_off_c, 0, 63, 99
1, 122017, Note_on_c, 0, 61, 95
1, 122119, Note_off_c, 0, 61, 95
1, 122129, Note_on_c, 0, 60, 92
1, 122187, Note_off_c, 0, 60, 92
1, 122220, Note_on_c, 0, 58, 94
1, 122307, Note_off_c, 0, 58, 94
1, 122436, Note_on_c, 0, 64, 105
1, 122514, Note_off_c, 0, 64, 105
1, 122638, Note_on_c, 0, 60, 97
1, 122696, Note_off_c, 0, 60, 97
1, 122714, Note_on_c, 0, 57, 97
1, 122807, Note_off_c, 0, 57, 97
1, 122823, Note_on_c, 0, 55, 97
1, 122863, Note_off_c, 0, 55, 97
1, 122888, Note_on_c, 0, 54, 96
1, 122981, Note_off_c, 0, 54, 96
1, 123059, Note_on_c, 0, 63, 105
1, 123159, Note_off_c, 0, 63, 105
1, 123184, Note_on_c, 0, 60, 92
1, 123235, Note_off_c, 0, 60, 92
1, 123253, Note_on_c, 0, 62, 101
1, 123311, Note_off_c, 0, 62, 101
1, 123353, Note_on_c, 0, 64, 103
1, 123411, Note_off_c, 0, 64, 103
1, 123443, Note_on_c, 0, 65, 106
1, 123523, Note_off_c, 0, 65, 106
1, 123541, Note_on_c, 0, 67, 102
1, 123599, Note_off_c, 0, 67, 102
1, 123624, Note_on_c, 0, 69, 112
1, 123711, Note_off_c, 0, 69, 112
1, 123740, Note_on_c, 0, 67, 114
1, 123774, Note_off_c, 0, 67, 114
1, 123810, Note_on_c, 0, 65, 109
1, 123895, Note_off_c, 0, 65, 109
1, 124013, Note_on_c, 0, 67, 113
1, 124287, Note_off_c, 0, 67, 113
1, 124307, Note_on_c, 0, 65, 92
1, 124378, Note_off_c, 0, 65, 92
1, 124390, Note_on_c, 0, 67, 113
1, 124464, Note_off_c, 0, 67, 113
1, 124480, Note_on_c, 0, 65, 102
1, 124589, Note_off_c, 0, 65, 102
1, 124962, Note_on_c, 0, 67, 102
1, 125075, Note_off_c, 0, 67, 102
1, 125120, Note_on_c, 0, 67, 114
1, 125216, Note_off_c, 0, 67, 114
1, 125241, Note_on_c, 0, 65, 107
1, 125325, Note_off_c, 0, 65, 107
1, 125527, Note_on_c, 0, 64, 102
1, 125762, Note_off_c, 0, 64, 102
1, 125798, Note_on_c, 0, 62, 89
1, 125851, Note_off_c, 0, 62, 89
1, 125860, Note_on_c, 0, 64, 104
1, 125958, Note_off_c, 0, 64, 104
1, 125978, Note_on_c, 0, 62, 96
1, 126327, Note_off_c, 0, 62, 96
1, 126888, Note_on_c, 0, 68, 112
1, 126953, Note_off_c, 0, 68, 112
1, 126976, Note_on_c, 0, 68, 111
1, 127049, Note_off_c, 0, 68, 111
1, 127070, Note_on_c, 0, 68, 113
1, 127139, Note_off_c, 0, 68, 113
1, 127170, Note_on_c, 0, 68, 111
1, 127241, Note_off_c, 0, 68, 111
1, 127264, Note_on_c, 0, 68, 113
1, 127335, Note_off_c, 0, 68, 113
1, 127464, Note_on_c, 0, 68, 103
1, 127595, Note_off_c, 0, 68, 103
1, 127860, Note_on_c, 0, 68, 111
1, 127945, Note_off_c, 0, 68, 111
1, 128169, Note_on_c, 0, 68, 107
1, 128249, Note_off_c, 0, 68, 107
1, 128395, Note_on_c, 0, 73, 96
1, 128475, Note_off_c, 0, 73, 96
1, 128568, Note_on_c, 0, 71, 113
1, 128727, Note_off_c, 0, 71, 113
1, 128772, Note_on_c, 0, 68, 99
1, 128868, Note_off_c, 0, 68, 99
1, 128975, Note_on_c, 0, 68, 111
1, 129099, Note_off_c, 0, 68, 111
1, 129146, Note_on_c, 0, 65, 100
1, 129230, Note_off_c, 0, 65, 100
1, 129332, Note_on_c, 0, 65, 108
1, 129469, Note_off_c, 0, 65, 108
1, 129507, Note_on_c, 0, 62, 107
1, 129567, Note_off_c, 0, 62, 107
1, 129607, Note_on_c, 0, 62, 97
1, 129700, Note_off_c, 0, 62, 97
1, 129782, Note_on_c, 0, 64, 109
1, 129942, Note_off_c, 0, 64, 109
1, 130110, Note_on_c, 0, 60, 101
1, 130556, Note_off_c, 0, 60, 101
1, 130556, End_track
0, 0, End_of_file
