0, 0, Header, 1, 1, 192
1, 0, Start_track
1, 0, Title_t, "Melody"
1, 0, Tempo, 451127
1, 0, Key_signature, -4, "major"
1, 0, Time_signature, 4, 2, 24, 8
1, 482, Note_on_c, 0, 60, 109
1, 578, Note_off_c, 0, 60, 109
1, 598, Note_on_c, 0, 61, 112
1, 638, Note_off_c, 0, 61, 112
1, 667, Note_on_c, 0, 60, 103
1, 746, Note_off_c, 0, 60, 103
1, 764, Note_on_c, 0, 61, 103
1, 833, Note_off_c, 0, 61, 103
1, 847, Note_on_c, 0, 60, 103
1, 914, Note_off_c, 0, 60, 103
1, 932, Note_on_c, 0, 61, 112
1, 995, Note_off_c, 0, 61, 112
1, 1011, Note_on_c, 0, 63, 112
1, 1099, Note_off_c, 0, 63, 112
1, 1185, Note_on_c, 0, 63, 110
1, 1372, Note_off_c, 0, 63, 110
1, 1396, Note_on_c, 0, 63, 111
1, 1566, Note_off_c, 0, 63, 111
1, 1581, Note_on_c, 0, 63, 111
1, 1666, Note_off_c, 0, 63, 111
1, 1679, Note_on_c, 0, 64, 107
1, 1738, Note_off_c, 0, 64, 107
1, 1760, Note_on_c, 0, 66, 110
1, 1852, Note_off_c, 0, 66, 110
1, 1858, Note_on_c, 0, 64, 112
1, 1932, Note_off_c, 0, 64, 112
1, 1964, Note_on_c, 0, 63, 107
1, 2206, Note_off_c, 0, 63, 107
1, 2243, Note_on_c, 0, 60, 106
1, 2299, Note_off_c, 0, 60, 106
1, 2336, Note_on_c, 0, 58, 105
1, 2459, Note_off_c, 0, 58, 105
1, 2470, Note_on_c, 0, 58, 97
1, 2657, Note_off_c, 0, 58, 97
1, 2698, Note_on_c, 0, 58, 94
1, 2819, Note_off_c, 0, 58, 94
1, 3133, Note_on_c, 0, 57, 101
1, 3166, Note_off_c, 0, 57, 101
1, 3181, Note_on_c, 0, 58, 97
1, 3217, Note_off_c, 0, 58, 97
1, 3224, Note_on_c, 0, 58, 99
1, 3268, Note_off_c, 0, 58, 99
1, 3283, Note_on_c, 0, 58, 106
1, 3330, Note_off_c, 0, 58, 106
1, 3353, Note_on_c, 0, 58, 107
1, 3389, Note_off_c, 0, 58, 107
1, 3401, Note_on_c, 0, 58, 112
1, 3451, Note_off_c, 0, 58, 112
1, 3468, Note_on_c, 0, 58, 113
1, 4095, Note_off_c, 0, 58, 113
1, 4159, Note_on_c, 0, 60, 112
1, 4208, Note_off_c, 0, 60, 112
1, 4230, Note_on_c, 0, 58, 107
1, 4289, Note_off_c, 0, 58, 107
1, 4940, Note_on_c, 0, 60, 109
1, 4999, Note_off_c, 0, 60, 109
1, 5016, Note_on_c, 0, 58, 104
1, 5061, Note_off_c, 0, 58, 104
1, 5321, Note_on_c, 0, 60, 103
1, 5359, Note_off_c, 0, 60, 103
1, 5386, Note_on_c, 0, 58, 101
1, 5422, Note_off_c, 0, 58, 101
1, 5510, Note_on_c, 0, 60, 111
1, 5544, Note_off_c, 0, 60, 111
1, 5564, Note_on_c, 0, 58, 107
1, 5630, Note_off_c, 0, 58, 107
1, 5768, Note_on_c, 0, 58, 104
1, 6216, Note_off_c, 0, 58, 104
1, 6549, Note_on_c, 0, 63, 115
1, 7165, Note_off_c, 0, 63, 115
1, 7227, Note_on_c, 0, 61, 115
1, 7272, Note_off_c, 0, 61, 115
1, 7327, Note_on_c, 0, 58, 109
1, 7403, Note_off_c, 0, 58, 109
1, 7423, Note_on_c, 0, 58, 106
1, 7848, Note_off_c, 0, 58, 106
1, 8204, Note_on_c, 0, 72, 120
1, 8299, Note_off_c, 0, 72, 120
1, 8367, Note_on_c, 0, 67, 113
1, 8438, Note_off_c, 0, 67, 113
1, 8462, Note_on_c, 0, 70, 118
1, 8602, Note_off_c, 0, 70, 118
1, 8636, Note_on_c, 0, 68, 110
1, 8790, Note_off_c, 0, 68, 110
1, 8821, Note_on_c, 0, 67, 110
1, 8975, Note_off_c, 0, 67, 110
1, 8999, Note_on_c, 0, 65, 112
1, 9150, Note_off_c, 0, 65, 112
1, 9197, Note_on_c, 0, 64, 112
1, 9358, Note_off_c, 0, 64, 112
1, 9380, Note_on_c, 0, 67, 105
1, 9527, Note_off_c, 0, 67, 105
1, 9570, Note_on_c, 0, 65, 112
1, 9719, Note_off_c, 0, 65, 112
1, 9749, Note_on_c, 0, 60, 105
1, 9835, Note_off_c, 0, 60, 105
1, 9881, Note_on_c, 0, 58, 107
1, 9976, Note_off_c, 0, 58, 107
1, 10082, Note_on_c, 0, 58, 104
1, 10240, Note_off_c, 0, 58, 104
1, 10339, Note_on_c, 0, 58, 94
1, 10458, Note_off_c, 0, 58, 94
1, 10755, Note_on_c, 0, 57, 94
1, 10778, Note_off_c, 0, 57, 94
1, 10796, Note_on_c, 0, 58, 94
1, 10835, Note_off_c, 0, 58, 94
1, 10846, Note_on_c, 0, 58, 105
1, 10880, Note_off_c, 0, 58, 105
1, 10898, Note_on_c, 0, 58, 107
1, 10937, Note_off_c, 0, 58, 107
1, 10955, Note_on_c, 0, 58, 108
1, 11002, Note_off_c, 0, 58, 108
1, 11016, Note_on_c, 0, 58, 108
1, 11063, Note_off_c, 0, 58, 108
1, 11071, Note_on_c, 0, 58, 108
1, 11240, Note_off_c, 0, 58, 108
1, 11264, Note_on_c, 0, 56, 102
1, 11338, Note_off_c, 0, 56, 102
1, 11449, Note_on_c, 0, 59, 105
1, 11501, Note_off_c, 0, 59, 105
1, 11506, Note_on_c, 0, 60, 111
1, 11746, Note_off_c, 0, 60, 111
1, 11989, Note_on_c, 0, 56, 100
1, 12018, Note_off_c, 0, 56, 100
1, 12051, Note_on_c, 0, 58, 102
1, 12093, Note_off_c, 0, 58, 102
1, 12169, Note_on_c, 0, 60, 102
1, 12205, Note_off_c, 0, 60, 102
1, 12241, Note_on_c, 0, 67, 108
1, 12318, Note_off_c, 0, 67, 108
1, 12354, Note_on_c, 0, 67, 112
1, 12393, Note_off_c, 0, 67, 112
1, 12411, Note_on_c, 0, 65, 107
1, 12468, Note_off_c, 0, 65, 107
1, 12527, Note_on_c, 0, 65, 113
1, 12590, Note_off_c, 0, 65, 113
1, 12608, Note_on_c, 0, 63, 110
1, 12763, Note_off_c, 0, 63, 110
1, 12803, Note_on_c, 0, 62, 113
1, 12908, Note_off_c, 0, 62, 113
1, 12916, Note_on_c, 0, 61, 114
1, 13794, Note_off_c, 0, 61, 114
1, 14146, Note_on_c, 0, 63, 111
1, 14229, Note_off_c, 0, 63, 111
1, 14295, Note_on_c, 0, 65, 111
1, 14357, Note_off_c, 0, 65, 111
1, 14457, Note_on_c, 0, 67, 109
1, 14503, Note_off_c, 0, 67, 109
1, 14520, Note_on_c, 0, 68, 114
1, 14605, Note_off_c, 0, 68, 114
1, 14706, Note_on_c, 0, 63, 114
1, 14806, Note_off_c, 0, 63, 114
1, 14908, Note_on_c, 0, 65, 113
1, 14999, Note_off_c, 0, 65, 113
1, 15017, Note_on_c, 0, 61, 116
1, 15064, Note_off_c, 0, 61, 116
1, 15090, Note_on_c, 0, 58, 108
1, 15156, Note_off_c, 0, 58, 108
1, 15210, Note_on_c, 0, 55, 104
1, 15265, Note_off_c, 0, 55, 104
1, 15269, Note_on_c, 0, 56, 101
1, 15341, Note_off_c, 0, 56, 101
1, 15402, Note_on_c, 0, 58, 105
1, 15436, Note_off_c, 0, 58, 105
1, 15462, Note_on_c, 0, 60, 107
1, 15569, Note_off_c, 0, 60, 107
1, 15655, Note_on_c, 0, 58, 101
1, 15703, Note_off_c, 0, 58, 101
1, 15787, Note_on_c, 0, 60, 108
1, 15832, Note_off_c, 0, 60, 108
1, 15838, Note_on_c, 0, 61, 106
1, 15900, Note_off_c, 0, 61, 106
1, 15978, Note_on_c, 0, 63, 111
1, 16017, Note_off_c, 0, 63, 111
1, 16037, Note_on_c, 0, 65, 111
1, 16199, Note_off_c, 0, 65, 111
1, 16228, Note_on_c, 0, 68, 118
1, 16391, Note_off_c, 0, 68, 118
1, 16417, Note_on_c, 0, 63, 116
1, 16585, Note_off_c, 0, 63, 116
1, 16606, Note_on_c, 0, 63, 114
1, 16734, Note_off_c, 0, 63, 114
1, 16742, Note_on_c, 0, 63, 110
1, 17011, Note_off_c, 0, 63, 110
1, 17585, Note_on_c, 0, 72, 127
1, 17669, Note_off_c, 0, 72, 127
1, 17762, Note_on_c, 0, 67, 120
1, 17852, Note_off_c, 0, 67, 120
1, 17951, Note_on_c, 0, 70, 123
1, 18034, Note_off_c, 0, 70, 123
1, 18081, Note_on_c, 0, 68, 125
1, 18140, Note_off_c, 0, 68, 125
1, 18141, Note_on_c, 0, 67, 120
1, 18231, Note_off_c, 0, 67, 120
1, 18248, Note_on_c, 0, 65, 110
1, 18322, Note_off_c, 0, 65, 110
1, 18351, Note_on_c, 0, 63, 106
1, 18448, Note_off_c, 0, 63, 106
1, 18473, Note_on_c, 0, 60, 114
1, 18658, Note_off_c, 0, 60, 114
1, 18708, Note_on_c, 0, 64, 108
1, 18820, Note_off_c, 0, 64, 108
1, 18829, Note_on_c, 0, 60, 114
1, 18895, Note_off_c, 0, 60, 114
1, 19101, Note_on_c, 0, 64, 110
1, 19156, Note_off_c, 0, 64, 110
1, 19157, Note_on_c, 0, 65, 116
1, 19625, Note_off_c, 0, 65, 116
1, 19810, Note_on_c, 0, 60, 109
1, 19850, Note_off_c, 0, 60, 109
1, 19873, Note_on_c, 0, 63, 116
1, 19928, Note_off_c, 0, 63, 116
1, 19946, Note_on_c, 0, 60, 93
1, 19985, Note_off_c, 0, 60, 93
1, 19991, Note_on_c, 0, 61, 114
1, 20040, Note_off_c, 0, 61, 114
1, 20070, Note_on_c, 0, 63, 114
1, 20114, Note_off_c, 0, 63, 114
1, 20137, Note_on_c, 0, 60, 108
1, 20180, Note_off_c, 0, 60, 108
1, 20188, Note_on_c, 0, 61, 112
1, 20226, Note_off_c, 0, 61, 112
1, 20254, Note_on_c, 0, 63, 112
1, 20297, Note_off_c, 0, 63, 112
1, 20324, Note_on_c, 0, 60, 107
1, 20362, Note_off_c, 0, 60, 107
1, 20368, Note_on_c, 0, 61, 111
1, 20413, Note_off_c, 0, 61, 111
1, 20435, Note_on_c, 0, 63, 113
1, 20535, Note_off_c, 0, 63, 113
1, 20648, Note_on_c, 0, 67, 118
1, 20706, Note_off_c, 0, 67, 118
1, 20707, Note_on_c, 0, 64, 105
1, 20737, Note_off_c, 0, 64, 105
1, 20746, Note_on_c, 0, 65, 112
1, 20801, Note_off_c, 0, 65, 112
1, 20812, Note_on_c, 0, 67, 116
1, 21071, Note_off_c, 0, 67, 116
1, 21084, Note_on_c, 0, 64, 99
1, 21113, Note_off_c, 0, 64, 99
1, 21124, Note_on_c, 0, 65, 113
1, 21169, Note_off_c, 0, 65, 113
1, 21195, Note_on_c, 0, 67, 115
1, 21250, Note_off_c, 0, 67, 115
1, 21262, Note_on_c, 0, 64, 106
1, 21296, Note_off_c, 0, 64, 106
1, 21305, Note_on_c, 0, 65, 113
1, 21349, Note_off_c, 0, 65, 113
1, 21358, Note_on_c, 0, 67, 120
1, 21401, Note_off_c, 0, 67, 120
1, 21796, Note_on_c, 0, 67, 118
1, 21836, Note_off_c, 0, 67, 118
1, 21848, Note_on_c, 0, 64, 110
1, 21875, Note_off_c, 0, 64, 110
1, 21891, Note_on_c, 0, 65, 104
1, 21933, Note_off_c, 0, 65, 104
1, 21962, Note_on_c, 0, 67, 117
1, 22015, Note_off_c, 0, 67, 117
1, 22031, Note_on_c, 0, 64, 96
1, 22060, Note_off_c, 0, 64, 96
1, 22069, Note_on_c, 0, 65, 110
1, 22109, Note_off_c, 0, 65, 110
1, 22139, Note_on_c, 0, 70, 117
1, 22235, Note_off_c, 0, 70, 117
1, 22309, Note_on_c, 0, 70, 119
1, 22616, Note_off_c, 0, 70, 119
1, 22648, Note_on_c, 0, 68, 117
1, 22698, Note_off_c, 0, 68, 117
1, 22720, Note_on_c, 0, 67, 115
1, 22771, Note_off_c, 0, 67, 115
1, 22787, Note_on_c, 0, 64, 101
1, 22825, Note_off_c, 0, 64, 101
1, 22827, Note_on_c, 0, 65, 107
1, 22885, Note_off_c, 0, 65, 107
1, 22890, Note_on_c, 0, 67, 113
1, 22974, Note_off_c, 0, 67, 113
1, 22985, Note_on_c, 0, 65, 110
1, 23086, Note_off_c, 0, 65, 110
1, 23092, Note_on_c, 0, 67, 112
1, 23132, Note_off_c, 0, 67, 112
1, 23141, Note_on_c, 0, 65, 109
1, 23258, Note_off_c, 0, 65, 109
1, 23274, Note_on_c, 0, 67, 112
1, 23306, Note_off_c, 0, 67, 112
1, 23322, Note_on_c, 0, 65, 100
1, 23398, Note_off_c, 0, 65, 100
1, 23482, Note_on_c, 0, 67, 110
1, 23519, Note_off_c, 0, 67, 110
1, 23535, Note_on_c, 0, 65, 82
1, 23617, Note_off_c, 0, 65, 82
1, 23667, Note_on_c, 0, 58, 86
1, 23849, Note_off_c, 0, 58, 86
1, 24157, Note_on_c, 0, 65, 109
1, 24207, Note_off_c, 0, 65, 109
1, 24214, Note_on_c, 0, 67, 9
1, 24268, Note_off_c, 0, 67, 9
1, 24352, Note_on_c, 0, 68, 119
1, 24403, Note_off_c, 0, 68, 119
1, 24410, Note_on_c, 0, 67, 113
1, 24458, Note_off_c, 0, 67, 113
1, 24742, Note_on_c, 0, 65, 108
1, 24791, Note_off_c, 0, 65, 108
1, 24800, Note_on_c, 0, 64, 107
1, 24844, Note_off_c, 0, 64, 107
1, 25110, Note_on_c, 0, 67, 111
1, 25171, Note_off_c, 0, 67, 111
1, 25182, Note_on_c, 0, 65, 113
1, 25237, Note_off_c, 0, 65, 113
1, 25513, Note_on_c, 0, 68, 121
1, 25568, Note_off_c, 0, 68, 121
1, 25591, Note_on_c, 0, 66, 109
1, 25625, Note_off_c, 0, 66, 109
1, 25885, Note_on_c, 0, 70, 117
1, 25949, Note_off_c, 0, 70, 117
1, 25970, Note_on_c, 0, 68, 116
1, 26041, Note_off_c, 0, 68, 116
1, 26284, Note_on_c, 0, 73, 120
1, 26338, Note_off_c, 0, 73, 120
1, 26355, Note_on_c, 0, 72, 110
1, 26426, Note_off_c, 0, 72, 110
1, 26470, Note_on_c, 0, 70, 122
1, 26515, Note_off_c, 0, 70, 122
1, 26519, Note_on_c, 0, 68, 111
1, 26578, Note_off_c, 0, 68, 111
1, 26872, Note_on_c, 0, 64, 113
1, 26894, Note_off_c, 0, 64, 113
1, 26901, Note_on_c, 0, 65, 110
1, 27085, Note_off_c, 0, 65, 110
1, 27109, Note_on_c, 0, 63, 106
1, 27251, Note_off_c, 0, 63, 106
1, 27284, Note_on_c, 0, 60, 102
1, 27444, Note_off_c, 0, 60, 102
1, 27494, Note_on_c, 0, 56, 94
1, 27754, Note_off_c, 0, 56, 94
1, 28190, Note_on_c, 0, 65, 116
1, 28234, Note_off_c, 0, 65, 116
1, 28264, Note_on_c, 0, 63, 105
1, 28306, Note_off_c, 0, 63, 105
1, 28401, Note_on_c, 0, 60, 92
1, 28434, Note_off_c, 0, 60, 92
1, 28458, Note_on_c, 0, 56, 101
1, 28556, Note_off_c, 0, 56, 101
1, 28652, Note_on_c, 0, 56, 103
1, 28799, Note_off_c, 0, 56, 103
1, 28852, Note_on_c, 0, 56, 109
1, 28952, Note_off_c, 0, 56, 109
1, 28983, Note_on_c, 0, 56, 98
1, 29274, Note_off_c, 0, 56, 98
1, 29741, Note_on_c, 0, 60, 105
1, 29789, Note_off_c, 0, 60, 105
1, 29804, Note_on_c, 0, 65, 105
1, 29869, Note_off_c, 0, 65, 105
1, 29873, Note_on_c, 0, 67, 106
1, 29906, Note_off_c, 0, 67, 106
1, 29916, Note_on_c, 0, 68, 116
1, 29962, Note_off_c, 0, 68, 116
1, 29994, Note_on_c, 0, 68, 117
1, 30036, Note_off_c, 0, 68, 117
1, 30049, Note_on_c, 0, 67, 107
1, 30102, Note_off_c, 0, 67, 107
1, 30110, Note_on_c, 0, 65, 108
1, 30165, Note_off_c, 0, 65, 108
1, 30185, Note_on_c, 0, 65, 108
1, 30241, Note_off_c, 0, 65, 108
1, 30241, Note_on_c, 0, 67, 103
1, 30289, Note_off_c, 0, 67, 103
1, 30298, Note_on_c, 0, 68, 120
1, 30353, Note_off_c, 0, 68, 120
1, 30378, Note_on_c, 0, 68, 119
1, 30432, Note_off_c, 0, 68, 119
1, 30434, Note_on_c, 0, 67, 112
1, 30480, Note_off_c, 0, 67, 112
1, 30488, Note_on_c, 0, 65, 110
1, 30544, Note_off_c, 0, 65, 110
1, 30553, Note_on_c, 0, 64, 112
1, 30806, Note_off_c, 0, 64, 112
1, 30828, Note_on_c, 0, 64, 102
1, 30874, Note_off_c, 0, 64, 102
1, 30889, Note_on_c, 0, 65, 104
1, 30922, Note_off_c, 0, 65, 104
1, 30943, Note_on_c, 0, 67, 112
1, 31022, Note_off_c, 0, 67, 112
1, 31141, Note_on_c, 0, 67, 117
1, 31181, Note_off_c, 0, 67, 117
1, 31199, Note_on_c, 0, 65, 108
1, 31245, Note_off_c, 0, 65, 108
1, 31256, Note_on_c, 0, 64, 108
1, 31307, Note_off_c, 0, 64, 108
1, 31321, Note_on_c, 0, 63, 105
1, 31548, Note_off_c, 0, 63, 105
1, 31575, Note_on_c, 0, 65, 107
1, 31625, Note_off_c, 0, 65, 107
1, 31633, Note_on_c, 0, 67, 113
1, 31677, Note_off_c, 0, 67, 113
1, 31686, Note_on_c, 0, 67, 114
1, 31736, Note_off_c, 0, 67, 114
1, 31750, Note_on_c, 0, 65, 107
1, 31802, Note_off_c, 0, 65, 107
1, 31819, Note_on_c, 0, 63, 107
1, 31878, Note_off_c, 0, 63, 107
1, 31900, Note_on_c, 0, 63, 107
1, 32016, Note_off_c, 0, 63, 107
1, 32091, Note_on_c, 0, 62, 108
1, 32310, Note_off_c, 0, 62, 108
1, 32339, Note_on_c, 0, 63, 100
1, 32381, Note_off_c, 0, 63, 100
1, 32397, Note_on_c, 0, 65, 111
1, 32445, Note_off_c, 0, 65, 111
1, 32464, Note_on_c, 0, 65, 113
1, 32517, Note_off_c, 0, 65, 113
1, 32856, Note_on_c, 0, 58, 99
1, 32885, Note_off_c, 0, 58, 99
1, 32904, Note_on_c, 0, 60, 104
1, 32939, Note_off_c, 0, 60, 104
1, 32952, Note_on_c, 0, 61, 112
1, 33000, Note_off_c, 0, 61, 112
1, 33014, Note_on_c, 0, 61, 110
1, 33122, Note_off_c, 0, 61, 110
1, 33159, Note_on_c, 0, 61, 104
1, 33585, Note_off_c, 0, 61, 104
1, 34007, Note_on_c, 0, 58, 105
1, 34052, Note_off_c, 0, 58, 105
1, 34074, Note_on_c, 0, 60, 102
1, 34114, Note_off_c, 0, 60, 102
1, 34118, Note_on_c, 0, 61, 103
1, 34177, Note_off_c, 0, 61, 103
1, 34189, Note_on_c, 0, 60, 96
1, 34248, Note_off_c, 0, 60, 96
1, 34270, Note_on_c, 0, 61, 97
1, 34297, Note_off_c, 0, 61, 97
1, 34314, Note_on_c, 0, 63, 104
1, 34360, Note_off_c, 0, 63, 104
1, 34386, Note_on_c, 0, 61, 103
1, 34424, Note_off_c, 0, 61, 103
1, 34441, Note_on_c, 0, 63, 94
1, 34486, Note_off_c, 0, 63, 94
1, 34498, Note_on_c, 0, 65, 109
1, 34544, Note_off_c, 0, 65, 109
1, 34563, Note_on_c, 0, 63, 99
1, 34601, Note_off_c, 0, 63, 99
1, 34619, Note_on_c, 0, 61, 104
1, 34661, Note_off_c, 0, 61, 104
1, 34675, Note_on_c, 0, 60, 104
1, 34710, Note_off_c, 0, 60, 104
1, 34747, Note_on_c, 0, 58, 102
1, 34789, Note_off_c, 0, 58, 102
1, 34801, Note_on_c, 0, 56, 93
1, 34836, Note_off_c, 0, 56, 93
1, 34862, Note_on_c, 0, 55, 90
1, 34907, Note_off_c, 0, 55, 90
1, 34935, Note_on_c, 0, 53, 101
1, 34957, Note_off_c, 0, 53, 101
1, 34962, Note_on_c, 0, 51, 93
1, 35029, Note_off_c, 0, 51, 93
1, 35440, Note_on_c, 0, 62, 110
1, 35474, Note_off_c, 0, 62, 110
1, 35499, Note_on_c, 0, 63, 106
1, 36140, Note_off_c, 0, 63, 106
1, 36227, Note_on_c, 0, 56, 95
1, 36270, Note_off_c, 0, 56, 95
1, 36291, Note_on_c, 0, 58, 110
1, 36346, Note_off_c, 0, 58, 110
1, 36588, Note_on_c, 0, 60, 112
1, 36631, Note_off_c, 0, 60, 112
1, 36656, Note_on_c, 0, 58, 108
1, 36733, Note_off_c, 0, 58, 108
1, 36963, Note_on_c, 0, 60, 110
1, 37009, Note_off_c, 0, 60, 110
1, 37030, Note_on_c, 0, 58, 101
1, 37101, Note_off_c, 0, 58, 101
1, 37356, Note_on_c, 0, 72, 119
1, 37417, Note_off_c, 0, 72, 119
1, 37438, Note_on_c, 0, 71, 119
1, 37486, Note_off_c, 0, 71, 119
1, 37715, Note_on_c, 0, 58, 109
1, 37775, Note_off_c, 0, 58, 109
1, 37796, Note_on_c, 0, 56, 105
1, 37830, Note_off_c, 0, 56, 105
1, 38093, Note_on_c, 0, 60, 116
1, 38142, Note_off_c, 0, 60, 116
1, 38167, Note_on_c, 0, 58, 109
1, 38225, Note_off_c, 0, 58, 109
1, 38480, Note_on_c, 0, 72, 122
1, 38540, Note_off_c, 0, 72, 122
1, 38551, Note_on_c, 0, 70, 122
1, 38617, Note_off_c, 0, 70, 122
1, 38877, Note_on_c, 0, 60, 117
1, 38922, Note_off_c, 0, 60, 117
1, 38943, Note_on_c, 0, 58, 107
1, 39088, Note_off_c, 0, 58, 107
1, 39126, Note_on_c, 0, 56, 104
1, 39214, Note_off_c, 0, 56, 104
1, 39314, Note_on_c, 0, 58, 106
1, 39381, Note_off_c, 0, 58, 106
1, 39384, Note_on_c, 0, 56, 94
1, 39411, Note_off_c, 0, 56, 94
1, 39622, Note_on_c, 0, 60, 99
1, 39668, Note_off_c, 0, 60, 99
1, 39711, Note_on_c, 0, 69, 102
1, 39772, Note_off_c, 0, 69, 102
1, 39813, Note_on_c, 0, 67, 114
1, 39871, Note_off_c, 0, 67, 114
1, 39880, Note_on_c, 0, 65, 105
1, 39965, Note_off_c, 0, 65, 105
1, 40011, Note_on_c, 0, 65, 103
1, 40070, Note_off_c, 0, 65, 103
1, 40080, Note_on_c, 0, 63, 104
1, 40236, Note_off_c, 0, 63, 104
1, 40270, Note_on_c, 0, 62, 110
1, 40384, Note_off_c, 0, 62, 110
1, 40393, Note_on_c, 0, 61, 108
1, 40701, Note_off_c, 0, 61, 108
1, 40766, Note_on_c, 0, 52, 95
1, 40801, Note_off_c, 0, 52, 95
1, 40846, Note_on_c, 0, 60, 104
1, 40940, Note_off_c, 0, 60, 104
1, 40956, Note_on_c, 0, 58, 98
1, 41340, Note_off_c, 0, 58, 98
1, 41818, Note_on_c, 0, 63, 100
1, 41856, Note_off_c, 0, 63, 100
1, 41865, Note_on_c, 0, 65, 98
1, 41911, Note_off_c, 0, 65, 98
1, 41919, Note_on_c, 0, 67, 114
1, 41963, Note_off_c, 0, 67, 114
1, 41991, Note_on_c, 0, 68, 119
1, 42100, Note_off_c, 0, 68, 119
1, 42175, Note_on_c, 0, 63, 104
1, 42307, Note_off_c, 0, 63, 104
1, 42378, Note_on_c, 0, 63, 103
1, 42448, Note_off_c, 0, 63, 103
1, 42500, Note_on_c, 0, 65, 108
1, 42553, Note_off_c, 0, 65, 108
1, 42570, Note_on_c, 0, 63, 103
1, 42624, Note_off_c, 0, 63, 103
1, 42688, Note_on_c, 0, 61, 105
1, 42733, Note_off_c, 0, 61, 105
1, 42788, Note_on_c, 0, 59, 101
1, 42830, Note_off_c, 0, 59, 101
1, 42837, Note_on_c, 0, 60, 106
1, 42944, Note_off_c, 0, 60, 106
1, 42952, Note_on_c, 0, 56, 100
1, 43069, Note_off_c, 0, 56, 100
1, 43080, Note_on_c, 0, 58, 103
1, 43448, Note_off_c, 0, 58, 103
1, 43739, Note_on_c, 0, 51, 95
1, 43774, Note_off_c, 0, 51, 95
1, 43781, Note_on_c, 0, 53, 88
1, 43834, Note_off_c, 0, 53, 88
1, 43848, Note_on_c, 0, 55, 91
1, 43901, Note_off_c, 0, 55, 91
1, 43909, Note_on_c, 0, 56, 90
1, 43958, Note_off_c, 0, 56, 90
1, 43964, Note_on_c, 0, 58, 96
1, 44011, Note_off_c, 0, 58, 96
1, 44027, Note_on_c, 0, 60, 103
1, 44067, Note_off_c, 0, 60, 103
1, 44092, Note_on_c, 0, 61, 106
1, 44146, Note_off_c, 0, 61, 106
1, 44158, Note_on_c, 0, 60, 101
1, 44187, Note_off_c, 0, 60, 101
1, 44198, Note_on_c, 0, 58, 95
1, 44251, Note_off_c, 0, 58, 95
1, 44279, Note_on_c, 0, 63, 107
1, 44493, Note_off_c, 0, 63, 107
1, 44535, Note_on_c, 0, 61, 101
1, 44580, Note_off_c, 0, 61, 101
1, 44586, Note_on_c, 0, 60, 94
1, 44632, Note_off_c, 0, 60, 94
1, 44653, Note_on_c, 0, 65, 105
1, 44884, Note_off_c, 0, 65, 105
1, 44922, Note_on_c, 0, 63, 99
1, 44955, Note_off_c, 0, 63, 99
1, 44970, Note_on_c, 0, 61, 100
1, 45017, Note_off_c, 0, 61, 100
1, 45033, Note_on_c, 0, 67, 117
1, 45063, Note_off_c, 0, 67, 117
1, 45079, Note_on_c, 0, 65, 107
1, 45125, Note_off_c, 0, 65, 107
1, 45138, Note_on_c, 0, 63, 97
1, 45181, Note_off_c, 0, 63, 97
1, 45213, Note_on_c, 0, 68, 116
1, 45276, Note_off_c, 0, 68, 116
1, 45549, Note_on_c, 0, 67, 116
1, 45669, Note_off_c, 0, 67, 116
1, 45730, Note_on_c, 0, 65, 104
1, 45788, Note_off_c, 0, 65, 104
1, 45797, Note_on_c, 0, 64, 105
1, 45860, Note_off_c, 0, 64, 105
1, 45987, Note_on_c, 0, 67, 115
1, 46147, Note_off_c, 0, 67, 115
1, 46175, Note_on_c, 0, 65, 117
1, 46299, Note_off_c, 0, 65, 117
1, 46375, Note_on_c, 0, 60, 107
1, 46442, Note_off_c, 0, 60, 107
1, 46545, Note_on_c, 0, 65, 110
1, 46655, Note_off_c, 0, 65, 110
1, 46884, Note_on_c, 0, 60, 105
1, 46927, Note_off_c, 0, 60, 105
1, 46945, Note_on_c, 0, 65, 107
1, 47021, Note_off_c, 0, 65, 107
1, 47079, Note_on_c, 0, 60, 110
1, 47116, Note_off_c, 0, 60, 110
1, 47138, Note_on_c, 0, 56, 99
1, 47240, Note_off_c, 0, 56, 99
1, 47338, Note_on_c, 0, 63, 103
1, 47431, Note_off_c, 0, 63, 103
1, 47456, Note_on_c, 0, 61, 102
1, 47727, Note_off_c, 0, 61, 102
1, 47899, Note_on_c, 0, 68, 119
1, 47964, Note_off_c, 0, 68, 119
1, 48031, Note_on_c, 0, 60, 103
1, 48065, Note_off_c, 0, 60, 103
1, 48122, Note_on_c, 0, 66, 110
1, 48160, Note_off_c, 0, 66, 110
1, 48167, Note_on_c, 0, 67, 112
1, 48207, Note_off_c, 0, 67, 112
1, 48211, Note_on_c, 0, 67, 121
1, 48269, Note_off_c, 0, 67, 121
1, 48287, Note_on_c, 0, 67, 119
1, 48448, Note_off_c, 0, 67, 119
1, 48466, Note_on_c, 0, 67, 118
1, 48579, Note_off_c, 0, 67, 118
1, 48655, Note_on_c, 0, 67, 114
1, 48785, Note_off_c, 0, 67, 114
1, 48843, Note_on_c, 0, 67, 117
1, 49011, Note_off_c, 0, 67, 117
1, 49046, Note_on_c, 0, 67, 114
1, 49143, Note_off_c, 0, 67, 114
1, 49188, Note_on_c, 0, 67, 115
1, 49314, Note_off_c, 0, 67, 115
1, 49364, Note_on_c, 0, 65, 111
1, 49427, Note_off_c, 0, 65, 111
1, 49436, Note_on_c, 0, 64, 105
1, 49531, Note_off_c, 0, 64, 105
1, 49542, Note_on_c, 0, 65, 9
1, 49609, Note_off_c, 0, 65, 9
1, 49649, Note_on_c, 0, 70, 116
1, 50045, Note_off_c, 0, 70, 116
1, 50301, Note_on_c, 0, 68, 116
1, 50378, Note_off_c, 0, 68, 116
1, 50392, Note_on_c, 0, 67, 114
1, 50466, Note_off_c, 0, 67, 114
1, 50499, Note_on_c, 0, 65, 103
1, 50926, Note_off_c, 0, 65, 103
1, 51643, Note_on_c, 0, 65, 111
1, 51685, Note_off_c, 0, 65, 111
1, 51711, Note_on_c, 0, 67, 119
1, 51762, Note_off_c, 0, 67, 119
1, 51830, Note_on_c, 0, 68, 123
1, 51885, Note_off_c, 0, 68, 123
1, 51899, Note_on_c, 0, 67, 117
1, 52065, Note_off_c, 0, 67, 117
1, 52093, Note_on_c, 0, 65, 108
1, 52242, Note_off_c, 0, 65, 108
1, 52280, Note_on_c, 0, 64, 108
1, 52343, Note_off_c, 0, 64, 108
1, 52408, Note_on_c, 0, 61, 112
1, 52451, Note_off_c, 0, 61, 112
1, 52485, Note_on_c, 0, 60, 112
1, 52549, Note_off_c, 0, 60, 112
1, 52595, Note_on_c, 0, 58, 108
1, 52648, Note_off_c, 0, 58, 108
1, 52667, Note_on_c, 0, 55, 105
1, 52780, Note_off_c, 0, 55, 105
1, 52795, Note_on_c, 0, 56, 109
1, 53006, Note_off_c, 0, 56, 109
1, 53322, Note_on_c, 0, 68, 116
1, 53370, Note_off_c, 0, 68, 116
1, 53374, Note_on_c, 0, 67, 118
1, 53420, Note_off_c, 0, 67, 118
1, 53426, Note_on_c, 0, 66, 113
1, 53481, Note_off_c, 0, 66, 113
1, 53497, Note_on_c, 0, 58, 88
1, 53535, Note_off_c, 0, 58, 88
1, 53543, Note_on_c, 0, 61, 109
1, 53592, Note_off_c, 0, 61, 109
1, 53603, Note_on_c, 0, 65, 108
1, 53641, Note_off_c, 0, 65, 108
1, 53659, Note_on_c, 0, 63, 107
1, 53694, Note_off_c, 0, 63, 107
1, 53713, Note_on_c, 0, 61, 111
1, 53771, Note_off_c, 0, 61, 111
1, 53789, Note_on_c, 0, 60, 112
1, 53841, Note_off_c, 0, 60, 112
1, 53915, Note_on_c, 0, 58, 109
1, 53966, Note_off_c, 0, 58, 109
1, 53970, Note_on_c, 0, 57, 102
1, 54081, Note_off_c, 0, 57, 102
1, 54098, Note_on_c, 0, 56, 110
1, 54445, Note_off_c, 0, 56, 110
1, 54493, Note_on_c, 0, 63, 112
1, 54567, Note_off_c, 0, 63, 112
1, 54570, Note_on_c, 0, 62, 104
1, 54725, Note_off_c, 0, 62, 104
1, 54742, Note_on_c, 0, 63, 110
1, 54819, Note_off_c, 0, 63, 110
1, 54939, Note_on_c, 0, 56, 109
1, 55017, Note_off_c, 0, 56, 109
1, 55254, Note_on_c, 0, 58, 105
1, 55304, Note_off_c, 0, 58, 105
1, 55315, Note_on_c, 0, 60, 115
1, 55404, Note_off_c, 0, 60, 115
1, 55647, Note_on_c, 0, 51, 100
1, 55698, Note_off_c, 0, 51, 100
1, 55725, Note_on_c, 0, 53, 97
1, 55781, Note_off_c, 0, 53, 97
1, 55845, Note_on_c, 0, 55, 104
1, 55885, Note_off_c, 0, 55, 104
1, 55894, Note_on_c, 0, 56, 104
1, 55979, Note_off_c, 0, 56, 104
1, 56015, Note_on_c, 0, 58, 102
1, 56070, Note_off_c, 0, 58, 102
1, 56094, Note_on_c, 0, 60, 108
1, 56191, Note_off_c, 0, 60, 108
1, 56195, Note_on_c, 0, 61, 112
1, 56263, Note_off_c, 0, 61, 112
1, 56272, Note_on_c, 0, 63, 110
1, 56368, Note_off_c, 0, 63, 110
1, 56371, Note_on_c, 0, 61, 111
1, 56442, Note_off_c, 0, 61, 111
1, 56447, Note_on_c, 0, 60, 109
1, 56548, Note_off_c, 0, 60, 109
1, 56573, Note_on_c, 0, 61, 113
1, 56784, Note_off_c, 0, 61, 113
1, 56847, Note_on_c, 0, 58, 97
1, 56986, Note_off_c, 0, 58, 97
1, 57025, Note_on_c, 0, 60, 103
1, 57113, Note_off_c, 0, 60, 103
1, 57135, Note_on_c, 0, 56, 99
1, 57501, Note_off_c, 0, 56, 99
1, 57501, End_track
0, 0, End_of_file
