0, 0, Header, 1, 1, 840
1, 0, Start_track
1, 0, Title_t, "Melody"
1, 0, Tempo, 465116
1, 0, Key_signature, -1, "major"
1, 0, Time_signature, 4, 2, 24, 8
1, 15736, Note_on_c, 0, 58, 114
1, 16197, Note_off_c, 0, 58, 114
1, 16249, Note_on_c, 0, 57, 112
1, 16668, Note_off_c, 0, 57, 112
1, 19079, Note_on_c, 0, 58, 112
1, 19511, Note_off_c, 0, 58, 112
1, 19539, Note_on_c, 0, 57, 113
1, 19929, Note_off_c, 0, 57, 113
1, 20010, Note_on_c, 0, 58, 111
1, 20430, Note_off_c, 0, 58, 111
1, 20444, Note_on_c, 0, 57, 114
1, 20746, Note_off_c, 0, 57, 114
1, 20849, Note_on_c, 0, 58, 99
1, 21350, Note_off_c, 0, 58, 99
1, 21364, Note_on_c, 0, 57, 106
1, 21725, Note_off_c, 0, 57, 106
1, 22030, Note_on_c, 0, 53, 104
1, 22514, Note_off_c, 0, 53, 104
1, 22532, Note_on_c, 0, 51, 107
1, 22925, Note_off_c, 0, 51, 107
1, 24392, Note_on_c, 0, 61, 114
1, 24719, Note_off_c, 0, 61, 114
1, 24745, Note_on_c, 0, 62, 118
1, 25688, Note_off_c, 0, 62, 118
1, 25737, Note_on_c, 0, 60, 115
1, 26072, Note_off_c, 0, 60, 115
1, 26355, Note_on_c, 0, 53, 101
1, 26695, Note_off_c, 0, 53, 101
1, 26721, Note_on_c, 0, 53, 104
1, 27022, Note_off_c, 0, 53, 104
1, 27074, Note_on_c, 0, 53, 101
1, 27558, Note_off_c, 0, 53, 101
1, 27780, Note_on_c, 0, 53, 96
1, 28356, Note_off_c, 0, 53, 96
1, 29433, Note_on_c, 0, 53, 94
1, 30148, Note_off_c, 0, 53, 94
1, 31173, Note_on_c, 0, 53, 94
1, 31592, Note_off_c, 0, 53, 94
1, 31606, Note_on_c, 0, 55, 112
1, 31856, Note_off_c, 0, 55, 112
1, 31914, Note_on_c, 0, 56, 112
1, 32341, Note_off_c, 0, 56, 112
1, 32363, Note_on_c, 0, 58, 113
1, 32724, Note_off_c, 0, 58, 113
1, 33151, Note_on_c, 0, 59, 106
1, 33357, Note_off_c, 0, 59, 106
1, 33408, Note_on_c, 0, 59, 118
1, 33695, Note_off_c, 0, 59, 118
1, 33805, Note_on_c, 0, 59, 118
1, 34239, Note_off_c, 0, 59, 118
1, 34607, Note_on_c, 0, 59, 118
1, 34916, Note_off_c, 0, 59, 118
1, 35683, Note_on_c, 0, 62, 119
1, 36081, Note_off_c, 0, 62, 119
1, 36122, Note_on_c, 0, 60, 118
1, 36606, Note_off_c, 0, 60, 118
1, 36624, Note_on_c, 0, 57, 118
1, 36896, Note_off_c, 0, 57, 118
1, 37735, Note_on_c, 0, 58, 119
1, 38236, Note_off_c, 0, 58, 119
1, 39882, Note_on_c, 0, 59, 118
1, 40165, Note_off_c, 0, 59, 118
1, 40313, Note_on_c, 0, 60, 116
1, 40799, Note_off_c, 0, 60, 116
1, 41742, Note_on_c, 0, 57, 95
1, 41977, Note_off_c, 0, 57, 95
1, 41994, Note_on_c, 0, 58, 103
1, 42242, Note_off_c, 0, 58, 103
1, 42270, Note_on_c, 0, 62, 91
1, 42439, Note_off_c, 0, 62, 91
1, 42483, Note_on_c, 0, 65, 121
1, 42711, Note_off_c, 0, 65, 121
1, 42954, Note_on_c, 0, 69, 119
1, 43573, Note_off_c, 0, 69, 119
1, 43681, Note_on_c, 0, 67, 114
1, 44074, Note_off_c, 0, 67, 114
1, 44163, Note_on_c, 0, 65, 106
1, 44529, Note_off_c, 0, 65, 106
1, 44596, Note_on_c, 0, 64, 111
1, 45082, Note_off_c, 0, 64, 111
1, 45277, Note_on_c, 0, 58, 106
1, 45774, Note_off_c, 0, 58, 106
1, 45839, Note_on_c, 0, 62, 112
1, 46192, Note_off_c, 0, 62, 112
1, 46214, Note_on_c, 0, 60, 112
1, 46715, Note_off_c, 0, 60, 112
1, 46744, Note_on_c, 0, 57, 102
1, 47385, Note_off_c, 0, 57, 102
1, 47849, Note_on_c, 0, 57, 102
1, 48464, Note_off_c, 0, 57, 102
1, 53398, Note_on_c, 0, 60, 93
1, 53611, Note_off_c, 0, 60, 93
1, 53670, Note_on_c, 0, 65, 110
1, 54312, Note_off_c, 0, 65, 110
1, 54312, Note_on_c, 0, 57, 86
1, 54495, Note_off_c, 0, 57, 86
1, 54547, Note_on_c, 0, 63, 99
1, 55254, Note_off_c, 0, 63, 99
1, 55306, Note_on_c, 0, 67, 111
1, 55712, Note_off_c, 0, 67, 111
1, 55738, Note_on_c, 0, 65, 96
1, 56018, Note_off_c, 0, 65, 96
1, 56956, Note_on_c, 0, 60, 107
1, 57624, Note_off_c, 0, 60, 107
1, 57624, Note_on_c, 0, 57, 78
1, 57786, Note_off_c, 0, 57, 78
1, 57830, Note_on_c, 0, 58, 112
1, 58459, Note_off_c, 0, 58, 112
1, 58470, Note_on_c, 0, 56, 116
1, 58853, Note_off_c, 0, 56, 116
1, 60088, Note_on_c, 0, 60, 98
1, 60338, Note_off_c, 0, 60, 98
1, 60414, Note_on_c, 0, 65, 120
1, 60952, Note_off_c, 0, 65, 120
1, 61050, Note_on_c, 0, 61, 92
1, 61186, Note_off_c, 0, 61, 92
1, 61186, Note_on_c, 0, 63, 112
1, 61731, Note_off_c, 0, 63, 112
1, 61745, Note_on_c, 0, 65, 114
1, 62047, Note_off_c, 0, 65, 114
1, 62570, Note_on_c, 0, 64, 116
1, 62857, Note_off_c, 0, 64, 116
1, 62884, Note_on_c, 0, 63, 111
1, 63408, Note_off_c, 0, 63, 111
1, 63453, Note_on_c, 0, 56, 94
1, 63600, Note_off_c, 0, 56, 94
1, 63607, Note_on_c, 0, 58, 103
1, 64144, Note_off_c, 0, 58, 103
1, 64144, Note_on_c, 0, 62, 114
1, 64564, Note_off_c, 0, 62, 114
1, 64571, Note_on_c, 0, 60, 107
1, 64846, Note_off_c, 0, 60, 107
1, 64924, Note_on_c, 0, 61, 115
1, 65322, Note_off_c, 0, 61, 115
1, 65322, Note_on_c, 0, 57, 113
1, 65911, Note_on_c, 0, 52, 91
1, 65911, Note_off_c, 0, 57, 113
1, 66110, Note_off_c, 0, 52, 91
1, 66110, Note_on_c, 0, 60, 116
1, 66707, Note_on_c, 0, 58, 97
1, 66707, Note_off_c, 0, 60, 116
1, 67856, Note_off_c, 0, 58, 97
1, 70553, Note_on_c, 0, 60, 108
1, 70958, Note_off_c, 0, 60, 108
1, 70994, Note_on_c, 0, 61, 113
1, 71237, Note_off_c, 0, 61, 113
1, 71295, Note_on_c, 0, 62, 109
1, 71862, Note_off_c, 0, 62, 109
1, 71876, Note_on_c, 0, 65, 117
1, 72072, Note_off_c, 0, 65, 117
1, 72081, Note_on_c, 0, 67, 125
1, 72670, Note_off_c, 0, 67, 125
1, 72686, Note_on_c, 0, 65, 108
1, 72830, Note_off_c, 0, 65, 108
1, 72905, Note_on_c, 0, 67, 124
1, 73236, Note_off_c, 0, 67, 124
1, 73294, Note_on_c, 0, 68, 104
1, 73529, Note_off_c, 0, 68, 104
1, 73529, Note_on_c, 0, 58, 104
1, 73794, Note_off_c, 0, 58, 104
1, 73882, Note_on_c, 0, 67, 122
1, 75348, Note_off_c, 0, 67, 122
1, 77117, Note_on_c, 0, 65, 79
1, 77308, Note_off_c, 0, 65, 79
1, 77330, Note_on_c, 0, 66, 118
1, 77543, Note_off_c, 0, 66, 118
1, 77557, Note_on_c, 0, 64, 111
1, 77778, Note_off_c, 0, 64, 111
1, 77969, Note_on_c, 0, 65, 110
1, 78131, Note_off_c, 0, 65, 110
1, 78153, Note_on_c, 0, 66, 112
1, 78366, Note_off_c, 0, 66, 112
1, 78388, Note_on_c, 0, 63, 109
1, 78601, Note_off_c, 0, 63, 109
1, 80429, Note_on_c, 0, 63, 90
1, 80591, Note_off_c, 0, 63, 90
1, 80613, Note_on_c, 0, 64, 103
1, 80812, Note_off_c, 0, 64, 103
1, 80834, Note_on_c, 0, 62, 110
1, 80996, Note_off_c, 0, 62, 110
1, 81239, Note_on_c, 0, 63, 107
1, 81415, Note_off_c, 0, 63, 107
1, 81429, Note_on_c, 0, 64, 103
1, 81583, Note_on_c, 0, 60, 104
1, 81583, Note_off_c, 0, 64, 103
1, 81811, Note_off_c, 0, 60, 104
1, 82054, Note_on_c, 0, 60, 107
1, 82253, Note_on_c, 0, 61, 105
1, 82253, Note_off_c, 0, 60, 107
1, 82429, Note_off_c, 0, 61, 105
1, 82429, Note_on_c, 0, 58, 101
1, 82554, Note_off_c, 0, 58, 101
1, 82620, Note_on_c, 0, 58, 85
1, 82767, Note_off_c, 0, 58, 85
1, 82789, Note_on_c, 0, 60, 86
1, 83334, Note_off_c, 0, 60, 86
1, 84373, Note_on_c, 0, 57, 93
1, 84594, Note_off_c, 0, 57, 93
1, 84652, Note_on_c, 0, 58, 118
1, 85101, Note_off_c, 0, 58, 118
1, 85263, Note_on_c, 0, 60, 113
1, 85506, Note_off_c, 0, 60, 113
1, 85535, Note_on_c, 0, 57, 112
1, 86080, Note_off_c, 0, 57, 112
1, 86227, Note_on_c, 0, 55, 104
1, 87126, Note_off_c, 0, 55, 104
1, 87214, Note_on_c, 0, 55, 114
1, 87892, Note_off_c, 0, 55, 114
1, 93059, Note_on_c, 0, 61, 105
1, 93228, Note_off_c, 0, 61, 105
1, 93279, Note_on_c, 0, 62, 116
1, 93507, Note_off_c, 0, 62, 116
1, 93529, Note_on_c, 0, 65, 91
1, 93713, Note_off_c, 0, 65, 91
1, 93735, Note_on_c, 0, 69, 122
1, 94133, Note_off_c, 0, 69, 122
1, 94155, Note_on_c, 0, 72, 123
1, 94678, Note_off_c, 0, 72, 123
1, 94729, Note_on_c, 0, 70, 122
1, 95253, Note_off_c, 0, 70, 122
1, 95642, Note_on_c, 0, 62, 96
1, 95885, Note_off_c, 0, 62, 96
1, 95914, Note_on_c, 0, 65, 115
1, 96385, Note_off_c, 0, 65, 115
1, 96436, Note_on_c, 0, 69, 111
1, 97628, Note_off_c, 0, 69, 111
1, 97660, Note_on_c, 0, 67, 113
1, 97777, Note_off_c, 0, 67, 113
1, 97790, Note_on_c, 0, 69, 113
1, 97907, Note_off_c, 0, 69, 113
1, 97920, Note_on_c, 0, 67, 111
1, 98051, Note_off_c, 0, 67, 111
1, 98051, Note_on_c, 0, 65, 114
1, 98352, Note_off_c, 0, 65, 114
1, 98496, Note_on_c, 0, 64, 109
1, 98876, Note_off_c, 0, 64, 109
1, 98923, Note_on_c, 0, 62, 112
1, 99262, Note_off_c, 0, 62, 112
1, 99307, Note_on_c, 0, 60, 104
1, 99726, Note_off_c, 0, 60, 104
1, 99747, Note_on_c, 0, 58, 103
1, 100100, Note_off_c, 0, 58, 103
1, 100183, Note_on_c, 0, 57, 107
1, 100549, Note_off_c, 0, 57, 107
1, 100562, Note_on_c, 0, 55, 104
1, 100968, Note_off_c, 0, 55, 104
1, 101007, Note_on_c, 0, 53, 105
1, 101413, Note_off_c, 0, 53, 105
1, 101439, Note_on_c, 0, 52, 106
1, 101792, Note_off_c, 0, 52, 106
1, 101883, Note_on_c, 0, 51, 96
1, 102420, Note_off_c, 0, 51, 96
1, 102420, Note_on_c, 0, 57, 83
1, 102566, Note_off_c, 0, 57, 83
1, 102586, Note_on_c, 0, 58, 114
1, 102954, Note_off_c, 0, 58, 114
1, 102998, Note_on_c, 0, 62, 100
1, 103410, Note_off_c, 0, 62, 100
1, 103594, Note_on_c, 0, 63, 122
1, 103984, Note_off_c, 0, 63, 122
1, 104025, Note_on_c, 0, 63, 127
1, 104218, Note_off_c, 0, 63, 127
1, 104270, Note_on_c, 0, 63, 125
1, 104820, Note_off_c, 0, 63, 125
1, 104882, Note_on_c, 0, 63, 126
1, 105107, Note_off_c, 0, 63, 126
1, 105154, Note_on_c, 0, 63, 123
1, 105646, Note_off_c, 0, 63, 123
1, 105701, Note_on_c, 0, 62, 120
1, 105989, Note_off_c, 0, 62, 120
1, 105989, Note_on_c, 0, 58, 116
1, 106500, Note_off_c, 0, 58, 116
1, 106565, Note_on_c, 0, 55, 97
1, 106800, Note_off_c, 0, 55, 97
1, 106878, Note_on_c, 0, 58, 95
1, 107611, Note_off_c, 0, 58, 95
1, 108431, Note_on_c, 0, 62, 117
1, 109070, Note_off_c, 0, 62, 117
1, 109143, Note_on_c, 0, 65, 82
1, 109221, Note_off_c, 0, 65, 82
1, 109221, Note_on_c, 0, 67, 124
1, 110007, Note_off_c, 0, 67, 124
1, 110007, Note_on_c, 0, 65, 104
1, 110098, Note_off_c, 0, 65, 104
1, 110137, Note_on_c, 0, 67, 120
1, 110477, Note_off_c, 0, 67, 120
1, 110513, Note_on_c, 0, 68, 115
1, 110895, Note_off_c, 0, 68, 115
1, 110905, Note_on_c, 0, 67, 89
1, 111156, Note_off_c, 0, 67, 89
1, 111166, Note_on_c, 0, 68, 109
1, 111616, Note_off_c, 0, 68, 109
1, 111693, Note_on_c, 0, 67, 119
1, 112754, Note_off_c, 0, 67, 119
1, 112768, Note_on_c, 0, 65, 110
1, 113239, Note_off_c, 0, 65, 110
1, 113296, Note_on_c, 0, 62, 108
1, 113652, Note_off_c, 0, 62, 108
1, 113678, Note_on_c, 0, 60, 106
1, 114223, Note_off_c, 0, 60, 106
1, 120628, Note_on_c, 0, 57, 99
1, 120900, Note_off_c, 0, 57, 99
1, 120905, Note_on_c, 0, 58, 106
1, 121172, Note_off_c, 0, 58, 106
1, 121329, Note_on_c, 0, 62, 114
1, 121716, Note_off_c, 0, 62, 114
1, 121716, Note_on_c, 0, 65, 109
1, 122103, Note_off_c, 0, 65, 109
1, 122244, Note_on_c, 0, 57, 91
1, 122542, Note_off_c, 0, 57, 91
1, 122552, Note_on_c, 0, 58, 109
1, 122824, Note_off_c, 0, 58, 109
1, 123033, Note_on_c, 0, 62, 110
1, 123399, Note_off_c, 0, 62, 110
1, 123414, Note_on_c, 0, 65, 114
1, 123744, Note_off_c, 0, 65, 114
1, 123840, Note_on_c, 0, 57, 102
1, 124180, Note_off_c, 0, 57, 102
1, 124206, Note_on_c, 0, 58, 108
1, 124546, Note_off_c, 0, 58, 108
1, 124627, Note_on_c, 0, 62, 115
1, 125077, Note_off_c, 0, 62, 115
1, 125108, Note_on_c, 0, 65, 106
1, 125370, Note_off_c, 0, 65, 106
1, 125491, Note_on_c, 0, 69, 124
1, 126287, Note_off_c, 0, 69, 124
1, 126365, Note_on_c, 0, 64, 107
1, 126745, Note_off_c, 0, 64, 107
1, 126810, Note_on_c, 0, 67, 108
1, 127166, Note_off_c, 0, 67, 108
1, 127223, Note_on_c, 0, 65, 113
1, 127605, Note_off_c, 0, 65, 113
1, 128392, Note_on_c, 0, 60, 110
1, 128667, Note_off_c, 0, 60, 110
1, 128701, Note_on_c, 0, 62, 104
1, 129369, Note_off_c, 0, 62, 104
1, 129493, Note_on_c, 0, 57, 101
1, 129964, Note_off_c, 0, 57, 101
1, 130024, Note_on_c, 0, 60, 108
1, 130351, Note_off_c, 0, 60, 108
1, 130364, Note_on_c, 0, 58, 101
1, 130888, Note_off_c, 0, 58, 101
1, 131721, Note_on_c, 0, 65, 119
1, 132161, Note_off_c, 0, 65, 119
1, 132163, Note_on_c, 0, 64, 115
1, 132543, Note_off_c, 0, 64, 115
1, 132660, Note_on_c, 0, 64, 122
1, 132935, Note_off_c, 0, 64, 122
1, 132948, Note_on_c, 0, 62, 120
1, 133380, Note_off_c, 0, 62, 120
1, 133490, Note_on_c, 0, 62, 108
1, 133835, Note_off_c, 0, 62, 108
1, 133855, Note_on_c, 0, 60, 116
1, 134447, Note_off_c, 0, 60, 116
1, 135356, Note_on_c, 0, 65, 120
1, 136063, Note_off_c, 0, 65, 120
1, 137286, Note_on_c, 0, 55, 101
1, 137610, Note_off_c, 0, 55, 101
1, 137673, Note_on_c, 0, 57, 111
1, 138034, Note_off_c, 0, 57, 111
1, 138054, Note_on_c, 0, 58, 108
1, 138436, Note_off_c, 0, 58, 108
1, 138451, Note_on_c, 0, 62, 104
1, 138870, Note_off_c, 0, 62, 104
1, 138906, Note_on_c, 0, 60, 110
1, 139414, Note_off_c, 0, 60, 110
1, 139634, Note_on_c, 0, 53, 103
1, 140053, Note_off_c, 0, 53, 103
1, 140184, Note_on_c, 0, 58, 105
1, 140577, Note_off_c, 0, 58, 105
1, 140582, Note_on_c, 0, 57, 112
1, 141252, Note_off_c, 0, 57, 112
1, 141303, Note_on_c, 0, 53, 101
1, 141918, Note_off_c, 0, 53, 101
1, 141927, Note_on_c, 0, 51, 91
1, 142917, Note_off_c, 0, 51, 91
1, 145226, Note_on_c, 0, 58, 107
1, 145592, Note_off_c, 0, 58, 107
1, 145631, Note_on_c, 0, 61, 112
1, 146060, Note_off_c, 0, 61, 112
1, 146107, Note_on_c, 0, 62, 108
1, 146510, Note_off_c, 0, 62, 108
1, 146562, Note_on_c, 0, 63, 114
1, 146970, Note_off_c, 0, 63, 114
1, 147004, Note_on_c, 0, 64, 112
1, 147239, Note_off_c, 0, 64, 112
1, 147356, Note_on_c, 0, 65, 113
1, 147817, Note_off_c, 0, 65, 113
1, 147837, Note_on_c, 0, 62, 114
1, 148135, Note_off_c, 0, 62, 114
1, 148148, Note_on_c, 0, 58, 113
1, 148575, Note_off_c, 0, 58, 113
1, 148633, Note_on_c, 0, 57, 117
1, 149001, Note_off_c, 0, 57, 117
1, 149138, Note_on_c, 0, 56, 92
1, 149924, Note_off_c, 0, 56, 92
1, 149950, Note_on_c, 0, 56, 121
1, 150516, Note_off_c, 0, 56, 121
1, 150584, Note_on_c, 0, 56, 88
1, 151406, Note_off_c, 0, 56, 88
1, 151495, Note_on_c, 0, 56, 120
1, 152218, Note_off_c, 0, 56, 120
1, 152249, Note_on_c, 0, 56, 106
1, 152681, Note_off_c, 0, 56, 106
1, 153021, Note_on_c, 0, 62, 110
1, 153545, Note_off_c, 0, 62, 110
1, 153545, Note_on_c, 0, 65, 121
1, 153925, Note_off_c, 0, 65, 121
1, 153990, Note_on_c, 0, 64, 115
1, 154684, Note_off_c, 0, 64, 115
1, 154744, Note_on_c, 0, 60, 111
1, 155377, Note_off_c, 0, 60, 111
1, 155391, Note_on_c, 0, 60, 93
1, 156437, Note_off_c, 0, 60, 93
1, 161089, Note_on_c, 0, 54, 98
1, 161377, Note_off_c, 0, 54, 98
1, 161403, Note_on_c, 0, 55, 100
1, 161612, Note_off_c, 0, 55, 100
1, 161612, Note_on_c, 0, 58, 105
1, 161874, Note_off_c, 0, 58, 105
1, 161897, Note_on_c, 0, 55, 97
1, 162043, Note_off_c, 0, 55, 97
1, 162079, Note_on_c, 0, 58, 108
1, 162293, Note_off_c, 0, 58, 108
1, 162329, Note_on_c, 0, 62, 106
1, 162664, Note_off_c, 0, 62, 106
1, 162679, Note_on_c, 0, 58, 105
1, 162831, Note_off_c, 0, 58, 105
1, 162846, Note_on_c, 0, 62, 112
1, 163155, Note_off_c, 0, 62, 112
1, 163181, Note_on_c, 0, 67, 106
1, 163474, Note_off_c, 0, 67, 106
1, 163492, Note_on_c, 0, 62, 94
1, 163623, Note_off_c, 0, 62, 94
1, 163730, Note_on_c, 0, 65, 108
1, 163976, Note_off_c, 0, 65, 108
1, 164007, Note_on_c, 0, 69, 123
1, 164331, Note_off_c, 0, 69, 123
1, 164357, Note_on_c, 0, 65, 98
1, 164524, Note_off_c, 0, 65, 98
1, 164539, Note_on_c, 0, 69, 112
1, 164929, Note_off_c, 0, 69, 112
1, 164929, Note_on_c, 0, 72, 119
1, 165492, Note_off_c, 0, 72, 119
1, 166356, Note_on_c, 0, 64, 110
1, 166539, Note_off_c, 0, 64, 110
1, 166591, Note_on_c, 0, 65, 92
1, 167049, Note_off_c, 0, 65, 92
1, 167088, Note_on_c, 0, 69, 68
1, 167323, Note_off_c, 0, 69, 68
1, 167616, Note_on_c, 0, 70, 122
1, 168066, Note_off_c, 0, 70, 122
1, 168068, Note_on_c, 0, 69, 123
1, 168369, Note_off_c, 0, 69, 123
1, 168426, Note_on_c, 0, 70, 121
1, 168840, Note_off_c, 0, 70, 121
1, 168840, Note_on_c, 0, 69, 121
1, 169128, Note_off_c, 0, 69, 121
1, 169180, Note_on_c, 0, 65, 111
1, 169717, Note_off_c, 0, 65, 111
1, 169717, Note_on_c, 0, 62, 96
1, 169926, Note_off_c, 0, 62, 96
1, 170030, Note_on_c, 0, 65, 112
1, 170423, Note_off_c, 0, 65, 112
1, 170527, Note_on_c, 0, 65, 116
1, 170907, Note_off_c, 0, 65, 116
1, 172946, Note_on_c, 0, 60, 110
1, 173234, Note_off_c, 0, 60, 110
1, 173606, Note_on_c, 0, 65, 111
1, 173841, Note_off_c, 0, 65, 111
1, 173893, Note_on_c, 0, 69, 103
1, 174102, Note_off_c, 0, 69, 103
1, 174311, Note_on_c, 0, 70, 120
1, 174468, Note_off_c, 0, 70, 120
1, 174546, Note_on_c, 0, 69, 121
1, 174677, Note_off_c, 0, 69, 121
1, 174742, Note_on_c, 0, 70, 121
1, 174951, Note_off_c, 0, 70, 121
1, 175082, Note_on_c, 0, 69, 100
1, 175448, Note_off_c, 0, 69, 100
1, 178061, Note_on_c, 0, 60, 103
1, 178388, Note_off_c, 0, 60, 103
1, 178699, Note_on_c, 0, 65, 117
1, 178908, Note_off_c, 0, 65, 117
1, 179232, Note_on_c, 0, 69, 125
1, 179462, Note_off_c, 0, 69, 125
1, 179690, Note_on_c, 0, 70, 103
1, 179912, Note_off_c, 0, 70, 103
1, 179990, Note_on_c, 0, 69, 118
1, 180173, Note_off_c, 0, 69, 118
1, 180290, Note_on_c, 0, 70, 108
1, 180499, Note_off_c, 0, 70, 108
1, 180564, Note_on_c, 0, 69, 120
1, 180721, Note_off_c, 0, 69, 120
1, 180799, Note_on_c, 0, 70, 119
1, 180982, Note_off_c, 0, 70, 119
1, 181047, Note_on_c, 0, 69, 113
1, 181269, Note_off_c, 0, 69, 113
1, 181308, Note_on_c, 0, 70, 121
1, 181556, Note_off_c, 0, 70, 121
1, 181608, Note_on_c, 0, 69, 120
1, 181804, Note_off_c, 0, 69, 120
1, 181830, Note_on_c, 0, 70, 118
1, 182013, Note_off_c, 0, 70, 118
1, 182026, Note_on_c, 0, 69, 114
1, 182248, Note_off_c, 0, 69, 114
1, 182326, Note_on_c, 0, 65, 105
1, 182706, Note_off_c, 0, 65, 105
1, 182737, Note_on_c, 0, 62, 90
1, 182907, Note_off_c, 0, 62, 90
1, 182927, Note_on_c, 0, 65, 114
1, 183110, Note_off_c, 0, 65, 114
1, 183136, Note_on_c, 0, 65, 106
1, 183424, Note_off_c, 0, 65, 106
1, 188810, Note_on_c, 0, 65, 112
1, 189006, Note_off_c, 0, 65, 112
1, 189239, Note_on_c, 0, 68, 114
1, 189469, Note_off_c, 0, 68, 114
1, 189505, Note_on_c, 0, 70, 122
1, 190092, Note_off_c, 0, 70, 122
1, 190112, Note_on_c, 0, 68, 126
1, 190379, Note_off_c, 0, 68, 126
1, 190392, Note_on_c, 0, 65, 107
1, 190824, Note_off_c, 0, 65, 107
1, 190970, Note_on_c, 0, 62, 96
1, 191127, Note_off_c, 0, 62, 96
1, 191163, Note_on_c, 0, 65, 108
1, 191818, Note_off_c, 0, 65, 108
1, 191909, Note_on_c, 0, 65, 108
1, 192734, Note_off_c, 0, 65, 108
1, 192812, Note_on_c, 0, 65, 105
1, 193493, Note_off_c, 0, 65, 105
1, 193624, Note_on_c, 0, 65, 114
1, 194017, Note_off_c, 0, 65, 114
1, 195537, Note_on_c, 0, 65, 107
1, 195864, Note_off_c, 0, 65, 107
1, 195903, Note_on_c, 0, 69, 115
1, 196222, Note_off_c, 0, 69, 115
1, 196311, Note_on_c, 0, 70, 115
1, 196772, Note_off_c, 0, 70, 115
1, 196792, Note_on_c, 0, 68, 123
1, 197153, Note_off_c, 0, 68, 123
1, 197171, Note_on_c, 0, 65, 116
1, 197655, Note_off_c, 0, 65, 116
1, 197655, Note_on_c, 0, 62, 87
1, 197799, Note_off_c, 0, 62, 87
1, 197930, Note_on_c, 0, 65, 111
1, 198493, Note_off_c, 0, 65, 111
1, 199253, Note_on_c, 0, 69, 105
1, 199659, Note_on_c, 0, 65, 113
1, 199659, Note_off_c, 0, 69, 105
1, 200052, Note_off_c, 0, 65, 113
1, 200353, Note_on_c, 0, 65, 108
1, 200759, Note_off_c, 0, 65, 108
1, 200824, Note_on_c, 0, 69, 117
1, 201177, Note_off_c, 0, 69, 117
1, 201216, Note_on_c, 0, 65, 102
1, 201831, Note_off_c, 0, 65, 102
1, 202520, Note_on_c, 0, 69, 103
1, 202970, Note_off_c, 0, 69, 103
1, 203009, Note_on_c, 0, 65, 115
1, 203506, Note_off_c, 0, 65, 115
1, 204232, Note_on_c, 0, 69, 115
1, 204577, Note_off_c, 0, 69, 115
1, 204618, Note_on_c, 0, 65, 114
1, 205050, Note_off_c, 0, 65, 114
1, 205364, Note_on_c, 0, 65, 97
1, 205717, Note_off_c, 0, 65, 97
1, 205952, Note_on_c, 0, 69, 115
1, 206332, Note_off_c, 0, 69, 115
1, 206358, Note_on_c, 0, 70, 113
1, 206829, Note_off_c, 0, 70, 113
1, 206829, Note_on_c, 0, 69, 109
1, 207195, Note_off_c, 0, 69, 109
1, 207208, Note_on_c, 0, 65, 113
1, 207771, Note_off_c, 0, 65, 113
1, 207875, Note_on_c, 0, 62, 85
1, 207966, Note_off_c, 0, 62, 85
1, 208005, Note_on_c, 0, 65, 102
1, 208738, Note_off_c, 0, 65, 102
1, 208803, Note_on_c, 0, 63, 111
1, 209405, Note_off_c, 0, 63, 111
1, 209405, Note_on_c, 0, 60, 90
1, 209562, Note_off_c, 0, 60, 90
1, 209601, Note_on_c, 0, 63, 106
1, 210190, Note_off_c, 0, 63, 106
1, 210203, Note_on_c, 0, 65, 116
1, 210556, Note_off_c, 0, 65, 116
1, 214754, Note_on_c, 0, 69, 120
1, 215204, Note_off_c, 0, 69, 120
1, 215206, Note_on_c, 0, 67, 121
1, 215520, Note_off_c, 0, 67, 121
1, 215520, Note_on_c, 0, 65, 108
1, 216109, Note_off_c, 0, 65, 108
1, 216166, Note_on_c, 0, 64, 98
1, 216323, Note_off_c, 0, 64, 98
1, 216323, Note_on_c, 0, 67, 9
1, 216936, Note_off_c, 0, 67, 9
1, 216972, Note_on_c, 0, 65, 115
1, 217247, Note_off_c, 0, 65, 115
1, 217469, Note_on_c, 0, 64, 113
1, 217796, Note_off_c, 0, 64, 113
1, 217796, Note_on_c, 0, 62, 100
1, 218176, Note_off_c, 0, 62, 100
1, 218380, Note_on_c, 0, 65, 115
1, 218746, Note_off_c, 0, 65, 115
1, 218766, Note_on_c, 0, 62, 116
1, 219090, Note_off_c, 0, 62, 116
1, 219142, Note_on_c, 0, 58, 110
1, 219522, Note_off_c, 0, 58, 110
1, 219550, Note_on_c, 0, 57, 112
1, 219911, Note_off_c, 0, 57, 112
1, 219966, Note_on_c, 0, 56, 110
1, 220385, Note_off_c, 0, 56, 110
1, 220586, Note_on_c, 0, 62, 110
1, 220727, Note_off_c, 0, 62, 110
1, 220758, Note_on_c, 0, 64, 105
1, 221392, Note_off_c, 0, 64, 105
1, 221454, Note_on_c, 0, 60, 101
1, 222109, Note_off_c, 0, 60, 101
1, 222135, Note_on_c, 0, 62, 110
1, 222533, Note_off_c, 0, 62, 110
1, 222590, Note_on_c, 0, 63, 107
1, 222956, Note_off_c, 0, 63, 107
1, 222992, Note_on_c, 0, 65, 114
1, 223296, Note_off_c, 0, 65, 114
1, 223445, Note_on_c, 0, 67, 118
1, 223785, Note_off_c, 0, 67, 118
1, 223897, Note_on_c, 0, 70, 121
1, 224216, Note_off_c, 0, 70, 121
1, 224229, Note_on_c, 0, 69, 121
1, 224726, Note_off_c, 0, 69, 121
1, 224739, Note_on_c, 0, 67, 116
1, 225158, Note_off_c, 0, 67, 116
1, 225178, Note_on_c, 0, 65, 103
1, 225314, Note_off_c, 0, 65, 103
1, 225345, Note_on_c, 0, 67, 104
1, 225481, Note_off_c, 0, 67, 104
1, 225481, Note_on_c, 0, 65, 100
1, 225617, Note_off_c, 0, 65, 100
1, 225653, Note_on_c, 0, 62, 104
1, 225962, Note_off_c, 0, 62, 104
1, 226045, Note_on_c, 0, 63, 96
1, 226181, Note_off_c, 0, 63, 96
1, 226191, Note_on_c, 0, 65, 97
1, 226316, Note_off_c, 0, 65, 97
1, 226336, Note_on_c, 0, 63, 104
1, 226503, Note_off_c, 0, 63, 104
1, 226529, Note_on_c, 0, 60, 100
1, 226843, Note_off_c, 0, 60, 100
1, 226932, Note_on_c, 0, 62, 108
1, 227068, Note_off_c, 0, 62, 108
1, 227068, Note_on_c, 0, 64, 102
1, 227193, Note_off_c, 0, 64, 102
1, 227213, Note_on_c, 0, 61, 98
1, 227380, Note_off_c, 0, 61, 98
1, 227440, Note_on_c, 0, 58, 105
1, 227636, Note_off_c, 0, 58, 105
1, 227662, Note_on_c, 0, 60, 105
1, 227777, Note_off_c, 0, 60, 105
1, 227797, Note_on_c, 0, 62, 106
1, 227954, Note_off_c, 0, 62, 106
1, 227964, Note_on_c, 0, 60, 112
1, 228068, Note_off_c, 0, 60, 112
1, 228091, Note_on_c, 0, 57, 102
1, 228497, Note_off_c, 0, 57, 102
1, 228575, Note_on_c, 0, 58, 115
1, 229033, Note_off_c, 0, 58, 115
1, 230854, Note_on_c, 0, 52, 101
1, 231147, Note_off_c, 0, 52, 101
1, 231230, Note_on_c, 0, 53, 99
1, 231544, Note_off_c, 0, 53, 99
1, 231716, Note_on_c, 0, 55, 114
1, 232009, Note_off_c, 0, 55, 114
1, 232029, Note_on_c, 0, 56, 110
1, 232458, Note_off_c, 0, 56, 110
1, 232562, Note_on_c, 0, 59, 116
1, 232734, Note_off_c, 0, 59, 116
1, 232807, Note_on_c, 0, 62, 114
1, 233373, Note_on_c, 0, 65, 118
1, 233373, Note_off_c, 0, 62, 114
1, 233760, Note_off_c, 0, 65, 118
1, 233885, Note_on_c, 0, 64, 114
1, 234545, Note_off_c, 0, 64, 114
1, 234660, Note_on_c, 0, 62, 90
1, 235142, Note_on_c, 0, 65, 110
1, 235142, Note_off_c, 0, 62, 90
1, 235529, Note_off_c, 0, 65, 110
1, 235539, Note_on_c, 0, 64, 112
1, 236424, Note_off_c, 0, 64, 112
1, 236507, Note_on_c, 0, 62, 89
1, 236748, Note_off_c, 0, 62, 89
1, 236805, Note_on_c, 0, 65, 106
1, 237192, Note_off_c, 0, 65, 106
1, 237192, Note_on_c, 0, 64, 108
1, 237590, Note_off_c, 0, 64, 108
1, 237668, Note_on_c, 0, 62, 105
1, 238165, Note_off_c, 0, 62, 105
1, 238814, Note_on_c, 0, 62, 114
1, 239217, Note_off_c, 0, 62, 114
1, 242262, Note_on_c, 0, 69, 112
1, 242440, Note_off_c, 0, 69, 112
1, 242497, Note_on_c, 0, 67, 106
1, 242717, Note_off_c, 0, 67, 106
1, 242727, Note_on_c, 0, 65, 106
1, 242920, Note_off_c, 0, 65, 106
1, 243155, Note_on_c, 0, 67, 116
1, 243338, Note_off_c, 0, 67, 116
1, 243374, Note_on_c, 0, 65, 110
1, 243567, Note_off_c, 0, 65, 110
1, 243572, Note_on_c, 0, 64, 83
1, 243744, Note_off_c, 0, 64, 83
1, 243864, Note_on_c, 0, 65, 104
1, 244063, Note_off_c, 0, 65, 104
1, 244110, Note_on_c, 0, 64, 103
1, 244267, Note_off_c, 0, 64, 103
1, 244277, Note_on_c, 0, 62, 98
1, 244549, Note_off_c, 0, 62, 98
1, 244737, Note_on_c, 0, 64, 111
1, 244915, Note_off_c, 0, 64, 111
1, 244998, Note_on_c, 0, 65, 100
1, 245155, Note_off_c, 0, 65, 100
1, 245165, Note_on_c, 0, 64, 107
1, 245322, Note_off_c, 0, 64, 107
1, 245363, Note_on_c, 0, 62, 114
1, 245530, Note_off_c, 0, 62, 114
1, 245530, Note_on_c, 0, 60, 103
1, 245697, Note_off_c, 0, 60, 103
1, 245728, Note_on_c, 0, 61, 97
1, 245864, Note_off_c, 0, 61, 97
1, 245895, Note_on_c, 0, 62, 95
1, 246052, Note_off_c, 0, 62, 95
1, 246083, Note_on_c, 0, 58, 92
1, 246240, Note_off_c, 0, 58, 92
1, 246271, Note_on_c, 0, 57, 106
1, 246512, Note_off_c, 0, 57, 106
1, 246816, Note_on_c, 0, 60, 104
1, 246968, Note_off_c, 0, 60, 104
1, 246983, Note_on_c, 0, 60, 99
1, 247150, Note_off_c, 0, 60, 99
1, 247202, Note_on_c, 0, 58, 108
1, 247416, Note_off_c, 0, 58, 108
1, 247447, Note_on_c, 0, 55, 99
1, 247646, Note_off_c, 0, 55, 99
1, 247677, Note_on_c, 0, 56, 99
1, 247876, Note_off_c, 0, 56, 99
1, 247902, Note_on_c, 0, 53, 91
1, 248064, Note_off_c, 0, 53, 91
1, 248095, Note_on_c, 0, 52, 107
1, 248273, Note_off_c, 0, 52, 107
1, 248409, Note_on_c, 0, 62, 121
1, 248912, Note_off_c, 0, 62, 121
1, 248932, Note_on_c, 0, 60, 113
1, 249833, Note_off_c, 0, 60, 113
1, 252993, Note_on_c, 0, 65, 114
1, 253244, Note_off_c, 0, 65, 114
1, 253285, Note_on_c, 0, 68, 120
1, 253777, Note_off_c, 0, 68, 120
1, 253834, Note_on_c, 0, 70, 118
1, 254122, Note_off_c, 0, 70, 118
1, 254195, Note_on_c, 0, 71, 122
1, 254656, Note_off_c, 0, 71, 122
1, 254708, Note_on_c, 0, 71, 125
1, 255064, Note_off_c, 0, 71, 125
1, 255142, Note_on_c, 0, 70, 116
1, 255550, Note_off_c, 0, 70, 116
1, 255618, Note_on_c, 0, 70, 119
1, 255932, Note_off_c, 0, 70, 119
1, 256036, Note_on_c, 0, 68, 118
1, 256450, Note_off_c, 0, 68, 118
1, 256507, Note_on_c, 0, 68, 116
1, 256732, Note_off_c, 0, 68, 116
1, 256904, Note_on_c, 0, 65, 108
1, 257239, Note_off_c, 0, 65, 108
1, 257301, Note_on_c, 0, 65, 103
1, 257605, Note_off_c, 0, 65, 103
1, 257767, Note_on_c, 0, 63, 107
1, 258097, Note_off_c, 0, 63, 107
1, 258117, Note_on_c, 0, 60, 100
1, 258316, Note_off_c, 0, 60, 100
1, 258394, Note_on_c, 0, 58, 101
1, 259043, Note_off_c, 0, 58, 101
1, 259058, Note_on_c, 0, 55, 80
1, 259162, Note_off_c, 0, 55, 80
1, 259182, Note_on_c, 0, 58, 100
1, 261488, Note_off_c, 0, 58, 100
1, 261875, Note_on_c, 0, 58, 107
1, 262231, Note_off_c, 0, 58, 107
1, 262325, Note_on_c, 0, 58, 121
1, 262691, Note_off_c, 0, 58, 121
1, 264221, Note_on_c, 0, 58, 120
1, 264582, Note_off_c, 0, 58, 120
1, 268401, Note_on_c, 0, 57, 73
1, 268548, Note_off_c, 0, 57, 73
1, 268622, Note_on_c, 0, 58, 104
1, 269009, Note_off_c, 0, 58, 104
1, 269092, Note_on_c, 0, 59, 114
1, 269448, Note_off_c, 0, 59, 114
1, 270166, Note_on_c, 0, 60, 109
1, 270836, Note_off_c, 0, 60, 109
1, 274353, Note_on_c, 0, 65, 111
1, 274751, Note_off_c, 0, 65, 111
1, 274771, Note_on_c, 0, 64, 105
1, 275069, Note_off_c, 0, 64, 105
1, 275189, Note_on_c, 0, 62, 115
1, 275461, Note_off_c, 0, 62, 115
1, 275534, Note_on_c, 0, 60, 106
1, 275995, Note_off_c, 0, 60, 106
1, 276042, Note_on_c, 0, 57, 112
1, 276351, Note_off_c, 0, 57, 112
1, 276518, Note_on_c, 0, 55, 107
1, 276953, Note_off_c, 0, 55, 107
1, 277052, Note_on_c, 0, 55, 101
1, 278095, Note_off_c, 0, 55, 101
1, 278173, Note_on_c, 0, 55, 102
1, 278702, Note_off_c, 0, 55, 102
1, 283634, Note_on_c, 0, 74, 124
1, 284053, Note_off_c, 0, 74, 124
1, 284094, Note_on_c, 0, 72, 118
1, 284639, Note_off_c, 0, 72, 118
1, 284639, Note_on_c, 0, 70, 115
1, 285131, Note_off_c, 0, 70, 115
1, 285760, Note_on_c, 0, 65, 109
1, 286011, Note_off_c, 0, 65, 109
1, 286126, Note_on_c, 0, 69, 116
1, 286471, Note_off_c, 0, 69, 116
1, 286502, Note_on_c, 0, 67, 99
1, 286659, Note_off_c, 0, 67, 99
1, 286742, Note_on_c, 0, 69, 107
1, 286899, Note_off_c, 0, 69, 107
1, 286940, Note_on_c, 0, 67, 107
1, 287097, Note_off_c, 0, 67, 107
1, 287097, Note_on_c, 0, 65, 105
1, 287327, Note_off_c, 0, 65, 105
1, 287557, Note_on_c, 0, 64, 104
1, 287881, Note_off_c, 0, 64, 104
1, 287901, Note_on_c, 0, 62, 105
1, 288215, Note_off_c, 0, 62, 105
1, 288319, Note_on_c, 0, 60, 99
1, 288748, Note_off_c, 0, 60, 99
1, 288768, Note_on_c, 0, 58, 100
1, 289051, Note_off_c, 0, 58, 100
1, 289522, Note_on_c, 0, 57, 102
1, 289763, Note_off_c, 0, 57, 102
1, 289804, Note_on_c, 0, 57, 103
1, 290281, Note_off_c, 0, 57, 103
1, 290312, Note_on_c, 0, 60, 111
1, 290584, Note_off_c, 0, 60, 111
1, 290641, Note_on_c, 0, 62, 108
1, 291249, Note_off_c, 0, 62, 108
1, 291458, Note_on_c, 0, 65, 112
1, 292170, Note_off_c, 0, 65, 112
1, 293496, Note_on_c, 0, 64, 105
1, 293862, Note_off_c, 0, 64, 105
1, 293919, Note_on_c, 0, 64, 100
1, 294249, Note_off_c, 0, 64, 100
1, 294369, Note_on_c, 0, 62, 105
1, 294709, Note_off_c, 0, 62, 105
1, 294771, Note_on_c, 0, 62, 102
1, 295122, Note_off_c, 0, 62, 102
1, 295190, Note_on_c, 0, 60, 105
1, 295551, Note_off_c, 0, 60, 105
1, 295571, Note_on_c, 0, 60, 102
1, 295833, Note_off_c, 0, 60, 102
1, 295833, Note_on_c, 0, 57, 98
1, 296378, Note_off_c, 0, 57, 98
1, 296398, Note_on_c, 0, 55, 82
1, 297981, Note_off_c, 0, 55, 82
1, 297981, End_track
0, 0, End_of_file
