0, 0, Header, 1, 1, 192
1, 0, Start_track
1, 0, Title_t, "Melody"
1, 0, Tempo, 189873
1, 0, Key_signature, -1, "major"
1, 0, Time_signature, 4, 2, 24, 8
1, 7174, Note_on_c, 0, 53, 94
1, 7316, Note_off_c, 0, 53, 94
1, 7373, Note_on_c, 0, 55, 87
1, 7538, Note_off_c, 0, 55, 87
1, 7562, Note_on_c, 0, 57, 101
1, 8098, Note_off_c, 0, 57, 101
1, 8188, Note_on_c, 0, 58, 109
1, 8270, Note_off_c, 0, 58, 109
1, 8307, Note_on_c, 0, 60, 99
1, 8480, Note_off_c, 0, 60, 99
1, 8519, Note_on_c, 0, 62, 102
1, 8576, Note_off_c, 0, 62, 102
1, 8600, Note_on_c, 0, 63, 100
1, 8682, Note_off_c, 0, 63, 100
1, 8710, Note_on_c, 0, 64, 87
1, 8769, Note_off_c, 0, 64, 87
1, 8799, Note_on_c, 0, 67, 104
1, 8875, Note_off_c, 0, 67, 104
1, 8887, Note_on_c, 0, 66, 104
1, 9010, Note_off_c, 0, 66, 104
1, 9024, Note_on_c, 0, 65, 102
1, 9087, Note_off_c, 0, 65, 102
1, 9097, Note_on_c, 0, 64, 99
1, 9181, Note_off_c, 0, 64, 99
1, 9197, Note_on_c, 0, 63, 97
1, 9252, Note_off_c, 0, 63, 97
1, 9396, Note_on_c, 0, 58, 103
1, 9470, Note_off_c, 0, 58, 103
1, 9486, Note_on_c, 0, 62, 98
1, 9601, Note_off_c, 0, 62, 98
1, 9690, Note_on_c, 0, 60, 100
1, 9816, Note_off_c, 0, 60, 100
1, 9832, Note_on_c, 0, 58, 103
1, 9884, Note_off_c, 0, 58, 103
1, 9900, Note_on_c, 0, 57, 98
1, 9954, Note_off_c, 0, 57, 98
1, 9986, Note_on_c, 0, 55, 99
1, 10057, Note_off_c, 0, 55, 99
1, 10274, Note_on_c, 0, 53, 104
1, 10574, Note_off_c, 0, 53, 104
1, 10719, Note_on_c, 0, 65, 100
1, 11040, Note_off_c, 0, 65, 100
1, 11756, Note_on_c, 0, 65, 100
1, 11998, Note_off_c, 0, 65, 100
1, 12028, Note_on_c, 0, 63, 105
1, 12138, Note_off_c, 0, 63, 105
1, 12179, Note_on_c, 0, 61, 86
1, 12230, Note_off_c, 0, 61, 86
1, 12235, Note_on_c, 0, 62, 108
1, 12333, Note_off_c, 0, 62, 108
1, 12353, Note_on_c, 0, 58, 107
1, 12451, Note_off_c, 0, 58, 107
1, 13387, Note_on_c, 0, 58, 99
1, 13464, Note_off_c, 0, 58, 99
1, 13534, Note_on_c, 0, 61, 104
1, 13655, Note_off_c, 0, 61, 104
1, 13715, Note_on_c, 0, 64, 86
1, 13773, Note_off_c, 0, 64, 86
1, 13817, Note_on_c, 0, 65, 90
1, 13940, Note_off_c, 0, 65, 90
1, 14003, Note_on_c, 0, 64, 98
1, 14118, Note_off_c, 0, 64, 98
1, 14195, Note_on_c, 0, 63, 91
1, 14312, Note_off_c, 0, 63, 91
1, 14388, Note_on_c, 0, 62, 111
1, 14502, Note_off_c, 0, 62, 111
1, 14512, Note_on_c, 0, 61, 98
1, 14661, Note_off_c, 0, 61, 98
1, 14737, Note_on_c, 0, 56, 109
1, 14804, Note_off_c, 0, 56, 109
1, 14823, Note_on_c, 0, 60, 96
1, 14940, Note_off_c, 0, 60, 96
1, 15017, Note_on_c, 0, 58, 100
1, 15132, Note_off_c, 0, 58, 100
1, 15221, Note_on_c, 0, 56, 94
1, 15265, Note_off_c, 0, 56, 94
1, 15267, Note_on_c, 0, 55, 97
1, 15315, Note_off_c, 0, 55, 97
1, 15323, Note_on_c, 0, 53, 109
1, 15435, Note_off_c, 0, 53, 109
1, 15448, Note_on_c, 0, 52, 108
1, 15534, Note_off_c, 0, 52, 108
1, 15535, Note_on_c, 0, 50, 93
1, 15653, Note_off_c, 0, 50, 93
1, 15666, Note_on_c, 0, 51, 98
1, 15809, Note_off_c, 0, 51, 98
1, 16079, Note_on_c, 0, 63, 111
1, 16324, Note_off_c, 0, 63, 111
1, 16353, Note_on_c, 0, 61, 111
1, 16464, Note_off_c, 0, 61, 111
1, 16478, Note_on_c, 0, 60, 106
1, 16588, Note_off_c, 0, 60, 106
1, 16702, Note_on_c, 0, 63, 98
1, 16831, Note_off_c, 0, 63, 98
1, 16869, Note_on_c, 0, 61, 97
1, 16967, Note_off_c, 0, 61, 97
1, 17060, Note_on_c, 0, 54, 100
1, 17137, Note_off_c, 0, 54, 100
1, 17159, Note_on_c, 0, 56, 99
1, 17282, Note_off_c, 0, 56, 99
1, 17321, Note_on_c, 0, 60, 102
1, 17384, Note_off_c, 0, 60, 102
1, 17400, Note_on_c, 0, 58, 109
1, 17507, Note_off_c, 0, 58, 109
1, 17552, Note_on_c, 0, 55, 104
1, 17601, Note_off_c, 0, 55, 104
1, 17609, Note_on_c, 0, 54, 95
1, 17661, Note_off_c, 0, 54, 95
1, 17669, Note_on_c, 0, 53, 99
1, 17774, Note_off_c, 0, 53, 99
1, 17800, Note_on_c, 0, 52, 89
1, 17921, Note_off_c, 0, 52, 89
1, 17989, Note_on_c, 0, 51, 108
1, 18310, Note_off_c, 0, 51, 108
1, 18374, Note_on_c, 0, 63, 113
1, 18539, Note_off_c, 0, 63, 113
1, 18562, Note_on_c, 0, 60, 94
1, 18630, Note_off_c, 0, 60, 94
1, 18767, Note_on_c, 0, 64, 110
1, 18874, Note_off_c, 0, 64, 110
1, 18893, Note_on_c, 0, 60, 107
1, 19004, Note_off_c, 0, 60, 107
1, 19533, Note_on_c, 0, 65, 105
1, 19588, Note_off_c, 0, 65, 105
1, 19607, Note_on_c, 0, 65, 111
1, 19658, Note_off_c, 0, 65, 111
1, 19678, Note_on_c, 0, 63, 105
1, 19780, Note_off_c, 0, 63, 105
1, 19882, Note_on_c, 0, 65, 98
1, 20024, Note_off_c, 0, 65, 98
1, 20204, Note_on_c, 0, 65, 111
1, 20406, Note_off_c, 0, 65, 111
1, 20452, Note_on_c, 0, 65, 103
1, 20526, Note_off_c, 0, 65, 103
1, 20543, Note_on_c, 0, 65, 107
1, 20628, Note_off_c, 0, 65, 107
1, 20645, Note_on_c, 0, 63, 101
1, 20750, Note_off_c, 0, 63, 101
1, 20758, Note_on_c, 0, 65, 112
1, 20834, Note_off_c, 0, 65, 112
1, 20842, Note_on_c, 0, 63, 98
1, 20903, Note_off_c, 0, 63, 98
1, 21024, Note_on_c, 0, 65, 114
1, 21142, Note_off_c, 0, 65, 114
1, 21152, Note_on_c, 0, 64, 101
1, 21185, Note_off_c, 0, 64, 101
1, 21198, Note_on_c, 0, 63, 107
1, 21256, Note_off_c, 0, 63, 107
1, 21407, Note_on_c, 0, 65, 98
1, 21580, Note_off_c, 0, 65, 98
1, 21703, Note_on_c, 0, 65, 104
1, 21865, Note_off_c, 0, 65, 104
1, 21972, Note_on_c, 0, 66, 110
1, 22035, Note_off_c, 0, 66, 110
1, 22061, Note_on_c, 0, 66, 113
1, 22140, Note_off_c, 0, 66, 113
1, 22154, Note_on_c, 0, 62, 89
1, 22222, Note_off_c, 0, 62, 89
1, 22235, Note_on_c, 0, 65, 100
1, 22277, Note_off_c, 0, 65, 100
1, 22291, Note_on_c, 0, 63, 107
1, 22376, Note_off_c, 0, 63, 107
1, 22541, Note_on_c, 0, 65, 104
1, 22621, Note_off_c, 0, 65, 104
1, 22706, Note_on_c, 0, 65, 102
1, 22777, Note_off_c, 0, 65, 102
1, 22787, Note_on_c, 0, 65, 105
1, 22864, Note_off_c, 0, 65, 105
1, 22884, Note_on_c, 0, 62, 106
1, 23134, Note_off_c, 0, 62, 106
1, 25615, Note_on_c, 0, 48, 101
1, 25767, Note_off_c, 0, 48, 101
1, 25815, Note_on_c, 0, 50, 95
1, 25925, Note_off_c, 0, 50, 95
1, 25954, Note_on_c, 0, 53, 98
1, 26084, Note_off_c, 0, 53, 98
1, 26172, Note_on_c, 0, 56, 106
1, 26226, Note_off_c, 0, 56, 106
1, 26249, Note_on_c, 0, 55, 105
1, 26382, Note_off_c, 0, 55, 105
1, 26426, Note_on_c, 0, 52, 102
1, 26506, Note_off_c, 0, 52, 102
1, 26506, Note_on_c, 0, 48, 108
1, 26670, Note_off_c, 0, 48, 108
1, 26727, Note_on_c, 0, 58, 108
1, 26763, Note_off_c, 0, 58, 108
1, 26773, Note_on_c, 0, 61, 110
1, 26814, Note_off_c, 0, 61, 110
1, 26833, Note_on_c, 0, 60, 104
1, 26932, Note_off_c, 0, 60, 104
1, 26949, Note_on_c, 0, 58, 105
1, 27017, Note_off_c, 0, 58, 105
1, 27036, Note_on_c, 0, 56, 108
1, 27201, Note_off_c, 0, 56, 108
1, 27230, Note_on_c, 0, 53, 107
1, 27312, Note_off_c, 0, 53, 107
1, 27334, Note_on_c, 0, 56, 111
1, 27410, Note_off_c, 0, 56, 111
1, 27412, Note_on_c, 0, 55, 110
1, 27469, Note_off_c, 0, 55, 110
1, 27479, Note_on_c, 0, 53, 110
1, 27559, Note_off_c, 0, 53, 110
1, 27564, Note_on_c, 0, 52, 108
1, 27684, Note_off_c, 0, 52, 108
1, 27760, Note_on_c, 0, 56, 92
1, 27820, Note_off_c, 0, 56, 92
1, 27843, Note_on_c, 0, 63, 115
1, 27933, Note_off_c, 0, 63, 115
1, 27956, Note_on_c, 0, 61, 116
1, 28080, Note_off_c, 0, 61, 116
1, 28094, Note_on_c, 0, 60, 114
1, 28342, Note_off_c, 0, 60, 114
1, 28355, Note_on_c, 0, 61, 106
1, 28463, Note_off_c, 0, 61, 106
1, 28624, Note_on_c, 0, 63, 115
1, 28971, Note_off_c, 0, 63, 115
1, 29020, Note_on_c, 0, 60, 106
1, 29121, Note_off_c, 0, 60, 106
1, 29273, Note_on_c, 0, 58, 103
1, 29358, Note_off_c, 0, 58, 103
1, 29366, Note_on_c, 0, 57, 105
1, 29478, Note_off_c, 0, 57, 105
1, 29580, Note_on_c, 0, 60, 100
1, 29656, Note_off_c, 0, 60, 100
1, 29666, Note_on_c, 0, 68, 108
1, 29708, Note_off_c, 0, 68, 108
1, 29713, Note_on_c, 0, 67, 114
1, 29754, Note_off_c, 0, 67, 114
1, 29767, Note_on_c, 0, 66, 108
1, 29879, Note_off_c, 0, 66, 108
1, 29905, Note_on_c, 0, 65, 104
1, 30054, Note_off_c, 0, 65, 104
1, 30065, Note_on_c, 0, 63, 99
1, 30144, Note_off_c, 0, 63, 99
1, 30164, Note_on_c, 0, 62, 101
1, 30230, Note_off_c, 0, 62, 101
1, 30237, Note_on_c, 0, 58, 97
1, 30351, Note_off_c, 0, 58, 97
1, 30499, Note_on_c, 0, 61, 101
1, 30556, Note_off_c, 0, 61, 101
1, 30567, Note_on_c, 0, 60, 108
1, 30674, Note_off_c, 0, 60, 108
1, 30682, Note_on_c, 0, 58, 107
1, 30750, Note_off_c, 0, 58, 107
1, 30760, Note_on_c, 0, 57, 104
1, 30801, Note_off_c, 0, 57, 104
1, 30823, Note_on_c, 0, 60, 102
1, 30918, Note_off_c, 0, 60, 102
1, 30942, Note_on_c, 0, 56, 110
1, 31084, Note_off_c, 0, 56, 110
1, 31691, Note_on_c, 0, 67, 112
1, 31817, Note_off_c, 0, 67, 112
1, 31874, Note_on_c, 0, 72, 97
1, 32031, Note_off_c, 0, 72, 97
1, 32053, Note_on_c, 0, 71, 123
1, 32160, Note_off_c, 0, 71, 123
1, 32179, Note_on_c, 0, 67, 103
1, 32324, Note_off_c, 0, 67, 103
1, 32343, Note_on_c, 0, 70, 127
1, 32585, Note_off_c, 0, 70, 127
1, 32601, Note_on_c, 0, 66, 113
1, 32631, Note_off_c, 0, 66, 113
1, 32641, Note_on_c, 0, 64, 102
1, 32689, Note_off_c, 0, 64, 102
1, 32694, Note_on_c, 0, 60, 102
1, 32758, Note_off_c, 0, 60, 102
1, 32854, Note_on_c, 0, 70, 114
1, 32920, Note_off_c, 0, 70, 114
1, 32934, Note_on_c, 0, 69, 118
1, 33014, Note_off_c, 0, 69, 118
1, 33036, Note_on_c, 0, 67, 119
1, 33102, Note_off_c, 0, 67, 119
1, 33124, Note_on_c, 0, 66, 121
1, 33223, Note_off_c, 0, 66, 121
1, 33231, Note_on_c, 0, 67, 103
1, 33295, Note_off_c, 0, 67, 103
1, 33482, Note_on_c, 0, 64, 100
1, 33562, Note_off_c, 0, 64, 100
1, 33570, Note_on_c, 0, 63, 114
1, 33652, Note_off_c, 0, 63, 114
1, 33784, Note_on_c, 0, 58, 102
1, 33816, Note_off_c, 0, 58, 102
1, 33855, Note_on_c, 0, 62, 104
1, 33975, Note_off_c, 0, 62, 104
1, 34071, Note_on_c, 0, 60, 108
1, 34167, Note_off_c, 0, 60, 108
1, 34303, Note_on_c, 0, 69, 102
1, 34370, Note_off_c, 0, 69, 102
1, 34421, Note_on_c, 0, 68, 113
1, 34478, Note_off_c, 0, 68, 113
1, 34488, Note_on_c, 0, 66, 110
1, 34636, Note_off_c, 0, 66, 110
1, 34715, Note_on_c, 0, 65, 114
1, 35042, Note_off_c, 0, 65, 114
1, 35058, Note_on_c, 0, 64, 88
1, 35093, Note_off_c, 0, 64, 88
1, 35101, Note_on_c, 0, 65, 105
1, 35136, Note_off_c, 0, 65, 105
1, 35141, Note_on_c, 0, 63, 104
1, 35192, Note_off_c, 0, 63, 104
1, 35196, Note_on_c, 0, 60, 103
1, 35284, Note_off_c, 0, 60, 103
1, 35389, Note_on_c, 0, 63, 115
1, 35575, Note_off_c, 0, 63, 115
1, 35588, Note_on_c, 0, 61, 107
1, 35608, Note_off_c, 0, 61, 107
1, 35619, Note_on_c, 0, 60, 111
1, 35643, Note_off_c, 0, 60, 111
1, 35650, Note_on_c, 0, 58, 108
1, 35667, Note_off_c, 0, 58, 108
1, 35674, Note_on_c, 0, 53, 105
1, 35773, Note_off_c, 0, 53, 105
1, 35865, Note_on_c, 0, 62, 110
1, 35941, Note_off_c, 0, 62, 110
1, 35957, Note_on_c, 0, 60, 108
1, 36014, Note_off_c, 0, 60, 108
1, 36038, Note_on_c, 0, 58, 108
1, 36165, Note_off_c, 0, 58, 108
1, 36184, Note_on_c, 0, 52, 92
1, 36233, Note_off_c, 0, 52, 92
1, 36250, Note_on_c, 0, 56, 112
1, 36345, Note_off_c, 0, 56, 112
1, 36444, Note_on_c, 0, 52, 103
1, 36515, Note_off_c, 0, 52, 103
1, 36531, Note_on_c, 0, 55, 100
1, 36635, Note_off_c, 0, 55, 100
1, 36661, Note_on_c, 0, 53, 110
1, 36769, Note_off_c, 0, 53, 110
1, 36779, Note_on_c, 0, 52, 110
1, 36849, Note_off_c, 0, 52, 110
1, 36866, Note_on_c, 0, 49, 102
1, 36959, Note_off_c, 0, 49, 102
1, 36975, Note_on_c, 0, 53, 106
1, 37140, Note_off_c, 0, 53, 106
1, 37206, Note_on_c, 0, 60, 97
1, 37280, Note_off_c, 0, 60, 97
1, 37325, Note_on_c, 0, 63, 111
1, 37539, Note_off_c, 0, 63, 111
1, 37555, Note_on_c, 0, 61, 97
1, 37672, Note_off_c, 0, 61, 97
1, 37739, Note_on_c, 0, 57, 97
1, 37797, Note_off_c, 0, 57, 97
1, 37827, Note_on_c, 0, 60, 101
1, 37991, Note_off_c, 0, 60, 101
1, 39301, Note_on_c, 0, 57, 103
1, 39375, Note_off_c, 0, 57, 103
1, 39383, Note_on_c, 0, 58, 95
1, 39413, Note_off_c, 0, 58, 95
1, 39427, Note_on_c, 0, 60, 99
1, 39473, Note_off_c, 0, 60, 99
1, 39495, Note_on_c, 0, 61, 100
1, 39632, Note_off_c, 0, 61, 100
1, 39652, Note_on_c, 0, 65, 93
1, 39826, Note_off_c, 0, 65, 93
1, 39862, Note_on_c, 0, 70, 116
1, 39960, Note_off_c, 0, 70, 116
1, 39984, Note_on_c, 0, 69, 117
1, 40119, Note_off_c, 0, 69, 117
1, 40179, Note_on_c, 0, 65, 88
1, 40309, Note_off_c, 0, 65, 88
1, 40373, Note_on_c, 0, 68, 117
1, 40575, Note_off_c, 0, 68, 117
1, 40594, Note_on_c, 0, 65, 87
1, 40608, Note_off_c, 0, 65, 87
1, 40621, Note_on_c, 0, 63, 101
1, 40657, Note_off_c, 0, 63, 101
1, 40665, Note_on_c, 0, 62, 103
1, 40714, Note_off_c, 0, 62, 103
1, 40738, Note_on_c, 0, 60, 87
1, 40802, Note_off_c, 0, 60, 87
1, 40868, Note_on_c, 0, 67, 117
1, 40916, Note_off_c, 0, 67, 117
1, 40935, Note_on_c, 0, 67, 111
1, 41011, Note_off_c, 0, 67, 111
1, 41022, Note_on_c, 0, 65, 108
1, 41093, Note_off_c, 0, 65, 108
1, 41125, Note_on_c, 0, 63, 111
1, 41355, Note_off_c, 0, 63, 111
1, 41509, Note_on_c, 0, 60, 90
1, 41560, Note_off_c, 0, 60, 90
1, 41562, Note_on_c, 0, 61, 103
1, 41677, Note_off_c, 0, 61, 103
1, 41765, Note_on_c, 0, 58, 110
1, 41835, Note_off_c, 0, 58, 110
1, 41845, Note_on_c, 0, 60, 113
1, 42069, Note_off_c, 0, 60, 113
1, 42083, Note_on_c, 0, 59, 113
1, 42129, Note_off_c, 0, 59, 113
1, 42140, Note_on_c, 0, 58, 112
1, 42164, Note_off_c, 0, 58, 112
1, 42175, Note_on_c, 0, 57, 111
1, 42198, Note_off_c, 0, 57, 111
1, 42214, Note_on_c, 0, 55, 98
1, 42309, Note_off_c, 0, 55, 98
1, 42364, Note_on_c, 0, 58, 111
1, 42622, Note_off_c, 0, 58, 111
1, 42720, Note_on_c, 0, 58, 114
1, 42805, Note_off_c, 0, 58, 114
1, 42815, Note_on_c, 0, 60, 104
1, 43208, Note_off_c, 0, 60, 104
1, 43941, Note_on_c, 0, 60, 110
1, 44315, Note_off_c, 0, 60, 110
1, 44896, Note_on_c, 0, 60, 117
1, 45319, Note_off_c, 0, 60, 117
1, 45492, Note_on_c, 0, 60, 111
1, 45735, Note_off_c, 0, 60, 111
1, 45811, Note_on_c, 0, 60, 106
1, 45866, Note_off_c, 0, 60, 106
1, 45892, Note_on_c, 0, 60, 116
1, 46069, Note_off_c, 0, 60, 116
1, 46178, Note_on_c, 0, 60, 111
1, 46241, Note_off_c, 0, 60, 111
1, 46267, Note_on_c, 0, 60, 113
1, 46481, Note_off_c, 0, 60, 113
1, 46571, Note_on_c, 0, 60, 95
1, 46641, Note_off_c, 0, 60, 95
1, 46657, Note_on_c, 0, 60, 114
1, 46873, Note_off_c, 0, 60, 114
1, 47006, Note_on_c, 0, 60, 115
1, 47202, Note_off_c, 0, 60, 115
1, 47203, Note_on_c, 0, 58, 114
1, 47236, Note_off_c, 0, 58, 114
1, 47250, Note_on_c, 0, 55, 98
1, 47385, Note_off_c, 0, 55, 98
1, 47433, Note_on_c, 0, 55, 101
1, 47823, Note_off_c, 0, 55, 101
1, 50111, Note_on_c, 0, 60, 106
1, 50207, Note_off_c, 0, 60, 106
1, 50327, Note_on_c, 0, 62, 102
1, 50439, Note_off_c, 0, 62, 102
1, 50516, Note_on_c, 0, 65, 101
1, 50646, Note_off_c, 0, 65, 101
1, 50692, Note_on_c, 0, 68, 114
1, 50787, Note_off_c, 0, 68, 114
1, 50794, Note_on_c, 0, 67, 116
1, 50932, Note_off_c, 0, 67, 116
1, 50985, Note_on_c, 0, 65, 99
1, 51071, Note_off_c, 0, 65, 99
1, 51075, Note_on_c, 0, 64, 109
1, 51170, Note_off_c, 0, 64, 109
1, 51292, Note_on_c, 0, 58, 107
1, 51373, Note_off_c, 0, 58, 107
1, 51404, Note_on_c, 0, 59, 90
1, 51440, Note_off_c, 0, 59, 90
1, 51454, Note_on_c, 0, 60, 101
1, 51509, Note_off_c, 0, 60, 101
1, 51524, Note_on_c, 0, 58, 109
1, 51613, Note_off_c, 0, 58, 109
1, 51623, Note_on_c, 0, 56, 109
1, 51755, Note_off_c, 0, 56, 109
1, 51847, Note_on_c, 0, 51, 103
1, 51897, Note_off_c, 0, 51, 103
1, 51904, Note_on_c, 0, 53, 104
1, 51928, Note_off_c, 0, 53, 104
1, 51944, Note_on_c, 0, 55, 107
1, 51987, Note_off_c, 0, 55, 107
1, 52002, Note_on_c, 0, 56, 106
1, 52074, Note_off_c, 0, 56, 106
1, 52102, Note_on_c, 0, 53, 112
1, 52186, Note_off_c, 0, 53, 112
1, 52200, Note_on_c, 0, 52, 109
1, 52275, Note_off_c, 0, 52, 109
1, 53197, Note_on_c, 0, 63, 99
1, 53301, Note_off_c, 0, 63, 99
1, 53389, Note_on_c, 0, 68, 118
1, 53465, Note_off_c, 0, 68, 118
1, 53473, Note_on_c, 0, 67, 122
1, 53579, Note_off_c, 0, 67, 122
1, 53681, Note_on_c, 0, 65, 107
1, 53756, Note_off_c, 0, 65, 107
1, 53767, Note_on_c, 0, 63, 109
1, 53851, Note_off_c, 0, 63, 109
1, 53871, Note_on_c, 0, 61, 116
1, 53957, Note_off_c, 0, 61, 116
1, 53963, Note_on_c, 0, 60, 111
1, 54127, Note_off_c, 0, 60, 111
1, 54145, Note_on_c, 0, 58, 112
1, 54281, Note_off_c, 0, 58, 112
1, 54325, Note_on_c, 0, 57, 97
1, 54435, Note_off_c, 0, 57, 97
1, 54463, Note_on_c, 0, 66, 115
1, 54539, Note_off_c, 0, 66, 115
1, 54549, Note_on_c, 0, 65, 108
1, 54649, Note_off_c, 0, 65, 108
1, 54655, Note_on_c, 0, 63, 108
1, 54695, Note_off_c, 0, 63, 108
1, 54722, Note_on_c, 0, 61, 96
1, 54891, Note_off_c, 0, 61, 96
1, 54952, Note_on_c, 0, 58, 100
1, 55022, Note_off_c, 0, 58, 100
1, 55044, Note_on_c, 0, 61, 112
1, 55163, Note_off_c, 0, 61, 112
1, 55177, Note_on_c, 0, 58, 105
1, 55294, Note_off_c, 0, 58, 105
1, 55316, Note_on_c, 0, 57, 107
1, 55435, Note_off_c, 0, 57, 107
1, 55531, Note_on_c, 0, 56, 112
1, 55711, Note_off_c, 0, 56, 112
1, 55833, Note_on_c, 0, 60, 111
1, 56080, Note_off_c, 0, 60, 111
1, 56100, Note_on_c, 0, 58, 101
1, 56237, Note_off_c, 0, 58, 101
1, 56237, End_track
0, 0, End_of_file
