0, 0, Header, 1, 1, 192
1, 0, Start_track
1, 0, Title_t, "Melody"
1, 0, Tempo, 304568
1, 0, Key_signature, -2, "major"
1, 0, Time_signature, 4, 2, 24, 8
1, 4937, Note_on_c, 0, 69, 110
1, 4976, Note_off_c, 0, 69, 110
1, 5010, Note_on_c, 0, 65, 108
1, 5128, Note_off_c, 0, 65, 108
1, 5137, Note_on_c, 0, 64, 108
1, 5202, Note_off_c, 0, 64, 108
1, 5217, Note_on_c, 0, 63, 105
1, 5381, Note_off_c, 0, 63, 105
1, 5447, Note_on_c, 0, 58, 98
1, 5512, Note_off_c, 0, 58, 98
1, 5546, Note_on_c, 0, 62, 109
1, 5611, Note_off_c, 0, 62, 109
1, 5623, Note_on_c, 0, 60, 99
1, 5695, Note_off_c, 0, 60, 99
1, 5722, Note_on_c, 0, 58, 109
1, 5781, Note_off_c, 0, 58, 109
1, 5787, Note_on_c, 0, 57, 105
1, 5833, Note_off_c, 0, 57, 105
1, 5934, Note_on_c, 0, 63, 105
1, 5986, Note_off_c, 0, 63, 105
1, 6022, Note_on_c, 0, 68, 115
1, 6191, Note_off_c, 0, 68, 115
1, 6202, Note_on_c, 0, 66, 108
1, 6297, Note_off_c, 0, 66, 108
1, 6417, Note_on_c, 0, 65, 101
1, 6577, Note_off_c, 0, 65, 101
1, 6613, Note_on_c, 0, 62, 108
1, 6692, Note_off_c, 0, 62, 108
1, 6725, Note_on_c, 0, 57, 103
1, 6999, Note_off_c, 0, 57, 103
1, 7311, Note_on_c, 0, 53, 99
1, 7367, Note_off_c, 0, 53, 99
1, 7378, Note_on_c, 0, 55, 105
1, 7486, Note_off_c, 0, 55, 105
1, 7498, Note_on_c, 0, 56, 112
1, 7555, Note_off_c, 0, 56, 112
1, 7687, Note_on_c, 0, 63, 111
1, 7738, Note_off_c, 0, 63, 111
1, 7754, Note_on_c, 0, 61, 109
1, 7846, Note_off_c, 0, 61, 109
1, 7934, Note_on_c, 0, 60, 109
1, 8053, Note_off_c, 0, 60, 109
1, 8067, Note_on_c, 0, 55, 92
1, 8306, Note_off_c, 0, 55, 92
1, 8765, Note_on_c, 0, 65, 112
1, 8884, Note_off_c, 0, 65, 112
1, 8945, Note_on_c, 0, 70, 118
1, 9051, Note_off_c, 0, 70, 118
1, 9057, Note_on_c, 0, 69, 117
1, 9186, Note_off_c, 0, 69, 117
1, 9225, Note_on_c, 0, 67, 109
1, 9277, Note_off_c, 0, 67, 109
1, 9292, Note_on_c, 0, 65, 109
1, 9400, Note_off_c, 0, 65, 109
1, 9411, Note_on_c, 0, 64, 111
1, 9468, Note_off_c, 0, 64, 111
1, 9484, Note_on_c, 0, 62, 111
1, 9558, Note_off_c, 0, 62, 111
1, 9590, Note_on_c, 0, 61, 99
1, 9640, Note_off_c, 0, 61, 99
1, 9651, Note_on_c, 0, 58, 109
1, 9728, Note_off_c, 0, 58, 109
1, 9850, Note_on_c, 0, 60, 113
1, 9938, Note_off_c, 0, 60, 113
1, 9968, Note_on_c, 0, 57, 110
1, 10010, Note_off_c, 0, 57, 110
1, 10015, Note_on_c, 0, 58, 101
1, 10098, Note_off_c, 0, 58, 101
1, 10107, Note_on_c, 0, 63, 89
1, 10139, Note_off_c, 0, 63, 89
1, 10160, Note_on_c, 0, 65, 99
1, 10225, Note_off_c, 0, 65, 99
1, 10255, Note_on_c, 0, 69, 120
1, 10350, Note_off_c, 0, 69, 120
1, 10359, Note_on_c, 0, 68, 115
1, 10424, Note_off_c, 0, 68, 115
1, 10429, Note_on_c, 0, 67, 117
1, 10519, Note_off_c, 0, 67, 117
1, 10529, Note_on_c, 0, 66, 116
1, 10607, Note_off_c, 0, 66, 116
1, 10612, Note_on_c, 0, 65, 112
1, 10675, Note_off_c, 0, 65, 112
1, 10837, Note_on_c, 0, 62, 104
1, 10892, Note_off_c, 0, 62, 104
1, 11029, Note_on_c, 0, 63, 115
1, 11345, Note_off_c, 0, 63, 115
1, 11452, Note_on_c, 0, 55, 109
1, 11583, Note_off_c, 0, 55, 109
1, 11819, Note_on_c, 0, 62, 111
1, 11941, Note_off_c, 0, 62, 111
1, 11956, Note_on_c, 0, 58, 92
1, 11984, Note_off_c, 0, 58, 92
1, 12013, Note_on_c, 0, 62, 115
1, 12106, Note_off_c, 0, 62, 115
1, 12122, Note_on_c, 0, 60, 107
1, 12437, Note_off_c, 0, 60, 107
1, 12489, Note_on_c, 0, 58, 110
1, 12555, Note_off_c, 0, 58, 110
1, 12566, Note_on_c, 0, 57, 113
1, 12627, Note_off_c, 0, 57, 113
1, 12759, Note_on_c, 0, 53, 102
1, 12850, Note_off_c, 0, 53, 102
1, 12874, Note_on_c, 0, 56, 97
1, 12944, Note_off_c, 0, 56, 97
1, 12954, Note_on_c, 0, 57, 103
1, 13390, Note_off_c, 0, 57, 103
1, 14926, Note_on_c, 0, 70, 109
1, 15061, Note_off_c, 0, 70, 109
1, 15111, Note_on_c, 0, 68, 124
1, 15221, Note_off_c, 0, 68, 124
1, 15230, Note_on_c, 0, 65, 111
1, 15298, Note_off_c, 0, 65, 111
1, 15372, Note_on_c, 0, 63, 109
1, 15444, Note_off_c, 0, 63, 109
1, 15454, Note_on_c, 0, 60, 98
1, 15481, Note_off_c, 0, 60, 98
1, 15495, Note_on_c, 0, 58, 110
1, 15549, Note_off_c, 0, 58, 110
1, 15585, Note_on_c, 0, 56, 88
1, 15637, Note_off_c, 0, 56, 88
1, 15656, Note_on_c, 0, 60, 98
1, 15729, Note_off_c, 0, 60, 98
1, 15738, Note_on_c, 0, 62, 106
1, 16004, Note_off_c, 0, 62, 106
1, 16023, Note_on_c, 0, 65, 114
1, 16172, Note_off_c, 0, 65, 114
1, 17156, Note_on_c, 0, 70, 117
1, 17396, Note_off_c, 0, 70, 117
1, 17444, Note_on_c, 0, 67, 127
1, 17513, Note_off_c, 0, 67, 127
1, 17523, Note_on_c, 0, 65, 114
1, 17625, Note_off_c, 0, 65, 114
1, 17659, Note_on_c, 0, 63, 107
1, 17746, Note_off_c, 0, 63, 107
1, 17815, Note_on_c, 0, 70, 120
1, 17941, Note_off_c, 0, 70, 120
1, 18019, Note_on_c, 0, 70, 114
1, 18145, Note_off_c, 0, 70, 114
1, 18164, Note_on_c, 0, 66, 114
1, 18251, Note_off_c, 0, 66, 114
1, 18271, Note_on_c, 0, 65, 110
1, 18363, Note_off_c, 0, 65, 110
1, 18384, Note_on_c, 0, 63, 108
1, 18553, Note_off_c, 0, 63, 108
1, 18654, Note_on_c, 0, 61, 107
1, 18684, Note_off_c, 0, 61, 107
1, 18689, Note_on_c, 0, 62, 110
1, 18997, Note_off_c, 0, 62, 110
1, 19025, Note_on_c, 0, 65, 110
1, 19135, Note_off_c, 0, 65, 110
1, 19459, Note_on_c, 0, 64, 111
1, 19585, Note_off_c, 0, 64, 111
1, 19642, Note_on_c, 0, 67, 118
1, 19719, Note_off_c, 0, 67, 118
1, 19733, Note_on_c, 0, 66, 112
1, 19817, Note_off_c, 0, 66, 112
1, 19913, Note_on_c, 0, 63, 111
1, 19972, Note_off_c, 0, 63, 111
1, 19981, Note_on_c, 0, 62, 106
1, 20141, Note_off_c, 0, 62, 106
1, 20171, Note_on_c, 0, 60, 114
1, 20259, Note_off_c, 0, 60, 114
1, 20279, Note_on_c, 0, 57, 115
1, 20333, Note_off_c, 0, 57, 115
1, 20342, Note_on_c, 0, 58, 105
1, 20408, Note_off_c, 0, 58, 105
1, 20428, Note_on_c, 0, 62, 100
1, 20448, Note_off_c, 0, 62, 100
1, 20463, Note_on_c, 0, 65, 104
1, 20522, Note_off_c, 0, 65, 104
1, 20542, Note_on_c, 0, 69, 120
1, 20650, Note_off_c, 0, 69, 120
1, 20670, Note_on_c, 0, 72, 121
1, 20739, Note_off_c, 0, 72, 121
1, 20744, Note_on_c, 0, 70, 122
1, 20853, Note_off_c, 0, 70, 122
1, 20927, Note_on_c, 0, 65, 100
1, 21005, Note_off_c, 0, 65, 100
1, 21043, Note_on_c, 0, 69, 116
1, 21103, Note_off_c, 0, 69, 116
1, 21114, Note_on_c, 0, 67, 113
1, 21249, Note_off_c, 0, 67, 113
1, 21263, Note_on_c, 0, 64, 104
1, 21380, Note_off_c, 0, 64, 104
1, 21522, Note_on_c, 0, 58, 98
1, 21579, Note_off_c, 0, 58, 98
1, 21593, Note_on_c, 0, 62, 108
1, 21640, Note_off_c, 0, 62, 108
1, 21651, Note_on_c, 0, 60, 115
1, 21708, Note_off_c, 0, 60, 115
1, 21766, Note_on_c, 0, 58, 116
1, 21811, Note_off_c, 0, 58, 116
1, 21825, Note_on_c, 0, 57, 109
1, 21921, Note_off_c, 0, 57, 109
1, 21934, Note_on_c, 0, 56, 90
1, 22010, Note_off_c, 0, 56, 90
1, 22021, Note_on_c, 0, 53, 101
1, 22156, Note_off_c, 0, 53, 101
1, 22180, Note_on_c, 0, 51, 97
1, 22221, Note_off_c, 0, 51, 97
1, 22227, Note_on_c, 0, 50, 94
1, 22321, Note_off_c, 0, 50, 94
1, 22342, Note_on_c, 0, 58, 107
1, 22423, Note_off_c, 0, 58, 107
1, 22428, Note_on_c, 0, 61, 102
1, 22481, Note_off_c, 0, 61, 102
1, 22488, Note_on_c, 0, 62, 111
1, 22562, Note_off_c, 0, 62, 111
1, 22584, Note_on_c, 0, 60, 99
1, 22808, Note_off_c, 0, 60, 99
1, 23613, Note_on_c, 0, 65, 109
1, 24090, Note_off_c, 0, 65, 109
1, 24106, Note_on_c, 0, 62, 106
1, 24207, Note_off_c, 0, 62, 106
1, 24326, Note_on_c, 0, 63, 111
1, 24399, Note_off_c, 0, 63, 111
1, 24501, Note_on_c, 0, 67, 119
1, 24615, Note_off_c, 0, 67, 119
1, 24630, Note_on_c, 0, 65, 112
1, 24723, Note_off_c, 0, 65, 112
1, 24800, Note_on_c, 0, 64, 109
1, 24859, Note_off_c, 0, 64, 109
1, 24872, Note_on_c, 0, 62, 107
1, 24970, Note_off_c, 0, 62, 107
1, 24986, Note_on_c, 0, 60, 104
1, 25041, Note_off_c, 0, 60, 104
1, 25050, Note_on_c, 0, 58, 109
1, 25149, Note_off_c, 0, 58, 109
1, 25272, Note_on_c, 0, 57, 108
1, 25366, Note_off_c, 0, 57, 108
1, 25385, Note_on_c, 0, 60, 113
1, 25622, Note_off_c, 0, 60, 113
1, 25638, Note_on_c, 0, 57, 104
1, 25736, Note_off_c, 0, 57, 104
1, 25766, Note_on_c, 0, 60, 111
1, 25830, Note_off_c, 0, 60, 111
1, 25837, Note_on_c, 0, 59, 101
1, 25939, Note_off_c, 0, 59, 101
1, 25957, Note_on_c, 0, 68, 120
1, 26017, Note_off_c, 0, 68, 120
1, 26027, Note_on_c, 0, 67, 116
1, 26113, Note_off_c, 0, 67, 116
1, 26123, Note_on_c, 0, 65, 112
1, 26188, Note_off_c, 0, 65, 112
1, 26207, Note_on_c, 0, 63, 112
1, 26292, Note_off_c, 0, 63, 112
1, 26413, Note_on_c, 0, 57, 93
1, 26498, Note_off_c, 0, 57, 93
1, 26587, Note_on_c, 0, 62, 117
1, 26673, Note_off_c, 0, 62, 117
1, 26703, Note_on_c, 0, 60, 99
1, 26982, Note_off_c, 0, 60, 99
1, 27655, Note_on_c, 0, 73, 116
1, 27688, Note_off_c, 0, 73, 116
1, 27690, Note_on_c, 0, 74, 104
1, 27726, Note_off_c, 0, 74, 104
1, 27880, Note_on_c, 0, 72, 108
1, 28030, Note_off_c, 0, 72, 108
1, 28045, Note_on_c, 0, 70, 118
1, 28112, Note_off_c, 0, 70, 118
1, 28122, Note_on_c, 0, 68, 122
1, 28211, Note_off_c, 0, 68, 122
1, 28218, Note_on_c, 0, 65, 113
1, 28286, Note_off_c, 0, 65, 113
1, 28300, Note_on_c, 0, 63, 106
1, 28407, Note_off_c, 0, 63, 106
1, 28505, Note_on_c, 0, 60, 108
1, 28568, Note_off_c, 0, 60, 108
1, 28577, Note_on_c, 0, 62, 109
1, 28780, Note_off_c, 0, 62, 109
1, 28821, Note_on_c, 0, 60, 107
1, 28874, Note_off_c, 0, 60, 107
1, 28882, Note_on_c, 0, 59, 111
1, 28955, Note_off_c, 0, 59, 111
1, 28987, Note_on_c, 0, 57, 107
1, 29048, Note_off_c, 0, 57, 107
1, 29054, Note_on_c, 0, 55, 107
1, 29139, Note_off_c, 0, 55, 107
1, 29246, Note_on_c, 0, 53, 111
1, 29338, Note_off_c, 0, 53, 111
1, 29338, End_track
0, 0, End_of_file
