0, 0, Header, 1, 1, 840
1, 0, Start_track
1, 0, Note_on_c, 0, 72, 84
1, 1798, Note_off_c, 0, 72, 84
1, 1914, Note_on_c, 0, 70, 99
1, 2149, Note_off_c, 0, 70, 99
1, 2181, Note_on_c, 0, 70, 105
1, 2350, Note_off_c, 0, 70, 105
1, 2396, Note_on_c, 0, 70, 110
1, 2590, Note_off_c, 0, 70, 110
1, 2666, Note_on_c, 0, 69, 112
1, 2866, Note_off_c, 0, 69, 112
1, 2926, Note_on_c, 0, 69, 115
1, 3118, Note_off_c, 0, 69, 115
1, 3204, Note_on_c, 0, 69, 117
1, 3432, Note_off_c, 0, 69, 117
1, 3452, Note_on_c, 0, 67, 110
1, 3669, Note_off_c, 0, 67, 110
1, 3702, Note_on_c, 0, 67, 111
1, 3943, Note_off_c, 0, 67, 111
1, 3988, Note_on_c, 0, 67, 109
1, 4224, Note_off_c, 0, 67, 109
1, 4254, Note_on_c, 0, 65, 109
1, 4474, Title_t, "Melody"
1, 4474, Tempo, 480000
1, 4474, Key_signature, -1, "major"
1, 4474, Time_signature, 4, 2, 24, 8
1, 4528, Note_off_c, 0, 65, 109
1, 4547, Note_on_c, 0, 65, 109
1, 4783, Note_off_c, 0, 65, 109
1, 4811, Note_on_c, 0, 65, 105
1, 5064, Note_off_c, 0, 65, 105
1, 5096, Note_on_c, 0, 64, 107
1, 5364, Note_off_c, 0, 64, 107
1, 5379, Note_on_c, 0, 64, 108
1, 5624, Note_off_c, 0, 64, 108
1, 5642, Note_on_c, 0, 64, 104
1, 5896, Note_off_c, 0, 64, 104
1, 5923, Note_on_c, 0, 62, 105
1, 6190, Note_off_c, 0, 62, 105
1, 6206, Note_on_c, 0, 62, 103
1, 6461, Note_off_c, 0, 62, 103
1, 6484, Note_on_c, 0, 62, 103
1, 6690, Note_off_c, 0, 62, 103
1, 6759, Note_on_c, 0, 61, 96
1, 6998, Note_off_c, 0, 61, 96
1, 7017, Note_on_c, 0, 61, 97
1, 7292, Note_off_c, 0, 61, 97
1, 7333, Note_on_c, 0, 61, 98
1, 7576, Note_off_c, 0, 61, 98
1, 7583, Note_on_c, 0, 64, 106
1, 7797, Note_off_c, 0, 64, 106
1, 7809, Note_on_c, 0, 61, 96
1, 8059, Note_off_c, 0, 61, 96
1, 8094, Note_on_c, 0, 62, 104
1, 8315, Note_off_c, 0, 62, 104
1, 8448, Note_on_c, 0, 64, 104
1, 8630, Note_off_c, 0, 64, 104
1, 8659, Note_on_c, 0, 65, 105
1, 8929, Note_off_c, 0, 65, 105
1, 8958, Note_on_c, 0, 67, 108
1, 9211, Note_off_c, 0, 67, 108
1, 10522, Note_on_c, 0, 65, 107
1, 10757, Note_off_c, 0, 65, 107
1, 10832, Note_on_c, 0, 64, 103
1, 11027, Note_off_c, 0, 64, 103
1, 11324, Note_on_c, 0, 62, 102
1, 11538, Note_off_c, 0, 62, 102
1, 11619, Note_on_c, 0, 60, 99
1, 11842, Note_off_c, 0, 60, 99
1, 11911, Note_on_c, 0, 57, 87
1, 12092, Note_off_c, 0, 57, 87
1, 12114, Note_on_c, 0, 58, 96
1, 12341, Note_off_c, 0, 58, 96
1, 12431, Note_on_c, 0, 60, 97
1, 12711, Note_off_c, 0, 60, 97
1, 12738, Note_on_c, 0, 57, 93
1, 12950, Note_off_c, 0, 57, 93
1, 12993, Note_on_c, 0, 58, 98
1, 13191, Note_off_c, 0, 58, 98
1, 13310, Note_on_c, 0, 63, 108
1, 13562, Note_off_c, 0, 63, 108
1, 13585, Note_on_c, 0, 60, 95
1, 13763, Note_off_c, 0, 60, 95
1, 13800, Note_on_c, 0, 61, 100
1, 14036, Note_off_c, 0, 61, 100
1, 14129, Note_on_c, 0, 63, 109
1, 14371, Note_off_c, 0, 63, 109
1, 14446, Note_on_c, 0, 60, 91
1, 14578, Note_off_c, 0, 60, 91
1, 14660, Note_on_c, 0, 61, 102
1, 14854, Note_off_c, 0, 61, 102
1, 14970, Note_on_c, 0, 64, 109
1, 16003, Note_off_c, 0, 64, 109
1, 16094, Note_on_c, 0, 61, 101
1, 16260, Note_off_c, 0, 61, 101
1, 16294, Note_on_c, 0, 62, 105
1, 16451, Note_off_c, 0, 62, 105
1, 16585, Note_on_c, 0, 64, 109
1, 16763, Note_off_c, 0, 64, 109
1, 17679, Note_on_c, 0, 62, 104
1, 17857, Note_off_c, 0, 62, 104
1, 17928, Note_on_c, 0, 57, 100
1, 18135, Note_off_c, 0, 57, 100
1, 18247, Note_on_c, 0, 55, 91
1, 18720, Note_off_c, 0, 55, 91
1, 18761, Note_on_c, 0, 55, 90
1, 19559, Note_off_c, 0, 55, 90
1, 21377, Note_on_c, 0, 57, 84
1, 21498, Note_off_c, 0, 57, 84
1, 21715, Note_on_c, 0, 59, 99
1, 21821, Note_off_c, 0, 59, 99
1, 22107, Note_on_c, 0, 59, 94
1, 22239, Note_off_c, 0, 59, 94
1, 22262, Note_on_c, 0, 61, 92
1, 22358, Note_off_c, 0, 61, 92
1, 22424, Note_on_c, 0, 62, 100
1, 22599, Note_off_c, 0, 62, 100
1, 22850, Note_on_c, 0, 62, 99
1, 22976, Note_off_c, 0, 62, 99
1, 23031, Note_on_c, 0, 64, 100
1, 23178, Note_off_c, 0, 64, 100
1, 23204, Note_on_c, 0, 65, 99
1, 23419, Note_off_c, 0, 65, 99
1, 23433, Note_on_c, 0, 64, 105
1, 23596, Note_off_c, 0, 64, 105
1, 23604, Note_on_c, 0, 62, 97
1, 23817, Note_off_c, 0, 62, 97
1, 23915, Note_on_c, 0, 61, 81
1, 23994, Note_off_c, 0, 61, 81
1, 23999, Note_on_c, 0, 64, 104
1, 24230, Note_off_c, 0, 64, 104
1, 24265, Note_on_c, 0, 61, 96
1, 24417, Note_off_c, 0, 61, 96
1, 24436, Note_on_c, 0, 62, 98
1, 24604, Note_off_c, 0, 62, 98
1, 24638, Note_on_c, 0, 64, 99
1, 24813, Note_off_c, 0, 64, 99
1, 24837, Note_on_c, 0, 65, 107
1, 25049, Note_off_c, 0, 65, 107
1, 25083, Note_on_c, 0, 68, 96
1, 25211, Note_off_c, 0, 68, 96
1, 25244, Note_on_c, 0, 69, 112
1, 25499, Note_off_c, 0, 69, 112
1, 25511, Note_on_c, 0, 66, 92
1, 25627, Note_off_c, 0, 66, 92
1, 25639, Note_on_c, 0, 67, 107
1, 25844, Note_off_c, 0, 67, 107
1, 25851, Note_on_c, 0, 65, 105
1, 26029, Note_off_c, 0, 65, 105
1, 26048, Note_on_c, 0, 64, 99
1, 26213, Note_off_c, 0, 64, 99
1, 26221, Note_on_c, 0, 62, 102
1, 26419, Note_off_c, 0, 62, 102
1, 26449, Note_on_c, 0, 61, 101
1, 26584, Note_off_c, 0, 61, 101
1, 26856, Note_on_c, 0, 64, 111
1, 27064, Note_off_c, 0, 64, 111
1, 27079, Note_on_c, 0, 61, 86
1, 27193, Note_off_c, 0, 61, 86
1, 27258, Note_on_c, 0, 62, 107
1, 27447, Note_off_c, 0, 62, 107
1, 27495, Note_on_c, 0, 64, 103
1, 27642, Note_off_c, 0, 64, 103
1, 27668, Note_on_c, 0, 65, 103
1, 27892, Note_off_c, 0, 65, 103
1, 27932, Note_on_c, 0, 67, 96
1, 28063, Note_off_c, 0, 67, 96
1, 28068, Note_on_c, 0, 69, 115
1, 28457, Note_off_c, 0, 69, 115
1, 28468, Note_on_c, 0, 67, 102
1, 28763, Note_off_c, 0, 67, 102
1, 28780, Note_on_c, 0, 65, 82
1, 28873, Note_off_c, 0, 65, 82
1, 28898, Note_on_c, 0, 67, 106
1, 29241, Note_off_c, 0, 67, 106
1, 29276, Note_on_c, 0, 65, 107
1, 29494, Note_off_c, 0, 65, 107
1, 29600, Note_on_c, 0, 64, 74
1, 29717, Note_off_c, 0, 64, 74
1, 29767, Note_on_c, 0, 65, 105
1, 30056, Note_off_c, 0, 65, 105
1, 30111, Note_on_c, 0, 64, 104
1, 30339, Note_off_c, 0, 64, 104
1, 30394, Note_on_c, 0, 62, 82
1, 30498, Note_off_c, 0, 62, 82
1, 30542, Note_on_c, 0, 64, 106
1, 30891, Note_off_c, 0, 64, 106
1, 30959, Note_on_c, 0, 62, 105
1, 31152, Note_off_c, 0, 62, 105
1, 31259, Note_on_c, 0, 59, 81
1, 31327, Note_off_c, 0, 59, 81
1, 31332, Note_on_c, 0, 62, 102
1, 31746, Note_off_c, 0, 62, 102
1, 31778, Note_on_c, 0, 61, 102
1, 32001, Note_off_c, 0, 61, 102
1, 32069, Note_on_c, 0, 58, 89
1, 32140, Note_off_c, 0, 58, 89
1, 32192, Note_on_c, 0, 61, 102
1, 32527, Note_off_c, 0, 61, 102
1, 32607, Note_on_c, 0, 59, 101
1, 32813, Note_off_c, 0, 59, 101
1, 32867, Note_on_c, 0, 57, 83
1, 32977, Note_off_c, 0, 57, 83
1, 33013, Note_on_c, 0, 59, 100
1, 33334, Note_off_c, 0, 59, 100
1, 33376, Note_on_c, 0, 59, 92
1, 33526, Note_off_c, 0, 59, 92
1, 34716, Note_on_c, 0, 64, 106
1, 34903, Note_off_c, 0, 64, 106
1, 34920, Note_on_c, 0, 65, 106
1, 35048, Note_off_c, 0, 65, 106
1, 35082, Note_on_c, 0, 64, 109
1, 35267, Note_off_c, 0, 64, 109
1, 35273, Note_on_c, 0, 62, 103
1, 35436, Note_off_c, 0, 62, 103
1, 35530, Note_on_c, 0, 61, 91
1, 35641, Note_off_c, 0, 61, 91
1, 35731, Note_on_c, 0, 64, 101
1, 35889, Note_off_c, 0, 64, 101
1, 35898, Note_on_c, 0, 67, 115
1, 36133, Note_on_c, 0, 69, 109
1, 36133, Note_off_c, 0, 67, 115
1, 36280, Note_off_c, 0, 69, 109
1, 36300, Note_on_c, 0, 70, 123
1, 36721, Note_off_c, 0, 70, 123
1, 36792, Note_on_c, 0, 64, 90
1, 36903, Note_off_c, 0, 64, 90
1, 36989, Note_on_c, 0, 69, 109
1, 37771, Note_off_c, 0, 69, 109
1, 37913, Note_on_c, 0, 67, 106
1, 38055, Note_off_c, 0, 67, 106
1, 38110, Note_on_c, 0, 66, 110
1, 38226, Note_off_c, 0, 66, 110
1, 38256, Note_on_c, 0, 66, 110
1, 38413, Note_off_c, 0, 66, 110
1, 38460, Note_on_c, 0, 64, 104
1, 38653, Note_off_c, 0, 64, 104
1, 38897, Note_on_c, 0, 62, 102
1, 39051, Note_off_c, 0, 62, 102
1, 39276, Note_on_c, 0, 61, 100
1, 39485, Note_off_c, 0, 61, 100
1, 39510, Note_on_c, 0, 60, 94
1, 39692, Note_off_c, 0, 60, 94
1, 39912, Note_on_c, 0, 64, 112
1, 40379, Note_off_c, 0, 64, 112
1, 40519, Note_on_c, 0, 62, 105
1, 41052, Note_off_c, 0, 62, 105
1, 41165, Note_on_c, 0, 60, 100
1, 41307, Note_off_c, 0, 60, 100
1, 41346, Note_on_c, 0, 59, 93
1, 41498, Note_off_c, 0, 59, 93
1, 41763, Note_on_c, 0, 59, 95
1, 41934, Note_off_c, 0, 59, 95
1, 41959, Note_on_c, 0, 60, 95
1, 42096, Note_off_c, 0, 60, 95
1, 42109, Note_on_c, 0, 62, 108
1, 42304, Note_off_c, 0, 62, 108
1, 42358, Note_on_c, 0, 64, 109
1, 42510, Note_off_c, 0, 64, 109
1, 42529, Note_on_c, 0, 65, 109
1, 42772, Note_off_c, 0, 65, 109
1, 42775, Note_on_c, 0, 67, 105
1, 42931, Note_off_c, 0, 67, 105
1, 42946, Note_on_c, 0, 69, 117
1, 43149, Note_off_c, 0, 69, 117
1, 43369, Note_on_c, 0, 72, 123
1, 43767, Note_off_c, 0, 72, 123
1, 43809, Note_on_c, 0, 71, 119
1, 44237, Note_off_c, 0, 71, 119
1, 44246, Note_on_c, 0, 69, 113
1, 44606, Note_off_c, 0, 69, 113
1, 44617, Note_on_c, 0, 70, 112
1, 44926, Note_off_c, 0, 70, 112
1, 46095, Note_on_c, 0, 62, 85
1, 46267, Note_off_c, 0, 62, 85
1, 46413, Note_on_c, 0, 69, 120
1, 46905, Note_off_c, 0, 69, 120
1, 46945, Note_on_c, 0, 67, 114
1, 47727, Note_off_c, 0, 67, 114
1, 48168, Note_on_c, 0, 70, 115
1, 48412, Note_off_c, 0, 70, 115
1, 48421, Note_on_c, 0, 67, 106
1, 48634, Note_off_c, 0, 67, 106
1, 48640, Note_on_c, 0, 64, 102
1, 48846, Note_off_c, 0, 64, 102
1, 48893, Note_on_c, 0, 60, 95
1, 49054, Note_off_c, 0, 60, 95
1, 49183, Note_on_c, 0, 69, 105
1, 49352, Note_off_c, 0, 69, 105
1, 49417, Note_on_c, 0, 65, 107
1, 49635, Note_off_c, 0, 65, 107
1, 49669, Note_on_c, 0, 62, 104
1, 49873, Note_off_c, 0, 62, 104
1, 49901, Note_on_c, 0, 58, 96
1, 50080, Note_off_c, 0, 58, 96
1, 50239, Note_on_c, 0, 67, 113
1, 50471, Note_off_c, 0, 67, 113
1, 50540, Note_on_c, 0, 63, 105
1, 50716, Note_off_c, 0, 63, 105
1, 50763, Note_on_c, 0, 60, 99
1, 50938, Note_off_c, 0, 60, 99
1, 50967, Note_on_c, 0, 57, 97
1, 51149, Note_off_c, 0, 57, 97
1, 51308, Note_on_c, 0, 65, 110
1, 51617, Note_off_c, 0, 65, 110
1, 52779, Note_on_c, 0, 62, 113
1, 53017, Note_off_c, 0, 62, 113
1, 53136, Note_on_c, 0, 60, 101
1, 53358, Note_off_c, 0, 60, 101
1, 53631, Note_on_c, 0, 58, 105
1, 53834, Note_off_c, 0, 58, 105
1, 53955, Note_on_c, 0, 60, 105
1, 54107, Note_off_c, 0, 60, 105
1, 54452, Note_on_c, 0, 58, 108
1, 54680, Note_off_c, 0, 58, 108
1, 54762, Note_on_c, 0, 57, 106
1, 57093, Note_off_c, 0, 57, 106
1, 58031, Note_on_c, 0, 72, 127
1, 58359, Note_off_c, 0, 72, 127
1, 59757, Note_on_c, 0, 57, 103
1, 61585, Note_off_c, 0, 57, 103
1, 61838, Note_on_c, 0, 60, 101
1, 62028, Note_off_c, 0, 60, 101
1, 62039, Note_on_c, 0, 61, 96
1, 62197, Note_off_c, 0, 61, 96
1, 62213, Note_on_c, 0, 62, 102
1, 62390, Note_off_c, 0, 62, 102
1, 62429, Note_on_c, 0, 64, 111
1, 62589, Note_off_c, 0, 64, 111
1, 62603, Note_on_c, 0, 65, 111
1, 62804, Note_off_c, 0, 65, 111
1, 62845, Note_on_c, 0, 67, 109
1, 63010, Note_off_c, 0, 67, 109
1, 63013, Note_on_c, 0, 69, 115
1, 63143, Note_off_c, 0, 69, 115
1, 63443, Note_on_c, 0, 70, 120
1, 63783, Note_off_c, 0, 70, 120
1, 63870, Note_on_c, 0, 72, 120
1, 64396, Note_off_c, 0, 72, 120
1, 64460, Note_on_c, 0, 70, 114
1, 64654, Note_off_c, 0, 70, 114
1, 64710, Note_on_c, 0, 69, 113
1, 64922, Note_off_c, 0, 69, 113
1, 64966, Note_on_c, 0, 70, 111
1, 65179, Note_off_c, 0, 70, 111
1, 65316, Note_on_c, 0, 67, 104
1, 65502, Note_off_c, 0, 67, 104
1, 65509, Note_on_c, 0, 69, 113
1, 65727, Note_off_c, 0, 69, 113
1, 65885, Note_on_c, 0, 65, 104
1, 66121, Note_off_c, 0, 65, 104
1, 66129, Note_on_c, 0, 67, 115
1, 66325, Note_off_c, 0, 67, 115
1, 66527, Note_on_c, 0, 64, 105
1, 66679, Note_off_c, 0, 64, 105
1, 66702, Note_on_c, 0, 65, 114
1, 67073, Note_off_c, 0, 65, 114
1, 67168, Note_on_c, 0, 61, 105
1, 67362, Note_off_c, 0, 61, 105
1, 67375, Note_on_c, 0, 64, 105
1, 67608, Note_off_c, 0, 64, 105
1, 67737, Note_on_c, 0, 61, 97
1, 67906, Note_off_c, 0, 61, 97
1, 67912, Note_on_c, 0, 62, 104
1, 68152, Note_off_c, 0, 62, 104
1, 68178, Note_on_c, 0, 57, 97
1, 68359, Note_off_c, 0, 57, 97
1, 68738, Note_on_c, 0, 57, 90
1, 69414, Note_off_c, 0, 57, 90
1, 70993, Note_on_c, 0, 55, 83
1, 71160, Note_off_c, 0, 55, 83
1, 71170, Note_on_c, 0, 57, 92
1, 71283, Note_off_c, 0, 57, 92
1, 71304, Note_on_c, 0, 58, 99
1, 71519, Note_off_c, 0, 58, 99
1, 71710, Note_on_c, 0, 58, 94
1, 71892, Note_off_c, 0, 58, 94
1, 71933, Note_on_c, 0, 60, 90
1, 72096, Note_off_c, 0, 60, 90
1, 72113, Note_on_c, 0, 61, 99
1, 72300, Note_off_c, 0, 61, 99
1, 72339, Note_on_c, 0, 60, 101
1, 72533, Note_off_c, 0, 60, 101
1, 72538, Note_on_c, 0, 58, 101
1, 72784, Note_off_c, 0, 58, 101
1, 72801, Note_on_c, 0, 57, 98
1, 72921, Note_off_c, 0, 57, 98
1, 72931, Note_on_c, 0, 56, 96
1, 73178, Note_off_c, 0, 56, 96
1, 73206, Note_on_c, 0, 53, 95
1, 73350, Note_off_c, 0, 53, 95
1, 73405, Note_on_c, 0, 52, 92
1, 73566, Note_off_c, 0, 52, 92
1, 74208, Note_on_c, 0, 55, 102
1, 74418, Note_off_c, 0, 55, 102
1, 74425, Note_on_c, 0, 57, 105
1, 75318, Note_off_c, 0, 57, 105
1, 75523, Note_on_c, 0, 59, 103
1, 76010, Note_off_c, 0, 59, 103
1, 76083, Note_on_c, 0, 61, 100
1, 76232, Note_off_c, 0, 61, 100
1, 76247, Note_on_c, 0, 62, 104
1, 76423, Note_off_c, 0, 62, 104
1, 76545, Note_on_c, 0, 61, 91
1, 76634, Note_off_c, 0, 61, 91
1, 76701, Note_on_c, 0, 62, 103
1, 76868, Note_off_c, 0, 62, 103
1, 76917, Note_on_c, 0, 64, 102
1, 77082, Note_off_c, 0, 64, 102
1, 77097, Note_on_c, 0, 65, 111
1, 77269, Note_off_c, 0, 65, 111
1, 77300, Note_on_c, 0, 64, 104
1, 77455, Note_off_c, 0, 64, 104
1, 77476, Note_on_c, 0, 65, 103
1, 77661, Note_off_c, 0, 65, 103
1, 77685, Note_on_c, 0, 65, 103
1, 77854, Note_off_c, 0, 65, 103
1, 77900, Note_on_c, 0, 65, 108
1, 78064, Note_off_c, 0, 65, 108
1, 78101, Note_on_c, 0, 64, 102
1, 78234, Note_off_c, 0, 64, 102
1, 78273, Note_on_c, 0, 65, 110
1, 78455, Note_off_c, 0, 65, 110
1, 78489, Note_on_c, 0, 64, 96
1, 78640, Note_off_c, 0, 64, 96
1, 78674, Note_on_c, 0, 65, 104
1, 78884, Note_off_c, 0, 65, 104
1, 78899, Note_on_c, 0, 67, 111
1, 79061, Note_off_c, 0, 67, 111
1, 79079, Note_on_c, 0, 68, 116
1, 79238, Note_off_c, 0, 68, 116
1, 79288, Note_on_c, 0, 67, 106
1, 79461, Note_off_c, 0, 67, 106
1, 79492, Note_on_c, 0, 68, 117
1, 79658, Note_off_c, 0, 68, 117
1, 79711, Note_on_c, 0, 67, 108
1, 79882, Note_off_c, 0, 67, 108
1, 79901, Note_on_c, 0, 68, 112
1, 80069, Note_off_c, 0, 68, 112
1, 80103, Note_on_c, 0, 67, 98
1, 80259, Note_off_c, 0, 67, 98
1, 80279, Note_on_c, 0, 68, 118
1, 80442, Note_off_c, 0, 68, 118
1, 80492, Note_on_c, 0, 67, 108
1, 80645, Note_off_c, 0, 67, 108
1, 80651, Note_on_c, 0, 65, 107
1, 80854, Note_off_c, 0, 65, 107
1, 81642, Note_on_c, 0, 69, 111
1, 81916, Note_off_c, 0, 69, 111
1, 81984, Note_on_c, 0, 67, 112
1, 82507, Note_off_c, 0, 67, 112
1, 82574, Note_on_c, 0, 65, 97
1, 82736, Note_off_c, 0, 65, 97
1, 82769, Note_on_c, 0, 67, 113
1, 83916, Note_off_c, 0, 67, 113
1, 84182, Note_on_c, 0, 65, 110
1, 84329, Note_off_c, 0, 65, 110
1, 84379, Note_on_c, 0, 64, 112
1, 84511, Note_off_c, 0, 64, 112
1, 84658, Note_on_c, 0, 58, 101
1, 84825, Note_off_c, 0, 58, 101
1, 85279, Note_on_c, 0, 58, 94
1, 85936, Note_off_c, 0, 58, 94
1, 88755, Note_on_c, 0, 65, 108
1, 88917, Note_off_c, 0, 65, 108
1, 89005, Note_on_c, 0, 64, 109
1, 89207, Note_off_c, 0, 64, 109
1, 89241, Note_on_c, 0, 62, 107
1, 89444, Note_off_c, 0, 62, 107
1, 89591, Note_on_c, 0, 61, 104
1, 89886, Note_off_c, 0, 61, 104
1, 90070, Note_on_c, 0, 58, 105
1, 90358, Note_off_c, 0, 58, 105
1, 90438, Note_on_c, 0, 57, 104
1, 90713, Note_off_c, 0, 57, 104
1, 90929, Note_on_c, 0, 55, 100
1, 91183, Note_off_c, 0, 55, 100
1, 91245, Note_on_c, 0, 54, 96
1, 91509, Note_off_c, 0, 54, 96
1, 91718, Note_on_c, 0, 57, 107
1, 91916, Note_off_c, 0, 57, 107
1, 92055, Note_on_c, 0, 60, 101
1, 92298, Note_off_c, 0, 60, 101
1, 92493, Note_on_c, 0, 64, 115
1, 92797, Note_off_c, 0, 64, 115
1, 93017, Note_on_c, 0, 71, 126
1, 93311, Note_off_c, 0, 71, 126
1, 93327, Note_on_c, 0, 72, 123
1, 93616, Note_off_c, 0, 72, 123
1, 93819, Note_on_c, 0, 69, 118
1, 94133, Note_off_c, 0, 69, 118
1, 94148, Note_on_c, 0, 71, 118
1, 94412, Note_off_c, 0, 71, 118
1, 94666, Note_on_c, 0, 67, 117
1, 94910, Note_off_c, 0, 67, 117
1, 94934, Note_on_c, 0, 69, 114
1, 95198, Note_off_c, 0, 69, 114
1, 95421, Note_on_c, 0, 65, 111
1, 95687, Note_off_c, 0, 65, 111
1, 95712, Note_on_c, 0, 67, 115
1, 96013, Note_off_c, 0, 67, 115
1, 96186, Note_on_c, 0, 64, 112
1, 96429, Note_off_c, 0, 64, 112
1, 96474, Note_on_c, 0, 65, 109
1, 96763, Note_off_c, 0, 65, 109
1, 96933, Note_on_c, 0, 62, 105
1, 97194, Note_off_c, 0, 62, 105
1, 97242, Note_on_c, 0, 64, 114
1, 97551, Note_off_c, 0, 64, 114
1, 97817, Note_on_c, 0, 60, 104
1, 98472, Note_off_c, 0, 60, 104
1, 98756, Note_on_c, 0, 55, 93
1, 98978, Note_off_c, 0, 55, 93
1, 99168, Note_on_c, 0, 57, 97
1, 99476, Note_off_c, 0, 57, 97
1, 99493, Note_on_c, 0, 58, 101
1, 99965, Note_off_c, 0, 58, 101
1, 99984, Note_on_c, 0, 62, 110
1, 100243, Note_off_c, 0, 62, 110
1, 100414, Note_on_c, 0, 69, 114
1, 100805, Note_off_c, 0, 69, 114
1, 100858, Note_on_c, 0, 67, 115
1, 101178, Note_off_c, 0, 67, 115
1, 101281, Note_on_c, 0, 65, 105
1, 101372, Note_off_c, 0, 65, 105
1, 101384, Note_on_c, 0, 64, 106
1, 101510, Note_off_c, 0, 64, 106
1, 101528, Note_on_c, 0, 65, 111
1, 102457, Note_off_c, 0, 65, 111
1, 102568, Note_on_c, 0, 64, 112
1, 102827, Note_off_c, 0, 64, 112
1, 102890, Note_on_c, 0, 63, 108
1, 103197, Note_off_c, 0, 63, 108
1, 103445, Note_on_c, 0, 58, 102
1, 103650, Note_off_c, 0, 58, 102
1, 103702, Note_on_c, 0, 62, 110
1, 103964, Note_off_c, 0, 62, 110
1, 104276, Note_on_c, 0, 57, 102
1, 104448, Note_off_c, 0, 57, 102
1, 104506, Note_on_c, 0, 60, 108
1, 104772, Note_off_c, 0, 60, 108
1, 105935, Note_on_c, 0, 58, 114
1, 106168, Note_off_c, 0, 58, 114
1, 106291, Note_on_c, 0, 57, 107
1, 106617, Note_off_c, 0, 57, 107
1, 106797, Note_on_c, 0, 58, 111
1, 107035, Note_off_c, 0, 58, 111
1, 107120, Note_on_c, 0, 62, 110
1, 107363, Note_off_c, 0, 62, 110
1, 107564, Note_on_c, 0, 64, 118
1, 107850, Note_off_c, 0, 64, 118
1, 107879, Note_on_c, 0, 65, 118
1, 108177, Note_off_c, 0, 65, 118
1, 108808, Note_on_c, 0, 57, 109
1, 109368, Note_off_c, 0, 57, 109
1, 109617, Note_on_c, 0, 62, 115
1, 109847, Note_off_c, 0, 62, 115
1, 109857, Note_on_c, 0, 64, 116
1, 110032, Note_off_c, 0, 64, 116
1, 110052, Note_on_c, 0, 65, 114
1, 110277, Note_off_c, 0, 65, 114
1, 110955, Note_on_c, 0, 58, 112
1, 111153, Note_off_c, 0, 58, 112
1, 111340, Note_on_c, 0, 63, 118
1, 111502, Note_off_c, 0, 63, 118
1, 111559, Note_on_c, 0, 65, 116
1, 111691, Note_off_c, 0, 65, 116
1, 111764, Note_on_c, 0, 67, 116
1, 111987, Note_off_c, 0, 67, 116
1, 112694, Note_on_c, 0, 58, 112
1, 112881, Note_off_c, 0, 58, 112
1, 113019, Note_on_c, 0, 63, 123
1, 113181, Note_off_c, 0, 63, 123
1, 113254, Note_on_c, 0, 65, 115
1, 113421, Note_off_c, 0, 65, 115
1, 113461, Note_on_c, 0, 67, 117
1, 113703, Note_off_c, 0, 67, 117
1, 114506, Note_on_c, 0, 57, 101
1, 114620, Note_off_c, 0, 57, 101
1, 114668, Note_on_c, 0, 62, 105
1, 114815, Note_off_c, 0, 62, 105
1, 114840, Note_on_c, 0, 64, 111
1, 115040, Note_off_c, 0, 64, 111
1, 115051, Note_on_c, 0, 65, 106
1, 115271, Note_off_c, 0, 65, 106
1, 115293, Note_on_c, 0, 67, 102
1, 115432, Note_off_c, 0, 67, 102
1, 115446, Note_on_c, 0, 69, 111
1, 115630, Note_off_c, 0, 69, 111
1, 115825, Note_on_c, 0, 69, 106
1, 116033, Note_off_c, 0, 69, 106
1, 116254, Note_on_c, 0, 69, 109
1, 116426, Note_off_c, 0, 69, 109
1, 116628, Note_on_c, 0, 69, 119
1, 116846, Note_off_c, 0, 69, 119
1, 116889, Note_on_c, 0, 69, 123
1, 117087, Note_off_c, 0, 69, 123
1, 117287, Note_on_c, 0, 70, 121
1, 117779, Note_off_c, 0, 70, 121
1, 117929, Note_on_c, 0, 69, 119
1, 118109, Note_off_c, 0, 69, 119
1, 118118, Note_on_c, 0, 67, 108
1, 118281, Note_off_c, 0, 67, 108
1, 118293, Note_on_c, 0, 65, 102
1, 118505, Note_off_c, 0, 65, 102
1, 118741, Note_on_c, 0, 67, 119
1, 119279, Note_off_c, 0, 67, 119
1, 119334, Note_on_c, 0, 65, 112
1, 119496, Note_off_c, 0, 65, 112
1, 119523, Note_on_c, 0, 64, 111
1, 119699, Note_off_c, 0, 64, 111
1, 119723, Note_on_c, 0, 62, 110
1, 119899, Note_off_c, 0, 62, 110
1, 119930, Note_on_c, 0, 61, 102
1, 120092, Note_off_c, 0, 61, 102
1, 120201, Note_on_c, 0, 67, 103
1, 120288, Note_off_c, 0, 67, 103
1, 120332, Note_on_c, 0, 67, 120
1, 120495, Note_off_c, 0, 67, 120
1, 121608, Note_on_c, 0, 69, 119
1, 121801, Note_off_c, 0, 69, 119
1, 122028, Note_on_c, 0, 74, 123
1, 122294, Note_off_c, 0, 74, 123
1, 122504, Note_on_c, 0, 73, 122
1, 122757, Note_off_c, 0, 73, 122
1, 122965, Note_on_c, 0, 69, 118
1, 123164, Note_off_c, 0, 69, 118
1, 123379, Note_on_c, 0, 72, 121
1, 123566, Note_off_c, 0, 72, 121
1, 123649, Note_on_c, 0, 71, 124
1, 123836, Note_off_c, 0, 71, 124
1, 124110, Note_on_c, 0, 67, 113
1, 124236, Note_off_c, 0, 67, 113
1, 124472, Note_on_c, 0, 70, 120
1, 124665, Note_off_c, 0, 70, 120
1, 124924, Note_on_c, 0, 69, 119
1, 125162, Note_off_c, 0, 69, 119
1, 125346, Note_on_c, 0, 67, 117
1, 125539, Note_off_c, 0, 67, 117
1, 125710, Note_on_c, 0, 65, 115
1, 125847, Note_off_c, 0, 65, 115
1, 125874, Note_on_c, 0, 64, 108
1, 126061, Note_off_c, 0, 64, 108
1, 126078, Note_on_c, 0, 62, 103
1, 126181, Note_off_c, 0, 62, 103
1, 126349, Note_on_c, 0, 65, 116
1, 126785, Note_off_c, 0, 65, 116
1, 126932, Note_on_c, 0, 61, 103
1, 127099, Note_off_c, 0, 61, 103
1, 127116, Note_on_c, 0, 60, 105
1, 127382, Note_off_c, 0, 60, 105
1, 127395, Note_on_c, 0, 58, 104
1, 127582, Note_off_c, 0, 58, 104
1, 127803, Note_on_c, 0, 56, 101
1, 127960, Note_off_c, 0, 56, 101
1, 127966, Note_on_c, 0, 57, 100
1, 128179, Note_off_c, 0, 57, 100
1, 128392, Note_on_c, 0, 64, 110
1, 128635, Note_off_c, 0, 64, 110
1, 128659, Note_on_c, 0, 61, 87
1, 128785, Note_off_c, 0, 61, 87
1, 128906, Note_on_c, 0, 62, 111
1, 129759, Note_off_c, 0, 62, 111
1, 129926, Note_on_c, 0, 64, 113
1, 130065, Note_off_c, 0, 64, 113
1, 130079, Note_on_c, 0, 65, 112
1, 130272, Note_off_c, 0, 65, 112
1, 130291, Note_on_c, 0, 67, 107
1, 130444, Note_off_c, 0, 67, 107
1, 130461, Note_on_c, 0, 68, 118
1, 130699, Note_off_c, 0, 68, 118
1, 131595, Note_on_c, 0, 67, 117
1, 131894, Note_off_c, 0, 67, 117
1, 131951, Note_on_c, 0, 65, 103
1, 132105, Note_off_c, 0, 65, 103
1, 132124, Note_on_c, 0, 67, 116
1, 132470, Note_off_c, 0, 67, 116
1, 132475, Note_on_c, 0, 65, 112
1, 132734, Note_off_c, 0, 65, 112
1, 132747, Note_on_c, 0, 64, 102
1, 132887, Note_off_c, 0, 64, 102
1, 132900, Note_on_c, 0, 65, 114
1, 133249, Note_off_c, 0, 65, 114
1, 133323, Note_on_c, 0, 64, 112
1, 133556, Note_off_c, 0, 64, 112
1, 133614, Note_on_c, 0, 62, 86
1, 133680, Note_off_c, 0, 62, 86
1, 133762, Note_on_c, 0, 64, 114
1, 134070, Note_off_c, 0, 64, 114
1, 134188, Note_on_c, 0, 62, 106
1, 134416, Note_off_c, 0, 62, 106
1, 134452, Note_on_c, 0, 59, 84
1, 134528, Note_off_c, 0, 59, 84
1, 134592, Note_on_c, 0, 62, 104
1, 134885, Note_off_c, 0, 62, 104
1, 134901, Note_on_c, 0, 62, 98
1, 135176, Note_off_c, 0, 62, 98
1, 136233, Note_on_c, 0, 62, 108
1, 136377, Note_off_c, 0, 62, 108
1, 136415, Note_on_c, 0, 64, 107
1, 136566, Note_off_c, 0, 64, 107
1, 136580, Note_on_c, 0, 65, 107
1, 136820, Note_off_c, 0, 65, 107
1, 136825, Note_on_c, 0, 67, 102
1, 136974, Note_off_c, 0, 67, 102
1, 136985, Note_on_c, 0, 69, 117
1, 138015, Note_off_c, 0, 69, 117
1, 138111, Note_on_c, 0, 67, 115
1, 138319, Note_off_c, 0, 67, 115
1, 138474, Note_on_c, 0, 65, 88
1, 138583, Note_off_c, 0, 65, 88
1, 138609, Note_on_c, 0, 67, 115
1, 138988, Note_off_c, 0, 67, 115
1, 139000, Note_on_c, 0, 65, 109
1, 139256, Note_off_c, 0, 65, 109
1, 139268, Note_on_c, 0, 64, 91
1, 139385, Note_off_c, 0, 64, 91
1, 139413, Note_on_c, 0, 65, 110
1, 139818, Note_off_c, 0, 65, 110
1, 139856, Note_on_c, 0, 64, 113
1, 140094, Note_off_c, 0, 64, 113
1, 140102, Note_on_c, 0, 62, 94
1, 140278, Note_off_c, 0, 62, 94
1, 140285, Note_on_c, 0, 64, 108
1, 140582, Note_off_c, 0, 64, 108
1, 140610, Note_on_c, 0, 64, 108
1, 140813, Note_off_c, 0, 64, 108
1, 141164, Note_on_c, 0, 64, 105
1, 141296, Note_off_c, 0, 64, 105
1, 141328, Note_on_c, 0, 65, 110
1, 141480, Note_off_c, 0, 65, 110
1, 141503, Note_on_c, 0, 64, 111
1, 141665, Note_off_c, 0, 64, 111
1, 141680, Note_on_c, 0, 62, 106
1, 141876, Note_off_c, 0, 62, 106
1, 141889, Note_on_c, 0, 61, 97
1, 142000, Note_off_c, 0, 61, 97
1, 144616, Note_on_c, 0, 57, 111
1, 144856, Note_off_c, 0, 57, 111
1, 144895, Note_on_c, 0, 56, 98
1, 145066, Note_off_c, 0, 56, 98
1, 145100, Note_on_c, 0, 57, 107
1, 145306, Note_off_c, 0, 57, 107
1, 145417, Note_on_c, 0, 59, 105
1, 145676, Note_off_c, 0, 59, 105
1, 145722, Note_on_c, 0, 58, 95
1, 145873, Note_off_c, 0, 58, 95
1, 145898, Note_on_c, 0, 59, 105
1, 146147, Note_off_c, 0, 59, 105
1, 146220, Note_on_c, 0, 60, 100
1, 146951, Note_off_c, 0, 60, 100
1, 147921, Note_on_c, 0, 62, 107
1, 148064, Note_off_c, 0, 62, 107
1, 148123, Note_on_c, 0, 63, 112
1, 148274, Note_off_c, 0, 63, 112
1, 148322, Note_on_c, 0, 62, 110
1, 148507, Note_off_c, 0, 62, 110
1, 148567, Note_on_c, 0, 61, 103
1, 148714, Note_off_c, 0, 61, 103
1, 148775, Note_on_c, 0, 59, 99
1, 149079, Note_off_c, 0, 59, 99
1, 151339, Note_on_c, 0, 55, 99
1, 151587, Note_off_c, 0, 55, 99
1, 151639, Note_on_c, 0, 54, 86
1, 151758, Note_off_c, 0, 54, 86
1, 151811, Note_on_c, 0, 55, 99
1, 152001, Note_off_c, 0, 55, 99
1, 152167, Note_on_c, 0, 57, 106
1, 152409, Note_off_c, 0, 57, 106
1, 152475, Note_on_c, 0, 56, 93
1, 152629, Note_off_c, 0, 56, 93
1, 152661, Note_on_c, 0, 57, 107
1, 152888, Note_off_c, 0, 57, 107
1, 153029, Note_on_c, 0, 58, 108
1, 154197, Note_off_c, 0, 58, 108
1, 154572, Note_on_c, 0, 60, 107
1, 154714, Note_off_c, 0, 60, 107
1, 154787, Note_on_c, 0, 62, 104
1, 154903, Note_off_c, 0, 62, 104
1, 154977, Note_on_c, 0, 60, 104
1, 155134, Note_off_c, 0, 60, 104
1, 155184, Note_on_c, 0, 58, 95
1, 155326, Note_off_c, 0, 58, 95
1, 155361, Note_on_c, 0, 57, 106
1, 155518, Note_off_c, 0, 57, 106
1, 155863, Note_on_c, 0, 67, 116
1, 156259, Note_off_c, 0, 67, 116
1, 156319, Note_on_c, 0, 65, 115
1, 156801, Note_off_c, 0, 65, 115
1, 157674, Note_on_c, 0, 62, 114
1, 157887, Note_off_c, 0, 62, 114
1, 158007, Note_on_c, 0, 60, 111
1, 158367, Note_off_c, 0, 60, 111
1, 159420, Note_on_c, 0, 72, 122
1, 159785, Note_off_c, 0, 72, 122
1, 161373, Note_on_c, 0, 72, 117
1, 161515, Note_off_c, 0, 72, 117
1, 161779, Note_on_c, 0, 72, 114
1, 161874, Note_off_c, 0, 72, 114
1, 161930, Note_on_c, 0, 72, 122
1, 162008, Note_off_c, 0, 72, 122
1, 162066, Note_on_c, 0, 72, 115
1, 162155, Note_off_c, 0, 72, 115
1, 162203, Note_on_c, 0, 72, 125
1, 162566, Note_off_c, 0, 72, 125
1, 162627, Note_on_c, 0, 72, 117
1, 162710, Note_off_c, 0, 72, 117
1, 162769, Note_on_c, 0, 72, 111
1, 162855, Note_off_c, 0, 72, 111
1, 162921, Note_on_c, 0, 72, 114
1, 163009, Note_off_c, 0, 72, 114
1, 163071, Note_on_c, 0, 72, 113
1, 163173, Note_off_c, 0, 72, 113
1, 163421, Note_on_c, 0, 72, 111
1, 163530, Note_off_c, 0, 72, 111
1, 163584, Note_on_c, 0, 72, 108
1, 163669, Note_off_c, 0, 72, 108
1, 163727, Note_on_c, 0, 72, 108
1, 163798, Note_off_c, 0, 72, 108
1, 163860, Note_on_c, 0, 72, 125
1, 164190, Note_off_c, 0, 72, 125
1, 164258, Note_on_c, 0, 69, 106
1, 164341, Note_off_c, 0, 69, 106
1, 164377, Note_on_c, 0, 69, 108
1, 164469, Note_off_c, 0, 69, 108
1, 164524, Note_on_c, 0, 69, 115
1, 164633, Note_off_c, 0, 69, 115
1, 164692, Note_on_c, 0, 69, 120
1, 164996, Note_off_c, 0, 69, 120
1, 165065, Note_on_c, 0, 65, 90
1, 165155, Note_off_c, 0, 65, 90
1, 165188, Note_on_c, 0, 65, 101
1, 165299, Note_off_c, 0, 65, 101
1, 165350, Note_on_c, 0, 66, 114
1, 165440, Note_off_c, 0, 66, 114
1, 165510, Note_on_c, 0, 66, 119
1, 165902, Note_off_c, 0, 66, 119
1, 165934, Note_on_c, 0, 63, 103
1, 166050, Note_off_c, 0, 63, 103
1, 166083, Note_on_c, 0, 63, 104
1, 166198, Note_off_c, 0, 63, 104
1, 166231, Note_on_c, 0, 63, 109
1, 166356, Note_off_c, 0, 63, 109
1, 166407, Note_on_c, 0, 63, 113
1, 166736, Note_off_c, 0, 63, 113
1, 166771, Note_on_c, 0, 60, 105
1, 167179, Note_off_c, 0, 60, 105
1, 167205, Note_on_c, 0, 60, 102
1, 167590, Note_off_c, 0, 60, 102
1, 167665, Note_on_c, 0, 61, 107
1, 167936, Note_off_c, 0, 61, 107
1, 168016, Note_on_c, 0, 62, 112
1, 168764, Note_off_c, 0, 62, 112
1, 168803, Note_on_c, 0, 64, 117
1, 169422, Note_off_c, 0, 64, 117
1, 169505, Note_on_c, 0, 60, 82
1, 169576, Note_off_c, 0, 60, 82
1, 169668, Note_on_c, 0, 65, 115
1, 170443, Note_off_c, 0, 65, 115
1, 170535, Note_on_c, 0, 67, 119
1, 171006, Note_off_c, 0, 67, 119
1, 171434, Note_on_c, 0, 69, 112
1, 171869, Note_off_c, 0, 69, 112
1, 171931, Note_on_c, 0, 70, 119
1, 172263, Note_off_c, 0, 70, 119
1, 172307, Note_on_c, 0, 69, 119
1, 172682, Note_off_c, 0, 69, 119
1, 172764, Note_on_c, 0, 67, 118
1, 173024, Note_off_c, 0, 67, 118
1, 173093, Note_on_c, 0, 65, 123
1, 173203, Note_off_c, 0, 65, 123
1, 173209, Note_on_c, 0, 66, 117
1, 173349, Note_off_c, 0, 66, 117
1, 173359, Note_on_c, 0, 65, 110
1, 173477, Note_off_c, 0, 65, 110
1, 174457, Note_on_c, 0, 58, 93
1, 174648, Note_off_c, 0, 58, 93
1, 174832, Note_on_c, 0, 62, 89
1, 175014, Note_off_c, 0, 62, 89
1, 175073, Note_on_c, 0, 64, 118
1, 176862, Note_off_c, 0, 64, 118
1, 176954, Note_on_c, 0, 62, 111
1, 177171, Note_off_c, 0, 62, 111
1, 177288, Note_on_c, 0, 57, 99
1, 177484, Note_off_c, 0, 57, 99
1, 177883, Note_on_c, 0, 53, 102
1, 177997, Note_off_c, 0, 53, 102
1, 178139, Note_on_c, 0, 55, 99
1, 178617, Note_off_c, 0, 55, 99
1, 178717, Note_on_c, 0, 55, 98
1, 179402, Note_off_c, 0, 55, 98
1, 180173, Note_on_c, 0, 54, 102
1, 180278, Note_off_c, 0, 54, 102
1, 180289, Note_on_c, 0, 57, 119
1, 180551, Note_off_c, 0, 57, 119
1, 180571, Note_on_c, 0, 54, 103
1, 180729, Note_off_c, 0, 54, 103
1, 182278, Note_on_c, 0, 49, 94
1, 182510, Note_off_c, 0, 49, 94
1, 182554, Note_on_c, 0, 50, 100
1, 182764, Note_off_c, 0, 50, 100
1, 182803, Note_on_c, 0, 52, 98
1, 183070, Note_off_c, 0, 52, 98
1, 183130, Note_on_c, 0, 53, 104
1, 184290, Note_off_c, 0, 53, 104
1, 184425, Note_on_c, 0, 55, 107
1, 184721, Note_off_c, 0, 55, 107
1, 184828, Note_on_c, 0, 56, 113
1, 185183, Note_off_c, 0, 56, 113
1, 186102, Note_on_c, 0, 57, 109
1, 186355, Note_off_c, 0, 57, 109
1, 186510, Note_on_c, 0, 59, 106
1, 187174, Note_off_c, 0, 59, 106
1, 187233, Note_on_c, 0, 60, 106
1, 187667, Note_off_c, 0, 60, 106
1, 187865, Note_on_c, 0, 64, 109
1, 188058, Note_off_c, 0, 64, 109
1, 188124, Note_on_c, 0, 65, 109
1, 190470, Note_off_c, 0, 65, 109
1, 190616, Note_on_c, 0, 67, 108
1, 191052, Note_off_c, 0, 67, 108
1, 191108, Note_on_c, 0, 64, 102
1, 193508, Note_off_c, 0, 64, 102
1, 194831, Note_on_c, 0, 64, 112
1, 195018, Note_off_c, 0, 64, 112
1, 195058, Note_on_c, 0, 65, 105
1, 197328, Note_off_c, 0, 65, 105
1, 197389, Note_on_c, 0, 57, 101
1, 197946, Note_off_c, 0, 57, 101
1, 197979, Note_on_c, 0, 64, 98
1, 202511, Note_off_c, 0, 64, 98
1, 202594, Note_on_c, 0, 64, 103
1, 202853, Note_off_c, 0, 64, 103
1, 202896, Note_on_c, 0, 64, 111
1, 203129, Note_off_c, 0, 64, 111
1, 203159, Note_on_c, 0, 64, 116
1, 203438, Note_off_c, 0, 64, 116
1, 203474, Note_on_c, 0, 64, 109
1, 203744, Note_off_c, 0, 64, 109
1, 204871, Note_on_c, 0, 55, 92
1, 205079, Note_off_c, 0, 55, 92
1, 205332, Note_on_c, 0, 62, 101
1, 205758, Note_off_c, 0, 62, 101
1, 205874, Note_on_c, 0, 62, 102
1, 207575, Note_off_c, 0, 62, 102
1, 208644, Note_on_c, 0, 61, 105
1, 208816, Note_off_c, 0, 61, 105
1, 208849, Note_on_c, 0, 62, 10
1, 210819, Note_off_c, 0, 62, 10
1, 211807, Note_on_c, 0, 57, 110
1, 212081, Note_off_c, 0, 57, 110
1, 212285, Note_on_c, 0, 60, 111
1, 212650, Note_off_c, 0, 60, 111
1, 212717, Note_on_c, 0, 58, 116
1, 213409, Note_off_c, 0, 58, 116
1, 213904, Note_on_c, 0, 57, 110
1, 214273, Note_off_c, 0, 57, 110
1, 214317, Note_on_c, 0, 58, 113
1, 214469, Note_off_c, 0, 58, 113
1, 214773, Note_on_c, 0, 62, 114
1, 214930, Note_off_c, 0, 62, 114
1, 215265, Note_on_c, 0, 64, 117
1, 215529, Note_off_c, 0, 64, 117
1, 215902, Note_on_c, 0, 69, 124
1, 217954, Note_off_c, 0, 69, 124
1, 218050, Note_on_c, 0, 67, 109
1, 218253, Note_off_c, 0, 67, 109
1, 218471, Note_on_c, 0, 65, 105
1, 218730, Note_off_c, 0, 65, 105
1, 218776, Note_on_c, 0, 67, 101
1, 219072, Note_off_c, 0, 67, 101
1, 219116, Note_on_c, 0, 65, 93
1, 219309, Note_off_c, 0, 65, 93
1, 219453, Note_on_c, 0, 64, 92
1, 219718, Note_off_c, 0, 64, 92
1, 219729, Note_on_c, 0, 65, 84
1, 220032, Note_off_c, 0, 65, 84
1, 220054, Note_on_c, 0, 64, 81
1, 220319, Note_off_c, 0, 64, 81
1, 220396, Note_on_c, 0, 62, 71
1, 220662, Note_off_c, 0, 62, 71
1, 220831, Note_on_c, 0, 63, 57
1, 222702, Note_off_c, 0, 63, 57
1, 222702, End_track
0, 0, End_of_file
