0, 0, Header, 1, 1, 192
1, 0, Start_track
1, 0, Title_t, "Melody"
1, 0, Tempo, 272727
1, 0, Key_signature, -5, "major"
1, 0, Time_signature, 4, 2, 24, 8
1, 4624, Note_on_c, 0, 65, 108
1, 4719, Note_off_c, 0, 65, 108
1, 5507, Note_on_c, 0, 60, 109
1, 5558, Note_off_c, 0, 60, 109
1, 5568, Note_on_c, 0, 63, 114
1, 5693, Note_off_c, 0, 63, 114
1, 5704, Note_on_c, 0, 60, 101
1, 5755, Note_off_c, 0, 60, 101
1, 5769, Note_on_c, 0, 62, 112
1, 5873, Note_off_c, 0, 62, 112
1, 5887, Note_on_c, 0, 58, 108
1, 6001, Note_off_c, 0, 58, 108
1, 6104, Note_on_c, 0, 61, 117
1, 6199, Note_off_c, 0, 61, 117
1, 6328, Note_on_c, 0, 58, 117
1, 6457, Note_off_c, 0, 58, 117
1, 6520, Note_on_c, 0, 59, 123
1, 6665, Note_off_c, 0, 59, 123
1, 6674, Note_on_c, 0, 60, 118
1, 6760, Note_off_c, 0, 60, 118
1, 7440, Note_on_c, 0, 72, 125
1, 7505, Note_off_c, 0, 72, 125
1, 7517, Note_on_c, 0, 70, 122
1, 7621, Note_off_c, 0, 70, 122
1, 7632, Note_on_c, 0, 68, 125
1, 7709, Note_off_c, 0, 68, 125
1, 7720, Note_on_c, 0, 65, 117
1, 7863, Note_off_c, 0, 65, 117
1, 7888, Note_on_c, 0, 63, 124
1, 7997, Note_off_c, 0, 63, 124
1, 8026, Note_on_c, 0, 61, 116
1, 8291, Note_off_c, 0, 61, 116
1, 8305, Note_on_c, 0, 60, 116
1, 8378, Note_off_c, 0, 60, 116
1, 8398, Note_on_c, 0, 58, 121
1, 8475, Note_off_c, 0, 58, 121
1, 8496, Note_on_c, 0, 57, 123
1, 8574, Note_off_c, 0, 57, 123
1, 8580, Note_on_c, 0, 56, 121
1, 8639, Note_off_c, 0, 56, 121
1, 8657, Note_on_c, 0, 54, 112
1, 8716, Note_off_c, 0, 54, 112
1, 8730, Note_on_c, 0, 53, 107
1, 8800, Note_off_c, 0, 53, 107
1, 8812, Note_on_c, 0, 51, 103
1, 8833, Note_off_c, 0, 51, 103
1, 8854, Note_on_c, 0, 49, 108
1, 8958, Note_off_c, 0, 49, 108
1, 8985, Note_on_c, 0, 51, 104
1, 9037, Note_off_c, 0, 51, 104
1, 9245, Note_on_c, 0, 58, 122
1, 9351, Note_off_c, 0, 58, 122
1, 9522, Note_on_c, 0, 58, 122
1, 9622, Note_off_c, 0, 58, 122
1, 9641, Note_on_c, 0, 59, 120
1, 9724, Note_off_c, 0, 59, 120
1, 9737, Note_on_c, 0, 61, 109
1, 9789, Note_off_c, 0, 61, 109
1, 9806, Note_on_c, 0, 64, 98
1, 9857, Note_off_c, 0, 64, 98
1, 9913, Note_on_c, 0, 68, 104
1, 9956, Note_off_c, 0, 68, 104
1, 9981, Note_on_c, 0, 70, 119
1, 10068, Note_off_c, 0, 70, 119
1, 10083, Note_on_c, 0, 68, 115
1, 10125, Note_off_c, 0, 68, 115
1, 10139, Note_on_c, 0, 64, 113
1, 10175, Note_off_c, 0, 64, 113
1, 10187, Note_on_c, 0, 61, 115
1, 10272, Note_off_c, 0, 61, 115
1, 10281, Note_on_c, 0, 59, 123
1, 10357, Note_off_c, 0, 59, 123
1, 10371, Note_on_c, 0, 58, 120
1, 10467, Note_off_c, 0, 58, 120
1, 10487, Note_on_c, 0, 56, 120
1, 10548, Note_off_c, 0, 56, 120
1, 10566, Note_on_c, 0, 53, 115
1, 10640, Note_off_c, 0, 53, 115
1, 10663, Note_on_c, 0, 56, 114
1, 10722, Note_off_c, 0, 56, 114
1, 10760, Note_on_c, 0, 53, 96
1, 10988, Note_off_c, 0, 53, 96
1, 11073, Note_on_c, 0, 55, 122
1, 11155, Note_off_c, 0, 55, 122
1, 11160, Note_on_c, 0, 56, 122
1, 11264, Note_off_c, 0, 56, 122
1, 11545, Note_on_c, 0, 58, 123
1, 11635, Note_off_c, 0, 58, 123
1, 11650, Note_on_c, 0, 59, 123
1, 11716, Note_off_c, 0, 59, 123
1, 11731, Note_on_c, 0, 63, 107
1, 11795, Note_off_c, 0, 63, 107
1, 11848, Note_on_c, 0, 66, 91
1, 11870, Note_off_c, 0, 66, 91
1, 11926, Note_on_c, 0, 73, 120
1, 12019, Note_off_c, 0, 73, 120
1, 12031, Note_on_c, 0, 71, 120
1, 12105, Note_off_c, 0, 71, 120
1, 12127, Note_on_c, 0, 66, 97
1, 12208, Note_off_c, 0, 66, 97
1, 12327, Note_on_c, 0, 67, 122
1, 12355, Note_off_c, 0, 67, 122
1, 12362, Note_on_c, 0, 68, 113
1, 12963, Note_off_c, 0, 68, 113
1, 12975, Note_on_c, 0, 68, 118
1, 12992, Note_off_c, 0, 68, 118
1, 13002, Note_on_c, 0, 66, 118
1, 13060, Note_off_c, 0, 66, 118
1, 13076, Note_on_c, 0, 61, 106
1, 13190, Note_off_c, 0, 61, 106
1, 13202, Note_on_c, 0, 60, 117
1, 13261, Note_off_c, 0, 60, 117
1, 13279, Note_on_c, 0, 57, 126
1, 13396, Note_off_c, 0, 57, 126
1, 13408, Note_on_c, 0, 55, 106
1, 13451, Note_off_c, 0, 55, 106
1, 13473, Note_on_c, 0, 63, 120
1, 13574, Note_off_c, 0, 63, 120
1, 13584, Note_on_c, 0, 61, 115
1, 13663, Note_off_c, 0, 61, 115
1, 13665, Note_on_c, 0, 60, 120
1, 13767, Note_off_c, 0, 60, 120
1, 13778, Note_on_c, 0, 58, 124
1, 13854, Note_off_c, 0, 58, 124
1, 13871, Note_on_c, 0, 56, 121
1, 13955, Note_off_c, 0, 56, 121
1, 13975, Note_on_c, 0, 54, 111
1, 14033, Note_off_c, 0, 54, 111
1, 14045, Note_on_c, 0, 53, 112
1, 14185, Note_off_c, 0, 53, 112
1, 14190, Note_on_c, 0, 51, 114
1, 14210, Note_off_c, 0, 51, 114
1, 14215, Note_on_c, 0, 50, 110
1, 14233, Note_off_c, 0, 50, 110
1, 14269, Note_on_c, 0, 61, 116
1, 14395, Note_off_c, 0, 61, 116
1, 15499, Note_on_c, 0, 70, 119
1, 15543, Note_off_c, 0, 70, 119
1, 15558, Note_on_c, 0, 71, 120
1, 15660, Note_off_c, 0, 71, 120
1, 15790, Note_on_c, 0, 70, 122
1, 15882, Note_off_c, 0, 70, 122
1, 15892, Note_on_c, 0, 68, 120
1, 15959, Note_off_c, 0, 68, 120
1, 15976, Note_on_c, 0, 63, 120
1, 16068, Note_off_c, 0, 63, 120
1, 16078, Note_on_c, 0, 66, 117
1, 16171, Note_off_c, 0, 66, 117
1, 16180, Note_on_c, 0, 65, 117
1, 16261, Note_off_c, 0, 65, 117
1, 16266, Note_on_c, 0, 64, 119
1, 16359, Note_off_c, 0, 64, 119
1, 16364, Note_on_c, 0, 63, 119
1, 16472, Note_off_c, 0, 63, 119
1, 16482, Note_on_c, 0, 62, 120
1, 16538, Note_off_c, 0, 62, 120
1, 16550, Note_on_c, 0, 61, 121
1, 16664, Note_off_c, 0, 61, 121
1, 16679, Note_on_c, 0, 59, 115
1, 16743, Note_off_c, 0, 59, 115
1, 16765, Note_on_c, 0, 56, 122
1, 16844, Note_off_c, 0, 56, 122
1, 16860, Note_on_c, 0, 54, 111
1, 16934, Note_off_c, 0, 54, 111
1, 16944, Note_on_c, 0, 56, 125
1, 16959, Note_off_c, 0, 56, 125
1, 16964, Note_on_c, 0, 57, 120
1, 17053, Note_off_c, 0, 57, 120
1, 17061, Note_on_c, 0, 58, 118
1, 17219, Note_off_c, 0, 58, 118
1, 17241, Note_on_c, 0, 60, 121
1, 17478, Note_off_c, 0, 60, 121
1, 17490, Note_on_c, 0, 61, 120
1, 17653, Note_off_c, 0, 61, 120
1, 17660, Note_on_c, 0, 64, 116
1, 17815, Note_off_c, 0, 64, 116
1, 17826, Note_on_c, 0, 67, 118
1, 17998, Note_off_c, 0, 67, 118
1, 18003, Note_on_c, 0, 72, 116
1, 18096, Note_off_c, 0, 72, 116
1, 18214, Note_on_c, 0, 76, 114
1, 18351, Note_off_c, 0, 76, 114
1, 18388, Note_on_c, 0, 83, 104
1, 18413, Note_off_c, 0, 83, 104
1, 18496, Note_on_c, 0, 70, 98
1, 18652, Note_off_c, 0, 70, 98
1, 18821, Note_on_c, 0, 79, 115
1, 18975, Note_off_c, 0, 79, 115
1, 19223, Note_on_c, 0, 70, 119
1, 19264, Note_off_c, 0, 70, 119
1, 19269, Note_on_c, 0, 71, 117
1, 19284, Note_off_c, 0, 71, 117
1, 19290, Note_on_c, 0, 72, 116
1, 19481, Note_off_c, 0, 72, 116
1, 19486, Note_on_c, 0, 71, 114
1, 19499, Note_off_c, 0, 71, 114
1, 19508, Note_on_c, 0, 69, 113
1, 19551, Note_off_c, 0, 69, 113
1, 19557, Note_on_c, 0, 66, 113
1, 19596, Note_off_c, 0, 66, 113
1, 19606, Note_on_c, 0, 64, 118
1, 19733, Note_off_c, 0, 64, 118
1, 19740, Note_on_c, 0, 65, 107
1, 19797, Note_off_c, 0, 65, 107
1, 19976, Note_on_c, 0, 66, 110
1, 20100, Note_off_c, 0, 66, 110
1, 20301, Note_on_c, 0, 73, 121
1, 20336, Note_off_c, 0, 73, 121
1, 20344, Note_on_c, 0, 71, 117
1, 20388, Note_off_c, 0, 71, 117
1, 20397, Note_on_c, 0, 72, 111
1, 20451, Note_off_c, 0, 72, 111
1, 20469, Note_on_c, 0, 69, 111
1, 20606, Note_off_c, 0, 69, 111
1, 20613, Note_on_c, 0, 68, 107
1, 20658, Note_off_c, 0, 68, 107
1, 20678, Note_on_c, 0, 66, 108
1, 20730, Note_off_c, 0, 66, 108
1, 20740, Note_on_c, 0, 64, 115
1, 20838, Note_off_c, 0, 64, 115
1, 20845, Note_on_c, 0, 63, 118
1, 20910, Note_off_c, 0, 63, 118
1, 20917, Note_on_c, 0, 62, 108
1, 20943, Note_off_c, 0, 62, 108
1, 20950, Note_on_c, 0, 63, 104
1, 21001, Note_off_c, 0, 63, 104
1, 21010, Note_on_c, 0, 62, 108
1, 21045, Note_off_c, 0, 62, 108
1, 21059, Note_on_c, 0, 61, 111
1, 21116, Note_off_c, 0, 61, 111
1, 21129, Note_on_c, 0, 59, 113
1, 21264, Note_off_c, 0, 59, 113
1, 21436, Note_on_c, 0, 57, 119
1, 21507, Note_off_c, 0, 57, 119
1, 21514, Note_on_c, 0, 56, 114
1, 21677, Note_off_c, 0, 56, 114
1, 21696, Note_on_c, 0, 57, 123
1, 21818, Note_off_c, 0, 57, 123
1, 21830, Note_on_c, 0, 52, 104
1, 22066, Note_off_c, 0, 52, 104
1, 22801, Note_on_c, 0, 68, 123
1, 22842, Note_off_c, 0, 68, 123
1, 22849, Note_on_c, 0, 67, 116
1, 22884, Note_off_c, 0, 67, 116
1, 22892, Note_on_c, 0, 68, 109
1, 22960, Note_off_c, 0, 68, 109
1, 22970, Note_on_c, 0, 67, 113
1, 23005, Note_off_c, 0, 67, 113
1, 23018, Note_on_c, 0, 65, 109
1, 23083, Note_off_c, 0, 65, 109
1, 23089, Note_on_c, 0, 70, 121
1, 23193, Note_off_c, 0, 70, 121
1, 23363, Note_on_c, 0, 67, 123
1, 23456, Note_off_c, 0, 67, 123
1, 23463, Note_on_c, 0, 68, 118
1, 23547, Note_off_c, 0, 68, 118
1, 23571, Note_on_c, 0, 60, 101
1, 23646, Note_off_c, 0, 60, 101
1, 23862, Note_on_c, 0, 67, 123
1, 23955, Note_off_c, 0, 67, 123
1, 23971, Note_on_c, 0, 65, 113
1, 24017, Note_off_c, 0, 65, 113
1, 24037, Note_on_c, 0, 60, 119
1, 24124, Note_off_c, 0, 60, 119
1, 24132, Note_on_c, 0, 63, 118
1, 24221, Note_off_c, 0, 63, 118
1, 24232, Note_on_c, 0, 62, 116
1, 24317, Note_off_c, 0, 62, 116
1, 24342, Note_on_c, 0, 58, 112
1, 24413, Note_off_c, 0, 58, 112
1, 24428, Note_on_c, 0, 54, 108
1, 24504, Note_off_c, 0, 54, 108
1, 24596, Note_on_c, 0, 56, 119
1, 24725, Note_off_c, 0, 56, 119
1, 24745, Note_on_c, 0, 58, 119
1, 24905, Note_off_c, 0, 58, 119
1, 24912, Note_on_c, 0, 59, 118
1, 25090, Note_off_c, 0, 59, 118
1, 25099, Note_on_c, 0, 56, 123
1, 25174, Note_off_c, 0, 56, 123
1, 25453, Note_on_c, 0, 55, 113
1, 25486, Note_off_c, 0, 55, 113
1, 25494, Note_on_c, 0, 56, 121
1, 25525, Note_off_c, 0, 56, 121
1, 25542, Note_on_c, 0, 58, 117
1, 25587, Note_off_c, 0, 58, 117
1, 25594, Note_on_c, 0, 60, 99
1, 25607, Note_off_c, 0, 60, 99
1, 25614, Note_on_c, 0, 62, 108
1, 25636, Note_off_c, 0, 62, 108
1, 25643, Note_on_c, 0, 64, 112
1, 25693, Note_off_c, 0, 64, 112
1, 25696, Note_on_c, 0, 65, 101
1, 25712, Note_off_c, 0, 65, 101
1, 25713, Note_on_c, 0, 67, 102
1, 25741, Note_off_c, 0, 67, 102
1, 25746, Note_on_c, 0, 71, 118
1, 25841, Note_off_c, 0, 71, 118
1, 25869, Note_on_c, 0, 67, 111
1, 25921, Note_off_c, 0, 67, 111
1, 25927, Note_on_c, 0, 64, 116
1, 26044, Note_off_c, 0, 64, 116
1, 26056, Note_on_c, 0, 60, 115
1, 26128, Note_off_c, 0, 60, 115
1, 26148, Note_on_c, 0, 63, 114
1, 26386, Note_off_c, 0, 63, 114
1, 26420, Note_on_c, 0, 63, 116
1, 26773, Note_off_c, 0, 63, 116
1, 26798, Note_on_c, 0, 63, 115
1, 27135, Note_off_c, 0, 63, 115
1, 27161, Note_on_c, 0, 61, 107
1, 27227, Note_off_c, 0, 61, 107
1, 27245, Note_on_c, 0, 63, 119
1, 27334, Note_off_c, 0, 63, 119
1, 27349, Note_on_c, 0, 61, 115
1, 27413, Note_off_c, 0, 61, 115
1, 27421, Note_on_c, 0, 60, 119
1, 27515, Note_off_c, 0, 60, 119
1, 27556, Note_on_c, 0, 58, 118
1, 27632, Note_off_c, 0, 58, 118
1, 27657, Note_on_c, 0, 56, 119
1, 27697, Note_off_c, 0, 56, 119
1, 27727, Note_on_c, 0, 54, 114
1, 27817, Note_off_c, 0, 54, 114
1, 27836, Note_on_c, 0, 53, 109
1, 27893, Note_off_c, 0, 53, 109
1, 27915, Note_on_c, 0, 51, 104
1, 27963, Note_off_c, 0, 51, 104
1, 27979, Note_on_c, 0, 49, 108
1, 28094, Note_off_c, 0, 49, 108
1, 28118, Note_on_c, 0, 51, 104
1, 28183, Note_off_c, 0, 51, 104
1, 28205, Note_on_c, 0, 53, 103
1, 28248, Note_off_c, 0, 53, 103
1, 28265, Note_on_c, 0, 56, 118
1, 28335, Note_off_c, 0, 56, 118
1, 28357, Note_on_c, 0, 61, 117
1, 28440, Note_off_c, 0, 61, 117
1, 28455, Note_on_c, 0, 63, 113
1, 28608, Note_off_c, 0, 63, 113
1, 28653, Note_on_c, 0, 68, 112
1, 28688, Note_off_c, 0, 68, 112
1, 28716, Note_on_c, 0, 72, 115
1, 29151, Note_off_c, 0, 72, 115
1, 29165, Note_on_c, 0, 73, 120
1, 29492, Note_off_c, 0, 73, 120
1, 29507, Note_on_c, 0, 70, 111
1, 29630, Note_off_c, 0, 70, 111
1, 29672, Note_on_c, 0, 63, 110
1, 29775, Note_off_c, 0, 63, 110
1, 30730, Note_on_c, 0, 68, 120
1, 30814, Note_off_c, 0, 68, 120
1, 30827, Note_on_c, 0, 66, 113
1, 30898, Note_off_c, 0, 66, 113
1, 30909, Note_on_c, 0, 65, 86
1, 30973, Note_off_c, 0, 65, 86
1, 31008, Note_on_c, 0, 68, 120
1, 31320, Note_off_c, 0, 68, 120
1, 31336, Note_on_c, 0, 66, 99
1, 31393, Note_off_c, 0, 66, 99
1, 31412, Note_on_c, 0, 68, 121
1, 31527, Note_off_c, 0, 68, 121
1, 31544, Note_on_c, 0, 66, 110
1, 31593, Note_off_c, 0, 66, 110
1, 31603, Note_on_c, 0, 68, 123
1, 31703, Note_off_c, 0, 68, 123
1, 31721, Note_on_c, 0, 66, 115
1, 31779, Note_off_c, 0, 66, 115
1, 31786, Note_on_c, 0, 64, 119
1, 31944, Note_off_c, 0, 64, 119
1, 31959, Note_on_c, 0, 60, 120
1, 32037, Note_off_c, 0, 60, 120
1, 32043, Note_on_c, 0, 61, 123
1, 32071, Note_off_c, 0, 61, 123
1, 32079, Note_on_c, 0, 62, 120
1, 32114, Note_off_c, 0, 62, 120
1, 32123, Note_on_c, 0, 63, 118
1, 32439, Note_off_c, 0, 63, 118
1, 32450, Note_on_c, 0, 61, 112
1, 32518, Note_off_c, 0, 61, 112
1, 32527, Note_on_c, 0, 63, 117
1, 32644, Note_off_c, 0, 63, 117
1, 32653, Note_on_c, 0, 61, 118
1, 32722, Note_off_c, 0, 61, 118
1, 33144, Note_on_c, 0, 62, 115
1, 33250, Note_off_c, 0, 62, 115
1, 33261, Note_on_c, 0, 63, 120
1, 33333, Note_off_c, 0, 63, 120
1, 33343, Note_on_c, 0, 66, 119
1, 33435, Note_off_c, 0, 66, 119
1, 33455, Note_on_c, 0, 65, 116
1, 33511, Note_off_c, 0, 65, 116
1, 33516, Note_on_c, 0, 64, 122
1, 33615, Note_off_c, 0, 64, 122
1, 33626, Note_on_c, 0, 63, 119
1, 33704, Note_off_c, 0, 63, 119
1, 33717, Note_on_c, 0, 61, 113
1, 33806, Note_off_c, 0, 61, 113
1, 33829, Note_on_c, 0, 59, 116
1, 33875, Note_off_c, 0, 59, 116
1, 33881, Note_on_c, 0, 58, 115
1, 34027, Note_off_c, 0, 58, 115
1, 34037, Note_on_c, 0, 54, 106
1, 34086, Note_off_c, 0, 54, 106
1, 34094, Note_on_c, 0, 56, 117
1, 34186, Note_off_c, 0, 56, 117
1, 34500, Note_on_c, 0, 54, 115
1, 34580, Note_off_c, 0, 54, 115
1, 34598, Note_on_c, 0, 56, 120
1, 34657, Note_off_c, 0, 56, 120
1, 34682, Note_on_c, 0, 58, 110
1, 34791, Note_off_c, 0, 58, 110
1, 34832, Note_on_c, 0, 59, 107
1, 34924, Note_off_c, 0, 59, 107
1, 34956, Note_on_c, 0, 61, 107
1, 35020, Note_off_c, 0, 61, 107
1, 35138, Note_on_c, 0, 65, 104
1, 35187, Note_off_c, 0, 65, 104
1, 35222, Note_on_c, 0, 72, 119
1, 35324, Note_off_c, 0, 72, 119
1, 35339, Note_on_c, 0, 68, 91
1, 35375, Note_off_c, 0, 68, 91
1, 35409, Note_on_c, 0, 70, 114
1, 35494, Note_off_c, 0, 70, 114
1, 35511, Note_on_c, 0, 68, 109
1, 35584, Note_off_c, 0, 68, 109
1, 35595, Note_on_c, 0, 64, 113
1, 35706, Note_off_c, 0, 64, 113
1, 35933, Note_on_c, 0, 60, 96
1, 35968, Note_off_c, 0, 60, 96
1, 35985, Note_on_c, 0, 67, 114
1, 36080, Note_off_c, 0, 67, 114
1, 36290, Note_on_c, 0, 66, 107
1, 36381, Note_off_c, 0, 66, 107
1, 36387, Note_on_c, 0, 65, 107
1, 36460, Note_off_c, 0, 65, 107
1, 36471, Note_on_c, 0, 64, 117
1, 36552, Note_off_c, 0, 64, 117
1, 36560, Note_on_c, 0, 63, 112
1, 36647, Note_off_c, 0, 63, 112
1, 36661, Note_on_c, 0, 62, 116
1, 36724, Note_off_c, 0, 62, 116
1, 36732, Note_on_c, 0, 61, 112
1, 36836, Note_off_c, 0, 61, 112
1, 36854, Note_on_c, 0, 58, 123
1, 36925, Note_off_c, 0, 58, 123
1, 36952, Note_on_c, 0, 54, 105
1, 37009, Note_off_c, 0, 54, 105
1, 37041, Note_on_c, 0, 50, 86
1, 37093, Note_off_c, 0, 50, 86
1, 37117, Note_on_c, 0, 53, 110
1, 37250, Note_off_c, 0, 53, 110
1, 37260, Note_on_c, 0, 49, 108
1, 37285, Note_off_c, 0, 49, 108
1, 37300, Note_on_c, 0, 53, 111
1, 37412, Note_off_c, 0, 53, 111
1, 37421, Note_on_c, 0, 51, 102
1, 37449, Note_off_c, 0, 51, 102
1, 37469, Note_on_c, 0, 56, 118
1, 37699, Note_off_c, 0, 56, 118
1, 37709, Note_on_c, 0, 55, 121
1, 37735, Note_off_c, 0, 55, 121
1, 37748, Note_on_c, 0, 56, 124
1, 37777, Note_off_c, 0, 56, 124
1, 37791, Note_on_c, 0, 54, 118
1, 37868, Note_off_c, 0, 54, 118
1, 37882, Note_on_c, 0, 50, 116
1, 37927, Note_off_c, 0, 50, 116
1, 37933, Note_on_c, 0, 52, 120
1, 38001, Note_off_c, 0, 52, 120
1, 38031, Note_on_c, 0, 48, 117
1, 38143, Note_off_c, 0, 48, 117
1, 38158, Note_on_c, 0, 44, 118
1, 38362, Note_off_c, 0, 44, 118
1, 38640, Note_on_c, 0, 56, 118
1, 38780, Note_off_c, 0, 56, 118
1, 38963, Note_on_c, 0, 54, 111
1, 38998, Note_off_c, 0, 54, 111
1, 39002, Note_on_c, 0, 53, 107
1, 39113, Note_off_c, 0, 53, 107
1, 39135, Note_on_c, 0, 54, 109
1, 39194, Note_off_c, 0, 54, 109
1, 39207, Note_on_c, 0, 56, 110
1, 39266, Note_off_c, 0, 56, 110
1, 39284, Note_on_c, 0, 58, 115
1, 39329, Note_off_c, 0, 58, 115
1, 39395, Note_on_c, 0, 63, 112
1, 39513, Note_off_c, 0, 63, 112
1, 39525, Note_on_c, 0, 61, 105
1, 39667, Note_off_c, 0, 61, 105
1, 40267, Note_on_c, 0, 70, 119
1, 40339, Note_off_c, 0, 70, 119
1, 40351, Note_on_c, 0, 71, 119
1, 40449, Note_off_c, 0, 71, 119
1, 40562, Note_on_c, 0, 70, 118
1, 40642, Note_off_c, 0, 70, 118
1, 40659, Note_on_c, 0, 68, 119
1, 40732, Note_off_c, 0, 68, 119
1, 40753, Note_on_c, 0, 63, 122
1, 40826, Note_off_c, 0, 63, 122
1, 40858, Note_on_c, 0, 66, 118
1, 40940, Note_off_c, 0, 66, 118
1, 40947, Note_on_c, 0, 65, 115
1, 41038, Note_off_c, 0, 65, 115
1, 41050, Note_on_c, 0, 64, 121
1, 41127, Note_off_c, 0, 64, 121
1, 41139, Note_on_c, 0, 63, 117
1, 41226, Note_off_c, 0, 63, 117
1, 41240, Note_on_c, 0, 62, 119
1, 41301, Note_off_c, 0, 62, 119
1, 41308, Note_on_c, 0, 61, 116
1, 41424, Note_off_c, 0, 61, 116
1, 41455, Note_on_c, 0, 71, 114
1, 41506, Note_off_c, 0, 71, 114
1, 41520, Note_on_c, 0, 72, 10
1, 42075, Note_off_c, 0, 72, 10
1, 42109, Note_on_c, 0, 71, 123
1, 42153, Note_off_c, 0, 71, 123
1, 42175, Note_on_c, 0, 72, 123
1, 42440, Note_off_c, 0, 72, 123
1, 42484, Note_on_c, 0, 71, 123
1, 42518, Note_off_c, 0, 71, 123
1, 42530, Note_on_c, 0, 72, 123
1, 42787, Note_off_c, 0, 72, 123
1, 42809, Note_on_c, 0, 67, 118
1, 43234, Note_off_c, 0, 67, 118
1, 43262, Note_on_c, 0, 66, 127
1, 43290, Note_off_c, 0, 66, 127
1, 43310, Note_on_c, 0, 67, 118
1, 43561, Note_off_c, 0, 67, 118
1, 43586, Note_on_c, 0, 65, 116
1, 43642, Note_off_c, 0, 65, 116
1, 43654, Note_on_c, 0, 64, 119
1, 43737, Note_off_c, 0, 64, 119
1, 43748, Note_on_c, 0, 62, 122
1, 43798, Note_off_c, 0, 62, 122
1, 43810, Note_on_c, 0, 60, 116
1, 43909, Note_off_c, 0, 60, 116
1, 43937, Note_on_c, 0, 57, 120
1, 44001, Note_off_c, 0, 57, 120
1, 44028, Note_on_c, 0, 55, 122
1, 44121, Note_off_c, 0, 55, 122
1, 44145, Note_on_c, 0, 53, 111
1, 44188, Note_off_c, 0, 53, 111
1, 44205, Note_on_c, 0, 52, 107
1, 44296, Note_off_c, 0, 52, 107
1, 44412, Note_on_c, 0, 54, 107
1, 44689, Note_off_c, 0, 54, 107
1, 45269, Note_on_c, 0, 70, 122
1, 45350, Note_off_c, 0, 70, 122
1, 45538, Note_on_c, 0, 63, 115
1, 45629, Note_off_c, 0, 63, 115
1, 45647, Note_on_c, 0, 65, 104
1, 45692, Note_off_c, 0, 65, 104
1, 45706, Note_on_c, 0, 70, 113
1, 45818, Note_off_c, 0, 70, 113
1, 45839, Note_on_c, 0, 68, 109
1, 46093, Note_off_c, 0, 68, 109
1, 46130, Note_on_c, 0, 63, 116
1, 46259, Note_off_c, 0, 63, 116
1, 46267, Note_on_c, 0, 59, 109
1, 46308, Note_off_c, 0, 59, 109
1, 46335, Note_on_c, 0, 66, 111
1, 46418, Note_off_c, 0, 66, 111
1, 46426, Note_on_c, 0, 64, 116
1, 46513, Note_off_c, 0, 64, 116
1, 46527, Note_on_c, 0, 63, 119
1, 46617, Note_off_c, 0, 63, 119
1, 46629, Note_on_c, 0, 62, 105
1, 46660, Note_off_c, 0, 62, 105
1, 46711, Note_on_c, 0, 61, 120
1, 46804, Note_off_c, 0, 61, 120
1, 46819, Note_on_c, 0, 56, 124
1, 46872, Note_off_c, 0, 56, 124
1, 46903, Note_on_c, 0, 54, 97
1, 46979, Note_off_c, 0, 54, 97
1, 47073, Note_on_c, 0, 52, 109
1, 47166, Note_off_c, 0, 52, 109
1, 47262, Note_on_c, 0, 51, 106
1, 47358, Note_off_c, 0, 51, 106
1, 47378, Note_on_c, 0, 58, 123
1, 47434, Note_off_c, 0, 58, 123
1, 47444, Note_on_c, 0, 59, 119
1, 47722, Note_off_c, 0, 59, 119
1, 47760, Note_on_c, 0, 63, 103
1, 47804, Note_off_c, 0, 63, 103
1, 47839, Note_on_c, 0, 58, 120
1, 47874, Note_off_c, 0, 58, 120
1, 47886, Note_on_c, 0, 59, 119
1, 48098, Note_off_c, 0, 59, 119
1, 48155, Note_on_c, 0, 56, 98
1, 48195, Note_off_c, 0, 56, 98
1, 48216, Note_on_c, 0, 59, 120
1, 48352, Note_off_c, 0, 59, 120
1, 48386, Note_on_c, 0, 51, 110
1, 48479, Note_off_c, 0, 51, 110
1, 48494, Note_on_c, 0, 50, 114
1, 48652, Note_off_c, 0, 50, 114
1, 48771, Note_on_c, 0, 50, 106
1, 48855, Note_off_c, 0, 50, 106
1, 48875, Note_on_c, 0, 56, 124
1, 48929, Note_off_c, 0, 56, 124
1, 48937, Note_on_c, 0, 57, 116
1, 49247, Note_off_c, 0, 57, 116
1, 49327, Note_on_c, 0, 56, 121
1, 49390, Note_off_c, 0, 56, 121
1, 49397, Note_on_c, 0, 57, 122
1, 49514, Note_off_c, 0, 57, 122
1, 49539, Note_on_c, 0, 49, 115
1, 49638, Note_off_c, 0, 49, 115
1, 49655, Note_on_c, 0, 48, 115
1, 49804, Note_off_c, 0, 48, 115
1, 50138, Note_on_c, 0, 68, 125
1, 50212, Note_off_c, 0, 68, 125
1, 50440, Note_on_c, 0, 68, 120
1, 50542, Note_off_c, 0, 68, 120
1, 50641, Note_on_c, 0, 61, 115
1, 50698, Note_off_c, 0, 61, 115
1, 50897, Note_on_c, 0, 72, 123
1, 51017, Note_off_c, 0, 72, 123
1, 51057, Note_on_c, 0, 71, 123
1, 51105, Note_off_c, 0, 71, 123
1, 51113, Note_on_c, 0, 72, 122
1, 51278, Note_off_c, 0, 72, 122
1, 51286, Note_on_c, 0, 67, 120
1, 51386, Note_off_c, 0, 67, 120
1, 51421, Note_on_c, 0, 65, 123
1, 51459, Note_off_c, 0, 65, 123
1, 51469, Note_on_c, 0, 67, 119
1, 51642, Note_off_c, 0, 67, 119
1, 51654, Note_on_c, 0, 64, 125
1, 51758, Note_off_c, 0, 64, 125
1, 51779, Note_on_c, 0, 60, 113
1, 51826, Note_off_c, 0, 60, 113
1, 51838, Note_on_c, 0, 64, 126
1, 51973, Note_off_c, 0, 64, 126
1, 52000, Note_on_c, 0, 60, 117
1, 52112, Note_off_c, 0, 60, 117
1, 52203, Note_on_c, 0, 60, 118
1, 52353, Note_off_c, 0, 60, 118
1, 52396, Note_on_c, 0, 55, 115
1, 52505, Note_off_c, 0, 55, 115
1, 52516, Note_on_c, 0, 52, 110
1, 52550, Note_off_c, 0, 52, 110
1, 52570, Note_on_c, 0, 55, 115
1, 52736, Note_off_c, 0, 55, 115
1, 52753, Note_on_c, 0, 51, 116
1, 52824, Note_off_c, 0, 51, 116
1, 52835, Note_on_c, 0, 52, 112
1, 53040, Note_off_c, 0, 52, 112
1, 53051, Note_on_c, 0, 48, 111
1, 53115, Note_off_c, 0, 48, 111
1, 53129, Note_on_c, 0, 50, 113
1, 53229, Note_off_c, 0, 50, 113
1, 53262, Note_on_c, 0, 48, 109
1, 53342, Note_off_c, 0, 48, 109
1, 53511, Note_on_c, 0, 59, 114
1, 53776, Note_off_c, 0, 59, 114
1, 53776, End_track
0, 0, End_of_file
