0, 0, Header, 1, 1, 192
1, 0, Start_track
1, 0, Title_t, "Melody"
1, 0, Tempo, 217391
1, 0, Key_signature, -3, "major"
1, 0, Time_signature, 4, 2, 24, 8
1, 2660, Note_on_c, 0, 72, 120
1, 2811, Note_off_c, 0, 72, 120
1, 2835, Note_on_c, 0, 65, 107
1, 2941, Note_off_c, 0, 65, 107
1, 3484, Note_on_c, 0, 70, 117
1, 3579, Note_off_c, 0, 70, 117
1, 3579, Note_on_c, 0, 68, 118
1, 3672, Note_off_c, 0, 68, 118
1, 3672, Note_on_c, 0, 65, 112
1, 3848, Note_off_c, 0, 65, 112
1, 4298, Note_on_c, 0, 60, 111
1, 4395, Note_off_c, 0, 60, 111
1, 4395, Note_on_c, 0, 63, 104
1, 4450, Note_off_c, 0, 63, 104
1, 4457, Note_on_c, 0, 67, 118
1, 4554, Note_off_c, 0, 67, 118
1, 4563, Note_on_c, 0, 63, 113
1, 4620, Note_off_c, 0, 63, 113
1, 4667, Note_on_c, 0, 65, 120
1, 4792, Note_off_c, 0, 65, 120
1, 4809, Note_on_c, 0, 60, 105
1, 4861, Note_off_c, 0, 60, 105
1, 4882, Note_on_c, 0, 58, 100
1, 4989, Note_off_c, 0, 58, 100
1, 5071, Note_on_c, 0, 64, 113
1, 5199, Note_off_c, 0, 64, 113
1, 5200, Note_on_c, 0, 61, 106
1, 5273, Note_off_c, 0, 61, 106
1, 5289, Note_on_c, 0, 59, 103
1, 5390, Note_off_c, 0, 59, 103
1, 5414, Note_on_c, 0, 54, 94
1, 5463, Note_off_c, 0, 54, 94
1, 5475, Note_on_c, 0, 55, 104
1, 5682, Note_off_c, 0, 55, 104
1, 5919, Note_on_c, 0, 66, 112
1, 6034, Note_off_c, 0, 66, 112
1, 6368, Note_on_c, 0, 53, 104
1, 6432, Note_off_c, 0, 53, 104
1, 6444, Note_on_c, 0, 55, 105
1, 6501, Note_off_c, 0, 55, 105
1, 6574, Note_on_c, 0, 61, 102
1, 6632, Note_off_c, 0, 61, 102
1, 6657, Note_on_c, 0, 66, 116
1, 6755, Note_on_c, 0, 64, 115
1, 6755, Note_off_c, 0, 66, 116
1, 6874, Note_off_c, 0, 64, 115
1, 6874, Note_on_c, 0, 63, 116
1, 6972, Note_off_c, 0, 63, 116
1, 6980, Note_on_c, 0, 61, 110
1, 7067, Note_off_c, 0, 61, 110
1, 7068, Note_on_c, 0, 60, 108
1, 7155, Note_off_c, 0, 60, 108
1, 7184, Note_on_c, 0, 58, 110
1, 7249, Note_off_c, 0, 58, 110
1, 7266, Note_on_c, 0, 55, 101
1, 7432, Note_off_c, 0, 55, 101
1, 7457, Note_on_c, 0, 57, 108
1, 7546, Note_off_c, 0, 57, 108
1, 7551, Note_on_c, 0, 48, 101
1, 7617, Note_off_c, 0, 48, 101
1, 7652, Note_on_c, 0, 51, 94
1, 7725, Note_off_c, 0, 51, 94
1, 7758, Note_on_c, 0, 55, 109
1, 7833, Note_off_c, 0, 55, 109
1, 7848, Note_on_c, 0, 54, 98
1, 7931, Note_off_c, 0, 54, 98
1, 7945, Note_on_c, 0, 57, 101
1, 8023, Note_off_c, 0, 57, 101
1, 8029, Note_on_c, 0, 60, 107
1, 8128, Note_off_c, 0, 60, 107
1, 8130, Note_on_c, 0, 62, 107
1, 8232, Note_off_c, 0, 62, 107
1, 8233, Note_on_c, 0, 63, 116
1, 8324, Note_off_c, 0, 63, 116
1, 8334, Note_on_c, 0, 62, 117
1, 8418, Note_off_c, 0, 62, 117
1, 8421, Note_on_c, 0, 61, 105
1, 8504, Note_off_c, 0, 61, 105
1, 8516, Note_on_c, 0, 62, 113
1, 8613, Note_off_c, 0, 62, 113
1, 8618, Note_on_c, 0, 58, 98
1, 8894, Note_off_c, 0, 58, 98
1, 8894, Note_on_c, 0, 62, 114
1, 9199, Note_off_c, 0, 62, 114
1, 9204, Note_on_c, 0, 65, 115
1, 9569, Note_off_c, 0, 65, 115
1, 9586, Note_on_c, 0, 62, 94
1, 9648, Note_off_c, 0, 62, 94
1, 9658, Note_on_c, 0, 63, 99
1, 9701, Note_off_c, 0, 63, 99
1, 9715, Note_on_c, 0, 65, 91
1, 9771, Note_off_c, 0, 65, 91
1, 9771, Note_on_c, 0, 69, 98
1, 9813, Note_off_c, 0, 69, 98
1, 9825, Note_on_c, 0, 75, 109
1, 9910, Note_off_c, 0, 75, 109
1, 9910, Note_on_c, 0, 74, 106
1, 10030, Note_off_c, 0, 74, 106
1, 10649, Note_on_c, 0, 74, 113
1, 10764, Note_off_c, 0, 74, 113
1, 11371, Note_on_c, 0, 60, 119
1, 11438, Note_off_c, 0, 60, 119
1, 11760, Note_on_c, 0, 72, 114
1, 11824, Note_off_c, 0, 72, 114
1, 11957, Note_on_c, 0, 75, 108
1, 12078, Note_off_c, 0, 75, 108
1, 12078, Note_on_c, 0, 72, 107
1, 12429, Note_off_c, 0, 72, 107
1, 12578, Note_on_c, 0, 68, 119
1, 12665, Note_off_c, 0, 68, 119
1, 12673, Note_on_c, 0, 70, 103
1, 12734, Note_off_c, 0, 70, 103
1, 12754, Note_on_c, 0, 65, 111
1, 12907, Note_off_c, 0, 65, 111
1, 13251, Note_on_c, 0, 67, 121
1, 13370, Note_off_c, 0, 67, 121
1, 13439, Note_on_c, 0, 67, 118
1, 13532, Note_off_c, 0, 67, 118
1, 13532, Note_on_c, 0, 66, 113
1, 13619, Note_off_c, 0, 66, 113
1, 13631, Note_on_c, 0, 65, 115
1, 13707, Note_off_c, 0, 65, 115
1, 13718, Note_on_c, 0, 64, 119
1, 13814, Note_off_c, 0, 64, 119
1, 13816, Note_on_c, 0, 63, 116
1, 13892, Note_off_c, 0, 63, 116
1, 13908, Note_on_c, 0, 62, 118
1, 14025, Note_off_c, 0, 62, 118
1, 14025, Note_on_c, 0, 61, 102
1, 14117, Note_off_c, 0, 61, 102
1, 14122, Note_on_c, 0, 59, 109
1, 14202, Note_off_c, 0, 59, 109
1, 14234, Note_on_c, 0, 53, 97
1, 14305, Note_off_c, 0, 53, 97
1, 14315, Note_on_c, 0, 54, 105
1, 14398, Note_off_c, 0, 54, 105
1, 14404, Note_on_c, 0, 50, 97
1, 14487, Note_off_c, 0, 50, 97
1, 14503, Note_on_c, 0, 56, 108
1, 14599, Note_off_c, 0, 56, 108
1, 14605, Note_on_c, 0, 54, 99
1, 14699, Note_off_c, 0, 54, 99
1, 14707, Note_on_c, 0, 55, 101
1, 14800, Note_off_c, 0, 55, 101
1, 14814, Note_on_c, 0, 56, 107
1, 14898, Note_off_c, 0, 56, 107
1, 14901, Note_on_c, 0, 53, 104
1, 15024, Note_off_c, 0, 53, 104
1, 15275, Note_on_c, 0, 56, 105
1, 15597, Note_off_c, 0, 56, 105
1, 15604, Note_on_c, 0, 54, 109
1, 15673, Note_off_c, 0, 54, 109
1, 15673, Note_on_c, 0, 53, 106
1, 15753, Note_off_c, 0, 53, 106
1, 15797, Note_on_c, 0, 51, 108
1, 15864, Note_off_c, 0, 51, 108
1, 15875, Note_on_c, 0, 49, 120
1, 15948, Note_off_c, 0, 49, 120
1, 15964, Note_on_c, 0, 48, 111
1, 16024, Note_off_c, 0, 48, 111
1, 16041, Note_on_c, 0, 47, 109
1, 16128, Note_off_c, 0, 47, 109
1, 16559, Note_on_c, 0, 46, 111
1, 16647, Note_off_c, 0, 46, 111
1, 16761, Note_on_c, 0, 55, 108
1, 16848, Note_off_c, 0, 55, 108
1, 16853, Note_on_c, 0, 53, 113
1, 16945, Note_off_c, 0, 53, 113
1, 16953, Note_on_c, 0, 55, 99
1, 17029, Note_off_c, 0, 55, 99
1, 17029, Note_on_c, 0, 57, 109
1, 17114, Note_off_c, 0, 57, 109
1, 17130, Note_on_c, 0, 53, 98
1, 17208, Note_off_c, 0, 53, 98
1, 17219, Note_on_c, 0, 58, 110
1, 17324, Note_off_c, 0, 58, 110
1, 17324, Note_on_c, 0, 60, 107
1, 17400, Note_off_c, 0, 60, 107
1, 17405, Note_on_c, 0, 62, 111
1, 17492, Note_off_c, 0, 62, 111
1, 17500, Note_on_c, 0, 65, 122
1, 17589, Note_off_c, 0, 65, 122
1, 17589, Note_on_c, 0, 63, 120
1, 17692, Note_off_c, 0, 63, 120
1, 17708, Note_on_c, 0, 65, 104
1, 17811, Note_off_c, 0, 65, 104
1, 17825, Note_on_c, 0, 67, 106
1, 17890, Note_off_c, 0, 67, 106
1, 17900, Note_on_c, 0, 70, 117
1, 17984, Note_off_c, 0, 70, 117
1, 18051, Note_on_c, 0, 67, 108
1, 18145, Note_off_c, 0, 67, 108
1, 18153, Note_on_c, 0, 68, 120
1, 18258, Note_off_c, 0, 68, 120
1, 18270, Note_on_c, 0, 66, 102
1, 18354, Note_off_c, 0, 66, 102
1, 18362, Note_on_c, 0, 67, 105
1, 18459, Note_off_c, 0, 67, 105
1, 18465, Note_on_c, 0, 62, 117
1, 18557, Note_off_c, 0, 62, 117
1, 18557, Note_on_c, 0, 65, 115
1, 18665, Note_off_c, 0, 65, 115
1, 18667, Note_on_c, 0, 63, 120
1, 18793, Note_off_c, 0, 63, 120
1, 18894, Note_on_c, 0, 58, 96
1, 18947, Note_off_c, 0, 58, 96
1, 19166, Note_on_c, 0, 62, 117
1, 19263, Note_off_c, 0, 62, 117
1, 19269, Note_on_c, 0, 61, 110
1, 19353, Note_off_c, 0, 61, 110
1, 19355, Note_on_c, 0, 60, 108
1, 19446, Note_off_c, 0, 60, 108
1, 19456, Note_on_c, 0, 59, 106
1, 19545, Note_off_c, 0, 59, 106
1, 19547, Note_on_c, 0, 58, 106
1, 19635, Note_off_c, 0, 58, 106
1, 19659, Note_on_c, 0, 56, 107
1, 19741, Note_off_c, 0, 56, 107
1, 19751, Note_on_c, 0, 55, 117
1, 19833, Note_off_c, 0, 55, 117
1, 19849, Note_on_c, 0, 53, 115
1, 19920, Note_off_c, 0, 53, 115
1, 19939, Note_on_c, 0, 51, 110
1, 20063, Note_off_c, 0, 51, 110
1, 20714, Note_on_c, 0, 63, 118
1, 20825, Note_off_c, 0, 63, 118
1, 20832, Note_on_c, 0, 65, 106
1, 20881, Note_off_c, 0, 65, 106
1, 20889, Note_on_c, 0, 67, 117
1, 20990, Note_off_c, 0, 67, 117
1, 20996, Note_on_c, 0, 63, 116
1, 21054, Note_off_c, 0, 63, 116
1, 21082, Note_on_c, 0, 65, 115
1, 21189, Note_off_c, 0, 65, 115
1, 21199, Note_on_c, 0, 67, 107
1, 21272, Note_off_c, 0, 67, 107
1, 21284, Note_on_c, 0, 69, 119
1, 21399, Note_off_c, 0, 69, 119
1, 21399, Note_on_c, 0, 65, 100
1, 21468, Note_off_c, 0, 65, 100
1, 21470, Note_on_c, 0, 67, 113
1, 21596, Note_off_c, 0, 67, 113
1, 21596, Note_on_c, 0, 65, 115
1, 21658, Note_off_c, 0, 65, 115
1, 21658, Note_on_c, 0, 63, 113
1, 21781, Note_off_c, 0, 63, 113
1, 21781, Note_on_c, 0, 67, 121
1, 21872, Note_off_c, 0, 67, 121
1, 21872, Note_on_c, 0, 65, 117
1, 21991, Note_off_c, 0, 65, 117
1, 21993, Note_on_c, 0, 60, 103
1, 22101, Note_off_c, 0, 60, 103
1, 22271, Note_on_c, 0, 65, 118
1, 22378, Note_off_c, 0, 65, 118
1, 22378, Note_on_c, 0, 67, 107
1, 22440, Note_off_c, 0, 67, 107
1, 22461, Note_on_c, 0, 69, 117
1, 22546, Note_off_c, 0, 69, 117
1, 22554, Note_on_c, 0, 65, 97
1, 22627, Note_off_c, 0, 65, 97
1, 22644, Note_on_c, 0, 67, 114
1, 22769, Note_off_c, 0, 67, 114
1, 22780, Note_on_c, 0, 65, 115
1, 22833, Note_off_c, 0, 65, 115
1, 22852, Note_on_c, 0, 60, 105
1, 22916, Note_off_c, 0, 60, 105
1, 22945, Note_on_c, 0, 65, 115
1, 23011, Note_off_c, 0, 65, 115
1, 23017, Note_on_c, 0, 63, 110
1, 23131, Note_off_c, 0, 63, 110
1, 23131, Note_on_c, 0, 65, 99
1, 23204, Note_off_c, 0, 65, 99
1, 23211, Note_on_c, 0, 67, 115
1, 23313, Note_off_c, 0, 67, 115
1, 23321, Note_on_c, 0, 63, 102
1, 23399, Note_off_c, 0, 63, 102
1, 23406, Note_on_c, 0, 65, 114
1, 23459, Note_off_c, 0, 65, 114
1, 23460, Note_on_c, 0, 66, 113
1, 23504, Note_off_c, 0, 66, 113
1, 23524, Note_on_c, 0, 61, 104
1, 23607, Note_off_c, 0, 61, 104
1, 23622, Note_on_c, 0, 59, 93
1, 23723, Note_off_c, 0, 59, 93
1, 23783, Note_on_c, 0, 63, 118
1, 23908, Note_off_c, 0, 63, 118
1, 23920, Note_on_c, 0, 65, 108
1, 23977, Note_off_c, 0, 65, 108
1, 23992, Note_on_c, 0, 68, 118
1, 24115, Note_off_c, 0, 68, 118
1, 24587, Note_on_c, 0, 72, 118
1, 24681, Note_off_c, 0, 72, 118
1, 24681, Note_on_c, 0, 70, 114
1, 24755, Note_off_c, 0, 70, 114
1, 24757, Note_on_c, 0, 68, 117
1, 24877, Note_off_c, 0, 68, 117
1, 24883, Note_on_c, 0, 63, 113
1, 25030, Note_off_c, 0, 63, 113
1, 25372, Note_on_c, 0, 67, 121
1, 25474, Note_off_c, 0, 67, 121
1, 25480, Note_on_c, 0, 66, 110
1, 25547, Note_off_c, 0, 66, 110
1, 25554, Note_on_c, 0, 63, 110
1, 25659, Note_off_c, 0, 63, 110
1, 25677, Note_on_c, 0, 59, 93
1, 25780, Note_off_c, 0, 59, 93
1, 25792, Note_on_c, 0, 71, 110
1, 25858, Note_off_c, 0, 71, 110
1, 25869, Note_on_c, 0, 69, 109
1, 25933, Note_off_c, 0, 69, 109
1, 25954, Note_on_c, 0, 67, 103
1, 26050, Note_off_c, 0, 67, 103
1, 26141, Note_on_c, 0, 70, 110
1, 26233, Note_off_c, 0, 70, 110
1, 26254, Note_on_c, 0, 68, 109
1, 26330, Note_off_c, 0, 68, 109
1, 26346, Note_on_c, 0, 66, 106
1, 26435, Note_off_c, 0, 66, 106
1, 26454, Note_on_c, 0, 61, 91
1, 26498, Note_off_c, 0, 61, 91
1, 26513, Note_on_c, 0, 68, 110
1, 26555, Note_off_c, 0, 68, 110
1, 26555, Note_on_c, 0, 69, 112
1, 26640, Note_off_c, 0, 69, 112
1, 26648, Note_on_c, 0, 67, 110
1, 26706, Note_off_c, 0, 67, 110
1, 26716, Note_on_c, 0, 64, 109
1, 26817, Note_off_c, 0, 64, 109
1, 26908, Note_on_c, 0, 68, 116
1, 27014, Note_off_c, 0, 68, 116
1, 27037, Note_on_c, 0, 66, 111
1, 27104, Note_off_c, 0, 66, 111
1, 27107, Note_on_c, 0, 62, 110
1, 27244, Note_off_c, 0, 62, 110
1, 27296, Note_on_c, 0, 67, 113
1, 27478, Note_off_c, 0, 67, 113
1, 27676, Note_on_c, 0, 67, 110
1, 27738, Note_off_c, 0, 67, 110
1, 27752, Note_on_c, 0, 70, 105
1, 27818, Note_off_c, 0, 70, 105
1, 27824, Note_on_c, 0, 67, 110
1, 27975, Note_off_c, 0, 67, 110
1, 28476, Note_on_c, 0, 70, 113
1, 28585, Note_off_c, 0, 70, 113
1, 28585, Note_on_c, 0, 67, 101
1, 28662, Note_off_c, 0, 67, 101
1, 28663, Note_on_c, 0, 68, 119
1, 28778, Note_off_c, 0, 68, 119
1, 28806, Note_on_c, 0, 68, 111
1, 28858, Note_off_c, 0, 68, 111
1, 28861, Note_on_c, 0, 67, 111
1, 28961, Note_off_c, 0, 67, 111
1, 28988, Note_on_c, 0, 66, 110
1, 29061, Note_off_c, 0, 66, 110
1, 29066, Note_on_c, 0, 65, 109
1, 29165, Note_off_c, 0, 65, 109
1, 29175, Note_on_c, 0, 64, 113
1, 29250, Note_off_c, 0, 64, 113
1, 29259, Note_on_c, 0, 63, 111
1, 29365, Note_off_c, 0, 63, 111
1, 29383, Note_on_c, 0, 60, 103
1, 29433, Note_off_c, 0, 60, 103
1, 29451, Note_on_c, 0, 56, 100
1, 29645, Note_off_c, 0, 56, 100
1, 29645, Note_on_c, 0, 62, 116
1, 29765, Note_off_c, 0, 62, 116
1, 29768, Note_on_c, 0, 60, 104
1, 29829, Note_off_c, 0, 60, 104
1, 29852, Note_on_c, 0, 58, 102
1, 29929, Note_off_c, 0, 58, 102
1, 29957, Note_on_c, 0, 56, 107
1, 30086, Note_off_c, 0, 56, 107
1, 30101, Note_on_c, 0, 57, 106
1, 30147, Note_off_c, 0, 57, 106
1, 30160, Note_on_c, 0, 60, 107
1, 30280, Note_off_c, 0, 60, 107
1, 30425, Note_on_c, 0, 65, 117
1, 30810, Note_off_c, 0, 65, 117
1, 30817, Note_on_c, 0, 63, 112
1, 30937, Note_off_c, 0, 63, 112
1, 30956, Note_on_c, 0, 65, 111
1, 31042, Note_off_c, 0, 65, 111
1, 31148, Note_on_c, 0, 65, 123
1, 31212, Note_off_c, 0, 65, 123
1, 31316, Note_on_c, 0, 65, 119
1, 31393, Note_off_c, 0, 65, 119
1, 31490, Note_on_c, 0, 63, 99
1, 31556, Note_off_c, 0, 63, 99
1, 31570, Note_on_c, 0, 65, 111
1, 31829, Note_off_c, 0, 65, 111
1, 31883, Note_on_c, 0, 63, 105
1, 31940, Note_off_c, 0, 63, 105
1, 31956, Note_on_c, 0, 65, 113
1, 32044, Note_off_c, 0, 65, 113
1, 32146, Note_on_c, 0, 60, 105
1, 32259, Note_off_c, 0, 60, 105
1, 32617, Note_on_c, 0, 60, 101
1, 32676, Note_off_c, 0, 60, 101
1, 32712, Note_on_c, 0, 68, 119
1, 32794, Note_off_c, 0, 68, 119
1, 32806, Note_on_c, 0, 67, 107
1, 32879, Note_off_c, 0, 67, 107
1, 32911, Note_on_c, 0, 65, 98
1, 32975, Note_off_c, 0, 65, 98
1, 32998, Note_on_c, 0, 69, 118
1, 33093, Note_off_c, 0, 69, 118
1, 33094, Note_on_c, 0, 67, 113
1, 33175, Note_off_c, 0, 67, 113
1, 33218, Note_on_c, 0, 66, 110
1, 33295, Note_off_c, 0, 66, 110
1, 34151, Note_on_c, 0, 71, 112
1, 34210, Note_off_c, 0, 71, 112
1, 34220, Note_on_c, 0, 72, 117
1, 34928, Note_off_c, 0, 72, 117
1, 34973, Note_on_c, 0, 70, 116
1, 35041, Note_off_c, 0, 70, 116
1, 35057, Note_on_c, 0, 69, 110
1, 35150, Note_off_c, 0, 69, 110
1, 35166, Note_on_c, 0, 65, 92
1, 35230, Note_off_c, 0, 65, 92
1, 35282, Note_on_c, 0, 69, 91
1, 35339, Note_off_c, 0, 69, 91
1, 35494, Note_on_c, 0, 72, 112
1, 35593, Note_off_c, 0, 72, 112
1, 36304, Note_on_c, 0, 69, 119
1, 36383, Note_off_c, 0, 69, 119
1, 36487, Note_on_c, 0, 70, 117
1, 36578, Note_off_c, 0, 70, 117
1, 36695, Note_on_c, 0, 67, 115
1, 36777, Note_off_c, 0, 67, 115
1, 36886, Note_on_c, 0, 68, 119
1, 36974, Note_off_c, 0, 68, 119
1, 37071, Note_on_c, 0, 66, 100
1, 37135, Note_off_c, 0, 66, 100
1, 37135, Note_on_c, 0, 67, 104
1, 37207, Note_off_c, 0, 67, 104
1, 37230, Note_on_c, 0, 70, 116
1, 37302, Note_off_c, 0, 70, 116
1, 37323, Note_on_c, 0, 66, 112
1, 37409, Note_off_c, 0, 66, 112
1, 37448, Note_on_c, 0, 62, 100
1, 37512, Note_off_c, 0, 62, 100
1, 37517, Note_on_c, 0, 65, 115
1, 37599, Note_off_c, 0, 65, 115
1, 37599, Note_on_c, 0, 64, 114
1, 37685, Note_off_c, 0, 64, 114
1, 37708, Note_on_c, 0, 63, 114
1, 37830, Note_off_c, 0, 63, 114
1, 37853, Note_on_c, 0, 60, 105
1, 37916, Note_off_c, 0, 60, 105
1, 37955, Note_on_c, 0, 67, 98
1, 38050, Note_off_c, 0, 67, 98
1, 38111, Note_on_c, 0, 63, 107
1, 38172, Note_off_c, 0, 63, 107
1, 38172, Note_on_c, 0, 62, 116
1, 38269, Note_off_c, 0, 62, 116
1, 38290, Note_on_c, 0, 61, 105
1, 38363, Note_off_c, 0, 61, 105
1, 38375, Note_on_c, 0, 60, 104
1, 38454, Note_off_c, 0, 60, 104
1, 38479, Note_on_c, 0, 59, 106
1, 38525, Note_off_c, 0, 59, 106
1, 38528, Note_on_c, 0, 58, 104
1, 38630, Note_off_c, 0, 58, 104
1, 38682, Note_on_c, 0, 56, 111
1, 38741, Note_off_c, 0, 56, 111
1, 38746, Note_on_c, 0, 55, 104
1, 38850, Note_off_c, 0, 55, 104
1, 38880, Note_on_c, 0, 53, 101
1, 38925, Note_off_c, 0, 53, 101
1, 38937, Note_on_c, 0, 52, 97
1, 39048, Note_off_c, 0, 52, 97
1, 39130, Note_on_c, 0, 55, 109
1, 39230, Note_off_c, 0, 55, 109
1, 39230, Note_on_c, 0, 52, 99
1, 39271, Note_off_c, 0, 52, 99
1, 39280, Note_on_c, 0, 53, 114
1, 39400, Note_off_c, 0, 53, 114
1, 39437, Note_on_c, 0, 55, 112
1, 39527, Note_off_c, 0, 55, 112
1, 39536, Note_on_c, 0, 56, 100
1, 39613, Note_off_c, 0, 56, 100
1, 39613, Note_on_c, 0, 58, 100
1, 39677, Note_off_c, 0, 58, 100
1, 39695, Note_on_c, 0, 60, 107
1, 39815, Note_off_c, 0, 60, 107
1, 39824, Note_on_c, 0, 62, 113
1, 39906, Note_off_c, 0, 62, 113
1, 39927, Note_on_c, 0, 63, 103
1, 40013, Note_off_c, 0, 63, 103
1, 40025, Note_on_c, 0, 65, 102
1, 40070, Note_off_c, 0, 65, 102
1, 40098, Note_on_c, 0, 67, 113
1, 40202, Note_off_c, 0, 67, 113
1, 40202, Note_on_c, 0, 63, 112
1, 40286, Note_off_c, 0, 63, 112
1, 40286, Note_on_c, 0, 65, 108
1, 40381, Note_off_c, 0, 65, 108
1, 40386, Note_on_c, 0, 67, 117
1, 40659, Note_off_c, 0, 67, 117
1, 40841, Note_on_c, 0, 67, 117
1, 40956, Note_off_c, 0, 67, 117
1, 40972, Note_on_c, 0, 63, 113
1, 41024, Note_off_c, 0, 63, 113
1, 41031, Note_on_c, 0, 65, 111
1, 41133, Note_off_c, 0, 65, 111
1, 41156, Note_on_c, 0, 67, 118
1, 41323, Note_off_c, 0, 67, 118
1, 41420, Note_on_c, 0, 67, 115
1, 41540, Note_off_c, 0, 67, 115
1, 41547, Note_on_c, 0, 63, 97
1, 41602, Note_off_c, 0, 63, 97
1, 41614, Note_on_c, 0, 65, 112
1, 41731, Note_off_c, 0, 65, 112
1, 41741, Note_on_c, 0, 67, 115
1, 41854, Note_off_c, 0, 67, 115
1, 41922, Note_on_c, 0, 65, 118
1, 41977, Note_off_c, 0, 65, 118
1, 41984, Note_on_c, 0, 63, 114
1, 42034, Note_off_c, 0, 63, 114
1, 42037, Note_on_c, 0, 61, 105
1, 42103, Note_off_c, 0, 61, 105
1, 42106, Note_on_c, 0, 59, 106
1, 42214, Note_off_c, 0, 59, 106
1, 42286, Note_on_c, 0, 65, 118
1, 42354, Note_off_c, 0, 65, 118
1, 42357, Note_on_c, 0, 63, 112
1, 42411, Note_off_c, 0, 63, 112
1, 42414, Note_on_c, 0, 61, 104
1, 42471, Note_off_c, 0, 61, 104
1, 42471, Note_on_c, 0, 59, 102
1, 42604, Note_off_c, 0, 59, 102
1, 43121, Note_on_c, 0, 67, 122
1, 43230, Note_off_c, 0, 67, 122
1, 43235, Note_on_c, 0, 63, 108
1, 43278, Note_off_c, 0, 63, 108
1, 43296, Note_on_c, 0, 65, 117
1, 43416, Note_off_c, 0, 65, 117
1, 43435, Note_on_c, 0, 67, 122
1, 43667, Note_off_c, 0, 67, 122
1, 43850, Note_on_c, 0, 67, 121
1, 43990, Note_off_c, 0, 67, 121
1, 43999, Note_on_c, 0, 63, 104
1, 44044, Note_off_c, 0, 63, 104
1, 44051, Note_on_c, 0, 65, 111
1, 44168, Note_off_c, 0, 65, 111
1, 44182, Note_on_c, 0, 67, 109
1, 44297, Note_off_c, 0, 67, 109
1, 44358, Note_on_c, 0, 67, 113
1, 44439, Note_off_c, 0, 67, 113
1, 44538, Note_on_c, 0, 67, 113
1, 44642, Note_off_c, 0, 67, 113
1, 44685, Note_on_c, 0, 63, 108
1, 44735, Note_off_c, 0, 63, 108
1, 44736, Note_on_c, 0, 61, 103
1, 44782, Note_off_c, 0, 61, 103
1, 44789, Note_on_c, 0, 59, 102
1, 44873, Note_off_c, 0, 59, 102
1, 44896, Note_on_c, 0, 65, 106
1, 44950, Note_off_c, 0, 65, 106
1, 44953, Note_on_c, 0, 63, 109
1, 45003, Note_off_c, 0, 63, 109
1, 45021, Note_on_c, 0, 61, 99
1, 45078, Note_off_c, 0, 61, 99
1, 45092, Note_on_c, 0, 59, 93
1, 45272, Note_off_c, 0, 59, 93
1, 45895, Note_on_c, 0, 54, 114
1, 45967, Note_off_c, 0, 54, 114
1, 45967, Note_on_c, 0, 55, 110
1, 46010, Note_off_c, 0, 55, 110
1, 46019, Note_on_c, 0, 57, 104
1, 46071, Note_on_c, 0, 60, 105
1, 46071, Note_off_c, 0, 57, 104
1, 46168, Note_off_c, 0, 60, 105
1, 46184, Note_on_c, 0, 58, 106
1, 46279, Note_off_c, 0, 58, 106
1, 46289, Note_on_c, 0, 60, 103
1, 46361, Note_off_c, 0, 60, 103
1, 46562, Note_on_c, 0, 69, 117
1, 46652, Note_off_c, 0, 69, 117
1, 46680, Note_on_c, 0, 67, 113
1, 46734, Note_off_c, 0, 67, 113
1, 46759, Note_on_c, 0, 65, 113
1, 46859, Note_off_c, 0, 65, 113
1, 46889, Note_on_c, 0, 62, 105
1, 46943, Note_off_c, 0, 62, 105
1, 46955, Note_on_c, 0, 64, 117
1, 47099, Note_off_c, 0, 64, 117
1, 47257, Note_on_c, 0, 72, 109
1, 47383, Note_off_c, 0, 72, 109
1, 47446, Note_on_c, 0, 69, 117
1, 47527, Note_off_c, 0, 69, 117
1, 47653, Note_on_c, 0, 70, 117
1, 47719, Note_off_c, 0, 70, 117
1, 47910, Note_on_c, 0, 69, 118
1, 48005, Note_off_c, 0, 69, 118
1, 48023, Note_on_c, 0, 67, 110
1, 48149, Note_off_c, 0, 67, 110
1, 48276, Note_on_c, 0, 67, 118
1, 48394, Note_off_c, 0, 67, 118
1, 48410, Note_on_c, 0, 67, 110
1, 48465, Note_off_c, 0, 67, 110
1, 48468, Note_on_c, 0, 66, 107
1, 48563, Note_off_c, 0, 66, 107
1, 48599, Note_on_c, 0, 65, 114
1, 48667, Note_off_c, 0, 65, 114
1, 48677, Note_on_c, 0, 64, 113
1, 48792, Note_off_c, 0, 64, 113
1, 48804, Note_on_c, 0, 61, 105
1, 48879, Note_off_c, 0, 61, 105
1, 48906, Note_on_c, 0, 60, 98
1, 48987, Note_off_c, 0, 60, 98
1, 49006, Note_on_c, 0, 58, 103
1, 49076, Note_off_c, 0, 58, 103
1, 49272, Note_on_c, 0, 57, 110
1, 49389, Note_off_c, 0, 57, 110
1, 49401, Note_on_c, 0, 50, 95
1, 49444, Note_off_c, 0, 50, 95
1, 49615, Note_on_c, 0, 55, 111
1, 49681, Note_off_c, 0, 55, 111
1, 49697, Note_on_c, 0, 50, 112
1, 49761, Note_off_c, 0, 50, 112
1, 49860, Note_on_c, 0, 53, 109
1, 49964, Note_off_c, 0, 53, 109
1, 49964, Note_on_c, 0, 50, 101
1, 50023, Note_off_c, 0, 50, 101
1, 50035, Note_on_c, 0, 51, 112
1, 50132, Note_off_c, 0, 51, 112
1, 50146, Note_on_c, 0, 53, 101
1, 50230, Note_off_c, 0, 53, 101
1, 50242, Note_on_c, 0, 55, 93
1, 50373, Note_off_c, 0, 55, 93
1, 50396, Note_on_c, 0, 61, 108
1, 50468, Note_off_c, 0, 61, 108
1, 50468, Note_on_c, 0, 62, 111
1, 50603, Note_off_c, 0, 62, 111
1, 50603, Note_on_c, 0, 65, 115
1, 50716, Note_off_c, 0, 65, 115
1, 50716, Note_on_c, 0, 62, 98
1, 50800, Note_off_c, 0, 62, 98
1, 50800, Note_on_c, 0, 63, 115
1, 50890, Note_off_c, 0, 63, 115
1, 50902, Note_on_c, 0, 65, 112
1, 51008, Note_off_c, 0, 65, 112
1, 51018, Note_on_c, 0, 67, 95
1, 51057, Note_off_c, 0, 67, 95
1, 51075, Note_on_c, 0, 69, 95
1, 51150, Note_off_c, 0, 69, 95
1, 51171, Note_on_c, 0, 74, 100
1, 51295, Note_on_c, 0, 73, 107
1, 51295, Note_off_c, 0, 74, 100
1, 51545, Note_off_c, 0, 73, 107
1, 51561, Note_on_c, 0, 71, 102
1, 51687, Note_off_c, 0, 71, 102
1, 51690, Note_on_c, 0, 68, 105
1, 51783, Note_off_c, 0, 68, 105
1, 51910, Note_on_c, 0, 71, 112
1, 51949, Note_off_c, 0, 71, 112
1, 51954, Note_on_c, 0, 72, 108
1, 52379, Note_off_c, 0, 72, 108
1, 52716, Note_on_c, 0, 72, 116
1, 52802, Note_off_c, 0, 72, 116
1, 52807, Note_on_c, 0, 70, 113
1, 52978, Note_off_c, 0, 70, 113
1, 53073, Note_on_c, 0, 68, 116
1, 53213, Note_off_c, 0, 68, 116
1, 53213, Note_on_c, 0, 65, 106
1, 53267, Note_off_c, 0, 65, 106
1, 53387, Note_on_c, 0, 70, 109
1, 53475, Note_off_c, 0, 70, 109
1, 53559, Note_on_c, 0, 71, 105
1, 53640, Note_off_c, 0, 71, 105
1, 53856, Note_on_c, 0, 68, 114
1, 53982, Note_off_c, 0, 68, 114
1, 54009, Note_on_c, 0, 65, 106
1, 54059, Note_off_c, 0, 65, 106
1, 54159, Note_on_c, 0, 65, 87
1, 54202, Note_off_c, 0, 65, 87
1, 54252, Note_on_c, 0, 70, 109
1, 54354, Note_off_c, 0, 70, 109
1, 54354, Note_on_c, 0, 68, 101
1, 54413, Note_off_c, 0, 68, 101
1, 54425, Note_on_c, 0, 65, 102
1, 54507, Note_off_c, 0, 65, 102
1, 54609, Note_on_c, 0, 67, 107
1, 54686, Note_off_c, 0, 67, 107
1, 54713, Note_on_c, 0, 64, 106
1, 54777, Note_off_c, 0, 64, 106
1, 54796, Note_on_c, 0, 65, 107
1, 54896, Note_off_c, 0, 65, 107
1, 54905, Note_on_c, 0, 67, 95
1, 54948, Note_off_c, 0, 67, 95
1, 54949, Note_on_c, 0, 65, 107
1, 54997, Note_off_c, 0, 65, 107
1, 55000, Note_on_c, 0, 63, 102
1, 55115, Note_off_c, 0, 63, 102
1, 55129, Note_on_c, 0, 60, 95
1, 55235, Note_off_c, 0, 60, 95
1, 55779, Note_on_c, 0, 60, 107
1, 55867, Note_off_c, 0, 60, 107
1, 55939, Note_on_c, 0, 67, 110
1, 56056, Note_off_c, 0, 67, 110
1, 56056, Note_on_c, 0, 64, 98
1, 56124, Note_off_c, 0, 64, 98
1, 56134, Note_on_c, 0, 65, 112
1, 56233, Note_off_c, 0, 65, 112
1, 56281, Note_on_c, 0, 63, 110
1, 56338, Note_off_c, 0, 63, 110
1, 56348, Note_on_c, 0, 60, 100
1, 56443, Note_off_c, 0, 60, 100
1, 56468, Note_on_c, 0, 58, 99
1, 56518, Note_off_c, 0, 58, 99
1, 56534, Note_on_c, 0, 62, 110
1, 56721, Note_off_c, 0, 62, 110
1, 56724, Note_on_c, 0, 63, 108
1, 56801, Note_off_c, 0, 63, 108
1, 57693, Note_on_c, 0, 62, 114
1, 57777, Note_off_c, 0, 62, 114
1, 57777, Note_on_c, 0, 65, 111
1, 57805, Note_off_c, 0, 65, 111
1, 57814, Note_on_c, 0, 63, 112
1, 57958, Note_off_c, 0, 63, 112
1, 57967, Note_on_c, 0, 60, 103
1, 58048, Note_off_c, 0, 60, 103
1, 58397, Note_on_c, 0, 62, 113
1, 58532, Note_off_c, 0, 62, 113
1, 58532, Note_on_c, 0, 65, 111
1, 58658, Note_off_c, 0, 65, 111
1, 58661, Note_on_c, 0, 63, 108
1, 58706, Note_off_c, 0, 63, 108
1, 58715, Note_on_c, 0, 60, 100
1, 58736, Note_off_c, 0, 60, 100
1, 58822, Note_on_c, 0, 62, 112
1, 58935, Note_off_c, 0, 62, 112
1, 58971, Note_on_c, 0, 65, 115
1, 59035, Note_off_c, 0, 65, 115
1, 59038, Note_on_c, 0, 63, 112
1, 59135, Note_off_c, 0, 63, 112
1, 59145, Note_on_c, 0, 60, 100
1, 59233, Note_off_c, 0, 60, 100
1, 59321, Note_on_c, 0, 62, 112
1, 59409, Note_off_c, 0, 62, 112
1, 59493, Note_on_c, 0, 65, 110
1, 59557, Note_off_c, 0, 65, 110
1, 59558, Note_on_c, 0, 63, 111
1, 59685, Note_off_c, 0, 63, 111
1, 59685, Note_on_c, 0, 60, 92
1, 59735, Note_off_c, 0, 60, 92
1, 59742, Note_on_c, 0, 62, 112
1, 59871, Note_off_c, 0, 62, 112
1, 59876, Note_on_c, 0, 65, 112
1, 59946, Note_off_c, 0, 65, 112
1, 59964, Note_on_c, 0, 63, 111
1, 60082, Note_off_c, 0, 63, 111
1, 60082, Note_on_c, 0, 60, 95
1, 60119, Note_off_c, 0, 60, 95
1, 60147, Note_on_c, 0, 62, 115
1, 60228, Note_off_c, 0, 62, 115
1, 60274, Note_on_c, 0, 68, 113
1, 60383, Note_off_c, 0, 68, 113
1, 60447, Note_on_c, 0, 71, 109
1, 60510, Note_off_c, 0, 71, 109
1, 60510, Note_on_c, 0, 69, 113
1, 60627, Note_off_c, 0, 69, 113
1, 60672, Note_on_c, 0, 66, 108
1, 60736, Note_off_c, 0, 66, 108
1, 60748, Note_on_c, 0, 68, 107
1, 60823, Note_off_c, 0, 68, 107
1, 60855, Note_on_c, 0, 71, 108
1, 60968, Note_off_c, 0, 71, 108
1, 61836, Note_on_c, 0, 66, 109
1, 61929, Note_off_c, 0, 66, 109
1, 61963, Note_on_c, 0, 70, 107
1, 62031, Note_off_c, 0, 70, 107
1, 62031, Note_on_c, 0, 68, 110
1, 62158, Note_off_c, 0, 68, 110
1, 62158, Note_on_c, 0, 66, 89
1, 62204, Note_off_c, 0, 66, 89
1, 62249, Note_on_c, 0, 69, 108
1, 62297, Note_off_c, 0, 69, 108
1, 62300, Note_on_c, 0, 70, 93
1, 62350, Note_off_c, 0, 70, 93
1, 62366, Note_on_c, 0, 68, 108
1, 62452, Note_off_c, 0, 68, 108
1, 63333, Note_on_c, 0, 69, 114
1, 63439, Note_off_c, 0, 69, 114
1, 63439, Note_on_c, 0, 68, 100
1, 63467, Note_off_c, 0, 68, 100
1, 63470, Note_on_c, 0, 67, 108
1, 63547, Note_off_c, 0, 67, 108
1, 63550, Note_on_c, 0, 65, 112
1, 63634, Note_off_c, 0, 65, 112
1, 63644, Note_on_c, 0, 62, 102
1, 63716, Note_off_c, 0, 62, 102
1, 63730, Note_on_c, 0, 68, 113
1, 63834, Note_off_c, 0, 68, 113
1, 63871, Note_on_c, 0, 66, 104
1, 63916, Note_off_c, 0, 66, 104
1, 63925, Note_on_c, 0, 64, 110
1, 64036, Note_off_c, 0, 64, 110
1, 64037, Note_on_c, 0, 61, 92
1, 64087, Note_off_c, 0, 61, 92
1, 64108, Note_on_c, 0, 67, 108
1, 64212, Note_off_c, 0, 67, 108
1, 64237, Note_on_c, 0, 65, 108
1, 64301, Note_off_c, 0, 65, 108
1, 64304, Note_on_c, 0, 63, 110
1, 64424, Note_off_c, 0, 63, 110
1, 64440, Note_on_c, 0, 60, 94
1, 64492, Note_off_c, 0, 60, 94
1, 64506, Note_on_c, 0, 66, 111
1, 64570, Note_off_c, 0, 66, 111
1, 64570, Note_on_c, 0, 64, 109
1, 64613, Note_off_c, 0, 64, 109
1, 64631, Note_on_c, 0, 64, 117
1, 64683, Note_off_c, 0, 64, 117
1, 64688, Note_on_c, 0, 62, 115
1, 64819, Note_off_c, 0, 62, 115
1, 64819, Note_on_c, 0, 59, 93
1, 64873, Note_off_c, 0, 59, 93
1, 64882, Note_on_c, 0, 65, 115
1, 65024, Note_off_c, 0, 65, 115
1, 67996, Note_on_c, 0, 45, 116
1, 68114, Note_off_c, 0, 45, 116
1, 68130, Note_on_c, 0, 53, 108
1, 68193, Note_off_c, 0, 53, 108
1, 68207, Note_on_c, 0, 56, 114
1, 68277, Note_off_c, 0, 56, 114
1, 68284, Note_on_c, 0, 57, 108
1, 68453, Note_off_c, 0, 57, 108
1, 68575, Note_on_c, 0, 45, 110
1, 68692, Note_off_c, 0, 45, 110
1, 68706, Note_on_c, 0, 48, 110
1, 68758, Note_off_c, 0, 48, 110
1, 68768, Note_on_c, 0, 53, 104
1, 68838, Note_off_c, 0, 53, 104
1, 68850, Note_on_c, 0, 55, 105
1, 68900, Note_off_c, 0, 55, 105
1, 68900, Note_on_c, 0, 57, 104
1, 69024, Note_off_c, 0, 57, 104
1, 69180, Note_on_c, 0, 45, 107
1, 69279, Note_off_c, 0, 45, 107
1, 69279, Note_on_c, 0, 50, 100
1, 69340, Note_off_c, 0, 50, 100
1, 69347, Note_on_c, 0, 53, 105
1, 69419, Note_off_c, 0, 53, 105
1, 69429, Note_on_c, 0, 56, 104
1, 69504, Note_off_c, 0, 56, 104
1, 69504, Note_on_c, 0, 57, 104
1, 69628, Note_off_c, 0, 57, 104
1, 69754, Note_on_c, 0, 45, 102
1, 69856, Note_off_c, 0, 45, 102
1, 69856, Note_on_c, 0, 50, 101
1, 69913, Note_off_c, 0, 50, 101
1, 69920, Note_on_c, 0, 53, 103
1, 69981, Note_off_c, 0, 53, 103
1, 69990, Note_on_c, 0, 55, 107
1, 70074, Note_off_c, 0, 55, 107
1, 70084, Note_on_c, 0, 57, 106
1, 70195, Note_off_c, 0, 57, 106
1, 71094, Note_on_c, 0, 57, 98
1, 71173, Note_off_c, 0, 57, 98
1, 71182, Note_on_c, 0, 58, 95
1, 71272, Note_off_c, 0, 58, 95
1, 71277, Note_on_c, 0, 60, 102
1, 71356, Note_off_c, 0, 60, 102
1, 71368, Note_on_c, 0, 61, 102
1, 71443, Note_off_c, 0, 61, 102
1, 71443, Note_on_c, 0, 63, 97
1, 71520, Note_off_c, 0, 63, 97
1, 71520, Note_on_c, 0, 64, 112
1, 71655, Note_off_c, 0, 64, 112
1, 71655, Note_on_c, 0, 68, 113
1, 71748, Note_off_c, 0, 68, 113
1, 71748, Note_on_c, 0, 66, 101
1, 71802, Note_off_c, 0, 66, 101
1, 71830, Note_on_c, 0, 64, 114
1, 71905, Note_off_c, 0, 64, 114
1, 71915, Note_on_c, 0, 63, 113
1, 72021, Note_off_c, 0, 63, 113
1, 72030, Note_on_c, 0, 61, 104
1, 72093, Note_off_c, 0, 61, 104
1, 72102, Note_on_c, 0, 60, 99
1, 72195, Note_off_c, 0, 60, 99
1, 72196, Note_on_c, 0, 58, 100
1, 72273, Note_off_c, 0, 58, 100
1, 72301, Note_on_c, 0, 55, 96
1, 72418, Note_off_c, 0, 55, 96
1, 72455, Note_on_c, 0, 57, 105
1, 72541, Note_off_c, 0, 57, 105
1, 72555, Note_on_c, 0, 48, 107
1, 72637, Note_off_c, 0, 48, 107
1, 72647, Note_on_c, 0, 50, 103
1, 72737, Note_off_c, 0, 50, 103
1, 72744, Note_on_c, 0, 52, 100
1, 72841, Note_off_c, 0, 52, 100
1, 72860, Note_on_c, 0, 55, 107
1, 72960, Note_off_c, 0, 55, 107
1, 72960, Note_on_c, 0, 52, 105
1, 73039, Note_off_c, 0, 52, 105
1, 73044, Note_on_c, 0, 54, 100
1, 73135, Note_off_c, 0, 54, 100
1, 73335, Note_on_c, 0, 63, 117
1, 73414, Note_off_c, 0, 63, 117
1, 73417, Note_on_c, 0, 62, 112
1, 73530, Note_off_c, 0, 62, 112
1, 73535, Note_on_c, 0, 60, 103
1, 73614, Note_off_c, 0, 60, 103
1, 73617, Note_on_c, 0, 58, 98
1, 73696, Note_off_c, 0, 58, 98
1, 73960, Note_on_c, 0, 55, 108
1, 73999, Note_off_c, 0, 55, 108
1, 74002, Note_on_c, 0, 57, 106
1, 74066, Note_off_c, 0, 57, 106
1, 74066, Note_on_c, 0, 55, 102
1, 74121, Note_off_c, 0, 55, 102
1, 74139, Note_on_c, 0, 53, 104
1, 74243, Note_off_c, 0, 53, 104
1, 74275, Note_on_c, 0, 50, 90
1, 74361, Note_off_c, 0, 50, 90
1, 74362, Note_on_c, 0, 52, 102
1, 74464, Note_off_c, 0, 52, 102
1, 74492, Note_on_c, 0, 55, 100
1, 74564, Note_off_c, 0, 55, 100
1, 74565, Note_on_c, 0, 58, 92
1, 74617, Note_off_c, 0, 58, 92
1, 74617, Note_on_c, 0, 61, 107
1, 74699, Note_off_c, 0, 61, 107
1, 74706, Note_on_c, 0, 60, 107
1, 74801, Note_off_c, 0, 60, 107
1, 74822, Note_on_c, 0, 58, 107
1, 74901, Note_off_c, 0, 58, 107
1, 74901, Note_on_c, 0, 55, 102
1, 75065, Note_off_c, 0, 55, 102
1, 75083, Note_on_c, 0, 57, 107
1, 75162, Note_off_c, 0, 57, 107
1, 75378, Note_on_c, 0, 55, 104
1, 75460, Note_off_c, 0, 55, 104
1, 75467, Note_on_c, 0, 54, 103
1, 75589, Note_off_c, 0, 54, 103
1, 75589, Note_on_c, 0, 57, 100
1, 75648, Note_off_c, 0, 57, 100
1, 75651, Note_on_c, 0, 60, 103
1, 75719, Note_off_c, 0, 60, 103
1, 75747, Note_on_c, 0, 62, 112
1, 75856, Note_off_c, 0, 62, 112
1, 75861, Note_on_c, 0, 63, 112
1, 75978, Note_off_c, 0, 63, 112
1, 75983, Note_on_c, 0, 65, 112
1, 76074, Note_off_c, 0, 65, 112
1, 76147, Note_on_c, 0, 65, 113
1, 76233, Note_off_c, 0, 65, 113
1, 76350, Note_on_c, 0, 65, 117
1, 76450, Note_off_c, 0, 65, 117
1, 76527, Note_on_c, 0, 65, 116
1, 76622, Note_off_c, 0, 65, 116
1, 76695, Note_on_c, 0, 65, 115
1, 76785, Note_off_c, 0, 65, 115
1, 76885, Note_on_c, 0, 65, 112
1, 76978, Note_off_c, 0, 65, 112
1, 77064, Note_on_c, 0, 65, 112
1, 77163, Note_off_c, 0, 65, 112
1, 77168, Note_on_c, 0, 63, 109
1, 77267, Note_off_c, 0, 63, 109
1, 77281, Note_on_c, 0, 60, 88
1, 77340, Note_off_c, 0, 60, 88
1, 77347, Note_on_c, 0, 63, 107
1, 77455, Note_off_c, 0, 63, 107
1, 77465, Note_on_c, 0, 65, 106
1, 77537, Note_off_c, 0, 65, 106
1, 77641, Note_on_c, 0, 65, 110
1, 77740, Note_off_c, 0, 65, 110
1, 77831, Note_on_c, 0, 65, 110
1, 77908, Note_off_c, 0, 65, 110
1, 78028, Note_on_c, 0, 65, 108
1, 78100, Note_off_c, 0, 65, 108
1, 78264, Note_on_c, 0, 65, 107
1, 78336, Note_off_c, 0, 65, 107
1, 78406, Note_on_c, 0, 65, 101
1, 78472, Note_off_c, 0, 65, 101
1, 78515, Note_on_c, 0, 70, 108
1, 78599, Note_off_c, 0, 70, 108
1, 78604, Note_on_c, 0, 68, 107
1, 78685, Note_off_c, 0, 68, 107
1, 78712, Note_on_c, 0, 66, 109
1, 78798, Note_off_c, 0, 66, 109
1, 78812, Note_on_c, 0, 63, 99
1, 78864, Note_off_c, 0, 63, 99
1, 78874, Note_on_c, 0, 66, 106
1, 79018, Note_off_c, 0, 66, 106
1, 80041, Note_on_c, 0, 71, 111
1, 80096, Note_off_c, 0, 71, 111
1, 80096, Note_on_c, 0, 72, 113
1, 80780, Note_off_c, 0, 72, 113
1, 81135, Note_on_c, 0, 72, 109
1, 81226, Note_off_c, 0, 72, 109
1, 81238, Note_on_c, 0, 73, 94
1, 81279, Note_off_c, 0, 73, 94
1, 81291, Note_on_c, 0, 74, 110
1, 81514, Note_off_c, 0, 74, 110
1, 81517, Note_on_c, 0, 75, 86
1, 81693, Note_off_c, 0, 75, 86
1, 82644, Note_on_c, 0, 72, 117
1, 82752, Note_off_c, 0, 72, 117
1, 82771, Note_on_c, 0, 72, 114
1, 82898, Note_off_c, 0, 72, 114
1, 83846, Note_on_c, 0, 60, 103
1, 83919, Note_off_c, 0, 60, 103
1, 84106, Note_on_c, 0, 67, 93
1, 84170, Note_off_c, 0, 67, 93
1, 84170, Note_on_c, 0, 70, 111
1, 84233, Note_off_c, 0, 70, 111
1, 84236, Note_on_c, 0, 71, 116
1, 84281, Note_off_c, 0, 71, 116
1, 84290, Note_on_c, 0, 70, 114
1, 84367, Note_off_c, 0, 70, 114
1, 84379, Note_on_c, 0, 68, 111
1, 84454, Note_off_c, 0, 68, 111
1, 84497, Note_on_c, 0, 66, 113
1, 84569, Note_off_c, 0, 66, 113
1, 84588, Note_on_c, 0, 65, 112
1, 84651, Note_off_c, 0, 65, 112
1, 84652, Note_on_c, 0, 63, 110
1, 84763, Note_off_c, 0, 63, 110
1, 84763, Note_on_c, 0, 61, 106
1, 84849, Note_on_c, 0, 60, 105
1, 84849, Note_off_c, 0, 61, 106
1, 84924, Note_off_c, 0, 60, 105
1, 84927, Note_on_c, 0, 59, 108
1, 85031, Note_off_c, 0, 59, 108
1, 85049, Note_on_c, 0, 58, 103
1, 85137, Note_off_c, 0, 58, 103
1, 85146, Note_on_c, 0, 56, 104
1, 85218, Note_off_c, 0, 56, 104
1, 85221, Note_on_c, 0, 54, 101
1, 85293, Note_off_c, 0, 54, 101
1, 85316, Note_on_c, 0, 53, 109
1, 85418, Note_off_c, 0, 53, 109
1, 85425, Note_on_c, 0, 51, 109
1, 85495, Note_off_c, 0, 51, 109
1, 85509, Note_on_c, 0, 49, 103
1, 85566, Note_off_c, 0, 49, 103
1, 85593, Note_on_c, 0, 48, 102
1, 85672, Note_off_c, 0, 48, 102
1, 85684, Note_on_c, 0, 47, 94
1, 85813, Note_off_c, 0, 47, 94
1, 86027, Note_on_c, 0, 55, 90
1, 86064, Note_off_c, 0, 55, 90
1, 86080, Note_on_c, 0, 58, 96
1, 86200, Note_off_c, 0, 58, 96
1, 86201, Note_on_c, 0, 55, 97
1, 86271, Note_off_c, 0, 55, 97
1, 86280, Note_on_c, 0, 56, 95
1, 86355, Note_off_c, 0, 56, 95
1, 86364, Note_on_c, 0, 58, 100
1, 86450, Note_off_c, 0, 58, 100
1, 86466, Note_on_c, 0, 59, 98
1, 86541, Note_off_c, 0, 59, 98
1, 86542, Note_on_c, 0, 61, 100
1, 86624, Note_off_c, 0, 61, 100
1, 86627, Note_on_c, 0, 62, 103
1, 86699, Note_off_c, 0, 62, 103
1, 86733, Note_on_c, 0, 65, 108
1, 86776, Note_off_c, 0, 65, 108
1, 86797, Note_on_c, 0, 62, 110
1, 86919, Note_off_c, 0, 62, 110
1, 86935, Note_on_c, 0, 64, 99
1, 87001, Note_off_c, 0, 64, 99
1, 87029, Note_on_c, 0, 66, 89
1, 87092, Note_off_c, 0, 66, 89
1, 87092, Note_on_c, 0, 68, 112
1, 87155, Note_off_c, 0, 68, 112
1, 87164, Note_on_c, 0, 61, 106
1, 87286, Note_off_c, 0, 61, 106
1, 87286, Note_on_c, 0, 63, 96
1, 87322, Note_off_c, 0, 63, 96
1, 87336, Note_on_c, 0, 64, 106
1, 87433, Note_off_c, 0, 64, 106
1, 87433, Note_on_c, 0, 66, 103
1, 87519, Note_off_c, 0, 66, 103
1, 87583, Note_on_c, 0, 59, 97
1, 87633, Note_off_c, 0, 59, 97
1, 87633, Note_on_c, 0, 60, 97
1, 87694, Note_off_c, 0, 60, 97
1, 87694, Note_on_c, 0, 64, 98
1, 87798, Note_off_c, 0, 64, 98
1, 87798, Note_on_c, 0, 67, 112
1, 87855, Note_off_c, 0, 67, 112
1, 87862, Note_on_c, 0, 64, 104
1, 87957, Note_off_c, 0, 64, 104
1, 88023, Note_on_c, 0, 66, 100
1, 88132, Note_off_c, 0, 66, 100
1, 89060, Note_on_c, 0, 60, 106
1, 89123, Note_off_c, 0, 60, 106
1, 89205, Note_on_c, 0, 66, 117
1, 89316, Note_off_c, 0, 66, 117
1, 89316, Note_on_c, 0, 63, 114
1, 89382, Note_off_c, 0, 63, 114
1, 89391, Note_on_c, 0, 65, 114
1, 89495, Note_off_c, 0, 65, 114
1, 89502, Note_on_c, 0, 63, 116
1, 89590, Note_off_c, 0, 63, 116
1, 89590, Note_on_c, 0, 61, 106
1, 89716, Note_off_c, 0, 61, 106
1, 89730, Note_on_c, 0, 58, 93
1, 89771, Note_on_c, 0, 63, 112
1, 89771, Note_off_c, 0, 58, 93
1, 89895, Note_off_c, 0, 63, 112
1, 89895, Note_on_c, 0, 61, 107
1, 89979, Note_off_c, 0, 61, 107
1, 91383, Note_on_c, 0, 61, 107
1, 91440, Note_off_c, 0, 61, 107
1, 91450, Note_on_c, 0, 62, 98
1, 91632, Note_off_c, 0, 62, 98
1, 91639, Note_on_c, 0, 72, 111
1, 91698, Note_off_c, 0, 72, 111
1, 91714, Note_on_c, 0, 69, 115
1, 91784, Note_off_c, 0, 69, 115
1, 91793, Note_on_c, 0, 65, 108
1, 91839, Note_off_c, 0, 65, 108
1, 91839, Note_on_c, 0, 62, 115
1, 91911, Note_off_c, 0, 62, 115
1, 91911, Note_on_c, 0, 63, 112
1, 91965, Note_off_c, 0, 63, 112
1, 91984, Note_on_c, 0, 62, 114
1, 92041, Note_off_c, 0, 62, 114
1, 92057, Note_on_c, 0, 72, 108
1, 92120, Note_off_c, 0, 72, 108
1, 92127, Note_on_c, 0, 69, 115
1, 92184, Note_off_c, 0, 69, 115
1, 92191, Note_on_c, 0, 65, 108
1, 92246, Note_off_c, 0, 65, 108
1, 92246, Note_on_c, 0, 62, 113
1, 92316, Note_off_c, 0, 62, 113
1, 92316, Note_on_c, 0, 63, 107
1, 92371, Note_off_c, 0, 63, 107
1, 92376, Note_on_c, 0, 62, 107
1, 92415, Note_off_c, 0, 62, 107
1, 92415, Note_on_c, 0, 72, 111
1, 92476, Note_off_c, 0, 72, 111
1, 92483, Note_on_c, 0, 69, 113
1, 92538, Note_off_c, 0, 69, 113
1, 92545, Note_on_c, 0, 65, 111
1, 92584, Note_off_c, 0, 65, 111
1, 92584, Note_on_c, 0, 62, 111
1, 92632, Note_off_c, 0, 62, 111
1, 92642, Note_on_c, 0, 63, 112
1, 92688, Note_off_c, 0, 63, 112
1, 92695, Note_on_c, 0, 62, 102
1, 92759, Note_off_c, 0, 62, 102
1, 92771, Note_on_c, 0, 72, 103
1, 92832, Note_off_c, 0, 72, 103
1, 92832, Note_on_c, 0, 69, 113
1, 92878, Note_off_c, 0, 69, 113
1, 92878, Note_on_c, 0, 65, 109
1, 92919, Note_off_c, 0, 65, 109
1, 92919, Note_on_c, 0, 62, 111
1, 92983, Note_off_c, 0, 62, 111
1, 92986, Note_on_c, 0, 63, 109
1, 93034, Note_off_c, 0, 63, 109
1, 93037, Note_on_c, 0, 62, 109
1, 93101, Note_off_c, 0, 62, 109
1, 93104, Note_on_c, 0, 63, 108
1, 93159, Note_off_c, 0, 63, 108
1, 93159, Note_on_c, 0, 62, 111
1, 93214, Note_on_c, 0, 63, 111
1, 93214, Note_off_c, 0, 62, 111
1, 93271, Note_off_c, 0, 63, 111
1, 93289, Note_on_c, 0, 72, 108
1, 93348, Note_off_c, 0, 72, 108
1, 93369, Note_on_c, 0, 69, 118
1, 93414, Note_off_c, 0, 69, 118
1, 93414, Note_on_c, 0, 65, 117
1, 93455, Note_off_c, 0, 65, 117
1, 93467, Note_on_c, 0, 62, 110
1, 93515, Note_off_c, 0, 62, 110
1, 93522, Note_on_c, 0, 63, 109
1, 93565, Note_off_c, 0, 63, 109
1, 93570, Note_on_c, 0, 62, 114
1, 93640, Note_off_c, 0, 62, 114
1, 93647, Note_on_c, 0, 72, 110
1, 93715, Note_off_c, 0, 72, 110
1, 93716, Note_on_c, 0, 69, 112
1, 93770, Note_off_c, 0, 69, 112
1, 93786, Note_on_c, 0, 65, 106
1, 93816, Note_off_c, 0, 65, 106
1, 93817, Note_on_c, 0, 62, 104
1, 93865, Note_off_c, 0, 62, 104
1, 93874, Note_on_c, 0, 65, 102
1, 93913, Note_off_c, 0, 65, 102
1, 93922, Note_on_c, 0, 72, 112
1, 93974, Note_off_c, 0, 72, 112
1, 93975, Note_on_c, 0, 69, 112
1, 94038, Note_off_c, 0, 69, 112
1, 94057, Note_on_c, 0, 65, 103
1, 94093, Note_off_c, 0, 65, 103
1, 94093, Note_on_c, 0, 62, 112
1, 94138, Note_off_c, 0, 62, 112
1, 94138, Note_on_c, 0, 65, 105
1, 94190, Note_off_c, 0, 65, 105
1, 94200, Note_on_c, 0, 72, 112
1, 94246, Note_off_c, 0, 72, 112
1, 94258, Note_on_c, 0, 69, 114
1, 94306, Note_off_c, 0, 69, 114
1, 94316, Note_on_c, 0, 65, 116
1, 94359, Note_off_c, 0, 65, 116
1, 94362, Note_on_c, 0, 62, 114
1, 94396, Note_off_c, 0, 62, 114
1, 94403, Note_on_c, 0, 63, 114
1, 94435, Note_off_c, 0, 63, 114
1, 94447, Note_on_c, 0, 62, 109
1, 94526, Note_off_c, 0, 62, 109
1, 94542, Note_on_c, 0, 72, 105
1, 94596, Note_off_c, 0, 72, 105
1, 94624, Note_on_c, 0, 69, 112
1, 94687, Note_off_c, 0, 69, 112
1, 94690, Note_on_c, 0, 65, 103
1, 94727, Note_off_c, 0, 65, 103
1, 94727, Note_on_c, 0, 62, 111
1, 94770, Note_off_c, 0, 62, 111
1, 94773, Note_on_c, 0, 63, 110
1, 94821, Note_off_c, 0, 63, 110
1, 94824, Note_on_c, 0, 62, 112
1, 94903, Note_off_c, 0, 62, 112
1, 94912, Note_on_c, 0, 72, 113
1, 94960, Note_off_c, 0, 72, 113
1, 94967, Note_on_c, 0, 69, 119
1, 95022, Note_off_c, 0, 69, 119
1, 95036, Note_on_c, 0, 65, 116
1, 95072, Note_on_c, 0, 62, 112
1, 95072, Note_off_c, 0, 65, 116
1, 95118, Note_off_c, 0, 62, 112
1, 95132, Note_on_c, 0, 63, 113
1, 95186, Note_off_c, 0, 63, 113
1, 95189, Note_on_c, 0, 62, 112
1, 95244, Note_off_c, 0, 62, 112
1, 95254, Note_on_c, 0, 63, 109
1, 95293, Note_off_c, 0, 63, 109
1, 95302, Note_on_c, 0, 62, 113
1, 95381, Note_off_c, 0, 62, 113
1, 95384, Note_on_c, 0, 63, 112
1, 95436, Note_off_c, 0, 63, 112
1, 95439, Note_on_c, 0, 62, 107
1, 95516, Note_off_c, 0, 62, 107
1, 95521, Note_on_c, 0, 72, 105
1, 95575, Note_off_c, 0, 72, 105
1, 95591, Note_on_c, 0, 69, 111
1, 95641, Note_off_c, 0, 69, 111
1, 95666, Note_on_c, 0, 65, 109
1, 95703, Note_off_c, 0, 65, 109
1, 95703, Note_on_c, 0, 62, 111
1, 95758, Note_off_c, 0, 62, 111
1, 95765, Note_on_c, 0, 63, 109
1, 95833, Note_off_c, 0, 63, 109
1, 95834, Note_on_c, 0, 72, 107
1, 95889, Note_off_c, 0, 72, 107
1, 95899, Note_on_c, 0, 69, 111
1, 95958, Note_off_c, 0, 69, 111
1, 95958, Note_on_c, 0, 65, 104
1, 96008, Note_off_c, 0, 65, 104
1, 96008, Note_on_c, 0, 62, 110
1, 96056, Note_off_c, 0, 62, 110
1, 96056, Note_on_c, 0, 63, 105
1, 96122, Note_off_c, 0, 63, 105
1, 96132, Note_on_c, 0, 72, 110
1, 96180, Note_off_c, 0, 72, 110
1, 96196, Note_on_c, 0, 69, 112
1, 96253, Note_off_c, 0, 69, 112
1, 96271, Note_on_c, 0, 65, 110
1, 96299, Note_off_c, 0, 65, 110
1, 96299, Note_on_c, 0, 62, 111
1, 96345, Note_off_c, 0, 62, 111
1, 96354, Note_on_c, 0, 63, 103
1, 96409, Note_off_c, 0, 63, 103
1, 96409, Note_on_c, 0, 72, 112
1, 96464, Note_off_c, 0, 72, 112
1, 96476, Note_on_c, 0, 69, 113
1, 96526, Note_off_c, 0, 69, 113
1, 96533, Note_on_c, 0, 65, 111
1, 96561, Note_off_c, 0, 65, 111
1, 96568, Note_on_c, 0, 62, 106
1, 96625, Note_off_c, 0, 62, 106
1, 96625, Note_on_c, 0, 65, 104
1, 96644, Note_off_c, 0, 65, 104
1, 96667, Note_on_c, 0, 72, 110
1, 96715, Note_off_c, 0, 72, 110
1, 96729, Note_on_c, 0, 69, 110
1, 96786, Note_off_c, 0, 69, 110
1, 96786, Note_on_c, 0, 65, 102
1, 96816, Note_off_c, 0, 65, 102
1, 96817, Note_on_c, 0, 62, 105
1, 96865, Note_off_c, 0, 62, 105
1, 96865, Note_on_c, 0, 63, 111
1, 96926, Note_off_c, 0, 63, 111
1, 96952, Note_on_c, 0, 72, 100
1, 97006, Note_off_c, 0, 72, 100
1, 97015, Note_on_c, 0, 69, 98
1, 97054, Note_off_c, 0, 69, 98
1, 97060, Note_on_c, 0, 65, 100
1, 97101, Note_off_c, 0, 65, 100
1, 97108, Note_on_c, 0, 61, 102
1, 97158, Note_off_c, 0, 61, 102
1, 97179, Note_on_c, 0, 62, 106
1, 97231, Note_off_c, 0, 62, 106
1, 97231, Note_on_c, 0, 61, 106
1, 97310, Note_off_c, 0, 61, 106
1, 97315, Note_on_c, 0, 64, 110
1, 97354, Note_off_c, 0, 64, 110
1, 97373, Note_on_c, 0, 72, 111
1, 97427, Note_off_c, 0, 72, 111
1, 97446, Note_on_c, 0, 68, 108
1, 97505, Note_off_c, 0, 68, 108
1, 97517, Note_on_c, 0, 64, 100
1, 97549, Note_off_c, 0, 64, 100
1, 97549, Note_on_c, 0, 62, 108
1, 97606, Note_off_c, 0, 62, 108
1, 97620, Note_on_c, 0, 63, 111
1, 97656, Note_off_c, 0, 63, 111
1, 97668, Note_on_c, 0, 62, 113
1, 97725, Note_off_c, 0, 62, 113
1, 97732, Note_on_c, 0, 72, 110
1, 97789, Note_off_c, 0, 72, 110
1, 97799, Note_on_c, 0, 68, 108
1, 97863, Note_off_c, 0, 68, 108
1, 97863, Note_on_c, 0, 65, 102
1, 97917, Note_off_c, 0, 65, 102
1, 97924, Note_on_c, 0, 60, 109
1, 97965, Note_off_c, 0, 60, 109
1, 97974, Note_on_c, 0, 61, 107
1, 98017, Note_off_c, 0, 61, 107
1, 98036, Note_on_c, 0, 60, 100
1, 98072, Note_off_c, 0, 60, 100
1, 98084, Note_on_c, 0, 61, 99
1, 98120, Note_off_c, 0, 61, 99
1, 98129, Note_on_c, 0, 60, 102
1, 98161, Note_off_c, 0, 60, 102
1, 98175, Note_on_c, 0, 61, 102
1, 98218, Note_off_c, 0, 61, 102
1, 98237, Note_on_c, 0, 60, 99
1, 98289, Note_off_c, 0, 60, 99
1, 98299, Note_on_c, 0, 61, 98
1, 98335, Note_off_c, 0, 61, 98
1, 98344, Note_on_c, 0, 60, 102
1, 98448, Note_off_c, 0, 60, 102
1, 98467, Note_on_c, 0, 61, 104
1, 98539, Note_off_c, 0, 61, 104
1, 98549, Note_on_c, 0, 60, 94
1, 98617, Note_off_c, 0, 60, 94
1, 98617, Note_on_c, 0, 58, 96
1, 98671, Note_off_c, 0, 58, 96
1, 98678, Note_on_c, 0, 55, 100
1, 98712, Note_off_c, 0, 55, 100
1, 98712, Note_on_c, 0, 64, 116
1, 98827, Note_off_c, 0, 64, 116
1, 98832, Note_on_c, 0, 65, 107
1, 98918, Note_off_c, 0, 65, 107
1, 98930, Note_on_c, 0, 62, 83
1, 98975, Note_off_c, 0, 62, 83
1, 98994, Note_on_c, 0, 64, 106
1, 99067, Note_off_c, 0, 64, 106
1, 99068, Note_on_c, 0, 65, 113
1, 99212, Note_off_c, 0, 65, 113
1, 99226, Note_on_c, 0, 62, 92
1, 99278, Note_off_c, 0, 62, 92
1, 99288, Note_on_c, 0, 64, 109
1, 99378, Note_off_c, 0, 64, 109
1, 99387, Note_on_c, 0, 65, 105
1, 99531, Note_off_c, 0, 65, 105
1, 100113, Note_on_c, 0, 55, 102
1, 100168, Note_off_c, 0, 55, 102
1, 100175, Note_on_c, 0, 57, 98
1, 100218, Note_off_c, 0, 57, 98
1, 100245, Note_on_c, 0, 64, 115
1, 100362, Note_off_c, 0, 64, 115
1, 100425, Note_on_c, 0, 65, 113
1, 100576, Note_off_c, 0, 65, 113
1, 100603, Note_on_c, 0, 63, 113
1, 100736, Note_off_c, 0, 63, 113
1, 100752, Note_on_c, 0, 65, 110
1, 100831, Note_off_c, 0, 65, 110
1, 100899, Note_on_c, 0, 64, 118
1, 101005, Note_off_c, 0, 64, 118
1, 101078, Note_on_c, 0, 65, 114
1, 101186, Note_off_c, 0, 65, 114
1, 101243, Note_on_c, 0, 56, 98
1, 101295, Note_off_c, 0, 56, 98
1, 101302, Note_on_c, 0, 59, 87
1, 101345, Note_off_c, 0, 59, 87
1, 101377, Note_on_c, 0, 63, 110
1, 101506, Note_off_c, 0, 63, 110
1, 101545, Note_on_c, 0, 65, 109
1, 101660, Note_off_c, 0, 65, 109
1, 101667, Note_on_c, 0, 61, 91
1, 101703, Note_off_c, 0, 61, 91
1, 101715, Note_on_c, 0, 64, 119
1, 101839, Note_off_c, 0, 64, 119
1, 101893, Note_on_c, 0, 65, 114
1, 101959, Note_off_c, 0, 65, 114
1, 102040, Note_on_c, 0, 63, 107
1, 102149, Note_off_c, 0, 63, 107
1, 102213, Note_on_c, 0, 65, 108
1, 102285, Note_off_c, 0, 65, 108
1, 102396, Note_on_c, 0, 64, 117
1, 102518, Note_off_c, 0, 64, 117
1, 102581, Note_on_c, 0, 65, 109
1, 102692, Note_off_c, 0, 65, 109
1, 102863, Note_on_c, 0, 63, 112
1, 102972, Note_off_c, 0, 63, 112
1, 103053, Note_on_c, 0, 65, 109
1, 103173, Note_off_c, 0, 65, 109
1, 103255, Note_on_c, 0, 68, 118
1, 103354, Note_off_c, 0, 68, 118
1, 103404, Note_on_c, 0, 69, 111
1, 103465, Note_off_c, 0, 69, 111
1, 103560, Note_on_c, 0, 65, 115
1, 103664, Note_off_c, 0, 65, 115
1, 103727, Note_on_c, 0, 60, 96
1, 103791, Note_off_c, 0, 60, 96
1, 103798, Note_on_c, 0, 63, 110
1, 103934, Note_off_c, 0, 63, 110
1, 103952, Note_on_c, 0, 65, 111
1, 104025, Note_off_c, 0, 65, 111
1, 104374, Note_on_c, 0, 67, 112
1, 104518, Note_off_c, 0, 67, 112
1, 104518, Note_on_c, 0, 68, 108
1, 104586, Note_off_c, 0, 68, 108
1, 104596, Note_on_c, 0, 65, 105
1, 104689, Note_off_c, 0, 65, 105
1, 104708, Note_on_c, 0, 60, 92
1, 104749, Note_off_c, 0, 60, 92
1, 104772, Note_on_c, 0, 63, 109
1, 104880, Note_off_c, 0, 63, 109
1, 104923, Note_on_c, 0, 65, 109
1, 104998, Note_off_c, 0, 65, 109
1, 105082, Note_on_c, 0, 67, 113
1, 105164, Note_off_c, 0, 67, 113
1, 105279, Note_on_c, 0, 68, 9
1, 105358, Note_off_c, 0, 68, 9
1, 105365, Note_on_c, 0, 65, 110
1, 105428, Note_off_c, 0, 65, 110
1, 105433, Note_on_c, 0, 61, 111
1, 105512, Note_off_c, 0, 61, 111
1, 105546, Note_on_c, 0, 63, 116
1, 105596, Note_off_c, 0, 63, 116
1, 105605, Note_on_c, 0, 65, 107
1, 105671, Note_off_c, 0, 65, 107
1, 105698, Note_on_c, 0, 68, 112
1, 105782, Note_off_c, 0, 68, 112
1, 105805, Note_on_c, 0, 69, 115
1, 105842, Note_off_c, 0, 69, 115
1, 105856, Note_on_c, 0, 69, 108
1, 105899, Note_off_c, 0, 69, 108
1, 105917, Note_on_c, 0, 66, 109
1, 106007, Note_off_c, 0, 66, 109
1, 106008, Note_on_c, 0, 61, 99
1, 106063, Note_off_c, 0, 61, 99
1, 106958, Note_on_c, 0, 64, 111
1, 107044, Note_off_c, 0, 64, 111
1, 107056, Note_on_c, 0, 67, 120
1, 107146, Note_off_c, 0, 67, 120
1, 107169, Note_on_c, 0, 68, 119
1, 107248, Note_off_c, 0, 68, 119
1, 107251, Note_on_c, 0, 65, 114
1, 107339, Note_off_c, 0, 65, 114
1, 107339, Note_on_c, 0, 61, 101
1, 107421, Note_off_c, 0, 61, 101
1, 107435, Note_on_c, 0, 65, 116
1, 107467, Note_off_c, 0, 65, 116
1, 107483, Note_on_c, 0, 66, 112
1, 107544, Note_off_c, 0, 66, 112
1, 107571, Note_on_c, 0, 67, 114
1, 107634, Note_off_c, 0, 67, 114
1, 107637, Note_on_c, 0, 64, 120
1, 107705, Note_off_c, 0, 64, 120
1, 107724, Note_on_c, 0, 63, 111
1, 107806, Note_off_c, 0, 63, 111
1, 107818, Note_on_c, 0, 64, 122
1, 107900, Note_off_c, 0, 64, 122
1, 107934, Note_on_c, 0, 67, 105
1, 108011, Note_off_c, 0, 67, 105
1, 108011, Note_on_c, 0, 62, 114
1, 108131, Note_on_c, 0, 59, 100
1, 108131, Note_off_c, 0, 62, 114
1, 108179, Note_off_c, 0, 59, 100
1, 108184, Note_on_c, 0, 63, 116
1, 108274, Note_off_c, 0, 63, 116
1, 108290, Note_on_c, 0, 64, 113
1, 108374, Note_off_c, 0, 64, 113
1, 108381, Note_on_c, 0, 61, 107
1, 108507, Note_off_c, 0, 61, 107
1, 108562, Note_on_c, 0, 61, 110
1, 108650, Note_off_c, 0, 61, 110
1, 108662, Note_on_c, 0, 62, 106
1, 108766, Note_off_c, 0, 62, 106
1, 108771, Note_on_c, 0, 59, 103
1, 108855, Note_off_c, 0, 59, 103
1, 108936, Note_on_c, 0, 59, 104
1, 109020, Note_off_c, 0, 59, 104
1, 109043, Note_on_c, 0, 60, 109
1, 109120, Note_off_c, 0, 60, 109
1, 109125, Note_on_c, 0, 57, 108
1, 109213, Note_off_c, 0, 57, 108
1, 109297, Note_on_c, 0, 57, 112
1, 109390, Note_off_c, 0, 57, 112
1, 109431, Note_on_c, 0, 58, 103
1, 109503, Note_off_c, 0, 58, 103
1, 109530, Note_on_c, 0, 55, 104
1, 109591, Note_off_c, 0, 55, 104
1, 109610, Note_on_c, 0, 51, 100
1, 109658, Note_off_c, 0, 51, 100
1, 109679, Note_on_c, 0, 55, 112
1, 109788, Note_off_c, 0, 55, 112
1, 109807, Note_on_c, 0, 57, 104
1, 109868, Note_off_c, 0, 57, 104
1, 109897, Note_on_c, 0, 53, 107
1, 109943, Note_off_c, 0, 53, 107
1, 109953, Note_on_c, 0, 50, 109
1, 110044, Note_off_c, 0, 50, 109
1, 110056, Note_on_c, 0, 54, 110
1, 110163, Note_off_c, 0, 54, 110
1, 110174, Note_on_c, 0, 55, 107
1, 110226, Note_off_c, 0, 55, 107
1, 110249, Note_on_c, 0, 52, 110
1, 110333, Note_off_c, 0, 52, 110
1, 110356, Note_on_c, 0, 49, 107
1, 110421, Note_off_c, 0, 49, 107
1, 110426, Note_on_c, 0, 48, 108
1, 110529, Note_off_c, 0, 48, 108
1, 110941, Note_on_c, 0, 48, 116
1, 111037, Note_off_c, 0, 48, 116
1, 111093, Note_on_c, 0, 55, 114
1, 111171, Note_off_c, 0, 55, 114
1, 111188, Note_on_c, 0, 53, 112
1, 111248, Note_off_c, 0, 53, 112
1, 111254, Note_on_c, 0, 52, 105
1, 111325, Note_off_c, 0, 52, 105
1, 111358, Note_on_c, 0, 53, 110
1, 111425, Note_off_c, 0, 53, 110
1, 111449, Note_on_c, 0, 55, 103
1, 111507, Note_off_c, 0, 55, 103
1, 111530, Note_on_c, 0, 57, 115
1, 111609, Note_off_c, 0, 57, 115
1, 111630, Note_on_c, 0, 58, 104
1, 111700, Note_off_c, 0, 58, 104
1, 111716, Note_on_c, 0, 60, 109
1, 111800, Note_off_c, 0, 60, 109
1, 111807, Note_on_c, 0, 62, 119
1, 111899, Note_off_c, 0, 62, 119
1, 111901, Note_on_c, 0, 63, 116
1, 111984, Note_off_c, 0, 63, 116
1, 112007, Note_on_c, 0, 65, 104
1, 112074, Note_off_c, 0, 65, 104
1, 112074, Note_on_c, 0, 67, 115
1, 112177, Note_off_c, 0, 67, 115
1, 112196, Note_on_c, 0, 63, 110
1, 112256, Note_off_c, 0, 63, 110
1, 112266, Note_on_c, 0, 65, 114
1, 112372, Note_on_c, 0, 67, 100
1, 112372, Note_off_c, 0, 65, 114
1, 112448, Note_off_c, 0, 67, 100
1, 112462, Note_on_c, 0, 69, 115
1, 112560, Note_off_c, 0, 69, 115
1, 112581, Note_on_c, 0, 65, 108
1, 112636, Note_off_c, 0, 65, 108
1, 112642, Note_on_c, 0, 67, 113
1, 112759, Note_off_c, 0, 67, 113
1, 112762, Note_on_c, 0, 65, 114
1, 112786, Note_off_c, 0, 65, 114
1, 112786, Note_on_c, 0, 63, 113
1, 112823, Note_off_c, 0, 63, 113
1, 112831, Note_on_c, 0, 60, 102
1, 112889, Note_off_c, 0, 60, 102
1, 112953, Note_on_c, 0, 65, 122
1, 113033, Note_off_c, 0, 65, 122
1, 113056, Note_on_c, 0, 63, 115
1, 113130, Note_off_c, 0, 63, 115
1, 113154, Note_on_c, 0, 60, 106
1, 113218, Note_off_c, 0, 60, 106
1, 113219, Note_on_c, 0, 58, 105
1, 113285, Note_off_c, 0, 58, 105
1, 113311, Note_on_c, 0, 56, 103
1, 113381, Note_off_c, 0, 56, 103
1, 113383, Note_on_c, 0, 62, 112
1, 113476, Note_off_c, 0, 62, 112
1, 113497, Note_on_c, 0, 61, 102
1, 113568, Note_off_c, 0, 61, 102
1, 113574, Note_on_c, 0, 60, 103
1, 113657, Note_off_c, 0, 60, 103
1, 113664, Note_on_c, 0, 59, 102
1, 113746, Note_off_c, 0, 59, 102
1, 113767, Note_on_c, 0, 58, 101
1, 113846, Note_off_c, 0, 58, 101
1, 113857, Note_on_c, 0, 60, 107
1, 113936, Note_off_c, 0, 60, 107
1, 113940, Note_on_c, 0, 62, 103
1, 113981, Note_off_c, 0, 62, 103
1, 113989, Note_on_c, 0, 65, 101
1, 114062, Note_off_c, 0, 65, 101
1, 114087, Note_on_c, 0, 69, 114
1, 114195, Note_off_c, 0, 69, 114
1, 114202, Note_on_c, 0, 73, 115
1, 114282, Note_off_c, 0, 73, 115
1, 114282, Note_on_c, 0, 71, 113
1, 114384, Note_off_c, 0, 71, 113
1, 114398, Note_on_c, 0, 69, 115
1, 114467, Note_off_c, 0, 69, 115
1, 114474, Note_on_c, 0, 68, 113
1, 114581, Note_off_c, 0, 68, 113
1, 114591, Note_on_c, 0, 66, 110
1, 114662, Note_off_c, 0, 66, 110
1, 114673, Note_on_c, 0, 64, 117
1, 114766, Note_off_c, 0, 64, 117
1, 114792, Note_on_c, 0, 61, 105
1, 114862, Note_off_c, 0, 61, 105
1, 114876, Note_on_c, 0, 59, 102
1, 114949, Note_off_c, 0, 59, 102
1, 115054, Note_on_c, 0, 62, 113
1, 115150, Note_off_c, 0, 62, 113
1, 115152, Note_on_c, 0, 66, 108
1, 115207, Note_off_c, 0, 66, 108
1, 115240, Note_on_c, 0, 65, 109
1, 115355, Note_off_c, 0, 65, 109
1, 115371, Note_on_c, 0, 61, 106
1, 115468, Note_off_c, 0, 61, 106
1, 115652, Note_on_c, 0, 63, 113
1, 115782, Note_off_c, 0, 63, 113
1, 116008, Note_on_c, 0, 63, 117
1, 116122, Note_off_c, 0, 63, 117
1, 116129, Note_on_c, 0, 65, 105
1, 116205, Note_off_c, 0, 65, 105
1, 116207, Note_on_c, 0, 67, 113
1, 116308, Note_off_c, 0, 67, 113
1, 116328, Note_on_c, 0, 63, 112
1, 116401, Note_off_c, 0, 63, 112
1, 116401, Note_on_c, 0, 65, 107
1, 116502, Note_off_c, 0, 65, 107
1, 116517, Note_on_c, 0, 61, 99
1, 116569, Note_off_c, 0, 61, 99
1, 116581, Note_on_c, 0, 58, 108
1, 116634, Note_off_c, 0, 58, 108
1, 116666, Note_on_c, 0, 60, 107
1, 116803, Note_off_c, 0, 60, 107
1, 117443, Note_on_c, 0, 72, 108
1, 117733, Note_off_c, 0, 72, 108
1, 117765, Note_on_c, 0, 69, 107
1, 117841, Note_off_c, 0, 69, 107
1, 117857, Note_on_c, 0, 70, 114
1, 117942, Note_off_c, 0, 70, 114
1, 117966, Note_on_c, 0, 65, 116
1, 118082, Note_off_c, 0, 65, 116
1, 118146, Note_on_c, 0, 65, 114
1, 118204, Note_off_c, 0, 65, 114
1, 118234, Note_on_c, 0, 70, 113
1, 118345, Note_off_c, 0, 70, 113
1, 118351, Note_on_c, 0, 68, 117
1, 118436, Note_off_c, 0, 68, 117
1, 118443, Note_on_c, 0, 65, 110
1, 118548, Note_off_c, 0, 65, 110
1, 118622, Note_on_c, 0, 68, 116
1, 118724, Note_off_c, 0, 68, 116
1, 118745, Note_on_c, 0, 65, 114
1, 118798, Note_off_c, 0, 65, 114
1, 118799, Note_on_c, 0, 61, 112
1, 118874, Note_off_c, 0, 61, 112
1, 118917, Note_on_c, 0, 60, 112
1, 118972, Note_off_c, 0, 60, 112
1, 118997, Note_on_c, 0, 65, 111
1, 119112, Note_off_c, 0, 65, 111
1, 119127, Note_on_c, 0, 61, 108
1, 119175, Note_off_c, 0, 61, 108
1, 119185, Note_on_c, 0, 58, 103
1, 119268, Note_off_c, 0, 58, 103
1, 119305, Note_on_c, 0, 55, 113
1, 119360, Note_off_c, 0, 55, 113
1, 119377, Note_on_c, 0, 53, 109
1, 119478, Note_off_c, 0, 53, 109
1, 119480, Note_on_c, 0, 51, 107
1, 119535, Note_off_c, 0, 51, 107
1, 119535, Note_on_c, 0, 46, 103
1, 119646, Note_off_c, 0, 46, 103
1, 120461, Note_on_c, 0, 45, 113
1, 120541, Note_off_c, 0, 45, 113
1, 120564, Note_on_c, 0, 47, 111
1, 120643, Note_off_c, 0, 47, 111
1, 121614, Note_on_c, 0, 48, 117
1, 121739, Note_off_c, 0, 48, 117
1, 121739, Note_on_c, 0, 50, 106
1, 121808, Note_off_c, 0, 50, 106
1, 121810, Note_on_c, 0, 52, 106
1, 121921, Note_off_c, 0, 52, 106
1, 121951, Note_on_c, 0, 55, 112
1, 122011, Note_off_c, 0, 55, 112
1, 122011, Note_on_c, 0, 53, 109
1, 122126, Note_off_c, 0, 53, 109
1, 122140, Note_on_c, 0, 55, 102
1, 122202, Note_off_c, 0, 55, 102
1, 122209, Note_on_c, 0, 57, 108
1, 122312, Note_off_c, 0, 57, 108
1, 122320, Note_on_c, 0, 53, 103
1, 122372, Note_off_c, 0, 53, 103
1, 122377, Note_on_c, 0, 58, 110
1, 122484, Note_off_c, 0, 58, 110
1, 122499, Note_on_c, 0, 60, 105
1, 122570, Note_off_c, 0, 60, 105
1, 122585, Note_on_c, 0, 62, 116
1, 122670, Note_off_c, 0, 62, 116
1, 122670, Note_on_c, 0, 65, 117
1, 122762, Note_off_c, 0, 65, 117
1, 122768, Note_on_c, 0, 63, 121
1, 122862, Note_off_c, 0, 63, 121
1, 122881, Note_on_c, 0, 65, 99
1, 122997, Note_off_c, 0, 65, 99
1, 123140, Note_on_c, 0, 72, 121
1, 123201, Note_off_c, 0, 72, 121
1, 123201, Note_on_c, 0, 73, 117
1, 123250, Note_off_c, 0, 73, 117
1, 123250, Note_on_c, 0, 74, 105
1, 123299, Note_off_c, 0, 74, 105
1, 123310, Note_on_c, 0, 73, 105
1, 123347, Note_on_c, 0, 71, 115
1, 123347, Note_off_c, 0, 73, 105
1, 123429, Note_off_c, 0, 71, 115
1, 123429, Note_on_c, 0, 69, 118
1, 123544, Note_off_c, 0, 69, 118
1, 123552, Note_on_c, 0, 68, 115
1, 123637, Note_off_c, 0, 68, 115
1, 123663, Note_on_c, 0, 66, 118
1, 123720, Note_off_c, 0, 66, 118
1, 123740, Note_on_c, 0, 64, 123
1, 123837, Note_off_c, 0, 64, 123
1, 123838, Note_on_c, 0, 63, 120
1, 123898, Note_off_c, 0, 63, 120
1, 123904, Note_on_c, 0, 62, 119
1, 124005, Note_off_c, 0, 62, 119
1, 124030, Note_on_c, 0, 61, 111
1, 124085, Note_off_c, 0, 61, 111
1, 124105, Note_on_c, 0, 59, 101
1, 124192, Note_off_c, 0, 59, 101
1, 124218, Note_on_c, 0, 62, 107
1, 124261, Note_off_c, 0, 62, 107
1, 124296, Note_on_c, 0, 64, 98
1, 124360, Note_off_c, 0, 64, 98
1, 124360, Note_on_c, 0, 69, 106
1, 124453, Note_off_c, 0, 69, 106
1, 124453, Note_on_c, 0, 66, 96
1, 124604, Note_off_c, 0, 66, 96
1, 124606, Note_on_c, 0, 67, 101
1, 124653, Note_off_c, 0, 67, 101
1, 124655, Note_on_c, 0, 68, 119
1, 124757, Note_off_c, 0, 68, 119
1, 124763, Note_on_c, 0, 66, 110
1, 124824, Note_off_c, 0, 66, 110
1, 124836, Note_on_c, 0, 61, 105
1, 124939, Note_off_c, 0, 61, 105
1, 124960, Note_on_c, 0, 58, 98
1, 125004, Note_off_c, 0, 58, 98
1, 125016, Note_on_c, 0, 61, 110
1, 125139, Note_off_c, 0, 61, 110
1, 125156, Note_on_c, 0, 60, 114
1, 125220, Note_off_c, 0, 60, 114
1, 125248, Note_on_c, 0, 56, 109
1, 125341, Note_off_c, 0, 56, 109
1, 125392, Note_on_c, 0, 60, 110
1, 125535, Note_off_c, 0, 60, 110
1, 125820, Note_on_c, 0, 60, 109
1, 125905, Note_off_c, 0, 60, 109
1, 125917, Note_on_c, 0, 57, 106
1, 125997, Note_off_c, 0, 57, 106
1, 126002, Note_on_c, 0, 53, 101
1, 126096, Note_off_c, 0, 53, 101
1, 126101, Note_on_c, 0, 50, 100
1, 126163, Note_off_c, 0, 50, 100
1, 126167, Note_on_c, 0, 59, 105
1, 126256, Note_off_c, 0, 59, 105
1, 126262, Note_on_c, 0, 55, 101
1, 126337, Note_off_c, 0, 55, 101
1, 126351, Note_on_c, 0, 52, 105
1, 126450, Note_off_c, 0, 52, 105
1, 126457, Note_on_c, 0, 48, 103
1, 126510, Note_off_c, 0, 48, 103
1, 126511, Note_on_c, 0, 55, 104
1, 126532, Note_off_c, 0, 55, 104
1, 126532, Note_on_c, 0, 57, 106
1, 126624, Note_off_c, 0, 57, 106
1, 126632, Note_on_c, 0, 53, 103
1, 126710, Note_off_c, 0, 53, 103
1, 126716, Note_on_c, 0, 50, 105
1, 126805, Note_off_c, 0, 50, 105
1, 126903, Note_on_c, 0, 66, 116
1, 127010, Note_off_c, 0, 66, 116
1, 127020, Note_on_c, 0, 64, 109
1, 127098, Note_off_c, 0, 64, 109
1, 127110, Note_on_c, 0, 61, 111
1, 127172, Note_off_c, 0, 61, 111
1, 127275, Note_on_c, 0, 66, 110
1, 127399, Note_off_c, 0, 66, 110
1, 128387, Note_on_c, 0, 63, 115
1, 128498, Note_off_c, 0, 63, 115
1, 128498, Note_on_c, 0, 60, 109
1, 128563, Note_off_c, 0, 60, 109
1, 128563, Note_on_c, 0, 56, 108
1, 128647, Note_off_c, 0, 56, 108
1, 128658, Note_on_c, 0, 54, 116
1, 128725, Note_off_c, 0, 54, 116
1, 128732, Note_on_c, 0, 62, 119
1, 128799, Note_off_c, 0, 62, 119
1, 128804, Note_on_c, 0, 63, 116
1, 128861, Note_off_c, 0, 63, 116
1, 128863, Note_on_c, 0, 64, 118
1, 128945, Note_off_c, 0, 64, 118
1, 128959, Note_on_c, 0, 65, 114
1, 129024, Note_off_c, 0, 65, 114
1, 129024, Note_on_c, 0, 62, 110
1, 129111, Note_off_c, 0, 62, 110
1, 129118, Note_on_c, 0, 63, 116
1, 129211, Note_off_c, 0, 63, 116
1, 129230, Note_on_c, 0, 65, 115
1, 129337, Note_off_c, 0, 65, 115
1, 129399, Note_on_c, 0, 69, 97
1, 129474, Note_off_c, 0, 69, 97
1, 129475, Note_on_c, 0, 70, 116
1, 129569, Note_off_c, 0, 70, 116
1, 129574, Note_on_c, 0, 72, 111
1, 129671, Note_off_c, 0, 72, 111
1, 129674, Note_on_c, 0, 69, 114
1, 129776, Note_off_c, 0, 69, 114
1, 129784, Note_on_c, 0, 67, 117
1, 129864, Note_off_c, 0, 67, 117
1, 129871, Note_on_c, 0, 65, 114
1, 129931, Note_off_c, 0, 65, 114
1, 129968, Note_on_c, 0, 61, 116
1, 130029, Note_off_c, 0, 61, 116
1, 130034, Note_on_c, 0, 60, 110
1, 130104, Note_off_c, 0, 60, 110
1, 130118, Note_on_c, 0, 58, 108
1, 130173, Note_off_c, 0, 58, 108
1, 130199, Note_on_c, 0, 57, 106
1, 130334, Note_off_c, 0, 57, 106
1, 130407, Note_on_c, 0, 60, 110
1, 130518, Note_off_c, 0, 60, 110
1, 130546, Note_on_c, 0, 63, 109
1, 130620, Note_off_c, 0, 63, 109
1, 130632, Note_on_c, 0, 64, 125
1, 130703, Note_off_c, 0, 64, 125
1, 130709, Note_on_c, 0, 65, 115
1, 130928, Note_off_c, 0, 65, 115
1, 131012, Note_on_c, 0, 58, 111
1, 131103, Note_off_c, 0, 58, 111
1, 131174, Note_on_c, 0, 63, 113
1, 131302, Note_off_c, 0, 63, 113
1, 131393, Note_on_c, 0, 65, 115
1, 131603, Note_off_c, 0, 65, 115
1, 131663, Note_on_c, 0, 57, 111
1, 131747, Note_off_c, 0, 57, 111
1, 131814, Note_on_c, 0, 60, 108
1, 131888, Note_off_c, 0, 60, 108
1, 131891, Note_on_c, 0, 63, 115
1, 132021, Note_off_c, 0, 63, 115
1, 132059, Note_on_c, 0, 65, 111
1, 132335, Note_off_c, 0, 65, 111
1, 132393, Note_on_c, 0, 70, 116
1, 132484, Note_off_c, 0, 70, 116
1, 132549, Note_on_c, 0, 68, 115
1, 132632, Note_on_c, 0, 65, 114
1, 132632, Note_off_c, 0, 68, 115
1, 132724, Note_off_c, 0, 65, 114
1, 132849, Note_on_c, 0, 68, 117
1, 132940, Note_off_c, 0, 68, 117
1, 132940, Note_on_c, 0, 67, 113
1, 133009, Note_off_c, 0, 67, 113
1, 133021, Note_on_c, 0, 63, 115
1, 133144, Note_off_c, 0, 63, 115
1, 133204, Note_on_c, 0, 67, 113
1, 133314, Note_off_c, 0, 67, 113
1, 133314, Note_on_c, 0, 63, 112
1, 133412, Note_off_c, 0, 63, 112
1, 133417, Note_on_c, 0, 65, 110
1, 133491, Note_off_c, 0, 65, 110
1, 133491, Note_on_c, 0, 67, 113
1, 133560, Note_off_c, 0, 67, 113
1, 133574, Note_on_c, 0, 65, 118
1, 133625, Note_off_c, 0, 65, 118
1, 133627, Note_on_c, 0, 63, 115
1, 133723, Note_off_c, 0, 63, 115
1, 133730, Note_on_c, 0, 61, 109
1, 133810, Note_off_c, 0, 61, 109
1, 133811, Note_on_c, 0, 58, 105
1, 133881, Note_off_c, 0, 58, 105
1, 133883, Note_on_c, 0, 56, 106
1, 133930, Note_off_c, 0, 56, 106
1, 133967, Note_on_c, 0, 61, 104
1, 134063, Note_off_c, 0, 61, 104
1, 134078, Note_on_c, 0, 63, 107
1, 134145, Note_off_c, 0, 63, 107
1, 134156, Note_on_c, 0, 65, 112
1, 134249, Note_off_c, 0, 65, 112
1, 134254, Note_on_c, 0, 61, 106
1, 134377, Note_off_c, 0, 61, 106
1, 135748, Note_on_c, 0, 72, 114
1, 135830, Note_off_c, 0, 72, 114
1, 135842, Note_on_c, 0, 72, 122
1, 135921, Note_off_c, 0, 72, 122
1, 135950, Note_on_c, 0, 72, 119
1, 136041, Note_off_c, 0, 72, 119
1, 136067, Note_on_c, 0, 72, 102
1, 136116, Note_off_c, 0, 72, 102
1, 138369, Note_on_c, 0, 72, 106
1, 138434, Note_off_c, 0, 72, 106
1, 138434, Note_on_c, 0, 75, 94
1, 138492, Note_off_c, 0, 75, 94
1, 138520, Note_on_c, 0, 75, 87
1, 138591, Note_off_c, 0, 75, 87
1, 138919, Note_on_c, 0, 76, 108
1, 138972, Note_off_c, 0, 76, 108
1, 138982, Note_on_c, 0, 77, 95
1, 139632, Note_off_c, 0, 77, 95
1, 139677, Note_on_c, 0, 81, 106
1, 139806, Note_off_c, 0, 81, 106
1, 140253, Note_on_c, 0, 74, 115
1, 140375, Note_off_c, 0, 74, 115
1, 140387, Note_on_c, 0, 77, 98
1, 140657, Note_off_c, 0, 77, 98
1, 141049, Note_on_c, 0, 74, 119
1, 141153, Note_off_c, 0, 74, 119
1, 141158, Note_on_c, 0, 77, 98
1, 141783, Note_off_c, 0, 77, 98
1, 142432, Note_on_c, 0, 70, 116
1, 142511, Note_off_c, 0, 70, 116
1, 142512, Note_on_c, 0, 71, 112
1, 142558, Note_off_c, 0, 71, 112
1, 142559, Note_on_c, 0, 72, 112
1, 143123, Note_off_c, 0, 72, 112
1, 143177, Note_on_c, 0, 65, 116
1, 143264, Note_off_c, 0, 65, 116
1, 143266, Note_on_c, 0, 68, 101
1, 143327, Note_off_c, 0, 68, 101
1, 143335, Note_on_c, 0, 72, 111
1, 143414, Note_off_c, 0, 72, 111
1, 143485, Note_on_c, 0, 81, 112
1, 143561, Note_off_c, 0, 81, 112
1, 143650, Note_on_c, 0, 78, 119
1, 143751, Note_off_c, 0, 78, 119
1, 143939, Note_on_c, 0, 81, 117
1, 144019, Note_off_c, 0, 81, 117
1, 144022, Note_on_c, 0, 82, 110
1, 144533, Note_off_c, 0, 82, 110
1, 144650, Note_on_c, 0, 75, 114
1, 144751, Note_off_c, 0, 75, 114
1, 144786, Note_on_c, 0, 77, 88
1, 144879, Note_off_c, 0, 77, 88
1, 145058, Note_on_c, 0, 73, 116
1, 145146, Note_off_c, 0, 73, 116
1, 145293, Note_on_c, 0, 70, 116
1, 145395, Note_off_c, 0, 70, 116
1, 145401, Note_on_c, 0, 67, 115
1, 145498, Note_off_c, 0, 67, 115
1, 145503, Note_on_c, 0, 68, 113
1, 145577, Note_off_c, 0, 68, 113
1, 145684, Note_on_c, 0, 65, 116
1, 145767, Note_off_c, 0, 65, 116
1, 145856, Note_on_c, 0, 64, 121
1, 145977, Note_off_c, 0, 64, 121
1, 146141, Note_on_c, 0, 70, 112
1, 146225, Note_off_c, 0, 70, 112
1, 146225, Note_on_c, 0, 73, 111
1, 146326, Note_off_c, 0, 73, 111
1, 146328, Note_on_c, 0, 72, 107
1, 146419, Note_off_c, 0, 72, 107
1, 146425, Note_on_c, 0, 69, 100
1, 146500, Note_off_c, 0, 69, 100
1, 146506, Note_on_c, 0, 70, 114
1, 146608, Note_off_c, 0, 70, 114
1, 146638, Note_on_c, 0, 66, 110
1, 146739, Note_off_c, 0, 66, 110
1, 146810, Note_on_c, 0, 66, 102
1, 146861, Note_off_c, 0, 66, 102
1, 146925, Note_on_c, 0, 69, 117
1, 147003, Note_off_c, 0, 69, 117
1, 147013, Note_on_c, 0, 67, 108
1, 147083, Note_off_c, 0, 67, 108
1, 147089, Note_on_c, 0, 66, 107
1, 147194, Note_off_c, 0, 66, 107
1, 147199, Note_on_c, 0, 62, 98
1, 147273, Note_off_c, 0, 62, 98
1, 147273, Note_on_c, 0, 64, 116
1, 147374, Note_off_c, 0, 64, 116
1, 147391, Note_on_c, 0, 61, 103
1, 147487, Note_off_c, 0, 61, 103
1, 147640, Note_on_c, 0, 63, 114
1, 147751, Note_off_c, 0, 63, 114
1, 147754, Note_on_c, 0, 61, 103
1, 147821, Note_off_c, 0, 61, 103
1, 147824, Note_on_c, 0, 60, 98
1, 147886, Note_off_c, 0, 60, 98
1, 147924, Note_on_c, 0, 58, 111
1, 147975, Note_off_c, 0, 58, 111
1, 147991, Note_on_c, 0, 57, 107
1, 148071, Note_off_c, 0, 57, 107
1, 148104, Note_on_c, 0, 60, 106
1, 148171, Note_off_c, 0, 60, 106
1, 148172, Note_on_c, 0, 62, 102
1, 148259, Note_off_c, 0, 62, 102
1, 148264, Note_on_c, 0, 64, 108
1, 148337, Note_off_c, 0, 64, 108
1, 148337, Note_on_c, 0, 65, 110
1, 148833, Note_off_c, 0, 65, 110
1, 149203, Note_on_c, 0, 72, 107
1, 149308, Note_off_c, 0, 72, 107
1, 149375, Note_on_c, 0, 72, 113
1, 149483, Note_off_c, 0, 72, 113
1, 149540, Note_on_c, 0, 65, 116
1, 149650, Note_off_c, 0, 65, 116
1, 149711, Note_on_c, 0, 68, 119
1, 149821, Note_off_c, 0, 68, 119
1, 149908, Note_on_c, 0, 65, 108
1, 150010, Note_off_c, 0, 65, 108
1, 150084, Note_on_c, 0, 70, 108
1, 150178, Note_off_c, 0, 70, 108
1, 150277, Note_on_c, 0, 65, 109
1, 150371, Note_off_c, 0, 65, 109
1, 150442, Note_on_c, 0, 68, 119
1, 150552, Note_off_c, 0, 68, 119
1, 150625, Note_on_c, 0, 65, 117
1, 150714, Note_off_c, 0, 65, 117
1, 150717, Note_on_c, 0, 63, 113
1, 150792, Note_off_c, 0, 63, 113
1, 150813, Note_on_c, 0, 67, 114
1, 150909, Note_off_c, 0, 67, 114
1, 150909, Note_on_c, 0, 65, 115
1, 151002, Note_off_c, 0, 65, 115
1, 151002, Note_on_c, 0, 61, 107
1, 151094, Note_off_c, 0, 61, 107
1, 151094, Note_on_c, 0, 58, 100
1, 151199, Note_off_c, 0, 58, 100
1, 151201, Note_on_c, 0, 57, 91
1, 151248, Note_off_c, 0, 57, 91
1, 151268, Note_on_c, 0, 63, 115
1, 151378, Note_off_c, 0, 63, 115
1, 151378, Note_on_c, 0, 62, 117
1, 151462, Note_off_c, 0, 62, 117
1, 151465, Note_on_c, 0, 61, 109
1, 151567, Note_off_c, 0, 61, 109
1, 151567, Note_on_c, 0, 58, 101
1, 151619, Note_off_c, 0, 58, 101
1, 151619, Note_on_c, 0, 59, 105
1, 151675, Note_off_c, 0, 59, 105
1, 151677, Note_on_c, 0, 56, 104
1, 151784, Note_off_c, 0, 56, 104
1, 151789, Note_on_c, 0, 54, 92
1, 151858, Note_off_c, 0, 54, 92
1, 151858, Note_on_c, 0, 56, 106
1, 151978, Note_off_c, 0, 56, 106
1, 151983, Note_on_c, 0, 54, 99
1, 152116, Note_off_c, 0, 54, 99
1, 152741, Note_on_c, 0, 48, 112
1, 152861, Note_off_c, 0, 48, 112
1, 153126, Note_on_c, 0, 48, 106
1, 153238, Note_off_c, 0, 48, 106
1, 153311, Note_on_c, 0, 57, 105
1, 153431, Note_off_c, 0, 57, 105
1, 154560, Note_on_c, 0, 55, 110
1, 154643, Note_off_c, 0, 55, 110
1, 154648, Note_on_c, 0, 52, 110
1, 154732, Note_off_c, 0, 52, 110
1, 154732, Note_on_c, 0, 53, 105
1, 154821, Note_off_c, 0, 53, 105
1, 154846, Note_on_c, 0, 55, 109
1, 154942, Note_off_c, 0, 55, 109
1, 154942, Note_on_c, 0, 57, 107
1, 155022, Note_off_c, 0, 57, 107
1, 155028, Note_on_c, 0, 59, 105
1, 155086, Note_off_c, 0, 59, 105
1, 155094, Note_on_c, 0, 60, 108
1, 155199, Note_off_c, 0, 60, 108
1, 155219, Note_on_c, 0, 62, 106
1, 155380, Note_off_c, 0, 62, 106
1, 155380, Note_on_c, 0, 64, 109
1, 155471, Note_off_c, 0, 64, 109
1, 155500, Note_on_c, 0, 67, 115
1, 155598, Note_off_c, 0, 67, 115
1, 155598, Note_on_c, 0, 64, 122
1, 155696, Note_off_c, 0, 64, 122
1, 155704, Note_on_c, 0, 65, 115
1, 155796, Note_off_c, 0, 65, 115
1, 155799, Note_on_c, 0, 67, 111
1, 155937, Note_off_c, 0, 67, 111
1, 156101, Note_on_c, 0, 69, 115
1, 156184, Note_off_c, 0, 69, 115
1, 156184, Note_on_c, 0, 72, 99
1, 156219, Note_off_c, 0, 72, 99
1, 156225, Note_on_c, 0, 72, 111
1, 156262, Note_off_c, 0, 72, 111
1, 156270, Note_on_c, 0, 69, 116
1, 156355, Note_off_c, 0, 69, 116
1, 156397, Note_on_c, 0, 70, 111
1, 156467, Note_off_c, 0, 70, 111
1, 156467, Note_on_c, 0, 68, 117
1, 156575, Note_off_c, 0, 68, 117
1, 156582, Note_on_c, 0, 66, 111
1, 156674, Note_on_c, 0, 63, 115
1, 156674, Note_off_c, 0, 66, 111
1, 156766, Note_off_c, 0, 63, 115
1, 156776, Note_on_c, 0, 61, 102
1, 156852, Note_off_c, 0, 61, 102
1, 156867, Note_on_c, 0, 60, 109
1, 157101, Note_off_c, 0, 60, 109
1, 157101, Note_on_c, 0, 65, 118
1, 157536, Note_off_c, 0, 65, 118
1, 157550, Note_on_c, 0, 67, 116
1, 157678, Note_off_c, 0, 67, 116
1, 157681, Note_on_c, 0, 69, 113
1, 157818, Note_off_c, 0, 69, 113
1, 157824, Note_on_c, 0, 65, 103
1, 157915, Note_off_c, 0, 65, 103
1, 157929, Note_on_c, 0, 67, 9
1, 158012, Note_off_c, 0, 67, 9
1, 158017, Note_on_c, 0, 66, 9
1, 158138, Note_off_c, 0, 66, 9
1, 158225, Note_on_c, 0, 60, 111
1, 158327, Note_off_c, 0, 60, 111
1, 158393, Note_on_c, 0, 65, 117
1, 158508, Note_off_c, 0, 65, 117
1, 158677, Note_on_c, 0, 65, 115
1, 158961, Note_off_c, 0, 65, 115
1, 158973, Note_on_c, 0, 65, 116
1, 159074, Note_off_c, 0, 65, 116
1, 159074, Note_on_c, 0, 67, 110
1, 159177, Note_off_c, 0, 67, 110
1, 159177, Note_on_c, 0, 68, 120
1, 159264, Note_off_c, 0, 68, 120
1, 159285, Note_on_c, 0, 67, 115
1, 159341, Note_off_c, 0, 67, 115
1, 159351, Note_on_c, 0, 66, 115
1, 159467, Note_off_c, 0, 66, 115
1, 159474, Note_on_c, 0, 65, 116
1, 159526, Note_off_c, 0, 65, 116
1, 159527, Note_on_c, 0, 64, 127
1, 159638, Note_off_c, 0, 64, 127
1, 159655, Note_on_c, 0, 63, 124
1, 159711, Note_off_c, 0, 63, 124
1, 159718, Note_on_c, 0, 62, 122
1, 159846, Note_off_c, 0, 62, 122
1, 159846, Note_on_c, 0, 61, 111
1, 159911, Note_off_c, 0, 61, 111
1, 159922, Note_on_c, 0, 59, 106
1, 160034, Note_off_c, 0, 59, 106
1, 160101, Note_on_c, 0, 53, 114
1, 160171, Note_off_c, 0, 53, 114
1, 160178, Note_on_c, 0, 57, 110
1, 160249, Note_off_c, 0, 57, 110
1, 160259, Note_on_c, 0, 54, 100
1, 160384, Note_off_c, 0, 54, 100
1, 160395, Note_on_c, 0, 55, 100
1, 160446, Note_off_c, 0, 55, 100
1, 160449, Note_on_c, 0, 56, 111
1, 160547, Note_off_c, 0, 56, 111
1, 160549, Note_on_c, 0, 54, 107
1, 160636, Note_off_c, 0, 54, 107
1, 160641, Note_on_c, 0, 52, 108
1, 160733, Note_off_c, 0, 52, 108
1, 160733, Note_on_c, 0, 49, 99
1, 160790, Note_off_c, 0, 49, 99
1, 160831, Note_on_c, 0, 50, 109
1, 160916, Note_off_c, 0, 50, 109
1, 160919, Note_on_c, 0, 52, 103
1, 161013, Note_off_c, 0, 52, 103
1, 161056, Note_on_c, 0, 55, 108
1, 161149, Note_off_c, 0, 55, 108
1, 161184, Note_on_c, 0, 61, 115
1, 161264, Note_off_c, 0, 61, 115
1, 161265, Note_on_c, 0, 60, 107
1, 161357, Note_off_c, 0, 60, 107
1, 161373, Note_on_c, 0, 58, 103
1, 161449, Note_off_c, 0, 58, 103
1, 161488, Note_on_c, 0, 55, 103
1, 161546, Note_off_c, 0, 55, 103
1, 161563, Note_on_c, 0, 57, 104
1, 161650, Note_off_c, 0, 57, 104
1, 161682, Note_on_c, 0, 48, 112
1, 161761, Note_off_c, 0, 48, 112
1, 161787, Note_on_c, 0, 51, 109
1, 161858, Note_off_c, 0, 51, 109
1, 161858, Note_on_c, 0, 55, 113
1, 161934, Note_off_c, 0, 55, 113
1, 161939, Note_on_c, 0, 51, 112
1, 162010, Note_off_c, 0, 51, 112
1, 162017, Note_on_c, 0, 52, 102
1, 162104, Note_off_c, 0, 52, 102
1, 162302, Note_on_c, 0, 63, 123
1, 162386, Note_off_c, 0, 63, 123
1, 162386, Note_on_c, 0, 62, 116
1, 162451, Note_off_c, 0, 62, 116
1, 162457, Note_on_c, 0, 61, 106
1, 162536, Note_off_c, 0, 61, 106
1, 162584, Note_on_c, 0, 59, 111
1, 162645, Note_off_c, 0, 59, 111
1, 162659, Note_on_c, 0, 58, 101
1, 162752, Note_off_c, 0, 58, 101
1, 163217, Note_on_c, 0, 58, 111
1, 163673, Note_off_c, 0, 58, 111
1, 164231, Note_on_c, 0, 56, 102
1, 164295, Note_off_c, 0, 56, 102
1, 164295, Note_on_c, 0, 57, 99
1, 164344, Note_off_c, 0, 57, 99
1, 164359, Note_on_c, 0, 60, 92
1, 164401, Note_off_c, 0, 60, 92
1, 164401, Note_on_c, 0, 62, 116
1, 164492, Note_off_c, 0, 62, 116
1, 164497, Note_on_c, 0, 65, 116
1, 164591, Note_off_c, 0, 65, 116
1, 164591, Note_on_c, 0, 62, 123
1, 164678, Note_off_c, 0, 62, 123
1, 164692, Note_on_c, 0, 63, 115
1, 164768, Note_off_c, 0, 63, 115
1, 164768, Note_on_c, 0, 64, 110
1, 164807, Note_off_c, 0, 64, 110
1, 164817, Note_on_c, 0, 65, 94
1, 164886, Note_off_c, 0, 65, 94
1, 164939, Note_on_c, 0, 67, 100
1, 165021, Note_off_c, 0, 67, 100
1, 165047, Note_on_c, 0, 72, 118
1, 165138, Note_off_c, 0, 72, 118
1, 165138, Note_on_c, 0, 71, 114
1, 165190, Note_off_c, 0, 71, 114
1, 165190, Note_on_c, 0, 70, 118
1, 165310, Note_off_c, 0, 70, 118
1, 165317, Note_on_c, 0, 67, 103
1, 165440, Note_off_c, 0, 67, 103
1, 165459, Note_on_c, 0, 68, 102
1, 165516, Note_off_c, 0, 68, 102
1, 165516, Note_on_c, 0, 69, 112
1, 165564, Note_off_c, 0, 69, 112
1, 165594, Note_on_c, 0, 65, 113
1, 165847, Note_off_c, 0, 65, 113
1, 165847, Note_on_c, 0, 63, 114
1, 166213, Note_off_c, 0, 63, 114
1, 166242, Note_on_c, 0, 63, 110
1, 166353, Note_off_c, 0, 63, 110
1, 166354, Note_on_c, 0, 67, 109
1, 166450, Note_off_c, 0, 67, 109
1, 166460, Note_on_c, 0, 63, 108
1, 166609, Note_off_c, 0, 63, 108
1, 166609, End_track
0, 0, End_of_file
