0, 0, Header, 1, 1, 192
1, 0, Start_track
1, 0, Title_t, "Melody"
1, 0, Tempo, 242914
1, 0, Key_signature, -2, "major"
1, 0, Time_signature, 4, 2, 24, 8
1, 5776, Note_on_c, 0, 69, 119
1, 5813, Note_off_c, 0, 69, 119
1, 5818, Note_on_c, 0, 70, 118
1, 5990, Note_off_c, 0, 70, 118
1, 6014, Note_on_c, 0, 72, 119
1, 6048, Note_off_c, 0, 72, 119
1, 6062, Note_on_c, 0, 70, 110
1, 6097, Note_off_c, 0, 70, 110
1, 6125, Note_on_c, 0, 69, 113
1, 6180, Note_off_c, 0, 69, 113
1, 6193, Note_on_c, 0, 70, 118
1, 6360, Note_off_c, 0, 70, 118
1, 6382, Note_on_c, 0, 72, 112
1, 6417, Note_off_c, 0, 72, 112
1, 6430, Note_on_c, 0, 70, 110
1, 6472, Note_off_c, 0, 70, 110
1, 6496, Note_on_c, 0, 69, 117
1, 6541, Note_off_c, 0, 69, 117
1, 6551, Note_on_c, 0, 70, 117
1, 6736, Note_off_c, 0, 70, 117
1, 6749, Note_on_c, 0, 72, 114
1, 6801, Note_off_c, 0, 72, 114
1, 6815, Note_on_c, 0, 70, 112
1, 6890, Note_off_c, 0, 70, 112
1, 6898, Note_on_c, 0, 69, 118
1, 6948, Note_off_c, 0, 69, 118
1, 6961, Note_on_c, 0, 70, 116
1, 7135, Note_off_c, 0, 70, 116
1, 7157, Note_on_c, 0, 72, 112
1, 7221, Note_off_c, 0, 72, 112
1, 7223, Note_on_c, 0, 70, 104
1, 7264, Note_off_c, 0, 70, 104
1, 7270, Note_on_c, 0, 69, 104
1, 7336, Note_off_c, 0, 69, 104
1, 7361, Note_on_c, 0, 70, 115
1, 7533, Note_off_c, 0, 70, 115
1, 7567, Note_on_c, 0, 72, 109
1, 7619, Note_off_c, 0, 72, 109
1, 7630, Note_on_c, 0, 69, 106
1, 7674, Note_off_c, 0, 69, 106
1, 7685, Note_on_c, 0, 70, 109
1, 7729, Note_off_c, 0, 70, 109
1, 7739, Note_on_c, 0, 72, 118
1, 7789, Note_off_c, 0, 72, 118
1, 7798, Note_on_c, 0, 70, 115
1, 7856, Note_off_c, 0, 70, 115
1, 7888, Note_on_c, 0, 67, 113
1, 8303, Note_off_c, 0, 67, 113
1, 8314, Note_on_c, 0, 69, 110
1, 8356, Note_off_c, 0, 69, 110
1, 8368, Note_on_c, 0, 67, 113
1, 8410, Note_off_c, 0, 67, 113
1, 8426, Note_on_c, 0, 66, 114
1, 8502, Note_off_c, 0, 66, 114
1, 8513, Note_on_c, 0, 67, 119
1, 8705, Note_off_c, 0, 67, 119
1, 8714, Note_on_c, 0, 69, 111
1, 8759, Note_off_c, 0, 69, 111
1, 8772, Note_on_c, 0, 67, 113
1, 8830, Note_off_c, 0, 67, 113
1, 8849, Note_on_c, 0, 66, 119
1, 8906, Note_off_c, 0, 66, 119
1, 8908, Note_on_c, 0, 67, 120
1, 9057, Note_off_c, 0, 67, 120
1, 9082, Note_on_c, 0, 69, 111
1, 9132, Note_off_c, 0, 69, 111
1, 9148, Note_on_c, 0, 67, 107
1, 9189, Note_off_c, 0, 67, 107
1, 9199, Note_on_c, 0, 66, 113
1, 9265, Note_off_c, 0, 66, 113
1, 9279, Note_on_c, 0, 69, 112
1, 9319, Note_off_c, 0, 69, 112
1, 9329, Note_on_c, 0, 67, 110
1, 9373, Note_off_c, 0, 67, 110
1, 9383, Note_on_c, 0, 65, 116
1, 9419, Note_off_c, 0, 65, 116
1, 9435, Note_on_c, 0, 63, 118
1, 9516, Note_off_c, 0, 63, 118
1, 9528, Note_on_c, 0, 62, 116
1, 9856, Note_off_c, 0, 62, 116
1, 9882, Note_on_c, 0, 60, 116
1, 9971, Note_off_c, 0, 60, 116
1, 9985, Note_on_c, 0, 62, 113
1, 10004, Note_off_c, 0, 62, 113
1, 10009, Note_on_c, 0, 63, 118
1, 10044, Note_off_c, 0, 63, 118
1, 10049, Note_on_c, 0, 62, 118
1, 10092, Note_off_c, 0, 62, 118
1, 10110, Note_on_c, 0, 60, 121
1, 10176, Note_off_c, 0, 60, 121
1, 10185, Note_on_c, 0, 62, 112
1, 10205, Note_off_c, 0, 62, 112
1, 10207, Note_on_c, 0, 63, 111
1, 10231, Note_off_c, 0, 63, 111
1, 10235, Note_on_c, 0, 62, 118
1, 10277, Note_off_c, 0, 62, 118
1, 10298, Note_on_c, 0, 60, 117
1, 10366, Note_off_c, 0, 60, 117
1, 10379, Note_on_c, 0, 63, 115
1, 10411, Note_off_c, 0, 63, 115
1, 10417, Note_on_c, 0, 62, 118
1, 10462, Note_off_c, 0, 62, 118
1, 10484, Note_on_c, 0, 60, 120
1, 10545, Note_off_c, 0, 60, 120
1, 10553, Note_on_c, 0, 63, 114
1, 10593, Note_off_c, 0, 63, 114
1, 10594, Note_on_c, 0, 62, 115
1, 10639, Note_off_c, 0, 62, 115
1, 10659, Note_on_c, 0, 60, 117
1, 10726, Note_off_c, 0, 60, 117
1, 10739, Note_on_c, 0, 58, 118
1, 10841, Note_off_c, 0, 58, 118
1, 10854, Note_on_c, 0, 55, 122
1, 10900, Note_off_c, 0, 55, 122
1, 10914, Note_on_c, 0, 53, 116
1, 10988, Note_off_c, 0, 53, 116
1, 11004, Note_on_c, 0, 55, 118
1, 11231, Note_off_c, 0, 55, 118
1, 12398, Note_on_c, 0, 55, 124
1, 12452, Note_off_c, 0, 55, 124
1, 12460, Note_on_c, 0, 53, 107
1, 12543, Note_off_c, 0, 53, 107
1, 12560, Note_on_c, 0, 58, 119
1, 12652, Note_off_c, 0, 58, 119
1, 12670, Note_on_c, 0, 55, 120
1, 12749, Note_off_c, 0, 55, 120
1, 12767, Note_on_c, 0, 60, 122
1, 12848, Note_off_c, 0, 60, 122
1, 12856, Note_on_c, 0, 58, 117
1, 12956, Note_off_c, 0, 58, 117
1, 12969, Note_on_c, 0, 55, 114
1, 13021, Note_off_c, 0, 55, 114
1, 13029, Note_on_c, 0, 62, 124
1, 13150, Note_off_c, 0, 62, 124
1, 13158, Note_on_c, 0, 60, 115
1, 13236, Note_off_c, 0, 60, 115
1, 13245, Note_on_c, 0, 63, 123
1, 13328, Note_off_c, 0, 63, 123
1, 13354, Note_on_c, 0, 60, 105
1, 13429, Note_off_c, 0, 60, 105
1, 13446, Note_on_c, 0, 66, 119
1, 13534, Note_off_c, 0, 66, 119
1, 13548, Note_on_c, 0, 62, 114
1, 13624, Note_off_c, 0, 62, 114
1, 13642, Note_on_c, 0, 67, 119
1, 13742, Note_off_c, 0, 67, 119
1, 13747, Note_on_c, 0, 64, 107
1, 13813, Note_off_c, 0, 64, 107
1, 13822, Note_on_c, 0, 69, 121
1, 13919, Note_off_c, 0, 69, 121
1, 13943, Note_on_c, 0, 66, 97
1, 14008, Note_off_c, 0, 66, 97
1, 14020, Note_on_c, 0, 67, 105
1, 14093, Note_off_c, 0, 67, 105
1, 14106, Note_on_c, 0, 70, 120
1, 14188, Note_off_c, 0, 70, 120
1, 14204, Note_on_c, 0, 67, 117
1, 14308, Note_off_c, 0, 67, 117
1, 14324, Note_on_c, 0, 62, 116
1, 14402, Note_off_c, 0, 62, 116
1, 14407, Note_on_c, 0, 58, 119
1, 14493, Note_off_c, 0, 58, 119
1, 14511, Note_on_c, 0, 55, 110
1, 14572, Note_off_c, 0, 55, 110
1, 14584, Note_on_c, 0, 60, 122
1, 14684, Note_off_c, 0, 60, 122
1, 14696, Note_on_c, 0, 63, 122
1, 14788, Note_off_c, 0, 63, 122
1, 14792, Note_on_c, 0, 62, 116
1, 14890, Note_off_c, 0, 62, 116
1, 14895, Note_on_c, 0, 61, 121
1, 15002, Note_off_c, 0, 61, 121
1, 15006, Note_on_c, 0, 60, 109
1, 15024, Note_off_c, 0, 60, 109
1, 15074, Note_on_c, 0, 58, 119
1, 15155, Note_off_c, 0, 58, 119
1, 15163, Note_on_c, 0, 57, 123
1, 15269, Note_off_c, 0, 57, 123
1, 15297, Note_on_c, 0, 54, 110
1, 15358, Note_off_c, 0, 54, 110
1, 15368, Note_on_c, 0, 55, 115
1, 15668, Note_off_c, 0, 55, 115
1, 15678, Note_on_c, 0, 50, 106
1, 15743, Note_off_c, 0, 50, 106
1, 15752, Note_on_c, 0, 53, 115
1, 15844, Note_off_c, 0, 53, 115
1, 15850, Note_on_c, 0, 50, 113
1, 15911, Note_off_c, 0, 50, 113
1, 16200, Note_on_c, 0, 58, 95
1, 16218, Note_off_c, 0, 58, 95
1, 16221, Note_on_c, 0, 56, 124
1, 16248, Note_off_c, 0, 56, 124
1, 16257, Note_on_c, 0, 55, 121
1, 16300, Note_off_c, 0, 55, 121
1, 16317, Note_on_c, 0, 53, 102
1, 16407, Note_off_c, 0, 53, 102
1, 16424, Note_on_c, 0, 55, 117
1, 16487, Note_off_c, 0, 55, 117
1, 16498, Note_on_c, 0, 56, 119
1, 16578, Note_off_c, 0, 56, 119
1, 16623, Note_on_c, 0, 58, 120
1, 16692, Note_off_c, 0, 58, 120
1, 16706, Note_on_c, 0, 60, 117
1, 16779, Note_off_c, 0, 60, 117
1, 16790, Note_on_c, 0, 62, 119
1, 16892, Note_off_c, 0, 62, 119
1, 16895, Note_on_c, 0, 63, 113
1, 16989, Note_off_c, 0, 63, 113
1, 17006, Note_on_c, 0, 65, 105
1, 17092, Note_off_c, 0, 65, 105
1, 17124, Note_on_c, 0, 67, 99
1, 17169, Note_off_c, 0, 67, 99
1, 17186, Note_on_c, 0, 68, 113
1, 17253, Note_off_c, 0, 68, 113
1, 17269, Note_on_c, 0, 70, 118
1, 17355, Note_off_c, 0, 70, 118
1, 17369, Note_on_c, 0, 67, 105
1, 17434, Note_off_c, 0, 67, 105
1, 17437, Note_on_c, 0, 68, 118
1, 17519, Note_off_c, 0, 68, 118
1, 17538, Note_on_c, 0, 70, 111
1, 17611, Note_off_c, 0, 70, 111
1, 17621, Note_on_c, 0, 69, 112
1, 17641, Note_off_c, 0, 69, 112
1, 17660, Note_on_c, 0, 67, 115
1, 17732, Note_off_c, 0, 67, 115
1, 17753, Note_on_c, 0, 63, 121
1, 17825, Note_off_c, 0, 63, 121
1, 17862, Note_on_c, 0, 58, 115
1, 17936, Note_off_c, 0, 58, 115
1, 17961, Note_on_c, 0, 55, 117
1, 18021, Note_off_c, 0, 55, 117
1, 18029, Note_on_c, 0, 60, 121
1, 18109, Note_off_c, 0, 60, 121
1, 18117, Note_on_c, 0, 62, 116
1, 18152, Note_off_c, 0, 62, 116
1, 18165, Note_on_c, 0, 63, 117
1, 18228, Note_off_c, 0, 63, 117
1, 18244, Note_on_c, 0, 64, 119
1, 18310, Note_off_c, 0, 64, 119
1, 18316, Note_on_c, 0, 65, 114
1, 18398, Note_off_c, 0, 65, 114
1, 18418, Note_on_c, 0, 65, 119
1, 18497, Note_off_c, 0, 65, 119
1, 18501, Note_on_c, 0, 66, 115
1, 18715, Note_off_c, 0, 66, 115
1, 18726, Note_on_c, 0, 62, 113
1, 18804, Note_off_c, 0, 62, 113
1, 18815, Note_on_c, 0, 65, 112
1, 18904, Note_off_c, 0, 65, 112
1, 18910, Note_on_c, 0, 63, 117
1, 18994, Note_off_c, 0, 63, 117
1, 19002, Note_on_c, 0, 58, 116
1, 19089, Note_off_c, 0, 58, 116
1, 19108, Note_on_c, 0, 55, 107
1, 19163, Note_off_c, 0, 55, 107
1, 19185, Note_on_c, 0, 60, 119
1, 19256, Note_off_c, 0, 60, 119
1, 19265, Note_on_c, 0, 61, 117
1, 19354, Note_off_c, 0, 61, 117
1, 19367, Note_on_c, 0, 59, 108
1, 19472, Note_off_c, 0, 59, 108
1, 19492, Note_on_c, 0, 54, 106
1, 19549, Note_off_c, 0, 54, 106
1, 19569, Note_on_c, 0, 58, 115
1, 19773, Note_off_c, 0, 58, 115
1, 19785, Note_on_c, 0, 54, 107
1, 19876, Note_off_c, 0, 54, 107
1, 19883, Note_on_c, 0, 57, 115
1, 20255, Note_off_c, 0, 57, 115
1, 20263, Note_on_c, 0, 54, 95
1, 20306, Note_off_c, 0, 54, 95
1, 20320, Note_on_c, 0, 58, 117
1, 20437, Note_off_c, 0, 58, 117
1, 20453, Note_on_c, 0, 55, 94
1, 20620, Note_off_c, 0, 55, 94
1, 21084, Note_on_c, 0, 56, 123
1, 21144, Note_off_c, 0, 56, 123
1, 21176, Note_on_c, 0, 54, 110
1, 21263, Note_off_c, 0, 54, 110
1, 21303, Note_on_c, 0, 53, 92
1, 21428, Note_off_c, 0, 53, 92
1, 21886, Note_on_c, 0, 69, 104
1, 21936, Note_off_c, 0, 69, 104
1, 21944, Note_on_c, 0, 68, 114
1, 21996, Note_off_c, 0, 68, 114
1, 22000, Note_on_c, 0, 72, 114
1, 22052, Note_off_c, 0, 72, 114
1, 22064, Note_on_c, 0, 70, 113
1, 22104, Note_off_c, 0, 70, 113
1, 22118, Note_on_c, 0, 67, 107
1, 22147, Note_off_c, 0, 67, 107
1, 22158, Note_on_c, 0, 66, 114
1, 22228, Note_off_c, 0, 66, 114
1, 22239, Note_on_c, 0, 68, 106
1, 22277, Note_off_c, 0, 68, 106
1, 22279, Note_on_c, 0, 66, 115
1, 22313, Note_off_c, 0, 66, 115
1, 22324, Note_on_c, 0, 63, 113
1, 22365, Note_off_c, 0, 63, 113
1, 22371, Note_on_c, 0, 61, 117
1, 22429, Note_off_c, 0, 61, 117
1, 22445, Note_on_c, 0, 66, 108
1, 22496, Note_off_c, 0, 66, 108
1, 22501, Note_on_c, 0, 64, 112
1, 22557, Note_off_c, 0, 64, 112
1, 22581, Note_on_c, 0, 58, 116
1, 22632, Note_off_c, 0, 58, 116
1, 22713, Note_on_c, 0, 53, 104
1, 22729, Note_off_c, 0, 53, 104
1, 22733, Note_on_c, 0, 54, 105
1, 22762, Note_off_c, 0, 54, 105
1, 22766, Note_on_c, 0, 55, 123
1, 22816, Note_off_c, 0, 55, 123
1, 22827, Note_on_c, 0, 57, 122
1, 22856, Note_off_c, 0, 57, 122
1, 22873, Note_on_c, 0, 58, 122
1, 22922, Note_off_c, 0, 58, 122
1, 22926, Note_on_c, 0, 60, 118
1, 22958, Note_off_c, 0, 60, 118
1, 22974, Note_on_c, 0, 64, 121
1, 23024, Note_off_c, 0, 64, 121
1, 23034, Note_on_c, 0, 68, 118
1, 23071, Note_off_c, 0, 68, 118
1, 23082, Note_on_c, 0, 67, 111
1, 23114, Note_off_c, 0, 67, 111
1, 23132, Note_on_c, 0, 62, 115
1, 23198, Note_off_c, 0, 62, 115
1, 23207, Note_on_c, 0, 58, 121
1, 23271, Note_off_c, 0, 58, 121
1, 23308, Note_on_c, 0, 64, 117
1, 23353, Note_off_c, 0, 64, 117
1, 23370, Note_on_c, 0, 60, 121
1, 23439, Note_off_c, 0, 60, 121
1, 23443, Note_on_c, 0, 58, 113
1, 23454, Note_off_c, 0, 58, 113
1, 23458, Note_on_c, 0, 57, 112
1, 23468, Note_off_c, 0, 57, 112
1, 23476, Note_on_c, 0, 55, 117
1, 23504, Note_off_c, 0, 55, 117
1, 23506, Note_on_c, 0, 53, 115
1, 23536, Note_off_c, 0, 53, 115
1, 23543, Note_on_c, 0, 51, 116
1, 23580, Note_off_c, 0, 51, 116
1, 23583, Note_on_c, 0, 49, 114
1, 23603, Note_off_c, 0, 49, 114
1, 23625, Note_on_c, 0, 47, 120
1, 23663, Note_off_c, 0, 47, 120
1, 23676, Note_on_c, 0, 46, 120
1, 23708, Note_off_c, 0, 46, 120
1, 23719, Note_on_c, 0, 44, 118
1, 23911, Note_off_c, 0, 44, 118
1, 24026, Note_on_c, 0, 55, 118
1, 24125, Note_off_c, 0, 55, 118
1, 24129, Note_on_c, 0, 56, 118
1, 24395, Note_off_c, 0, 56, 118
1, 24404, Note_on_c, 0, 54, 115
1, 24491, Note_off_c, 0, 54, 115
1, 24497, Note_on_c, 0, 55, 121
1, 24601, Note_off_c, 0, 55, 121
1, 24609, Note_on_c, 0, 50, 116
1, 24654, Note_off_c, 0, 50, 116
1, 24663, Note_on_c, 0, 48, 121
1, 24816, Note_off_c, 0, 48, 121
1, 24825, Note_on_c, 0, 50, 113
1, 25135, Note_off_c, 0, 50, 113
1, 25643, Note_on_c, 0, 70, 116
1, 25708, Note_off_c, 0, 70, 116
1, 25722, Note_on_c, 0, 72, 120
1, 26230, Note_off_c, 0, 72, 120
1, 26246, Note_on_c, 0, 70, 116
1, 26333, Note_off_c, 0, 70, 116
1, 26349, Note_on_c, 0, 72, 116
1, 26426, Note_off_c, 0, 72, 116
1, 26440, Note_on_c, 0, 70, 115
1, 26610, Note_off_c, 0, 70, 115
1, 26627, Note_on_c, 0, 67, 110
1, 26725, Note_off_c, 0, 67, 110
1, 26746, Note_on_c, 0, 70, 110
1, 26811, Note_off_c, 0, 70, 110
1, 26824, Note_on_c, 0, 67, 112
1, 27004, Note_off_c, 0, 67, 112
1, 27012, Note_on_c, 0, 65, 112
1, 27107, Note_off_c, 0, 65, 112
1, 27115, Note_on_c, 0, 67, 116
1, 27178, Note_off_c, 0, 67, 116
1, 27191, Note_on_c, 0, 65, 114
1, 27348, Note_off_c, 0, 65, 114
1, 27378, Note_on_c, 0, 62, 118
1, 27481, Note_off_c, 0, 62, 118
1, 27506, Note_on_c, 0, 57, 109
1, 27568, Note_off_c, 0, 57, 109
1, 27571, Note_on_c, 0, 60, 119
1, 27673, Note_off_c, 0, 60, 119
1, 27682, Note_on_c, 0, 62, 121
1, 27761, Note_off_c, 0, 62, 121
1, 27775, Note_on_c, 0, 63, 118
1, 27862, Note_off_c, 0, 63, 118
1, 27884, Note_on_c, 0, 60, 106
1, 27968, Note_off_c, 0, 60, 106
1, 27978, Note_on_c, 0, 65, 117
1, 28097, Note_off_c, 0, 65, 117
1, 28105, Note_on_c, 0, 58, 119
1, 28224, Note_off_c, 0, 58, 119
1, 28829, Note_on_c, 0, 73, 115
1, 28880, Note_off_c, 0, 73, 115
1, 28886, Note_on_c, 0, 74, 115
1, 29312, Note_off_c, 0, 74, 115
1, 29324, Note_on_c, 0, 70, 115
1, 29365, Note_off_c, 0, 70, 115
1, 29373, Note_on_c, 0, 67, 120
1, 29447, Note_off_c, 0, 67, 120
1, 29465, Note_on_c, 0, 66, 112
1, 29632, Note_off_c, 0, 66, 112
1, 29813, Note_on_c, 0, 69, 117
1, 29886, Note_off_c, 0, 69, 117
1, 29898, Note_on_c, 0, 67, 111
1, 29987, Note_off_c, 0, 67, 111
1, 29995, Note_on_c, 0, 62, 116
1, 30080, Note_off_c, 0, 62, 116
1, 30084, Note_on_c, 0, 58, 117
1, 30169, Note_off_c, 0, 58, 117
1, 30178, Note_on_c, 0, 55, 114
1, 30240, Note_off_c, 0, 55, 114
1, 30252, Note_on_c, 0, 60, 117
1, 30364, Note_off_c, 0, 60, 117
1, 30372, Note_on_c, 0, 62, 120
1, 30459, Note_off_c, 0, 62, 120
1, 30470, Note_on_c, 0, 63, 117
1, 30559, Note_off_c, 0, 63, 117
1, 30590, Note_on_c, 0, 60, 110
1, 30626, Note_off_c, 0, 60, 110
1, 30633, Note_on_c, 0, 62, 116
1, 30757, Note_off_c, 0, 62, 116
1, 30924, Note_on_c, 0, 67, 120
1, 30975, Note_off_c, 0, 67, 120
1, 30976, Note_on_c, 0, 66, 117
1, 31014, Note_off_c, 0, 66, 117
1, 31026, Note_on_c, 0, 65, 111
1, 31093, Note_off_c, 0, 65, 111
1, 31109, Note_on_c, 0, 61, 119
1, 31185, Note_off_c, 0, 61, 119
1, 31197, Note_on_c, 0, 58, 116
1, 31290, Note_off_c, 0, 58, 116
1, 31320, Note_on_c, 0, 63, 120
1, 31397, Note_off_c, 0, 63, 120
1, 31401, Note_on_c, 0, 61, 113
1, 31488, Note_off_c, 0, 61, 113
1, 31497, Note_on_c, 0, 56, 119
1, 31586, Note_off_c, 0, 56, 119
1, 31591, Note_on_c, 0, 54, 109
1, 31674, Note_off_c, 0, 54, 109
1, 31767, Note_on_c, 0, 58, 118
1, 31864, Note_off_c, 0, 58, 118
1, 31876, Note_on_c, 0, 54, 114
1, 31931, Note_off_c, 0, 54, 114
1, 31946, Note_on_c, 0, 49, 111
1, 32046, Note_off_c, 0, 49, 111
1, 32053, Note_on_c, 0, 45, 106
1, 32142, Note_off_c, 0, 45, 106
1, 32157, Note_on_c, 0, 56, 119
1, 32265, Note_off_c, 0, 56, 119
1, 32445, Note_on_c, 0, 55, 118
1, 32522, Note_off_c, 0, 55, 118
1, 32528, Note_on_c, 0, 54, 108
1, 32672, Note_off_c, 0, 54, 108
1, 32726, Note_on_c, 0, 56, 119
1, 32805, Note_off_c, 0, 56, 119
1, 32816, Note_on_c, 0, 54, 105
1, 32870, Note_off_c, 0, 54, 105
1, 32915, Note_on_c, 0, 58, 120
1, 33020, Note_off_c, 0, 58, 120
1, 33040, Note_on_c, 0, 59, 115
1, 33102, Note_off_c, 0, 59, 115
1, 33108, Note_on_c, 0, 64, 113
1, 33203, Note_off_c, 0, 64, 113
1, 33214, Note_on_c, 0, 66, 92
1, 33266, Note_off_c, 0, 66, 92
1, 33278, Note_on_c, 0, 70, 119
1, 33379, Note_off_c, 0, 70, 119
1, 33387, Note_on_c, 0, 73, 118
1, 33487, Note_off_c, 0, 73, 118
1, 33492, Note_on_c, 0, 71, 118
1, 33558, Note_off_c, 0, 71, 118
1, 33583, Note_on_c, 0, 67, 120
1, 33633, Note_off_c, 0, 67, 120
1, 33635, Note_on_c, 0, 68, 109
1, 33692, Note_off_c, 0, 68, 109
1, 33697, Note_on_c, 0, 67, 108
1, 33774, Note_off_c, 0, 67, 108
1, 33786, Note_on_c, 0, 66, 112
1, 33861, Note_off_c, 0, 66, 112
1, 33866, Note_on_c, 0, 61, 113
1, 33991, Note_off_c, 0, 61, 113
1, 34001, Note_on_c, 0, 59, 108
1, 34047, Note_off_c, 0, 59, 108
1, 34057, Note_on_c, 0, 63, 117
1, 34152, Note_off_c, 0, 63, 117
1, 34159, Note_on_c, 0, 61, 114
1, 34250, Note_off_c, 0, 61, 114
1, 34254, Note_on_c, 0, 56, 118
1, 34341, Note_off_c, 0, 56, 118
1, 34348, Note_on_c, 0, 54, 110
1, 34421, Note_off_c, 0, 54, 110
1, 34445, Note_on_c, 0, 58, 120
1, 34541, Note_off_c, 0, 58, 120
1, 34557, Note_on_c, 0, 54, 107
1, 34627, Note_off_c, 0, 54, 107
1, 34635, Note_on_c, 0, 51, 112
1, 34701, Note_off_c, 0, 51, 112
1, 34711, Note_on_c, 0, 48, 106
1, 34789, Note_off_c, 0, 48, 106
1, 34820, Note_on_c, 0, 56, 119
1, 34919, Note_off_c, 0, 56, 119
1, 34932, Note_on_c, 0, 54, 115
1, 34986, Note_off_c, 0, 54, 115
1, 35006, Note_on_c, 0, 51, 113
1, 35065, Note_off_c, 0, 51, 113
1, 35098, Note_on_c, 0, 44, 119
1, 35386, Note_off_c, 0, 44, 119
1, 35888, Note_on_c, 0, 68, 117
1, 35933, Note_off_c, 0, 68, 117
1, 35935, Note_on_c, 0, 69, 109
1, 36213, Note_off_c, 0, 69, 109
1, 36217, Note_on_c, 0, 67, 104
1, 36245, Note_off_c, 0, 67, 104
1, 36251, Note_on_c, 0, 65, 102
1, 36269, Note_off_c, 0, 65, 102
1, 36272, Note_on_c, 0, 64, 118
1, 36321, Note_off_c, 0, 64, 118
1, 36323, Note_on_c, 0, 62, 116
1, 36379, Note_off_c, 0, 62, 116
1, 36389, Note_on_c, 0, 64, 119
1, 36422, Note_off_c, 0, 64, 119
1, 36426, Note_on_c, 0, 66, 106
1, 36442, Note_off_c, 0, 66, 106
1, 36444, Note_on_c, 0, 67, 112
1, 36481, Note_off_c, 0, 67, 112
1, 36483, Note_on_c, 0, 69, 116
1, 36528, Note_off_c, 0, 69, 116
1, 36541, Note_on_c, 0, 66, 111
1, 36589, Note_off_c, 0, 66, 111
1, 36598, Note_on_c, 0, 65, 107
1, 36623, Note_off_c, 0, 65, 107
1, 36627, Note_on_c, 0, 64, 123
1, 36672, Note_off_c, 0, 64, 123
1, 36684, Note_on_c, 0, 62, 115
1, 36721, Note_off_c, 0, 62, 115
1, 36726, Note_on_c, 0, 64, 120
1, 36768, Note_off_c, 0, 64, 120
1, 36777, Note_on_c, 0, 66, 107
1, 36806, Note_off_c, 0, 66, 107
1, 36814, Note_on_c, 0, 67, 115
1, 36847, Note_off_c, 0, 67, 115
1, 36851, Note_on_c, 0, 69, 119
1, 36921, Note_off_c, 0, 69, 119
1, 36931, Note_on_c, 0, 67, 117
1, 36981, Note_off_c, 0, 67, 117
1, 36990, Note_on_c, 0, 65, 110
1, 37011, Note_off_c, 0, 65, 110
1, 37021, Note_on_c, 0, 64, 121
1, 37069, Note_off_c, 0, 64, 121
1, 37077, Note_on_c, 0, 62, 120
1, 37121, Note_off_c, 0, 62, 120
1, 37128, Note_on_c, 0, 64, 116
1, 37163, Note_off_c, 0, 64, 116
1, 37164, Note_on_c, 0, 65, 114
1, 37189, Note_off_c, 0, 65, 114
1, 37196, Note_on_c, 0, 67, 114
1, 37233, Note_off_c, 0, 67, 114
1, 37241, Note_on_c, 0, 69, 119
1, 37290, Note_off_c, 0, 69, 119
1, 37302, Note_on_c, 0, 67, 116
1, 37352, Note_off_c, 0, 67, 116
1, 37358, Note_on_c, 0, 65, 109
1, 37384, Note_off_c, 0, 65, 109
1, 37395, Note_on_c, 0, 64, 121
1, 37445, Note_off_c, 0, 64, 121
1, 37455, Note_on_c, 0, 63, 117
1, 37495, Note_off_c, 0, 63, 117
1, 37496, Note_on_c, 0, 64, 119
1, 37521, Note_off_c, 0, 64, 119
1, 37528, Note_on_c, 0, 65, 115
1, 37561, Note_off_c, 0, 65, 115
1, 37567, Note_on_c, 0, 67, 105
1, 37587, Note_off_c, 0, 67, 105
1, 37593, Note_on_c, 0, 69, 117
1, 37671, Note_off_c, 0, 69, 117
1, 37681, Note_on_c, 0, 67, 113
1, 37722, Note_off_c, 0, 67, 113
1, 37728, Note_on_c, 0, 65, 106
1, 37753, Note_off_c, 0, 65, 106
1, 37764, Note_on_c, 0, 64, 120
1, 37826, Note_off_c, 0, 64, 120
1, 37838, Note_on_c, 0, 65, 105
1, 37891, Note_off_c, 0, 65, 105
1, 37901, Note_on_c, 0, 66, 109
1, 37932, Note_off_c, 0, 66, 109
1, 37936, Note_on_c, 0, 67, 98
1, 37969, Note_off_c, 0, 67, 98
1, 37978, Note_on_c, 0, 69, 112
1, 38028, Note_off_c, 0, 69, 112
1, 38034, Note_on_c, 0, 70, 111
1, 38079, Note_off_c, 0, 70, 111
1, 38083, Note_on_c, 0, 68, 111
1, 38110, Note_off_c, 0, 68, 111
1, 38115, Note_on_c, 0, 67, 116
1, 38162, Note_off_c, 0, 67, 116
1, 38168, Note_on_c, 0, 64, 115
1, 38221, Note_off_c, 0, 64, 115
1, 38237, Note_on_c, 0, 62, 121
1, 38284, Note_off_c, 0, 62, 121
1, 38292, Note_on_c, 0, 64, 111
1, 38316, Note_off_c, 0, 64, 111
1, 38320, Note_on_c, 0, 65, 110
1, 38340, Note_off_c, 0, 65, 110
1, 38344, Note_on_c, 0, 67, 114
1, 38387, Note_off_c, 0, 67, 114
1, 38395, Note_on_c, 0, 69, 115
1, 38436, Note_off_c, 0, 69, 115
1, 38445, Note_on_c, 0, 67, 112
1, 38494, Note_off_c, 0, 67, 112
1, 38500, Note_on_c, 0, 66, 100
1, 38516, Note_off_c, 0, 66, 100
1, 38521, Note_on_c, 0, 64, 110
1, 38573, Note_off_c, 0, 64, 110
1, 38581, Note_on_c, 0, 62, 118
1, 38638, Note_off_c, 0, 62, 118
1, 38643, Note_on_c, 0, 64, 108
1, 38665, Note_off_c, 0, 64, 108
1, 38668, Note_on_c, 0, 65, 109
1, 38692, Note_off_c, 0, 65, 109
1, 38699, Note_on_c, 0, 67, 111
1, 38729, Note_off_c, 0, 67, 111
1, 38737, Note_on_c, 0, 69, 114
1, 38795, Note_off_c, 0, 69, 114
1, 38806, Note_on_c, 0, 67, 111
1, 38847, Note_off_c, 0, 67, 111
1, 38860, Note_on_c, 0, 65, 101
1, 38879, Note_off_c, 0, 65, 101
1, 38885, Note_on_c, 0, 64, 114
1, 38944, Note_off_c, 0, 64, 114
1, 38948, Note_on_c, 0, 62, 117
1, 38996, Note_off_c, 0, 62, 117
1, 39003, Note_on_c, 0, 64, 111
1, 39026, Note_off_c, 0, 64, 111
1, 39033, Note_on_c, 0, 65, 107
1, 39062, Note_off_c, 0, 65, 107
1, 39065, Note_on_c, 0, 67, 111
1, 39099, Note_off_c, 0, 67, 111
1, 39102, Note_on_c, 0, 69, 114
1, 39159, Note_off_c, 0, 69, 114
1, 39173, Note_on_c, 0, 67, 110
1, 39212, Note_off_c, 0, 67, 110
1, 39221, Note_on_c, 0, 65, 101
1, 39252, Note_off_c, 0, 65, 101
1, 39264, Note_on_c, 0, 64, 110
1, 39305, Note_off_c, 0, 64, 110
1, 39320, Note_on_c, 0, 62, 122
1, 39365, Note_off_c, 0, 62, 122
1, 39374, Note_on_c, 0, 64, 111
1, 39403, Note_off_c, 0, 64, 111
1, 39409, Note_on_c, 0, 67, 114
1, 39470, Note_off_c, 0, 67, 114
1, 39477, Note_on_c, 0, 69, 116
1, 39530, Note_off_c, 0, 69, 116
1, 39544, Note_on_c, 0, 67, 111
1, 39581, Note_off_c, 0, 67, 111
1, 39585, Note_on_c, 0, 65, 110
1, 39628, Note_off_c, 0, 65, 110
1, 39637, Note_on_c, 0, 64, 111
1, 39687, Note_off_c, 0, 64, 111
1, 39699, Note_on_c, 0, 62, 118
1, 39799, Note_off_c, 0, 62, 118
1, 39818, Note_on_c, 0, 67, 111
1, 39878, Note_off_c, 0, 67, 111
1, 39897, Note_on_c, 0, 56, 121
1, 40059, Note_off_c, 0, 56, 121
1, 40382, Note_on_c, 0, 55, 116
1, 40596, Note_off_c, 0, 55, 116
1, 40613, Note_on_c, 0, 55, 120
1, 40653, Note_off_c, 0, 55, 120
1, 40666, Note_on_c, 0, 56, 120
1, 40746, Note_off_c, 0, 56, 120
1, 40756, Note_on_c, 0, 58, 120
1, 40828, Note_off_c, 0, 58, 120
1, 40842, Note_on_c, 0, 60, 120
1, 40918, Note_off_c, 0, 60, 120
1, 40935, Note_on_c, 0, 62, 123
1, 41017, Note_off_c, 0, 62, 123
1, 41028, Note_on_c, 0, 63, 122
1, 41120, Note_off_c, 0, 63, 122
1, 41130, Note_on_c, 0, 65, 124
1, 41188, Note_off_c, 0, 65, 124
1, 41200, Note_on_c, 0, 66, 123
1, 41232, Note_off_c, 0, 66, 123
1, 41238, Note_on_c, 0, 67, 120
1, 41380, Note_off_c, 0, 67, 120
1, 41412, Note_on_c, 0, 62, 118
1, 41483, Note_off_c, 0, 62, 118
1, 41492, Note_on_c, 0, 65, 119
1, 41567, Note_off_c, 0, 65, 119
1, 41573, Note_on_c, 0, 63, 115
1, 41762, Note_off_c, 0, 63, 115
1, 41780, Note_on_c, 0, 58, 116
1, 41853, Note_off_c, 0, 58, 116
1, 41875, Note_on_c, 0, 55, 114
1, 41938, Note_off_c, 0, 55, 114
1, 41955, Note_on_c, 0, 61, 122
1, 42036, Note_off_c, 0, 61, 122
1, 42041, Note_on_c, 0, 62, 116
1, 42135, Note_off_c, 0, 62, 116
1, 42151, Note_on_c, 0, 56, 113
1, 42239, Note_off_c, 0, 56, 113
1, 42253, Note_on_c, 0, 55, 107
1, 42314, Note_off_c, 0, 55, 107
1, 42327, Note_on_c, 0, 60, 120
1, 42425, Note_off_c, 0, 60, 120
1, 42445, Note_on_c, 0, 58, 115
1, 42502, Note_off_c, 0, 58, 115
1, 42529, Note_on_c, 0, 55, 113
1, 42623, Note_off_c, 0, 55, 113
1, 42647, Note_on_c, 0, 53, 109
1, 42790, Note_off_c, 0, 53, 109
1, 42804, Note_on_c, 0, 54, 108
1, 43039, Note_off_c, 0, 54, 108
1, 43087, Note_on_c, 0, 52, 108
1, 43122, Note_off_c, 0, 52, 108
1, 43127, Note_on_c, 0, 53, 110
1, 43213, Note_off_c, 0, 53, 110
1, 43230, Note_on_c, 0, 51, 108
1, 43347, Note_off_c, 0, 51, 108
1, 43866, Note_on_c, 0, 71, 118
1, 43924, Note_off_c, 0, 71, 118
1, 43937, Note_on_c, 0, 72, 117
1, 44144, Note_off_c, 0, 72, 117
1, 44152, Note_on_c, 0, 70, 114
1, 44418, Note_off_c, 0, 70, 114
1, 44432, Note_on_c, 0, 67, 117
1, 44551, Note_off_c, 0, 67, 117
1, 44580, Note_on_c, 0, 63, 101
1, 44632, Note_off_c, 0, 63, 101
1, 44642, Note_on_c, 0, 68, 119
1, 44772, Note_off_c, 0, 68, 119
1, 44917, Note_on_c, 0, 70, 117
1, 45009, Note_off_c, 0, 70, 117
1, 45014, Note_on_c, 0, 67, 115
1, 45085, Note_off_c, 0, 67, 115
1, 45101, Note_on_c, 0, 62, 119
1, 45199, Note_off_c, 0, 62, 119
1, 45209, Note_on_c, 0, 58, 112
1, 45334, Note_off_c, 0, 58, 112
1, 45355, Note_on_c, 0, 63, 123
1, 45477, Note_off_c, 0, 63, 123
1, 45486, Note_on_c, 0, 60, 113
1, 45572, Note_off_c, 0, 60, 113
1, 45669, Note_on_c, 0, 65, 118
1, 45755, Note_off_c, 0, 65, 118
1, 46038, Note_on_c, 0, 67, 120
1, 46138, Note_off_c, 0, 67, 120
1, 46146, Note_on_c, 0, 66, 119
1, 46212, Note_off_c, 0, 66, 119
1, 46223, Note_on_c, 0, 65, 115
1, 46291, Note_off_c, 0, 65, 115
1, 46307, Note_on_c, 0, 66, 117
1, 46343, Note_off_c, 0, 66, 117
1, 46345, Note_on_c, 0, 65, 115
1, 46380, Note_off_c, 0, 65, 115
1, 46389, Note_on_c, 0, 64, 120
1, 46500, Note_off_c, 0, 64, 120
1, 46513, Note_on_c, 0, 63, 121
1, 46587, Note_off_c, 0, 63, 121
1, 46598, Note_on_c, 0, 62, 121
1, 46695, Note_off_c, 0, 62, 121
1, 46704, Note_on_c, 0, 61, 119
1, 46788, Note_off_c, 0, 61, 119
1, 46801, Note_on_c, 0, 59, 118
1, 46868, Note_off_c, 0, 59, 118
1, 46873, Note_on_c, 0, 58, 116
1, 46891, Note_off_c, 0, 58, 116
1, 46897, Note_on_c, 0, 56, 116
1, 46976, Note_off_c, 0, 56, 116
1, 46989, Note_on_c, 0, 54, 10
1, 47052, Note_off_c, 0, 54, 10
1, 47076, Note_on_c, 0, 58, 119
1, 47173, Note_off_c, 0, 58, 119
1, 47267, Note_on_c, 0, 57, 118
1, 47384, Note_off_c, 0, 57, 118
1, 47584, Note_on_c, 0, 58, 119
1, 47649, Note_off_c, 0, 58, 119
1, 47668, Note_on_c, 0, 55, 109
1, 47728, Note_off_c, 0, 55, 109
1, 47737, Note_on_c, 0, 61, 116
1, 47816, Note_off_c, 0, 61, 116
1, 47829, Note_on_c, 0, 59, 110
1, 47929, Note_off_c, 0, 59, 110
1, 48024, Note_on_c, 0, 63, 119
1, 48135, Note_off_c, 0, 63, 119
1, 48149, Note_on_c, 0, 60, 104
1, 48277, Note_off_c, 0, 60, 104
1, 48299, Note_on_c, 0, 64, 119
1, 48370, Note_off_c, 0, 64, 119
1, 48412, Note_on_c, 0, 61, 104
1, 48480, Note_off_c, 0, 61, 104
1, 48482, Note_on_c, 0, 65, 113
1, 48562, Note_off_c, 0, 65, 113
1, 48570, Note_on_c, 0, 62, 114
1, 48668, Note_off_c, 0, 62, 114
1, 48679, Note_on_c, 0, 66, 115
1, 48757, Note_off_c, 0, 66, 115
1, 48808, Note_on_c, 0, 63, 111
1, 48860, Note_off_c, 0, 63, 111
1, 48885, Note_on_c, 0, 66, 118
1, 48944, Note_off_c, 0, 66, 118
1, 48953, Note_on_c, 0, 64, 112
1, 49066, Note_off_c, 0, 64, 112
1, 49077, Note_on_c, 0, 67, 118
1, 49135, Note_off_c, 0, 67, 118
1, 49164, Note_on_c, 0, 66, 101
1, 49225, Note_off_c, 0, 66, 101
1, 49245, Note_on_c, 0, 68, 112
1, 49318, Note_off_c, 0, 68, 112
1, 49334, Note_on_c, 0, 65, 108
1, 49417, Note_off_c, 0, 65, 108
1, 49425, Note_on_c, 0, 66, 108
1, 49515, Note_off_c, 0, 66, 108
1, 49535, Note_on_c, 0, 69, 116
1, 49613, Note_off_c, 0, 69, 116
1, 49701, Note_on_c, 0, 70, 97
1, 49717, Note_off_c, 0, 70, 97
1, 49719, Note_on_c, 0, 69, 115
1, 49794, Note_off_c, 0, 69, 115
1, 49803, Note_on_c, 0, 70, 114
1, 49936, Note_off_c, 0, 70, 114
1, 49940, Note_on_c, 0, 69, 107
1, 50018, Note_off_c, 0, 69, 107
1, 50039, Note_on_c, 0, 64, 104
1, 50106, Note_off_c, 0, 64, 104
1, 50117, Note_on_c, 0, 61, 109
1, 50223, Note_off_c, 0, 61, 109
1, 50313, Note_on_c, 0, 65, 103
1, 50404, Note_off_c, 0, 65, 103
1, 50407, Note_on_c, 0, 64, 105
1, 50428, Note_off_c, 0, 64, 105
1, 50440, Note_on_c, 0, 60, 112
1, 50523, Note_off_c, 0, 60, 112
1, 50532, Note_on_c, 0, 57, 103
1, 50601, Note_off_c, 0, 57, 103
1, 50977, Note_on_c, 0, 68, 124
1, 51030, Note_off_c, 0, 68, 124
1, 51049, Note_on_c, 0, 69, 121
1, 51207, Note_off_c, 0, 69, 121
1, 51223, Note_on_c, 0, 67, 117
1, 51319, Note_off_c, 0, 67, 117
1, 51341, Note_on_c, 0, 65, 119
1, 51408, Note_off_c, 0, 65, 119
1, 51424, Note_on_c, 0, 62, 117
1, 51607, Note_off_c, 0, 62, 117
1, 51621, Note_on_c, 0, 60, 118
1, 51712, Note_off_c, 0, 60, 118
1, 51728, Note_on_c, 0, 58, 113
1, 51986, Note_off_c, 0, 58, 113
1, 52002, Note_on_c, 0, 55, 112
1, 52117, Note_off_c, 0, 55, 112
1, 52126, Note_on_c, 0, 53, 102
1, 52191, Note_off_c, 0, 53, 102
1, 52195, Note_on_c, 0, 57, 122
1, 52299, Note_off_c, 0, 57, 122
1, 52305, Note_on_c, 0, 54, 112
1, 52358, Note_off_c, 0, 54, 112
1, 52364, Note_on_c, 0, 55, 115
1, 52479, Note_off_c, 0, 55, 115
1, 52493, Note_on_c, 0, 57, 116
1, 52545, Note_off_c, 0, 57, 116
1, 52551, Note_on_c, 0, 58, 122
1, 52631, Note_off_c, 0, 58, 122
1, 52644, Note_on_c, 0, 60, 120
1, 52697, Note_off_c, 0, 60, 120
1, 52711, Note_on_c, 0, 62, 116
1, 52758, Note_off_c, 0, 62, 116
1, 52766, Note_on_c, 0, 64, 104
1, 52784, Note_off_c, 0, 64, 104
1, 52793, Note_on_c, 0, 65, 114
1, 52864, Note_off_c, 0, 65, 114
1, 52868, Note_on_c, 0, 62, 110
1, 52896, Note_off_c, 0, 62, 110
1, 52935, Note_on_c, 0, 69, 119
1, 53202, Note_off_c, 0, 69, 119
1, 53215, Note_on_c, 0, 67, 107
1, 54421, Note_off_c, 0, 67, 107
1, 54450, Note_on_c, 0, 65, 108
1, 54540, Note_off_c, 0, 65, 108
1, 54562, Note_on_c, 0, 62, 114
1, 54634, Note_off_c, 0, 62, 114
1, 55576, Note_on_c, 0, 68, 123
1, 55688, Note_off_c, 0, 68, 123
1, 55695, Note_on_c, 0, 67, 111
1, 55743, Note_off_c, 0, 67, 111
1, 55749, Note_on_c, 0, 68, 121
1, 55849, Note_off_c, 0, 68, 121
1, 55854, Note_on_c, 0, 67, 121
1, 55942, Note_off_c, 0, 67, 121
1, 55950, Note_on_c, 0, 65, 120
1, 56040, Note_off_c, 0, 65, 120
1, 56049, Note_on_c, 0, 62, 124
1, 56135, Note_off_c, 0, 62, 124
1, 56146, Note_on_c, 0, 58, 113
1, 56219, Note_off_c, 0, 58, 113
1, 56235, Note_on_c, 0, 55, 113
1, 56302, Note_off_c, 0, 55, 113
1, 56305, Note_on_c, 0, 60, 122
1, 56413, Note_off_c, 0, 60, 122
1, 56424, Note_on_c, 0, 62, 127
1, 56467, Note_off_c, 0, 62, 127
1, 56478, Note_on_c, 0, 63, 123
1, 56684, Note_off_c, 0, 63, 123
1, 56692, Note_on_c, 0, 62, 124
1, 56806, Note_off_c, 0, 62, 124
1, 56819, Note_on_c, 0, 58, 117
1, 56995, Note_off_c, 0, 58, 117
1, 57009, Note_on_c, 0, 55, 111
1, 57048, Note_off_c, 0, 55, 111
1, 57067, Note_on_c, 0, 60, 120
1, 57170, Note_off_c, 0, 60, 120
1, 57183, Note_on_c, 0, 63, 122
1, 57437, Note_off_c, 0, 63, 122
1, 57443, Note_on_c, 0, 62, 122
1, 57525, Note_off_c, 0, 62, 122
1, 57536, Note_on_c, 0, 58, 118
1, 57615, Note_off_c, 0, 58, 118
1, 57631, Note_on_c, 0, 55, 118
1, 57729, Note_off_c, 0, 55, 118
1, 57756, Note_on_c, 0, 57, 119
1, 58117, Note_off_c, 0, 57, 119
1, 58126, Note_on_c, 0, 55, 114
1, 58182, Note_off_c, 0, 55, 114
1, 58186, Note_on_c, 0, 57, 118
1, 58488, Note_off_c, 0, 57, 118
1, 58499, Note_on_c, 0, 55, 112
1, 58567, Note_off_c, 0, 55, 112
1, 58576, Note_on_c, 0, 57, 117
1, 58883, Note_off_c, 0, 57, 117
1, 58891, Note_on_c, 0, 55, 111
1, 58963, Note_off_c, 0, 55, 111
1, 58974, Note_on_c, 0, 57, 120
1, 59080, Note_off_c, 0, 57, 120
1, 59091, Note_on_c, 0, 55, 120
1, 59146, Note_off_c, 0, 55, 120
1, 59159, Note_on_c, 0, 52, 116
1, 59254, Note_off_c, 0, 52, 116
1, 59276, Note_on_c, 0, 50, 117
1, 59397, Note_off_c, 0, 50, 117
1, 59816, Note_on_c, 0, 57, 124
1, 59887, Note_off_c, 0, 57, 124
1, 59897, Note_on_c, 0, 55, 123
1, 60000, Note_off_c, 0, 55, 123
1, 60005, Note_on_c, 0, 58, 116
1, 60240, Note_off_c, 0, 58, 116
1, 60262, Note_on_c, 0, 55, 117
1, 60364, Note_off_c, 0, 55, 117
1, 60384, Note_on_c, 0, 53, 97
1, 60455, Note_off_c, 0, 53, 97
1, 60492, Note_on_c, 0, 68, 116
1, 60571, Note_off_c, 0, 68, 116
1, 60580, Note_on_c, 0, 64, 115
1, 60670, Note_off_c, 0, 64, 115
1, 61257, Note_on_c, 0, 45, 121
1, 61333, Note_off_c, 0, 45, 121
1, 61338, Note_on_c, 0, 46, 113
1, 61419, Note_off_c, 0, 46, 113
1, 61438, Note_on_c, 0, 49, 121
1, 61479, Note_off_c, 0, 49, 121
1, 61487, Note_on_c, 0, 50, 101
1, 61566, Note_off_c, 0, 50, 101
1, 61582, Note_on_c, 0, 53, 109
1, 61625, Note_off_c, 0, 53, 109
1, 61638, Note_on_c, 0, 57, 120
1, 61721, Note_off_c, 0, 57, 120
1, 61740, Note_on_c, 0, 58, 116
1, 61804, Note_off_c, 0, 58, 116
1, 61816, Note_on_c, 0, 62, 114
1, 61895, Note_off_c, 0, 62, 114
1, 61905, Note_on_c, 0, 65, 104
1, 61945, Note_off_c, 0, 65, 104
1, 61974, Note_on_c, 0, 69, 117
1, 62081, Note_off_c, 0, 69, 117
1, 62094, Note_on_c, 0, 72, 109
1, 62152, Note_off_c, 0, 72, 109
1, 62167, Note_on_c, 0, 73, 104
1, 62363, Note_off_c, 0, 73, 104
1, 62750, Note_on_c, 0, 77, 113
1, 62902, Note_off_c, 0, 77, 113
1, 63142, Note_on_c, 0, 74, 115
1, 63215, Note_off_c, 0, 74, 115
1, 63244, Note_on_c, 0, 70, 111
1, 63288, Note_off_c, 0, 70, 111
1, 63309, Note_on_c, 0, 67, 119
1, 63384, Note_off_c, 0, 67, 119
1, 63401, Note_on_c, 0, 62, 110
1, 63519, Note_off_c, 0, 62, 110
1, 63532, Note_on_c, 0, 65, 112
1, 63792, Note_off_c, 0, 65, 112
1, 63804, Note_on_c, 0, 62, 106
1, 63877, Note_off_c, 0, 62, 106
1, 63881, Note_on_c, 0, 64, 116
1, 63897, Note_off_c, 0, 64, 116
1, 63905, Note_on_c, 0, 65, 112
1, 64157, Note_off_c, 0, 65, 112
1, 64168, Note_on_c, 0, 62, 103
1, 64243, Note_off_c, 0, 62, 103
1, 64252, Note_on_c, 0, 64, 115
1, 64262, Note_off_c, 0, 64, 115
1, 64266, Note_on_c, 0, 65, 114
1, 64356, Note_off_c, 0, 65, 114
1, 64358, Note_on_c, 0, 67, 119
1, 64431, Note_off_c, 0, 67, 119
1, 64432, Note_on_c, 0, 68, 119
1, 64526, Note_off_c, 0, 68, 119
1, 64528, Note_on_c, 0, 67, 118
1, 64617, Note_off_c, 0, 67, 118
1, 64621, Note_on_c, 0, 65, 112
1, 64692, Note_off_c, 0, 65, 112
1, 64712, Note_on_c, 0, 63, 121
1, 64802, Note_off_c, 0, 63, 121
1, 64810, Note_on_c, 0, 62, 114
1, 64905, Note_off_c, 0, 62, 114
1, 64909, Note_on_c, 0, 60, 119
1, 64987, Note_off_c, 0, 60, 119
1, 64997, Note_on_c, 0, 58, 115
1, 65057, Note_off_c, 0, 58, 115
1, 65272, Note_on_c, 0, 57, 122
1, 65352, Note_off_c, 0, 57, 122
1, 65357, Note_on_c, 0, 56, 115
1, 65522, Note_off_c, 0, 56, 115
1, 65532, Note_on_c, 0, 58, 118
1, 65622, Note_off_c, 0, 58, 118
1, 65636, Note_on_c, 0, 55, 116
1, 66098, Note_off_c, 0, 55, 116
1, 66136, Note_on_c, 0, 53, 110
1, 66231, Note_off_c, 0, 53, 110
1, 66245, Note_on_c, 0, 51, 109
1, 66315, Note_off_c, 0, 51, 109
1, 66324, Note_on_c, 0, 50, 101
1, 66371, Note_off_c, 0, 50, 101
1, 66398, Note_on_c, 0, 52, 101
1, 66456, Note_off_c, 0, 52, 101
1, 66477, Note_on_c, 0, 55, 115
1, 66604, Note_off_c, 0, 55, 115
1, 66620, Note_on_c, 0, 53, 110
1, 66679, Note_off_c, 0, 53, 110
1, 66684, Note_on_c, 0, 52, 108
1, 66797, Note_off_c, 0, 52, 108
1, 66803, Note_on_c, 0, 53, 112
1, 66854, Note_off_c, 0, 53, 112
1, 66865, Note_on_c, 0, 56, 116
1, 66976, Note_off_c, 0, 56, 116
1, 66982, Note_on_c, 0, 55, 114
1, 67046, Note_off_c, 0, 55, 114
1, 67062, Note_on_c, 0, 54, 103
1, 67196, Note_off_c, 0, 54, 103
1, 67212, Note_on_c, 0, 56, 101
1, 67231, Note_off_c, 0, 56, 101
1, 67247, Note_on_c, 0, 60, 110
1, 67619, Note_off_c, 0, 60, 110
1, 67639, Note_on_c, 0, 58, 116
1, 67723, Note_off_c, 0, 58, 116
1, 67739, Note_on_c, 0, 55, 114
1, 67787, Note_off_c, 0, 55, 114
1, 67798, Note_on_c, 0, 50, 109
1, 67924, Note_off_c, 0, 50, 109
1, 68002, Note_on_c, 0, 56, 116
1, 68108, Note_off_c, 0, 56, 116
1, 68112, Note_on_c, 0, 55, 117
1, 68191, Note_off_c, 0, 55, 117
1, 69091, Note_on_c, 0, 70, 120
1, 69167, Note_off_c, 0, 70, 120
1, 69176, Note_on_c, 0, 74, 115
1, 69341, Note_off_c, 0, 74, 115
1, 69354, Note_on_c, 0, 68, 103
1, 69443, Note_off_c, 0, 68, 103
1, 69461, Note_on_c, 0, 72, 121
1, 69526, Note_off_c, 0, 72, 121
1, 69535, Note_on_c, 0, 66, 111
1, 69711, Note_off_c, 0, 66, 111
1, 69751, Note_on_c, 0, 70, 117
1, 69837, Note_off_c, 0, 70, 117
1, 69849, Note_on_c, 0, 67, 107
1, 69920, Note_off_c, 0, 67, 107
1, 69928, Note_on_c, 0, 68, 119
1, 70085, Note_off_c, 0, 68, 119
1, 70130, Note_on_c, 0, 64, 114
1, 70205, Note_off_c, 0, 64, 114
1, 70213, Note_on_c, 0, 68, 122
1, 70279, Note_off_c, 0, 68, 122
1, 70293, Note_on_c, 0, 63, 118
1, 70401, Note_off_c, 0, 63, 118
1, 70405, Note_on_c, 0, 66, 112
1, 70465, Note_off_c, 0, 66, 112
1, 70493, Note_on_c, 0, 66, 113
1, 70575, Note_off_c, 0, 66, 113
1, 70600, Note_on_c, 0, 62, 118
1, 70667, Note_off_c, 0, 62, 118
1, 70683, Note_on_c, 0, 59, 116
1, 70756, Note_off_c, 0, 59, 116
1, 70761, Note_on_c, 0, 56, 119
1, 70832, Note_off_c, 0, 56, 119
1, 70853, Note_on_c, 0, 64, 125
1, 70947, Note_off_c, 0, 64, 125
1, 70955, Note_on_c, 0, 63, 117
1, 71016, Note_off_c, 0, 63, 117
1, 71034, Note_on_c, 0, 58, 117
1, 71134, Note_off_c, 0, 58, 117
1, 71160, Note_on_c, 0, 54, 113
1, 71205, Note_off_c, 0, 54, 113
1, 71216, Note_on_c, 0, 62, 119
1, 71311, Note_off_c, 0, 62, 119
1, 71337, Note_on_c, 0, 61, 119
1, 71400, Note_off_c, 0, 61, 119
1, 71421, Note_on_c, 0, 57, 120
1, 71524, Note_off_c, 0, 57, 120
1, 71607, Note_on_c, 0, 61, 119
1, 71699, Note_off_c, 0, 61, 119
1, 71703, Note_on_c, 0, 60, 116
1, 71794, Note_off_c, 0, 60, 116
1, 71811, Note_on_c, 0, 56, 117
1, 71909, Note_off_c, 0, 56, 117
1, 71925, Note_on_c, 0, 54, 107
1, 71994, Note_off_c, 0, 54, 107
1, 72010, Note_on_c, 0, 58, 118
1, 72127, Note_off_c, 0, 58, 118
1, 72139, Note_on_c, 0, 54, 104
1, 72197, Note_off_c, 0, 54, 104
1, 72210, Note_on_c, 0, 57, 122
1, 72458, Note_off_c, 0, 57, 122
1, 72501, Note_on_c, 0, 57, 121
1, 72588, Note_off_c, 0, 57, 121
1, 72614, Note_on_c, 0, 55, 115
1, 72711, Note_off_c, 0, 55, 115
1, 72767, Note_on_c, 0, 58, 116
1, 72867, Note_off_c, 0, 58, 116
1, 72938, Note_on_c, 0, 61, 117
1, 73094, Note_off_c, 0, 61, 117
1, 73113, Note_on_c, 0, 59, 109
1, 73211, Note_off_c, 0, 59, 109
1, 73228, Note_on_c, 0, 56, 117
1, 73306, Note_off_c, 0, 56, 117
1, 73336, Note_on_c, 0, 64, 115
1, 73439, Note_off_c, 0, 64, 115
1, 73646, Note_on_c, 0, 69, 114
1, 73676, Note_off_c, 0, 69, 114
1, 73687, Note_on_c, 0, 71, 115
1, 73785, Note_off_c, 0, 71, 115
1, 73881, Note_on_c, 0, 70, 114
1, 73945, Note_off_c, 0, 70, 114
1, 73951, Note_on_c, 0, 71, 114
1, 74003, Note_off_c, 0, 71, 114
1, 74007, Note_on_c, 0, 68, 116
1, 74054, Note_off_c, 0, 68, 116
1, 74068, Note_on_c, 0, 64, 120
1, 74144, Note_off_c, 0, 64, 120
1, 74170, Note_on_c, 0, 67, 118
1, 74235, Note_off_c, 0, 67, 118
1, 74261, Note_on_c, 0, 65, 107
1, 74345, Note_off_c, 0, 65, 107
1, 74369, Note_on_c, 0, 61, 120
1, 74449, Note_off_c, 0, 61, 120
1, 74469, Note_on_c, 0, 59, 115
1, 74548, Note_off_c, 0, 59, 115
1, 74565, Note_on_c, 0, 56, 113
1, 74629, Note_off_c, 0, 56, 113
1, 74643, Note_on_c, 0, 63, 118
1, 74730, Note_off_c, 0, 63, 118
1, 74744, Note_on_c, 0, 58, 114
1, 74851, Note_off_c, 0, 58, 114
1, 74861, Note_on_c, 0, 54, 107
1, 74910, Note_off_c, 0, 54, 107
1, 74922, Note_on_c, 0, 50, 101
1, 74979, Note_off_c, 0, 50, 101
1, 75024, Note_on_c, 0, 57, 120
1, 75114, Note_off_c, 0, 57, 120
1, 75139, Note_on_c, 0, 54, 108
1, 75206, Note_off_c, 0, 54, 108
1, 75215, Note_on_c, 0, 55, 118
1, 75336, Note_off_c, 0, 55, 118
1, 75583, Note_on_c, 0, 66, 118
1, 75645, Note_off_c, 0, 66, 118
1, 75657, Note_on_c, 0, 67, 118
1, 76039, Note_off_c, 0, 67, 118
1, 76045, Note_on_c, 0, 67, 115
1, 76119, Note_off_c, 0, 67, 115
1, 76146, Note_on_c, 0, 66, 118
1, 76237, Note_off_c, 0, 66, 118
1, 76253, Note_on_c, 0, 66, 113
1, 76311, Note_off_c, 0, 66, 113
1, 76326, Note_on_c, 0, 65, 116
1, 76424, Note_off_c, 0, 65, 116
1, 76436, Note_on_c, 0, 65, 118
1, 76504, Note_off_c, 0, 65, 118
1, 76518, Note_on_c, 0, 63, 123
1, 76614, Note_off_c, 0, 63, 123
1, 76625, Note_on_c, 0, 63, 122
1, 76686, Note_off_c, 0, 63, 122
1, 76698, Note_on_c, 0, 62, 117
1, 76799, Note_off_c, 0, 62, 117
1, 76819, Note_on_c, 0, 62, 123
1, 76881, Note_off_c, 0, 62, 123
1, 76891, Note_on_c, 0, 60, 122
1, 76997, Note_off_c, 0, 60, 122
1, 77005, Note_on_c, 0, 60, 119
1, 77072, Note_off_c, 0, 60, 119
1, 77082, Note_on_c, 0, 58, 123
1, 77215, Note_off_c, 0, 58, 123
1, 77356, Note_on_c, 0, 57, 117
1, 77626, Note_off_c, 0, 57, 117
1, 77626, End_track
0, 0, End_of_file
