0, 0, Header, 1, 1, 840
1, 0, Start_track
1, 0, Title_t, "Melody"
1, 0, Tempo, 392156
1, 0, Key_signature, -3, "major"
1, 0, Time_signature, 4, 2, 24, 8
1, 9288, Note_on_c, 0, 63, 121
1, 9673, Note_off_c, 0, 63, 121
1, 9722, Note_on_c, 0, 63, 124
1, 10095, Note_off_c, 0, 63, 124
1, 10095, Note_on_c, 0, 65, 122
1, 10281, Note_off_c, 0, 65, 122
1, 10281, Note_on_c, 0, 67, 119
1, 10591, Note_off_c, 0, 67, 119
1, 10653, Note_on_c, 0, 63, 118
1, 15166, Note_off_c, 0, 63, 118
1, 15190, Note_on_c, 0, 61, 115
1, 15401, Note_off_c, 0, 61, 115
1, 15401, Note_on_c, 0, 58, 109
1, 15724, Note_off_c, 0, 58, 109
1, 15761, Note_on_c, 0, 61, 116
1, 15997, Note_off_c, 0, 61, 116
1, 16021, Note_on_c, 0, 63, 120
1, 16257, Note_off_c, 0, 63, 120
1, 16269, Note_on_c, 0, 65, 123
1, 16579, Note_off_c, 0, 65, 123
1, 16989, Note_on_c, 0, 58, 106
1, 17237, Note_off_c, 0, 58, 106
1, 17572, Note_on_c, 0, 63, 119
1, 17808, Note_off_c, 0, 63, 119
1, 17882, Note_on_c, 0, 65, 118
1, 18192, Note_off_c, 0, 65, 118
1, 18440, Note_on_c, 0, 66, 119
1, 18638, Note_off_c, 0, 66, 119
1, 18675, Note_on_c, 0, 67, 120
1, 18911, Note_off_c, 0, 67, 120
1, 18923, Note_on_c, 0, 63, 122
1, 21223, Note_off_c, 0, 63, 122
1, 21632, Note_on_c, 0, 61, 118
1, 21964, Note_off_c, 0, 61, 118
1, 21981, Note_on_c, 0, 58, 107
1, 22269, Note_off_c, 0, 58, 107
1, 22338, Note_on_c, 0, 61, 115
1, 22661, Note_off_c, 0, 61, 115
1, 22695, Note_on_c, 0, 58, 107
1, 22957, Note_off_c, 0, 58, 107
1, 22957, Note_on_c, 0, 56, 110
1, 23245, Note_on_c, 0, 58, 105
1, 23245, Note_off_c, 0, 56, 110
1, 23463, Note_off_c, 0, 58, 105
1, 23559, Note_on_c, 0, 54, 106
1, 23768, Note_off_c, 0, 54, 106
1, 23768, Note_on_c, 0, 55, 105
1, 24030, Note_off_c, 0, 55, 105
1, 24108, Note_on_c, 0, 51, 96
1, 26319, Note_off_c, 0, 51, 96
1, 29256, Note_on_c, 0, 68, 123
1, 29527, Note_off_c, 0, 68, 123
1, 29570, Note_on_c, 0, 68, 123
1, 29858, Note_off_c, 0, 68, 123
1, 29954, Note_on_c, 0, 71, 125
1, 30163, Note_off_c, 0, 71, 125
1, 30215, Note_on_c, 0, 72, 123
1, 30486, Note_off_c, 0, 72, 123
1, 30486, Note_on_c, 0, 68, 121
1, 32593, Note_off_c, 0, 68, 121
1, 32636, Note_on_c, 0, 66, 115
1, 32845, Note_off_c, 0, 66, 115
1, 32845, Note_on_c, 0, 63, 115
1, 33063, Note_off_c, 0, 63, 115
1, 33071, Note_on_c, 0, 66, 117
1, 33315, Note_off_c, 0, 66, 117
1, 33376, Note_on_c, 0, 68, 108
1, 33664, Note_off_c, 0, 68, 108
1, 33672, Note_on_c, 0, 70, 119
1, 33908, Note_off_c, 0, 70, 119
1, 34021, Note_on_c, 0, 68, 120
1, 34335, Note_off_c, 0, 68, 120
1, 34361, Note_on_c, 0, 66, 112
1, 34710, Note_off_c, 0, 66, 112
1, 34710, Note_on_c, 0, 63, 108
1, 35942, Note_off_c, 0, 63, 108
1, 37914, Note_on_c, 0, 68, 120
1, 38168, Note_off_c, 0, 68, 120
1, 38187, Note_on_c, 0, 71, 119
1, 38414, Note_off_c, 0, 71, 119
1, 38440, Note_on_c, 0, 72, 119
1, 38632, Note_off_c, 0, 72, 119
1, 38675, Note_on_c, 0, 68, 121
1, 39346, Note_off_c, 0, 68, 121
1, 39390, Note_on_c, 0, 71, 123
1, 39569, Note_off_c, 0, 71, 123
1, 39569, Note_on_c, 0, 72, 121
1, 39799, Note_on_c, 0, 68, 123
1, 39799, Note_off_c, 0, 72, 121
1, 40196, Note_off_c, 0, 68, 123
1, 40258, Note_on_c, 0, 71, 123
1, 40568, Note_off_c, 0, 71, 123
1, 40568, Note_on_c, 0, 72, 118
1, 40891, Note_off_c, 0, 72, 118
1, 40909, Note_on_c, 0, 68, 122
1, 41387, Note_off_c, 0, 68, 122
1, 41399, Note_on_c, 0, 63, 124
1, 41622, Note_off_c, 0, 63, 124
1, 41808, Note_on_c, 0, 66, 116
1, 42927, Note_off_c, 0, 66, 116
1, 42970, Note_on_c, 0, 63, 121
1, 43274, Note_off_c, 0, 63, 121
1, 43404, Note_on_c, 0, 66, 114
1, 43814, Note_off_c, 0, 66, 114
1, 43832, Note_on_c, 0, 63, 118
1, 44658, Note_off_c, 0, 63, 118
1, 44670, Note_on_c, 0, 66, 115
1, 44781, Note_off_c, 0, 66, 115
1, 44818, Note_on_c, 0, 67, 107
1, 44992, Note_off_c, 0, 67, 107
1, 45035, Note_on_c, 0, 63, 114
1, 45924, Note_off_c, 0, 63, 114
1, 45986, Note_on_c, 0, 61, 113
1, 46203, Note_off_c, 0, 61, 113
1, 46258, Note_on_c, 0, 63, 115
1, 47283, Note_off_c, 0, 63, 115
1, 47314, Note_on_c, 0, 66, 112
1, 47512, Note_off_c, 0, 66, 112
1, 47512, Note_on_c, 0, 67, 109
1, 47729, Note_off_c, 0, 67, 109
1, 47741, Note_on_c, 0, 63, 117
1, 48549, Note_off_c, 0, 63, 117
1, 48586, Note_on_c, 0, 61, 116
1, 48778, Note_off_c, 0, 61, 116
1, 48809, Note_on_c, 0, 63, 116
1, 49020, Note_off_c, 0, 63, 116
1, 49044, Note_on_c, 0, 66, 110
1, 49180, Note_off_c, 0, 66, 110
1, 49204, Note_on_c, 0, 67, 104
1, 49396, Note_off_c, 0, 67, 104
1, 49445, Note_on_c, 0, 63, 116
1, 49923, Note_off_c, 0, 63, 116
1, 49929, Note_on_c, 0, 61, 114
1, 50078, Note_off_c, 0, 61, 114
1, 50084, Note_on_c, 0, 63, 115
1, 50637, Note_off_c, 0, 63, 115
1, 50661, Note_on_c, 0, 66, 114
1, 50816, Note_off_c, 0, 66, 114
1, 50840, Note_on_c, 0, 67, 112
1, 51026, Note_off_c, 0, 67, 112
1, 51057, Note_on_c, 0, 63, 116
1, 52275, Note_off_c, 0, 63, 116
1, 52281, Note_on_c, 0, 61, 109
1, 52448, Note_off_c, 0, 61, 109
1, 52479, Note_on_c, 0, 63, 116
1, 52590, Note_on_c, 0, 66, 111
1, 52590, Note_off_c, 0, 63, 116
1, 52739, Note_off_c, 0, 66, 111
1, 52763, Note_on_c, 0, 67, 108
1, 52912, Note_off_c, 0, 67, 108
1, 52936, Note_on_c, 0, 63, 114
1, 53849, Note_off_c, 0, 63, 114
1, 53855, Note_on_c, 0, 61, 113
1, 54308, Note_off_c, 0, 61, 113
1, 54314, Note_on_c, 0, 63, 116
1, 55544, Note_off_c, 0, 63, 116
1, 60137, Note_on_c, 0, 68, 127
1, 60311, Note_on_c, 0, 67, 121
1, 60311, Note_off_c, 0, 68, 127
1, 60485, Note_off_c, 0, 67, 121
1, 60485, Note_on_c, 0, 66, 117
1, 60589, Note_off_c, 0, 66, 117
1, 60606, Note_on_c, 0, 65, 119
1, 61244, Note_off_c, 0, 65, 119
1, 61270, Note_on_c, 0, 63, 118
1, 61409, Note_off_c, 0, 63, 118
1, 61435, Note_on_c, 0, 62, 120
1, 62081, Note_off_c, 0, 62, 120
1, 62103, Note_on_c, 0, 61, 117
1, 62174, Note_off_c, 0, 61, 117
1, 62195, Note_on_c, 0, 60, 112
1, 62260, Note_off_c, 0, 60, 112
1, 62275, Note_on_c, 0, 59, 107
1, 62340, Note_off_c, 0, 59, 107
1, 62367, Note_on_c, 0, 58, 103
1, 62987, Note_off_c, 0, 58, 103
1, 62995, Note_on_c, 0, 57, 103
1, 63108, Note_off_c, 0, 57, 103
1, 63142, Note_on_c, 0, 56, 103
1, 63666, Note_off_c, 0, 56, 103
1, 63679, Note_on_c, 0, 55, 104
1, 63762, Note_off_c, 0, 55, 104
1, 63789, Note_on_c, 0, 54, 105
1, 63869, Note_off_c, 0, 54, 105
1, 63899, Note_on_c, 0, 53, 116
1, 64467, Note_off_c, 0, 53, 116
1, 64528, Note_on_c, 0, 52, 107
1, 64650, Note_off_c, 0, 52, 107
1, 64676, Note_on_c, 0, 51, 107
1, 64833, Note_off_c, 0, 51, 107
1, 64867, Note_on_c, 0, 50, 109
1, 65505, Note_off_c, 0, 50, 109
1, 65505, Note_on_c, 0, 53, 114
1, 65697, Note_off_c, 0, 53, 114
1, 65740, Note_on_c, 0, 56, 107
1, 66317, Note_off_c, 0, 56, 107
1, 68013, Note_on_c, 0, 56, 103
1, 68222, Note_on_c, 0, 60, 109
1, 68222, Note_off_c, 0, 56, 103
1, 68423, Note_off_c, 0, 60, 109
1, 68474, Note_on_c, 0, 63, 108
1, 68701, Note_off_c, 0, 63, 108
1, 68711, Note_on_c, 0, 65, 119
1, 68903, Note_off_c, 0, 65, 119
1, 68937, Note_on_c, 0, 62, 121
1, 69146, Note_off_c, 0, 62, 121
1, 69146, Note_on_c, 0, 65, 109
1, 69382, Note_off_c, 0, 65, 109
1, 69403, Note_on_c, 0, 68, 108
1, 69570, Note_off_c, 0, 68, 108
1, 69572, Note_on_c, 0, 73, 109
1, 69746, Note_off_c, 0, 73, 109
1, 69754, Note_on_c, 0, 70, 114
1, 69990, Note_off_c, 0, 70, 114
1, 71030, Note_on_c, 0, 63, 121
1, 71388, Note_off_c, 0, 63, 121
1, 75056, Note_on_c, 0, 58, 117
1, 75161, Note_off_c, 0, 58, 117
1, 75167, Note_on_c, 0, 63, 110
1, 75334, Note_off_c, 0, 63, 110
1, 75365, Note_on_c, 0, 67, 101
1, 75563, Note_off_c, 0, 67, 101
1, 75572, Note_on_c, 0, 68, 119
1, 75764, Note_off_c, 0, 68, 119
1, 75777, Note_on_c, 0, 67, 107
1, 75925, Note_off_c, 0, 67, 107
1, 75938, Note_on_c, 0, 68, 116
1, 76121, Note_off_c, 0, 68, 116
1, 76129, Note_on_c, 0, 67, 109
1, 76299, Note_off_c, 0, 67, 109
1, 76333, Note_on_c, 0, 68, 114
1, 76573, Note_off_c, 0, 68, 114
1, 76577, Note_on_c, 0, 67, 107
1, 76734, Note_off_c, 0, 67, 107
1, 76760, Note_on_c, 0, 68, 121
1, 76956, Note_off_c, 0, 68, 121
1, 76969, Note_on_c, 0, 67, 109
1, 77135, Note_off_c, 0, 67, 109
1, 77156, Note_on_c, 0, 68, 121
1, 77335, Note_off_c, 0, 68, 121
1, 77343, Note_on_c, 0, 67, 109
1, 77500, Note_off_c, 0, 67, 109
1, 77500, Note_on_c, 0, 68, 119
1, 77736, Note_off_c, 0, 68, 119
1, 77757, Note_on_c, 0, 67, 111
1, 77931, Note_off_c, 0, 67, 111
1, 77952, Note_on_c, 0, 68, 121
1, 78161, Note_off_c, 0, 68, 121
1, 78165, Note_on_c, 0, 67, 110
1, 78326, Note_off_c, 0, 67, 110
1, 78330, Note_on_c, 0, 68, 121
1, 78483, Note_off_c, 0, 68, 121
1, 78548, Note_on_c, 0, 67, 116
1, 78696, Note_off_c, 0, 67, 116
1, 78709, Note_on_c, 0, 68, 118
1, 78888, Note_off_c, 0, 68, 118
1, 78888, Note_on_c, 0, 67, 108
1, 79102, Note_off_c, 0, 67, 108
1, 79106, Note_on_c, 0, 68, 120
1, 79293, Note_off_c, 0, 68, 120
1, 79310, Note_on_c, 0, 67, 110
1, 79476, Note_off_c, 0, 67, 110
1, 79506, Note_on_c, 0, 68, 118
1, 79737, Note_off_c, 0, 68, 118
1, 79758, Note_on_c, 0, 67, 108
1, 79915, Note_off_c, 0, 67, 108
1, 79936, Note_on_c, 0, 68, 114
1, 80089, Note_off_c, 0, 68, 114
1, 80137, Note_on_c, 0, 67, 108
1, 80342, Note_off_c, 0, 67, 108
1, 80355, Note_on_c, 0, 68, 119
1, 80582, Note_off_c, 0, 68, 119
1, 80603, Note_on_c, 0, 67, 114
1, 80782, Note_off_c, 0, 67, 114
1, 80786, Note_on_c, 0, 68, 113
1, 80995, Note_off_c, 0, 68, 113
1, 81003, Note_on_c, 0, 67, 108
1, 81169, Note_off_c, 0, 67, 108
1, 81208, Note_on_c, 0, 68, 119
1, 81431, Note_off_c, 0, 68, 119
1, 81437, Note_on_c, 0, 70, 110
1, 81635, Note_off_c, 0, 70, 110
1, 81672, Note_on_c, 0, 65, 112
1, 81808, Note_off_c, 0, 65, 112
1, 81845, Note_on_c, 0, 67, 121
1, 82130, Note_off_c, 0, 67, 121
1, 82130, Note_on_c, 0, 63, 121
1, 82316, Note_off_c, 0, 63, 121
1, 82328, Note_on_c, 0, 65, 114
1, 82520, Note_off_c, 0, 65, 114
1, 82805, Note_on_c, 0, 63, 117
1, 83016, Note_off_c, 0, 63, 117
1, 83221, Note_on_c, 0, 61, 116
1, 83538, Note_off_c, 0, 61, 116
1, 83786, Note_on_c, 0, 58, 111
1, 84040, Note_off_c, 0, 58, 111
1, 84092, Note_on_c, 0, 51, 106
1, 84382, Note_off_c, 0, 51, 106
1, 84448, Note_on_c, 0, 51, 112
1, 84709, Note_off_c, 0, 51, 112
1, 84719, Note_on_c, 0, 56, 113
1, 84893, Note_off_c, 0, 56, 113
1, 84913, Note_on_c, 0, 54, 104
1, 85143, Note_off_c, 0, 54, 104
1, 85161, Note_on_c, 0, 51, 102
1, 85403, Note_off_c, 0, 51, 102
1, 85434, Note_on_c, 0, 49, 114
1, 85639, Note_off_c, 0, 49, 114
1, 85645, Note_on_c, 0, 51, 105
1, 85850, Note_off_c, 0, 51, 105
1, 87789, Note_on_c, 0, 51, 110
1, 87963, Note_off_c, 0, 51, 110
1, 88005, Note_on_c, 0, 54, 105
1, 88223, Note_off_c, 0, 54, 105
1, 88259, Note_on_c, 0, 55, 104
1, 88457, Note_off_c, 0, 55, 104
1, 88494, Note_on_c, 0, 56, 120
1, 88680, Note_off_c, 0, 56, 120
1, 88680, Note_on_c, 0, 57, 115
1, 88822, Note_off_c, 0, 57, 115
1, 88834, Note_on_c, 0, 58, 115
1, 88995, Note_off_c, 0, 58, 115
1, 89120, Note_on_c, 0, 51, 110
1, 89426, Note_off_c, 0, 51, 110
1, 89426, Note_on_c, 0, 54, 107
1, 89723, Note_off_c, 0, 54, 107
1, 89764, Note_on_c, 0, 55, 105
1, 89975, Note_off_c, 0, 55, 105
1, 90012, Note_on_c, 0, 56, 100
1, 90235, Note_off_c, 0, 56, 100
1, 90266, Note_on_c, 0, 57, 100
1, 90452, Note_off_c, 0, 57, 100
1, 90458, Note_on_c, 0, 58, 114
1, 90706, Note_off_c, 0, 58, 114
1, 90749, Note_on_c, 0, 51, 103
1, 91097, Note_off_c, 0, 51, 103
1, 93540, Note_on_c, 0, 63, 112
1, 93813, Note_off_c, 0, 63, 112
1, 93819, Note_on_c, 0, 66, 111
1, 94117, Note_off_c, 0, 66, 111
1, 94141, Note_on_c, 0, 67, 109
1, 94327, Note_off_c, 0, 67, 109
1, 94345, Note_on_c, 0, 68, 111
1, 94469, Note_off_c, 0, 68, 111
1, 94493, Note_on_c, 0, 69, 111
1, 94642, Note_off_c, 0, 69, 111
1, 94648, Note_on_c, 0, 70, 116
1, 94859, Note_off_c, 0, 70, 116
1, 94871, Note_on_c, 0, 63, 113
1, 95045, Note_off_c, 0, 63, 113
1, 95051, Note_on_c, 0, 66, 117
1, 95349, Note_off_c, 0, 66, 117
1, 95367, Note_on_c, 0, 67, 123
1, 95528, Note_off_c, 0, 67, 123
1, 95540, Note_on_c, 0, 68, 120
1, 95689, Note_off_c, 0, 68, 120
1, 95701, Note_on_c, 0, 69, 113
1, 95812, Note_off_c, 0, 69, 113
1, 95824, Note_on_c, 0, 70, 116
1, 96029, Note_off_c, 0, 70, 116
1, 96075, Note_on_c, 0, 63, 107
1, 96267, Note_off_c, 0, 63, 107
1, 96301, Note_on_c, 0, 66, 115
1, 96580, Note_off_c, 0, 66, 115
1, 96604, Note_on_c, 0, 67, 117
1, 96722, Note_off_c, 0, 67, 117
1, 96722, Note_on_c, 0, 68, 112
1, 96864, Note_off_c, 0, 68, 112
1, 96882, Note_on_c, 0, 69, 107
1, 97031, Note_off_c, 0, 69, 107
1, 97055, Note_on_c, 0, 70, 114
1, 97322, Note_off_c, 0, 70, 114
1, 97365, Note_on_c, 0, 69, 120
1, 97545, Note_off_c, 0, 69, 120
1, 98495, Note_on_c, 0, 51, 104
1, 98800, Note_off_c, 0, 51, 104
1, 98800, Note_on_c, 0, 54, 102
1, 99018, Note_off_c, 0, 54, 102
1, 99026, Note_on_c, 0, 55, 104
1, 99139, Note_off_c, 0, 55, 104
1, 99165, Note_on_c, 0, 56, 110
1, 99322, Note_off_c, 0, 56, 110
1, 99365, Note_on_c, 0, 57, 105
1, 99504, Note_off_c, 0, 57, 105
1, 99538, Note_on_c, 0, 58, 113
1, 99774, Note_off_c, 0, 58, 113
1, 99817, Note_on_c, 0, 51, 100
1, 99983, Note_off_c, 0, 51, 100
1, 100017, Note_on_c, 0, 54, 107
1, 100218, Note_off_c, 0, 54, 107
1, 100270, Note_on_c, 0, 55, 106
1, 100418, Note_off_c, 0, 55, 106
1, 100431, Note_on_c, 0, 56, 107
1, 100553, Note_off_c, 0, 56, 107
1, 100570, Note_on_c, 0, 57, 108
1, 100701, Note_off_c, 0, 57, 108
1, 100718, Note_on_c, 0, 58, 116
1, 100884, Note_off_c, 0, 58, 116
1, 100936, Note_on_c, 0, 63, 112
1, 101185, Note_off_c, 0, 63, 112
1, 101185, Note_on_c, 0, 66, 115
1, 101425, Note_off_c, 0, 66, 115
1, 101438, Note_on_c, 0, 67, 116
1, 101582, Note_off_c, 0, 67, 116
1, 101590, Note_on_c, 0, 68, 115
1, 101712, Note_off_c, 0, 68, 115
1, 101729, Note_on_c, 0, 69, 107
1, 101899, Note_off_c, 0, 69, 107
1, 101916, Note_on_c, 0, 70, 108
1, 102143, Note_off_c, 0, 70, 108
1, 102256, Note_on_c, 0, 63, 104
1, 102400, Note_off_c, 0, 63, 104
1, 102491, Note_on_c, 0, 66, 113
1, 102700, Note_off_c, 0, 66, 113
1, 102721, Note_on_c, 0, 67, 114
1, 102908, Note_off_c, 0, 67, 114
1, 102916, Note_on_c, 0, 68, 115
1, 103042, Note_off_c, 0, 68, 115
1, 103046, Note_on_c, 0, 69, 116
1, 103190, Note_off_c, 0, 69, 116
1, 103216, Note_on_c, 0, 70, 108
1, 103408, Note_off_c, 0, 70, 108
1, 103431, Note_on_c, 0, 63, 102
1, 103642, Note_off_c, 0, 63, 102
1, 103687, Note_on_c, 0, 66, 116
1, 103905, Note_off_c, 0, 66, 116
1, 103939, Note_on_c, 0, 67, 116
1, 104096, Note_off_c, 0, 67, 116
1, 104126, Note_on_c, 0, 68, 111
1, 104283, Note_off_c, 0, 68, 111
1, 104304, Note_on_c, 0, 69, 102
1, 104452, Note_off_c, 0, 69, 102
1, 104470, Note_on_c, 0, 70, 115
1, 104780, Note_off_c, 0, 70, 115
1, 104823, Note_on_c, 0, 63, 105
1, 105090, Note_off_c, 0, 63, 105
1, 107343, Note_on_c, 0, 62, 118
1, 107492, Note_off_c, 0, 62, 118
1, 107541, Note_on_c, 0, 63, 121
1, 109250, Note_off_c, 0, 63, 121
1, 109274, Note_on_c, 0, 61, 111
1, 109504, Note_off_c, 0, 61, 111
1, 109535, Note_on_c, 0, 60, 113
1, 109771, Note_off_c, 0, 60, 113
1, 109789, Note_on_c, 0, 58, 106
1, 109987, Note_off_c, 0, 58, 106
1, 110005, Note_on_c, 0, 56, 102
1, 110228, Note_off_c, 0, 56, 102
1, 110234, Note_on_c, 0, 55, 111
1, 110439, Note_off_c, 0, 55, 111
1, 110453, Note_on_c, 0, 54, 114
1, 110820, Note_off_c, 0, 54, 114
1, 113335, Note_on_c, 0, 44, 116
1, 115131, Note_off_c, 0, 44, 116
1, 118292, Note_on_c, 0, 56, 114
1, 118515, Note_off_c, 0, 56, 114
1, 118528, Note_on_c, 0, 59, 111
1, 118733, Note_off_c, 0, 59, 111
1, 118741, Note_on_c, 0, 63, 121
1, 118946, Note_off_c, 0, 63, 121
1, 118946, Note_on_c, 0, 65, 124
1, 119144, Note_off_c, 0, 65, 124
1, 119173, Note_on_c, 0, 65, 114
1, 119942, Note_off_c, 0, 65, 114
1, 119959, Note_on_c, 0, 66, 115
1, 121305, Note_off_c, 0, 66, 115
1, 121322, Note_on_c, 0, 63, 118
1, 121558, Note_off_c, 0, 63, 118
1, 121566, Note_on_c, 0, 66, 116
1, 121880, Note_off_c, 0, 66, 116
1, 121888, Note_on_c, 0, 63, 122
1, 122185, Note_off_c, 0, 63, 122
1, 122193, Note_on_c, 0, 66, 116
1, 122507, Note_on_c, 0, 63, 123
1, 122507, Note_off_c, 0, 66, 116
1, 122839, Note_off_c, 0, 63, 123
1, 122873, Note_on_c, 0, 61, 120
1, 123213, Note_off_c, 0, 61, 120
1, 123265, Note_on_c, 0, 58, 111
1, 123509, Note_off_c, 0, 58, 111
1, 123570, Note_on_c, 0, 56, 117
1, 123793, Note_off_c, 0, 56, 117
1, 123793, Note_on_c, 0, 51, 111
1, 124274, Note_off_c, 0, 51, 111
1, 124302, Note_on_c, 0, 54, 110
1, 124625, Note_off_c, 0, 54, 110
1, 124651, Note_on_c, 0, 56, 106
1, 125901, Note_off_c, 0, 56, 106
1, 125918, Note_on_c, 0, 54, 107
1, 126197, Note_off_c, 0, 54, 107
1, 126214, Note_on_c, 0, 51, 110
1, 126546, Note_off_c, 0, 51, 110
1, 126563, Note_on_c, 0, 53, 112
1, 126711, Note_off_c, 0, 53, 112
1, 126719, Note_on_c, 0, 55, 106
1, 127086, Note_off_c, 0, 55, 106
1, 127120, Note_on_c, 0, 58, 110
1, 127522, Note_off_c, 0, 58, 110
1, 127670, Note_on_c, 0, 63, 9
1, 128972, Note_off_c, 0, 63, 9
1, 128972, Note_on_c, 0, 66, 113
1, 129041, Note_off_c, 0, 66, 113
1, 129093, Note_on_c, 0, 67, 115
1, 129381, Note_off_c, 0, 67, 115
1, 129424, Note_on_c, 0, 70, 117
1, 129651, Note_off_c, 0, 70, 117
1, 130210, Note_on_c, 0, 75, 104
1, 131932, Note_off_c, 0, 75, 104
1, 134353, Note_on_c, 0, 73, 125
1, 134676, Note_off_c, 0, 73, 125
1, 134693, Note_on_c, 0, 70, 120
1, 135007, Note_off_c, 0, 70, 120
1, 135295, Note_on_c, 0, 63, 120
1, 135662, Note_off_c, 0, 63, 120
1, 135854, Note_on_c, 0, 63, 120
1, 136256, Note_off_c, 0, 63, 120
1, 136527, Note_on_c, 0, 73, 124
1, 136745, Note_off_c, 0, 73, 124
1, 136779, Note_on_c, 0, 72, 122
1, 137565, Note_off_c, 0, 72, 122
1, 137713, Note_on_c, 0, 68, 123
1, 137975, Note_off_c, 0, 68, 123
1, 137975, Note_on_c, 0, 65, 115
1, 138272, Note_off_c, 0, 65, 115
1, 138289, Note_on_c, 0, 63, 107
1, 139268, Note_off_c, 0, 63, 107
1, 141794, Note_on_c, 0, 73, 117
1, 141977, Note_off_c, 0, 73, 117
1, 141977, Note_on_c, 0, 72, 117
1, 142623, Note_off_c, 0, 72, 117
1, 142657, Note_on_c, 0, 68, 121
1, 142884, Note_off_c, 0, 68, 121
1, 142910, Note_on_c, 0, 65, 115
1, 143084, Note_off_c, 0, 65, 115
1, 143099, Note_on_c, 0, 60, 101
1, 143366, Note_off_c, 0, 60, 101
1, 143388, Note_on_c, 0, 63, 111
1, 143632, Note_off_c, 0, 63, 111
1, 143632, Note_on_c, 0, 67, 110
1, 143855, Note_off_c, 0, 67, 110
1, 143861, Note_on_c, 0, 65, 119
1, 144134, Note_off_c, 0, 65, 119
1, 144146, Note_on_c, 0, 62, 122
1, 144481, Note_off_c, 0, 62, 122
1, 147083, Note_on_c, 0, 60, 111
1, 147270, Note_off_c, 0, 60, 111
1, 147278, Note_on_c, 0, 59, 116
1, 147452, Note_off_c, 0, 59, 116
1, 147465, Note_on_c, 0, 60, 114
1, 147705, Note_off_c, 0, 60, 114
1, 147731, Note_on_c, 0, 63, 109
1, 147923, Note_off_c, 0, 63, 109
1, 147957, Note_on_c, 0, 65, 102
1, 148040, Note_off_c, 0, 65, 102
1, 148048, Note_on_c, 0, 67, 101
1, 148135, Note_off_c, 0, 67, 101
1, 148169, Note_on_c, 0, 70, 118
1, 148383, Note_off_c, 0, 70, 118
1, 148400, Note_on_c, 0, 69, 115
1, 148535, Note_off_c, 0, 69, 115
1, 148561, Note_on_c, 0, 68, 116
1, 148753, Note_off_c, 0, 68, 116
1, 148927, Note_on_c, 0, 60, 105
1, 149088, Note_off_c, 0, 60, 105
1, 149101, Note_on_c, 0, 67, 112
1, 149267, Note_off_c, 0, 67, 112
1, 149297, Note_on_c, 0, 65, 114
1, 149445, Note_off_c, 0, 65, 114
1, 149471, Note_on_c, 0, 60, 113
1, 149632, Note_off_c, 0, 60, 113
1, 149710, Note_on_c, 0, 64, 113
1, 149784, Note_off_c, 0, 64, 113
1, 149814, Note_on_c, 0, 66, 110
1, 150063, Note_off_c, 0, 66, 110
1, 150150, Note_on_c, 0, 62, 118
1, 150324, Note_off_c, 0, 62, 118
1, 150345, Note_on_c, 0, 61, 111
1, 150541, Note_off_c, 0, 61, 111
1, 150610, Note_on_c, 0, 59, 106
1, 150758, Note_off_c, 0, 59, 106
1, 150784, Note_on_c, 0, 58, 108
1, 150998, Note_off_c, 0, 58, 108
1, 151111, Note_on_c, 0, 56, 110
1, 151229, Note_off_c, 0, 56, 110
1, 151229, Note_on_c, 0, 55, 105
1, 151447, Note_off_c, 0, 55, 105
1, 151481, Note_on_c, 0, 53, 104
1, 151599, Note_off_c, 0, 53, 104
1, 151640, Note_on_c, 0, 51, 102
1, 151938, Note_off_c, 0, 51, 102
1, 151983, Note_on_c, 0, 53, 117
1, 152304, Note_off_c, 0, 53, 117
1, 152367, Note_on_c, 0, 55, 105
1, 152537, Note_off_c, 0, 55, 105
1, 152545, Note_on_c, 0, 58, 108
1, 152728, Note_off_c, 0, 58, 108
1, 154725, Note_on_c, 0, 58, 107
1, 154895, Note_off_c, 0, 58, 107
1, 154908, Note_on_c, 0, 63, 119
1, 155157, Note_off_c, 0, 63, 119
1, 155178, Note_on_c, 0, 62, 118
1, 155304, Note_off_c, 0, 62, 118
1, 155325, Note_on_c, 0, 63, 114
1, 155552, Note_off_c, 0, 63, 114
1, 155591, Note_on_c, 0, 65, 113
1, 155717, Note_off_c, 0, 65, 113
1, 155730, Note_on_c, 0, 67, 120
1, 155987, Note_off_c, 0, 67, 120
1, 156065, Note_on_c, 0, 63, 119
1, 156349, Note_off_c, 0, 63, 119
1, 160510, Note_on_c, 0, 63, 116
1, 160724, Note_off_c, 0, 63, 116
1, 160724, Note_on_c, 0, 68, 123
1, 160942, Note_off_c, 0, 68, 123
1, 160972, Note_on_c, 0, 67, 119
1, 161151, Note_off_c, 0, 67, 119
1, 161155, Note_on_c, 0, 66, 118
1, 161360, Note_off_c, 0, 66, 118
1, 161373, Note_on_c, 0, 63, 115
1, 161569, Note_off_c, 0, 63, 115
1, 161569, Note_on_c, 0, 68, 118
1, 161774, Note_off_c, 0, 68, 118
1, 161790, Note_on_c, 0, 67, 121
1, 161895, Note_off_c, 0, 67, 121
1, 161919, Note_on_c, 0, 66, 112
1, 162009, Note_off_c, 0, 66, 112
1, 162040, Note_on_c, 0, 66, 116
1, 162214, Note_off_c, 0, 66, 116
1, 162243, Note_on_c, 0, 63, 109
1, 162448, Note_off_c, 0, 63, 109
1, 162469, Note_on_c, 0, 68, 119
1, 162691, Note_off_c, 0, 68, 119
1, 162708, Note_on_c, 0, 67, 120
1, 162798, Note_off_c, 0, 67, 120
1, 162810, Note_on_c, 0, 66, 114
1, 162881, Note_off_c, 0, 66, 114
1, 162902, Note_on_c, 0, 66, 115
1, 163032, Note_off_c, 0, 66, 115
1, 163051, Note_on_c, 0, 63, 109
1, 163234, Note_off_c, 0, 63, 109
1, 163282, Note_on_c, 0, 68, 115
1, 163487, Note_off_c, 0, 68, 115
1, 163500, Note_on_c, 0, 67, 117
1, 163596, Note_off_c, 0, 67, 117
1, 163613, Note_on_c, 0, 66, 115
1, 163717, Note_off_c, 0, 66, 115
1, 163738, Note_on_c, 0, 66, 110
1, 163834, Note_off_c, 0, 66, 110
1, 163864, Note_on_c, 0, 63, 103
1, 164065, Note_off_c, 0, 63, 103
1, 164073, Note_on_c, 0, 68, 114
1, 164300, Note_off_c, 0, 68, 114
1, 164300, Note_on_c, 0, 67, 112
1, 164387, Note_off_c, 0, 67, 112
1, 164418, Note_on_c, 0, 66, 116
1, 164501, Note_off_c, 0, 66, 116
1, 164532, Note_on_c, 0, 66, 108
1, 164709, Note_off_c, 0, 66, 108
1, 164756, Note_on_c, 0, 63, 106
1, 164922, Note_off_c, 0, 63, 106
1, 164956, Note_on_c, 0, 68, 113
1, 165170, Note_off_c, 0, 68, 113
1, 165183, Note_on_c, 0, 67, 116
1, 165279, Note_off_c, 0, 67, 116
1, 165309, Note_on_c, 0, 66, 115
1, 165389, Note_off_c, 0, 66, 115
1, 165423, Note_on_c, 0, 66, 118
1, 165578, Note_off_c, 0, 66, 118
1, 165626, Note_on_c, 0, 63, 113
1, 165765, Note_off_c, 0, 63, 113
1, 165791, Note_on_c, 0, 68, 115
1, 165983, Note_off_c, 0, 68, 115
1, 166007, Note_on_c, 0, 67, 117
1, 166100, Note_off_c, 0, 67, 117
1, 166121, Note_on_c, 0, 66, 111
1, 166211, Note_off_c, 0, 66, 111
1, 166226, Note_on_c, 0, 66, 110
1, 166400, Note_off_c, 0, 66, 110
1, 166421, Note_on_c, 0, 63, 112
1, 166565, Note_off_c, 0, 63, 112
1, 166569, Note_on_c, 0, 68, 116
1, 166704, Note_off_c, 0, 68, 116
1, 166712, Note_on_c, 0, 67, 115
1, 166830, Note_off_c, 0, 67, 115
1, 166847, Note_on_c, 0, 66, 111
1, 166969, Note_off_c, 0, 66, 111
1, 166995, Note_on_c, 0, 63, 104
1, 167191, Note_off_c, 0, 63, 104
1, 167195, Note_on_c, 0, 68, 111
1, 167361, Note_off_c, 0, 68, 111
1, 167380, Note_on_c, 0, 67, 112
1, 167522, Note_off_c, 0, 67, 112
1, 167546, Note_on_c, 0, 66, 109
1, 167695, Note_off_c, 0, 66, 109
1, 167695, Note_on_c, 0, 63, 109
1, 167837, Note_on_c, 0, 68, 110
1, 167837, Note_off_c, 0, 63, 109
1, 168004, Note_off_c, 0, 68, 110
1, 168004, Note_on_c, 0, 67, 111
1, 168109, Note_off_c, 0, 67, 111
1, 168115, Note_on_c, 0, 66, 106
1, 168289, Note_off_c, 0, 66, 106
1, 168338, Note_on_c, 0, 63, 110
1, 168449, Note_off_c, 0, 63, 110
1, 168449, Note_on_c, 0, 68, 113
1, 168579, Note_off_c, 0, 68, 113
1, 168585, Note_on_c, 0, 67, 117
1, 168740, Note_off_c, 0, 67, 117
1, 168758, Note_on_c, 0, 66, 114
1, 168925, Note_off_c, 0, 66, 114
1, 168968, Note_on_c, 0, 63, 114
1, 169103, Note_off_c, 0, 63, 114
1, 169107, Note_on_c, 0, 68, 112
1, 169225, Note_off_c, 0, 68, 112
1, 169259, Note_on_c, 0, 67, 115
1, 169390, Note_off_c, 0, 67, 115
1, 169403, Note_on_c, 0, 66, 109
1, 169521, Note_off_c, 0, 66, 109
1, 169542, Note_on_c, 0, 63, 105
1, 169703, Note_off_c, 0, 63, 105
1, 169707, Note_on_c, 0, 68, 113
1, 169864, Note_off_c, 0, 68, 113
1, 169872, Note_on_c, 0, 67, 114
1, 170011, Note_off_c, 0, 67, 114
1, 170011, Note_on_c, 0, 66, 107
1, 170142, Note_off_c, 0, 66, 107
1, 170181, Note_on_c, 0, 63, 111
1, 170312, Note_off_c, 0, 63, 111
1, 170366, Note_on_c, 0, 68, 120
1, 170650, Note_off_c, 0, 68, 120
1, 170657, Note_on_c, 0, 66, 109
1, 170827, Note_off_c, 0, 66, 109
1, 170857, Note_on_c, 0, 63, 105
1, 171040, Note_off_c, 0, 63, 105
1, 171125, Note_on_c, 0, 68, 119
1, 171327, Note_off_c, 0, 68, 119
1, 171327, Note_on_c, 0, 66, 108
1, 171493, Note_off_c, 0, 66, 108
1, 171506, Note_on_c, 0, 63, 111
1, 171750, Note_off_c, 0, 63, 111
1, 171810, Note_on_c, 0, 68, 119
1, 171980, Note_off_c, 0, 68, 119
1, 171981, Note_on_c, 0, 66, 109
1, 172116, Note_off_c, 0, 66, 109
1, 172164, Note_on_c, 0, 63, 108
1, 172299, Note_off_c, 0, 63, 108
1, 172336, Note_on_c, 0, 68, 116
1, 172515, Note_off_c, 0, 68, 116
1, 172520, Note_on_c, 0, 66, 106
1, 172655, Note_off_c, 0, 66, 106
1, 172681, Note_on_c, 0, 63, 113
1, 172860, Note_off_c, 0, 63, 113
1, 172884, Note_on_c, 0, 68, 118
1, 173041, Note_off_c, 0, 68, 118
1, 173060, Note_on_c, 0, 66, 108
1, 173182, Note_off_c, 0, 66, 108
1, 173203, Note_on_c, 0, 63, 113
1, 173351, Note_off_c, 0, 63, 113
1, 173381, Note_on_c, 0, 68, 117
1, 173534, Note_off_c, 0, 68, 117
1, 173555, Note_on_c, 0, 66, 106
1, 173729, Note_off_c, 0, 66, 106
1, 173729, Note_on_c, 0, 63, 112
1, 173932, Note_off_c, 0, 63, 112
1, 173932, Note_on_c, 0, 68, 113
1, 174067, Note_off_c, 0, 68, 113
1, 174086, Note_on_c, 0, 66, 109
1, 174212, Note_off_c, 0, 66, 109
1, 174220, Note_on_c, 0, 63, 114
1, 174381, Note_off_c, 0, 63, 114
1, 174382, Note_on_c, 0, 68, 111
1, 174583, Note_off_c, 0, 68, 111
1, 174589, Note_on_c, 0, 66, 108
1, 174693, Note_off_c, 0, 66, 108
1, 174727, Note_on_c, 0, 63, 114
1, 174842, Note_off_c, 0, 63, 114
1, 174842, Note_on_c, 0, 68, 113
1, 174986, Note_off_c, 0, 68, 113
1, 175015, Note_on_c, 0, 66, 108
1, 175146, Note_off_c, 0, 66, 108
1, 175146, Note_on_c, 0, 63, 113
1, 175270, Note_off_c, 0, 63, 113
1, 175270, Note_on_c, 0, 68, 113
1, 175405, Note_off_c, 0, 68, 113
1, 175424, Note_on_c, 0, 66, 115
1, 175546, Note_off_c, 0, 66, 115
1, 175563, Note_on_c, 0, 63, 115
1, 175676, Note_off_c, 0, 63, 115
1, 175699, Note_on_c, 0, 68, 113
1, 175847, Note_off_c, 0, 68, 113
1, 175849, Note_on_c, 0, 66, 109
1, 175945, Note_off_c, 0, 66, 109
1, 175962, Note_on_c, 0, 63, 103
1, 176080, Note_off_c, 0, 63, 103
1, 176082, Note_on_c, 0, 68, 104
1, 176200, Note_off_c, 0, 68, 104
1, 176215, Note_on_c, 0, 66, 110
1, 176267, Note_off_c, 0, 66, 110
1, 176310, Note_on_c, 0, 63, 104
1, 176403, Note_off_c, 0, 63, 104
1, 176403, Note_on_c, 0, 68, 105
1, 176494, Note_off_c, 0, 68, 105
1, 176505, Note_on_c, 0, 66, 107
1, 176605, Note_off_c, 0, 66, 107
1, 176635, Note_on_c, 0, 63, 105
1, 176713, Note_off_c, 0, 63, 105
1, 176729, Note_on_c, 0, 68, 108
1, 176820, Note_off_c, 0, 68, 108
1, 176825, Note_on_c, 0, 66, 105
1, 176899, Note_off_c, 0, 66, 105
1, 176907, Note_on_c, 0, 63, 114
1, 177020, Note_off_c, 0, 63, 114
1, 177065, Note_on_c, 0, 68, 109
1, 177270, Note_off_c, 0, 68, 109
1, 177291, Note_on_c, 0, 66, 108
1, 177511, Note_off_c, 0, 66, 108
1, 177538, Note_on_c, 0, 63, 110
1, 178442, Note_off_c, 0, 63, 110
1, 180225, Note_on_c, 0, 61, 114
1, 180487, Note_off_c, 0, 61, 114
1, 180490, Note_on_c, 0, 58, 108
1, 180639, Note_off_c, 0, 58, 108
1, 180663, Note_on_c, 0, 61, 122
1, 180893, Note_off_c, 0, 61, 122
1, 180911, Note_on_c, 0, 63, 117
1, 181091, Note_off_c, 0, 63, 117
1, 181109, Note_on_c, 0, 65, 120
1, 181332, Note_off_c, 0, 65, 120
1, 181350, Note_on_c, 0, 63, 122
1, 181517, Note_off_c, 0, 63, 122
1, 181548, Note_on_c, 0, 61, 116
1, 181983, Note_off_c, 0, 61, 116
1, 182038, Note_on_c, 0, 58, 120
1, 182174, Note_off_c, 0, 58, 120
1, 182198, Note_on_c, 0, 61, 122
1, 182595, Note_off_c, 0, 61, 122
1, 182644, Note_on_c, 0, 58, 94
1, 182786, Note_off_c, 0, 58, 94
1, 182792, Note_on_c, 0, 61, 116
1, 183177, Note_off_c, 0, 61, 116
1, 183201, Note_on_c, 0, 58, 101
1, 183306, Note_off_c, 0, 58, 101
1, 183380, Note_on_c, 0, 61, 118
1, 183827, Note_off_c, 0, 61, 118
1, 183851, Note_on_c, 0, 58, 88
1, 183993, Note_off_c, 0, 58, 88
1, 184017, Note_on_c, 0, 61, 116
1, 184495, Note_off_c, 0, 61, 116
1, 184519, Note_on_c, 0, 58, 104
1, 184860, Note_on_c, 0, 51, 99
1, 184860, Note_off_c, 0, 58, 104
1, 185139, Note_off_c, 0, 51, 99
1, 185201, Note_on_c, 0, 54, 122
1, 185629, Note_off_c, 0, 54, 122
1, 185629, Note_on_c, 0, 56, 112
1, 186026, Note_off_c, 0, 56, 112
1, 186057, Note_on_c, 0, 58, 105
1, 186734, Note_off_c, 0, 58, 105
1, 191993, Note_on_c, 0, 68, 123
1, 192123, Note_off_c, 0, 68, 123
1, 192194, Note_on_c, 0, 68, 115
1, 192290, Note_off_c, 0, 68, 115
1, 192308, Note_on_c, 0, 72, 106
1, 192581, Note_off_c, 0, 72, 106
1, 192581, Note_on_c, 0, 75, 93
1, 192804, Note_off_c, 0, 75, 93
1, 192892, Note_on_c, 0, 79, 113
1, 193119, Note_off_c, 0, 79, 113
1, 193521, Note_on_c, 0, 78, 115
1, 194098, Note_off_c, 0, 78, 115
1, 200366, Note_on_c, 0, 73, 116
1, 200465, Note_off_c, 0, 73, 116
1, 200514, Note_on_c, 0, 75, 115
1, 202052, Note_off_c, 0, 75, 115
1, 202130, Note_on_c, 0, 73, 109
1, 202383, Note_off_c, 0, 73, 109
1, 202409, Note_on_c, 0, 73, 115
1, 202653, Note_off_c, 0, 73, 115
1, 202687, Note_on_c, 0, 68, 109
1, 202870, Note_off_c, 0, 68, 109
1, 202931, Note_on_c, 0, 70, 112
1, 203149, Note_off_c, 0, 70, 112
1, 203175, Note_on_c, 0, 66, 110
1, 203341, Note_off_c, 0, 66, 110
1, 203349, Note_on_c, 0, 65, 115
1, 203515, Note_off_c, 0, 65, 115
1, 203541, Note_on_c, 0, 64, 122
1, 203742, Note_off_c, 0, 64, 122
1, 203742, Note_on_c, 0, 63, 119
1, 203995, Note_off_c, 0, 63, 119
1, 204021, Note_on_c, 0, 61, 114
1, 204195, Note_off_c, 0, 61, 114
1, 204256, Note_on_c, 0, 56, 108
1, 204422, Note_off_c, 0, 56, 108
1, 204465, Note_on_c, 0, 60, 106
1, 204604, Note_off_c, 0, 60, 106
1, 204604, Note_on_c, 0, 63, 116
1, 204813, Note_off_c, 0, 63, 116
1, 204821, Note_on_c, 0, 61, 113
1, 204987, Note_off_c, 0, 61, 113
1, 205003, Note_on_c, 0, 59, 103
1, 205173, Note_off_c, 0, 59, 103
1, 205204, Note_on_c, 0, 56, 99
1, 205361, Note_off_c, 0, 56, 99
1, 205387, Note_on_c, 0, 55, 121
1, 205570, Note_off_c, 0, 55, 121
1, 205591, Note_on_c, 0, 56, 122
1, 205671, Note_off_c, 0, 56, 122
1, 205683, Note_on_c, 0, 57, 119
1, 205763, Note_off_c, 0, 57, 119
1, 205781, Note_on_c, 0, 58, 119
1, 205896, Note_off_c, 0, 58, 119
1, 205917, Note_on_c, 0, 53, 109
1, 206074, Note_off_c, 0, 53, 109
1, 206090, Note_on_c, 0, 54, 102
1, 206316, Note_off_c, 0, 54, 102
1, 206316, Note_on_c, 0, 56, 109
1, 206543, Note_off_c, 0, 56, 109
1, 206560, Note_on_c, 0, 54, 103
1, 206804, Note_off_c, 0, 54, 103
1, 206821, Note_on_c, 0, 53, 104
1, 208088, Note_off_c, 0, 53, 104
1, 208122, Note_on_c, 0, 51, 100
1, 208305, Note_off_c, 0, 51, 100
1, 208392, Note_on_c, 0, 55, 100
1, 208759, Note_off_c, 0, 55, 100
1, 208802, Note_on_c, 0, 58, 109
1, 209326, Note_off_c, 0, 58, 109
1, 213036, Note_on_c, 0, 63, 119
1, 213247, Note_off_c, 0, 63, 119
1, 213253, Note_on_c, 0, 66, 114
1, 213476, Note_off_c, 0, 66, 114
1, 213485, Note_on_c, 0, 67, 111
1, 213694, Note_off_c, 0, 67, 111
1, 213702, Note_on_c, 0, 68, 105
1, 213881, Note_off_c, 0, 68, 105
1, 213911, Note_on_c, 0, 69, 106
1, 214081, Note_off_c, 0, 69, 106
1, 214088, Note_on_c, 0, 70, 115
1, 214355, Note_off_c, 0, 70, 115
1, 214417, Note_on_c, 0, 63, 119
1, 214647, Note_off_c, 0, 63, 119
1, 214796, Note_on_c, 0, 63, 100
1, 215026, Note_off_c, 0, 63, 100
1, 215032, Note_on_c, 0, 66, 112
1, 215218, Note_off_c, 0, 66, 112
1, 215220, Note_on_c, 0, 67, 117
1, 215403, Note_off_c, 0, 67, 117
1, 215424, Note_on_c, 0, 63, 121
1, 215681, Note_off_c, 0, 63, 121
1, 215702, Note_on_c, 0, 61, 115
1, 215920, Note_off_c, 0, 61, 115
1, 215954, Note_on_c, 0, 66, 112
1, 216246, Note_off_c, 0, 66, 112
1, 216263, Note_on_c, 0, 64, 122
1, 216560, Note_off_c, 0, 64, 122
1, 216577, Note_on_c, 0, 61, 113
1, 216712, Note_off_c, 0, 61, 113
1, 216751, Note_on_c, 0, 60, 110
1, 217126, Note_off_c, 0, 60, 110
1, 219679, Note_on_c, 0, 60, 112
1, 219859, Note_off_c, 0, 60, 112
1, 219896, Note_on_c, 0, 65, 108
1, 220070, Note_off_c, 0, 65, 108
1, 220076, Note_on_c, 0, 67, 108
1, 220150, Note_off_c, 0, 67, 108
1, 220150, Note_on_c, 0, 72, 114
1, 220342, Note_off_c, 0, 72, 114
1, 220342, Note_on_c, 0, 68, 116
1, 220422, Note_off_c, 0, 68, 116
1, 220434, Note_on_c, 0, 65, 108
1, 220558, Note_off_c, 0, 65, 108
1, 220582, Note_on_c, 0, 60, 109
1, 220724, Note_off_c, 0, 60, 109
1, 220736, Note_on_c, 0, 64, 126
1, 220990, Note_off_c, 0, 64, 126
1, 221005, Note_on_c, 0, 60, 111
1, 221272, Note_off_c, 0, 60, 111
1, 221340, Note_on_c, 0, 64, 105
1, 221414, Note_off_c, 0, 64, 105
1, 221435, Note_on_c, 0, 62, 107
1, 221515, Note_off_c, 0, 62, 107
1, 221533, Note_on_c, 0, 60, 102
1, 221607, Note_off_c, 0, 60, 102
1, 221619, Note_on_c, 0, 63, 122
1, 221867, Note_off_c, 0, 63, 122
1, 221885, Note_on_c, 0, 63, 120
1, 222077, Note_off_c, 0, 63, 120
1, 222099, Note_on_c, 0, 62, 120
1, 222348, Note_off_c, 0, 62, 120
1, 222356, Note_on_c, 0, 60, 112
1, 222530, Note_off_c, 0, 60, 112
1, 222560, Note_on_c, 0, 58, 106
1, 222782, Note_off_c, 0, 58, 106
1, 222812, Note_on_c, 0, 57, 108
1, 223008, Note_off_c, 0, 57, 108
1, 223042, Note_on_c, 0, 56, 108
1, 223299, Note_off_c, 0, 56, 108
1, 223299, Note_on_c, 0, 60, 108
1, 223421, Note_off_c, 0, 60, 108
1, 223421, Note_on_c, 0, 55, 105
1, 223910, Note_off_c, 0, 55, 105
1, 223931, Note_on_c, 0, 53, 99
1, 224027, Note_off_c, 0, 53, 99
1, 224048, Note_on_c, 0, 58, 109
1, 224340, Note_off_c, 0, 58, 109
1, 224379, Note_on_c, 0, 56, 98
1, 225324, Note_off_c, 0, 56, 98
1, 226356, Note_on_c, 0, 63, 109
1, 226561, Note_off_c, 0, 63, 109
1, 226660, Note_on_c, 0, 66, 111
1, 227082, Note_off_c, 0, 66, 111
1, 227088, Note_on_c, 0, 67, 117
1, 227436, Note_off_c, 0, 67, 117
1, 227454, Note_on_c, 0, 66, 118
1, 227870, Note_off_c, 0, 66, 118
1, 227888, Note_on_c, 0, 67, 117
1, 228254, Note_off_c, 0, 67, 117
1, 228359, Note_on_c, 0, 63, 120
1, 228881, Note_off_c, 0, 63, 120
1, 228924, Note_on_c, 0, 65, 122
1, 229172, Note_off_c, 0, 65, 122
1, 229719, Note_on_c, 0, 63, 121
1, 230054, Note_off_c, 0, 63, 121
1, 230607, Note_on_c, 0, 61, 120
1, 230899, Note_off_c, 0, 61, 120
1, 231744, Note_on_c, 0, 58, 106
1, 232166, Note_off_c, 0, 58, 106
1, 232190, Note_on_c, 0, 51, 109
1, 232824, Note_off_c, 0, 51, 109
1, 233377, Note_on_c, 0, 51, 113
1, 233569, Note_off_c, 0, 51, 113
1, 233618, Note_on_c, 0, 56, 113
1, 234071, Note_off_c, 0, 56, 113
1, 234108, Note_on_c, 0, 54, 101
1, 234226, Note_off_c, 0, 54, 101
1, 234257, Note_on_c, 0, 56, 112
1, 234953, Note_off_c, 0, 56, 112
1, 235015, Note_on_c, 0, 54, 102
1, 235151, Note_off_c, 0, 54, 102
1, 235206, Note_on_c, 0, 56, 108
1, 236455, Note_off_c, 0, 56, 108
1, 236498, Note_on_c, 0, 58, 108
1, 236728, Note_off_c, 0, 58, 108
1, 236833, Note_on_c, 0, 54, 106
1, 236988, Note_off_c, 0, 54, 106
1, 237019, Note_on_c, 0, 55, 101
1, 237280, Note_off_c, 0, 55, 101
1, 237373, Note_on_c, 0, 51, 102
1, 238510, Note_off_c, 0, 51, 102
1, 239579, Note_on_c, 0, 55, 100
1, 239827, Note_off_c, 0, 55, 100
1, 239870, Note_on_c, 0, 58, 109
1, 240305, Note_off_c, 0, 58, 109
1, 240354, Note_on_c, 0, 56, 108
1, 240683, Note_off_c, 0, 56, 108
1, 240906, Note_on_c, 0, 59, 110
1, 241011, Note_off_c, 0, 59, 110
1, 241023, Note_on_c, 0, 60, 111
1, 241327, Note_off_c, 0, 60, 111
1, 241557, Note_on_c, 0, 63, 115
1, 242073, Note_off_c, 0, 63, 115
1, 242147, Note_on_c, 0, 63, 115
1, 242644, Note_off_c, 0, 63, 115
1, 242799, Note_on_c, 0, 63, 112
1, 243259, Note_off_c, 0, 63, 112
1, 243352, Note_on_c, 0, 63, 113
1, 243588, Note_off_c, 0, 63, 113
1, 243643, Note_on_c, 0, 61, 98
1, 243841, Note_off_c, 0, 61, 98
1, 243890, Note_on_c, 0, 63, 100
1, 246364, Note_off_c, 0, 63, 100
1, 246364, End_track
0, 0, End_of_file
