0, 0, Header, 1, 1, 192
1, 0, Start_track
1, 0, Note_on_c, 0, 65, 126
1, 99, Note_off_c, 0, 65, 126
1, 123, Note_on_c, 0, 62, 107
1, 214, Note_off_c, 0, 62, 107
1, 214, Note_on_c, 0, 58, 104
1, 266, Note_off_c, 0, 58, 104
1, 269, Note_on_c, 0, 55, 106
1, 351, Note_off_c, 0, 55, 106
1, 366, Note_on_c, 0, 56, 116
1, 516, Note_off_c, 0, 56, 116
1, 670, Note_on_c, 0, 65, 118
1, 804, Note_off_c, 0, 65, 118
1, 1182, Note_on_c, 0, 65, 109
1, 1275, Note_on_c, 0, 63, 122
1, 1275, Note_off_c, 0, 65, 109
1, 1353, Note_off_c, 0, 63, 122
1, 1364, Note_on_c, 0, 60, 110
1, 1401, Note_off_c, 0, 60, 110
1, 1416, Note_on_c, 0, 57, 103
1, 1462, Note_off_c, 0, 57, 103
1, 1514, Note_on_c, 0, 56, 115
1, 1629, Note_off_c, 0, 56, 115
1, 1632, Note_on_c, 0, 57, 112
1, 1673, Note_off_c, 0, 57, 112
1, 1797, Note_on_c, 0, 65, 124
1, 1937, Note_off_c, 0, 65, 124
1, 1937, Note_on_c, 0, 63, 90
1, 1976, Note_off_c, 0, 63, 90
1, 1983, Note_on_c, 0, 60, 111
1, 2022, Note_off_c, 0, 60, 111
1, 2047, Note_on_c, 0, 57, 102
1, 2123, Note_off_c, 0, 57, 102
1, 2198, Note_on_c, 0, 55, 100
1, 2272, Note_off_c, 0, 55, 100
1, 2276, Note_on_c, 0, 56, 117
1, 2346, Note_off_c, 0, 56, 117
1, 2346, Note_on_c, 0, 57, 110
1, 2442, Title_t, "Melody"
1, 2442, Tempo, 200668
1, 2442, Key_signature, -3, "major"
1, 2442, Time_signature, 4, 2, 24, 8
1, 2447, Note_off_c, 0, 57, 110
1, 2556, Note_on_c, 0, 57, 111
1, 2676, Note_off_c, 0, 57, 111
1, 2742, Note_on_c, 0, 61, 110
1, 2853, Note_off_c, 0, 61, 110
1, 2954, Note_on_c, 0, 65, 96
1, 3008, Note_off_c, 0, 65, 96
1, 3023, Note_on_c, 0, 69, 119
1, 3141, Note_on_c, 0, 67, 118
1, 3141, Note_off_c, 0, 69, 119
1, 3229, Note_off_c, 0, 67, 118
1, 3235, Note_on_c, 0, 65, 120
1, 3343, Note_off_c, 0, 65, 120
1, 3344, Note_on_c, 0, 63, 110
1, 3427, Note_off_c, 0, 63, 110
1, 3439, Note_on_c, 0, 65, 114
1, 3476, Note_off_c, 0, 65, 114
1, 3488, Note_on_c, 0, 64, 115
1, 3558, Note_on_c, 0, 62, 114
1, 3558, Note_off_c, 0, 64, 115
1, 3607, Note_off_c, 0, 62, 114
1, 3612, Note_on_c, 0, 63, 119
1, 3657, Note_on_c, 0, 61, 110
1, 3657, Note_off_c, 0, 63, 119
1, 3758, Note_off_c, 0, 61, 110
1, 5321, Note_on_c, 0, 63, 113
1, 5376, Note_off_c, 0, 63, 113
1, 5376, Note_on_c, 0, 65, 115
1, 5427, Note_off_c, 0, 65, 115
1, 5427, Note_on_c, 0, 66, 110
1, 5468, Note_off_c, 0, 66, 110
1, 5487, Note_on_c, 0, 68, 120
1, 5599, Note_off_c, 0, 68, 120
1, 5599, Note_on_c, 0, 64, 107
1, 5664, Note_on_c, 0, 61, 115
1, 5664, Note_off_c, 0, 64, 107
1, 5743, Note_off_c, 0, 61, 115
1, 5755, Note_on_c, 0, 60, 104
1, 5831, Note_off_c, 0, 60, 104
1, 5840, Note_on_c, 0, 59, 106
1, 5912, Note_off_c, 0, 59, 106
1, 5924, Note_on_c, 0, 55, 91
1, 6089, Note_off_c, 0, 55, 91
1, 6123, Note_on_c, 0, 57, 108
1, 6216, Note_off_c, 0, 57, 108
1, 6216, Note_on_c, 0, 48, 102
1, 6321, Note_off_c, 0, 48, 102
1, 6330, Note_on_c, 0, 50, 106
1, 6424, Note_on_c, 0, 52, 108
1, 6424, Note_off_c, 0, 50, 106
1, 6489, Note_off_c, 0, 52, 108
1, 6489, Note_on_c, 0, 55, 112
1, 6576, Note_off_c, 0, 55, 112
1, 6587, Note_on_c, 0, 52, 104
1, 6686, Note_off_c, 0, 52, 104
1, 6709, Note_on_c, 0, 53, 114
1, 6778, Note_off_c, 0, 53, 114
1, 6789, Note_on_c, 0, 55, 107
1, 6875, Note_off_c, 0, 55, 107
1, 6881, Note_on_c, 0, 57, 104
1, 6964, Note_on_c, 0, 58, 108
1, 6964, Note_off_c, 0, 57, 104
1, 7043, Note_off_c, 0, 58, 108
1, 7062, Note_on_c, 0, 60, 109
1, 7150, Note_off_c, 0, 60, 109
1, 7150, Note_on_c, 0, 62, 121
1, 7231, Note_off_c, 0, 62, 121
1, 7247, Note_on_c, 0, 63, 121
1, 7358, Note_off_c, 0, 63, 121
1, 7371, Note_on_c, 0, 65, 108
1, 7447, Note_off_c, 0, 65, 108
1, 7455, Note_on_c, 0, 67, 113
1, 7559, Note_off_c, 0, 67, 113
1, 7564, Note_on_c, 0, 63, 115
1, 7645, Note_off_c, 0, 63, 115
1, 7654, Note_on_c, 0, 60, 102
1, 7756, Note_off_c, 0, 60, 102
1, 7756, Note_on_c, 0, 62, 105
1, 7833, Note_off_c, 0, 62, 105
1, 7833, Note_on_c, 0, 63, 117
1, 7910, Note_off_c, 0, 63, 117
1, 7943, Note_on_c, 0, 60, 107
1, 8022, Note_off_c, 0, 60, 107
1, 8048, Note_on_c, 0, 57, 101
1, 8132, Note_off_c, 0, 57, 101
1, 8159, Note_on_c, 0, 58, 99
1, 8232, Note_off_c, 0, 58, 99
1, 8238, Note_on_c, 0, 60, 104
1, 8321, Note_off_c, 0, 60, 104
1, 8345, Note_on_c, 0, 57, 107
1, 8419, Note_off_c, 0, 57, 107
1, 8420, Note_on_c, 0, 53, 109
1, 8556, Note_off_c, 0, 53, 109
1, 8560, Note_on_c, 0, 56, 98
1, 8604, Note_off_c, 0, 56, 98
1, 8616, Note_on_c, 0, 57, 103
1, 8715, Note_off_c, 0, 57, 103
1, 8730, Note_on_c, 0, 53, 106
1, 8796, Note_off_c, 0, 53, 106
1, 8811, Note_on_c, 0, 58, 102
1, 8908, Note_off_c, 0, 58, 102
1, 8916, Note_on_c, 0, 60, 105
1, 9003, Note_off_c, 0, 60, 105
1, 9008, Note_on_c, 0, 62, 109
1, 9057, Note_off_c, 0, 62, 109
1, 9058, Note_on_c, 0, 63, 108
1, 9106, Note_off_c, 0, 63, 108
1, 9106, Note_on_c, 0, 65, 114
1, 9183, Note_off_c, 0, 65, 114
1, 9184, Note_on_c, 0, 61, 111
1, 9288, Note_off_c, 0, 61, 111
1, 9332, Note_on_c, 0, 63, 101
1, 9400, Note_off_c, 0, 63, 101
1, 9415, Note_on_c, 0, 65, 97
1, 9492, Note_off_c, 0, 65, 97
1, 9525, Note_on_c, 0, 67, 86
1, 9569, Note_off_c, 0, 67, 86
1, 9569, Note_on_c, 0, 73, 117
1, 9664, Note_off_c, 0, 73, 117
1, 9697, Note_on_c, 0, 72, 109
1, 10235, Note_off_c, 0, 72, 109
1, 10239, Note_on_c, 0, 70, 107
1, 10325, Note_off_c, 0, 70, 107
1, 10325, Note_on_c, 0, 69, 118
1, 10448, Note_off_c, 0, 69, 118
1, 10554, Note_on_c, 0, 62, 106
1, 10662, Note_off_c, 0, 62, 106
1, 10662, Note_on_c, 0, 64, 102
1, 10703, Note_off_c, 0, 64, 102
1, 10708, Note_on_c, 0, 67, 116
1, 10796, Note_off_c, 0, 67, 116
1, 10796, Note_on_c, 0, 64, 121
1, 10891, Note_off_c, 0, 64, 121
1, 10896, Note_on_c, 0, 65, 115
1, 10997, Note_off_c, 0, 65, 115
1, 11003, Note_on_c, 0, 67, 111
1, 11100, Note_off_c, 0, 67, 111
1, 11116, Note_on_c, 0, 69, 117
1, 11192, Note_off_c, 0, 69, 117
1, 11192, Note_on_c, 0, 70, 107
1, 11273, Note_off_c, 0, 70, 107
1, 11275, Note_on_c, 0, 69, 112
1, 11365, Note_on_c, 0, 67, 107
1, 11365, Note_off_c, 0, 69, 112
1, 11456, Note_off_c, 0, 67, 107
1, 11467, Note_on_c, 0, 66, 108
1, 11558, Note_on_c, 0, 63, 117
1, 11558, Note_off_c, 0, 66, 108
1, 11635, Note_off_c, 0, 63, 117
1, 11646, Note_on_c, 0, 62, 116
1, 11747, Note_off_c, 0, 62, 116
1, 11749, Note_on_c, 0, 60, 99
1, 11835, Note_off_c, 0, 60, 99
1, 11841, Note_on_c, 0, 58, 104
1, 11922, Note_on_c, 0, 62, 110
1, 11922, Note_off_c, 0, 58, 104
1, 12055, Note_off_c, 0, 62, 110
1, 12089, Note_on_c, 0, 65, 99
1, 12162, Note_off_c, 0, 65, 99
1, 12189, Note_on_c, 0, 69, 122
1, 12282, Note_off_c, 0, 69, 122
1, 12282, Note_on_c, 0, 67, 108
1, 12370, Note_off_c, 0, 67, 108
1, 12370, Note_on_c, 0, 65, 114
1, 12465, Note_off_c, 0, 65, 114
1, 12476, Note_on_c, 0, 62, 107
1, 12567, Note_off_c, 0, 62, 107
1, 12568, Note_on_c, 0, 63, 122
1, 12642, Note_off_c, 0, 63, 122
1, 12647, Note_on_c, 0, 62, 116
1, 12719, Note_off_c, 0, 62, 116
1, 12739, Note_on_c, 0, 60, 100
1, 12819, Note_off_c, 0, 60, 100
1, 12853, Note_on_c, 0, 58, 99
1, 12971, Note_off_c, 0, 58, 99
1, 13014, Note_on_c, 0, 62, 116
1, 13120, Note_off_c, 0, 62, 116
1, 13128, Note_on_c, 0, 60, 103
1, 13227, Note_off_c, 0, 60, 103
1, 13250, Note_on_c, 0, 59, 105
1, 13343, Note_off_c, 0, 59, 105
1, 13345, Note_on_c, 0, 58, 95
1, 13417, Note_off_c, 0, 58, 95
1, 13446, Note_on_c, 0, 55, 90
1, 13507, Note_off_c, 0, 55, 90
1, 13519, Note_on_c, 0, 57, 105
1, 13609, Note_off_c, 0, 57, 105
1, 13633, Note_on_c, 0, 56, 103
1, 13705, Note_off_c, 0, 56, 103
1, 13714, Note_on_c, 0, 53, 103
1, 13829, Note_off_c, 0, 53, 103
1, 14416, Note_on_c, 0, 72, 112
1, 14518, Note_off_c, 0, 72, 112
1, 14620, Note_on_c, 0, 72, 113
1, 14718, Note_off_c, 0, 72, 113
1, 14817, Note_on_c, 0, 72, 112
1, 14911, Note_off_c, 0, 72, 112
1, 14991, Note_on_c, 0, 65, 113
1, 15093, Note_off_c, 0, 65, 113
1, 15202, Note_on_c, 0, 68, 122
1, 15303, Note_off_c, 0, 68, 122
1, 15389, Note_on_c, 0, 65, 113
1, 15490, Note_off_c, 0, 65, 113
1, 15571, Note_on_c, 0, 70, 115
1, 15675, Note_off_c, 0, 70, 115
1, 15765, Note_on_c, 0, 65, 101
1, 15860, Note_off_c, 0, 65, 101
1, 15939, Note_on_c, 0, 71, 106
1, 16051, Note_off_c, 0, 71, 106
1, 16132, Note_on_c, 0, 65, 108
1, 16227, Note_off_c, 0, 65, 108
1, 16307, Note_on_c, 0, 72, 113
1, 16401, Note_off_c, 0, 72, 113
1, 16510, Note_on_c, 0, 65, 106
1, 16612, Note_off_c, 0, 65, 106
1, 16703, Note_on_c, 0, 65, 104
1, 16765, Note_off_c, 0, 65, 104
1, 16785, Note_on_c, 0, 68, 124
1, 16897, Note_off_c, 0, 68, 124
1, 16897, Note_on_c, 0, 65, 101
1, 16965, Note_off_c, 0, 65, 101
1, 16974, Note_on_c, 0, 68, 122
1, 17098, Note_off_c, 0, 68, 122
1, 17109, Note_on_c, 0, 69, 97
1, 17143, Note_off_c, 0, 69, 97
1, 17143, Note_on_c, 0, 68, 120
1, 17188, Note_off_c, 0, 68, 120
1, 17192, Note_on_c, 0, 65, 110
1, 17296, Note_off_c, 0, 65, 110
1, 17296, Note_on_c, 0, 63, 120
1, 17376, Note_off_c, 0, 63, 120
1, 17391, Note_on_c, 0, 61, 109
1, 17496, Note_off_c, 0, 61, 109
1, 17500, Note_on_c, 0, 59, 112
1, 17552, Note_off_c, 0, 59, 112
1, 17554, Note_on_c, 0, 58, 113
1, 17662, Note_off_c, 0, 58, 113
1, 17692, Note_on_c, 0, 56, 110
1, 17853, Note_off_c, 0, 56, 110
1, 17965, Note_on_c, 0, 56, 107
1, 18103, Note_off_c, 0, 56, 107
1, 19383, Note_on_c, 0, 65, 106
1, 19462, Note_off_c, 0, 65, 106
1, 19464, Note_on_c, 0, 72, 117
1, 19552, Note_off_c, 0, 72, 117
1, 19563, Note_on_c, 0, 65, 110
1, 19682, Note_off_c, 0, 65, 110
1, 19683, Note_on_c, 0, 67, 105
1, 19744, Note_on_c, 0, 70, 110
1, 19744, Note_off_c, 0, 67, 105
1, 19846, Note_off_c, 0, 70, 110
1, 19846, Note_on_c, 0, 68, 119
1, 19965, Note_off_c, 0, 68, 119
1, 20005, Note_on_c, 0, 60, 106
1, 20077, Note_off_c, 0, 60, 106
1, 20079, Note_on_c, 0, 63, 111
1, 20097, Note_off_c, 0, 63, 111
1, 20097, Note_on_c, 0, 65, 113
1, 20162, Note_off_c, 0, 65, 113
1, 20162, Note_on_c, 0, 68, 122
1, 20266, Note_off_c, 0, 68, 122
1, 20266, Note_on_c, 0, 65, 116
1, 20349, Note_off_c, 0, 65, 116
1, 20351, Note_on_c, 0, 60, 106
1, 20424, Note_off_c, 0, 60, 106
1, 20436, Note_on_c, 0, 58, 98
1, 20519, Note_off_c, 0, 58, 98
1, 20538, Note_on_c, 0, 55, 95
1, 20594, Note_off_c, 0, 55, 95
1, 20632, Note_on_c, 0, 63, 123
1, 20861, Note_off_c, 0, 63, 123
1, 20863, Note_on_c, 0, 62, 119
1, 20890, Note_off_c, 0, 62, 119
1, 20890, Note_on_c, 0, 61, 117
1, 20973, Note_off_c, 0, 61, 117
1, 20992, Note_on_c, 0, 60, 113
1, 21119, Note_off_c, 0, 60, 113
1, 21128, Note_on_c, 0, 58, 108
1, 21290, Note_off_c, 0, 58, 108
1, 21306, Note_on_c, 0, 54, 105
1, 21482, Note_off_c, 0, 54, 105
1, 21483, Note_on_c, 0, 57, 113
1, 21662, Note_off_c, 0, 57, 113
1, 21664, Note_on_c, 0, 54, 106
1, 21825, Note_off_c, 0, 54, 106
1, 21833, Note_on_c, 0, 55, 108
1, 22039, Note_off_c, 0, 55, 108
1, 22043, Note_on_c, 0, 58, 111
1, 22222, Note_off_c, 0, 58, 111
1, 22233, Note_on_c, 0, 60, 112
1, 22405, Note_off_c, 0, 60, 112
1, 22423, Note_on_c, 0, 62, 124
1, 22643, Note_off_c, 0, 62, 124
1, 22647, Note_on_c, 0, 65, 120
1, 22849, Note_off_c, 0, 65, 120
1, 22861, Note_on_c, 0, 62, 110
1, 23020, Note_off_c, 0, 62, 110
1, 23022, Note_on_c, 0, 64, 127
1, 23231, Note_off_c, 0, 64, 127
1, 23231, Note_on_c, 0, 67, 117
1, 23426, Note_off_c, 0, 67, 117
1, 23427, Note_on_c, 0, 63, 105
1, 23497, Note_off_c, 0, 63, 105
1, 23501, Note_on_c, 0, 65, 122
1, 23591, Note_off_c, 0, 65, 122
1, 23591, Note_on_c, 0, 64, 124
1, 23706, Note_off_c, 0, 64, 124
1, 23717, Note_on_c, 0, 63, 116
1, 23816, Note_off_c, 0, 63, 116
1, 23835, Note_on_c, 0, 61, 110
1, 23944, Note_off_c, 0, 61, 110
1, 23948, Note_on_c, 0, 60, 105
1, 24010, Note_off_c, 0, 60, 105
1, 24028, Note_on_c, 0, 58, 110
1, 24094, Note_off_c, 0, 58, 110
1, 24095, Note_on_c, 0, 55, 112
1, 24258, Note_off_c, 0, 55, 112
1, 24320, Note_on_c, 0, 56, 98
1, 24450, Note_off_c, 0, 56, 98
1, 24480, Note_on_c, 0, 57, 113
1, 24631, Note_off_c, 0, 57, 113
1, 24646, Note_on_c, 0, 48, 113
1, 24833, Note_off_c, 0, 48, 113
1, 24862, Note_on_c, 0, 51, 113
1, 25025, Note_off_c, 0, 51, 113
1, 25030, Note_on_c, 0, 55, 112
1, 25189, Note_off_c, 0, 55, 112
1, 25213, Note_on_c, 0, 62, 119
1, 25375, Note_off_c, 0, 62, 119
1, 25508, Note_on_c, 0, 63, 116
1, 25644, Note_off_c, 0, 63, 116
1, 26064, Note_on_c, 0, 62, 106
1, 26208, Note_off_c, 0, 62, 106
1, 26446, Note_on_c, 0, 67, 120
1, 26536, Note_off_c, 0, 67, 120
1, 26536, Note_on_c, 0, 66, 113
1, 26606, Note_off_c, 0, 66, 113
1, 26618, Note_on_c, 0, 63, 119
1, 26738, Note_on_c, 0, 61, 107
1, 26738, Note_off_c, 0, 63, 119
1, 26800, Note_off_c, 0, 61, 107
1, 26836, Note_on_c, 0, 59, 101
1, 26913, Note_off_c, 0, 59, 101
1, 26914, Note_on_c, 0, 50, 101
1, 27016, Note_off_c, 0, 50, 101
1, 27016, Note_on_c, 0, 51, 106
1, 27129, Note_off_c, 0, 51, 106
1, 27129, Note_on_c, 0, 54, 106
1, 27220, Note_off_c, 0, 54, 106
1, 27221, Note_on_c, 0, 53, 114
1, 27301, Note_off_c, 0, 53, 114
1, 27301, Note_on_c, 0, 51, 110
1, 27389, Note_off_c, 0, 51, 110
1, 27400, Note_on_c, 0, 48, 105
1, 27549, Note_off_c, 0, 48, 105
1, 27551, Note_on_c, 0, 46, 113
1, 27638, Note_off_c, 0, 46, 113
1, 28712, Note_on_c, 0, 46, 114
1, 28863, Note_off_c, 0, 46, 114
1, 29090, Note_on_c, 0, 56, 118
1, 29199, Note_off_c, 0, 56, 118
1, 29199, Note_on_c, 0, 57, 112
1, 29285, Note_off_c, 0, 57, 112
1, 29901, Note_on_c, 0, 67, 125
1, 29945, Note_off_c, 0, 67, 125
1, 29945, Note_on_c, 0, 68, 122
1, 30017, Note_off_c, 0, 68, 122
1, 30017, Note_on_c, 0, 69, 106
1, 30071, Note_on_c, 0, 65, 116
1, 30071, Note_off_c, 0, 69, 106
1, 30183, Note_off_c, 0, 65, 116
1, 30195, Note_on_c, 0, 67, 104
1, 30294, Note_off_c, 0, 67, 104
1, 30695, Note_on_c, 0, 67, 122
1, 30732, Note_off_c, 0, 67, 122
1, 30734, Note_on_c, 0, 68, 122
1, 30790, Note_off_c, 0, 68, 122
1, 30790, Note_on_c, 0, 69, 117
1, 30848, Note_off_c, 0, 69, 117
1, 30856, Note_on_c, 0, 65, 114
1, 30974, Note_off_c, 0, 65, 114
1, 30998, Note_on_c, 0, 60, 106
1, 31071, Note_on_c, 0, 68, 118
1, 31071, Note_off_c, 0, 60, 106
1, 31170, Note_off_c, 0, 68, 118
1, 31178, Note_on_c, 0, 69, 108
1, 31257, Note_off_c, 0, 69, 108
1, 31266, Note_on_c, 0, 65, 108
1, 31400, Note_off_c, 0, 65, 108
1, 31400, Note_on_c, 0, 60, 97
1, 31444, Note_off_c, 0, 60, 97
1, 31463, Note_on_c, 0, 68, 116
1, 31579, Note_off_c, 0, 68, 116
1, 31592, Note_on_c, 0, 69, 105
1, 31658, Note_off_c, 0, 69, 105
1, 31735, Note_on_c, 0, 65, 110
1, 31829, Note_off_c, 0, 65, 110
1, 31920, Note_on_c, 0, 60, 111
1, 31996, Note_off_c, 0, 60, 111
1, 32023, Note_on_c, 0, 60, 118
1, 32096, Note_off_c, 0, 60, 118
1, 32177, Note_on_c, 0, 68, 120
1, 32281, Note_off_c, 0, 68, 120
1, 32282, Note_on_c, 0, 69, 112
1, 32361, Note_off_c, 0, 69, 112
1, 32373, Note_on_c, 0, 65, 110
1, 32464, Note_off_c, 0, 65, 110
1, 32473, Note_on_c, 0, 60, 97
1, 32552, Note_off_c, 0, 60, 97
1, 32585, Note_on_c, 0, 68, 116
1, 32666, Note_off_c, 0, 68, 116
1, 32684, Note_on_c, 0, 69, 113
1, 32742, Note_off_c, 0, 69, 113
1, 32760, Note_on_c, 0, 65, 108
1, 32862, Note_off_c, 0, 65, 108
1, 32927, Note_on_c, 0, 67, 109
1, 32997, Note_off_c, 0, 67, 109
1, 33069, Note_on_c, 0, 68, 111
1, 33130, Note_off_c, 0, 68, 111
1, 33672, Note_on_c, 0, 65, 117
1, 33737, Note_off_c, 0, 65, 117
1, 33752, Note_on_c, 0, 68, 121
1, 33847, Note_off_c, 0, 68, 121
1, 33847, Note_on_c, 0, 69, 116
1, 33905, Note_off_c, 0, 69, 116
1, 33909, Note_on_c, 0, 68, 118
1, 34029, Note_off_c, 0, 68, 118
1, 34042, Note_on_c, 0, 69, 110
1, 34097, Note_off_c, 0, 69, 110
1, 34102, Note_on_c, 0, 68, 112
1, 34179, Note_off_c, 0, 68, 112
1, 34180, Note_on_c, 0, 65, 111
1, 34263, Note_off_c, 0, 65, 111
1, 34289, Note_on_c, 0, 65, 115
1, 34351, Note_off_c, 0, 65, 115
1, 34712, Note_on_c, 0, 68, 120
1, 34800, Note_off_c, 0, 68, 120
1, 34800, Note_on_c, 0, 69, 108
1, 34854, Note_off_c, 0, 69, 108
1, 34869, Note_on_c, 0, 65, 115
1, 34955, Note_off_c, 0, 65, 115
1, 34963, Note_on_c, 0, 63, 106
1, 35054, Note_off_c, 0, 63, 106
1, 35073, Note_on_c, 0, 65, 116
1, 35120, Note_off_c, 0, 65, 116
1, 35120, Note_on_c, 0, 68, 117
1, 35203, Note_off_c, 0, 68, 117
1, 35204, Note_on_c, 0, 69, 110
1, 35259, Note_off_c, 0, 69, 110
1, 35288, Note_on_c, 0, 65, 104
1, 35381, Note_off_c, 0, 65, 104
1, 35401, Note_on_c, 0, 63, 102
1, 35452, Note_off_c, 0, 63, 102
1, 35456, Note_on_c, 0, 65, 119
1, 35507, Note_off_c, 0, 65, 119
1, 35507, Note_on_c, 0, 68, 118
1, 35570, Note_off_c, 0, 68, 118
1, 35588, Note_on_c, 0, 69, 111
1, 35654, Note_off_c, 0, 69, 111
1, 35665, Note_on_c, 0, 65, 111
1, 35767, Note_off_c, 0, 65, 111
1, 35789, Note_on_c, 0, 63, 103
1, 35843, Note_off_c, 0, 63, 103
1, 35867, Note_on_c, 0, 68, 116
1, 35968, Note_off_c, 0, 68, 116
1, 35970, Note_on_c, 0, 69, 104
1, 36024, Note_off_c, 0, 69, 104
1, 36043, Note_on_c, 0, 65, 111
1, 36145, Note_off_c, 0, 65, 111
1, 36171, Note_on_c, 0, 63, 109
1, 36225, Note_off_c, 0, 63, 109
1, 36256, Note_on_c, 0, 67, 115
1, 36374, Note_off_c, 0, 67, 115
1, 36383, Note_on_c, 0, 68, 115
1, 36476, Note_off_c, 0, 68, 115
1, 36577, Note_on_c, 0, 65, 112
1, 36665, Note_off_c, 0, 65, 112
1, 36752, Note_on_c, 0, 61, 111
1, 36839, Note_off_c, 0, 61, 111
1, 36940, Note_on_c, 0, 67, 114
1, 37042, Note_off_c, 0, 67, 114
1, 37118, Note_on_c, 0, 68, 115
1, 37199, Note_off_c, 0, 68, 115
1, 37330, Note_on_c, 0, 65, 116
1, 37428, Note_off_c, 0, 65, 116
1, 37462, Note_on_c, 0, 61, 108
1, 37516, Note_off_c, 0, 61, 108
1, 37547, Note_on_c, 0, 66, 110
1, 37588, Note_on_c, 0, 67, 116
1, 37588, Note_off_c, 0, 66, 110
1, 37669, Note_off_c, 0, 67, 116
1, 37674, Note_on_c, 0, 68, 105
1, 37747, Note_off_c, 0, 68, 105
1, 37751, Note_on_c, 0, 65, 119
1, 37857, Note_off_c, 0, 65, 119
1, 37884, Note_on_c, 0, 63, 109
1, 37977, Note_off_c, 0, 63, 109
1, 38045, Note_on_c, 0, 68, 116
1, 38122, Note_off_c, 0, 68, 116
1, 38251, Note_on_c, 0, 69, 111
1, 38334, Note_off_c, 0, 69, 111
1, 38456, Note_on_c, 0, 65, 114
1, 38536, Note_off_c, 0, 65, 114
1, 38624, Note_on_c, 0, 65, 98
1, 38679, Note_off_c, 0, 65, 98
1, 38723, Note_on_c, 0, 71, 113
1, 38813, Note_off_c, 0, 71, 113
1, 38814, Note_on_c, 0, 72, 103
1, 38877, Note_off_c, 0, 72, 103
1, 38899, Note_on_c, 0, 68, 111
1, 38976, Note_off_c, 0, 68, 111
1, 39116, Note_on_c, 0, 70, 108
1, 39189, Note_off_c, 0, 70, 108
1, 39200, Note_on_c, 0, 68, 111
1, 39277, Note_off_c, 0, 68, 111
1, 39300, Note_on_c, 0, 66, 107
1, 39376, Note_off_c, 0, 66, 107
1, 39402, Note_on_c, 0, 64, 92
1, 39453, Note_off_c, 0, 64, 92
1, 39479, Note_on_c, 0, 68, 117
1, 39556, Note_off_c, 0, 68, 117
1, 39556, Note_on_c, 0, 67, 112
1, 39633, Note_on_c, 0, 63, 105
1, 39633, Note_off_c, 0, 67, 112
1, 39680, Note_off_c, 0, 63, 105
1, 39681, Note_on_c, 0, 65, 108
1, 39732, Note_off_c, 0, 65, 108
1, 39743, Note_on_c, 0, 67, 117
1, 39801, Note_on_c, 0, 65, 117
1, 39801, Note_off_c, 0, 67, 117
1, 39873, Note_off_c, 0, 65, 117
1, 39892, Note_on_c, 0, 64, 111
1, 39941, Note_off_c, 0, 64, 111
1, 39988, Note_on_c, 0, 61, 107
1, 40060, Note_off_c, 0, 61, 107
1, 40069, Note_on_c, 0, 58, 97
1, 40177, Note_off_c, 0, 58, 97
1, 40232, Note_on_c, 0, 63, 117
1, 40319, Note_off_c, 0, 63, 117
1, 40319, Note_on_c, 0, 62, 110
1, 40396, Note_off_c, 0, 62, 110
1, 40405, Note_on_c, 0, 61, 99
1, 40499, Note_off_c, 0, 61, 99
1, 40515, Note_on_c, 0, 59, 107
1, 40623, Note_off_c, 0, 59, 107
1, 40623, Note_on_c, 0, 60, 106
1, 40672, Note_off_c, 0, 60, 106
1, 40685, Note_on_c, 0, 59, 107
1, 40726, Note_off_c, 0, 59, 107
1, 40737, Note_on_c, 0, 54, 119
1, 40863, Note_off_c, 0, 54, 119
1, 40970, Note_on_c, 0, 59, 101
1, 41072, Note_off_c, 0, 59, 101
1, 41159, Note_on_c, 0, 53, 109
1, 41232, Note_off_c, 0, 53, 109
1, 41260, Note_on_c, 0, 54, 106
1, 41307, Note_off_c, 0, 54, 106
1, 41329, Note_on_c, 0, 56, 105
1, 41431, Note_off_c, 0, 56, 105
1, 42485, Note_on_c, 0, 72, 119
1, 42569, Note_off_c, 0, 72, 119
1, 42680, Note_on_c, 0, 75, 106
1, 43245, Note_off_c, 0, 75, 106
1, 43245, Note_on_c, 0, 72, 121
1, 43360, Note_off_c, 0, 72, 121
1, 43379, Note_on_c, 0, 71, 108
1, 43448, Note_off_c, 0, 71, 108
1, 43448, Note_on_c, 0, 75, 112
1, 43643, Note_off_c, 0, 75, 112
1, 43643, Note_on_c, 0, 72, 114
1, 43729, Note_off_c, 0, 72, 114
1, 43785, Note_on_c, 0, 82, 117
1, 43883, Note_off_c, 0, 82, 117
1, 43883, Note_on_c, 0, 75, 105
1, 44370, Note_off_c, 0, 75, 105
1, 44388, Note_on_c, 0, 72, 112
1, 44496, Note_off_c, 0, 72, 112
1, 44496, Note_on_c, 0, 77, 109
1, 44580, Note_off_c, 0, 77, 109
1, 44580, Note_on_c, 0, 75, 109
1, 44781, Note_off_c, 0, 75, 109
1, 44786, Note_on_c, 0, 72, 115
1, 44870, Note_off_c, 0, 72, 115
1, 44870, Note_on_c, 0, 83, 117
1, 44978, Note_off_c, 0, 83, 117
1, 44978, Note_on_c, 0, 75, 108
1, 45452, Note_off_c, 0, 75, 108
1, 45456, Note_on_c, 0, 72, 115
1, 45853, Note_off_c, 0, 72, 115
1, 45941, Note_on_c, 0, 72, 111
1, 46025, Note_off_c, 0, 72, 111
1, 46026, Note_on_c, 0, 77, 108
1, 46100, Note_off_c, 0, 77, 108
1, 46106, Note_on_c, 0, 75, 106
1, 46301, Note_off_c, 0, 75, 106
1, 46310, Note_on_c, 0, 72, 114
1, 46409, Note_off_c, 0, 72, 114
1, 46421, Note_on_c, 0, 83, 109
1, 46509, Note_off_c, 0, 83, 109
1, 46509, Note_on_c, 0, 82, 111
1, 46558, Note_off_c, 0, 82, 111
1, 46558, Note_on_c, 0, 75, 105
1, 46934, Note_off_c, 0, 75, 105
1, 47042, Note_on_c, 0, 72, 119
1, 47207, Note_off_c, 0, 72, 119
1, 47209, Note_on_c, 0, 71, 109
1, 47252, Note_off_c, 0, 71, 109
1, 47769, Note_on_c, 0, 72, 115
1, 47887, Note_off_c, 0, 72, 115
1, 47887, Note_on_c, 0, 77, 106
1, 47927, Note_off_c, 0, 77, 106
1, 47927, Note_on_c, 0, 75, 101
1, 48431, Note_off_c, 0, 75, 101
1, 48451, Note_on_c, 0, 72, 120
1, 48563, Note_off_c, 0, 72, 120
1, 48665, Note_on_c, 0, 65, 113
1, 48759, Note_off_c, 0, 65, 113
1, 48860, Note_on_c, 0, 65, 108
1, 48919, Note_off_c, 0, 65, 108
1, 48946, Note_on_c, 0, 68, 117
1, 49058, Note_off_c, 0, 68, 117
1, 49128, Note_on_c, 0, 70, 112
1, 49225, Note_off_c, 0, 70, 112
1, 49340, Note_on_c, 0, 68, 118
1, 49517, Note_off_c, 0, 68, 118
1, 49519, Note_on_c, 0, 69, 108
1, 49999, Note_off_c, 0, 69, 108
1, 50040, Note_on_c, 0, 67, 116
1, 50117, Note_off_c, 0, 67, 116
1, 50133, Note_on_c, 0, 65, 113
1, 50191, Note_off_c, 0, 65, 113
1, 50236, Note_on_c, 0, 60, 107
1, 50291, Note_off_c, 0, 60, 107
1, 50317, Note_on_c, 0, 58, 107
1, 50386, Note_off_c, 0, 58, 107
1, 50410, Note_on_c, 0, 55, 104
1, 50464, Note_off_c, 0, 55, 104
1, 50464, Note_on_c, 0, 63, 117
1, 50666, Note_off_c, 0, 63, 117
1, 50666, Note_on_c, 0, 64, 110
1, 50696, Note_off_c, 0, 64, 110
1, 51948, Note_on_c, 0, 69, 118
1, 52053, Note_off_c, 0, 69, 118
1, 52059, Note_on_c, 0, 67, 117
1, 52146, Note_off_c, 0, 67, 117
1, 52147, Note_on_c, 0, 63, 116
1, 52292, Note_off_c, 0, 63, 116
1, 52722, Note_on_c, 0, 60, 110
1, 52871, Note_off_c, 0, 60, 110
1, 53014, Note_on_c, 0, 55, 117
1, 53072, Note_off_c, 0, 55, 117
1, 53072, Note_on_c, 0, 57, 105
1, 53159, Note_off_c, 0, 57, 105
1, 53182, Note_on_c, 0, 60, 107
1, 53272, Note_off_c, 0, 60, 107
1, 53334, Note_on_c, 0, 65, 93
1, 53408, Note_off_c, 0, 65, 93
1, 53437, Note_on_c, 0, 70, 114
1, 53545, Note_off_c, 0, 70, 114
1, 53568, Note_on_c, 0, 68, 121
1, 53627, Note_off_c, 0, 68, 121
1, 53645, Note_on_c, 0, 65, 118
1, 53729, Note_off_c, 0, 65, 118
1, 53744, Note_on_c, 0, 60, 100
1, 53810, Note_off_c, 0, 60, 100
1, 53818, Note_on_c, 0, 68, 119
1, 53941, Note_off_c, 0, 68, 119
1, 53956, Note_on_c, 0, 66, 115
1, 54026, Note_off_c, 0, 66, 115
1, 54037, Note_on_c, 0, 63, 119
1, 54138, Note_off_c, 0, 63, 119
1, 54146, Note_on_c, 0, 59, 103
1, 54216, Note_off_c, 0, 59, 103
1, 54220, Note_on_c, 0, 64, 123
1, 54311, Note_off_c, 0, 64, 123
1, 54311, Note_on_c, 0, 68, 120
1, 54399, Note_off_c, 0, 68, 120
1, 54399, Note_on_c, 0, 66, 112
1, 54482, Note_off_c, 0, 66, 112
1, 54482, Note_on_c, 0, 64, 112
1, 54643, Note_off_c, 0, 64, 112
1, 54773, Note_on_c, 0, 64, 10
1, 54875, Note_off_c, 0, 64, 10
1, 54879, Note_on_c, 0, 63, 119
1, 54962, Note_off_c, 0, 63, 119
1, 54970, Note_on_c, 0, 62, 121
1, 55068, Note_off_c, 0, 62, 121
1, 55069, Note_on_c, 0, 61, 112
1, 55149, Note_off_c, 0, 61, 112
1, 55178, Note_on_c, 0, 59, 103
1, 55216, Note_on_c, 0, 58, 104
1, 55216, Note_off_c, 0, 59, 103
1, 55235, Note_off_c, 0, 58, 104
1, 55447, Note_on_c, 0, 57, 116
1, 55519, Note_off_c, 0, 57, 116
1, 55523, Note_on_c, 0, 54, 103
1, 55592, Note_off_c, 0, 54, 103
1, 55618, Note_on_c, 0, 55, 106
1, 55694, Note_off_c, 0, 55, 106
1, 55718, Note_on_c, 0, 56, 109
1, 56013, Note_off_c, 0, 56, 109
1, 56530, Note_on_c, 0, 58, 117
1, 56611, Note_off_c, 0, 58, 117
1, 56915, Note_on_c, 0, 57, 111
1, 57019, Note_off_c, 0, 57, 111
1, 57019, Note_on_c, 0, 53, 107
1, 57071, Note_off_c, 0, 53, 107
1, 57077, Note_on_c, 0, 50, 102
1, 57135, Note_off_c, 0, 50, 102
1, 57196, Note_on_c, 0, 51, 109
1, 57244, Note_off_c, 0, 51, 109
1, 57252, Note_on_c, 0, 53, 107
1, 57292, Note_off_c, 0, 53, 107
1, 57300, Note_on_c, 0, 55, 114
1, 57368, Note_off_c, 0, 55, 114
1, 57391, Note_on_c, 0, 52, 116
1, 57484, Note_off_c, 0, 52, 116
1, 57514, Note_on_c, 0, 53, 110
1, 57577, Note_off_c, 0, 53, 110
1, 57590, Note_on_c, 0, 55, 107
1, 57658, Note_off_c, 0, 55, 107
1, 57687, Note_on_c, 0, 56, 112
1, 57757, Note_off_c, 0, 56, 112
1, 57783, Note_on_c, 0, 58, 109
1, 57851, Note_off_c, 0, 58, 109
1, 57873, Note_on_c, 0, 60, 112
1, 57956, Note_off_c, 0, 60, 112
1, 57969, Note_on_c, 0, 62, 115
1, 58063, Note_off_c, 0, 62, 115
1, 58068, Note_on_c, 0, 63, 123
1, 58161, Note_off_c, 0, 63, 123
1, 58161, Note_on_c, 0, 61, 110
1, 58247, Note_off_c, 0, 61, 110
1, 58260, Note_on_c, 0, 62, 114
1, 58359, Note_off_c, 0, 62, 114
1, 58847, Note_on_c, 0, 69, 120
1, 58956, Note_off_c, 0, 69, 120
1, 58968, Note_on_c, 0, 70, 112
1, 59056, Note_off_c, 0, 70, 112
1, 59056, Note_on_c, 0, 66, 116
1, 59125, Note_off_c, 0, 66, 116
1, 59145, Note_on_c, 0, 69, 112
1, 59233, Note_off_c, 0, 69, 112
1, 59233, Note_on_c, 0, 67, 114
1, 59335, Note_off_c, 0, 67, 114
1, 59347, Note_on_c, 0, 62, 106
1, 59433, Note_off_c, 0, 62, 106
1, 59433, Note_on_c, 0, 65, 117
1, 59526, Note_off_c, 0, 65, 117
1, 59531, Note_on_c, 0, 62, 106
1, 59611, Note_off_c, 0, 62, 106
1, 59611, Note_on_c, 0, 64, 119
1, 59723, Note_on_c, 0, 62, 119
1, 59723, Note_off_c, 0, 64, 119
1, 59822, Note_off_c, 0, 62, 119
1, 59828, Note_on_c, 0, 60, 109
1, 59907, Note_off_c, 0, 60, 109
1, 59930, Note_on_c, 0, 59, 107
1, 60016, Note_off_c, 0, 59, 107
1, 60016, Note_on_c, 0, 58, 111
1, 60075, Note_off_c, 0, 58, 111
1, 60075, Note_on_c, 0, 60, 111
1, 60134, Note_off_c, 0, 60, 111
1, 60145, Note_on_c, 0, 62, 116
1, 60221, Note_off_c, 0, 62, 116
1, 60251, Note_on_c, 0, 65, 112
1, 60323, Note_off_c, 0, 65, 112
1, 60335, Note_on_c, 0, 69, 121
1, 60434, Note_off_c, 0, 69, 121
1, 60440, Note_on_c, 0, 68, 118
1, 60524, Note_off_c, 0, 68, 118
1, 60548, Note_on_c, 0, 64, 117
1, 60666, Note_on_c, 0, 58, 100
1, 60666, Note_off_c, 0, 64, 117
1, 60721, Note_off_c, 0, 58, 100
1, 60730, Note_on_c, 0, 67, 117
1, 60835, Note_off_c, 0, 67, 117
1, 60841, Note_on_c, 0, 61, 113
1, 60974, Note_on_c, 0, 62, 114
1, 60974, Note_off_c, 0, 61, 113
1, 61037, Note_off_c, 0, 62, 114
1, 61037, Note_on_c, 0, 63, 121
1, 61414, Note_off_c, 0, 63, 121
1, 61488, Note_on_c, 0, 67, 121
1, 61600, Note_off_c, 0, 67, 121
1, 61668, Note_on_c, 0, 62, 115
1, 61773, Note_off_c, 0, 62, 115
1, 61781, Note_on_c, 0, 63, 120
1, 62001, Note_off_c, 0, 63, 120
1, 62030, Note_on_c, 0, 67, 122
1, 62157, Note_off_c, 0, 67, 122
1, 62233, Note_on_c, 0, 62, 111
1, 62345, Note_off_c, 0, 62, 111
1, 62350, Note_on_c, 0, 63, 122
1, 62584, Note_off_c, 0, 63, 122
1, 62610, Note_on_c, 0, 67, 120
1, 62723, Note_off_c, 0, 67, 120
1, 62789, Note_on_c, 0, 62, 113
1, 62908, Note_off_c, 0, 62, 113
1, 62912, Note_on_c, 0, 63, 113
1, 63075, Note_off_c, 0, 63, 113
1, 63094, Note_on_c, 0, 68, 118
1, 63378, Note_off_c, 0, 68, 118
1, 63747, Note_on_c, 0, 72, 122
1, 63865, Note_off_c, 0, 72, 122
1, 63865, Note_on_c, 0, 65, 108
1, 63924, Note_off_c, 0, 65, 108
1, 63942, Note_on_c, 0, 67, 115
1, 64073, Note_off_c, 0, 67, 115
1, 64081, Note_on_c, 0, 68, 121
1, 64294, Note_off_c, 0, 68, 121
1, 64331, Note_on_c, 0, 72, 112
1, 64447, Note_off_c, 0, 72, 112
1, 64513, Note_on_c, 0, 67, 118
1, 64632, Note_off_c, 0, 67, 118
1, 64652, Note_on_c, 0, 68, 119
1, 64853, Note_off_c, 0, 68, 119
1, 64880, Note_on_c, 0, 72, 112
1, 65009, Note_off_c, 0, 72, 112
1, 65065, Note_on_c, 0, 67, 116
1, 65201, Note_off_c, 0, 67, 116
1, 65256, Note_on_c, 0, 67, 109
1, 65399, Note_off_c, 0, 67, 109
1, 65467, Note_on_c, 0, 62, 108
1, 65551, Note_off_c, 0, 62, 108
1, 65557, Note_on_c, 0, 63, 121
1, 65793, Note_off_c, 0, 63, 121
1, 65812, Note_on_c, 0, 67, 115
1, 65930, Note_off_c, 0, 67, 115
1, 65977, Note_on_c, 0, 62, 113
1, 66065, Note_off_c, 0, 62, 113
1, 66073, Note_on_c, 0, 63, 119
1, 66221, Note_off_c, 0, 63, 119
1, 66457, Note_on_c, 0, 68, 120
1, 66619, Note_off_c, 0, 68, 120
1, 67357, Note_on_c, 0, 69, 115
1, 67433, Note_off_c, 0, 69, 115
1, 67439, Note_on_c, 0, 71, 118
1, 67502, Note_off_c, 0, 71, 118
1, 67502, Note_on_c, 0, 70, 119
1, 67547, Note_off_c, 0, 70, 119
1, 67585, Note_on_c, 0, 66, 111
1, 67644, Note_off_c, 0, 66, 111
1, 67746, Note_on_c, 0, 68, 126
1, 67872, Note_off_c, 0, 68, 126
1, 67928, Note_on_c, 0, 60, 116
1, 68040, Note_off_c, 0, 60, 116
1, 69746, Note_on_c, 0, 72, 123
1, 69808, Note_off_c, 0, 72, 123
1, 69808, Note_on_c, 0, 73, 118
1, 69841, Note_off_c, 0, 73, 118
1, 69843, Note_on_c, 0, 75, 112
1, 70485, Note_off_c, 0, 75, 112
1, 70533, Note_on_c, 0, 72, 125
1, 70616, Note_off_c, 0, 72, 125
1, 70616, Note_on_c, 0, 73, 117
1, 70649, Note_off_c, 0, 73, 117
1, 70649, Note_on_c, 0, 74, 111
1, 70694, Note_off_c, 0, 74, 111
1, 70694, Note_on_c, 0, 70, 122
1, 70802, Note_on_c, 0, 72, 120
1, 70802, Note_off_c, 0, 70, 122
1, 70883, Note_off_c, 0, 72, 120
1, 70885, Note_on_c, 0, 68, 123
1, 70984, Note_off_c, 0, 68, 123
1, 70984, Note_on_c, 0, 70, 118
1, 71060, Note_off_c, 0, 70, 118
1, 71069, Note_on_c, 0, 65, 117
1, 71170, Note_off_c, 0, 65, 117
1, 71183, Note_on_c, 0, 68, 124
1, 71235, Note_off_c, 0, 68, 124
1, 71235, Note_on_c, 0, 65, 120
1, 71275, Note_on_c, 0, 63, 122
1, 71275, Note_off_c, 0, 65, 120
1, 71398, Note_off_c, 0, 63, 122
1, 71398, Note_on_c, 0, 65, 115
1, 71464, Note_off_c, 0, 65, 115
1, 71470, Note_on_c, 0, 60, 115
1, 71571, Note_off_c, 0, 60, 115
1, 71594, Note_on_c, 0, 63, 112
1, 71674, Note_off_c, 0, 63, 112
1, 71674, Note_on_c, 0, 68, 111
1, 71767, Note_off_c, 0, 68, 111
1, 71767, Note_on_c, 0, 66, 112
1, 71951, Note_off_c, 0, 66, 112
1, 71969, Note_on_c, 0, 65, 102
1, 72052, Note_off_c, 0, 65, 102
1, 72061, Note_on_c, 0, 67, 111
1, 72130, Note_off_c, 0, 67, 111
1, 72131, Note_on_c, 0, 68, 109
1, 72165, Note_off_c, 0, 68, 109
1, 72173, Note_on_c, 0, 69, 108
1, 72239, Note_off_c, 0, 69, 108
1, 72257, Note_on_c, 0, 65, 116
1, 72356, Note_off_c, 0, 65, 116
1, 72356, Note_on_c, 0, 62, 113
1, 72444, Note_off_c, 0, 62, 113
1, 72453, Note_on_c, 0, 67, 122
1, 72552, Note_off_c, 0, 67, 122
1, 72557, Note_on_c, 0, 64, 125
1, 72645, Note_off_c, 0, 64, 125
1, 72657, Note_on_c, 0, 65, 119
1, 72725, Note_off_c, 0, 65, 119
1, 72725, Note_on_c, 0, 64, 126
1, 72861, Note_off_c, 0, 64, 126
1, 72866, Note_on_c, 0, 63, 122
1, 72961, Note_off_c, 0, 63, 122
1, 72974, Note_on_c, 0, 61, 115
1, 73047, Note_off_c, 0, 61, 115
1, 73053, Note_on_c, 0, 58, 97
1, 73141, Note_off_c, 0, 58, 97
1, 73213, Note_on_c, 0, 62, 122
1, 73318, Note_off_c, 0, 62, 122
1, 73323, Note_on_c, 0, 61, 114
1, 73388, Note_off_c, 0, 61, 114
1, 73401, Note_on_c, 0, 60, 110
1, 73482, Note_off_c, 0, 60, 110
1, 73533, Note_on_c, 0, 59, 112
1, 73599, Note_off_c, 0, 59, 112
1, 73612, Note_on_c, 0, 58, 104
1, 73693, Note_off_c, 0, 58, 104
1, 73715, Note_on_c, 0, 57, 110
1, 73773, Note_off_c, 0, 57, 110
1, 73786, Note_on_c, 0, 56, 115
1, 73880, Note_off_c, 0, 56, 115
1, 73918, Note_on_c, 0, 55, 113
1, 73969, Note_off_c, 0, 55, 113
1, 73969, Note_on_c, 0, 54, 107
1, 74130, Note_off_c, 0, 54, 107
1, 74138, Note_on_c, 0, 50, 95
1, 74222, Note_off_c, 0, 50, 95
1, 74237, Note_on_c, 0, 53, 113
1, 74367, Note_off_c, 0, 53, 113
1, 74729, Note_on_c, 0, 55, 113
1, 74845, Note_off_c, 0, 55, 113
1, 74851, Note_on_c, 0, 52, 113
1, 74913, Note_off_c, 0, 52, 113
1, 74917, Note_on_c, 0, 53, 111
1, 74978, Note_off_c, 0, 53, 111
1, 75002, Note_on_c, 0, 55, 114
1, 75099, Note_off_c, 0, 55, 114
1, 75107, Note_on_c, 0, 57, 108
1, 75166, Note_off_c, 0, 57, 108
1, 75172, Note_on_c, 0, 59, 107
1, 75205, Note_on_c, 0, 58, 105
1, 75205, Note_off_c, 0, 59, 107
1, 75281, Note_off_c, 0, 58, 105
1, 75281, Note_on_c, 0, 60, 114
1, 75374, Note_off_c, 0, 60, 114
1, 75374, Note_on_c, 0, 62, 111
1, 75451, Note_off_c, 0, 62, 111
1, 75464, Note_on_c, 0, 63, 124
1, 75597, Note_off_c, 0, 63, 124
1, 75624, Note_on_c, 0, 65, 120
1, 75758, Note_off_c, 0, 65, 120
1, 75770, Note_on_c, 0, 62, 123
1, 75881, Note_off_c, 0, 62, 123
1, 75961, Note_on_c, 0, 58, 112
1, 76062, Note_off_c, 0, 58, 112
1, 76228, Note_on_c, 0, 53, 112
1, 76316, Note_off_c, 0, 53, 112
1, 76359, Note_on_c, 0, 50, 102
1, 76422, Note_off_c, 0, 50, 102
1, 76430, Note_on_c, 0, 51, 103
1, 76517, Note_off_c, 0, 51, 103
1, 76636, Note_on_c, 0, 57, 106
1, 76705, Note_off_c, 0, 57, 106
1, 76809, Note_on_c, 0, 60, 118
1, 76886, Note_off_c, 0, 60, 118
1, 76913, Note_on_c, 0, 57, 104
1, 76986, Note_off_c, 0, 57, 104
1, 77004, Note_on_c, 0, 58, 110
1, 77070, Note_off_c, 0, 58, 110
1, 77092, Note_on_c, 0, 60, 112
1, 77194, Note_off_c, 0, 60, 112
1, 77264, Note_on_c, 0, 62, 105
1, 77352, Note_off_c, 0, 62, 105
1, 77368, Note_on_c, 0, 69, 120
1, 77465, Note_off_c, 0, 69, 120
1, 77467, Note_on_c, 0, 68, 121
1, 77553, Note_off_c, 0, 68, 121
1, 77561, Note_on_c, 0, 67, 112
1, 77649, Note_off_c, 0, 67, 112
1, 77667, Note_on_c, 0, 66, 111
1, 77740, Note_off_c, 0, 66, 111
1, 77764, Note_on_c, 0, 65, 117
1, 77836, Note_off_c, 0, 65, 117
1, 77856, Note_on_c, 0, 64, 115
1, 77900, Note_off_c, 0, 64, 115
1, 77916, Note_on_c, 0, 63, 118
1, 78043, Note_off_c, 0, 63, 118
1, 78048, Note_on_c, 0, 61, 114
1, 78114, Note_off_c, 0, 61, 114
1, 78133, Note_on_c, 0, 60, 109
1, 78182, Note_off_c, 0, 60, 109
1, 78212, Note_on_c, 0, 58, 109
1, 78284, Note_off_c, 0, 58, 109
1, 78284, End_track
0, 0, End_of_file
