0, 0, Header, 1, 1, 2520
1, 0, Start_track
1, 0, Title_t, "Melody"
1, 0, Tempo, 437956
1, 0, Key_signature, 6, "major"
1, 0, Time_signature, 4, 2, 24, 8
1, 21732, Note_on_c, 0, 58, 100
1, 23573, Note_off_c, 0, 58, 100
1, 23781, Note_on_c, 0, 70, 97
1, 30862, Note_off_c, 0, 70, 97
1, 31329, Note_on_c, 0, 68, 111
1, 32230, Note_off_c, 0, 68, 111
1, 32250, Note_on_c, 0, 66, 100
1, 33151, Note_off_c, 0, 66, 100
1, 33251, Note_on_c, 0, 68, 112
1, 34303, Note_off_c, 0, 68, 112
1, 34816, Note_on_c, 0, 70, 109
1, 35546, Note_off_c, 0, 70, 109
1, 35967, Note_on_c, 0, 66, 106
1, 37006, Note_off_c, 0, 66, 106
1, 37162, Note_on_c, 0, 63, 110
1, 38070, Note_off_c, 0, 63, 110
1, 38070, Note_on_c, 0, 69, 109
1, 41677, Note_off_c, 0, 69, 109
1, 41795, Note_on_c, 0, 72, 111
1, 44730, Note_off_c, 0, 72, 111
1, 54309, Note_on_c, 0, 72, 109
1, 55173, Note_off_c, 0, 72, 109
1, 55227, Note_on_c, 0, 70, 111
1, 55767, Note_off_c, 0, 70, 111
1, 55832, Note_on_c, 0, 69, 113
1, 56696, Note_off_c, 0, 69, 113
1, 56948, Note_on_c, 0, 65, 109
1, 58188, Note_off_c, 0, 65, 109
1, 59171, Note_on_c, 0, 71, 115
1, 61848, Note_off_c, 0, 71, 115
1, 61976, Note_on_c, 0, 69, 114
1, 62915, Note_off_c, 0, 69, 114
1, 62997, Note_on_c, 0, 68, 112
1, 63701, Note_off_c, 0, 68, 112
1, 63771, Note_on_c, 0, 66, 101
1, 65725, Note_off_c, 0, 66, 101
1, 70211, Note_on_c, 0, 62, 118
1, 70805, Note_off_c, 0, 62, 118
1, 70838, Note_on_c, 0, 61, 110
1, 71260, Note_off_c, 0, 61, 110
1, 71335, Note_on_c, 0, 59, 99
1, 72733, Note_off_c, 0, 59, 99
1, 72966, Note_on_c, 0, 62, 111
1, 73644, Note_off_c, 0, 62, 111
1, 73699, Note_on_c, 0, 61, 105
1, 74309, Note_off_c, 0, 61, 105
1, 74400, Note_on_c, 0, 59, 103
1, 74942, Note_off_c, 0, 59, 103
1, 75056, Note_on_c, 0, 62, 114
1, 75640, Note_off_c, 0, 62, 114
1, 75640, Note_on_c, 0, 61, 105
1, 76099, Note_off_c, 0, 61, 105
1, 76138, Note_on_c, 0, 59, 101
1, 76678, Note_off_c, 0, 59, 101
1, 76764, Note_on_c, 0, 58, 97
1, 80388, Note_off_c, 0, 58, 97
1, 83216, Note_on_c, 0, 56, 103
1, 83717, Note_off_c, 0, 56, 103
1, 83731, Note_on_c, 0, 54, 96
1, 84682, Note_off_c, 0, 54, 96
1, 84682, Note_on_c, 0, 56, 102
1, 85621, Note_off_c, 0, 56, 102
1, 85687, Note_on_c, 0, 58, 100
1, 86240, Note_off_c, 0, 58, 100
1, 89520, Note_on_c, 0, 58, 100
1, 90421, Note_off_c, 0, 58, 100
1, 90466, Note_on_c, 0, 56, 104
1, 91138, Note_off_c, 0, 56, 104
1, 91206, Note_on_c, 0, 54, 97
1, 92053, Note_off_c, 0, 54, 97
1, 92393, Note_on_c, 0, 58, 107
1, 92944, Note_off_c, 0, 58, 107
1, 92944, Note_on_c, 0, 56, 104
1, 93720, Note_off_c, 0, 56, 104
1, 93740, Note_on_c, 0, 54, 110
1, 94412, Note_off_c, 0, 54, 110
1, 94741, Note_on_c, 0, 58, 101
1, 95429, Note_on_c, 0, 56, 107
1, 95429, Note_off_c, 0, 58, 101
1, 95896, Note_off_c, 0, 56, 107
1, 95921, Note_on_c, 0, 54, 108
1, 96522, Note_off_c, 0, 54, 108
1, 96604, Note_on_c, 0, 51, 98
1, 99163, Note_off_c, 0, 51, 98
1, 101233, Note_on_c, 0, 69, 80
1, 101400, Note_off_c, 0, 69, 80
1, 101533, Note_on_c, 0, 70, 105
1, 102134, Note_off_c, 0, 70, 105
1, 103200, Note_on_c, 0, 66, 94
1, 105666, Note_off_c, 0, 66, 94
1, 111759, Note_on_c, 0, 58, 106
1, 112149, Note_off_c, 0, 58, 106
1, 112149, Note_on_c, 0, 63, 116
1, 112829, Note_off_c, 0, 63, 116
1, 112829, Note_on_c, 0, 62, 118
1, 113355, Note_off_c, 0, 62, 118
1, 113355, Note_on_c, 0, 63, 116
1, 114027, Note_off_c, 0, 63, 116
1, 114139, Note_on_c, 0, 65, 113
1, 114627, Note_off_c, 0, 65, 113
1, 114639, Note_on_c, 0, 66, 114
1, 115165, Note_off_c, 0, 66, 114
1, 115202, Note_on_c, 0, 65, 106
1, 115778, Note_off_c, 0, 65, 106
1, 115778, Note_on_c, 0, 66, 110
1, 116379, Note_off_c, 0, 66, 110
1, 116410, Note_on_c, 0, 68, 109
1, 116965, Note_off_c, 0, 68, 109
1, 117004, Note_on_c, 0, 69, 113
1, 117734, Note_off_c, 0, 69, 113
1, 117763, Note_on_c, 0, 68, 104
1, 118347, Note_off_c, 0, 68, 104
1, 118347, Note_on_c, 0, 69, 109
1, 119136, Note_off_c, 0, 69, 109
1, 119165, Note_on_c, 0, 70, 94
1, 119749, Note_off_c, 0, 70, 94
1, 119749, Note_on_c, 0, 72, 111
1, 120312, Note_off_c, 0, 72, 111
1, 120361, Note_on_c, 0, 70, 93
1, 120820, Note_off_c, 0, 70, 93
1, 120820, Note_on_c, 0, 72, 110
1, 121901, Note_off_c, 0, 72, 110
1, 124101, Note_on_c, 0, 70, 108
1, 124401, Note_off_c, 0, 70, 108
1, 124434, Note_on_c, 0, 69, 111
1, 124951, Note_off_c, 0, 69, 111
1, 125076, Note_on_c, 0, 65, 107
1, 125614, Note_off_c, 0, 65, 107
1, 125618, Note_on_c, 0, 67, 109
1, 126290, Note_off_c, 0, 67, 109
1, 126515, Note_on_c, 0, 63, 113
1, 127153, Note_off_c, 0, 63, 113
1, 127165, Note_on_c, 0, 60, 104
1, 127970, Note_off_c, 0, 60, 104
1, 127970, Note_on_c, 0, 57, 97
1, 128228, Note_off_c, 0, 57, 97
1, 128228, Note_on_c, 0, 65, 110
1, 128841, Note_off_c, 0, 65, 110
1, 128878, Note_on_c, 0, 62, 114
1, 129637, Note_off_c, 0, 62, 114
1, 129641, Note_on_c, 0, 60, 107
1, 130400, Note_off_c, 0, 60, 107
1, 130429, Note_on_c, 0, 58, 101
1, 130867, Note_off_c, 0, 58, 101
1, 131777, Note_on_c, 0, 58, 105
1, 132303, Note_off_c, 0, 58, 105
1, 132357, Note_on_c, 0, 57, 104
1, 133075, Note_off_c, 0, 57, 104
1, 133208, Note_on_c, 0, 53, 101
1, 134230, Note_off_c, 0, 53, 101
1, 134872, Note_on_c, 0, 55, 104
1, 135544, Note_off_c, 0, 55, 104
1, 135585, Note_on_c, 0, 51, 114
1, 136169, Note_off_c, 0, 51, 114
1, 136210, Note_on_c, 0, 50, 112
1, 136852, Note_off_c, 0, 50, 112
1, 136910, Note_on_c, 0, 54, 98
1, 139678, Note_off_c, 0, 54, 98
1, 142809, Note_on_c, 0, 53, 97
1, 143460, Note_off_c, 0, 53, 97
1, 143496, Note_on_c, 0, 54, 114
1, 144059, Note_off_c, 0, 54, 114
1, 144173, Note_on_c, 0, 56, 109
1, 144774, Note_off_c, 0, 56, 109
1, 144774, Note_on_c, 0, 57, 105
1, 145270, Note_off_c, 0, 57, 105
1, 145270, Note_on_c, 0, 59, 100
1, 145883, Note_off_c, 0, 59, 100
1, 145888, Note_on_c, 0, 61, 109
1, 146451, Note_off_c, 0, 61, 109
1, 146505, Note_on_c, 0, 62, 115
1, 147177, Note_off_c, 0, 62, 115
1, 147208, Note_on_c, 0, 64, 121
1, 147759, Note_off_c, 0, 64, 121
1, 147788, Note_on_c, 0, 66, 110
1, 148401, Note_off_c, 0, 66, 110
1, 148423, Note_on_c, 0, 68, 112
1, 148919, Note_off_c, 0, 68, 112
1, 148992, Note_on_c, 0, 69, 100
1, 149442, Note_off_c, 0, 69, 100
1, 149454, Note_on_c, 0, 71, 114
1, 150535, Note_off_c, 0, 71, 114
1, 151512, Note_on_c, 0, 69, 115
1, 151996, Note_off_c, 0, 69, 115
1, 152062, Note_on_c, 0, 68, 110
1, 152880, Note_off_c, 0, 68, 110
1, 153982, Note_on_c, 0, 62, 111
1, 154654, Note_off_c, 0, 62, 111
1, 154670, Note_on_c, 0, 66, 115
1, 155312, Note_off_c, 0, 66, 115
1, 155318, Note_on_c, 0, 62, 118
1, 155670, Note_off_c, 0, 62, 118
1, 155722, Note_on_c, 0, 65, 111
1, 156540, Note_off_c, 0, 65, 111
1, 160408, Note_on_c, 0, 65, 116
1, 161080, Note_off_c, 0, 65, 116
1, 161086, Note_on_c, 0, 62, 118
1, 161787, Note_off_c, 0, 62, 118
1, 161843, Note_on_c, 0, 60, 110
1, 163128, Note_off_c, 0, 60, 110
1, 168056, Note_on_c, 0, 69, 106
1, 168435, Note_off_c, 0, 69, 106
1, 168483, Note_on_c, 0, 65, 112
1, 168862, Note_off_c, 0, 65, 112
1, 168903, Note_on_c, 0, 62, 116
1, 169303, Note_off_c, 0, 62, 116
1, 169315, Note_on_c, 0, 60, 107
1, 170425, Note_off_c, 0, 60, 107
1, 170754, Note_on_c, 0, 69, 108
1, 171054, Note_off_c, 0, 69, 108
1, 171120, Note_on_c, 0, 65, 114
1, 171487, Note_off_c, 0, 65, 114
1, 171516, Note_on_c, 0, 62, 116
1, 172004, Note_off_c, 0, 62, 116
1, 172004, Note_on_c, 0, 60, 111
1, 173026, Note_off_c, 0, 60, 111
1, 173266, Note_on_c, 0, 69, 108
1, 173529, Note_off_c, 0, 69, 108
1, 173589, Note_on_c, 0, 65, 105
1, 173776, Note_off_c, 0, 65, 105
1, 173776, Note_on_c, 0, 62, 115
1, 174272, Note_off_c, 0, 62, 115
1, 174380, Note_on_c, 0, 60, 107
1, 175344, Note_off_c, 0, 60, 107
1, 175556, Note_on_c, 0, 69, 105
1, 175789, Note_off_c, 0, 69, 105
1, 175855, Note_on_c, 0, 65, 110
1, 176155, Note_off_c, 0, 65, 110
1, 176180, Note_on_c, 0, 63, 113
1, 176501, Note_off_c, 0, 63, 113
1, 176622, Note_on_c, 0, 61, 103
1, 179416, Note_off_c, 0, 61, 103
1, 181008, Note_on_c, 0, 72, 111
1, 182293, Note_off_c, 0, 72, 111
1, 182293, Note_on_c, 0, 70, 107
1, 183432, Note_off_c, 0, 70, 107
1, 183899, Note_on_c, 0, 65, 106
1, 184099, Note_off_c, 0, 65, 106
1, 184141, Note_on_c, 0, 61, 117
1, 184980, Note_off_c, 0, 61, 117
1, 186432, Note_on_c, 0, 61, 110
1, 187045, Note_off_c, 0, 61, 110
1, 187794, Note_on_c, 0, 68, 115
1, 188758, Note_off_c, 0, 68, 115
1, 188980, Note_on_c, 0, 61, 99
1, 189616, Note_off_c, 0, 61, 99
1, 189616, Note_on_c, 0, 65, 107
1, 190814, Note_off_c, 0, 65, 107
1, 191400, Note_on_c, 0, 67, 107
1, 196397, Note_off_c, 0, 67, 107
1, 196860, Note_on_c, 0, 65, 111
1, 197699, Note_off_c, 0, 65, 111
1, 197776, Note_on_c, 0, 63, 112
1, 198945, Note_off_c, 0, 63, 112
1, 199293, Note_on_c, 0, 60, 108
1, 199965, Note_off_c, 0, 60, 108
1, 200202, Note_on_c, 0, 58, 103
1, 200753, Note_off_c, 0, 58, 103
1, 200798, Note_on_c, 0, 59, 99
1, 201197, Note_off_c, 0, 59, 99
1, 201228, Note_on_c, 0, 58, 98
1, 201716, Note_off_c, 0, 58, 98
1, 201753, Note_on_c, 0, 56, 93
1, 202554, Note_off_c, 0, 56, 93
1, 202566, Note_on_c, 0, 58, 100
1, 204332, Note_off_c, 0, 58, 100
1, 204332, Note_on_c, 0, 60, 97
1, 206862, Note_off_c, 0, 60, 97
1, 211033, Note_on_c, 0, 55, 98
1, 211346, Note_off_c, 0, 55, 98
1, 211383, Note_on_c, 0, 56, 97
1, 211721, Note_off_c, 0, 56, 97
1, 211721, Note_on_c, 0, 60, 108
1, 212146, Note_on_c, 0, 63, 112
1, 212146, Note_off_c, 0, 60, 108
1, 212722, Note_off_c, 0, 63, 112
1, 212722, Note_on_c, 0, 67, 98
1, 212922, Note_off_c, 0, 67, 98
1, 213034, Note_on_c, 0, 70, 109
1, 213706, Note_off_c, 0, 70, 109
1, 213751, Note_on_c, 0, 68, 114
1, 214218, Note_off_c, 0, 68, 114
1, 214247, Note_on_c, 0, 63, 119
1, 215115, Note_off_c, 0, 63, 119
1, 215172, Note_on_c, 0, 60, 102
1, 215727, Note_off_c, 0, 60, 102
1, 215737, Note_on_c, 0, 67, 107
1, 216467, Note_off_c, 0, 67, 107
1, 216467, Note_on_c, 0, 65, 112
1, 216932, Note_off_c, 0, 65, 112
1, 216932, Note_on_c, 0, 61, 108
1, 217574, Note_on_c, 0, 58, 106
1, 217574, Note_off_c, 0, 61, 108
1, 218129, Note_off_c, 0, 58, 106
1, 218187, Note_on_c, 0, 63, 113
1, 218844, Note_off_c, 0, 63, 113
1, 218927, Note_on_c, 0, 61, 105
1, 219920, Note_off_c, 0, 61, 105
1, 223245, Note_on_c, 0, 63, 112
1, 223975, Note_off_c, 0, 63, 112
1, 223983, Note_on_c, 0, 61, 107
1, 224684, Note_off_c, 0, 61, 107
1, 224735, Note_on_c, 0, 59, 99
1, 228069, Note_off_c, 0, 59, 99
1, 231761, Note_on_c, 0, 50, 107
1, 232408, Note_off_c, 0, 50, 107
1, 232460, Note_on_c, 0, 51, 113
1, 232929, Note_off_c, 0, 51, 113
1, 233022, Note_on_c, 0, 53, 100
1, 233627, Note_off_c, 0, 53, 100
1, 233726, Note_on_c, 0, 54, 105
1, 234326, Note_off_c, 0, 54, 105
1, 234326, Note_on_c, 0, 56, 106
1, 235014, Note_off_c, 0, 56, 106
1, 235024, Note_on_c, 0, 58, 104
1, 235608, Note_off_c, 0, 58, 104
1, 235626, Note_on_c, 0, 61, 112
1, 236283, Note_off_c, 0, 61, 112
1, 236350, Note_on_c, 0, 60, 107
1, 237051, Note_off_c, 0, 60, 107
1, 237051, Note_on_c, 0, 57, 97
1, 237606, Note_off_c, 0, 57, 97
1, 237644, Note_on_c, 0, 58, 101
1, 238372, Note_off_c, 0, 58, 101
1, 242073, Note_on_c, 0, 54, 111
1, 242845, Note_off_c, 0, 54, 111
1, 242880, Note_on_c, 0, 53, 109
1, 243279, Note_off_c, 0, 53, 109
1, 243324, Note_on_c, 0, 51, 105
1, 243950, Note_off_c, 0, 51, 105
1, 243987, Note_on_c, 0, 56, 106
1, 244571, Note_off_c, 0, 56, 106
1, 244621, Note_on_c, 0, 53, 97
1, 245122, Note_off_c, 0, 53, 97
1, 245414, Note_on_c, 0, 58, 103
1, 245927, Note_off_c, 0, 58, 103
1, 245930, Note_on_c, 0, 61, 112
1, 246399, Note_off_c, 0, 61, 112
1, 246425, Note_on_c, 0, 64, 117
1, 246988, Note_off_c, 0, 64, 117
1, 246988, Note_on_c, 0, 66, 109
1, 247342, Note_off_c, 0, 66, 109
1, 247394, Note_on_c, 0, 67, 114
1, 247644, Note_off_c, 0, 67, 114
1, 247740, Note_on_c, 0, 68, 117
1, 248103, Note_on_c, 0, 67, 116
1, 248103, Note_off_c, 0, 68, 117
1, 248441, Note_off_c, 0, 67, 116
1, 248441, Note_on_c, 0, 66, 106
1, 248929, Note_off_c, 0, 66, 106
1, 248929, Note_on_c, 0, 65, 113
1, 249329, Note_off_c, 0, 65, 113
1, 249329, Note_on_c, 0, 64, 117
1, 249855, Note_off_c, 0, 64, 117
1, 249855, Note_on_c, 0, 63, 111
1, 250280, Note_off_c, 0, 63, 111
1, 250280, Note_on_c, 0, 62, 114
1, 250643, Note_on_c, 0, 61, 111
1, 250643, Note_off_c, 0, 62, 114
1, 251068, Note_off_c, 0, 61, 111
1, 251068, Note_on_c, 0, 60, 107
1, 251381, Note_off_c, 0, 60, 107
1, 251518, Note_on_c, 0, 59, 103
1, 251881, Note_off_c, 0, 59, 103
1, 251881, Note_on_c, 0, 58, 105
1, 252219, Note_off_c, 0, 58, 105
1, 252219, Note_on_c, 0, 57, 109
1, 252607, Note_off_c, 0, 57, 109
1, 252632, Note_on_c, 0, 56, 108
1, 253208, Note_off_c, 0, 56, 108
1, 253245, Note_on_c, 0, 55, 114
1, 253717, Note_off_c, 0, 55, 114
1, 253717, Note_on_c, 0, 54, 106
1, 254167, Note_off_c, 0, 54, 106
1, 254232, Note_on_c, 0, 50, 104
1, 254520, Note_off_c, 0, 50, 104
1, 254557, Note_on_c, 0, 49, 112
1, 254857, Note_off_c, 0, 49, 112
1, 254911, Note_on_c, 0, 48, 111
1, 255498, Note_off_c, 0, 48, 111
1, 255544, Note_on_c, 0, 47, 106
1, 256784, Note_off_c, 0, 47, 106
1, 257072, Note_on_c, 0, 46, 109
1, 258236, Note_off_c, 0, 46, 109
1, 258323, Note_on_c, 0, 58, 96
1, 262080, Note_off_c, 0, 58, 96
1, 262530, Note_on_c, 0, 53, 105
1, 263187, Note_off_c, 0, 53, 105
1, 263243, Note_on_c, 0, 51, 105
1, 264944, Note_off_c, 0, 51, 105
1, 269129, Note_on_c, 0, 50, 104
1, 269655, Note_off_c, 0, 50, 104
1, 269747, Note_on_c, 0, 51, 105
1, 270448, Note_off_c, 0, 51, 105
1, 270498, Note_on_c, 0, 54, 100
1, 271155, Note_off_c, 0, 54, 100
1, 271206, Note_on_c, 0, 56, 99
1, 271869, Note_off_c, 0, 56, 99
1, 271869, Note_on_c, 0, 58, 106
1, 272608, Note_off_c, 0, 58, 106
1, 272608, Note_on_c, 0, 62, 109
1, 273234, Note_off_c, 0, 62, 109
1, 273234, Note_on_c, 0, 65, 116
1, 274058, Note_off_c, 0, 65, 116
1, 274379, Note_on_c, 0, 65, 114
1, 275140, Note_off_c, 0, 65, 114
1, 275148, Note_on_c, 0, 63, 119
1, 275941, Note_off_c, 0, 63, 119
1, 276362, Note_on_c, 0, 63, 117
1, 277044, Note_off_c, 0, 63, 117
1, 277044, Note_on_c, 0, 68, 101
1, 277753, Note_off_c, 0, 68, 101
1, 278114, Note_on_c, 0, 58, 105
1, 278978, Note_off_c, 0, 58, 105
1, 279034, Note_on_c, 0, 57, 101
1, 279729, Note_off_c, 0, 57, 101
1, 280123, Note_on_c, 0, 57, 100
1, 280780, Note_off_c, 0, 57, 100
1, 280780, Note_on_c, 0, 53, 104
1, 281625, Note_off_c, 0, 53, 104
1, 281888, Note_on_c, 0, 53, 110
1, 282508, Note_off_c, 0, 53, 110
1, 282601, Note_on_c, 0, 51, 116
1, 283371, Note_off_c, 0, 51, 116
1, 283684, Note_on_c, 0, 51, 108
1, 284454, Note_off_c, 0, 51, 108
1, 284479, Note_on_c, 0, 48, 111
1, 285286, Note_off_c, 0, 48, 111
1, 290095, Note_on_c, 0, 60, 109
1, 290508, Note_off_c, 0, 60, 109
1, 290677, Note_on_c, 0, 69, 115
1, 291096, Note_off_c, 0, 69, 115
1, 291096, Note_on_c, 0, 60, 99
1, 291697, Note_off_c, 0, 60, 99
1, 291934, Note_on_c, 0, 65, 106
1, 292328, Note_off_c, 0, 65, 106
1, 292684, Note_on_c, 0, 69, 111
1, 293285, Note_off_c, 0, 69, 111
1, 293335, Note_on_c, 0, 67, 109
1, 293911, Note_on_c, 0, 65, 101
1, 293911, Note_off_c, 0, 67, 109
1, 294487, Note_on_c, 0, 69, 112
1, 294487, Note_off_c, 0, 65, 101
1, 295175, Note_off_c, 0, 69, 112
1, 295175, Note_on_c, 0, 60, 96
1, 295776, Note_off_c, 0, 60, 96
1, 295776, Note_on_c, 0, 65, 103
1, 296402, Note_off_c, 0, 65, 103
1, 296402, Note_on_c, 0, 69, 110
1, 297097, Note_off_c, 0, 69, 110
1, 297097, Note_on_c, 0, 67, 102
1, 297792, Note_off_c, 0, 67, 102
1, 297792, Note_on_c, 0, 65, 102
1, 298167, Note_off_c, 0, 65, 102
1, 298354, Note_on_c, 0, 68, 115
1, 299067, Note_off_c, 0, 68, 115
1, 299067, Note_on_c, 0, 59, 98
1, 299574, Note_off_c, 0, 59, 98
1, 299574, Note_on_c, 0, 64, 114
1, 300344, Note_off_c, 0, 64, 114
1, 300344, Note_on_c, 0, 68, 112
1, 300888, Note_off_c, 0, 68, 112
1, 300958, Note_on_c, 0, 66, 101
1, 301404, Note_off_c, 0, 66, 101
1, 301469, Note_on_c, 0, 64, 98
1, 301957, Note_off_c, 0, 64, 98
1, 302094, Note_on_c, 0, 68, 113
1, 302845, Note_off_c, 0, 68, 113
1, 302920, Note_on_c, 0, 59, 98
1, 303508, Note_off_c, 0, 59, 98
1, 303508, Note_on_c, 0, 64, 115
1, 304059, Note_off_c, 0, 64, 115
1, 304088, Note_on_c, 0, 68, 112
1, 304714, Note_off_c, 0, 68, 112
1, 304758, Note_on_c, 0, 66, 100
1, 305321, Note_off_c, 0, 66, 100
1, 305410, Note_on_c, 0, 64, 95
1, 305748, Note_off_c, 0, 64, 95
1, 306036, Note_on_c, 0, 68, 110
1, 306787, Note_on_c, 0, 59, 98
1, 306787, Note_off_c, 0, 68, 110
1, 307175, Note_off_c, 0, 59, 98
1, 307175, Note_on_c, 0, 64, 110
1, 307876, Note_off_c, 0, 64, 110
1, 307876, Note_on_c, 0, 68, 112
1, 308602, Note_off_c, 0, 68, 112
1, 308602, Note_on_c, 0, 66, 99
1, 309128, Note_off_c, 0, 66, 99
1, 309128, Note_on_c, 0, 64, 102
1, 309541, Note_on_c, 0, 68, 110
1, 309541, Note_off_c, 0, 64, 102
1, 310129, Note_off_c, 0, 68, 110
1, 310454, Note_on_c, 0, 59, 98
1, 310842, Note_off_c, 0, 59, 98
1, 310842, Note_on_c, 0, 64, 106
1, 311480, Note_off_c, 0, 64, 106
1, 311580, Note_on_c, 0, 68, 111
1, 312344, Note_off_c, 0, 68, 111
1, 312361, Note_on_c, 0, 66, 97
1, 312783, Note_off_c, 0, 66, 97
1, 312894, Note_on_c, 0, 65, 98
1, 313182, Note_off_c, 0, 65, 98
1, 313182, Note_on_c, 0, 68, 112
1, 313895, Note_off_c, 0, 68, 112
1, 314195, Note_on_c, 0, 59, 94
1, 314670, Note_off_c, 0, 59, 94
1, 314670, Note_on_c, 0, 64, 108
1, 315308, Note_on_c, 0, 68, 108
1, 315308, Note_off_c, 0, 64, 108
1, 315934, Note_off_c, 0, 68, 108
1, 315934, Note_on_c, 0, 66, 98
1, 316472, Note_on_c, 0, 64, 105
1, 316472, Note_off_c, 0, 66, 98
1, 317023, Note_off_c, 0, 64, 105
1, 317076, Note_on_c, 0, 65, 106
1, 320998, Note_off_c, 0, 65, 106
1, 322446, Note_on_c, 0, 62, 109
1, 322959, Note_off_c, 0, 62, 109
1, 323063, Note_on_c, 0, 65, 106
1, 323485, Note_off_c, 0, 65, 106
1, 323596, Note_on_c, 0, 62, 101
1, 324122, Note_off_c, 0, 62, 101
1, 324165, Note_on_c, 0, 63, 108
1, 324705, Note_off_c, 0, 63, 108
1, 324747, Note_on_c, 0, 65, 110
1, 325435, Note_off_c, 0, 65, 110
1, 325435, Note_on_c, 0, 62, 110
1, 326161, Note_off_c, 0, 62, 110
1, 326186, Note_on_c, 0, 58, 94
1, 326874, Note_off_c, 0, 58, 94
1, 326933, Note_on_c, 0, 60, 106
1, 327449, Note_off_c, 0, 60, 106
1, 327499, Note_on_c, 0, 62, 105
1, 327949, Note_off_c, 0, 62, 105
1, 327949, Note_on_c, 0, 58, 101
1, 328675, Note_off_c, 0, 58, 101
1, 328687, Note_on_c, 0, 54, 103
1, 329162, Note_off_c, 0, 54, 103
1, 329230, Note_on_c, 0, 53, 103
1, 329840, Note_off_c, 0, 53, 103
1, 329886, Note_on_c, 0, 51, 93
1, 330361, Note_off_c, 0, 51, 93
1, 330361, Note_on_c, 0, 56, 102
1, 331175, Note_off_c, 0, 56, 102
1, 331237, Note_on_c, 0, 54, 89
1, 332126, Note_off_c, 0, 54, 89
1, 335507, Note_on_c, 0, 66, 113
1, 336095, Note_off_c, 0, 66, 113
1, 336257, Note_on_c, 0, 68, 117
1, 336682, Note_off_c, 0, 68, 117
1, 337007, Note_on_c, 0, 70, 109
1, 337520, Note_off_c, 0, 70, 109
1, 337870, Note_on_c, 0, 72, 111
1, 338421, Note_off_c, 0, 72, 111
1, 338633, Note_on_c, 0, 72, 107
1, 339234, Note_off_c, 0, 72, 107
1, 339484, Note_on_c, 0, 72, 112
1, 340185, Note_off_c, 0, 72, 112
1, 340335, Note_on_c, 0, 72, 113
1, 340973, Note_off_c, 0, 72, 113
1, 341098, Note_on_c, 0, 72, 111
1, 341686, Note_off_c, 0, 72, 111
1, 341911, Note_on_c, 0, 72, 114
1, 342549, Note_off_c, 0, 72, 114
1, 342761, Note_on_c, 0, 72, 116
1, 343500, Note_off_c, 0, 72, 116
1, 343550, Note_on_c, 0, 72, 86
1, 344226, Note_off_c, 0, 72, 86
1, 352405, Note_on_c, 0, 70, 110
1, 352931, Note_off_c, 0, 70, 110
1, 353294, Note_on_c, 0, 72, 116
1, 353907, Note_off_c, 0, 72, 116
1, 354019, Note_on_c, 0, 68, 112
1, 354557, Note_off_c, 0, 68, 112
1, 354607, Note_on_c, 0, 70, 112
1, 355308, Note_off_c, 0, 70, 112
1, 355508, Note_on_c, 0, 66, 111
1, 356247, Note_off_c, 0, 66, 111
1, 356247, Note_on_c, 0, 63, 109
1, 356885, Note_off_c, 0, 63, 109
1, 360755, Note_on_c, 0, 69, 115
1, 361494, Note_off_c, 0, 69, 115
1, 361569, Note_on_c, 0, 72, 106
1, 362182, Note_off_c, 0, 72, 106
1, 362294, Note_on_c, 0, 72, 114
1, 362907, Note_off_c, 0, 72, 114
1, 363107, Note_on_c, 0, 72, 115
1, 363745, Note_off_c, 0, 72, 115
1, 363895, Note_on_c, 0, 72, 111
1, 364396, Note_off_c, 0, 72, 111
1, 370621, Note_on_c, 0, 72, 117
1, 371122, Note_off_c, 0, 72, 117
1, 371172, Note_on_c, 0, 70, 112
1, 371760, Note_off_c, 0, 70, 112
1, 371872, Note_on_c, 0, 69, 114
1, 372560, Note_off_c, 0, 69, 114
1, 372572, Note_on_c, 0, 65, 110
1, 372910, Note_off_c, 0, 65, 110
1, 375239, Note_on_c, 0, 67, 118
1, 375990, Note_off_c, 0, 67, 118
1, 376015, Note_on_c, 0, 63, 118
1, 376716, Note_off_c, 0, 63, 118
1, 376778, Note_on_c, 0, 60, 106
1, 377416, Note_off_c, 0, 60, 106
1, 379106, Note_on_c, 0, 66, 109
1, 379607, Note_off_c, 0, 66, 109
1, 379732, Note_on_c, 0, 71, 110
1, 380283, Note_off_c, 0, 71, 110
1, 380633, Note_on_c, 0, 71, 112
1, 381271, Note_off_c, 0, 71, 112
1, 381358, Note_on_c, 0, 71, 110
1, 381984, Note_off_c, 0, 71, 110
1, 382121, Note_on_c, 0, 71, 110
1, 382834, Note_off_c, 0, 71, 110
1, 382959, Note_on_c, 0, 71, 111
1, 383585, Note_off_c, 0, 71, 111
1, 383710, Note_on_c, 0, 71, 108
1, 384110, Note_off_c, 0, 71, 108
1, 388857, Note_on_c, 0, 71, 110
1, 389345, Note_off_c, 0, 71, 110
1, 389345, Note_on_c, 0, 70, 107
1, 389733, Note_off_c, 0, 70, 107
1, 389783, Note_on_c, 0, 68, 112
1, 390284, Note_off_c, 0, 68, 112
1, 390496, Note_on_c, 0, 64, 118
1, 391047, Note_off_c, 0, 64, 118
1, 391120, Note_on_c, 0, 59, 104
1, 391895, Note_off_c, 0, 59, 104
1, 391923, Note_on_c, 0, 58, 105
1, 392536, Note_off_c, 0, 58, 105
1, 392575, Note_on_c, 0, 56, 104
1, 393162, Note_off_c, 0, 56, 104
1, 393274, Note_on_c, 0, 52, 112
1, 395065, Note_off_c, 0, 52, 112
1, 396668, Note_on_c, 0, 46, 109
1, 400763, Note_off_c, 0, 46, 109
1, 400788, Note_on_c, 0, 47, 105
1, 401451, Note_off_c, 0, 47, 105
1, 401501, Note_on_c, 0, 52, 109
1, 402590, Note_off_c, 0, 52, 109
1, 402665, Note_on_c, 0, 56, 101
1, 406560, Note_off_c, 0, 56, 101
1, 406635, Note_on_c, 0, 52, 105
1, 407186, Note_off_c, 0, 52, 105
1, 407198, Note_on_c, 0, 56, 105
1, 407861, Note_off_c, 0, 56, 105
1, 407861, Note_on_c, 0, 54, 104
1, 408487, Note_off_c, 0, 54, 104
1, 408512, Note_on_c, 0, 51, 105
1, 411042, Note_off_c, 0, 51, 105
1, 412131, Note_on_c, 0, 50, 115
1, 412732, Note_off_c, 0, 50, 115
1, 412769, Note_on_c, 0, 51, 115
1, 413207, Note_off_c, 0, 51, 115
1, 413233, Note_on_c, 0, 53, 108
1, 413749, Note_off_c, 0, 53, 108
1, 413795, Note_on_c, 0, 54, 109
1, 414264, Note_off_c, 0, 54, 109
1, 414318, Note_on_c, 0, 56, 109
1, 415157, Note_off_c, 0, 56, 109
1, 415178, Note_on_c, 0, 58, 110
1, 415765, Note_off_c, 0, 58, 110
1, 415945, Note_on_c, 0, 61, 121
1, 416295, Note_off_c, 0, 61, 121
1, 416295, Note_on_c, 0, 60, 118
1, 418411, Note_off_c, 0, 60, 118
1, 418648, Note_on_c, 0, 60, 106
1, 419374, Note_off_c, 0, 60, 106
1, 420250, Note_on_c, 0, 60, 116
1, 421051, Note_off_c, 0, 60, 116
1, 421126, Note_on_c, 0, 60, 112
1, 421627, Note_off_c, 0, 60, 112
1, 427852, Note_on_c, 0, 58, 103
1, 428165, Note_off_c, 0, 58, 103
1, 428230, Note_on_c, 0, 60, 114
1, 428535, Note_off_c, 0, 60, 114
1, 428639, Note_on_c, 0, 61, 112
1, 429027, Note_off_c, 0, 61, 112
1, 429027, Note_on_c, 0, 63, 115
1, 429628, Note_off_c, 0, 63, 115
1, 429628, Note_on_c, 0, 65, 113
1, 430141, Note_off_c, 0, 65, 113
1, 430141, Note_on_c, 0, 63, 116
1, 430579, Note_off_c, 0, 63, 116
1, 430579, Note_on_c, 0, 61, 115
1, 430992, Note_off_c, 0, 61, 115
1, 430992, Note_on_c, 0, 60, 114
1, 432169, Note_off_c, 0, 60, 114
1, 432356, Note_on_c, 0, 60, 113
1, 432794, Note_off_c, 0, 60, 113
1, 432819, Note_on_c, 0, 61, 112
1, 433119, Note_off_c, 0, 61, 112
1, 433203, Note_on_c, 0, 63, 114
1, 433602, Note_off_c, 0, 63, 114
1, 433744, Note_on_c, 0, 65, 117
1, 434082, Note_off_c, 0, 65, 117
1, 434082, Note_on_c, 0, 63, 119
1, 434507, Note_on_c, 0, 61, 116
1, 434507, Note_off_c, 0, 63, 119
1, 434957, Note_off_c, 0, 61, 116
1, 434957, Note_on_c, 0, 60, 110
1, 435833, Note_off_c, 0, 60, 110
1, 435958, Note_on_c, 0, 60, 110
1, 436609, Note_off_c, 0, 60, 110
1, 436634, Note_on_c, 0, 62, 115
1, 437084, Note_off_c, 0, 62, 115
1, 437084, Note_on_c, 0, 63, 115
1, 437497, Note_off_c, 0, 63, 115
1, 437497, Note_on_c, 0, 65, 114
1, 437910, Note_off_c, 0, 65, 114
1, 437910, Note_on_c, 0, 63, 117
1, 438273, Note_off_c, 0, 63, 117
1, 438273, Note_on_c, 0, 62, 117
1, 438799, Note_off_c, 0, 62, 117
1, 438799, Note_on_c, 0, 60, 109
1, 439525, Note_off_c, 0, 60, 109
1, 439925, Note_on_c, 0, 60, 108
1, 440338, Note_off_c, 0, 60, 108
1, 440338, Note_on_c, 0, 62, 112
1, 440601, Note_off_c, 0, 62, 112
1, 440601, Note_on_c, 0, 63, 113
1, 440989, Note_off_c, 0, 63, 113
1, 440989, Note_on_c, 0, 65, 110
1, 441502, Note_off_c, 0, 65, 110
1, 441502, Note_on_c, 0, 63, 114
1, 441915, Note_off_c, 0, 63, 114
1, 441915, Note_on_c, 0, 62, 115
1, 442416, Note_off_c, 0, 62, 115
1, 442416, Note_on_c, 0, 60, 106
1, 443155, Note_off_c, 0, 60, 106
1, 445835, Note_on_c, 0, 60, 101
1, 446160, Note_off_c, 0, 60, 101
1, 446598, Note_on_c, 0, 58, 106
1, 447073, Note_off_c, 0, 58, 106
1, 447148, Note_on_c, 0, 57, 100
1, 447636, Note_off_c, 0, 57, 100
1, 447686, Note_on_c, 0, 60, 105
1, 448187, Note_off_c, 0, 60, 105
1, 448199, Note_on_c, 0, 63, 103
1, 448825, Note_off_c, 0, 63, 103
1, 449062, Note_on_c, 0, 67, 111
1, 449512, Note_off_c, 0, 67, 111
1, 449512, Note_on_c, 0, 62, 117
1, 450175, Note_off_c, 0, 62, 117
1, 450237, Note_on_c, 0, 63, 118
1, 451001, Note_off_c, 0, 63, 118
1, 451051, Note_on_c, 0, 67, 102
1, 451514, Note_off_c, 0, 67, 102
1, 451589, Note_on_c, 0, 70, 89
1, 452039, Note_off_c, 0, 70, 89
1, 452051, Note_on_c, 0, 74, 97
1, 452752, Note_off_c, 0, 74, 97
1, 452814, Note_on_c, 0, 72, 107
1, 453227, Note_off_c, 0, 72, 107
1, 453227, Note_on_c, 0, 67, 106
1, 453878, Note_off_c, 0, 67, 106
1, 454015, Note_on_c, 0, 63, 98
1, 454578, Note_off_c, 0, 63, 98
1, 454603, Note_on_c, 0, 70, 106
1, 455191, Note_off_c, 0, 70, 106
1, 455554, Note_on_c, 0, 67, 104
1, 455992, Note_off_c, 0, 67, 104
1, 456031, Note_on_c, 0, 68, 106
1, 456641, Note_off_c, 0, 68, 106
1, 456692, Note_on_c, 0, 69, 103
1, 457193, Note_off_c, 0, 69, 103
1, 457344, Note_on_c, 0, 73, 103
1, 459110, Note_off_c, 0, 73, 103
1, 459208, Note_on_c, 0, 69, 103
1, 459696, Note_off_c, 0, 69, 103
1, 459714, Note_on_c, 0, 68, 109
1, 460089, Note_off_c, 0, 68, 109
1, 460153, Note_on_c, 0, 66, 102
1, 461280, Note_off_c, 0, 66, 102
1, 469563, Note_on_c, 0, 73, 111
1, 470715, Note_off_c, 0, 73, 111
1, 470902, Note_on_c, 0, 71, 114
1, 471377, Note_off_c, 0, 71, 114
1, 471564, Note_on_c, 0, 69, 109
1, 472428, Note_off_c, 0, 69, 109
1, 472428, Note_on_c, 0, 68, 109
1, 472891, Note_on_c, 0, 66, 112
1, 472891, Note_off_c, 0, 68, 109
1, 473429, Note_off_c, 0, 66, 112
1, 473429, Note_on_c, 0, 62, 118
1, 474318, Note_off_c, 0, 62, 118
1, 474330, Note_on_c, 0, 61, 111
1, 474943, Note_off_c, 0, 61, 111
1, 475418, Note_on_c, 0, 59, 104
1, 475893, Note_off_c, 0, 59, 104
1, 476694, Note_on_c, 0, 57, 103
1, 477270, Note_off_c, 0, 57, 103
1, 477270, Note_on_c, 0, 58, 104
1, 477821, Note_off_c, 0, 58, 104
1, 477883, Note_on_c, 0, 54, 103
1, 478283, Note_off_c, 0, 54, 103
1, 478283, Note_on_c, 0, 53, 105
1, 479047, Note_off_c, 0, 53, 105
1, 479047, Note_on_c, 0, 51, 99
1, 479560, Note_off_c, 0, 51, 99
1, 479610, Note_on_c, 0, 67, 109
1, 480474, Note_off_c, 0, 67, 109
1, 480636, Note_on_c, 0, 53, 108
1, 481450, Note_off_c, 0, 53, 108
1, 481462, Note_on_c, 0, 54, 102
1, 483140, Note_off_c, 0, 54, 102
1, 483315, Note_on_c, 0, 54, 90
1, 483928, Note_off_c, 0, 54, 90
1, 487560, Note_on_c, 0, 53, 108
1, 487948, Note_off_c, 0, 53, 108
1, 487948, Note_on_c, 0, 54, 104
1, 488211, Note_off_c, 0, 54, 104
1, 488286, Note_on_c, 0, 58, 113
1, 488599, Note_off_c, 0, 58, 113
1, 488599, Note_on_c, 0, 61, 119
1, 489212, Note_off_c, 0, 61, 119
1, 489362, Note_on_c, 0, 65, 108
1, 495808, Note_off_c, 0, 65, 108
1, 496100, Note_on_c, 0, 61, 111
1, 496563, Note_off_c, 0, 61, 111
1, 496588, Note_on_c, 0, 58, 104
1, 498441, Note_on_c, 0, 60, 111
1, 498441, Note_off_c, 0, 58, 104
1, 499317, Note_off_c, 0, 60, 111
1, 499317, Note_on_c, 0, 53, 106
1, 501195, Note_off_c, 0, 53, 106
1, 501282, Note_on_c, 0, 56, 110
1, 502050, Note_off_c, 0, 56, 110
1, 502095, Note_on_c, 0, 58, 95
1, 503497, Note_off_c, 0, 58, 95
1, 504023, Note_on_c, 0, 60, 91
1, 506327, Note_off_c, 0, 60, 91
1, 508017, Note_on_c, 0, 57, 98
1, 508367, Note_off_c, 0, 57, 98
1, 508367, Note_on_c, 0, 58, 101
1, 508705, Note_off_c, 0, 58, 101
1, 508705, Note_on_c, 0, 61, 110
1, 509256, Note_off_c, 0, 61, 110
1, 509256, Note_on_c, 0, 64, 109
1, 509719, Note_off_c, 0, 64, 109
1, 509719, Note_on_c, 0, 67, 112
1, 510094, Note_off_c, 0, 67, 112
1, 510106, Note_on_c, 0, 65, 103
1, 510306, Note_off_c, 0, 65, 103
1, 510318, Note_on_c, 0, 64, 119
1, 510670, Note_off_c, 0, 64, 119
1, 510768, Note_on_c, 0, 62, 113
1, 511081, Note_off_c, 0, 62, 113
1, 511081, Note_on_c, 0, 61, 111
1, 511419, Note_off_c, 0, 61, 111
1, 511419, Note_on_c, 0, 62, 115
1, 511719, Note_off_c, 0, 62, 115
1, 511719, Note_on_c, 0, 64, 109
1, 512057, Note_off_c, 0, 64, 109
1, 512057, Note_on_c, 0, 71, 108
1, 512608, Note_off_c, 0, 71, 108
1, 512711, Note_on_c, 0, 69, 108
1, 514001, Note_off_c, 0, 69, 108
1, 514022, Note_on_c, 0, 71, 104
1, 514497, Note_off_c, 0, 71, 104
1, 514647, Note_on_c, 0, 64, 116
1, 515235, Note_off_c, 0, 64, 116
1, 515748, Note_on_c, 0, 56, 101
1, 516286, Note_off_c, 0, 56, 101
1, 516315, Note_on_c, 0, 58, 90
1, 516565, Note_off_c, 0, 58, 90
1, 516623, Note_on_c, 0, 60, 104
1, 516886, Note_off_c, 0, 60, 104
1, 516886, Note_on_c, 0, 61, 111
1, 517127, Note_off_c, 0, 61, 111
1, 517182, Note_on_c, 0, 64, 109
1, 517382, Note_off_c, 0, 64, 109
1, 517436, Note_on_c, 0, 65, 112
1, 517661, Note_off_c, 0, 65, 112
1, 517661, Note_on_c, 0, 67, 117
1, 518136, Note_off_c, 0, 67, 117
1, 518165, Note_on_c, 0, 66, 109
1, 518448, Note_off_c, 0, 66, 109
1, 518481, Note_on_c, 0, 65, 110
1, 518698, Note_off_c, 0, 65, 110
1, 518735, Note_on_c, 0, 63, 111
1, 519198, Note_off_c, 0, 63, 111
1, 519198, Note_on_c, 0, 61, 106
1, 519448, Note_off_c, 0, 61, 106
1, 519481, Note_on_c, 0, 60, 103
1, 519764, Note_off_c, 0, 60, 103
1, 519814, Note_on_c, 0, 58, 98
1, 520031, Note_off_c, 0, 58, 98
1, 520035, Note_on_c, 0, 56, 103
1, 520305, Note_off_c, 0, 56, 103
1, 520335, Note_on_c, 0, 55, 102
1, 522300, Note_off_c, 0, 55, 102
1, 522301, Note_on_c, 0, 56, 95
1, 522673, Note_off_c, 0, 56, 95
1, 522701, Note_on_c, 0, 60, 94
1, 522968, Note_off_c, 0, 60, 94
1, 522984, Note_on_c, 0, 62, 104
1, 523184, Note_off_c, 0, 62, 104
1, 523263, Note_on_c, 0, 63, 106
1, 523789, Note_off_c, 0, 63, 106
1, 523789, Note_on_c, 0, 67, 98
1, 524110, Note_off_c, 0, 67, 98
1, 524225, Note_on_c, 0, 70, 106
1, 524530, Note_off_c, 0, 70, 106
1, 524568, Note_on_c, 0, 65, 104
1, 524785, Note_off_c, 0, 65, 104
1, 524801, Note_on_c, 0, 63, 110
1, 525991, Note_off_c, 0, 63, 110
1, 530823, Note_on_c, 0, 67, 90
1, 531202, Note_on_c, 0, 70, 104
1, 531202, Note_off_c, 0, 67, 90
1, 531749, Note_off_c, 0, 70, 104
1, 531936, Note_on_c, 0, 68, 107
1, 532662, Note_off_c, 0, 68, 107
1, 532662, Note_on_c, 0, 63, 112
1, 533388, Note_on_c, 0, 60, 103
1, 533388, Note_off_c, 0, 63, 112
1, 533987, Note_off_c, 0, 60, 103
1, 534245, Note_on_c, 0, 67, 106
1, 534807, Note_off_c, 0, 67, 106
1, 534807, Note_on_c, 0, 68, 97
1, 535135, Note_off_c, 0, 68, 97
1, 536733, Note_on_c, 0, 67, 112
1, 537202, Note_off_c, 0, 67, 112
1, 537231, Note_on_c, 0, 68, 114
1, 537530, Note_off_c, 0, 68, 114
1, 537530, Note_on_c, 0, 67, 109
1, 537953, Note_off_c, 0, 67, 109
1, 537953, Note_on_c, 0, 65, 112
1, 538749, Note_off_c, 0, 65, 112
1, 538880, Note_on_c, 0, 63, 114
1, 539676, Note_off_c, 0, 63, 114
1, 539712, Note_on_c, 0, 59, 99
1, 542342, Note_off_c, 0, 59, 99
1, 548933, Note_on_c, 0, 59, 104
1, 549451, Note_off_c, 0, 59, 104
1, 549451, Note_on_c, 0, 63, 117
1, 550196, Note_off_c, 0, 63, 117
1, 550278, Note_on_c, 0, 61, 110
1, 550818, Note_off_c, 0, 61, 110
1, 550925, Note_on_c, 0, 59, 95
1, 551494, Note_off_c, 0, 59, 95
1, 551596, Note_on_c, 0, 56, 111
1, 552041, Note_off_c, 0, 56, 111
1, 552143, Note_on_c, 0, 63, 119
1, 552800, Note_off_c, 0, 63, 119
1, 552887, Note_on_c, 0, 61, 114
1, 553537, Note_off_c, 0, 61, 114
1, 553537, Note_on_c, 0, 59, 105
1, 554143, Note_off_c, 0, 59, 105
1, 554164, Note_on_c, 0, 57, 97
1, 554663, Note_off_c, 0, 57, 97
1, 554663, Note_on_c, 0, 64, 121
1, 555485, Note_off_c, 0, 64, 121
1, 555580, Note_on_c, 0, 61, 110
1, 556033, Note_off_c, 0, 61, 110
1, 556033, Note_on_c, 0, 56, 107
1, 556274, Note_off_c, 0, 56, 107
1, 556274, Note_on_c, 0, 57, 104
1, 556822, Note_off_c, 0, 57, 104
1, 557026, Note_on_c, 0, 53, 108
1, 557552, Note_on_c, 0, 64, 117
1, 557552, Note_off_c, 0, 53, 108
1, 558392, Note_off_c, 0, 64, 117
1, 558392, Note_on_c, 0, 61, 110
1, 558947, Note_off_c, 0, 61, 110
1, 559261, Note_on_c, 0, 56, 112
1, 559472, Note_off_c, 0, 56, 112
1, 559472, Note_on_c, 0, 57, 108
1, 559998, Note_off_c, 0, 57, 108
1, 560173, Note_on_c, 0, 53, 103
1, 560750, Note_off_c, 0, 53, 103
1, 561429, Note_on_c, 0, 64, 120
1, 561867, Note_off_c, 0, 64, 120
1, 561915, Note_on_c, 0, 65, 109
1, 565649, Note_off_c, 0, 65, 109
1, 565797, Note_on_c, 0, 61, 106
1, 566337, Note_off_c, 0, 61, 106
1, 566337, Note_on_c, 0, 58, 99
1, 566782, Note_on_c, 0, 56, 105
1, 566782, Note_off_c, 0, 58, 99
1, 568060, Note_off_c, 0, 56, 105
1, 568060, Note_on_c, 0, 63, 115
1, 569229, Note_off_c, 0, 63, 115
1, 575213, Note_on_c, 0, 65, 113
1, 575497, Note_off_c, 0, 65, 113
1, 575760, Note_on_c, 0, 68, 109
1, 576271, Note_off_c, 0, 68, 109
1, 576271, Note_on_c, 0, 73, 112
1, 577330, Note_off_c, 0, 73, 112
1, 577387, Note_on_c, 0, 71, 114
1, 579665, Note_off_c, 0, 71, 114
1, 579762, Note_on_c, 0, 68, 105
1, 580383, Note_off_c, 0, 68, 105
1, 580529, Note_on_c, 0, 70, 114
1, 581325, Note_off_c, 0, 70, 114
1, 581519, Note_on_c, 0, 63, 109
1, 584337, Note_off_c, 0, 63, 109
1, 586863, Note_on_c, 0, 70, 117
1, 587695, Note_off_c, 0, 70, 117
1, 588674, Note_on_c, 0, 70, 116
1, 589572, Note_off_c, 0, 70, 116
1, 589652, Note_on_c, 0, 70, 116
1, 590331, Note_off_c, 0, 70, 116
1, 591025, Note_on_c, 0, 70, 115
1, 591755, Note_off_c, 0, 70, 115
1, 592354, Note_on_c, 0, 75, 107
1, 593333, Note_off_c, 0, 75, 107
1, 594012, Note_on_c, 0, 75, 109
1, 594728, Note_off_c, 0, 75, 109
1, 594995, Note_on_c, 0, 77, 85
1, 596263, Note_off_c, 0, 77, 85
1, 596638, Note_on_c, 0, 77, 96
1, 597765, Note_off_c, 0, 77, 96
1, 598672, Note_on_c, 0, 75, 112
1, 599461, Note_off_c, 0, 75, 112
1, 599461, Note_on_c, 0, 73, 116
1, 600198, Note_off_c, 0, 73, 116
1, 600229, Note_on_c, 0, 72, 114
1, 604245, Note_off_c, 0, 72, 114
1, 612969, Note_on_c, 0, 72, 115
1, 613736, Note_off_c, 0, 72, 115
1, 613772, Note_on_c, 0, 70, 112
1, 614268, Note_off_c, 0, 70, 112
1, 614333, Note_on_c, 0, 69, 112
1, 615114, Note_off_c, 0, 69, 112
1, 615114, Note_on_c, 0, 67, 110
1, 615771, Note_off_c, 0, 67, 110
1, 615771, Note_on_c, 0, 65, 113
1, 616267, Note_off_c, 0, 65, 113
1, 616274, Note_on_c, 0, 64, 127
1, 616748, Note_off_c, 0, 64, 127
1, 616835, Note_on_c, 0, 63, 119
1, 617536, Note_on_c, 0, 62, 121
1, 617536, Note_off_c, 0, 63, 119
1, 617989, Note_off_c, 0, 62, 121
1, 617989, Note_on_c, 0, 60, 114
1, 618646, Note_off_c, 0, 60, 114
1, 618646, Note_on_c, 0, 58, 106
1, 619354, Note_off_c, 0, 58, 106
1, 619361, Note_on_c, 0, 57, 105
1, 619865, Note_off_c, 0, 57, 105
1, 619946, Note_on_c, 0, 48, 107
1, 620985, Note_off_c, 0, 48, 107
1, 621003, Note_on_c, 0, 51, 101
1, 621974, Note_off_c, 0, 51, 101
1, 621988, Note_on_c, 0, 54, 99
1, 625863, Note_off_c, 0, 54, 99
1, 626381, Note_on_c, 0, 50, 103
1, 626806, Note_off_c, 0, 50, 103
1, 626806, Note_on_c, 0, 52, 104
1, 627319, Note_off_c, 0, 52, 104
1, 627319, Note_on_c, 0, 54, 98
1, 627820, Note_off_c, 0, 54, 98
1, 627838, Note_on_c, 0, 56, 108
1, 628342, Note_off_c, 0, 56, 108
1, 628342, Note_on_c, 0, 59, 104
1, 628707, Note_off_c, 0, 59, 104
1, 628707, Note_on_c, 0, 61, 111
1, 629247, Note_off_c, 0, 61, 111
1, 629247, Note_on_c, 0, 62, 116
1, 629597, Note_off_c, 0, 62, 116
1, 629597, Note_on_c, 0, 64, 122
1, 629991, Note_off_c, 0, 64, 122
1, 629991, Note_on_c, 0, 65, 114
1, 630434, Note_off_c, 0, 65, 114
1, 630434, Note_on_c, 0, 67, 116
1, 630974, Note_off_c, 0, 67, 116
1, 630998, Note_on_c, 0, 66, 107
1, 633168, Note_off_c, 0, 66, 107
1, 633168, Note_on_c, 0, 61, 113
1, 634826, Note_off_c, 0, 61, 113
1, 634898, Note_on_c, 0, 59, 99
1, 637551, Note_off_c, 0, 59, 99
1, 637616, Note_on_c, 0, 54, 97
1, 638427, Note_off_c, 0, 54, 97
1, 638631, Note_on_c, 0, 58, 105
1, 639566, Note_off_c, 0, 58, 105
1, 639668, Note_on_c, 0, 56, 108
1, 640515, Note_off_c, 0, 56, 108
1, 640551, Note_on_c, 0, 54, 100
1, 641785, Note_off_c, 0, 54, 100
1, 641785, Note_on_c, 0, 50, 101
1, 642581, Note_off_c, 0, 50, 101
1, 642792, Note_on_c, 0, 53, 114
1, 643434, Note_off_c, 0, 53, 114
1, 643434, Note_on_c, 0, 50, 107
1, 643879, Note_off_c, 0, 50, 107
1, 643932, Note_on_c, 0, 51, 102
1, 646351, Note_off_c, 0, 51, 102
1, 646406, Note_on_c, 0, 53, 109
1, 646873, Note_off_c, 0, 53, 109
1, 646873, Note_on_c, 0, 54, 102
1, 647406, Note_off_c, 0, 54, 102
1, 647516, Note_on_c, 0, 56, 103
1, 647758, Note_off_c, 0, 56, 103
1, 647808, Note_on_c, 0, 54, 106
1, 648033, Note_off_c, 0, 54, 106
1, 648074, Note_on_c, 0, 57, 89
1, 648433, Note_off_c, 0, 57, 89
1, 648558, Note_on_c, 0, 59, 96
1, 648806, Note_off_c, 0, 59, 96
1, 648806, Note_on_c, 0, 61, 106
1, 649463, Note_off_c, 0, 61, 106
1, 649463, Note_on_c, 0, 60, 106
1, 652144, Note_off_c, 0, 60, 106
1, 652193, Note_on_c, 0, 61, 105
1, 652756, Note_off_c, 0, 61, 105
1, 652829, Note_on_c, 0, 60, 104
1, 654436, Note_off_c, 0, 60, 104
1, 654552, Note_on_c, 0, 61, 110
1, 654895, Note_off_c, 0, 61, 110
1, 654938, Note_on_c, 0, 60, 107
1, 655690, Note_off_c, 0, 60, 107
1, 655967, Note_on_c, 0, 58, 101
1, 656398, Note_off_c, 0, 58, 101
1, 656529, Note_on_c, 0, 56, 98
1, 657201, Note_off_c, 0, 56, 98
1, 657201, Note_on_c, 0, 58, 93
1, 657559, Note_off_c, 0, 58, 93
1, 657593, Note_on_c, 0, 60, 101
1, 659396, Note_off_c, 0, 60, 101
1, 659462, Note_on_c, 0, 60, 90
1, 663670, Note_off_c, 0, 60, 90
1, 663670, End_track
0, 0, End_of_file
