0, 0, Header, 1, 1, 420
1, 0, Start_track
1, 0, Title_t, "Melody"
1, 0, Tempo, 377358
1, 0, Key_signature, 2, "major"
1, 0, Time_signature, 4, 2, 24, 8
1, 5701, Note_on_c, 0, 61, 110
1, 5787, Note_off_c, 0, 61, 110
1, 5798, Note_on_c, 0, 62, 119
1, 5875, Note_off_c, 0, 62, 119
1, 5893, Note_on_c, 0, 66, 118
1, 5983, Note_off_c, 0, 66, 118
1, 6004, Note_on_c, 0, 69, 107
1, 6065, Note_off_c, 0, 69, 107
1, 6074, Note_on_c, 0, 73, 109
1, 6148, Note_off_c, 0, 73, 109
1, 6213, Note_on_c, 0, 76, 121
1, 6841, Note_off_c, 0, 76, 121
1, 7001, Note_on_c, 0, 73, 111
1, 7057, Note_off_c, 0, 73, 111
1, 7083, Note_on_c, 0, 69, 113
1, 7144, Note_off_c, 0, 69, 113
1, 7172, Note_on_c, 0, 66, 116
1, 7241, Note_off_c, 0, 66, 116
1, 7250, Note_on_c, 0, 62, 118
1, 7338, Note_off_c, 0, 62, 118
1, 7354, Note_on_c, 0, 61, 104
1, 7442, Note_off_c, 0, 61, 104
1, 7464, Note_on_c, 0, 59, 108
1, 7556, Note_off_c, 0, 59, 108
1, 7610, Note_on_c, 0, 58, 109
1, 8194, Note_off_c, 0, 58, 109
1, 8742, Note_on_c, 0, 46, 111
1, 8835, Note_off_c, 0, 46, 111
1, 8838, Note_on_c, 0, 47, 111
1, 8895, Note_off_c, 0, 47, 111
1, 8900, Note_on_c, 0, 51, 109
1, 8975, Note_off_c, 0, 51, 109
1, 8984, Note_on_c, 0, 54, 120
1, 9042, Note_off_c, 0, 54, 120
1, 9067, Note_on_c, 0, 58, 114
1, 9154, Note_off_c, 0, 58, 114
1, 9168, Note_on_c, 0, 55, 110
1, 9263, Note_off_c, 0, 55, 110
1, 9267, Note_on_c, 0, 56, 104
1, 9370, Note_off_c, 0, 56, 104
1, 9378, Note_on_c, 0, 58, 106
1, 9434, Note_off_c, 0, 58, 106
1, 9438, Note_on_c, 0, 59, 112
1, 9509, Note_off_c, 0, 59, 112
1, 9513, Note_on_c, 0, 60, 110
1, 9634, Note_off_c, 0, 60, 110
1, 9690, Note_on_c, 0, 63, 114
1, 9778, Note_off_c, 0, 63, 114
1, 9794, Note_on_c, 0, 65, 108
1, 9882, Note_off_c, 0, 65, 108
1, 9897, Note_on_c, 0, 70, 125
1, 10018, Note_off_c, 0, 70, 125
1, 10019, Note_on_c, 0, 68, 120
1, 10117, Note_off_c, 0, 68, 120
1, 10121, Note_on_c, 0, 67, 115
1, 10236, Note_off_c, 0, 67, 115
1, 10241, Note_on_c, 0, 65, 117
1, 10341, Note_off_c, 0, 65, 117
1, 10346, Note_on_c, 0, 63, 116
1, 10431, Note_off_c, 0, 63, 116
1, 10436, Note_on_c, 0, 61, 114
1, 10518, Note_off_c, 0, 61, 114
1, 10519, Note_on_c, 0, 60, 114
1, 10610, Note_off_c, 0, 60, 114
1, 10669, Note_on_c, 0, 58, 99
1, 10743, Note_off_c, 0, 58, 99
1, 10754, Note_on_c, 0, 55, 99
1, 10965, Note_off_c, 0, 55, 99
1, 12222, Note_on_c, 0, 70, 110
1, 12311, Note_off_c, 0, 70, 110
1, 12313, Note_on_c, 0, 71, 114
1, 12405, Note_off_c, 0, 71, 114
1, 12406, Note_on_c, 0, 70, 111
1, 12629, Note_off_c, 0, 70, 111
1, 12687, Note_on_c, 0, 68, 122
1, 12853, Note_off_c, 0, 68, 122
1, 12866, Note_on_c, 0, 66, 116
1, 13035, Note_off_c, 0, 66, 116
1, 13046, Note_on_c, 0, 67, 104
1, 13125, Note_off_c, 0, 67, 104
1, 13134, Note_on_c, 0, 66, 114
1, 13249, Note_off_c, 0, 66, 114
1, 13258, Note_on_c, 0, 65, 114
1, 13491, Note_off_c, 0, 65, 114
1, 13498, Note_on_c, 0, 63, 117
1, 13691, Note_off_c, 0, 63, 117
1, 13728, Note_on_c, 0, 61, 113
1, 13887, Note_off_c, 0, 61, 113
1, 13932, Note_on_c, 0, 59, 111
1, 14084, Note_off_c, 0, 59, 111
1, 14109, Note_on_c, 0, 54, 108
1, 14306, Note_off_c, 0, 54, 108
1, 14379, Note_on_c, 0, 51, 97
1, 14455, Note_off_c, 0, 51, 97
1, 14530, Note_on_c, 0, 58, 101
1, 14958, Note_off_c, 0, 58, 101
1, 14969, Note_on_c, 0, 59, 100
1, 15155, Note_off_c, 0, 59, 100
1, 15191, Note_on_c, 0, 56, 104
1, 15637, Note_off_c, 0, 56, 104
1, 16955, Note_on_c, 0, 68, 119
1, 17059, Note_off_c, 0, 68, 119
1, 17073, Note_on_c, 0, 70, 116
1, 17234, Note_off_c, 0, 70, 116
1, 17241, Note_on_c, 0, 66, 113
1, 17337, Note_off_c, 0, 66, 113
1, 17346, Note_on_c, 0, 68, 117
1, 17465, Note_off_c, 0, 68, 117
1, 17481, Note_on_c, 0, 64, 119
1, 17613, Note_off_c, 0, 64, 119
1, 17641, Note_on_c, 0, 66, 114
1, 17745, Note_off_c, 0, 66, 114
1, 17770, Note_on_c, 0, 61, 106
1, 17890, Note_off_c, 0, 61, 106
1, 17917, Note_on_c, 0, 64, 117
1, 18054, Note_off_c, 0, 64, 117
1, 18080, Note_on_c, 0, 59, 98
1, 18164, Note_off_c, 0, 59, 98
1, 18170, Note_on_c, 0, 61, 104
1, 18295, Note_off_c, 0, 61, 104
1, 18391, Note_on_c, 0, 56, 97
1, 18482, Note_off_c, 0, 56, 97
1, 18496, Note_on_c, 0, 58, 104
1, 18573, Note_off_c, 0, 58, 104
1, 18596, Note_on_c, 0, 54, 118
1, 18706, Note_off_c, 0, 54, 118
1, 18762, Note_on_c, 0, 56, 111
1, 18896, Note_off_c, 0, 56, 111
1, 18932, Note_on_c, 0, 52, 106
1, 18999, Note_off_c, 0, 52, 106
1, 19014, Note_on_c, 0, 54, 106
1, 19114, Note_off_c, 0, 54, 106
1, 19128, Note_on_c, 0, 49, 117
1, 19288, Note_off_c, 0, 49, 117
1, 19308, Note_on_c, 0, 52, 114
1, 19424, Note_off_c, 0, 52, 114
1, 19424, Note_on_c, 0, 54, 105
1, 19528, Note_off_c, 0, 54, 105
1, 19534, Note_on_c, 0, 56, 107
1, 19647, Note_off_c, 0, 56, 107
1, 19667, Note_on_c, 0, 58, 105
1, 19781, Note_off_c, 0, 58, 105
1, 19801, Note_on_c, 0, 59, 101
1, 19920, Note_off_c, 0, 59, 101
1, 19934, Note_on_c, 0, 61, 103
1, 20062, Note_off_c, 0, 61, 103
1, 20116, Note_on_c, 0, 64, 97
1, 20206, Note_off_c, 0, 64, 97
1, 20237, Note_on_c, 0, 67, 107
1, 20350, Note_off_c, 0, 67, 107
1, 20431, Note_on_c, 0, 68, 105
1, 20476, Note_off_c, 0, 68, 105
1, 20490, Note_on_c, 0, 70, 113
1, 20696, Note_off_c, 0, 70, 113
1, 20872, Note_on_c, 0, 68, 120
1, 21111, Note_off_c, 0, 68, 120
1, 21141, Note_on_c, 0, 66, 120
1, 21210, Note_off_c, 0, 66, 120
1, 21215, Note_on_c, 0, 67, 114
1, 21456, Note_off_c, 0, 67, 114
1, 21532, Note_on_c, 0, 65, 116
1, 21687, Note_off_c, 0, 65, 116
1, 21719, Note_on_c, 0, 63, 118
1, 21926, Note_off_c, 0, 63, 118
1, 21937, Note_on_c, 0, 60, 108
1, 22067, Note_off_c, 0, 60, 108
1, 22096, Note_on_c, 0, 58, 105
1, 22312, Note_off_c, 0, 58, 105
1, 22347, Note_on_c, 0, 56, 109
1, 22462, Note_off_c, 0, 56, 109
1, 22509, Note_on_c, 0, 55, 105
1, 22790, Note_off_c, 0, 55, 105
1, 22795, Note_on_c, 0, 51, 115
1, 22896, Note_off_c, 0, 51, 115
1, 22909, Note_on_c, 0, 60, 110
1, 23106, Note_off_c, 0, 60, 110
1, 23144, Note_on_c, 0, 57, 103
1, 23233, Note_off_c, 0, 57, 103
1, 23247, Note_on_c, 0, 53, 106
1, 23357, Note_off_c, 0, 53, 106
1, 23362, Note_on_c, 0, 50, 100
1, 23614, Note_off_c, 0, 50, 100
1, 23669, Note_on_c, 0, 58, 108
1, 23740, Note_off_c, 0, 58, 108
1, 23747, Note_on_c, 0, 59, 101
1, 24088, Note_off_c, 0, 59, 101
1, 25072, Note_on_c, 0, 61, 109
1, 25169, Note_off_c, 0, 61, 109
1, 25227, Note_on_c, 0, 64, 103
1, 25296, Note_off_c, 0, 64, 103
1, 25323, Note_on_c, 0, 68, 109
1, 25391, Note_off_c, 0, 68, 109
1, 25404, Note_on_c, 0, 71, 112
1, 25477, Note_off_c, 0, 71, 112
1, 25492, Note_on_c, 0, 70, 112
1, 25725, Note_off_c, 0, 70, 112
1, 25741, Note_on_c, 0, 68, 116
1, 25917, Note_off_c, 0, 68, 116
1, 25936, Note_on_c, 0, 66, 111
1, 26131, Note_off_c, 0, 66, 111
1, 26143, Note_on_c, 0, 64, 120
1, 26322, Note_off_c, 0, 64, 120
1, 26370, Note_on_c, 0, 63, 117
1, 26444, Note_off_c, 0, 63, 117
1, 26449, Note_on_c, 0, 66, 102
1, 26501, Note_off_c, 0, 66, 102
1, 26513, Note_on_c, 0, 63, 108
1, 26567, Note_off_c, 0, 63, 108
1, 26589, Note_on_c, 0, 61, 107
1, 26700, Note_off_c, 0, 61, 107
1, 26725, Note_on_c, 0, 60, 103
1, 26956, Note_off_c, 0, 60, 103
1, 26983, Note_on_c, 0, 58, 101
1, 27114, Note_off_c, 0, 58, 101
1, 27140, Note_on_c, 0, 56, 95
1, 27227, Note_off_c, 0, 56, 95
1, 27239, Note_on_c, 0, 60, 98
1, 27311, Note_off_c, 0, 60, 98
1, 27327, Note_on_c, 0, 63, 108
1, 27421, Note_off_c, 0, 63, 108
1, 27421, Note_on_c, 0, 67, 114
1, 27504, Note_off_c, 0, 67, 114
1, 27570, Note_on_c, 0, 62, 114
1, 27862, Note_off_c, 0, 62, 114
1, 27870, Note_on_c, 0, 60, 94
1, 27935, Note_off_c, 0, 60, 94
1, 27966, Note_on_c, 0, 65, 118
1, 28289, Note_off_c, 0, 65, 118
1, 28338, Note_on_c, 0, 63, 112
1, 28560, Note_off_c, 0, 63, 112
1, 28739, Note_on_c, 0, 55, 99
1, 28898, Note_off_c, 0, 55, 99
1, 28906, Note_on_c, 0, 54, 88
1, 29133, Note_off_c, 0, 54, 88
1, 29161, Note_on_c, 0, 55, 104
1, 29254, Note_off_c, 0, 55, 104
1, 29265, Note_on_c, 0, 62, 113
1, 29538, Note_off_c, 0, 62, 113
1, 29555, Note_on_c, 0, 60, 108
1, 29674, Note_off_c, 0, 60, 108
1, 29720, Note_on_c, 0, 57, 99
1, 29942, Note_off_c, 0, 57, 99
1, 30005, Note_on_c, 0, 47, 95
1, 30106, Note_off_c, 0, 47, 95
1, 30121, Note_on_c, 0, 51, 108
1, 30371, Note_off_c, 0, 51, 108
1, 30388, Note_on_c, 0, 55, 109
1, 30522, Note_off_c, 0, 55, 109
1, 30547, Note_on_c, 0, 54, 98
1, 30790, Note_off_c, 0, 54, 98
1, 30849, Note_on_c, 0, 57, 99
1, 30950, Note_off_c, 0, 57, 99
1, 31001, Note_on_c, 0, 61, 95
1, 31211, Note_off_c, 0, 61, 95
1, 31252, Note_on_c, 0, 64, 112
1, 31421, Note_off_c, 0, 64, 112
1, 31452, Note_on_c, 0, 66, 106
1, 31844, Note_off_c, 0, 66, 106
1, 31847, Note_on_c, 0, 61, 98
1, 32082, Note_off_c, 0, 61, 98
1, 32110, Note_on_c, 0, 68, 114
1, 32571, Note_off_c, 0, 68, 114
1, 33017, Note_on_c, 0, 70, 118
1, 33131, Note_off_c, 0, 70, 118
1, 33144, Note_on_c, 0, 63, 107
1, 33211, Note_off_c, 0, 63, 107
1, 33233, Note_on_c, 0, 58, 95
1, 33292, Note_off_c, 0, 58, 95
1, 33317, Note_on_c, 0, 56, 96
1, 33488, Note_off_c, 0, 56, 96
1, 33530, Note_on_c, 0, 58, 100
1, 33689, Note_off_c, 0, 58, 100
1, 34994, Note_on_c, 0, 72, 102
1, 35035, Note_off_c, 0, 72, 102
1, 35045, Note_on_c, 0, 73, 118
1, 35308, Note_off_c, 0, 73, 118
1, 35336, Note_on_c, 0, 66, 102
1, 35379, Note_off_c, 0, 66, 102
1, 35382, Note_on_c, 0, 63, 109
1, 35434, Note_off_c, 0, 63, 109
1, 35475, Note_on_c, 0, 61, 107
1, 35579, Note_off_c, 0, 61, 107
1, 35616, Note_on_c, 0, 59, 100
1, 35814, Note_off_c, 0, 59, 100
1, 35850, Note_on_c, 0, 61, 101
1, 37151, Note_off_c, 0, 61, 101
1, 37604, Note_on_c, 0, 70, 116
1, 37753, Note_off_c, 0, 70, 116
1, 37992, Note_on_c, 0, 70, 116
1, 38327, Note_off_c, 0, 70, 116
1, 38334, Note_on_c, 0, 68, 103
1, 38383, Note_off_c, 0, 68, 103
1, 38406, Note_on_c, 0, 63, 110
1, 38472, Note_off_c, 0, 63, 110
1, 38490, Note_on_c, 0, 58, 97
1, 38558, Note_off_c, 0, 58, 97
1, 38591, Note_on_c, 0, 56, 93
1, 38779, Note_off_c, 0, 56, 93
1, 38846, Note_on_c, 0, 58, 97
1, 39421, Note_off_c, 0, 58, 97
1, 39657, Note_on_c, 0, 67, 115
1, 39892, Note_off_c, 0, 67, 115
1, 39919, Note_on_c, 0, 62, 105
1, 39980, Note_off_c, 0, 62, 105
1, 40005, Note_on_c, 0, 58, 97
1, 40060, Note_off_c, 0, 58, 97
1, 40080, Note_on_c, 0, 55, 93
1, 40137, Note_off_c, 0, 55, 93
1, 40145, Note_on_c, 0, 53, 96
1, 40291, Note_off_c, 0, 53, 96
1, 40303, Note_on_c, 0, 55, 97
1, 40481, Note_off_c, 0, 55, 97
1, 40941, Note_on_c, 0, 55, 107
1, 41001, Note_off_c, 0, 55, 107
1, 41107, Note_on_c, 0, 51, 92
1, 41329, Note_off_c, 0, 51, 92
1, 41343, Note_on_c, 0, 53, 100
1, 41733, Note_off_c, 0, 53, 100
1, 42978, Note_on_c, 0, 59, 108
1, 43066, Note_off_c, 0, 59, 108
1, 43086, Note_on_c, 0, 58, 106
1, 43184, Note_off_c, 0, 58, 106
1, 43184, Note_on_c, 0, 56, 100
1, 43493, Note_off_c, 0, 56, 100
1, 43503, Note_on_c, 0, 53, 112
1, 43549, Note_off_c, 0, 53, 112
1, 43555, Note_on_c, 0, 56, 109
1, 43657, Note_off_c, 0, 56, 109
1, 43667, Note_on_c, 0, 54, 102
1, 43766, Note_off_c, 0, 54, 102
1, 43770, Note_on_c, 0, 53, 102
1, 43879, Note_off_c, 0, 53, 102
1, 43887, Note_on_c, 0, 56, 97
1, 43948, Note_off_c, 0, 56, 97
1, 43968, Note_on_c, 0, 59, 102
1, 44073, Note_off_c, 0, 59, 102
1, 44073, Note_on_c, 0, 56, 96
1, 44151, Note_off_c, 0, 56, 96
1, 44165, Note_on_c, 0, 63, 114
1, 44261, Note_off_c, 0, 63, 114
1, 44267, Note_on_c, 0, 62, 113
1, 44368, Note_off_c, 0, 62, 113
1, 44368, Note_on_c, 0, 61, 102
1, 44482, Note_off_c, 0, 61, 102
1, 44499, Note_on_c, 0, 59, 106
1, 44570, Note_off_c, 0, 59, 106
1, 44583, Note_on_c, 0, 58, 103
1, 44687, Note_off_c, 0, 58, 103
1, 44722, Note_on_c, 0, 54, 95
1, 44816, Note_off_c, 0, 54, 95
1, 44839, Note_on_c, 0, 56, 104
1, 45027, Note_off_c, 0, 56, 104
1, 45039, Note_on_c, 0, 52, 101
1, 45105, Note_off_c, 0, 52, 101
1, 45236, Note_on_c, 0, 52, 106
1, 45460, Note_off_c, 0, 52, 106
1, 46888, Note_on_c, 0, 47, 111
1, 46996, Note_off_c, 0, 47, 111
1, 47014, Note_on_c, 0, 52, 109
1, 47115, Note_off_c, 0, 52, 109
1, 47151, Note_on_c, 0, 57, 114
1, 47291, Note_off_c, 0, 57, 114
1, 47294, Note_on_c, 0, 54, 98
1, 47410, Note_off_c, 0, 54, 98
1, 47476, Note_on_c, 0, 59, 97
1, 47540, Note_off_c, 0, 59, 97
1, 47548, Note_on_c, 0, 64, 123
1, 47676, Note_off_c, 0, 64, 123
1, 47897, Note_on_c, 0, 66, 101
1, 47966, Note_off_c, 0, 66, 101
1, 47978, Note_on_c, 0, 71, 113
1, 48092, Note_off_c, 0, 71, 113
1, 48107, Note_on_c, 0, 68, 117
1, 48311, Note_off_c, 0, 68, 117
1, 48770, Note_on_c, 0, 63, 119
1, 48879, Note_off_c, 0, 63, 119
1, 48887, Note_on_c, 0, 66, 114
1, 49001, Note_off_c, 0, 66, 114
1, 49043, Note_on_c, 0, 63, 114
1, 49136, Note_off_c, 0, 63, 114
1, 49157, Note_on_c, 0, 64, 119
1, 49313, Note_off_c, 0, 64, 119
1, 49317, Note_on_c, 0, 61, 111
1, 49426, Note_off_c, 0, 61, 111
1, 49443, Note_on_c, 0, 59, 105
1, 49552, Note_off_c, 0, 59, 105
1, 49608, Note_on_c, 0, 56, 106
1, 49709, Note_off_c, 0, 56, 106
1, 49712, Note_on_c, 0, 52, 99
1, 49801, Note_off_c, 0, 52, 99
1, 50236, Note_on_c, 0, 52, 111
1, 50358, Note_off_c, 0, 52, 111
1, 50380, Note_on_c, 0, 54, 108
1, 50476, Note_off_c, 0, 54, 108
1, 50488, Note_on_c, 0, 56, 115
1, 50590, Note_off_c, 0, 56, 115
1, 50599, Note_on_c, 0, 59, 111
1, 50709, Note_off_c, 0, 59, 111
1, 50723, Note_on_c, 0, 56, 108
1, 50835, Note_off_c, 0, 56, 108
1, 50867, Note_on_c, 0, 58, 101
1, 50955, Note_off_c, 0, 58, 101
1, 51242, Note_on_c, 0, 58, 111
1, 51368, Note_off_c, 0, 58, 111
1, 51368, Note_on_c, 0, 55, 104
1, 51527, Note_off_c, 0, 55, 104
1, 52151, Note_on_c, 0, 55, 113
1, 52281, Note_off_c, 0, 55, 113
1, 52301, Note_on_c, 0, 58, 110
1, 52393, Note_off_c, 0, 58, 110
1, 52394, Note_on_c, 0, 59, 107
1, 52468, Note_off_c, 0, 59, 107
1, 52474, Note_on_c, 0, 58, 112
1, 52569, Note_off_c, 0, 58, 112
1, 52586, Note_on_c, 0, 55, 107
1, 52674, Note_off_c, 0, 55, 107
1, 52694, Note_on_c, 0, 56, 103
1, 52966, Note_off_c, 0, 56, 103
1, 52987, Note_on_c, 0, 58, 109
1, 53101, Note_off_c, 0, 58, 109
1, 53151, Note_on_c, 0, 59, 106
1, 53371, Note_off_c, 0, 59, 106
1, 53371, Note_on_c, 0, 62, 109
1, 53518, Note_off_c, 0, 62, 109
1, 53522, Note_on_c, 0, 65, 112
1, 53769, Note_off_c, 0, 65, 112
1, 53806, Note_on_c, 0, 62, 99
1, 53910, Note_off_c, 0, 62, 99
1, 53934, Note_on_c, 0, 69, 121
1, 54156, Note_off_c, 0, 69, 121
1, 54158, Note_on_c, 0, 67, 116
1, 54335, Note_off_c, 0, 67, 116
1, 54346, Note_on_c, 0, 65, 115
1, 54614, Note_off_c, 0, 65, 115
1, 54621, Note_on_c, 0, 62, 103
1, 54740, Note_off_c, 0, 62, 103
1, 54776, Note_on_c, 0, 64, 119
1, 55021, Note_off_c, 0, 64, 119
1, 55021, Note_on_c, 0, 66, 113
1, 55186, Note_off_c, 0, 66, 113
1, 55213, Note_on_c, 0, 68, 119
1, 55387, Note_off_c, 0, 68, 119
1, 55405, Note_on_c, 0, 70, 114
1, 55586, Note_off_c, 0, 70, 114
1, 55616, Note_on_c, 0, 63, 116
1, 55817, Note_off_c, 0, 63, 116
1, 55864, Note_on_c, 0, 65, 114
1, 56026, Note_off_c, 0, 65, 114
1, 56048, Note_on_c, 0, 67, 115
1, 56245, Note_off_c, 0, 67, 115
1, 56276, Note_on_c, 0, 69, 115
1, 56413, Note_off_c, 0, 69, 115
1, 56520, Note_on_c, 0, 60, 102
1, 56675, Note_off_c, 0, 60, 102
1, 56739, Note_on_c, 0, 62, 119
1, 56903, Note_off_c, 0, 62, 119
1, 56921, Note_on_c, 0, 63, 119
1, 57110, Note_off_c, 0, 63, 119
1, 57131, Note_on_c, 0, 65, 117
1, 57264, Note_off_c, 0, 65, 117
1, 57316, Note_on_c, 0, 67, 120
1, 57546, Note_off_c, 0, 67, 120
1, 57585, Note_on_c, 0, 63, 116
1, 57688, Note_off_c, 0, 63, 116
1, 57694, Note_on_c, 0, 62, 113
1, 57961, Note_off_c, 0, 62, 113
1, 57969, Note_on_c, 0, 60, 100
1, 58080, Note_off_c, 0, 60, 100
1, 58105, Note_on_c, 0, 65, 121
1, 58149, Note_off_c, 0, 65, 121
1, 58151, Note_on_c, 0, 66, 107
1, 58690, Note_off_c, 0, 66, 107
1, 58982, Note_on_c, 0, 65, 105
1, 59627, Note_off_c, 0, 65, 105
1, 59627, Note_on_c, 0, 63, 115
1, 59773, Note_off_c, 0, 63, 115
1, 59790, Note_on_c, 0, 63, 112
1, 59935, Note_off_c, 0, 63, 112
1, 59948, Note_on_c, 0, 62, 111
1, 60046, Note_off_c, 0, 62, 111
1, 60050, Note_on_c, 0, 60, 104
1, 60172, Note_off_c, 0, 60, 104
1, 60201, Note_on_c, 0, 58, 100
1, 60449, Note_off_c, 0, 58, 100
1, 60456, Note_on_c, 0, 55, 108
1, 60553, Note_off_c, 0, 55, 108
1, 60596, Note_on_c, 0, 57, 102
1, 60898, Note_off_c, 0, 57, 102
1, 60904, Note_on_c, 0, 53, 107
1, 60970, Note_off_c, 0, 53, 107
1, 61821, Note_on_c, 0, 69, 120
1, 61885, Note_off_c, 0, 69, 120
1, 61893, Note_on_c, 0, 66, 114
1, 61955, Note_off_c, 0, 66, 114
1, 61966, Note_on_c, 0, 62, 109
1, 62061, Note_off_c, 0, 62, 109
1, 62081, Note_on_c, 0, 59, 105
1, 62221, Note_off_c, 0, 59, 105
1, 62401, Note_on_c, 0, 71, 112
1, 62481, Note_off_c, 0, 71, 112
1, 62488, Note_on_c, 0, 68, 118
1, 62575, Note_off_c, 0, 68, 118
1, 62575, Note_on_c, 0, 64, 114
1, 62657, Note_off_c, 0, 64, 114
1, 62663, Note_on_c, 0, 61, 107
1, 62807, Note_off_c, 0, 61, 107
1, 66168, Note_on_c, 0, 71, 106
1, 66226, Note_off_c, 0, 71, 106
1, 66229, Note_on_c, 0, 69, 119
1, 66296, Note_off_c, 0, 69, 119
1, 66303, Note_on_c, 0, 68, 9
1, 66637, Note_off_c, 0, 68, 9
1, 66641, Note_on_c, 0, 71, 111
1, 66707, Note_off_c, 0, 71, 111
1, 66715, Note_on_c, 0, 69, 114
1, 66772, Note_off_c, 0, 69, 114
1, 66777, Note_on_c, 0, 68, 114
1, 66999, Note_off_c, 0, 68, 114
1, 67015, Note_on_c, 0, 71, 118
1, 67093, Note_off_c, 0, 71, 118
1, 67102, Note_on_c, 0, 69, 114
1, 67174, Note_off_c, 0, 69, 114
1, 67182, Note_on_c, 0, 68, 116
1, 67414, Note_off_c, 0, 68, 116
1, 67427, Note_on_c, 0, 66, 110
1, 67486, Note_off_c, 0, 66, 110
1, 67486, Note_on_c, 0, 65, 111
1, 67806, Note_off_c, 0, 65, 111
1, 67815, Note_on_c, 0, 68, 115
1, 67892, Note_off_c, 0, 68, 115
1, 67892, Note_on_c, 0, 66, 112
1, 67961, Note_off_c, 0, 66, 112
1, 67967, Note_on_c, 0, 65, 114
1, 68268, Note_off_c, 0, 65, 114
1, 68278, Note_on_c, 0, 68, 118
1, 68341, Note_off_c, 0, 68, 118
1, 68350, Note_on_c, 0, 66, 107
1, 68464, Note_off_c, 0, 66, 107
1, 68465, Note_on_c, 0, 65, 113
1, 68691, Note_off_c, 0, 65, 113
1, 68705, Note_on_c, 0, 67, 115
1, 68755, Note_off_c, 0, 67, 115
1, 68761, Note_on_c, 0, 66, 110
1, 68846, Note_off_c, 0, 66, 110
1, 68862, Note_on_c, 0, 65, 112
1, 69065, Note_off_c, 0, 65, 112
1, 69098, Note_on_c, 0, 65, 116
1, 69189, Note_off_c, 0, 65, 116
1, 69200, Note_on_c, 0, 63, 112
1, 69267, Note_off_c, 0, 63, 112
1, 69274, Note_on_c, 0, 62, 109
1, 69544, Note_off_c, 0, 62, 109
1, 69544, Note_on_c, 0, 65, 119
1, 69614, Note_on_c, 0, 63, 115
1, 69614, Note_off_c, 0, 65, 119
1, 69697, Note_off_c, 0, 63, 115
1, 69698, Note_on_c, 0, 62, 115
1, 69939, Note_off_c, 0, 62, 115
1, 69947, Note_on_c, 0, 65, 118
1, 70024, Note_off_c, 0, 65, 118
1, 70032, Note_on_c, 0, 63, 113
1, 70093, Note_off_c, 0, 63, 113
1, 70100, Note_on_c, 0, 62, 115
1, 70340, Note_off_c, 0, 62, 115
1, 70349, Note_on_c, 0, 65, 113
1, 70414, Note_off_c, 0, 65, 113
1, 70419, Note_on_c, 0, 63, 115
1, 70511, Note_off_c, 0, 63, 115
1, 70518, Note_on_c, 0, 62, 116
1, 70760, Note_off_c, 0, 62, 116
1, 70772, Note_on_c, 0, 58, 97
1, 71195, Note_off_c, 0, 58, 97
1, 71387, Note_on_c, 0, 58, 105
1, 71645, Note_off_c, 0, 58, 105
1, 71745, Note_on_c, 0, 58, 102
1, 72038, Note_off_c, 0, 58, 102
1, 72185, Note_on_c, 0, 59, 101
1, 72456, Note_off_c, 0, 59, 101
1, 72460, Note_on_c, 0, 53, 109
1, 72727, Note_off_c, 0, 53, 109
1, 73087, Note_on_c, 0, 53, 113
1, 73310, Note_off_c, 0, 53, 113
1, 73312, Note_on_c, 0, 51, 109
1, 73451, Note_off_c, 0, 51, 109
1, 73471, Note_on_c, 0, 46, 106
1, 73697, Note_off_c, 0, 46, 106
1, 73698, Note_on_c, 0, 44, 110
1, 73863, Note_off_c, 0, 44, 110
1, 74174, Note_on_c, 0, 58, 102
1, 74290, Note_off_c, 0, 58, 102
1, 74317, Note_on_c, 0, 56, 105
1, 74606, Note_off_c, 0, 56, 105
1, 74722, Note_on_c, 0, 54, 102
1, 75129, Note_off_c, 0, 54, 102
1, 75145, Note_on_c, 0, 56, 104
1, 75421, Note_off_c, 0, 56, 104
1, 75421, Note_on_c, 0, 52, 106
1, 75927, Note_off_c, 0, 52, 106
1, 76885, Note_on_c, 0, 64, 119
1, 77002, Note_off_c, 0, 64, 119
1, 77010, Note_on_c, 0, 66, 120
1, 77127, Note_off_c, 0, 66, 120
1, 77130, Note_on_c, 0, 68, 117
1, 77232, Note_off_c, 0, 68, 117
1, 77249, Note_on_c, 0, 70, 113
1, 77438, Note_off_c, 0, 70, 113
1, 78318, Note_on_c, 0, 70, 111
1, 78398, Note_off_c, 0, 70, 111
1, 78401, Note_on_c, 0, 68, 119
1, 78486, Note_off_c, 0, 68, 119
1, 78491, Note_on_c, 0, 66, 114
1, 78550, Note_off_c, 0, 66, 114
1, 78562, Note_on_c, 0, 64, 120
1, 78691, Note_off_c, 0, 64, 120
1, 78700, Note_on_c, 0, 70, 104
1, 78775, Note_off_c, 0, 70, 104
1, 78776, Note_on_c, 0, 68, 110
1, 78847, Note_off_c, 0, 68, 110
1, 78853, Note_on_c, 0, 66, 112
1, 78931, Note_off_c, 0, 66, 112
1, 78934, Note_on_c, 0, 64, 114
1, 79041, Note_off_c, 0, 64, 114
1, 79051, Note_on_c, 0, 70, 117
1, 79114, Note_off_c, 0, 70, 117
1, 79130, Note_on_c, 0, 67, 115
1, 79166, Note_off_c, 0, 67, 115
1, 79170, Note_on_c, 0, 68, 117
1, 79230, Note_off_c, 0, 68, 117
1, 79236, Note_on_c, 0, 66, 102
1, 79306, Note_off_c, 0, 66, 102
1, 79307, Note_on_c, 0, 64, 111
1, 79394, Note_off_c, 0, 64, 111
1, 79411, Note_on_c, 0, 70, 116
1, 79484, Note_off_c, 0, 70, 116
1, 79486, Note_on_c, 0, 68, 119
1, 79569, Note_off_c, 0, 68, 119
1, 79571, Note_on_c, 0, 66, 118
1, 79657, Note_off_c, 0, 66, 118
1, 79674, Note_on_c, 0, 64, 108
1, 79739, Note_off_c, 0, 64, 108
1, 79763, Note_on_c, 0, 70, 112
1, 79825, Note_off_c, 0, 70, 112
1, 79841, Note_on_c, 0, 68, 116
1, 79907, Note_off_c, 0, 68, 116
1, 79914, Note_on_c, 0, 66, 110
1, 79997, Note_off_c, 0, 66, 110
1, 80007, Note_on_c, 0, 64, 108
1, 80102, Note_off_c, 0, 64, 108
1, 80110, Note_on_c, 0, 70, 111
1, 80202, Note_off_c, 0, 70, 111
1, 80206, Note_on_c, 0, 68, 117
1, 80269, Note_off_c, 0, 68, 117
1, 80295, Note_on_c, 0, 66, 110
1, 80387, Note_off_c, 0, 66, 110
1, 80396, Note_on_c, 0, 64, 111
1, 80509, Note_off_c, 0, 64, 111
1, 80535, Note_on_c, 0, 69, 106
1, 80579, Note_off_c, 0, 69, 106
1, 80582, Note_on_c, 0, 68, 119
1, 80663, Note_off_c, 0, 68, 119
1, 80663, Note_on_c, 0, 66, 117
1, 80773, Note_off_c, 0, 66, 117
1, 80786, Note_on_c, 0, 64, 108
1, 80882, Note_off_c, 0, 64, 108
1, 80886, Note_on_c, 0, 70, 110
1, 80970, Note_off_c, 0, 70, 110
1, 80974, Note_on_c, 0, 68, 115
1, 81049, Note_off_c, 0, 68, 115
1, 81059, Note_on_c, 0, 66, 118
1, 81185, Note_off_c, 0, 66, 118
1, 81192, Note_on_c, 0, 64, 110
1, 81267, Note_off_c, 0, 64, 110
1, 81300, Note_on_c, 0, 70, 119
1, 81358, Note_off_c, 0, 70, 119
1, 81370, Note_on_c, 0, 68, 122
1, 81427, Note_off_c, 0, 68, 122
1, 81432, Note_on_c, 0, 67, 119
1, 81504, Note_off_c, 0, 67, 119
1, 81514, Note_on_c, 0, 65, 116
1, 81581, Note_off_c, 0, 65, 116
1, 81597, Note_on_c, 0, 63, 116
1, 81693, Note_off_c, 0, 63, 116
1, 81877, Note_on_c, 0, 70, 111
1, 81925, Note_off_c, 0, 70, 111
1, 81935, Note_on_c, 0, 68, 122
1, 82005, Note_off_c, 0, 68, 122
1, 82009, Note_on_c, 0, 67, 116
1, 82083, Note_off_c, 0, 67, 116
1, 82089, Note_on_c, 0, 65, 112
1, 82167, Note_off_c, 0, 65, 112
1, 82175, Note_on_c, 0, 63, 103
1, 82230, Note_off_c, 0, 63, 103
1, 82299, Note_on_c, 0, 70, 113
1, 82358, Note_off_c, 0, 70, 113
1, 82366, Note_on_c, 0, 68, 116
1, 82421, Note_off_c, 0, 68, 116
1, 82423, Note_on_c, 0, 67, 115
1, 82512, Note_off_c, 0, 67, 115
1, 82525, Note_on_c, 0, 65, 111
1, 82589, Note_off_c, 0, 65, 111
1, 82599, Note_on_c, 0, 63, 106
1, 82704, Note_off_c, 0, 63, 106
1, 82711, Note_on_c, 0, 69, 113
1, 82774, Note_off_c, 0, 69, 113
1, 82783, Note_on_c, 0, 68, 121
1, 82841, Note_off_c, 0, 68, 121
1, 82844, Note_on_c, 0, 67, 117
1, 82919, Note_off_c, 0, 67, 117
1, 82919, Note_on_c, 0, 65, 110
1, 82982, Note_off_c, 0, 65, 110
1, 82986, Note_on_c, 0, 63, 113
1, 83078, Note_off_c, 0, 63, 113
1, 83078, Note_on_c, 0, 62, 117
1, 83203, Note_off_c, 0, 62, 117
1, 83358, Note_on_c, 0, 68, 120
1, 83435, Note_off_c, 0, 68, 120
1, 83444, Note_on_c, 0, 67, 116
1, 83517, Note_off_c, 0, 67, 116
1, 83521, Note_on_c, 0, 65, 113
1, 83593, Note_off_c, 0, 65, 113
1, 83599, Note_on_c, 0, 63, 112
1, 83661, Note_off_c, 0, 63, 112
1, 83666, Note_on_c, 0, 62, 114
1, 83732, Note_off_c, 0, 62, 114
1, 83732, Note_on_c, 0, 68, 117
1, 83814, Note_off_c, 0, 68, 117
1, 83819, Note_on_c, 0, 67, 114
1, 83881, Note_off_c, 0, 67, 114
1, 83881, Note_on_c, 0, 65, 119
1, 83960, Note_off_c, 0, 65, 119
1, 83964, Note_on_c, 0, 63, 109
1, 84007, Note_off_c, 0, 63, 109
1, 84011, Note_on_c, 0, 62, 112
1, 84100, Note_off_c, 0, 62, 112
1, 84128, Note_on_c, 0, 68, 120
1, 84216, Note_off_c, 0, 68, 120
1, 84231, Note_on_c, 0, 65, 113
1, 84277, Note_off_c, 0, 65, 113
1, 84290, Note_on_c, 0, 63, 115
1, 84352, Note_off_c, 0, 63, 115
1, 84352, Note_on_c, 0, 62, 117
1, 84422, Note_off_c, 0, 62, 117
1, 84455, Note_on_c, 0, 68, 115
1, 84540, Note_off_c, 0, 68, 115
1, 84540, Note_on_c, 0, 67, 114
1, 84618, Note_off_c, 0, 67, 114
1, 84618, Note_on_c, 0, 66, 108
1, 84696, Note_off_c, 0, 66, 108
1, 84696, Note_on_c, 0, 64, 108
1, 85182, Note_off_c, 0, 64, 108
1, 87153, Note_on_c, 0, 62, 110
1, 87228, Note_off_c, 0, 62, 110
1, 87253, Note_on_c, 0, 66, 109
1, 87328, Note_off_c, 0, 66, 109
1, 87342, Note_on_c, 0, 61, 101
1, 87431, Note_off_c, 0, 61, 101
1, 87437, Note_on_c, 0, 62, 109
1, 87533, Note_off_c, 0, 62, 109
1, 87553, Note_on_c, 0, 65, 110
1, 87611, Note_off_c, 0, 65, 110
1, 87621, Note_on_c, 0, 63, 110
1, 87765, Note_off_c, 0, 63, 110
1, 88168, Note_on_c, 0, 62, 118
1, 88278, Note_off_c, 0, 62, 118
1, 88278, Note_on_c, 0, 60, 108
1, 88379, Note_off_c, 0, 60, 108
1, 88383, Note_on_c, 0, 55, 97
1, 88583, Note_off_c, 0, 55, 97
1, 88664, Note_on_c, 0, 57, 113
1, 88714, Note_off_c, 0, 57, 113
1, 88753, Note_on_c, 0, 48, 111
1, 88855, Note_off_c, 0, 48, 111
1, 88874, Note_on_c, 0, 63, 118
1, 88948, Note_off_c, 0, 63, 118
1, 88951, Note_on_c, 0, 67, 112
1, 89030, Note_off_c, 0, 67, 112
1, 89035, Note_on_c, 0, 65, 116
1, 89108, Note_off_c, 0, 65, 116
1, 89121, Note_on_c, 0, 62, 113
1, 89217, Note_off_c, 0, 62, 113
1, 89231, Note_on_c, 0, 58, 107
1, 89302, Note_off_c, 0, 58, 107
1, 89308, Note_on_c, 0, 63, 117
1, 89407, Note_off_c, 0, 63, 117
1, 89415, Note_on_c, 0, 62, 109
1, 89497, Note_off_c, 0, 62, 109
1, 89506, Note_on_c, 0, 58, 101
1, 89602, Note_off_c, 0, 58, 101
1, 89613, Note_on_c, 0, 55, 102
1, 89659, Note_off_c, 0, 55, 102
1, 89668, Note_on_c, 0, 53, 100
1, 89722, Note_off_c, 0, 53, 100
1, 89799, Note_on_c, 0, 60, 108
1, 89928, Note_off_c, 0, 60, 108
1, 89933, Note_on_c, 0, 57, 99
1, 90013, Note_off_c, 0, 57, 99
1, 90015, Note_on_c, 0, 58, 94
1, 90082, Note_off_c, 0, 58, 94
1, 90096, Note_on_c, 0, 62, 112
1, 90199, Note_off_c, 0, 62, 112
1, 90257, Note_on_c, 0, 69, 114
1, 90353, Note_off_c, 0, 69, 114
1, 90367, Note_on_c, 0, 67, 109
1, 90445, Note_off_c, 0, 67, 109
1, 90453, Note_on_c, 0, 65, 110
1, 90545, Note_off_c, 0, 65, 110
1, 90554, Note_on_c, 0, 63, 113
1, 90656, Note_off_c, 0, 63, 113
1, 90656, Note_on_c, 0, 62, 117
1, 90774, Note_off_c, 0, 62, 117
1, 90786, Note_on_c, 0, 60, 105
1, 90884, Note_off_c, 0, 60, 105
1, 90890, Note_on_c, 0, 58, 100
1, 91001, Note_off_c, 0, 58, 100
1, 91008, Note_on_c, 0, 59, 99
1, 91254, Note_off_c, 0, 59, 99
1, 91274, Note_on_c, 0, 54, 104
1, 91572, Note_off_c, 0, 54, 104
1, 91625, Note_on_c, 0, 50, 109
1, 91771, Note_off_c, 0, 50, 109
1, 92013, Note_on_c, 0, 56, 105
1, 92434, Note_off_c, 0, 56, 105
1, 93848, Note_on_c, 0, 70, 118
1, 93947, Note_off_c, 0, 70, 118
1, 93958, Note_on_c, 0, 71, 122
1, 95028, Note_off_c, 0, 71, 122
1, 95077, Note_on_c, 0, 69, 123
1, 95290, Note_off_c, 0, 69, 123
1, 95297, Note_on_c, 0, 71, 117
1, 95360, Note_off_c, 0, 71, 117
1, 95362, Note_on_c, 0, 73, 121
1, 96560, Note_off_c, 0, 73, 121
1, 96580, Note_on_c, 0, 71, 120
1, 96766, Note_off_c, 0, 71, 120
1, 96797, Note_on_c, 0, 69, 123
1, 97005, Note_off_c, 0, 69, 123
1, 97006, Note_on_c, 0, 68, 121
1, 97172, Note_off_c, 0, 68, 121
1, 97223, Note_on_c, 0, 66, 118
1, 97304, Note_off_c, 0, 66, 118
1, 97319, Note_on_c, 0, 64, 127
1, 97543, Note_off_c, 0, 64, 127
1, 97545, Note_on_c, 0, 62, 124
1, 97727, Note_off_c, 0, 62, 124
1, 97728, Note_on_c, 0, 61, 119
1, 97929, Note_off_c, 0, 61, 119
1, 97976, Note_on_c, 0, 59, 112
1, 98139, Note_off_c, 0, 59, 112
1, 98149, Note_on_c, 0, 58, 109
1, 98345, Note_off_c, 0, 58, 109
1, 98365, Note_on_c, 0, 56, 110
1, 98517, Note_off_c, 0, 56, 110
1, 98561, Note_on_c, 0, 54, 116
1, 98741, Note_off_c, 0, 54, 116
1, 98761, Note_on_c, 0, 52, 115
1, 98908, Note_off_c, 0, 52, 115
1, 98925, Note_on_c, 0, 51, 111
1, 99134, Note_off_c, 0, 51, 111
1, 99154, Note_on_c, 0, 49, 118
1, 99266, Note_off_c, 0, 49, 118
1, 99282, Note_on_c, 0, 48, 112
1, 99443, Note_off_c, 0, 48, 112
1, 99452, Note_on_c, 0, 50, 108
1, 99524, Note_off_c, 0, 50, 108
1, 99535, Note_on_c, 0, 51, 110
1, 99623, Note_off_c, 0, 51, 110
1, 99648, Note_on_c, 0, 53, 106
1, 99701, Note_off_c, 0, 53, 106
1, 99702, Note_on_c, 0, 55, 108
1, 99738, Note_off_c, 0, 55, 108
1, 99743, Note_on_c, 0, 58, 110
1, 99995, Note_off_c, 0, 58, 110
1, 100052, Note_on_c, 0, 56, 114
1, 100258, Note_off_c, 0, 56, 114
1, 100441, Note_on_c, 0, 59, 115
1, 100527, Note_off_c, 0, 59, 115
1, 100531, Note_on_c, 0, 60, 104
1, 100812, Note_off_c, 0, 60, 104
1, 100856, Note_on_c, 0, 66, 106
1, 100943, Note_off_c, 0, 66, 106
1, 101046, Note_on_c, 0, 70, 119
1, 101272, Note_off_c, 0, 70, 119
1, 101290, Note_on_c, 0, 68, 123
1, 101422, Note_off_c, 0, 68, 123
1, 101447, Note_on_c, 0, 63, 118
1, 101713, Note_off_c, 0, 63, 118
1, 101723, Note_on_c, 0, 59, 98
1, 101797, Note_off_c, 0, 59, 98
1, 101833, Note_on_c, 0, 65, 117
1, 101914, Note_off_c, 0, 65, 117
1, 101918, Note_on_c, 0, 66, 114
1, 102048, Note_off_c, 0, 66, 114
1, 102111, Note_on_c, 0, 63, 114
1, 102189, Note_off_c, 0, 63, 114
1, 102201, Note_on_c, 0, 65, 115
1, 102719, Note_off_c, 0, 65, 115
1, 103143, Note_on_c, 0, 65, 121
1, 103220, Note_off_c, 0, 65, 121
1, 103224, Note_on_c, 0, 63, 121
1, 103298, Note_off_c, 0, 63, 121
1, 103299, Note_on_c, 0, 61, 114
1, 103397, Note_off_c, 0, 61, 114
1, 103423, Note_on_c, 0, 70, 103
1, 103615, Note_off_c, 0, 70, 103
1, 103660, Note_on_c, 0, 58, 104
1, 103724, Note_off_c, 0, 58, 104
1, 103729, Note_on_c, 0, 59, 108
1, 103851, Note_off_c, 0, 59, 108
1, 103870, Note_on_c, 0, 52, 108
1, 103958, Note_off_c, 0, 52, 108
1, 103991, Note_on_c, 0, 53, 106
1, 104097, Note_off_c, 0, 53, 106
1, 106939, Note_on_c, 0, 68, 122
1, 107035, Note_off_c, 0, 68, 122
1, 107080, Note_on_c, 0, 70, 107
1, 107181, Note_off_c, 0, 70, 107
1, 107219, Note_on_c, 0, 70, 113
1, 107297, Note_off_c, 0, 70, 113
1, 107349, Note_on_c, 0, 70, 111
1, 107428, Note_off_c, 0, 70, 111
1, 107482, Note_on_c, 0, 70, 104
1, 107565, Note_off_c, 0, 70, 104
1, 107605, Note_on_c, 0, 70, 102
1, 107699, Note_off_c, 0, 70, 102
1, 107737, Note_on_c, 0, 70, 95
1, 107817, Note_off_c, 0, 70, 95
1, 107854, Note_on_c, 0, 70, 103
1, 107937, Note_off_c, 0, 70, 103
1, 107989, Note_on_c, 0, 70, 101
1, 108077, Note_off_c, 0, 70, 101
1, 108109, Note_on_c, 0, 70, 104
1, 108184, Note_off_c, 0, 70, 104
1, 108245, Note_on_c, 0, 70, 98
1, 108338, Note_off_c, 0, 70, 98
1, 108403, Note_on_c, 0, 70, 112
1, 108496, Note_off_c, 0, 70, 112
1, 108500, Note_on_c, 0, 73, 112
1, 108588, Note_off_c, 0, 73, 112
1, 108645, Note_on_c, 0, 73, 113
1, 108724, Note_off_c, 0, 73, 113
1, 108785, Note_on_c, 0, 73, 107
1, 108873, Note_off_c, 0, 73, 107
1, 108910, Note_on_c, 0, 73, 102
1, 108999, Note_off_c, 0, 73, 102
1, 109028, Note_on_c, 0, 73, 111
1, 109113, Note_off_c, 0, 73, 111
1, 109166, Note_on_c, 0, 73, 105
1, 109245, Note_off_c, 0, 73, 105
1, 110026, Note_on_c, 0, 68, 121
1, 110143, Note_off_c, 0, 68, 121
1, 110158, Note_on_c, 0, 73, 117
1, 110238, Note_off_c, 0, 73, 117
1, 110259, Note_on_c, 0, 71, 117
1, 110386, Note_off_c, 0, 71, 117
1, 110403, Note_on_c, 0, 68, 112
1, 110513, Note_off_c, 0, 68, 112
1, 110513, Note_on_c, 0, 70, 109
1, 110643, Note_off_c, 0, 70, 109
1, 110644, Note_on_c, 0, 67, 111
1, 110764, Note_off_c, 0, 67, 111
1, 112363, Note_on_c, 0, 71, 117
1, 112417, Note_off_c, 0, 71, 117
1, 112419, Note_on_c, 0, 72, 114
1, 112948, Note_off_c, 0, 72, 114
1, 112961, Note_on_c, 0, 69, 113
1, 113046, Note_on_c, 0, 67, 112
1, 113046, Note_off_c, 0, 69, 113
1, 113096, Note_off_c, 0, 67, 112
1, 113104, Note_on_c, 0, 65, 114
1, 113162, Note_off_c, 0, 65, 114
1, 113170, Note_on_c, 0, 64, 122
1, 113268, Note_off_c, 0, 64, 122
1, 113272, Note_on_c, 0, 62, 121
1, 113328, Note_off_c, 0, 62, 121
1, 113333, Note_on_c, 0, 60, 107
1, 113412, Note_off_c, 0, 60, 107
1, 113412, Note_on_c, 0, 59, 108
1, 113482, Note_off_c, 0, 59, 108
1, 113485, Note_on_c, 0, 57, 98
1, 113532, Note_off_c, 0, 57, 98
1, 113537, Note_on_c, 0, 55, 106
1, 113589, Note_off_c, 0, 55, 106
1, 113596, Note_on_c, 0, 54, 105
1, 113753, Note_off_c, 0, 54, 105
1, 113784, Note_on_c, 0, 55, 105
1, 113830, Note_off_c, 0, 55, 105
1, 113840, Note_on_c, 0, 57, 95
1, 113895, Note_off_c, 0, 57, 95
1, 113922, Note_on_c, 0, 58, 107
1, 113983, Note_off_c, 0, 58, 107
1, 114002, Note_on_c, 0, 63, 120
1, 114074, Note_off_c, 0, 63, 120
1, 114074, Note_on_c, 0, 61, 105
1, 114152, Note_off_c, 0, 61, 105
1, 114155, Note_on_c, 0, 62, 107
1, 114238, Note_off_c, 0, 62, 107
1, 114252, Note_on_c, 0, 65, 100
1, 114335, Note_off_c, 0, 65, 100
1, 114337, Note_on_c, 0, 67, 108
1, 114387, Note_off_c, 0, 67, 108
1, 114391, Note_on_c, 0, 68, 107
1, 114440, Note_off_c, 0, 68, 107
1, 114450, Note_on_c, 0, 71, 108
1, 114528, Note_off_c, 0, 71, 108
1, 114532, Note_on_c, 0, 68, 99
1, 114630, Note_off_c, 0, 68, 99
1, 114639, Note_on_c, 0, 69, 96
1, 114783, Note_off_c, 0, 69, 96
1, 114808, Note_on_c, 0, 66, 101
1, 114911, Note_off_c, 0, 66, 101
1, 115007, Note_on_c, 0, 68, 113
1, 115107, Note_off_c, 0, 68, 113
1, 115111, Note_on_c, 0, 64, 113
1, 115228, Note_off_c, 0, 64, 113
1, 115228, Note_on_c, 0, 63, 113
1, 115308, Note_off_c, 0, 63, 113
1, 115308, Note_on_c, 0, 61, 110
1, 115408, Note_off_c, 0, 61, 110
1, 115410, Note_on_c, 0, 66, 104
1, 115487, Note_off_c, 0, 66, 104
1, 115499, Note_on_c, 0, 59, 105
1, 115589, Note_off_c, 0, 59, 105
1, 115595, Note_on_c, 0, 56, 98
1, 115697, Note_off_c, 0, 56, 98
1, 115854, Note_on_c, 0, 58, 101
1, 115957, Note_off_c, 0, 58, 101
1, 115968, Note_on_c, 0, 54, 94
1, 116052, Note_off_c, 0, 54, 94
1, 116060, Note_on_c, 0, 55, 94
1, 116167, Note_off_c, 0, 55, 94
1, 116184, Note_on_c, 0, 56, 108
1, 116283, Note_off_c, 0, 56, 108
1, 116283, Note_on_c, 0, 52, 104
1, 116375, Note_off_c, 0, 52, 104
1, 116375, Note_on_c, 0, 51, 104
1, 116433, Note_off_c, 0, 51, 104
1, 116434, Note_on_c, 0, 49, 118
1, 116570, Note_off_c, 0, 49, 118
1, 116599, Note_on_c, 0, 48, 98
1, 116746, Note_off_c, 0, 48, 98
1, 116779, Note_on_c, 0, 51, 98
1, 116829, Note_off_c, 0, 51, 98
1, 116841, Note_on_c, 0, 52, 104
1, 116925, Note_off_c, 0, 52, 104
1, 116947, Note_on_c, 0, 58, 103
1, 117002, Note_off_c, 0, 58, 103
1, 117153, Note_on_c, 0, 51, 96
1, 117215, Note_off_c, 0, 51, 96
1, 117228, Note_on_c, 0, 53, 113
1, 117311, Note_off_c, 0, 53, 113
1, 117489, Note_on_c, 0, 51, 110
1, 117567, Note_off_c, 0, 51, 110
1, 117597, Note_on_c, 0, 53, 108
1, 117664, Note_off_c, 0, 53, 108
1, 117668, Note_on_c, 0, 55, 107
1, 117746, Note_off_c, 0, 55, 107
1, 117746, Note_on_c, 0, 58, 103
1, 117814, Note_off_c, 0, 58, 103
1, 117819, Note_on_c, 0, 62, 116
1, 117912, Note_off_c, 0, 62, 116
1, 117919, Note_on_c, 0, 60, 103
1, 118007, Note_off_c, 0, 60, 103
1, 118008, Note_on_c, 0, 57, 96
1, 118092, Note_off_c, 0, 57, 96
1, 118095, Note_on_c, 0, 55, 100
1, 118211, Note_off_c, 0, 55, 100
1, 118211, Note_on_c, 0, 57, 108
1, 118296, Note_off_c, 0, 57, 108
1, 118314, Note_on_c, 0, 60, 101
1, 118416, Note_off_c, 0, 60, 101
1, 118423, Note_on_c, 0, 63, 111
1, 118507, Note_off_c, 0, 63, 111
1, 118517, Note_on_c, 0, 65, 100
1, 118571, Note_off_c, 0, 65, 100
1, 118575, Note_on_c, 0, 62, 110
1, 118646, Note_off_c, 0, 62, 110
1, 119001, Note_on_c, 0, 70, 94
1, 119047, Note_off_c, 0, 70, 94
1, 119063, Note_on_c, 0, 74, 107
1, 119183, Note_off_c, 0, 74, 107
1, 119183, Note_on_c, 0, 72, 107
1, 119293, Note_off_c, 0, 72, 107
1, 119294, Note_on_c, 0, 67, 107
1, 119451, Note_off_c, 0, 67, 107
1, 119460, Note_on_c, 0, 63, 104
1, 119555, Note_off_c, 0, 63, 104
1, 119560, Note_on_c, 0, 70, 115
1, 119677, Note_off_c, 0, 70, 115
1, 119677, Note_on_c, 0, 67, 109
1, 119790, Note_off_c, 0, 67, 109
1, 119790, Note_on_c, 0, 68, 105
1, 119849, Note_off_c, 0, 68, 105
1, 119851, Note_on_c, 0, 69, 105
1, 119946, Note_off_c, 0, 69, 105
1, 119965, Note_on_c, 0, 65, 101
1, 120117, Note_off_c, 0, 65, 101
1, 120125, Note_on_c, 0, 66, 99
1, 120169, Note_off_c, 0, 66, 99
1, 120173, Note_on_c, 0, 67, 112
1, 120273, Note_off_c, 0, 67, 112
1, 120309, Note_on_c, 0, 63, 114
1, 120391, Note_off_c, 0, 63, 114
1, 120398, Note_on_c, 0, 62, 114
1, 120506, Note_off_c, 0, 62, 114
1, 120510, Note_on_c, 0, 60, 101
1, 120560, Note_off_c, 0, 60, 101
1, 120577, Note_on_c, 0, 65, 116
1, 120627, Note_off_c, 0, 65, 116
1, 120635, Note_on_c, 0, 66, 110
1, 120983, Note_off_c, 0, 66, 110
1, 121042, Note_on_c, 0, 61, 105
1, 121261, Note_off_c, 0, 61, 105
1, 121473, Note_on_c, 0, 68, 113
1, 121857, Note_off_c, 0, 68, 113
1, 121870, Note_on_c, 0, 64, 114
1, 122037, Note_off_c, 0, 64, 114
1, 122276, Note_on_c, 0, 68, 117
1, 122317, Note_off_c, 0, 68, 117
1, 122330, Note_on_c, 0, 70, 103
1, 122687, Note_off_c, 0, 70, 103
1, 122687, Note_on_c, 0, 66, 102
1, 122752, Note_off_c, 0, 66, 102
1, 123092, Note_on_c, 0, 69, 111
1, 123156, Note_off_c, 0, 69, 111
1, 123162, Note_on_c, 0, 71, 103
1, 123934, Note_off_c, 0, 71, 103
1, 123959, Note_on_c, 0, 69, 93
1, 124036, Note_off_c, 0, 69, 93
1, 124084, Note_on_c, 0, 71, 100
1, 125292, Note_off_c, 0, 71, 100
1, 126011, Note_on_c, 0, 71, 120
1, 126167, Note_off_c, 0, 71, 120
1, 126171, Note_on_c, 0, 69, 120
1, 126373, Note_off_c, 0, 69, 120
1, 126454, Note_on_c, 0, 71, 115
1, 126520, Note_off_c, 0, 71, 115
1, 126539, Note_on_c, 0, 73, 117
1, 128243, Note_off_c, 0, 73, 117
1, 128872, Note_on_c, 0, 73, 96
1, 128996, Note_off_c, 0, 73, 96
1, 129994, Note_on_c, 0, 79, 116
1, 130205, Note_off_c, 0, 79, 116
1, 130836, Note_on_c, 0, 75, 111
1, 131050, Note_off_c, 0, 75, 111
1, 131599, Note_on_c, 0, 71, 121
1, 131775, Note_off_c, 0, 71, 121
1, 131789, Note_on_c, 0, 68, 120
1, 131936, Note_off_c, 0, 68, 120
1, 131952, Note_on_c, 0, 63, 118
1, 132160, Note_off_c, 0, 63, 118
1, 132197, Note_on_c, 0, 66, 119
1, 132362, Note_off_c, 0, 66, 119
1, 132384, Note_on_c, 0, 65, 118
1, 132619, Note_off_c, 0, 65, 118
1, 132619, Note_on_c, 0, 63, 114
1, 132770, Note_off_c, 0, 63, 114
1, 132815, Note_on_c, 0, 61, 9
1, 133036, Note_off_c, 0, 61, 9
1, 133059, Note_on_c, 0, 59, 103
1, 133194, Note_off_c, 0, 59, 103
1, 133211, Note_on_c, 0, 56, 103
1, 133489, Note_off_c, 0, 56, 103
1, 133554, Note_on_c, 0, 51, 90
1, 133656, Note_off_c, 0, 51, 90
1, 133666, Note_on_c, 0, 58, 95
1, 133894, Note_off_c, 0, 58, 95
1, 133943, Note_on_c, 0, 56, 105
1, 134066, Note_off_c, 0, 56, 105
1, 134085, Note_on_c, 0, 54, 103
1, 134345, Note_off_c, 0, 54, 103
1, 134362, Note_on_c, 0, 52, 102
1, 134530, Note_off_c, 0, 52, 102
1, 134576, Note_on_c, 0, 51, 100
1, 134735, Note_off_c, 0, 51, 100
1, 135591, Note_on_c, 0, 49, 112
1, 135682, Note_off_c, 0, 49, 112
1, 135682, Note_on_c, 0, 51, 104
1, 136261, Note_off_c, 0, 51, 104
1, 136305, Note_on_c, 0, 46, 104
1, 136462, Note_off_c, 0, 46, 104
1, 136489, Note_on_c, 0, 47, 104
1, 136627, Note_off_c, 0, 47, 104
1, 136642, Note_on_c, 0, 51, 104
1, 136798, Note_off_c, 0, 51, 104
1, 136806, Note_on_c, 0, 54, 115
1, 136873, Note_off_c, 0, 54, 115
1, 136882, Note_on_c, 0, 52, 118
1, 136962, Note_off_c, 0, 52, 118
1, 136978, Note_on_c, 0, 54, 105
1, 137111, Note_off_c, 0, 54, 105
1, 137123, Note_on_c, 0, 56, 107
1, 137238, Note_off_c, 0, 56, 107
1, 137244, Note_on_c, 0, 58, 112
1, 137361, Note_off_c, 0, 58, 112
1, 137364, Note_on_c, 0, 59, 108
1, 137499, Note_off_c, 0, 59, 108
1, 137509, Note_on_c, 0, 61, 110
1, 137643, Note_off_c, 0, 61, 110
1, 137644, Note_on_c, 0, 63, 110
1, 137728, Note_off_c, 0, 63, 110
1, 137729, Note_on_c, 0, 64, 116
1, 137842, Note_off_c, 0, 64, 116
1, 137842, Note_on_c, 0, 66, 111
1, 137922, Note_off_c, 0, 66, 111
1, 137934, Note_on_c, 0, 68, 111
1, 138038, Note_on_c, 0, 70, 106
1, 138038, Note_off_c, 0, 68, 111
1, 138109, Note_off_c, 0, 70, 106
1, 138109, Note_on_c, 0, 71, 112
1, 138201, Note_off_c, 0, 71, 112
1, 138201, Note_on_c, 0, 70, 112
1, 138302, Note_off_c, 0, 70, 112
1, 138306, Note_on_c, 0, 68, 110
1, 138419, Note_off_c, 0, 68, 110
1, 138419, Note_on_c, 0, 66, 106
1, 138519, Note_off_c, 0, 66, 106
1, 138519, Note_on_c, 0, 64, 107
1, 138618, Note_off_c, 0, 64, 107
1, 138618, Note_on_c, 0, 63, 112
1, 138683, Note_off_c, 0, 63, 112
1, 138693, Note_on_c, 0, 61, 113
1, 138765, Note_off_c, 0, 61, 113
1, 138769, Note_on_c, 0, 59, 110
1, 138817, Note_off_c, 0, 59, 110
1, 138817, Note_on_c, 0, 58, 102
1, 138893, Note_off_c, 0, 58, 102
1, 138923, Note_on_c, 0, 56, 102
1, 139028, Note_off_c, 0, 56, 102
1, 139028, Note_on_c, 0, 54, 97
1, 139125, Note_off_c, 0, 54, 97
1, 139130, Note_on_c, 0, 56, 95
1, 139235, Note_off_c, 0, 56, 95
1, 139237, Note_on_c, 0, 58, 98
1, 139316, Note_off_c, 0, 58, 98
1, 140480, Note_on_c, 0, 44, 115
1, 140563, Note_off_c, 0, 44, 115
1, 140587, Note_on_c, 0, 55, 112
1, 140658, Note_off_c, 0, 55, 112
1, 140664, Note_on_c, 0, 52, 104
1, 140731, Note_off_c, 0, 52, 104
1, 140756, Note_on_c, 0, 48, 103
1, 140827, Note_off_c, 0, 48, 103
1, 140843, Note_on_c, 0, 51, 97
1, 140905, Note_off_c, 0, 51, 97
1, 140939, Note_on_c, 0, 58, 97
1, 141106, Note_off_c, 0, 58, 97
1, 141182, Note_on_c, 0, 56, 98
1, 141244, Note_off_c, 0, 56, 98
1, 141393, Note_on_c, 0, 63, 101
1, 141490, Note_off_c, 0, 63, 101
1, 141496, Note_on_c, 0, 67, 110
1, 141578, Note_off_c, 0, 67, 110
1, 141594, Note_on_c, 0, 70, 109
1, 141635, Note_off_c, 0, 70, 109
1, 141641, Note_on_c, 0, 69, 107
1, 141683, Note_off_c, 0, 69, 107
1, 141690, Note_on_c, 0, 68, 110
1, 141783, Note_off_c, 0, 68, 110
1, 141791, Note_on_c, 0, 65, 108
1, 141853, Note_off_c, 0, 65, 108
1, 141861, Note_on_c, 0, 63, 111
1, 141968, Note_off_c, 0, 63, 111
1, 142003, Note_on_c, 0, 67, 112
1, 142097, Note_off_c, 0, 67, 112
1, 142098, Note_on_c, 0, 65, 108
1, 142157, Note_off_c, 0, 65, 108
1, 142164, Note_on_c, 0, 61, 107
1, 142266, Note_off_c, 0, 61, 107
1, 142288, Note_on_c, 0, 59, 96
1, 142380, Note_off_c, 0, 59, 96
1, 142673, Note_on_c, 0, 64, 120
1, 142757, Note_off_c, 0, 64, 120
1, 142774, Note_on_c, 0, 65, 120
1, 142822, Note_off_c, 0, 65, 120
1, 142828, Note_on_c, 0, 64, 117
1, 142921, Note_off_c, 0, 64, 117
1, 142933, Note_on_c, 0, 62, 113
1, 143038, Note_off_c, 0, 62, 113
1, 143046, Note_on_c, 0, 60, 105
1, 143131, Note_off_c, 0, 60, 105
1, 143135, Note_on_c, 0, 59, 99
1, 143235, Note_off_c, 0, 59, 99
1, 143236, Note_on_c, 0, 62, 106
1, 143326, Note_off_c, 0, 62, 106
1, 143330, Note_on_c, 0, 63, 103
1, 143398, Note_off_c, 0, 63, 103
1, 143410, Note_on_c, 0, 65, 99
1, 143449, Note_off_c, 0, 65, 99
1, 143449, Note_on_c, 0, 68, 107
1, 143510, Note_off_c, 0, 68, 107
1, 143518, Note_on_c, 0, 64, 106
1, 143645, Note_off_c, 0, 64, 106
1, 143657, Note_on_c, 0, 62, 99
1, 143737, Note_off_c, 0, 62, 99
1, 143754, Note_on_c, 0, 67, 109
1, 143827, Note_off_c, 0, 67, 109
1, 143835, Note_on_c, 0, 68, 110
1, 143880, Note_off_c, 0, 68, 110
1, 143880, Note_on_c, 0, 66, 102
1, 143976, Note_off_c, 0, 66, 102
1, 143985, Note_on_c, 0, 64, 105
1, 144086, Note_off_c, 0, 64, 105
1, 144097, Note_on_c, 0, 63, 108
1, 144182, Note_off_c, 0, 63, 108
1, 144202, Note_on_c, 0, 61, 104
1, 144305, Note_off_c, 0, 61, 104
1, 144305, Note_on_c, 0, 59, 105
1, 144369, Note_off_c, 0, 59, 105
1, 144373, Note_on_c, 0, 58, 98
1, 144491, Note_off_c, 0, 58, 98
1, 144541, Note_on_c, 0, 54, 95
1, 144599, Note_off_c, 0, 54, 95
1, 144599, Note_on_c, 0, 55, 102
1, 144682, Note_on_c, 0, 56, 103
1, 144682, Note_off_c, 0, 55, 102
1, 144752, Note_off_c, 0, 56, 103
1, 144778, Note_on_c, 0, 52, 103
1, 144852, Note_off_c, 0, 52, 103
1, 144858, Note_on_c, 0, 49, 100
1, 144943, Note_off_c, 0, 49, 100
1, 144982, Note_on_c, 0, 54, 106
1, 145051, Note_off_c, 0, 54, 106
1, 145069, Note_on_c, 0, 52, 108
1, 145131, Note_off_c, 0, 52, 108
1, 145131, Note_on_c, 0, 53, 110
1, 145191, Note_off_c, 0, 53, 110
1, 145199, Note_on_c, 0, 54, 99
1, 145277, Note_off_c, 0, 54, 99
1, 145382, Note_on_c, 0, 58, 99
1, 145465, Note_off_c, 0, 58, 99
1, 145553, Note_on_c, 0, 63, 109
1, 145643, Note_off_c, 0, 63, 109
1, 145651, Note_on_c, 0, 61, 101
1, 145739, Note_off_c, 0, 61, 101
1, 145747, Note_on_c, 0, 60, 97
1, 145824, Note_off_c, 0, 60, 97
1, 145877, Note_on_c, 0, 58, 99
1, 145950, Note_off_c, 0, 58, 99
1, 145961, Note_on_c, 0, 57, 97
1, 146048, Note_off_c, 0, 57, 97
1, 146079, Note_on_c, 0, 60, 95
1, 146164, Note_off_c, 0, 60, 95
1, 146189, Note_on_c, 0, 63, 104
1, 146277, Note_off_c, 0, 63, 104
1, 146277, Note_on_c, 0, 67, 108
1, 146353, Note_off_c, 0, 67, 108
1, 146385, Note_on_c, 0, 62, 110
1, 146485, Note_off_c, 0, 62, 110
1, 146490, Note_on_c, 0, 63, 100
1, 146563, Note_off_c, 0, 63, 100
1, 146613, Note_on_c, 0, 67, 94
1, 146664, Note_off_c, 0, 67, 94
1, 146696, Note_on_c, 0, 70, 91
1, 146770, Note_off_c, 0, 70, 91
1, 146782, Note_on_c, 0, 74, 102
1, 146891, Note_off_c, 0, 74, 102
1, 146891, Note_on_c, 0, 72, 106
1, 146999, Note_off_c, 0, 72, 106
1, 147005, Note_on_c, 0, 67, 106
1, 147172, Note_off_c, 0, 67, 106
1, 147178, Note_on_c, 0, 63, 108
1, 147278, Note_off_c, 0, 63, 108
1, 147295, Note_on_c, 0, 70, 112
1, 147378, Note_off_c, 0, 70, 112
1, 147378, Note_on_c, 0, 71, 109
1, 147436, Note_off_c, 0, 71, 109
1, 147440, Note_on_c, 0, 70, 106
1, 147512, Note_off_c, 0, 70, 106
1, 147524, Note_on_c, 0, 67, 102
1, 147635, Note_off_c, 0, 67, 102
1, 147659, Note_on_c, 0, 69, 113
1, 147794, Note_off_c, 0, 69, 113
1, 147794, Note_on_c, 0, 71, 101
1, 147841, Note_off_c, 0, 71, 101
1, 147845, Note_on_c, 0, 69, 104
1, 147910, Note_off_c, 0, 69, 104
1, 147914, Note_on_c, 0, 65, 104
1, 148058, Note_off_c, 0, 65, 104
1, 148069, Note_on_c, 0, 67, 103
1, 148155, Note_off_c, 0, 67, 103
1, 148155, Note_on_c, 0, 69, 106
1, 148203, Note_off_c, 0, 69, 106
1, 148203, Note_on_c, 0, 67, 107
1, 148273, Note_off_c, 0, 67, 107
1, 148287, Note_on_c, 0, 63, 109
1, 148423, Note_off_c, 0, 63, 109
1, 148423, Note_on_c, 0, 65, 107
1, 148544, Note_off_c, 0, 65, 107
1, 148553, Note_on_c, 0, 67, 107
1, 148626, Note_off_c, 0, 67, 107
1, 148629, Note_on_c, 0, 65, 99
1, 148686, Note_off_c, 0, 65, 99
1, 148688, Note_on_c, 0, 62, 106
1, 148847, Note_off_c, 0, 62, 106
1, 148849, Note_on_c, 0, 63, 99
1, 148958, Note_off_c, 0, 63, 99
1, 148958, Note_on_c, 0, 67, 97
1, 149011, Note_off_c, 0, 67, 97
1, 149027, Note_on_c, 0, 63, 96
1, 149089, Note_off_c, 0, 63, 96
1, 149093, Note_on_c, 0, 60, 95
1, 149152, Note_off_c, 0, 60, 95
1, 149240, Note_on_c, 0, 62, 113
1, 149549, Note_off_c, 0, 62, 113
1, 149666, Note_on_c, 0, 66, 112
1, 149918, Note_off_c, 0, 66, 112
1, 149956, Note_on_c, 0, 56, 102
1, 150040, Note_off_c, 0, 56, 102
1, 150056, Note_on_c, 0, 54, 98
1, 150352, Note_off_c, 0, 54, 98
1, 150509, Note_on_c, 0, 56, 91
1, 150772, Note_off_c, 0, 56, 91
1, 150884, Note_on_c, 0, 57, 101
1, 151073, Note_off_c, 0, 57, 101
1, 151411, Note_on_c, 0, 54, 100
1, 151607, Note_off_c, 0, 54, 100
1, 151609, Note_on_c, 0, 58, 101
1, 151736, Note_off_c, 0, 58, 101
1, 151746, Note_on_c, 0, 59, 103
1, 152057, Note_off_c, 0, 59, 103
1, 153034, Note_on_c, 0, 69, 112
1, 153113, Note_off_c, 0, 69, 112
1, 153124, Note_on_c, 0, 71, 108
1, 153688, Note_off_c, 0, 71, 108
1, 153710, Note_on_c, 0, 68, 105
1, 153831, Note_off_c, 0, 68, 105
1, 153847, Note_on_c, 0, 69, 97
1, 154465, Note_off_c, 0, 69, 97
1, 154522, Note_on_c, 0, 66, 98
1, 154641, Note_off_c, 0, 66, 98
1, 154669, Note_on_c, 0, 61, 101
1, 155056, Note_off_c, 0, 61, 101
1, 155056, End_track
0, 0, End_of_file
