0, 0, Header, 1, 1, 192
1, 0, Start_track
1, 0, Title_t, "Melody"
1, 0, Tempo, 382165
1, 0, Key_signature, -3, "major"
1, 0, Time_signature, 4, 2, 24, 8
1, 888, Note_on_c, 0, 67, 124
1, 958, Note_off_c, 0, 67, 124
1, 960, Note_on_c, 0, 70, 122
1, 1031, Note_off_c, 0, 70, 122
1, 1033, Note_on_c, 0, 67, 112
1, 1081, Note_off_c, 0, 67, 112
1, 1083, Note_on_c, 0, 68, 122
1, 1150, Note_off_c, 0, 68, 122
1, 1161, Note_on_c, 0, 63, 117
1, 1231, Note_off_c, 0, 63, 117
1, 1245, Note_on_c, 0, 59, 97
1, 1306, Note_off_c, 0, 59, 97
1, 1513, Note_on_c, 0, 67, 117
1, 1547, Note_off_c, 0, 67, 117
1, 1549, Note_on_c, 0, 68, 116
1, 1576, Note_off_c, 0, 68, 116
1, 1579, Note_on_c, 0, 67, 114
1, 1684, Note_off_c, 0, 67, 114
1, 1692, Note_on_c, 0, 65, 113
1, 1769, Note_off_c, 0, 65, 113
1, 1789, Note_on_c, 0, 63, 120
1, 1905, Note_off_c, 0, 63, 120
1, 1915, Note_on_c, 0, 60, 108
1, 2139, Note_off_c, 0, 60, 108
1, 2150, Note_on_c, 0, 61, 113
1, 2275, Note_off_c, 0, 61, 113
1, 2291, Note_on_c, 0, 58, 96
1, 2532, Note_off_c, 0, 58, 96
1, 2565, Note_on_c, 0, 59, 104
1, 2656, Note_off_c, 0, 59, 104
1, 2672, Note_on_c, 0, 55, 108
1, 2731, Note_off_c, 0, 55, 108
1, 2735, Note_on_c, 0, 52, 112
1, 2817, Note_off_c, 0, 52, 112
1, 2841, Note_on_c, 0, 50, 108
1, 2918, Note_off_c, 0, 50, 108
1, 2919, Note_on_c, 0, 49, 102
1, 3040, Note_off_c, 0, 49, 102
1, 3063, Note_on_c, 0, 60, 108
1, 3418, Note_off_c, 0, 60, 108
1, 3426, Note_on_c, 0, 56, 107
1, 3493, Note_off_c, 0, 56, 107
1, 3520, Note_on_c, 0, 53, 107
1, 3602, Note_off_c, 0, 53, 107
1, 3610, Note_on_c, 0, 51, 105
1, 3691, Note_off_c, 0, 51, 105
1, 3697, Note_on_c, 0, 50, 101
1, 3815, Note_off_c, 0, 50, 101
1, 3823, Note_on_c, 0, 61, 109
1, 3854, Note_off_c, 0, 61, 109
1, 3857, Note_on_c, 0, 62, 119
1, 3925, Note_off_c, 0, 62, 119
1, 4022, Note_on_c, 0, 60, 113
1, 4104, Note_off_c, 0, 60, 113
1, 4111, Note_on_c, 0, 58, 100
1, 4203, Note_off_c, 0, 58, 100
1, 4223, Note_on_c, 0, 55, 103
1, 4302, Note_off_c, 0, 55, 103
1, 4311, Note_on_c, 0, 53, 98
1, 4402, Note_off_c, 0, 53, 98
1, 4407, Note_on_c, 0, 51, 108
1, 4477, Note_off_c, 0, 51, 108
1, 4485, Note_on_c, 0, 56, 103
1, 4581, Note_off_c, 0, 56, 103
1, 4597, Note_on_c, 0, 55, 104
1, 4666, Note_off_c, 0, 55, 104
1, 4682, Note_on_c, 0, 53, 98
1, 4780, Note_off_c, 0, 53, 98
1, 4782, Note_on_c, 0, 50, 91
1, 4843, Note_off_c, 0, 50, 91
1, 4846, Note_on_c, 0, 51, 101
1, 4984, Note_off_c, 0, 51, 101
1, 4992, Note_on_c, 0, 60, 104
1, 5058, Note_off_c, 0, 60, 104
1, 5727, Note_on_c, 0, 55, 112
1, 5778, Note_off_c, 0, 55, 112
1, 5780, Note_on_c, 0, 56, 107
1, 5808, Note_off_c, 0, 56, 107
1, 5812, Note_on_c, 0, 58, 107
1, 5858, Note_off_c, 0, 58, 107
1, 5860, Note_on_c, 0, 59, 107
1, 5908, Note_off_c, 0, 59, 107
1, 5911, Note_on_c, 0, 61, 113
1, 5968, Note_off_c, 0, 61, 113
1, 5968, Note_on_c, 0, 63, 119
1, 6003, Note_off_c, 0, 63, 119
1, 6007, Note_on_c, 0, 66, 116
1, 6049, Note_off_c, 0, 66, 116
1, 6057, Note_on_c, 0, 65, 117
1, 6101, Note_off_c, 0, 65, 117
1, 6103, Note_on_c, 0, 63, 118
1, 6151, Note_off_c, 0, 63, 118
1, 6155, Note_on_c, 0, 61, 111
1, 6201, Note_off_c, 0, 61, 111
1, 6219, Note_on_c, 0, 59, 104
1, 6266, Note_off_c, 0, 59, 104
1, 6270, Note_on_c, 0, 58, 101
1, 6705, Note_off_c, 0, 58, 101
1, 6814, Note_on_c, 0, 64, 123
1, 6855, Note_off_c, 0, 64, 123
1, 6856, Note_on_c, 0, 65, 120
1, 6878, Note_off_c, 0, 65, 120
1, 6880, Note_on_c, 0, 64, 120
1, 6913, Note_off_c, 0, 64, 120
1, 6918, Note_on_c, 0, 62, 122
1, 6986, Note_off_c, 0, 62, 122
1, 6993, Note_on_c, 0, 61, 108
1, 7085, Note_off_c, 0, 61, 108
1, 7103, Note_on_c, 0, 59, 110
1, 7171, Note_off_c, 0, 59, 110
1, 7177, Note_on_c, 0, 58, 103
1, 7297, Note_off_c, 0, 58, 103
1, 7320, Note_on_c, 0, 54, 106
1, 7359, Note_off_c, 0, 54, 106
1, 7369, Note_on_c, 0, 56, 108
1, 7450, Note_off_c, 0, 56, 108
1, 7458, Note_on_c, 0, 57, 103
1, 7694, Note_off_c, 0, 57, 103
1, 7713, Note_on_c, 0, 53, 102
1, 7813, Note_off_c, 0, 53, 102
1, 7851, Note_on_c, 0, 55, 109
1, 7891, Note_off_c, 0, 55, 109
1, 7896, Note_on_c, 0, 56, 103
1, 8123, Note_off_c, 0, 56, 103
1, 8138, Note_on_c, 0, 59, 106
1, 8197, Note_off_c, 0, 59, 106
1, 8203, Note_on_c, 0, 54, 110
1, 8248, Note_off_c, 0, 54, 110
1, 8257, Note_on_c, 0, 52, 114
1, 8295, Note_off_c, 0, 52, 114
1, 8325, Note_on_c, 0, 51, 101
1, 8573, Note_off_c, 0, 51, 101
1, 10159, Note_on_c, 0, 67, 122
1, 10219, Note_off_c, 0, 67, 122
1, 10236, Note_on_c, 0, 68, 120
1, 10300, Note_off_c, 0, 68, 120
1, 10329, Note_on_c, 0, 68, 121
1, 10364, Note_off_c, 0, 68, 121
1, 10370, Note_on_c, 0, 67, 122
1, 10413, Note_off_c, 0, 67, 122
1, 10423, Note_on_c, 0, 66, 115
1, 10510, Note_off_c, 0, 66, 115
1, 10527, Note_on_c, 0, 67, 117
1, 10583, Note_off_c, 0, 67, 117
1, 10622, Note_on_c, 0, 74, 111
1, 10665, Note_off_c, 0, 74, 111
1, 10672, Note_on_c, 0, 75, 106
1, 10743, Note_off_c, 0, 75, 106
1, 10756, Note_on_c, 0, 74, 112
1, 10877, Note_off_c, 0, 74, 112
1, 10886, Note_on_c, 0, 72, 115
1, 10901, Note_off_c, 0, 72, 115
1, 10905, Note_on_c, 0, 71, 124
1, 10926, Note_off_c, 0, 71, 124
1, 10928, Note_on_c, 0, 72, 117
1, 11253, Note_off_c, 0, 72, 117
1, 11265, Note_on_c, 0, 68, 112
1, 11289, Note_off_c, 0, 68, 112
1, 11293, Note_on_c, 0, 65, 107
1, 11310, Note_off_c, 0, 65, 107
1, 11315, Note_on_c, 0, 63, 116
1, 11335, Note_off_c, 0, 63, 116
1, 11339, Note_on_c, 0, 62, 116
1, 11373, Note_off_c, 0, 62, 116
1, 11374, Note_on_c, 0, 60, 104
1, 11391, Note_off_c, 0, 60, 104
1, 11394, Note_on_c, 0, 59, 104
1, 11637, Note_off_c, 0, 59, 104
1, 11753, Note_on_c, 0, 56, 99
1, 11773, Note_off_c, 0, 56, 99
1, 11777, Note_on_c, 0, 55, 105
1, 11801, Note_off_c, 0, 55, 105
1, 11801, Note_on_c, 0, 51, 101
1, 11824, Note_off_c, 0, 51, 101
1, 11824, Note_on_c, 0, 50, 106
1, 11866, Note_off_c, 0, 50, 106
1, 11866, Note_on_c, 0, 48, 109
1, 11891, Note_off_c, 0, 48, 109
1, 11894, Note_on_c, 0, 47, 109
1, 11951, Note_off_c, 0, 47, 109
1, 11963, Note_on_c, 0, 50, 103
1, 11997, Note_off_c, 0, 50, 103
1, 11998, Note_on_c, 0, 56, 109
1, 12035, Note_off_c, 0, 56, 109
1, 12036, Note_on_c, 0, 55, 111
1, 12173, Note_off_c, 0, 55, 111
1, 12250, Note_on_c, 0, 67, 121
1, 12329, Note_off_c, 0, 67, 121
1, 12329, Note_on_c, 0, 65, 116
1, 12415, Note_off_c, 0, 65, 116
1, 12420, Note_on_c, 0, 63, 119
1, 12508, Note_off_c, 0, 63, 119
1, 12511, Note_on_c, 0, 60, 108
1, 12654, Note_off_c, 0, 60, 108
1, 12656, Note_on_c, 0, 61, 104
1, 12684, Note_off_c, 0, 61, 104
1, 12687, Note_on_c, 0, 65, 99
1, 12716, Note_off_c, 0, 65, 99
1, 12722, Note_on_c, 0, 68, 98
1, 12761, Note_off_c, 0, 68, 98
1, 12768, Note_on_c, 0, 72, 118
1, 12864, Note_off_c, 0, 72, 118
1, 12928, Note_on_c, 0, 58, 103
1, 13079, Note_off_c, 0, 58, 103
1, 13651, Note_on_c, 0, 71, 119
1, 13699, Note_off_c, 0, 71, 119
1, 13699, Note_on_c, 0, 67, 118
1, 13756, Note_off_c, 0, 67, 118
1, 13757, Note_on_c, 0, 64, 122
1, 13795, Note_off_c, 0, 64, 122
1, 13795, Note_on_c, 0, 62, 119
1, 13832, Note_off_c, 0, 62, 119
1, 13832, Note_on_c, 0, 61, 104
1, 13954, Note_off_c, 0, 61, 104
1, 14029, Note_on_c, 0, 72, 119
1, 14071, Note_off_c, 0, 72, 119
1, 14071, Note_on_c, 0, 68, 116
1, 14113, Note_off_c, 0, 68, 116
1, 14113, Note_on_c, 0, 65, 116
1, 14156, Note_off_c, 0, 65, 116
1, 14156, Note_on_c, 0, 63, 116
1, 14205, Note_off_c, 0, 63, 116
1, 14207, Note_on_c, 0, 62, 117
1, 14340, Note_off_c, 0, 62, 117
1, 14531, Note_on_c, 0, 72, 119
1, 14604, Note_off_c, 0, 72, 119
1, 14604, Note_on_c, 0, 68, 119
1, 14713, Note_off_c, 0, 68, 119
1, 14798, Note_on_c, 0, 70, 117
1, 14909, Note_off_c, 0, 70, 117
1, 14928, Note_on_c, 0, 67, 115
1, 15030, Note_off_c, 0, 67, 115
1, 15141, Note_on_c, 0, 62, 88
1, 15174, Note_off_c, 0, 62, 88
1, 15218, Note_on_c, 0, 65, 116
1, 15270, Note_off_c, 0, 65, 116
1, 15276, Note_on_c, 0, 66, 112
1, 15322, Note_off_c, 0, 66, 112
1, 15322, Note_on_c, 0, 65, 116
1, 15354, Note_off_c, 0, 65, 116
1, 15356, Note_on_c, 0, 63, 118
1, 15408, Note_off_c, 0, 63, 118
1, 15408, Note_on_c, 0, 61, 106
1, 15499, Note_off_c, 0, 61, 106
1, 15500, Note_on_c, 0, 59, 95
1, 15548, Note_off_c, 0, 59, 95
1, 15578, Note_on_c, 0, 67, 113
1, 15655, Note_off_c, 0, 67, 113
1, 15678, Note_on_c, 0, 67, 114
1, 15717, Note_off_c, 0, 67, 114
1, 15719, Note_on_c, 0, 65, 112
1, 15752, Note_off_c, 0, 65, 112
1, 15755, Note_on_c, 0, 63, 115
1, 15897, Note_off_c, 0, 63, 115
1, 15903, Note_on_c, 0, 67, 93
1, 15943, Note_off_c, 0, 67, 93
1, 15954, Note_on_c, 0, 62, 122
1, 16054, Note_off_c, 0, 62, 122
1, 16075, Note_on_c, 0, 60, 111
1, 16121, Note_off_c, 0, 60, 111
1, 16132, Note_on_c, 0, 58, 100
1, 16160, Note_off_c, 0, 58, 100
1, 16166, Note_on_c, 0, 59, 99
1, 16198, Note_off_c, 0, 59, 99
1, 16203, Note_on_c, 0, 58, 96
1, 16242, Note_off_c, 0, 58, 96
1, 16244, Note_on_c, 0, 55, 112
1, 16292, Note_off_c, 0, 55, 112
1, 16338, Note_on_c, 0, 59, 113
1, 16435, Note_off_c, 0, 59, 113
1, 16455, Note_on_c, 0, 54, 104
1, 16492, Note_off_c, 0, 54, 104
1, 16503, Note_on_c, 0, 51, 105
1, 16617, Note_off_c, 0, 51, 105
1, 16627, Note_on_c, 0, 56, 97
1, 16888, Note_off_c, 0, 56, 97
1, 17483, Note_on_c, 0, 62, 122
1, 17585, Note_off_c, 0, 62, 122
1, 17597, Note_on_c, 0, 59, 111
1, 17666, Note_off_c, 0, 59, 111
1, 17680, Note_on_c, 0, 53, 102
1, 17709, Note_off_c, 0, 53, 102
1, 17711, Note_on_c, 0, 54, 99
1, 17776, Note_off_c, 0, 54, 99
1, 17873, Note_on_c, 0, 61, 110
1, 17925, Note_off_c, 0, 61, 110
1, 17931, Note_on_c, 0, 60, 111
1, 17983, Note_off_c, 0, 60, 111
1, 18007, Note_on_c, 0, 58, 114
1, 18063, Note_off_c, 0, 58, 114
1, 18069, Note_on_c, 0, 55, 106
1, 18177, Note_off_c, 0, 55, 106
1, 18237, Note_on_c, 0, 56, 110
1, 18282, Note_off_c, 0, 56, 110
1, 18284, Note_on_c, 0, 57, 105
1, 18539, Note_off_c, 0, 57, 105
1, 18582, Note_on_c, 0, 53, 114
1, 18627, Note_off_c, 0, 53, 114
1, 18639, Note_on_c, 0, 55, 110
1, 18666, Note_off_c, 0, 55, 110
1, 18673, Note_on_c, 0, 56, 111
1, 18725, Note_off_c, 0, 56, 111
1, 18746, Note_on_c, 0, 59, 113
1, 18818, Note_off_c, 0, 59, 113
1, 18826, Note_on_c, 0, 54, 104
1, 18924, Note_off_c, 0, 54, 104
1, 18927, Note_on_c, 0, 52, 110
1, 19002, Note_off_c, 0, 52, 110
1, 19014, Note_on_c, 0, 51, 109
1, 19099, Note_off_c, 0, 51, 109
1, 19099, Note_on_c, 0, 47, 114
1, 19192, Note_off_c, 0, 47, 114
1, 19496, Note_on_c, 0, 47, 114
1, 19553, Note_off_c, 0, 47, 114
1, 19802, Note_on_c, 0, 51, 113
1, 19882, Note_off_c, 0, 51, 113
1, 19890, Note_on_c, 0, 53, 106
1, 19960, Note_off_c, 0, 53, 106
1, 19960, Note_on_c, 0, 56, 113
1, 20088, Note_off_c, 0, 56, 113
1, 20112, Note_on_c, 0, 51, 106
1, 20150, Note_off_c, 0, 51, 106
1, 20155, Note_on_c, 0, 58, 117
1, 20257, Note_off_c, 0, 58, 117
1, 20272, Note_on_c, 0, 56, 112
1, 20365, Note_off_c, 0, 56, 112
1, 20369, Note_on_c, 0, 55, 110
1, 20455, Note_off_c, 0, 55, 110
1, 20470, Note_on_c, 0, 51, 90
1, 20510, Note_off_c, 0, 51, 90
1, 20529, Note_on_c, 0, 53, 107
1, 20740, Note_off_c, 0, 53, 107
1, 21367, Note_on_c, 0, 67, 119
1, 21409, Note_off_c, 0, 67, 119
1, 21413, Note_on_c, 0, 66, 104
1, 21445, Note_off_c, 0, 66, 104
1, 21449, Note_on_c, 0, 67, 103
1, 21473, Note_off_c, 0, 67, 103
1, 21485, Note_on_c, 0, 68, 123
1, 21556, Note_off_c, 0, 68, 123
1, 21558, Note_on_c, 0, 67, 112
1, 21589, Note_off_c, 0, 67, 112
1, 21594, Note_on_c, 0, 68, 122
1, 21626, Note_off_c, 0, 68, 122
1, 21630, Note_on_c, 0, 67, 119
1, 21682, Note_off_c, 0, 67, 119
1, 21684, Note_on_c, 0, 66, 104
1, 21721, Note_off_c, 0, 66, 104
1, 21724, Note_on_c, 0, 67, 110
1, 21762, Note_off_c, 0, 67, 110
1, 21764, Note_on_c, 0, 68, 121
1, 21808, Note_off_c, 0, 68, 121
1, 21810, Note_on_c, 0, 67, 113
1, 21850, Note_off_c, 0, 67, 113
1, 21859, Note_on_c, 0, 66, 104
1, 21899, Note_off_c, 0, 66, 104
1, 21904, Note_on_c, 0, 67, 105
1, 21941, Note_off_c, 0, 67, 105
1, 21944, Note_on_c, 0, 66, 107
1, 21984, Note_off_c, 0, 66, 107
1, 21990, Note_on_c, 0, 67, 108
1, 22021, Note_off_c, 0, 67, 108
1, 22026, Note_on_c, 0, 66, 100
1, 22052, Note_off_c, 0, 66, 100
1, 22053, Note_on_c, 0, 68, 122
1, 22108, Note_off_c, 0, 68, 122
1, 22110, Note_on_c, 0, 67, 109
1, 22151, Note_off_c, 0, 67, 109
1, 22153, Note_on_c, 0, 68, 106
1, 22192, Note_off_c, 0, 68, 106
1, 22192, Note_on_c, 0, 67, 102
1, 22228, Note_off_c, 0, 67, 102
1, 22230, Note_on_c, 0, 66, 90
1, 22283, Note_off_c, 0, 66, 90
1, 22673, Note_on_c, 0, 67, 116
1, 22725, Note_on_c, 0, 66, 103
1, 22725, Note_off_c, 0, 67, 116
1, 22767, Note_off_c, 0, 66, 103
1, 22768, Note_on_c, 0, 67, 105
1, 22815, Note_off_c, 0, 67, 105
1, 22815, Note_on_c, 0, 68, 125
1, 22859, Note_off_c, 0, 68, 125
1, 22859, Note_on_c, 0, 67, 114
1, 22909, Note_off_c, 0, 67, 114
1, 22909, Note_on_c, 0, 66, 102
1, 22960, Note_on_c, 0, 67, 103
1, 22960, Note_off_c, 0, 66, 102
1, 23005, Note_off_c, 0, 67, 103
1, 23010, Note_on_c, 0, 66, 95
1, 23049, Note_off_c, 0, 66, 95
1, 23049, Note_on_c, 0, 67, 101
1, 23095, Note_off_c, 0, 67, 101
1, 23097, Note_on_c, 0, 68, 123
1, 23148, Note_off_c, 0, 68, 123
1, 23148, Note_on_c, 0, 67, 117
1, 23196, Note_off_c, 0, 67, 117
1, 23204, Note_on_c, 0, 66, 97
1, 23254, Note_off_c, 0, 66, 97
1, 23259, Note_on_c, 0, 67, 101
1, 23302, Note_off_c, 0, 67, 101
1, 23312, Note_on_c, 0, 68, 89
1, 23354, Note_off_c, 0, 68, 89
1, 24305, Note_on_c, 0, 66, 121
1, 24355, Note_off_c, 0, 66, 121
1, 24365, Note_on_c, 0, 66, 118
1, 24399, Note_off_c, 0, 66, 118
1, 24402, Note_on_c, 0, 64, 121
1, 24462, Note_off_c, 0, 64, 121
1, 24466, Note_on_c, 0, 62, 121
1, 24516, Note_off_c, 0, 62, 121
1, 24520, Note_on_c, 0, 61, 114
1, 24564, Note_off_c, 0, 61, 114
1, 24575, Note_on_c, 0, 57, 89
1, 24607, Note_off_c, 0, 57, 89
1, 24675, Note_on_c, 0, 67, 118
1, 24713, Note_off_c, 0, 67, 118
1, 24716, Note_on_c, 0, 68, 118
1, 24737, Note_off_c, 0, 68, 118
1, 24740, Note_on_c, 0, 67, 119
1, 24793, Note_off_c, 0, 67, 119
1, 24793, Note_on_c, 0, 65, 114
1, 24849, Note_off_c, 0, 65, 114
1, 24849, Note_on_c, 0, 63, 120
1, 24907, Note_off_c, 0, 63, 120
1, 24909, Note_on_c, 0, 62, 120
1, 24957, Note_off_c, 0, 62, 120
1, 24958, Note_on_c, 0, 60, 102
1, 24990, Note_off_c, 0, 60, 102
1, 24990, Note_on_c, 0, 58, 106
1, 25035, Note_off_c, 0, 58, 106
1, 25042, Note_on_c, 0, 57, 106
1, 25066, Note_off_c, 0, 57, 106
1, 25068, Note_on_c, 0, 56, 107
1, 25107, Note_off_c, 0, 56, 107
1, 25109, Note_on_c, 0, 60, 108
1, 25153, Note_off_c, 0, 60, 108
1, 25154, Note_on_c, 0, 55, 105
1, 25195, Note_off_c, 0, 55, 105
1, 25198, Note_on_c, 0, 53, 110
1, 25236, Note_off_c, 0, 53, 110
1, 25254, Note_on_c, 0, 66, 108
1, 25279, Note_off_c, 0, 66, 108
1, 25279, Note_on_c, 0, 69, 104
1, 25310, Note_on_c, 0, 66, 93
1, 25310, Note_off_c, 0, 69, 104
1, 25342, Note_off_c, 0, 66, 93
1, 25346, Note_on_c, 0, 67, 100
1, 25391, Note_off_c, 0, 67, 100
1, 25395, Note_on_c, 0, 68, 108
1, 25440, Note_off_c, 0, 68, 108
1, 25440, Note_on_c, 0, 59, 109
1, 25480, Note_off_c, 0, 59, 109
1, 25480, Note_on_c, 0, 61, 111
1, 25538, Note_off_c, 0, 61, 111
1, 25542, Note_on_c, 0, 62, 115
1, 25590, Note_off_c, 0, 62, 115
1, 25590, Note_on_c, 0, 64, 120
1, 25646, Note_off_c, 0, 64, 120
1, 25651, Note_on_c, 0, 65, 99
1, 25694, Note_off_c, 0, 65, 99
1, 25775, Note_on_c, 0, 68, 107
1, 25806, Note_off_c, 0, 68, 107
1, 25816, Note_on_c, 0, 70, 123
1, 25874, Note_off_c, 0, 70, 123
1, 25882, Note_on_c, 0, 71, 121
1, 25932, Note_off_c, 0, 71, 121
1, 25932, Note_on_c, 0, 68, 120
1, 25979, Note_off_c, 0, 68, 120
1, 25980, Note_on_c, 0, 67, 117
1, 26048, Note_off_c, 0, 67, 117
1, 26049, Note_on_c, 0, 66, 108
1, 26114, Note_off_c, 0, 66, 108
1, 26583, Note_on_c, 0, 67, 125
1, 26632, Note_off_c, 0, 67, 125
1, 26637, Note_on_c, 0, 65, 121
1, 26673, Note_off_c, 0, 65, 121
1, 26676, Note_on_c, 0, 63, 122
1, 26729, Note_off_c, 0, 63, 122
1, 26730, Note_on_c, 0, 61, 117
1, 26780, Note_off_c, 0, 61, 117
1, 26780, Note_on_c, 0, 60, 107
1, 26821, Note_off_c, 0, 60, 107
1, 26821, Note_on_c, 0, 58, 105
1, 26873, Note_off_c, 0, 58, 105
1, 26876, Note_on_c, 0, 59, 102
1, 26929, Note_off_c, 0, 59, 102
1, 27006, Note_on_c, 0, 58, 113
1, 27045, Note_off_c, 0, 58, 113
1, 27058, Note_on_c, 0, 56, 109
1, 27083, Note_off_c, 0, 56, 109
1, 27093, Note_on_c, 0, 51, 109
1, 27132, Note_off_c, 0, 51, 109
1, 27137, Note_on_c, 0, 54, 110
1, 27202, Note_off_c, 0, 54, 110
1, 27216, Note_on_c, 0, 51, 108
1, 27281, Note_off_c, 0, 51, 108
1, 27310, Note_on_c, 0, 47, 110
1, 27349, Note_off_c, 0, 47, 110
1, 27350, Note_on_c, 0, 46, 109
1, 27388, Note_off_c, 0, 46, 109
1, 27391, Note_on_c, 0, 45, 116
1, 27430, Note_off_c, 0, 45, 116
1, 27432, Note_on_c, 0, 44, 106
1, 27469, Note_off_c, 0, 44, 106
1, 27551, Note_on_c, 0, 58, 106
1, 27599, Note_off_c, 0, 58, 106
1, 27605, Note_on_c, 0, 55, 107
1, 27648, Note_off_c, 0, 55, 107
1, 27650, Note_on_c, 0, 56, 110
1, 27677, Note_off_c, 0, 56, 110
1, 27687, Note_on_c, 0, 58, 104
1, 27714, Note_off_c, 0, 58, 104
1, 27716, Note_on_c, 0, 59, 102
1, 27746, Note_off_c, 0, 59, 102
1, 27749, Note_on_c, 0, 61, 106
1, 27783, Note_off_c, 0, 61, 106
1, 27788, Note_on_c, 0, 62, 114
1, 27815, Note_off_c, 0, 62, 114
1, 27818, Note_on_c, 0, 63, 114
1, 27838, Note_off_c, 0, 63, 114
1, 27840, Note_on_c, 0, 65, 117
1, 27859, Note_off_c, 0, 65, 117
1, 27862, Note_on_c, 0, 64, 119
1, 27929, Note_off_c, 0, 64, 119
1, 27934, Note_on_c, 0, 65, 98
1, 27971, Note_off_c, 0, 65, 98
1, 27985, Note_on_c, 0, 69, 97
1, 28018, Note_off_c, 0, 69, 97
1, 28027, Note_on_c, 0, 71, 101
1, 28048, Note_off_c, 0, 71, 101
1, 28050, Note_on_c, 0, 76, 127
1, 28093, Note_off_c, 0, 76, 127
1, 28098, Note_on_c, 0, 77, 96
1, 28117, Note_off_c, 0, 77, 96
1, 28122, Note_on_c, 0, 76, 119
1, 28171, Note_off_c, 0, 76, 119
1, 28171, Note_on_c, 0, 75, 109
1, 28243, Note_off_c, 0, 75, 109
1, 28950, Note_on_c, 0, 74, 113
1, 29024, Note_off_c, 0, 74, 113
1, 29137, Note_on_c, 0, 72, 116
1, 29186, Note_off_c, 0, 72, 116
1, 29186, Note_on_c, 0, 70, 115
1, 29233, Note_off_c, 0, 70, 115
1, 29233, Note_on_c, 0, 67, 113
1, 29289, Note_off_c, 0, 67, 113
1, 29299, Note_on_c, 0, 69, 119
1, 29363, Note_off_c, 0, 69, 119
1, 29495, Note_on_c, 0, 60, 111
1, 29558, Note_off_c, 0, 60, 111
1, 29690, Note_on_c, 0, 68, 125
1, 29755, Note_off_c, 0, 68, 125
1, 29762, Note_on_c, 0, 66, 117
1, 29791, Note_off_c, 0, 66, 117
1, 29795, Note_on_c, 0, 63, 121
1, 29839, Note_off_c, 0, 63, 121
1, 29842, Note_on_c, 0, 61, 26
1, 29890, Note_off_c, 0, 61, 26
1, 29896, Note_on_c, 0, 59, 104
1, 30092, Note_off_c, 0, 59, 104
1, 30415, Note_on_c, 0, 70, 122
1, 30451, Note_off_c, 0, 70, 122
1, 30453, Note_on_c, 0, 71, 125
1, 30507, Note_off_c, 0, 71, 125
1, 30511, Note_on_c, 0, 70, 123
1, 30563, Note_off_c, 0, 70, 123
1, 30595, Note_on_c, 0, 68, 126
1, 30675, Note_off_c, 0, 68, 126
1, 30701, Note_on_c, 0, 66, 119
1, 30767, Note_off_c, 0, 66, 119
1, 30772, Note_on_c, 0, 67, 121
1, 30815, Note_off_c, 0, 67, 121
1, 30819, Note_on_c, 0, 66, 115
1, 30863, Note_off_c, 0, 66, 115
1, 30864, Note_on_c, 0, 63, 119
1, 30935, Note_off_c, 0, 63, 119
1, 30955, Note_on_c, 0, 62, 122
1, 31049, Note_off_c, 0, 62, 122
1, 31061, Note_on_c, 0, 60, 108
1, 31120, Note_off_c, 0, 60, 108
1, 31128, Note_on_c, 0, 58, 109
1, 31218, Note_off_c, 0, 58, 109
1, 31227, Note_on_c, 0, 55, 105
1, 31301, Note_off_c, 0, 55, 105
1, 31313, Note_on_c, 0, 53, 103
1, 31413, Note_off_c, 0, 53, 103
1, 31413, Note_on_c, 0, 51, 116
1, 31496, Note_off_c, 0, 51, 116
1, 31502, Note_on_c, 0, 56, 117
1, 31618, Note_off_c, 0, 56, 117
1, 31642, Note_on_c, 0, 54, 106
1, 31684, Note_off_c, 0, 54, 106
1, 31697, Note_on_c, 0, 55, 106
1, 31805, Note_off_c, 0, 55, 106
1, 32015, Note_on_c, 0, 67, 126
1, 32083, Note_off_c, 0, 67, 126
1, 32095, Note_on_c, 0, 68, 120
1, 32174, Note_off_c, 0, 68, 120
1, 32232, Note_on_c, 0, 74, 112
1, 32265, Note_off_c, 0, 74, 112
1, 32266, Note_on_c, 0, 75, 102
1, 32595, Note_off_c, 0, 75, 102
1, 32597, Note_on_c, 0, 73, 113
1, 32628, Note_off_c, 0, 73, 113
1, 32628, Note_on_c, 0, 74, 104
1, 32962, Note_off_c, 0, 74, 104
1, 32972, Note_on_c, 0, 72, 118
1, 33015, Note_off_c, 0, 72, 118
1, 33019, Note_on_c, 0, 73, 113
1, 33222, Note_off_c, 0, 73, 113
1, 33233, Note_on_c, 0, 71, 117
1, 33261, Note_off_c, 0, 71, 117
1, 33269, Note_on_c, 0, 68, 111
1, 33310, Note_off_c, 0, 68, 111
1, 33316, Note_on_c, 0, 66, 109
1, 33334, Note_off_c, 0, 66, 109
1, 33342, Note_on_c, 0, 64, 118
1, 33380, Note_off_c, 0, 64, 118
1, 33383, Note_on_c, 0, 61, 105
1, 33441, Note_off_c, 0, 61, 105
1, 33455, Note_on_c, 0, 59, 108
1, 33526, Note_off_c, 0, 59, 108
1, 33546, Note_on_c, 0, 56, 109
1, 33589, Note_off_c, 0, 56, 109
1, 33614, Note_on_c, 0, 55, 111
1, 33704, Note_off_c, 0, 55, 111
1, 33732, Note_on_c, 0, 55, 122
1, 33764, Note_off_c, 0, 55, 122
1, 33774, Note_on_c, 0, 53, 111
1, 33843, Note_off_c, 0, 53, 111
1, 33851, Note_on_c, 0, 51, 105
1, 33942, Note_off_c, 0, 51, 105
1, 33949, Note_on_c, 0, 46, 110
1, 34036, Note_off_c, 0, 46, 110
1, 34042, Note_on_c, 0, 44, 112
1, 34147, Note_off_c, 0, 44, 112
1, 34227, Note_on_c, 0, 58, 103
1, 34269, Note_off_c, 0, 58, 103
1, 34275, Note_on_c, 0, 56, 119
1, 34352, Note_off_c, 0, 56, 119
1, 34362, Note_on_c, 0, 51, 113
1, 34454, Note_off_c, 0, 51, 113
1, 34464, Note_on_c, 0, 54, 126
1, 34550, Note_off_c, 0, 54, 126
1, 34557, Note_on_c, 0, 55, 109
1, 34726, Note_off_c, 0, 55, 109
1, 34748, Note_on_c, 0, 59, 105
1, 34838, Note_off_c, 0, 59, 105
1, 34839, Note_on_c, 0, 62, 112
1, 34931, Note_off_c, 0, 62, 112
1, 34965, Note_on_c, 0, 66, 114
1, 35085, Note_off_c, 0, 66, 114
1, 35094, Note_on_c, 0, 62, 120
1, 35127, Note_off_c, 0, 62, 120
1, 35128, Note_on_c, 0, 64, 119
1, 35226, Note_off_c, 0, 64, 119
1, 35447, Note_on_c, 0, 56, 111
1, 35526, Note_off_c, 0, 56, 111
1, 35529, Note_on_c, 0, 60, 105
1, 35588, Note_off_c, 0, 60, 105
1, 35744, Note_on_c, 0, 67, 121
1, 35857, Note_off_c, 0, 67, 121
1, 35861, Note_on_c, 0, 65, 119
1, 35907, Note_off_c, 0, 65, 119
1, 35910, Note_on_c, 0, 62, 122
1, 36027, Note_off_c, 0, 62, 122
1, 36397, Note_on_c, 0, 65, 118
1, 36449, Note_off_c, 0, 65, 118
1, 36451, Note_on_c, 0, 63, 124
1, 36558, Note_off_c, 0, 63, 124
1, 36563, Note_on_c, 0, 61, 116
1, 36629, Note_off_c, 0, 61, 116
1, 36636, Note_on_c, 0, 59, 106
1, 36744, Note_off_c, 0, 59, 106
1, 36752, Note_on_c, 0, 56, 113
1, 36839, Note_off_c, 0, 56, 113
1, 36844, Note_on_c, 0, 55, 105
1, 36928, Note_off_c, 0, 55, 105
1, 36964, Note_on_c, 0, 63, 121
1, 37022, Note_off_c, 0, 63, 121
1, 37051, Note_on_c, 0, 58, 102
1, 37101, Note_off_c, 0, 58, 102
1, 37102, Note_on_c, 0, 59, 102
1, 37154, Note_off_c, 0, 59, 102
1, 37214, Note_on_c, 0, 60, 114
1, 37325, Note_off_c, 0, 60, 114
1, 37335, Note_on_c, 0, 62, 124
1, 37407, Note_off_c, 0, 62, 124
1, 37413, Note_on_c, 0, 63, 122
1, 37495, Note_off_c, 0, 63, 122
1, 37517, Note_on_c, 0, 65, 123
1, 37575, Note_off_c, 0, 65, 123
1, 37598, Note_on_c, 0, 66, 116
1, 37664, Note_off_c, 0, 66, 116
1, 37674, Note_on_c, 0, 66, 116
1, 37710, Note_off_c, 0, 66, 116
1, 37715, Note_on_c, 0, 63, 118
1, 37766, Note_off_c, 0, 63, 118
1, 37793, Note_on_c, 0, 59, 106
1, 37873, Note_off_c, 0, 59, 106
1, 37877, Note_on_c, 0, 56, 108
1, 37942, Note_off_c, 0, 56, 108
1, 37949, Note_on_c, 0, 64, 121
1, 37976, Note_off_c, 0, 64, 121
1, 37980, Note_on_c, 0, 65, 112
1, 38138, Note_off_c, 0, 65, 112
1, 38715, Note_on_c, 0, 72, 119
1, 38744, Note_off_c, 0, 72, 119
1, 38753, Note_on_c, 0, 69, 119
1, 38783, Note_off_c, 0, 69, 119
1, 38785, Note_on_c, 0, 67, 114
1, 38818, Note_off_c, 0, 67, 114
1, 38821, Note_on_c, 0, 66, 112
1, 38857, Note_off_c, 0, 66, 112
1, 38858, Note_on_c, 0, 65, 113
1, 38884, Note_off_c, 0, 65, 113
1, 38887, Note_on_c, 0, 64, 122
1, 38923, Note_off_c, 0, 64, 122
1, 38925, Note_on_c, 0, 63, 112
1, 38952, Note_off_c, 0, 63, 112
1, 38952, Note_on_c, 0, 61, 104
1, 38976, Note_off_c, 0, 61, 104
1, 38977, Note_on_c, 0, 59, 108
1, 39004, Note_off_c, 0, 59, 108
1, 39007, Note_on_c, 0, 57, 115
1, 39028, Note_off_c, 0, 57, 115
1, 39031, Note_on_c, 0, 55, 115
1, 39059, Note_off_c, 0, 55, 115
1, 39068, Note_on_c, 0, 54, 112
1, 39107, Note_off_c, 0, 54, 112
1, 39112, Note_on_c, 0, 52, 107
1, 39151, Note_off_c, 0, 52, 107
1, 39152, Note_on_c, 0, 50, 107
1, 39173, Note_off_c, 0, 50, 107
1, 39174, Note_on_c, 0, 48, 109
1, 39208, Note_off_c, 0, 48, 109
1, 39225, Note_on_c, 0, 47, 107
1, 39252, Note_off_c, 0, 47, 107
1, 39255, Note_on_c, 0, 46, 103
1, 39333, Note_off_c, 0, 46, 103
1, 39449, Note_on_c, 0, 58, 111
1, 39493, Note_off_c, 0, 58, 111
1, 39502, Note_on_c, 0, 55, 107
1, 39553, Note_off_c, 0, 55, 107
1, 39561, Note_on_c, 0, 57, 101
1, 39609, Note_off_c, 0, 57, 101
1, 39622, Note_on_c, 0, 60, 109
1, 39671, Note_off_c, 0, 60, 109
1, 39705, Note_on_c, 0, 63, 105
1, 39739, Note_off_c, 0, 63, 105
1, 39741, Note_on_c, 0, 67, 116
1, 39771, Note_off_c, 0, 67, 116
1, 39787, Note_on_c, 0, 62, 119
1, 39832, Note_off_c, 0, 62, 119
1, 39857, Note_on_c, 0, 59, 105
1, 39885, Note_off_c, 0, 59, 105
1, 39889, Note_on_c, 0, 66, 118
1, 39927, Note_off_c, 0, 66, 118
1, 39932, Note_on_c, 0, 63, 116
1, 40045, Note_off_c, 0, 63, 116
1, 40379, Note_on_c, 0, 63, 123
1, 40430, Note_off_c, 0, 63, 123
1, 40438, Note_on_c, 0, 68, 122
1, 40473, Note_off_c, 0, 68, 122
1, 40475, Note_on_c, 0, 66, 117
1, 40490, Note_off_c, 0, 66, 117
1, 40492, Note_on_c, 0, 63, 115
1, 40547, Note_off_c, 0, 63, 115
1, 40550, Note_on_c, 0, 61, 112
1, 40581, Note_off_c, 0, 61, 112
1, 40595, Note_on_c, 0, 59, 116
1, 40631, Note_off_c, 0, 59, 116
1, 40637, Note_on_c, 0, 61, 108
1, 40684, Note_off_c, 0, 61, 108
1, 40690, Note_on_c, 0, 63, 112
1, 40734, Note_off_c, 0, 63, 112
1, 40736, Note_on_c, 0, 66, 115
1, 40771, Note_off_c, 0, 66, 115
1, 40774, Note_on_c, 0, 65, 118
1, 40825, Note_off_c, 0, 65, 118
1, 40830, Note_on_c, 0, 64, 124
1, 40873, Note_off_c, 0, 64, 124
1, 40880, Note_on_c, 0, 63, 121
1, 40928, Note_off_c, 0, 63, 121
1, 40934, Note_on_c, 0, 60, 108
1, 40975, Note_off_c, 0, 60, 108
1, 40986, Note_on_c, 0, 55, 103
1, 41015, Note_off_c, 0, 55, 103
1, 41015, Note_on_c, 0, 53, 96
1, 41050, Note_off_c, 0, 53, 96
1, 41066, Note_on_c, 0, 62, 119
1, 41123, Note_off_c, 0, 62, 119
1, 41123, Note_on_c, 0, 60, 112
1, 41158, Note_off_c, 0, 60, 112
1, 41164, Note_on_c, 0, 58, 109
1, 41203, Note_off_c, 0, 58, 109
1, 41206, Note_on_c, 0, 57, 104
1, 41245, Note_off_c, 0, 57, 104
1, 41248, Note_on_c, 0, 56, 106
1, 41293, Note_off_c, 0, 56, 106
1, 41296, Note_on_c, 0, 60, 114
1, 41333, Note_off_c, 0, 60, 114
1, 41333, Note_on_c, 0, 55, 106
1, 41382, Note_off_c, 0, 55, 106
1, 41394, Note_on_c, 0, 53, 104
1, 41435, Note_off_c, 0, 53, 104
1, 41437, Note_on_c, 0, 58, 113
1, 41476, Note_off_c, 0, 58, 113
1, 41516, Note_on_c, 0, 56, 107
1, 41543, Note_off_c, 0, 56, 107
1, 41548, Note_on_c, 0, 58, 105
1, 41590, Note_off_c, 0, 58, 105
1, 41593, Note_on_c, 0, 60, 96
1, 41636, Note_off_c, 0, 60, 96
1, 41659, Note_on_c, 0, 63, 109
1, 41682, Note_off_c, 0, 63, 109
1, 41686, Note_on_c, 0, 67, 115
1, 41733, Note_off_c, 0, 67, 115
1, 41737, Note_on_c, 0, 63, 94
1, 41769, Note_off_c, 0, 63, 94
1, 41779, Note_on_c, 0, 66, 117
1, 41822, Note_off_c, 0, 66, 117
1, 41845, Note_on_c, 0, 66, 110
1, 41877, Note_off_c, 0, 66, 110
1, 41880, Note_on_c, 0, 64, 118
1, 41912, Note_off_c, 0, 64, 118
1, 41917, Note_on_c, 0, 62, 113
1, 41953, Note_off_c, 0, 62, 113
1, 41957, Note_on_c, 0, 60, 102
1, 41995, Note_off_c, 0, 60, 102
1, 41999, Note_on_c, 0, 58, 105
1, 42035, Note_off_c, 0, 58, 105
1, 42042, Note_on_c, 0, 56, 105
1, 42075, Note_off_c, 0, 56, 105
1, 42088, Note_on_c, 0, 55, 107
1, 42115, Note_off_c, 0, 55, 107
1, 42115, Note_on_c, 0, 57, 104
1, 42132, Note_off_c, 0, 57, 104
1, 42133, Note_on_c, 0, 58, 101
1, 42166, Note_off_c, 0, 58, 101
1, 42270, Note_on_c, 0, 51, 109
1, 42335, Note_off_c, 0, 51, 109
1, 42560, Note_on_c, 0, 67, 123
1, 42621, Note_off_c, 0, 67, 123
1, 42624, Note_on_c, 0, 65, 117
1, 42720, Note_off_c, 0, 65, 117
1, 42744, Note_on_c, 0, 63, 119
1, 42847, Note_off_c, 0, 63, 119
1, 43205, Note_on_c, 0, 67, 118
1, 43327, Note_off_c, 0, 67, 118
1, 43328, Note_on_c, 0, 65, 104
1, 43367, Note_off_c, 0, 65, 104
1, 43383, Note_on_c, 0, 65, 114
1, 43401, Note_off_c, 0, 65, 114
1, 43406, Note_on_c, 0, 67, 122
1, 43479, Note_off_c, 0, 67, 122
1, 43601, Note_on_c, 0, 70, 117
1, 43712, Note_off_c, 0, 70, 117
1, 43716, Note_on_c, 0, 68, 105
1, 43763, Note_off_c, 0, 68, 105
1, 43773, Note_on_c, 0, 70, 118
1, 44178, Note_off_c, 0, 70, 118
1, 44257, Note_on_c, 0, 67, 121
1, 44360, Note_off_c, 0, 67, 121
1, 44362, Note_on_c, 0, 70, 119
1, 44394, Note_off_c, 0, 70, 119
1, 44398, Note_on_c, 0, 67, 118
1, 44439, Note_off_c, 0, 67, 118
1, 44443, Note_on_c, 0, 65, 117
1, 44479, Note_off_c, 0, 65, 117
1, 44483, Note_on_c, 0, 63, 125
1, 44534, Note_off_c, 0, 63, 125
1, 44536, Note_on_c, 0, 67, 119
1, 44569, Note_off_c, 0, 67, 119
1, 44571, Note_on_c, 0, 65, 118
1, 44604, Note_off_c, 0, 65, 118
1, 44606, Note_on_c, 0, 61, 107
1, 44663, Note_off_c, 0, 61, 107
1, 44701, Note_on_c, 0, 65, 116
1, 44772, Note_off_c, 0, 65, 116
1, 44772, Note_on_c, 0, 68, 119
1, 44818, Note_off_c, 0, 68, 119
1, 44821, Note_on_c, 0, 66, 114
1, 44873, Note_off_c, 0, 66, 114
1, 44890, Note_on_c, 0, 61, 112
1, 44949, Note_on_c, 0, 58, 106
1, 44949, Note_off_c, 0, 61, 112
1, 45028, Note_off_c, 0, 58, 106
1, 45268, Note_on_c, 0, 66, 119
1, 45298, Note_off_c, 0, 66, 119
1, 45302, Note_on_c, 0, 69, 119
1, 45336, Note_off_c, 0, 69, 119
1, 45338, Note_on_c, 0, 67, 117
1, 45379, Note_off_c, 0, 67, 117
1, 45382, Note_on_c, 0, 64, 117
1, 45408, Note_off_c, 0, 64, 117
1, 45409, Note_on_c, 0, 62, 121
1, 45458, Note_off_c, 0, 62, 121
1, 45462, Note_on_c, 0, 66, 114
1, 45498, Note_off_c, 0, 66, 114
1, 45502, Note_on_c, 0, 64, 117
1, 45555, Note_off_c, 0, 64, 117
1, 45557, Note_on_c, 0, 61, 108
1, 45587, Note_off_c, 0, 61, 108
1, 45592, Note_on_c, 0, 59, 105
1, 45675, Note_off_c, 0, 59, 105
1, 45703, Note_on_c, 0, 67, 120
1, 45783, Note_off_c, 0, 67, 120
1, 45788, Note_on_c, 0, 70, 116
1, 45824, Note_off_c, 0, 70, 116
1, 45825, Note_on_c, 0, 68, 121
1, 45859, Note_off_c, 0, 68, 121
1, 45861, Note_on_c, 0, 65, 116
1, 45902, Note_off_c, 0, 65, 116
1, 45903, Note_on_c, 0, 63, 117
1, 45932, Note_off_c, 0, 63, 117
1, 45934, Note_on_c, 0, 67, 117
1, 45971, Note_off_c, 0, 67, 117
1, 45973, Note_on_c, 0, 65, 113
1, 46008, Note_off_c, 0, 65, 113
1, 46008, Note_on_c, 0, 60, 106
1, 46065, Note_off_c, 0, 60, 106
1, 46067, Note_on_c, 0, 63, 114
1, 46100, Note_off_c, 0, 63, 114
1, 46101, Note_on_c, 0, 62, 116
1, 46140, Note_off_c, 0, 62, 116
1, 46143, Note_on_c, 0, 58, 103
1, 46166, Note_off_c, 0, 58, 103
1, 46166, Note_on_c, 0, 56, 112
1, 46218, Note_off_c, 0, 56, 112
1, 46220, Note_on_c, 0, 60, 100
1, 46258, Note_off_c, 0, 60, 100
1, 46260, Note_on_c, 0, 55, 102
1, 46286, Note_off_c, 0, 55, 102
1, 46290, Note_on_c, 0, 53, 101
1, 46325, Note_off_c, 0, 53, 101
1, 46330, Note_on_c, 0, 56, 99
1, 46359, Note_off_c, 0, 56, 99
1, 46359, Note_on_c, 0, 55, 100
1, 46383, Note_off_c, 0, 55, 100
1, 46387, Note_on_c, 0, 53, 107
1, 46405, Note_off_c, 0, 53, 107
1, 46405, Note_on_c, 0, 51, 104
1, 46448, Note_off_c, 0, 51, 104
1, 46452, Note_on_c, 0, 53, 111
1, 46475, Note_off_c, 0, 53, 111
1, 46487, Note_on_c, 0, 51, 117
1, 46513, Note_off_c, 0, 51, 117
1, 46516, Note_on_c, 0, 50, 113
1, 46555, Note_off_c, 0, 50, 113
1, 46557, Note_on_c, 0, 48, 109
1, 46579, Note_off_c, 0, 48, 109
1, 46584, Note_on_c, 0, 46, 103
1, 46658, Note_off_c, 0, 46, 103
1, 47411, Note_on_c, 0, 67, 118
1, 47486, Note_off_c, 0, 67, 118
1, 47490, Note_on_c, 0, 72, 123
1, 47612, Note_off_c, 0, 72, 123
1, 47612, Note_on_c, 0, 74, 113
1, 47940, Note_off_c, 0, 74, 113
1, 47997, Note_on_c, 0, 67, 113
1, 48068, Note_off_c, 0, 67, 113
1, 48074, Note_on_c, 0, 71, 122
1, 48187, Note_off_c, 0, 71, 122
1, 48191, Note_on_c, 0, 74, 116
1, 48221, Note_off_c, 0, 74, 116
1, 48227, Note_on_c, 0, 75, 113
1, 48460, Note_off_c, 0, 75, 113
1, 48464, Note_on_c, 0, 73, 118
1, 48628, Note_off_c, 0, 73, 118
1, 48641, Note_on_c, 0, 70, 117
1, 48668, Note_off_c, 0, 70, 117
1, 48671, Note_on_c, 0, 71, 124
1, 48773, Note_off_c, 0, 71, 124
1, 48774, Note_on_c, 0, 70, 117
1, 48799, Note_off_c, 0, 70, 117
1, 48801, Note_on_c, 0, 69, 121
1, 48833, Note_off_c, 0, 69, 121
1, 48834, Note_on_c, 0, 70, 112
1, 48979, Note_off_c, 0, 70, 112
1, 48980, Note_on_c, 0, 71, 110
1, 48997, Note_off_c, 0, 71, 110
1, 49000, Note_on_c, 0, 67, 113
1, 49017, Note_off_c, 0, 67, 113
1, 49020, Note_on_c, 0, 65, 111
1, 49038, Note_off_c, 0, 65, 111
1, 49042, Note_on_c, 0, 64, 121
1, 49140, Note_off_c, 0, 64, 121
1, 49152, Note_on_c, 0, 59, 111
1, 49232, Note_off_c, 0, 59, 111
1, 49233, Note_on_c, 0, 58, 104
1, 49338, Note_off_c, 0, 58, 104
1, 49348, Note_on_c, 0, 54, 103
1, 49378, Note_off_c, 0, 54, 103
1, 49388, Note_on_c, 0, 56, 104
1, 49491, Note_off_c, 0, 56, 104
1, 49506, Note_on_c, 0, 56, 114
1, 49527, Note_off_c, 0, 56, 114
1, 49530, Note_on_c, 0, 57, 104
1, 49723, Note_off_c, 0, 57, 104
1, 49753, Note_on_c, 0, 60, 101
1, 49795, Note_off_c, 0, 60, 101
1, 49802, Note_on_c, 0, 63, 107
1, 49855, Note_off_c, 0, 63, 107
1, 49884, Note_on_c, 0, 67, 94
1, 49908, Note_off_c, 0, 67, 94
1, 49926, Note_on_c, 0, 70, 93
1, 49962, Note_off_c, 0, 70, 93
1, 49976, Note_on_c, 0, 74, 113
1, 50067, Note_off_c, 0, 74, 113
1, 50073, Note_on_c, 0, 72, 118
1, 50148, Note_off_c, 0, 72, 118
1, 50159, Note_on_c, 0, 67, 117
1, 50260, Note_off_c, 0, 67, 117
1, 50264, Note_on_c, 0, 66, 104
1, 50322, Note_off_c, 0, 66, 104
1, 50335, Note_on_c, 0, 71, 117
1, 50384, Note_off_c, 0, 71, 117
1, 50386, Note_on_c, 0, 72, 116
1, 50416, Note_off_c, 0, 72, 116
1, 50418, Note_on_c, 0, 73, 111
1, 50471, Note_off_c, 0, 73, 111
1, 50492, Note_on_c, 0, 69, 107
1, 50560, Note_off_c, 0, 69, 107
1, 50561, Note_on_c, 0, 68, 110
1, 50625, Note_off_c, 0, 68, 110
1, 50646, Note_on_c, 0, 66, 116
1, 50718, Note_off_c, 0, 66, 116
1, 50724, Note_on_c, 0, 64, 122
1, 50820, Note_off_c, 0, 64, 122
1, 50823, Note_on_c, 0, 63, 120
1, 50911, Note_off_c, 0, 63, 120
1, 50917, Note_on_c, 0, 61, 109
1, 51013, Note_off_c, 0, 61, 109
1, 51015, Note_on_c, 0, 59, 109
1, 51100, Note_off_c, 0, 59, 109
1, 51100, Note_on_c, 0, 57, 102
1, 51211, Note_off_c, 0, 57, 102
1, 51218, Note_on_c, 0, 54, 97
1, 51253, Note_off_c, 0, 54, 97
1, 51268, Note_on_c, 0, 56, 103
1, 51552, Note_off_c, 0, 56, 103
1, 51759, Note_on_c, 0, 58, 112
1, 51794, Note_off_c, 0, 58, 112
1, 51805, Note_on_c, 0, 56, 114
1, 51835, Note_off_c, 0, 56, 114
1, 51839, Note_on_c, 0, 55, 114
1, 51950, Note_off_c, 0, 55, 114
1, 51980, Note_on_c, 0, 51, 101
1, 52049, Note_off_c, 0, 51, 101
1, 52224, Note_on_c, 0, 58, 109
1, 52254, Note_off_c, 0, 58, 109
1, 52257, Note_on_c, 0, 59, 102
1, 52301, Note_off_c, 0, 59, 102
1, 52305, Note_on_c, 0, 58, 104
1, 52338, Note_off_c, 0, 58, 104
1, 52344, Note_on_c, 0, 55, 103
1, 52420, Note_off_c, 0, 55, 103
1, 52425, Note_on_c, 0, 56, 104
1, 52515, Note_off_c, 0, 56, 104
1, 52525, Note_on_c, 0, 58, 107
1, 52624, Note_off_c, 0, 58, 107
1, 52626, Note_on_c, 0, 59, 106
1, 52711, Note_off_c, 0, 59, 106
1, 52730, Note_on_c, 0, 61, 107
1, 52798, Note_off_c, 0, 61, 107
1, 52798, Note_on_c, 0, 62, 115
1, 52916, Note_off_c, 0, 62, 115
1, 52918, Note_on_c, 0, 64, 120
1, 52997, Note_off_c, 0, 64, 120
1, 53002, Note_on_c, 0, 65, 114
1, 53103, Note_off_c, 0, 65, 114
1, 53104, Note_on_c, 0, 67, 118
1, 53164, Note_off_c, 0, 67, 118
1, 53189, Note_on_c, 0, 68, 118
1, 53297, Note_off_c, 0, 68, 118
1, 53303, Note_on_c, 0, 66, 119
1, 53324, Note_off_c, 0, 66, 119
1, 53327, Note_on_c, 0, 67, 113
1, 53535, Note_off_c, 0, 67, 113
1, 53548, Note_on_c, 0, 63, 113
1, 53664, Note_off_c, 0, 63, 113
1, 53665, Note_on_c, 0, 56, 97
1, 53864, Note_off_c, 0, 56, 97
1, 53864, End_track
0, 0, End_of_file
