0, 0, Header, 1, 1, 840
1, 0, Start_track
1, 0, Note_on_c, 0, 50, 92
1, 160, Note_off_c, 0, 50, 92
1, 181, Note_on_c, 0, 51, 93
1, 328, Note_off_c, 0, 51, 93
1, 344, Note_on_c, 0, 52, 88
1, 430, Note_off_c, 0, 52, 88
1, 456, Note_on_c, 0, 55, 99
1, 542, Note_off_c, 0, 55, 99
1, 542, Note_on_c, 0, 57, 104
1, 689, Note_off_c, 0, 57, 104
1, 689, Note_on_c, 0, 58, 101
1, 881, Note_off_c, 0, 58, 101
1, 881, Note_on_c, 0, 55, 95
1, 998, Note_off_c, 0, 55, 95
1, 1053, Note_on_c, 0, 57, 103
1, 1200, Note_on_c, 0, 64, 105
1, 1200, Note_off_c, 0, 57, 103
1, 1400, Note_off_c, 0, 64, 105
1, 1433, Note_on_c, 0, 57, 100
1, 1593, Note_off_c, 0, 57, 100
1, 1608, Note_on_c, 0, 58, 101
1, 1788, Note_off_c, 0, 58, 101
1, 1788, Note_on_c, 0, 63, 97
1, 1901, Note_off_c, 0, 63, 97
1, 1912, Note_on_c, 0, 64, 100
1, 2112, Note_off_c, 0, 64, 100
1, 2115, Note_on_c, 0, 67, 94
1, 2273, Note_off_c, 0, 67, 94
1, 2273, Note_on_c, 0, 70, 101
1, 2446, Note_off_c, 0, 70, 101
1, 2497, Note_on_c, 0, 67, 88
1, 2644, Note_off_c, 0, 67, 88
1, 2664, Note_on_c, 0, 69, 107
1, 2907, Note_off_c, 0, 69, 107
1, 3067, Note_on_c, 0, 62, 89
1, 3240, Note_off_c, 0, 62, 89
1, 3306, Note_on_c, 0, 67, 89
1, 3662, Note_off_c, 0, 67, 89
1, 3708, Note_on_c, 0, 65, 92
1, 3838, Note_off_c, 0, 65, 92
1, 3855, Note_on_c, 0, 61, 91
1, 4011, Note_off_c, 0, 61, 91
1, 4032, Note_on_c, 0, 58, 100
1, 4288, Note_off_c, 0, 58, 100
1, 4565, Note_on_c, 0, 57, 99
1, 4817, Note_off_c, 0, 57, 99
1, 4900, Note_on_c, 0, 61, 92
1, 5465, Note_off_c, 0, 61, 92
1, 5499, Note_on_c, 0, 57, 102
1, 5738, Note_off_c, 0, 57, 102
1, 6003, Note_on_c, 0, 56, 98
1, 6368, Note_off_c, 0, 56, 98
1, 6369, Note_on_c, 0, 52, 84
1, 6547, Note_off_c, 0, 52, 84
1, 6570, Note_on_c, 0, 50, 84
1, 6782, Note_off_c, 0, 50, 84
1, 6801, Note_on_c, 0, 55, 94
1, 7053, Note_off_c, 0, 55, 94
1, 7122, Note_on_c, 0, 53, 87
1, 7356, Note_off_c, 0, 53, 87
1, 7425, Note_on_c, 0, 56, 94
1, 7498, Title_t, "Melody"
1, 7498, Tempo, 560747
1, 7498, Key_signature, 0, "major"
1, 7498, Time_signature, 4, 2, 24, 8
1, 8050, Note_off_c, 0, 56, 94
1, 8610, Note_on_c, 0, 55, 98
1, 8753, Note_off_c, 0, 55, 98
1, 8770, Note_on_c, 0, 56, 96
1, 8926, Note_off_c, 0, 56, 96
1, 9021, Note_on_c, 0, 58, 104
1, 9194, Note_on_c, 0, 59, 101
1, 9194, Note_off_c, 0, 58, 104
1, 9371, Note_off_c, 0, 59, 101
1, 9371, Note_on_c, 0, 62, 110
1, 9510, Note_off_c, 0, 62, 110
1, 9548, Note_on_c, 0, 65, 99
1, 9792, Note_off_c, 0, 65, 99
1, 9792, Note_on_c, 0, 68, 114
1, 10026, Note_off_c, 0, 68, 114
1, 10035, Note_on_c, 0, 66, 102
1, 10243, Note_off_c, 0, 66, 102
1, 10250, Note_on_c, 0, 67, 96
1, 10450, Note_off_c, 0, 67, 96
1, 10494, Note_on_c, 0, 61, 92
1, 10741, Note_off_c, 0, 61, 92
1, 10784, Note_on_c, 0, 63, 82
1, 10940, Note_off_c, 0, 63, 82
1, 10950, Note_on_c, 0, 66, 104
1, 11167, Note_off_c, 0, 66, 104
1, 11238, Note_on_c, 0, 63, 80
1, 11359, Note_off_c, 0, 63, 80
1, 11415, Note_on_c, 0, 64, 103
1, 11910, Note_off_c, 0, 64, 103
1, 11950, Note_on_c, 0, 62, 99
1, 12170, Note_off_c, 0, 62, 99
1, 12176, Note_on_c, 0, 60, 94
1, 12390, Note_off_c, 0, 60, 94
1, 12426, Note_on_c, 0, 56, 102
1, 12682, Note_off_c, 0, 56, 102
1, 12698, Note_on_c, 0, 55, 100
1, 12911, Note_off_c, 0, 55, 100
1, 12937, Note_on_c, 0, 53, 87
1, 13093, Note_off_c, 0, 53, 87
1, 13253, Note_on_c, 0, 48, 75
1, 13439, Note_off_c, 0, 48, 75
1, 13612, Note_on_c, 0, 52, 88
1, 13972, Note_off_c, 0, 52, 88
1, 14085, Note_on_c, 0, 48, 84
1, 14282, Note_off_c, 0, 48, 84
1, 14315, Note_on_c, 0, 47, 90
1, 14467, Note_off_c, 0, 47, 90
1, 14497, Note_on_c, 0, 50, 84
1, 14767, Note_off_c, 0, 50, 84
1, 14925, Note_on_c, 0, 48, 84
1, 15446, Note_off_c, 0, 48, 84
1, 16462, Note_on_c, 0, 59, 106
1, 16722, Note_off_c, 0, 59, 106
1, 16742, Note_on_c, 0, 57, 109
1, 17063, Note_off_c, 0, 57, 109
1, 17072, Note_on_c, 0, 53, 99
1, 17324, Note_off_c, 0, 53, 99
1, 17356, Note_on_c, 0, 52, 90
1, 17577, Note_off_c, 0, 52, 90
1, 17727, Note_on_c, 0, 55, 104
1, 18031, Note_off_c, 0, 55, 104
1, 18046, Note_on_c, 0, 53, 90
1, 18237, Note_off_c, 0, 53, 90
1, 18263, Note_on_c, 0, 52, 84
1, 18367, Note_off_c, 0, 52, 84
1, 18423, Note_on_c, 0, 50, 77
1, 18983, Note_off_c, 0, 50, 77
1, 20617, Note_on_c, 0, 62, 117
1, 20930, Note_off_c, 0, 62, 117
1, 21048, Note_on_c, 0, 62, 111
1, 21443, Note_off_c, 0, 62, 111
1, 21494, Note_on_c, 0, 64, 115
1, 21815, Note_off_c, 0, 64, 115
1, 21849, Note_on_c, 0, 60, 105
1, 22188, Note_off_c, 0, 60, 105
1, 22271, Note_on_c, 0, 60, 106
1, 22603, Note_off_c, 0, 60, 106
1, 22660, Note_on_c, 0, 62, 99
1, 22973, Note_off_c, 0, 62, 99
1, 23107, Note_on_c, 0, 60, 104
1, 23367, Note_off_c, 0, 60, 104
1, 23427, Note_on_c, 0, 62, 96
1, 23740, Note_off_c, 0, 62, 96
1, 23830, Note_on_c, 0, 59, 106
1, 24256, Note_off_c, 0, 59, 106
1, 24351, Note_on_c, 0, 59, 98
1, 24777, Note_off_c, 0, 59, 98
1, 24947, Note_on_c, 0, 58, 100
1, 25362, Note_off_c, 0, 58, 100
1, 25425, Note_on_c, 0, 56, 93
1, 25885, Note_off_c, 0, 56, 93
1, 26041, Note_on_c, 0, 56, 99
1, 26288, Note_off_c, 0, 56, 99
1, 26288, Note_on_c, 0, 58, 95
1, 26627, Note_off_c, 0, 58, 95
1, 26722, Note_on_c, 0, 58, 92
1, 27287, Note_off_c, 0, 58, 92
1, 27334, Note_on_c, 0, 55, 92
1, 27947, Note_off_c, 0, 55, 92
1, 29151, Note_on_c, 0, 57, 109
1, 29542, Note_off_c, 0, 57, 109
1, 29589, Note_on_c, 0, 52, 98
1, 29832, Note_off_c, 0, 52, 98
1, 30001, Note_on_c, 0, 55, 104
1, 30270, Note_off_c, 0, 55, 104
1, 30365, Note_on_c, 0, 53, 93
1, 30686, Note_off_c, 0, 53, 93
1, 30816, Note_on_c, 0, 53, 93
1, 31146, Note_off_c, 0, 53, 93
1, 31215, Note_on_c, 0, 55, 100
1, 31580, Note_off_c, 0, 55, 100
1, 31710, Note_on_c, 0, 56, 103
1, 32440, Note_off_c, 0, 56, 103
1, 32596, Note_on_c, 0, 58, 102
1, 32839, Note_off_c, 0, 58, 102
1, 32839, Note_on_c, 0, 59, 99
1, 33065, Note_off_c, 0, 59, 99
1, 33099, Note_on_c, 0, 62, 100
1, 33316, Note_on_c, 0, 64, 83
1, 33316, Note_off_c, 0, 62, 100
1, 34374, Note_off_c, 0, 64, 83
1, 36083, Note_on_c, 0, 65, 106
1, 36178, Note_off_c, 0, 65, 106
1, 36192, Note_on_c, 0, 64, 109
1, 36348, Note_off_c, 0, 64, 109
1, 36354, Note_on_c, 0, 62, 105
1, 36493, Note_off_c, 0, 62, 105
1, 36504, Note_on_c, 0, 61, 100
1, 36613, Note_off_c, 0, 61, 100
1, 36668, Note_on_c, 0, 59, 104
1, 36782, Note_off_c, 0, 59, 104
1, 36818, Note_on_c, 0, 58, 103
1, 36974, Note_off_c, 0, 58, 103
1, 37004, Note_on_c, 0, 57, 109
1, 37125, Note_off_c, 0, 57, 109
1, 37141, Note_on_c, 0, 56, 103
1, 37256, Note_off_c, 0, 56, 103
1, 37349, Note_on_c, 0, 58, 103
1, 37453, Note_off_c, 0, 58, 103
1, 37498, Note_on_c, 0, 62, 102
1, 37645, Note_off_c, 0, 62, 102
1, 37653, Note_on_c, 0, 60, 101
1, 37783, Note_off_c, 0, 60, 101
1, 37783, Note_on_c, 0, 56, 100
1, 37917, Note_off_c, 0, 56, 100
1, 38284, Note_on_c, 0, 58, 106
1, 38527, Note_off_c, 0, 58, 106
1, 38561, Note_on_c, 0, 55, 91
1, 38729, Note_off_c, 0, 55, 91
1, 38767, Note_on_c, 0, 56, 105
1, 38999, Note_off_c, 0, 56, 105
1, 39208, Note_on_c, 0, 50, 83
1, 39338, Note_off_c, 0, 50, 83
1, 39389, Note_on_c, 0, 55, 104
1, 39571, Note_off_c, 0, 55, 104
1, 39874, Note_on_c, 0, 50, 81
1, 40052, Note_off_c, 0, 50, 81
1, 40103, Note_on_c, 0, 53, 95
1, 40398, Note_off_c, 0, 53, 95
1, 40533, Note_on_c, 0, 52, 89
1, 40819, Note_off_c, 0, 52, 89
1, 40853, Note_on_c, 0, 55, 88
1, 41583, Note_off_c, 0, 55, 88
1, 41693, Note_on_c, 0, 52, 93
1, 42014, Note_off_c, 0, 52, 93
1, 42050, Note_on_c, 0, 50, 87
1, 42328, Note_off_c, 0, 50, 87
1, 42336, Note_on_c, 0, 48, 84
1, 42618, Note_off_c, 0, 48, 84
1, 42815, Note_on_c, 0, 52, 83
1, 43293, Note_off_c, 0, 52, 83
1, 43505, Note_on_c, 0, 48, 93
1, 43739, Note_off_c, 0, 48, 93
1, 43768, Note_on_c, 0, 45, 91
1, 44599, Note_off_c, 0, 45, 91
1, 47448, Note_on_c, 0, 48, 83
1, 47625, Note_off_c, 0, 48, 83
1, 47655, Note_on_c, 0, 50, 86
1, 47798, Note_off_c, 0, 50, 86
1, 47820, Note_on_c, 0, 53, 92
1, 47985, Note_off_c, 0, 53, 92
1, 47987, Note_on_c, 0, 56, 106
1, 48193, Note_off_c, 0, 56, 106
1, 48223, Note_on_c, 0, 54, 93
1, 48413, Note_off_c, 0, 54, 93
1, 48430, Note_on_c, 0, 55, 97
1, 48595, Note_off_c, 0, 55, 97
1, 48624, Note_on_c, 0, 58, 110
1, 48841, Note_off_c, 0, 58, 110
1, 48867, Note_on_c, 0, 55, 99
1, 49015, Note_off_c, 0, 55, 99
1, 49038, Note_on_c, 0, 56, 107
1, 49226, Note_off_c, 0, 56, 107
1, 49270, Note_on_c, 0, 58, 109
1, 49445, Note_off_c, 0, 58, 109
1, 49480, Note_on_c, 0, 59, 93
1, 49606, Note_off_c, 0, 59, 93
1, 49645, Note_on_c, 0, 60, 111
1, 49834, Note_off_c, 0, 60, 111
1, 49853, Note_on_c, 0, 61, 102
1, 49959, Note_off_c, 0, 61, 102
1, 49975, Note_on_c, 0, 63, 102
1, 50131, Note_off_c, 0, 63, 102
1, 50146, Note_on_c, 0, 64, 108
1, 50347, Note_off_c, 0, 64, 108
1, 50368, Note_on_c, 0, 65, 104
1, 50447, Note_off_c, 0, 65, 104
1, 50462, Note_on_c, 0, 66, 107
1, 50636, Note_off_c, 0, 66, 107
1, 50687, Note_on_c, 0, 67, 106
1, 50921, Note_off_c, 0, 67, 106
1, 50939, Note_on_c, 0, 64, 107
1, 51078, Note_off_c, 0, 64, 107
1, 51120, Note_on_c, 0, 60, 108
1, 51311, Note_off_c, 0, 60, 108
1, 51398, Note_on_c, 0, 55, 86
1, 51498, Note_off_c, 0, 55, 86
1, 51519, Note_on_c, 0, 59, 100
1, 51745, Note_off_c, 0, 59, 100
1, 51781, Note_on_c, 0, 57, 97
1, 51995, Note_off_c, 0, 57, 97
1, 52011, Note_on_c, 0, 58, 107
1, 52257, Note_off_c, 0, 58, 107
1, 52360, Note_on_c, 0, 56, 102
1, 52638, Note_off_c, 0, 56, 102
1, 52772, Note_on_c, 0, 52, 91
1, 52900, Note_off_c, 0, 52, 91
1, 52915, Note_on_c, 0, 51, 90
1, 53168, Note_off_c, 0, 51, 90
1, 53209, Note_on_c, 0, 53, 91
1, 53678, Note_off_c, 0, 53, 91
1, 53711, Note_on_c, 0, 53, 92
1, 54224, Note_off_c, 0, 53, 92
1, 54264, Note_on_c, 0, 52, 88
1, 54432, Note_off_c, 0, 52, 88
1, 54493, Note_on_c, 0, 55, 89
1, 55352, Note_off_c, 0, 55, 89
1, 55755, Note_on_c, 0, 57, 76
1, 55850, Note_off_c, 0, 57, 76
1, 55871, Note_on_c, 0, 59, 95
1, 56073, Note_off_c, 0, 59, 95
1, 56095, Note_on_c, 0, 62, 115
1, 56425, Note_off_c, 0, 62, 115
1, 56510, Note_on_c, 0, 59, 80
1, 56680, Note_off_c, 0, 59, 80
1, 56761, Note_on_c, 0, 60, 108
1, 57143, Note_off_c, 0, 60, 108
1, 57700, Note_on_c, 0, 57, 96
1, 58623, Note_off_c, 0, 57, 96
1, 59128, Note_on_c, 0, 55, 106
1, 59290, Note_off_c, 0, 55, 106
1, 59316, Note_on_c, 0, 53, 83
1, 60289, Note_off_c, 0, 53, 83
1, 60696, Note_on_c, 0, 52, 93
1, 60900, Note_off_c, 0, 52, 93
1, 61022, Note_on_c, 0, 48, 87
1, 61587, Note_off_c, 0, 48, 87
1, 63169, Note_on_c, 0, 48, 101
1, 63386, Note_off_c, 0, 48, 101
1, 63389, Note_on_c, 0, 47, 99
1, 63641, Note_off_c, 0, 47, 99
1, 63673, Note_on_c, 0, 46, 99
1, 63994, Note_off_c, 0, 46, 99
1, 64039, Note_on_c, 0, 48, 88
1, 64283, Note_off_c, 0, 48, 88
1, 64332, Note_on_c, 0, 45, 99
1, 65062, Note_off_c, 0, 45, 99
1, 66502, Note_on_c, 0, 69, 115
1, 67128, Note_off_c, 0, 69, 115
1, 67167, Note_on_c, 0, 69, 107
1, 67491, Note_off_c, 0, 69, 107
1, 67521, Note_on_c, 0, 66, 106
1, 67738, Note_off_c, 0, 66, 106
1, 67754, Note_on_c, 0, 63, 101
1, 68014, Note_off_c, 0, 63, 101
1, 68059, Note_on_c, 0, 57, 106
1, 68340, Note_off_c, 0, 57, 106
1, 68365, Note_on_c, 0, 61, 102
1, 68669, Note_off_c, 0, 61, 102
1, 68689, Note_on_c, 0, 57, 106
1, 68948, Note_off_c, 0, 57, 106
1, 69066, Note_on_c, 0, 59, 100
1, 69313, Note_off_c, 0, 59, 100
1, 69392, Note_on_c, 0, 54, 89
1, 69664, Note_off_c, 0, 54, 89
1, 69758, Note_on_c, 0, 52, 91
1, 70005, Note_off_c, 0, 52, 91
1, 70079, Note_on_c, 0, 49, 84
1, 70288, Note_off_c, 0, 49, 84
1, 70433, Note_on_c, 0, 53, 88
1, 70815, Note_off_c, 0, 53, 88
1, 70910, Note_on_c, 0, 49, 82
1, 71231, Note_off_c, 0, 49, 82
1, 71355, Note_on_c, 0, 47, 94
1, 71636, Note_off_c, 0, 47, 94
1, 73528, Note_on_c, 0, 50, 90
1, 73596, Note_off_c, 0, 50, 90
1, 73606, Note_on_c, 0, 51, 90
1, 73741, Note_off_c, 0, 51, 90
1, 73787, Note_on_c, 0, 52, 93
1, 73927, Note_off_c, 0, 52, 93
1, 73985, Note_on_c, 0, 54, 97
1, 74157, Note_off_c, 0, 54, 97
1, 74197, Note_on_c, 0, 57, 115
1, 74437, Note_off_c, 0, 57, 115
1, 74438, Note_on_c, 0, 54, 93
1, 74621, Note_off_c, 0, 54, 93
1, 74694, Note_on_c, 0, 61, 101
1, 74989, Note_off_c, 0, 61, 101
1, 75382, Note_on_c, 0, 61, 103
1, 75538, Note_off_c, 0, 61, 103
1, 75559, Note_on_c, 0, 62, 108
1, 75819, Note_off_c, 0, 62, 108
1, 75824, Note_on_c, 0, 64, 116
1, 75963, Note_off_c, 0, 64, 116
1, 75964, Note_on_c, 0, 66, 103
1, 76121, Note_off_c, 0, 66, 103
1, 76134, Note_on_c, 0, 69, 110
1, 76334, Note_off_c, 0, 69, 110
1, 76366, Note_on_c, 0, 72, 108
1, 76502, Note_off_c, 0, 72, 108
1, 76518, Note_on_c, 0, 73, 78
1, 78055, Note_off_c, 0, 73, 78
1, 79449, Note_on_c, 0, 69, 114
1, 79640, Note_off_c, 0, 69, 114
1, 79683, Note_on_c, 0, 72, 112
1, 79799, Note_off_c, 0, 72, 112
1, 79817, Note_on_c, 0, 73, 105
1, 80009, Note_off_c, 0, 73, 105
1, 80027, Note_on_c, 0, 72, 84
1, 80195, Note_off_c, 0, 72, 84
1, 80320, Note_on_c, 0, 72, 111
1, 80494, Note_off_c, 0, 72, 111
1, 80506, Note_on_c, 0, 73, 102
1, 80710, Note_off_c, 0, 73, 102
1, 80710, Note_on_c, 0, 72, 99
1, 80786, Note_off_c, 0, 72, 99
1, 80796, Note_on_c, 0, 69, 113
1, 81074, Note_off_c, 0, 69, 113
1, 81205, Note_on_c, 0, 69, 105
1, 81535, Note_off_c, 0, 69, 105
1, 81562, Note_on_c, 0, 68, 91
1, 81646, Note_off_c, 0, 68, 91
1, 81811, Note_on_c, 0, 69, 104
1, 82133, Note_off_c, 0, 69, 104
1, 82276, Note_on_c, 0, 68, 95
1, 82354, Note_off_c, 0, 68, 95
1, 82369, Note_on_c, 0, 69, 107
1, 82644, Note_off_c, 0, 69, 107
1, 82674, Note_on_c, 0, 68, 95
1, 82765, Note_off_c, 0, 68, 95
1, 82777, Note_on_c, 0, 69, 100
1, 83159, Note_off_c, 0, 69, 100
1, 83244, Note_on_c, 0, 67, 92
1, 83505, Note_off_c, 0, 67, 92
1, 83733, Note_on_c, 0, 67, 91
1, 84115, Note_off_c, 0, 67, 91
1, 84382, Note_on_c, 0, 67, 88
1, 84706, Note_off_c, 0, 67, 88
1, 84868, Note_on_c, 0, 65, 81
1, 85479, Note_off_c, 0, 65, 81
1, 86442, Note_on_c, 0, 64, 118
1, 86685, Note_off_c, 0, 64, 118
1, 86702, Note_on_c, 0, 62, 108
1, 86919, Note_off_c, 0, 62, 108
1, 86932, Note_on_c, 0, 60, 106
1, 87182, Note_off_c, 0, 60, 106
1, 87226, Note_on_c, 0, 59, 103
1, 87528, Note_off_c, 0, 59, 103
1, 87571, Note_on_c, 0, 64, 9
1, 88457, Note_off_c, 0, 64, 9
1, 90255, Note_on_c, 0, 65, 109
1, 90472, Note_off_c, 0, 65, 109
1, 90498, Note_on_c, 0, 64, 109
1, 90680, Note_off_c, 0, 64, 109
1, 90691, Note_on_c, 0, 63, 106
1, 90855, Note_off_c, 0, 63, 106
1, 90957, Note_on_c, 0, 65, 103
1, 91148, Note_off_c, 0, 65, 103
1, 91149, Note_on_c, 0, 66, 101
1, 91328, Note_off_c, 0, 66, 101
1, 91374, Note_on_c, 0, 70, 103
1, 91505, Note_off_c, 0, 70, 103
1, 91532, Note_on_c, 0, 69, 94
1, 91596, Note_off_c, 0, 69, 94
1, 91666, Note_on_c, 0, 65, 99
1, 91892, Note_off_c, 0, 65, 99
1, 91928, Note_on_c, 0, 61, 96
1, 92187, Note_off_c, 0, 61, 96
1, 92325, Note_on_c, 0, 68, 103
1, 92498, Note_off_c, 0, 68, 103
1, 92498, Note_on_c, 0, 65, 98
1, 92819, Note_off_c, 0, 65, 98
1, 92992, Note_on_c, 0, 63, 95
1, 93148, Note_off_c, 0, 63, 95
1, 93232, Note_on_c, 0, 66, 92
1, 93762, Note_off_c, 0, 66, 92
1, 93764, Note_on_c, 0, 65, 96
1, 94033, Note_off_c, 0, 65, 96
1, 94035, Note_on_c, 0, 63, 94
1, 94239, Note_on_c, 0, 62, 96
1, 94239, Note_off_c, 0, 63, 94
1, 94430, Note_off_c, 0, 62, 96
1, 94446, Note_on_c, 0, 60, 98
1, 94672, Note_off_c, 0, 60, 98
1, 94685, Note_on_c, 0, 59, 102
1, 94854, Note_off_c, 0, 59, 102
1, 94931, Note_on_c, 0, 56, 92
1, 95187, Note_off_c, 0, 56, 92
1, 95216, Note_on_c, 0, 55, 78
1, 95289, Note_off_c, 0, 55, 78
1, 95353, Note_on_c, 0, 54, 90
1, 95432, Note_off_c, 0, 54, 90
1, 95529, Note_on_c, 0, 52, 88
1, 95908, Note_off_c, 0, 52, 88
1, 96276, Note_on_c, 0, 55, 86
1, 96410, Note_off_c, 0, 55, 86
1, 96461, Note_on_c, 0, 59, 104
1, 96800, Note_off_c, 0, 59, 104
1, 97248, Note_on_c, 0, 57, 106
1, 97578, Note_off_c, 0, 57, 106
1, 97600, Note_on_c, 0, 52, 87
1, 97869, Note_off_c, 0, 52, 87
1, 98183, Note_on_c, 0, 55, 98
1, 98461, Note_off_c, 0, 55, 98
1, 98530, Note_on_c, 0, 53, 87
1, 98938, Note_off_c, 0, 53, 87
1, 100338, Note_on_c, 0, 57, 92
1, 100454, Note_off_c, 0, 57, 92
1, 100463, Note_on_c, 0, 60, 109
1, 100610, Note_off_c, 0, 60, 109
1, 100643, Note_on_c, 0, 57, 109
1, 100895, Note_off_c, 0, 57, 109
1, 100929, Note_on_c, 0, 58, 106
1, 101137, Note_off_c, 0, 58, 106
1, 101137, Note_on_c, 0, 59, 103
1, 101389, Note_off_c, 0, 59, 103
1, 101397, Note_on_c, 0, 61, 97
1, 101562, Note_off_c, 0, 61, 97
1, 101588, Note_on_c, 0, 62, 103
1, 101727, Note_off_c, 0, 62, 103
1, 101727, Note_on_c, 0, 64, 98
1, 101794, Note_off_c, 0, 64, 98
1, 101812, Note_on_c, 0, 66, 103
1, 101907, Note_on_c, 0, 69, 109
1, 101907, Note_off_c, 0, 66, 103
1, 102061, Note_off_c, 0, 69, 109
1, 102061, Note_on_c, 0, 73, 100
1, 102180, Note_off_c, 0, 73, 100
1, 102213, Note_on_c, 0, 74, 90
1, 102365, Note_off_c, 0, 74, 90
1, 102380, Note_on_c, 0, 73, 94
1, 102505, Note_off_c, 0, 73, 94
1, 102530, Note_on_c, 0, 71, 104
1, 102703, Note_on_c, 0, 69, 111
1, 102703, Note_off_c, 0, 71, 104
1, 102885, Note_off_c, 0, 69, 111
1, 102885, Note_on_c, 0, 68, 104
1, 103126, Note_off_c, 0, 68, 104
1, 103126, Note_on_c, 0, 66, 101
1, 103317, Note_off_c, 0, 66, 101
1, 103341, Note_on_c, 0, 65, 95
1, 103530, Note_off_c, 0, 65, 95
1, 103540, Note_on_c, 0, 64, 106
1, 103707, Note_off_c, 0, 64, 106
1, 103736, Note_on_c, 0, 63, 96
1, 103892, Note_off_c, 0, 63, 96
1, 103927, Note_on_c, 0, 68, 105
1, 104118, Note_off_c, 0, 68, 105
1, 104148, Note_on_c, 0, 67, 95
1, 104408, Note_off_c, 0, 67, 95
1, 104409, Note_on_c, 0, 62, 90
1, 104522, Note_off_c, 0, 62, 90
1, 104522, Note_on_c, 0, 64, 101
1, 104748, Note_off_c, 0, 64, 101
1, 104769, Note_on_c, 0, 67, 99
1, 104960, Note_off_c, 0, 67, 99
1, 105095, Note_on_c, 0, 64, 87
1, 105183, Note_off_c, 0, 64, 87
1, 105244, Note_on_c, 0, 60, 98
1, 105363, Note_off_c, 0, 60, 98
1, 105387, Note_on_c, 0, 59, 101
1, 105622, Note_off_c, 0, 59, 101
1, 105727, Note_on_c, 0, 57, 101
1, 105999, Note_off_c, 0, 57, 101
1, 106028, Note_on_c, 0, 58, 101
1, 106213, Note_off_c, 0, 58, 101
1, 106240, Note_on_c, 0, 59, 87
1, 106394, Note_off_c, 0, 59, 87
1, 106496, Note_on_c, 0, 63, 90
1, 106617, Note_off_c, 0, 63, 90
1, 106877, Note_on_c, 0, 67, 84
1, 106965, Note_off_c, 0, 67, 84
1, 106982, Note_on_c, 0, 70, 103
1, 107329, Note_off_c, 0, 70, 103
1, 107632, Note_on_c, 0, 68, 101
1, 107884, Note_off_c, 0, 68, 101
1, 107970, Note_on_c, 0, 65, 96
1, 108073, Note_off_c, 0, 65, 96
1, 108089, Note_on_c, 0, 62, 88
1, 108232, Note_off_c, 0, 62, 88
1, 108369, Note_on_c, 0, 59, 96
1, 108570, Note_off_c, 0, 59, 96
1, 108609, Note_on_c, 0, 55, 93
1, 108841, Note_off_c, 0, 55, 93
1, 109005, Note_on_c, 0, 59, 98
1, 109187, Note_off_c, 0, 59, 98
1, 109225, Note_on_c, 0, 55, 91
1, 109882, Note_off_c, 0, 55, 91
1, 110034, Note_on_c, 0, 53, 84
1, 110263, Note_off_c, 0, 53, 84
1, 110299, Note_on_c, 0, 52, 82
1, 110571, Note_off_c, 0, 52, 82
1, 112139, Note_on_c, 0, 53, 102
1, 112264, Note_off_c, 0, 53, 102
1, 112283, Note_on_c, 0, 52, 97
1, 112414, Note_off_c, 0, 52, 97
1, 112448, Note_on_c, 0, 50, 95
1, 112994, Note_off_c, 0, 50, 95
1, 112994, Note_on_c, 0, 52, 95
1, 113131, Note_off_c, 0, 52, 95
1, 113140, Note_on_c, 0, 53, 95
1, 113250, Note_off_c, 0, 53, 95
1, 113290, Note_on_c, 0, 55, 101
1, 113437, Note_off_c, 0, 55, 101
1, 113437, Note_on_c, 0, 56, 105
1, 113593, Note_off_c, 0, 56, 105
1, 113593, Note_on_c, 0, 58, 103
1, 114384, Note_off_c, 0, 58, 103
1, 114409, Note_on_c, 0, 56, 103
1, 114561, Note_off_c, 0, 56, 103
1, 114594, Note_on_c, 0, 55, 92
1, 114759, Note_off_c, 0, 55, 92
1, 114792, Note_on_c, 0, 53, 91
1, 114963, Note_off_c, 0, 53, 91
1, 114993, Note_on_c, 0, 52, 90
1, 115283, Note_off_c, 0, 52, 90
1, 115631, Note_on_c, 0, 59, 91
1, 115814, Note_off_c, 0, 59, 91
1, 115824, Note_on_c, 0, 62, 103
1, 116119, Note_off_c, 0, 62, 103
1, 116158, Note_on_c, 0, 59, 84
1, 116281, Note_off_c, 0, 59, 84
1, 116281, Note_on_c, 0, 60, 102
1, 116498, Note_off_c, 0, 60, 102
1, 116514, Note_on_c, 0, 62, 96
1, 116721, Note_off_c, 0, 62, 96
1, 116721, Note_on_c, 0, 65, 101
1, 116973, Note_off_c, 0, 65, 101
1, 116979, Note_on_c, 0, 64, 105
1, 117196, Note_off_c, 0, 64, 105
1, 117202, Note_on_c, 0, 63, 104
1, 117358, Note_off_c, 0, 63, 104
1, 117372, Note_on_c, 0, 60, 97
1, 117589, Note_off_c, 0, 60, 97
1, 117603, Note_on_c, 0, 58, 103
1, 117811, Note_off_c, 0, 58, 103
1, 117899, Note_on_c, 0, 55, 92
1, 118007, Note_off_c, 0, 55, 92
1, 118017, Note_on_c, 0, 56, 91
1, 118275, Note_off_c, 0, 56, 91
1, 118331, Note_on_c, 0, 56, 104
1, 118490, Note_off_c, 0, 56, 104
1, 118511, Note_on_c, 0, 55, 97
1, 118606, Note_off_c, 0, 55, 97
1, 118628, Note_on_c, 0, 54, 93
1, 118768, Note_off_c, 0, 54, 93
1, 118800, Note_on_c, 0, 55, 95
1, 119014, Note_off_c, 0, 55, 95
1, 120153, Note_on_c, 0, 53, 98
1, 120413, Note_off_c, 0, 53, 98
1, 120413, Note_on_c, 0, 52, 93
1, 120925, Note_off_c, 0, 52, 93
1, 120925, Note_on_c, 0, 55, 94
1, 121499, Note_off_c, 0, 55, 94
1, 121601, Note_on_c, 0, 52, 94
1, 121738, Note_off_c, 0, 52, 94
1, 121746, Note_on_c, 0, 50, 95
1, 122059, Note_off_c, 0, 50, 95
1, 122072, Note_on_c, 0, 48, 93
1, 122350, Note_off_c, 0, 48, 93
1, 125505, Note_on_c, 0, 74, 109
1, 125705, Note_off_c, 0, 74, 109
1, 125705, Note_on_c, 0, 72, 114
1, 125818, Note_off_c, 0, 72, 114
1, 125839, Note_on_c, 0, 71, 120
1, 126108, Note_off_c, 0, 71, 120
1, 126131, Note_on_c, 0, 72, 108
1, 126287, Note_off_c, 0, 72, 108
1, 126308, Note_on_c, 0, 71, 114
1, 126451, Note_off_c, 0, 71, 114
1, 126472, Note_on_c, 0, 70, 108
1, 126600, Note_off_c, 0, 70, 108
1, 126610, Note_on_c, 0, 69, 117
1, 126865, Note_off_c, 0, 69, 117
1, 127038, Note_on_c, 0, 71, 109
1, 127211, Note_off_c, 0, 71, 109
1, 127223, Note_on_c, 0, 69, 113
1, 127338, Note_off_c, 0, 69, 113
1, 127357, Note_on_c, 0, 68, 110
1, 127448, Note_off_c, 0, 68, 110
1, 127453, Note_on_c, 0, 67, 105
1, 127652, Note_off_c, 0, 67, 105
1, 127854, Note_on_c, 0, 69, 116
1, 128114, Note_off_c, 0, 69, 116
1, 129517, Note_on_c, 0, 68, 113
1, 129684, Note_off_c, 0, 68, 113
1, 129703, Note_on_c, 0, 67, 104
1, 129772, Note_off_c, 0, 67, 104
1, 129806, Note_on_c, 0, 66, 104
1, 129916, Note_off_c, 0, 66, 104
1, 129933, Note_on_c, 0, 65, 103
1, 130078, Note_off_c, 0, 65, 103
1, 130091, Note_on_c, 0, 66, 83
1, 130223, Note_off_c, 0, 66, 83
1, 130366, Note_on_c, 0, 67, 105
1, 130605, Note_off_c, 0, 67, 105
1, 130633, Note_on_c, 0, 65, 98
1, 130676, Note_off_c, 0, 65, 98
1, 130689, Note_on_c, 0, 64, 101
1, 130758, Note_off_c, 0, 64, 101
1, 130775, Note_on_c, 0, 63, 96
1, 130983, Note_off_c, 0, 63, 96
1, 131050, Note_on_c, 0, 66, 89
1, 131462, Note_off_c, 0, 66, 89
1, 132068, Note_on_c, 0, 65, 104
1, 132215, Note_off_c, 0, 65, 104
1, 132246, Note_on_c, 0, 64, 76
1, 132498, Note_off_c, 0, 64, 76
1, 132944, Note_on_c, 0, 64, 111
1, 133283, Note_off_c, 0, 64, 111
1, 134565, Note_on_c, 0, 63, 103
1, 134895, Note_off_c, 0, 63, 103
1, 135001, Note_on_c, 0, 59, 94
1, 135270, Note_off_c, 0, 59, 94
1, 135332, Note_on_c, 0, 62, 99
1, 135723, Note_off_c, 0, 62, 99
1, 136345, Note_on_c, 0, 62, 102
1, 136597, Note_off_c, 0, 62, 102
1, 136625, Note_on_c, 0, 59, 96
1, 136979, Note_off_c, 0, 59, 96
1, 139131, Note_on_c, 0, 59, 101
1, 139338, Note_off_c, 0, 59, 101
1, 139382, Note_on_c, 0, 55, 99
1, 139502, Note_off_c, 0, 55, 99
1, 139516, Note_on_c, 0, 57, 111
1, 139805, Note_off_c, 0, 57, 111
1, 139847, Note_on_c, 0, 53, 95
1, 140036, Note_off_c, 0, 53, 95
1, 140049, Note_on_c, 0, 52, 86
1, 140251, Note_off_c, 0, 52, 86
1, 140506, Note_on_c, 0, 55, 104
1, 140740, Note_off_c, 0, 55, 104
1, 140792, Note_on_c, 0, 54, 97
1, 141026, Note_off_c, 0, 54, 97
1, 141026, Note_on_c, 0, 53, 90
1, 141226, Note_off_c, 0, 53, 90
1, 141272, Note_on_c, 0, 52, 90
1, 141487, Note_off_c, 0, 52, 90
1, 141534, Note_on_c, 0, 53, 94
1, 141705, Note_off_c, 0, 53, 94
1, 141739, Note_on_c, 0, 55, 88
1, 141879, Note_off_c, 0, 55, 88
1, 141944, Note_on_c, 0, 58, 100
1, 142030, Note_off_c, 0, 58, 100
1, 142036, Note_on_c, 0, 62, 100
1, 142198, Note_off_c, 0, 62, 100
1, 142198, Note_on_c, 0, 65, 107
1, 142432, Note_off_c, 0, 65, 107
1, 142447, Note_on_c, 0, 64, 107
1, 142638, Note_off_c, 0, 64, 107
1, 142643, Note_on_c, 0, 63, 105
1, 142816, Note_off_c, 0, 63, 105
1, 142837, Note_on_c, 0, 62, 108
1, 143010, Note_off_c, 0, 62, 108
1, 143059, Note_on_c, 0, 61, 98
1, 143279, Note_on_c, 0, 59, 103
1, 143279, Note_off_c, 0, 61, 98
1, 143422, Note_off_c, 0, 59, 103
1, 143440, Note_on_c, 0, 58, 103
1, 143688, Note_off_c, 0, 58, 103
1, 143688, Note_on_c, 0, 56, 103
1, 143820, Note_off_c, 0, 56, 103
1, 143856, Note_on_c, 0, 55, 100
1, 144064, Note_off_c, 0, 55, 100
1, 144079, Note_on_c, 0, 58, 106
1, 144244, Note_off_c, 0, 58, 106
1, 144294, Note_on_c, 0, 54, 96
1, 144509, Note_off_c, 0, 54, 96
1, 144750, Note_on_c, 0, 53, 93
1, 144958, Note_off_c, 0, 53, 93
1, 145080, Note_on_c, 0, 50, 86
1, 145268, Note_off_c, 0, 50, 86
1, 146933, Note_on_c, 0, 57, 109
1, 147067, Note_off_c, 0, 57, 109
1, 147067, Note_on_c, 0, 55, 102
1, 147169, Note_off_c, 0, 55, 102
1, 147186, Note_on_c, 0, 54, 94
1, 147262, Note_off_c, 0, 54, 94
1, 147279, Note_on_c, 0, 52, 91
1, 147411, Note_off_c, 0, 52, 91
1, 147443, Note_on_c, 0, 55, 97
1, 147543, Note_off_c, 0, 55, 97
1, 147562, Note_on_c, 0, 58, 102
1, 147646, Note_off_c, 0, 58, 102
1, 147659, Note_on_c, 0, 62, 110
1, 147815, Note_off_c, 0, 62, 110
1, 147880, Note_on_c, 0, 59, 104
1, 148025, Note_off_c, 0, 59, 104
1, 148038, Note_on_c, 0, 57, 107
1, 148183, Note_off_c, 0, 57, 107
1, 148209, Note_on_c, 0, 56, 98
1, 148313, Note_off_c, 0, 56, 98
1, 148356, Note_on_c, 0, 58, 102
1, 148477, Note_off_c, 0, 58, 102
1, 148479, Note_on_c, 0, 60, 110
1, 148609, Note_off_c, 0, 60, 110
1, 148734, Note_on_c, 0, 59, 92
1, 148868, Note_off_c, 0, 59, 92
1, 148966, Note_on_c, 0, 60, 101
1, 149042, Note_off_c, 0, 60, 101
1, 149042, Note_on_c, 0, 62, 98
1, 149089, Note_on_c, 0, 64, 109
1, 149089, Note_off_c, 0, 62, 98
1, 149212, Note_off_c, 0, 64, 109
1, 149214, Note_on_c, 0, 62, 101
1, 149259, Note_off_c, 0, 62, 101
1, 149263, Note_on_c, 0, 60, 100
1, 149339, Note_off_c, 0, 60, 100
1, 149382, Note_on_c, 0, 59, 98
1, 149545, Note_off_c, 0, 59, 98
1, 149558, Note_on_c, 0, 60, 93
1, 149684, Note_off_c, 0, 60, 93
1, 149688, Note_on_c, 0, 65, 101
1, 149782, Note_off_c, 0, 65, 101
1, 149786, Note_on_c, 0, 69, 113
1, 149925, Note_off_c, 0, 69, 113
1, 149951, Note_on_c, 0, 67, 104
1, 150057, Note_off_c, 0, 67, 104
1, 150072, Note_on_c, 0, 65, 96
1, 150137, Note_off_c, 0, 65, 96
1, 150165, Note_on_c, 0, 64, 99
1, 150360, Note_off_c, 0, 64, 99
1, 150413, Note_on_c, 0, 70, 87
1, 150498, Note_off_c, 0, 70, 87
1, 150521, Note_on_c, 0, 74, 105
1, 150660, Note_off_c, 0, 74, 105
1, 150669, Note_on_c, 0, 72, 114
1, 150955, Note_off_c, 0, 72, 114
1, 150980, Note_on_c, 0, 69, 110
1, 151371, Note_off_c, 0, 69, 110
1, 152862, Note_on_c, 0, 67, 87
1, 152920, Note_off_c, 0, 67, 87
1, 152935, Note_on_c, 0, 69, 120
1, 153164, Note_off_c, 0, 69, 120
1, 153164, Note_on_c, 0, 67, 116
1, 153424, Note_off_c, 0, 67, 116
1, 153444, Note_on_c, 0, 66, 115
1, 153594, Note_off_c, 0, 66, 115
1, 153611, Note_on_c, 0, 65, 113
1, 153819, Note_off_c, 0, 65, 113
1, 153838, Note_on_c, 0, 64, 121
1, 154090, Note_off_c, 0, 64, 121
1, 154094, Note_on_c, 0, 62, 117
1, 154459, Note_off_c, 0, 62, 117
1, 154459, Note_on_c, 0, 60, 108
1, 154695, Note_off_c, 0, 60, 108
1, 154718, Note_on_c, 0, 59, 103
1, 154981, Note_off_c, 0, 59, 103
1, 155031, Note_on_c, 0, 57, 110
1, 155183, Note_off_c, 0, 57, 110
1, 155225, Note_on_c, 0, 55, 98
1, 155445, Note_off_c, 0, 55, 98
1, 155484, Note_on_c, 0, 54, 92
1, 155731, Note_off_c, 0, 54, 92
1, 155761, Note_on_c, 0, 53, 89
1, 156155, Note_off_c, 0, 53, 89
1, 157105, Note_on_c, 0, 51, 89
1, 157279, Note_off_c, 0, 51, 89
1, 157330, Note_on_c, 0, 52, 88
1, 157504, Note_off_c, 0, 52, 88
1, 157513, Note_on_c, 0, 55, 100
1, 157717, Note_off_c, 0, 55, 100
1, 157747, Note_on_c, 0, 58, 106
1, 157967, Note_off_c, 0, 58, 106
1, 157997, Note_on_c, 0, 59, 103
1, 158162, Note_off_c, 0, 59, 103
1, 158198, Note_on_c, 0, 61, 103
1, 158389, Note_off_c, 0, 61, 103
1, 158424, Note_on_c, 0, 63, 107
1, 158572, Note_off_c, 0, 63, 107
1, 158572, Note_on_c, 0, 65, 107
1, 158798, Note_off_c, 0, 65, 107
1, 158824, Note_on_c, 0, 64, 116
1, 159005, Note_off_c, 0, 64, 116
1, 159005, Note_on_c, 0, 63, 107
1, 159196, Note_off_c, 0, 63, 107
1, 159204, Note_on_c, 0, 65, 105
1, 159438, Note_off_c, 0, 65, 105
1, 159561, Note_on_c, 0, 68, 108
1, 159769, Note_off_c, 0, 68, 108
1, 159810, Note_on_c, 0, 69, 111
1, 160053, Note_off_c, 0, 69, 111
1, 160066, Note_on_c, 0, 71, 91
1, 160179, Note_off_c, 0, 71, 91
1, 160220, Note_on_c, 0, 75, 100
1, 160400, Note_off_c, 0, 75, 100
1, 160439, Note_on_c, 0, 76, 100
1, 160662, Note_off_c, 0, 76, 100
1, 160703, Note_on_c, 0, 73, 99
1, 160989, Note_off_c, 0, 73, 99
1, 161041, Note_on_c, 0, 69, 109
1, 161354, Note_off_c, 0, 69, 109
1, 161497, Note_on_c, 0, 70, 102
1, 161749, Note_off_c, 0, 70, 102
1, 161778, Note_on_c, 0, 68, 108
1, 162082, Note_off_c, 0, 68, 108
1, 162433, Note_on_c, 0, 63, 85
1, 162530, Note_off_c, 0, 63, 85
1, 162581, Note_on_c, 0, 67, 103
1, 163381, Note_off_c, 0, 67, 103
1, 163401, Note_on_c, 0, 65, 99
1, 163635, Note_off_c, 0, 65, 99
1, 163667, Note_on_c, 0, 67, 98
1, 163745, Note_off_c, 0, 67, 98
1, 163771, Note_on_c, 0, 65, 100
1, 163842, Note_off_c, 0, 65, 100
1, 163874, Note_on_c, 0, 64, 106
1, 164021, Note_off_c, 0, 64, 106
1, 164031, Note_on_c, 0, 65, 97
1, 164111, Note_off_c, 0, 65, 97
1, 164126, Note_on_c, 0, 64, 103
1, 164288, Note_off_c, 0, 64, 103
1, 164288, Note_on_c, 0, 62, 100
1, 164427, Note_off_c, 0, 62, 100
1, 164442, Note_on_c, 0, 64, 81
1, 164507, Note_off_c, 0, 64, 81
1, 164520, Note_on_c, 0, 62, 85
1, 164680, Note_off_c, 0, 62, 85
1, 164701, Note_on_c, 0, 60, 100
1, 164887, Note_off_c, 0, 60, 100
1, 164889, Note_on_c, 0, 62, 86
1, 164973, Note_off_c, 0, 62, 86
1, 164988, Note_on_c, 0, 60, 90
1, 165157, Note_off_c, 0, 60, 90
1, 165633, Note_on_c, 0, 62, 110
1, 165919, Note_off_c, 0, 62, 110
1, 166851, Note_on_c, 0, 60, 109
1, 167016, Note_off_c, 0, 60, 109
1, 167029, Note_on_c, 0, 62, 95
1, 167085, Note_off_c, 0, 62, 95
1, 167104, Note_on_c, 0, 60, 96
1, 167247, Note_off_c, 0, 60, 96
1, 167299, Note_on_c, 0, 59, 94
1, 167862, Note_off_c, 0, 59, 94
1, 167922, Note_on_c, 0, 57, 108
1, 168165, Note_off_c, 0, 57, 108
1, 168175, Note_on_c, 0, 55, 100
1, 168505, Note_off_c, 0, 55, 100
1, 168549, Note_on_c, 0, 55, 93
1, 168748, Note_off_c, 0, 55, 93
1, 168748, Note_on_c, 0, 64, 108
1, 169061, Note_off_c, 0, 64, 108
1, 169095, Note_on_c, 0, 60, 102
1, 169364, Note_off_c, 0, 60, 102
1, 169533, Note_on_c, 0, 60, 95
1, 170197, Note_off_c, 0, 60, 95
1, 170911, Note_on_c, 0, 65, 119
1, 171154, Note_off_c, 0, 65, 119
1, 171181, Note_on_c, 0, 64, 123
1, 171363, Note_off_c, 0, 64, 123
1, 171363, Note_on_c, 0, 63, 113
1, 171571, Note_off_c, 0, 63, 113
1, 171571, Note_on_c, 0, 65, 111
1, 171753, Note_off_c, 0, 65, 111
1, 171796, Note_on_c, 0, 66, 105
1, 172012, Note_off_c, 0, 66, 105
1, 172012, Note_on_c, 0, 70, 102
1, 172240, Note_off_c, 0, 70, 102
1, 172265, Note_on_c, 0, 68, 112
1, 172482, Note_off_c, 0, 68, 112
1, 172516, Note_on_c, 0, 67, 109
1, 172693, Note_off_c, 0, 67, 109
1, 172693, Note_on_c, 0, 66, 100
1, 172875, Note_off_c, 0, 66, 100
1, 172916, Note_on_c, 0, 68, 115
1, 173142, Note_off_c, 0, 68, 115
1, 173148, Note_on_c, 0, 65, 104
1, 173382, Note_off_c, 0, 65, 104
1, 173700, Note_on_c, 0, 64, 116
1, 173891, Note_off_c, 0, 64, 116
1, 173908, Note_on_c, 0, 63, 108
1, 174116, Note_off_c, 0, 63, 108
1, 174119, Note_on_c, 0, 66, 103
1, 174253, Note_off_c, 0, 66, 103
1, 174261, Note_on_c, 0, 65, 103
1, 174421, Note_off_c, 0, 65, 103
1, 174442, Note_on_c, 0, 64, 95
1, 174563, Note_off_c, 0, 64, 95
1, 174563, Note_on_c, 0, 61, 107
1, 174780, Note_off_c, 0, 61, 107
1, 174799, Note_on_c, 0, 59, 106
1, 174966, Note_off_c, 0, 59, 106
1, 175115, Note_on_c, 0, 54, 90
1, 175212, Note_off_c, 0, 54, 90
1, 175228, Note_on_c, 0, 55, 93
1, 175371, Note_off_c, 0, 55, 93
1, 175479, Note_on_c, 0, 59, 106
1, 175644, Note_off_c, 0, 59, 106
1, 175650, Note_on_c, 0, 62, 106
1, 175850, Note_off_c, 0, 62, 106
1, 175865, Note_on_c, 0, 61, 92
1, 176082, Note_off_c, 0, 61, 92
1, 176101, Note_on_c, 0, 56, 102
1, 176302, Note_off_c, 0, 56, 102
1, 176302, Note_on_c, 0, 55, 99
1, 176460, Note_off_c, 0, 55, 99
1, 176487, Note_on_c, 0, 54, 89
1, 176697, Note_off_c, 0, 54, 89
1, 176776, Note_on_c, 0, 58, 97
1, 176910, Note_off_c, 0, 58, 97
1, 176955, Note_on_c, 0, 53, 94
1, 177205, Note_off_c, 0, 53, 94
1, 177529, Note_on_c, 0, 52, 9
1, 177859, Note_off_c, 0, 52, 9
1, 177914, Note_on_c, 0, 57, 75
1, 178799, Note_off_c, 0, 57, 75
1, 179842, Note_on_c, 0, 49, 99
1, 180042, Note_off_c, 0, 49, 99
1, 180076, Note_on_c, 0, 52, 93
1, 180276, Note_off_c, 0, 52, 93
1, 180323, Note_on_c, 0, 47, 98
1, 180592, Note_off_c, 0, 47, 98
1, 180618, Note_on_c, 0, 45, 96
1, 181448, Note_off_c, 0, 45, 96
1, 183305, Note_on_c, 0, 47, 89
1, 183484, Note_off_c, 0, 47, 89
1, 183504, Note_on_c, 0, 49, 87
1, 183589, Note_off_c, 0, 49, 87
1, 183637, Note_on_c, 0, 54, 101
1, 183811, Note_off_c, 0, 54, 101
1, 183917, Note_on_c, 0, 49, 89
1, 184127, Note_off_c, 0, 49, 89
1, 184139, Note_on_c, 0, 50, 93
1, 184233, Note_off_c, 0, 50, 93
1, 184269, Note_on_c, 0, 52, 91
1, 184339, Note_off_c, 0, 52, 91
1, 184378, Note_on_c, 0, 53, 84
1, 184549, Note_off_c, 0, 53, 84
1, 184597, Note_on_c, 0, 56, 95
1, 184719, Note_off_c, 0, 56, 95
1, 184719, Note_on_c, 0, 54, 94
1, 184868, Note_off_c, 0, 54, 94
1, 184881, Note_on_c, 0, 56, 100
1, 184951, Note_off_c, 0, 56, 100
1, 185007, Note_on_c, 0, 61, 96
1, 185225, Note_off_c, 0, 61, 96
1, 185669, Note_on_c, 0, 61, 92
1, 185874, Note_off_c, 0, 61, 92
1, 185874, Note_on_c, 0, 64, 115
1, 186143, Note_off_c, 0, 64, 115
1, 186147, Note_on_c, 0, 61, 92
1, 186260, Note_off_c, 0, 61, 92
1, 186268, Note_on_c, 0, 62, 96
1, 186489, Note_off_c, 0, 62, 96
1, 186489, Note_on_c, 0, 64, 87
1, 186623, Note_off_c, 0, 64, 87
1, 186623, Note_on_c, 0, 65, 105
1, 186771, Note_off_c, 0, 65, 105
1, 186771, Note_on_c, 0, 66, 106
1, 187657, Note_off_c, 0, 66, 106
1, 187669, Note_on_c, 0, 65, 108
1, 187855, Note_off_c, 0, 65, 108
1, 187900, Note_on_c, 0, 64, 105
1, 188177, Note_off_c, 0, 64, 105
1, 188177, Note_on_c, 0, 63, 103
1, 188333, Note_off_c, 0, 63, 103
1, 188333, Note_on_c, 0, 62, 102
1, 188611, Note_off_c, 0, 62, 102
1, 188611, Note_on_c, 0, 60, 101
1, 188750, Note_off_c, 0, 60, 101
1, 188750, Note_on_c, 0, 61, 88
1, 188941, Note_off_c, 0, 61, 88
1, 189010, Note_on_c, 0, 64, 109
1, 189305, Note_off_c, 0, 64, 109
1, 189372, Note_on_c, 0, 61, 82
1, 189463, Note_off_c, 0, 61, 82
1, 189499, Note_on_c, 0, 62, 95
1, 189777, Note_off_c, 0, 62, 95
1, 189795, Note_on_c, 0, 64, 108
1, 189942, Note_off_c, 0, 64, 108
1, 189975, Note_on_c, 0, 65, 98
1, 190217, Note_off_c, 0, 65, 98
1, 190217, Note_on_c, 0, 67, 100
1, 190347, Note_off_c, 0, 67, 100
1, 190347, Note_on_c, 0, 69, 109
1, 190550, Note_off_c, 0, 69, 109
1, 190550, Note_on_c, 0, 72, 97
1, 190644, Note_off_c, 0, 72, 97
1, 190647, Note_on_c, 0, 74, 95
1, 190741, Note_off_c, 0, 74, 95
1, 190747, Note_on_c, 0, 75, 90
1, 190921, Note_off_c, 0, 75, 90
1, 190963, Note_on_c, 0, 76, 100
1, 191852, Note_off_c, 0, 76, 100
1, 191852, Note_on_c, 0, 74, 92
1, 192017, Note_off_c, 0, 74, 92
1, 192036, Note_on_c, 0, 72, 106
1, 192149, Note_off_c, 0, 72, 106
1, 192168, Note_on_c, 0, 71, 98
1, 192437, Note_off_c, 0, 71, 98
1, 192437, Note_on_c, 0, 74, 103
1, 192706, Note_off_c, 0, 74, 103
1, 192706, Note_on_c, 0, 72, 101
1, 192879, Note_on_c, 0, 71, 95
1, 192879, Note_off_c, 0, 72, 101
1, 193096, Note_off_c, 0, 71, 95
1, 193097, Note_on_c, 0, 72, 107
1, 193417, Note_off_c, 0, 72, 107
1, 193417, Note_on_c, 0, 69, 99
1, 193825, Note_off_c, 0, 69, 99
1, 194647, Note_on_c, 0, 71, 108
1, 194812, Note_off_c, 0, 71, 108
1, 194814, Note_on_c, 0, 69, 115
1, 194878, Note_off_c, 0, 69, 115
1, 194915, Note_on_c, 0, 68, 115
1, 194997, Note_off_c, 0, 68, 115
1, 195003, Note_on_c, 0, 67, 108
1, 195253, Note_off_c, 0, 67, 108
1, 195372, Note_on_c, 0, 69, 117
1, 195572, Note_off_c, 0, 69, 117
1, 195614, Note_on_c, 0, 68, 107
1, 195799, Note_off_c, 0, 68, 107
1, 195799, Note_on_c, 0, 64, 105
1, 196077, Note_off_c, 0, 64, 105
1, 196161, Note_on_c, 0, 67, 109
1, 196516, Note_off_c, 0, 67, 109
1, 196713, Note_on_c, 0, 67, 104
1, 197036, Note_off_c, 0, 67, 104
1, 197172, Note_on_c, 0, 67, 104
1, 197545, Note_off_c, 0, 67, 104
1, 197583, Note_on_c, 0, 67, 103
1, 197869, Note_off_c, 0, 67, 103
1, 198034, Note_on_c, 0, 68, 104
1, 198546, Note_off_c, 0, 68, 104
1, 198546, Note_on_c, 0, 69, 105
1, 199024, Note_off_c, 0, 69, 105
1, 200020, Note_on_c, 0, 63, 109
1, 200114, Note_off_c, 0, 63, 109
1, 200132, Note_on_c, 0, 64, 111
1, 200336, Note_off_c, 0, 64, 111
1, 200348, Note_on_c, 0, 67, 105
1, 200652, Note_off_c, 0, 67, 105
1, 200754, Note_on_c, 0, 64, 114
1, 200980, Note_off_c, 0, 64, 114
1, 201012, Note_on_c, 0, 65, 89
1, 202098, Note_off_c, 0, 65, 89
1, 202098, Note_on_c, 0, 66, 92
1, 203245, Note_off_c, 0, 66, 92
1, 203246, Note_on_c, 0, 67, 92
1, 203619, Note_off_c, 0, 67, 92
1, 204383, Note_on_c, 0, 64, 111
1, 204669, Note_off_c, 0, 64, 111
1, 204669, Note_on_c, 0, 62, 95
1, 204968, Note_off_c, 0, 62, 95
1, 206269, Note_on_c, 0, 64, 113
1, 206651, Note_off_c, 0, 64, 113
1, 206755, Note_on_c, 0, 57, 97
1, 207337, Note_off_c, 0, 57, 97
1, 208353, Note_on_c, 0, 56, 104
1, 208460, Note_off_c, 0, 56, 104
1, 208475, Note_on_c, 0, 57, 108
1, 208594, Note_off_c, 0, 57, 108
1, 208613, Note_on_c, 0, 58, 110
1, 208706, Note_off_c, 0, 58, 110
1, 208706, Note_on_c, 0, 60, 113
1, 208810, Note_off_c, 0, 60, 113
1, 208846, Note_on_c, 0, 64, 113
1, 208983, Note_off_c, 0, 64, 113
1, 208983, Note_on_c, 0, 62, 107
1, 209022, Note_off_c, 0, 62, 107
1, 209039, Note_on_c, 0, 60, 109
1, 209108, Note_off_c, 0, 60, 109
1, 209130, Note_on_c, 0, 59, 111
1, 209279, Note_off_c, 0, 59, 111
1, 209279, Note_on_c, 0, 61, 110
1, 209417, Note_off_c, 0, 61, 110
1, 209417, Note_on_c, 0, 64, 113
1, 209508, Note_off_c, 0, 64, 113
1, 209512, Note_on_c, 0, 65, 106
1, 209570, Note_off_c, 0, 65, 106
1, 209570, Note_on_c, 0, 69, 121
1, 209674, Note_off_c, 0, 69, 121
1, 209709, Note_on_c, 0, 68, 116
1, 209926, Note_off_c, 0, 68, 116
1, 211033, Note_on_c, 0, 67, 102
1, 211173, Note_off_c, 0, 67, 102
1, 211182, Note_on_c, 0, 68, 117
1, 211301, Note_off_c, 0, 68, 117
1, 211333, Note_on_c, 0, 65, 106
1, 211435, Note_off_c, 0, 65, 106
1, 211453, Note_on_c, 0, 60, 103
1, 211556, Note_off_c, 0, 60, 103
1, 211577, Note_on_c, 0, 58, 107
1, 211732, Note_off_c, 0, 58, 107
1, 211748, Note_on_c, 0, 54, 85
1, 211853, Note_off_c, 0, 54, 85
1, 211955, Note_on_c, 0, 67, 113
1, 212172, Note_off_c, 0, 67, 113
1, 212249, Note_on_c, 0, 63, 106
1, 212342, Note_off_c, 0, 63, 106
1, 212371, Note_on_c, 0, 60, 101
1, 212488, Note_off_c, 0, 60, 101
1, 212535, Note_on_c, 0, 58, 108
1, 212617, Note_off_c, 0, 58, 108
1, 212623, Note_on_c, 0, 59, 98
1, 212737, Note_off_c, 0, 59, 98
1, 212821, Note_on_c, 0, 56, 105
1, 212909, Note_off_c, 0, 56, 105
1, 212918, Note_on_c, 0, 57, 108
1, 213093, Note_off_c, 0, 57, 108
1, 213104, Note_on_c, 0, 60, 110
1, 213260, Note_off_c, 0, 60, 110
1, 213380, Note_on_c, 0, 59, 102
1, 213517, Note_off_c, 0, 59, 102
1, 213549, Note_on_c, 0, 60, 113
1, 213707, Note_off_c, 0, 60, 113
1, 213726, Note_on_c, 0, 62, 94
1, 213805, Note_off_c, 0, 62, 94
1, 213824, Note_on_c, 0, 64, 94
1, 213912, Note_off_c, 0, 64, 94
1, 213927, Note_on_c, 0, 66, 97
1, 214006, Note_off_c, 0, 66, 97
1, 214029, Note_on_c, 0, 70, 107
1, 214185, Note_off_c, 0, 70, 107
1, 214193, Note_on_c, 0, 69, 112
1, 214479, Note_off_c, 0, 69, 112
1, 214560, Note_on_c, 0, 61, 94
1, 214636, Note_off_c, 0, 61, 94
1, 214654, Note_on_c, 0, 63, 92
1, 214736, Note_off_c, 0, 63, 92
1, 214786, Note_on_c, 0, 66, 102
1, 214958, Note_off_c, 0, 66, 102
1, 214974, Note_on_c, 0, 65, 94
1, 215100, Note_off_c, 0, 65, 94
1, 215144, Note_on_c, 0, 61, 97
1, 215238, Note_off_c, 0, 61, 97
1, 215289, Note_on_c, 0, 58, 106
1, 215435, Note_off_c, 0, 58, 106
1, 215488, Note_on_c, 0, 54, 92
1, 215590, Note_off_c, 0, 54, 92
1, 215608, Note_on_c, 0, 56, 102
1, 215736, Note_off_c, 0, 56, 102
1, 215767, Note_on_c, 0, 63, 92
1, 215840, Note_off_c, 0, 63, 92
1, 215864, Note_on_c, 0, 61, 101
1, 215981, Note_off_c, 0, 61, 101
1, 215988, Note_on_c, 0, 58, 108
1, 216101, Note_off_c, 0, 58, 108
1, 216139, Note_on_c, 0, 54, 89
1, 216227, Note_off_c, 0, 54, 89
1, 216292, Note_on_c, 0, 49, 86
1, 216429, Note_off_c, 0, 49, 86
1, 216451, Note_on_c, 0, 46, 99
1, 216658, Note_off_c, 0, 46, 99
1, 216675, Note_on_c, 0, 51, 91
1, 216815, Note_off_c, 0, 51, 91
1, 216895, Note_on_c, 0, 44, 99
1, 217481, Note_off_c, 0, 44, 99
1, 219458, Note_on_c, 0, 49, 96
1, 219562, Note_off_c, 0, 49, 96
1, 219592, Note_on_c, 0, 47, 98
1, 219739, Note_off_c, 0, 47, 98
1, 219768, Note_on_c, 0, 49, 89
1, 219905, Note_off_c, 0, 49, 89
1, 219978, Note_on_c, 0, 47, 94
1, 220094, Note_off_c, 0, 47, 94
1, 220127, Note_on_c, 0, 53, 102
1, 220270, Note_off_c, 0, 53, 102
1, 220273, Note_on_c, 0, 51, 99
1, 220392, Note_off_c, 0, 51, 99
1, 220434, Note_on_c, 0, 50, 96
1, 220534, Note_off_c, 0, 50, 96
1, 220540, Note_on_c, 0, 49, 103
1, 220723, Note_off_c, 0, 49, 103
1, 220845, Note_on_c, 0, 58, 111
1, 221018, Note_off_c, 0, 58, 111
1, 221018, Note_on_c, 0, 56, 106
1, 221251, Note_on_c, 0, 58, 104
1, 221251, Note_off_c, 0, 56, 106
1, 221407, Note_off_c, 0, 58, 104
1, 221407, Note_on_c, 0, 63, 101
1, 221513, Note_off_c, 0, 63, 101
1, 221513, Note_on_c, 0, 58, 110
1, 221597, Note_off_c, 0, 58, 110
1, 221603, Note_on_c, 0, 59, 107
1, 221718, Note_off_c, 0, 59, 107
1, 221724, Note_on_c, 0, 60, 108
1, 221804, Note_off_c, 0, 60, 108
1, 221806, Note_on_c, 0, 63, 105
1, 221932, Note_off_c, 0, 63, 105
1, 221949, Note_on_c, 0, 60, 110
1, 222077, Note_off_c, 0, 60, 110
1, 222090, Note_on_c, 0, 61, 105
1, 222174, Note_off_c, 0, 61, 105
1, 222215, Note_on_c, 0, 63, 99
1, 222384, Note_off_c, 0, 63, 99
1, 222461, Note_on_c, 0, 60, 102
1, 222526, Note_off_c, 0, 60, 102
1, 222527, Note_on_c, 0, 62, 107
1, 222600, Note_off_c, 0, 62, 107
1, 222607, Note_on_c, 0, 64, 106
1, 222780, Note_off_c, 0, 64, 106
1, 222780, Note_on_c, 0, 62, 104
1, 222883, Note_off_c, 0, 62, 104
1, 222883, Note_on_c, 0, 60, 102
1, 222969, Note_off_c, 0, 60, 102
1, 222970, Note_on_c, 0, 59, 103
1, 223177, Note_off_c, 0, 59, 103
1, 223177, Note_on_c, 0, 57, 106
1, 223297, Note_off_c, 0, 57, 106
1, 223321, Note_on_c, 0, 56, 96
1, 223414, Note_off_c, 0, 56, 96
1, 223436, Note_on_c, 0, 59, 101
1, 223506, Note_off_c, 0, 59, 101
1, 223522, Note_on_c, 0, 58, 102
1, 223583, Note_off_c, 0, 58, 102
1, 223583, Note_on_c, 0, 62, 106
1, 223765, Note_off_c, 0, 62, 106
1, 223843, Note_on_c, 0, 59, 98
1, 224043, Note_off_c, 0, 59, 98
1, 224082, Note_on_c, 0, 60, 97
1, 224171, Note_off_c, 0, 60, 97
1, 224190, Note_on_c, 0, 64, 101
1, 224311, Note_off_c, 0, 64, 101
1, 224328, Note_on_c, 0, 69, 117
1, 224508, Note_off_c, 0, 69, 117
1, 224508, Note_on_c, 0, 67, 108
1, 225263, Note_off_c, 0, 67, 108
1, 225339, Note_on_c, 0, 67, 96
1, 225473, Note_off_c, 0, 67, 96
1, 225660, Note_on_c, 0, 64, 116
1, 225877, Note_off_c, 0, 64, 116
1, 225877, Note_on_c, 0, 62, 108
1, 226172, Note_off_c, 0, 62, 108
1, 226232, Note_on_c, 0, 60, 105
1, 226439, Note_off_c, 0, 60, 105
1, 227665, Note_on_c, 0, 65, 119
1, 227773, Note_off_c, 0, 65, 119
1, 227799, Note_on_c, 0, 64, 117
1, 227922, Note_off_c, 0, 64, 117
1, 227948, Note_on_c, 0, 63, 106
1, 228034, Note_off_c, 0, 63, 106
1, 228056, Note_on_c, 0, 62, 108
1, 228139, Note_off_c, 0, 62, 108
1, 228139, Note_on_c, 0, 60, 105
1, 228249, Note_off_c, 0, 60, 105
1, 228249, Note_on_c, 0, 59, 108
1, 228388, Note_off_c, 0, 59, 108
1, 228405, Note_on_c, 0, 58, 106
1, 228496, Note_off_c, 0, 58, 106
1, 228539, Note_on_c, 0, 56, 107
1, 228660, Note_off_c, 0, 56, 107
1, 228675, Note_on_c, 0, 55, 101
1, 228775, Note_off_c, 0, 55, 101
1, 229846, Note_on_c, 0, 71, 119
1, 230076, Note_off_c, 0, 71, 119
1, 230078, Note_on_c, 0, 72, 116
1, 230117, Note_off_c, 0, 72, 116
1, 230138, Note_on_c, 0, 74, 117
1, 230316, Note_off_c, 0, 74, 117
1, 230318, Note_on_c, 0, 73, 114
1, 230376, Note_off_c, 0, 73, 114
1, 230386, Note_on_c, 0, 72, 121
1, 230494, Note_off_c, 0, 72, 121
1, 230494, Note_on_c, 0, 71, 127
1, 230694, Note_off_c, 0, 71, 127
1, 230702, Note_on_c, 0, 69, 120
1, 230836, Note_off_c, 0, 69, 120
1, 230866, Note_on_c, 0, 67, 117
1, 231031, Note_off_c, 0, 67, 117
1, 231044, Note_on_c, 0, 65, 107
1, 231185, Note_off_c, 0, 65, 107
1, 231217, Note_on_c, 0, 64, 104
1, 231360, Note_off_c, 0, 64, 104
1, 231377, Note_on_c, 0, 62, 97
1, 231463, Note_off_c, 0, 62, 97
1, 231489, Note_on_c, 0, 64, 96
1, 231541, Note_off_c, 0, 64, 96
1, 231541, Note_on_c, 0, 67, 115
1, 231767, Note_off_c, 0, 67, 115
1, 231808, Note_on_c, 0, 64, 98
1, 231953, Note_off_c, 0, 64, 98
1, 231987, Note_on_c, 0, 65, 105
1, 232221, Note_off_c, 0, 65, 105
1, 232236, Note_on_c, 0, 60, 112
1, 232412, Note_off_c, 0, 60, 112
1, 232442, Note_on_c, 0, 57, 101
1, 232622, Note_off_c, 0, 57, 101
1, 232843, Note_on_c, 0, 64, 108
1, 232954, Note_off_c, 0, 64, 108
1, 232954, Note_on_c, 0, 65, 109
1, 232998, Note_off_c, 0, 65, 109
1, 233005, Note_on_c, 0, 64, 108
1, 233128, Note_off_c, 0, 64, 108
1, 233129, Note_on_c, 0, 62, 98
1, 233311, Note_off_c, 0, 62, 98
1, 233334, Note_on_c, 0, 57, 105
1, 233575, Note_off_c, 0, 57, 105
1, 233595, Note_on_c, 0, 53, 93
1, 233723, Note_off_c, 0, 53, 93
1, 233728, Note_on_c, 0, 52, 93
1, 233945, Note_off_c, 0, 52, 93
1, 234279, Note_on_c, 0, 50, 86
1, 234596, Note_off_c, 0, 50, 86
1, 235973, Note_on_c, 0, 50, 95
1, 236109, Note_off_c, 0, 50, 95
1, 236119, Note_on_c, 0, 52, 90
1, 236214, Note_off_c, 0, 52, 90
1, 236222, Note_on_c, 0, 53, 91
1, 236300, Note_off_c, 0, 53, 91
1, 236313, Note_on_c, 0, 57, 103
1, 236408, Note_off_c, 0, 57, 103
1, 236455, Note_on_c, 0, 60, 111
1, 236572, Note_off_c, 0, 60, 111
1, 236590, Note_on_c, 0, 58, 112
1, 236774, Note_off_c, 0, 58, 112
1, 236784, Note_on_c, 0, 59, 106
1, 236933, Note_off_c, 0, 59, 106
1, 236945, Note_on_c, 0, 60, 116
1, 237137, Note_off_c, 0, 60, 116
1, 237138, Note_on_c, 0, 61, 107
1, 237194, Note_off_c, 0, 61, 107
1, 237200, Note_on_c, 0, 62, 102
1, 237265, Note_off_c, 0, 62, 102
1, 237269, Note_on_c, 0, 63, 106
1, 237399, Note_off_c, 0, 63, 106
1, 237400, Note_on_c, 0, 65, 106
1, 237573, Note_off_c, 0, 65, 106
1, 237573, Note_on_c, 0, 66, 104
1, 237694, Note_off_c, 0, 66, 104
1, 237694, Note_on_c, 0, 67, 114
1, 237850, Note_off_c, 0, 67, 114
1, 237854, Note_on_c, 0, 68, 117
1, 238000, Note_off_c, 0, 68, 117
1, 238053, Note_on_c, 0, 65, 106
1, 238228, Note_off_c, 0, 65, 106
1, 238252, Note_on_c, 0, 61, 97
1, 238368, Note_off_c, 0, 61, 97
1, 238400, Note_on_c, 0, 58, 104
1, 238537, Note_off_c, 0, 58, 104
1, 238598, Note_on_c, 0, 65, 101
1, 238719, Note_off_c, 0, 65, 101
1, 238758, Note_on_c, 0, 67, 110
1, 239232, Note_off_c, 0, 67, 110
1, 239232, Note_on_c, 0, 66, 98
1, 239277, Note_off_c, 0, 66, 98
1, 239289, Note_on_c, 0, 65, 102
1, 239373, Note_off_c, 0, 65, 102
1, 239392, Note_on_c, 0, 64, 109
1, 239495, Note_off_c, 0, 64, 109
1, 239505, Note_on_c, 0, 62, 105
1, 239613, Note_off_c, 0, 62, 105
1, 239626, Note_on_c, 0, 60, 107
1, 239740, Note_off_c, 0, 60, 107
1, 239764, Note_on_c, 0, 59, 102
1, 239936, Note_off_c, 0, 59, 102
1, 240000, Note_on_c, 0, 56, 102
1, 240079, Note_off_c, 0, 56, 102
1, 240083, Note_on_c, 0, 57, 101
1, 240263, Note_off_c, 0, 57, 101
1, 240308, Note_on_c, 0, 60, 93
1, 240425, Note_off_c, 0, 60, 93
1, 240449, Note_on_c, 0, 58, 102
1, 240569, Note_off_c, 0, 58, 102
1, 240579, Note_on_c, 0, 59, 102
1, 240733, Note_off_c, 0, 59, 102
1, 240748, Note_on_c, 0, 61, 95
1, 240873, Note_off_c, 0, 61, 95
1, 240876, Note_on_c, 0, 63, 88
1, 240987, Note_off_c, 0, 63, 88
1, 241011, Note_on_c, 0, 67, 87
1, 241137, Note_off_c, 0, 67, 87
1, 241141, Note_on_c, 0, 70, 107
1, 241338, Note_off_c, 0, 70, 107
1, 241350, Note_on_c, 0, 67, 84
1, 241408, Note_off_c, 0, 67, 84
1, 241414, Note_on_c, 0, 68, 108
1, 241621, Note_off_c, 0, 68, 108
1, 241645, Note_on_c, 0, 70, 97
1, 241802, Note_off_c, 0, 70, 97
1, 241820, Note_on_c, 0, 71, 76
1, 241917, Note_off_c, 0, 71, 76
1, 241950, Note_on_c, 0, 75, 84
1, 242053, Note_off_c, 0, 75, 84
1, 242112, Note_on_c, 0, 75, 86
1, 242622, Note_off_c, 0, 75, 86
1, 242678, Note_on_c, 0, 71, 84
1, 242871, Note_off_c, 0, 71, 84
1, 243186, Note_on_c, 0, 76, 96
1, 243507, Note_off_c, 0, 76, 96
1, 244304, Note_on_c, 0, 71, 114
1, 244469, Note_off_c, 0, 71, 114
1, 244551, Note_on_c, 0, 69, 112
1, 244681, Note_off_c, 0, 69, 112
1, 244876, Note_on_c, 0, 69, 109
1, 245206, Note_off_c, 0, 69, 109
1, 245243, Note_on_c, 0, 69, 97
1, 245495, Note_off_c, 0, 69, 97
1, 245665, Note_on_c, 0, 69, 104
1, 245951, Note_off_c, 0, 69, 104
1, 245979, Note_on_c, 0, 67, 96
1, 246196, Note_off_c, 0, 67, 96
1, 246441, Note_on_c, 0, 72, 113
1, 247171, Note_off_c, 0, 72, 113
1, 247225, Note_on_c, 0, 71, 108
1, 247468, Note_off_c, 0, 71, 108
1, 247478, Note_on_c, 0, 69, 109
1, 247721, Note_off_c, 0, 69, 109
1, 247742, Note_on_c, 0, 65, 97
1, 247994, Note_off_c, 0, 65, 97
1, 248061, Note_on_c, 0, 67, 103
1, 248681, Note_off_c, 0, 67, 103
1, 248786, Note_on_c, 0, 67, 99
1, 248944, Note_off_c, 0, 67, 99
1, 249011, Note_on_c, 0, 66, 100
1, 249167, Note_off_c, 0, 66, 100
1, 249198, Note_on_c, 0, 65, 102
1, 249406, Note_off_c, 0, 65, 102
1, 249406, Note_on_c, 0, 64, 113
1, 249597, Note_off_c, 0, 64, 113
1, 249597, Note_on_c, 0, 63, 102
1, 249814, Note_off_c, 0, 63, 102
1, 249819, Note_on_c, 0, 65, 103
1, 249958, Note_off_c, 0, 65, 103
1, 249986, Note_on_c, 0, 66, 97
1, 250168, Note_off_c, 0, 66, 97
1, 250194, Note_on_c, 0, 70, 105
1, 250367, Note_off_c, 0, 70, 105
1, 250418, Note_on_c, 0, 68, 108
1, 250704, Note_off_c, 0, 68, 108
1, 250704, Note_on_c, 0, 61, 103
1, 250881, Note_off_c, 0, 61, 103
1, 251079, Note_on_c, 0, 66, 101
1, 251268, Note_off_c, 0, 66, 101
1, 251274, Note_on_c, 0, 65, 96
1, 251503, Note_off_c, 0, 65, 96
1, 251530, Note_on_c, 0, 64, 90
1, 251713, Note_off_c, 0, 64, 90
1, 251746, Note_on_c, 0, 65, 104
1, 251963, Note_off_c, 0, 65, 104
1, 251980, Note_on_c, 0, 61, 92
1, 252184, Note_off_c, 0, 61, 92
1, 252357, Note_on_c, 0, 56, 99
1, 252522, Note_off_c, 0, 56, 99
1, 252602, Note_on_c, 0, 62, 96
1, 253367, Note_off_c, 0, 62, 96
1, 253367, Note_on_c, 0, 60, 92
1, 253733, Note_on_c, 0, 62, 91
1, 253733, Note_off_c, 0, 60, 92
1, 253813, Note_off_c, 0, 62, 91
1, 253836, Note_on_c, 0, 59, 96
1, 254157, Note_off_c, 0, 59, 96
1, 254667, Note_on_c, 0, 57, 105
1, 254871, Note_off_c, 0, 57, 105
1, 254907, Note_on_c, 0, 59, 92
1, 255037, Note_off_c, 0, 59, 92
1, 255076, Note_on_c, 0, 55, 92
1, 255756, Note_off_c, 0, 55, 92
1, 255860, Note_on_c, 0, 53, 85
1, 256025, Note_off_c, 0, 53, 85
1, 256083, Note_on_c, 0, 55, 92
1, 256200, Note_off_c, 0, 55, 92
1, 256252, Note_on_c, 0, 52, 90
1, 256482, Note_off_c, 0, 52, 90
1, 256745, Note_on_c, 0, 59, 95
1, 256934, Note_off_c, 0, 59, 95
1, 256955, Note_on_c, 0, 62, 87
1, 257624, Note_off_c, 0, 62, 87
1, 258199, Note_on_c, 0, 60, 103
1, 258529, Note_off_c, 0, 60, 103
1, 258554, Note_on_c, 0, 57, 98
1, 258884, Note_off_c, 0, 57, 98
1, 260027, Note_on_c, 0, 52, 91
1, 260220, Note_off_c, 0, 52, 91
1, 260324, Note_on_c, 0, 55, 103
1, 260628, Note_off_c, 0, 55, 103
1, 260664, Note_on_c, 0, 52, 97
1, 260831, Note_off_c, 0, 52, 97
1, 260840, Note_on_c, 0, 53, 90
1, 261066, Note_off_c, 0, 53, 90
1, 261282, Note_on_c, 0, 50, 90
1, 261642, Note_off_c, 0, 50, 90
1, 263168, Note_on_c, 0, 62, 125
1, 263509, Note_off_c, 0, 62, 125
1, 263572, Note_on_c, 0, 62, 121
1, 263806, Note_off_c, 0, 62, 121
1, 264049, Note_on_c, 0, 62, 113
1, 264388, Note_off_c, 0, 62, 113
1, 264516, Note_on_c, 0, 64, 107
1, 264855, Note_off_c, 0, 64, 107
1, 265020, Note_on_c, 0, 60, 101
1, 265376, Note_off_c, 0, 60, 101
1, 265432, Note_on_c, 0, 62, 99
1, 265749, Note_off_c, 0, 62, 99
1, 265910, Note_on_c, 0, 59, 99
1, 266203, Note_off_c, 0, 59, 99
1, 266578, Note_on_c, 0, 59, 98
1, 266873, Note_off_c, 0, 59, 98
1, 267946, Note_on_c, 0, 58, 100
1, 268128, Note_off_c, 0, 58, 100
1, 268128, Note_on_c, 0, 57, 98
1, 268193, Note_off_c, 0, 57, 98
1, 268227, Note_on_c, 0, 53, 89
1, 268344, Note_off_c, 0, 53, 89
1, 268396, Note_on_c, 0, 46, 99
1, 268685, Note_off_c, 0, 46, 99
1, 268708, Note_on_c, 0, 44, 101
1, 269405, Note_off_c, 0, 44, 101
1, 270749, Note_on_c, 0, 71, 119
1, 270992, Note_off_c, 0, 71, 119
1, 271018, Note_on_c, 0, 68, 113
1, 271261, Note_off_c, 0, 68, 113
1, 271263, Note_on_c, 0, 74, 101
1, 271463, Note_off_c, 0, 74, 101
1, 271480, Note_on_c, 0, 68, 113
1, 271619, Note_off_c, 0, 68, 113
1, 271648, Note_on_c, 0, 69, 113
1, 271882, Note_off_c, 0, 69, 113
1, 271909, Note_on_c, 0, 71, 101
1, 272161, Note_off_c, 0, 71, 101
1, 272176, Note_on_c, 0, 65, 101
1, 272454, Note_off_c, 0, 65, 101
1, 272559, Note_on_c, 0, 64, 116
1, 272811, Note_off_c, 0, 64, 116
1, 272901, Note_on_c, 0, 67, 106
1, 273179, Note_off_c, 0, 67, 106
1, 273293, Note_on_c, 0, 64, 115
1, 273484, Note_off_c, 0, 64, 115
1, 273516, Note_on_c, 0, 65, 101
1, 273785, Note_off_c, 0, 65, 101
1, 273787, Note_on_c, 0, 60, 107
1, 273941, Note_off_c, 0, 60, 107
1, 274019, Note_on_c, 0, 56, 97
1, 274182, Note_off_c, 0, 56, 97
1, 274190, Note_on_c, 0, 57, 101
1, 274344, Note_off_c, 0, 57, 101
1, 274344, Note_on_c, 0, 64, 109
1, 274961, Note_off_c, 0, 64, 109
1, 274993, Note_on_c, 0, 62, 106
1, 275245, Note_off_c, 0, 62, 106
1, 275275, Note_on_c, 0, 60, 103
1, 275518, Note_off_c, 0, 60, 103
1, 275574, Note_on_c, 0, 62, 93
1, 275863, Note_off_c, 0, 62, 93
1, 275956, Note_on_c, 0, 64, 94
1, 276390, Note_off_c, 0, 64, 94
1, 276431, Note_on_c, 0, 60, 100
1, 276804, Note_off_c, 0, 60, 100
1, 276825, Note_on_c, 0, 57, 79
1, 276909, Note_off_c, 0, 57, 79
1, 276959, Note_on_c, 0, 60, 104
1, 277857, Note_off_c, 0, 60, 104
1, 278078, Note_on_c, 0, 60, 101
1, 278863, Note_off_c, 0, 60, 101
1, 278954, Note_on_c, 0, 60, 100
1, 279262, Note_off_c, 0, 60, 100
1, 279281, Note_on_c, 0, 59, 93
1, 279397, Note_off_c, 0, 59, 93
1, 280923, Note_on_c, 0, 60, 105
1, 281090, Note_off_c, 0, 60, 105
1, 281104, Note_on_c, 0, 61, 101
1, 281207, Note_off_c, 0, 61, 101
1, 281252, Note_on_c, 0, 62, 105
1, 281333, Note_off_c, 0, 62, 105
1, 281353, Note_on_c, 0, 63, 102
1, 281437, Note_off_c, 0, 63, 102
1, 281452, Note_on_c, 0, 64, 118
1, 281878, Note_off_c, 0, 64, 118
1, 281891, Note_on_c, 0, 65, 110
1, 281997, Note_off_c, 0, 65, 110
1, 282010, Note_on_c, 0, 66, 106
1, 282394, Note_off_c, 0, 66, 106
1, 282424, Note_on_c, 0, 67, 116
1, 282554, Note_off_c, 0, 67, 116
1, 282574, Note_on_c, 0, 68, 119
1, 282684, Note_off_c, 0, 68, 119
1, 282702, Note_on_c, 0, 69, 106
1, 283811, Note_off_c, 0, 69, 106
1, 283878, Note_on_c, 0, 68, 110
1, 284021, Note_off_c, 0, 68, 110
1, 284047, Note_on_c, 0, 69, 90
1, 285238, Note_off_c, 0, 69, 90
1, 285322, Note_on_c, 0, 69, 98
1, 286040, Note_off_c, 0, 69, 98
1, 287195, Note_on_c, 0, 66, 98
1, 287681, Note_off_c, 0, 66, 98
1, 288053, Note_on_c, 0, 66, 95
1, 288609, Note_off_c, 0, 66, 95
1, 288643, Note_on_c, 0, 65, 101
1, 288885, Note_off_c, 0, 65, 101
1, 288885, Note_on_c, 0, 64, 103
1, 289380, Note_off_c, 0, 64, 103
1, 289771, Note_on_c, 0, 66, 79
1, 290440, Note_off_c, 0, 66, 79
1, 290546, Note_on_c, 0, 69, 98
1, 290751, Note_off_c, 0, 69, 98
1, 290786, Note_on_c, 0, 68, 78
1, 290919, Note_off_c, 0, 68, 78
1, 292038, Note_on_c, 0, 66, 78
1, 292166, Note_off_c, 0, 66, 78
1, 292357, Note_on_c, 0, 71, 92
1, 292583, Note_off_c, 0, 71, 92
1, 292657, Note_on_c, 0, 78, 88
1, 292782, Note_off_c, 0, 78, 88
1, 292817, Note_on_c, 0, 76, 103
1, 293017, Note_off_c, 0, 76, 103
1, 293050, Note_on_c, 0, 73, 92
1, 293136, Note_off_c, 0, 73, 92
1, 293137, Note_on_c, 0, 72, 97
1, 293268, Note_off_c, 0, 72, 97
1, 293268, Note_on_c, 0, 69, 108
1, 293426, Note_off_c, 0, 69, 108
1, 293426, Note_on_c, 0, 71, 99
1, 293664, Note_off_c, 0, 71, 99
1, 293664, Note_on_c, 0, 66, 95
1, 293829, Note_off_c, 0, 66, 95
1, 293856, Note_on_c, 0, 64, 107
1, 294060, Note_off_c, 0, 64, 107
1, 294191, Note_on_c, 0, 69, 112
1, 294373, Note_off_c, 0, 69, 112
1, 294426, Note_on_c, 0, 66, 94
1, 294643, Note_off_c, 0, 66, 94
1, 294779, Note_on_c, 0, 64, 98
1, 295057, Note_off_c, 0, 64, 98
1, 295057, Note_on_c, 0, 61, 88
1, 295170, Note_off_c, 0, 61, 88
1, 295185, Note_on_c, 0, 62, 100
1, 295389, Note_off_c, 0, 62, 100
1, 295486, Note_on_c, 0, 64, 102
1, 295607, Note_off_c, 0, 64, 102
1, 295607, Note_on_c, 0, 65, 98
1, 295911, Note_off_c, 0, 65, 98
1, 296050, Note_on_c, 0, 67, 97
1, 296363, Note_off_c, 0, 67, 97
1, 296378, Note_on_c, 0, 62, 85
1, 296485, Note_off_c, 0, 62, 85
1, 296510, Note_on_c, 0, 68, 103
1, 296605, Note_off_c, 0, 68, 103
1, 296643, Note_on_c, 0, 69, 99
1, 297664, Note_off_c, 0, 69, 99
1, 298225, Note_on_c, 0, 68, 108
1, 298346, Note_off_c, 0, 68, 108
1, 298374, Note_on_c, 0, 69, 113
1, 298817, Note_off_c, 0, 69, 113
1, 298848, Note_on_c, 0, 68, 110
1, 298934, Note_off_c, 0, 68, 110
1, 298934, Note_on_c, 0, 69, 113
1, 299198, Note_off_c, 0, 69, 113
1, 299198, Note_on_c, 0, 68, 105
1, 299476, Note_off_c, 0, 68, 105
1, 299476, Note_on_c, 0, 65, 101
1, 299891, Note_off_c, 0, 65, 101
1, 299891, Note_on_c, 0, 63, 100
1, 299967, Note_off_c, 0, 63, 100
1, 299979, Note_on_c, 0, 64, 105
1, 300431, Note_off_c, 0, 64, 105
1, 300440, Note_on_c, 0, 63, 93
1, 300491, Note_off_c, 0, 63, 93
1, 300518, Note_on_c, 0, 64, 97
1, 301074, Note_off_c, 0, 64, 97
1, 301130, Note_on_c, 0, 62, 97
1, 301738, Note_off_c, 0, 62, 97
1, 301814, Note_on_c, 0, 67, 94
1, 303014, Note_off_c, 0, 67, 94
1, 303144, Note_on_c, 0, 64, 101
1, 303361, Note_off_c, 0, 64, 101
1, 303387, Note_on_c, 0, 67, 100
1, 303717, Note_off_c, 0, 67, 100
1, 303836, Note_on_c, 0, 68, 104
1, 304198, Note_off_c, 0, 68, 104
1, 304220, Note_on_c, 0, 67, 94
1, 304313, Note_off_c, 0, 67, 94
1, 305681, Note_on_c, 0, 67, 116
1, 305881, Note_off_c, 0, 67, 116
1, 305906, Note_on_c, 0, 69, 115
1, 306548, Note_off_c, 0, 69, 115
1, 306624, Note_on_c, 0, 64, 104
1, 306792, Note_off_c, 0, 64, 104
1, 306861, Note_on_c, 0, 69, 113
1, 307147, Note_off_c, 0, 69, 113
1, 307203, Note_on_c, 0, 69, 112
1, 307389, Note_off_c, 0, 69, 112
1, 307401, Note_on_c, 0, 70, 113
1, 308293, Note_off_c, 0, 70, 113
1, 308422, Note_on_c, 0, 70, 108
1, 308622, Note_off_c, 0, 70, 108
1, 308793, Note_on_c, 0, 70, 104
1, 308985, Note_off_c, 0, 70, 104
1, 309033, Note_on_c, 0, 74, 101
1, 309259, Note_off_c, 0, 74, 101
1, 309316, Note_on_c, 0, 71, 96
1, 310570, Note_off_c, 0, 71, 96
1, 310570, Note_on_c, 0, 69, 94
1, 310646, Note_off_c, 0, 69, 94
1, 310663, Note_on_c, 0, 67, 95
1, 310941, Note_off_c, 0, 67, 95
1, 310948, Note_on_c, 0, 71, 90
1, 311182, Note_off_c, 0, 71, 90
1, 311182, Note_on_c, 0, 67, 95
1, 311521, Note_off_c, 0, 67, 95
1, 311547, Note_on_c, 0, 64, 100
1, 311806, Note_off_c, 0, 64, 100
1, 311922, Note_on_c, 0, 68, 108
1, 312068, Note_off_c, 0, 68, 108
1, 312083, Note_on_c, 0, 69, 106
1, 312407, Note_off_c, 0, 69, 106
1, 312434, Note_on_c, 0, 68, 98
1, 312559, Note_off_c, 0, 68, 98
1, 312687, Note_on_c, 0, 65, 94
1, 312864, Note_off_c, 0, 65, 94
1, 312952, Note_on_c, 0, 64, 100
1, 313288, Note_off_c, 0, 64, 100
1, 313369, Note_on_c, 0, 62, 99
1, 313716, Note_off_c, 0, 62, 99
1, 313799, Note_on_c, 0, 62, 100
1, 314051, Note_off_c, 0, 62, 100
1, 314066, Note_on_c, 0, 60, 102
1, 314344, Note_off_c, 0, 60, 102
1, 314515, Note_on_c, 0, 59, 97
1, 314799, Note_off_c, 0, 59, 97
1, 314911, Note_on_c, 0, 57, 71
1, 315941, Note_off_c, 0, 57, 71
1, 316546, Note_on_c, 0, 62, 113
1, 316911, Note_off_c, 0, 62, 113
1, 317128, Note_on_c, 0, 64, 113
1, 317501, Note_off_c, 0, 64, 113
1, 317796, Note_on_c, 0, 60, 92
1, 318178, Note_off_c, 0, 60, 92
1, 318439, Note_on_c, 0, 62, 96
1, 318891, Note_off_c, 0, 62, 96
1, 319059, Note_on_c, 0, 59, 100
1, 319393, Note_off_c, 0, 59, 100
1, 319827, Note_on_c, 0, 59, 88
1, 320448, Note_off_c, 0, 59, 88
1, 321430, Note_on_c, 0, 47, 98
1, 321638, Note_off_c, 0, 47, 98
1, 321668, Note_on_c, 0, 48, 90
1, 321946, Note_off_c, 0, 48, 90
1, 322059, Note_on_c, 0, 52, 98
1, 322363, Note_off_c, 0, 52, 98
1, 322389, Note_on_c, 0, 55, 107
1, 322710, Note_off_c, 0, 55, 107
1, 322822, Note_on_c, 0, 58, 100
1, 323000, Note_off_c, 0, 58, 100
1, 323026, Note_on_c, 0, 59, 94
1, 323443, Note_off_c, 0, 59, 94
1, 323477, Note_on_c, 0, 60, 89
1, 323846, Note_off_c, 0, 60, 89
1, 323976, Note_on_c, 0, 57, 93
1, 324341, Note_off_c, 0, 57, 93
1, 324945, Note_on_c, 0, 55, 100
1, 325171, Note_off_c, 0, 55, 100
1, 325331, Note_on_c, 0, 53, 85
1, 325544, Note_off_c, 0, 53, 85
1, 325587, Note_on_c, 0, 55, 96
1, 325800, Note_off_c, 0, 55, 96
1, 326062, Note_on_c, 0, 62, 92
1, 326253, Note_off_c, 0, 62, 92
1, 326325, Note_on_c, 0, 65, 94
1, 327368, Note_off_c, 0, 65, 94
1, 327437, Note_on_c, 0, 64, 105
1, 327637, Note_off_c, 0, 64, 105
1, 327637, Note_on_c, 0, 62, 100
1, 327741, Note_off_c, 0, 62, 100
1, 327788, Note_on_c, 0, 60, 103
1, 327986, Note_off_c, 0, 60, 103
1, 328033, Note_on_c, 0, 59, 96
1, 328441, Note_off_c, 0, 59, 96
1, 328651, Note_on_c, 0, 55, 88
1, 328811, Note_off_c, 0, 55, 88
1, 328873, Note_on_c, 0, 62, 101
1, 329255, Note_off_c, 0, 62, 101
1, 329255, Note_on_c, 0, 60, 98
1, 329768, Note_off_c, 0, 60, 98
1, 331162, Note_on_c, 0, 63, 105
1, 331335, Note_off_c, 0, 63, 105
1, 331381, Note_on_c, 0, 65, 104
1, 331581, Note_off_c, 0, 65, 104
1, 331610, Note_on_c, 0, 67, 99
1, 331809, Note_off_c, 0, 67, 99
1, 331809, Note_on_c, 0, 70, 100
1, 332069, Note_off_c, 0, 70, 100
1, 332069, Note_on_c, 0, 68, 112
1, 332312, Note_off_c, 0, 68, 112
1, 332312, Note_on_c, 0, 67, 102
1, 332512, Note_off_c, 0, 67, 102
1, 332531, Note_on_c, 0, 66, 98
1, 333013, Note_off_c, 0, 66, 98
1, 333030, Note_on_c, 0, 65, 97
1, 333238, Note_off_c, 0, 65, 97
1, 333277, Note_on_c, 0, 64, 108
1, 333468, Note_off_c, 0, 64, 108
1, 333481, Note_on_c, 0, 62, 87
1, 333611, Note_off_c, 0, 62, 87
1, 333613, Note_on_c, 0, 63, 98
1, 333891, Note_off_c, 0, 63, 98
1, 333896, Note_on_c, 0, 60, 102
1, 334061, Note_off_c, 0, 60, 102
1, 334117, Note_on_c, 0, 56, 94
1, 334295, Note_off_c, 0, 56, 94
1, 334538, Note_on_c, 0, 55, 93
1, 334998, Note_off_c, 0, 55, 93
1, 335077, Note_on_c, 0, 67, 79
1, 335324, Note_off_c, 0, 67, 79
1, 335425, Note_on_c, 0, 62, 97
1, 335946, Note_off_c, 0, 62, 97
1, 335969, Note_on_c, 0, 62, 87
1, 336412, Note_off_c, 0, 62, 87
1, 336703, Note_on_c, 0, 64, 75
1, 338074, Note_off_c, 0, 64, 75
1, 338074, End_track
0, 0, End_of_file
