0, 0, Header, 1, 1, 5040
1, 0, Start_track
1, 0, Title_t, "Melody"
1, 0, Tempo, 1000000
1, 0, Key_signature, -5, "major"
1, 0, Time_signature, 4, 2, 24, 8
1, 45808, Note_on_c, 0, 54, 107
1, 46978, Note_off_c, 0, 54, 107
1, 47102, Note_on_c, 0, 57, 100
1, 48506, Note_off_c, 0, 57, 100
1, 48685, Note_on_c, 0, 55, 109
1, 49878, Note_off_c, 0, 55, 109
1, 50351, Note_on_c, 0, 61, 110
1, 51616, Note_off_c, 0, 61, 110
1, 51749, Note_on_c, 0, 57, 95
1, 53094, Note_off_c, 0, 57, 95
1, 53229, Note_on_c, 0, 64, 113
1, 54720, Note_off_c, 0, 64, 113
1, 54822, Note_on_c, 0, 66, 102
1, 56148, Note_off_c, 0, 66, 102
1, 56271, Note_on_c, 0, 69, 101
1, 58863, Note_off_c, 0, 69, 101
1, 58897, Note_on_c, 0, 71, 92
1, 59251, Note_off_c, 0, 71, 92
1, 59309, Note_on_c, 0, 73, 96
1, 60482, Note_off_c, 0, 73, 96
1, 60546, Note_on_c, 0, 69, 103
1, 61698, Note_off_c, 0, 69, 103
1, 62181, Note_on_c, 0, 72, 92
1, 62473, Note_off_c, 0, 72, 92
1, 62582, Note_on_c, 0, 73, 96
1, 63540, Note_off_c, 0, 73, 96
1, 63567, Note_on_c, 0, 69, 105
1, 65377, Note_off_c, 0, 69, 105
1, 65623, Note_on_c, 0, 69, 102
1, 67052, Note_off_c, 0, 69, 102
1, 67350, Note_on_c, 0, 69, 102
1, 68543, Note_off_c, 0, 69, 102
1, 68851, Note_on_c, 0, 66, 102
1, 70681, Note_off_c, 0, 66, 102
1, 70804, Note_on_c, 0, 65, 100
1, 72377, Note_off_c, 0, 65, 100
1, 72551, Note_on_c, 0, 66, 96
1, 74803, Note_off_c, 0, 66, 96
1, 75502, Note_on_c, 0, 61, 101
1, 76067, Note_off_c, 0, 61, 101
1, 76159, Note_on_c, 0, 64, 110
1, 76978, Note_off_c, 0, 64, 110
1, 76991, Note_on_c, 0, 62, 100
1, 77649, Note_off_c, 0, 62, 100
1, 77679, Note_on_c, 0, 64, 102
1, 78439, Note_off_c, 0, 64, 102
1, 78580, Note_on_c, 0, 66, 101
1, 80510, Note_off_c, 0, 66, 101
1, 84002, Note_on_c, 0, 66, 104
1, 84392, Note_off_c, 0, 66, 104
1, 84433, Note_on_c, 0, 67, 109
1, 86114, Note_off_c, 0, 67, 109
1, 86165, Note_on_c, 0, 69, 109
1, 86843, Note_off_c, 0, 69, 109
1, 86920, Note_on_c, 0, 70, 107
1, 87573, Note_off_c, 0, 70, 107
1, 87660, Note_on_c, 0, 72, 96
1, 88488, Note_off_c, 0, 72, 96
1, 88534, Note_on_c, 0, 69, 109
1, 90807, Note_off_c, 0, 69, 109
1, 90971, Note_on_c, 0, 70, 105
1, 91994, Note_off_c, 0, 70, 105
1, 92046, Note_on_c, 0, 69, 96
1, 98285, Note_off_c, 0, 69, 96
1, 98471, Note_on_c, 0, 72, 89
1, 98814, Note_off_c, 0, 72, 89
1, 98865, Note_on_c, 0, 73, 87
1, 100177, Note_off_c, 0, 73, 87
1, 100265, Note_on_c, 0, 67, 98
1, 101932, Note_off_c, 0, 67, 98
1, 102033, Note_on_c, 0, 66, 101
1, 104051, Note_off_c, 0, 66, 101
1, 104153, Note_on_c, 0, 64, 102
1, 106376, Note_off_c, 0, 64, 102
1, 106449, Note_on_c, 0, 69, 95
1, 106917, Note_off_c, 0, 69, 95
1, 107004, Note_on_c, 0, 71, 83
1, 113945, Note_off_c, 0, 71, 83
1, 113992, Note_on_c, 0, 69, 92
1, 116501, Note_off_c, 0, 69, 92
1, 116593, Note_on_c, 0, 66, 92
1, 120049, Note_off_c, 0, 66, 92
1, 123731, Note_on_c, 0, 64, 116
1, 126071, Note_off_c, 0, 64, 116
1, 126219, Note_on_c, 0, 61, 106
1, 128647, Note_off_c, 0, 61, 106
1, 128697, Note_on_c, 0, 57, 98
1, 130803, Note_off_c, 0, 57, 98
1, 131041, Note_on_c, 0, 56, 105
1, 131304, Note_off_c, 0, 56, 105
1, 131362, Note_on_c, 0, 57, 100
1, 133402, Note_off_c, 0, 57, 100
1, 133592, Note_on_c, 0, 55, 106
1, 136020, Note_off_c, 0, 55, 106
1, 136151, Note_on_c, 0, 53, 99
1, 140440, Note_off_c, 0, 53, 99
1, 140882, Note_on_c, 0, 55, 107
1, 142640, Note_off_c, 0, 55, 107
1, 142886, Note_on_c, 0, 55, 106
1, 144233, Note_off_c, 0, 55, 106
1, 144435, Note_on_c, 0, 52, 103
1, 146124, Note_off_c, 0, 52, 103
1, 146257, Note_on_c, 0, 50, 99
1, 147892, Note_off_c, 0, 50, 99
1, 148066, Note_on_c, 0, 47, 100
1, 149588, Note_off_c, 0, 47, 100
1, 149680, Note_on_c, 0, 50, 95
1, 151485, Note_off_c, 0, 50, 95
1, 151644, Note_on_c, 0, 45, 101
1, 155490, Note_off_c, 0, 45, 101
1, 156076, Note_on_c, 0, 57, 96
1, 157889, Note_off_c, 0, 57, 96
1, 158039, Note_on_c, 0, 54, 105
1, 159396, Note_off_c, 0, 54, 105
1, 159529, Note_on_c, 0, 55, 94
1, 163684, Note_off_c, 0, 55, 94
1, 164090, Note_on_c, 0, 57, 99
1, 164763, Note_off_c, 0, 57, 99
1, 164845, Note_on_c, 0, 58, 101
1, 165678, Note_off_c, 0, 58, 101
1, 165708, Note_on_c, 0, 64, 113
1, 166392, Note_off_c, 0, 64, 113
1, 166505, Note_on_c, 0, 65, 104
1, 167240, Note_off_c, 0, 65, 104
1, 167435, Note_on_c, 0, 69, 109
1, 168278, Note_off_c, 0, 69, 109
1, 168710, Note_on_c, 0, 72, 105
1, 169599, Note_off_c, 0, 72, 105
1, 169655, Note_on_c, 0, 73, 102
1, 170482, Note_off_c, 0, 73, 102
1, 170559, Note_on_c, 0, 70, 102
1, 171402, Note_off_c, 0, 70, 102
1, 171875, Note_on_c, 0, 65, 106
1, 172605, Note_off_c, 0, 65, 106
1, 172882, Note_on_c, 0, 70, 95
1, 173684, Note_off_c, 0, 70, 95
1, 173848, Note_on_c, 0, 69, 95
1, 175673, Note_off_c, 0, 69, 95
1, 175765, Note_on_c, 0, 64, 99
1, 176603, Note_off_c, 0, 64, 99
1, 176675, Note_on_c, 0, 67, 86
1, 178649, Note_off_c, 0, 67, 86
1, 179008, Note_on_c, 0, 65, 99
1, 180283, Note_off_c, 0, 65, 99
1, 180751, Note_on_c, 0, 57, 97
1, 182630, Note_off_c, 0, 57, 97
1, 182842, Note_on_c, 0, 64, 98
1, 186031, Note_off_c, 0, 64, 98
1, 186104, Note_on_c, 0, 62, 89
1, 188993, Note_off_c, 0, 62, 89
1, 189579, Note_on_c, 0, 59, 91
1, 190988, Note_off_c, 0, 59, 91
1, 191201, Note_on_c, 0, 55, 95
1, 195926, Note_off_c, 0, 55, 95
1, 196035, Note_on_c, 0, 54, 94
1, 201220, Note_off_c, 0, 54, 94
1, 201315, Note_on_c, 0, 53, 93
1, 204145, Note_off_c, 0, 53, 93
1, 204232, Note_on_c, 0, 58, 82
1, 211955, Note_off_c, 0, 58, 82
1, 219057, Note_on_c, 0, 51, 104
1, 220227, Note_off_c, 0, 51, 104
1, 220556, Note_on_c, 0, 53, 107
1, 221477, Note_off_c, 0, 53, 107
1, 221645, Note_on_c, 0, 51, 104
1, 222391, Note_off_c, 0, 51, 104
1, 222559, Note_on_c, 0, 53, 108
1, 223356, Note_off_c, 0, 53, 108
1, 223480, Note_on_c, 0, 51, 101
1, 224130, Note_off_c, 0, 51, 101
1, 224400, Note_on_c, 0, 53, 105
1, 225204, Note_off_c, 0, 53, 105
1, 225335, Note_on_c, 0, 51, 105
1, 226007, Note_off_c, 0, 51, 105
1, 226387, Note_on_c, 0, 53, 119
1, 227045, Note_off_c, 0, 53, 119
1, 227169, Note_on_c, 0, 51, 104
1, 227951, Note_off_c, 0, 51, 104
1, 228484, Note_on_c, 0, 53, 112
1, 229303, Note_off_c, 0, 53, 112
1, 229507, Note_on_c, 0, 51, 108
1, 230406, Note_off_c, 0, 51, 108
1, 230566, Note_on_c, 0, 50, 110
1, 231129, Note_off_c, 0, 50, 110
1, 231319, Note_on_c, 0, 51, 109
1, 231955, Note_off_c, 0, 51, 109
1, 232357, Note_on_c, 0, 53, 113
1, 233329, Note_off_c, 0, 53, 113
1, 233489, Note_on_c, 0, 51, 106
1, 234615, Note_off_c, 0, 51, 106
1, 234790, Note_on_c, 0, 46, 109
1, 236391, Note_off_c, 0, 46, 109
1, 236472, Note_on_c, 0, 55, 103
1, 236770, Note_off_c, 0, 55, 103
1, 236806, Note_on_c, 0, 58, 99
1, 242087, Note_off_c, 0, 58, 99
1, 243497, Note_on_c, 0, 50, 101
1, 243846, Note_off_c, 0, 50, 101
1, 243882, Note_on_c, 0, 52, 99
1, 244211, Note_off_c, 0, 52, 99
1, 244305, Note_on_c, 0, 54, 102
1, 244725, Note_off_c, 0, 54, 102
1, 244761, Note_on_c, 0, 58, 101
1, 245232, Note_off_c, 0, 58, 101
1, 245290, Note_on_c, 0, 57, 105
1, 245743, Note_off_c, 0, 57, 105
1, 245830, Note_on_c, 0, 56, 106
1, 246415, Note_off_c, 0, 56, 106
1, 246480, Note_on_c, 0, 60, 101
1, 247087, Note_off_c, 0, 60, 101
1, 247302, Note_on_c, 0, 56, 110
1, 247810, Note_off_c, 0, 56, 110
1, 247857, Note_on_c, 0, 58, 101
1, 248208, Note_off_c, 0, 58, 101
1, 248248, Note_on_c, 0, 60, 104
1, 248749, Note_off_c, 0, 60, 104
1, 249048, Note_on_c, 0, 64, 102
1, 249340, Note_off_c, 0, 64, 102
1, 249376, Note_on_c, 0, 66, 98
1, 249632, Note_off_c, 0, 66, 98
1, 249675, Note_on_c, 0, 68, 94
1, 250037, Note_off_c, 0, 68, 94
1, 250095, Note_on_c, 0, 72, 82
1, 250720, Note_off_c, 0, 72, 82
1, 250804, Note_on_c, 0, 66, 105
1, 252424, Note_off_c, 0, 66, 105
1, 252672, Note_on_c, 0, 68, 86
1, 253498, Note_off_c, 0, 68, 86
1, 253777, Note_on_c, 0, 65, 86
1, 258549, Note_off_c, 0, 65, 86
1, 263321, Note_on_c, 0, 63, 120
1, 264549, Note_off_c, 0, 63, 120
1, 264766, Note_on_c, 0, 61, 116
1, 266082, Note_off_c, 0, 61, 116
1, 266254, Note_on_c, 0, 60, 109
1, 267512, Note_off_c, 0, 60, 109
1, 267720, Note_on_c, 0, 63, 117
1, 269212, Note_off_c, 0, 63, 117
1, 269383, Note_on_c, 0, 65, 109
1, 270582, Note_off_c, 0, 65, 109
1, 270763, Note_on_c, 0, 68, 110
1, 272050, Note_off_c, 0, 68, 110
1, 272164, Note_on_c, 0, 70, 111
1, 273678, Note_off_c, 0, 70, 111
1, 273751, Note_on_c, 0, 72, 111
1, 278944, Note_off_c, 0, 72, 111
1, 279075, Note_on_c, 0, 68, 109
1, 280179, Note_off_c, 0, 68, 109
1, 280595, Note_on_c, 0, 68, 108
1, 282167, Note_off_c, 0, 68, 108
1, 282364, Note_on_c, 0, 68, 106
1, 283395, Note_off_c, 0, 68, 106
1, 283738, Note_on_c, 0, 71, 100
1, 284017, Note_off_c, 0, 71, 100
1, 284071, Note_on_c, 0, 73, 104
1, 285639, Note_off_c, 0, 73, 104
1, 285674, Note_on_c, 0, 71, 97
1, 291562, Note_off_c, 0, 71, 97
1, 291753, Note_on_c, 0, 73, 89
1, 292462, Note_off_c, 0, 73, 89
1, 292662, Note_on_c, 0, 75, 78
1, 293546, Note_off_c, 0, 75, 78
1, 293792, Note_on_c, 0, 70, 88
1, 302390, Note_off_c, 0, 70, 88
1, 304942, Note_on_c, 0, 73, 107
1, 306090, Note_off_c, 0, 73, 107
1, 306163, Note_on_c, 0, 70, 107
1, 307421, Note_off_c, 0, 70, 107
1, 307829, Note_on_c, 0, 66, 112
1, 309546, Note_off_c, 0, 66, 112
1, 309731, Note_on_c, 0, 67, 105
1, 310029, Note_off_c, 0, 67, 105
1, 310065, Note_on_c, 0, 68, 102
1, 312281, Note_off_c, 0, 68, 102
1, 312685, Note_on_c, 0, 65, 10
1, 317073, Note_off_c, 0, 65, 10
1, 319131, Note_on_c, 0, 60, 115
1, 319844, Note_off_c, 0, 60, 115
1, 319909, Note_on_c, 0, 61, 109
1, 320282, Note_off_c, 0, 61, 109
1, 320336, Note_on_c, 0, 63, 112
1, 320577, Note_off_c, 0, 63, 112
1, 320610, Note_on_c, 0, 67, 97
1, 320806, Note_off_c, 0, 67, 97
1, 320828, Note_on_c, 0, 69, 99
1, 321086, Note_off_c, 0, 69, 99
1, 321131, Note_on_c, 0, 71, 100
1, 321422, Note_off_c, 0, 71, 100
1, 321462, Note_on_c, 0, 67, 104
1, 321915, Note_off_c, 0, 67, 104
1, 321977, Note_on_c, 0, 68, 102
1, 322335, Note_off_c, 0, 68, 102
1, 322382, Note_on_c, 0, 69, 107
1, 322908, Note_off_c, 0, 69, 107
1, 323166, Note_on_c, 0, 60, 100
1, 323407, Note_off_c, 0, 60, 100
1, 323487, Note_on_c, 0, 63, 111
1, 323793, Note_off_c, 0, 63, 111
1, 323835, Note_on_c, 0, 67, 107
1, 324207, Note_off_c, 0, 67, 107
1, 324325, Note_on_c, 0, 64, 113
1, 324654, Note_off_c, 0, 64, 113
1, 324726, Note_on_c, 0, 65, 114
1, 325148, Note_off_c, 0, 65, 114
1, 325243, Note_on_c, 0, 66, 113
1, 325535, Note_off_c, 0, 66, 113
1, 325652, Note_on_c, 0, 69, 96
1, 325968, Note_off_c, 0, 69, 96
1, 326010, Note_on_c, 0, 66, 117
1, 326480, Note_off_c, 0, 66, 117
1, 326552, Note_on_c, 0, 65, 114
1, 326916, Note_off_c, 0, 65, 114
1, 326938, Note_on_c, 0, 64, 115
1, 327212, Note_off_c, 0, 64, 115
1, 327264, Note_on_c, 0, 63, 112
1, 327756, Note_off_c, 0, 63, 112
1, 328038, Note_on_c, 0, 69, 92
1, 328356, Note_off_c, 0, 69, 92
1, 328454, Note_on_c, 0, 65, 107
1, 329017, Note_off_c, 0, 65, 107
1, 329075, Note_on_c, 0, 61, 96
1, 329329, Note_off_c, 0, 61, 96
1, 329394, Note_on_c, 0, 60, 107
1, 329964, Note_off_c, 0, 60, 107
1, 330029, Note_on_c, 0, 58, 106
1, 330466, Note_off_c, 0, 58, 106
1, 330601, Note_on_c, 0, 53, 96
1, 330966, Note_off_c, 0, 53, 96
1, 331092, Note_on_c, 0, 56, 108
1, 331358, Note_off_c, 0, 56, 108
1, 331398, Note_on_c, 0, 57, 105
1, 331873, Note_off_c, 0, 57, 105
1, 332069, Note_on_c, 0, 63, 99
1, 332458, Note_off_c, 0, 63, 99
1, 332485, Note_on_c, 0, 60, 95
1, 332970, Note_off_c, 0, 60, 95
1, 333399, Note_on_c, 0, 58, 103
1, 333913, Note_off_c, 0, 58, 103
1, 333927, Note_on_c, 0, 55, 108
1, 334530, Note_off_c, 0, 55, 108
1, 334621, Note_on_c, 0, 51, 99
1, 335176, Note_off_c, 0, 51, 99
1, 335553, Note_on_c, 0, 55, 103
1, 336075, Note_off_c, 0, 55, 103
1, 336111, Note_on_c, 0, 57, 104
1, 337054, Note_off_c, 0, 57, 104
1, 337105, Note_on_c, 0, 54, 99
1, 337281, Note_off_c, 0, 54, 99
1, 337306, Note_on_c, 0, 51, 100
1, 337748, Note_off_c, 0, 51, 100
1, 337815, Note_on_c, 0, 48, 102
1, 338204, Note_off_c, 0, 48, 102
1, 338239, Note_on_c, 0, 46, 109
1, 338765, Note_off_c, 0, 46, 109
1, 338794, Note_on_c, 0, 45, 110
1, 340549, Note_off_c, 0, 45, 110
1, 343935, Note_on_c, 0, 63, 109
1, 344549, Note_off_c, 0, 63, 109
1, 344585, Note_on_c, 0, 65, 112
1, 345989, Note_off_c, 0, 65, 112
1, 346230, Note_on_c, 0, 58, 103
1, 347239, Note_off_c, 0, 58, 103
1, 347414, Note_on_c, 0, 61, 119
1, 349381, Note_off_c, 0, 61, 119
1, 349534, Note_on_c, 0, 61, 106
1, 352225, Note_off_c, 0, 61, 106
1, 354484, Note_on_c, 0, 63, 124
1, 355636, Note_off_c, 0, 63, 124
1, 355841, Note_on_c, 0, 65, 122
1, 357013, Note_off_c, 0, 65, 122
1, 357146, Note_on_c, 0, 66, 121
1, 358565, Note_off_c, 0, 66, 121
1, 358755, Note_on_c, 0, 68, 117
1, 360699, Note_off_c, 0, 68, 117
1, 360894, Note_on_c, 0, 68, 117
1, 362148, Note_off_c, 0, 68, 117
1, 362235, Note_on_c, 0, 71, 115
1, 363237, Note_off_c, 0, 71, 115
1, 363309, Note_on_c, 0, 69, 111
1, 364255, Note_off_c, 0, 69, 111
1, 364733, Note_on_c, 0, 75, 127
1, 368258, Note_off_c, 0, 75, 127
1, 368433, Note_on_c, 0, 71, 105
1, 372529, Note_off_c, 0, 71, 105
1, 372602, Note_on_c, 0, 69, 92
1, 391794, Note_off_c, 0, 69, 92
1, 395275, Note_on_c, 0, 68, 112
1, 396211, Note_off_c, 0, 68, 112
1, 396357, Note_on_c, 0, 65, 112
1, 397293, Note_off_c, 0, 65, 112
1, 397468, Note_on_c, 0, 72, 96
1, 398609, Note_off_c, 0, 72, 96
1, 398609, Note_on_c, 0, 68, 104
1, 399750, Note_off_c, 0, 68, 104
1, 399750, Note_on_c, 0, 65, 109
1, 400803, Note_off_c, 0, 65, 109
1, 400898, Note_on_c, 0, 68, 97
1, 402097, Note_off_c, 0, 68, 97
1, 402172, Note_on_c, 0, 66, 108
1, 403612, Note_off_c, 0, 66, 108
1, 404105, Note_on_c, 0, 58, 104
1, 405118, Note_off_c, 0, 58, 104
1, 405251, Note_on_c, 0, 65, 106
1, 406675, Note_off_c, 0, 65, 106
1, 406772, Note_on_c, 0, 63, 110
1, 408664, Note_off_c, 0, 63, 110
1, 408736, Note_on_c, 0, 64, 109
1, 411641, Note_off_c, 0, 64, 109
1, 411709, Note_on_c, 0, 60, 103
1, 415058, Note_off_c, 0, 60, 103
1, 415145, Note_on_c, 0, 61, 95
1, 415602, Note_off_c, 0, 61, 95
1, 415649, Note_on_c, 0, 63, 98
1, 423214, Note_off_c, 0, 63, 98
1, 423379, Note_on_c, 0, 60, 88
1, 477446, Note_off_c, 0, 60, 88
1, 477446, End_track
0, 0, End_of_file
