0, 0, Header, 1, 1, 192
1, 0, Start_track
1, 0, Note_on_c, 0, 67, 83
1, 66, Note_off_c, 0, 67, 83
1, 77, Note_on_c, 0, 65, 87
1, 161, Note_off_c, 0, 65, 87
1, 166, Note_on_c, 0, 63, 96
1, 259, Note_off_c, 0, 63, 96
1, 269, Note_on_c, 0, 62, 89
1, 350, Note_off_c, 0, 62, 89
1, 372, Note_on_c, 0, 63, 96
1, 465, Note_off_c, 0, 63, 96
1, 478, Note_on_c, 0, 65, 86
1, 541, Note_off_c, 0, 65, 86
1, 576, Note_on_c, 0, 67, 93
1, 663, Note_off_c, 0, 67, 93
1, 686, Note_on_c, 0, 70, 96
1, 767, Note_off_c, 0, 70, 96
1, 776, Note_on_c, 0, 71, 97
1, 816, Title_t, "Melody"
1, 816, Tempo, 298507
1, 816, Key_signature, -3, "major"
1, 816, Time_signature, 4, 2, 24, 8
1, 829, Note_off_c, 0, 71, 97
1, 840, Note_on_c, 0, 72, 88
1, 890, Note_off_c, 0, 72, 88
1, 897, Note_on_c, 0, 73, 81
1, 977, Note_off_c, 0, 73, 81
1, 988, Note_on_c, 0, 74, 88
1, 1113, Note_off_c, 0, 74, 88
1, 1135, Note_on_c, 0, 71, 90
1, 1199, Note_off_c, 0, 71, 90
1, 1215, Note_on_c, 0, 67, 92
1, 1297, Note_off_c, 0, 67, 92
1, 1392, Note_on_c, 0, 70, 97
1, 1464, Note_off_c, 0, 70, 97
1, 1527, Note_on_c, 0, 71, 97
1, 1698, Note_off_c, 0, 71, 97
1, 1729, Note_on_c, 0, 66, 85
1, 1782, Note_off_c, 0, 66, 85
1, 1796, Note_on_c, 0, 70, 92
1, 1870, Note_off_c, 0, 70, 92
1, 1891, Note_on_c, 0, 67, 94
1, 1965, Note_off_c, 0, 67, 94
1, 1980, Note_on_c, 0, 65, 96
1, 2026, Note_off_c, 0, 65, 96
1, 2085, Note_on_c, 0, 65, 93
1, 2134, Note_off_c, 0, 65, 93
1, 2159, Note_on_c, 0, 67, 101
1, 2257, Note_off_c, 0, 67, 101
1, 2518, Note_on_c, 0, 65, 106
1, 2624, Note_off_c, 0, 65, 106
1, 2633, Note_on_c, 0, 63, 107
1, 2700, Note_off_c, 0, 63, 107
1, 2922, Note_on_c, 0, 62, 109
1, 3037, Note_off_c, 0, 62, 109
1, 3046, Note_on_c, 0, 63, 94
1, 3099, Note_off_c, 0, 63, 94
1, 3127, Note_on_c, 0, 65, 100
1, 3285, Note_off_c, 0, 65, 100
1, 3300, Note_on_c, 0, 63, 102
1, 3464, Note_off_c, 0, 63, 102
1, 3498, Note_on_c, 0, 60, 90
1, 3598, Note_off_c, 0, 60, 90
1, 3662, Note_on_c, 0, 63, 85
1, 4049, Note_off_c, 0, 63, 85
1, 4079, Note_on_c, 0, 65, 96
1, 4215, Note_off_c, 0, 65, 96
1, 4640, Note_on_c, 0, 67, 110
1, 4766, Note_off_c, 0, 67, 110
1, 4769, Note_on_c, 0, 65, 105
1, 4841, Note_off_c, 0, 65, 105
1, 4848, Note_on_c, 0, 63, 111
1, 4966, Note_off_c, 0, 63, 111
1, 4987, Note_on_c, 0, 62, 106
1, 5067, Note_off_c, 0, 62, 106
1, 5143, Note_on_c, 0, 60, 102
1, 5247, Note_off_c, 0, 60, 102
1, 5352, Note_on_c, 0, 63, 111
1, 5443, Note_off_c, 0, 63, 111
1, 5620, Note_on_c, 0, 62, 108
1, 5747, Note_off_c, 0, 62, 108
1, 5777, Note_on_c, 0, 58, 90
1, 5899, Note_off_c, 0, 58, 90
1, 6010, Note_on_c, 0, 62, 109
1, 6126, Note_off_c, 0, 62, 109
1, 6378, Note_on_c, 0, 60, 107
1, 6503, Note_off_c, 0, 60, 107
1, 6514, Note_on_c, 0, 58, 92
1, 6575, Note_off_c, 0, 58, 92
1, 6599, Note_on_c, 0, 55, 81
1, 6753, Note_off_c, 0, 55, 81
1, 6766, Note_on_c, 0, 55, 84
1, 7115, Note_off_c, 0, 55, 84
1, 7131, Note_on_c, 0, 55, 92
1, 7213, Note_off_c, 0, 55, 92
1, 8463, Note_on_c, 0, 67, 106
1, 8596, Note_off_c, 0, 67, 106
1, 8668, Note_on_c, 0, 71, 105
1, 9032, Note_off_c, 0, 71, 105
1, 9045, Note_on_c, 0, 74, 101
1, 9143, Note_off_c, 0, 74, 101
1, 9217, Note_on_c, 0, 65, 96
1, 9303, Note_off_c, 0, 65, 96
1, 9784, Note_on_c, 0, 63, 113
1, 10095, Note_off_c, 0, 63, 113
1, 10195, Note_on_c, 0, 72, 103
1, 10324, Note_off_c, 0, 72, 103
1, 10372, Note_on_c, 0, 62, 90
1, 10535, Note_off_c, 0, 62, 90
1, 10556, Note_on_c, 0, 60, 87
1, 10716, Note_off_c, 0, 60, 87
1, 10742, Note_on_c, 0, 63, 102
1, 10927, Note_off_c, 0, 63, 102
1, 10938, Note_on_c, 0, 57, 89
1, 11069, Note_off_c, 0, 57, 89
1, 11871, Note_on_c, 0, 67, 111
1, 11995, Note_off_c, 0, 67, 111
1, 12090, Note_on_c, 0, 70, 108
1, 12202, Note_off_c, 0, 70, 108
1, 12268, Note_on_c, 0, 71, 105
1, 12365, Note_off_c, 0, 71, 105
1, 12400, Note_on_c, 0, 74, 98
1, 12459, Note_off_c, 0, 74, 98
1, 12500, Note_on_c, 0, 67, 98
1, 12600, Note_off_c, 0, 67, 98
1, 12634, Note_on_c, 0, 71, 99
1, 12735, Note_off_c, 0, 71, 99
1, 12799, Note_on_c, 0, 70, 99
1, 12898, Note_off_c, 0, 70, 99
1, 12991, Note_on_c, 0, 67, 103
1, 13065, Note_off_c, 0, 67, 103
1, 13156, Note_on_c, 0, 63, 84
1, 13192, Note_off_c, 0, 63, 84
1, 13253, Note_on_c, 0, 65, 110
1, 13329, Note_off_c, 0, 65, 110
1, 13363, Note_on_c, 0, 62, 104
1, 13429, Note_off_c, 0, 62, 104
1, 13430, Note_on_c, 0, 63, 103
1, 13510, Note_off_c, 0, 63, 103
1, 13527, Note_on_c, 0, 67, 106
1, 13604, Note_off_c, 0, 67, 106
1, 13613, Note_on_c, 0, 66, 101
1, 13673, Note_off_c, 0, 66, 101
1, 13718, Note_on_c, 0, 62, 101
1, 13763, Note_off_c, 0, 62, 101
1, 13796, Note_on_c, 0, 65, 106
1, 13959, Note_off_c, 0, 65, 106
1, 13977, Note_on_c, 0, 63, 112
1, 14062, Note_off_c, 0, 63, 112
1, 14071, Note_on_c, 0, 62, 104
1, 14140, Note_off_c, 0, 62, 104
1, 14166, Note_on_c, 0, 60, 100
1, 14245, Note_off_c, 0, 60, 100
1, 14279, Note_on_c, 0, 58, 89
1, 14411, Note_off_c, 0, 58, 89
1, 14454, Note_on_c, 0, 62, 106
1, 14539, Note_off_c, 0, 62, 106
1, 14539, Note_on_c, 0, 59, 80
1, 14666, Note_off_c, 0, 59, 80
1, 14713, Note_on_c, 0, 60, 103
1, 14839, Note_off_c, 0, 60, 103
1, 14870, Note_on_c, 0, 58, 90
1, 14914, Note_off_c, 0, 58, 90
1, 15090, Note_on_c, 0, 53, 95
1, 15219, Note_off_c, 0, 53, 95
1, 15502, Note_on_c, 0, 51, 92
1, 15645, Note_off_c, 0, 51, 92
1, 15698, Note_on_c, 0, 53, 88
1, 15757, Note_off_c, 0, 53, 88
1, 15784, Note_on_c, 0, 55, 90
1, 15871, Note_off_c, 0, 55, 90
1, 16254, Note_on_c, 0, 58, 95
1, 16369, Note_off_c, 0, 58, 95
1, 16453, Note_on_c, 0, 56, 91
1, 16554, Note_off_c, 0, 56, 91
1, 16590, Note_on_c, 0, 55, 87
1, 16722, Note_off_c, 0, 55, 87
1, 16960, Note_on_c, 0, 62, 97
1, 17010, Note_off_c, 0, 62, 97
1, 17039, Note_on_c, 0, 65, 106
1, 17141, Note_off_c, 0, 65, 106
1, 17170, Note_on_c, 0, 63, 104
1, 17306, Note_off_c, 0, 63, 104
1, 17331, Note_on_c, 0, 65, 99
1, 17417, Note_off_c, 0, 65, 99
1, 17435, Note_on_c, 0, 66, 90
1, 17527, Note_off_c, 0, 66, 90
1, 17537, Note_on_c, 0, 67, 93
1, 17577, Note_off_c, 0, 67, 93
1, 17609, Note_on_c, 0, 70, 101
1, 17698, Note_off_c, 0, 70, 101
1, 17705, Note_on_c, 0, 69, 98
1, 17795, Note_off_c, 0, 69, 98
1, 17804, Note_on_c, 0, 68, 105
1, 17894, Note_off_c, 0, 68, 105
1, 17997, Note_on_c, 0, 66, 94
1, 18060, Note_off_c, 0, 66, 94
1, 18087, Note_on_c, 0, 68, 107
1, 18152, Note_off_c, 0, 68, 107
1, 18167, Note_on_c, 0, 67, 87
1, 18248, Note_off_c, 0, 67, 87
1, 18267, Note_on_c, 0, 64, 94
1, 18325, Note_off_c, 0, 64, 94
1, 18360, Note_on_c, 0, 65, 99
1, 18463, Note_off_c, 0, 65, 99
1, 18481, Note_on_c, 0, 61, 98
1, 18568, Note_off_c, 0, 61, 98
1, 18694, Note_on_c, 0, 54, 88
1, 18800, Note_off_c, 0, 54, 88
1, 18899, Note_on_c, 0, 56, 91
1, 19012, Note_off_c, 0, 56, 91
1, 19110, Note_on_c, 0, 54, 85
1, 19196, Note_off_c, 0, 54, 85
1, 19204, Note_on_c, 0, 58, 92
1, 19265, Note_off_c, 0, 58, 92
1, 19272, Note_on_c, 0, 52, 94
1, 19453, Note_off_c, 0, 52, 94
1, 19561, Note_on_c, 0, 54, 93
1, 19741, Note_off_c, 0, 54, 93
1, 20284, Note_on_c, 0, 48, 105
1, 20382, Note_off_c, 0, 48, 105
1, 20401, Note_on_c, 0, 51, 98
1, 20482, Note_off_c, 0, 51, 98
1, 20496, Note_on_c, 0, 53, 101
1, 20577, Note_off_c, 0, 53, 101
1, 20592, Note_on_c, 0, 51, 91
1, 20704, Note_off_c, 0, 51, 91
1, 20743, Note_on_c, 0, 54, 96
1, 20805, Note_off_c, 0, 54, 96
1, 20811, Note_on_c, 0, 58, 94
1, 20896, Note_off_c, 0, 58, 94
1, 20965, Note_on_c, 0, 56, 82
1, 21076, Note_off_c, 0, 56, 82
1, 21088, Note_on_c, 0, 60, 105
1, 21131, Note_off_c, 0, 60, 105
1, 21313, Note_on_c, 0, 58, 88
1, 21400, Note_off_c, 0, 58, 88
1, 21497, Note_on_c, 0, 62, 103
1, 21537, Note_off_c, 0, 62, 103
1, 21538, Note_on_c, 0, 63, 102
1, 21583, Note_off_c, 0, 63, 102
1, 21597, Note_on_c, 0, 65, 90
1, 21655, Note_off_c, 0, 65, 90
1, 21691, Note_on_c, 0, 67, 96
1, 21769, Note_off_c, 0, 67, 96
1, 21804, Note_on_c, 0, 68, 103
1, 21928, Note_off_c, 0, 68, 103
1, 21970, Note_on_c, 0, 67, 103
1, 22078, Note_off_c, 0, 67, 103
1, 22306, Note_on_c, 0, 65, 103
1, 22453, Note_off_c, 0, 65, 103
1, 22455, Note_on_c, 0, 64, 86
1, 22527, Note_off_c, 0, 64, 86
1, 22534, Note_on_c, 0, 65, 98
1, 22631, Note_off_c, 0, 65, 98
1, 22722, Note_on_c, 0, 65, 106
1, 22827, Note_off_c, 0, 65, 106
1, 22844, Note_on_c, 0, 63, 105
1, 22934, Note_off_c, 0, 63, 105
1, 22946, Note_on_c, 0, 62, 95
1, 23031, Note_off_c, 0, 62, 95
1, 23044, Note_on_c, 0, 60, 97
1, 23098, Note_off_c, 0, 60, 97
1, 23104, Note_on_c, 0, 59, 94
1, 23204, Note_off_c, 0, 59, 94
1, 23311, Note_on_c, 0, 62, 104
1, 23414, Note_off_c, 0, 62, 104
1, 23431, Note_on_c, 0, 60, 88
1, 23484, Note_off_c, 0, 60, 88
1, 23494, Note_on_c, 0, 60, 94
1, 23591, Note_off_c, 0, 60, 94
1, 23602, Note_on_c, 0, 62, 98
1, 23692, Note_off_c, 0, 62, 98
1, 23758, Note_on_c, 0, 63, 83
1, 23800, Note_off_c, 0, 63, 83
1, 23816, Note_on_c, 0, 67, 89
1, 23878, Note_off_c, 0, 67, 89
1, 23881, Note_on_c, 0, 72, 104
1, 23990, Note_off_c, 0, 72, 104
1, 24663, Note_on_c, 0, 71, 108
1, 24703, Note_off_c, 0, 71, 108
1, 24707, Note_on_c, 0, 72, 104
1, 24754, Note_off_c, 0, 72, 104
1, 24779, Note_on_c, 0, 75, 93
1, 25139, Note_off_c, 0, 75, 93
1, 25263, Note_on_c, 0, 74, 95
1, 25336, Note_off_c, 0, 74, 95
1, 25351, Note_on_c, 0, 71, 98
1, 25418, Note_off_c, 0, 71, 98
1, 25427, Note_on_c, 0, 67, 100
1, 25684, Note_off_c, 0, 67, 100
1, 25721, Note_on_c, 0, 71, 98
1, 25787, Note_off_c, 0, 71, 98
1, 25796, Note_on_c, 0, 69, 103
1, 25896, Note_off_c, 0, 69, 103
1, 25911, Note_on_c, 0, 65, 99
1, 25977, Note_off_c, 0, 65, 99
1, 26458, Note_on_c, 0, 65, 105
1, 26528, Note_off_c, 0, 65, 105
1, 26565, Note_on_c, 0, 69, 104
1, 26650, Note_off_c, 0, 69, 104
1, 26657, Note_on_c, 0, 71, 98
1, 26731, Note_on_c, 0, 75, 90
1, 26731, Note_off_c, 0, 71, 98
1, 26836, Note_off_c, 0, 75, 90
1, 26857, Note_on_c, 0, 71, 87
1, 26909, Note_off_c, 0, 71, 87
1, 26922, Note_on_c, 0, 74, 101
1, 27020, Note_off_c, 0, 74, 101
1, 27038, Note_on_c, 0, 71, 98
1, 27079, Note_off_c, 0, 71, 98
1, 27110, Note_on_c, 0, 67, 96
1, 27192, Note_off_c, 0, 67, 96
1, 27303, Note_on_c, 0, 69, 102
1, 27416, Note_off_c, 0, 69, 102
1, 27475, Note_on_c, 0, 74, 93
1, 27592, Note_off_c, 0, 74, 93
1, 27613, Note_on_c, 0, 72, 95
1, 27692, Note_off_c, 0, 72, 95
1, 27849, Note_on_c, 0, 71, 105
1, 27964, Note_off_c, 0, 71, 105
1, 27975, Note_on_c, 0, 69, 105
1, 28044, Note_off_c, 0, 69, 105
1, 28070, Note_on_c, 0, 68, 104
1, 28155, Note_off_c, 0, 68, 104
1, 28176, Note_on_c, 0, 71, 100
1, 28228, Note_off_c, 0, 71, 100
1, 28250, Note_on_c, 0, 68, 100
1, 28362, Note_off_c, 0, 68, 100
1, 28368, Note_on_c, 0, 67, 99
1, 28431, Note_off_c, 0, 67, 99
1, 28439, Note_on_c, 0, 66, 95
1, 28532, Note_off_c, 0, 66, 95
1, 28561, Note_on_c, 0, 67, 98
1, 28641, Note_off_c, 0, 67, 98
1, 28649, Note_on_c, 0, 68, 99
1, 28737, Note_off_c, 0, 68, 99
1, 28744, Note_on_c, 0, 71, 94
1, 28822, Note_off_c, 0, 71, 94
1, 28842, Note_on_c, 0, 66, 98
1, 28947, Note_off_c, 0, 66, 98
1, 29022, Note_on_c, 0, 64, 103
1, 29132, Note_off_c, 0, 64, 103
1, 29149, Note_on_c, 0, 66, 95
1, 29399, Note_off_c, 0, 66, 95
1, 29424, Note_on_c, 0, 63, 100
1, 29483, Note_off_c, 0, 63, 100
1, 29615, Note_on_c, 0, 67, 92
1, 29856, Note_off_c, 0, 67, 92
1, 30534, Note_on_c, 0, 66, 113
1, 30654, Note_off_c, 0, 66, 113
1, 30659, Note_on_c, 0, 65, 106
1, 31287, Note_off_c, 0, 65, 106
1, 31290, Note_on_c, 0, 63, 111
1, 31390, Note_off_c, 0, 63, 111
1, 31506, Note_on_c, 0, 67, 106
1, 31865, Note_off_c, 0, 67, 106
1, 31910, Note_on_c, 0, 65, 100
1, 31998, Note_off_c, 0, 65, 100
1, 32004, Note_on_c, 0, 63, 106
1, 32068, Note_off_c, 0, 63, 106
1, 32098, Note_on_c, 0, 59, 87
1, 32159, Note_off_c, 0, 59, 87
1, 32171, Note_on_c, 0, 55, 93
1, 32243, Note_off_c, 0, 55, 93
1, 32973, Note_on_c, 0, 58, 95
1, 33043, Note_off_c, 0, 58, 95
1, 33061, Note_on_c, 0, 57, 97
1, 33109, Note_off_c, 0, 57, 97
1, 33114, Note_on_c, 0, 55, 98
1, 33154, Note_off_c, 0, 55, 98
1, 33155, Note_on_c, 0, 54, 98
1, 33206, Note_off_c, 0, 54, 98
1, 33210, Note_on_c, 0, 55, 96
1, 33257, Note_off_c, 0, 55, 96
1, 33264, Note_on_c, 0, 57, 100
1, 33313, Note_off_c, 0, 57, 100
1, 33325, Note_on_c, 0, 54, 106
1, 33352, Note_off_c, 0, 54, 106
1, 33355, Note_on_c, 0, 53, 111
1, 33376, Note_off_c, 0, 53, 111
1, 33381, Note_on_c, 0, 52, 110
1, 33436, Note_off_c, 0, 52, 110
1, 33444, Note_on_c, 0, 53, 108
1, 33503, Note_off_c, 0, 53, 108
1, 33507, Note_on_c, 0, 50, 97
1, 33549, Note_off_c, 0, 50, 97
1, 33553, Note_on_c, 0, 51, 106
1, 33622, Note_off_c, 0, 51, 106
1, 33625, Note_on_c, 0, 52, 94
1, 33652, Note_off_c, 0, 52, 94
1, 33653, Note_on_c, 0, 54, 97
1, 33693, Note_off_c, 0, 54, 97
1, 33700, Note_on_c, 0, 56, 94
1, 33738, Note_off_c, 0, 56, 94
1, 33751, Note_on_c, 0, 55, 98
1, 33794, Note_off_c, 0, 55, 98
1, 33801, Note_on_c, 0, 53, 95
1, 33852, Note_off_c, 0, 53, 95
1, 33854, Note_on_c, 0, 55, 89
1, 33904, Note_off_c, 0, 55, 89
1, 33923, Note_on_c, 0, 58, 95
1, 34035, Note_off_c, 0, 58, 95
1, 34036, Note_on_c, 0, 56, 96
1, 34067, Note_off_c, 0, 56, 96
1, 34073, Note_on_c, 0, 55, 107
1, 34106, Note_off_c, 0, 55, 107
1, 34108, Note_on_c, 0, 56, 97
1, 34181, Note_off_c, 0, 56, 97
1, 34200, Note_on_c, 0, 56, 99
1, 34235, Note_off_c, 0, 56, 99
1, 34244, Note_on_c, 0, 63, 114
1, 34310, Note_off_c, 0, 63, 114
1, 34310, Note_on_c, 0, 58, 92
1, 34360, Note_off_c, 0, 58, 92
1, 34364, Note_on_c, 0, 59, 90
1, 34397, Note_off_c, 0, 59, 90
1, 34411, Note_on_c, 0, 61, 101
1, 34433, Note_off_c, 0, 61, 101
1, 34438, Note_on_c, 0, 62, 103
1, 34467, Note_off_c, 0, 62, 103
1, 34474, Note_on_c, 0, 65, 103
1, 34582, Note_off_c, 0, 65, 103
1, 34586, Note_on_c, 0, 63, 108
1, 34628, Note_off_c, 0, 63, 108
1, 34628, Note_on_c, 0, 62, 109
1, 34658, Note_off_c, 0, 62, 109
1, 34658, Note_on_c, 0, 64, 110
1, 34696, Note_off_c, 0, 64, 110
1, 34704, Note_on_c, 0, 68, 100
1, 34753, Note_off_c, 0, 68, 100
1, 34822, Note_on_c, 0, 70, 97
1, 34871, Note_off_c, 0, 70, 97
1, 34874, Note_on_c, 0, 67, 98
1, 34914, Note_off_c, 0, 67, 98
1, 34917, Note_on_c, 0, 66, 102
1, 34956, Note_off_c, 0, 66, 102
1, 34960, Note_on_c, 0, 65, 104
1, 35003, Note_off_c, 0, 65, 104
1, 35008, Note_on_c, 0, 64, 89
1, 35037, Note_off_c, 0, 64, 89
1, 35074, Note_on_c, 0, 68, 92
1, 35169, Note_off_c, 0, 68, 92
1, 35245, Note_on_c, 0, 66, 88
1, 35326, Note_off_c, 0, 66, 88
1, 35336, Note_on_c, 0, 64, 102
1, 35368, Note_off_c, 0, 64, 102
1, 35375, Note_on_c, 0, 65, 98
1, 35445, Note_off_c, 0, 65, 98
1, 35447, Note_on_c, 0, 63, 102
1, 35509, Note_off_c, 0, 63, 102
1, 35512, Note_on_c, 0, 64, 98
1, 35618, Note_off_c, 0, 64, 98
1, 36022, Note_on_c, 0, 63, 125
1, 36083, Note_off_c, 0, 63, 125
1, 36085, Note_on_c, 0, 62, 117
1, 36126, Note_off_c, 0, 62, 117
1, 36128, Note_on_c, 0, 61, 111
1, 36175, Note_off_c, 0, 61, 111
1, 36177, Note_on_c, 0, 58, 102
1, 36204, Note_off_c, 0, 58, 102
1, 36215, Note_on_c, 0, 58, 97
1, 36279, Note_off_c, 0, 58, 97
1, 36295, Note_on_c, 0, 57, 101
1, 36337, Note_off_c, 0, 57, 101
1, 36358, Note_on_c, 0, 55, 96
1, 36442, Note_off_c, 0, 55, 96
1, 36448, Note_on_c, 0, 58, 90
1, 36502, Note_off_c, 0, 58, 90
1, 36507, Note_on_c, 0, 63, 109
1, 36635, Note_off_c, 0, 63, 109
1, 36646, Note_on_c, 0, 55, 101
1, 36703, Note_off_c, 0, 55, 101
1, 36717, Note_on_c, 0, 53, 96
1, 36757, Note_off_c, 0, 53, 96
1, 36763, Note_on_c, 0, 50, 95
1, 36812, Note_off_c, 0, 50, 95
1, 36827, Note_on_c, 0, 54, 92
1, 36861, Note_off_c, 0, 54, 92
1, 36874, Note_on_c, 0, 57, 102
1, 36909, Note_off_c, 0, 57, 102
1, 36914, Note_on_c, 0, 56, 103
1, 36949, Note_off_c, 0, 56, 103
1, 36954, Note_on_c, 0, 53, 93
1, 36993, Note_off_c, 0, 53, 93
1, 36995, Note_on_c, 0, 49, 91
1, 37040, Note_off_c, 0, 49, 91
1, 37044, Note_on_c, 0, 53, 99
1, 37117, Note_off_c, 0, 53, 99
1, 37124, Note_on_c, 0, 51, 99
1, 37180, Note_off_c, 0, 51, 99
1, 37180, Note_on_c, 0, 50, 92
1, 37237, Note_off_c, 0, 50, 92
1, 37330, Note_on_c, 0, 57, 94
1, 37381, Note_off_c, 0, 57, 94
1, 37392, Note_on_c, 0, 62, 94
1, 37450, Note_off_c, 0, 62, 94
1, 37464, Note_on_c, 0, 57, 94
1, 37516, Note_off_c, 0, 57, 94
1, 37604, Note_on_c, 0, 65, 101
1, 37653, Note_off_c, 0, 65, 101
1, 37659, Note_on_c, 0, 68, 99
1, 37708, Note_off_c, 0, 68, 99
1, 37715, Note_on_c, 0, 67, 95
1, 37740, Note_off_c, 0, 67, 95
1, 37740, Note_on_c, 0, 65, 37
1, 37791, Note_off_c, 0, 65, 37
1, 37798, Note_on_c, 0, 63, 102
1, 37861, Note_off_c, 0, 63, 102
1, 37866, Note_on_c, 0, 62, 95
1, 37925, Note_off_c, 0, 62, 95
1, 37937, Note_on_c, 0, 63, 94
1, 38002, Note_off_c, 0, 63, 94
1, 38012, Note_on_c, 0, 67, 85
1, 38033, Note_off_c, 0, 67, 85
1, 38062, Note_on_c, 0, 70, 85
1, 38117, Note_off_c, 0, 70, 85
1, 38123, Note_on_c, 0, 75, 85
1, 38198, Note_off_c, 0, 75, 85
1, 38204, Note_on_c, 0, 72, 96
1, 38279, Note_off_c, 0, 72, 96
1, 38995, Note_on_c, 0, 81, 94
1, 39468, Note_off_c, 0, 81, 94
1, 39478, Note_on_c, 0, 79, 89
1, 39908, Note_off_c, 0, 79, 89
1, 39929, Note_on_c, 0, 82, 89
1, 40056, Note_off_c, 0, 82, 89
1, 40074, Note_on_c, 0, 79, 91
1, 40398, Note_off_c, 0, 79, 91
1, 40412, Note_on_c, 0, 83, 92
1, 40468, Note_off_c, 0, 83, 92
1, 40478, Note_on_c, 0, 82, 98
1, 40518, Note_off_c, 0, 82, 98
1, 40535, Note_on_c, 0, 79, 95
1, 40695, Note_off_c, 0, 79, 95
1, 40717, Note_on_c, 0, 82, 94
1, 40820, Note_off_c, 0, 82, 94
1, 40825, Note_on_c, 0, 78, 98
1, 40869, Note_off_c, 0, 78, 98
1, 40874, Note_on_c, 0, 79, 91
1, 41202, Note_off_c, 0, 79, 91
1, 41272, Note_on_c, 0, 77, 70
1, 41635, Note_off_c, 0, 77, 70
1, 42465, Note_on_c, 0, 82, 95
1, 42595, Note_off_c, 0, 82, 95
1, 43204, Note_on_c, 0, 80, 98
1, 43321, Note_off_c, 0, 80, 98
1, 43329, Note_on_c, 0, 79, 78
1, 43422, Note_off_c, 0, 79, 78
1, 43435, Note_on_c, 0, 77, 82
1, 43490, Note_off_c, 0, 77, 82
1, 43514, Note_on_c, 0, 75, 90
1, 43590, Note_off_c, 0, 75, 90
1, 43606, Note_on_c, 0, 73, 86
1, 43666, Note_off_c, 0, 73, 86
1, 43718, Note_on_c, 0, 70, 93
1, 43792, Note_off_c, 0, 70, 93
1, 43809, Note_on_c, 0, 66, 97
1, 43887, Note_off_c, 0, 66, 97
1, 43891, Note_on_c, 0, 63, 89
1, 43978, Note_off_c, 0, 63, 89
1, 43987, Note_on_c, 0, 68, 95
1, 44069, Note_off_c, 0, 68, 95
1, 44084, Note_on_c, 0, 65, 93
1, 44147, Note_off_c, 0, 65, 93
1, 44162, Note_on_c, 0, 61, 89
1, 44329, Note_off_c, 0, 61, 89
1, 44357, Note_on_c, 0, 63, 106
1, 44454, Note_off_c, 0, 63, 106
1, 44467, Note_on_c, 0, 66, 93
1, 44663, Note_off_c, 0, 66, 93
1, 45093, Note_on_c, 0, 65, 94
1, 45171, Note_off_c, 0, 65, 94
1, 45182, Note_on_c, 0, 67, 93
1, 45266, Note_off_c, 0, 67, 93
1, 45274, Note_on_c, 0, 74, 87
1, 45398, Note_off_c, 0, 74, 87
1, 45486, Note_on_c, 0, 74, 97
1, 45671, Note_off_c, 0, 74, 97
1, 45691, Note_on_c, 0, 72, 97
1, 45777, Note_off_c, 0, 72, 97
1, 45877, Note_on_c, 0, 75, 95
1, 46060, Note_off_c, 0, 75, 95
1, 46065, Note_on_c, 0, 74, 88
1, 46153, Note_off_c, 0, 74, 88
1, 46192, Note_on_c, 0, 72, 96
1, 46436, Note_off_c, 0, 72, 96
1, 46462, Note_on_c, 0, 70, 91
1, 46525, Note_off_c, 0, 70, 91
1, 46555, Note_on_c, 0, 67, 98
1, 46627, Note_off_c, 0, 67, 98
1, 46643, Note_on_c, 0, 65, 98
1, 46736, Note_off_c, 0, 65, 98
1, 46752, Note_on_c, 0, 65, 95
1, 46802, Note_off_c, 0, 65, 95
1, 46817, Note_on_c, 0, 63, 98
1, 46949, Note_off_c, 0, 63, 98
1, 46956, Note_on_c, 0, 65, 85
1, 46983, Note_off_c, 0, 65, 85
1, 47034, Note_on_c, 0, 67, 102
1, 47123, Note_off_c, 0, 67, 102
1, 47151, Note_on_c, 0, 67, 99
1, 47282, Note_off_c, 0, 67, 99
1, 47300, Note_on_c, 0, 65, 99
1, 47328, Note_off_c, 0, 65, 99
1, 47331, Note_on_c, 0, 64, 101
1, 47362, Note_off_c, 0, 64, 101
1, 47371, Note_on_c, 0, 62, 93
1, 47393, Note_off_c, 0, 62, 93
1, 47403, Note_on_c, 0, 59, 83
1, 47563, Note_off_c, 0, 59, 83
1, 47584, Note_on_c, 0, 62, 102
1, 47689, Note_off_c, 0, 62, 102
1, 47698, Note_on_c, 0, 60, 91
1, 47943, Note_off_c, 0, 60, 91
1, 47954, Note_on_c, 0, 63, 101
1, 48085, Note_off_c, 0, 63, 101
1, 48162, Note_on_c, 0, 65, 91
1, 48470, Note_off_c, 0, 65, 91
1, 48478, Note_on_c, 0, 63, 86
1, 48534, Note_off_c, 0, 63, 86
1, 48546, Note_on_c, 0, 65, 94
1, 48719, Note_off_c, 0, 65, 94
1, 48727, Note_on_c, 0, 65, 87
1, 48778, Note_off_c, 0, 65, 87
1, 49129, Note_on_c, 0, 66, 98
1, 49216, Note_off_c, 0, 66, 98
1, 49236, Note_on_c, 0, 68, 103
1, 49336, Note_off_c, 0, 68, 103
1, 49347, Note_on_c, 0, 66, 98
1, 49447, Note_off_c, 0, 66, 98
1, 49453, Note_on_c, 0, 64, 92
1, 49607, Note_off_c, 0, 64, 92
1, 49608, Note_on_c, 0, 67, 99
1, 49684, Note_off_c, 0, 67, 99
1, 49735, Note_on_c, 0, 62, 87
1, 49801, Note_off_c, 0, 62, 87
1, 49817, Note_on_c, 0, 66, 100
1, 49894, Note_off_c, 0, 66, 100
1, 49913, Note_on_c, 0, 64, 94
1, 49993, Note_off_c, 0, 64, 94
1, 50007, Note_on_c, 0, 61, 94
1, 50069, Note_off_c, 0, 61, 94
1, 50090, Note_on_c, 0, 59, 87
1, 50164, Note_off_c, 0, 59, 87
1, 50179, Note_on_c, 0, 58, 87
1, 50226, Note_off_c, 0, 58, 87
1, 50239, Note_on_c, 0, 54, 83
1, 50372, Note_off_c, 0, 54, 83
1, 50389, Note_on_c, 0, 53, 81
1, 50524, Note_off_c, 0, 53, 81
1, 51228, Note_on_c, 0, 70, 107
1, 51337, Note_off_c, 0, 70, 107
1, 51338, Note_on_c, 0, 71, 107
1, 51387, Note_off_c, 0, 71, 107
1, 51409, Note_on_c, 0, 72, 106
1, 51514, Note_off_c, 0, 72, 106
1, 51523, Note_on_c, 0, 73, 102
1, 51605, Note_off_c, 0, 73, 102
1, 51627, Note_on_c, 0, 71, 106
1, 51711, Note_off_c, 0, 71, 106
1, 51729, Note_on_c, 0, 69, 103
1, 51823, Note_off_c, 0, 69, 103
1, 51828, Note_on_c, 0, 68, 92
1, 51903, Note_off_c, 0, 68, 92
1, 51925, Note_on_c, 0, 71, 98
1, 51998, Note_off_c, 0, 71, 98
1, 52011, Note_on_c, 0, 68, 96
1, 52104, Note_off_c, 0, 68, 96
1, 52114, Note_on_c, 0, 67, 95
1, 52173, Note_off_c, 0, 67, 95
1, 52190, Note_on_c, 0, 66, 92
1, 52284, Note_off_c, 0, 66, 92
1, 52320, Note_on_c, 0, 70, 93
1, 52555, Note_off_c, 0, 70, 93
1, 52574, Note_on_c, 0, 65, 92
1, 52696, Note_off_c, 0, 65, 92
1, 52751, Note_on_c, 0, 64, 98
1, 52878, Note_off_c, 0, 64, 98
1, 52897, Note_on_c, 0, 68, 92
1, 52946, Note_off_c, 0, 68, 92
1, 52968, Note_on_c, 0, 63, 99
1, 53065, Note_off_c, 0, 63, 99
1, 53080, Note_on_c, 0, 67, 91
1, 53134, Note_off_c, 0, 67, 91
1, 53151, Note_on_c, 0, 66, 92
1, 53262, Note_off_c, 0, 66, 92
1, 53275, Note_on_c, 0, 62, 97
1, 53357, Note_off_c, 0, 62, 97
1, 53465, Note_on_c, 0, 65, 98
1, 53528, Note_off_c, 0, 65, 98
1, 53539, Note_on_c, 0, 64, 98
1, 53627, Note_off_c, 0, 64, 98
1, 53651, Note_on_c, 0, 61, 94
1, 53718, Note_off_c, 0, 61, 94
1, 53733, Note_on_c, 0, 59, 90
1, 53820, Note_off_c, 0, 59, 90
1, 53835, Note_on_c, 0, 57, 96
1, 53926, Note_off_c, 0, 57, 96
1, 53936, Note_on_c, 0, 56, 83
1, 54027, Note_off_c, 0, 56, 83
1, 54040, Note_on_c, 0, 58, 93
1, 54089, Note_off_c, 0, 58, 93
1, 54129, Note_on_c, 0, 62, 99
1, 54222, Note_off_c, 0, 62, 99
1, 54237, Note_on_c, 0, 61, 94
1, 54304, Note_off_c, 0, 61, 94
1, 54323, Note_on_c, 0, 56, 90
1, 54410, Note_off_c, 0, 56, 90
1, 54440, Note_on_c, 0, 53, 91
1, 54505, Note_off_c, 0, 53, 91
1, 54516, Note_on_c, 0, 52, 89
1, 54579, Note_off_c, 0, 52, 89
1, 54682, Note_on_c, 0, 55, 94
1, 54831, Note_off_c, 0, 55, 94
1, 54915, Note_on_c, 0, 52, 83
1, 55007, Note_off_c, 0, 52, 83
1, 55014, Note_on_c, 0, 55, 84
1, 55147, Note_off_c, 0, 55, 84
1, 55180, Note_on_c, 0, 60, 94
1, 55269, Note_off_c, 0, 60, 94
1, 55282, Note_on_c, 0, 58, 93
1, 55392, Note_off_c, 0, 58, 93
1, 55480, Note_on_c, 0, 62, 98
1, 55588, Note_off_c, 0, 62, 98
1, 55597, Note_on_c, 0, 63, 81
1, 55662, Note_off_c, 0, 63, 81
1, 55673, Note_on_c, 0, 65, 86
1, 55779, Note_off_c, 0, 65, 86
1, 55815, Note_on_c, 0, 70, 82
1, 55870, Note_off_c, 0, 70, 82
1, 55881, Note_on_c, 0, 65, 90
1, 55936, Note_off_c, 0, 65, 90
1, 55939, Note_on_c, 0, 67, 87
1, 56002, Note_off_c, 0, 67, 87
1, 56259, Note_on_c, 0, 65, 103
1, 56307, Note_off_c, 0, 65, 103
1, 56557, Note_on_c, 0, 62, 99
1, 56606, Note_off_c, 0, 62, 99
1, 56613, Note_on_c, 0, 63, 100
1, 56664, Note_off_c, 0, 63, 100
1, 56683, Note_on_c, 0, 65, 94
1, 56728, Note_off_c, 0, 65, 94
1, 56939, Note_on_c, 0, 60, 93
1, 56988, Note_off_c, 0, 60, 93
1, 56990, Note_on_c, 0, 63, 97
1, 57043, Note_off_c, 0, 63, 97
1, 57048, Note_on_c, 0, 65, 91
1, 57098, Note_off_c, 0, 65, 91
1, 57297, Note_on_c, 0, 60, 94
1, 57344, Note_off_c, 0, 60, 94
1, 57351, Note_on_c, 0, 63, 101
1, 57388, Note_off_c, 0, 63, 101
1, 57395, Note_on_c, 0, 65, 94
1, 57459, Note_off_c, 0, 65, 94
1, 57663, Note_on_c, 0, 60, 94
1, 57706, Note_off_c, 0, 60, 94
1, 57708, Note_on_c, 0, 63, 108
1, 57762, Note_off_c, 0, 63, 108
1, 57771, Note_on_c, 0, 65, 99
1, 58062, Note_off_c, 0, 65, 99
1, 58093, Note_on_c, 0, 60, 93
1, 58132, Note_off_c, 0, 60, 93
1, 58137, Note_on_c, 0, 63, 103
1, 58177, Note_off_c, 0, 63, 103
1, 58189, Note_on_c, 0, 65, 96
1, 58244, Note_off_c, 0, 65, 96
1, 58655, Note_on_c, 0, 60, 92
1, 58683, Note_off_c, 0, 60, 92
1, 58707, Note_on_c, 0, 63, 93
1, 58758, Note_off_c, 0, 63, 93
1, 58794, Note_on_c, 0, 65, 100
1, 58851, Note_off_c, 0, 65, 100
1, 58872, Note_on_c, 0, 60, 93
1, 58933, Note_off_c, 0, 60, 93
1, 58934, Note_on_c, 0, 63, 98
1, 59037, Note_off_c, 0, 63, 98
1, 59059, Note_on_c, 0, 65, 96
1, 59150, Note_off_c, 0, 65, 96
1, 59284, Note_on_c, 0, 66, 98
1, 59419, Note_off_c, 0, 66, 98
1, 59663, Note_on_c, 0, 68, 112
1, 59769, Note_off_c, 0, 68, 112
1, 59784, Note_on_c, 0, 67, 101
1, 59849, Note_off_c, 0, 67, 101
1, 59866, Note_on_c, 0, 66, 100
1, 59990, Note_off_c, 0, 66, 100
1, 59995, Note_on_c, 0, 67, 97
1, 60212, Note_off_c, 0, 67, 97
1, 60217, Note_on_c, 0, 63, 99
1, 60323, Note_off_c, 0, 63, 99
1, 60423, Note_on_c, 0, 65, 99
1, 60528, Note_off_c, 0, 65, 99
1, 60604, Note_on_c, 0, 62, 101
1, 60716, Note_off_c, 0, 62, 101
1, 60752, Note_on_c, 0, 65, 96
1, 60885, Note_off_c, 0, 65, 96
1, 60907, Note_on_c, 0, 63, 102
1, 61005, Note_off_c, 0, 63, 102
1, 61016, Note_on_c, 0, 59, 87
1, 61101, Note_off_c, 0, 59, 87
1, 61200, Note_on_c, 0, 57, 97
1, 61298, Note_off_c, 0, 57, 97
1, 61298, Note_on_c, 0, 63, 103
1, 61383, Note_off_c, 0, 63, 103
1, 61386, Note_on_c, 0, 60, 91
1, 61471, Note_off_c, 0, 60, 91
1, 61554, Note_on_c, 0, 59, 88
1, 61679, Note_off_c, 0, 59, 88
1, 61691, Note_on_c, 0, 55, 91
1, 61776, Note_off_c, 0, 55, 91
1, 61798, Note_on_c, 0, 51, 91
1, 61878, Note_off_c, 0, 51, 91
1, 61948, Note_on_c, 0, 53, 91
1, 62232, Note_off_c, 0, 53, 91
1, 62251, Note_on_c, 0, 51, 101
1, 62341, Note_off_c, 0, 51, 101
1, 62352, Note_on_c, 0, 48, 94
1, 62453, Note_off_c, 0, 48, 94
1, 62459, Note_on_c, 0, 45, 109
1, 62600, Note_off_c, 0, 45, 109
1, 63267, Note_on_c, 0, 46, 97
1, 63323, Note_off_c, 0, 46, 97
1, 63335, Note_on_c, 0, 50, 94
1, 63386, Note_off_c, 0, 50, 94
1, 63396, Note_on_c, 0, 45, 97
1, 63451, Note_off_c, 0, 45, 97
1, 63455, Note_on_c, 0, 50, 97
1, 63514, Note_off_c, 0, 50, 97
1, 63520, Note_on_c, 0, 53, 99
1, 63563, Note_off_c, 0, 53, 99
1, 63567, Note_on_c, 0, 51, 102
1, 63608, Note_off_c, 0, 51, 102
1, 63609, Note_on_c, 0, 50, 96
1, 63673, Note_off_c, 0, 50, 96
1, 63676, Note_on_c, 0, 51, 96
1, 63713, Note_off_c, 0, 51, 96
1, 63718, Note_on_c, 0, 55, 85
1, 63750, Note_off_c, 0, 55, 85
1, 63760, Note_on_c, 0, 58, 98
1, 63852, Note_off_c, 0, 58, 98
1, 63857, Note_on_c, 0, 57, 97
1, 63885, Note_off_c, 0, 57, 97
1, 63896, Note_on_c, 0, 56, 91
1, 63949, Note_off_c, 0, 56, 91
1, 63994, Note_on_c, 0, 60, 101
1, 64022, Note_off_c, 0, 60, 101
1, 64028, Note_on_c, 0, 62, 99
1, 64066, Note_off_c, 0, 62, 99
1, 64076, Note_on_c, 0, 55, 94
1, 64119, Note_off_c, 0, 55, 94
1, 64130, Note_on_c, 0, 58, 96
1, 64173, Note_off_c, 0, 58, 96
1, 64177, Note_on_c, 0, 60, 94
1, 64206, Note_off_c, 0, 60, 94
1, 64206, Note_on_c, 0, 63, 105
1, 64263, Note_off_c, 0, 63, 105
1, 64270, Note_on_c, 0, 60, 92
1, 64312, Note_off_c, 0, 60, 92
1, 64355, Note_on_c, 0, 63, 95
1, 64391, Note_off_c, 0, 63, 95
1, 64398, Note_on_c, 0, 61, 94
1, 64451, Note_off_c, 0, 61, 94
1, 64472, Note_on_c, 0, 63, 95
1, 64510, Note_off_c, 0, 63, 95
1, 64559, Note_on_c, 0, 62, 100
1, 64608, Note_off_c, 0, 62, 100
1, 64610, Note_on_c, 0, 65, 91
1, 64643, Note_off_c, 0, 65, 91
1, 64655, Note_on_c, 0, 67, 91
1, 64688, Note_off_c, 0, 67, 91
1, 64693, Note_on_c, 0, 70, 91
1, 64738, Note_off_c, 0, 70, 91
1, 64749, Note_on_c, 0, 67, 89
1, 64785, Note_off_c, 0, 67, 89
1, 64789, Note_on_c, 0, 65, 88
1, 64882, Note_off_c, 0, 65, 88
1, 64889, Note_on_c, 0, 63, 95
1, 64942, Note_off_c, 0, 63, 95
1, 64949, Note_on_c, 0, 62, 95
1, 64983, Note_off_c, 0, 62, 95
1, 64983, Note_on_c, 0, 63, 95
1, 65043, Note_off_c, 0, 63, 95
1, 65045, Note_on_c, 0, 66, 85
1, 65066, Note_off_c, 0, 66, 85
1, 65069, Note_on_c, 0, 67, 82
1, 65130, Note_off_c, 0, 67, 82
1, 65137, Note_on_c, 0, 71, 80
1, 65187, Note_off_c, 0, 71, 80
1, 65202, Note_on_c, 0, 75, 63
1, 65270, Note_off_c, 0, 75, 63
1, 65304, Note_on_c, 0, 79, 86
1, 65335, Note_off_c, 0, 79, 86
1, 65343, Note_on_c, 0, 80, 88
1, 65378, Note_off_c, 0, 80, 88
1, 65397, Note_on_c, 0, 82, 92
1, 65550, Note_off_c, 0, 82, 92
1, 65907, Note_on_c, 0, 44, 108
1, 66065, Note_off_c, 0, 44, 108
1, 66078, Note_on_c, 0, 46, 96
1, 66226, Note_off_c, 0, 46, 96
1, 66241, Note_on_c, 0, 51, 96
1, 66403, Note_off_c, 0, 51, 96
1, 66426, Note_on_c, 0, 53, 91
1, 66493, Note_off_c, 0, 53, 91
1, 66506, Note_on_c, 0, 58, 88
1, 66615, Note_off_c, 0, 58, 88
1, 66623, Note_on_c, 0, 63, 107
1, 66684, Note_off_c, 0, 63, 107
1, 66685, Note_on_c, 0, 56, 88
1, 66784, Note_off_c, 0, 56, 88
1, 66897, Note_on_c, 0, 63, 98
1, 66975, Note_off_c, 0, 63, 98
1, 67070, Note_on_c, 0, 65, 89
1, 67155, Note_off_c, 0, 65, 89
1, 67258, Note_on_c, 0, 63, 95
1, 67345, Note_off_c, 0, 63, 95
1, 67381, Note_on_c, 0, 65, 95
1, 67437, Note_off_c, 0, 65, 95
1, 67447, Note_on_c, 0, 66, 93
1, 67545, Note_off_c, 0, 66, 93
1, 67556, Note_on_c, 0, 75, 81
1, 67715, Note_off_c, 0, 75, 81
1, 67747, Note_on_c, 0, 70, 85
1, 67834, Note_off_c, 0, 70, 85
1, 67835, Note_on_c, 0, 84, 84
1, 67903, Note_off_c, 0, 84, 84
1, 67929, Note_on_c, 0, 80, 91
1, 68414, Note_off_c, 0, 80, 91
1, 68427, Note_on_c, 0, 77, 85
1, 68511, Note_off_c, 0, 77, 85
1, 68539, Note_on_c, 0, 75, 90
1, 68617, Note_off_c, 0, 75, 90
1, 68642, Note_on_c, 0, 73, 94
1, 68701, Note_off_c, 0, 73, 94
1, 68714, Note_on_c, 0, 72, 91
1, 68780, Note_off_c, 0, 72, 91
1, 68783, Note_on_c, 0, 69, 93
1, 68853, Note_off_c, 0, 69, 93
1, 68855, Note_on_c, 0, 63, 91
1, 68973, Note_off_c, 0, 63, 91
1, 69375, Note_on_c, 0, 80, 104
1, 69775, Note_off_c, 0, 80, 104
1, 69781, Note_on_c, 0, 79, 105
1, 70207, Note_off_c, 0, 79, 105
1, 70252, Note_on_c, 0, 79, 95
1, 70532, Note_off_c, 0, 79, 95
1, 70604, Note_on_c, 0, 79, 98
1, 70942, Note_off_c, 0, 79, 98
1, 70987, Note_on_c, 0, 86, 95
1, 71716, Note_off_c, 0, 86, 95
1, 71719, Note_on_c, 0, 77, 78
1, 72010, Note_off_c, 0, 77, 78
1, 72412, Note_on_c, 0, 84, 90
1, 72480, Note_off_c, 0, 84, 90
1, 72480, Note_on_c, 0, 86, 99
1, 73656, Note_off_c, 0, 86, 99
1, 73668, Note_on_c, 0, 84, 89
1, 73758, Note_off_c, 0, 84, 89
1, 73779, Note_on_c, 0, 82, 94
1, 73859, Note_off_c, 0, 82, 94
1, 73880, Note_on_c, 0, 80, 96
1, 73949, Note_off_c, 0, 80, 96
1, 73959, Note_on_c, 0, 79, 94
1, 74037, Note_off_c, 0, 79, 94
1, 74097, Note_on_c, 0, 77, 83
1, 74148, Note_off_c, 0, 77, 83
1, 74170, Note_on_c, 0, 75, 90
1, 74225, Note_off_c, 0, 75, 90
1, 74260, Note_on_c, 0, 74, 87
1, 74489, Note_off_c, 0, 74, 87
1, 74500, Note_on_c, 0, 71, 92
1, 74628, Note_off_c, 0, 71, 92
1, 74639, Note_on_c, 0, 66, 86
1, 74667, Note_off_c, 0, 66, 86
1, 74686, Note_on_c, 0, 69, 95
1, 74781, Note_off_c, 0, 69, 95
1, 74838, Note_on_c, 0, 74, 84
1, 74952, Note_off_c, 0, 74, 84
1, 74961, Note_on_c, 0, 75, 86
1, 75027, Note_off_c, 0, 75, 86
1, 75040, Note_on_c, 0, 71, 92
1, 75185, Note_off_c, 0, 71, 92
1, 75228, Note_on_c, 0, 69, 95
1, 75360, Note_off_c, 0, 69, 95
1, 75382, Note_on_c, 0, 72, 74
1, 75428, Note_off_c, 0, 72, 74
1, 75440, Note_on_c, 0, 75, 79
1, 75482, Note_off_c, 0, 75, 79
1, 75495, Note_on_c, 0, 77, 79
1, 75537, Note_off_c, 0, 77, 79
1, 75559, Note_on_c, 0, 79, 93
1, 75601, Note_off_c, 0, 79, 93
1, 75606, Note_on_c, 0, 81, 88
1, 75656, Note_off_c, 0, 81, 88
1, 75660, Note_on_c, 0, 82, 90
1, 75733, Note_off_c, 0, 82, 90
1, 75735, Note_on_c, 0, 81, 88
1, 76092, Note_off_c, 0, 81, 88
1, 76098, Note_on_c, 0, 79, 46
1, 76160, Note_off_c, 0, 79, 46
1, 76161, Note_on_c, 0, 81, 92
1, 76304, Note_off_c, 0, 81, 92
1, 76312, Note_on_c, 0, 79, 89
1, 76477, Note_off_c, 0, 79, 89
1, 76494, Note_on_c, 0, 75, 79
1, 76673, Note_off_c, 0, 75, 79
1, 77323, Note_on_c, 0, 85, 95
1, 77494, Note_off_c, 0, 85, 95
1, 77679, Note_on_c, 0, 79, 102
1, 77998, Note_off_c, 0, 79, 102
1, 78012, Note_on_c, 0, 77, 90
1, 78336, Note_off_c, 0, 77, 90
1, 78353, Note_on_c, 0, 75, 85
1, 78427, Note_off_c, 0, 75, 85
1, 78449, Note_on_c, 0, 72, 74
1, 78505, Note_off_c, 0, 72, 74
1, 78525, Note_on_c, 0, 77, 79
1, 78594, Note_off_c, 0, 77, 79
1, 78646, Note_on_c, 0, 77, 84
1, 78727, Note_off_c, 0, 77, 84
1, 78834, Note_on_c, 0, 77, 85
1, 78941, Note_off_c, 0, 77, 85
1, 79007, Note_on_c, 0, 77, 84
1, 79139, Note_off_c, 0, 77, 84
1, 79220, Note_on_c, 0, 77, 83
1, 79324, Note_off_c, 0, 77, 83
1, 79346, Note_on_c, 0, 77, 81
1, 79439, Note_off_c, 0, 77, 81
1, 79537, Note_on_c, 0, 77, 81
1, 80424, Note_off_c, 0, 77, 81
1, 80853, Note_on_c, 0, 79, 86
1, 81035, Note_off_c, 0, 79, 86
1, 81078, Note_on_c, 0, 77, 87
1, 81595, Note_off_c, 0, 77, 87
1, 81658, Note_on_c, 0, 79, 102
1, 81751, Note_off_c, 0, 79, 102
1, 81757, Note_on_c, 0, 77, 87
1, 81788, Note_off_c, 0, 77, 87
1, 81793, Note_on_c, 0, 75, 95
1, 81846, Note_off_c, 0, 75, 95
1, 81874, Note_on_c, 0, 77, 86
1, 81945, Note_off_c, 0, 77, 86
1, 81945, Note_on_c, 0, 70, 89
1, 81994, Note_off_c, 0, 70, 89
1, 82003, Note_on_c, 0, 73, 81
1, 82046, Note_off_c, 0, 73, 81
1, 82057, Note_on_c, 0, 75, 97
1, 82149, Note_off_c, 0, 75, 97
1, 82166, Note_on_c, 0, 74, 90
1, 82324, Note_off_c, 0, 74, 90
1, 82338, Note_on_c, 0, 71, 94
1, 82418, Note_off_c, 0, 71, 94
1, 82431, Note_on_c, 0, 68, 91
1, 82520, Note_off_c, 0, 68, 91
1, 82613, Note_on_c, 0, 71, 92
1, 82689, Note_off_c, 0, 71, 92
1, 82719, Note_on_c, 0, 75, 89
1, 82781, Note_off_c, 0, 75, 89
1, 82788, Note_on_c, 0, 73, 95
1, 82889, Note_off_c, 0, 73, 95
1, 82899, Note_on_c, 0, 71, 89
1, 82979, Note_off_c, 0, 71, 89
1, 82987, Note_on_c, 0, 69, 99
1, 83065, Note_off_c, 0, 69, 99
1, 83085, Note_on_c, 0, 67, 93
1, 83187, Note_off_c, 0, 67, 93
1, 83193, Note_on_c, 0, 65, 91
1, 83307, Note_off_c, 0, 65, 91
1, 83362, Note_on_c, 0, 69, 96
1, 83469, Note_off_c, 0, 69, 96
1, 83485, Note_on_c, 0, 71, 88
1, 83601, Note_off_c, 0, 71, 88
1, 83620, Note_on_c, 0, 75, 87
1, 83734, Note_off_c, 0, 75, 87
1, 83741, Note_on_c, 0, 77, 87
1, 83867, Note_off_c, 0, 77, 87
1, 84199, Note_on_c, 0, 73, 98
1, 84284, Note_off_c, 0, 73, 98
1, 84292, Note_on_c, 0, 76, 100
1, 84383, Note_off_c, 0, 76, 100
1, 84392, Note_on_c, 0, 73, 98
1, 84480, Note_off_c, 0, 73, 98
1, 84484, Note_on_c, 0, 69, 98
1, 84586, Note_off_c, 0, 69, 98
1, 84674, Note_on_c, 0, 66, 95
1, 84758, Note_off_c, 0, 66, 95
1, 84774, Note_on_c, 0, 69, 99
1, 84857, Note_off_c, 0, 69, 99
1, 84868, Note_on_c, 0, 71, 93
1, 84940, Note_off_c, 0, 71, 93
1, 84971, Note_on_c, 0, 75, 86
1, 85003, Note_off_c, 0, 75, 86
1, 85073, Note_on_c, 0, 80, 84
1, 85185, Note_off_c, 0, 80, 84
1, 85238, Note_on_c, 0, 77, 91
1, 85317, Note_off_c, 0, 77, 91
1, 85341, Note_on_c, 0, 75, 91
1, 85409, Note_off_c, 0, 75, 91
1, 85416, Note_on_c, 0, 73, 95
1, 85524, Note_off_c, 0, 73, 95
1, 85620, Note_on_c, 0, 71, 87
1, 85775, Note_off_c, 0, 71, 87
1, 85816, Note_on_c, 0, 67, 93
1, 85902, Note_off_c, 0, 67, 93
1, 85938, Note_on_c, 0, 71, 90
1, 86031, Note_off_c, 0, 71, 90
1, 86038, Note_on_c, 0, 69, 97
1, 86121, Note_off_c, 0, 69, 97
1, 86131, Note_on_c, 0, 68, 95
1, 86215, Note_off_c, 0, 68, 95
1, 86220, Note_on_c, 0, 66, 92
1, 86307, Note_off_c, 0, 66, 92
1, 86373, Note_on_c, 0, 63, 101
1, 86483, Note_off_c, 0, 63, 101
1, 86498, Note_on_c, 0, 67, 90
1, 86552, Note_off_c, 0, 67, 90
1, 86573, Note_on_c, 0, 62, 99
1, 86686, Note_off_c, 0, 62, 99
1, 86701, Note_on_c, 0, 60, 88
1, 86821, Note_off_c, 0, 60, 88
1, 87286, Note_on_c, 0, 60, 106
1, 87400, Note_off_c, 0, 60, 106
1, 87416, Note_on_c, 0, 60, 104
1, 87486, Note_off_c, 0, 60, 104
1, 87492, Note_on_c, 0, 63, 120
1, 87638, Note_off_c, 0, 63, 120
1, 87650, Note_on_c, 0, 63, 115
1, 87747, Note_off_c, 0, 63, 115
1, 87813, Note_on_c, 0, 65, 110
1, 87944, Note_off_c, 0, 65, 110
1, 88016, Note_on_c, 0, 65, 106
1, 88094, Note_off_c, 0, 65, 106
1, 88186, Note_on_c, 0, 65, 87
1, 88229, Note_off_c, 0, 65, 87
1, 88276, Note_on_c, 0, 67, 101
1, 88401, Note_off_c, 0, 67, 101
1, 88460, Note_on_c, 0, 60, 97
1, 88557, Note_off_c, 0, 60, 97
1, 88641, Note_on_c, 0, 63, 106
1, 88773, Note_off_c, 0, 63, 106
1, 88834, Note_on_c, 0, 63, 107
1, 88956, Note_off_c, 0, 63, 107
1, 89053, Note_on_c, 0, 72, 99
1, 89415, Note_off_c, 0, 72, 99
1, 89791, Note_on_c, 0, 70, 107
1, 89909, Note_off_c, 0, 70, 107
1, 89919, Note_on_c, 0, 67, 106
1, 89990, Note_off_c, 0, 67, 106
1, 90002, Note_on_c, 0, 65, 104
1, 90111, Note_off_c, 0, 65, 104
1, 90129, Note_on_c, 0, 62, 105
1, 90205, Note_off_c, 0, 62, 105
1, 90209, Note_on_c, 0, 63, 102
1, 90323, Note_off_c, 0, 63, 102
1, 90338, Note_on_c, 0, 66, 94
1, 90390, Note_off_c, 0, 66, 94
1, 90403, Note_on_c, 0, 70, 96
1, 90530, Note_off_c, 0, 70, 96
1, 90532, Note_on_c, 0, 66, 100
1, 90646, Note_off_c, 0, 66, 100
1, 90705, Note_on_c, 0, 63, 106
1, 90817, Note_off_c, 0, 63, 106
1, 90897, Note_on_c, 0, 68, 95
1, 91020, Note_off_c, 0, 68, 95
1, 91107, Note_on_c, 0, 66, 99
1, 91215, Note_off_c, 0, 66, 99
1, 91280, Note_on_c, 0, 64, 81
1, 91317, Note_off_c, 0, 64, 81
1, 91371, Note_on_c, 0, 65, 99
1, 91472, Note_off_c, 0, 65, 99
1, 91476, Note_on_c, 0, 61, 96
1, 91545, Note_off_c, 0, 61, 96
1, 91569, Note_on_c, 0, 58, 89
1, 91641, Note_off_c, 0, 58, 89
1, 91690, Note_on_c, 0, 54, 88
1, 91921, Note_off_c, 0, 54, 88
1, 91930, Note_on_c, 0, 56, 88
1, 92045, Note_off_c, 0, 56, 88
1, 92107, Note_on_c, 0, 53, 94
1, 92243, Note_off_c, 0, 53, 94
1, 92254, Note_on_c, 0, 58, 94
1, 92313, Note_off_c, 0, 58, 94
1, 92313, Note_on_c, 0, 51, 95
1, 92420, Note_off_c, 0, 51, 95
1, 92442, Note_on_c, 0, 49, 97
1, 92507, Note_off_c, 0, 49, 97
1, 92517, Note_on_c, 0, 51, 99
1, 92585, Note_off_c, 0, 51, 99
1, 92617, Note_on_c, 0, 53, 97
1, 92811, Note_off_c, 0, 53, 97
1, 92813, Note_on_c, 0, 51, 101
1, 92899, Note_off_c, 0, 51, 101
1, 92900, Note_on_c, 0, 46, 101
1, 93006, Note_off_c, 0, 46, 101
1, 93017, Note_on_c, 0, 44, 117
1, 93251, Note_off_c, 0, 44, 117
1, 93739, Note_on_c, 0, 43, 107
1, 93792, Note_off_c, 0, 43, 107
1, 93810, Note_on_c, 0, 44, 102
1, 93884, Note_off_c, 0, 44, 102
1, 93899, Note_on_c, 0, 46, 97
1, 93940, Note_off_c, 0, 46, 97
1, 93943, Note_on_c, 0, 48, 99
1, 93977, Note_off_c, 0, 48, 99
1, 93994, Note_on_c, 0, 52, 99
1, 94039, Note_off_c, 0, 52, 99
1, 94047, Note_on_c, 0, 47, 101
1, 94095, Note_off_c, 0, 47, 101
1, 94098, Note_on_c, 0, 49, 99
1, 94306, Note_off_c, 0, 49, 99
1, 94319, Note_on_c, 0, 51, 97
1, 94364, Note_off_c, 0, 51, 97
1, 94371, Note_on_c, 0, 49, 96
1, 94422, Note_off_c, 0, 49, 96
1, 94437, Note_on_c, 0, 51, 95
1, 94477, Note_off_c, 0, 51, 95
1, 94482, Note_on_c, 0, 49, 90
1, 94539, Note_off_c, 0, 49, 90
1, 94879, Note_on_c, 0, 53, 97
1, 94932, Note_off_c, 0, 53, 97
1, 94938, Note_on_c, 0, 57, 96
1, 94982, Note_off_c, 0, 57, 96
1, 94990, Note_on_c, 0, 58, 93
1, 95021, Note_off_c, 0, 58, 93
1, 95024, Note_on_c, 0, 56, 90
1, 95062, Note_off_c, 0, 56, 90
1, 95067, Note_on_c, 0, 54, 94
1, 95112, Note_off_c, 0, 54, 94
1, 95126, Note_on_c, 0, 52, 91
1, 95168, Note_off_c, 0, 52, 91
1, 95171, Note_on_c, 0, 55, 90
1, 95202, Note_off_c, 0, 55, 90
1, 95202, Note_on_c, 0, 57, 96
1, 95246, Note_off_c, 0, 57, 96
1, 95257, Note_on_c, 0, 54, 97
1, 95302, Note_off_c, 0, 54, 97
1, 95310, Note_on_c, 0, 53, 95
1, 95340, Note_off_c, 0, 53, 95
1, 95349, Note_on_c, 0, 48, 95
1, 95377, Note_off_c, 0, 48, 95
1, 95378, Note_on_c, 0, 50, 89
1, 95423, Note_off_c, 0, 50, 89
1, 95424, Note_on_c, 0, 52, 96
1, 95470, Note_off_c, 0, 52, 96
1, 95481, Note_on_c, 0, 51, 92
1, 95515, Note_off_c, 0, 51, 92
1, 95532, Note_on_c, 0, 50, 92
1, 95577, Note_off_c, 0, 50, 92
1, 95588, Note_on_c, 0, 49, 92
1, 95633, Note_off_c, 0, 49, 92
1, 95640, Note_on_c, 0, 48, 92
1, 95699, Note_off_c, 0, 48, 92
1, 95723, Note_on_c, 0, 51, 85
1, 95798, Note_off_c, 0, 51, 85
1, 95800, Note_on_c, 0, 54, 93
1, 95886, Note_off_c, 0, 54, 93
1, 95895, Note_on_c, 0, 58, 97
1, 95942, Note_off_c, 0, 58, 97
1, 95947, Note_on_c, 0, 62, 100
1, 95980, Note_off_c, 0, 62, 100
1, 96004, Note_on_c, 0, 61, 95
1, 96038, Note_off_c, 0, 61, 95
1, 96051, Note_on_c, 0, 59, 94
1, 96089, Note_off_c, 0, 59, 94
1, 96100, Note_on_c, 0, 57, 92
1, 96149, Note_off_c, 0, 57, 92
1, 96160, Note_on_c, 0, 56, 88
1, 96224, Note_off_c, 0, 56, 88
1, 96245, Note_on_c, 0, 58, 92
1, 96301, Note_off_c, 0, 58, 92
1, 96311, Note_on_c, 0, 55, 101
1, 96374, Note_off_c, 0, 55, 101
1, 96396, Note_on_c, 0, 58, 94
1, 96439, Note_off_c, 0, 58, 94
1, 96449, Note_on_c, 0, 60, 88
1, 96477, Note_off_c, 0, 60, 88
1, 96481, Note_on_c, 0, 63, 99
1, 96536, Note_off_c, 0, 63, 99
1, 96543, Note_on_c, 0, 62, 97
1, 96569, Note_off_c, 0, 62, 97
1, 96576, Note_on_c, 0, 60, 91
1, 96610, Note_off_c, 0, 60, 91
1, 96635, Note_on_c, 0, 58, 91
1, 96688, Note_off_c, 0, 58, 91
1, 96695, Note_on_c, 0, 60, 88
1, 96735, Note_off_c, 0, 60, 88
1, 96748, Note_on_c, 0, 61, 90
1, 96779, Note_off_c, 0, 61, 90
1, 96782, Note_on_c, 0, 63, 93
1, 96836, Note_off_c, 0, 63, 93
1, 96911, Note_on_c, 0, 64, 98
1, 96975, Note_off_c, 0, 64, 98
1, 96987, Note_on_c, 0, 62, 99
1, 97031, Note_off_c, 0, 62, 99
1, 97037, Note_on_c, 0, 63, 98
1, 97087, Note_off_c, 0, 63, 98
1, 97091, Note_on_c, 0, 66, 89
1, 97115, Note_off_c, 0, 66, 89
1, 97124, Note_on_c, 0, 69, 93
1, 97169, Note_off_c, 0, 69, 93
1, 97175, Note_on_c, 0, 67, 89
1, 97205, Note_off_c, 0, 67, 89
1, 97215, Note_on_c, 0, 66, 90
1, 97256, Note_on_c, 0, 63, 96
1, 97256, Note_off_c, 0, 66, 90
1, 97313, Note_off_c, 0, 63, 96
1, 97321, Note_on_c, 0, 62, 97
1, 97355, Note_off_c, 0, 62, 97
1, 97359, Note_on_c, 0, 63, 92
1, 97397, Note_off_c, 0, 63, 92
1, 97472, Note_on_c, 0, 74, 88
1, 97530, Note_off_c, 0, 74, 88
1, 97537, Note_on_c, 0, 73, 89
1, 97554, Note_off_c, 0, 73, 89
1, 97560, Note_on_c, 0, 72, 94
1, 97574, Note_off_c, 0, 72, 94
1, 97580, Note_on_c, 0, 70, 85
1, 97601, Note_off_c, 0, 70, 85
1, 97613, Note_on_c, 0, 67, 91
1, 97659, Note_off_c, 0, 67, 91
1, 97663, Note_on_c, 0, 63, 99
1, 97709, Note_off_c, 0, 63, 99
1, 97714, Note_on_c, 0, 62, 98
1, 97746, Note_off_c, 0, 62, 98
1, 97748, Note_on_c, 0, 60, 91
1, 97776, Note_off_c, 0, 60, 91
1, 97782, Note_on_c, 0, 59, 88
1, 97833, Note_off_c, 0, 59, 88
1, 97837, Note_on_c, 0, 57, 91
1, 97875, Note_off_c, 0, 57, 91
1, 97881, Note_on_c, 0, 56, 93
1, 97926, Note_off_c, 0, 56, 93
1, 98420, Note_on_c, 0, 72, 99
1, 98451, Note_off_c, 0, 72, 99
1, 98454, Note_on_c, 0, 71, 101
1, 98484, Note_off_c, 0, 71, 101
1, 98494, Note_on_c, 0, 70, 97
1, 98530, Note_off_c, 0, 70, 97
1, 98543, Note_on_c, 0, 67, 103
1, 98585, Note_off_c, 0, 67, 103
1, 98601, Note_on_c, 0, 63, 101
1, 98645, Note_off_c, 0, 63, 101
1, 98658, Note_on_c, 0, 60, 99
1, 98698, Note_off_c, 0, 60, 99
1, 98711, Note_on_c, 0, 63, 96
1, 98747, Note_off_c, 0, 63, 96
1, 98754, Note_on_c, 0, 59, 91
1, 98796, Note_off_c, 0, 59, 91
1, 98805, Note_on_c, 0, 63, 102
1, 98855, Note_off_c, 0, 63, 102
1, 98866, Note_on_c, 0, 60, 94
1, 98918, Note_off_c, 0, 60, 94
1, 98942, Note_on_c, 0, 71, 99
1, 98999, Note_off_c, 0, 71, 99
1, 99012, Note_on_c, 0, 67, 95
1, 99061, Note_off_c, 0, 67, 95
1, 99074, Note_on_c, 0, 63, 100
1, 99138, Note_off_c, 0, 63, 100
1, 99143, Note_on_c, 0, 60, 96
1, 99198, Note_off_c, 0, 60, 96
1, 99201, Note_on_c, 0, 63, 94
1, 99229, Note_off_c, 0, 63, 94
1, 99229, Note_on_c, 0, 69, 95
1, 99283, Note_off_c, 0, 69, 95
1, 99296, Note_on_c, 0, 65, 95
1, 99317, Note_off_c, 0, 65, 95
1, 99328, Note_on_c, 0, 63, 102
1, 99356, Note_off_c, 0, 63, 102
1, 99366, Note_on_c, 0, 60, 93
1, 99411, Note_off_c, 0, 60, 93
1, 99445, Note_on_c, 0, 62, 94
1, 99513, Note_off_c, 0, 62, 94
1, 99519, Note_on_c, 0, 65, 98
1, 99595, Note_off_c, 0, 65, 98
1, 99602, Note_on_c, 0, 62, 106
1, 99680, Note_off_c, 0, 62, 106
1, 99686, Note_on_c, 0, 59, 91
1, 99740, Note_off_c, 0, 59, 91
1, 99745, Note_on_c, 0, 57, 110
1, 99788, Note_off_c, 0, 57, 110
1, 99793, Note_on_c, 0, 62, 97
1, 99884, Note_off_c, 0, 62, 97
1, 99887, Note_on_c, 0, 63, 104
1, 99972, Note_off_c, 0, 63, 104
1, 99979, Note_on_c, 0, 60, 91
1, 100007, Note_off_c, 0, 60, 91
1, 100016, Note_on_c, 0, 57, 92
1, 100047, Note_off_c, 0, 57, 92
1, 100054, Note_on_c, 0, 54, 87
1, 100130, Note_off_c, 0, 54, 87
1, 100134, Note_on_c, 0, 57, 92
1, 100199, Note_off_c, 0, 57, 92
1, 100199, Note_on_c, 0, 62, 94
1, 100294, Note_off_c, 0, 62, 94
1, 100302, Note_on_c, 0, 58, 94
1, 100345, Note_off_c, 0, 58, 94
1, 100352, Note_on_c, 0, 55, 94
1, 100398, Note_off_c, 0, 55, 94
1, 100415, Note_on_c, 0, 50, 87
1, 100489, Note_off_c, 0, 50, 87
1, 100924, Note_on_c, 0, 74, 83
1, 101121, Note_off_c, 0, 74, 83
1, 101139, Note_on_c, 0, 69, 83
1, 101295, Note_off_c, 0, 69, 83
1, 101295, Note_on_c, 0, 71, 102
1, 101319, Note_off_c, 0, 71, 102
1, 101331, Note_on_c, 0, 72, 102
1, 101384, Note_off_c, 0, 72, 102
1, 101385, Note_on_c, 0, 71, 100
1, 101416, Note_off_c, 0, 71, 100
1, 101425, Note_on_c, 0, 67, 94
1, 101458, Note_off_c, 0, 67, 94
1, 101471, Note_on_c, 0, 63, 108
1, 101524, Note_off_c, 0, 63, 108
1, 101534, Note_on_c, 0, 60, 100
1, 101561, Note_off_c, 0, 60, 100
1, 101564, Note_on_c, 0, 63, 93
1, 101606, Note_off_c, 0, 63, 93
1, 101611, Note_on_c, 0, 67, 96
1, 101654, Note_off_c, 0, 67, 96
1, 101662, Note_on_c, 0, 71, 96
1, 101741, Note_off_c, 0, 71, 96
1, 101747, Note_on_c, 0, 67, 99
1, 101796, Note_off_c, 0, 67, 99
1, 101809, Note_on_c, 0, 63, 103
1, 101852, Note_off_c, 0, 63, 103
1, 101869, Note_on_c, 0, 60, 95
1, 101901, Note_off_c, 0, 60, 95
1, 101908, Note_on_c, 0, 63, 90
1, 101950, Note_off_c, 0, 63, 90
1, 101951, Note_on_c, 0, 67, 98
1, 101995, Note_off_c, 0, 67, 98
1, 102005, Note_on_c, 0, 69, 100
1, 102063, Note_off_c, 0, 69, 100
1, 102064, Note_on_c, 0, 65, 104
1, 102120, Note_off_c, 0, 65, 104
1, 102127, Note_on_c, 0, 66, 96
1, 102169, Note_off_c, 0, 66, 96
1, 102174, Note_on_c, 0, 67, 97
1, 102226, Note_off_c, 0, 67, 97
1, 102247, Note_on_c, 0, 63, 101
1, 102307, Note_off_c, 0, 63, 101
1, 102315, Note_on_c, 0, 60, 91
1, 102352, Note_off_c, 0, 60, 91
1, 102355, Note_on_c, 0, 64, 100
1, 102408, Note_off_c, 0, 64, 100
1, 102410, Note_on_c, 0, 65, 100
1, 102468, Note_off_c, 0, 65, 100
1, 102473, Note_on_c, 0, 62, 108
1, 102537, Note_off_c, 0, 62, 108
1, 102540, Note_on_c, 0, 58, 95
1, 102599, Note_off_c, 0, 58, 95
1, 102606, Note_on_c, 0, 55, 87
1, 102657, Note_off_c, 0, 55, 87
1, 102657, Note_on_c, 0, 57, 92
1, 102689, Note_off_c, 0, 57, 92
1, 102696, Note_on_c, 0, 58, 97
1, 102756, Note_off_c, 0, 58, 97
1, 102761, Note_on_c, 0, 63, 102
1, 102842, Note_off_c, 0, 63, 102
1, 102847, Note_on_c, 0, 60, 97
1, 102888, Note_off_c, 0, 60, 97
1, 102896, Note_on_c, 0, 59, 92
1, 102936, Note_off_c, 0, 59, 92
1, 102949, Note_on_c, 0, 54, 91
1, 103009, Note_off_c, 0, 54, 91
1, 103016, Note_on_c, 0, 55, 85
1, 103065, Note_off_c, 0, 55, 85
1, 103078, Note_on_c, 0, 59, 88
1, 103111, Note_off_c, 0, 59, 88
1, 103114, Note_on_c, 0, 60, 94
1, 103171, Note_off_c, 0, 60, 94
1, 103182, Note_on_c, 0, 59, 91
1, 103219, Note_off_c, 0, 59, 91
1, 103236, Note_on_c, 0, 55, 91
1, 103287, Note_off_c, 0, 55, 91
1, 103301, Note_on_c, 0, 51, 88
1, 103335, Note_off_c, 0, 51, 88
1, 103350, Note_on_c, 0, 48, 84
1, 103386, Note_off_c, 0, 48, 84
1, 103386, Note_on_c, 0, 58, 87
1, 103468, Note_off_c, 0, 58, 87
1, 103533, Note_on_c, 0, 51, 84
1, 103592, Note_off_c, 0, 51, 84
1, 103603, Note_on_c, 0, 56, 91
1, 103655, Note_off_c, 0, 56, 91
1, 103674, Note_on_c, 0, 55, 88
1, 103705, Note_off_c, 0, 55, 88
1, 103711, Note_on_c, 0, 51, 89
1, 103775, Note_off_c, 0, 51, 89
1, 103801, Note_on_c, 0, 48, 83
1, 103847, Note_off_c, 0, 48, 83
1, 103851, Note_on_c, 0, 55, 85
1, 103910, Note_off_c, 0, 55, 85
1, 103929, Note_on_c, 0, 53, 80
1, 104196, Note_off_c, 0, 53, 80
1, 104552, Note_on_c, 0, 51, 98
1, 104626, Note_off_c, 0, 51, 98
1, 104633, Note_on_c, 0, 55, 95
1, 104742, Note_off_c, 0, 55, 95
1, 104755, Note_on_c, 0, 53, 104
1, 104827, Note_off_c, 0, 53, 104
1, 104830, Note_on_c, 0, 51, 102
1, 104949, Note_off_c, 0, 51, 102
1, 104954, Note_on_c, 0, 50, 98
1, 105035, Note_off_c, 0, 50, 98
1, 105040, Note_on_c, 0, 48, 96
1, 105134, Note_off_c, 0, 48, 96
1, 105137, Note_on_c, 0, 50, 95
1, 105222, Note_off_c, 0, 50, 95
1, 105231, Note_on_c, 0, 51, 96
1, 105309, Note_off_c, 0, 51, 96
1, 105358, Note_on_c, 0, 48, 89
1, 105409, Note_off_c, 0, 48, 89
1, 105420, Note_on_c, 0, 53, 94
1, 105519, Note_off_c, 0, 53, 94
1, 105610, Note_on_c, 0, 51, 92
1, 105705, Note_off_c, 0, 51, 92
1, 105707, Note_on_c, 0, 53, 94
1, 105775, Note_off_c, 0, 53, 94
1, 105778, Note_on_c, 0, 54, 89
1, 105853, Note_off_c, 0, 54, 89
1, 105863, Note_on_c, 0, 55, 92
1, 105977, Note_off_c, 0, 55, 92
1, 105982, Note_on_c, 0, 57, 97
1, 106085, Note_off_c, 0, 57, 97
1, 106146, Note_on_c, 0, 55, 89
1, 106252, Note_off_c, 0, 55, 89
1, 106290, Note_on_c, 0, 63, 102
1, 106389, Note_off_c, 0, 63, 102
1, 106461, Note_on_c, 0, 58, 96
1, 106524, Note_off_c, 0, 58, 96
1, 106529, Note_on_c, 0, 59, 87
1, 106620, Note_off_c, 0, 59, 87
1, 106634, Note_on_c, 0, 62, 102
1, 106712, Note_off_c, 0, 62, 102
1, 106720, Note_on_c, 0, 63, 96
1, 106809, Note_off_c, 0, 63, 96
1, 106843, Note_on_c, 0, 67, 91
1, 106909, Note_off_c, 0, 67, 91
1, 106920, Note_on_c, 0, 66, 87
1, 106998, Note_off_c, 0, 66, 87
1, 107012, Note_on_c, 0, 62, 82
1, 107057, Note_off_c, 0, 62, 82
1, 107081, Note_on_c, 0, 65, 89
1, 107197, Note_off_c, 0, 65, 89
1, 107267, Note_on_c, 0, 64, 98
1, 107387, Note_off_c, 0, 64, 98
1, 107403, Note_on_c, 0, 66, 88
1, 107445, Note_off_c, 0, 66, 88
1, 107471, Note_on_c, 0, 71, 87
1, 107560, Note_off_c, 0, 71, 87
1, 107584, Note_on_c, 0, 73, 91
1, 107646, Note_off_c, 0, 73, 91
1, 107684, Note_on_c, 0, 67, 94
1, 107754, Note_off_c, 0, 67, 94
1, 107785, Note_on_c, 0, 71, 96
1, 107847, Note_off_c, 0, 71, 96
1, 107863, Note_on_c, 0, 69, 95
1, 107956, Note_off_c, 0, 69, 95
1, 107978, Note_on_c, 0, 65, 91
1, 108034, Note_off_c, 0, 65, 91
1, 108039, Note_on_c, 0, 63, 98
1, 108141, Note_off_c, 0, 63, 98
1, 108158, Note_on_c, 0, 67, 91
1, 108205, Note_off_c, 0, 67, 91
1, 108218, Note_on_c, 0, 62, 94
1, 108340, Note_off_c, 0, 62, 94
1, 108363, Note_on_c, 0, 60, 94
1, 108445, Note_off_c, 0, 60, 94
1, 108798, Note_on_c, 0, 63, 102
1, 108963, Note_off_c, 0, 63, 102
1, 108983, Note_on_c, 0, 63, 105
1, 109109, Note_off_c, 0, 63, 105
1, 109116, Note_on_c, 0, 63, 101
1, 109180, Note_off_c, 0, 63, 101
1, 109218, Note_on_c, 0, 65, 100
1, 109330, Note_off_c, 0, 65, 100
1, 109393, Note_on_c, 0, 63, 97
1, 109498, Note_off_c, 0, 63, 97
1, 109526, Note_on_c, 0, 65, 91
1, 109585, Note_off_c, 0, 65, 91
1, 109595, Note_on_c, 0, 66, 95
1, 109706, Note_off_c, 0, 66, 95
1, 109711, Note_on_c, 0, 65, 88
1, 109766, Note_off_c, 0, 65, 88
1, 109773, Note_on_c, 0, 63, 89
1, 109899, Note_off_c, 0, 63, 89
1, 109905, Note_on_c, 0, 60, 84
1, 110067, Note_off_c, 0, 60, 84
1, 110137, Note_on_c, 0, 63, 88
1, 110279, Note_off_c, 0, 63, 88
1, 110290, Note_on_c, 0, 65, 79
1, 110409, Note_off_c, 0, 65, 79
1, 110822, Note_on_c, 0, 60, 96
1, 110881, Note_off_c, 0, 60, 96
1, 110892, Note_on_c, 0, 62, 100
1, 110998, Note_off_c, 0, 62, 100
1, 111015, Note_on_c, 0, 63, 113
1, 111270, Note_off_c, 0, 63, 113
1, 111279, Note_on_c, 0, 62, 110
1, 111418, Note_off_c, 0, 62, 110
1, 111431, Note_on_c, 0, 60, 80
1, 111465, Note_off_c, 0, 60, 80
1, 111475, Note_on_c, 0, 63, 108
1, 111665, Note_off_c, 0, 63, 108
1, 111674, Note_on_c, 0, 62, 105
1, 111784, Note_off_c, 0, 62, 105
1, 111793, Note_on_c, 0, 60, 91
1, 111852, Note_off_c, 0, 60, 91
1, 111862, Note_on_c, 0, 63, 105
1, 112052, Note_off_c, 0, 63, 105
1, 112060, Note_on_c, 0, 62, 101
1, 112158, Note_off_c, 0, 62, 101
1, 112232, Note_on_c, 0, 60, 90
1, 112339, Note_off_c, 0, 60, 90
1, 112430, Note_on_c, 0, 72, 95
1, 112554, Note_off_c, 0, 72, 95
1, 112569, Note_on_c, 0, 69, 92
1, 112635, Note_off_c, 0, 69, 92
1, 112639, Note_on_c, 0, 70, 92
1, 112742, Note_off_c, 0, 70, 92
1, 112988, Note_on_c, 0, 65, 105
1, 113116, Note_off_c, 0, 65, 105
1, 113122, Note_on_c, 0, 67, 93
1, 113159, Note_off_c, 0, 67, 93
1, 113165, Note_on_c, 0, 68, 109
1, 113295, Note_off_c, 0, 68, 109
1, 113310, Note_on_c, 0, 67, 102
1, 113499, Note_off_c, 0, 67, 102
1, 113504, Note_on_c, 0, 63, 93
1, 113753, Note_off_c, 0, 63, 93
1, 113970, Note_on_c, 0, 63, 106
1, 114109, Note_off_c, 0, 63, 106
1, 114124, Note_on_c, 0, 61, 88
1, 114173, Note_off_c, 0, 61, 88
1, 114187, Note_on_c, 0, 62, 96
1, 114331, Note_off_c, 0, 62, 96
1, 114339, Note_on_c, 0, 65, 33
1, 114449, Note_off_c, 0, 65, 33
1, 114449, Note_on_c, 0, 70, 111
1, 114922, Note_off_c, 0, 70, 111
1, 114935, Note_on_c, 0, 70, 106
1, 115680, Note_off_c, 0, 70, 106
1, 115698, Note_on_c, 0, 70, 100
1, 116070, Note_off_c, 0, 70, 100
1, 116084, Note_on_c, 0, 70, 108
1, 116242, Note_off_c, 0, 70, 108
1, 116261, Note_on_c, 0, 72, 107
1, 116338, Note_off_c, 0, 72, 107
1, 116351, Note_on_c, 0, 68, 109
1, 116604, Note_off_c, 0, 68, 109
1, 117045, Note_on_c, 0, 68, 127
1, 117179, Note_off_c, 0, 68, 127
1, 117183, Note_on_c, 0, 67, 107
1, 117935, Note_off_c, 0, 67, 107
1, 117946, Note_on_c, 0, 65, 109
1, 118199, Note_off_c, 0, 65, 109
1, 118212, Note_on_c, 0, 64, 95
1, 118281, Note_off_c, 0, 64, 95
1, 118284, Note_on_c, 0, 65, 107
1, 118436, Note_off_c, 0, 65, 107
1, 118449, Note_on_c, 0, 62, 112
1, 118569, Note_off_c, 0, 62, 112
1, 118586, Note_on_c, 0, 63, 112
1, 118966, Note_off_c, 0, 63, 112
1, 118967, Note_on_c, 0, 60, 103
1, 119299, Note_off_c, 0, 60, 103
1, 119425, Note_on_c, 0, 58, 101
1, 119531, Note_off_c, 0, 58, 101
1, 119537, Note_on_c, 0, 62, 111
1, 119751, Note_off_c, 0, 62, 111
1, 119961, Note_on_c, 0, 60, 112
1, 120097, Note_off_c, 0, 60, 112
1, 120107, Note_on_c, 0, 60, 105
1, 120275, Note_off_c, 0, 60, 105
1, 120280, Note_on_c, 0, 58, 93
1, 120350, Note_off_c, 0, 58, 93
1, 120356, Note_on_c, 0, 60, 110
1, 120440, Note_off_c, 0, 60, 110
1, 120464, Note_on_c, 0, 58, 94
1, 120537, Note_off_c, 0, 58, 94
1, 120539, Note_on_c, 0, 62, 114
1, 120665, Note_off_c, 0, 62, 114
1, 120747, Note_on_c, 0, 60, 106
1, 120837, Note_off_c, 0, 60, 106
1, 120850, Note_on_c, 0, 58, 98
1, 120910, Note_off_c, 0, 58, 98
1, 120925, Note_on_c, 0, 60, 104
1, 121009, Note_off_c, 0, 60, 104
1, 121018, Note_on_c, 0, 58, 103
1, 121084, Note_off_c, 0, 58, 103
1, 121096, Note_on_c, 0, 60, 98
1, 121207, Note_off_c, 0, 60, 98
1, 121219, Note_on_c, 0, 58, 88
1, 121278, Note_off_c, 0, 58, 88
1, 121287, Note_on_c, 0, 62, 107
1, 121560, Note_off_c, 0, 62, 107
1, 121787, Note_on_c, 0, 63, 119
1, 121876, Note_off_c, 0, 63, 119
1, 121881, Note_on_c, 0, 62, 113
1, 121958, Note_off_c, 0, 62, 113
1, 121966, Note_on_c, 0, 60, 104
1, 122072, Note_off_c, 0, 60, 104
1, 122081, Note_on_c, 0, 59, 92
1, 122145, Note_off_c, 0, 59, 92
1, 122160, Note_on_c, 0, 62, 111
1, 122234, Note_off_c, 0, 62, 111
1, 122245, Note_on_c, 0, 60, 103
1, 122340, Note_off_c, 0, 60, 103
1, 122347, Note_on_c, 0, 56, 97
1, 122402, Note_off_c, 0, 56, 97
1, 122421, Note_on_c, 0, 58, 97
1, 122485, Note_off_c, 0, 58, 97
1, 122496, Note_on_c, 0, 60, 101
1, 122557, Note_off_c, 0, 60, 101
1, 122573, Note_on_c, 0, 58, 109
1, 122613, Note_off_c, 0, 58, 109
1, 122629, Note_on_c, 0, 55, 97
1, 122710, Note_off_c, 0, 55, 97
1, 122731, Note_on_c, 0, 53, 100
1, 122821, Note_off_c, 0, 53, 100
1, 122838, Note_on_c, 0, 51, 102
1, 123087, Note_off_c, 0, 51, 102
1, 123230, Note_on_c, 0, 50, 97
1, 123315, Note_off_c, 0, 50, 97
1, 123343, Note_on_c, 0, 48, 91
1, 123642, Note_off_c, 0, 48, 91
1, 123642, End_track
0, 0, End_of_file
