0, 0, Header, 1, 1, 840
1, 0, Start_track
1, 0, Title_t, "Melody"
1, 0, Tempo, 480000
1, 0, Key_signature, 0, "major"
1, 0, Time_signature, 4, 2, 24, 8
1, 12504, Note_on_c, 0, 55, 93
1, 12801, Note_off_c, 0, 55, 93
1, 12810, Note_on_c, 0, 52, 82
1, 12960, Note_off_c, 0, 52, 82
1, 12988, Note_on_c, 0, 53, 88
1, 13188, Note_off_c, 0, 53, 88
1, 13211, Note_on_c, 0, 55, 96
1, 13420, Note_off_c, 0, 55, 96
1, 13444, Note_on_c, 0, 56, 92
1, 13657, Note_off_c, 0, 56, 92
1, 13669, Note_on_c, 0, 58, 85
1, 13865, Note_off_c, 0, 58, 85
1, 13890, Note_on_c, 0, 59, 85
1, 14047, Note_off_c, 0, 59, 85
1, 14047, Note_on_c, 0, 60, 103
1, 14280, Note_off_c, 0, 60, 103
1, 14295, Note_on_c, 0, 61, 103
1, 14472, Note_on_c, 0, 62, 108
1, 14472, Note_off_c, 0, 61, 103
1, 14659, Note_off_c, 0, 62, 108
1, 14684, Note_on_c, 0, 64, 114
1, 14836, Note_off_c, 0, 64, 114
1, 14846, Note_on_c, 0, 65, 109
1, 15069, Note_off_c, 0, 65, 109
1, 15069, Note_on_c, 0, 67, 111
1, 15277, Note_off_c, 0, 67, 111
1, 15287, Note_on_c, 0, 68, 107
1, 15403, Note_off_c, 0, 68, 107
1, 15413, Note_on_c, 0, 70, 101
1, 15683, Note_off_c, 0, 70, 101
1, 15703, Note_on_c, 0, 72, 110
1, 15883, Note_off_c, 0, 72, 110
1, 15898, Note_on_c, 0, 70, 109
1, 16867, Note_off_c, 0, 70, 109
1, 16895, Note_on_c, 0, 68, 117
1, 17135, Note_off_c, 0, 68, 117
1, 17148, Note_on_c, 0, 67, 112
1, 17288, Note_off_c, 0, 67, 112
1, 17327, Note_on_c, 0, 65, 107
1, 17550, Note_off_c, 0, 65, 107
1, 17565, Note_on_c, 0, 64, 109
1, 17773, Note_off_c, 0, 64, 109
1, 17783, Note_on_c, 0, 65, 102
1, 17965, Note_off_c, 0, 65, 102
1, 17984, Note_on_c, 0, 67, 110
1, 18248, Note_off_c, 0, 67, 110
1, 18268, Note_on_c, 0, 64, 109
1, 18461, Note_off_c, 0, 64, 109
1, 18464, Note_on_c, 0, 66, 102
1, 19523, Note_off_c, 0, 66, 102
1, 19528, Note_on_c, 0, 65, 104
1, 19649, Note_off_c, 0, 65, 104
1, 19662, Note_on_c, 0, 64, 105
1, 19894, Note_off_c, 0, 64, 105
1, 19911, Note_on_c, 0, 62, 97
1, 20149, Note_on_c, 0, 63, 106
1, 20149, Note_off_c, 0, 62, 97
1, 20357, Note_off_c, 0, 63, 106
1, 20374, Note_on_c, 0, 66, 94
1, 20558, Note_off_c, 0, 66, 94
1, 20569, Note_on_c, 0, 63, 100
1, 20809, Note_off_c, 0, 63, 100
1, 20852, Note_on_c, 0, 59, 83
1, 21015, Note_off_c, 0, 59, 83
1, 21032, Note_on_c, 0, 56, 95
1, 21251, Note_off_c, 0, 56, 95
1, 21282, Note_on_c, 0, 54, 90
1, 21541, Note_off_c, 0, 54, 90
1, 21543, Note_on_c, 0, 61, 91
1, 22154, Note_off_c, 0, 61, 91
1, 22251, Note_on_c, 0, 56, 92
1, 22418, Note_off_c, 0, 56, 92
1, 22438, Note_on_c, 0, 54, 88
1, 22661, Note_off_c, 0, 54, 88
1, 22686, Note_on_c, 0, 51, 80
1, 22894, Note_off_c, 0, 51, 80
1, 22932, Note_on_c, 0, 56, 97
1, 23158, Note_off_c, 0, 56, 97
1, 23239, Note_on_c, 0, 54, 94
1, 23416, Note_off_c, 0, 54, 94
1, 24829, Note_on_c, 0, 67, 117
1, 25040, Note_off_c, 0, 67, 117
1, 25053, Note_on_c, 0, 65, 109
1, 25275, Note_off_c, 0, 65, 109
1, 25276, Note_on_c, 0, 70, 107
1, 25500, Note_off_c, 0, 70, 107
1, 25528, Note_on_c, 0, 67, 109
1, 25718, Note_off_c, 0, 67, 109
1, 25742, Note_on_c, 0, 62, 110
1, 25900, Note_off_c, 0, 62, 110
1, 25926, Note_on_c, 0, 67, 108
1, 26120, Note_off_c, 0, 67, 108
1, 26129, Note_on_c, 0, 65, 103
1, 26820, Note_off_c, 0, 65, 103
1, 26861, Note_on_c, 0, 60, 102
1, 27015, Note_off_c, 0, 60, 102
1, 27056, Note_on_c, 0, 58, 91
1, 27290, Note_off_c, 0, 58, 91
1, 27296, Note_on_c, 0, 63, 101
1, 27524, Note_off_c, 0, 63, 101
1, 27552, Note_on_c, 0, 61, 97
1, 27702, Note_off_c, 0, 61, 97
1, 27716, Note_on_c, 0, 58, 91
1, 27901, Note_off_c, 0, 58, 91
1, 27922, Note_on_c, 0, 60, 93
1, 28743, Note_off_c, 0, 60, 93
1, 28814, Note_on_c, 0, 58, 92
1, 29014, Note_off_c, 0, 58, 92
1, 29044, Note_on_c, 0, 56, 99
1, 29228, Note_off_c, 0, 56, 99
1, 29254, Note_on_c, 0, 53, 95
1, 29446, Note_off_c, 0, 53, 95
1, 29490, Note_on_c, 0, 51, 92
1, 29654, Note_off_c, 0, 51, 92
1, 29668, Note_on_c, 0, 56, 97
1, 29832, Note_off_c, 0, 56, 97
1, 29863, Note_on_c, 0, 53, 97
1, 30034, Note_off_c, 0, 53, 97
1, 30052, Note_on_c, 0, 51, 89
1, 30294, Note_off_c, 0, 51, 89
1, 30308, Note_on_c, 0, 48, 99
1, 30610, Note_off_c, 0, 48, 99
1, 30632, Note_on_c, 0, 51, 96
1, 30900, Note_off_c, 0, 51, 96
1, 30934, Note_on_c, 0, 48, 102
1, 31288, Note_off_c, 0, 48, 102
1, 33225, Note_on_c, 0, 53, 98
1, 33418, Note_off_c, 0, 53, 98
1, 33489, Note_on_c, 0, 57, 102
1, 33689, Note_off_c, 0, 57, 102
1, 33689, Note_on_c, 0, 60, 109
1, 34029, Note_off_c, 0, 60, 109
1, 34044, Note_on_c, 0, 60, 111
1, 34289, Note_off_c, 0, 60, 111
1, 34311, Note_on_c, 0, 58, 95
1, 34619, Note_off_c, 0, 58, 95
1, 34638, Note_on_c, 0, 60, 110
1, 34916, Note_off_c, 0, 60, 110
1, 34931, Note_on_c, 0, 61, 112
1, 35157, Note_off_c, 0, 61, 112
1, 35191, Note_on_c, 0, 61, 115
1, 35455, Note_off_c, 0, 61, 115
1, 35477, Note_on_c, 0, 63, 119
1, 35682, Note_off_c, 0, 63, 119
1, 35754, Note_on_c, 0, 63, 121
1, 36072, Note_off_c, 0, 63, 121
1, 36091, Note_on_c, 0, 65, 113
1, 36329, Note_off_c, 0, 65, 113
1, 36374, Note_on_c, 0, 65, 115
1, 36587, Note_off_c, 0, 65, 115
1, 36595, Note_on_c, 0, 68, 112
1, 36901, Note_off_c, 0, 68, 112
1, 36961, Note_on_c, 0, 67, 117
1, 37270, Note_off_c, 0, 67, 117
1, 37315, Note_on_c, 0, 67, 115
1, 37563, Note_off_c, 0, 67, 115
1, 37563, Note_on_c, 0, 64, 116
1, 37820, Note_off_c, 0, 64, 116
1, 37863, Note_on_c, 0, 59, 88
1, 38190, Note_off_c, 0, 59, 88
1, 38222, Note_on_c, 0, 55, 102
1, 38444, Note_off_c, 0, 55, 102
1, 38464, Note_on_c, 0, 62, 113
1, 39345, Note_off_c, 0, 62, 113
1, 39372, Note_on_c, 0, 60, 99
1, 39590, Note_off_c, 0, 60, 99
1, 39610, Note_on_c, 0, 59, 91
1, 39757, Note_off_c, 0, 59, 91
1, 39776, Note_on_c, 0, 57, 89
1, 39901, Note_off_c, 0, 57, 89
1, 39918, Note_on_c, 0, 55, 103
1, 40156, Note_off_c, 0, 55, 103
1, 40186, Note_on_c, 0, 53, 94
1, 40480, Note_off_c, 0, 53, 94
1, 40490, Note_on_c, 0, 52, 97
1, 40632, Note_off_c, 0, 52, 97
1, 41840, Note_on_c, 0, 66, 109
1, 42088, Note_off_c, 0, 66, 109
1, 42094, Note_on_c, 0, 71, 112
1, 42326, Note_off_c, 0, 71, 112
1, 42331, Note_on_c, 0, 68, 114
1, 42521, Note_off_c, 0, 68, 114
1, 42527, Note_on_c, 0, 66, 109
1, 42699, Note_off_c, 0, 66, 109
1, 42704, Note_on_c, 0, 64, 111
1, 42898, Note_off_c, 0, 64, 111
1, 42898, Note_on_c, 0, 68, 114
1, 43145, Note_off_c, 0, 68, 114
1, 43158, Note_on_c, 0, 66, 106
1, 43468, Note_off_c, 0, 66, 106
1, 43477, Note_on_c, 0, 63, 115
1, 43776, Note_off_c, 0, 63, 115
1, 43785, Note_on_c, 0, 66, 105
1, 44059, Note_off_c, 0, 66, 105
1, 44184, Note_on_c, 0, 63, 110
1, 44433, Note_off_c, 0, 63, 110
1, 44533, Note_on_c, 0, 64, 118
1, 44792, Note_off_c, 0, 64, 118
1, 44898, Note_on_c, 0, 66, 104
1, 45177, Note_off_c, 0, 66, 104
1, 45281, Note_on_c, 0, 63, 115
1, 45566, Note_off_c, 0, 63, 115
1, 45706, Note_on_c, 0, 63, 113
1, 46022, Note_off_c, 0, 63, 113
1, 46033, Note_on_c, 0, 64, 111
1, 46316, Note_off_c, 0, 64, 111
1, 46346, Note_on_c, 0, 61, 105
1, 46565, Note_off_c, 0, 61, 105
1, 46605, Note_on_c, 0, 61, 100
1, 46883, Note_off_c, 0, 61, 100
1, 47006, Note_on_c, 0, 59, 92
1, 47204, Note_off_c, 0, 59, 92
1, 47219, Note_on_c, 0, 56, 99
1, 47487, Note_off_c, 0, 56, 99
1, 47525, Note_on_c, 0, 56, 96
1, 47768, Note_off_c, 0, 56, 96
1, 47837, Note_on_c, 0, 54, 91
1, 47998, Note_off_c, 0, 54, 91
1, 47998, Note_on_c, 0, 51, 92
1, 48428, Note_off_c, 0, 51, 92
1, 49061, Note_on_c, 0, 74, 105
1, 49157, Note_off_c, 0, 74, 105
1, 49174, Note_on_c, 0, 72, 115
1, 49320, Note_off_c, 0, 72, 115
1, 49334, Note_on_c, 0, 70, 110
1, 49534, Note_off_c, 0, 70, 110
1, 49544, Note_on_c, 0, 68, 118
1, 49772, Note_off_c, 0, 68, 118
1, 49782, Note_on_c, 0, 67, 115
1, 49996, Note_off_c, 0, 67, 115
1, 50003, Note_on_c, 0, 66, 112
1, 50210, Note_off_c, 0, 66, 112
1, 50343, Note_on_c, 0, 65, 95
1, 50403, Note_off_c, 0, 65, 95
1, 50421, Note_on_c, 0, 64, 117
1, 50647, Note_off_c, 0, 64, 117
1, 50647, Note_on_c, 0, 63, 112
1, 50843, Note_off_c, 0, 63, 112
1, 50848, Note_on_c, 0, 62, 104
1, 51068, Note_off_c, 0, 62, 104
1, 51079, Note_on_c, 0, 60, 91
1, 51307, Note_off_c, 0, 60, 91
1, 51333, Note_on_c, 0, 59, 97
1, 51506, Note_off_c, 0, 59, 97
1, 51538, Note_on_c, 0, 58, 97
1, 51711, Note_off_c, 0, 58, 97
1, 51744, Note_on_c, 0, 55, 103
1, 51951, Note_off_c, 0, 55, 103
1, 51969, Note_on_c, 0, 54, 97
1, 52165, Note_off_c, 0, 54, 97
1, 52239, Note_on_c, 0, 51, 95
1, 52421, Note_off_c, 0, 51, 95
1, 52435, Note_on_c, 0, 53, 102
1, 52617, Note_off_c, 0, 53, 102
1, 52626, Note_on_c, 0, 52, 96
1, 52761, Note_off_c, 0, 52, 96
1, 52781, Note_on_c, 0, 51, 95
1, 53028, Note_off_c, 0, 51, 95
1, 53125, Note_on_c, 0, 53, 89
1, 53272, Note_off_c, 0, 53, 89
1, 53272, Note_on_c, 0, 54, 93
1, 53388, Note_off_c, 0, 54, 93
1, 53421, Note_on_c, 0, 56, 88
1, 53506, Note_off_c, 0, 56, 88
1, 53511, Note_on_c, 0, 58, 89
1, 53566, Note_off_c, 0, 58, 89
1, 53581, Note_on_c, 0, 62, 103
1, 53691, Note_off_c, 0, 62, 103
1, 53706, Note_on_c, 0, 65, 111
1, 53928, Note_off_c, 0, 65, 111
1, 53943, Note_on_c, 0, 64, 114
1, 54118, Note_off_c, 0, 64, 114
1, 54158, Note_on_c, 0, 63, 109
1, 54336, Note_off_c, 0, 63, 109
1, 54337, Note_on_c, 0, 65, 102
1, 54538, Note_off_c, 0, 65, 102
1, 54732, Note_on_c, 0, 68, 86
1, 54848, Note_off_c, 0, 68, 86
1, 54874, Note_on_c, 0, 70, 104
1, 55161, Note_off_c, 0, 70, 104
1, 55170, Note_on_c, 0, 66, 106
1, 55358, Note_off_c, 0, 66, 106
1, 55373, Note_on_c, 0, 65, 95
1, 55540, Note_off_c, 0, 65, 95
1, 55630, Note_on_c, 0, 64, 85
1, 55751, Note_off_c, 0, 64, 85
1, 55761, Note_on_c, 0, 68, 104
1, 56063, Note_off_c, 0, 68, 104
1, 56460, Note_on_c, 0, 65, 103
1, 56761, Note_off_c, 0, 65, 103
1, 56761, Note_on_c, 0, 61, 98
1, 56928, Note_off_c, 0, 61, 98
1, 56947, Note_on_c, 0, 58, 86
1, 57121, Note_off_c, 0, 58, 86
1, 57135, Note_on_c, 0, 57, 95
1, 57308, Note_off_c, 0, 57, 95
1, 57316, Note_on_c, 0, 63, 113
1, 57601, Note_off_c, 0, 63, 113
1, 57615, Note_on_c, 0, 61, 97
1, 57815, Note_off_c, 0, 61, 97
1, 57829, Note_on_c, 0, 58, 90
1, 58021, Note_off_c, 0, 58, 90
1, 58182, Note_on_c, 0, 56, 100
1, 58400, Note_off_c, 0, 56, 100
1, 58402, Note_on_c, 0, 57, 93
1, 58569, Note_off_c, 0, 57, 93
1, 58599, Note_on_c, 0, 60, 105
1, 58814, Note_off_c, 0, 60, 105
1, 58877, Note_on_c, 0, 57, 92
1, 59009, Note_off_c, 0, 57, 92
1, 59024, Note_on_c, 0, 58, 92
1, 59234, Note_off_c, 0, 58, 92
1, 59254, Note_on_c, 0, 60, 97
1, 59419, Note_off_c, 0, 60, 97
1, 59426, Note_on_c, 0, 61, 89
1, 59525, Note_off_c, 0, 61, 89
1, 59529, Note_on_c, 0, 63, 84
1, 59664, Note_off_c, 0, 63, 84
1, 59790, Note_on_c, 0, 72, 97
1, 60031, Note_off_c, 0, 72, 97
1, 60043, Note_on_c, 0, 68, 102
1, 60246, Note_off_c, 0, 68, 102
1, 60258, Note_on_c, 0, 65, 94
1, 60445, Note_off_c, 0, 65, 94
1, 60462, Note_on_c, 0, 62, 72
1, 60578, Note_off_c, 0, 62, 72
1, 60644, Note_on_c, 0, 70, 105
1, 60943, Note_off_c, 0, 70, 105
1, 60960, Note_on_c, 0, 70, 103
1, 61313, Note_off_c, 0, 70, 103
1, 62603, Note_on_c, 0, 74, 110
1, 62735, Note_off_c, 0, 74, 110
1, 62755, Note_on_c, 0, 72, 115
1, 62902, Note_off_c, 0, 72, 115
1, 62912, Note_on_c, 0, 71, 112
1, 63084, Note_off_c, 0, 71, 112
1, 63144, Note_on_c, 0, 68, 115
1, 63326, Note_off_c, 0, 68, 115
1, 63339, Note_on_c, 0, 67, 111
1, 63584, Note_off_c, 0, 67, 111
1, 63593, Note_on_c, 0, 66, 110
1, 63762, Note_off_c, 0, 66, 110
1, 63775, Note_on_c, 0, 65, 100
1, 63902, Note_off_c, 0, 65, 100
1, 63922, Note_on_c, 0, 64, 114
1, 64099, Note_off_c, 0, 64, 114
1, 64125, Note_on_c, 0, 62, 104
1, 64271, Note_off_c, 0, 62, 104
1, 64305, Note_on_c, 0, 60, 100
1, 64487, Note_off_c, 0, 60, 100
1, 64501, Note_on_c, 0, 59, 96
1, 64664, Note_off_c, 0, 59, 96
1, 64709, Note_on_c, 0, 56, 102
1, 64866, Note_off_c, 0, 56, 102
1, 64911, Note_on_c, 0, 55, 103
1, 65104, Note_off_c, 0, 55, 103
1, 65119, Note_on_c, 0, 54, 102
1, 65200, Note_off_c, 0, 54, 102
1, 65215, Note_on_c, 0, 52, 98
1, 65331, Note_off_c, 0, 52, 98
1, 65331, Note_on_c, 0, 53, 97
1, 65447, Note_off_c, 0, 53, 97
1, 65487, Note_on_c, 0, 55, 97
1, 65593, Note_on_c, 0, 59, 93
1, 65593, Note_off_c, 0, 55, 97
1, 65689, Note_off_c, 0, 59, 93
1, 65753, Note_on_c, 0, 62, 106
1, 66002, Note_off_c, 0, 62, 106
1, 66180, Note_on_c, 0, 60, 101
1, 66378, Note_off_c, 0, 60, 101
1, 66378, Note_on_c, 0, 64, 111
1, 66596, Note_off_c, 0, 64, 111
1, 66616, Note_on_c, 0, 62, 88
1, 66717, Note_off_c, 0, 62, 88
1, 66722, Note_on_c, 0, 60, 90
1, 66864, Note_off_c, 0, 60, 90
1, 66883, Note_on_c, 0, 59, 92
1, 67035, Note_off_c, 0, 59, 92
1, 67043, Note_on_c, 0, 60, 99
1, 67229, Note_off_c, 0, 60, 99
1, 67236, Note_on_c, 0, 65, 108
1, 67383, Note_off_c, 0, 65, 108
1, 67389, Note_on_c, 0, 69, 108
1, 67556, Note_off_c, 0, 69, 108
1, 67563, Note_on_c, 0, 67, 111
1, 67719, Note_off_c, 0, 67, 111
1, 67734, Note_on_c, 0, 65, 102
1, 67880, Note_off_c, 0, 65, 102
1, 67916, Note_on_c, 0, 64, 103
1, 68030, Note_off_c, 0, 64, 103
1, 68037, Note_on_c, 0, 67, 96
1, 68151, Note_off_c, 0, 67, 96
1, 68216, Note_on_c, 0, 74, 97
1, 68419, Note_off_c, 0, 74, 97
1, 68444, Note_on_c, 0, 72, 109
1, 68723, Note_off_c, 0, 72, 109
1, 68748, Note_on_c, 0, 67, 110
1, 69042, Note_off_c, 0, 67, 110
1, 70933, Note_on_c, 0, 63, 118
1, 71224, Note_off_c, 0, 63, 118
1, 71246, Note_on_c, 0, 60, 107
1, 71482, Note_off_c, 0, 60, 107
1, 71644, Note_on_c, 0, 63, 117
1, 71933, Note_off_c, 0, 63, 117
1, 71947, Note_on_c, 0, 60, 103
1, 72169, Note_off_c, 0, 60, 103
1, 72268, Note_on_c, 0, 65, 115
1, 72414, Note_off_c, 0, 65, 115
1, 72417, Note_on_c, 0, 66, 110
1, 72641, Note_off_c, 0, 66, 110
1, 72818, Note_on_c, 0, 60, 100
1, 73073, Note_off_c, 0, 60, 100
1, 73074, Note_on_c, 0, 63, 102
1, 74038, Note_off_c, 0, 63, 102
1, 74904, Note_on_c, 0, 74, 121
1, 75081, Note_off_c, 0, 74, 121
1, 75081, Note_on_c, 0, 75, 119
1, 75176, Note_off_c, 0, 75, 119
1, 75176, Note_on_c, 0, 74, 110
1, 75252, Note_off_c, 0, 74, 110
1, 75267, Note_on_c, 0, 73, 114
1, 75430, Note_off_c, 0, 73, 114
1, 75457, Note_on_c, 0, 71, 121
1, 75740, Note_off_c, 0, 71, 121
1, 75906, Note_on_c, 0, 71, 119
1, 76328, Note_off_c, 0, 71, 119
1, 76350, Note_on_c, 0, 69, 111
1, 76696, Note_off_c, 0, 69, 111
1, 76806, Note_on_c, 0, 68, 109
1, 76979, Note_off_c, 0, 68, 109
1, 76990, Note_on_c, 0, 69, 105
1, 77132, Note_off_c, 0, 69, 105
1, 77151, Note_on_c, 0, 68, 106
1, 77278, Note_off_c, 0, 68, 106
1, 77329, Note_on_c, 0, 63, 111
1, 77591, Note_off_c, 0, 63, 111
1, 77621, Note_on_c, 0, 68, 107
1, 77714, Note_off_c, 0, 68, 107
1, 77717, Note_on_c, 0, 69, 111
1, 78355, Note_off_c, 0, 69, 111
1, 78370, Note_on_c, 0, 71, 115
1, 78790, Note_off_c, 0, 71, 115
1, 78996, Note_on_c, 0, 78, 93
1, 80374, Note_off_c, 0, 78, 93
1, 80379, Note_on_c, 0, 76, 123
1, 80719, Note_off_c, 0, 76, 123
1, 80720, Note_on_c, 0, 75, 120
1, 81030, Note_off_c, 0, 75, 120
1, 81043, Note_on_c, 0, 73, 106
1, 81246, Note_off_c, 0, 73, 106
1, 81263, Note_on_c, 0, 71, 113
1, 81544, Note_off_c, 0, 71, 113
1, 81732, Note_on_c, 0, 71, 115
1, 82029, Note_off_c, 0, 71, 115
1, 82032, Note_on_c, 0, 68, 106
1, 82211, Note_off_c, 0, 68, 106
1, 82231, Note_on_c, 0, 66, 109
1, 82552, Note_off_c, 0, 66, 109
1, 82594, Note_on_c, 0, 66, 107
1, 82951, Note_off_c, 0, 66, 107
1, 83018, Note_on_c, 0, 66, 108
1, 83284, Note_off_c, 0, 66, 108
1, 83471, Note_on_c, 0, 73, 100
1, 83720, Note_off_c, 0, 73, 100
1, 83720, Note_on_c, 0, 70, 111
1, 84459, Note_off_c, 0, 70, 111
1, 84497, Note_on_c, 0, 73, 113
1, 84744, Note_off_c, 0, 73, 113
1, 84777, Note_on_c, 0, 71, 118
1, 85669, Note_off_c, 0, 71, 118
1, 85683, Note_on_c, 0, 68, 104
1, 85847, Note_off_c, 0, 68, 104
1, 85854, Note_on_c, 0, 66, 106
1, 86039, Note_off_c, 0, 66, 106
1, 86051, Note_on_c, 0, 63, 108
1, 86222, Note_off_c, 0, 63, 108
1, 86239, Note_on_c, 0, 68, 106
1, 86414, Note_off_c, 0, 68, 106
1, 86423, Note_on_c, 0, 66, 105
1, 86543, Note_off_c, 0, 66, 105
1, 86586, Note_on_c, 0, 63, 113
1, 86736, Note_off_c, 0, 63, 113
1, 86746, Note_on_c, 0, 64, 109
1, 86902, Note_off_c, 0, 64, 109
1, 86942, Note_on_c, 0, 66, 103
1, 87106, Note_off_c, 0, 66, 103
1, 87117, Note_on_c, 0, 63, 117
1, 87783, Note_off_c, 0, 63, 117
1, 87792, Note_on_c, 0, 61, 103
1, 87982, Note_off_c, 0, 61, 103
1, 87993, Note_on_c, 0, 59, 99
1, 88130, Note_off_c, 0, 59, 99
1, 88156, Note_on_c, 0, 56, 100
1, 88293, Note_off_c, 0, 56, 100
1, 88353, Note_on_c, 0, 54, 97
1, 88471, Note_off_c, 0, 54, 97
1, 88505, Note_on_c, 0, 52, 89
1, 88689, Note_off_c, 0, 52, 89
1, 88700, Note_on_c, 0, 54, 100
1, 88913, Note_off_c, 0, 54, 100
1, 89070, Note_on_c, 0, 52, 92
1, 89277, Note_off_c, 0, 52, 92
1, 90316, Note_on_c, 0, 65, 112
1, 90533, Note_off_c, 0, 65, 112
1, 90533, Note_on_c, 0, 67, 119
1, 90654, Note_off_c, 0, 67, 119
1, 90657, Note_on_c, 0, 68, 116
1, 90774, Note_off_c, 0, 68, 116
1, 90777, Note_on_c, 0, 72, 119
1, 90905, Note_off_c, 0, 72, 119
1, 90922, Note_on_c, 0, 71, 119
1, 91118, Note_off_c, 0, 71, 119
1, 91121, Note_on_c, 0, 69, 106
1, 91321, Note_off_c, 0, 69, 106
1, 91327, Note_on_c, 0, 70, 112
1, 91506, Note_off_c, 0, 70, 112
1, 91552, Note_on_c, 0, 67, 113
1, 91719, Note_off_c, 0, 67, 113
1, 91725, Note_on_c, 0, 68, 112
1, 91915, Note_off_c, 0, 68, 112
1, 91981, Note_on_c, 0, 60, 85
1, 92133, Note_off_c, 0, 60, 85
1, 92163, Note_on_c, 0, 63, 94
1, 92313, Note_off_c, 0, 63, 94
1, 92317, Note_on_c, 0, 67, 112
1, 92543, Note_off_c, 0, 67, 112
1, 92562, Note_on_c, 0, 66, 108
1, 92722, Note_off_c, 0, 66, 108
1, 92739, Note_on_c, 0, 64, 97
1, 92860, Note_off_c, 0, 64, 97
1, 92870, Note_on_c, 0, 65, 112
1, 93127, Note_off_c, 0, 65, 112
1, 93127, Note_on_c, 0, 63, 118
1, 93348, Note_off_c, 0, 63, 118
1, 93362, Note_on_c, 0, 62, 112
1, 93565, Note_off_c, 0, 62, 112
1, 93568, Note_on_c, 0, 63, 108
1, 93714, Note_off_c, 0, 63, 108
1, 93946, Note_on_c, 0, 70, 106
1, 94081, Note_off_c, 0, 70, 106
1, 94216, Note_on_c, 0, 74, 106
1, 94461, Note_off_c, 0, 74, 106
1, 94941, Note_on_c, 0, 72, 115
1, 95163, Note_off_c, 0, 72, 115
1, 95172, Note_on_c, 0, 70, 110
1, 95356, Note_off_c, 0, 70, 110
1, 95370, Note_on_c, 0, 68, 109
1, 95598, Note_off_c, 0, 68, 109
1, 95608, Note_on_c, 0, 67, 114
1, 95795, Note_off_c, 0, 67, 114
1, 95816, Note_on_c, 0, 66, 110
1, 96008, Note_off_c, 0, 66, 110
1, 96012, Note_on_c, 0, 71, 105
1, 96154, Note_off_c, 0, 71, 105
1, 96209, Note_on_c, 0, 66, 110
1, 96462, Note_off_c, 0, 66, 110
1, 96482, Note_on_c, 0, 65, 108
1, 96613, Note_off_c, 0, 65, 108
1, 96616, Note_on_c, 0, 64, 112
1, 96913, Note_off_c, 0, 64, 112
1, 96933, Note_on_c, 0, 62, 97
1, 97029, Note_off_c, 0, 62, 97
1, 97029, Note_on_c, 0, 63, 112
1, 97272, Note_off_c, 0, 63, 112
1, 97297, Note_on_c, 0, 66, 110
1, 97464, Note_off_c, 0, 66, 110
1, 97683, Note_on_c, 0, 61, 106
1, 97867, Note_off_c, 0, 61, 106
1, 97899, Note_on_c, 0, 59, 93
1, 98086, Note_off_c, 0, 59, 93
1, 98121, Note_on_c, 0, 56, 94
1, 98263, Note_off_c, 0, 56, 94
1, 98288, Note_on_c, 0, 63, 114
1, 98536, Note_off_c, 0, 63, 114
1, 98539, Note_on_c, 0, 61, 100
1, 98660, Note_off_c, 0, 61, 100
1, 98673, Note_on_c, 0, 56, 99
1, 98874, Note_off_c, 0, 56, 99
1, 98898, Note_on_c, 0, 54, 110
1, 99060, Note_off_c, 0, 54, 110
1, 99060, Note_on_c, 0, 51, 102
1, 99326, Note_off_c, 0, 51, 102
1, 99333, Note_on_c, 0, 56, 105
1, 99510, Note_off_c, 0, 56, 105
1, 99515, Note_on_c, 0, 54, 106
1, 99779, Note_off_c, 0, 54, 106
1, 99789, Note_on_c, 0, 51, 93
1, 99997, Note_off_c, 0, 51, 93
1, 100007, Note_on_c, 0, 52, 97
1, 100201, Note_off_c, 0, 52, 97
1, 100231, Note_on_c, 0, 54, 98
1, 100413, Note_off_c, 0, 54, 98
1, 100430, Note_on_c, 0, 51, 96
1, 100588, Note_off_c, 0, 51, 96
1, 100593, Note_on_c, 0, 56, 99
1, 100718, Note_off_c, 0, 56, 99
1, 100770, Note_on_c, 0, 63, 114
1, 100988, Note_off_c, 0, 63, 114
1, 101216, Note_on_c, 0, 61, 103
1, 101434, Note_off_c, 0, 61, 103
1, 101435, Note_on_c, 0, 63, 109
1, 101625, Note_off_c, 0, 63, 109
1, 101640, Note_on_c, 0, 64, 107
1, 101848, Note_off_c, 0, 64, 107
1, 101853, Note_on_c, 0, 66, 107
1, 102086, Note_off_c, 0, 66, 107
1, 102089, Note_on_c, 0, 67, 110
1, 102302, Note_off_c, 0, 67, 110
1, 102309, Note_on_c, 0, 68, 113
1, 102514, Note_off_c, 0, 68, 113
1, 102525, Note_on_c, 0, 69, 110
1, 102723, Note_off_c, 0, 69, 110
1, 102728, Note_on_c, 0, 70, 96
1, 102915, Note_off_c, 0, 70, 96
1, 102916, Note_on_c, 0, 71, 115
1, 103138, Note_off_c, 0, 71, 115
1, 103157, Note_on_c, 0, 73, 102
1, 103344, Note_off_c, 0, 73, 102
1, 103347, Note_on_c, 0, 70, 108
1, 103554, Note_off_c, 0, 70, 108
1, 103566, Note_on_c, 0, 67, 104
1, 103784, Note_off_c, 0, 67, 104
1, 103794, Note_on_c, 0, 68, 103
1, 103992, Note_off_c, 0, 68, 103
1, 104220, Note_on_c, 0, 67, 110
1, 104407, Note_off_c, 0, 67, 110
1, 105001, Note_on_c, 0, 66, 114
1, 105260, Note_off_c, 0, 66, 114
1, 105265, Note_on_c, 0, 65, 112
1, 105388, Note_off_c, 0, 65, 112
1, 105418, Note_on_c, 0, 64, 43
1, 105591, Note_off_c, 0, 64, 43
1, 105638, Note_on_c, 0, 62, 99
1, 105780, Note_off_c, 0, 62, 99
1, 105788, Note_on_c, 0, 63, 126
1, 106047, Note_off_c, 0, 63, 126
1, 106084, Note_on_c, 0, 63, 127
1, 106287, Note_off_c, 0, 63, 127
1, 106322, Note_on_c, 0, 62, 115
1, 106545, Note_off_c, 0, 62, 115
1, 106555, Note_on_c, 0, 60, 109
1, 106717, Note_off_c, 0, 60, 109
1, 106747, Note_on_c, 0, 58, 103
1, 106940, Note_off_c, 0, 58, 103
1, 106985, Note_on_c, 0, 55, 110
1, 107178, Note_off_c, 0, 55, 110
1, 107212, Note_on_c, 0, 53, 104
1, 107413, Note_off_c, 0, 53, 104
1, 107454, Note_on_c, 0, 52, 106
1, 107608, Note_off_c, 0, 52, 106
1, 107613, Note_on_c, 0, 51, 102
1, 107923, Note_off_c, 0, 51, 102
1, 107989, Note_on_c, 0, 54, 97
1, 108076, Note_off_c, 0, 54, 97
1, 108109, Note_on_c, 0, 57, 93
1, 108254, Note_off_c, 0, 57, 93
1, 108254, Note_on_c, 0, 61, 105
1, 108414, Note_off_c, 0, 61, 105
1, 108497, Note_on_c, 0, 65, 119
1, 108735, Note_off_c, 0, 65, 119
1, 108765, Note_on_c, 0, 63, 106
1, 108898, Note_off_c, 0, 63, 106
1, 108957, Note_on_c, 0, 65, 112
1, 109235, Note_off_c, 0, 65, 112
1, 109263, Note_on_c, 0, 66, 113
1, 109484, Note_off_c, 0, 66, 113
1, 109491, Note_on_c, 0, 68, 115
1, 110309, Note_off_c, 0, 68, 115
1, 110309, Note_on_c, 0, 65, 106
1, 110573, Note_off_c, 0, 65, 106
1, 110588, Note_on_c, 0, 61, 102
1, 110696, Note_off_c, 0, 61, 102
1, 110753, Note_on_c, 0, 58, 97
1, 110960, Note_off_c, 0, 58, 97
1, 111095, Note_on_c, 0, 63, 117
1, 111416, Note_off_c, 0, 63, 117
1, 111431, Note_on_c, 0, 57, 107
1, 111834, Note_off_c, 0, 57, 107
1, 111878, Note_on_c, 0, 65, 105
1, 112770, Note_off_c, 0, 65, 105
1, 112784, Note_on_c, 0, 63, 114
1, 113090, Note_off_c, 0, 63, 114
1, 113232, Note_on_c, 0, 61, 106
1, 113789, Note_off_c, 0, 61, 106
1, 113885, Note_on_c, 0, 58, 82
1, 115317, Note_off_c, 0, 58, 82
1, 116393, Note_on_c, 0, 65, 121
1, 116699, Note_off_c, 0, 65, 121
1, 116737, Note_on_c, 0, 60, 109
1, 117001, Note_off_c, 0, 60, 109
1, 117036, Note_on_c, 0, 65, 117
1, 117385, Note_off_c, 0, 65, 117
1, 117462, Note_on_c, 0, 67, 122
1, 117797, Note_off_c, 0, 67, 122
1, 117810, Note_on_c, 0, 68, 121
1, 118055, Note_off_c, 0, 68, 121
1, 118062, Note_on_c, 0, 67, 123
1, 118626, Note_off_c, 0, 67, 123
1, 118640, Note_on_c, 0, 65, 117
1, 119032, Note_off_c, 0, 65, 117
1, 119070, Note_on_c, 0, 64, 123
1, 119770, Note_off_c, 0, 64, 123
1, 119789, Note_on_c, 0, 67, 109
1, 119928, Note_off_c, 0, 67, 109
1, 119943, Note_on_c, 0, 71, 108
1, 120080, Note_off_c, 0, 71, 108
1, 120087, Note_on_c, 0, 74, 98
1, 120227, Note_off_c, 0, 74, 98
1, 120242, Note_on_c, 0, 71, 116
1, 120443, Note_off_c, 0, 71, 116
1, 120463, Note_on_c, 0, 74, 99
1, 120573, Note_off_c, 0, 74, 99
1, 120597, Note_on_c, 0, 71, 95
1, 121227, Note_off_c, 0, 71, 95
1, 121306, Note_on_c, 0, 67, 93
1, 121456, Note_off_c, 0, 67, 93
1, 121461, Note_on_c, 0, 71, 100
1, 121638, Note_off_c, 0, 71, 100
1, 121655, Note_on_c, 0, 67, 105
1, 121769, Note_off_c, 0, 67, 105
1, 121821, Note_on_c, 0, 64, 113
1, 122456, Note_off_c, 0, 64, 113
1, 122527, Note_on_c, 0, 64, 97
1, 122648, Note_off_c, 0, 64, 97
1, 122669, Note_on_c, 0, 66, 101
1, 122800, Note_off_c, 0, 66, 101
1, 122817, Note_on_c, 0, 64, 107
1, 122910, Note_off_c, 0, 64, 107
1, 122982, Note_on_c, 0, 63, 104
1, 123517, Note_off_c, 0, 63, 104
1, 123567, Note_on_c, 0, 66, 86
1, 123715, Note_off_c, 0, 66, 86
1, 123749, Note_on_c, 0, 63, 94
1, 123880, Note_off_c, 0, 63, 94
1, 123929, Note_on_c, 0, 59, 84
1, 124071, Note_off_c, 0, 59, 84
1, 124071, End_track
0, 0, End_of_file
