0, 0, Header, 1, 1, 20160
1, 0, Start_track
1, 0, Title_t, "Melody"
1, 0, Tempo, 952380
1, 0, Key_signature, 5, "major"
1, 0, Time_signature, 4, 2, 24, 8
1, 135680, Note_on_c, 0, 75, 112
1, 139489, Note_off_c, 0, 75, 112
1, 140041, Note_on_c, 0, 73, 105
1, 144649, Note_off_c, 0, 73, 105
1, 145171, Note_on_c, 0, 71, 105
1, 147290, Note_off_c, 0, 71, 105
1, 148027, Note_on_c, 0, 73, 108
1, 150976, Note_off_c, 0, 73, 108
1, 152296, Note_on_c, 0, 70, 107
1, 155275, Note_off_c, 0, 70, 107
1, 155889, Note_on_c, 0, 68, 111
1, 159206, Note_off_c, 0, 68, 111
1, 159697, Note_on_c, 0, 70, 105
1, 163137, Note_off_c, 0, 70, 105
1, 163659, Note_on_c, 0, 66, 108
1, 167068, Note_off_c, 0, 66, 108
1, 167590, Note_on_c, 0, 68, 104
1, 170938, Note_off_c, 0, 68, 104
1, 171091, Note_on_c, 0, 63, 99
1, 174623, Note_off_c, 0, 63, 99
1, 175667, Note_on_c, 0, 66, 104
1, 179844, Note_off_c, 0, 66, 104
1, 184552, Note_on_c, 0, 73, 112
1, 187921, Note_off_c, 0, 73, 112
1, 188137, Note_on_c, 0, 74, 105
1, 191420, Note_off_c, 0, 74, 105
1, 192197, Note_on_c, 0, 69, 113
1, 196603, Note_off_c, 0, 69, 113
1, 196862, Note_on_c, 0, 66, 105
1, 200663, Note_off_c, 0, 66, 105
1, 201181, Note_on_c, 0, 73, 106
1, 204550, Note_off_c, 0, 73, 106
1, 205414, Note_on_c, 0, 69, 105
1, 208351, Note_off_c, 0, 69, 105
1, 209863, Note_on_c, 0, 71, 108
1, 216256, Note_off_c, 0, 71, 108
1, 222952, Note_on_c, 0, 66, 110
1, 225716, Note_off_c, 0, 66, 110
1, 226925, Note_on_c, 0, 69, 95
1, 229041, Note_off_c, 0, 69, 95
1, 229948, Note_on_c, 0, 62, 96
1, 232972, Note_off_c, 0, 62, 96
1, 233404, Note_on_c, 0, 66, 112
1, 239236, Note_off_c, 0, 66, 112
1, 239322, Note_on_c, 0, 59, 97
1, 243512, Note_off_c, 0, 59, 97
1, 246017, Note_on_c, 0, 64, 105
1, 255132, Note_off_c, 0, 64, 105
1, 259063, Note_on_c, 0, 61, 110
1, 263469, Note_off_c, 0, 61, 110
1, 264289, Note_on_c, 0, 57, 100
1, 269818, Note_off_c, 0, 57, 100
1, 271330, Note_on_c, 0, 54, 106
1, 279365, Note_off_c, 0, 54, 106
1, 306667, Note_on_c, 0, 55, 98
1, 315782, Note_off_c, 0, 55, 98
1, 316818, Note_on_c, 0, 58, 104
1, 326494, Note_off_c, 0, 58, 104
1, 327228, Note_on_c, 0, 60, 98
1, 339842, Note_off_c, 0, 60, 98
1, 341008, Note_on_c, 0, 63, 110
1, 347920, Note_off_c, 0, 63, 110
1, 348092, Note_on_c, 0, 67, 104
1, 350468, Note_off_c, 0, 67, 104
1, 350856, Note_on_c, 0, 70, 113
1, 356817, Note_off_c, 0, 70, 113
1, 357983, Note_on_c, 0, 72, 104
1, 375349, Note_off_c, 0, 72, 104
1, 375880, Note_on_c, 0, 74, 98
1, 378184, Note_off_c, 0, 74, 98
1, 378184, Note_on_c, 0, 76, 107
1, 380733, Note_off_c, 0, 76, 107
1, 381009, Note_on_c, 0, 77, 104
1, 382422, Note_off_c, 0, 77, 104
1, 382729, Note_on_c, 0, 76, 111
1, 397198, Note_off_c, 0, 76, 111
1, 397505, Note_on_c, 0, 72, 77
1, 399010, Note_off_c, 0, 72, 77
1, 399347, Note_on_c, 0, 74, 90
1, 401866, Note_off_c, 0, 74, 90
1, 402203, Note_on_c, 0, 76, 110
1, 406442, Note_off_c, 0, 76, 110
1, 406534, Note_on_c, 0, 72, 107
1, 412155, Note_off_c, 0, 72, 107
1, 413230, Note_on_c, 0, 72, 109
1, 426193, Note_off_c, 0, 72, 109
1, 426653, Note_on_c, 0, 69, 101
1, 427805, Note_off_c, 0, 69, 101
1, 428204, Note_on_c, 0, 70, 99
1, 429740, Note_off_c, 0, 70, 99
1, 430723, Note_on_c, 0, 74, 108
1, 432704, Note_off_c, 0, 74, 108
1, 433011, Note_on_c, 0, 72, 103
1, 435914, Note_off_c, 0, 72, 103
1, 436298, Note_on_c, 0, 71, 109
1, 439554, Note_off_c, 0, 71, 109
1, 439815, Note_on_c, 0, 76, 99
1, 441581, Note_off_c, 0, 76, 99
1, 441581, Note_on_c, 0, 70, 107
1, 444683, Note_off_c, 0, 70, 107
1, 446771, Note_on_c, 0, 69, 111
1, 448583, Note_off_c, 0, 69, 111
1, 449135, Note_on_c, 0, 68, 112
1, 451162, Note_off_c, 0, 68, 112
1, 451392, Note_on_c, 0, 71, 105
1, 454786, Note_off_c, 0, 71, 105
1, 455507, Note_on_c, 0, 70, 96
1, 456858, Note_off_c, 0, 70, 96
1, 456996, Note_on_c, 0, 68, 110
1, 459561, Note_off_c, 0, 68, 110
1, 461035, Note_on_c, 0, 64, 103
1, 462924, Note_off_c, 0, 64, 103
1, 465550, Note_on_c, 0, 63, 100
1, 469021, Note_off_c, 0, 63, 100
1, 476224, Note_on_c, 0, 63, 100
1, 478773, Note_off_c, 0, 63, 100
1, 478988, Note_on_c, 0, 64, 104
1, 480892, Note_off_c, 0, 64, 104
1, 481122, Note_on_c, 0, 66, 105
1, 484562, Note_off_c, 0, 66, 105
1, 488381, Note_on_c, 0, 75, 109
1, 491340, Note_off_c, 0, 75, 109
1, 491685, Note_on_c, 0, 74, 113
1, 494017, Note_off_c, 0, 74, 113
1, 494297, Note_on_c, 0, 73, 96
1, 498552, Note_off_c, 0, 73, 96
1, 499308, Note_on_c, 0, 68, 90
1, 501792, Note_off_c, 0, 68, 90
1, 502159, Note_on_c, 0, 73, 106
1, 504319, Note_off_c, 0, 73, 106
1, 504643, Note_on_c, 0, 70, 104
1, 510885, Note_off_c, 0, 70, 104
1, 511360, Note_on_c, 0, 68, 102
1, 514600, Note_off_c, 0, 68, 102
1, 515096, Note_on_c, 0, 66, 111
1, 523865, Note_off_c, 0, 66, 111
1, 558207, Note_on_c, 0, 54, 113
1, 561125, Note_off_c, 0, 54, 113
1, 561647, Note_on_c, 0, 57, 104
1, 562783, Note_off_c, 0, 57, 104
1, 562905, Note_on_c, 0, 58, 107
1, 563934, Note_off_c, 0, 58, 107
1, 564102, Note_on_c, 0, 59, 106
1, 565253, Note_off_c, 0, 59, 106
1, 565375, Note_on_c, 0, 61, 110
1, 566496, Note_off_c, 0, 61, 110
1, 566926, Note_on_c, 0, 62, 113
1, 568815, Note_off_c, 0, 62, 113
1, 569183, Note_on_c, 0, 61, 113
1, 570657, Note_off_c, 0, 61, 113
1, 571271, Note_on_c, 0, 62, 110
1, 573098, Note_off_c, 0, 62, 110
1, 573435, Note_on_c, 0, 66, 110
1, 576276, Note_off_c, 0, 66, 110
1, 576644, Note_on_c, 0, 62, 106
1, 577888, Note_off_c, 0, 62, 106
1, 578164, Note_on_c, 0, 64, 101
1, 579008, Note_off_c, 0, 64, 101
1, 579376, Note_on_c, 0, 66, 109
1, 582401, Note_off_c, 0, 66, 109
1, 582754, Note_on_c, 0, 71, 106
1, 584259, Note_off_c, 0, 71, 106
1, 584443, Note_on_c, 0, 73, 111
1, 585748, Note_off_c, 0, 73, 111
1, 585824, Note_on_c, 0, 78, 116
1, 587759, Note_off_c, 0, 78, 116
1, 588204, Note_on_c, 0, 76, 116
1, 599140, Note_off_c, 0, 76, 116
1, 600169, Note_on_c, 0, 74, 110
1, 604208, Note_off_c, 0, 74, 110
1, 606327, Note_on_c, 0, 75, 113
1, 611226, Note_off_c, 0, 75, 113
1, 612038, Note_on_c, 0, 70, 108
1, 620462, Note_off_c, 0, 70, 108
1, 620850, Note_on_c, 0, 68, 98
1, 624133, Note_off_c, 0, 68, 98
1, 624781, Note_on_c, 0, 70, 107
1, 630656, Note_off_c, 0, 70, 107
1, 631520, Note_on_c, 0, 63, 102
1, 640419, Note_off_c, 0, 63, 102
1, 641844, Note_on_c, 0, 58, 90
1, 643658, Note_off_c, 0, 58, 90
1, 644392, Note_on_c, 0, 63, 101
1, 651606, Note_off_c, 0, 63, 101
1, 652648, Note_on_c, 0, 58, 98
1, 660512, Note_off_c, 0, 58, 98
1, 661095, Note_on_c, 0, 56, 106
1, 663829, Note_off_c, 0, 56, 106
1, 664597, Note_on_c, 0, 58, 99
1, 670648, Note_off_c, 0, 58, 99
1, 671631, Note_on_c, 0, 51, 110
1, 679741, Note_off_c, 0, 51, 110
1, 680078, Note_on_c, 0, 49, 110
1, 689939, Note_off_c, 0, 49, 110
1, 703762, Note_on_c, 0, 68, 110
1, 719552, Note_off_c, 0, 68, 110
1, 720166, Note_on_c, 0, 66, 103
1, 723053, Note_off_c, 0, 66, 103
1, 723790, Note_on_c, 0, 68, 110
1, 729043, Note_off_c, 0, 68, 110
1, 730210, Note_on_c, 0, 61, 101
1, 739794, Note_off_c, 0, 61, 101
1, 744801, Note_on_c, 0, 61, 104
1, 758778, Note_off_c, 0, 61, 104
1, 759208, Note_on_c, 0, 63, 101
1, 763232, Note_off_c, 0, 63, 101
1, 764460, Note_on_c, 0, 64, 103
1, 769897, Note_off_c, 0, 64, 103
1, 770726, Note_on_c, 0, 66, 110
1, 775610, Note_off_c, 0, 66, 110
1, 776040, Note_on_c, 0, 68, 108
1, 779173, Note_off_c, 0, 68, 108
1, 780248, Note_on_c, 0, 71, 116
1, 785408, Note_off_c, 0, 71, 116
1, 785991, Note_on_c, 0, 70, 107
1, 788602, Note_off_c, 0, 70, 107
1, 790414, Note_on_c, 0, 68, 113
1, 794561, Note_off_c, 0, 68, 113
1, 795359, Note_on_c, 0, 67, 106
1, 799659, Note_off_c, 0, 67, 106
1, 801102, Note_on_c, 0, 70, 105
1, 817598, Note_off_c, 0, 70, 105
1, 818189, Note_on_c, 0, 69, 107
1, 820241, Note_off_c, 0, 69, 107
1, 820565, Note_on_c, 0, 70, 103
1, 824085, Note_off_c, 0, 70, 103
1, 824257, Note_on_c, 0, 69, 98
1, 826525, Note_off_c, 0, 69, 98
1, 826957, Note_on_c, 0, 70, 102
1, 829872, Note_off_c, 0, 70, 102
1, 830800, Note_on_c, 0, 75, 96
1, 833219, Note_off_c, 0, 75, 96
1, 833867, Note_on_c, 0, 68, 110
1, 843241, Note_off_c, 0, 68, 110
1, 843478, Note_on_c, 0, 67, 98
1, 845594, Note_off_c, 0, 67, 98
1, 846198, Note_on_c, 0, 68, 104
1, 848487, Note_off_c, 0, 68, 104
1, 851781, Note_on_c, 0, 68, 105
1, 861672, Note_off_c, 0, 68, 105
1, 862040, Note_on_c, 0, 67, 101
1, 864896, Note_off_c, 0, 67, 101
1, 864988, Note_on_c, 0, 68, 106
1, 866493, Note_off_c, 0, 68, 106
1, 867168, Note_on_c, 0, 73, 99
1, 875155, Note_off_c, 0, 73, 99
1, 906780, Note_on_c, 0, 75, 109
1, 909415, Note_off_c, 0, 75, 109
1, 909609, Note_on_c, 0, 76, 117
1, 911423, Note_off_c, 0, 76, 117
1, 911811, Note_on_c, 0, 78, 117
1, 914748, Note_off_c, 0, 78, 117
1, 915093, Note_on_c, 0, 79, 104
1, 917512, Note_off_c, 0, 79, 104
1, 917620, Note_on_c, 0, 75, 116
1, 919520, Note_off_c, 0, 75, 116
1, 919973, Note_on_c, 0, 76, 103
1, 923299, Note_off_c, 0, 76, 103
1, 927188, Note_on_c, 0, 76, 117
1, 929138, Note_off_c, 0, 76, 117
1, 929353, Note_on_c, 0, 75, 116
1, 931288, Note_off_c, 0, 75, 116
1, 931764, Note_on_c, 0, 74, 110
1, 934083, Note_off_c, 0, 74, 110
1, 934359, Note_on_c, 0, 73, 113
1, 937262, Note_off_c, 0, 73, 113
1, 937753, Note_on_c, 0, 72, 109
1, 939580, Note_off_c, 0, 72, 109
1, 939672, Note_on_c, 0, 71, 109
1, 942221, Note_off_c, 0, 71, 109
1, 943943, Note_on_c, 0, 75, 112
1, 947787, Note_off_c, 0, 75, 112
1, 955782, Note_on_c, 0, 73, 111
1, 959529, Note_off_c, 0, 73, 111
1, 962846, Note_on_c, 0, 71, 117
1, 965211, Note_off_c, 0, 71, 117
1, 965610, Note_on_c, 0, 70, 107
1, 967729, Note_off_c, 0, 70, 107
1, 968558, Note_on_c, 0, 66, 109
1, 971107, Note_off_c, 0, 66, 109
1, 971537, Note_on_c, 0, 63, 91
1, 974301, Note_off_c, 0, 63, 91
1, 975437, Note_on_c, 0, 68, 110
1, 982164, Note_off_c, 0, 68, 110
1, 983362, Note_on_c, 0, 63, 96
1, 985174, Note_off_c, 0, 63, 96
1, 985327, Note_on_c, 0, 66, 111
1, 988890, Note_off_c, 0, 66, 111
1, 989381, Note_on_c, 0, 63, 101
1, 991285, Note_off_c, 0, 63, 101
1, 991960, Note_on_c, 0, 58, 100
1, 994233, Note_off_c, 0, 58, 100
1, 1017414, Note_on_c, 0, 71, 106
1, 1020308, Note_off_c, 0, 71, 106
1, 1020351, Note_on_c, 0, 73, 106
1, 1021128, Note_off_c, 0, 73, 106
1, 1021495, Note_on_c, 0, 74, 105
1, 1022553, Note_off_c, 0, 74, 105
1, 1022920, Note_on_c, 0, 78, 117
1, 1025900, Note_off_c, 0, 78, 117
1, 1026375, Note_on_c, 0, 76, 115
1, 1028405, Note_off_c, 0, 76, 115
1, 1028621, Note_on_c, 0, 74, 118
1, 1030672, Note_off_c, 0, 74, 118
1, 1031255, Note_on_c, 0, 73, 115
1, 1033242, Note_off_c, 0, 73, 115
1, 1033782, Note_on_c, 0, 71, 118
1, 1035941, Note_off_c, 0, 71, 118
1, 1036252, Note_on_c, 0, 69, 115
1, 1038584, Note_off_c, 0, 69, 115
1, 1038856, Note_on_c, 0, 73, 112
1, 1040692, Note_off_c, 0, 73, 112
1, 1040864, Note_on_c, 0, 71, 112
1, 1043261, Note_off_c, 0, 71, 112
1, 1043606, Note_on_c, 0, 66, 112
1, 1047191, Note_off_c, 0, 66, 112
1, 1047752, Note_on_c, 0, 69, 120
1, 1050624, Note_off_c, 0, 69, 120
1, 1051725, Note_on_c, 0, 66, 104
1, 1053712, Note_off_c, 0, 66, 104
1, 1054748, Note_on_c, 0, 69, 117
1, 1057988, Note_off_c, 0, 69, 117
1, 1059262, Note_on_c, 0, 64, 108
1, 1061530, Note_off_c, 0, 64, 108
1, 1061594, Note_on_c, 0, 63, 104
1, 1062544, Note_off_c, 0, 63, 104
1, 1062738, Note_on_c, 0, 62, 101
1, 1064206, Note_off_c, 0, 62, 101
1, 1064357, Note_on_c, 0, 69, 115
1, 1069022, Note_off_c, 0, 69, 115
1, 1071721, Note_on_c, 0, 66, 116
1, 1073967, Note_off_c, 0, 66, 116
1, 1074399, Note_on_c, 0, 64, 109
1, 1076710, Note_off_c, 0, 64, 109
1, 1077077, Note_on_c, 0, 62, 104
1, 1078826, Note_off_c, 0, 62, 104
1, 1079193, Note_on_c, 0, 63, 106
1, 1081417, Note_off_c, 0, 63, 106
1, 1082151, Note_on_c, 0, 62, 110
1, 1084094, Note_off_c, 0, 62, 110
1, 1084590, Note_on_c, 0, 61, 105
1, 1087527, Note_off_c, 0, 61, 105
1, 1088002, Note_on_c, 0, 63, 102
1, 1089362, Note_off_c, 0, 63, 102
1, 1089577, Note_on_c, 0, 65, 115
1, 1093335, Note_off_c, 0, 65, 115
1, 1093875, Note_on_c, 0, 60, 101
1, 1095473, Note_off_c, 0, 60, 101
1, 1095883, Note_on_c, 0, 63, 97
1, 1097373, Note_off_c, 0, 63, 97
1, 1098193, Note_on_c, 0, 65, 111
1, 1100547, Note_off_c, 0, 65, 111
1, 1100784, Note_on_c, 0, 68, 95
1, 1102339, Note_off_c, 0, 68, 95
1, 1102554, Note_on_c, 0, 72, 86
1, 1103547, Note_off_c, 0, 72, 86
1, 1103784, Note_on_c, 0, 75, 110
1, 1105706, Note_off_c, 0, 75, 110
1, 1105943, Note_on_c, 0, 73, 109
1, 1108103, Note_off_c, 0, 73, 109
1, 1108815, Note_on_c, 0, 72, 107
1, 1111147, Note_off_c, 0, 72, 107
1, 1111730, Note_on_c, 0, 71, 104
1, 1114710, Note_off_c, 0, 71, 104
1, 1116286, Note_on_c, 0, 72, 107
1, 1119828, Note_off_c, 0, 72, 107
1, 1124925, Note_on_c, 0, 65, 94
1, 1126134, Note_off_c, 0, 65, 94
1, 1126242, Note_on_c, 0, 67, 107
1, 1128682, Note_off_c, 0, 67, 107
1, 1129286, Note_on_c, 0, 70, 110
1, 1135010, Note_off_c, 0, 70, 110
1, 1135658, Note_on_c, 0, 68, 115
1, 1138444, Note_off_c, 0, 68, 115
1, 1138767, Note_on_c, 0, 67, 109
1, 1140797, Note_off_c, 0, 67, 109
1, 1141229, Note_on_c, 0, 65, 112
1, 1142849, Note_off_c, 0, 65, 112
1, 1143410, Note_on_c, 0, 63, 104
1, 1148723, Note_off_c, 0, 63, 104
1, 1149457, Note_on_c, 0, 63, 99
1, 1151055, Note_off_c, 0, 63, 99
1, 1151789, Note_on_c, 0, 61, 104
1, 1153625, Note_off_c, 0, 61, 104
1, 1154229, Note_on_c, 0, 60, 99
1, 1156389, Note_off_c, 0, 60, 99
1, 1157814, Note_on_c, 0, 58, 102
1, 1162414, Note_off_c, 0, 58, 102
1, 1175191, Note_on_c, 0, 55, 100
1, 1178047, Note_off_c, 0, 55, 100
1, 1178323, Note_on_c, 0, 58, 97
1, 1179521, Note_off_c, 0, 58, 97
1, 1180319, Note_on_c, 0, 62, 106
1, 1182407, Note_off_c, 0, 62, 106
1, 1182744, Note_on_c, 0, 60, 102
1, 1184587, Note_off_c, 0, 60, 102
1, 1185723, Note_on_c, 0, 58, 99
1, 1187043, Note_off_c, 0, 58, 99
1, 1187350, Note_on_c, 0, 60, 97
1, 1188578, Note_off_c, 0, 60, 97
1, 1188915, Note_on_c, 0, 63, 100
1, 1189990, Note_off_c, 0, 63, 100
1, 1190358, Note_on_c, 0, 67, 115
1, 1192477, Note_off_c, 0, 67, 115
1, 1192493, Note_on_c, 0, 65, 107
1, 1193573, Note_off_c, 0, 65, 107
1, 1193610, Note_on_c, 0, 64, 105
1, 1195025, Note_off_c, 0, 64, 105
1, 1195473, Note_on_c, 0, 60, 101
1, 1196624, Note_off_c, 0, 60, 101
1, 1196788, Note_on_c, 0, 62, 106
1, 1198023, Note_off_c, 0, 62, 106
1, 1198160, Note_on_c, 0, 64, 104
1, 1199564, Note_off_c, 0, 64, 104
1, 1199964, Note_on_c, 0, 65, 106
1, 1202448, Note_off_c, 0, 65, 106
1, 1202858, Note_on_c, 0, 64, 103
1, 1205234, Note_off_c, 0, 64, 103
1, 1206270, Note_on_c, 0, 67, 92
1, 1207868, Note_off_c, 0, 67, 92
1, 1207868, Note_on_c, 0, 69, 108
1, 1209142, Note_off_c, 0, 69, 108
1, 1210329, Note_on_c, 0, 74, 88
1, 1212748, Note_off_c, 0, 74, 88
1, 1213374, Note_on_c, 0, 65, 108
1, 1214756, Note_off_c, 0, 65, 108
1, 1215058, Note_on_c, 0, 69, 105
1, 1216980, Note_off_c, 0, 69, 105
1, 1216980, Note_on_c, 0, 74, 109
1, 1218621, Note_off_c, 0, 74, 109
1, 1219096, Note_on_c, 0, 72, 107
1, 1220521, Note_off_c, 0, 72, 107
1, 1220866, Note_on_c, 0, 70, 106
1, 1221989, Note_off_c, 0, 70, 106
1, 1222334, Note_on_c, 0, 69, 107
1, 1224601, Note_off_c, 0, 69, 107
1, 1225141, Note_on_c, 0, 79, 109
1, 1227257, Note_off_c, 0, 79, 109
1, 1227667, Note_on_c, 0, 76, 112
1, 1234816, Note_off_c, 0, 76, 112
1, 1249019, Note_on_c, 0, 80, 104
1, 1252551, Note_off_c, 0, 80, 104
1, 1253073, Note_on_c, 0, 78, 111
1, 1255254, Note_off_c, 0, 78, 111
1, 1255684, Note_on_c, 0, 75, 116
1, 1260445, Note_off_c, 0, 75, 116
1, 1261612, Note_on_c, 0, 75, 114
1, 1264837, Note_off_c, 0, 75, 114
1, 1265543, Note_on_c, 0, 73, 110
1, 1269321, Note_off_c, 0, 73, 110
1, 1270150, Note_on_c, 0, 78, 114
1, 1278290, Note_off_c, 0, 78, 114
1, 1278781, Note_on_c, 0, 75, 114
1, 1282836, Note_off_c, 0, 75, 114
1, 1283604, Note_on_c, 0, 78, 106
1, 1296813, Note_off_c, 0, 78, 106
1, 1297427, Note_on_c, 0, 75, 107
1, 1300775, Note_off_c, 0, 75, 107
1, 1301327, Note_on_c, 0, 71, 92
1, 1304122, Note_off_c, 0, 71, 92
1, 1304521, Note_on_c, 0, 75, 112
1, 1308145, Note_off_c, 0, 75, 112
1, 1308397, Note_on_c, 0, 70, 110
1, 1310513, Note_off_c, 0, 70, 110
1, 1311052, Note_on_c, 0, 68, 111
1, 1314292, Note_off_c, 0, 68, 111
1, 1315782, Note_on_c, 0, 70, 108
1, 1321873, Note_off_c, 0, 70, 108
1, 1332759, Note_on_c, 0, 71, 108
1, 1336063, Note_off_c, 0, 71, 108
1, 1336559, Note_on_c, 0, 73, 105
1, 1338114, Note_off_c, 0, 73, 105
1, 1338394, Note_on_c, 0, 74, 101
1, 1341331, Note_off_c, 0, 74, 101
1, 1341978, Note_on_c, 0, 66, 103
1, 1344138, Note_off_c, 0, 66, 103
1, 1344678, Note_on_c, 0, 76, 108
1, 1346233, Note_off_c, 0, 76, 108
1, 1346448, Note_on_c, 0, 74, 109
1, 1348046, Note_off_c, 0, 74, 109
1, 1348434, Note_on_c, 0, 73, 102
1, 1350291, Note_off_c, 0, 73, 102
1, 1350507, Note_on_c, 0, 72, 94
1, 1351846, Note_off_c, 0, 72, 94
1, 1353725, Note_on_c, 0, 73, 108
1, 1357915, Note_off_c, 0, 73, 108
1, 1358066, Note_on_c, 0, 66, 104
1, 1359945, Note_off_c, 0, 66, 104
1, 1361262, Note_on_c, 0, 73, 103
1, 1364977, Note_off_c, 0, 73, 103
1, 1365927, Note_on_c, 0, 69, 104
1, 1370160, Note_off_c, 0, 69, 104
1, 1370721, Note_on_c, 0, 71, 111
1, 1374414, Note_off_c, 0, 71, 111
1, 1375299, Note_on_c, 0, 66, 109
1, 1377696, Note_off_c, 0, 66, 109
1, 1378192, Note_on_c, 0, 64, 98
1, 1380654, Note_off_c, 0, 64, 98
1, 1382209, Note_on_c, 0, 69, 111
1, 1384822, Note_off_c, 0, 69, 111
1, 1385318, Note_on_c, 0, 66, 102
1, 1387542, Note_off_c, 0, 66, 102
1, 1387736, Note_on_c, 0, 61, 108
1, 1390976, Note_off_c, 0, 61, 108
1, 1393351, Note_on_c, 0, 59, 105
1, 1398383, Note_off_c, 0, 59, 105
1, 1398750, Note_on_c, 0, 59, 102
1, 1402141, Note_off_c, 0, 59, 102
1, 1413891, Note_on_c, 0, 59, 106
1, 1417584, Note_off_c, 0, 59, 106
1, 1418080, Note_on_c, 0, 58, 103
1, 1423955, Note_off_c, 0, 58, 103
1, 1424970, Note_on_c, 0, 56, 111
1, 1427994, Note_off_c, 0, 56, 111
1, 1428404, Note_on_c, 0, 54, 109
1, 1431341, Note_off_c, 0, 54, 109
1, 1431522, Note_on_c, 0, 61, 114
1, 1437420, Note_off_c, 0, 61, 114
1, 1438003, Note_on_c, 0, 58, 104
1, 1443778, Note_off_c, 0, 58, 104
1, 1444330, Note_on_c, 0, 54, 110
1, 1452194, Note_off_c, 0, 54, 110
1, 1452808, Note_on_c, 0, 54, 97
1, 1464635, Note_off_c, 0, 54, 97
1, 1482913, Note_on_c, 0, 56, 106
1, 1485800, Note_off_c, 0, 56, 106
1, 1486445, Note_on_c, 0, 59, 104
1, 1490377, Note_off_c, 0, 59, 104
1, 1490868, Note_on_c, 0, 59, 109
1, 1493755, Note_off_c, 0, 59, 109
1, 1494246, Note_on_c, 0, 63, 107
1, 1496765, Note_off_c, 0, 63, 107
1, 1497533, Note_on_c, 0, 61, 114
1, 1500758, Note_off_c, 0, 61, 114
1, 1501296, Note_on_c, 0, 63, 106
1, 1503866, Note_off_c, 0, 63, 106
1, 1504946, Note_on_c, 0, 64, 107
1, 1508186, Note_off_c, 0, 64, 107
1, 1508963, Note_on_c, 0, 66, 113
1, 1512527, Note_off_c, 0, 66, 113
1, 1513044, Note_on_c, 0, 68, 115
1, 1516208, Note_off_c, 0, 68, 115
1, 1516576, Note_on_c, 0, 70, 107
1, 1519525, Note_off_c, 0, 70, 107
1, 1520200, Note_on_c, 0, 71, 111
1, 1523671, Note_off_c, 0, 71, 111
1, 1524346, Note_on_c, 0, 75, 111
1, 1528032, Note_off_c, 0, 75, 111
1, 1528400, Note_on_c, 0, 76, 121
1, 1531502, Note_off_c, 0, 76, 121
1, 1532362, Note_on_c, 0, 78, 115
1, 1536017, Note_off_c, 0, 78, 115
1, 1536416, Note_on_c, 0, 79, 107
1, 1539887, Note_off_c, 0, 79, 107
1, 1540347, Note_on_c, 0, 75, 112
1, 1543511, Note_off_c, 0, 75, 112
1, 1544125, Note_on_c, 0, 76, 113
1, 1548241, Note_off_c, 0, 76, 113
1, 1549592, Note_on_c, 0, 68, 91
1, 1551558, Note_off_c, 0, 68, 91
1, 1551988, Note_on_c, 0, 71, 108
1, 1555705, Note_off_c, 0, 71, 108
1, 1556041, Note_on_c, 0, 75, 107
1, 1559302, Note_off_c, 0, 75, 107
1, 1560220, Note_on_c, 0, 67, 111
1, 1572784, Note_off_c, 0, 67, 111
1, 1573505, Note_on_c, 0, 68, 109
1, 1575501, Note_off_c, 0, 68, 109
1, 1576053, Note_on_c, 0, 71, 93
1, 1578541, Note_off_c, 0, 71, 93
1, 1583231, Note_on_c, 0, 66, 108
1, 1592994, Note_off_c, 0, 66, 108
1, 1594289, Note_on_c, 0, 64, 98
1, 1598371, Note_off_c, 0, 64, 98
1, 1599472, Note_on_c, 0, 63, 101
1, 1606686, Note_off_c, 0, 63, 101
1, 1608349, Note_on_c, 0, 63, 92
1, 1612841, Note_off_c, 0, 63, 92
1, 1613294, Note_on_c, 0, 64, 94
1, 1615475, Note_off_c, 0, 64, 94
1, 1615928, Note_on_c, 0, 66, 108
1, 1620226, Note_off_c, 0, 66, 108
1, 1620701, Note_on_c, 0, 63, 101
1, 1628282, Note_off_c, 0, 63, 101
1, 1628930, Note_on_c, 0, 61, 100
1, 1635086, Note_off_c, 0, 61, 100
1, 1635517, Note_on_c, 0, 63, 93
1, 1642688, Note_off_c, 0, 63, 93
1, 1653228, Note_on_c, 0, 70, 112
1, 1680184, Note_off_c, 0, 70, 112
1, 1680445, Note_on_c, 0, 68, 109
1, 1682242, Note_off_c, 0, 68, 109
1, 1682410, Note_on_c, 0, 70, 108
1, 1684698, Note_off_c, 0, 70, 108
1, 1685005, Note_on_c, 0, 71, 106
1, 1687124, Note_off_c, 0, 71, 106
1, 1687600, Note_on_c, 0, 75, 110
1, 1690641, Note_off_c, 0, 75, 110
1, 1691117, Note_on_c, 0, 70, 104
1, 1693021, Note_off_c, 0, 70, 104
1, 1693527, Note_on_c, 0, 68, 108
1, 1695585, Note_off_c, 0, 68, 108
1, 1696076, Note_on_c, 0, 73, 102
1, 1701083, Note_off_c, 0, 73, 102
1, 1701497, Note_on_c, 0, 70, 101
1, 1705121, Note_off_c, 0, 70, 101
1, 1705428, Note_on_c, 0, 66, 98
1, 1708146, Note_off_c, 0, 66, 98
1, 1708255, Note_on_c, 0, 68, 105
1, 1710501, Note_off_c, 0, 68, 105
1, 1711019, Note_on_c, 0, 70, 102
1, 1713827, Note_off_c, 0, 70, 102
1, 1714086, Note_on_c, 0, 69, 109
1, 1716591, Note_off_c, 0, 69, 109
1, 1716936, Note_on_c, 0, 68, 109
1, 1719571, Note_off_c, 0, 68, 109
1, 1720219, Note_on_c, 0, 67, 101
1, 1722357, Note_off_c, 0, 67, 101
1, 1722745, Note_on_c, 0, 65, 101
1, 1724235, Note_off_c, 0, 65, 101
1, 1724818, Note_on_c, 0, 66, 104
1, 1728727, Note_off_c, 0, 66, 104
1, 1728835, Note_on_c, 0, 63, 93
1, 1730087, Note_off_c, 0, 63, 93
1, 1730367, Note_on_c, 0, 64, 94
1, 1732591, Note_off_c, 0, 64, 94
1, 1732979, Note_on_c, 0, 59, 96
1, 1735462, Note_off_c, 0, 59, 96
1, 1736822, Note_on_c, 0, 60, 97
1, 1738334, Note_off_c, 0, 60, 97
1, 1738550, Note_on_c, 0, 59, 90
1, 1740018, Note_off_c, 0, 59, 90
1, 1740579, Note_on_c, 0, 68, 104
1, 1743603, Note_off_c, 0, 68, 104
1, 1748419, Note_on_c, 0, 66, 104
1, 1750341, Note_off_c, 0, 66, 104
1, 1750773, Note_on_c, 0, 68, 102
1, 1752069, Note_off_c, 0, 68, 102
1, 1752479, Note_on_c, 0, 71, 97
1, 1754379, Note_off_c, 0, 71, 97
1, 1755048, Note_on_c, 0, 75, 111
1, 1756970, Note_off_c, 0, 75, 111
1, 1757618, Note_on_c, 0, 73, 106
1, 1760318, Note_off_c, 0, 73, 106
1, 1760598, Note_on_c, 0, 70, 101
1, 1763665, Note_off_c, 0, 70, 101
1, 1764572, Note_on_c, 0, 70, 107
1, 1767660, Note_off_c, 0, 70, 107
1, 1772174, Note_on_c, 0, 66, 109
1, 1775154, Note_off_c, 0, 66, 109
1, 1775326, Note_on_c, 0, 63, 94
1, 1777097, Note_off_c, 0, 63, 94
1, 1777399, Note_on_c, 0, 61, 98
1, 1780423, Note_off_c, 0, 61, 98
1, 1780574, Note_on_c, 0, 58, 98
1, 1786384, Note_off_c, 0, 58, 98
1, 1786708, Note_on_c, 0, 58, 90
1, 1792432, Note_off_c, 0, 58, 90
1, 1811137, Note_on_c, 0, 50, 112
1, 1813167, Note_off_c, 0, 50, 112
1, 1813383, Note_on_c, 0, 52, 111
1, 1814679, Note_off_c, 0, 52, 111
1, 1815240, Note_on_c, 0, 54, 103
1, 1816708, Note_off_c, 0, 54, 103
1, 1816872, Note_on_c, 0, 62, 112
1, 1817885, Note_off_c, 0, 62, 112
1, 1818253, Note_on_c, 0, 54, 117
1, 1821355, Note_off_c, 0, 54, 117
1, 1822215, Note_on_c, 0, 57, 103
1, 1823628, Note_off_c, 0, 57, 103
1, 1823843, Note_on_c, 0, 59, 100
1, 1825071, Note_off_c, 0, 59, 100
1, 1825286, Note_on_c, 0, 62, 105
1, 1826760, Note_off_c, 0, 62, 105
1, 1827220, Note_on_c, 0, 61, 103
1, 1828725, Note_off_c, 0, 61, 103
1, 1829001, Note_on_c, 0, 59, 95
1, 1830260, Note_off_c, 0, 59, 95
1, 1830812, Note_on_c, 0, 62, 96
1, 1832040, Note_off_c, 0, 62, 96
1, 1832208, Note_on_c, 0, 66, 107
1, 1835491, Note_off_c, 0, 66, 107
1, 1835663, Note_on_c, 0, 62, 106
1, 1837239, Note_off_c, 0, 62, 106
1, 1837606, Note_on_c, 0, 64, 101
1, 1838988, Note_off_c, 0, 64, 101
1, 1839787, Note_on_c, 0, 66, 106
1, 1842832, Note_off_c, 0, 66, 106
1, 1843436, Note_on_c, 0, 74, 95
1, 1844775, Note_off_c, 0, 74, 95
1, 1844926, Note_on_c, 0, 78, 114
1, 1846740, Note_off_c, 0, 78, 114
1, 1847560, Note_on_c, 0, 76, 117
1, 1853737, Note_off_c, 0, 76, 117
1, 1858769, Note_on_c, 0, 74, 112
1, 1861944, Note_off_c, 0, 74, 112
1, 1862246, Note_on_c, 0, 73, 109
1, 1864254, Note_off_c, 0, 73, 109
1, 1864577, Note_on_c, 0, 72, 109
1, 1866758, Note_off_c, 0, 72, 109
1, 1867060, Note_on_c, 0, 71, 112
1, 1869522, Note_off_c, 0, 71, 112
1, 1869781, Note_on_c, 0, 70, 112
1, 1871401, Note_off_c, 0, 70, 112
1, 1871725, Note_on_c, 0, 69, 111
1, 1874057, Note_off_c, 0, 69, 111
1, 1874359, Note_on_c, 0, 68, 114
1, 1876843, Note_off_c, 0, 68, 114
1, 1877145, Note_on_c, 0, 67, 108
1, 1879521, Note_off_c, 0, 67, 108
1, 1879952, Note_on_c, 0, 66, 110
1, 1883062, Note_off_c, 0, 66, 110
1, 1883407, Note_on_c, 0, 65, 94
1, 1885070, Note_off_c, 0, 65, 94
1, 1886409, Note_on_c, 0, 63, 103
1, 1888914, Note_off_c, 0, 63, 103
1, 1889518, Note_on_c, 0, 67, 109
1, 1892218, Note_off_c, 0, 67, 109
1, 1897531, Note_on_c, 0, 65, 111
1, 1900792, Note_off_c, 0, 65, 111
1, 1902196, Note_on_c, 0, 63, 99
1, 1905263, Note_off_c, 0, 63, 99
1, 1905500, Note_on_c, 0, 65, 98
1, 1907940, Note_off_c, 0, 65, 98
1, 1908588, Note_on_c, 0, 68, 100
1, 1910035, Note_off_c, 0, 68, 100
1, 1910661, Note_on_c, 0, 75, 107
1, 1912345, Note_off_c, 0, 75, 107
1, 1912906, Note_on_c, 0, 79, 108
1, 1917636, Note_off_c, 0, 79, 108
1, 1917657, Note_on_c, 0, 75, 115
1, 1922214, Note_off_c, 0, 75, 115
1, 1922559, Note_on_c, 0, 79, 101
1, 1927008, Note_off_c, 0, 79, 101
1, 1927202, Note_on_c, 0, 75, 114
1, 1932580, Note_off_c, 0, 75, 114
1, 1932882, Note_on_c, 0, 72, 107
1, 1936230, Note_off_c, 0, 72, 107
1, 1937806, Note_on_c, 0, 75, 109
1, 1942925, Note_off_c, 0, 75, 109
1, 1944069, Note_on_c, 0, 68, 89
1, 1946488, Note_off_c, 0, 68, 89
1, 1948280, Note_on_c, 0, 72, 108
1, 1957676, Note_off_c, 0, 72, 108
1, 1967482, Note_on_c, 0, 72, 99
1, 1972363, Note_off_c, 0, 72, 99
1, 1974888, Note_on_c, 0, 60, 101
1, 1977739, Note_off_c, 0, 60, 101
1, 1979360, Note_on_c, 0, 72, 91
1, 1982988, Note_off_c, 0, 72, 91
1, 1984102, Note_on_c, 0, 72, 85
1, 1987112, Note_off_c, 0, 72, 85
1, 1988586, Note_on_c, 0, 72, 105
1, 1994852, Note_off_c, 0, 72, 105
1, 1996326, Note_on_c, 0, 60, 101
1, 1998414, Note_off_c, 0, 60, 101
1, 1999519, Note_on_c, 0, 69, 110
1, 2011591, Note_off_c, 0, 69, 110
1, 2011913, Note_on_c, 0, 70, 106
1, 2013879, Note_off_c, 0, 70, 106
1, 2014385, Note_on_c, 0, 72, 99
1, 2016197, Note_off_c, 0, 72, 99
1, 2016519, Note_on_c, 0, 74, 107
1, 2018945, Note_off_c, 0, 74, 107
1, 2019655, Note_on_c, 0, 69, 103
1, 2027474, Note_off_c, 0, 69, 103
1, 2041047, Note_on_c, 0, 67, 111
1, 2043535, Note_off_c, 0, 67, 111
1, 2043673, Note_on_c, 0, 68, 108
1, 2045408, Note_off_c, 0, 68, 108
1, 2045653, Note_on_c, 0, 70, 107
1, 2047741, Note_off_c, 0, 70, 107
1, 2048124, Note_on_c, 0, 71, 105
1, 2050919, Note_off_c, 0, 71, 105
1, 2051210, Note_on_c, 0, 75, 112
1, 2053974, Note_off_c, 0, 75, 112
1, 2054127, Note_on_c, 0, 74, 103
1, 2055570, Note_off_c, 0, 74, 103
1, 2059763, Note_on_c, 0, 73, 106
1, 2062942, Note_off_c, 0, 73, 106
1, 2063848, Note_on_c, 0, 66, 94
1, 2065691, Note_off_c, 0, 66, 94
1, 2065767, Note_on_c, 0, 68, 98
1, 2066919, Note_off_c, 0, 68, 98
1, 2067011, Note_on_c, 0, 71, 108
1, 2069852, Note_off_c, 0, 71, 108
1, 2070143, Note_on_c, 0, 70, 108
1, 2072324, Note_off_c, 0, 70, 108
1, 2072708, Note_on_c, 0, 66, 101
1, 2075626, Note_off_c, 0, 66, 101
1, 2076086, Note_on_c, 0, 63, 95
1, 2078174, Note_off_c, 0, 63, 95
1, 2079771, Note_on_c, 0, 61, 92
1, 2081952, Note_off_c, 0, 61, 92
1, 2086643, Note_on_c, 0, 63, 91
1, 2088327, Note_off_c, 0, 63, 91
1, 2090552, Note_on_c, 0, 66, 114
1, 2093286, Note_off_c, 0, 66, 114
1, 2093792, Note_on_c, 0, 63, 94
1, 2096157, Note_off_c, 0, 63, 94
1, 2100089, Note_on_c, 0, 61, 106
1, 2106570, Note_off_c, 0, 61, 106
1, 2107553, Note_on_c, 0, 58, 100
1, 2109350, Note_off_c, 0, 58, 100
1, 2109595, Note_on_c, 0, 59, 102
1, 2112329, Note_off_c, 0, 59, 102
1, 2115493, Note_on_c, 0, 51, 108
1, 2118795, Note_off_c, 0, 51, 108
1, 2137395, Note_on_c, 0, 52, 109
1, 2139637, Note_off_c, 0, 52, 109
1, 2140451, Note_on_c, 0, 57, 106
1, 2145934, Note_off_c, 0, 57, 106
1, 2147638, Note_on_c, 0, 54, 110
1, 2149373, Note_off_c, 0, 54, 110
1, 2149895, Note_on_c, 0, 59, 108
1, 2155655, Note_off_c, 0, 59, 108
1, 2156115, Note_on_c, 0, 57, 102
1, 2158173, Note_off_c, 0, 57, 102
1, 2158572, Note_on_c, 0, 61, 113
1, 2165560, Note_off_c, 0, 61, 113
1, 2166020, Note_on_c, 0, 59, 103
1, 2168692, Note_off_c, 0, 59, 103
1, 2169091, Note_on_c, 0, 64, 112
1, 2171364, Note_off_c, 0, 64, 112
1, 2171609, Note_on_c, 0, 61, 107
1, 2173744, Note_off_c, 0, 61, 107
1, 2174235, Note_on_c, 0, 69, 111
1, 2176677, Note_off_c, 0, 69, 111
1, 2176907, Note_on_c, 0, 66, 109
1, 2178903, Note_off_c, 0, 66, 109
1, 2179333, Note_on_c, 0, 71, 115
1, 2181575, Note_off_c, 0, 71, 115
1, 2181882, Note_on_c, 0, 69, 115
1, 2183802, Note_off_c, 0, 69, 115
1, 2184139, Note_on_c, 0, 73, 109
1, 2186028, Note_off_c, 0, 73, 109
1, 2186058, Note_on_c, 0, 71, 108
1, 2188438, Note_off_c, 0, 71, 108
1, 2188960, Note_on_c, 0, 76, 111
1, 2191325, Note_off_c, 0, 76, 111
1, 2191709, Note_on_c, 0, 71, 109
1, 2193521, Note_off_c, 0, 71, 109
1, 2194060, Note_on_c, 0, 73, 91
1, 2195788, Note_off_c, 0, 73, 91
1, 2196070, Note_on_c, 0, 75, 112
1, 2198896, Note_off_c, 0, 75, 112
1, 2199541, Note_on_c, 0, 71, 98
1, 2203181, Note_off_c, 0, 71, 98
1, 2205838, Note_on_c, 0, 75, 111
1, 2208710, Note_off_c, 0, 75, 111
1, 2209272, Note_on_c, 0, 66, 104
1, 2210855, Note_off_c, 0, 66, 104
1, 2211140, Note_on_c, 0, 68, 106
1, 2213104, Note_off_c, 0, 68, 106
1, 2213583, Note_on_c, 0, 71, 102
1, 2218248, Note_off_c, 0, 71, 102
1, 2218537, Note_on_c, 0, 66, 106
1, 2221163, Note_off_c, 0, 66, 106
1, 2221454, Note_on_c, 0, 63, 97
1, 2224019, Note_off_c, 0, 63, 97
1, 2225109, Note_on_c, 0, 68, 108
1, 2228457, Note_off_c, 0, 68, 108
1, 2228718, Note_on_c, 0, 63, 91
1, 2229946, Note_off_c, 0, 63, 91
1, 2230391, Note_on_c, 0, 66, 111
1, 2234384, Note_off_c, 0, 66, 111
1, 2236626, Note_on_c, 0, 63, 103
1, 2238976, Note_off_c, 0, 63, 103
1, 2239498, Note_on_c, 0, 59, 102
1, 2241663, Note_off_c, 0, 59, 102
1, 2242173, Note_on_c, 0, 58, 98
1, 2243987, Note_off_c, 0, 58, 98
1, 2244203, Note_on_c, 0, 56, 95
1, 2245628, Note_off_c, 0, 56, 95
1, 2245762, Note_on_c, 0, 61, 106
1, 2252597, Note_off_c, 0, 61, 106
1, 2253380, Note_on_c, 0, 58, 101
1, 2254974, Note_off_c, 0, 58, 101
1, 2255280, Note_on_c, 0, 59, 102
1, 2258342, Note_off_c, 0, 59, 102
1, 2258953, Note_on_c, 0, 66, 112
1, 2266923, Note_off_c, 0, 66, 112
1, 2283192, Note_on_c, 0, 58, 99
1, 2284912, Note_off_c, 0, 58, 99
1, 2286263, Note_on_c, 0, 59, 101
1, 2287921, Note_off_c, 0, 59, 101
1, 2288477, Note_on_c, 0, 63, 99
1, 2291263, Note_off_c, 0, 63, 99
1, 2291803, Note_on_c, 0, 66, 110
1, 2294330, Note_off_c, 0, 66, 110
1, 2294330, Note_on_c, 0, 68, 115
1, 2297829, Note_off_c, 0, 68, 115
1, 2298088, Note_on_c, 0, 66, 100
1, 2300420, Note_off_c, 0, 66, 100
1, 2301003, Note_on_c, 0, 68, 110
1, 2309211, Note_off_c, 0, 68, 110
1, 2310096, Note_on_c, 0, 66, 98
1, 2313811, Note_off_c, 0, 66, 98
1, 2314307, Note_on_c, 0, 68, 108
1, 2327720, Note_off_c, 0, 68, 108
1, 2328000, Note_on_c, 0, 71, 103
1, 2329987, Note_off_c, 0, 71, 103
1, 2330570, Note_on_c, 0, 73, 110
1, 2333183, Note_off_c, 0, 73, 110
1, 2333744, Note_on_c, 0, 75, 111
1, 2349512, Note_off_c, 0, 75, 111
1, 2349857, Note_on_c, 0, 76, 112
1, 2352081, Note_off_c, 0, 76, 112
1, 2352513, Note_on_c, 0, 78, 108
1, 2354781, Note_off_c, 0, 78, 108
1, 2354824, Note_on_c, 0, 76, 108
1, 2370937, Note_off_c, 0, 76, 108
1, 2371377, Note_on_c, 0, 78, 97
1, 2374003, Note_off_c, 0, 78, 97
1, 2374171, Note_on_c, 0, 80, 92
1, 2378825, Note_off_c, 0, 80, 92
1, 2379301, Note_on_c, 0, 75, 103
1, 2386981, Note_off_c, 0, 75, 103
1, 2387748, Note_on_c, 0, 73, 106
1, 2392018, Note_off_c, 0, 73, 106
1, 2394782, Note_on_c, 0, 78, 106
1, 2411309, Note_off_c, 0, 78, 106
1, 2431000, Note_on_c, 0, 78, 109
1, 2441967, Note_off_c, 0, 78, 109
1, 2442366, Note_on_c, 0, 76, 108
1, 2448141, Note_off_c, 0, 76, 108
1, 2448755, Note_on_c, 0, 78, 105
1, 2459015, Note_off_c, 0, 78, 105
1, 2460090, Note_on_c, 0, 80, 104
1, 2468875, Note_off_c, 0, 80, 104
1, 2468905, Note_on_c, 0, 73, 100
1, 2478950, Note_off_c, 0, 73, 100
1, 2479687, Note_on_c, 0, 73, 101
1, 2485831, Note_off_c, 0, 73, 101
1, 2486596, Note_on_c, 0, 71, 110
1, 2489452, Note_off_c, 0, 71, 110
1, 2489977, Note_on_c, 0, 73, 101
1, 2492680, Note_off_c, 0, 73, 101
1, 2493448, Note_on_c, 0, 75, 109
1, 2495844, Note_off_c, 0, 75, 109
1, 2496581, Note_on_c, 0, 78, 95
1, 2499775, Note_off_c, 0, 78, 95
1, 2500819, Note_on_c, 0, 70, 106
1, 2503891, Note_off_c, 0, 70, 106
1, 2504044, Note_on_c, 0, 76, 86
1, 2506102, Note_off_c, 0, 76, 86
1, 2507737, Note_on_c, 0, 70, 113
1, 2509856, Note_off_c, 0, 70, 113
1, 2511322, Note_on_c, 0, 76, 91
1, 2513441, Note_off_c, 0, 76, 91
1, 2514761, Note_on_c, 0, 68, 113
1, 2517863, Note_off_c, 0, 68, 113
1, 2521426, Note_on_c, 0, 66, 101
1, 2526648, Note_off_c, 0, 66, 101
1, 2529764, Note_on_c, 0, 67, 106
1, 2532190, Note_off_c, 0, 67, 106
1, 2533497, Note_on_c, 0, 59, 98
1, 2536415, Note_off_c, 0, 59, 98
1, 2537367, Note_on_c, 0, 63, 106
1, 2539087, Note_off_c, 0, 63, 106
1, 2539265, Note_on_c, 0, 67, 112
1, 2542398, Note_off_c, 0, 67, 112
1, 2545199, Note_on_c, 0, 63, 105
1, 2548578, Note_off_c, 0, 63, 105
1, 2550668, Note_on_c, 0, 59, 99
1, 2552482, Note_off_c, 0, 59, 99
1, 2553768, Note_on_c, 0, 66, 109
1, 2557024, Note_off_c, 0, 66, 109
1, 2557669, Note_on_c, 0, 63, 104
1, 2559665, Note_off_c, 0, 63, 104
1, 2560463, Note_on_c, 0, 59, 91
1, 2566391, Note_off_c, 0, 59, 91
1, 2567589, Note_on_c, 0, 63, 104
1, 2571521, Note_off_c, 0, 63, 104
1, 2572381, Note_on_c, 0, 58, 103
1, 2575299, Note_off_c, 0, 58, 103
1, 2575790, Note_on_c, 0, 54, 104
1, 2587094, Note_off_c, 0, 54, 104
1, 2597922, Note_on_c, 0, 62, 117
1, 2604315, Note_off_c, 0, 62, 117
1, 2605049, Note_on_c, 0, 61, 113
1, 2607705, Note_off_c, 0, 61, 113
1, 2608029, Note_on_c, 0, 62, 114
1, 2609605, Note_off_c, 0, 62, 114
1, 2609950, Note_on_c, 0, 69, 118
1, 2612023, Note_off_c, 0, 69, 118
1, 2612735, Note_on_c, 0, 61, 116
1, 2615197, Note_off_c, 0, 61, 116
1, 2615542, Note_on_c, 0, 62, 111
1, 2617226, Note_off_c, 0, 62, 111
1, 2617528, Note_on_c, 0, 66, 120
1, 2620984, Note_off_c, 0, 66, 120
1, 2621503, Note_on_c, 0, 61, 116
1, 2623414, Note_off_c, 0, 61, 116
1, 2623614, Note_on_c, 0, 62, 110
1, 2624321, Note_off_c, 0, 62, 110
1, 2624542, Note_on_c, 0, 64, 103
1, 2625344, Note_off_c, 0, 64, 103
1, 2625713, Note_on_c, 0, 66, 106
1, 2630179, Note_off_c, 0, 66, 106
1, 2630427, Note_on_c, 0, 71, 102
1, 2631901, Note_off_c, 0, 71, 102
1, 2632331, Note_on_c, 0, 73, 112
1, 2634573, Note_off_c, 0, 73, 112
1, 2635064, Note_on_c, 0, 78, 120
1, 2638996, Note_off_c, 0, 78, 120
1, 2643613, Note_on_c, 0, 76, 120
1, 2646961, Note_off_c, 0, 76, 120
1, 2647371, Note_on_c, 0, 74, 116
1, 2649379, Note_off_c, 0, 74, 116
1, 2649724, Note_on_c, 0, 73, 106
1, 2651711, Note_off_c, 0, 73, 106
1, 2652121, Note_on_c, 0, 71, 116
1, 2655101, Note_off_c, 0, 71, 116
1, 2655273, Note_on_c, 0, 69, 111
1, 2657022, Note_off_c, 0, 69, 111
1, 2657259, Note_on_c, 0, 66, 111
1, 2659678, Note_off_c, 0, 66, 111
1, 2659958, Note_on_c, 0, 64, 102
1, 2662010, Note_off_c, 0, 64, 102
1, 2663954, Note_on_c, 0, 77, 118
1, 2670866, Note_off_c, 0, 77, 118
1, 2671276, Note_on_c, 0, 76, 117
1, 2673025, Note_off_c, 0, 76, 117
1, 2673521, Note_on_c, 0, 75, 114
1, 2675767, Note_off_c, 0, 75, 114
1, 2676726, Note_on_c, 0, 72, 111
1, 2678400, Note_off_c, 0, 72, 111
1, 2679014, Note_on_c, 0, 73, 110
1, 2681471, Note_off_c, 0, 73, 110
1, 2681839, Note_on_c, 0, 65, 115
1, 2683559, Note_off_c, 0, 65, 115
1, 2684035, Note_on_c, 0, 68, 112
1, 2685955, Note_off_c, 0, 68, 112
1, 2686354, Note_on_c, 0, 72, 110
1, 2688658, Note_off_c, 0, 72, 110
1, 2688995, Note_on_c, 0, 71, 103
1, 2690915, Note_off_c, 0, 71, 103
1, 2692666, Note_on_c, 0, 69, 106
1, 2693879, Note_off_c, 0, 69, 106
1, 2694001, Note_on_c, 0, 70, 106
1, 2698516, Note_off_c, 0, 70, 106
1, 2701081, Note_on_c, 0, 65, 110
1, 2702647, Note_off_c, 0, 65, 110
1, 2703107, Note_on_c, 0, 68, 113
1, 2706255, Note_off_c, 0, 68, 113
1, 2706423, Note_on_c, 0, 67, 114
1, 2712674, Note_off_c, 0, 67, 114
1, 2713226, Note_on_c, 0, 63, 103
1, 2716098, Note_off_c, 0, 63, 103
1, 2716989, Note_on_c, 0, 60, 97
1, 2727745, Note_off_c, 0, 60, 97
1, 2737594, Note_on_c, 0, 54, 113
1, 2740445, Note_off_c, 0, 54, 113
1, 2740941, Note_on_c, 0, 58, 104
1, 2742669, Note_off_c, 0, 58, 104
1, 2742928, Note_on_c, 0, 53, 110
1, 2745757, Note_off_c, 0, 53, 110
1, 2746037, Note_on_c, 0, 55, 110
1, 2747635, Note_off_c, 0, 55, 110
1, 2747764, Note_on_c, 0, 58, 101
1, 2749059, Note_on_c, 0, 62, 109
1, 2749059, Note_off_c, 0, 58, 101
1, 2750851, Note_off_c, 0, 62, 109
1, 2751326, Note_on_c, 0, 60, 101
1, 2753032, Note_off_c, 0, 60, 101
1, 2753291, Note_on_c, 0, 62, 108
1, 2756703, Note_off_c, 0, 62, 108
1, 2756983, Note_on_c, 0, 65, 115
1, 2758214, Note_off_c, 0, 65, 115
1, 2758386, Note_on_c, 0, 69, 110
1, 2760222, Note_off_c, 0, 69, 110
1, 2760589, Note_on_c, 0, 67, 111
1, 2761474, Note_off_c, 0, 67, 111
1, 2761625, Note_on_c, 0, 65, 104
1, 2762726, Note_off_c, 0, 65, 104
1, 2762920, Note_on_c, 0, 64, 109
1, 2764604, Note_off_c, 0, 64, 109
1, 2764708, Note_on_c, 0, 65, 110
1, 2766376, Note_off_c, 0, 65, 110
1, 2766482, Note_on_c, 0, 70, 113
1, 2767497, Note_off_c, 0, 70, 113
1, 2767600, Note_on_c, 0, 74, 116
1, 2768993, Note_off_c, 0, 74, 116
1, 2769130, Note_on_c, 0, 72, 113
1, 2770671, Note_off_c, 0, 72, 113
1, 2770766, Note_on_c, 0, 70, 108
1, 2771726, Note_off_c, 0, 70, 108
1, 2771857, Note_on_c, 0, 69, 107
1, 2774405, Note_off_c, 0, 69, 107
1, 2774858, Note_on_c, 0, 79, 104
1, 2777644, Note_off_c, 0, 79, 104
1, 2777730, Note_on_c, 0, 77, 120
1, 2778896, Note_off_c, 0, 77, 120
1, 2779544, Note_on_c, 0, 76, 110
1, 2785872, Note_off_c, 0, 76, 110
1, 2794447, Note_on_c, 0, 74, 80
1, 2795937, Note_off_c, 0, 74, 80
1, 2796131, Note_on_c, 0, 72, 111
1, 2798377, Note_off_c, 0, 72, 111
1, 2798490, Note_on_c, 0, 69, 110
1, 2800084, Note_off_c, 0, 69, 110
1, 2800358, Note_on_c, 0, 67, 108
1, 2802047, Note_off_c, 0, 67, 108
1, 2802226, Note_on_c, 0, 65, 106
1, 2803440, Note_off_c, 0, 65, 106
1, 2803640, Note_on_c, 0, 64, 107
1, 2806406, Note_off_c, 0, 64, 107
1, 2808798, Note_on_c, 0, 62, 104
1, 2810641, Note_off_c, 0, 62, 104
1, 2811132, Note_on_c, 0, 64, 99
1, 2812821, Note_off_c, 0, 64, 99
1, 2813312, Note_on_c, 0, 68, 113
1, 2815738, Note_off_c, 0, 68, 113
1, 2815968, Note_on_c, 0, 67, 116
1, 2816920, Note_off_c, 0, 67, 116
1, 2817088, Note_on_c, 0, 65, 108
1, 2818055, Note_off_c, 0, 65, 108
1, 2818423, Note_on_c, 0, 64, 109
1, 2820680, Note_off_c, 0, 64, 109
1, 2821002, Note_on_c, 0, 62, 110
1, 2823413, Note_off_c, 0, 62, 110
1, 2823704, Note_on_c, 0, 60, 104
1, 2825639, Note_off_c, 0, 60, 104
1, 2826330, Note_on_c, 0, 59, 104
1, 2828634, Note_off_c, 0, 59, 104
1, 2830984, Note_on_c, 0, 63, 104
1, 2832642, Note_off_c, 0, 63, 104
1, 2833194, Note_on_c, 0, 59, 104
1, 2836266, Note_off_c, 0, 59, 104
1, 2836603, Note_on_c, 0, 58, 102
1, 2837862, Note_off_c, 0, 58, 102
1, 2838000, Note_on_c, 0, 57, 102
1, 2839904, Note_off_c, 0, 57, 102
1, 2840284, Note_on_c, 0, 55, 109
1, 2841839, Note_off_c, 0, 55, 109
1, 2842223, Note_on_c, 0, 56, 110
1, 2844603, Note_off_c, 0, 56, 110
1, 2845478, Note_on_c, 0, 59, 104
1, 2847582, Note_off_c, 0, 59, 104
1, 2847904, Note_on_c, 0, 63, 95
1, 2848794, Note_off_c, 0, 63, 95
1, 2848962, Note_on_c, 0, 66, 109
1, 2851772, Note_off_c, 0, 66, 109
1, 2852862, Note_on_c, 0, 63, 109
1, 2856425, Note_off_c, 0, 63, 109
1, 2857100, Note_on_c, 0, 66, 110
1, 2860340, Note_off_c, 0, 66, 110
1, 2860585, Note_on_c, 0, 68, 110
1, 2862581, Note_off_c, 0, 68, 110
1, 2863656, Note_on_c, 0, 71, 91
1, 2864946, Note_off_c, 0, 71, 91
1, 2865176, Note_on_c, 0, 73, 103
1, 2866957, Note_off_c, 0, 73, 103
1, 2867371, Note_on_c, 0, 75, 115
1, 2870535, Note_off_c, 0, 75, 115
1, 2870980, Note_on_c, 0, 73, 113
1, 2873406, Note_off_c, 0, 73, 113
1, 2873556, Note_on_c, 0, 70, 112
1, 2886084, Note_off_c, 0, 70, 112
1, 2886580, Note_on_c, 0, 68, 114
1, 2889798, Note_off_c, 0, 68, 114
1, 2890251, Note_on_c, 0, 70, 107
1, 2892951, Note_off_c, 0, 70, 107
1, 2894484, Note_on_c, 0, 66, 116
1, 2900575, Note_off_c, 0, 66, 116
1, 2901849, Note_on_c, 0, 66, 111
1, 2908199, Note_off_c, 0, 66, 111
1, 2919236, Note_on_c, 0, 66, 114
1, 2929517, Note_off_c, 0, 66, 114
1, 2930467, Note_on_c, 0, 66, 117
1, 2945543, Note_off_c, 0, 66, 117
1, 2945929, Note_on_c, 0, 67, 107
1, 2947802, Note_off_c, 0, 67, 107
1, 2948124, Note_on_c, 0, 69, 110
1, 2949905, Note_off_c, 0, 69, 110
1, 2950427, Note_on_c, 0, 71, 107
1, 2953283, Note_off_c, 0, 71, 107
1, 2953851, Note_on_c, 0, 66, 113
1, 2971392, Note_off_c, 0, 66, 113
1, 2971914, Note_on_c, 0, 66, 105
1, 2988594, Note_off_c, 0, 66, 105
1, 2995352, Note_on_c, 0, 63, 107
1, 3003707, Note_off_c, 0, 63, 107
1, 3003922, Note_on_c, 0, 61, 103
1, 3006809, Note_off_c, 0, 61, 103
1, 3007085, Note_on_c, 0, 63, 109
1, 3013997, Note_off_c, 0, 63, 109
1, 3014242, Note_on_c, 0, 61, 105
1, 3017344, Note_off_c, 0, 61, 105
1, 3017620, Note_on_c, 0, 63, 102
1, 3023794, Note_off_c, 0, 63, 102
1, 3024162, Note_on_c, 0, 61, 103
1, 3026957, Note_off_c, 0, 61, 103
1, 3028155, Note_on_c, 0, 63, 108
1, 3043054, Note_off_c, 0, 63, 108
1, 3043637, Note_on_c, 0, 61, 108
1, 3047354, Note_off_c, 0, 61, 108
1, 3047661, Note_on_c, 0, 63, 107
1, 3054112, Note_off_c, 0, 63, 107
1, 3054634, Note_on_c, 0, 61, 101
1, 3057060, Note_off_c, 0, 61, 101
1, 3057428, Note_on_c, 0, 63, 101
1, 3063694, Note_off_c, 0, 63, 101
1, 3064308, Note_on_c, 0, 61, 95
1, 3067595, Note_off_c, 0, 61, 95
1, 3067840, Note_on_c, 0, 63, 102
1, 3074567, Note_off_c, 0, 63, 102
1, 3075550, Note_on_c, 0, 61, 105
1, 3078499, Note_off_c, 0, 61, 105
1, 3078560, Note_on_c, 0, 68, 114
1, 3085287, Note_off_c, 0, 68, 114
1, 3085686, Note_on_c, 0, 66, 100
1, 3088512, Note_off_c, 0, 66, 100
1, 3089064, Note_on_c, 0, 68, 105
1, 3103502, Note_off_c, 0, 68, 105
1, 3105345, Note_on_c, 0, 66, 109
1, 3110321, Note_off_c, 0, 66, 109
1, 3113423, Note_on_c, 0, 63, 106
1, 3117785, Note_off_c, 0, 63, 106
1, 3118645, Note_on_c, 0, 61, 103
1, 3133789, Note_off_c, 0, 61, 103
1, 3134464, Note_on_c, 0, 51, 116
1, 3140792, Note_off_c, 0, 51, 116
1, 3141222, Note_on_c, 0, 49, 115
1, 3157503, Note_off_c, 0, 49, 115
1, 3180205, Note_on_c, 0, 51, 115
1, 3187209, Note_off_c, 0, 51, 115
1, 3187639, Note_on_c, 0, 49, 127
1, 3194397, Note_off_c, 0, 49, 127
1, 3195564, Note_on_c, 0, 54, 105
1, 3224870, Note_off_c, 0, 54, 105
1, 3233939, Note_on_c, 0, 54, 113
1, 3236055, Note_off_c, 0, 54, 113
1, 3236379, Note_on_c, 0, 56, 114
1, 3238258, Note_off_c, 0, 56, 114
1, 3238495, Note_on_c, 0, 58, 110
1, 3240460, Note_off_c, 0, 58, 110
1, 3240790, Note_on_c, 0, 59, 104
1, 3242004, Note_off_c, 0, 59, 104
1, 3242289, Note_on_c, 0, 61, 109
1, 3244781, Note_off_c, 0, 61, 109
1, 3245076, Note_on_c, 0, 63, 102
1, 3246438, Note_off_c, 0, 63, 102
1, 3246797, Note_on_c, 0, 66, 115
1, 3248951, Note_off_c, 0, 66, 115
1, 3249109, Note_on_c, 0, 68, 120
1, 3250017, Note_off_c, 0, 68, 120
1, 3250607, Note_on_c, 0, 70, 110
1, 3273954, Note_off_c, 0, 70, 110
1, 3274476, Note_on_c, 0, 66, 107
1, 3278008, Note_off_c, 0, 66, 107
1, 3278560, Note_on_c, 0, 63, 99
1, 3281632, Note_off_c, 0, 63, 99
1, 3282154, Note_on_c, 0, 61, 95
1, 3295978, Note_off_c, 0, 61, 95
1, 3315700, Note_on_c, 0, 63, 106
1, 3319662, Note_off_c, 0, 63, 106
1, 3319877, Note_on_c, 0, 61, 104
1, 3322856, Note_off_c, 0, 61, 104
1, 3323193, Note_on_c, 0, 63, 100
1, 3339321, Note_off_c, 0, 63, 100
1, 3339904, Note_on_c, 0, 61, 106
1, 3344604, Note_off_c, 0, 61, 106
1, 3346232, Note_on_c, 0, 63, 103
1, 3349150, Note_off_c, 0, 63, 103
1, 3352191, Note_on_c, 0, 61, 110
1, 3355078, Note_off_c, 0, 61, 110
1, 3358057, Note_on_c, 0, 60, 96
1, 3360852, Note_off_c, 0, 60, 96
1, 3363804, Note_on_c, 0, 61, 107
1, 3368124, Note_off_c, 0, 61, 107
1, 3368383, Note_on_c, 0, 66, 106
1, 3384064, Note_off_c, 0, 66, 106
1, 3385921, Note_on_c, 0, 66, 97
1, 3410026, Note_off_c, 0, 66, 97
1, 3414540, Note_on_c, 0, 59, 85
1, 3415663, Note_off_c, 0, 59, 85
1, 3415987, Note_on_c, 0, 62, 112
1, 3418579, Note_off_c, 0, 62, 112
1, 3419032, Note_on_c, 0, 61, 108
1, 3420673, Note_off_c, 0, 61, 108
1, 3421018, Note_on_c, 0, 62, 102
1, 3422875, Note_off_c, 0, 62, 102
1, 3423047, Note_on_c, 0, 66, 108
1, 3425725, Note_off_c, 0, 66, 108
1, 3426135, Note_on_c, 0, 62, 106
1, 3427992, Note_off_c, 0, 62, 106
1, 3429892, Note_on_c, 0, 67, 104
1, 3431231, Note_off_c, 0, 67, 104
1, 3431360, Note_on_c, 0, 69, 93
1, 3432850, Note_off_c, 0, 69, 93
1, 3433217, Note_on_c, 0, 74, 92
1, 3434405, Note_off_c, 0, 74, 92
1, 3434556, Note_on_c, 0, 78, 105
1, 3436262, Note_off_c, 0, 78, 105
1, 3436845, Note_on_c, 0, 76, 96
1, 3444772, Note_off_c, 0, 76, 96
1, 3445052, Note_on_c, 0, 74, 100
1, 3447341, Note_off_c, 0, 74, 100
1, 3447816, Note_on_c, 0, 73, 97
1, 3449954, Note_off_c, 0, 73, 97
1, 3450321, Note_on_c, 0, 71, 105
1, 3453906, Note_off_c, 0, 71, 105
1, 3454986, Note_on_c, 0, 73, 93
1, 3459997, Note_off_c, 0, 73, 93
1, 3461076, Note_on_c, 0, 69, 100
1, 3472012, Note_off_c, 0, 69, 100
1, 3500668, Note_on_c, 0, 66, 115
1, 3509610, Note_off_c, 0, 66, 115
1, 3510193, Note_on_c, 0, 68, 121
1, 3519567, Note_off_c, 0, 68, 121
1, 3520107, Note_on_c, 0, 70, 118
1, 3529135, Note_off_c, 0, 70, 118
1, 3529640, Note_on_c, 0, 72, 116
1, 3552987, Note_off_c, 0, 72, 116
1, 3555421, Note_on_c, 0, 72, 108
1, 3559525, Note_off_c, 0, 72, 108
1, 3564277, Note_on_c, 0, 72, 109
1, 3569547, Note_off_c, 0, 72, 109
1, 3576847, Note_on_c, 0, 72, 107
1, 3595638, Note_off_c, 0, 72, 107
1, 3597452, Note_on_c, 0, 72, 106
1, 3607733, Note_off_c, 0, 72, 106
1, 3609245, Note_on_c, 0, 60, 98
1, 3614126, Note_off_c, 0, 60, 98
1, 3614601, Note_on_c, 0, 69, 98
1, 3641687, Note_off_c, 0, 69, 98
1, 3658448, Note_on_c, 0, 63, 106
1, 3677369, Note_off_c, 0, 63, 106
1, 3678405, Note_on_c, 0, 61, 104
1, 3695209, Note_off_c, 0, 61, 104
1, 3696764, Note_on_c, 0, 66, 97
1, 3759663, Note_off_c, 0, 66, 97
1, 3823080, Note_on_c, 0, 63, 107
1, 3840360, Note_off_c, 0, 63, 107
1, 3840792, Note_on_c, 0, 61, 105
1, 3844161, Note_off_c, 0, 61, 105
1, 3845111, Note_on_c, 0, 63, 102
1, 3853923, Note_off_c, 0, 63, 102
1, 3854657, Note_on_c, 0, 61, 111
1, 3861871, Note_off_c, 0, 61, 111
1, 3862735, Note_on_c, 0, 63, 9
1, 3892024, Note_off_c, 0, 63, 9
1, 3907187, Note_on_c, 0, 68, 118
1, 3938204, Note_off_c, 0, 68, 118
1, 3941746, Note_on_c, 0, 66, 108
1, 3947362, Note_off_c, 0, 66, 108
1, 3948269, Note_on_c, 0, 63, 102
1, 3953280, Note_off_c, 0, 63, 102
1, 3953712, Note_on_c, 0, 61, 118
1, 3962568, Note_off_c, 0, 61, 118
1, 3963604, Note_on_c, 0, 61, 110
1, 3990992, Note_off_c, 0, 61, 110
1, 4005896, Note_on_c, 0, 59, 111
1, 4009049, Note_off_c, 0, 59, 111
1, 4009740, Note_on_c, 0, 61, 117
1, 4014492, Note_off_c, 0, 61, 117
1, 4015139, Note_on_c, 0, 58, 115
1, 4021316, Note_off_c, 0, 58, 115
1, 4022007, Note_on_c, 0, 59, 114
1, 4028487, Note_off_c, 0, 59, 114
1, 4029912, Note_on_c, 0, 63, 111
1, 4067928, Note_off_c, 0, 63, 111
1, 4075444, Note_on_c, 0, 70, 119
1, 4088620, Note_off_c, 0, 70, 119
1, 4088879, Note_on_c, 0, 68, 115
1, 4090218, Note_off_c, 0, 68, 115
1, 4090455, Note_on_c, 0, 67, 116
1, 4092355, Note_off_c, 0, 67, 116
1, 4092679, Note_on_c, 0, 66, 120
1, 4103133, Note_off_c, 0, 66, 120
1, 4104113, Note_on_c, 0, 63, 113
1, 4116554, Note_off_c, 0, 63, 113
1, 4117604, Note_on_c, 0, 61, 112
1, 4149399, Note_off_c, 0, 61, 112
1, 4160606, Note_on_c, 0, 63, 110
1, 4183093, Note_off_c, 0, 63, 110
1, 4183707, Note_on_c, 0, 61, 110
1, 4205702, Note_off_c, 0, 61, 110
1, 4207458, Note_on_c, 0, 66, 110
1, 4242795, Note_off_c, 0, 66, 110
1, 4244198, Note_on_c, 0, 68, 107
1, 4246725, Note_off_c, 0, 68, 107
1, 4247135, Note_on_c, 0, 70, 103
1, 4249446, Note_off_c, 0, 70, 103
1, 4249985, Note_on_c, 0, 71, 108
1, 4252123, Note_off_c, 0, 71, 108
1, 4252922, Note_on_c, 0, 75, 114
1, 4255557, Note_off_c, 0, 75, 114
1, 4256334, Note_on_c, 0, 70, 110
1, 4259422, Note_off_c, 0, 70, 110
1, 4260026, Note_on_c, 0, 75, 113
1, 4263676, Note_off_c, 0, 75, 113
1, 4264496, Note_on_c, 0, 78, 112
1, 4268254, Note_off_c, 0, 78, 112
1, 4268729, Note_on_c, 0, 73, 109
1, 4272098, Note_off_c, 0, 73, 109
1, 4272810, Note_on_c, 0, 75, 115
1, 4276482, Note_off_c, 0, 75, 115
1, 4277108, Note_on_c, 0, 70, 113
1, 4280909, Note_off_c, 0, 70, 113
1, 4282075, Note_on_c, 0, 73, 99
1, 4285423, Note_off_c, 0, 73, 99
1, 4286135, Note_on_c, 0, 68, 115
1, 4293241, Note_off_c, 0, 68, 115
1, 4294105, Note_on_c, 0, 70, 109
1, 4297129, Note_off_c, 0, 70, 109
1, 4300455, Note_on_c, 0, 66, 119
1, 4305444, Note_off_c, 0, 66, 119
1, 4306005, Note_on_c, 0, 68, 110
1, 4310886, Note_off_c, 0, 68, 110
1, 4311382, Note_on_c, 0, 63, 107
1, 4319762, Note_off_c, 0, 63, 107
1, 4319963, Note_on_c, 0, 61, 114
1, 4341712, Note_off_c, 0, 61, 114
1, 4351987, Note_on_c, 0, 58, 113
1, 4355659, Note_off_c, 0, 58, 113
1, 4356263, Note_on_c, 0, 56, 109
1, 4360885, Note_off_c, 0, 56, 109
1, 4362008, Note_on_c, 0, 51, 115
1, 4371382, Note_off_c, 0, 51, 115
1, 4371630, Note_on_c, 0, 49, 109
1, 4423178, Note_off_c, 0, 49, 109
1, 4423178, End_track
0, 0, End_of_file
