0, 0, Header, 1, 1, 192
1, 0, Start_track
1, 0, Title_t, "Melody"
1, 0, Tempo, 285714
1, 0, Key_signature, -2, "major"
1, 0, Time_signature, 4, 2, 24, 8
1, 3397, Note_on_c, 0, 63, 114
1, 3482, Note_off_c, 0, 63, 114
1, 3492, Note_on_c, 0, 65, 112
1, 3592, Note_off_c, 0, 65, 112
1, 3600, Note_on_c, 0, 68, 112
1, 3701, Note_off_c, 0, 68, 112
1, 3704, Note_on_c, 0, 71, 110
1, 3860, Note_off_c, 0, 71, 110
1, 3884, Note_on_c, 0, 75, 121
1, 4008, Note_off_c, 0, 75, 121
1, 4018, Note_on_c, 0, 77, 117
1, 4376, Note_off_c, 0, 77, 117
1, 4379, Note_on_c, 0, 80, 122
1, 4508, Note_off_c, 0, 80, 122
1, 4513, Note_on_c, 0, 82, 112
1, 5048, Note_off_c, 0, 82, 112
1, 5048, Note_on_c, 0, 78, 117
1, 5193, Note_off_c, 0, 78, 117
1, 5199, Note_on_c, 0, 75, 111
1, 5265, Note_off_c, 0, 75, 111
1, 5266, Note_on_c, 0, 76, 116
1, 5443, Note_off_c, 0, 76, 116
1, 5450, Note_on_c, 0, 80, 113
1, 5632, Note_off_c, 0, 80, 113
1, 5632, Note_on_c, 0, 75, 106
1, 5682, Note_off_c, 0, 75, 106
1, 5686, Note_on_c, 0, 76, 117
1, 5846, Note_off_c, 0, 76, 117
1, 5850, Note_on_c, 0, 78, 112
1, 6015, Note_off_c, 0, 78, 112
1, 6025, Note_on_c, 0, 73, 90
1, 6067, Note_off_c, 0, 73, 90
1, 6068, Note_on_c, 0, 76, 115
1, 6294, Note_off_c, 0, 76, 115
1, 6885, Note_on_c, 0, 79, 117
1, 7002, Note_off_c, 0, 79, 117
1, 7008, Note_on_c, 0, 77, 118
1, 7113, Note_off_c, 0, 77, 118
1, 7113, Note_on_c, 0, 80, 111
1, 7218, Note_off_c, 0, 80, 111
1, 7220, Note_on_c, 0, 77, 122
1, 7310, Note_off_c, 0, 77, 122
1, 7310, Note_on_c, 0, 79, 114
1, 7415, Note_off_c, 0, 79, 114
1, 7416, Note_on_c, 0, 78, 117
1, 7509, Note_off_c, 0, 78, 117
1, 7509, Note_on_c, 0, 79, 113
1, 7598, Note_off_c, 0, 79, 113
1, 7601, Note_on_c, 0, 79, 111
1, 7647, Note_off_c, 0, 79, 111
1, 7648, Note_on_c, 0, 78, 118
1, 7701, Note_off_c, 0, 78, 118
1, 7701, Note_on_c, 0, 77, 117
1, 7800, Note_off_c, 0, 77, 117
1, 7803, Note_on_c, 0, 76, 121
1, 7908, Note_off_c, 0, 76, 121
1, 7911, Note_on_c, 0, 75, 121
1, 8014, Note_off_c, 0, 75, 121
1, 8016, Note_on_c, 0, 78, 115
1, 8094, Note_off_c, 0, 78, 115
1, 8103, Note_on_c, 0, 76, 121
1, 8204, Note_off_c, 0, 76, 121
1, 8209, Note_on_c, 0, 72, 121
1, 8310, Note_off_c, 0, 72, 121
1, 8312, Note_on_c, 0, 69, 109
1, 8405, Note_off_c, 0, 69, 109
1, 8410, Note_on_c, 0, 66, 100
1, 8504, Note_off_c, 0, 66, 100
1, 8518, Note_on_c, 0, 68, 113
1, 8644, Note_off_c, 0, 68, 113
1, 8645, Note_on_c, 0, 69, 107
1, 8695, Note_off_c, 0, 69, 107
1, 8708, Note_on_c, 0, 74, 123
1, 8790, Note_off_c, 0, 74, 123
1, 8790, Note_on_c, 0, 73, 105
1, 8850, Note_off_c, 0, 73, 105
1, 8896, Note_on_c, 0, 76, 119
1, 9018, Note_off_c, 0, 76, 119
1, 9021, Note_on_c, 0, 72, 119
1, 9103, Note_off_c, 0, 72, 119
1, 9103, Note_on_c, 0, 68, 109
1, 9215, Note_off_c, 0, 68, 109
1, 9223, Note_on_c, 0, 66, 100
1, 9302, Note_off_c, 0, 66, 100
1, 9309, Note_on_c, 0, 65, 113
1, 9454, Note_off_c, 0, 65, 113
1, 9462, Note_on_c, 0, 68, 108
1, 9579, Note_off_c, 0, 68, 108
1, 9867, Note_on_c, 0, 64, 115
1, 10012, Note_off_c, 0, 64, 115
1, 10018, Note_on_c, 0, 61, 85
1, 10087, Note_off_c, 0, 61, 85
1, 10093, Note_on_c, 0, 64, 119
1, 10219, Note_off_c, 0, 64, 119
1, 10232, Note_on_c, 0, 65, 115
1, 10372, Note_off_c, 0, 65, 115
1, 10415, Note_on_c, 0, 61, 88
1, 10466, Note_off_c, 0, 61, 88
1, 10469, Note_on_c, 0, 64, 118
1, 10643, Note_off_c, 0, 64, 118
1, 10649, Note_on_c, 0, 65, 117
1, 10833, Note_off_c, 0, 65, 117
1, 11081, Note_on_c, 0, 66, 113
1, 11174, Note_off_c, 0, 66, 113
1, 11179, Note_on_c, 0, 68, 112
1, 11264, Note_off_c, 0, 68, 112
1, 11270, Note_on_c, 0, 70, 107
1, 11373, Note_off_c, 0, 70, 107
1, 11377, Note_on_c, 0, 73, 124
1, 11505, Note_off_c, 0, 73, 124
1, 11506, Note_on_c, 0, 70, 101
1, 11634, Note_off_c, 0, 70, 101
1, 11671, Note_on_c, 0, 71, 116
1, 11712, Note_off_c, 0, 71, 116
1, 11714, Note_on_c, 0, 72, 125
1, 11889, Note_off_c, 0, 72, 125
1, 11892, Note_on_c, 0, 70, 103
1, 11996, Note_off_c, 0, 70, 103
1, 11996, Note_on_c, 0, 66, 114
1, 12265, Note_off_c, 0, 66, 114
1, 12948, Note_on_c, 0, 69, 106
1, 13033, Note_off_c, 0, 69, 106
1, 13051, Note_on_c, 0, 70, 89
1, 13096, Note_off_c, 0, 70, 89
1, 13097, Note_on_c, 0, 73, 104
1, 13147, Note_off_c, 0, 73, 104
1, 13153, Note_on_c, 0, 76, 117
1, 13239, Note_off_c, 0, 76, 117
1, 13247, Note_on_c, 0, 78, 119
1, 13365, Note_off_c, 0, 78, 119
1, 13369, Note_on_c, 0, 79, 115
1, 13451, Note_off_c, 0, 79, 115
1, 13452, Note_on_c, 0, 76, 121
1, 13570, Note_off_c, 0, 76, 121
1, 13619, Note_on_c, 0, 77, 120
1, 13736, Note_off_c, 0, 77, 120
1, 13738, Note_on_c, 0, 76, 120
1, 13827, Note_off_c, 0, 76, 120
1, 13827, Note_on_c, 0, 75, 118
1, 13936, Note_off_c, 0, 75, 118
1, 13996, Note_on_c, 0, 67, 96
1, 14042, Note_off_c, 0, 67, 96
1, 14045, Note_on_c, 0, 74, 122
1, 14164, Note_off_c, 0, 74, 122
1, 14164, Note_on_c, 0, 72, 123
1, 14239, Note_off_c, 0, 72, 123
1, 14239, Note_on_c, 0, 70, 105
1, 14324, Note_off_c, 0, 70, 105
1, 14362, Note_on_c, 0, 68, 86
1, 14434, Note_off_c, 0, 68, 86
1, 14438, Note_on_c, 0, 69, 107
1, 14590, Note_off_c, 0, 69, 107
1, 14593, Note_on_c, 0, 76, 119
1, 14724, Note_off_c, 0, 76, 119
1, 14730, Note_on_c, 0, 72, 118
1, 14830, Note_off_c, 0, 72, 118
1, 14836, Note_on_c, 0, 67, 111
1, 14881, Note_off_c, 0, 67, 111
1, 14882, Note_on_c, 0, 68, 107
1, 14980, Note_off_c, 0, 68, 107
1, 14980, Note_on_c, 0, 64, 115
1, 15104, Note_off_c, 0, 64, 115
1, 15110, Note_on_c, 0, 62, 113
1, 15225, Note_off_c, 0, 62, 113
1, 15277, Note_on_c, 0, 62, 113
1, 15378, Note_off_c, 0, 62, 113
1, 15383, Note_on_c, 0, 56, 114
1, 15635, Note_off_c, 0, 56, 114
1, 15645, Note_on_c, 0, 55, 110
1, 15694, Note_off_c, 0, 55, 110
1, 16141, Note_on_c, 0, 67, 109
1, 16273, Note_off_c, 0, 67, 109
1, 16274, Note_on_c, 0, 66, 102
1, 16359, Note_off_c, 0, 66, 102
1, 16361, Note_on_c, 0, 67, 109
1, 16662, Note_off_c, 0, 67, 109
1, 16662, Note_on_c, 0, 66, 104
1, 16728, Note_off_c, 0, 66, 104
1, 16730, Note_on_c, 0, 67, 105
1, 16853, Note_off_c, 0, 67, 105
1, 16878, Note_on_c, 0, 68, 96
1, 16937, Note_off_c, 0, 68, 96
1, 16940, Note_on_c, 0, 70, 105
1, 17045, Note_off_c, 0, 70, 105
1, 17048, Note_on_c, 0, 68, 111
1, 17141, Note_off_c, 0, 68, 111
1, 17147, Note_on_c, 0, 67, 113
1, 17307, Note_off_c, 0, 67, 113
1, 17891, Note_on_c, 0, 66, 112
1, 18007, Note_off_c, 0, 66, 112
1, 18009, Note_on_c, 0, 67, 113
1, 18113, Note_off_c, 0, 67, 113
1, 18116, Note_on_c, 0, 70, 103
1, 18210, Note_off_c, 0, 70, 103
1, 18218, Note_on_c, 0, 76, 126
1, 18319, Note_off_c, 0, 76, 126
1, 18326, Note_on_c, 0, 72, 126
1, 18428, Note_off_c, 0, 72, 126
1, 18430, Note_on_c, 0, 70, 105
1, 18523, Note_off_c, 0, 70, 105
1, 18534, Note_on_c, 0, 67, 109
1, 18651, Note_off_c, 0, 67, 109
1, 18667, Note_on_c, 0, 60, 86
1, 18724, Note_off_c, 0, 60, 86
1, 18724, Note_on_c, 0, 66, 114
1, 18817, Note_off_c, 0, 66, 114
1, 18830, Note_on_c, 0, 64, 110
1, 18904, Note_off_c, 0, 64, 110
1, 18908, Note_on_c, 0, 65, 118
1, 19021, Note_off_c, 0, 65, 118
1, 19021, Note_on_c, 0, 64, 114
1, 19099, Note_off_c, 0, 64, 114
1, 19106, Note_on_c, 0, 63, 118
1, 19248, Note_off_c, 0, 63, 118
1, 19417, Note_on_c, 0, 70, 105
1, 19469, Note_off_c, 0, 70, 105
1, 19480, Note_on_c, 0, 74, 124
1, 19589, Note_off_c, 0, 74, 124
1, 19592, Note_on_c, 0, 77, 121
1, 19701, Note_off_c, 0, 77, 121
1, 19704, Note_on_c, 0, 76, 120
1, 19819, Note_off_c, 0, 76, 120
1, 19821, Note_on_c, 0, 74, 95
1, 19862, Note_off_c, 0, 74, 95
1, 19862, Note_on_c, 0, 75, 121
1, 19991, Note_off_c, 0, 75, 121
1, 19995, Note_on_c, 0, 77, 117
1, 20092, Note_off_c, 0, 77, 117
1, 20092, Note_on_c, 0, 78, 113
1, 20189, Note_off_c, 0, 78, 113
1, 20198, Note_on_c, 0, 81, 106
1, 20299, Note_off_c, 0, 81, 106
1, 20303, Note_on_c, 0, 76, 115
1, 20330, Note_off_c, 0, 76, 115
1, 20336, Note_on_c, 0, 77, 117
1, 20478, Note_off_c, 0, 77, 117
1, 20480, Note_on_c, 0, 75, 118
1, 20602, Note_off_c, 0, 75, 118
1, 20606, Note_on_c, 0, 76, 115
1, 20848, Note_off_c, 0, 76, 115
1, 20852, Note_on_c, 0, 73, 114
1, 21029, Note_off_c, 0, 73, 114
1, 21031, Note_on_c, 0, 75, 116
1, 21169, Note_off_c, 0, 75, 116
1, 21178, Note_on_c, 0, 73, 117
1, 21248, Note_off_c, 0, 73, 117
1, 21257, Note_on_c, 0, 68, 108
1, 21358, Note_off_c, 0, 68, 108
1, 21360, Note_on_c, 0, 66, 110
1, 21436, Note_off_c, 0, 66, 110
1, 21442, Note_on_c, 0, 65, 109
1, 21607, Note_off_c, 0, 65, 109
1, 21609, Note_on_c, 0, 72, 125
1, 21999, Note_off_c, 0, 72, 125
1, 22001, Note_on_c, 0, 68, 105
1, 22134, Note_off_c, 0, 68, 105
1, 22183, Note_on_c, 0, 73, 122
1, 22415, Note_off_c, 0, 73, 122
1, 22774, Note_on_c, 0, 75, 121
1, 22842, Note_off_c, 0, 75, 121
1, 22842, Note_on_c, 0, 77, 120
1, 23179, Note_off_c, 0, 77, 120
1, 23184, Note_on_c, 0, 73, 120
1, 23332, Note_off_c, 0, 73, 120
1, 23415, Note_on_c, 0, 71, 105
1, 23551, Note_off_c, 0, 71, 105
1, 23555, Note_on_c, 0, 73, 124
1, 23827, Note_off_c, 0, 73, 124
1, 24158, Note_on_c, 0, 66, 111
1, 24278, Note_off_c, 0, 66, 111
1, 24294, Note_on_c, 0, 71, 109
1, 24351, Note_off_c, 0, 71, 109
1, 24351, Note_on_c, 0, 70, 102
1, 24488, Note_off_c, 0, 70, 102
1, 24492, Note_on_c, 0, 66, 104
1, 24569, Note_off_c, 0, 66, 104
1, 24573, Note_on_c, 0, 69, 105
1, 24614, Note_off_c, 0, 69, 105
1, 24615, Note_on_c, 0, 71, 106
1, 24735, Note_off_c, 0, 71, 106
1, 24735, Note_on_c, 0, 70, 103
1, 24851, Note_off_c, 0, 70, 103
1, 24863, Note_on_c, 0, 66, 114
1, 25062, Note_off_c, 0, 66, 114
1, 25450, Note_on_c, 0, 57, 107
1, 25541, Note_off_c, 0, 57, 107
1, 25550, Note_on_c, 0, 61, 91
1, 25582, Note_off_c, 0, 61, 91
1, 25598, Note_on_c, 0, 65, 93
1, 25652, Note_off_c, 0, 65, 93
1, 25663, Note_on_c, 0, 67, 114
1, 25768, Note_off_c, 0, 67, 114
1, 25768, Note_on_c, 0, 66, 114
1, 25869, Note_off_c, 0, 66, 114
1, 25930, Note_on_c, 0, 64, 110
1, 26047, Note_off_c, 0, 64, 110
1, 26047, Note_on_c, 0, 65, 115
1, 26405, Note_off_c, 0, 65, 115
1, 26410, Note_on_c, 0, 63, 116
1, 26514, Note_off_c, 0, 63, 116
1, 26969, Note_on_c, 0, 57, 115
1, 27032, Note_off_c, 0, 57, 115
1, 27042, Note_on_c, 0, 64, 90
1, 27096, Note_off_c, 0, 64, 90
1, 27102, Note_on_c, 0, 66, 104
1, 27152, Note_off_c, 0, 66, 104
1, 27158, Note_on_c, 0, 67, 114
1, 27240, Note_off_c, 0, 67, 114
1, 27249, Note_on_c, 0, 66, 108
1, 27350, Note_off_c, 0, 66, 108
1, 27354, Note_on_c, 0, 71, 108
1, 27449, Note_off_c, 0, 71, 108
1, 27452, Note_on_c, 0, 68, 110
1, 27563, Note_off_c, 0, 68, 110
1, 27565, Note_on_c, 0, 71, 100
1, 27621, Note_off_c, 0, 71, 100
1, 27624, Note_on_c, 0, 72, 123
1, 27737, Note_off_c, 0, 72, 123
1, 27831, Note_on_c, 0, 71, 106
1, 27935, Note_off_c, 0, 71, 106
1, 27945, Note_on_c, 0, 76, 117
1, 28031, Note_off_c, 0, 76, 117
1, 28035, Note_on_c, 0, 77, 114
1, 28125, Note_off_c, 0, 77, 114
1, 28132, Note_on_c, 0, 83, 111
1, 28202, Note_off_c, 0, 83, 111
1, 28206, Note_on_c, 0, 80, 120
1, 28319, Note_off_c, 0, 80, 120
1, 28319, Note_on_c, 0, 78, 118
1, 28398, Note_off_c, 0, 78, 118
1, 28403, Note_on_c, 0, 77, 118
1, 28574, Note_off_c, 0, 77, 118
1, 28574, Note_on_c, 0, 80, 113
1, 28749, Note_off_c, 0, 80, 113
1, 28775, Note_on_c, 0, 85, 102
1, 29061, Note_off_c, 0, 85, 102
1, 29145, Note_on_c, 0, 83, 107
1, 29265, Note_off_c, 0, 83, 107
1, 29272, Note_on_c, 0, 85, 106
1, 29346, Note_off_c, 0, 85, 106
1, 29346, Note_on_c, 0, 86, 102
1, 29378, Note_on_c, 0, 87, 101
1, 29378, Note_off_c, 0, 86, 102
1, 29457, Note_off_c, 0, 87, 101
1, 29457, Note_on_c, 0, 83, 111
1, 29549, Note_off_c, 0, 83, 111
1, 29551, Note_on_c, 0, 80, 114
1, 29721, Note_off_c, 0, 80, 114
1, 29725, Note_on_c, 0, 78, 112
1, 29925, Note_off_c, 0, 78, 112
1, 30270, Note_on_c, 0, 82, 114
1, 30383, Note_off_c, 0, 82, 114
1, 30393, Note_on_c, 0, 85, 109
1, 30472, Note_off_c, 0, 85, 109
1, 30476, Note_on_c, 0, 84, 110
1, 30500, Note_off_c, 0, 84, 110
1, 30506, Note_on_c, 0, 80, 111
1, 30582, Note_off_c, 0, 80, 111
1, 30587, Note_on_c, 0, 82, 108
1, 30723, Note_off_c, 0, 82, 108
1, 30768, Note_on_c, 0, 78, 112
1, 30914, Note_off_c, 0, 78, 112
1, 30951, Note_on_c, 0, 80, 121
1, 31101, Note_off_c, 0, 80, 121
1, 31143, Note_on_c, 0, 76, 118
1, 31225, Note_off_c, 0, 76, 118
1, 31229, Note_on_c, 0, 78, 115
1, 31342, Note_off_c, 0, 78, 115
1, 31345, Note_on_c, 0, 80, 119
1, 31443, Note_off_c, 0, 80, 119
1, 31448, Note_on_c, 0, 79, 118
1, 31563, Note_off_c, 0, 79, 118
1, 31612, Note_on_c, 0, 72, 120
1, 31735, Note_off_c, 0, 72, 120
1, 31745, Note_on_c, 0, 79, 116
1, 31830, Note_off_c, 0, 79, 116
1, 31835, Note_on_c, 0, 78, 115
1, 31914, Note_off_c, 0, 78, 115
1, 31933, Note_on_c, 0, 76, 118
1, 32007, Note_off_c, 0, 76, 118
1, 32009, Note_on_c, 0, 77, 119
1, 32129, Note_off_c, 0, 77, 119
1, 32158, Note_on_c, 0, 73, 111
1, 32210, Note_off_c, 0, 73, 111
1, 32215, Note_on_c, 0, 75, 119
1, 32386, Note_off_c, 0, 75, 119
1, 32601, Note_on_c, 0, 74, 123
1, 32706, Note_off_c, 0, 74, 123
1, 32709, Note_on_c, 0, 72, 123
1, 32806, Note_off_c, 0, 72, 123
1, 32810, Note_on_c, 0, 70, 105
1, 32882, Note_off_c, 0, 70, 105
1, 32890, Note_on_c, 0, 68, 114
1, 32994, Note_off_c, 0, 68, 114
1, 32996, Note_on_c, 0, 67, 112
1, 33092, Note_off_c, 0, 67, 112
1, 33094, Note_on_c, 0, 66, 118
1, 33162, Note_off_c, 0, 66, 118
1, 33170, Note_on_c, 0, 65, 115
1, 33259, Note_off_c, 0, 65, 115
1, 33259, Note_on_c, 0, 63, 116
1, 33338, Note_off_c, 0, 63, 116
1, 33346, Note_on_c, 0, 62, 119
1, 33455, Note_off_c, 0, 62, 119
1, 33462, Note_on_c, 0, 60, 116
1, 33564, Note_off_c, 0, 60, 116
1, 33566, Note_on_c, 0, 59, 118
1, 33631, Note_off_c, 0, 59, 118
1, 33633, Note_on_c, 0, 58, 113
1, 33690, Note_off_c, 0, 58, 113
1, 33695, Note_on_c, 0, 60, 105
1, 33823, Note_off_c, 0, 60, 105
1, 33836, Note_on_c, 0, 64, 105
1, 33879, Note_off_c, 0, 64, 105
1, 33895, Note_on_c, 0, 66, 98
1, 33960, Note_off_c, 0, 66, 98
1, 33984, Note_on_c, 0, 69, 110
1, 34036, Note_off_c, 0, 69, 110
1, 34036, Note_on_c, 0, 65, 107
1, 34115, Note_off_c, 0, 65, 107
1, 34119, Note_on_c, 0, 68, 110
1, 34142, Note_off_c, 0, 68, 110
1, 34144, Note_on_c, 0, 67, 114
1, 34220, Note_off_c, 0, 67, 114
1, 34256, Note_on_c, 0, 68, 111
1, 34301, Note_off_c, 0, 68, 111
1, 34306, Note_on_c, 0, 69, 90
1, 34344, Note_off_c, 0, 69, 90
1, 34420, Note_on_c, 0, 71, 103
1, 34505, Note_off_c, 0, 71, 103
1, 34507, Note_on_c, 0, 76, 120
1, 34606, Note_off_c, 0, 76, 120
1, 34607, Note_on_c, 0, 73, 122
1, 34708, Note_off_c, 0, 73, 122
1, 34713, Note_on_c, 0, 68, 110
1, 34811, Note_off_c, 0, 68, 110
1, 34819, Note_on_c, 0, 65, 113
1, 34887, Note_off_c, 0, 65, 113
1, 34889, Note_on_c, 0, 66, 107
1, 34995, Note_off_c, 0, 66, 107
1, 35016, Note_on_c, 0, 70, 92
1, 35070, Note_off_c, 0, 70, 92
1, 35086, Note_on_c, 0, 65, 113
1, 35448, Note_off_c, 0, 65, 113
1, 35448, Note_on_c, 0, 66, 113
1, 35563, Note_off_c, 0, 66, 113
1, 35566, Note_on_c, 0, 67, 116
1, 35664, Note_off_c, 0, 67, 116
1, 35669, Note_on_c, 0, 68, 115
1, 35789, Note_off_c, 0, 68, 115
1, 35798, Note_on_c, 0, 65, 120
1, 35883, Note_off_c, 0, 65, 120
1, 36146, Note_on_c, 0, 66, 114
1, 36255, Note_off_c, 0, 66, 114
1, 36295, Note_on_c, 0, 70, 95
1, 36333, Note_off_c, 0, 70, 95
1, 36337, Note_on_c, 0, 71, 96
1, 36377, Note_off_c, 0, 71, 96
1, 36384, Note_on_c, 0, 76, 127
1, 36422, Note_off_c, 0, 76, 127
1, 36424, Note_on_c, 0, 75, 122
1, 36459, Note_off_c, 0, 75, 122
1, 36472, Note_on_c, 0, 70, 103
1, 36581, Note_off_c, 0, 70, 103
1, 36618, Note_on_c, 0, 73, 125
1, 36730, Note_off_c, 0, 73, 125
1, 36734, Note_on_c, 0, 76, 113
1, 36827, Note_off_c, 0, 76, 113
1, 36829, Note_on_c, 0, 78, 117
1, 36963, Note_off_c, 0, 78, 117
1, 36965, Note_on_c, 0, 82, 114
1, 37043, Note_off_c, 0, 82, 114
1, 37049, Note_on_c, 0, 85, 100
1, 37166, Note_off_c, 0, 85, 100
1, 37171, Note_on_c, 0, 82, 113
1, 37439, Note_off_c, 0, 82, 113
1, 37735, Note_on_c, 0, 69, 109
1, 37787, Note_off_c, 0, 69, 109
1, 37792, Note_on_c, 0, 70, 101
1, 37833, Note_off_c, 0, 70, 101
1, 37835, Note_on_c, 0, 72, 125
1, 37881, Note_off_c, 0, 72, 125
1, 37891, Note_on_c, 0, 75, 115
1, 37926, Note_off_c, 0, 75, 115
1, 37929, Note_on_c, 0, 77, 119
1, 38009, Note_off_c, 0, 77, 119
1, 38013, Note_on_c, 0, 79, 119
1, 38098, Note_off_c, 0, 79, 119
1, 38106, Note_on_c, 0, 78, 118
1, 38144, Note_off_c, 0, 78, 118
1, 38152, Note_on_c, 0, 79, 118
1, 38202, Note_off_c, 0, 79, 118
1, 38203, Note_on_c, 0, 78, 117
1, 38246, Note_off_c, 0, 78, 117
1, 38250, Note_on_c, 0, 77, 122
1, 38273, Note_off_c, 0, 77, 122
1, 38280, Note_on_c, 0, 76, 120
1, 38325, Note_off_c, 0, 76, 120
1, 38328, Note_on_c, 0, 75, 119
1, 38380, Note_off_c, 0, 75, 119
1, 38382, Note_on_c, 0, 78, 111
1, 38445, Note_off_c, 0, 78, 111
1, 38450, Note_on_c, 0, 77, 119
1, 38489, Note_off_c, 0, 77, 119
1, 38491, Note_on_c, 0, 75, 120
1, 38532, Note_off_c, 0, 75, 120
1, 38540, Note_on_c, 0, 74, 119
1, 38589, Note_off_c, 0, 74, 119
1, 38597, Note_on_c, 0, 72, 116
1, 38639, Note_off_c, 0, 72, 116
1, 38644, Note_on_c, 0, 70, 104
1, 38683, Note_off_c, 0, 70, 104
1, 38687, Note_on_c, 0, 68, 112
1, 38744, Note_off_c, 0, 68, 112
1, 38757, Note_on_c, 0, 67, 111
1, 38811, Note_off_c, 0, 67, 111
1, 38813, Note_on_c, 0, 65, 109
1, 38850, Note_off_c, 0, 65, 109
1, 38856, Note_on_c, 0, 63, 115
1, 38886, Note_off_c, 0, 63, 115
1, 38887, Note_on_c, 0, 62, 109
1, 38941, Note_off_c, 0, 62, 109
1, 38948, Note_on_c, 0, 60, 93
1, 39024, Note_off_c, 0, 60, 93
1, 39625, Note_on_c, 0, 57, 111
1, 39693, Note_off_c, 0, 57, 111
1, 39708, Note_on_c, 0, 60, 103
1, 39762, Note_off_c, 0, 60, 103
1, 39770, Note_on_c, 0, 64, 105
1, 39802, Note_off_c, 0, 64, 105
1, 39807, Note_on_c, 0, 66, 114
1, 39848, Note_off_c, 0, 66, 114
1, 39850, Note_on_c, 0, 67, 117
1, 39986, Note_off_c, 0, 67, 117
1, 39993, Note_on_c, 0, 66, 39
1, 40071, Note_off_c, 0, 66, 39
1, 40078, Note_on_c, 0, 64, 110
1, 40181, Note_off_c, 0, 64, 110
1, 40192, Note_on_c, 0, 62, 100
1, 40257, Note_off_c, 0, 62, 100
1, 40263, Note_on_c, 0, 71, 105
1, 40442, Note_off_c, 0, 71, 105
1, 40443, Note_on_c, 0, 68, 111
1, 40673, Note_off_c, 0, 68, 111
1, 41029, Note_on_c, 0, 67, 107
1, 41146, Note_off_c, 0, 67, 107
1, 41155, Note_on_c, 0, 65, 109
1, 41219, Note_off_c, 0, 65, 109
1, 41219, Note_on_c, 0, 71, 104
1, 41332, Note_off_c, 0, 71, 104
1, 41332, Note_on_c, 0, 69, 100
1, 41410, Note_off_c, 0, 69, 100
1, 41412, Note_on_c, 0, 68, 100
1, 41439, Note_off_c, 0, 68, 100
1, 41446, Note_on_c, 0, 70, 100
1, 41537, Note_off_c, 0, 70, 100
1, 41537, Note_on_c, 0, 67, 106
1, 41613, Note_off_c, 0, 67, 106
1, 41620, Note_on_c, 0, 68, 108
1, 41719, Note_off_c, 0, 68, 108
1, 41721, Note_on_c, 0, 66, 96
1, 41807, Note_off_c, 0, 66, 96
1, 41816, Note_on_c, 0, 67, 109
1, 41912, Note_off_c, 0, 67, 109
1, 41912, Note_on_c, 0, 66, 111
1, 41986, Note_off_c, 0, 66, 111
1, 41987, Note_on_c, 0, 65, 114
1, 42111, Note_off_c, 0, 65, 114
1, 42128, Note_on_c, 0, 63, 104
1, 42194, Note_off_c, 0, 63, 104
1, 42207, Note_on_c, 0, 64, 112
1, 42312, Note_off_c, 0, 64, 112
1, 42324, Note_on_c, 0, 65, 111
1, 42398, Note_off_c, 0, 65, 111
1, 42404, Note_on_c, 0, 66, 106
1, 42483, Note_off_c, 0, 66, 106
1, 42493, Note_on_c, 0, 70, 99
1, 42565, Note_off_c, 0, 70, 99
1, 42572, Note_on_c, 0, 72, 123
1, 42678, Note_off_c, 0, 72, 123
1, 42684, Note_on_c, 0, 76, 109
1, 42761, Note_off_c, 0, 76, 109
1, 42762, Note_on_c, 0, 78, 112
1, 42890, Note_off_c, 0, 78, 112
1, 42901, Note_on_c, 0, 70, 92
1, 42967, Note_off_c, 0, 70, 92
1, 42970, Note_on_c, 0, 72, 118
1, 43110, Note_off_c, 0, 72, 118
1, 43157, Note_on_c, 0, 76, 115
1, 43194, Note_off_c, 0, 76, 115
1, 43196, Note_on_c, 0, 77, 113
1, 43325, Note_off_c, 0, 77, 113
1, 43327, Note_on_c, 0, 78, 113
1, 43533, Note_off_c, 0, 78, 113
1, 43835, Note_on_c, 0, 79, 111
1, 43895, Note_off_c, 0, 79, 111
1, 43908, Note_on_c, 0, 80, 107
1, 44017, Note_off_c, 0, 80, 107
1, 44105, Note_on_c, 0, 75, 120
1, 44232, Note_off_c, 0, 75, 120
1, 44240, Note_on_c, 0, 80, 110
1, 44316, Note_off_c, 0, 80, 110
1, 44319, Note_on_c, 0, 78, 102
1, 44389, Note_off_c, 0, 78, 102
1, 44395, Note_on_c, 0, 79, 100
1, 44437, Note_off_c, 0, 79, 100
1, 44437, Note_on_c, 0, 76, 113
1, 44518, Note_off_c, 0, 76, 113
1, 44519, Note_on_c, 0, 77, 111
1, 44632, Note_off_c, 0, 77, 111
1, 44636, Note_on_c, 0, 72, 114
1, 44730, Note_off_c, 0, 72, 114
1, 44735, Note_on_c, 0, 69, 103
1, 44794, Note_off_c, 0, 69, 103
1, 44794, Note_on_c, 0, 65, 114
1, 44915, Note_off_c, 0, 65, 114
1, 44927, Note_on_c, 0, 63, 114
1, 45080, Note_off_c, 0, 63, 114
1, 45088, Note_on_c, 0, 57, 111
1, 45184, Note_off_c, 0, 57, 111
1, 45188, Note_on_c, 0, 56, 113
1, 45496, Note_off_c, 0, 56, 113
1, 45525, Note_on_c, 0, 59, 92
1, 45556, Note_off_c, 0, 59, 92
1, 45560, Note_on_c, 0, 62, 108
1, 45599, Note_off_c, 0, 62, 108
1, 45610, Note_on_c, 0, 68, 105
1, 45676, Note_off_c, 0, 68, 105
1, 45688, Note_on_c, 0, 61, 112
1, 45815, Note_off_c, 0, 61, 112
1, 45819, Note_on_c, 0, 63, 109
1, 45891, Note_off_c, 0, 63, 109
1, 45897, Note_on_c, 0, 66, 109
1, 46004, Note_off_c, 0, 66, 109
1, 46012, Note_on_c, 0, 65, 109
1, 46037, Note_off_c, 0, 65, 109
1, 46040, Note_on_c, 0, 68, 109
1, 46098, Note_off_c, 0, 68, 109
1, 46100, Note_on_c, 0, 64, 110
1, 46413, Note_off_c, 0, 64, 110
1, 46418, Note_on_c, 0, 66, 109
1, 46536, Note_off_c, 0, 66, 109
1, 46550, Note_on_c, 0, 76, 113
1, 46741, Note_off_c, 0, 76, 113
1, 46968, Note_on_c, 0, 77, 122
1, 47104, Note_off_c, 0, 77, 122
1, 47115, Note_on_c, 0, 73, 121
1, 47290, Note_off_c, 0, 73, 121
1, 47497, Note_on_c, 0, 80, 115
1, 47614, Note_off_c, 0, 80, 115
1, 47614, Note_on_c, 0, 83, 106
1, 47727, Note_off_c, 0, 83, 106
1, 47729, Note_on_c, 0, 85, 108
1, 47898, Note_off_c, 0, 85, 108
1, 48058, Note_on_c, 0, 83, 93
1, 48144, Note_off_c, 0, 83, 93
1, 48145, Note_on_c, 0, 77, 115
1, 48242, Note_off_c, 0, 77, 115
1, 48249, Note_on_c, 0, 83, 107
1, 48362, Note_off_c, 0, 83, 107
1, 48368, Note_on_c, 0, 82, 112
1, 48456, Note_off_c, 0, 82, 112
1, 48461, Note_on_c, 0, 78, 114
1, 48536, Note_off_c, 0, 78, 114
1, 48538, Note_on_c, 0, 76, 116
1, 48623, Note_off_c, 0, 76, 116
1, 48634, Note_on_c, 0, 80, 114
1, 48723, Note_off_c, 0, 80, 114
1, 48728, Note_on_c, 0, 78, 111
1, 48829, Note_off_c, 0, 78, 111
1, 48830, Note_on_c, 0, 73, 117
1, 48915, Note_off_c, 0, 73, 117
1, 48915, Note_on_c, 0, 70, 100
1, 49016, Note_off_c, 0, 70, 100
1, 49024, Note_on_c, 0, 66, 82
1, 49092, Note_off_c, 0, 66, 82
1, 49094, Note_on_c, 0, 73, 118
1, 49150, Note_off_c, 0, 73, 118
1, 49151, Note_on_c, 0, 74, 115
1, 49178, Note_off_c, 0, 74, 115
1, 49182, Note_on_c, 0, 76, 115
1, 49284, Note_off_c, 0, 76, 115
1, 49291, Note_on_c, 0, 78, 112
1, 49598, Note_off_c, 0, 78, 112
1, 49932, Note_on_c, 0, 57, 121
1, 49974, Note_off_c, 0, 57, 121
1, 49975, Note_on_c, 0, 58, 114
1, 50037, Note_off_c, 0, 58, 114
1, 50049, Note_on_c, 0, 61, 113
1, 50076, Note_off_c, 0, 61, 113
1, 50084, Note_on_c, 0, 62, 95
1, 50099, Note_off_c, 0, 62, 95
1, 50112, Note_on_c, 0, 66, 108
1, 50137, Note_off_c, 0, 66, 108
1, 50137, Note_on_c, 0, 65, 113
1, 50168, Note_off_c, 0, 65, 113
1, 50169, Note_on_c, 0, 58, 118
1, 50192, Note_off_c, 0, 58, 118
1, 50197, Note_on_c, 0, 59, 121
1, 50218, Note_off_c, 0, 59, 121
1, 50227, Note_on_c, 0, 62, 113
1, 50266, Note_off_c, 0, 62, 113
1, 50275, Note_on_c, 0, 64, 92
1, 50317, Note_off_c, 0, 64, 92
1, 50342, Note_on_c, 0, 58, 120
1, 50365, Note_off_c, 0, 58, 120
1, 50365, Note_on_c, 0, 59, 101
1, 50402, Note_off_c, 0, 59, 101
1, 50409, Note_on_c, 0, 63, 112
1, 50442, Note_on_c, 0, 66, 111
1, 50442, Note_off_c, 0, 63, 112
1, 50481, Note_off_c, 0, 66, 111
1, 50484, Note_on_c, 0, 64, 115
1, 50521, Note_off_c, 0, 64, 115
1, 50524, Note_on_c, 0, 62, 112
1, 50570, Note_off_c, 0, 62, 112
1, 50585, Note_on_c, 0, 63, 114
1, 50667, Note_off_c, 0, 63, 114
1, 50764, Note_on_c, 0, 74, 107
1, 50828, Note_off_c, 0, 74, 107
1, 50836, Note_on_c, 0, 67, 110
1, 50895, Note_off_c, 0, 67, 110
1, 50901, Note_on_c, 0, 70, 96
1, 50924, Note_off_c, 0, 70, 96
1, 50929, Note_on_c, 0, 71, 113
1, 50962, Note_off_c, 0, 71, 113
1, 50965, Note_on_c, 0, 72, 108
1, 51023, Note_off_c, 0, 72, 108
1, 51028, Note_on_c, 0, 73, 103
1, 51067, Note_off_c, 0, 73, 103
1, 51072, Note_on_c, 0, 74, 110
1, 51121, Note_off_c, 0, 74, 110
1, 51126, Note_on_c, 0, 75, 109
1, 51186, Note_off_c, 0, 75, 109
1, 51188, Note_on_c, 0, 73, 111
1, 51229, Note_off_c, 0, 73, 111
1, 51239, Note_on_c, 0, 74, 111
1, 51281, Note_off_c, 0, 74, 111
1, 51282, Note_on_c, 0, 78, 94
1, 51313, Note_off_c, 0, 78, 94
1, 51317, Note_on_c, 0, 80, 108
1, 51383, Note_off_c, 0, 80, 108
1, 51391, Note_on_c, 0, 78, 110
1, 51451, Note_off_c, 0, 78, 110
1, 51451, Note_on_c, 0, 77, 109
1, 51495, Note_off_c, 0, 77, 109
1, 51495, Note_on_c, 0, 75, 109
1, 51539, Note_off_c, 0, 75, 109
1, 51548, Note_on_c, 0, 74, 109
1, 51588, Note_off_c, 0, 74, 109
1, 51589, Note_on_c, 0, 76, 105
1, 51608, Note_off_c, 0, 76, 105
1, 51611, Note_on_c, 0, 78, 110
1, 51657, Note_on_c, 0, 79, 106
1, 51657, Note_off_c, 0, 78, 110
1, 51678, Note_off_c, 0, 79, 106
1, 51683, Note_on_c, 0, 81, 112
1, 51720, Note_off_c, 0, 81, 112
1, 51732, Note_on_c, 0, 86, 96
1, 51751, Note_off_c, 0, 86, 96
1, 51754, Note_on_c, 0, 84, 103
1, 51791, Note_on_c, 0, 83, 105
1, 51791, Note_off_c, 0, 84, 103
1, 51830, Note_off_c, 0, 83, 105
1, 51841, Note_on_c, 0, 81, 108
1, 51899, Note_off_c, 0, 81, 108
1, 51899, Note_on_c, 0, 79, 106
1, 51924, Note_off_c, 0, 79, 106
1, 51924, Note_on_c, 0, 78, 108
1, 51964, Note_off_c, 0, 78, 108
1, 51964, Note_on_c, 0, 79, 112
1, 51985, Note_off_c, 0, 79, 112
1, 51985, Note_on_c, 0, 80, 113
1, 52043, Note_off_c, 0, 80, 113
1, 52050, Note_on_c, 0, 78, 110
1, 52091, Note_off_c, 0, 78, 110
1, 52095, Note_on_c, 0, 76, 114
1, 52137, Note_off_c, 0, 76, 114
1, 52138, Note_on_c, 0, 74, 109
1, 52169, Note_off_c, 0, 74, 109
1, 52170, Note_on_c, 0, 72, 114
1, 52210, Note_off_c, 0, 72, 114
1, 52213, Note_on_c, 0, 70, 101
1, 52230, Note_off_c, 0, 70, 101
1, 52230, Note_on_c, 0, 69, 102
1, 52267, Note_off_c, 0, 69, 102
1, 52276, Note_on_c, 0, 65, 118
1, 52318, Note_off_c, 0, 65, 118
1, 52320, Note_on_c, 0, 64, 115
1, 52352, Note_off_c, 0, 64, 115
1, 52353, Note_on_c, 0, 62, 115
1, 52394, Note_off_c, 0, 62, 115
1, 52394, Note_on_c, 0, 60, 112
1, 52424, Note_off_c, 0, 60, 112
1, 52425, Note_on_c, 0, 57, 112
1, 52474, Note_off_c, 0, 57, 112
1, 52479, Note_on_c, 0, 56, 113
1, 52638, Note_off_c, 0, 56, 113
1, 52926, Note_on_c, 0, 83, 104
1, 53050, Note_off_c, 0, 83, 104
1, 53050, Note_on_c, 0, 85, 102
1, 53129, Note_off_c, 0, 85, 102
1, 53132, Note_on_c, 0, 87, 105
1, 53244, Note_off_c, 0, 87, 105
1, 53282, Note_on_c, 0, 86, 91
1, 53323, Note_off_c, 0, 86, 91
1, 53328, Note_on_c, 0, 88, 100
1, 53380, Note_off_c, 0, 88, 100
1, 53380, Note_on_c, 0, 87, 103
1, 53426, Note_off_c, 0, 87, 103
1, 53441, Note_on_c, 0, 83, 88
1, 53482, Note_off_c, 0, 83, 88
1, 53484, Note_on_c, 0, 85, 98
1, 53516, Note_off_c, 0, 85, 98
1, 53537, Note_on_c, 0, 88, 92
1, 53602, Note_off_c, 0, 88, 92
1, 53615, Note_on_c, 0, 85, 95
1, 53664, Note_off_c, 0, 85, 95
1, 53677, Note_on_c, 0, 83, 105
1, 53776, Note_off_c, 0, 83, 105
1, 53776, Note_on_c, 0, 80, 108
1, 53871, Note_off_c, 0, 80, 108
1, 53881, Note_on_c, 0, 83, 106
1, 53978, Note_off_c, 0, 83, 106
1, 53982, Note_on_c, 0, 80, 113
1, 54087, Note_off_c, 0, 80, 113
1, 54090, Note_on_c, 0, 78, 111
1, 54163, Note_off_c, 0, 78, 111
1, 54163, Note_on_c, 0, 80, 112
1, 54250, Note_off_c, 0, 80, 112
1, 54250, Note_on_c, 0, 82, 106
1, 54359, Note_off_c, 0, 82, 106
1, 54367, Note_on_c, 0, 78, 113
1, 54432, Note_off_c, 0, 78, 113
1, 54433, Note_on_c, 0, 76, 112
1, 54530, Note_on_c, 0, 80, 111
1, 54530, Note_off_c, 0, 76, 112
1, 54628, Note_off_c, 0, 80, 111
1, 54628, Note_on_c, 0, 78, 110
1, 54706, Note_off_c, 0, 78, 110
1, 54715, Note_on_c, 0, 73, 112
1, 54805, Note_off_c, 0, 73, 112
1, 54806, Note_on_c, 0, 74, 114
1, 54896, Note_off_c, 0, 74, 114
1, 54903, Note_on_c, 0, 78, 110
1, 54996, Note_off_c, 0, 78, 110
1, 55000, Note_on_c, 0, 76, 110
1, 55089, Note_off_c, 0, 76, 110
1, 55091, Note_on_c, 0, 73, 116
1, 55174, Note_off_c, 0, 73, 116
1, 55176, Note_on_c, 0, 70, 102
1, 55285, Note_off_c, 0, 70, 102
1, 55339, Note_on_c, 0, 68, 106
1, 55462, Note_off_c, 0, 68, 106
1, 55464, Note_on_c, 0, 73, 114
1, 55569, Note_off_c, 0, 73, 114
1, 55576, Note_on_c, 0, 67, 103
1, 55712, Note_off_c, 0, 67, 103
1, 55745, Note_on_c, 0, 72, 117
1, 55854, Note_off_c, 0, 72, 117
1, 55865, Note_on_c, 0, 73, 117
1, 55944, Note_off_c, 0, 73, 117
1, 55944, Note_on_c, 0, 70, 99
1, 56034, Note_off_c, 0, 70, 99
1, 56069, Note_on_c, 0, 66, 108
1, 56170, Note_off_c, 0, 66, 108
1, 56172, Note_on_c, 0, 65, 108
1, 56243, Note_off_c, 0, 65, 108
1, 56259, Note_on_c, 0, 64, 110
1, 56357, Note_off_c, 0, 64, 110
1, 56357, Note_on_c, 0, 63, 105
1, 56439, Note_off_c, 0, 63, 105
1, 56439, Note_on_c, 0, 67, 110
1, 56521, Note_off_c, 0, 67, 110
1, 56529, Note_on_c, 0, 62, 102
1, 56605, Note_off_c, 0, 62, 102
1, 56659, Note_on_c, 0, 63, 107
1, 56705, Note_off_c, 0, 63, 107
1, 56894, Note_on_c, 0, 74, 112
1, 57014, Note_off_c, 0, 74, 112
1, 57030, Note_on_c, 0, 75, 117
1, 57217, Note_off_c, 0, 75, 117
1, 57592, Note_on_c, 0, 68, 108
1, 57646, Note_off_c, 0, 68, 108
1, 57646, Note_on_c, 0, 69, 104
1, 57739, Note_off_c, 0, 69, 104
1, 57741, Note_on_c, 0, 72, 119
1, 57839, Note_off_c, 0, 72, 119
1, 57841, Note_on_c, 0, 74, 110
1, 57876, Note_off_c, 0, 74, 110
1, 57878, Note_on_c, 0, 76, 106
1, 57952, Note_off_c, 0, 76, 106
1, 57960, Note_on_c, 0, 79, 108
1, 58041, Note_off_c, 0, 79, 108
1, 58050, Note_on_c, 0, 83, 111
1, 58182, Note_off_c, 0, 83, 111
1, 58188, Note_on_c, 0, 80, 111
1, 58445, Note_off_c, 0, 80, 111
1, 58912, Note_on_c, 0, 57, 111
1, 59000, Note_off_c, 0, 57, 111
1, 59000, Note_on_c, 0, 58, 107
1, 59032, Note_off_c, 0, 58, 107
1, 59040, Note_on_c, 0, 60, 107
1, 59078, Note_off_c, 0, 60, 107
1, 59080, Note_on_c, 0, 61, 109
1, 59104, Note_off_c, 0, 61, 109
1, 59112, Note_on_c, 0, 65, 117
1, 59153, Note_off_c, 0, 65, 117
1, 59161, Note_on_c, 0, 64, 113
1, 59201, Note_on_c, 0, 61, 114
1, 59201, Note_off_c, 0, 64, 113
1, 59298, Note_off_c, 0, 61, 114
1, 59309, Note_on_c, 0, 63, 115
1, 59390, Note_off_c, 0, 63, 115
1, 59393, Note_on_c, 0, 65, 114
1, 59490, Note_off_c, 0, 65, 114
1, 59578, Note_on_c, 0, 70, 101
1, 59656, Note_off_c, 0, 70, 101
1, 59656, Note_on_c, 0, 73, 116
1, 59745, Note_off_c, 0, 73, 116
1, 59747, Note_on_c, 0, 75, 108
1, 59871, Note_off_c, 0, 75, 108
1, 59876, Note_on_c, 0, 77, 111
1, 59963, Note_off_c, 0, 77, 111
1, 59968, Note_on_c, 0, 78, 109
1, 60042, Note_off_c, 0, 78, 109
1, 60042, Note_on_c, 0, 80, 115
1, 60135, Note_off_c, 0, 80, 115
1, 60140, Note_on_c, 0, 82, 101
1, 60244, Note_off_c, 0, 82, 101
1, 60252, Note_on_c, 0, 78, 110
1, 60372, Note_off_c, 0, 78, 110
1, 60372, Note_on_c, 0, 77, 112
1, 60435, Note_off_c, 0, 77, 112
1, 60440, Note_on_c, 0, 75, 98
1, 60509, Note_off_c, 0, 75, 98
1, 60511, Note_on_c, 0, 76, 111
1, 60790, Note_off_c, 0, 76, 111
1, 60806, Note_on_c, 0, 75, 107
1, 60876, Note_off_c, 0, 75, 107
1, 60879, Note_on_c, 0, 76, 113
1, 61003, Note_off_c, 0, 76, 113
1, 61007, Note_on_c, 0, 75, 105
1, 61072, Note_off_c, 0, 75, 105
1, 61091, Note_on_c, 0, 76, 113
1, 61239, Note_off_c, 0, 76, 113
1, 61254, Note_on_c, 0, 75, 111
1, 61366, Note_off_c, 0, 75, 111
1, 61366, Note_on_c, 0, 73, 117
1, 61568, Note_off_c, 0, 73, 117
1, 61916, Note_on_c, 0, 73, 122
1, 61990, Note_off_c, 0, 73, 122
1, 62000, Note_on_c, 0, 74, 111
1, 62049, Note_off_c, 0, 74, 111
1, 62053, Note_on_c, 0, 76, 118
1, 62085, Note_off_c, 0, 76, 118
1, 62086, Note_on_c, 0, 78, 107
1, 62117, Note_off_c, 0, 78, 107
1, 62123, Note_on_c, 0, 79, 106
1, 62195, Note_off_c, 0, 79, 106
1, 62199, Note_on_c, 0, 76, 116
1, 62315, Note_off_c, 0, 76, 116
1, 62317, Note_on_c, 0, 77, 111
1, 62383, Note_off_c, 0, 77, 111
1, 62384, Note_on_c, 0, 78, 110
1, 62487, Note_on_c, 0, 80, 111
1, 62487, Note_off_c, 0, 78, 110
1, 62565, Note_off_c, 0, 80, 111
1, 62569, Note_on_c, 0, 82, 107
1, 62673, Note_off_c, 0, 82, 107
1, 62678, Note_on_c, 0, 83, 87
1, 62713, Note_on_c, 0, 85, 98
1, 62713, Note_off_c, 0, 83, 87
1, 62825, Note_off_c, 0, 85, 98
1, 62830, Note_on_c, 0, 86, 95
1, 62865, Note_off_c, 0, 86, 95
1, 62873, Note_on_c, 0, 82, 107
1, 62970, Note_off_c, 0, 82, 107
1, 62973, Note_on_c, 0, 79, 110
1, 63118, Note_off_c, 0, 79, 110
1, 63150, Note_on_c, 0, 81, 110
1, 63259, Note_off_c, 0, 81, 110
1, 63289, Note_on_c, 0, 86, 98
1, 63349, Note_off_c, 0, 86, 98
1, 63365, Note_on_c, 0, 83, 106
1, 63450, Note_off_c, 0, 83, 106
1, 63463, Note_on_c, 0, 80, 107
1, 63539, Note_off_c, 0, 80, 107
1, 63539, Note_on_c, 0, 76, 106
1, 63684, Note_off_c, 0, 76, 106
1, 63735, Note_on_c, 0, 80, 112
1, 63844, Note_off_c, 0, 80, 112
1, 63844, Note_on_c, 0, 77, 109
1, 63928, Note_off_c, 0, 77, 109
1, 63932, Note_on_c, 0, 72, 117
1, 64057, Note_off_c, 0, 72, 117
1, 64122, Note_on_c, 0, 72, 120
1, 64322, Note_off_c, 0, 72, 120
1, 64322, Note_on_c, 0, 73, 115
1, 64497, Note_off_c, 0, 73, 115
1, 64502, Note_on_c, 0, 74, 114
1, 64625, Note_off_c, 0, 74, 114
1, 65006, Note_on_c, 0, 77, 120
1, 65080, Note_on_c, 0, 76, 122
1, 65080, Note_off_c, 0, 77, 120
1, 65203, Note_off_c, 0, 76, 122
1, 65207, Note_on_c, 0, 72, 110
1, 65286, Note_off_c, 0, 72, 110
1, 65288, Note_on_c, 0, 79, 108
1, 65412, Note_off_c, 0, 79, 108
1, 65421, Note_on_c, 0, 76, 106
1, 65475, Note_off_c, 0, 76, 106
1, 65477, Note_on_c, 0, 77, 110
1, 65570, Note_off_c, 0, 77, 110
1, 65578, Note_on_c, 0, 79, 109
1, 65663, Note_off_c, 0, 79, 109
1, 65668, Note_on_c, 0, 80, 110
1, 65753, Note_off_c, 0, 80, 110
1, 65757, Note_on_c, 0, 82, 108
1, 65832, Note_off_c, 0, 82, 108
1, 65835, Note_on_c, 0, 83, 104
1, 65929, Note_off_c, 0, 83, 104
1, 65931, Note_on_c, 0, 84, 104
1, 66048, Note_off_c, 0, 84, 104
1, 66051, Note_on_c, 0, 85, 96
1, 66101, Note_off_c, 0, 85, 96
1, 66104, Note_on_c, 0, 86, 99
1, 66191, Note_off_c, 0, 86, 99
1, 66192, Note_on_c, 0, 83, 101
1, 66351, Note_off_c, 0, 83, 101
1, 66381, Note_on_c, 0, 79, 111
1, 66408, Note_off_c, 0, 79, 111
1, 66408, Note_on_c, 0, 80, 109
1, 66509, Note_off_c, 0, 80, 109
1, 66576, Note_on_c, 0, 84, 104
1, 66720, Note_off_c, 0, 84, 104
1, 66733, Note_on_c, 0, 82, 106
1, 66889, Note_off_c, 0, 82, 106
1, 66902, Note_on_c, 0, 78, 113
1, 66983, Note_off_c, 0, 78, 113
1, 66990, Note_on_c, 0, 76, 109
1, 67099, Note_off_c, 0, 76, 109
1, 67100, Note_on_c, 0, 72, 102
1, 67163, Note_off_c, 0, 72, 102
1, 67172, Note_on_c, 0, 78, 110
1, 67287, Note_off_c, 0, 78, 110
1, 67290, Note_on_c, 0, 76, 110
1, 67358, Note_off_c, 0, 76, 110
1, 67369, Note_on_c, 0, 72, 116
1, 67451, Note_off_c, 0, 72, 116
1, 67470, Note_on_c, 0, 70, 102
1, 67557, Note_off_c, 0, 70, 102
1, 67557, Note_on_c, 0, 66, 110
1, 67647, Note_off_c, 0, 66, 110
1, 67655, Note_on_c, 0, 64, 110
1, 67767, Note_off_c, 0, 64, 110
1, 67781, Note_on_c, 0, 60, 113
1, 67874, Note_off_c, 0, 60, 113
1, 67882, Note_on_c, 0, 59, 112
1, 67942, Note_off_c, 0, 59, 112
1, 67942, Note_on_c, 0, 58, 108
1, 68197, Note_off_c, 0, 58, 108
1, 68591, Note_on_c, 0, 65, 112
1, 68681, Note_off_c, 0, 65, 112
1, 68687, Note_on_c, 0, 66, 109
1, 68811, Note_off_c, 0, 66, 109
1, 68811, Note_on_c, 0, 65, 108
1, 68876, Note_off_c, 0, 65, 108
1, 68889, Note_on_c, 0, 63, 109
1, 69006, Note_off_c, 0, 63, 109
1, 69028, Note_on_c, 0, 60, 100
1, 69091, Note_off_c, 0, 60, 100
1, 69115, Note_on_c, 0, 66, 109
1, 69307, Note_off_c, 0, 66, 109
1, 69569, Note_on_c, 0, 56, 109
1, 69636, Note_off_c, 0, 56, 109
1, 69669, Note_on_c, 0, 62, 101
1, 69749, Note_off_c, 0, 62, 101
1, 69754, Note_on_c, 0, 66, 110
1, 69839, Note_off_c, 0, 66, 110
1, 69851, Note_on_c, 0, 65, 110
1, 69930, Note_off_c, 0, 65, 110
1, 69961, Note_on_c, 0, 57, 99
1, 70016, Note_off_c, 0, 57, 99
1, 70019, Note_on_c, 0, 62, 108
1, 70128, Note_off_c, 0, 62, 108
1, 70216, Note_on_c, 0, 64, 111
1, 70543, Note_off_c, 0, 64, 111
1, 70762, Note_on_c, 0, 57, 110
1, 70834, Note_off_c, 0, 57, 110
1, 70842, Note_on_c, 0, 60, 101
1, 70874, Note_off_c, 0, 60, 101
1, 70876, Note_on_c, 0, 61, 107
1, 70917, Note_off_c, 0, 61, 107
1, 70917, Note_on_c, 0, 62, 114
1, 70938, Note_off_c, 0, 62, 114
1, 70943, Note_on_c, 0, 63, 103
1, 70964, Note_off_c, 0, 63, 103
1, 70969, Note_on_c, 0, 65, 106
1, 70986, Note_off_c, 0, 65, 106
1, 70987, Note_on_c, 0, 66, 106
1, 71041, Note_off_c, 0, 66, 106
1, 71047, Note_on_c, 0, 65, 105
1, 71092, Note_off_c, 0, 65, 105
1, 71097, Note_on_c, 0, 63, 106
1, 71160, Note_off_c, 0, 63, 106
1, 71190, Note_on_c, 0, 59, 109
1, 71242, Note_off_c, 0, 59, 109
1, 71252, Note_on_c, 0, 63, 100
1, 71284, Note_off_c, 0, 63, 100
1, 71289, Note_on_c, 0, 66, 98
1, 71310, Note_off_c, 0, 66, 98
1, 71315, Note_on_c, 0, 70, 103
1, 71361, Note_off_c, 0, 70, 103
1, 71366, Note_on_c, 0, 66, 99
1, 71401, Note_off_c, 0, 66, 99
1, 71403, Note_on_c, 0, 65, 100
1, 71438, Note_off_c, 0, 65, 100
1, 71440, Note_on_c, 0, 68, 108
1, 71489, Note_off_c, 0, 68, 108
1, 71499, Note_on_c, 0, 75, 109
1, 71534, Note_off_c, 0, 75, 109
1, 71536, Note_on_c, 0, 74, 95
1, 71577, Note_off_c, 0, 74, 95
1, 71602, Note_on_c, 0, 67, 103
1, 71641, Note_off_c, 0, 67, 103
1, 71644, Note_on_c, 0, 68, 108
1, 71672, Note_off_c, 0, 68, 108
1, 71677, Note_on_c, 0, 70, 96
1, 71708, Note_off_c, 0, 70, 96
1, 71714, Note_on_c, 0, 73, 111
1, 71763, Note_off_c, 0, 73, 111
1, 71778, Note_on_c, 0, 75, 104
1, 71824, Note_off_c, 0, 75, 104
1, 71826, Note_on_c, 0, 77, 94
1, 71858, Note_off_c, 0, 77, 94
1, 71873, Note_on_c, 0, 82, 103
1, 71909, Note_off_c, 0, 82, 103
1, 71917, Note_on_c, 0, 80, 112
1, 72080, Note_off_c, 0, 80, 112
1, 72549, Note_on_c, 0, 58, 108
1, 72598, Note_off_c, 0, 58, 108
1, 72614, Note_on_c, 0, 62, 105
1, 72670, Note_off_c, 0, 62, 105
1, 72676, Note_on_c, 0, 66, 105
1, 72728, Note_off_c, 0, 66, 105
1, 72731, Note_on_c, 0, 65, 111
1, 72798, Note_off_c, 0, 65, 111
1, 72798, Note_on_c, 0, 66, 108
1, 72858, Note_off_c, 0, 66, 108
1, 72860, Note_on_c, 0, 65, 105
1, 72925, Note_off_c, 0, 65, 105
1, 72953, Note_on_c, 0, 58, 86
1, 72970, Note_off_c, 0, 58, 86
1, 72971, Note_on_c, 0, 59, 97
1, 72994, Note_off_c, 0, 59, 97
1, 72996, Note_on_c, 0, 63, 110
1, 73144, Note_off_c, 0, 63, 110
1, 73147, Note_on_c, 0, 64, 112
1, 73357, Note_off_c, 0, 64, 112
1, 73715, Note_on_c, 0, 57, 106
1, 73793, Note_off_c, 0, 57, 106
1, 73799, Note_on_c, 0, 58, 101
1, 73829, Note_off_c, 0, 58, 101
1, 73850, Note_on_c, 0, 64, 106
1, 73904, Note_off_c, 0, 64, 106
1, 73909, Note_on_c, 0, 66, 107
1, 74080, Note_off_c, 0, 66, 107
1, 74084, Note_on_c, 0, 67, 112
1, 74284, Note_off_c, 0, 67, 112
1, 74285, Note_on_c, 0, 66, 105
1, 74460, Note_off_c, 0, 66, 105
1, 74657, Note_on_c, 0, 64, 108
1, 74832, Note_off_c, 0, 64, 108
1, 74835, Note_on_c, 0, 65, 107
1, 75037, Note_off_c, 0, 65, 107
1, 75038, Note_on_c, 0, 63, 109
1, 75242, Note_off_c, 0, 63, 109
1, 75522, Note_on_c, 0, 57, 109
1, 75611, Note_off_c, 0, 57, 109
1, 75625, Note_on_c, 0, 63, 93
1, 75679, Note_off_c, 0, 63, 93
1, 75687, Note_on_c, 0, 66, 96
1, 75769, Note_off_c, 0, 66, 96
1, 75771, Note_on_c, 0, 67, 111
1, 75903, Note_off_c, 0, 67, 111
1, 75910, Note_on_c, 0, 66, 100
1, 75986, Note_off_c, 0, 66, 100
1, 75988, Note_on_c, 0, 71, 104
1, 76100, Note_off_c, 0, 71, 104
1, 76105, Note_on_c, 0, 68, 112
1, 76373, Note_off_c, 0, 68, 112
1, 76438, Note_on_c, 0, 66, 109
1, 76504, Note_off_c, 0, 66, 109
1, 76510, Note_on_c, 0, 62, 109
1, 76619, Note_off_c, 0, 62, 109
1, 76620, Note_on_c, 0, 56, 113
1, 76865, Note_off_c, 0, 56, 113
1, 76880, Note_on_c, 0, 58, 108
1, 77149, Note_off_c, 0, 58, 108
1, 77149, End_track
0, 0, End_of_file
