0, 0, Header, 1, 1, 20160
1, 0, Start_track
1, 0, Title_t, "Melody"
1, 0, Tempo, 1000000
1, 0, Key_signature, -5, "major"
1, 0, Time_signature, 4, 2, 24, 8
1, 267675, Note_on_c, 0, 51, 95
1, 274587, Note_off_c, 0, 51, 95
1, 275133, Note_on_c, 0, 51, 105
1, 279580, Note_off_c, 0, 51, 105
1, 279580, Note_on_c, 0, 53, 104
1, 282856, Note_off_c, 0, 53, 104
1, 283208, Note_on_c, 0, 51, 101
1, 286016, Note_off_c, 0, 51, 101
1, 286016, Note_on_c, 0, 53, 100
1, 290346, Note_off_c, 0, 53, 100
1, 290346, Note_on_c, 0, 51, 94
1, 292569, Note_off_c, 0, 51, 94
1, 293738, Note_on_c, 0, 53, 104
1, 299589, Note_off_c, 0, 53, 104
1, 301579, Note_on_c, 0, 53, 102
1, 307168, Note_off_c, 0, 53, 102
1, 307168, Note_on_c, 0, 51, 97
1, 308813, Note_off_c, 0, 51, 97
1, 309184, Note_on_c, 0, 53, 100
1, 315854, Note_off_c, 0, 53, 100
1, 316087, Note_on_c, 0, 46, 104
1, 331417, Note_off_c, 0, 46, 104
1, 332587, Note_on_c, 0, 50, 102
1, 335863, Note_off_c, 0, 50, 102
1, 336213, Note_on_c, 0, 51, 97
1, 339372, Note_off_c, 0, 51, 97
1, 340308, Note_on_c, 0, 58, 89
1, 363128, Note_off_c, 0, 58, 89
1, 363938, Note_on_c, 0, 56, 105
1, 366242, Note_off_c, 0, 56, 105
1, 366404, Note_on_c, 0, 53, 98
1, 367574, Note_off_c, 0, 53, 98
1, 367691, Note_on_c, 0, 50, 101
1, 371084, Note_off_c, 0, 50, 101
1, 371084, Note_on_c, 0, 51, 100
1, 373073, Note_off_c, 0, 51, 100
1, 374361, Note_on_c, 0, 56, 108
1, 376700, Note_off_c, 0, 56, 108
1, 376700, Note_on_c, 0, 52, 102
1, 381381, Note_off_c, 0, 52, 102
1, 382083, Note_on_c, 0, 54, 96
1, 384891, Note_off_c, 0, 54, 96
1, 384891, Note_on_c, 0, 58, 92
1, 387231, Note_off_c, 0, 58, 92
1, 387932, Note_on_c, 0, 60, 98
1, 390272, Note_off_c, 0, 60, 98
1, 390272, Note_on_c, 0, 62, 97
1, 391676, Note_off_c, 0, 62, 97
1, 391676, Note_on_c, 0, 64, 103
1, 393899, Note_off_c, 0, 64, 103
1, 393899, Note_on_c, 0, 66, 100
1, 403144, Note_off_c, 0, 66, 100
1, 403144, Note_on_c, 0, 64, 102
1, 405952, Note_off_c, 0, 64, 102
1, 405952, Note_on_c, 0, 60, 83
1, 408643, Note_off_c, 0, 60, 83
1, 408877, Note_on_c, 0, 58, 97
1, 412621, Note_off_c, 0, 58, 97
1, 414377, Note_on_c, 0, 63, 101
1, 418355, Note_off_c, 0, 63, 101
1, 418355, Note_on_c, 0, 60, 81
1, 437781, Note_off_c, 0, 60, 81
1, 439068, Note_on_c, 0, 56, 102
1, 442578, Note_off_c, 0, 56, 102
1, 442812, Note_on_c, 0, 53, 92
1, 445737, Note_off_c, 0, 53, 92
1, 445854, Note_on_c, 0, 56, 92
1, 456854, Note_off_c, 0, 56, 92
1, 477919, Note_on_c, 0, 55, 102
1, 480961, Note_off_c, 0, 55, 102
1, 480961, Note_on_c, 0, 56, 97
1, 484588, Note_off_c, 0, 56, 97
1, 485173, Note_on_c, 0, 58, 100
1, 486810, Note_off_c, 0, 58, 100
1, 486810, Note_on_c, 0, 55, 103
1, 489267, Note_off_c, 0, 55, 103
1, 489969, Note_on_c, 0, 56, 104
1, 492894, Note_off_c, 0, 56, 104
1, 492894, Note_on_c, 0, 58, 94
1, 496053, Note_off_c, 0, 58, 94
1, 496170, Note_on_c, 0, 60, 103
1, 500031, Note_off_c, 0, 60, 103
1, 500264, Note_on_c, 0, 61, 98
1, 502605, Note_off_c, 0, 61, 98
1, 502605, Note_on_c, 0, 63, 104
1, 504945, Note_off_c, 0, 63, 104
1, 505882, Note_on_c, 0, 65, 101
1, 509392, Note_off_c, 0, 65, 101
1, 509858, Note_on_c, 0, 60, 91
1, 520156, Note_off_c, 0, 60, 91
1, 520422, Note_on_c, 0, 58, 96
1, 522150, Note_off_c, 0, 58, 96
1, 522380, Note_on_c, 0, 63, 97
1, 526241, Note_off_c, 0, 63, 97
1, 526357, Note_on_c, 0, 64, 109
1, 529400, Note_off_c, 0, 64, 109
1, 529400, Note_on_c, 0, 67, 99
1, 532208, Note_off_c, 0, 67, 99
1, 532442, Note_on_c, 0, 71, 93
1, 535835, Note_off_c, 0, 71, 93
1, 536186, Note_on_c, 0, 66, 100
1, 539813, Note_off_c, 0, 66, 100
1, 540983, Note_on_c, 0, 61, 95
1, 544727, Note_off_c, 0, 61, 95
1, 544727, Note_on_c, 0, 64, 107
1, 551163, Note_off_c, 0, 64, 107
1, 551273, Note_on_c, 0, 62, 95
1, 552425, Note_off_c, 0, 62, 95
1, 553659, Note_on_c, 0, 59, 98
1, 555963, Note_off_c, 0, 59, 98
1, 556078, Note_on_c, 0, 54, 98
1, 558886, Note_off_c, 0, 54, 98
1, 559088, Note_on_c, 0, 57, 90
1, 563942, Note_off_c, 0, 57, 90
1, 563992, Note_on_c, 0, 61, 96
1, 567736, Note_off_c, 0, 61, 96
1, 568830, Note_on_c, 0, 57, 98
1, 571872, Note_off_c, 0, 57, 98
1, 572925, Note_on_c, 0, 54, 100
1, 575265, Note_off_c, 0, 54, 100
1, 575265, Note_on_c, 0, 49, 95
1, 577722, Note_off_c, 0, 49, 95
1, 579317, Note_on_c, 0, 59, 98
1, 582636, Note_off_c, 0, 59, 98
1, 582636, Note_on_c, 0, 57, 93
1, 585093, Note_off_c, 0, 57, 93
1, 586497, Note_on_c, 0, 58, 85
1, 600657, Note_off_c, 0, 58, 85
1, 601902, Note_on_c, 0, 61, 98
1, 606466, Note_off_c, 0, 61, 98
1, 606466, Note_on_c, 0, 58, 94
1, 611539, Note_off_c, 0, 58, 94
1, 611539, Note_on_c, 0, 61, 88
1, 624646, Note_off_c, 0, 61, 88
1, 639274, Note_on_c, 0, 58, 107
1, 641965, Note_off_c, 0, 58, 107
1, 641965, Note_on_c, 0, 54, 107
1, 644773, Note_off_c, 0, 54, 107
1, 646762, Note_on_c, 0, 53, 106
1, 650623, Note_off_c, 0, 53, 106
1, 650698, Note_on_c, 0, 54, 104
1, 654325, Note_off_c, 0, 54, 104
1, 654483, Note_on_c, 0, 51, 105
1, 666302, Note_off_c, 0, 51, 105
1, 666653, Note_on_c, 0, 53, 101
1, 668408, Note_off_c, 0, 53, 101
1, 669067, Note_on_c, 0, 54, 105
1, 671290, Note_off_c, 0, 54, 105
1, 671450, Note_on_c, 0, 57, 96
1, 673907, Note_off_c, 0, 57, 96
1, 673907, Note_on_c, 0, 61, 102
1, 676013, Note_off_c, 0, 61, 102
1, 676204, Note_on_c, 0, 63, 104
1, 678353, Note_off_c, 0, 63, 104
1, 678353, Note_on_c, 0, 65, 110
1, 680693, Note_off_c, 0, 65, 110
1, 680693, Note_on_c, 0, 64, 110
1, 683033, Note_off_c, 0, 64, 110
1, 683267, Note_on_c, 0, 63, 107
1, 685490, Note_off_c, 0, 63, 107
1, 685724, Note_on_c, 0, 65, 107
1, 688064, Note_off_c, 0, 65, 107
1, 688373, Note_on_c, 0, 66, 106
1, 690830, Note_off_c, 0, 66, 106
1, 690830, Note_on_c, 0, 67, 102
1, 693287, Note_off_c, 0, 67, 102
1, 693521, Note_on_c, 0, 69, 104
1, 694498, Note_off_c, 0, 69, 104
1, 694498, Note_on_c, 0, 71, 102
1, 702572, Note_off_c, 0, 71, 102
1, 702806, Note_on_c, 0, 69, 94
1, 703816, Note_off_c, 0, 69, 94
1, 703816, Note_on_c, 0, 67, 100
1, 706507, Note_off_c, 0, 67, 100
1, 706507, Note_on_c, 0, 66, 103
1, 713645, Note_off_c, 0, 66, 103
1, 713805, Note_on_c, 0, 66, 100
1, 717549, Note_off_c, 0, 66, 100
1, 717666, Note_on_c, 0, 64, 100
1, 718953, Note_off_c, 0, 64, 100
1, 719188, Note_on_c, 0, 62, 94
1, 720473, Note_off_c, 0, 62, 94
1, 720473, Note_on_c, 0, 61, 84
1, 721526, Note_off_c, 0, 61, 84
1, 721760, Note_on_c, 0, 59, 95
1, 725973, Note_off_c, 0, 59, 95
1, 726090, Note_on_c, 0, 57, 98
1, 728079, Note_off_c, 0, 57, 98
1, 728196, Note_on_c, 0, 55, 102
1, 729834, Note_off_c, 0, 55, 102
1, 729951, Note_on_c, 0, 54, 99
1, 735802, Note_off_c, 0, 54, 99
1, 750271, Note_on_c, 0, 70, 116
1, 755462, Note_off_c, 0, 70, 116
1, 755462, Note_on_c, 0, 68, 107
1, 758153, Note_off_c, 0, 68, 107
1, 758344, Note_on_c, 0, 66, 107
1, 760333, Note_off_c, 0, 66, 107
1, 760333, Note_on_c, 0, 65, 107
1, 766301, Note_off_c, 0, 65, 107
1, 766301, Note_on_c, 0, 65, 108
1, 768875, Note_off_c, 0, 65, 108
1, 768875, Note_on_c, 0, 64, 106
1, 770864, Note_off_c, 0, 64, 106
1, 771332, Note_on_c, 0, 63, 105
1, 775428, Note_off_c, 0, 63, 105
1, 776055, Note_on_c, 0, 63, 105
1, 778629, Note_off_c, 0, 63, 105
1, 778629, Note_on_c, 0, 61, 97
1, 781554, Note_off_c, 0, 61, 97
1, 781788, Note_on_c, 0, 60, 91
1, 788224, Note_off_c, 0, 60, 91
1, 788692, Note_on_c, 0, 60, 91
1, 791968, Note_off_c, 0, 60, 91
1, 791968, Note_on_c, 0, 58, 99
1, 794308, Note_off_c, 0, 58, 99
1, 794542, Note_on_c, 0, 56, 102
1, 800042, Note_off_c, 0, 56, 102
1, 800042, Note_on_c, 0, 56, 104
1, 803552, Note_off_c, 0, 56, 104
1, 804020, Note_on_c, 0, 53, 95
1, 807413, Note_off_c, 0, 53, 95
1, 807647, Note_on_c, 0, 51, 97
1, 812328, Note_off_c, 0, 51, 97
1, 812445, Note_on_c, 0, 56, 99
1, 817828, Note_off_c, 0, 56, 99
1, 817828, Note_on_c, 0, 51, 97
1, 829296, Note_off_c, 0, 51, 97
1, 829296, Note_on_c, 0, 53, 94
1, 842286, Note_off_c, 0, 53, 94
1, 856446, Note_on_c, 0, 53, 96
1, 859488, Note_off_c, 0, 53, 96
1, 859488, Note_on_c, 0, 54, 106
1, 862296, Note_off_c, 0, 54, 106
1, 862839, Note_on_c, 0, 56, 111
1, 865338, Note_off_c, 0, 56, 111
1, 865338, Note_on_c, 0, 54, 107
1, 866859, Note_off_c, 0, 54, 107
1, 866976, Note_on_c, 0, 53, 103
1, 869901, Note_off_c, 0, 53, 103
1, 870135, Note_on_c, 0, 51, 101
1, 872709, Note_off_c, 0, 51, 101
1, 873604, Note_on_c, 0, 50, 105
1, 876102, Note_off_c, 0, 50, 105
1, 876102, Note_on_c, 0, 54, 105
1, 878793, Note_off_c, 0, 54, 105
1, 878793, Note_on_c, 0, 50, 101
1, 882889, Note_off_c, 0, 50, 101
1, 883123, Note_on_c, 0, 47, 104
1, 890027, Note_off_c, 0, 47, 104
1, 890144, Note_on_c, 0, 50, 100
1, 893420, Note_off_c, 0, 50, 100
1, 893537, Note_on_c, 0, 47, 99
1, 899271, Note_off_c, 0, 47, 99
1, 899271, Note_on_c, 0, 46, 94
1, 914133, Note_off_c, 0, 46, 94
1, 928644, Note_on_c, 0, 53, 107
1, 931803, Note_off_c, 0, 53, 107
1, 931803, Note_on_c, 0, 51, 97
1, 935196, Note_off_c, 0, 51, 97
1, 935196, Note_on_c, 0, 54, 114
1, 939409, Note_off_c, 0, 54, 114
1, 939760, Note_on_c, 0, 58, 104
1, 944207, Note_off_c, 0, 58, 104
1, 946547, Note_on_c, 0, 65, 113
1, 951111, Note_off_c, 0, 65, 113
1, 952866, Note_on_c, 0, 65, 108
1, 956376, Note_off_c, 0, 65, 108
1, 958131, Note_on_c, 0, 63, 111
1, 962929, Note_off_c, 0, 63, 111
1, 966205, Note_on_c, 0, 63, 104
1, 970418, Note_off_c, 0, 63, 104
1, 972290, Note_on_c, 0, 58, 98
1, 979428, Note_off_c, 0, 58, 98
1, 981300, Note_on_c, 0, 58, 95
1, 993939, Note_off_c, 0, 58, 95
1, 994290, Note_on_c, 0, 57, 100
1, 997332, Note_off_c, 0, 57, 100
1, 997917, Note_on_c, 0, 58, 99
1, 1000959, Note_off_c, 0, 58, 99
1, 1004076, Note_on_c, 0, 70, 103
1, 1008054, Note_off_c, 0, 70, 103
1, 1009576, Note_on_c, 0, 65, 105
1, 1013086, Note_off_c, 0, 65, 105
1, 1013361, Note_on_c, 0, 63, 105
1, 1015818, Note_off_c, 0, 63, 105
1, 1015818, Note_on_c, 0, 64, 103
1, 1025765, Note_off_c, 0, 64, 103
1, 1025882, Note_on_c, 0, 71, 83
1, 1042266, Note_off_c, 0, 71, 83
1, 1047766, Note_on_c, 0, 64, 103
1, 1051979, Note_off_c, 0, 64, 103
1, 1052330, Note_on_c, 0, 63, 95
1, 1057245, Note_off_c, 0, 63, 95
1, 1059150, Note_on_c, 0, 63, 89
1, 1066171, Note_off_c, 0, 63, 89
1, 1066371, Note_on_c, 0, 61, 94
1, 1071637, Note_off_c, 0, 61, 94
1, 1076318, Note_on_c, 0, 72, 79
1, 1099138, Note_off_c, 0, 72, 79
1, 1117394, Note_on_c, 0, 70, 108
1, 1120787, Note_off_c, 0, 70, 108
1, 1121255, Note_on_c, 0, 68, 106
1, 1124648, Note_off_c, 0, 68, 106
1, 1124648, Note_on_c, 0, 65, 105
1, 1127222, Note_off_c, 0, 65, 105
1, 1127839, Note_on_c, 0, 63, 109
1, 1130381, Note_off_c, 0, 63, 109
1, 1130381, Note_on_c, 0, 68, 97
1, 1133072, Note_off_c, 0, 68, 97
1, 1133072, Note_on_c, 0, 65, 100
1, 1135997, Note_off_c, 0, 65, 100
1, 1136816, Note_on_c, 0, 60, 101
1, 1141029, Note_off_c, 0, 60, 101
1, 1141880, Note_on_c, 0, 63, 106
1, 1145124, Note_off_c, 0, 63, 106
1, 1145124, Note_on_c, 0, 58, 101
1, 1148985, Note_off_c, 0, 58, 101
1, 1148985, Note_on_c, 0, 56, 101
1, 1152378, Note_off_c, 0, 56, 101
1, 1152528, Note_on_c, 0, 60, 105
1, 1155419, Note_off_c, 0, 60, 105
1, 1155419, Note_on_c, 0, 56, 105
1, 1158695, Note_off_c, 0, 56, 105
1, 1158695, Note_on_c, 0, 53, 100
1, 1162205, Note_off_c, 0, 53, 100
1, 1162907, Note_on_c, 0, 59, 104
1, 1165715, Note_off_c, 0, 59, 104
1, 1165715, Note_on_c, 0, 55, 104
1, 1168757, Note_off_c, 0, 55, 104
1, 1169576, Note_on_c, 0, 52, 102
1, 1172384, Note_off_c, 0, 52, 102
1, 1173588, Note_on_c, 0, 57, 105
1, 1176045, Note_off_c, 0, 57, 105
1, 1177711, Note_on_c, 0, 52, 103
1, 1179603, Note_off_c, 0, 52, 103
1, 1179754, Note_on_c, 0, 54, 103
1, 1180807, Note_off_c, 0, 54, 103
1, 1180807, Note_on_c, 0, 55, 111
1, 1183381, Note_off_c, 0, 55, 111
1, 1183966, Note_on_c, 0, 57, 96
1, 1186540, Note_off_c, 0, 57, 96
1, 1187827, Note_on_c, 0, 64, 106
1, 1190986, Note_off_c, 0, 64, 106
1, 1194964, Note_on_c, 0, 60, 94
1, 1197655, Note_off_c, 0, 60, 94
1, 1198240, Note_on_c, 0, 64, 101
1, 1201984, Note_off_c, 0, 64, 101
1, 1202686, Note_on_c, 0, 59, 99
1, 1206079, Note_off_c, 0, 59, 99
1, 1206664, Note_on_c, 0, 55, 9
1, 1211228, Note_off_c, 0, 55, 9
1, 1211612, Note_on_c, 0, 66, 102
1, 1216994, Note_off_c, 0, 66, 102
1, 1216994, Note_on_c, 0, 61, 103
1, 1220355, Note_off_c, 0, 61, 103
1, 1220355, Note_on_c, 0, 65, 98
1, 1229249, Note_off_c, 0, 65, 98
1, 1230452, Note_on_c, 0, 63, 96
1, 1234548, Note_off_c, 0, 63, 96
1, 1234548, Note_on_c, 0, 66, 92
1, 1246133, Note_off_c, 0, 66, 92
1, 1246133, Note_on_c, 0, 66, 92
1, 1250312, Note_off_c, 0, 66, 92
1, 1250312, Note_on_c, 0, 68, 92
1, 1254408, Note_off_c, 0, 68, 92
1, 1257365, Note_on_c, 0, 70, 92
1, 1263450, Note_off_c, 0, 70, 92
1, 1263450, Note_on_c, 0, 71, 94
1, 1264385, Note_off_c, 0, 71, 94
1, 1264385, Note_on_c, 0, 72, 84
1, 1269970, Note_off_c, 0, 72, 84
1, 1269970, Note_on_c, 0, 68, 90
1, 1278747, Note_off_c, 0, 68, 90
1, 1280417, Note_on_c, 0, 72, 91
1, 1282172, Note_off_c, 0, 72, 91
1, 1282172, Note_on_c, 0, 75, 83
1, 1289895, Note_off_c, 0, 75, 83
1, 1290096, Note_on_c, 0, 72, 80
1, 1310224, Note_off_c, 0, 72, 80
1, 1324033, Note_on_c, 0, 67, 97
1, 1326139, Note_off_c, 0, 67, 97
1, 1326289, Note_on_c, 0, 68, 101
1, 1328011, Note_off_c, 0, 68, 101
1, 1328011, Note_on_c, 0, 69, 101
1, 1330585, Note_off_c, 0, 69, 101
1, 1330819, Note_on_c, 0, 65, 96
1, 1332340, Note_off_c, 0, 65, 96
1, 1332574, Note_on_c, 0, 66, 106
1, 1333777, Note_off_c, 0, 66, 106
1, 1333777, Note_on_c, 0, 67, 101
1, 1336318, Note_off_c, 0, 67, 101
1, 1336318, Note_on_c, 0, 66, 99
1, 1340882, Note_off_c, 0, 66, 99
1, 1341616, Note_on_c, 0, 65, 94
1, 1347233, Note_off_c, 0, 65, 94
1, 1347233, Note_on_c, 0, 64, 105
1, 1349189, Note_off_c, 0, 64, 105
1, 1349189, Note_on_c, 0, 63, 103
1, 1351997, Note_off_c, 0, 63, 103
1, 1352231, Note_on_c, 0, 62, 91
1, 1354103, Note_off_c, 0, 62, 91
1, 1354454, Note_on_c, 0, 60, 96
1, 1356794, Note_off_c, 0, 60, 96
1, 1357262, Note_on_c, 0, 55, 90
1, 1359485, Note_off_c, 0, 55, 90
1, 1359485, Note_on_c, 0, 58, 100
1, 1362293, Note_off_c, 0, 58, 100
1, 1362293, Note_on_c, 0, 63, 99
1, 1364165, Note_off_c, 0, 63, 99
1, 1364867, Note_on_c, 0, 60, 95
1, 1367207, Note_off_c, 0, 60, 95
1, 1367909, Note_on_c, 0, 55, 84
1, 1370015, Note_off_c, 0, 55, 84
1, 1370015, Note_on_c, 0, 57, 90
1, 1378441, Note_off_c, 0, 57, 90
1, 1378792, Note_on_c, 0, 53, 94
1, 1381366, Note_off_c, 0, 53, 94
1, 1381717, Note_on_c, 0, 58, 92
1, 1395058, Note_off_c, 0, 58, 92
1, 1395877, Note_on_c, 0, 60, 105
1, 1398217, Note_off_c, 0, 60, 105
1, 1398601, Note_on_c, 0, 61, 102
1, 1404301, Note_off_c, 0, 61, 102
1, 1404301, Note_on_c, 0, 63, 108
1, 1407928, Note_off_c, 0, 63, 108
1, 1408663, Note_on_c, 0, 65, 104
1, 1412759, Note_off_c, 0, 65, 104
1, 1413310, Note_on_c, 0, 68, 100
1, 1422555, Note_off_c, 0, 68, 100
1, 1422555, Note_on_c, 0, 66, 105
1, 1427470, Note_off_c, 0, 66, 105
1, 1427821, Note_on_c, 0, 68, 99
1, 1432385, Note_off_c, 0, 68, 99
1, 1432502, Note_on_c, 0, 70, 95
1, 1438002, Note_off_c, 0, 70, 95
1, 1439055, Note_on_c, 0, 64, 100
1, 1440225, Note_off_c, 0, 64, 100
1, 1440491, Note_on_c, 0, 65, 97
1, 1453832, Note_off_c, 0, 65, 97
1, 1457720, Note_on_c, 0, 56, 86
1, 1460470, Note_off_c, 0, 56, 86
1, 1461230, Note_on_c, 0, 63, 104
1, 1465033, Note_off_c, 0, 63, 104
1, 1465033, Note_on_c, 0, 61, 87
1, 1486800, Note_off_c, 0, 61, 87
1, 1511610, Note_on_c, 0, 62, 106
1, 1515620, Note_off_c, 0, 62, 106
1, 1515620, Note_on_c, 0, 64, 98
1, 1515949, Note_off_c, 0, 64, 98
1, 1515949, Note_on_c, 0, 64, 80
1, 1515949, Note_off_c, 0, 64, 80
1, 1518045, Note_on_c, 0, 66, 93
1, 1518747, Note_off_c, 0, 66, 93
1, 1518909, Note_on_c, 0, 67, 102
1, 1521789, Note_off_c, 0, 67, 102
1, 1522023, Note_on_c, 0, 66, 111
1, 1526470, Note_off_c, 0, 66, 111
1, 1527055, Note_on_c, 0, 69, 112
1, 1532672, Note_off_c, 0, 69, 112
1, 1532672, Note_on_c, 0, 72, 103
1, 1533842, Note_off_c, 0, 72, 103
1, 1533842, Note_on_c, 0, 73, 104
1, 1544959, Note_off_c, 0, 73, 104
1, 1544959, Note_on_c, 0, 69, 105
1, 1548118, Note_off_c, 0, 69, 105
1, 1548703, Note_on_c, 0, 66, 93
1, 1552890, Note_off_c, 0, 66, 93
1, 1552890, Note_on_c, 0, 71, 102
1, 1554782, Note_off_c, 0, 71, 102
1, 1557011, Note_on_c, 0, 69, 95
1, 1560404, Note_off_c, 0, 69, 95
1, 1560952, Note_on_c, 0, 66, 99
1, 1563667, Note_off_c, 0, 66, 99
1, 1563913, Note_on_c, 0, 64, 99
1, 1566019, Note_off_c, 0, 64, 99
1, 1566019, Note_on_c, 0, 69, 98
1, 1568476, Note_off_c, 0, 69, 98
1, 1568684, Note_on_c, 0, 66, 107
1, 1572454, Note_off_c, 0, 66, 107
1, 1572454, Note_on_c, 0, 61, 106
1, 1574911, Note_off_c, 0, 61, 106
1, 1575018, Note_on_c, 0, 64, 109
1, 1580878, Note_off_c, 0, 64, 109
1, 1580878, Note_on_c, 0, 62, 101
1, 1583803, Note_off_c, 0, 62, 101
1, 1583920, Note_on_c, 0, 61, 101
1, 1586611, Note_off_c, 0, 61, 101
1, 1586611, Note_on_c, 0, 59, 99
1, 1590121, Note_off_c, 0, 59, 99
1, 1590940, Note_on_c, 0, 64, 108
1, 1593631, Note_off_c, 0, 64, 108
1, 1593631, Note_on_c, 0, 61, 99
1, 1609312, Note_off_c, 0, 61, 99
1, 1609312, Note_on_c, 0, 58, 97
1, 1613408, Note_off_c, 0, 58, 97
1, 1613408, Note_on_c, 0, 61, 99
1, 1616801, Note_off_c, 0, 61, 99
1, 1617737, Note_on_c, 0, 58, 99
1, 1623003, Note_off_c, 0, 58, 99
1, 1623003, Note_on_c, 0, 59, 88
1, 1624524, Note_off_c, 0, 59, 88
1, 1624524, Note_on_c, 0, 61, 92
1, 1629790, Note_off_c, 0, 61, 92
1, 1631662, Note_on_c, 0, 57, 101
1, 1637747, Note_off_c, 0, 57, 101
1, 1638917, Note_on_c, 0, 57, 99
1, 1649332, Note_off_c, 0, 57, 99
1, 1659864, Note_on_c, 0, 55, 96
1, 1662906, Note_off_c, 0, 55, 96
1, 1662906, Note_on_c, 0, 57, 97
1, 1665246, Note_off_c, 0, 57, 97
1, 1665480, Note_on_c, 0, 58, 84
1, 1666416, Note_off_c, 0, 58, 84
1, 1666650, Note_on_c, 0, 58, 88
1, 1667703, Note_off_c, 0, 58, 88
1, 1668319, Note_on_c, 0, 62, 103
1, 1670511, Note_off_c, 0, 62, 103
1, 1670511, Note_on_c, 0, 57, 102
1, 1672844, Note_off_c, 0, 57, 102
1, 1672844, Note_on_c, 0, 58, 102
1, 1675418, Note_off_c, 0, 58, 102
1, 1675641, Note_on_c, 0, 62, 107
1, 1678098, Note_off_c, 0, 62, 107
1, 1678818, Note_on_c, 0, 65, 102
1, 1680573, Note_off_c, 0, 65, 102
1, 1680573, Note_on_c, 0, 69, 110
1, 1683732, Note_off_c, 0, 69, 110
1, 1683732, Note_on_c, 0, 72, 103
1, 1686540, Note_off_c, 0, 72, 103
1, 1686540, Note_on_c, 0, 70, 107
1, 1690518, Note_off_c, 0, 70, 107
1, 1693092, Note_on_c, 0, 61, 98
1, 1696251, Note_off_c, 0, 61, 98
1, 1696251, Note_on_c, 0, 62, 98
1, 1697538, Note_off_c, 0, 62, 98
1, 1698357, Note_on_c, 0, 65, 93
1, 1700580, Note_off_c, 0, 65, 93
1, 1701165, Note_on_c, 0, 69, 105
1, 1705026, Note_off_c, 0, 69, 105
1, 1705377, Note_on_c, 0, 66, 106
1, 1707132, Note_off_c, 0, 66, 106
1, 1707132, Note_on_c, 0, 67, 100
1, 1710291, Note_off_c, 0, 67, 100
1, 1710291, Note_on_c, 0, 69, 95
1, 1713684, Note_off_c, 0, 69, 95
1, 1713918, Note_on_c, 0, 66, 91
1, 1735685, Note_off_c, 0, 66, 91
1, 1745866, Note_on_c, 0, 64, 111
1, 1752302, Note_off_c, 0, 64, 111
1, 1752761, Note_on_c, 0, 66, 102
1, 1760367, Note_off_c, 0, 66, 102
1, 1760367, Note_on_c, 0, 66, 103
1, 1763642, Note_off_c, 0, 66, 103
1, 1763642, Note_on_c, 0, 67, 94
1, 1769376, Note_off_c, 0, 67, 94
1, 1770322, Note_on_c, 0, 59, 92
1, 1782610, Note_off_c, 0, 59, 92
1, 1783195, Note_on_c, 0, 64, 100
1, 1791621, Note_off_c, 0, 64, 100
1, 1791621, Note_on_c, 0, 61, 96
1, 1798291, Note_off_c, 0, 61, 96
1, 1798408, Note_on_c, 0, 57, 86
1, 1824739, Note_off_c, 0, 57, 86
1, 1825207, Note_on_c, 0, 53, 99
1, 1829303, Note_off_c, 0, 53, 99
1, 1830230, Note_on_c, 0, 57, 97
1, 1834451, Note_off_c, 0, 57, 97
1, 1834451, Note_on_c, 0, 54, 96
1, 1854345, Note_off_c, 0, 54, 96
1, 1893315, Note_on_c, 0, 50, 107
1, 1896942, Note_off_c, 0, 50, 107
1, 1897176, Note_on_c, 0, 52, 108
1, 1901037, Note_off_c, 0, 52, 108
1, 1901612, Note_on_c, 0, 53, 112
1, 1905122, Note_off_c, 0, 53, 112
1, 1905122, Note_on_c, 0, 55, 112
1, 1908047, Note_off_c, 0, 55, 112
1, 1908047, Note_on_c, 0, 57, 106
1, 1912260, Note_off_c, 0, 57, 106
1, 1912260, Note_on_c, 0, 57, 108
1, 1915311, Note_off_c, 0, 57, 108
1, 1915311, Note_on_c, 0, 60, 107
1, 1918119, Note_off_c, 0, 60, 107
1, 1918470, Note_on_c, 0, 57, 100
1, 1921629, Note_off_c, 0, 57, 100
1, 1922556, Note_on_c, 0, 59, 102
1, 1926769, Note_off_c, 0, 59, 102
1, 1926769, Note_on_c, 0, 59, 100
1, 1930396, Note_off_c, 0, 59, 100
1, 1930747, Note_on_c, 0, 64, 113
1, 1934256, Note_off_c, 0, 64, 113
1, 1934256, Note_on_c, 0, 65, 104
1, 1937181, Note_off_c, 0, 65, 104
1, 1937199, Note_on_c, 0, 71, 111
1, 1950200, Note_off_c, 0, 71, 111
1, 1950296, Note_on_c, 0, 73, 93
1, 1951583, Note_off_c, 0, 73, 93
1, 1951700, Note_on_c, 0, 74, 88
1, 1955444, Note_off_c, 0, 74, 88
1, 1956019, Note_on_c, 0, 67, 103
1, 1963274, Note_off_c, 0, 67, 103
1, 1963274, Note_on_c, 0, 67, 101
1, 1971359, Note_off_c, 0, 67, 101
1, 1971359, Note_on_c, 0, 69, 97
1, 1972763, Note_off_c, 0, 69, 97
1, 1972763, Note_on_c, 0, 71, 99
1, 1974284, Note_off_c, 0, 71, 99
1, 1974518, Note_on_c, 0, 74, 91
1, 1976965, Note_off_c, 0, 74, 91
1, 1976965, Note_on_c, 0, 71, 100
1, 1978837, Note_off_c, 0, 71, 100
1, 1981070, Note_on_c, 0, 67, 91
1, 1983176, Note_off_c, 0, 67, 91
1, 1983761, Note_on_c, 0, 69, 101
1, 1985399, Note_off_c, 0, 69, 101
1, 1985399, Note_on_c, 0, 71, 97
1, 1987271, Note_off_c, 0, 71, 97
1, 1987622, Note_on_c, 0, 64, 104
1, 1989962, Note_off_c, 0, 64, 104
1, 1990313, Note_on_c, 0, 69, 102
1, 1991951, Note_off_c, 0, 69, 102
1, 1992068, Note_on_c, 0, 71, 97
1, 1993940, Note_off_c, 0, 71, 97
1, 1995227, Note_on_c, 0, 65, 101
1, 1997567, Note_off_c, 0, 65, 101
1, 1997567, Note_on_c, 0, 61, 96
1, 2000024, Note_off_c, 0, 61, 96
1, 2000024, Note_on_c, 0, 65, 98
1, 2000726, Note_off_c, 0, 65, 98
1, 2001077, Note_on_c, 0, 67, 102
1, 2003534, Note_off_c, 0, 67, 102
1, 2003534, Note_on_c, 0, 65, 104
1, 2005406, Note_off_c, 0, 65, 104
1, 2005566, Note_on_c, 0, 64, 103
1, 2007321, Note_off_c, 0, 64, 103
1, 2007394, Note_on_c, 0, 58, 91
1, 2009926, Note_off_c, 0, 58, 91
1, 2009926, Note_on_c, 0, 53, 98
1, 2011957, Note_off_c, 0, 53, 98
1, 2011957, Note_on_c, 0, 57, 99
1, 2014414, Note_off_c, 0, 57, 99
1, 2015350, Note_on_c, 0, 61, 99
1, 2017105, Note_off_c, 0, 61, 99
1, 2017456, Note_on_c, 0, 58, 99
1, 2019328, Note_off_c, 0, 58, 99
1, 2019796, Note_on_c, 0, 53, 101
1, 2021317, Note_off_c, 0, 53, 101
1, 2021317, Note_on_c, 0, 52, 104
1, 2023189, Note_off_c, 0, 52, 104
1, 2023540, Note_on_c, 0, 46, 92
1, 2026231, Note_off_c, 0, 46, 92
1, 2026816, Note_on_c, 0, 52, 102
1, 2028922, Note_off_c, 0, 52, 102
1, 2029507, Note_on_c, 0, 46, 104
1, 2032198, Note_off_c, 0, 46, 104
1, 2032432, Note_on_c, 0, 45, 100
1, 2046007, Note_off_c, 0, 45, 100
1, 2056071, Note_on_c, 0, 45, 92
1, 2057943, Note_off_c, 0, 45, 92
1, 2058294, Note_on_c, 0, 47, 108
1, 2058996, Note_off_c, 0, 47, 108
1, 2059347, Note_on_c, 0, 49, 110
1, 2060751, Note_off_c, 0, 49, 110
1, 2060868, Note_on_c, 0, 52, 110
1, 2061921, Note_off_c, 0, 52, 110
1, 2061921, Note_on_c, 0, 55, 110
1, 2064261, Note_off_c, 0, 55, 110
1, 2064495, Note_on_c, 0, 50, 105
1, 2066601, Note_off_c, 0, 50, 105
1, 2066601, Note_on_c, 0, 51, 105
1, 2068239, Note_off_c, 0, 51, 105
1, 2068590, Note_on_c, 0, 52, 104
1, 2070696, Note_off_c, 0, 52, 104
1, 2071164, Note_on_c, 0, 53, 97
1, 2072568, Note_off_c, 0, 53, 97
1, 2072919, Note_on_c, 0, 54, 101
1, 2073972, Note_off_c, 0, 54, 101
1, 2074382, Note_on_c, 0, 55, 105
1, 2075318, Note_off_c, 0, 55, 105
1, 2075960, Note_on_c, 0, 59, 107
1, 2077949, Note_off_c, 0, 59, 107
1, 2078300, Note_on_c, 0, 56, 97
1, 2079821, Note_off_c, 0, 56, 97
1, 2079821, Note_on_c, 0, 57, 98
1, 2082044, Note_off_c, 0, 57, 98
1, 2082629, Note_on_c, 0, 60, 109
1, 2084501, Note_off_c, 0, 60, 109
1, 2084501, Note_on_c, 0, 57, 91
1, 2086724, Note_off_c, 0, 57, 91
1, 2086724, Note_on_c, 0, 58, 100
1, 2089181, Note_off_c, 0, 58, 100
1, 2089649, Note_on_c, 0, 59, 104
1, 2091989, Note_off_c, 0, 59, 104
1, 2092106, Note_on_c, 0, 60, 102
1, 2094680, Note_off_c, 0, 60, 102
1, 2095382, Note_on_c, 0, 64, 94
1, 2097254, Note_off_c, 0, 64, 94
1, 2097371, Note_on_c, 0, 68, 94
1, 2098190, Note_off_c, 0, 68, 94
1, 2098190, Note_on_c, 0, 71, 107
1, 2100530, Note_off_c, 0, 71, 107
1, 2100915, Note_on_c, 0, 69, 105
1, 2102231, Note_off_c, 0, 69, 105
1, 2103220, Note_on_c, 0, 64, 113
1, 2105794, Note_off_c, 0, 64, 113
1, 2105911, Note_on_c, 0, 60, 91
1, 2108368, Note_off_c, 0, 60, 91
1, 2114410, Note_on_c, 0, 67, 95
1, 2118505, Note_off_c, 0, 67, 95
1, 2132591, Note_on_c, 0, 55, 105
1, 2135800, Note_off_c, 0, 55, 105
1, 2139091, Note_on_c, 0, 67, 106
1, 2141899, Note_off_c, 0, 67, 106
1, 2142248, Note_on_c, 0, 69, 102
1, 2145755, Note_off_c, 0, 69, 102
1, 2145755, Note_on_c, 0, 66, 100
1, 2156989, Note_off_c, 0, 66, 100
1, 2157225, Note_on_c, 0, 65, 97
1, 2162868, Note_off_c, 0, 65, 97
1, 2162868, Note_on_c, 0, 70, 78
1, 2190351, Note_off_c, 0, 70, 78
1, 2191009, Note_on_c, 0, 66, 98
1, 2193232, Note_off_c, 0, 66, 98
1, 2193806, Note_on_c, 0, 62, 88
1, 2196768, Note_off_c, 0, 62, 88
1, 2196850, Note_on_c, 0, 65, 94
1, 2199812, Note_off_c, 0, 65, 94
1, 2200634, Note_on_c, 0, 62, 89
1, 2203020, Note_off_c, 0, 62, 89
1, 2203020, Note_on_c, 0, 63, 98
1, 2206146, Note_off_c, 0, 63, 98
1, 2206392, Note_on_c, 0, 65, 93
1, 2209436, Note_off_c, 0, 65, 93
1, 2209682, Note_on_c, 0, 63, 98
1, 2220708, Note_off_c, 0, 63, 98
1, 2244735, Note_on_c, 0, 62, 105
1, 2247285, Note_off_c, 0, 62, 105
1, 2247331, Note_on_c, 0, 63, 107
1, 2250724, Note_off_c, 0, 63, 107
1, 2251233, Note_on_c, 0, 65, 107
1, 2255100, Note_off_c, 0, 65, 107
1, 2255634, Note_on_c, 0, 63, 116
1, 2258143, Note_off_c, 0, 63, 116
1, 2258143, Note_on_c, 0, 58, 100
1, 2260940, Note_off_c, 0, 58, 100
1, 2261104, Note_on_c, 0, 53, 111
1, 2263901, Note_off_c, 0, 53, 111
1, 2263901, Note_on_c, 0, 52, 106
1, 2267274, Note_off_c, 0, 52, 106
1, 2267932, Note_on_c, 0, 50, 101
1, 2270812, Note_off_c, 0, 50, 101
1, 2270894, Note_on_c, 0, 51, 106
1, 2273691, Note_off_c, 0, 51, 106
1, 2273773, Note_on_c, 0, 53, 105
1, 2278134, Note_off_c, 0, 53, 105
1, 2278956, Note_on_c, 0, 49, 102
1, 2282247, Note_off_c, 0, 49, 102
1, 2282247, Note_on_c, 0, 50, 113
1, 2284797, Note_off_c, 0, 50, 113
1, 2285043, Note_on_c, 0, 53, 105
1, 2289733, Note_off_c, 0, 53, 105
1, 2291131, Note_on_c, 0, 51, 106
1, 2297055, Note_off_c, 0, 51, 106
1, 2297055, Note_on_c, 0, 46, 108
1, 2315404, Note_off_c, 0, 46, 108
1, 2315568, Note_on_c, 0, 58, 107
1, 2318727, Note_off_c, 0, 58, 107
1, 2318776, Note_on_c, 0, 56, 111
1, 2321162, Note_off_c, 0, 56, 111
1, 2321738, Note_on_c, 0, 54, 114
1, 2323959, Note_off_c, 0, 54, 114
1, 2324326, Note_on_c, 0, 53, 106
1, 2327414, Note_off_c, 0, 53, 106
1, 2327414, Note_on_c, 0, 52, 108
1, 2338193, Note_off_c, 0, 52, 108
1, 2338686, Note_on_c, 0, 52, 108
1, 2340084, Note_off_c, 0, 52, 108
1, 2340413, Note_on_c, 0, 54, 96
1, 2342387, Note_off_c, 0, 54, 96
1, 2342963, Note_on_c, 0, 60, 98
1, 2354665, Note_off_c, 0, 60, 98
1, 2356210, Note_on_c, 0, 58, 97
1, 2358843, Note_off_c, 0, 58, 97
1, 2361147, Note_on_c, 0, 53, 102
1, 2369293, Note_off_c, 0, 53, 102
1, 2369622, Note_on_c, 0, 56, 96
1, 2387313, Note_off_c, 0, 56, 96
1, 2408625, Note_on_c, 0, 55, 109
1, 2410846, Note_off_c, 0, 55, 109
1, 2411612, Note_on_c, 0, 56, 106
1, 2414771, Note_off_c, 0, 56, 106
1, 2416187, Note_on_c, 0, 58, 9
1, 2420283, Note_off_c, 0, 58, 9
1, 2421085, Note_on_c, 0, 56, 110
1, 2425649, Note_off_c, 0, 56, 110
1, 2425661, Note_on_c, 0, 55, 109
1, 2430801, Note_off_c, 0, 55, 109
1, 2430801, Note_on_c, 0, 56, 109
1, 2435833, Note_off_c, 0, 56, 109
1, 2436768, Note_on_c, 0, 56, 109
1, 2442034, Note_off_c, 0, 56, 109
1, 2443440, Note_on_c, 0, 65, 103
1, 2448940, Note_off_c, 0, 65, 103
1, 2449406, Note_on_c, 0, 63, 107
1, 2458066, Note_off_c, 0, 63, 107
1, 2458074, Note_on_c, 0, 63, 94
1, 2477032, Note_off_c, 0, 63, 94
1, 2478556, Note_on_c, 0, 61, 99
1, 2484173, Note_off_c, 0, 61, 99
1, 2487446, Note_on_c, 0, 60, 102
1, 2493946, Note_off_c, 0, 60, 102
1, 2493946, Note_on_c, 0, 59, 87
1, 2513941, Note_off_c, 0, 59, 87
1, 2513941, Note_on_c, 0, 61, 92
1, 2520523, Note_off_c, 0, 61, 92
1, 2521428, Note_on_c, 0, 58, 84
1, 2543480, Note_off_c, 0, 58, 84
1, 2554012, Note_on_c, 0, 73, 111
1, 2557714, Note_off_c, 0, 73, 111
1, 2557714, Note_on_c, 0, 72, 106
1, 2558783, Note_off_c, 0, 72, 106
1, 2558947, Note_on_c, 0, 70, 108
1, 2564295, Note_off_c, 0, 70, 108
1, 2564295, Note_on_c, 0, 72, 107
1, 2565117, Note_off_c, 0, 72, 107
1, 2565498, Note_on_c, 0, 73, 103
1, 2569888, Note_off_c, 0, 73, 103
1, 2569888, Note_on_c, 0, 72, 105
1, 2571616, Note_off_c, 0, 72, 105
1, 2571887, Note_on_c, 0, 70, 107
1, 2579727, Note_off_c, 0, 70, 107
1, 2579924, Note_on_c, 0, 66, 109
1, 2588646, Note_off_c, 0, 66, 109
1, 2588646, Note_on_c, 0, 66, 103
1, 2589798, Note_off_c, 0, 66, 103
1, 2589798, Note_on_c, 0, 67, 101
1, 2593336, Note_off_c, 0, 67, 101
1, 2593336, Note_on_c, 0, 68, 99
1, 2598849, Note_off_c, 0, 68, 99
1, 2599260, Note_on_c, 0, 65, 99
1, 2612096, Note_off_c, 0, 65, 99
1, 2612096, Note_on_c, 0, 65, 96
1, 2614893, Note_off_c, 0, 65, 96
1, 2615528, Note_on_c, 0, 64, 105
1, 2617517, Note_off_c, 0, 64, 105
1, 2617523, Note_on_c, 0, 65, 100
1, 2620204, Note_off_c, 0, 65, 100
1, 2620204, Note_on_c, 0, 66, 102
1, 2622296, Note_off_c, 0, 66, 102
1, 2622296, Note_on_c, 0, 68, 97
1, 2624764, Note_off_c, 0, 68, 97
1, 2624764, Note_on_c, 0, 70, 96
1, 2627561, Note_off_c, 0, 70, 96
1, 2627807, Note_on_c, 0, 73, 88
1, 2630933, Note_off_c, 0, 73, 88
1, 2631087, Note_on_c, 0, 75, 90
1, 2635534, Note_off_c, 0, 75, 90
1, 2635542, Note_on_c, 0, 72, 88
1, 2646186, Note_off_c, 0, 72, 88
1, 2646186, Note_on_c, 0, 70, 94
1, 2648760, Note_off_c, 0, 70, 94
1, 2648765, Note_on_c, 0, 69, 95
1, 2652158, Note_off_c, 0, 69, 95
1, 2653558, Note_on_c, 0, 61, 90
1, 2654627, Note_off_c, 0, 61, 90
1, 2654791, Note_on_c, 0, 63, 93
1, 2657753, Note_off_c, 0, 63, 93
1, 2657753, Note_on_c, 0, 67, 87
1, 2664335, Note_off_c, 0, 67, 87
1, 2664911, Note_on_c, 0, 66, 95
1, 2672234, Note_off_c, 0, 66, 95
1, 2672398, Note_on_c, 0, 64, 98
1, 2673467, Note_off_c, 0, 64, 98
1, 2673467, Note_on_c, 0, 65, 95
1, 2677005, Note_off_c, 0, 65, 95
1, 2677087, Note_on_c, 0, 61, 86
1, 2679967, Note_off_c, 0, 61, 86
1, 2679967, Note_on_c, 0, 57, 89
1, 2683258, Note_off_c, 0, 57, 89
1, 2683422, Note_on_c, 0, 53, 88
1, 2685150, Note_off_c, 0, 53, 88
1, 2686466, Note_on_c, 0, 60, 96
1, 2690086, Note_off_c, 0, 60, 96
1, 2690991, Note_on_c, 0, 57, 79
1, 2693706, Note_off_c, 0, 57, 79
1, 2694117, Note_on_c, 0, 58, 90
1, 2698725, Note_off_c, 0, 58, 90
1, 2700123, Note_on_c, 0, 60, 95
1, 2703516, Note_off_c, 0, 60, 95
1, 2703629, Note_on_c, 0, 61, 93
1, 2708426, Note_off_c, 0, 61, 93
1, 2708426, Note_on_c, 0, 63, 99
1, 2710406, Note_off_c, 0, 63, 99
1, 2710406, Note_on_c, 0, 65, 94
1, 2712380, Note_off_c, 0, 65, 94
1, 2712544, Note_on_c, 0, 66, 92
1, 2714848, Note_off_c, 0, 66, 92
1, 2715012, Note_on_c, 0, 68, 87
1, 2717352, Note_off_c, 0, 68, 87
1, 2717891, Note_on_c, 0, 70, 93
1, 2720465, Note_off_c, 0, 70, 93
1, 2720719, Note_on_c, 0, 72, 91
1, 2723761, Note_off_c, 0, 72, 91
1, 2724224, Note_on_c, 0, 75, 77
1, 2727500, Note_off_c, 0, 75, 77
1, 2727732, Note_on_c, 0, 73, 85
1, 2741541, Note_off_c, 0, 73, 85
1, 2750431, Note_on_c, 0, 72, 102
1, 2753239, Note_off_c, 0, 72, 102
1, 2753252, Note_on_c, 0, 70, 99
1, 2756177, Note_off_c, 0, 70, 99
1, 2758170, Note_on_c, 0, 68, 99
1, 2763787, Note_off_c, 0, 68, 99
1, 2764016, Note_on_c, 0, 65, 101
1, 2768112, Note_off_c, 0, 65, 101
1, 2769741, Note_on_c, 0, 63, 103
1, 2775317, Note_off_c, 0, 63, 103
1, 2775317, Note_on_c, 0, 61, 94
1, 2781323, Note_off_c, 0, 61, 94
1, 2781652, Note_on_c, 0, 65, 94
1, 2790663, Note_off_c, 0, 65, 94
1, 2799672, Note_on_c, 0, 66, 108
1, 2802129, Note_off_c, 0, 66, 108
1, 2802276, Note_on_c, 0, 68, 101
1, 2804616, Note_off_c, 0, 68, 101
1, 2806335, Note_on_c, 0, 65, 107
1, 2808792, Note_off_c, 0, 65, 107
1, 2809132, Note_on_c, 0, 68, 93
1, 2811682, Note_off_c, 0, 68, 93
1, 2813327, Note_on_c, 0, 62, 104
1, 2816207, Note_off_c, 0, 62, 104
1, 2817523, Note_on_c, 0, 68, 93
1, 2820682, Note_off_c, 0, 68, 93
1, 2821705, Note_on_c, 0, 62, 101
1, 2832333, Note_off_c, 0, 62, 101
1, 2832333, Note_on_c, 0, 65, 96
1, 2834907, Note_off_c, 0, 65, 96
1, 2835047, Note_on_c, 0, 68, 91
1, 2837738, Note_off_c, 0, 68, 91
1, 2839078, Note_on_c, 0, 62, 98
1, 2846567, Note_off_c, 0, 62, 98
1, 2846860, Note_on_c, 0, 65, 97
1, 2851424, Note_off_c, 0, 65, 97
1, 2852077, Note_on_c, 0, 62, 103
1, 2855121, Note_off_c, 0, 62, 103
1, 2855121, Note_on_c, 0, 65, 94
1, 2858631, Note_off_c, 0, 65, 94
1, 2859720, Note_on_c, 0, 63, 104
1, 2862607, Note_off_c, 0, 63, 104
1, 2862607, Note_on_c, 0, 65, 92
1, 2864993, Note_off_c, 0, 65, 92
1, 2868024, Note_on_c, 0, 63, 105
1, 2872562, Note_off_c, 0, 63, 105
1, 2872562, Note_on_c, 0, 61, 96
1, 2879144, Note_off_c, 0, 61, 96
1, 2879144, Note_on_c, 0, 65, 100
1, 2882270, Note_off_c, 0, 65, 100
1, 2882270, Note_on_c, 0, 63, 95
1, 2884491, Note_off_c, 0, 63, 95
1, 2885067, Note_on_c, 0, 56, 101
1, 2886219, Note_off_c, 0, 56, 101
1, 2886219, Note_on_c, 0, 58, 100
1, 2887947, Note_off_c, 0, 58, 100
1, 2887947, Note_on_c, 0, 56, 96
1, 2889016, Note_off_c, 0, 56, 96
1, 2890034, Note_on_c, 0, 65, 96
1, 2891672, Note_off_c, 0, 65, 96
1, 2892251, Note_on_c, 0, 63, 90
1, 2901496, Note_off_c, 0, 63, 90
1, 2902920, Note_on_c, 0, 58, 82
1, 2915674, Note_off_c, 0, 58, 82
1, 2935011, Note_on_c, 0, 69, 108
1, 2936903, Note_off_c, 0, 69, 108
1, 2937067, Note_on_c, 0, 70, 101
1, 2937889, Note_off_c, 0, 70, 101
1, 2938135, Note_on_c, 0, 69, 104
1, 2940768, Note_off_c, 0, 69, 104
1, 2940768, Note_on_c, 0, 63, 111
1, 2943225, Note_off_c, 0, 63, 111
1, 2943400, Note_on_c, 0, 65, 101
1, 2945974, Note_off_c, 0, 65, 101
1, 2946937, Note_on_c, 0, 68, 100
1, 2956153, Note_off_c, 0, 68, 100
1, 2957058, Note_on_c, 0, 67, 102
1, 2959279, Note_off_c, 0, 67, 102
1, 2959658, Note_on_c, 0, 66, 104
1, 2962734, Note_off_c, 0, 66, 104
1, 2962734, Note_on_c, 0, 67, 98
1, 2964626, Note_off_c, 0, 67, 98
1, 2964790, Note_on_c, 0, 71, 99
1, 2967013, Note_off_c, 0, 71, 99
1, 2967587, Note_on_c, 0, 75, 97
1, 2969315, Note_off_c, 0, 75, 97
1, 2969473, Note_on_c, 0, 76, 89
1, 2972983, Note_off_c, 0, 76, 89
1, 2973345, Note_on_c, 0, 73, 88
1, 2975237, Note_off_c, 0, 73, 88
1, 2975237, Note_on_c, 0, 71, 97
1, 2977787, Note_off_c, 0, 71, 97
1, 2978018, Note_on_c, 0, 67, 102
1, 2980584, Note_off_c, 0, 67, 102
1, 2980584, Note_on_c, 0, 63, 100
1, 2982853, Note_off_c, 0, 63, 100
1, 2982853, Note_on_c, 0, 60, 94
1, 2985720, Note_off_c, 0, 60, 94
1, 2987709, Note_on_c, 0, 67, 88
1, 2988879, Note_off_c, 0, 67, 88
1, 2988879, Note_on_c, 0, 71, 85
1, 2991570, Note_off_c, 0, 71, 85
1, 2992188, Note_on_c, 0, 66, 103
1, 3001663, Note_off_c, 0, 66, 103
1, 3001663, Note_on_c, 0, 65, 99
1, 3003759, Note_off_c, 0, 65, 99
1, 3003759, Note_on_c, 0, 64, 98
1, 3006431, Note_off_c, 0, 64, 98
1, 3006431, Note_on_c, 0, 60, 81
1, 3009005, Note_off_c, 0, 60, 81
1, 3009604, Note_on_c, 0, 64, 103
1, 3011710, Note_off_c, 0, 64, 103
1, 3011720, Note_on_c, 0, 65, 92
1, 3021643, Note_off_c, 0, 65, 92
1, 3021643, Note_on_c, 0, 60, 83
1, 3023515, Note_off_c, 0, 60, 83
1, 3023515, Note_on_c, 0, 58, 88
1, 3026323, Note_off_c, 0, 58, 88
1, 3026323, Note_on_c, 0, 56, 90
1, 3030126, Note_off_c, 0, 56, 90
1, 3030568, Note_on_c, 0, 63, 103
1, 3034781, Note_off_c, 0, 63, 103
1, 3044520, Note_on_c, 0, 60, 92
1, 3048616, Note_off_c, 0, 60, 92
1, 3048967, Note_on_c, 0, 56, 99
1, 3054350, Note_off_c, 0, 56, 99
1, 3054467, Note_on_c, 0, 53, 99
1, 3058036, Note_off_c, 0, 53, 99
1, 3058036, Note_on_c, 0, 51, 94
1, 3063126, Note_off_c, 0, 51, 94
1, 3063126, Note_on_c, 0, 53, 96
1, 3072371, Note_off_c, 0, 53, 96
1, 3073190, Note_on_c, 0, 48, 99
1, 3076817, Note_off_c, 0, 48, 99
1, 3076817, Note_on_c, 0, 46, 102
1, 3082317, Note_off_c, 0, 46, 102
1, 3082434, Note_on_c, 0, 44, 101
1, 3098818, Note_off_c, 0, 44, 101
1, 3110579, Note_on_c, 0, 50, 101
1, 3112685, Note_off_c, 0, 50, 101
1, 3112685, Note_on_c, 0, 51, 94
1, 3114030, Note_off_c, 0, 51, 94
1, 3114147, Note_on_c, 0, 52, 96
1, 3116019, Note_off_c, 0, 52, 96
1, 3116524, Note_on_c, 0, 55, 103
1, 3117694, Note_off_c, 0, 55, 103
1, 3117934, Note_on_c, 0, 59, 100
1, 3119923, Note_off_c, 0, 59, 100
1, 3119929, Note_on_c, 0, 56, 100
1, 3122025, Note_off_c, 0, 56, 100
1, 3122025, Note_on_c, 0, 57, 100
1, 3123897, Note_off_c, 0, 57, 100
1, 3124032, Note_on_c, 0, 64, 99
1, 3126021, Note_off_c, 0, 64, 99
1, 3126196, Note_on_c, 0, 58, 97
1, 3127892, Note_off_c, 0, 58, 97
1, 3128009, Note_on_c, 0, 59, 96
1, 3129647, Note_off_c, 0, 59, 96
1, 3129705, Note_on_c, 0, 60, 104
1, 3131635, Note_off_c, 0, 60, 104
1, 3131635, Note_on_c, 0, 64, 102
1, 3133975, Note_off_c, 0, 64, 102
1, 3133975, Note_on_c, 0, 67, 93
1, 3135262, Note_off_c, 0, 67, 93
1, 3135262, Note_on_c, 0, 71, 104
1, 3137602, Note_off_c, 0, 71, 104
1, 3137602, Note_on_c, 0, 66, 105
1, 3142751, Note_off_c, 0, 66, 105
1, 3154629, Note_on_c, 0, 53, 98
1, 3156852, Note_off_c, 0, 53, 98
1, 3157228, Note_on_c, 0, 54, 93
1, 3159038, Note_off_c, 0, 54, 93
1, 3159133, Note_on_c, 0, 60, 99
1, 3161883, Note_off_c, 0, 60, 99
1, 3162058, Note_on_c, 0, 56, 94
1, 3165217, Note_off_c, 0, 56, 94
1, 3165743, Note_on_c, 0, 60, 103
1, 3167498, Note_off_c, 0, 60, 103
1, 3167556, Note_on_c, 0, 61, 94
1, 3169896, Note_off_c, 0, 61, 94
1, 3170071, Note_on_c, 0, 63, 97
1, 3171709, Note_off_c, 0, 63, 97
1, 3171826, Note_on_c, 0, 66, 97
1, 3173347, Note_off_c, 0, 66, 97
1, 3173500, Note_on_c, 0, 68, 98
1, 3175277, Note_off_c, 0, 68, 98
1, 3175277, Note_on_c, 0, 72, 88
1, 3178085, Note_off_c, 0, 72, 88
1, 3178085, Note_on_c, 0, 65, 105
1, 3185457, Note_off_c, 0, 65, 105
1, 3186138, Note_on_c, 0, 65, 95
1, 3189999, Note_off_c, 0, 65, 95
1, 3190008, Note_on_c, 0, 66, 98
1, 3194642, Note_off_c, 0, 66, 98
1, 3194642, Note_on_c, 0, 68, 94
1, 3201546, Note_off_c, 0, 68, 94
1, 3216174, Note_on_c, 0, 70, 107
1, 3219684, Note_off_c, 0, 70, 107
1, 3221837, Note_on_c, 0, 72, 109
1, 3226237, Note_off_c, 0, 72, 109
1, 3226237, Note_on_c, 0, 73, 99
1, 3227056, Note_off_c, 0, 73, 99
1, 3227231, Note_on_c, 0, 74, 100
1, 3228050, Note_off_c, 0, 74, 100
1, 3228050, Note_on_c, 0, 75, 90
1, 3236124, Note_off_c, 0, 75, 90
1, 3236229, Note_on_c, 0, 73, 109
1, 3242080, Note_off_c, 0, 73, 109
1, 3242091, Note_on_c, 0, 71, 112
1, 3243144, Note_off_c, 0, 71, 112
1, 3243319, Note_on_c, 0, 72, 107
1, 3250750, Note_off_c, 0, 72, 107
1, 3251101, Note_on_c, 0, 71, 107
1, 3251978, Note_off_c, 0, 71, 107
1, 3252036, Note_on_c, 0, 72, 106
1, 3264031, Note_off_c, 0, 72, 106
1, 3265598, Note_on_c, 0, 70, 104
1, 3268523, Note_off_c, 0, 70, 104
1, 3268593, Note_on_c, 0, 65, 105
1, 3271109, Note_off_c, 0, 65, 105
1, 3272981, Note_on_c, 0, 71, 105
1, 3282460, Note_off_c, 0, 71, 105
1, 3282518, Note_on_c, 0, 69, 103
1, 3284975, Note_off_c, 0, 69, 103
1, 3284975, Note_on_c, 0, 71, 102
1, 3287081, Note_off_c, 0, 71, 102
1, 3287081, Note_on_c, 0, 64, 110
1, 3290533, Note_off_c, 0, 64, 110
1, 3290942, Note_on_c, 0, 69, 100
1, 3293048, Note_off_c, 0, 69, 100
1, 3293048, Note_on_c, 0, 67, 98
1, 3294569, Note_off_c, 0, 67, 98
1, 3294744, Note_on_c, 0, 63, 88
1, 3296265, Note_off_c, 0, 63, 88
1, 3296511, Note_on_c, 0, 60, 105
1, 3297827, Note_off_c, 0, 60, 105
1, 3297843, Note_on_c, 0, 63, 96
1, 3299247, Note_off_c, 0, 63, 96
1, 3299305, Note_on_c, 0, 64, 106
1, 3300650, Note_off_c, 0, 64, 106
1, 3300650, Note_on_c, 0, 67, 100
1, 3302990, Note_off_c, 0, 67, 100
1, 3302990, Note_on_c, 0, 63, 107
1, 3306442, Note_off_c, 0, 63, 107
1, 3306442, Note_on_c, 0, 66, 101
1, 3312761, Note_off_c, 0, 66, 101
1, 3312819, Note_on_c, 0, 64, 104
1, 3314808, Note_off_c, 0, 64, 104
1, 3315217, Note_on_c, 0, 65, 97
1, 3325925, Note_off_c, 0, 65, 97
1, 3326159, Note_on_c, 0, 60, 89
1, 3328733, Note_off_c, 0, 60, 89
1, 3329201, Note_on_c, 0, 63, 97
1, 3333004, Note_off_c, 0, 63, 97
1, 3333238, Note_on_c, 0, 61, 98
1, 3337568, Note_off_c, 0, 61, 98
1, 3337626, Note_on_c, 0, 63, 98
1, 3340961, Note_off_c, 0, 63, 98
1, 3341136, Note_on_c, 0, 65, 93
1, 3349093, Note_off_c, 0, 65, 93
1, 3349093, Note_on_c, 0, 68, 84
1, 3355939, Note_off_c, 0, 68, 84
1, 3355939, Note_on_c, 0, 66, 87
1, 3371445, Note_off_c, 0, 66, 87
1, 3378057, Note_on_c, 0, 56, 104
1, 3381918, Note_off_c, 0, 56, 104
1, 3381918, Note_on_c, 0, 64, 101
1, 3382971, Note_off_c, 0, 64, 101
1, 3382971, Note_on_c, 0, 65, 108
1, 3389407, Note_off_c, 0, 65, 108
1, 3389743, Note_on_c, 0, 64, 105
1, 3400231, Note_off_c, 0, 64, 105
1, 3400231, Note_on_c, 0, 63, 98
1, 3416380, Note_off_c, 0, 63, 98
1, 3416380, Note_on_c, 0, 61, 91
1, 3418896, Note_off_c, 0, 61, 91
1, 3419130, Note_on_c, 0, 63, 102
1, 3422699, Note_off_c, 0, 63, 102
1, 3422991, Note_on_c, 0, 64, 105
1, 3425565, Note_off_c, 0, 64, 105
1, 3425565, Note_on_c, 0, 63, 101
1, 3433171, Note_off_c, 0, 63, 101
1, 3433171, Note_on_c, 0, 61, 89
1, 3436272, Note_off_c, 0, 61, 89
1, 3436272, Note_on_c, 0, 63, 91
1, 3451485, Note_off_c, 0, 63, 91
1, 3452830, Note_on_c, 0, 61, 108
1, 3455463, Note_off_c, 0, 61, 108
1, 3455619, Note_on_c, 0, 63, 104
1, 3458446, Note_off_c, 0, 63, 104
1, 3458446, Note_on_c, 0, 65, 99
1, 3460786, Note_off_c, 0, 65, 99
1, 3460961, Note_on_c, 0, 66, 99
1, 3463923, Note_off_c, 0, 66, 99
1, 3463923, Note_on_c, 0, 68, 105
1, 3466848, Note_off_c, 0, 68, 105
1, 3467279, Note_on_c, 0, 61, 102
1, 3469736, Note_off_c, 0, 61, 102
1, 3469794, Note_on_c, 0, 62, 104
1, 3470730, Note_off_c, 0, 62, 104
1, 3470730, Note_on_c, 0, 65, 107
1, 3474474, Note_off_c, 0, 65, 107
1, 3474474, Note_on_c, 0, 65, 109
1, 3476346, Note_off_c, 0, 65, 109
1, 3476638, Note_on_c, 0, 62, 103
1, 3478686, Note_off_c, 0, 62, 103
1, 3478686, Note_on_c, 0, 58, 102
1, 3481319, Note_off_c, 0, 58, 102
1, 3481319, Note_on_c, 0, 54, 108
1, 3483601, Note_off_c, 0, 54, 108
1, 3483718, Note_on_c, 0, 51, 102
1, 3484888, Note_off_c, 0, 51, 102
1, 3485180, Note_on_c, 0, 62, 107
1, 3487228, Note_off_c, 0, 62, 107
1, 3487286, Note_on_c, 0, 63, 94
1, 3489099, Note_off_c, 0, 63, 94
1, 3489099, Note_on_c, 0, 65, 107
1, 3491907, Note_off_c, 0, 65, 107
1, 3491965, Note_on_c, 0, 64, 112
1, 3494305, Note_off_c, 0, 64, 112
1, 3494305, Note_on_c, 0, 63, 106
1, 3498401, Note_off_c, 0, 63, 106
1, 3503374, Note_on_c, 0, 58, 96
1, 3503842, Note_off_c, 0, 58, 96
1, 3503842, Note_on_c, 0, 61, 100
1, 3512853, Note_off_c, 0, 61, 100
1, 3512853, Note_on_c, 0, 58, 86
1, 3514374, Note_off_c, 0, 58, 86
1, 3514842, Note_on_c, 0, 61, 102
1, 3516714, Note_off_c, 0, 61, 102
1, 3516714, Note_on_c, 0, 58, 103
1, 3518469, Note_off_c, 0, 58, 103
1, 3518650, Note_on_c, 0, 54, 98
1, 3522023, Note_off_c, 0, 54, 98
1, 3522023, Note_on_c, 0, 52, 97
1, 3523586, Note_off_c, 0, 52, 97
1, 3523968, Note_on_c, 0, 53, 102
1, 3527069, Note_off_c, 0, 53, 102
1, 3527069, Note_on_c, 0, 51, 97
1, 3530287, Note_off_c, 0, 51, 97
1, 3545617, Note_on_c, 0, 50, 98
1, 3547957, Note_off_c, 0, 50, 98
1, 3548132, Note_on_c, 0, 51, 104
1, 3550648, Note_off_c, 0, 51, 104
1, 3550648, Note_on_c, 0, 53, 102
1, 3553105, Note_off_c, 0, 53, 102
1, 3553105, Note_on_c, 0, 54, 100
1, 3555328, Note_off_c, 0, 54, 100
1, 3555386, Note_on_c, 0, 58, 97
1, 3558077, Note_off_c, 0, 58, 97
1, 3558486, Note_on_c, 0, 61, 107
1, 3561119, Note_off_c, 0, 61, 107
1, 3561277, Note_on_c, 0, 63, 115
1, 3563341, Note_off_c, 0, 63, 115
1, 3563341, Note_on_c, 0, 65, 111
1, 3564452, Note_off_c, 0, 65, 111
1, 3564452, Note_on_c, 0, 66, 102
1, 3567436, Note_off_c, 0, 66, 102
1, 3567553, Note_on_c, 0, 68, 106
1, 3570010, Note_off_c, 0, 68, 106
1, 3570010, Note_on_c, 0, 70, 109
1, 3572116, Note_off_c, 0, 70, 109
1, 3572116, Note_on_c, 0, 73, 101
1, 3574222, Note_off_c, 0, 73, 101
1, 3574631, Note_on_c, 0, 68, 107
1, 3576796, Note_off_c, 0, 68, 107
1, 3576796, Note_on_c, 0, 70, 101
1, 3578668, Note_off_c, 0, 70, 101
1, 3578785, Note_on_c, 0, 69, 104
1, 3580189, Note_off_c, 0, 69, 104
1, 3580423, Note_on_c, 0, 65, 110
1, 3582178, Note_off_c, 0, 65, 110
1, 3582641, Note_on_c, 0, 68, 101
1, 3584979, Note_off_c, 0, 68, 101
1, 3584979, Note_on_c, 0, 63, 113
1, 3586916, Note_off_c, 0, 63, 113
1, 3586916, Note_on_c, 0, 65, 103
1, 3589373, Note_off_c, 0, 65, 103
1, 3589724, Note_on_c, 0, 66, 110
1, 3591596, Note_off_c, 0, 66, 110
1, 3591596, Note_on_c, 0, 68, 108
1, 3593819, Note_off_c, 0, 68, 108
1, 3593819, Note_on_c, 0, 69, 106
1, 3596042, Note_off_c, 0, 69, 106
1, 3596217, Note_on_c, 0, 71, 95
1, 3598674, Note_off_c, 0, 71, 95
1, 3598849, Note_on_c, 0, 75, 100
1, 3601189, Note_off_c, 0, 75, 100
1, 3601189, Note_on_c, 0, 76, 86
1, 3603295, Note_off_c, 0, 76, 86
1, 3603580, Note_on_c, 0, 74, 93
1, 3611486, Note_off_c, 0, 74, 93
1, 3611486, Note_on_c, 0, 71, 102
1, 3613475, Note_off_c, 0, 71, 102
1, 3613760, Note_on_c, 0, 69, 104
1, 3615281, Note_off_c, 0, 69, 104
1, 3615291, Note_on_c, 0, 67, 106
1, 3616803, Note_off_c, 0, 67, 106
1, 3616803, Note_on_c, 0, 66, 105
1, 3622601, Note_off_c, 0, 66, 105
1, 3622601, Note_on_c, 0, 71, 98
1, 3623537, Note_off_c, 0, 71, 98
1, 3623537, Note_on_c, 0, 69, 99
1, 3624941, Note_off_c, 0, 69, 99
1, 3624999, Note_on_c, 0, 67, 100
1, 3626052, Note_off_c, 0, 67, 100
1, 3626169, Note_on_c, 0, 64, 35
1, 3628860, Note_off_c, 0, 64, 35
1, 3628860, Note_on_c, 0, 63, 88
1, 3629854, Note_off_c, 0, 63, 88
1, 3630266, Note_on_c, 0, 61, 98
1, 3635412, Note_off_c, 0, 61, 98
1, 3635412, Note_on_c, 0, 59, 89
1, 3639098, Note_off_c, 0, 59, 89
1, 3639273, Note_on_c, 0, 60, 93
1, 3649044, Note_off_c, 0, 60, 93
1, 3649102, Note_on_c, 0, 63, 89
1, 3663203, Note_off_c, 0, 63, 89
1, 3664776, Note_on_c, 0, 60, 93
1, 3669405, Note_off_c, 0, 60, 93
1, 3669405, Note_on_c, 0, 63, 101
1, 3674320, Note_off_c, 0, 63, 101
1, 3674554, Note_on_c, 0, 68, 92
1, 3685671, Note_off_c, 0, 68, 92
1, 3694974, Note_on_c, 0, 68, 105
1, 3698718, Note_off_c, 0, 68, 105
1, 3700005, Note_on_c, 0, 71, 104
1, 3701350, Note_off_c, 0, 71, 104
1, 3701350, Note_on_c, 0, 72, 102
1, 3706265, Note_off_c, 0, 72, 102
1, 3706499, Note_on_c, 0, 74, 96
1, 3707435, Note_off_c, 0, 74, 96
1, 3707490, Note_on_c, 0, 75, 96
1, 3713926, Note_off_c, 0, 75, 96
1, 3714867, Note_on_c, 0, 75, 91
1, 3723878, Note_off_c, 0, 75, 91
1, 3724285, Note_on_c, 0, 72, 104
1, 3731306, Note_off_c, 0, 72, 104
1, 3733119, Note_on_c, 0, 65, 107
1, 3736044, Note_off_c, 0, 65, 107
1, 3736044, Note_on_c, 0, 72, 92
1, 3739437, Note_off_c, 0, 72, 92
1, 3740487, Note_on_c, 0, 68, 102
1, 3745987, Note_off_c, 0, 68, 102
1, 3747336, Note_on_c, 0, 68, 99
1, 3751432, Note_off_c, 0, 68, 99
1, 3751490, Note_on_c, 0, 65, 100
1, 3753596, Note_off_c, 0, 65, 100
1, 3753830, Note_on_c, 0, 71, 96
1, 3757574, Note_off_c, 0, 71, 96
1, 3758164, Note_on_c, 0, 69, 99
1, 3771026, Note_off_c, 0, 69, 99
1, 3771026, Note_on_c, 0, 71, 93
1, 3773430, Note_off_c, 0, 71, 93
1, 3773430, Note_on_c, 0, 73, 90
1, 3776180, Note_off_c, 0, 73, 90
1, 3776180, Note_on_c, 0, 74, 81
1, 3778520, Note_off_c, 0, 74, 81
1, 3779339, Note_on_c, 0, 66, 102
1, 3787121, Note_off_c, 0, 66, 102
1, 3787121, Note_on_c, 0, 64, 94
1, 3797185, Note_off_c, 0, 64, 94
1, 3812106, Note_on_c, 0, 63, 112
1, 3817255, Note_off_c, 0, 63, 112
1, 3817723, Note_on_c, 0, 65, 105
1, 3823223, Note_off_c, 0, 65, 105
1, 3823574, Note_on_c, 0, 66, 107
1, 3829893, Note_off_c, 0, 66, 107
1, 3830474, Note_on_c, 0, 68, 107
1, 3834804, Note_off_c, 0, 68, 107
1, 3836060, Note_on_c, 0, 70, 106
1, 3842807, Note_off_c, 0, 70, 106
1, 3842871, Note_on_c, 0, 73, 101
1, 3848254, Note_off_c, 0, 73, 101
1, 3848402, Note_on_c, 0, 70, 102
1, 3854326, Note_off_c, 0, 70, 102
1, 3854341, Note_on_c, 0, 73, 95
1, 3859607, Note_off_c, 0, 73, 95
1, 3859623, Note_on_c, 0, 70, 92
1, 3865357, Note_off_c, 0, 70, 92
1, 3865811, Note_on_c, 0, 66, 100
1, 3871434, Note_off_c, 0, 66, 100
1, 3871434, Note_on_c, 0, 68, 88
1, 3877402, Note_off_c, 0, 68, 88
1, 3878450, Note_on_c, 0, 65, 94
1, 3883248, Note_off_c, 0, 65, 94
1, 3883832, Note_on_c, 0, 68, 82
1, 3890619, Note_off_c, 0, 68, 82
1, 3891088, Note_on_c, 0, 65, 94
1, 3896822, Note_off_c, 0, 65, 94
1, 3896832, Note_on_c, 0, 64, 95
1, 3898236, Note_off_c, 0, 64, 95
1, 3898345, Note_on_c, 0, 65, 95
1, 3902792, Note_off_c, 0, 65, 95
1, 3902850, Note_on_c, 0, 64, 89
1, 3906185, Note_off_c, 0, 64, 89
1, 3906305, Note_on_c, 0, 65, 93
1, 3912039, Note_off_c, 0, 65, 93
1, 3912094, Note_on_c, 0, 63, 89
1, 3920227, Note_off_c, 0, 63, 89
1, 3933509, Note_on_c, 0, 61, 99
1, 3935908, Note_off_c, 0, 61, 99
1, 3936025, Note_on_c, 0, 63, 100
1, 3937663, Note_off_c, 0, 63, 100
1, 3937893, Note_on_c, 0, 65, 101
1, 3938949, Note_off_c, 0, 65, 101
1, 3938949, Note_on_c, 0, 71, 101
1, 3941289, Note_off_c, 0, 71, 101
1, 3941464, Note_on_c, 0, 69, 99
1, 3944155, Note_off_c, 0, 69, 99
1, 3945266, Note_on_c, 0, 65, 94
1, 3947957, Note_off_c, 0, 65, 94
1, 3947957, Note_on_c, 0, 61, 92
1, 3949185, Note_off_c, 0, 61, 92
1, 3949185, Note_on_c, 0, 63, 106
1, 3951642, Note_off_c, 0, 63, 106
1, 3952051, Note_on_c, 0, 61, 85
1, 3953806, Note_off_c, 0, 61, 85
1, 3954034, Note_on_c, 0, 67, 96
1, 3956608, Note_off_c, 0, 67, 96
1, 3957198, Note_on_c, 0, 65, 79
1, 3959363, Note_off_c, 0, 65, 79
1, 3959889, Note_on_c, 0, 66, 101
1, 3964219, Note_off_c, 0, 66, 101
1, 3968666, Note_on_c, 0, 65, 93
1, 3975512, Note_off_c, 0, 65, 93
1, 3975921, Note_on_c, 0, 60, 74
1, 3978261, Note_off_c, 0, 60, 74
1, 3978261, Note_on_c, 0, 63, 105
1, 3981245, Note_off_c, 0, 63, 105
1, 3981245, Note_on_c, 0, 62, 93
1, 3983585, Note_off_c, 0, 62, 93
1, 3983819, Note_on_c, 0, 61, 90
1, 3987329, Note_off_c, 0, 61, 90
1, 3987446, Note_on_c, 0, 57, 81
1, 3989962, Note_off_c, 0, 57, 81
1, 3990195, Note_on_c, 0, 60, 96
1, 3993062, Note_off_c, 0, 60, 96
1, 3993062, Note_on_c, 0, 58, 90
1, 3998386, Note_off_c, 0, 58, 90
1, 3998620, Note_on_c, 0, 63, 92
1, 4009328, Note_off_c, 0, 63, 92
1, 4014183, Note_on_c, 0, 60, 95
1, 4017225, Note_off_c, 0, 60, 95
1, 4017448, Note_on_c, 0, 58, 90
1, 4023299, Note_off_c, 0, 58, 90
1, 4023368, Note_on_c, 0, 56, 98
1, 4033198, Note_off_c, 0, 56, 98
1, 4035011, Note_on_c, 0, 56, 96
1, 4037936, Note_off_c, 0, 56, 96
1, 4038632, Note_on_c, 0, 53, 97
1, 4041095, Note_off_c, 0, 53, 97
1, 4041095, Note_on_c, 0, 48, 104
1, 4044605, Note_off_c, 0, 48, 104
1, 4044839, Note_on_c, 0, 46, 100
1, 4049988, Note_off_c, 0, 46, 100
1, 4050280, Note_on_c, 0, 44, 106
1, 4059583, Note_off_c, 0, 44, 106
1, 4068711, Note_on_c, 0, 71, 102
1, 4071461, Note_off_c, 0, 71, 102
1, 4071751, Note_on_c, 0, 67, 101
1, 4074208, Note_off_c, 0, 67, 101
1, 4074330, Note_on_c, 0, 71, 100
1, 4076490, Note_off_c, 0, 71, 100
1, 4076490, Note_on_c, 0, 67, 97
1, 4078713, Note_off_c, 0, 67, 97
1, 4078713, Note_on_c, 0, 66, 98
1, 4082106, Note_off_c, 0, 66, 98
1, 4082164, Note_on_c, 0, 64, 94
1, 4084563, Note_off_c, 0, 64, 94
1, 4084797, Note_on_c, 0, 69, 104
1, 4088190, Note_off_c, 0, 69, 104
1, 4089728, Note_on_c, 0, 66, 102
1, 4091993, Note_off_c, 0, 66, 102
1, 4091993, Note_on_c, 0, 61, 97
1, 4095386, Note_off_c, 0, 61, 97
1, 4095573, Note_on_c, 0, 64, 101
1, 4105918, Note_off_c, 0, 64, 101
1, 4105918, Note_on_c, 0, 62, 92
1, 4107731, Note_off_c, 0, 62, 92
1, 4107789, Note_on_c, 0, 61, 94
1, 4110071, Note_off_c, 0, 61, 94
1, 4110071, Note_on_c, 0, 59, 85
1, 4112470, Note_off_c, 0, 59, 85
1, 4112821, Note_on_c, 0, 64, 97
1, 4121130, Note_off_c, 0, 64, 97
1, 4121305, Note_on_c, 0, 61, 84
1, 4126103, Note_off_c, 0, 61, 84
1, 4126103, Note_on_c, 0, 57, 85
1, 4136284, Note_off_c, 0, 57, 85
1, 4147463, Note_on_c, 0, 57, 104
1, 4148532, Note_off_c, 0, 57, 104
1, 4148532, Note_on_c, 0, 58, 104
1, 4149354, Note_off_c, 0, 58, 104
1, 4149436, Note_on_c, 0, 57, 101
1, 4150258, Note_off_c, 0, 57, 101
1, 4150998, Note_on_c, 0, 60, 98
1, 4152336, Note_off_c, 0, 60, 98
1, 4152336, Note_on_c, 0, 61, 106
1, 4158339, Note_off_c, 0, 61, 106
1, 4158339, Note_on_c, 0, 62, 104
1, 4160035, Note_off_c, 0, 62, 104
1, 4160327, Note_on_c, 0, 63, 107
1, 4161789, Note_off_c, 0, 63, 107
1, 4162030, Note_on_c, 0, 64, 113
1, 4167991, Note_off_c, 0, 64, 113
1, 4167991, Note_on_c, 0, 62, 104
1, 4170097, Note_off_c, 0, 62, 104
1, 4170214, Note_on_c, 0, 64, 109
1, 4171910, Note_off_c, 0, 64, 109
1, 4172202, Note_on_c, 0, 65, 106
1, 4173196, Note_off_c, 0, 65, 106
1, 4173371, Note_on_c, 0, 66, 103
1, 4177993, Note_off_c, 0, 66, 103
1, 4178110, Note_on_c, 0, 69, 106
1, 4182674, Note_off_c, 0, 69, 106
1, 4184195, Note_on_c, 0, 73, 106
1, 4197243, Note_off_c, 0, 73, 106
1, 4209706, Note_on_c, 0, 45, 103
1, 4212339, Note_off_c, 0, 45, 103
1, 4212339, Note_on_c, 0, 46, 101
1, 4214855, Note_off_c, 0, 46, 101
1, 4214855, Note_on_c, 0, 50, 99
1, 4216844, Note_off_c, 0, 50, 99
1, 4217040, Note_on_c, 0, 53, 100
1, 4219242, Note_off_c, 0, 53, 100
1, 4219242, Note_on_c, 0, 57, 99
1, 4221465, Note_off_c, 0, 57, 99
1, 4221991, Note_on_c, 0, 58, 95
1, 4223980, Note_off_c, 0, 58, 95
1, 4223980, Note_on_c, 0, 55, 100
1, 4226320, Note_off_c, 0, 55, 100
1, 4226788, Note_on_c, 0, 53, 96
1, 4228836, Note_off_c, 0, 53, 96
1, 4229092, Note_on_c, 0, 52, 97
1, 4231176, Note_off_c, 0, 52, 97
1, 4231176, Note_on_c, 0, 55, 102
1, 4233282, Note_off_c, 0, 55, 102
1, 4233633, Note_on_c, 0, 58, 90
1, 4235973, Note_off_c, 0, 58, 90
1, 4236031, Note_on_c, 0, 62, 103
1, 4237844, Note_off_c, 0, 62, 103
1, 4238253, Note_on_c, 0, 56, 96
1, 4239306, Note_off_c, 0, 56, 96
1, 4239490, Note_on_c, 0, 57, 97
1, 4242298, Note_off_c, 0, 57, 97
1, 4242311, Note_on_c, 0, 58, 96
1, 4243575, Note_off_c, 0, 58, 96
1, 4243575, Note_on_c, 0, 62, 99
1, 4246032, Note_off_c, 0, 62, 99
1, 4246441, Note_on_c, 0, 64, 110
1, 4248313, Note_off_c, 0, 64, 110
1, 4248618, Note_on_c, 0, 65, 103
1, 4251420, Note_off_c, 0, 65, 103
1, 4251420, Note_on_c, 0, 66, 103
1, 4254111, Note_off_c, 0, 66, 103
1, 4254121, Note_on_c, 0, 67, 94
1, 4256110, Note_off_c, 0, 67, 94
1, 4256116, Note_on_c, 0, 67, 95
1, 4256619, Note_off_c, 0, 67, 95
1, 4256619, Note_on_c, 0, 69, 97
1, 4259193, Note_off_c, 0, 69, 97
1, 4259310, Note_on_c, 0, 70, 91
1, 4261182, Note_off_c, 0, 70, 91
1, 4261182, Note_on_c, 0, 71, 97
1, 4262761, Note_off_c, 0, 71, 97
1, 4262761, Note_on_c, 0, 73, 89
1, 4266154, Note_off_c, 0, 73, 89
1, 4266856, Note_on_c, 0, 69, 99
1, 4268669, Note_off_c, 0, 69, 99
1, 4268669, Note_on_c, 0, 71, 91
1, 4270775, Note_off_c, 0, 71, 91
1, 4272120, Note_on_c, 0, 61, 91
1, 4274314, Note_off_c, 0, 61, 91
1, 4274314, Note_on_c, 0, 64, 82
1, 4275425, Note_off_c, 0, 64, 82
1, 4275712, Note_on_c, 0, 71, 95
1, 4277502, Note_off_c, 0, 71, 95
1, 4277502, Note_on_c, 0, 69, 96
1, 4280661, Note_off_c, 0, 69, 96
1, 4280895, Note_on_c, 0, 67, 94
1, 4283235, Note_off_c, 0, 67, 94
1, 4284931, Note_on_c, 0, 66, 89
1, 4286686, Note_off_c, 0, 66, 89
1, 4287037, Note_on_c, 0, 67, 98
1, 4289904, Note_off_c, 0, 67, 98
1, 4290898, Note_on_c, 0, 69, 93
1, 4293648, Note_off_c, 0, 69, 93
1, 4293648, Note_on_c, 0, 66, 83
1, 4294935, Note_off_c, 0, 66, 83
1, 4294935, Note_on_c, 0, 65, 103
1, 4297041, Note_off_c, 0, 65, 103
1, 4297567, Note_on_c, 0, 64, 106
1, 4300375, Note_off_c, 0, 64, 106
1, 4300667, Note_on_c, 0, 62, 88
1, 4302656, Note_off_c, 0, 62, 88
1, 4302656, Note_on_c, 0, 63, 85
1, 4314066, Note_off_c, 0, 63, 85
1, 4318454, Note_on_c, 0, 62, 99
1, 4322901, Note_off_c, 0, 62, 99
1, 4324422, Note_on_c, 0, 56, 96
1, 4332028, Note_off_c, 0, 56, 96
1, 4334836, Note_on_c, 0, 59, 91
1, 4338463, Note_off_c, 0, 59, 91
1, 4341515, Note_on_c, 0, 57, 91
1, 4351228, Note_off_c, 0, 57, 91
1, 4352095, Note_on_c, 0, 53, 96
1, 4355664, Note_off_c, 0, 53, 96
1, 4355786, Note_on_c, 0, 55, 94
1, 4359993, Note_off_c, 0, 55, 94
1, 4359993, Note_on_c, 0, 54, 89
1, 4379010, Note_off_c, 0, 54, 89
1, 4390361, Note_on_c, 0, 49, 94
1, 4393754, Note_off_c, 0, 49, 94
1, 4393929, Note_on_c, 0, 52, 94
1, 4397439, Note_off_c, 0, 52, 94
1, 4397556, Note_on_c, 0, 50, 95
1, 4403407, Note_off_c, 0, 50, 95
1, 4403763, Note_on_c, 0, 52, 99
1, 4411955, Note_off_c, 0, 52, 99
1, 4411968, Note_on_c, 0, 53, 100
1, 4418854, Note_off_c, 0, 53, 100
1, 4418854, Note_on_c, 0, 55, 101
1, 4420433, Note_off_c, 0, 55, 101
1, 4420433, Note_on_c, 0, 57, 99
1, 4423124, Note_off_c, 0, 57, 99
1, 4423709, Note_on_c, 0, 60, 98
1, 4425698, Note_off_c, 0, 60, 98
1, 4426359, Note_on_c, 0, 57, 97
1, 4431157, Note_off_c, 0, 57, 97
1, 4431899, Note_on_c, 0, 59, 93
1, 4438686, Note_off_c, 0, 59, 93
1, 4440090, Note_on_c, 0, 64, 105
1, 4443015, Note_off_c, 0, 64, 105
1, 4443015, Note_on_c, 0, 65, 99
1, 4447403, Note_off_c, 0, 65, 99
1, 4448690, Note_on_c, 0, 69, 96
1, 4453137, Note_off_c, 0, 69, 96
1, 4453254, Note_on_c, 0, 71, 100
1, 4457057, Note_off_c, 0, 71, 100
1, 4457817, Note_on_c, 0, 74, 89
1, 4462381, Note_off_c, 0, 74, 89
1, 4462381, Note_on_c, 0, 76, 83
1, 4484265, Note_off_c, 0, 76, 83
1, 4493334, Note_on_c, 0, 71, 109
1, 4497430, Note_off_c, 0, 71, 109
1, 4497430, Note_on_c, 0, 73, 99
1, 4498424, Note_off_c, 0, 73, 99
1, 4498513, Note_on_c, 0, 74, 99
1, 4504169, Note_off_c, 0, 74, 99
1, 4504169, Note_on_c, 0, 71, 112
1, 4508721, Note_off_c, 0, 71, 112
1, 4508721, Note_on_c, 0, 73, 97
1, 4509540, Note_off_c, 0, 73, 97
1, 4509949, Note_on_c, 0, 74, 98
1, 4515449, Note_off_c, 0, 74, 98
1, 4515449, Note_on_c, 0, 71, 111
1, 4522353, Note_off_c, 0, 71, 111
1, 4522587, Note_on_c, 0, 70, 93
1, 4546109, Note_off_c, 0, 70, 93
1, 4553949, Note_on_c, 0, 69, 103
1, 4556757, Note_off_c, 0, 69, 103
1, 4556932, Note_on_c, 0, 70, 99
1, 4560208, Note_off_c, 0, 70, 99
1, 4561144, Note_on_c, 0, 73, 100
1, 4564654, Note_off_c, 0, 73, 100
1, 4564771, Note_on_c, 0, 74, 89
1, 4568164, Note_off_c, 0, 74, 89
1, 4570036, Note_on_c, 0, 69, 97
1, 4581329, Note_off_c, 0, 69, 97
1, 4584547, Note_on_c, 0, 65, 107
1, 4587803, Note_off_c, 0, 65, 107
1, 4587803, Note_on_c, 0, 64, 105
1, 4589871, Note_off_c, 0, 64, 105
1, 4589871, Note_on_c, 0, 67, 99
1, 4592972, Note_off_c, 0, 67, 99
1, 4592972, Note_on_c, 0, 62, 96
1, 4596190, Note_off_c, 0, 62, 96
1, 4596190, Note_on_c, 0, 65, 101
1, 4599115, Note_off_c, 0, 65, 101
1, 4599583, Note_on_c, 0, 62, 92
1, 4601982, Note_off_c, 0, 62, 92
1, 4602195, Note_on_c, 0, 64, 101
1, 4605822, Note_off_c, 0, 64, 101
1, 4606953, Note_on_c, 0, 56, 82
1, 4608591, Note_off_c, 0, 56, 82
1, 4609551, Note_on_c, 0, 64, 98
1, 4619474, Note_off_c, 0, 64, 98
1, 4619474, Note_on_c, 0, 62, 93
1, 4621873, Note_off_c, 0, 62, 93
1, 4621873, Note_on_c, 0, 59, 86
1, 4626261, Note_off_c, 0, 59, 86
1, 4626553, Note_on_c, 0, 62, 97
1, 4631643, Note_off_c, 0, 62, 97
1, 4631643, Note_on_c, 0, 59, 87
1, 4635563, Note_off_c, 0, 59, 87
1, 4635738, Note_on_c, 0, 59, 93
1, 4636147, Note_off_c, 0, 59, 93
1, 4636322, Note_on_c, 0, 58, 91
1, 4638838, Note_off_c, 0, 58, 91
1, 4638838, Note_on_c, 0, 59, 92
1, 4644923, Note_off_c, 0, 59, 92
1, 4644981, Note_on_c, 0, 52, 94
1, 4648199, Note_off_c, 0, 52, 94
1, 4648257, Note_on_c, 0, 57, 95
1, 4651182, Note_off_c, 0, 57, 95
1, 4651240, Note_on_c, 0, 55, 93
1, 4662533, Note_off_c, 0, 55, 93
1, 4662684, Note_on_c, 0, 54, 89
1, 4674737, Note_off_c, 0, 54, 89
1, 4686931, Note_on_c, 0, 53, 89
1, 4689505, Note_off_c, 0, 53, 89
1, 4689505, Note_on_c, 0, 54, 91
1, 4691435, Note_off_c, 0, 54, 91
1, 4691610, Note_on_c, 0, 58, 80
1, 4693189, Note_off_c, 0, 58, 80
1, 4693481, Note_on_c, 0, 64, 101
1, 4695587, Note_off_c, 0, 64, 101
1, 4696113, Note_on_c, 0, 58, 87
1, 4698336, Note_off_c, 0, 58, 87
1, 4698336, Note_on_c, 0, 59, 86
1, 4700325, Note_off_c, 0, 59, 86
1, 4700442, Note_on_c, 0, 62, 102
1, 4703601, Note_off_c, 0, 62, 102
1, 4703776, Note_on_c, 0, 63, 86
1, 4705882, Note_off_c, 0, 63, 86
1, 4708164, Note_on_c, 0, 68, 101
1, 4709919, Note_off_c, 0, 68, 101
1, 4711732, Note_on_c, 0, 74, 91
1, 4713721, Note_off_c, 0, 74, 91
1, 4713779, Note_on_c, 0, 70, 98
1, 4716470, Note_off_c, 0, 70, 98
1, 4716528, Note_on_c, 0, 71, 98
1, 4718751, Note_off_c, 0, 71, 98
1, 4719336, Note_on_c, 0, 62, 81
1, 4721208, Note_off_c, 0, 62, 81
1, 4721617, Note_on_c, 0, 63, 77
1, 4723840, Note_off_c, 0, 63, 77
1, 4724132, Note_on_c, 0, 71, 104
1, 4725770, Note_off_c, 0, 71, 104
1, 4725887, Note_on_c, 0, 70, 96
1, 4728695, Note_off_c, 0, 70, 96
1, 4728870, Note_on_c, 0, 69, 97
1, 4731678, Note_off_c, 0, 69, 97
1, 4731912, Note_on_c, 0, 68, 94
1, 4734545, Note_off_c, 0, 68, 94
1, 4734545, Note_on_c, 0, 67, 93
1, 4736768, Note_off_c, 0, 67, 93
1, 4736826, Note_on_c, 0, 65, 95
1, 4738522, Note_off_c, 0, 65, 95
1, 4738727, Note_on_c, 0, 66, 76
1, 4741535, Note_off_c, 0, 66, 76
1, 4742383, Note_on_c, 0, 68, 94
1, 4745893, Note_off_c, 0, 68, 94
1, 4747004, Note_on_c, 0, 70, 97
1, 4751860, Note_off_c, 0, 70, 97
1, 4752291, Note_on_c, 0, 65, 98
1, 4757440, Note_off_c, 0, 65, 98
1, 4757451, Note_on_c, 0, 66, 95
1, 4762624, Note_off_c, 0, 66, 95
1, 4762624, Note_on_c, 0, 63, 87
1, 4775672, Note_off_c, 0, 63, 87
1, 4788837, Note_on_c, 0, 62, 107
1, 4791528, Note_off_c, 0, 62, 107
1, 4791528, Note_on_c, 0, 63, 92
1, 4792581, Note_off_c, 0, 63, 92
1, 4793493, Note_on_c, 0, 63, 113
1, 4797823, Note_off_c, 0, 63, 113
1, 4798841, Note_on_c, 0, 65, 108
1, 4803229, Note_off_c, 0, 65, 108
1, 4805335, Note_on_c, 0, 70, 110
1, 4812473, Note_off_c, 0, 70, 110
1, 4813489, Note_on_c, 0, 70, 105
1, 4823319, Note_off_c, 0, 70, 105
1, 4824467, Note_on_c, 0, 68, 102
1, 4827626, Note_off_c, 0, 68, 102
1, 4828365, Note_on_c, 0, 71, 99
1, 4831524, Note_off_c, 0, 71, 99
1, 4831545, Note_on_c, 0, 64, 112
1, 4835582, Note_off_c, 0, 64, 112
1, 4835816, Note_on_c, 0, 66, 9
1, 4841257, Note_off_c, 0, 66, 9
1, 4841257, Note_on_c, 0, 60, 95
1, 4850970, Note_off_c, 0, 60, 95
1, 4851730, Note_on_c, 0, 64, 101
1, 4854772, Note_off_c, 0, 64, 101
1, 4854772, Note_on_c, 0, 60, 91
1, 4856702, Note_off_c, 0, 60, 91
1, 4856702, Note_on_c, 0, 56, 93
1, 4860680, Note_off_c, 0, 56, 93
1, 4860680, Note_on_c, 0, 64, 83
1, 4862435, Note_off_c, 0, 64, 83
1, 4862435, Note_on_c, 0, 60, 88
1, 4865009, Note_off_c, 0, 60, 88
1, 4865184, Note_on_c, 0, 56, 97
1, 4868168, Note_off_c, 0, 56, 97
1, 4868168, Note_on_c, 0, 52, 93
1, 4870918, Note_off_c, 0, 52, 93
1, 4870976, Note_on_c, 0, 48, 92
1, 4874194, Note_off_c, 0, 48, 92
1, 4874545, Note_on_c, 0, 54, 103
1, 4879577, Note_off_c, 0, 54, 103
1, 4879811, Note_on_c, 0, 52, 93
1, 4883321, Note_off_c, 0, 52, 93
1, 4883321, Note_on_c, 0, 48, 92
1, 4885486, Note_off_c, 0, 48, 92
1, 4885603, Note_on_c, 0, 45, 98
1, 4890752, Note_off_c, 0, 45, 98
1, 4890986, Note_on_c, 0, 44, 89
1, 4913631, Note_off_c, 0, 44, 89
1, 4930073, Note_on_c, 0, 56, 106
1, 4934051, Note_off_c, 0, 56, 106
1, 4935162, Note_on_c, 0, 58, 99
1, 4939667, Note_off_c, 0, 58, 99
1, 4939784, Note_on_c, 0, 56, 105
1, 4944231, Note_off_c, 0, 56, 105
1, 4944523, Note_on_c, 0, 55, 103
1, 4949321, Note_off_c, 0, 55, 103
1, 4949906, Note_on_c, 0, 56, 105
1, 4954353, Note_off_c, 0, 56, 105
1, 4955055, Note_on_c, 0, 56, 105
1, 4961198, Note_off_c, 0, 56, 105
1, 4961526, Note_on_c, 0, 56, 101
1, 4966787, Note_off_c, 0, 56, 101
1, 4966787, Note_on_c, 0, 63, 109
1, 4975213, Note_off_c, 0, 63, 109
1, 4975213, Note_on_c, 0, 63, 105
1, 4983398, Note_off_c, 0, 63, 105
1, 4983398, Note_on_c, 0, 63, 99
1, 4994047, Note_off_c, 0, 63, 99
1, 4994138, Note_on_c, 0, 63, 89
1, 5000164, Note_off_c, 0, 63, 89
1, 5000632, Note_on_c, 0, 60, 88
1, 5001977, Note_off_c, 0, 60, 88
1, 5002365, Note_on_c, 0, 61, 93
1, 5007865, Note_off_c, 0, 61, 93
1, 5007868, Note_on_c, 0, 60, 90
1, 5019453, Note_off_c, 0, 60, 90
1, 5019588, Note_on_c, 0, 58, 80
1, 5035620, Note_off_c, 0, 58, 80
1, 5035620, Note_on_c, 0, 57, 83
1, 5039130, Note_off_c, 0, 57, 83
1, 5039130, Note_on_c, 0, 58, 80
1, 5042231, Note_off_c, 0, 58, 80
1, 5043869, Note_on_c, 0, 61, 90
1, 5050422, Note_off_c, 0, 61, 90
1, 5050597, Note_on_c, 0, 58, 75
1, 5069672, Note_off_c, 0, 58, 75
1, 5088162, Note_on_c, 0, 73, 106
1, 5092901, Note_off_c, 0, 73, 106
1, 5092901, Note_on_c, 0, 72, 103
1, 5094539, Note_off_c, 0, 72, 103
1, 5094539, Note_on_c, 0, 70, 99
1, 5100097, Note_off_c, 0, 70, 99
1, 5100345, Note_on_c, 0, 73, 102
1, 5106196, Note_off_c, 0, 73, 102
1, 5106415, Note_on_c, 0, 72, 98
1, 5107468, Note_off_c, 0, 72, 98
1, 5107526, Note_on_c, 0, 70, 99
1, 5114372, Note_off_c, 0, 70, 99
1, 5114430, Note_on_c, 0, 66, 102
1, 5120866, Note_off_c, 0, 66, 102
1, 5121334, Note_on_c, 0, 67, 94
1, 5122621, Note_off_c, 0, 67, 94
1, 5122621, Note_on_c, 0, 68, 93
1, 5133914, Note_off_c, 0, 68, 93
1, 5134148, Note_on_c, 0, 64, 95
1, 5135552, Note_off_c, 0, 64, 95
1, 5135552, Note_on_c, 0, 65, 96
1, 5141871, Note_off_c, 0, 65, 96
1, 5142261, Note_on_c, 0, 63, 99
1, 5150218, Note_off_c, 0, 63, 99
1, 5154332, Note_on_c, 0, 66, 95
1, 5157491, Note_off_c, 0, 66, 95
1, 5157608, Note_on_c, 0, 67, 86
1, 5158661, Note_off_c, 0, 67, 86
1, 5158836, Note_on_c, 0, 69, 94
1, 5160474, Note_off_c, 0, 69, 94
1, 5160474, Note_on_c, 0, 72, 77
1, 5162112, Note_off_c, 0, 72, 77
1, 5162860, Note_on_c, 0, 69, 97
1, 5166136, Note_off_c, 0, 69, 97
1, 5169717, Note_on_c, 0, 65, 100
1, 5170828, Note_off_c, 0, 65, 100
1, 5170886, Note_on_c, 0, 66, 90
1, 5171880, Note_off_c, 0, 66, 90
1, 5171880, Note_on_c, 0, 61, 82
1, 5176327, Note_off_c, 0, 61, 82
1, 5176327, Note_on_c, 0, 63, 90
1, 5178609, Note_off_c, 0, 63, 90
1, 5179135, Note_on_c, 0, 67, 92
1, 5180890, Note_off_c, 0, 67, 92
1, 5182177, Note_on_c, 0, 66, 96
1, 5183873, Note_off_c, 0, 66, 96
1, 5183873, Note_on_c, 0, 65, 94
1, 5186447, Note_off_c, 0, 65, 94
1, 5187085, Note_on_c, 0, 64, 92
1, 5189060, Note_off_c, 0, 64, 92
1, 5189060, Note_on_c, 0, 63, 91
1, 5192570, Note_off_c, 0, 63, 91
1, 5193232, Note_on_c, 0, 58, 92
1, 5196157, Note_off_c, 0, 58, 92
1, 5197093, Note_on_c, 0, 53, 77
1, 5199492, Note_off_c, 0, 53, 77
1, 5199492, Note_on_c, 0, 56, 90
1, 5201832, Note_off_c, 0, 56, 90
1, 5202066, Note_on_c, 0, 57, 87
1, 5204699, Note_off_c, 0, 57, 87
1, 5204699, Note_on_c, 0, 60, 91
1, 5207683, Note_off_c, 0, 60, 91
1, 5209145, Note_on_c, 0, 57, 79
1, 5213533, Note_off_c, 0, 57, 79
1, 5213591, Note_on_c, 0, 58, 87
1, 5216282, Note_off_c, 0, 58, 87
1, 5217686, Note_on_c, 0, 60, 85
1, 5219011, Note_off_c, 0, 60, 85
1, 5219011, Note_on_c, 0, 61, 89
1, 5223127, Note_off_c, 0, 61, 89
1, 5223127, Note_on_c, 0, 63, 92
1, 5224999, Note_off_c, 0, 63, 92
1, 5225340, Note_on_c, 0, 65, 94
1, 5227797, Note_off_c, 0, 65, 94
1, 5227798, Note_on_c, 0, 66, 96
1, 5229912, Note_off_c, 0, 66, 96
1, 5229912, Note_on_c, 0, 68, 85
1, 5232545, Note_off_c, 0, 68, 85
1, 5232817, Note_on_c, 0, 70, 89
1, 5235508, Note_off_c, 0, 70, 89
1, 5235518, Note_on_c, 0, 72, 84
1, 5238911, Note_off_c, 0, 72, 84
1, 5239266, Note_on_c, 0, 75, 73
1, 5246059, Note_off_c, 0, 75, 73
1, 5246059, Note_on_c, 0, 73, 73
1, 5260687, Note_off_c, 0, 73, 73
1, 5260687, Note_on_c, 0, 73, 75
1, 5262032, Note_off_c, 0, 73, 75
1, 5262032, Note_on_c, 0, 75, 65
1, 5265893, Note_off_c, 0, 75, 65
1, 5270691, Note_on_c, 0, 72, 72
1, 5276952, Note_off_c, 0, 72, 72
1, 5276952, Note_on_c, 0, 68, 77
1, 5283622, Note_off_c, 0, 68, 77
1, 5284090, Note_on_c, 0, 73, 79
1, 5303809, Note_off_c, 0, 73, 79
1, 5314634, Note_on_c, 0, 72, 96
1, 5318261, Note_off_c, 0, 72, 96
1, 5318261, Note_on_c, 0, 68, 94
1, 5321888, Note_off_c, 0, 68, 94
1, 5322531, Note_on_c, 0, 65, 95
1, 5327680, Note_off_c, 0, 65, 95
1, 5328031, Note_on_c, 0, 71, 92
1, 5332361, Note_off_c, 0, 71, 92
1, 5332770, Note_on_c, 0, 68, 89
1, 5337919, Note_off_c, 0, 68, 89
1, 5338153, Note_on_c, 0, 65, 95
1, 5341429, Note_off_c, 0, 65, 95
1, 5341429, Note_on_c, 0, 63, 89
1, 5347163, Note_off_c, 0, 63, 89
1, 5347455, Note_on_c, 0, 62, 78
1, 5365828, Note_off_c, 0, 62, 78
1, 5367641, Note_on_c, 0, 59, 86
1, 5370742, Note_off_c, 0, 59, 86
1, 5370742, Note_on_c, 0, 58, 74
1, 5398185, Note_off_c, 0, 58, 74
1, 5398185, End_track
0, 0, End_of_file
