0, 0, Header, 1, 1, 192
1, 0, Start_track
1, 0, Title_t, "Melody"
1, 0, Tempo, 198019
1, 0, Key_signature, -1, "major"
1, 0, Time_signature, 4, 2, 24, 8
1, 6731, Note_on_c, 0, 57, 100
1, 6837, Note_off_c, 0, 57, 100
1, 6848, Note_on_c, 0, 53, 103
1, 6923, Note_off_c, 0, 53, 103
1, 6934, Note_on_c, 0, 52, 105
1, 7021, Note_off_c, 0, 52, 105
1, 7036, Note_on_c, 0, 57, 100
1, 7115, Note_off_c, 0, 57, 100
1, 7134, Note_on_c, 0, 62, 116
1, 7228, Note_off_c, 0, 62, 116
1, 7231, Note_on_c, 0, 58, 117
1, 7310, Note_off_c, 0, 58, 117
1, 7317, Note_on_c, 0, 55, 112
1, 7408, Note_off_c, 0, 55, 112
1, 7408, Note_on_c, 0, 58, 117
1, 7487, Note_off_c, 0, 58, 117
1, 7494, Note_on_c, 0, 60, 116
1, 7608, Note_off_c, 0, 60, 116
1, 7619, Note_on_c, 0, 57, 114
1, 7706, Note_off_c, 0, 57, 114
1, 7709, Note_on_c, 0, 58, 108
1, 7823, Note_on_c, 0, 60, 110
1, 7823, Note_off_c, 0, 58, 108
1, 7917, Note_off_c, 0, 60, 110
1, 7920, Note_on_c, 0, 61, 101
1, 7991, Note_off_c, 0, 61, 101
1, 7991, Note_on_c, 0, 63, 101
1, 8042, Note_off_c, 0, 63, 101
1, 8057, Note_on_c, 0, 64, 103
1, 8112, Note_off_c, 0, 64, 103
1, 8120, Note_on_c, 0, 67, 107
1, 8248, Note_off_c, 0, 67, 107
1, 8255, Note_on_c, 0, 64, 100
1, 8298, Note_off_c, 0, 64, 100
1, 8320, Note_on_c, 0, 65, 99
1, 8422, Note_on_c, 0, 72, 105
1, 8422, Note_off_c, 0, 65, 99
1, 8507, Note_off_c, 0, 72, 105
1, 8522, Note_on_c, 0, 69, 104
1, 8630, Note_off_c, 0, 69, 104
1, 8652, Note_on_c, 0, 65, 106
1, 8722, Note_off_c, 0, 65, 106
1, 8738, Note_on_c, 0, 64, 101
1, 8857, Note_off_c, 0, 64, 101
1, 8881, Note_on_c, 0, 62, 92
1, 8956, Note_off_c, 0, 62, 92
1, 9004, Note_on_c, 0, 67, 100
1, 9251, Note_off_c, 0, 67, 100
1, 9276, Note_on_c, 0, 65, 106
1, 9367, Note_off_c, 0, 65, 106
1, 9382, Note_on_c, 0, 67, 97
1, 9422, Note_off_c, 0, 67, 97
1, 9427, Note_on_c, 0, 65, 105
1, 9463, Note_off_c, 0, 65, 105
1, 9474, Note_on_c, 0, 64, 111
1, 9614, Note_off_c, 0, 64, 111
1, 9630, Note_on_c, 0, 62, 110
1, 9738, Note_off_c, 0, 62, 110
1, 9772, Note_on_c, 0, 60, 97
1, 9878, Note_off_c, 0, 60, 97
1, 9984, Note_on_c, 0, 60, 104
1, 10118, Note_off_c, 0, 60, 104
1, 10228, Note_on_c, 0, 58, 96
1, 10421, Note_off_c, 0, 58, 96
1, 10512, Note_on_c, 0, 57, 101
1, 10638, Note_off_c, 0, 57, 101
1, 11134, Note_on_c, 0, 60, 107
1, 11418, Note_off_c, 0, 60, 107
1, 11470, Note_on_c, 0, 57, 105
1, 11510, Note_off_c, 0, 57, 105
1, 11519, Note_on_c, 0, 58, 101
1, 11585, Note_off_c, 0, 58, 101
1, 11593, Note_on_c, 0, 57, 93
1, 11621, Note_off_c, 0, 57, 93
1, 11847, Note_on_c, 0, 56, 88
1, 11894, Note_off_c, 0, 56, 88
1, 11901, Note_on_c, 0, 57, 104
1, 12003, Note_off_c, 0, 57, 104
1, 12039, Note_on_c, 0, 55, 99
1, 12110, Note_off_c, 0, 55, 99
1, 12145, Note_on_c, 0, 53, 100
1, 12204, Note_off_c, 0, 53, 100
1, 12285, Note_on_c, 0, 54, 100
1, 12321, Note_off_c, 0, 54, 100
1, 12328, Note_on_c, 0, 55, 97
1, 12416, Note_off_c, 0, 55, 97
1, 12494, Note_on_c, 0, 53, 103
1, 12620, Note_off_c, 0, 53, 103
1, 12642, Note_on_c, 0, 54, 104
1, 12703, Note_off_c, 0, 54, 104
1, 12745, Note_on_c, 0, 57, 101
1, 12808, Note_off_c, 0, 57, 101
1, 12842, Note_on_c, 0, 52, 97
1, 12961, Note_off_c, 0, 52, 97
1, 13064, Note_on_c, 0, 55, 108
1, 13194, Note_off_c, 0, 55, 108
1, 13283, Note_on_c, 0, 53, 104
1, 13370, Note_off_c, 0, 53, 104
1, 13379, Note_on_c, 0, 50, 107
1, 13440, Note_off_c, 0, 50, 107
1, 14564, Note_on_c, 0, 56, 95
1, 14624, Note_off_c, 0, 56, 95
1, 14643, Note_on_c, 0, 59, 113
1, 14720, Note_off_c, 0, 59, 113
1, 14738, Note_on_c, 0, 56, 100
1, 14833, Note_off_c, 0, 56, 100
1, 14837, Note_on_c, 0, 57, 103
1, 14915, Note_off_c, 0, 57, 103
1, 14917, Note_on_c, 0, 58, 106
1, 14992, Note_off_c, 0, 58, 106
1, 15010, Note_on_c, 0, 60, 120
1, 15094, Note_off_c, 0, 60, 120
1, 15302, Note_on_c, 0, 60, 114
1, 15354, Note_off_c, 0, 60, 114
1, 15362, Note_on_c, 0, 61, 102
1, 15442, Note_off_c, 0, 61, 102
1, 15456, Note_on_c, 0, 64, 87
1, 15550, Note_off_c, 0, 64, 87
1, 15593, Note_on_c, 0, 67, 106
1, 15743, Note_off_c, 0, 67, 106
1, 15877, Note_on_c, 0, 66, 116
1, 15981, Note_off_c, 0, 66, 116
1, 15984, Note_on_c, 0, 65, 107
1, 16084, Note_off_c, 0, 65, 107
1, 16089, Note_on_c, 0, 64, 112
1, 16178, Note_off_c, 0, 64, 112
1, 16191, Note_on_c, 0, 62, 107
1, 16254, Note_off_c, 0, 62, 107
1, 16265, Note_on_c, 0, 61, 104
1, 16340, Note_off_c, 0, 61, 104
1, 16343, Note_on_c, 0, 60, 103
1, 16456, Note_off_c, 0, 60, 103
1, 16469, Note_on_c, 0, 59, 99
1, 16536, Note_off_c, 0, 59, 99
1, 16545, Note_on_c, 0, 58, 98
1, 16643, Note_off_c, 0, 58, 98
1, 16756, Note_on_c, 0, 54, 100
1, 16854, Note_off_c, 0, 54, 100
1, 16920, Note_on_c, 0, 61, 111
1, 17026, Note_off_c, 0, 61, 111
1, 17122, Note_on_c, 0, 58, 99
1, 17201, Note_off_c, 0, 58, 99
1, 17224, Note_on_c, 0, 61, 97
1, 17307, Note_off_c, 0, 61, 97
1, 17323, Note_on_c, 0, 64, 122
1, 17444, Note_off_c, 0, 64, 122
1, 17476, Note_on_c, 0, 61, 99
1, 17543, Note_off_c, 0, 61, 99
1, 17547, Note_on_c, 0, 62, 111
1, 17710, Note_off_c, 0, 62, 111
1, 17731, Note_on_c, 0, 64, 106
1, 17846, Note_off_c, 0, 64, 106
1, 17931, Note_on_c, 0, 64, 114
1, 18036, Note_off_c, 0, 64, 114
1, 18036, Note_on_c, 0, 65, 113
1, 18145, Note_off_c, 0, 65, 113
1, 18164, Note_on_c, 0, 62, 102
1, 18277, Note_off_c, 0, 62, 102
1, 18890, Note_on_c, 0, 65, 114
1, 19019, Note_off_c, 0, 65, 114
1, 19021, Note_on_c, 0, 66, 101
1, 19087, Note_off_c, 0, 66, 101
1, 19102, Note_on_c, 0, 70, 109
1, 19207, Note_off_c, 0, 70, 109
1, 19221, Note_on_c, 0, 66, 112
1, 19291, Note_off_c, 0, 66, 112
1, 19306, Note_on_c, 0, 64, 99
1, 19383, Note_off_c, 0, 64, 99
1, 19400, Note_on_c, 0, 62, 103
1, 19465, Note_off_c, 0, 62, 103
1, 19465, Note_on_c, 0, 68, 109
1, 19538, Note_off_c, 0, 68, 109
1, 19586, Note_on_c, 0, 59, 91
1, 19656, Note_off_c, 0, 59, 91
1, 19666, Note_on_c, 0, 60, 93
1, 19772, Note_off_c, 0, 60, 93
1, 19777, Note_on_c, 0, 67, 109
1, 19858, Note_off_c, 0, 67, 109
1, 19952, Note_on_c, 0, 64, 94
1, 19995, Note_off_c, 0, 64, 94
1, 20010, Note_on_c, 0, 62, 101
1, 20062, Note_off_c, 0, 62, 101
1, 20101, Note_on_c, 0, 58, 95
1, 20184, Note_off_c, 0, 58, 95
1, 20270, Note_on_c, 0, 62, 105
1, 20367, Note_off_c, 0, 62, 105
1, 20662, Note_on_c, 0, 57, 114
1, 20780, Note_off_c, 0, 57, 114
1, 21058, Note_on_c, 0, 60, 117
1, 21193, Note_off_c, 0, 60, 117
1, 21369, Note_on_c, 0, 57, 99
1, 21463, Note_off_c, 0, 57, 99
1, 21474, Note_on_c, 0, 58, 100
1, 21600, Note_off_c, 0, 58, 100
1, 21631, Note_on_c, 0, 60, 106
1, 21729, Note_off_c, 0, 60, 106
1, 21814, Note_on_c, 0, 62, 110
1, 21992, Note_off_c, 0, 62, 110
1, 22004, Note_on_c, 0, 64, 106
1, 22407, Note_off_c, 0, 64, 106
1, 22438, Note_on_c, 0, 60, 96
1, 22517, Note_off_c, 0, 60, 96
1, 22612, Note_on_c, 0, 62, 109
1, 22759, Note_off_c, 0, 62, 109
1, 22777, Note_on_c, 0, 64, 109
1, 23170, Note_off_c, 0, 64, 109
1, 23184, Note_on_c, 0, 60, 97
1, 23278, Note_off_c, 0, 60, 97
1, 23373, Note_on_c, 0, 60, 100
1, 23503, Note_off_c, 0, 60, 100
1, 23944, Note_on_c, 0, 64, 126
1, 24057, Note_off_c, 0, 64, 126
1, 24065, Note_on_c, 0, 62, 119
1, 24152, Note_off_c, 0, 62, 119
1, 24167, Note_on_c, 0, 60, 107
1, 24238, Note_off_c, 0, 60, 107
1, 24257, Note_on_c, 0, 59, 100
1, 24342, Note_off_c, 0, 59, 100
1, 24363, Note_on_c, 0, 58, 100
1, 24458, Note_off_c, 0, 58, 100
1, 24459, Note_on_c, 0, 55, 89
1, 24530, Note_off_c, 0, 55, 89
1, 24533, Note_on_c, 0, 56, 99
1, 24635, Note_off_c, 0, 56, 99
1, 24652, Note_on_c, 0, 57, 102
1, 24742, Note_off_c, 0, 57, 102
1, 24756, Note_on_c, 0, 53, 92
1, 24853, Note_off_c, 0, 53, 92
1, 24867, Note_on_c, 0, 52, 84
1, 24920, Note_off_c, 0, 52, 84
1, 24929, Note_on_c, 0, 55, 95
1, 25024, Note_off_c, 0, 55, 95
1, 25291, Note_on_c, 0, 54, 103
1, 25375, Note_off_c, 0, 54, 103
1, 25481, Note_on_c, 0, 50, 96
1, 25569, Note_off_c, 0, 50, 96
1, 26359, Note_on_c, 0, 57, 106
1, 26430, Note_off_c, 0, 57, 106
1, 26449, Note_on_c, 0, 56, 96
1, 26567, Note_off_c, 0, 56, 96
1, 26593, Note_on_c, 0, 53, 102
1, 26681, Note_off_c, 0, 53, 102
1, 26856, Note_on_c, 0, 55, 103
1, 26957, Note_off_c, 0, 55, 103
1, 26975, Note_on_c, 0, 54, 102
1, 27060, Note_off_c, 0, 54, 102
1, 27078, Note_on_c, 0, 53, 94
1, 27176, Note_off_c, 0, 53, 94
1, 27244, Note_on_c, 0, 52, 96
1, 27370, Note_off_c, 0, 52, 96
1, 27568, Note_on_c, 0, 57, 103
1, 27625, Note_off_c, 0, 57, 103
1, 27633, Note_on_c, 0, 62, 105
1, 27755, Note_off_c, 0, 62, 105
1, 27767, Note_on_c, 0, 61, 104
1, 27858, Note_off_c, 0, 61, 104
1, 27869, Note_on_c, 0, 60, 104
1, 27949, Note_off_c, 0, 60, 104
1, 27960, Note_on_c, 0, 59, 104
1, 28043, Note_off_c, 0, 59, 104
1, 28050, Note_on_c, 0, 58, 97
1, 28144, Note_off_c, 0, 58, 97
1, 28167, Note_on_c, 0, 56, 102
1, 28220, Note_off_c, 0, 56, 102
1, 28252, Note_on_c, 0, 57, 105
1, 28344, Note_off_c, 0, 57, 105
1, 28369, Note_on_c, 0, 54, 94
1, 28423, Note_off_c, 0, 54, 94
1, 28438, Note_on_c, 0, 55, 92
1, 28521, Note_off_c, 0, 55, 92
1, 28542, Note_on_c, 0, 57, 101
1, 28603, Note_off_c, 0, 57, 101
1, 28617, Note_on_c, 0, 58, 100
1, 28707, Note_off_c, 0, 58, 100
1, 28709, Note_on_c, 0, 62, 108
1, 28792, Note_off_c, 0, 62, 108
1, 28803, Note_on_c, 0, 64, 106
1, 28894, Note_off_c, 0, 64, 106
1, 28901, Note_on_c, 0, 65, 104
1, 28991, Note_off_c, 0, 65, 104
1, 29003, Note_on_c, 0, 67, 97
1, 29078, Note_off_c, 0, 67, 97
1, 29162, Note_on_c, 0, 69, 119
1, 29313, Note_off_c, 0, 69, 119
1, 29317, Note_on_c, 0, 70, 114
1, 29549, Note_off_c, 0, 70, 114
1, 29579, Note_on_c, 0, 67, 110
1, 29721, Note_off_c, 0, 67, 110
1, 30258, Note_on_c, 0, 67, 121
1, 30352, Note_off_c, 0, 67, 121
1, 30360, Note_on_c, 0, 64, 116
1, 30461, Note_off_c, 0, 64, 116
1, 30475, Note_on_c, 0, 62, 114
1, 30563, Note_off_c, 0, 62, 114
1, 30582, Note_on_c, 0, 60, 104
1, 30662, Note_off_c, 0, 60, 104
1, 30666, Note_on_c, 0, 58, 105
1, 30732, Note_off_c, 0, 58, 105
1, 30744, Note_on_c, 0, 57, 101
1, 30887, Note_off_c, 0, 57, 101
1, 30897, Note_on_c, 0, 60, 102
1, 30987, Note_off_c, 0, 60, 102
1, 30996, Note_on_c, 0, 62, 95
1, 31083, Note_off_c, 0, 62, 95
1, 31090, Note_on_c, 0, 67, 106
1, 31279, Note_off_c, 0, 67, 106
1, 31983, Note_on_c, 0, 67, 114
1, 32196, Note_off_c, 0, 67, 114
1, 32231, Note_on_c, 0, 67, 99
1, 32298, Note_off_c, 0, 67, 99
1, 32304, Note_on_c, 0, 67, 111
1, 32434, Note_off_c, 0, 67, 111
1, 32467, Note_on_c, 0, 67, 89
1, 32546, Note_off_c, 0, 67, 89
1, 32561, Note_on_c, 0, 67, 87
1, 32663, Note_off_c, 0, 67, 87
1, 32703, Note_on_c, 0, 67, 107
1, 32857, Note_off_c, 0, 67, 107
1, 32871, Note_on_c, 0, 67, 95
1, 32934, Note_off_c, 0, 67, 95
1, 32965, Note_on_c, 0, 67, 92
1, 33052, Note_off_c, 0, 67, 92
1, 33095, Note_on_c, 0, 67, 105
1, 33249, Note_off_c, 0, 67, 105
1, 33272, Note_on_c, 0, 67, 108
1, 33355, Note_off_c, 0, 67, 108
1, 33378, Note_on_c, 0, 67, 104
1, 33465, Note_off_c, 0, 67, 104
1, 33504, Note_on_c, 0, 67, 109
1, 33626, Note_off_c, 0, 67, 109
1, 33633, Note_on_c, 0, 67, 94
1, 33716, Note_off_c, 0, 67, 94
1, 33739, Note_on_c, 0, 67, 92
1, 33814, Note_off_c, 0, 67, 92
1, 33826, Note_on_c, 0, 67, 97
1, 34422, Note_off_c, 0, 67, 97
1, 34485, Note_on_c, 0, 72, 103
1, 34643, Note_off_c, 0, 72, 103
1, 35145, Note_on_c, 0, 67, 112
1, 35295, Note_off_c, 0, 67, 112
1, 35330, Note_on_c, 0, 67, 92
1, 35413, Note_off_c, 0, 67, 92
1, 35439, Note_on_c, 0, 67, 104
1, 35599, Note_off_c, 0, 67, 104
1, 35634, Note_on_c, 0, 67, 96
1, 35709, Note_off_c, 0, 67, 96
1, 35744, Note_on_c, 0, 67, 93
1, 35831, Note_off_c, 0, 67, 93
1, 35846, Note_on_c, 0, 67, 107
1, 35968, Note_off_c, 0, 67, 107
1, 35979, Note_on_c, 0, 67, 99
1, 36062, Note_off_c, 0, 67, 99
1, 36073, Note_on_c, 0, 67, 93
1, 36136, Note_off_c, 0, 67, 93
1, 36175, Note_on_c, 0, 67, 106
1, 36301, Note_off_c, 0, 67, 106
1, 36328, Note_on_c, 0, 67, 93
1, 36399, Note_off_c, 0, 67, 93
1, 36434, Note_on_c, 0, 67, 97
1, 36505, Note_off_c, 0, 67, 97
1, 36548, Note_on_c, 0, 67, 102
1, 36666, Note_off_c, 0, 67, 102
1, 36709, Note_on_c, 0, 67, 96
1, 36792, Note_off_c, 0, 67, 96
1, 36839, Note_on_c, 0, 67, 93
1, 36933, Note_off_c, 0, 67, 93
1, 36989, Note_on_c, 0, 67, 102
1, 37357, Note_off_c, 0, 67, 102
1, 37382, Note_on_c, 0, 62, 91
1, 37538, Note_off_c, 0, 62, 91
1, 38134, Note_on_c, 0, 74, 104
1, 38229, Note_off_c, 0, 74, 104
1, 38238, Note_on_c, 0, 72, 102
1, 38319, Note_off_c, 0, 72, 102
1, 38327, Note_on_c, 0, 71, 109
1, 38438, Note_off_c, 0, 71, 109
1, 38446, Note_on_c, 0, 69, 113
1, 38507, Note_off_c, 0, 69, 113
1, 38528, Note_on_c, 0, 68, 100
1, 38636, Note_off_c, 0, 68, 100
1, 38641, Note_on_c, 0, 66, 105
1, 38725, Note_off_c, 0, 66, 105
1, 38730, Note_on_c, 0, 65, 105
1, 38815, Note_off_c, 0, 65, 105
1, 38827, Note_on_c, 0, 64, 107
1, 38919, Note_off_c, 0, 64, 107
1, 38924, Note_on_c, 0, 62, 103
1, 39008, Note_off_c, 0, 62, 103
1, 39016, Note_on_c, 0, 60, 93
1, 39097, Note_off_c, 0, 60, 93
1, 39108, Note_on_c, 0, 59, 92
1, 39209, Note_off_c, 0, 59, 92
1, 39232, Note_on_c, 0, 56, 95
1, 39303, Note_off_c, 0, 56, 95
1, 39311, Note_on_c, 0, 57, 91
1, 39394, Note_off_c, 0, 57, 91
1, 39401, Note_on_c, 0, 58, 90
1, 39464, Note_off_c, 0, 58, 90
1, 39469, Note_on_c, 0, 60, 100
1, 39585, Note_off_c, 0, 60, 100
1, 39593, Note_on_c, 0, 57, 94
1, 39659, Note_off_c, 0, 57, 94
1, 39674, Note_on_c, 0, 58, 91
1, 39768, Note_off_c, 0, 58, 91
1, 39777, Note_on_c, 0, 60, 103
1, 39858, Note_off_c, 0, 60, 103
1, 39865, Note_on_c, 0, 61, 96
1, 39952, Note_off_c, 0, 61, 96
1, 39971, Note_on_c, 0, 65, 94
1, 40045, Note_off_c, 0, 65, 94
1, 40056, Note_on_c, 0, 69, 110
1, 40151, Note_off_c, 0, 69, 110
1, 40156, Note_on_c, 0, 70, 99
1, 40196, Note_off_c, 0, 70, 99
1, 40205, Note_on_c, 0, 69, 107
1, 40262, Note_off_c, 0, 69, 107
1, 40270, Note_on_c, 0, 67, 104
1, 40351, Note_off_c, 0, 67, 104
1, 40360, Note_on_c, 0, 65, 104
1, 40416, Note_off_c, 0, 65, 104
1, 40424, Note_on_c, 0, 64, 112
1, 40529, Note_off_c, 0, 64, 112
1, 40806, Note_on_c, 0, 67, 110
1, 40922, Note_off_c, 0, 67, 110
1, 41086, Note_on_c, 0, 66, 114
1, 41177, Note_off_c, 0, 66, 114
1, 41185, Note_on_c, 0, 65, 108
1, 41275, Note_off_c, 0, 65, 108
1, 41283, Note_on_c, 0, 64, 112
1, 41371, Note_off_c, 0, 64, 112
1, 41389, Note_on_c, 0, 62, 106
1, 41480, Note_off_c, 0, 62, 106
1, 41495, Note_on_c, 0, 61, 97
1, 41555, Note_off_c, 0, 61, 97
1, 41563, Note_on_c, 0, 58, 96
1, 41644, Note_off_c, 0, 58, 96
1, 41677, Note_on_c, 0, 55, 96
1, 41782, Note_off_c, 0, 55, 96
1, 41800, Note_on_c, 0, 56, 92
1, 41919, Note_off_c, 0, 56, 92
1, 41927, Note_on_c, 0, 57, 100
1, 42014, Note_off_c, 0, 57, 100
1, 42033, Note_on_c, 0, 53, 95
1, 42134, Note_off_c, 0, 53, 95
1, 42147, Note_on_c, 0, 50, 90
1, 42257, Note_off_c, 0, 50, 90
1, 42344, Note_on_c, 0, 55, 98
1, 42443, Note_off_c, 0, 55, 98
1, 42496, Note_on_c, 0, 52, 87
1, 42573, Note_off_c, 0, 52, 87
1, 42595, Note_on_c, 0, 53, 88
1, 42661, Note_off_c, 0, 53, 88
1, 42668, Note_on_c, 0, 55, 95
1, 42772, Note_off_c, 0, 55, 95
1, 42772, Note_on_c, 0, 56, 84
1, 42866, Note_off_c, 0, 56, 84
1, 42881, Note_on_c, 0, 59, 98
1, 42954, Note_off_c, 0, 59, 98
1, 42959, Note_on_c, 0, 61, 97
1, 43034, Note_off_c, 0, 61, 97
1, 43046, Note_on_c, 0, 58, 95
1, 43119, Note_off_c, 0, 58, 95
1, 43127, Note_on_c, 0, 59, 96
1, 43215, Note_off_c, 0, 59, 96
1, 43234, Note_on_c, 0, 61, 102
1, 43335, Note_off_c, 0, 61, 102
1, 43347, Note_on_c, 0, 63, 99
1, 43434, Note_off_c, 0, 63, 99
1, 43448, Note_on_c, 0, 65, 98
1, 43544, Note_off_c, 0, 65, 98
1, 43549, Note_on_c, 0, 66, 94
1, 43620, Note_off_c, 0, 66, 94
1, 43628, Note_on_c, 0, 70, 96
1, 43708, Note_off_c, 0, 70, 96
1, 43734, Note_on_c, 0, 68, 93
1, 43814, Note_off_c, 0, 68, 93
1, 43874, Note_on_c, 0, 65, 85
1, 43938, Note_off_c, 0, 65, 85
1, 43997, Note_on_c, 0, 67, 102
1, 44065, Note_off_c, 0, 67, 102
1, 44086, Note_on_c, 0, 65, 97
1, 44142, Note_off_c, 0, 65, 97
1, 44151, Note_on_c, 0, 63, 85
1, 44190, Note_off_c, 0, 63, 85
1, 44225, Note_on_c, 0, 61, 93
1, 44260, Note_off_c, 0, 61, 93
1, 44316, Note_on_c, 0, 58, 97
1, 44438, Note_off_c, 0, 58, 97
1, 44466, Note_on_c, 0, 64, 107
1, 44564, Note_off_c, 0, 64, 107
1, 44787, Note_on_c, 0, 62, 107
1, 44896, Note_off_c, 0, 62, 107
1, 44904, Note_on_c, 0, 60, 94
1, 44995, Note_off_c, 0, 60, 94
1, 45006, Note_on_c, 0, 58, 87
1, 45086, Note_off_c, 0, 58, 87
1, 45088, Note_on_c, 0, 60, 98
1, 45194, Note_off_c, 0, 60, 98
1, 45447, Note_on_c, 0, 60, 99
1, 45694, Note_off_c, 0, 60, 99
1, 45696, Note_on_c, 0, 62, 91
1, 45757, Note_off_c, 0, 62, 91
1, 45769, Note_on_c, 0, 64, 92
1, 45805, Note_off_c, 0, 64, 92
1, 45810, Note_on_c, 0, 65, 101
1, 45938, Note_off_c, 0, 65, 101
1, 45963, Note_on_c, 0, 60, 98
1, 46037, Note_off_c, 0, 60, 98
1, 46332, Note_on_c, 0, 60, 103
1, 46455, Note_off_c, 0, 60, 103
1, 46464, Note_on_c, 0, 62, 93
1, 46514, Note_off_c, 0, 62, 93
1, 46536, Note_on_c, 0, 64, 98
1, 46599, Note_off_c, 0, 64, 98
1, 46613, Note_on_c, 0, 65, 104
1, 46707, Note_off_c, 0, 65, 104
1, 46766, Note_on_c, 0, 60, 90
1, 46836, Note_off_c, 0, 60, 90
1, 46857, Note_on_c, 0, 62, 86
1, 46920, Note_off_c, 0, 62, 86
1, 46929, Note_on_c, 0, 64, 96
1, 46982, Note_off_c, 0, 64, 96
1, 46996, Note_on_c, 0, 65, 103
1, 47105, Note_off_c, 0, 65, 103
1, 47207, Note_on_c, 0, 62, 89
1, 47254, Note_off_c, 0, 62, 89
1, 47269, Note_on_c, 0, 64, 91
1, 47316, Note_off_c, 0, 64, 91
1, 47344, Note_on_c, 0, 65, 103
1, 47438, Note_off_c, 0, 65, 103
1, 47468, Note_on_c, 0, 60, 102
1, 47549, Note_off_c, 0, 60, 102
1, 48242, Note_on_c, 0, 60, 99
1, 48377, Note_off_c, 0, 60, 99
1, 48388, Note_on_c, 0, 64, 100
1, 48437, Note_off_c, 0, 64, 100
1, 48455, Note_on_c, 0, 67, 99
1, 48518, Note_off_c, 0, 67, 99
1, 48544, Note_on_c, 0, 69, 116
1, 48608, Note_off_c, 0, 69, 116
1, 48620, Note_on_c, 0, 70, 104
1, 48652, Note_off_c, 0, 70, 104
1, 48660, Note_on_c, 0, 69, 116
1, 48728, Note_off_c, 0, 69, 116
1, 48732, Note_on_c, 0, 67, 111
1, 48817, Note_off_c, 0, 67, 111
1, 48826, Note_on_c, 0, 65, 105
1, 48911, Note_off_c, 0, 65, 105
1, 48916, Note_on_c, 0, 64, 111
1, 48999, Note_off_c, 0, 64, 111
1, 49018, Note_on_c, 0, 62, 108
1, 49089, Note_off_c, 0, 62, 108
1, 49097, Note_on_c, 0, 60, 98
1, 49167, Note_off_c, 0, 60, 98
1, 49186, Note_on_c, 0, 58, 97
1, 49281, Note_off_c, 0, 58, 97
1, 49296, Note_on_c, 0, 57, 100
1, 49377, Note_off_c, 0, 57, 100
1, 49400, Note_on_c, 0, 55, 94
1, 49494, Note_off_c, 0, 55, 94
1, 49508, Note_on_c, 0, 53, 92
1, 49572, Note_off_c, 0, 53, 92
1, 49584, Note_on_c, 0, 52, 81
1, 49659, Note_off_c, 0, 52, 81
1, 49674, Note_on_c, 0, 55, 98
1, 49816, Note_off_c, 0, 55, 98
1, 49854, Note_on_c, 0, 53, 93
1, 49932, Note_off_c, 0, 53, 93
1, 49954, Note_on_c, 0, 55, 92
1, 50027, Note_off_c, 0, 55, 92
1, 50059, Note_on_c, 0, 57, 102
1, 50177, Note_off_c, 0, 57, 102
1, 50218, Note_on_c, 0, 51, 88
1, 50293, Note_off_c, 0, 51, 88
1, 50813, Note_on_c, 0, 62, 119
1, 50919, Note_off_c, 0, 62, 119
1, 50929, Note_on_c, 0, 60, 106
1, 51002, Note_off_c, 0, 60, 106
1, 51011, Note_on_c, 0, 59, 96
1, 51096, Note_off_c, 0, 59, 96
1, 51115, Note_on_c, 0, 57, 104
1, 51213, Note_off_c, 0, 57, 104
1, 51225, Note_on_c, 0, 56, 86
1, 51361, Note_off_c, 0, 56, 86
1, 51501, Note_on_c, 0, 53, 98
1, 51596, Note_off_c, 0, 53, 98
1, 51600, Note_on_c, 0, 52, 96
1, 51725, Note_off_c, 0, 52, 96
1, 51747, Note_on_c, 0, 60, 110
1, 51839, Note_off_c, 0, 60, 110
1, 51843, Note_on_c, 0, 59, 100
1, 51914, Note_off_c, 0, 59, 100
1, 51920, Note_on_c, 0, 57, 105
1, 52001, Note_off_c, 0, 57, 105
1, 52011, Note_on_c, 0, 56, 98
1, 52091, Note_off_c, 0, 56, 98
1, 52100, Note_on_c, 0, 54, 97
1, 52179, Note_off_c, 0, 54, 97
1, 52205, Note_on_c, 0, 52, 89
1, 52283, Note_off_c, 0, 52, 89
1, 52364, Note_on_c, 0, 55, 94
1, 52463, Note_off_c, 0, 55, 94
1, 52517, Note_on_c, 0, 57, 106
1, 52591, Note_off_c, 0, 57, 106
1, 52610, Note_on_c, 0, 58, 100
1, 52691, Note_off_c, 0, 58, 100
1, 52754, Note_on_c, 0, 58, 102
1, 52839, Note_off_c, 0, 58, 102
1, 52858, Note_on_c, 0, 57, 97
1, 52894, Note_off_c, 0, 57, 97
1, 52924, Note_on_c, 0, 55, 98
1, 52984, Note_off_c, 0, 55, 98
1, 52991, Note_on_c, 0, 54, 94
1, 53086, Note_off_c, 0, 54, 94
1, 53180, Note_on_c, 0, 53, 92
1, 53282, Note_off_c, 0, 53, 92
1, 54102, Note_on_c, 0, 53, 84
1, 54166, Note_off_c, 0, 53, 84
1, 54175, Note_on_c, 0, 57, 108
1, 54249, Note_off_c, 0, 57, 108
1, 54268, Note_on_c, 0, 55, 101
1, 54359, Note_off_c, 0, 55, 101
1, 54370, Note_on_c, 0, 53, 97
1, 54457, Note_off_c, 0, 53, 97
1, 54467, Note_on_c, 0, 52, 87
1, 54551, Note_off_c, 0, 52, 87
1, 54590, Note_on_c, 0, 55, 93
1, 54651, Note_off_c, 0, 55, 93
1, 54673, Note_on_c, 0, 58, 98
1, 54748, Note_off_c, 0, 58, 98
1, 54750, Note_on_c, 0, 63, 106
1, 54813, Note_off_c, 0, 63, 106
1, 54835, Note_on_c, 0, 61, 96
1, 54923, Note_off_c, 0, 61, 96
1, 54945, Note_on_c, 0, 57, 92
1, 55012, Note_off_c, 0, 57, 92
1, 55020, Note_on_c, 0, 60, 104
1, 55100, Note_off_c, 0, 60, 104
1, 55121, Note_on_c, 0, 60, 99
1, 55215, Note_off_c, 0, 60, 99
1, 55226, Note_on_c, 0, 58, 98
1, 55324, Note_off_c, 0, 58, 98
1, 55407, Note_on_c, 0, 57, 96
1, 55495, Note_off_c, 0, 57, 96
1, 55511, Note_on_c, 0, 60, 96
1, 55620, Note_off_c, 0, 60, 96
1, 55632, Note_on_c, 0, 62, 89
1, 55709, Note_off_c, 0, 62, 89
1, 55714, Note_on_c, 0, 64, 90
1, 55775, Note_off_c, 0, 64, 90
1, 55788, Note_on_c, 0, 67, 106
1, 55899, Note_off_c, 0, 67, 106
1, 55911, Note_on_c, 0, 65, 104
1, 56043, Note_off_c, 0, 65, 104
1, 56845, Note_on_c, 0, 67, 119
1, 56878, Note_off_c, 0, 67, 119
1, 56903, Note_on_c, 0, 69, 115
1, 56970, Note_off_c, 0, 69, 115
1, 57051, Note_on_c, 0, 72, 110
1, 57124, Note_off_c, 0, 72, 110
1, 57215, Note_on_c, 0, 69, 98
1, 57316, Note_off_c, 0, 69, 98
1, 57325, Note_on_c, 0, 70, 106
1, 57406, Note_off_c, 0, 70, 106
1, 57439, Note_on_c, 0, 69, 114
1, 57517, Note_off_c, 0, 69, 114
1, 57525, Note_on_c, 0, 67, 106
1, 57602, Note_off_c, 0, 67, 106
1, 57631, Note_on_c, 0, 65, 104
1, 57716, Note_off_c, 0, 65, 104
1, 57731, Note_on_c, 0, 64, 9
1, 57836, Note_off_c, 0, 64, 9
1, 57843, Note_on_c, 0, 65, 85
1, 57879, Note_off_c, 0, 65, 85
1, 57895, Note_on_c, 0, 67, 108
1, 58210, Note_off_c, 0, 67, 108
1, 58219, Note_on_c, 0, 66, 109
1, 58310, Note_off_c, 0, 66, 109
1, 58317, Note_on_c, 0, 65, 104
1, 58405, Note_off_c, 0, 65, 104
1, 58423, Note_on_c, 0, 64, 113
1, 58529, Note_off_c, 0, 64, 113
1, 58541, Note_on_c, 0, 63, 101
1, 58610, Note_off_c, 0, 63, 101
1, 58619, Note_on_c, 0, 61, 101
1, 58690, Note_off_c, 0, 61, 101
1, 58707, Note_on_c, 0, 60, 95
1, 58790, Note_off_c, 0, 60, 95
1, 58800, Note_on_c, 0, 59, 92
1, 58881, Note_off_c, 0, 59, 92
1, 58890, Note_on_c, 0, 58, 91
1, 58988, Note_off_c, 0, 58, 91
1, 58989, Note_on_c, 0, 56, 82
1, 59064, Note_off_c, 0, 56, 82
1, 59091, Note_on_c, 0, 53, 100
1, 59150, Note_off_c, 0, 53, 100
1, 59165, Note_on_c, 0, 54, 88
1, 59220, Note_off_c, 0, 54, 88
1, 59244, Note_on_c, 0, 60, 96
1, 59365, Note_off_c, 0, 60, 96
1, 59390, Note_on_c, 0, 57, 93
1, 59443, Note_off_c, 0, 57, 93
1, 59461, Note_on_c, 0, 58, 96
1, 59536, Note_off_c, 0, 58, 96
1, 59538, Note_on_c, 0, 60, 98
1, 59597, Note_off_c, 0, 60, 98
1, 59609, Note_on_c, 0, 61, 95
1, 59693, Note_off_c, 0, 61, 95
1, 59715, Note_on_c, 0, 62, 96
1, 59796, Note_off_c, 0, 62, 96
1, 59801, Note_on_c, 0, 64, 103
1, 59881, Note_off_c, 0, 64, 103
1, 59903, Note_on_c, 0, 65, 99
1, 59973, Note_off_c, 0, 65, 99
1, 59977, Note_on_c, 0, 67, 96
1, 60061, Note_off_c, 0, 67, 96
1, 60072, Note_on_c, 0, 68, 100
1, 60150, Note_off_c, 0, 68, 100
1, 60162, Note_on_c, 0, 69, 107
1, 60257, Note_off_c, 0, 69, 107
1, 60265, Note_on_c, 0, 70, 103
1, 60407, Note_off_c, 0, 70, 103
1, 60439, Note_on_c, 0, 67, 100
1, 60478, Note_off_c, 0, 67, 100
1, 60492, Note_on_c, 0, 65, 102
1, 60572, Note_off_c, 0, 65, 102
1, 60597, Note_on_c, 0, 64, 88
1, 60663, Note_off_c, 0, 64, 88
1, 60700, Note_on_c, 0, 67, 104
1, 60802, Note_off_c, 0, 67, 104
1, 61013, Note_on_c, 0, 65, 105
1, 61076, Note_off_c, 0, 65, 105
1, 61094, Note_on_c, 0, 64, 105
1, 61207, Note_off_c, 0, 64, 105
1, 61215, Note_on_c, 0, 62, 104
1, 61314, Note_off_c, 0, 62, 104
1, 61323, Note_on_c, 0, 60, 92
1, 61376, Note_off_c, 0, 60, 92
1, 61395, Note_on_c, 0, 58, 94
1, 61455, Note_off_c, 0, 58, 94
1, 61480, Note_on_c, 0, 56, 111
1, 61534, Note_off_c, 0, 56, 111
1, 61534, Note_on_c, 0, 57, 105
1, 61609, Note_off_c, 0, 57, 105
1, 61621, Note_on_c, 0, 56, 88
1, 61651, Note_off_c, 0, 56, 88
1, 61683, Note_on_c, 0, 57, 98
1, 61744, Note_off_c, 0, 57, 98
1, 61767, Note_on_c, 0, 62, 107
1, 61850, Note_off_c, 0, 62, 107
1, 61883, Note_on_c, 0, 60, 101
1, 61970, Note_off_c, 0, 60, 101
1, 61993, Note_on_c, 0, 57, 101
1, 62074, Note_off_c, 0, 57, 101
1, 62080, Note_on_c, 0, 53, 81
1, 62172, Note_off_c, 0, 53, 81
1, 62253, Note_on_c, 0, 55, 97
1, 62326, Note_off_c, 0, 55, 97
1, 62640, Note_on_c, 0, 54, 96
1, 62710, Note_off_c, 0, 54, 96
1, 62728, Note_on_c, 0, 50, 90
1, 62818, Note_off_c, 0, 50, 90
1, 63507, Note_on_c, 0, 59, 98
1, 63574, Note_off_c, 0, 59, 98
1, 63602, Note_on_c, 0, 56, 90
1, 63662, Note_off_c, 0, 56, 90
1, 63734, Note_on_c, 0, 52, 82
1, 63864, Note_off_c, 0, 52, 82
1, 64163, Note_on_c, 0, 64, 103
1, 64414, Note_off_c, 0, 64, 103
1, 64457, Note_on_c, 0, 62, 107
1, 64541, Note_off_c, 0, 62, 107
1, 64577, Note_on_c, 0, 60, 93
1, 64671, Note_off_c, 0, 60, 93
1, 64679, Note_on_c, 0, 57, 98
1, 64766, Note_off_c, 0, 57, 98
1, 64766, Note_on_c, 0, 55, 84
1, 64829, Note_off_c, 0, 55, 84
1, 64953, Note_on_c, 0, 55, 90
1, 65078, Note_off_c, 0, 55, 90
1, 65137, Note_on_c, 0, 57, 100
1, 65270, Note_off_c, 0, 57, 100
1, 65886, Note_on_c, 0, 50, 100
1, 65971, Note_off_c, 0, 50, 100
1, 65993, Note_on_c, 0, 53, 98
1, 66063, Note_off_c, 0, 53, 98
1, 66089, Note_on_c, 0, 57, 96
1, 66169, Note_off_c, 0, 57, 96
1, 66176, Note_on_c, 0, 55, 93
1, 66273, Note_off_c, 0, 55, 93
1, 66301, Note_on_c, 0, 53, 83
1, 66388, Note_off_c, 0, 53, 83
1, 66392, Note_on_c, 0, 52, 84
1, 66467, Note_off_c, 0, 52, 84
1, 66482, Note_on_c, 0, 54, 84
1, 66543, Note_off_c, 0, 54, 84
1, 66562, Note_on_c, 0, 57, 91
1, 66633, Note_off_c, 0, 57, 91
1, 66656, Note_on_c, 0, 61, 94
1, 66798, Note_off_c, 0, 61, 94
1, 66805, Note_on_c, 0, 57, 86
1, 66864, Note_off_c, 0, 57, 86
1, 66864, Note_on_c, 0, 56, 76
1, 66907, Note_off_c, 0, 56, 76
1, 66910, Note_on_c, 0, 57, 89
1, 66949, Note_off_c, 0, 57, 89
1, 66961, Note_on_c, 0, 62, 85
1, 67013, Note_off_c, 0, 62, 85
1, 67018, Note_on_c, 0, 64, 105
1, 67140, Note_off_c, 0, 64, 105
1, 67156, Note_on_c, 0, 61, 92
1, 67220, Note_off_c, 0, 61, 92
1, 67231, Note_on_c, 0, 62, 98
1, 67321, Note_off_c, 0, 62, 98
1, 67339, Note_on_c, 0, 64, 105
1, 67416, Note_off_c, 0, 64, 105
1, 67433, Note_on_c, 0, 65, 97
1, 67533, Note_off_c, 0, 65, 97
1, 67539, Note_on_c, 0, 66, 91
1, 67603, Note_off_c, 0, 66, 91
1, 67614, Note_on_c, 0, 68, 97
1, 67688, Note_off_c, 0, 68, 97
1, 67706, Note_on_c, 0, 70, 96
1, 67789, Note_off_c, 0, 70, 96
1, 67796, Note_on_c, 0, 71, 103
1, 67894, Note_off_c, 0, 71, 103
1, 67898, Note_on_c, 0, 75, 89
1, 67973, Note_off_c, 0, 75, 89
1, 68010, Note_on_c, 0, 73, 97
1, 68085, Note_off_c, 0, 73, 97
1, 68104, Note_on_c, 0, 68, 100
1, 68171, Note_off_c, 0, 68, 100
1, 68185, Note_on_c, 0, 67, 98
1, 68293, Note_off_c, 0, 67, 98
1, 68298, Note_on_c, 0, 65, 94
1, 68381, Note_off_c, 0, 65, 94
1, 68386, Note_on_c, 0, 64, 98
1, 68464, Note_off_c, 0, 64, 98
1, 68741, Note_on_c, 0, 72, 101
1, 69029, Note_off_c, 0, 72, 101
1, 69056, Note_on_c, 0, 70, 107
1, 69146, Note_off_c, 0, 70, 107
1, 69168, Note_on_c, 0, 69, 112
1, 69262, Note_off_c, 0, 69, 112
1, 69280, Note_on_c, 0, 67, 107
1, 69343, Note_off_c, 0, 67, 107
1, 69346, Note_on_c, 0, 65, 99
1, 69433, Note_off_c, 0, 65, 99
1, 69437, Note_on_c, 0, 64, 108
1, 69535, Note_off_c, 0, 64, 108
1, 69535, Note_on_c, 0, 62, 99
1, 69626, Note_off_c, 0, 62, 99
1, 69631, Note_on_c, 0, 60, 98
1, 69730, Note_off_c, 0, 60, 98
1, 69730, Note_on_c, 0, 58, 93
1, 69793, Note_off_c, 0, 58, 93
1, 69814, Note_on_c, 0, 57, 89
1, 69867, Note_off_c, 0, 57, 89
1, 70778, Note_on_c, 0, 74, 108
1, 70876, Note_off_c, 0, 74, 108
1, 70898, Note_on_c, 0, 72, 106
1, 70965, Note_off_c, 0, 72, 106
1, 70968, Note_on_c, 0, 69, 115
1, 71047, Note_off_c, 0, 69, 115
1, 71052, Note_on_c, 0, 67, 111
1, 71125, Note_off_c, 0, 67, 111
1, 71139, Note_on_c, 0, 64, 112
1, 71240, Note_off_c, 0, 64, 112
1, 71263, Note_on_c, 0, 62, 101
1, 71348, Note_off_c, 0, 62, 101
1, 71355, Note_on_c, 0, 57, 97
1, 71422, Note_off_c, 0, 57, 97
1, 71437, Note_on_c, 0, 55, 92
1, 71516, Note_off_c, 0, 55, 92
1, 71531, Note_on_c, 0, 52, 82
1, 71601, Note_off_c, 0, 52, 82
1, 72203, Note_on_c, 0, 74, 104
1, 72298, Note_off_c, 0, 74, 104
1, 72305, Note_on_c, 0, 72, 109
1, 72378, Note_off_c, 0, 72, 109
1, 72399, Note_on_c, 0, 69, 111
1, 72479, Note_off_c, 0, 69, 111
1, 72488, Note_on_c, 0, 67, 109
1, 72544, Note_off_c, 0, 67, 109
1, 72566, Note_on_c, 0, 64, 107
1, 72658, Note_off_c, 0, 64, 107
1, 72664, Note_on_c, 0, 62, 99
1, 72735, Note_off_c, 0, 62, 99
1, 72750, Note_on_c, 0, 57, 97
1, 72818, Note_off_c, 0, 57, 97
1, 72836, Note_on_c, 0, 55, 89
1, 72938, Note_off_c, 0, 55, 89
1, 72941, Note_on_c, 0, 52, 80
1, 73024, Note_off_c, 0, 52, 80
1, 73030, Note_on_c, 0, 50, 81
1, 73104, Note_off_c, 0, 50, 81
1, 73185, Note_on_c, 0, 74, 98
1, 73470, Note_off_c, 0, 74, 98
1, 73485, Note_on_c, 0, 72, 100
1, 73576, Note_off_c, 0, 72, 100
1, 73584, Note_on_c, 0, 69, 101
1, 73674, Note_off_c, 0, 69, 101
1, 73682, Note_on_c, 0, 67, 99
1, 73760, Note_off_c, 0, 67, 99
1, 73774, Note_on_c, 0, 64, 100
1, 73849, Note_off_c, 0, 64, 100
1, 73874, Note_on_c, 0, 62, 98
1, 73959, Note_off_c, 0, 62, 98
1, 73975, Note_on_c, 0, 61, 82
1, 74034, Note_off_c, 0, 61, 82
1, 74046, Note_on_c, 0, 62, 77
1, 74121, Note_off_c, 0, 62, 77
1, 74130, Note_on_c, 0, 69, 95
1, 74248, Note_off_c, 0, 69, 95
1, 74266, Note_on_c, 0, 61, 77
1, 74322, Note_off_c, 0, 61, 77
1, 74350, Note_on_c, 0, 62, 87
1, 74431, Note_off_c, 0, 62, 87
1, 74435, Note_on_c, 0, 69, 106
1, 74526, Note_off_c, 0, 69, 106
1, 74594, Note_on_c, 0, 65, 98
1, 74689, Note_off_c, 0, 65, 98
1, 74698, Note_on_c, 0, 64, 102
1, 74762, Note_off_c, 0, 64, 102
1, 74770, Note_on_c, 0, 60, 98
1, 74855, Note_off_c, 0, 60, 98
1, 74888, Note_on_c, 0, 59, 89
1, 74978, Note_off_c, 0, 59, 89
1, 75053, Note_on_c, 0, 57, 91
1, 75131, Note_off_c, 0, 57, 91
1, 75242, Note_on_c, 0, 64, 103
1, 75317, Note_off_c, 0, 64, 103
1, 75341, Note_on_c, 0, 60, 86
1, 75412, Note_off_c, 0, 60, 86
1, 75414, Note_on_c, 0, 56, 89
1, 75481, Note_off_c, 0, 56, 89
1, 75490, Note_on_c, 0, 53, 84
1, 75581, Note_off_c, 0, 53, 84
1, 75582, Note_on_c, 0, 52, 80
1, 75698, Note_off_c, 0, 52, 80
1, 76175, Note_on_c, 0, 48, 96
1, 76238, Note_off_c, 0, 48, 96
1, 76240, Note_on_c, 0, 49, 92
1, 76287, Note_off_c, 0, 49, 92
1, 76310, Note_on_c, 0, 53, 88
1, 76371, Note_off_c, 0, 53, 88
1, 76396, Note_on_c, 0, 57, 106
1, 76462, Note_off_c, 0, 57, 106
1, 76466, Note_on_c, 0, 55, 99
1, 76536, Note_off_c, 0, 55, 99
1, 76564, Note_on_c, 0, 53, 94
1, 76625, Note_off_c, 0, 53, 94
1, 76639, Note_on_c, 0, 52, 87
1, 76719, Note_off_c, 0, 52, 87
1, 76740, Note_on_c, 0, 53, 91
1, 76838, Note_off_c, 0, 53, 91
1, 76861, Note_on_c, 0, 58, 98
1, 76911, Note_off_c, 0, 58, 98
1, 76926, Note_on_c, 0, 62, 98
1, 77016, Note_off_c, 0, 62, 98
1, 77023, Note_on_c, 0, 56, 89
1, 77080, Note_off_c, 0, 56, 89
1, 77080, Note_on_c, 0, 57, 102
1, 77168, Note_off_c, 0, 57, 102
1, 77184, Note_on_c, 0, 58, 101
1, 77258, Note_off_c, 0, 58, 101
1, 77305, Note_on_c, 0, 60, 97
1, 77430, Note_off_c, 0, 60, 97
1, 77437, Note_on_c, 0, 57, 94
1, 77483, Note_off_c, 0, 57, 94
1, 77501, Note_on_c, 0, 58, 107
1, 77572, Note_off_c, 0, 58, 107
1, 77578, Note_on_c, 0, 60, 100
1, 77645, Note_off_c, 0, 60, 100
1, 77649, Note_on_c, 0, 61, 90
1, 77712, Note_off_c, 0, 61, 90
1, 77735, Note_on_c, 0, 64, 94
1, 77791, Note_off_c, 0, 64, 94
1, 77803, Note_on_c, 0, 67, 97
1, 77862, Note_off_c, 0, 67, 97
1, 77866, Note_on_c, 0, 69, 113
1, 77951, Note_off_c, 0, 69, 113
1, 77956, Note_on_c, 0, 67, 102
1, 78008, Note_off_c, 0, 67, 102
1, 78020, Note_on_c, 0, 65, 100
1, 78077, Note_off_c, 0, 65, 100
1, 78088, Note_on_c, 0, 64, 100
1, 78172, Note_off_c, 0, 64, 100
1, 78179, Note_on_c, 0, 62, 87
1, 78229, Note_off_c, 0, 62, 87
1, 78248, Note_on_c, 0, 67, 101
1, 78370, Note_off_c, 0, 67, 101
1, 78379, Note_on_c, 0, 64, 101
1, 78458, Note_off_c, 0, 64, 101
1, 78465, Note_on_c, 0, 62, 91
1, 78512, Note_off_c, 0, 62, 91
1, 78531, Note_on_c, 0, 60, 81
1, 78580, Note_off_c, 0, 60, 81
1, 78617, Note_on_c, 0, 65, 100
1, 78714, Note_off_c, 0, 65, 100
1, 78718, Note_on_c, 0, 64, 98
1, 78753, Note_off_c, 0, 64, 98
1, 78761, Note_on_c, 0, 62, 102
1, 78803, Note_off_c, 0, 62, 102
1, 78808, Note_on_c, 0, 60, 94
1, 78885, Note_off_c, 0, 60, 94
1, 78907, Note_on_c, 0, 58, 96
1, 79042, Note_off_c, 0, 58, 96
1, 79409, Note_on_c, 0, 63, 111
1, 79449, Note_off_c, 0, 63, 111
1, 79449, Note_on_c, 0, 64, 120
1, 79854, Note_off_c, 0, 64, 120
1, 79869, Note_on_c, 0, 62, 110
1, 79946, Note_off_c, 0, 62, 110
1, 79967, Note_on_c, 0, 60, 99
1, 80034, Note_off_c, 0, 60, 99
1, 80042, Note_on_c, 0, 58, 97
1, 80134, Note_off_c, 0, 58, 97
1, 80145, Note_on_c, 0, 57, 102
1, 80218, Note_off_c, 0, 57, 102
1, 80232, Note_on_c, 0, 55, 95
1, 80316, Note_off_c, 0, 55, 95
1, 80333, Note_on_c, 0, 52, 90
1, 80413, Note_off_c, 0, 52, 90
1, 80427, Note_on_c, 0, 53, 89
1, 80490, Note_off_c, 0, 53, 89
1, 80498, Note_on_c, 0, 55, 92
1, 80645, Note_off_c, 0, 55, 92
1, 80697, Note_on_c, 0, 57, 101
1, 80857, Note_off_c, 0, 57, 101
1, 81443, Note_on_c, 0, 47, 102
1, 81523, Note_off_c, 0, 47, 102
1, 81579, Note_on_c, 0, 65, 83
1, 81602, Note_off_c, 0, 65, 83
1, 81637, Note_on_c, 0, 68, 95
1, 81672, Note_off_c, 0, 68, 95
1, 81699, Note_on_c, 0, 65, 94
1, 81730, Note_off_c, 0, 65, 94
1, 81814, Note_on_c, 0, 53, 89
1, 81915, Note_off_c, 0, 53, 89
1, 81915, Note_on_c, 0, 52, 86
1, 81994, Note_off_c, 0, 52, 86
1, 81994, Note_on_c, 0, 55, 90
1, 82057, Note_off_c, 0, 55, 90
1, 82072, Note_on_c, 0, 58, 101
1, 82163, Note_off_c, 0, 58, 101
1, 82182, Note_on_c, 0, 62, 101
1, 82231, Note_off_c, 0, 62, 101
1, 82269, Note_on_c, 0, 55, 96
1, 82367, Note_off_c, 0, 55, 96
1, 82380, Note_on_c, 0, 57, 92
1, 82451, Note_off_c, 0, 57, 92
1, 82483, Note_on_c, 0, 60, 99
1, 82589, Note_off_c, 0, 60, 99
1, 82593, Note_on_c, 0, 57, 93
1, 82667, Note_off_c, 0, 57, 93
1, 82679, Note_on_c, 0, 58, 97
1, 82766, Note_off_c, 0, 58, 97
1, 82771, Note_on_c, 0, 60, 92
1, 82846, Note_off_c, 0, 60, 92
1, 82848, Note_on_c, 0, 61, 92
1, 82922, Note_off_c, 0, 61, 92
1, 82927, Note_on_c, 0, 63, 86
1, 82955, Note_off_c, 0, 63, 86
1, 82955, Note_on_c, 0, 64, 91
1, 83004, Note_off_c, 0, 64, 91
1, 83039, Note_on_c, 0, 67, 100
1, 83148, Note_off_c, 0, 67, 100
1, 83166, Note_on_c, 0, 64, 90
1, 83223, Note_off_c, 0, 64, 90
1, 83230, Note_on_c, 0, 65, 89
1, 83329, Note_off_c, 0, 65, 89
1, 83397, Note_on_c, 0, 72, 106
1, 83730, Note_off_c, 0, 72, 106
1, 83763, Note_on_c, 0, 70, 102
1, 83891, Note_off_c, 0, 70, 102
1, 83914, Note_on_c, 0, 65, 86
1, 83973, Note_off_c, 0, 65, 86
1, 83981, Note_on_c, 0, 68, 106
1, 84041, Note_off_c, 0, 68, 106
1, 84041, Note_on_c, 0, 69, 111
1, 84190, Note_off_c, 0, 69, 111
1, 84194, Note_on_c, 0, 65, 95
1, 84298, Note_off_c, 0, 65, 95
1, 84355, Note_on_c, 0, 66, 113
1, 84416, Note_off_c, 0, 66, 113
1, 84416, Note_on_c, 0, 67, 91
1, 85092, Note_off_c, 0, 67, 91
1, 85129, Note_on_c, 0, 67, 100
1, 85223, Note_off_c, 0, 67, 100
1, 85238, Note_on_c, 0, 65, 99
1, 85298, Note_off_c, 0, 65, 99
1, 85321, Note_on_c, 0, 62, 98
1, 85401, Note_off_c, 0, 62, 98
1, 85429, Note_on_c, 0, 60, 99
1, 85530, Note_off_c, 0, 60, 99
1, 86281, Note_on_c, 0, 68, 113
1, 86386, Note_off_c, 0, 68, 113
1, 86398, Note_on_c, 0, 67, 115
1, 86479, Note_off_c, 0, 67, 115
1, 86491, Note_on_c, 0, 66, 114
1, 86590, Note_off_c, 0, 66, 114
1, 86591, Note_on_c, 0, 67, 107
1, 86628, Note_off_c, 0, 67, 107
1, 86653, Note_on_c, 0, 69, 115
1, 86759, Note_off_c, 0, 69, 115
1, 86786, Note_on_c, 0, 69, 107
1, 86892, Note_off_c, 0, 69, 107
1, 86902, Note_on_c, 0, 66, 112
1, 86986, Note_off_c, 0, 66, 112
1, 87000, Note_on_c, 0, 65, 111
1, 87052, Note_off_c, 0, 65, 111
1, 87071, Note_on_c, 0, 64, 112
1, 87162, Note_off_c, 0, 64, 112
1, 87181, Note_on_c, 0, 62, 100
1, 87254, Note_off_c, 0, 62, 100
1, 87256, Note_on_c, 0, 63, 109
1, 87316, Note_off_c, 0, 63, 109
1, 87334, Note_on_c, 0, 66, 112
1, 87431, Note_off_c, 0, 66, 112
1, 87439, Note_on_c, 0, 65, 109
1, 87524, Note_off_c, 0, 65, 109
1, 87531, Note_on_c, 0, 63, 111
1, 87606, Note_off_c, 0, 63, 111
1, 87612, Note_on_c, 0, 62, 106
1, 87693, Note_off_c, 0, 62, 106
1, 87709, Note_on_c, 0, 60, 99
1, 87794, Note_off_c, 0, 60, 99
1, 87807, Note_on_c, 0, 59, 98
1, 87885, Note_off_c, 0, 59, 98
1, 87915, Note_on_c, 0, 57, 101
1, 88007, Note_off_c, 0, 57, 101
1, 88011, Note_on_c, 0, 56, 90
1, 88082, Note_off_c, 0, 56, 90
1, 88104, Note_on_c, 0, 53, 92
1, 88189, Note_off_c, 0, 53, 92
1, 88198, Note_on_c, 0, 52, 94
1, 88302, Note_off_c, 0, 52, 94
1, 88316, Note_on_c, 0, 50, 96
1, 88366, Note_off_c, 0, 50, 96
1, 88380, Note_on_c, 0, 48, 95
1, 88441, Note_off_c, 0, 48, 95
1, 88464, Note_on_c, 0, 46, 93
1, 88524, Note_off_c, 0, 46, 93
1, 88549, Note_on_c, 0, 45, 97
1, 88664, Note_off_c, 0, 45, 97
1, 89446, Note_on_c, 0, 46, 112
1, 89534, Note_off_c, 0, 46, 112
1, 89534, Note_on_c, 0, 50, 99
1, 89588, Note_off_c, 0, 50, 99
1, 89592, Note_on_c, 0, 53, 93
1, 89615, Note_off_c, 0, 53, 93
1, 89638, Note_on_c, 0, 57, 93
1, 89699, Note_off_c, 0, 57, 93
1, 89715, Note_on_c, 0, 55, 97
1, 89786, Note_off_c, 0, 55, 97
1, 89809, Note_on_c, 0, 53, 95
1, 89880, Note_off_c, 0, 53, 95
1, 89894, Note_on_c, 0, 52, 88
1, 89971, Note_off_c, 0, 52, 88
1, 89980, Note_on_c, 0, 55, 96
1, 90037, Note_off_c, 0, 55, 96
1, 90053, Note_on_c, 0, 58, 99
1, 90119, Note_off_c, 0, 58, 99
1, 90121, Note_on_c, 0, 62, 105
1, 90202, Note_off_c, 0, 62, 105
1, 90219, Note_on_c, 0, 56, 90
1, 90290, Note_off_c, 0, 56, 90
1, 90313, Note_on_c, 0, 58, 101
1, 90369, Note_off_c, 0, 58, 101
1, 90374, Note_on_c, 0, 61, 102
1, 90441, Note_off_c, 0, 61, 102
1, 90455, Note_on_c, 0, 62, 104
1, 90525, Note_off_c, 0, 62, 104
1, 90533, Note_on_c, 0, 64, 102
1, 90589, Note_off_c, 0, 64, 102
1, 90603, Note_on_c, 0, 65, 103
1, 90669, Note_off_c, 0, 65, 103
1, 90684, Note_on_c, 0, 69, 103
1, 90776, Note_off_c, 0, 69, 103
1, 90787, Note_on_c, 0, 71, 99
1, 90854, Note_off_c, 0, 71, 99
1, 90867, Note_on_c, 0, 73, 104
1, 90957, Note_off_c, 0, 73, 104
1, 90973, Note_on_c, 0, 74, 104
1, 91097, Note_off_c, 0, 74, 104
1, 91120, Note_on_c, 0, 69, 106
1, 91214, Note_off_c, 0, 69, 106
1, 91247, Note_on_c, 0, 65, 99
1, 91331, Note_off_c, 0, 65, 99
1, 91347, Note_on_c, 0, 64, 99
1, 91424, Note_off_c, 0, 64, 99
1, 91432, Note_on_c, 0, 62, 88
1, 91538, Note_off_c, 0, 62, 88
1, 91570, Note_on_c, 0, 67, 101
1, 91670, Note_off_c, 0, 67, 101
1, 91670, Note_on_c, 0, 64, 95
1, 91749, Note_off_c, 0, 64, 95
1, 91768, Note_on_c, 0, 65, 93
1, 91865, Note_off_c, 0, 65, 93
1, 91888, Note_on_c, 0, 69, 101
1, 91917, Note_off_c, 0, 69, 101
1, 91919, Note_on_c, 0, 71, 108
1, 92139, Note_off_c, 0, 71, 108
1, 92161, Note_on_c, 0, 75, 95
1, 92236, Note_off_c, 0, 75, 95
1, 92348, Note_on_c, 0, 73, 96
1, 92436, Note_off_c, 0, 73, 96
1, 92540, Note_on_c, 0, 68, 100
1, 92628, Note_off_c, 0, 68, 100
1, 92671, Note_on_c, 0, 66, 91
1, 92730, Note_off_c, 0, 66, 91
1, 92746, Note_on_c, 0, 71, 104
1, 92841, Note_off_c, 0, 71, 104
1, 92862, Note_on_c, 0, 66, 87
1, 92921, Note_off_c, 0, 66, 87
1, 93116, Note_on_c, 0, 70, 102
1, 93190, Note_off_c, 0, 70, 102
1, 93401, Note_on_c, 0, 68, 100
1, 93469, Note_off_c, 0, 68, 100
1, 93502, Note_on_c, 0, 67, 98
1, 93577, Note_off_c, 0, 67, 98
1, 93595, Note_on_c, 0, 65, 98
1, 93636, Note_off_c, 0, 65, 98
1, 93637, Note_on_c, 0, 64, 100
1, 93670, Note_off_c, 0, 64, 100
1, 93699, Note_on_c, 0, 58, 95
1, 93763, Note_off_c, 0, 58, 95
1, 93891, Note_on_c, 0, 68, 95
1, 94019, Note_off_c, 0, 68, 95
1, 94033, Note_on_c, 0, 68, 93
1, 94069, Note_off_c, 0, 68, 93
1, 94081, Note_on_c, 0, 69, 99
1, 94334, Note_off_c, 0, 69, 99
1, 94773, Note_on_c, 0, 66, 110
1, 94818, Note_off_c, 0, 66, 110
1, 94823, Note_on_c, 0, 67, 108
1, 95080, Note_off_c, 0, 67, 108
1, 95092, Note_on_c, 0, 65, 103
1, 95184, Note_off_c, 0, 65, 103
1, 95202, Note_on_c, 0, 64, 105
1, 95304, Note_off_c, 0, 64, 105
1, 95322, Note_on_c, 0, 62, 99
1, 95395, Note_off_c, 0, 62, 99
1, 95398, Note_on_c, 0, 60, 89
1, 95481, Note_off_c, 0, 60, 89
1, 95492, Note_on_c, 0, 58, 112
1, 95580, Note_off_c, 0, 58, 112
1, 95603, Note_on_c, 0, 57, 92
1, 95742, Note_off_c, 0, 57, 92
1, 95798, Note_on_c, 0, 61, 92
1, 95859, Note_off_c, 0, 61, 92
1, 95880, Note_on_c, 0, 62, 98
1, 96091, Note_off_c, 0, 62, 98
1, 96110, Note_on_c, 0, 69, 109
1, 96243, Note_off_c, 0, 69, 109
1, 96794, Note_on_c, 0, 48, 107
1, 96875, Note_off_c, 0, 48, 107
1, 96884, Note_on_c, 0, 50, 103
1, 96906, Note_off_c, 0, 50, 103
1, 96910, Note_on_c, 0, 52, 100
1, 96929, Note_off_c, 0, 52, 100
1, 96933, Note_on_c, 0, 53, 104
1, 96973, Note_off_c, 0, 53, 104
1, 96985, Note_on_c, 0, 57, 104
1, 97048, Note_off_c, 0, 57, 104
1, 97066, Note_on_c, 0, 55, 100
1, 97126, Note_off_c, 0, 55, 100
1, 97130, Note_on_c, 0, 53, 93
1, 97163, Note_off_c, 0, 53, 93
1, 97170, Note_on_c, 0, 52, 88
1, 97247, Note_off_c, 0, 52, 88
1, 97252, Note_on_c, 0, 54, 93
1, 97304, Note_off_c, 0, 54, 93
1, 97312, Note_on_c, 0, 58, 105
1, 97387, Note_off_c, 0, 58, 105
1, 97402, Note_on_c, 0, 62, 100
1, 97444, Note_off_c, 0, 62, 100
1, 97462, Note_on_c, 0, 57, 100
1, 97542, Note_off_c, 0, 57, 100
1, 97547, Note_on_c, 0, 58, 104
1, 97621, Note_off_c, 0, 58, 104
1, 97626, Note_on_c, 0, 60, 99
1, 97682, Note_off_c, 0, 60, 99
1, 97684, Note_on_c, 0, 62, 96
1, 97731, Note_off_c, 0, 62, 96
1, 97731, Note_on_c, 0, 63, 99
1, 97763, Note_off_c, 0, 63, 99
1, 97767, Note_on_c, 0, 64, 104
1, 97812, Note_off_c, 0, 64, 104
1, 97821, Note_on_c, 0, 65, 103
1, 97854, Note_off_c, 0, 65, 103
1, 97872, Note_on_c, 0, 67, 106
1, 97940, Note_off_c, 0, 67, 106
1, 97959, Note_on_c, 0, 69, 110
1, 98037, Note_off_c, 0, 69, 110
1, 98039, Note_on_c, 0, 61, 102
1, 98143, Note_off_c, 0, 61, 102
1, 98157, Note_on_c, 0, 62, 100
1, 98308, Note_off_c, 0, 62, 100
1, 98320, Note_on_c, 0, 69, 108
1, 98588, Note_off_c, 0, 69, 108
1, 98921, Note_on_c, 0, 70, 89
1, 98950, Note_on_c, 0, 69, 110
1, 98950, Note_off_c, 0, 70, 89
1, 98975, Note_off_c, 0, 69, 110
1, 98983, Note_on_c, 0, 67, 114
1, 99016, Note_off_c, 0, 67, 114
1, 99028, Note_on_c, 0, 66, 110
1, 99077, Note_off_c, 0, 66, 110
1, 99079, Note_on_c, 0, 64, 106
1, 99133, Note_off_c, 0, 64, 106
1, 99148, Note_on_c, 0, 62, 104
1, 99211, Note_off_c, 0, 62, 104
1, 99212, Note_on_c, 0, 61, 91
1, 99242, Note_off_c, 0, 61, 91
1, 99253, Note_on_c, 0, 60, 105
1, 99279, Note_off_c, 0, 60, 105
1, 99288, Note_on_c, 0, 58, 99
1, 99344, Note_off_c, 0, 58, 99
1, 99358, Note_on_c, 0, 57, 102
1, 99403, Note_off_c, 0, 57, 102
1, 100347, Note_on_c, 0, 44, 114
1, 100445, Note_off_c, 0, 44, 114
1, 100456, Note_on_c, 0, 50, 118
1, 100555, Note_off_c, 0, 50, 118
1, 100569, Note_on_c, 0, 45, 112
1, 100649, Note_off_c, 0, 45, 112
1, 100672, Note_on_c, 0, 51, 115
1, 100749, Note_off_c, 0, 51, 115
1, 100749, Note_on_c, 0, 46, 119
1, 100827, Note_off_c, 0, 46, 119
1, 100852, Note_on_c, 0, 50, 109
1, 100915, Note_off_c, 0, 50, 109
1, 100915, Note_on_c, 0, 53, 107
1, 101013, Note_off_c, 0, 53, 107
1, 101028, Note_on_c, 0, 49, 109
1, 101119, Note_off_c, 0, 49, 109
1, 101126, Note_on_c, 0, 51, 102
1, 101199, Note_off_c, 0, 51, 102
1, 101199, Note_on_c, 0, 54, 99
1, 101279, Note_off_c, 0, 54, 99
1, 101305, Note_on_c, 0, 56, 104
1, 101342, Note_off_c, 0, 56, 104
1, 101357, Note_on_c, 0, 55, 101
1, 101413, Note_off_c, 0, 55, 101
1, 101425, Note_on_c, 0, 54, 102
1, 101486, Note_off_c, 0, 54, 102
1, 101491, Note_on_c, 0, 53, 98
1, 101578, Note_off_c, 0, 53, 98
1, 101610, Note_on_c, 0, 56, 90
1, 101647, Note_off_c, 0, 56, 90
1, 101656, Note_on_c, 0, 58, 104
1, 101698, Note_off_c, 0, 58, 104
1, 101716, Note_on_c, 0, 62, 109
1, 101786, Note_off_c, 0, 62, 109
1, 101794, Note_on_c, 0, 60, 99
1, 101824, Note_off_c, 0, 60, 99
1, 101836, Note_on_c, 0, 58, 105
1, 101885, Note_off_c, 0, 58, 105
1, 101921, Note_on_c, 0, 55, 101
1, 101971, Note_off_c, 0, 55, 101
1, 101982, Note_on_c, 0, 57, 100
1, 102028, Note_off_c, 0, 57, 100
1, 102046, Note_on_c, 0, 58, 102
1, 102106, Note_off_c, 0, 58, 102
1, 102106, Note_on_c, 0, 60, 106
1, 102191, Note_off_c, 0, 60, 106
1, 102193, Note_on_c, 0, 57, 101
1, 102239, Note_off_c, 0, 57, 101
1, 102255, Note_on_c, 0, 58, 98
1, 102298, Note_off_c, 0, 58, 98
1, 102335, Note_on_c, 0, 60, 104
1, 102408, Note_off_c, 0, 60, 104
1, 102417, Note_on_c, 0, 61, 102
1, 102457, Note_off_c, 0, 61, 102
1, 102464, Note_on_c, 0, 62, 103
1, 102539, Note_off_c, 0, 62, 103
1, 102541, Note_on_c, 0, 69, 100
1, 102574, Note_off_c, 0, 69, 100
1, 102583, Note_on_c, 0, 72, 102
1, 102643, Note_off_c, 0, 72, 102
1, 102651, Note_on_c, 0, 70, 104
1, 102773, Note_off_c, 0, 70, 104
1, 103552, Note_on_c, 0, 69, 109
1, 103595, Note_off_c, 0, 69, 109
1, 103601, Note_on_c, 0, 67, 116
1, 103657, Note_off_c, 0, 67, 116
1, 103657, Note_on_c, 0, 65, 107
1, 103720, Note_off_c, 0, 65, 107
1, 103728, Note_on_c, 0, 64, 113
1, 103819, Note_off_c, 0, 64, 113
1, 103831, Note_on_c, 0, 62, 108
1, 103905, Note_off_c, 0, 62, 108
1, 103921, Note_on_c, 0, 60, 99
1, 103988, Note_off_c, 0, 60, 99
1, 104000, Note_on_c, 0, 58, 108
1, 104095, Note_off_c, 0, 58, 108
1, 104124, Note_on_c, 0, 55, 99
1, 104187, Note_off_c, 0, 55, 99
1, 104194, Note_on_c, 0, 56, 92
1, 104306, Note_off_c, 0, 56, 92
1, 104323, Note_on_c, 0, 52, 107
1, 104370, Note_off_c, 0, 52, 107
1, 104401, Note_on_c, 0, 53, 100
1, 104466, Note_off_c, 0, 53, 100
1, 104490, Note_on_c, 0, 52, 88
1, 104525, Note_off_c, 0, 52, 88
1, 104546, Note_on_c, 0, 50, 91
1, 104610, Note_off_c, 0, 50, 91
1, 104639, Note_on_c, 0, 48, 110
1, 104674, Note_off_c, 0, 48, 110
1, 104750, Note_on_c, 0, 55, 99
1, 104816, Note_off_c, 0, 55, 99
1, 104824, Note_on_c, 0, 53, 102
1, 104939, Note_off_c, 0, 53, 102
1, 105643, Note_on_c, 0, 57, 94
1, 105787, Note_off_c, 0, 57, 94
1, 105830, Note_on_c, 0, 60, 111
1, 105976, Note_off_c, 0, 60, 111
1, 105995, Note_on_c, 0, 57, 102
1, 106135, Note_off_c, 0, 57, 102
1, 106196, Note_on_c, 0, 58, 99
1, 106304, Note_off_c, 0, 58, 99
1, 106311, Note_on_c, 0, 60, 89
1, 106370, Note_off_c, 0, 60, 89
1, 106397, Note_on_c, 0, 62, 108
1, 106511, Note_off_c, 0, 62, 108
1, 106518, Note_on_c, 0, 65, 109
1, 106632, Note_off_c, 0, 65, 109
1, 107271, Note_on_c, 0, 62, 117
1, 107369, Note_off_c, 0, 62, 117
1, 107374, Note_on_c, 0, 60, 92
1, 107520, Note_off_c, 0, 60, 92
1, 107571, Note_on_c, 0, 62, 113
1, 107658, Note_off_c, 0, 62, 113
1, 107745, Note_on_c, 0, 58, 103
1, 107911, Note_off_c, 0, 58, 103
1, 107942, Note_on_c, 0, 60, 108
1, 108042, Note_off_c, 0, 60, 108
1, 108095, Note_on_c, 0, 56, 100
1, 108223, Note_off_c, 0, 56, 100
1, 108294, Note_on_c, 0, 58, 98
1, 108394, Note_off_c, 0, 58, 98
1, 108429, Note_on_c, 0, 55, 93
1, 108605, Note_off_c, 0, 55, 93
1, 108676, Note_on_c, 0, 56, 93
1, 108721, Note_off_c, 0, 56, 93
1, 108738, Note_on_c, 0, 57, 91
1, 108831, Note_off_c, 0, 57, 91
1, 108874, Note_on_c, 0, 53, 94
1, 109127, Note_off_c, 0, 53, 94
1, 109237, Note_on_c, 0, 54, 97
1, 109290, Note_off_c, 0, 54, 97
1, 109305, Note_on_c, 0, 55, 95
1, 109409, Note_off_c, 0, 55, 95
1, 109430, Note_on_c, 0, 53, 89
1, 109580, Note_off_c, 0, 53, 89
1, 109641, Note_on_c, 0, 55, 101
1, 109700, Note_off_c, 0, 55, 101
1, 109717, Note_on_c, 0, 56, 97
1, 109776, Note_off_c, 0, 56, 97
1, 109803, Note_on_c, 0, 60, 101
1, 109880, Note_off_c, 0, 60, 101
1, 109967, Note_on_c, 0, 55, 87
1, 110287, Note_off_c, 0, 55, 87
1, 110362, Note_on_c, 0, 53, 93
1, 110407, Note_off_c, 0, 53, 93
1, 110408, Note_on_c, 0, 55, 98
1, 110487, Note_off_c, 0, 55, 98
1, 110510, Note_on_c, 0, 57, 102
1, 110614, Note_off_c, 0, 57, 102
1, 111953, Note_on_c, 0, 71, 113
1, 112024, Note_off_c, 0, 71, 113
1, 112045, Note_on_c, 0, 69, 116
1, 112110, Note_off_c, 0, 69, 116
1, 112121, Note_on_c, 0, 68, 113
1, 112210, Note_off_c, 0, 68, 113
1, 112227, Note_on_c, 0, 66, 110
1, 112345, Note_off_c, 0, 66, 110
1, 112356, Note_on_c, 0, 65, 101
1, 112409, Note_off_c, 0, 65, 101
1, 112432, Note_on_c, 0, 64, 113
1, 112493, Note_off_c, 0, 64, 113
1, 112493, Note_on_c, 0, 62, 101
1, 112589, Note_off_c, 0, 62, 101
1, 112606, Note_on_c, 0, 60, 99
1, 112681, Note_off_c, 0, 60, 99
1, 112686, Note_on_c, 0, 59, 98
1, 112769, Note_off_c, 0, 59, 98
1, 112788, Note_on_c, 0, 55, 96
1, 112861, Note_off_c, 0, 55, 96
1, 112864, Note_on_c, 0, 56, 84
1, 112919, Note_off_c, 0, 56, 84
1, 112954, Note_on_c, 0, 57, 97
1, 113025, Note_off_c, 0, 57, 97
1, 113040, Note_on_c, 0, 59, 95
1, 113146, Note_off_c, 0, 59, 95
1, 113157, Note_on_c, 0, 57, 93
1, 113248, Note_off_c, 0, 57, 93
1, 113248, Note_on_c, 0, 53, 87
1, 113388, Note_off_c, 0, 53, 87
1, 113397, Note_on_c, 0, 52, 83
1, 113519, Note_off_c, 0, 52, 83
1, 113526, Note_on_c, 0, 54, 82
1, 113597, Note_off_c, 0, 54, 82
1, 113616, Note_on_c, 0, 55, 95
1, 113707, Note_off_c, 0, 55, 95
1, 113734, Note_on_c, 0, 54, 97
1, 113836, Note_off_c, 0, 54, 97
1, 113849, Note_on_c, 0, 53, 94
1, 113961, Note_off_c, 0, 53, 94
1, 114046, Note_on_c, 0, 52, 94
1, 114109, Note_off_c, 0, 52, 94
1, 114112, Note_on_c, 0, 54, 91
1, 114181, Note_off_c, 0, 54, 91
1, 114208, Note_on_c, 0, 55, 95
1, 114299, Note_off_c, 0, 55, 95
1, 114328, Note_on_c, 0, 63, 104
1, 114379, Note_off_c, 0, 63, 104
1, 114444, Note_on_c, 0, 57, 101
1, 114489, Note_off_c, 0, 57, 101
1, 114504, Note_on_c, 0, 58, 97
1, 114569, Note_off_c, 0, 58, 97
1, 114582, Note_on_c, 0, 64, 107
1, 114678, Note_off_c, 0, 64, 107
1, 114699, Note_on_c, 0, 66, 97
1, 114764, Note_off_c, 0, 66, 97
1, 114870, Note_on_c, 0, 71, 86
1, 114937, Note_off_c, 0, 71, 86
1, 114984, Note_on_c, 0, 76, 95
1, 115051, Note_off_c, 0, 76, 95
1, 115080, Note_on_c, 0, 71, 104
1, 115139, Note_off_c, 0, 71, 104
1, 115156, Note_on_c, 0, 67, 100
1, 115229, Note_off_c, 0, 67, 100
1, 115242, Note_on_c, 0, 67, 92
1, 115295, Note_off_c, 0, 67, 92
1, 115312, Note_on_c, 0, 64, 100
1, 115403, Note_off_c, 0, 64, 100
1, 115539, Note_on_c, 0, 69, 9
1, 115657, Note_off_c, 0, 69, 9
1, 115708, Note_on_c, 0, 60, 86
1, 115777, Note_off_c, 0, 60, 86
1, 115838, Note_on_c, 0, 67, 98
1, 115897, Note_off_c, 0, 67, 98
1, 115900, Note_on_c, 0, 66, 98
1, 115977, Note_off_c, 0, 66, 98
1, 116018, Note_on_c, 0, 65, 105
1, 116085, Note_off_c, 0, 65, 105
1, 116102, Note_on_c, 0, 64, 103
1, 116198, Note_off_c, 0, 64, 103
1, 116259, Note_on_c, 0, 62, 96
1, 116310, Note_off_c, 0, 62, 96
1, 116333, Note_on_c, 0, 63, 95
1, 116408, Note_off_c, 0, 63, 95
1, 116449, Note_on_c, 0, 70, 101
1, 116585, Note_off_c, 0, 70, 101
1, 116616, Note_on_c, 0, 68, 101
1, 116673, Note_off_c, 0, 68, 101
1, 117011, Note_on_c, 0, 58, 99
1, 117078, Note_off_c, 0, 58, 99
1, 117097, Note_on_c, 0, 62, 97
1, 117164, Note_off_c, 0, 62, 97
1, 117177, Note_on_c, 0, 65, 89
1, 117238, Note_off_c, 0, 65, 89
1, 117271, Note_on_c, 0, 69, 105
1, 117379, Note_off_c, 0, 69, 105
1, 117402, Note_on_c, 0, 67, 100
1, 117475, Note_off_c, 0, 67, 100
1, 117959, Note_on_c, 0, 67, 112
1, 118028, Note_off_c, 0, 67, 112
1, 118051, Note_on_c, 0, 65, 104
1, 118134, Note_off_c, 0, 65, 104
1, 118355, Note_on_c, 0, 65, 110
1, 118428, Note_off_c, 0, 65, 110
1, 118437, Note_on_c, 0, 64, 108
1, 118504, Note_off_c, 0, 64, 108
1, 118719, Note_on_c, 0, 65, 105
1, 118758, Note_off_c, 0, 65, 105
1, 118775, Note_on_c, 0, 64, 109
1, 118854, Note_off_c, 0, 64, 109
1, 118865, Note_on_c, 0, 62, 86
1, 118916, Note_off_c, 0, 62, 86
1, 119121, Note_on_c, 0, 64, 109
1, 119162, Note_off_c, 0, 64, 109
1, 119175, Note_on_c, 0, 62, 103
1, 119220, Note_off_c, 0, 62, 103
1, 119229, Note_on_c, 0, 60, 85
1, 119298, Note_off_c, 0, 60, 85
1, 119776, Note_on_c, 0, 58, 102
1, 120151, Note_off_c, 0, 58, 102
1, 120179, Note_on_c, 0, 55, 85
1, 120283, Note_off_c, 0, 55, 85
1, 120309, Note_on_c, 0, 56, 106
1, 120370, Note_off_c, 0, 56, 106
1, 120379, Note_on_c, 0, 57, 94
1, 120539, Note_off_c, 0, 57, 94
1, 120550, Note_on_c, 0, 60, 107
1, 120627, Note_off_c, 0, 60, 107
1, 120746, Note_on_c, 0, 56, 91
1, 120820, Note_off_c, 0, 56, 91
1, 120832, Note_on_c, 0, 57, 96
1, 121018, Note_off_c, 0, 57, 96
1, 121889, Note_on_c, 0, 73, 100
1, 121970, Note_off_c, 0, 73, 100
1, 121981, Note_on_c, 0, 72, 90
1, 122042, Note_off_c, 0, 72, 90
1, 122056, Note_on_c, 0, 71, 93
1, 122120, Note_off_c, 0, 71, 93
1, 122142, Note_on_c, 0, 70, 93
1, 122217, Note_off_c, 0, 70, 93
1, 122225, Note_on_c, 0, 69, 106
1, 122306, Note_off_c, 0, 69, 106
1, 122325, Note_on_c, 0, 68, 96
1, 122395, Note_off_c, 0, 68, 96
1, 122411, Note_on_c, 0, 67, 104
1, 122475, Note_off_c, 0, 67, 104
1, 122489, Note_on_c, 0, 66, 99
1, 122567, Note_off_c, 0, 66, 99
1, 122592, Note_on_c, 0, 65, 101
1, 122729, Note_off_c, 0, 65, 101
1, 122734, Note_on_c, 0, 64, 102
1, 122814, Note_off_c, 0, 64, 102
1, 122843, Note_on_c, 0, 62, 100
1, 122902, Note_off_c, 0, 62, 100
1, 122913, Note_on_c, 0, 60, 95
1, 123008, Note_off_c, 0, 60, 95
1, 123015, Note_on_c, 0, 59, 99
1, 123110, Note_off_c, 0, 59, 99
1, 123124, Note_on_c, 0, 58, 102
1, 123219, Note_off_c, 0, 58, 102
1, 123244, Note_on_c, 0, 57, 96
1, 123327, Note_off_c, 0, 57, 96
1, 123345, Note_on_c, 0, 56, 93
1, 123399, Note_off_c, 0, 56, 93
1, 123418, Note_on_c, 0, 55, 90
1, 123502, Note_off_c, 0, 55, 90
1, 123524, Note_on_c, 0, 54, 90
1, 123621, Note_off_c, 0, 54, 90
1, 123630, Note_on_c, 0, 53, 92
1, 123691, Note_off_c, 0, 53, 92
1, 123731, Note_on_c, 0, 58, 93
1, 123794, Note_off_c, 0, 58, 93
1, 123798, Note_on_c, 0, 59, 98
1, 123886, Note_off_c, 0, 59, 98
1, 123895, Note_on_c, 0, 54, 95
1, 123985, Note_off_c, 0, 54, 95
1, 123999, Note_on_c, 0, 53, 89
1, 124063, Note_off_c, 0, 53, 89
1, 124082, Note_on_c, 0, 51, 86
1, 124155, Note_off_c, 0, 51, 86
1, 124178, Note_on_c, 0, 52, 92
1, 124335, Note_off_c, 0, 52, 92
1, 124765, Note_on_c, 0, 62, 99
1, 124876, Note_off_c, 0, 62, 99
1, 124892, Note_on_c, 0, 61, 92
1, 124963, Note_off_c, 0, 61, 92
1, 124968, Note_on_c, 0, 60, 89
1, 125065, Note_off_c, 0, 60, 89
1, 125171, Note_on_c, 0, 59, 95
1, 125258, Note_off_c, 0, 59, 95
1, 125356, Note_on_c, 0, 56, 87
1, 125454, Note_off_c, 0, 56, 87
1, 125650, Note_on_c, 0, 60, 99
1, 125748, Note_off_c, 0, 60, 99
1, 125930, Note_on_c, 0, 58, 88
1, 125991, Note_off_c, 0, 58, 88
1, 125999, Note_on_c, 0, 61, 77
1, 126058, Note_off_c, 0, 61, 77
1, 126073, Note_on_c, 0, 64, 111
1, 126172, Note_off_c, 0, 64, 111
1, 126183, Note_on_c, 0, 61, 97
1, 126256, Note_off_c, 0, 61, 97
1, 126263, Note_on_c, 0, 62, 95
1, 126322, Note_off_c, 0, 62, 95
1, 126375, Note_on_c, 0, 68, 107
1, 126442, Note_off_c, 0, 68, 107
1, 126446, Note_on_c, 0, 69, 109
1, 126654, Note_off_c, 0, 69, 109
1, 126655, Note_on_c, 0, 67, 101
1, 126726, Note_off_c, 0, 67, 101
1, 126859, Note_on_c, 0, 62, 87
1, 127137, Note_off_c, 0, 62, 87
1, 127606, Note_on_c, 0, 62, 104
1, 127721, Note_off_c, 0, 62, 104
1, 127737, Note_on_c, 0, 59, 90
1, 127796, Note_off_c, 0, 59, 90
1, 127796, Note_on_c, 0, 64, 106
1, 127973, Note_off_c, 0, 64, 106
1, 127980, Note_on_c, 0, 65, 98
1, 128096, Note_off_c, 0, 65, 98
1, 128121, Note_on_c, 0, 67, 102
1, 128256, Note_off_c, 0, 67, 102
1, 128256, Note_on_c, 0, 60, 96
1, 128354, Note_off_c, 0, 60, 96
1, 128405, Note_on_c, 0, 60, 87
1, 128672, Note_off_c, 0, 60, 87
1, 128753, Note_on_c, 0, 65, 107
1, 128805, Note_off_c, 0, 65, 107
1, 128855, Note_on_c, 0, 69, 105
1, 129025, Note_off_c, 0, 69, 105
1, 129115, Note_on_c, 0, 59, 92
1, 129396, Note_off_c, 0, 59, 92
1, 129628, Note_on_c, 0, 60, 102
1, 129725, Note_off_c, 0, 60, 102
1, 129746, Note_on_c, 0, 65, 93
1, 129791, Note_off_c, 0, 65, 93
1, 129812, Note_on_c, 0, 69, 110
1, 129907, Note_off_c, 0, 69, 110
1, 129907, Note_on_c, 0, 70, 99
1, 129999, Note_off_c, 0, 70, 99
1, 130006, Note_on_c, 0, 69, 104
1, 130114, Note_off_c, 0, 69, 104
1, 130133, Note_on_c, 0, 65, 87
1, 130189, Note_off_c, 0, 65, 87
1, 130211, Note_on_c, 0, 60, 78
1, 130289, Note_off_c, 0, 60, 78
1, 130431, Note_on_c, 0, 69, 112
1, 130521, Note_off_c, 0, 69, 112
1, 130526, Note_on_c, 0, 70, 106
1, 130621, Note_off_c, 0, 70, 106
1, 130623, Note_on_c, 0, 69, 105
1, 130711, Note_off_c, 0, 69, 105
1, 130719, Note_on_c, 0, 65, 95
1, 130787, Note_off_c, 0, 65, 95
1, 130796, Note_on_c, 0, 60, 90
1, 130859, Note_off_c, 0, 60, 90
1, 130956, Note_on_c, 0, 65, 102
1, 130995, Note_off_c, 0, 65, 102
1, 130997, Note_on_c, 0, 69, 108
1, 131089, Note_off_c, 0, 69, 108
1, 131100, Note_on_c, 0, 70, 107
1, 131171, Note_off_c, 0, 70, 107
1, 131179, Note_on_c, 0, 69, 109
1, 131269, Note_off_c, 0, 69, 109
1, 131294, Note_on_c, 0, 65, 93
1, 131381, Note_off_c, 0, 65, 93
1, 131393, Note_on_c, 0, 60, 90
1, 131445, Note_off_c, 0, 60, 90
1, 131491, Note_on_c, 0, 65, 97
1, 131564, Note_off_c, 0, 65, 97
1, 131579, Note_on_c, 0, 69, 109
1, 131833, Note_off_c, 0, 69, 109
1, 131845, Note_on_c, 0, 70, 102
1, 131944, Note_off_c, 0, 70, 102
1, 131959, Note_on_c, 0, 69, 106
1, 132039, Note_off_c, 0, 69, 106
1, 132054, Note_on_c, 0, 65, 103
1, 132124, Note_off_c, 0, 65, 103
1, 132131, Note_on_c, 0, 60, 100
1, 132185, Note_off_c, 0, 60, 100
1, 132217, Note_on_c, 0, 65, 99
1, 132281, Note_off_c, 0, 65, 99
1, 132286, Note_on_c, 0, 69, 104
1, 132425, Note_off_c, 0, 69, 104
1, 132429, Note_on_c, 0, 70, 101
1, 132492, Note_off_c, 0, 70, 101
1, 132503, Note_on_c, 0, 69, 103
1, 132578, Note_off_c, 0, 69, 103
1, 132601, Note_on_c, 0, 65, 108
1, 132665, Note_off_c, 0, 65, 108
1, 132698, Note_on_c, 0, 60, 99
1, 132752, Note_off_c, 0, 60, 99
1, 132787, Note_on_c, 0, 65, 89
1, 132829, Note_off_c, 0, 65, 89
1, 132857, Note_on_c, 0, 69, 107
1, 133602, Note_off_c, 0, 69, 107
1, 133632, Note_on_c, 0, 70, 103
1, 133719, Note_off_c, 0, 70, 103
1, 133734, Note_on_c, 0, 69, 108
1, 133813, Note_off_c, 0, 69, 108
1, 133830, Note_on_c, 0, 65, 96
1, 133948, Note_off_c, 0, 65, 96
1, 133975, Note_on_c, 0, 62, 93
1, 134054, Note_off_c, 0, 62, 93
1, 134075, Note_on_c, 0, 69, 111
1, 134181, Note_off_c, 0, 69, 111
1, 134194, Note_on_c, 0, 70, 100
1, 134271, Note_off_c, 0, 70, 100
1, 134292, Note_on_c, 0, 69, 110
1, 134383, Note_off_c, 0, 69, 110
1, 134408, Note_on_c, 0, 65, 105
1, 134499, Note_off_c, 0, 65, 105
1, 134508, Note_on_c, 0, 62, 90
1, 134571, Note_off_c, 0, 62, 90
1, 134669, Note_on_c, 0, 69, 110
1, 134779, Note_off_c, 0, 69, 110
1, 134792, Note_on_c, 0, 70, 93
1, 134847, Note_off_c, 0, 70, 93
1, 134866, Note_on_c, 0, 69, 105
1, 134982, Note_off_c, 0, 69, 105
1, 135532, Note_on_c, 0, 62, 113
1, 135588, Note_off_c, 0, 62, 113
1, 135588, Note_on_c, 0, 65, 108
1, 135628, Note_off_c, 0, 65, 108
1, 135628, Note_on_c, 0, 68, 100
1, 135661, Note_off_c, 0, 68, 100
1, 135675, Note_on_c, 0, 69, 113
1, 135722, Note_off_c, 0, 69, 113
1, 135724, Note_on_c, 0, 74, 111
1, 135799, Note_off_c, 0, 74, 111
1, 135812, Note_on_c, 0, 71, 117
1, 135881, Note_off_c, 0, 71, 117
1, 135885, Note_on_c, 0, 69, 116
1, 135955, Note_off_c, 0, 69, 116
1, 135958, Note_on_c, 0, 67, 110
1, 135979, Note_off_c, 0, 67, 110
1, 135992, Note_on_c, 0, 65, 103
1, 136020, Note_off_c, 0, 65, 103
1, 136028, Note_on_c, 0, 64, 103
1, 136121, Note_off_c, 0, 64, 103
1, 136135, Note_on_c, 0, 68, 92
1, 136184, Note_off_c, 0, 68, 92
1, 136194, Note_on_c, 0, 71, 106
1, 136290, Note_off_c, 0, 71, 106
1, 136290, Note_on_c, 0, 69, 109
1, 136322, Note_off_c, 0, 69, 109
1, 136336, Note_on_c, 0, 68, 99
1, 136410, Note_off_c, 0, 68, 99
1, 136422, Note_on_c, 0, 63, 96
1, 136457, Note_off_c, 0, 63, 96
1, 136464, Note_on_c, 0, 62, 98
1, 136499, Note_off_c, 0, 62, 98
1, 136514, Note_on_c, 0, 61, 99
1, 136557, Note_off_c, 0, 61, 99
1, 136557, Note_on_c, 0, 59, 100
1, 136624, Note_off_c, 0, 59, 100
1, 136639, Note_on_c, 0, 56, 96
1, 136683, Note_off_c, 0, 56, 96
1, 136685, Note_on_c, 0, 54, 88
1, 136724, Note_off_c, 0, 54, 88
1, 136731, Note_on_c, 0, 53, 87
1, 136769, Note_off_c, 0, 53, 87
1, 136769, Note_on_c, 0, 52, 85
1, 136829, Note_off_c, 0, 52, 85
1, 137282, Note_on_c, 0, 67, 106
1, 137337, Note_off_c, 0, 67, 106
1, 137337, Note_on_c, 0, 68, 107
1, 137370, Note_off_c, 0, 68, 107
1, 137374, Note_on_c, 0, 69, 110
1, 137416, Note_off_c, 0, 69, 110
1, 137422, Note_on_c, 0, 71, 110
1, 137486, Note_off_c, 0, 71, 110
1, 137524, Note_on_c, 0, 75, 102
1, 137602, Note_off_c, 0, 75, 102
1, 137611, Note_on_c, 0, 72, 105
1, 137645, Note_off_c, 0, 72, 105
1, 137648, Note_on_c, 0, 73, 107
1, 137699, Note_off_c, 0, 73, 107
1, 137706, Note_on_c, 0, 71, 109
1, 137752, Note_off_c, 0, 71, 109
1, 137760, Note_on_c, 0, 70, 106
1, 137838, Note_off_c, 0, 70, 106
1, 137840, Note_on_c, 0, 71, 103
1, 137890, Note_on_c, 0, 69, 97
1, 137890, Note_off_c, 0, 71, 103
1, 137938, Note_off_c, 0, 69, 97
1, 137974, Note_on_c, 0, 67, 99
1, 138019, Note_off_c, 0, 67, 99
1, 138031, Note_on_c, 0, 69, 107
1, 138058, Note_off_c, 0, 69, 107
1, 138074, Note_on_c, 0, 72, 110
1, 138138, Note_off_c, 0, 72, 110
1, 138154, Note_on_c, 0, 72, 107
1, 138210, Note_off_c, 0, 72, 107
1, 138216, Note_on_c, 0, 70, 103
1, 138247, Note_off_c, 0, 70, 103
1, 138257, Note_on_c, 0, 69, 105
1, 138292, Note_off_c, 0, 69, 105
1, 138293, Note_on_c, 0, 67, 104
1, 138352, Note_off_c, 0, 67, 104
1, 138358, Note_on_c, 0, 66, 106
1, 138450, Note_off_c, 0, 66, 106
1, 138453, Note_on_c, 0, 67, 101
1, 138521, Note_off_c, 0, 67, 101
1, 138531, Note_on_c, 0, 70, 99
1, 138587, Note_off_c, 0, 70, 99
1, 138602, Note_on_c, 0, 66, 104
1, 138643, Note_off_c, 0, 66, 104
1, 138651, Note_on_c, 0, 65, 101
1, 138697, Note_off_c, 0, 65, 101
1, 138699, Note_on_c, 0, 64, 108
1, 138736, Note_off_c, 0, 64, 108
1, 138748, Note_on_c, 0, 65, 100
1, 138789, Note_off_c, 0, 65, 100
1, 138791, Note_on_c, 0, 67, 104
1, 138829, Note_off_c, 0, 67, 104
1, 138837, Note_on_c, 0, 69, 109
1, 138884, Note_off_c, 0, 69, 109
1, 138884, Note_on_c, 0, 65, 99
1, 138903, Note_off_c, 0, 65, 99
1, 138916, Note_on_c, 0, 64, 97
1, 138943, Note_off_c, 0, 64, 97
1, 138959, Note_on_c, 0, 63, 95
1, 138990, Note_off_c, 0, 63, 95
1, 138992, Note_on_c, 0, 64, 102
1, 139028, Note_off_c, 0, 64, 102
1, 139035, Note_on_c, 0, 67, 102
1, 139129, Note_off_c, 0, 67, 102
1, 139143, Note_on_c, 0, 71, 102
1, 139210, Note_off_c, 0, 71, 102
1, 139210, Note_on_c, 0, 66, 105
1, 139288, Note_off_c, 0, 66, 105
1, 139292, Note_on_c, 0, 65, 106
1, 139354, Note_off_c, 0, 65, 106
1, 139357, Note_on_c, 0, 61, 102
1, 139417, Note_off_c, 0, 61, 102
1, 139447, Note_on_c, 0, 58, 101
1, 139515, Note_off_c, 0, 58, 101
1, 139520, Note_on_c, 0, 57, 102
1, 139545, Note_off_c, 0, 57, 102
1, 139567, Note_on_c, 0, 56, 93
1, 139648, Note_off_c, 0, 56, 93
1, 139668, Note_on_c, 0, 58, 98
1, 139729, Note_off_c, 0, 58, 98
1, 139729, Note_on_c, 0, 64, 103
1, 139774, Note_off_c, 0, 64, 103
1, 139780, Note_on_c, 0, 62, 109
1, 139840, Note_off_c, 0, 62, 109
1, 139842, Note_on_c, 0, 61, 103
1, 139901, Note_off_c, 0, 61, 103
1, 139942, Note_on_c, 0, 55, 95
1, 139994, Note_off_c, 0, 55, 95
1, 140002, Note_on_c, 0, 53, 97
1, 140048, Note_off_c, 0, 53, 97
1, 140049, Note_on_c, 0, 51, 98
1, 140098, Note_off_c, 0, 51, 98
1, 140103, Note_on_c, 0, 49, 99
1, 140173, Note_off_c, 0, 49, 99
1, 140319, Note_on_c, 0, 48, 101
1, 140431, Note_off_c, 0, 48, 101
1, 140460, Note_on_c, 0, 46, 111
1, 140538, Note_off_c, 0, 46, 111
1, 140544, Note_on_c, 0, 44, 105
1, 140768, Note_off_c, 0, 44, 105
1, 141250, Note_on_c, 0, 44, 106
1, 141313, Note_off_c, 0, 44, 106
1, 141318, Note_on_c, 0, 51, 100
1, 141385, Note_off_c, 0, 51, 100
1, 141397, Note_on_c, 0, 46, 107
1, 141477, Note_off_c, 0, 46, 107
1, 141484, Note_on_c, 0, 50, 105
1, 141557, Note_off_c, 0, 50, 105
1, 141561, Note_on_c, 0, 46, 114
1, 141604, Note_off_c, 0, 46, 114
1, 141613, Note_on_c, 0, 45, 110
1, 141699, Note_off_c, 0, 45, 110
1, 141705, Note_on_c, 0, 50, 106
1, 141737, Note_off_c, 0, 50, 106
1, 141740, Note_on_c, 0, 54, 106
1, 141821, Note_off_c, 0, 54, 106
1, 141822, Note_on_c, 0, 53, 104
1, 141915, Note_off_c, 0, 53, 104
1, 141919, Note_on_c, 0, 52, 100
1, 141947, Note_off_c, 0, 52, 100
1, 141962, Note_on_c, 0, 50, 104
1, 141986, Note_off_c, 0, 50, 104
1, 141993, Note_on_c, 0, 49, 105
1, 142045, Note_off_c, 0, 49, 105
1, 142052, Note_on_c, 0, 48, 100
1, 142119, Note_off_c, 0, 48, 100
1, 142132, Note_on_c, 0, 53, 97
1, 142155, Note_off_c, 0, 53, 97
1, 142163, Note_on_c, 0, 54, 99
1, 142191, Note_off_c, 0, 54, 99
1, 142204, Note_on_c, 0, 58, 107
1, 142277, Note_off_c, 0, 58, 107
1, 142303, Note_on_c, 0, 55, 110
1, 142351, Note_off_c, 0, 55, 110
1, 142359, Note_on_c, 0, 56, 106
1, 142413, Note_off_c, 0, 56, 106
1, 142423, Note_on_c, 0, 58, 106
1, 142494, Note_off_c, 0, 58, 106
1, 142508, Note_on_c, 0, 60, 100
1, 142581, Note_off_c, 0, 60, 100
1, 142587, Note_on_c, 0, 57, 106
1, 142642, Note_off_c, 0, 57, 106
1, 142649, Note_on_c, 0, 58, 114
1, 142719, Note_off_c, 0, 58, 114
1, 142720, Note_on_c, 0, 60, 95
1, 142766, Note_off_c, 0, 60, 95
1, 142771, Note_on_c, 0, 61, 101
1, 142821, Note_off_c, 0, 61, 101
1, 142832, Note_on_c, 0, 62, 103
1, 142874, Note_off_c, 0, 62, 103
1, 142886, Note_on_c, 0, 63, 99
1, 142962, Note_off_c, 0, 63, 99
1, 142971, Note_on_c, 0, 61, 100
1, 143031, Note_off_c, 0, 61, 100
1, 143049, Note_on_c, 0, 62, 101
1, 143105, Note_off_c, 0, 62, 101
1, 143119, Note_on_c, 0, 61, 94
1, 143199, Note_off_c, 0, 61, 94
1, 143221, Note_on_c, 0, 64, 97
1, 143256, Note_off_c, 0, 64, 97
1, 143278, Note_on_c, 0, 68, 103
1, 143312, Note_off_c, 0, 68, 103
1, 143316, Note_on_c, 0, 69, 110
1, 143371, Note_off_c, 0, 69, 110
1, 143381, Note_on_c, 0, 68, 96
1, 143421, Note_off_c, 0, 68, 96
1, 143427, Note_on_c, 0, 66, 95
1, 143486, Note_off_c, 0, 66, 95
1, 143486, Note_on_c, 0, 65, 89
1, 143530, Note_off_c, 0, 65, 89
1, 143540, Note_on_c, 0, 63, 98
1, 143595, Note_off_c, 0, 63, 98
1, 143595, Note_on_c, 0, 62, 97
1, 143670, Note_off_c, 0, 62, 97
1, 143688, Note_on_c, 0, 65, 93
1, 143723, Note_off_c, 0, 65, 93
1, 143725, Note_on_c, 0, 67, 96
1, 143773, Note_off_c, 0, 67, 96
1, 143785, Note_on_c, 0, 70, 104
1, 143816, Note_off_c, 0, 70, 104
1, 143821, Note_on_c, 0, 74, 105
1, 143884, Note_off_c, 0, 74, 105
1, 143891, Note_on_c, 0, 72, 109
1, 144007, Note_off_c, 0, 72, 109
1, 144953, Note_on_c, 0, 60, 97
1, 144999, Note_off_c, 0, 60, 97
1, 145005, Note_on_c, 0, 64, 91
1, 145034, Note_off_c, 0, 64, 91
1, 145051, Note_on_c, 0, 69, 101
1, 145097, Note_off_c, 0, 69, 101
1, 145101, Note_on_c, 0, 74, 106
1, 145163, Note_off_c, 0, 74, 106
1, 145169, Note_on_c, 0, 72, 108
1, 145233, Note_off_c, 0, 72, 108
1, 145237, Note_on_c, 0, 71, 104
1, 145272, Note_off_c, 0, 71, 104
1, 145278, Note_on_c, 0, 69, 112
1, 145348, Note_off_c, 0, 69, 112
1, 145364, Note_on_c, 0, 65, 101
1, 145482, Note_off_c, 0, 65, 101
1, 145580, Note_on_c, 0, 70, 103
1, 145658, Note_off_c, 0, 70, 103
1, 145675, Note_on_c, 0, 69, 113
1, 145745, Note_off_c, 0, 69, 113
1, 145769, Note_on_c, 0, 67, 107
1, 145852, Note_off_c, 0, 67, 107
1, 145870, Note_on_c, 0, 66, 108
1, 145968, Note_off_c, 0, 66, 108
1, 145989, Note_on_c, 0, 65, 107
1, 146083, Note_off_c, 0, 65, 107
1, 146102, Note_on_c, 0, 64, 113
1, 146178, Note_off_c, 0, 64, 113
1, 146184, Note_on_c, 0, 62, 107
1, 146253, Note_off_c, 0, 62, 107
1, 146271, Note_on_c, 0, 61, 105
1, 146342, Note_off_c, 0, 61, 105
1, 146349, Note_on_c, 0, 60, 96
1, 146460, Note_off_c, 0, 60, 96
1, 146486, Note_on_c, 0, 58, 101
1, 146565, Note_off_c, 0, 58, 101
1, 146589, Note_on_c, 0, 55, 89
1, 146656, Note_off_c, 0, 55, 89
1, 146658, Note_on_c, 0, 56, 100
1, 146720, Note_off_c, 0, 56, 100
1, 146724, Note_on_c, 0, 57, 104
1, 146817, Note_off_c, 0, 57, 104
1, 146848, Note_on_c, 0, 53, 91
1, 146917, Note_off_c, 0, 53, 91
1, 146931, Note_on_c, 0, 52, 90
1, 147030, Note_off_c, 0, 52, 90
1, 147113, Note_on_c, 0, 55, 96
1, 147202, Note_off_c, 0, 55, 96
1, 147294, Note_on_c, 0, 52, 86
1, 147383, Note_off_c, 0, 52, 86
1, 147432, Note_on_c, 0, 53, 94
1, 147533, Note_off_c, 0, 53, 94
1, 147552, Note_on_c, 0, 50, 93
1, 147636, Note_off_c, 0, 50, 93
1, 148206, Note_on_c, 0, 62, 127
1, 148292, Note_off_c, 0, 62, 127
1, 148308, Note_on_c, 0, 60, 110
1, 148375, Note_off_c, 0, 60, 110
1, 148399, Note_on_c, 0, 59, 101
1, 148471, Note_off_c, 0, 59, 101
1, 148499, Note_on_c, 0, 56, 99
1, 148594, Note_off_c, 0, 56, 99
1, 148602, Note_on_c, 0, 57, 95
1, 148690, Note_off_c, 0, 57, 95
1, 148712, Note_on_c, 0, 59, 93
1, 148757, Note_off_c, 0, 59, 93
1, 148775, Note_on_c, 0, 64, 100
1, 148849, Note_off_c, 0, 64, 100
1, 148937, Note_on_c, 0, 57, 98
1, 149001, Note_off_c, 0, 57, 98
1, 149005, Note_on_c, 0, 58, 98
1, 149063, Note_off_c, 0, 58, 98
1, 149080, Note_on_c, 0, 60, 99
1, 149121, Note_off_c, 0, 60, 99
1, 149140, Note_on_c, 0, 64, 106
1, 149242, Note_off_c, 0, 64, 106
1, 149274, Note_on_c, 0, 61, 90
1, 149326, Note_off_c, 0, 61, 90
1, 149353, Note_on_c, 0, 62, 96
1, 149426, Note_off_c, 0, 62, 96
1, 149459, Note_on_c, 0, 64, 104
1, 149506, Note_off_c, 0, 64, 104
1, 149514, Note_on_c, 0, 65, 90
1, 149584, Note_off_c, 0, 65, 90
1, 149610, Note_on_c, 0, 67, 95
1, 149651, Note_off_c, 0, 67, 95
1, 149659, Note_on_c, 0, 68, 103
1, 149752, Note_off_c, 0, 68, 103
1, 149769, Note_on_c, 0, 69, 109
1, 149881, Note_off_c, 0, 69, 109
1, 150272, Note_on_c, 0, 69, 115
1, 150331, Note_off_c, 0, 69, 115
1, 150345, Note_on_c, 0, 70, 109
1, 150536, Note_off_c, 0, 70, 109
1, 150557, Note_on_c, 0, 69, 113
1, 150639, Note_off_c, 0, 69, 113
1, 150667, Note_on_c, 0, 67, 103
1, 150741, Note_off_c, 0, 67, 103
1, 150753, Note_on_c, 0, 65, 98
1, 150856, Note_off_c, 0, 65, 98
1, 150864, Note_on_c, 0, 64, 99
1, 150936, Note_off_c, 0, 64, 99
1, 150944, Note_on_c, 0, 65, 90
1, 150993, Note_off_c, 0, 65, 90
1, 151007, Note_on_c, 0, 67, 104
1, 151100, Note_off_c, 0, 67, 104
1, 151107, Note_on_c, 0, 66, 99
1, 151180, Note_off_c, 0, 66, 99
1, 151191, Note_on_c, 0, 65, 100
1, 151297, Note_off_c, 0, 65, 100
1, 151311, Note_on_c, 0, 63, 88
1, 151367, Note_off_c, 0, 63, 88
1, 151381, Note_on_c, 0, 64, 99
1, 151438, Note_off_c, 0, 64, 99
1, 151466, Note_on_c, 0, 67, 100
1, 151529, Note_off_c, 0, 67, 100
1, 151553, Note_on_c, 0, 65, 94
1, 151613, Note_off_c, 0, 65, 94
1, 151641, Note_on_c, 0, 62, 98
1, 151712, Note_off_c, 0, 62, 98
1, 151720, Note_on_c, 0, 58, 100
1, 151806, Note_off_c, 0, 58, 100
1, 151941, Note_on_c, 0, 64, 106
1, 152361, Note_off_c, 0, 64, 106
1, 152376, Note_on_c, 0, 62, 101
1, 152498, Note_off_c, 0, 62, 101
1, 152503, Note_on_c, 0, 61, 98
1, 152558, Note_off_c, 0, 61, 98
1, 152565, Note_on_c, 0, 58, 105
1, 152646, Note_off_c, 0, 58, 105
1, 152656, Note_on_c, 0, 60, 106
1, 152752, Note_off_c, 0, 60, 106
1, 152774, Note_on_c, 0, 61, 99
1, 152842, Note_off_c, 0, 61, 99
1, 152849, Note_on_c, 0, 58, 102
1, 152943, Note_off_c, 0, 58, 102
1, 153422, Note_on_c, 0, 68, 112
1, 153497, Note_off_c, 0, 68, 112
1, 153532, Note_on_c, 0, 66, 99
1, 153600, Note_off_c, 0, 66, 99
1, 153604, Note_on_c, 0, 61, 101
1, 153675, Note_off_c, 0, 61, 101
1, 153712, Note_on_c, 0, 59, 104
1, 153778, Note_off_c, 0, 59, 104
1, 153803, Note_on_c, 0, 67, 103
1, 153890, Note_off_c, 0, 67, 103
1, 153910, Note_on_c, 0, 64, 97
1, 153981, Note_off_c, 0, 64, 97
1, 154007, Note_on_c, 0, 60, 93
1, 154072, Note_off_c, 0, 60, 93
1, 154085, Note_on_c, 0, 57, 84
1, 154142, Note_off_c, 0, 57, 84
1, 154159, Note_on_c, 0, 66, 110
1, 154242, Note_off_c, 0, 66, 110
1, 154259, Note_on_c, 0, 62, 101
1, 154311, Note_off_c, 0, 62, 101
1, 154355, Note_on_c, 0, 58, 100
1, 154431, Note_off_c, 0, 58, 100
1, 154452, Note_on_c, 0, 55, 85
1, 154532, Note_off_c, 0, 55, 85
1, 154534, Note_on_c, 0, 64, 101
1, 154626, Note_off_c, 0, 64, 101
1, 154647, Note_on_c, 0, 60, 90
1, 154704, Note_off_c, 0, 60, 90
1, 154718, Note_on_c, 0, 56, 96
1, 154797, Note_off_c, 0, 56, 96
1, 154918, Note_on_c, 0, 62, 102
1, 155021, Note_off_c, 0, 62, 102
1, 155373, Note_on_c, 0, 64, 109
1, 155775, Note_off_c, 0, 64, 109
1, 155777, Note_on_c, 0, 60, 102
1, 155871, Note_off_c, 0, 60, 102
1, 155893, Note_on_c, 0, 57, 100
1, 155986, Note_off_c, 0, 57, 100
1, 156050, Note_on_c, 0, 62, 104
1, 156151, Note_off_c, 0, 62, 104
1, 156178, Note_on_c, 0, 56, 96
1, 156246, Note_off_c, 0, 56, 96
1, 156270, Note_on_c, 0, 53, 88
1, 156349, Note_off_c, 0, 53, 88
1, 156463, Note_on_c, 0, 60, 95
1, 156555, Note_off_c, 0, 60, 95
1, 156569, Note_on_c, 0, 55, 91
1, 156605, Note_off_c, 0, 55, 91
1, 156615, Note_on_c, 0, 53, 89
1, 156650, Note_off_c, 0, 53, 89
1, 156659, Note_on_c, 0, 50, 87
1, 156704, Note_off_c, 0, 50, 87
1, 156836, Note_on_c, 0, 55, 97
1, 156872, Note_off_c, 0, 55, 97
1, 156882, Note_on_c, 0, 57, 105
1, 156984, Note_off_c, 0, 57, 105
1, 157947, Note_on_c, 0, 59, 104
1, 157997, Note_off_c, 0, 59, 104
1, 158025, Note_on_c, 0, 60, 106
1, 158194, Note_off_c, 0, 60, 106
1, 158226, Note_on_c, 0, 58, 107
1, 158313, Note_off_c, 0, 58, 107
1, 158327, Note_on_c, 0, 57, 108
1, 158401, Note_off_c, 0, 57, 108
1, 158416, Note_on_c, 0, 55, 98
1, 158484, Note_off_c, 0, 55, 98
1, 158503, Note_on_c, 0, 53, 95
1, 158591, Note_off_c, 0, 53, 95
1, 158609, Note_on_c, 0, 54, 88
1, 158677, Note_off_c, 0, 54, 88
1, 158692, Note_on_c, 0, 55, 103
1, 158789, Note_off_c, 0, 55, 103
1, 158804, Note_on_c, 0, 54, 99
1, 158888, Note_off_c, 0, 54, 99
1, 158909, Note_on_c, 0, 53, 98
1, 159010, Note_off_c, 0, 53, 98
1, 159031, Note_on_c, 0, 51, 90
1, 159106, Note_off_c, 0, 51, 90
1, 159106, Note_on_c, 0, 52, 106
1, 159257, Note_off_c, 0, 52, 106
1, 159262, Note_on_c, 0, 45, 105
1, 159435, Note_off_c, 0, 45, 105
1, 159460, Note_on_c, 0, 50, 96
1, 159762, Note_off_c, 0, 50, 96
1, 160720, Note_on_c, 0, 46, 103
1, 160780, Note_off_c, 0, 46, 103
1, 160785, Note_on_c, 0, 47, 98
1, 160849, Note_off_c, 0, 47, 98
1, 160889, Note_on_c, 0, 56, 104
1, 160956, Note_off_c, 0, 56, 104
1, 160996, Note_on_c, 0, 44, 105
1, 161102, Note_off_c, 0, 44, 105
1, 161135, Note_on_c, 0, 46, 95
1, 161202, Note_off_c, 0, 46, 95
1, 161408, Note_on_c, 0, 45, 100
1, 161550, Note_off_c, 0, 45, 100
1, 161798, Note_on_c, 0, 48, 99
1, 161903, Note_off_c, 0, 48, 99
1, 162161, Note_on_c, 0, 52, 103
1, 162256, Note_off_c, 0, 52, 103
1, 162282, Note_on_c, 0, 49, 89
1, 162353, Note_off_c, 0, 49, 89
1, 162358, Note_on_c, 0, 50, 94
1, 162449, Note_off_c, 0, 50, 94
1, 162474, Note_on_c, 0, 52, 100
1, 162548, Note_off_c, 0, 52, 100
1, 162559, Note_on_c, 0, 53, 98
1, 162637, Note_off_c, 0, 53, 98
1, 162648, Note_on_c, 0, 55, 94
1, 162718, Note_off_c, 0, 55, 94
1, 162727, Note_on_c, 0, 56, 102
1, 162788, Note_off_c, 0, 56, 102
1, 162809, Note_on_c, 0, 64, 108
1, 162873, Note_off_c, 0, 64, 108
1, 162918, Note_on_c, 0, 56, 96
1, 162981, Note_off_c, 0, 56, 96
1, 162988, Note_on_c, 0, 55, 76
1, 163063, Note_off_c, 0, 55, 76
1, 163082, Note_on_c, 0, 64, 102
1, 163218, Note_off_c, 0, 64, 102
1, 163225, Note_on_c, 0, 65, 101
1, 163320, Note_off_c, 0, 65, 101
1, 163322, Note_on_c, 0, 69, 100
1, 163385, Note_off_c, 0, 69, 100
1, 163397, Note_on_c, 0, 71, 86
1, 163440, Note_off_c, 0, 71, 86
1, 163483, Note_on_c, 0, 76, 87
1, 163575, Note_off_c, 0, 76, 87
1, 163711, Note_on_c, 0, 81, 88
1, 164172, Note_off_c, 0, 81, 88
1, 164782, Note_on_c, 0, 82, 99
1, 164829, Note_off_c, 0, 82, 99
1, 164857, Note_on_c, 0, 80, 88
1, 164932, Note_off_c, 0, 80, 88
1, 164946, Note_on_c, 0, 79, 101
1, 165009, Note_off_c, 0, 79, 101
1, 165049, Note_on_c, 0, 77, 85
1, 165133, Note_off_c, 0, 77, 85
1, 165151, Note_on_c, 0, 75, 102
1, 165219, Note_off_c, 0, 75, 102
1, 165272, Note_on_c, 0, 73, 95
1, 165407, Note_off_c, 0, 73, 95
1, 165478, Note_on_c, 0, 71, 104
1, 165589, Note_off_c, 0, 71, 104
1, 165610, Note_on_c, 0, 69, 103
1, 165656, Note_off_c, 0, 69, 103
1, 165665, Note_on_c, 0, 68, 102
1, 165707, Note_off_c, 0, 68, 102
1, 165715, Note_on_c, 0, 67, 100
1, 165792, Note_off_c, 0, 67, 100
1, 165814, Note_on_c, 0, 66, 99
1, 165951, Note_off_c, 0, 66, 99
1, 165965, Note_on_c, 0, 64, 93
1, 166032, Note_off_c, 0, 64, 93
1, 166157, Note_on_c, 0, 64, 83
1, 166223, Note_off_c, 0, 64, 83
1, 166245, Note_on_c, 0, 69, 101
1, 166343, Note_off_c, 0, 69, 101
1, 166371, Note_on_c, 0, 66, 99
1, 166455, Note_off_c, 0, 66, 99
1, 166469, Note_on_c, 0, 65, 99
1, 166525, Note_off_c, 0, 65, 99
1, 166548, Note_on_c, 0, 63, 89
1, 166588, Note_off_c, 0, 63, 89
1, 166596, Note_on_c, 0, 64, 106
1, 166745, Note_off_c, 0, 64, 106
1, 166854, Note_on_c, 0, 74, 94
1, 166952, Note_off_c, 0, 74, 94
1, 167210, Note_on_c, 0, 72, 108
1, 167353, Note_off_c, 0, 72, 108
1, 167576, Note_on_c, 0, 69, 113
1, 167698, Note_off_c, 0, 69, 113
1, 167980, Note_on_c, 0, 70, 111
1, 168082, Note_off_c, 0, 70, 111
1, 168542, Note_on_c, 0, 66, 112
1, 168613, Note_off_c, 0, 66, 112
1, 168621, Note_on_c, 0, 69, 113
1, 168906, Note_off_c, 0, 69, 113
1, 168938, Note_on_c, 0, 65, 107
1, 169028, Note_off_c, 0, 65, 107
1, 169042, Note_on_c, 0, 67, 105
1, 169279, Note_off_c, 0, 67, 105
1, 169318, Note_on_c, 0, 64, 114
1, 169436, Note_off_c, 0, 64, 114
1, 169445, Note_on_c, 0, 65, 105
1, 169647, Note_off_c, 0, 65, 105
1, 169706, Note_on_c, 0, 60, 103
1, 169825, Note_off_c, 0, 60, 103
1, 170506, Note_on_c, 0, 60, 104
1, 170576, Note_off_c, 0, 60, 104
1, 170590, Note_on_c, 0, 62, 108
1, 170639, Note_off_c, 0, 62, 108
1, 170641, Note_on_c, 0, 64, 101
1, 170667, Note_off_c, 0, 64, 101
1, 170676, Note_on_c, 0, 67, 95
1, 170698, Note_off_c, 0, 67, 95
1, 170721, Note_on_c, 0, 69, 98
1, 170766, Note_off_c, 0, 69, 98
1, 170787, Note_on_c, 0, 72, 102
1, 170875, Note_off_c, 0, 72, 102
1, 170893, Note_on_c, 0, 69, 108
1, 170981, Note_off_c, 0, 69, 108
1, 170990, Note_on_c, 0, 65, 95
1, 171047, Note_off_c, 0, 65, 95
1, 171051, Note_on_c, 0, 64, 92
1, 171107, Note_off_c, 0, 64, 92
1, 171175, Note_on_c, 0, 69, 105
1, 171269, Note_off_c, 0, 69, 105
1, 171384, Note_on_c, 0, 64, 89
1, 171450, Note_off_c, 0, 64, 89
1, 171486, Note_on_c, 0, 67, 101
1, 171542, Note_off_c, 0, 67, 101
1, 171575, Note_on_c, 0, 66, 98
1, 171645, Note_off_c, 0, 66, 98
1, 171666, Note_on_c, 0, 62, 95
1, 171753, Note_off_c, 0, 62, 95
1, 172221, Note_on_c, 0, 58, 89
1, 172271, Note_off_c, 0, 58, 89
1, 172275, Note_on_c, 0, 57, 113
1, 172331, Note_off_c, 0, 57, 113
1, 172338, Note_on_c, 0, 56, 113
1, 172373, Note_off_c, 0, 56, 113
1, 172385, Note_on_c, 0, 55, 103
1, 172424, Note_off_c, 0, 55, 103
1, 172428, Note_on_c, 0, 54, 99
1, 172453, Note_off_c, 0, 54, 99
1, 172464, Note_on_c, 0, 46, 110
1, 172530, Note_off_c, 0, 46, 110
1, 172634, Note_on_c, 0, 53, 99
1, 172697, Note_off_c, 0, 53, 99
1, 172705, Note_on_c, 0, 52, 94
1, 172789, Note_off_c, 0, 52, 94
1, 172926, Note_on_c, 0, 59, 107
1, 173006, Note_off_c, 0, 59, 107
1, 173010, Note_on_c, 0, 58, 106
1, 173046, Note_off_c, 0, 58, 106
1, 173065, Note_on_c, 0, 57, 108
1, 173102, Note_off_c, 0, 57, 108
1, 173116, Note_on_c, 0, 56, 104
1, 173179, Note_off_c, 0, 56, 104
1, 173184, Note_on_c, 0, 55, 100
1, 173199, Note_off_c, 0, 55, 100
1, 173228, Note_on_c, 0, 54, 9
1, 173274, Note_off_c, 0, 54, 9
1, 173274, Note_on_c, 0, 53, 9
1, 173296, Note_off_c, 0, 53, 9
1, 173301, Note_on_c, 0, 52, 80
1, 173324, Note_off_c, 0, 52, 80
1, 173450, Note_on_c, 0, 55, 98
1, 173540, Note_off_c, 0, 55, 98
1, 173570, Note_on_c, 0, 57, 102
1, 173655, Note_off_c, 0, 57, 102
1, 173666, Note_on_c, 0, 58, 101
1, 173743, Note_off_c, 0, 58, 101
1, 173750, Note_on_c, 0, 55, 95
1, 173840, Note_off_c, 0, 55, 95
1, 173851, Note_on_c, 0, 56, 104
1, 173869, Note_off_c, 0, 56, 104
1, 173883, Note_on_c, 0, 57, 107
1, 173943, Note_off_c, 0, 57, 107
1, 173952, Note_on_c, 0, 55, 98
1, 174011, Note_off_c, 0, 55, 98
1, 174028, Note_on_c, 0, 53, 92
1, 174105, Note_off_c, 0, 53, 92
1, 174116, Note_on_c, 0, 50, 89
1, 174199, Note_off_c, 0, 50, 89
1, 174224, Note_on_c, 0, 53, 91
1, 174394, Note_off_c, 0, 53, 91
1, 175025, Note_on_c, 0, 48, 107
1, 175112, Note_off_c, 0, 48, 107
1, 175124, Note_on_c, 0, 50, 98
1, 175160, Note_off_c, 0, 50, 98
1, 175160, Note_on_c, 0, 52, 96
1, 175207, Note_off_c, 0, 52, 96
1, 175212, Note_on_c, 0, 53, 98
1, 175262, Note_off_c, 0, 53, 98
1, 175290, Note_on_c, 0, 55, 100
1, 175375, Note_off_c, 0, 55, 100
1, 175407, Note_on_c, 0, 53, 97
1, 175475, Note_off_c, 0, 53, 97
1, 175483, Note_on_c, 0, 52, 94
1, 175561, Note_off_c, 0, 52, 94
1, 175593, Note_on_c, 0, 55, 91
1, 175661, Note_off_c, 0, 55, 91
1, 175676, Note_on_c, 0, 58, 95
1, 175743, Note_off_c, 0, 58, 95
1, 175752, Note_on_c, 0, 60, 97
1, 175854, Note_off_c, 0, 60, 97
1, 175861, Note_on_c, 0, 57, 89
1, 175949, Note_off_c, 0, 57, 89
1, 175981, Note_on_c, 0, 58, 92
1, 176048, Note_off_c, 0, 58, 92
1, 176048, Note_on_c, 0, 60, 98
1, 176138, Note_off_c, 0, 60, 98
1, 176150, Note_on_c, 0, 61, 100
1, 176209, Note_off_c, 0, 61, 100
1, 176220, Note_on_c, 0, 63, 98
1, 176281, Note_off_c, 0, 63, 98
1, 176296, Note_on_c, 0, 64, 91
1, 176376, Note_off_c, 0, 64, 91
1, 176401, Note_on_c, 0, 67, 106
1, 176509, Note_off_c, 0, 67, 106
1, 176521, Note_on_c, 0, 64, 96
1, 176609, Note_off_c, 0, 64, 96
1, 176627, Note_on_c, 0, 65, 93
1, 176679, Note_off_c, 0, 65, 93
1, 176705, Note_on_c, 0, 67, 86
1, 176780, Note_off_c, 0, 67, 86
1, 176805, Note_on_c, 0, 69, 107
1, 176916, Note_off_c, 0, 69, 107
1, 176924, Note_on_c, 0, 65, 95
1, 177075, Note_off_c, 0, 65, 95
1, 177708, Note_on_c, 0, 65, 112
1, 177805, Note_off_c, 0, 65, 112
1, 177810, Note_on_c, 0, 67, 95
1, 177881, Note_off_c, 0, 67, 95
1, 177899, Note_on_c, 0, 69, 112
1, 177976, Note_off_c, 0, 69, 112
1, 177988, Note_on_c, 0, 72, 105
1, 178059, Note_off_c, 0, 72, 105
1, 178089, Note_on_c, 0, 69, 103
1, 178183, Note_off_c, 0, 69, 103
1, 178188, Note_on_c, 0, 65, 104
1, 178275, Note_off_c, 0, 65, 104
1, 178297, Note_on_c, 0, 60, 89
1, 178386, Note_off_c, 0, 60, 89
1, 178399, Note_on_c, 0, 65, 86
1, 178474, Note_off_c, 0, 65, 86
1, 178497, Note_on_c, 0, 69, 103
1, 178595, Note_off_c, 0, 69, 103
1, 178595, Note_on_c, 0, 71, 106
1, 178659, Note_off_c, 0, 71, 106
1, 178668, Note_on_c, 0, 72, 97
1, 178860, Note_off_c, 0, 72, 97
1, 178881, Note_on_c, 0, 70, 98
1, 178994, Note_off_c, 0, 70, 98
1, 179046, Note_on_c, 0, 67, 100
1, 179107, Note_off_c, 0, 67, 100
1, 179122, Note_on_c, 0, 69, 102
1, 179366, Note_off_c, 0, 69, 102
1, 179769, Note_on_c, 0, 65, 83
1, 179818, Note_off_c, 0, 65, 83
1, 179843, Note_on_c, 0, 74, 106
1, 179933, Note_off_c, 0, 74, 106
1, 179948, Note_on_c, 0, 73, 101
1, 180033, Note_off_c, 0, 73, 101
1, 180052, Note_on_c, 0, 72, 105
1, 180116, Note_off_c, 0, 72, 105
1, 180127, Note_on_c, 0, 71, 110
1, 180217, Note_off_c, 0, 71, 110
1, 180233, Note_on_c, 0, 70, 102
1, 180335, Note_off_c, 0, 70, 102
1, 180356, Note_on_c, 0, 67, 101
1, 180419, Note_off_c, 0, 67, 101
1, 180421, Note_on_c, 0, 68, 96
1, 180513, Note_off_c, 0, 68, 96
1, 180541, Note_on_c, 0, 69, 102
1, 180631, Note_off_c, 0, 69, 102
1, 180631, Note_on_c, 0, 72, 98
1, 180711, Note_off_c, 0, 72, 98
1, 180720, Note_on_c, 0, 69, 107
1, 180805, Note_off_c, 0, 69, 107
1, 180826, Note_on_c, 0, 65, 96
1, 180938, Note_off_c, 0, 65, 96
1, 181005, Note_on_c, 0, 67, 98
1, 181107, Note_off_c, 0, 67, 98
1, 181115, Note_on_c, 0, 69, 104
1, 181178, Note_off_c, 0, 69, 104
1, 181199, Note_on_c, 0, 70, 98
1, 181279, Note_off_c, 0, 70, 98
1, 181295, Note_on_c, 0, 67, 101
1, 181394, Note_off_c, 0, 67, 101
1, 181401, Note_on_c, 0, 65, 97
1, 181510, Note_off_c, 0, 65, 97
1, 181539, Note_on_c, 0, 67, 99
1, 181662, Note_off_c, 0, 67, 99
1, 181892, Note_on_c, 0, 66, 108
1, 181952, Note_off_c, 0, 66, 108
1, 181964, Note_on_c, 0, 65, 96
1, 182055, Note_off_c, 0, 65, 96
1, 182073, Note_on_c, 0, 64, 107
1, 182179, Note_off_c, 0, 64, 107
1, 182191, Note_on_c, 0, 62, 102
1, 182282, Note_off_c, 0, 62, 102
1, 182287, Note_on_c, 0, 61, 91
1, 182362, Note_off_c, 0, 61, 91
1, 182373, Note_on_c, 0, 58, 96
1, 182488, Note_off_c, 0, 58, 96
1, 182517, Note_on_c, 0, 55, 88
1, 182559, Note_off_c, 0, 55, 88
1, 182560, Note_on_c, 0, 56, 83
1, 182650, Note_off_c, 0, 56, 83
1, 182745, Note_on_c, 0, 64, 104
1, 182833, Note_off_c, 0, 64, 104
1, 182847, Note_on_c, 0, 60, 93
1, 182932, Note_off_c, 0, 60, 93
1, 182944, Note_on_c, 0, 56, 98
1, 183038, Note_off_c, 0, 56, 98
1, 183039, Note_on_c, 0, 53, 93
1, 183126, Note_off_c, 0, 53, 93
1, 183142, Note_on_c, 0, 50, 86
1, 183229, Note_off_c, 0, 50, 86
1, 183247, Note_on_c, 0, 49, 86
1, 183301, Note_off_c, 0, 49, 86
1, 183334, Note_on_c, 0, 54, 94
1, 183408, Note_off_c, 0, 54, 94
1, 183695, Note_on_c, 0, 53, 102
1, 183816, Note_off_c, 0, 53, 102
1, 183823, Note_on_c, 0, 50, 84
1, 183971, Note_off_c, 0, 50, 84
1, 184371, Note_on_c, 0, 49, 103
1, 184438, Note_off_c, 0, 49, 103
1, 184443, Note_on_c, 0, 50, 106
1, 184469, Note_off_c, 0, 50, 106
1, 184478, Note_on_c, 0, 51, 103
1, 184500, Note_off_c, 0, 51, 103
1, 184511, Note_on_c, 0, 53, 103
1, 184537, Note_off_c, 0, 53, 103
1, 184541, Note_on_c, 0, 57, 101
1, 184618, Note_off_c, 0, 57, 101
1, 184621, Note_on_c, 0, 56, 100
1, 184715, Note_off_c, 0, 56, 100
1, 184724, Note_on_c, 0, 54, 91
1, 184793, Note_off_c, 0, 54, 91
1, 184807, Note_on_c, 0, 53, 91
1, 184858, Note_off_c, 0, 53, 91
1, 184869, Note_on_c, 0, 51, 89
1, 184910, Note_off_c, 0, 51, 89
1, 184910, Note_on_c, 0, 50, 98
1, 184953, Note_off_c, 0, 50, 98
1, 185012, Note_on_c, 0, 59, 99
1, 185112, Note_off_c, 0, 59, 99
1, 185143, Note_on_c, 0, 56, 88
1, 185237, Note_off_c, 0, 56, 88
1, 185237, Note_on_c, 0, 57, 94
1, 185322, Note_off_c, 0, 57, 94
1, 185333, Note_on_c, 0, 58, 93
1, 185388, Note_off_c, 0, 58, 93
1, 185404, Note_on_c, 0, 60, 100
1, 185485, Note_off_c, 0, 60, 100
1, 185519, Note_on_c, 0, 57, 91
1, 185602, Note_off_c, 0, 57, 91
1, 185611, Note_on_c, 0, 58, 90
1, 185672, Note_off_c, 0, 58, 90
1, 185689, Note_on_c, 0, 60, 94
1, 185783, Note_off_c, 0, 60, 94
1, 185788, Note_on_c, 0, 61, 91
1, 185825, Note_off_c, 0, 61, 91
1, 185854, Note_on_c, 0, 64, 88
1, 185895, Note_off_c, 0, 64, 88
1, 185906, Note_on_c, 0, 65, 91
1, 185947, Note_off_c, 0, 65, 91
1, 185974, Note_on_c, 0, 69, 97
1, 186140, Note_off_c, 0, 69, 97
1, 186355, Note_on_c, 0, 67, 101
1, 186400, Note_off_c, 0, 67, 101
1, 186401, Note_on_c, 0, 68, 105
1, 186480, Note_off_c, 0, 68, 105
1, 186481, Note_on_c, 0, 67, 109
1, 186528, Note_off_c, 0, 67, 109
1, 186541, Note_on_c, 0, 66, 105
1, 186610, Note_off_c, 0, 66, 105
1, 186635, Note_on_c, 0, 65, 107
1, 186708, Note_off_c, 0, 65, 107
1, 186723, Note_on_c, 0, 64, 110
1, 186804, Note_off_c, 0, 64, 110
1, 186839, Note_on_c, 0, 62, 109
1, 186920, Note_off_c, 0, 62, 109
1, 186935, Note_on_c, 0, 60, 100
1, 187067, Note_off_c, 0, 60, 100
1, 187080, Note_on_c, 0, 61, 95
1, 187186, Note_off_c, 0, 61, 95
1, 187205, Note_on_c, 0, 60, 92
1, 187274, Note_off_c, 0, 60, 92
1, 187292, Note_on_c, 0, 56, 89
1, 187339, Note_off_c, 0, 56, 89
1, 187347, Note_on_c, 0, 55, 86
1, 187402, Note_off_c, 0, 55, 86
1, 187419, Note_on_c, 0, 56, 91
1, 187464, Note_off_c, 0, 56, 91
1, 187465, Note_on_c, 0, 57, 97
1, 187619, Note_off_c, 0, 57, 97
1, 187842, Note_on_c, 0, 54, 97
1, 187933, Note_off_c, 0, 54, 97
1, 187946, Note_on_c, 0, 55, 91
1, 188215, Note_off_c, 0, 55, 91
1, 188232, Note_on_c, 0, 52, 97
1, 188305, Note_off_c, 0, 52, 97
1, 188318, Note_on_c, 0, 53, 90
1, 188440, Note_off_c, 0, 53, 90
1, 188444, Note_on_c, 0, 50, 91
1, 188500, Note_off_c, 0, 50, 91
1, 188998, Note_on_c, 0, 44, 104
1, 189078, Note_off_c, 0, 44, 104
1, 189087, Note_on_c, 0, 46, 100
1, 189134, Note_off_c, 0, 46, 100
1, 189141, Note_on_c, 0, 51, 96
1, 189225, Note_off_c, 0, 51, 96
1, 189247, Note_on_c, 0, 53, 89
1, 189341, Note_off_c, 0, 53, 89
1, 189341, Note_on_c, 0, 56, 93
1, 189398, Note_off_c, 0, 56, 93
1, 189414, Note_on_c, 0, 58, 94
1, 189520, Note_off_c, 0, 58, 94
1, 189527, Note_on_c, 0, 63, 106
1, 189607, Note_off_c, 0, 63, 106
1, 189621, Note_on_c, 0, 65, 91
1, 189698, Note_off_c, 0, 65, 91
1, 189717, Note_on_c, 0, 68, 95
1, 189783, Note_off_c, 0, 68, 95
1, 189804, Note_on_c, 0, 69, 96
1, 189875, Note_off_c, 0, 69, 96
1, 189886, Note_on_c, 0, 71, 92
1, 189952, Note_off_c, 0, 71, 92
1, 189959, Note_on_c, 0, 76, 88
1, 190115, Note_off_c, 0, 76, 88
1, 190722, Note_on_c, 0, 45, 106
1, 190979, Note_off_c, 0, 45, 106
1, 190998, Note_on_c, 0, 48, 102
1, 191075, Note_off_c, 0, 48, 102
1, 191105, Note_on_c, 0, 50, 95
1, 191179, Note_off_c, 0, 50, 95
1, 191205, Note_on_c, 0, 52, 100
1, 191282, Note_off_c, 0, 52, 100
1, 191289, Note_on_c, 0, 53, 102
1, 191395, Note_off_c, 0, 53, 102
1, 191395, Note_on_c, 0, 55, 97
1, 191445, Note_off_c, 0, 55, 97
1, 191452, Note_on_c, 0, 56, 101
1, 191508, Note_off_c, 0, 56, 101
1, 191530, Note_on_c, 0, 57, 98
1, 191577, Note_off_c, 0, 57, 98
1, 191585, Note_on_c, 0, 59, 94
1, 191635, Note_off_c, 0, 59, 94
1, 191661, Note_on_c, 0, 60, 97
1, 191687, Note_off_c, 0, 60, 97
1, 191706, Note_on_c, 0, 64, 111
1, 191773, Note_off_c, 0, 64, 111
1, 191792, Note_on_c, 0, 65, 97
1, 191896, Note_off_c, 0, 65, 97
1, 191925, Note_on_c, 0, 69, 98
1, 191986, Note_off_c, 0, 69, 98
1, 191995, Note_on_c, 0, 71, 98
1, 192055, Note_off_c, 0, 71, 98
1, 192057, Note_on_c, 0, 73, 99
1, 192102, Note_off_c, 0, 73, 99
1, 192106, Note_on_c, 0, 74, 93
1, 192208, Note_off_c, 0, 74, 93
1, 192226, Note_on_c, 0, 76, 88
1, 192618, Note_off_c, 0, 76, 88
1, 192983, Note_on_c, 0, 74, 105
1, 193094, Note_off_c, 0, 74, 105
1, 193096, Note_on_c, 0, 72, 101
1, 193373, Note_off_c, 0, 72, 101
1, 193396, Note_on_c, 0, 69, 109
1, 193533, Note_off_c, 0, 69, 109
1, 193570, Note_on_c, 0, 64, 86
1, 193637, Note_off_c, 0, 64, 86
1, 193667, Note_on_c, 0, 70, 101
1, 193793, Note_off_c, 0, 70, 101
1, 193808, Note_on_c, 0, 67, 102
1, 193943, Note_off_c, 0, 67, 102
1, 193952, Note_on_c, 0, 65, 94
1, 194004, Note_off_c, 0, 65, 94
1, 194008, Note_on_c, 0, 68, 101
1, 194036, Note_off_c, 0, 68, 101
1, 194043, Note_on_c, 0, 69, 103
1, 194183, Note_off_c, 0, 69, 103
1, 194188, Note_on_c, 0, 65, 97
1, 194262, Note_off_c, 0, 65, 97
1, 194278, Note_on_c, 0, 62, 90
1, 194363, Note_off_c, 0, 62, 90
1, 194368, Note_on_c, 0, 67, 100
1, 194510, Note_off_c, 0, 67, 100
1, 195099, Note_on_c, 0, 69, 111
1, 195214, Note_off_c, 0, 69, 111
1, 195216, Note_on_c, 0, 68, 106
1, 195290, Note_off_c, 0, 68, 106
1, 195299, Note_on_c, 0, 67, 109
1, 195407, Note_off_c, 0, 67, 109
1, 195411, Note_on_c, 0, 66, 107
1, 195494, Note_off_c, 0, 66, 107
1, 195508, Note_on_c, 0, 65, 107
1, 195600, Note_off_c, 0, 65, 107
1, 195614, Note_on_c, 0, 64, 111
1, 195702, Note_off_c, 0, 64, 111
1, 195718, Note_on_c, 0, 62, 105
1, 195793, Note_off_c, 0, 62, 105
1, 195800, Note_on_c, 0, 60, 102
1, 195890, Note_off_c, 0, 60, 102
1, 195895, Note_on_c, 0, 59, 100
1, 195956, Note_off_c, 0, 59, 100
1, 196255, Note_on_c, 0, 62, 115
1, 196367, Note_off_c, 0, 62, 115
1, 196378, Note_on_c, 0, 60, 103
1, 196448, Note_off_c, 0, 60, 103
1, 196453, Note_on_c, 0, 59, 95
1, 196528, Note_off_c, 0, 59, 95
1, 196533, Note_on_c, 0, 57, 101
1, 196616, Note_off_c, 0, 57, 101
1, 196631, Note_on_c, 0, 56, 92
1, 196746, Note_off_c, 0, 56, 92
1, 196905, Note_on_c, 0, 53, 91
1, 197000, Note_off_c, 0, 53, 91
1, 197004, Note_on_c, 0, 52, 91
1, 197070, Note_off_c, 0, 52, 91
1, 197105, Note_on_c, 0, 60, 104
1, 197197, Note_off_c, 0, 60, 104
1, 197211, Note_on_c, 0, 59, 92
1, 197301, Note_off_c, 0, 59, 92
1, 197315, Note_on_c, 0, 57, 101
1, 197405, Note_off_c, 0, 57, 101
1, 197413, Note_on_c, 0, 56, 91
1, 197473, Note_off_c, 0, 56, 91
1, 197473, Note_on_c, 0, 54, 100
1, 197541, Note_off_c, 0, 54, 100
1, 197549, Note_on_c, 0, 52, 99
1, 197636, Note_off_c, 0, 52, 99
1, 197671, Note_on_c, 0, 53, 81
1, 197735, Note_off_c, 0, 53, 81
1, 197751, Note_on_c, 0, 55, 87
1, 197832, Note_off_c, 0, 55, 87
1, 197875, Note_on_c, 0, 57, 104
1, 197931, Note_off_c, 0, 57, 104
1, 197939, Note_on_c, 0, 58, 99
1, 198041, Note_off_c, 0, 58, 99
1, 198070, Note_on_c, 0, 55, 83
1, 198112, Note_off_c, 0, 55, 83
1, 198123, Note_on_c, 0, 58, 95
1, 198191, Note_off_c, 0, 58, 95
1, 198205, Note_on_c, 0, 57, 90
1, 198250, Note_off_c, 0, 57, 90
1, 198261, Note_on_c, 0, 55, 94
1, 198322, Note_off_c, 0, 55, 94
1, 198338, Note_on_c, 0, 54, 95
1, 198432, Note_off_c, 0, 54, 95
1, 198471, Note_on_c, 0, 52, 80
1, 198535, Note_on_c, 0, 53, 95
1, 198535, Note_off_c, 0, 52, 80
1, 198646, Note_off_c, 0, 53, 95
1, 199101, Note_on_c, 0, 60, 110
1, 199206, Note_on_c, 0, 58, 102
1, 199206, Note_off_c, 0, 60, 110
1, 199314, Note_off_c, 0, 58, 102
1, 199698, Note_on_c, 0, 48, 107
1, 199802, Note_off_c, 0, 48, 107
1, 199802, Note_on_c, 0, 50, 105
1, 199875, Note_off_c, 0, 50, 105
1, 199883, Note_on_c, 0, 52, 97
1, 199947, Note_off_c, 0, 52, 97
1, 199949, Note_on_c, 0, 54, 89
1, 200005, Note_off_c, 0, 54, 89
1, 200016, Note_on_c, 0, 55, 101
1, 200105, Note_off_c, 0, 55, 101
1, 200122, Note_on_c, 0, 56, 99
1, 200215, Note_off_c, 0, 56, 99
1, 200231, Note_on_c, 0, 57, 109
1, 200325, Note_off_c, 0, 57, 109
1, 200337, Note_on_c, 0, 58, 102
1, 200436, Note_off_c, 0, 58, 102
1, 200457, Note_on_c, 0, 55, 93
1, 200542, Note_off_c, 0, 55, 93
1, 200551, Note_on_c, 0, 53, 93
1, 200648, Note_off_c, 0, 53, 93
1, 200660, Note_on_c, 0, 52, 85
1, 200755, Note_off_c, 0, 52, 85
1, 200780, Note_on_c, 0, 53, 92
1, 200878, Note_off_c, 0, 53, 92
1, 200883, Note_on_c, 0, 57, 92
1, 200956, Note_off_c, 0, 57, 92
1, 201015, Note_on_c, 0, 62, 101
1, 201119, Note_off_c, 0, 62, 101
1, 201214, Note_on_c, 0, 58, 87
1, 201256, Note_off_c, 0, 58, 87
1, 201264, Note_on_c, 0, 61, 80
1, 201314, Note_off_c, 0, 61, 80
1, 201319, Note_on_c, 0, 63, 87
1, 201369, Note_off_c, 0, 63, 87
1, 201381, Note_on_c, 0, 64, 107
1, 201456, Note_off_c, 0, 64, 107
1, 201504, Note_on_c, 0, 61, 92
1, 201563, Note_off_c, 0, 61, 92
1, 201580, Note_on_c, 0, 62, 98
1, 201661, Note_off_c, 0, 62, 98
1, 201669, Note_on_c, 0, 64, 99
1, 201736, Note_off_c, 0, 64, 99
1, 201758, Note_on_c, 0, 65, 88
1, 201833, Note_off_c, 0, 65, 88
1, 201861, Note_on_c, 0, 67, 87
1, 201925, Note_off_c, 0, 67, 87
1, 201944, Note_on_c, 0, 68, 100
1, 201977, Note_off_c, 0, 68, 100
1, 202007, Note_on_c, 0, 69, 103
1, 202355, Note_off_c, 0, 69, 103
1, 202385, Note_on_c, 0, 67, 94
1, 202506, Note_off_c, 0, 67, 94
1, 202534, Note_on_c, 0, 65, 88
1, 202638, Note_off_c, 0, 65, 88
1, 202638, End_track
0, 0, End_of_file
