0, 0, Header, 1, 1, 192
1, 0, Start_track
1, 0, Title_t, "Melody"
1, 0, Tempo, 176991
1, 0, Key_signature, -2, "major"
1, 0, Time_signature, 4, 2, 24, 8
1, 1830, Note_on_c, 0, 64, 105
1, 1924, Note_off_c, 0, 64, 105
1, 1927, Note_on_c, 0, 66, 99
1, 1990, Note_off_c, 0, 66, 99
1, 1997, Note_on_c, 0, 67, 97
1, 2093, Note_off_c, 0, 67, 97
1, 2100, Note_on_c, 0, 69, 106
1, 2203, Note_off_c, 0, 69, 106
1, 2203, Note_on_c, 0, 65, 98
1, 2280, Note_off_c, 0, 65, 98
1, 2289, Note_on_c, 0, 64, 108
1, 2376, Note_off_c, 0, 64, 108
1, 2387, Note_on_c, 0, 63, 101
1, 2461, Note_off_c, 0, 63, 101
1, 2464, Note_on_c, 0, 65, 98
1, 2550, Note_off_c, 0, 65, 98
1, 2556, Note_on_c, 0, 62, 100
1, 2670, Note_off_c, 0, 62, 100
1, 2673, Note_on_c, 0, 60, 92
1, 2721, Note_off_c, 0, 60, 92
1, 2730, Note_on_c, 0, 58, 94
1, 2799, Note_off_c, 0, 58, 94
1, 2802, Note_on_c, 0, 55, 85
1, 2887, Note_off_c, 0, 55, 85
1, 2894, Note_on_c, 0, 63, 100
1, 3012, Note_off_c, 0, 63, 100
1, 3015, Note_on_c, 0, 59, 90
1, 3083, Note_off_c, 0, 59, 90
1, 3086, Note_on_c, 0, 56, 89
1, 3212, Note_off_c, 0, 56, 89
1, 3214, Note_on_c, 0, 61, 97
1, 3323, Note_off_c, 0, 61, 97
1, 3323, Note_on_c, 0, 58, 91
1, 3433, Note_off_c, 0, 58, 91
1, 3437, Note_on_c, 0, 54, 87
1, 3510, Note_off_c, 0, 54, 87
1, 3519, Note_on_c, 0, 55, 91
1, 3593, Note_off_c, 0, 55, 91
1, 3599, Note_on_c, 0, 58, 96
1, 3685, Note_off_c, 0, 58, 96
1, 3696, Note_on_c, 0, 57, 96
1, 3743, Note_off_c, 0, 57, 96
1, 3760, Note_on_c, 0, 56, 95
1, 3847, Note_off_c, 0, 56, 95
1, 3869, Note_on_c, 0, 55, 93
1, 3990, Note_off_c, 0, 55, 93
1, 3997, Note_on_c, 0, 59, 95
1, 4066, Note_off_c, 0, 59, 95
1, 4077, Note_on_c, 0, 57, 94
1, 4135, Note_off_c, 0, 57, 94
1, 4149, Note_on_c, 0, 54, 93
1, 4235, Note_off_c, 0, 54, 93
1, 4244, Note_on_c, 0, 52, 84
1, 4302, Note_off_c, 0, 52, 84
1, 4321, Note_on_c, 0, 50, 82
1, 4398, Note_off_c, 0, 50, 82
1, 4407, Note_on_c, 0, 54, 95
1, 4502, Note_off_c, 0, 54, 95
1, 4513, Note_on_c, 0, 55, 92
1, 4607, Note_off_c, 0, 55, 92
1, 4618, Note_on_c, 0, 57, 89
1, 4721, Note_off_c, 0, 57, 89
1, 4731, Note_on_c, 0, 59, 92
1, 4821, Note_off_c, 0, 59, 92
1, 4852, Note_on_c, 0, 50, 81
1, 4918, Note_off_c, 0, 50, 81
1, 4926, Note_on_c, 0, 52, 89
1, 5034, Note_off_c, 0, 52, 89
1, 5042, Note_on_c, 0, 53, 95
1, 5092, Note_off_c, 0, 53, 95
1, 5101, Note_on_c, 0, 55, 91
1, 5212, Note_off_c, 0, 55, 91
1, 5216, Note_on_c, 0, 51, 93
1, 5263, Note_off_c, 0, 51, 93
1, 5274, Note_on_c, 0, 50, 88
1, 5368, Note_off_c, 0, 50, 88
1, 5376, Note_on_c, 0, 49, 88
1, 5458, Note_off_c, 0, 49, 88
1, 5462, Note_on_c, 0, 51, 90
1, 5570, Note_off_c, 0, 51, 90
1, 5571, Note_on_c, 0, 48, 84
1, 5652, Note_off_c, 0, 48, 84
1, 5657, Note_on_c, 0, 51, 89
1, 5728, Note_off_c, 0, 51, 89
1, 5731, Note_on_c, 0, 56, 89
1, 5819, Note_off_c, 0, 56, 89
1, 5823, Note_on_c, 0, 60, 95
1, 5931, Note_off_c, 0, 60, 95
1, 5935, Note_on_c, 0, 59, 97
1, 6015, Note_off_c, 0, 59, 97
1, 6018, Note_on_c, 0, 61, 95
1, 6143, Note_off_c, 0, 61, 95
1, 6149, Note_on_c, 0, 63, 99
1, 6240, Note_off_c, 0, 63, 99
1, 6241, Note_on_c, 0, 66, 95
1, 6306, Note_off_c, 0, 66, 95
1, 6312, Note_on_c, 0, 64, 103
1, 6414, Note_off_c, 0, 64, 103
1, 6418, Note_on_c, 0, 66, 96
1, 6522, Note_off_c, 0, 66, 96
1, 6527, Note_on_c, 0, 68, 97
1, 6581, Note_off_c, 0, 68, 97
1, 6588, Note_on_c, 0, 71, 108
1, 6691, Note_off_c, 0, 71, 108
1, 6696, Note_on_c, 0, 67, 98
1, 6792, Note_off_c, 0, 67, 98
1, 6794, Note_on_c, 0, 66, 92
1, 6805, Note_off_c, 0, 66, 92
1, 6811, Note_on_c, 0, 64, 103
1, 6929, Note_off_c, 0, 64, 103
1, 6936, Note_on_c, 0, 62, 100
1, 6988, Note_off_c, 0, 62, 100
1, 7028, Note_on_c, 0, 60, 96
1, 7136, Note_off_c, 0, 60, 96
1, 7139, Note_on_c, 0, 62, 98
1, 7216, Note_off_c, 0, 62, 98
1, 7220, Note_on_c, 0, 64, 100
1, 7327, Note_off_c, 0, 64, 100
1, 7330, Note_on_c, 0, 67, 93
1, 7410, Note_off_c, 0, 67, 93
1, 7412, Note_on_c, 0, 72, 104
1, 7514, Note_off_c, 0, 72, 104
1, 7519, Note_on_c, 0, 60, 100
1, 7663, Note_off_c, 0, 60, 100
1, 8006, Note_on_c, 0, 67, 94
1, 8092, Note_off_c, 0, 67, 94
1, 8097, Note_on_c, 0, 65, 98
1, 8186, Note_off_c, 0, 65, 98
1, 8190, Note_on_c, 0, 63, 101
1, 8272, Note_off_c, 0, 63, 101
1, 8274, Note_on_c, 0, 59, 89
1, 8360, Note_off_c, 0, 59, 89
1, 8363, Note_on_c, 0, 56, 92
1, 8483, Note_off_c, 0, 56, 92
1, 8494, Note_on_c, 0, 61, 94
1, 8589, Note_off_c, 0, 61, 94
1, 8593, Note_on_c, 0, 58, 93
1, 8674, Note_off_c, 0, 58, 93
1, 8676, Note_on_c, 0, 61, 97
1, 8777, Note_off_c, 0, 61, 97
1, 8784, Note_on_c, 0, 65, 92
1, 8824, Note_off_c, 0, 65, 92
1, 8825, Note_on_c, 0, 66, 93
1, 8866, Note_off_c, 0, 66, 93
1, 8874, Note_on_c, 0, 70, 105
1, 8953, Note_off_c, 0, 70, 105
1, 8982, Note_on_c, 0, 69, 102
1, 9051, Note_off_c, 0, 69, 102
1, 9056, Note_on_c, 0, 68, 99
1, 9109, Note_off_c, 0, 68, 99
1, 9120, Note_on_c, 0, 67, 97
1, 9242, Note_off_c, 0, 67, 97
1, 9245, Note_on_c, 0, 71, 105
1, 9331, Note_off_c, 0, 71, 105
1, 9332, Note_on_c, 0, 69, 98
1, 9388, Note_off_c, 0, 69, 98
1, 9391, Note_on_c, 0, 66, 98
1, 9480, Note_off_c, 0, 66, 98
1, 9481, Note_on_c, 0, 64, 99
1, 9564, Note_off_c, 0, 64, 99
1, 9565, Note_on_c, 0, 62, 94
1, 9651, Note_off_c, 0, 62, 94
1, 9657, Note_on_c, 0, 65, 87
1, 9771, Note_off_c, 0, 65, 87
1, 9863, Note_on_c, 0, 69, 102
1, 10003, Note_off_c, 0, 69, 102
1, 10007, Note_on_c, 0, 67, 98
1, 10090, Note_off_c, 0, 67, 98
1, 10093, Note_on_c, 0, 65, 98
1, 10177, Note_off_c, 0, 65, 98
1, 10181, Note_on_c, 0, 63, 105
1, 10257, Note_off_c, 0, 63, 105
1, 10261, Note_on_c, 0, 62, 101
1, 10344, Note_off_c, 0, 62, 101
1, 10351, Note_on_c, 0, 60, 97
1, 10463, Note_off_c, 0, 60, 97
1, 10472, Note_on_c, 0, 58, 89
1, 10547, Note_off_c, 0, 58, 89
1, 10552, Note_on_c, 0, 60, 98
1, 10669, Note_off_c, 0, 60, 98
1, 10681, Note_on_c, 0, 62, 89
1, 10734, Note_off_c, 0, 62, 89
1, 10736, Note_on_c, 0, 65, 89
1, 10834, Note_off_c, 0, 65, 89
1, 10841, Note_on_c, 0, 69, 109
1, 11061, Note_off_c, 0, 69, 109
1, 11076, Note_on_c, 0, 72, 110
1, 11246, Note_off_c, 0, 72, 110
1, 11273, Note_on_c, 0, 69, 105
1, 11529, Note_off_c, 0, 69, 105
1, 11534, Note_on_c, 0, 72, 106
1, 11608, Note_off_c, 0, 72, 106
1, 11609, Note_on_c, 0, 69, 106
1, 11884, Note_off_c, 0, 69, 106
1, 11890, Note_on_c, 0, 72, 109
1, 11990, Note_off_c, 0, 72, 109
1, 11992, Note_on_c, 0, 69, 105
1, 12285, Note_off_c, 0, 69, 105
1, 12289, Note_on_c, 0, 67, 100
1, 12373, Note_off_c, 0, 67, 100
1, 12377, Note_on_c, 0, 65, 100
1, 12470, Note_off_c, 0, 65, 100
1, 12476, Note_on_c, 0, 62, 100
1, 12637, Note_off_c, 0, 62, 100
1, 13117, Note_on_c, 0, 68, 103
1, 13182, Note_off_c, 0, 68, 103
1, 13187, Note_on_c, 0, 70, 111
1, 13365, Note_off_c, 0, 70, 111
1, 13369, Note_on_c, 0, 69, 100
1, 13397, Note_off_c, 0, 69, 100
1, 13408, Note_on_c, 0, 67, 96
1, 13478, Note_off_c, 0, 67, 96
1, 13485, Note_on_c, 0, 65, 100
1, 13584, Note_off_c, 0, 65, 100
1, 13592, Note_on_c, 0, 61, 96
1, 13697, Note_off_c, 0, 61, 96
1, 13700, Note_on_c, 0, 58, 91
1, 13766, Note_off_c, 0, 58, 91
1, 13777, Note_on_c, 0, 55, 96
1, 13836, Note_off_c, 0, 55, 96
1, 13848, Note_on_c, 0, 53, 85
1, 13888, Note_off_c, 0, 53, 85
1, 13911, Note_on_c, 0, 64, 105
1, 13977, Note_off_c, 0, 64, 105
1, 13988, Note_on_c, 0, 67, 98
1, 14149, Note_off_c, 0, 67, 98
1, 14163, Note_on_c, 0, 69, 98
1, 14269, Note_off_c, 0, 69, 98
1, 14269, Note_on_c, 0, 65, 102
1, 14355, Note_off_c, 0, 65, 102
1, 14359, Note_on_c, 0, 64, 108
1, 14444, Note_off_c, 0, 64, 108
1, 14447, Note_on_c, 0, 63, 103
1, 14538, Note_off_c, 0, 63, 103
1, 14540, Note_on_c, 0, 65, 100
1, 14634, Note_off_c, 0, 65, 100
1, 14635, Note_on_c, 0, 62, 94
1, 14761, Note_off_c, 0, 62, 94
1, 15036, Note_on_c, 0, 62, 91
1, 15140, Note_off_c, 0, 62, 91
1, 15147, Note_on_c, 0, 59, 92
1, 15231, Note_off_c, 0, 59, 92
1, 15234, Note_on_c, 0, 56, 87
1, 15314, Note_off_c, 0, 56, 87
1, 15339, Note_on_c, 0, 61, 94
1, 15426, Note_off_c, 0, 61, 94
1, 15429, Note_on_c, 0, 58, 91
1, 15534, Note_off_c, 0, 58, 91
1, 15539, Note_on_c, 0, 54, 80
1, 15632, Note_off_c, 0, 54, 80
1, 15637, Note_on_c, 0, 55, 85
1, 15699, Note_off_c, 0, 55, 85
1, 15710, Note_on_c, 0, 58, 92
1, 15803, Note_off_c, 0, 58, 92
1, 15809, Note_on_c, 0, 57, 92
1, 15884, Note_off_c, 0, 57, 92
1, 15890, Note_on_c, 0, 56, 93
1, 15953, Note_off_c, 0, 56, 93
1, 15961, Note_on_c, 0, 55, 92
1, 16075, Note_off_c, 0, 55, 92
1, 16086, Note_on_c, 0, 59, 92
1, 16149, Note_off_c, 0, 59, 92
1, 16163, Note_on_c, 0, 57, 96
1, 16230, Note_off_c, 0, 57, 96
1, 16241, Note_on_c, 0, 56, 92
1, 16272, Note_off_c, 0, 56, 92
1, 16283, Note_on_c, 0, 54, 93
1, 16331, Note_off_c, 0, 54, 93
1, 16340, Note_on_c, 0, 52, 84
1, 16406, Note_off_c, 0, 52, 84
1, 16415, Note_on_c, 0, 50, 82
1, 16484, Note_off_c, 0, 50, 82
1, 16501, Note_on_c, 0, 54, 98
1, 16591, Note_off_c, 0, 54, 98
1, 16602, Note_on_c, 0, 55, 95
1, 16682, Note_off_c, 0, 55, 95
1, 16698, Note_on_c, 0, 57, 88
1, 16835, Note_off_c, 0, 57, 88
1, 17126, Note_on_c, 0, 49, 98
1, 17222, Note_off_c, 0, 49, 98
1, 17232, Note_on_c, 0, 54, 100
1, 17337, Note_off_c, 0, 54, 100
1, 17337, Note_on_c, 0, 51, 101
1, 17425, Note_off_c, 0, 51, 101
1, 17433, Note_on_c, 0, 50, 93
1, 17525, Note_off_c, 0, 50, 93
1, 17532, Note_on_c, 0, 49, 92
1, 17614, Note_off_c, 0, 49, 92
1, 17618, Note_on_c, 0, 51, 96
1, 17698, Note_off_c, 0, 51, 96
1, 17713, Note_on_c, 0, 48, 90
1, 17787, Note_off_c, 0, 48, 90
1, 17795, Note_on_c, 0, 51, 90
1, 17859, Note_off_c, 0, 51, 90
1, 17874, Note_on_c, 0, 56, 94
1, 17963, Note_off_c, 0, 56, 94
1, 17975, Note_on_c, 0, 60, 94
1, 18071, Note_off_c, 0, 60, 94
1, 18074, Note_on_c, 0, 58, 96
1, 18152, Note_off_c, 0, 58, 96
1, 18160, Note_on_c, 0, 61, 98
1, 18264, Note_off_c, 0, 61, 98
1, 18273, Note_on_c, 0, 63, 100
1, 18370, Note_off_c, 0, 63, 100
1, 18376, Note_on_c, 0, 66, 98
1, 18417, Note_off_c, 0, 66, 98
1, 18425, Note_on_c, 0, 64, 102
1, 18520, Note_off_c, 0, 64, 102
1, 18523, Note_on_c, 0, 66, 97
1, 18627, Note_off_c, 0, 66, 97
1, 18632, Note_on_c, 0, 68, 105
1, 18704, Note_off_c, 0, 68, 105
1, 18715, Note_on_c, 0, 71, 105
1, 18789, Note_off_c, 0, 71, 105
1, 18796, Note_on_c, 0, 67, 100
1, 18886, Note_off_c, 0, 67, 100
1, 18889, Note_on_c, 0, 65, 99
1, 18943, Note_off_c, 0, 65, 99
1, 18950, Note_on_c, 0, 64, 105
1, 19023, Note_off_c, 0, 64, 105
1, 19029, Note_on_c, 0, 62, 100
1, 19116, Note_off_c, 0, 62, 100
1, 19127, Note_on_c, 0, 60, 97
1, 19222, Note_off_c, 0, 60, 97
1, 19231, Note_on_c, 0, 62, 94
1, 19320, Note_off_c, 0, 62, 94
1, 19325, Note_on_c, 0, 64, 95
1, 19411, Note_off_c, 0, 64, 95
1, 19417, Note_on_c, 0, 67, 95
1, 19498, Note_off_c, 0, 67, 95
1, 19505, Note_on_c, 0, 72, 113
1, 19634, Note_off_c, 0, 72, 113
1, 19639, Note_on_c, 0, 72, 110
1, 19743, Note_off_c, 0, 72, 110
1, 20016, Note_on_c, 0, 60, 95
1, 20105, Note_off_c, 0, 60, 95
1, 20105, Note_on_c, 0, 63, 98
1, 20172, Note_off_c, 0, 63, 98
1, 20173, Note_on_c, 0, 67, 92
1, 20200, Note_off_c, 0, 67, 92
1, 20233, Note_on_c, 0, 66, 98
1, 20254, Note_off_c, 0, 66, 98
1, 20254, Note_on_c, 0, 63, 107
1, 20356, Note_off_c, 0, 63, 107
1, 20367, Note_on_c, 0, 59, 91
1, 20440, Note_off_c, 0, 59, 91
1, 20443, Note_on_c, 0, 56, 89
1, 20574, Note_off_c, 0, 56, 89
1, 20583, Note_on_c, 0, 61, 92
1, 20674, Note_off_c, 0, 61, 92
1, 20678, Note_on_c, 0, 58, 96
1, 20755, Note_off_c, 0, 58, 96
1, 20759, Note_on_c, 0, 61, 94
1, 20889, Note_off_c, 0, 61, 94
1, 20897, Note_on_c, 0, 66, 93
1, 20974, Note_off_c, 0, 66, 93
1, 20977, Note_on_c, 0, 69, 103
1, 21060, Note_off_c, 0, 69, 103
1, 21064, Note_on_c, 0, 70, 103
1, 21089, Note_off_c, 0, 70, 103
1, 21094, Note_on_c, 0, 69, 95
1, 21162, Note_off_c, 0, 69, 95
1, 21169, Note_on_c, 0, 68, 100
1, 21258, Note_off_c, 0, 68, 100
1, 21260, Note_on_c, 0, 67, 94
1, 21358, Note_off_c, 0, 67, 94
1, 21366, Note_on_c, 0, 71, 106
1, 21446, Note_off_c, 0, 71, 106
1, 21447, Note_on_c, 0, 69, 102
1, 21512, Note_off_c, 0, 69, 102
1, 21517, Note_on_c, 0, 66, 97
1, 21586, Note_off_c, 0, 66, 97
1, 21592, Note_on_c, 0, 64, 94
1, 21700, Note_off_c, 0, 64, 94
1, 21707, Note_on_c, 0, 62, 90
1, 21783, Note_off_c, 0, 62, 90
1, 21786, Note_on_c, 0, 65, 90
1, 21932, Note_off_c, 0, 65, 90
1, 21983, Note_on_c, 0, 69, 96
1, 22115, Note_off_c, 0, 69, 96
1, 22119, Note_on_c, 0, 67, 98
1, 22209, Note_off_c, 0, 67, 98
1, 22211, Note_on_c, 0, 65, 96
1, 22288, Note_off_c, 0, 65, 96
1, 22292, Note_on_c, 0, 63, 106
1, 22371, Note_off_c, 0, 63, 106
1, 22380, Note_on_c, 0, 62, 97
1, 22467, Note_off_c, 0, 62, 97
1, 22478, Note_on_c, 0, 60, 94
1, 22592, Note_off_c, 0, 60, 94
1, 22592, Note_on_c, 0, 58, 93
1, 22656, Note_off_c, 0, 58, 93
1, 22667, Note_on_c, 0, 60, 94
1, 22774, Note_off_c, 0, 60, 94
1, 22776, Note_on_c, 0, 62, 89
1, 22835, Note_off_c, 0, 62, 89
1, 22842, Note_on_c, 0, 65, 90
1, 22922, Note_off_c, 0, 65, 90
1, 22928, Note_on_c, 0, 72, 110
1, 23299, Note_off_c, 0, 72, 110
1, 23307, Note_on_c, 0, 69, 104
1, 23508, Note_off_c, 0, 69, 104
1, 23518, Note_on_c, 0, 67, 98
1, 23566, Note_off_c, 0, 67, 98
1, 23566, Note_on_c, 0, 69, 98
1, 23636, Note_off_c, 0, 69, 98
1, 23642, Note_on_c, 0, 67, 100
1, 23738, Note_off_c, 0, 67, 100
1, 23742, Note_on_c, 0, 65, 99
1, 23796, Note_off_c, 0, 65, 99
1, 23798, Note_on_c, 0, 64, 104
1, 23883, Note_off_c, 0, 64, 104
1, 23888, Note_on_c, 0, 63, 105
1, 23990, Note_off_c, 0, 63, 105
1, 23997, Note_on_c, 0, 62, 99
1, 24085, Note_off_c, 0, 62, 99
1, 24092, Note_on_c, 0, 60, 98
1, 24179, Note_off_c, 0, 60, 98
1, 24182, Note_on_c, 0, 63, 104
1, 24287, Note_off_c, 0, 63, 104
1, 24290, Note_on_c, 0, 62, 97
1, 24367, Note_off_c, 0, 62, 97
1, 24371, Note_on_c, 0, 60, 98
1, 24466, Note_off_c, 0, 60, 98
1, 24473, Note_on_c, 0, 58, 93
1, 24549, Note_off_c, 0, 58, 93
1, 24556, Note_on_c, 0, 60, 94
1, 24652, Note_off_c, 0, 60, 94
1, 24657, Note_on_c, 0, 62, 94
1, 24700, Note_off_c, 0, 62, 94
1, 24705, Note_on_c, 0, 65, 99
1, 24806, Note_off_c, 0, 65, 99
1, 24809, Note_on_c, 0, 61, 97
1, 24916, Note_off_c, 0, 61, 97
1, 24922, Note_on_c, 0, 63, 93
1, 24999, Note_off_c, 0, 63, 93
1, 25002, Note_on_c, 0, 65, 90
1, 25094, Note_off_c, 0, 65, 90
1, 25096, Note_on_c, 0, 67, 84
1, 25130, Note_off_c, 0, 67, 84
1, 25130, Note_on_c, 0, 75, 103
1, 25476, Note_off_c, 0, 75, 103
1, 25487, Note_on_c, 0, 72, 98
1, 25537, Note_off_c, 0, 72, 98
1, 25545, Note_on_c, 0, 71, 98
1, 25570, Note_off_c, 0, 71, 98
1, 25571, Note_on_c, 0, 67, 94
1, 25644, Note_off_c, 0, 67, 94
1, 25652, Note_on_c, 0, 65, 96
1, 25704, Note_off_c, 0, 65, 96
1, 25712, Note_on_c, 0, 61, 91
1, 25819, Note_off_c, 0, 61, 91
1, 26078, Note_on_c, 0, 64, 98
1, 26168, Note_off_c, 0, 64, 98
1, 26172, Note_on_c, 0, 67, 100
1, 26246, Note_off_c, 0, 67, 100
1, 26250, Note_on_c, 0, 71, 111
1, 26333, Note_off_c, 0, 71, 111
1, 26350, Note_on_c, 0, 63, 106
1, 26431, Note_off_c, 0, 63, 106
1, 26440, Note_on_c, 0, 65, 101
1, 26492, Note_off_c, 0, 65, 101
1, 26504, Note_on_c, 0, 69, 109
1, 26613, Note_off_c, 0, 69, 109
1, 26622, Note_on_c, 0, 71, 102
1, 26682, Note_off_c, 0, 71, 102
1, 26697, Note_on_c, 0, 70, 104
1, 26824, Note_off_c, 0, 70, 104
1, 27082, Note_on_c, 0, 63, 97
1, 27196, Note_off_c, 0, 63, 97
1, 27204, Note_on_c, 0, 59, 91
1, 27267, Note_off_c, 0, 59, 91
1, 27274, Note_on_c, 0, 56, 88
1, 27384, Note_off_c, 0, 56, 88
1, 27396, Note_on_c, 0, 61, 99
1, 27467, Note_off_c, 0, 61, 99
1, 27487, Note_on_c, 0, 58, 97
1, 27563, Note_off_c, 0, 58, 97
1, 27572, Note_on_c, 0, 61, 96
1, 27649, Note_off_c, 0, 61, 96
1, 27649, Note_on_c, 0, 63, 94
1, 27678, Note_off_c, 0, 63, 94
1, 27684, Note_on_c, 0, 65, 98
1, 27725, Note_off_c, 0, 65, 98
1, 27730, Note_on_c, 0, 66, 96
1, 27761, Note_off_c, 0, 66, 96
1, 27766, Note_on_c, 0, 70, 105
1, 27855, Note_off_c, 0, 70, 105
1, 27879, Note_on_c, 0, 69, 103
1, 27938, Note_off_c, 0, 69, 103
1, 27945, Note_on_c, 0, 68, 103
1, 28035, Note_off_c, 0, 68, 103
1, 28039, Note_on_c, 0, 67, 99
1, 28148, Note_off_c, 0, 67, 99
1, 28150, Note_on_c, 0, 71, 101
1, 28241, Note_off_c, 0, 71, 101
1, 28243, Note_on_c, 0, 69, 103
1, 28330, Note_off_c, 0, 69, 103
1, 28330, Note_on_c, 0, 66, 97
1, 28399, Note_off_c, 0, 66, 97
1, 28401, Note_on_c, 0, 64, 91
1, 28484, Note_off_c, 0, 64, 91
1, 28490, Note_on_c, 0, 62, 90
1, 28553, Note_off_c, 0, 62, 90
1, 28556, Note_on_c, 0, 66, 94
1, 28682, Note_off_c, 0, 66, 94
1, 28689, Note_on_c, 0, 67, 99
1, 28775, Note_off_c, 0, 67, 99
1, 28780, Note_on_c, 0, 69, 83
1, 28842, Note_off_c, 0, 69, 83
1, 29165, Note_on_c, 0, 68, 96
1, 29229, Note_off_c, 0, 68, 96
1, 29235, Note_on_c, 0, 67, 102
1, 29294, Note_off_c, 0, 67, 102
1, 29299, Note_on_c, 0, 63, 105
1, 29363, Note_off_c, 0, 63, 105
1, 29370, Note_on_c, 0, 62, 99
1, 29437, Note_off_c, 0, 62, 99
1, 29446, Note_on_c, 0, 61, 96
1, 29568, Note_off_c, 0, 61, 96
1, 29576, Note_on_c, 0, 63, 106
1, 29683, Note_off_c, 0, 63, 106
1, 29689, Note_on_c, 0, 61, 80
1, 29810, Note_off_c, 0, 61, 80
1, 30132, Note_on_c, 0, 68, 109
1, 30242, Note_off_c, 0, 68, 109
1, 30242, Note_on_c, 0, 67, 105
1, 30306, Note_off_c, 0, 67, 105
1, 30322, Note_on_c, 0, 66, 101
1, 30405, Note_off_c, 0, 66, 101
1, 30849, Note_on_c, 0, 74, 98
1, 31101, Note_off_c, 0, 74, 98
1, 31101, Note_on_c, 0, 73, 109
1, 31160, Note_off_c, 0, 73, 109
1, 31162, Note_on_c, 0, 72, 111
1, 31210, Note_off_c, 0, 72, 111
1, 31212, Note_on_c, 0, 71, 111
1, 31305, Note_off_c, 0, 71, 111
1, 31307, Note_on_c, 0, 67, 93
1, 31358, Note_off_c, 0, 67, 93
1, 31363, Note_on_c, 0, 69, 109
1, 31466, Note_off_c, 0, 69, 109
1, 31474, Note_on_c, 0, 71, 110
1, 31566, Note_off_c, 0, 71, 110
1, 31571, Note_on_c, 0, 67, 102
1, 31665, Note_off_c, 0, 67, 102
1, 31670, Note_on_c, 0, 64, 105
1, 31775, Note_off_c, 0, 64, 105
1, 31776, Note_on_c, 0, 62, 98
1, 31830, Note_off_c, 0, 62, 98
1, 31839, Note_on_c, 0, 60, 93
1, 31903, Note_off_c, 0, 60, 93
1, 31966, Note_on_c, 0, 67, 99
1, 32027, Note_off_c, 0, 67, 99
1, 32058, Note_on_c, 0, 60, 89
1, 32108, Note_off_c, 0, 60, 89
1, 32143, Note_on_c, 0, 63, 96
1, 32212, Note_off_c, 0, 63, 96
1, 32221, Note_on_c, 0, 67, 100
1, 32277, Note_off_c, 0, 67, 100
1, 32299, Note_on_c, 0, 63, 105
1, 32407, Note_off_c, 0, 63, 105
1, 32411, Note_on_c, 0, 59, 92
1, 32479, Note_off_c, 0, 59, 92
1, 32483, Note_on_c, 0, 56, 98
1, 32578, Note_off_c, 0, 56, 98
1, 32618, Note_on_c, 0, 61, 98
1, 32704, Note_off_c, 0, 61, 98
1, 32710, Note_on_c, 0, 58, 89
1, 32786, Note_off_c, 0, 58, 89
1, 33061, Note_on_c, 0, 69, 100
1, 33132, Note_off_c, 0, 69, 100
1, 33137, Note_on_c, 0, 68, 105
1, 33229, Note_off_c, 0, 68, 105
1, 33236, Note_on_c, 0, 67, 100
1, 33351, Note_off_c, 0, 67, 100
1, 33351, Note_on_c, 0, 71, 108
1, 33458, Note_off_c, 0, 71, 108
1, 33463, Note_on_c, 0, 69, 96
1, 33506, Note_off_c, 0, 69, 96
1, 33514, Note_on_c, 0, 67, 98
1, 33565, Note_off_c, 0, 67, 98
1, 33569, Note_on_c, 0, 66, 100
1, 33616, Note_off_c, 0, 66, 100
1, 33620, Note_on_c, 0, 64, 99
1, 33717, Note_off_c, 0, 64, 99
1, 33719, Note_on_c, 0, 62, 94
1, 33809, Note_off_c, 0, 62, 94
1, 33814, Note_on_c, 0, 65, 97
1, 33949, Note_off_c, 0, 65, 97
1, 34007, Note_on_c, 0, 69, 103
1, 34109, Note_off_c, 0, 69, 103
1, 34114, Note_on_c, 0, 67, 101
1, 34214, Note_off_c, 0, 67, 101
1, 34215, Note_on_c, 0, 65, 99
1, 34263, Note_off_c, 0, 65, 99
1, 34266, Note_on_c, 0, 63, 104
1, 34367, Note_off_c, 0, 63, 104
1, 34369, Note_on_c, 0, 62, 98
1, 34448, Note_off_c, 0, 62, 98
1, 34450, Note_on_c, 0, 60, 97
1, 34563, Note_off_c, 0, 60, 97
1, 34571, Note_on_c, 0, 58, 99
1, 34648, Note_off_c, 0, 58, 99
1, 34655, Note_on_c, 0, 60, 98
1, 34764, Note_off_c, 0, 60, 98
1, 34768, Note_on_c, 0, 65, 84
1, 34883, Note_off_c, 0, 65, 84
1, 34889, Note_on_c, 0, 68, 101
1, 34979, Note_off_c, 0, 68, 101
1, 34999, Note_on_c, 0, 65, 96
1, 35069, Note_off_c, 0, 65, 96
1, 35074, Note_on_c, 0, 62, 99
1, 35152, Note_off_c, 0, 62, 99
1, 35174, Note_on_c, 0, 57, 97
1, 35275, Note_off_c, 0, 57, 97
1, 35517, Note_on_c, 0, 52, 82
1, 35609, Note_off_c, 0, 52, 82
1, 35641, Note_on_c, 0, 55, 98
1, 35745, Note_off_c, 0, 55, 98
1, 35753, Note_on_c, 0, 54, 97
1, 35859, Note_off_c, 0, 54, 97
1, 35870, Note_on_c, 0, 53, 97
1, 35931, Note_off_c, 0, 53, 97
1, 35937, Note_on_c, 0, 52, 96
1, 36014, Note_off_c, 0, 52, 96
1, 36021, Note_on_c, 0, 51, 101
1, 36112, Note_off_c, 0, 51, 101
1, 36120, Note_on_c, 0, 50, 97
1, 36210, Note_off_c, 0, 50, 97
1, 36217, Note_on_c, 0, 48, 95
1, 36305, Note_off_c, 0, 48, 95
1, 36828, Note_on_c, 0, 48, 100
1, 36892, Note_off_c, 0, 48, 100
1, 36907, Note_on_c, 0, 51, 109
1, 36999, Note_off_c, 0, 51, 109
1, 37013, Note_on_c, 0, 49, 103
1, 37075, Note_off_c, 0, 49, 103
1, 37086, Note_on_c, 0, 48, 108
1, 37144, Note_off_c, 0, 48, 108
1, 37166, Note_on_c, 0, 46, 105
1, 37269, Note_off_c, 0, 46, 105
1, 37272, Note_on_c, 0, 48, 105
1, 37364, Note_off_c, 0, 48, 105
1, 37371, Note_on_c, 0, 50, 105
1, 37452, Note_off_c, 0, 50, 105
1, 37461, Note_on_c, 0, 53, 104
1, 37538, Note_off_c, 0, 53, 104
1, 37538, Note_on_c, 0, 49, 104
1, 37623, Note_off_c, 0, 49, 104
1, 37632, Note_on_c, 0, 51, 108
1, 37737, Note_off_c, 0, 51, 108
1, 37745, Note_on_c, 0, 53, 102
1, 37800, Note_off_c, 0, 53, 102
1, 37806, Note_on_c, 0, 55, 103
1, 37897, Note_off_c, 0, 55, 103
1, 37903, Note_on_c, 0, 52, 105
1, 38004, Note_off_c, 0, 52, 105
1, 38009, Note_on_c, 0, 54, 101
1, 38095, Note_off_c, 0, 54, 101
1, 38106, Note_on_c, 0, 55, 104
1, 38195, Note_off_c, 0, 55, 104
1, 38199, Note_on_c, 0, 57, 99
1, 38284, Note_off_c, 0, 57, 99
1, 38297, Note_on_c, 0, 51, 106
1, 38368, Note_off_c, 0, 51, 106
1, 38377, Note_on_c, 0, 53, 103
1, 38497, Note_off_c, 0, 53, 103
1, 38506, Note_on_c, 0, 55, 96
1, 38570, Note_off_c, 0, 55, 96
1, 38577, Note_on_c, 0, 57, 102
1, 38667, Note_off_c, 0, 57, 102
1, 38673, Note_on_c, 0, 58, 96
1, 38752, Note_off_c, 0, 58, 96
1, 38761, Note_on_c, 0, 60, 101
1, 38824, Note_off_c, 0, 60, 101
1, 38828, Note_on_c, 0, 62, 100
1, 38916, Note_off_c, 0, 62, 100
1, 38926, Note_on_c, 0, 65, 96
1, 38990, Note_off_c, 0, 65, 96
1, 38992, Note_on_c, 0, 59, 99
1, 39084, Note_off_c, 0, 59, 99
1, 39095, Note_on_c, 0, 61, 102
1, 39198, Note_off_c, 0, 61, 102
1, 39202, Note_on_c, 0, 63, 103
1, 39265, Note_off_c, 0, 63, 103
1, 39269, Note_on_c, 0, 65, 101
1, 39346, Note_off_c, 0, 65, 101
1, 39353, Note_on_c, 0, 66, 106
1, 39447, Note_off_c, 0, 66, 106
1, 39449, Note_on_c, 0, 68, 109
1, 39535, Note_off_c, 0, 68, 109
1, 39542, Note_on_c, 0, 70, 107
1, 39654, Note_off_c, 0, 70, 107
1, 39655, Note_on_c, 0, 73, 108
1, 39732, Note_off_c, 0, 73, 108
1, 39736, Note_on_c, 0, 69, 110
1, 39832, Note_off_c, 0, 69, 110
1, 39835, Note_on_c, 0, 67, 103
1, 39951, Note_off_c, 0, 67, 103
1, 39955, Note_on_c, 0, 66, 105
1, 40051, Note_off_c, 0, 66, 105
1, 40057, Note_on_c, 0, 64, 108
1, 40138, Note_off_c, 0, 64, 108
1, 40144, Note_on_c, 0, 62, 103
1, 40208, Note_off_c, 0, 62, 103
1, 40212, Note_on_c, 0, 64, 106
1, 40325, Note_off_c, 0, 64, 106
1, 40331, Note_on_c, 0, 66, 102
1, 40429, Note_off_c, 0, 66, 102
1, 40434, Note_on_c, 0, 69, 101
1, 40483, Note_off_c, 0, 69, 101
1, 40491, Note_on_c, 0, 74, 103
1, 40590, Note_off_c, 0, 74, 103
1, 40602, Note_on_c, 0, 69, 98
1, 40699, Note_off_c, 0, 69, 98
1, 41064, Note_on_c, 0, 67, 107
1, 41163, Note_off_c, 0, 67, 107
1, 41168, Note_on_c, 0, 65, 104
1, 41254, Note_off_c, 0, 65, 104
1, 41263, Note_on_c, 0, 61, 102
1, 41360, Note_off_c, 0, 61, 102
1, 41365, Note_on_c, 0, 63, 105
1, 41459, Note_off_c, 0, 63, 105
1, 41469, Note_on_c, 0, 65, 92
1, 41514, Note_off_c, 0, 65, 92
1, 41528, Note_on_c, 0, 67, 95
1, 41603, Note_off_c, 0, 67, 95
1, 41613, Note_on_c, 0, 69, 112
1, 41687, Note_off_c, 0, 69, 112
1, 41693, Note_on_c, 0, 68, 106
1, 41781, Note_off_c, 0, 68, 106
1, 41784, Note_on_c, 0, 63, 108
1, 41874, Note_off_c, 0, 63, 108
1, 41881, Note_on_c, 0, 60, 100
1, 42012, Note_off_c, 0, 60, 100
1, 42013, Note_on_c, 0, 59, 101
1, 42072, Note_off_c, 0, 59, 101
1, 42081, Note_on_c, 0, 61, 100
1, 42180, Note_off_c, 0, 61, 100
1, 42183, Note_on_c, 0, 63, 106
1, 42278, Note_off_c, 0, 63, 106
1, 42289, Note_on_c, 0, 66, 103
1, 42365, Note_off_c, 0, 66, 103
1, 42368, Note_on_c, 0, 64, 109
1, 42481, Note_off_c, 0, 64, 109
1, 42483, Note_on_c, 0, 66, 102
1, 42600, Note_off_c, 0, 66, 102
1, 42609, Note_on_c, 0, 68, 102
1, 42675, Note_off_c, 0, 68, 102
1, 42679, Note_on_c, 0, 71, 106
1, 42765, Note_off_c, 0, 71, 106
1, 42768, Note_on_c, 0, 67, 99
1, 42864, Note_off_c, 0, 67, 99
1, 42872, Note_on_c, 0, 64, 107
1, 43019, Note_off_c, 0, 64, 107
1, 43024, Note_on_c, 0, 62, 102
1, 43149, Note_off_c, 0, 62, 102
1, 43154, Note_on_c, 0, 60, 98
1, 43211, Note_off_c, 0, 60, 98
1, 43225, Note_on_c, 0, 62, 96
1, 43357, Note_off_c, 0, 62, 96
1, 43359, Note_on_c, 0, 64, 97
1, 43399, Note_off_c, 0, 64, 97
1, 43411, Note_on_c, 0, 67, 100
1, 43491, Note_on_c, 0, 72, 111
1, 43491, Note_off_c, 0, 67, 100
1, 43543, Note_off_c, 0, 72, 111
1, 43550, Note_on_c, 0, 71, 100
1, 43584, Note_off_c, 0, 71, 100
1, 43584, Note_on_c, 0, 60, 105
1, 43717, Note_off_c, 0, 60, 105
1, 44040, Note_on_c, 0, 67, 104
1, 44138, Note_off_c, 0, 67, 104
1, 44146, Note_on_c, 0, 65, 104
1, 44198, Note_off_c, 0, 65, 104
1, 44202, Note_on_c, 0, 63, 106
1, 44296, Note_off_c, 0, 63, 106
1, 44298, Note_on_c, 0, 59, 96
1, 44380, Note_off_c, 0, 59, 96
1, 44384, Note_on_c, 0, 56, 95
1, 44491, Note_off_c, 0, 56, 95
1, 44510, Note_on_c, 0, 61, 96
1, 44608, Note_off_c, 0, 61, 96
1, 44613, Note_on_c, 0, 58, 96
1, 44675, Note_off_c, 0, 58, 96
1, 44684, Note_on_c, 0, 61, 100
1, 44786, Note_off_c, 0, 61, 100
1, 44803, Note_on_c, 0, 65, 99
1, 44862, Note_off_c, 0, 65, 99
1, 44864, Note_on_c, 0, 67, 101
1, 44901, Note_off_c, 0, 67, 101
1, 44905, Note_on_c, 0, 70, 106
1, 45009, Note_off_c, 0, 70, 106
1, 45011, Note_on_c, 0, 69, 108
1, 45066, Note_off_c, 0, 69, 108
1, 45072, Note_on_c, 0, 68, 104
1, 45171, Note_off_c, 0, 68, 104
1, 45173, Note_on_c, 0, 67, 98
1, 45289, Note_off_c, 0, 67, 98
1, 45292, Note_on_c, 0, 71, 106
1, 45371, Note_off_c, 0, 71, 106
1, 45373, Note_on_c, 0, 69, 106
1, 45449, Note_off_c, 0, 69, 106
1, 45452, Note_on_c, 0, 66, 98
1, 45530, Note_off_c, 0, 66, 98
1, 45531, Note_on_c, 0, 64, 96
1, 45641, Note_off_c, 0, 64, 96
1, 45645, Note_on_c, 0, 62, 94
1, 45712, Note_off_c, 0, 62, 94
1, 45714, Note_on_c, 0, 65, 94
1, 45829, Note_off_c, 0, 65, 94
1, 45889, Note_on_c, 0, 69, 103
1, 46008, Note_off_c, 0, 69, 103
1, 46015, Note_on_c, 0, 67, 101
1, 46103, Note_off_c, 0, 67, 101
1, 46105, Note_on_c, 0, 65, 99
1, 46170, Note_off_c, 0, 65, 99
1, 46173, Note_on_c, 0, 63, 108
1, 46272, Note_off_c, 0, 63, 108
1, 46275, Note_on_c, 0, 62, 101
1, 46346, Note_off_c, 0, 62, 101
1, 46352, Note_on_c, 0, 60, 99
1, 46422, Note_off_c, 0, 60, 99
1, 46445, Note_on_c, 0, 55, 108
1, 46512, Note_off_c, 0, 55, 108
1, 46516, Note_on_c, 0, 58, 96
1, 46565, Note_off_c, 0, 58, 96
1, 46572, Note_on_c, 0, 60, 99
1, 46645, Note_off_c, 0, 60, 99
1, 46657, Note_on_c, 0, 63, 94
1, 46708, Note_off_c, 0, 63, 94
1, 46723, Note_on_c, 0, 65, 95
1, 46774, Note_off_c, 0, 65, 95
1, 46792, Note_on_c, 0, 68, 106
1, 46833, Note_off_c, 0, 68, 106
1, 46846, Note_on_c, 0, 70, 103
1, 46871, Note_off_c, 0, 70, 103
1, 46877, Note_on_c, 0, 72, 113
1, 47184, Note_off_c, 0, 72, 113
1, 47188, Note_on_c, 0, 69, 111
1, 47272, Note_off_c, 0, 69, 111
1, 47278, Note_on_c, 0, 72, 112
1, 47566, Note_off_c, 0, 72, 112
1, 47572, Note_on_c, 0, 69, 109
1, 47790, Note_off_c, 0, 69, 109
1, 47796, Note_on_c, 0, 67, 100
1, 47846, Note_off_c, 0, 67, 100
1, 47852, Note_on_c, 0, 69, 104
1, 47905, Note_off_c, 0, 69, 104
1, 47909, Note_on_c, 0, 67, 103
1, 47983, Note_off_c, 0, 67, 103
1, 47989, Note_on_c, 0, 65, 101
1, 48049, Note_off_c, 0, 65, 101
1, 48054, Note_on_c, 0, 64, 105
1, 48143, Note_off_c, 0, 64, 105
1, 48148, Note_on_c, 0, 63, 108
1, 48250, Note_off_c, 0, 63, 108
1, 48256, Note_on_c, 0, 65, 101
1, 48362, Note_off_c, 0, 65, 101
1, 48366, Note_on_c, 0, 62, 103
1, 48443, Note_off_c, 0, 62, 103
1, 48445, Note_on_c, 0, 65, 98
1, 48535, Note_off_c, 0, 65, 98
1, 48573, Note_on_c, 0, 67, 99
1, 48640, Note_off_c, 0, 67, 99
1, 48649, Note_on_c, 0, 69, 109
1, 48699, Note_off_c, 0, 69, 109
1, 48711, Note_on_c, 0, 72, 115
1, 48813, Note_off_c, 0, 72, 115
1, 48821, Note_on_c, 0, 70, 110
1, 48934, Note_off_c, 0, 70, 110
1, 49421, Note_on_c, 0, 69, 103
1, 49764, Note_off_c, 0, 69, 103
1, 49802, Note_on_c, 0, 63, 100
1, 49870, Note_off_c, 0, 63, 100
1, 49877, Note_on_c, 0, 64, 98
1, 49959, Note_off_c, 0, 64, 98
1, 49974, Note_on_c, 0, 66, 100
1, 50026, Note_off_c, 0, 66, 100
1, 50034, Note_on_c, 0, 67, 103
1, 50143, Note_off_c, 0, 67, 103
1, 50154, Note_on_c, 0, 69, 103
1, 50258, Note_off_c, 0, 69, 103
1, 50261, Note_on_c, 0, 63, 108
1, 50340, Note_off_c, 0, 63, 108
1, 50343, Note_on_c, 0, 65, 99
1, 50433, Note_off_c, 0, 65, 99
1, 50438, Note_on_c, 0, 67, 101
1, 50530, Note_off_c, 0, 67, 101
1, 50542, Note_on_c, 0, 69, 99
1, 50616, Note_off_c, 0, 69, 99
1, 50623, Note_on_c, 0, 70, 105
1, 50733, Note_off_c, 0, 70, 105
1, 50740, Note_on_c, 0, 65, 99
1, 50828, Note_off_c, 0, 65, 99
1, 50834, Note_on_c, 0, 62, 92
1, 50934, Note_off_c, 0, 62, 92
1, 50968, Note_on_c, 0, 54, 103
1, 51012, Note_off_c, 0, 54, 103
1, 51019, Note_on_c, 0, 56, 101
1, 51068, Note_off_c, 0, 56, 101
1, 51082, Note_on_c, 0, 63, 100
1, 51216, Note_off_c, 0, 63, 100
1, 51217, Note_on_c, 0, 59, 88
1, 51292, Note_off_c, 0, 59, 88
1, 51295, Note_on_c, 0, 66, 83
1, 51354, Note_off_c, 0, 66, 83
1, 51366, Note_on_c, 0, 61, 96
1, 51420, Note_off_c, 0, 61, 96
1, 51424, Note_on_c, 0, 58, 90
1, 51568, Note_off_c, 0, 58, 90
1, 51808, Note_on_c, 0, 69, 104
1, 51908, Note_off_c, 0, 69, 104
1, 51913, Note_on_c, 0, 68, 103
1, 51988, Note_off_c, 0, 68, 103
1, 52001, Note_on_c, 0, 67, 100
1, 52052, Note_off_c, 0, 67, 100
1, 52064, Note_on_c, 0, 67, 100
1, 52115, Note_off_c, 0, 67, 100
1, 52125, Note_on_c, 0, 71, 107
1, 52197, Note_off_c, 0, 71, 107
1, 52199, Note_on_c, 0, 69, 105
1, 52267, Note_off_c, 0, 69, 105
1, 52272, Note_on_c, 0, 66, 101
1, 52387, Note_off_c, 0, 66, 101
1, 52391, Note_on_c, 0, 64, 97
1, 52430, Note_off_c, 0, 64, 97
1, 52440, Note_on_c, 0, 62, 94
1, 52519, Note_off_c, 0, 62, 94
1, 52525, Note_on_c, 0, 66, 94
1, 52608, Note_off_c, 0, 66, 94
1, 52613, Note_on_c, 0, 67, 95
1, 52697, Note_off_c, 0, 67, 95
1, 52707, Note_on_c, 0, 69, 95
1, 52767, Note_off_c, 0, 69, 95
1, 52768, Note_on_c, 0, 71, 105
1, 52835, Note_off_c, 0, 71, 105
1, 52861, Note_on_c, 0, 57, 99
1, 52930, Note_off_c, 0, 57, 99
1, 52930, Note_on_c, 0, 64, 102
1, 53059, Note_off_c, 0, 64, 102
1, 53102, Note_on_c, 0, 67, 91
1, 53154, Note_off_c, 0, 67, 91
1, 53170, Note_on_c, 0, 67, 102
1, 53230, Note_off_c, 0, 67, 102
1, 53236, Note_on_c, 0, 61, 96
1, 53327, Note_off_c, 0, 61, 96
1, 53336, Note_on_c, 0, 63, 102
1, 53451, Note_off_c, 0, 63, 102
1, 53461, Note_on_c, 0, 65, 93
1, 53498, Note_off_c, 0, 65, 93
1, 53503, Note_on_c, 0, 67, 95
1, 53555, Note_off_c, 0, 67, 95
1, 53558, Note_on_c, 0, 69, 107
1, 53637, Note_off_c, 0, 69, 107
1, 53637, Note_on_c, 0, 67, 101
1, 53738, Note_off_c, 0, 67, 101
1, 53740, Note_on_c, 0, 63, 103
1, 53821, Note_off_c, 0, 63, 103
1, 53832, Note_on_c, 0, 60, 98
1, 53935, Note_off_c, 0, 60, 98
1, 53959, Note_on_c, 0, 61, 96
1, 54072, Note_off_c, 0, 61, 96
1, 54080, Note_on_c, 0, 62, 102
1, 54159, Note_off_c, 0, 62, 102
1, 54166, Note_on_c, 0, 63, 102
1, 54226, Note_off_c, 0, 63, 102
1, 54235, Note_on_c, 0, 66, 104
1, 54343, Note_off_c, 0, 66, 104
1, 54350, Note_on_c, 0, 63, 107
1, 54432, Note_off_c, 0, 63, 107
1, 54437, Note_on_c, 0, 66, 101
1, 54577, Note_off_c, 0, 66, 101
1, 54580, Note_on_c, 0, 68, 96
1, 54623, Note_off_c, 0, 68, 96
1, 54631, Note_on_c, 0, 71, 109
1, 54727, Note_off_c, 0, 71, 109
1, 54732, Note_on_c, 0, 67, 100
1, 54825, Note_off_c, 0, 67, 100
1, 54851, Note_on_c, 0, 65, 98
1, 54899, Note_off_c, 0, 65, 98
1, 54922, Note_on_c, 0, 64, 102
1, 54965, Note_off_c, 0, 64, 102
1, 54980, Note_on_c, 0, 62, 104
1, 55099, Note_off_c, 0, 62, 104
1, 55106, Note_on_c, 0, 60, 99
1, 55224, Note_off_c, 0, 60, 99
1, 56034, Note_on_c, 0, 67, 108
1, 56124, Note_off_c, 0, 67, 108
1, 56133, Note_on_c, 0, 65, 104
1, 56193, Note_off_c, 0, 65, 104
1, 56196, Note_on_c, 0, 63, 109
1, 56278, Note_off_c, 0, 63, 109
1, 56292, Note_on_c, 0, 59, 97
1, 56357, Note_off_c, 0, 59, 97
1, 56378, Note_on_c, 0, 56, 106
1, 56503, Note_off_c, 0, 56, 106
1, 56508, Note_on_c, 0, 61, 99
1, 56582, Note_off_c, 0, 61, 99
1, 56590, Note_on_c, 0, 58, 100
1, 56681, Note_off_c, 0, 58, 100
1, 56698, Note_on_c, 0, 54, 93
1, 56813, Note_off_c, 0, 54, 93
1, 56830, Note_on_c, 0, 58, 101
1, 56932, Note_off_c, 0, 58, 101
1, 56942, Note_on_c, 0, 57, 103
1, 57021, Note_off_c, 0, 57, 103
1, 57031, Note_on_c, 0, 56, 105
1, 57101, Note_off_c, 0, 56, 105
1, 57108, Note_on_c, 0, 55, 101
1, 57178, Note_off_c, 0, 55, 101
1, 57222, Note_on_c, 0, 59, 98
1, 57297, Note_off_c, 0, 59, 98
1, 57297, Note_on_c, 0, 58, 98
1, 57356, Note_off_c, 0, 58, 98
1, 57368, Note_on_c, 0, 54, 103
1, 57508, Note_off_c, 0, 54, 103
1, 57534, Note_on_c, 0, 52, 96
1, 57587, Note_off_c, 0, 52, 96
1, 57594, Note_on_c, 0, 50, 92
1, 57651, Note_off_c, 0, 50, 92
1, 57692, Note_on_c, 0, 53, 103
1, 57772, Note_off_c, 0, 53, 103
1, 57790, Note_on_c, 0, 55, 105
1, 57846, Note_off_c, 0, 55, 105
1, 57858, Note_on_c, 0, 57, 100
1, 57896, Note_off_c, 0, 57, 100
1, 58001, Note_on_c, 0, 60, 100
1, 58110, Note_off_c, 0, 60, 100
1, 58116, Note_on_c, 0, 58, 100
1, 58195, Note_off_c, 0, 58, 100
1, 58215, Note_on_c, 0, 60, 100
1, 58281, Note_off_c, 0, 60, 100
1, 58292, Note_on_c, 0, 62, 98
1, 58377, Note_off_c, 0, 62, 98
1, 58381, Note_on_c, 0, 66, 91
1, 58408, Note_off_c, 0, 66, 91
1, 58410, Note_on_c, 0, 70, 99
1, 58527, Note_off_c, 0, 70, 99
1, 58528, Note_on_c, 0, 65, 97
1, 58606, Note_off_c, 0, 65, 97
1, 58609, Note_on_c, 0, 62, 97
1, 58680, Note_off_c, 0, 62, 97
1, 58751, Note_on_c, 0, 58, 93
1, 58794, Note_off_c, 0, 58, 93
1, 58803, Note_on_c, 0, 64, 109
1, 59029, Note_off_c, 0, 64, 109
1, 59029, Note_on_c, 0, 66, 103
1, 59106, Note_off_c, 0, 66, 103
1, 59115, Note_on_c, 0, 67, 106
1, 59323, Note_off_c, 0, 67, 106
1, 59595, Note_on_c, 0, 67, 110
1, 59686, Note_off_c, 0, 67, 110
1, 59699, Note_on_c, 0, 72, 109
1, 59769, Note_off_c, 0, 72, 109
1, 59782, Note_on_c, 0, 69, 105
1, 59863, Note_off_c, 0, 69, 105
1, 59869, Note_on_c, 0, 67, 103
1, 59967, Note_off_c, 0, 67, 103
1, 59971, Note_on_c, 0, 65, 100
1, 60033, Note_off_c, 0, 65, 100
1, 60039, Note_on_c, 0, 64, 107
1, 60128, Note_off_c, 0, 64, 107
1, 60132, Note_on_c, 0, 63, 106
1, 60202, Note_off_c, 0, 63, 106
1, 60216, Note_on_c, 0, 65, 101
1, 60280, Note_off_c, 0, 65, 101
1, 60282, Note_on_c, 0, 62, 105
1, 60409, Note_off_c, 0, 62, 105
1, 60424, Note_on_c, 0, 65, 95
1, 60460, Note_off_c, 0, 65, 95
1, 60475, Note_on_c, 0, 67, 96
1, 60588, Note_off_c, 0, 67, 96
1, 60595, Note_on_c, 0, 69, 99
1, 60613, Note_off_c, 0, 69, 99
1, 60625, Note_on_c, 0, 72, 102
1, 60710, Note_off_c, 0, 72, 102
1, 60721, Note_on_c, 0, 70, 104
1, 60806, Note_off_c, 0, 70, 104
1, 60817, Note_on_c, 0, 69, 98
1, 60913, Note_off_c, 0, 69, 98
1, 60920, Note_on_c, 0, 72, 102
1, 61032, Note_off_c, 0, 72, 102
1, 61047, Note_on_c, 0, 67, 94
1, 61088, Note_off_c, 0, 67, 94
1, 61094, Note_on_c, 0, 65, 99
1, 61181, Note_off_c, 0, 65, 99
1, 61184, Note_on_c, 0, 61, 103
1, 61322, Note_off_c, 0, 61, 103
1, 61331, Note_on_c, 0, 58, 101
1, 61383, Note_off_c, 0, 58, 101
1, 61392, Note_on_c, 0, 63, 107
1, 61518, Note_off_c, 0, 63, 107
1, 61879, Note_on_c, 0, 51, 105
1, 61949, Note_off_c, 0, 51, 105
1, 61954, Note_on_c, 0, 55, 101
1, 62017, Note_off_c, 0, 55, 101
1, 62031, Note_on_c, 0, 58, 97
1, 62105, Note_off_c, 0, 58, 97
1, 62127, Note_on_c, 0, 51, 106
1, 62282, Note_off_c, 0, 51, 106
1, 62307, Note_on_c, 0, 57, 99
1, 62377, Note_off_c, 0, 57, 99
1, 62440, Note_on_c, 0, 60, 103
1, 62558, Note_off_c, 0, 60, 103
1, 62561, Note_on_c, 0, 58, 100
1, 62636, Note_off_c, 0, 58, 100
1, 62636, Note_on_c, 0, 60, 98
1, 62682, Note_off_c, 0, 60, 98
1, 62692, Note_on_c, 0, 62, 104
1, 62772, Note_off_c, 0, 62, 104
1, 62786, Note_on_c, 0, 65, 102
1, 62883, Note_off_c, 0, 65, 102
1, 62915, Note_on_c, 0, 63, 103
1, 62977, Note_off_c, 0, 63, 103
1, 62987, Note_on_c, 0, 61, 102
1, 63027, Note_off_c, 0, 61, 102
1, 63038, Note_on_c, 0, 56, 102
1, 63142, Note_off_c, 0, 56, 102
1, 63167, Note_on_c, 0, 60, 102
1, 63228, Note_off_c, 0, 60, 102
1, 63239, Note_on_c, 0, 58, 97
1, 63351, Note_off_c, 0, 58, 97
1, 63478, Note_on_c, 0, 55, 98
1, 63526, Note_off_c, 0, 55, 98
1, 63547, Note_on_c, 0, 58, 95
1, 63616, Note_off_c, 0, 58, 95
1, 63647, Note_on_c, 0, 57, 102
1, 63709, Note_off_c, 0, 57, 102
1, 63713, Note_on_c, 0, 56, 99
1, 63838, Note_off_c, 0, 56, 99
1, 63868, Note_on_c, 0, 56, 98
1, 63936, Note_off_c, 0, 56, 98
1, 63938, Note_on_c, 0, 57, 93
1, 64026, Note_off_c, 0, 57, 93
1, 64084, Note_on_c, 0, 61, 102
1, 64163, Note_off_c, 0, 61, 102
1, 64167, Note_on_c, 0, 62, 107
1, 64198, Note_off_c, 0, 62, 107
1, 64207, Note_on_c, 0, 64, 111
1, 64274, Note_off_c, 0, 64, 111
1, 64280, Note_on_c, 0, 63, 110
1, 64328, Note_off_c, 0, 63, 110
1, 64331, Note_on_c, 0, 61, 101
1, 64381, Note_off_c, 0, 61, 101
1, 64384, Note_on_c, 0, 62, 106
1, 64458, Note_off_c, 0, 62, 106
1, 64464, Note_on_c, 0, 64, 81
1, 64566, Note_off_c, 0, 64, 81
1, 64576, Note_on_c, 0, 66, 97
1, 64631, Note_off_c, 0, 66, 97
1, 64638, Note_on_c, 0, 69, 103
1, 64679, Note_off_c, 0, 69, 103
1, 64692, Note_on_c, 0, 68, 100
1, 64797, Note_off_c, 0, 68, 100
1, 64806, Note_on_c, 0, 64, 104
1, 64891, Note_off_c, 0, 64, 104
1, 64898, Note_on_c, 0, 65, 99
1, 64973, Note_off_c, 0, 65, 99
1, 64983, Note_on_c, 0, 67, 100
1, 65068, Note_off_c, 0, 67, 100
1, 65073, Note_on_c, 0, 61, 101
1, 65158, Note_off_c, 0, 61, 101
1, 65179, Note_on_c, 0, 63, 99
1, 65271, Note_off_c, 0, 63, 99
1, 65307, Note_on_c, 0, 65, 92
1, 65412, Note_off_c, 0, 65, 92
1, 65426, Note_on_c, 0, 67, 90
1, 65464, Note_off_c, 0, 67, 90
1, 65464, Note_on_c, 0, 70, 106
1, 65524, Note_off_c, 0, 70, 106
1, 65531, Note_on_c, 0, 67, 97
1, 65600, Note_off_c, 0, 67, 97
1, 65632, Note_on_c, 0, 63, 103
1, 65704, Note_off_c, 0, 63, 103
1, 65744, Note_on_c, 0, 60, 101
1, 65845, Note_off_c, 0, 60, 101
1, 65863, Note_on_c, 0, 59, 99
1, 65905, Note_off_c, 0, 59, 99
1, 65940, Note_on_c, 0, 61, 98
1, 66041, Note_off_c, 0, 61, 98
1, 66049, Note_on_c, 0, 63, 98
1, 66140, Note_off_c, 0, 63, 98
1, 66145, Note_on_c, 0, 66, 102
1, 66233, Note_off_c, 0, 66, 102
1, 66243, Note_on_c, 0, 64, 107
1, 66321, Note_off_c, 0, 64, 107
1, 66346, Note_on_c, 0, 66, 97
1, 66439, Note_off_c, 0, 66, 97
1, 66455, Note_on_c, 0, 68, 101
1, 66510, Note_off_c, 0, 68, 101
1, 66518, Note_on_c, 0, 71, 111
1, 66616, Note_off_c, 0, 71, 111
1, 66622, Note_on_c, 0, 67, 103
1, 66717, Note_off_c, 0, 67, 103
1, 66724, Note_on_c, 0, 65, 99
1, 66791, Note_off_c, 0, 65, 99
1, 66803, Note_on_c, 0, 64, 104
1, 66882, Note_off_c, 0, 64, 104
1, 66904, Note_on_c, 0, 62, 102
1, 67001, Note_off_c, 0, 62, 102
1, 67011, Note_on_c, 0, 60, 94
1, 67114, Note_off_c, 0, 60, 94
1, 67169, Note_on_c, 0, 64, 92
1, 67246, Note_off_c, 0, 64, 92
1, 67254, Note_on_c, 0, 67, 91
1, 67322, Note_off_c, 0, 67, 91
1, 67329, Note_on_c, 0, 72, 105
1, 67417, Note_off_c, 0, 72, 105
1, 67964, Note_on_c, 0, 67, 96
1, 68059, Note_off_c, 0, 67, 96
1, 68070, Note_on_c, 0, 65, 98
1, 68134, Note_off_c, 0, 65, 98
1, 68142, Note_on_c, 0, 63, 106
1, 68207, Note_off_c, 0, 63, 106
1, 68229, Note_on_c, 0, 59, 97
1, 68310, Note_off_c, 0, 59, 97
1, 68335, Note_on_c, 0, 56, 97
1, 68431, Note_off_c, 0, 56, 97
1, 68431, Note_on_c, 0, 61, 100
1, 68508, Note_off_c, 0, 61, 100
1, 68517, Note_on_c, 0, 58, 98
1, 68616, Note_off_c, 0, 58, 98
1, 68632, Note_on_c, 0, 61, 96
1, 68709, Note_off_c, 0, 61, 96
1, 68727, Note_on_c, 0, 70, 84
1, 68881, Note_off_c, 0, 70, 84
1, 68897, Note_on_c, 0, 69, 107
1, 68979, Note_off_c, 0, 69, 107
1, 68981, Note_on_c, 0, 68, 104
1, 69056, Note_off_c, 0, 68, 104
1, 69065, Note_on_c, 0, 67, 100
1, 69167, Note_off_c, 0, 67, 100
1, 69176, Note_on_c, 0, 70, 104
1, 69242, Note_off_c, 0, 70, 104
1, 69247, Note_on_c, 0, 69, 105
1, 69334, Note_off_c, 0, 69, 105
1, 69339, Note_on_c, 0, 66, 98
1, 69460, Note_off_c, 0, 66, 98
1, 69467, Note_on_c, 0, 64, 97
1, 69508, Note_off_c, 0, 64, 97
1, 69522, Note_on_c, 0, 62, 95
1, 69593, Note_off_c, 0, 62, 95
1, 69599, Note_on_c, 0, 65, 94
1, 69722, Note_off_c, 0, 65, 94
1, 69731, Note_on_c, 0, 67, 92
1, 69810, Note_off_c, 0, 67, 92
1, 69830, Note_on_c, 0, 68, 97
1, 69904, Note_off_c, 0, 68, 97
1, 69912, Note_on_c, 0, 67, 100
1, 69986, Note_off_c, 0, 67, 100
1, 69996, Note_on_c, 0, 65, 95
1, 70080, Note_off_c, 0, 65, 95
1, 70089, Note_on_c, 0, 63, 104
1, 70171, Note_off_c, 0, 63, 104
1, 70180, Note_on_c, 0, 62, 101
1, 70263, Note_off_c, 0, 62, 101
1, 70271, Note_on_c, 0, 60, 99
1, 70346, Note_off_c, 0, 60, 99
1, 70354, Note_on_c, 0, 58, 91
1, 70411, Note_off_c, 0, 58, 91
1, 70428, Note_on_c, 0, 60, 100
1, 70543, Note_off_c, 0, 60, 100
1, 70560, Note_on_c, 0, 62, 93
1, 70608, Note_off_c, 0, 62, 93
1, 70617, Note_on_c, 0, 65, 91
1, 70695, Note_off_c, 0, 65, 91
1, 70717, Note_on_c, 0, 69, 103
1, 70782, Note_off_c, 0, 69, 103
1, 70795, Note_on_c, 0, 72, 107
1, 70866, Note_off_c, 0, 72, 107
1, 70873, Note_on_c, 0, 69, 105
1, 70991, Note_off_c, 0, 69, 105
1, 71458, Note_on_c, 0, 68, 106
1, 71515, Note_on_c, 0, 69, 110
1, 71515, Note_off_c, 0, 68, 106
1, 71569, Note_off_c, 0, 69, 110
1, 71580, Note_on_c, 0, 70, 108
1, 71643, Note_off_c, 0, 70, 108
1, 71651, Note_on_c, 0, 69, 109
1, 71751, Note_off_c, 0, 69, 109
1, 71767, Note_on_c, 0, 67, 106
1, 71888, Note_off_c, 0, 67, 106
1, 71896, Note_on_c, 0, 65, 105
1, 71942, Note_off_c, 0, 65, 105
1, 71943, Note_on_c, 0, 63, 109
1, 72016, Note_off_c, 0, 63, 109
1, 72031, Note_on_c, 0, 62, 106
1, 72118, Note_off_c, 0, 62, 106
1, 72126, Note_on_c, 0, 60, 103
1, 72243, Note_off_c, 0, 60, 103
1, 72247, Note_on_c, 0, 57, 101
1, 72309, Note_off_c, 0, 57, 101
1, 72321, Note_on_c, 0, 60, 100
1, 72431, Note_off_c, 0, 60, 100
1, 72443, Note_on_c, 0, 62, 101
1, 72480, Note_off_c, 0, 62, 101
1, 72483, Note_on_c, 0, 65, 100
1, 72605, Note_off_c, 0, 65, 100
1, 72614, Note_on_c, 0, 61, 100
1, 72677, Note_off_c, 0, 61, 100
1, 72691, Note_on_c, 0, 63, 101
1, 72800, Note_off_c, 0, 63, 101
1, 72807, Note_on_c, 0, 65, 94
1, 72896, Note_off_c, 0, 65, 94
1, 72904, Note_on_c, 0, 75, 88
1, 73138, Note_off_c, 0, 75, 88
1, 73149, Note_on_c, 0, 72, 103
1, 73245, Note_off_c, 0, 72, 103
1, 73289, Note_on_c, 0, 67, 105
1, 73377, Note_off_c, 0, 67, 105
1, 73437, Note_on_c, 0, 65, 94
1, 73513, Note_off_c, 0, 65, 94
1, 73519, Note_on_c, 0, 61, 97
1, 73582, Note_off_c, 0, 61, 97
1, 73587, Note_on_c, 0, 58, 89
1, 73660, Note_off_c, 0, 58, 89
1, 73754, Note_on_c, 0, 64, 107
1, 73808, Note_off_c, 0, 64, 107
1, 73860, Note_on_c, 0, 66, 99
1, 73929, Note_off_c, 0, 66, 99
1, 73939, Note_on_c, 0, 67, 96
1, 74015, Note_off_c, 0, 67, 96
1, 74022, Note_on_c, 0, 69, 105
1, 74102, Note_off_c, 0, 69, 105
1, 74106, Note_on_c, 0, 63, 105
1, 74216, Note_off_c, 0, 63, 105
1, 74225, Note_on_c, 0, 65, 100
1, 74291, Note_off_c, 0, 65, 100
1, 74300, Note_on_c, 0, 67, 93
1, 74399, Note_off_c, 0, 67, 93
1, 74408, Note_on_c, 0, 69, 93
1, 74467, Note_off_c, 0, 69, 93
1, 74475, Note_on_c, 0, 70, 104
1, 74556, Note_off_c, 0, 70, 104
1, 74851, Note_on_c, 0, 63, 104
1, 74946, Note_off_c, 0, 63, 104
1, 74968, Note_on_c, 0, 59, 94
1, 75035, Note_off_c, 0, 59, 94
1, 75039, Note_on_c, 0, 56, 99
1, 75158, Note_off_c, 0, 56, 99
1, 75171, Note_on_c, 0, 61, 95
1, 75230, Note_off_c, 0, 61, 95
1, 75247, Note_on_c, 0, 58, 96
1, 75347, Note_off_c, 0, 58, 96
1, 75350, Note_on_c, 0, 61, 99
1, 75440, Note_off_c, 0, 61, 99
1, 75447, Note_on_c, 0, 66, 94
1, 75541, Note_off_c, 0, 66, 94
1, 75553, Note_on_c, 0, 70, 103
1, 75633, Note_off_c, 0, 70, 103
1, 75645, Note_on_c, 0, 69, 103
1, 75718, Note_off_c, 0, 69, 103
1, 75729, Note_on_c, 0, 68, 102
1, 75785, Note_off_c, 0, 68, 102
1, 75799, Note_on_c, 0, 67, 100
1, 75895, Note_off_c, 0, 67, 100
1, 75902, Note_on_c, 0, 71, 105
1, 75970, Note_off_c, 0, 71, 105
1, 75977, Note_on_c, 0, 69, 104
1, 76041, Note_off_c, 0, 69, 104
1, 76058, Note_on_c, 0, 66, 95
1, 76158, Note_off_c, 0, 66, 95
1, 76170, Note_on_c, 0, 64, 96
1, 76225, Note_off_c, 0, 64, 96
1, 76240, Note_on_c, 0, 62, 96
1, 76315, Note_off_c, 0, 62, 96
1, 76326, Note_on_c, 0, 66, 95
1, 76428, Note_off_c, 0, 66, 95
1, 76439, Note_on_c, 0, 67, 96
1, 76509, Note_off_c, 0, 67, 96
1, 76523, Note_on_c, 0, 69, 97
1, 76581, Note_off_c, 0, 69, 97
1, 76608, Note_on_c, 0, 71, 97
1, 76692, Note_off_c, 0, 71, 97
1, 76695, Note_on_c, 0, 62, 98
1, 76819, Note_off_c, 0, 62, 98
1, 76838, Note_on_c, 0, 63, 96
1, 76923, Note_off_c, 0, 63, 96
1, 76932, Note_on_c, 0, 65, 89
1, 77002, Note_off_c, 0, 65, 89
1, 77012, Note_on_c, 0, 66, 100
1, 77072, Note_off_c, 0, 66, 100
1, 77121, Note_on_c, 0, 63, 102
1, 77174, Note_off_c, 0, 63, 102
1, 77188, Note_on_c, 0, 62, 97
1, 77256, Note_off_c, 0, 62, 97
1, 77287, Note_on_c, 0, 61, 93
1, 77373, Note_off_c, 0, 61, 93
1, 77376, Note_on_c, 0, 63, 102
1, 77460, Note_off_c, 0, 63, 102
1, 77471, Note_on_c, 0, 60, 94
1, 77552, Note_off_c, 0, 60, 94
1, 77558, Note_on_c, 0, 63, 100
1, 77628, Note_off_c, 0, 63, 100
1, 77636, Note_on_c, 0, 68, 97
1, 77681, Note_off_c, 0, 68, 97
1, 77698, Note_on_c, 0, 72, 100
1, 77755, Note_off_c, 0, 72, 100
1, 77776, Note_on_c, 0, 71, 102
1, 77849, Note_off_c, 0, 71, 102
1, 77859, Note_on_c, 0, 69, 100
1, 77947, Note_off_c, 0, 69, 100
1, 77967, Note_on_c, 0, 68, 96
1, 78096, Note_off_c, 0, 68, 96
1, 78106, Note_on_c, 0, 66, 95
1, 78217, Note_off_c, 0, 66, 95
1, 78224, Note_on_c, 0, 64, 97
1, 78281, Note_off_c, 0, 64, 97
1, 78282, Note_on_c, 0, 66, 96
1, 78404, Note_off_c, 0, 66, 96
1, 78413, Note_on_c, 0, 68, 95
1, 78452, Note_off_c, 0, 68, 95
1, 78463, Note_on_c, 0, 71, 108
1, 78550, Note_off_c, 0, 71, 108
1, 78562, Note_on_c, 0, 67, 96
1, 78671, Note_off_c, 0, 67, 96
1, 78689, Note_on_c, 0, 65, 98
1, 78746, Note_off_c, 0, 65, 98
1, 78754, Note_on_c, 0, 64, 107
1, 78824, Note_off_c, 0, 64, 107
1, 78833, Note_on_c, 0, 62, 101
1, 78921, Note_off_c, 0, 62, 101
1, 78930, Note_on_c, 0, 60, 95
1, 79007, Note_off_c, 0, 60, 95
1, 79018, Note_on_c, 0, 62, 96
1, 79095, Note_off_c, 0, 62, 96
1, 79102, Note_on_c, 0, 64, 99
1, 79201, Note_off_c, 0, 64, 99
1, 79211, Note_on_c, 0, 67, 93
1, 79281, Note_off_c, 0, 67, 93
1, 79291, Note_on_c, 0, 72, 108
1, 79365, Note_off_c, 0, 72, 108
1, 79370, Note_on_c, 0, 71, 103
1, 79438, Note_off_c, 0, 71, 103
1, 79447, Note_on_c, 0, 69, 105
1, 79548, Note_off_c, 0, 69, 105
1, 79558, Note_on_c, 0, 68, 102
1, 79671, Note_off_c, 0, 68, 102
1, 79682, Note_on_c, 0, 67, 98
1, 79786, Note_off_c, 0, 67, 98
1, 79790, Note_on_c, 0, 63, 100
1, 79839, Note_off_c, 0, 63, 100
1, 79853, Note_on_c, 0, 62, 103
1, 79934, Note_off_c, 0, 62, 103
1, 79946, Note_on_c, 0, 60, 91
1, 80022, Note_off_c, 0, 60, 91
1, 80047, Note_on_c, 0, 63, 108
1, 80143, Note_off_c, 0, 63, 108
1, 80156, Note_on_c, 0, 59, 100
1, 80228, Note_off_c, 0, 59, 100
1, 80241, Note_on_c, 0, 56, 97
1, 80336, Note_off_c, 0, 56, 97
1, 80347, Note_on_c, 0, 61, 97
1, 80420, Note_off_c, 0, 61, 97
1, 80420, Note_on_c, 0, 58, 93
1, 80508, Note_off_c, 0, 58, 93
1, 80805, Note_on_c, 0, 69, 91
1, 80837, Note_off_c, 0, 69, 91
1, 80848, Note_on_c, 0, 68, 108
1, 80962, Note_off_c, 0, 68, 108
1, 80971, Note_on_c, 0, 67, 101
1, 81091, Note_off_c, 0, 67, 101
1, 81102, Note_on_c, 0, 71, 102
1, 81159, Note_off_c, 0, 71, 102
1, 81164, Note_on_c, 0, 69, 104
1, 81223, Note_off_c, 0, 69, 104
1, 81231, Note_on_c, 0, 67, 101
1, 81266, Note_off_c, 0, 67, 101
1, 81276, Note_on_c, 0, 66, 100
1, 81342, Note_off_c, 0, 66, 100
1, 81356, Note_on_c, 0, 64, 103
1, 81447, Note_off_c, 0, 64, 103
1, 81458, Note_on_c, 0, 62, 94
1, 81542, Note_off_c, 0, 62, 94
1, 81562, Note_on_c, 0, 65, 99
1, 81665, Note_off_c, 0, 65, 99
1, 81764, Note_on_c, 0, 69, 107
1, 81838, Note_off_c, 0, 69, 107
1, 81852, Note_on_c, 0, 67, 101
1, 81941, Note_off_c, 0, 67, 101
1, 81948, Note_on_c, 0, 65, 99
1, 82025, Note_off_c, 0, 65, 99
1, 82028, Note_on_c, 0, 63, 104
1, 82096, Note_off_c, 0, 63, 104
1, 82100, Note_on_c, 0, 62, 103
1, 82170, Note_off_c, 0, 62, 103
1, 82189, Note_on_c, 0, 60, 97
1, 82288, Note_off_c, 0, 60, 97
1, 82302, Note_on_c, 0, 58, 86
1, 82335, Note_off_c, 0, 58, 86
1, 82348, Note_on_c, 0, 60, 94
1, 82421, Note_off_c, 0, 60, 94
1, 82442, Note_on_c, 0, 62, 99
1, 82521, Note_off_c, 0, 62, 99
1, 82537, Note_on_c, 0, 65, 88
1, 82570, Note_off_c, 0, 65, 88
1, 82590, Note_on_c, 0, 69, 99
1, 82687, Note_off_c, 0, 69, 99
1, 82699, Note_on_c, 0, 58, 101
1, 82744, Note_off_c, 0, 58, 101
1, 82748, Note_on_c, 0, 59, 95
1, 82803, Note_off_c, 0, 59, 95
1, 83288, Note_on_c, 0, 57, 104
1, 83556, Note_off_c, 0, 57, 104
1, 83567, Note_on_c, 0, 56, 96
1, 83620, Note_off_c, 0, 56, 96
1, 83625, Note_on_c, 0, 57, 102
1, 83719, Note_off_c, 0, 57, 102
1, 83729, Note_on_c, 0, 55, 105
1, 83799, Note_off_c, 0, 55, 105
1, 83813, Note_on_c, 0, 53, 110
1, 83876, Note_off_c, 0, 53, 110
1, 83890, Note_on_c, 0, 51, 105
1, 84021, Note_off_c, 0, 51, 105
1, 84028, Note_on_c, 0, 49, 101
1, 84086, Note_off_c, 0, 49, 101
1, 84096, Note_on_c, 0, 48, 104
1, 84181, Note_off_c, 0, 48, 104
1, 84193, Note_on_c, 0, 46, 106
1, 84312, Note_off_c, 0, 46, 106
1, 84380, Note_on_c, 0, 53, 95
1, 84496, Note_off_c, 0, 53, 95
1, 84528, Note_on_c, 0, 55, 91
1, 84575, Note_off_c, 0, 55, 91
1, 84587, Note_on_c, 0, 58, 97
1, 84665, Note_off_c, 0, 58, 97
1, 84678, Note_on_c, 0, 60, 102
1, 84774, Note_off_c, 0, 60, 102
1, 84791, Note_on_c, 0, 63, 103
1, 84863, Note_off_c, 0, 63, 103
1, 84877, Note_on_c, 0, 65, 102
1, 84954, Note_off_c, 0, 65, 102
1, 84976, Note_on_c, 0, 61, 96
1, 85038, Note_off_c, 0, 61, 96
1, 85068, Note_on_c, 0, 63, 102
1, 85133, Note_off_c, 0, 63, 102
1, 85151, Note_on_c, 0, 65, 99
1, 85227, Note_off_c, 0, 65, 99
1, 85236, Note_on_c, 0, 67, 105
1, 85323, Note_off_c, 0, 67, 105
1, 85343, Note_on_c, 0, 69, 103
1, 85450, Note_off_c, 0, 69, 103
1, 85827, Note_on_c, 0, 51, 105
1, 85905, Note_off_c, 0, 51, 105
1, 85921, Note_on_c, 0, 55, 100
1, 85972, Note_off_c, 0, 55, 100
1, 85984, Note_on_c, 0, 58, 101
1, 86037, Note_off_c, 0, 58, 101
1, 86072, Note_on_c, 0, 51, 101
1, 86232, Note_off_c, 0, 51, 101
1, 86270, Note_on_c, 0, 57, 104
1, 86353, Note_off_c, 0, 57, 104
1, 86462, Note_on_c, 0, 62, 102
1, 86538, Note_off_c, 0, 62, 102
1, 86551, Note_on_c, 0, 60, 102
1, 86633, Note_off_c, 0, 60, 102
1, 86650, Note_on_c, 0, 57, 99
1, 86733, Note_off_c, 0, 57, 99
1, 86815, Note_on_c, 0, 63, 104
1, 86906, Note_off_c, 0, 63, 104
1, 86917, Note_on_c, 0, 59, 95
1, 86965, Note_off_c, 0, 59, 95
1, 86973, Note_on_c, 0, 56, 101
1, 87103, Note_off_c, 0, 56, 101
1, 87121, Note_on_c, 0, 61, 100
1, 87207, Note_off_c, 0, 61, 100
1, 87211, Note_on_c, 0, 58, 100
1, 87283, Note_off_c, 0, 58, 100
1, 87311, Note_on_c, 0, 54, 95
1, 87397, Note_off_c, 0, 54, 95
1, 87452, Note_on_c, 0, 55, 93
1, 87486, Note_off_c, 0, 55, 93
1, 87492, Note_on_c, 0, 58, 99
1, 87583, Note_off_c, 0, 58, 99
1, 87594, Note_on_c, 0, 57, 100
1, 87685, Note_off_c, 0, 57, 100
1, 87694, Note_on_c, 0, 56, 103
1, 87775, Note_off_c, 0, 56, 103
1, 87787, Note_on_c, 0, 55, 102
1, 87873, Note_off_c, 0, 55, 102
1, 87879, Note_on_c, 0, 59, 97
1, 87949, Note_off_c, 0, 59, 97
1, 87955, Note_on_c, 0, 57, 100
1, 88013, Note_off_c, 0, 57, 100
1, 88014, Note_on_c, 0, 54, 98
1, 88080, Note_off_c, 0, 54, 98
1, 88109, Note_on_c, 0, 52, 92
1, 88180, Note_off_c, 0, 52, 92
1, 88192, Note_on_c, 0, 50, 88
1, 88259, Note_off_c, 0, 50, 88
1, 88283, Note_on_c, 0, 54, 95
1, 88370, Note_off_c, 0, 54, 95
1, 88381, Note_on_c, 0, 55, 97
1, 88446, Note_off_c, 0, 55, 97
1, 88464, Note_on_c, 0, 57, 94
1, 88553, Note_off_c, 0, 57, 94
1, 88593, Note_on_c, 0, 59, 101
1, 88654, Note_off_c, 0, 59, 101
1, 88694, Note_on_c, 0, 50, 94
1, 88858, Note_off_c, 0, 50, 94
1, 88874, Note_on_c, 0, 52, 96
1, 88939, Note_off_c, 0, 52, 96
1, 88951, Note_on_c, 0, 55, 96
1, 89022, Note_off_c, 0, 55, 96
1, 89046, Note_on_c, 0, 50, 95
1, 89234, Note_off_c, 0, 50, 95
1, 89356, Note_on_c, 0, 55, 95
1, 89418, Note_off_c, 0, 55, 95
1, 89423, Note_on_c, 0, 51, 95
1, 89507, Note_off_c, 0, 51, 95
1, 89526, Note_on_c, 0, 53, 97
1, 89591, Note_off_c, 0, 53, 97
1, 89606, Note_on_c, 0, 56, 97
1, 89681, Note_off_c, 0, 56, 97
1, 89692, Note_on_c, 0, 60, 99
1, 89795, Note_off_c, 0, 60, 99
1, 89799, Note_on_c, 0, 59, 96
1, 89861, Note_off_c, 0, 59, 96
1, 89867, Note_on_c, 0, 61, 101
1, 89983, Note_off_c, 0, 61, 101
1, 89993, Note_on_c, 0, 63, 104
1, 90078, Note_off_c, 0, 63, 104
1, 90088, Note_on_c, 0, 66, 97
1, 90151, Note_off_c, 0, 66, 97
1, 90162, Note_on_c, 0, 64, 103
1, 90258, Note_off_c, 0, 64, 103
1, 90268, Note_on_c, 0, 66, 96
1, 90349, Note_off_c, 0, 66, 96
1, 90357, Note_on_c, 0, 68, 105
1, 90426, Note_off_c, 0, 68, 105
1, 90426, Note_on_c, 0, 30, 80
1, 90426, Note_off_c, 0, 30, 80
1, 90443, Note_on_c, 0, 71, 107
1, 90524, Note_off_c, 0, 71, 107
1, 90531, Note_on_c, 0, 67, 104
1, 90630, Note_off_c, 0, 67, 104
1, 90656, Note_on_c, 0, 60, 98
1, 90785, Note_off_c, 0, 60, 98
1, 91828, Note_on_c, 0, 60, 93
1, 91876, Note_off_c, 0, 60, 93
1, 91883, Note_on_c, 0, 63, 100
1, 91931, Note_off_c, 0, 63, 100
1, 91935, Note_on_c, 0, 67, 100
1, 92011, Note_off_c, 0, 67, 100
1, 92037, Note_on_c, 0, 63, 102
1, 92102, Note_off_c, 0, 63, 102
1, 92113, Note_on_c, 0, 59, 92
1, 92213, Note_off_c, 0, 59, 92
1, 92213, Note_on_c, 0, 56, 100
1, 92324, Note_off_c, 0, 56, 100
1, 92337, Note_on_c, 0, 61, 94
1, 92414, Note_off_c, 0, 61, 94
1, 92421, Note_on_c, 0, 58, 92
1, 92503, Note_off_c, 0, 58, 92
1, 92514, Note_on_c, 0, 61, 96
1, 92593, Note_off_c, 0, 61, 96
1, 92613, Note_on_c, 0, 66, 92
1, 92719, Note_off_c, 0, 66, 92
1, 92722, Note_on_c, 0, 70, 103
1, 92800, Note_off_c, 0, 70, 103
1, 92811, Note_on_c, 0, 69, 102
1, 92886, Note_off_c, 0, 69, 102
1, 92897, Note_on_c, 0, 68, 102
1, 92989, Note_off_c, 0, 68, 102
1, 92997, Note_on_c, 0, 67, 96
1, 93092, Note_off_c, 0, 67, 96
1, 93099, Note_on_c, 0, 71, 106
1, 93162, Note_off_c, 0, 71, 106
1, 93170, Note_on_c, 0, 69, 103
1, 93239, Note_off_c, 0, 69, 103
1, 93243, Note_on_c, 0, 66, 97
1, 93332, Note_off_c, 0, 66, 97
1, 93349, Note_on_c, 0, 64, 100
1, 93439, Note_off_c, 0, 64, 100
1, 93450, Note_on_c, 0, 62, 92
1, 93516, Note_off_c, 0, 62, 92
1, 93521, Note_on_c, 0, 65, 94
1, 93633, Note_off_c, 0, 65, 94
1, 93731, Note_on_c, 0, 69, 107
1, 93810, Note_off_c, 0, 69, 107
1, 93815, Note_on_c, 0, 67, 100
1, 93906, Note_off_c, 0, 67, 100
1, 93910, Note_on_c, 0, 65, 99
1, 93976, Note_off_c, 0, 65, 99
1, 93988, Note_on_c, 0, 63, 106
1, 94067, Note_off_c, 0, 63, 106
1, 94076, Note_on_c, 0, 62, 101
1, 94156, Note_off_c, 0, 62, 101
1, 94165, Note_on_c, 0, 60, 97
1, 94279, Note_off_c, 0, 60, 97
1, 94292, Note_on_c, 0, 58, 94
1, 94350, Note_off_c, 0, 58, 94
1, 94357, Note_on_c, 0, 60, 102
1, 94460, Note_off_c, 0, 60, 102
1, 94476, Note_on_c, 0, 62, 93
1, 94527, Note_off_c, 0, 62, 93
1, 94538, Note_on_c, 0, 65, 92
1, 94616, Note_off_c, 0, 65, 92
1, 94619, Note_on_c, 0, 72, 110
1, 95229, Note_off_c, 0, 72, 110
1, 95251, Note_on_c, 0, 71, 101
1, 95322, Note_off_c, 0, 71, 101
1, 95329, Note_on_c, 0, 72, 88
1, 95406, Note_off_c, 0, 72, 88
1, 95409, Note_on_c, 0, 69, 105
1, 95508, Note_off_c, 0, 69, 105
1, 95511, Note_on_c, 0, 72, 106
1, 95766, Note_off_c, 0, 72, 106
1, 95777, Note_on_c, 0, 69, 104
1, 96053, Note_off_c, 0, 69, 104
1, 96077, Note_on_c, 0, 67, 100
1, 96174, Note_off_c, 0, 67, 100
1, 96186, Note_on_c, 0, 65, 101
1, 96259, Note_off_c, 0, 65, 101
1, 96264, Note_on_c, 0, 63, 106
1, 96343, Note_off_c, 0, 63, 106
1, 96359, Note_on_c, 0, 62, 100
1, 96436, Note_off_c, 0, 62, 100
1, 96443, Note_on_c, 0, 60, 101
1, 96544, Note_off_c, 0, 60, 101
1, 96568, Note_on_c, 0, 58, 95
1, 96647, Note_off_c, 0, 58, 95
1, 96658, Note_on_c, 0, 60, 91
1, 96745, Note_off_c, 0, 60, 91
1, 96784, Note_on_c, 0, 62, 96
1, 96826, Note_off_c, 0, 62, 96
1, 96886, Note_on_c, 0, 75, 104
1, 97191, Note_off_c, 0, 75, 104
1, 97206, Note_on_c, 0, 72, 98
1, 97264, Note_off_c, 0, 72, 98
1, 97286, Note_on_c, 0, 75, 107
1, 97439, Note_off_c, 0, 75, 107
1, 97452, Note_on_c, 0, 72, 106
1, 97551, Note_off_c, 0, 72, 106
1, 97551, End_track
0, 0, End_of_file
