0, 0, Header, 1, 1, 192
1, 0, Start_track
1, 0, Title_t, "Melody"
1, 0, Tempo, 312500
1, 0, Key_signature, -3, "major"
1, 0, Time_signature, 4, 2, 24, 8
1, 2721, Note_on_c, 0, 51, 115
1, 2817, Note_off_c, 0, 51, 115
1, 2832, Note_on_c, 0, 63, 103
1, 3629, Note_off_c, 0, 63, 103
1, 3645, Note_on_c, 0, 61, 105
1, 3707, Note_off_c, 0, 61, 105
1, 3710, Note_on_c, 0, 60, 101
1, 3793, Note_off_c, 0, 60, 101
1, 3796, Note_on_c, 0, 58, 112
1, 3894, Note_off_c, 0, 58, 112
1, 3908, Note_on_c, 0, 54, 111
1, 3986, Note_off_c, 0, 54, 111
1, 3992, Note_on_c, 0, 55, 109
1, 4064, Note_off_c, 0, 55, 109
1, 4077, Note_on_c, 0, 58, 106
1, 4154, Note_off_c, 0, 58, 106
1, 4174, Note_on_c, 0, 55, 92
1, 4258, Note_off_c, 0, 55, 92
1, 4259, Note_on_c, 0, 60, 97
1, 4382, Note_off_c, 0, 60, 97
1, 4383, Note_on_c, 0, 58, 106
1, 4461, Note_off_c, 0, 58, 106
1, 4465, Note_on_c, 0, 54, 101
1, 4556, Note_off_c, 0, 54, 101
1, 4562, Note_on_c, 0, 55, 108
1, 4643, Note_off_c, 0, 55, 108
1, 4648, Note_on_c, 0, 58, 104
1, 4753, Note_off_c, 0, 58, 104
1, 4763, Note_on_c, 0, 57, 95
1, 4838, Note_off_c, 0, 57, 95
1, 4850, Note_on_c, 0, 60, 93
1, 4927, Note_off_c, 0, 60, 93
1, 4936, Note_on_c, 0, 58, 101
1, 4993, Note_off_c, 0, 58, 101
1, 5038, Note_on_c, 0, 63, 116
1, 5105, Note_off_c, 0, 63, 116
1, 5144, Note_on_c, 0, 63, 102
1, 5312, Note_off_c, 0, 63, 102
1, 5336, Note_on_c, 0, 58, 114
1, 5383, Note_off_c, 0, 58, 114
1, 5405, Note_on_c, 0, 60, 106
1, 5477, Note_off_c, 0, 60, 106
1, 5525, Note_on_c, 0, 58, 104
1, 5571, Note_off_c, 0, 58, 104
1, 5591, Note_on_c, 0, 54, 100
1, 5666, Note_off_c, 0, 54, 100
1, 5698, Note_on_c, 0, 55, 95
1, 5741, Note_off_c, 0, 55, 95
1, 5981, Note_on_c, 0, 63, 111
1, 6061, Note_off_c, 0, 63, 111
1, 6082, Note_on_c, 0, 58, 112
1, 6152, Note_off_c, 0, 58, 112
1, 6169, Note_on_c, 0, 63, 116
1, 6245, Note_off_c, 0, 63, 116
1, 6280, Note_on_c, 0, 55, 107
1, 6360, Note_off_c, 0, 55, 107
1, 6371, Note_on_c, 0, 58, 109
1, 6438, Note_off_c, 0, 58, 109
1, 6453, Note_on_c, 0, 51, 101
1, 6528, Note_off_c, 0, 51, 101
1, 6538, Note_on_c, 0, 53, 120
1, 6634, Note_off_c, 0, 53, 120
1, 6644, Note_on_c, 0, 54, 109
1, 6741, Note_off_c, 0, 54, 109
1, 6749, Note_on_c, 0, 55, 109
1, 6829, Note_off_c, 0, 55, 109
1, 6836, Note_on_c, 0, 58, 123
1, 6921, Note_off_c, 0, 58, 123
1, 6933, Note_on_c, 0, 57, 116
1, 7022, Note_off_c, 0, 57, 116
1, 7039, Note_on_c, 0, 58, 108
1, 7104, Note_off_c, 0, 58, 108
1, 7118, Note_on_c, 0, 60, 92
1, 7181, Note_off_c, 0, 60, 92
1, 7194, Note_on_c, 0, 58, 101
1, 7272, Note_off_c, 0, 58, 101
1, 7320, Note_on_c, 0, 62, 110
1, 7409, Note_off_c, 0, 62, 110
1, 7424, Note_on_c, 0, 61, 106
1, 7489, Note_off_c, 0, 61, 106
1, 7502, Note_on_c, 0, 62, 102
1, 7599, Note_off_c, 0, 62, 102
1, 7610, Note_on_c, 0, 61, 109
1, 7671, Note_off_c, 0, 61, 109
1, 7682, Note_on_c, 0, 60, 98
1, 7771, Note_off_c, 0, 60, 98
1, 7778, Note_on_c, 0, 58, 102
1, 7875, Note_off_c, 0, 58, 102
1, 7883, Note_on_c, 0, 57, 98
1, 7982, Note_off_c, 0, 57, 98
1, 7995, Note_on_c, 0, 58, 102
1, 8050, Note_off_c, 0, 58, 102
1, 8057, Note_on_c, 0, 56, 110
1, 8147, Note_off_c, 0, 56, 110
1, 8168, Note_on_c, 0, 58, 106
1, 8240, Note_off_c, 0, 58, 106
1, 8252, Note_on_c, 0, 55, 99
1, 8349, Note_off_c, 0, 55, 99
1, 8362, Note_on_c, 0, 56, 117
1, 8425, Note_off_c, 0, 56, 117
1, 8433, Note_on_c, 0, 53, 109
1, 8533, Note_off_c, 0, 53, 109
1, 8539, Note_on_c, 0, 56, 91
1, 8647, Note_off_c, 0, 56, 91
1, 8650, Note_on_c, 0, 50, 125
1, 8754, Note_off_c, 0, 50, 125
1, 9027, Note_on_c, 0, 50, 127
1, 9112, Note_off_c, 0, 50, 127
1, 9147, Note_on_c, 0, 53, 114
1, 9214, Note_off_c, 0, 53, 114
1, 9222, Note_on_c, 0, 56, 111
1, 9297, Note_off_c, 0, 56, 111
1, 9326, Note_on_c, 0, 50, 124
1, 9401, Note_off_c, 0, 50, 124
1, 9414, Note_on_c, 0, 53, 109
1, 9480, Note_off_c, 0, 53, 109
1, 9527, Note_on_c, 0, 56, 98
1, 9589, Note_off_c, 0, 56, 98
1, 9592, Note_on_c, 0, 58, 113
1, 9712, Note_off_c, 0, 58, 113
1, 9718, Note_on_c, 0, 57, 107
1, 9781, Note_off_c, 0, 57, 107
1, 9804, Note_on_c, 0, 60, 98
1, 9859, Note_off_c, 0, 60, 98
1, 9904, Note_on_c, 0, 62, 108
1, 9972, Note_off_c, 0, 62, 108
1, 10000, Note_on_c, 0, 62, 100
1, 10072, Note_off_c, 0, 62, 100
1, 10093, Note_on_c, 0, 60, 97
1, 10144, Note_off_c, 0, 60, 97
1, 10156, Note_on_c, 0, 58, 107
1, 10229, Note_off_c, 0, 58, 107
1, 10255, Note_on_c, 0, 56, 100
1, 10543, Note_off_c, 0, 56, 100
1, 10557, Note_on_c, 0, 51, 111
1, 10617, Note_off_c, 0, 51, 111
1, 10622, Note_on_c, 0, 50, 121
1, 10709, Note_off_c, 0, 50, 121
1, 10710, Note_on_c, 0, 51, 117
1, 10755, Note_off_c, 0, 51, 117
1, 10755, Note_on_c, 0, 55, 109
1, 10816, Note_off_c, 0, 55, 109
1, 10819, Note_on_c, 0, 51, 108
1, 10880, Note_off_c, 0, 51, 108
1, 10892, Note_on_c, 0, 55, 101
1, 10945, Note_off_c, 0, 55, 101
1, 10953, Note_on_c, 0, 58, 108
1, 11005, Note_off_c, 0, 58, 108
1, 11015, Note_on_c, 0, 57, 100
1, 11062, Note_off_c, 0, 57, 100
1, 11075, Note_on_c, 0, 58, 102
1, 11130, Note_off_c, 0, 58, 102
1, 11135, Note_on_c, 0, 60, 101
1, 11198, Note_off_c, 0, 60, 101
1, 11203, Note_on_c, 0, 57, 103
1, 11266, Note_off_c, 0, 57, 103
1, 11268, Note_on_c, 0, 58, 104
1, 11313, Note_off_c, 0, 58, 104
1, 11322, Note_on_c, 0, 63, 103
1, 11373, Note_off_c, 0, 63, 103
1, 11401, Note_on_c, 0, 58, 115
1, 11461, Note_off_c, 0, 58, 115
1, 11486, Note_on_c, 0, 60, 101
1, 11562, Note_off_c, 0, 60, 101
1, 11593, Note_on_c, 0, 58, 102
1, 11649, Note_off_c, 0, 58, 102
1, 11675, Note_on_c, 0, 55, 104
1, 11750, Note_off_c, 0, 55, 104
1, 11777, Note_on_c, 0, 54, 95
1, 11842, Note_off_c, 0, 54, 95
1, 11851, Note_on_c, 0, 53, 121
1, 11953, Note_off_c, 0, 53, 121
1, 12181, Note_on_c, 0, 53, 124
1, 12241, Note_off_c, 0, 53, 124
1, 12265, Note_on_c, 0, 53, 111
1, 12341, Note_off_c, 0, 53, 111
1, 12363, Note_on_c, 0, 57, 105
1, 12426, Note_off_c, 0, 57, 105
1, 12445, Note_on_c, 0, 60, 100
1, 12501, Note_off_c, 0, 60, 100
1, 12531, Note_on_c, 0, 53, 104
1, 12591, Note_off_c, 0, 53, 104
1, 12606, Note_on_c, 0, 57, 115
1, 12696, Note_off_c, 0, 57, 115
1, 12733, Note_on_c, 0, 60, 110
1, 12802, Note_off_c, 0, 60, 110
1, 12810, Note_on_c, 0, 63, 112
1, 12884, Note_off_c, 0, 63, 112
1, 12898, Note_on_c, 0, 60, 109
1, 12973, Note_off_c, 0, 60, 109
1, 13011, Note_on_c, 0, 63, 114
1, 13093, Note_off_c, 0, 63, 114
1, 13116, Note_on_c, 0, 60, 103
1, 13164, Note_off_c, 0, 60, 103
1, 13391, Note_on_c, 0, 61, 110
1, 13478, Note_off_c, 0, 61, 110
1, 13487, Note_on_c, 0, 62, 95
1, 13570, Note_off_c, 0, 62, 95
1, 13587, Note_on_c, 0, 61, 102
1, 13677, Note_off_c, 0, 61, 102
1, 13683, Note_on_c, 0, 62, 90
1, 13760, Note_off_c, 0, 62, 90
1, 13774, Note_on_c, 0, 58, 105
1, 13881, Note_off_c, 0, 58, 105
1, 13889, Note_on_c, 0, 60, 94
1, 14060, Note_off_c, 0, 60, 94
1, 14068, Note_on_c, 0, 53, 98
1, 14163, Note_off_c, 0, 53, 98
1, 14171, Note_on_c, 0, 56, 97
1, 14325, Note_off_c, 0, 56, 97
1, 14347, Note_on_c, 0, 49, 121
1, 14456, Note_off_c, 0, 49, 121
1, 14466, Note_on_c, 0, 58, 97
1, 14634, Note_off_c, 0, 58, 97
1, 14651, Note_on_c, 0, 56, 95
1, 14713, Note_off_c, 0, 56, 95
1, 14720, Note_on_c, 0, 53, 96
1, 14831, Note_off_c, 0, 53, 96
1, 14834, Note_on_c, 0, 54, 90
1, 14897, Note_off_c, 0, 54, 90
1, 14901, Note_on_c, 0, 55, 109
1, 15008, Note_off_c, 0, 55, 109
1, 15008, End_track
0, 0, End_of_file
