0, 0, Header, 1, 1, 192
1, 0, Start_track
1, 0, Title_t, "Melody"
1, 0, Tempo, 422535
1, 0, Key_signature, -1, "major"
1, 0, Time_signature, 4, 2, 24, 8
1, 2092, Note_on_c, 0, 77, 120
1, 2165, Note_off_c, 0, 77, 120
1, 2167, Note_on_c, 0, 78, 119
1, 2230, Note_off_c, 0, 78, 119
1, 2238, Note_on_c, 0, 79, 122
1, 2284, Note_off_c, 0, 79, 122
1, 2288, Note_on_c, 0, 82, 114
1, 2320, Note_off_c, 0, 82, 114
1, 2324, Note_on_c, 0, 79, 115
1, 2546, Note_off_c, 0, 79, 115
1, 2554, Note_on_c, 0, 77, 105
1, 2593, Note_off_c, 0, 77, 105
1, 2598, Note_on_c, 0, 75, 115
1, 2646, Note_off_c, 0, 75, 115
1, 2666, Note_on_c, 0, 72, 90
1, 2942, Note_off_c, 0, 72, 90
1, 2992, Note_on_c, 0, 85, 125
1, 3349, Note_off_c, 0, 85, 125
1, 3379, Note_on_c, 0, 82, 112
1, 3422, Note_off_c, 0, 82, 112
1, 3431, Note_on_c, 0, 84, 109
1, 3461, Note_off_c, 0, 84, 109
1, 3474, Note_on_c, 0, 82, 103
1, 3696, Note_off_c, 0, 82, 103
1, 3760, Note_on_c, 0, 78, 112
1, 3854, Note_off_c, 0, 78, 112
1, 3900, Note_on_c, 0, 79, 118
1, 3942, Note_off_c, 0, 79, 118
1, 3962, Note_on_c, 0, 75, 116
1, 4046, Note_off_c, 0, 75, 116
1, 4087, Note_on_c, 0, 72, 114
1, 4139, Note_off_c, 0, 72, 114
1, 4158, Note_on_c, 0, 75, 118
1, 4194, Note_off_c, 0, 75, 118
1, 4215, Note_on_c, 0, 72, 98
1, 4435, Note_off_c, 0, 72, 98
1, 4551, Note_on_c, 0, 73, 121
1, 4624, Note_off_c, 0, 73, 121
1, 4667, Note_on_c, 0, 74, 114
1, 4727, Note_off_c, 0, 74, 114
1, 4746, Note_on_c, 0, 77, 119
1, 4821, Note_off_c, 0, 77, 119
1, 4852, Note_on_c, 0, 74, 108
1, 4904, Note_off_c, 0, 74, 108
1, 4922, Note_on_c, 0, 79, 116
1, 5024, Note_off_c, 0, 79, 116
1, 5046, Note_on_c, 0, 77, 115
1, 5089, Note_off_c, 0, 77, 115
1, 5111, Note_on_c, 0, 80, 117
1, 5203, Note_off_c, 0, 80, 117
1, 5238, Note_on_c, 0, 70, 107
1, 5297, Note_off_c, 0, 70, 107
1, 5318, Note_on_c, 0, 79, 115
1, 5403, Note_off_c, 0, 79, 115
1, 5425, Note_on_c, 0, 82, 115
1, 5489, Note_off_c, 0, 82, 115
1, 5512, Note_on_c, 0, 84, 113
1, 5596, Note_off_c, 0, 84, 113
1, 5709, Note_on_c, 0, 84, 114
1, 5786, Note_off_c, 0, 84, 114
1, 5819, Note_on_c, 0, 72, 113
1, 5880, Note_off_c, 0, 72, 113
1, 5889, Note_on_c, 0, 75, 114
1, 5973, Note_off_c, 0, 75, 114
1, 5993, Note_on_c, 0, 72, 106
1, 6042, Note_off_c, 0, 72, 106
1, 6181, Note_on_c, 0, 75, 119
1, 6252, Note_off_c, 0, 75, 119
1, 6265, Note_on_c, 0, 77, 117
1, 6340, Note_off_c, 0, 77, 117
1, 6361, Note_on_c, 0, 78, 115
1, 6416, Note_off_c, 0, 78, 115
1, 6448, Note_on_c, 0, 79, 115
1, 6494, Note_off_c, 0, 79, 115
1, 6521, Note_on_c, 0, 84, 106
1, 6716, Note_off_c, 0, 84, 106
1, 6840, Note_on_c, 0, 77, 117
1, 6912, Note_off_c, 0, 77, 117
1, 6946, Note_on_c, 0, 79, 116
1, 7004, Note_off_c, 0, 79, 116
1, 7013, Note_on_c, 0, 75, 117
1, 7101, Note_off_c, 0, 75, 117
1, 7127, Note_on_c, 0, 77, 115
1, 7192, Note_off_c, 0, 77, 115
1, 7200, Note_on_c, 0, 72, 114
1, 7280, Note_off_c, 0, 72, 114
1, 7327, Note_on_c, 0, 75, 102
1, 7485, Note_off_c, 0, 75, 102
1, 7506, Note_on_c, 0, 70, 101
1, 7576, Note_off_c, 0, 70, 101
1, 7581, Note_on_c, 0, 73, 113
1, 7626, Note_off_c, 0, 73, 113
1, 7635, Note_on_c, 0, 74, 112
1, 7743, Note_off_c, 0, 74, 112
1, 7748, Note_on_c, 0, 73, 102
1, 7791, Note_off_c, 0, 73, 102
1, 7797, Note_on_c, 0, 70, 115
1, 7884, Note_off_c, 0, 70, 115
1, 7904, Note_on_c, 0, 82, 98
1, 8167, Note_off_c, 0, 82, 98
1, 8216, Note_on_c, 0, 84, 85
1, 8271, Note_off_c, 0, 84, 85
1, 8377, Note_on_c, 0, 78, 113
1, 8475, Note_off_c, 0, 78, 113
1, 8493, Note_on_c, 0, 79, 112
1, 8557, Note_off_c, 0, 79, 112
1, 8588, Note_on_c, 0, 84, 127
1, 8636, Note_off_c, 0, 84, 127
1, 8767, Note_on_c, 0, 85, 121
1, 8814, Note_off_c, 0, 85, 121
1, 8870, Note_on_c, 0, 84, 110
1, 8988, Note_off_c, 0, 84, 110
1, 9134, Note_on_c, 0, 77, 116
1, 9225, Note_off_c, 0, 77, 116
1, 9248, Note_on_c, 0, 79, 104
1, 9315, Note_off_c, 0, 79, 104
1, 9325, Note_on_c, 0, 80, 112
1, 9389, Note_off_c, 0, 80, 112
1, 9432, Note_on_c, 0, 74, 106
1, 9492, Note_off_c, 0, 74, 106
1, 9517, Note_on_c, 0, 77, 115
1, 9592, Note_off_c, 0, 77, 115
1, 9612, Note_on_c, 0, 70, 110
1, 9782, Note_off_c, 0, 70, 110
1, 9976, Note_on_c, 0, 74, 104
1, 10006, Note_off_c, 0, 74, 104
1, 10016, Note_on_c, 0, 78, 116
1, 10052, Note_off_c, 0, 78, 116
1, 10056, Note_on_c, 0, 79, 112
1, 10116, Note_off_c, 0, 79, 112
1, 10208, Note_on_c, 0, 77, 111
1, 10240, Note_off_c, 0, 77, 111
1, 10240, Note_on_c, 0, 79, 112
1, 10296, Note_off_c, 0, 79, 112
1, 10369, Note_on_c, 0, 75, 115
1, 10458, Note_off_c, 0, 75, 115
1, 10473, Note_on_c, 0, 77, 117
1, 10557, Note_off_c, 0, 77, 117
1, 10571, Note_on_c, 0, 75, 103
1, 10734, Note_off_c, 0, 75, 103
1, 10750, Note_on_c, 0, 77, 108
1, 10897, Note_off_c, 0, 77, 108
1, 10943, Note_on_c, 0, 75, 114
1, 11003, Note_off_c, 0, 75, 114
1, 11014, Note_on_c, 0, 77, 115
1, 11098, Note_off_c, 0, 77, 115
1, 11131, Note_on_c, 0, 75, 117
1, 11178, Note_off_c, 0, 75, 117
1, 11210, Note_on_c, 0, 72, 116
1, 11281, Note_off_c, 0, 72, 116
1, 11322, Note_on_c, 0, 67, 96
1, 11358, Note_off_c, 0, 67, 96
1, 11402, Note_on_c, 0, 75, 118
1, 11482, Note_off_c, 0, 75, 118
1, 11504, Note_on_c, 0, 77, 112
1, 11577, Note_off_c, 0, 77, 112
1, 11581, Note_on_c, 0, 78, 115
1, 11678, Note_off_c, 0, 78, 115
1, 11698, Note_on_c, 0, 79, 111
1, 11762, Note_off_c, 0, 79, 111
1, 11775, Note_on_c, 0, 84, 125
1, 11831, Note_off_c, 0, 84, 125
1, 11869, Note_on_c, 0, 82, 103
1, 12045, Note_off_c, 0, 82, 103
1, 12153, Note_on_c, 0, 70, 117
1, 12228, Note_off_c, 0, 70, 117
1, 12264, Note_on_c, 0, 72, 112
1, 12332, Note_off_c, 0, 72, 112
1, 12337, Note_on_c, 0, 73, 119
1, 12414, Note_off_c, 0, 73, 119
1, 12444, Note_on_c, 0, 74, 112
1, 12498, Note_off_c, 0, 74, 112
1, 12529, Note_on_c, 0, 77, 116
1, 12605, Note_off_c, 0, 77, 116
1, 12635, Note_on_c, 0, 80, 104
1, 12765, Note_off_c, 0, 80, 104
1, 12902, Note_on_c, 0, 78, 100
1, 12986, Note_off_c, 0, 78, 100
1, 13013, Note_on_c, 0, 85, 99
1, 13272, Note_off_c, 0, 85, 99
1, 13275, Note_on_c, 0, 84, 119
1, 13349, Note_off_c, 0, 84, 119
1, 13386, Note_on_c, 0, 77, 112
1, 13494, Note_off_c, 0, 77, 112
1, 13563, Note_on_c, 0, 79, 108
1, 13631, Note_off_c, 0, 79, 108
1, 13645, Note_on_c, 0, 75, 112
1, 13720, Note_off_c, 0, 75, 112
1, 13742, Note_on_c, 0, 73, 112
1, 13776, Note_off_c, 0, 73, 112
1, 13779, Note_on_c, 0, 72, 114
1, 13819, Note_off_c, 0, 72, 114
1, 13821, Note_on_c, 0, 70, 116
1, 13906, Note_off_c, 0, 70, 116
1, 13938, Note_on_c, 0, 65, 101
1, 14081, Note_off_c, 0, 65, 101
1, 14089, Note_on_c, 0, 66, 93
1, 14161, Note_off_c, 0, 66, 93
1, 14165, Note_on_c, 0, 65, 91
1, 14335, Note_off_c, 0, 65, 91
1, 14335, End_track
0, 0, End_of_file
