0, 0, Header, 1, 1, 192
1, 0, Start_track
1, 0, Title_t, "Melody"
1, 0, Tempo, 307692
1, 0, Key_signature, -1, "major"
1, 0, Time_signature, 4, 2, 24, 8
1, 2401, Note_on_c, 0, 70, 109
1, 2434, Note_off_c, 0, 70, 109
1, 2437, Note_on_c, 0, 72, 112
1, 2775, Note_off_c, 0, 72, 112
1, 2788, Note_on_c, 0, 70, 117
1, 2961, Note_off_c, 0, 70, 117
1, 2961, Note_on_c, 0, 72, 109
1, 3095, Note_off_c, 0, 72, 109
1, 3110, Note_on_c, 0, 68, 113
1, 3570, Note_off_c, 0, 68, 113
1, 3570, Note_on_c, 0, 66, 93
1, 3689, Note_off_c, 0, 66, 93
1, 3736, Note_on_c, 0, 68, 114
1, 3927, Note_off_c, 0, 68, 114
1, 3929, Note_on_c, 0, 64, 107
1, 4309, Note_off_c, 0, 64, 107
1, 4316, Note_on_c, 0, 62, 119
1, 4489, Note_off_c, 0, 62, 119
1, 4493, Note_on_c, 0, 64, 113
1, 4636, Note_off_c, 0, 64, 113
1, 4636, Note_on_c, 0, 60, 106
1, 4759, Note_off_c, 0, 60, 106
1, 5124, Note_on_c, 0, 69, 113
1, 5229, Note_off_c, 0, 69, 113
1, 5240, Note_on_c, 0, 67, 110
1, 5301, Note_off_c, 0, 67, 110
1, 5319, Note_on_c, 0, 63, 112
1, 5398, Note_off_c, 0, 63, 112
1, 5423, Note_on_c, 0, 60, 108
1, 5488, Note_on_c, 0, 58, 99
1, 5488, Note_off_c, 0, 60, 108
1, 5585, Note_off_c, 0, 58, 99
1, 5791, Note_on_c, 0, 65, 110
1, 5874, Note_off_c, 0, 65, 110
1, 5877, Note_on_c, 0, 63, 111
1, 6000, Note_off_c, 0, 63, 111
1, 6027, Note_on_c, 0, 59, 107
1, 6132, Note_off_c, 0, 59, 107
1, 6169, Note_on_c, 0, 61, 110
1, 6245, Note_off_c, 0, 61, 110
1, 6248, Note_on_c, 0, 58, 101
1, 6349, Note_off_c, 0, 58, 101
1, 6554, Note_on_c, 0, 70, 116
1, 6626, Note_off_c, 0, 70, 116
1, 6644, Note_on_c, 0, 69, 110
1, 6745, Note_off_c, 0, 69, 110
1, 6745, Note_on_c, 0, 68, 114
1, 6828, Note_off_c, 0, 68, 114
1, 6828, Note_on_c, 0, 67, 104
1, 6936, Note_off_c, 0, 67, 104
1, 6954, Note_on_c, 0, 71, 114
1, 7040, Note_off_c, 0, 71, 114
1, 7040, Note_on_c, 0, 69, 113
1, 7130, Note_off_c, 0, 69, 113
1, 7137, Note_on_c, 0, 65, 107
1, 7209, Note_off_c, 0, 65, 107
1, 7209, Note_on_c, 0, 62, 114
1, 7346, Note_off_c, 0, 62, 114
1, 7347, Note_on_c, 0, 59, 105
1, 7434, Note_off_c, 0, 59, 105
1, 7684, Note_on_c, 0, 69, 116
1, 8043, Note_off_c, 0, 69, 116
1, 8073, Note_on_c, 0, 64, 120
1, 8141, Note_off_c, 0, 64, 120
1, 8157, Note_on_c, 0, 60, 108
1, 8283, Note_off_c, 0, 60, 108
1, 8284, Note_on_c, 0, 58, 99
1, 8366, Note_off_c, 0, 58, 99
1, 8745, Note_on_c, 0, 69, 115
1, 8853, Note_on_c, 0, 72, 112
1, 8853, Note_off_c, 0, 69, 115
1, 8932, Note_off_c, 0, 72, 112
1, 8939, Note_on_c, 0, 68, 114
1, 9025, Note_off_c, 0, 68, 114
1, 9035, Note_on_c, 0, 66, 108
1, 9095, Note_off_c, 0, 66, 108
1, 9095, Note_on_c, 0, 63, 113
1, 9218, Note_off_c, 0, 63, 113
1, 9246, Note_on_c, 0, 59, 96
1, 9292, Note_off_c, 0, 59, 96
1, 9302, Note_on_c, 0, 65, 106
1, 9410, Note_off_c, 0, 65, 106
1, 9428, Note_on_c, 0, 61, 106
1, 9481, Note_off_c, 0, 61, 106
1, 9501, Note_on_c, 0, 65, 111
1, 9700, Note_off_c, 0, 65, 111
1, 9707, Note_on_c, 0, 62, 118
1, 9819, Note_off_c, 0, 62, 118
1, 9819, Note_on_c, 0, 62, 116
1, 9902, Note_on_c, 0, 59, 105
1, 9902, Note_off_c, 0, 62, 116
1, 10025, Note_off_c, 0, 59, 105
1, 10103, Note_on_c, 0, 64, 117
1, 10222, Note_off_c, 0, 64, 117
1, 10292, Note_on_c, 0, 61, 109
1, 10393, Note_off_c, 0, 61, 109
1, 10414, Note_on_c, 0, 64, 115
1, 10479, Note_off_c, 0, 64, 115
1, 10493, Note_on_c, 0, 60, 106
1, 10605, Note_off_c, 0, 60, 106
1, 10612, Note_on_c, 0, 59, 104
1, 10677, Note_off_c, 0, 59, 104
1, 10677, Note_on_c, 0, 58, 100
1, 10778, Note_off_c, 0, 58, 100
1, 10778, Note_on_c, 0, 60, 105
1, 10879, Note_off_c, 0, 60, 105
1, 10879, Note_on_c, 0, 57, 106
1, 10987, Note_off_c, 0, 57, 106
1, 10989, Note_on_c, 0, 53, 106
1, 11051, Note_off_c, 0, 53, 106
1, 11065, Note_on_c, 0, 55, 100
1, 11166, Note_off_c, 0, 55, 100
1, 11187, Note_on_c, 0, 51, 107
1, 11353, Note_off_c, 0, 51, 107
1, 11863, Note_on_c, 0, 65, 108
1, 11971, Note_off_c, 0, 65, 108
1, 11974, Note_on_c, 0, 70, 112
1, 12068, Note_off_c, 0, 70, 112
1, 12068, Note_on_c, 0, 63, 114
1, 12165, Note_off_c, 0, 63, 114
1, 12165, Note_on_c, 0, 66, 107
1, 12295, Note_off_c, 0, 66, 107
1, 12429, Note_on_c, 0, 68, 112
1, 12526, Note_off_c, 0, 68, 112
1, 12547, Note_on_c, 0, 65, 111
1, 12612, Note_off_c, 0, 65, 111
1, 12612, Note_on_c, 0, 61, 113
1, 12731, Note_off_c, 0, 61, 113
1, 12754, Note_on_c, 0, 56, 103
1, 12795, Note_off_c, 0, 56, 103
1, 12795, Note_on_c, 0, 62, 117
1, 12979, Note_off_c, 0, 62, 117
1, 12997, Note_on_c, 0, 59, 107
1, 13102, Note_off_c, 0, 59, 107
1, 13107, Note_on_c, 0, 56, 97
1, 13166, Note_off_c, 0, 56, 97
1, 13187, Note_on_c, 0, 57, 108
1, 13295, Note_off_c, 0, 57, 108
1, 13316, Note_on_c, 0, 59, 107
1, 13359, Note_off_c, 0, 59, 107
1, 13369, Note_on_c, 0, 61, 112
1, 13470, Note_on_c, 0, 62, 114
1, 13470, Note_off_c, 0, 61, 112
1, 13571, Note_off_c, 0, 62, 114
1, 13571, Note_on_c, 0, 58, 104
1, 13744, Note_off_c, 0, 58, 104
1, 13744, Note_on_c, 0, 60, 105
1, 13863, Note_off_c, 0, 60, 105
1, 13868, Note_on_c, 0, 57, 101
1, 14191, Note_off_c, 0, 57, 101
1, 14311, Note_on_c, 0, 55, 107
1, 14437, Note_off_c, 0, 55, 107
1, 14458, Note_on_c, 0, 53, 109
1, 14610, Note_off_c, 0, 53, 109
1, 15219, Note_on_c, 0, 60, 114
1, 15269, Note_off_c, 0, 60, 114
1, 15311, Note_on_c, 0, 63, 104
1, 15360, Note_off_c, 0, 63, 104
1, 15375, Note_on_c, 0, 66, 101
1, 15408, Note_off_c, 0, 66, 101
1, 15413, Note_on_c, 0, 69, 116
1, 15489, Note_off_c, 0, 69, 116
1, 15491, Note_on_c, 0, 64, 112
1, 15625, Note_off_c, 0, 64, 112
1, 15785, Note_on_c, 0, 69, 115
1, 15871, Note_off_c, 0, 69, 115
1, 15880, Note_on_c, 0, 71, 114
1, 15963, Note_off_c, 0, 71, 114
1, 15965, Note_on_c, 0, 73, 112
1, 15993, Note_off_c, 0, 73, 112
1, 15997, Note_on_c, 0, 74, 114
1, 16064, Note_off_c, 0, 74, 114
1, 16073, Note_on_c, 0, 73, 118
1, 16185, Note_off_c, 0, 73, 118
1, 16185, Note_on_c, 0, 71, 114
1, 16268, Note_off_c, 0, 71, 114
1, 16268, Note_on_c, 0, 69, 117
1, 16376, Note_off_c, 0, 69, 117
1, 16376, Note_on_c, 0, 67, 109
1, 16473, Note_off_c, 0, 67, 109
1, 16473, Note_on_c, 0, 66, 107
1, 16545, Note_off_c, 0, 66, 107
1, 16562, Note_on_c, 0, 69, 107
1, 16630, Note_off_c, 0, 69, 107
1, 16630, Note_on_c, 0, 63, 115
1, 16715, Note_off_c, 0, 63, 115
1, 16757, Note_on_c, 0, 65, 110
1, 16843, Note_off_c, 0, 65, 110
1, 16843, Note_on_c, 0, 69, 110
1, 16944, Note_off_c, 0, 69, 110
1, 16944, Note_on_c, 0, 74, 109
1, 16994, Note_off_c, 0, 74, 109
1, 17012, Note_on_c, 0, 70, 110
1, 17316, Note_off_c, 0, 70, 110
1, 17333, Note_on_c, 0, 72, 105
1, 17382, Note_off_c, 0, 72, 105
1, 17404, Note_on_c, 0, 70, 109
1, 17501, Note_off_c, 0, 70, 109
1, 17547, Note_on_c, 0, 70, 113
1, 17720, Note_off_c, 0, 70, 113
1, 18080, Note_on_c, 0, 71, 118
1, 18105, Note_off_c, 0, 71, 118
1, 18115, Note_on_c, 0, 72, 110
1, 18486, Note_off_c, 0, 72, 110
1, 18498, Note_on_c, 0, 70, 100
1, 18532, Note_off_c, 0, 70, 100
1, 18536, Note_on_c, 0, 72, 110
1, 18611, Note_off_c, 0, 72, 110
1, 18621, Note_on_c, 0, 75, 115
1, 18910, Note_off_c, 0, 75, 115
1, 18925, Note_on_c, 0, 72, 111
1, 19058, Note_off_c, 0, 72, 111
1, 19062, Note_on_c, 0, 71, 108
1, 19114, Note_off_c, 0, 71, 108
1, 19121, Note_on_c, 0, 72, 109
1, 19309, Note_off_c, 0, 72, 109
1, 19310, Note_on_c, 0, 68, 108
1, 19609, Note_off_c, 0, 68, 108
1, 19631, Note_on_c, 0, 65, 114
1, 19685, Note_off_c, 0, 65, 114
1, 19691, Note_on_c, 0, 60, 107
1, 19832, Note_off_c, 0, 60, 107
1, 19836, Note_on_c, 0, 58, 101
1, 19926, Note_off_c, 0, 58, 101
1, 20368, Note_on_c, 0, 71, 107
1, 20426, Note_off_c, 0, 71, 107
1, 20426, Note_on_c, 0, 75, 112
1, 20672, Note_off_c, 0, 75, 112
1, 20745, Note_on_c, 0, 73, 115
1, 20818, Note_off_c, 0, 73, 115
1, 20828, Note_on_c, 0, 72, 111
1, 20923, Note_off_c, 0, 72, 111
1, 20965, Note_on_c, 0, 69, 115
1, 21033, Note_on_c, 0, 70, 114
1, 21033, Note_off_c, 0, 69, 115
1, 21152, Note_off_c, 0, 70, 114
1, 21152, Note_on_c, 0, 68, 109
1, 21539, Note_off_c, 0, 68, 109
1, 21539, Note_on_c, 0, 66, 109
1, 21611, Note_off_c, 0, 66, 109
1, 21611, Note_on_c, 0, 65, 101
1, 21730, Note_off_c, 0, 65, 101
1, 21733, Note_on_c, 0, 63, 114
1, 21787, Note_off_c, 0, 63, 114
1, 21797, Note_on_c, 0, 61, 110
1, 21945, Note_off_c, 0, 61, 110
1, 21951, Note_on_c, 0, 57, 98
1, 21995, Note_off_c, 0, 57, 98
1, 21995, Note_on_c, 0, 62, 116
1, 22095, Note_off_c, 0, 62, 116
1, 22106, Note_on_c, 0, 62, 116
1, 22160, Note_off_c, 0, 62, 116
1, 22177, Note_on_c, 0, 59, 105
1, 22292, Note_off_c, 0, 59, 105
1, 22298, Note_on_c, 0, 54, 97
1, 22340, Note_off_c, 0, 54, 97
1, 22372, Note_on_c, 0, 64, 119
1, 22506, Note_off_c, 0, 64, 119
1, 22576, Note_on_c, 0, 69, 116
1, 22697, Note_off_c, 0, 69, 116
1, 22697, Note_on_c, 0, 73, 112
1, 22756, Note_off_c, 0, 73, 112
1, 22760, Note_on_c, 0, 69, 114
1, 22865, Note_off_c, 0, 69, 114
1, 22877, Note_on_c, 0, 70, 113
1, 23256, Note_off_c, 0, 70, 113
1, 23256, Note_on_c, 0, 72, 107
1, 23324, Note_off_c, 0, 72, 107
1, 23343, Note_on_c, 0, 69, 114
1, 23458, Note_off_c, 0, 69, 114
1, 23461, Note_on_c, 0, 67, 109
1, 23529, Note_off_c, 0, 67, 109
1, 23536, Note_on_c, 0, 65, 103
1, 23633, Note_on_c, 0, 64, 114
1, 23633, Note_off_c, 0, 65, 103
1, 23727, Note_off_c, 0, 64, 114
1, 23727, Note_on_c, 0, 63, 114
1, 23842, Note_off_c, 0, 63, 114
1, 23849, Note_on_c, 0, 65, 106
1, 23910, Note_off_c, 0, 65, 106
1, 23912, Note_on_c, 0, 61, 107
1, 23960, Note_off_c, 0, 61, 107
1, 23961, Note_on_c, 0, 62, 113
1, 24064, Note_off_c, 0, 62, 113
1, 24096, Note_on_c, 0, 58, 100
1, 24237, Note_off_c, 0, 58, 100
1, 24313, Note_on_c, 0, 56, 100
1, 24468, Note_off_c, 0, 56, 100
1, 24484, Note_on_c, 0, 54, 99
1, 24594, Note_off_c, 0, 54, 99
1, 24600, Note_on_c, 0, 53, 101
1, 24755, Note_off_c, 0, 53, 101
1, 25168, Note_on_c, 0, 62, 116
1, 25251, Note_off_c, 0, 62, 116
1, 25264, Note_on_c, 0, 59, 106
1, 25354, Note_off_c, 0, 59, 106
1, 25480, Note_on_c, 0, 61, 110
1, 25621, Note_off_c, 0, 61, 110
1, 25628, Note_on_c, 0, 64, 99
1, 25758, Note_off_c, 0, 64, 99
1, 25819, Note_on_c, 0, 60, 107
1, 25996, Note_off_c, 0, 60, 107
1, 26030, Note_on_c, 0, 58, 92
1, 26102, Note_off_c, 0, 58, 92
1, 26136, Note_on_c, 0, 60, 105
1, 26277, Note_off_c, 0, 60, 105
1, 26686, Note_on_c, 0, 68, 113
1, 26732, Note_off_c, 0, 68, 113
1, 26735, Note_on_c, 0, 69, 114
1, 26875, Note_off_c, 0, 69, 114
1, 26918, Note_on_c, 0, 60, 102
1, 26965, Note_off_c, 0, 60, 102
1, 26976, Note_on_c, 0, 65, 106
1, 27088, Note_off_c, 0, 65, 106
1, 27171, Note_on_c, 0, 69, 112
1, 27297, Note_off_c, 0, 69, 112
1, 27297, Note_on_c, 0, 68, 113
1, 27557, Note_off_c, 0, 68, 113
1, 27557, Note_on_c, 0, 66, 104
1, 27669, Note_off_c, 0, 66, 104
1, 27770, Note_on_c, 0, 65, 105
1, 27936, Note_off_c, 0, 65, 105
1, 27943, Note_on_c, 0, 68, 103
1, 28062, Note_off_c, 0, 68, 103
1, 28148, Note_on_c, 0, 64, 110
1, 28314, Note_off_c, 0, 64, 110
1, 28314, Note_on_c, 0, 62, 115
1, 28455, Note_off_c, 0, 62, 115
1, 28546, Note_on_c, 0, 61, 110
1, 28694, Note_off_c, 0, 61, 110
1, 28704, Note_on_c, 0, 64, 114
1, 28830, Note_off_c, 0, 64, 114
1, 28906, Note_on_c, 0, 60, 104
1, 29101, Note_off_c, 0, 60, 104
1, 29101, Note_on_c, 0, 69, 108
1, 29238, Note_off_c, 0, 69, 108
1, 29241, Note_on_c, 0, 65, 103
1, 29360, Note_off_c, 0, 65, 103
1, 29906, Note_on_c, 0, 67, 105
1, 30018, Note_off_c, 0, 67, 105
1, 30036, Note_on_c, 0, 63, 103
1, 30074, Note_off_c, 0, 63, 103
1, 30086, Note_on_c, 0, 65, 106
1, 30209, Note_off_c, 0, 65, 106
1, 30429, Note_on_c, 0, 65, 116
1, 30494, Note_off_c, 0, 65, 116
1, 30494, Note_on_c, 0, 63, 109
1, 30638, Note_off_c, 0, 63, 109
1, 30692, Note_on_c, 0, 59, 105
1, 30789, Note_off_c, 0, 59, 105
1, 30814, Note_on_c, 0, 61, 110
1, 30886, Note_off_c, 0, 61, 110
1, 30893, Note_on_c, 0, 58, 102
1, 30992, Note_off_c, 0, 58, 102
1, 30992, Note_on_c, 0, 54, 102
1, 31061, Note_off_c, 0, 54, 102
1, 31195, Note_on_c, 0, 54, 98
1, 31450, Note_off_c, 0, 54, 98
1, 31633, Note_on_c, 0, 55, 103
1, 31763, Note_off_c, 0, 55, 103
1, 31763, Note_on_c, 0, 53, 102
1, 31871, Note_off_c, 0, 53, 102
1, 32530, Note_on_c, 0, 55, 111
1, 32602, Note_off_c, 0, 55, 111
1, 32607, Note_on_c, 0, 52, 113
1, 32697, Note_off_c, 0, 52, 113
1, 32710, Note_on_c, 0, 45, 115
1, 32771, Note_off_c, 0, 45, 115
1, 33463, Note_on_c, 0, 60, 115
1, 33546, Note_off_c, 0, 60, 115
1, 33546, Note_on_c, 0, 58, 109
1, 33647, Note_off_c, 0, 58, 109
1, 33647, Note_on_c, 0, 54, 109
1, 33741, Note_off_c, 0, 54, 109
1, 33846, Note_on_c, 0, 56, 105
1, 33922, Note_off_c, 0, 56, 105
1, 33929, Note_on_c, 0, 53, 107
1, 34026, Note_off_c, 0, 53, 107
1, 34337, Note_on_c, 0, 61, 109
1, 34427, Note_off_c, 0, 61, 109
1, 34427, Note_on_c, 0, 62, 110
1, 34517, Note_off_c, 0, 62, 110
1, 34517, Note_on_c, 0, 59, 107
1, 34636, Note_off_c, 0, 59, 107
1, 34679, Note_on_c, 0, 57, 105
1, 34798, Note_off_c, 0, 57, 105
1, 34910, Note_on_c, 0, 61, 113
1, 35000, Note_off_c, 0, 61, 113
1, 35025, Note_on_c, 0, 64, 113
1, 35093, Note_off_c, 0, 64, 113
1, 35093, Note_on_c, 0, 64, 112
1, 35107, Note_off_c, 0, 64, 112
1, 35107, Note_on_c, 0, 68, 105
1, 35186, Note_off_c, 0, 68, 105
1, 35201, Note_on_c, 0, 66, 106
1, 35240, Note_off_c, 0, 66, 106
1, 35263, Note_on_c, 0, 68, 107
1, 35285, Note_off_c, 0, 68, 107
1, 35285, Note_on_c, 0, 62, 109
1, 35338, Note_off_c, 0, 62, 109
1, 35386, Note_on_c, 0, 67, 106
1, 35458, Note_off_c, 0, 67, 106
1, 35471, Note_on_c, 0, 64, 111
1, 35572, Note_off_c, 0, 64, 111
1, 35572, Note_on_c, 0, 65, 100
1, 35658, Note_off_c, 0, 65, 100
1, 35668, Note_on_c, 0, 67, 103
1, 35736, Note_off_c, 0, 67, 103
1, 35768, Note_on_c, 0, 69, 112
1, 35862, Note_off_c, 0, 69, 112
1, 35865, Note_on_c, 0, 65, 105
1, 35926, Note_off_c, 0, 65, 105
1, 35932, Note_on_c, 0, 64, 111
1, 36014, Note_off_c, 0, 64, 111
1, 36048, Note_on_c, 0, 63, 112
1, 36149, Note_off_c, 0, 63, 112
1, 36149, Note_on_c, 0, 65, 109
1, 36235, Note_off_c, 0, 65, 109
1, 36235, Note_on_c, 0, 62, 113
1, 36336, Note_off_c, 0, 62, 113
1, 36336, Note_on_c, 0, 60, 108
1, 36412, Note_off_c, 0, 60, 108
1, 36419, Note_on_c, 0, 58, 102
1, 36538, Note_off_c, 0, 58, 102
1, 36650, Note_on_c, 0, 56, 104
1, 36776, Note_off_c, 0, 56, 104
1, 36786, Note_on_c, 0, 54, 101
1, 36919, Note_off_c, 0, 54, 101
1, 36919, Note_on_c, 0, 53, 102
1, 37114, Note_off_c, 0, 53, 102
1, 37150, Note_on_c, 0, 61, 9
1, 37305, Note_off_c, 0, 61, 9
1, 37330, Note_on_c, 0, 56, 105
1, 37485, Note_off_c, 0, 56, 105
1, 37535, Note_on_c, 0, 61, 111
1, 37737, Note_off_c, 0, 61, 111
1, 37769, Note_on_c, 0, 57, 109
1, 37881, Note_off_c, 0, 57, 109
1, 38098, Note_on_c, 0, 57, 109
1, 38181, Note_off_c, 0, 57, 109
1, 38202, Note_on_c, 0, 55, 104
1, 38336, Note_off_c, 0, 55, 104
1, 38364, Note_on_c, 0, 60, 100
1, 38454, Note_off_c, 0, 60, 100
1, 38462, Note_on_c, 0, 57, 104
1, 38804, Note_off_c, 0, 57, 104
1, 38913, Note_on_c, 0, 55, 106
1, 39003, Note_off_c, 0, 55, 106
1, 39020, Note_on_c, 0, 53, 113
1, 39112, Note_off_c, 0, 53, 113
1, 39610, Note_on_c, 0, 70, 113
1, 39653, Note_off_c, 0, 70, 113
1, 39654, Note_on_c, 0, 72, 110
1, 39685, Note_off_c, 0, 72, 110
1, 39717, Note_on_c, 0, 74, 109
1, 39820, Note_off_c, 0, 74, 109
1, 39837, Note_on_c, 0, 73, 113
1, 39864, Note_off_c, 0, 73, 113
1, 39874, Note_on_c, 0, 70, 113
1, 39917, Note_off_c, 0, 70, 113
1, 39923, Note_on_c, 0, 67, 111
1, 39969, Note_off_c, 0, 67, 111
1, 39984, Note_on_c, 0, 63, 112
1, 40120, Note_off_c, 0, 63, 112
1, 40206, Note_on_c, 0, 64, 108
1, 40311, Note_off_c, 0, 64, 108
1, 40316, Note_on_c, 0, 66, 92
1, 40340, Note_off_c, 0, 66, 92
1, 40354, Note_on_c, 0, 69, 96
1, 40387, Note_off_c, 0, 69, 96
1, 40439, Note_on_c, 0, 73, 115
1, 40512, Note_off_c, 0, 73, 115
1, 40520, Note_on_c, 0, 74, 113
1, 40605, Note_off_c, 0, 74, 113
1, 40608, Note_on_c, 0, 73, 115
1, 40730, Note_off_c, 0, 73, 115
1, 40738, Note_on_c, 0, 71, 112
1, 40814, Note_off_c, 0, 71, 112
1, 40838, Note_on_c, 0, 69, 110
1, 40910, Note_off_c, 0, 69, 110
1, 40935, Note_on_c, 0, 67, 108
1, 41014, Note_off_c, 0, 67, 108
1, 41014, Note_on_c, 0, 66, 104
1, 41104, Note_off_c, 0, 66, 104
1, 41107, Note_on_c, 0, 69, 106
1, 41175, Note_off_c, 0, 69, 106
1, 41180, Note_on_c, 0, 63, 113
1, 41296, Note_off_c, 0, 63, 113
1, 41307, Note_on_c, 0, 65, 107
1, 41379, Note_off_c, 0, 65, 107
1, 41393, Note_on_c, 0, 69, 105
1, 41483, Note_off_c, 0, 69, 105
1, 41483, Note_on_c, 0, 72, 110
1, 41562, Note_off_c, 0, 72, 110
1, 41562, Note_on_c, 0, 70, 112
1, 41888, Note_on_c, 0, 65, 110
1, 41888, Note_off_c, 0, 70, 112
1, 42032, Note_off_c, 0, 65, 110
1, 42032, Note_on_c, 0, 62, 120
1, 42174, Note_off_c, 0, 62, 120
1, 42614, Note_on_c, 0, 70, 108
1, 42914, Note_off_c, 0, 70, 108
1, 43054, Note_on_c, 0, 68, 115
1, 43130, Note_off_c, 0, 68, 115
1, 43130, Note_on_c, 0, 66, 108
1, 43213, Note_on_c, 0, 63, 117
1, 43213, Note_off_c, 0, 66, 108
1, 43283, Note_off_c, 0, 63, 117
1, 43288, Note_on_c, 0, 61, 115
1, 43385, Note_off_c, 0, 61, 115
1, 43402, Note_on_c, 0, 58, 98
1, 43449, Note_off_c, 0, 58, 98
1, 43488, Note_on_c, 0, 65, 107
1, 43588, Note_off_c, 0, 65, 107
1, 43588, Note_on_c, 0, 61, 110
1, 43660, Note_off_c, 0, 61, 110
1, 43660, Note_on_c, 0, 58, 102
1, 43758, Note_off_c, 0, 58, 102
1, 43775, Note_on_c, 0, 54, 106
1, 43861, Note_off_c, 0, 54, 106
1, 43865, Note_on_c, 0, 53, 106
1, 43976, Note_off_c, 0, 53, 106
1, 43981, Note_on_c, 0, 51, 112
1, 44042, Note_off_c, 0, 51, 112
1, 44248, Note_on_c, 0, 56, 108
1, 44360, Note_off_c, 0, 56, 108
1, 44370, Note_on_c, 0, 53, 110
1, 44431, Note_off_c, 0, 53, 110
1, 44449, Note_on_c, 0, 51, 110
1, 44550, Note_off_c, 0, 51, 110
1, 44604, Note_on_c, 0, 52, 109
1, 44654, Note_off_c, 0, 52, 109
1, 44657, Note_on_c, 0, 53, 107
1, 44813, Note_off_c, 0, 53, 107
1, 44819, Note_on_c, 0, 56, 102
1, 44938, Note_off_c, 0, 56, 102
1, 44959, Note_on_c, 0, 52, 106
1, 45122, Note_off_c, 0, 52, 106
1, 45132, Note_on_c, 0, 60, 110
1, 45323, Note_off_c, 0, 60, 110
1, 45826, Note_on_c, 0, 69, 115
1, 45941, Note_on_c, 0, 68, 113
1, 45941, Note_off_c, 0, 69, 115
1, 46209, Note_off_c, 0, 68, 113
1, 46209, Note_on_c, 0, 65, 110
1, 46553, Note_off_c, 0, 65, 110
1, 46571, Note_on_c, 0, 64, 117
1, 46690, Note_off_c, 0, 64, 117
1, 46769, Note_on_c, 0, 64, 112
1, 46939, Note_off_c, 0, 64, 112
1, 46971, Note_on_c, 0, 61, 110
1, 47144, Note_off_c, 0, 61, 110
1, 47150, Note_on_c, 0, 64, 111
1, 47254, Note_off_c, 0, 64, 111
1, 47350, Note_on_c, 0, 60, 108
1, 47520, Note_off_c, 0, 60, 108
1, 47531, Note_on_c, 0, 69, 109
1, 47654, Note_off_c, 0, 69, 109
1, 47674, Note_on_c, 0, 65, 110
1, 47911, Note_off_c, 0, 65, 110
1, 47911, Note_on_c, 0, 67, 110
1, 48030, Note_off_c, 0, 67, 110
1, 48054, Note_on_c, 0, 63, 117
1, 48287, Note_off_c, 0, 63, 117
1, 48898, Note_on_c, 0, 68, 112
1, 49021, Note_off_c, 0, 68, 112
1, 49031, Note_on_c, 0, 66, 109
1, 49088, Note_off_c, 0, 66, 109
1, 49088, Note_on_c, 0, 63, 117
1, 49211, Note_off_c, 0, 63, 117
1, 49211, Note_on_c, 0, 68, 110
1, 49297, Note_off_c, 0, 68, 110
1, 49297, Note_on_c, 0, 65, 115
1, 49463, Note_off_c, 0, 65, 115
1, 49463, Note_on_c, 0, 61, 113
1, 49593, Note_off_c, 0, 61, 113
1, 49608, Note_on_c, 0, 56, 102
1, 49651, Note_off_c, 0, 56, 102
1, 49669, Note_on_c, 0, 62, 120
1, 49813, Note_off_c, 0, 62, 120
1, 49822, Note_on_c, 0, 59, 102
1, 49977, Note_off_c, 0, 59, 102
1, 50060, Note_on_c, 0, 64, 116
1, 50179, Note_off_c, 0, 64, 116
1, 50269, Note_on_c, 0, 61, 115
1, 50355, Note_off_c, 0, 61, 115
1, 50358, Note_on_c, 0, 64, 114
1, 50423, Note_off_c, 0, 64, 114
1, 50448, Note_on_c, 0, 60, 109
1, 50611, Note_off_c, 0, 60, 109
1, 50633, Note_on_c, 0, 69, 117
1, 50764, Note_off_c, 0, 69, 117
1, 50764, Note_on_c, 0, 65, 104
1, 50869, Note_off_c, 0, 65, 104
1, 51306, Note_on_c, 0, 69, 108
1, 51432, Note_off_c, 0, 69, 108
1, 51580, Note_on_c, 0, 72, 115
1, 51696, Note_off_c, 0, 72, 115
1, 51710, Note_on_c, 0, 72, 101
1, 51769, Note_off_c, 0, 72, 101
1, 51787, Note_on_c, 0, 69, 110
1, 51881, Note_off_c, 0, 69, 110
1, 51899, Note_on_c, 0, 72, 109
1, 51989, Note_off_c, 0, 72, 109
1, 51989, Note_on_c, 0, 68, 111
1, 52075, Note_off_c, 0, 68, 111
1, 52084, Note_on_c, 0, 67, 107
1, 52139, Note_off_c, 0, 67, 107
1, 52154, Note_on_c, 0, 66, 106
1, 52268, Note_off_c, 0, 66, 106
1, 52287, Note_on_c, 0, 68, 111
1, 52366, Note_off_c, 0, 68, 111
1, 52366, Note_on_c, 0, 65, 108
1, 52496, Note_off_c, 0, 65, 108
1, 52564, Note_on_c, 0, 68, 109
1, 52658, Note_off_c, 0, 68, 109
1, 52679, Note_on_c, 0, 70, 107
1, 52762, Note_on_c, 0, 68, 109
1, 52762, Note_off_c, 0, 70, 107
1, 52906, Note_off_c, 0, 68, 109
1, 52953, Note_on_c, 0, 66, 104
1, 53061, Note_off_c, 0, 66, 104
1, 53061, Note_on_c, 0, 68, 114
1, 53140, Note_off_c, 0, 68, 114
1, 53140, Note_on_c, 0, 64, 113
1, 53209, Note_off_c, 0, 64, 113
1, 53225, Note_on_c, 0, 62, 115
1, 53286, Note_off_c, 0, 62, 115
1, 53286, Note_on_c, 0, 61, 108
1, 53429, Note_off_c, 0, 61, 108
1, 53429, Note_on_c, 0, 64, 111
1, 53494, Note_off_c, 0, 64, 111
1, 53502, Note_on_c, 0, 60, 105
1, 53617, Note_off_c, 0, 60, 105
1, 53617, Note_on_c, 0, 62, 113
1, 53677, Note_off_c, 0, 62, 113
1, 53677, Note_on_c, 0, 64, 109
1, 53785, Note_off_c, 0, 64, 109
1, 53797, Note_on_c, 0, 67, 109
1, 53873, Note_off_c, 0, 67, 109
1, 53886, Note_on_c, 0, 64, 113
1, 54049, Note_off_c, 0, 64, 113
1, 54049, Note_on_c, 0, 65, 110
1, 54211, Note_on_c, 0, 63, 115
1, 54211, Note_off_c, 0, 65, 110
1, 54388, Note_off_c, 0, 63, 115
1, 54388, Note_on_c, 0, 65, 107
1, 54558, Note_off_c, 0, 65, 107
1, 54560, Note_on_c, 0, 61, 121
1, 54598, Note_off_c, 0, 61, 121
1, 54600, Note_on_c, 0, 62, 120
1, 54811, Note_off_c, 0, 62, 120
1, 54826, Note_on_c, 0, 58, 106
1, 54949, Note_off_c, 0, 58, 106
1, 55043, Note_on_c, 0, 56, 108
1, 55122, Note_off_c, 0, 56, 108
1, 55147, Note_on_c, 0, 63, 110
1, 55219, Note_off_c, 0, 63, 110
1, 55233, Note_on_c, 0, 59, 102
1, 55338, Note_off_c, 0, 59, 102
1, 55341, Note_on_c, 0, 61, 118
1, 55569, Note_off_c, 0, 61, 118
1, 55587, Note_on_c, 0, 58, 99
1, 55699, Note_off_c, 0, 58, 99
1, 55705, Note_on_c, 0, 54, 101
1, 55791, Note_off_c, 0, 54, 101
1, 56240, Note_on_c, 0, 55, 104
1, 56279, Note_off_c, 0, 55, 104
1, 56282, Note_on_c, 0, 57, 108
1, 56350, Note_off_c, 0, 57, 108
1, 56350, Note_on_c, 0, 59, 105
1, 56397, Note_on_c, 0, 60, 108
1, 56397, Note_off_c, 0, 59, 105
1, 56454, Note_off_c, 0, 60, 108
1, 56454, Note_on_c, 0, 62, 115
1, 56498, Note_off_c, 0, 62, 115
1, 56498, Note_on_c, 0, 64, 111
1, 56538, Note_off_c, 0, 64, 111
1, 56539, Note_on_c, 0, 65, 107
1, 56574, Note_off_c, 0, 65, 107
1, 56574, Note_on_c, 0, 67, 109
1, 56613, Note_off_c, 0, 67, 109
1, 56613, Note_on_c, 0, 69, 110
1, 56667, Note_off_c, 0, 69, 110
1, 56667, Note_on_c, 0, 67, 107
1, 56712, Note_off_c, 0, 67, 107
1, 56712, Note_on_c, 0, 65, 111
1, 56748, Note_off_c, 0, 65, 111
1, 56748, Note_on_c, 0, 64, 114
1, 56782, Note_off_c, 0, 64, 114
1, 56787, Note_on_c, 0, 62, 114
1, 56844, Note_off_c, 0, 62, 114
1, 56845, Note_on_c, 0, 60, 110
1, 56881, Note_off_c, 0, 60, 110
1, 56887, Note_on_c, 0, 58, 96
1, 56984, Note_off_c, 0, 58, 96
1, 57205, Note_on_c, 0, 69, 112
1, 57493, Note_off_c, 0, 69, 112
1, 57653, Note_on_c, 0, 69, 116
1, 57761, Note_off_c, 0, 69, 116
1, 57764, Note_on_c, 0, 72, 110
1, 57840, Note_off_c, 0, 72, 110
1, 57851, Note_on_c, 0, 70, 112
1, 57963, Note_off_c, 0, 70, 112
1, 57963, Note_on_c, 0, 66, 107
1, 58104, Note_off_c, 0, 66, 107
1, 58316, Note_on_c, 0, 70, 114
1, 58424, Note_off_c, 0, 70, 114
1, 58439, Note_on_c, 0, 68, 113
1, 58529, Note_off_c, 0, 68, 113
1, 58529, Note_on_c, 0, 73, 115
1, 58641, Note_off_c, 0, 73, 115
1, 58789, Note_on_c, 0, 71, 109
1, 58919, Note_on_c, 0, 64, 122
1, 58919, Note_off_c, 0, 71, 109
1, 58987, Note_off_c, 0, 64, 122
1, 59356, Note_on_c, 0, 69, 112
1, 59482, Note_off_c, 0, 69, 112
1, 59482, Note_on_c, 0, 73, 112
1, 59561, Note_off_c, 0, 73, 112
1, 59561, Note_on_c, 0, 70, 111
1, 59666, Note_off_c, 0, 70, 111
1, 59692, Note_on_c, 0, 64, 108
1, 59805, Note_off_c, 0, 64, 108
1, 59852, Note_on_c, 0, 72, 109
1, 59928, Note_off_c, 0, 72, 109
1, 59943, Note_on_c, 0, 69, 114
1, 60127, Note_off_c, 0, 69, 114
1, 60137, Note_on_c, 0, 65, 106
1, 60220, Note_off_c, 0, 65, 106
1, 60223, Note_on_c, 0, 63, 119
1, 60335, Note_off_c, 0, 63, 119
1, 60425, Note_on_c, 0, 67, 105
1, 60508, Note_off_c, 0, 67, 105
1, 60508, Note_on_c, 0, 65, 102
1, 60591, Note_off_c, 0, 65, 102
1, 60591, Note_on_c, 0, 64, 107
1, 60685, Note_off_c, 0, 64, 107
1, 60685, Note_on_c, 0, 63, 114
1, 60811, Note_off_c, 0, 63, 114
1, 60811, Note_on_c, 0, 65, 110
1, 60887, Note_off_c, 0, 65, 110
1, 60890, Note_on_c, 0, 62, 116
1, 60978, Note_off_c, 0, 62, 116
1, 60998, Note_on_c, 0, 65, 111
1, 61092, Note_off_c, 0, 65, 111
1, 61092, Note_on_c, 0, 63, 115
1, 61182, Note_off_c, 0, 63, 115
1, 61182, Note_on_c, 0, 61, 118
1, 61250, Note_off_c, 0, 61, 118
1, 61260, Note_on_c, 0, 58, 107
1, 61365, Note_off_c, 0, 58, 107
1, 61390, Note_on_c, 0, 54, 105
1, 61458, Note_off_c, 0, 54, 105
1, 61458, Note_on_c, 0, 53, 102
1, 61581, Note_off_c, 0, 53, 102
1, 61581, Note_on_c, 0, 53, 110
1, 61602, Note_off_c, 0, 53, 110
1, 61859, Note_on_c, 0, 62, 123
1, 62043, Note_off_c, 0, 62, 123
1, 62043, Note_on_c, 0, 59, 107
1, 62158, Note_off_c, 0, 59, 107
1, 62255, Note_on_c, 0, 57, 111
1, 62367, Note_off_c, 0, 57, 111
1, 62562, Note_on_c, 0, 57, 108
1, 62612, Note_off_c, 0, 57, 108
1, 62618, Note_on_c, 0, 60, 105
1, 62795, Note_off_c, 0, 60, 105
1, 62795, Note_on_c, 0, 58, 99
1, 62921, Note_off_c, 0, 58, 99
1, 62921, Note_on_c, 0, 57, 101
1, 63084, Note_off_c, 0, 57, 101
1, 63138, Note_on_c, 0, 65, 105
1, 63322, Note_off_c, 0, 65, 105
1, 63889, Note_on_c, 0, 70, 119
1, 64001, Note_off_c, 0, 70, 119
1, 64001, Note_on_c, 0, 69, 113
1, 64069, Note_off_c, 0, 69, 113
1, 64101, Note_on_c, 0, 67, 111
1, 64173, Note_off_c, 0, 67, 111
1, 64176, Note_on_c, 0, 65, 108
1, 64317, Note_off_c, 0, 65, 108
1, 64441, Note_on_c, 0, 66, 109
1, 64524, Note_off_c, 0, 66, 109
1, 64538, Note_on_c, 0, 64, 117
1, 64653, Note_off_c, 0, 64, 117
1, 64654, Note_on_c, 0, 62, 119
1, 64730, Note_off_c, 0, 62, 119
1, 64730, Note_on_c, 0, 61, 111
1, 64824, Note_off_c, 0, 61, 111
1, 64824, Note_on_c, 0, 60, 111
1, 64914, Note_off_c, 0, 60, 111
1, 64932, Note_on_c, 0, 59, 103
1, 65015, Note_off_c, 0, 59, 103
1, 65033, Note_on_c, 0, 58, 109
1, 65105, Note_off_c, 0, 58, 109
1, 65119, Note_on_c, 0, 57, 108
1, 65216, Note_off_c, 0, 57, 108
1, 65219, Note_on_c, 0, 56, 105
1, 65305, Note_off_c, 0, 56, 105
1, 65305, Note_on_c, 0, 55, 98
1, 65395, Note_off_c, 0, 55, 98
1, 65420, Note_on_c, 0, 59, 105
1, 65488, Note_on_c, 0, 57, 103
1, 65488, Note_off_c, 0, 59, 105
1, 65610, Note_off_c, 0, 57, 103
1, 65610, Note_on_c, 0, 55, 102
1, 65682, Note_off_c, 0, 55, 102
1, 65682, Note_on_c, 0, 54, 100
1, 65794, Note_off_c, 0, 54, 100
1, 65795, Note_on_c, 0, 57, 104
1, 65845, Note_off_c, 0, 57, 104
1, 65880, Note_on_c, 0, 53, 108
1, 65976, Note_off_c, 0, 53, 108
1, 65976, Note_on_c, 0, 51, 112
1, 66047, Note_off_c, 0, 51, 112
1, 66052, Note_on_c, 0, 50, 102
1, 66153, Note_off_c, 0, 50, 102
1, 66242, Note_on_c, 0, 57, 111
1, 66361, Note_off_c, 0, 57, 111
1, 66373, Note_on_c, 0, 58, 99
1, 66613, Note_off_c, 0, 58, 99
1, 66937, Note_on_c, 0, 62, 117
1, 67002, Note_off_c, 0, 62, 117
1, 67005, Note_on_c, 0, 65, 108
1, 67041, Note_off_c, 0, 65, 108
1, 67050, Note_on_c, 0, 63, 117
1, 67140, Note_off_c, 0, 63, 117
1, 67143, Note_on_c, 0, 65, 111
1, 67229, Note_off_c, 0, 65, 111
1, 67229, Note_on_c, 0, 66, 107
1, 67319, Note_off_c, 0, 66, 107
1, 67322, Note_on_c, 0, 68, 112
1, 67412, Note_off_c, 0, 68, 112
1, 67412, Note_on_c, 0, 70, 116
1, 67506, Note_off_c, 0, 70, 116
1, 67506, Note_on_c, 0, 73, 119
1, 67592, Note_off_c, 0, 73, 119
1, 67592, Note_on_c, 0, 72, 115
1, 67693, Note_off_c, 0, 72, 115
1, 67693, Note_on_c, 0, 73, 116
1, 67979, Note_off_c, 0, 73, 116
1, 67979, Note_on_c, 0, 70, 112
1, 68073, Note_off_c, 0, 70, 112
1, 68073, Note_on_c, 0, 72, 108
1, 68333, Note_off_c, 0, 72, 108
1, 68333, Note_on_c, 0, 68, 113
1, 68439, Note_off_c, 0, 68, 113
1, 68439, Note_on_c, 0, 63, 110
1, 68593, Note_off_c, 0, 63, 110
1, 69181, Note_on_c, 0, 72, 108
1, 69235, Note_off_c, 0, 72, 108
1, 69236, Note_on_c, 0, 75, 118
1, 69721, Note_off_c, 0, 75, 118
1, 69728, Note_on_c, 0, 75, 101
1, 69748, Note_off_c, 0, 75, 101
1, 69754, Note_on_c, 0, 73, 111
1, 69810, Note_off_c, 0, 73, 111
1, 69822, Note_on_c, 0, 72, 107
1, 70205, Note_off_c, 0, 72, 107
1, 70205, Note_on_c, 0, 75, 119
1, 70505, Note_off_c, 0, 75, 119
1, 70505, Note_on_c, 0, 72, 114
1, 70793, Note_off_c, 0, 72, 114
1, 70793, Note_on_c, 0, 68, 112
1, 70866, Note_off_c, 0, 68, 112
1, 70872, Note_on_c, 0, 73, 114
1, 70962, Note_off_c, 0, 73, 114
1, 70984, Note_on_c, 0, 71, 109
1, 71099, Note_off_c, 0, 71, 109
1, 71099, Note_on_c, 0, 68, 110
1, 71243, Note_off_c, 0, 68, 110
1, 71275, Note_on_c, 0, 71, 109
1, 71357, Note_off_c, 0, 71, 109
1, 71357, Note_on_c, 0, 68, 117
1, 71458, Note_off_c, 0, 68, 117
1, 71458, Note_on_c, 0, 64, 119
1, 71511, Note_off_c, 0, 64, 119
1, 71522, Note_on_c, 0, 61, 112
1, 71655, Note_off_c, 0, 61, 112
1, 71658, Note_on_c, 0, 66, 90
1, 71707, Note_off_c, 0, 66, 90
1, 71737, Note_on_c, 0, 67, 104
1, 71878, Note_off_c, 0, 67, 104
1, 71916, Note_on_c, 0, 67, 101
1, 71989, Note_off_c, 0, 67, 101
1, 72028, Note_on_c, 0, 70, 113
1, 72061, Note_off_c, 0, 70, 113
1, 72061, Note_on_c, 0, 74, 113
1, 72119, Note_off_c, 0, 74, 113
1, 72120, Note_on_c, 0, 73, 114
1, 72140, Note_off_c, 0, 73, 114
1, 72149, Note_on_c, 0, 72, 110
1, 72297, Note_off_c, 0, 72, 110
1, 72311, Note_on_c, 0, 69, 111
1, 72425, Note_on_c, 0, 63, 114
1, 72425, Note_off_c, 0, 69, 111
1, 72568, Note_off_c, 0, 63, 114
1, 72986, Note_on_c, 0, 70, 109
1, 73123, Note_off_c, 0, 70, 109
1, 73278, Note_on_c, 0, 70, 115
1, 73397, Note_off_c, 0, 70, 115
1, 73397, Note_on_c, 0, 66, 106
1, 73462, Note_off_c, 0, 66, 106
1, 73463, Note_on_c, 0, 63, 119
1, 73580, Note_off_c, 0, 63, 119
1, 73597, Note_on_c, 0, 59, 94
1, 73642, Note_off_c, 0, 59, 94
1, 73648, Note_on_c, 0, 65, 102
1, 73763, Note_off_c, 0, 65, 102
1, 73771, Note_on_c, 0, 68, 106
1, 73828, Note_off_c, 0, 68, 106
1, 73845, Note_on_c, 0, 73, 118
1, 73954, Note_off_c, 0, 73, 118
1, 73954, Note_on_c, 0, 71, 111
1, 74355, Note_off_c, 0, 71, 111
1, 74421, Note_on_c, 0, 69, 9
1, 74502, Note_off_c, 0, 69, 9
1, 74502, Note_on_c, 0, 68, 113
1, 74532, Note_off_c, 0, 68, 113
1, 74560, Note_on_c, 0, 61, 119
1, 74742, Note_off_c, 0, 61, 119
1, 75118, Note_on_c, 0, 68, 114
1, 75156, Note_off_c, 0, 68, 114
1, 75159, Note_on_c, 0, 69, 112
1, 75306, Note_off_c, 0, 69, 112
1, 75310, Note_on_c, 0, 60, 109
1, 75516, Note_off_c, 0, 60, 109
1, 75890, Note_on_c, 0, 69, 115
1, 75987, Note_off_c, 0, 69, 115
1, 76075, Note_on_c, 0, 70, 115
1, 76227, Note_off_c, 0, 70, 115
1, 76251, Note_on_c, 0, 71, 112
1, 76312, Note_off_c, 0, 71, 112
1, 76323, Note_on_c, 0, 72, 115
1, 76437, Note_off_c, 0, 72, 115
1, 76461, Note_on_c, 0, 66, 105
1, 76547, Note_off_c, 0, 66, 105
1, 76663, Note_on_c, 0, 72, 113
1, 76760, Note_off_c, 0, 72, 113
1, 76760, Note_on_c, 0, 68, 119
1, 76862, Note_off_c, 0, 68, 119
1, 76862, Note_on_c, 0, 65, 106
1, 76967, Note_off_c, 0, 65, 106
1, 77221, Note_on_c, 0, 62, 122
1, 77319, Note_off_c, 0, 62, 122
1, 77322, Note_on_c, 0, 66, 99
1, 77355, Note_off_c, 0, 66, 99
1, 77359, Note_on_c, 0, 69, 101
1, 77430, Note_off_c, 0, 69, 101
1, 77430, Note_on_c, 0, 71, 110
1, 77487, Note_off_c, 0, 71, 110
1, 77511, Note_on_c, 0, 67, 127
1, 77582, Note_off_c, 0, 67, 127
1, 77586, Note_on_c, 0, 69, 112
1, 77629, Note_off_c, 0, 69, 112
1, 77644, Note_on_c, 0, 63, 117
1, 77700, Note_off_c, 0, 63, 117
1, 77700, Note_on_c, 0, 65, 107
1, 77748, Note_off_c, 0, 65, 107
1, 77751, Note_on_c, 0, 67, 104
1, 77816, Note_off_c, 0, 67, 104
1, 77816, Note_on_c, 0, 69, 112
1, 77883, Note_off_c, 0, 69, 112
1, 77883, Note_on_c, 0, 67, 114
1, 78036, Note_off_c, 0, 67, 114
1, 78211, Note_on_c, 0, 69, 109
1, 78442, Note_off_c, 0, 69, 109
1, 78469, Note_on_c, 0, 67, 112
1, 78516, Note_off_c, 0, 67, 112
1, 78516, Note_on_c, 0, 64, 114
1, 78573, Note_off_c, 0, 64, 114
1, 78573, Note_on_c, 0, 63, 118
1, 78614, Note_off_c, 0, 63, 118
1, 78618, Note_on_c, 0, 62, 122
1, 78666, Note_off_c, 0, 62, 122
1, 78679, Note_on_c, 0, 60, 116
1, 78727, Note_off_c, 0, 60, 116
1, 78736, Note_on_c, 0, 58, 112
1, 78786, Note_off_c, 0, 58, 112
1, 78789, Note_on_c, 0, 57, 109
1, 78825, Note_off_c, 0, 57, 109
1, 78828, Note_on_c, 0, 55, 112
1, 78871, Note_off_c, 0, 55, 112
1, 78871, Note_on_c, 0, 53, 115
1, 78920, Note_off_c, 0, 53, 115
1, 78920, Note_on_c, 0, 51, 119
1, 78959, Note_off_c, 0, 51, 119
1, 78960, Note_on_c, 0, 49, 116
1, 79000, Note_off_c, 0, 49, 116
1, 79022, Note_on_c, 0, 46, 114
1, 79197, Note_off_c, 0, 46, 114
1, 79548, Note_on_c, 0, 55, 105
1, 79609, Note_off_c, 0, 55, 105
1, 79620, Note_on_c, 0, 56, 103
1, 79666, Note_off_c, 0, 56, 103
1, 79675, Note_on_c, 0, 59, 107
1, 79715, Note_off_c, 0, 59, 107
1, 79715, Note_on_c, 0, 61, 120
1, 79768, Note_off_c, 0, 61, 120
1, 79769, Note_on_c, 0, 63, 105
1, 79808, Note_off_c, 0, 63, 105
1, 79823, Note_on_c, 0, 66, 105
1, 79873, Note_off_c, 0, 66, 105
1, 79873, Note_on_c, 0, 68, 110
1, 79923, Note_off_c, 0, 68, 110
1, 79923, Note_on_c, 0, 71, 110
1, 79995, Note_off_c, 0, 71, 110
1, 79995, Note_on_c, 0, 73, 113
1, 80196, Note_off_c, 0, 73, 113
1, 80196, Note_on_c, 0, 71, 110
1, 80215, Note_off_c, 0, 71, 110
1, 80220, Note_on_c, 0, 70, 109
1, 80258, Note_off_c, 0, 70, 109
1, 80258, Note_on_c, 0, 68, 112
1, 80301, Note_off_c, 0, 68, 112
1, 80310, Note_on_c, 0, 66, 108
1, 80447, Note_off_c, 0, 66, 108
1, 80710, Note_on_c, 0, 57, 114
1, 80757, Note_off_c, 0, 57, 114
1, 80763, Note_on_c, 0, 59, 100
1, 80791, Note_off_c, 0, 59, 100
1, 80793, Note_on_c, 0, 61, 120
1, 80849, Note_off_c, 0, 61, 120
1, 80850, Note_on_c, 0, 62, 116
1, 80876, Note_off_c, 0, 62, 116
1, 80876, Note_on_c, 0, 64, 119
1, 80931, Note_off_c, 0, 64, 119
1, 80931, Note_on_c, 0, 62, 118
1, 80964, Note_off_c, 0, 62, 118
1, 80964, Note_on_c, 0, 63, 115
1, 81000, Note_off_c, 0, 63, 115
1, 81000, Note_on_c, 0, 64, 114
1, 81030, Note_off_c, 0, 64, 114
1, 81031, Note_on_c, 0, 65, 107
1, 81058, Note_off_c, 0, 65, 107
1, 81058, Note_on_c, 0, 67, 111
1, 81079, Note_off_c, 0, 67, 111
1, 81082, Note_on_c, 0, 69, 114
1, 81107, Note_off_c, 0, 69, 114
1, 81107, Note_on_c, 0, 71, 112
1, 81132, Note_off_c, 0, 71, 112
1, 81132, Note_on_c, 0, 69, 112
1, 81160, Note_off_c, 0, 69, 112
1, 81170, Note_on_c, 0, 67, 109
1, 81217, Note_off_c, 0, 67, 109
1, 81218, Note_on_c, 0, 65, 119
1, 81249, Note_off_c, 0, 65, 119
1, 81255, Note_on_c, 0, 62, 118
1, 81283, Note_off_c, 0, 62, 118
1, 81283, Note_on_c, 0, 60, 115
1, 81330, Note_off_c, 0, 60, 115
1, 81330, Note_on_c, 0, 59, 109
1, 81359, Note_off_c, 0, 59, 109
1, 81370, Note_on_c, 0, 57, 115
1, 81413, Note_off_c, 0, 57, 115
1, 81423, Note_on_c, 0, 55, 103
1, 81483, Note_off_c, 0, 55, 103
1, 81719, Note_on_c, 0, 56, 106
1, 81759, Note_off_c, 0, 56, 106
1, 81760, Note_on_c, 0, 57, 111
1, 81790, Note_on_c, 0, 60, 104
1, 81790, Note_off_c, 0, 57, 111
1, 81817, Note_off_c, 0, 60, 104
1, 81817, Note_on_c, 0, 61, 116
1, 81849, Note_off_c, 0, 61, 116
1, 81849, Note_on_c, 0, 62, 119
1, 81878, Note_off_c, 0, 62, 119
1, 81889, Note_on_c, 0, 65, 111
1, 81921, Note_off_c, 0, 65, 111
1, 81921, Note_on_c, 0, 64, 123
1, 81988, Note_off_c, 0, 64, 123
1, 81988, Note_on_c, 0, 65, 110
1, 82006, Note_on_c, 0, 67, 115
1, 82006, Note_off_c, 0, 65, 110
1, 82030, Note_off_c, 0, 67, 115
1, 82032, Note_on_c, 0, 66, 110
1, 82053, Note_off_c, 0, 66, 110
1, 82055, Note_on_c, 0, 67, 117
1, 82119, Note_off_c, 0, 67, 117
1, 82123, Note_on_c, 0, 68, 106
1, 82158, Note_off_c, 0, 68, 106
1, 82191, Note_on_c, 0, 64, 120
1, 82233, Note_off_c, 0, 64, 120
1, 82233, Note_on_c, 0, 65, 110
1, 82263, Note_off_c, 0, 65, 110
1, 82266, Note_on_c, 0, 67, 111
1, 82309, Note_off_c, 0, 67, 111
1, 82309, Note_on_c, 0, 65, 102
1, 82340, Note_off_c, 0, 65, 102
1, 82340, Note_on_c, 0, 67, 112
1, 82382, Note_off_c, 0, 67, 112
1, 82387, Note_on_c, 0, 69, 109
1, 82426, Note_off_c, 0, 69, 109
1, 82426, Note_on_c, 0, 72, 106
1, 82464, Note_off_c, 0, 72, 106
1, 82477, Note_on_c, 0, 68, 107
1, 82589, Note_off_c, 0, 68, 107
1, 82912, Note_on_c, 0, 68, 116
1, 83128, Note_off_c, 0, 68, 116
1, 83128, Note_on_c, 0, 65, 109
1, 83159, Note_off_c, 0, 65, 109
1, 83177, Note_on_c, 0, 61, 120
1, 83296, Note_off_c, 0, 61, 120
1, 83343, Note_on_c, 0, 68, 109
1, 83386, Note_off_c, 0, 68, 109
1, 83413, Note_on_c, 0, 62, 114
1, 83510, Note_off_c, 0, 62, 114
1, 83510, Note_on_c, 0, 66, 111
1, 83578, Note_off_c, 0, 66, 111
1, 83581, Note_on_c, 0, 64, 112
1, 83722, Note_off_c, 0, 64, 112
1, 83794, Note_on_c, 0, 61, 114
1, 83896, Note_off_c, 0, 61, 114
1, 83896, Note_on_c, 0, 64, 116
1, 83957, Note_off_c, 0, 64, 116
1, 83957, Note_on_c, 0, 62, 114
1, 83974, Note_off_c, 0, 62, 114
1, 83974, Note_on_c, 0, 60, 114
1, 84075, Note_off_c, 0, 60, 114
1, 84080, Note_on_c, 0, 62, 117
1, 84123, Note_off_c, 0, 62, 117
1, 84137, Note_on_c, 0, 64, 122
1, 84238, Note_off_c, 0, 64, 122
1, 84254, Note_on_c, 0, 67, 111
1, 84333, Note_off_c, 0, 67, 111
1, 84338, Note_on_c, 0, 65, 105
1, 84418, Note_off_c, 0, 65, 105
1, 84419, Note_on_c, 0, 64, 122
1, 84507, Note_off_c, 0, 64, 122
1, 84514, Note_on_c, 0, 63, 121
1, 84605, Note_off_c, 0, 63, 121
1, 84620, Note_on_c, 0, 65, 108
1, 84659, Note_off_c, 0, 65, 108
1, 84659, Note_on_c, 0, 64, 107
1, 84691, Note_off_c, 0, 64, 107
1, 84691, Note_on_c, 0, 61, 117
1, 84750, Note_off_c, 0, 61, 117
1, 84750, Note_on_c, 0, 62, 119
1, 84808, Note_off_c, 0, 62, 119
1, 84819, Note_on_c, 0, 60, 111
1, 84873, Note_off_c, 0, 60, 111
1, 84903, Note_on_c, 0, 57, 114
1, 85015, Note_off_c, 0, 57, 114
1, 85099, Note_on_c, 0, 58, 99
1, 85416, Note_off_c, 0, 58, 99
1, 85516, Note_on_c, 0, 56, 108
1, 85588, Note_off_c, 0, 56, 108
1, 85591, Note_on_c, 0, 54, 108
1, 85650, Note_off_c, 0, 54, 108
1, 85662, Note_on_c, 0, 51, 108
1, 85791, Note_off_c, 0, 51, 108
1, 85820, Note_on_c, 0, 47, 106
1, 85856, Note_off_c, 0, 47, 106
1, 85857, Note_on_c, 0, 53, 109
1, 85994, Note_off_c, 0, 53, 109
1, 86000, Note_on_c, 0, 56, 104
1, 86192, Note_off_c, 0, 56, 104
1, 87098, Note_on_c, 0, 60, 113
1, 87170, Note_off_c, 0, 60, 113
1, 87176, Note_on_c, 0, 62, 112
1, 87295, Note_off_c, 0, 62, 112
1, 87303, Note_on_c, 0, 67, 116
1, 87356, Note_off_c, 0, 67, 116
1, 87380, Note_on_c, 0, 67, 113
1, 87609, Note_off_c, 0, 67, 113
1, 87615, Note_on_c, 0, 65, 106
1, 87653, Note_off_c, 0, 65, 106
1, 87658, Note_on_c, 0, 69, 114
1, 87694, Note_off_c, 0, 69, 114
1, 87701, Note_on_c, 0, 72, 115
1, 87739, Note_off_c, 0, 72, 115
1, 87739, Note_on_c, 0, 69, 116
1, 87865, Note_off_c, 0, 69, 116
1, 87874, Note_on_c, 0, 65, 106
1, 87960, Note_off_c, 0, 65, 106
1, 88162, Note_on_c, 0, 69, 112
1, 88296, Note_off_c, 0, 69, 112
1, 88346, Note_on_c, 0, 70, 113
1, 88465, Note_off_c, 0, 70, 113
1, 88465, Note_on_c, 0, 71, 107
1, 88537, Note_off_c, 0, 71, 107
1, 88537, Note_on_c, 0, 72, 113
1, 88652, Note_off_c, 0, 72, 113
1, 88652, Note_on_c, 0, 71, 116
1, 88755, Note_off_c, 0, 71, 116
1, 88755, Note_on_c, 0, 63, 113
1, 88827, Note_off_c, 0, 63, 113
1, 88849, Note_on_c, 0, 67, 111
1, 88932, Note_off_c, 0, 67, 111
1, 88932, Note_on_c, 0, 68, 116
1, 89160, Note_off_c, 0, 68, 116
1, 89169, Note_on_c, 0, 64, 97
1, 89216, Note_off_c, 0, 64, 97
1, 89218, Note_on_c, 0, 66, 103
1, 89263, Note_off_c, 0, 66, 103
1, 89263, Note_on_c, 0, 68, 105
1, 89293, Note_off_c, 0, 68, 105
1, 89300, Note_on_c, 0, 69, 112
1, 89347, Note_off_c, 0, 69, 112
1, 89356, Note_on_c, 0, 71, 113
1, 89403, Note_off_c, 0, 71, 113
1, 89403, Note_on_c, 0, 73, 118
1, 89638, Note_off_c, 0, 73, 118
1, 89638, Note_on_c, 0, 69, 105
1, 89689, Note_off_c, 0, 69, 105
1, 89714, Note_on_c, 0, 73, 117
1, 89895, Note_off_c, 0, 73, 117
1, 89895, Note_on_c, 0, 69, 115
1, 90014, Note_off_c, 0, 69, 115
1, 90014, Note_on_c, 0, 72, 111
1, 90075, Note_off_c, 0, 72, 111
1, 90075, Note_on_c, 0, 69, 118
1, 90269, Note_on_c, 0, 67, 107
1, 90269, Note_off_c, 0, 69, 118
1, 90381, Note_off_c, 0, 67, 107
1, 90390, Note_on_c, 0, 65, 107
1, 90735, Note_off_c, 0, 65, 107
1, 90757, Note_on_c, 0, 62, 120
1, 90851, Note_off_c, 0, 62, 120
1, 90851, Note_on_c, 0, 60, 102
1, 90970, Note_off_c, 0, 60, 102
1, 90984, Note_on_c, 0, 58, 101
1, 91052, Note_off_c, 0, 58, 101
1, 91346, Note_on_c, 0, 69, 115
1, 91389, Note_off_c, 0, 69, 115
1, 91396, Note_on_c, 0, 70, 115
1, 91484, Note_off_c, 0, 70, 115
1, 91607, Note_on_c, 0, 70, 112
1, 91936, Note_off_c, 0, 70, 112
1, 91987, Note_on_c, 0, 70, 113
1, 92189, Note_off_c, 0, 70, 113
1, 92189, Note_on_c, 0, 66, 107
1, 92323, Note_off_c, 0, 66, 107
1, 92373, Note_on_c, 0, 63, 116
1, 92550, Note_off_c, 0, 63, 116
1, 92560, Note_on_c, 0, 60, 110
1, 92661, Note_off_c, 0, 60, 110
1, 92672, Note_on_c, 0, 61, 110
1, 93033, Note_off_c, 0, 61, 110
1, 93067, Note_on_c, 0, 68, 103
1, 93098, Note_off_c, 0, 68, 103
1, 93117, Note_on_c, 0, 60, 103
1, 93254, Note_off_c, 0, 60, 103
1, 93254, Note_on_c, 0, 58, 96
1, 93326, Note_off_c, 0, 58, 96
1, 93972, Note_on_c, 0, 71, 112
1, 93989, Note_off_c, 0, 71, 112
1, 93989, Note_on_c, 0, 72, 110
1, 94145, Note_off_c, 0, 72, 110
1, 94159, Note_on_c, 0, 72, 115
1, 94199, Note_off_c, 0, 72, 115
1, 94249, Note_on_c, 0, 69, 118
1, 94368, Note_off_c, 0, 69, 118
1, 94368, Note_on_c, 0, 72, 115
1, 94617, Note_off_c, 0, 72, 115
1, 94624, Note_on_c, 0, 68, 111
1, 94750, Note_off_c, 0, 68, 111
1, 94804, Note_on_c, 0, 66, 106
1, 94927, Note_off_c, 0, 66, 106
1, 94954, Note_on_c, 0, 63, 109
1, 94998, Note_off_c, 0, 63, 109
1, 95005, Note_on_c, 0, 65, 111
1, 95131, Note_off_c, 0, 65, 111
1, 95368, Note_on_c, 0, 62, 119
1, 95494, Note_off_c, 0, 62, 119
1, 95568, Note_on_c, 0, 66, 108
1, 95681, Note_on_c, 0, 68, 114
1, 95681, Note_off_c, 0, 66, 108
1, 95760, Note_off_c, 0, 68, 114
1, 95773, Note_on_c, 0, 64, 116
1, 95885, Note_off_c, 0, 64, 116
1, 96537, Note_on_c, 0, 69, 115
1, 96628, Note_off_c, 0, 69, 115
1, 96663, Note_on_c, 0, 67, 114
1, 96731, Note_off_c, 0, 67, 114
1, 96731, Note_on_c, 0, 65, 110
1, 96832, Note_off_c, 0, 65, 110
1, 96850, Note_on_c, 0, 64, 112
1, 96922, Note_off_c, 0, 64, 112
1, 96922, Note_on_c, 0, 63, 121
1, 97027, Note_off_c, 0, 63, 121
1, 97037, Note_on_c, 0, 65, 115
1, 97113, Note_off_c, 0, 65, 115
1, 97113, Note_on_c, 0, 62, 120
1, 97222, Note_off_c, 0, 62, 120
1, 97222, Note_on_c, 0, 60, 109
1, 97294, Note_off_c, 0, 60, 109
1, 97310, Note_on_c, 0, 58, 101
1, 97407, Note_off_c, 0, 58, 101
1, 97633, Note_on_c, 0, 65, 112
1, 97680, Note_off_c, 0, 65, 112
1, 97696, Note_on_c, 0, 63, 111
1, 97808, Note_off_c, 0, 63, 111
1, 97808, Note_on_c, 0, 61, 113
1, 97884, Note_off_c, 0, 61, 113
1, 97887, Note_on_c, 0, 58, 99
1, 97995, Note_off_c, 0, 58, 99
1, 98002, Note_on_c, 0, 54, 107
1, 98047, Note_off_c, 0, 54, 107
1, 98056, Note_on_c, 0, 53, 110
1, 98220, Note_off_c, 0, 53, 110
1, 98293, Note_on_c, 0, 56, 102
1, 98353, Note_off_c, 0, 56, 102
1, 98399, Note_on_c, 0, 62, 116
1, 98449, Note_off_c, 0, 62, 116
1, 98465, Note_on_c, 0, 59, 108
1, 98562, Note_off_c, 0, 59, 108
1, 98585, Note_on_c, 0, 57, 106
1, 98686, Note_on_c, 0, 56, 105
1, 98686, Note_off_c, 0, 57, 106
1, 98747, Note_off_c, 0, 56, 105
1, 98870, Note_on_c, 0, 57, 107
1, 98967, Note_off_c, 0, 57, 107
1, 98981, Note_on_c, 0, 59, 107
1, 99024, Note_off_c, 0, 59, 107
1, 99029, Note_on_c, 0, 61, 113
1, 99121, Note_off_c, 0, 61, 113
1, 99121, Note_on_c, 0, 62, 119
1, 99212, Note_off_c, 0, 62, 119
1, 99212, Note_on_c, 0, 58, 98
1, 99302, Note_off_c, 0, 58, 98
1, 99314, Note_on_c, 0, 60, 107
1, 99379, Note_off_c, 0, 60, 107
1, 99607, Note_on_c, 0, 69, 109
1, 99730, Note_off_c, 0, 69, 109
1, 99730, Note_on_c, 0, 65, 113
1, 99784, Note_off_c, 0, 65, 113
1, 99786, Note_on_c, 0, 62, 119
1, 99934, Note_off_c, 0, 62, 119
1, 99968, Note_on_c, 0, 65, 105
1, 100164, Note_off_c, 0, 65, 105
1, 100358, Note_on_c, 0, 65, 102
1, 100448, Note_off_c, 0, 65, 102
1, 100479, Note_on_c, 0, 53, 107
1, 100578, Note_off_c, 0, 53, 107
1, 100578, End_track
0, 0, End_of_file
