0, 0, Header, 1, 1, 840
1, 0, Start_track
1, 0, Title_t, "Melody"
1, 0, Tempo, 431654
1, 0, Key_signature, -5, "major"
1, 0, Time_signature, 4, 2, 24, 8
1, 20265, Note_on_c, 0, 63, 107
1, 20626, Note_off_c, 0, 63, 107
1, 20716, Note_on_c, 0, 65, 105
1, 21246, Note_off_c, 0, 65, 105
1, 21251, Note_on_c, 0, 63, 105
1, 21736, Note_off_c, 0, 63, 105
1, 21820, Note_on_c, 0, 64, 105
1, 21978, Note_off_c, 0, 64, 105
1, 22017, Note_on_c, 0, 65, 105
1, 23587, Note_off_c, 0, 65, 105
1, 23643, Note_on_c, 0, 63, 113
1, 23993, Note_off_c, 0, 63, 113
1, 24072, Note_on_c, 0, 65, 104
1, 24529, Note_off_c, 0, 65, 104
1, 24608, Note_on_c, 0, 63, 116
1, 25037, Note_off_c, 0, 63, 116
1, 25103, Note_on_c, 0, 66, 106
1, 25339, Note_off_c, 0, 66, 106
1, 25376, Note_on_c, 0, 70, 112
1, 26023, Note_off_c, 0, 70, 112
1, 26096, Note_on_c, 0, 70, 98
1, 28841, Note_off_c, 0, 70, 98
1, 30226, Note_on_c, 0, 69, 108
1, 30521, Note_off_c, 0, 69, 108
1, 30540, Note_on_c, 0, 72, 121
1, 31692, Note_off_c, 0, 72, 121
1, 31731, Note_on_c, 0, 68, 108
1, 31990, Note_off_c, 0, 68, 108
1, 32016, Note_on_c, 0, 65, 105
1, 32212, Note_off_c, 0, 65, 105
1, 32259, Note_on_c, 0, 63, 104
1, 33727, Note_off_c, 0, 63, 104
1, 34947, Note_on_c, 0, 68, 107
1, 35167, Note_off_c, 0, 68, 107
1, 35234, Note_on_c, 0, 70, 114
1, 35488, Note_off_c, 0, 70, 114
1, 35561, Note_on_c, 0, 68, 107
1, 35820, Note_off_c, 0, 68, 107
1, 36034, Note_on_c, 0, 68, 113
1, 36176, Note_off_c, 0, 68, 113
1, 36215, Note_on_c, 0, 69, 116
1, 36600, Note_off_c, 0, 69, 116
1, 36645, Note_on_c, 0, 68, 103
1, 37032, Note_off_c, 0, 68, 103
1, 37211, Note_on_c, 0, 67, 108
1, 37741, Note_off_c, 0, 67, 108
1, 37853, Note_on_c, 0, 68, 107
1, 38400, Note_off_c, 0, 68, 107
1, 38523, Note_on_c, 0, 71, 99
1, 38812, Note_off_c, 0, 71, 99
1, 38827, Note_on_c, 0, 75, 96
1, 40515, Note_off_c, 0, 75, 96
1, 41624, Note_on_c, 0, 73, 111
1, 41885, Note_off_c, 0, 73, 111
1, 41899, Note_on_c, 0, 72, 116
1, 42096, Note_off_c, 0, 72, 116
1, 42122, Note_on_c, 0, 70, 108
1, 42386, Note_off_c, 0, 70, 108
1, 42467, Note_on_c, 0, 69, 100
1, 44349, Note_off_c, 0, 69, 100
1, 44414, Note_on_c, 0, 67, 101
1, 44501, Note_off_c, 0, 67, 101
1, 44523, Note_on_c, 0, 66, 100
1, 44671, Note_off_c, 0, 66, 100
1, 44699, Note_on_c, 0, 64, 106
1, 44844, Note_off_c, 0, 64, 106
1, 44862, Note_on_c, 0, 63, 99
1, 45525, Note_off_c, 0, 63, 99
1, 45546, Note_on_c, 0, 61, 97
1, 45747, Note_off_c, 0, 61, 97
1, 45761, Note_on_c, 0, 63, 105
1, 46313, Note_off_c, 0, 63, 105
1, 46440, Note_on_c, 0, 58, 93
1, 47609, Note_off_c, 0, 58, 93
1, 49214, Note_on_c, 0, 72, 115
1, 49351, Note_off_c, 0, 72, 115
1, 49378, Note_on_c, 0, 73, 116
1, 50124, Note_off_c, 0, 73, 116
1, 50159, Note_on_c, 0, 71, 119
1, 50349, Note_off_c, 0, 71, 119
1, 50380, Note_on_c, 0, 70, 112
1, 50665, Note_off_c, 0, 70, 112
1, 50887, Note_on_c, 0, 70, 110
1, 51248, Note_off_c, 0, 70, 110
1, 51379, Note_on_c, 0, 66, 103
1, 51561, Note_off_c, 0, 66, 103
1, 51787, Note_on_c, 0, 66, 107
1, 51957, Note_off_c, 0, 66, 107
1, 52096, Note_on_c, 0, 73, 104
1, 52393, Note_off_c, 0, 73, 104
1, 52539, Note_on_c, 0, 63, 107
1, 52685, Note_off_c, 0, 63, 107
1, 52735, Note_on_c, 0, 65, 98
1, 53734, Note_off_c, 0, 65, 98
1, 53830, Note_on_c, 0, 65, 92
1, 55140, Note_off_c, 0, 65, 92
1, 55361, Note_on_c, 0, 63, 94
1, 55499, Note_off_c, 0, 63, 94
1, 55522, Note_on_c, 0, 65, 103
1, 55647, Note_off_c, 0, 65, 103
1, 55683, Note_on_c, 0, 68, 107
1, 55825, Note_off_c, 0, 68, 107
1, 55861, Note_on_c, 0, 66, 103
1, 56016, Note_off_c, 0, 66, 103
1, 56024, Note_on_c, 0, 63, 104
1, 56190, Note_off_c, 0, 63, 104
1, 56209, Note_on_c, 0, 61, 103
1, 56374, Note_off_c, 0, 61, 103
1, 56399, Note_on_c, 0, 59, 110
1, 56599, Note_off_c, 0, 59, 110
1, 56634, Note_on_c, 0, 58, 100
1, 56756, Note_off_c, 0, 58, 100
1, 56777, Note_on_c, 0, 57, 106
1, 57033, Note_off_c, 0, 57, 106
1, 57082, Note_on_c, 0, 60, 97
1, 57138, Note_off_c, 0, 60, 97
1, 57150, Note_on_c, 0, 59, 99
1, 57248, Note_off_c, 0, 59, 99
1, 57257, Note_on_c, 0, 56, 98
1, 57483, Note_off_c, 0, 56, 98
1, 57542, Note_on_c, 0, 59, 97
1, 57673, Note_off_c, 0, 59, 97
1, 57708, Note_on_c, 0, 57, 97
1, 57819, Note_off_c, 0, 57, 97
1, 57878, Note_on_c, 0, 55, 116
1, 57997, Note_off_c, 0, 55, 116
1, 58036, Note_on_c, 0, 54, 106
1, 58178, Note_off_c, 0, 54, 106
1, 58204, Note_on_c, 0, 52, 108
1, 58328, Note_off_c, 0, 52, 108
1, 58344, Note_on_c, 0, 51, 99
1, 58675, Note_off_c, 0, 51, 99
1, 60290, Note_on_c, 0, 61, 104
1, 60645, Note_off_c, 0, 61, 104
1, 60676, Note_on_c, 0, 63, 112
1, 61263, Note_off_c, 0, 63, 112
1, 61286, Note_on_c, 0, 65, 103
1, 61763, Note_off_c, 0, 65, 103
1, 61939, Note_on_c, 0, 66, 103
1, 62229, Note_off_c, 0, 66, 103
1, 62260, Note_on_c, 0, 68, 104
1, 64482, Note_off_c, 0, 68, 104
1, 64575, Note_on_c, 0, 68, 105
1, 64896, Note_off_c, 0, 68, 105
1, 65133, Note_on_c, 0, 68, 108
1, 65375, Note_off_c, 0, 68, 108
1, 65617, Note_on_c, 0, 68, 105
1, 65871, Note_off_c, 0, 68, 105
1, 65950, Note_on_c, 0, 73, 96
1, 67107, Note_off_c, 0, 73, 96
1, 67321, Note_on_c, 0, 68, 95
1, 67529, Note_off_c, 0, 68, 95
1, 67647, Note_on_c, 0, 63, 98
1, 68155, Note_off_c, 0, 63, 98
1, 68296, Note_on_c, 0, 63, 98
1, 68482, Note_off_c, 0, 63, 98
1, 68504, Note_on_c, 0, 65, 91
1, 68645, Note_off_c, 0, 65, 91
1, 68729, Note_on_c, 0, 61, 97
1, 69547, Note_off_c, 0, 61, 97
1, 70834, Note_on_c, 0, 63, 87
1, 70930, Note_off_c, 0, 63, 87
1, 70941, Note_on_c, 0, 66, 105
1, 71528, Note_off_c, 0, 66, 105
1, 71629, Note_on_c, 0, 65, 102
1, 71725, Note_off_c, 0, 65, 102
1, 71764, Note_on_c, 0, 66, 106
1, 72374, Note_off_c, 0, 66, 106
1, 72492, Note_on_c, 0, 63, 100
1, 74017, Note_off_c, 0, 63, 100
1, 74158, Note_on_c, 0, 65, 96
1, 74858, Note_off_c, 0, 65, 96
1, 74925, Note_on_c, 0, 63, 105
1, 75422, Note_off_c, 0, 63, 105
1, 75546, Note_on_c, 0, 65, 89
1, 76924, Note_off_c, 0, 65, 89
1, 78059, Note_on_c, 0, 63, 114
1, 78246, Note_off_c, 0, 63, 114
1, 78257, Note_on_c, 0, 65, 113
1, 78447, Note_off_c, 0, 65, 113
1, 78457, Note_on_c, 0, 63, 117
1, 78690, Note_off_c, 0, 63, 117
1, 78714, Note_on_c, 0, 62, 114
1, 78911, Note_off_c, 0, 62, 114
1, 78915, Note_on_c, 0, 63, 117
1, 79107, Note_off_c, 0, 63, 117
1, 79112, Note_on_c, 0, 66, 101
1, 79324, Note_off_c, 0, 66, 101
1, 79339, Note_on_c, 0, 70, 116
1, 80264, Note_off_c, 0, 70, 116
1, 80283, Note_on_c, 0, 70, 114
1, 81065, Note_off_c, 0, 70, 114
1, 81261, Note_on_c, 0, 66, 96
1, 81394, Note_off_c, 0, 66, 96
1, 81399, Note_on_c, 0, 70, 104
1, 81549, Note_off_c, 0, 70, 104
1, 81614, Note_on_c, 0, 70, 112
1, 81723, Note_off_c, 0, 70, 112
1, 81728, Note_on_c, 0, 73, 116
1, 82748, Note_off_c, 0, 73, 116
1, 82769, Note_on_c, 0, 70, 109
1, 82927, Note_off_c, 0, 70, 109
1, 82987, Note_on_c, 0, 68, 104
1, 83149, Note_off_c, 0, 68, 104
1, 83182, Note_on_c, 0, 66, 101
1, 83334, Note_off_c, 0, 66, 101
1, 83383, Note_on_c, 0, 69, 116
1, 83561, Note_off_c, 0, 69, 116
1, 83616, Note_on_c, 0, 66, 104
1, 83853, Note_off_c, 0, 66, 104
1, 83882, Note_on_c, 0, 65, 100
1, 83955, Note_off_c, 0, 65, 100
1, 83967, Note_on_c, 0, 63, 98
1, 84168, Note_off_c, 0, 63, 98
1, 84205, Note_on_c, 0, 68, 109
1, 84406, Note_off_c, 0, 68, 109
1, 84433, Note_on_c, 0, 66, 104
1, 84597, Note_off_c, 0, 66, 104
1, 84624, Note_on_c, 0, 63, 109
1, 84825, Note_off_c, 0, 63, 109
1, 84868, Note_on_c, 0, 61, 98
1, 85052, Note_off_c, 0, 61, 98
1, 85078, Note_on_c, 0, 65, 104
1, 85304, Note_off_c, 0, 65, 104
1, 85340, Note_on_c, 0, 60, 108
1, 85548, Note_off_c, 0, 60, 108
1, 87170, Note_on_c, 0, 68, 111
1, 87483, Note_off_c, 0, 68, 111
1, 87727, Note_on_c, 0, 69, 114
1, 87826, Note_off_c, 0, 69, 114
1, 87849, Note_on_c, 0, 70, 114
1, 88291, Note_off_c, 0, 70, 114
1, 88325, Note_on_c, 0, 68, 106
1, 88655, Note_off_c, 0, 68, 106
1, 88908, Note_on_c, 0, 68, 113
1, 88998, Note_off_c, 0, 68, 113
1, 89004, Note_on_c, 0, 69, 111
1, 89574, Note_off_c, 0, 69, 111
1, 89633, Note_on_c, 0, 68, 107
1, 90457, Note_off_c, 0, 68, 107
1, 90524, Note_on_c, 0, 67, 102
1, 91184, Note_off_c, 0, 67, 102
1, 91211, Note_on_c, 0, 68, 106
1, 91721, Note_off_c, 0, 68, 106
1, 92046, Note_on_c, 0, 75, 111
1, 92173, Note_off_c, 0, 75, 111
1, 92173, Note_on_c, 0, 77, 103
1, 92818, Note_off_c, 0, 77, 103
1, 92910, Note_on_c, 0, 72, 109
1, 93118, Note_off_c, 0, 72, 109
1, 93429, Note_on_c, 0, 75, 114
1, 93739, Note_off_c, 0, 75, 114
1, 93754, Note_on_c, 0, 72, 110
1, 94578, Note_off_c, 0, 72, 110
1, 94713, Note_on_c, 0, 68, 106
1, 94944, Note_off_c, 0, 68, 106
1, 94972, Note_on_c, 0, 72, 111
1, 95169, Note_off_c, 0, 72, 111
1, 95185, Note_on_c, 0, 68, 106
1, 95393, Note_off_c, 0, 68, 106
1, 95415, Note_on_c, 0, 65, 99
1, 95618, Note_off_c, 0, 65, 99
1, 96574, Note_on_c, 0, 57, 104
1, 96689, Note_off_c, 0, 57, 104
1, 96753, Note_on_c, 0, 59, 100
1, 96872, Note_off_c, 0, 59, 100
1, 96911, Note_on_c, 0, 61, 102
1, 97090, Note_off_c, 0, 61, 102
1, 97105, Note_on_c, 0, 62, 105
1, 97214, Note_off_c, 0, 62, 105
1, 97214, Note_on_c, 0, 64, 108
1, 97307, Note_off_c, 0, 64, 108
1, 97321, Note_on_c, 0, 66, 105
1, 97435, Note_off_c, 0, 66, 105
1, 97453, Note_on_c, 0, 67, 102
1, 97560, Note_off_c, 0, 67, 102
1, 97575, Note_on_c, 0, 69, 105
1, 97688, Note_off_c, 0, 69, 105
1, 97699, Note_on_c, 0, 71, 112
1, 97830, Note_off_c, 0, 71, 112
1, 97840, Note_on_c, 0, 69, 109
1, 97899, Note_off_c, 0, 69, 109
1, 97910, Note_on_c, 0, 67, 100
1, 98069, Note_off_c, 0, 67, 100
1, 98110, Note_on_c, 0, 64, 101
1, 98213, Note_off_c, 0, 64, 101
1, 98225, Note_on_c, 0, 62, 109
1, 98357, Note_off_c, 0, 62, 109
1, 98366, Note_on_c, 0, 61, 103
1, 98479, Note_off_c, 0, 61, 103
1, 98483, Note_on_c, 0, 59, 103
1, 98661, Note_off_c, 0, 59, 103
1, 98673, Note_on_c, 0, 57, 102
1, 98757, Note_off_c, 0, 57, 102
1, 98765, Note_on_c, 0, 56, 101
1, 98908, Note_off_c, 0, 56, 101
1, 98941, Note_on_c, 0, 55, 98
1, 99159, Note_off_c, 0, 55, 98
1, 100463, Note_on_c, 0, 63, 115
1, 100795, Note_off_c, 0, 63, 115
1, 100800, Note_on_c, 0, 73, 115
1, 101125, Note_off_c, 0, 73, 115
1, 101305, Note_on_c, 0, 73, 111
1, 101639, Note_off_c, 0, 73, 111
1, 101655, Note_on_c, 0, 72, 115
1, 101743, Note_off_c, 0, 72, 115
1, 101752, Note_on_c, 0, 71, 119
1, 101869, Note_off_c, 0, 71, 119
1, 101875, Note_on_c, 0, 70, 116
1, 102141, Note_off_c, 0, 70, 116
1, 102310, Note_on_c, 0, 70, 110
1, 103934, Note_off_c, 0, 70, 110
1, 103955, Note_on_c, 0, 66, 102
1, 104181, Note_off_c, 0, 66, 102
1, 104407, Note_on_c, 0, 73, 111
1, 105090, Note_off_c, 0, 73, 111
1, 105105, Note_on_c, 0, 72, 110
1, 105192, Note_off_c, 0, 72, 110
1, 105239, Note_on_c, 0, 73, 109
1, 105544, Note_off_c, 0, 73, 109
1, 105635, Note_on_c, 0, 64, 112
1, 105821, Note_off_c, 0, 64, 112
1, 105864, Note_on_c, 0, 65, 95
1, 107416, Note_off_c, 0, 65, 95
1, 108276, Note_on_c, 0, 66, 109
1, 108397, Note_off_c, 0, 66, 109
1, 108444, Note_on_c, 0, 68, 105
1, 108582, Note_off_c, 0, 68, 105
1, 108624, Note_on_c, 0, 70, 105
1, 108759, Note_off_c, 0, 70, 105
1, 108790, Note_on_c, 0, 73, 112
1, 108962, Note_off_c, 0, 73, 112
1, 108995, Note_on_c, 0, 74, 101
1, 109206, Note_off_c, 0, 74, 101
1, 109210, Note_on_c, 0, 71, 98
1, 109410, Note_off_c, 0, 71, 98
1, 109416, Note_on_c, 0, 69, 110
1, 109966, Note_off_c, 0, 69, 110
1, 110045, Note_on_c, 0, 68, 105
1, 110245, Note_off_c, 0, 68, 105
1, 110300, Note_on_c, 0, 67, 105
1, 110480, Note_off_c, 0, 67, 105
1, 110497, Note_on_c, 0, 71, 115
1, 110666, Note_off_c, 0, 71, 115
1, 110699, Note_on_c, 0, 69, 109
1, 110857, Note_off_c, 0, 69, 109
1, 110902, Note_on_c, 0, 67, 105
1, 111100, Note_off_c, 0, 67, 105
1, 111113, Note_on_c, 0, 66, 106
1, 111347, Note_off_c, 0, 66, 106
1, 111347, Note_on_c, 0, 69, 109
1, 111570, Note_off_c, 0, 69, 109
1, 111576, Note_on_c, 0, 65, 103
1, 111740, Note_off_c, 0, 65, 103
1, 111756, Note_on_c, 0, 64, 110
1, 111922, Note_off_c, 0, 64, 110
1, 111936, Note_on_c, 0, 63, 113
1, 112197, Note_off_c, 0, 63, 113
1, 112204, Note_on_c, 0, 65, 101
1, 112391, Note_off_c, 0, 65, 101
1, 112403, Note_on_c, 0, 60, 100
1, 112583, Note_off_c, 0, 60, 100
1, 112606, Note_on_c, 0, 63, 106
1, 112823, Note_off_c, 0, 63, 106
1, 112836, Note_on_c, 0, 62, 102
1, 113100, Note_off_c, 0, 62, 102
1, 114883, Note_on_c, 0, 61, 113
1, 115069, Note_off_c, 0, 61, 113
1, 115091, Note_on_c, 0, 63, 116
1, 115325, Note_off_c, 0, 63, 116
1, 115372, Note_on_c, 0, 65, 107
1, 115491, Note_off_c, 0, 65, 107
1, 115708, Note_on_c, 0, 68, 9
1, 117304, Note_off_c, 0, 68, 9
1, 117369, Note_on_c, 0, 68, 112
1, 117810, Note_off_c, 0, 68, 112
1, 117938, Note_on_c, 0, 68, 113
1, 118880, Note_off_c, 0, 68, 113
1, 118890, Note_on_c, 0, 73, 110
1, 119275, Note_off_c, 0, 73, 110
1, 119301, Note_on_c, 0, 68, 108
1, 120173, Note_off_c, 0, 68, 108
1, 120191, Note_on_c, 0, 63, 112
1, 120572, Note_off_c, 0, 63, 112
1, 120758, Note_on_c, 0, 63, 103
1, 121143, Note_off_c, 0, 63, 103
1, 121313, Note_on_c, 0, 63, 105
1, 121670, Note_off_c, 0, 63, 105
1, 121741, Note_on_c, 0, 65, 88
1, 122304, Note_off_c, 0, 65, 88
1, 122387, Note_on_c, 0, 61, 95
1, 123217, Note_off_c, 0, 61, 95
1, 127602, Note_on_c, 0, 62, 112
1, 127839, Note_off_c, 0, 62, 112
1, 127906, Note_on_c, 0, 64, 118
1, 128394, Note_off_c, 0, 64, 118
1, 128445, Note_on_c, 0, 66, 113
1, 129187, Note_off_c, 0, 66, 113
1, 129263, Note_on_c, 0, 67, 108
1, 129457, Note_off_c, 0, 67, 108
1, 129468, Note_on_c, 0, 69, 110
1, 130063, Note_off_c, 0, 69, 110
1, 130126, Note_on_c, 0, 69, 107
1, 132584, Note_off_c, 0, 69, 107
1, 132707, Note_on_c, 0, 69, 110
1, 133044, Note_off_c, 0, 69, 110
1, 133174, Note_on_c, 0, 71, 102
1, 133388, Note_off_c, 0, 71, 102
1, 133393, Note_on_c, 0, 74, 109
1, 134471, Note_off_c, 0, 74, 109
1, 134499, Note_on_c, 0, 74, 109
1, 134943, Note_off_c, 0, 74, 109
1, 135091, Note_on_c, 0, 74, 105
1, 136116, Note_off_c, 0, 74, 105
1, 136189, Note_on_c, 0, 69, 98
1, 137801, Note_off_c, 0, 69, 98
1, 139357, Note_on_c, 0, 69, 106
1, 139602, Note_off_c, 0, 69, 106
1, 139642, Note_on_c, 0, 67, 109
1, 139818, Note_off_c, 0, 67, 109
1, 139885, Note_on_c, 0, 66, 107
1, 140084, Note_off_c, 0, 66, 107
1, 140087, Note_on_c, 0, 69, 108
1, 141494, Note_off_c, 0, 69, 108
1, 141541, Note_on_c, 0, 65, 100
1, 141749, Note_off_c, 0, 65, 100
1, 141822, Note_on_c, 0, 69, 104
1, 142996, Note_off_c, 0, 69, 104
1, 143242, Note_on_c, 0, 65, 97
1, 143635, Note_off_c, 0, 65, 97
1, 143652, Note_on_c, 0, 62, 104
1, 144321, Note_off_c, 0, 62, 104
1, 144324, Note_on_c, 0, 65, 94
1, 144576, Note_off_c, 0, 65, 94
1, 144621, Note_on_c, 0, 63, 104
1, 145010, Note_off_c, 0, 63, 104
1, 145280, Note_on_c, 0, 63, 103
1, 146129, Note_off_c, 0, 63, 103
1, 146142, Note_on_c, 0, 61, 103
1, 146471, Note_off_c, 0, 61, 103
1, 146544, Note_on_c, 0, 58, 95
1, 147644, Note_off_c, 0, 58, 95
1, 147684, Note_on_c, 0, 54, 97
1, 147850, Note_off_c, 0, 54, 97
1, 148044, Note_on_c, 0, 57, 105
1, 148110, Note_off_c, 0, 57, 105
1, 148122, Note_on_c, 0, 58, 108
1, 148218, Note_off_c, 0, 58, 108
1, 148244, Note_on_c, 0, 57, 99
1, 148345, Note_off_c, 0, 57, 99
1, 148358, Note_on_c, 0, 56, 105
1, 148609, Note_off_c, 0, 56, 105
1, 148654, Note_on_c, 0, 55, 95
1, 148833, Note_off_c, 0, 55, 95
1, 148874, Note_on_c, 0, 59, 103
1, 149034, Note_off_c, 0, 59, 103
1, 149045, Note_on_c, 0, 57, 101
1, 149274, Note_off_c, 0, 57, 101
1, 149287, Note_on_c, 0, 54, 97
1, 149464, Note_off_c, 0, 54, 97
1, 149464, Note_on_c, 0, 52, 99
1, 149706, Note_off_c, 0, 52, 99
1, 149927, Note_on_c, 0, 54, 100
1, 150413, Note_off_c, 0, 54, 100
1, 150699, Note_on_c, 0, 55, 98
1, 150927, Note_off_c, 0, 55, 98
1, 150960, Note_on_c, 0, 52, 87
1, 151081, Note_off_c, 0, 52, 87
1, 151129, Note_on_c, 0, 56, 107
1, 151352, Note_off_c, 0, 56, 107
1, 151394, Note_on_c, 0, 52, 100
1, 151538, Note_off_c, 0, 52, 100
1, 151552, Note_on_c, 0, 57, 106
1, 151792, Note_off_c, 0, 57, 106
1, 151817, Note_on_c, 0, 54, 105
1, 151938, Note_off_c, 0, 54, 105
1, 151962, Note_on_c, 0, 50, 110
1, 152176, Note_off_c, 0, 50, 110
1, 152225, Note_on_c, 0, 48, 109
1, 152360, Note_off_c, 0, 48, 109
1, 152360, Note_on_c, 0, 54, 104
1, 152561, Note_off_c, 0, 54, 104
1, 152570, Note_on_c, 0, 57, 102
1, 152815, Note_off_c, 0, 57, 102
1, 154492, Note_on_c, 0, 62, 110
1, 154743, Note_off_c, 0, 62, 110
1, 154771, Note_on_c, 0, 64, 110
1, 154886, Note_off_c, 0, 64, 110
1, 154897, Note_on_c, 0, 65, 110
1, 155569, Note_off_c, 0, 65, 110
1, 155597, Note_on_c, 0, 67, 111
1, 156146, Note_off_c, 0, 67, 111
1, 156254, Note_on_c, 0, 68, 116
1, 156742, Note_off_c, 0, 68, 116
1, 156757, Note_on_c, 0, 67, 110
1, 157084, Note_off_c, 0, 67, 110
1, 157102, Note_on_c, 0, 68, 111
1, 157203, Note_off_c, 0, 68, 111
1, 157225, Note_on_c, 0, 70, 107
1, 158846, Note_off_c, 0, 70, 107
1, 158963, Note_on_c, 0, 69, 110
1, 159149, Note_off_c, 0, 69, 110
1, 159170, Note_on_c, 0, 68, 108
1, 159342, Note_off_c, 0, 68, 108
1, 159372, Note_on_c, 0, 65, 102
1, 159578, Note_off_c, 0, 65, 102
1, 159603, Note_on_c, 0, 63, 110
1, 159961, Note_off_c, 0, 63, 110
1, 160016, Note_on_c, 0, 62, 108
1, 160204, Note_off_c, 0, 62, 108
1, 160211, Note_on_c, 0, 61, 101
1, 160352, Note_off_c, 0, 61, 101
1, 160388, Note_on_c, 0, 60, 99
1, 160574, Note_off_c, 0, 60, 99
1, 160584, Note_on_c, 0, 59, 101
1, 160792, Note_off_c, 0, 59, 101
1, 160801, Note_on_c, 0, 56, 101
1, 161009, Note_off_c, 0, 56, 101
1, 161019, Note_on_c, 0, 55, 98
1, 161194, Note_off_c, 0, 55, 98
1, 161204, Note_on_c, 0, 57, 99
1, 161376, Note_off_c, 0, 57, 99
1, 161382, Note_on_c, 0, 59, 99
1, 161538, Note_off_c, 0, 59, 99
1, 161546, Note_on_c, 0, 62, 109
1, 161740, Note_off_c, 0, 62, 109
1, 161773, Note_on_c, 0, 68, 105
1, 161973, Note_off_c, 0, 68, 105
1, 162005, Note_on_c, 0, 67, 102
1, 162237, Note_off_c, 0, 67, 102
1, 162470, Note_on_c, 0, 67, 102
1, 162605, Note_off_c, 0, 67, 102
1, 162616, Note_on_c, 0, 71, 115
1, 162841, Note_off_c, 0, 71, 115
1, 163064, Note_on_c, 0, 67, 108
1, 163195, Note_off_c, 0, 67, 108
1, 163223, Note_on_c, 0, 64, 111
1, 163431, Note_off_c, 0, 64, 111
1, 163439, Note_on_c, 0, 62, 107
1, 163542, Note_off_c, 0, 62, 107
1, 163562, Note_on_c, 0, 60, 95
1, 164129, Note_off_c, 0, 60, 95
1, 164214, Note_on_c, 0, 58, 100
1, 164314, Note_off_c, 0, 58, 100
1, 164322, Note_on_c, 0, 63, 108
1, 164566, Note_off_c, 0, 63, 108
1, 164571, Note_on_c, 0, 61, 105
1, 164736, Note_off_c, 0, 61, 105
1, 164747, Note_on_c, 0, 58, 105
1, 164966, Note_off_c, 0, 58, 105
1, 165001, Note_on_c, 0, 53, 91
1, 165152, Note_off_c, 0, 53, 91
1, 165193, Note_on_c, 0, 56, 98
1, 165376, Note_off_c, 0, 56, 98
1, 165418, Note_on_c, 0, 53, 90
1, 165557, Note_off_c, 0, 53, 90
1, 165569, Note_on_c, 0, 55, 102
1, 165698, Note_off_c, 0, 55, 102
1, 165710, Note_on_c, 0, 60, 103
1, 165896, Note_off_c, 0, 60, 103
1, 165917, Note_on_c, 0, 57, 94
1, 166010, Note_off_c, 0, 57, 94
1, 166014, Note_on_c, 0, 58, 98
1, 166127, Note_off_c, 0, 58, 98
1, 166145, Note_on_c, 0, 61, 103
1, 166320, Note_off_c, 0, 61, 103
1, 166345, Note_on_c, 0, 65, 102
1, 166483, Note_off_c, 0, 65, 102
1, 166570, Note_on_c, 0, 68, 109
1, 166722, Note_off_c, 0, 68, 109
1, 166792, Note_on_c, 0, 63, 110
1, 166984, Note_off_c, 0, 63, 110
1, 166998, Note_on_c, 0, 65, 102
1, 167147, Note_off_c, 0, 65, 102
1, 167203, Note_on_c, 0, 67, 103
1, 167330, Note_off_c, 0, 67, 103
1, 167365, Note_on_c, 0, 68, 107
1, 167537, Note_off_c, 0, 68, 107
1, 167538, Note_on_c, 0, 63, 107
1, 167735, Note_off_c, 0, 63, 107
1, 167757, Note_on_c, 0, 61, 103
1, 167912, Note_off_c, 0, 61, 103
1, 167940, Note_on_c, 0, 60, 94
1, 168115, Note_off_c, 0, 60, 94
1, 168179, Note_on_c, 0, 63, 115
1, 168345, Note_off_c, 0, 63, 115
1, 168381, Note_on_c, 0, 59, 102
1, 168598, Note_off_c, 0, 59, 102
1, 168646, Note_on_c, 0, 57, 97
1, 168795, Note_off_c, 0, 57, 97
1, 170401, Note_on_c, 0, 59, 106
1, 170556, Note_off_c, 0, 59, 106
1, 170635, Note_on_c, 0, 64, 103
1, 170742, Note_off_c, 0, 64, 103
1, 170815, Note_on_c, 0, 68, 104
1, 171032, Note_off_c, 0, 68, 104
1, 171053, Note_on_c, 0, 71, 115
1, 172210, Note_off_c, 0, 71, 115
1, 172227, Note_on_c, 0, 69, 112
1, 172469, Note_off_c, 0, 69, 112
1, 172485, Note_on_c, 0, 67, 107
1, 172698, Note_off_c, 0, 67, 107
1, 172714, Note_on_c, 0, 66, 108
1, 172818, Note_off_c, 0, 66, 108
1, 172834, Note_on_c, 0, 65, 106
1, 173099, Note_off_c, 0, 65, 106
1, 173127, Note_on_c, 0, 67, 95
1, 173330, Note_off_c, 0, 67, 95
1, 173373, Note_on_c, 0, 69, 102
1, 173506, Note_off_c, 0, 69, 102
1, 173513, Note_on_c, 0, 71, 104
1, 173646, Note_off_c, 0, 71, 104
1, 173650, Note_on_c, 0, 74, 110
1, 173805, Note_off_c, 0, 74, 110
1, 173844, Note_on_c, 0, 73, 113
1, 174002, Note_off_c, 0, 73, 113
1, 174006, Note_on_c, 0, 71, 114
1, 174610, Note_off_c, 0, 71, 114
1, 174682, Note_on_c, 0, 67, 106
1, 174883, Note_off_c, 0, 67, 106
1, 174896, Note_on_c, 0, 64, 112
1, 175091, Note_off_c, 0, 64, 112
1, 175124, Note_on_c, 0, 60, 109
1, 175299, Note_off_c, 0, 60, 109
1, 175766, Note_on_c, 0, 73, 109
1, 175930, Note_off_c, 0, 73, 109
1, 175936, Note_on_c, 0, 71, 114
1, 176109, Note_off_c, 0, 71, 114
1, 176155, Note_on_c, 0, 68, 107
1, 176668, Note_off_c, 0, 68, 107
1, 176710, Note_on_c, 0, 66, 108
1, 176876, Note_off_c, 0, 66, 108
1, 176915, Note_on_c, 0, 65, 106
1, 177109, Note_off_c, 0, 65, 106
1, 177151, Note_on_c, 0, 64, 107
1, 177331, Note_off_c, 0, 64, 107
1, 177362, Note_on_c, 0, 63, 108
1, 177522, Note_off_c, 0, 63, 108
1, 177578, Note_on_c, 0, 65, 105
1, 177820, Note_off_c, 0, 65, 105
1, 177853, Note_on_c, 0, 60, 100
1, 177963, Note_off_c, 0, 60, 100
1, 177982, Note_on_c, 0, 63, 113
1, 178241, Note_off_c, 0, 63, 113
1, 178252, Note_on_c, 0, 62, 105
1, 178360, Note_off_c, 0, 62, 105
1, 178384, Note_on_c, 0, 60, 103
1, 178581, Note_off_c, 0, 60, 103
1, 178607, Note_on_c, 0, 58, 101
1, 178840, Note_off_c, 0, 58, 101
1, 178846, Note_on_c, 0, 57, 100
1, 179093, Note_off_c, 0, 57, 100
1, 179112, Note_on_c, 0, 56, 106
1, 179247, Note_off_c, 0, 56, 106
1, 179299, Note_on_c, 0, 59, 105
1, 179476, Note_off_c, 0, 59, 105
1, 179502, Note_on_c, 0, 58, 101
1, 179623, Note_off_c, 0, 58, 101
1, 179648, Note_on_c, 0, 54, 103
1, 179847, Note_off_c, 0, 54, 103
1, 179859, Note_on_c, 0, 53, 102
1, 180055, Note_off_c, 0, 53, 102
1, 180087, Note_on_c, 0, 51, 94
1, 180273, Note_off_c, 0, 51, 94
1, 180299, Note_on_c, 0, 56, 110
1, 180492, Note_off_c, 0, 56, 110
1, 180504, Note_on_c, 0, 54, 103
1, 180664, Note_off_c, 0, 54, 103
1, 180699, Note_on_c, 0, 51, 97
1, 180881, Note_off_c, 0, 51, 97
1, 180916, Note_on_c, 0, 49, 94
1, 181091, Note_off_c, 0, 49, 94
1, 181122, Note_on_c, 0, 53, 103
1, 181336, Note_off_c, 0, 53, 103
1, 181406, Note_on_c, 0, 49, 91
1, 181575, Note_off_c, 0, 49, 91
1, 181591, Note_on_c, 0, 51, 98
1, 181862, Note_off_c, 0, 51, 98
1, 182495, Note_on_c, 0, 65, 109
1, 182590, Note_off_c, 0, 65, 109
1, 182597, Note_on_c, 0, 63, 107
1, 182858, Note_off_c, 0, 63, 107
1, 182865, Note_on_c, 0, 65, 99
1, 184493, Note_off_c, 0, 65, 99
1, 184522, Note_on_c, 0, 63, 104
1, 184753, Note_off_c, 0, 63, 104
1, 184754, Note_on_c, 0, 65, 101
1, 185417, Note_off_c, 0, 65, 101
1, 185441, Note_on_c, 0, 63, 113
1, 185826, Note_off_c, 0, 63, 113
1, 186074, Note_on_c, 0, 68, 108
1, 186365, Note_off_c, 0, 68, 108
1, 186365, Note_on_c, 0, 70, 112
1, 186793, Note_off_c, 0, 70, 112
1, 186836, Note_on_c, 0, 70, 107
1, 188206, Note_off_c, 0, 70, 107
1, 189642, Note_on_c, 0, 70, 110
1, 189935, Note_off_c, 0, 70, 110
1, 189944, Note_on_c, 0, 72, 109
1, 193033, Note_off_c, 0, 72, 109
1, 193124, Note_on_c, 0, 68, 83
1, 193302, Note_off_c, 0, 68, 83
1, 193357, Note_on_c, 0, 72, 115
1, 193571, Note_off_c, 0, 72, 115
1, 193594, Note_on_c, 0, 68, 100
1, 193768, Note_off_c, 0, 68, 100
1, 193811, Note_on_c, 0, 72, 117
1, 193981, Note_off_c, 0, 72, 117
1, 194000, Note_on_c, 0, 68, 96
1, 195326, Note_off_c, 0, 68, 96
1, 195373, Note_on_c, 0, 65, 95
1, 195547, Note_off_c, 0, 65, 95
1, 195646, Note_on_c, 0, 63, 95
1, 195824, Note_off_c, 0, 63, 95
1, 195847, Note_on_c, 0, 65, 102
1, 196017, Note_off_c, 0, 65, 102
1, 196076, Note_on_c, 0, 63, 99
1, 198236, Note_off_c, 0, 63, 99
1, 198478, Note_on_c, 0, 63, 101
1, 198654, Note_off_c, 0, 63, 101
1, 198663, Note_on_c, 0, 61, 95
1, 199286, Note_off_c, 0, 61, 95
1, 199319, Note_on_c, 0, 56, 93
1, 199475, Note_off_c, 0, 56, 93
1, 199482, Note_on_c, 0, 63, 108
1, 199700, Note_off_c, 0, 63, 108
1, 199727, Note_on_c, 0, 61, 104
1, 199877, Note_off_c, 0, 61, 104
1, 199913, Note_on_c, 0, 59, 101
1, 200111, Note_off_c, 0, 59, 101
1, 200124, Note_on_c, 0, 58, 98
1, 200251, Note_off_c, 0, 58, 98
1, 200319, Note_on_c, 0, 57, 99
1, 200504, Note_off_c, 0, 57, 99
1, 200561, Note_on_c, 0, 61, 96
1, 200668, Note_off_c, 0, 61, 96
1, 200703, Note_on_c, 0, 59, 98
1, 200933, Note_off_c, 0, 59, 98
1, 200948, Note_on_c, 0, 57, 101
1, 201118, Note_off_c, 0, 57, 101
1, 201180, Note_on_c, 0, 56, 98
1, 201338, Note_off_c, 0, 56, 98
1, 201380, Note_on_c, 0, 53, 95
1, 201532, Note_off_c, 0, 53, 95
1, 201571, Note_on_c, 0, 50, 96
1, 201729, Note_off_c, 0, 50, 96
1, 201912, Note_on_c, 0, 53, 101
1, 202105, Note_off_c, 0, 53, 101
1, 203972, Note_on_c, 0, 55, 97
1, 204159, Note_off_c, 0, 55, 97
1, 204172, Note_on_c, 0, 57, 114
1, 204326, Note_off_c, 0, 57, 114
1, 204349, Note_on_c, 0, 59, 113
1, 204507, Note_off_c, 0, 59, 113
1, 204566, Note_on_c, 0, 62, 105
1, 204732, Note_off_c, 0, 62, 105
1, 204767, Note_on_c, 0, 59, 99
1, 204949, Note_off_c, 0, 59, 99
1, 204961, Note_on_c, 0, 55, 96
1, 205209, Note_off_c, 0, 55, 96
1, 205210, Note_on_c, 0, 61, 105
1, 205818, Note_off_c, 0, 61, 105
1, 205841, Note_on_c, 0, 67, 112
1, 205995, Note_off_c, 0, 67, 112
1, 206004, Note_on_c, 0, 69, 112
1, 206107, Note_off_c, 0, 69, 112
1, 206115, Note_on_c, 0, 71, 117
1, 206362, Note_off_c, 0, 71, 117
1, 206400, Note_on_c, 0, 61, 107
1, 206837, Note_off_c, 0, 61, 107
1, 207680, Note_on_c, 0, 63, 115
1, 207985, Note_off_c, 0, 63, 115
1, 208044, Note_on_c, 0, 61, 94
1, 208377, Note_off_c, 0, 61, 94
1, 208531, Note_on_c, 0, 73, 110
1, 209591, Note_off_c, 0, 73, 110
1, 209622, Note_on_c, 0, 71, 114
1, 209780, Note_off_c, 0, 71, 114
1, 209799, Note_on_c, 0, 70, 117
1, 210120, Note_off_c, 0, 70, 117
1, 210360, Note_on_c, 0, 70, 114
1, 211822, Note_off_c, 0, 70, 114
1, 212078, Note_on_c, 0, 73, 107
1, 212840, Note_off_c, 0, 73, 107
1, 212853, Note_on_c, 0, 72, 105
1, 212964, Note_off_c, 0, 72, 105
1, 212995, Note_on_c, 0, 73, 105
1, 213415, Note_off_c, 0, 73, 105
1, 213453, Note_on_c, 0, 63, 102
1, 213712, Note_off_c, 0, 63, 102
1, 213743, Note_on_c, 0, 65, 93
1, 215089, Note_off_c, 0, 65, 93
1, 215210, Note_on_c, 0, 65, 91
1, 216517, Note_off_c, 0, 65, 91
1, 218467, Note_on_c, 0, 65, 109
1, 218617, Note_off_c, 0, 65, 109
1, 218688, Note_on_c, 0, 63, 113
1, 218966, Note_off_c, 0, 63, 113
1, 219069, Note_on_c, 0, 65, 107
1, 219271, Note_off_c, 0, 65, 107
1, 219278, Note_on_c, 0, 66, 109
1, 219742, Note_off_c, 0, 66, 109
1, 219761, Note_on_c, 0, 65, 105
1, 220257, Note_off_c, 0, 65, 105
1, 220273, Note_on_c, 0, 61, 102
1, 223319, Note_off_c, 0, 61, 102
1, 223469, Note_on_c, 0, 58, 99
1, 223651, Note_off_c, 0, 58, 99
1, 223811, Note_on_c, 0, 63, 96
1, 223979, Note_off_c, 0, 63, 96
1, 223980, Note_on_c, 0, 67, 85
1, 224119, Note_off_c, 0, 67, 85
1, 224168, Note_on_c, 0, 57, 98
1, 225975, Note_off_c, 0, 57, 98
1, 225982, Note_on_c, 0, 54, 94
1, 226145, Note_off_c, 0, 54, 94
1, 226191, Note_on_c, 0, 56, 96
1, 226366, Note_off_c, 0, 56, 96
1, 226382, Note_on_c, 0, 59, 93
1, 226579, Note_off_c, 0, 59, 93
1, 226608, Note_on_c, 0, 55, 90
1, 227469, Note_off_c, 0, 55, 90
1, 227590, Note_on_c, 0, 49, 98
1, 227753, Note_off_c, 0, 49, 98
1, 227796, Note_on_c, 0, 51, 94
1, 227978, Note_off_c, 0, 51, 94
1, 228033, Note_on_c, 0, 55, 101
1, 228152, Note_off_c, 0, 55, 101
1, 228586, Note_on_c, 0, 49, 85
1, 228783, Note_off_c, 0, 49, 85
1, 229006, Note_on_c, 0, 56, 90
1, 230364, Note_off_c, 0, 56, 90
1, 230417, Note_on_c, 0, 53, 94
1, 231309, Note_off_c, 0, 53, 94
1, 232462, Note_on_c, 0, 66, 9
1, 233270, Note_off_c, 0, 66, 9
1, 233287, Note_on_c, 0, 65, 127
1, 233388, Note_off_c, 0, 65, 127
1, 233400, Note_on_c, 0, 66, 108
1, 233993, Note_off_c, 0, 66, 108
1, 234060, Note_on_c, 0, 63, 95
1, 236844, Note_off_c, 0, 63, 95
1, 236844, End_track
0, 0, End_of_file
