0, 0, Header, 1, 1, 840
1, 0, Start_track
1, 0, Title_t, "Melody"
1, 0, Tempo, 422535
1, 0, Key_signature, 2, "major"
1, 0, Time_signature, 4, 2, 24, 8
1, 4787, Note_on_c, 0, 62, 106
1, 5176, Note_off_c, 0, 62, 106
1, 5176, Note_on_c, 0, 65, 103
1, 5662, Note_off_c, 0, 65, 103
1, 5662, Note_on_c, 0, 67, 105
1, 8209, Note_off_c, 0, 67, 105
1, 8209, Note_on_c, 0, 69, 111
1, 8724, Note_off_c, 0, 69, 111
1, 10691, Note_on_c, 0, 62, 110
1, 11037, Note_off_c, 0, 62, 110
1, 11128, Note_on_c, 0, 65, 106
1, 11549, Note_off_c, 0, 65, 106
1, 11549, Note_on_c, 0, 67, 111
1, 12207, Note_off_c, 0, 67, 111
1, 12229, Note_on_c, 0, 64, 122
1, 13604, Note_off_c, 0, 64, 122
1, 15007, Note_on_c, 0, 69, 106
1, 15766, Note_on_c, 0, 67, 107
1, 15766, Note_off_c, 0, 69, 106
1, 16129, Note_off_c, 0, 67, 107
1, 16138, Note_on_c, 0, 65, 104
1, 16624, Note_on_c, 0, 57, 95
1, 16624, Note_off_c, 0, 65, 104
1, 16973, Note_off_c, 0, 57, 95
1, 17045, Note_on_c, 0, 62, 101
1, 17475, Note_off_c, 0, 62, 101
1, 17482, Note_on_c, 0, 65, 106
1, 18254, Note_off_c, 0, 65, 106
1, 18309, Note_on_c, 0, 65, 107
1, 18810, Note_off_c, 0, 65, 107
1, 18925, Note_on_c, 0, 65, 108
1, 19184, Note_off_c, 0, 65, 108
1, 19394, Note_on_c, 0, 65, 108
1, 19669, Note_on_c, 0, 67, 109
1, 19669, Note_off_c, 0, 65, 108
1, 20224, Note_off_c, 0, 67, 109
1, 20285, Note_on_c, 0, 67, 108
1, 20767, Note_off_c, 0, 67, 108
1, 20949, Note_on_c, 0, 67, 103
1, 22494, Note_off_c, 0, 67, 103
1, 22749, Note_on_c, 0, 69, 95
1, 23327, Note_off_c, 0, 69, 95
1, 25215, Note_on_c, 0, 62, 106
1, 25538, Note_off_c, 0, 62, 106
1, 25571, Note_on_c, 0, 65, 107
1, 25976, Note_off_c, 0, 65, 107
1, 25976, Note_on_c, 0, 67, 110
1, 27686, Note_off_c, 0, 67, 110
1, 27862, Note_on_c, 0, 64, 121
1, 28388, Note_off_c, 0, 64, 121
1, 30967, Note_on_c, 0, 62, 102
1, 31187, Note_off_c, 0, 62, 102
1, 31191, Note_on_c, 0, 65, 105
1, 31455, Note_off_c, 0, 65, 105
1, 31485, Note_on_c, 0, 67, 111
1, 31731, Note_off_c, 0, 67, 111
1, 31732, Note_on_c, 0, 69, 101
1, 32646, Note_off_c, 0, 69, 101
1, 32729, Note_on_c, 0, 72, 112
1, 32907, Note_off_c, 0, 72, 112
1, 32907, Note_on_c, 0, 69, 106
1, 33074, Note_on_c, 0, 67, 107
1, 33074, Note_off_c, 0, 69, 106
1, 33218, Note_off_c, 0, 67, 107
1, 33218, Note_on_c, 0, 65, 107
1, 33379, Note_off_c, 0, 65, 107
1, 33379, Note_on_c, 0, 62, 101
1, 33569, Note_off_c, 0, 62, 101
1, 33569, Note_on_c, 0, 65, 101
1, 33701, Note_off_c, 0, 65, 101
1, 33701, Note_on_c, 0, 67, 110
1, 33822, Note_off_c, 0, 67, 110
1, 33822, Note_on_c, 0, 69, 109
1, 33902, Note_off_c, 0, 69, 109
1, 33902, Note_on_c, 0, 72, 116
1, 34805, Note_off_c, 0, 72, 116
1, 35164, Note_on_c, 0, 69, 103
1, 35250, Note_off_c, 0, 69, 103
1, 35250, Note_on_c, 0, 72, 116
1, 35605, Note_off_c, 0, 72, 116
1, 35682, Note_on_c, 0, 69, 104
1, 35832, Note_off_c, 0, 69, 104
1, 35837, Note_on_c, 0, 67, 102
1, 35950, Note_off_c, 0, 67, 102
1, 35962, Note_on_c, 0, 65, 100
1, 36100, Note_on_c, 0, 62, 88
1, 36100, Note_off_c, 0, 65, 100
1, 36434, Note_off_c, 0, 62, 88
1, 38747, Note_on_c, 0, 62, 104
1, 38873, Note_off_c, 0, 62, 104
1, 38873, Note_on_c, 0, 65, 95
1, 39034, Note_on_c, 0, 67, 100
1, 39034, Note_off_c, 0, 65, 95
1, 39155, Note_off_c, 0, 67, 100
1, 39155, Note_on_c, 0, 69, 107
1, 39296, Note_off_c, 0, 69, 107
1, 39298, Note_on_c, 0, 72, 113
1, 40215, Note_off_c, 0, 72, 113
1, 40335, Note_on_c, 0, 74, 106
1, 40536, Note_off_c, 0, 74, 106
1, 40536, Note_on_c, 0, 72, 107
1, 40701, Note_off_c, 0, 72, 107
1, 40788, Note_on_c, 0, 74, 106
1, 41095, Note_off_c, 0, 74, 106
1, 41221, Note_on_c, 0, 69, 98
1, 42074, Note_off_c, 0, 69, 98
1, 42074, Note_on_c, 0, 72, 106
1, 42212, Note_off_c, 0, 72, 106
1, 42212, Note_on_c, 0, 69, 97
1, 42338, Note_off_c, 0, 69, 97
1, 42338, Note_on_c, 0, 67, 103
1, 42455, Note_off_c, 0, 67, 103
1, 42493, Note_on_c, 0, 65, 99
1, 42631, Note_off_c, 0, 65, 99
1, 42631, Note_on_c, 0, 62, 87
1, 42824, Note_off_c, 0, 62, 87
1, 45319, Note_on_c, 0, 62, 89
1, 45486, Note_off_c, 0, 62, 89
1, 45532, Note_on_c, 0, 65, 97
1, 45699, Note_off_c, 0, 65, 97
1, 45699, Note_on_c, 0, 67, 98
1, 45820, Note_off_c, 0, 67, 98
1, 45820, Note_on_c, 0, 69, 98
1, 46074, Note_off_c, 0, 69, 98
1, 46119, Note_on_c, 0, 72, 110
1, 47688, Note_off_c, 0, 72, 110
1, 47688, Note_on_c, 0, 69, 95
1, 47849, Note_off_c, 0, 69, 95
1, 47849, Note_on_c, 0, 72, 108
1, 48055, Note_off_c, 0, 72, 108
1, 48125, Note_on_c, 0, 69, 104
1, 48852, Note_off_c, 0, 69, 104
1, 48852, Note_on_c, 0, 72, 106
1, 49030, Note_off_c, 0, 72, 106
1, 49035, Note_on_c, 0, 69, 100
1, 49369, Note_off_c, 0, 69, 100
1, 49369, Note_on_c, 0, 67, 102
1, 49519, Note_off_c, 0, 67, 102
1, 49519, Note_on_c, 0, 65, 102
1, 49682, Note_off_c, 0, 65, 102
1, 49731, Note_on_c, 0, 62, 98
1, 50117, Note_off_c, 0, 62, 98
1, 51524, Note_on_c, 0, 70, 105
1, 51775, Note_off_c, 0, 70, 105
1, 51788, Note_on_c, 0, 69, 104
1, 52919, Note_off_c, 0, 69, 104
1, 53063, Note_on_c, 0, 64, 105
1, 53293, Note_off_c, 0, 64, 105
1, 53293, Note_on_c, 0, 67, 99
1, 53535, Note_off_c, 0, 67, 99
1, 53535, Note_on_c, 0, 64, 97
1, 53725, Note_off_c, 0, 64, 97
1, 53725, Note_on_c, 0, 65, 98
1, 54134, Note_on_c, 0, 57, 89
1, 54134, Note_off_c, 0, 65, 98
1, 54335, Note_off_c, 0, 57, 89
1, 54335, Note_on_c, 0, 59, 89
1, 54519, Note_off_c, 0, 59, 89
1, 54519, Note_on_c, 0, 61, 106
1, 54680, Note_off_c, 0, 61, 106
1, 54680, Note_on_c, 0, 62, 88
1, 54856, Note_off_c, 0, 62, 88
1, 54887, Note_on_c, 0, 64, 105
1, 54996, Note_off_c, 0, 64, 105
1, 55065, Note_on_c, 0, 65, 99
1, 55261, Note_off_c, 0, 65, 99
1, 55261, Note_on_c, 0, 62, 92
1, 55872, Note_on_c, 0, 57, 95
1, 55872, Note_off_c, 0, 62, 92
1, 56069, Note_off_c, 0, 57, 95
1, 56113, Note_on_c, 0, 55, 89
1, 56301, Note_off_c, 0, 55, 89
1, 56331, Note_on_c, 0, 53, 90
1, 56509, Note_off_c, 0, 53, 90
1, 58333, Note_on_c, 0, 56, 87
1, 58475, Note_off_c, 0, 56, 87
1, 58475, Note_on_c, 0, 58, 92
1, 58622, Note_off_c, 0, 58, 92
1, 58648, Note_on_c, 0, 59, 88
1, 58854, Note_off_c, 0, 59, 88
1, 58854, Note_on_c, 0, 60, 97
1, 59053, Note_off_c, 0, 60, 97
1, 59080, Note_on_c, 0, 63, 103
1, 59278, Note_off_c, 0, 63, 103
1, 59278, Note_on_c, 0, 66, 94
1, 59422, Note_off_c, 0, 66, 94
1, 59451, Note_on_c, 0, 68, 103
1, 59542, Note_off_c, 0, 68, 103
1, 59608, Note_on_c, 0, 70, 109
1, 59695, Note_off_c, 0, 70, 109
1, 59716, Note_on_c, 0, 72, 109
1, 61345, Note_off_c, 0, 72, 109
1, 61390, Note_on_c, 0, 68, 103
1, 61492, Note_off_c, 0, 68, 103
1, 61584, Note_on_c, 0, 72, 101
1, 61782, Note_off_c, 0, 72, 101
1, 61782, Note_on_c, 0, 70, 112
1, 63571, Note_off_c, 0, 70, 112
1, 63611, Note_on_c, 0, 66, 94
1, 63722, Note_off_c, 0, 66, 94
1, 63784, Note_on_c, 0, 70, 100
1, 63955, Note_off_c, 0, 70, 100
1, 63966, Note_on_c, 0, 68, 98
1, 64708, Note_off_c, 0, 68, 98
1, 64735, Note_on_c, 0, 69, 96
1, 64872, Note_off_c, 0, 69, 96
1, 64872, Note_on_c, 0, 72, 109
1, 65002, Note_off_c, 0, 72, 109
1, 65034, Note_on_c, 0, 70, 101
1, 65161, Note_off_c, 0, 70, 101
1, 65188, Note_on_c, 0, 64, 98
1, 65317, Note_off_c, 0, 64, 98
1, 65317, Note_on_c, 0, 65, 98
1, 65457, Note_off_c, 0, 65, 98
1, 65462, Note_on_c, 0, 68, 101
1, 65604, Note_off_c, 0, 68, 101
1, 65604, Note_on_c, 0, 66, 97
1, 65739, Note_off_c, 0, 66, 97
1, 65745, Note_on_c, 0, 61, 98
1, 65842, Note_off_c, 0, 61, 98
1, 65842, Note_on_c, 0, 62, 96
1, 65970, Note_off_c, 0, 62, 96
1, 65992, Note_on_c, 0, 65, 99
1, 66125, Note_off_c, 0, 65, 99
1, 66125, Note_on_c, 0, 63, 96
1, 66279, Note_off_c, 0, 63, 96
1, 66302, Note_on_c, 0, 56, 91
1, 66439, Note_off_c, 0, 56, 91
1, 66455, Note_on_c, 0, 57, 89
1, 66552, Note_off_c, 0, 57, 89
1, 66632, Note_on_c, 0, 60, 105
1, 66811, Note_off_c, 0, 60, 105
1, 66892, Note_on_c, 0, 56, 89
1, 67056, Note_off_c, 0, 56, 89
1, 67068, Note_on_c, 0, 57, 91
1, 67248, Note_off_c, 0, 57, 91
1, 67248, Note_on_c, 0, 60, 100
1, 67397, Note_off_c, 0, 60, 100
1, 67397, Note_on_c, 0, 58, 91
1, 68397, Note_off_c, 0, 58, 91
1, 68593, Note_on_c, 0, 54, 93
1, 68779, Note_on_c, 0, 53, 90
1, 68779, Note_off_c, 0, 54, 93
1, 69002, Note_off_c, 0, 53, 90
1, 69014, Note_on_c, 0, 51, 93
1, 69233, Note_on_c, 0, 56, 98
1, 69233, Note_off_c, 0, 51, 93
1, 69473, Note_off_c, 0, 56, 98
1, 71151, Note_on_c, 0, 56, 97
1, 71339, Note_off_c, 0, 56, 97
1, 71414, Note_on_c, 0, 58, 96
1, 71585, Note_off_c, 0, 58, 96
1, 71591, Note_on_c, 0, 60, 101
1, 72018, Note_off_c, 0, 60, 101
1, 72045, Note_on_c, 0, 56, 81
1, 72320, Note_off_c, 0, 56, 81
1, 72368, Note_on_c, 0, 61, 102
1, 72802, Note_off_c, 0, 61, 102
1, 72802, Note_on_c, 0, 58, 88
1, 73033, Note_off_c, 0, 58, 88
1, 73033, Note_on_c, 0, 62, 106
1, 73522, Note_off_c, 0, 62, 106
1, 73531, Note_on_c, 0, 58, 84
1, 73741, Note_off_c, 0, 58, 84
1, 73741, Note_on_c, 0, 63, 108
1, 74399, Note_off_c, 0, 63, 108
1, 74539, Note_on_c, 0, 65, 98
1, 74764, Note_off_c, 0, 65, 98
1, 74854, Note_on_c, 0, 66, 101
1, 75154, Note_off_c, 0, 66, 101
1, 75177, Note_on_c, 0, 65, 93
1, 75578, Note_off_c, 0, 65, 93
1, 75578, Note_on_c, 0, 66, 100
1, 75872, Note_off_c, 0, 66, 100
1, 75974, Note_on_c, 0, 70, 100
1, 76359, Note_off_c, 0, 70, 100
1, 76452, Note_on_c, 0, 73, 97
1, 76890, Note_off_c, 0, 73, 97
1, 76890, Note_on_c, 0, 77, 106
1, 77130, Note_off_c, 0, 77, 106
1, 77367, Note_on_c, 0, 77, 85
1, 77849, Note_off_c, 0, 77, 85
1, 77857, Note_on_c, 0, 75, 106
1, 78065, Note_off_c, 0, 75, 106
1, 78438, Note_on_c, 0, 75, 105
1, 79470, Note_off_c, 0, 75, 105
1, 79712, Note_on_c, 0, 73, 106
1, 80000, Note_off_c, 0, 73, 106
1, 80000, Note_on_c, 0, 72, 105
1, 80335, Note_off_c, 0, 72, 105
1, 80455, Note_on_c, 0, 68, 90
1, 80727, Note_off_c, 0, 68, 90
1, 80783, Note_on_c, 0, 69, 100
1, 80886, Note_off_c, 0, 69, 100
1, 80903, Note_on_c, 0, 71, 109
1, 81018, Note_off_c, 0, 71, 109
1, 81046, Note_on_c, 0, 70, 105
1, 81242, Note_off_c, 0, 70, 105
1, 81242, Note_on_c, 0, 66, 98
1, 81448, Note_off_c, 0, 66, 98
1, 81581, Note_on_c, 0, 63, 105
1, 81743, Note_off_c, 0, 63, 105
1, 84678, Note_on_c, 0, 57, 102
1, 84856, Note_off_c, 0, 57, 102
1, 84856, Note_on_c, 0, 59, 98
1, 85046, Note_on_c, 0, 61, 106
1, 85046, Note_off_c, 0, 59, 98
1, 85192, Note_off_c, 0, 61, 106
1, 85213, Note_on_c, 0, 62, 114
1, 87111, Note_off_c, 0, 62, 114
1, 87111, Note_on_c, 0, 61, 106
1, 87336, Note_off_c, 0, 61, 106
1, 87336, Note_on_c, 0, 59, 92
1, 87552, Note_off_c, 0, 59, 92
1, 87560, Note_on_c, 0, 58, 103
1, 87776, Note_off_c, 0, 58, 103
1, 87807, Note_on_c, 0, 57, 103
1, 88048, Note_off_c, 0, 57, 103
1, 88065, Note_on_c, 0, 53, 98
1, 88307, Note_off_c, 0, 53, 98
1, 88307, Note_on_c, 0, 52, 92
1, 88491, Note_on_c, 0, 50, 84
1, 88491, Note_off_c, 0, 52, 92
1, 88692, Note_off_c, 0, 50, 84
1, 88692, Note_on_c, 0, 53, 104
1, 89048, Note_off_c, 0, 53, 104
1, 90405, Note_on_c, 0, 57, 108
1, 90635, Note_off_c, 0, 57, 108
1, 90635, Note_on_c, 0, 59, 96
1, 90833, Note_off_c, 0, 59, 96
1, 90836, Note_on_c, 0, 61, 110
1, 91024, Note_off_c, 0, 61, 110
1, 91037, Note_on_c, 0, 62, 114
1, 92173, Note_off_c, 0, 62, 114
1, 92173, Note_on_c, 0, 61, 112
1, 92420, Note_off_c, 0, 61, 112
1, 92430, Note_on_c, 0, 59, 99
1, 92631, Note_off_c, 0, 59, 99
1, 92631, Note_on_c, 0, 58, 105
1, 92839, Note_off_c, 0, 58, 105
1, 92851, Note_on_c, 0, 57, 103
1, 93058, Note_off_c, 0, 57, 103
1, 93063, Note_on_c, 0, 53, 96
1, 93247, Note_off_c, 0, 53, 96
1, 93247, Note_on_c, 0, 52, 95
1, 93448, Note_off_c, 0, 52, 95
1, 93448, Note_on_c, 0, 50, 99
1, 93632, Note_on_c, 0, 53, 103
1, 93632, Note_off_c, 0, 50, 99
1, 93831, Note_off_c, 0, 53, 103
1, 93856, Note_on_c, 0, 55, 89
1, 94064, Note_off_c, 0, 55, 89
1, 94096, Note_on_c, 0, 57, 88
1, 94219, Note_off_c, 0, 57, 88
1, 94276, Note_on_c, 0, 59, 102
1, 94449, Note_off_c, 0, 59, 102
1, 94498, Note_on_c, 0, 61, 113
1, 94679, Note_off_c, 0, 61, 113
1, 94700, Note_on_c, 0, 62, 120
1, 94801, Note_off_c, 0, 62, 120
1, 94856, Note_on_c, 0, 64, 125
1, 95058, Note_off_c, 0, 64, 125
1, 95088, Note_on_c, 0, 61, 106
1, 95262, Note_off_c, 0, 61, 106
1, 95262, Note_on_c, 0, 62, 104
1, 95881, Note_off_c, 0, 62, 104
1, 97283, Note_on_c, 0, 57, 94
1, 97467, Note_off_c, 0, 57, 94
1, 97467, Note_on_c, 0, 59, 95
1, 97632, Note_off_c, 0, 59, 95
1, 97674, Note_on_c, 0, 61, 113
1, 97812, Note_off_c, 0, 61, 113
1, 97812, Note_on_c, 0, 62, 114
1, 98955, Note_off_c, 0, 62, 114
1, 98971, Note_on_c, 0, 61, 113
1, 99237, Note_off_c, 0, 61, 113
1, 99237, Note_on_c, 0, 59, 102
1, 99408, Note_off_c, 0, 59, 102
1, 99408, Note_on_c, 0, 58, 105
1, 99561, Note_off_c, 0, 58, 105
1, 99574, Note_on_c, 0, 57, 102
1, 99820, Note_off_c, 0, 57, 102
1, 99832, Note_on_c, 0, 53, 94
1, 100022, Note_on_c, 0, 52, 90
1, 100022, Note_off_c, 0, 53, 94
1, 100200, Note_off_c, 0, 52, 90
1, 100200, Note_on_c, 0, 50, 88
1, 100355, Note_off_c, 0, 50, 88
1, 100355, Note_on_c, 0, 53, 100
1, 100537, Note_off_c, 0, 53, 100
1, 100551, Note_on_c, 0, 55, 94
1, 100721, Note_off_c, 0, 55, 94
1, 100729, Note_on_c, 0, 57, 91
1, 100898, Note_off_c, 0, 57, 91
1, 100941, Note_on_c, 0, 59, 91
1, 101120, Note_off_c, 0, 59, 91
1, 101130, Note_on_c, 0, 61, 111
1, 101305, Note_off_c, 0, 61, 111
1, 101319, Note_on_c, 0, 62, 111
1, 101491, Note_off_c, 0, 62, 111
1, 101514, Note_on_c, 0, 64, 125
1, 101739, Note_off_c, 0, 64, 125
1, 101739, Note_on_c, 0, 61, 102
1, 101915, Note_off_c, 0, 61, 102
1, 101935, Note_on_c, 0, 62, 109
1, 102163, Note_off_c, 0, 62, 109
1, 102206, Note_on_c, 0, 65, 93
1, 102426, Note_off_c, 0, 65, 93
1, 102499, Note_on_c, 0, 69, 77
1, 102764, Note_off_c, 0, 69, 77
1, 102764, Note_on_c, 0, 71, 99
1, 102925, Note_off_c, 0, 71, 99
1, 102925, Note_on_c, 0, 76, 120
1, 103236, Note_off_c, 0, 76, 120
1, 104124, Note_on_c, 0, 57, 93
1, 104347, Note_off_c, 0, 57, 93
1, 104347, Note_on_c, 0, 59, 92
1, 104553, Note_off_c, 0, 59, 92
1, 104569, Note_on_c, 0, 61, 104
1, 104750, Note_off_c, 0, 61, 104
1, 104783, Note_on_c, 0, 62, 104
1, 104977, Note_off_c, 0, 62, 104
1, 104977, Note_on_c, 0, 64, 118
1, 105214, Note_off_c, 0, 64, 118
1, 105232, Note_on_c, 0, 61, 99
1, 105422, Note_off_c, 0, 61, 99
1, 105422, Note_on_c, 0, 62, 105
1, 105670, Note_off_c, 0, 62, 105
1, 105701, Note_on_c, 0, 64, 108
1, 105909, Note_off_c, 0, 64, 108
1, 105909, Note_on_c, 0, 65, 94
1, 106102, Note_off_c, 0, 65, 94
1, 106102, Note_on_c, 0, 67, 101
1, 106215, Note_off_c, 0, 67, 101
1, 106223, Note_on_c, 0, 69, 114
1, 108584, Note_off_c, 0, 69, 114
1, 108892, Note_on_c, 0, 73, 110
1, 108983, Note_off_c, 0, 73, 110
1, 109013, Note_on_c, 0, 74, 104
1, 109129, Note_off_c, 0, 74, 104
1, 109137, Note_on_c, 0, 73, 107
1, 109250, Note_off_c, 0, 73, 107
1, 109250, Note_on_c, 0, 71, 104
1, 109342, Note_off_c, 0, 71, 104
1, 109387, Note_on_c, 0, 64, 127
1, 109474, Note_off_c, 0, 64, 127
1, 109479, Note_on_c, 0, 65, 104
1, 109727, Note_off_c, 0, 65, 104
1, 109803, Note_on_c, 0, 61, 107
1, 109880, Note_off_c, 0, 61, 107
1, 109880, Note_on_c, 0, 62, 103
1, 110085, Note_off_c, 0, 62, 103
1, 111388, Note_on_c, 0, 62, 102
1, 111681, Note_off_c, 0, 62, 102
1, 111681, Note_on_c, 0, 65, 90
1, 111927, Note_off_c, 0, 65, 90
1, 111927, Note_on_c, 0, 69, 109
1, 112081, Note_off_c, 0, 69, 109
1, 112190, Note_on_c, 0, 73, 113
1, 112307, Note_off_c, 0, 73, 113
1, 112307, Note_on_c, 0, 74, 112
1, 113442, Note_off_c, 0, 74, 112
1, 113790, Note_on_c, 0, 74, 102
1, 113990, Note_off_c, 0, 74, 102
1, 114017, Note_on_c, 0, 73, 111
1, 114217, Note_off_c, 0, 73, 111
1, 114292, Note_on_c, 0, 64, 123
1, 114553, Note_off_c, 0, 64, 123
1, 114567, Note_on_c, 0, 65, 105
1, 114854, Note_off_c, 0, 65, 105
1, 114854, Note_on_c, 0, 61, 107
1, 115040, Note_off_c, 0, 61, 107
1, 115040, Note_on_c, 0, 62, 110
1, 115885, Note_off_c, 0, 62, 110
1, 117262, Note_on_c, 0, 57, 100
1, 117420, Note_off_c, 0, 57, 100
1, 117420, Note_on_c, 0, 59, 99
1, 117606, Note_off_c, 0, 59, 99
1, 117606, Note_on_c, 0, 61, 103
1, 117759, Note_off_c, 0, 61, 103
1, 117772, Note_on_c, 0, 62, 107
1, 117970, Note_off_c, 0, 62, 107
1, 117970, Note_on_c, 0, 64, 109
1, 118144, Note_off_c, 0, 64, 109
1, 118144, Note_on_c, 0, 65, 94
1, 118294, Note_off_c, 0, 65, 94
1, 118294, Note_on_c, 0, 67, 89
1, 118483, Note_off_c, 0, 67, 89
1, 118622, Note_on_c, 0, 71, 97
1, 118703, Note_off_c, 0, 71, 97
1, 118905, Note_on_c, 0, 73, 9
1, 119011, Note_off_c, 0, 73, 9
1, 119026, Note_on_c, 0, 74, 9
1, 119407, Note_off_c, 0, 74, 9
1, 119439, Note_on_c, 0, 74, 102
1, 120665, Note_off_c, 0, 74, 102
1, 120665, Note_on_c, 0, 68, 94
1, 120984, Note_off_c, 0, 68, 94
1, 120984, Note_on_c, 0, 73, 105
1, 121105, Note_off_c, 0, 73, 105
1, 121121, Note_on_c, 0, 74, 98
1, 121271, Note_off_c, 0, 74, 98
1, 121311, Note_on_c, 0, 73, 109
1, 121440, Note_off_c, 0, 73, 109
1, 121440, Note_on_c, 0, 69, 101
1, 121525, Note_on_c, 0, 64, 122
1, 121525, Note_off_c, 0, 69, 101
1, 121669, Note_off_c, 0, 64, 122
1, 121682, Note_on_c, 0, 65, 100
1, 122176, Note_off_c, 0, 65, 100
1, 122216, Note_on_c, 0, 61, 105
1, 122293, Note_off_c, 0, 61, 105
1, 122293, Note_on_c, 0, 62, 104
1, 122593, Note_off_c, 0, 62, 104
1, 122625, Note_on_c, 0, 62, 108
1, 122752, Note_off_c, 0, 62, 108
1, 124324, Note_on_c, 0, 69, 103
1, 124511, Note_off_c, 0, 69, 103
1, 124822, Note_on_c, 0, 69, 94
1, 125225, Note_off_c, 0, 69, 94
1, 125296, Note_on_c, 0, 74, 105
1, 125661, Note_off_c, 0, 74, 105
1, 125661, Note_on_c, 0, 69, 97
1, 126029, Note_off_c, 0, 69, 97
1, 126106, Note_on_c, 0, 74, 109
1, 126446, Note_off_c, 0, 74, 109
1, 126446, Note_on_c, 0, 69, 96
1, 126758, Note_off_c, 0, 69, 96
1, 127062, Note_on_c, 0, 67, 102
1, 128169, Note_off_c, 0, 67, 102
1, 128185, Note_on_c, 0, 65, 91
1, 128424, Note_off_c, 0, 65, 91
1, 128424, Note_on_c, 0, 67, 104
1, 128764, Note_off_c, 0, 67, 104
1, 128764, Note_on_c, 0, 65, 100
1, 128921, Note_off_c, 0, 65, 100
1, 129189, Note_on_c, 0, 67, 106
1, 129456, Note_off_c, 0, 67, 106
1, 129456, Note_on_c, 0, 69, 107
1, 129646, Note_off_c, 0, 69, 107
1, 131776, Note_on_c, 0, 69, 104
1, 133609, Note_off_c, 0, 69, 104
1, 133669, Note_on_c, 0, 68, 103
1, 133875, Note_off_c, 0, 68, 103
1, 133875, Note_on_c, 0, 67, 97
1, 134124, Note_off_c, 0, 67, 97
1, 134138, Note_on_c, 0, 65, 100
1, 134385, Note_off_c, 0, 65, 100
1, 134385, Note_on_c, 0, 64, 108
1, 134559, Note_off_c, 0, 64, 108
1, 134559, Note_on_c, 0, 62, 98
1, 134753, Note_off_c, 0, 62, 98
1, 134761, Note_on_c, 0, 61, 95
1, 134971, Note_on_c, 0, 59, 89
1, 134971, Note_off_c, 0, 61, 95
1, 135198, Note_off_c, 0, 59, 89
1, 135198, Note_on_c, 0, 57, 87
1, 135340, Note_off_c, 0, 57, 87
1, 135340, Note_on_c, 0, 56, 91
1, 135507, Note_off_c, 0, 56, 91
1, 135510, Note_on_c, 0, 55, 87
1, 135698, Note_off_c, 0, 55, 87
1, 135801, Note_on_c, 0, 57, 88
1, 136041, Note_off_c, 0, 57, 88
1, 136056, Note_on_c, 0, 59, 83
1, 136282, Note_off_c, 0, 59, 83
1, 136282, Note_on_c, 0, 61, 97
1, 136484, Note_off_c, 0, 61, 97
1, 136484, Note_on_c, 0, 62, 98
1, 136666, Note_off_c, 0, 62, 98
1, 136666, Note_on_c, 0, 64, 110
1, 136866, Note_off_c, 0, 64, 110
1, 136908, Note_on_c, 0, 61, 96
1, 137112, Note_off_c, 0, 61, 96
1, 137126, Note_on_c, 0, 62, 96
1, 137347, Note_off_c, 0, 62, 96
1, 137389, Note_on_c, 0, 64, 96
1, 137664, Note_off_c, 0, 64, 96
1, 137692, Note_on_c, 0, 65, 92
1, 137862, Note_off_c, 0, 65, 92
1, 137870, Note_on_c, 0, 67, 89
1, 138024, Note_off_c, 0, 67, 89
1, 138024, Note_on_c, 0, 69, 94
1, 138766, Note_off_c, 0, 69, 94
1, 138766, Note_on_c, 0, 67, 97
1, 138948, Note_off_c, 0, 67, 97
1, 139013, Note_on_c, 0, 65, 90
1, 139206, Note_off_c, 0, 65, 90
1, 139217, Note_on_c, 0, 69, 97
1, 139477, Note_off_c, 0, 69, 97
1, 141485, Note_on_c, 0, 60, 98
1, 141655, Note_off_c, 0, 60, 98
1, 141655, Note_on_c, 0, 65, 104
1, 141813, Note_off_c, 0, 65, 104
1, 141813, Note_on_c, 0, 67, 111
1, 141983, Note_off_c, 0, 67, 111
1, 141983, Note_on_c, 0, 69, 108
1, 142344, Note_off_c, 0, 69, 108
1, 142396, Note_on_c, 0, 62, 110
1, 143049, Note_off_c, 0, 62, 110
1, 143053, Note_on_c, 0, 64, 119
1, 143572, Note_off_c, 0, 64, 119
1, 145020, Note_on_c, 0, 62, 106
1, 145202, Note_off_c, 0, 62, 106
1, 145202, Note_on_c, 0, 67, 98
1, 145400, Note_off_c, 0, 67, 98
1, 145400, Note_on_c, 0, 69, 98
1, 145554, Note_off_c, 0, 69, 98
1, 145554, Note_on_c, 0, 71, 108
1, 146466, Note_off_c, 0, 71, 108
1, 146466, Note_on_c, 0, 62, 88
1, 146616, Note_off_c, 0, 62, 88
1, 146616, Note_on_c, 0, 67, 95
1, 146794, Note_off_c, 0, 67, 95
1, 146794, Note_on_c, 0, 69, 106
1, 146960, Note_off_c, 0, 69, 106
1, 146960, Note_on_c, 0, 71, 106
1, 147203, Note_off_c, 0, 71, 106
1, 147203, Note_on_c, 0, 67, 107
1, 147391, Note_off_c, 0, 67, 107
1, 147413, Note_on_c, 0, 65, 96
1, 147607, Note_off_c, 0, 65, 96
1, 147607, Note_on_c, 0, 67, 106
1, 147789, Note_on_c, 0, 69, 107
1, 147789, Note_off_c, 0, 67, 106
1, 148739, Note_off_c, 0, 69, 107
1, 148786, Note_on_c, 0, 65, 95
1, 148928, Note_off_c, 0, 65, 95
1, 148936, Note_on_c, 0, 67, 100
1, 149053, Note_off_c, 0, 67, 100
1, 149053, Note_on_c, 0, 69, 102
1, 149259, Note_off_c, 0, 69, 102
1, 149259, Note_on_c, 0, 67, 104
1, 149975, Note_off_c, 0, 67, 104
1, 149996, Note_on_c, 0, 64, 112
1, 150228, Note_off_c, 0, 64, 112
1, 151448, Note_on_c, 0, 62, 105
1, 151617, Note_off_c, 0, 62, 105
1, 151752, Note_on_c, 0, 67, 84
1, 151987, Note_off_c, 0, 67, 84
1, 151987, Note_on_c, 0, 69, 91
1, 152216, Note_off_c, 0, 69, 91
1, 152228, Note_on_c, 0, 71, 108
1, 152483, Note_off_c, 0, 71, 108
1, 152483, Note_on_c, 0, 72, 112
1, 152769, Note_on_c, 0, 71, 91
1, 152769, Note_off_c, 0, 72, 112
1, 153162, Note_off_c, 0, 71, 91
1, 153162, Note_on_c, 0, 72, 113
1, 153811, Note_off_c, 0, 72, 113
1, 153831, Note_on_c, 0, 71, 109
1, 154108, Note_off_c, 0, 71, 109
1, 154134, Note_on_c, 0, 67, 79
1, 154377, Note_on_c, 0, 65, 84
1, 154377, Note_off_c, 0, 67, 79
1, 154579, Note_off_c, 0, 65, 84
1, 154579, Note_on_c, 0, 67, 100
1, 154700, Note_off_c, 0, 67, 100
1, 154700, Note_on_c, 0, 69, 110
1, 154894, Note_off_c, 0, 69, 110
1, 154894, Note_on_c, 0, 70, 114
1, 155438, Note_off_c, 0, 70, 114
1, 155680, Note_on_c, 0, 69, 102
1, 156020, Note_off_c, 0, 69, 102
1, 156020, Note_on_c, 0, 70, 110
1, 156348, Note_off_c, 0, 70, 110
1, 156348, Note_on_c, 0, 69, 106
1, 156938, Note_off_c, 0, 69, 106
1, 158129, Note_on_c, 0, 62, 105
1, 158348, Note_off_c, 0, 62, 105
1, 158400, Note_on_c, 0, 67, 78
1, 158661, Note_off_c, 0, 67, 78
1, 158699, Note_on_c, 0, 69, 98
1, 158926, Note_off_c, 0, 69, 98
1, 158926, Note_on_c, 0, 71, 110
1, 159098, Note_off_c, 0, 71, 110
1, 159144, Note_on_c, 0, 72, 110
1, 160623, Note_off_c, 0, 72, 110
1, 160623, Note_on_c, 0, 71, 106
1, 160839, Note_off_c, 0, 71, 106
1, 160839, Note_on_c, 0, 72, 109
1, 161090, Note_off_c, 0, 72, 109
1, 161090, Note_on_c, 0, 71, 99
1, 161333, Note_off_c, 0, 71, 99
1, 161333, Note_on_c, 0, 69, 102
1, 161546, Note_off_c, 0, 69, 102
1, 161571, Note_on_c, 0, 67, 100
1, 161733, Note_off_c, 0, 67, 100
1, 161733, Note_on_c, 0, 66, 97
1, 161911, Note_off_c, 0, 66, 97
1, 161911, Note_on_c, 0, 65, 96
1, 162089, Note_off_c, 0, 65, 96
1, 162163, Note_on_c, 0, 69, 102
1, 162381, Note_on_c, 0, 64, 114
1, 162381, Note_off_c, 0, 69, 102
1, 162554, Note_off_c, 0, 64, 114
1, 162554, Note_on_c, 0, 67, 90
1, 162752, Note_off_c, 0, 67, 90
1, 162752, Note_on_c, 0, 65, 94
1, 162931, Note_off_c, 0, 65, 94
1, 162962, Note_on_c, 0, 64, 115
1, 163135, Note_off_c, 0, 64, 115
1, 163136, Note_on_c, 0, 62, 88
1, 163652, Note_off_c, 0, 62, 88
1, 165919, Note_on_c, 0, 60, 104
1, 166107, Note_off_c, 0, 60, 104
1, 166121, Note_on_c, 0, 61, 100
1, 166324, Note_off_c, 0, 61, 100
1, 166331, Note_on_c, 0, 63, 111
1, 168165, Note_off_c, 0, 63, 111
1, 168180, Note_on_c, 0, 63, 106
1, 168515, Note_off_c, 0, 63, 106
1, 168634, Note_on_c, 0, 63, 107
1, 168863, Note_off_c, 0, 63, 107
1, 169148, Note_on_c, 0, 63, 103
1, 169728, Note_off_c, 0, 63, 103
1, 169762, Note_on_c, 0, 58, 85
1, 170542, Note_off_c, 0, 58, 85
1, 171491, Note_on_c, 0, 53, 102
1, 171719, Note_off_c, 0, 53, 102
1, 171729, Note_on_c, 0, 56, 98
1, 171939, Note_on_c, 0, 54, 95
1, 171939, Note_off_c, 0, 56, 98
1, 172161, Note_off_c, 0, 54, 95
1, 172177, Note_on_c, 0, 56, 94
1, 172395, Note_off_c, 0, 56, 94
1, 172403, Note_on_c, 0, 58, 91
1, 172595, Note_off_c, 0, 58, 91
1, 172601, Note_on_c, 0, 60, 95
1, 172779, Note_off_c, 0, 60, 95
1, 172779, Note_on_c, 0, 61, 103
1, 172959, Note_off_c, 0, 61, 103
1, 172964, Note_on_c, 0, 63, 108
1, 173369, Note_off_c, 0, 63, 108
1, 173527, Note_on_c, 0, 63, 109
1, 173884, Note_off_c, 0, 63, 109
1, 174070, Note_on_c, 0, 63, 110
1, 175108, Note_off_c, 0, 63, 110
1, 175108, Note_on_c, 0, 65, 93
1, 175290, Note_off_c, 0, 65, 93
1, 175290, Note_on_c, 0, 66, 96
1, 175427, Note_off_c, 0, 66, 96
1, 175427, Note_on_c, 0, 68, 113
1, 176174, Note_off_c, 0, 68, 113
1, 176485, Note_on_c, 0, 58, 86
1, 177527, Note_off_c, 0, 58, 86
1, 178643, Note_on_c, 0, 60, 102
1, 178813, Note_off_c, 0, 60, 102
1, 178813, Note_on_c, 0, 61, 107
1, 178983, Note_off_c, 0, 61, 107
1, 178983, Note_on_c, 0, 63, 108
1, 179527, Note_off_c, 0, 63, 108
1, 179570, Note_on_c, 0, 63, 109
1, 179981, Note_off_c, 0, 63, 109
1, 180198, Note_on_c, 0, 63, 107
1, 180488, Note_off_c, 0, 63, 107
1, 180777, Note_on_c, 0, 64, 97
1, 180870, Note_off_c, 0, 64, 97
1, 180874, Note_on_c, 0, 65, 102
1, 182305, Note_off_c, 0, 65, 102
1, 182431, Note_on_c, 0, 61, 97
1, 182568, Note_off_c, 0, 61, 97
1, 182568, Note_on_c, 0, 63, 112
1, 182755, Note_off_c, 0, 63, 112
1, 182782, Note_on_c, 0, 68, 109
1, 183609, Note_off_c, 0, 68, 109
1, 183621, Note_on_c, 0, 67, 102
1, 183722, Note_off_c, 0, 67, 102
1, 183722, Note_on_c, 0, 65, 102
1, 183839, Note_off_c, 0, 65, 102
1, 183839, Note_on_c, 0, 63, 102
1, 183976, Note_off_c, 0, 63, 102
1, 183976, Note_on_c, 0, 61, 105
1, 184109, Note_off_c, 0, 61, 105
1, 184182, Note_on_c, 0, 63, 107
1, 185464, Note_off_c, 0, 63, 107
1, 186652, Note_on_c, 0, 63, 104
1, 186887, Note_off_c, 0, 63, 104
1, 186919, Note_on_c, 0, 66, 82
1, 187139, Note_off_c, 0, 66, 82
1, 187330, Note_on_c, 0, 73, 89
1, 187553, Note_off_c, 0, 73, 89
1, 187711, Note_on_c, 0, 77, 96
1, 188696, Note_off_c, 0, 77, 96
1, 188700, Note_on_c, 0, 75, 112
1, 188931, Note_off_c, 0, 75, 112
1, 188979, Note_on_c, 0, 73, 106
1, 189182, Note_off_c, 0, 73, 106
1, 189193, Note_on_c, 0, 72, 88
1, 189504, Note_off_c, 0, 72, 88
1, 189512, Note_on_c, 0, 70, 110
1, 189712, Note_off_c, 0, 70, 110
1, 189714, Note_on_c, 0, 68, 108
1, 189933, Note_off_c, 0, 68, 108
1, 189933, Note_on_c, 0, 67, 105
1, 190135, Note_off_c, 0, 67, 105
1, 190135, Note_on_c, 0, 66, 102
1, 190442, Note_off_c, 0, 66, 102
1, 190824, Note_on_c, 0, 64, 119
1, 191067, Note_on_c, 0, 65, 86
1, 191067, Note_off_c, 0, 64, 119
1, 191252, Note_off_c, 0, 65, 86
1, 191269, Note_on_c, 0, 69, 75
1, 191416, Note_off_c, 0, 69, 75
1, 191575, Note_on_c, 0, 76, 87
1, 191713, Note_off_c, 0, 76, 87
1, 191794, Note_on_c, 0, 79, 108
1, 193317, Note_off_c, 0, 79, 108
1, 193369, Note_on_c, 0, 77, 93
1, 193655, Note_off_c, 0, 77, 93
1, 193655, Note_on_c, 0, 76, 95
1, 194088, Note_off_c, 0, 76, 95
1, 194153, Note_on_c, 0, 74, 88
1, 194245, Note_off_c, 0, 74, 88
1, 194379, Note_on_c, 0, 76, 108
1, 194707, Note_off_c, 0, 76, 108
1, 194832, Note_on_c, 0, 72, 104
1, 195172, Note_off_c, 0, 72, 104
1, 195350, Note_on_c, 0, 72, 112
1, 195662, Note_off_c, 0, 72, 112
1, 195669, Note_on_c, 0, 69, 110
1, 195890, Note_off_c, 0, 69, 110
1, 196135, Note_on_c, 0, 65, 105
1, 196298, Note_off_c, 0, 65, 105
1, 196373, Note_on_c, 0, 62, 92
1, 196725, Note_off_c, 0, 62, 92
1, 196741, Note_on_c, 0, 67, 100
1, 197227, Note_off_c, 0, 67, 100
1, 198537, Note_on_c, 0, 72, 110
1, 198597, Note_off_c, 0, 72, 110
1, 198597, Note_on_c, 0, 73, 109
1, 198665, Note_off_c, 0, 73, 109
1, 198665, Note_on_c, 0, 74, 105
1, 199056, Note_off_c, 0, 74, 105
1, 199192, Note_on_c, 0, 73, 105
1, 199329, Note_off_c, 0, 73, 105
1, 199329, Note_on_c, 0, 72, 109
1, 199514, Note_off_c, 0, 72, 109
1, 199515, Note_on_c, 0, 71, 106
1, 199682, Note_off_c, 0, 71, 106
1, 199725, Note_on_c, 0, 69, 102
1, 199955, Note_off_c, 0, 69, 102
1, 199993, Note_on_c, 0, 67, 99
1, 200077, Note_off_c, 0, 67, 99
1, 200169, Note_on_c, 0, 66, 99
1, 200286, Note_off_c, 0, 66, 99
1, 200290, Note_on_c, 0, 65, 99
1, 200452, Note_off_c, 0, 65, 99
1, 200532, Note_on_c, 0, 69, 98
1, 200786, Note_off_c, 0, 69, 98
1, 200786, Note_on_c, 0, 64, 110
1, 200989, Note_off_c, 0, 64, 110
1, 201073, Note_on_c, 0, 67, 94
1, 201227, Note_off_c, 0, 67, 94
1, 201227, Note_on_c, 0, 65, 100
1, 201391, Note_off_c, 0, 65, 100
1, 201737, Note_on_c, 0, 57, 90
1, 201887, Note_on_c, 0, 59, 97
1, 201887, Note_off_c, 0, 57, 90
1, 202053, Note_off_c, 0, 59, 97
1, 202053, Note_on_c, 0, 61, 103
1, 202227, Note_off_c, 0, 61, 103
1, 202227, Note_on_c, 0, 62, 107
1, 202409, Note_off_c, 0, 62, 107
1, 202449, Note_on_c, 0, 64, 117
1, 202667, Note_off_c, 0, 64, 117
1, 202674, Note_on_c, 0, 61, 95
1, 202886, Note_off_c, 0, 61, 95
1, 202886, Note_on_c, 0, 62, 104
1, 203080, Note_off_c, 0, 62, 104
1, 203080, Note_on_c, 0, 64, 100
1, 203278, Note_off_c, 0, 64, 100
1, 203278, Note_on_c, 0, 65, 92
1, 203456, Note_off_c, 0, 65, 92
1, 203456, Note_on_c, 0, 67, 99
1, 203642, Note_off_c, 0, 67, 99
1, 203642, Note_on_c, 0, 69, 109
1, 203951, Note_off_c, 0, 69, 109
1, 205755, Note_on_c, 0, 69, 107
1, 207260, Note_off_c, 0, 69, 107
1, 207500, Note_on_c, 0, 69, 110
1, 207692, Note_off_c, 0, 69, 110
1, 207868, Note_on_c, 0, 69, 109
1, 208165, Note_off_c, 0, 69, 109
1, 208165, Note_on_c, 0, 72, 109
1, 208319, Note_off_c, 0, 72, 109
1, 208323, Note_on_c, 0, 67, 106
1, 210002, Note_off_c, 0, 67, 106
1, 210002, Note_on_c, 0, 66, 98
1, 210221, Note_on_c, 0, 65, 98
1, 210221, Note_off_c, 0, 66, 98
1, 210445, Note_off_c, 0, 65, 98
1, 210483, Note_on_c, 0, 69, 99
1, 210677, Note_off_c, 0, 69, 99
1, 210677, Note_on_c, 0, 64, 119
1, 210887, Note_on_c, 0, 67, 97
1, 210887, Note_off_c, 0, 64, 119
1, 211179, Note_off_c, 0, 67, 97
1, 211182, Note_on_c, 0, 65, 98
1, 211475, Note_off_c, 0, 65, 98
1, 211855, Note_on_c, 0, 57, 92
1, 212095, Note_off_c, 0, 57, 92
1, 212101, Note_on_c, 0, 61, 88
1, 212321, Note_off_c, 0, 61, 88
1, 212420, Note_on_c, 0, 64, 109
1, 212645, Note_off_c, 0, 64, 109
1, 212662, Note_on_c, 0, 61, 96
1, 212878, Note_off_c, 0, 61, 96
1, 212884, Note_on_c, 0, 62, 98
1, 213046, Note_off_c, 0, 62, 98
1, 213046, Note_on_c, 0, 64, 101
1, 213220, Note_off_c, 0, 64, 101
1, 213220, Note_on_c, 0, 65, 91
1, 213339, Note_off_c, 0, 65, 91
1, 213353, Note_on_c, 0, 67, 83
1, 213497, Note_off_c, 0, 67, 83
1, 213551, Note_on_c, 0, 69, 102
1, 213795, Note_off_c, 0, 69, 102
1, 213795, Note_on_c, 0, 72, 104
1, 214009, Note_off_c, 0, 72, 104
1, 214009, Note_on_c, 0, 71, 102
1, 214244, Note_off_c, 0, 71, 102
1, 214244, Note_on_c, 0, 69, 99
1, 214462, Note_off_c, 0, 69, 99
1, 214499, Note_on_c, 0, 68, 104
1, 214691, Note_off_c, 0, 68, 104
1, 214721, Note_on_c, 0, 71, 102
1, 214918, Note_off_c, 0, 71, 102
1, 214919, Note_on_c, 0, 69, 100
1, 215121, Note_off_c, 0, 69, 100
1, 215124, Note_on_c, 0, 65, 101
1, 215315, Note_off_c, 0, 65, 101
1, 215315, Note_on_c, 0, 64, 114
1, 215504, Note_off_c, 0, 64, 114
1, 215517, Note_on_c, 0, 67, 97
1, 215709, Note_off_c, 0, 67, 97
1, 215751, Note_on_c, 0, 65, 97
1, 215868, Note_off_c, 0, 65, 97
1, 215892, Note_on_c, 0, 62, 102
1, 216021, Note_off_c, 0, 62, 102
1, 216021, Note_on_c, 0, 61, 99
1, 216204, Note_off_c, 0, 61, 99
1, 216280, Note_on_c, 0, 64, 111
1, 216499, Note_off_c, 0, 64, 111
1, 216499, Note_on_c, 0, 62, 90
1, 216718, Note_off_c, 0, 62, 90
1, 216718, Note_on_c, 0, 60, 93
1, 216909, Note_off_c, 0, 60, 93
1, 216928, Note_on_c, 0, 59, 95
1, 217140, Note_off_c, 0, 59, 95
1, 217140, Note_on_c, 0, 57, 91
1, 217350, Note_off_c, 0, 57, 91
1, 217350, Note_on_c, 0, 55, 103
1, 217541, Note_on_c, 0, 54, 93
1, 217541, Note_off_c, 0, 55, 103
1, 217782, Note_off_c, 0, 54, 93
1, 217782, Note_on_c, 0, 53, 91
1, 218049, Note_off_c, 0, 53, 91
1, 218049, End_track
0, 0, End_of_file
