0, 0, Header, 1, 1, 192
1, 0, Start_track
1, 0, Title_t, "Melody"
1, 0, Tempo, 288461
1, 0, Key_signature, 0, "major"
1, 0, Time_signature, 4, 2, 24, 8
1, 3355, Note_on_c, 0, 75, 111
1, 3430, Note_off_c, 0, 75, 111
1, 3468, Note_on_c, 0, 72, 89
1, 3578, Note_off_c, 0, 72, 89
1, 3590, Note_on_c, 0, 76, 101
1, 3672, Note_off_c, 0, 76, 101
1, 3748, Note_on_c, 0, 84, 99
1, 3958, Note_off_c, 0, 84, 99
1, 4148, Note_on_c, 0, 79, 104
1, 4232, Note_off_c, 0, 79, 104
1, 4253, Note_on_c, 0, 81, 95
1, 4410, Note_off_c, 0, 81, 95
1, 4449, Note_on_c, 0, 75, 98
1, 4534, Note_off_c, 0, 75, 98
1, 4548, Note_on_c, 0, 76, 99
1, 4626, Note_off_c, 0, 76, 99
1, 4630, Note_on_c, 0, 79, 98
1, 4721, Note_off_c, 0, 79, 98
1, 4733, Note_on_c, 0, 76, 100
1, 4815, Note_off_c, 0, 76, 100
1, 4899, Note_on_c, 0, 76, 89
1, 5427, Note_off_c, 0, 76, 89
1, 5674, Note_on_c, 0, 76, 103
1, 5733, Note_off_c, 0, 76, 103
1, 5737, Note_on_c, 0, 79, 103
1, 5789, Note_off_c, 0, 79, 103
1, 5793, Note_on_c, 0, 76, 100
1, 5856, Note_off_c, 0, 76, 100
1, 5867, Note_on_c, 0, 75, 108
1, 5943, Note_off_c, 0, 75, 108
1, 5997, Note_on_c, 0, 76, 101
1, 6050, Note_off_c, 0, 76, 101
1, 6061, Note_on_c, 0, 77, 102
1, 6138, Note_off_c, 0, 77, 102
1, 6167, Note_on_c, 0, 78, 100
1, 6241, Note_off_c, 0, 78, 100
1, 6270, Note_on_c, 0, 79, 108
1, 6341, Note_off_c, 0, 79, 108
1, 6341, Note_on_c, 0, 80, 102
1, 6423, Note_off_c, 0, 80, 102
1, 6430, Note_on_c, 0, 79, 106
1, 6503, Note_off_c, 0, 79, 106
1, 6507, Note_on_c, 0, 80, 115
1, 6679, Note_off_c, 0, 80, 115
1, 6682, Note_on_c, 0, 81, 103
1, 7647, Note_off_c, 0, 81, 103
1, 7678, Note_on_c, 0, 79, 104
1, 7743, Note_off_c, 0, 79, 104
1, 7751, Note_on_c, 0, 81, 116
1, 7842, Note_off_c, 0, 81, 116
1, 7848, Note_on_c, 0, 80, 108
1, 7919, Note_off_c, 0, 80, 108
1, 7942, Note_on_c, 0, 81, 113
1, 8037, Note_off_c, 0, 81, 113
1, 8068, Note_on_c, 0, 80, 107
1, 8108, Note_off_c, 0, 80, 107
1, 8119, Note_on_c, 0, 79, 101
1, 8149, Note_off_c, 0, 79, 101
1, 8233, Note_on_c, 0, 79, 93
1, 8879, Note_off_c, 0, 79, 93
1, 9194, Note_on_c, 0, 79, 114
1, 9276, Note_off_c, 0, 79, 114
1, 9281, Note_on_c, 0, 80, 118
1, 9370, Note_off_c, 0, 80, 118
1, 9379, Note_on_c, 0, 84, 127
1, 9482, Note_off_c, 0, 84, 127
1, 9507, Note_on_c, 0, 84, 100
1, 9967, Note_off_c, 0, 84, 100
1, 9975, Note_on_c, 0, 84, 86
1, 10032, Note_off_c, 0, 84, 86
1, 10235, Note_on_c, 0, 80, 93
1, 10255, Note_off_c, 0, 80, 93
1, 10264, Note_on_c, 0, 81, 103
1, 10331, Note_off_c, 0, 81, 103
1, 10347, Note_on_c, 0, 84, 111
1, 10409, Note_off_c, 0, 84, 111
1, 10424, Note_on_c, 0, 86, 113
1, 10501, Note_off_c, 0, 86, 113
1, 10520, Note_on_c, 0, 87, 112
1, 10606, Note_off_c, 0, 87, 112
1, 10617, Note_on_c, 0, 86, 118
1, 10699, Note_off_c, 0, 86, 118
1, 10707, Note_on_c, 0, 84, 107
1, 10796, Note_off_c, 0, 84, 107
1, 10830, Note_on_c, 0, 86, 117
1, 10937, Note_off_c, 0, 86, 117
1, 10975, Note_on_c, 0, 84, 111
1, 11106, Note_off_c, 0, 84, 111
1, 11175, Note_on_c, 0, 84, 101
1, 11306, Note_off_c, 0, 84, 101
1, 11379, Note_on_c, 0, 79, 103
1, 11478, Note_off_c, 0, 79, 103
1, 11511, Note_on_c, 0, 81, 102
1, 11693, Note_off_c, 0, 81, 102
1, 11707, Note_on_c, 0, 80, 104
1, 11764, Note_off_c, 0, 80, 104
1, 11769, Note_on_c, 0, 81, 105
1, 11823, Note_off_c, 0, 81, 105
1, 11834, Note_on_c, 0, 79, 100
1, 11931, Note_off_c, 0, 79, 100
1, 11950, Note_on_c, 0, 76, 107
1, 12055, Note_off_c, 0, 76, 107
1, 12064, Note_on_c, 0, 75, 106
1, 12144, Note_off_c, 0, 75, 106
1, 12151, Note_on_c, 0, 76, 102
1, 12247, Note_off_c, 0, 76, 102
1, 12249, Note_on_c, 0, 79, 103
1, 12323, Note_off_c, 0, 79, 103
1, 12337, Note_on_c, 0, 76, 108
1, 12419, Note_off_c, 0, 76, 108
1, 12433, Note_on_c, 0, 75, 111
1, 12504, Note_off_c, 0, 75, 111
1, 12529, Note_on_c, 0, 74, 101
1, 12723, Note_off_c, 0, 74, 101
1, 12920, Note_on_c, 0, 74, 104
1, 12998, Note_off_c, 0, 74, 104
1, 13017, Note_on_c, 0, 74, 105
1, 13103, Note_off_c, 0, 74, 105
1, 13111, Note_on_c, 0, 73, 113
1, 13178, Note_off_c, 0, 73, 113
1, 13217, Note_on_c, 0, 74, 105
1, 13269, Note_off_c, 0, 74, 105
1, 13290, Note_on_c, 0, 72, 110
1, 13385, Note_off_c, 0, 72, 110
1, 13428, Note_on_c, 0, 72, 110
1, 13523, Note_off_c, 0, 72, 110
1, 13599, Note_on_c, 0, 72, 105
1, 13766, Note_off_c, 0, 72, 105
1, 13941, Note_on_c, 0, 69, 109
1, 13985, Note_off_c, 0, 69, 109
1, 13991, Note_on_c, 0, 70, 113
1, 14058, Note_off_c, 0, 70, 113
1, 14078, Note_on_c, 0, 73, 85
1, 14773, Note_off_c, 0, 73, 85
1, 14785, Note_on_c, 0, 79, 97
1, 14899, Note_off_c, 0, 79, 97
1, 14910, Note_on_c, 0, 77, 103
1, 14988, Note_off_c, 0, 77, 103
1, 14991, Note_on_c, 0, 74, 96
1, 15080, Note_off_c, 0, 74, 96
1, 15089, Note_on_c, 0, 72, 105
1, 15156, Note_off_c, 0, 72, 105
1, 15162, Note_on_c, 0, 71, 111
1, 15247, Note_off_c, 0, 71, 111
1, 15274, Note_on_c, 0, 67, 88
1, 15348, Note_off_c, 0, 67, 88
1, 15369, Note_on_c, 0, 79, 99
1, 15458, Note_off_c, 0, 79, 99
1, 15473, Note_on_c, 0, 77, 97
1, 15532, Note_off_c, 0, 77, 97
1, 15535, Note_on_c, 0, 76, 109
1, 15648, Note_off_c, 0, 76, 109
1, 15742, Note_on_c, 0, 76, 116
1, 15888, Note_off_c, 0, 76, 116
1, 15935, Note_on_c, 0, 72, 101
1, 16122, Note_off_c, 0, 72, 101
1, 16318, Note_on_c, 0, 72, 108
1, 16415, Note_off_c, 0, 72, 108
1, 16444, Note_on_c, 0, 74, 103
1, 16500, Note_off_c, 0, 74, 103
1, 16502, Note_on_c, 0, 76, 109
1, 16576, Note_off_c, 0, 76, 109
1, 16620, Note_on_c, 0, 72, 102
1, 16678, Note_off_c, 0, 72, 102
1, 16701, Note_on_c, 0, 79, 102
1, 16781, Note_off_c, 0, 79, 102
1, 16875, Note_on_c, 0, 79, 95
1, 17024, Note_off_c, 0, 79, 95
1, 17075, Note_on_c, 0, 76, 109
1, 17212, Note_off_c, 0, 76, 109
1, 17458, Note_on_c, 0, 78, 95
1, 17491, Note_off_c, 0, 78, 95
1, 17494, Note_on_c, 0, 80, 104
1, 17564, Note_off_c, 0, 80, 104
1, 17604, Note_on_c, 0, 80, 111
1, 17689, Note_off_c, 0, 80, 111
1, 17757, Note_on_c, 0, 80, 98
1, 17825, Note_off_c, 0, 80, 98
1, 17839, Note_on_c, 0, 76, 98
1, 17975, Note_off_c, 0, 76, 98
1, 17986, Note_on_c, 0, 75, 102
1, 18024, Note_off_c, 0, 75, 102
1, 18031, Note_on_c, 0, 76, 109
1, 18092, Note_off_c, 0, 76, 109
1, 18155, Note_on_c, 0, 76, 110
1, 18278, Note_off_c, 0, 76, 110
1, 18330, Note_on_c, 0, 75, 108
1, 18396, Note_off_c, 0, 75, 108
1, 18413, Note_on_c, 0, 76, 109
1, 18620, Note_off_c, 0, 76, 109
1, 18632, Note_on_c, 0, 79, 100
1, 18911, Note_off_c, 0, 79, 100
1, 18911, Note_on_c, 0, 81, 98
1, 19159, Note_off_c, 0, 81, 98
1, 19349, Note_on_c, 0, 72, 103
1, 19601, Note_off_c, 0, 72, 103
1, 19625, Note_on_c, 0, 80, 109
1, 19815, Note_off_c, 0, 80, 109
1, 19881, Note_on_c, 0, 79, 112
1, 19984, Note_off_c, 0, 79, 112
1, 19994, Note_on_c, 0, 80, 114
1, 20212, Note_off_c, 0, 80, 114
1, 20254, Note_on_c, 0, 79, 107
1, 20330, Note_off_c, 0, 79, 107
1, 20345, Note_on_c, 0, 80, 103
1, 20416, Note_off_c, 0, 80, 103
1, 20420, Note_on_c, 0, 79, 98
1, 21122, Note_off_c, 0, 79, 98
1, 21335, Note_on_c, 0, 79, 106
1, 21412, Note_off_c, 0, 79, 106
1, 21429, Note_on_c, 0, 80, 112
1, 21521, Note_off_c, 0, 80, 112
1, 21597, Note_on_c, 0, 84, 101
1, 21833, Note_off_c, 0, 84, 101
1, 21970, Note_on_c, 0, 79, 93
1, 21990, Note_off_c, 0, 79, 93
1, 21993, Note_on_c, 0, 80, 111
1, 22057, Note_off_c, 0, 80, 111
1, 22097, Note_on_c, 0, 79, 107
1, 22191, Note_off_c, 0, 79, 107
1, 22266, Note_on_c, 0, 79, 99
1, 22332, Note_off_c, 0, 79, 99
1, 22340, Note_on_c, 0, 77, 107
1, 22406, Note_off_c, 0, 77, 107
1, 22450, Note_on_c, 0, 72, 104
1, 22527, Note_off_c, 0, 72, 104
1, 22533, Note_on_c, 0, 74, 106
1, 22607, Note_off_c, 0, 74, 106
1, 22669, Note_on_c, 0, 75, 111
1, 22768, Note_off_c, 0, 75, 111
1, 22845, Note_on_c, 0, 75, 112
1, 22946, Note_off_c, 0, 75, 112
1, 23016, Note_on_c, 0, 72, 106
1, 23087, Note_off_c, 0, 72, 106
1, 23095, Note_on_c, 0, 76, 104
1, 23193, Note_off_c, 0, 76, 104
1, 23233, Note_on_c, 0, 67, 101
1, 23285, Note_off_c, 0, 67, 101
1, 23299, Note_on_c, 0, 72, 107
1, 23367, Note_off_c, 0, 72, 107
1, 23407, Note_on_c, 0, 76, 95
1, 23468, Note_off_c, 0, 76, 95
1, 23492, Note_on_c, 0, 79, 98
1, 23568, Note_off_c, 0, 79, 98
1, 23594, Note_on_c, 0, 76, 105
1, 23655, Note_off_c, 0, 76, 105
1, 23682, Note_on_c, 0, 79, 99
1, 23776, Note_off_c, 0, 79, 99
1, 23786, Note_on_c, 0, 76, 95
1, 23851, Note_off_c, 0, 76, 95
1, 23851, Note_on_c, 0, 80, 101
1, 23963, Note_off_c, 0, 80, 101
1, 23967, Note_on_c, 0, 79, 89
1, 24032, Note_off_c, 0, 79, 89
1, 24051, Note_on_c, 0, 81, 104
1, 24152, Note_off_c, 0, 81, 104
1, 24184, Note_on_c, 0, 81, 106
1, 24303, Note_off_c, 0, 81, 106
1, 24337, Note_on_c, 0, 76, 106
1, 24449, Note_off_c, 0, 76, 106
1, 24616, Note_on_c, 0, 81, 109
1, 24726, Note_off_c, 0, 81, 109
1, 24811, Note_on_c, 0, 81, 109
1, 24951, Note_off_c, 0, 81, 109
1, 25004, Note_on_c, 0, 74, 95
1, 25207, Note_off_c, 0, 74, 95
1, 25386, Note_on_c, 0, 79, 104
1, 25502, Note_off_c, 0, 79, 104
1, 25513, Note_on_c, 0, 77, 98
1, 25542, Note_off_c, 0, 77, 98
1, 25546, Note_on_c, 0, 79, 105
1, 25662, Note_off_c, 0, 79, 105
1, 25684, Note_on_c, 0, 76, 105
1, 25767, Note_off_c, 0, 76, 105
1, 25768, Note_on_c, 0, 77, 105
1, 25847, Note_off_c, 0, 77, 105
1, 25877, Note_on_c, 0, 74, 103
1, 25944, Note_off_c, 0, 74, 103
1, 25951, Note_on_c, 0, 77, 101
1, 26054, Note_off_c, 0, 77, 101
1, 26061, Note_on_c, 0, 74, 99
1, 26119, Note_off_c, 0, 74, 99
1, 26132, Note_on_c, 0, 76, 109
1, 26248, Note_off_c, 0, 76, 109
1, 26248, End_track
0, 0, End_of_file
