0, 0, Header, 1, 1, 192
1, 0, Start_track
1, 0, Title_t, "Melody"
1, 0, Tempo, 422535
1, 0, Key_signature, -5, "major"
1, 0, Time_signature, 4, 2, 24, 8
1, 2454, Note_on_c, 0, 58, 109
1, 2494, Note_off_c, 0, 58, 109
1, 2549, Note_on_c, 0, 63, 121
1, 2797, Note_off_c, 0, 63, 121
1, 2806, Note_on_c, 0, 63, 119
1, 2895, Note_off_c, 0, 63, 119
1, 2904, Note_on_c, 0, 65, 110
1, 3033, Note_off_c, 0, 65, 110
1, 3036, Note_on_c, 0, 63, 120
1, 3087, Note_off_c, 0, 63, 120
1, 3171, Note_on_c, 0, 63, 112
1, 3202, Note_off_c, 0, 63, 112
1, 3204, Note_on_c, 0, 65, 108
1, 3571, Note_off_c, 0, 65, 108
1, 3578, Note_on_c, 0, 63, 117
1, 3659, Note_off_c, 0, 63, 117
1, 3688, Note_on_c, 0, 65, 106
1, 3838, Note_off_c, 0, 65, 106
1, 3849, Note_on_c, 0, 63, 122
1, 3919, Note_off_c, 0, 63, 122
1, 3965, Note_on_c, 0, 69, 119
1, 4011, Note_off_c, 0, 69, 119
1, 4029, Note_on_c, 0, 70, 122
1, 4129, Note_off_c, 0, 70, 122
1, 4151, Note_on_c, 0, 70, 109
1, 4859, Note_off_c, 0, 70, 109
1, 5122, Note_on_c, 0, 69, 121
1, 5149, Note_off_c, 0, 69, 121
1, 5184, Note_on_c, 0, 72, 127
1, 5464, Note_off_c, 0, 72, 127
1, 5466, Note_on_c, 0, 70, 116
1, 5518, Note_off_c, 0, 70, 116
1, 5521, Note_on_c, 0, 72, 122
1, 5593, Note_off_c, 0, 72, 122
1, 5598, Note_on_c, 0, 68, 115
1, 5653, Note_off_c, 0, 68, 115
1, 5873, Note_on_c, 0, 68, 110
1, 5941, Note_off_c, 0, 68, 110
1, 5999, Note_on_c, 0, 69, 119
1, 6029, Note_off_c, 0, 69, 119
1, 6032, Note_on_c, 0, 70, 120
1, 6145, Note_off_c, 0, 70, 120
1, 6154, Note_on_c, 0, 68, 110
1, 6214, Note_off_c, 0, 68, 110
1, 6299, Note_on_c, 0, 67, 107
1, 6322, Note_off_c, 0, 67, 107
1, 6326, Note_on_c, 0, 69, 116
1, 6493, Note_off_c, 0, 69, 116
1, 6498, Note_on_c, 0, 68, 110
1, 6641, Note_off_c, 0, 68, 110
1, 6642, Note_on_c, 0, 67, 105
1, 6837, Note_off_c, 0, 67, 105
1, 6842, Note_on_c, 0, 68, 113
1, 6991, Note_off_c, 0, 68, 113
1, 7008, Note_on_c, 0, 70, 100
1, 7062, Note_off_c, 0, 70, 100
1, 7066, Note_on_c, 0, 75, 109
1, 7465, Note_off_c, 0, 75, 109
1, 7763, Note_on_c, 0, 73, 117
1, 7855, Note_off_c, 0, 73, 117
1, 7860, Note_on_c, 0, 71, 117
1, 8358, Note_off_c, 0, 71, 117
1, 8361, Note_on_c, 0, 69, 110
1, 8419, Note_off_c, 0, 69, 110
1, 8425, Note_on_c, 0, 66, 114
1, 8472, Note_off_c, 0, 66, 114
1, 8479, Note_on_c, 0, 71, 105
1, 8523, Note_off_c, 0, 71, 105
1, 8524, Note_on_c, 0, 67, 102
1, 8575, Note_off_c, 0, 67, 102
1, 8577, Note_on_c, 0, 64, 100
1, 8613, Note_off_c, 0, 64, 100
1, 8928, Note_on_c, 0, 63, 122
1, 8992, Note_off_c, 0, 63, 122
1, 9027, Note_on_c, 0, 73, 117
1, 9116, Note_off_c, 0, 73, 117
1, 9119, Note_on_c, 0, 72, 121
1, 9149, Note_off_c, 0, 72, 121
1, 9149, Note_on_c, 0, 71, 122
1, 9172, Note_off_c, 0, 71, 122
1, 9173, Note_on_c, 0, 70, 120
1, 9238, Note_off_c, 0, 70, 120
1, 9302, Note_on_c, 0, 69, 111
1, 9328, Note_off_c, 0, 69, 111
1, 9333, Note_on_c, 0, 70, 116
1, 9645, Note_off_c, 0, 70, 116
1, 9650, Note_on_c, 0, 68, 103
1, 9692, Note_off_c, 0, 68, 103
1, 9695, Note_on_c, 0, 70, 113
1, 9750, Note_off_c, 0, 70, 113
1, 9756, Note_on_c, 0, 66, 110
1, 9861, Note_off_c, 0, 66, 110
1, 9879, Note_on_c, 0, 73, 111
1, 9958, Note_off_c, 0, 73, 111
1, 10027, Note_on_c, 0, 73, 110
1, 10127, Note_off_c, 0, 73, 110
1, 10170, Note_on_c, 0, 63, 115
1, 10202, Note_off_c, 0, 63, 115
1, 10212, Note_on_c, 0, 65, 102
1, 10446, Note_off_c, 0, 65, 102
1, 10467, Note_on_c, 0, 65, 96
1, 10819, Note_off_c, 0, 65, 96
1, 10826, Note_on_c, 0, 63, 100
1, 10864, Note_off_c, 0, 63, 100
1, 10865, Note_on_c, 0, 65, 104
1, 10909, Note_off_c, 0, 65, 104
1, 10914, Note_on_c, 0, 68, 104
1, 10949, Note_off_c, 0, 68, 104
1, 10958, Note_on_c, 0, 66, 107
1, 10993, Note_off_c, 0, 66, 107
1, 11007, Note_on_c, 0, 63, 112
1, 11045, Note_off_c, 0, 63, 112
1, 11045, Note_on_c, 0, 61, 102
1, 11084, Note_off_c, 0, 61, 102
1, 11087, Note_on_c, 0, 59, 111
1, 11135, Note_off_c, 0, 59, 111
1, 11137, Note_on_c, 0, 58, 106
1, 11173, Note_off_c, 0, 58, 106
1, 11180, Note_on_c, 0, 57, 106
1, 11230, Note_off_c, 0, 57, 106
1, 11232, Note_on_c, 0, 60, 106
1, 11268, Note_off_c, 0, 60, 106
1, 11274, Note_on_c, 0, 56, 106
1, 11321, Note_off_c, 0, 56, 106
1, 11328, Note_on_c, 0, 59, 108
1, 11371, Note_off_c, 0, 59, 108
1, 11376, Note_on_c, 0, 57, 112
1, 11408, Note_off_c, 0, 57, 112
1, 11415, Note_on_c, 0, 55, 119
1, 11442, Note_off_c, 0, 55, 119
1, 11454, Note_on_c, 0, 54, 111
1, 11489, Note_off_c, 0, 54, 111
1, 11498, Note_on_c, 0, 57, 109
1, 11544, Note_off_c, 0, 57, 109
1, 11549, Note_on_c, 0, 53, 102
1, 11587, Note_off_c, 0, 53, 102
1, 11588, Note_on_c, 0, 52, 102
1, 11636, Note_off_c, 0, 52, 102
1, 11636, Note_on_c, 0, 51, 101
1, 11674, Note_off_c, 0, 51, 101
1, 11952, Note_on_c, 0, 61, 106
1, 12016, Note_off_c, 0, 61, 106
1, 12026, Note_on_c, 0, 63, 117
1, 12157, Note_off_c, 0, 63, 117
1, 12174, Note_on_c, 0, 65, 108
1, 12241, Note_off_c, 0, 65, 108
1, 12310, Note_on_c, 0, 66, 115
1, 12348, Note_off_c, 0, 66, 115
1, 12357, Note_on_c, 0, 68, 110
1, 12703, Note_off_c, 0, 68, 110
1, 12724, Note_on_c, 0, 68, 111
1, 12785, Note_off_c, 0, 68, 111
1, 12856, Note_on_c, 0, 68, 114
1, 12943, Note_off_c, 0, 68, 114
1, 12949, Note_on_c, 0, 73, 115
1, 13037, Note_off_c, 0, 73, 115
1, 13089, Note_on_c, 0, 67, 106
1, 13110, Note_off_c, 0, 67, 106
1, 13115, Note_on_c, 0, 68, 112
1, 13294, Note_off_c, 0, 68, 112
1, 13303, Note_on_c, 0, 63, 118
1, 13382, Note_off_c, 0, 63, 118
1, 13425, Note_on_c, 0, 63, 116
1, 13471, Note_off_c, 0, 63, 116
1, 13478, Note_on_c, 0, 68, 114
1, 13538, Note_off_c, 0, 68, 114
1, 13543, Note_on_c, 0, 65, 103
1, 13670, Note_off_c, 0, 65, 103
1, 13689, Note_on_c, 0, 64, 110
1, 13735, Note_off_c, 0, 64, 110
1, 13744, Note_on_c, 0, 65, 99
1, 13849, Note_off_c, 0, 65, 99
1, 13852, Note_on_c, 0, 61, 97
1, 14122, Note_off_c, 0, 61, 97
1, 14340, Note_on_c, 0, 65, 107
1, 14367, Note_off_c, 0, 65, 107
1, 14373, Note_on_c, 0, 66, 111
1, 14470, Note_off_c, 0, 66, 111
1, 14475, Note_on_c, 0, 63, 101
1, 14504, Note_off_c, 0, 63, 101
1, 14510, Note_on_c, 0, 65, 108
1, 14535, Note_off_c, 0, 65, 108
1, 14542, Note_on_c, 0, 66, 110
1, 14687, Note_off_c, 0, 66, 110
1, 14688, Note_on_c, 0, 63, 112
1, 15067, Note_off_c, 0, 63, 112
1, 15241, Note_on_c, 0, 66, 116
1, 15293, Note_off_c, 0, 66, 116
1, 15298, Note_on_c, 0, 65, 113
1, 15334, Note_off_c, 0, 65, 113
1, 15357, Note_on_c, 0, 63, 97
1, 15391, Note_off_c, 0, 63, 97
1, 15406, Note_on_c, 0, 66, 111
1, 15470, Note_off_c, 0, 66, 111
1, 15501, Note_on_c, 0, 62, 113
1, 15781, Note_off_c, 0, 62, 113
1, 15790, Note_on_c, 0, 66, 112
1, 15849, Note_off_c, 0, 66, 112
1, 15859, Note_on_c, 0, 63, 117
1, 15984, Note_off_c, 0, 63, 117
1, 15995, Note_on_c, 0, 59, 105
1, 16049, Note_off_c, 0, 59, 105
1, 16349, Note_on_c, 0, 61, 112
1, 16420, Note_off_c, 0, 61, 112
1, 16430, Note_on_c, 0, 58, 107
1, 16476, Note_off_c, 0, 58, 107
1, 16491, Note_on_c, 0, 54, 106
1, 16537, Note_off_c, 0, 54, 106
1, 16542, Note_on_c, 0, 61, 108
1, 16584, Note_off_c, 0, 61, 108
1, 16589, Note_on_c, 0, 66, 109
1, 16650, Note_off_c, 0, 66, 109
1, 16667, Note_on_c, 0, 64, 117
1, 16846, Note_off_c, 0, 64, 117
1, 16855, Note_on_c, 0, 62, 113
1, 16907, Note_off_c, 0, 62, 113
1, 16917, Note_on_c, 0, 61, 103
1, 16969, Note_off_c, 0, 61, 103
1, 16972, Note_on_c, 0, 64, 108
1, 17016, Note_off_c, 0, 64, 108
1, 17029, Note_on_c, 0, 62, 110
1, 17181, Note_off_c, 0, 62, 110
1, 17184, Note_on_c, 0, 64, 113
1, 17315, Note_off_c, 0, 64, 113
1, 17321, Note_on_c, 0, 60, 103
1, 17691, Note_off_c, 0, 60, 103
1, 17735, Note_on_c, 0, 58, 114
1, 17767, Note_off_c, 0, 58, 114
1, 17777, Note_on_c, 0, 63, 119
1, 17858, Note_off_c, 0, 63, 119
1, 18215, Note_on_c, 0, 68, 108
1, 18276, Note_off_c, 0, 68, 108
1, 18339, Note_on_c, 0, 70, 121
1, 18424, Note_off_c, 0, 70, 121
1, 18429, Note_on_c, 0, 68, 113
1, 18485, Note_off_c, 0, 68, 113
1, 18545, Note_on_c, 0, 68, 115
1, 18572, Note_off_c, 0, 68, 115
1, 18572, Note_on_c, 0, 69, 118
1, 18709, Note_off_c, 0, 69, 118
1, 18716, Note_on_c, 0, 68, 115
1, 18826, Note_off_c, 0, 68, 115
1, 18853, Note_on_c, 0, 67, 110
1, 19012, Note_off_c, 0, 67, 110
1, 19017, Note_on_c, 0, 68, 114
1, 19125, Note_off_c, 0, 68, 114
1, 19171, Note_on_c, 0, 75, 111
1, 19218, Note_off_c, 0, 75, 111
1, 19224, Note_on_c, 0, 72, 117
1, 19255, Note_off_c, 0, 72, 117
1, 19260, Note_on_c, 0, 75, 120
1, 19304, Note_off_c, 0, 75, 120
1, 19317, Note_on_c, 0, 72, 119
1, 19563, Note_off_c, 0, 72, 119
1, 19569, Note_on_c, 0, 68, 106
1, 19604, Note_off_c, 0, 68, 106
1, 19613, Note_on_c, 0, 72, 119
1, 19663, Note_off_c, 0, 72, 119
1, 19666, Note_on_c, 0, 68, 110
1, 19730, Note_off_c, 0, 68, 110
1, 19736, Note_on_c, 0, 65, 95
1, 19784, Note_off_c, 0, 65, 95
1, 19789, Note_on_c, 0, 68, 110
1, 19837, Note_off_c, 0, 68, 110
1, 19843, Note_on_c, 0, 65, 107
1, 19893, Note_off_c, 0, 65, 107
1, 19906, Note_on_c, 0, 60, 100
1, 19960, Note_off_c, 0, 60, 100
1, 19978, Note_on_c, 0, 65, 101
1, 20026, Note_off_c, 0, 65, 101
1, 20033, Note_on_c, 0, 66, 111
1, 20094, Note_off_c, 0, 66, 111
1, 20100, Note_on_c, 0, 64, 98
1, 20147, Note_off_c, 0, 64, 98
1, 20149, Note_on_c, 0, 66, 104
1, 20229, Note_off_c, 0, 66, 104
1, 20235, Note_on_c, 0, 64, 110
1, 20304, Note_off_c, 0, 64, 110
1, 20306, Note_on_c, 0, 61, 99
1, 20350, Note_off_c, 0, 61, 99
1, 20359, Note_on_c, 0, 64, 114
1, 20409, Note_off_c, 0, 64, 114
1, 20415, Note_on_c, 0, 61, 102
1, 20550, Note_off_c, 0, 61, 102
1, 20551, Note_on_c, 0, 59, 112
1, 20594, Note_off_c, 0, 59, 112
1, 20601, Note_on_c, 0, 55, 106
1, 20648, Note_off_c, 0, 55, 106
1, 20657, Note_on_c, 0, 52, 103
1, 20708, Note_off_c, 0, 52, 103
1, 21082, Note_on_c, 0, 63, 123
1, 21132, Note_on_c, 0, 61, 103
1, 21132, Note_off_c, 0, 63, 123
1, 21151, Note_off_c, 0, 61, 103
1, 21162, Note_on_c, 0, 73, 100
1, 21222, Note_off_c, 0, 73, 100
1, 21241, Note_on_c, 0, 73, 120
1, 21367, Note_off_c, 0, 73, 120
1, 21381, Note_on_c, 0, 73, 118
1, 21460, Note_off_c, 0, 73, 118
1, 21495, Note_on_c, 0, 72, 115
1, 21517, Note_off_c, 0, 72, 115
1, 21523, Note_on_c, 0, 73, 118
1, 21611, Note_off_c, 0, 73, 118
1, 21613, Note_on_c, 0, 72, 117
1, 21639, Note_off_c, 0, 72, 117
1, 21648, Note_on_c, 0, 71, 120
1, 21673, Note_off_c, 0, 71, 120
1, 21678, Note_on_c, 0, 70, 116
1, 21771, Note_off_c, 0, 70, 116
1, 21814, Note_on_c, 0, 70, 116
1, 21903, Note_off_c, 0, 70, 116
1, 21957, Note_on_c, 0, 70, 117
1, 22055, Note_off_c, 0, 70, 117
1, 22065, Note_on_c, 0, 66, 109
1, 22146, Note_off_c, 0, 66, 109
1, 22186, Note_on_c, 0, 73, 107
1, 22280, Note_off_c, 0, 73, 107
1, 22305, Note_on_c, 0, 63, 119
1, 22344, Note_off_c, 0, 63, 119
1, 22349, Note_on_c, 0, 65, 103
1, 22683, Note_off_c, 0, 65, 103
1, 22689, Note_on_c, 0, 66, 104
1, 22726, Note_off_c, 0, 66, 104
1, 22736, Note_on_c, 0, 68, 97
1, 22762, Note_off_c, 0, 68, 97
1, 22772, Note_on_c, 0, 70, 103
1, 22798, Note_off_c, 0, 70, 103
1, 22808, Note_on_c, 0, 73, 108
1, 22853, Note_off_c, 0, 73, 108
1, 22865, Note_on_c, 0, 67, 110
1, 22884, Note_off_c, 0, 67, 110
1, 22890, Note_on_c, 0, 69, 103
1, 22908, Note_off_c, 0, 69, 103
1, 22913, Note_on_c, 0, 71, 111
1, 22946, Note_off_c, 0, 71, 111
1, 22949, Note_on_c, 0, 69, 108
1, 22974, Note_off_c, 0, 69, 108
1, 22974, Note_on_c, 0, 67, 105
1, 23000, Note_off_c, 0, 67, 105
1, 23002, Note_on_c, 0, 66, 105
1, 23033, Note_off_c, 0, 66, 105
1, 23039, Note_on_c, 0, 69, 108
1, 23069, Note_off_c, 0, 69, 108
1, 23076, Note_on_c, 0, 65, 105
1, 23104, Note_off_c, 0, 65, 105
1, 23105, Note_on_c, 0, 64, 106
1, 23135, Note_off_c, 0, 64, 106
1, 23138, Note_on_c, 0, 63, 113
1, 23163, Note_off_c, 0, 63, 113
1, 23163, Note_on_c, 0, 67, 108
1, 23190, Note_off_c, 0, 67, 108
1, 23204, Note_on_c, 0, 66, 97
1, 23267, Note_off_c, 0, 66, 97
1, 23569, Note_on_c, 0, 64, 119
1, 23594, Note_off_c, 0, 64, 119
1, 23602, Note_on_c, 0, 65, 102
1, 23750, Note_off_c, 0, 65, 102
1, 23756, Note_on_c, 0, 63, 117
1, 23820, Note_off_c, 0, 63, 117
1, 23862, Note_on_c, 0, 61, 109
1, 24130, Note_off_c, 0, 61, 109
1, 24134, Note_on_c, 0, 63, 120
1, 24224, Note_off_c, 0, 63, 120
1, 24263, Note_on_c, 0, 63, 114
1, 24394, Note_off_c, 0, 63, 114
1, 24395, Note_on_c, 0, 65, 108
1, 24506, Note_off_c, 0, 65, 108
1, 24528, Note_on_c, 0, 66, 119
1, 24545, Note_off_c, 0, 66, 119
1, 24558, Note_on_c, 0, 68, 115
1, 24878, Note_off_c, 0, 68, 115
1, 24900, Note_on_c, 0, 68, 113
1, 24974, Note_off_c, 0, 68, 113
1, 25044, Note_on_c, 0, 68, 112
1, 25158, Note_off_c, 0, 68, 112
1, 25170, Note_on_c, 0, 73, 116
1, 25270, Note_off_c, 0, 73, 116
1, 25320, Note_on_c, 0, 68, 112
1, 25558, Note_off_c, 0, 68, 112
1, 25563, Note_on_c, 0, 63, 113
1, 25657, Note_off_c, 0, 63, 113
1, 25658, Note_on_c, 0, 68, 110
1, 25697, Note_off_c, 0, 68, 110
1, 25705, Note_on_c, 0, 65, 98
1, 25921, Note_off_c, 0, 65, 98
1, 25925, Note_on_c, 0, 63, 108
1, 25950, Note_off_c, 0, 63, 108
1, 25953, Note_on_c, 0, 65, 99
1, 26040, Note_off_c, 0, 65, 99
1, 26058, Note_on_c, 0, 61, 101
1, 26222, Note_off_c, 0, 61, 101
1, 26470, Note_on_c, 0, 61, 104
1, 26492, Note_off_c, 0, 61, 104
1, 26494, Note_on_c, 0, 62, 111
1, 26525, Note_off_c, 0, 62, 111
1, 26528, Note_on_c, 0, 64, 115
1, 26571, Note_off_c, 0, 64, 115
1, 26571, Note_on_c, 0, 62, 114
1, 26613, Note_off_c, 0, 62, 114
1, 26623, Note_on_c, 0, 61, 105
1, 26675, Note_off_c, 0, 61, 105
1, 26689, Note_on_c, 0, 59, 111
1, 26718, Note_off_c, 0, 59, 111
1, 26727, Note_on_c, 0, 58, 108
1, 26774, Note_off_c, 0, 58, 108
1, 26774, Note_on_c, 0, 57, 111
1, 26809, Note_off_c, 0, 57, 111
1, 26816, Note_on_c, 0, 56, 105
1, 26843, Note_off_c, 0, 56, 105
1, 26846, Note_on_c, 0, 54, 111
1, 26875, Note_off_c, 0, 54, 111
1, 26875, Note_on_c, 0, 59, 110
1, 26909, Note_off_c, 0, 59, 110
1, 26923, Note_on_c, 0, 57, 113
1, 26940, Note_off_c, 0, 57, 113
1, 26955, Note_on_c, 0, 54, 113
1, 27035, Note_off_c, 0, 54, 113
1, 27380, Note_on_c, 0, 62, 117
1, 27408, Note_off_c, 0, 62, 117
1, 27409, Note_on_c, 0, 64, 121
1, 27460, Note_off_c, 0, 64, 121
1, 27465, Note_on_c, 0, 66, 116
1, 27518, Note_off_c, 0, 66, 116
1, 27590, Note_on_c, 0, 69, 115
1, 27652, Note_off_c, 0, 69, 115
1, 27725, Note_on_c, 0, 68, 109
1, 27742, Note_off_c, 0, 68, 109
1, 27746, Note_on_c, 0, 69, 9
1, 27859, Note_off_c, 0, 69, 9
1, 27874, Note_on_c, 0, 69, 118
1, 27941, Note_off_c, 0, 69, 118
1, 27970, Note_on_c, 0, 70, 111
1, 27996, Note_off_c, 0, 70, 111
1, 28008, Note_on_c, 0, 71, 123
1, 28224, Note_off_c, 0, 71, 123
1, 28233, Note_on_c, 0, 69, 118
1, 28303, Note_off_c, 0, 69, 118
1, 28328, Note_on_c, 0, 71, 113
1, 28363, Note_off_c, 0, 71, 113
1, 28399, Note_on_c, 0, 74, 112
1, 28725, Note_off_c, 0, 74, 112
1, 28748, Note_on_c, 0, 74, 108
1, 28828, Note_off_c, 0, 74, 108
1, 28873, Note_on_c, 0, 74, 109
1, 28993, Note_off_c, 0, 74, 109
1, 29021, Note_on_c, 0, 69, 108
1, 29077, Note_off_c, 0, 69, 108
1, 29122, Note_on_c, 0, 69, 107
1, 29482, Note_off_c, 0, 69, 107
1, 29485, Note_on_c, 0, 67, 99
1, 29518, Note_off_c, 0, 67, 99
1, 29522, Note_on_c, 0, 65, 97
1, 29566, Note_off_c, 0, 65, 97
1, 29573, Note_on_c, 0, 67, 108
1, 29594, Note_off_c, 0, 67, 108
1, 29605, Note_on_c, 0, 69, 107
1, 29722, Note_off_c, 0, 69, 107
1, 29736, Note_on_c, 0, 69, 111
1, 29787, Note_off_c, 0, 69, 111
1, 29861, Note_on_c, 0, 69, 114
1, 30212, Note_off_c, 0, 69, 114
1, 30444, Note_on_c, 0, 68, 116
1, 30458, Note_off_c, 0, 68, 116
1, 30467, Note_on_c, 0, 69, 115
1, 30556, Note_off_c, 0, 69, 115
1, 30583, Note_on_c, 0, 69, 115
1, 30709, Note_off_c, 0, 69, 115
1, 30734, Note_on_c, 0, 68, 115
1, 30751, Note_off_c, 0, 68, 115
1, 30754, Note_on_c, 0, 69, 116
1, 30857, Note_off_c, 0, 69, 116
1, 30860, Note_on_c, 0, 70, 115
1, 31006, Note_off_c, 0, 70, 115
1, 31019, Note_on_c, 0, 70, 117
1, 31217, Note_off_c, 0, 70, 117
1, 31250, Note_on_c, 0, 73, 109
1, 31394, Note_off_c, 0, 73, 109
1, 31398, Note_on_c, 0, 72, 109
1, 31416, Note_off_c, 0, 72, 109
1, 31424, Note_on_c, 0, 73, 108
1, 31791, Note_off_c, 0, 73, 108
1, 31798, Note_on_c, 0, 71, 113
1, 31849, Note_off_c, 0, 71, 113
1, 31893, Note_on_c, 0, 73, 108
1, 31923, Note_off_c, 0, 73, 108
1, 31927, Note_on_c, 0, 74, 107
1, 31966, Note_off_c, 0, 74, 107
1, 31972, Note_on_c, 0, 73, 104
1, 31997, Note_off_c, 0, 73, 104
1, 32000, Note_on_c, 0, 71, 112
1, 32049, Note_off_c, 0, 71, 112
1, 32051, Note_on_c, 0, 73, 106
1, 32070, Note_off_c, 0, 73, 106
1, 32077, Note_on_c, 0, 74, 105
1, 32117, Note_off_c, 0, 74, 105
1, 32120, Note_on_c, 0, 71, 113
1, 32158, Note_off_c, 0, 71, 113
1, 32163, Note_on_c, 0, 69, 107
1, 32461, Note_off_c, 0, 69, 107
1, 32465, Note_on_c, 0, 66, 105
1, 32503, Note_off_c, 0, 66, 105
1, 32523, Note_on_c, 0, 61, 99
1, 32588, Note_off_c, 0, 61, 99
1, 32594, Note_on_c, 0, 64, 113
1, 32657, Note_off_c, 0, 64, 113
1, 32658, Note_on_c, 0, 61, 101
1, 32700, Note_off_c, 0, 61, 101
1, 32708, Note_on_c, 0, 64, 112
1, 32764, Note_off_c, 0, 64, 112
1, 32774, Note_on_c, 0, 61, 101
1, 32820, Note_off_c, 0, 61, 101
1, 32824, Note_on_c, 0, 57, 101
1, 32858, Note_off_c, 0, 57, 101
1, 33250, Note_on_c, 0, 62, 117
1, 33291, Note_off_c, 0, 62, 117
1, 33295, Note_on_c, 0, 64, 126
1, 33335, Note_off_c, 0, 64, 126
1, 33339, Note_on_c, 0, 65, 115
1, 33462, Note_off_c, 0, 65, 115
1, 33476, Note_on_c, 0, 67, 115
1, 33563, Note_off_c, 0, 67, 115
1, 33622, Note_on_c, 0, 68, 118
1, 33735, Note_off_c, 0, 68, 118
1, 33736, Note_on_c, 0, 67, 115
1, 33787, Note_off_c, 0, 67, 115
1, 33795, Note_on_c, 0, 68, 116
1, 33828, Note_off_c, 0, 68, 116
1, 33838, Note_on_c, 0, 70, 113
1, 34332, Note_off_c, 0, 70, 113
1, 34369, Note_on_c, 0, 68, 109
1, 34419, Note_off_c, 0, 68, 109
1, 34419, Note_on_c, 0, 67, 108
1, 34472, Note_off_c, 0, 67, 108
1, 34527, Note_on_c, 0, 74, 102
1, 34565, Note_off_c, 0, 74, 102
1, 34590, Note_on_c, 0, 76, 112
1, 34747, Note_off_c, 0, 76, 112
1, 34767, Note_on_c, 0, 67, 106
1, 34839, Note_off_c, 0, 67, 106
1, 34928, Note_on_c, 0, 67, 107
1, 35007, Note_off_c, 0, 67, 107
1, 35086, Note_on_c, 0, 76, 102
1, 35167, Note_off_c, 0, 76, 102
1, 35168, Note_on_c, 0, 75, 105
1, 35455, Note_off_c, 0, 75, 105
1, 35466, Note_on_c, 0, 72, 105
1, 35545, Note_off_c, 0, 72, 105
1, 35569, Note_on_c, 0, 68, 104
1, 35626, Note_off_c, 0, 68, 104
1, 35631, Note_on_c, 0, 67, 100
1, 35768, Note_off_c, 0, 67, 100
1, 35801, Note_on_c, 0, 75, 113
1, 35888, Note_off_c, 0, 75, 113
1, 35889, Note_on_c, 0, 73, 109
1, 35955, Note_off_c, 0, 73, 109
1, 35967, Note_on_c, 0, 72, 106
1, 36247, Note_off_c, 0, 72, 106
1, 36252, Note_on_c, 0, 68, 99
1, 36296, Note_off_c, 0, 68, 99
1, 36296, Note_on_c, 0, 72, 113
1, 36357, Note_off_c, 0, 72, 113
1, 36368, Note_on_c, 0, 71, 115
1, 36520, Note_off_c, 0, 71, 115
1, 36531, Note_on_c, 0, 70, 110
1, 36553, Note_off_c, 0, 70, 110
1, 36558, Note_on_c, 0, 71, 122
1, 36691, Note_off_c, 0, 71, 122
1, 36696, Note_on_c, 0, 68, 111
1, 36809, Note_off_c, 0, 68, 111
1, 37027, Note_on_c, 0, 59, 106
1, 37074, Note_off_c, 0, 59, 106
1, 37074, Note_on_c, 0, 64, 112
1, 37106, Note_off_c, 0, 64, 112
1, 37106, Note_on_c, 0, 68, 104
1, 37146, Note_off_c, 0, 68, 104
1, 37159, Note_on_c, 0, 71, 110
1, 37195, Note_off_c, 0, 71, 110
1, 37201, Note_on_c, 0, 65, 106
1, 37239, Note_off_c, 0, 65, 106
1, 37241, Note_on_c, 0, 67, 109
1, 37271, Note_off_c, 0, 67, 109
1, 37277, Note_on_c, 0, 69, 111
1, 37307, Note_off_c, 0, 69, 111
1, 37312, Note_on_c, 0, 71, 116
1, 37347, Note_off_c, 0, 71, 116
1, 37350, Note_on_c, 0, 67, 110
1, 37466, Note_off_c, 0, 67, 110
1, 37468, Note_on_c, 0, 65, 104
1, 37545, Note_off_c, 0, 65, 104
1, 37562, Note_on_c, 0, 64, 107
1, 37875, Note_off_c, 0, 64, 107
1, 38158, Note_on_c, 0, 62, 114
1, 38175, Note_off_c, 0, 62, 114
1, 38180, Note_on_c, 0, 63, 121
1, 38294, Note_off_c, 0, 63, 121
1, 38310, Note_on_c, 0, 63, 126
1, 38410, Note_off_c, 0, 63, 126
1, 38418, Note_on_c, 0, 62, 114
1, 38494, Note_off_c, 0, 62, 114
1, 38516, Note_on_c, 0, 68, 104
1, 38545, Note_off_c, 0, 68, 104
1, 38557, Note_on_c, 0, 70, 120
1, 38918, Note_off_c, 0, 70, 120
1, 38999, Note_on_c, 0, 65, 98
1, 39018, Note_off_c, 0, 65, 98
1, 39027, Note_on_c, 0, 66, 113
1, 39093, Note_off_c, 0, 66, 113
1, 39100, Note_on_c, 0, 65, 108
1, 39120, Note_off_c, 0, 65, 108
1, 39133, Note_on_c, 0, 64, 99
1, 39183, Note_off_c, 0, 64, 99
1, 39219, Note_on_c, 0, 68, 113
1, 39262, Note_off_c, 0, 68, 113
1, 39265, Note_on_c, 0, 66, 112
1, 39318, Note_off_c, 0, 66, 112
1, 39318, Note_on_c, 0, 63, 109
1, 39369, Note_off_c, 0, 63, 109
1, 39370, Note_on_c, 0, 61, 108
1, 39417, Note_off_c, 0, 61, 108
1, 39417, Note_on_c, 0, 58, 107
1, 39464, Note_off_c, 0, 58, 107
1, 39476, Note_on_c, 0, 54, 105
1, 39522, Note_off_c, 0, 54, 105
1, 39528, Note_on_c, 0, 53, 101
1, 39559, Note_off_c, 0, 53, 101
1, 39568, Note_on_c, 0, 51, 108
1, 39620, Note_off_c, 0, 51, 108
1, 39674, Note_on_c, 0, 54, 99
1, 39716, Note_off_c, 0, 54, 99
1, 39731, Note_on_c, 0, 56, 104
1, 39811, Note_off_c, 0, 56, 104
1, 39841, Note_on_c, 0, 54, 104
1, 39967, Note_off_c, 0, 54, 104
1, 39985, Note_on_c, 0, 51, 105
1, 40021, Note_off_c, 0, 51, 105
1, 40028, Note_on_c, 0, 53, 95
1, 40079, Note_off_c, 0, 53, 95
1, 40499, Note_on_c, 0, 65, 116
1, 40547, Note_off_c, 0, 65, 116
1, 40553, Note_on_c, 0, 63, 120
1, 40597, Note_off_c, 0, 63, 120
1, 40637, Note_on_c, 0, 69, 119
1, 40659, Note_off_c, 0, 69, 119
1, 40664, Note_on_c, 0, 70, 126
1, 40751, Note_off_c, 0, 70, 126
1, 40793, Note_on_c, 0, 70, 126
1, 40885, Note_off_c, 0, 70, 126
1, 40910, Note_on_c, 0, 70, 117
1, 41634, Note_off_c, 0, 70, 117
1, 41711, Note_on_c, 0, 70, 112
1, 41753, Note_off_c, 0, 70, 112
1, 41789, Note_on_c, 0, 71, 114
1, 41808, Note_off_c, 0, 71, 114
1, 41815, Note_on_c, 0, 72, 121
1, 41937, Note_off_c, 0, 72, 121
1, 41944, Note_on_c, 0, 71, 113
1, 41976, Note_off_c, 0, 71, 113
1, 41982, Note_on_c, 0, 72, 114
1, 42062, Note_off_c, 0, 72, 114
1, 42065, Note_on_c, 0, 68, 94
1, 42480, Note_off_c, 0, 68, 94
1, 42632, Note_on_c, 0, 70, 116
1, 42707, Note_off_c, 0, 70, 116
1, 42721, Note_on_c, 0, 68, 107
1, 42794, Note_off_c, 0, 68, 107
1, 42852, Note_on_c, 0, 67, 112
1, 42882, Note_off_c, 0, 67, 112
1, 42895, Note_on_c, 0, 69, 112
1, 43053, Note_off_c, 0, 69, 112
1, 43056, Note_on_c, 0, 68, 111
1, 43224, Note_off_c, 0, 68, 111
1, 43230, Note_on_c, 0, 67, 106
1, 43409, Note_off_c, 0, 67, 106
1, 43412, Note_on_c, 0, 68, 113
1, 43645, Note_off_c, 0, 68, 113
1, 43670, Note_on_c, 0, 70, 93
1, 43709, Note_off_c, 0, 70, 93
1, 43732, Note_on_c, 0, 75, 106
1, 43776, Note_off_c, 0, 75, 106
1, 43865, Note_on_c, 0, 75, 103
1, 44296, Note_off_c, 0, 75, 103
1, 44297, Note_on_c, 0, 73, 103
1, 44358, Note_off_c, 0, 73, 103
1, 44388, Note_on_c, 0, 66, 103
1, 44894, Note_off_c, 0, 66, 103
1, 44912, Note_on_c, 0, 64, 113
1, 44956, Note_off_c, 0, 64, 113
1, 44970, Note_on_c, 0, 59, 105
1, 45018, Note_off_c, 0, 59, 105
1, 45037, Note_on_c, 0, 55, 99
1, 45101, Note_off_c, 0, 55, 99
1, 45103, Note_on_c, 0, 54, 100
1, 45143, Note_on_c, 0, 55, 99
1, 45143, Note_off_c, 0, 54, 100
1, 45204, Note_off_c, 0, 55, 99
1, 45504, Note_on_c, 0, 63, 116
1, 45542, Note_off_c, 0, 63, 116
1, 45544, Note_on_c, 0, 61, 100
1, 45583, Note_off_c, 0, 61, 100
1, 45638, Note_on_c, 0, 73, 116
1, 45787, Note_off_c, 0, 73, 116
1, 45801, Note_on_c, 0, 73, 117
1, 45856, Note_off_c, 0, 73, 117
1, 45912, Note_on_c, 0, 73, 115
1, 46033, Note_off_c, 0, 73, 115
1, 46044, Note_on_c, 0, 72, 119
1, 46087, Note_on_c, 0, 71, 114
1, 46087, Note_off_c, 0, 72, 119
1, 46105, Note_off_c, 0, 71, 114
1, 46108, Note_on_c, 0, 70, 116
1, 46217, Note_off_c, 0, 70, 116
1, 46257, Note_on_c, 0, 70, 112
1, 46565, Note_off_c, 0, 70, 112
1, 46579, Note_on_c, 0, 66, 110
1, 46629, Note_off_c, 0, 66, 110
1, 46642, Note_on_c, 0, 73, 103
1, 46690, Note_off_c, 0, 73, 103
1, 46721, Note_on_c, 0, 63, 114
1, 46759, Note_off_c, 0, 63, 114
1, 46786, Note_on_c, 0, 65, 105
1, 47016, Note_off_c, 0, 65, 105
1, 47037, Note_on_c, 0, 65, 101
1, 47329, Note_off_c, 0, 65, 101
1, 47652, Note_on_c, 0, 63, 122
1, 47673, Note_off_c, 0, 63, 122
1, 47683, Note_on_c, 0, 65, 109
1, 47810, Note_off_c, 0, 65, 109
1, 47813, Note_on_c, 0, 63, 117
1, 47853, Note_off_c, 0, 63, 117
1, 47945, Note_on_c, 0, 68, 111
1, 48192, Note_off_c, 0, 68, 111
1, 48215, Note_on_c, 0, 65, 102
1, 48261, Note_off_c, 0, 65, 102
1, 48313, Note_on_c, 0, 61, 107
1, 48786, Note_off_c, 0, 61, 107
1, 48811, Note_on_c, 0, 58, 100
1, 48857, Note_off_c, 0, 58, 100
1, 48871, Note_on_c, 0, 60, 102
1, 48931, Note_off_c, 0, 60, 102
1, 48940, Note_on_c, 0, 63, 108
1, 49000, Note_off_c, 0, 63, 108
1, 49019, Note_on_c, 0, 57, 101
1, 49348, Note_off_c, 0, 57, 101
1, 49556, Note_on_c, 0, 54, 102
1, 49608, Note_off_c, 0, 54, 102
1, 49619, Note_on_c, 0, 56, 101
1, 49651, Note_off_c, 0, 56, 101
1, 49670, Note_on_c, 0, 59, 105
1, 49716, Note_off_c, 0, 59, 105
1, 49719, Note_on_c, 0, 55, 96
1, 49914, Note_off_c, 0, 55, 96
1, 49939, Note_on_c, 0, 50, 113
1, 49970, Note_off_c, 0, 50, 113
1, 49979, Note_on_c, 0, 55, 106
1, 50054, Note_off_c, 0, 55, 106
1, 50061, Note_on_c, 0, 49, 99
1, 50119, Note_off_c, 0, 49, 99
1, 50131, Note_on_c, 0, 48, 109
1, 50218, Note_off_c, 0, 48, 109
1, 50256, Note_on_c, 0, 56, 105
1, 50395, Note_off_c, 0, 56, 105
1, 50416, Note_on_c, 0, 56, 103
1, 50520, Note_off_c, 0, 56, 103
1, 50537, Note_on_c, 0, 53, 99
1, 50782, Note_off_c, 0, 53, 99
1, 51000, Note_on_c, 0, 66, 106
1, 51185, Note_off_c, 0, 66, 106
1, 51195, Note_on_c, 0, 65, 103
1, 51210, Note_off_c, 0, 65, 103
1, 51217, Note_on_c, 0, 66, 104
1, 51372, Note_off_c, 0, 66, 104
1, 51401, Note_on_c, 0, 63, 103
1, 51626, Note_off_c, 0, 63, 103
1, 51633, Note_on_c, 0, 62, 104
1, 51664, Note_off_c, 0, 62, 104
1, 51670, Note_on_c, 0, 63, 100
1, 51704, Note_off_c, 0, 63, 100
1, 51711, Note_on_c, 0, 65, 95
1, 51750, Note_off_c, 0, 65, 95
1, 51750, Note_on_c, 0, 63, 96
1, 51790, Note_off_c, 0, 63, 96
1, 51792, Note_on_c, 0, 62, 99
1, 51831, Note_off_c, 0, 62, 99
1, 51842, Note_on_c, 0, 63, 82
1, 52087, Note_off_c, 0, 63, 82
1, 52087, End_track
0, 0, End_of_file
