0, 0, Header, 1, 1, 840
1, 0, Start_track
1, 0, Title_t, "Melody"
1, 0, Tempo, 434782
1, 0, Key_signature, -2, "major"
1, 0, Time_signature, 4, 2, 24, 8
1, 13195, Note_on_c, 0, 61, 114
1, 13284, Note_off_c, 0, 61, 114
1, 13290, Note_on_c, 0, 62, 114
1, 13463, Note_off_c, 0, 62, 114
1, 13474, Note_on_c, 0, 65, 115
1, 13639, Note_off_c, 0, 65, 115
1, 13685, Note_on_c, 0, 62, 118
1, 13853, Note_off_c, 0, 62, 118
1, 13858, Note_on_c, 0, 63, 120
1, 14003, Note_off_c, 0, 63, 120
1, 14019, Note_on_c, 0, 65, 115
1, 14176, Note_off_c, 0, 65, 115
1, 14194, Note_on_c, 0, 67, 112
1, 14379, Note_off_c, 0, 67, 112
1, 14391, Note_on_c, 0, 69, 121
1, 14544, Note_off_c, 0, 69, 121
1, 14569, Note_on_c, 0, 70, 120
1, 15191, Note_off_c, 0, 70, 120
1, 15214, Note_on_c, 0, 69, 115
1, 15362, Note_off_c, 0, 69, 115
1, 15385, Note_on_c, 0, 67, 108
1, 15526, Note_off_c, 0, 67, 108
1, 15537, Note_on_c, 0, 65, 117
1, 16745, Note_off_c, 0, 65, 117
1, 16775, Note_on_c, 0, 61, 112
1, 16932, Note_off_c, 0, 61, 112
1, 16946, Note_on_c, 0, 62, 111
1, 18398, Note_off_c, 0, 62, 111
1, 18422, Note_on_c, 0, 65, 110
1, 18590, Note_off_c, 0, 65, 110
1, 18622, Note_on_c, 0, 63, 112
1, 19367, Note_off_c, 0, 63, 112
1, 19383, Note_on_c, 0, 65, 107
1, 19999, Note_off_c, 0, 65, 107
1, 20027, Note_on_c, 0, 67, 106
1, 21067, Note_off_c, 0, 67, 106
1, 21075, Note_on_c, 0, 69, 112
1, 21532, Note_off_c, 0, 69, 112
1, 21543, Note_on_c, 0, 65, 101
1, 22995, Note_off_c, 0, 65, 101
1, 25148, Note_on_c, 0, 60, 110
1, 25234, Note_off_c, 0, 60, 110
1, 25243, Note_on_c, 0, 62, 114
1, 25390, Note_off_c, 0, 62, 114
1, 25400, Note_on_c, 0, 63, 115
1, 25489, Note_off_c, 0, 63, 115
1, 25495, Note_on_c, 0, 65, 110
1, 25585, Note_off_c, 0, 65, 110
1, 25596, Note_on_c, 0, 67, 100
1, 25690, Note_off_c, 0, 67, 100
1, 25839, Note_on_c, 0, 62, 115
1, 26028, Note_off_c, 0, 62, 115
1, 26035, Note_on_c, 0, 63, 119
1, 26157, Note_off_c, 0, 63, 119
1, 26165, Note_on_c, 0, 65, 113
1, 26265, Note_off_c, 0, 65, 113
1, 26273, Note_on_c, 0, 67, 116
1, 26375, Note_off_c, 0, 67, 116
1, 26384, Note_on_c, 0, 68, 115
1, 26465, Note_off_c, 0, 68, 115
1, 26472, Note_on_c, 0, 71, 116
1, 26582, Note_off_c, 0, 71, 116
1, 26597, Note_on_c, 0, 73, 122
1, 27298, Note_off_c, 0, 73, 122
1, 27305, Note_on_c, 0, 71, 118
1, 27439, Note_off_c, 0, 71, 118
1, 27445, Note_on_c, 0, 69, 112
1, 27543, Note_off_c, 0, 69, 112
1, 27556, Note_on_c, 0, 68, 116
1, 27733, Note_off_c, 0, 68, 116
1, 27744, Note_on_c, 0, 66, 110
1, 27866, Note_off_c, 0, 66, 110
1, 27873, Note_on_c, 0, 63, 117
1, 27967, Note_off_c, 0, 63, 117
1, 27980, Note_on_c, 0, 61, 111
1, 28094, Note_off_c, 0, 61, 111
1, 28113, Note_on_c, 0, 59, 102
1, 28215, Note_off_c, 0, 59, 102
1, 28244, Note_on_c, 0, 56, 104
1, 28322, Note_off_c, 0, 56, 104
1, 28341, Note_on_c, 0, 54, 110
1, 28415, Note_off_c, 0, 54, 110
1, 28436, Note_on_c, 0, 53, 108
1, 28522, Note_on_c, 0, 51, 106
1, 28522, Note_off_c, 0, 53, 108
1, 28598, Note_off_c, 0, 51, 106
1, 28607, Note_on_c, 0, 50, 109
1, 28683, Note_off_c, 0, 50, 109
1, 28684, Note_on_c, 0, 47, 106
1, 28806, Note_off_c, 0, 47, 106
1, 28813, Note_on_c, 0, 46, 106
1, 29357, Note_off_c, 0, 46, 106
1, 30642, Note_on_c, 0, 67, 120
1, 30841, Note_off_c, 0, 67, 120
1, 30844, Note_on_c, 0, 66, 115
1, 31017, Note_off_c, 0, 66, 115
1, 31030, Note_on_c, 0, 65, 111
1, 31276, Note_off_c, 0, 65, 111
1, 31293, Note_on_c, 0, 63, 112
1, 31423, Note_off_c, 0, 63, 112
1, 31434, Note_on_c, 0, 62, 112
1, 31631, Note_off_c, 0, 62, 112
1, 31648, Note_on_c, 0, 60, 105
1, 31888, Note_off_c, 0, 60, 105
1, 31913, Note_on_c, 0, 59, 103
1, 32039, Note_off_c, 0, 59, 103
1, 32065, Note_on_c, 0, 55, 106
1, 32275, Note_off_c, 0, 55, 106
1, 32284, Note_on_c, 0, 57, 105
1, 32414, Note_off_c, 0, 57, 105
1, 32459, Note_on_c, 0, 59, 98
1, 32719, Note_off_c, 0, 59, 98
1, 32832, Note_on_c, 0, 62, 116
1, 32999, Note_off_c, 0, 62, 116
1, 33008, Note_on_c, 0, 63, 108
1, 33220, Note_off_c, 0, 63, 108
1, 33235, Note_on_c, 0, 65, 101
1, 33369, Note_off_c, 0, 65, 101
1, 33385, Note_on_c, 0, 67, 116
1, 33590, Note_off_c, 0, 67, 116
1, 33598, Note_on_c, 0, 70, 120
1, 33783, Note_off_c, 0, 70, 120
1, 33793, Note_on_c, 0, 69, 114
1, 33990, Note_off_c, 0, 69, 114
1, 33998, Note_on_c, 0, 67, 110
1, 34248, Note_off_c, 0, 67, 110
1, 34253, Note_on_c, 0, 65, 107
1, 34381, Note_off_c, 0, 65, 107
1, 34426, Note_on_c, 0, 63, 116
1, 34607, Note_off_c, 0, 63, 116
1, 34628, Note_on_c, 0, 62, 112
1, 34803, Note_off_c, 0, 62, 112
1, 34823, Note_on_c, 0, 60, 106
1, 35008, Note_off_c, 0, 60, 106
1, 35022, Note_on_c, 0, 58, 105
1, 35237, Note_off_c, 0, 58, 105
1, 35291, Note_on_c, 0, 53, 95
1, 35444, Note_off_c, 0, 53, 95
1, 35487, Note_on_c, 0, 62, 112
1, 35703, Note_off_c, 0, 62, 112
1, 35724, Note_on_c, 0, 60, 105
1, 35932, Note_off_c, 0, 60, 105
1, 36000, Note_on_c, 0, 58, 100
1, 36145, Note_off_c, 0, 58, 100
1, 36167, Note_on_c, 0, 60, 105
1, 36295, Note_off_c, 0, 60, 105
1, 36304, Note_on_c, 0, 62, 108
1, 36528, Note_off_c, 0, 62, 108
1, 36547, Note_on_c, 0, 65, 100
1, 36690, Note_off_c, 0, 65, 100
1, 36735, Note_on_c, 0, 70, 109
1, 37783, Note_off_c, 0, 70, 109
1, 37798, Note_on_c, 0, 67, 103
1, 38012, Note_off_c, 0, 67, 103
1, 38027, Note_on_c, 0, 63, 114
1, 38161, Note_off_c, 0, 63, 114
1, 38186, Note_on_c, 0, 60, 98
1, 39173, Note_off_c, 0, 60, 98
1, 40903, Note_on_c, 0, 61, 113
1, 41228, Note_off_c, 0, 61, 113
1, 41230, Note_on_c, 0, 62, 91
1, 41353, Note_off_c, 0, 62, 91
1, 41379, Note_on_c, 0, 67, 111
1, 41658, Note_off_c, 0, 67, 111
1, 41669, Note_on_c, 0, 66, 113
1, 41842, Note_off_c, 0, 66, 113
1, 41853, Note_on_c, 0, 65, 111
1, 42058, Note_off_c, 0, 65, 111
1, 42075, Note_on_c, 0, 63, 119
1, 42274, Note_off_c, 0, 63, 119
1, 42295, Note_on_c, 0, 62, 112
1, 42464, Note_off_c, 0, 62, 112
1, 42477, Note_on_c, 0, 60, 113
1, 42747, Note_off_c, 0, 60, 113
1, 42778, Note_on_c, 0, 58, 101
1, 42917, Note_off_c, 0, 58, 101
1, 42920, Note_on_c, 0, 60, 106
1, 43134, Note_off_c, 0, 60, 106
1, 43159, Note_on_c, 0, 62, 105
1, 43300, Note_off_c, 0, 62, 105
1, 43323, Note_on_c, 0, 65, 101
1, 43441, Note_off_c, 0, 65, 101
1, 43458, Note_on_c, 0, 69, 116
1, 43702, Note_off_c, 0, 69, 116
1, 43715, Note_on_c, 0, 72, 114
1, 43884, Note_off_c, 0, 72, 114
1, 43895, Note_on_c, 0, 69, 114
1, 44127, Note_off_c, 0, 69, 114
1, 44186, Note_on_c, 0, 65, 103
1, 44357, Note_off_c, 0, 65, 103
1, 44402, Note_on_c, 0, 70, 110
1, 44549, Note_off_c, 0, 70, 110
1, 44558, Note_on_c, 0, 71, 118
1, 44652, Note_off_c, 0, 71, 118
1, 44667, Note_on_c, 0, 68, 115
1, 44812, Note_off_c, 0, 68, 115
1, 44839, Note_on_c, 0, 64, 120
1, 45022, Note_off_c, 0, 64, 120
1, 45023, Note_on_c, 0, 60, 108
1, 45188, Note_off_c, 0, 60, 108
1, 45217, Note_on_c, 0, 63, 108
1, 45274, Note_off_c, 0, 63, 108
1, 45275, Note_on_c, 0, 66, 114
1, 45381, Note_off_c, 0, 66, 114
1, 45386, Note_on_c, 0, 70, 114
1, 45484, Note_off_c, 0, 70, 114
1, 45499, Note_on_c, 0, 69, 113
1, 45903, Note_off_c, 0, 69, 113
1, 45914, Note_on_c, 0, 67, 110
1, 46113, Note_off_c, 0, 67, 110
1, 46122, Note_on_c, 0, 65, 109
1, 46413, Note_off_c, 0, 65, 109
1, 46438, Note_on_c, 0, 62, 107
1, 46607, Note_off_c, 0, 62, 107
1, 46618, Note_on_c, 0, 63, 109
1, 46781, Note_off_c, 0, 63, 109
1, 46788, Note_on_c, 0, 65, 107
1, 46910, Note_off_c, 0, 65, 107
1, 46913, Note_on_c, 0, 67, 106
1, 47127, Note_off_c, 0, 67, 106
1, 47146, Note_on_c, 0, 63, 117
1, 47295, Note_off_c, 0, 63, 117
1, 47320, Note_on_c, 0, 61, 110
1, 47426, Note_off_c, 0, 61, 110
1, 47434, Note_on_c, 0, 60, 106
1, 47658, Note_off_c, 0, 60, 106
1, 47658, Note_on_c, 0, 65, 112
1, 47845, Note_off_c, 0, 65, 112
1, 47889, Note_on_c, 0, 61, 115
1, 48048, Note_off_c, 0, 61, 115
1, 48084, Note_on_c, 0, 57, 117
1, 48168, Note_off_c, 0, 57, 117
1, 48173, Note_on_c, 0, 53, 112
1, 48394, Note_off_c, 0, 53, 112
1, 48458, Note_on_c, 0, 60, 109
1, 48575, Note_off_c, 0, 60, 109
1, 48591, Note_on_c, 0, 62, 110
1, 48843, Note_off_c, 0, 62, 110
1, 48988, Note_on_c, 0, 53, 103
1, 49173, Note_off_c, 0, 53, 103
1, 49201, Note_on_c, 0, 55, 101
1, 49644, Note_off_c, 0, 55, 101
1, 49702, Note_on_c, 0, 57, 92
1, 50394, Note_off_c, 0, 57, 92
1, 52098, Note_on_c, 0, 53, 105
1, 52364, Note_off_c, 0, 53, 105
1, 52389, Note_on_c, 0, 56, 103
1, 52588, Note_off_c, 0, 56, 103
1, 52596, Note_on_c, 0, 57, 94
1, 52738, Note_off_c, 0, 57, 94
1, 52768, Note_on_c, 0, 59, 96
1, 52925, Note_off_c, 0, 59, 96
1, 52941, Note_on_c, 0, 61, 102
1, 53154, Note_off_c, 0, 61, 102
1, 53165, Note_on_c, 0, 64, 106
1, 53324, Note_off_c, 0, 64, 106
1, 53324, Note_on_c, 0, 68, 117
1, 53534, Note_off_c, 0, 68, 117
1, 53539, Note_on_c, 0, 66, 112
1, 53715, Note_off_c, 0, 66, 112
1, 53723, Note_on_c, 0, 65, 113
1, 53916, Note_off_c, 0, 65, 113
1, 53938, Note_on_c, 0, 63, 118
1, 54109, Note_off_c, 0, 63, 118
1, 54125, Note_on_c, 0, 62, 113
1, 54349, Note_off_c, 0, 62, 113
1, 54368, Note_on_c, 0, 60, 108
1, 54567, Note_off_c, 0, 60, 108
1, 54581, Note_on_c, 0, 58, 99
1, 54760, Note_off_c, 0, 58, 99
1, 57367, Note_on_c, 0, 67, 110
1, 57636, Note_off_c, 0, 67, 110
1, 57655, Note_on_c, 0, 66, 112
1, 57876, Note_off_c, 0, 66, 112
1, 57892, Note_on_c, 0, 65, 106
1, 58051, Note_off_c, 0, 65, 106
1, 58081, Note_on_c, 0, 63, 114
1, 58282, Note_off_c, 0, 63, 114
1, 58290, Note_on_c, 0, 62, 108
1, 58455, Note_off_c, 0, 62, 108
1, 58469, Note_on_c, 0, 60, 101
1, 58710, Note_off_c, 0, 60, 101
1, 58749, Note_on_c, 0, 59, 100
1, 58886, Note_off_c, 0, 59, 100
1, 58936, Note_on_c, 0, 55, 103
1, 59115, Note_off_c, 0, 55, 103
1, 59154, Note_on_c, 0, 60, 105
1, 59347, Note_off_c, 0, 60, 105
1, 59369, Note_on_c, 0, 62, 111
1, 59534, Note_off_c, 0, 62, 111
1, 59553, Note_on_c, 0, 63, 114
1, 59746, Note_off_c, 0, 63, 114
1, 59768, Note_on_c, 0, 65, 108
1, 60135, Note_off_c, 0, 65, 108
1, 62420, Note_on_c, 0, 61, 115
1, 62644, Note_off_c, 0, 61, 115
1, 62660, Note_on_c, 0, 62, 116
1, 62828, Note_off_c, 0, 62, 116
1, 62835, Note_on_c, 0, 65, 113
1, 63040, Note_off_c, 0, 65, 113
1, 63071, Note_on_c, 0, 62, 112
1, 63239, Note_off_c, 0, 62, 112
1, 63247, Note_on_c, 0, 63, 114
1, 63446, Note_off_c, 0, 63, 114
1, 63472, Note_on_c, 0, 65, 111
1, 63649, Note_off_c, 0, 65, 111
1, 63668, Note_on_c, 0, 67, 101
1, 63817, Note_off_c, 0, 67, 101
1, 63923, Note_on_c, 0, 69, 114
1, 64088, Note_off_c, 0, 69, 114
1, 64118, Note_on_c, 0, 71, 113
1, 64171, Note_off_c, 0, 71, 113
1, 64179, Note_on_c, 0, 70, 112
1, 64347, Note_off_c, 0, 70, 112
1, 64358, Note_on_c, 0, 69, 115
1, 64531, Note_off_c, 0, 69, 115
1, 64541, Note_on_c, 0, 67, 108
1, 64714, Note_off_c, 0, 67, 108
1, 64746, Note_on_c, 0, 66, 113
1, 64978, Note_off_c, 0, 66, 113
1, 65001, Note_on_c, 0, 65, 114
1, 65206, Note_off_c, 0, 65, 114
1, 65231, Note_on_c, 0, 63, 116
1, 65416, Note_off_c, 0, 63, 116
1, 65422, Note_on_c, 0, 62, 111
1, 65611, Note_off_c, 0, 62, 111
1, 65662, Note_on_c, 0, 60, 107
1, 65863, Note_off_c, 0, 60, 107
1, 66034, Note_on_c, 0, 58, 102
1, 66115, Note_off_c, 0, 58, 102
1, 66138, Note_on_c, 0, 60, 103
1, 66307, Note_off_c, 0, 60, 103
1, 66334, Note_on_c, 0, 62, 98
1, 66503, Note_off_c, 0, 62, 98
1, 66599, Note_on_c, 0, 67, 106
1, 66677, Note_off_c, 0, 67, 106
1, 66686, Note_on_c, 0, 70, 111
1, 66887, Note_off_c, 0, 70, 111
1, 66918, Note_on_c, 0, 74, 109
1, 67048, Note_off_c, 0, 74, 109
1, 67083, Note_on_c, 0, 68, 109
1, 67250, Note_off_c, 0, 68, 109
1, 67322, Note_on_c, 0, 72, 105
1, 67495, Note_off_c, 0, 72, 105
1, 67498, Note_on_c, 0, 70, 106
1, 67732, Note_off_c, 0, 70, 106
1, 67793, Note_on_c, 0, 66, 110
1, 67915, Note_off_c, 0, 66, 110
1, 67932, Note_on_c, 0, 62, 112
1, 68288, Note_off_c, 0, 62, 112
1, 68410, Note_on_c, 0, 66, 112
1, 68514, Note_off_c, 0, 66, 112
1, 68523, Note_on_c, 0, 67, 109
1, 68852, Note_off_c, 0, 67, 109
1, 68853, Note_on_c, 0, 70, 106
1, 70378, Note_off_c, 0, 70, 106
1, 72361, Note_on_c, 0, 68, 117
1, 72640, Note_off_c, 0, 68, 117
1, 72655, Note_on_c, 0, 67, 116
1, 72942, Note_off_c, 0, 67, 116
1, 73191, Note_on_c, 0, 62, 108
1, 73283, Note_off_c, 0, 62, 108
1, 73299, Note_on_c, 0, 67, 111
1, 73507, Note_off_c, 0, 67, 111
1, 73516, Note_on_c, 0, 65, 115
1, 73673, Note_off_c, 0, 65, 115
1, 73687, Note_on_c, 0, 63, 113
1, 73832, Note_off_c, 0, 63, 113
1, 73914, Note_on_c, 0, 60, 108
1, 74111, Note_off_c, 0, 60, 108
1, 74166, Note_on_c, 0, 56, 113
1, 74371, Note_off_c, 0, 56, 113
1, 74394, Note_on_c, 0, 53, 99
1, 74539, Note_off_c, 0, 53, 99
1, 74542, Note_on_c, 0, 62, 113
1, 74747, Note_off_c, 0, 62, 113
1, 74774, Note_on_c, 0, 60, 107
1, 74967, Note_off_c, 0, 60, 107
1, 74978, Note_on_c, 0, 58, 107
1, 75151, Note_off_c, 0, 58, 107
1, 75182, Note_on_c, 0, 56, 113
1, 75394, Note_off_c, 0, 56, 113
1, 75445, Note_on_c, 0, 51, 96
1, 75638, Note_off_c, 0, 51, 96
1, 75645, Note_on_c, 0, 53, 110
1, 75786, Note_off_c, 0, 53, 110
1, 75809, Note_on_c, 0, 55, 113
1, 75950, Note_off_c, 0, 55, 113
1, 75969, Note_on_c, 0, 56, 109
1, 76138, Note_off_c, 0, 56, 109
1, 76185, Note_on_c, 0, 58, 99
1, 76358, Note_off_c, 0, 58, 99
1, 76405, Note_on_c, 0, 60, 109
1, 76590, Note_off_c, 0, 60, 109
1, 76613, Note_on_c, 0, 62, 109
1, 76802, Note_off_c, 0, 62, 109
1, 76817, Note_on_c, 0, 63, 117
1, 76935, Note_off_c, 0, 63, 117
1, 76966, Note_on_c, 0, 65, 109
1, 77139, Note_off_c, 0, 65, 109
1, 77146, Note_on_c, 0, 67, 107
1, 77390, Note_off_c, 0, 67, 107
1, 77417, Note_on_c, 0, 63, 120
1, 77665, Note_off_c, 0, 63, 120
1, 78244, Note_on_c, 0, 59, 101
1, 78405, Note_off_c, 0, 59, 101
1, 78440, Note_on_c, 0, 56, 104
1, 78574, Note_off_c, 0, 56, 104
1, 78581, Note_on_c, 0, 68, 108
1, 78782, Note_off_c, 0, 68, 108
1, 78821, Note_on_c, 0, 70, 92
1, 78978, Note_off_c, 0, 70, 92
1, 78993, Note_on_c, 0, 67, 98
1, 79190, Note_off_c, 0, 67, 98
1, 79201, Note_on_c, 0, 68, 96
1, 79362, Note_off_c, 0, 68, 96
1, 79369, Note_on_c, 0, 64, 106
1, 79499, Note_off_c, 0, 64, 106
1, 79522, Note_on_c, 0, 66, 102
1, 79699, Note_off_c, 0, 66, 102
1, 79753, Note_on_c, 0, 69, 112
1, 79969, Note_off_c, 0, 69, 112
1, 80007, Note_on_c, 0, 73, 118
1, 80228, Note_off_c, 0, 73, 118
1, 80264, Note_on_c, 0, 71, 107
1, 80387, Note_off_c, 0, 71, 107
1, 80451, Note_on_c, 0, 69, 113
1, 80630, Note_off_c, 0, 69, 113
1, 80644, Note_on_c, 0, 68, 114
1, 80868, Note_off_c, 0, 68, 114
1, 80918, Note_on_c, 0, 66, 108
1, 81103, Note_off_c, 0, 66, 108
1, 81131, Note_on_c, 0, 64, 115
1, 81318, Note_off_c, 0, 64, 115
1, 81388, Note_on_c, 0, 59, 99
1, 81550, Note_off_c, 0, 59, 99
1, 81566, Note_on_c, 0, 58, 98
1, 81742, Note_off_c, 0, 58, 98
1, 81806, Note_on_c, 0, 68, 111
1, 81985, Note_off_c, 0, 68, 111
1, 82013, Note_on_c, 0, 67, 106
1, 82214, Note_off_c, 0, 67, 106
1, 82267, Note_on_c, 0, 62, 109
1, 82401, Note_off_c, 0, 62, 109
1, 82420, Note_on_c, 0, 65, 110
1, 82602, Note_off_c, 0, 65, 110
1, 82641, Note_on_c, 0, 62, 109
1, 82817, Note_off_c, 0, 62, 109
1, 82845, Note_on_c, 0, 63, 109
1, 83038, Note_off_c, 0, 63, 109
1, 83052, Note_on_c, 0, 65, 102
1, 83189, Note_off_c, 0, 65, 102
1, 83205, Note_on_c, 0, 67, 107
1, 83364, Note_off_c, 0, 67, 107
1, 83375, Note_on_c, 0, 68, 110
1, 83546, Note_off_c, 0, 68, 110
1, 83574, Note_on_c, 0, 66, 103
1, 83683, Note_off_c, 0, 66, 103
1, 83702, Note_on_c, 0, 66, 100
1, 83763, Note_off_c, 0, 66, 100
1, 83765, Note_on_c, 0, 65, 112
1, 83891, Note_off_c, 0, 65, 112
1, 83899, Note_on_c, 0, 64, 110
1, 84145, Note_off_c, 0, 64, 110
1, 84215, Note_on_c, 0, 60, 103
1, 84388, Note_off_c, 0, 60, 103
1, 84402, Note_on_c, 0, 64, 114
1, 84536, Note_off_c, 0, 64, 114
1, 84578, Note_on_c, 0, 67, 106
1, 84704, Note_off_c, 0, 67, 106
1, 84734, Note_on_c, 0, 65, 106
1, 84933, Note_off_c, 0, 65, 106
1, 85011, Note_on_c, 0, 71, 105
1, 85128, Note_off_c, 0, 71, 105
1, 85144, Note_on_c, 0, 68, 109
1, 85272, Note_off_c, 0, 68, 109
1, 85291, Note_on_c, 0, 64, 107
1, 85380, Note_off_c, 0, 64, 107
1, 85416, Note_on_c, 0, 60, 90
1, 85564, Note_off_c, 0, 60, 90
1, 85603, Note_on_c, 0, 64, 115
1, 85844, Note_off_c, 0, 64, 115
1, 85953, Note_on_c, 0, 60, 95
1, 86062, Note_off_c, 0, 60, 95
1, 86076, Note_on_c, 0, 63, 111
1, 86325, Note_off_c, 0, 63, 111
1, 86341, Note_on_c, 0, 67, 108
1, 86528, Note_off_c, 0, 67, 108
1, 86556, Note_on_c, 0, 65, 106
1, 86780, Note_off_c, 0, 65, 106
1, 86816, Note_on_c, 0, 67, 103
1, 86967, Note_off_c, 0, 67, 103
1, 86992, Note_on_c, 0, 68, 113
1, 87182, Note_off_c, 0, 68, 113
1, 87196, Note_on_c, 0, 65, 101
1, 87353, Note_off_c, 0, 65, 101
1, 87378, Note_on_c, 0, 70, 107
1, 87607, Note_off_c, 0, 70, 107
1, 87635, Note_on_c, 0, 65, 108
1, 87775, Note_off_c, 0, 65, 108
1, 87786, Note_on_c, 0, 62, 113
1, 88105, Note_off_c, 0, 62, 113
1, 88138, Note_on_c, 0, 58, 93
1, 88250, Note_off_c, 0, 58, 93
1, 88258, Note_on_c, 0, 67, 107
1, 88577, Note_off_c, 0, 67, 107
1, 88756, Note_on_c, 0, 69, 101
1, 88966, Note_off_c, 0, 69, 101
1, 89184, Note_on_c, 0, 60, 100
1, 89498, Note_off_c, 0, 60, 100
1, 89577, Note_on_c, 0, 63, 109
1, 89912, Note_off_c, 0, 63, 109
1, 92312, Note_on_c, 0, 61, 117
1, 92513, Note_off_c, 0, 61, 117
1, 92541, Note_on_c, 0, 62, 115
1, 92748, Note_off_c, 0, 62, 115
1, 92762, Note_on_c, 0, 65, 113
1, 92975, Note_off_c, 0, 65, 113
1, 93022, Note_on_c, 0, 62, 112
1, 93190, Note_off_c, 0, 62, 112
1, 93201, Note_on_c, 0, 63, 116
1, 93402, Note_off_c, 0, 63, 116
1, 93407, Note_on_c, 0, 65, 113
1, 93544, Note_off_c, 0, 65, 113
1, 93549, Note_on_c, 0, 67, 108
1, 93661, Note_off_c, 0, 67, 108
1, 93677, Note_on_c, 0, 69, 117
1, 93800, Note_off_c, 0, 69, 117
1, 93830, Note_on_c, 0, 74, 123
1, 94001, Note_off_c, 0, 74, 123
1, 94012, Note_on_c, 0, 73, 118
1, 94499, Note_off_c, 0, 73, 118
1, 94513, Note_on_c, 0, 69, 117
1, 94605, Note_off_c, 0, 69, 117
1, 94641, Note_on_c, 0, 68, 119
1, 94812, Note_off_c, 0, 68, 119
1, 94823, Note_on_c, 0, 66, 113
1, 94935, Note_off_c, 0, 66, 113
1, 94943, Note_on_c, 0, 63, 120
1, 95161, Note_off_c, 0, 63, 120
1, 95203, Note_on_c, 0, 61, 117
1, 95441, Note_off_c, 0, 61, 117
1, 95452, Note_on_c, 0, 62, 121
1, 96178, Note_off_c, 0, 62, 121
1, 96189, Note_on_c, 0, 63, 116
1, 96261, Note_off_c, 0, 63, 116
1, 96272, Note_on_c, 0, 65, 112
1, 96378, Note_off_c, 0, 65, 112
1, 96386, Note_on_c, 0, 67, 108
1, 96456, Note_off_c, 0, 67, 108
1, 96456, Note_on_c, 0, 69, 120
1, 96582, Note_off_c, 0, 69, 120
1, 96593, Note_on_c, 0, 70, 114
1, 97854, Note_off_c, 0, 70, 114
1, 99177, Note_on_c, 0, 53, 107
1, 99267, Note_off_c, 0, 53, 107
1, 99276, Note_on_c, 0, 55, 106
1, 99390, Note_off_c, 0, 55, 106
1, 99418, Note_on_c, 0, 57, 105
1, 99535, Note_off_c, 0, 57, 105
1, 99588, Note_on_c, 0, 59, 104
1, 99714, Note_off_c, 0, 59, 104
1, 99722, Note_on_c, 0, 60, 111
1, 99876, Note_off_c, 0, 60, 111
1, 99890, Note_on_c, 0, 62, 112
1, 99971, Note_off_c, 0, 62, 112
1, 99982, Note_on_c, 0, 63, 116
1, 100110, Note_off_c, 0, 63, 116
1, 100124, Note_on_c, 0, 65, 110
1, 100278, Note_off_c, 0, 65, 110
1, 100286, Note_on_c, 0, 67, 106
1, 100386, Note_off_c, 0, 67, 106
1, 100402, Note_on_c, 0, 69, 115
1, 100544, Note_off_c, 0, 69, 115
1, 100563, Note_on_c, 0, 70, 114
1, 100722, Note_off_c, 0, 70, 114
1, 100737, Note_on_c, 0, 69, 119
1, 101389, Note_off_c, 0, 69, 119
1, 101398, Note_on_c, 0, 67, 110
1, 101668, Note_off_c, 0, 67, 110
1, 101685, Note_on_c, 0, 65, 111
1, 102790, Note_off_c, 0, 65, 111
1, 102817, Note_on_c, 0, 64, 110
1, 103016, Note_off_c, 0, 64, 110
1, 103035, Note_on_c, 0, 65, 104
1, 103216, Note_off_c, 0, 65, 104
1, 103235, Note_on_c, 0, 67, 103
1, 103369, Note_off_c, 0, 67, 103
1, 103374, Note_on_c, 0, 69, 115
1, 103687, Note_off_c, 0, 69, 115
1, 105918, Note_on_c, 0, 73, 113
1, 106038, Note_off_c, 0, 73, 113
1, 106046, Note_on_c, 0, 71, 113
1, 106208, Note_off_c, 0, 71, 113
1, 106216, Note_on_c, 0, 68, 117
1, 106426, Note_off_c, 0, 68, 117
1, 106440, Note_on_c, 0, 66, 113
1, 106594, Note_off_c, 0, 66, 113
1, 106610, Note_on_c, 0, 67, 116
1, 106792, Note_off_c, 0, 67, 116
1, 106804, Note_on_c, 0, 65, 112
1, 107042, Note_off_c, 0, 65, 112
1, 107046, Note_on_c, 0, 61, 113
1, 107191, Note_off_c, 0, 61, 113
1, 107210, Note_on_c, 0, 64, 119
1, 107434, Note_off_c, 0, 64, 119
1, 107456, Note_on_c, 0, 61, 113
1, 107615, Note_off_c, 0, 61, 113
1, 107624, Note_on_c, 0, 63, 118
1, 107868, Note_off_c, 0, 63, 118
1, 109170, Note_on_c, 0, 62, 116
1, 109298, Note_off_c, 0, 62, 116
1, 109309, Note_on_c, 0, 63, 117
1, 109440, Note_off_c, 0, 63, 117
1, 109465, Note_on_c, 0, 65, 113
1, 109582, Note_off_c, 0, 65, 113
1, 109587, Note_on_c, 0, 66, 110
1, 109735, Note_off_c, 0, 66, 110
1, 109740, Note_on_c, 0, 67, 111
1, 109860, Note_off_c, 0, 67, 111
1, 109872, Note_on_c, 0, 66, 112
1, 110048, Note_off_c, 0, 66, 112
1, 110056, Note_on_c, 0, 65, 112
1, 110184, Note_off_c, 0, 65, 112
1, 110192, Note_on_c, 0, 63, 118
1, 110318, Note_off_c, 0, 63, 118
1, 110327, Note_on_c, 0, 62, 114
1, 110486, Note_off_c, 0, 62, 114
1, 110503, Note_on_c, 0, 60, 108
1, 110654, Note_off_c, 0, 60, 108
1, 110666, Note_on_c, 0, 59, 102
1, 110796, Note_off_c, 0, 59, 102
1, 110813, Note_on_c, 0, 56, 113
1, 110930, Note_off_c, 0, 56, 113
1, 110940, Note_on_c, 0, 55, 111
1, 111148, Note_off_c, 0, 55, 111
1, 112070, Note_on_c, 0, 55, 108
1, 112328, Note_off_c, 0, 55, 108
1, 112335, Note_on_c, 0, 57, 109
1, 112431, Note_off_c, 0, 57, 109
1, 112438, Note_on_c, 0, 59, 100
1, 112597, Note_off_c, 0, 59, 100
1, 112644, Note_on_c, 0, 62, 112
1, 112809, Note_off_c, 0, 62, 112
1, 112834, Note_on_c, 0, 60, 107
1, 113029, Note_off_c, 0, 60, 107
1, 113052, Note_on_c, 0, 62, 112
1, 113154, Note_off_c, 0, 62, 112
1, 113159, Note_on_c, 0, 63, 114
1, 113263, Note_off_c, 0, 63, 114
1, 113278, Note_on_c, 0, 65, 112
1, 113398, Note_off_c, 0, 65, 112
1, 113409, Note_on_c, 0, 66, 109
1, 113509, Note_off_c, 0, 66, 109
1, 113524, Note_on_c, 0, 69, 115
1, 113671, Note_off_c, 0, 69, 115
1, 113682, Note_on_c, 0, 68, 113
1, 113804, Note_off_c, 0, 68, 113
1, 113837, Note_on_c, 0, 67, 108
1, 114002, Note_off_c, 0, 67, 108
1, 114012, Note_on_c, 0, 65, 111
1, 114146, Note_off_c, 0, 65, 111
1, 114160, Note_on_c, 0, 64, 114
1, 114325, Note_off_c, 0, 64, 114
1, 114333, Note_on_c, 0, 63, 114
1, 114461, Note_off_c, 0, 63, 114
1, 114484, Note_on_c, 0, 62, 110
1, 114635, Note_off_c, 0, 62, 110
1, 114644, Note_on_c, 0, 60, 105
1, 114770, Note_off_c, 0, 60, 105
1, 114775, Note_on_c, 0, 58, 102
1, 114881, Note_off_c, 0, 58, 102
1, 114903, Note_on_c, 0, 57, 109
1, 115040, Note_off_c, 0, 57, 109
1, 115047, Note_on_c, 0, 55, 106
1, 115169, Note_off_c, 0, 55, 106
1, 115182, Note_on_c, 0, 53, 110
1, 115304, Note_off_c, 0, 53, 110
1, 115309, Note_on_c, 0, 51, 110
1, 115448, Note_off_c, 0, 51, 110
1, 115459, Note_on_c, 0, 49, 110
1, 115549, Note_off_c, 0, 49, 110
1, 115554, Note_on_c, 0, 47, 114
1, 115739, Note_off_c, 0, 47, 114
1, 115746, Note_on_c, 0, 46, 116
1, 116114, Note_off_c, 0, 46, 116
1, 118258, Note_on_c, 0, 65, 116
1, 118372, Note_off_c, 0, 65, 116
1, 118397, Note_on_c, 0, 67, 118
1, 118548, Note_off_c, 0, 67, 118
1, 118563, Note_on_c, 0, 66, 114
1, 118736, Note_off_c, 0, 66, 114
1, 118745, Note_on_c, 0, 65, 111
1, 118898, Note_off_c, 0, 65, 111
1, 118947, Note_on_c, 0, 63, 120
1, 119167, Note_off_c, 0, 63, 120
1, 119174, Note_on_c, 0, 62, 112
1, 119388, Note_off_c, 0, 62, 112
1, 119419, Note_on_c, 0, 60, 108
1, 119582, Note_off_c, 0, 60, 108
1, 119597, Note_on_c, 0, 59, 107
1, 119738, Note_off_c, 0, 59, 107
1, 119808, Note_on_c, 0, 55, 105
1, 119965, Note_off_c, 0, 55, 105
1, 119990, Note_on_c, 0, 60, 118
1, 120193, Note_off_c, 0, 60, 118
1, 120210, Note_on_c, 0, 62, 116
1, 120432, Note_off_c, 0, 62, 116
1, 120451, Note_on_c, 0, 63, 120
1, 120602, Note_off_c, 0, 63, 120
1, 120615, Note_on_c, 0, 60, 104
1, 120780, Note_off_c, 0, 60, 104
1, 120811, Note_on_c, 0, 65, 112
1, 121004, Note_off_c, 0, 65, 112
1, 121038, Note_on_c, 0, 67, 119
1, 121273, Note_off_c, 0, 67, 119
1, 121287, Note_on_c, 0, 68, 100
1, 121387, Note_off_c, 0, 68, 100
1, 121513, Note_on_c, 0, 64, 108
1, 121619, Note_off_c, 0, 64, 108
1, 121630, Note_on_c, 0, 62, 113
1, 121872, Note_off_c, 0, 62, 113
1, 122117, Note_on_c, 0, 55, 104
1, 122203, Note_off_c, 0, 55, 104
1, 122231, Note_on_c, 0, 56, 113
1, 122334, Note_off_c, 0, 56, 113
1, 122479, Note_on_c, 0, 60, 107
1, 122627, Note_off_c, 0, 60, 107
1, 122699, Note_on_c, 0, 55, 108
1, 122861, Note_off_c, 0, 55, 108
1, 123093, Note_on_c, 0, 62, 104
1, 123168, Note_off_c, 0, 62, 104
1, 123190, Note_on_c, 0, 64, 107
1, 123288, Note_off_c, 0, 64, 107
1, 123316, Note_on_c, 0, 68, 111
1, 123439, Note_off_c, 0, 68, 111
1, 123453, Note_on_c, 0, 72, 115
1, 123663, Note_off_c, 0, 72, 115
1, 123671, Note_on_c, 0, 69, 104
1, 123878, Note_off_c, 0, 69, 104
1, 123934, Note_on_c, 0, 70, 109
1, 124096, Note_off_c, 0, 70, 109
1, 124098, Note_on_c, 0, 71, 110
1, 124162, Note_off_c, 0, 71, 110
1, 124176, Note_on_c, 0, 72, 116
1, 124293, Note_off_c, 0, 72, 116
1, 124301, Note_on_c, 0, 74, 114
1, 124508, Note_off_c, 0, 74, 114
1, 124510, Note_on_c, 0, 73, 115
1, 124608, Note_off_c, 0, 73, 115
1, 124622, Note_on_c, 0, 70, 108
1, 124801, Note_off_c, 0, 70, 108
1, 124820, Note_on_c, 0, 67, 99
1, 125010, Note_off_c, 0, 67, 99
1, 125035, Note_on_c, 0, 71, 114
1, 125208, Note_off_c, 0, 71, 114
1, 125230, Note_on_c, 0, 72, 111
1, 125401, Note_off_c, 0, 72, 111
1, 125426, Note_on_c, 0, 69, 110
1, 125616, Note_off_c, 0, 69, 110
1, 125683, Note_on_c, 0, 63, 114
1, 125828, Note_off_c, 0, 63, 114
1, 125842, Note_on_c, 0, 60, 101
1, 125954, Note_off_c, 0, 60, 101
1, 125956, Note_on_c, 0, 63, 105
1, 126104, Note_off_c, 0, 63, 105
1, 126123, Note_on_c, 0, 67, 108
1, 126235, Note_off_c, 0, 67, 108
1, 126235, Note_on_c, 0, 70, 106
1, 126347, Note_off_c, 0, 70, 106
1, 126358, Note_on_c, 0, 69, 111
1, 126537, Note_off_c, 0, 69, 111
1, 126539, Note_on_c, 0, 67, 100
1, 126780, Note_off_c, 0, 67, 100
1, 126799, Note_on_c, 0, 66, 95
1, 126995, Note_off_c, 0, 66, 95
1, 127011, Note_on_c, 0, 67, 98
1, 127221, Note_off_c, 0, 67, 98
1, 127243, Note_on_c, 0, 63, 117
1, 127428, Note_off_c, 0, 63, 117
1, 127475, Note_on_c, 0, 60, 103
1, 127626, Note_off_c, 0, 60, 103
1, 127656, Note_on_c, 0, 65, 109
1, 127810, Note_off_c, 0, 65, 109
1, 127838, Note_on_c, 0, 61, 115
1, 128014, Note_off_c, 0, 61, 115
1, 128019, Note_on_c, 0, 57, 103
1, 128156, Note_off_c, 0, 57, 103
1, 128156, Note_on_c, 0, 53, 104
1, 128329, Note_off_c, 0, 53, 104
1, 128371, Note_on_c, 0, 60, 111
1, 128497, Note_on_c, 0, 62, 115
1, 128497, Note_off_c, 0, 60, 111
1, 128937, Note_off_c, 0, 62, 115
1, 128945, Note_on_c, 0, 63, 115
1, 129045, Note_off_c, 0, 63, 115
1, 129050, Note_on_c, 0, 65, 109
1, 129184, Note_off_c, 0, 65, 109
1, 129189, Note_on_c, 0, 67, 105
1, 129306, Note_off_c, 0, 67, 105
1, 129311, Note_on_c, 0, 69, 111
1, 129383, Note_off_c, 0, 69, 111
1, 129385, Note_on_c, 0, 71, 109
1, 129449, Note_off_c, 0, 71, 109
1, 129454, Note_on_c, 0, 70, 108
1, 129566, Note_off_c, 0, 70, 108
1, 129571, Note_on_c, 0, 71, 108
1, 129649, Note_off_c, 0, 71, 108
1, 129668, Note_on_c, 0, 69, 114
1, 130012, Note_off_c, 0, 69, 114
1, 132034, Note_on_c, 0, 74, 117
1, 132645, Note_off_c, 0, 74, 117
1, 132750, Note_on_c, 0, 66, 111
1, 132843, Note_off_c, 0, 66, 111
1, 132900, Note_on_c, 0, 62, 114
1, 133028, Note_off_c, 0, 62, 114
1, 133036, Note_on_c, 0, 65, 110
1, 133229, Note_off_c, 0, 65, 110
1, 133271, Note_on_c, 0, 62, 107
1, 133407, Note_off_c, 0, 62, 107
1, 133445, Note_on_c, 0, 65, 114
1, 133592, Note_off_c, 0, 65, 114
1, 133623, Note_on_c, 0, 62, 108
1, 133743, Note_off_c, 0, 62, 108
1, 133764, Note_on_c, 0, 64, 115
1, 134041, Note_off_c, 0, 64, 115
1, 134139, Note_on_c, 0, 72, 102
1, 134251, Note_off_c, 0, 72, 102
1, 134272, Note_on_c, 0, 68, 113
1, 134376, Note_off_c, 0, 68, 113
1, 134399, Note_on_c, 0, 66, 112
1, 134507, Note_off_c, 0, 66, 112
1, 134520, Note_on_c, 0, 61, 98
1, 134675, Note_off_c, 0, 61, 98
1, 134696, Note_on_c, 0, 65, 111
1, 134867, Note_off_c, 0, 65, 111
1, 134912, Note_on_c, 0, 61, 108
1, 135034, Note_off_c, 0, 61, 108
1, 135041, Note_on_c, 0, 64, 116
1, 135249, Note_off_c, 0, 64, 116
1, 135278, Note_on_c, 0, 61, 115
1, 135433, Note_off_c, 0, 61, 115
1, 135450, Note_on_c, 0, 63, 112
1, 135672, Note_off_c, 0, 63, 112
1, 137456, Note_on_c, 0, 72, 119
1, 137678, Note_off_c, 0, 72, 119
1, 137687, Note_on_c, 0, 68, 109
1, 137852, Note_off_c, 0, 68, 109
1, 137873, Note_on_c, 0, 71, 116
1, 138044, Note_off_c, 0, 71, 116
1, 138061, Note_on_c, 0, 68, 118
1, 138276, Note_off_c, 0, 68, 118
1, 138290, Note_on_c, 0, 64, 112
1, 138514, Note_off_c, 0, 64, 112
1, 138541, Note_on_c, 0, 61, 118
1, 138744, Note_off_c, 0, 61, 118
1, 138753, Note_on_c, 0, 62, 107
1, 138859, Note_off_c, 0, 62, 107
1, 138880, Note_on_c, 0, 64, 112
1, 138980, Note_off_c, 0, 64, 112
1, 139039, Note_on_c, 0, 70, 115
1, 139196, Note_off_c, 0, 70, 115
1, 139209, Note_on_c, 0, 69, 115
1, 139394, Note_off_c, 0, 69, 115
1, 139407, Note_on_c, 0, 67, 109
1, 139592, Note_off_c, 0, 67, 109
1, 139605, Note_on_c, 0, 65, 114
1, 139766, Note_off_c, 0, 65, 114
1, 139785, Note_on_c, 0, 62, 114
1, 139958, Note_off_c, 0, 62, 114
1, 139969, Note_on_c, 0, 63, 116
1, 140215, Note_off_c, 0, 63, 116
1, 140226, Note_on_c, 0, 65, 108
1, 140373, Note_off_c, 0, 65, 108
1, 140599, Note_on_c, 0, 68, 108
1, 140697, Note_off_c, 0, 68, 108
1, 140775, Note_on_c, 0, 74, 115
1, 140974, Note_off_c, 0, 74, 115
1, 140987, Note_on_c, 0, 77, 104
1, 141535, Note_off_c, 0, 77, 104
1, 141538, Note_on_c, 0, 73, 98
1, 141587, Note_off_c, 0, 73, 98
1, 141594, Note_on_c, 0, 70, 109
1, 141651, Note_off_c, 0, 70, 109
1, 141660, Note_on_c, 0, 68, 110
1, 141750, Note_off_c, 0, 68, 110
1, 141771, Note_on_c, 0, 66, 114
1, 141938, Note_off_c, 0, 66, 114
1, 141955, Note_on_c, 0, 63, 112
1, 142319, Note_off_c, 0, 63, 112
1, 142869, Note_on_c, 0, 61, 112
1, 142995, Note_off_c, 0, 61, 112
1, 143009, Note_on_c, 0, 62, 104
1, 143196, Note_off_c, 0, 62, 104
1, 143215, Note_on_c, 0, 65, 101
1, 143304, Note_off_c, 0, 65, 101
1, 143326, Note_on_c, 0, 69, 95
1, 143418, Note_off_c, 0, 69, 95
1, 143440, Note_on_c, 0, 72, 114
1, 143706, Note_off_c, 0, 72, 114
1, 143708, Note_on_c, 0, 75, 101
1, 143999, Note_off_c, 0, 75, 101
1, 144010, Note_on_c, 0, 71, 113
1, 144124, Note_off_c, 0, 71, 113
1, 144138, Note_on_c, 0, 68, 114
1, 144272, Note_off_c, 0, 68, 114
1, 144288, Note_on_c, 0, 65, 111
1, 144405, Note_off_c, 0, 65, 111
1, 144421, Note_on_c, 0, 74, 112
1, 144606, Note_off_c, 0, 74, 112
1, 144636, Note_on_c, 0, 70, 109
1, 144753, Note_off_c, 0, 70, 109
1, 144755, Note_on_c, 0, 67, 106
1, 144836, Note_off_c, 0, 67, 106
1, 144841, Note_on_c, 0, 64, 116
1, 145126, Note_off_c, 0, 64, 116
1, 145866, Note_on_c, 0, 72, 107
1, 145952, Note_off_c, 0, 72, 107
1, 145960, Note_on_c, 0, 73, 121
1, 146102, Note_off_c, 0, 73, 121
1, 146124, Note_on_c, 0, 72, 105
1, 146283, Note_off_c, 0, 72, 105
1, 146288, Note_on_c, 0, 71, 114
1, 146445, Note_off_c, 0, 71, 114
1, 146473, Note_on_c, 0, 69, 114
1, 146711, Note_off_c, 0, 69, 114
1, 146725, Note_on_c, 0, 68, 108
1, 146924, Note_off_c, 0, 68, 108
1, 146938, Note_on_c, 0, 66, 112
1, 147109, Note_off_c, 0, 66, 112
1, 147125, Note_on_c, 0, 65, 113
1, 147322, Note_off_c, 0, 65, 113
1, 147327, Note_on_c, 0, 62, 114
1, 147535, Note_off_c, 0, 62, 114
1, 147540, Note_on_c, 0, 63, 114
1, 147610, Note_off_c, 0, 63, 114
1, 147618, Note_on_c, 0, 65, 111
1, 147727, Note_off_c, 0, 65, 111
1, 147757, Note_on_c, 0, 63, 118
1, 147944, Note_off_c, 0, 63, 118
1, 147963, Note_on_c, 0, 62, 109
1, 148128, Note_off_c, 0, 62, 109
1, 148147, Note_on_c, 0, 60, 108
1, 148413, Note_off_c, 0, 60, 108
1, 148424, Note_on_c, 0, 58, 99
1, 148581, Note_off_c, 0, 58, 99
1, 148583, Note_on_c, 0, 60, 105
1, 148829, Note_off_c, 0, 60, 105
1, 148868, Note_on_c, 0, 62, 100
1, 149002, Note_off_c, 0, 62, 100
1, 149013, Note_on_c, 0, 65, 97
1, 149113, Note_off_c, 0, 65, 97
1, 149188, Note_on_c, 0, 70, 109
1, 150965, Note_off_c, 0, 70, 109
1, 151018, Note_on_c, 0, 69, 106
1, 151166, Note_off_c, 0, 69, 106
1, 151182, Note_on_c, 0, 72, 111
1, 151361, Note_off_c, 0, 72, 111
1, 151369, Note_on_c, 0, 70, 114
1, 151520, Note_off_c, 0, 70, 114
1, 151531, Note_on_c, 0, 65, 112
1, 151634, Note_off_c, 0, 65, 112
1, 151650, Note_on_c, 0, 64, 115
1, 151818, Note_off_c, 0, 64, 115
1, 151848, Note_on_c, 0, 67, 113
1, 151960, Note_off_c, 0, 67, 113
1, 151968, Note_on_c, 0, 65, 112
1, 152023, Note_off_c, 0, 65, 112
1, 152026, Note_on_c, 0, 62, 112
1, 152160, Note_off_c, 0, 62, 112
1, 152163, Note_on_c, 0, 61, 113
1, 152239, Note_off_c, 0, 61, 113
1, 152242, Note_on_c, 0, 63, 112
1, 152405, Note_off_c, 0, 63, 112
1, 152409, Note_on_c, 0, 62, 104
1, 152598, Note_off_c, 0, 62, 104
1, 152616, Note_on_c, 0, 58, 100
1, 152708, Note_off_c, 0, 58, 100
1, 152729, Note_on_c, 0, 57, 108
1, 152827, Note_off_c, 0, 57, 108
1, 152844, Note_on_c, 0, 60, 105
1, 152950, Note_off_c, 0, 60, 105
1, 152965, Note_on_c, 0, 58, 102
1, 153057, Note_off_c, 0, 58, 102
1, 153104, Note_on_c, 0, 52, 112
1, 153266, Note_off_c, 0, 52, 112
1, 153284, Note_on_c, 0, 54, 107
1, 153376, Note_off_c, 0, 54, 107
1, 153393, Note_on_c, 0, 53, 109
1, 153467, Note_off_c, 0, 53, 109
1, 153484, Note_on_c, 0, 50, 107
1, 153590, Note_off_c, 0, 50, 107
1, 153599, Note_on_c, 0, 49, 107
1, 153699, Note_off_c, 0, 49, 107
1, 153699, Note_on_c, 0, 51, 107
1, 153803, Note_off_c, 0, 51, 107
1, 153804, Note_on_c, 0, 50, 102
1, 153940, Note_off_c, 0, 50, 102
1, 155182, Note_on_c, 0, 49, 117
1, 155288, Note_off_c, 0, 49, 117
1, 155295, Note_on_c, 0, 50, 109
1, 155383, Note_off_c, 0, 50, 109
1, 155383, Note_on_c, 0, 53, 110
1, 155495, Note_off_c, 0, 53, 110
1, 155510, Note_on_c, 0, 55, 104
1, 155630, Note_off_c, 0, 55, 104
1, 155639, Note_on_c, 0, 56, 107
1, 155727, Note_off_c, 0, 56, 107
1, 155750, Note_on_c, 0, 58, 101
1, 155866, Note_off_c, 0, 58, 101
1, 155889, Note_on_c, 0, 60, 107
1, 156052, Note_off_c, 0, 60, 107
1, 156059, Note_on_c, 0, 61, 113
1, 156198, Note_off_c, 0, 61, 113
1, 156221, Note_on_c, 0, 62, 112
1, 156376, Note_off_c, 0, 62, 112
1, 156393, Note_on_c, 0, 65, 110
1, 156456, Note_off_c, 0, 65, 110
1, 156463, Note_on_c, 0, 67, 112
1, 156577, Note_off_c, 0, 67, 112
1, 156606, Note_on_c, 0, 66, 114
1, 156820, Note_off_c, 0, 66, 114
1, 156833, Note_on_c, 0, 63, 115
1, 156974, Note_off_c, 0, 63, 115
1, 156983, Note_on_c, 0, 62, 112
1, 157148, Note_off_c, 0, 62, 112
1, 157175, Note_on_c, 0, 65, 107
1, 157336, Note_off_c, 0, 65, 107
1, 157349, Note_on_c, 0, 67, 99
1, 157433, Note_off_c, 0, 67, 99
1, 157448, Note_on_c, 0, 68, 106
1, 157550, Note_off_c, 0, 68, 106
1, 157559, Note_on_c, 0, 72, 113
1, 157695, Note_off_c, 0, 72, 113
1, 157698, Note_on_c, 0, 69, 107
1, 157905, Note_off_c, 0, 69, 107
1, 157912, Note_on_c, 0, 71, 118
1, 158067, Note_off_c, 0, 71, 118
1, 158067, Note_on_c, 0, 68, 116
1, 158268, Note_off_c, 0, 68, 116
1, 158285, Note_on_c, 0, 64, 116
1, 158470, Note_off_c, 0, 64, 116
1, 158485, Note_on_c, 0, 61, 109
1, 158668, Note_off_c, 0, 61, 109
1, 158671, Note_on_c, 0, 64, 100
1, 158838, Note_off_c, 0, 64, 100
1, 158875, Note_on_c, 0, 68, 107
1, 158947, Note_off_c, 0, 68, 107
1, 158956, Note_on_c, 0, 71, 118
1, 159113, Note_off_c, 0, 71, 118
1, 159118, Note_on_c, 0, 69, 112
1, 159226, Note_off_c, 0, 69, 112
1, 159237, Note_on_c, 0, 68, 114
1, 159359, Note_off_c, 0, 68, 114
1, 159380, Note_on_c, 0, 68, 114
1, 159519, Note_off_c, 0, 68, 114
1, 159542, Note_on_c, 0, 66, 108
1, 159717, Note_off_c, 0, 66, 108
1, 159766, Note_on_c, 0, 61, 106
1, 159984, Note_off_c, 0, 61, 106
1, 159997, Note_on_c, 0, 65, 112
1, 160217, Note_off_c, 0, 65, 112
1, 160254, Note_on_c, 0, 61, 103
1, 160405, Note_off_c, 0, 61, 103
1, 160405, Note_on_c, 0, 64, 117
1, 160651, Note_off_c, 0, 64, 117
1, 160658, Note_on_c, 0, 61, 105
1, 160799, Note_off_c, 0, 61, 105
1, 160824, Note_on_c, 0, 63, 115
1, 161031, Note_off_c, 0, 63, 115
1, 161062, Note_on_c, 0, 66, 112
1, 161237, Note_off_c, 0, 66, 112
1, 161252, Note_on_c, 0, 65, 111
1, 161368, Note_off_c, 0, 65, 111
1, 161389, Note_on_c, 0, 63, 111
1, 161596, Note_off_c, 0, 63, 111
1, 161613, Note_on_c, 0, 61, 113
1, 161796, Note_off_c, 0, 61, 113
1, 161821, Note_on_c, 0, 62, 116
1, 162061, Note_off_c, 0, 62, 116
1, 162070, Note_on_c, 0, 63, 114
1, 162178, Note_off_c, 0, 63, 114
1, 162193, Note_on_c, 0, 65, 106
1, 162263, Note_off_c, 0, 65, 106
1, 162270, Note_on_c, 0, 67, 101
1, 162354, Note_off_c, 0, 67, 101
1, 162367, Note_on_c, 0, 69, 112
1, 162481, Note_off_c, 0, 69, 112
1, 162504, Note_on_c, 0, 70, 110
1, 162902, Note_off_c, 0, 70, 110
1, 165071, Note_on_c, 0, 67, 114
1, 165268, Note_off_c, 0, 67, 114
1, 165278, Note_on_c, 0, 66, 122
1, 165496, Note_off_c, 0, 66, 122
1, 165504, Note_on_c, 0, 65, 117
1, 165711, Note_off_c, 0, 65, 117
1, 165747, Note_on_c, 0, 63, 119
1, 165920, Note_off_c, 0, 63, 119
1, 165928, Note_on_c, 0, 62, 113
1, 166104, Note_off_c, 0, 62, 113
1, 166118, Note_on_c, 0, 60, 110
1, 166308, Note_off_c, 0, 60, 110
1, 166316, Note_on_c, 0, 59, 103
1, 166509, Note_off_c, 0, 59, 103
1, 166542, Note_on_c, 0, 56, 112
1, 166711, Note_off_c, 0, 56, 112
1, 166742, Note_on_c, 0, 55, 110
1, 166943, Note_off_c, 0, 55, 110
1, 166946, Note_on_c, 0, 57, 106
1, 167076, Note_off_c, 0, 57, 106
1, 167109, Note_on_c, 0, 59, 97
1, 167201, Note_off_c, 0, 59, 97
1, 167206, Note_on_c, 0, 58, 105
1, 167309, Note_off_c, 0, 58, 105
1, 167379, Note_on_c, 0, 61, 103
1, 167463, Note_off_c, 0, 61, 103
1, 167477, Note_on_c, 0, 60, 110
1, 167684, Note_off_c, 0, 60, 110
1, 167695, Note_on_c, 0, 63, 119
1, 167936, Note_off_c, 0, 63, 119
1, 167958, Note_on_c, 0, 62, 109
1, 168109, Note_off_c, 0, 62, 109
1, 168134, Note_on_c, 0, 60, 109
1, 168333, Note_off_c, 0, 60, 109
1, 168355, Note_on_c, 0, 58, 106
1, 168520, Note_off_c, 0, 58, 106
1, 168556, Note_on_c, 0, 53, 97
1, 168738, Note_off_c, 0, 53, 97
1, 168768, Note_on_c, 0, 62, 112
1, 168975, Note_off_c, 0, 62, 112
1, 168991, Note_on_c, 0, 60, 107
1, 169250, Note_off_c, 0, 60, 107
1, 169271, Note_on_c, 0, 58, 101
1, 169428, Note_off_c, 0, 58, 101
1, 169454, Note_on_c, 0, 60, 109
1, 169658, Note_off_c, 0, 60, 109
1, 169667, Note_on_c, 0, 62, 103
1, 169836, Note_off_c, 0, 62, 103
1, 169847, Note_on_c, 0, 65, 103
1, 169988, Note_off_c, 0, 65, 103
1, 170006, Note_on_c, 0, 68, 116
1, 170213, Note_off_c, 0, 68, 116
1, 170227, Note_on_c, 0, 69, 116
1, 170386, Note_off_c, 0, 69, 116
1, 170425, Note_on_c, 0, 64, 123
1, 170663, Note_off_c, 0, 64, 123
1, 170677, Note_on_c, 0, 65, 109
1, 170890, Note_off_c, 0, 65, 109
1, 170912, Note_on_c, 0, 61, 111
1, 171113, Note_off_c, 0, 61, 111
1, 171135, Note_on_c, 0, 62, 111
1, 171381, Note_off_c, 0, 62, 111
1, 171392, Note_on_c, 0, 67, 103
1, 171582, Note_off_c, 0, 67, 103
1, 171598, Note_on_c, 0, 68, 96
1, 172130, Note_off_c, 0, 68, 96
1, 173478, Note_on_c, 0, 69, 111
1, 173646, Note_off_c, 0, 69, 111
1, 173657, Note_on_c, 0, 73, 122
1, 174147, Note_off_c, 0, 73, 122
1, 174172, Note_on_c, 0, 71, 119
1, 174491, Note_off_c, 0, 71, 119
1, 174552, Note_on_c, 0, 68, 122
1, 174801, Note_off_c, 0, 68, 122
1, 174812, Note_on_c, 0, 66, 116
1, 174921, Note_off_c, 0, 66, 116
1, 174926, Note_on_c, 0, 64, 122
1, 175125, Note_off_c, 0, 64, 122
1, 175144, Note_on_c, 0, 59, 106
1, 175298, Note_off_c, 0, 59, 106
1, 175323, Note_on_c, 0, 56, 115
1, 175496, Note_off_c, 0, 56, 115
1, 175501, Note_on_c, 0, 55, 108
1, 175761, Note_off_c, 0, 55, 108
1, 175800, Note_on_c, 0, 58, 97
1, 175900, Note_off_c, 0, 58, 97
1, 175911, Note_on_c, 0, 60, 109
1, 176020, Note_off_c, 0, 60, 109
1, 176034, Note_on_c, 0, 62, 117
1, 176137, Note_off_c, 0, 62, 117
1, 176153, Note_on_c, 0, 65, 118
1, 176267, Note_off_c, 0, 65, 118
1, 176303, Note_on_c, 0, 62, 108
1, 176513, Note_off_c, 0, 62, 108
1, 176527, Note_on_c, 0, 65, 105
1, 176655, Note_off_c, 0, 65, 105
1, 176669, Note_on_c, 0, 67, 98
1, 176769, Note_off_c, 0, 67, 98
1, 176794, Note_on_c, 0, 69, 111
1, 176959, Note_off_c, 0, 69, 111
1, 176978, Note_on_c, 0, 75, 118
1, 177367, Note_off_c, 0, 75, 118
1, 179741, Note_on_c, 0, 68, 114
1, 179948, Note_off_c, 0, 68, 114
1, 179987, Note_on_c, 0, 70, 109
1, 180230, Note_off_c, 0, 70, 109
1, 180308, Note_on_c, 0, 71, 112
1, 180448, Note_off_c, 0, 71, 112
1, 180473, Note_on_c, 0, 72, 115
1, 181415, Note_off_c, 0, 72, 115
1, 181490, Note_on_c, 0, 74, 114
1, 181742, Note_off_c, 0, 74, 114
1, 181949, Note_on_c, 0, 70, 114
1, 183070, Note_off_c, 0, 70, 114
1, 183126, Note_on_c, 0, 67, 100
1, 183325, Note_off_c, 0, 67, 100
1, 183339, Note_on_c, 0, 68, 117
1, 183571, Note_off_c, 0, 68, 117
1, 183613, Note_on_c, 0, 65, 104
1, 183758, Note_off_c, 0, 65, 104
1, 183808, Note_on_c, 0, 67, 113
1, 183981, Note_off_c, 0, 67, 113
1, 184014, Note_on_c, 0, 63, 120
1, 184193, Note_off_c, 0, 63, 120
1, 184212, Note_on_c, 0, 62, 115
1, 184422, Note_off_c, 0, 62, 115
1, 184444, Note_on_c, 0, 60, 105
1, 184615, Note_off_c, 0, 60, 105
1, 184659, Note_on_c, 0, 63, 117
1, 184939, Note_off_c, 0, 63, 117
1, 184983, Note_on_c, 0, 60, 112
1, 185193, Note_off_c, 0, 60, 112
1, 186070, Note_on_c, 0, 58, 115
1, 186187, Note_off_c, 0, 58, 115
1, 186195, Note_on_c, 0, 61, 111
1, 186265, Note_off_c, 0, 61, 111
1, 186273, Note_on_c, 0, 64, 106
1, 186393, Note_off_c, 0, 64, 106
1, 186401, Note_on_c, 0, 67, 101
1, 186569, Note_off_c, 0, 67, 101
1, 186616, Note_on_c, 0, 62, 115
1, 186798, Note_off_c, 0, 62, 115
1, 186812, Note_on_c, 0, 66, 103
1, 186957, Note_off_c, 0, 66, 103
1, 186971, Note_on_c, 0, 69, 97
1, 187105, Note_off_c, 0, 69, 97
1, 187124, Note_on_c, 0, 71, 104
1, 187182, Note_off_c, 0, 71, 104
1, 187190, Note_on_c, 0, 73, 119
1, 187328, Note_off_c, 0, 73, 119
1, 187335, Note_on_c, 0, 74, 127
1, 187490, Note_off_c, 0, 74, 127
1, 187501, Note_on_c, 0, 73, 117
1, 187624, Note_off_c, 0, 73, 117
1, 187632, Note_on_c, 0, 71, 114
1, 187797, Note_off_c, 0, 71, 114
1, 187839, Note_on_c, 0, 69, 116
1, 187996, Note_off_c, 0, 69, 116
1, 188012, Note_on_c, 0, 68, 116
1, 188247, Note_off_c, 0, 68, 116
1, 188310, Note_on_c, 0, 64, 117
1, 188501, Note_off_c, 0, 64, 117
1, 188521, Note_on_c, 0, 59, 105
1, 188731, Note_off_c, 0, 59, 105
1, 188745, Note_on_c, 0, 56, 112
1, 188906, Note_off_c, 0, 56, 112
1, 188921, Note_on_c, 0, 55, 108
1, 189047, Note_off_c, 0, 55, 108
1, 189052, Note_on_c, 0, 58, 104
1, 189201, Note_off_c, 0, 58, 104
1, 189218, Note_on_c, 0, 60, 106
1, 189336, Note_off_c, 0, 60, 106
1, 189355, Note_on_c, 0, 62, 105
1, 189562, Note_off_c, 0, 62, 105
1, 189591, Note_on_c, 0, 65, 113
1, 189786, Note_off_c, 0, 65, 113
1, 189817, Note_on_c, 0, 62, 109
1, 189919, Note_off_c, 0, 62, 109
1, 189946, Note_on_c, 0, 63, 105
1, 190076, Note_off_c, 0, 63, 105
1, 190123, Note_on_c, 0, 67, 105
1, 190264, Note_off_c, 0, 67, 105
1, 190303, Note_on_c, 0, 70, 100
1, 190452, Note_off_c, 0, 70, 100
1, 190467, Note_on_c, 0, 75, 123
1, 191027, Note_off_c, 0, 75, 123
1, 191074, Note_on_c, 0, 70, 111
1, 191202, Note_off_c, 0, 70, 111
1, 191213, Note_on_c, 0, 72, 117
1, 191378, Note_off_c, 0, 72, 117
1, 191380, Note_on_c, 0, 70, 110
1, 191651, Note_off_c, 0, 70, 110
1, 191695, Note_on_c, 0, 67, 109
1, 191877, Note_off_c, 0, 67, 109
1, 191913, Note_on_c, 0, 64, 117
1, 192142, Note_off_c, 0, 64, 117
1, 192167, Note_on_c, 0, 60, 90
1, 192293, Note_off_c, 0, 60, 90
1, 193366, Note_on_c, 0, 60, 105
1, 193452, Note_off_c, 0, 60, 105
1, 193474, Note_on_c, 0, 62, 116
1, 193560, Note_off_c, 0, 62, 116
1, 193568, Note_on_c, 0, 64, 117
1, 193680, Note_off_c, 0, 64, 117
1, 193688, Note_on_c, 0, 67, 114
1, 193842, Note_off_c, 0, 67, 114
1, 193853, Note_on_c, 0, 65, 112
1, 194096, Note_off_c, 0, 65, 112
1, 194146, Note_on_c, 0, 68, 118
1, 194311, Note_off_c, 0, 68, 118
1, 194339, Note_on_c, 0, 67, 112
1, 194467, Note_off_c, 0, 67, 112
1, 194497, Note_on_c, 0, 65, 102
1, 194690, Note_off_c, 0, 65, 102
1, 194690, Note_on_c, 0, 70, 119
1, 194891, Note_off_c, 0, 70, 119
1, 194914, Note_on_c, 0, 66, 115
1, 195118, Note_off_c, 0, 66, 115
1, 195130, Note_on_c, 0, 62, 112
1, 195411, Note_off_c, 0, 62, 112
1, 195487, Note_on_c, 0, 67, 114
1, 195736, Note_off_c, 0, 67, 114
1, 195747, Note_on_c, 0, 63, 112
1, 195877, Note_off_c, 0, 63, 112
1, 195892, Note_on_c, 0, 65, 114
1, 195978, Note_off_c, 0, 65, 114
1, 195983, Note_on_c, 0, 66, 113
1, 196053, Note_off_c, 0, 66, 113
1, 196066, Note_on_c, 0, 68, 119
1, 196269, Note_off_c, 0, 68, 119
1, 196326, Note_on_c, 0, 66, 107
1, 196462, Note_off_c, 0, 66, 107
1, 196462, Note_on_c, 0, 69, 114
1, 196596, Note_off_c, 0, 69, 114
1, 196607, Note_on_c, 0, 72, 111
1, 196746, Note_off_c, 0, 72, 111
1, 196761, Note_on_c, 0, 70, 115
1, 197044, Note_off_c, 0, 70, 115
1, 197998, Note_on_c, 0, 67, 108
1, 198122, Note_off_c, 0, 67, 108
1, 198129, Note_on_c, 0, 68, 108
1, 198219, Note_off_c, 0, 68, 108
1, 198232, Note_on_c, 0, 67, 113
1, 198354, Note_on_c, 0, 64, 117
1, 198354, Note_off_c, 0, 67, 113
1, 198549, Note_off_c, 0, 64, 117
1, 198596, Note_on_c, 0, 58, 105
1, 198724, Note_off_c, 0, 58, 105
1, 198727, Note_on_c, 0, 61, 111
1, 198861, Note_off_c, 0, 61, 111
1, 198864, Note_on_c, 0, 65, 109
1, 198986, Note_off_c, 0, 65, 109
1, 198986, Note_on_c, 0, 68, 107
1, 199090, Note_off_c, 0, 68, 107
1, 199095, Note_on_c, 0, 67, 112
1, 199160, Note_off_c, 0, 67, 112
1, 199167, Note_on_c, 0, 66, 110
1, 199269, Note_off_c, 0, 66, 110
1, 199278, Note_on_c, 0, 65, 112
1, 199368, Note_off_c, 0, 65, 112
1, 199377, Note_on_c, 0, 64, 115
1, 199576, Note_off_c, 0, 64, 115
1, 199595, Note_on_c, 0, 63, 115
1, 199675, Note_off_c, 0, 63, 115
1, 199690, Note_on_c, 0, 62, 110
1, 199826, Note_off_c, 0, 62, 110
1, 199837, Note_on_c, 0, 60, 106
1, 199994, Note_off_c, 0, 60, 106
1, 199995, Note_on_c, 0, 59, 104
1, 200117, Note_off_c, 0, 59, 104
1, 200118, Note_on_c, 0, 57, 107
1, 200236, Note_off_c, 0, 57, 107
1, 200237, Note_on_c, 0, 55, 105
1, 200392, Note_off_c, 0, 55, 105
1, 200400, Note_on_c, 0, 54, 105
1, 200641, Note_off_c, 0, 54, 105
1, 200649, Note_on_c, 0, 51, 111
1, 200780, Note_off_c, 0, 51, 111
1, 200784, Note_on_c, 0, 49, 105
1, 200877, Note_off_c, 0, 49, 105
1, 200882, Note_on_c, 0, 48, 109
1, 201073, Note_off_c, 0, 48, 109
1, 201082, Note_on_c, 0, 47, 109
1, 201267, Note_off_c, 0, 47, 109
1, 202564, Note_on_c, 0, 45, 122
1, 202751, Note_off_c, 0, 45, 122
1, 202753, Note_on_c, 0, 47, 109
1, 202817, Note_off_c, 0, 47, 109
1, 202819, Note_on_c, 0, 49, 105
1, 202892, Note_off_c, 0, 49, 105
1, 202897, Note_on_c, 0, 51, 111
1, 203056, Note_off_c, 0, 51, 111
1, 203057, Note_on_c, 0, 55, 105
1, 203187, Note_off_c, 0, 55, 105
1, 203195, Note_on_c, 0, 56, 110
1, 203289, Note_off_c, 0, 56, 110
1, 203293, Note_on_c, 0, 57, 104
1, 203375, Note_off_c, 0, 57, 104
1, 203386, Note_on_c, 0, 58, 101
1, 203500, Note_off_c, 0, 58, 101
1, 203501, Note_on_c, 0, 60, 108
1, 203586, Note_off_c, 0, 60, 108
1, 203591, Note_on_c, 0, 62, 115
1, 203693, Note_off_c, 0, 62, 115
1, 203715, Note_on_c, 0, 63, 116
1, 203793, Note_off_c, 0, 63, 116
1, 203804, Note_on_c, 0, 65, 112
1, 203957, Note_off_c, 0, 65, 112
1, 203964, Note_on_c, 0, 67, 108
1, 204067, Note_off_c, 0, 67, 108
1, 204076, Note_on_c, 0, 69, 112
1, 204185, Note_off_c, 0, 69, 112
1, 204198, Note_on_c, 0, 70, 112
1, 204955, Note_off_c, 0, 70, 112
1, 204980, Note_on_c, 0, 69, 117
1, 205121, Note_off_c, 0, 69, 117
1, 205124, Note_on_c, 0, 71, 107
1, 205226, Note_off_c, 0, 71, 107
1, 205238, Note_on_c, 0, 70, 113
1, 205395, Note_off_c, 0, 70, 113
1, 205395, Note_on_c, 0, 65, 112
1, 205476, Note_off_c, 0, 65, 112
1, 205492, Note_on_c, 0, 64, 116
1, 205637, Note_off_c, 0, 64, 116
1, 205653, Note_on_c, 0, 67, 106
1, 205742, Note_off_c, 0, 67, 106
1, 205750, Note_on_c, 0, 65, 112
1, 205834, Note_off_c, 0, 65, 112
1, 205859, Note_on_c, 0, 62, 112
1, 205993, Note_off_c, 0, 62, 112
1, 206001, Note_on_c, 0, 61, 112
1, 206129, Note_off_c, 0, 61, 112
1, 206143, Note_on_c, 0, 63, 112
1, 206266, Note_off_c, 0, 63, 112
1, 206285, Note_on_c, 0, 62, 110
1, 206484, Note_off_c, 0, 62, 110
1, 206514, Note_on_c, 0, 58, 99
1, 206609, Note_off_c, 0, 58, 99
1, 206617, Note_on_c, 0, 57, 103
1, 206762, Note_off_c, 0, 57, 103
1, 206809, Note_on_c, 0, 60, 99
1, 206915, Note_off_c, 0, 60, 99
1, 206923, Note_on_c, 0, 58, 99
1, 207155, Note_off_c, 0, 58, 99
1, 208402, Note_on_c, 0, 58, 101
1, 208553, Note_off_c, 0, 58, 101
1, 208578, Note_on_c, 0, 55, 102
1, 208642, Note_off_c, 0, 55, 102
1, 208644, Note_on_c, 0, 57, 103
1, 208798, Note_off_c, 0, 57, 103
1, 208834, Note_on_c, 0, 58, 99
1, 208971, Note_off_c, 0, 58, 99
1, 208979, Note_on_c, 0, 60, 106
1, 209136, Note_off_c, 0, 60, 106
1, 209144, Note_on_c, 0, 61, 103
1, 209297, Note_off_c, 0, 61, 103
1, 209310, Note_on_c, 0, 62, 110
1, 209463, Note_off_c, 0, 62, 110
1, 209476, Note_on_c, 0, 65, 116
1, 209657, Note_off_c, 0, 65, 116
1, 209666, Note_on_c, 0, 62, 116
1, 209896, Note_off_c, 0, 62, 116
1, 209909, Note_on_c, 0, 63, 118
1, 210050, Note_off_c, 0, 63, 118
1, 210059, Note_on_c, 0, 65, 114
1, 210182, Note_off_c, 0, 65, 114
1, 210193, Note_on_c, 0, 63, 118
1, 210307, Note_off_c, 0, 63, 118
1, 210324, Note_on_c, 0, 62, 111
1, 210452, Note_off_c, 0, 62, 111
1, 210457, Note_on_c, 0, 60, 107
1, 210721, Note_off_c, 0, 60, 107
1, 210738, Note_on_c, 0, 58, 101
1, 210881, Note_off_c, 0, 58, 101
1, 210928, Note_on_c, 0, 60, 107
1, 211121, Note_off_c, 0, 60, 107
1, 211142, Note_on_c, 0, 62, 106
1, 211295, Note_off_c, 0, 62, 106
1, 211318, Note_on_c, 0, 65, 102
1, 211463, Note_off_c, 0, 65, 102
1, 211469, Note_on_c, 0, 70, 110
1, 211782, Note_off_c, 0, 70, 110
1, 213482, Note_on_c, 0, 73, 114
1, 213645, Note_off_c, 0, 73, 114
1, 213654, Note_on_c, 0, 71, 117
1, 213855, Note_off_c, 0, 71, 117
1, 213866, Note_on_c, 0, 69, 115
1, 214094, Note_off_c, 0, 69, 115
1, 214107, Note_on_c, 0, 68, 112
1, 214333, Note_off_c, 0, 68, 112
1, 214342, Note_on_c, 0, 66, 111
1, 214570, Note_off_c, 0, 66, 111
1, 214591, Note_on_c, 0, 65, 112
1, 214884, Note_off_c, 0, 65, 112
1, 214893, Note_on_c, 0, 64, 115
1, 215111, Note_off_c, 0, 64, 115
1, 215120, Note_on_c, 0, 63, 114
1, 215762, Note_off_c, 0, 63, 114
1, 215781, Note_on_c, 0, 61, 114
1, 216041, Note_off_c, 0, 61, 114
1, 216054, Note_on_c, 0, 59, 103
1, 216278, Note_off_c, 0, 59, 103
1, 216301, Note_on_c, 0, 57, 105
1, 216509, Note_off_c, 0, 57, 105
1, 216526, Note_on_c, 0, 56, 112
1, 216681, Note_off_c, 0, 56, 112
1, 216700, Note_on_c, 0, 54, 106
1, 216926, Note_off_c, 0, 54, 106
1, 216935, Note_on_c, 0, 53, 108
1, 217067, Note_off_c, 0, 53, 108
1, 217090, Note_on_c, 0, 51, 104
1, 217267, Note_off_c, 0, 51, 104
1, 217286, Note_on_c, 0, 50, 94
1, 217591, Note_off_c, 0, 50, 94
1, 217624, Note_on_c, 0, 53, 102
1, 217783, Note_off_c, 0, 53, 102
1, 217798, Note_on_c, 0, 57, 100
1, 218058, Note_off_c, 0, 57, 100
1, 218215, Note_on_c, 0, 63, 118
1, 218405, Note_off_c, 0, 63, 118
1, 218433, Note_on_c, 0, 62, 114
1, 218744, Note_off_c, 0, 62, 114
1, 218752, Note_on_c, 0, 59, 99
1, 218914, Note_off_c, 0, 59, 99
1, 218984, Note_on_c, 0, 55, 103
1, 219166, Note_off_c, 0, 55, 103
1, 219174, Note_on_c, 0, 60, 101
1, 219316, Note_off_c, 0, 60, 101
1, 219344, Note_on_c, 0, 62, 114
1, 219503, Note_off_c, 0, 62, 114
1, 219528, Note_on_c, 0, 63, 113
1, 219673, Note_off_c, 0, 63, 113
1, 219701, Note_on_c, 0, 65, 105
1, 219880, Note_off_c, 0, 65, 105
1, 219898, Note_on_c, 0, 67, 110
1, 220116, Note_off_c, 0, 67, 110
1, 220125, Note_on_c, 0, 70, 116
1, 220326, Note_off_c, 0, 70, 116
1, 220345, Note_on_c, 0, 69, 113
1, 220513, Note_off_c, 0, 69, 113
1, 220521, Note_on_c, 0, 67, 107
1, 220717, Note_off_c, 0, 67, 107
1, 220731, Note_on_c, 0, 66, 107
1, 220910, Note_off_c, 0, 66, 107
1, 220921, Note_on_c, 0, 69, 109
1, 221097, Note_off_c, 0, 69, 109
1, 221097, Note_on_c, 0, 73, 110
1, 221231, Note_off_c, 0, 73, 110
1, 221233, Note_on_c, 0, 74, 118
1, 221373, Note_off_c, 0, 74, 118
1, 221381, Note_on_c, 0, 73, 114
1, 221493, Note_off_c, 0, 73, 114
1, 221503, Note_on_c, 0, 71, 115
1, 221710, Note_off_c, 0, 71, 115
1, 221719, Note_on_c, 0, 69, 114
1, 221914, Note_off_c, 0, 69, 114
1, 221931, Note_on_c, 0, 68, 116
1, 222088, Note_off_c, 0, 68, 116
1, 222149, Note_on_c, 0, 66, 113
1, 222304, Note_off_c, 0, 66, 113
1, 222323, Note_on_c, 0, 65, 115
1, 222441, Note_off_c, 0, 65, 115
1, 222452, Note_on_c, 0, 63, 115
1, 222668, Note_off_c, 0, 63, 115
1, 222677, Note_on_c, 0, 62, 112
1, 222887, Note_off_c, 0, 62, 112
1, 222900, Note_on_c, 0, 60, 106
1, 223120, Note_off_c, 0, 60, 106
1, 223133, Note_on_c, 0, 58, 104
1, 223312, Note_off_c, 0, 58, 104
1, 223373, Note_on_c, 0, 53, 98
1, 223660, Note_off_c, 0, 53, 98
1, 223660, Note_on_c, 0, 55, 100
1, 223857, Note_off_c, 0, 55, 100
1, 223872, Note_on_c, 0, 57, 99
1, 223930, Note_off_c, 0, 57, 99
1, 223952, Note_on_c, 0, 58, 102
1, 224179, Note_off_c, 0, 58, 102
1, 225735, Note_on_c, 0, 45, 124
1, 225950, Note_off_c, 0, 45, 124
1, 225981, Note_on_c, 0, 49, 114
1, 226111, Note_off_c, 0, 49, 114
1, 226120, Note_on_c, 0, 53, 117
1, 226327, Note_off_c, 0, 53, 117
1, 226343, Note_on_c, 0, 50, 110
1, 226528, Note_off_c, 0, 50, 110
1, 226544, Note_on_c, 0, 54, 106
1, 226799, Note_off_c, 0, 54, 106
1, 226843, Note_on_c, 0, 57, 104
1, 227075, Note_off_c, 0, 57, 104
1, 228703, Note_on_c, 0, 57, 109
1, 228898, Note_off_c, 0, 57, 109
1, 228925, Note_on_c, 0, 54, 99
1, 229177, Note_off_c, 0, 54, 99
1, 229218, Note_on_c, 0, 55, 103
1, 229389, Note_off_c, 0, 55, 103
1, 229408, Note_on_c, 0, 57, 102
1, 229530, Note_off_c, 0, 57, 102
1, 229579, Note_on_c, 0, 58, 102
1, 229758, Note_off_c, 0, 58, 102
1, 229771, Note_on_c, 0, 60, 109
1, 229978, Note_off_c, 0, 60, 109
1, 229991, Note_on_c, 0, 61, 107
1, 230132, Note_off_c, 0, 61, 107
1, 230143, Note_on_c, 0, 62, 111
1, 230338, Note_off_c, 0, 62, 111
1, 230353, Note_on_c, 0, 65, 116
1, 230634, Note_off_c, 0, 65, 116
1, 230639, Note_on_c, 0, 63, 119
1, 230844, Note_off_c, 0, 63, 119
1, 230863, Note_on_c, 0, 62, 109
1, 231030, Note_off_c, 0, 62, 109
1, 231037, Note_on_c, 0, 60, 111
1, 231234, Note_off_c, 0, 60, 111
1, 231245, Note_on_c, 0, 59, 102
1, 231404, Note_off_c, 0, 59, 102
1, 231413, Note_on_c, 0, 57, 105
1, 231635, Note_off_c, 0, 57, 105
1, 231656, Note_on_c, 0, 55, 105
1, 231904, Note_off_c, 0, 55, 105
1, 231917, Note_on_c, 0, 57, 101
1, 232049, Note_off_c, 0, 57, 101
1, 232052, Note_on_c, 0, 59, 80
1, 232286, Note_off_c, 0, 59, 80
1, 232305, Note_on_c, 0, 55, 105
1, 232470, Note_off_c, 0, 55, 105
1, 232501, Note_on_c, 0, 60, 113
1, 232708, Note_off_c, 0, 60, 113
1, 232721, Note_on_c, 0, 62, 122
1, 232945, Note_off_c, 0, 62, 122
1, 232964, Note_on_c, 0, 63, 118
1, 233139, Note_off_c, 0, 63, 118
1, 233148, Note_on_c, 0, 65, 108
1, 233284, Note_off_c, 0, 65, 108
1, 233299, Note_on_c, 0, 67, 118
1, 233519, Note_off_c, 0, 67, 118
1, 233520, Note_on_c, 0, 70, 121
1, 233717, Note_off_c, 0, 70, 121
1, 233718, Note_on_c, 0, 69, 116
1, 233869, Note_off_c, 0, 69, 116
1, 233874, Note_on_c, 0, 69, 118
1, 233974, Note_off_c, 0, 69, 118
1, 233992, Note_on_c, 0, 68, 111
1, 234064, Note_off_c, 0, 68, 111
1, 234076, Note_on_c, 0, 66, 112
1, 234371, Note_off_c, 0, 66, 112
1, 234393, Note_on_c, 0, 62, 111
1, 234535, Note_off_c, 0, 62, 111
1, 234543, Note_on_c, 0, 63, 111
1, 234714, Note_off_c, 0, 63, 111
1, 234723, Note_on_c, 0, 66, 96
1, 234818, Note_off_c, 0, 66, 96
1, 234839, Note_on_c, 0, 68, 105
1, 234990, Note_off_c, 0, 68, 105
1, 234999, Note_on_c, 0, 73, 121
1, 235987, Note_off_c, 0, 73, 121
1, 235996, Note_on_c, 0, 69, 109
1, 236110, Note_off_c, 0, 69, 109
1, 236124, Note_on_c, 0, 66, 112
1, 236252, Note_off_c, 0, 66, 112
1, 236267, Note_on_c, 0, 63, 114
1, 236583, Note_off_c, 0, 63, 114
1, 236599, Note_on_c, 0, 61, 112
1, 236751, Note_off_c, 0, 61, 112
1, 236759, Note_on_c, 0, 62, 123
1, 237179, Note_off_c, 0, 62, 123
1, 237187, Note_on_c, 0, 63, 119
1, 237320, Note_off_c, 0, 63, 119
1, 237357, Note_on_c, 0, 69, 116
1, 237491, Note_off_c, 0, 69, 116
1, 237492, Note_on_c, 0, 72, 117
1, 237703, Note_off_c, 0, 72, 117
1, 237704, Note_on_c, 0, 69, 117
1, 238047, Note_off_c, 0, 69, 117
1, 238988, Note_on_c, 0, 61, 105
1, 239090, Note_off_c, 0, 61, 105
1, 239103, Note_on_c, 0, 62, 123
1, 239351, Note_off_c, 0, 62, 123
1, 239362, Note_on_c, 0, 65, 123
1, 240044, Note_off_c, 0, 65, 123
1, 240055, Note_on_c, 0, 63, 122
1, 240394, Note_off_c, 0, 63, 122
1, 240407, Note_on_c, 0, 66, 99
1, 240681, Note_off_c, 0, 66, 99
1, 240710, Note_on_c, 0, 67, 94
1, 240788, Note_off_c, 0, 67, 94
1, 240801, Note_on_c, 0, 68, 104
1, 240944, Note_off_c, 0, 68, 104
1, 240945, Note_on_c, 0, 73, 121
1, 241497, Note_off_c, 0, 73, 121
1, 241514, Note_on_c, 0, 69, 113
1, 241652, Note_off_c, 0, 69, 113
1, 241667, Note_on_c, 0, 66, 114
1, 241832, Note_off_c, 0, 66, 114
1, 241833, Note_on_c, 0, 63, 105
1, 242158, Note_off_c, 0, 63, 105
1, 242465, Note_on_c, 0, 72, 104
1, 242516, Note_off_c, 0, 72, 104
1, 242519, Note_on_c, 0, 73, 118
1, 242619, Note_off_c, 0, 73, 118
1, 242634, Note_on_c, 0, 72, 120
1, 242882, Note_off_c, 0, 72, 120
1, 242891, Note_on_c, 0, 69, 109
1, 243048, Note_off_c, 0, 69, 109
1, 243059, Note_on_c, 0, 65, 112
1, 243342, Note_off_c, 0, 65, 112
1, 243347, Note_on_c, 0, 62, 112
1, 243647, Note_off_c, 0, 62, 112
1, 243876, Note_on_c, 0, 65, 86
1, 243985, Note_off_c, 0, 65, 86
1, 244015, Note_on_c, 0, 67, 80
1, 244093, Note_off_c, 0, 67, 80
1, 244116, Note_on_c, 0, 69, 96
1, 244212, Note_off_c, 0, 69, 96
1, 244218, Note_on_c, 0, 72, 113
1, 244477, Note_off_c, 0, 72, 113
1, 244483, Note_on_c, 0, 69, 101
1, 244687, Note_off_c, 0, 69, 101
1, 244691, Note_on_c, 0, 71, 118
1, 244926, Note_off_c, 0, 71, 118
1, 244943, Note_on_c, 0, 75, 109
1, 245199, Note_off_c, 0, 75, 109
1, 245360, Note_on_c, 0, 71, 117
1, 245506, Note_off_c, 0, 71, 117
1, 245510, Note_on_c, 0, 68, 117
1, 245684, Note_off_c, 0, 68, 117
1, 245694, Note_on_c, 0, 64, 122
1, 245896, Note_off_c, 0, 64, 122
1, 245904, Note_on_c, 0, 61, 110
1, 246106, Note_off_c, 0, 61, 110
1, 246736, Note_on_c, 0, 61, 117
1, 246875, Note_off_c, 0, 61, 117
1, 246886, Note_on_c, 0, 62, 120
1, 247037, Note_off_c, 0, 62, 120
1, 247066, Note_on_c, 0, 65, 120
1, 247515, Note_off_c, 0, 65, 120
1, 247552, Note_on_c, 0, 62, 111
1, 247717, Note_off_c, 0, 62, 111
1, 247724, Note_on_c, 0, 63, 124
1, 247907, Note_off_c, 0, 63, 124
1, 247920, Note_on_c, 0, 65, 107
1, 248249, Note_off_c, 0, 65, 107
1, 248290, Note_on_c, 0, 70, 100
1, 248404, Note_off_c, 0, 70, 100
1, 248413, Note_on_c, 0, 74, 115
1, 248568, Note_off_c, 0, 74, 115
1, 248571, Note_on_c, 0, 72, 109
1, 248655, Note_off_c, 0, 72, 109
1, 248666, Note_on_c, 0, 67, 102
1, 248754, Note_off_c, 0, 67, 102
1, 248777, Note_on_c, 0, 63, 105
1, 248948, Note_off_c, 0, 63, 105
1, 248961, Note_on_c, 0, 65, 101
1, 249047, Note_off_c, 0, 65, 101
1, 249064, Note_on_c, 0, 69, 110
1, 249200, Note_off_c, 0, 69, 110
1, 249200, Note_on_c, 0, 72, 112
1, 249322, Note_off_c, 0, 72, 112
1, 249345, Note_on_c, 0, 70, 111
1, 249508, Note_off_c, 0, 70, 111
1, 249543, Note_on_c, 0, 69, 113
1, 249862, Note_off_c, 0, 69, 113
1, 249950, Note_on_c, 0, 67, 100
1, 250174, Note_off_c, 0, 67, 100
1, 251804, Note_on_c, 0, 70, 116
1, 252046, Note_off_c, 0, 70, 116
1, 252061, Note_on_c, 0, 71, 120
1, 252183, Note_off_c, 0, 71, 120
1, 252194, Note_on_c, 0, 68, 122
1, 252444, Note_off_c, 0, 68, 122
1, 252470, Note_on_c, 0, 64, 124
1, 252663, Note_off_c, 0, 64, 124
1, 252679, Note_on_c, 0, 61, 112
1, 252820, Note_off_c, 0, 61, 112
1, 252847, Note_on_c, 0, 60, 102
1, 252979, Note_off_c, 0, 60, 102
1, 252994, Note_on_c, 0, 62, 107
1, 253114, Note_off_c, 0, 62, 107
1, 253114, Note_on_c, 0, 64, 109
1, 253250, Note_off_c, 0, 64, 109
1, 253281, Note_on_c, 0, 67, 110
1, 253377, Note_off_c, 0, 67, 110
1, 253377, Note_on_c, 0, 70, 119
1, 253532, Note_off_c, 0, 70, 119
1, 253545, Note_on_c, 0, 69, 118
1, 253734, Note_off_c, 0, 69, 118
1, 253755, Note_on_c, 0, 67, 113
1, 253930, Note_off_c, 0, 67, 113
1, 253935, Note_on_c, 0, 65, 116
1, 254145, Note_off_c, 0, 65, 116
1, 254154, Note_on_c, 0, 64, 122
1, 254340, Note_off_c, 0, 64, 122
1, 254351, Note_on_c, 0, 63, 118
1, 254604, Note_off_c, 0, 63, 118
1, 254609, Note_on_c, 0, 65, 109
1, 254786, Note_off_c, 0, 65, 109
1, 254789, Note_on_c, 0, 67, 113
1, 255001, Note_off_c, 0, 67, 113
1, 255004, Note_on_c, 0, 66, 115
1, 255130, Note_off_c, 0, 66, 115
1, 255154, Note_on_c, 0, 65, 114
1, 255414, Note_off_c, 0, 65, 114
1, 255435, Note_on_c, 0, 63, 122
1, 255626, Note_off_c, 0, 63, 122
1, 255651, Note_on_c, 0, 62, 116
1, 255826, Note_off_c, 0, 62, 116
1, 255853, Note_on_c, 0, 60, 112
1, 256058, Note_off_c, 0, 60, 112
1, 256067, Note_on_c, 0, 58, 107
1, 256214, Note_off_c, 0, 58, 107
1, 256261, Note_on_c, 0, 53, 108
1, 256483, Note_off_c, 0, 53, 108
1, 256500, Note_on_c, 0, 55, 105
1, 256616, Note_off_c, 0, 55, 105
1, 256637, Note_on_c, 0, 56, 110
1, 256753, Note_off_c, 0, 56, 110
1, 256778, Note_on_c, 0, 58, 105
1, 256945, Note_off_c, 0, 58, 105
1, 256950, Note_on_c, 0, 60, 110
1, 257072, Note_off_c, 0, 60, 110
1, 257095, Note_on_c, 0, 62, 118
1, 257211, Note_off_c, 0, 62, 118
1, 257226, Note_on_c, 0, 63, 118
1, 257340, Note_off_c, 0, 63, 118
1, 257351, Note_on_c, 0, 65, 115
1, 257485, Note_off_c, 0, 65, 115
1, 257488, Note_on_c, 0, 67, 112
1, 257588, Note_off_c, 0, 67, 112
1, 257597, Note_on_c, 0, 69, 118
1, 257705, Note_off_c, 0, 69, 118
1, 257718, Note_on_c, 0, 70, 112
1, 259397, Note_off_c, 0, 70, 112
1, 259402, Note_on_c, 0, 73, 119
1, 259636, Note_off_c, 0, 73, 119
1, 259655, Note_on_c, 0, 70, 113
1, 259783, Note_off_c, 0, 70, 113
1, 259804, Note_on_c, 0, 68, 117
1, 259945, Note_off_c, 0, 68, 117
1, 259954, Note_on_c, 0, 66, 113
1, 260072, Note_off_c, 0, 66, 113
1, 260081, Note_on_c, 0, 63, 119
1, 260260, Note_off_c, 0, 63, 119
1, 260265, Note_on_c, 0, 61, 113
1, 260404, Note_off_c, 0, 61, 113
1, 260425, Note_on_c, 0, 63, 117
1, 260590, Note_off_c, 0, 63, 117
1, 260595, Note_on_c, 0, 65, 111
1, 260945, Note_off_c, 0, 65, 111
1, 262403, Note_on_c, 0, 65, 120
1, 262615, Note_off_c, 0, 65, 120
1, 262634, Note_on_c, 0, 63, 115
1, 262823, Note_off_c, 0, 63, 115
1, 262830, Note_on_c, 0, 62, 118
1, 262975, Note_off_c, 0, 62, 118
1, 262998, Note_on_c, 0, 63, 116
1, 263199, Note_off_c, 0, 63, 116
1, 263206, Note_on_c, 0, 65, 112
1, 263480, Note_off_c, 0, 65, 112
1, 263485, Note_on_c, 0, 67, 105
1, 263711, Note_off_c, 0, 67, 105
1, 263726, Note_on_c, 0, 69, 118
1, 263901, Note_off_c, 0, 69, 118
1, 263908, Note_on_c, 0, 70, 110
1, 264113, Note_off_c, 0, 70, 110
1, 264148, Note_on_c, 0, 72, 120
1, 264311, Note_off_c, 0, 72, 120
1, 264328, Note_on_c, 0, 73, 122
1, 265242, Note_off_c, 0, 73, 122
1, 265257, Note_on_c, 0, 70, 111
1, 265331, Note_off_c, 0, 70, 111
1, 265340, Note_on_c, 0, 71, 110
1, 265414, Note_off_c, 0, 71, 110
1, 265421, Note_on_c, 0, 68, 110
1, 265558, Note_off_c, 0, 68, 110
1, 265569, Note_on_c, 0, 66, 109
1, 265723, Note_off_c, 0, 66, 109
1, 265730, Note_on_c, 0, 63, 116
1, 265875, Note_off_c, 0, 63, 116
1, 265894, Note_on_c, 0, 59, 100
1, 265964, Note_off_c, 0, 59, 100
1, 265980, Note_on_c, 0, 56, 105
1, 266104, Note_off_c, 0, 56, 105
1, 266120, Note_on_c, 0, 68, 108
1, 266300, Note_off_c, 0, 68, 108
1, 266360, Note_on_c, 0, 72, 116
1, 266810, Note_off_c, 0, 72, 116
1, 266818, Note_on_c, 0, 69, 114
1, 266951, Note_off_c, 0, 69, 114
1, 266956, Note_on_c, 0, 67, 107
1, 267052, Note_off_c, 0, 67, 107
1, 267067, Note_on_c, 0, 65, 114
1, 267184, Note_off_c, 0, 65, 114
1, 267202, Note_on_c, 0, 62, 109
1, 267461, Note_off_c, 0, 62, 109
1, 267912, Note_on_c, 0, 70, 113
1, 267997, Note_off_c, 0, 70, 113
1, 268013, Note_on_c, 0, 71, 118
1, 268547, Note_off_c, 0, 71, 118
1, 268563, Note_on_c, 0, 68, 116
1, 268745, Note_off_c, 0, 68, 116
1, 268784, Note_on_c, 0, 66, 111
1, 268904, Note_off_c, 0, 66, 111
1, 268916, Note_on_c, 0, 63, 118
1, 269141, Note_off_c, 0, 63, 118
1, 269153, Note_on_c, 0, 61, 114
1, 269361, Note_off_c, 0, 61, 114
1, 269370, Note_on_c, 0, 59, 99
1, 269532, Note_off_c, 0, 59, 99
1, 269546, Note_on_c, 0, 53, 103
1, 269952, Note_off_c, 0, 53, 103
1, 269974, Note_on_c, 0, 63, 121
1, 270198, Note_off_c, 0, 63, 121
1, 270209, Note_on_c, 0, 62, 112
1, 270389, Note_off_c, 0, 62, 112
1, 270396, Note_on_c, 0, 60, 110
1, 270609, Note_off_c, 0, 60, 110
1, 270624, Note_on_c, 0, 58, 106
1, 270783, Note_off_c, 0, 58, 106
1, 270790, Note_on_c, 0, 60, 111
1, 271017, Note_off_c, 0, 60, 111
1, 271039, Note_on_c, 0, 62, 111
1, 271204, Note_off_c, 0, 62, 111
1, 271216, Note_on_c, 0, 65, 105
1, 271315, Note_off_c, 0, 65, 105
1, 271371, Note_on_c, 0, 68, 122
1, 271643, Note_off_c, 0, 68, 122
1, 273827, Note_on_c, 0, 67, 116
1, 274063, Note_off_c, 0, 67, 116
1, 274094, Note_on_c, 0, 64, 120
1, 274326, Note_off_c, 0, 64, 120
1, 274338, Note_on_c, 0, 62, 117
1, 274504, Note_off_c, 0, 62, 117
1, 274549, Note_on_c, 0, 60, 109
1, 274710, Note_off_c, 0, 60, 109
1, 274765, Note_on_c, 0, 59, 105
1, 274975, Note_off_c, 0, 59, 105
1, 274986, Note_on_c, 0, 61, 120
1, 275210, Note_off_c, 0, 61, 120
1, 275216, Note_on_c, 0, 63, 120
1, 275476, Note_off_c, 0, 63, 120
1, 275479, Note_on_c, 0, 66, 119
1, 275670, Note_off_c, 0, 66, 119
1, 275680, Note_on_c, 0, 65, 116
1, 275864, Note_off_c, 0, 65, 116
1, 275894, Note_on_c, 0, 64, 123
1, 276022, Note_off_c, 0, 64, 123
1, 276049, Note_on_c, 0, 63, 122
1, 276236, Note_off_c, 0, 63, 122
1, 276261, Note_on_c, 0, 62, 113
1, 276412, Note_off_c, 0, 62, 113
1, 276437, Note_on_c, 0, 60, 110
1, 276671, Note_off_c, 0, 60, 110
1, 276690, Note_on_c, 0, 58, 102
1, 276879, Note_off_c, 0, 58, 102
1, 276908, Note_on_c, 0, 53, 90
1, 277049, Note_off_c, 0, 53, 90
1, 277156, Note_on_c, 0, 66, 102
1, 277223, Note_off_c, 0, 66, 102
1, 277234, Note_on_c, 0, 67, 106
1, 277390, Note_off_c, 0, 67, 106
1, 277396, Note_on_c, 0, 68, 108
1, 277560, Note_off_c, 0, 68, 108
1, 277568, Note_on_c, 0, 66, 120
1, 277852, Note_off_c, 0, 66, 120
1, 277857, Note_on_c, 0, 67, 95
1, 277961, Note_off_c, 0, 67, 95
1, 278153, Note_on_c, 0, 65, 112
1, 278201, Note_off_c, 0, 65, 112
1, 278207, Note_on_c, 0, 67, 115
1, 278377, Note_off_c, 0, 67, 115
1, 278392, Note_on_c, 0, 66, 116
1, 278549, Note_off_c, 0, 66, 116
1, 278566, Note_on_c, 0, 65, 114
1, 278741, Note_off_c, 0, 65, 114
1, 278758, Note_on_c, 0, 63, 123
1, 278942, Note_off_c, 0, 63, 123
1, 278946, Note_on_c, 0, 62, 112
1, 279106, Note_off_c, 0, 62, 112
1, 279148, Note_on_c, 0, 68, 113
1, 279251, Note_off_c, 0, 68, 113
1, 279251, Note_on_c, 0, 71, 110
1, 279348, Note_off_c, 0, 71, 110
1, 279358, Note_on_c, 0, 70, 118
1, 279587, Note_off_c, 0, 70, 118
1, 279648, Note_on_c, 0, 65, 109
1, 279799, Note_off_c, 0, 65, 109
1, 279799, Note_on_c, 0, 69, 120
1, 280030, Note_off_c, 0, 69, 120
1, 280041, Note_on_c, 0, 70, 121
1, 280176, Note_off_c, 0, 70, 121
1, 280208, Note_on_c, 0, 65, 113
1, 280348, Note_off_c, 0, 65, 113
1, 280406, Note_on_c, 0, 63, 120
1, 280655, Note_off_c, 0, 63, 120
1, 280667, Note_on_c, 0, 62, 116
1, 280835, Note_off_c, 0, 62, 116
1, 280843, Note_on_c, 0, 65, 116
1, 281015, Note_off_c, 0, 65, 116
1, 281025, Note_on_c, 0, 62, 117
1, 281249, Note_off_c, 0, 62, 117
1, 281275, Note_on_c, 0, 60, 109
1, 281476, Note_off_c, 0, 60, 109
1, 281487, Note_on_c, 0, 58, 102
1, 281648, Note_off_c, 0, 58, 102
1, 281748, Note_on_c, 0, 60, 109
1, 281896, Note_off_c, 0, 60, 109
1, 281918, Note_on_c, 0, 62, 112
1, 282149, Note_off_c, 0, 62, 112
1, 282179, Note_on_c, 0, 65, 104
1, 282260, Note_off_c, 0, 65, 104
1, 282275, Note_on_c, 0, 70, 114
1, 282500, Note_off_c, 0, 70, 114
1, 282504, Note_on_c, 0, 66, 115
1, 282668, Note_off_c, 0, 66, 115
1, 282677, Note_on_c, 0, 64, 122
1, 282940, Note_off_c, 0, 64, 122
1, 282960, Note_on_c, 0, 59, 94
1, 283117, Note_off_c, 0, 59, 94
1, 283197, Note_on_c, 0, 67, 114
1, 283523, Note_off_c, 0, 67, 114
1, 283765, Note_on_c, 0, 58, 99
1, 283948, Note_off_c, 0, 58, 99
1, 283968, Note_on_c, 0, 60, 110
1, 284387, Note_off_c, 0, 60, 110
1, 284404, Note_on_c, 0, 62, 114
1, 284520, Note_off_c, 0, 62, 114
1, 284535, Note_on_c, 0, 63, 118
1, 285682, Note_off_c, 0, 63, 118
1, 287438, Note_on_c, 0, 65, 117
1, 287623, Note_off_c, 0, 65, 117
1, 287729, Note_on_c, 0, 68, 111
1, 287829, Note_off_c, 0, 68, 111
1, 288070, Note_on_c, 0, 75, 116
1, 288193, Note_off_c, 0, 75, 116
1, 288254, Note_on_c, 0, 75, 108
1, 288366, Note_off_c, 0, 75, 108
1, 288399, Note_on_c, 0, 79, 124
1, 288724, Note_off_c, 0, 79, 124
1, 288746, Note_on_c, 0, 80, 116
1, 288869, Note_off_c, 0, 80, 116
1, 288885, Note_on_c, 0, 79, 117
1, 289142, Note_off_c, 0, 79, 117
1, 289259, Note_on_c, 0, 75, 102
1, 289376, Note_off_c, 0, 75, 102
1, 289392, Note_on_c, 0, 72, 109
1, 289515, Note_off_c, 0, 72, 109
1, 289559, Note_on_c, 0, 68, 120
1, 289643, Note_off_c, 0, 68, 120
1, 289665, Note_on_c, 0, 67, 111
1, 289782, Note_off_c, 0, 67, 111
1, 289821, Note_on_c, 0, 65, 112
1, 289938, Note_off_c, 0, 65, 112
1, 289977, Note_on_c, 0, 64, 114
1, 290201, Note_off_c, 0, 64, 114
1, 290206, Note_on_c, 0, 65, 102
1, 290284, Note_off_c, 0, 65, 102
1, 290292, Note_on_c, 0, 70, 109
1, 290415, Note_off_c, 0, 70, 109
1, 290420, Note_on_c, 0, 73, 117
1, 290537, Note_off_c, 0, 73, 117
1, 290553, Note_on_c, 0, 74, 118
1, 290810, Note_off_c, 0, 74, 118
1, 290818, Note_on_c, 0, 72, 115
1, 290944, Note_off_c, 0, 72, 115
1, 290997, Note_on_c, 0, 70, 109
1, 291187, Note_off_c, 0, 70, 109
1, 291269, Note_on_c, 0, 67, 113
1, 291387, Note_off_c, 0, 67, 113
1, 291398, Note_on_c, 0, 68, 117
1, 291526, Note_off_c, 0, 68, 117
1, 291539, Note_on_c, 0, 71, 114
1, 291692, Note_off_c, 0, 71, 114
1, 291723, Note_on_c, 0, 68, 112
1, 291805, Note_off_c, 0, 68, 112
1, 291828, Note_on_c, 0, 67, 103
1, 291930, Note_off_c, 0, 67, 103
1, 292016, Note_on_c, 0, 63, 114
1, 292205, Note_off_c, 0, 63, 114
1, 292461, Note_on_c, 0, 55, 101
1, 292583, Note_off_c, 0, 55, 101
1, 292624, Note_on_c, 0, 61, 118
1, 292675, Note_off_c, 0, 61, 118
1, 292690, Note_on_c, 0, 62, 118
1, 293066, Note_off_c, 0, 62, 118
1, 294607, Note_on_c, 0, 73, 118
1, 294748, Note_off_c, 0, 73, 118
1, 294759, Note_on_c, 0, 70, 115
1, 294881, Note_off_c, 0, 70, 115
1, 294916, Note_on_c, 0, 66, 113
1, 295124, Note_off_c, 0, 66, 113
1, 295183, Note_on_c, 0, 70, 117
1, 295431, Note_off_c, 0, 70, 117
1, 295505, Note_on_c, 0, 66, 109
1, 295603, Note_off_c, 0, 66, 109
1, 295606, Note_on_c, 0, 69, 117
1, 295822, Note_off_c, 0, 69, 117
1, 295865, Note_on_c, 0, 71, 117
1, 296014, Note_off_c, 0, 71, 117
1, 296045, Note_on_c, 0, 68, 120
1, 296222, Note_off_c, 0, 68, 120
1, 296277, Note_on_c, 0, 64, 122
1, 296446, Note_off_c, 0, 64, 122
1, 296524, Note_on_c, 0, 59, 97
1, 296673, Note_off_c, 0, 59, 97
1, 296740, Note_on_c, 0, 55, 105
1, 296905, Note_off_c, 0, 55, 105
1, 296932, Note_on_c, 0, 60, 115
1, 297022, Note_off_c, 0, 60, 115
1, 297049, Note_on_c, 0, 62, 123
1, 297829, Note_off_c, 0, 62, 123
1, 297844, Note_on_c, 0, 63, 123
1, 297993, Note_off_c, 0, 63, 123
1, 298000, Note_on_c, 0, 65, 117
1, 298130, Note_off_c, 0, 65, 117
1, 298200, Note_on_c, 0, 67, 114
1, 298393, Note_off_c, 0, 67, 114
1, 298424, Note_on_c, 0, 63, 121
1, 298613, Note_off_c, 0, 63, 121
1, 298644, Note_on_c, 0, 62, 117
1, 298825, Note_off_c, 0, 62, 117
1, 298846, Note_on_c, 0, 60, 107
1, 299023, Note_off_c, 0, 60, 107
1, 299060, Note_on_c, 0, 59, 104
1, 299186, Note_off_c, 0, 59, 104
1, 299203, Note_on_c, 0, 58, 101
1, 299415, Note_off_c, 0, 58, 101
1, 299449, Note_on_c, 0, 57, 109
1, 299586, Note_off_c, 0, 57, 109
1, 299600, Note_on_c, 0, 56, 115
1, 299753, Note_off_c, 0, 56, 115
1, 299809, Note_on_c, 0, 55, 112
1, 299926, Note_off_c, 0, 55, 112
1, 299965, Note_on_c, 0, 53, 100
1, 300181, Note_off_c, 0, 53, 100
1, 300227, Note_on_c, 0, 56, 115
1, 300400, Note_off_c, 0, 56, 115
1, 300425, Note_on_c, 0, 60, 106
1, 300570, Note_off_c, 0, 60, 106
1, 300584, Note_on_c, 0, 63, 108
1, 300712, Note_off_c, 0, 63, 108
1, 300731, Note_on_c, 0, 67, 110
1, 300831, Note_off_c, 0, 67, 110
1, 300842, Note_on_c, 0, 70, 121
1, 301039, Note_off_c, 0, 70, 121
1, 302024, Note_on_c, 0, 68, 102
1, 302118, Note_off_c, 0, 68, 102
1, 302121, Note_on_c, 0, 66, 98
1, 302223, Note_off_c, 0, 66, 98
1, 302262, Note_on_c, 0, 57, 105
1, 302402, Note_off_c, 0, 57, 105
1, 302415, Note_on_c, 0, 61, 114
1, 302525, Note_off_c, 0, 61, 114
1, 302540, Note_on_c, 0, 63, 107
1, 302591, Note_off_c, 0, 63, 107
1, 302591, Note_on_c, 0, 66, 102
1, 302673, Note_off_c, 0, 66, 102
1, 302700, Note_on_c, 0, 68, 114
1, 302877, Note_off_c, 0, 68, 114
1, 302894, Note_on_c, 0, 73, 117
1, 303075, Note_off_c, 0, 73, 117
1, 303739, Note_on_c, 0, 55, 110
1, 303817, Note_off_c, 0, 55, 110
1, 303824, Note_on_c, 0, 56, 114
1, 303934, Note_off_c, 0, 56, 114
1, 303973, Note_on_c, 0, 58, 104
1, 304063, Note_off_c, 0, 58, 104
1, 304098, Note_on_c, 0, 60, 109
1, 304193, Note_off_c, 0, 60, 109
1, 304217, Note_on_c, 0, 62, 118
1, 304286, Note_off_c, 0, 62, 118
1, 304287, Note_on_c, 0, 63, 120
1, 304369, Note_off_c, 0, 63, 120
1, 304388, Note_on_c, 0, 65, 111
1, 304508, Note_off_c, 0, 65, 111
1, 304553, Note_on_c, 0, 62, 112
1, 304681, Note_off_c, 0, 62, 112
1, 304695, Note_on_c, 0, 63, 109
1, 304815, Note_off_c, 0, 63, 109
1, 304848, Note_on_c, 0, 67, 100
1, 304934, Note_off_c, 0, 67, 100
1, 304953, Note_on_c, 0, 70, 107
1, 305104, Note_off_c, 0, 70, 107
1, 305143, Note_on_c, 0, 75, 116
1, 305417, Note_off_c, 0, 75, 116
1, 306378, Note_on_c, 0, 48, 122
1, 306476, Note_off_c, 0, 48, 122
1, 306490, Note_on_c, 0, 50, 117
1, 306585, Note_off_c, 0, 50, 117
1, 306596, Note_on_c, 0, 53, 116
1, 306736, Note_off_c, 0, 53, 116
1, 306783, Note_on_c, 0, 51, 116
1, 306959, Note_off_c, 0, 51, 116
1, 306961, Note_on_c, 0, 53, 106
1, 307064, Note_off_c, 0, 53, 106
1, 307089, Note_on_c, 0, 55, 110
1, 307206, Note_off_c, 0, 55, 110
1, 307225, Note_on_c, 0, 57, 109
1, 307376, Note_off_c, 0, 57, 109
1, 307395, Note_on_c, 0, 58, 104
1, 307529, Note_off_c, 0, 58, 104
1, 307537, Note_on_c, 0, 61, 116
1, 307671, Note_off_c, 0, 61, 116
1, 307690, Note_on_c, 0, 63, 115
1, 307816, Note_off_c, 0, 63, 115
1, 307832, Note_on_c, 0, 65, 107
1, 308092, Note_off_c, 0, 65, 107
1, 308122, Note_on_c, 0, 67, 103
1, 308214, Note_off_c, 0, 67, 103
1, 308225, Note_on_c, 0, 69, 107
1, 308314, Note_off_c, 0, 69, 107
1, 308322, Note_on_c, 0, 71, 106
1, 308414, Note_off_c, 0, 71, 106
1, 308439, Note_on_c, 0, 73, 119
1, 308786, Note_off_c, 0, 73, 119
1, 309001, Note_on_c, 0, 71, 117
1, 309107, Note_off_c, 0, 71, 117
1, 309135, Note_on_c, 0, 69, 110
1, 309280, Note_off_c, 0, 69, 110
1, 309299, Note_on_c, 0, 68, 118
1, 309781, Note_off_c, 0, 68, 118
1, 309823, Note_on_c, 0, 66, 110
1, 310055, Note_off_c, 0, 66, 110
1, 310077, Note_on_c, 0, 65, 115
1, 310463, Note_off_c, 0, 65, 115
1, 310687, Note_on_c, 0, 57, 101
1, 310787, Note_off_c, 0, 57, 101
1, 310795, Note_on_c, 0, 61, 115
1, 311005, Note_off_c, 0, 61, 115
1, 311021, Note_on_c, 0, 62, 117
1, 311464, Note_off_c, 0, 62, 117
1, 311469, Note_on_c, 0, 65, 109
1, 311609, Note_off_c, 0, 65, 109
1, 311670, Note_on_c, 0, 70, 118
1, 312275, Note_off_c, 0, 70, 118
1, 314349, Note_on_c, 0, 45, 119
1, 314506, Note_off_c, 0, 45, 119
1, 314538, Note_on_c, 0, 50, 115
1, 314686, Note_off_c, 0, 50, 115
1, 314722, Note_on_c, 0, 55, 120
1, 314859, Note_off_c, 0, 55, 120
1, 314920, Note_on_c, 0, 49, 112
1, 315012, Note_off_c, 0, 49, 112
1, 315031, Note_on_c, 0, 51, 115
1, 315107, Note_off_c, 0, 51, 115
1, 315146, Note_on_c, 0, 53, 111
1, 315213, Note_off_c, 0, 53, 111
1, 315254, Note_on_c, 0, 56, 113
1, 315354, Note_off_c, 0, 56, 113
1, 315388, Note_on_c, 0, 58, 101
1, 315522, Note_off_c, 0, 58, 101
1, 315561, Note_on_c, 0, 65, 108
1, 315730, Note_off_c, 0, 65, 108
1, 315815, Note_on_c, 0, 58, 106
1, 315957, Note_off_c, 0, 58, 106
1, 315971, Note_on_c, 0, 61, 123
1, 316091, Note_off_c, 0, 61, 123
1, 316105, Note_on_c, 0, 63, 120
1, 316194, Note_off_c, 0, 63, 120
1, 316226, Note_on_c, 0, 66, 116
1, 316316, Note_off_c, 0, 66, 116
1, 316322, Note_on_c, 0, 65, 117
1, 316467, Note_off_c, 0, 65, 117
1, 317378, Note_on_c, 0, 64, 120
1, 317501, Note_off_c, 0, 64, 120
1, 317523, Note_on_c, 0, 65, 110
1, 317660, Note_off_c, 0, 65, 110
1, 317674, Note_on_c, 0, 68, 107
1, 317788, Note_off_c, 0, 68, 107
1, 317835, Note_on_c, 0, 58, 108
1, 317924, Note_off_c, 0, 58, 108
1, 317932, Note_on_c, 0, 60, 110
1, 318002, Note_off_c, 0, 60, 110
1, 318010, Note_on_c, 0, 61, 116
1, 318122, Note_off_c, 0, 61, 116
1, 318138, Note_on_c, 0, 62, 118
1, 318230, Note_off_c, 0, 62, 118
1, 318258, Note_on_c, 0, 67, 114
1, 318386, Note_off_c, 0, 67, 114
1, 318408, Note_on_c, 0, 66, 116
1, 318480, Note_off_c, 0, 66, 116
1, 318499, Note_on_c, 0, 65, 116
1, 318588, Note_off_c, 0, 65, 116
1, 318635, Note_on_c, 0, 63, 121
1, 318777, Note_off_c, 0, 63, 121
1, 318799, Note_on_c, 0, 62, 113
1, 318944, Note_off_c, 0, 62, 113
1, 318952, Note_on_c, 0, 65, 108
1, 319235, Note_off_c, 0, 65, 108
1, 319243, Note_on_c, 0, 67, 101
1, 319294, Note_off_c, 0, 67, 101
1, 319311, Note_on_c, 0, 69, 110
1, 319454, Note_off_c, 0, 69, 110
1, 319469, Note_on_c, 0, 72, 115
1, 319638, Note_off_c, 0, 72, 115
1, 319649, Note_on_c, 0, 71, 107
1, 319755, Note_off_c, 0, 71, 107
1, 319764, Note_on_c, 0, 69, 114
1, 319905, Note_off_c, 0, 69, 114
1, 319918, Note_on_c, 0, 71, 110
1, 320077, Note_off_c, 0, 71, 110
1, 320092, Note_on_c, 0, 68, 120
1, 320312, Note_off_c, 0, 68, 120
1, 320323, Note_on_c, 0, 64, 115
1, 320522, Note_off_c, 0, 64, 115
1, 320551, Note_on_c, 0, 61, 114
1, 320759, Note_off_c, 0, 61, 114
1, 320800, Note_on_c, 0, 64, 114
1, 320967, Note_off_c, 0, 64, 114
1, 320972, Note_on_c, 0, 66, 104
1, 321023, Note_off_c, 0, 66, 104
1, 321030, Note_on_c, 0, 70, 114
1, 321183, Note_off_c, 0, 70, 114
1, 321196, Note_on_c, 0, 69, 115
1, 321347, Note_off_c, 0, 69, 115
1, 321376, Note_on_c, 0, 67, 110
1, 321565, Note_off_c, 0, 67, 110
1, 321584, Note_on_c, 0, 66, 115
1, 321777, Note_off_c, 0, 66, 115
1, 321792, Note_on_c, 0, 64, 119
1, 321955, Note_off_c, 0, 64, 119
1, 321992, Note_on_c, 0, 63, 117
1, 322193, Note_off_c, 0, 63, 117
1, 322198, Note_on_c, 0, 66, 103
1, 322391, Note_off_c, 0, 66, 103
1, 322396, Note_on_c, 0, 69, 113
1, 322624, Note_off_c, 0, 69, 113
1, 322639, Note_on_c, 0, 66, 102
1, 322826, Note_off_c, 0, 66, 102
1, 322875, Note_on_c, 0, 72, 113
1, 323064, Note_off_c, 0, 72, 113
1, 323065, Note_on_c, 0, 73, 117
1, 323195, Note_off_c, 0, 73, 117
1, 323204, Note_on_c, 0, 72, 115
1, 323294, Note_off_c, 0, 72, 115
1, 323325, Note_on_c, 0, 71, 111
1, 323526, Note_off_c, 0, 71, 111
1, 323543, Note_on_c, 0, 69, 115
1, 323732, Note_off_c, 0, 69, 115
1, 323749, Note_on_c, 0, 68, 113
1, 323928, Note_off_c, 0, 68, 113
1, 323951, Note_on_c, 0, 66, 116
1, 324114, Note_off_c, 0, 66, 116
1, 324127, Note_on_c, 0, 65, 117
1, 324247, Note_off_c, 0, 65, 117
1, 324280, Note_on_c, 0, 63, 119
1, 324479, Note_off_c, 0, 63, 119
1, 324508, Note_on_c, 0, 62, 115
1, 324669, Note_off_c, 0, 62, 115
1, 324674, Note_on_c, 0, 63, 113
1, 324821, Note_off_c, 0, 63, 113
1, 324834, Note_on_c, 0, 65, 110
1, 325019, Note_off_c, 0, 65, 110
1, 325044, Note_on_c, 0, 67, 96
1, 325150, Note_off_c, 0, 67, 96
1, 325171, Note_on_c, 0, 69, 104
1, 325309, Note_off_c, 0, 69, 104
1, 325333, Note_on_c, 0, 72, 116
1, 325547, Note_off_c, 0, 72, 116
1, 325562, Note_on_c, 0, 69, 103
1, 325782, Note_off_c, 0, 69, 103
1, 325787, Note_on_c, 0, 71, 118
1, 325993, Note_off_c, 0, 71, 118
1, 326026, Note_on_c, 0, 75, 101
1, 326394, Note_off_c, 0, 75, 101
1, 326449, Note_on_c, 0, 71, 115
1, 326590, Note_off_c, 0, 71, 115
1, 326595, Note_on_c, 0, 68, 116
1, 326740, Note_off_c, 0, 68, 116
1, 326749, Note_on_c, 0, 64, 119
1, 326898, Note_off_c, 0, 64, 119
1, 326913, Note_on_c, 0, 63, 118
1, 327340, Note_off_c, 0, 63, 118
1, 327357, Note_on_c, 0, 61, 114
1, 327605, Note_off_c, 0, 61, 114
1, 327745, Note_on_c, 0, 74, 109
1, 327942, Note_off_c, 0, 74, 109
1, 327955, Note_on_c, 0, 70, 108
1, 328041, Note_off_c, 0, 70, 108
1, 328055, Note_on_c, 0, 67, 111
1, 328240, Note_off_c, 0, 67, 111
1, 328249, Note_on_c, 0, 63, 117
1, 328351, Note_off_c, 0, 63, 117
1, 328370, Note_on_c, 0, 62, 119
1, 328715, Note_off_c, 0, 62, 119
1, 328734, Note_on_c, 0, 61, 98
1, 328834, Note_off_c, 0, 61, 98
1, 329490, Note_on_c, 0, 73, 105
1, 329620, Note_off_c, 0, 73, 105
1, 329629, Note_on_c, 0, 69, 111
1, 329741, Note_off_c, 0, 69, 111
1, 329747, Note_on_c, 0, 68, 113
1, 329865, Note_off_c, 0, 68, 113
1, 329888, Note_on_c, 0, 66, 113
1, 330033, Note_off_c, 0, 66, 113
1, 330050, Note_on_c, 0, 63, 118
1, 330213, Note_off_c, 0, 63, 118
1, 330221, Note_on_c, 0, 61, 117
1, 330422, Note_off_c, 0, 61, 117
1, 330440, Note_on_c, 0, 59, 100
1, 330568, Note_off_c, 0, 59, 100
1, 330578, Note_on_c, 0, 57, 106
1, 330668, Note_off_c, 0, 57, 106
1, 330679, Note_on_c, 0, 56, 112
1, 330862, Note_off_c, 0, 56, 112
1, 330871, Note_on_c, 0, 54, 109
1, 331030, Note_off_c, 0, 54, 109
1, 331050, Note_on_c, 0, 53, 106
1, 331369, Note_off_c, 0, 53, 106
1, 332509, Note_on_c, 0, 67, 116
1, 332725, Note_off_c, 0, 67, 116
1, 332744, Note_on_c, 0, 66, 116
1, 332931, Note_off_c, 0, 66, 116
1, 332947, Note_on_c, 0, 65, 114
1, 333146, Note_off_c, 0, 65, 114
1, 333158, Note_on_c, 0, 63, 119
1, 333323, Note_off_c, 0, 63, 119
1, 333350, Note_on_c, 0, 62, 116
1, 333574, Note_off_c, 0, 62, 116
1, 333605, Note_on_c, 0, 60, 109
1, 333784, Note_off_c, 0, 60, 109
1, 333803, Note_on_c, 0, 59, 104
1, 333994, Note_off_c, 0, 59, 104
1, 334035, Note_on_c, 0, 55, 109
1, 334267, Note_off_c, 0, 55, 109
1, 334278, Note_on_c, 0, 54, 103
1, 334446, Note_off_c, 0, 54, 103
1, 334455, Note_on_c, 0, 55, 110
1, 334618, Note_off_c, 0, 55, 110
1, 334641, Note_on_c, 0, 62, 118
1, 334851, Note_off_c, 0, 62, 118
1, 334860, Note_on_c, 0, 60, 108
1, 335049, Note_off_c, 0, 60, 108
1, 335062, Note_on_c, 0, 58, 104
1, 335239, Note_off_c, 0, 58, 104
1, 335272, Note_on_c, 0, 55, 108
1, 335485, Note_off_c, 0, 55, 108
1, 335536, Note_on_c, 0, 59, 99
1, 335719, Note_off_c, 0, 59, 99
1, 335766, Note_on_c, 0, 62, 115
1, 336015, Note_off_c, 0, 62, 115
1, 336021, Note_on_c, 0, 63, 118
1, 336176, Note_off_c, 0, 63, 118
1, 336237, Note_on_c, 0, 60, 102
1, 336402, Note_off_c, 0, 60, 102
1, 336413, Note_on_c, 0, 65, 112
1, 336609, Note_off_c, 0, 65, 112
1, 336620, Note_on_c, 0, 61, 110
1, 336849, Note_off_c, 0, 61, 110
1, 336865, Note_on_c, 0, 57, 104
1, 337055, Note_off_c, 0, 57, 104
1, 337094, Note_on_c, 0, 53, 97
1, 337295, Note_off_c, 0, 53, 97
1, 337315, Note_on_c, 0, 58, 98
1, 338400, Note_off_c, 0, 58, 98
1, 338425, Note_on_c, 0, 57, 97
1, 338551, Note_off_c, 0, 57, 97
1, 338562, Note_on_c, 0, 58, 97
1, 338727, Note_off_c, 0, 58, 97
1, 338738, Note_on_c, 0, 60, 105
1, 338883, Note_off_c, 0, 60, 105
1, 338902, Note_on_c, 0, 62, 109
1, 339350, Note_off_c, 0, 62, 109
1, 339350, End_track
0, 0, End_of_file
