0, 0, Header, 1, 1, 840
1, 0, Start_track
1, 0, Title_t, "Melody"
1, 0, Tempo, 422535
1, 0, Key_signature, -3, "major"
1, 0, Time_signature, 4, 2, 24, 8
1, 6114, Note_on_c, 0, 65, 104
1, 6438, Note_off_c, 0, 65, 104
1, 6486, Note_on_c, 0, 63, 99
1, 6729, Note_off_c, 0, 63, 99
1, 6842, Note_on_c, 0, 65, 110
1, 7069, Note_off_c, 0, 65, 110
1, 7085, Note_on_c, 0, 63, 114
1, 7295, Note_off_c, 0, 63, 114
1, 7408, Note_on_c, 0, 61, 110
1, 7725, Note_off_c, 0, 61, 110
1, 7857, Note_on_c, 0, 58, 107
1, 8070, Note_off_c, 0, 58, 107
1, 8137, Note_on_c, 0, 63, 117
1, 8591, Note_off_c, 0, 63, 117
1, 8639, Note_on_c, 0, 65, 111
1, 12128, Note_off_c, 0, 65, 111
1, 12223, Note_on_c, 0, 63, 117
1, 12547, Note_off_c, 0, 63, 117
1, 12620, Note_on_c, 0, 65, 112
1, 13058, Note_off_c, 0, 65, 112
1, 13100, Note_on_c, 0, 63, 115
1, 13814, Note_off_c, 0, 63, 115
1, 13878, Note_on_c, 0, 61, 107
1, 14024, Note_off_c, 0, 61, 107
1, 14101, Note_on_c, 0, 63, 119
1, 14587, Note_off_c, 0, 63, 119
1, 14623, Note_on_c, 0, 65, 110
1, 15337, Note_off_c, 0, 65, 110
1, 15369, Note_on_c, 0, 64, 112
1, 15482, Note_off_c, 0, 64, 112
1, 15498, Note_on_c, 0, 65, 112
1, 17007, Note_off_c, 0, 65, 112
1, 18475, Note_on_c, 0, 64, 118
1, 18604, Note_off_c, 0, 64, 118
1, 18628, Note_on_c, 0, 65, 112
1, 20818, Note_off_c, 0, 65, 112
1, 20882, Note_on_c, 0, 63, 117
1, 21206, Note_off_c, 0, 63, 117
1, 21344, Note_on_c, 0, 65, 114
1, 21603, Note_off_c, 0, 65, 114
1, 21640, Note_on_c, 0, 63, 117
1, 21980, Note_off_c, 0, 63, 117
1, 22043, Note_on_c, 0, 68, 118
1, 22302, Note_off_c, 0, 68, 118
1, 22314, Note_on_c, 0, 66, 110
1, 22510, Note_off_c, 0, 66, 110
1, 22535, Note_on_c, 0, 63, 113
1, 22823, Note_off_c, 0, 63, 113
1, 22867, Note_on_c, 0, 65, 111
1, 23970, Note_off_c, 0, 65, 111
1, 24027, Note_on_c, 0, 63, 107
1, 24237, Note_off_c, 0, 63, 107
1, 24280, Note_on_c, 0, 68, 113
1, 24523, Note_off_c, 0, 68, 113
1, 24545, Note_on_c, 0, 66, 107
1, 24682, Note_off_c, 0, 66, 107
1, 24740, Note_on_c, 0, 63, 115
1, 24983, Note_off_c, 0, 63, 115
1, 25023, Note_on_c, 0, 65, 108
1, 25191, Note_off_c, 0, 65, 108
1, 25227, Note_on_c, 0, 63, 117
1, 25472, Note_off_c, 0, 63, 117
1, 25800, Note_on_c, 0, 68, 116
1, 26043, Note_off_c, 0, 68, 116
1, 26105, Note_on_c, 0, 66, 108
1, 26302, Note_off_c, 0, 66, 108
1, 26323, Note_on_c, 0, 63, 116
1, 26533, Note_off_c, 0, 63, 116
1, 26618, Note_on_c, 0, 65, 110
1, 26893, Note_off_c, 0, 65, 110
1, 26940, Note_on_c, 0, 63, 116
1, 27170, Note_off_c, 0, 63, 116
1, 27434, Note_on_c, 0, 66, 111
1, 27726, Note_off_c, 0, 66, 111
1, 27738, Note_on_c, 0, 63, 115
1, 27975, Note_off_c, 0, 63, 115
1, 28024, Note_on_c, 0, 65, 112
1, 28192, Note_off_c, 0, 65, 112
1, 28270, Note_on_c, 0, 63, 117
1, 28510, Note_off_c, 0, 63, 117
1, 28535, Note_on_c, 0, 61, 109
1, 28762, Note_off_c, 0, 61, 109
1, 28762, Note_on_c, 0, 58, 111
1, 29054, Note_off_c, 0, 58, 111
1, 29118, Note_on_c, 0, 56, 103
1, 29345, Note_off_c, 0, 56, 103
1, 29458, Note_on_c, 0, 53, 102
1, 29604, Note_off_c, 0, 53, 102
1, 29652, Note_on_c, 0, 55, 106
1, 29798, Note_off_c, 0, 55, 106
1, 29927, Note_on_c, 0, 63, 117
1, 31501, Note_off_c, 0, 63, 117
1, 31874, Note_on_c, 0, 63, 118
1, 32182, Note_off_c, 0, 63, 118
1, 32252, Note_on_c, 0, 61, 101
1, 32479, Note_off_c, 0, 61, 101
1, 32554, Note_on_c, 0, 65, 112
1, 34322, Note_off_c, 0, 65, 112
1, 34354, Note_on_c, 0, 63, 113
1, 34629, Note_off_c, 0, 63, 113
1, 34921, Note_on_c, 0, 66, 112
1, 35115, Note_off_c, 0, 66, 112
1, 35115, Note_on_c, 0, 63, 118
1, 35325, Note_off_c, 0, 63, 118
1, 35325, Note_on_c, 0, 58, 105
1, 35568, Note_off_c, 0, 58, 105
1, 35649, Note_on_c, 0, 56, 102
1, 36330, Note_off_c, 0, 56, 102
1, 37676, Note_on_c, 0, 56, 111
1, 37903, Note_off_c, 0, 56, 111
1, 37951, Note_on_c, 0, 59, 108
1, 38145, Note_off_c, 0, 59, 108
1, 38145, Note_on_c, 0, 63, 109
1, 38323, Note_off_c, 0, 63, 109
1, 38323, Note_on_c, 0, 66, 107
1, 38501, Note_off_c, 0, 66, 107
1, 38501, Note_on_c, 0, 70, 118
1, 38728, Note_off_c, 0, 70, 118
1, 38772, Note_on_c, 0, 73, 114
1, 39074, Note_off_c, 0, 73, 114
1, 39132, Note_on_c, 0, 71, 118
1, 39269, Note_off_c, 0, 71, 118
1, 39295, Note_on_c, 0, 70, 110
1, 39439, Note_off_c, 0, 70, 110
1, 39504, Note_on_c, 0, 68, 112
1, 39644, Note_off_c, 0, 68, 112
1, 39692, Note_on_c, 0, 67, 111
1, 39866, Note_off_c, 0, 67, 111
1, 39916, Note_on_c, 0, 65, 112
1, 40087, Note_off_c, 0, 65, 112
1, 40113, Note_on_c, 0, 63, 114
1, 40328, Note_off_c, 0, 63, 114
1, 40367, Note_on_c, 0, 60, 105
1, 40556, Note_off_c, 0, 60, 105
1, 40572, Note_on_c, 0, 56, 95
1, 40746, Note_off_c, 0, 56, 95
1, 40848, Note_on_c, 0, 54, 100
1, 40914, Note_off_c, 0, 54, 100
1, 40976, Note_on_c, 0, 62, 115
1, 41176, Note_off_c, 0, 62, 115
1, 41220, Note_on_c, 0, 63, 115
1, 41398, Note_off_c, 0, 63, 115
1, 41408, Note_on_c, 0, 65, 113
1, 41586, Note_off_c, 0, 65, 113
1, 41592, Note_on_c, 0, 62, 114
1, 41747, Note_off_c, 0, 62, 114
1, 41812, Note_on_c, 0, 63, 118
1, 41990, Note_off_c, 0, 63, 118
1, 42038, Note_on_c, 0, 62, 113
1, 42232, Note_off_c, 0, 62, 113
1, 42232, Note_on_c, 0, 60, 109
1, 42378, Note_off_c, 0, 60, 109
1, 42394, Note_on_c, 0, 59, 107
1, 42588, Note_off_c, 0, 59, 107
1, 42620, Note_on_c, 0, 58, 104
1, 42798, Note_off_c, 0, 58, 104
1, 42846, Note_on_c, 0, 56, 105
1, 43040, Note_off_c, 0, 56, 105
1, 43040, Note_on_c, 0, 53, 90
1, 43218, Note_off_c, 0, 53, 90
1, 43299, Note_on_c, 0, 55, 109
1, 43639, Note_off_c, 0, 55, 109
1, 43655, Note_on_c, 0, 63, 118
1, 43995, Note_off_c, 0, 63, 118
1, 45234, Note_on_c, 0, 63, 121
1, 45526, Note_off_c, 0, 63, 121
1, 45584, Note_on_c, 0, 65, 108
1, 45697, Note_off_c, 0, 65, 108
1, 45732, Note_on_c, 0, 67, 113
1, 45847, Note_off_c, 0, 67, 113
1, 45927, Note_on_c, 0, 70, 102
1, 46019, Note_off_c, 0, 70, 102
1, 46065, Note_on_c, 0, 72, 112
1, 46365, Note_off_c, 0, 72, 112
1, 46515, Note_on_c, 0, 72, 115
1, 46791, Note_off_c, 0, 72, 115
1, 46791, Note_on_c, 0, 73, 120
1, 47656, Note_on_c, 0, 72, 119
1, 47656, Note_off_c, 0, 73, 120
1, 47806, Note_off_c, 0, 72, 119
1, 47806, Note_on_c, 0, 71, 113
1, 47863, Note_off_c, 0, 71, 113
1, 47909, Note_on_c, 0, 70, 118
1, 48070, Note_off_c, 0, 70, 118
1, 48099, Note_on_c, 0, 68, 117
1, 48202, Note_off_c, 0, 68, 117
1, 48231, Note_on_c, 0, 67, 113
1, 48346, Note_off_c, 0, 67, 113
1, 48424, Note_on_c, 0, 65, 115
1, 48608, Note_off_c, 0, 65, 115
1, 48614, Note_on_c, 0, 63, 115
1, 48725, Note_off_c, 0, 63, 115
1, 48746, Note_on_c, 0, 62, 117
1, 48926, Note_off_c, 0, 62, 117
1, 48975, Note_on_c, 0, 61, 113
1, 49113, Note_off_c, 0, 61, 113
1, 49803, Note_on_c, 0, 60, 112
1, 49913, Note_off_c, 0, 60, 112
1, 49922, Note_on_c, 0, 61, 118
1, 50056, Note_off_c, 0, 61, 118
1, 50063, Note_on_c, 0, 62, 118
1, 50143, Note_off_c, 0, 62, 118
1, 50146, Note_on_c, 0, 63, 115
1, 50347, Note_off_c, 0, 63, 115
1, 50372, Note_on_c, 0, 65, 112
1, 50470, Note_off_c, 0, 65, 112
1, 50482, Note_on_c, 0, 66, 109
1, 50599, Note_off_c, 0, 66, 109
1, 50617, Note_on_c, 0, 68, 112
1, 50743, Note_off_c, 0, 68, 112
1, 50762, Note_on_c, 0, 70, 118
1, 51034, Note_off_c, 0, 70, 118
1, 51758, Note_on_c, 0, 69, 109
1, 52034, Note_off_c, 0, 69, 109
1, 52045, Note_on_c, 0, 66, 115
1, 52206, Note_off_c, 0, 66, 115
1, 52263, Note_on_c, 0, 65, 111
1, 52413, Note_on_c, 0, 63, 108
1, 52413, Note_off_c, 0, 65, 111
1, 52678, Note_off_c, 0, 63, 108
1, 52699, Note_on_c, 0, 66, 108
1, 52767, Note_off_c, 0, 66, 108
1, 52777, Note_on_c, 0, 67, 115
1, 52936, Note_off_c, 0, 67, 115
1, 52962, Note_on_c, 0, 63, 109
1, 53204, Note_off_c, 0, 63, 109
1, 53249, Note_on_c, 0, 67, 108
1, 53468, Note_off_c, 0, 67, 108
1, 53491, Note_on_c, 0, 68, 119
1, 53707, Note_off_c, 0, 68, 119
1, 53735, Note_on_c, 0, 65, 99
1, 53873, Note_off_c, 0, 65, 99
1, 53920, Note_on_c, 0, 69, 116
1, 54093, Note_off_c, 0, 69, 116
1, 54136, Note_on_c, 0, 72, 118
1, 54320, Note_off_c, 0, 72, 118
1, 54345, Note_on_c, 0, 70, 111
1, 54541, Note_off_c, 0, 70, 111
1, 54569, Note_on_c, 0, 67, 112
1, 54721, Note_off_c, 0, 67, 112
1, 54745, Note_on_c, 0, 68, 117
1, 54939, Note_off_c, 0, 68, 117
1, 54973, Note_on_c, 0, 65, 98
1, 55099, Note_off_c, 0, 65, 98
1, 55150, Note_on_c, 0, 67, 112
1, 55281, Note_off_c, 0, 67, 112
1, 55319, Note_on_c, 0, 65, 114
1, 55471, Note_off_c, 0, 65, 114
1, 55502, Note_on_c, 0, 63, 118
1, 55689, Note_off_c, 0, 63, 118
1, 55739, Note_on_c, 0, 62, 117
1, 55900, Note_off_c, 0, 62, 117
1, 55936, Note_on_c, 0, 61, 109
1, 56097, Note_off_c, 0, 61, 109
1, 56113, Note_on_c, 0, 63, 112
1, 56343, Note_off_c, 0, 63, 112
1, 56360, Note_on_c, 0, 65, 111
1, 56519, Note_off_c, 0, 65, 111
1, 56519, Note_on_c, 0, 61, 111
1, 56692, Note_off_c, 0, 61, 111
1, 56709, Note_on_c, 0, 60, 108
1, 56837, Note_off_c, 0, 60, 108
1, 56859, Note_on_c, 0, 58, 106
1, 57065, Note_off_c, 0, 58, 106
1, 57126, Note_on_c, 0, 57, 103
1, 57323, Note_off_c, 0, 57, 103
1, 57357, Note_on_c, 0, 58, 103
1, 57507, Note_off_c, 0, 58, 103
1, 57532, Note_on_c, 0, 63, 120
1, 57866, Note_off_c, 0, 63, 120
1, 58016, Note_on_c, 0, 63, 115
1, 58350, Note_off_c, 0, 63, 115
1, 58374, Note_on_c, 0, 66, 111
1, 58627, Note_off_c, 0, 66, 111
1, 58636, Note_on_c, 0, 63, 112
1, 58866, Note_off_c, 0, 63, 112
1, 58890, Note_on_c, 0, 66, 106
1, 59178, Note_off_c, 0, 66, 106
1, 59280, Note_on_c, 0, 68, 113
1, 60252, Note_off_c, 0, 68, 113
1, 60337, Note_on_c, 0, 70, 120
1, 60844, Note_off_c, 0, 70, 120
1, 63537, Note_on_c, 0, 69, 118
1, 63675, Note_off_c, 0, 69, 118
1, 63702, Note_on_c, 0, 70, 117
1, 63840, Note_off_c, 0, 70, 117
1, 63869, Note_on_c, 0, 69, 118
1, 64249, Note_off_c, 0, 69, 118
1, 64295, Note_on_c, 0, 68, 116
1, 64548, Note_off_c, 0, 68, 116
1, 64651, Note_on_c, 0, 66, 112
1, 64974, Note_off_c, 0, 66, 112
1, 65089, Note_on_c, 0, 63, 112
1, 65492, Note_off_c, 0, 63, 112
1, 65572, Note_on_c, 0, 66, 114
1, 65675, Note_off_c, 0, 66, 114
1, 65698, Note_on_c, 0, 67, 113
1, 66517, Note_off_c, 0, 67, 113
1, 66538, Note_on_c, 0, 68, 112
1, 66602, Note_off_c, 0, 68, 112
1, 66619, Note_on_c, 0, 69, 116
1, 66825, Note_off_c, 0, 69, 116
1, 66849, Note_on_c, 0, 70, 112
1, 66999, Note_off_c, 0, 70, 112
1, 67049, Note_on_c, 0, 72, 115
1, 67224, Note_off_c, 0, 72, 115
1, 67235, Note_on_c, 0, 70, 113
1, 68175, Note_off_c, 0, 70, 113
1, 68223, Note_on_c, 0, 68, 112
1, 68337, Note_off_c, 0, 68, 112
1, 68345, Note_on_c, 0, 67, 112
1, 68575, Note_off_c, 0, 67, 112
1, 68586, Note_on_c, 0, 65, 111
1, 68724, Note_off_c, 0, 65, 111
1, 68771, Note_on_c, 0, 63, 117
1, 68980, Note_off_c, 0, 63, 117
1, 68996, Note_on_c, 0, 62, 114
1, 69153, Note_off_c, 0, 62, 114
1, 69184, Note_on_c, 0, 60, 101
1, 69305, Note_off_c, 0, 60, 101
1, 69331, Note_on_c, 0, 59, 105
1, 69408, Note_off_c, 0, 59, 105
1, 69420, Note_on_c, 0, 58, 111
1, 69777, Note_off_c, 0, 58, 111
1, 69827, Note_on_c, 0, 56, 105
1, 69953, Note_off_c, 0, 56, 105
1, 69976, Note_on_c, 0, 55, 114
1, 70091, Note_off_c, 0, 55, 114
1, 70164, Note_on_c, 0, 53, 103
1, 70338, Note_off_c, 0, 53, 103
1, 70366, Note_on_c, 0, 52, 95
1, 70746, Note_off_c, 0, 52, 95
1, 70764, Note_on_c, 0, 58, 112
1, 70994, Note_off_c, 0, 58, 112
1, 71014, Note_on_c, 0, 55, 104
1, 71162, Note_off_c, 0, 55, 104
1, 71217, Note_on_c, 0, 61, 117
1, 71470, Note_off_c, 0, 61, 117
1, 71489, Note_on_c, 0, 64, 104
1, 71607, Note_off_c, 0, 64, 104
1, 71620, Note_on_c, 0, 67, 116
1, 71883, Note_off_c, 0, 67, 116
1, 71934, Note_on_c, 0, 64, 104
1, 72102, Note_off_c, 0, 64, 104
1, 72116, Note_on_c, 0, 65, 111
1, 72369, Note_off_c, 0, 65, 111
1, 72410, Note_on_c, 0, 60, 108
1, 72548, Note_off_c, 0, 60, 108
1, 72548, Note_on_c, 0, 56, 95
1, 72674, Note_off_c, 0, 56, 95
1, 72777, Note_on_c, 0, 53, 97
1, 72938, Note_off_c, 0, 53, 97
1, 72949, Note_on_c, 0, 60, 116
1, 73352, Note_off_c, 0, 60, 116
1, 74458, Note_on_c, 0, 64, 120
1, 74677, Note_off_c, 0, 64, 120
1, 74698, Note_on_c, 0, 65, 115
1, 74998, Note_off_c, 0, 65, 115
1, 75008, Note_on_c, 0, 60, 95
1, 75150, Note_off_c, 0, 60, 95
1, 75164, Note_on_c, 0, 64, 118
1, 75442, Note_off_c, 0, 64, 118
1, 75475, Note_on_c, 0, 65, 113
1, 75627, Note_off_c, 0, 65, 113
1, 75650, Note_on_c, 0, 67, 112
1, 75768, Note_off_c, 0, 67, 112
1, 75798, Note_on_c, 0, 68, 112
1, 76017, Note_off_c, 0, 68, 112
1, 76035, Note_on_c, 0, 65, 110
1, 76185, Note_off_c, 0, 65, 110
1, 76232, Note_on_c, 0, 64, 113
1, 76395, Note_off_c, 0, 64, 113
1, 76415, Note_on_c, 0, 63, 118
1, 76592, Note_off_c, 0, 63, 118
1, 76610, Note_on_c, 0, 62, 113
1, 76817, Note_off_c, 0, 62, 113
1, 76835, Note_on_c, 0, 60, 100
1, 76996, Note_off_c, 0, 60, 100
1, 77033, Note_on_c, 0, 59, 107
1, 77136, Note_off_c, 0, 59, 107
1, 77172, Note_on_c, 0, 58, 105
1, 77310, Note_off_c, 0, 58, 105
1, 77321, Note_on_c, 0, 57, 109
1, 77517, Note_on_c, 0, 56, 103
1, 77517, Note_off_c, 0, 57, 109
1, 77667, Note_off_c, 0, 56, 103
1, 77736, Note_on_c, 0, 58, 111
1, 77878, Note_off_c, 0, 58, 111
1, 77914, Note_on_c, 0, 61, 111
1, 78045, Note_off_c, 0, 61, 111
1, 78081, Note_on_c, 0, 62, 116
1, 78207, Note_off_c, 0, 62, 116
1, 78234, Note_on_c, 0, 63, 119
1, 78402, Note_off_c, 0, 63, 119
1, 78423, Note_on_c, 0, 65, 110
1, 78596, Note_off_c, 0, 65, 110
1, 78633, Note_on_c, 0, 67, 113
1, 78778, Note_off_c, 0, 67, 113
1, 78815, Note_on_c, 0, 63, 110
1, 79103, Note_off_c, 0, 63, 110
1, 79299, Note_on_c, 0, 63, 116
1, 79564, Note_off_c, 0, 63, 116
1, 79733, Note_on_c, 0, 63, 116
1, 80345, Note_off_c, 0, 63, 116
1, 80470, Note_on_c, 0, 58, 107
1, 80579, Note_off_c, 0, 58, 107
1, 80611, Note_on_c, 0, 61, 114
1, 80841, Note_off_c, 0, 61, 114
1, 80841, Note_on_c, 0, 63, 122
1, 81302, Note_off_c, 0, 63, 122
1, 82745, Note_on_c, 0, 65, 117
1, 82982, Note_off_c, 0, 65, 117
1, 82997, Note_on_c, 0, 67, 112
1, 84254, Note_off_c, 0, 67, 112
1, 84285, Note_on_c, 0, 68, 118
1, 84515, Note_off_c, 0, 68, 118
1, 84633, Note_on_c, 0, 67, 111
1, 84863, Note_off_c, 0, 67, 111
1, 85106, Note_on_c, 0, 67, 111
1, 85348, Note_off_c, 0, 67, 111
1, 85521, Note_on_c, 0, 67, 113
1, 85786, Note_off_c, 0, 67, 113
1, 85820, Note_on_c, 0, 63, 117
1, 86120, Note_off_c, 0, 63, 117
1, 86304, Note_on_c, 0, 61, 115
1, 87042, Note_off_c, 0, 61, 115
1, 87042, Note_on_c, 0, 65, 112
1, 87434, Note_off_c, 0, 65, 112
1, 87503, Note_on_c, 0, 62, 117
1, 87664, Note_off_c, 0, 62, 117
1, 87675, Note_on_c, 0, 63, 114
1, 88700, Note_off_c, 0, 63, 114
1, 88728, Note_on_c, 0, 60, 114
1, 88901, Note_off_c, 0, 60, 114
1, 88988, Note_on_c, 0, 56, 107
1, 89172, Note_off_c, 0, 56, 107
1, 89218, Note_on_c, 0, 51, 112
1, 89518, Note_off_c, 0, 51, 112
1, 89575, Note_on_c, 0, 54, 109
1, 89817, Note_off_c, 0, 54, 109
1, 89817, Note_on_c, 0, 62, 116
1, 90163, Note_off_c, 0, 62, 116
1, 91917, Note_on_c, 0, 58, 113
1, 92159, Note_off_c, 0, 58, 113
1, 92159, Note_on_c, 0, 61, 115
1, 92435, Note_off_c, 0, 61, 115
1, 92435, Note_on_c, 0, 65, 115
1, 92608, Note_off_c, 0, 65, 115
1, 92723, Note_on_c, 0, 68, 114
1, 92988, Note_off_c, 0, 68, 114
1, 93067, Note_on_c, 0, 69, 116
1, 93209, Note_off_c, 0, 69, 116
1, 93235, Note_on_c, 0, 72, 118
1, 93437, Note_off_c, 0, 72, 118
1, 93494, Note_on_c, 0, 75, 110
1, 94578, Note_off_c, 0, 75, 110
1, 94578, Note_on_c, 0, 71, 96
1, 94762, Note_off_c, 0, 71, 96
1, 94946, Note_on_c, 0, 61, 100
1, 95176, Note_off_c, 0, 61, 100
1, 95649, Note_on_c, 0, 71, 102
1, 95822, Note_off_c, 0, 71, 102
1, 96052, Note_on_c, 0, 75, 115
1, 96559, Note_off_c, 0, 75, 115
1, 96570, Note_on_c, 0, 73, 110
1, 96812, Note_off_c, 0, 73, 110
1, 96892, Note_on_c, 0, 68, 117
1, 97115, Note_off_c, 0, 68, 117
1, 97115, Note_on_c, 0, 64, 115
1, 97311, Note_off_c, 0, 64, 115
1, 97325, Note_on_c, 0, 63, 114
1, 97625, Note_off_c, 0, 63, 114
1, 98627, Note_on_c, 0, 63, 121
1, 98828, Note_off_c, 0, 63, 121
1, 98868, Note_on_c, 0, 62, 117
1, 99071, Note_off_c, 0, 62, 117
1, 99096, Note_on_c, 0, 63, 119
1, 99263, Note_off_c, 0, 63, 119
1, 99299, Note_on_c, 0, 65, 111
1, 99449, Note_off_c, 0, 65, 111
1, 99506, Note_on_c, 0, 66, 110
1, 99725, Note_off_c, 0, 66, 110
1, 99805, Note_on_c, 0, 70, 114
1, 99955, Note_off_c, 0, 70, 114
1, 100012, Note_on_c, 0, 73, 115
1, 100312, Note_off_c, 0, 73, 115
1, 100335, Note_on_c, 0, 72, 107
1, 100600, Note_off_c, 0, 72, 107
1, 100703, Note_on_c, 0, 75, 111
1, 101787, Note_off_c, 0, 75, 111
1, 101833, Note_on_c, 0, 70, 106
1, 102133, Note_off_c, 0, 70, 106
1, 102159, Note_on_c, 0, 63, 118
1, 102401, Note_off_c, 0, 63, 118
1, 102720, Note_on_c, 0, 66, 109
1, 103181, Note_off_c, 0, 66, 109
1, 103181, Note_on_c, 0, 69, 116
1, 103527, Note_off_c, 0, 69, 116
1, 103708, Note_on_c, 0, 74, 114
1, 103869, Note_off_c, 0, 74, 114
1, 103886, Note_on_c, 0, 73, 118
1, 103985, Note_off_c, 0, 73, 118
1, 104000, Note_on_c, 0, 72, 115
1, 104109, Note_off_c, 0, 72, 115
1, 104134, Note_on_c, 0, 70, 114
1, 105334, Note_off_c, 0, 70, 114
1, 105367, Note_on_c, 0, 67, 116
1, 105563, Note_off_c, 0, 67, 116
1, 105570, Note_on_c, 0, 65, 114
1, 105730, Note_off_c, 0, 65, 114
1, 105746, Note_on_c, 0, 63, 119
1, 105930, Note_off_c, 0, 63, 119
1, 105997, Note_on_c, 0, 62, 118
1, 106216, Note_off_c, 0, 62, 118
1, 106333, Note_on_c, 0, 60, 107
1, 106829, Note_off_c, 0, 60, 107
1, 107971, Note_on_c, 0, 55, 113
1, 108201, Note_off_c, 0, 55, 113
1, 108215, Note_on_c, 0, 56, 109
1, 108385, Note_off_c, 0, 56, 109
1, 108385, Note_on_c, 0, 58, 108
1, 108615, Note_on_c, 0, 60, 109
1, 108615, Note_off_c, 0, 58, 108
1, 108834, Note_off_c, 0, 60, 109
1, 108845, Note_on_c, 0, 62, 112
1, 108983, Note_off_c, 0, 62, 112
1, 109016, Note_on_c, 0, 63, 116
1, 109223, Note_off_c, 0, 63, 116
1, 109264, Note_on_c, 0, 65, 115
1, 109471, Note_off_c, 0, 65, 115
1, 109626, Note_on_c, 0, 70, 118
1, 109949, Note_off_c, 0, 70, 118
1, 110052, Note_on_c, 0, 64, 104
1, 110236, Note_off_c, 0, 64, 104
1, 110270, Note_on_c, 0, 61, 115
1, 110466, Note_off_c, 0, 61, 115
1, 110466, Note_on_c, 0, 57, 110
1, 110569, Note_off_c, 0, 57, 110
1, 110575, Note_on_c, 0, 54, 101
1, 110851, Note_off_c, 0, 54, 101
1, 111698, Note_on_c, 0, 58, 111
1, 112021, Note_off_c, 0, 58, 111
1, 112297, Note_on_c, 0, 58, 115
1, 112481, Note_off_c, 0, 58, 115
1, 112515, Note_on_c, 0, 56, 107
1, 112722, Note_off_c, 0, 56, 107
1, 112756, Note_on_c, 0, 58, 108
1, 112901, Note_off_c, 0, 58, 108
1, 112919, Note_on_c, 0, 60, 107
1, 113092, Note_off_c, 0, 60, 107
1, 113125, Note_on_c, 0, 63, 111
1, 113283, Note_off_c, 0, 63, 111
1, 113309, Note_on_c, 0, 67, 119
1, 113452, Note_off_c, 0, 67, 119
1, 113468, Note_on_c, 0, 68, 111
1, 113534, Note_off_c, 0, 68, 111
1, 113552, Note_on_c, 0, 67, 113
1, 113611, Note_off_c, 0, 67, 113
1, 113616, Note_on_c, 0, 64, 120
1, 113916, Note_off_c, 0, 64, 120
1, 113927, Note_on_c, 0, 67, 113
1, 114061, Note_off_c, 0, 67, 113
1, 114089, Note_on_c, 0, 65, 113
1, 114221, Note_off_c, 0, 65, 113
1, 114854, Note_on_c, 0, 67, 117
1, 115084, Note_off_c, 0, 67, 117
1, 115095, Note_on_c, 0, 66, 112
1, 115210, Note_off_c, 0, 66, 112
1, 115261, Note_on_c, 0, 65, 112
1, 115468, Note_off_c, 0, 65, 112
1, 115486, Note_on_c, 0, 64, 116
1, 115659, Note_off_c, 0, 64, 116
1, 115679, Note_on_c, 0, 63, 119
1, 115925, Note_off_c, 0, 63, 119
1, 115968, Note_on_c, 0, 62, 112
1, 116120, Note_off_c, 0, 62, 112
1, 116137, Note_on_c, 0, 60, 105
1, 116383, Note_off_c, 0, 60, 105
1, 116416, Note_on_c, 0, 59, 105
1, 116658, Note_off_c, 0, 59, 105
1, 116698, Note_on_c, 0, 57, 103
1, 116871, Note_off_c, 0, 57, 103
1, 116940, Note_on_c, 0, 56, 97
1, 117136, Note_off_c, 0, 56, 97
1, 117170, Note_on_c, 0, 58, 106
1, 117423, Note_off_c, 0, 58, 106
1, 117441, Note_on_c, 0, 60, 96
1, 117579, Note_off_c, 0, 60, 96
1, 117594, Note_on_c, 0, 62, 116
1, 117767, Note_off_c, 0, 62, 116
1, 117813, Note_on_c, 0, 63, 121
1, 118020, Note_off_c, 0, 63, 121
1, 118053, Note_on_c, 0, 65, 115
1, 118243, Note_off_c, 0, 65, 115
1, 118282, Note_on_c, 0, 67, 115
1, 118393, Note_off_c, 0, 67, 115
1, 118402, Note_on_c, 0, 68, 113
1, 118577, Note_off_c, 0, 68, 113
1, 118594, Note_on_c, 0, 70, 119
1, 118859, Note_off_c, 0, 70, 119
1, 118926, Note_on_c, 0, 67, 103
1, 119048, Note_off_c, 0, 67, 103
1, 119072, Note_on_c, 0, 68, 114
1, 119177, Note_off_c, 0, 68, 114
1, 119218, Note_on_c, 0, 71, 107
1, 119362, Note_off_c, 0, 71, 107
1, 119420, Note_on_c, 0, 68, 114
1, 119570, Note_off_c, 0, 68, 114
1, 119592, Note_on_c, 0, 67, 9
1, 119772, Note_off_c, 0, 67, 9
1, 119787, Note_on_c, 0, 65, 9
1, 119983, Note_off_c, 0, 65, 9
1, 120040, Note_on_c, 0, 63, 118
1, 120270, Note_off_c, 0, 63, 118
1, 120304, Note_on_c, 0, 60, 106
1, 120442, Note_off_c, 0, 60, 106
1, 120465, Note_on_c, 0, 56, 102
1, 120615, Note_off_c, 0, 56, 102
1, 120643, Note_on_c, 0, 53, 103
1, 120775, Note_off_c, 0, 53, 103
1, 120831, Note_on_c, 0, 62, 120
1, 120957, Note_off_c, 0, 62, 120
1, 121026, Note_on_c, 0, 63, 123
1, 121201, Note_off_c, 0, 63, 123
1, 121241, Note_on_c, 0, 65, 113
1, 121404, Note_off_c, 0, 65, 113
1, 121441, Note_on_c, 0, 62, 102
1, 121614, Note_off_c, 0, 62, 102
1, 121648, Note_on_c, 0, 63, 125
1, 121890, Note_off_c, 0, 63, 125
1, 121901, Note_on_c, 0, 60, 109
1, 122051, Note_off_c, 0, 60, 109
1, 122065, Note_on_c, 0, 56, 111
1, 122268, Note_off_c, 0, 56, 111
1, 122285, Note_on_c, 0, 53, 110
1, 122419, Note_on_c, 0, 62, 112
1, 122419, Note_off_c, 0, 53, 110
1, 122753, Note_off_c, 0, 62, 112
1, 123249, Note_on_c, 0, 70, 120
1, 123514, Note_off_c, 0, 70, 120
1, 123514, Note_on_c, 0, 68, 118
1, 123617, Note_off_c, 0, 68, 118
1, 123651, Note_on_c, 0, 67, 114
1, 123812, Note_off_c, 0, 67, 114
1, 123904, Note_on_c, 0, 65, 114
1, 124111, Note_off_c, 0, 65, 114
1, 124134, Note_on_c, 0, 63, 113
1, 124341, Note_off_c, 0, 63, 113
1, 124617, Note_on_c, 0, 63, 117
1, 124963, Note_off_c, 0, 63, 117
1, 125041, Note_on_c, 0, 65, 108
1, 125140, Note_off_c, 0, 65, 108
1, 125146, Note_on_c, 0, 67, 110
1, 125375, Note_off_c, 0, 67, 110
1, 125400, Note_on_c, 0, 70, 117
1, 126369, Note_off_c, 0, 70, 117
1, 128146, Note_on_c, 0, 68, 120
1, 128319, Note_off_c, 0, 68, 120
1, 128330, Note_on_c, 0, 70, 117
1, 129610, Note_off_c, 0, 70, 117
1, 129621, Note_on_c, 0, 68, 102
1, 129817, Note_off_c, 0, 68, 102
1, 129874, Note_on_c, 0, 71, 121
1, 130070, Note_off_c, 0, 71, 121
1, 130070, Note_on_c, 0, 70, 113
1, 130254, Note_off_c, 0, 70, 113
1, 130277, Note_on_c, 0, 68, 116
1, 130634, Note_off_c, 0, 68, 116
1, 131586, Note_on_c, 0, 66, 118
1, 131701, Note_off_c, 0, 66, 118
1, 131724, Note_on_c, 0, 68, 116
1, 131863, Note_off_c, 0, 68, 116
1, 131878, Note_on_c, 0, 67, 113
1, 132016, Note_off_c, 0, 67, 113
1, 132049, Note_on_c, 0, 65, 116
1, 132141, Note_off_c, 0, 65, 116
1, 132246, Note_on_c, 0, 61, 113
1, 132442, Note_off_c, 0, 61, 113
1, 132522, Note_on_c, 0, 58, 110
1, 132729, Note_off_c, 0, 58, 110
1, 132740, Note_on_c, 0, 53, 97
1, 132901, Note_off_c, 0, 53, 97
1, 132958, Note_on_c, 0, 56, 110
1, 133154, Note_off_c, 0, 56, 110
1, 133187, Note_on_c, 0, 65, 95
1, 133338, Note_off_c, 0, 65, 95
1, 133358, Note_on_c, 0, 66, 103
1, 133484, Note_off_c, 0, 66, 103
1, 133521, Note_on_c, 0, 63, 120
1, 133763, Note_off_c, 0, 63, 120
1, 133773, Note_on_c, 0, 61, 113
1, 133969, Note_off_c, 0, 61, 113
1, 133981, Note_on_c, 0, 63, 117
1, 134200, Note_off_c, 0, 63, 117
1, 134217, Note_on_c, 0, 65, 109
1, 134424, Note_off_c, 0, 65, 109
1, 134441, Note_on_c, 0, 67, 112
1, 134510, Note_off_c, 0, 67, 112
1, 134533, Note_on_c, 0, 68, 112
1, 134717, Note_off_c, 0, 68, 112
1, 134763, Note_on_c, 0, 70, 101
1, 134947, Note_off_c, 0, 70, 101
1, 134970, Note_on_c, 0, 72, 116
1, 135166, Note_off_c, 0, 72, 116
1, 135166, Note_on_c, 0, 64, 103
1, 135489, Note_off_c, 0, 64, 103
1, 135500, Note_on_c, 0, 66, 103
1, 135719, Note_off_c, 0, 66, 103
1, 135721, Note_on_c, 0, 67, 110
1, 135860, Note_off_c, 0, 67, 110
1, 135894, Note_on_c, 0, 69, 109
1, 136042, Note_off_c, 0, 69, 109
1, 136095, Note_on_c, 0, 71, 122
1, 136295, Note_off_c, 0, 71, 122
1, 136326, Note_on_c, 0, 74, 112
1, 136522, Note_off_c, 0, 74, 112
1, 136537, Note_on_c, 0, 73, 115
1, 136671, Note_off_c, 0, 73, 115
1, 136699, Note_on_c, 0, 72, 109
1, 136765, Note_off_c, 0, 72, 109
1, 136796, Note_on_c, 0, 71, 118
1, 136920, Note_off_c, 0, 71, 118
1, 136945, Note_on_c, 0, 69, 115
1, 137233, Note_off_c, 0, 69, 115
1, 138225, Note_on_c, 0, 71, 114
1, 138369, Note_off_c, 0, 71, 114
1, 138406, Note_on_c, 0, 73, 108
1, 138478, Note_off_c, 0, 73, 108
1, 138512, Note_on_c, 0, 75, 113
1, 138938, Note_off_c, 0, 75, 113
1, 138951, Note_on_c, 0, 73, 115
1, 139182, Note_off_c, 0, 73, 115
1, 139224, Note_on_c, 0, 72, 117
1, 139353, Note_off_c, 0, 72, 117
1, 139381, Note_on_c, 0, 68, 103
1, 139575, Note_off_c, 0, 68, 103
1, 139604, Note_on_c, 0, 69, 114
1, 139823, Note_off_c, 0, 69, 114
1, 139834, Note_on_c, 0, 70, 115
1, 140018, Note_off_c, 0, 70, 115
1, 140061, Note_on_c, 0, 66, 103
1, 140209, Note_off_c, 0, 66, 103
1, 140340, Note_on_c, 0, 68, 110
1, 140490, Note_off_c, 0, 68, 110
1, 140490, Note_on_c, 0, 70, 116
1, 140663, Note_off_c, 0, 70, 116
1, 140720, Note_on_c, 0, 66, 115
1, 140858, Note_off_c, 0, 66, 115
1, 140927, Note_on_c, 0, 65, 112
1, 141088, Note_off_c, 0, 65, 112
1, 141099, Note_on_c, 0, 63, 112
1, 141295, Note_off_c, 0, 63, 112
1, 141364, Note_on_c, 0, 62, 105
1, 141456, Note_off_c, 0, 62, 105
1, 141502, Note_on_c, 0, 63, 102
1, 141675, Note_off_c, 0, 63, 102
1, 141675, Note_on_c, 0, 68, 120
1, 141894, Note_off_c, 0, 68, 120
1, 141894, Note_on_c, 0, 66, 107
1, 142113, Note_off_c, 0, 66, 107
1, 142124, Note_on_c, 0, 61, 112
1, 142389, Note_off_c, 0, 61, 112
1, 142410, Note_on_c, 0, 58, 95
1, 142580, Note_off_c, 0, 58, 95
1, 142585, Note_on_c, 0, 65, 113
1, 142853, Note_off_c, 0, 65, 113
1, 143194, Note_on_c, 0, 63, 120
1, 143401, Note_off_c, 0, 63, 120
1, 143435, Note_on_c, 0, 65, 112
1, 143585, Note_off_c, 0, 65, 112
1, 143596, Note_on_c, 0, 61, 114
1, 143746, Note_off_c, 0, 61, 114
1, 143769, Note_on_c, 0, 63, 113
1, 143965, Note_off_c, 0, 63, 113
1, 143999, Note_on_c, 0, 65, 100
1, 144160, Note_off_c, 0, 65, 100
1, 144183, Note_on_c, 0, 71, 118
1, 144321, Note_off_c, 0, 71, 118
1, 144325, Note_on_c, 0, 70, 118
1, 144544, Note_off_c, 0, 70, 118
1, 144550, Note_on_c, 0, 68, 115
1, 144676, Note_off_c, 0, 68, 115
1, 144748, Note_on_c, 0, 67, 109
1, 144900, Note_off_c, 0, 67, 109
1, 144924, Note_on_c, 0, 65, 114
1, 145108, Note_off_c, 0, 65, 114
1, 145136, Note_on_c, 0, 63, 117
1, 145309, Note_off_c, 0, 63, 117
1, 145330, Note_on_c, 0, 62, 113
1, 145468, Note_off_c, 0, 62, 113
1, 145479, Note_on_c, 0, 60, 109
1, 145652, Note_off_c, 0, 60, 109
1, 145708, Note_on_c, 0, 59, 110
1, 145811, Note_off_c, 0, 59, 110
1, 145858, Note_on_c, 0, 58, 114
1, 146019, Note_off_c, 0, 58, 114
1, 146122, Note_on_c, 0, 56, 109
1, 146260, Note_off_c, 0, 56, 109
1, 146294, Note_on_c, 0, 55, 110
1, 146420, Note_off_c, 0, 55, 110
1, 146474, Note_on_c, 0, 53, 105
1, 146635, Note_off_c, 0, 53, 105
1, 146649, Note_on_c, 0, 51, 112
1, 147006, Note_off_c, 0, 51, 112
1, 147144, Note_on_c, 0, 58, 105
1, 147455, Note_off_c, 0, 58, 105
1, 147501, Note_on_c, 0, 61, 114
1, 147766, Note_off_c, 0, 61, 114
1, 147766, Note_on_c, 0, 62, 116
1, 147934, Note_off_c, 0, 62, 116
1, 147934, Note_on_c, 0, 65, 108
1, 148176, Note_off_c, 0, 65, 108
1, 148187, Note_on_c, 0, 62, 115
1, 148362, Note_off_c, 0, 62, 115
1, 148409, Note_on_c, 0, 63, 119
1, 148602, Note_off_c, 0, 63, 119
1, 148633, Note_on_c, 0, 65, 109
1, 148783, Note_off_c, 0, 65, 109
1, 148845, Note_on_c, 0, 67, 91
1, 148908, Note_off_c, 0, 67, 91
1, 149052, Note_on_c, 0, 70, 116
1, 149187, Note_off_c, 0, 70, 116
1, 149238, Note_on_c, 0, 74, 119
1, 149452, Note_off_c, 0, 74, 119
1, 149472, Note_on_c, 0, 73, 117
1, 149564, Note_off_c, 0, 73, 117
1, 149587, Note_on_c, 0, 72, 114
1, 149651, Note_off_c, 0, 72, 114
1, 149661, Note_on_c, 0, 70, 117
1, 149891, Note_off_c, 0, 70, 117
1, 149914, Note_on_c, 0, 67, 104
1, 150087, Note_off_c, 0, 67, 104
1, 150098, Note_on_c, 0, 73, 116
1, 150201, Note_off_c, 0, 73, 116
1, 150212, Note_on_c, 0, 74, 118
1, 150442, Note_off_c, 0, 74, 118
1, 150451, Note_on_c, 0, 73, 116
1, 150539, Note_off_c, 0, 73, 116
1, 150567, Note_on_c, 0, 71, 119
1, 150740, Note_off_c, 0, 71, 119
1, 150798, Note_on_c, 0, 69, 115
1, 150948, Note_off_c, 0, 69, 115
1, 151012, Note_on_c, 0, 68, 116
1, 151179, Note_off_c, 0, 68, 116
1, 151221, Note_on_c, 0, 66, 109
1, 151382, Note_off_c, 0, 66, 109
1, 151551, Note_on_c, 0, 60, 95
1, 151689, Note_off_c, 0, 60, 95
1, 151781, Note_on_c, 0, 72, 107
1, 151961, Note_off_c, 0, 72, 107
1, 152050, Note_on_c, 0, 68, 101
1, 152167, Note_off_c, 0, 68, 101
1, 152205, Note_on_c, 0, 65, 109
1, 152411, Note_off_c, 0, 65, 109
1, 152437, Note_on_c, 0, 61, 97
1, 152575, Note_off_c, 0, 61, 97
1, 152590, Note_on_c, 0, 64, 117
1, 152855, Note_off_c, 0, 64, 117
1, 152908, Note_on_c, 0, 60, 101
1, 153034, Note_off_c, 0, 60, 101
1, 153103, Note_on_c, 0, 63, 103
1, 153287, Note_off_c, 0, 63, 103
1, 153301, Note_on_c, 0, 60, 97
1, 153386, Note_off_c, 0, 60, 97
1, 154556, Note_on_c, 0, 67, 120
1, 154673, Note_off_c, 0, 67, 120
1, 154744, Note_on_c, 0, 68, 118
1, 154936, Note_off_c, 0, 68, 118
1, 154957, Note_on_c, 0, 64, 113
1, 155105, Note_off_c, 0, 64, 113
1, 155133, Note_on_c, 0, 66, 112
1, 155352, Note_off_c, 0, 66, 112
1, 155363, Note_on_c, 0, 65, 115
1, 155559, Note_off_c, 0, 65, 115
1, 155559, Note_on_c, 0, 64, 119
1, 155824, Note_off_c, 0, 64, 119
1, 155835, Note_on_c, 0, 65, 113
1, 155950, Note_off_c, 0, 65, 113
1, 156006, Note_on_c, 0, 64, 122
1, 156255, Note_off_c, 0, 64, 122
1, 156299, Note_on_c, 0, 66, 108
1, 156405, Note_off_c, 0, 66, 108
1, 156451, Note_on_c, 0, 64, 109
1, 156615, Note_off_c, 0, 64, 109
1, 156651, Note_on_c, 0, 63, 118
1, 156789, Note_off_c, 0, 63, 118
1, 156812, Note_on_c, 0, 62, 118
1, 156962, Note_on_c, 0, 64, 107
1, 156962, Note_off_c, 0, 62, 118
1, 157065, Note_off_c, 0, 64, 107
1, 157111, Note_on_c, 0, 66, 105
1, 157203, Note_off_c, 0, 66, 105
1, 157237, Note_on_c, 0, 69, 109
1, 157294, Note_off_c, 0, 69, 109
1, 157294, Note_on_c, 0, 73, 118
1, 157570, Note_off_c, 0, 73, 118
1, 157593, Note_on_c, 0, 71, 120
1, 157777, Note_off_c, 0, 71, 120
1, 157788, Note_on_c, 0, 70, 114
1, 158018, Note_off_c, 0, 70, 114
1, 158041, Note_on_c, 0, 68, 116
1, 158144, Note_off_c, 0, 68, 116
1, 158190, Note_on_c, 0, 67, 112
1, 158409, Note_off_c, 0, 67, 112
1, 158443, Note_on_c, 0, 65, 116
1, 158604, Note_off_c, 0, 65, 116
1, 158642, Note_on_c, 0, 63, 121
1, 158817, Note_off_c, 0, 63, 121
1, 158855, Note_on_c, 0, 65, 102
1, 159085, Note_off_c, 0, 65, 102
1, 159230, Note_on_c, 0, 70, 90
1, 159345, Note_off_c, 0, 70, 90
1, 159472, Note_on_c, 0, 75, 124
1, 160942, Note_off_c, 0, 75, 124
1, 160988, Note_on_c, 0, 70, 105
1, 161126, Note_off_c, 0, 70, 105
1, 161178, Note_on_c, 0, 72, 118
1, 161397, Note_off_c, 0, 72, 118
1, 161435, Note_on_c, 0, 70, 115
1, 161758, Note_off_c, 0, 70, 115
1, 162776, Note_on_c, 0, 69, 99
1, 162960, Note_off_c, 0, 69, 99
1, 162991, Note_on_c, 0, 73, 116
1, 163487, Note_off_c, 0, 73, 116
1, 163512, Note_on_c, 0, 71, 120
1, 163650, Note_off_c, 0, 71, 120
1, 163681, Note_on_c, 0, 70, 114
1, 163854, Note_off_c, 0, 70, 114
1, 163911, Note_on_c, 0, 68, 116
1, 164026, Note_off_c, 0, 68, 116
1, 164184, Note_on_c, 0, 67, 112
1, 164391, Note_off_c, 0, 67, 112
1, 164405, Note_on_c, 0, 65, 114
1, 164508, Note_off_c, 0, 65, 114
1, 164554, Note_on_c, 0, 63, 116
1, 164738, Note_off_c, 0, 63, 116
1, 164841, Note_on_c, 0, 58, 91
1, 164933, Note_off_c, 0, 58, 91
1, 165013, Note_on_c, 0, 63, 107
1, 165232, Note_off_c, 0, 63, 107
1, 165382, Note_on_c, 0, 67, 119
1, 165532, Note_off_c, 0, 67, 119
1, 165589, Note_on_c, 0, 68, 117
1, 165750, Note_off_c, 0, 68, 117
1, 165773, Note_on_c, 0, 65, 106
1, 165946, Note_off_c, 0, 65, 106
1, 166026, Note_on_c, 0, 61, 112
1, 166222, Note_off_c, 0, 61, 112
1, 166222, Note_on_c, 0, 58, 112
1, 166452, Note_off_c, 0, 58, 112
1, 166763, Note_on_c, 0, 56, 108
1, 167039, Note_off_c, 0, 56, 108
1, 167096, Note_on_c, 0, 55, 111
1, 167280, Note_off_c, 0, 55, 111
1, 167337, Note_on_c, 0, 63, 123
1, 167637, Note_off_c, 0, 63, 123
1, 168006, Note_on_c, 0, 60, 117
1, 168156, Note_off_c, 0, 60, 117
1, 168171, Note_on_c, 0, 61, 112
1, 168231, Note_off_c, 0, 61, 112
1, 168277, Note_on_c, 0, 62, 118
1, 168382, Note_off_c, 0, 62, 118
1, 168400, Note_on_c, 0, 63, 120
1, 168646, Note_off_c, 0, 63, 120
1, 168725, Note_on_c, 0, 65, 117
1, 168906, Note_off_c, 0, 65, 117
1, 168943, Note_on_c, 0, 66, 112
1, 169108, Note_off_c, 0, 66, 112
1, 169120, Note_on_c, 0, 68, 106
1, 169304, Note_off_c, 0, 68, 106
1, 169337, Note_on_c, 0, 70, 120
1, 170248, Note_off_c, 0, 70, 120
1, 170294, Note_on_c, 0, 71, 119
1, 170490, Note_off_c, 0, 71, 119
1, 170501, Note_on_c, 0, 70, 115
1, 170731, Note_off_c, 0, 70, 115
1, 170777, Note_on_c, 0, 66, 114
1, 170938, Note_off_c, 0, 66, 114
1, 170961, Note_on_c, 0, 63, 115
1, 171249, Note_off_c, 0, 63, 115
1, 172737, Note_on_c, 0, 65, 119
1, 172933, Note_off_c, 0, 65, 119
1, 172979, Note_on_c, 0, 67, 115
1, 173613, Note_off_c, 0, 67, 115
1, 173613, Note_on_c, 0, 63, 121
1, 173739, Note_off_c, 0, 63, 121
1, 173808, Note_on_c, 0, 67, 115
1, 173992, Note_off_c, 0, 67, 115
1, 174026, Note_on_c, 0, 68, 120
1, 174164, Note_off_c, 0, 68, 120
1, 174233, Note_on_c, 0, 65, 104
1, 174325, Note_off_c, 0, 65, 104
1, 174336, Note_on_c, 0, 68, 106
1, 174462, Note_off_c, 0, 68, 106
1, 174475, Note_on_c, 0, 69, 115
1, 174631, Note_off_c, 0, 69, 115
1, 174669, Note_on_c, 0, 72, 118
1, 174842, Note_off_c, 0, 72, 118
1, 174853, Note_on_c, 0, 70, 113
1, 175083, Note_off_c, 0, 70, 113
1, 175106, Note_on_c, 0, 69, 113
1, 175452, Note_off_c, 0, 69, 113
1, 175463, Note_on_c, 0, 67, 113
1, 175647, Note_off_c, 0, 67, 113
1, 175762, Note_on_c, 0, 65, 113
1, 175877, Note_off_c, 0, 65, 113
1, 175923, Note_on_c, 0, 61, 112
1, 176142, Note_off_c, 0, 61, 112
1, 176208, Note_on_c, 0, 58, 100
1, 176313, Note_off_c, 0, 58, 100
1, 176440, Note_on_c, 0, 61, 115
1, 176716, Note_off_c, 0, 61, 115
1, 176716, Note_on_c, 0, 63, 114
1, 176923, Note_off_c, 0, 63, 114
1, 177003, Note_on_c, 0, 65, 108
1, 177153, Note_off_c, 0, 65, 108
1, 177176, Note_on_c, 0, 66, 107
1, 177279, Note_off_c, 0, 66, 107
1, 177279, Note_on_c, 0, 69, 102
1, 177536, Note_off_c, 0, 69, 102
1, 177567, Note_on_c, 0, 75, 114
1, 178801, Note_off_c, 0, 75, 114
1, 178881, Note_on_c, 0, 73, 117
1, 179111, Note_off_c, 0, 73, 117
1, 179111, Note_on_c, 0, 72, 116
1, 179330, Note_off_c, 0, 72, 116
1, 179387, Note_on_c, 0, 68, 114
1, 179537, Note_off_c, 0, 68, 114
1, 179813, Note_on_c, 0, 68, 113
1, 180055, Note_off_c, 0, 68, 113
1, 180089, Note_on_c, 0, 72, 94
1, 180319, Note_off_c, 0, 72, 94
1, 180411, Note_on_c, 0, 70, 108
1, 181565, Note_off_c, 0, 70, 108
1, 182880, Note_on_c, 0, 68, 118
1, 182995, Note_off_c, 0, 68, 118
1, 182995, Note_on_c, 0, 70, 119
1, 183421, Note_off_c, 0, 70, 119
1, 183545, Note_on_c, 0, 72, 114
1, 183636, Note_off_c, 0, 72, 114
1, 183662, Note_on_c, 0, 73, 114
1, 183822, Note_off_c, 0, 73, 114
1, 183869, Note_on_c, 0, 72, 116
1, 183972, Note_off_c, 0, 72, 116
1, 183989, Note_on_c, 0, 71, 116
1, 184058, Note_off_c, 0, 71, 116
1, 184098, Note_on_c, 0, 70, 111
1, 184386, Note_off_c, 0, 70, 111
1, 184386, Note_on_c, 0, 66, 112
1, 184559, Note_off_c, 0, 66, 112
1, 184639, Note_on_c, 0, 65, 113
1, 184777, Note_off_c, 0, 65, 113
1, 184811, Note_on_c, 0, 62, 103
1, 185007, Note_off_c, 0, 62, 103
1, 185053, Note_on_c, 0, 65, 118
1, 185272, Note_off_c, 0, 65, 118
1, 185272, Note_on_c, 0, 62, 104
1, 185502, Note_off_c, 0, 62, 104
1, 185502, Note_on_c, 0, 63, 105
1, 185732, Note_off_c, 0, 63, 105
1, 185743, Note_on_c, 0, 65, 107
1, 185881, Note_off_c, 0, 65, 107
1, 185904, Note_on_c, 0, 67, 118
1, 186100, Note_off_c, 0, 67, 118
1, 186111, Note_on_c, 0, 63, 107
1, 186307, Note_off_c, 0, 63, 107
1, 186364, Note_on_c, 0, 65, 107
1, 186548, Note_off_c, 0, 65, 107
1, 186559, Note_on_c, 0, 67, 106
1, 186685, Note_off_c, 0, 67, 106
1, 186731, Note_on_c, 0, 68, 113
1, 186938, Note_off_c, 0, 68, 113
1, 187045, Note_on_c, 0, 68, 112
1, 187140, Note_off_c, 0, 68, 112
1, 187145, Note_on_c, 0, 71, 107
1, 187248, Note_off_c, 0, 71, 107
1, 187282, Note_on_c, 0, 72, 110
1, 187443, Note_off_c, 0, 72, 110
1, 187523, Note_on_c, 0, 70, 116
1, 187753, Note_off_c, 0, 70, 116
1, 187753, Note_on_c, 0, 67, 116
1, 187983, Note_off_c, 0, 67, 116
1, 187983, Note_on_c, 0, 63, 121
1, 188225, Note_off_c, 0, 63, 121
1, 188237, Note_on_c, 0, 60, 100
1, 188382, Note_off_c, 0, 60, 100
1, 188408, Note_on_c, 0, 67, 117
1, 188650, Note_off_c, 0, 67, 117
1, 188650, Note_on_c, 0, 65, 106
1, 188846, Note_off_c, 0, 65, 106
1, 188857, Note_on_c, 0, 62, 113
1, 189087, Note_off_c, 0, 62, 113
1, 189087, Note_on_c, 0, 58, 96
1, 189363, Note_off_c, 0, 58, 96
1, 189363, Note_on_c, 0, 61, 115
1, 189582, Note_off_c, 0, 61, 115
1, 189639, Note_on_c, 0, 63, 119
1, 190712, Note_off_c, 0, 63, 119
1, 190723, Note_on_c, 0, 61, 105
1, 190861, Note_off_c, 0, 61, 105
1, 190861, Note_on_c, 0, 63, 121
1, 191045, Note_off_c, 0, 63, 121
1, 191114, Note_on_c, 0, 61, 111
1, 191298, Note_off_c, 0, 61, 111
1, 191344, Note_on_c, 0, 59, 110
1, 191551, Note_off_c, 0, 59, 110
1, 191562, Note_on_c, 0, 54, 111
1, 191769, Note_off_c, 0, 54, 111
1, 191802, Note_on_c, 0, 53, 107
1, 192010, Note_off_c, 0, 53, 107
1, 192067, Note_on_c, 0, 55, 110
1, 192182, Note_off_c, 0, 55, 110
1, 192185, Note_on_c, 0, 56, 104
1, 192329, Note_off_c, 0, 56, 104
1, 192343, Note_on_c, 0, 58, 98
1, 192527, Note_off_c, 0, 58, 98
1, 192596, Note_on_c, 0, 60, 114
1, 192746, Note_off_c, 0, 60, 114
1, 192815, Note_on_c, 0, 62, 114
1, 193034, Note_off_c, 0, 62, 114
1, 193080, Note_on_c, 0, 63, 102
1, 193230, Note_off_c, 0, 63, 102
1, 193321, Note_on_c, 0, 65, 103
1, 193407, Note_off_c, 0, 65, 103
1, 193425, Note_on_c, 0, 67, 114
1, 193678, Note_off_c, 0, 67, 114
1, 193701, Note_on_c, 0, 70, 114
1, 193862, Note_off_c, 0, 70, 114
1, 193873, Note_on_c, 0, 68, 114
1, 194046, Note_off_c, 0, 68, 114
1, 194115, Note_on_c, 0, 63, 115
1, 194334, Note_off_c, 0, 63, 115
1, 194362, Note_on_c, 0, 67, 118
1, 194560, Note_off_c, 0, 67, 118
1, 194601, Note_on_c, 0, 65, 114
1, 194828, Note_off_c, 0, 65, 114
1, 196293, Note_on_c, 0, 72, 124
1, 196419, Note_off_c, 0, 72, 124
1, 196437, Note_on_c, 0, 73, 113
1, 196662, Note_off_c, 0, 73, 113
1, 196695, Note_on_c, 0, 71, 121
1, 196856, Note_off_c, 0, 71, 121
1, 196879, Note_on_c, 0, 70, 116
1, 197086, Note_off_c, 0, 70, 116
1, 197155, Note_on_c, 0, 66, 113
1, 197328, Note_off_c, 0, 66, 113
1, 197342, Note_on_c, 0, 63, 120
1, 197526, Note_off_c, 0, 63, 120
1, 197550, Note_on_c, 0, 59, 97
1, 197691, Note_off_c, 0, 59, 97
1, 197776, Note_on_c, 0, 65, 114
1, 197995, Note_off_c, 0, 65, 114
1, 198032, Note_on_c, 0, 61, 113
1, 198226, Note_off_c, 0, 61, 113
1, 198282, Note_on_c, 0, 56, 109
1, 198426, Note_off_c, 0, 56, 109
1, 198478, Note_on_c, 0, 53, 116
1, 198607, Note_off_c, 0, 53, 116
1, 198625, Note_on_c, 0, 61, 115
1, 198832, Note_off_c, 0, 61, 115
1, 198855, Note_on_c, 0, 62, 115
1, 199051, Note_off_c, 0, 62, 115
1, 199051, Note_on_c, 0, 65, 113
1, 199263, Note_off_c, 0, 65, 113
1, 199294, Note_on_c, 0, 62, 110
1, 199442, Note_off_c, 0, 62, 110
1, 199474, Note_on_c, 0, 63, 120
1, 199612, Note_off_c, 0, 63, 120
1, 199706, Note_on_c, 0, 65, 117
1, 199845, Note_off_c, 0, 65, 117
1, 200062, Note_on_c, 0, 70, 98
1, 200177, Note_off_c, 0, 70, 98
1, 200361, Note_on_c, 0, 75, 118
1, 200568, Note_off_c, 0, 75, 118
1, 200752, Note_on_c, 0, 75, 127
1, 200959, Note_off_c, 0, 75, 127
1, 201039, Note_on_c, 0, 70, 102
1, 201177, Note_off_c, 0, 70, 102
1, 201227, Note_on_c, 0, 71, 122
1, 201353, Note_off_c, 0, 71, 122
1, 201487, Note_on_c, 0, 71, 118
1, 201671, Note_off_c, 0, 71, 118
1, 201717, Note_on_c, 0, 70, 118
1, 201924, Note_off_c, 0, 70, 118
1, 202727, Note_on_c, 0, 69, 122
1, 202836, Note_off_c, 0, 69, 122
1, 202870, Note_on_c, 0, 70, 113
1, 202943, Note_off_c, 0, 70, 113
1, 202976, Note_on_c, 0, 72, 116
1, 203075, Note_off_c, 0, 72, 116
1, 203086, Note_on_c, 0, 74, 118
1, 203362, Note_off_c, 0, 74, 118
1, 203362, Note_on_c, 0, 73, 100
1, 203419, Note_off_c, 0, 73, 100
1, 203419, Note_on_c, 0, 72, 120
1, 203545, Note_off_c, 0, 72, 120
1, 203545, Note_on_c, 0, 71, 119
1, 203637, Note_off_c, 0, 71, 119
1, 203637, Note_on_c, 0, 70, 120
1, 203821, Note_off_c, 0, 70, 120
1, 203867, Note_on_c, 0, 69, 119
1, 204063, Note_off_c, 0, 69, 119
1, 204097, Note_on_c, 0, 68, 116
1, 204212, Note_off_c, 0, 68, 116
1, 204327, Note_on_c, 0, 67, 115
1, 204477, Note_off_c, 0, 67, 115
1, 204557, Note_on_c, 0, 65, 111
1, 204799, Note_off_c, 0, 65, 111
1, 204822, Note_on_c, 0, 63, 115
1, 205018, Note_off_c, 0, 63, 115
1, 205041, Note_on_c, 0, 62, 111
1, 205202, Note_off_c, 0, 62, 111
1, 205213, Note_on_c, 0, 60, 115
1, 205420, Note_off_c, 0, 60, 115
1, 205431, Note_on_c, 0, 58, 110
1, 205650, Note_off_c, 0, 58, 110
1, 205742, Note_on_c, 0, 63, 119
1, 206007, Note_off_c, 0, 63, 119
1, 206007, Note_on_c, 0, 67, 115
1, 206249, Note_off_c, 0, 67, 115
1, 206416, Note_on_c, 0, 69, 119
1, 206542, Note_off_c, 0, 69, 119
1, 206570, Note_on_c, 0, 70, 115
1, 208231, Note_off_c, 0, 70, 115
1, 208265, Note_on_c, 0, 69, 106
1, 208426, Note_off_c, 0, 69, 106
1, 208483, Note_on_c, 0, 63, 114
1, 208794, Note_off_c, 0, 63, 114
1, 208794, Note_on_c, 0, 66, 108
1, 209059, Note_off_c, 0, 66, 108
1, 209151, Note_on_c, 0, 68, 117
1, 209312, Note_off_c, 0, 68, 117
1, 209346, Note_on_c, 0, 70, 116
1, 209669, Note_off_c, 0, 70, 116
1, 209795, Note_on_c, 0, 70, 111
1, 210256, Note_off_c, 0, 70, 111
1, 210333, Note_on_c, 0, 58, 106
1, 210477, Note_off_c, 0, 58, 106
1, 210511, Note_on_c, 0, 63, 123
1, 210662, Note_off_c, 0, 63, 123
1, 210673, Note_on_c, 0, 66, 111
1, 210779, Note_off_c, 0, 66, 111
1, 210794, Note_on_c, 0, 68, 118
1, 211013, Note_off_c, 0, 68, 118
1, 211013, Note_on_c, 0, 70, 123
1, 211509, Note_off_c, 0, 70, 123
1, 212605, Note_on_c, 0, 58, 110
1, 212812, Note_off_c, 0, 58, 110
1, 212812, Note_on_c, 0, 63, 123
1, 212996, Note_off_c, 0, 63, 123
1, 213065, Note_on_c, 0, 66, 112
1, 213307, Note_off_c, 0, 66, 112
1, 213410, Note_on_c, 0, 69, 123
1, 213594, Note_on_c, 0, 71, 116
1, 213594, Note_off_c, 0, 69, 123
1, 213709, Note_off_c, 0, 71, 116
1, 213709, Note_on_c, 0, 73, 121
1, 214482, Note_off_c, 0, 73, 121
1, 214503, Note_on_c, 0, 72, 109
1, 214550, Note_off_c, 0, 72, 109
1, 214577, Note_on_c, 0, 70, 122
1, 214742, Note_off_c, 0, 70, 122
1, 214756, Note_on_c, 0, 68, 112
1, 214894, Note_off_c, 0, 68, 112
1, 214919, Note_on_c, 0, 66, 104
1, 215086, Note_off_c, 0, 66, 104
1, 215135, Note_on_c, 0, 70, 124
1, 215573, Note_off_c, 0, 70, 124
1, 215573, Note_on_c, 0, 63, 121
1, 215942, Note_off_c, 0, 63, 121
1, 216380, Note_on_c, 0, 66, 115
1, 216599, Note_off_c, 0, 66, 115
1, 216601, Note_on_c, 0, 68, 118
1, 216740, Note_off_c, 0, 68, 118
1, 216754, Note_on_c, 0, 67, 111
1, 216823, Note_off_c, 0, 67, 111
1, 216841, Note_on_c, 0, 65, 115
1, 216979, Note_off_c, 0, 65, 115
1, 217022, Note_on_c, 0, 61, 113
1, 217195, Note_off_c, 0, 61, 113
1, 217275, Note_on_c, 0, 59, 101
1, 217367, Note_off_c, 0, 59, 101
1, 217413, Note_on_c, 0, 58, 96
1, 217563, Note_off_c, 0, 58, 96
1, 217669, Note_on_c, 0, 63, 123
1, 217872, Note_off_c, 0, 63, 123
1, 217919, Note_on_c, 0, 66, 111
1, 218115, Note_off_c, 0, 66, 111
1, 218115, Note_on_c, 0, 67, 111
1, 218230, Note_off_c, 0, 67, 111
1, 218230, Note_on_c, 0, 71, 116
1, 218449, Note_off_c, 0, 71, 116
1, 218506, Note_on_c, 0, 64, 122
1, 218725, Note_off_c, 0, 64, 122
1, 218805, Note_on_c, 0, 67, 105
1, 218978, Note_off_c, 0, 67, 105
1, 218989, Note_on_c, 0, 71, 116
1, 219115, Note_off_c, 0, 71, 116
1, 219207, Note_on_c, 0, 61, 115
1, 219483, Note_off_c, 0, 61, 115
1, 220152, Note_on_c, 0, 60, 97
1, 220302, Note_off_c, 0, 60, 97
1, 220340, Note_on_c, 0, 61, 118
1, 220490, Note_off_c, 0, 61, 118
1, 220531, Note_on_c, 0, 63, 117
1, 220911, Note_off_c, 0, 63, 117
1, 220945, Note_on_c, 0, 65, 110
1, 221106, Note_off_c, 0, 65, 110
1, 221140, Note_on_c, 0, 66, 111
1, 221278, Note_off_c, 0, 66, 111
1, 221347, Note_on_c, 0, 68, 110
1, 221473, Note_off_c, 0, 68, 110
1, 221669, Note_on_c, 0, 70, 117
1, 221819, Note_off_c, 0, 70, 117
1, 221899, Note_on_c, 0, 73, 114
1, 222152, Note_off_c, 0, 73, 114
1, 222382, Note_on_c, 0, 77, 113
1, 222612, Note_off_c, 0, 77, 113
1, 222646, Note_on_c, 0, 75, 109
1, 222888, Note_off_c, 0, 75, 109
1, 223084, Note_on_c, 0, 70, 121
1, 223453, Note_off_c, 0, 70, 121
1, 223683, Note_on_c, 0, 70, 122
1, 223890, Note_off_c, 0, 70, 122
1, 223993, Note_on_c, 0, 70, 116
1, 224177, Note_off_c, 0, 70, 116
1, 224257, Note_on_c, 0, 71, 120
1, 224372, Note_off_c, 0, 71, 120
1, 224406, Note_on_c, 0, 70, 116
1, 224532, Note_off_c, 0, 70, 116
1, 224543, Note_on_c, 0, 68, 107
1, 224669, Note_off_c, 0, 68, 107
1, 224669, Note_on_c, 0, 66, 110
1, 224842, Note_on_c, 0, 61, 103
1, 224842, Note_off_c, 0, 66, 110
1, 224992, Note_off_c, 0, 61, 103
1, 225015, Note_on_c, 0, 58, 101
1, 225176, Note_off_c, 0, 58, 101
1, 225187, Note_on_c, 0, 66, 113
1, 225360, Note_off_c, 0, 66, 113
1, 225360, Note_on_c, 0, 68, 116
1, 226133, Note_off_c, 0, 68, 116
1, 226213, Note_on_c, 0, 66, 114
1, 226420, Note_off_c, 0, 66, 114
1, 226420, Note_on_c, 0, 63, 110
1, 226766, Note_off_c, 0, 63, 110
1, 226812, Note_on_c, 0, 67, 114
1, 227412, Note_off_c, 0, 67, 114
1, 227412, Note_on_c, 0, 63, 104
1, 227596, Note_off_c, 0, 63, 104
1, 227596, Note_on_c, 0, 65, 109
1, 227711, Note_off_c, 0, 65, 109
1, 227711, Note_on_c, 0, 67, 117
1, 227826, Note_off_c, 0, 67, 117
1, 227860, Note_on_c, 0, 68, 114
1, 228021, Note_off_c, 0, 68, 114
1, 228021, Note_on_c, 0, 65, 104
1, 228124, Note_off_c, 0, 65, 104
1, 228147, Note_on_c, 0, 68, 113
1, 228354, Note_off_c, 0, 68, 113
1, 228365, Note_on_c, 0, 72, 113
1, 228503, Note_off_c, 0, 72, 113
1, 228503, Note_on_c, 0, 70, 117
1, 228895, Note_off_c, 0, 70, 117
1, 228918, Note_on_c, 0, 67, 115
1, 229391, Note_off_c, 0, 67, 115
1, 230748, Note_on_c, 0, 74, 119
1, 230902, Note_off_c, 0, 74, 119
1, 230929, Note_on_c, 0, 73, 120
1, 231033, Note_off_c, 0, 73, 120
1, 231038, Note_on_c, 0, 72, 114
1, 231142, Note_off_c, 0, 72, 114
1, 231188, Note_on_c, 0, 70, 116
1, 231464, Note_off_c, 0, 70, 116
1, 231464, Note_on_c, 0, 67, 117
1, 231614, Note_off_c, 0, 67, 117
1, 231671, Note_on_c, 0, 66, 109
1, 231867, Note_off_c, 0, 66, 109
1, 231867, Note_on_c, 0, 73, 105
1, 232005, Note_off_c, 0, 73, 105
1, 232097, Note_on_c, 0, 69, 111
1, 232214, Note_off_c, 0, 69, 111
1, 232232, Note_on_c, 0, 66, 104
1, 232370, Note_off_c, 0, 66, 104
1, 232418, Note_on_c, 0, 63, 109
1, 232579, Note_off_c, 0, 63, 109
1, 232613, Note_on_c, 0, 65, 113
1, 232913, Note_off_c, 0, 65, 113
1, 232924, Note_on_c, 0, 63, 101
1, 233085, Note_off_c, 0, 63, 101
1, 233096, Note_on_c, 0, 64, 120
1, 233361, Note_off_c, 0, 64, 120
1, 233407, Note_on_c, 0, 62, 105
1, 233533, Note_off_c, 0, 62, 105
1, 233544, Note_on_c, 0, 63, 115
1, 233682, Note_off_c, 0, 63, 115
1, 233751, Note_on_c, 0, 72, 110
1, 233947, Note_off_c, 0, 72, 110
1, 233970, Note_on_c, 0, 68, 115
1, 234073, Note_off_c, 0, 68, 115
1, 234073, Note_on_c, 0, 65, 113
1, 234176, Note_on_c, 0, 63, 105
1, 234176, Note_off_c, 0, 65, 113
1, 234279, Note_off_c, 0, 63, 105
1, 234439, Note_on_c, 0, 64, 116
1, 234576, Note_off_c, 0, 64, 116
1, 234603, Note_on_c, 0, 60, 110
1, 234714, Note_off_c, 0, 60, 110
1, 234738, Note_on_c, 0, 62, 111
1, 234934, Note_off_c, 0, 62, 111
1, 235060, Note_on_c, 0, 58, 104
1, 235279, Note_off_c, 0, 58, 104
1, 235279, Note_on_c, 0, 63, 123
1, 235579, Note_off_c, 0, 63, 123
1, 235659, Note_on_c, 0, 64, 119
1, 235889, Note_off_c, 0, 64, 119
1, 235923, Note_on_c, 0, 60, 108
1, 236096, Note_off_c, 0, 60, 108
1, 236188, Note_on_c, 0, 64, 112
1, 236338, Note_off_c, 0, 64, 112
1, 236338, Note_on_c, 0, 67, 116
1, 236580, Note_off_c, 0, 67, 116
1, 236591, Note_on_c, 0, 65, 115
1, 236798, Note_off_c, 0, 65, 115
1, 236798, Note_on_c, 0, 64, 123
1, 236994, Note_off_c, 0, 64, 123
1, 237051, Note_on_c, 0, 63, 123
1, 237201, Note_off_c, 0, 63, 123
1, 237281, Note_on_c, 0, 62, 119
1, 237396, Note_off_c, 0, 62, 119
1, 237476, Note_on_c, 0, 60, 109
1, 237637, Note_off_c, 0, 60, 109
1, 237648, Note_on_c, 0, 59, 107
1, 237786, Note_off_c, 0, 59, 107
1, 237832, Note_on_c, 0, 58, 110
1, 238028, Note_on_c, 0, 57, 106
1, 238028, Note_off_c, 0, 58, 110
1, 238108, Note_off_c, 0, 57, 106
1, 238165, Note_on_c, 0, 56, 108
1, 238395, Note_off_c, 0, 56, 108
1, 238446, Note_on_c, 0, 58, 107
1, 238621, Note_off_c, 0, 58, 107
1, 238659, Note_on_c, 0, 60, 57
1, 238797, Note_off_c, 0, 60, 57
1, 238866, Note_on_c, 0, 62, 113
1, 239050, Note_off_c, 0, 62, 113
1, 239050, Note_on_c, 0, 67, 116
1, 239269, Note_off_c, 0, 67, 116
1, 239496, Note_on_c, 0, 66, 110
1, 239680, Note_off_c, 0, 66, 110
1, 239759, Note_on_c, 0, 66, 113
1, 239884, Note_off_c, 0, 66, 113
1, 239912, Note_on_c, 0, 62, 117
1, 240085, Note_off_c, 0, 62, 117
1, 240132, Note_on_c, 0, 60, 108
1, 240316, Note_off_c, 0, 60, 108
1, 240392, Note_on_c, 0, 58, 111
1, 240576, Note_off_c, 0, 58, 111
1, 240623, Note_on_c, 0, 66, 116
1, 240749, Note_off_c, 0, 66, 116
1, 240774, Note_on_c, 0, 67, 114
1, 241017, Note_off_c, 0, 67, 114
1, 241038, Note_on_c, 0, 63, 118
1, 241268, Note_off_c, 0, 63, 118
1, 241441, Note_on_c, 0, 63, 117
1, 242283, Note_off_c, 0, 63, 117
1, 243021, Note_on_c, 0, 64, 121
1, 243217, Note_off_c, 0, 64, 121
1, 243251, Note_on_c, 0, 66, 110
1, 243597, Note_off_c, 0, 66, 110
1, 244543, Note_on_c, 0, 65, 115
1, 244831, Note_off_c, 0, 65, 115
1, 244831, Note_on_c, 0, 67, 108
1, 245015, Note_off_c, 0, 67, 108
1, 245038, Note_on_c, 0, 69, 117
1, 245291, Note_off_c, 0, 69, 117
1, 245371, Note_on_c, 0, 65, 103
1, 245502, Note_off_c, 0, 65, 103
1, 245548, Note_on_c, 0, 69, 120
1, 245698, Note_off_c, 0, 69, 120
1, 245734, Note_on_c, 0, 73, 115
1, 246170, Note_off_c, 0, 73, 115
1, 246200, Note_on_c, 0, 71, 113
1, 246384, Note_off_c, 0, 71, 113
1, 246407, Note_on_c, 0, 70, 115
1, 246660, Note_off_c, 0, 70, 115
1, 246763, Note_on_c, 0, 66, 110
1, 246901, Note_off_c, 0, 66, 110
1, 246947, Note_on_c, 0, 64, 113
1, 247120, Note_off_c, 0, 64, 113
1, 247120, Note_on_c, 0, 59, 109
1, 247258, Note_off_c, 0, 59, 109
1, 247281, Note_on_c, 0, 58, 109
1, 247523, Note_off_c, 0, 58, 109
1, 247580, Note_on_c, 0, 68, 119
1, 247764, Note_off_c, 0, 68, 119
1, 247810, Note_on_c, 0, 67, 114
1, 248040, Note_off_c, 0, 67, 114
1, 248040, Note_on_c, 0, 65, 112
1, 248201, Note_off_c, 0, 65, 112
1, 248224, Note_on_c, 0, 63, 115
1, 248443, Note_off_c, 0, 63, 115
1, 248477, Note_on_c, 0, 62, 114
1, 248650, Note_off_c, 0, 62, 114
1, 248730, Note_on_c, 0, 61, 113
1, 248949, Note_off_c, 0, 61, 113
1, 248983, Note_on_c, 0, 63, 119
1, 249202, Note_off_c, 0, 63, 119
1, 249213, Note_on_c, 0, 65, 112
1, 249420, Note_off_c, 0, 65, 112
1, 249431, Note_on_c, 0, 67, 116
1, 249523, Note_off_c, 0, 67, 116
1, 249615, Note_on_c, 0, 68, 107
1, 249776, Note_off_c, 0, 68, 107
1, 249776, Note_on_c, 0, 70, 103
1, 249891, Note_off_c, 0, 70, 103
1, 249891, Note_on_c, 0, 72, 118
1, 250167, Note_off_c, 0, 72, 118
1, 250167, Note_on_c, 0, 70, 110
1, 250351, Note_off_c, 0, 70, 110
1, 250351, Note_on_c, 0, 67, 109
1, 250570, Note_off_c, 0, 67, 109
1, 250616, Note_on_c, 0, 66, 99
1, 250835, Note_off_c, 0, 66, 99
1, 250892, Note_on_c, 0, 68, 118
1, 251145, Note_off_c, 0, 68, 118
1, 251341, Note_on_c, 0, 68, 115
1, 251617, Note_off_c, 0, 68, 115
1, 251767, Note_on_c, 0, 68, 114
1, 251917, Note_off_c, 0, 68, 114
1, 251963, Note_on_c, 0, 70, 116
1, 252251, Note_off_c, 0, 70, 116
1, 252376, Note_on_c, 0, 70, 120
1, 252491, Note_off_c, 0, 70, 120
1, 252509, Note_on_c, 0, 71, 120
1, 252736, Note_off_c, 0, 71, 120
1, 252814, Note_on_c, 0, 75, 111
1, 252964, Note_off_c, 0, 75, 111
1, 253114, Note_on_c, 0, 71, 120
1, 253298, Note_off_c, 0, 71, 120
1, 253321, Note_on_c, 0, 70, 117
1, 253586, Note_off_c, 0, 70, 117
1, 253586, Note_on_c, 0, 68, 120
1, 253955, Note_off_c, 0, 68, 120
1, 255050, Note_on_c, 0, 67, 120
1, 255292, Note_off_c, 0, 67, 120
1, 255327, Note_on_c, 0, 68, 116
1, 255430, Note_off_c, 0, 68, 116
1, 255464, Note_on_c, 0, 67, 113
1, 255602, Note_off_c, 0, 67, 113
1, 255610, Note_on_c, 0, 65, 113
1, 255776, Note_off_c, 0, 65, 113
1, 255797, Note_on_c, 0, 61, 106
1, 256016, Note_off_c, 0, 61, 106
1, 256062, Note_on_c, 0, 58, 106
1, 256258, Note_off_c, 0, 58, 106
1, 256315, Note_on_c, 0, 61, 115
1, 256545, Note_off_c, 0, 61, 115
1, 256556, Note_on_c, 0, 65, 112
1, 256729, Note_off_c, 0, 65, 112
1, 256786, Note_on_c, 0, 65, 113
1, 256889, Note_off_c, 0, 65, 113
1, 256935, Note_on_c, 0, 63, 118
1, 257788, Note_off_c, 0, 63, 118
1, 257845, Note_on_c, 0, 61, 114
1, 258018, Note_off_c, 0, 61, 114
1, 258029, Note_on_c, 0, 63, 106
1, 258179, Note_off_c, 0, 63, 106
1, 258213, Note_on_c, 0, 65, 113
1, 258432, Note_off_c, 0, 65, 113
1, 258470, Note_on_c, 0, 61, 112
1, 258630, Note_off_c, 0, 61, 112
1, 258673, Note_on_c, 0, 60, 108
1, 258811, Note_off_c, 0, 60, 108
1, 258868, Note_on_c, 0, 58, 104
1, 259179, Note_off_c, 0, 58, 104
1, 259432, Note_on_c, 0, 58, 116
1, 259605, Note_off_c, 0, 58, 116
1, 259605, Note_on_c, 0, 63, 117
1, 259858, Note_off_c, 0, 63, 117
1, 259892, Note_on_c, 0, 61, 115
1, 260042, Note_off_c, 0, 61, 115
1, 260134, Note_on_c, 0, 56, 113
1, 260237, Note_off_c, 0, 56, 113
1, 260317, Note_on_c, 0, 58, 104
1, 260432, Note_off_c, 0, 58, 104
1, 260466, Note_on_c, 0, 59, 108
1, 260742, Note_off_c, 0, 59, 108
1, 260776, Note_on_c, 0, 64, 116
1, 261018, Note_on_c, 0, 67, 114
1, 261018, Note_off_c, 0, 64, 116
1, 261237, Note_off_c, 0, 67, 114
1, 261237, Note_on_c, 0, 71, 113
1, 261375, Note_off_c, 0, 71, 113
1, 261398, Note_on_c, 0, 70, 101
1, 261524, Note_off_c, 0, 70, 101
1, 261570, Note_on_c, 0, 72, 107
1, 261685, Note_off_c, 0, 72, 107
1, 261754, Note_on_c, 0, 71, 100
1, 261846, Note_off_c, 0, 71, 100
1, 261846, Note_on_c, 0, 70, 113
1, 262861, Note_off_c, 0, 70, 113
1, 262953, Note_on_c, 0, 68, 112
1, 263218, Note_off_c, 0, 68, 112
1, 263229, Note_on_c, 0, 66, 106
1, 263425, Note_off_c, 0, 66, 106
1, 263517, Note_on_c, 0, 63, 109
1, 263701, Note_off_c, 0, 63, 109
1, 263701, Note_on_c, 0, 66, 110
1, 263874, Note_off_c, 0, 66, 110
1, 263885, Note_on_c, 0, 68, 112
1, 264127, Note_off_c, 0, 68, 112
1, 264415, Note_on_c, 0, 69, 117
1, 264703, Note_off_c, 0, 69, 117
1, 264760, Note_on_c, 0, 68, 112
1, 264956, Note_off_c, 0, 68, 112
1, 265036, Note_on_c, 0, 66, 107
1, 265243, Note_off_c, 0, 66, 107
1, 265300, Note_on_c, 0, 63, 106
1, 265576, Note_off_c, 0, 63, 106
1, 265587, Note_on_c, 0, 68, 113
1, 266244, Note_off_c, 0, 68, 113
1, 266313, Note_on_c, 0, 66, 102
1, 266497, Note_off_c, 0, 66, 102
1, 266600, Note_on_c, 0, 63, 119
1, 266796, Note_off_c, 0, 63, 119
1, 266819, Note_on_c, 0, 61, 112
1, 267003, Note_off_c, 0, 61, 112
1, 267153, Note_on_c, 0, 58, 107
1, 267349, Note_off_c, 0, 58, 107
1, 267602, Note_on_c, 0, 56, 112
1, 267855, Note_off_c, 0, 56, 112
1, 268824, Note_on_c, 0, 55, 109
1, 269020, Note_off_c, 0, 55, 109
1, 269054, Note_on_c, 0, 56, 111
1, 269250, Note_off_c, 0, 56, 111
1, 269273, Note_on_c, 0, 58, 109
1, 269446, Note_off_c, 0, 58, 109
1, 269480, Note_on_c, 0, 60, 113
1, 269687, Note_off_c, 0, 60, 113
1, 269698, Note_on_c, 0, 62, 105
1, 269778, Note_off_c, 0, 62, 105
1, 269812, Note_on_c, 0, 63, 114
1, 270031, Note_off_c, 0, 63, 114
1, 270064, Note_on_c, 0, 65, 117
1, 270303, Note_off_c, 0, 65, 117
1, 270330, Note_on_c, 0, 62, 99
1, 270422, Note_off_c, 0, 62, 99
1, 270433, Note_on_c, 0, 63, 110
1, 270663, Note_off_c, 0, 63, 110
1, 270756, Note_on_c, 0, 67, 112
1, 270841, Note_off_c, 0, 67, 112
1, 270861, Note_on_c, 0, 70, 116
1, 271035, Note_off_c, 0, 70, 116
1, 271092, Note_on_c, 0, 68, 118
1, 271267, Note_off_c, 0, 68, 118
1, 271295, Note_on_c, 0, 65, 101
1, 271432, Note_off_c, 0, 65, 101
1, 271443, Note_on_c, 0, 68, 117
1, 271639, Note_off_c, 0, 68, 117
1, 271664, Note_on_c, 0, 72, 119
1, 271877, Note_off_c, 0, 72, 119
1, 271900, Note_on_c, 0, 70, 114
1, 272585, Note_off_c, 0, 70, 114
1, 273125, Note_on_c, 0, 67, 103
1, 273436, Note_off_c, 0, 67, 103
1, 273586, Note_on_c, 0, 70, 99
1, 273759, Note_off_c, 0, 70, 99
1, 273852, Note_on_c, 0, 74, 117
1, 274036, Note_off_c, 0, 74, 117
1, 274060, Note_on_c, 0, 72, 112
1, 274173, Note_off_c, 0, 72, 112
1, 274217, Note_on_c, 0, 70, 116
1, 274378, Note_off_c, 0, 70, 116
1, 274401, Note_on_c, 0, 67, 110
1, 274608, Note_off_c, 0, 67, 110
1, 274608, Note_on_c, 0, 66, 109
1, 274792, Note_off_c, 0, 66, 109
1, 274861, Note_on_c, 0, 73, 111
1, 275034, Note_off_c, 0, 73, 111
1, 275057, Note_on_c, 0, 69, 106
1, 275172, Note_off_c, 0, 69, 106
1, 275206, Note_on_c, 0, 67, 107
1, 275321, Note_off_c, 0, 67, 107
1, 275344, Note_on_c, 0, 65, 103
1, 275470, Note_off_c, 0, 65, 103
1, 275562, Note_on_c, 0, 68, 103
1, 275942, Note_off_c, 0, 68, 103
1, 276115, Note_on_c, 0, 72, 115
1, 276357, Note_off_c, 0, 72, 115
1, 276622, Note_on_c, 0, 72, 116
1, 276887, Note_off_c, 0, 72, 116
1, 276933, Note_on_c, 0, 68, 111
1, 277059, Note_off_c, 0, 68, 111
1, 277070, Note_on_c, 0, 65, 110
1, 277162, Note_off_c, 0, 65, 110
1, 277274, Note_on_c, 0, 60, 111
1, 277435, Note_off_c, 0, 60, 111
1, 277442, Note_on_c, 0, 63, 122
1, 277707, Note_off_c, 0, 63, 122
1, 277728, Note_on_c, 0, 60, 112
1, 277831, Note_off_c, 0, 60, 112
1, 277862, Note_on_c, 0, 62, 109
1, 278208, Note_off_c, 0, 62, 109
1, 279693, Note_on_c, 0, 69, 117
1, 279825, Note_off_c, 0, 69, 117
1, 279846, Note_on_c, 0, 72, 117
1, 279931, Note_off_c, 0, 72, 117
1, 279948, Note_on_c, 0, 73, 117
1, 280836, Note_off_c, 0, 73, 117
1, 280836, Note_on_c, 0, 70, 120
1, 281101, Note_off_c, 0, 70, 120
1, 281147, Note_on_c, 0, 68, 116
1, 281423, Note_off_c, 0, 68, 116
1, 281457, Note_on_c, 0, 66, 111
1, 281699, Note_off_c, 0, 66, 111
1, 281722, Note_on_c, 0, 63, 106
1, 281895, Note_off_c, 0, 63, 106
1, 281987, Note_on_c, 0, 66, 114
1, 282148, Note_off_c, 0, 66, 114
1, 282159, Note_on_c, 0, 68, 113
1, 282355, Note_off_c, 0, 68, 113
1, 282435, Note_on_c, 0, 63, 117
1, 282861, Note_off_c, 0, 63, 117
1, 283011, Note_on_c, 0, 63, 118
1, 284465, Note_off_c, 0, 63, 118
1, 284488, Note_on_c, 0, 61, 108
1, 284776, Note_off_c, 0, 61, 108
1, 284800, Note_on_c, 0, 63, 105
1, 284976, Note_off_c, 0, 63, 105
1, 285052, Note_on_c, 0, 65, 114
1, 285271, Note_off_c, 0, 65, 114
1, 285294, Note_on_c, 0, 61, 111
1, 285598, Note_off_c, 0, 61, 111
1, 286793, Note_on_c, 0, 60, 115
1, 287162, Note_off_c, 0, 60, 115
1, 287173, Note_on_c, 0, 62, 115
1, 287299, Note_off_c, 0, 62, 115
1, 287345, Note_on_c, 0, 63, 119
1, 287518, Note_off_c, 0, 63, 119
1, 287587, Note_on_c, 0, 60, 100
1, 287852, Note_off_c, 0, 60, 100
1, 287852, Note_on_c, 0, 66, 110
1, 288025, Note_off_c, 0, 66, 110
1, 288025, Note_on_c, 0, 67, 104
1, 288117, Note_off_c, 0, 67, 104
1, 288163, Note_on_c, 0, 66, 110
1, 288289, Note_off_c, 0, 66, 110
1, 288289, Note_on_c, 0, 62, 116
1, 288519, Note_off_c, 0, 62, 116
1, 288519, Note_on_c, 0, 60, 108
1, 288703, Note_off_c, 0, 60, 108
1, 288760, Note_on_c, 0, 58, 107
1, 288967, Note_off_c, 0, 58, 107
1, 288967, Note_on_c, 0, 56, 104
1, 289140, Note_off_c, 0, 56, 104
1, 289636, Note_on_c, 0, 55, 97
1, 290132, Note_off_c, 0, 55, 97
1, 290997, Note_on_c, 0, 58, 111
1, 291227, Note_off_c, 0, 58, 111
1, 291307, Note_on_c, 0, 63, 119
1, 291780, Note_off_c, 0, 63, 119
1, 293049, Note_on_c, 0, 56, 111
1, 293718, Note_off_c, 0, 56, 111
1, 293821, Note_on_c, 0, 60, 111
1, 294247, Note_off_c, 0, 60, 111
1, 294293, Note_on_c, 0, 62, 113
1, 294443, Note_off_c, 0, 62, 113
1, 294443, Note_on_c, 0, 63, 119
1, 295331, Note_off_c, 0, 63, 119
1, 296363, Note_on_c, 0, 52, 120
1, 296507, Note_off_c, 0, 52, 120
1, 296519, Note_on_c, 0, 55, 116
1, 296784, Note_off_c, 0, 55, 116
1, 296818, Note_on_c, 0, 58, 115
1, 297002, Note_off_c, 0, 58, 115
1, 297059, Note_on_c, 0, 63, 119
1, 297393, Note_off_c, 0, 63, 119
1, 297641, Note_on_c, 0, 63, 122
1, 298137, Note_off_c, 0, 63, 122
1, 298268, Note_on_c, 0, 63, 120
1, 299433, Note_off_c, 0, 63, 120
1, 299548, Note_on_c, 0, 61, 108
1, 299836, Note_off_c, 0, 61, 108
1, 299879, Note_on_c, 0, 63, 114
1, 300029, Note_off_c, 0, 63, 114
1, 300034, Note_on_c, 0, 65, 116
1, 300236, Note_off_c, 0, 65, 116
1, 300261, Note_on_c, 0, 61, 118
1, 300399, Note_off_c, 0, 61, 118
1, 300445, Note_on_c, 0, 60, 113
1, 300652, Note_off_c, 0, 60, 113
1, 300732, Note_on_c, 0, 58, 103
1, 300916, Note_off_c, 0, 58, 103
1, 300954, Note_on_c, 0, 63, 119
1, 301207, Note_off_c, 0, 63, 119
1, 302346, Note_on_c, 0, 67, 114
1, 302738, Note_off_c, 0, 67, 114
1, 302749, Note_on_c, 0, 65, 116
1, 302979, Note_off_c, 0, 65, 116
1, 302990, Note_on_c, 0, 63, 118
1, 303183, Note_off_c, 0, 63, 118
1, 303211, Note_on_c, 0, 61, 115
1, 303352, Note_off_c, 0, 61, 115
1, 303375, Note_on_c, 0, 60, 114
1, 303536, Note_off_c, 0, 60, 114
1, 303576, Note_on_c, 0, 58, 109
1, 303829, Note_off_c, 0, 58, 109
1, 303863, Note_on_c, 0, 56, 111
1, 304255, Note_off_c, 0, 56, 111
1, 304508, Note_on_c, 0, 58, 107
1, 304646, Note_off_c, 0, 58, 107
1, 304715, Note_on_c, 0, 60, 117
1, 305026, Note_off_c, 0, 60, 117
1, 305302, Note_on_c, 0, 60, 116
1, 305498, Note_off_c, 0, 60, 116
1, 305567, Note_on_c, 0, 63, 123
1, 305913, Note_off_c, 0, 63, 123
1, 305913, Note_on_c, 0, 60, 105
1, 306120, Note_off_c, 0, 60, 105
1, 306166, Note_on_c, 0, 63, 125
1, 306362, Note_off_c, 0, 63, 125
1, 306431, Note_on_c, 0, 66, 117
1, 306627, Note_off_c, 0, 66, 117
1, 306627, Note_on_c, 0, 63, 110
1, 306800, Note_off_c, 0, 63, 110
1, 306857, Note_on_c, 0, 66, 117
1, 307122, Note_off_c, 0, 66, 117
1, 307260, Note_on_c, 0, 69, 120
1, 307433, Note_off_c, 0, 69, 120
1, 307479, Note_on_c, 0, 70, 117
1, 308309, Note_off_c, 0, 70, 117
1, 308317, Note_on_c, 0, 68, 118
1, 308523, Note_off_c, 0, 68, 118
1, 308575, Note_on_c, 0, 63, 114
1, 308773, Note_off_c, 0, 63, 114
1, 308803, Note_on_c, 0, 66, 115
1, 309079, Note_off_c, 0, 66, 115
1, 309102, Note_on_c, 0, 68, 117
1, 309296, Note_off_c, 0, 68, 117
1, 309308, Note_on_c, 0, 70, 118
1, 309758, Note_off_c, 0, 70, 118
1, 310992, Note_on_c, 0, 58, 114
1, 311222, Note_off_c, 0, 58, 114
1, 311282, Note_on_c, 0, 55, 102
1, 311466, Note_off_c, 0, 55, 102
1, 311490, Note_on_c, 0, 58, 113
1, 311697, Note_off_c, 0, 58, 113
1, 311709, Note_on_c, 0, 62, 119
1, 311939, Note_off_c, 0, 62, 119
1, 311953, Note_on_c, 0, 58, 92
1, 312062, Note_off_c, 0, 58, 92
1, 312095, Note_on_c, 0, 62, 120
1, 312348, Note_off_c, 0, 62, 120
1, 312359, Note_on_c, 0, 65, 114
1, 312612, Note_off_c, 0, 65, 114
1, 312669, Note_on_c, 0, 62, 97
1, 312807, Note_off_c, 0, 62, 97
1, 312820, Note_on_c, 0, 65, 107
1, 312976, Note_off_c, 0, 65, 107
1, 312989, Note_on_c, 0, 70, 106
1, 313069, Note_off_c, 0, 70, 106
1, 313219, Note_on_c, 0, 74, 114
1, 313553, Note_off_c, 0, 74, 114
1, 313596, Note_on_c, 0, 72, 120
1, 313900, Note_off_c, 0, 72, 120
1, 314579, Note_on_c, 0, 54, 104
1, 314775, Note_off_c, 0, 54, 104
1, 314797, Note_on_c, 0, 57, 113
1, 314979, Note_off_c, 0, 57, 113
1, 315039, Note_on_c, 0, 61, 118
1, 315248, Note_off_c, 0, 61, 118
1, 315271, Note_on_c, 0, 64, 109
1, 315397, Note_off_c, 0, 64, 109
1, 315437, Note_on_c, 0, 68, 102
1, 315541, Note_off_c, 0, 68, 102
1, 315572, Note_on_c, 0, 71, 124
1, 315708, Note_off_c, 0, 71, 124
1, 315725, Note_on_c, 0, 73, 120
1, 316526, Note_off_c, 0, 73, 120
1, 316553, Note_on_c, 0, 71, 120
1, 316684, Note_off_c, 0, 71, 120
1, 316716, Note_on_c, 0, 69, 115
1, 316796, Note_off_c, 0, 69, 115
1, 316808, Note_on_c, 0, 66, 111
1, 317084, Note_off_c, 0, 66, 111
1, 317107, Note_on_c, 0, 61, 108
1, 317441, Note_off_c, 0, 61, 108
1, 318127, Note_on_c, 0, 53, 113
1, 318316, Note_off_c, 0, 53, 113
1, 318339, Note_on_c, 0, 56, 111
1, 318475, Note_off_c, 0, 56, 111
1, 318499, Note_on_c, 0, 60, 106
1, 318706, Note_off_c, 0, 60, 106
1, 318711, Note_on_c, 0, 63, 112
1, 318821, Note_off_c, 0, 63, 112
1, 318840, Note_on_c, 0, 67, 107
1, 318942, Note_off_c, 0, 67, 107
1, 318954, Note_on_c, 0, 70, 120
1, 319093, Note_off_c, 0, 70, 120
1, 319122, Note_on_c, 0, 75, 117
1, 319688, Note_off_c, 0, 75, 117
1, 319705, Note_on_c, 0, 72, 114
1, 319878, Note_off_c, 0, 72, 114
1, 319905, Note_on_c, 0, 68, 115
1, 320044, Note_off_c, 0, 68, 115
1, 320072, Note_on_c, 0, 65, 113
1, 320418, Note_off_c, 0, 65, 113
1, 321306, Note_on_c, 0, 61, 110
1, 321571, Note_off_c, 0, 61, 110
1, 321582, Note_on_c, 0, 63, 108
1, 321732, Note_off_c, 0, 63, 108
1, 321769, Note_on_c, 0, 67, 100
1, 321865, Note_off_c, 0, 67, 100
1, 321870, Note_on_c, 0, 70, 114
1, 321978, Note_off_c, 0, 70, 114
1, 322171, Note_on_c, 0, 74, 125
1, 322280, Note_off_c, 0, 74, 125
1, 322290, Note_on_c, 0, 75, 124
1, 323079, Note_off_c, 0, 75, 124
1, 323136, Note_on_c, 0, 73, 111
1, 323366, Note_off_c, 0, 73, 111
1, 323423, Note_on_c, 0, 71, 119
1, 323630, Note_off_c, 0, 71, 119
1, 323687, Note_on_c, 0, 68, 117
1, 323871, Note_off_c, 0, 68, 117
1, 324052, Note_on_c, 0, 64, 116
1, 324222, Note_off_c, 0, 64, 116
1, 324238, Note_on_c, 0, 66, 91
1, 324332, Note_off_c, 0, 66, 91
1, 324353, Note_on_c, 0, 68, 104
1, 324468, Note_off_c, 0, 68, 104
1, 324514, Note_on_c, 0, 71, 118
1, 324675, Note_off_c, 0, 71, 118
1, 324698, Note_on_c, 0, 70, 119
1, 324894, Note_off_c, 0, 70, 119
1, 325031, Note_on_c, 0, 68, 112
1, 325250, Note_off_c, 0, 68, 112
1, 325288, Note_on_c, 0, 67, 116
1, 325599, Note_off_c, 0, 67, 116
1, 325691, Note_on_c, 0, 63, 120
1, 325967, Note_off_c, 0, 63, 120
1, 326145, Note_on_c, 0, 63, 120
1, 326441, Note_off_c, 0, 63, 120
1, 326517, Note_on_c, 0, 63, 120
1, 327878, Note_off_c, 0, 63, 120
1, 327940, Note_on_c, 0, 60, 98
1, 328150, Note_off_c, 0, 60, 98
1, 328205, Note_on_c, 0, 63, 113
1, 328370, Note_off_c, 0, 63, 113
1, 328383, Note_on_c, 0, 67, 117
1, 328602, Note_off_c, 0, 67, 117
1, 328617, Note_on_c, 0, 68, 115
1, 328791, Note_off_c, 0, 68, 115
1, 328842, Note_on_c, 0, 64, 115
1, 329026, Note_off_c, 0, 64, 115
1, 329085, Note_on_c, 0, 67, 115
1, 329278, Note_off_c, 0, 67, 115
1, 329288, Note_on_c, 0, 65, 113
1, 329484, Note_off_c, 0, 65, 113
1, 329533, Note_on_c, 0, 64, 116
1, 329694, Note_off_c, 0, 64, 116
1, 329740, Note_on_c, 0, 63, 117
1, 329890, Note_off_c, 0, 63, 117
1, 329959, Note_on_c, 0, 62, 117
1, 330178, Note_off_c, 0, 62, 117
1, 330201, Note_on_c, 0, 60, 101
1, 330420, Note_off_c, 0, 60, 101
1, 330477, Note_on_c, 0, 59, 107
1, 330684, Note_off_c, 0, 59, 107
1, 330707, Note_on_c, 0, 58, 104
1, 330903, Note_off_c, 0, 58, 104
1, 330937, Note_on_c, 0, 57, 110
1, 331098, Note_off_c, 0, 57, 110
1, 331144, Note_on_c, 0, 56, 108
1, 331351, Note_off_c, 0, 56, 108
1, 331351, Note_on_c, 0, 57, 106
1, 331535, Note_off_c, 0, 57, 106
1, 331568, Note_on_c, 0, 60, 102
1, 331729, Note_off_c, 0, 60, 102
1, 331801, Note_on_c, 0, 62, 118
1, 331985, Note_off_c, 0, 62, 118
1, 332018, Note_on_c, 0, 63, 113
1, 332491, Note_off_c, 0, 63, 113
1, 332491, End_track
0, 0, End_of_file
