0, 0, Header, 1, 1, 192
1, 0, Start_track
1, 0, Title_t, "Melody"
1, 0, Tempo, 200668
1, 0, Key_signature, -3, "major"
1, 0, Time_signature, 4, 2, 24, 8
1, 2950, Note_on_c, 0, 58, 97
1, 3032, Note_off_c, 0, 58, 97
1, 3051, Note_on_c, 0, 59, 106
1, 3119, Note_off_c, 0, 59, 106
1, 3140, Note_on_c, 0, 61, 105
1, 3202, Note_off_c, 0, 61, 105
1, 3229, Note_on_c, 0, 63, 102
1, 3305, Note_off_c, 0, 63, 102
1, 3312, Note_on_c, 0, 62, 101
1, 3425, Note_off_c, 0, 62, 101
1, 3455, Note_on_c, 0, 64, 117
1, 3527, Note_off_c, 0, 64, 117
1, 3548, Note_on_c, 0, 66, 113
1, 3586, Note_off_c, 0, 66, 113
1, 3631, Note_on_c, 0, 69, 111
1, 3709, Note_off_c, 0, 69, 111
1, 3728, Note_on_c, 0, 66, 113
1, 3790, Note_off_c, 0, 66, 113
1, 3816, Note_on_c, 0, 62, 112
1, 3892, Note_off_c, 0, 62, 112
1, 3907, Note_on_c, 0, 59, 104
1, 3979, Note_off_c, 0, 59, 104
1, 4056, Note_on_c, 0, 60, 116
1, 4159, Note_off_c, 0, 60, 116
1, 4183, Note_on_c, 0, 56, 115
1, 4255, Note_off_c, 0, 56, 115
1, 4268, Note_on_c, 0, 55, 114
1, 4348, Note_off_c, 0, 55, 114
1, 4383, Note_on_c, 0, 53, 109
1, 4469, Note_off_c, 0, 53, 109
1, 4489, Note_on_c, 0, 52, 102
1, 4527, Note_off_c, 0, 52, 102
1, 4534, Note_on_c, 0, 53, 106
1, 4627, Note_off_c, 0, 53, 106
1, 4650, Note_on_c, 0, 55, 109
1, 4716, Note_off_c, 0, 55, 109
1, 4743, Note_on_c, 0, 56, 113
1, 4805, Note_off_c, 0, 56, 113
1, 4846, Note_on_c, 0, 58, 115
1, 4904, Note_off_c, 0, 58, 115
1, 4909, Note_on_c, 0, 60, 115
1, 5000, Note_off_c, 0, 60, 115
1, 5031, Note_on_c, 0, 62, 113
1, 5077, Note_off_c, 0, 62, 113
1, 5119, Note_on_c, 0, 65, 114
1, 5193, Note_off_c, 0, 65, 114
1, 5208, Note_on_c, 0, 64, 123
1, 5358, Note_off_c, 0, 64, 123
1, 5408, Note_on_c, 0, 59, 97
1, 5478, Note_off_c, 0, 59, 97
1, 5493, Note_on_c, 0, 67, 106
1, 5567, Note_off_c, 0, 67, 106
1, 5594, Note_on_c, 0, 71, 127
1, 5648, Note_off_c, 0, 71, 127
1, 5681, Note_on_c, 0, 69, 120
1, 5755, Note_off_c, 0, 69, 120
1, 5768, Note_on_c, 0, 66, 113
1, 5834, Note_off_c, 0, 66, 113
1, 5871, Note_on_c, 0, 64, 121
1, 5937, Note_off_c, 0, 64, 121
1, 5960, Note_on_c, 0, 62, 119
1, 6022, Note_off_c, 0, 62, 119
1, 6029, Note_on_c, 0, 64, 114
1, 6072, Note_off_c, 0, 64, 114
1, 6092, Note_on_c, 0, 67, 112
1, 6151, Note_off_c, 0, 67, 112
1, 6180, Note_on_c, 0, 71, 109
1, 6218, Note_off_c, 0, 71, 109
1, 6230, Note_on_c, 0, 72, 101
1, 6259, Note_off_c, 0, 72, 101
1, 6272, Note_on_c, 0, 71, 114
1, 6310, Note_off_c, 0, 71, 114
1, 6348, Note_on_c, 0, 62, 117
1, 6424, Note_off_c, 0, 62, 117
1, 6443, Note_on_c, 0, 65, 105
1, 6480, Note_off_c, 0, 65, 105
1, 6506, Note_on_c, 0, 68, 117
1, 6580, Note_off_c, 0, 68, 117
1, 6589, Note_on_c, 0, 72, 117
1, 6650, Note_off_c, 0, 72, 117
1, 6690, Note_on_c, 0, 63, 120
1, 6771, Note_off_c, 0, 63, 120
1, 6795, Note_on_c, 0, 65, 108
1, 6864, Note_off_c, 0, 65, 108
1, 6888, Note_on_c, 0, 67, 111
1, 6953, Note_off_c, 0, 67, 111
1, 6973, Note_on_c, 0, 70, 113
1, 7039, Note_off_c, 0, 70, 113
1, 7077, Note_on_c, 0, 64, 114
1, 7222, Note_off_c, 0, 64, 114
1, 7227, Note_on_c, 0, 67, 101
1, 7286, Note_off_c, 0, 67, 101
1, 7316, Note_on_c, 0, 70, 106
1, 7367, Note_off_c, 0, 70, 106
1, 7393, Note_on_c, 0, 73, 122
1, 7602, Note_off_c, 0, 73, 122
1, 7629, Note_on_c, 0, 70, 117
1, 7712, Note_off_c, 0, 70, 117
1, 7732, Note_on_c, 0, 68, 105
1, 7770, Note_off_c, 0, 68, 105
1, 7783, Note_on_c, 0, 66, 107
1, 7898, Note_off_c, 0, 66, 107
1, 7914, Note_on_c, 0, 63, 118
1, 7982, Note_off_c, 0, 63, 118
1, 7995, Note_on_c, 0, 59, 99
1, 8065, Note_off_c, 0, 59, 99
1, 8195, Note_on_c, 0, 70, 115
1, 8235, Note_off_c, 0, 70, 115
1, 8243, Note_on_c, 0, 71, 115
1, 8261, Note_off_c, 0, 71, 115
1, 8265, Note_on_c, 0, 72, 113
1, 8282, Note_off_c, 0, 72, 113
1, 8286, Note_on_c, 0, 73, 120
1, 8326, Note_off_c, 0, 73, 120
1, 8331, Note_on_c, 0, 74, 118
1, 8424, Note_off_c, 0, 74, 118
1, 8430, Note_on_c, 0, 73, 122
1, 8482, Note_off_c, 0, 73, 122
1, 8494, Note_on_c, 0, 71, 121
1, 8564, Note_off_c, 0, 71, 121
1, 8575, Note_on_c, 0, 70, 118
1, 8627, Note_off_c, 0, 70, 118
1, 8670, Note_on_c, 0, 68, 119
1, 8754, Note_off_c, 0, 68, 119
1, 8763, Note_on_c, 0, 67, 114
1, 8837, Note_off_c, 0, 67, 114
1, 8856, Note_on_c, 0, 65, 113
1, 8924, Note_off_c, 0, 65, 113
1, 8939, Note_on_c, 0, 63, 117
1, 9028, Note_off_c, 0, 63, 117
1, 9048, Note_on_c, 0, 65, 113
1, 9122, Note_off_c, 0, 65, 113
1, 9150, Note_on_c, 0, 67, 108
1, 9207, Note_off_c, 0, 67, 108
1, 9224, Note_on_c, 0, 70, 114
1, 9298, Note_off_c, 0, 70, 114
1, 9315, Note_on_c, 0, 75, 123
1, 9457, Note_off_c, 0, 75, 123
1, 9832, Note_on_c, 0, 71, 116
1, 9873, Note_off_c, 0, 71, 116
1, 9879, Note_on_c, 0, 72, 119
1, 9933, Note_off_c, 0, 72, 119
1, 9940, Note_on_c, 0, 75, 121
1, 10657, Note_off_c, 0, 75, 121
1, 10666, Note_on_c, 0, 71, 116
1, 10778, Note_off_c, 0, 71, 116
1, 10814, Note_on_c, 0, 66, 116
1, 10919, Note_off_c, 0, 66, 116
1, 10991, Note_on_c, 0, 66, 114
1, 11067, Note_off_c, 0, 66, 114
1, 11093, Note_on_c, 0, 64, 117
1, 11224, Note_off_c, 0, 64, 117
1, 11260, Note_on_c, 0, 65, 114
1, 11300, Note_off_c, 0, 65, 114
1, 11306, Note_on_c, 0, 66, 117
1, 11540, Note_off_c, 0, 66, 117
1, 11624, Note_on_c, 0, 65, 109
1, 11647, Note_off_c, 0, 65, 109
1, 11653, Note_on_c, 0, 66, 117
1, 11796, Note_off_c, 0, 66, 117
1, 11815, Note_on_c, 0, 64, 118
1, 11914, Note_off_c, 0, 64, 118
1, 11929, Note_on_c, 0, 63, 123
1, 12209, Note_off_c, 0, 63, 123
1, 12257, Note_on_c, 0, 66, 117
1, 12358, Note_off_c, 0, 66, 117
1, 12431, Note_on_c, 0, 69, 111
1, 12517, Note_off_c, 0, 69, 111
1, 12535, Note_on_c, 0, 73, 120
1, 12709, Note_off_c, 0, 73, 120
1, 12728, Note_on_c, 0, 71, 116
1, 12784, Note_off_c, 0, 71, 116
1, 12804, Note_on_c, 0, 70, 119
1, 13419, Note_off_c, 0, 70, 119
1, 13482, Note_on_c, 0, 68, 115
1, 13555, Note_off_c, 0, 68, 115
1, 13555, Note_on_c, 0, 67, 109
1, 13649, Note_off_c, 0, 67, 109
1, 13676, Note_on_c, 0, 63, 118
1, 13748, Note_off_c, 0, 63, 118
1, 13757, Note_on_c, 0, 62, 107
1, 13879, Note_off_c, 0, 62, 107
1, 13884, Note_on_c, 0, 65, 107
1, 13931, Note_off_c, 0, 65, 107
1, 13957, Note_on_c, 0, 63, 117
1, 14066, Note_off_c, 0, 63, 117
1, 14082, Note_on_c, 0, 65, 105
1, 14130, Note_off_c, 0, 65, 105
1, 14167, Note_on_c, 0, 67, 108
1, 14228, Note_off_c, 0, 67, 108
1, 14246, Note_on_c, 0, 70, 114
1, 14316, Note_off_c, 0, 70, 114
1, 14336, Note_on_c, 0, 71, 115
1, 14519, Note_off_c, 0, 71, 115
1, 15224, Note_on_c, 0, 63, 111
1, 15284, Note_off_c, 0, 63, 111
1, 15305, Note_on_c, 0, 66, 111
1, 15355, Note_off_c, 0, 66, 111
1, 15377, Note_on_c, 0, 71, 94
1, 15453, Note_off_c, 0, 71, 94
1, 15461, Note_on_c, 0, 62, 108
1, 15609, Note_off_c, 0, 62, 108
1, 15616, Note_on_c, 0, 64, 107
1, 15664, Note_off_c, 0, 64, 107
1, 15703, Note_on_c, 0, 66, 110
1, 15771, Note_off_c, 0, 66, 110
1, 15784, Note_on_c, 0, 69, 114
1, 15858, Note_off_c, 0, 69, 114
1, 15874, Note_on_c, 0, 67, 113
1, 15942, Note_off_c, 0, 67, 113
1, 15962, Note_on_c, 0, 62, 109
1, 16034, Note_off_c, 0, 62, 109
1, 16059, Note_on_c, 0, 59, 103
1, 16141, Note_off_c, 0, 59, 103
1, 16148, Note_on_c, 0, 55, 98
1, 16231, Note_off_c, 0, 55, 98
1, 16244, Note_on_c, 0, 60, 111
1, 16365, Note_off_c, 0, 60, 111
1, 16366, Note_on_c, 0, 56, 111
1, 16426, Note_off_c, 0, 56, 111
1, 16463, Note_on_c, 0, 55, 107
1, 16523, Note_off_c, 0, 55, 107
1, 16546, Note_on_c, 0, 53, 107
1, 16608, Note_off_c, 0, 53, 107
1, 16625, Note_on_c, 0, 51, 102
1, 16689, Note_off_c, 0, 51, 102
1, 16724, Note_on_c, 0, 53, 103
1, 16786, Note_off_c, 0, 53, 103
1, 16799, Note_on_c, 0, 55, 104
1, 16875, Note_off_c, 0, 55, 104
1, 16886, Note_on_c, 0, 56, 107
1, 16977, Note_off_c, 0, 56, 107
1, 16996, Note_on_c, 0, 57, 107
1, 17048, Note_off_c, 0, 57, 107
1, 17089, Note_on_c, 0, 60, 103
1, 17174, Note_off_c, 0, 60, 103
1, 17197, Note_on_c, 0, 62, 104
1, 17280, Note_off_c, 0, 62, 104
1, 17307, Note_on_c, 0, 65, 110
1, 17389, Note_off_c, 0, 65, 110
1, 17416, Note_on_c, 0, 64, 104
1, 17531, Note_off_c, 0, 64, 104
1, 17533, Note_on_c, 0, 67, 108
1, 17594, Note_off_c, 0, 67, 108
1, 17710, Note_on_c, 0, 67, 104
1, 17768, Note_off_c, 0, 67, 104
1, 17768, Note_on_c, 0, 71, 110
1, 17820, Note_off_c, 0, 71, 110
1, 17882, Note_on_c, 0, 63, 99
1, 17936, Note_off_c, 0, 63, 99
1, 17959, Note_on_c, 0, 67, 105
1, 18015, Note_off_c, 0, 67, 105
1, 18046, Note_on_c, 0, 71, 115
1, 18124, Note_off_c, 0, 71, 115
1, 18133, Note_on_c, 0, 67, 106
1, 18213, Note_off_c, 0, 67, 106
1, 18232, Note_on_c, 0, 69, 108
1, 18284, Note_off_c, 0, 69, 108
1, 18317, Note_on_c, 0, 71, 113
1, 18387, Note_off_c, 0, 71, 113
1, 18456, Note_on_c, 0, 74, 101
1, 18512, Note_off_c, 0, 74, 101
1, 18526, Note_on_c, 0, 68, 115
1, 18633, Note_off_c, 0, 68, 115
1, 18646, Note_on_c, 0, 72, 113
1, 18681, Note_off_c, 0, 72, 113
1, 18694, Note_on_c, 0, 71, 112
1, 18725, Note_off_c, 0, 71, 112
1, 18732, Note_on_c, 0, 70, 113
1, 18784, Note_off_c, 0, 70, 113
1, 18805, Note_on_c, 0, 68, 111
1, 18857, Note_off_c, 0, 68, 111
1, 18872, Note_on_c, 0, 67, 108
1, 18963, Note_off_c, 0, 67, 108
1, 18972, Note_on_c, 0, 62, 104
1, 19018, Note_off_c, 0, 62, 104
1, 19035, Note_on_c, 0, 65, 101
1, 19097, Note_off_c, 0, 65, 101
1, 19136, Note_on_c, 0, 67, 111
1, 19229, Note_off_c, 0, 67, 111
1, 19250, Note_on_c, 0, 64, 114
1, 19371, Note_off_c, 0, 64, 114
1, 19398, Note_on_c, 0, 66, 104
1, 19454, Note_off_c, 0, 66, 104
1, 19477, Note_on_c, 0, 68, 97
1, 19533, Note_off_c, 0, 68, 97
1, 19556, Note_on_c, 0, 70, 107
1, 19600, Note_off_c, 0, 70, 107
1, 19617, Note_on_c, 0, 73, 115
1, 19710, Note_off_c, 0, 73, 115
1, 19729, Note_on_c, 0, 70, 116
1, 19799, Note_off_c, 0, 70, 116
1, 19824, Note_on_c, 0, 68, 110
1, 19892, Note_off_c, 0, 68, 110
1, 19925, Note_on_c, 0, 66, 109
1, 19993, Note_off_c, 0, 66, 109
1, 19998, Note_on_c, 0, 63, 114
1, 20087, Note_off_c, 0, 63, 114
1, 20112, Note_on_c, 0, 61, 107
1, 20186, Note_off_c, 0, 61, 107
1, 20225, Note_on_c, 0, 59, 100
1, 20324, Note_off_c, 0, 59, 100
1, 20341, Note_on_c, 0, 55, 106
1, 20374, Note_off_c, 0, 55, 106
1, 20374, Note_on_c, 0, 60, 103
1, 20450, Note_off_c, 0, 60, 103
1, 20465, Note_on_c, 0, 62, 110
1, 20564, Note_off_c, 0, 62, 110
1, 20577, Note_on_c, 0, 63, 118
1, 20660, Note_off_c, 0, 63, 118
1, 20687, Note_on_c, 0, 65, 106
1, 20761, Note_off_c, 0, 65, 106
1, 20788, Note_on_c, 0, 67, 113
1, 20871, Note_off_c, 0, 67, 113
1, 20902, Note_on_c, 0, 65, 108
1, 20982, Note_off_c, 0, 65, 108
1, 21003, Note_on_c, 0, 62, 115
1, 21077, Note_off_c, 0, 62, 115
1, 21106, Note_on_c, 0, 60, 109
1, 21160, Note_off_c, 0, 60, 109
1, 21163, Note_on_c, 0, 58, 108
1, 21239, Note_off_c, 0, 58, 108
1, 21276, Note_on_c, 0, 68, 114
1, 21354, Note_off_c, 0, 68, 114
1, 21369, Note_on_c, 0, 67, 111
1, 21447, Note_off_c, 0, 67, 111
1, 21468, Note_on_c, 0, 62, 101
1, 21518, Note_off_c, 0, 62, 101
1, 21539, Note_on_c, 0, 65, 102
1, 21644, Note_off_c, 0, 65, 102
1, 21653, Note_on_c, 0, 63, 114
1, 21713, Note_off_c, 0, 63, 114
1, 21740, Note_on_c, 0, 62, 108
1, 21833, Note_off_c, 0, 62, 108
1, 21864, Note_on_c, 0, 60, 100
1, 21918, Note_off_c, 0, 60, 100
1, 21941, Note_on_c, 0, 64, 113
1, 22087, Note_off_c, 0, 64, 113
1, 22305, Note_on_c, 0, 70, 95
1, 22332, Note_off_c, 0, 70, 95
1, 22343, Note_on_c, 0, 71, 118
1, 22485, Note_off_c, 0, 71, 118
1, 22506, Note_on_c, 0, 69, 117
1, 22609, Note_off_c, 0, 69, 117
1, 22692, Note_on_c, 0, 69, 106
1, 23055, Note_off_c, 0, 69, 106
1, 23062, Note_on_c, 0, 66, 104
1, 23116, Note_off_c, 0, 66, 104
1, 23143, Note_on_c, 0, 62, 103
1, 23199, Note_off_c, 0, 62, 103
1, 23224, Note_on_c, 0, 59, 96
1, 23270, Note_off_c, 0, 59, 96
1, 23295, Note_on_c, 0, 57, 98
1, 23361, Note_off_c, 0, 57, 98
1, 23597, Note_on_c, 0, 68, 102
1, 23680, Note_off_c, 0, 68, 102
1, 23697, Note_on_c, 0, 69, 122
1, 23839, Note_off_c, 0, 69, 122
1, 23856, Note_on_c, 0, 68, 120
1, 24029, Note_off_c, 0, 68, 120
1, 24068, Note_on_c, 0, 71, 124
1, 24202, Note_off_c, 0, 71, 124
1, 24235, Note_on_c, 0, 70, 118
1, 24525, Note_off_c, 0, 70, 118
1, 24546, Note_on_c, 0, 66, 117
1, 24631, Note_off_c, 0, 66, 117
1, 24638, Note_on_c, 0, 63, 117
1, 24794, Note_off_c, 0, 63, 117
1, 24831, Note_on_c, 0, 59, 103
1, 24907, Note_off_c, 0, 59, 103
1, 24963, Note_on_c, 0, 70, 107
1, 25027, Note_off_c, 0, 70, 107
1, 25035, Note_on_c, 0, 71, 108
1, 25098, Note_off_c, 0, 71, 108
1, 25119, Note_on_c, 0, 74, 110
1, 25238, Note_off_c, 0, 74, 110
1, 25276, Note_on_c, 0, 72, 116
1, 25312, Note_off_c, 0, 72, 116
1, 25318, Note_on_c, 0, 71, 114
1, 25372, Note_off_c, 0, 71, 114
1, 25382, Note_on_c, 0, 70, 119
1, 25653, Note_off_c, 0, 70, 119
1, 25684, Note_on_c, 0, 68, 113
1, 25742, Note_off_c, 0, 68, 113
1, 25754, Note_on_c, 0, 67, 118
1, 25874, Note_off_c, 0, 67, 118
1, 25901, Note_on_c, 0, 65, 108
1, 26077, Note_off_c, 0, 65, 108
1, 26103, Note_on_c, 0, 63, 114
1, 26493, Note_off_c, 0, 63, 114
1, 26514, Note_on_c, 0, 61, 95
1, 26574, Note_off_c, 0, 61, 95
1, 26591, Note_on_c, 0, 63, 118
1, 26678, Note_off_c, 0, 63, 118
1, 26689, Note_on_c, 0, 66, 109
1, 26817, Note_off_c, 0, 66, 109
1, 26817, End_track
0, 0, End_of_file
