0, 0, Header, 1, 1, 192
1, 0, Start_track
1, 0, Title_t, "Melody"
1, 0, Tempo, 304568
1, 0, Time_signature, 3, 2, 24, 8
1, 1604, Note_on_c, 0, 62, 102
1, 1854, Note_off_c, 0, 62, 102
1, 1901, Note_on_c, 0, 64, 107
1, 2158, Note_off_c, 0, 64, 107
1, 2170, Note_on_c, 0, 64, 112
1, 2226, Note_off_c, 0, 64, 112
1, 2244, Note_on_c, 0, 65, 112
1, 2484, Note_off_c, 0, 65, 112
1, 2502, Note_on_c, 0, 64, 108
1, 2780, Note_off_c, 0, 64, 108
1, 2801, Note_on_c, 0, 62, 93
1, 3247, Note_off_c, 0, 62, 93
1, 3286, Note_on_c, 0, 60, 107
1, 3314, Note_off_c, 0, 60, 107
1, 3321, Note_on_c, 0, 58, 118
1, 3418, Note_off_c, 0, 58, 118
1, 3436, Note_on_c, 0, 57, 103
1, 3600, Note_off_c, 0, 57, 103
1, 3615, Note_on_c, 0, 58, 104
1, 3726, Note_off_c, 0, 58, 104
1, 3749, Note_on_c, 0, 60, 114
1, 3826, Note_off_c, 0, 60, 114
1, 3867, Note_on_c, 0, 63, 122
1, 4013, Note_off_c, 0, 63, 122
1, 4027, Note_on_c, 0, 62, 105
1, 4345, Note_off_c, 0, 62, 105
1, 4363, Note_on_c, 0, 55, 86
1, 4545, Note_off_c, 0, 55, 86
1, 4570, Note_on_c, 0, 57, 90
1, 5213, Note_off_c, 0, 57, 90
1, 5432, Note_on_c, 0, 60, 99
1, 5615, Note_off_c, 0, 60, 99
1, 5625, Note_on_c, 0, 62, 110
1, 5807, Note_off_c, 0, 62, 110
1, 6026, Note_on_c, 0, 63, 108
1, 6209, Note_off_c, 0, 63, 108
1, 6241, Note_on_c, 0, 65, 106
1, 6390, Note_off_c, 0, 65, 106
1, 6533, Note_on_c, 0, 67, 107
1, 6801, Note_off_c, 0, 67, 107
1, 6826, Note_on_c, 0, 68, 109
1, 6965, Note_off_c, 0, 68, 109
1, 7060, Note_on_c, 0, 58, 92
1, 7341, Note_off_c, 0, 58, 92
1, 7355, Note_on_c, 0, 60, 105
1, 7637, Note_off_c, 0, 60, 105
1, 7652, Note_on_c, 0, 61, 101
1, 7958, Note_off_c, 0, 61, 101
1, 7994, Note_on_c, 0, 63, 96
1, 8354, Note_off_c, 0, 63, 96
1, 8489, Note_on_c, 0, 53, 103
1, 8664, Note_off_c, 0, 53, 103
1, 8678, Note_on_c, 0, 55, 102
1, 8865, Note_off_c, 0, 55, 102
1, 8883, Note_on_c, 0, 56, 104
1, 9123, Note_off_c, 0, 56, 104
1, 9146, Note_on_c, 0, 58, 108
1, 9429, Note_off_c, 0, 58, 108
1, 9461, Note_on_c, 0, 60, 108
1, 9643, Note_off_c, 0, 60, 108
1, 9652, Note_on_c, 0, 61, 113
1, 9771, Note_off_c, 0, 61, 113
1, 9784, Note_on_c, 0, 63, 98
1, 10215, Note_off_c, 0, 63, 98
1, 10228, Note_on_c, 0, 65, 111
1, 10301, Note_off_c, 0, 65, 111
1, 10313, Note_on_c, 0, 67, 109
1, 10409, Note_off_c, 0, 67, 109
1, 10421, Note_on_c, 0, 68, 118
1, 10511, Note_off_c, 0, 68, 118
1, 10519, Note_on_c, 0, 70, 113
1, 10603, Note_off_c, 0, 70, 113
1, 10619, Note_on_c, 0, 72, 114
1, 10703, Note_off_c, 0, 72, 114
1, 10718, Note_on_c, 0, 73, 103
1, 10792, Note_off_c, 0, 73, 103
1, 10808, Note_on_c, 0, 72, 106
1, 10899, Note_off_c, 0, 72, 106
1, 10908, Note_on_c, 0, 68, 97
1, 10966, Note_off_c, 0, 68, 97
1, 10979, Note_on_c, 0, 63, 81
1, 11153, Note_off_c, 0, 63, 81
1, 11492, Note_on_c, 0, 72, 111
1, 11582, Note_off_c, 0, 72, 111
1, 11585, Note_on_c, 0, 71, 116
1, 11669, Note_off_c, 0, 71, 116
1, 11686, Note_on_c, 0, 67, 90
1, 11758, Note_off_c, 0, 67, 90
1, 11808, Note_on_c, 0, 62, 109
1, 12080, Note_off_c, 0, 62, 109
1, 12672, Note_on_c, 0, 71, 107
1, 12763, Note_off_c, 0, 71, 107
1, 12768, Note_on_c, 0, 69, 111
1, 12851, Note_off_c, 0, 69, 111
1, 12860, Note_on_c, 0, 64, 105
1, 12961, Note_off_c, 0, 64, 105
1, 12968, Note_on_c, 0, 61, 113
1, 13142, Note_off_c, 0, 61, 113
1, 13149, Note_on_c, 0, 57, 116
1, 13282, Note_off_c, 0, 57, 116
1, 13290, Note_on_c, 0, 55, 92
1, 13345, Note_off_c, 0, 55, 92
1, 13429, Note_on_c, 0, 53, 112
1, 13531, Note_off_c, 0, 53, 112
1, 13549, Note_on_c, 0, 52, 104
1, 13830, Note_off_c, 0, 52, 104
1, 13838, Note_on_c, 0, 55, 89
1, 14096, Note_off_c, 0, 55, 89
1, 14107, Note_on_c, 0, 53, 104
1, 14415, Note_off_c, 0, 53, 104
1, 14420, Note_on_c, 0, 57, 105
1, 14593, Note_off_c, 0, 57, 105
1, 14602, Note_on_c, 0, 53, 97
1, 14692, Note_off_c, 0, 53, 97
1, 14697, Note_on_c, 0, 55, 95
1, 14993, Note_off_c, 0, 55, 95
1, 15004, Note_on_c, 0, 59, 107
1, 15199, Note_off_c, 0, 59, 107
1, 15203, Note_on_c, 0, 55, 96
1, 15286, Note_off_c, 0, 55, 96
1, 15294, Note_on_c, 0, 57, 101
1, 15447, Note_off_c, 0, 57, 101
1, 15456, Note_on_c, 0, 59, 107
1, 15561, Note_off_c, 0, 59, 107
1, 15572, Note_on_c, 0, 60, 108
1, 15749, Note_off_c, 0, 60, 108
1, 15754, Note_on_c, 0, 65, 115
1, 15851, Note_off_c, 0, 65, 115
1, 15861, Note_on_c, 0, 64, 109
1, 16110, Note_off_c, 0, 64, 109
1, 16157, Note_on_c, 0, 60, 97
1, 16430, Note_off_c, 0, 60, 97
1, 16456, Note_on_c, 0, 57, 86
1, 16999, Note_off_c, 0, 57, 86
1, 17237, Note_on_c, 0, 56, 95
1, 17319, Note_off_c, 0, 56, 95
1, 17393, Note_on_c, 0, 57, 105
1, 17488, Note_off_c, 0, 57, 105
1, 17585, Note_on_c, 0, 59, 110
1, 17751, Note_off_c, 0, 59, 110
1, 17768, Note_on_c, 0, 60, 102
1, 17900, Note_off_c, 0, 60, 102
1, 17907, Note_on_c, 0, 62, 121
1, 18012, Note_off_c, 0, 62, 121
1, 18018, Note_on_c, 0, 64, 109
1, 18164, Note_off_c, 0, 64, 109
1, 18176, Note_on_c, 0, 65, 117
1, 18353, Note_off_c, 0, 65, 117
1, 18371, Note_on_c, 0, 67, 105
1, 18478, Note_off_c, 0, 67, 105
1, 18492, Note_on_c, 0, 64, 99
1, 18648, Note_off_c, 0, 64, 99
1, 18656, Note_on_c, 0, 61, 102
1, 18787, Note_off_c, 0, 61, 102
1, 18798, Note_on_c, 0, 57, 98
1, 19106, Note_off_c, 0, 57, 98
1, 19111, Note_on_c, 0, 58, 115
1, 19196, Note_off_c, 0, 58, 115
1, 19206, Note_on_c, 0, 62, 115
1, 19293, Note_off_c, 0, 62, 115
1, 19300, Note_on_c, 0, 65, 110
1, 19379, Note_off_c, 0, 65, 110
1, 19383, Note_on_c, 0, 70, 119
1, 19476, Note_off_c, 0, 70, 119
1, 19479, Note_on_c, 0, 74, 106
1, 19564, Note_off_c, 0, 74, 106
1, 19574, Note_on_c, 0, 72, 97
1, 19665, Note_off_c, 0, 72, 97
1, 19669, Note_on_c, 0, 70, 112
1, 19747, Note_off_c, 0, 70, 112
1, 19761, Note_on_c, 0, 69, 108
1, 19856, Note_off_c, 0, 69, 108
1, 19866, Note_on_c, 0, 65, 107
1, 19936, Note_off_c, 0, 65, 107
1, 19970, Note_on_c, 0, 60, 110
1, 20040, Note_off_c, 0, 60, 110
1, 20049, Note_on_c, 0, 59, 103
1, 20119, Note_off_c, 0, 59, 103
1, 20125, Note_on_c, 0, 58, 112
1, 20231, Note_off_c, 0, 58, 112
1, 20251, Note_on_c, 0, 55, 103
1, 20335, Note_off_c, 0, 55, 103
1, 20344, Note_on_c, 0, 53, 99
1, 20412, Note_off_c, 0, 53, 99
1, 20417, Note_on_c, 0, 52, 105
1, 20499, Note_off_c, 0, 52, 105
1, 20510, Note_on_c, 0, 50, 104
1, 20800, Note_off_c, 0, 50, 104
1, 20807, Note_on_c, 0, 51, 104
1, 21055, Note_off_c, 0, 51, 104
1, 21070, Note_on_c, 0, 55, 108
1, 21248, Note_off_c, 0, 55, 108
1, 21267, Note_on_c, 0, 58, 115
1, 21417, Note_off_c, 0, 58, 115
1, 21427, Note_on_c, 0, 60, 118
1, 21586, Note_off_c, 0, 60, 118
1, 21592, Note_on_c, 0, 62, 112
1, 21804, Note_off_c, 0, 62, 112
1, 21817, Note_on_c, 0, 63, 99
1, 21970, Note_off_c, 0, 63, 99
1, 21978, Note_on_c, 0, 65, 110
1, 22144, Note_off_c, 0, 65, 110
1, 22154, Note_on_c, 0, 67, 110
1, 22251, Note_off_c, 0, 67, 110
1, 22263, Note_on_c, 0, 69, 104
1, 22417, Note_off_c, 0, 69, 104
1, 22428, Note_on_c, 0, 70, 116
1, 22524, Note_off_c, 0, 70, 116
1, 22553, Note_on_c, 0, 72, 111
1, 22642, Note_off_c, 0, 72, 111
1, 22650, Note_on_c, 0, 73, 103
1, 22780, Note_off_c, 0, 73, 103
1, 22790, Note_on_c, 0, 72, 101
1, 23090, Note_off_c, 0, 72, 101
1, 23098, Note_on_c, 0, 68, 105
1, 23320, Note_off_c, 0, 68, 105
1, 23359, Note_on_c, 0, 63, 99
1, 23657, Note_off_c, 0, 63, 99
1, 23680, Note_on_c, 0, 68, 108
1, 23774, Note_off_c, 0, 68, 108
1, 23827, Note_on_c, 0, 72, 108
1, 23923, Note_off_c, 0, 72, 108
1, 23946, Note_on_c, 0, 70, 103
1, 24240, Note_off_c, 0, 70, 103
1, 24250, Note_on_c, 0, 65, 108
1, 24498, Note_off_c, 0, 65, 108
1, 24512, Note_on_c, 0, 61, 99
1, 24824, Note_off_c, 0, 61, 99
1, 24845, Note_on_c, 0, 63, 112
1, 25098, Note_off_c, 0, 63, 112
1, 25112, Note_on_c, 0, 65, 108
1, 25200, Note_off_c, 0, 65, 108
1, 25207, Note_on_c, 0, 67, 121
1, 25271, Note_off_c, 0, 67, 121
1, 25276, Note_on_c, 0, 68, 100
1, 25355, Note_off_c, 0, 68, 100
1, 25372, Note_on_c, 0, 70, 98
1, 25424, Note_off_c, 0, 70, 98
1, 25465, Note_on_c, 0, 72, 107
1, 25593, Note_off_c, 0, 72, 107
1, 25600, Note_on_c, 0, 70, 111
1, 25637, Note_off_c, 0, 70, 111
1, 25637, Note_on_c, 0, 73, 106
1, 25750, Note_off_c, 0, 73, 106
1, 25764, Note_on_c, 0, 70, 104
1, 25809, Note_off_c, 0, 70, 104
1, 25836, Note_on_c, 0, 74, 97
1, 25960, Note_off_c, 0, 74, 97
1, 25966, Note_on_c, 0, 71, 100
1, 26005, Note_off_c, 0, 71, 100
1, 26033, Note_on_c, 0, 75, 100
1, 26134, Note_off_c, 0, 75, 100
1, 26144, Note_on_c, 0, 73, 117
1, 26205, Note_off_c, 0, 73, 117
1, 26210, Note_on_c, 0, 72, 119
1, 26296, Note_off_c, 0, 72, 119
1, 26308, Note_on_c, 0, 70, 112
1, 26385, Note_off_c, 0, 70, 112
1, 26394, Note_on_c, 0, 68, 97
1, 26488, Note_off_c, 0, 68, 97
1, 26502, Note_on_c, 0, 65, 111
1, 26601, Note_off_c, 0, 65, 111
1, 26608, Note_on_c, 0, 63, 115
1, 26681, Note_off_c, 0, 63, 115
1, 26691, Note_on_c, 0, 61, 110
1, 26758, Note_off_c, 0, 61, 110
1, 26766, Note_on_c, 0, 60, 104
1, 26837, Note_off_c, 0, 60, 104
1, 26896, Note_on_c, 0, 58, 102
1, 26934, Note_off_c, 0, 58, 102
1, 26939, Note_on_c, 0, 63, 117
1, 27047, Note_off_c, 0, 63, 117
1, 27054, Note_on_c, 0, 59, 108
1, 27101, Note_off_c, 0, 59, 108
1, 27131, Note_on_c, 0, 62, 115
1, 27277, Note_off_c, 0, 62, 115
1, 27295, Note_on_c, 0, 60, 117
1, 27423, Note_off_c, 0, 60, 117
1, 27446, Note_on_c, 0, 52, 109
1, 27507, Note_off_c, 0, 52, 109
1, 27521, Note_on_c, 0, 55, 103
1, 27600, Note_off_c, 0, 55, 103
1, 27617, Note_on_c, 0, 60, 106
1, 27697, Note_off_c, 0, 60, 106
1, 27705, Note_on_c, 0, 59, 107
1, 27809, Note_off_c, 0, 59, 107
1, 27828, Note_on_c, 0, 50, 111
1, 27894, Note_off_c, 0, 50, 111
1, 27901, Note_on_c, 0, 55, 112
1, 27995, Note_off_c, 0, 55, 112
1, 27999, Note_on_c, 0, 59, 121
1, 28079, Note_off_c, 0, 59, 121
1, 28088, Note_on_c, 0, 57, 115
1, 28172, Note_off_c, 0, 57, 115
1, 28184, Note_on_c, 0, 52, 110
1, 28237, Note_off_c, 0, 52, 110
1, 28372, Note_on_c, 0, 57, 105
1, 28478, Note_off_c, 0, 57, 105
1, 28491, Note_on_c, 0, 55, 106
1, 28555, Note_off_c, 0, 55, 106
1, 28571, Note_on_c, 0, 61, 124
1, 28637, Note_off_c, 0, 61, 124
1, 28643, Note_on_c, 0, 59, 124
1, 28730, Note_off_c, 0, 59, 124
1, 28740, Note_on_c, 0, 57, 120
1, 28827, Note_off_c, 0, 57, 120
1, 28830, Note_on_c, 0, 55, 113
1, 28909, Note_off_c, 0, 55, 113
1, 28919, Note_on_c, 0, 53, 99
1, 29057, Note_off_c, 0, 53, 99
1, 29067, Note_on_c, 0, 52, 109
1, 29127, Note_off_c, 0, 52, 109
1, 29131, Note_on_c, 0, 50, 107
1, 29210, Note_off_c, 0, 50, 107
1, 29217, Note_on_c, 0, 49, 99
1, 29460, Note_off_c, 0, 49, 99
1, 29786, Note_on_c, 0, 53, 92
1, 29871, Note_off_c, 0, 53, 92
1, 29877, Note_on_c, 0, 50, 107
1, 29931, Note_off_c, 0, 50, 107
1, 29952, Note_on_c, 0, 55, 110
1, 30134, Note_off_c, 0, 55, 110
1, 30148, Note_on_c, 0, 57, 103
1, 30409, Note_off_c, 0, 57, 103
1, 30419, Note_on_c, 0, 59, 121
1, 30610, Note_off_c, 0, 59, 121
1, 30618, Note_on_c, 0, 55, 99
1, 30661, Note_off_c, 0, 55, 99
1, 30698, Note_on_c, 0, 60, 108
1, 30876, Note_off_c, 0, 60, 108
1, 30883, Note_on_c, 0, 62, 115
1, 30990, Note_off_c, 0, 62, 115
1, 30999, Note_on_c, 0, 64, 112
1, 31168, Note_off_c, 0, 64, 112
1, 31194, Note_on_c, 0, 57, 116
1, 31269, Note_off_c, 0, 57, 116
1, 31287, Note_on_c, 0, 65, 125
1, 31389, Note_off_c, 0, 65, 125
1, 31397, Note_on_c, 0, 65, 113
1, 31486, Note_off_c, 0, 65, 113
1, 31500, Note_on_c, 0, 64, 115
1, 31570, Note_off_c, 0, 64, 115
1, 31576, Note_on_c, 0, 63, 106
1, 31651, Note_off_c, 0, 63, 106
1, 31663, Note_on_c, 0, 62, 107
1, 31747, Note_off_c, 0, 62, 107
1, 31756, Note_on_c, 0, 60, 113
1, 31857, Note_off_c, 0, 60, 113
1, 31865, Note_on_c, 0, 59, 113
1, 31929, Note_off_c, 0, 59, 113
1, 31939, Note_on_c, 0, 60, 119
1, 32012, Note_off_c, 0, 60, 119
1, 32026, Note_on_c, 0, 62, 116
1, 32121, Note_off_c, 0, 62, 116
1, 32129, Note_on_c, 0, 65, 124
1, 32216, Note_off_c, 0, 65, 124
1, 32222, Note_on_c, 0, 64, 98
1, 32379, Note_off_c, 0, 64, 98
1, 32402, Note_on_c, 0, 57, 114
1, 32498, Note_off_c, 0, 57, 114
1, 32507, Note_on_c, 0, 53, 117
1, 32570, Note_off_c, 0, 53, 117
1, 32582, Note_on_c, 0, 52, 110
1, 32704, Note_off_c, 0, 52, 110
1, 33243, Note_on_c, 0, 55, 108
1, 33305, Note_off_c, 0, 55, 108
1, 33316, Note_on_c, 0, 52, 112
1, 33521, Note_off_c, 0, 52, 112
1, 33526, Note_on_c, 0, 53, 99
1, 33696, Note_off_c, 0, 53, 99
1, 33707, Note_on_c, 0, 55, 108
1, 33791, Note_off_c, 0, 55, 108
1, 33801, Note_on_c, 0, 57, 113
1, 33905, Note_off_c, 0, 57, 113
1, 33912, Note_on_c, 0, 59, 110
1, 33981, Note_off_c, 0, 59, 110
1, 33989, Note_on_c, 0, 60, 93
1, 34054, Note_off_c, 0, 60, 93
1, 34064, Note_on_c, 0, 62, 106
1, 34243, Note_off_c, 0, 62, 106
1, 34248, Note_on_c, 0, 64, 119
1, 34379, Note_off_c, 0, 64, 119
1, 34391, Note_on_c, 0, 65, 108
1, 34539, Note_off_c, 0, 65, 108
1, 34546, Note_on_c, 0, 67, 105
1, 34609, Note_off_c, 0, 67, 105
1, 34643, Note_on_c, 0, 72, 115
1, 34793, Note_off_c, 0, 72, 115
1, 34834, Note_on_c, 0, 76, 117
1, 35003, Note_off_c, 0, 76, 117
1, 35010, Note_on_c, 0, 76, 115
1, 35166, Note_off_c, 0, 76, 115
1, 35177, Note_on_c, 0, 72, 82
1, 35220, Note_off_c, 0, 72, 82
1, 35428, Note_on_c, 0, 76, 116
1, 35549, Note_off_c, 0, 76, 116
1, 35603, Note_on_c, 0, 76, 115
1, 35711, Note_off_c, 0, 76, 115
1, 35723, Note_on_c, 0, 76, 123
1, 35790, Note_off_c, 0, 76, 123
1, 35804, Note_on_c, 0, 72, 99
1, 35888, Note_off_c, 0, 72, 99
1, 35900, Note_on_c, 0, 69, 88
1, 35978, Note_off_c, 0, 69, 88
1, 36000, Note_on_c, 0, 67, 85
1, 36068, Note_off_c, 0, 67, 85
1, 36083, Note_on_c, 0, 72, 111
1, 36147, Note_off_c, 0, 72, 111
1, 36164, Note_on_c, 0, 75, 119
1, 36292, Note_off_c, 0, 75, 119
1, 36306, Note_on_c, 0, 72, 109
1, 36347, Note_off_c, 0, 72, 109
1, 36354, Note_on_c, 0, 74, 114
1, 36475, Note_off_c, 0, 74, 114
1, 36489, Note_on_c, 0, 69, 82
1, 36521, Note_off_c, 0, 69, 82
1, 36544, Note_on_c, 0, 72, 112
1, 36658, Note_off_c, 0, 72, 112
1, 36685, Note_on_c, 0, 67, 110
1, 36810, Note_off_c, 0, 67, 110
1, 36856, Note_on_c, 0, 64, 94
1, 36894, Note_off_c, 0, 64, 94
1, 36905, Note_on_c, 0, 66, 108
1, 37052, Note_off_c, 0, 66, 108
1, 37088, Note_on_c, 0, 65, 107
1, 37231, Note_off_c, 0, 65, 107
1, 37403, Note_on_c, 0, 63, 105
1, 37462, Note_off_c, 0, 63, 105
1, 37471, Note_on_c, 0, 62, 105
1, 37593, Note_off_c, 0, 62, 105
1, 37607, Note_on_c, 0, 57, 49
1, 37665, Note_off_c, 0, 57, 49
1, 37680, Note_on_c, 0, 60, 122
1, 37856, Note_off_c, 0, 60, 122
1, 37962, Note_on_c, 0, 59, 125
1, 38026, Note_off_c, 0, 59, 125
1, 38033, Note_on_c, 0, 58, 115
1, 38121, Note_off_c, 0, 58, 115
1, 38133, Note_on_c, 0, 55, 114
1, 38222, Note_off_c, 0, 55, 114
1, 38229, Note_on_c, 0, 53, 104
1, 38299, Note_off_c, 0, 53, 104
1, 38729, Note_on_c, 0, 50, 112
1, 38782, Note_off_c, 0, 50, 112
1, 38789, Note_on_c, 0, 48, 112
1, 38904, Note_off_c, 0, 48, 112
1, 38907, Note_on_c, 0, 51, 119
1, 38966, Note_off_c, 0, 51, 119
1, 38972, Note_on_c, 0, 53, 111
1, 39136, Note_off_c, 0, 53, 111
1, 39159, Note_on_c, 0, 55, 106
1, 39285, Note_off_c, 0, 55, 106
1, 39339, Note_on_c, 0, 56, 114
1, 39474, Note_off_c, 0, 56, 114
1, 39547, Note_on_c, 0, 58, 125
1, 39652, Note_off_c, 0, 58, 125
1, 39665, Note_on_c, 0, 60, 121
1, 39755, Note_off_c, 0, 60, 121
1, 39761, Note_on_c, 0, 61, 110
1, 39840, Note_off_c, 0, 61, 110
1, 39846, Note_on_c, 0, 57, 104
1, 39911, Note_off_c, 0, 57, 104
1, 39922, Note_on_c, 0, 61, 110
1, 40007, Note_off_c, 0, 61, 110
1, 40023, Note_on_c, 0, 65, 117
1, 40110, Note_off_c, 0, 65, 117
1, 40122, Note_on_c, 0, 63, 98
1, 40271, Note_off_c, 0, 63, 98
1, 40289, Note_on_c, 0, 63, 117
1, 40380, Note_off_c, 0, 63, 117
1, 40399, Note_on_c, 0, 67, 127
1, 40483, Note_off_c, 0, 67, 127
1, 40487, Note_on_c, 0, 65, 118
1, 40590, Note_off_c, 0, 65, 118
1, 40671, Note_on_c, 0, 65, 98
1, 40766, Note_off_c, 0, 65, 98
1, 40783, Note_on_c, 0, 64, 118
1, 40894, Note_off_c, 0, 64, 118
1, 40917, Note_on_c, 0, 63, 92
1, 41129, Note_off_c, 0, 63, 92
1, 41208, Note_on_c, 0, 63, 106
1, 41305, Note_off_c, 0, 63, 106
1, 41342, Note_on_c, 0, 55, 101
1, 41412, Note_off_c, 0, 55, 101
1, 41438, Note_on_c, 0, 58, 125
1, 41514, Note_off_c, 0, 58, 125
1, 41526, Note_on_c, 0, 63, 109
1, 41571, Note_off_c, 0, 63, 109
1, 41580, Note_on_c, 0, 62, 115
1, 41680, Note_off_c, 0, 62, 115
1, 41704, Note_on_c, 0, 53, 114
1, 41754, Note_off_c, 0, 53, 114
1, 41808, Note_on_c, 0, 57, 100
1, 41858, Note_off_c, 0, 57, 100
1, 41888, Note_on_c, 0, 62, 116
1, 41951, Note_off_c, 0, 62, 116
1, 41967, Note_on_c, 0, 61, 107
1, 42070, Note_off_c, 0, 61, 107
1, 42087, Note_on_c, 0, 53, 101
1, 42138, Note_off_c, 0, 53, 101
1, 42173, Note_on_c, 0, 56, 106
1, 42207, Note_off_c, 0, 56, 106
1, 42230, Note_on_c, 0, 61, 113
1, 42294, Note_off_c, 0, 61, 113
1, 42299, Note_on_c, 0, 55, 109
1, 42389, Note_off_c, 0, 55, 109
1, 42420, Note_on_c, 0, 63, 119
1, 42483, Note_off_c, 0, 63, 119
1, 42492, Note_on_c, 0, 61, 123
1, 42559, Note_off_c, 0, 61, 123
1, 42568, Note_on_c, 0, 57, 118
1, 42631, Note_off_c, 0, 57, 118
1, 42667, Note_on_c, 0, 60, 119
1, 42760, Note_off_c, 0, 60, 119
1, 42766, Note_on_c, 0, 61, 104
1, 42944, Note_off_c, 0, 61, 104
1, 43050, Note_on_c, 0, 70, 120
1, 43106, Note_off_c, 0, 70, 120
1, 43121, Note_on_c, 0, 71, 120
1, 43186, Note_off_c, 0, 71, 120
1, 43216, Note_on_c, 0, 70, 112
1, 43284, Note_off_c, 0, 70, 112
1, 43293, Note_on_c, 0, 71, 120
1, 43384, Note_off_c, 0, 71, 120
1, 43413, Note_on_c, 0, 67, 115
1, 43486, Note_off_c, 0, 67, 115
1, 43509, Note_on_c, 0, 62, 109
1, 43579, Note_off_c, 0, 62, 109
1, 43621, Note_on_c, 0, 64, 113
1, 43735, Note_off_c, 0, 64, 113
1, 43787, Note_on_c, 0, 64, 119
1, 43916, Note_off_c, 0, 64, 119
1, 43973, Note_on_c, 0, 62, 107
1, 44064, Note_off_c, 0, 62, 107
1, 44078, Note_on_c, 0, 61, 117
1, 44148, Note_off_c, 0, 61, 117
1, 44158, Note_on_c, 0, 59, 121
1, 44277, Note_off_c, 0, 59, 121
1, 44291, Note_on_c, 0, 57, 115
1, 44341, Note_off_c, 0, 57, 115
1, 44351, Note_on_c, 0, 55, 110
1, 44426, Note_off_c, 0, 55, 110
1, 44431, Note_on_c, 0, 53, 110
1, 44524, Note_off_c, 0, 53, 110
1, 44534, Note_on_c, 0, 52, 103
1, 44595, Note_off_c, 0, 52, 103
1, 44607, Note_on_c, 0, 50, 114
1, 44719, Note_off_c, 0, 50, 114
1, 44727, Note_on_c, 0, 49, 109
1, 44874, Note_off_c, 0, 49, 109
1, 44880, Note_on_c, 0, 50, 111
1, 44991, Note_off_c, 0, 50, 111
1, 45007, Note_on_c, 0, 52, 98
1, 45088, Note_off_c, 0, 52, 98
1, 45156, Note_on_c, 0, 55, 105
1, 45220, Note_off_c, 0, 55, 105
1, 45255, Note_on_c, 0, 52, 100
1, 45547, Note_off_c, 0, 52, 100
1, 45556, Note_on_c, 0, 57, 115
1, 45761, Note_off_c, 0, 57, 115
1, 45819, Note_on_c, 0, 59, 120
1, 46111, Note_off_c, 0, 59, 120
1, 46119, Note_on_c, 0, 60, 125
1, 46359, Note_off_c, 0, 60, 125
1, 46374, Note_on_c, 0, 62, 112
1, 46603, Note_off_c, 0, 62, 112
1, 46617, Note_on_c, 0, 60, 110
1, 46675, Note_off_c, 0, 60, 110
1, 46684, Note_on_c, 0, 64, 114
1, 46867, Note_off_c, 0, 64, 114
1, 46872, Note_on_c, 0, 62, 99
1, 46908, Note_off_c, 0, 62, 99
1, 46940, Note_on_c, 0, 65, 118
1, 47174, Note_off_c, 0, 65, 118
1, 47211, Note_on_c, 0, 62, 109
1, 47445, Note_off_c, 0, 62, 109
1, 47472, Note_on_c, 0, 64, 108
1, 47745, Note_off_c, 0, 64, 108
1, 47779, Note_on_c, 0, 60, 107
1, 48026, Note_off_c, 0, 60, 107
1, 48051, Note_on_c, 0, 62, 101
1, 48319, Note_off_c, 0, 62, 101
1, 48348, Note_on_c, 0, 59, 108
1, 48604, Note_off_c, 0, 59, 108
1, 48604, Note_on_c, 0, 60, 108
1, 48810, Note_off_c, 0, 60, 108
1, 48818, Note_on_c, 0, 59, 108
1, 48911, Note_off_c, 0, 59, 108
1, 48920, Note_on_c, 0, 57, 94
1, 49392, Note_off_c, 0, 57, 94
1, 49395, Note_on_c, 0, 59, 108
1, 49526, Note_off_c, 0, 59, 108
1, 49569, Note_on_c, 0, 60, 99
1, 49619, Note_off_c, 0, 60, 99
1, 49784, Note_on_c, 0, 62, 82
1, 50978, Note_off_c, 0, 62, 82
1, 50978, End_track
0, 0, End_of_file
