0, 0, Header, 1, 1, 420
1, 0, Start_track
1, 0, Title_t, "Melody"
1, 0, Tempo, 338983
1, 0, Key_signature, -2, "major"
1, 0, Time_signature, 4, 2, 24, 8
1, 5833, Note_on_c, 0, 56, 104
1, 6020, Note_off_c, 0, 56, 104
1, 6063, Note_on_c, 0, 58, 101
1, 6224, Note_off_c, 0, 58, 101
1, 6224, Note_on_c, 0, 58, 80
1, 6224, Note_off_c, 0, 58, 80
1, 6446, Note_on_c, 0, 60, 104
1, 6622, Note_off_c, 0, 60, 104
1, 6804, Note_on_c, 0, 63, 113
1, 6945, Note_off_c, 0, 63, 113
1, 6965, Note_on_c, 0, 65, 105
1, 7794, Note_off_c, 0, 65, 105
1, 7834, Note_on_c, 0, 68, 108
1, 8036, Note_off_c, 0, 68, 108
1, 8036, Note_on_c, 0, 70, 105
1, 8885, Note_off_c, 0, 70, 105
1, 9067, Note_on_c, 0, 68, 107
1, 9203, Note_off_c, 0, 68, 107
1, 9203, Note_on_c, 0, 67, 104
1, 9319, Note_off_c, 0, 67, 104
1, 9319, Note_on_c, 0, 65, 108
1, 9490, Note_off_c, 0, 65, 108
1, 11563, Note_on_c, 0, 63, 114
1, 11836, Note_off_c, 0, 63, 114
1, 11836, Note_on_c, 0, 65, 108
1, 12361, Note_off_c, 0, 65, 108
1, 12371, Note_on_c, 0, 60, 99
1, 12522, Note_off_c, 0, 60, 99
1, 12542, Note_on_c, 0, 61, 101
1, 12597, Note_off_c, 0, 61, 101
1, 12612, Note_on_c, 0, 62, 103
1, 12672, Note_off_c, 0, 62, 103
1, 12722, Note_on_c, 0, 63, 109
1, 13106, Note_off_c, 0, 63, 109
1, 16630, Note_on_c, 0, 69, 112
1, 16872, Note_off_c, 0, 69, 112
1, 17008, Note_on_c, 0, 64, 107
1, 17240, Note_off_c, 0, 64, 107
1, 17240, Note_on_c, 0, 60, 93
1, 17401, Note_off_c, 0, 60, 93
1, 17490, Note_on_c, 0, 58, 83
1, 17667, Note_off_c, 0, 58, 83
1, 18315, Note_on_c, 0, 69, 106
1, 18476, Note_off_c, 0, 69, 106
1, 18486, Note_on_c, 0, 70, 102
1, 18632, Note_off_c, 0, 70, 102
1, 18789, Note_on_c, 0, 67, 85
1, 18925, Note_off_c, 0, 67, 85
1, 18990, Note_on_c, 0, 63, 109
1, 19146, Note_off_c, 0, 63, 109
1, 19191, Note_on_c, 0, 62, 103
1, 19362, Note_off_c, 0, 62, 103
1, 19407, Note_on_c, 0, 60, 96
1, 19644, Note_off_c, 0, 60, 96
1, 19659, Note_on_c, 0, 63, 111
1, 19785, Note_off_c, 0, 63, 111
1, 19820, Note_on_c, 0, 65, 101
1, 20174, Note_off_c, 0, 65, 101
1, 20229, Note_on_c, 0, 65, 102
1, 20375, Note_off_c, 0, 65, 102
1, 20375, Note_on_c, 0, 62, 99
1, 20516, Note_off_c, 0, 62, 99
1, 20546, Note_on_c, 0, 60, 99
1, 20707, Note_off_c, 0, 60, 99
1, 20757, Note_on_c, 0, 59, 91
1, 20999, Note_off_c, 0, 59, 91
1, 21433, Note_on_c, 0, 63, 113
1, 21650, Note_off_c, 0, 63, 113
1, 21650, Note_on_c, 0, 62, 108
1, 21756, Note_off_c, 0, 62, 108
1, 21781, Note_on_c, 0, 63, 109
1, 21887, Note_off_c, 0, 63, 109
1, 21892, Note_on_c, 0, 62, 104
1, 22003, Note_off_c, 0, 62, 104
1, 22018, Note_on_c, 0, 60, 96
1, 22220, Note_off_c, 0, 60, 96
1, 22397, Note_on_c, 0, 64, 104
1, 22462, Note_off_c, 0, 64, 104
1, 22467, Note_on_c, 0, 65, 106
1, 22719, Note_off_c, 0, 65, 106
1, 22810, Note_on_c, 0, 61, 96
1, 22901, Note_off_c, 0, 61, 96
1, 22911, Note_on_c, 0, 62, 101
1, 23244, Note_off_c, 0, 62, 101
1, 23264, Note_on_c, 0, 58, 89
1, 23572, Note_off_c, 0, 58, 89
1, 26965, Note_on_c, 0, 60, 103
1, 27066, Note_off_c, 0, 60, 103
1, 27111, Note_on_c, 0, 62, 110
1, 27343, Note_off_c, 0, 62, 110
1, 27363, Note_on_c, 0, 63, 115
1, 27534, Note_off_c, 0, 63, 115
1, 27534, Note_on_c, 0, 65, 106
1, 27756, Note_off_c, 0, 65, 106
1, 27761, Note_on_c, 0, 67, 101
1, 27953, Note_off_c, 0, 67, 101
1, 27958, Note_on_c, 0, 68, 102
1, 28135, Note_off_c, 0, 68, 102
1, 28160, Note_on_c, 0, 70, 107
1, 28301, Note_off_c, 0, 70, 107
1, 28397, Note_on_c, 0, 70, 100
1, 28472, Note_off_c, 0, 70, 100
1, 28472, Note_on_c, 0, 72, 102
1, 28962, Note_off_c, 0, 72, 102
1, 29017, Note_on_c, 0, 60, 90
1, 29168, Note_off_c, 0, 60, 90
1, 29178, Note_on_c, 0, 63, 111
1, 29395, Note_off_c, 0, 63, 111
1, 29410, Note_on_c, 0, 62, 84
1, 29571, Note_off_c, 0, 62, 84
1, 29687, Note_on_c, 0, 72, 94
1, 29808, Note_off_c, 0, 72, 94
1, 29808, Note_on_c, 0, 70, 98
1, 30521, Note_on_c, 0, 69, 103
1, 30521, Note_off_c, 0, 70, 98
1, 30596, Note_off_c, 0, 69, 103
1, 30596, Note_on_c, 0, 68, 98
1, 30661, Note_off_c, 0, 68, 98
1, 30666, Note_on_c, 0, 67, 97
1, 30853, Note_off_c, 0, 67, 97
1, 30969, Note_on_c, 0, 67, 100
1, 31135, Note_off_c, 0, 67, 100
1, 31155, Note_on_c, 0, 63, 107
1, 31286, Note_off_c, 0, 63, 107
1, 31361, Note_on_c, 0, 63, 102
1, 31603, Note_off_c, 0, 63, 102
1, 31603, Note_on_c, 0, 61, 95
1, 31769, Note_off_c, 0, 61, 95
1, 31875, Note_on_c, 0, 61, 96
1, 32092, Note_off_c, 0, 61, 96
1, 35176, Note_on_c, 0, 70, 110
1, 35353, Note_off_c, 0, 70, 110
1, 35358, Note_on_c, 0, 66, 105
1, 35529, Note_off_c, 0, 66, 105
1, 35544, Note_on_c, 0, 63, 112
1, 35791, Note_off_c, 0, 63, 112
1, 35796, Note_on_c, 0, 60, 97
1, 35957, Note_off_c, 0, 60, 97
1, 35982, Note_on_c, 0, 59, 92
1, 36128, Note_off_c, 0, 59, 92
1, 36178, Note_on_c, 0, 69, 103
1, 36319, Note_off_c, 0, 69, 103
1, 36339, Note_on_c, 0, 65, 97
1, 36424, Note_off_c, 0, 65, 97
1, 36464, Note_on_c, 0, 62, 97
1, 36544, Note_off_c, 0, 62, 97
1, 36599, Note_on_c, 0, 60, 88
1, 36720, Note_off_c, 0, 60, 88
1, 36720, Note_on_c, 0, 67, 93
1, 36811, Note_off_c, 0, 67, 93
1, 36831, Note_on_c, 0, 70, 92
1, 36927, Note_off_c, 0, 70, 92
1, 36942, Note_on_c, 0, 67, 97
1, 37053, Note_off_c, 0, 67, 97
1, 37058, Note_on_c, 0, 64, 96
1, 37169, Note_off_c, 0, 64, 96
1, 37219, Note_on_c, 0, 61, 98
1, 37446, Note_off_c, 0, 61, 98
1, 37557, Note_on_c, 0, 67, 106
1, 37769, Note_off_c, 0, 67, 106
1, 37829, Note_on_c, 0, 63, 108
1, 38000, Note_off_c, 0, 63, 108
1, 38020, Note_on_c, 0, 62, 106
1, 38257, Note_off_c, 0, 62, 106
1, 38322, Note_on_c, 0, 60, 82
1, 38443, Note_off_c, 0, 60, 82
1, 38680, Note_on_c, 0, 65, 100
1, 38846, Note_off_c, 0, 65, 100
1, 39088, Note_on_c, 0, 62, 87
1, 39239, Note_off_c, 0, 62, 87
1, 39284, Note_on_c, 0, 65, 108
1, 39435, Note_off_c, 0, 65, 108
1, 39526, Note_on_c, 0, 61, 101
1, 39682, Note_off_c, 0, 61, 101
1, 39732, Note_on_c, 0, 57, 90
1, 39863, Note_off_c, 0, 57, 90
1, 40050, Note_on_c, 0, 60, 94
1, 40333, Note_off_c, 0, 60, 94
1, 40333, Note_on_c, 0, 53, 85
1, 40454, Note_off_c, 0, 53, 85
1, 40474, Note_on_c, 0, 55, 93
1, 40721, Note_off_c, 0, 55, 93
1, 40766, Note_on_c, 0, 58, 91
1, 41241, Note_off_c, 0, 58, 91
1, 44265, Note_on_c, 0, 61, 103
1, 44391, Note_off_c, 0, 61, 103
1, 44391, Note_on_c, 0, 62, 111
1, 44760, Note_off_c, 0, 62, 111
1, 44760, Note_on_c, 0, 67, 104
1, 45078, Note_off_c, 0, 67, 104
1, 45118, Note_on_c, 0, 63, 112
1, 45674, Note_off_c, 0, 63, 112
1, 45674, Note_on_c, 0, 65, 96
1, 45709, Note_off_c, 0, 65, 96
1, 45709, Note_on_c, 0, 67, 99
1, 45754, Note_off_c, 0, 67, 99
1, 45784, Note_on_c, 0, 68, 99
1, 45824, Note_off_c, 0, 68, 99
1, 45849, Note_on_c, 0, 70, 111
1, 46020, Note_off_c, 0, 70, 111
1, 46222, Note_on_c, 0, 64, 106
1, 46500, Note_off_c, 0, 64, 106
1, 46500, Note_on_c, 0, 65, 103
1, 46535, Note_off_c, 0, 65, 103
1, 46555, Note_on_c, 0, 68, 106
1, 46625, Note_off_c, 0, 68, 106
1, 46630, Note_on_c, 0, 69, 111
1, 46776, Note_off_c, 0, 69, 111
1, 46796, Note_on_c, 0, 67, 99
1, 47544, Note_off_c, 0, 67, 99
1, 47544, Note_on_c, 0, 66, 102
1, 47721, Note_off_c, 0, 66, 102
1, 47751, Note_on_c, 0, 65, 102
1, 47902, Note_off_c, 0, 65, 102
1, 47937, Note_on_c, 0, 63, 112
1, 48088, Note_off_c, 0, 63, 112
1, 48113, Note_on_c, 0, 62, 104
1, 48325, Note_off_c, 0, 62, 104
1, 48360, Note_on_c, 0, 60, 95
1, 48592, Note_off_c, 0, 60, 95
1, 48597, Note_on_c, 0, 58, 90
1, 48819, Note_off_c, 0, 58, 90
1, 48854, Note_on_c, 0, 60, 89
1, 48960, Note_off_c, 0, 60, 89
1, 48965, Note_on_c, 0, 63, 83
1, 49045, Note_off_c, 0, 63, 83
1, 49060, Note_on_c, 0, 65, 89
1, 49140, Note_off_c, 0, 65, 89
1, 49150, Note_on_c, 0, 67, 100
1, 49337, Note_off_c, 0, 67, 100
1, 49337, Note_on_c, 0, 65, 104
1, 49549, Note_off_c, 0, 65, 104
1, 49564, Note_on_c, 0, 66, 99
1, 49614, Note_off_c, 0, 66, 99
1, 49614, Note_on_c, 0, 67, 95
1, 49679, Note_off_c, 0, 67, 95
1, 49679, Note_on_c, 0, 68, 98
1, 49967, Note_off_c, 0, 68, 98
1, 50007, Note_on_c, 0, 67, 87
1, 50598, Note_off_c, 0, 67, 87
1, 50805, Note_on_c, 0, 58, 77
1, 50926, Note_off_c, 0, 58, 77
1, 50961, Note_on_c, 0, 63, 114
1, 51279, Note_off_c, 0, 63, 114
1, 53751, Note_on_c, 0, 64, 118
1, 53963, Note_off_c, 0, 64, 118
1, 53963, Note_on_c, 0, 65, 109
1, 54054, Note_off_c, 0, 65, 109
1, 54089, Note_on_c, 0, 63, 112
1, 54291, Note_off_c, 0, 63, 112
1, 54311, Note_on_c, 0, 62, 106
1, 54493, Note_off_c, 0, 62, 106
1, 54498, Note_on_c, 0, 65, 108
1, 54685, Note_off_c, 0, 65, 108
1, 54710, Note_on_c, 0, 62, 105
1, 54892, Note_off_c, 0, 62, 105
1, 54942, Note_on_c, 0, 60, 99
1, 55103, Note_off_c, 0, 60, 99
1, 55163, Note_on_c, 0, 59, 96
1, 55360, Note_off_c, 0, 59, 96
1, 55370, Note_on_c, 0, 55, 93
1, 55541, Note_off_c, 0, 55, 93
1, 55829, Note_on_c, 0, 55, 92
1, 55930, Note_off_c, 0, 55, 92
1, 55940, Note_on_c, 0, 63, 116
1, 56147, Note_off_c, 0, 63, 116
1, 56172, Note_on_c, 0, 62, 108
1, 56389, Note_off_c, 0, 62, 108
1, 56414, Note_on_c, 0, 59, 94
1, 56601, Note_off_c, 0, 59, 94
1, 56661, Note_on_c, 0, 55, 93
1, 56762, Note_off_c, 0, 55, 93
1, 56797, Note_on_c, 0, 60, 94
1, 57100, Note_off_c, 0, 60, 94
1, 57180, Note_on_c, 0, 57, 91
1, 57291, Note_off_c, 0, 57, 91
1, 57291, Note_on_c, 0, 55, 89
1, 57366, Note_off_c, 0, 55, 89
1, 57391, Note_on_c, 0, 57, 79
1, 57446, Note_off_c, 0, 57, 79
1, 57461, Note_on_c, 0, 55, 88
1, 57592, Note_off_c, 0, 55, 88
1, 58229, Note_on_c, 0, 53, 98
1, 58375, Note_off_c, 0, 53, 98
1, 58648, Note_on_c, 0, 53, 91
1, 58809, Note_off_c, 0, 53, 91
1, 58869, Note_on_c, 0, 52, 91
1, 58980, Note_off_c, 0, 52, 91
1, 59071, Note_on_c, 0, 58, 100
1, 59263, Note_off_c, 0, 58, 100
1, 59303, Note_on_c, 0, 62, 106
1, 59510, Note_off_c, 0, 62, 106
1, 59510, Note_on_c, 0, 60, 101
1, 59707, Note_off_c, 0, 60, 101
1, 59732, Note_on_c, 0, 57, 92
1, 59934, Note_off_c, 0, 57, 92
1, 60055, Note_on_c, 0, 55, 97
1, 60171, Note_off_c, 0, 55, 97
1, 60186, Note_on_c, 0, 58, 93
1, 60438, Note_off_c, 0, 58, 93
1, 60483, Note_on_c, 0, 58, 94
1, 60680, Note_off_c, 0, 58, 94
1, 60740, Note_on_c, 0, 58, 94
1, 61038, Note_off_c, 0, 58, 94
1, 64168, Note_on_c, 0, 65, 98
1, 64324, Note_off_c, 0, 65, 98
1, 64324, Note_on_c, 0, 68, 98
1, 64420, Note_off_c, 0, 68, 98
1, 64420, Note_on_c, 0, 69, 111
1, 64490, Note_off_c, 0, 69, 111
1, 64490, Note_on_c, 0, 70, 103
1, 64641, Note_off_c, 0, 70, 103
1, 64752, Note_on_c, 0, 70, 100
1, 65859, Note_off_c, 0, 70, 100
1, 65884, Note_on_c, 0, 67, 100
1, 66045, Note_off_c, 0, 67, 100
1, 66080, Note_on_c, 0, 63, 112
1, 66246, Note_off_c, 0, 63, 112
1, 66261, Note_on_c, 0, 65, 105
1, 66402, Note_off_c, 0, 65, 105
1, 66462, Note_on_c, 0, 67, 101
1, 66633, Note_off_c, 0, 67, 101
1, 66708, Note_on_c, 0, 65, 107
1, 67193, Note_off_c, 0, 65, 107
1, 67339, Note_on_c, 0, 75, 105
1, 67465, Note_off_c, 0, 75, 105
1, 67465, Note_on_c, 0, 72, 98
1, 67550, Note_off_c, 0, 72, 98
1, 67550, Note_on_c, 0, 68, 102
1, 67651, Note_off_c, 0, 68, 102
1, 67651, Note_on_c, 0, 65, 98
1, 67742, Note_off_c, 0, 65, 98
1, 67780, Note_on_c, 0, 60, 92
1, 67906, Note_off_c, 0, 60, 92
1, 67958, Note_on_c, 0, 64, 107
1, 68372, Note_off_c, 0, 64, 107
1, 68372, Note_on_c, 0, 65, 108
1, 68473, Note_off_c, 0, 65, 108
1, 68478, Note_on_c, 0, 70, 99
1, 68543, Note_off_c, 0, 70, 99
1, 68543, Note_on_c, 0, 74, 98
1, 68598, Note_off_c, 0, 74, 98
1, 68603, Note_on_c, 0, 75, 96
1, 68855, Note_off_c, 0, 75, 96
1, 68885, Note_on_c, 0, 72, 96
1, 68940, Note_off_c, 0, 72, 96
1, 68940, Note_on_c, 0, 70, 96
1, 68995, Note_off_c, 0, 70, 96
1, 68995, Note_on_c, 0, 68, 103
1, 69055, Note_off_c, 0, 68, 103
1, 69080, Note_on_c, 0, 65, 103
1, 69145, Note_off_c, 0, 65, 103
1, 69145, Note_on_c, 0, 63, 112
1, 69291, Note_off_c, 0, 63, 112
1, 69296, Note_on_c, 0, 62, 104
1, 69670, Note_off_c, 0, 62, 104
1, 69670, Note_on_c, 0, 63, 102
1, 69740, Note_off_c, 0, 63, 102
1, 69765, Note_on_c, 0, 65, 96
1, 69820, Note_off_c, 0, 65, 96
1, 69890, Note_on_c, 0, 73, 98
1, 69991, Note_off_c, 0, 73, 98
1, 70016, Note_on_c, 0, 71, 100
1, 70324, Note_off_c, 0, 71, 100
1, 71795, Note_on_c, 0, 70, 104
1, 71946, Note_off_c, 0, 70, 104
1, 71946, Note_on_c, 0, 72, 111
1, 72249, Note_off_c, 0, 72, 111
1, 72299, Note_on_c, 0, 70, 112
1, 72481, Note_off_c, 0, 70, 112
1, 72531, Note_on_c, 0, 66, 106
1, 72723, Note_off_c, 0, 66, 106
1, 72723, Note_on_c, 0, 65, 107
1, 72900, Note_off_c, 0, 65, 107
1, 72900, Note_on_c, 0, 63, 112
1, 73071, Note_off_c, 0, 63, 112
1, 73101, Note_on_c, 0, 62, 106
1, 73272, Note_off_c, 0, 62, 106
1, 73368, Note_on_c, 0, 60, 103
1, 73524, Note_off_c, 0, 60, 103
1, 73574, Note_on_c, 0, 58, 92
1, 74054, Note_off_c, 0, 58, 92
1, 74054, Note_on_c, 0, 60, 88
1, 74145, Note_off_c, 0, 60, 88
1, 74150, Note_on_c, 0, 63, 79
1, 74235, Note_off_c, 0, 63, 79
1, 74235, Note_on_c, 0, 65, 97
1, 74290, Note_on_c, 0, 67, 104
1, 74290, Note_off_c, 0, 65, 97
1, 74335, Note_off_c, 0, 67, 104
1, 74335, Note_on_c, 0, 72, 104
1, 74431, Note_off_c, 0, 72, 104
1, 74431, Note_on_c, 0, 69, 111
1, 74552, Note_off_c, 0, 69, 111
1, 76726, Note_on_c, 0, 71, 113
1, 76842, Note_off_c, 0, 71, 113
1, 76882, Note_on_c, 0, 66, 97
1, 77074, Note_off_c, 0, 66, 97
1, 77448, Note_on_c, 0, 63, 87
1, 77518, Note_off_c, 0, 63, 87
1, 77518, Note_on_c, 0, 67, 85
1, 77568, Note_off_c, 0, 67, 85
1, 77568, Note_on_c, 0, 70, 102
1, 77704, Note_off_c, 0, 70, 102
1, 77719, Note_on_c, 0, 65, 104
1, 77956, Note_off_c, 0, 65, 104
1, 79169, Note_on_c, 0, 69, 109
1, 79280, Note_off_c, 0, 69, 109
1, 79280, Note_on_c, 0, 67, 105
1, 79376, Note_off_c, 0, 67, 105
1, 79376, Note_on_c, 0, 65, 105
1, 79568, Note_off_c, 0, 65, 105
1, 79568, Note_on_c, 0, 63, 111
1, 79739, Note_off_c, 0, 63, 111
1, 79769, Note_on_c, 0, 62, 104
1, 79946, Note_off_c, 0, 62, 104
1, 79981, Note_on_c, 0, 60, 99
1, 80163, Note_off_c, 0, 60, 99
1, 80425, Note_on_c, 0, 57, 89
1, 80536, Note_off_c, 0, 57, 89
1, 80884, Note_on_c, 0, 65, 99
1, 81055, Note_off_c, 0, 65, 99
1, 81055, Note_on_c, 0, 68, 107
1, 81226, Note_off_c, 0, 68, 107
1, 81251, Note_on_c, 0, 66, 106
1, 81402, Note_off_c, 0, 66, 106
1, 81437, Note_on_c, 0, 61, 103
1, 81689, Note_off_c, 0, 61, 103
1, 81709, Note_on_c, 0, 59, 86
1, 81835, Note_off_c, 0, 59, 86
1, 81860, Note_on_c, 0, 66, 111
1, 81981, Note_off_c, 0, 66, 111
1, 81981, Note_on_c, 0, 67, 106
1, 82061, Note_off_c, 0, 67, 106
1, 82061, Note_on_c, 0, 66, 103
1, 82146, Note_off_c, 0, 66, 103
1, 82146, Note_on_c, 0, 64, 108
1, 82292, Note_off_c, 0, 64, 108
1, 82332, Note_on_c, 0, 62, 104
1, 82509, Note_off_c, 0, 62, 104
1, 82534, Note_on_c, 0, 60, 100
1, 82700, Note_off_c, 0, 60, 100
1, 82750, Note_on_c, 0, 59, 97
1, 82916, Note_off_c, 0, 59, 97
1, 82971, Note_on_c, 0, 66, 106
1, 83158, Note_off_c, 0, 66, 106
1, 83168, Note_on_c, 0, 65, 110
1, 83355, Note_off_c, 0, 65, 110
1, 83370, Note_on_c, 0, 63, 111
1, 83546, Note_off_c, 0, 63, 111
1, 83546, Note_on_c, 0, 61, 104
1, 83637, Note_off_c, 0, 61, 104
1, 83647, Note_on_c, 0, 62, 103
1, 83834, Note_off_c, 0, 62, 103
1, 83854, Note_on_c, 0, 65, 100
1, 83955, Note_off_c, 0, 65, 100
1, 83965, Note_on_c, 0, 67, 107
1, 84212, Note_off_c, 0, 67, 107
1, 84212, Note_on_c, 0, 68, 105
1, 85102, Note_off_c, 0, 68, 105
1, 85102, Note_on_c, 0, 63, 98
1, 85263, Note_off_c, 0, 63, 98
1, 85263, Note_on_c, 0, 66, 102
1, 85354, Note_off_c, 0, 66, 102
1, 85354, Note_on_c, 0, 67, 100
1, 85844, Note_off_c, 0, 67, 100
1, 85849, Note_on_c, 0, 70, 107
1, 85934, Note_off_c, 0, 70, 107
1, 85944, Note_on_c, 0, 72, 108
1, 86029, Note_off_c, 0, 72, 108
1, 86044, Note_on_c, 0, 73, 103
1, 86251, Note_off_c, 0, 73, 103
1, 86256, Note_on_c, 0, 63, 108
1, 86589, Note_off_c, 0, 63, 108
1, 88566, Note_on_c, 0, 70, 102
1, 88662, Note_off_c, 0, 70, 102
1, 88662, Note_on_c, 0, 72, 108
1, 88707, Note_off_c, 0, 72, 108
1, 88707, Note_on_c, 0, 74, 109
1, 88823, Note_off_c, 0, 74, 109
1, 88838, Note_on_c, 0, 73, 111
1, 88934, Note_off_c, 0, 73, 111
1, 89009, Note_on_c, 0, 72, 109
1, 89211, Note_off_c, 0, 72, 109
1, 89236, Note_on_c, 0, 70, 106
1, 89402, Note_off_c, 0, 70, 106
1, 89452, Note_on_c, 0, 68, 102
1, 89639, Note_off_c, 0, 68, 102
1, 89654, Note_on_c, 0, 67, 102
1, 89805, Note_off_c, 0, 67, 102
1, 89875, Note_on_c, 0, 65, 104
1, 90132, Note_off_c, 0, 65, 104
1, 90142, Note_on_c, 0, 62, 91
1, 90253, Note_off_c, 0, 62, 91
1, 90298, Note_on_c, 0, 63, 110
1, 90545, Note_off_c, 0, 63, 110
1, 90969, Note_on_c, 0, 67, 104
1, 91176, Note_off_c, 0, 67, 104
1, 91181, Note_on_c, 0, 65, 105
1, 91383, Note_off_c, 0, 65, 105
1, 91383, Note_on_c, 0, 67, 102
1, 91585, Note_off_c, 0, 67, 102
1, 91600, Note_on_c, 0, 68, 105
1, 91776, Note_off_c, 0, 68, 105
1, 91776, Note_on_c, 0, 70, 110
1, 91947, Note_off_c, 0, 70, 110
1, 91977, Note_on_c, 0, 67, 101
1, 92224, Note_off_c, 0, 67, 101
1, 92224, Note_on_c, 0, 63, 112
1, 92497, Note_off_c, 0, 63, 112
1, 92552, Note_on_c, 0, 58, 93
1, 92734, Note_off_c, 0, 58, 93
1, 92875, Note_on_c, 0, 64, 110
1, 93168, Note_off_c, 0, 64, 110
1, 93188, Note_on_c, 0, 61, 86
1, 93349, Note_off_c, 0, 61, 86
1, 93359, Note_on_c, 0, 64, 85
1, 93424, Note_off_c, 0, 64, 85
1, 93439, Note_on_c, 0, 67, 94
1, 93479, Note_off_c, 0, 67, 94
1, 93514, Note_on_c, 0, 70, 104
1, 93711, Note_off_c, 0, 70, 104
1, 93716, Note_on_c, 0, 65, 104
1, 93898, Note_off_c, 0, 65, 104
1, 93903, Note_on_c, 0, 63, 110
1, 94090, Note_off_c, 0, 63, 110
1, 94120, Note_on_c, 0, 62, 102
1, 94322, Note_off_c, 0, 62, 102
1, 94337, Note_on_c, 0, 60, 96
1, 94539, Note_off_c, 0, 60, 96
1, 94604, Note_on_c, 0, 58, 93
1, 94801, Note_off_c, 0, 58, 93
1, 94834, Note_on_c, 0, 53, 92
1, 95179, Note_off_c, 0, 53, 92
1, 97698, Note_on_c, 0, 55, 87
1, 97854, Note_off_c, 0, 55, 87
1, 97899, Note_on_c, 0, 62, 106
1, 98111, Note_off_c, 0, 62, 106
1, 98126, Note_on_c, 0, 63, 112
1, 98318, Note_off_c, 0, 63, 112
1, 98343, Note_on_c, 0, 65, 109
1, 98520, Note_off_c, 0, 65, 109
1, 98550, Note_on_c, 0, 67, 108
1, 98691, Note_off_c, 0, 67, 108
1, 98751, Note_on_c, 0, 62, 101
1, 98862, Note_off_c, 0, 62, 101
1, 98872, Note_on_c, 0, 63, 114
1, 99524, Note_off_c, 0, 63, 114
1, 99529, Note_on_c, 0, 60, 98
1, 99726, Note_off_c, 0, 60, 98
1, 99731, Note_on_c, 0, 57, 89
1, 99938, Note_off_c, 0, 57, 89
1, 99948, Note_on_c, 0, 53, 83
1, 100155, Note_off_c, 0, 53, 83
1, 100240, Note_on_c, 0, 60, 100
1, 100356, Note_off_c, 0, 60, 100
1, 100356, Note_on_c, 0, 62, 103
1, 100851, Note_off_c, 0, 62, 103
1, 100856, Note_on_c, 0, 58, 96
1, 101058, Note_off_c, 0, 58, 96
1, 101233, Note_on_c, 0, 58, 94
1, 101768, Note_off_c, 0, 58, 94
1, 104040, Note_on_c, 0, 58, 96
1, 104161, Note_off_c, 0, 58, 96
1, 104241, Note_on_c, 0, 62, 92
1, 104428, Note_off_c, 0, 62, 92
1, 104468, Note_on_c, 0, 62, 108
1, 104634, Note_off_c, 0, 62, 108
1, 104679, Note_on_c, 0, 65, 109
1, 104825, Note_off_c, 0, 65, 109
1, 104870, Note_on_c, 0, 62, 103
1, 104950, Note_off_c, 0, 62, 103
1, 104950, Note_on_c, 0, 65, 103
1, 105061, Note_off_c, 0, 65, 103
1, 105061, Note_on_c, 0, 68, 109
1, 105192, Note_off_c, 0, 68, 109
1, 105192, Note_on_c, 0, 65, 90
1, 105303, Note_off_c, 0, 65, 90
1, 105313, Note_on_c, 0, 68, 108
1, 105469, Note_off_c, 0, 68, 108
1, 105474, Note_on_c, 0, 67, 105
1, 105630, Note_off_c, 0, 67, 105
1, 105660, Note_on_c, 0, 63, 99
1, 105796, Note_off_c, 0, 63, 99
1, 105796, Note_on_c, 0, 67, 98
1, 105930, Note_off_c, 0, 67, 98
1, 105930, Note_on_c, 0, 70, 99
1, 106117, Note_off_c, 0, 70, 99
1, 106129, Note_on_c, 0, 67, 90
1, 106242, Note_off_c, 0, 67, 90
1, 106256, Note_on_c, 0, 70, 94
1, 106399, Note_off_c, 0, 70, 94
1, 106412, Note_on_c, 0, 73, 103
1, 106614, Note_off_c, 0, 73, 103
1, 106619, Note_on_c, 0, 64, 104
1, 106993, Note_off_c, 0, 64, 104
1, 108277, Note_on_c, 0, 64, 113
1, 108408, Note_off_c, 0, 64, 113
1, 108408, Note_on_c, 0, 65, 109
1, 108617, Note_off_c, 0, 65, 109
1, 108642, Note_on_c, 0, 63, 98
1, 108730, Note_off_c, 0, 63, 98
1, 108735, Note_on_c, 0, 65, 105
1, 108841, Note_off_c, 0, 65, 105
1, 108868, Note_on_c, 0, 64, 108
1, 109055, Note_off_c, 0, 64, 108
1, 109060, Note_on_c, 0, 61, 91
1, 109140, Note_off_c, 0, 61, 91
1, 109140, Note_on_c, 0, 64, 106
1, 109329, Note_off_c, 0, 64, 106
1, 109334, Note_on_c, 0, 63, 109
1, 109789, Note_off_c, 0, 63, 109
1, 109821, Note_on_c, 0, 60, 93
1, 109904, Note_off_c, 0, 60, 93
1, 109924, Note_on_c, 0, 56, 90
1, 110012, Note_off_c, 0, 56, 90
1, 110034, Note_on_c, 0, 53, 98
1, 110130, Note_on_c, 0, 62, 102
1, 110130, Note_off_c, 0, 53, 98
1, 110304, Note_off_c, 0, 62, 102
1, 111689, Note_on_c, 0, 58, 94
1, 111812, Note_off_c, 0, 58, 94
1, 112120, Note_on_c, 0, 58, 104
1, 112256, Note_off_c, 0, 58, 104
1, 112263, Note_on_c, 0, 63, 110
1, 112429, Note_off_c, 0, 63, 110
1, 112436, Note_on_c, 0, 58, 82
1, 112506, Note_off_c, 0, 58, 82
1, 112523, Note_on_c, 0, 63, 113
1, 112651, Note_off_c, 0, 63, 113
1, 112678, Note_on_c, 0, 67, 105
1, 112827, Note_off_c, 0, 67, 105
1, 112857, Note_on_c, 0, 63, 96
1, 112965, Note_off_c, 0, 63, 96
1, 112967, Note_on_c, 0, 67, 101
1, 113088, Note_off_c, 0, 67, 101
1, 113115, Note_on_c, 0, 61, 102
1, 113279, Note_off_c, 0, 61, 102
1, 113289, Note_on_c, 0, 58, 88
1, 113395, Note_off_c, 0, 58, 88
1, 113407, Note_on_c, 0, 61, 105
1, 113498, Note_off_c, 0, 61, 105
1, 113538, Note_on_c, 0, 65, 109
1, 113659, Note_off_c, 0, 65, 109
1, 113679, Note_on_c, 0, 61, 91
1, 113762, Note_off_c, 0, 61, 91
1, 113772, Note_on_c, 0, 65, 101
1, 113908, Note_off_c, 0, 65, 101
1, 113933, Note_on_c, 0, 68, 102
1, 114069, Note_off_c, 0, 68, 102
1, 114106, Note_on_c, 0, 65, 89
1, 114229, Note_off_c, 0, 65, 89
1, 114246, Note_on_c, 0, 68, 100
1, 114374, Note_off_c, 0, 68, 100
1, 114384, Note_on_c, 0, 72, 105
1, 114528, Note_off_c, 0, 72, 105
1, 114560, Note_on_c, 0, 69, 91
1, 114671, Note_off_c, 0, 69, 91
1, 114673, Note_on_c, 0, 72, 101
1, 114786, Note_off_c, 0, 72, 101
1, 114813, Note_on_c, 0, 69, 105
1, 114972, Note_off_c, 0, 69, 105
1, 114977, Note_on_c, 0, 65, 93
1, 115057, Note_off_c, 0, 65, 93
1, 115074, Note_on_c, 0, 62, 89
1, 115149, Note_off_c, 0, 62, 89
1, 116094, Note_on_c, 0, 67, 106
1, 116210, Note_off_c, 0, 67, 106
1, 116220, Note_on_c, 0, 68, 109
1, 116328, Note_off_c, 0, 68, 109
1, 116368, Note_on_c, 0, 64, 104
1, 116474, Note_off_c, 0, 64, 104
1, 116496, Note_on_c, 0, 68, 108
1, 116647, Note_off_c, 0, 68, 108
1, 116674, Note_on_c, 0, 64, 103
1, 116782, Note_off_c, 0, 64, 103
1, 116794, Note_on_c, 0, 59, 93
1, 116887, Note_off_c, 0, 59, 93
1, 117311, Note_on_c, 0, 67, 105
1, 117460, Note_off_c, 0, 67, 105
1, 117465, Note_on_c, 0, 63, 97
1, 117566, Note_off_c, 0, 63, 97
1, 117576, Note_on_c, 0, 67, 107
1, 117715, Note_off_c, 0, 67, 107
1, 117727, Note_on_c, 0, 63, 112
1, 117848, Note_off_c, 0, 63, 112
1, 117875, Note_on_c, 0, 60, 100
1, 117981, Note_off_c, 0, 60, 100
1, 117996, Note_on_c, 0, 56, 85
1, 118114, Note_off_c, 0, 56, 85
1, 118162, Note_on_c, 0, 65, 108
1, 118328, Note_off_c, 0, 65, 108
1, 118330, Note_on_c, 0, 62, 92
1, 118426, Note_off_c, 0, 62, 92
1, 118458, Note_on_c, 0, 65, 103
1, 118586, Note_off_c, 0, 65, 103
1, 118586, Note_on_c, 0, 62, 101
1, 118737, Note_off_c, 0, 62, 101
1, 118994, Note_on_c, 0, 63, 109
1, 119168, Note_off_c, 0, 63, 109
1, 119168, Note_on_c, 0, 60, 89
1, 119256, Note_off_c, 0, 60, 89
1, 119273, Note_on_c, 0, 63, 108
1, 119422, Note_off_c, 0, 63, 108
1, 119424, Note_on_c, 0, 60, 89
1, 119520, Note_off_c, 0, 60, 89
1, 119765, Note_on_c, 0, 57, 100
1, 119847, Note_off_c, 0, 57, 100
1, 119847, Note_on_c, 0, 61, 102
1, 120016, Note_off_c, 0, 61, 102
1, 120081, Note_on_c, 0, 61, 102
1, 120227, Note_off_c, 0, 61, 102
1, 120237, Note_on_c, 0, 65, 108
1, 120388, Note_off_c, 0, 65, 108
1, 120415, Note_on_c, 0, 61, 94
1, 120521, Note_off_c, 0, 61, 94
1, 120521, Note_on_c, 0, 65, 104
1, 120675, Note_off_c, 0, 65, 104
1, 120675, Note_on_c, 0, 69, 108
1, 120811, Note_off_c, 0, 69, 108
1, 120831, Note_on_c, 0, 65, 87
1, 120944, Note_off_c, 0, 65, 87
1, 120944, Note_on_c, 0, 69, 111
1, 121078, Note_off_c, 0, 69, 111
1, 121088, Note_on_c, 0, 65, 102
1, 121232, Note_off_c, 0, 65, 102
1, 121247, Note_on_c, 0, 62, 95
1, 121358, Note_off_c, 0, 62, 95
1, 121369, Note_on_c, 0, 60, 83
1, 121509, Note_off_c, 0, 60, 83
1, 121534, Note_on_c, 0, 67, 101
1, 121678, Note_off_c, 0, 67, 101
1, 121698, Note_on_c, 0, 63, 101
1, 121783, Note_off_c, 0, 63, 101
1, 121825, Note_on_c, 0, 67, 101
1, 121943, Note_off_c, 0, 67, 101
1, 121954, Note_on_c, 0, 63, 109
1, 122058, Note_off_c, 0, 63, 109
1, 122075, Note_on_c, 0, 60, 94
1, 122175, Note_off_c, 0, 60, 94
1, 122192, Note_on_c, 0, 58, 94
1, 122325, Note_off_c, 0, 58, 94
1, 122389, Note_on_c, 0, 65, 101
1, 122545, Note_off_c, 0, 65, 101
1, 122545, Note_on_c, 0, 62, 93
1, 122636, Note_off_c, 0, 62, 93
1, 122661, Note_on_c, 0, 65, 100
1, 122797, Note_off_c, 0, 65, 100
1, 122801, Note_on_c, 0, 62, 101
1, 122919, Note_off_c, 0, 62, 101
1, 122926, Note_on_c, 0, 60, 84
1, 123048, Note_off_c, 0, 60, 84
1, 123055, Note_on_c, 0, 58, 92
1, 123184, Note_off_c, 0, 58, 92
1, 123204, Note_on_c, 0, 63, 106
1, 123474, Note_off_c, 0, 63, 106
1, 124707, Note_on_c, 0, 61, 102
1, 124838, Note_off_c, 0, 61, 102
1, 124863, Note_on_c, 0, 62, 111
1, 124999, Note_off_c, 0, 62, 111
1, 125001, Note_on_c, 0, 63, 103
1, 125031, Note_off_c, 0, 63, 103
1, 125036, Note_on_c, 0, 65, 110
1, 125096, Note_off_c, 0, 65, 110
1, 125101, Note_on_c, 0, 67, 110
1, 125156, Note_off_c, 0, 67, 110
1, 125166, Note_on_c, 0, 68, 111
1, 125269, Note_off_c, 0, 68, 111
1, 125271, Note_on_c, 0, 67, 105
1, 125359, Note_off_c, 0, 67, 105
1, 125359, Note_on_c, 0, 65, 102
1, 126016, Note_off_c, 0, 65, 102
1, 126033, Note_on_c, 0, 62, 97
1, 126124, Note_off_c, 0, 62, 97
1, 126124, Note_on_c, 0, 63, 104
1, 126270, Note_off_c, 0, 63, 104
1, 126297, Note_on_c, 0, 65, 102
1, 126357, Note_off_c, 0, 65, 102
1, 126369, Note_on_c, 0, 67, 99
1, 126510, Note_off_c, 0, 67, 99
1, 126510, Note_on_c, 0, 68, 100
1, 126601, Note_off_c, 0, 68, 100
1, 126603, Note_on_c, 0, 69, 103
1, 126651, Note_off_c, 0, 69, 103
1, 126651, Note_on_c, 0, 70, 104
1, 126752, Note_off_c, 0, 70, 104
1, 126757, Note_on_c, 0, 72, 102
1, 126842, Note_off_c, 0, 72, 102
1, 126849, Note_on_c, 0, 73, 106
1, 126947, Note_off_c, 0, 73, 106
1, 126947, Note_on_c, 0, 72, 103
1, 127032, Note_on_c, 0, 71, 98
1, 127032, Note_off_c, 0, 72, 103
1, 127082, Note_off_c, 0, 71, 98
1, 127087, Note_on_c, 0, 70, 104
1, 127226, Note_off_c, 0, 70, 104
1, 129853, Note_on_c, 0, 65, 111
1, 129951, Note_off_c, 0, 65, 111
1, 129978, Note_on_c, 0, 67, 101
1, 130728, Note_off_c, 0, 67, 101
1, 130763, Note_on_c, 0, 65, 105
1, 130886, Note_off_c, 0, 65, 105
1, 130913, Note_on_c, 0, 63, 111
1, 131173, Note_off_c, 0, 63, 111
1, 131195, Note_on_c, 0, 58, 86
1, 131296, Note_off_c, 0, 58, 86
1, 131301, Note_on_c, 0, 62, 101
1, 131531, Note_off_c, 0, 62, 101
1, 131568, Note_on_c, 0, 65, 105
1, 131745, Note_off_c, 0, 65, 105
1, 131750, Note_on_c, 0, 63, 99
1, 131949, Note_off_c, 0, 63, 99
1, 131969, Note_on_c, 0, 65, 103
1, 132143, Note_off_c, 0, 65, 103
1, 132143, Note_on_c, 0, 67, 99
1, 132332, Note_off_c, 0, 67, 99
1, 132397, Note_on_c, 0, 70, 105
1, 132541, Note_off_c, 0, 70, 105
1, 132583, Note_on_c, 0, 72, 104
1, 132747, Note_off_c, 0, 72, 104
1, 132774, Note_on_c, 0, 73, 106
1, 132983, Note_off_c, 0, 73, 106
1, 133015, Note_on_c, 0, 69, 106
1, 133209, Note_off_c, 0, 69, 106
1, 133398, Note_on_c, 0, 70, 109
1, 133612, Note_off_c, 0, 70, 109
1, 133715, Note_on_c, 0, 67, 97
1, 133856, Note_off_c, 0, 67, 97
1, 133896, Note_on_c, 0, 64, 102
1, 134085, Note_off_c, 0, 64, 102
1, 134102, Note_on_c, 0, 61, 96
1, 134236, Note_off_c, 0, 61, 96
1, 134294, Note_on_c, 0, 69, 102
1, 134377, Note_off_c, 0, 69, 102
1, 134399, Note_on_c, 0, 70, 97
1, 134515, Note_off_c, 0, 70, 97
1, 134525, Note_on_c, 0, 69, 103
1, 134618, Note_off_c, 0, 69, 103
1, 134625, Note_on_c, 0, 67, 97
1, 134736, Note_off_c, 0, 67, 97
1, 134758, Note_on_c, 0, 65, 104
1, 134927, Note_off_c, 0, 65, 104
1, 134977, Note_on_c, 0, 63, 109
1, 135148, Note_off_c, 0, 63, 109
1, 135175, Note_on_c, 0, 62, 101
1, 135367, Note_off_c, 0, 62, 101
1, 135382, Note_on_c, 0, 60, 97
1, 135533, Note_off_c, 0, 60, 97
1, 135621, Note_on_c, 0, 58, 85
1, 135770, Note_off_c, 0, 58, 85
1, 135972, Note_on_c, 0, 65, 103
1, 136047, Note_off_c, 0, 65, 103
1, 136082, Note_on_c, 0, 66, 100
1, 136124, Note_off_c, 0, 66, 100
1, 136136, Note_on_c, 0, 65, 99
1, 136204, Note_off_c, 0, 65, 99
1, 136219, Note_on_c, 0, 64, 106
1, 136428, Note_off_c, 0, 64, 106
1, 136473, Note_on_c, 0, 63, 109
1, 136677, Note_off_c, 0, 63, 109
1, 136709, Note_on_c, 0, 61, 95
1, 136906, Note_off_c, 0, 61, 95
1, 136936, Note_on_c, 0, 59, 93
1, 137077, Note_off_c, 0, 59, 93
1, 137082, Note_on_c, 0, 56, 91
1, 137246, Note_off_c, 0, 56, 91
1, 137329, Note_on_c, 0, 52, 94
1, 137475, Note_off_c, 0, 52, 94
1, 137727, Note_on_c, 0, 55, 97
1, 137916, Note_off_c, 0, 55, 97
1, 137999, Note_on_c, 0, 51, 94
1, 138196, Note_off_c, 0, 51, 94
1, 140107, Note_on_c, 0, 62, 113
1, 140311, Note_off_c, 0, 62, 113
1, 140341, Note_on_c, 0, 57, 93
1, 140609, Note_off_c, 0, 57, 93
1, 140651, Note_on_c, 0, 61, 104
1, 140752, Note_off_c, 0, 61, 104
1, 140757, Note_on_c, 0, 62, 108
1, 141027, Note_off_c, 0, 62, 108
1, 141062, Note_on_c, 0, 58, 96
1, 141711, Note_off_c, 0, 58, 96
1, 141716, Note_on_c, 0, 56, 100
1, 141867, Note_off_c, 0, 56, 100
1, 141995, Note_on_c, 0, 59, 99
1, 142159, Note_off_c, 0, 59, 99
1, 142166, Note_on_c, 0, 63, 113
1, 142385, Note_off_c, 0, 63, 113
1, 142402, Note_on_c, 0, 59, 98
1, 142589, Note_off_c, 0, 59, 98
1, 142614, Note_on_c, 0, 55, 93
1, 142705, Note_off_c, 0, 55, 93
1, 142801, Note_on_c, 0, 60, 90
1, 142978, Note_off_c, 0, 60, 90
1, 143466, Note_on_c, 0, 58, 91
1, 143582, Note_off_c, 0, 58, 91
1, 143645, Note_on_c, 0, 57, 88
1, 143781, Note_off_c, 0, 57, 88
1, 143781, End_track
0, 0, End_of_file
