0, 0, Header, 1, 1, 840
1, 0, Start_track
1, 0, Note_on_c, 0, 64, 115
1, 2053, Note_off_c, 0, 64, 115
1, 2053, Note_on_c, 0, 62, 112
1, 2909, Note_off_c, 0, 62, 112
1, 2976, Note_on_c, 0, 65, 108
1, 3681, Note_off_c, 0, 65, 108
1, 3966, Note_on_c, 0, 65, 116
1, 4545, Title_t, "Melody"
1, 4545, Tempo, 204081
1, 4545, Key_signature, -1, "major"
1, 4545, Time_signature, 4, 2, 24, 8
1, 4587, Note_off_c, 0, 65, 116
1, 4603, Note_on_c, 0, 67, 110
1, 5123, Note_off_c, 0, 67, 110
1, 5223, Note_on_c, 0, 69, 106
1, 7222, Note_off_c, 0, 69, 106
1, 7272, Note_on_c, 0, 67, 103
1, 7574, Note_off_c, 0, 67, 103
1, 7691, Note_on_c, 0, 65, 110
1, 8195, Note_off_c, 0, 65, 110
1, 8228, Note_on_c, 0, 62, 102
1, 9269, Note_off_c, 0, 62, 102
1, 11318, Note_on_c, 0, 69, 106
1, 12292, Note_off_c, 0, 69, 106
1, 12292, Note_on_c, 0, 62, 111
1, 12661, Note_off_c, 0, 62, 111
1, 12761, Note_on_c, 0, 65, 111
1, 15197, Note_off_c, 0, 65, 111
1, 17296, Note_on_c, 0, 69, 110
1, 18337, Note_off_c, 0, 69, 110
1, 18353, Note_on_c, 0, 67, 103
1, 18638, Note_off_c, 0, 67, 103
1, 18671, Note_on_c, 0, 69, 112
1, 19040, Note_on_c, 0, 67, 109
1, 19040, Note_off_c, 0, 69, 112
1, 19510, Note_off_c, 0, 67, 109
1, 19553, Note_on_c, 0, 62, 109
1, 19899, Note_off_c, 0, 62, 109
1, 19922, Note_on_c, 0, 65, 110
1, 20961, Note_off_c, 0, 65, 110
1, 20961, Note_on_c, 0, 64, 105
1, 21116, Note_off_c, 0, 64, 105
1, 24144, Note_on_c, 0, 67, 111
1, 24412, Note_off_c, 0, 67, 111
1, 24412, Note_on_c, 0, 68, 111
1, 24563, Note_off_c, 0, 68, 111
1, 24579, Note_on_c, 0, 69, 111
1, 27300, Note_off_c, 0, 69, 111
1, 27910, Note_on_c, 0, 69, 109
1, 28662, Note_off_c, 0, 69, 109
1, 28733, Note_on_c, 0, 69, 106
1, 29270, Note_off_c, 0, 69, 106
1, 29716, Note_on_c, 0, 69, 111
1, 30556, Note_off_c, 0, 69, 111
1, 30556, Note_on_c, 0, 67, 105
1, 31026, Note_off_c, 0, 67, 105
1, 31042, Note_on_c, 0, 69, 111
1, 31932, Note_off_c, 0, 69, 111
1, 31999, Note_on_c, 0, 71, 113
1, 32536, Note_off_c, 0, 71, 113
1, 32603, Note_on_c, 0, 72, 115
1, 32821, Note_off_c, 0, 72, 115
1, 32871, Note_on_c, 0, 73, 114
1, 33291, Note_off_c, 0, 73, 114
1, 33425, Note_on_c, 0, 69, 109
1, 35273, Note_off_c, 0, 69, 109
1, 35286, Note_on_c, 0, 67, 103
1, 35728, Note_off_c, 0, 67, 103
1, 35799, Note_on_c, 0, 69, 108
1, 36181, Note_off_c, 0, 69, 108
1, 36228, Note_on_c, 0, 71, 111
1, 36598, Note_off_c, 0, 71, 111
1, 36609, Note_on_c, 0, 67, 104
1, 37015, Note_off_c, 0, 67, 104
1, 37026, Note_on_c, 0, 65, 106
1, 37468, Note_off_c, 0, 65, 106
1, 37503, Note_on_c, 0, 67, 101
1, 37801, Note_off_c, 0, 67, 101
1, 37872, Note_on_c, 0, 69, 107
1, 38445, Note_off_c, 0, 69, 107
1, 38445, Note_on_c, 0, 71, 110
1, 38803, Note_off_c, 0, 71, 110
1, 38803, Note_on_c, 0, 67, 102
1, 39328, Note_off_c, 0, 67, 102
1, 39339, Note_on_c, 0, 65, 105
1, 39613, Note_off_c, 0, 65, 105
1, 39696, Note_on_c, 0, 67, 105
1, 40245, Note_off_c, 0, 67, 105
1, 40280, Note_on_c, 0, 65, 105
1, 40996, Note_off_c, 0, 65, 105
1, 41067, Note_on_c, 0, 65, 103
1, 41461, Note_off_c, 0, 65, 103
1, 41484, Note_on_c, 0, 67, 107
1, 41926, Note_off_c, 0, 67, 107
1, 42499, Note_on_c, 0, 69, 104
1, 44386, Note_off_c, 0, 69, 104
1, 44397, Note_on_c, 0, 67, 104
1, 44791, Note_off_c, 0, 67, 104
1, 44874, Note_on_c, 0, 69, 106
1, 45280, Note_off_c, 0, 69, 106
1, 45363, Note_on_c, 0, 71, 104
1, 45769, Note_off_c, 0, 71, 104
1, 45838, Note_on_c, 0, 73, 112
1, 46056, Note_off_c, 0, 73, 112
1, 46123, Note_on_c, 0, 73, 98
1, 46375, Note_off_c, 0, 73, 98
1, 46711, Note_on_c, 0, 69, 104
1, 47164, Note_off_c, 0, 69, 104
1, 47164, Note_on_c, 0, 71, 100
1, 47306, Note_off_c, 0, 71, 100
1, 47423, Note_on_c, 0, 71, 96
1, 47683, Note_off_c, 0, 71, 96
1, 47758, Note_on_c, 0, 69, 101
1, 48136, Note_off_c, 0, 69, 101
1, 48278, Note_on_c, 0, 65, 103
1, 48950, Note_off_c, 0, 65, 103
1, 49017, Note_on_c, 0, 65, 100
1, 49579, Note_off_c, 0, 65, 100
1, 51746, Note_on_c, 0, 65, 108
1, 52258, Note_off_c, 0, 65, 108
1, 52316, Note_on_c, 0, 67, 105
1, 52988, Note_off_c, 0, 67, 105
1, 53097, Note_on_c, 0, 71, 106
1, 53483, Note_off_c, 0, 71, 106
1, 53483, Note_on_c, 0, 64, 109
1, 54003, Note_off_c, 0, 64, 109
1, 54061, Note_on_c, 0, 65, 104
1, 54380, Note_off_c, 0, 65, 104
1, 54380, Note_on_c, 0, 67, 105
1, 54875, Note_off_c, 0, 67, 105
1, 54950, Note_on_c, 0, 67, 102
1, 55227, Note_off_c, 0, 67, 102
1, 55369, Note_on_c, 0, 61, 106
1, 55780, Note_off_c, 0, 61, 106
1, 55780, Note_on_c, 0, 60, 103
1, 56107, Note_off_c, 0, 60, 103
1, 56157, Note_on_c, 0, 59, 106
1, 56736, Note_off_c, 0, 59, 106
1, 56736, Note_on_c, 0, 58, 107
1, 57021, Note_off_c, 0, 58, 107
1, 57071, Note_on_c, 0, 57, 108
1, 57617, Note_off_c, 0, 57, 108
1, 57726, Note_on_c, 0, 56, 104
1, 57910, Note_off_c, 0, 56, 104
1, 58002, Note_on_c, 0, 55, 100
1, 58430, Note_off_c, 0, 55, 100
1, 58472, Note_on_c, 0, 59, 103
1, 58816, Note_off_c, 0, 59, 103
1, 58916, Note_on_c, 0, 64, 104
1, 59504, Note_off_c, 0, 64, 104
1, 59529, Note_on_c, 0, 65, 102
1, 59663, Note_off_c, 0, 65, 102
1, 59696, Note_on_c, 0, 66, 104
1, 59855, Note_off_c, 0, 66, 104
1, 59855, Note_on_c, 0, 68, 103
1, 60291, Note_off_c, 0, 68, 103
1, 60341, Note_on_c, 0, 68, 118
1, 60794, Note_off_c, 0, 68, 118
1, 60861, Note_on_c, 0, 68, 105
1, 61146, Note_off_c, 0, 68, 105
1, 61314, Note_on_c, 0, 67, 115
1, 62011, Note_off_c, 0, 67, 115
1, 62120, Note_on_c, 0, 67, 108
1, 62582, Note_off_c, 0, 67, 108
1, 62615, Note_on_c, 0, 62, 108
1, 63110, Note_off_c, 0, 62, 108
1, 63152, Note_on_c, 0, 65, 106
1, 63395, Note_off_c, 0, 65, 106
1, 63462, Note_on_c, 0, 69, 104
1, 63965, Note_off_c, 0, 69, 104
1, 64007, Note_on_c, 0, 72, 108
1, 64141, Note_off_c, 0, 72, 108
1, 64166, Note_on_c, 0, 71, 111
1, 64485, Note_off_c, 0, 71, 111
1, 64485, Note_on_c, 0, 69, 106
1, 64846, Note_off_c, 0, 69, 106
1, 64846, Note_on_c, 0, 65, 101
1, 65106, Note_off_c, 0, 65, 101
1, 65173, Note_on_c, 0, 62, 110
1, 65761, Note_off_c, 0, 62, 110
1, 65861, Note_on_c, 0, 57, 96
1, 66205, Note_off_c, 0, 57, 96
1, 66265, Note_on_c, 0, 59, 105
1, 67029, Note_off_c, 0, 59, 105
1, 72554, Note_on_c, 0, 63, 112
1, 73041, Note_off_c, 0, 63, 112
1, 73192, Note_on_c, 0, 68, 110
1, 73511, Note_off_c, 0, 68, 110
1, 73511, Note_on_c, 0, 72, 116
1, 73872, Note_off_c, 0, 72, 116
1, 73947, Note_on_c, 0, 72, 114
1, 74367, Note_off_c, 0, 72, 114
1, 74829, Note_on_c, 0, 72, 116
1, 75282, Note_off_c, 0, 72, 116
1, 75307, Note_on_c, 0, 70, 105
1, 75693, Note_off_c, 0, 70, 105
1, 75818, Note_on_c, 0, 66, 110
1, 76070, Note_off_c, 0, 66, 110
1, 76103, Note_on_c, 0, 63, 111
1, 76539, Note_off_c, 0, 63, 111
1, 76539, Note_on_c, 0, 60, 113
1, 77143, Note_off_c, 0, 60, 113
1, 79671, Note_on_c, 0, 60, 100
1, 80175, Note_off_c, 0, 60, 100
1, 80217, Note_on_c, 0, 63, 111
1, 80611, Note_off_c, 0, 63, 111
1, 80636, Note_on_c, 0, 68, 107
1, 81971, Note_off_c, 0, 68, 107
1, 81979, Note_on_c, 0, 63, 105
1, 82449, Note_off_c, 0, 63, 105
1, 82449, Note_on_c, 0, 68, 108
1, 82944, Note_off_c, 0, 68, 108
1, 82969, Note_on_c, 0, 65, 111
1, 83372, Note_off_c, 0, 65, 111
1, 83372, Note_on_c, 0, 60, 101
1, 83834, Note_off_c, 0, 60, 101
1, 83892, Note_on_c, 0, 59, 104
1, 84194, Note_off_c, 0, 59, 104
1, 84252, Note_on_c, 0, 58, 104
1, 84789, Note_off_c, 0, 58, 104
1, 87871, Note_on_c, 0, 69, 111
1, 88358, Note_off_c, 0, 69, 111
1, 88416, Note_on_c, 0, 65, 108
1, 88693, Note_off_c, 0, 65, 108
1, 88751, Note_on_c, 0, 67, 114
1, 89255, Note_off_c, 0, 67, 114
1, 89339, Note_on_c, 0, 66, 109
1, 89675, Note_off_c, 0, 66, 109
1, 89758, Note_on_c, 0, 63, 111
1, 90220, Note_off_c, 0, 63, 111
1, 90253, Note_on_c, 0, 66, 109
1, 90521, Note_off_c, 0, 66, 109
1, 90521, Note_on_c, 0, 67, 111
1, 90899, Note_off_c, 0, 67, 111
1, 90966, Note_on_c, 0, 67, 114
1, 91453, Note_off_c, 0, 67, 114
1, 91629, Note_on_c, 0, 58, 103
1, 92074, Note_off_c, 0, 58, 103
1, 93812, Note_on_c, 0, 58, 104
1, 94324, Note_off_c, 0, 58, 104
1, 94374, Note_on_c, 0, 61, 95
1, 94735, Note_off_c, 0, 61, 95
1, 94785, Note_on_c, 0, 63, 106
1, 95171, Note_off_c, 0, 63, 106
1, 95204, Note_on_c, 0, 65, 107
1, 95624, Note_off_c, 0, 65, 107
1, 96615, Note_on_c, 0, 68, 93
1, 96766, Note_off_c, 0, 68, 93
1, 96766, Note_on_c, 0, 65, 103
1, 96950, Note_off_c, 0, 65, 103
1, 97008, Note_on_c, 0, 63, 115
1, 97638, Note_off_c, 0, 63, 115
1, 97671, Note_on_c, 0, 66, 108
1, 97880, Note_on_c, 0, 68, 104
1, 97880, Note_off_c, 0, 66, 108
1, 98274, Note_off_c, 0, 68, 104
1, 98282, Note_on_c, 0, 70, 104
1, 98676, Note_off_c, 0, 70, 104
1, 98692, Note_on_c, 0, 72, 115
1, 99296, Note_off_c, 0, 72, 115
1, 101018, Note_on_c, 0, 57, 103
1, 101412, Note_off_c, 0, 57, 103
1, 101445, Note_on_c, 0, 59, 102
1, 101797, Note_off_c, 0, 59, 102
1, 101797, Note_on_c, 0, 62, 106
1, 102233, Note_on_c, 0, 65, 106
1, 102233, Note_off_c, 0, 62, 106
1, 102636, Note_off_c, 0, 65, 106
1, 103684, Note_on_c, 0, 59, 105
1, 104095, Note_off_c, 0, 59, 105
1, 104096, Note_on_c, 0, 62, 105
1, 104432, Note_off_c, 0, 62, 105
1, 104541, Note_on_c, 0, 65, 106
1, 104927, Note_off_c, 0, 65, 106
1, 104927, Note_on_c, 0, 69, 106
1, 105380, Note_off_c, 0, 69, 106
1, 105380, Note_on_c, 0, 71, 112
1, 105825, Note_off_c, 0, 71, 112
1, 105825, Note_on_c, 0, 74, 108
1, 106177, Note_off_c, 0, 74, 108
1, 108196, Note_on_c, 0, 57, 108
1, 108515, Note_off_c, 0, 57, 108
1, 108620, Note_on_c, 0, 59, 104
1, 108981, Note_off_c, 0, 59, 104
1, 108989, Note_on_c, 0, 62, 106
1, 109392, Note_off_c, 0, 62, 106
1, 109459, Note_on_c, 0, 65, 107
1, 109862, Note_off_c, 0, 65, 107
1, 109979, Note_on_c, 0, 69, 107
1, 110382, Note_off_c, 0, 69, 107
1, 110382, Note_on_c, 0, 71, 109
1, 110793, Note_off_c, 0, 71, 109
1, 110885, Note_on_c, 0, 74, 102
1, 111229, Note_off_c, 0, 74, 102
1, 111229, Note_on_c, 0, 69, 108
1, 111674, Note_off_c, 0, 69, 108
1, 113202, Note_on_c, 0, 71, 111
1, 113655, Note_off_c, 0, 71, 111
1, 113722, Note_on_c, 0, 69, 106
1, 114049, Note_off_c, 0, 69, 106
1, 114091, Note_on_c, 0, 65, 106
1, 114485, Note_off_c, 0, 65, 106
1, 114560, Note_on_c, 0, 62, 109
1, 115030, Note_off_c, 0, 62, 109
1, 115030, Note_on_c, 0, 59, 104
1, 115475, Note_off_c, 0, 59, 104
1, 116860, Note_on_c, 0, 59, 105
1, 117330, Note_off_c, 0, 59, 105
1, 118380, Note_on_c, 0, 59, 104
1, 118707, Note_off_c, 0, 59, 104
1, 118707, Note_on_c, 0, 62, 110
1, 119169, Note_off_c, 0, 62, 110
1, 119227, Note_on_c, 0, 65, 110
1, 119563, Note_off_c, 0, 65, 110
1, 119604, Note_on_c, 0, 69, 111
1, 120032, Note_off_c, 0, 69, 111
1, 120032, Note_on_c, 0, 71, 113
1, 120393, Note_on_c, 0, 74, 107
1, 120393, Note_off_c, 0, 71, 113
1, 120871, Note_off_c, 0, 74, 107
1, 120879, Note_on_c, 0, 72, 107
1, 121307, Note_off_c, 0, 72, 107
1, 121307, Note_on_c, 0, 69, 108
1, 121886, Note_off_c, 0, 69, 108
1, 121919, Note_on_c, 0, 71, 106
1, 122380, Note_off_c, 0, 71, 106
1, 122380, Note_on_c, 0, 69, 104
1, 122657, Note_off_c, 0, 69, 104
1, 122766, Note_on_c, 0, 65, 100
1, 123152, Note_off_c, 0, 65, 100
1, 123261, Note_on_c, 0, 62, 90
1, 123647, Note_off_c, 0, 62, 90
1, 123756, Note_on_c, 0, 59, 86
1, 124217, Note_off_c, 0, 59, 86
1, 124217, Note_on_c, 0, 67, 93
1, 124527, Note_off_c, 0, 67, 93
1, 124535, Note_on_c, 0, 65, 101
1, 124862, Note_off_c, 0, 65, 101
1, 124862, Note_on_c, 0, 62, 95
1, 125315, Note_off_c, 0, 62, 95
1, 125365, Note_on_c, 0, 57, 96
1, 125734, Note_off_c, 0, 57, 96
1, 128648, Note_on_c, 0, 71, 101
1, 129126, Note_off_c, 0, 71, 101
1, 129151, Note_on_c, 0, 67, 100
1, 129571, Note_off_c, 0, 67, 100
1, 129680, Note_on_c, 0, 69, 101
1, 130032, Note_off_c, 0, 69, 101
1, 130115, Note_on_c, 0, 65, 101
1, 130434, Note_off_c, 0, 65, 101
1, 130509, Note_on_c, 0, 62, 95
1, 130786, Note_off_c, 0, 62, 95
1, 130819, Note_on_c, 0, 59, 94
1, 131314, Note_off_c, 0, 59, 94
1, 133346, Note_on_c, 0, 62, 94
1, 133732, Note_off_c, 0, 62, 94
1, 133849, Note_on_c, 0, 65, 103
1, 134227, Note_off_c, 0, 65, 103
1, 134277, Note_on_c, 0, 67, 94
1, 134579, Note_off_c, 0, 67, 94
1, 134637, Note_on_c, 0, 69, 99
1, 135073, Note_off_c, 0, 69, 99
1, 135098, Note_on_c, 0, 71, 106
1, 135627, Note_off_c, 0, 71, 106
1, 137685, Note_on_c, 0, 62, 100
1, 138063, Note_off_c, 0, 62, 100
1, 138113, Note_on_c, 0, 65, 103
1, 138541, Note_off_c, 0, 65, 103
1, 138541, Note_on_c, 0, 60, 97
1, 138977, Note_off_c, 0, 60, 97
1, 139002, Note_on_c, 0, 65, 103
1, 139405, Note_off_c, 0, 65, 103
1, 139405, Note_on_c, 0, 69, 102
1, 139808, Note_off_c, 0, 69, 102
1, 139824, Note_on_c, 0, 67, 106
1, 140319, Note_off_c, 0, 67, 106
1, 140319, Note_on_c, 0, 69, 105
1, 140671, Note_off_c, 0, 69, 105
1, 140671, Note_on_c, 0, 67, 111
1, 141082, Note_off_c, 0, 67, 111
1, 141082, Note_on_c, 0, 69, 109
1, 141611, Note_off_c, 0, 69, 109
1, 141745, Note_on_c, 0, 67, 102
1, 142257, Note_off_c, 0, 67, 102
1, 142257, Note_on_c, 0, 60, 104
1, 142668, Note_off_c, 0, 60, 104
1, 142668, Note_on_c, 0, 65, 99
1, 142995, Note_off_c, 0, 65, 99
1, 143028, Note_on_c, 0, 69, 97
1, 143590, Note_off_c, 0, 69, 97
1, 143665, Note_on_c, 0, 74, 90
1, 143883, Note_off_c, 0, 74, 90
1, 143883, Note_on_c, 0, 73, 99
1, 144168, Note_off_c, 0, 73, 99
1, 144193, Note_on_c, 0, 69, 95
1, 144520, Note_off_c, 0, 69, 95
1, 144570, Note_on_c, 0, 65, 104
1, 144838, Note_off_c, 0, 65, 104
1, 144930, Note_on_c, 0, 62, 99
1, 145408, Note_off_c, 0, 62, 99
1, 145492, Note_on_c, 0, 58, 86
1, 145853, Note_on_c, 0, 67, 101
1, 145853, Note_off_c, 0, 58, 86
1, 146214, Note_off_c, 0, 67, 101
1, 146222, Note_on_c, 0, 65, 100
1, 146457, Note_off_c, 0, 65, 100
1, 146465, Note_on_c, 0, 62, 101
1, 146927, Note_off_c, 0, 62, 101
1, 147053, Note_on_c, 0, 57, 102
1, 147573, Note_off_c, 0, 57, 102
1, 147959, Note_on_c, 0, 57, 103
1, 148379, Note_off_c, 0, 57, 103
1, 148379, Note_on_c, 0, 59, 101
1, 148757, Note_off_c, 0, 59, 101
1, 148849, Note_on_c, 0, 55, 97
1, 149395, Note_off_c, 0, 55, 97
1, 151604, Note_on_c, 0, 55, 100
1, 152015, Note_off_c, 0, 55, 100
1, 152056, Note_on_c, 0, 59, 102
1, 152408, Note_off_c, 0, 59, 102
1, 152450, Note_on_c, 0, 57, 99
1, 152744, Note_off_c, 0, 57, 99
1, 152794, Note_on_c, 0, 55, 99
1, 152987, Note_off_c, 0, 55, 99
1, 153037, Note_on_c, 0, 53, 99
1, 153381, Note_off_c, 0, 53, 99
1, 154699, Note_on_c, 0, 53, 106
1, 155186, Note_off_c, 0, 53, 106
1, 155698, Note_on_c, 0, 59, 102
1, 156109, Note_off_c, 0, 59, 102
1, 156117, Note_on_c, 0, 60, 109
1, 156503, Note_off_c, 0, 60, 109
1, 156553, Note_on_c, 0, 57, 104
1, 156889, Note_off_c, 0, 57, 104
1, 158342, Note_on_c, 0, 55, 101
1, 158879, Note_off_c, 0, 55, 101
1, 158946, Note_on_c, 0, 59, 103
1, 159265, Note_off_c, 0, 59, 103
1, 159307, Note_on_c, 0, 62, 105
1, 159710, Note_on_c, 0, 57, 103
1, 159710, Note_off_c, 0, 62, 105
1, 160155, Note_off_c, 0, 57, 103
1, 161935, Note_on_c, 0, 57, 109
1, 162455, Note_off_c, 0, 57, 109
1, 162790, Note_on_c, 0, 60, 107
1, 163151, Note_off_c, 0, 60, 107
1, 163184, Note_on_c, 0, 64, 114
1, 163578, Note_off_c, 0, 64, 114
1, 163578, Note_on_c, 0, 59, 106
1, 163964, Note_off_c, 0, 59, 106
1, 165442, Note_on_c, 0, 59, 107
1, 165946, Note_off_c, 0, 59, 107
1, 166307, Note_on_c, 0, 62, 111
1, 166727, Note_off_c, 0, 62, 111
1, 166760, Note_on_c, 0, 65, 107
1, 167079, Note_off_c, 0, 65, 107
1, 167129, Note_on_c, 0, 67, 107
1, 167633, Note_off_c, 0, 67, 107
1, 169052, Note_on_c, 0, 62, 110
1, 169463, Note_off_c, 0, 62, 110
1, 169513, Note_on_c, 0, 65, 104
1, 169773, Note_off_c, 0, 65, 104
1, 169848, Note_on_c, 0, 69, 109
1, 170318, Note_off_c, 0, 69, 109
1, 170385, Note_on_c, 0, 72, 105
1, 170737, Note_off_c, 0, 72, 105
1, 170762, Note_on_c, 0, 67, 105
1, 171182, Note_off_c, 0, 67, 105
1, 172635, Note_on_c, 0, 67, 106
1, 173113, Note_off_c, 0, 67, 106
1, 173591, Note_on_c, 0, 71, 113
1, 174044, Note_off_c, 0, 71, 113
1, 174111, Note_on_c, 0, 74, 106
1, 174446, Note_off_c, 0, 74, 106
1, 174446, Note_on_c, 0, 73, 110
1, 174513, Note_off_c, 0, 73, 110
1, 174546, Note_on_c, 0, 72, 114
1, 175075, Note_off_c, 0, 72, 114
1, 176267, Note_on_c, 0, 65, 108
1, 176787, Note_off_c, 0, 65, 108
1, 177114, Note_on_c, 0, 69, 107
1, 177584, Note_off_c, 0, 69, 107
1, 177676, Note_on_c, 0, 72, 107
1, 178012, Note_off_c, 0, 72, 107
1, 178121, Note_on_c, 0, 71, 104
1, 178583, Note_off_c, 0, 71, 104
1, 178624, Note_on_c, 0, 67, 98
1, 178934, Note_off_c, 0, 67, 98
1, 179051, Note_on_c, 0, 74, 97
1, 179412, Note_off_c, 0, 74, 97
1, 179428, Note_on_c, 0, 72, 95
1, 179545, Note_off_c, 0, 72, 95
1, 179570, Note_on_c, 0, 71, 105
1, 179721, Note_off_c, 0, 71, 105
1, 179729, Note_on_c, 0, 62, 103
1, 180325, Note_off_c, 0, 62, 103
1, 181517, Note_on_c, 0, 62, 110
1, 181970, Note_off_c, 0, 62, 110
1, 182465, Note_on_c, 0, 69, 105
1, 182901, Note_off_c, 0, 69, 105
1, 183027, Note_on_c, 0, 71, 102
1, 183245, Note_off_c, 0, 71, 102
1, 183261, Note_on_c, 0, 70, 109
1, 183353, Note_off_c, 0, 70, 109
1, 183378, Note_on_c, 0, 66, 112
1, 183890, Note_off_c, 0, 66, 112
1, 183940, Note_on_c, 0, 68, 110
1, 184326, Note_off_c, 0, 68, 110
1, 184326, Note_on_c, 0, 64, 107
1, 184771, Note_off_c, 0, 64, 107
1, 184813, Note_on_c, 0, 60, 99
1, 185182, Note_off_c, 0, 60, 99
1, 185182, Note_on_c, 0, 62, 111
1, 185627, Note_off_c, 0, 62, 111
1, 185685, Note_on_c, 0, 60, 101
1, 185953, Note_off_c, 0, 60, 101
1, 186028, Note_on_c, 0, 59, 101
1, 186254, Note_off_c, 0, 59, 101
1, 186842, Note_on_c, 0, 63, 113
1, 187514, Note_off_c, 0, 63, 113
1, 187824, Note_on_c, 0, 70, 107
1, 188302, Note_off_c, 0, 70, 107
1, 188386, Note_on_c, 0, 70, 102
1, 188663, Note_off_c, 0, 70, 102
1, 188801, Note_on_c, 0, 61, 112
1, 189237, Note_off_c, 0, 61, 112
1, 190574, Note_on_c, 0, 61, 107
1, 190986, Note_off_c, 0, 61, 107
1, 191051, Note_on_c, 0, 66, 99
1, 191295, Note_off_c, 0, 66, 99
1, 191408, Note_on_c, 0, 70, 105
1, 191700, Note_off_c, 0, 70, 105
1, 191759, Note_on_c, 0, 71, 106
1, 192045, Note_off_c, 0, 71, 106
1, 192152, Note_on_c, 0, 63, 113
1, 192767, Note_off_c, 0, 63, 113
1, 192767, Note_on_c, 0, 66, 102
1, 193053, Note_off_c, 0, 66, 102
1, 193082, Note_on_c, 0, 70, 104
1, 193553, Note_off_c, 0, 70, 104
1, 193594, Note_on_c, 0, 72, 109
1, 193964, Note_off_c, 0, 72, 109
1, 193993, Note_on_c, 0, 68, 106
1, 194405, Note_off_c, 0, 68, 106
1, 195820, Note_on_c, 0, 68, 102
1, 196208, Note_off_c, 0, 68, 102
1, 196745, Note_on_c, 0, 72, 107
1, 197133, Note_off_c, 0, 72, 107
1, 197252, Note_on_c, 0, 75, 103
1, 197640, Note_off_c, 0, 75, 103
1, 197693, Note_on_c, 0, 73, 103
1, 198152, Note_off_c, 0, 73, 103
1, 198271, Note_on_c, 0, 70, 104
1, 198599, Note_off_c, 0, 70, 104
1, 198640, Note_on_c, 0, 73, 105
1, 198968, Note_off_c, 0, 73, 105
1, 199021, Note_on_c, 0, 70, 95
1, 199516, Note_off_c, 0, 70, 95
1, 200495, Note_on_c, 0, 63, 106
1, 200943, Note_off_c, 0, 63, 106
1, 200972, Note_on_c, 0, 68, 97
1, 201270, Note_off_c, 0, 68, 97
1, 201311, Note_on_c, 0, 72, 105
1, 201609, Note_off_c, 0, 72, 105
1, 203072, Note_on_c, 0, 61, 108
1, 203508, Note_off_c, 0, 61, 108
1, 203531, Note_on_c, 0, 66, 98
1, 203835, Note_off_c, 0, 66, 98
1, 203900, Note_on_c, 0, 70, 97
1, 204192, Note_off_c, 0, 70, 97
1, 204305, Note_on_c, 0, 60, 106
1, 204830, Note_off_c, 0, 60, 106
1, 205827, Note_on_c, 0, 60, 93
1, 206125, Note_off_c, 0, 60, 93
1, 206316, Note_on_c, 0, 63, 104
1, 206662, Note_off_c, 0, 63, 104
1, 206727, Note_on_c, 0, 68, 104
1, 207127, Note_off_c, 0, 68, 104
1, 207150, Note_on_c, 0, 67, 109
1, 207687, Note_off_c, 0, 67, 109
1, 207716, Note_on_c, 0, 67, 103
1, 207972, Note_off_c, 0, 67, 103
1, 207983, Note_on_c, 0, 64, 102
1, 208162, Note_off_c, 0, 64, 102
1, 208167, Note_on_c, 0, 65, 96
1, 208423, Note_off_c, 0, 65, 96
1, 208488, Note_on_c, 0, 69, 100
1, 208768, Note_off_c, 0, 69, 100
1, 210219, Note_on_c, 0, 58, 99
1, 210619, Note_off_c, 0, 58, 99
1, 210654, Note_on_c, 0, 61, 95
1, 210952, Note_off_c, 0, 61, 95
1, 210999, Note_on_c, 0, 62, 101
1, 211441, Note_off_c, 0, 62, 101
1, 211512, Note_on_c, 0, 65, 107
1, 211942, Note_off_c, 0, 65, 107
1, 212001, Note_on_c, 0, 63, 111
1, 212484, Note_off_c, 0, 63, 111
1, 212495, Note_on_c, 0, 66, 101
1, 212686, Note_off_c, 0, 66, 101
1, 212930, Note_on_c, 0, 70, 99
1, 213192, Note_off_c, 0, 70, 99
1, 213305, Note_on_c, 0, 72, 99
1, 213526, Note_off_c, 0, 72, 99
1, 213526, Note_on_c, 0, 71, 104
1, 213818, Note_off_c, 0, 71, 104
1, 213835, Note_on_c, 0, 68, 101
1, 214288, Note_off_c, 0, 68, 101
1, 214365, Note_on_c, 0, 66, 95
1, 214544, Note_off_c, 0, 66, 95
1, 214555, Note_on_c, 0, 63, 103
1, 215044, Note_off_c, 0, 63, 103
1, 216477, Note_on_c, 0, 62, 103
1, 216781, Note_off_c, 0, 62, 103
1, 216876, Note_on_c, 0, 65, 107
1, 217073, Note_off_c, 0, 65, 107
1, 217162, Note_on_c, 0, 69, 103
1, 217454, Note_off_c, 0, 69, 103
1, 218917, Note_on_c, 0, 64, 109
1, 219418, Note_off_c, 0, 64, 109
1, 219465, Note_on_c, 0, 67, 100
1, 219751, Note_off_c, 0, 67, 100
1, 219751, Note_on_c, 0, 71, 106
1, 220264, Note_off_c, 0, 71, 106
1, 220317, Note_on_c, 0, 65, 99
1, 220729, Note_off_c, 0, 65, 99
1, 221768, Note_on_c, 0, 65, 101
1, 222239, Note_off_c, 0, 65, 101
1, 222239, Note_on_c, 0, 69, 101
1, 222615, Note_off_c, 0, 69, 101
1, 222662, Note_on_c, 0, 72, 104
1, 223092, Note_off_c, 0, 72, 104
1, 223193, Note_on_c, 0, 67, 97
1, 223443, Note_off_c, 0, 67, 97
1, 223472, Note_on_c, 0, 69, 101
1, 223866, Note_off_c, 0, 69, 101
1, 224039, Note_on_c, 0, 72, 103
1, 224283, Note_off_c, 0, 72, 103
1, 224372, Note_on_c, 0, 69, 105
1, 224820, Note_off_c, 0, 69, 105
1, 226271, Note_on_c, 0, 69, 104
1, 226569, Note_on_c, 0, 71, 101
1, 226569, Note_off_c, 0, 69, 104
1, 226885, Note_off_c, 0, 71, 101
1, 226944, Note_on_c, 0, 72, 102
1, 227433, Note_off_c, 0, 72, 102
1, 227665, Note_on_c, 0, 74, 97
1, 227886, Note_off_c, 0, 74, 97
1, 227903, Note_on_c, 0, 72, 103
1, 228034, Note_off_c, 0, 72, 103
1, 228063, Note_on_c, 0, 69, 103
1, 228367, Note_off_c, 0, 69, 103
1, 228558, Note_on_c, 0, 65, 100
1, 228904, Note_off_c, 0, 65, 100
1, 228915, Note_on_c, 0, 62, 94
1, 229261, Note_off_c, 0, 62, 94
1, 229786, Note_on_c, 0, 62, 99
1, 230150, Note_off_c, 0, 62, 99
1, 230699, Note_on_c, 0, 66, 90
1, 230830, Note_off_c, 0, 66, 90
1, 230830, Note_on_c, 0, 69, 100
1, 231116, Note_off_c, 0, 69, 100
1, 231139, Note_on_c, 0, 69, 95
1, 231312, Note_off_c, 0, 69, 95
1, 231365, Note_on_c, 0, 72, 101
1, 231526, Note_off_c, 0, 72, 101
1, 231526, Note_on_c, 0, 66, 109
1, 231681, Note_off_c, 0, 66, 109
1, 231740, Note_on_c, 0, 60, 103
1, 232152, Note_off_c, 0, 60, 103
1, 232916, Note_on_c, 0, 67, 102
1, 233125, Note_off_c, 0, 67, 102
1, 233136, Note_on_c, 0, 71, 98
1, 233386, Note_off_c, 0, 71, 98
1, 233426, Note_on_c, 0, 62, 86
1, 233850, Note_off_c, 0, 62, 86
1, 234341, Note_on_c, 0, 69, 103
1, 234806, Note_off_c, 0, 69, 103
1, 234806, Note_on_c, 0, 71, 100
1, 235188, Note_off_c, 0, 71, 100
1, 235265, Note_on_c, 0, 64, 97
1, 235545, Note_off_c, 0, 64, 97
1, 236196, Note_on_c, 0, 71, 97
1, 236452, Note_off_c, 0, 71, 97
1, 236529, Note_on_c, 0, 71, 96
1, 236851, Note_off_c, 0, 71, 96
1, 237030, Note_on_c, 0, 72, 99
1, 237382, Note_off_c, 0, 72, 99
1, 237531, Note_on_c, 0, 69, 101
1, 237853, Note_off_c, 0, 69, 101
1, 237948, Note_on_c, 0, 72, 101
1, 238288, Note_off_c, 0, 72, 101
1, 238311, Note_on_c, 0, 69, 96
1, 238633, Note_off_c, 0, 69, 96
1, 238728, Note_on_c, 0, 71, 104
1, 239140, Note_off_c, 0, 71, 104
1, 239140, Note_on_c, 0, 69, 102
1, 239635, Note_off_c, 0, 69, 102
1, 241865, Note_on_c, 0, 70, 98
1, 242175, Note_off_c, 0, 70, 98
1, 242175, Note_on_c, 0, 71, 9
1, 243409, Note_off_c, 0, 71, 9
1, 243909, Note_on_c, 0, 69, 109
1, 244333, Note_off_c, 0, 69, 109
1, 244763, Note_on_c, 0, 71, 110
1, 245199, Note_off_c, 0, 71, 110
1, 245258, Note_on_c, 0, 71, 103
1, 245389, Note_off_c, 0, 71, 103
1, 245454, Note_on_c, 0, 74, 102
1, 245663, Note_off_c, 0, 74, 102
1, 245710, Note_on_c, 0, 69, 113
1, 246140, Note_off_c, 0, 69, 113
1, 247693, Note_on_c, 0, 69, 106
1, 248003, Note_off_c, 0, 69, 106
1, 248068, Note_on_c, 0, 72, 106
1, 248294, Note_off_c, 0, 72, 106
1, 248401, Note_on_c, 0, 74, 101
1, 248729, Note_off_c, 0, 74, 101
1, 248770, Note_on_c, 0, 73, 94
1, 248996, Note_off_c, 0, 73, 94
1, 248996, Note_on_c, 0, 65, 90
1, 249246, Note_off_c, 0, 65, 90
1, 249299, Note_on_c, 0, 69, 107
1, 249729, Note_off_c, 0, 69, 107
1, 251222, Note_on_c, 0, 65, 106
1, 251646, Note_off_c, 0, 65, 106
1, 251711, Note_on_c, 0, 69, 104
1, 252200, Note_off_c, 0, 69, 104
1, 252289, Note_on_c, 0, 72, 103
1, 252420, Note_off_c, 0, 72, 103
1, 252527, Note_on_c, 0, 72, 108
1, 252998, Note_off_c, 0, 72, 108
1, 253057, Note_on_c, 0, 69, 105
1, 253415, Note_off_c, 0, 69, 105
1, 253546, Note_on_c, 0, 65, 106
1, 253826, Note_off_c, 0, 65, 106
1, 253897, Note_on_c, 0, 62, 106
1, 254249, Note_off_c, 0, 62, 106
1, 254404, Note_on_c, 0, 57, 102
1, 254630, Note_off_c, 0, 57, 102
1, 254695, Note_on_c, 0, 64, 109
1, 255137, Note_off_c, 0, 64, 109
1, 256516, Note_on_c, 0, 64, 106
1, 256748, Note_off_c, 0, 64, 106
1, 256759, Note_on_c, 0, 67, 108
1, 256866, Note_off_c, 0, 67, 108
1, 256943, Note_on_c, 0, 62, 94
1, 257152, Note_off_c, 0, 62, 94
1, 257325, Note_on_c, 0, 67, 99
1, 257850, Note_off_c, 0, 67, 99
1, 257909, Note_on_c, 0, 71, 101
1, 258189, Note_off_c, 0, 71, 101
1, 258275, Note_on_c, 0, 70, 92
1, 258723, Note_off_c, 0, 70, 92
1, 258786, Note_on_c, 0, 68, 98
1, 259012, Note_off_c, 0, 68, 98
1, 259041, Note_on_c, 0, 71, 105
1, 259375, Note_off_c, 0, 71, 105
1, 259386, Note_on_c, 0, 70, 101
1, 260305, Note_off_c, 0, 70, 101
1, 260442, Note_on_c, 0, 68, 107
1, 260734, Note_off_c, 0, 68, 107
1, 260889, Note_on_c, 0, 67, 106
1, 261139, Note_off_c, 0, 67, 106
1, 261288, Note_on_c, 0, 67, 109
1, 261610, Note_off_c, 0, 67, 109
1, 261639, Note_on_c, 0, 64, 103
1, 261836, Note_off_c, 0, 64, 103
1, 261871, Note_on_c, 0, 60, 100
1, 262187, Note_off_c, 0, 60, 100
1, 262222, Note_on_c, 0, 65, 101
1, 262431, Note_off_c, 0, 65, 101
1, 262431, Note_on_c, 0, 69, 100
1, 262950, Note_off_c, 0, 69, 100
1, 263105, Note_on_c, 0, 72, 107
1, 263517, Note_off_c, 0, 72, 107
1, 263582, Note_on_c, 0, 69, 102
1, 263886, Note_off_c, 0, 69, 102
1, 264077, Note_on_c, 0, 65, 101
1, 264280, Note_off_c, 0, 65, 101
1, 264387, Note_on_c, 0, 62, 105
1, 264906, Note_off_c, 0, 62, 105
1, 265025, Note_on_c, 0, 64, 97
1, 265174, Note_off_c, 0, 64, 97
1, 265281, Note_on_c, 0, 65, 108
1, 266039, Note_off_c, 0, 65, 108
1, 266104, Note_on_c, 0, 67, 102
1, 266390, Note_off_c, 0, 67, 102
1, 266407, Note_on_c, 0, 66, 108
1, 266520, Note_off_c, 0, 66, 108
1, 266579, Note_on_c, 0, 62, 107
1, 267188, Note_off_c, 0, 62, 107
1, 269774, Note_on_c, 0, 67, 103
1, 269959, Note_off_c, 0, 67, 103
1, 270006, Note_on_c, 0, 68, 100
1, 270203, Note_off_c, 0, 68, 100
1, 270208, Note_on_c, 0, 69, 102
1, 271850, Note_off_c, 0, 69, 102
1, 272286, Note_on_c, 0, 62, 101
1, 273229, Note_off_c, 0, 62, 101
1, 273354, Note_on_c, 0, 65, 104
1, 273628, Note_off_c, 0, 65, 104
1, 274338, Note_on_c, 0, 61, 106
1, 275030, Note_off_c, 0, 61, 106
1, 275059, Note_on_c, 0, 64, 104
1, 275512, Note_off_c, 0, 64, 104
1, 275547, Note_on_c, 0, 62, 102
1, 276060, Note_off_c, 0, 62, 102
1, 277774, Note_on_c, 0, 62, 101
1, 278174, Note_off_c, 0, 62, 101
1, 278657, Note_on_c, 0, 69, 101
1, 279021, Note_off_c, 0, 69, 101
1, 279086, Note_on_c, 0, 71, 112
1, 279402, Note_off_c, 0, 71, 112
1, 279640, Note_on_c, 0, 64, 115
1, 280064, Note_off_c, 0, 64, 115
1, 280171, Note_on_c, 0, 63, 102
1, 280475, Note_off_c, 0, 63, 102
1, 280564, Note_on_c, 0, 62, 105
1, 280886, Note_off_c, 0, 62, 105
1, 280963, Note_on_c, 0, 65, 108
1, 281249, Note_off_c, 0, 65, 108
1, 281272, Note_on_c, 0, 60, 109
1, 281773, Note_off_c, 0, 60, 109
1, 281796, Note_on_c, 0, 63, 113
1, 282232, Note_off_c, 0, 63, 113
1, 282255, Note_on_c, 0, 68, 97
1, 282565, Note_off_c, 0, 68, 97
1, 282750, Note_on_c, 0, 71, 105
1, 283000, Note_off_c, 0, 71, 105
1, 283071, Note_on_c, 0, 64, 99
1, 283495, Note_off_c, 0, 64, 99
1, 285042, Note_on_c, 0, 64, 105
1, 285406, Note_off_c, 0, 64, 105
1, 285477, Note_on_c, 0, 68, 100
1, 285745, Note_off_c, 0, 68, 100
1, 285774, Note_on_c, 0, 70, 103
1, 286144, Note_off_c, 0, 70, 103
1, 286251, Note_on_c, 0, 71, 104
1, 286513, Note_off_c, 0, 71, 104
1, 286805, Note_on_c, 0, 63, 102
1, 287109, Note_off_c, 0, 63, 102
1, 287718, Note_on_c, 0, 63, 106
1, 288154, Note_off_c, 0, 63, 106
1, 288297, Note_on_c, 0, 66, 95
1, 288529, Note_off_c, 0, 66, 95
1, 288555, Note_on_c, 0, 70, 107
1, 289756, Note_off_c, 0, 70, 107
1, 289848, Note_on_c, 0, 68, 107
1, 290234, Note_off_c, 0, 68, 107
1, 290318, Note_on_c, 0, 66, 100
1, 290679, Note_off_c, 0, 66, 100
1, 290813, Note_on_c, 0, 63, 101
1, 291224, Note_off_c, 0, 63, 101
1, 291316, Note_on_c, 0, 59, 97
1, 291828, Note_off_c, 0, 59, 97
1, 291970, Note_on_c, 0, 61, 106
1, 292381, Note_off_c, 0, 61, 106
1, 292431, Note_on_c, 0, 62, 105
1, 292993, Note_off_c, 0, 62, 105
1, 293295, Note_on_c, 0, 67, 104
1, 293702, Note_off_c, 0, 67, 104
1, 293722, Note_on_c, 0, 62, 103
1, 294146, Note_off_c, 0, 62, 103
1, 294196, Note_on_c, 0, 61, 108
1, 294712, Note_off_c, 0, 61, 108
1, 294720, Note_on_c, 0, 59, 101
1, 295060, Note_off_c, 0, 59, 101
1, 295139, Note_on_c, 0, 58, 102
1, 295659, Note_off_c, 0, 58, 102
1, 295671, Note_on_c, 0, 57, 102
1, 295981, Note_off_c, 0, 57, 102
1, 296073, Note_on_c, 0, 56, 102
1, 296497, Note_off_c, 0, 56, 102
1, 296501, Note_on_c, 0, 55, 100
1, 296757, Note_off_c, 0, 55, 100
1, 296929, Note_on_c, 0, 59, 102
1, 297277, Note_off_c, 0, 59, 102
1, 297356, Note_on_c, 0, 57, 102
1, 297700, Note_off_c, 0, 57, 102
1, 297905, Note_on_c, 0, 62, 106
1, 298257, Note_off_c, 0, 62, 106
1, 298362, Note_on_c, 0, 65, 99
1, 298656, Note_off_c, 0, 65, 99
1, 298714, Note_on_c, 0, 69, 96
1, 299050, Note_off_c, 0, 69, 96
1, 299070, Note_on_c, 0, 74, 93
1, 299221, Note_off_c, 0, 74, 93
1, 302757, Note_on_c, 0, 70, 102
1, 306066, Note_off_c, 0, 70, 102
1, 306124, Note_on_c, 0, 68, 99
1, 306518, Note_off_c, 0, 68, 99
1, 306553, Note_on_c, 0, 70, 101
1, 307210, Note_off_c, 0, 70, 101
1, 309157, Note_on_c, 0, 70, 91
1, 309395, Note_off_c, 0, 70, 91
1, 309406, Note_on_c, 0, 71, 95
1, 309555, Note_off_c, 0, 71, 95
1, 309578, Note_on_c, 0, 72, 97
1, 310898, Note_off_c, 0, 72, 97
1, 310951, Note_on_c, 0, 70, 98
1, 311470, Note_off_c, 0, 70, 98
1, 311529, Note_on_c, 0, 68, 96
1, 311839, Note_off_c, 0, 68, 96
1, 311916, Note_on_c, 0, 66, 99
1, 312316, Note_off_c, 0, 66, 99
1, 312411, Note_on_c, 0, 63, 105
1, 313085, Note_off_c, 0, 63, 105
1, 313120, Note_on_c, 0, 61, 96
1, 313233, Note_off_c, 0, 61, 96
1, 313256, Note_on_c, 0, 63, 118
1, 313990, Note_off_c, 0, 63, 118
1, 316289, Note_on_c, 0, 70, 99
1, 316450, Note_off_c, 0, 70, 99
1, 316455, Note_on_c, 0, 71, 101
1, 316598, Note_off_c, 0, 71, 101
1, 316633, Note_on_c, 0, 72, 103
1, 317953, Note_off_c, 0, 72, 103
1, 318074, Note_on_c, 0, 73, 91
1, 318410, Note_off_c, 0, 73, 91
1, 318552, Note_on_c, 0, 68, 100
1, 318913, Note_off_c, 0, 68, 100
1, 318913, Note_on_c, 0, 72, 102
1, 319283, Note_off_c, 0, 72, 102
1, 319283, Note_on_c, 0, 71, 103
1, 322855, Note_off_c, 0, 71, 103
1, 322866, Note_on_c, 0, 70, 109
1, 323325, Note_off_c, 0, 70, 109
1, 323366, Note_on_c, 0, 69, 108
1, 323754, Note_off_c, 0, 69, 108
1, 323759, Note_on_c, 0, 68, 105
1, 325103, Note_off_c, 0, 68, 105
1, 325132, Note_on_c, 0, 67, 99
1, 325442, Note_off_c, 0, 67, 99
1, 325519, Note_on_c, 0, 66, 101
1, 325907, Note_off_c, 0, 66, 101
1, 326068, Note_on_c, 0, 72, 104
1, 326426, Note_off_c, 0, 72, 104
1, 326491, Note_on_c, 0, 69, 102
1, 326885, Note_off_c, 0, 69, 102
1, 326944, Note_on_c, 0, 66, 101
1, 327314, Note_off_c, 0, 66, 101
1, 327385, Note_on_c, 0, 65, 103
1, 327713, Note_off_c, 0, 65, 103
1, 327713, Note_on_c, 0, 64, 108
1, 328029, Note_on_c, 0, 63, 115
1, 328029, Note_off_c, 0, 64, 108
1, 328441, Note_off_c, 0, 63, 115
1, 328476, Note_on_c, 0, 62, 106
1, 328971, Note_off_c, 0, 62, 106
1, 329036, Note_on_c, 0, 61, 112
1, 329280, Note_off_c, 0, 61, 112
1, 329333, Note_on_c, 0, 60, 104
1, 329930, Note_off_c, 0, 60, 104
1, 329930, Note_on_c, 0, 59, 98
1, 330210, Note_off_c, 0, 59, 98
1, 330257, Note_on_c, 0, 58, 98
1, 330609, Note_off_c, 0, 58, 98
1, 330728, Note_on_c, 0, 57, 109
1, 331187, Note_off_c, 0, 57, 109
1, 331240, Note_on_c, 0, 56, 102
1, 331538, Note_off_c, 0, 56, 102
1, 331567, Note_on_c, 0, 55, 104
1, 332062, Note_off_c, 0, 55, 104
1, 332121, Note_on_c, 0, 59, 105
1, 332443, Note_off_c, 0, 59, 105
1, 332478, Note_on_c, 0, 57, 101
1, 332920, Note_off_c, 0, 57, 101
1, 333033, Note_on_c, 0, 62, 101
1, 333498, Note_off_c, 0, 62, 101
1, 334310, Note_on_c, 0, 72, 101
1, 334644, Note_off_c, 0, 72, 101
1, 334697, Note_on_c, 0, 72, 89
1, 335115, Note_off_c, 0, 72, 89
1, 335162, Note_on_c, 0, 69, 104
1, 335579, Note_off_c, 0, 69, 104
1, 335579, Note_on_c, 0, 71, 104
1, 335919, Note_off_c, 0, 71, 104
1, 335948, Note_on_c, 0, 69, 105
1, 336393, Note_off_c, 0, 69, 105
1, 336510, Note_on_c, 0, 65, 109
1, 336804, Note_off_c, 0, 65, 109
1, 336837, Note_on_c, 0, 64, 106
1, 337374, Note_off_c, 0, 64, 106
1, 337416, Note_on_c, 0, 67, 102
1, 337785, Note_off_c, 0, 67, 102
1, 337818, Note_on_c, 0, 62, 107
1, 338296, Note_off_c, 0, 62, 107
1, 338312, Note_on_c, 0, 61, 101
1, 338740, Note_off_c, 0, 61, 101
1, 338798, Note_on_c, 0, 57, 98
1, 339134, Note_off_c, 0, 57, 98
1, 339246, Note_on_c, 0, 54, 103
1, 339467, Note_off_c, 0, 54, 103
1, 339508, Note_on_c, 0, 55, 96
1, 339896, Note_off_c, 0, 55, 96
1, 341538, Note_on_c, 0, 57, 104
1, 341908, Note_off_c, 0, 57, 104
1, 343275, Note_on_c, 0, 64, 113
1, 343663, Note_off_c, 0, 64, 113
1, 343692, Note_on_c, 0, 62, 108
1, 344020, Note_off_c, 0, 62, 108
1, 344092, Note_on_c, 0, 59, 98
1, 344427, Note_off_c, 0, 59, 98
1, 344603, Note_on_c, 0, 55, 102
1, 345023, Note_off_c, 0, 55, 102
1, 345065, Note_on_c, 0, 57, 107
1, 345359, Note_off_c, 0, 57, 107
1, 345391, Note_on_c, 0, 52, 103
1, 345665, Note_off_c, 0, 52, 103
1, 345772, Note_on_c, 0, 50, 106
1, 346208, Note_off_c, 0, 50, 106
1, 346231, Note_on_c, 0, 54, 99
1, 346679, Note_off_c, 0, 54, 99
1, 347180, Note_on_c, 0, 62, 93
1, 347446, Note_off_c, 0, 62, 93
1, 347446, Note_on_c, 0, 68, 99
1, 347756, Note_off_c, 0, 68, 99
1, 347856, Note_on_c, 0, 67, 108
1, 348234, Note_off_c, 0, 67, 108
1, 348418, Note_on_c, 0, 69, 104
1, 348762, Note_off_c, 0, 69, 104
1, 348762, Note_on_c, 0, 65, 87
1, 349165, Note_off_c, 0, 65, 87
1, 350180, Note_on_c, 0, 74, 101
1, 350478, Note_off_c, 0, 74, 101
1, 350573, Note_on_c, 0, 71, 110
1, 350782, Note_off_c, 0, 71, 110
1, 350787, Note_on_c, 0, 70, 105
1, 350930, Note_off_c, 0, 70, 105
1, 350965, Note_on_c, 0, 69, 101
1, 351120, Note_off_c, 0, 69, 101
1, 351173, Note_on_c, 0, 68, 106
1, 351340, Note_off_c, 0, 68, 106
1, 351381, Note_on_c, 0, 67, 106
1, 351888, Note_off_c, 0, 67, 106
1, 351893, Note_on_c, 0, 66, 107
1, 352048, Note_off_c, 0, 66, 107
1, 352077, Note_on_c, 0, 65, 100
1, 352214, Note_off_c, 0, 65, 100
1, 355015, Note_on_c, 0, 73, 105
1, 355301, Note_off_c, 0, 73, 105
1, 355312, Note_on_c, 0, 74, 101
1, 356440, Note_off_c, 0, 74, 101
1, 357324, Note_on_c, 0, 69, 105
1, 357736, Note_off_c, 0, 69, 105
1, 357795, Note_on_c, 0, 74, 102
1, 358392, Note_off_c, 0, 74, 102
1, 358412, Note_on_c, 0, 73, 97
1, 358626, Note_off_c, 0, 73, 97
1, 358672, Note_on_c, 0, 71, 102
1, 358982, Note_off_c, 0, 71, 102
1, 359036, Note_on_c, 0, 68, 102
1, 359850, Note_off_c, 0, 68, 102
1, 362200, Note_on_c, 0, 71, 97
1, 363794, Note_off_c, 0, 71, 97
1, 363847, Note_on_c, 0, 69, 95
1, 364178, Note_off_c, 0, 69, 95
1, 364228, Note_on_c, 0, 65, 103
1, 364698, Note_off_c, 0, 65, 103
1, 364748, Note_on_c, 0, 62, 97
1, 365092, Note_off_c, 0, 62, 97
1, 368968, Note_on_c, 0, 71, 101
1, 370412, Note_off_c, 0, 71, 101
1, 370487, Note_on_c, 0, 69, 102
1, 370865, Note_off_c, 0, 69, 102
1, 370932, Note_on_c, 0, 65, 109
1, 371377, Note_off_c, 0, 65, 109
1, 371377, Note_on_c, 0, 62, 101
1, 371687, Note_off_c, 0, 62, 101
1, 372972, Note_on_c, 0, 74, 102
1, 373333, Note_off_c, 0, 74, 102
1, 373543, Note_on_c, 0, 64, 91
1, 373753, Note_off_c, 0, 64, 91
1, 373828, Note_on_c, 0, 69, 90
1, 374323, Note_off_c, 0, 69, 90
1, 374423, Note_on_c, 0, 74, 95
1, 374633, Note_off_c, 0, 74, 95
1, 374651, Note_on_c, 0, 73, 96
1, 374764, Note_off_c, 0, 73, 96
1, 374787, Note_on_c, 0, 72, 94
1, 374888, Note_off_c, 0, 72, 94
1, 374971, Note_on_c, 0, 69, 95
1, 375233, Note_off_c, 0, 69, 95
1, 375310, Note_on_c, 0, 66, 97
1, 375674, Note_off_c, 0, 66, 97
1, 375721, Note_on_c, 0, 62, 97
1, 376109, Note_off_c, 0, 62, 97
1, 376576, Note_on_c, 0, 65, 107
1, 377844, Note_off_c, 0, 65, 107
1, 378012, Note_on_c, 0, 68, 103
1, 378234, Note_off_c, 0, 68, 103
1, 378255, Note_on_c, 0, 65, 104
1, 378393, Note_on_c, 0, 64, 114
1, 378393, Note_off_c, 0, 65, 104
1, 378823, Note_off_c, 0, 64, 114
1, 379841, Note_on_c, 0, 67, 103
1, 380021, Note_off_c, 0, 67, 103
1, 380037, Note_on_c, 0, 65, 106
1, 380142, Note_off_c, 0, 65, 106
1, 380175, Note_on_c, 0, 64, 94
1, 380401, Note_off_c, 0, 64, 94
1, 381572, Note_on_c, 0, 67, 103
1, 381920, Note_off_c, 0, 67, 103
1, 381991, Note_on_c, 0, 61, 103
1, 382440, Note_on_c, 0, 62, 102
1, 382440, Note_off_c, 0, 61, 103
1, 382746, Note_off_c, 0, 62, 102
1, 382775, Note_on_c, 0, 64, 110
1, 383182, Note_off_c, 0, 64, 110
1, 383265, Note_on_c, 0, 65, 107
1, 383605, Note_off_c, 0, 65, 107
1, 383638, Note_on_c, 0, 62, 104
1, 384041, Note_off_c, 0, 62, 104
1, 384091, Note_on_c, 0, 60, 97
1, 384506, Note_off_c, 0, 60, 97
1, 384510, Note_on_c, 0, 59, 96
1, 384829, Note_off_c, 0, 59, 96
1, 385009, Note_on_c, 0, 62, 107
1, 385303, Note_off_c, 0, 62, 107
1, 385323, Note_on_c, 0, 57, 106
1, 385650, Note_off_c, 0, 57, 106
1, 386859, Note_on_c, 0, 68, 116
1, 387413, Note_off_c, 0, 68, 116
1, 388811, Note_on_c, 0, 64, 100
1, 388936, Note_off_c, 0, 64, 100
1, 388961, Note_on_c, 0, 65, 108
1, 389368, Note_off_c, 0, 65, 108
1, 390481, Note_on_c, 0, 65, 106
1, 390821, Note_off_c, 0, 65, 106
1, 390825, Note_on_c, 0, 69, 101
1, 391135, Note_off_c, 0, 69, 101
1, 392285, Note_on_c, 0, 69, 106
1, 392579, Note_off_c, 0, 69, 106
1, 392583, Note_on_c, 0, 72, 106
1, 392994, Note_off_c, 0, 72, 106
1, 393913, Note_on_c, 0, 72, 109
1, 394244, Note_off_c, 0, 72, 109
1, 394244, Note_on_c, 0, 71, 105
1, 394529, Note_off_c, 0, 71, 105
1, 395608, Note_on_c, 0, 71, 110
1, 395931, Note_off_c, 0, 71, 110
1, 395998, Note_on_c, 0, 67, 106
1, 396346, Note_off_c, 0, 67, 106
1, 396413, Note_on_c, 0, 69, 110
1, 396765, Note_off_c, 0, 69, 110
1, 396802, Note_on_c, 0, 71, 109
1, 397150, Note_off_c, 0, 71, 109
1, 397229, Note_on_c, 0, 67, 102
1, 397577, Note_off_c, 0, 67, 102
1, 397669, Note_on_c, 0, 65, 103
1, 398068, Note_off_c, 0, 65, 103
1, 398097, Note_on_c, 0, 67, 99
1, 398365, Note_off_c, 0, 67, 99
1, 398365, Note_on_c, 0, 69, 97
1, 398831, Note_off_c, 0, 69, 97
1, 398952, Note_on_c, 0, 71, 104
1, 399254, Note_off_c, 0, 71, 104
1, 399254, Note_on_c, 0, 65, 106
1, 399648, Note_off_c, 0, 65, 106
1, 400765, Note_on_c, 0, 67, 106
1, 401142, Note_off_c, 0, 67, 106
1, 401154, Note_on_c, 0, 64, 105
1, 401603, Note_off_c, 0, 64, 105
1, 402548, Note_on_c, 0, 67, 109
1, 402984, Note_off_c, 0, 67, 109
1, 403038, Note_on_c, 0, 61, 111
1, 403491, Note_off_c, 0, 61, 111
1, 403537, Note_on_c, 0, 62, 108
1, 403961, Note_off_c, 0, 62, 108
1, 403965, Note_on_c, 0, 64, 109
1, 404280, Note_off_c, 0, 64, 109
1, 404317, Note_on_c, 0, 65, 108
1, 404707, Note_off_c, 0, 65, 108
1, 404728, Note_on_c, 0, 62, 107
1, 405148, Note_off_c, 0, 62, 107
1, 405185, Note_on_c, 0, 60, 101
1, 405642, Note_off_c, 0, 60, 101
1, 405650, Note_on_c, 0, 59, 104
1, 405977, Note_off_c, 0, 59, 104
1, 406124, Note_on_c, 0, 62, 109
1, 406418, Note_on_c, 0, 57, 106
1, 406418, Note_off_c, 0, 62, 109
1, 406888, Note_off_c, 0, 57, 106
1, 407921, Note_on_c, 0, 68, 101
1, 408219, Note_off_c, 0, 68, 101
1, 408227, Note_on_c, 0, 62, 96
1, 408483, Note_off_c, 0, 62, 96
1, 409814, Note_on_c, 0, 69, 100
1, 410175, Note_off_c, 0, 69, 100
1, 410175, Note_on_c, 0, 66, 104
1, 410305, Note_off_c, 0, 66, 104
1, 410330, Note_on_c, 0, 65, 112
1, 410603, Note_off_c, 0, 65, 112
1, 410603, Note_on_c, 0, 62, 103
1, 410876, Note_off_c, 0, 62, 103
1, 411766, Note_on_c, 0, 69, 108
1, 412240, Note_off_c, 0, 69, 108
1, 412428, Note_on_c, 0, 65, 108
1, 412747, Note_off_c, 0, 65, 108
1, 412755, Note_on_c, 0, 62, 102
1, 413179, Note_off_c, 0, 62, 102
1, 413754, Note_on_c, 0, 63, 111
1, 414228, Note_off_c, 0, 63, 111
1, 415038, Note_on_c, 0, 68, 108
1, 415294, Note_off_c, 0, 68, 108
1, 415302, Note_on_c, 0, 66, 106
1, 415612, Note_off_c, 0, 66, 106
1, 416779, Note_on_c, 0, 70, 110
1, 417136, Note_off_c, 0, 70, 110
1, 417173, Note_on_c, 0, 72, 105
1, 417425, Note_off_c, 0, 72, 105
1, 418458, Note_on_c, 0, 68, 106
1, 418802, Note_off_c, 0, 68, 106
1, 418848, Note_on_c, 0, 72, 104
1, 419146, Note_off_c, 0, 72, 104
1, 419158, Note_on_c, 0, 71, 98
1, 419347, Note_off_c, 0, 71, 98
1, 419351, Note_on_c, 0, 70, 104
1, 419712, Note_off_c, 0, 70, 104
1, 419779, Note_on_c, 0, 66, 96
1, 420270, Note_off_c, 0, 66, 96
1, 420320, Note_on_c, 0, 70, 97
1, 420563, Note_off_c, 0, 70, 97
1, 420563, Note_on_c, 0, 68, 102
1, 420974, Note_off_c, 0, 68, 102
1, 422360, Note_on_c, 0, 63, 108
1, 422889, Note_off_c, 0, 63, 108
1, 423821, Note_on_c, 0, 68, 108
1, 424215, Note_off_c, 0, 68, 108
1, 424219, Note_on_c, 0, 66, 104
1, 424550, Note_off_c, 0, 66, 104
1, 425990, Note_on_c, 0, 68, 111
1, 426414, Note_off_c, 0, 68, 111
1, 426464, Note_on_c, 0, 66, 102
1, 426846, Note_off_c, 0, 66, 102
1, 426846, Note_on_c, 0, 63, 112
1, 427413, Note_off_c, 0, 63, 112
1, 427505, Note_on_c, 0, 60, 93
1, 427647, Note_off_c, 0, 60, 93
1, 427672, Note_on_c, 0, 65, 107
1, 428075, Note_off_c, 0, 65, 107
1, 429099, Note_on_c, 0, 68, 111
1, 429556, Note_off_c, 0, 68, 111
1, 429568, Note_on_c, 0, 67, 103
1, 429971, Note_off_c, 0, 67, 103
1, 430966, Note_on_c, 0, 68, 108
1, 431369, Note_off_c, 0, 68, 108
1, 431369, Note_on_c, 0, 63, 114
1, 431877, Note_off_c, 0, 63, 114
1, 431885, Note_on_c, 0, 70, 102
1, 432300, Note_off_c, 0, 70, 102
1, 432300, Note_on_c, 0, 66, 97
1, 432661, Note_off_c, 0, 66, 97
1, 432677, Note_on_c, 0, 63, 111
1, 433244, Note_off_c, 0, 63, 111
1, 433244, Note_on_c, 0, 61, 102
1, 433668, Note_off_c, 0, 61, 102
1, 433714, Note_on_c, 0, 60, 105
1, 434096, Note_off_c, 0, 60, 105
1, 434133, Note_on_c, 0, 58, 95
1, 434418, Note_off_c, 0, 58, 95
1, 434539, Note_on_c, 0, 63, 104
1, 435030, Note_off_c, 0, 63, 104
1, 436798, Note_on_c, 0, 60, 103
1, 437230, Note_off_c, 0, 60, 103
1, 438158, Note_on_c, 0, 56, 99
1, 438496, Note_off_c, 0, 56, 99
1, 438496, Note_on_c, 0, 50, 98
1, 438798, Note_off_c, 0, 50, 98
1, 438848, Note_on_c, 0, 63, 105
1, 439140, Note_off_c, 0, 63, 105
1, 439140, Note_on_c, 0, 67, 106
1, 439629, Note_off_c, 0, 67, 106
1, 439694, Note_on_c, 0, 67, 112
1, 440249, Note_off_c, 0, 67, 112
1, 440254, Note_on_c, 0, 69, 106
1, 440558, Note_off_c, 0, 69, 106
1, 440647, Note_on_c, 0, 67, 105
1, 441256, Note_off_c, 0, 67, 105
1, 441306, Note_on_c, 0, 66, 90
1, 441583, Note_off_c, 0, 66, 90
1, 441628, Note_on_c, 0, 65, 104
1, 441986, Note_off_c, 0, 65, 104
1, 442035, Note_on_c, 0, 62, 93
1, 442807, Note_off_c, 0, 62, 93
1, 443433, Note_on_c, 0, 65, 101
1, 443725, Note_off_c, 0, 65, 101
1, 443808, Note_on_c, 0, 69, 104
1, 444202, Note_off_c, 0, 69, 104
1, 445205, Note_on_c, 0, 71, 105
1, 445551, Note_off_c, 0, 71, 105
1, 445551, Note_on_c, 0, 74, 102
1, 445891, Note_off_c, 0, 74, 102
1, 446942, Note_on_c, 0, 66, 93
1, 447240, Note_off_c, 0, 66, 93
1, 447262, Note_on_c, 0, 69, 97
1, 447635, Note_off_c, 0, 69, 97
1, 447635, Note_on_c, 0, 74, 99
1, 447903, Note_off_c, 0, 74, 99
1, 447903, Note_on_c, 0, 73, 101
1, 448117, Note_on_c, 0, 69, 102
1, 448117, Note_off_c, 0, 73, 101
1, 448616, Note_off_c, 0, 69, 102
1, 448742, Note_on_c, 0, 65, 107
1, 449065, Note_off_c, 0, 65, 107
1, 449065, Note_on_c, 0, 62, 103
1, 449535, Note_off_c, 0, 62, 103
1, 450849, Note_on_c, 0, 67, 96
1, 451332, Note_off_c, 0, 67, 96
1, 452365, Note_on_c, 0, 69, 100
1, 452705, Note_off_c, 0, 69, 100
1, 452759, Note_on_c, 0, 65, 102
1, 453145, Note_off_c, 0, 65, 102
1, 454140, Note_on_c, 0, 69, 107
1, 454408, Note_off_c, 0, 69, 107
1, 454441, Note_on_c, 0, 65, 105
1, 454533, Note_off_c, 0, 65, 105
1, 454533, Note_on_c, 0, 61, 109
1, 455020, Note_off_c, 0, 61, 109
1, 455969, Note_on_c, 0, 69, 103
1, 456170, Note_off_c, 0, 69, 103
1, 456174, Note_on_c, 0, 68, 104
1, 456270, Note_off_c, 0, 68, 104
1, 456270, Note_on_c, 0, 64, 110
1, 456664, Note_off_c, 0, 64, 110
1, 458159, Note_on_c, 0, 65, 108
1, 458595, Note_off_c, 0, 65, 108
1, 459425, Note_on_c, 0, 69, 94
1, 459634, Note_on_c, 0, 67, 103
1, 459634, Note_off_c, 0, 69, 94
1, 459813, Note_off_c, 0, 67, 103
1, 459813, Note_on_c, 0, 62, 100
1, 460283, Note_off_c, 0, 62, 100
1, 461227, Note_on_c, 0, 71, 112
1, 461521, Note_off_c, 0, 71, 112
1, 461630, Note_on_c, 0, 67, 110
1, 461709, Note_off_c, 0, 67, 110
1, 461709, Note_on_c, 0, 64, 110
1, 462137, Note_off_c, 0, 64, 110
1, 462246, Note_on_c, 0, 69, 99
1, 462796, Note_off_c, 0, 69, 99
1, 462901, Note_on_c, 0, 72, 107
1, 463148, Note_off_c, 0, 72, 107
1, 463148, Note_on_c, 0, 71, 111
1, 463463, Note_off_c, 0, 71, 111
1, 463521, Note_on_c, 0, 69, 104
1, 463815, Note_off_c, 0, 69, 104
1, 463848, Note_on_c, 0, 65, 104
1, 464196, Note_off_c, 0, 65, 104
1, 464250, Note_on_c, 0, 62, 99
1, 464543, Note_off_c, 0, 62, 99
1, 464543, Note_on_c, 0, 59, 92
1, 464889, Note_off_c, 0, 59, 92
1, 468335, Note_on_c, 0, 69, 96
1, 470067, Note_off_c, 0, 69, 96
1, 470392, Note_on_c, 0, 69, 107
1, 470812, Note_off_c, 0, 69, 107
1, 470843, Note_on_c, 0, 71, 112
1, 473005, Note_off_c, 0, 71, 112
1, 473124, Note_on_c, 0, 69, 94
1, 473422, Note_off_c, 0, 69, 94
1, 473469, Note_on_c, 0, 71, 103
1, 475583, Note_off_c, 0, 71, 103
1, 475678, Note_on_c, 0, 69, 98
1, 475988, Note_off_c, 0, 69, 98
1, 476083, Note_on_c, 0, 71, 103
1, 479006, Note_off_c, 0, 71, 103
1, 479045, Note_on_c, 0, 67, 108
1, 479522, Note_off_c, 0, 67, 108
1, 479522, Note_on_c, 0, 65, 114
1, 479992, Note_off_c, 0, 65, 114
1, 482162, Note_on_c, 0, 71, 109
1, 483338, Note_off_c, 0, 71, 109
1, 483363, Note_on_c, 0, 69, 103
1, 483589, Note_off_c, 0, 69, 103
1, 483597, Note_on_c, 0, 71, 104
1, 483891, Note_off_c, 0, 71, 104
1, 484071, Note_on_c, 0, 62, 100
1, 484351, Note_off_c, 0, 62, 100
1, 484351, Note_on_c, 0, 67, 101
1, 484763, Note_off_c, 0, 67, 101
1, 484834, Note_on_c, 0, 69, 106
1, 485198, Note_off_c, 0, 69, 106
1, 485198, Note_on_c, 0, 71, 111
1, 485675, Note_off_c, 0, 71, 111
1, 485812, Note_on_c, 0, 62, 102
1, 486062, Note_off_c, 0, 62, 102
1, 486151, Note_on_c, 0, 67, 109
1, 486664, Note_off_c, 0, 67, 109
1, 486669, Note_on_c, 0, 69, 109
1, 487099, Note_off_c, 0, 69, 109
1, 487116, Note_on_c, 0, 71, 112
1, 487519, Note_off_c, 0, 71, 112
1, 487519, Note_on_c, 0, 69, 9
1, 489207, Note_off_c, 0, 69, 9
1, 489274, Note_on_c, 0, 71, 107
1, 489685, Note_off_c, 0, 71, 107
1, 489724, Note_on_c, 0, 69, 102
1, 490052, Note_off_c, 0, 69, 102
1, 490146, Note_on_c, 0, 65, 109
1, 490611, Note_off_c, 0, 65, 109
1, 490636, Note_on_c, 0, 64, 105
1, 491012, Note_off_c, 0, 64, 105
1, 491035, Note_on_c, 0, 67, 101
1, 491399, Note_off_c, 0, 67, 101
1, 491416, Note_on_c, 0, 65, 103
1, 491750, Note_off_c, 0, 65, 103
1, 491893, Note_on_c, 0, 62, 102
1, 492412, Note_off_c, 0, 62, 102
1, 492441, Note_on_c, 0, 61, 98
1, 492769, Note_off_c, 0, 61, 98
1, 492798, Note_on_c, 0, 64, 102
1, 493114, Note_off_c, 0, 64, 102
1, 493185, Note_on_c, 0, 62, 108
1, 493859, Note_off_c, 0, 62, 108
1, 496337, Note_on_c, 0, 69, 96
1, 497794, Note_off_c, 0, 69, 96
1, 497794, Note_on_c, 0, 67, 102
1, 498140, Note_off_c, 0, 67, 102
1, 498199, Note_on_c, 0, 65, 103
1, 498563, Note_off_c, 0, 65, 103
1, 498604, Note_on_c, 0, 62, 98
1, 498926, Note_off_c, 0, 62, 98
1, 499481, Note_on_c, 0, 68, 90
1, 499851, Note_off_c, 0, 68, 90
1, 499988, Note_on_c, 0, 71, 95
1, 500214, Note_off_c, 0, 71, 95
1, 500309, Note_on_c, 0, 62, 100
1, 500640, Note_off_c, 0, 62, 100
1, 500645, Note_on_c, 0, 65, 94
1, 500850, Note_off_c, 0, 65, 94
1, 500879, Note_on_c, 0, 68, 88
1, 501076, Note_off_c, 0, 68, 88
1, 501151, Note_on_c, 0, 70, 95
1, 501554, Note_off_c, 0, 70, 95
1, 501650, Note_on_c, 0, 68, 97
1, 502040, Note_off_c, 0, 68, 97
1, 502069, Note_on_c, 0, 70, 90
1, 502426, Note_off_c, 0, 70, 90
1, 502501, Note_on_c, 0, 68, 102
1, 502883, Note_off_c, 0, 68, 102
1, 502954, Note_on_c, 0, 67, 93
1, 503378, Note_off_c, 0, 67, 93
1, 503420, Note_on_c, 0, 72, 97
1, 503730, Note_off_c, 0, 72, 97
1, 503730, Note_on_c, 0, 62, 99
1, 504263, Note_off_c, 0, 62, 99
1, 505590, Note_on_c, 0, 62, 102
1, 505993, Note_off_c, 0, 62, 102
1, 506579, Note_on_c, 0, 69, 88
1, 506948, Note_off_c, 0, 69, 88
1, 507025, Note_on_c, 0, 71, 98
1, 507348, Note_off_c, 0, 71, 98
1, 507353, Note_on_c, 0, 65, 102
1, 507987, Note_off_c, 0, 65, 102
1, 509094, Note_on_c, 0, 64, 104
1, 509509, Note_off_c, 0, 64, 104
1, 509729, Note_on_c, 0, 67, 93
1, 510036, Note_off_c, 0, 67, 93
1, 510044, Note_on_c, 0, 71, 96
1, 510348, Note_off_c, 0, 71, 96
1, 510437, Note_on_c, 0, 61, 105
1, 511129, Note_off_c, 0, 61, 105
1, 511851, Note_on_c, 0, 61, 106
1, 512215, Note_off_c, 0, 61, 106
1, 512300, Note_on_c, 0, 63, 109
1, 512547, Note_off_c, 0, 63, 109
1, 512547, Note_on_c, 0, 65, 99
1, 512702, Note_off_c, 0, 65, 99
1, 512706, Note_on_c, 0, 67, 102
1, 513029, Note_off_c, 0, 67, 102
1, 513083, Note_on_c, 0, 60, 107
1, 513692, Note_off_c, 0, 60, 107
1, 514389, Note_on_c, 0, 67, 109
1, 514851, Note_off_c, 0, 67, 109
1, 514851, Note_on_c, 0, 62, 101
1, 515111, Note_off_c, 0, 62, 101
1, 515111, Note_on_c, 0, 68, 96
1, 515572, Note_off_c, 0, 68, 96
1, 515605, Note_on_c, 0, 64, 104
1, 516142, Note_off_c, 0, 64, 104
1, 516940, Note_on_c, 0, 64, 103
1, 517427, Note_off_c, 0, 64, 103
1, 517435, Note_on_c, 0, 68, 96
1, 517766, Note_off_c, 0, 68, 96
1, 517774, Note_on_c, 0, 70, 94
1, 518160, Note_off_c, 0, 70, 94
1, 518269, Note_on_c, 0, 66, 101
1, 518500, Note_off_c, 0, 66, 101
1, 518609, Note_on_c, 0, 61, 102
1, 519075, Note_off_c, 0, 61, 102
1, 519091, Note_on_c, 0, 59, 93
1, 519406, Note_off_c, 0, 59, 93
1, 519427, Note_on_c, 0, 62, 103
1, 519884, Note_off_c, 0, 62, 103
1, 521341, Note_on_c, 0, 62, 108
1, 521752, Note_off_c, 0, 62, 108
1, 521827, Note_on_c, 0, 65, 96
1, 522070, Note_off_c, 0, 65, 96
1, 522117, Note_on_c, 0, 69, 103
1, 522583, Note_off_c, 0, 69, 103
1, 522673, Note_on_c, 0, 71, 106
1, 523034, Note_off_c, 0, 71, 106
1, 523042, Note_on_c, 0, 63, 112
1, 523663, Note_off_c, 0, 63, 112
1, 523671, Note_on_c, 0, 61, 109
1, 523889, Note_off_c, 0, 61, 109
1, 523889, Note_on_c, 0, 58, 104
1, 524254, Note_off_c, 0, 58, 104
1, 524712, Note_on_c, 0, 56, 103
1, 525022, Note_off_c, 0, 56, 103
1, 525055, Note_on_c, 0, 54, 107
1, 525231, Note_off_c, 0, 54, 107
1, 525701, Note_on_c, 0, 63, 115
1, 526192, Note_off_c, 0, 63, 115
1, 526200, Note_on_c, 0, 66, 106
1, 526422, Note_off_c, 0, 66, 106
1, 526493, Note_on_c, 0, 70, 108
1, 526925, Note_off_c, 0, 70, 108
1, 526996, Note_on_c, 0, 62, 108
1, 527479, Note_off_c, 0, 62, 108
1, 528373, Note_on_c, 0, 65, 100
1, 528713, Note_off_c, 0, 65, 100
1, 528780, Note_on_c, 0, 66, 104
1, 528998, Note_off_c, 0, 66, 104
1, 528998, Note_on_c, 0, 70, 99
1, 529329, Note_off_c, 0, 70, 99
1, 529341, Note_on_c, 0, 72, 107
1, 529996, Note_off_c, 0, 72, 107
1, 530907, Note_on_c, 0, 61, 109
1, 531306, Note_off_c, 0, 61, 109
1, 531343, Note_on_c, 0, 64, 112
1, 531603, Note_off_c, 0, 64, 112
1, 531603, Note_on_c, 0, 68, 112
1, 532027, Note_off_c, 0, 68, 112
1, 533459, Note_on_c, 0, 58, 105
1, 533879, Note_off_c, 0, 58, 105
1, 534005, Note_on_c, 0, 60, 106
1, 534252, Note_off_c, 0, 60, 106
1, 534273, Note_on_c, 0, 62, 109
1, 534667, Note_off_c, 0, 62, 109
1, 536061, Note_on_c, 0, 60, 114
1, 536556, Note_on_c, 0, 65, 114
1, 536556, Note_off_c, 0, 60, 114
1, 536849, Note_off_c, 0, 65, 114
1, 536886, Note_on_c, 0, 69, 107
1, 537390, Note_off_c, 0, 69, 107
1, 538725, Note_on_c, 0, 63, 116
1, 539245, Note_off_c, 0, 63, 116
1, 539266, Note_on_c, 0, 66, 105
1, 539627, Note_off_c, 0, 66, 105
1, 539736, Note_on_c, 0, 70, 92
1, 540004, Note_off_c, 0, 70, 92
1, 540621, Note_on_c, 0, 62, 109
1, 541146, Note_off_c, 0, 62, 109
1, 541146, Note_on_c, 0, 66, 83
1, 541263, Note_off_c, 0, 66, 83
1, 541279, Note_on_c, 0, 68, 106
1, 541833, Note_off_c, 0, 68, 106
1, 543210, Note_on_c, 0, 61, 112
1, 543684, Note_off_c, 0, 61, 112
1, 543684, Note_on_c, 0, 64, 103
1, 543973, Note_off_c, 0, 64, 103
1, 543985, Note_on_c, 0, 68, 109
1, 544442, Note_off_c, 0, 68, 109
1, 545764, Note_on_c, 0, 58, 100
1, 546091, Note_off_c, 0, 58, 100
1, 546137, Note_on_c, 0, 60, 103
1, 546515, Note_off_c, 0, 60, 103
1, 546515, Note_on_c, 0, 64, 113
1, 547048, Note_off_c, 0, 64, 113
1, 548371, Note_on_c, 0, 60, 105
1, 548870, Note_off_c, 0, 60, 105
1, 548916, Note_on_c, 0, 65, 107
1, 549260, Note_off_c, 0, 65, 107
1, 549260, Note_on_c, 0, 69, 103
1, 549684, Note_off_c, 0, 69, 103
1, 551095, Note_on_c, 0, 60, 110
1, 551464, Note_off_c, 0, 60, 110
1, 551535, Note_on_c, 0, 65, 104
1, 551904, Note_off_c, 0, 65, 104
1, 551950, Note_on_c, 0, 69, 105
1, 552340, Note_off_c, 0, 69, 105
1, 552373, Note_on_c, 0, 71, 103
1, 552767, Note_off_c, 0, 71, 103
1, 552767, Note_on_c, 0, 68, 104
1, 553098, Note_off_c, 0, 68, 104
1, 553253, Note_on_c, 0, 66, 108
1, 553500, Note_off_c, 0, 66, 108
1, 553500, Note_on_c, 0, 63, 106
1, 553941, Note_off_c, 0, 63, 106
1, 554411, Note_on_c, 0, 64, 112
1, 554948, Note_off_c, 0, 64, 112
1, 554973, Note_on_c, 0, 67, 103
1, 555296, Note_off_c, 0, 67, 103
1, 555300, Note_on_c, 0, 71, 104
1, 555552, Note_off_c, 0, 71, 104
1, 556963, Note_on_c, 0, 63, 115
1, 557479, Note_on_c, 0, 65, 101
1, 557479, Note_off_c, 0, 63, 115
1, 557697, Note_off_c, 0, 65, 101
1, 557697, Note_on_c, 0, 69, 107
1, 558138, Note_off_c, 0, 69, 107
1, 559439, Note_on_c, 0, 62, 109
1, 560031, Note_off_c, 0, 62, 109
1, 560035, Note_on_c, 0, 65, 105
1, 560345, Note_off_c, 0, 65, 105
1, 560366, Note_on_c, 0, 70, 101
1, 560710, Note_off_c, 0, 70, 101
1, 562268, Note_on_c, 0, 63, 113
1, 562751, Note_off_c, 0, 63, 113
1, 562784, Note_on_c, 0, 68, 94
1, 563023, Note_off_c, 0, 68, 94
1, 563052, Note_on_c, 0, 71, 98
1, 563488, Note_off_c, 0, 71, 98
1, 564941, Note_on_c, 0, 61, 103
1, 565298, Note_off_c, 0, 61, 103
1, 565432, Note_on_c, 0, 66, 94
1, 565671, Note_off_c, 0, 66, 94
1, 565700, Note_on_c, 0, 70, 95
1, 566040, Note_off_c, 0, 70, 95
1, 567476, Note_on_c, 0, 64, 105
1, 567942, Note_off_c, 0, 64, 105
1, 567958, Note_on_c, 0, 67, 98
1, 568247, Note_off_c, 0, 67, 98
1, 568331, Note_on_c, 0, 71, 96
1, 568772, Note_off_c, 0, 71, 96
1, 569964, Note_on_c, 0, 63, 116
1, 570489, Note_off_c, 0, 63, 116
1, 570489, Note_on_c, 0, 65, 95
1, 570606, Note_off_c, 0, 65, 95
1, 570618, Note_on_c, 0, 67, 96
1, 570773, Note_off_c, 0, 67, 96
1, 570781, Note_on_c, 0, 70, 100
1, 571276, Note_off_c, 0, 70, 100
1, 572716, Note_on_c, 0, 61, 99
1, 573178, Note_off_c, 0, 61, 99
1, 573232, Note_on_c, 0, 66, 92
1, 573429, Note_off_c, 0, 66, 92
1, 573513, Note_on_c, 0, 70, 93
1, 573865, Note_off_c, 0, 70, 93
1, 575255, Note_on_c, 0, 62, 100
1, 575700, Note_off_c, 0, 62, 100
1, 575792, Note_on_c, 0, 66, 100
1, 576006, Note_off_c, 0, 66, 100
1, 576031, Note_on_c, 0, 68, 99
1, 576350, Note_off_c, 0, 68, 99
1, 577862, Note_on_c, 0, 64, 103
1, 578387, Note_off_c, 0, 64, 103
1, 578387, Note_on_c, 0, 68, 96
1, 578638, Note_off_c, 0, 68, 96
1, 578722, Note_on_c, 0, 71, 99
1, 579146, Note_off_c, 0, 71, 99
1, 579238, Note_on_c, 0, 69, 96
1, 579532, Note_off_c, 0, 69, 96
1, 579553, Note_on_c, 0, 65, 102
1, 579931, Note_off_c, 0, 65, 102
1, 580002, Note_on_c, 0, 62, 100
1, 580455, Note_off_c, 0, 62, 100
1, 580488, Note_on_c, 0, 65, 101
1, 580895, Note_off_c, 0, 65, 101
1, 582192, Note_on_c, 0, 64, 116
1, 582675, Note_off_c, 0, 64, 116
1, 582708, Note_on_c, 0, 67, 102
1, 582926, Note_off_c, 0, 67, 102
1, 582972, Note_on_c, 0, 71, 103
1, 583219, Note_off_c, 0, 71, 103
1, 583231, Note_on_c, 0, 70, 101
1, 583340, Note_off_c, 0, 70, 101
1, 583344, Note_on_c, 0, 68, 101
1, 583407, Note_off_c, 0, 68, 101
1, 583407, Note_on_c, 0, 66, 100
1, 583440, Note_off_c, 0, 66, 100
1, 583440, Note_on_c, 0, 64, 80
1, 583461, Note_off_c, 0, 64, 80
1, 583461, Note_on_c, 0, 61, 113
1, 583813, Note_off_c, 0, 61, 113
1, 584921, Note_on_c, 0, 61, 105
1, 585185, Note_off_c, 0, 61, 105
1, 585273, Note_on_c, 0, 63, 108
1, 585562, Note_off_c, 0, 63, 108
1, 585599, Note_on_c, 0, 67, 93
1, 585830, Note_off_c, 0, 67, 93
1, 587237, Note_on_c, 0, 60, 107
1, 587669, Note_off_c, 0, 60, 107
1, 587669, Note_on_c, 0, 64, 110
1, 588072, Note_off_c, 0, 64, 110
1, 588072, Note_on_c, 0, 68, 104
1, 588412, Note_off_c, 0, 68, 104
1, 588613, Note_on_c, 0, 71, 103
1, 588957, Note_off_c, 0, 71, 103
1, 588982, Note_on_c, 0, 64, 109
1, 589427, Note_off_c, 0, 64, 109
1, 589427, Note_on_c, 0, 66, 99
1, 589746, Note_off_c, 0, 66, 99
1, 589746, Note_on_c, 0, 68, 101
1, 590077, Note_off_c, 0, 68, 101
1, 590102, Note_on_c, 0, 71, 101
1, 590467, Note_off_c, 0, 71, 101
1, 590517, Note_on_c, 0, 64, 96
1, 590853, Note_off_c, 0, 64, 96
1, 592583, Note_on_c, 0, 64, 110
1, 592998, Note_off_c, 0, 64, 110
1, 592998, Note_on_c, 0, 68, 100
1, 593266, Note_off_c, 0, 68, 100
1, 593299, Note_on_c, 0, 70, 104
1, 593714, Note_off_c, 0, 70, 104
1, 593882, Note_on_c, 0, 73, 108
1, 594238, Note_off_c, 0, 73, 108
1, 594250, Note_on_c, 0, 71, 106
1, 594657, Note_off_c, 0, 71, 106
1, 596030, Note_on_c, 0, 61, 109
1, 596500, Note_off_c, 0, 61, 109
1, 596949, Note_on_c, 0, 66, 102
1, 597377, Note_off_c, 0, 66, 102
1, 597402, Note_on_c, 0, 67, 103
1, 597658, Note_off_c, 0, 67, 103
1, 597674, Note_on_c, 0, 66, 115
1, 597745, Note_off_c, 0, 66, 115
1, 597745, Note_on_c, 0, 65, 112
1, 597803, Note_off_c, 0, 65, 112
1, 597819, Note_on_c, 0, 63, 110
1, 598239, Note_off_c, 0, 63, 110
1, 598264, Note_on_c, 0, 61, 103
1, 598637, Note_off_c, 0, 61, 103
1, 598720, Note_on_c, 0, 59, 95
1, 599081, Note_off_c, 0, 59, 95
1, 599110, Note_on_c, 0, 58, 100
1, 599534, Note_off_c, 0, 58, 100
1, 599534, Note_on_c, 0, 57, 105
1, 599857, Note_off_c, 0, 57, 105
1, 599886, Note_on_c, 0, 56, 103
1, 600293, Note_off_c, 0, 56, 103
1, 600343, Note_on_c, 0, 55, 107
1, 600838, Note_off_c, 0, 55, 107
1, 600867, Note_on_c, 0, 59, 99
1, 601102, Note_off_c, 0, 59, 99
1, 601181, Note_on_c, 0, 57, 100
1, 601479, Note_off_c, 0, 57, 100
1, 601575, Note_on_c, 0, 53, 102
1, 602011, Note_off_c, 0, 53, 102
1, 602011, Note_on_c, 0, 50, 108
1, 602384, Note_off_c, 0, 50, 108
1, 602463, Note_on_c, 0, 55, 98
1, 602815, Note_off_c, 0, 55, 98
1, 602831, Note_on_c, 0, 53, 100
1, 602973, Note_off_c, 0, 53, 100
1, 602994, Note_on_c, 0, 50, 98
1, 603422, Note_off_c, 0, 50, 98
1, 603422, Note_on_c, 0, 53, 105
1, 603711, Note_off_c, 0, 53, 105
1, 603761, Note_on_c, 0, 57, 106
1, 604071, Note_off_c, 0, 57, 106
1, 604159, Note_on_c, 0, 60, 99
1, 604629, Note_off_c, 0, 60, 99
1, 604662, Note_on_c, 0, 55, 94
1, 605069, Note_off_c, 0, 55, 94
1, 607748, Note_on_c, 0, 65, 104
1, 607987, Note_off_c, 0, 65, 104
1, 608012, Note_on_c, 0, 66, 105
1, 608243, Note_off_c, 0, 66, 105
1, 608263, Note_on_c, 0, 67, 105
1, 609460, Note_off_c, 0, 67, 105
1, 609989, Note_on_c, 0, 67, 104
1, 610535, Note_off_c, 0, 67, 104
1, 610829, Note_on_c, 0, 67, 105
1, 611312, Note_off_c, 0, 67, 105
1, 611358, Note_on_c, 0, 71, 108
1, 611542, Note_off_c, 0, 71, 108
1, 611579, Note_on_c, 0, 70, 106
1, 612091, Note_off_c, 0, 70, 106
1, 613590, Note_on_c, 0, 63, 108
1, 613989, Note_off_c, 0, 63, 108
1, 614035, Note_on_c, 0, 66, 101
1, 614413, Note_off_c, 0, 66, 101
1, 614433, Note_on_c, 0, 70, 94
1, 614756, Note_off_c, 0, 70, 94
1, 614789, Note_on_c, 0, 71, 102
1, 615070, Note_off_c, 0, 71, 102
1, 615086, Note_on_c, 0, 68, 107
1, 615543, Note_off_c, 0, 68, 107
1, 616878, Note_on_c, 0, 61, 102
1, 617281, Note_off_c, 0, 61, 102
1, 617331, Note_on_c, 0, 65, 102
1, 617805, Note_off_c, 0, 65, 102
1, 617867, Note_on_c, 0, 68, 101
1, 618161, Note_off_c, 0, 68, 101
1, 618186, Note_on_c, 0, 71, 107
1, 618492, Note_off_c, 0, 71, 107
1, 618508, Note_on_c, 0, 68, 107
1, 618781, Note_off_c, 0, 68, 107
1, 618789, Note_on_c, 0, 62, 103
1, 619078, Note_off_c, 0, 62, 103
1, 620556, Note_on_c, 0, 62, 101
1, 620850, Note_off_c, 0, 62, 101
1, 620967, Note_on_c, 0, 65, 89
1, 621143, Note_off_c, 0, 65, 89
1, 621185, Note_on_c, 0, 68, 98
1, 621726, Note_off_c, 0, 68, 98
1, 621818, Note_on_c, 0, 71, 105
1, 622128, Note_off_c, 0, 71, 105
1, 622128, Note_on_c, 0, 67, 114
1, 622732, Note_off_c, 0, 67, 114
1, 622769, Note_on_c, 0, 71, 97
1, 623075, Note_off_c, 0, 71, 97
1, 623117, Note_on_c, 0, 68, 102
1, 623432, Note_off_c, 0, 68, 102
1, 623591, Note_on_c, 0, 71, 106
1, 623901, Note_off_c, 0, 71, 106
1, 623901, Note_on_c, 0, 70, 103
1, 624421, Note_off_c, 0, 70, 103
1, 624433, Note_on_c, 0, 69, 102
1, 624735, Note_off_c, 0, 69, 102
1, 624764, Note_on_c, 0, 70, 101
1, 625188, Note_off_c, 0, 70, 101
1, 625246, Note_on_c, 0, 71, 101
1, 625443, Note_off_c, 0, 71, 101
1, 625598, Note_on_c, 0, 64, 108
1, 626018, Note_off_c, 0, 64, 108
1, 627458, Note_on_c, 0, 64, 111
1, 627919, Note_off_c, 0, 64, 111
1, 627956, Note_on_c, 0, 65, 105
1, 628245, Note_off_c, 0, 65, 105
1, 628287, Note_on_c, 0, 69, 93
1, 628690, Note_off_c, 0, 69, 93
1, 628753, Note_on_c, 0, 71, 103
1, 629063, Note_off_c, 0, 71, 103
1, 629063, Note_on_c, 0, 70, 103
1, 629176, Note_off_c, 0, 70, 103
1, 629218, Note_on_c, 0, 67, 105
1, 629587, Note_off_c, 0, 67, 105
1, 629620, Note_on_c, 0, 70, 97
1, 629943, Note_off_c, 0, 70, 97
1, 630493, Note_on_c, 0, 69, 93
1, 630719, Note_off_c, 0, 69, 93
1, 630756, Note_on_c, 0, 74, 101
1, 631134, Note_off_c, 0, 74, 101
1, 631184, Note_on_c, 0, 73, 99
1, 631574, Note_off_c, 0, 73, 99
1, 631662, Note_on_c, 0, 69, 97
1, 632086, Note_off_c, 0, 69, 97
1, 632136, Note_on_c, 0, 71, 107
1, 632488, Note_off_c, 0, 71, 107
1, 632555, Note_on_c, 0, 65, 110
1, 633910, Note_off_c, 0, 65, 110
1, 633969, Note_on_c, 0, 67, 105
1, 634381, Note_off_c, 0, 67, 105
1, 634381, Note_on_c, 0, 64, 114
1, 634840, Note_off_c, 0, 64, 114
1, 634899, Note_on_c, 0, 60, 107
1, 635179, Note_off_c, 0, 60, 107
1, 635268, Note_on_c, 0, 57, 105
1, 635662, Note_off_c, 0, 57, 105
1, 635662, Note_on_c, 0, 53, 106
1, 636092, Note_off_c, 0, 53, 106
1, 636103, Note_on_c, 0, 52, 108
1, 636539, Note_off_c, 0, 52, 108
1, 638880, Note_on_c, 0, 60, 95
1, 639304, Note_off_c, 0, 60, 95
1, 639359, Note_on_c, 0, 65, 99
1, 639695, Note_off_c, 0, 65, 99
1, 639900, Note_on_c, 0, 60, 95
1, 640652, Note_off_c, 0, 60, 95
1, 640801, Note_on_c, 0, 60, 94
1, 640968, Note_off_c, 0, 60, 94
1, 640968, Note_on_c, 0, 66, 107
1, 641344, Note_off_c, 0, 66, 107
1, 641355, Note_on_c, 0, 63, 113
1, 641988, Note_off_c, 0, 63, 113
1, 642005, Note_on_c, 0, 66, 105
1, 642231, Note_on_c, 0, 69, 108
1, 642231, Note_off_c, 0, 66, 105
1, 642631, Note_off_c, 0, 69, 108
1, 642636, Note_on_c, 0, 67, 109
1, 643281, Note_off_c, 0, 67, 109
1, 643281, Note_on_c, 0, 69, 101
1, 643591, Note_off_c, 0, 69, 101
1, 643710, Note_on_c, 0, 67, 111
1, 644199, Note_off_c, 0, 67, 111
1, 644199, Note_on_c, 0, 63, 99
1, 644485, Note_off_c, 0, 63, 99
1, 644586, Note_on_c, 0, 70, 99
1, 644956, Note_off_c, 0, 70, 99
1, 644967, Note_on_c, 0, 65, 99
1, 645397, Note_off_c, 0, 65, 99
1, 645450, Note_on_c, 0, 61, 100
1, 645909, Note_off_c, 0, 61, 100
1, 645965, Note_on_c, 0, 58, 93
1, 646267, Note_off_c, 0, 58, 93
1, 646376, Note_on_c, 0, 54, 100
1, 646695, Note_off_c, 0, 54, 100
1, 646720, Note_on_c, 0, 53, 105
1, 647601, Note_off_c, 0, 53, 105
1, 650234, Note_on_c, 0, 68, 100
1, 651523, Note_off_c, 0, 68, 100
1, 652027, Note_on_c, 0, 60, 101
1, 652195, Note_off_c, 0, 60, 101
1, 652228, Note_on_c, 0, 72, 105
1, 653059, Note_off_c, 0, 72, 105
1, 653218, Note_on_c, 0, 70, 104
1, 655284, Note_off_c, 0, 70, 104
1, 655334, Note_on_c, 0, 68, 105
1, 655728, Note_off_c, 0, 68, 105
1, 655761, Note_on_c, 0, 70, 103
1, 656130, Note_off_c, 0, 70, 103
1, 656146, Note_on_c, 0, 68, 99
1, 656540, Note_off_c, 0, 68, 99
1, 656657, Note_on_c, 0, 65, 101
1, 656984, Note_off_c, 0, 65, 101
1, 657026, Note_on_c, 0, 63, 101
1, 657496, Note_off_c, 0, 63, 101
1, 657521, Note_on_c, 0, 61, 95
1, 657815, Note_off_c, 0, 61, 95
1, 657915, Note_on_c, 0, 58, 97
1, 658276, Note_off_c, 0, 58, 97
1, 658402, Note_on_c, 0, 54, 100
1, 658763, Note_off_c, 0, 54, 100
1, 658880, Note_on_c, 0, 53, 99
1, 660341, Note_off_c, 0, 53, 99
1, 660441, Note_on_c, 0, 51, 101
1, 660760, Note_off_c, 0, 51, 101
1, 660785, Note_on_c, 0, 56, 99
1, 661137, Note_off_c, 0, 56, 99
1, 661179, Note_on_c, 0, 51, 103
1, 661641, Note_off_c, 0, 51, 103
1, 664203, Note_on_c, 0, 63, 106
1, 664589, Note_off_c, 0, 63, 106
1, 664673, Note_on_c, 0, 66, 91
1, 664822, Note_off_c, 0, 66, 91
1, 664917, Note_on_c, 0, 68, 93
1, 665323, Note_off_c, 0, 68, 93
1, 665496, Note_on_c, 0, 72, 101
1, 665764, Note_off_c, 0, 72, 101
1, 665764, Note_on_c, 0, 71, 104
1, 666026, Note_off_c, 0, 71, 104
1, 666055, Note_on_c, 0, 69, 99
1, 666443, Note_off_c, 0, 69, 99
1, 666520, Note_on_c, 0, 65, 104
1, 666896, Note_off_c, 0, 65, 104
1, 666919, Note_on_c, 0, 64, 108
1, 667313, Note_off_c, 0, 64, 108
1, 667384, Note_on_c, 0, 60, 106
1, 667700, Note_off_c, 0, 60, 106
1, 667706, Note_on_c, 0, 57, 101
1, 669019, Note_off_c, 0, 57, 101
1, 669019, Note_on_c, 0, 60, 97
1, 669245, Note_off_c, 0, 60, 97
1, 669280, Note_on_c, 0, 59, 97
1, 669471, Note_off_c, 0, 59, 97
1, 669494, Note_on_c, 0, 57, 101
1, 669918, Note_off_c, 0, 57, 101
1, 669918, Note_on_c, 0, 53, 99
1, 670198, Note_off_c, 0, 53, 99
1, 670275, Note_on_c, 0, 52, 102
1, 670961, Note_off_c, 0, 52, 102
1, 673433, Note_on_c, 0, 73, 106
1, 673707, Note_off_c, 0, 73, 106
1, 673788, Note_on_c, 0, 71, 104
1, 674014, Note_off_c, 0, 71, 104
1, 674118, Note_on_c, 0, 71, 102
1, 674323, Note_off_c, 0, 71, 102
1, 674348, Note_on_c, 0, 67, 105
1, 674623, Note_off_c, 0, 67, 105
1, 674623, Note_on_c, 0, 64, 109
1, 675787, Note_off_c, 0, 64, 109
1, 675967, Note_on_c, 0, 60, 94
1, 676244, Note_off_c, 0, 60, 94
1, 676332, Note_on_c, 0, 59, 92
1, 676659, Note_off_c, 0, 59, 92
1, 676663, Note_on_c, 0, 62, 105
1, 676948, Note_off_c, 0, 62, 105
1, 676948, Note_on_c, 0, 61, 105
1, 677057, Note_off_c, 0, 61, 105
1, 677224, Note_on_c, 0, 55, 95
1, 678072, Note_off_c, 0, 55, 95
1, 680722, Note_on_c, 0, 74, 98
1, 681020, Note_off_c, 0, 74, 98
1, 681212, Note_on_c, 0, 68, 97
1, 681564, Note_off_c, 0, 68, 97
1, 681581, Note_on_c, 0, 69, 102
1, 682709, Note_off_c, 0, 69, 102
1, 682831, Note_on_c, 0, 71, 103
1, 683129, Note_off_c, 0, 71, 103
1, 683234, Note_on_c, 0, 67, 92
1, 683649, Note_off_c, 0, 67, 92
1, 683733, Note_on_c, 0, 62, 98
1, 684043, Note_off_c, 0, 62, 98
1, 684194, Note_on_c, 0, 60, 94
1, 684488, Note_off_c, 0, 60, 94
1, 684588, Note_on_c, 0, 59, 85
1, 685348, Note_off_c, 0, 59, 85
1, 688529, Note_on_c, 0, 74, 91
1, 690070, Note_off_c, 0, 74, 91
1, 690153, Note_on_c, 0, 69, 93
1, 690571, Note_off_c, 0, 69, 93
1, 690710, Note_on_c, 0, 65, 100
1, 690941, Note_off_c, 0, 65, 100
1, 691012, Note_on_c, 0, 64, 103
1, 691465, Note_off_c, 0, 64, 103
1, 691540, Note_on_c, 0, 67, 93
1, 691888, Note_off_c, 0, 67, 93
1, 691942, Note_on_c, 0, 62, 97
1, 692349, Note_off_c, 0, 62, 97
1, 692449, Note_on_c, 0, 60, 100
1, 692751, Note_off_c, 0, 60, 100
1, 692805, Note_on_c, 0, 59, 100
1, 693283, Note_off_c, 0, 59, 100
1, 695668, Note_on_c, 0, 67, 98
1, 695941, Note_off_c, 0, 67, 98
1, 695941, Note_on_c, 0, 73, 104
1, 696058, Note_off_c, 0, 73, 104
1, 696058, Note_on_c, 0, 74, 95
1, 697238, Note_off_c, 0, 74, 95
1, 697238, Note_on_c, 0, 67, 96
1, 697355, Note_off_c, 0, 67, 96
1, 697384, Note_on_c, 0, 69, 98
1, 697736, Note_off_c, 0, 69, 98
1, 697790, Note_on_c, 0, 65, 104
1, 698142, Note_off_c, 0, 65, 104
1, 698154, Note_on_c, 0, 64, 105
1, 698569, Note_off_c, 0, 64, 105
1, 698602, Note_on_c, 0, 67, 102
1, 698946, Note_off_c, 0, 67, 102
1, 699004, Note_on_c, 0, 61, 98
1, 699491, Note_off_c, 0, 61, 98
1, 699516, Note_on_c, 0, 60, 101
1, 699873, Note_off_c, 0, 60, 101
1, 699923, Note_on_c, 0, 59, 96
1, 700406, Note_off_c, 0, 59, 96
1, 702413, Note_on_c, 0, 71, 102
1, 703518, Note_off_c, 0, 71, 102
1, 703584, Note_on_c, 0, 72, 93
1, 704088, Note_off_c, 0, 72, 93
1, 704096, Note_on_c, 0, 69, 96
1, 704520, Note_off_c, 0, 69, 96
1, 704536, Note_on_c, 0, 65, 101
1, 704838, Note_off_c, 0, 65, 101
1, 704875, Note_on_c, 0, 64, 106
1, 705400, Note_off_c, 0, 64, 106
1, 705412, Note_on_c, 0, 67, 101
1, 705601, Note_off_c, 0, 67, 101
1, 705613, Note_on_c, 0, 66, 103
1, 705797, Note_off_c, 0, 66, 103
1, 705822, Note_on_c, 0, 64, 107
1, 706321, Note_off_c, 0, 64, 107
1, 706321, Note_on_c, 0, 60, 102
1, 706652, Note_off_c, 0, 60, 102
1, 706677, Note_on_c, 0, 59, 99
1, 707105, Note_off_c, 0, 59, 99
1, 707188, Note_on_c, 0, 57, 100
1, 707725, Note_off_c, 0, 57, 100
1, 710959, Note_on_c, 0, 69, 96
1, 711370, Note_off_c, 0, 69, 96
1, 711496, Note_on_c, 0, 67, 100
1, 711781, Note_off_c, 0, 67, 100
1, 711823, Note_on_c, 0, 65, 98
1, 712276, Note_off_c, 0, 65, 98
1, 712318, Note_on_c, 0, 62, 96
1, 712784, Note_off_c, 0, 62, 96
1, 712817, Note_on_c, 0, 60, 95
1, 713182, Note_off_c, 0, 60, 95
1, 713261, Note_on_c, 0, 59, 99
1, 713630, Note_off_c, 0, 59, 99
1, 713701, Note_on_c, 0, 62, 108
1, 714045, Note_off_c, 0, 62, 108
1, 714070, Note_on_c, 0, 59, 101
1, 714334, Note_off_c, 0, 59, 101
1, 714342, Note_on_c, 0, 57, 101
1, 715064, Note_off_c, 0, 57, 101
1, 717760, Note_on_c, 0, 67, 102
1, 718171, Note_off_c, 0, 67, 102
1, 718225, Note_on_c, 0, 65, 103
1, 718615, Note_off_c, 0, 65, 103
1, 718673, Note_on_c, 0, 62, 102
1, 719114, Note_off_c, 0, 62, 102
1, 719151, Note_on_c, 0, 60, 95
1, 719562, Note_off_c, 0, 60, 95
1, 719583, Note_on_c, 0, 59, 98
1, 719940, Note_off_c, 0, 59, 98
1, 720003, Note_on_c, 0, 55, 98
1, 720313, Note_off_c, 0, 55, 98
1, 720367, Note_on_c, 0, 53, 102
1, 720862, Note_off_c, 0, 53, 102
1, 720903, Note_on_c, 0, 55, 96
1, 721297, Note_off_c, 0, 55, 96
1, 724764, Note_on_c, 0, 66, 102
1, 725265, Note_off_c, 0, 66, 102
1, 725288, Note_on_c, 0, 65, 104
1, 725520, Note_off_c, 0, 65, 104
1, 725555, Note_on_c, 0, 64, 108
1, 726055, Note_off_c, 0, 64, 108
1, 726055, Note_on_c, 0, 67, 102
1, 726420, Note_off_c, 0, 67, 102
1, 726420, Note_on_c, 0, 64, 112
1, 726903, Note_off_c, 0, 64, 112
1, 727012, Note_on_c, 0, 60, 107
1, 727402, Note_off_c, 0, 60, 107
1, 727402, Note_on_c, 0, 57, 100
1, 727750, Note_off_c, 0, 57, 100
1, 727812, Note_on_c, 0, 53, 104
1, 728219, Note_off_c, 0, 53, 104
1, 728265, Note_on_c, 0, 52, 104
1, 728710, Note_off_c, 0, 52, 104
1, 731801, Note_on_c, 0, 52, 103
1, 732187, Note_off_c, 0, 52, 103
1, 732249, Note_on_c, 0, 55, 100
1, 732564, Note_off_c, 0, 55, 100
1, 732614, Note_on_c, 0, 57, 102
1, 732996, Note_off_c, 0, 57, 102
1, 733058, Note_on_c, 0, 60, 102
1, 733541, Note_off_c, 0, 60, 102
1, 733553, Note_on_c, 0, 57, 103
1, 733951, Note_off_c, 0, 57, 103
1, 733951, Note_on_c, 0, 60, 107
1, 734282, Note_off_c, 0, 60, 107
1, 734307, Note_on_c, 0, 62, 103
1, 734722, Note_off_c, 0, 62, 103
1, 734755, Note_on_c, 0, 61, 91
1, 734906, Note_off_c, 0, 61, 91
1, 734939, Note_on_c, 0, 67, 104
1, 735371, Note_off_c, 0, 67, 104
1, 735371, Note_on_c, 0, 65, 104
1, 735501, Note_off_c, 0, 65, 104
1, 735513, Note_on_c, 0, 64, 36
1, 735991, Note_off_c, 0, 64, 36
1, 735991, Note_on_c, 0, 65, 95
1, 736230, Note_off_c, 0, 65, 95
1, 736238, Note_on_c, 0, 69, 96
1, 736712, Note_off_c, 0, 69, 96
1, 736745, Note_on_c, 0, 72, 94
1, 737123, Note_off_c, 0, 72, 94
1, 737127, Note_on_c, 0, 69, 91
1, 737589, Note_off_c, 0, 69, 91
1, 737614, Note_on_c, 0, 65, 98
1, 737954, Note_off_c, 0, 65, 98
1, 737954, Note_on_c, 0, 64, 91
1, 738432, Note_off_c, 0, 64, 91
1, 738432, Note_on_c, 0, 67, 90
1, 738763, Note_off_c, 0, 67, 90
1, 738834, Note_on_c, 0, 64, 97
1, 739249, Note_off_c, 0, 64, 97
1, 739299, Note_on_c, 0, 60, 96
1, 739702, Note_off_c, 0, 60, 96
1, 739714, Note_on_c, 0, 54, 91
1, 740142, Note_on_c, 0, 53, 95
1, 740142, Note_off_c, 0, 54, 91
1, 740557, Note_off_c, 0, 53, 95
1, 740557, Note_on_c, 0, 52, 96
1, 740985, Note_off_c, 0, 52, 96
1, 740985, Note_on_c, 0, 55, 94
1, 741308, Note_off_c, 0, 55, 94
1, 741324, Note_on_c, 0, 52, 97
1, 741744, Note_off_c, 0, 52, 97
1, 741878, Note_on_c, 0, 50, 93
1, 742277, Note_off_c, 0, 50, 93
1, 742289, Note_on_c, 0, 47, 103
1, 742946, Note_off_c, 0, 47, 103
1, 747408, Note_on_c, 0, 45, 105
1, 748054, Note_off_c, 0, 45, 105
1, 748079, Note_on_c, 0, 47, 102
1, 748540, Note_off_c, 0, 47, 102
1, 748745, Note_on_c, 0, 67, 93
1, 749001, Note_off_c, 0, 67, 93
1, 749169, Note_on_c, 0, 63, 107
1, 749689, Note_off_c, 0, 63, 107
1, 749689, Note_on_c, 0, 65, 96
1, 749886, Note_off_c, 0, 65, 96
1, 749902, Note_on_c, 0, 68, 93
1, 750330, Note_off_c, 0, 68, 93
1, 750372, Note_on_c, 0, 72, 93
1, 750598, Note_off_c, 0, 72, 93
1, 750598, Note_on_c, 0, 71, 101
1, 750807, Note_off_c, 0, 71, 101
1, 750830, Note_on_c, 0, 70, 103
1, 751152, Note_off_c, 0, 70, 103
1, 751313, Note_on_c, 0, 66, 96
1, 751575, Note_off_c, 0, 66, 96
1, 751592, Note_on_c, 0, 65, 102
1, 752129, Note_off_c, 0, 65, 102
1, 752218, Note_on_c, 0, 68, 101
1, 752498, Note_off_c, 0, 68, 101
1, 752509, Note_on_c, 0, 63, 108
1, 753058, Note_off_c, 0, 63, 108
1, 753058, Note_on_c, 0, 61, 97
1, 753506, Note_off_c, 0, 61, 97
1, 753506, Note_on_c, 0, 58, 95
1, 753786, Note_off_c, 0, 58, 95
1, 753905, Note_on_c, 0, 54, 92
1, 754442, Note_off_c, 0, 54, 92
1, 754442, Note_on_c, 0, 53, 94
1, 754788, Note_off_c, 0, 53, 94
1, 758640, Note_on_c, 0, 73, 94
1, 759076, Note_off_c, 0, 73, 94
1, 759093, Note_on_c, 0, 72, 92
1, 759439, Note_off_c, 0, 72, 92
1, 759498, Note_on_c, 0, 68, 92
1, 760883, Note_off_c, 0, 68, 92
1, 760949, Note_on_c, 0, 65, 99
1, 761318, Note_off_c, 0, 65, 99
1, 761318, Note_on_c, 0, 63, 111
1, 761712, Note_off_c, 0, 63, 111
1, 761753, Note_on_c, 0, 67, 100
1, 762123, Note_off_c, 0, 67, 100
1, 762123, Note_on_c, 0, 65, 99
1, 762487, Note_off_c, 0, 65, 99
1, 762540, Note_on_c, 0, 61, 106
1, 762999, Note_off_c, 0, 61, 106
1, 762999, Note_on_c, 0, 60, 104
1, 763787, Note_off_c, 0, 60, 104
1, 766588, Note_on_c, 0, 60, 89
1, 766976, Note_off_c, 0, 60, 89
1, 767011, Note_on_c, 0, 65, 100
1, 767405, Note_off_c, 0, 65, 100
1, 767405, Note_on_c, 0, 63, 103
1, 767775, Note_off_c, 0, 63, 103
1, 767775, Note_on_c, 0, 60, 94
1, 768211, Note_off_c, 0, 60, 94
1, 768211, Note_on_c, 0, 58, 95
1, 768575, Note_off_c, 0, 58, 95
1, 768670, Note_on_c, 0, 54, 94
1, 768867, Note_off_c, 0, 54, 94
1, 768890, Note_on_c, 0, 53, 97
1, 769188, Note_off_c, 0, 53, 97
1, 769259, Note_on_c, 0, 63, 101
1, 769617, Note_off_c, 0, 63, 101
1, 769688, Note_on_c, 0, 67, 97
1, 770309, Note_off_c, 0, 67, 97
1, 771885, Note_on_c, 0, 51, 95
1, 772165, Note_off_c, 0, 51, 95
1, 772250, Note_on_c, 0, 53, 97
1, 772493, Note_off_c, 0, 53, 97
1, 772522, Note_on_c, 0, 56, 98
1, 772786, Note_off_c, 0, 56, 98
1, 772962, Note_on_c, 0, 61, 94
1, 773285, Note_off_c, 0, 61, 94
1, 773406, Note_on_c, 0, 55, 91
1, 773752, Note_off_c, 0, 55, 91
1, 773808, Note_on_c, 0, 67, 98
1, 774165, Note_off_c, 0, 67, 98
1, 774324, Note_on_c, 0, 63, 90
1, 774655, Note_off_c, 0, 63, 90
1, 774684, Note_on_c, 0, 66, 95
1, 775078, Note_off_c, 0, 66, 95
1, 775084, Note_on_c, 0, 63, 100
1, 775478, Note_off_c, 0, 63, 100
1, 775478, Note_on_c, 0, 66, 98
1, 775746, Note_off_c, 0, 66, 98
1, 775823, Note_on_c, 0, 70, 102
1, 776390, Note_off_c, 0, 70, 102
1, 778578, Note_on_c, 0, 64, 103
1, 778972, Note_off_c, 0, 64, 103
1, 778972, Note_on_c, 0, 65, 97
1, 779324, Note_off_c, 0, 65, 97
1, 779324, Note_on_c, 0, 69, 91
1, 779655, Note_off_c, 0, 69, 91
1, 779726, Note_on_c, 0, 67, 101
1, 780204, Note_off_c, 0, 67, 101
1, 780216, Note_on_c, 0, 69, 93
1, 780438, Note_off_c, 0, 69, 93
1, 780438, Note_on_c, 0, 68, 96
1, 780530, Note_off_c, 0, 68, 96
1, 780530, Note_on_c, 0, 67, 100
1, 781000, Note_off_c, 0, 67, 100
1, 781054, Note_on_c, 0, 69, 96
1, 781343, Note_off_c, 0, 69, 96
1, 781494, Note_on_c, 0, 67, 96
1, 781947, Note_off_c, 0, 67, 96
1, 781963, Note_on_c, 0, 60, 88
1, 782399, Note_off_c, 0, 60, 88
1, 782428, Note_on_c, 0, 65, 99
1, 782743, Note_off_c, 0, 65, 99
1, 782810, Note_on_c, 0, 69, 98
1, 783213, Note_off_c, 0, 69, 98
1, 783238, Note_on_c, 0, 71, 102
1, 783847, Note_off_c, 0, 71, 102
1, 787085, Note_on_c, 0, 71, 103
1, 787597, Note_off_c, 0, 71, 103
1, 787601, Note_on_c, 0, 69, 97
1, 787949, Note_off_c, 0, 69, 97
1, 787953, Note_on_c, 0, 71, 95
1, 788301, Note_off_c, 0, 71, 95
1, 788414, Note_on_c, 0, 74, 100
1, 788674, Note_off_c, 0, 74, 100
1, 788707, Note_on_c, 0, 73, 104
1, 788866, Note_off_c, 0, 73, 104
1, 788870, Note_on_c, 0, 72, 106
1, 789714, Note_off_c, 0, 72, 106
1, 789714, Note_on_c, 0, 69, 97
1, 790243, Note_off_c, 0, 69, 97
1, 794262, Note_on_c, 0, 69, 95
1, 794795, Note_off_c, 0, 69, 95
1, 796059, Note_on_c, 0, 74, 105
1, 796353, Note_off_c, 0, 74, 105
1, 796500, Note_on_c, 0, 73, 102
1, 796806, Note_off_c, 0, 73, 102
1, 796877, Note_on_c, 0, 69, 94
1, 797229, Note_off_c, 0, 69, 94
1, 797321, Note_on_c, 0, 74, 102
1, 797514, Note_off_c, 0, 74, 102
1, 797522, Note_on_c, 0, 73, 106
1, 797711, Note_off_c, 0, 73, 106
1, 797744, Note_on_c, 0, 69, 100
1, 798100, Note_off_c, 0, 69, 100
1, 798175, Note_on_c, 0, 65, 106
1, 798548, Note_off_c, 0, 65, 106
1, 798556, Note_on_c, 0, 62, 107
1, 798959, Note_off_c, 0, 62, 107
1, 799068, Note_on_c, 0, 67, 104
1, 799391, Note_off_c, 0, 67, 104
1, 799466, Note_on_c, 0, 65, 104
1, 800994, Note_off_c, 0, 65, 104
1, 801190, Note_on_c, 0, 65, 102
1, 801440, Note_off_c, 0, 65, 102
1, 801499, Note_on_c, 0, 65, 106
1, 802000, Note_off_c, 0, 65, 106
1, 802000, Note_on_c, 0, 67, 101
1, 802364, Note_off_c, 0, 67, 101
1, 802399, Note_on_c, 0, 65, 103
1, 802512, Note_off_c, 0, 65, 103
1, 802512, Note_on_c, 0, 62, 108
1, 803228, Note_off_c, 0, 62, 108
1, 803251, Note_on_c, 0, 61, 93
1, 803412, Note_off_c, 0, 61, 93
1, 803776, Note_on_c, 0, 69, 102
1, 804492, Note_off_c, 0, 69, 102
1, 804492, Note_on_c, 0, 60, 96
1, 804677, Note_off_c, 0, 60, 96
1, 804730, Note_on_c, 0, 69, 104
1, 806020, Note_off_c, 0, 69, 104
1, 809609, Note_on_c, 0, 69, 87
1, 810958, Note_off_c, 0, 69, 87
1, 811710, Note_on_c, 0, 69, 97
1, 812169, Note_off_c, 0, 69, 97
1, 812694, Note_on_c, 0, 69, 104
1, 814020, Note_off_c, 0, 69, 104
1, 817574, Note_on_c, 0, 69, 89
1, 817800, Note_off_c, 0, 69, 89
1, 818463, Note_on_c, 0, 68, 97
1, 818785, Note_off_c, 0, 68, 97
1, 818808, Note_on_c, 0, 69, 103
1, 821627, Note_off_c, 0, 69, 103
1, 821684, Note_on_c, 0, 68, 83
1, 822036, Note_off_c, 0, 68, 83
1, 822068, Note_on_c, 0, 69, 97
1, 823692, Note_off_c, 0, 69, 97
1, 823723, Note_on_c, 0, 67, 89
1, 823991, Note_off_c, 0, 67, 89
1, 823999, Note_on_c, 0, 69, 97
1, 824503, Note_off_c, 0, 69, 97
1, 824553, Note_on_c, 0, 67, 93
1, 824779, Note_off_c, 0, 67, 93
1, 824837, Note_on_c, 0, 69, 97
1, 825231, Note_off_c, 0, 69, 97
1, 825256, Note_on_c, 0, 67, 97
1, 825634, Note_off_c, 0, 67, 97
1, 825692, Note_on_c, 0, 65, 104
1, 826128, Note_off_c, 0, 65, 104
1, 826128, Note_on_c, 0, 62, 104
1, 826976, Note_off_c, 0, 62, 104
1, 830411, Note_on_c, 0, 67, 96
1, 832149, Note_off_c, 0, 67, 96
1, 832686, Note_on_c, 0, 67, 101
1, 834315, Note_off_c, 0, 67, 101
1, 834365, Note_on_c, 0, 66, 105
1, 834785, Note_off_c, 0, 66, 105
1, 834860, Note_on_c, 0, 67, 96
1, 835263, Note_off_c, 0, 67, 96
1, 835288, Note_on_c, 0, 69, 96
1, 835741, Note_off_c, 0, 69, 96
1, 835833, Note_on_c, 0, 65, 100
1, 836547, Note_off_c, 0, 65, 100
1, 836622, Note_on_c, 0, 65, 98
1, 837890, Note_off_c, 0, 65, 98
1, 837898, Note_on_c, 0, 62, 105
1, 838779, Note_off_c, 0, 62, 105
1, 838837, Note_on_c, 0, 62, 107
1, 839609, Note_off_c, 0, 62, 107
1, 839625, Note_on_c, 0, 59, 97
1, 840061, Note_off_c, 0, 59, 97
1, 840170, Note_on_c, 0, 53, 105
1, 840489, Note_off_c, 0, 53, 105
1, 844428, Note_on_c, 0, 67, 97
1, 846074, Note_off_c, 0, 67, 97
1, 846821, Note_on_c, 0, 69, 94
1, 847232, Note_off_c, 0, 69, 94
1, 847710, Note_on_c, 0, 70, 89
1, 848071, Note_off_c, 0, 70, 89
1, 848096, Note_on_c, 0, 71, 103
1, 848448, Note_off_c, 0, 71, 103
1, 848498, Note_on_c, 0, 70, 103
1, 849228, Note_off_c, 0, 70, 103
1, 849286, Note_on_c, 0, 71, 103
1, 850016, Note_off_c, 0, 71, 103
1, 850032, Note_on_c, 0, 70, 96
1, 850779, Note_off_c, 0, 70, 96
1, 850804, Note_on_c, 0, 71, 103
1, 851333, Note_off_c, 0, 71, 103
1, 851333, Note_on_c, 0, 67, 100
1, 851912, Note_off_c, 0, 67, 100
1, 851945, Note_on_c, 0, 62, 107
1, 852642, Note_off_c, 0, 62, 107
1, 852742, Note_on_c, 0, 59, 96
1, 852960, Note_off_c, 0, 59, 96
1, 854287, Note_on_c, 0, 71, 105
1, 854833, Note_off_c, 0, 71, 105
1, 855244, Note_on_c, 0, 70, 97
1, 855958, Note_off_c, 0, 70, 97
1, 855974, Note_on_c, 0, 71, 99
1, 856394, Note_off_c, 0, 71, 99
1, 856696, Note_on_c, 0, 72, 108
1, 857577, Note_off_c, 0, 72, 108
1, 857593, Note_on_c, 0, 71, 104
1, 857987, Note_off_c, 0, 71, 104
1, 858040, Note_on_c, 0, 69, 106
1, 859007, Note_off_c, 0, 69, 106
1, 861992, Note_on_c, 0, 72, 96
1, 863554, Note_off_c, 0, 72, 96
1, 863595, Note_on_c, 0, 71, 101
1, 863889, Note_off_c, 0, 71, 101
1, 863914, Note_on_c, 0, 72, 102
1, 865316, Note_off_c, 0, 72, 102
1, 865349, Note_on_c, 0, 68, 99
1, 865886, Note_off_c, 0, 68, 99
1, 865970, Note_on_c, 0, 63, 104
1, 866322, Note_off_c, 0, 63, 104
1, 868766, Note_on_c, 0, 70, 91
1, 869085, Note_off_c, 0, 70, 91
1, 869085, Note_on_c, 0, 71, 100
1, 869303, Note_off_c, 0, 71, 100
1, 869328, Note_on_c, 0, 72, 106
1, 870462, Note_off_c, 0, 72, 106
1, 870470, Note_on_c, 0, 71, 100
1, 870738, Note_off_c, 0, 71, 100
1, 870754, Note_on_c, 0, 72, 106
1, 871904, Note_off_c, 0, 72, 106
1, 871984, Note_on_c, 0, 68, 98
1, 873023, Note_off_c, 0, 68, 98
1, 875960, Note_on_c, 0, 71, 91
1, 876195, Note_off_c, 0, 71, 91
1, 876203, Note_on_c, 0, 72, 93
1, 877387, Note_off_c, 0, 72, 93
1, 877496, Note_on_c, 0, 71, 92
1, 877941, Note_off_c, 0, 71, 92
1, 877966, Note_on_c, 0, 72, 96
1, 879276, Note_off_c, 0, 72, 96
1, 879429, Note_on_c, 0, 68, 90
1, 879936, Note_off_c, 0, 68, 90
1, 880103, Note_on_c, 0, 63, 99
1, 880712, Note_off_c, 0, 63, 99
1, 881703, Note_on_c, 0, 75, 92
1, 881924, Note_off_c, 0, 75, 92
1, 882676, Note_on_c, 0, 74, 91
1, 883201, Note_off_c, 0, 74, 91
1, 883266, Note_on_c, 0, 75, 97
1, 883797, Note_off_c, 0, 75, 97
1, 884352, Note_on_c, 0, 74, 94
1, 884865, Note_off_c, 0, 74, 94
1, 884954, Note_on_c, 0, 75, 92
1, 885384, Note_off_c, 0, 75, 92
1, 885622, Note_on_c, 0, 71, 94
1, 885962, Note_off_c, 0, 71, 94
1, 885962, Note_on_c, 0, 72, 95
1, 886394, Note_off_c, 0, 72, 95
1, 886421, Note_on_c, 0, 75, 87
1, 886874, Note_off_c, 0, 75, 87
1, 889614, Note_on_c, 0, 70, 87
1, 889899, Note_off_c, 0, 70, 87
1, 889941, Note_on_c, 0, 71, 95
1, 891083, Note_off_c, 0, 71, 95
1, 891083, Note_on_c, 0, 70, 101
1, 891435, Note_off_c, 0, 70, 101
1, 891435, Note_on_c, 0, 71, 105
1, 892510, Note_off_c, 0, 71, 105
1, 892678, Note_on_c, 0, 67, 101
1, 893366, Note_off_c, 0, 67, 101
1, 893693, Note_on_c, 0, 74, 96
1, 894054, Note_off_c, 0, 74, 96
1, 894616, Note_on_c, 0, 73, 105
1, 895120, Note_off_c, 0, 73, 105
1, 895120, Note_on_c, 0, 74, 102
1, 895657, Note_off_c, 0, 74, 102
1, 895976, Note_on_c, 0, 73, 101
1, 896471, Note_off_c, 0, 73, 101
1, 896471, Note_on_c, 0, 74, 98
1, 897067, Note_off_c, 0, 74, 98
1, 897402, Note_on_c, 0, 73, 100
1, 897990, Note_off_c, 0, 73, 100
1, 898023, Note_on_c, 0, 74, 97
1, 899366, Note_off_c, 0, 74, 97
1, 899483, Note_on_c, 0, 71, 101
1, 900037, Note_off_c, 0, 71, 101
1, 900095, Note_on_c, 0, 74, 104
1, 900548, Note_off_c, 0, 74, 104
1, 900589, Note_on_c, 0, 73, 94
1, 900757, Note_off_c, 0, 73, 94
1, 902764, Note_on_c, 0, 70, 95
1, 903091, Note_off_c, 0, 70, 95
1, 903116, Note_on_c, 0, 71, 98
1, 904073, Note_off_c, 0, 71, 98
1, 904140, Note_on_c, 0, 70, 99
1, 904568, Note_off_c, 0, 70, 99
1, 904568, Note_on_c, 0, 71, 101
1, 905760, Note_off_c, 0, 71, 101
1, 905869, Note_on_c, 0, 67, 99
1, 906440, Note_off_c, 0, 67, 99
1, 909522, Note_on_c, 0, 73, 100
1, 909891, Note_off_c, 0, 73, 100
1, 909891, Note_on_c, 0, 74, 93
1, 910873, Note_off_c, 0, 74, 93
1, 910940, Note_on_c, 0, 73, 102
1, 911343, Note_off_c, 0, 73, 102
1, 911393, Note_on_c, 0, 74, 100
1, 912333, Note_off_c, 0, 74, 100
1, 912449, Note_on_c, 0, 71, 103
1, 913524, Note_off_c, 0, 71, 103
1, 917657, Note_on_c, 0, 74, 93
1, 918908, Note_off_c, 0, 74, 93
1, 918924, Note_on_c, 0, 71, 101
1, 919402, Note_off_c, 0, 71, 101
1, 919444, Note_on_c, 0, 69, 98
1, 919754, Note_off_c, 0, 69, 98
1, 919804, Note_on_c, 0, 67, 99
1, 920114, Note_off_c, 0, 67, 99
1, 920156, Note_on_c, 0, 66, 100
1, 920634, Note_off_c, 0, 66, 100
1, 920676, Note_on_c, 0, 65, 104
1, 921230, Note_off_c, 0, 65, 104
1, 923254, Note_on_c, 0, 64, 110
1, 923791, Note_off_c, 0, 64, 110
1, 923791, Note_on_c, 0, 65, 106
1, 924160, Note_off_c, 0, 65, 106
1, 924168, Note_on_c, 0, 67, 99
1, 924411, Note_off_c, 0, 67, 99
1, 924411, Note_on_c, 0, 69, 99
1, 924847, Note_off_c, 0, 69, 99
1, 924897, Note_on_c, 0, 65, 97
1, 925266, Note_off_c, 0, 65, 97
1, 925316, Note_on_c, 0, 62, 96
1, 925820, Note_off_c, 0, 62, 96
1, 925862, Note_on_c, 0, 61, 96
1, 926130, Note_off_c, 0, 61, 96
1, 926155, Note_on_c, 0, 64, 103
1, 926516, Note_off_c, 0, 64, 103
1, 926516, Note_on_c, 0, 62, 100
1, 926835, Note_off_c, 0, 62, 100
1, 926952, Note_on_c, 0, 65, 97
1, 927237, Note_off_c, 0, 65, 97
1, 927253, Note_on_c, 0, 69, 98
1, 927530, Note_off_c, 0, 69, 98
1, 929974, Note_on_c, 0, 64, 100
1, 930368, Note_off_c, 0, 64, 100
1, 930737, Note_on_c, 0, 68, 84
1, 930997, Note_off_c, 0, 68, 84
1, 931030, Note_on_c, 0, 71, 100
1, 931399, Note_off_c, 0, 71, 100
1, 931482, Note_on_c, 0, 63, 106
1, 932086, Note_off_c, 0, 63, 106
1, 933295, Note_on_c, 0, 61, 98
1, 933782, Note_off_c, 0, 61, 98
1, 933782, Note_on_c, 0, 60, 95
1, 934218, Note_off_c, 0, 60, 95
1, 934251, Note_on_c, 0, 59, 90
1, 934519, Note_off_c, 0, 59, 90
1, 934611, Note_on_c, 0, 58, 92
1, 935047, Note_off_c, 0, 58, 92
1, 935114, Note_on_c, 0, 57, 91
1, 935534, Note_off_c, 0, 57, 91
1, 935550, Note_on_c, 0, 56, 91
1, 935743, Note_off_c, 0, 56, 91
1, 935801, Note_on_c, 0, 55, 91
1, 936195, Note_off_c, 0, 55, 91
1, 936430, Note_on_c, 0, 59, 87
1, 936833, Note_off_c, 0, 59, 87
1, 936841, Note_on_c, 0, 57, 90
1, 937252, Note_off_c, 0, 57, 90
1, 937310, Note_on_c, 0, 62, 98
1, 937570, Note_off_c, 0, 62, 98
1, 937637, Note_on_c, 0, 65, 94
1, 938006, Note_off_c, 0, 65, 94
1, 938056, Note_on_c, 0, 69, 89
1, 938375, Note_off_c, 0, 69, 89
1, 938475, Note_on_c, 0, 62, 93
1, 938895, Note_off_c, 0, 62, 93
1, 939029, Note_on_c, 0, 65, 91
1, 939205, Note_off_c, 0, 65, 91
1, 939314, Note_on_c, 0, 69, 87
1, 939692, Note_off_c, 0, 69, 87
1, 939784, Note_on_c, 0, 71, 90
1, 940103, Note_off_c, 0, 71, 90
1, 940136, Note_on_c, 0, 69, 87
1, 940304, Note_off_c, 0, 69, 87
1, 940354, Note_on_c, 0, 67, 88
1, 940706, Note_off_c, 0, 67, 88
1, 940773, Note_on_c, 0, 65, 92
1, 940983, Note_off_c, 0, 65, 92
1, 940991, Note_on_c, 0, 64, 84
1, 941427, Note_off_c, 0, 64, 84
1, 941586, Note_on_c, 0, 67, 90
1, 941812, Note_off_c, 0, 67, 90
1, 941837, Note_on_c, 0, 62, 87
1, 942374, Note_off_c, 0, 62, 87
1, 943667, Note_on_c, 0, 67, 91
1, 944053, Note_off_c, 0, 67, 91
1, 945144, Note_on_c, 0, 69, 86
1, 945379, Note_off_c, 0, 69, 86
1, 945421, Note_on_c, 0, 67, 96
1, 945841, Note_off_c, 0, 67, 96
1, 947017, Note_on_c, 0, 69, 94
1, 947437, Note_off_c, 0, 69, 94
1, 948688, Note_on_c, 0, 62, 95
1, 949217, Note_on_c, 0, 65, 89
1, 949217, Note_off_c, 0, 62, 95
1, 949443, Note_off_c, 0, 65, 89
1, 949493, Note_on_c, 0, 69, 88
1, 949921, Note_off_c, 0, 69, 88
1, 951248, Note_on_c, 0, 64, 96
1, 951701, Note_off_c, 0, 64, 96
1, 951726, Note_on_c, 0, 67, 92
1, 952120, Note_off_c, 0, 67, 92
1, 952136, Note_on_c, 0, 71, 91
1, 952522, Note_off_c, 0, 71, 91
1, 953958, Note_on_c, 0, 65, 98
1, 954411, Note_off_c, 0, 65, 98
1, 954411, Note_on_c, 0, 69, 91
1, 954704, Note_off_c, 0, 69, 91
1, 954813, Note_on_c, 0, 72, 94
1, 955224, Note_off_c, 0, 72, 94
1, 955291, Note_on_c, 0, 67, 85
1, 955601, Note_off_c, 0, 67, 85
1, 955634, Note_on_c, 0, 69, 85
1, 956062, Note_off_c, 0, 69, 85
1, 957454, Note_on_c, 0, 69, 86
1, 957848, Note_off_c, 0, 69, 86
1, 957859, Note_on_c, 0, 71, 92
1, 958217, Note_off_c, 0, 71, 92
1, 958252, Note_on_c, 0, 72, 93
1, 958502, Note_off_c, 0, 72, 93
1, 958745, Note_on_c, 0, 73, 89
1, 958879, Note_off_c, 0, 73, 89
1, 958929, Note_on_c, 0, 72, 94
1, 959105, Note_off_c, 0, 72, 94
1, 959130, Note_on_c, 0, 69, 88
1, 959491, Note_off_c, 0, 69, 88
1, 959556, Note_on_c, 0, 65, 95
1, 959836, Note_off_c, 0, 65, 95
1, 959836, Note_on_c, 0, 62, 102
1, 960409, Note_off_c, 0, 62, 102
1, 960743, Note_on_c, 0, 65, 96
1, 961967, Note_off_c, 0, 65, 96
1, 962002, Note_on_c, 0, 67, 96
1, 962390, Note_off_c, 0, 67, 96
1, 962413, Note_on_c, 0, 65, 96
1, 962759, Note_off_c, 0, 65, 96
1, 962824, Note_on_c, 0, 62, 102
1, 963200, Note_off_c, 0, 62, 102
1, 963259, Note_on_c, 0, 57, 96
1, 963611, Note_off_c, 0, 57, 96
1, 963664, Note_on_c, 0, 53, 98
1, 964171, Note_off_c, 0, 53, 98
1, 967665, Note_on_c, 0, 54, 106
1, 967820, Note_on_c, 0, 56, 109
1, 967820, Note_off_c, 0, 54, 106
1, 967993, Note_off_c, 0, 56, 109
1, 967993, Note_on_c, 0, 63, 100
1, 968261, Note_off_c, 0, 63, 100
1, 968284, Note_on_c, 0, 67, 99
1, 968785, Note_off_c, 0, 67, 99
1, 968785, Note_on_c, 0, 60, 100
1, 969244, Note_off_c, 0, 60, 100
1, 969285, Note_on_c, 0, 58, 102
1, 969631, Note_off_c, 0, 58, 102
1, 969690, Note_on_c, 0, 54, 95
1, 970108, Note_off_c, 0, 54, 95
1, 970113, Note_on_c, 0, 51, 97
1, 970555, Note_off_c, 0, 51, 97
1, 970644, Note_on_c, 0, 54, 97
1, 970990, Note_off_c, 0, 54, 97
1, 970990, Note_on_c, 0, 47, 94
1, 971461, Note_off_c, 0, 47, 94
1, 972811, Note_on_c, 0, 58, 100
1, 973318, Note_off_c, 0, 58, 100
1, 973616, Note_on_c, 0, 60, 105
1, 973992, Note_off_c, 0, 60, 105
1, 974093, Note_on_c, 0, 56, 103
1, 974409, Note_off_c, 0, 56, 103
1, 974432, Note_on_c, 0, 54, 100
1, 974826, Note_off_c, 0, 54, 100
1, 974909, Note_on_c, 0, 56, 105
1, 975177, Note_off_c, 0, 56, 105
1, 975182, Note_on_c, 0, 67, 109
1, 975504, Note_off_c, 0, 67, 109
1, 975629, Note_on_c, 0, 60, 114
1, 976059, Note_off_c, 0, 60, 114
1, 976059, Note_on_c, 0, 58, 104
1, 976363, Note_off_c, 0, 58, 104
1, 977772, Note_on_c, 0, 58, 99
1, 978076, Note_off_c, 0, 58, 99
1, 978123, Note_on_c, 0, 60, 94
1, 978505, Note_off_c, 0, 60, 94
1, 978516, Note_on_c, 0, 62, 101
1, 978910, Note_off_c, 0, 62, 101
1, 978999, Note_on_c, 0, 65, 98
1, 979363, Note_off_c, 0, 65, 98
1, 979386, Note_on_c, 0, 63, 100
1, 979857, Note_off_c, 0, 63, 100
1, 979922, Note_on_c, 0, 66, 89
1, 980184, Note_off_c, 0, 66, 89
1, 980231, Note_on_c, 0, 70, 92
1, 980565, Note_off_c, 0, 70, 92
1, 980612, Note_on_c, 0, 71, 98
1, 980934, Note_off_c, 0, 71, 98
1, 980963, Note_on_c, 0, 68, 94
1, 981172, Note_off_c, 0, 68, 94
1, 981279, Note_on_c, 0, 66, 96
1, 981655, Note_off_c, 0, 66, 96
1, 981690, Note_on_c, 0, 63, 99
1, 982149, Note_off_c, 0, 63, 99
1, 984239, Note_on_c, 0, 63, 105
1, 984555, Note_off_c, 0, 63, 105
1, 984668, Note_on_c, 0, 66, 100
1, 984936, Note_off_c, 0, 66, 100
1, 985079, Note_on_c, 0, 67, 87
1, 985359, Note_off_c, 0, 67, 87
1, 985370, Note_on_c, 0, 70, 93
1, 985668, Note_off_c, 0, 70, 93
1, 985936, Note_on_c, 0, 65, 94
1, 986258, Note_off_c, 0, 65, 94
1, 986341, Note_on_c, 0, 60, 97
1, 986669, Note_off_c, 0, 60, 97
1, 986716, Note_on_c, 0, 58, 102
1, 987014, Note_off_c, 0, 58, 102
1, 990998, Note_on_c, 0, 58, 97
1, 991296, Note_off_c, 0, 58, 97
1, 991397, Note_on_c, 0, 60, 97
1, 991767, Note_off_c, 0, 60, 97
1, 991820, Note_on_c, 0, 62, 100
1, 992160, Note_off_c, 0, 62, 100
1, 992279, Note_on_c, 0, 65, 103
1, 992673, Note_off_c, 0, 65, 103
1, 992774, Note_on_c, 0, 63, 102
1, 993216, Note_off_c, 0, 63, 102
1, 993216, Note_on_c, 0, 66, 95
1, 993431, Note_off_c, 0, 66, 95
1, 993431, Note_on_c, 0, 68, 94
1, 993801, Note_off_c, 0, 68, 94
1, 993896, Note_on_c, 0, 71, 99
1, 994355, Note_off_c, 0, 71, 99
1, 994408, Note_on_c, 0, 68, 94
1, 994634, Note_off_c, 0, 68, 94
1, 994747, Note_on_c, 0, 66, 96
1, 995111, Note_off_c, 0, 66, 96
1, 995146, Note_on_c, 0, 63, 104
1, 995546, Note_off_c, 0, 63, 104
1, 995671, Note_on_c, 0, 58, 92
1, 995939, Note_off_c, 0, 58, 92
1, 996010, Note_on_c, 0, 62, 109
1, 996469, Note_off_c, 0, 62, 109
1, 997818, Note_on_c, 0, 69, 98
1, 998122, Note_off_c, 0, 69, 98
1, 998187, Note_on_c, 0, 71, 84
1, 999315, Note_off_c, 0, 71, 84
1, 999380, Note_on_c, 0, 69, 92
1, 999696, Note_off_c, 0, 69, 92
1, 999737, Note_on_c, 0, 71, 88
1, 1000889, Note_off_c, 0, 71, 88
1, 1000972, Note_on_c, 0, 69, 84
1, 1001336, Note_off_c, 0, 69, 84
1, 1001479, Note_on_c, 0, 65, 90
1, 1001777, Note_off_c, 0, 65, 90
1, 1001806, Note_on_c, 0, 62, 98
1, 1002325, Note_off_c, 0, 62, 98
1, 1004397, Note_on_c, 0, 67, 93
1, 1004707, Note_off_c, 0, 67, 93
1, 1004730, Note_on_c, 0, 65, 91
1, 1005130, Note_off_c, 0, 65, 91
1, 1005171, Note_on_c, 0, 62, 87
1, 1005690, Note_off_c, 0, 62, 87
1, 1005695, Note_on_c, 0, 64, 98
1, 1006089, Note_off_c, 0, 64, 98
1, 1006106, Note_on_c, 0, 62, 100
1, 1006506, Note_off_c, 0, 62, 100
1, 1006649, Note_on_c, 0, 60, 90
1, 1006846, Note_off_c, 0, 60, 90
1, 1006941, Note_on_c, 0, 57, 95
1, 1007329, Note_off_c, 0, 57, 95
1, 1007400, Note_on_c, 0, 53, 93
1, 1007710, Note_off_c, 0, 53, 93
1, 1007710, Note_on_c, 0, 50, 90
1, 1008163, Note_off_c, 0, 50, 90
1, 1010229, Note_on_c, 0, 50, 92
1, 1010521, Note_off_c, 0, 50, 92
1, 1010652, Note_on_c, 0, 53, 96
1, 1011052, Note_off_c, 0, 53, 96
1, 1011052, Note_on_c, 0, 57, 94
1, 1011362, Note_off_c, 0, 57, 94
1, 1011463, Note_on_c, 0, 66, 102
1, 1011797, Note_off_c, 0, 66, 102
1, 1011826, Note_on_c, 0, 68, 93
1, 1012226, Note_off_c, 0, 68, 93
1, 1012309, Note_on_c, 0, 67, 95
1, 1012709, Note_off_c, 0, 67, 95
1, 1012756, Note_on_c, 0, 62, 84
1, 1012923, Note_off_c, 0, 62, 84
1, 1014404, Note_on_c, 0, 62, 99
1, 1014828, Note_off_c, 0, 62, 99
1, 1014857, Note_on_c, 0, 65, 92
1, 1015191, Note_off_c, 0, 65, 92
1, 1015226, Note_on_c, 0, 69, 95
1, 1015470, Note_off_c, 0, 69, 95
1, 1015691, Note_on_c, 0, 74, 96
1, 1015983, Note_off_c, 0, 74, 96
1, 1015988, Note_on_c, 0, 73, 95
1, 1016125, Note_off_c, 0, 73, 95
1, 1016125, Note_on_c, 0, 69, 92
1, 1016686, Note_off_c, 0, 69, 92
1, 1017862, Note_on_c, 0, 71, 103
1, 1018315, Note_off_c, 0, 71, 103
1, 1018368, Note_on_c, 0, 67, 99
1, 1018583, Note_off_c, 0, 67, 99
1, 1018606, Note_on_c, 0, 65, 101
1, 1018821, Note_off_c, 0, 65, 101
1, 1018821, Note_on_c, 0, 62, 107
1, 1019215, Note_off_c, 0, 62, 107
1, 1019310, Note_on_c, 0, 58, 94
1, 1019578, Note_off_c, 0, 58, 94
1, 1019715, Note_on_c, 0, 65, 105
1, 1020115, Note_off_c, 0, 65, 105
1, 1021417, Note_on_c, 0, 65, 106
1, 1021882, Note_off_c, 0, 65, 106
1, 1021882, Note_on_c, 0, 67, 104
1, 1022282, Note_off_c, 0, 67, 104
1, 1022311, Note_on_c, 0, 69, 103
1, 1022633, Note_off_c, 0, 69, 103
1, 1022650, Note_on_c, 0, 71, 106
1, 1022984, Note_off_c, 0, 71, 106
1, 1022984, Note_on_c, 0, 67, 102
1, 1023599, Note_off_c, 0, 67, 102
1, 1024626, Note_on_c, 0, 71, 108
1, 1025073, Note_off_c, 0, 71, 108
1, 1025108, Note_on_c, 0, 67, 105
1, 1025508, Note_off_c, 0, 67, 105
1, 1025961, Note_on_c, 0, 69, 117
1, 1026755, Note_off_c, 0, 69, 117
1, 1027973, Note_on_c, 0, 69, 100
1, 1028534, Note_off_c, 0, 69, 100
1, 1028545, Note_on_c, 0, 72, 102
1, 1028837, Note_off_c, 0, 72, 102
1, 1028837, Note_on_c, 0, 71, 103
1, 1029135, Note_off_c, 0, 71, 103
1, 1029242, Note_on_c, 0, 69, 99
1, 1029618, Note_off_c, 0, 69, 99
1, 1029618, Note_on_c, 0, 67, 100
1, 1030066, Note_off_c, 0, 67, 100
1, 1031457, Note_on_c, 0, 70, 114
1, 1031618, Note_off_c, 0, 70, 114
1, 1031618, Note_on_c, 0, 71, 113
1, 1032549, Note_off_c, 0, 71, 113
1, 1032668, Note_on_c, 0, 67, 104
1, 1033050, Note_off_c, 0, 67, 104
1, 1033055, Note_on_c, 0, 65, 102
1, 1033508, Note_off_c, 0, 65, 102
1, 1033561, Note_on_c, 0, 67, 95
1, 1033937, Note_off_c, 0, 67, 95
1, 1033960, Note_on_c, 0, 69, 95
1, 1034300, Note_off_c, 0, 69, 95
1, 1034300, Note_on_c, 0, 65, 99
1, 1034652, Note_off_c, 0, 65, 99
1, 1034652, Note_on_c, 0, 62, 107
1, 1035195, Note_off_c, 0, 62, 107
1, 1036329, Note_on_c, 0, 63, 113
1, 1036777, Note_off_c, 0, 63, 113
1, 1036777, Note_on_c, 0, 64, 115
1, 1037368, Note_off_c, 0, 64, 115
1, 1037403, Note_on_c, 0, 65, 107
1, 1037612, Note_off_c, 0, 65, 107
1, 1037659, Note_on_c, 0, 67, 103
1, 1038035, Note_off_c, 0, 67, 103
1, 1038100, Note_on_c, 0, 64, 114
1, 1038601, Note_off_c, 0, 64, 114
1, 1038642, Note_on_c, 0, 65, 102
1, 1038928, Note_off_c, 0, 65, 102
1, 1039005, Note_on_c, 0, 67, 95
1, 1039345, Note_off_c, 0, 67, 95
1, 1039452, Note_on_c, 0, 69, 96
1, 1039702, Note_off_c, 0, 69, 96
1, 1039707, Note_on_c, 0, 65, 98
1, 1040137, Note_off_c, 0, 65, 98
1, 1040137, Note_on_c, 0, 64, 103
1, 1040513, Note_off_c, 0, 64, 103
1, 1040513, Note_on_c, 0, 63, 105
1, 1040972, Note_off_c, 0, 63, 105
1, 1041073, Note_on_c, 0, 67, 101
1, 1041377, Note_off_c, 0, 67, 101
1, 1041406, Note_on_c, 0, 62, 101
1, 1041877, Note_off_c, 0, 62, 101
1, 1043597, Note_on_c, 0, 62, 112
1, 1043919, Note_off_c, 0, 62, 112
1, 1043960, Note_on_c, 0, 63, 114
1, 1044569, Note_off_c, 0, 63, 114
1, 1044598, Note_on_c, 0, 61, 101
1, 1044950, Note_off_c, 0, 61, 101
1, 1044955, Note_on_c, 0, 63, 105
1, 1045355, Note_off_c, 0, 63, 105
1, 1045372, Note_on_c, 0, 61, 100
1, 1045598, Note_off_c, 0, 61, 100
1, 1045609, Note_on_c, 0, 59, 97
1, 1045967, Note_off_c, 0, 59, 97
1, 1045972, Note_on_c, 0, 58, 95
1, 1046240, Note_off_c, 0, 58, 95
1, 1046305, Note_on_c, 0, 57, 97
1, 1046854, Note_off_c, 0, 57, 97
1, 1048162, Note_on_c, 0, 57, 101
1, 1048592, Note_off_c, 0, 57, 101
1, 1048592, Note_on_c, 0, 61, 105
1, 1049010, Note_off_c, 0, 61, 105
1, 1049015, Note_on_c, 0, 65, 96
1, 1049397, Note_off_c, 0, 65, 96
1, 1049426, Note_on_c, 0, 69, 102
1, 1049587, Note_off_c, 0, 69, 102
1, 1049598, Note_on_c, 0, 71, 105
1, 1049813, Note_off_c, 0, 71, 105
1, 1049824, Note_on_c, 0, 68, 98
1, 1050170, Note_off_c, 0, 68, 98
1, 1051915, Note_on_c, 0, 64, 101
1, 1052175, Note_off_c, 0, 64, 101
1, 1052183, Note_on_c, 0, 65, 105
1, 1052342, Note_on_c, 0, 66, 101
1, 1052342, Note_off_c, 0, 65, 105
1, 1054500, Note_off_c, 0, 66, 101
1, 1054567, Note_on_c, 0, 65, 100
1, 1054936, Note_off_c, 0, 65, 100
1, 1054994, Note_on_c, 0, 64, 102
1, 1055405, Note_off_c, 0, 64, 102
1, 1055405, Note_on_c, 0, 63, 104
1, 1055724, Note_off_c, 0, 63, 104
1, 1055782, Note_on_c, 0, 63, 110
1, 1056244, Note_off_c, 0, 63, 110
1, 1056269, Note_on_c, 0, 66, 106
1, 1056638, Note_off_c, 0, 66, 106
1, 1056638, Note_on_c, 0, 65, 109
1, 1057074, Note_off_c, 0, 65, 109
1, 1057141, Note_on_c, 0, 63, 112
1, 1057594, Note_off_c, 0, 63, 112
1, 1057619, Note_on_c, 0, 61, 110
1, 1057896, Note_off_c, 0, 61, 110
1, 1057904, Note_on_c, 0, 60, 106
1, 1058382, Note_off_c, 0, 60, 106
1, 1058390, Note_on_c, 0, 59, 105
1, 1058742, Note_off_c, 0, 59, 105
1, 1058758, Note_on_c, 0, 58, 103
1, 1059068, Note_off_c, 0, 58, 103
1, 1059084, Note_on_c, 0, 57, 99
1, 1059588, Note_off_c, 0, 57, 99
1, 1059655, Note_on_c, 0, 56, 99
1, 1059915, Note_off_c, 0, 56, 99
1, 1059999, Note_on_c, 0, 55, 91
1, 1060494, Note_off_c, 0, 55, 91
1, 1063795, Note_on_c, 0, 72, 93
1, 1064299, Note_off_c, 0, 72, 93
1, 1064391, Note_on_c, 0, 73, 96
1, 1066348, Note_off_c, 0, 73, 96
1, 1066465, Note_on_c, 0, 70, 93
1, 1066834, Note_off_c, 0, 70, 93
1, 1066834, Note_on_c, 0, 71, 101
1, 1067127, Note_off_c, 0, 71, 101
1, 1067227, Note_on_c, 0, 67, 99
1, 1067562, Note_off_c, 0, 67, 99
1, 1067562, Note_on_c, 0, 66, 91
1, 1068049, Note_off_c, 0, 66, 91
1, 1068129, Note_on_c, 0, 70, 99
1, 1068457, Note_off_c, 0, 70, 99
1, 1068492, Note_on_c, 0, 69, 97
1, 1068880, Note_off_c, 0, 69, 97
1, 1069029, Note_on_c, 0, 66, 92
1, 1069220, Note_off_c, 0, 66, 92
1, 1069261, Note_on_c, 0, 65, 101
1, 1069470, Note_off_c, 0, 65, 101
1, 1069493, Note_on_c, 0, 64, 104
1, 1069833, Note_off_c, 0, 64, 104
1, 1069916, Note_on_c, 0, 63, 108
1, 1070423, Note_off_c, 0, 63, 108
1, 1070482, Note_on_c, 0, 65, 100
1, 1071043, Note_off_c, 0, 65, 100
1, 1071060, Note_on_c, 0, 63, 107
1, 1071490, Note_off_c, 0, 63, 107
1, 1071555, Note_on_c, 0, 61, 102
1, 1071895, Note_off_c, 0, 61, 102
1, 1071942, Note_on_c, 0, 60, 100
1, 1072491, Note_off_c, 0, 60, 100
1, 1072538, Note_on_c, 0, 59, 100
1, 1072806, Note_off_c, 0, 59, 100
1, 1072829, Note_on_c, 0, 58, 95
1, 1073312, Note_off_c, 0, 58, 95
1, 1073371, Note_on_c, 0, 57, 95
1, 1073639, Note_off_c, 0, 57, 95
1, 1073650, Note_on_c, 0, 56, 95
1, 1074223, Note_off_c, 0, 56, 95
1, 1074228, Note_on_c, 0, 55, 92
1, 1074556, Note_off_c, 0, 55, 92
1, 1074615, Note_on_c, 0, 59, 93
1, 1074943, Note_off_c, 0, 59, 93
1, 1074996, Note_on_c, 0, 57, 99
1, 1075288, Note_off_c, 0, 57, 99
1, 1075419, Note_on_c, 0, 62, 100
1, 1075902, Note_off_c, 0, 62, 100
1, 1075902, Note_on_c, 0, 65, 96
1, 1076248, Note_off_c, 0, 65, 96
1, 1076343, Note_on_c, 0, 69, 93
1, 1076605, Note_off_c, 0, 69, 93
1, 1076682, Note_on_c, 0, 63, 107
1, 1077201, Note_off_c, 0, 63, 107
1, 1077230, Note_on_c, 0, 68, 101
1, 1077654, Note_off_c, 0, 68, 101
1, 1077725, Note_on_c, 0, 72, 100
1, 1078184, Note_off_c, 0, 72, 100
1, 1078195, Note_on_c, 0, 60, 109
1, 1078953, Note_off_c, 0, 60, 109
1, 1081360, Note_on_c, 0, 70, 103
1, 1083140, Note_off_c, 0, 70, 103
1, 1083181, Note_on_c, 0, 65, 90
1, 1083407, Note_off_c, 0, 65, 90
1, 1083466, Note_on_c, 0, 68, 101
1, 1083872, Note_off_c, 0, 68, 101
1, 1083895, Note_on_c, 0, 66, 98
1, 1084193, Note_off_c, 0, 66, 98
1, 1084312, Note_on_c, 0, 63, 104
1, 1084903, Note_off_c, 0, 63, 104
1, 1085129, Note_on_c, 0, 65, 100
1, 1085547, Note_off_c, 0, 65, 100
1, 1085642, Note_on_c, 0, 60, 97
1, 1085958, Note_off_c, 0, 60, 97
1, 1085987, Note_on_c, 0, 56, 98
1, 1086393, Note_off_c, 0, 56, 98
1, 1086554, Note_on_c, 0, 53, 103
1, 1086816, Note_off_c, 0, 53, 103
1, 1086911, Note_on_c, 0, 58, 98
1, 1087317, Note_off_c, 0, 58, 98
1, 1087322, Note_on_c, 0, 60, 94
1, 1087584, Note_off_c, 0, 60, 94
1, 1087619, Note_on_c, 0, 65, 98
1, 1088138, Note_off_c, 0, 65, 98
1, 1088138, Note_on_c, 0, 63, 105
1, 1088920, Note_off_c, 0, 63, 105
1, 1088997, Note_on_c, 0, 62, 108
1, 1089200, Note_off_c, 0, 62, 108
1, 1089283, Note_on_c, 0, 58, 105
1, 1089969, Note_off_c, 0, 58, 105
1, 1093732, Note_on_c, 0, 73, 92
1, 1094012, Note_off_c, 0, 73, 92
1, 1094029, Note_on_c, 0, 70, 101
1, 1094841, Note_off_c, 0, 70, 101
1, 1094864, Note_on_c, 0, 71, 106
1, 1095186, Note_off_c, 0, 71, 106
1, 1095299, Note_on_c, 0, 68, 106
1, 1095669, Note_off_c, 0, 68, 106
1, 1095728, Note_on_c, 0, 65, 98
1, 1096044, Note_off_c, 0, 65, 98
1, 1096067, Note_on_c, 0, 67, 103
1, 1096556, Note_off_c, 0, 67, 103
1, 1096556, Note_on_c, 0, 69, 89
1, 1096651, Note_off_c, 0, 69, 89
1, 1096662, Note_on_c, 0, 70, 103
1, 1097080, Note_off_c, 0, 70, 103
1, 1097080, Note_on_c, 0, 63, 100
1, 1097438, Note_off_c, 0, 63, 100
1, 1097461, Note_on_c, 0, 65, 98
1, 1097795, Note_off_c, 0, 65, 98
1, 1097812, Note_on_c, 0, 67, 96
1, 1098188, Note_off_c, 0, 67, 96
1, 1098223, Note_on_c, 0, 69, 102
1, 1098497, Note_off_c, 0, 69, 102
1, 1098497, Note_on_c, 0, 64, 98
1, 1099046, Note_off_c, 0, 64, 98
1, 1099105, Note_on_c, 0, 66, 96
1, 1099397, Note_off_c, 0, 66, 96
1, 1099426, Note_on_c, 0, 68, 98
1, 1099694, Note_off_c, 0, 68, 98
1, 1099795, Note_on_c, 0, 70, 95
1, 1100159, Note_off_c, 0, 70, 95
1, 1100194, Note_on_c, 0, 66, 93
1, 1100528, Note_off_c, 0, 66, 93
1, 1100605, Note_on_c, 0, 64, 98
1, 1100963, Note_off_c, 0, 64, 98
1, 1100974, Note_on_c, 0, 63, 101
1, 1101404, Note_off_c, 0, 63, 101
1, 1101475, Note_on_c, 0, 66, 97
1, 1101964, Note_off_c, 0, 66, 97
1, 1101964, Note_on_c, 0, 64, 103
1, 1102226, Note_off_c, 0, 64, 103
1, 1102226, Note_on_c, 0, 62, 106
1, 1102757, Note_off_c, 0, 62, 106
1, 1102768, Note_on_c, 0, 61, 98
1, 1103263, Note_off_c, 0, 61, 98
1, 1103286, Note_on_c, 0, 63, 101
1, 1103536, Note_off_c, 0, 63, 101
1, 1103536, Note_on_c, 0, 62, 104
1, 1104097, Note_off_c, 0, 62, 104
1, 1104144, Note_on_c, 0, 64, 101
1, 1104454, Note_off_c, 0, 64, 101
1, 1104513, Note_on_c, 0, 66, 100
1, 1104853, Note_off_c, 0, 66, 100
1, 1104948, Note_on_c, 0, 68, 99
1, 1105210, Note_off_c, 0, 68, 99
1, 1105383, Note_on_c, 0, 63, 111
1, 1105789, Note_off_c, 0, 63, 111
1, 1105789, Note_on_c, 0, 66, 95
1, 1106260, Note_off_c, 0, 66, 95
1, 1106319, Note_on_c, 0, 65, 94
1, 1106581, Note_off_c, 0, 65, 94
1, 1106604, Note_on_c, 0, 67, 98
1, 1107004, Note_off_c, 0, 67, 98
1, 1107033, Note_on_c, 0, 64, 101
1, 1108257, Note_off_c, 0, 64, 101
1, 1108316, Note_on_c, 0, 67, 99
1, 1108620, Note_off_c, 0, 67, 99
1, 1108715, Note_on_c, 0, 61, 99
1, 1109097, Note_off_c, 0, 61, 99
1, 1109198, Note_on_c, 0, 60, 102
1, 1109604, Note_off_c, 0, 60, 102
1, 1109627, Note_on_c, 0, 59, 105
1, 1109985, Note_off_c, 0, 59, 105
1, 1110032, Note_on_c, 0, 58, 106
1, 1110342, Note_off_c, 0, 58, 106
1, 1110342, Note_on_c, 0, 57, 104
1, 1110861, Note_off_c, 0, 57, 104
1, 1110938, Note_on_c, 0, 56, 100
1, 1111200, Note_off_c, 0, 56, 100
1, 1111283, Note_on_c, 0, 55, 96
1, 1111641, Note_off_c, 0, 55, 96
1, 1111724, Note_on_c, 0, 59, 100
1, 1112022, Note_off_c, 0, 59, 100
1, 1112039, Note_on_c, 0, 57, 96
1, 1112451, Note_off_c, 0, 57, 96
1, 1112570, Note_on_c, 0, 62, 98
1, 1112886, Note_off_c, 0, 62, 98
1, 1113065, Note_on_c, 0, 65, 90
1, 1113309, Note_off_c, 0, 65, 90
1, 1113368, Note_on_c, 0, 69, 86
1, 1113642, Note_off_c, 0, 69, 86
1, 1113677, Note_on_c, 0, 72, 98
1, 1113975, Note_off_c, 0, 72, 98
1, 1114064, Note_on_c, 0, 72, 90
1, 1114428, Note_off_c, 0, 72, 90
1, 1114511, Note_on_c, 0, 69, 96
1, 1114839, Note_off_c, 0, 69, 96
1, 1114844, Note_on_c, 0, 71, 103
1, 1115112, Note_off_c, 0, 71, 103
1, 1115201, Note_on_c, 0, 69, 104
1, 1115601, Note_off_c, 0, 69, 104
1, 1115684, Note_on_c, 0, 65, 109
1, 1115928, Note_off_c, 0, 65, 109
1, 1115933, Note_on_c, 0, 64, 113
1, 1116446, Note_off_c, 0, 64, 113
1, 1116613, Note_on_c, 0, 62, 90
1, 1116828, Note_off_c, 0, 62, 90
1, 1116893, Note_on_c, 0, 67, 101
1, 1117161, Note_off_c, 0, 67, 101
1, 1118186, Note_on_c, 0, 71, 94
1, 1118505, Note_off_c, 0, 71, 94
1, 1118505, Note_on_c, 0, 70, 100
1, 1119093, Note_off_c, 0, 70, 100
1, 1119119, Note_on_c, 0, 65, 99
1, 1119256, Note_off_c, 0, 65, 99
1, 1119351, Note_on_c, 0, 66, 96
1, 1119613, Note_off_c, 0, 66, 96
1, 1119672, Note_on_c, 0, 65, 94
1, 1119928, Note_off_c, 0, 65, 94
1, 1120071, Note_on_c, 0, 68, 97
1, 1120351, Note_off_c, 0, 68, 97
1, 1120536, Note_on_c, 0, 64, 105
1, 1120894, Note_off_c, 0, 64, 105
1, 1120929, Note_on_c, 0, 61, 100
1, 1121132, Note_off_c, 0, 61, 100
1, 1121317, Note_on_c, 0, 59, 99
1, 1121639, Note_off_c, 0, 59, 99
1, 1121639, Note_on_c, 0, 58, 107
1, 1121931, Note_off_c, 0, 58, 107
1, 1121972, Note_on_c, 0, 57, 104
1, 1122348, Note_off_c, 0, 57, 104
1, 1122425, Note_on_c, 0, 56, 106
1, 1122634, Note_off_c, 0, 56, 106
1, 1122663, Note_on_c, 0, 55, 107
1, 1123069, Note_off_c, 0, 55, 107
1, 1123158, Note_on_c, 0, 59, 102
1, 1123402, Note_off_c, 0, 59, 102
1, 1123527, Note_on_c, 0, 57, 101
1, 1123980, Note_off_c, 0, 57, 101
1, 1128412, Note_on_c, 0, 68, 93
1, 1128603, Note_off_c, 0, 68, 93
1, 1128603, Note_on_c, 0, 69, 97
1, 1128979, Note_off_c, 0, 69, 97
1, 1129779, Note_on_c, 0, 68, 94
1, 1129922, Note_off_c, 0, 68, 94
1, 1129951, Note_on_c, 0, 69, 97
1, 1130440, Note_off_c, 0, 69, 97
1, 1130672, Note_on_c, 0, 61, 103
1, 1131120, Note_off_c, 0, 61, 103
1, 1131120, Note_on_c, 0, 62, 101
1, 1131364, Note_off_c, 0, 62, 101
1, 1131399, Note_on_c, 0, 61, 100
1, 1131548, Note_off_c, 0, 61, 100
1, 1134678, Note_on_c, 0, 67, 94
1, 1136207, Note_off_c, 0, 67, 94
1, 1136260, Note_on_c, 0, 65, 96
1, 1136600, Note_off_c, 0, 65, 96
1, 1136641, Note_on_c, 0, 62, 106
1, 1137202, Note_off_c, 0, 62, 106
1, 1137237, Note_on_c, 0, 59, 92
1, 1137631, Note_off_c, 0, 59, 92
1, 1141095, Note_on_c, 0, 67, 95
1, 1142839, Note_off_c, 0, 67, 95
1, 1143018, Note_on_c, 0, 62, 93
1, 1143304, Note_off_c, 0, 62, 93
1, 1143339, Note_on_c, 0, 67, 97
1, 1143733, Note_off_c, 0, 67, 97
1, 1143816, Note_on_c, 0, 70, 97
1, 1144084, Note_off_c, 0, 70, 97
1, 1144131, Note_on_c, 0, 71, 101
1, 1144411, Note_off_c, 0, 71, 101
1, 1144440, Note_on_c, 0, 70, 100
1, 1144541, Note_off_c, 0, 70, 100
1, 1144541, Note_on_c, 0, 67, 101
1, 1144994, Note_off_c, 0, 67, 101
1, 1145065, Note_on_c, 0, 65, 101
1, 1145465, Note_off_c, 0, 65, 101
1, 1145500, Note_on_c, 0, 67, 96
1, 1145703, Note_off_c, 0, 67, 96
1, 1145762, Note_on_c, 0, 69, 96
1, 1146114, Note_off_c, 0, 69, 96
1, 1146143, Note_on_c, 0, 67, 100
1, 1146573, Note_off_c, 0, 67, 100
1, 1146680, Note_on_c, 0, 65, 104
1, 1147145, Note_off_c, 0, 65, 104
1, 1147246, Note_on_c, 0, 67, 96
1, 1147550, Note_off_c, 0, 67, 96
1, 1147621, Note_on_c, 0, 69, 96
1, 1147925, Note_off_c, 0, 69, 96
1, 1148092, Note_on_c, 0, 62, 86
1, 1148324, Note_off_c, 0, 62, 86
1, 1148383, Note_on_c, 0, 67, 99
1, 1148777, Note_off_c, 0, 67, 99
1, 1148986, Note_on_c, 0, 62, 105
1, 1149284, Note_off_c, 0, 62, 105
1, 1149331, Note_on_c, 0, 59, 97
1, 1149647, Note_off_c, 0, 59, 97
1, 1149706, Note_on_c, 0, 55, 98
1, 1149998, Note_off_c, 0, 55, 98
1, 1150177, Note_on_c, 0, 50, 99
1, 1150571, Note_off_c, 0, 50, 99
1, 1150666, Note_on_c, 0, 53, 97
1, 1150892, Note_on_c, 0, 57, 97
1, 1150892, Note_off_c, 0, 53, 97
1, 1151202, Note_off_c, 0, 57, 97
1, 1151345, Note_on_c, 0, 67, 107
1, 1151679, Note_off_c, 0, 67, 107
1, 1151786, Note_on_c, 0, 69, 100
1, 1152060, Note_off_c, 0, 69, 100
1, 1152197, Note_on_c, 0, 67, 109
1, 1152603, Note_off_c, 0, 67, 109
1, 1152650, Note_on_c, 0, 62, 94
1, 1152990, Note_off_c, 0, 62, 94
1, 1153199, Note_on_c, 0, 67, 106
1, 1153575, Note_off_c, 0, 67, 106
1, 1153670, Note_on_c, 0, 60, 98
1, 1154064, Note_off_c, 0, 60, 98
1, 1154087, Note_on_c, 0, 65, 97
1, 1154385, Note_off_c, 0, 65, 97
1, 1154408, Note_on_c, 0, 69, 95
1, 1154593, Note_off_c, 0, 69, 95
1, 1154760, Note_on_c, 0, 74, 107
1, 1154969, Note_off_c, 0, 74, 107
1, 1154986, Note_on_c, 0, 73, 108
1, 1155099, Note_off_c, 0, 73, 108
1, 1155122, Note_on_c, 0, 67, 106
1, 1155510, Note_off_c, 0, 67, 106
1, 1157678, Note_on_c, 0, 62, 108
1, 1158143, Note_off_c, 0, 62, 108
1, 1158178, Note_on_c, 0, 67, 103
1, 1158399, Note_off_c, 0, 67, 103
1, 1158530, Note_on_c, 0, 71, 107
1, 1158918, Note_off_c, 0, 71, 107
1, 1160136, Note_on_c, 0, 65, 111
1, 1160601, Note_off_c, 0, 65, 111
1, 1160618, Note_on_c, 0, 69, 112
1, 1160952, Note_off_c, 0, 69, 112
1, 1160981, Note_on_c, 0, 72, 116
1, 1161345, Note_off_c, 0, 72, 116
1, 1161422, Note_on_c, 0, 65, 115
1, 1161935, Note_off_c, 0, 65, 115
1, 1164336, Note_on_c, 0, 67, 105
1, 1164676, Note_off_c, 0, 67, 105
1, 1164855, Note_on_c, 0, 71, 95
1, 1165129, Note_off_c, 0, 71, 95
1, 1165338, Note_on_c, 0, 74, 107
1, 1165905, Note_off_c, 0, 74, 107
1, 1165964, Note_on_c, 0, 73, 112
1, 1166304, Note_off_c, 0, 73, 112
1, 1166638, Note_on_c, 0, 74, 109
1, 1167139, Note_off_c, 0, 74, 109
1, 1167210, Note_on_c, 0, 71, 110
1, 1167586, Note_off_c, 0, 71, 110
1, 1167896, Note_on_c, 0, 72, 111
1, 1168326, Note_off_c, 0, 72, 111
1, 1168337, Note_on_c, 0, 71, 105
1, 1168785, Note_off_c, 0, 71, 105
1, 1169017, Note_on_c, 0, 72, 105
1, 1169536, Note_off_c, 0, 72, 105
1, 1169565, Note_on_c, 0, 70, 97
1, 1169666, Note_off_c, 0, 70, 97
1, 1169713, Note_on_c, 0, 69, 99
1, 1170137, Note_off_c, 0, 69, 99
1, 1170380, Note_on_c, 0, 67, 107
1, 1172026, Note_off_c, 0, 67, 107
1, 1172110, Note_on_c, 0, 68, 112
1, 1173210, Note_off_c, 0, 68, 112
1, 1173319, Note_on_c, 0, 67, 109
1, 1173617, Note_off_c, 0, 67, 109
1, 1173706, Note_on_c, 0, 67, 115
1, 1174106, Note_off_c, 0, 67, 115
1, 1174189, Note_on_c, 0, 65, 107
1, 1174386, Note_off_c, 0, 65, 107
1, 1174607, Note_on_c, 0, 69, 101
1, 1174875, Note_off_c, 0, 69, 101
1, 1174928, Note_on_c, 0, 72, 105
1, 1175262, Note_off_c, 0, 72, 105
1, 1175262, Note_on_c, 0, 69, 104
1, 1175614, Note_off_c, 0, 69, 104
1, 1177824, Note_on_c, 0, 67, 100
1, 1178158, Note_off_c, 0, 67, 100
1, 1178283, Note_on_c, 0, 71, 101
1, 1178635, Note_off_c, 0, 71, 101
1, 1178635, Note_on_c, 0, 74, 104
1, 1178969, Note_off_c, 0, 74, 104
1, 1179130, Note_on_c, 0, 74, 99
1, 1179452, Note_off_c, 0, 74, 99
1, 1179493, Note_on_c, 0, 69, 93
1, 1179815, Note_off_c, 0, 69, 93
1, 1179946, Note_on_c, 0, 74, 106
1, 1180220, Note_off_c, 0, 74, 106
1, 1180285, Note_on_c, 0, 71, 103
1, 1180840, Note_off_c, 0, 71, 103
1, 1182124, Note_on_c, 0, 71, 110
1, 1182458, Note_off_c, 0, 71, 110
1, 1182463, Note_on_c, 0, 72, 111
1, 1182791, Note_off_c, 0, 72, 111
1, 1182844, Note_on_c, 0, 71, 109
1, 1182987, Note_off_c, 0, 71, 109
1, 1182987, Note_on_c, 0, 69, 106
1, 1183303, Note_off_c, 0, 69, 106
1, 1183434, Note_on_c, 0, 65, 106
1, 1183798, Note_off_c, 0, 65, 106
1, 1183803, Note_on_c, 0, 63, 110
1, 1184274, Note_off_c, 0, 63, 110
1, 1184315, Note_on_c, 0, 68, 101
1, 1184619, Note_off_c, 0, 68, 101
1, 1184762, Note_on_c, 0, 72, 105
1, 1185048, Note_off_c, 0, 72, 105
1, 1185143, Note_on_c, 0, 73, 100
1, 1185274, Note_off_c, 0, 73, 100
1, 1185333, Note_on_c, 0, 61, 108
1, 1185619, Note_off_c, 0, 61, 108
1, 1187243, Note_on_c, 0, 61, 102
1, 1187565, Note_off_c, 0, 61, 102
1, 1187714, Note_on_c, 0, 66, 100
1, 1187970, Note_off_c, 0, 66, 100
1, 1188047, Note_on_c, 0, 70, 98
1, 1188345, Note_off_c, 0, 70, 98
1, 1188452, Note_on_c, 0, 72, 102
1, 1188708, Note_off_c, 0, 72, 102
1, 1188708, Note_on_c, 0, 70, 100
1, 1189161, Note_off_c, 0, 70, 100
1, 1190510, Note_on_c, 0, 70, 104
1, 1190874, Note_off_c, 0, 70, 104
1, 1190909, Note_on_c, 0, 66, 101
1, 1191189, Note_off_c, 0, 66, 101
1, 1191248, Note_on_c, 0, 61, 96
1, 1191630, Note_off_c, 0, 61, 96
1, 1191731, Note_on_c, 0, 58, 99
1, 1192041, Note_off_c, 0, 58, 99
1, 1192106, Note_on_c, 0, 63, 113
1, 1192619, Note_off_c, 0, 63, 113
1, 1193837, Note_on_c, 0, 63, 111
1, 1194231, Note_off_c, 0, 63, 111
1, 1194231, Note_on_c, 0, 65, 97
1, 1194326, Note_off_c, 0, 65, 97
1, 1194373, Note_on_c, 0, 68, 95
1, 1194779, Note_off_c, 0, 68, 95
1, 1194898, Note_on_c, 0, 72, 92
1, 1195130, Note_off_c, 0, 72, 92
1, 1195141, Note_on_c, 0, 71, 100
1, 1195224, Note_off_c, 0, 71, 100
1, 1195241, Note_on_c, 0, 70, 101
1, 1195497, Note_off_c, 0, 70, 101
1, 1195550, Note_on_c, 0, 60, 94
1, 1196021, Note_off_c, 0, 60, 94
1, 1196122, Note_on_c, 0, 65, 98
1, 1196366, Note_off_c, 0, 65, 98
1, 1196401, Note_on_c, 0, 68, 91
1, 1196705, Note_off_c, 0, 68, 91
1, 1196866, Note_on_c, 0, 73, 99
1, 1197057, Note_off_c, 0, 73, 99
1, 1197158, Note_on_c, 0, 70, 106
1, 1197570, Note_off_c, 0, 70, 106
1, 1198621, Note_on_c, 0, 69, 102
1, 1198730, Note_off_c, 0, 69, 102
1, 1198829, Note_on_c, 0, 66, 102
1, 1199149, Note_on_c, 0, 61, 93
1, 1199149, Note_off_c, 0, 66, 102
1, 1199426, Note_off_c, 0, 61, 93
1, 1200190, Note_on_c, 0, 67, 99
1, 1200492, Note_off_c, 0, 67, 99
1, 1200567, Note_on_c, 0, 63, 100
1, 1201239, Note_off_c, 0, 63, 100
1, 1201927, Note_on_c, 0, 67, 103
1, 1202100, Note_off_c, 0, 67, 103
1, 1202153, Note_on_c, 0, 63, 100
1, 1202200, Note_off_c, 0, 63, 100
1, 1202200, Note_on_c, 0, 60, 103
1, 1202564, Note_off_c, 0, 60, 103
1, 1203603, Note_on_c, 0, 68, 107
1, 1203871, Note_off_c, 0, 68, 107
1, 1203900, Note_on_c, 0, 66, 99
1, 1204371, Note_off_c, 0, 66, 99
1, 1204460, Note_on_c, 0, 61, 99
1, 1204776, Note_off_c, 0, 61, 99
1, 1204793, Note_on_c, 0, 58, 99
1, 1205103, Note_off_c, 0, 58, 99
1, 1205240, Note_on_c, 0, 54, 100
1, 1205550, Note_off_c, 0, 54, 100
1, 1205585, Note_on_c, 0, 51, 99
1, 1206032, Note_off_c, 0, 51, 99
1, 1207340, Note_on_c, 0, 51, 101
1, 1207620, Note_off_c, 0, 51, 101
1, 1207686, Note_on_c, 0, 54, 103
1, 1207978, Note_off_c, 0, 54, 103
1, 1208120, Note_on_c, 0, 58, 104
1, 1208388, Note_off_c, 0, 58, 104
1, 1208579, Note_on_c, 0, 60, 102
1, 1208859, Note_off_c, 0, 60, 102
1, 1208864, Note_on_c, 0, 67, 103
1, 1209300, Note_off_c, 0, 67, 103
1, 1209377, Note_on_c, 0, 67, 109
1, 1209807, Note_off_c, 0, 67, 109
1, 1209908, Note_on_c, 0, 63, 93
1, 1210111, Note_off_c, 0, 63, 93
1, 1210272, Note_on_c, 0, 68, 96
1, 1210570, Note_off_c, 0, 68, 96
1, 1210593, Note_on_c, 0, 62, 101
1, 1211052, Note_off_c, 0, 62, 101
1, 1211965, Note_on_c, 0, 71, 103
1, 1212293, Note_off_c, 0, 71, 103
1, 1212298, Note_on_c, 0, 66, 89
1, 1212626, Note_off_c, 0, 66, 89
1, 1213665, Note_on_c, 0, 71, 107
1, 1213981, Note_off_c, 0, 71, 107
1, 1214046, Note_on_c, 0, 72, 104
1, 1214404, Note_off_c, 0, 72, 104
1, 1215742, Note_on_c, 0, 71, 105
1, 1216231, Note_off_c, 0, 71, 105
1, 1217473, Note_on_c, 0, 67, 101
1, 1217837, Note_off_c, 0, 67, 101
1, 1217962, Note_on_c, 0, 62, 99
1, 1218326, Note_off_c, 0, 62, 99
1, 1218361, Note_on_c, 0, 67, 97
1, 1218677, Note_off_c, 0, 67, 97
1, 1218677, Note_on_c, 0, 71, 107
1, 1218903, Note_off_c, 0, 71, 107
1, 1218920, Note_on_c, 0, 70, 111
1, 1219039, Note_off_c, 0, 70, 111
1, 1219039, Note_on_c, 0, 67, 108
1, 1219630, Note_off_c, 0, 67, 108
1, 1220920, Note_on_c, 0, 60, 97
1, 1221266, Note_off_c, 0, 60, 97
1, 1221295, Note_on_c, 0, 65, 99
1, 1221551, Note_off_c, 0, 65, 99
1, 1221562, Note_on_c, 0, 69, 95
1, 1222015, Note_off_c, 0, 69, 95
1, 1222056, Note_on_c, 0, 71, 105
1, 1222444, Note_off_c, 0, 71, 105
1, 1222521, Note_on_c, 0, 62, 104
1, 1222873, Note_off_c, 0, 62, 104
1, 1222950, Note_on_c, 0, 67, 100
1, 1223409, Note_off_c, 0, 67, 100
1, 1223928, Note_on_c, 0, 71, 101
1, 1224214, Note_off_c, 0, 71, 101
1, 1224231, Note_on_c, 0, 67, 100
1, 1224726, Note_off_c, 0, 67, 100
1, 1225920, Note_on_c, 0, 62, 100
1, 1226176, Note_off_c, 0, 62, 100
1, 1226265, Note_on_c, 0, 67, 98
1, 1226683, Note_off_c, 0, 67, 98
1, 1226683, Note_on_c, 0, 71, 105
1, 1227113, Note_off_c, 0, 71, 105
1, 1227250, Note_on_c, 0, 62, 101
1, 1227763, Note_off_c, 0, 62, 101
1, 1228605, Note_on_c, 0, 60, 96
1, 1228921, Note_off_c, 0, 60, 96
1, 1228944, Note_on_c, 0, 67, 63
1, 1229182, Note_off_c, 0, 67, 63
1, 1229182, Note_on_c, 0, 69, 101
1, 1229498, Note_off_c, 0, 69, 101
1, 1229539, Note_on_c, 0, 66, 111
1, 1230172, Note_off_c, 0, 66, 111
1, 1231928, Note_on_c, 0, 62, 102
1, 1232232, Note_off_c, 0, 62, 102
1, 1232339, Note_on_c, 0, 67, 95
1, 1232571, Note_off_c, 0, 67, 95
1, 1232571, Note_on_c, 0, 71, 101
1, 1233036, Note_off_c, 0, 71, 101
1, 1233053, Note_on_c, 0, 67, 100
1, 1233477, Note_off_c, 0, 67, 100
1, 1233626, Note_on_c, 0, 65, 96
1, 1233882, Note_off_c, 0, 65, 96
1, 1233971, Note_on_c, 0, 69, 93
1, 1234239, Note_off_c, 0, 69, 93
1, 1234262, Note_on_c, 0, 68, 101
1, 1234530, Note_off_c, 0, 68, 101
1, 1234553, Note_on_c, 0, 62, 94
1, 1234774, Note_off_c, 0, 62, 94
1, 1236792, Note_on_c, 0, 71, 99
1, 1237257, Note_off_c, 0, 71, 99
1, 1237346, Note_on_c, 0, 62, 93
1, 1237602, Note_off_c, 0, 62, 93
1, 1237745, Note_on_c, 0, 67, 92
1, 1238652, Note_off_c, 0, 67, 92
1, 1238652, Note_on_c, 0, 71, 98
1, 1239052, Note_off_c, 0, 71, 98
1, 1239547, Note_on_c, 0, 67, 92
1, 1240216, Note_off_c, 0, 67, 92
1, 1240269, Note_on_c, 0, 71, 97
1, 1240460, Note_off_c, 0, 71, 97
1, 1240507, Note_on_c, 0, 70, 99
1, 1240608, Note_off_c, 0, 70, 99
1, 1240643, Note_on_c, 0, 67, 101
1, 1241091, Note_off_c, 0, 67, 101
1, 1241091, Note_on_c, 0, 65, 99
1, 1241986, Note_off_c, 0, 65, 99
1, 1241986, Note_on_c, 0, 69, 99
1, 1242212, Note_off_c, 0, 69, 99
1, 1242295, Note_on_c, 0, 67, 98
1, 1242719, Note_off_c, 0, 67, 98
1, 1242790, Note_on_c, 0, 65, 98
1, 1243363, Note_off_c, 0, 65, 98
1, 1243560, Note_on_c, 0, 69, 91
1, 1243888, Note_off_c, 0, 69, 91
1, 1244055, Note_on_c, 0, 62, 91
1, 1244407, Note_off_c, 0, 62, 91
1, 1244460, Note_on_c, 0, 67, 88
1, 1245206, Note_off_c, 0, 67, 88
1, 1245313, Note_on_c, 0, 71, 95
1, 1245695, Note_off_c, 0, 71, 95
1, 1246226, Note_on_c, 0, 67, 93
1, 1246996, Note_off_c, 0, 67, 93
1, 1247085, Note_on_c, 0, 71, 93
1, 1247544, Note_off_c, 0, 71, 93
1, 1247669, Note_on_c, 0, 67, 80
1, 1247884, Note_off_c, 0, 67, 80
1, 1247979, Note_on_c, 0, 69, 93
1, 1248797, Note_off_c, 0, 69, 93
1, 1248892, Note_on_c, 0, 72, 86
1, 1249555, Note_off_c, 0, 72, 86
1, 1249740, Note_on_c, 0, 69, 92
1, 1250391, Note_off_c, 0, 69, 92
1, 1250414, Note_on_c, 0, 72, 92
1, 1250730, Note_off_c, 0, 72, 92
1, 1250980, Note_on_c, 0, 62, 94
1, 1251236, Note_off_c, 0, 62, 94
1, 1251295, Note_on_c, 0, 67, 94
1, 1252089, Note_off_c, 0, 67, 94
1, 1252136, Note_on_c, 0, 71, 98
1, 1252470, Note_off_c, 0, 71, 98
1, 1252505, Note_on_c, 0, 69, 99
1, 1252785, Note_off_c, 0, 69, 99
1, 1252802, Note_on_c, 0, 62, 93
1, 1253028, Note_on_c, 0, 67, 93
1, 1253028, Note_off_c, 0, 62, 93
1, 1253720, Note_off_c, 0, 67, 93
1, 1253767, Note_on_c, 0, 71, 99
1, 1254095, Note_off_c, 0, 71, 99
1, 1254178, Note_on_c, 0, 67, 101
1, 1254596, Note_on_c, 0, 65, 98
1, 1254596, Note_off_c, 0, 67, 101
1, 1255408, Note_off_c, 0, 65, 98
1, 1255479, Note_on_c, 0, 69, 92
1, 1255664, Note_off_c, 0, 69, 92
1, 1255675, Note_on_c, 0, 67, 107
1, 1256182, Note_off_c, 0, 67, 107
1, 1256229, Note_on_c, 0, 65, 99
1, 1256605, Note_off_c, 0, 65, 99
1, 1256676, Note_on_c, 0, 60, 95
1, 1257088, Note_off_c, 0, 60, 95
1, 1257105, Note_on_c, 0, 57, 99
1, 1257331, Note_off_c, 0, 57, 99
1, 1257390, Note_on_c, 0, 53, 99
1, 1257915, Note_off_c, 0, 53, 99
1, 1261714, Note_on_c, 0, 62, 103
1, 1262126, Note_off_c, 0, 62, 103
1, 1262137, Note_on_c, 0, 59, 96
1, 1262369, Note_off_c, 0, 59, 96
1, 1262422, Note_on_c, 0, 55, 100
1, 1262834, Note_off_c, 0, 55, 100
1, 1262893, Note_on_c, 0, 53, 102
1, 1263352, Note_off_c, 0, 53, 102
1, 1263357, Note_on_c, 0, 52, 99
1, 1263793, Note_off_c, 0, 52, 99
1, 1266737, Note_on_c, 0, 62, 101
1, 1267065, Note_off_c, 0, 62, 101
1, 1267166, Note_on_c, 0, 59, 98
1, 1267392, Note_off_c, 0, 59, 98
1, 1267559, Note_on_c, 0, 55, 101
1, 1267917, Note_off_c, 0, 55, 101
1, 1267940, Note_on_c, 0, 53, 101
1, 1268399, Note_off_c, 0, 53, 101
1, 1268399, Note_on_c, 0, 52, 104
1, 1268930, Note_off_c, 0, 52, 104
1, 1269503, Note_on_c, 0, 52, 103
1, 1269951, Note_off_c, 0, 52, 103
1, 1269968, Note_on_c, 0, 53, 102
1, 1270278, Note_off_c, 0, 53, 102
1, 1270391, Note_on_c, 0, 57, 96
1, 1270606, Note_off_c, 0, 57, 96
1, 1270731, Note_on_c, 0, 60, 96
1, 1271083, Note_off_c, 0, 60, 96
1, 1271094, Note_on_c, 0, 55, 95
1, 1271655, Note_off_c, 0, 55, 95
1, 1272819, Note_on_c, 0, 55, 102
1, 1273392, Note_off_c, 0, 55, 102
1, 1273469, Note_on_c, 0, 57, 97
1, 1273934, Note_off_c, 0, 57, 97
1, 1274065, Note_on_c, 0, 62, 101
1, 1274327, Note_off_c, 0, 62, 101
1, 1274368, Note_on_c, 0, 68, 95
1, 1274577, Note_off_c, 0, 68, 95
1, 1274714, Note_on_c, 0, 67, 105
1, 1275173, Note_off_c, 0, 67, 105
1, 1275202, Note_on_c, 0, 68, 111
1, 1275685, Note_off_c, 0, 68, 111
1, 1275774, Note_on_c, 0, 65, 102
1, 1276036, Note_off_c, 0, 65, 102
1, 1276047, Note_on_c, 0, 64, 108
1, 1276727, Note_off_c, 0, 64, 108
1, 1277873, Note_on_c, 0, 64, 111
1, 1278350, Note_off_c, 0, 64, 111
1, 1278373, Note_on_c, 0, 65, 104
1, 1278558, Note_off_c, 0, 65, 104
1, 1278611, Note_on_c, 0, 67, 100
1, 1279094, Note_off_c, 0, 67, 100
1, 1279207, Note_on_c, 0, 69, 98
1, 1279439, Note_off_c, 0, 69, 98
1, 1279439, Note_on_c, 0, 66, 94
1, 1279558, Note_off_c, 0, 66, 94
1, 1279581, Note_on_c, 0, 62, 103
1, 1280034, Note_off_c, 0, 62, 103
1, 1280034, Note_on_c, 0, 64, 106
1, 1280410, Note_off_c, 0, 64, 106
1, 1280469, Note_on_c, 0, 65, 101
1, 1280737, Note_off_c, 0, 65, 101
1, 1280772, Note_on_c, 0, 61, 91
1, 1281118, Note_off_c, 0, 61, 91
1, 1281171, Note_on_c, 0, 62, 104
1, 1281774, Note_off_c, 0, 62, 104
1, 1282938, Note_on_c, 0, 60, 99
1, 1283212, Note_off_c, 0, 60, 99
1, 1283241, Note_on_c, 0, 62, 102
1, 1283694, Note_off_c, 0, 62, 102
1, 1283747, Note_on_c, 0, 64, 110
1, 1284105, Note_off_c, 0, 64, 110
1, 1284182, Note_on_c, 0, 60, 91
1, 1284564, Note_off_c, 0, 60, 91
1, 1284569, Note_on_c, 0, 62, 104
1, 1284963, Note_off_c, 0, 62, 104
1, 1284980, Note_on_c, 0, 64, 103
1, 1285368, Note_off_c, 0, 64, 103
1, 1285397, Note_on_c, 0, 65, 100
1, 1285743, Note_off_c, 0, 65, 100
1, 1285820, Note_on_c, 0, 67, 101
1, 1286130, Note_off_c, 0, 67, 101
1, 1286165, Note_on_c, 0, 64, 104
1, 1286636, Note_off_c, 0, 64, 104
1, 1286659, Note_on_c, 0, 65, 103
1, 1286981, Note_off_c, 0, 65, 103
1, 1286986, Note_on_c, 0, 69, 101
1, 1287410, Note_off_c, 0, 69, 101
1, 1287565, Note_on_c, 0, 72, 102
1, 1287899, Note_off_c, 0, 72, 102
1, 1287970, Note_on_c, 0, 64, 101
1, 1288352, Note_off_c, 0, 64, 101
1, 1289630, Note_on_c, 0, 64, 102
1, 1290101, Note_off_c, 0, 64, 102
1, 1290136, Note_on_c, 0, 65, 97
1, 1290434, Note_off_c, 0, 65, 97
1, 1290535, Note_on_c, 0, 69, 99
1, 1290887, Note_on_c, 0, 71, 105
1, 1290887, Note_off_c, 0, 69, 99
1, 1291173, Note_off_c, 0, 71, 105
1, 1291173, Note_on_c, 0, 65, 102
1, 1291668, Note_off_c, 0, 65, 102
1, 1291691, Note_on_c, 0, 66, 99
1, 1292037, Note_off_c, 0, 66, 99
1, 1292037, Note_on_c, 0, 68, 99
1, 1292252, Note_off_c, 0, 68, 99
1, 1292431, Note_on_c, 0, 70, 104
1, 1292681, Note_off_c, 0, 70, 104
1, 1292681, Note_on_c, 0, 69, 108
1, 1292830, Note_off_c, 0, 69, 108
1, 1292830, Note_on_c, 0, 63, 116
1, 1293307, Note_off_c, 0, 63, 116
1, 1293348, Note_on_c, 0, 65, 101
1, 1293766, Note_off_c, 0, 65, 101
1, 1293771, Note_on_c, 0, 61, 95
1, 1294093, Note_off_c, 0, 61, 95
1, 1294134, Note_on_c, 0, 60, 98
1, 1294462, Note_off_c, 0, 60, 98
1, 1296194, Note_on_c, 0, 60, 103
1, 1296546, Note_off_c, 0, 60, 103
1, 1296575, Note_on_c, 0, 61, 101
1, 1296861, Note_off_c, 0, 61, 101
1, 1296926, Note_on_c, 0, 63, 104
1, 1297385, Note_off_c, 0, 63, 104
1, 1297456, Note_on_c, 0, 65, 103
1, 1297808, Note_off_c, 0, 65, 103
1, 1297808, Note_on_c, 0, 63, 110
1, 1298261, Note_off_c, 0, 63, 110
1, 1298284, Note_on_c, 0, 62, 103
1, 1298684, Note_off_c, 0, 62, 103
1, 1298695, Note_on_c, 0, 61, 100
1, 1299065, Note_off_c, 0, 61, 100
1, 1299214, Note_on_c, 0, 60, 100
1, 1299494, Note_off_c, 0, 60, 100
1, 1299499, Note_on_c, 0, 58, 98
1, 1299947, Note_off_c, 0, 58, 98
1, 1301368, Note_on_c, 0, 58, 101
1, 1301678, Note_off_c, 0, 58, 101
1, 1301725, Note_on_c, 0, 53, 95
1, 1302394, Note_off_c, 0, 53, 95
1, 1302394, Note_on_c, 0, 54, 97
1, 1302615, Note_off_c, 0, 54, 97
1, 1302680, Note_on_c, 0, 56, 95
1, 1302990, Note_off_c, 0, 56, 95
1, 1303025, Note_on_c, 0, 58, 97
1, 1303365, Note_off_c, 0, 58, 97
1, 1304565, Note_on_c, 0, 58, 98
1, 1304947, Note_off_c, 0, 58, 98
1, 1304976, Note_on_c, 0, 57, 100
1, 1305370, Note_off_c, 0, 57, 100
1, 1305387, Note_on_c, 0, 58, 97
1, 1305811, Note_off_c, 0, 58, 97
1, 1305864, Note_on_c, 0, 60, 99
1, 1306192, Note_off_c, 0, 60, 99
1, 1306227, Note_on_c, 0, 61, 103
1, 1306675, Note_off_c, 0, 61, 103
1, 1306728, Note_on_c, 0, 63, 112
1, 1307050, Note_off_c, 0, 63, 112
1, 1307103, Note_on_c, 0, 65, 100
1, 1307347, Note_off_c, 0, 65, 100
1, 1307484, Note_on_c, 0, 60, 93
1, 1307854, Note_off_c, 0, 60, 93
1, 1307854, Note_on_c, 0, 63, 108
1, 1308194, Note_off_c, 0, 63, 108
1, 1309645, Note_on_c, 0, 63, 107
1, 1310188, Note_off_c, 0, 63, 107
1, 1310211, Note_on_c, 0, 65, 99
1, 1310712, Note_off_c, 0, 65, 99
1, 1310783, Note_on_c, 0, 67, 91
1, 1310938, Note_off_c, 0, 67, 91
1, 1310973, Note_on_c, 0, 68, 89
1, 1311182, Note_off_c, 0, 68, 89
1, 1311265, Note_on_c, 0, 70, 89
1, 1311575, Note_off_c, 0, 70, 89
1, 1311658, Note_on_c, 0, 72, 94
1, 1311902, Note_off_c, 0, 72, 94
1, 1311925, Note_on_c, 0, 71, 92
1, 1312008, Note_off_c, 0, 71, 92
1, 1312085, Note_on_c, 0, 68, 90
1, 1312401, Note_off_c, 0, 68, 90
1, 1312401, Note_on_c, 0, 66, 91
1, 1312801, Note_off_c, 0, 66, 91
1, 1312830, Note_on_c, 0, 65, 98
1, 1313355, Note_off_c, 0, 65, 98
1, 1314681, Note_on_c, 0, 65, 99
1, 1314973, Note_off_c, 0, 65, 99
1, 1314990, Note_on_c, 0, 66, 99
1, 1315390, Note_off_c, 0, 66, 99
1, 1315473, Note_on_c, 0, 68, 90
1, 1315741, Note_off_c, 0, 68, 90
1, 1315908, Note_on_c, 0, 70, 91
1, 1316212, Note_off_c, 0, 70, 91
1, 1316241, Note_on_c, 0, 66, 95
1, 1316575, Note_off_c, 0, 66, 95
1, 1317978, Note_on_c, 0, 66, 101
1, 1318384, Note_off_c, 0, 66, 101
1, 1318461, Note_on_c, 0, 69, 97
1, 1318729, Note_off_c, 0, 69, 97
1, 1318842, Note_on_c, 0, 70, 91
1, 1319134, Note_off_c, 0, 70, 91
1, 1319247, Note_on_c, 0, 72, 106
1, 1319629, Note_off_c, 0, 72, 106
1, 1319640, Note_on_c, 0, 70, 101
1, 1319795, Note_off_c, 0, 70, 101
1, 1319795, Note_on_c, 0, 69, 99
1, 1319992, Note_off_c, 0, 69, 99
1, 1320021, Note_on_c, 0, 67, 103
1, 1320445, Note_on_c, 0, 65, 102
1, 1320445, Note_off_c, 0, 67, 103
1, 1320827, Note_off_c, 0, 65, 102
1, 1320868, Note_on_c, 0, 64, 100
1, 1321286, Note_off_c, 0, 64, 100
1, 1321303, Note_on_c, 0, 65, 98
1, 1321750, Note_off_c, 0, 65, 98
1, 1323034, Note_on_c, 0, 65, 101
1, 1323362, Note_off_c, 0, 65, 101
1, 1323385, Note_on_c, 0, 64, 107
1, 1323797, Note_off_c, 0, 64, 107
1, 1323844, Note_on_c, 0, 65, 106
1, 1324190, Note_off_c, 0, 65, 106
1, 1324190, Note_on_c, 0, 61, 106
1, 1324542, Note_off_c, 0, 61, 106
1, 1324613, Note_on_c, 0, 62, 109
1, 1324959, Note_off_c, 0, 62, 109
1, 1326338, Note_on_c, 0, 62, 115
1, 1326744, Note_off_c, 0, 62, 115
1, 1326749, Note_on_c, 0, 61, 110
1, 1327029, Note_off_c, 0, 61, 110
1, 1327029, Note_on_c, 0, 62, 112
1, 1327477, Note_off_c, 0, 62, 112
1, 1327548, Note_on_c, 0, 64, 112
1, 1328013, Note_off_c, 0, 64, 112
1, 1328042, Note_on_c, 0, 65, 108
1, 1328430, Note_off_c, 0, 65, 108
1, 1328441, Note_on_c, 0, 62, 111
1, 1328996, Note_off_c, 0, 62, 111
1, 1328996, Note_on_c, 0, 59, 99
1, 1329342, Note_off_c, 0, 59, 99
1, 1329383, Note_on_c, 0, 58, 103
1, 1329586, Note_off_c, 0, 58, 103
1, 1329669, Note_on_c, 0, 57, 98
1, 1330099, Note_off_c, 0, 57, 98
1, 1332135, Note_on_c, 0, 57, 103
1, 1332493, Note_off_c, 0, 57, 103
1, 1332528, Note_on_c, 0, 59, 100
1, 1332880, Note_off_c, 0, 59, 100
1, 1332880, Note_on_c, 0, 61, 109
1, 1333244, Note_off_c, 0, 61, 109
1, 1333244, Note_on_c, 0, 62, 109
1, 1333644, Note_off_c, 0, 62, 109
1, 1333685, Note_on_c, 0, 64, 110
1, 1334121, Note_off_c, 0, 64, 110
1, 1334162, Note_on_c, 0, 66, 108
1, 1334490, Note_off_c, 0, 66, 108
1, 1334495, Note_on_c, 0, 62, 111
1, 1334954, Note_off_c, 0, 62, 111
1, 1334989, Note_on_c, 0, 60, 101
1, 1335365, Note_off_c, 0, 60, 101
1, 1335394, Note_on_c, 0, 59, 103
1, 1335680, Note_off_c, 0, 59, 103
1, 1335680, Note_on_c, 0, 55, 95
1, 1336050, Note_off_c, 0, 55, 95
1, 1336067, Note_on_c, 0, 57, 102
1, 1336592, Note_off_c, 0, 57, 102
1, 1338861, Note_on_c, 0, 53, 107
1, 1339237, Note_off_c, 0, 53, 107
1, 1339237, Note_on_c, 0, 55, 106
1, 1339428, Note_off_c, 0, 55, 106
1, 1339511, Note_on_c, 0, 57, 108
1, 1340819, Note_off_c, 0, 57, 108
1, 1340920, Note_on_c, 0, 59, 109
1, 1341200, Note_off_c, 0, 59, 109
1, 1341265, Note_on_c, 0, 60, 108
1, 1341545, Note_off_c, 0, 60, 108
1, 1341568, Note_on_c, 0, 62, 112
1, 1342010, Note_off_c, 0, 62, 112
1, 1342015, Note_on_c, 0, 64, 121
1, 1342558, Note_off_c, 0, 64, 121
1, 1342587, Note_on_c, 0, 60, 109
1, 1342861, Note_off_c, 0, 60, 109
1, 1342896, Note_on_c, 0, 62, 119
1, 1343481, Note_off_c, 0, 62, 119
1, 1345637, Note_on_c, 0, 62, 110
1, 1346120, Note_off_c, 0, 62, 110
1, 1346161, Note_on_c, 0, 65, 100
1, 1346364, Note_off_c, 0, 65, 100
1, 1346405, Note_on_c, 0, 69, 100
1, 1346769, Note_off_c, 0, 69, 100
1, 1348208, Note_on_c, 0, 68, 115
1, 1348626, Note_off_c, 0, 68, 115
1, 1348626, Note_on_c, 0, 72, 117
1, 1348930, Note_off_c, 0, 72, 117
1, 1348935, Note_on_c, 0, 71, 118
1, 1349347, Note_off_c, 0, 71, 118
1, 1349364, Note_on_c, 0, 69, 112
1, 1349716, Note_off_c, 0, 69, 112
1, 1349716, Note_on_c, 0, 67, 108
1, 1350134, Note_off_c, 0, 67, 108
1, 1350181, Note_on_c, 0, 65, 101
1, 1350294, Note_off_c, 0, 65, 101
1, 1350323, Note_on_c, 0, 67, 105
1, 1350585, Note_off_c, 0, 67, 105
1, 1350602, Note_on_c, 0, 69, 101
1, 1351127, Note_off_c, 0, 69, 101
1, 1353277, Note_on_c, 0, 62, 99
1, 1353593, Note_off_c, 0, 62, 99
1, 1353682, Note_on_c, 0, 65, 97
1, 1353903, Note_off_c, 0, 65, 97
1, 1353938, Note_on_c, 0, 69, 96
1, 1354415, Note_off_c, 0, 69, 96
1, 1354444, Note_on_c, 0, 72, 97
1, 1354754, Note_off_c, 0, 72, 97
1, 1354837, Note_on_c, 0, 67, 97
1, 1355255, Note_off_c, 0, 67, 97
1, 1355272, Note_on_c, 0, 69, 95
1, 1355618, Note_off_c, 0, 69, 95
1, 1355659, Note_on_c, 0, 71, 102
1, 1356160, Note_off_c, 0, 71, 102
1, 1356177, Note_on_c, 0, 67, 101
1, 1356535, Note_off_c, 0, 67, 101
1, 1356601, Note_on_c, 0, 65, 105
1, 1358003, Note_off_c, 0, 65, 105
1, 1358103, Note_on_c, 0, 65, 108
1, 1358531, Note_off_c, 0, 65, 108
1, 1358592, Note_on_c, 0, 67, 100
1, 1358956, Note_off_c, 0, 67, 100
1, 1358956, Note_on_c, 0, 69, 103
1, 1359290, Note_off_c, 0, 69, 103
1, 1359379, Note_on_c, 0, 71, 106
1, 1359731, Note_off_c, 0, 71, 106
1, 1359832, Note_on_c, 0, 64, 109
1, 1360351, Note_off_c, 0, 64, 109
1, 1360351, Note_on_c, 0, 65, 99
1, 1360601, Note_off_c, 0, 65, 99
1, 1360618, Note_on_c, 0, 67, 96
1, 1360994, Note_off_c, 0, 67, 96
1, 1361143, Note_on_c, 0, 69, 95
1, 1361459, Note_off_c, 0, 69, 95
1, 1361464, Note_on_c, 0, 62, 101
1, 1362025, Note_off_c, 0, 62, 101
1, 1363117, Note_on_c, 0, 62, 108
1, 1363654, Note_off_c, 0, 62, 108
1, 1363687, Note_on_c, 0, 64, 115
1, 1363972, Note_off_c, 0, 64, 115
1, 1364030, Note_on_c, 0, 65, 100
1, 1364416, Note_off_c, 0, 65, 100
1, 1364449, Note_on_c, 0, 66, 105
1, 1365095, Note_off_c, 0, 66, 105
1, 1365174, Note_on_c, 0, 68, 106
1, 1365520, Note_off_c, 0, 68, 106
1, 1365543, Note_on_c, 0, 64, 108
1, 1366068, Note_off_c, 0, 64, 108
1, 1366175, Note_on_c, 0, 60, 93
1, 1366533, Note_off_c, 0, 60, 93
1, 1366562, Note_on_c, 0, 62, 108
1, 1366914, Note_off_c, 0, 62, 108
1, 1366914, Note_on_c, 0, 60, 102
1, 1367218, Note_off_c, 0, 60, 102
1, 1367218, Note_on_c, 0, 59, 105
1, 1367725, Note_off_c, 0, 59, 105
1, 1367844, Note_on_c, 0, 55, 96
1, 1368118, Note_off_c, 0, 55, 96
1, 1368171, Note_on_c, 0, 57, 107
1, 1368535, Note_off_c, 0, 57, 107
1, 1368606, Note_on_c, 0, 53, 102
1, 1368994, Note_off_c, 0, 53, 102
1, 1369017, Note_on_c, 0, 50, 105
1, 1369494, Note_off_c, 0, 50, 105
1, 1369512, Note_on_c, 0, 55, 104
1, 1369872, Note_off_c, 0, 55, 104
1, 1369872, Note_on_c, 0, 53, 102
1, 1370191, Note_off_c, 0, 53, 102
1, 1370232, Note_on_c, 0, 50, 95
1, 1370500, Note_off_c, 0, 50, 95
1, 1372102, Note_on_c, 0, 72, 110
1, 1372532, Note_off_c, 0, 72, 110
1, 1372537, Note_on_c, 0, 71, 107
1, 1372913, Note_off_c, 0, 71, 107
1, 1373008, Note_on_c, 0, 69, 102
1, 1373754, Note_off_c, 0, 69, 102
1, 1373801, Note_on_c, 0, 67, 95
1, 1374571, Note_off_c, 0, 67, 95
1, 1376661, Note_on_c, 0, 67, 98
1, 1377073, Note_off_c, 0, 67, 98
1, 1377120, Note_on_c, 0, 69, 102
1, 1377412, Note_off_c, 0, 69, 102
1, 1377417, Note_on_c, 0, 71, 107
1, 1377882, Note_off_c, 0, 71, 107
1, 1377935, Note_on_c, 0, 67, 103
1, 1378436, Note_off_c, 0, 67, 103
1, 1378453, Note_on_c, 0, 65, 99
1, 1378966, Note_off_c, 0, 65, 99
1, 1378966, Note_on_c, 0, 67, 94
1, 1379282, Note_off_c, 0, 67, 94
1, 1379282, Note_on_c, 0, 69, 95
1, 1379592, Note_off_c, 0, 69, 95
1, 1379693, Note_on_c, 0, 65, 95
1, 1379973, Note_off_c, 0, 65, 95
1, 1379973, Note_on_c, 0, 62, 97
1, 1380450, Note_off_c, 0, 62, 97
1, 1382723, Note_on_c, 0, 66, 99
1, 1383092, Note_off_c, 0, 66, 99
1, 1383100, Note_on_c, 0, 67, 93
1, 1384536, Note_off_c, 0, 67, 93
1, 1384796, Note_on_c, 0, 62, 96
1, 1385076, Note_off_c, 0, 62, 96
1, 1385076, Note_on_c, 0, 67, 97
1, 1385297, Note_off_c, 0, 67, 97
1, 1385428, Note_on_c, 0, 69, 91
1, 1385660, Note_off_c, 0, 69, 91
1, 1385755, Note_on_c, 0, 72, 84
1, 1386167, Note_off_c, 0, 72, 84
1, 1386364, Note_on_c, 0, 71, 100
1, 1386758, Note_off_c, 0, 71, 100
1, 1386781, Note_on_c, 0, 60, 101
1, 1387097, Note_off_c, 0, 60, 101
1, 1387270, Note_on_c, 0, 65, 95
1, 1387538, Note_off_c, 0, 65, 95
1, 1387543, Note_on_c, 0, 69, 93
1, 1387967, Note_off_c, 0, 69, 93
1, 1388086, Note_on_c, 0, 72, 98
1, 1388336, Note_off_c, 0, 72, 98
1, 1388336, Note_on_c, 0, 70, 103
1, 1388479, Note_off_c, 0, 70, 103
1, 1388502, Note_on_c, 0, 69, 96
1, 1388627, Note_off_c, 0, 69, 96
1, 1388627, Note_on_c, 0, 71, 95
1, 1388883, Note_off_c, 0, 71, 95
1, 1391809, Note_on_c, 0, 70, 102
1, 1391970, Note_off_c, 0, 70, 102
1, 1391970, Note_on_c, 0, 71, 103
1, 1392167, Note_off_c, 0, 71, 103
1, 1392178, Note_on_c, 0, 72, 98
1, 1392279, Note_off_c, 0, 72, 98
1, 1392326, Note_on_c, 0, 74, 96
1, 1393425, Note_off_c, 0, 74, 96
1, 1393484, Note_on_c, 0, 71, 101
1, 1393818, Note_off_c, 0, 71, 101
1, 1393835, Note_on_c, 0, 74, 97
1, 1394844, Note_off_c, 0, 74, 97
1, 1394861, Note_on_c, 0, 71, 97
1, 1395147, Note_off_c, 0, 71, 97
1, 1395218, Note_on_c, 0, 74, 99
1, 1396060, Note_off_c, 0, 74, 99
1, 1396071, Note_on_c, 0, 71, 105
1, 1396513, Note_off_c, 0, 71, 105
1, 1396560, Note_on_c, 0, 62, 101
1, 1396954, Note_off_c, 0, 62, 101
1, 1396995, Note_on_c, 0, 65, 103
1, 1397628, Note_off_c, 0, 65, 103
1, 1400172, Note_on_c, 0, 72, 100
1, 1400440, Note_off_c, 0, 72, 100
1, 1400678, Note_on_c, 0, 75, 91
1, 1400845, Note_off_c, 0, 75, 91
1, 1401555, Note_on_c, 0, 75, 102
1, 1402988, Note_off_c, 0, 75, 102
1, 1403615, Note_on_c, 0, 70, 101
1, 1403991, Note_off_c, 0, 70, 101
1, 1404486, Note_on_c, 0, 81, 95
1, 1404689, Note_off_c, 0, 81, 95
1, 1404689, Note_on_c, 0, 82, 95
1, 1404904, Note_off_c, 0, 82, 95
1, 1406940, Note_on_c, 0, 72, 92
1, 1407202, Note_off_c, 0, 72, 92
1, 1407423, Note_on_c, 0, 75, 96
1, 1407757, Note_off_c, 0, 75, 96
1, 1408396, Note_on_c, 0, 75, 97
1, 1409507, Note_off_c, 0, 75, 97
1, 1409650, Note_on_c, 0, 72, 94
1, 1409948, Note_off_c, 0, 72, 94
1, 1409971, Note_on_c, 0, 73, 98
1, 1410323, Note_off_c, 0, 73, 98
1, 1410376, Note_on_c, 0, 68, 94
1, 1411307, Note_off_c, 0, 68, 94
1, 1414168, Note_on_c, 0, 75, 85
1, 1414418, Note_off_c, 0, 75, 85
1, 1415003, Note_on_c, 0, 75, 99
1, 1416556, Note_off_c, 0, 75, 99
1, 1416556, Note_on_c, 0, 74, 98
1, 1416747, Note_off_c, 0, 74, 98
1, 1416758, Note_on_c, 0, 73, 97
1, 1416859, Note_off_c, 0, 73, 97
1, 1416900, Note_on_c, 0, 72, 99
1, 1417276, Note_off_c, 0, 72, 99
1, 1418004, Note_on_c, 0, 75, 102
1, 1418368, Note_off_c, 0, 75, 102
1, 1419676, Note_on_c, 0, 82, 95
1, 1419879, Note_off_c, 0, 82, 95
1, 1419884, Note_on_c, 0, 83, 92
1, 1420045, Note_off_c, 0, 83, 92
1, 1420681, Note_on_c, 0, 75, 97
1, 1421537, Note_off_c, 0, 75, 97
1, 1422086, Note_on_c, 0, 75, 107
1, 1422982, Note_off_c, 0, 75, 107
1, 1422987, Note_on_c, 0, 72, 109
1, 1423387, Note_off_c, 0, 72, 109
1, 1423387, Note_on_c, 0, 73, 103
1, 1423769, Note_off_c, 0, 73, 103
1, 1423785, Note_on_c, 0, 68, 108
1, 1424935, Note_off_c, 0, 68, 108
1, 1427698, Note_on_c, 0, 75, 81
1, 1428000, Note_off_c, 0, 75, 81
1, 1428445, Note_on_c, 0, 74, 110
1, 1430066, Note_off_c, 0, 74, 110
1, 1430141, Note_on_c, 0, 72, 102
1, 1430435, Note_off_c, 0, 72, 102
1, 1430443, Note_on_c, 0, 71, 104
1, 1430753, Note_off_c, 0, 71, 104
1, 1431320, Note_on_c, 0, 74, 88
1, 1431654, Note_off_c, 0, 74, 88
1, 1433959, Note_on_c, 0, 74, 105
1, 1434592, Note_off_c, 0, 74, 105
1, 1434639, Note_on_c, 0, 74, 100
1, 1434836, Note_off_c, 0, 74, 100
1, 1435284, Note_on_c, 0, 81, 105
1, 1435469, Note_off_c, 0, 81, 105
1, 1435469, Note_on_c, 0, 82, 100
1, 1436299, Note_off_c, 0, 82, 100
1, 1436508, Note_on_c, 0, 71, 105
1, 1436932, Note_off_c, 0, 71, 105
1, 1437003, Note_on_c, 0, 62, 87
1, 1437235, Note_off_c, 0, 62, 87
1, 1437252, Note_on_c, 0, 65, 102
1, 1437974, Note_off_c, 0, 65, 102
1, 1440482, Note_on_c, 0, 66, 105
1, 1440780, Note_off_c, 0, 66, 105
1, 1441813, Note_on_c, 0, 80, 107
1, 1442057, Note_off_c, 0, 80, 107
1, 1442158, Note_on_c, 0, 74, 110
1, 1443609, Note_off_c, 0, 74, 110
1, 1443656, Note_on_c, 0, 73, 100
1, 1443894, Note_off_c, 0, 73, 100
1, 1443894, Note_on_c, 0, 71, 104
1, 1444228, Note_off_c, 0, 71, 104
1, 1444801, Note_on_c, 0, 74, 103
1, 1445422, Note_off_c, 0, 74, 103
1, 1447375, Note_on_c, 0, 74, 99
1, 1447793, Note_off_c, 0, 74, 99
1, 1447816, Note_on_c, 0, 75, 88
1, 1447959, Note_off_c, 0, 75, 88
1, 1448592, Note_on_c, 0, 74, 99
1, 1449685, Note_off_c, 0, 74, 99
1, 1449822, Note_on_c, 0, 71, 100
1, 1450174, Note_off_c, 0, 71, 100
1, 1450592, Note_on_c, 0, 67, 97
1, 1451631, Note_off_c, 0, 67, 97
1, 1456242, Note_on_c, 0, 68, 89
1, 1456755, Note_off_c, 0, 68, 89
1, 1456766, Note_on_c, 0, 69, 99
1, 1460600, Note_off_c, 0, 69, 99
1, 1460637, Note_on_c, 0, 68, 97
1, 1461015, Note_off_c, 0, 68, 97
1, 1461031, Note_on_c, 0, 69, 96
1, 1461593, Note_off_c, 0, 69, 96
1, 1462080, Note_on_c, 0, 69, 93
1, 1463676, Note_off_c, 0, 69, 93
1, 1463743, Note_on_c, 0, 70, 98
1, 1464062, Note_off_c, 0, 70, 98
1, 1464070, Note_on_c, 0, 69, 94
1, 1464406, Note_off_c, 0, 69, 94
1, 1464498, Note_on_c, 0, 65, 95
1, 1464716, Note_off_c, 0, 65, 95
1, 1464732, Note_on_c, 0, 62, 97
1, 1465278, Note_off_c, 0, 62, 97
1, 1465370, Note_on_c, 0, 59, 91
1, 1465680, Note_off_c, 0, 59, 91
1, 1465755, Note_on_c, 0, 68, 94
1, 1466376, Note_off_c, 0, 68, 94
1, 1466434, Note_on_c, 0, 67, 94
1, 1466921, Note_off_c, 0, 67, 94
1, 1467021, Note_on_c, 0, 71, 103
1, 1467289, Note_off_c, 0, 71, 103
1, 1467347, Note_on_c, 0, 69, 102
1, 1467859, Note_off_c, 0, 69, 102
1, 1467875, Note_on_c, 0, 66, 100
1, 1468244, Note_off_c, 0, 66, 100
1, 1468294, Note_on_c, 0, 65, 103
1, 1468546, Note_off_c, 0, 65, 103
1, 1468613, Note_on_c, 0, 64, 108
1, 1469108, Note_off_c, 0, 64, 108
1, 1469133, Note_on_c, 0, 63, 106
1, 1469494, Note_off_c, 0, 63, 106
1, 1469534, Note_on_c, 0, 65, 100
1, 1469695, Note_off_c, 0, 65, 100
1, 1469700, Note_on_c, 0, 66, 98
1, 1470094, Note_off_c, 0, 66, 98
1, 1470141, Note_on_c, 0, 67, 101
1, 1470379, Note_off_c, 0, 67, 101
1, 1470397, Note_on_c, 0, 70, 101
1, 1470671, Note_off_c, 0, 70, 101
1, 1470782, Note_on_c, 0, 71, 100
1, 1470933, Note_off_c, 0, 71, 100
1, 1470933, Note_on_c, 0, 64, 102
1, 1471201, Note_off_c, 0, 64, 102
1, 1471229, Note_on_c, 0, 66, 96
1, 1471587, Note_off_c, 0, 66, 96
1, 1471766, Note_on_c, 0, 68, 95
1, 1472070, Note_off_c, 0, 68, 95
1, 1472070, Note_on_c, 0, 70, 99
1, 1472386, Note_off_c, 0, 70, 99
1, 1472511, Note_on_c, 0, 66, 99
1, 1472941, Note_off_c, 0, 66, 99
1, 1472970, Note_on_c, 0, 63, 105
1, 1473370, Note_off_c, 0, 63, 105
1, 1473417, Note_on_c, 0, 59, 100
1, 1473673, Note_off_c, 0, 59, 100
1, 1473678, Note_on_c, 0, 58, 99
1, 1474084, Note_off_c, 0, 58, 99
1, 1474084, Note_on_c, 0, 57, 101
1, 1474526, Note_off_c, 0, 57, 101
1, 1474597, Note_on_c, 0, 56, 99
1, 1474841, Note_off_c, 0, 56, 99
1, 1474841, Note_on_c, 0, 55, 98
1, 1475372, Note_off_c, 0, 55, 98
1, 1475437, Note_on_c, 0, 59, 34
1, 1475729, Note_off_c, 0, 59, 34
1, 1475776, Note_on_c, 0, 57, 103
1, 1476062, Note_off_c, 0, 57, 103
1, 1476073, Note_on_c, 0, 62, 105
1, 1476526, Note_off_c, 0, 62, 105
1, 1476597, Note_on_c, 0, 65, 103
1, 1477062, Note_off_c, 0, 65, 103
1, 1477091, Note_on_c, 0, 69, 98
1, 1477300, Note_off_c, 0, 69, 98
1, 1477323, Note_on_c, 0, 74, 105
1, 1477621, Note_off_c, 0, 74, 105
1, 1477668, Note_on_c, 0, 72, 96
1, 1477996, Note_off_c, 0, 72, 96
1, 1483420, Note_on_c, 0, 69, 95
1, 1484814, Note_off_c, 0, 69, 95
1, 1484923, Note_on_c, 0, 67, 100
1, 1485259, Note_off_c, 0, 67, 100
1, 1485292, Note_on_c, 0, 65, 101
1, 1485644, Note_off_c, 0, 65, 101
1, 1485693, Note_on_c, 0, 62, 108
1, 1486230, Note_off_c, 0, 62, 108
1, 1486289, Note_on_c, 0, 59, 102
1, 1486515, Note_off_c, 0, 59, 102
1, 1490206, Note_on_c, 0, 57, 98
1, 1491992, Note_off_c, 0, 57, 98
1, 1491992, Note_on_c, 0, 55, 92
1, 1492195, Note_off_c, 0, 55, 92
1, 1492195, Note_on_c, 0, 53, 95
1, 1492840, Note_off_c, 0, 53, 95
1, 1494100, Note_on_c, 0, 61, 103
1, 1494524, Note_off_c, 0, 61, 103
1, 1494524, Note_on_c, 0, 60, 98
1, 1494804, Note_off_c, 0, 60, 98
1, 1494821, Note_on_c, 0, 59, 98
1, 1495209, Note_off_c, 0, 59, 98
1, 1495226, Note_on_c, 0, 58, 99
1, 1495584, Note_off_c, 0, 58, 99
1, 1495601, Note_on_c, 0, 57, 97
1, 1496037, Note_off_c, 0, 57, 97
1, 1496072, Note_on_c, 0, 56, 96
1, 1496412, Note_off_c, 0, 56, 96
1, 1496441, Note_on_c, 0, 55, 94
1, 1496865, Note_off_c, 0, 55, 94
1, 1496865, Note_on_c, 0, 58, 94
1, 1497062, Note_off_c, 0, 58, 94
1, 1497073, Note_on_c, 0, 59, 95
1, 1497246, Note_off_c, 0, 59, 95
1, 1497305, Note_on_c, 0, 57, 92
1, 1497663, Note_off_c, 0, 57, 92
1, 1497734, Note_on_c, 0, 62, 101
1, 1498205, Note_off_c, 0, 62, 101
1, 1498276, Note_on_c, 0, 65, 91
1, 1498514, Note_off_c, 0, 65, 91
1, 1498585, Note_on_c, 0, 69, 83
1, 1498919, Note_off_c, 0, 69, 83
1, 1498919, Note_on_c, 0, 72, 100
1, 1499265, Note_off_c, 0, 72, 100
1, 1499342, Note_on_c, 0, 72, 95
1, 1499718, Note_off_c, 0, 72, 95
1, 1499765, Note_on_c, 0, 69, 94
1, 1500111, Note_off_c, 0, 69, 94
1, 1500188, Note_on_c, 0, 72, 100
1, 1500522, Note_off_c, 0, 72, 100
1, 1500527, Note_on_c, 0, 67, 99
1, 1501094, Note_off_c, 0, 67, 99
1, 1504068, Note_on_c, 0, 67, 97
1, 1505208, Note_off_c, 0, 67, 97
1, 1505279, Note_on_c, 0, 63, 99
1, 1505697, Note_off_c, 0, 63, 99
1, 1505697, Note_on_c, 0, 68, 100
1, 1506025, Note_off_c, 0, 68, 100
1, 1506090, Note_on_c, 0, 66, 96
1, 1506430, Note_off_c, 0, 66, 96
1, 1506495, Note_on_c, 0, 63, 106
1, 1506966, Note_off_c, 0, 63, 106
1, 1507031, Note_on_c, 0, 58, 94
1, 1507371, Note_off_c, 0, 58, 94
1, 1507412, Note_on_c, 0, 66, 105
1, 1507722, Note_off_c, 0, 66, 105
1, 1507722, Note_on_c, 0, 65, 75
1, 1508152, Note_off_c, 0, 65, 75
1, 1509149, Note_on_c, 0, 60, 103
1, 1509531, Note_off_c, 0, 60, 103
1, 1509566, Note_on_c, 0, 65, 106
1, 1509888, Note_off_c, 0, 65, 106
1, 1509917, Note_on_c, 0, 68, 107
1, 1510305, Note_off_c, 0, 68, 107
1, 1510334, Note_on_c, 0, 70, 109
1, 1510752, Note_off_c, 0, 70, 109
1, 1510752, Note_on_c, 0, 68, 114
1, 1510955, Note_off_c, 0, 68, 114
1, 1511014, Note_on_c, 0, 62, 106
1, 1511354, Note_off_c, 0, 62, 106
1, 1511371, Note_on_c, 0, 61, 103
1, 1511603, Note_off_c, 0, 61, 103
1, 1511632, Note_on_c, 0, 59, 102
1, 1512062, Note_off_c, 0, 59, 102
1, 1512097, Note_on_c, 0, 56, 99
1, 1512443, Note_on_c, 0, 57, 103
1, 1512443, Note_off_c, 0, 56, 99
1, 1512831, Note_off_c, 0, 57, 103
1, 1512908, Note_on_c, 0, 59, 104
1, 1513140, Note_off_c, 0, 59, 104
1, 1513211, Note_on_c, 0, 61, 98
1, 1513694, Note_off_c, 0, 61, 98
1, 1513735, Note_on_c, 0, 62, 105
1, 1514212, Note_off_c, 0, 62, 105
1, 1514212, Note_on_c, 0, 64, 107
1, 1514558, Note_off_c, 0, 64, 107
1, 1514599, Note_on_c, 0, 65, 105
1, 1514957, Note_off_c, 0, 65, 105
1, 1514957, Note_on_c, 0, 67, 101
1, 1515369, Note_off_c, 0, 67, 101
1, 1515446, Note_on_c, 0, 69, 106
1, 1515816, Note_off_c, 0, 69, 106
1, 1515833, Note_on_c, 0, 70, 103
1, 1516298, Note_off_c, 0, 70, 103
1, 1516375, Note_on_c, 0, 70, 96
1, 1516799, Note_off_c, 0, 70, 96
1, 1516804, Note_on_c, 0, 69, 101
1, 1517317, Note_off_c, 0, 69, 101
1, 1517322, Note_on_c, 0, 67, 99
1, 1517560, Note_off_c, 0, 67, 99
1, 1517631, Note_on_c, 0, 65, 95
1, 1518001, Note_off_c, 0, 65, 95
1, 1518204, Note_on_c, 0, 67, 97
1, 1518430, Note_off_c, 0, 67, 97
1, 1518459, Note_on_c, 0, 69, 92
1, 1518685, Note_off_c, 0, 69, 92
1, 1518708, Note_on_c, 0, 71, 103
1, 1518976, Note_off_c, 0, 71, 103
1, 1519023, Note_on_c, 0, 70, 93
1, 1519291, Note_off_c, 0, 70, 93
1, 1519291, Note_on_c, 0, 63, 100
1, 1519613, Note_off_c, 0, 63, 100
1, 1519636, Note_on_c, 0, 66, 100
1, 1519928, Note_off_c, 0, 66, 100
1, 1519939, Note_on_c, 0, 65, 100
1, 1520387, Note_off_c, 0, 65, 100
1, 1520440, Note_on_c, 0, 64, 107
1, 1520792, Note_off_c, 0, 64, 107
1, 1520839, Note_on_c, 0, 63, 111
1, 1521292, Note_off_c, 0, 63, 111
1, 1521333, Note_on_c, 0, 62, 99
1, 1521709, Note_off_c, 0, 62, 99
1, 1521768, Note_on_c, 0, 61, 100
1, 1521983, Note_off_c, 0, 61, 100
1, 1522012, Note_on_c, 0, 60, 93
1, 1522436, Note_off_c, 0, 60, 93
1, 1522459, Note_on_c, 0, 58, 101
1, 1522781, Note_off_c, 0, 58, 101
1, 1522954, Note_on_c, 0, 54, 99
1, 1523342, Note_off_c, 0, 54, 99
1, 1523395, Note_on_c, 0, 53, 97
1, 1523669, Note_off_c, 0, 53, 97
1, 1523674, Note_on_c, 0, 51, 95
1, 1524110, Note_off_c, 0, 51, 95
1, 1524193, Note_on_c, 0, 56, 99
1, 1524641, Note_off_c, 0, 56, 99
1, 1524641, Note_on_c, 0, 54, 103
1, 1524921, Note_off_c, 0, 54, 103
1, 1524974, Note_on_c, 0, 51, 101
1, 1525338, Note_off_c, 0, 51, 101
1, 1525403, Note_on_c, 0, 48, 89
1, 1525677, Note_off_c, 0, 48, 89
1, 1525778, Note_on_c, 0, 53, 94
1, 1526960, Note_off_c, 0, 53, 94
1, 1527061, Note_on_c, 0, 51, 101
1, 1527395, Note_off_c, 0, 51, 101
1, 1527442, Note_on_c, 0, 56, 108
1, 1527704, Note_off_c, 0, 56, 108
1, 1527763, Note_on_c, 0, 47, 103
1, 1528222, Note_off_c, 0, 47, 103
1, 1530921, Note_on_c, 0, 46, 99
1, 1531464, Note_off_c, 0, 46, 99
1, 1531517, Note_on_c, 0, 51, 95
1, 1531994, Note_off_c, 0, 51, 95
1, 1532276, Note_on_c, 0, 68, 85
1, 1532389, Note_off_c, 0, 68, 85
1, 1532596, Note_on_c, 0, 64, 92
1, 1533008, Note_off_c, 0, 64, 92
1, 1533037, Note_on_c, 0, 65, 95
1, 1533341, Note_off_c, 0, 65, 95
1, 1533388, Note_on_c, 0, 69, 91
1, 1533609, Note_off_c, 0, 69, 91
1, 1533674, Note_on_c, 0, 63, 103
1, 1534116, Note_off_c, 0, 63, 103
1, 1534136, Note_on_c, 0, 55, 106
1, 1534358, Note_off_c, 0, 55, 106
1, 1535819, Note_on_c, 0, 50, 103
1, 1536062, Note_off_c, 0, 50, 103
1, 1536091, Note_on_c, 0, 51, 104
1, 1536254, Note_off_c, 0, 51, 104
1, 1536270, Note_on_c, 0, 50, 102
1, 1536496, Note_off_c, 0, 50, 102
1, 1536500, Note_on_c, 0, 49, 96
1, 1536894, Note_off_c, 0, 49, 96
1, 1537049, Note_on_c, 0, 53, 100
1, 1537389, Note_off_c, 0, 53, 100
1, 1537473, Note_on_c, 0, 49, 97
1, 1537846, Note_off_c, 0, 49, 97
1, 1537846, Note_on_c, 0, 50, 101
1, 1538060, Note_off_c, 0, 50, 101
1, 1538106, Note_on_c, 0, 51, 99
1, 1538618, Note_off_c, 0, 51, 99
1, 1538697, Note_on_c, 0, 53, 101
1, 1538970, Note_off_c, 0, 53, 101
1, 1539041, Note_on_c, 0, 55, 98
1, 1539280, Note_off_c, 0, 55, 98
1, 1539280, Note_on_c, 0, 56, 99
1, 1539586, Note_off_c, 0, 56, 99
1, 1539636, Note_on_c, 0, 57, 95
1, 1540056, Note_off_c, 0, 57, 95
1, 1540139, Note_on_c, 0, 60, 92
1, 1540315, Note_off_c, 0, 60, 92
1, 1540363, Note_on_c, 0, 59, 93
1, 1540589, Note_off_c, 0, 59, 93
1, 1540809, Note_on_c, 0, 51, 97
1, 1541077, Note_off_c, 0, 51, 97
1, 1542362, Note_on_c, 0, 62, 97
1, 1542538, Note_off_c, 0, 62, 97
1, 1542538, Note_on_c, 0, 64, 101
1, 1542664, Note_off_c, 0, 64, 101
1, 1542743, Note_on_c, 0, 66, 97
1, 1543221, Note_off_c, 0, 66, 97
1, 1543443, Note_on_c, 0, 56, 86
1, 1543686, Note_off_c, 0, 56, 86
1, 1543723, Note_on_c, 0, 57, 90
1, 1543966, Note_off_c, 0, 57, 90
1, 1544041, Note_on_c, 0, 63, 106
1, 1544587, Note_off_c, 0, 63, 106
1, 1544587, Note_on_c, 0, 61, 101
1, 1545002, Note_off_c, 0, 61, 101
1, 1545002, Note_on_c, 0, 59, 96
1, 1545296, Note_off_c, 0, 59, 96
1, 1545321, Note_on_c, 0, 58, 103
1, 1545799, Note_off_c, 0, 58, 103
1, 1545799, Note_on_c, 0, 57, 98
1, 1546349, Note_off_c, 0, 57, 98
1, 1546399, Note_on_c, 0, 56, 97
1, 1546571, Note_off_c, 0, 56, 97
1, 1546634, Note_on_c, 0, 55, 93
1, 1546911, Note_off_c, 0, 55, 93
1, 1547230, Note_on_c, 0, 70, 97
1, 1547549, Note_on_c, 0, 69, 91
1, 1547549, Note_off_c, 0, 70, 97
1, 1547863, Note_off_c, 0, 69, 91
1, 1548022, Note_on_c, 0, 62, 104
1, 1548341, Note_off_c, 0, 62, 104
1, 1548399, Note_on_c, 0, 65, 98
1, 1548705, Note_off_c, 0, 65, 98
1, 1548826, Note_on_c, 0, 69, 98
1, 1549170, Note_off_c, 0, 69, 98
1, 1549170, Note_on_c, 0, 67, 106
1, 1549606, Note_off_c, 0, 67, 106
1, 1549669, Note_on_c, 0, 65, 97
1, 1549996, Note_off_c, 0, 65, 97
1, 1549996, Note_on_c, 0, 69, 97
1, 1550252, Note_off_c, 0, 69, 97
1, 1550466, Note_on_c, 0, 72, 93
1, 1550701, Note_off_c, 0, 72, 93
1, 1550709, Note_on_c, 0, 62, 88
1, 1551070, Note_off_c, 0, 62, 88
1, 1551107, Note_on_c, 0, 65, 96
1, 1551472, Note_off_c, 0, 65, 96
1, 1551522, Note_on_c, 0, 69, 98
1, 1551778, Note_off_c, 0, 69, 98
1, 1551992, Note_on_c, 0, 75, 89
1, 1552147, Note_off_c, 0, 75, 89
1, 1552302, Note_on_c, 0, 66, 95
1, 1552659, Note_off_c, 0, 66, 95
1, 1552713, Note_on_c, 0, 65, 95
1, 1553154, Note_off_c, 0, 65, 95
1, 1556530, Note_on_c, 0, 66, 108
1, 1556966, Note_off_c, 0, 66, 108
1, 1557016, Note_on_c, 0, 67, 109
1, 1559015, Note_off_c, 0, 67, 109
1, 1559048, Note_on_c, 0, 67, 106
1, 1559258, Note_off_c, 0, 67, 106
1, 1559316, Note_on_c, 0, 67, 113
1, 1561684, Note_off_c, 0, 67, 113
1, 1561759, Note_on_c, 0, 67, 112
1, 1561985, Note_off_c, 0, 67, 112
1, 1562010, Note_on_c, 0, 67, 108
1, 1563933, Note_off_c, 0, 67, 108
1, 1564033, Note_on_c, 0, 65, 103
1, 1564377, Note_off_c, 0, 65, 103
1, 1565016, Note_on_c, 0, 67, 105
1, 1565816, Note_off_c, 0, 67, 105
1, 1567452, Note_on_c, 0, 67, 99
1, 1567798, Note_off_c, 0, 67, 99
1, 1567833, Note_on_c, 0, 67, 100
1, 1568275, Note_off_c, 0, 67, 100
1, 1568885, Note_on_c, 0, 67, 103
1, 1570632, Note_off_c, 0, 67, 103
1, 1570651, Note_on_c, 0, 62, 97
1, 1571463, Note_off_c, 0, 62, 97
1, 1574264, Note_on_c, 0, 67, 102
1, 1574473, Note_off_c, 0, 67, 102
1, 1574568, Note_on_c, 0, 67, 106
1, 1574962, Note_off_c, 0, 67, 106
1, 1575497, Note_on_c, 0, 67, 106
1, 1577088, Note_off_c, 0, 67, 106
1, 1577503, Note_on_c, 0, 67, 98
1, 1577763, Note_off_c, 0, 67, 98
1, 1578358, Note_on_c, 0, 67, 109
1, 1579152, Note_off_c, 0, 67, 109
1, 1581037, Note_on_c, 0, 67, 104
1, 1581377, Note_off_c, 0, 67, 104
1, 1581435, Note_on_c, 0, 67, 103
1, 1581758, Note_off_c, 0, 67, 103
1, 1582245, Note_on_c, 0, 67, 104
1, 1583509, Note_off_c, 0, 67, 104
1, 1583546, Note_on_c, 0, 71, 106
1, 1583907, Note_off_c, 0, 71, 106
1, 1583944, Note_on_c, 0, 67, 96
1, 1584284, Note_on_c, 0, 74, 99
1, 1584284, Note_off_c, 0, 67, 96
1, 1585132, Note_off_c, 0, 74, 99
1, 1588823, Note_on_c, 0, 67, 95
1, 1590368, Note_off_c, 0, 67, 95
1, 1590620, Note_on_c, 0, 62, 93
1, 1590888, Note_off_c, 0, 62, 93
1, 1590983, Note_on_c, 0, 70, 96
1, 1591287, Note_off_c, 0, 70, 96
1, 1591831, Note_on_c, 0, 71, 105
1, 1592587, Note_off_c, 0, 71, 105
1, 1594430, Note_on_c, 0, 69, 100
1, 1594833, Note_off_c, 0, 69, 100
1, 1594833, Note_on_c, 0, 71, 101
1, 1595530, Note_off_c, 0, 71, 101
1, 1595731, Note_on_c, 0, 69, 97
1, 1596176, Note_off_c, 0, 69, 97
1, 1596226, Note_on_c, 0, 67, 100
1, 1596528, Note_off_c, 0, 67, 100
1, 1596557, Note_on_c, 0, 65, 102
1, 1596935, Note_off_c, 0, 65, 102
1, 1596951, Note_on_c, 0, 62, 106
1, 1597480, Note_off_c, 0, 62, 106
1, 1597517, Note_on_c, 0, 58, 93
1, 1597764, Note_off_c, 0, 58, 93
1, 1597797, Note_on_c, 0, 65, 103
1, 1598427, Note_off_c, 0, 65, 103
1, 1600317, Note_on_c, 0, 65, 103
1, 1600555, Note_off_c, 0, 65, 103
1, 1600596, Note_on_c, 0, 65, 104
1, 1600757, Note_off_c, 0, 65, 104
1, 1600768, Note_on_c, 0, 67, 98
1, 1600971, Note_off_c, 0, 67, 98
1, 1601078, Note_on_c, 0, 69, 97
1, 1602147, Note_off_c, 0, 69, 97
1, 1602308, Note_on_c, 0, 71, 105
1, 1602708, Note_off_c, 0, 71, 105
1, 1602708, Note_on_c, 0, 69, 99
1, 1603024, Note_off_c, 0, 69, 99
1, 1603028, Note_on_c, 0, 66, 99
1, 1603410, Note_off_c, 0, 66, 99
1, 1603447, Note_on_c, 0, 65, 101
1, 1603707, Note_off_c, 0, 65, 101
1, 1603770, Note_on_c, 0, 65, 103
1, 1603887, Note_off_c, 0, 65, 103
1, 1603899, Note_on_c, 0, 64, 105
1, 1604197, Note_off_c, 0, 64, 105
1, 1604213, Note_on_c, 0, 63, 106
1, 1604754, Note_off_c, 0, 63, 106
1, 1604796, Note_on_c, 0, 66, 96
1, 1605140, Note_off_c, 0, 66, 96
1, 1605509, Note_on_c, 0, 71, 100
1, 1605962, Note_on_c, 0, 67, 98
1, 1605962, Note_off_c, 0, 71, 100
1, 1606402, Note_off_c, 0, 67, 98
1, 1606423, Note_on_c, 0, 66, 95
1, 1607011, Note_off_c, 0, 66, 95
1, 1607015, Note_on_c, 0, 65, 99
1, 1607229, Note_off_c, 0, 65, 99
1, 1607262, Note_on_c, 0, 68, 99
1, 1607514, Note_off_c, 0, 68, 99
1, 1607707, Note_on_c, 0, 63, 116
1, 1608202, Note_off_c, 0, 63, 116
1, 1608231, Note_on_c, 0, 62, 110
1, 1608449, Note_off_c, 0, 62, 110
1, 1608491, Note_on_c, 0, 61, 104
1, 1608764, Note_off_c, 0, 61, 104
1, 1609066, Note_on_c, 0, 65, 106
1, 1609393, Note_off_c, 0, 65, 106
1, 1609439, Note_on_c, 0, 62, 111
1, 1609854, Note_off_c, 0, 62, 111
1, 1609854, Note_on_c, 0, 66, 100
1, 1610122, Note_off_c, 0, 66, 100
1, 1610222, Note_on_c, 0, 68, 96
1, 1610570, Note_off_c, 0, 68, 96
1, 1610574, Note_on_c, 0, 71, 107
1, 1610821, Note_off_c, 0, 71, 107
1, 1610833, Note_on_c, 0, 70, 106
1, 1611148, Note_off_c, 0, 70, 106
1, 1611173, Note_on_c, 0, 64, 101
1, 1611454, Note_off_c, 0, 64, 101
1, 1613243, Note_on_c, 0, 72, 109
1, 1613780, Note_off_c, 0, 72, 109
1, 1614435, Note_on_c, 0, 72, 108
1, 1615035, Note_off_c, 0, 72, 108
1, 1615039, Note_on_c, 0, 70, 107
1, 1615421, Note_off_c, 0, 70, 107
1, 1615454, Note_on_c, 0, 72, 104
1, 1617486, Note_off_c, 0, 72, 104
1, 1617494, Note_on_c, 0, 70, 111
1, 1617951, Note_off_c, 0, 70, 111
1, 1617951, Note_on_c, 0, 72, 115
1, 1618518, Note_off_c, 0, 72, 115
1, 1619933, Note_on_c, 0, 72, 110
1, 1620466, Note_off_c, 0, 72, 110
1, 1620827, Note_on_c, 0, 70, 113
1, 1621214, Note_off_c, 0, 70, 113
1, 1621214, Note_on_c, 0, 72, 102
1, 1623836, Note_off_c, 0, 72, 102
1, 1623875, Note_on_c, 0, 70, 98
1, 1624240, Note_off_c, 0, 70, 98
1, 1624256, Note_on_c, 0, 67, 105
1, 1624600, Note_off_c, 0, 67, 105
1, 1624600, Note_on_c, 0, 63, 114
1, 1625246, Note_off_c, 0, 63, 114
1, 1626846, Note_on_c, 0, 71, 111
1, 1627219, Note_off_c, 0, 71, 111
1, 1627235, Note_on_c, 0, 72, 114
1, 1628490, Note_off_c, 0, 72, 114
1, 1628527, Note_on_c, 0, 73, 100
1, 1629056, Note_off_c, 0, 73, 100
1, 1629089, Note_on_c, 0, 72, 110
1, 1629790, Note_off_c, 0, 72, 110
1, 1629827, Note_on_c, 0, 73, 107
1, 1630373, Note_off_c, 0, 73, 107
1, 1630419, Note_on_c, 0, 75, 119
1, 1631095, Note_off_c, 0, 75, 119
1, 1631313, Note_on_c, 0, 62, 111
1, 1631644, Note_off_c, 0, 62, 111
1, 1634189, Note_on_c, 0, 74, 106
1, 1635129, Note_off_c, 0, 74, 106
1, 1635166, Note_on_c, 0, 73, 112
1, 1635481, Note_off_c, 0, 73, 112
1, 1635493, Note_on_c, 0, 71, 112
1, 1635908, Note_off_c, 0, 71, 112
1, 1635933, Note_on_c, 0, 70, 110
1, 1636227, Note_off_c, 0, 70, 110
1, 1636260, Note_on_c, 0, 66, 101
1, 1636570, Note_off_c, 0, 66, 101
1, 1636620, Note_on_c, 0, 63, 106
1, 1637077, Note_off_c, 0, 63, 106
1, 1637089, Note_on_c, 0, 59, 95
1, 1637353, Note_off_c, 0, 59, 95
1, 1637386, Note_on_c, 0, 67, 99
1, 1637856, Note_off_c, 0, 67, 99
1, 1637877, Note_on_c, 0, 66, 99
1, 1638213, Note_off_c, 0, 66, 99
1, 1638221, Note_on_c, 0, 63, 109
1, 1638842, Note_off_c, 0, 63, 109
1, 1638934, Note_on_c, 0, 57, 87
1, 1639148, Note_off_c, 0, 57, 87
1, 1639148, Note_on_c, 0, 69, 100
1, 1639618, Note_off_c, 0, 69, 100
1, 1641001, Note_on_c, 0, 74, 101
1, 1642195, Note_off_c, 0, 74, 101
1, 1642330, Note_on_c, 0, 71, 101
1, 1642527, Note_off_c, 0, 71, 101
1, 1642581, Note_on_c, 0, 69, 96
1, 1642845, Note_off_c, 0, 69, 96
1, 1643112, Note_on_c, 0, 65, 105
1, 1643434, Note_off_c, 0, 65, 105
1, 1643442, Note_on_c, 0, 62, 96
1, 1643884, Note_off_c, 0, 62, 96
1, 1644215, Note_on_c, 0, 67, 95
1, 1644459, Note_off_c, 0, 67, 95
1, 1644518, Note_on_c, 0, 63, 97
1, 1644739, Note_off_c, 0, 63, 97
1, 1645473, Note_on_c, 0, 70, 89
1, 1645649, Note_on_c, 0, 68, 97
1, 1645649, Note_off_c, 0, 70, 89
1, 1646037, Note_off_c, 0, 68, 97
1, 1646278, Note_on_c, 0, 70, 94
1, 1646457, Note_off_c, 0, 70, 94
1, 1646534, Note_on_c, 0, 68, 100
1, 1646856, Note_off_c, 0, 68, 100
1, 1647005, Note_on_c, 0, 65, 90
1, 1647231, Note_off_c, 0, 65, 90
1, 1647290, Note_on_c, 0, 71, 95
1, 1647505, Note_off_c, 0, 71, 95
1, 1647525, Note_on_c, 0, 70, 92
1, 1647704, Note_off_c, 0, 70, 92
1, 1647766, Note_on_c, 0, 68, 93
1, 1648127, Note_off_c, 0, 68, 93
1, 1648129, Note_on_c, 0, 69, 93
1, 1648314, Note_off_c, 0, 69, 93
1, 1648331, Note_on_c, 0, 68, 90
1, 1648549, Note_off_c, 0, 68, 90
1, 1648549, Note_on_c, 0, 67, 94
1, 1648999, Note_off_c, 0, 67, 94
1, 1649028, Note_on_c, 0, 71, 93
1, 1649231, Note_off_c, 0, 71, 93
1, 1649236, Note_on_c, 0, 70, 97
1, 1649451, Note_off_c, 0, 70, 97
1, 1649471, Note_on_c, 0, 69, 96
1, 1649859, Note_off_c, 0, 69, 96
1, 1649859, Note_on_c, 0, 66, 104
1, 1650193, Note_off_c, 0, 66, 104
1, 1650210, Note_on_c, 0, 65, 109
1, 1650619, Note_off_c, 0, 65, 109
1, 1650624, Note_on_c, 0, 64, 101
1, 1650934, Note_off_c, 0, 64, 101
1, 1650960, Note_on_c, 0, 63, 103
1, 1651419, Note_off_c, 0, 63, 103
1, 1652341, Note_on_c, 0, 71, 106
1, 1652615, Note_off_c, 0, 71, 106
1, 1652615, Note_on_c, 0, 63, 99
1, 1652812, Note_off_c, 0, 63, 99
1, 1652826, Note_on_c, 0, 62, 99
1, 1653118, Note_off_c, 0, 62, 99
1, 1654160, Note_on_c, 0, 68, 95
1, 1654566, Note_off_c, 0, 68, 95
1, 1655073, Note_on_c, 0, 71, 104
1, 1655380, Note_off_c, 0, 71, 104
1, 1655445, Note_on_c, 0, 64, 105
1, 1655782, Note_off_c, 0, 64, 105
1, 1655782, Note_on_c, 0, 70, 101
1, 1656182, Note_off_c, 0, 70, 101
1, 1656182, Note_on_c, 0, 60, 101
1, 1656397, Note_off_c, 0, 60, 101
1, 1656426, Note_on_c, 0, 62, 106
1, 1656673, Note_off_c, 0, 62, 106
1, 1656693, Note_on_c, 0, 63, 113
1, 1657081, Note_off_c, 0, 63, 113
1, 1657164, Note_on_c, 0, 67, 103
1, 1657498, Note_off_c, 0, 67, 103
1, 1657527, Note_on_c, 0, 67, 101
1, 1657882, Note_off_c, 0, 67, 101
1, 1657882, Note_on_c, 0, 69, 101
1, 1658234, Note_off_c, 0, 69, 101
1, 1658404, Note_on_c, 0, 69, 92
1, 1658726, Note_off_c, 0, 69, 92
1, 1658767, Note_on_c, 0, 71, 111
1, 1659179, Note_off_c, 0, 71, 111
1, 1659179, Note_on_c, 0, 69, 108
1, 1659597, Note_off_c, 0, 69, 108
1, 1659598, Note_on_c, 0, 65, 111
1, 1659829, Note_on_c, 0, 62, 114
1, 1659829, Note_off_c, 0, 65, 111
1, 1660425, Note_off_c, 0, 62, 114
1, 1660467, Note_on_c, 0, 58, 99
1, 1660672, Note_off_c, 0, 58, 99
1, 1660680, Note_on_c, 0, 65, 118
1, 1661167, Note_off_c, 0, 65, 118
1, 1663447, Note_on_c, 0, 66, 115
1, 1663652, Note_off_c, 0, 66, 115
1, 1663673, Note_on_c, 0, 67, 114
1, 1665046, Note_off_c, 0, 67, 114
1, 1665083, Note_on_c, 0, 62, 107
1, 1665503, Note_off_c, 0, 62, 107
1, 1665511, Note_on_c, 0, 67, 118
1, 1666014, Note_off_c, 0, 67, 118
1, 1666014, Note_on_c, 0, 62, 116
1, 1666194, Note_off_c, 0, 62, 116
1, 1666223, Note_on_c, 0, 61, 118
1, 1666538, Note_off_c, 0, 61, 118
1, 1669583, Note_on_c, 0, 65, 118
1, 1672136, Note_off_c, 0, 65, 118
1, 1672203, Note_on_c, 0, 62, 125
1, 1672723, Note_off_c, 0, 62, 125
1, 1672723, Note_on_c, 0, 57, 112
1, 1673368, Note_off_c, 0, 57, 112
1, 1676678, Note_on_c, 0, 57, 93
1, 1678470, Note_off_c, 0, 57, 93
1, 1678528, Note_on_c, 0, 59, 99
1, 1678826, Note_off_c, 0, 59, 99
1, 1678852, Note_on_c, 0, 55, 105
1, 1679213, Note_off_c, 0, 55, 105
1, 1680700, Note_on_c, 0, 62, 112
1, 1681094, Note_off_c, 0, 62, 112
1, 1681111, Note_on_c, 0, 60, 113
1, 1681337, Note_off_c, 0, 60, 113
1, 1681384, Note_on_c, 0, 59, 107
1, 1681760, Note_off_c, 0, 59, 107
1, 1681825, Note_on_c, 0, 55, 106
1, 1682135, Note_off_c, 0, 55, 106
1, 1682218, Note_on_c, 0, 57, 108
1, 1682624, Note_off_c, 0, 57, 108
1, 1682659, Note_on_c, 0, 59, 103
1, 1682909, Note_off_c, 0, 59, 103
1, 1682968, Note_on_c, 0, 60, 107
1, 1683421, Note_off_c, 0, 60, 107
1, 1683426, Note_on_c, 0, 62, 110
1, 1683903, Note_off_c, 0, 62, 110
1, 1683932, Note_on_c, 0, 64, 112
1, 1684224, Note_off_c, 0, 64, 112
1, 1684349, Note_on_c, 0, 65, 113
1, 1684737, Note_off_c, 0, 65, 113
1, 1684737, Note_on_c, 0, 67, 108
1, 1684981, Note_off_c, 0, 67, 108
1, 1685076, Note_on_c, 0, 69, 104
1, 1685476, Note_off_c, 0, 69, 104
1, 1685499, Note_on_c, 0, 71, 103
1, 1685851, Note_off_c, 0, 71, 103
1, 1685898, Note_on_c, 0, 72, 107
1, 1686489, Note_off_c, 0, 72, 107
1, 1686489, Note_on_c, 0, 71, 98
1, 1686596, Note_off_c, 0, 71, 98
1, 1686661, Note_on_c, 0, 69, 100
1, 1687198, Note_off_c, 0, 69, 100
1, 1690142, Note_on_c, 0, 69, 93
1, 1691671, Note_off_c, 0, 69, 93
1, 1691838, Note_on_c, 0, 65, 100
1, 1692082, Note_off_c, 0, 65, 100
1, 1692147, Note_on_c, 0, 69, 99
1, 1692415, Note_off_c, 0, 69, 99
1, 1692420, Note_on_c, 0, 71, 104
1, 1692718, Note_off_c, 0, 71, 104
1, 1692718, Note_on_c, 0, 72, 104
1, 1693189, Note_off_c, 0, 72, 104
1, 1693290, Note_on_c, 0, 74, 103
1, 1693708, Note_off_c, 0, 74, 103
1, 1694067, Note_on_c, 0, 69, 102
1, 1694487, Note_off_c, 0, 69, 102
1, 1694529, Note_on_c, 0, 71, 102
1, 1695045, Note_off_c, 0, 71, 102
1, 1695061, Note_on_c, 0, 71, 104
1, 1695329, Note_off_c, 0, 71, 104
1, 1695358, Note_on_c, 0, 69, 103
1, 1695526, Note_off_c, 0, 69, 103
1, 1695530, Note_on_c, 0, 65, 106
1, 1695832, Note_off_c, 0, 65, 106
1, 1695857, Note_on_c, 0, 67, 102
1, 1696100, Note_on_c, 0, 69, 113
1, 1696100, Note_off_c, 0, 67, 102
1, 1696662, Note_off_c, 0, 69, 113
1, 1696674, Note_on_c, 0, 71, 107
1, 1696955, Note_off_c, 0, 71, 107
1, 1697005, Note_on_c, 0, 64, 120
1, 1697660, Note_off_c, 0, 64, 120
1, 1697672, Note_on_c, 0, 65, 113
1, 1697840, Note_off_c, 0, 65, 113
1, 1697869, Note_on_c, 0, 67, 109
1, 1698171, Note_off_c, 0, 67, 109
1, 1698171, Note_on_c, 0, 69, 103
1, 1698313, Note_off_c, 0, 69, 103
1, 1698338, Note_on_c, 0, 69, 107
1, 1698640, Note_off_c, 0, 69, 107
1, 1698673, Note_on_c, 0, 62, 114
1, 1699223, Note_off_c, 0, 62, 114
1, 1699223, Note_on_c, 0, 64, 115
1, 1699496, Note_off_c, 0, 64, 115
1, 1699542, Note_on_c, 0, 65, 106
1, 1700054, Note_off_c, 0, 65, 106
1, 1702070, Note_on_c, 0, 60, 107
1, 1702443, Note_off_c, 0, 60, 107
1, 1702455, Note_on_c, 0, 62, 118
1, 1702757, Note_off_c, 0, 62, 118
1, 1702782, Note_on_c, 0, 64, 118
1, 1703323, Note_off_c, 0, 64, 118
1, 1703415, Note_on_c, 0, 60, 108
1, 1703734, Note_on_c, 0, 62, 120
1, 1703734, Note_off_c, 0, 60, 108
1, 1704124, Note_off_c, 0, 62, 120
1, 1704124, Note_on_c, 0, 64, 117
1, 1704535, Note_off_c, 0, 64, 117
1, 1704551, Note_on_c, 0, 65, 112
1, 1704849, Note_off_c, 0, 65, 112
1, 1704878, Note_on_c, 0, 65, 104
1, 1705197, Note_off_c, 0, 65, 104
1, 1705335, Note_on_c, 0, 69, 105
1, 1705460, Note_off_c, 0, 69, 105
1, 1705460, Note_on_c, 0, 59, 99
1, 1705791, Note_off_c, 0, 59, 99
1, 1707147, Note_on_c, 0, 59, 107
1, 1707247, Note_off_c, 0, 59, 107
1, 1707272, Note_on_c, 0, 59, 102
1, 1707444, Note_off_c, 0, 59, 102
1, 1707464, Note_on_c, 0, 60, 96
1, 1707711, Note_off_c, 0, 60, 96
1, 1707723, Note_on_c, 0, 62, 103
1, 1708176, Note_off_c, 0, 62, 103
1, 1708188, Note_on_c, 0, 64, 111
1, 1708641, Note_off_c, 0, 64, 111
1, 1708683, Note_on_c, 0, 65, 110
1, 1709065, Note_off_c, 0, 65, 110
1, 1709090, Note_on_c, 0, 67, 107
1, 1709442, Note_off_c, 0, 67, 107
1, 1709458, Note_on_c, 0, 69, 105
1, 1709852, Note_off_c, 0, 69, 105
1, 1709864, Note_on_c, 0, 71, 110
1, 1710187, Note_off_c, 0, 71, 110
1, 1710195, Note_on_c, 0, 67, 104
1, 1710594, Note_off_c, 0, 67, 104
1, 1713458, Note_on_c, 0, 67, 97
1, 1713819, Note_off_c, 0, 67, 97
1, 1713877, Note_on_c, 0, 69, 95
1, 1714225, Note_off_c, 0, 69, 95
1, 1714241, Note_on_c, 0, 71, 100
1, 1714627, Note_off_c, 0, 71, 100
1, 1714828, Note_on_c, 0, 66, 100
1, 1715134, Note_off_c, 0, 66, 100
1, 1715142, Note_on_c, 0, 69, 106
1, 1715557, Note_off_c, 0, 69, 106
1, 1715573, Note_on_c, 0, 65, 107
1, 1715955, Note_off_c, 0, 65, 107
1, 1715971, Note_on_c, 0, 62, 109
1, 1716382, Note_off_c, 0, 62, 109
1, 1716411, Note_on_c, 0, 67, 106
1, 1716745, Note_off_c, 0, 67, 106
1, 1716750, Note_on_c, 0, 65, 111
1, 1717198, Note_off_c, 0, 65, 111
1, 1717198, Note_on_c, 0, 67, 102
1, 1717502, Note_off_c, 0, 67, 102
1, 1717502, Note_on_c, 0, 69, 102
1, 1717842, Note_off_c, 0, 69, 102
1, 1718092, Note_on_c, 0, 70, 97
1, 1718324, Note_off_c, 0, 70, 97
1, 1718425, Note_on_c, 0, 60, 95
1, 1719846, Note_off_c, 0, 60, 95
1, 1719846, Note_on_c, 0, 61, 97
1, 1720132, Note_off_c, 0, 61, 97
1, 1720227, Note_on_c, 0, 63, 108
1, 1721478, Note_off_c, 0, 63, 108
1, 1721486, Note_on_c, 0, 65, 106
1, 1721847, Note_off_c, 0, 65, 106
1, 1721847, Note_on_c, 0, 63, 29
1, 1722393, Note_off_c, 0, 63, 29
1, 1722418, Note_on_c, 0, 62, 101
1, 1722758, Note_off_c, 0, 62, 101
1, 1722758, Note_on_c, 0, 63, 103
1, 1723092, Note_off_c, 0, 63, 103
1, 1723092, Note_on_c, 0, 65, 103
1, 1723396, Note_off_c, 0, 65, 103
1, 1723443, Note_on_c, 0, 66, 95
1, 1723771, Note_off_c, 0, 66, 95
1, 1723782, Note_on_c, 0, 65, 94
1, 1724092, Note_off_c, 0, 65, 94
1, 1724169, Note_on_c, 0, 63, 89
1, 1724419, Note_off_c, 0, 63, 89
1, 1726846, Note_on_c, 0, 66, 90
1, 1727203, Note_off_c, 0, 66, 90
1, 1727236, Note_on_c, 0, 68, 92
1, 1727475, Note_off_c, 0, 68, 92
1, 1727575, Note_on_c, 0, 70, 95
1, 1727894, Note_off_c, 0, 70, 95
1, 1727990, Note_on_c, 0, 72, 94
1, 1728275, Note_off_c, 0, 72, 94
1, 1728346, Note_on_c, 0, 63, 96
1, 1728715, Note_off_c, 0, 63, 96
1, 1728757, Note_on_c, 0, 65, 104
1, 1729731, Note_off_c, 0, 65, 104
1, 1729731, Note_on_c, 0, 66, 99
1, 1730201, Note_off_c, 0, 66, 99
1, 1730217, Note_on_c, 0, 65, 103
1, 1731305, Note_off_c, 0, 65, 103
1, 1731305, Note_on_c, 0, 64, 100
1, 1731591, Note_off_c, 0, 64, 100
1, 1731602, Note_on_c, 0, 63, 100
1, 1732002, Note_off_c, 0, 63, 100
1, 1732002, Note_on_c, 0, 62, 101
1, 1732497, Note_off_c, 0, 62, 101
1, 1732544, Note_on_c, 0, 61, 91
1, 1732806, Note_off_c, 0, 61, 91
1, 1732847, Note_on_c, 0, 60, 91
1, 1733068, Note_off_c, 0, 60, 91
1, 1733133, Note_on_c, 0, 58, 93
1, 1733825, Note_off_c, 0, 58, 93
1, 1735174, Note_on_c, 0, 58, 97
1, 1735568, Note_off_c, 0, 58, 97
1, 1735627, Note_on_c, 0, 54, 97
1, 1735955, Note_off_c, 0, 54, 97
1, 1736008, Note_on_c, 0, 53, 93
1, 1736408, Note_off_c, 0, 53, 93
1, 1736480, Note_on_c, 0, 51, 96
1, 1736828, Note_off_c, 0, 51, 96
1, 1736884, Note_on_c, 0, 56, 89
1, 1737881, Note_off_c, 0, 56, 89
1, 1738208, Note_on_c, 0, 53, 88
1, 1738501, Note_off_c, 0, 53, 88
1, 1738513, Note_on_c, 0, 47, 97
1, 1738916, Note_off_c, 0, 47, 97
1, 1738916, Note_on_c, 0, 53, 94
1, 1739247, Note_off_c, 0, 53, 94
1, 1739368, Note_on_c, 0, 51, 98
1, 1739708, Note_off_c, 0, 51, 98
1, 1741735, Note_on_c, 0, 46, 101
1, 1742111, Note_off_c, 0, 46, 101
1, 1742182, Note_on_c, 0, 55, 95
1, 1742582, Note_off_c, 0, 55, 95
1, 1742582, Note_on_c, 0, 62, 85
1, 1742862, Note_off_c, 0, 62, 85
1, 1742957, Note_on_c, 0, 62, 87
1, 1743399, Note_off_c, 0, 62, 87
1, 1743489, Note_on_c, 0, 57, 89
1, 1743837, Note_off_c, 0, 57, 89
1, 1743925, Note_on_c, 0, 53, 92
1, 1744227, Note_off_c, 0, 53, 92
1, 1744260, Note_on_c, 0, 51, 95
1, 1744642, Note_off_c, 0, 51, 95
1, 1744705, Note_on_c, 0, 54, 97
1, 1745003, Note_off_c, 0, 54, 97
1, 1745099, Note_on_c, 0, 47, 92
1, 1745544, Note_off_c, 0, 47, 92
1, 1745544, Note_on_c, 0, 51, 91
1, 1745808, Note_off_c, 0, 51, 91
1, 1745820, Note_on_c, 0, 57, 89
1, 1746168, Note_off_c, 0, 57, 89
1, 1748477, Note_on_c, 0, 51, 102
1, 1748865, Note_off_c, 0, 51, 102
1, 1748870, Note_on_c, 0, 55, 95
1, 1749168, Note_off_c, 0, 55, 95
1, 1749168, Note_on_c, 0, 59, 94
1, 1749544, Note_off_c, 0, 59, 94
1, 1749591, Note_on_c, 0, 53, 93
1, 1749943, Note_off_c, 0, 53, 93
1, 1752613, Note_on_c, 0, 45, 99
1, 1752971, Note_off_c, 0, 45, 99
1, 1752971, Note_on_c, 0, 53, 98
1, 1753186, Note_off_c, 0, 53, 98
1, 1753221, Note_on_c, 0, 52, 102
1, 1753447, Note_off_c, 0, 52, 102
1, 1753470, Note_on_c, 0, 47, 101
1, 1753977, Note_off_c, 0, 47, 101
1, 1754090, Note_on_c, 0, 47, 108
1, 1754591, Note_off_c, 0, 47, 108
1, 1754602, Note_on_c, 0, 55, 107
1, 1754781, Note_off_c, 0, 55, 107
1, 1754781, Note_on_c, 0, 50, 103
1, 1755127, Note_off_c, 0, 50, 103
1, 1755138, Note_on_c, 0, 53, 103
1, 1755532, Note_off_c, 0, 53, 103
1, 1755543, Note_on_c, 0, 50, 105
1, 1755823, Note_off_c, 0, 50, 105
1, 1755876, Note_on_c, 0, 45, 102
1, 1756592, Note_off_c, 0, 45, 102
1, 1759064, Note_on_c, 0, 45, 98
1, 1759392, Note_off_c, 0, 45, 98
1, 1759397, Note_on_c, 0, 52, 94
1, 1759803, Note_off_c, 0, 52, 94
1, 1759850, Note_on_c, 0, 47, 92
1, 1760303, Note_off_c, 0, 47, 92
1, 1761234, Note_on_c, 0, 54, 99
1, 1761544, Note_off_c, 0, 54, 99
1, 1761609, Note_on_c, 0, 48, 98
1, 1761937, Note_off_c, 0, 48, 98
1, 1762898, Note_on_c, 0, 57, 99
1, 1763166, Note_off_c, 0, 57, 99
1, 1763177, Note_on_c, 0, 51, 95
1, 1763559, Note_off_c, 0, 51, 95
1, 1763576, Note_on_c, 0, 52, 109
1, 1763886, Note_off_c, 0, 52, 109
1, 1763933, Note_on_c, 0, 55, 96
1, 1764076, Note_off_c, 0, 55, 96
1, 1764093, Note_on_c, 0, 59, 94
1, 1764331, Note_off_c, 0, 59, 94
1, 1764384, Note_on_c, 0, 50, 95
1, 1764951, Note_off_c, 0, 50, 95
1, 1766516, Note_on_c, 0, 50, 103
1, 1766838, Note_off_c, 0, 50, 103
1, 1767339, Note_on_c, 0, 53, 99
1, 1767577, Note_off_c, 0, 53, 99
1, 1767612, Note_on_c, 0, 57, 103
1, 1768191, Note_off_c, 0, 57, 103
1, 1768191, Note_on_c, 0, 52, 107
1, 1768692, Note_off_c, 0, 52, 107
1, 1768709, Note_on_c, 0, 55, 109
1, 1768983, Note_off_c, 0, 55, 109
1, 1768983, Note_on_c, 0, 59, 103
1, 1769162, Note_off_c, 0, 59, 103
1, 1769293, Note_on_c, 0, 62, 108
1, 1769729, Note_off_c, 0, 62, 108
1, 1769729, Note_on_c, 0, 57, 98
1, 1770392, Note_off_c, 0, 57, 98
1, 1772255, Note_on_c, 0, 47, 102
1, 1772720, Note_on_c, 0, 51, 100
1, 1772720, Note_off_c, 0, 47, 102
1, 1773006, Note_off_c, 0, 51, 100
1, 1773179, Note_on_c, 0, 48, 99
1, 1774003, Note_off_c, 0, 48, 99
1, 1774003, Note_on_c, 0, 57, 105
1, 1774307, Note_on_c, 0, 50, 105
1, 1774307, Note_off_c, 0, 57, 105
1, 1774790, Note_off_c, 0, 50, 105
1, 1776522, Note_on_c, 0, 48, 109
1, 1776707, Note_off_c, 0, 48, 109
1, 1776742, Note_on_c, 0, 49, 106
1, 1777022, Note_off_c, 0, 49, 106
1, 1777434, Note_on_c, 0, 57, 100
1, 1777996, Note_off_c, 0, 57, 100
1, 1778006, Note_on_c, 0, 59, 99
1, 1778179, Note_off_c, 0, 59, 99
1, 1778179, Note_on_c, 0, 52, 98
1, 1778567, Note_off_c, 0, 52, 98
1, 1778722, Note_on_c, 0, 55, 97
1, 1779014, Note_off_c, 0, 55, 97
1, 1779204, Note_on_c, 0, 59, 96
1, 1779325, Note_off_c, 0, 59, 96
1, 1779346, Note_on_c, 0, 59, 101
1, 1779859, Note_off_c, 0, 59, 101
1, 1779940, Note_on_c, 0, 57, 101
1, 1780187, Note_off_c, 0, 57, 101
1, 1781640, Note_on_c, 0, 50, 107
1, 1781925, Note_off_c, 0, 50, 107
1, 1781925, Note_on_c, 0, 55, 99
1, 1782156, Note_off_c, 0, 55, 99
1, 1782176, Note_on_c, 0, 57, 102
1, 1782512, Note_off_c, 0, 57, 102
1, 1782549, Note_on_c, 0, 67, 104
1, 1783074, Note_off_c, 0, 67, 104
1, 1783098, Note_on_c, 0, 67, 99
1, 1783413, Note_off_c, 0, 67, 99
1, 1783413, Note_on_c, 0, 51, 108
1, 1783824, Note_off_c, 0, 51, 108
1, 1783836, Note_on_c, 0, 48, 111
1, 1784146, Note_off_c, 0, 48, 111
1, 1784213, Note_on_c, 0, 45, 112
1, 1784717, Note_off_c, 0, 45, 112
1, 1786460, Note_on_c, 0, 45, 112
1, 1787035, Note_off_c, 0, 45, 112
1, 1787144, Note_on_c, 0, 50, 102
1, 1787711, Note_off_c, 0, 50, 102
1, 1787812, Note_on_c, 0, 57, 100
1, 1788050, Note_on_c, 0, 53, 101
1, 1788050, Note_off_c, 0, 57, 100
1, 1788683, Note_off_c, 0, 53, 101
1, 1788694, Note_on_c, 0, 50, 100
1, 1788915, Note_off_c, 0, 50, 100
1, 1788915, Note_on_c, 0, 57, 98
1, 1789189, Note_off_c, 0, 57, 98
1, 1789189, Note_on_c, 0, 55, 101
1, 1789505, Note_off_c, 0, 55, 101
1, 1789618, Note_on_c, 0, 57, 100
1, 1789946, Note_off_c, 0, 57, 100
1, 1792203, Note_on_c, 0, 53, 97
1, 1792573, Note_off_c, 0, 53, 97
1, 1792573, Note_on_c, 0, 65, 95
1, 1792752, Note_off_c, 0, 65, 95
1, 1792811, Note_on_c, 0, 67, 103
1, 1793032, Note_off_c, 0, 67, 103
1, 1793043, Note_on_c, 0, 71, 107
1, 1794124, Note_off_c, 0, 71, 107
1, 1794303, Note_on_c, 0, 67, 108
1, 1794583, Note_off_c, 0, 67, 108
1, 1794583, Note_on_c, 0, 64, 115
1, 1795060, Note_off_c, 0, 64, 115
1, 1795095, Note_on_c, 0, 59, 106
1, 1795429, Note_off_c, 0, 59, 106
1, 1795458, Note_on_c, 0, 54, 99
1, 1795690, Note_off_c, 0, 54, 99
1, 1795719, Note_on_c, 0, 51, 107
1, 1795951, Note_off_c, 0, 51, 107
1, 1796004, Note_on_c, 0, 48, 103
1, 1796213, Note_off_c, 0, 48, 103
1, 1796272, Note_on_c, 0, 47, 102
1, 1796821, Note_off_c, 0, 47, 102
1, 1798792, Note_on_c, 0, 47, 107
1, 1799174, Note_off_c, 0, 47, 107
1, 1799227, Note_on_c, 0, 53, 101
1, 1799543, Note_off_c, 0, 53, 101
1, 1799560, Note_on_c, 0, 47, 102
1, 1800784, Note_off_c, 0, 47, 102
1, 1801022, Note_on_c, 0, 55, 105
1, 1801290, Note_off_c, 0, 55, 105
1, 1801331, Note_on_c, 0, 47, 103
1, 1801617, Note_off_c, 0, 47, 103
1, 1801622, Note_on_c, 0, 48, 98
1, 1802380, Note_off_c, 0, 48, 98
1, 1802589, Note_on_c, 0, 55, 104
1, 1802881, Note_off_c, 0, 55, 104
1, 1802928, Note_on_c, 0, 48, 102
1, 1803411, Note_off_c, 0, 48, 102
1, 1803494, Note_on_c, 0, 55, 101
1, 1803780, Note_off_c, 0, 55, 101
1, 1803815, Note_on_c, 0, 57, 106
1, 1804119, Note_off_c, 0, 57, 106
1, 1805594, Note_on_c, 0, 51, 101
1, 1806000, Note_off_c, 0, 51, 101
1, 1806095, Note_on_c, 0, 55, 95
1, 1806292, Note_off_c, 0, 55, 95
1, 1806321, Note_on_c, 0, 59, 104
1, 1806643, Note_on_c, 0, 49, 103
1, 1806643, Note_off_c, 0, 59, 104
1, 1807126, Note_off_c, 0, 49, 103
1, 1807203, Note_on_c, 0, 51, 100
1, 1807489, Note_off_c, 0, 51, 100
1, 1807566, Note_on_c, 0, 57, 108
1, 1807828, Note_off_c, 0, 57, 108
1, 1807839, Note_on_c, 0, 51, 104
1, 1808358, Note_off_c, 0, 51, 104
1, 1809731, Note_on_c, 0, 50, 103
1, 1810268, Note_off_c, 0, 50, 103
1, 1810268, Note_on_c, 0, 51, 103
1, 1810453, Note_off_c, 0, 51, 103
1, 1810512, Note_on_c, 0, 53, 100
1, 1810792, Note_off_c, 0, 53, 100
1, 1810845, Note_on_c, 0, 55, 99
1, 1811215, Note_off_c, 0, 55, 99
1, 1811328, Note_on_c, 0, 50, 104
1, 1811692, Note_off_c, 0, 50, 104
1, 1811715, Note_on_c, 0, 53, 102
1, 1812013, Note_off_c, 0, 53, 102
1, 1812078, Note_on_c, 0, 57, 101
1, 1812358, Note_off_c, 0, 57, 101
1, 1812525, Note_on_c, 0, 60, 97
1, 1812859, Note_off_c, 0, 60, 97
1, 1812954, Note_on_c, 0, 57, 101
1, 1813222, Note_off_c, 0, 57, 101
1, 1813317, Note_on_c, 0, 60, 95
1, 1813591, Note_off_c, 0, 60, 95
1, 1813656, Note_on_c, 0, 62, 107
1, 1814104, Note_off_c, 0, 62, 107
1, 1814245, Note_on_c, 0, 67, 101
1, 1814455, Note_off_c, 0, 67, 101
1, 1814505, Note_on_c, 0, 62, 101
1, 1815017, Note_off_c, 0, 62, 101
1, 1816268, Note_on_c, 0, 62, 106
1, 1816549, Note_off_c, 0, 62, 106
1, 1816721, Note_on_c, 0, 65, 101
1, 1816968, Note_off_c, 0, 65, 101
1, 1817102, Note_on_c, 0, 69, 101
1, 1817429, Note_off_c, 0, 69, 101
1, 1817508, Note_on_c, 0, 71, 102
1, 1817772, Note_off_c, 0, 71, 102
1, 1817793, Note_on_c, 0, 66, 104
1, 1818242, Note_off_c, 0, 66, 104
1, 1818300, Note_on_c, 0, 69, 102
1, 1818690, Note_off_c, 0, 69, 102
1, 1818736, Note_on_c, 0, 67, 90
1, 1818975, Note_off_c, 0, 67, 90
1, 1819113, Note_on_c, 0, 71, 105
1, 1819482, Note_off_c, 0, 71, 105
1, 1819561, Note_on_c, 0, 62, 102
1, 1819993, Note_off_c, 0, 62, 102
1, 1819993, Note_on_c, 0, 65, 98
1, 1820182, Note_off_c, 0, 65, 98
1, 1820194, Note_on_c, 0, 69, 94
1, 1820387, Note_off_c, 0, 69, 94
1, 1820420, Note_on_c, 0, 71, 93
1, 1820634, Note_off_c, 0, 71, 93
1, 1821041, Note_on_c, 0, 79, 108
1, 1821784, Note_off_c, 0, 79, 108
1, 1825308, Note_on_c, 0, 56, 110
1, 1825773, Note_off_c, 0, 56, 110
1, 1825788, Note_on_c, 0, 68, 99
1, 1826040, Note_off_c, 0, 68, 99
1, 1826119, Note_on_c, 0, 59, 103
1, 1826413, Note_off_c, 0, 59, 103
1, 1826429, Note_on_c, 0, 58, 94
1, 1826744, Note_off_c, 0, 58, 94
1, 1826748, Note_on_c, 0, 59, 95
1, 1827029, Note_off_c, 0, 59, 95
1, 1827037, Note_on_c, 0, 58, 95
1, 1827305, Note_off_c, 0, 58, 95
1, 1827405, Note_on_c, 0, 68, 92
1, 1827665, Note_off_c, 0, 68, 92
1, 1827899, Note_on_c, 0, 58, 95
1, 1828962, Note_off_c, 0, 58, 95
1, 1829075, Note_on_c, 0, 68, 88
1, 1829415, Note_off_c, 0, 68, 88
1, 1829462, Note_on_c, 0, 63, 94
1, 1829814, Note_off_c, 0, 63, 94
1, 1829891, Note_on_c, 0, 66, 88
1, 1830141, Note_off_c, 0, 66, 88
1, 1830236, Note_on_c, 0, 70, 83
1, 1830564, Note_off_c, 0, 70, 83
1, 1831937, Note_on_c, 0, 47, 101
1, 1832420, Note_off_c, 0, 47, 101
1, 1832455, Note_on_c, 0, 54, 98
1, 1832670, Note_off_c, 0, 54, 98
1, 1832873, Note_on_c, 0, 68, 88
1, 1833082, Note_off_c, 0, 68, 88
1, 1833135, Note_on_c, 0, 67, 98
1, 1833600, Note_off_c, 0, 67, 98
1, 1833600, Note_on_c, 0, 70, 91
1, 1833958, Note_off_c, 0, 70, 91
1, 1834011, Note_on_c, 0, 66, 96
1, 1834321, Note_on_c, 0, 63, 100
1, 1834321, Note_off_c, 0, 66, 96
1, 1834703, Note_off_c, 0, 63, 100
1, 1834708, Note_on_c, 0, 65, 97
1, 1834909, Note_on_c, 0, 66, 95
1, 1834909, Note_off_c, 0, 65, 97
1, 1835072, Note_off_c, 0, 66, 95
1, 1835072, Note_on_c, 0, 68, 97
1, 1835441, Note_off_c, 0, 68, 97
1, 1835449, Note_on_c, 0, 67, 104
1, 1835881, Note_off_c, 0, 67, 104
1, 1835931, Note_on_c, 0, 69, 93
1, 1836355, Note_off_c, 0, 69, 93
1, 1838513, Note_on_c, 0, 61, 100
1, 1838718, Note_off_c, 0, 61, 100
1, 1838747, Note_on_c, 0, 62, 98
1, 1838923, Note_off_c, 0, 62, 98
1, 1838923, Note_on_c, 0, 63, 93
1, 1839280, Note_off_c, 0, 63, 93
1, 1839301, Note_on_c, 0, 68, 90
1, 1839649, Note_off_c, 0, 68, 90
1, 1839758, Note_on_c, 0, 67, 100
1, 1840165, Note_off_c, 0, 67, 100
1, 1840181, Note_on_c, 0, 69, 103
1, 1840512, Note_off_c, 0, 69, 103
1, 1840512, Note_on_c, 0, 68, 94
1, 1840688, Note_off_c, 0, 68, 94
1, 1840688, Note_on_c, 0, 63, 103
1, 1840998, Note_off_c, 0, 63, 103
1, 1840998, Note_on_c, 0, 66, 100
1, 1841187, Note_off_c, 0, 66, 100
1, 1841187, Note_on_c, 0, 64, 101
1, 1841611, Note_off_c, 0, 64, 101
1, 1842614, Note_on_c, 0, 64, 99
1, 1843084, Note_off_c, 0, 64, 99
1, 1843121, Note_on_c, 0, 67, 90
1, 1843352, Note_off_c, 0, 67, 90
1, 1843364, Note_on_c, 0, 69, 97
1, 1843834, Note_off_c, 0, 69, 97
1, 1843897, Note_on_c, 0, 62, 103
1, 1844186, Note_off_c, 0, 62, 103
1, 1844186, Note_on_c, 0, 68, 102
1, 1844584, Note_off_c, 0, 68, 102
1, 1844621, Note_on_c, 0, 67, 108
1, 1845041, Note_off_c, 0, 67, 108
1, 1845087, Note_on_c, 0, 65, 101
1, 1845473, Note_off_c, 0, 65, 101
1, 1845561, Note_on_c, 0, 69, 99
1, 1846014, Note_off_c, 0, 69, 99
1, 1846081, Note_on_c, 0, 60, 98
1, 1846404, Note_off_c, 0, 60, 98
1, 1846496, Note_on_c, 0, 65, 103
1, 1846760, Note_off_c, 0, 65, 103
1, 1846852, Note_on_c, 0, 69, 100
1, 1847263, Note_off_c, 0, 69, 100
1, 1847284, Note_on_c, 0, 71, 99
1, 1847641, Note_off_c, 0, 71, 99
1, 1847645, Note_on_c, 0, 63, 108
1, 1848140, Note_off_c, 0, 63, 108
1, 1848156, Note_on_c, 0, 66, 96
1, 1848525, Note_off_c, 0, 66, 96
1, 1848617, Note_on_c, 0, 70, 95
1, 1849007, Note_off_c, 0, 70, 95
1, 1849053, Note_on_c, 0, 71, 103
1, 1849477, Note_off_c, 0, 71, 103
1, 1849493, Note_on_c, 0, 68, 101
1, 1849845, Note_off_c, 0, 68, 101
1, 1849950, Note_on_c, 0, 63, 105
1, 1850487, Note_off_c, 0, 63, 105
1, 1852847, Note_on_c, 0, 70, 80
1, 1853170, Note_off_c, 0, 70, 80
1, 1853560, Note_on_c, 0, 62, 107
1, 1854013, Note_off_c, 0, 62, 107
1, 1854088, Note_on_c, 0, 65, 109
1, 1854470, Note_off_c, 0, 65, 109
1, 1854486, Note_on_c, 0, 63, 116
1, 1854947, Note_on_c, 0, 65, 104
1, 1854947, Note_off_c, 0, 63, 116
1, 1855123, Note_off_c, 0, 65, 104
1, 1855177, Note_on_c, 0, 70, 105
1, 1855529, Note_off_c, 0, 70, 105
1, 1855571, Note_on_c, 0, 61, 97
1, 1855726, Note_off_c, 0, 61, 97
1, 1855759, Note_on_c, 0, 61, 107
1, 1856015, Note_off_c, 0, 61, 107
1, 1856027, Note_on_c, 0, 58, 100
1, 1856379, Note_off_c, 0, 58, 100
1, 1856504, Note_on_c, 0, 54, 102
1, 1856718, Note_off_c, 0, 54, 102
1, 1856722, Note_on_c, 0, 53, 102
1, 1856848, Note_off_c, 0, 53, 102
1, 1856982, Note_on_c, 0, 49, 99
1, 1857280, Note_off_c, 0, 49, 99
1, 1857280, Note_on_c, 0, 54, 99
1, 1857716, Note_off_c, 0, 54, 99
1, 1857799, Note_on_c, 0, 49, 102
1, 1858080, Note_off_c, 0, 49, 102
1, 1858164, Note_on_c, 0, 54, 99
1, 1858600, Note_off_c, 0, 54, 99
1, 1858600, Note_on_c, 0, 67, 105
1, 1858910, Note_off_c, 0, 67, 105
1, 1858939, Note_on_c, 0, 62, 101
1, 1859367, Note_off_c, 0, 62, 101
1, 1859371, Note_on_c, 0, 67, 107
1, 1859618, Note_off_c, 0, 67, 107
1, 1859618, Note_on_c, 0, 68, 106
1, 1859891, Note_off_c, 0, 68, 106
1, 1859924, Note_on_c, 0, 67, 107
1, 1860491, Note_off_c, 0, 67, 107
1, 1860751, Note_on_c, 0, 67, 105
1, 1860923, Note_off_c, 0, 67, 105
1, 1860923, Note_on_c, 0, 68, 107
1, 1861338, Note_off_c, 0, 68, 107
1, 1861359, Note_on_c, 0, 67, 98
1, 1862085, Note_off_c, 0, 67, 98
1, 1862345, Note_on_c, 0, 67, 102
1, 1862622, Note_off_c, 0, 67, 102
1, 1862643, Note_on_c, 0, 64, 106
1, 1863004, Note_off_c, 0, 64, 106
1, 1863046, Note_on_c, 0, 66, 110
1, 1863243, Note_off_c, 0, 66, 110
1, 1863272, Note_on_c, 0, 67, 92
1, 1863767, Note_off_c, 0, 67, 92
1, 1863897, Note_on_c, 0, 71, 101
1, 1864228, Note_off_c, 0, 71, 101
1, 1864362, Note_on_c, 0, 63, 108
1, 1864756, Note_off_c, 0, 63, 108
1, 1864852, Note_on_c, 0, 68, 94
1, 1865095, Note_off_c, 0, 68, 94
1, 1865120, Note_on_c, 0, 71, 108
1, 1865422, Note_off_c, 0, 71, 108
1, 1865422, Note_on_c, 0, 70, 104
1, 1865573, Note_off_c, 0, 70, 104
1, 1865669, Note_on_c, 0, 68, 102
1, 1865962, Note_off_c, 0, 68, 102
1, 1865962, Note_on_c, 0, 70, 101
1, 1866382, Note_off_c, 0, 70, 101
1, 1866449, Note_on_c, 0, 68, 107
1, 1866696, Note_off_c, 0, 68, 107
1, 1866712, Note_on_c, 0, 67, 103
1, 1867270, Note_off_c, 0, 67, 103
1, 1867345, Note_on_c, 0, 67, 99
1, 1867832, Note_off_c, 0, 67, 99
1, 1867903, Note_on_c, 0, 60, 102
1, 1868180, Note_off_c, 0, 60, 102
1, 1868293, Note_on_c, 0, 65, 98
1, 1868532, Note_off_c, 0, 65, 98
1, 1868590, Note_on_c, 0, 69, 90
1, 1868909, Note_off_c, 0, 69, 90
1, 1868909, Note_on_c, 0, 74, 87
1, 1869051, Note_off_c, 0, 74, 87
1, 1869059, Note_on_c, 0, 73, 97
1, 1869239, Note_off_c, 0, 73, 97
1, 1869255, Note_on_c, 0, 71, 95
1, 1869557, Note_off_c, 0, 71, 95
1, 1869561, Note_on_c, 0, 69, 94
1, 1869728, Note_off_c, 0, 69, 94
1, 1869870, Note_on_c, 0, 65, 100
1, 1870168, Note_off_c, 0, 65, 100
1, 1870226, Note_on_c, 0, 62, 97
1, 1870734, Note_off_c, 0, 62, 97
1, 1870767, Note_on_c, 0, 57, 99
1, 1870989, Note_off_c, 0, 57, 99
1, 1871089, Note_on_c, 0, 65, 106
1, 1871853, Note_off_c, 0, 65, 106
1, 1871869, Note_on_c, 0, 67, 100
1, 1872717, Note_off_c, 0, 67, 100
1, 1872732, Note_on_c, 0, 69, 108
1, 1873150, Note_off_c, 0, 69, 108
1, 1873191, Note_on_c, 0, 68, 109
1, 1873376, Note_off_c, 0, 68, 109
1, 1873376, Note_on_c, 0, 65, 91
1, 1873764, Note_off_c, 0, 65, 91
1, 1873764, Note_on_c, 0, 64, 82
1, 1874044, Note_off_c, 0, 64, 82
1, 1878162, Note_on_c, 0, 62, 99
1, 1878632, Note_off_c, 0, 62, 99
1, 1878657, Note_on_c, 0, 65, 94
1, 1878913, Note_off_c, 0, 65, 94
1, 1878913, Note_on_c, 0, 67, 94
1, 1879286, Note_on_c, 0, 69, 94
1, 1879286, Note_off_c, 0, 67, 94
1, 1879651, Note_off_c, 0, 69, 94
1, 1879701, Note_on_c, 0, 62, 91
1, 1880020, Note_off_c, 0, 62, 91
1, 1880049, Note_on_c, 0, 65, 98
1, 1880595, Note_off_c, 0, 65, 98
1, 1880628, Note_on_c, 0, 67, 101
1, 1880976, Note_off_c, 0, 67, 101
1, 1880988, Note_on_c, 0, 69, 105
1, 1881340, Note_off_c, 0, 69, 105
1, 1881524, Note_on_c, 0, 62, 100
1, 1881918, Note_off_c, 0, 62, 100
1, 1881947, Note_on_c, 0, 65, 97
1, 1882253, Note_off_c, 0, 65, 97
1, 1882307, Note_on_c, 0, 67, 93
1, 1882550, Note_off_c, 0, 67, 93
1, 1882596, Note_on_c, 0, 69, 97
1, 1882953, Note_off_c, 0, 69, 97
1, 1882953, Note_on_c, 0, 68, 90
1, 1883263, Note_off_c, 0, 68, 90
1, 1886068, Note_on_c, 0, 69, 94
1, 1886534, Note_off_c, 0, 69, 94
1, 1886651, Note_on_c, 0, 62, 94
1, 1887096, Note_off_c, 0, 62, 94
1, 1887150, Note_on_c, 0, 66, 89
1, 1887439, Note_off_c, 0, 66, 89
1, 1887439, Note_on_c, 0, 67, 91
1, 1887674, Note_off_c, 0, 67, 91
1, 1887707, Note_on_c, 0, 69, 101
1, 1888211, Note_off_c, 0, 69, 101
1, 1888437, Note_on_c, 0, 62, 91
1, 1888819, Note_off_c, 0, 62, 91
1, 1888869, Note_on_c, 0, 65, 95
1, 1889079, Note_off_c, 0, 65, 95
1, 1889079, Note_on_c, 0, 67, 94
1, 1889293, Note_off_c, 0, 67, 94
1, 1889293, Note_on_c, 0, 69, 104
1, 1889780, Note_off_c, 0, 69, 104
1, 1889792, Note_on_c, 0, 62, 110
1, 1890388, Note_off_c, 0, 62, 110
1, 1894415, Note_on_c, 0, 68, 95
1, 1894797, Note_off_c, 0, 68, 95
1, 1894830, Note_on_c, 0, 67, 97
1, 1895145, Note_off_c, 0, 67, 97
1, 1895212, Note_on_c, 0, 69, 100
1, 1896102, Note_off_c, 0, 69, 100
1, 1896102, Note_on_c, 0, 67, 102
1, 1896429, Note_off_c, 0, 67, 102
1, 1896445, Note_on_c, 0, 69, 105
1, 1896722, Note_off_c, 0, 69, 105
1, 1896742, Note_on_c, 0, 67, 104
1, 1897275, Note_off_c, 0, 67, 104
1, 1897317, Note_on_c, 0, 65, 103
1, 1898971, Note_off_c, 0, 65, 103
1, 1899013, Note_on_c, 0, 62, 105
1, 1899349, Note_off_c, 0, 62, 105
1, 1899382, Note_on_c, 0, 65, 105
1, 1900095, Note_off_c, 0, 65, 105
1, 1900153, Note_on_c, 0, 67, 106
1, 1900447, Note_off_c, 0, 67, 106
1, 1900539, Note_on_c, 0, 62, 107
1, 1901202, Note_off_c, 0, 62, 107
1, 1904971, Note_on_c, 0, 64, 108
1, 1905263, Note_off_c, 0, 64, 108
1, 1905280, Note_on_c, 0, 65, 105
1, 1905518, Note_off_c, 0, 65, 105
1, 1905553, Note_on_c, 0, 67, 104
1, 1905911, Note_off_c, 0, 67, 104
1, 1905946, Note_on_c, 0, 69, 109
1, 1906382, Note_off_c, 0, 69, 109
1, 1906441, Note_on_c, 0, 64, 110
1, 1906930, Note_off_c, 0, 64, 110
1, 1906965, Note_on_c, 0, 65, 111
1, 1907311, Note_off_c, 0, 65, 111
1, 1907311, Note_on_c, 0, 67, 104
1, 1907567, Note_off_c, 0, 67, 104
1, 1907584, Note_on_c, 0, 69, 109
1, 1907954, Note_off_c, 0, 69, 109
1, 1908055, Note_on_c, 0, 64, 116
1, 1908532, Note_off_c, 0, 64, 116
1, 1908532, Note_on_c, 0, 65, 108
1, 1908753, Note_off_c, 0, 65, 108
1, 1908788, Note_on_c, 0, 67, 101
1, 1909092, Note_off_c, 0, 67, 101
1, 1909103, Note_on_c, 0, 69, 108
1, 1909353, Note_off_c, 0, 69, 108
1, 1909388, Note_on_c, 0, 68, 101
1, 1909549, Note_off_c, 0, 68, 101
1, 1909728, Note_on_c, 0, 64, 105
1, 1910176, Note_off_c, 0, 64, 105
1, 1910199, Note_on_c, 0, 65, 99
1, 1910437, Note_off_c, 0, 65, 99
1, 1910496, Note_on_c, 0, 67, 96
1, 1910806, Note_off_c, 0, 67, 96
1, 1910823, Note_on_c, 0, 69, 95
1, 1911205, Note_off_c, 0, 69, 95
1, 1911676, Note_on_c, 0, 83, 103
1, 1911974, Note_off_c, 0, 83, 103
1, 1912756, Note_on_c, 0, 69, 101
1, 1913365, Note_off_c, 0, 69, 101
1, 1913436, Note_on_c, 0, 74, 100
1, 1913722, Note_off_c, 0, 74, 100
1, 1914498, Note_on_c, 0, 69, 99
1, 1915059, Note_off_c, 0, 69, 99
1, 1915339, Note_on_c, 0, 74, 98
1, 1915876, Note_off_c, 0, 74, 98
1, 1916013, Note_on_c, 0, 69, 99
1, 1916472, Note_off_c, 0, 69, 99
1, 1916489, Note_on_c, 0, 68, 94
1, 1916978, Note_off_c, 0, 68, 94
1, 1919170, Note_on_c, 0, 69, 96
1, 1919355, Note_off_c, 0, 69, 96
1, 1919355, Note_on_c, 0, 71, 100
1, 1919570, Note_off_c, 0, 71, 100
1, 1919570, Note_on_c, 0, 69, 100
1, 1919701, Note_off_c, 0, 69, 100
1, 1919730, Note_on_c, 0, 68, 99
1, 1919998, Note_off_c, 0, 68, 99
1, 1920033, Note_on_c, 0, 69, 101
1, 1920361, Note_off_c, 0, 69, 101
1, 1920474, Note_on_c, 0, 74, 98
1, 1920706, Note_off_c, 0, 74, 98
1, 1920849, Note_on_c, 0, 68, 108
1, 1921500, Note_off_c, 0, 68, 108
1, 1921571, Note_on_c, 0, 74, 96
1, 1922180, Note_off_c, 0, 74, 96
1, 1922227, Note_on_c, 0, 71, 104
1, 1922621, Note_off_c, 0, 71, 104
1, 1922626, Note_on_c, 0, 67, 104
1, 1923002, Note_off_c, 0, 67, 104
1, 1923043, Note_on_c, 0, 66, 95
1, 1923807, Note_off_c, 0, 66, 95
1, 1923808, Note_on_c, 0, 68, 98
1, 1924114, Note_off_c, 0, 68, 98
1, 1924114, Note_on_c, 0, 66, 98
1, 1924706, Note_off_c, 0, 66, 98
1, 1925890, Note_on_c, 0, 66, 102
1, 1926338, Note_off_c, 0, 66, 102
1, 1926338, Note_on_c, 0, 65, 102
1, 1926594, Note_off_c, 0, 65, 102
1, 1926594, Note_on_c, 0, 66, 96
1, 1927107, Note_off_c, 0, 66, 96
1, 1927154, Note_on_c, 0, 70, 103
1, 1927500, Note_off_c, 0, 70, 103
1, 1927547, Note_on_c, 0, 65, 98
1, 1928042, Note_off_c, 0, 65, 98
1, 1928042, Note_on_c, 0, 64, 103
1, 1928358, Note_off_c, 0, 64, 103
1, 1928441, Note_on_c, 0, 65, 98
1, 1928793, Note_off_c, 0, 65, 98
1, 1928906, Note_on_c, 0, 67, 101
1, 1929109, Note_off_c, 0, 67, 101
1, 1929126, Note_on_c, 0, 62, 97
1, 1929669, Note_off_c, 0, 62, 97
1, 1932655, Note_on_c, 0, 66, 98
1, 1933007, Note_off_c, 0, 66, 98
1, 1933007, Note_on_c, 0, 65, 97
1, 1933287, Note_off_c, 0, 65, 97
1, 1933287, Note_on_c, 0, 66, 99
1, 1933824, Note_off_c, 0, 66, 99
1, 1933949, Note_on_c, 0, 70, 103
1, 1934241, Note_off_c, 0, 70, 103
1, 1934270, Note_on_c, 0, 69, 102
1, 1934735, Note_off_c, 0, 69, 102
1, 1934794, Note_on_c, 0, 68, 98
1, 1935146, Note_off_c, 0, 68, 98
1, 1935187, Note_on_c, 0, 63, 106
1, 1935527, Note_off_c, 0, 63, 106
1, 1935664, Note_on_c, 0, 70, 100
1, 1935902, Note_off_c, 0, 70, 100
1, 1935925, Note_on_c, 0, 67, 107
1, 1936623, Note_off_c, 0, 67, 107
1, 1936623, Note_on_c, 0, 68, 104
1, 1937333, Note_off_c, 0, 68, 104
1, 1937685, Note_on_c, 0, 67, 107
1, 1938138, Note_off_c, 0, 67, 107
1, 1938173, Note_on_c, 0, 68, 100
1, 1938382, Note_off_c, 0, 68, 100
1, 1938417, Note_on_c, 0, 70, 102
1, 1938942, Note_off_c, 0, 70, 102
1, 1939157, Note_on_c, 0, 68, 99
1, 1939354, Note_off_c, 0, 68, 99
1, 1939383, Note_on_c, 0, 64, 106
1, 1939938, Note_off_c, 0, 64, 106
1, 1939943, Note_on_c, 0, 66, 97
1, 1940158, Note_off_c, 0, 66, 97
1, 1940175, Note_on_c, 0, 68, 97
1, 1940491, Note_off_c, 0, 68, 97
1, 1940562, Note_on_c, 0, 69, 102
1, 1940938, Note_off_c, 0, 69, 102
1, 1940997, Note_on_c, 0, 65, 99
1, 1941427, Note_off_c, 0, 65, 99
1, 1941462, Note_on_c, 0, 61, 103
1, 1941766, Note_on_c, 0, 59, 101
1, 1941766, Note_off_c, 0, 61, 103
1, 1942160, Note_off_c, 0, 59, 101
1, 1942195, Note_on_c, 0, 58, 98
1, 1942559, Note_off_c, 0, 58, 98
1, 1942576, Note_on_c, 0, 57, 97
1, 1943095, Note_off_c, 0, 57, 97
1, 1943118, Note_on_c, 0, 56, 96
1, 1943494, Note_on_c, 0, 55, 93
1, 1943494, Note_off_c, 0, 56, 96
1, 1943792, Note_off_c, 0, 55, 93
1, 1943905, Note_on_c, 0, 59, 96
1, 1944251, Note_off_c, 0, 59, 96
1, 1944328, Note_on_c, 0, 57, 95
1, 1945128, Note_off_c, 0, 57, 95
1, 1948921, Note_on_c, 0, 59, 92
1, 1949207, Note_off_c, 0, 59, 92
1, 1949242, Note_on_c, 0, 58, 91
1, 1949624, Note_off_c, 0, 58, 91
1, 1949695, Note_on_c, 0, 54, 93
1, 1950023, Note_off_c, 0, 54, 93
1, 1950082, Note_on_c, 0, 53, 100
1, 1950470, Note_off_c, 0, 53, 100
1, 1950481, Note_on_c, 0, 51, 100
1, 1950893, Note_off_c, 0, 51, 100
1, 1951066, Note_on_c, 0, 56, 91
1, 1952218, Note_off_c, 0, 56, 91
1, 1952247, Note_on_c, 0, 53, 98
1, 1952593, Note_off_c, 0, 53, 98
1, 1952593, Note_on_c, 0, 48, 101
1, 1952987, Note_off_c, 0, 48, 101
1, 1953040, Note_on_c, 0, 53, 101
1, 1953350, Note_off_c, 0, 53, 101
1, 1953397, Note_on_c, 0, 51, 107
1, 1953761, Note_off_c, 0, 51, 107
1, 1953788, Note_on_c, 0, 45, 107
1, 1954295, Note_off_c, 0, 45, 107
1, 1959238, Note_on_c, 0, 67, 97
1, 1960296, Note_off_c, 0, 67, 97
1, 1960312, Note_on_c, 0, 71, 103
1, 1960740, Note_on_c, 0, 69, 105
1, 1960740, Note_off_c, 0, 71, 103
1, 1961126, Note_off_c, 0, 69, 105
1, 1961176, Note_on_c, 0, 66, 101
1, 1961495, Note_off_c, 0, 66, 101
1, 1961520, Note_on_c, 0, 65, 102
1, 1961797, Note_off_c, 0, 65, 102
1, 1961855, Note_on_c, 0, 64, 108
1, 1962241, Note_off_c, 0, 64, 108
1, 1962257, Note_on_c, 0, 63, 111
1, 1962903, Note_off_c, 0, 63, 111
1, 1965927, Note_on_c, 0, 63, 105
1, 1966262, Note_on_c, 0, 62, 104
1, 1966262, Note_off_c, 0, 63, 105
1, 1966732, Note_off_c, 0, 62, 104
1, 1966732, Note_on_c, 0, 63, 112
1, 1967118, Note_off_c, 0, 63, 112
1, 1967210, Note_on_c, 0, 65, 104
1, 1967621, Note_off_c, 0, 65, 104
1, 1967663, Note_on_c, 0, 66, 100
1, 1968099, Note_off_c, 0, 66, 100
1, 1968124, Note_on_c, 0, 68, 98
1, 1968653, Note_off_c, 0, 68, 98
1, 1968770, Note_on_c, 0, 70, 59
1, 1969080, Note_off_c, 0, 70, 59
1, 1969113, Note_on_c, 0, 62, 112
1, 1969667, Note_off_c, 0, 62, 112
1, 1969667, Note_on_c, 0, 61, 112
1, 1969902, Note_off_c, 0, 61, 112
1, 1969902, Note_on_c, 0, 59, 106
1, 1970515, Note_off_c, 0, 59, 106
1, 1972497, Note_on_c, 0, 61, 110
1, 1972900, Note_off_c, 0, 61, 110
1, 1972950, Note_on_c, 0, 63, 110
1, 1973638, Note_off_c, 0, 63, 110
1, 1973847, Note_on_c, 0, 65, 110
1, 1974149, Note_off_c, 0, 65, 110
1, 1974191, Note_on_c, 0, 60, 108
1, 1974703, Note_on_c, 0, 66, 109
1, 1974703, Note_off_c, 0, 60, 108
1, 1975047, Note_off_c, 0, 66, 109
1, 1975055, Note_on_c, 0, 69, 113
1, 1975575, Note_off_c, 0, 69, 113
1, 1975575, Note_on_c, 0, 71, 112
1, 1975969, Note_off_c, 0, 71, 112
1, 1975969, Note_on_c, 0, 67, 108
1, 1976271, Note_off_c, 0, 67, 108
1, 1976329, Note_on_c, 0, 62, 107
1, 1976866, Note_off_c, 0, 62, 107
1, 1976874, Note_on_c, 0, 58, 102
1, 1977352, Note_off_c, 0, 58, 102
1, 1977678, Note_on_c, 0, 63, 121
1, 1978167, Note_off_c, 0, 63, 121
1, 1978208, Note_on_c, 0, 62, 108
1, 1978536, Note_off_c, 0, 62, 108
1, 1978536, Note_on_c, 0, 63, 112
1, 1978936, Note_off_c, 0, 63, 112
1, 1978953, Note_on_c, 0, 67, 110
1, 1979257, Note_off_c, 0, 67, 110
1, 1979304, Note_on_c, 0, 64, 117
1, 1979757, Note_off_c, 0, 64, 117
1, 1979757, Note_on_c, 0, 66, 107
1, 1980103, Note_off_c, 0, 66, 107
1, 1980114, Note_on_c, 0, 68, 106
1, 1980436, Note_off_c, 0, 68, 106
1, 1980686, Note_on_c, 0, 70, 105
1, 1980996, Note_off_c, 0, 70, 105
1, 1981055, Note_on_c, 0, 66, 103
1, 1981437, Note_off_c, 0, 66, 103
1, 1981496, Note_on_c, 0, 63, 114
1, 1981860, Note_off_c, 0, 63, 114
1, 1981901, Note_on_c, 0, 59, 109
1, 1982235, Note_off_c, 0, 59, 109
1, 1982294, Note_on_c, 0, 58, 108
1, 1982652, Note_off_c, 0, 58, 108
1, 1982663, Note_on_c, 0, 57, 110
1, 1983087, Note_off_c, 0, 57, 110
1, 1983206, Note_on_c, 0, 56, 107
1, 1983534, Note_off_c, 0, 56, 107
1, 1983534, Note_on_c, 0, 55, 100
1, 1983934, Note_off_c, 0, 55, 100
1, 1983999, Note_on_c, 0, 59, 109
1, 1984393, Note_off_c, 0, 59, 109
1, 1984434, Note_on_c, 0, 57, 111
1, 1984684, Note_off_c, 0, 57, 111
1, 1984695, Note_on_c, 0, 62, 109
1, 1985107, Note_off_c, 0, 62, 109
1, 1985202, Note_on_c, 0, 65, 108
1, 1985697, Note_off_c, 0, 65, 108
1, 1985708, Note_on_c, 0, 62, 113
1, 1986156, Note_off_c, 0, 62, 113
1, 1986490, Note_on_c, 0, 62, 112
1, 1986896, Note_off_c, 0, 62, 112
1, 1986943, Note_on_c, 0, 57, 103
1, 1987671, Note_off_c, 0, 57, 103
1, 1989463, Note_on_c, 0, 57, 103
1, 1990669, Note_off_c, 0, 57, 103
1, 1990788, Note_on_c, 0, 52, 99
1, 1991140, Note_off_c, 0, 52, 99
1, 1991140, Note_on_c, 0, 57, 106
1, 1991737, Note_off_c, 0, 57, 106
1, 1991999, Note_on_c, 0, 53, 108
1, 1992291, Note_off_c, 0, 53, 108
1, 1992338, Note_on_c, 0, 50, 108
1, 1992905, Note_off_c, 0, 50, 108
1, 1995658, Note_on_c, 0, 69, 97
1, 1996434, Note_off_c, 0, 69, 97
1, 1996451, Note_on_c, 0, 70, 105
1, 1996648, Note_off_c, 0, 70, 105
1, 1996689, Note_on_c, 0, 69, 94
1, 1997208, Note_off_c, 0, 69, 94
1, 1997745, Note_on_c, 0, 49, 107
1, 1998234, Note_off_c, 0, 49, 107
1, 1998783, Note_on_c, 0, 66, 102
1, 1999057, Note_off_c, 0, 66, 102
1, 1999122, Note_on_c, 0, 68, 97
1, 1999372, Note_off_c, 0, 68, 97
1, 1999431, Note_on_c, 0, 66, 118
1, 1999944, Note_off_c, 0, 66, 118
1, 2000021, Note_on_c, 0, 64, 108
1, 2000337, Note_off_c, 0, 64, 108
1, 2000378, Note_on_c, 0, 69, 108
1, 2000736, Note_off_c, 0, 69, 108
1, 2000789, Note_on_c, 0, 70, 101
1, 2001010, Note_off_c, 0, 70, 101
1, 2001010, Note_on_c, 0, 58, 100
1, 2001571, Note_off_c, 0, 58, 100
1, 2006263, Note_on_c, 0, 61, 96
1, 2006439, Note_off_c, 0, 61, 96
1, 2006447, Note_on_c, 0, 63, 94
1, 2006682, Note_off_c, 0, 63, 94
1, 2006715, Note_on_c, 0, 65, 98
1, 2007387, Note_off_c, 0, 65, 98
1, 2007412, Note_on_c, 0, 70, 99
1, 2007739, Note_off_c, 0, 70, 99
1, 2007923, Note_on_c, 0, 63, 109
1, 2008250, Note_off_c, 0, 63, 109
1, 2008350, Note_on_c, 0, 66, 101
1, 2008585, Note_off_c, 0, 66, 101
1, 2008652, Note_on_c, 0, 68, 97
1, 2008878, Note_off_c, 0, 68, 97
1, 2009045, Note_on_c, 0, 63, 106
1, 2009397, Note_off_c, 0, 63, 106
1, 2009422, Note_on_c, 0, 61, 110
1, 2009732, Note_off_c, 0, 61, 110
1, 2009782, Note_on_c, 0, 59, 103
1, 2010126, Note_off_c, 0, 59, 103
1, 2010134, Note_on_c, 0, 58, 103
1, 2010587, Note_off_c, 0, 58, 103
1, 2010662, Note_on_c, 0, 57, 104
1, 2011174, Note_off_c, 0, 57, 104
1, 2013030, Note_on_c, 0, 57, 100
1, 2014205, Note_on_c, 0, 59, 102
1, 2014205, Note_off_c, 0, 57, 100
1, 2014557, Note_off_c, 0, 59, 102
1, 2014565, Note_on_c, 0, 61, 105
1, 2014850, Note_off_c, 0, 61, 105
1, 2014917, Note_on_c, 0, 62, 108
1, 2015412, Note_off_c, 0, 62, 108
1, 2015437, Note_on_c, 0, 64, 116
1, 2015865, Note_off_c, 0, 64, 116
1, 2015881, Note_on_c, 0, 61, 100
1, 2016275, Note_off_c, 0, 61, 100
1, 2016275, Note_on_c, 0, 62, 111
1, 2016459, Note_off_c, 0, 62, 111
1, 2016576, Note_on_c, 0, 64, 115
1, 2017096, Note_off_c, 0, 64, 115
1, 2017129, Note_on_c, 0, 65, 107
1, 2017406, Note_off_c, 0, 65, 107
1, 2017490, Note_on_c, 0, 67, 108
1, 2017817, Note_off_c, 0, 67, 108
1, 2017939, Note_on_c, 0, 61, 106
1, 2018315, Note_off_c, 0, 61, 106
1, 2018452, Note_on_c, 0, 66, 98
1, 2018702, Note_off_c, 0, 66, 98
1, 2018749, Note_on_c, 0, 68, 100
1, 2019113, Note_off_c, 0, 68, 100
1, 2019172, Note_on_c, 0, 71, 107
1, 2019369, Note_off_c, 0, 71, 107
1, 2019369, Note_on_c, 0, 70, 110
1, 2019542, Note_off_c, 0, 70, 110
1, 2019553, Note_on_c, 0, 67, 110
1, 2019995, Note_off_c, 0, 67, 110
1, 2020066, Note_on_c, 0, 66, 102
1, 2020418, Note_off_c, 0, 66, 102
1, 2020447, Note_on_c, 0, 69, 99
1, 2020751, Note_off_c, 0, 69, 99
1, 2020828, Note_on_c, 0, 71, 111
1, 2021204, Note_off_c, 0, 71, 111
1, 2021317, Note_on_c, 0, 62, 109
1, 2021681, Note_off_c, 0, 62, 109
1, 2021752, Note_on_c, 0, 60, 104
1, 2022002, Note_off_c, 0, 60, 104
1, 2022091, Note_on_c, 0, 59, 108
1, 2022509, Note_off_c, 0, 59, 108
1, 2022509, Note_on_c, 0, 55, 93
1, 2022783, Note_off_c, 0, 55, 93
1, 2022974, Note_on_c, 0, 63, 119
1, 2023457, Note_off_c, 0, 63, 119
1, 2023492, Note_on_c, 0, 62, 108
1, 2023760, Note_off_c, 0, 62, 108
1, 2023765, Note_on_c, 0, 63, 114
1, 2024201, Note_off_c, 0, 63, 114
1, 2024248, Note_on_c, 0, 65, 112
1, 2024779, Note_off_c, 0, 65, 112
1, 2024790, Note_on_c, 0, 66, 105
1, 2025088, Note_off_c, 0, 66, 105
1, 2025147, Note_on_c, 0, 67, 106
1, 2026855, Note_off_c, 0, 67, 106
1, 2026902, Note_on_c, 0, 70, 107
1, 2027320, Note_off_c, 0, 70, 107
1, 2027320, Note_on_c, 0, 63, 121
1, 2027785, Note_off_c, 0, 63, 121
1, 2027785, Note_on_c, 0, 62, 109
1, 2028006, Note_off_c, 0, 62, 109
1, 2028041, Note_on_c, 0, 61, 103
1, 2028572, Note_off_c, 0, 61, 103
1, 2028601, Note_on_c, 0, 62, 104
1, 2028899, Note_off_c, 0, 62, 104
1, 2028940, Note_on_c, 0, 63, 105
1, 2029166, Note_off_c, 0, 63, 105
1, 2029243, Note_on_c, 0, 67, 110
1, 2029589, Note_off_c, 0, 67, 110
1, 2029589, Note_on_c, 0, 64, 116
1, 2030025, Note_off_c, 0, 64, 116
1, 2030025, Note_on_c, 0, 66, 113
1, 2030287, Note_off_c, 0, 66, 113
1, 2030358, Note_on_c, 0, 68, 106
1, 2030710, Note_off_c, 0, 68, 106
1, 2030829, Note_on_c, 0, 70, 111
1, 2031229, Note_off_c, 0, 70, 111
1, 2031246, Note_on_c, 0, 66, 103
1, 2031526, Note_off_c, 0, 66, 103
1, 2031657, Note_on_c, 0, 55, 107
1, 2031913, Note_off_c, 0, 55, 107
1, 2031972, Note_on_c, 0, 59, 106
1, 2032396, Note_off_c, 0, 59, 106
1, 2032431, Note_on_c, 0, 58, 108
1, 2032783, Note_off_c, 0, 58, 108
1, 2032806, Note_on_c, 0, 57, 108
1, 2033140, Note_off_c, 0, 57, 108
1, 2033366, Note_on_c, 0, 62, 108
1, 2033646, Note_off_c, 0, 62, 108
1, 2033669, Note_on_c, 0, 65, 103
1, 2033985, Note_off_c, 0, 65, 103
1, 2034074, Note_on_c, 0, 69, 96
1, 2034342, Note_off_c, 0, 69, 96
1, 2034419, Note_on_c, 0, 74, 110
1, 2034753, Note_off_c, 0, 74, 110
1, 2034788, Note_on_c, 0, 73, 114
1, 2035367, Note_off_c, 0, 73, 114
1, 2035408, Note_on_c, 0, 69, 114
1, 2035676, Note_off_c, 0, 69, 114
1, 2035747, Note_on_c, 0, 69, 114
1, 2036326, Note_off_c, 0, 69, 114
1, 2036326, Note_on_c, 0, 68, 98
1, 2036648, Note_off_c, 0, 68, 98
1, 2040799, Note_on_c, 0, 71, 110
1, 2041061, Note_off_c, 0, 71, 110
1, 2041078, Note_on_c, 0, 72, 107
1, 2042762, Note_off_c, 0, 72, 107
1, 2042833, Note_on_c, 0, 70, 112
1, 2043179, Note_off_c, 0, 70, 112
1, 2043208, Note_on_c, 0, 72, 112
1, 2043685, Note_off_c, 0, 72, 112
1, 2044109, Note_on_c, 0, 71, 115
1, 2044341, Note_off_c, 0, 71, 115
1, 2044341, Note_on_c, 0, 72, 113
1, 2046150, Note_off_c, 0, 72, 113
1, 2046233, Note_on_c, 0, 68, 112
1, 2046561, Note_off_c, 0, 68, 112
1, 2046608, Note_on_c, 0, 63, 116
1, 2047324, Note_off_c, 0, 63, 116
1, 2048446, Note_on_c, 0, 70, 105
1, 2048613, Note_off_c, 0, 70, 105
1, 2048761, Note_on_c, 0, 72, 114
1, 2050592, Note_off_c, 0, 72, 114
1, 2050821, Note_on_c, 0, 63, 100
1, 2051083, Note_off_c, 0, 63, 100
1, 2051088, Note_on_c, 0, 60, 110
1, 2051673, Note_off_c, 0, 60, 110
1, 2051673, Note_on_c, 0, 63, 102
1, 2051977, Note_off_c, 0, 63, 102
1, 2052383, Note_on_c, 0, 72, 112
1, 2052992, Note_off_c, 0, 72, 112
1, 2053063, Note_on_c, 0, 63, 106
1, 2053433, Note_off_c, 0, 63, 106
1, 2053654, Note_on_c, 0, 72, 111
1, 2054155, Note_off_c, 0, 72, 111
1, 2054196, Note_on_c, 0, 63, 110
1, 2054614, Note_off_c, 0, 63, 110
1, 2054978, Note_on_c, 0, 72, 110
1, 2055402, Note_off_c, 0, 72, 110
1, 2055425, Note_on_c, 0, 63, 103
1, 2055878, Note_off_c, 0, 63, 103
1, 2056075, Note_on_c, 0, 72, 108
1, 2056761, Note_off_c, 0, 72, 108
1, 2056832, Note_on_c, 0, 63, 101
1, 2057124, Note_off_c, 0, 63, 101
1, 2057404, Note_on_c, 0, 72, 108
1, 2057929, Note_off_c, 0, 72, 108
1, 2057958, Note_on_c, 0, 73, 103
1, 2058388, Note_off_c, 0, 73, 103
1, 2058776, Note_on_c, 0, 75, 106
1, 2059658, Note_off_c, 0, 75, 106
1, 2059737, Note_on_c, 0, 74, 94
1, 2060394, Note_off_c, 0, 74, 94
1, 2062430, Note_on_c, 0, 70, 101
1, 2062776, Note_off_c, 0, 70, 101
1, 2062776, Note_on_c, 0, 71, 102
1, 2063916, Note_off_c, 0, 71, 102
1, 2064014, Note_on_c, 0, 62, 99
1, 2064261, Note_off_c, 0, 62, 99
1, 2064336, Note_on_c, 0, 71, 106
1, 2064789, Note_off_c, 0, 71, 106
1, 2064881, Note_on_c, 0, 63, 95
1, 2065091, Note_off_c, 0, 63, 95
1, 2065212, Note_on_c, 0, 67, 98
1, 2065594, Note_off_c, 0, 67, 98
1, 2065631, Note_on_c, 0, 71, 101
1, 2065824, Note_off_c, 0, 71, 101
1, 2065891, Note_on_c, 0, 66, 112
1, 2066214, Note_off_c, 0, 66, 112
1, 2066356, Note_on_c, 0, 61, 95
1, 2066557, Note_off_c, 0, 61, 95
1, 2067812, Note_on_c, 0, 61, 103
1, 2068189, Note_off_c, 0, 61, 103
1, 2068239, Note_on_c, 0, 66, 99
1, 2068654, Note_off_c, 0, 66, 99
1, 2068998, Note_on_c, 0, 70, 104
1, 2069594, Note_off_c, 0, 70, 104
1, 2069686, Note_on_c, 0, 62, 102
1, 2070051, Note_off_c, 0, 62, 102
1, 2070122, Note_on_c, 0, 61, 103
1, 2070483, Note_off_c, 0, 61, 103
1, 2070529, Note_on_c, 0, 60, 104
1, 2070818, Note_off_c, 0, 60, 104
1, 2070843, Note_on_c, 0, 59, 95
1, 2071321, Note_off_c, 0, 59, 95
1, 2072588, Note_on_c, 0, 63, 114
1, 2073033, Note_off_c, 0, 63, 114
1, 2073054, Note_on_c, 0, 61, 104
1, 2073469, Note_off_c, 0, 61, 104
1, 2073474, Note_on_c, 0, 58, 96
1, 2073736, Note_off_c, 0, 58, 96
1, 2073849, Note_on_c, 0, 54, 96
1, 2074159, Note_off_c, 0, 54, 96
1, 2074218, Note_on_c, 0, 56, 96
1, 2074582, Note_off_c, 0, 56, 96
1, 2074665, Note_on_c, 0, 58, 106
1, 2074999, Note_off_c, 0, 58, 106
1, 2075022, Note_on_c, 0, 61, 107
1, 2075368, Note_off_c, 0, 61, 107
1, 2075385, Note_on_c, 0, 63, 108
1, 2075653, Note_off_c, 0, 63, 108
1, 2075653, Note_on_c, 0, 66, 104
1, 2076100, Note_off_c, 0, 66, 104
1, 2076171, Note_on_c, 0, 68, 101
1, 2076415, Note_off_c, 0, 68, 101
1, 2076420, Note_on_c, 0, 70, 104
1, 2076939, Note_off_c, 0, 70, 104
1, 2077142, Note_on_c, 0, 73, 109
1, 2077303, Note_off_c, 0, 73, 109
1, 2077303, Note_on_c, 0, 68, 109
1, 2077888, Note_off_c, 0, 68, 109
1, 2079088, Note_on_c, 0, 68, 112
1, 2079512, Note_off_c, 0, 68, 112
1, 2079517, Note_on_c, 0, 67, 105
1, 2079970, Note_off_c, 0, 67, 105
1, 2080011, Note_on_c, 0, 66, 100
1, 2080387, Note_on_c, 0, 69, 101
1, 2080387, Note_off_c, 0, 66, 100
1, 2080709, Note_off_c, 0, 69, 101
1, 2080864, Note_on_c, 0, 64, 110
1, 2081306, Note_off_c, 0, 64, 110
1, 2081323, Note_on_c, 0, 62, 104
1, 2081842, Note_off_c, 0, 62, 104
1, 2092683, Note_on_c, 0, 68, 108
1, 2092987, Note_off_c, 0, 68, 108
1, 2093016, Note_on_c, 0, 69, 113
1, 2093786, Note_off_c, 0, 69, 113
1, 2093947, Note_on_c, 0, 69, 113
1, 2094365, Note_off_c, 0, 69, 113
1, 2094394, Note_on_c, 0, 68, 109
1, 2094716, Note_off_c, 0, 68, 109
1, 2094716, Note_on_c, 0, 69, 105
1, 2096054, Note_off_c, 0, 69, 105
1, 2096095, Note_on_c, 0, 67, 108
1, 2096602, Note_off_c, 0, 67, 108
1, 2096930, Note_on_c, 0, 69, 106
1, 2097885, Note_off_c, 0, 69, 106
1, 2099497, Note_on_c, 0, 69, 104
1, 2100070, Note_off_c, 0, 69, 104
1, 2100070, Note_on_c, 0, 67, 97
1, 2100386, Note_off_c, 0, 67, 97
1, 2100726, Note_on_c, 0, 69, 105
1, 2102816, Note_off_c, 0, 69, 105
1, 2102821, Note_on_c, 0, 65, 108
1, 2103173, Note_off_c, 0, 65, 108
1, 2103184, Note_on_c, 0, 62, 111
1, 2103614, Note_off_c, 0, 62, 111
1, 2106248, Note_on_c, 0, 69, 102
1, 2106887, Note_off_c, 0, 69, 102
1, 2106906, Note_on_c, 0, 65, 97
1, 2107276, Note_off_c, 0, 65, 97
1, 2107812, Note_on_c, 0, 69, 105
1, 2109408, Note_off_c, 0, 69, 105
1, 2109466, Note_on_c, 0, 67, 101
1, 2109869, Note_off_c, 0, 67, 101
1, 2109894, Note_on_c, 0, 69, 104
1, 2110221, Note_off_c, 0, 69, 104
1, 2110851, Note_on_c, 0, 69, 101
1, 2112799, Note_off_c, 0, 69, 101
1, 2112849, Note_on_c, 0, 65, 101
1, 2113260, Note_off_c, 0, 65, 101
1, 2113301, Note_on_c, 0, 62, 105
1, 2113872, Note_off_c, 0, 62, 105
1, 2115780, Note_on_c, 0, 69, 103
1, 2117046, Note_off_c, 0, 69, 103
1, 2117147, Note_on_c, 0, 67, 103
1, 2117469, Note_off_c, 0, 67, 103
1, 2117469, Note_on_c, 0, 65, 101
1, 2117666, Note_off_c, 0, 65, 101
1, 2117833, Note_on_c, 0, 62, 107
1, 2118310, Note_off_c, 0, 62, 107
1, 2118387, Note_on_c, 0, 62, 109
1, 2118697, Note_off_c, 0, 62, 109
1, 2118814, Note_on_c, 0, 57, 103
1, 2119130, Note_off_c, 0, 57, 103
1, 2119237, Note_on_c, 0, 53, 105
1, 2119476, Note_off_c, 0, 53, 105
1, 2119522, Note_on_c, 0, 55, 105
1, 2119921, Note_off_c, 0, 55, 105
1, 2121233, Note_on_c, 0, 55, 103
1, 2121561, Note_off_c, 0, 55, 103
1, 2121590, Note_on_c, 0, 57, 108
1, 2121858, Note_off_c, 0, 57, 108
1, 2121858, Note_on_c, 0, 59, 106
1, 2122138, Note_off_c, 0, 59, 106
1, 2122191, Note_on_c, 0, 60, 104
1, 2122585, Note_off_c, 0, 60, 104
1, 2122644, Note_on_c, 0, 62, 113
1, 2123163, Note_off_c, 0, 62, 113
1, 2124530, Note_on_c, 0, 62, 108
1, 2124983, Note_off_c, 0, 62, 108
1, 2125018, Note_on_c, 0, 61, 105
1, 2125280, Note_off_c, 0, 61, 105
1, 2125280, Note_on_c, 0, 62, 106
1, 2125680, Note_off_c, 0, 62, 106
1, 2125685, Note_on_c, 0, 65, 110
1, 2125965, Note_off_c, 0, 65, 110
1, 2126072, Note_on_c, 0, 67, 105
1, 2126382, Note_off_c, 0, 67, 105
1, 2127839, Note_on_c, 0, 67, 114
1, 2128191, Note_off_c, 0, 67, 114
1, 2128286, Note_on_c, 0, 66, 112
1, 2128596, Note_off_c, 0, 66, 112
1, 2128667, Note_on_c, 0, 67, 107
1, 2129061, Note_off_c, 0, 67, 107
1, 2129264, Note_on_c, 0, 74, 108
1, 2129479, Note_off_c, 0, 74, 108
1, 2129496, Note_on_c, 0, 69, 107
1, 2130141, Note_off_c, 0, 69, 107
1, 2131275, Note_on_c, 0, 69, 109
1, 2131651, Note_off_c, 0, 69, 109
1, 2131698, Note_on_c, 0, 68, 104
1, 2131966, Note_off_c, 0, 68, 104
1, 2132037, Note_on_c, 0, 67, 101
1, 2132246, Note_off_c, 0, 67, 101
1, 2132508, Note_on_c, 0, 72, 107
1, 2132717, Note_off_c, 0, 72, 107
1, 2132782, Note_on_c, 0, 67, 108
1, 2133277, Note_off_c, 0, 67, 108
1, 2134573, Note_on_c, 0, 67, 110
1, 2134913, Note_off_c, 0, 67, 110
1, 2134960, Note_on_c, 0, 66, 108
1, 2135282, Note_off_c, 0, 66, 108
1, 2135395, Note_on_c, 0, 67, 99
1, 2135765, Note_off_c, 0, 67, 99
1, 2135765, Note_on_c, 0, 71, 108
1, 2135991, Note_off_c, 0, 71, 108
1, 2136074, Note_on_c, 0, 65, 95
1, 2136402, Note_off_c, 0, 65, 95
1, 2137716, Note_on_c, 0, 65, 107
1, 2138080, Note_off_c, 0, 65, 107
1, 2138091, Note_on_c, 0, 64, 113
1, 2138455, Note_off_c, 0, 64, 113
1, 2138508, Note_on_c, 0, 65, 109
1, 2138884, Note_off_c, 0, 65, 109
1, 2138889, Note_on_c, 0, 69, 111
1, 2139145, Note_off_c, 0, 69, 111
1, 2139150, Note_on_c, 0, 64, 115
1, 2139526, Note_off_c, 0, 64, 115
1, 2140774, Note_on_c, 0, 64, 115
1, 2141257, Note_off_c, 0, 64, 115
1, 2141316, Note_on_c, 0, 63, 112
1, 2141698, Note_off_c, 0, 63, 112
1, 2141757, Note_on_c, 0, 64, 104
1, 2142139, Note_off_c, 0, 64, 104
1, 2142162, Note_on_c, 0, 67, 106
1, 2142442, Note_off_c, 0, 67, 106
1, 2142525, Note_on_c, 0, 62, 105
1, 2142931, Note_off_c, 0, 62, 105
1, 2144245, Note_on_c, 0, 70, 114
1, 2144615, Note_off_c, 0, 70, 114
1, 2144626, Note_on_c, 0, 69, 108
1, 2144954, Note_off_c, 0, 69, 108
1, 2144995, Note_on_c, 0, 70, 101
1, 2145431, Note_off_c, 0, 70, 101
1, 2145484, Note_on_c, 0, 75, 101
1, 2145728, Note_off_c, 0, 75, 101
1, 2145781, Note_on_c, 0, 68, 106
1, 2146306, Note_off_c, 0, 68, 106
1, 2147446, Note_on_c, 0, 68, 109
1, 2147828, Note_off_c, 0, 68, 109
1, 2147869, Note_on_c, 0, 67, 106
1, 2148221, Note_off_c, 0, 67, 106
1, 2148221, Note_on_c, 0, 68, 105
1, 2148579, Note_off_c, 0, 68, 105
1, 2148674, Note_on_c, 0, 72, 105
1, 2148948, Note_off_c, 0, 72, 105
1, 2148989, Note_on_c, 0, 66, 101
1, 2149484, Note_off_c, 0, 66, 101
1, 2150816, Note_on_c, 0, 66, 105
1, 2151335, Note_off_c, 0, 66, 105
1, 2151442, Note_on_c, 0, 67, 101
1, 2151722, Note_off_c, 0, 67, 101
1, 2152014, Note_on_c, 0, 71, 102
1, 2152229, Note_off_c, 0, 71, 102
1, 2152270, Note_on_c, 0, 65, 96
1, 2152795, Note_off_c, 0, 65, 96
1, 2153631, Note_on_c, 0, 65, 110
1, 2154043, Note_off_c, 0, 65, 110
1, 2154043, Note_on_c, 0, 64, 110
1, 2154550, Note_off_c, 0, 64, 110
1, 2154621, Note_on_c, 0, 69, 111
1, 2154877, Note_off_c, 0, 69, 111
1, 2154960, Note_on_c, 0, 63, 94
1, 2155467, Note_off_c, 0, 63, 94
1, 2156285, Note_on_c, 0, 63, 118
1, 2156918, Note_off_c, 0, 63, 118
1, 2156918, Note_on_c, 0, 68, 107
1, 2157037, Note_off_c, 0, 68, 107
1, 2157084, Note_on_c, 0, 68, 100
1, 2157346, Note_off_c, 0, 68, 100
1, 2157411, Note_on_c, 0, 61, 104
1, 2157894, Note_off_c, 0, 61, 104
1, 2158993, Note_on_c, 0, 61, 109
1, 2159339, Note_off_c, 0, 61, 109
1, 2159416, Note_on_c, 0, 69, 99
1, 2159541, Note_off_c, 0, 69, 99
1, 2159588, Note_on_c, 0, 69, 100
1, 2159695, Note_off_c, 0, 69, 100
1, 2159772, Note_on_c, 0, 66, 106
1, 2160249, Note_off_c, 0, 66, 106
1, 2161539, Note_on_c, 0, 60, 101
1, 2161915, Note_off_c, 0, 60, 101
1, 2161932, Note_on_c, 0, 65, 109
1, 2162218, Note_off_c, 0, 65, 109
1, 2162253, Note_on_c, 0, 69, 106
1, 2162665, Note_off_c, 0, 69, 106
1, 2163967, Note_on_c, 0, 58, 106
1, 2164313, Note_off_c, 0, 58, 106
1, 2164396, Note_on_c, 0, 63, 110
1, 2164915, Note_off_c, 0, 63, 110
1, 2166408, Note_on_c, 0, 56, 106
1, 2166772, Note_off_c, 0, 56, 106
1, 2166879, Note_on_c, 0, 60, 106
1, 2167129, Note_off_c, 0, 60, 106
1, 2167188, Note_on_c, 0, 54, 106
1, 2167498, Note_off_c, 0, 54, 106
1, 2168913, Note_on_c, 0, 54, 110
1, 2169241, Note_off_c, 0, 54, 110
1, 2169330, Note_on_c, 0, 58, 103
1, 2169580, Note_off_c, 0, 58, 103
1, 2169580, Note_on_c, 0, 63, 110
1, 2169795, Note_off_c, 0, 63, 110
1, 2169800, Note_on_c, 0, 62, 106
1, 2169961, Note_off_c, 0, 62, 106
1, 2170785, Note_on_c, 0, 69, 106
1, 2171233, Note_off_c, 0, 69, 106
1, 2171233, Note_on_c, 0, 68, 101
1, 2171615, Note_off_c, 0, 68, 101
1, 2171710, Note_on_c, 0, 74, 97
1, 2171889, Note_off_c, 0, 74, 97
1, 2171978, Note_on_c, 0, 74, 94
1, 2172228, Note_off_c, 0, 74, 94
1, 2172245, Note_on_c, 0, 67, 110
1, 2172704, Note_off_c, 0, 67, 110
1, 2173952, Note_on_c, 0, 67, 109
1, 2174364, Note_off_c, 0, 67, 109
1, 2174417, Note_on_c, 0, 66, 101
1, 2174799, Note_off_c, 0, 66, 101
1, 2174799, Note_on_c, 0, 67, 101
1, 2175067, Note_off_c, 0, 67, 101
1, 2175228, Note_on_c, 0, 71, 110
1, 2175514, Note_off_c, 0, 71, 110
1, 2175537, Note_on_c, 0, 65, 107
1, 2175913, Note_off_c, 0, 65, 107
1, 2176988, Note_on_c, 0, 69, 112
1, 2177286, Note_off_c, 0, 69, 112
1, 2177286, Note_on_c, 0, 64, 108
1, 2177710, Note_off_c, 0, 64, 108
1, 2178617, Note_on_c, 0, 67, 107
1, 2178903, Note_off_c, 0, 67, 107
1, 2178920, Note_on_c, 0, 62, 98
1, 2179397, Note_off_c, 0, 62, 98
1, 2180490, Note_on_c, 0, 65, 101
1, 2180722, Note_off_c, 0, 65, 101
1, 2180751, Note_on_c, 0, 60, 102
1, 2181193, Note_off_c, 0, 60, 102
1, 2181193, Note_on_c, 0, 64, 106
1, 2181503, Note_off_c, 0, 64, 106
1, 2181508, Note_on_c, 0, 69, 98
1, 2181705, Note_off_c, 0, 69, 98
1, 2182893, Note_on_c, 0, 59, 100
1, 2183149, Note_off_c, 0, 59, 100
1, 2183244, Note_on_c, 0, 59, 96
1, 2183668, Note_off_c, 0, 59, 96
1, 2183775, Note_on_c, 0, 64, 107
1, 2184085, Note_off_c, 0, 64, 107
1, 2184234, Note_on_c, 0, 68, 96
1, 2184443, Note_off_c, 0, 68, 96
1, 2185398, Note_on_c, 0, 60, 104
1, 2185666, Note_off_c, 0, 60, 104
1, 2185719, Note_on_c, 0, 55, 105
1, 2185928, Note_off_c, 0, 55, 105
1, 2186196, Note_on_c, 0, 53, 99
1, 2186399, Note_off_c, 0, 53, 99
1, 2186936, Note_on_c, 0, 59, 98
1, 2187186, Note_off_c, 0, 59, 98
1, 2187251, Note_on_c, 0, 53, 105
1, 2187495, Note_off_c, 0, 53, 105
1, 2187614, Note_on_c, 0, 57, 98
1, 2187930, Note_off_c, 0, 57, 98
1, 2187930, Note_on_c, 0, 52, 99
1, 2188318, Note_off_c, 0, 52, 99
1, 2194765, Note_on_c, 0, 66, 103
1, 2195269, Note_off_c, 0, 66, 103
1, 2195319, Note_on_c, 0, 67, 104
1, 2196856, Note_off_c, 0, 67, 104
1, 2196939, Note_on_c, 0, 66, 106
1, 2197191, Note_off_c, 0, 66, 106
1, 2197216, Note_on_c, 0, 67, 107
1, 2197795, Note_off_c, 0, 67, 107
1, 2197837, Note_on_c, 0, 61, 107
1, 2198349, Note_off_c, 0, 61, 107
1, 2198399, Note_on_c, 0, 60, 106
1, 2198592, Note_off_c, 0, 60, 106
1, 2198592, Note_on_c, 0, 59, 94
1, 2198659, Note_off_c, 0, 59, 94
1, 2198700, Note_on_c, 0, 58, 118
1, 2198750, Note_off_c, 0, 58, 118
1, 2198775, Note_on_c, 0, 57, 100
1, 2199035, Note_off_c, 0, 57, 100
1, 2201874, Note_on_c, 0, 65, 101
1, 2203612, Note_off_c, 0, 65, 101
1, 2203637, Note_on_c, 0, 62, 107
1, 2204082, Note_off_c, 0, 62, 107
1, 2204149, Note_on_c, 0, 57, 96
1, 2204493, Note_off_c, 0, 57, 96
1, 2211624, Note_on_c, 0, 67, 97
1, 2212338, Note_off_c, 0, 67, 97
1, 2212396, Note_on_c, 0, 65, 99
1, 2212773, Note_off_c, 0, 65, 99
1, 2212912, Note_on_c, 0, 67, 95
1, 2214393, Note_off_c, 0, 67, 95
1, 2214476, Note_on_c, 0, 65, 97
1, 2214870, Note_off_c, 0, 65, 97
1, 2214881, Note_on_c, 0, 67, 99
1, 2215203, Note_off_c, 0, 67, 99
1, 2215262, Note_on_c, 0, 69, 9
1, 2216564, Note_off_c, 0, 69, 9
1, 2216635, Note_on_c, 0, 65, 102
1, 2218307, Note_off_c, 0, 65, 102
1, 2218378, Note_on_c, 0, 62, 99
1, 2218712, Note_off_c, 0, 62, 99
1, 2219225, Note_on_c, 0, 62, 100
1, 2219714, Note_off_c, 0, 62, 100
1, 2224074, Note_on_c, 0, 62, 103
1, 2224440, Note_off_c, 0, 62, 103
1, 2224440, Note_on_c, 0, 65, 103
1, 2224708, Note_off_c, 0, 65, 103
1, 2224733, Note_on_c, 0, 67, 102
1, 2225883, Note_off_c, 0, 67, 102
1, 2225925, Note_on_c, 0, 69, 98
1, 2226126, Note_off_c, 0, 69, 98
1, 2226142, Note_on_c, 0, 63, 113
1, 2226637, Note_off_c, 0, 63, 113
1, 2226637, Note_on_c, 0, 62, 110
1, 2226989, Note_off_c, 0, 62, 110
1, 2227005, Note_on_c, 0, 61, 105
1, 2227366, Note_off_c, 0, 61, 105
1, 2227576, Note_on_c, 0, 65, 103
1, 2227870, Note_off_c, 0, 65, 103
1, 2227870, Note_on_c, 0, 60, 99
1, 2228239, Note_off_c, 0, 60, 99
1, 2228297, Note_on_c, 0, 63, 109
1, 2228759, Note_off_c, 0, 63, 109
1, 2228809, Note_on_c, 0, 68, 104
1, 2229119, Note_off_c, 0, 68, 104
1, 2229211, Note_on_c, 0, 72, 105
1, 2229387, Note_off_c, 0, 72, 105
1, 2229420, Note_on_c, 0, 75, 102
1, 2229982, Note_off_c, 0, 75, 102
1, 2231216, Note_on_c, 0, 64, 117
1, 2231703, Note_off_c, 0, 64, 117
1, 2231753, Note_on_c, 0, 66, 106
1, 2232122, Note_off_c, 0, 66, 106
1, 2232122, Note_on_c, 0, 68, 98
1, 2232449, Note_off_c, 0, 68, 98
1, 2232491, Note_on_c, 0, 70, 101
1, 2232894, Note_off_c, 0, 70, 101
1, 2232910, Note_on_c, 0, 66, 99
1, 2233321, Note_off_c, 0, 66, 99
1, 2233379, Note_on_c, 0, 61, 98
1, 2233664, Note_off_c, 0, 61, 98
1, 2233664, Note_on_c, 0, 59, 102
1, 2234075, Note_off_c, 0, 59, 102
1, 2234133, Note_on_c, 0, 58, 103
1, 2234460, Note_off_c, 0, 58, 103
1, 2234510, Note_on_c, 0, 57, 101
1, 2234871, Note_off_c, 0, 57, 101
1, 2234997, Note_on_c, 0, 56, 102
1, 2235450, Note_off_c, 0, 56, 102
1, 2235492, Note_on_c, 0, 55, 97
1, 2235769, Note_off_c, 0, 55, 97
1, 2235878, Note_on_c, 0, 59, 105
1, 2236155, Note_off_c, 0, 59, 105
1, 2236213, Note_on_c, 0, 57, 104
1, 2236633, Note_off_c, 0, 57, 104
1, 2236717, Note_on_c, 0, 53, 105
1, 2237010, Note_off_c, 0, 53, 105
1, 2237010, Note_on_c, 0, 50, 102
1, 2237312, Note_off_c, 0, 50, 102
1, 2237320, Note_on_c, 0, 53, 96
1, 2237689, Note_off_c, 0, 53, 96
1, 2237729, Note_on_c, 0, 44, 107
1, 2238325, Note_off_c, 0, 44, 107
1, 2241217, Note_on_c, 0, 45, 109
1, 2241729, Note_off_c, 0, 45, 109
1, 2242136, Note_on_c, 0, 48, 103
1, 2242463, Note_off_c, 0, 48, 103
1, 2242533, Note_on_c, 0, 66, 101
1, 2242818, Note_off_c, 0, 66, 101
1, 2242843, Note_on_c, 0, 66, 107
1, 2243389, Note_off_c, 0, 66, 107
1, 2243422, Note_on_c, 0, 60, 102
1, 2243648, Note_off_c, 0, 60, 102
1, 2243732, Note_on_c, 0, 66, 90
1, 2243975, Note_off_c, 0, 66, 90
1, 2244075, Note_on_c, 0, 65, 102
1, 2244486, Note_off_c, 0, 65, 102
1, 2244528, Note_on_c, 0, 65, 96
1, 2244931, Note_off_c, 0, 65, 96
1, 2247016, Note_on_c, 0, 45, 103
1, 2247519, Note_off_c, 0, 45, 103
1, 2247636, Note_on_c, 0, 53, 99
1, 2247815, Note_off_c, 0, 53, 99
1, 2247874, Note_on_c, 0, 50, 104
1, 2248310, Note_off_c, 0, 50, 104
1, 2248399, Note_on_c, 0, 53, 110
1, 2248649, Note_off_c, 0, 53, 110
1, 2248822, Note_on_c, 0, 57, 108
1, 2249198, Note_off_c, 0, 57, 108
1, 2249436, Note_on_c, 0, 45, 118
1, 2249782, Note_off_c, 0, 45, 118
1, 2249805, Note_on_c, 0, 45, 107
1, 2250055, Note_off_c, 0, 45, 107
1, 2251625, Note_on_c, 0, 55, 99
1, 2251959, Note_off_c, 0, 55, 99
1, 2252132, Note_on_c, 0, 44, 107
1, 2252968, Note_off_c, 0, 44, 107
1, 2254252, Note_on_c, 0, 53, 100
1, 2254377, Note_off_c, 0, 53, 100
1, 2254406, Note_on_c, 0, 46, 106
1, 2254985, Note_off_c, 0, 46, 106
1, 2255719, Note_on_c, 0, 55, 97
1, 2255993, Note_off_c, 0, 55, 97
1, 2256076, Note_on_c, 0, 48, 101
1, 2256452, Note_off_c, 0, 48, 101
1, 2257180, Note_on_c, 0, 55, 102
1, 2257466, Note_off_c, 0, 55, 102
1, 2257525, Note_on_c, 0, 51, 103
1, 2257811, Note_off_c, 0, 51, 103
1, 2258910, Note_on_c, 0, 57, 103
1, 2259101, Note_off_c, 0, 57, 103
1, 2259208, Note_on_c, 0, 54, 100
1, 2259524, Note_off_c, 0, 54, 100
1, 2260575, Note_on_c, 0, 56, 95
1, 2260819, Note_off_c, 0, 56, 95
1, 2260836, Note_on_c, 0, 54, 95
1, 2261230, Note_off_c, 0, 54, 95
1, 2262293, Note_on_c, 0, 58, 96
1, 2262514, Note_off_c, 0, 58, 96
1, 2262579, Note_on_c, 0, 51, 104
1, 2262997, Note_off_c, 0, 51, 104
1, 2263952, Note_on_c, 0, 57, 97
1, 2264155, Note_off_c, 0, 57, 97
1, 2264244, Note_on_c, 0, 50, 107
1, 2264572, Note_off_c, 0, 50, 107
1, 2265575, Note_on_c, 0, 55, 112
1, 2265760, Note_off_c, 0, 55, 112
1, 2265867, Note_on_c, 0, 48, 103
1, 2266362, Note_off_c, 0, 48, 103
1, 2266457, Note_on_c, 0, 53, 100
1, 2266701, Note_off_c, 0, 53, 100
1, 2266796, Note_on_c, 0, 56, 103
1, 2267076, Note_off_c, 0, 56, 103
1, 2267093, Note_on_c, 0, 54, 102
1, 2267541, Note_off_c, 0, 54, 102
1, 2267612, Note_on_c, 0, 58, 106
1, 2267994, Note_off_c, 0, 58, 106
1, 2269194, Note_on_c, 0, 46, 105
1, 2269576, Note_off_c, 0, 46, 105
1, 2269653, Note_on_c, 0, 56, 105
1, 2269838, Note_off_c, 0, 56, 105
1, 2270059, Note_on_c, 0, 50, 101
1, 2270489, Note_off_c, 0, 50, 101
1, 2270590, Note_on_c, 0, 55, 102
1, 2270912, Note_off_c, 0, 55, 102
1, 2270929, Note_on_c, 0, 51, 105
1, 2271353, Note_off_c, 0, 51, 105
1, 2271382, Note_on_c, 0, 54, 99
1, 2271638, Note_off_c, 0, 54, 99
1, 2271673, Note_on_c, 0, 56, 106
1, 2271864, Note_off_c, 0, 56, 106
1, 2271953, Note_on_c, 0, 66, 108
1, 2272448, Note_off_c, 0, 66, 108
1, 2272531, Note_on_c, 0, 70, 102
1, 2272847, Note_off_c, 0, 70, 102
1, 2274155, Note_on_c, 0, 61, 109
1, 2274537, Note_off_c, 0, 61, 109
1, 2274584, Note_on_c, 0, 66, 101
1, 2274948, Note_off_c, 0, 66, 101
1, 2274948, Note_on_c, 0, 70, 98
1, 2275551, Note_off_c, 0, 70, 98
1, 2275670, Note_on_c, 0, 65, 106
1, 2276297, Note_off_c, 0, 65, 106
1, 2277079, Note_on_c, 0, 54, 106
1, 2277329, Note_off_c, 0, 54, 106
1, 2277424, Note_on_c, 0, 48, 102
1, 2277872, Note_off_c, 0, 48, 102
1, 2278588, Note_on_c, 0, 54, 102
1, 2278922, Note_off_c, 0, 54, 102
1, 2278975, Note_on_c, 0, 49, 113
1, 2279261, Note_off_c, 0, 49, 113
1, 2279261, Note_on_c, 0, 50, 109
1, 2279446, Note_off_c, 0, 50, 109
1, 2279553, Note_on_c, 0, 53, 110
1, 2279774, Note_off_c, 0, 53, 110
1, 2279821, Note_on_c, 0, 57, 105
1, 2280143, Note_off_c, 0, 57, 105
1, 2280160, Note_on_c, 0, 58, 106
1, 2280369, Note_off_c, 0, 58, 106
1, 2280386, Note_on_c, 0, 57, 105
1, 2280487, Note_off_c, 0, 57, 105
1, 2280570, Note_on_c, 0, 53, 103
1, 2280892, Note_off_c, 0, 53, 103
1, 2282313, Note_on_c, 0, 52, 105
1, 2282719, Note_off_c, 0, 52, 105
1, 2283232, Note_on_c, 0, 54, 105
1, 2283644, Note_off_c, 0, 54, 105
1, 2283679, Note_on_c, 0, 58, 99
1, 2283870, Note_off_c, 0, 58, 99
1, 2284013, Note_on_c, 0, 52, 106
1, 2284514, Note_off_c, 0, 52, 106
1, 2284603, Note_on_c, 0, 55, 101
1, 2284859, Note_off_c, 0, 55, 101
1, 2284870, Note_on_c, 0, 57, 97
1, 2285198, Note_off_c, 0, 57, 97
1, 2285335, Note_on_c, 0, 60, 103
1, 2285753, Note_off_c, 0, 60, 103
1, 2285753, Note_on_c, 0, 57, 104
1, 2286135, Note_off_c, 0, 57, 104
1, 2286135, Note_on_c, 0, 60, 107
1, 2286606, Note_off_c, 0, 60, 107
1, 2286671, Note_on_c, 0, 62, 110
1, 2287035, Note_off_c, 0, 62, 110
1, 2287106, Note_on_c, 0, 67, 113
1, 2287452, Note_off_c, 0, 67, 113
1, 2287529, Note_on_c, 0, 60, 111
1, 2287905, Note_off_c, 0, 60, 111
1, 2287910, Note_on_c, 0, 65, 110
1, 2288148, Note_off_c, 0, 65, 110
1, 2288159, Note_on_c, 0, 69, 112
1, 2288577, Note_off_c, 0, 69, 112
1, 2288600, Note_on_c, 0, 71, 112
1, 2288886, Note_off_c, 0, 71, 112
1, 2288903, Note_on_c, 0, 62, 106
1, 2289261, Note_off_c, 0, 62, 106
1, 2293525, Note_on_c, 0, 68, 103
1, 2293847, Note_off_c, 0, 68, 103
1, 2293847, Note_on_c, 0, 69, 104
1, 2295388, Note_off_c, 0, 69, 104
1, 2295483, Note_on_c, 0, 69, 115
1, 2295936, Note_off_c, 0, 69, 115
1, 2296019, Note_on_c, 0, 67, 113
1, 2296413, Note_off_c, 0, 67, 113
1, 2296436, Note_on_c, 0, 65, 115
1, 2296603, Note_off_c, 0, 65, 115
1, 2296674, Note_on_c, 0, 62, 114
1, 2297474, Note_off_c, 0, 62, 114
1, 2302276, Note_on_c, 0, 68, 99
1, 2302544, Note_off_c, 0, 68, 99
1, 2302549, Note_on_c, 0, 69, 101
1, 2303289, Note_off_c, 0, 69, 101
1, 2303659, Note_on_c, 0, 69, 105
1, 2307219, Note_off_c, 0, 69, 105
1, 2307541, Note_on_c, 0, 62, 106
1, 2308066, Note_off_c, 0, 62, 106
1, 2308089, Note_on_c, 0, 65, 105
1, 2308531, Note_off_c, 0, 65, 105
1, 2308949, Note_on_c, 0, 69, 113
1, 2309235, Note_off_c, 0, 69, 113
1, 2309235, Note_on_c, 0, 68, 113
1, 2309438, Note_off_c, 0, 68, 113
1, 2309438, Note_on_c, 0, 69, 114
1, 2309760, Note_off_c, 0, 69, 114
1, 2309795, Note_on_c, 0, 67, 109
1, 2310117, Note_off_c, 0, 67, 109
1, 2310152, Note_on_c, 0, 69, 107
1, 2311286, Note_off_c, 0, 69, 107
1, 2311321, Note_on_c, 0, 67, 107
1, 2311447, Note_off_c, 0, 67, 107
1, 2311480, Note_on_c, 0, 66, 108
1, 2311580, Note_off_c, 0, 66, 108
1, 2311622, Note_on_c, 0, 65, 82
1, 2311890, Note_off_c, 0, 65, 82
1, 2313956, Note_on_c, 0, 62, 110
1, 2314720, Note_off_c, 0, 62, 110
1, 2314753, Note_on_c, 0, 65, 99
1, 2315114, Note_off_c, 0, 65, 99
1, 2315256, Note_on_c, 0, 68, 107
1, 2315533, Note_off_c, 0, 68, 107
1, 2315541, Note_on_c, 0, 69, 104
1, 2315994, Note_off_c, 0, 69, 104
1, 2316229, Note_on_c, 0, 69, 108
1, 2318362, Note_off_c, 0, 69, 108
1, 2318471, Note_on_c, 0, 67, 97
1, 2318714, Note_off_c, 0, 67, 97
1, 2318772, Note_on_c, 0, 69, 100
1, 2319469, Note_off_c, 0, 69, 100
1, 2319485, Note_on_c, 0, 67, 102
1, 2319812, Note_off_c, 0, 67, 102
1, 2320005, Note_on_c, 0, 69, 101
1, 2321365, Note_off_c, 0, 69, 101
1, 2321406, Note_on_c, 0, 67, 106
1, 2321666, Note_off_c, 0, 67, 106
1, 2321674, Note_on_c, 0, 69, 100
1, 2322152, Note_off_c, 0, 69, 100
1, 2322210, Note_on_c, 0, 65, 104
1, 2322504, Note_off_c, 0, 65, 104
1, 2322630, Note_on_c, 0, 62, 111
1, 2323008, Note_off_c, 0, 62, 111
1, 2326099, Note_on_c, 0, 68, 102
1, 2326393, Note_off_c, 0, 68, 102
1, 2326409, Note_on_c, 0, 69, 104
1, 2327895, Note_off_c, 0, 69, 104
1, 2327928, Note_on_c, 0, 67, 100
1, 2328154, Note_off_c, 0, 67, 100
1, 2328204, Note_on_c, 0, 65, 101
1, 2328506, Note_off_c, 0, 65, 101
1, 2328623, Note_on_c, 0, 62, 109
1, 2329076, Note_off_c, 0, 62, 109
1, 2329151, Note_on_c, 0, 62, 108
1, 2329537, Note_off_c, 0, 62, 108
1, 2329629, Note_on_c, 0, 62, 108
1, 2330015, Note_off_c, 0, 62, 108
1, 2330157, Note_on_c, 0, 62, 102
1, 2331719, Note_off_c, 0, 62, 102
1, 2331752, Note_on_c, 0, 60, 98
1, 2332071, Note_off_c, 0, 60, 98
1, 2332138, Note_on_c, 0, 62, 104
1, 2332768, Note_off_c, 0, 62, 104
1, 2332818, Note_on_c, 0, 65, 101
1, 2333162, Note_off_c, 0, 65, 101
1, 2333203, Note_on_c, 0, 62, 104
1, 2334017, Note_off_c, 0, 62, 104
1, 2334173, Note_on_c, 0, 65, 104
1, 2334686, Note_off_c, 0, 65, 104
1, 2334788, Note_on_c, 0, 62, 87
1, 2334981, Note_off_c, 0, 62, 87
1, 2337123, Note_on_c, 0, 67, 98
1, 2337610, Note_off_c, 0, 67, 98
1, 2337710, Note_on_c, 0, 65, 96
1, 2338029, Note_off_c, 0, 65, 96
1, 2338197, Note_on_c, 0, 66, 104
1, 2338474, Note_off_c, 0, 66, 104
1, 2338474, Note_on_c, 0, 67, 98
1, 2339641, Note_off_c, 0, 67, 98
1, 2339766, Note_on_c, 0, 65, 93
1, 2340060, Note_off_c, 0, 65, 93
1, 2340102, Note_on_c, 0, 67, 97
1, 2340270, Note_off_c, 0, 67, 97
1, 2340396, Note_on_c, 0, 69, 103
1, 2340824, Note_off_c, 0, 69, 103
1, 2340846, Note_on_c, 0, 72, 105
1, 2345326, Note_off_c, 0, 72, 105
1, 2345361, Note_on_c, 0, 69, 99
1, 2345683, Note_off_c, 0, 69, 99
1, 2345683, Note_on_c, 0, 72, 105
1, 2346113, Note_off_c, 0, 72, 105
1, 2346156, Note_on_c, 0, 69, 98
1, 2346433, Note_off_c, 0, 69, 98
1, 2346584, Note_on_c, 0, 67, 102
1, 2346836, Note_off_c, 0, 67, 102
1, 2346894, Note_on_c, 0, 65, 102
1, 2347440, Note_off_c, 0, 65, 102
1, 2347490, Note_on_c, 0, 69, 104
1, 2347691, Note_off_c, 0, 69, 104
1, 2347758, Note_on_c, 0, 65, 105
1, 2348169, Note_off_c, 0, 65, 105
1, 2348202, Note_on_c, 0, 64, 117
1, 2348622, Note_off_c, 0, 64, 117
1, 2348622, Note_on_c, 0, 62, 106
1, 2349000, Note_off_c, 0, 62, 106
1, 2349047, Note_on_c, 0, 65, 110
1, 2349435, Note_off_c, 0, 65, 110
1, 2349435, Note_on_c, 0, 62, 105
1, 2349900, Note_off_c, 0, 62, 105
1, 2350055, Note_on_c, 0, 60, 103
1, 2350270, Note_off_c, 0, 60, 103
1, 2350293, Note_on_c, 0, 59, 101
1, 2350705, Note_off_c, 0, 59, 101
1, 2350860, Note_on_c, 0, 61, 104
1, 2351134, Note_off_c, 0, 61, 104
1, 2351181, Note_on_c, 0, 57, 97
1, 2351581, Note_off_c, 0, 57, 97
1, 2351825, Note_on_c, 0, 53, 101
1, 2352051, Note_off_c, 0, 53, 101
1, 2352086, Note_on_c, 0, 55, 98
1, 2353137, Note_off_c, 0, 55, 98
1, 2353316, Note_on_c, 0, 53, 103
1, 2353674, Note_off_c, 0, 53, 103
1, 2353763, Note_on_c, 0, 50, 103
1, 2354473, Note_off_c, 0, 50, 103
1, 2358176, Note_on_c, 0, 72, 107
1, 2358606, Note_off_c, 0, 72, 107
1, 2358617, Note_on_c, 0, 73, 107
1, 2363539, Note_off_c, 0, 73, 107
1, 2363568, Note_on_c, 0, 72, 105
1, 2363968, Note_off_c, 0, 72, 105
1, 2364105, Note_on_c, 0, 68, 102
1, 2364421, Note_off_c, 0, 68, 102
1, 2364725, Note_on_c, 0, 73, 100
1, 2365190, Note_off_c, 0, 73, 100
1, 2365249, Note_on_c, 0, 72, 103
1, 2365756, Note_off_c, 0, 72, 103
1, 2365863, Note_on_c, 0, 68, 102
1, 2366299, Note_off_c, 0, 68, 102
1, 2366508, Note_on_c, 0, 73, 98
1, 2367087, Note_off_c, 0, 73, 98
1, 2367110, Note_on_c, 0, 72, 97
1, 2368896, Note_off_c, 0, 72, 97
1, 2369003, Note_on_c, 0, 68, 95
1, 2369409, Note_off_c, 0, 68, 95
1, 2369432, Note_on_c, 0, 73, 94
1, 2369909, Note_off_c, 0, 73, 94
1, 2369909, Note_on_c, 0, 72, 98
1, 2370828, Note_off_c, 0, 72, 98
1, 2370857, Note_on_c, 0, 68, 96
1, 2371191, Note_off_c, 0, 68, 96
1, 2371477, Note_on_c, 0, 73, 98
1, 2371919, Note_off_c, 0, 73, 98
1, 2371954, Note_on_c, 0, 72, 100
1, 2372551, Note_off_c, 0, 72, 100
1, 2372622, Note_on_c, 0, 68, 99
1, 2373034, Note_off_c, 0, 68, 99
1, 2373356, Note_on_c, 0, 72, 101
1, 2373947, Note_off_c, 0, 72, 101
1, 2374197, Note_on_c, 0, 72, 101
1, 2374869, Note_off_c, 0, 72, 101
1, 2374894, Note_on_c, 0, 71, 95
1, 2375255, Note_off_c, 0, 71, 95
1, 2375600, Note_on_c, 0, 73, 102
1, 2376095, Note_off_c, 0, 73, 102
1, 2376369, Note_on_c, 0, 73, 106
1, 2376799, Note_off_c, 0, 73, 106
1, 2376810, Note_on_c, 0, 70, 97
1, 2377126, Note_off_c, 0, 70, 97
1, 2377155, Note_on_c, 0, 72, 103
1, 2377740, Note_off_c, 0, 72, 103
1, 2377829, Note_on_c, 0, 72, 99
1, 2378199, Note_off_c, 0, 72, 99
1, 2378199, Note_on_c, 0, 68, 99
1, 2378521, Note_off_c, 0, 68, 99
1, 2378550, Note_on_c, 0, 73, 106
1, 2378771, Note_off_c, 0, 73, 106
1, 2378878, Note_on_c, 0, 73, 108
1, 2379505, Note_off_c, 0, 73, 108
1, 2379522, Note_on_c, 0, 68, 109
1, 2379856, Note_off_c, 0, 68, 109
1, 2379856, Note_on_c, 0, 72, 109
1, 2380596, Note_off_c, 0, 72, 109
1, 2380643, Note_on_c, 0, 72, 108
1, 2381055, Note_off_c, 0, 72, 108
1, 2381162, Note_on_c, 0, 69, 97
1, 2381544, Note_off_c, 0, 69, 97
1, 2381735, Note_on_c, 0, 72, 109
1, 2382039, Note_off_c, 0, 72, 109
1, 2382098, Note_on_c, 0, 72, 107
1, 2382522, Note_off_c, 0, 72, 107
1, 2382623, Note_on_c, 0, 72, 106
1, 2383053, Note_off_c, 0, 72, 106
1, 2383076, Note_on_c, 0, 67, 102
1, 2383506, Note_off_c, 0, 67, 102
1, 2383506, Note_on_c, 0, 71, 113
1, 2383876, Note_off_c, 0, 71, 113
1, 2383947, Note_on_c, 0, 71, 111
1, 2384520, Note_off_c, 0, 71, 111
1, 2384561, Note_on_c, 0, 67, 100
1, 2384949, Note_off_c, 0, 67, 100
1, 2384960, Note_on_c, 0, 72, 112
1, 2385384, Note_off_c, 0, 72, 112
1, 2385461, Note_on_c, 0, 72, 109
1, 2385837, Note_off_c, 0, 72, 109
1, 2385902, Note_on_c, 0, 69, 101
1, 2386361, Note_off_c, 0, 69, 101
1, 2386361, Note_on_c, 0, 71, 106
1, 2386749, Note_off_c, 0, 71, 106
1, 2386814, Note_on_c, 0, 71, 108
1, 2387393, Note_on_c, 0, 67, 106
1, 2387393, Note_off_c, 0, 71, 108
1, 2387739, Note_off_c, 0, 67, 106
1, 2387756, Note_on_c, 0, 65, 111
1, 2388245, Note_off_c, 0, 65, 111
1, 2388245, Note_on_c, 0, 62, 109
1, 2388914, Note_off_c, 0, 62, 109
1, 2391596, Note_on_c, 0, 70, 103
1, 2391751, Note_off_c, 0, 70, 103
1, 2391900, Note_on_c, 0, 72, 104
1, 2394193, Note_off_c, 0, 72, 104
1, 2394276, Note_on_c, 0, 65, 96
1, 2394819, Note_off_c, 0, 65, 96
1, 2394884, Note_on_c, 0, 72, 108
1, 2395105, Note_off_c, 0, 72, 108
1, 2395146, Note_on_c, 0, 72, 104
1, 2395641, Note_off_c, 0, 72, 104
1, 2395664, Note_on_c, 0, 69, 105
1, 2396052, Note_off_c, 0, 69, 105
1, 2396052, Note_on_c, 0, 71, 107
1, 2396302, Note_off_c, 0, 71, 107
1, 2396361, Note_on_c, 0, 71, 107
1, 2396880, Note_off_c, 0, 71, 107
1, 2396915, Note_on_c, 0, 67, 100
1, 2397219, Note_off_c, 0, 67, 100
1, 2397302, Note_on_c, 0, 72, 108
1, 2397612, Note_off_c, 0, 72, 108
1, 2397743, Note_on_c, 0, 72, 108
1, 2398167, Note_off_c, 0, 72, 108
1, 2398178, Note_on_c, 0, 69, 105
1, 2398524, Note_off_c, 0, 69, 105
1, 2398524, Note_on_c, 0, 72, 107
1, 2399001, Note_off_c, 0, 72, 107
1, 2399054, Note_on_c, 0, 71, 106
1, 2399603, Note_off_c, 0, 71, 106
1, 2399626, Note_on_c, 0, 67, 94
1, 2399972, Note_off_c, 0, 67, 94
1, 2400061, Note_on_c, 0, 72, 106
1, 2400467, Note_off_c, 0, 72, 106
1, 2400544, Note_on_c, 0, 72, 105
1, 2400956, Note_off_c, 0, 72, 105
1, 2400979, Note_on_c, 0, 69, 101
1, 2401432, Note_off_c, 0, 69, 101
1, 2401432, Note_on_c, 0, 71, 107
1, 2401700, Note_off_c, 0, 71, 107
1, 2401777, Note_on_c, 0, 71, 107
1, 2402087, Note_off_c, 0, 71, 107
1, 2402134, Note_on_c, 0, 67, 104
1, 2402468, Note_off_c, 0, 67, 104
1, 2402533, Note_on_c, 0, 65, 106
1, 2402927, Note_off_c, 0, 65, 106
1, 2402944, Note_on_c, 0, 62, 105
1, 2403463, Note_off_c, 0, 62, 105
1, 2405571, Note_on_c, 0, 70, 94
1, 2405774, Note_off_c, 0, 70, 94
1, 2405803, Note_on_c, 0, 71, 95
1, 2407409, Note_off_c, 0, 71, 95
1, 2407892, Note_on_c, 0, 67, 97
1, 2408196, Note_off_c, 0, 67, 97
1, 2408315, Note_on_c, 0, 69, 97
1, 2408673, Note_off_c, 0, 69, 97
1, 2408684, Note_on_c, 0, 71, 103
1, 2409006, Note_off_c, 0, 71, 103
1, 2409155, Note_on_c, 0, 62, 94
1, 2409447, Note_off_c, 0, 62, 94
1, 2409464, Note_on_c, 0, 67, 102
1, 2409720, Note_off_c, 0, 67, 102
1, 2409773, Note_on_c, 0, 69, 107
1, 2410238, Note_off_c, 0, 69, 107
1, 2410285, Note_on_c, 0, 71, 103
1, 2410750, Note_off_c, 0, 71, 103
1, 2410845, Note_on_c, 0, 62, 86
1, 2411167, Note_off_c, 0, 62, 86
1, 2411214, Note_on_c, 0, 69, 103
1, 2412032, Note_off_c, 0, 69, 103
1, 2412055, Note_on_c, 0, 72, 100
1, 2412532, Note_off_c, 0, 72, 100
1, 2412537, Note_on_c, 0, 75, 95
1, 2413002, Note_off_c, 0, 75, 95
1, 2413157, Note_on_c, 0, 77, 99
1, 2414100, Note_off_c, 0, 77, 99
1, 2417283, Note_on_c, 0, 74, 90
1, 2417414, Note_off_c, 0, 74, 90
1, 2417414, Note_on_c, 0, 75, 111
1, 2417593, Note_off_c, 0, 75, 111
1, 2417593, Note_on_c, 0, 76, 109
1, 2417676, Note_off_c, 0, 76, 109
1, 2417747, Note_on_c, 0, 77, 100
1, 2423839, Note_off_c, 0, 77, 100
1, 2424312, Note_on_c, 0, 75, 105
1, 2424614, Note_off_c, 0, 75, 105
1, 2424614, Note_on_c, 0, 73, 100
1, 2424765, Note_off_c, 0, 73, 100
1, 2424790, Note_on_c, 0, 75, 104
1, 2425394, Note_off_c, 0, 75, 104
1, 2425652, Note_on_c, 0, 71, 106
1, 2425968, Note_off_c, 0, 71, 106
1, 2425968, Note_on_c, 0, 69, 100
1, 2426224, Note_off_c, 0, 69, 100
1, 2426224, Note_on_c, 0, 65, 102
1, 2426564, Note_off_c, 0, 65, 102
1, 2426575, Note_on_c, 0, 66, 100
1, 2426742, Note_off_c, 0, 66, 100
1, 2426765, Note_on_c, 0, 65, 102
1, 2427093, Note_off_c, 0, 65, 102
1, 2427093, Note_on_c, 0, 64, 102
1, 2427439, Note_off_c, 0, 64, 102
1, 2427522, Note_on_c, 0, 63, 101
1, 2427952, Note_off_c, 0, 63, 101
1, 2427987, Note_on_c, 0, 66, 96
1, 2428614, Note_off_c, 0, 66, 96
1, 2428852, Note_on_c, 0, 71, 90
1, 2429061, Note_off_c, 0, 71, 90
1, 2429138, Note_on_c, 0, 64, 94
1, 2429520, Note_off_c, 0, 64, 94
1, 2429520, Note_on_c, 0, 67, 91
1, 2429657, Note_off_c, 0, 67, 91
1, 2429657, Note_on_c, 0, 68, 90
1, 2429919, Note_off_c, 0, 68, 90
1, 2429966, Note_on_c, 0, 71, 95
1, 2430079, Note_off_c, 0, 71, 95
1, 2430102, Note_on_c, 0, 70, 95
1, 2430317, Note_off_c, 0, 70, 95
1, 2430400, Note_on_c, 0, 68, 98
1, 2430638, Note_off_c, 0, 68, 98
1, 2430638, Note_on_c, 0, 67, 97
1, 2430763, Note_off_c, 0, 67, 97
1, 2430786, Note_on_c, 0, 70, 89
1, 2431048, Note_off_c, 0, 70, 89
1, 2431274, Note_on_c, 0, 68, 96
1, 2431548, Note_off_c, 0, 68, 96
1, 2431577, Note_on_c, 0, 67, 96
1, 2432210, Note_off_c, 0, 67, 96
1, 2432299, Note_on_c, 0, 67, 93
1, 2432543, Note_off_c, 0, 67, 93
1, 2432698, Note_on_c, 0, 60, 98
1, 2433116, Note_off_c, 0, 60, 98
1, 2433145, Note_on_c, 0, 65, 101
1, 2433563, Note_off_c, 0, 65, 101
1, 2433645, Note_on_c, 0, 74, 78
1, 2433846, Note_off_c, 0, 74, 78
1, 2433963, Note_on_c, 0, 73, 93
1, 2434223, Note_off_c, 0, 73, 93
1, 2434307, Note_on_c, 0, 69, 93
1, 2434701, Note_off_c, 0, 69, 93
1, 2434712, Note_on_c, 0, 65, 98
1, 2434933, Note_off_c, 0, 65, 98
1, 2434933, Note_on_c, 0, 62, 105
1, 2435578, Note_off_c, 0, 62, 105
1, 2435691, Note_on_c, 0, 65, 98
1, 2436676, Note_off_c, 0, 65, 98
1, 2436676, Note_on_c, 0, 67, 95
1, 2436944, Note_off_c, 0, 67, 95
1, 2436973, Note_on_c, 0, 65, 103
1, 2437056, Note_on_c, 0, 62, 103
1, 2437056, Note_off_c, 0, 65, 103
1, 2437713, Note_off_c, 0, 62, 103
1, 2440347, Note_on_c, 0, 67, 104
1, 2441386, Note_off_c, 0, 67, 104
1, 2441397, Note_on_c, 0, 65, 107
1, 2441707, Note_off_c, 0, 65, 107
1, 2441754, Note_on_c, 0, 62, 103
1, 2442345, Note_off_c, 0, 62, 103
1, 2442368, Note_on_c, 0, 61, 105
1, 2442666, Note_off_c, 0, 61, 105
1, 2442701, Note_on_c, 0, 60, 97
1, 2443059, Note_off_c, 0, 60, 97
1, 2443112, Note_on_c, 0, 59, 103
1, 2443470, Note_off_c, 0, 59, 103
1, 2443470, Note_on_c, 0, 63, 113
1, 2444085, Note_off_c, 0, 63, 113
1, 2444085, Note_on_c, 0, 58, 102
1, 2444341, Note_off_c, 0, 58, 102
1, 2444388, Note_on_c, 0, 55, 106
1, 2444680, Note_off_c, 0, 55, 106
1, 2444775, Note_on_c, 0, 53, 105
1, 2445211, Note_off_c, 0, 53, 105
1, 2445228, Note_on_c, 0, 52, 107
1, 2445556, Note_on_c, 0, 51, 104
1, 2445556, Note_off_c, 0, 52, 107
1, 2446374, Note_off_c, 0, 51, 104
1, 2447956, Note_on_c, 0, 50, 114
1, 2448182, Note_off_c, 0, 50, 114
1, 2448182, Note_on_c, 0, 52, 109
1, 2448420, Note_off_c, 0, 52, 109
1, 2448425, Note_on_c, 0, 55, 104
1, 2448825, Note_off_c, 0, 55, 104
1, 2448836, Note_on_c, 0, 57, 113
1, 2449062, Note_off_c, 0, 57, 113
1, 2449151, Note_on_c, 0, 67, 115
1, 2449790, Note_off_c, 0, 67, 115
1, 2449825, Note_on_c, 0, 69, 109
1, 2450159, Note_off_c, 0, 69, 109
1, 2450164, Note_on_c, 0, 67, 105
1, 2450767, Note_off_c, 0, 67, 105
1, 2452355, Note_on_c, 0, 63, 106
1, 2452767, Note_off_c, 0, 63, 106
1, 2452802, Note_on_c, 0, 61, 98
1, 2453142, Note_off_c, 0, 61, 98
1, 2453183, Note_on_c, 0, 59, 92
1, 2453511, Note_off_c, 0, 59, 92
1, 2453743, Note_on_c, 0, 57, 97
1, 2454023, Note_off_c, 0, 57, 97
1, 2454070, Note_on_c, 0, 56, 95
1, 2454302, Note_off_c, 0, 56, 95
1, 2454439, Note_on_c, 0, 69, 87
1, 2454779, Note_off_c, 0, 69, 87
1, 2454779, Note_on_c, 0, 71, 89
1, 2454988, Note_off_c, 0, 71, 89
1, 2455185, Note_on_c, 0, 68, 101
1, 2455621, Note_off_c, 0, 68, 101
1, 2455650, Note_on_c, 0, 70, 97
1, 2456050, Note_off_c, 0, 70, 97
1, 2456169, Note_on_c, 0, 65, 91
1, 2456342, Note_off_c, 0, 65, 91
1, 2456342, Note_on_c, 0, 66, 94
1, 2456736, Note_off_c, 0, 66, 94
1, 2456885, Note_on_c, 0, 70, 92
1, 2457082, Note_off_c, 0, 70, 92
1, 2457123, Note_on_c, 0, 69, 90
1, 2457672, Note_off_c, 0, 69, 90
1, 2457677, Note_on_c, 0, 63, 102
1, 2458059, Note_off_c, 0, 63, 102
1, 2458076, Note_on_c, 0, 59, 90
1, 2458685, Note_off_c, 0, 59, 90
1, 2458906, Note_on_c, 0, 61, 103
1, 2459252, Note_off_c, 0, 61, 103
1, 2459317, Note_on_c, 0, 65, 100
1, 2459627, Note_off_c, 0, 65, 100
1, 2459830, Note_on_c, 0, 69, 95
1, 2460128, Note_off_c, 0, 69, 95
1, 2460157, Note_on_c, 0, 71, 95
1, 2460449, Note_off_c, 0, 71, 95
1, 2460562, Note_on_c, 0, 66, 98
1, 2460968, Note_off_c, 0, 66, 98
1, 2460991, Note_on_c, 0, 68, 84
1, 2461277, Note_off_c, 0, 68, 84
1, 2461354, Note_on_c, 0, 69, 90
1, 2461557, Note_off_c, 0, 69, 90
1, 2461724, Note_on_c, 0, 71, 9
1, 2462046, Note_off_c, 0, 71, 9
1, 2462141, Note_on_c, 0, 66, 98
1, 2462350, Note_off_c, 0, 66, 98
1, 2462350, Note_on_c, 0, 68, 96
1, 2462630, Note_on_c, 0, 67, 98
1, 2462630, Note_off_c, 0, 68, 96
1, 2463024, Note_off_c, 0, 67, 98
1, 2463119, Note_on_c, 0, 70, 91
1, 2463411, Note_off_c, 0, 70, 91
1, 2463518, Note_on_c, 0, 67, 87
1, 2463930, Note_off_c, 0, 67, 87
1, 2463930, Note_on_c, 0, 68, 76
1, 2464306, Note_off_c, 0, 68, 76
1, 2464945, Note_on_c, 0, 66, 85
1, 2465225, Note_off_c, 0, 66, 85
1, 2465266, Note_on_c, 0, 70, 89
1, 2465451, Note_off_c, 0, 70, 89
1, 2465451, Note_on_c, 0, 67, 94
1, 2465976, Note_off_c, 0, 67, 94
1, 2466059, Note_on_c, 0, 63, 87
1, 2466387, Note_off_c, 0, 63, 87
1, 2466387, Note_on_c, 0, 67, 82
1, 2466625, Note_off_c, 0, 67, 82
1, 2466774, Note_on_c, 0, 70, 83
1, 2467210, Note_off_c, 0, 70, 83
1, 2467323, Note_on_c, 0, 65, 97
1, 2467520, Note_off_c, 0, 65, 97
1, 2467525, Note_on_c, 0, 66, 96
1, 2467799, Note_off_c, 0, 66, 96
1, 2467799, Note_on_c, 0, 69, 97
1, 2468288, Note_off_c, 0, 69, 97
1, 2468293, Note_on_c, 0, 71, 95
1, 2468537, Note_off_c, 0, 71, 95
1, 2468554, Note_on_c, 0, 66, 102
1, 2469031, Note_off_c, 0, 66, 102
1, 2469072, Note_on_c, 0, 61, 102
1, 2469514, Note_off_c, 0, 61, 102
1, 2469514, Note_on_c, 0, 59, 99
1, 2469884, Note_off_c, 0, 59, 99
1, 2469943, Note_on_c, 0, 58, 98
1, 2470295, Note_off_c, 0, 58, 98
1, 2470354, Note_on_c, 0, 57, 100
1, 2470724, Note_off_c, 0, 57, 100
1, 2474517, Note_on_c, 0, 65, 94
1, 2474881, Note_off_c, 0, 65, 94
1, 2474881, Note_on_c, 0, 66, 104
1, 2475161, Note_off_c, 0, 66, 104
1, 2475184, Note_on_c, 0, 46, 109
1, 2476426, Note_off_c, 0, 46, 109
1, 2476461, Note_on_c, 0, 55, 105
1, 2476867, Note_off_c, 0, 55, 105
1, 2476867, Note_on_c, 0, 51, 103
1, 2477416, Note_off_c, 0, 51, 103
1, 2477810, Note_on_c, 0, 69, 101
1, 2478484, Note_off_c, 0, 69, 101
1, 2478484, Note_on_c, 0, 64, 100
1, 2478949, Note_off_c, 0, 64, 100
1, 2478960, Note_on_c, 0, 67, 98
1, 2479300, Note_off_c, 0, 67, 98
1, 2479359, Note_on_c, 0, 69, 97
1, 2479615, Note_off_c, 0, 69, 97
1, 2479615, Note_on_c, 0, 70, 98
1, 2480146, Note_off_c, 0, 70, 98
1, 2480146, Note_on_c, 0, 65, 95
1, 2480367, Note_off_c, 0, 65, 95
1, 2480367, Note_on_c, 0, 70, 102
1, 2480743, Note_off_c, 0, 70, 102
1, 2480743, Note_on_c, 0, 68, 101
1, 2481023, Note_off_c, 0, 68, 101
1, 2481040, Note_on_c, 0, 67, 105
1, 2481440, Note_off_c, 0, 67, 105
1, 2481469, Note_on_c, 0, 66, 99
1, 2481815, Note_off_c, 0, 66, 99
1, 2481928, Note_on_c, 0, 60, 92
1, 2482292, Note_off_c, 0, 60, 92
1, 2482315, Note_on_c, 0, 65, 101
1, 2482673, Note_off_c, 0, 65, 101
1, 2482673, Note_on_c, 0, 69, 98
1, 2482977, Note_off_c, 0, 69, 98
1, 2483096, Note_on_c, 0, 71, 104
1, 2483412, Note_off_c, 0, 71, 104
1, 2483412, Note_on_c, 0, 63, 108
1, 2483901, Note_off_c, 0, 63, 108
1, 2483901, Note_on_c, 0, 66, 100
1, 2484259, Note_off_c, 0, 66, 100
1, 2484390, Note_on_c, 0, 73, 93
1, 2484634, Note_off_c, 0, 73, 93
1, 2484717, Note_on_c, 0, 74, 98
1, 2485081, Note_off_c, 0, 74, 98
1, 2485081, Note_on_c, 0, 68, 98
1, 2485726, Note_off_c, 0, 68, 98
1, 2487422, Note_on_c, 0, 45, 106
1, 2487983, Note_off_c, 0, 45, 106
1, 2487983, Note_on_c, 0, 54, 106
1, 2488239, Note_off_c, 0, 54, 106
1, 2488256, Note_on_c, 0, 46, 106
1, 2489349, Note_off_c, 0, 46, 106
1, 2489444, Note_on_c, 0, 56, 105
1, 2489730, Note_on_c, 0, 51, 101
1, 2489730, Note_off_c, 0, 56, 105
1, 2490189, Note_off_c, 0, 51, 101
1, 2490189, Note_on_c, 0, 54, 101
1, 2490433, Note_off_c, 0, 54, 101
1, 2490570, Note_on_c, 0, 57, 104
1, 2490904, Note_off_c, 0, 57, 104
1, 2491029, Note_on_c, 0, 52, 99
1, 2491536, Note_off_c, 0, 52, 99
1, 2492354, Note_on_c, 0, 63, 102
1, 2492551, Note_off_c, 0, 63, 102
1, 2492562, Note_on_c, 0, 64, 103
1, 2492794, Note_off_c, 0, 64, 103
1, 2492835, Note_on_c, 0, 67, 94
1, 2493115, Note_off_c, 0, 67, 94
1, 2493115, Note_on_c, 0, 71, 98
1, 2493467, Note_off_c, 0, 71, 98
1, 2493502, Note_on_c, 0, 69, 98
1, 2493908, Note_off_c, 0, 69, 98
1, 2493931, Note_on_c, 0, 66, 91
1, 2494050, Note_off_c, 0, 66, 91
1, 2494061, Note_on_c, 0, 69, 95
1, 2494287, Note_off_c, 0, 69, 95
1, 2494310, Note_on_c, 0, 68, 108
1, 2494722, Note_off_c, 0, 68, 108
1, 2494722, Note_on_c, 0, 67, 107
1, 2495152, Note_off_c, 0, 67, 107
1, 2496412, Note_on_c, 0, 61, 100
1, 2496842, Note_off_c, 0, 61, 100
1, 2496865, Note_on_c, 0, 65, 92
1, 2497020, Note_off_c, 0, 65, 92
1, 2497085, Note_on_c, 0, 69, 95
1, 2497568, Note_off_c, 0, 69, 95
1, 2497591, Note_on_c, 0, 71, 99
1, 2497961, Note_off_c, 0, 71, 99
1, 2497961, Note_on_c, 0, 63, 101
1, 2498456, Note_off_c, 0, 63, 101
1, 2498485, Note_on_c, 0, 67, 91
1, 2498628, Note_off_c, 0, 67, 91
1, 2498723, Note_on_c, 0, 70, 100
1, 2499176, Note_off_c, 0, 70, 100
1, 2499235, Note_on_c, 0, 70, 92
1, 2499802, Note_off_c, 0, 70, 92
1, 2499879, Note_on_c, 0, 68, 99
1, 2500064, Note_off_c, 0, 68, 99
1, 2500064, Note_on_c, 0, 67, 101
1, 2500756, Note_off_c, 0, 67, 101
1, 2500911, Note_on_c, 0, 67, 100
1, 2501239, Note_off_c, 0, 67, 100
1, 2501340, Note_on_c, 0, 60, 98
1, 2501614, Note_off_c, 0, 60, 98
1, 2501625, Note_on_c, 0, 62, 96
1, 2501744, Note_off_c, 0, 62, 96
1, 2501773, Note_on_c, 0, 65, 100
1, 2501898, Note_off_c, 0, 65, 100
1, 2501909, Note_on_c, 0, 67, 86
1, 2502046, Note_off_c, 0, 67, 86
1, 2502517, Note_on_c, 0, 78, 102
1, 2502696, Note_off_c, 0, 78, 102
1, 2502696, Note_on_c, 0, 79, 105
1, 2502797, Note_off_c, 0, 79, 105
1, 2502874, Note_on_c, 0, 81, 106
1, 2503268, Note_off_c, 0, 81, 106
1, 2503315, Note_on_c, 0, 79, 93
1, 2503577, Note_on_c, 0, 75, 93
1, 2503577, Note_off_c, 0, 79, 93
1, 2503678, Note_off_c, 0, 75, 93
1, 2503731, Note_on_c, 0, 68, 101
1, 2503904, Note_off_c, 0, 68, 101
1, 2503963, Note_on_c, 0, 69, 99
1, 2504213, Note_off_c, 0, 69, 99
1, 2504236, Note_on_c, 0, 68, 99
1, 2504415, Note_off_c, 0, 68, 99
1, 2504444, Note_on_c, 0, 67, 99
1, 2504772, Note_off_c, 0, 67, 99
1, 2509467, Note_on_c, 0, 77, 77
1, 2509622, Note_off_c, 0, 77, 77
1, 2509789, Note_on_c, 0, 79, 102
1, 2512477, Note_off_c, 0, 79, 102
1, 2512535, Note_on_c, 0, 77, 98
1, 2512736, Note_off_c, 0, 77, 98
1, 2512761, Note_on_c, 0, 79, 97
1, 2513811, Note_off_c, 0, 79, 97
1, 2513853, Note_on_c, 0, 68, 102
1, 2514340, Note_off_c, 0, 68, 102
1, 2514415, Note_on_c, 0, 66, 102
1, 2514734, Note_off_c, 0, 66, 102
1, 2516780, Note_on_c, 0, 75, 101
1, 2516989, Note_off_c, 0, 75, 101
1, 2517162, Note_on_c, 0, 77, 94
1, 2519360, Note_off_c, 0, 77, 94
1, 2519377, Note_on_c, 0, 72, 101
1, 2519777, Note_off_c, 0, 72, 101
1, 2519830, Note_on_c, 0, 46, 101
1, 2520098, Note_off_c, 0, 46, 101
1, 2520115, Note_on_c, 0, 45, 102
1, 2521285, Note_off_c, 0, 45, 102
1, 2523429, Note_on_c, 0, 78, 87
1, 2523560, Note_off_c, 0, 78, 87
1, 2523577, Note_on_c, 0, 79, 104
1, 2524873, Note_off_c, 0, 79, 104
1, 2524873, Note_on_c, 0, 80, 108
1, 2525034, Note_off_c, 0, 80, 108
1, 2525093, Note_on_c, 0, 81, 105
1, 2526162, Note_off_c, 0, 81, 105
1, 2526167, Note_on_c, 0, 80, 103
1, 2526244, Note_off_c, 0, 80, 103
1, 2526267, Note_on_c, 0, 77, 98
1, 2526332, Note_off_c, 0, 77, 98
1, 2526355, Note_on_c, 0, 75, 92
1, 2526402, Note_off_c, 0, 75, 92
1, 2526509, Note_on_c, 0, 72, 100
1, 2526640, Note_off_c, 0, 72, 100
1, 2526711, Note_on_c, 0, 70, 101
1, 2526920, Note_off_c, 0, 70, 101
1, 2526931, Note_on_c, 0, 69, 90
1, 2527152, Note_off_c, 0, 69, 90
1, 2529702, Note_on_c, 0, 79, 92
1, 2529903, Note_off_c, 0, 79, 92
1, 2529978, Note_on_c, 0, 80, 100
1, 2530288, Note_off_c, 0, 80, 100
1, 2530288, Note_on_c, 0, 81, 107
1, 2535697, Note_off_c, 0, 81, 107
1, 2535831, Note_on_c, 0, 80, 91
1, 2536049, Note_off_c, 0, 80, 91
1, 2536065, Note_on_c, 0, 81, 105
1, 2537106, Note_off_c, 0, 81, 105
1, 2537253, Note_on_c, 0, 76, 91
1, 2537623, Note_off_c, 0, 76, 91
1, 2537682, Note_on_c, 0, 77, 87
1, 2540477, Note_off_c, 0, 77, 87
1, 2540692, Note_on_c, 0, 74, 97
1, 2540954, Note_off_c, 0, 74, 97
1, 2541034, Note_on_c, 0, 73, 93
1, 2541380, Note_off_c, 0, 73, 93
1, 2541502, Note_on_c, 0, 69, 85
1, 2541693, Note_off_c, 0, 69, 85
1, 2541800, Note_on_c, 0, 74, 92
1, 2542038, Note_off_c, 0, 74, 92
1, 2542145, Note_on_c, 0, 72, 94
1, 2542270, Note_off_c, 0, 72, 94
1, 2542270, Note_on_c, 0, 69, 89
1, 2542735, Note_off_c, 0, 69, 89
1, 2542735, Note_on_c, 0, 65, 94
1, 2543021, Note_off_c, 0, 65, 94
1, 2543038, Note_on_c, 0, 62, 102
1, 2543623, Note_off_c, 0, 62, 102
1, 2543682, Note_on_c, 0, 58, 83
1, 2543837, Note_off_c, 0, 58, 83
1, 2543908, Note_on_c, 0, 65, 94
1, 2544660, Note_off_c, 0, 65, 94
1, 2544749, Note_on_c, 0, 67, 93
1, 2545262, Note_off_c, 0, 67, 93
1, 2547215, Note_on_c, 0, 67, 89
1, 2547453, Note_off_c, 0, 67, 89
1, 2547512, Note_on_c, 0, 69, 90
1, 2547930, Note_off_c, 0, 69, 90
1, 2547989, Note_on_c, 0, 71, 87
1, 2548341, Note_off_c, 0, 71, 87
1, 2548458, Note_on_c, 0, 67, 91
1, 2550108, Note_off_c, 0, 67, 91
1, 2550242, Note_on_c, 0, 65, 99
1, 2550737, Note_off_c, 0, 65, 99
1, 2551068, Note_on_c, 0, 65, 98
1, 2553057, Note_off_c, 0, 65, 98
1, 2553084, Note_on_c, 0, 64, 89
1, 2553222, Note_off_c, 0, 64, 89
1, 2553276, Note_on_c, 0, 65, 92
1, 2553519, Note_off_c, 0, 65, 92
1, 2553636, Note_on_c, 0, 62, 98
1, 2553929, Note_off_c, 0, 62, 98
1, 2553941, Note_on_c, 0, 65, 94
1, 2554230, Note_off_c, 0, 65, 94
1, 2554263, Note_on_c, 0, 62, 101
1, 2555233, Note_off_c, 0, 62, 101
1, 2555245, Note_on_c, 0, 59, 92
1, 2555559, Note_off_c, 0, 59, 92
1, 2555559, Note_on_c, 0, 62, 98
1, 2555962, Note_off_c, 0, 62, 98
1, 2555991, Note_on_c, 0, 59, 90
1, 2556297, Note_off_c, 0, 59, 90
1, 2556368, Note_on_c, 0, 57, 95
1, 2558354, Note_off_c, 0, 57, 95
1, 2558383, Note_on_c, 0, 53, 99
1, 2558887, Note_off_c, 0, 53, 99
1, 2558924, Note_on_c, 0, 50, 102
1, 2559247, Note_off_c, 0, 50, 102
1, 2562841, Note_on_c, 0, 70, 90
1, 2563056, Note_off_c, 0, 70, 90
1, 2563189, Note_on_c, 0, 72, 93
1, 2564911, Note_off_c, 0, 72, 93
1, 2564953, Note_on_c, 0, 71, 98
1, 2565179, Note_off_c, 0, 71, 98
1, 2565187, Note_on_c, 0, 72, 99
1, 2568219, Note_off_c, 0, 72, 99
1, 2568361, Note_on_c, 0, 72, 99
1, 2568772, Note_off_c, 0, 72, 99
1, 2568774, Note_on_c, 0, 70, 92
1, 2569060, Note_off_c, 0, 70, 92
1, 2569119, Note_on_c, 0, 68, 91
1, 2569525, Note_off_c, 0, 68, 91
1, 2569572, Note_on_c, 0, 65, 95
1, 2569906, Note_off_c, 0, 65, 95
1, 2569906, Note_on_c, 0, 63, 100
1, 2570413, Note_off_c, 0, 63, 100
1, 2570413, Note_on_c, 0, 68, 94
1, 2570968, Note_off_c, 0, 68, 94
1, 2573070, Note_on_c, 0, 70, 104
1, 2573960, Note_off_c, 0, 70, 104
1, 2573989, Note_on_c, 0, 69, 96
1, 2574120, Note_off_c, 0, 69, 96
1, 2574284, Note_on_c, 0, 70, 103
1, 2575787, Note_off_c, 0, 70, 103
1, 2575857, Note_on_c, 0, 68, 87
1, 2576191, Note_off_c, 0, 68, 87
1, 2576191, Note_on_c, 0, 70, 98
1, 2576519, Note_off_c, 0, 70, 98
1, 2576524, Note_on_c, 0, 72, 101
1, 2576858, Note_off_c, 0, 72, 101
1, 2576858, Note_on_c, 0, 70, 101
1, 2577837, Note_off_c, 0, 70, 101
1, 2579470, Note_on_c, 0, 70, 99
1, 2579919, Note_off_c, 0, 70, 99
1, 2579990, Note_on_c, 0, 64, 97
1, 2580388, Note_off_c, 0, 64, 97
1, 2580388, Note_on_c, 0, 65, 94
1, 2580736, Note_off_c, 0, 65, 94
1, 2580736, Note_on_c, 0, 67, 93
1, 2581105, Note_off_c, 0, 67, 93
1, 2581155, Note_on_c, 0, 66, 89
1, 2581545, Note_off_c, 0, 66, 89
1, 2581545, Note_on_c, 0, 63, 100
1, 2581902, Note_off_c, 0, 63, 100
1, 2581935, Note_on_c, 0, 62, 103
1, 2582363, Note_off_c, 0, 62, 103
1, 2582417, Note_on_c, 0, 65, 93
1, 2582744, Note_off_c, 0, 65, 93
1, 2582744, Note_on_c, 0, 63, 100
1, 2583239, Note_off_c, 0, 63, 100
1, 2585969, Note_on_c, 0, 63, 107
1, 2586389, Note_off_c, 0, 63, 107
1, 2586405, Note_on_c, 0, 62, 97
1, 2586829, Note_off_c, 0, 62, 97
1, 2586829, Note_on_c, 0, 63, 100
1, 2587316, Note_off_c, 0, 63, 100
1, 2587366, Note_on_c, 0, 66, 91
1, 2587576, Note_off_c, 0, 66, 91
1, 2587576, Note_on_c, 0, 65, 94
1, 2587844, Note_off_c, 0, 65, 94
1, 2588133, Note_on_c, 0, 61, 94
1, 2588439, Note_off_c, 0, 61, 94
1, 2588552, Note_on_c, 0, 58, 97
1, 2588846, Note_off_c, 0, 58, 97
1, 2588908, Note_on_c, 0, 54, 90
1, 2589311, Note_off_c, 0, 54, 90
1, 2589311, Note_on_c, 0, 60, 100
1, 2590109, Note_off_c, 0, 60, 100
1, 2592486, Note_on_c, 0, 60, 101
1, 2592801, Note_off_c, 0, 60, 101
1, 2592843, Note_on_c, 0, 61, 93
1, 2593229, Note_off_c, 0, 61, 93
1, 2593271, Note_on_c, 0, 63, 101
1, 2593808, Note_off_c, 0, 63, 101
1, 2593854, Note_on_c, 0, 65, 96
1, 2594198, Note_off_c, 0, 65, 96
1, 2594202, Note_on_c, 0, 62, 98
1, 2594630, Note_off_c, 0, 62, 98
1, 2594726, Note_on_c, 0, 65, 96
1, 2595024, Note_off_c, 0, 65, 96
1, 2595032, Note_on_c, 0, 69, 91
1, 2595494, Note_off_c, 0, 69, 91
1, 2595515, Note_on_c, 0, 72, 97
1, 2595712, Note_off_c, 0, 72, 97
1, 2595804, Note_on_c, 0, 66, 94
1, 2596060, Note_off_c, 0, 66, 94
1, 2596068, Note_on_c, 0, 67, 98
1, 2596664, Note_off_c, 0, 67, 98
1, 2596756, Note_on_c, 0, 71, 98
1, 2597230, Note_off_c, 0, 71, 98
1, 2597347, Note_on_c, 0, 62, 93
1, 2597649, Note_off_c, 0, 62, 93
1, 2597649, Note_on_c, 0, 67, 94
1, 2598354, Note_off_c, 0, 67, 94
1, 2598404, Note_on_c, 0, 71, 97
1, 2598874, Note_off_c, 0, 71, 97
1, 2599004, Note_on_c, 0, 62, 94
1, 2599289, Note_off_c, 0, 62, 94
1, 2599318, Note_on_c, 0, 67, 94
1, 2600031, Note_off_c, 0, 67, 94
1, 2600127, Note_on_c, 0, 69, 95
1, 2600626, Note_off_c, 0, 69, 95
1, 2600626, Note_on_c, 0, 65, 90
1, 2601008, Note_off_c, 0, 65, 90
1, 2602545, Note_on_c, 0, 66, 99
1, 2602931, Note_off_c, 0, 66, 99
1, 2602931, Note_on_c, 0, 67, 96
1, 2603762, Note_off_c, 0, 67, 96
1, 2603764, Note_on_c, 0, 62, 93
1, 2604271, Note_off_c, 0, 62, 93
1, 2604271, Note_on_c, 0, 67, 93
1, 2604802, Note_off_c, 0, 67, 93
1, 2604807, Note_on_c, 0, 69, 94
1, 2605093, Note_off_c, 0, 69, 94
1, 2605093, Note_on_c, 0, 71, 96
1, 2605457, Note_off_c, 0, 71, 96
1, 2605486, Note_on_c, 0, 62, 89
1, 2605802, Note_off_c, 0, 62, 89
1, 2605957, Note_on_c, 0, 67, 91
1, 2606369, Note_off_c, 0, 67, 91
1, 2606404, Note_on_c, 0, 69, 94
1, 2606714, Note_off_c, 0, 69, 94
1, 2606714, Note_on_c, 0, 71, 97
1, 2607078, Note_off_c, 0, 71, 97
1, 2607078, Note_on_c, 0, 62, 89
1, 2607531, Note_on_c, 0, 66, 93
1, 2607531, Note_off_c, 0, 62, 89
1, 2607734, Note_off_c, 0, 66, 93
1, 2607835, Note_on_c, 0, 67, 94
1, 2608193, Note_off_c, 0, 67, 94
1, 2608193, Note_on_c, 0, 69, 92
1, 2608449, Note_off_c, 0, 69, 92
1, 2608449, Note_on_c, 0, 71, 99
1, 2608801, Note_off_c, 0, 71, 99
1, 2608824, Note_on_c, 0, 67, 99
1, 2609469, Note_off_c, 0, 67, 99
1, 2617222, Note_on_c, 0, 70, 96
1, 2617419, Note_off_c, 0, 70, 96
1, 2617424, Note_on_c, 0, 71, 97
1, 2618045, Note_off_c, 0, 71, 97
1, 2618074, Note_on_c, 0, 74, 97
1, 2618641, Note_off_c, 0, 74, 97
1, 2622219, Note_on_c, 0, 70, 99
1, 2622434, Note_off_c, 0, 70, 99
1, 2622481, Note_on_c, 0, 74, 94
1, 2623872, Note_off_c, 0, 74, 94
1, 2623872, Note_on_c, 0, 71, 97
1, 2624320, Note_off_c, 0, 71, 97
1, 2624361, Note_on_c, 0, 65, 90
1, 2625209, Note_off_c, 0, 65, 90
1, 2627795, Note_on_c, 0, 69, 93
1, 2628069, Note_off_c, 0, 69, 93
1, 2628200, Note_on_c, 0, 71, 92
1, 2629926, Note_off_c, 0, 71, 92
1, 2630152, Note_on_c, 0, 65, 94
1, 2630361, Note_off_c, 0, 65, 94
1, 2630361, Note_on_c, 0, 70, 102
1, 2630635, Note_on_c, 0, 71, 99
1, 2630635, Note_off_c, 0, 70, 102
1, 2630861, Note_off_c, 0, 71, 99
1, 2630902, Note_on_c, 0, 74, 99
1, 2631654, Note_off_c, 0, 74, 99
1, 2634288, Note_on_c, 0, 71, 96
1, 2634795, Note_off_c, 0, 71, 96
1, 2634836, Note_on_c, 0, 67, 85
1, 2635158, Note_off_c, 0, 67, 85
1, 2635163, Note_on_c, 0, 74, 94
1, 2636823, Note_off_c, 0, 74, 94
1, 2636889, Note_on_c, 0, 71, 96
1, 2637174, Note_off_c, 0, 71, 96
1, 2637241, Note_on_c, 0, 74, 100
1, 2638534, Note_off_c, 0, 74, 100
1, 2638584, Note_on_c, 0, 71, 97
1, 2638911, Note_off_c, 0, 71, 97
1, 2638953, Note_on_c, 0, 65, 94
1, 2639457, Note_off_c, 0, 65, 94
1, 2641330, Note_on_c, 0, 70, 97
1, 2641694, Note_off_c, 0, 70, 97
1, 2641729, Note_on_c, 0, 71, 97
1, 2642875, Note_off_c, 0, 71, 97
1, 2642898, Note_on_c, 0, 65, 87
1, 2643310, Note_off_c, 0, 65, 87
1, 2643327, Note_on_c, 0, 71, 96
1, 2644103, Note_off_c, 0, 71, 96
1, 2644252, Note_on_c, 0, 74, 101
1, 2644604, Note_on_c, 0, 73, 97
1, 2644604, Note_off_c, 0, 74, 101
1, 2644825, Note_off_c, 0, 73, 97
1, 2645092, Note_on_c, 0, 70, 94
1, 2645629, Note_off_c, 0, 70, 94
1, 2645654, Note_on_c, 0, 71, 99
1, 2646317, Note_off_c, 0, 71, 99
1, 2646346, Note_on_c, 0, 73, 102
1, 2646907, Note_off_c, 0, 73, 102
1, 2646970, Note_on_c, 0, 74, 90
1, 2647322, Note_off_c, 0, 74, 90
1, 2647376, Note_on_c, 0, 67, 95
1, 2647565, Note_off_c, 0, 67, 95
1, 2647693, Note_on_c, 0, 70, 92
1, 2648045, Note_off_c, 0, 70, 92
1, 2648080, Note_on_c, 0, 74, 102
1, 2649191, Note_off_c, 0, 74, 102
1, 2649810, Note_on_c, 0, 74, 98
1, 2650238, Note_off_c, 0, 74, 98
1, 2650647, Note_on_c, 0, 77, 86
1, 2651991, Note_off_c, 0, 77, 86
1, 2652032, Note_on_c, 0, 79, 93
1, 2652169, Note_off_c, 0, 79, 93
1, 2652169, Note_on_c, 0, 72, 99
1, 2652646, Note_off_c, 0, 72, 99
1, 2652687, Note_on_c, 0, 74, 103
1, 2653117, Note_off_c, 0, 74, 103
1, 2653430, Note_on_c, 0, 77, 81
1, 2654186, Note_off_c, 0, 77, 81
1, 2654559, Note_on_c, 0, 72, 100
1, 2655056, Note_off_c, 0, 72, 100
1, 2655056, Note_on_c, 0, 74, 100
1, 2655748, Note_off_c, 0, 74, 100
1, 2655779, Note_on_c, 0, 70, 95
1, 2656194, Note_off_c, 0, 70, 95
1, 2656194, Note_on_c, 0, 65, 93
1, 2656517, Note_off_c, 0, 65, 93
1, 2656564, Note_on_c, 0, 67, 95
1, 2657896, Note_off_c, 0, 67, 95
1, 2657913, Note_on_c, 0, 66, 102
1, 2658110, Note_off_c, 0, 66, 102
1, 2658110, Note_on_c, 0, 67, 102
1, 2658378, Note_off_c, 0, 67, 102
1, 2658383, Note_on_c, 0, 68, 95
1, 2658801, Note_off_c, 0, 68, 95
1, 2658814, Note_on_c, 0, 65, 98
1, 2659200, Note_off_c, 0, 65, 98
1, 2659250, Note_on_c, 0, 61, 98
1, 2659548, Note_off_c, 0, 61, 98
1, 2659581, Note_on_c, 0, 62, 98
1, 2661032, Note_off_c, 0, 62, 98
1, 2661079, Note_on_c, 0, 58, 95
1, 2661258, Note_off_c, 0, 58, 95
1, 2661281, Note_on_c, 0, 55, 88
1, 2661461, Note_off_c, 0, 55, 88
1, 2661471, Note_on_c, 0, 53, 91
1, 2661714, Note_off_c, 0, 53, 91
1, 2661781, Note_on_c, 0, 50, 101
1, 2661912, Note_off_c, 0, 50, 101
1, 2661923, Note_on_c, 0, 48, 105
1, 2662141, Note_off_c, 0, 48, 105
1, 2662173, Note_on_c, 0, 50, 98
1, 2662395, Note_off_c, 0, 50, 98
1, 2667188, Note_on_c, 0, 73, 85
1, 2667339, Note_off_c, 0, 73, 85
1, 2667431, Note_on_c, 0, 74, 90
1, 2667670, Note_off_c, 0, 74, 90
1, 2667678, Note_on_c, 0, 75, 90
1, 2668530, Note_off_c, 0, 75, 90
1, 2668889, Note_on_c, 0, 76, 77
1, 2668984, Note_off_c, 0, 76, 77
1, 2668995, Note_on_c, 0, 77, 79
1, 2669108, Note_off_c, 0, 77, 79
1, 2669144, Note_on_c, 0, 78, 77
1, 2669521, Note_off_c, 0, 78, 77
1, 2669588, Note_on_c, 0, 76, 84
1, 2669873, Note_off_c, 0, 76, 84
1, 2669906, Note_on_c, 0, 77, 86
1, 2670191, Note_off_c, 0, 77, 86
1, 2670251, Note_on_c, 0, 78, 84
1, 2672974, Note_off_c, 0, 78, 84
1, 2672985, Note_on_c, 0, 76, 103
1, 2673301, Note_off_c, 0, 76, 103
1, 2673301, Note_on_c, 0, 75, 102
1, 2673701, Note_off_c, 0, 75, 102
1, 2673993, Note_on_c, 0, 72, 93
1, 2674524, Note_off_c, 0, 72, 93
1, 2674571, Note_on_c, 0, 73, 95
1, 2676614, Note_off_c, 0, 73, 95
1, 2676679, Note_on_c, 0, 71, 89
1, 2676876, Note_off_c, 0, 71, 89
1, 2676876, Note_on_c, 0, 72, 92
1, 2677043, Note_off_c, 0, 72, 92
1, 2677072, Note_on_c, 0, 73, 93
1, 2677281, Note_off_c, 0, 73, 93
1, 2677292, Note_on_c, 0, 75, 90
1, 2677877, Note_off_c, 0, 75, 90
1, 2677912, Note_on_c, 0, 68, 89
1, 2678222, Note_off_c, 0, 68, 89
1, 2678222, Note_on_c, 0, 67, 89
1, 2678675, Note_off_c, 0, 67, 89
1, 2678686, Note_on_c, 0, 68, 87
1, 2680262, Note_off_c, 0, 68, 87
1, 2680262, Note_on_c, 0, 67, 88
1, 2680399, Note_off_c, 0, 67, 88
1, 2680410, Note_on_c, 0, 66, 89
1, 2680840, Note_off_c, 0, 66, 89
1, 2680875, Note_on_c, 0, 68, 89
1, 2681096, Note_off_c, 0, 68, 89
1, 2681173, Note_on_c, 0, 70, 82
1, 2681477, Note_off_c, 0, 70, 82
1, 2681512, Note_on_c, 0, 61, 83
1, 2681721, Note_off_c, 0, 61, 83
1, 2681721, Note_on_c, 0, 62, 88
1, 2681852, Note_off_c, 0, 62, 88
1, 2681893, Note_on_c, 0, 63, 98
1, 2683643, Note_off_c, 0, 63, 98
1, 2683666, Note_on_c, 0, 66, 94
1, 2683940, Note_off_c, 0, 66, 94
1, 2683945, Note_on_c, 0, 63, 94
1, 2684195, Note_off_c, 0, 63, 94
1, 2684195, Note_on_c, 0, 61, 89
1, 2684433, Note_off_c, 0, 61, 89
1, 2684433, Note_on_c, 0, 58, 90
1, 2684863, Note_off_c, 0, 58, 90
1, 2684868, Note_on_c, 0, 55, 83
1, 2685118, Note_off_c, 0, 55, 83
1, 2685297, Note_on_c, 0, 58, 87
1, 2685565, Note_off_c, 0, 58, 87
1, 2685600, Note_on_c, 0, 57, 94
1, 2685916, Note_off_c, 0, 57, 94
1, 2685916, Note_on_c, 0, 53, 91
1, 2686148, Note_off_c, 0, 53, 91
1, 2686165, Note_on_c, 0, 54, 89
1, 2686399, Note_off_c, 0, 54, 89
1, 2686399, Note_on_c, 0, 53, 93
1, 2686558, Note_off_c, 0, 53, 93
1, 2686558, Note_on_c, 0, 50, 106
1, 2686709, Note_off_c, 0, 50, 106
1, 2686759, Note_on_c, 0, 47, 92
1, 2687002, Note_off_c, 0, 47, 92
1, 2687029, Note_on_c, 0, 46, 87
1, 2689251, Note_off_c, 0, 46, 87
1, 2689346, Note_on_c, 0, 43, 98
1, 2689943, Note_off_c, 0, 43, 98
1, 2689943, Note_on_c, 0, 51, 91
1, 2690408, Note_off_c, 0, 51, 91
1, 2693478, Note_on_c, 0, 71, 96
1, 2693633, Note_off_c, 0, 71, 96
1, 2693740, Note_on_c, 0, 73, 97
1, 2696053, Note_off_c, 0, 73, 97
1, 2696053, Note_on_c, 0, 74, 102
1, 2696573, Note_off_c, 0, 74, 102
1, 2696951, Note_on_c, 0, 77, 100
1, 2697916, Note_off_c, 0, 77, 100
1, 2697916, Note_on_c, 0, 72, 104
1, 2698243, Note_off_c, 0, 72, 104
1, 2698251, Note_on_c, 0, 74, 102
1, 2698620, Note_off_c, 0, 74, 102
1, 2698620, Note_on_c, 0, 73, 104
1, 2698737, Note_off_c, 0, 73, 104
1, 2698745, Note_on_c, 0, 71, 89
1, 2698837, Note_off_c, 0, 71, 89
1, 2698845, Note_on_c, 0, 70, 95
1, 2699138, Note_off_c, 0, 70, 95
1, 2699255, Note_on_c, 0, 67, 90
1, 2699465, Note_off_c, 0, 67, 90
1, 2699515, Note_on_c, 0, 69, 97
1, 2699750, Note_off_c, 0, 69, 97
1, 2699800, Note_on_c, 0, 67, 94
1, 2700026, Note_off_c, 0, 67, 94
1, 2700031, Note_on_c, 0, 68, 99
1, 2700461, Note_off_c, 0, 68, 99
1, 2700478, Note_on_c, 0, 67, 91
1, 2700681, Note_off_c, 0, 67, 91
1, 2700888, Note_on_c, 0, 62, 93
1, 2701240, Note_off_c, 0, 62, 93
1, 2701306, Note_on_c, 0, 61, 92
1, 2701969, Note_off_c, 0, 61, 92
1, 2701998, Note_on_c, 0, 62, 99
1, 2702344, Note_on_c, 0, 58, 95
1, 2702344, Note_off_c, 0, 62, 99
1, 2702553, Note_off_c, 0, 58, 95
1, 2702600, Note_on_c, 0, 55, 89
1, 2702749, Note_off_c, 0, 55, 89
1, 2702760, Note_on_c, 0, 54, 90
1, 2702939, Note_off_c, 0, 54, 90
1, 2703134, Note_on_c, 0, 49, 89
1, 2703390, Note_off_c, 0, 49, 89
1, 2703392, Note_on_c, 0, 50, 94
1, 2704061, Note_off_c, 0, 50, 94
1, 2704061, Note_on_c, 0, 46, 92
1, 2704682, Note_off_c, 0, 46, 92
1, 2706766, Note_on_c, 0, 77, 94
1, 2706903, Note_off_c, 0, 77, 94
1, 2706949, Note_on_c, 0, 79, 103
1, 2707931, Note_off_c, 0, 79, 103
1, 2707947, Note_on_c, 0, 84, 97
1, 2708488, Note_off_c, 0, 84, 97
1, 2708676, Note_on_c, 0, 78, 57
1, 2708965, Note_off_c, 0, 78, 57
1, 2709049, Note_on_c, 0, 73, 105
1, 2709364, Note_off_c, 0, 73, 105
1, 2709380, Note_on_c, 0, 74, 105
1, 2709749, Note_off_c, 0, 74, 105
1, 2710076, Note_on_c, 0, 76, 84
1, 2710193, Note_off_c, 0, 76, 84
1, 2710205, Note_on_c, 0, 77, 100
1, 2711103, Note_off_c, 0, 77, 100
1, 2711220, Note_on_c, 0, 73, 111
1, 2711480, Note_off_c, 0, 73, 111
1, 2711480, Note_on_c, 0, 72, 104
1, 2711635, Note_off_c, 0, 72, 104
1, 2711635, Note_on_c, 0, 74, 107
1, 2712382, Note_off_c, 0, 74, 107
1, 2712453, Note_on_c, 0, 72, 108
1, 2712982, Note_off_c, 0, 72, 108
1, 2713002, Note_on_c, 0, 73, 107
1, 2714068, Note_off_c, 0, 73, 107
1, 2714118, Note_on_c, 0, 72, 98
1, 2714256, Note_off_c, 0, 72, 98
1, 2714327, Note_on_c, 0, 71, 105
1, 2714625, Note_off_c, 0, 71, 105
1, 2714637, Note_on_c, 0, 70, 100
1, 2714729, Note_off_c, 0, 70, 100
1, 2714896, Note_on_c, 0, 66, 99
1, 2715328, Note_off_c, 0, 66, 99
1, 2715386, Note_on_c, 0, 67, 98
1, 2715915, Note_off_c, 0, 67, 98
1, 2715936, Note_on_c, 0, 68, 105
1, 2716864, Note_on_c, 0, 61, 100
1, 2716864, Note_off_c, 0, 68, 105
1, 2716998, Note_off_c, 0, 61, 100
1, 2717006, Note_on_c, 0, 62, 107
1, 2717627, Note_off_c, 0, 62, 107
1, 2717635, Note_on_c, 0, 65, 109
1, 2718340, Note_off_c, 0, 65, 109
1, 2720986, Note_on_c, 0, 67, 100
1, 2721427, Note_off_c, 0, 67, 100
1, 2721506, Note_on_c, 0, 62, 101
1, 2721968, Note_off_c, 0, 62, 101
1, 2721976, Note_on_c, 0, 65, 105
1, 2722652, Note_off_c, 0, 65, 105
1, 2722715, Note_on_c, 0, 67, 102
1, 2724972, Note_off_c, 0, 67, 102
1, 2725007, Note_on_c, 0, 67, 103
1, 2726894, Note_off_c, 0, 67, 103
1, 2726917, Note_on_c, 0, 65, 105
1, 2727311, Note_off_c, 0, 65, 105
1, 2727334, Note_on_c, 0, 69, 103
1, 2727859, Note_off_c, 0, 69, 103
1, 2727891, Note_on_c, 0, 68, 95
1, 2727941, Note_off_c, 0, 68, 95
1, 2727974, Note_on_c, 0, 67, 93
1, 2728184, Note_off_c, 0, 67, 93
1, 2730225, Note_on_c, 0, 69, 102
1, 2730846, Note_off_c, 0, 69, 102
1, 2730846, Note_on_c, 0, 67, 97
1, 2731106, Note_off_c, 0, 67, 97
1, 2731425, Note_on_c, 0, 69, 100
1, 2733029, Note_off_c, 0, 69, 100
1, 2733029, Note_on_c, 0, 67, 105
1, 2733356, Note_off_c, 0, 67, 105
1, 2733397, Note_on_c, 0, 65, 103
1, 2733926, Note_off_c, 0, 65, 103
1, 2736676, Note_on_c, 0, 46, 106
1, 2737100, Note_off_c, 0, 46, 106
1, 2737600, Note_on_c, 0, 53, 107
1, 2737946, Note_off_c, 0, 53, 107
1, 2738006, Note_on_c, 0, 56, 102
1, 2738253, Note_off_c, 0, 56, 102
1, 2738328, Note_on_c, 0, 52, 102
1, 2738655, Note_off_c, 0, 52, 102
1, 2738680, Note_on_c, 0, 53, 99
1, 2738932, Note_off_c, 0, 53, 99
1, 2738957, Note_on_c, 0, 54, 95
1, 2739116, Note_off_c, 0, 54, 95
1, 2739167, Note_on_c, 0, 57, 99
1, 2739483, Note_off_c, 0, 57, 99
1, 2739483, Note_on_c, 0, 59, 99
1, 2739677, Note_off_c, 0, 59, 99
1, 2739677, Note_on_c, 0, 51, 103
1, 2740046, Note_off_c, 0, 51, 103
1, 2740046, Note_on_c, 0, 52, 96
1, 2740369, Note_off_c, 0, 52, 96
1, 2742706, Note_on_c, 0, 69, 101
1, 2743136, Note_off_c, 0, 69, 101
1, 2743169, Note_on_c, 0, 66, 92
1, 2743395, Note_off_c, 0, 66, 92
1, 2743451, Note_on_c, 0, 69, 95
1, 2744460, Note_off_c, 0, 69, 95
1, 2744507, Note_on_c, 0, 69, 102
1, 2744853, Note_off_c, 0, 69, 102
1, 2744892, Note_on_c, 0, 62, 107
1, 2745286, Note_off_c, 0, 62, 107
1, 2745425, Note_on_c, 0, 66, 104
1, 2745724, Note_off_c, 0, 66, 104
1, 2745724, Note_on_c, 0, 69, 106
1, 2746536, Note_off_c, 0, 69, 106
1, 2749115, Note_on_c, 0, 63, 104
1, 2749509, Note_off_c, 0, 63, 104
1, 2749509, Note_on_c, 0, 68, 96
1, 2749664, Note_off_c, 0, 68, 96
1, 2749664, Note_on_c, 0, 69, 93
1, 2750184, Note_off_c, 0, 69, 93
1, 2750247, Note_on_c, 0, 69, 95
1, 2750675, Note_off_c, 0, 69, 95
1, 2751191, Note_on_c, 0, 68, 88
1, 2751451, Note_off_c, 0, 68, 88
1, 2751501, Note_on_c, 0, 59, 94
1, 2751958, Note_off_c, 0, 59, 94
1, 2752037, Note_on_c, 0, 71, 87
1, 2752280, Note_off_c, 0, 71, 87
1, 2752741, Note_on_c, 0, 71, 97
1, 2753386, Note_off_c, 0, 71, 97
1, 2753469, Note_on_c, 0, 59, 92
1, 2753910, Note_off_c, 0, 59, 92
1, 2753988, Note_on_c, 0, 71, 84
1, 2754252, Note_off_c, 0, 71, 84
1, 2754432, Note_on_c, 0, 71, 95
1, 2754839, Note_off_c, 0, 71, 95
1, 2754973, Note_on_c, 0, 57, 99
1, 2755460, Note_off_c, 0, 57, 99
1, 2755829, Note_on_c, 0, 60, 89
1, 2756177, Note_off_c, 0, 60, 89
1, 2756345, Note_on_c, 0, 60, 88
1, 2756647, Note_off_c, 0, 60, 88
1, 2756680, Note_on_c, 0, 69, 93
1, 2757154, Note_off_c, 0, 69, 93
1, 2757334, Note_on_c, 0, 69, 96
1, 2757716, Note_off_c, 0, 69, 96
1, 2757867, Note_on_c, 0, 69, 93
1, 2758345, Note_off_c, 0, 69, 93
1, 2758609, Note_on_c, 0, 58, 90
1, 2758945, Note_off_c, 0, 58, 90
1, 2759096, Note_on_c, 0, 69, 81
1, 2759444, Note_off_c, 0, 69, 81
1, 2759704, Note_on_c, 0, 72, 101
1, 2760182, Note_off_c, 0, 72, 101
1, 2760194, Note_on_c, 0, 71, 100
1, 2760521, Note_off_c, 0, 71, 100
1, 2761709, Note_on_c, 0, 57, 100
1, 2762196, Note_off_c, 0, 57, 100
1, 2762280, Note_on_c, 0, 69, 102
1, 2762611, Note_off_c, 0, 69, 102
1, 2762791, Note_on_c, 0, 69, 104
1, 2763164, Note_off_c, 0, 69, 104
1, 2763344, Note_on_c, 0, 63, 97
1, 2763759, Note_off_c, 0, 63, 97
1, 2763801, Note_on_c, 0, 71, 107
1, 2764216, Note_off_c, 0, 71, 107
1, 2764497, Note_on_c, 0, 71, 107
1, 2764896, Note_off_c, 0, 71, 107
1, 2764942, Note_on_c, 0, 63, 107
1, 2765466, Note_off_c, 0, 63, 107
1, 2765466, Note_on_c, 0, 69, 102
1, 2765785, Note_off_c, 0, 69, 102
1, 2765898, Note_on_c, 0, 69, 104
1, 2766330, Note_off_c, 0, 69, 104
1, 2766525, Note_on_c, 0, 65, 112
1, 2766826, Note_off_c, 0, 65, 112
1, 2766888, Note_on_c, 0, 66, 106
1, 2767096, Note_off_c, 0, 66, 106
1, 2767096, Note_on_c, 0, 71, 104
1, 2767469, Note_off_c, 0, 71, 104
1, 2767804, Note_on_c, 0, 71, 88
1, 2768140, Note_off_c, 0, 71, 88
1, 2769702, Note_on_c, 0, 63, 117
1, 2770155, Note_off_c, 0, 63, 117
1, 2770205, Note_on_c, 0, 69, 102
1, 2770671, Note_off_c, 0, 69, 102
1, 2770922, Note_on_c, 0, 69, 109
1, 2771266, Note_off_c, 0, 69, 109
1, 2771291, Note_on_c, 0, 62, 109
1, 2771635, Note_on_c, 0, 63, 107
1, 2771635, Note_off_c, 0, 62, 109
1, 2771928, Note_off_c, 0, 63, 107
1, 2771932, Note_on_c, 0, 71, 97
1, 2772381, Note_off_c, 0, 71, 97
1, 2772591, Note_on_c, 0, 71, 107
1, 2772990, Note_off_c, 0, 71, 107
1, 2773095, Note_on_c, 0, 61, 102
1, 2773405, Note_off_c, 0, 61, 102
1, 2773405, Note_on_c, 0, 62, 102
1, 2773673, Note_on_c, 0, 69, 103
1, 2773673, Note_off_c, 0, 62, 102
1, 2774046, Note_off_c, 0, 69, 103
1, 2774176, Note_on_c, 0, 69, 102
1, 2774600, Note_off_c, 0, 69, 102
1, 2774738, Note_on_c, 0, 58, 100
1, 2775065, Note_off_c, 0, 58, 100
1, 2775081, Note_on_c, 0, 59, 98
1, 2775312, Note_off_c, 0, 59, 98
1, 2775312, Note_on_c, 0, 70, 99
1, 2775677, Note_off_c, 0, 70, 99
1, 2775882, Note_on_c, 0, 70, 101
1, 2776285, Note_off_c, 0, 70, 101
1, 2776352, Note_on_c, 0, 65, 109
1, 2776603, Note_off_c, 0, 65, 109
1, 2776603, Note_on_c, 0, 67, 114
1, 2776947, Note_off_c, 0, 67, 114
1, 2776984, Note_on_c, 0, 68, 103
1, 2777290, Note_off_c, 0, 68, 103
1, 2777344, Note_on_c, 0, 72, 99
1, 2777747, Note_off_c, 0, 72, 99
1, 2777927, Note_on_c, 0, 72, 95
1, 2778170, Note_off_c, 0, 72, 95
1, 2779577, Note_on_c, 0, 58, 103
1, 2780068, Note_off_c, 0, 58, 103
1, 2780097, Note_on_c, 0, 69, 96
1, 2780218, Note_off_c, 0, 69, 96
1, 2780226, Note_on_c, 0, 70, 99
1, 2780536, Note_off_c, 0, 70, 99
1, 2780733, Note_on_c, 0, 70, 102
1, 2781144, Note_off_c, 0, 70, 102
1, 2781253, Note_on_c, 0, 58, 106
1, 2781714, Note_off_c, 0, 58, 106
1, 2781714, Note_on_c, 0, 71, 106
1, 2781953, Note_off_c, 0, 71, 106
1, 2781953, Note_on_c, 0, 70, 101
1, 2782289, Note_off_c, 0, 70, 101
1, 2782436, Note_on_c, 0, 70, 105
1, 2782776, Note_off_c, 0, 70, 105
1, 2782859, Note_on_c, 0, 62, 110
1, 2783304, Note_off_c, 0, 62, 110
1, 2783304, Note_on_c, 0, 63, 104
1, 2783539, Note_off_c, 0, 63, 104
1, 2783539, Note_on_c, 0, 72, 100
1, 2783900, Note_off_c, 0, 72, 100
1, 2784114, Note_on_c, 0, 72, 96
1, 2784487, Note_off_c, 0, 72, 96
1, 2784583, Note_on_c, 0, 58, 103
1, 2785057, Note_off_c, 0, 58, 103
1, 2785057, Note_on_c, 0, 70, 97
1, 2785418, Note_off_c, 0, 70, 97
1, 2785661, Note_on_c, 0, 70, 101
1, 2786051, Note_off_c, 0, 70, 101
1, 2786092, Note_on_c, 0, 59, 108
1, 2786512, Note_off_c, 0, 59, 108
1, 2786528, Note_on_c, 0, 60, 106
1, 2786817, Note_off_c, 0, 60, 106
1, 2786880, Note_on_c, 0, 72, 105
1, 2787321, Note_off_c, 0, 72, 105
1, 2787459, Note_on_c, 0, 72, 97
1, 2787967, Note_off_c, 0, 72, 97
1, 2789336, Note_on_c, 0, 58, 113
1, 2789697, Note_off_c, 0, 58, 113
1, 2789697, Note_on_c, 0, 59, 107
1, 2789919, Note_off_c, 0, 59, 107
1, 2789965, Note_on_c, 0, 70, 105
1, 2790284, Note_off_c, 0, 70, 105
1, 2790489, Note_on_c, 0, 70, 102
1, 2790820, Note_off_c, 0, 70, 102
1, 2790895, Note_on_c, 0, 59, 106
1, 2791277, Note_off_c, 0, 59, 106
1, 2791293, Note_on_c, 0, 60, 98
1, 2791540, Note_off_c, 0, 60, 98
1, 2791594, Note_on_c, 0, 72, 102
1, 2791955, Note_off_c, 0, 72, 102
1, 2792144, Note_on_c, 0, 72, 100
1, 2792509, Note_off_c, 0, 72, 100
1, 2792635, Note_on_c, 0, 58, 95
1, 2793080, Note_off_c, 0, 58, 95
1, 2793113, Note_on_c, 0, 71, 95
1, 2793260, Note_off_c, 0, 71, 95
1, 2793280, Note_on_c, 0, 70, 95
1, 2793582, Note_off_c, 0, 70, 95
1, 2793813, Note_on_c, 0, 70, 98
1, 2794178, Note_off_c, 0, 70, 98
1, 2794219, Note_on_c, 0, 59, 97
1, 2794592, Note_off_c, 0, 59, 97
1, 2794592, Note_on_c, 0, 60, 95
1, 2794835, Note_off_c, 0, 60, 95
1, 2794919, Note_on_c, 0, 72, 96
1, 2795238, Note_off_c, 0, 72, 96
1, 2795506, Note_on_c, 0, 72, 91
1, 2795892, Note_off_c, 0, 72, 91
1, 2796064, Note_on_c, 0, 58, 100
1, 2796337, Note_off_c, 0, 58, 100
1, 2796337, Note_on_c, 0, 59, 96
1, 2796618, Note_off_c, 0, 59, 96
1, 2796634, Note_on_c, 0, 70, 90
1, 2796865, Note_off_c, 0, 70, 90
1, 2797024, Note_on_c, 0, 70, 87
1, 2797326, Note_off_c, 0, 70, 87
1, 2797632, Note_on_c, 0, 59, 100
1, 2797904, Note_off_c, 0, 59, 100
1, 2797912, Note_on_c, 0, 60, 92
1, 2798155, Note_off_c, 0, 60, 92
1, 2798289, Note_on_c, 0, 72, 92
1, 2798608, Note_off_c, 0, 72, 92
1, 2798939, Note_on_c, 0, 72, 95
1, 2799275, Note_off_c, 0, 72, 95
1, 2799325, Note_on_c, 0, 59, 99
1, 2799661, Note_off_c, 0, 59, 99
1, 2799661, Note_on_c, 0, 60, 93
1, 2799929, Note_off_c, 0, 60, 93
1, 2800042, Note_on_c, 0, 72, 85
1, 2800583, Note_off_c, 0, 72, 85
1, 2802582, Note_on_c, 0, 59, 111
1, 2802829, Note_off_c, 0, 59, 111
1, 2802829, Note_on_c, 0, 60, 99
1, 2803156, Note_off_c, 0, 60, 99
1, 2803156, Note_on_c, 0, 71, 100
1, 2803555, Note_off_c, 0, 71, 100
1, 2803849, Note_on_c, 0, 71, 101
1, 2804197, Note_off_c, 0, 71, 101
1, 2804272, Note_on_c, 0, 56, 100
1, 2804540, Note_off_c, 0, 56, 100
1, 2804552, Note_on_c, 0, 57, 95
1, 2804854, Note_off_c, 0, 57, 95
1, 2804925, Note_on_c, 0, 72, 98
1, 2805185, Note_off_c, 0, 72, 98
1, 2805185, Note_on_c, 0, 71, 87
1, 2805403, Note_off_c, 0, 71, 87
1, 2805482, Note_on_c, 0, 73, 92
1, 2805704, Note_off_c, 0, 73, 92
1, 2805704, Note_on_c, 0, 72, 92
1, 2805884, Note_off_c, 0, 72, 92
1, 2807513, Note_on_c, 0, 59, 96
1, 2807941, Note_off_c, 0, 59, 96
1, 2808067, Note_on_c, 0, 69, 101
1, 2808436, Note_off_c, 0, 69, 101
1, 2808784, Note_on_c, 0, 69, 106
1, 2809157, Note_off_c, 0, 69, 106
1, 2809232, Note_on_c, 0, 57, 105
1, 2809563, Note_off_c, 0, 57, 105
1, 2809563, Note_on_c, 0, 58, 102
1, 2809789, Note_off_c, 0, 58, 102
1, 2809789, Note_on_c, 0, 71, 104
1, 2810272, Note_off_c, 0, 71, 104
1, 2810490, Note_on_c, 0, 71, 104
1, 2810943, Note_off_c, 0, 71, 104
1, 2811001, Note_on_c, 0, 58, 100
1, 2811421, Note_off_c, 0, 58, 100
1, 2811631, Note_on_c, 0, 69, 99
1, 2812126, Note_off_c, 0, 69, 99
1, 2812302, Note_on_c, 0, 69, 100
1, 2812684, Note_off_c, 0, 69, 100
1, 2812684, Note_on_c, 0, 57, 116
1, 2813167, Note_off_c, 0, 57, 116
1, 2813167, Note_on_c, 0, 58, 111
1, 2813444, Note_off_c, 0, 58, 111
1, 2813679, Note_on_c, 0, 71, 101
1, 2814048, Note_off_c, 0, 71, 101
1, 2818878, Note_on_c, 0, 69, 108
1, 2819062, Note_off_c, 0, 69, 108
1, 2819112, Note_on_c, 0, 70, 107
1, 2819380, Note_off_c, 0, 70, 107
1, 2819380, Note_on_c, 0, 71, 109
1, 2820144, Note_off_c, 0, 71, 109
1, 2820167, Note_on_c, 0, 70, 106
1, 2820465, Note_off_c, 0, 70, 106
1, 2820465, Note_on_c, 0, 71, 105
1, 2823332, Note_off_c, 0, 71, 105
1, 2823427, Note_on_c, 0, 70, 104
1, 2823773, Note_off_c, 0, 70, 104
1, 2823844, Note_on_c, 0, 71, 104
1, 2825444, Note_off_c, 0, 71, 104
1, 2825605, Note_on_c, 0, 69, 104
1, 2825879, Note_off_c, 0, 69, 104
1, 2825908, Note_on_c, 0, 71, 105
1, 2826308, Note_off_c, 0, 71, 105
1, 2827024, Note_on_c, 0, 69, 103
1, 2827197, Note_off_c, 0, 69, 103
1, 2827298, Note_on_c, 0, 71, 108
1, 2827871, Note_off_c, 0, 71, 108
1, 2828002, Note_on_c, 0, 62, 102
1, 2828563, Note_off_c, 0, 62, 102
1, 2831501, Note_on_c, 0, 70, 102
1, 2831817, Note_off_c, 0, 70, 102
1, 2831834, Note_on_c, 0, 71, 104
1, 2833130, Note_off_c, 0, 71, 104
1, 2833285, Note_on_c, 0, 67, 84
1, 2833523, Note_off_c, 0, 67, 84
1, 2833702, Note_on_c, 0, 71, 105
1, 2835326, Note_off_c, 0, 71, 105
1, 2835403, Note_on_c, 0, 67, 105
1, 2835761, Note_off_c, 0, 67, 105
1, 2835832, Note_on_c, 0, 65, 104
1, 2836280, Note_off_c, 0, 65, 104
1, 2838245, Note_on_c, 0, 69, 103
1, 2838507, Note_off_c, 0, 69, 103
1, 2838507, Note_on_c, 0, 70, 104
1, 2838728, Note_off_c, 0, 70, 104
1, 2838745, Note_on_c, 0, 71, 104
1, 2839730, Note_off_c, 0, 71, 104
1, 2839903, Note_on_c, 0, 65, 95
1, 2840135, Note_off_c, 0, 65, 95
1, 2840176, Note_on_c, 0, 71, 104
1, 2841442, Note_off_c, 0, 71, 104
1, 2841567, Note_on_c, 0, 65, 95
1, 2841865, Note_off_c, 0, 65, 95
1, 2841876, Note_on_c, 0, 72, 100
1, 2842306, Note_off_c, 0, 72, 100
1, 2842381, Note_on_c, 0, 65, 92
1, 2842767, Note_off_c, 0, 65, 92
1, 2842817, Note_on_c, 0, 72, 104
1, 2843623, Note_off_c, 0, 72, 104
1, 2843673, Note_on_c, 0, 73, 104
1, 2844731, Note_off_c, 0, 73, 104
1, 2848205, Note_on_c, 0, 73, 108
1, 2848533, Note_off_c, 0, 73, 108
1, 2848580, Note_on_c, 0, 74, 103
1, 2849260, Note_off_c, 0, 74, 103
1, 2849319, Note_on_c, 0, 74, 105
1, 2849545, Note_off_c, 0, 74, 105
1, 2849610, Note_on_c, 0, 73, 108
1, 2849819, Note_off_c, 0, 73, 108
1, 2849854, Note_on_c, 0, 74, 101
1, 2850075, Note_off_c, 0, 74, 101
1, 2850284, Note_on_c, 0, 71, 105
1, 2850708, Note_off_c, 0, 71, 105
1, 2850731, Note_on_c, 0, 73, 105
1, 2851035, Note_off_c, 0, 73, 105
1, 2851094, Note_on_c, 0, 71, 102
1, 2851631, Note_off_c, 0, 71, 102
1, 2851660, Note_on_c, 0, 67, 103
1, 2852179, Note_off_c, 0, 67, 103
1, 2852441, Note_on_c, 0, 67, 103
1, 2852769, Note_off_c, 0, 67, 103
1, 2852870, Note_on_c, 0, 65, 101
1, 2853276, Note_off_c, 0, 65, 101
1, 2853419, Note_on_c, 0, 62, 102
1, 2853574, Note_off_c, 0, 62, 102
1, 2853603, Note_on_c, 0, 65, 99
1, 2853991, Note_off_c, 0, 65, 99
1, 2854056, Note_on_c, 0, 67, 96
1, 2854420, Note_off_c, 0, 67, 96
1, 2854449, Note_on_c, 0, 69, 99
1, 2854753, Note_off_c, 0, 69, 99
1, 2854824, Note_on_c, 0, 71, 100
1, 2855134, Note_off_c, 0, 71, 100
1, 2855169, Note_on_c, 0, 66, 108
1, 2855491, Note_off_c, 0, 66, 108
1, 2857033, Note_on_c, 0, 65, 102
1, 2857486, Note_off_c, 0, 65, 102
1, 2857511, Note_on_c, 0, 67, 99
1, 2857914, Note_off_c, 0, 67, 99
1, 2857922, Note_on_c, 0, 69, 101
1, 2858081, Note_off_c, 0, 69, 101
1, 2858152, Note_on_c, 0, 71, 101
1, 2858521, Note_off_c, 0, 71, 101
1, 2858550, Note_on_c, 0, 64, 111
1, 2858978, Note_off_c, 0, 64, 111
1, 2859053, Note_on_c, 0, 66, 100
1, 2859372, Note_off_c, 0, 66, 100
1, 2859445, Note_on_c, 0, 68, 97
1, 2859767, Note_off_c, 0, 68, 97
1, 2859767, Note_on_c, 0, 70, 101
1, 2859976, Note_off_c, 0, 70, 101
1, 2860023, Note_on_c, 0, 69, 106
1, 2860441, Note_off_c, 0, 69, 106
1, 2861881, Note_on_c, 0, 63, 112
1, 2862376, Note_off_c, 0, 63, 112
1, 2862418, Note_on_c, 0, 62, 104
1, 2862770, Note_off_c, 0, 62, 104
1, 2862778, Note_on_c, 0, 63, 110
1, 2863206, Note_off_c, 0, 63, 110
1, 2863273, Note_on_c, 0, 65, 104
1, 2863768, Note_off_c, 0, 65, 104
1, 2863776, Note_on_c, 0, 66, 98
1, 2863927, Note_off_c, 0, 66, 98
1, 2864011, Note_on_c, 0, 68, 100
1, 2864389, Note_off_c, 0, 68, 100
1, 2864414, Note_on_c, 0, 70, 102
1, 2864716, Note_off_c, 0, 70, 102
1, 2864774, Note_on_c, 0, 71, 107
1, 2865160, Note_off_c, 0, 71, 107
1, 2865193, Note_on_c, 0, 68, 101
1, 2865520, Note_off_c, 0, 68, 101
1, 2865648, Note_on_c, 0, 66, 97
1, 2865994, Note_off_c, 0, 66, 97
1, 2866029, Note_on_c, 0, 65, 100
1, 2866375, Note_off_c, 0, 65, 100
1, 2866422, Note_on_c, 0, 65, 99
1, 2866631, Note_off_c, 0, 65, 99
1, 2866726, Note_on_c, 0, 63, 112
1, 2867114, Note_off_c, 0, 63, 112
1, 2867131, Note_on_c, 0, 62, 103
1, 2867537, Note_off_c, 0, 62, 103
1, 2867554, Note_on_c, 0, 61, 98
1, 2867858, Note_off_c, 0, 61, 98
1, 2867977, Note_on_c, 0, 65, 100
1, 2868323, Note_off_c, 0, 65, 100
1, 2868418, Note_on_c, 0, 61, 98
1, 2868800, Note_off_c, 0, 61, 98
1, 2868835, Note_on_c, 0, 61, 102
1, 2869067, Note_off_c, 0, 61, 102
1, 2869078, Note_on_c, 0, 63, 109
1, 2869358, Note_off_c, 0, 63, 109
1, 2869447, Note_on_c, 0, 65, 99
1, 2869602, Note_off_c, 0, 65, 99
1, 2869803, Note_on_c, 0, 67, 103
1, 2870143, Note_off_c, 0, 67, 103
1, 2870143, Note_on_c, 0, 63, 108
1, 2870655, Note_off_c, 0, 63, 108
1, 2870688, Note_on_c, 0, 61, 100
1, 2870990, Note_off_c, 0, 61, 100
1, 2871061, Note_on_c, 0, 59, 103
1, 2871418, Note_off_c, 0, 59, 103
1, 2871430, Note_on_c, 0, 58, 100
1, 2871812, Note_off_c, 0, 58, 100
1, 2871820, Note_on_c, 0, 57, 103
1, 2872072, Note_off_c, 0, 57, 103
1, 2872244, Note_on_c, 0, 56, 99
1, 2872617, Note_off_c, 0, 56, 99
1, 2872659, Note_on_c, 0, 55, 96
1, 2872969, Note_off_c, 0, 55, 96
1, 2873082, Note_on_c, 0, 59, 102
1, 2873367, Note_off_c, 0, 59, 102
1, 2873425, Note_on_c, 0, 57, 100
1, 2873828, Note_off_c, 0, 57, 100
1, 2877377, Note_on_c, 0, 57, 99
1, 2879317, Note_off_c, 0, 57, 99
1, 2879533, Note_on_c, 0, 54, 101
1, 2879789, Note_off_c, 0, 54, 101
1, 2879842, Note_on_c, 0, 57, 102
1, 2880236, Note_off_c, 0, 57, 102
1, 2880343, Note_on_c, 0, 54, 100
1, 2880791, Note_off_c, 0, 54, 100
1, 2880994, Note_on_c, 0, 55, 104
1, 2881286, Note_off_c, 0, 55, 104
1, 2881303, Note_on_c, 0, 51, 111
1, 2881643, Note_on_c, 0, 50, 103
1, 2881643, Note_off_c, 0, 51, 111
1, 2882270, Note_off_c, 0, 50, 103
1, 2882329, Note_on_c, 0, 49, 105
1, 2882765, Note_off_c, 0, 49, 105
1, 2882838, Note_on_c, 0, 53, 108
1, 2883186, Note_off_c, 0, 53, 108
1, 2883186, Note_on_c, 0, 48, 106
1, 2883475, Note_off_c, 0, 48, 106
1, 2883512, Note_on_c, 0, 51, 100
1, 2883843, Note_off_c, 0, 51, 100
1, 2883943, Note_on_c, 0, 56, 103
1, 2884333, Note_off_c, 0, 56, 103
1, 2884349, Note_on_c, 0, 58, 99
1, 2884676, Note_off_c, 0, 58, 99
1, 2884699, Note_on_c, 0, 60, 98
1, 2885045, Note_off_c, 0, 60, 98
1, 2885146, Note_on_c, 0, 63, 109
1, 2885588, Note_off_c, 0, 63, 109
1, 2885588, Note_on_c, 0, 59, 101
1, 2885910, Note_off_c, 0, 59, 101
1, 2885927, Note_on_c, 0, 58, 103
1, 2886345, Note_off_c, 0, 58, 103
1, 2886434, Note_on_c, 0, 57, 102
1, 2886762, Note_off_c, 0, 57, 102
1, 2886821, Note_on_c, 0, 55, 96
1, 2887012, Note_off_c, 0, 55, 96
1, 2887113, Note_on_c, 0, 54, 97
1, 2887483, Note_off_c, 0, 54, 97
1, 2887578, Note_on_c, 0, 59, 100
1, 2888008, Note_off_c, 0, 59, 100
1, 2888061, Note_on_c, 0, 58, 104
1, 2888497, Note_off_c, 0, 58, 104
1, 2888497, Note_on_c, 0, 54, 97
1, 2888807, Note_off_c, 0, 54, 97
1, 2888807, Note_on_c, 0, 53, 99
1, 2889201, Note_off_c, 0, 53, 99
1, 2889350, Note_on_c, 0, 51, 100
1, 2889702, Note_off_c, 0, 51, 100
1, 2889702, Note_on_c, 0, 56, 102
1, 2890167, Note_off_c, 0, 56, 102
1, 2890620, Note_on_c, 0, 56, 95
1, 2890936, Note_off_c, 0, 56, 95
1, 2890953, Note_on_c, 0, 58, 92
1, 2891191, Note_off_c, 0, 58, 92
1, 2891196, Note_on_c, 0, 60, 105
1, 2891560, Note_off_c, 0, 60, 105
1, 2891655, Note_on_c, 0, 61, 103
1, 2891971, Note_off_c, 0, 61, 103
1, 2891982, Note_on_c, 0, 62, 103
1, 2892394, Note_off_c, 0, 62, 103
1, 2892453, Note_on_c, 0, 65, 102
1, 2892841, Note_off_c, 0, 65, 102
1, 2892918, Note_on_c, 0, 63, 106
1, 2893306, Note_off_c, 0, 63, 106
1, 2893321, Note_on_c, 0, 62, 104
1, 2893564, Note_off_c, 0, 62, 104
1, 2893656, Note_on_c, 0, 66, 96
1, 2893857, Note_off_c, 0, 66, 96
1, 2893919, Note_on_c, 0, 66, 97
1, 2894082, Note_off_c, 0, 66, 97
1, 2894216, Note_on_c, 0, 68, 101
1, 2894562, Note_off_c, 0, 68, 101
1, 2894633, Note_on_c, 0, 64, 104
1, 2894997, Note_off_c, 0, 64, 104
1, 2895014, Note_on_c, 0, 63, 100
1, 2895444, Note_off_c, 0, 63, 100
1, 2895662, Note_on_c, 0, 64, 105
1, 2895998, Note_off_c, 0, 64, 105
1, 2896098, Note_on_c, 0, 69, 103
1, 2896379, Note_off_c, 0, 69, 103
1, 2896437, Note_on_c, 0, 67, 100
1, 2896802, Note_off_c, 0, 67, 100
1, 2896848, Note_on_c, 0, 69, 90
1, 2897175, Note_off_c, 0, 69, 90
1, 2897338, Note_on_c, 0, 67, 109
1, 2897674, Note_off_c, 0, 67, 109
1, 2897732, Note_on_c, 0, 67, 109
1, 2898063, Note_off_c, 0, 67, 109
1, 2898163, Note_on_c, 0, 72, 103
1, 2898629, Note_off_c, 0, 72, 103
1, 2898644, Note_on_c, 0, 69, 97
1, 2898900, Note_off_c, 0, 69, 97
1, 2898923, Note_on_c, 0, 71, 98
1, 2899323, Note_off_c, 0, 71, 98
1, 2899388, Note_on_c, 0, 68, 90
1, 2899728, Note_off_c, 0, 68, 90
1, 2899751, Note_on_c, 0, 66, 103
1, 2899954, Note_off_c, 0, 66, 103
1, 2900001, Note_on_c, 0, 63, 107
1, 2900550, Note_off_c, 0, 63, 107
1, 2900979, Note_on_c, 0, 65, 99
1, 2901323, Note_off_c, 0, 65, 99
1, 2904065, Note_on_c, 0, 66, 95
1, 2904413, Note_off_c, 0, 66, 95
1, 2904509, Note_on_c, 0, 66, 95
1, 2904794, Note_off_c, 0, 66, 95
1, 2904852, Note_on_c, 0, 68, 90
1, 2905162, Note_off_c, 0, 68, 90
1, 2905229, Note_on_c, 0, 71, 98
1, 2905598, Note_off_c, 0, 71, 98
1, 2905690, Note_on_c, 0, 64, 102
1, 2906042, Note_off_c, 0, 64, 102
1, 2906147, Note_on_c, 0, 66, 98
1, 2906306, Note_off_c, 0, 66, 98
1, 2906306, Note_on_c, 0, 67, 98
1, 2906726, Note_off_c, 0, 67, 98
1, 2906969, Note_on_c, 0, 69, 96
1, 2907243, Note_off_c, 0, 69, 96
1, 2907284, Note_on_c, 0, 66, 115
1, 2907564, Note_off_c, 0, 66, 115
1, 2907611, Note_on_c, 0, 64, 106
1, 2908017, Note_off_c, 0, 64, 106
1, 2908064, Note_on_c, 0, 63, 104
1, 2908302, Note_off_c, 0, 63, 104
1, 2908403, Note_on_c, 0, 62, 105
1, 2908868, Note_off_c, 0, 62, 105
1, 2909047, Note_on_c, 0, 68, 103
1, 2909399, Note_off_c, 0, 68, 103
1, 2909440, Note_on_c, 0, 67, 99
1, 2909798, Note_off_c, 0, 67, 99
1, 2910263, Note_on_c, 0, 65, 101
1, 2910621, Note_off_c, 0, 65, 101
1, 2910632, Note_on_c, 0, 63, 106
1, 2911068, Note_off_c, 0, 63, 106
1, 2911325, Note_on_c, 0, 59, 91
1, 2911488, Note_off_c, 0, 59, 91
1, 2911496, Note_on_c, 0, 58, 91
1, 2911722, Note_off_c, 0, 58, 91
1, 2911843, Note_on_c, 0, 68, 96
1, 2911981, Note_off_c, 0, 68, 96
1, 2912010, Note_on_c, 0, 69, 93
1, 2912362, Note_off_c, 0, 69, 93
1, 2912471, Note_on_c, 0, 68, 97
1, 2912865, Note_off_c, 0, 68, 97
1, 2912932, Note_on_c, 0, 67, 90
1, 2913305, Note_off_c, 0, 67, 90
1, 2913443, Note_on_c, 0, 70, 96
1, 2913658, Note_off_c, 0, 70, 96
1, 2913669, Note_on_c, 0, 67, 100
1, 2914093, Note_off_c, 0, 67, 100
1, 2914093, Note_on_c, 0, 68, 99
1, 2914564, Note_off_c, 0, 68, 99
1, 2915129, Note_on_c, 0, 68, 104
1, 2915381, Note_off_c, 0, 68, 104
1, 2915393, Note_on_c, 0, 67, 104
1, 2915791, Note_off_c, 0, 67, 104
1, 2915828, Note_on_c, 0, 66, 95
1, 2916138, Note_off_c, 0, 66, 95
1, 2916230, Note_on_c, 0, 69, 95
1, 2916406, Note_off_c, 0, 69, 95
1, 2916544, Note_on_c, 0, 71, 100
1, 2916926, Note_off_c, 0, 71, 100
1, 2916930, Note_on_c, 0, 63, 110
1, 2917497, Note_off_c, 0, 63, 110
1, 2917526, Note_on_c, 0, 62, 96
1, 2917747, Note_off_c, 0, 62, 96
1, 2917764, Note_on_c, 0, 63, 102
1, 2918170, Note_off_c, 0, 63, 102
1, 2918175, Note_on_c, 0, 67, 98
1, 2918473, Note_off_c, 0, 67, 98
1, 2918630, Note_on_c, 0, 64, 101
1, 2918974, Note_off_c, 0, 64, 101
1, 2919016, Note_on_c, 0, 66, 94
1, 2919356, Note_off_c, 0, 66, 94
1, 2919410, Note_on_c, 0, 68, 91
1, 2919737, Note_off_c, 0, 68, 91
1, 2919833, Note_on_c, 0, 70, 92
1, 2920101, Note_off_c, 0, 70, 92
1, 2920281, Note_on_c, 0, 66, 104
1, 2920600, Note_off_c, 0, 66, 104
1, 2920671, Note_on_c, 0, 61, 101
1, 2921053, Note_off_c, 0, 61, 101
1, 2921116, Note_on_c, 0, 59, 86
1, 2921489, Note_off_c, 0, 59, 86
1, 2921535, Note_on_c, 0, 58, 98
1, 2921715, Note_off_c, 0, 58, 98
1, 2921857, Note_on_c, 0, 57, 93
1, 2922634, Note_off_c, 0, 57, 93
1, 2925720, Note_on_c, 0, 57, 95
1, 2926106, Note_off_c, 0, 57, 95
1, 2926127, Note_on_c, 0, 59, 97
1, 2926446, Note_off_c, 0, 59, 97
1, 2926521, Note_on_c, 0, 62, 99
1, 2926962, Note_off_c, 0, 62, 99
1, 2927029, Note_on_c, 0, 65, 97
1, 2927386, Note_off_c, 0, 65, 97
1, 2927444, Note_on_c, 0, 69, 94
1, 2927628, Note_off_c, 0, 69, 94
1, 2927699, Note_on_c, 0, 71, 90
1, 2927879, Note_off_c, 0, 71, 90
1, 2927933, Note_on_c, 0, 74, 101
1, 2928255, Note_off_c, 0, 74, 101
1, 2928385, Note_on_c, 0, 69, 90
1, 2928729, Note_off_c, 0, 69, 90
1, 2930845, Note_on_c, 0, 62, 109
1, 2931126, Note_off_c, 0, 62, 109
1, 2931163, Note_on_c, 0, 65, 104
1, 2931440, Note_off_c, 0, 65, 104
1, 2931477, Note_on_c, 0, 69, 97
1, 2931867, Note_off_c, 0, 69, 97
1, 2931947, Note_on_c, 0, 65, 99
1, 2932274, Note_off_c, 0, 65, 99
1, 2932358, Note_on_c, 0, 62, 114
1, 2932920, Note_off_c, 0, 62, 114
1, 2937292, Note_on_c, 0, 74, 104
1, 2937724, Note_off_c, 0, 74, 104
1, 2937736, Note_on_c, 0, 73, 93
1, 2937950, Note_off_c, 0, 73, 93
1, 2938134, Note_on_c, 0, 69, 102
1, 2938432, Note_off_c, 0, 69, 102
1, 2938583, Note_on_c, 0, 65, 101
1, 2938809, Note_off_c, 0, 65, 101
1, 2938821, Note_on_c, 0, 62, 107
1, 2939220, Note_off_c, 0, 62, 107
1, 2939283, Note_on_c, 0, 57, 97
1, 2939639, Note_off_c, 0, 57, 97
1, 2939639, Note_on_c, 0, 65, 102
1, 2940256, Note_off_c, 0, 65, 102
1, 2942956, Note_on_c, 0, 65, 100
1, 2943296, Note_off_c, 0, 65, 100
1, 2943808, Note_on_c, 0, 74, 97
1, 2944173, Note_off_c, 0, 74, 97
1, 2944215, Note_on_c, 0, 74, 94
1, 2944387, Note_off_c, 0, 74, 94
1, 2944433, Note_on_c, 0, 73, 98
1, 2944731, Note_off_c, 0, 73, 98
1, 2944789, Note_on_c, 0, 69, 100
1, 2945276, Note_off_c, 0, 69, 100
1, 2948951, Note_on_c, 0, 70, 103
1, 2949337, Note_off_c, 0, 70, 103
1, 2949387, Note_on_c, 0, 71, 103
1, 2950865, Note_off_c, 0, 71, 103
1, 2950865, Note_on_c, 0, 69, 98
1, 2951211, Note_off_c, 0, 69, 98
1, 2951222, Note_on_c, 0, 65, 100
1, 2951598, Note_off_c, 0, 65, 100
1, 2951639, Note_on_c, 0, 62, 106
1, 2951949, Note_off_c, 0, 62, 106
1, 2951996, Note_on_c, 0, 57, 100
1, 2952479, Note_off_c, 0, 57, 100
1, 2952532, Note_on_c, 0, 53, 97
1, 2952968, Note_off_c, 0, 53, 97
1, 2958431, Note_on_c, 0, 71, 102
1, 2958876, Note_off_c, 0, 71, 102
1, 2958976, Note_on_c, 0, 65, 94
1, 2959215, Note_off_c, 0, 65, 94
1, 2959286, Note_on_c, 0, 69, 100
1, 2959663, Note_off_c, 0, 69, 100
1, 2959714, Note_on_c, 0, 65, 99
1, 2960006, Note_off_c, 0, 65, 99
1, 2960047, Note_on_c, 0, 62, 102
1, 2960435, Note_off_c, 0, 62, 102
1, 2960530, Note_on_c, 0, 59, 96
1, 2960834, Note_off_c, 0, 59, 96
1, 2960899, Note_on_c, 0, 57, 100
1, 2961293, Note_off_c, 0, 57, 100
1, 2961310, Note_on_c, 0, 59, 103
1, 2961578, Note_on_c, 0, 57, 98
1, 2961578, Note_off_c, 0, 59, 103
1, 2961804, Note_off_c, 0, 57, 98
1, 2961821, Note_on_c, 0, 53, 104
1, 2962304, Note_off_c, 0, 53, 104
1, 2962304, Note_on_c, 0, 52, 107
1, 2962734, Note_off_c, 0, 52, 107
1, 2965957, Note_on_c, 0, 51, 106
1, 2966297, Note_off_c, 0, 51, 106
1, 2966297, Note_on_c, 0, 52, 102
1, 2966612, Note_off_c, 0, 52, 102
1, 2966666, Note_on_c, 0, 57, 96
1, 2967039, Note_off_c, 0, 57, 96
1, 2967072, Note_on_c, 0, 60, 96
1, 2967319, Note_off_c, 0, 60, 96
1, 2967436, Note_on_c, 0, 51, 103
1, 2967646, Note_off_c, 0, 51, 103
1, 2967650, Note_on_c, 0, 52, 101
1, 2967986, Note_off_c, 0, 52, 101
1, 2969156, Note_on_c, 0, 50, 103
1, 2969442, Note_off_c, 0, 50, 103
1, 2969525, Note_on_c, 0, 53, 104
1, 2969811, Note_off_c, 0, 53, 104
1, 2969852, Note_on_c, 0, 57, 102
1, 2970138, Note_off_c, 0, 57, 102
1, 2970138, Note_on_c, 0, 60, 99
1, 2970466, Note_off_c, 0, 60, 99
1, 2970471, Note_on_c, 0, 59, 100
1, 2970865, Note_off_c, 0, 59, 100
1, 2973857, Note_on_c, 0, 59, 99
1, 2974251, Note_off_c, 0, 59, 99
1, 2974304, Note_on_c, 0, 58, 96
1, 2974584, Note_off_c, 0, 58, 96
1, 2974619, Note_on_c, 0, 59, 96
1, 2974971, Note_off_c, 0, 59, 96
1, 2975090, Note_on_c, 0, 60, 97
1, 2975490, Note_off_c, 0, 60, 97
1, 2975549, Note_on_c, 0, 62, 103
1, 2975925, Note_off_c, 0, 62, 103
1, 2975960, Note_on_c, 0, 64, 107
1, 2976408, Note_off_c, 0, 64, 107
1, 2976437, Note_on_c, 0, 65, 103
1, 2976759, Note_off_c, 0, 65, 103
1, 2976770, Note_on_c, 0, 67, 107
1, 2977026, Note_off_c, 0, 67, 107
1, 2977187, Note_on_c, 0, 67, 109
1, 2977820, Note_off_c, 0, 67, 109
1, 2977897, Note_on_c, 0, 69, 98
1, 2978345, Note_off_c, 0, 69, 98
1, 2978440, Note_on_c, 0, 72, 99
1, 2978661, Note_off_c, 0, 72, 99
1, 2978762, Note_on_c, 0, 69, 93
1, 2979335, Note_off_c, 0, 69, 93
1, 2981491, Note_on_c, 0, 67, 96
1, 2981765, Note_off_c, 0, 67, 96
1, 2981800, Note_on_c, 0, 69, 92
1, 2983030, Note_off_c, 0, 69, 92
1, 2983412, Note_on_c, 0, 65, 96
1, 2983573, Note_off_c, 0, 65, 96
1, 2983644, Note_on_c, 0, 70, 96
1, 2983912, Note_off_c, 0, 70, 96
1, 2983959, Note_on_c, 0, 73, 104
1, 2984269, Note_off_c, 0, 73, 104
1, 2984310, Note_on_c, 0, 70, 99
1, 2984728, Note_off_c, 0, 70, 99
1, 2987015, Note_on_c, 0, 69, 99
1, 2987182, Note_off_c, 0, 69, 99
1, 2987199, Note_on_c, 0, 71, 101
1, 2987348, Note_on_c, 0, 72, 105
1, 2987348, Note_off_c, 0, 71, 101
1, 2987527, Note_off_c, 0, 72, 105
1, 2987598, Note_on_c, 0, 68, 103
1, 2988422, Note_off_c, 0, 68, 103
1, 2988469, Note_on_c, 0, 65, 96
1, 2988695, Note_off_c, 0, 65, 96
1, 2991735, Note_on_c, 0, 70, 92
1, 2991991, Note_off_c, 0, 70, 92
1, 2992016, Note_on_c, 0, 73, 94
1, 2992158, Note_off_c, 0, 73, 94
1, 2992174, Note_on_c, 0, 70, 93
1, 2992539, Note_off_c, 0, 70, 93
1, 2992698, Note_on_c, 0, 68, 98
1, 2993000, Note_off_c, 0, 68, 98
1, 2993025, Note_on_c, 0, 72, 90
1, 2993138, Note_off_c, 0, 72, 90
1, 2993179, Note_on_c, 0, 70, 93
1, 2993540, Note_off_c, 0, 70, 93
1, 2993622, Note_on_c, 0, 73, 88
1, 2993781, Note_off_c, 0, 73, 88
1, 2993841, Note_on_c, 0, 71, 89
1, 2993996, Note_off_c, 0, 71, 89
1, 2994033, Note_on_c, 0, 68, 93
1, 2994356, Note_off_c, 0, 68, 93
1, 2994377, Note_on_c, 0, 70, 93
1, 2994591, Note_off_c, 0, 70, 93
1, 2994637, Note_on_c, 0, 73, 96
1, 2994813, Note_off_c, 0, 73, 96
1, 2994855, Note_on_c, 0, 70, 94
1, 2995136, Note_off_c, 0, 70, 94
1, 2995198, Note_on_c, 0, 73, 87
1, 2995349, Note_off_c, 0, 73, 87
1, 2995466, Note_on_c, 0, 68, 94
1, 2995743, Note_off_c, 0, 68, 94
1, 2995776, Note_on_c, 0, 69, 97
1, 2996095, Note_off_c, 0, 69, 97
1, 2996095, Note_on_c, 0, 73, 94
1, 2996347, Note_off_c, 0, 73, 94
1, 2996389, Note_on_c, 0, 73, 98
1, 2996729, Note_off_c, 0, 73, 98
1, 2996766, Note_on_c, 0, 70, 92
1, 2997060, Note_off_c, 0, 70, 92
1, 2997240, Note_on_c, 0, 73, 95
1, 2997395, Note_off_c, 0, 73, 95
1, 2997411, Note_on_c, 0, 72, 99
1, 2997805, Note_off_c, 0, 72, 99
1, 2997943, Note_on_c, 0, 70, 88
1, 2998195, Note_off_c, 0, 70, 88
1, 2998266, Note_on_c, 0, 72, 100
1, 2998660, Note_off_c, 0, 72, 100
1, 2998660, Note_on_c, 0, 73, 95
1, 2998945, Note_off_c, 0, 73, 95
1, 2998945, Note_on_c, 0, 71, 95
1, 2999066, Note_off_c, 0, 71, 95
1, 2999087, Note_on_c, 0, 70, 92
1, 2999464, Note_off_c, 0, 70, 92
1, 2999485, Note_on_c, 0, 71, 101
1, 2999632, Note_off_c, 0, 71, 101
1, 2999674, Note_on_c, 0, 70, 91
1, 2999816, Note_off_c, 0, 70, 91
1, 2999832, Note_on_c, 0, 71, 84
1, 2999979, Note_off_c, 0, 71, 84
1, 2999979, Note_on_c, 0, 72, 98
1, 3000424, Note_off_c, 0, 72, 98
1, 3000432, Note_on_c, 0, 73, 92
1, 3000801, Note_off_c, 0, 73, 92
1, 3000876, Note_on_c, 0, 68, 98
1, 3001266, Note_off_c, 0, 68, 98
1, 3001266, Note_on_c, 0, 71, 98
1, 3001387, Note_off_c, 0, 71, 98
1, 3001416, Note_on_c, 0, 72, 90
1, 3001690, Note_off_c, 0, 72, 90
1, 3001717, Note_on_c, 0, 71, 96
1, 3001914, Note_off_c, 0, 71, 96
1, 3001934, Note_on_c, 0, 72, 90
1, 3002207, Note_off_c, 0, 72, 90
1, 3002228, Note_on_c, 0, 70, 89
1, 3002438, Note_off_c, 0, 70, 89
1, 3002484, Note_on_c, 0, 68, 95
1, 3002874, Note_off_c, 0, 68, 95
1, 3002895, Note_on_c, 0, 70, 90
1, 3003071, Note_off_c, 0, 70, 90
1, 3003083, Note_on_c, 0, 71, 91
1, 3003246, Note_off_c, 0, 71, 91
1, 3003300, Note_on_c, 0, 69, 87
1, 3003455, Note_off_c, 0, 69, 87
1, 3003522, Note_on_c, 0, 70, 87
1, 3003769, Note_off_c, 0, 70, 87
1, 3003819, Note_on_c, 0, 68, 94
1, 3004096, Note_off_c, 0, 68, 94
1, 3004125, Note_on_c, 0, 70, 90
1, 3004263, Note_off_c, 0, 70, 90
1, 3004279, Note_on_c, 0, 73, 92
1, 3004413, Note_off_c, 0, 73, 92
1, 3004429, Note_on_c, 0, 72, 100
1, 3004907, Note_off_c, 0, 72, 100
1, 3004911, Note_on_c, 0, 73, 95
1, 3005037, Note_off_c, 0, 73, 95
1, 3005091, Note_on_c, 0, 70, 91
1, 3005410, Note_off_c, 0, 70, 91
1, 3005410, Note_on_c, 0, 68, 93
1, 3005746, Note_off_c, 0, 68, 93
1, 3005943, Note_on_c, 0, 70, 93
1, 3006413, Note_off_c, 0, 70, 93
1, 3006497, Note_on_c, 0, 74, 93
1, 3006854, Note_off_c, 0, 74, 93
1, 3007143, Note_on_c, 0, 68, 84
1, 3007483, Note_off_c, 0, 68, 84
1, 3007520, Note_on_c, 0, 70, 95
1, 3007856, Note_off_c, 0, 70, 95
1, 3007864, Note_on_c, 0, 72, 100
1, 3008086, Note_off_c, 0, 72, 100
1, 3008227, Note_on_c, 0, 71, 91
1, 3008394, Note_off_c, 0, 71, 91
1, 3008411, Note_on_c, 0, 70, 101
1, 3009820, Note_off_c, 0, 70, 101
1, 3011486, Note_on_c, 0, 72, 99
1, 3011742, Note_off_c, 0, 72, 99
1, 3011747, Note_on_c, 0, 69, 100
1, 3012129, Note_off_c, 0, 69, 100
1, 3012226, Note_on_c, 0, 65, 94
1, 3012444, Note_off_c, 0, 65, 94
1, 3012593, Note_on_c, 0, 73, 100
1, 3012855, Note_off_c, 0, 73, 100
1, 3012866, Note_on_c, 0, 72, 105
1, 3013260, Note_off_c, 0, 72, 105
1, 3013277, Note_on_c, 0, 71, 100
1, 3013438, Note_off_c, 0, 71, 100
1, 3013540, Note_on_c, 0, 69, 91
1, 3013800, Note_off_c, 0, 69, 91
1, 3013842, Note_on_c, 0, 71, 99
1, 3013972, Note_off_c, 0, 71, 99
1, 3013980, Note_on_c, 0, 73, 102
1, 3014223, Note_off_c, 0, 73, 102
1, 3014294, Note_on_c, 0, 71, 98
1, 3014999, Note_off_c, 0, 71, 98
1, 3015032, Note_on_c, 0, 69, 97
1, 3015208, Note_off_c, 0, 69, 97
1, 3015233, Note_on_c, 0, 71, 103
1, 3015539, Note_off_c, 0, 71, 103
1, 3015539, Note_on_c, 0, 73, 109
1, 3015686, Note_off_c, 0, 73, 109
1, 3015719, Note_on_c, 0, 72, 105
1, 3015979, Note_off_c, 0, 72, 105
1, 3015987, Note_on_c, 0, 69, 95
1, 3016087, Note_off_c, 0, 69, 95
1, 3016158, Note_on_c, 0, 65, 97
1, 3016494, Note_off_c, 0, 65, 97
1, 3016494, Note_on_c, 0, 69, 98
1, 3016750, Note_off_c, 0, 69, 98
1, 3016762, Note_on_c, 0, 72, 101
1, 3016883, Note_off_c, 0, 72, 101
1, 3016937, Note_on_c, 0, 69, 100
1, 3017264, Note_off_c, 0, 69, 100
1, 3017301, Note_on_c, 0, 72, 94
1, 3017515, Note_off_c, 0, 72, 94
1, 3017519, Note_on_c, 0, 69, 96
1, 3017813, Note_off_c, 0, 69, 96
1, 3017976, Note_on_c, 0, 68, 84
1, 3018181, Note_off_c, 0, 68, 84
1, 3018277, Note_on_c, 0, 71, 95
1, 3018503, Note_off_c, 0, 71, 95
1, 3018545, Note_on_c, 0, 69, 93
1, 3018792, Note_off_c, 0, 69, 93
1, 3018800, Note_on_c, 0, 74, 100
1, 3019081, Note_off_c, 0, 74, 100
1, 3019118, Note_on_c, 0, 69, 101
1, 3019613, Note_off_c, 0, 69, 101
1, 3019613, Note_on_c, 0, 71, 100
1, 3019743, Note_off_c, 0, 71, 100
1, 3019755, Note_on_c, 0, 73, 106
1, 3019935, Note_off_c, 0, 73, 106
1, 3019972, Note_on_c, 0, 72, 108
1, 3020098, Note_off_c, 0, 72, 108
1, 3020131, Note_on_c, 0, 71, 104
1, 3020324, Note_on_c, 0, 72, 93
1, 3020324, Note_off_c, 0, 71, 104
1, 3020588, Note_off_c, 0, 72, 93
1, 3020655, Note_on_c, 0, 71, 101
1, 3020898, Note_off_c, 0, 71, 101
1, 3020948, Note_on_c, 0, 72, 101
1, 3021275, Note_off_c, 0, 72, 101
1, 3021353, Note_on_c, 0, 71, 98
1, 3021474, Note_off_c, 0, 71, 98
1, 3021483, Note_on_c, 0, 72, 102
1, 3021793, Note_off_c, 0, 72, 102
1, 3021902, Note_on_c, 0, 71, 94
1, 3021977, Note_off_c, 0, 71, 94
1, 3022014, Note_on_c, 0, 72, 100
1, 3022299, Note_off_c, 0, 72, 100
1, 3022332, Note_on_c, 0, 73, 102
1, 3022537, Note_off_c, 0, 73, 102
1, 3022591, Note_on_c, 0, 72, 92
1, 3022943, Note_off_c, 0, 72, 92
1, 3022963, Note_on_c, 0, 74, 103
1, 3023152, Note_off_c, 0, 74, 103
1, 3023164, Note_on_c, 0, 73, 105
1, 3023281, Note_off_c, 0, 73, 105
1, 3023428, Note_on_c, 0, 71, 98
1, 3023705, Note_off_c, 0, 71, 98
1, 3023767, Note_on_c, 0, 72, 90
1, 3024031, Note_off_c, 0, 72, 90
1, 3024068, Note_on_c, 0, 69, 99
1, 3024198, Note_off_c, 0, 69, 99
1, 3024202, Note_on_c, 0, 71, 102
1, 3024395, Note_off_c, 0, 71, 102
1, 3024416, Note_on_c, 0, 69, 102
1, 3024592, Note_off_c, 0, 69, 102
1, 3024634, Note_on_c, 0, 65, 99
1, 3024890, Note_off_c, 0, 65, 99
1, 3024890, Note_on_c, 0, 69, 97
1, 3025007, Note_off_c, 0, 69, 97
1, 3025032, Note_on_c, 0, 71, 102
1, 3025242, Note_off_c, 0, 71, 102
1, 3025254, Note_on_c, 0, 69, 101
1, 3025648, Note_off_c, 0, 69, 101
1, 3025715, Note_on_c, 0, 71, 102
1, 3025933, Note_off_c, 0, 71, 102
1, 3025983, Note_on_c, 0, 69, 99
1, 3026109, Note_off_c, 0, 69, 99
1, 3026113, Note_on_c, 0, 65, 99
1, 3026524, Note_off_c, 0, 65, 99
1, 3026574, Note_on_c, 0, 72, 107
1, 3026981, Note_off_c, 0, 72, 107
1, 3026981, Note_on_c, 0, 71, 106
1, 3027304, Note_off_c, 0, 71, 106
1, 3027320, Note_on_c, 0, 72, 104
1, 3027639, Note_off_c, 0, 72, 104
1, 3027706, Note_on_c, 0, 71, 99
1, 3027848, Note_off_c, 0, 71, 99
1, 3027873, Note_on_c, 0, 73, 101
1, 3028066, Note_off_c, 0, 73, 101
1, 3028099, Note_on_c, 0, 71, 102
1, 3028330, Note_off_c, 0, 71, 102
1, 3028330, Note_on_c, 0, 72, 100
1, 3028556, Note_off_c, 0, 72, 100
1, 3028572, Note_on_c, 0, 73, 99
1, 3028727, Note_off_c, 0, 73, 99
1, 3028768, Note_on_c, 0, 72, 100
1, 3029267, Note_off_c, 0, 72, 100
1, 3033603, Note_on_c, 0, 67, 100
1, 3033931, Note_off_c, 0, 67, 100
1, 3033960, Note_on_c, 0, 68, 98
1, 3034169, Note_on_c, 0, 69, 98
1, 3034169, Note_off_c, 0, 68, 98
1, 3035417, Note_off_c, 0, 69, 98
1, 3035560, Note_on_c, 0, 65, 93
1, 3035792, Note_off_c, 0, 65, 93
1, 3035881, Note_on_c, 0, 68, 101
1, 3036448, Note_off_c, 0, 68, 101
1, 3036507, Note_on_c, 0, 65, 101
1, 3036972, Note_off_c, 0, 65, 101
1, 3037169, Note_on_c, 0, 69, 112
1, 3038608, Note_off_c, 0, 69, 112
1, 3038781, Note_on_c, 0, 65, 97
1, 3039157, Note_off_c, 0, 65, 97
1, 3039192, Note_on_c, 0, 71, 104
1, 3039741, Note_off_c, 0, 71, 104
1, 3039818, Note_on_c, 0, 72, 95
1, 3040033, Note_off_c, 0, 72, 95
1, 3040370, Note_on_c, 0, 71, 102
1, 3041949, Note_off_c, 0, 71, 102
1, 3042128, Note_on_c, 0, 65, 99
1, 3042301, Note_off_c, 0, 65, 99
1, 3042366, Note_on_c, 0, 69, 108
1, 3042909, Note_off_c, 0, 69, 108
1, 3043016, Note_on_c, 0, 65, 102
1, 3043266, Note_off_c, 0, 65, 102
1, 3043266, Note_on_c, 0, 69, 106
1, 3043708, Note_off_c, 0, 69, 106
1, 3043708, Note_on_c, 0, 65, 100
1, 3044042, Note_off_c, 0, 65, 100
1, 3044078, Note_on_c, 0, 69, 101
1, 3045069, Note_off_c, 0, 69, 101
1, 3045371, Note_on_c, 0, 65, 99
1, 3045631, Note_off_c, 0, 65, 99
1, 3045673, Note_on_c, 0, 71, 101
1, 3046118, Note_off_c, 0, 71, 101
1, 3046252, Note_on_c, 0, 65, 94
1, 3046529, Note_off_c, 0, 65, 94
1, 3046529, Note_on_c, 0, 71, 103
1, 3046957, Note_off_c, 0, 71, 103
1, 3047108, Note_on_c, 0, 65, 98
1, 3047435, Note_off_c, 0, 65, 98
1, 3047451, Note_on_c, 0, 71, 104
1, 3048013, Note_off_c, 0, 71, 104
1, 3048063, Note_on_c, 0, 66, 99
1, 3048457, Note_off_c, 0, 66, 99
1, 3050716, Note_on_c, 0, 69, 96
1, 3051236, Note_off_c, 0, 69, 96
1, 3051261, Note_on_c, 0, 65, 96
1, 3051452, Note_off_c, 0, 65, 96
1, 3051493, Note_on_c, 0, 69, 88
1, 3052012, Note_off_c, 0, 69, 88
1, 3052095, Note_on_c, 0, 65, 94
1, 3052339, Note_off_c, 0, 65, 94
1, 3052339, Note_on_c, 0, 71, 98
1, 3052840, Note_off_c, 0, 71, 98
1, 3052965, Note_on_c, 0, 65, 97
1, 3053209, Note_off_c, 0, 65, 97
1, 3053459, Note_on_c, 0, 71, 95
1, 3053805, Note_off_c, 0, 71, 95
1, 3053805, Note_on_c, 0, 66, 85
1, 3054139, Note_off_c, 0, 66, 85
1, 3054139, Note_on_c, 0, 71, 82
1, 3054557, Note_off_c, 0, 71, 82
1, 3054592, Note_on_c, 0, 66, 99
1, 3054938, Note_off_c, 0, 66, 99
1, 3055014, Note_on_c, 0, 71, 83
1, 3055350, Note_off_c, 0, 71, 83
1, 3055528, Note_on_c, 0, 65, 96
1, 3055713, Note_off_c, 0, 65, 96
1, 3055713, Note_on_c, 0, 68, 92
1, 3055808, Note_off_c, 0, 68, 92
1, 3055808, Note_on_c, 0, 69, 88
1, 3056094, Note_off_c, 0, 69, 88
1, 3056171, Note_on_c, 0, 65, 92
1, 3056507, Note_off_c, 0, 65, 92
1, 3056591, Note_on_c, 0, 69, 86
1, 3056910, Note_off_c, 0, 69, 86
1, 3057027, Note_on_c, 0, 65, 80
1, 3057379, Note_off_c, 0, 65, 80
1, 3057496, Note_on_c, 0, 69, 79
1, 3057790, Note_off_c, 0, 69, 79
1, 3057919, Note_on_c, 0, 65, 105
1, 3058175, Note_off_c, 0, 65, 105
1, 3058216, Note_on_c, 0, 69, 94
1, 3058448, Note_off_c, 0, 69, 94
1, 3058603, Note_on_c, 0, 65, 90
1, 3058824, Note_off_c, 0, 65, 90
1, 3058859, Note_on_c, 0, 70, 91
1, 3059181, Note_off_c, 0, 70, 91
1, 3059264, Note_on_c, 0, 72, 81
1, 3059592, Note_off_c, 0, 72, 81
1, 3059657, Note_on_c, 0, 65, 86
1, 3059919, Note_off_c, 0, 65, 86
1, 3059930, Note_on_c, 0, 72, 83
1, 3060174, Note_off_c, 0, 72, 83
1, 3060263, Note_on_c, 0, 65, 89
1, 3060519, Note_off_c, 0, 65, 89
1, 3060590, Note_on_c, 0, 72, 84
1, 3060954, Note_off_c, 0, 72, 84
1, 3061019, Note_on_c, 0, 65, 78
1, 3061281, Note_off_c, 0, 65, 78
1, 3061352, Note_on_c, 0, 72, 81
1, 3061704, Note_off_c, 0, 72, 81
1, 3061972, Note_on_c, 0, 65, 96
1, 3062181, Note_off_c, 0, 65, 96
1, 3062181, Note_on_c, 0, 68, 96
1, 3062282, Note_off_c, 0, 68, 96
1, 3062282, Note_on_c, 0, 69, 90
1, 3062532, Note_off_c, 0, 69, 90
1, 3062729, Note_on_c, 0, 65, 91
1, 3063087, Note_off_c, 0, 65, 91
1, 3063182, Note_on_c, 0, 69, 93
1, 3063468, Note_off_c, 0, 69, 93
1, 3063593, Note_on_c, 0, 65, 90
1, 3063873, Note_off_c, 0, 65, 90
1, 3063968, Note_on_c, 0, 71, 96
1, 3064344, Note_off_c, 0, 71, 96
1, 3064373, Note_on_c, 0, 65, 87
1, 3064701, Note_off_c, 0, 65, 87
1, 3064701, Note_on_c, 0, 72, 81
1, 3064999, Note_off_c, 0, 72, 81
1, 3065214, Note_on_c, 0, 65, 88
1, 3065506, Note_off_c, 0, 65, 88
1, 3065547, Note_on_c, 0, 72, 77
1, 3065809, Note_off_c, 0, 72, 77
1, 3066107, Note_on_c, 0, 65, 95
1, 3066328, Note_off_c, 0, 65, 95
1, 3066333, Note_on_c, 0, 69, 94
1, 3066643, Note_off_c, 0, 69, 94
1, 3066775, Note_on_c, 0, 65, 94
1, 3067018, Note_off_c, 0, 65, 94
1, 3067186, Note_on_c, 0, 69, 77
1, 3067454, Note_off_c, 0, 69, 77
1, 3067537, Note_on_c, 0, 65, 76
1, 3067831, Note_off_c, 0, 65, 76
1, 3067957, Note_on_c, 0, 69, 90
1, 3068234, Note_off_c, 0, 69, 90
1, 3068234, Note_on_c, 0, 65, 90
1, 3068519, Note_off_c, 0, 65, 90
1, 3068675, Note_on_c, 0, 69, 93
1, 3069021, Note_off_c, 0, 69, 93
1, 3069088, Note_on_c, 0, 65, 82
1, 3069449, Note_off_c, 0, 65, 82
1, 3069558, Note_on_c, 0, 69, 77
1, 3069868, Note_off_c, 0, 69, 77
1, 3069910, Note_on_c, 0, 65, 80
1, 3070237, Note_off_c, 0, 65, 80
1, 3070312, Note_on_c, 0, 70, 90
1, 3070648, Note_off_c, 0, 70, 90
1, 3070782, Note_on_c, 0, 65, 85
1, 3071134, Note_off_c, 0, 65, 85
1, 3071134, Note_on_c, 0, 70, 84
1, 3071520, Note_off_c, 0, 70, 84
1, 3071545, Note_on_c, 0, 65, 85
1, 3071839, Note_off_c, 0, 65, 85
1, 3071960, Note_on_c, 0, 69, 91
1, 3072121, Note_off_c, 0, 69, 91
1, 3072132, Note_on_c, 0, 65, 97
1, 3072484, Note_off_c, 0, 65, 97
1, 3072785, Note_on_c, 0, 71, 87
1, 3073154, Note_off_c, 0, 71, 87
1, 3073229, Note_on_c, 0, 65, 83
1, 3073531, Note_off_c, 0, 65, 83
1, 3073572, Note_on_c, 0, 71, 83
1, 3073857, Note_off_c, 0, 71, 83
1, 3073857, Note_on_c, 0, 65, 86
1, 3074100, Note_off_c, 0, 65, 86
1, 3074163, Note_on_c, 0, 69, 93
1, 3074342, Note_off_c, 0, 69, 93
1, 3074347, Note_on_c, 0, 65, 101
1, 3074675, Note_off_c, 0, 65, 101
1, 3074800, Note_on_c, 0, 71, 87
1, 3075110, Note_off_c, 0, 71, 87
1, 3075171, Note_on_c, 0, 65, 83
1, 3075481, Note_off_c, 0, 65, 83
1, 3075993, Note_on_c, 0, 69, 86
1, 3076278, Note_off_c, 0, 69, 86
1, 3076370, Note_on_c, 0, 65, 84
1, 3076706, Note_off_c, 0, 65, 84
1, 3076756, Note_on_c, 0, 69, 85
1, 3077058, Note_off_c, 0, 69, 85
1, 3077262, Note_on_c, 0, 65, 92
1, 3077423, Note_off_c, 0, 65, 92
1, 3077470, Note_on_c, 0, 68, 101
1, 3077732, Note_off_c, 0, 68, 101
1, 3077732, Note_on_c, 0, 69, 103
1, 3078048, Note_off_c, 0, 69, 103
1, 3078113, Note_on_c, 0, 65, 84
1, 3078356, Note_off_c, 0, 65, 84
1, 3078414, Note_on_c, 0, 69, 79
1, 3078666, Note_off_c, 0, 69, 79
1, 3078724, Note_on_c, 0, 65, 87
1, 3079034, Note_off_c, 0, 65, 87
1, 3079151, Note_on_c, 0, 69, 85
1, 3079470, Note_off_c, 0, 69, 85
1, 3079770, Note_on_c, 0, 65, 99
1, 3079991, Note_off_c, 0, 65, 99
1, 3080056, Note_on_c, 0, 71, 100
1, 3080450, Note_off_c, 0, 71, 100
1, 3080569, Note_on_c, 0, 65, 98
1, 3080837, Note_off_c, 0, 65, 98
1, 3080878, Note_on_c, 0, 71, 99
1, 3081212, Note_off_c, 0, 71, 99
1, 3081314, Note_on_c, 0, 65, 91
1, 3081566, Note_off_c, 0, 65, 91
1, 3081683, Note_on_c, 0, 69, 89
1, 3081985, Note_off_c, 0, 69, 89
1, 3082136, Note_on_c, 0, 65, 88
1, 3082388, Note_off_c, 0, 65, 88
1, 3082572, Note_on_c, 0, 69, 90
1, 3082899, Note_off_c, 0, 69, 90
1, 3082991, Note_on_c, 0, 65, 93
1, 3083268, Note_off_c, 0, 65, 93
1, 3083360, Note_on_c, 0, 69, 92
1, 3083670, Note_off_c, 0, 69, 92
1, 3083720, Note_on_c, 0, 65, 86
1, 3083963, Note_off_c, 0, 65, 86
1, 3084156, Note_on_c, 0, 69, 87
1, 3084433, Note_off_c, 0, 69, 87
1, 3084610, Note_on_c, 0, 65, 91
1, 3084801, Note_off_c, 0, 65, 91
1, 3084801, Note_on_c, 0, 69, 102
1, 3085063, Note_off_c, 0, 69, 102
1, 3085086, Note_on_c, 0, 71, 106
1, 3085413, Note_off_c, 0, 71, 106
1, 3085605, Note_on_c, 0, 65, 103
1, 3085867, Note_off_c, 0, 65, 103
1, 3085890, Note_on_c, 0, 71, 86
1, 3086167, Note_off_c, 0, 71, 86
1, 3086385, Note_on_c, 0, 65, 95
1, 3086653, Note_off_c, 0, 65, 95
1, 3086797, Note_on_c, 0, 71, 99
1, 3087137, Note_off_c, 0, 71, 99
1, 3087178, Note_on_c, 0, 73, 109
1, 3087608, Note_off_c, 0, 73, 109
1, 3087709, Note_on_c, 0, 71, 88
1, 3087944, Note_off_c, 0, 71, 88
1, 3087944, Note_on_c, 0, 65, 86
1, 3088204, Note_off_c, 0, 65, 86
1, 3088254, Note_on_c, 0, 70, 81
1, 3088547, Note_off_c, 0, 70, 81
1, 3088740, Note_on_c, 0, 65, 87
1, 3089042, Note_off_c, 0, 65, 87
1, 3089209, Note_on_c, 0, 70, 77
1, 3089469, Note_off_c, 0, 70, 77
1, 3089801, Note_on_c, 0, 65, 102
1, 3090117, Note_off_c, 0, 65, 102
1, 3090158, Note_on_c, 0, 72, 91
1, 3090432, Note_off_c, 0, 72, 91
1, 3090647, Note_on_c, 0, 73, 99
1, 3091178, Note_off_c, 0, 73, 99
1, 3091387, Note_on_c, 0, 72, 107
1, 3091649, Note_off_c, 0, 72, 107
1, 3091666, Note_on_c, 0, 73, 102
1, 3092239, Note_off_c, 0, 73, 102
1, 3092298, Note_on_c, 0, 72, 96
1, 3092566, Note_off_c, 0, 72, 96
1, 3092595, Note_on_c, 0, 73, 99
1, 3093199, Note_off_c, 0, 73, 99
1, 3093266, Note_on_c, 0, 73, 88
1, 3093669, Note_off_c, 0, 73, 88
1, 3093719, Note_on_c, 0, 72, 103
1, 3094298, Note_off_c, 0, 72, 103
1, 3094423, Note_on_c, 0, 73, 94
1, 3094876, Note_off_c, 0, 73, 94
1, 3094951, Note_on_c, 0, 70, 82
1, 3095228, Note_off_c, 0, 70, 82
1, 3095320, Note_on_c, 0, 65, 80
1, 3095597, Note_off_c, 0, 65, 80
1, 3095672, Note_on_c, 0, 70, 76
1, 3095982, Note_off_c, 0, 70, 76
1, 3096267, Note_on_c, 0, 65, 100
1, 3096519, Note_off_c, 0, 65, 100
1, 3096561, Note_on_c, 0, 70, 100
1, 3096913, Note_off_c, 0, 70, 100
1, 3096977, Note_on_c, 0, 65, 92
1, 3097180, Note_off_c, 0, 65, 92
1, 3097341, Note_on_c, 0, 70, 99
1, 3097663, Note_off_c, 0, 70, 99
1, 3097860, Note_on_c, 0, 65, 97
1, 3098110, Note_off_c, 0, 65, 97
1, 3098157, Note_on_c, 0, 69, 84
1, 3098443, Note_off_c, 0, 69, 84
1, 3098867, Note_on_c, 0, 65, 101
1, 3099153, Note_off_c, 0, 65, 101
1, 3099248, Note_on_c, 0, 72, 106
1, 3099469, Note_off_c, 0, 72, 106
1, 3099504, Note_on_c, 0, 73, 98
1, 3099963, Note_off_c, 0, 73, 98
1, 3099998, Note_on_c, 0, 72, 100
1, 3100284, Note_off_c, 0, 72, 100
1, 3100284, Note_on_c, 0, 73, 98
1, 3100558, Note_off_c, 0, 73, 98
1, 3100575, Note_on_c, 0, 72, 91
1, 3100849, Note_off_c, 0, 72, 91
1, 3103789, Note_on_c, 0, 68, 106
1, 3104217, Note_off_c, 0, 68, 106
1, 3104242, Note_on_c, 0, 70, 109
1, 3105812, Note_off_c, 0, 70, 109
1, 3105946, Note_on_c, 0, 66, 98
1, 3106214, Note_off_c, 0, 66, 98
1, 3106239, Note_on_c, 0, 72, 111
1, 3106566, Note_off_c, 0, 72, 111
1, 3106574, Note_on_c, 0, 71, 109
1, 3106725, Note_off_c, 0, 71, 109
1, 3106775, Note_on_c, 0, 70, 102
1, 3108917, Note_off_c, 0, 70, 102
1, 3108984, Note_on_c, 0, 71, 103
1, 3109353, Note_off_c, 0, 71, 103
1, 3109428, Note_on_c, 0, 70, 102
1, 3109789, Note_off_c, 0, 70, 102
1, 3109957, Note_on_c, 0, 66, 100
1, 3110267, Note_off_c, 0, 66, 100
1, 3110317, Note_on_c, 0, 65, 102
1, 3110678, Note_off_c, 0, 65, 102
1, 3110709, Note_on_c, 0, 64, 103
1, 3111097, Note_off_c, 0, 64, 103
1, 3111108, Note_on_c, 0, 63, 104
1, 3111400, Note_off_c, 0, 63, 104
1, 3111489, Note_on_c, 0, 62, 101
1, 3111901, Note_off_c, 0, 62, 101
1, 3111918, Note_on_c, 0, 61, 102
1, 3112252, Note_off_c, 0, 61, 102
1, 3112287, Note_on_c, 0, 60, 100
1, 3112723, Note_off_c, 0, 60, 100
1, 3112723, Note_on_c, 0, 58, 103
1, 3112979, Note_off_c, 0, 58, 103
1, 3112996, Note_on_c, 0, 58, 101
1, 3113187, Note_off_c, 0, 58, 101
1, 3113234, Note_on_c, 0, 57, 105
1, 3113347, Note_off_c, 0, 57, 105
1, 3113376, Note_on_c, 0, 53, 107
1, 3113662, Note_off_c, 0, 53, 107
1, 3114193, Note_on_c, 0, 69, 98
1, 3114688, Note_off_c, 0, 69, 98
1, 3114735, Note_on_c, 0, 62, 88
1, 3114991, Note_off_c, 0, 62, 88
1, 3115062, Note_on_c, 0, 69, 80
1, 3115396, Note_off_c, 0, 69, 80
1, 3115485, Note_on_c, 0, 62, 83
1, 3115735, Note_off_c, 0, 62, 83
1, 3115818, Note_on_c, 0, 69, 89
1, 3116200, Note_off_c, 0, 69, 89
1, 3116229, Note_on_c, 0, 62, 83
1, 3116497, Note_off_c, 0, 62, 83
1, 3116590, Note_on_c, 0, 67, 98
1, 3116833, Note_off_c, 0, 67, 98
1, 3116849, Note_on_c, 0, 71, 107
1, 3117201, Note_off_c, 0, 71, 107
1, 3117348, Note_on_c, 0, 62, 91
1, 3117616, Note_off_c, 0, 62, 91
1, 3117693, Note_on_c, 0, 71, 87
1, 3117991, Note_off_c, 0, 71, 87
1, 3118008, Note_on_c, 0, 62, 91
1, 3118229, Note_off_c, 0, 62, 91
1, 3118396, Note_on_c, 0, 71, 82
1, 3118646, Note_off_c, 0, 71, 82
1, 3118729, Note_on_c, 0, 62, 94
1, 3118955, Note_off_c, 0, 62, 94
1, 3119008, Note_on_c, 0, 70, 95
1, 3119127, Note_off_c, 0, 70, 95
1, 3119127, Note_on_c, 0, 71, 93
1, 3119604, Note_off_c, 0, 71, 93
1, 3119801, Note_on_c, 0, 63, 89
1, 3120045, Note_off_c, 0, 63, 89
1, 3120098, Note_on_c, 0, 71, 87
1, 3120360, Note_off_c, 0, 71, 87
1, 3120360, Note_on_c, 0, 63, 88
1, 3120586, Note_off_c, 0, 63, 88
1, 3120645, Note_on_c, 0, 70, 99
1, 3120854, Note_off_c, 0, 70, 99
1, 3120865, Note_on_c, 0, 66, 103
1, 3121068, Note_off_c, 0, 66, 103
1, 3121223, Note_on_c, 0, 70, 91
1, 3121551, Note_off_c, 0, 70, 91
1, 3121712, Note_on_c, 0, 64, 81
1, 3121944, Note_off_c, 0, 64, 81
1, 3122003, Note_on_c, 0, 70, 81
1, 3122295, Note_off_c, 0, 70, 81
1, 3122426, Note_on_c, 0, 64, 82
1, 3122611, Note_off_c, 0, 64, 82
1, 3122670, Note_on_c, 0, 70, 85
1, 3122932, Note_off_c, 0, 70, 85
1, 3122973, Note_on_c, 0, 64, 90
1, 3123164, Note_off_c, 0, 64, 90
1, 3123164, Note_on_c, 0, 70, 104
1, 3123337, Note_off_c, 0, 70, 104
1, 3123337, Note_on_c, 0, 71, 107
1, 3123587, Note_off_c, 0, 71, 107
1, 3123730, Note_on_c, 0, 65, 98
1, 3123968, Note_off_c, 0, 65, 98
1, 3124009, Note_on_c, 0, 71, 82
1, 3124235, Note_off_c, 0, 71, 82
1, 3124378, Note_on_c, 0, 66, 83
1, 3124628, Note_off_c, 0, 66, 83
1, 3124741, Note_on_c, 0, 71, 80
1, 3124979, Note_off_c, 0, 71, 80
1, 3125092, Note_on_c, 0, 66, 86
1, 3125301, Note_on_c, 0, 70, 101
1, 3125301, Note_off_c, 0, 66, 86
1, 3125617, Note_off_c, 0, 70, 101
1, 3125617, Note_on_c, 0, 71, 111
1, 3125981, Note_off_c, 0, 71, 111
1, 3126028, Note_on_c, 0, 65, 96
1, 3126308, Note_off_c, 0, 65, 96
1, 3126397, Note_on_c, 0, 71, 85
1, 3126677, Note_off_c, 0, 71, 85
1, 3126766, Note_on_c, 0, 65, 97
1, 3126998, Note_off_c, 0, 65, 97
1, 3127009, Note_on_c, 0, 67, 103
1, 3127182, Note_off_c, 0, 67, 103
1, 3127182, Note_on_c, 0, 69, 107
1, 3127630, Note_off_c, 0, 69, 107
1, 3127707, Note_on_c, 0, 65, 93
1, 3127963, Note_off_c, 0, 65, 93
1, 3128118, Note_on_c, 0, 70, 81
1, 3128356, Note_off_c, 0, 70, 81
1, 3128433, Note_on_c, 0, 66, 90
1, 3128648, Note_off_c, 0, 66, 90
1, 3128773, Note_on_c, 0, 71, 107
1, 3129185, Note_off_c, 0, 71, 107
1, 3129208, Note_on_c, 0, 65, 96
1, 3129446, Note_off_c, 0, 65, 96
1, 3129463, Note_on_c, 0, 69, 98
1, 3129552, Note_off_c, 0, 69, 98
1, 3129611, Note_on_c, 0, 71, 104
1, 3129951, Note_off_c, 0, 71, 104
1, 3130022, Note_on_c, 0, 65, 97
1, 3130284, Note_off_c, 0, 65, 97
1, 3130421, Note_on_c, 0, 69, 91
1, 3130642, Note_off_c, 0, 69, 91
1, 3130791, Note_on_c, 0, 65, 87
1, 3131023, Note_off_c, 0, 65, 87
1, 3131244, Note_on_c, 0, 69, 94
1, 3131560, Note_off_c, 0, 69, 94
1, 3131643, Note_on_c, 0, 65, 94
1, 3131846, Note_off_c, 0, 65, 94
1, 3131857, Note_on_c, 0, 69, 98
1, 3131916, Note_off_c, 0, 69, 98
1, 3131916, Note_on_c, 0, 71, 104
1, 3132346, Note_off_c, 0, 71, 104
1, 3132387, Note_on_c, 0, 65, 91
1, 3132667, Note_off_c, 0, 65, 91
1, 3132768, Note_on_c, 0, 70, 95
1, 3133180, Note_off_c, 0, 70, 95
1, 3133239, Note_on_c, 0, 65, 94
1, 3133454, Note_off_c, 0, 65, 94
1, 3133627, Note_on_c, 0, 69, 92
1, 3133788, Note_off_c, 0, 69, 92
1, 3133817, Note_on_c, 0, 74, 93
1, 3134450, Note_off_c, 0, 74, 93
1, 3134618, Note_on_c, 0, 71, 99
1, 3134949, Note_off_c, 0, 71, 99
1, 3135021, Note_on_c, 0, 69, 100
1, 3136048, Note_off_c, 0, 69, 100
1, 3138286, Note_on_c, 0, 74, 88
1, 3139714, Note_off_c, 0, 74, 88
1, 3139932, Note_on_c, 0, 71, 86
1, 3140133, Note_off_c, 0, 71, 86
1, 3140233, Note_on_c, 0, 69, 102
1, 3140459, Note_off_c, 0, 69, 102
1, 3140593, Note_on_c, 0, 74, 89
1, 3142071, Note_off_c, 0, 74, 89
1, 3142205, Note_on_c, 0, 74, 90
1, 3143154, Note_off_c, 0, 74, 90
1, 3143414, Note_on_c, 0, 74, 98
1, 3145396, Note_off_c, 0, 74, 98
1, 3145396, Note_on_c, 0, 69, 104
1, 3145664, Note_off_c, 0, 69, 104
1, 3145714, Note_on_c, 0, 62, 105
1, 3145982, Note_off_c, 0, 62, 105
1, 3148384, Note_on_c, 0, 82, 96
1, 3148753, Note_off_c, 0, 82, 96
1, 3148828, Note_on_c, 0, 74, 95
1, 3150029, Note_off_c, 0, 74, 95
1, 3150180, Note_on_c, 0, 69, 97
1, 3150600, Note_off_c, 0, 69, 97
1, 3150608, Note_on_c, 0, 74, 92
1, 3150876, Note_off_c, 0, 74, 92
1, 3150887, Note_on_c, 0, 73, 95
1, 3151066, Note_off_c, 0, 73, 95
1, 3151068, Note_on_c, 0, 71, 94
1, 3151269, Note_off_c, 0, 71, 94
1, 3151269, Note_on_c, 0, 69, 93
1, 3151605, Note_off_c, 0, 69, 93
1, 3151605, Note_on_c, 0, 67, 100
1, 3151865, Note_off_c, 0, 67, 100
1, 3151881, Note_on_c, 0, 65, 107
1, 3153275, Note_off_c, 0, 65, 107
1, 3153367, Note_on_c, 0, 62, 106
1, 3153677, Note_off_c, 0, 62, 106
1, 3153693, Note_on_c, 0, 65, 106
1, 3154096, Note_off_c, 0, 65, 106
1, 3154188, Note_on_c, 0, 62, 109
1, 3155053, Note_off_c, 0, 62, 109
1, 3155271, Note_on_c, 0, 59, 99
1, 3155533, Note_off_c, 0, 59, 99
1, 3155634, Note_on_c, 0, 62, 95
1, 3156004, Note_off_c, 0, 62, 95
1, 3156117, Note_on_c, 0, 59, 100
1, 3156463, Note_off_c, 0, 59, 100
1, 3156468, Note_on_c, 0, 57, 99
1, 3158044, Note_off_c, 0, 57, 99
1, 3158061, Note_on_c, 0, 55, 96
1, 3158317, Note_off_c, 0, 55, 96
1, 3158382, Note_on_c, 0, 53, 102
1, 3159905, Note_off_c, 0, 53, 102
1, 3159934, Note_on_c, 0, 50, 108
1, 3160304, Note_off_c, 0, 50, 108
1, 3160309, Note_on_c, 0, 45, 105
1, 3160972, Note_off_c, 0, 45, 105
1, 3167465, Note_on_c, 0, 44, 116
1, 3167930, Note_on_c, 0, 48, 103
1, 3167930, Note_off_c, 0, 44, 116
1, 3168127, Note_off_c, 0, 48, 103
1, 3168156, Note_on_c, 0, 46, 111
1, 3168371, Note_off_c, 0, 46, 111
1, 3168371, Note_on_c, 0, 48, 109
1, 3168532, Note_off_c, 0, 48, 109
1, 3168543, Note_on_c, 0, 46, 104
1, 3169450, Note_off_c, 0, 46, 104
1, 3169479, Note_on_c, 0, 53, 102
1, 3169789, Note_off_c, 0, 53, 102
1, 3169962, Note_on_c, 0, 46, 105
1, 3170893, Note_off_c, 0, 46, 105
1, 3171125, Note_on_c, 0, 53, 111
1, 3171393, Note_off_c, 0, 53, 111
1, 3171416, Note_on_c, 0, 51, 110
1, 3171684, Note_off_c, 0, 51, 110
1, 3171695, Note_on_c, 0, 50, 113
1, 3172202, Note_off_c, 0, 50, 113
1, 3172202, Note_on_c, 0, 51, 110
1, 3172602, Note_off_c, 0, 51, 110
1, 3172602, Note_on_c, 0, 53, 109
1, 3172924, Note_off_c, 0, 53, 109
1, 3172977, Note_on_c, 0, 51, 106
1, 3174482, Note_off_c, 0, 51, 106
1, 3174601, Note_on_c, 0, 52, 103
1, 3174983, Note_off_c, 0, 52, 103
1, 3175012, Note_on_c, 0, 54, 94
1, 3175603, Note_off_c, 0, 54, 94
1, 3175776, Note_on_c, 0, 57, 95
1, 3176146, Note_off_c, 0, 57, 95
1, 3176384, Note_on_c, 0, 62, 112
1, 3176837, Note_off_c, 0, 62, 112
1, 3176842, Note_on_c, 0, 61, 107
1, 3177128, Note_off_c, 0, 61, 107
1, 3177193, Note_on_c, 0, 59, 105
1, 3177539, Note_off_c, 0, 59, 105
1, 3177580, Note_on_c, 0, 58, 107
1, 3177908, Note_off_c, 0, 58, 107
1, 3177908, Note_on_c, 0, 57, 109
1, 3178702, Note_off_c, 0, 57, 109
1, 3181320, Note_on_c, 0, 56, 98
1, 3182445, Note_off_c, 0, 56, 98
1, 3182541, Note_on_c, 0, 59, 97
1, 3182779, Note_off_c, 0, 59, 97
1, 3182779, Note_on_c, 0, 64, 104
1, 3183191, Note_off_c, 0, 64, 104
1, 3183268, Note_on_c, 0, 63, 104
1, 3183733, Note_off_c, 0, 63, 104
1, 3183774, Note_on_c, 0, 61, 106
1, 3184114, Note_off_c, 0, 61, 106
1, 3184185, Note_on_c, 0, 57, 96
1, 3184417, Note_off_c, 0, 57, 96
1, 3184417, Note_on_c, 0, 62, 111
1, 3184906, Note_off_c, 0, 62, 111
1, 3184953, Note_on_c, 0, 64, 113
1, 3185263, Note_off_c, 0, 64, 113
1, 3185263, Note_on_c, 0, 66, 102
1, 3185675, Note_off_c, 0, 66, 102
1, 3185770, Note_on_c, 0, 69, 107
1, 3186152, Note_off_c, 0, 69, 107
1, 3186157, Note_on_c, 0, 65, 101
1, 3186664, Note_off_c, 0, 65, 101
1, 3186705, Note_on_c, 0, 66, 104
1, 3186890, Note_off_c, 0, 66, 104
1, 3186901, Note_on_c, 0, 65, 106
1, 3187229, Note_on_c, 0, 63, 107
1, 3187229, Note_off_c, 0, 65, 106
1, 3187730, Note_off_c, 0, 63, 107
1, 3187795, Note_on_c, 0, 61, 106
1, 3188165, Note_off_c, 0, 61, 106
1, 3188165, Note_on_c, 0, 60, 100
1, 3188523, Note_off_c, 0, 60, 100
1, 3188523, Note_on_c, 0, 59, 98
1, 3188947, Note_off_c, 0, 59, 98
1, 3188947, Note_on_c, 0, 63, 102
1, 3189353, Note_off_c, 0, 63, 102
1, 3189388, Note_on_c, 0, 59, 95
1, 3189752, Note_off_c, 0, 59, 95
1, 3189775, Note_on_c, 0, 58, 90
1, 3190121, Note_off_c, 0, 58, 90
1, 3190126, Note_on_c, 0, 57, 102
1, 3190496, Note_off_c, 0, 57, 102
1, 3190501, Note_on_c, 0, 56, 106
1, 3190913, Note_off_c, 0, 56, 106
1, 3190954, Note_on_c, 0, 55, 105
1, 3191324, Note_off_c, 0, 55, 105
1, 3191401, Note_on_c, 0, 59, 91
1, 3191735, Note_off_c, 0, 59, 91
1, 3191758, Note_on_c, 0, 57, 94
1, 3192062, Note_off_c, 0, 57, 94
1, 3192181, Note_on_c, 0, 53, 99
1, 3192706, Note_off_c, 0, 53, 99
1, 3195842, Note_on_c, 0, 54, 98
1, 3196094, Note_off_c, 0, 54, 98
1, 3196136, Note_on_c, 0, 55, 93
1, 3196421, Note_off_c, 0, 55, 93
1, 3196689, Note_on_c, 0, 68, 92
1, 3196899, Note_off_c, 0, 68, 92
1, 3196991, Note_on_c, 0, 68, 95
1, 3197217, Note_off_c, 0, 68, 95
1, 3197225, Note_on_c, 0, 67, 108
1, 3197729, Note_off_c, 0, 67, 108
1, 3197729, Note_on_c, 0, 69, 103
1, 3198098, Note_off_c, 0, 69, 103
1, 3198991, Note_on_c, 0, 58, 105
1, 3199439, Note_off_c, 0, 58, 105
1, 3199898, Note_on_c, 0, 58, 91
1, 3200029, Note_off_c, 0, 58, 91
1, 3200088, Note_on_c, 0, 58, 98
1, 3200273, Note_off_c, 0, 58, 98
1, 3200290, Note_on_c, 0, 59, 104
1, 3200552, Note_off_c, 0, 59, 104
1, 3200552, Note_on_c, 0, 61, 103
1, 3200970, Note_off_c, 0, 61, 103
1, 3200987, Note_on_c, 0, 60, 9
1, 3201751, Note_off_c, 0, 60, 9
1, 3201840, Note_on_c, 0, 67, 89
1, 3202156, Note_off_c, 0, 67, 89
1, 3202167, Note_on_c, 0, 63, 116
1, 3202662, Note_off_c, 0, 63, 116
1, 3202673, Note_on_c, 0, 67, 102
1, 3203031, Note_off_c, 0, 67, 102
1, 3203060, Note_on_c, 0, 71, 105
1, 3203424, Note_off_c, 0, 71, 105
1, 3203453, Note_on_c, 0, 68, 106
1, 3203685, Note_off_c, 0, 68, 106
1, 3203852, Note_on_c, 0, 61, 106
1, 3204365, Note_off_c, 0, 61, 106
1, 3204365, Note_on_c, 0, 60, 98
1, 3204777, Note_off_c, 0, 60, 98
1, 3204944, Note_on_c, 0, 70, 110
1, 3205344, Note_off_c, 0, 70, 110
1, 3205344, Note_on_c, 0, 69, 103
1, 3205762, Note_off_c, 0, 69, 103
1, 3205762, Note_on_c, 0, 66, 102
1, 3206138, Note_off_c, 0, 66, 102
1, 3206143, Note_on_c, 0, 65, 106
1, 3206549, Note_off_c, 0, 65, 106
1, 3206554, Note_on_c, 0, 63, 101
1, 3206966, Note_off_c, 0, 63, 101
1, 3206966, Note_on_c, 0, 67, 102
1, 3207306, Note_on_c, 0, 66, 104
1, 3207306, Note_off_c, 0, 67, 102
1, 3207783, Note_off_c, 0, 66, 104
1, 3207788, Note_on_c, 0, 63, 110
1, 3208325, Note_off_c, 0, 63, 110
1, 3208354, Note_on_c, 0, 58, 98
1, 3208616, Note_off_c, 0, 58, 98
1, 3208639, Note_on_c, 0, 65, 105
1, 3209098, Note_off_c, 0, 65, 105
1, 3209098, Note_on_c, 0, 60, 95
1, 3209534, Note_off_c, 0, 60, 95
1, 3209629, Note_on_c, 0, 56, 104
1, 3209861, Note_off_c, 0, 56, 104
1, 3209902, Note_on_c, 0, 56, 99
1, 3210027, Note_off_c, 0, 56, 99
1, 3210027, Note_on_c, 0, 54, 100
1, 3210385, Note_off_c, 0, 54, 100
1, 3210438, Note_on_c, 0, 51, 104
1, 3210820, Note_off_c, 0, 51, 104
1, 3210820, Note_on_c, 0, 56, 100
1, 3211023, Note_off_c, 0, 56, 100
1, 3211124, Note_on_c, 0, 53, 100
1, 3211518, Note_off_c, 0, 53, 100
1, 3211523, Note_on_c, 0, 48, 100
1, 3211845, Note_off_c, 0, 48, 100
1, 3211856, Note_on_c, 0, 46, 99
1, 3212590, Note_off_c, 0, 46, 99
1, 3212685, Note_on_c, 0, 51, 102
1, 3213115, Note_off_c, 0, 51, 102
1, 3213150, Note_on_c, 0, 46, 98
1, 3213365, Note_off_c, 0, 46, 98
1, 3213406, Note_on_c, 0, 44, 103
1, 3213985, Note_off_c, 0, 44, 103
1, 3219087, Note_on_c, 0, 45, 106
1, 3219744, Note_off_c, 0, 45, 106
1, 3219784, Note_on_c, 0, 50, 105
1, 3220086, Note_off_c, 0, 50, 105
1, 3220238, Note_on_c, 0, 53, 101
1, 3221330, Note_off_c, 0, 53, 101
1, 3221379, Note_on_c, 0, 56, 105
1, 3221698, Note_off_c, 0, 56, 105
1, 3221723, Note_on_c, 0, 50, 104
1, 3222143, Note_off_c, 0, 50, 104
1, 3222176, Note_on_c, 0, 53, 103
1, 3222587, Note_off_c, 0, 53, 103
1, 3222587, Note_on_c, 0, 57, 103
1, 3222830, Note_off_c, 0, 57, 103
1, 3222888, Note_on_c, 0, 63, 101
1, 3223366, Note_off_c, 0, 63, 101
1, 3226457, Note_on_c, 0, 63, 104
1, 3226881, Note_off_c, 0, 63, 104
1, 3226928, Note_on_c, 0, 62, 107
1, 3227244, Note_off_c, 0, 62, 107
1, 3227244, Note_on_c, 0, 63, 106
1, 3227668, Note_off_c, 0, 63, 106
1, 3227751, Note_on_c, 0, 65, 99
1, 3228055, Note_off_c, 0, 65, 99
1, 3228108, Note_on_c, 0, 61, 100
1, 3228502, Note_off_c, 0, 61, 100
1, 3228543, Note_on_c, 0, 63, 112
1, 3228925, Note_off_c, 0, 63, 112
1, 3228925, Note_on_c, 0, 64, 107
1, 3229343, Note_off_c, 0, 64, 107
1, 3229343, Note_on_c, 0, 66, 99
1, 3229671, Note_off_c, 0, 66, 99
1, 3229712, Note_on_c, 0, 63, 114
1, 3230142, Note_off_c, 0, 63, 114
1, 3230237, Note_on_c, 0, 61, 104
1, 3230517, Note_off_c, 0, 61, 104
1, 3230522, Note_on_c, 0, 59, 101
1, 3230838, Note_off_c, 0, 59, 101
1, 3230951, Note_on_c, 0, 58, 101
1, 3231339, Note_on_c, 0, 59, 103
1, 3231339, Note_off_c, 0, 58, 101
1, 3231679, Note_off_c, 0, 59, 103
1, 3231708, Note_on_c, 0, 61, 105
1, 3232066, Note_off_c, 0, 61, 105
1, 3232066, Note_on_c, 0, 63, 111
1, 3232579, Note_off_c, 0, 63, 111
1, 3232710, Note_on_c, 0, 64, 107
1, 3233044, Note_off_c, 0, 64, 107
1, 3233044, Note_on_c, 0, 66, 100
1, 3233336, Note_off_c, 0, 66, 100
1, 3233377, Note_on_c, 0, 66, 101
1, 3233615, Note_off_c, 0, 66, 101
1, 3233615, Note_on_c, 0, 68, 99
1, 3233889, Note_off_c, 0, 68, 99
1, 3233948, Note_on_c, 0, 70, 106
1, 3234342, Note_off_c, 0, 70, 106
1, 3234359, Note_on_c, 0, 66, 103
1, 3234866, Note_off_c, 0, 66, 103
1, 3234866, Note_on_c, 0, 61, 107
1, 3235284, Note_off_c, 0, 61, 107
1, 3235319, Note_on_c, 0, 59, 107
1, 3235713, Note_off_c, 0, 59, 107
1, 3235718, Note_on_c, 0, 58, 112
1, 3236052, Note_off_c, 0, 58, 112
1, 3236105, Note_on_c, 0, 57, 103
1, 3236463, Note_off_c, 0, 57, 103
1, 3236522, Note_on_c, 0, 56, 105
1, 3236910, Note_off_c, 0, 56, 105
1, 3236921, Note_on_c, 0, 55, 98
1, 3237243, Note_off_c, 0, 55, 98
1, 3237243, Note_on_c, 0, 58, 105
1, 3237410, Note_off_c, 0, 58, 105
1, 3237410, Note_on_c, 0, 59, 102
1, 3237625, Note_off_c, 0, 59, 102
1, 3237672, Note_on_c, 0, 57, 106
1, 3238042, Note_off_c, 0, 57, 106
1, 3238042, Note_on_c, 0, 62, 107
1, 3238424, Note_off_c, 0, 62, 107
1, 3238495, Note_on_c, 0, 65, 100
1, 3238943, Note_off_c, 0, 65, 100
1, 3239014, Note_on_c, 0, 70, 94
1, 3239169, Note_off_c, 0, 70, 94
1, 3239186, Note_on_c, 0, 74, 111
1, 3239783, Note_off_c, 0, 74, 111
1, 3239783, Note_on_c, 0, 61, 108
1, 3240296, Note_off_c, 0, 61, 108
1, 3242213, Note_on_c, 0, 69, 93
1, 3242404, Note_off_c, 0, 69, 93
1, 3242439, Note_on_c, 0, 72, 96
1, 3243705, Note_off_c, 0, 72, 96
1, 3244307, Note_on_c, 0, 69, 93
1, 3244491, Note_off_c, 0, 69, 93
1, 3244709, Note_on_c, 0, 83, 100
1, 3245095, Note_off_c, 0, 83, 100
1, 3245145, Note_on_c, 0, 72, 90
1, 3245287, Note_off_c, 0, 72, 90
1, 3248420, Note_on_c, 0, 74, 109
1, 3250620, Note_off_c, 0, 74, 109
1, 3250620, Note_on_c, 0, 69, 117
1, 3251023, Note_off_c, 0, 69, 117
1, 3251031, Note_on_c, 0, 68, 116
1, 3251451, Note_off_c, 0, 68, 116
1, 3251459, Note_on_c, 0, 65, 112
1, 3252378, Note_off_c, 0, 65, 112
1, 3254791, Note_on_c, 0, 68, 104
1, 3255137, Note_off_c, 0, 68, 104
1, 3255137, Note_on_c, 0, 69, 97
1, 3256791, Note_off_c, 0, 69, 97
1, 3257000, Note_on_c, 0, 67, 103
1, 3257185, Note_off_c, 0, 67, 103
1, 3257185, Note_on_c, 0, 65, 104
1, 3257680, Note_off_c, 0, 65, 104
1, 3258086, Note_on_c, 0, 67, 103
1, 3258522, Note_off_c, 0, 67, 103
1, 3258563, Note_on_c, 0, 71, 111
1, 3258933, Note_off_c, 0, 71, 111
1, 3258962, Note_on_c, 0, 69, 109
1, 3259308, Note_off_c, 0, 69, 109
1, 3259343, Note_on_c, 0, 66, 104
1, 3259689, Note_off_c, 0, 66, 104
1, 3259706, Note_on_c, 0, 65, 106
1, 3260070, Note_off_c, 0, 65, 106
1, 3260081, Note_on_c, 0, 64, 116
1, 3260487, Note_off_c, 0, 64, 116
1, 3260524, Note_on_c, 0, 63, 113
1, 3260952, Note_off_c, 0, 63, 113
1, 3260981, Note_on_c, 0, 66, 97
1, 3261506, Note_off_c, 0, 66, 97
1, 3261538, Note_on_c, 0, 70, 107
1, 3261617, Note_off_c, 0, 70, 107
1, 3261680, Note_on_c, 0, 70, 99
1, 3261797, Note_off_c, 0, 70, 99
1, 3261834, Note_on_c, 0, 71, 112
1, 3262178, Note_off_c, 0, 71, 112
1, 3262182, Note_on_c, 0, 68, 104
1, 3262509, Note_off_c, 0, 68, 104
1, 3262534, Note_on_c, 0, 66, 106
1, 3262870, Note_off_c, 0, 66, 106
1, 3262983, Note_on_c, 0, 65, 100
1, 3263394, Note_off_c, 0, 65, 100
1, 3263427, Note_on_c, 0, 67, 102
1, 3263704, Note_off_c, 0, 67, 102
1, 3263741, Note_on_c, 0, 63, 115
1, 3264165, Note_off_c, 0, 63, 115
1, 3264236, Note_on_c, 0, 62, 108
1, 3264458, Note_off_c, 0, 62, 108
1, 3264516, Note_on_c, 0, 61, 105
1, 3264873, Note_off_c, 0, 61, 105
1, 3264919, Note_on_c, 0, 60, 106
1, 3265149, Note_off_c, 0, 60, 106
1, 3265149, Note_on_c, 0, 61, 111
1, 3265888, Note_off_c, 0, 61, 111
1, 3268492, Note_on_c, 0, 64, 114
1, 3268983, Note_off_c, 0, 64, 114
1, 3269386, Note_on_c, 0, 66, 100
1, 3269562, Note_off_c, 0, 66, 100
1, 3269587, Note_on_c, 0, 67, 106
1, 3270216, Note_on_c, 0, 63, 116
1, 3270216, Note_off_c, 0, 67, 106
1, 3272884, Note_off_c, 0, 63, 116
1, 3272884, Note_on_c, 0, 61, 108
1, 3273224, Note_off_c, 0, 61, 108
1, 3273247, Note_on_c, 0, 64, 111
1, 3273575, Note_off_c, 0, 64, 111
1, 3273598, Note_on_c, 0, 60, 106
1, 3273872, Note_off_c, 0, 60, 106
1, 3273872, Note_on_c, 0, 63, 119
1, 3274218, Note_off_c, 0, 63, 119
1, 3274235, Note_on_c, 0, 68, 107
1, 3274581, Note_off_c, 0, 68, 107
1, 3274706, Note_on_c, 0, 72, 108
1, 3274891, Note_off_c, 0, 72, 108
1, 3274891, Note_on_c, 0, 71, 106
1, 3275106, Note_off_c, 0, 71, 106
1, 3275106, Note_on_c, 0, 64, 115
1, 3275536, Note_off_c, 0, 64, 115
1, 3275553, Note_on_c, 0, 66, 106
1, 3276138, Note_off_c, 0, 66, 106
1, 3278162, Note_on_c, 0, 68, 108
1, 3278538, Note_off_c, 0, 68, 108
1, 3278543, Note_on_c, 0, 69, 106
1, 3279612, Note_off_c, 0, 69, 106
1, 3279803, Note_on_c, 0, 65, 96
1, 3280065, Note_off_c, 0, 65, 96
1, 3280148, Note_on_c, 0, 69, 108
1, 3280739, Note_off_c, 0, 69, 108
1, 3280744, Note_on_c, 0, 74, 105
1, 3281180, Note_off_c, 0, 74, 105
1, 3281263, Note_on_c, 0, 71, 109
1, 3281764, Note_off_c, 0, 71, 109
1, 3282038, Note_on_c, 0, 71, 108
1, 3282468, Note_off_c, 0, 71, 108
1, 3282468, Note_on_c, 0, 67, 102
1, 3284702, Note_off_c, 0, 67, 102
1, 3284875, Note_on_c, 0, 65, 107
1, 3285293, Note_off_c, 0, 65, 107
1, 3285334, Note_on_c, 0, 67, 102
1, 3285734, Note_off_c, 0, 67, 102
1, 3285734, Note_on_c, 0, 69, 101
1, 3286086, Note_off_c, 0, 69, 101
1, 3286157, Note_on_c, 0, 65, 107
1, 3286467, Note_off_c, 0, 65, 107
1, 3286478, Note_on_c, 0, 62, 107
1, 3286890, Note_off_c, 0, 62, 107
1, 3286901, Note_on_c, 0, 65, 105
1, 3287277, Note_off_c, 0, 65, 105
1, 3287277, Note_on_c, 0, 62, 112
1, 3288089, Note_off_c, 0, 62, 112
1, 3288089, Note_on_c, 0, 59, 102
1, 3289307, Note_off_c, 0, 59, 102
1, 3289372, Note_on_c, 0, 55, 95
1, 3289664, Note_off_c, 0, 55, 95
1, 3289711, Note_on_c, 0, 57, 100
1, 3290039, Note_off_c, 0, 57, 100
1, 3290080, Note_on_c, 0, 53, 107
1, 3290426, Note_off_c, 0, 53, 107
1, 3290426, Note_on_c, 0, 50, 105
1, 3290641, Note_off_c, 0, 50, 105
1, 3290641, Note_on_c, 0, 53, 103
1, 3291286, Note_off_c, 0, 53, 103
1, 3294071, Note_on_c, 0, 54, 101
1, 3295843, Note_off_c, 0, 54, 101
1, 3295902, Note_on_c, 0, 51, 102
1, 3296206, Note_on_c, 0, 56, 99
1, 3296206, Note_off_c, 0, 51, 102
1, 3296564, Note_off_c, 0, 56, 99
1, 3296611, Note_on_c, 0, 58, 100
1, 3296903, Note_off_c, 0, 58, 100
1, 3296914, Note_on_c, 0, 60, 100
1, 3297260, Note_off_c, 0, 60, 100
1, 3297260, Note_on_c, 0, 63, 110
1, 3297492, Note_off_c, 0, 63, 110
1, 3297492, Note_on_c, 0, 65, 105
1, 3298077, Note_off_c, 0, 65, 105
1, 3300944, Note_on_c, 0, 47, 108
1, 3301616, Note_off_c, 0, 47, 108
1, 3301660, Note_on_c, 0, 56, 96
1, 3302046, Note_off_c, 0, 56, 96
1, 3302143, Note_on_c, 0, 65, 97
1, 3302435, Note_off_c, 0, 65, 97
1, 3302620, Note_on_c, 0, 62, 101
1, 3302900, Note_off_c, 0, 62, 101
1, 3302935, Note_on_c, 0, 63, 102
1, 3303197, Note_off_c, 0, 63, 102
1, 3303232, Note_on_c, 0, 66, 103
1, 3303405, Note_off_c, 0, 66, 103
1, 3303422, Note_on_c, 0, 67, 104
1, 3303708, Note_off_c, 0, 67, 104
1, 3303749, Note_on_c, 0, 70, 101
1, 3303940, Note_off_c, 0, 70, 101
1, 3303945, Note_on_c, 0, 69, 105
1, 3304088, Note_off_c, 0, 69, 105
1, 3304099, Note_on_c, 0, 67, 110
1, 3304535, Note_on_c, 0, 62, 106
1, 3304535, Note_off_c, 0, 67, 110
1, 3304922, Note_off_c, 0, 62, 106
1, 3304922, Note_on_c, 0, 65, 102
1, 3305148, Note_off_c, 0, 65, 102
1, 3305164, Note_on_c, 0, 68, 100
1, 3305516, Note_off_c, 0, 68, 100
1, 3305516, Note_on_c, 0, 70, 100
1, 3305751, Note_off_c, 0, 70, 100
1, 3305751, Note_on_c, 0, 72, 106
1, 3306154, Note_off_c, 0, 72, 106
1, 3306162, Note_on_c, 0, 73, 103
1, 3306573, Note_off_c, 0, 73, 103
1, 3306573, Note_on_c, 0, 68, 94
1, 3306808, Note_off_c, 0, 68, 94
1, 3306925, Note_on_c, 0, 71, 95
1, 3307244, Note_off_c, 0, 71, 95
1, 3307336, Note_on_c, 0, 68, 104
1, 3307700, Note_off_c, 0, 68, 104
1, 3307746, Note_on_c, 0, 66, 115
1, 3307930, Note_off_c, 0, 66, 115
1, 3307938, Note_on_c, 0, 63, 112
1, 3308080, Note_off_c, 0, 63, 112
1, 3308127, Note_on_c, 0, 60, 102
1, 3308790, Note_off_c, 0, 60, 102
1, 3310540, Note_on_c, 0, 63, 107
1, 3310963, Note_off_c, 0, 63, 107
1, 3310963, Note_on_c, 0, 66, 99
1, 3311593, Note_off_c, 0, 66, 99
1, 3311667, Note_on_c, 0, 75, 86
1, 3311810, Note_off_c, 0, 75, 86
1, 3311839, Note_on_c, 0, 75, 104
1, 3312149, Note_off_c, 0, 75, 104
1, 3312184, Note_on_c, 0, 68, 101
1, 3313408, Note_off_c, 0, 68, 101
1, 3313485, Note_on_c, 0, 72, 98
1, 3313664, Note_off_c, 0, 72, 98
1, 3313664, Note_on_c, 0, 70, 95
1, 3317080, Note_off_c, 0, 70, 95
1, 3317127, Note_on_c, 0, 65, 102
1, 3317473, Note_off_c, 0, 65, 102
1, 3317496, Note_on_c, 0, 70, 97
1, 3317902, Note_off_c, 0, 70, 97
1, 3317902, Note_on_c, 0, 68, 101
1, 3318268, Note_off_c, 0, 68, 101
1, 3318268, Note_on_c, 0, 65, 104
1, 3318688, Note_off_c, 0, 65, 104
1, 3318822, Note_on_c, 0, 61, 99
1, 3319099, Note_off_c, 0, 61, 99
1, 3319157, Note_on_c, 0, 68, 103
1, 3319467, Note_off_c, 0, 68, 103
1, 3319483, Note_on_c, 0, 65, 104
1, 3319852, Note_off_c, 0, 65, 104
1, 3319902, Note_on_c, 0, 63, 106
1, 3320406, Note_off_c, 0, 63, 106
1, 3320473, Note_on_c, 0, 58, 97
1, 3320842, Note_off_c, 0, 58, 97
1, 3322902, Note_on_c, 0, 65, 105
1, 3323248, Note_off_c, 0, 65, 105
1, 3323248, Note_on_c, 0, 69, 97
1, 3323570, Note_off_c, 0, 69, 97
1, 3323629, Note_on_c, 0, 72, 109
1, 3323879, Note_off_c, 0, 72, 109
1, 3323879, Note_on_c, 0, 74, 104
1, 3326363, Note_off_c, 0, 74, 104
1, 3326470, Note_on_c, 0, 72, 95
1, 3326852, Note_off_c, 0, 72, 95
1, 3326875, Note_on_c, 0, 69, 107
1, 3327233, Note_off_c, 0, 69, 107
1, 3327233, Note_on_c, 0, 73, 106
1, 3327591, Note_off_c, 0, 73, 106
1, 3327591, Note_on_c, 0, 71, 113
1, 3329347, Note_off_c, 0, 71, 113
1, 3329370, Note_on_c, 0, 69, 110
1, 3329740, Note_off_c, 0, 69, 110
1, 3329787, Note_on_c, 0, 71, 114
1, 3330145, Note_off_c, 0, 71, 114
1, 3330145, Note_on_c, 0, 69, 111
1, 3331686, Note_off_c, 0, 69, 111
1, 3331870, Note_on_c, 0, 64, 116
1, 3332256, Note_off_c, 0, 64, 116
1, 3332289, Note_on_c, 0, 66, 107
1, 3332524, Note_off_c, 0, 66, 107
1, 3332524, Note_on_c, 0, 69, 105
1, 3332960, Note_off_c, 0, 69, 105
1, 3332960, Note_on_c, 0, 71, 105
1, 3333329, Note_off_c, 0, 71, 105
1, 3333337, Note_on_c, 0, 64, 117
1, 3333779, Note_off_c, 0, 64, 117
1, 3333779, Note_on_c, 0, 61, 109
1, 3334149, Note_off_c, 0, 61, 109
1, 3334154, Note_on_c, 0, 59, 102
1, 3334607, Note_off_c, 0, 59, 102
1, 3336530, Note_on_c, 0, 66, 101
1, 3336709, Note_off_c, 0, 66, 101
1, 3336744, Note_on_c, 0, 68, 102
1, 3337610, Note_off_c, 0, 68, 102
1, 3337651, Note_on_c, 0, 71, 104
1, 3337812, Note_off_c, 0, 71, 104
1, 3337901, Note_on_c, 0, 71, 113
1, 3338205, Note_off_c, 0, 71, 113
1, 3338234, Note_on_c, 0, 70, 107
1, 3338550, Note_off_c, 0, 70, 107
1, 3338550, Note_on_c, 0, 66, 112
1, 3338675, Note_off_c, 0, 66, 112
1, 3338675, Note_on_c, 0, 65, 110
1, 3338848, Note_off_c, 0, 65, 110
1, 3338853, Note_on_c, 0, 63, 113
1, 3339414, Note_off_c, 0, 63, 113
1, 3339414, Note_on_c, 0, 67, 108
1, 3339766, Note_off_c, 0, 67, 108
1, 3339783, Note_on_c, 0, 65, 105
1, 3340159, Note_off_c, 0, 65, 105
1, 3340176, Note_on_c, 0, 62, 109
1, 3340564, Note_off_c, 0, 62, 109
1, 3340689, Note_on_c, 0, 68, 100
1, 3340945, Note_off_c, 0, 68, 100
1, 3341010, Note_on_c, 0, 65, 98
1, 3341260, Note_off_c, 0, 65, 98
1, 3341313, Note_on_c, 0, 61, 114
1, 3341575, Note_on_c, 0, 62, 111
1, 3341575, Note_off_c, 0, 61, 114
1, 3342249, Note_off_c, 0, 62, 111
1, 3342249, Note_on_c, 0, 64, 107
1, 3342726, Note_off_c, 0, 64, 107
1, 3342726, Note_on_c, 0, 62, 104
1, 3343066, Note_off_c, 0, 62, 104
1, 3343107, Note_on_c, 0, 65, 104
1, 3343967, Note_off_c, 0, 65, 104
1, 3345764, Note_on_c, 0, 66, 111
1, 3346032, Note_off_c, 0, 66, 111
1, 3346032, Note_on_c, 0, 67, 106
1, 3347387, Note_off_c, 0, 67, 106
1, 3347416, Note_on_c, 0, 65, 109
1, 3347696, Note_off_c, 0, 65, 109
1, 3347784, Note_on_c, 0, 62, 109
1, 3349615, Note_off_c, 0, 62, 109
1, 3349732, Note_on_c, 0, 62, 95
1, 3352924, Note_off_c, 0, 62, 95
1, 3352940, Note_on_c, 0, 64, 93
1, 3353360, Note_off_c, 0, 64, 93
1, 3353360, Note_on_c, 0, 67, 85
1, 3353771, Note_off_c, 0, 67, 85
1, 3353779, Note_on_c, 0, 65, 83
1, 3354089, Note_off_c, 0, 65, 83
1, 3354089, Note_on_c, 0, 62, 81
1, 3355113, Note_off_c, 0, 62, 81
1, 3355113, End_track
0, 0, End_of_file
