0, 0, Header, 1, 1, 192
1, 0, Start_track
1, 0, Title_t, "Melody"
1, 0, Tempo, 324324
1, 0, Key_signature, -3, "major"
1, 0, Time_signature, 4, 2, 24, 8
1, 2762, Note_on_c, 0, 70, 119
1, 2870, Note_off_c, 0, 70, 119
1, 2873, Note_on_c, 0, 68, 114
1, 2931, Note_off_c, 0, 68, 114
1, 2987, Note_on_c, 0, 70, 119
1, 3344, Note_off_c, 0, 70, 119
1, 3388, Note_on_c, 0, 63, 112
1, 3439, Note_off_c, 0, 63, 112
1, 3442, Note_on_c, 0, 67, 118
1, 3612, Note_off_c, 0, 67, 118
1, 3619, Note_on_c, 0, 68, 118
1, 3708, Note_off_c, 0, 68, 118
1, 3740, Note_on_c, 0, 70, 119
1, 4130, Note_off_c, 0, 70, 119
1, 4142, Note_on_c, 0, 63, 117
1, 4179, Note_off_c, 0, 63, 117
1, 4188, Note_on_c, 0, 66, 120
1, 4316, Note_off_c, 0, 66, 120
1, 4317, Note_on_c, 0, 63, 110
1, 4406, Note_off_c, 0, 63, 110
1, 4410, Note_on_c, 0, 68, 114
1, 4443, Note_off_c, 0, 68, 114
1, 4444, Note_on_c, 0, 66, 109
1, 4505, Note_off_c, 0, 66, 109
1, 4521, Note_on_c, 0, 70, 122
1, 4655, Note_off_c, 0, 70, 122
1, 4669, Note_on_c, 0, 63, 119
1, 4761, Note_off_c, 0, 63, 119
1, 5069, Note_on_c, 0, 63, 122
1, 5149, Note_off_c, 0, 63, 122
1, 5153, Note_on_c, 0, 67, 114
1, 5210, Note_off_c, 0, 67, 114
1, 5213, Note_on_c, 0, 68, 119
1, 5270, Note_off_c, 0, 68, 119
1, 5273, Note_on_c, 0, 67, 118
1, 5327, Note_off_c, 0, 67, 118
1, 5339, Note_on_c, 0, 70, 121
1, 5454, Note_off_c, 0, 70, 121
1, 5513, Note_on_c, 0, 70, 118
1, 5664, Note_off_c, 0, 70, 118
1, 5670, Note_on_c, 0, 68, 112
1, 5749, Note_off_c, 0, 68, 112
1, 5757, Note_on_c, 0, 67, 114
1, 5826, Note_off_c, 0, 67, 114
1, 5829, Note_on_c, 0, 63, 121
1, 5885, Note_off_c, 0, 63, 121
1, 5892, Note_on_c, 0, 67, 111
1, 5935, Note_off_c, 0, 67, 111
1, 5950, Note_on_c, 0, 65, 114
1, 6008, Note_off_c, 0, 65, 114
1, 6008, Note_on_c, 0, 61, 113
1, 6064, Note_off_c, 0, 61, 113
1, 6067, Note_on_c, 0, 65, 118
1, 6121, Note_off_c, 0, 65, 118
1, 6125, Note_on_c, 0, 63, 119
1, 6437, Note_off_c, 0, 63, 119
1, 6471, Note_on_c, 0, 63, 127
1, 6523, Note_off_c, 0, 63, 127
1, 6586, Note_on_c, 0, 68, 116
1, 6650, Note_off_c, 0, 68, 116
1, 6658, Note_on_c, 0, 70, 119
1, 6724, Note_off_c, 0, 70, 119
1, 6772, Note_on_c, 0, 72, 119
1, 7152, Note_off_c, 0, 72, 119
1, 7168, Note_on_c, 0, 68, 100
1, 7220, Note_off_c, 0, 68, 100
1, 7235, Note_on_c, 0, 73, 118
1, 7295, Note_off_c, 0, 73, 118
1, 7304, Note_on_c, 0, 72, 117
1, 7370, Note_off_c, 0, 72, 117
1, 7379, Note_on_c, 0, 68, 107
1, 7416, Note_off_c, 0, 68, 107
1, 7421, Note_on_c, 0, 72, 120
1, 7483, Note_off_c, 0, 72, 120
1, 7488, Note_on_c, 0, 68, 110
1, 7563, Note_off_c, 0, 68, 110
1, 7569, Note_on_c, 0, 63, 116
1, 7638, Note_off_c, 0, 63, 116
1, 7638, Note_on_c, 0, 68, 113
1, 7681, Note_off_c, 0, 68, 113
1, 7684, Note_on_c, 0, 66, 115
1, 7822, Note_off_c, 0, 66, 115
1, 7828, Note_on_c, 0, 63, 119
1, 7925, Note_off_c, 0, 63, 119
1, 8228, Note_on_c, 0, 63, 120
1, 8276, Note_off_c, 0, 63, 120
1, 8297, Note_on_c, 0, 67, 111
1, 8354, Note_off_c, 0, 67, 111
1, 8362, Note_on_c, 0, 63, 111
1, 8422, Note_off_c, 0, 63, 111
1, 8431, Note_on_c, 0, 67, 117
1, 8490, Note_off_c, 0, 67, 117
1, 8492, Note_on_c, 0, 68, 114
1, 8544, Note_off_c, 0, 68, 114
1, 8548, Note_on_c, 0, 67, 103
1, 8596, Note_off_c, 0, 67, 103
1, 8599, Note_on_c, 0, 68, 117
1, 8684, Note_off_c, 0, 68, 117
1, 8687, Note_on_c, 0, 70, 122
1, 8800, Note_off_c, 0, 70, 122
1, 8804, Note_on_c, 0, 67, 122
1, 8883, Note_off_c, 0, 67, 122
1, 8886, Note_on_c, 0, 63, 121
1, 9016, Note_off_c, 0, 63, 121
1, 9027, Note_on_c, 0, 65, 102
1, 9071, Note_off_c, 0, 65, 102
1, 9098, Note_on_c, 0, 67, 101
1, 9172, Note_off_c, 0, 67, 101
1, 9195, Note_on_c, 0, 70, 114
1, 9258, Note_off_c, 0, 70, 114
1, 9263, Note_on_c, 0, 75, 115
1, 9367, Note_off_c, 0, 75, 115
1, 9418, Note_on_c, 0, 82, 117
1, 9460, Note_off_c, 0, 82, 117
1, 9477, Note_on_c, 0, 70, 120
1, 9575, Note_off_c, 0, 70, 120
1, 9605, Note_on_c, 0, 74, 115
1, 9665, Note_off_c, 0, 74, 115
1, 9675, Note_on_c, 0, 72, 121
1, 9858, Note_off_c, 0, 72, 121
1, 9868, Note_on_c, 0, 68, 115
1, 9959, Note_off_c, 0, 68, 115
1, 9967, Note_on_c, 0, 67, 117
1, 10060, Note_off_c, 0, 67, 117
1, 10062, Note_on_c, 0, 65, 113
1, 10155, Note_off_c, 0, 65, 113
1, 10172, Note_on_c, 0, 67, 114
1, 10252, Note_off_c, 0, 67, 114
1, 10252, Note_on_c, 0, 68, 109
1, 10349, Note_off_c, 0, 68, 109
1, 10359, Note_on_c, 0, 70, 115
1, 10439, Note_off_c, 0, 70, 115
1, 10452, Note_on_c, 0, 68, 110
1, 10543, Note_off_c, 0, 68, 110
1, 10546, Note_on_c, 0, 66, 116
1, 10611, Note_off_c, 0, 66, 116
1, 10616, Note_on_c, 0, 63, 118
1, 10753, Note_off_c, 0, 63, 118
1, 10815, Note_on_c, 0, 66, 110
1, 11108, Note_off_c, 0, 66, 110
1, 11114, Note_on_c, 0, 63, 122
1, 11226, Note_off_c, 0, 63, 122
1, 11229, Note_on_c, 0, 58, 103
1, 11297, Note_off_c, 0, 58, 103
1, 11309, Note_on_c, 0, 56, 100
1, 11583, Note_off_c, 0, 56, 100
1, 12101, Note_on_c, 0, 70, 112
1, 12143, Note_off_c, 0, 70, 112
1, 12148, Note_on_c, 0, 72, 121
1, 12567, Note_off_c, 0, 72, 121
1, 12597, Note_on_c, 0, 72, 119
1, 12695, Note_off_c, 0, 72, 119
1, 12761, Note_on_c, 0, 72, 120
1, 12789, Note_off_c, 0, 72, 120
1, 12801, Note_on_c, 0, 71, 117
1, 12825, Note_off_c, 0, 71, 117
1, 12829, Note_on_c, 0, 70, 115
1, 13237, Note_off_c, 0, 70, 115
1, 13246, Note_on_c, 0, 63, 105
1, 13325, Note_off_c, 0, 63, 105
1, 13335, Note_on_c, 0, 70, 115
1, 13410, Note_off_c, 0, 70, 115
1, 13463, Note_on_c, 0, 77, 95
1, 13554, Note_off_c, 0, 77, 95
1, 13576, Note_on_c, 0, 77, 102
1, 13685, Note_off_c, 0, 77, 102
1, 13695, Note_on_c, 0, 78, 91
1, 13754, Note_off_c, 0, 78, 91
1, 13754, Note_on_c, 0, 79, 107
1, 13786, Note_off_c, 0, 79, 107
1, 13796, Note_on_c, 0, 80, 102
1, 13853, Note_off_c, 0, 80, 102
1, 13874, Note_on_c, 0, 72, 112
1, 13959, Note_off_c, 0, 72, 112
1, 13963, Note_on_c, 0, 68, 114
1, 14047, Note_off_c, 0, 68, 114
1, 14049, Note_on_c, 0, 66, 115
1, 14151, Note_off_c, 0, 66, 115
1, 14770, Note_on_c, 0, 76, 119
1, 14798, Note_off_c, 0, 76, 119
1, 14802, Note_on_c, 0, 77, 110
1, 14948, Note_off_c, 0, 77, 110
1, 14981, Note_on_c, 0, 75, 114
1, 15051, Note_off_c, 0, 75, 114
1, 15054, Note_on_c, 0, 73, 114
1, 15154, Note_off_c, 0, 73, 114
1, 15164, Note_on_c, 0, 73, 111
1, 15234, Note_off_c, 0, 73, 111
1, 15245, Note_on_c, 0, 72, 114
1, 15338, Note_off_c, 0, 72, 114
1, 15378, Note_on_c, 0, 75, 108
1, 15454, Note_off_c, 0, 75, 108
1, 15467, Note_on_c, 0, 70, 117
1, 15536, Note_off_c, 0, 70, 117
1, 15551, Note_on_c, 0, 66, 121
1, 15599, Note_off_c, 0, 66, 121
1, 15603, Note_on_c, 0, 63, 120
1, 15676, Note_off_c, 0, 63, 120
1, 15758, Note_on_c, 0, 72, 113
1, 15779, Note_off_c, 0, 72, 113
1, 15780, Note_on_c, 0, 74, 111
1, 15858, Note_off_c, 0, 74, 111
1, 15870, Note_on_c, 0, 72, 115
1, 16008, Note_off_c, 0, 72, 115
1, 16014, Note_on_c, 0, 70, 114
1, 16102, Note_off_c, 0, 70, 114
1, 16131, Note_on_c, 0, 69, 111
1, 16239, Note_off_c, 0, 69, 111
1, 16253, Note_on_c, 0, 68, 113
1, 16304, Note_off_c, 0, 68, 113
1, 16317, Note_on_c, 0, 68, 115
1, 16332, Note_off_c, 0, 68, 115
1, 16335, Note_on_c, 0, 67, 115
1, 16380, Note_off_c, 0, 67, 115
1, 16384, Note_on_c, 0, 66, 114
1, 16478, Note_off_c, 0, 66, 114
1, 16504, Note_on_c, 0, 73, 115
1, 16598, Note_off_c, 0, 73, 115
1, 16604, Note_on_c, 0, 68, 114
1, 16661, Note_off_c, 0, 68, 114
1, 16667, Note_on_c, 0, 66, 116
1, 16747, Note_off_c, 0, 66, 116
1, 16750, Note_on_c, 0, 63, 119
1, 16902, Note_off_c, 0, 63, 119
1, 16913, Note_on_c, 0, 58, 94
1, 16939, Note_off_c, 0, 58, 94
1, 16949, Note_on_c, 0, 65, 115
1, 16984, Note_off_c, 0, 65, 115
1, 16990, Note_on_c, 0, 66, 111
1, 17145, Note_off_c, 0, 66, 111
1, 17153, Note_on_c, 0, 65, 113
1, 17191, Note_off_c, 0, 65, 113
1, 17197, Note_on_c, 0, 66, 112
1, 17279, Note_off_c, 0, 66, 112
1, 17282, Note_on_c, 0, 63, 114
1, 17715, Note_off_c, 0, 63, 114
1, 17731, Note_on_c, 0, 58, 107
1, 17862, Note_off_c, 0, 58, 107
1, 17878, Note_on_c, 0, 55, 104
1, 18062, Note_off_c, 0, 55, 104
1, 18648, Note_on_c, 0, 56, 119
1, 18739, Note_off_c, 0, 56, 119
1, 18745, Note_on_c, 0, 55, 112
1, 18831, Note_off_c, 0, 55, 112
1, 18837, Note_on_c, 0, 54, 110
1, 18934, Note_off_c, 0, 54, 110
1, 18937, Note_on_c, 0, 53, 122
1, 19021, Note_off_c, 0, 53, 122
1, 19026, Note_on_c, 0, 52, 113
1, 19098, Note_off_c, 0, 52, 113
1, 19105, Note_on_c, 0, 51, 110
1, 19212, Note_off_c, 0, 51, 110
1, 19220, Note_on_c, 0, 53, 112
1, 19311, Note_off_c, 0, 53, 112
1, 19323, Note_on_c, 0, 50, 109
1, 19408, Note_off_c, 0, 50, 109
1, 19433, Note_on_c, 0, 53, 105
1, 19481, Note_off_c, 0, 53, 105
1, 19486, Note_on_c, 0, 58, 109
1, 19592, Note_off_c, 0, 58, 109
1, 19607, Note_on_c, 0, 62, 116
1, 19687, Note_off_c, 0, 62, 116
1, 19698, Note_on_c, 0, 60, 108
1, 19786, Note_off_c, 0, 60, 108
1, 19817, Note_on_c, 0, 63, 121
1, 19871, Note_off_c, 0, 63, 121
1, 19878, Note_on_c, 0, 68, 115
1, 19988, Note_off_c, 0, 68, 115
1, 20012, Note_on_c, 0, 72, 102
1, 20054, Note_off_c, 0, 72, 102
1, 20094, Note_on_c, 0, 75, 112
1, 20174, Note_off_c, 0, 75, 112
1, 20174, Note_on_c, 0, 70, 120
1, 20325, Note_off_c, 0, 70, 120
1, 20940, Note_on_c, 0, 70, 121
1, 21020, Note_off_c, 0, 70, 121
1, 21104, Note_on_c, 0, 75, 107
1, 21158, Note_off_c, 0, 75, 107
1, 21167, Note_on_c, 0, 73, 103
1, 21261, Note_off_c, 0, 73, 103
1, 21294, Note_on_c, 0, 75, 110
1, 21385, Note_off_c, 0, 75, 110
1, 21393, Note_on_c, 0, 73, 113
1, 21481, Note_off_c, 0, 73, 113
1, 21529, Note_on_c, 0, 74, 90
1, 21654, Note_off_c, 0, 74, 90
1, 21661, Note_on_c, 0, 75, 106
1, 21766, Note_off_c, 0, 75, 106
1, 21774, Note_on_c, 0, 73, 112
1, 21864, Note_off_c, 0, 73, 112
1, 21907, Note_on_c, 0, 75, 105
1, 21959, Note_off_c, 0, 75, 105
1, 21963, Note_on_c, 0, 73, 116
1, 22085, Note_off_c, 0, 73, 116
1, 22099, Note_on_c, 0, 72, 104
1, 22156, Note_off_c, 0, 72, 104
1, 22174, Note_on_c, 0, 72, 115
1, 22269, Note_off_c, 0, 72, 115
1, 22290, Note_on_c, 0, 73, 114
1, 22350, Note_off_c, 0, 73, 114
1, 22356, Note_on_c, 0, 70, 116
1, 22465, Note_off_c, 0, 70, 116
1, 22473, Note_on_c, 0, 69, 115
1, 22491, Note_off_c, 0, 69, 115
1, 22500, Note_on_c, 0, 63, 120
1, 22594, Note_off_c, 0, 63, 120
1, 22660, Note_on_c, 0, 70, 118
1, 22754, Note_off_c, 0, 70, 118
1, 22760, Note_on_c, 0, 68, 113
1, 22834, Note_off_c, 0, 68, 113
1, 22839, Note_on_c, 0, 66, 118
1, 22906, Note_off_c, 0, 66, 118
1, 22915, Note_on_c, 0, 63, 120
1, 23039, Note_off_c, 0, 63, 120
1, 23062, Note_on_c, 0, 58, 97
1, 23087, Note_off_c, 0, 58, 97
1, 23095, Note_on_c, 0, 66, 115
1, 23215, Note_off_c, 0, 66, 115
1, 23223, Note_on_c, 0, 63, 120
1, 23334, Note_off_c, 0, 63, 120
1, 23401, Note_on_c, 0, 68, 116
1, 23461, Note_off_c, 0, 68, 116
1, 23465, Note_on_c, 0, 67, 112
1, 23589, Note_off_c, 0, 67, 112
1, 23601, Note_on_c, 0, 63, 118
1, 23670, Note_off_c, 0, 63, 118
1, 23673, Note_on_c, 0, 61, 115
1, 23791, Note_off_c, 0, 61, 115
1, 23809, Note_on_c, 0, 58, 89
1, 23843, Note_off_c, 0, 58, 89
1, 23857, Note_on_c, 0, 64, 113
1, 24026, Note_off_c, 0, 64, 113
1, 24043, Note_on_c, 0, 66, 111
1, 24177, Note_off_c, 0, 66, 111
1, 24180, Note_on_c, 0, 61, 117
1, 24436, Note_off_c, 0, 61, 117
1, 24442, Note_on_c, 0, 59, 104
1, 24576, Note_off_c, 0, 59, 104
1, 24582, Note_on_c, 0, 55, 103
1, 24685, Note_off_c, 0, 55, 103
1, 25130, Note_on_c, 0, 63, 118
1, 25209, Note_off_c, 0, 63, 118
1, 25219, Note_on_c, 0, 68, 111
1, 25339, Note_off_c, 0, 68, 111
1, 25339, Note_on_c, 0, 70, 104
1, 25385, Note_off_c, 0, 70, 104
1, 25389, Note_on_c, 0, 72, 120
1, 25497, Note_off_c, 0, 72, 120
1, 25505, Note_on_c, 0, 70, 108
1, 25580, Note_off_c, 0, 70, 108
1, 25588, Note_on_c, 0, 72, 117
1, 25691, Note_off_c, 0, 72, 117
1, 25697, Note_on_c, 0, 71, 115
1, 25742, Note_off_c, 0, 71, 115
1, 25745, Note_on_c, 0, 72, 118
1, 26093, Note_off_c, 0, 72, 118
1, 26101, Note_on_c, 0, 70, 117
1, 26177, Note_off_c, 0, 70, 117
1, 26185, Note_on_c, 0, 68, 115
1, 26280, Note_off_c, 0, 68, 115
1, 26287, Note_on_c, 0, 63, 120
1, 26396, Note_off_c, 0, 63, 120
1, 26867, Note_on_c, 0, 67, 117
1, 26944, Note_off_c, 0, 67, 117
1, 26956, Note_on_c, 0, 67, 114
1, 27031, Note_off_c, 0, 67, 114
1, 27047, Note_on_c, 0, 63, 117
1, 27126, Note_off_c, 0, 63, 117
1, 27135, Note_on_c, 0, 61, 115
1, 27228, Note_off_c, 0, 61, 115
1, 27253, Note_on_c, 0, 58, 92
1, 27300, Note_off_c, 0, 58, 92
1, 27310, Note_on_c, 0, 62, 117
1, 27401, Note_off_c, 0, 62, 117
1, 27412, Note_on_c, 0, 61, 116
1, 27470, Note_off_c, 0, 61, 116
1, 27480, Note_on_c, 0, 56, 107
1, 27620, Note_off_c, 0, 56, 107
1, 27626, Note_on_c, 0, 52, 89
1, 27666, Note_off_c, 0, 52, 89
1, 27672, Note_on_c, 0, 57, 107
1, 27964, Note_off_c, 0, 57, 107
1, 28074, Note_on_c, 0, 58, 112
1, 28171, Note_off_c, 0, 58, 112
1, 28187, Note_on_c, 0, 60, 115
1, 28247, Note_off_c, 0, 60, 115
1, 28258, Note_on_c, 0, 62, 114
1, 28355, Note_off_c, 0, 62, 114
1, 28355, Note_on_c, 0, 64, 112
1, 28478, Note_off_c, 0, 64, 112
1, 28482, Note_on_c, 0, 65, 113
1, 28571, Note_off_c, 0, 65, 113
1, 28575, Note_on_c, 0, 67, 113
1, 28651, Note_off_c, 0, 67, 113
1, 28656, Note_on_c, 0, 68, 115
1, 28736, Note_off_c, 0, 68, 115
1, 28766, Note_on_c, 0, 70, 119
1, 28820, Note_off_c, 0, 70, 119
1, 28824, Note_on_c, 0, 67, 114
1, 28917, Note_off_c, 0, 67, 114
1, 28941, Note_on_c, 0, 63, 120
1, 29008, Note_off_c, 0, 63, 120
1, 29017, Note_on_c, 0, 60, 113
1, 29130, Note_off_c, 0, 60, 113
1, 29139, Note_on_c, 0, 58, 86
1, 29178, Note_off_c, 0, 58, 86
1, 29185, Note_on_c, 0, 65, 112
1, 29536, Note_off_c, 0, 65, 112
1, 29545, Note_on_c, 0, 63, 106
1, 29584, Note_off_c, 0, 63, 106
1, 29588, Note_on_c, 0, 65, 105
1, 29619, Note_off_c, 0, 65, 105
1, 29624, Note_on_c, 0, 67, 108
1, 29696, Note_off_c, 0, 67, 108
1, 29698, Note_on_c, 0, 63, 119
1, 29811, Note_off_c, 0, 63, 119
1, 29817, Note_on_c, 0, 63, 118
1, 29928, Note_off_c, 0, 63, 118
1, 29935, Note_on_c, 0, 63, 116
1, 30089, Note_off_c, 0, 63, 116
1, 30096, Note_on_c, 0, 62, 107
1, 30124, Note_off_c, 0, 62, 107
1, 30131, Note_on_c, 0, 61, 100
1, 30166, Note_off_c, 0, 61, 100
1, 30826, Note_on_c, 0, 63, 120
1, 31012, Note_off_c, 0, 63, 120
1, 31021, Note_on_c, 0, 61, 116
1, 31105, Note_off_c, 0, 61, 116
1, 31112, Note_on_c, 0, 58, 105
1, 31198, Note_off_c, 0, 58, 105
1, 31206, Note_on_c, 0, 61, 116
1, 31282, Note_off_c, 0, 61, 116
1, 31328, Note_on_c, 0, 65, 94
1, 31371, Note_off_c, 0, 65, 94
1, 31378, Note_on_c, 0, 67, 102
1, 31452, Note_off_c, 0, 67, 102
1, 31471, Note_on_c, 0, 72, 118
1, 31574, Note_off_c, 0, 72, 118
1, 31584, Note_on_c, 0, 70, 112
1, 31639, Note_off_c, 0, 70, 112
1, 31645, Note_on_c, 0, 72, 120
1, 32134, Note_off_c, 0, 72, 120
1, 32148, Note_on_c, 0, 70, 115
1, 32229, Note_off_c, 0, 70, 115
1, 32241, Note_on_c, 0, 68, 111
1, 32338, Note_off_c, 0, 68, 111
1, 32345, Note_on_c, 0, 63, 116
1, 32459, Note_off_c, 0, 63, 116
1, 32907, Note_on_c, 0, 71, 116
1, 32955, Note_off_c, 0, 71, 116
1, 32960, Note_on_c, 0, 72, 119
1, 33167, Note_off_c, 0, 72, 119
1, 33176, Note_on_c, 0, 70, 115
1, 33266, Note_off_c, 0, 70, 115
1, 33297, Note_on_c, 0, 68, 114
1, 33354, Note_off_c, 0, 68, 114
1, 33357, Note_on_c, 0, 67, 113
1, 33452, Note_off_c, 0, 67, 113
1, 33466, Note_on_c, 0, 63, 115
1, 33517, Note_off_c, 0, 63, 115
1, 33528, Note_on_c, 0, 61, 116
1, 33661, Note_off_c, 0, 61, 116
1, 33676, Note_on_c, 0, 58, 96
1, 33717, Note_off_c, 0, 58, 96
1, 33720, Note_on_c, 0, 63, 120
1, 33793, Note_off_c, 0, 63, 120
1, 33801, Note_on_c, 0, 70, 79
1, 33831, Note_off_c, 0, 70, 79
1, 33856, Note_on_c, 0, 77, 105
1, 33954, Note_off_c, 0, 77, 105
1, 33961, Note_on_c, 0, 75, 116
1, 34072, Note_off_c, 0, 75, 116
1, 34415, Note_on_c, 0, 77, 98
1, 34456, Note_off_c, 0, 77, 98
1, 34470, Note_on_c, 0, 81, 102
1, 34509, Note_off_c, 0, 81, 102
1, 34509, Note_on_c, 0, 80, 113
1, 34562, Note_off_c, 0, 80, 113
1, 34572, Note_on_c, 0, 74, 104
1, 34637, Note_off_c, 0, 74, 104
1, 34643, Note_on_c, 0, 68, 111
1, 34769, Note_off_c, 0, 68, 111
1, 35163, Note_on_c, 0, 73, 113
1, 35240, Note_off_c, 0, 73, 113
1, 35243, Note_on_c, 0, 72, 114
1, 35337, Note_off_c, 0, 72, 114
1, 35352, Note_on_c, 0, 68, 40
1, 35420, Note_off_c, 0, 68, 40
1, 35421, Note_on_c, 0, 66, 117
1, 35513, Note_off_c, 0, 66, 117
1, 35914, Note_on_c, 0, 71, 113
1, 35982, Note_off_c, 0, 71, 113
1, 35985, Note_on_c, 0, 72, 116
1, 36180, Note_off_c, 0, 72, 116
1, 36193, Note_on_c, 0, 70, 112
1, 36285, Note_off_c, 0, 70, 112
1, 36297, Note_on_c, 0, 68, 115
1, 36380, Note_off_c, 0, 68, 115
1, 36389, Note_on_c, 0, 67, 112
1, 36496, Note_off_c, 0, 67, 112
1, 36497, Note_on_c, 0, 70, 107
1, 36562, Note_off_c, 0, 70, 107
1, 36577, Note_on_c, 0, 75, 112
1, 36648, Note_off_c, 0, 75, 112
1, 36661, Note_on_c, 0, 79, 103
1, 36706, Note_off_c, 0, 79, 103
1, 36713, Note_on_c, 0, 80, 113
1, 36758, Note_off_c, 0, 80, 113
1, 36767, Note_on_c, 0, 79, 113
1, 36809, Note_off_c, 0, 79, 113
1, 36815, Note_on_c, 0, 80, 105
1, 36839, Note_off_c, 0, 80, 105
1, 36842, Note_on_c, 0, 74, 105
1, 36895, Note_off_c, 0, 74, 105
1, 36900, Note_on_c, 0, 75, 114
1, 37003, Note_off_c, 0, 75, 114
1, 37324, Note_on_c, 0, 77, 100
1, 37429, Note_off_c, 0, 77, 100
1, 37443, Note_on_c, 0, 74, 111
1, 37479, Note_off_c, 0, 74, 111
1, 37482, Note_on_c, 0, 72, 114
1, 37529, Note_off_c, 0, 72, 114
1, 37538, Note_on_c, 0, 70, 118
1, 37631, Note_off_c, 0, 70, 118
1, 37658, Note_on_c, 0, 65, 100
1, 37712, Note_off_c, 0, 65, 100
1, 37716, Note_on_c, 0, 70, 121
1, 37818, Note_off_c, 0, 70, 121
1, 37844, Note_on_c, 0, 75, 106
1, 37877, Note_off_c, 0, 75, 106
1, 37880, Note_on_c, 0, 74, 110
1, 37907, Note_off_c, 0, 74, 110
1, 37916, Note_on_c, 0, 73, 113
1, 37954, Note_off_c, 0, 73, 113
1, 37960, Note_on_c, 0, 72, 116
1, 38095, Note_off_c, 0, 72, 116
1, 38105, Note_on_c, 0, 68, 116
1, 38206, Note_off_c, 0, 68, 116
1, 38219, Note_on_c, 0, 67, 109
1, 38276, Note_off_c, 0, 67, 109
1, 38289, Note_on_c, 0, 63, 119
1, 38645, Note_off_c, 0, 63, 119
1, 38658, Note_on_c, 0, 58, 93
1, 38693, Note_off_c, 0, 58, 93
1, 38709, Note_on_c, 0, 67, 114
1, 38869, Note_off_c, 0, 67, 114
1, 38869, Note_on_c, 0, 58, 107
1, 38988, Note_off_c, 0, 58, 107
1, 38992, Note_on_c, 0, 63, 121
1, 39156, Note_off_c, 0, 63, 121
1, 39580, Note_on_c, 0, 70, 109
1, 39610, Note_off_c, 0, 70, 109
1, 39636, Note_on_c, 0, 72, 122
1, 40094, Note_off_c, 0, 72, 122
1, 40117, Note_on_c, 0, 70, 118
1, 40156, Note_off_c, 0, 70, 118
1, 40159, Note_on_c, 0, 72, 121
1, 40227, Note_off_c, 0, 72, 121
1, 40231, Note_on_c, 0, 70, 120
1, 40333, Note_off_c, 0, 70, 120
1, 40345, Note_on_c, 0, 67, 107
1, 40382, Note_off_c, 0, 67, 107
1, 40394, Note_on_c, 0, 68, 116
1, 40515, Note_off_c, 0, 68, 116
1, 40532, Note_on_c, 0, 65, 99
1, 40569, Note_off_c, 0, 65, 99
1, 40587, Note_on_c, 0, 67, 116
1, 40715, Note_off_c, 0, 67, 116
1, 40721, Note_on_c, 0, 63, 121
1, 40777, Note_off_c, 0, 63, 121
1, 40786, Note_on_c, 0, 61, 116
1, 40897, Note_off_c, 0, 61, 116
1, 40911, Note_on_c, 0, 65, 115
1, 40970, Note_off_c, 0, 65, 115
1, 40976, Note_on_c, 0, 67, 113
1, 41082, Note_off_c, 0, 67, 113
1, 41089, Note_on_c, 0, 63, 120
1, 41164, Note_off_c, 0, 63, 120
1, 41172, Note_on_c, 0, 68, 113
1, 41270, Note_off_c, 0, 68, 113
1, 41276, Note_on_c, 0, 72, 117
1, 41336, Note_off_c, 0, 72, 117
1, 41344, Note_on_c, 0, 71, 109
1, 41378, Note_off_c, 0, 71, 109
1, 41381, Note_on_c, 0, 69, 112
1, 41465, Note_off_c, 0, 69, 112
1, 41471, Note_on_c, 0, 66, 106
1, 41550, Note_off_c, 0, 66, 106
1, 41665, Note_on_c, 0, 71, 113
1, 41751, Note_off_c, 0, 71, 113
1, 41755, Note_on_c, 0, 67, 114
1, 41848, Note_off_c, 0, 67, 114
1, 41853, Note_on_c, 0, 64, 119
1, 41917, Note_off_c, 0, 64, 119
1, 41936, Note_on_c, 0, 60, 112
1, 42064, Note_off_c, 0, 60, 112
1, 42097, Note_on_c, 0, 69, 108
1, 42217, Note_off_c, 0, 69, 108
1, 42223, Note_on_c, 0, 68, 104
1, 42296, Note_off_c, 0, 68, 104
1, 42300, Note_on_c, 0, 57, 103
1, 42437, Note_off_c, 0, 57, 103
1, 42441, Note_on_c, 0, 54, 96
1, 42488, Note_off_c, 0, 54, 96
1, 42492, Note_on_c, 0, 55, 105
1, 42607, Note_off_c, 0, 55, 105
1, 42614, Note_on_c, 0, 61, 114
1, 42707, Note_off_c, 0, 61, 114
1, 42715, Note_on_c, 0, 59, 104
1, 42795, Note_off_c, 0, 59, 104
1, 42799, Note_on_c, 0, 55, 105
1, 42935, Note_off_c, 0, 55, 105
1, 43370, Note_on_c, 0, 60, 115
1, 43424, Note_off_c, 0, 60, 115
1, 43431, Note_on_c, 0, 61, 120
1, 43478, Note_off_c, 0, 61, 120
1, 43481, Note_on_c, 0, 63, 119
1, 43584, Note_off_c, 0, 63, 119
1, 43640, Note_on_c, 0, 68, 125
1, 43760, Note_off_c, 0, 68, 125
1, 43806, Note_on_c, 0, 68, 123
1, 43905, Note_off_c, 0, 68, 123
1, 43912, Note_on_c, 0, 66, 116
1, 43979, Note_off_c, 0, 66, 116
1, 44045, Note_on_c, 0, 68, 115
1, 44295, Note_off_c, 0, 68, 115
1, 44300, Note_on_c, 0, 66, 109
1, 44389, Note_off_c, 0, 66, 109
1, 44393, Note_on_c, 0, 68, 118
1, 44485, Note_off_c, 0, 68, 118
1, 44568, Note_on_c, 0, 66, 119
1, 44713, Note_off_c, 0, 66, 119
1, 45095, Note_on_c, 0, 58, 107
1, 45127, Note_off_c, 0, 58, 107
1, 45148, Note_on_c, 0, 63, 119
1, 45280, Note_off_c, 0, 63, 119
1, 45286, Note_on_c, 0, 61, 103
1, 45334, Note_off_c, 0, 61, 103
1, 45340, Note_on_c, 0, 63, 118
1, 45840, Note_off_c, 0, 63, 118
1, 45850, Note_on_c, 0, 65, 113
1, 45920, Note_off_c, 0, 65, 113
1, 45945, Note_on_c, 0, 61, 116
1, 46040, Note_off_c, 0, 61, 116
1, 46048, Note_on_c, 0, 58, 99
1, 46096, Note_off_c, 0, 58, 99
1, 46116, Note_on_c, 0, 65, 114
1, 46229, Note_off_c, 0, 65, 114
1, 46233, Note_on_c, 0, 63, 119
1, 46310, Note_off_c, 0, 63, 119
1, 46319, Note_on_c, 0, 62, 115
1, 46416, Note_off_c, 0, 62, 115
1, 46428, Note_on_c, 0, 69, 116
1, 46458, Note_off_c, 0, 69, 116
1, 46464, Note_on_c, 0, 70, 112
1, 46499, Note_off_c, 0, 70, 112
1, 46509, Note_on_c, 0, 68, 105
1, 46612, Note_off_c, 0, 68, 105
1, 46624, Note_on_c, 0, 66, 98
1, 46667, Note_off_c, 0, 66, 98
1, 46670, Note_on_c, 0, 68, 113
1, 46770, Note_off_c, 0, 68, 113
1, 46800, Note_on_c, 0, 71, 116
1, 46848, Note_off_c, 0, 71, 116
1, 46857, Note_on_c, 0, 67, 112
1, 46957, Note_off_c, 0, 67, 112
1, 46971, Note_on_c, 0, 65, 112
1, 47035, Note_off_c, 0, 65, 112
1, 47042, Note_on_c, 0, 64, 112
1, 47161, Note_off_c, 0, 64, 112
1, 47176, Note_on_c, 0, 60, 98
1, 47235, Note_off_c, 0, 60, 98
1, 47247, Note_on_c, 0, 64, 111
1, 47344, Note_off_c, 0, 64, 111
1, 47356, Note_on_c, 0, 67, 112
1, 47435, Note_off_c, 0, 67, 112
1, 47448, Note_on_c, 0, 66, 115
1, 47553, Note_off_c, 0, 66, 115
1, 47564, Note_on_c, 0, 62, 114
1, 47639, Note_off_c, 0, 62, 114
1, 47648, Note_on_c, 0, 61, 110
1, 47747, Note_off_c, 0, 61, 110
1, 47763, Note_on_c, 0, 58, 93
1, 47803, Note_off_c, 0, 58, 93
1, 47816, Note_on_c, 0, 66, 112
1, 47927, Note_off_c, 0, 66, 112
1, 47946, Note_on_c, 0, 68, 110
1, 48000, Note_off_c, 0, 68, 110
1, 48021, Note_on_c, 0, 61, 116
1, 48126, Note_off_c, 0, 61, 116
1, 48135, Note_on_c, 0, 63, 115
1, 48272, Note_off_c, 0, 63, 115
1, 48703, Note_on_c, 0, 69, 119
1, 48767, Note_off_c, 0, 69, 119
1, 48774, Note_on_c, 0, 70, 119
1, 49225, Note_off_c, 0, 70, 119
1, 49233, Note_on_c, 0, 68, 120
1, 49332, Note_off_c, 0, 68, 120
1, 49334, Note_on_c, 0, 67, 116
1, 49511, Note_off_c, 0, 67, 116
1, 49520, Note_on_c, 0, 63, 117
1, 49629, Note_off_c, 0, 63, 117
1, 49636, Note_on_c, 0, 61, 118
1, 49816, Note_off_c, 0, 61, 118
1, 49816, End_track
0, 0, End_of_file
