0, 0, Header, 1, 1, 192
1, 0, Start_track
1, 0, Title_t, "Melody"
1, 0, Tempo, 363636
1, 0, Key_signature, -2, "major"
1, 0, Time_signature, 4, 2, 24, 8
1, 2341, Note_on_c, 0, 62, 122
1, 2416, Note_off_c, 0, 62, 122
1, 2417, Note_on_c, 0, 60, 111
1, 2490, Note_off_c, 0, 60, 111
1, 2493, Note_on_c, 0, 58, 95
1, 2538, Note_off_c, 0, 58, 95
1, 2540, Note_on_c, 0, 63, 120
1, 2622, Note_off_c, 0, 63, 120
1, 2626, Note_on_c, 0, 65, 112
1, 2665, Note_off_c, 0, 65, 112
1, 2666, Note_on_c, 0, 67, 127
1, 2732, Note_off_c, 0, 67, 127
1, 2737, Note_on_c, 0, 65, 114
1, 2995, Note_off_c, 0, 65, 114
1, 3085, Note_on_c, 0, 70, 119
1, 3218, Note_off_c, 0, 70, 119
1, 3405, Note_on_c, 0, 59, 79
1, 3456, Note_off_c, 0, 59, 79
1, 3461, Note_on_c, 0, 63, 119
1, 3834, Note_off_c, 0, 63, 119
1, 3904, Note_on_c, 0, 67, 104
1, 4012, Note_off_c, 0, 67, 104
1, 4053, Note_on_c, 0, 70, 108
1, 4403, Note_off_c, 0, 70, 108
1, 5426, Note_on_c, 0, 70, 117
1, 5519, Note_off_c, 0, 70, 117
1, 5523, Note_on_c, 0, 69, 110
1, 5631, Note_off_c, 0, 69, 110
1, 5716, Note_on_c, 0, 73, 112
1, 5827, Note_off_c, 0, 73, 112
1, 5830, Note_on_c, 0, 71, 108
1, 5949, Note_off_c, 0, 71, 108
1, 6051, Note_on_c, 0, 66, 108
1, 6198, Note_off_c, 0, 66, 108
1, 6205, Note_on_c, 0, 64, 104
1, 6264, Note_off_c, 0, 64, 104
1, 7071, Note_on_c, 0, 68, 110
1, 7132, Note_off_c, 0, 68, 110
1, 7138, Note_on_c, 0, 67, 112
1, 7233, Note_off_c, 0, 67, 112
1, 7242, Note_on_c, 0, 66, 110
1, 7337, Note_off_c, 0, 66, 110
1, 7343, Note_on_c, 0, 65, 115
1, 7431, Note_off_c, 0, 65, 115
1, 7438, Note_on_c, 0, 63, 118
1, 7508, Note_off_c, 0, 63, 118
1, 7520, Note_on_c, 0, 62, 121
1, 7607, Note_off_c, 0, 62, 121
1, 7619, Note_on_c, 0, 60, 108
1, 7701, Note_off_c, 0, 60, 108
1, 7711, Note_on_c, 0, 58, 103
1, 7798, Note_off_c, 0, 58, 103
1, 8007, Note_on_c, 0, 68, 111
1, 8080, Note_off_c, 0, 68, 111
1, 8112, Note_on_c, 0, 66, 109
1, 8185, Note_off_c, 0, 66, 109
1, 8192, Note_on_c, 0, 67, 110
1, 8247, Note_off_c, 0, 67, 110
1, 8289, Note_on_c, 0, 64, 114
1, 8371, Note_off_c, 0, 64, 114
1, 8397, Note_on_c, 0, 60, 113
1, 8462, Note_off_c, 0, 60, 113
1, 8497, Note_on_c, 0, 59, 101
1, 8570, Note_off_c, 0, 59, 101
1, 8591, Note_on_c, 0, 61, 103
1, 8686, Note_off_c, 0, 61, 103
1, 8698, Note_on_c, 0, 63, 89
1, 8783, Note_off_c, 0, 63, 89
1, 8789, Note_on_c, 0, 66, 113
1, 8861, Note_off_c, 0, 66, 113
1, 8906, Note_on_c, 0, 65, 110
1, 9230, Note_off_c, 0, 65, 110
1, 9243, Note_on_c, 0, 65, 112
1, 9408, Note_off_c, 0, 65, 112
1, 9418, Note_on_c, 0, 60, 107
1, 9523, Note_off_c, 0, 60, 107
1, 9607, Note_on_c, 0, 58, 94
1, 9907, Note_off_c, 0, 58, 94
1, 10012, Note_on_c, 0, 66, 112
1, 10056, Note_off_c, 0, 66, 112
1, 10065, Note_on_c, 0, 67, 116
1, 10167, Note_off_c, 0, 67, 116
1, 10292, Note_on_c, 0, 58, 101
1, 10413, Note_off_c, 0, 58, 101
1, 10449, Note_on_c, 0, 60, 91
1, 10527, Note_off_c, 0, 60, 91
1, 10530, Note_on_c, 0, 61, 87
1, 10644, Note_off_c, 0, 61, 87
1, 11440, Note_on_c, 0, 63, 116
1, 11521, Note_off_c, 0, 63, 116
1, 11551, Note_on_c, 0, 67, 114
1, 11638, Note_off_c, 0, 67, 114
1, 11642, Note_on_c, 0, 65, 112
1, 11721, Note_off_c, 0, 65, 112
1, 11728, Note_on_c, 0, 63, 115
1, 11806, Note_off_c, 0, 63, 115
1, 11812, Note_on_c, 0, 60, 111
1, 11880, Note_off_c, 0, 60, 111
1, 11890, Note_on_c, 0, 56, 101
1, 12006, Note_off_c, 0, 56, 101
1, 12087, Note_on_c, 0, 62, 119
1, 12185, Note_off_c, 0, 62, 119
1, 12197, Note_on_c, 0, 60, 102
1, 12275, Note_off_c, 0, 60, 102
1, 12288, Note_on_c, 0, 58, 94
1, 12399, Note_off_c, 0, 58, 94
1, 12414, Note_on_c, 0, 68, 112
1, 12499, Note_off_c, 0, 68, 112
1, 12514, Note_on_c, 0, 67, 107
1, 12610, Note_off_c, 0, 67, 107
1, 12617, Note_on_c, 0, 65, 109
1, 12675, Note_off_c, 0, 65, 109
1, 12687, Note_on_c, 0, 63, 112
1, 12785, Note_off_c, 0, 63, 112
1, 12801, Note_on_c, 0, 58, 85
1, 12863, Note_off_c, 0, 58, 85
1, 12867, Note_on_c, 0, 60, 100
1, 12974, Note_off_c, 0, 60, 100
1, 12980, Note_on_c, 0, 63, 114
1, 13055, Note_off_c, 0, 63, 114
1, 13367, Note_on_c, 0, 69, 114
1, 13402, Note_off_c, 0, 69, 114
1, 13411, Note_on_c, 0, 70, 115
1, 13496, Note_off_c, 0, 70, 115
1, 13586, Note_on_c, 0, 69, 114
1, 13688, Note_off_c, 0, 69, 114
1, 13764, Note_on_c, 0, 67, 109
1, 13851, Note_off_c, 0, 67, 109
1, 13857, Note_on_c, 0, 65, 114
1, 13952, Note_off_c, 0, 65, 114
1, 13959, Note_on_c, 0, 60, 95
1, 14020, Note_off_c, 0, 60, 95
1, 14030, Note_on_c, 0, 63, 111
1, 14146, Note_off_c, 0, 63, 111
1, 14156, Note_on_c, 0, 65, 106
1, 14191, Note_off_c, 0, 65, 106
1, 14192, Note_on_c, 0, 63, 106
1, 14239, Note_off_c, 0, 63, 106
1, 14243, Note_on_c, 0, 62, 113
1, 14394, Note_off_c, 0, 62, 113
1, 14720, Note_on_c, 0, 62, 112
1, 14883, Note_off_c, 0, 62, 112
1, 14890, Note_on_c, 0, 62, 116
1, 14929, Note_off_c, 0, 62, 116
1, 14938, Note_on_c, 0, 61, 111
1, 14980, Note_off_c, 0, 61, 111
1, 14989, Note_on_c, 0, 60, 102
1, 15022, Note_off_c, 0, 60, 102
1, 15038, Note_on_c, 0, 59, 99
1, 15093, Note_off_c, 0, 59, 99
1, 15163, Note_on_c, 0, 56, 89
1, 15216, Note_off_c, 0, 56, 89
1, 15220, Note_on_c, 0, 58, 86
1, 15262, Note_off_c, 0, 58, 86
1, 15283, Note_on_c, 0, 63, 112
1, 15324, Note_off_c, 0, 63, 112
1, 15339, Note_on_c, 0, 67, 112
1, 15383, Note_off_c, 0, 67, 112
1, 15386, Note_on_c, 0, 66, 107
1, 15479, Note_off_c, 0, 66, 107
1, 15485, Note_on_c, 0, 62, 109
1, 15578, Note_off_c, 0, 62, 109
1, 15596, Note_on_c, 0, 65, 103
1, 15641, Note_off_c, 0, 65, 103
1, 15651, Note_on_c, 0, 65, 107
1, 15693, Note_off_c, 0, 65, 107
1, 15699, Note_on_c, 0, 63, 113
1, 15741, Note_off_c, 0, 63, 113
1, 15770, Note_on_c, 0, 60, 104
1, 15887, Note_off_c, 0, 60, 104
1, 16540, Note_on_c, 0, 65, 117
1, 16635, Note_off_c, 0, 65, 117
1, 16642, Note_on_c, 0, 63, 109
1, 16682, Note_off_c, 0, 63, 109
1, 16696, Note_on_c, 0, 61, 97
1, 16730, Note_off_c, 0, 61, 97
1, 16736, Note_on_c, 0, 57, 96
1, 16825, Note_off_c, 0, 57, 96
1, 16830, Note_on_c, 0, 54, 95
1, 17027, Note_off_c, 0, 54, 95
1, 17031, Note_on_c, 0, 63, 113
1, 17130, Note_off_c, 0, 63, 113
1, 17133, Note_on_c, 0, 62, 114
1, 17208, Note_off_c, 0, 62, 114
1, 17214, Note_on_c, 0, 60, 105
1, 17279, Note_off_c, 0, 60, 105
1, 17314, Note_on_c, 0, 58, 98
1, 17396, Note_off_c, 0, 58, 98
1, 17506, Note_on_c, 0, 58, 100
1, 17588, Note_off_c, 0, 58, 100
1, 17596, Note_on_c, 0, 59, 102
1, 17787, Note_off_c, 0, 59, 102
1, 17797, Note_on_c, 0, 54, 103
1, 17849, Note_off_c, 0, 54, 103
1, 17857, Note_on_c, 0, 63, 96
1, 17894, Note_off_c, 0, 63, 96
1, 17899, Note_on_c, 0, 64, 103
1, 17923, Note_off_c, 0, 64, 103
1, 17926, Note_on_c, 0, 63, 112
1, 17972, Note_off_c, 0, 63, 112
1, 17976, Note_on_c, 0, 61, 109
1, 18029, Note_off_c, 0, 61, 109
1, 18031, Note_on_c, 0, 59, 99
1, 18144, Note_off_c, 0, 59, 99
1, 18458, Note_on_c, 0, 58, 97
1, 18548, Note_off_c, 0, 58, 97
1, 18632, Note_on_c, 0, 61, 109
1, 18684, Note_off_c, 0, 61, 109
1, 18690, Note_on_c, 0, 62, 121
1, 19118, Note_off_c, 0, 62, 121
1, 19223, Note_on_c, 0, 63, 115
1, 19351, Note_off_c, 0, 63, 115
1, 20116, Note_on_c, 0, 62, 109
1, 20243, Note_off_c, 0, 62, 109
1, 20273, Note_on_c, 0, 62, 120
1, 20381, Note_off_c, 0, 62, 120
1, 20387, Note_on_c, 0, 63, 117
1, 20486, Note_off_c, 0, 63, 117
1, 20487, Note_on_c, 0, 64, 95
1, 20505, Note_off_c, 0, 64, 95
1, 20508, Note_on_c, 0, 63, 111
1, 20565, Note_off_c, 0, 63, 111
1, 20576, Note_on_c, 0, 62, 87
1, 20613, Note_off_c, 0, 62, 87
1, 20758, Note_on_c, 0, 64, 108
1, 20948, Note_off_c, 0, 64, 108
1, 20952, Note_on_c, 0, 61, 109
1, 21031, Note_off_c, 0, 61, 109
1, 21049, Note_on_c, 0, 59, 91
1, 21105, Note_off_c, 0, 59, 91
1, 21119, Note_on_c, 0, 65, 111
1, 21229, Note_off_c, 0, 65, 111
1, 21235, Note_on_c, 0, 58, 104
1, 21324, Note_off_c, 0, 58, 104
1, 21814, Note_on_c, 0, 58, 100
1, 21872, Note_off_c, 0, 58, 100
1, 21905, Note_on_c, 0, 67, 113
1, 21983, Note_off_c, 0, 67, 113
1, 21992, Note_on_c, 0, 67, 110
1, 22085, Note_off_c, 0, 67, 110
1, 22094, Note_on_c, 0, 63, 118
1, 22169, Note_off_c, 0, 63, 118
1, 22223, Note_on_c, 0, 67, 114
1, 22282, Note_off_c, 0, 67, 114
1, 22289, Note_on_c, 0, 68, 110
1, 22388, Note_off_c, 0, 68, 110
1, 22394, Note_on_c, 0, 65, 107
1, 22485, Note_off_c, 0, 65, 107
1, 22491, Note_on_c, 0, 68, 108
1, 22533, Note_off_c, 0, 68, 108
1, 22533, Note_on_c, 0, 69, 104
1, 22566, Note_off_c, 0, 69, 104
1, 22572, Note_on_c, 0, 68, 108
1, 22628, Note_off_c, 0, 68, 108
1, 22635, Note_on_c, 0, 66, 103
1, 22719, Note_off_c, 0, 66, 103
1, 22724, Note_on_c, 0, 70, 110
1, 22960, Note_off_c, 0, 70, 110
1, 23044, Note_on_c, 0, 70, 112
1, 23123, Note_off_c, 0, 70, 112
1, 23216, Note_on_c, 0, 70, 114
1, 23320, Note_off_c, 0, 70, 114
1, 23328, Note_on_c, 0, 71, 104
1, 23366, Note_off_c, 0, 71, 104
1, 23368, Note_on_c, 0, 70, 113
1, 23404, Note_off_c, 0, 70, 113
1, 23404, Note_on_c, 0, 69, 107
1, 23566, Note_off_c, 0, 69, 107
1, 23570, Note_on_c, 0, 67, 103
1, 23680, Note_off_c, 0, 67, 103
1, 23687, Note_on_c, 0, 65, 103
1, 23962, Note_off_c, 0, 65, 103
1, 24087, Note_on_c, 0, 65, 108
1, 24132, Note_off_c, 0, 65, 108
1, 24135, Note_on_c, 0, 69, 109
1, 24260, Note_off_c, 0, 69, 109
1, 24267, Note_on_c, 0, 67, 106
1, 24343, Note_off_c, 0, 67, 106
1, 24479, Note_on_c, 0, 67, 96
1, 24508, Note_off_c, 0, 67, 96
1, 24509, Note_on_c, 0, 70, 116
1, 24609, Note_off_c, 0, 70, 116
1, 25286, Note_on_c, 0, 71, 117
1, 25316, Note_off_c, 0, 71, 117
1, 25322, Note_on_c, 0, 70, 118
1, 25401, Note_off_c, 0, 70, 118
1, 25466, Note_on_c, 0, 70, 116
1, 25555, Note_off_c, 0, 70, 116
1, 25567, Note_on_c, 0, 66, 109
1, 25651, Note_off_c, 0, 66, 109
1, 25658, Note_on_c, 0, 65, 113
1, 25756, Note_off_c, 0, 65, 113
1, 25770, Note_on_c, 0, 63, 117
1, 25851, Note_off_c, 0, 63, 117
1, 25854, Note_on_c, 0, 62, 123
1, 25942, Note_off_c, 0, 62, 123
1, 25948, Note_on_c, 0, 60, 111
1, 26019, Note_off_c, 0, 60, 111
1, 26031, Note_on_c, 0, 58, 101
1, 26141, Note_off_c, 0, 58, 101
1, 26148, Note_on_c, 0, 70, 113
1, 26280, Note_off_c, 0, 70, 113
1, 27150, Note_on_c, 0, 65, 111
1, 27283, Note_off_c, 0, 65, 111
1, 27288, Note_on_c, 0, 67, 100
1, 27333, Note_off_c, 0, 67, 100
1, 27357, Note_on_c, 0, 70, 118
1, 27463, Note_off_c, 0, 70, 118
1, 27537, Note_on_c, 0, 71, 112
1, 27597, Note_off_c, 0, 71, 112
1, 27643, Note_on_c, 0, 74, 106
1, 27871, Note_off_c, 0, 74, 106
1, 27884, Note_on_c, 0, 72, 100
1, 27936, Note_off_c, 0, 72, 100
1, 27943, Note_on_c, 0, 74, 107
1, 28087, Note_off_c, 0, 74, 107
1, 28115, Note_on_c, 0, 75, 105
1, 28205, Note_off_c, 0, 75, 105
1, 28312, Note_on_c, 0, 72, 116
1, 28408, Note_off_c, 0, 72, 116
1, 28487, Note_on_c, 0, 72, 113
1, 28887, Note_off_c, 0, 72, 113
1, 28910, Note_on_c, 0, 72, 101
1, 29000, Note_off_c, 0, 72, 101
1, 29001, Note_on_c, 0, 75, 107
1, 29080, Note_off_c, 0, 75, 107
1, 29083, Note_on_c, 0, 74, 108
1, 29165, Note_off_c, 0, 74, 108
1, 29172, Note_on_c, 0, 72, 104
1, 29244, Note_off_c, 0, 72, 104
1, 29273, Note_on_c, 0, 70, 109
1, 29363, Note_off_c, 0, 70, 109
1, 29370, Note_on_c, 0, 69, 109
1, 29442, Note_off_c, 0, 69, 109
1, 29458, Note_on_c, 0, 68, 109
1, 29551, Note_off_c, 0, 68, 109
1, 29565, Note_on_c, 0, 73, 110
1, 29601, Note_off_c, 0, 73, 110
1, 29612, Note_on_c, 0, 72, 107
1, 29646, Note_off_c, 0, 72, 107
1, 29664, Note_on_c, 0, 68, 113
1, 29748, Note_off_c, 0, 68, 113
1, 29752, Note_on_c, 0, 67, 109
1, 29833, Note_off_c, 0, 67, 109
1, 29840, Note_on_c, 0, 66, 110
1, 29926, Note_off_c, 0, 66, 110
1, 30149, Note_on_c, 0, 66, 97
1, 30216, Note_off_c, 0, 66, 97
1, 30228, Note_on_c, 0, 71, 112
1, 30319, Note_off_c, 0, 71, 112
1, 30326, Note_on_c, 0, 66, 108
1, 30396, Note_off_c, 0, 66, 108
1, 30408, Note_on_c, 0, 64, 113
1, 30510, Note_off_c, 0, 64, 113
1, 30613, Note_on_c, 0, 67, 102
1, 30648, Note_off_c, 0, 67, 102
1, 30650, Note_on_c, 0, 68, 101
1, 30683, Note_off_c, 0, 68, 101
1, 30687, Note_on_c, 0, 67, 99
1, 30727, Note_off_c, 0, 67, 99
1, 30728, Note_on_c, 0, 65, 99
1, 30758, Note_off_c, 0, 65, 99
1, 30765, Note_on_c, 0, 61, 97
1, 30861, Note_off_c, 0, 61, 97
1, 31477, Note_on_c, 0, 60, 9
1, 31549, Note_off_c, 0, 60, 9
1, 31554, Note_on_c, 0, 58, 92
1, 31636, Note_off_c, 0, 58, 92
1, 31678, Note_on_c, 0, 54, 101
1, 31774, Note_off_c, 0, 54, 101
1, 31779, Note_on_c, 0, 53, 95
1, 31852, Note_off_c, 0, 53, 95
1, 31855, Note_on_c, 0, 63, 112
1, 31940, Note_off_c, 0, 63, 112
1, 31962, Note_on_c, 0, 62, 114
1, 32029, Note_off_c, 0, 62, 114
1, 32041, Note_on_c, 0, 60, 106
1, 32102, Note_off_c, 0, 60, 106
1, 32121, Note_on_c, 0, 58, 98
1, 32217, Note_off_c, 0, 58, 98
1, 32320, Note_on_c, 0, 62, 119
1, 32430, Note_off_c, 0, 62, 119
1, 32449, Note_on_c, 0, 63, 110
1, 32550, Note_off_c, 0, 63, 110
1, 32604, Note_on_c, 0, 62, 116
1, 32689, Note_off_c, 0, 62, 116
1, 32720, Note_on_c, 0, 58, 89
1, 32806, Note_off_c, 0, 58, 89
1, 32910, Note_on_c, 0, 61, 103
1, 32961, Note_off_c, 0, 61, 103
1, 32964, Note_on_c, 0, 62, 114
1, 32997, Note_off_c, 0, 62, 114
1, 32998, Note_on_c, 0, 63, 107
1, 33040, Note_off_c, 0, 63, 107
1, 33046, Note_on_c, 0, 62, 105
1, 33078, Note_off_c, 0, 62, 105
1, 33085, Note_on_c, 0, 64, 106
1, 33111, Note_off_c, 0, 64, 106
1, 33116, Note_on_c, 0, 66, 97
1, 33137, Note_off_c, 0, 66, 97
1, 33145, Note_on_c, 0, 67, 103
1, 33347, Note_off_c, 0, 67, 103
1, 33354, Note_on_c, 0, 67, 96
1, 33380, Note_off_c, 0, 67, 96
1, 33389, Note_on_c, 0, 65, 100
1, 33454, Note_off_c, 0, 65, 100
1, 33469, Note_on_c, 0, 59, 90
1, 33519, Note_off_c, 0, 59, 90
1, 33650, Note_on_c, 0, 60, 88
1, 33870, Note_off_c, 0, 60, 88
1, 34171, Note_on_c, 0, 67, 115
1, 34242, Note_off_c, 0, 67, 115
1, 34245, Note_on_c, 0, 63, 115
1, 34308, Note_off_c, 0, 63, 115
1, 34309, Note_on_c, 0, 60, 95
1, 34366, Note_off_c, 0, 60, 95
1, 34382, Note_on_c, 0, 55, 79
1, 34430, Note_off_c, 0, 55, 79
1, 34439, Note_on_c, 0, 59, 101
1, 34552, Note_off_c, 0, 59, 101
1, 34553, Note_on_c, 0, 54, 99
1, 34583, Note_off_c, 0, 54, 99
1, 34589, Note_on_c, 0, 58, 102
1, 34709, Note_off_c, 0, 58, 102
1, 34742, Note_on_c, 0, 67, 111
1, 34866, Note_off_c, 0, 67, 111
1, 35945, Note_on_c, 0, 69, 116
1, 36032, Note_off_c, 0, 69, 116
1, 36035, Note_on_c, 0, 67, 116
1, 36100, Note_off_c, 0, 67, 116
1, 36103, Note_on_c, 0, 65, 113
1, 36228, Note_off_c, 0, 65, 113
1, 36230, Note_on_c, 0, 64, 113
1, 36319, Note_off_c, 0, 64, 113
1, 36325, Note_on_c, 0, 63, 111
1, 36417, Note_off_c, 0, 63, 111
1, 36422, Note_on_c, 0, 58, 103
1, 36509, Note_off_c, 0, 58, 103
1, 36518, Note_on_c, 0, 65, 107
1, 36588, Note_off_c, 0, 65, 107
1, 36593, Note_on_c, 0, 63, 120
1, 36687, Note_off_c, 0, 63, 120
1, 36698, Note_on_c, 0, 62, 125
1, 36800, Note_off_c, 0, 62, 125
1, 36812, Note_on_c, 0, 65, 117
1, 36889, Note_off_c, 0, 65, 117
1, 36894, Note_on_c, 0, 62, 124
1, 36992, Note_off_c, 0, 62, 124
1, 36998, Note_on_c, 0, 60, 115
1, 37083, Note_off_c, 0, 60, 115
1, 37103, Note_on_c, 0, 58, 95
1, 37315, Note_off_c, 0, 58, 95
1, 37323, Note_on_c, 0, 60, 107
1, 37379, Note_off_c, 0, 60, 107
1, 37379, Note_on_c, 0, 63, 112
1, 37415, Note_off_c, 0, 63, 112
1, 37415, Note_on_c, 0, 65, 115
1, 37465, Note_off_c, 0, 65, 115
1, 37473, Note_on_c, 0, 63, 116
1, 37694, Note_off_c, 0, 63, 116
1, 37696, Note_on_c, 0, 65, 110
1, 37719, Note_off_c, 0, 65, 110
1, 37742, Note_on_c, 0, 67, 114
1, 37828, Note_off_c, 0, 67, 114
1, 37832, Note_on_c, 0, 65, 117
1, 37941, Note_off_c, 0, 65, 117
1, 38518, Note_on_c, 0, 65, 110
1, 38605, Note_off_c, 0, 65, 110
1, 38611, Note_on_c, 0, 64, 110
1, 38692, Note_off_c, 0, 64, 110
1, 38694, Note_on_c, 0, 68, 107
1, 38770, Note_off_c, 0, 68, 107
1, 38779, Note_on_c, 0, 67, 101
1, 38881, Note_off_c, 0, 67, 101
1, 38893, Note_on_c, 0, 65, 106
1, 38978, Note_off_c, 0, 65, 106
1, 38988, Note_on_c, 0, 63, 106
1, 39059, Note_off_c, 0, 63, 106
1, 39067, Note_on_c, 0, 60, 104
1, 39143, Note_off_c, 0, 60, 104
1, 39165, Note_on_c, 0, 67, 107
1, 39252, Note_off_c, 0, 67, 107
1, 39330, Note_on_c, 0, 61, 106
1, 39347, Note_off_c, 0, 61, 106
1, 39351, Note_on_c, 0, 62, 118
1, 39501, Note_off_c, 0, 62, 118
1, 39517, Note_on_c, 0, 58, 86
1, 39658, Note_off_c, 0, 58, 86
1, 39698, Note_on_c, 0, 62, 114
1, 39741, Note_off_c, 0, 62, 114
1, 39746, Note_on_c, 0, 63, 114
1, 40205, Note_off_c, 0, 63, 114
1, 40224, Note_on_c, 0, 63, 107
1, 40296, Note_off_c, 0, 63, 107
1, 40297, Note_on_c, 0, 65, 102
1, 40387, Note_off_c, 0, 65, 102
1, 40388, Note_on_c, 0, 61, 104
1, 40468, Note_off_c, 0, 61, 104
1, 40508, Note_on_c, 0, 60, 96
1, 40636, Note_off_c, 0, 60, 96
1, 40846, Note_on_c, 0, 60, 93
1, 40975, Note_off_c, 0, 60, 93
1, 41163, Note_on_c, 0, 60, 85
1, 41308, Note_off_c, 0, 60, 85
1, 41366, Note_on_c, 0, 60, 94
1, 41444, Note_off_c, 0, 60, 94
1, 42417, Note_on_c, 0, 56, 96
1, 42517, Note_off_c, 0, 56, 96
1, 42525, Note_on_c, 0, 55, 95
1, 42613, Note_off_c, 0, 55, 95
1, 42802, Note_on_c, 0, 63, 122
1, 42911, Note_off_c, 0, 63, 122
1, 43001, Note_on_c, 0, 59, 104
1, 43091, Note_off_c, 0, 59, 104
1, 43092, Note_on_c, 0, 62, 123
1, 43191, Note_off_c, 0, 62, 123
1, 43203, Note_on_c, 0, 60, 107
1, 43281, Note_off_c, 0, 60, 107
1, 43288, Note_on_c, 0, 62, 124
1, 43378, Note_off_c, 0, 62, 124
1, 43382, Note_on_c, 0, 63, 119
1, 43469, Note_off_c, 0, 63, 119
1, 43473, Note_on_c, 0, 65, 115
1, 43578, Note_off_c, 0, 65, 115
1, 43594, Note_on_c, 0, 60, 102
1, 43679, Note_off_c, 0, 60, 102
1, 43682, Note_on_c, 0, 63, 117
1, 43773, Note_off_c, 0, 63, 117
1, 43776, Note_on_c, 0, 62, 119
1, 43875, Note_off_c, 0, 62, 119
1, 43880, Note_on_c, 0, 60, 95
1, 43961, Note_off_c, 0, 60, 95
1, 43964, Note_on_c, 0, 65, 102
1, 44048, Note_off_c, 0, 65, 102
1, 44057, Note_on_c, 0, 61, 107
1, 44160, Note_off_c, 0, 61, 107
1, 44168, Note_on_c, 0, 57, 94
1, 44241, Note_off_c, 0, 57, 94
1, 44325, Note_on_c, 0, 58, 88
1, 44664, Note_off_c, 0, 58, 88
1, 44693, Note_on_c, 0, 58, 97
1, 44818, Note_off_c, 0, 58, 97
1, 44820, Note_on_c, 0, 55, 88
1, 44859, Note_off_c, 0, 55, 88
1, 45816, Note_on_c, 0, 64, 113
1, 45877, Note_off_c, 0, 64, 113
1, 45883, Note_on_c, 0, 65, 117
1, 45925, Note_off_c, 0, 65, 117
1, 45934, Note_on_c, 0, 66, 115
1, 45979, Note_off_c, 0, 66, 115
1, 45990, Note_on_c, 0, 68, 103
1, 46032, Note_off_c, 0, 68, 103
1, 46043, Note_on_c, 0, 70, 106
1, 46593, Note_off_c, 0, 70, 106
1, 46636, Note_on_c, 0, 63, 113
1, 46735, Note_off_c, 0, 63, 113
1, 46753, Note_on_c, 0, 65, 102
1, 46788, Note_off_c, 0, 65, 102
1, 46795, Note_on_c, 0, 67, 106
1, 46918, Note_off_c, 0, 67, 106
1, 46943, Note_on_c, 0, 69, 109
1, 47073, Note_off_c, 0, 69, 109
1, 48167, Note_on_c, 0, 70, 119
1, 48261, Note_off_c, 0, 70, 119
1, 48265, Note_on_c, 0, 69, 110
1, 48337, Note_off_c, 0, 69, 110
1, 48346, Note_on_c, 0, 68, 109
1, 48437, Note_off_c, 0, 68, 109
1, 48441, Note_on_c, 0, 75, 101
1, 48532, Note_off_c, 0, 75, 101
1, 48544, Note_on_c, 0, 67, 108
1, 48648, Note_off_c, 0, 67, 108
1, 48667, Note_on_c, 0, 65, 112
1, 48876, Note_off_c, 0, 65, 112
1, 48880, Note_on_c, 0, 68, 111
1, 48914, Note_off_c, 0, 68, 111
1, 48917, Note_on_c, 0, 70, 111
1, 49096, Note_off_c, 0, 70, 111
1, 49101, Note_on_c, 0, 67, 107
1, 49183, Note_off_c, 0, 67, 107
1, 49190, Note_on_c, 0, 63, 112
1, 49281, Note_off_c, 0, 63, 112
1, 49285, Note_on_c, 0, 61, 113
1, 49375, Note_off_c, 0, 61, 113
1, 49384, Note_on_c, 0, 63, 91
1, 49459, Note_off_c, 0, 63, 91
1, 49551, Note_on_c, 0, 67, 104
1, 49573, Note_off_c, 0, 67, 104
1, 49574, Note_on_c, 0, 70, 103
1, 49613, Note_off_c, 0, 70, 103
1, 49625, Note_on_c, 0, 72, 96
1, 49664, Note_off_c, 0, 72, 96
1, 49669, Note_on_c, 0, 74, 107
1, 49711, Note_off_c, 0, 74, 107
1, 49714, Note_on_c, 0, 73, 112
1, 49748, Note_off_c, 0, 73, 112
1, 49751, Note_on_c, 0, 72, 108
1, 49777, Note_off_c, 0, 72, 108
1, 49785, Note_on_c, 0, 70, 110
1, 49864, Note_off_c, 0, 70, 110
1, 49871, Note_on_c, 0, 68, 97
1, 49908, Note_off_c, 0, 68, 97
1, 49914, Note_on_c, 0, 68, 110
1, 49942, Note_off_c, 0, 68, 110
1, 49948, Note_on_c, 0, 67, 105
1, 49999, Note_off_c, 0, 67, 105
1, 50009, Note_on_c, 0, 65, 110
1, 50061, Note_off_c, 0, 65, 110
1, 50067, Note_on_c, 0, 65, 101
1, 50092, Note_off_c, 0, 65, 101
1, 50097, Note_on_c, 0, 61, 110
1, 50175, Note_off_c, 0, 61, 110
1, 50184, Note_on_c, 0, 58, 89
1, 50301, Note_off_c, 0, 58, 89
1, 50392, Note_on_c, 0, 61, 107
1, 50432, Note_off_c, 0, 61, 107
1, 50435, Note_on_c, 0, 62, 113
1, 50509, Note_off_c, 0, 62, 113
1, 50512, Note_on_c, 0, 63, 109
1, 50555, Note_off_c, 0, 63, 109
1, 50581, Note_on_c, 0, 65, 96
1, 50620, Note_off_c, 0, 65, 96
1, 50626, Note_on_c, 0, 66, 92
1, 50666, Note_off_c, 0, 66, 92
1, 50673, Note_on_c, 0, 67, 104
1, 50717, Note_off_c, 0, 67, 104
1, 50719, Note_on_c, 0, 68, 107
1, 50749, Note_off_c, 0, 68, 107
1, 50757, Note_on_c, 0, 67, 103
1, 50842, Note_off_c, 0, 67, 103
1, 50866, Note_on_c, 0, 66, 100
1, 50943, Note_off_c, 0, 66, 100
1, 50952, Note_on_c, 0, 65, 107
1, 51056, Note_off_c, 0, 65, 107
1, 51062, Note_on_c, 0, 63, 111
1, 51148, Note_off_c, 0, 63, 111
1, 51152, Note_on_c, 0, 62, 109
1, 51245, Note_off_c, 0, 62, 109
1, 51251, Note_on_c, 0, 65, 103
1, 51323, Note_off_c, 0, 65, 103
1, 51341, Note_on_c, 0, 70, 98
1, 51803, Note_off_c, 0, 70, 98
1, 51857, Note_on_c, 0, 68, 108
1, 51927, Note_off_c, 0, 68, 108
1, 51931, Note_on_c, 0, 67, 100
1, 52035, Note_off_c, 0, 67, 100
1, 52041, Note_on_c, 0, 63, 111
1, 52120, Note_off_c, 0, 63, 111
1, 52691, Note_on_c, 0, 73, 112
1, 52723, Note_off_c, 0, 73, 112
1, 52724, Note_on_c, 0, 74, 114
1, 52781, Note_off_c, 0, 74, 114
1, 52789, Note_on_c, 0, 75, 107
1, 52838, Note_off_c, 0, 75, 107
1, 52856, Note_on_c, 0, 73, 106
1, 52878, Note_off_c, 0, 73, 106
1, 52882, Note_on_c, 0, 72, 109
1, 52967, Note_off_c, 0, 72, 109
1, 52972, Note_on_c, 0, 70, 111
1, 53053, Note_off_c, 0, 70, 111
1, 53054, Note_on_c, 0, 69, 113
1, 53151, Note_off_c, 0, 69, 113
1, 53175, Note_on_c, 0, 67, 113
1, 53256, Note_off_c, 0, 67, 113
1, 53265, Note_on_c, 0, 65, 114
1, 53360, Note_off_c, 0, 65, 114
1, 53362, Note_on_c, 0, 63, 119
1, 53432, Note_off_c, 0, 63, 119
1, 53437, Note_on_c, 0, 62, 119
1, 53557, Note_off_c, 0, 62, 119
1, 53752, Note_on_c, 0, 74, 115
1, 53829, Note_off_c, 0, 74, 115
1, 53858, Note_on_c, 0, 75, 103
1, 53930, Note_off_c, 0, 75, 103
1, 53933, Note_on_c, 0, 71, 97
1, 54004, Note_off_c, 0, 71, 97
1, 54042, Note_on_c, 0, 68, 114
1, 54120, Note_off_c, 0, 68, 114
1, 54129, Note_on_c, 0, 65, 112
1, 54207, Note_off_c, 0, 65, 112
1, 54225, Note_on_c, 0, 64, 113
1, 54320, Note_off_c, 0, 64, 113
1, 54335, Note_on_c, 0, 74, 110
1, 54397, Note_off_c, 0, 74, 110
1, 54399, Note_on_c, 0, 72, 91
1, 54418, Note_off_c, 0, 72, 91
1, 54419, Note_on_c, 0, 70, 110
1, 54471, Note_off_c, 0, 70, 110
1, 54475, Note_on_c, 0, 67, 105
1, 54506, Note_off_c, 0, 67, 105
1, 54520, Note_on_c, 0, 65, 109
1, 54546, Note_off_c, 0, 65, 109
1, 54556, Note_on_c, 0, 63, 110
1, 54658, Note_off_c, 0, 63, 110
1, 54776, Note_on_c, 0, 63, 99
1, 54854, Note_off_c, 0, 63, 99
1, 54874, Note_on_c, 0, 69, 91
1, 54900, Note_off_c, 0, 69, 91
1, 54911, Note_on_c, 0, 72, 123
1, 54978, Note_off_c, 0, 72, 123
1, 54981, Note_on_c, 0, 70, 115
1, 55281, Note_off_c, 0, 70, 115
1, 55289, Note_on_c, 0, 65, 100
1, 55338, Note_off_c, 0, 65, 100
1, 55347, Note_on_c, 0, 68, 110
1, 55422, Note_off_c, 0, 68, 110
1, 55425, Note_on_c, 0, 67, 107
1, 55499, Note_off_c, 0, 67, 107
1, 55504, Note_on_c, 0, 65, 110
1, 55610, Note_off_c, 0, 65, 110
1, 55875, Note_on_c, 0, 63, 114
1, 55953, Note_off_c, 0, 63, 114
1, 55988, Note_on_c, 0, 67, 97
1, 56048, Note_off_c, 0, 67, 97
1, 56051, Note_on_c, 0, 69, 110
1, 56083, Note_off_c, 0, 69, 110
1, 56085, Note_on_c, 0, 70, 112
1, 56124, Note_off_c, 0, 70, 112
1, 56171, Note_on_c, 0, 73, 111
1, 56255, Note_off_c, 0, 73, 111
1, 56314, Note_on_c, 0, 63, 113
1, 56396, Note_off_c, 0, 63, 113
1, 56663, Note_on_c, 0, 64, 112
1, 56735, Note_off_c, 0, 64, 112
1, 56742, Note_on_c, 0, 65, 102
1, 56784, Note_off_c, 0, 65, 102
1, 56793, Note_on_c, 0, 68, 106
1, 56827, Note_off_c, 0, 68, 106
1, 56844, Note_on_c, 0, 72, 108
1, 56908, Note_off_c, 0, 72, 108
1, 56914, Note_on_c, 0, 70, 112
1, 56985, Note_off_c, 0, 70, 112
1, 56994, Note_on_c, 0, 69, 109
1, 57072, Note_off_c, 0, 69, 109
1, 57091, Note_on_c, 0, 68, 111
1, 57190, Note_off_c, 0, 68, 111
1, 57199, Note_on_c, 0, 67, 107
1, 57271, Note_off_c, 0, 67, 107
1, 57303, Note_on_c, 0, 65, 110
1, 57375, Note_off_c, 0, 65, 110
1, 57395, Note_on_c, 0, 65, 106
1, 57433, Note_off_c, 0, 65, 106
1, 57442, Note_on_c, 0, 66, 97
1, 57540, Note_off_c, 0, 66, 97
1, 57714, Note_on_c, 0, 66, 106
1, 57795, Note_off_c, 0, 66, 106
1, 57813, Note_on_c, 0, 62, 102
1, 57871, Note_off_c, 0, 62, 102
1, 57893, Note_on_c, 0, 58, 95
1, 57953, Note_off_c, 0, 58, 95
1, 58057, Note_on_c, 0, 63, 109
1, 58266, Note_off_c, 0, 63, 109
1, 58457, Note_on_c, 0, 65, 110
1, 58514, Note_off_c, 0, 65, 110
1, 59693, Note_on_c, 0, 60, 107
1, 59758, Note_off_c, 0, 60, 107
1, 59772, Note_on_c, 0, 62, 116
1, 59855, Note_off_c, 0, 62, 116
1, 59861, Note_on_c, 0, 63, 112
1, 59940, Note_off_c, 0, 63, 112
1, 59958, Note_on_c, 0, 65, 114
1, 60049, Note_off_c, 0, 65, 114
1, 60052, Note_on_c, 0, 67, 114
1, 60120, Note_off_c, 0, 67, 114
1, 60148, Note_on_c, 0, 69, 109
1, 60238, Note_off_c, 0, 69, 109
1, 60252, Note_on_c, 0, 70, 114
1, 60326, Note_off_c, 0, 70, 114
1, 60347, Note_on_c, 0, 70, 110
1, 60413, Note_off_c, 0, 70, 110
1, 60421, Note_on_c, 0, 71, 107
1, 60552, Note_off_c, 0, 71, 107
1, 60558, Note_on_c, 0, 68, 108
1, 60633, Note_off_c, 0, 68, 108
1, 60655, Note_on_c, 0, 66, 106
1, 60720, Note_off_c, 0, 66, 106
1, 60745, Note_on_c, 0, 64, 103
1, 60837, Note_off_c, 0, 64, 103
1, 60849, Note_on_c, 0, 63, 109
1, 60933, Note_off_c, 0, 63, 109
1, 60942, Note_on_c, 0, 61, 102
1, 61015, Note_off_c, 0, 61, 102
1, 61213, Note_on_c, 0, 70, 110
1, 61298, Note_off_c, 0, 70, 110
1, 61317, Note_on_c, 0, 67, 103
1, 61395, Note_off_c, 0, 67, 103
1, 61404, Note_on_c, 0, 65, 109
1, 61474, Note_off_c, 0, 65, 109
1, 61503, Note_on_c, 0, 63, 113
1, 61582, Note_off_c, 0, 63, 113
1, 61593, Note_on_c, 0, 62, 116
1, 61675, Note_off_c, 0, 62, 116
1, 61684, Note_on_c, 0, 61, 101
1, 61776, Note_off_c, 0, 61, 101
1, 61991, Note_on_c, 0, 63, 99
1, 62041, Note_off_c, 0, 63, 99
1, 62171, Note_on_c, 0, 68, 108
1, 62263, Note_off_c, 0, 68, 108
1, 62283, Note_on_c, 0, 65, 107
1, 62364, Note_off_c, 0, 65, 107
1, 62374, Note_on_c, 0, 66, 104
1, 62451, Note_off_c, 0, 66, 104
1, 62459, Note_on_c, 0, 65, 105
1, 62535, Note_off_c, 0, 65, 105
1, 62543, Note_on_c, 0, 63, 109
1, 62622, Note_off_c, 0, 63, 109
1, 62644, Note_on_c, 0, 61, 103
1, 62711, Note_off_c, 0, 61, 103
1, 62715, Note_on_c, 0, 62, 110
1, 62804, Note_off_c, 0, 62, 110
1, 62810, Note_on_c, 0, 58, 97
1, 62910, Note_off_c, 0, 58, 97
1, 62920, Note_on_c, 0, 55, 9
1, 62977, Note_off_c, 0, 55, 9
1, 62996, Note_on_c, 0, 58, 107
1, 63168, Note_off_c, 0, 58, 107
1, 63789, Note_on_c, 0, 63, 121
1, 63865, Note_off_c, 0, 63, 121
1, 63876, Note_on_c, 0, 61, 116
1, 63924, Note_off_c, 0, 61, 116
1, 63938, Note_on_c, 0, 58, 104
1, 64046, Note_off_c, 0, 58, 104
1, 64529, Note_on_c, 0, 62, 107
1, 64649, Note_off_c, 0, 62, 107
1, 64649, End_track
0, 0, End_of_file
