0, 0, Header, 1, 1, 192
1, 0, Start_track
1, 0, Title_t, "Melody"
1, 0, Tempo, 233463
1, 0, Key_signature, -3, "major"
1, 0, Time_signature, 4, 2, 24, 8
1, 2323, Note_on_c, 0, 55, 102
1, 2427, Note_off_c, 0, 55, 102
1, 2457, Note_on_c, 0, 57, 103
1, 2540, Note_off_c, 0, 57, 103
1, 2543, Note_on_c, 0, 59, 101
1, 2616, Note_off_c, 0, 59, 101
1, 2662, Note_on_c, 0, 62, 111
1, 2729, Note_off_c, 0, 62, 111
1, 2729, Note_on_c, 0, 60, 106
1, 2829, Note_on_c, 0, 59, 97
1, 2829, Note_off_c, 0, 60, 106
1, 2909, Note_off_c, 0, 59, 97
1, 2909, Note_on_c, 0, 60, 99
1, 3013, Note_off_c, 0, 60, 99
1, 3029, Note_on_c, 0, 63, 118
1, 3099, Note_off_c, 0, 63, 118
1, 3119, Note_on_c, 0, 62, 113
1, 3202, Note_off_c, 0, 62, 113
1, 3215, Note_on_c, 0, 61, 110
1, 3298, Note_off_c, 0, 61, 110
1, 3298, Note_on_c, 0, 62, 111
1, 3388, Note_off_c, 0, 62, 111
1, 3424, Note_on_c, 0, 65, 110
1, 3514, Note_off_c, 0, 65, 110
1, 3524, Note_on_c, 0, 63, 115
1, 3594, Note_off_c, 0, 63, 115
1, 3604, Note_on_c, 0, 62, 111
1, 3681, Note_off_c, 0, 62, 111
1, 3694, Note_on_c, 0, 63, 115
1, 3764, Note_off_c, 0, 63, 115
1, 3810, Note_on_c, 0, 67, 113
1, 3883, Note_off_c, 0, 67, 113
1, 3903, Note_on_c, 0, 65, 109
1, 4064, Note_on_c, 0, 67, 106
1, 4064, Note_off_c, 0, 65, 109
1, 4151, Note_off_c, 0, 67, 106
1, 4184, Note_on_c, 0, 63, 111
1, 4459, Note_off_c, 0, 63, 111
1, 5124, Note_on_c, 0, 69, 115
1, 5197, Note_off_c, 0, 69, 115
1, 5204, Note_on_c, 0, 72, 124
1, 5623, Note_off_c, 0, 72, 124
1, 5642, Note_on_c, 0, 71, 114
1, 5715, Note_off_c, 0, 71, 114
1, 5715, Note_on_c, 0, 70, 120
1, 5778, Note_off_c, 0, 70, 120
1, 5786, Note_on_c, 0, 68, 120
1, 5873, Note_off_c, 0, 68, 120
1, 5901, Note_on_c, 0, 63, 116
1, 5991, Note_off_c, 0, 63, 116
1, 5994, Note_on_c, 0, 64, 118
1, 6094, Note_off_c, 0, 64, 118
1, 6094, Note_on_c, 0, 67, 118
1, 6171, Note_off_c, 0, 67, 118
1, 6177, Note_on_c, 0, 65, 109
1, 6247, Note_off_c, 0, 65, 109
1, 6257, Note_on_c, 0, 67, 110
1, 6347, Note_off_c, 0, 67, 110
1, 6353, Note_on_c, 0, 68, 118
1, 6440, Note_off_c, 0, 68, 118
1, 6446, Note_on_c, 0, 70, 111
1, 6536, Note_on_c, 0, 67, 110
1, 6536, Note_off_c, 0, 70, 111
1, 6633, Note_off_c, 0, 67, 110
1, 6646, Note_on_c, 0, 65, 110
1, 6706, Note_off_c, 0, 65, 110
1, 6706, Note_on_c, 0, 63, 114
1, 6836, Note_off_c, 0, 63, 114
1, 6836, Note_on_c, 0, 60, 99
1, 6913, Note_off_c, 0, 60, 99
1, 6929, Note_on_c, 0, 62, 111
1, 7549, Note_off_c, 0, 62, 111
1, 7562, Note_on_c, 0, 60, 104
1, 7652, Note_off_c, 0, 60, 104
1, 7655, Note_on_c, 0, 62, 115
1, 7826, Note_off_c, 0, 62, 115
1, 7839, Note_on_c, 0, 57, 103
1, 7986, Note_off_c, 0, 57, 103
1, 8549, Note_on_c, 0, 54, 107
1, 8632, Note_off_c, 0, 54, 107
1, 8635, Note_on_c, 0, 56, 107
1, 8702, Note_off_c, 0, 56, 107
1, 8712, Note_on_c, 0, 58, 106
1, 8795, Note_off_c, 0, 58, 106
1, 8798, Note_on_c, 0, 60, 111
1, 8885, Note_off_c, 0, 60, 111
1, 8898, Note_on_c, 0, 63, 112
1, 8991, Note_off_c, 0, 63, 112
1, 9001, Note_on_c, 0, 66, 101
1, 9084, Note_off_c, 0, 66, 101
1, 9090, Note_on_c, 0, 68, 110
1, 9150, Note_off_c, 0, 68, 110
1, 9150, Note_on_c, 0, 70, 122
1, 9566, Note_off_c, 0, 70, 122
1, 9654, Note_on_c, 0, 55, 107
1, 9699, Note_off_c, 0, 55, 107
1, 9704, Note_on_c, 0, 57, 105
1, 9752, Note_off_c, 0, 57, 105
1, 9770, Note_on_c, 0, 59, 100
1, 9820, Note_off_c, 0, 59, 100
1, 9829, Note_on_c, 0, 61, 106
1, 9872, Note_off_c, 0, 61, 106
1, 9882, Note_on_c, 0, 63, 116
1, 9936, Note_off_c, 0, 63, 116
1, 9945, Note_on_c, 0, 67, 111
1, 10024, Note_off_c, 0, 67, 111
1, 10034, Note_on_c, 0, 69, 117
1, 10085, Note_off_c, 0, 69, 117
1, 10094, Note_on_c, 0, 70, 115
1, 10597, Note_off_c, 0, 70, 115
1, 10598, Note_on_c, 0, 68, 113
1, 10668, Note_off_c, 0, 68, 113
1, 10688, Note_on_c, 0, 67, 111
1, 10798, Note_off_c, 0, 67, 111
1, 10800, Note_on_c, 0, 63, 113
1, 10919, Note_off_c, 0, 63, 113
1, 11381, Note_on_c, 0, 69, 107
1, 11434, Note_off_c, 0, 69, 107
1, 11446, Note_on_c, 0, 71, 120
1, 11694, Note_off_c, 0, 71, 120
1, 11818, Note_on_c, 0, 71, 119
1, 11928, Note_off_c, 0, 71, 119
1, 11968, Note_on_c, 0, 67, 108
1, 12012, Note_off_c, 0, 67, 108
1, 12024, Note_on_c, 0, 69, 116
1, 12107, Note_off_c, 0, 69, 116
1, 12116, Note_on_c, 0, 71, 120
1, 12206, Note_off_c, 0, 71, 120
1, 12212, Note_on_c, 0, 69, 113
1, 12307, Note_off_c, 0, 69, 113
1, 12321, Note_on_c, 0, 65, 103
1, 12373, Note_off_c, 0, 65, 103
1, 12385, Note_on_c, 0, 67, 111
1, 12452, Note_off_c, 0, 67, 111
1, 12499, Note_on_c, 0, 69, 117
1, 12570, Note_off_c, 0, 69, 117
1, 12585, Note_on_c, 0, 67, 112
1, 12668, Note_off_c, 0, 67, 112
1, 12683, Note_on_c, 0, 63, 112
1, 12756, Note_off_c, 0, 63, 112
1, 12762, Note_on_c, 0, 65, 109
1, 12825, Note_off_c, 0, 65, 109
1, 12863, Note_on_c, 0, 67, 113
1, 12946, Note_off_c, 0, 67, 113
1, 12956, Note_on_c, 0, 65, 107
1, 13289, Note_off_c, 0, 65, 107
1, 13324, Note_on_c, 0, 63, 110
1, 13361, Note_off_c, 0, 63, 110
1, 13366, Note_on_c, 0, 65, 110
1, 13403, Note_off_c, 0, 65, 110
1, 13410, Note_on_c, 0, 63, 106
1, 13453, Note_off_c, 0, 63, 106
1, 13465, Note_on_c, 0, 65, 111
1, 13525, Note_off_c, 0, 65, 111
1, 13545, Note_on_c, 0, 63, 120
1, 13635, Note_off_c, 0, 63, 120
1, 13638, Note_on_c, 0, 60, 108
1, 13676, Note_off_c, 0, 60, 108
1, 13692, Note_on_c, 0, 63, 120
1, 13757, Note_off_c, 0, 63, 120
1, 13768, Note_on_c, 0, 66, 111
1, 13831, Note_off_c, 0, 66, 111
1, 13841, Note_on_c, 0, 65, 113
1, 13881, Note_on_c, 0, 63, 116
1, 13881, Note_off_c, 0, 65, 113
1, 13924, Note_off_c, 0, 63, 116
1, 13935, Note_on_c, 0, 65, 113
1, 13976, Note_off_c, 0, 65, 113
1, 13989, Note_on_c, 0, 67, 118
1, 14049, Note_off_c, 0, 67, 118
1, 14053, Note_on_c, 0, 66, 116
1, 14095, Note_off_c, 0, 66, 116
1, 14108, Note_on_c, 0, 64, 116
1, 14151, Note_off_c, 0, 64, 116
1, 14161, Note_on_c, 0, 67, 111
1, 14211, Note_off_c, 0, 67, 111
1, 14233, Note_on_c, 0, 72, 120
1, 14286, Note_off_c, 0, 72, 120
1, 14296, Note_on_c, 0, 71, 122
1, 14386, Note_off_c, 0, 71, 122
1, 14395, Note_on_c, 0, 70, 116
1, 14582, Note_off_c, 0, 70, 116
1, 15102, Note_on_c, 0, 70, 112
1, 15151, Note_off_c, 0, 70, 112
1, 15160, Note_on_c, 0, 72, 117
1, 15371, Note_off_c, 0, 72, 117
1, 15402, Note_on_c, 0, 67, 111
1, 15495, Note_off_c, 0, 67, 111
1, 15505, Note_on_c, 0, 70, 111
1, 15588, Note_off_c, 0, 70, 111
1, 15589, Note_on_c, 0, 68, 112
1, 15682, Note_off_c, 0, 68, 112
1, 15693, Note_on_c, 0, 63, 114
1, 15780, Note_off_c, 0, 63, 114
1, 15783, Note_on_c, 0, 64, 116
1, 15910, Note_off_c, 0, 64, 116
1, 15912, Note_on_c, 0, 67, 115
1, 15974, Note_off_c, 0, 67, 115
1, 15989, Note_on_c, 0, 65, 105
1, 16069, Note_off_c, 0, 65, 105
1, 16092, Note_on_c, 0, 60, 111
1, 16175, Note_off_c, 0, 60, 111
1, 16178, Note_on_c, 0, 58, 108
1, 16258, Note_off_c, 0, 58, 108
1, 16268, Note_on_c, 0, 56, 109
1, 16351, Note_off_c, 0, 56, 109
1, 16364, Note_on_c, 0, 55, 112
1, 16461, Note_off_c, 0, 55, 112
1, 16471, Note_on_c, 0, 57, 106
1, 16554, Note_off_c, 0, 57, 106
1, 16567, Note_on_c, 0, 59, 106
1, 16627, Note_off_c, 0, 59, 106
1, 16663, Note_on_c, 0, 62, 112
1, 16743, Note_off_c, 0, 62, 112
1, 16753, Note_on_c, 0, 60, 109
1, 16846, Note_off_c, 0, 60, 109
1, 16846, Note_on_c, 0, 62, 110
1, 16953, Note_off_c, 0, 62, 110
1, 16973, Note_on_c, 0, 63, 103
1, 17063, Note_off_c, 0, 63, 103
1, 17073, Note_on_c, 0, 65, 102
1, 17126, Note_off_c, 0, 65, 102
1, 17139, Note_on_c, 0, 67, 111
1, 17259, Note_off_c, 0, 67, 111
1, 17295, Note_on_c, 0, 62, 113
1, 17382, Note_off_c, 0, 62, 113
1, 17388, Note_on_c, 0, 65, 109
1, 17492, Note_off_c, 0, 65, 109
1, 17506, Note_on_c, 0, 63, 123
1, 17559, Note_off_c, 0, 63, 123
1, 17599, Note_on_c, 0, 60, 112
1, 17672, Note_off_c, 0, 60, 112
1, 17683, Note_on_c, 0, 55, 100
1, 17752, Note_off_c, 0, 55, 100
1, 17802, Note_on_c, 0, 54, 112
1, 17869, Note_off_c, 0, 54, 112
1, 17878, Note_on_c, 0, 56, 108
1, 17961, Note_off_c, 0, 56, 108
1, 17968, Note_on_c, 0, 58, 102
1, 18018, Note_off_c, 0, 58, 102
1, 18024, Note_on_c, 0, 60, 108
1, 18074, Note_off_c, 0, 60, 108
1, 18086, Note_on_c, 0, 63, 117
1, 18150, Note_off_c, 0, 63, 117
1, 18153, Note_on_c, 0, 66, 106
1, 18187, Note_off_c, 0, 66, 106
1, 18191, Note_on_c, 0, 68, 117
1, 18243, Note_off_c, 0, 68, 117
1, 18250, Note_on_c, 0, 70, 121
1, 18415, Note_off_c, 0, 70, 121
1, 18452, Note_on_c, 0, 58, 107
1, 18498, Note_off_c, 0, 58, 107
1, 18504, Note_on_c, 0, 59, 108
1, 18564, Note_off_c, 0, 59, 108
1, 18570, Note_on_c, 0, 61, 113
1, 18630, Note_off_c, 0, 61, 113
1, 18635, Note_on_c, 0, 63, 106
1, 18680, Note_off_c, 0, 63, 106
1, 18708, Note_on_c, 0, 67, 101
1, 18762, Note_off_c, 0, 67, 101
1, 18790, Note_on_c, 0, 71, 109
1, 18817, Note_off_c, 0, 71, 109
1, 18843, Note_on_c, 0, 75, 122
1, 19218, Note_off_c, 0, 75, 122
1, 19306, Note_on_c, 0, 74, 114
1, 19367, Note_off_c, 0, 74, 114
1, 19376, Note_on_c, 0, 72, 108
1, 19428, Note_off_c, 0, 72, 108
1, 19442, Note_on_c, 0, 71, 102
1, 19495, Note_off_c, 0, 71, 102
1, 19523, Note_on_c, 0, 67, 112
1, 19637, Note_off_c, 0, 67, 112
1, 19640, Note_on_c, 0, 69, 113
1, 19942, Note_off_c, 0, 69, 113
1, 20981, Note_on_c, 0, 77, 106
1, 21012, Note_off_c, 0, 77, 106
1, 21015, Note_on_c, 0, 79, 125
1, 21492, Note_off_c, 0, 79, 125
1, 21574, Note_on_c, 0, 77, 110
1, 21637, Note_off_c, 0, 77, 110
1, 21647, Note_on_c, 0, 75, 114
1, 21751, Note_off_c, 0, 75, 114
1, 21840, Note_on_c, 0, 67, 107
1, 21875, Note_off_c, 0, 67, 107
1, 21877, Note_on_c, 0, 69, 116
1, 21950, Note_off_c, 0, 69, 116
1, 21973, Note_on_c, 0, 74, 111
1, 22332, Note_off_c, 0, 74, 111
1, 22342, Note_on_c, 0, 73, 115
1, 22409, Note_off_c, 0, 73, 115
1, 22409, Note_on_c, 0, 71, 116
1, 22523, Note_off_c, 0, 71, 116
1, 22539, Note_on_c, 0, 67, 109
1, 22626, Note_off_c, 0, 67, 109
1, 22629, Note_on_c, 0, 69, 107
1, 22686, Note_off_c, 0, 69, 107
1, 22692, Note_on_c, 0, 71, 117
1, 22749, Note_off_c, 0, 71, 117
1, 22775, Note_on_c, 0, 67, 114
1, 22855, Note_off_c, 0, 67, 114
1, 22886, Note_on_c, 0, 63, 114
1, 23034, Note_off_c, 0, 63, 114
1, 23435, Note_on_c, 0, 70, 100
1, 23502, Note_off_c, 0, 70, 100
1, 23508, Note_on_c, 0, 73, 110
1, 23726, Note_off_c, 0, 73, 110
1, 23736, Note_on_c, 0, 72, 115
1, 24179, Note_off_c, 0, 72, 115
1, 24199, Note_on_c, 0, 70, 109
1, 24279, Note_off_c, 0, 70, 109
1, 24285, Note_on_c, 0, 68, 110
1, 24385, Note_off_c, 0, 68, 110
1, 24395, Note_on_c, 0, 63, 107
1, 24458, Note_off_c, 0, 63, 107
1, 24470, Note_on_c, 0, 64, 108
1, 24578, Note_off_c, 0, 64, 108
1, 24585, Note_on_c, 0, 67, 114
1, 24662, Note_off_c, 0, 67, 114
1, 24677, Note_on_c, 0, 65, 105
1, 24746, Note_off_c, 0, 65, 105
1, 24751, Note_on_c, 0, 67, 112
1, 24851, Note_off_c, 0, 67, 112
1, 24872, Note_on_c, 0, 68, 111
1, 24957, Note_off_c, 0, 68, 111
1, 24980, Note_on_c, 0, 65, 95
1, 25016, Note_off_c, 0, 65, 95
1, 25043, Note_on_c, 0, 70, 111
1, 25326, Note_off_c, 0, 70, 111
1, 25358, Note_on_c, 0, 68, 112
1, 25441, Note_off_c, 0, 68, 112
1, 25457, Note_on_c, 0, 67, 108
1, 25530, Note_off_c, 0, 67, 108
1, 25543, Note_on_c, 0, 63, 120
1, 25606, Note_off_c, 0, 63, 120
1, 25619, Note_on_c, 0, 62, 110
1, 25709, Note_off_c, 0, 62, 110
1, 25712, Note_on_c, 0, 65, 107
1, 25792, Note_off_c, 0, 65, 107
1, 25796, Note_on_c, 0, 63, 115
1, 25900, Note_off_c, 0, 63, 115
1, 25914, Note_on_c, 0, 60, 107
1, 25982, Note_off_c, 0, 60, 107
1, 25999, Note_on_c, 0, 59, 104
1, 26071, Note_off_c, 0, 59, 104
1, 26091, Note_on_c, 0, 62, 111
1, 26151, Note_off_c, 0, 62, 111
1, 26159, Note_on_c, 0, 60, 103
1, 26269, Note_off_c, 0, 60, 103
1, 26280, Note_on_c, 0, 55, 104
1, 26363, Note_off_c, 0, 55, 104
1, 26363, Note_on_c, 0, 53, 104
1, 26463, Note_off_c, 0, 53, 104
1, 26476, Note_on_c, 0, 51, 100
1, 26551, Note_off_c, 0, 51, 100
1, 26551, Note_on_c, 0, 55, 96
1, 26797, Note_off_c, 0, 55, 96
1, 26857, Note_on_c, 0, 51, 91
1, 26927, Note_off_c, 0, 51, 91
1, 26929, Note_on_c, 0, 54, 97
1, 27090, Note_off_c, 0, 54, 97
1, 27246, Note_on_c, 0, 56, 110
1, 27316, Note_off_c, 0, 56, 110
1, 27319, Note_on_c, 0, 58, 108
1, 27369, Note_off_c, 0, 58, 108
1, 27376, Note_on_c, 0, 60, 104
1, 27429, Note_off_c, 0, 60, 104
1, 27442, Note_on_c, 0, 63, 116
1, 27502, Note_off_c, 0, 63, 116
1, 27507, Note_on_c, 0, 68, 114
1, 27547, Note_off_c, 0, 68, 114
1, 27575, Note_on_c, 0, 70, 112
1, 27648, Note_off_c, 0, 70, 112
1, 27775, Note_on_c, 0, 58, 90
1, 27855, Note_off_c, 0, 58, 90
1, 28016, Note_on_c, 0, 59, 100
1, 28083, Note_off_c, 0, 59, 100
1, 28089, Note_on_c, 0, 67, 111
1, 28186, Note_off_c, 0, 67, 111
1, 28196, Note_on_c, 0, 62, 109
1, 28253, Note_off_c, 0, 62, 109
1, 28256, Note_on_c, 0, 59, 101
1, 28326, Note_off_c, 0, 59, 101
1, 28349, Note_on_c, 0, 56, 89
1, 28432, Note_off_c, 0, 56, 89
1, 28435, Note_on_c, 0, 62, 110
1, 28733, Note_off_c, 0, 62, 110
1, 28740, Note_on_c, 0, 60, 98
1, 28781, Note_off_c, 0, 60, 98
1, 28790, Note_on_c, 0, 62, 110
1, 28902, Note_off_c, 0, 62, 110
1, 28912, Note_on_c, 0, 63, 114
1, 29105, Note_off_c, 0, 63, 114
1, 30056, Note_on_c, 0, 60, 113
1, 30109, Note_off_c, 0, 60, 113
1, 30119, Note_on_c, 0, 59, 105
1, 30206, Note_off_c, 0, 59, 105
1, 30209, Note_on_c, 0, 62, 113
1, 30299, Note_off_c, 0, 62, 113
1, 30305, Note_on_c, 0, 60, 104
1, 30398, Note_off_c, 0, 60, 104
1, 30417, Note_on_c, 0, 62, 111
1, 30490, Note_off_c, 0, 62, 111
1, 30507, Note_on_c, 0, 63, 100
1, 30597, Note_off_c, 0, 63, 100
1, 30620, Note_on_c, 0, 65, 98
1, 30670, Note_off_c, 0, 65, 98
1, 30679, Note_on_c, 0, 67, 112
1, 30762, Note_off_c, 0, 67, 112
1, 30768, Note_on_c, 0, 63, 117
1, 30861, Note_off_c, 0, 63, 117
1, 30866, Note_on_c, 0, 60, 111
1, 30943, Note_off_c, 0, 60, 111
1, 31021, Note_on_c, 0, 56, 105
1, 31059, Note_off_c, 0, 56, 105
1, 31067, Note_on_c, 0, 65, 107
1, 31174, Note_off_c, 0, 65, 107
1, 31180, Note_on_c, 0, 62, 113
1, 31247, Note_off_c, 0, 62, 113
1, 31247, Note_on_c, 0, 59, 103
1, 31320, Note_off_c, 0, 59, 103
1, 31366, Note_on_c, 0, 62, 112
1, 31459, Note_off_c, 0, 62, 112
1, 31470, Note_on_c, 0, 60, 103
1, 31538, Note_off_c, 0, 60, 103
1, 31558, Note_on_c, 0, 55, 96
1, 31599, Note_off_c, 0, 55, 96
1, 31614, Note_on_c, 0, 57, 97
1, 31679, Note_off_c, 0, 57, 97
1, 31694, Note_on_c, 0, 58, 91
1, 31734, Note_off_c, 0, 58, 91
1, 31753, Note_on_c, 0, 59, 103
1, 31803, Note_off_c, 0, 59, 103
1, 31818, Note_on_c, 0, 60, 106
1, 31888, Note_off_c, 0, 60, 106
1, 31901, Note_on_c, 0, 62, 109
1, 31981, Note_off_c, 0, 62, 109
1, 31991, Note_on_c, 0, 63, 101
1, 32105, Note_off_c, 0, 63, 101
1, 32105, Note_on_c, 0, 65, 98
1, 32198, Note_off_c, 0, 65, 98
1, 32198, Note_on_c, 0, 67, 112
1, 32291, Note_off_c, 0, 67, 112
1, 32304, Note_on_c, 0, 60, 91
1, 32411, Note_off_c, 0, 60, 91
1, 32451, Note_on_c, 0, 64, 91
1, 32504, Note_off_c, 0, 64, 91
1, 32520, Note_on_c, 0, 67, 101
1, 32560, Note_off_c, 0, 67, 101
1, 32606, Note_on_c, 0, 72, 118
1, 32857, Note_off_c, 0, 72, 118
1, 32880, Note_on_c, 0, 70, 115
1, 32977, Note_off_c, 0, 70, 115
1, 32982, Note_on_c, 0, 68, 114
1, 33062, Note_off_c, 0, 68, 114
1, 33093, Note_on_c, 0, 65, 90
1, 33130, Note_off_c, 0, 65, 90
1, 33264, Note_on_c, 0, 68, 115
1, 33350, Note_off_c, 0, 68, 115
1, 33356, Note_on_c, 0, 70, 110
1, 33913, Note_off_c, 0, 70, 110
1, 33953, Note_on_c, 0, 67, 108
1, 34030, Note_off_c, 0, 67, 108
1, 34037, Note_on_c, 0, 68, 104
1, 34124, Note_off_c, 0, 68, 104
1, 34134, Note_on_c, 0, 67, 104
1, 34182, Note_off_c, 0, 67, 104
1, 34218, Note_on_c, 0, 63, 114
1, 34301, Note_off_c, 0, 63, 114
1, 34302, Note_on_c, 0, 59, 106
1, 34389, Note_off_c, 0, 59, 106
1, 34414, Note_on_c, 0, 56, 109
1, 34491, Note_off_c, 0, 56, 109
1, 34493, Note_on_c, 0, 55, 95
1, 34581, Note_off_c, 0, 55, 95
1, 34590, Note_on_c, 0, 57, 107
1, 34673, Note_off_c, 0, 57, 107
1, 34680, Note_on_c, 0, 59, 100
1, 34763, Note_off_c, 0, 59, 100
1, 34763, Note_on_c, 0, 62, 107
1, 34860, Note_off_c, 0, 62, 107
1, 34860, Note_on_c, 0, 60, 105
1, 34953, Note_off_c, 0, 60, 105
1, 34959, Note_on_c, 0, 62, 108
1, 35039, Note_off_c, 0, 62, 108
1, 35049, Note_on_c, 0, 63, 106
1, 35149, Note_off_c, 0, 63, 106
1, 35172, Note_on_c, 0, 65, 105
1, 35235, Note_off_c, 0, 65, 105
1, 35235, Note_on_c, 0, 67, 111
1, 35328, Note_off_c, 0, 67, 111
1, 35331, Note_on_c, 0, 62, 105
1, 35408, Note_off_c, 0, 62, 105
1, 35418, Note_on_c, 0, 65, 111
1, 35501, Note_off_c, 0, 65, 111
1, 35501, Note_on_c, 0, 62, 105
1, 35578, Note_off_c, 0, 62, 105
1, 35578, Note_on_c, 0, 63, 120
1, 35678, Note_off_c, 0, 63, 120
1, 35698, Note_on_c, 0, 60, 111
1, 35795, Note_off_c, 0, 60, 111
1, 36060, Note_on_c, 0, 54, 97
1, 36130, Note_off_c, 0, 54, 97
1, 36130, Note_on_c, 0, 56, 107
1, 36187, Note_off_c, 0, 56, 107
1, 36187, Note_on_c, 0, 58, 104
1, 36230, Note_off_c, 0, 58, 104
1, 36236, Note_on_c, 0, 60, 97
1, 36282, Note_off_c, 0, 60, 97
1, 36282, Note_on_c, 0, 63, 109
1, 36339, Note_off_c, 0, 63, 109
1, 36339, Note_on_c, 0, 66, 108
1, 36396, Note_off_c, 0, 66, 108
1, 36396, Note_on_c, 0, 70, 107
1, 36456, Note_off_c, 0, 70, 107
1, 36472, Note_on_c, 0, 73, 113
1, 36602, Note_off_c, 0, 73, 113
1, 36833, Note_on_c, 0, 59, 102
1, 36879, Note_off_c, 0, 59, 102
1, 36889, Note_on_c, 0, 62, 106
1, 36972, Note_off_c, 0, 62, 106
1, 36985, Note_on_c, 0, 69, 113
1, 37099, Note_off_c, 0, 69, 113
1, 37105, Note_on_c, 0, 67, 99
1, 37175, Note_off_c, 0, 67, 99
1, 37181, Note_on_c, 0, 69, 111
1, 37227, Note_off_c, 0, 69, 111
1, 37240, Note_on_c, 0, 67, 112
1, 37303, Note_off_c, 0, 67, 112
1, 37327, Note_on_c, 0, 68, 111
1, 37395, Note_off_c, 0, 68, 111
1, 37421, Note_on_c, 0, 72, 117
1, 37478, Note_off_c, 0, 72, 117
1, 37493, Note_on_c, 0, 71, 108
1, 37539, Note_off_c, 0, 71, 108
1, 37871, Note_on_c, 0, 72, 103
1, 37964, Note_off_c, 0, 72, 103
1, 37977, Note_on_c, 0, 74, 118
1, 38164, Note_off_c, 0, 74, 118
1, 38164, Note_on_c, 0, 72, 117
1, 38224, Note_off_c, 0, 72, 117
1, 38237, Note_on_c, 0, 71, 119
1, 38327, Note_off_c, 0, 71, 119
1, 38343, Note_on_c, 0, 68, 118
1, 38416, Note_off_c, 0, 68, 118
1, 38416, Note_on_c, 0, 67, 105
1, 38509, Note_off_c, 0, 67, 105
1, 38515, Note_on_c, 0, 66, 112
1, 38592, Note_off_c, 0, 66, 112
1, 38605, Note_on_c, 0, 65, 111
1, 38692, Note_off_c, 0, 65, 111
1, 38738, Note_on_c, 0, 63, 121
1, 38805, Note_on_c, 0, 62, 112
1, 38805, Note_off_c, 0, 63, 121
1, 38878, Note_off_c, 0, 62, 112
1, 38924, Note_on_c, 0, 60, 112
1, 39017, Note_off_c, 0, 60, 112
1, 39028, Note_on_c, 0, 59, 108
1, 39101, Note_off_c, 0, 59, 108
1, 39109, Note_on_c, 0, 55, 101
1, 39189, Note_off_c, 0, 55, 101
1, 39202, Note_on_c, 0, 57, 103
1, 39302, Note_off_c, 0, 57, 103
1, 39305, Note_on_c, 0, 59, 102
1, 39372, Note_off_c, 0, 59, 102
1, 39378, Note_on_c, 0, 60, 108
1, 39482, Note_off_c, 0, 60, 108
1, 39518, Note_on_c, 0, 62, 108
1, 39618, Note_off_c, 0, 62, 108
1, 39618, Note_on_c, 0, 63, 101
1, 39711, Note_off_c, 0, 63, 101
1, 39711, Note_on_c, 0, 65, 100
1, 39778, Note_off_c, 0, 65, 100
1, 39778, Note_on_c, 0, 67, 112
1, 39865, Note_off_c, 0, 67, 112
1, 39875, Note_on_c, 0, 72, 107
1, 39965, Note_off_c, 0, 72, 107
1, 39969, Note_on_c, 0, 67, 110
1, 40034, Note_off_c, 0, 67, 110
1, 40041, Note_on_c, 0, 65, 110
1, 40366, Note_off_c, 0, 65, 110
1, 40437, Note_on_c, 0, 63, 108
1, 40496, Note_off_c, 0, 63, 108
1, 40505, Note_on_c, 0, 67, 114
1, 40577, Note_off_c, 0, 67, 114
1, 40619, Note_on_c, 0, 63, 118
1, 40706, Note_off_c, 0, 63, 118
1, 40706, Note_on_c, 0, 62, 111
1, 40803, Note_off_c, 0, 62, 111
1, 40803, Note_on_c, 0, 65, 113
1, 40883, Note_off_c, 0, 65, 113
1, 40883, Note_on_c, 0, 63, 120
1, 40973, Note_off_c, 0, 63, 120
1, 40989, Note_on_c, 0, 60, 113
1, 41133, Note_off_c, 0, 60, 113
1, 41654, Note_on_c, 0, 64, 120
1, 41754, Note_off_c, 0, 64, 120
1, 41758, Note_on_c, 0, 63, 118
1, 41821, Note_off_c, 0, 63, 118
1, 41837, Note_on_c, 0, 64, 119
1, 41922, Note_off_c, 0, 64, 119
1, 41925, Note_on_c, 0, 67, 113
1, 42015, Note_off_c, 0, 67, 113
1, 42025, Note_on_c, 0, 65, 106
1, 42108, Note_off_c, 0, 65, 106
1, 42138, Note_on_c, 0, 60, 101
1, 42205, Note_off_c, 0, 60, 101
1, 42218, Note_on_c, 0, 65, 110
1, 42315, Note_off_c, 0, 65, 110
1, 42315, Note_on_c, 0, 68, 118
1, 42412, Note_off_c, 0, 68, 118
1, 42420, Note_on_c, 0, 67, 111
1, 42499, Note_off_c, 0, 67, 111
1, 42518, Note_on_c, 0, 63, 109
1, 42581, Note_off_c, 0, 63, 109
1, 42581, Note_on_c, 0, 67, 111
1, 42674, Note_off_c, 0, 67, 111
1, 42707, Note_on_c, 0, 70, 117
1, 42777, Note_on_c, 0, 68, 115
1, 42777, Note_off_c, 0, 70, 117
1, 42894, Note_off_c, 0, 68, 115
1, 42894, Note_on_c, 0, 63, 118
1, 42984, Note_off_c, 0, 63, 118
1, 42997, Note_on_c, 0, 60, 110
1, 43077, Note_off_c, 0, 60, 110
1, 43107, Note_on_c, 0, 56, 105
1, 43180, Note_off_c, 0, 56, 105
1, 43186, Note_on_c, 0, 62, 113
1, 43266, Note_off_c, 0, 62, 113
1, 43282, Note_on_c, 0, 60, 110
1, 43352, Note_off_c, 0, 60, 110
1, 43365, Note_on_c, 0, 58, 104
1, 43465, Note_off_c, 0, 58, 104
1, 43477, Note_on_c, 0, 56, 109
1, 43534, Note_off_c, 0, 56, 109
1, 43542, Note_on_c, 0, 55, 94
1, 43597, Note_off_c, 0, 55, 94
1, 43650, Note_on_c, 0, 57, 107
1, 43713, Note_off_c, 0, 57, 107
1, 43729, Note_on_c, 0, 59, 103
1, 43809, Note_off_c, 0, 59, 103
1, 43839, Note_on_c, 0, 62, 111
1, 43912, Note_off_c, 0, 62, 111
1, 43929, Note_on_c, 0, 60, 109
1, 44002, Note_off_c, 0, 60, 109
1, 44015, Note_on_c, 0, 62, 111
1, 44098, Note_off_c, 0, 62, 111
1, 44121, Note_on_c, 0, 63, 106
1, 44204, Note_off_c, 0, 63, 106
1, 44217, Note_on_c, 0, 65, 104
1, 44297, Note_off_c, 0, 65, 104
1, 44297, Note_on_c, 0, 67, 112
1, 44374, Note_off_c, 0, 67, 112
1, 44397, Note_on_c, 0, 63, 102
1, 44470, Note_off_c, 0, 63, 102
1, 44476, Note_on_c, 0, 65, 111
1, 44593, Note_off_c, 0, 65, 111
1, 44593, Note_on_c, 0, 60, 107
1, 44650, Note_off_c, 0, 60, 107
1, 44650, Note_on_c, 0, 63, 121
1, 44750, Note_off_c, 0, 63, 121
1, 44770, Note_on_c, 0, 60, 112
1, 44835, Note_off_c, 0, 60, 112
1, 44881, Note_on_c, 0, 55, 100
1, 44954, Note_off_c, 0, 55, 100
1, 45024, Note_on_c, 0, 53, 111
1, 45067, Note_off_c, 0, 53, 111
1, 45079, Note_on_c, 0, 54, 105
1, 45131, Note_off_c, 0, 54, 105
1, 45151, Note_on_c, 0, 56, 106
1, 45213, Note_off_c, 0, 56, 106
1, 45249, Note_on_c, 0, 58, 95
1, 45332, Note_off_c, 0, 58, 95
1, 45342, Note_on_c, 0, 60, 112
1, 45399, Note_off_c, 0, 60, 112
1, 45409, Note_on_c, 0, 63, 114
1, 45466, Note_off_c, 0, 63, 114
1, 45512, Note_on_c, 0, 66, 107
1, 45599, Note_off_c, 0, 66, 107
1, 45612, Note_on_c, 0, 68, 104
1, 45709, Note_off_c, 0, 68, 104
1, 45719, Note_on_c, 0, 70, 117
1, 45799, Note_on_c, 0, 71, 114
1, 45799, Note_off_c, 0, 70, 117
1, 45909, Note_off_c, 0, 71, 114
1, 46214, Note_on_c, 0, 70, 108
1, 46254, Note_off_c, 0, 70, 108
1, 46264, Note_on_c, 0, 72, 117
1, 46284, Note_off_c, 0, 72, 117
1, 46284, Note_on_c, 0, 73, 116
1, 46317, Note_off_c, 0, 73, 116
1, 46337, Note_on_c, 0, 74, 115
1, 46494, Note_off_c, 0, 74, 115
1, 46499, Note_on_c, 0, 72, 120
1, 46550, Note_off_c, 0, 72, 120
1, 46559, Note_on_c, 0, 71, 113
1, 46616, Note_off_c, 0, 71, 113
1, 46670, Note_on_c, 0, 67, 99
1, 46727, Note_off_c, 0, 67, 99
1, 46734, Note_on_c, 0, 69, 114
1, 46815, Note_off_c, 0, 69, 114
1, 46835, Note_on_c, 0, 71, 118
1, 46905, Note_off_c, 0, 71, 118
1, 46928, Note_on_c, 0, 69, 106
1, 47001, Note_off_c, 0, 69, 106
1, 47017, Note_on_c, 0, 65, 104
1, 47114, Note_off_c, 0, 65, 104
1, 47560, Note_on_c, 0, 63, 117
1, 47627, Note_off_c, 0, 63, 117
1, 47637, Note_on_c, 0, 65, 110
1, 48385, Note_off_c, 0, 65, 110
1, 48400, Note_on_c, 0, 63, 105
1, 48450, Note_off_c, 0, 63, 105
1, 48457, Note_on_c, 0, 65, 115
1, 48597, Note_off_c, 0, 65, 115
1, 48623, Note_on_c, 0, 63, 119
1, 48710, Note_off_c, 0, 63, 119
1, 48743, Note_on_c, 0, 65, 114
1, 49031, Note_off_c, 0, 65, 114
1, 49044, Note_on_c, 0, 63, 118
1, 49114, Note_off_c, 0, 63, 118
1, 49205, Note_on_c, 0, 65, 9
1, 49357, Note_off_c, 0, 65, 9
1, 49713, Note_on_c, 0, 67, 110
1, 49790, Note_off_c, 0, 67, 110
1, 49806, Note_on_c, 0, 66, 106
1, 49883, Note_off_c, 0, 66, 106
1, 49906, Note_on_c, 0, 63, 117
1, 50003, Note_off_c, 0, 63, 117
1, 50006, Note_on_c, 0, 62, 113
1, 50079, Note_off_c, 0, 62, 113
1, 50103, Note_on_c, 0, 65, 112
1, 50173, Note_off_c, 0, 65, 112
1, 50182, Note_on_c, 0, 63, 117
1, 50259, Note_off_c, 0, 63, 117
1, 50259, Note_on_c, 0, 60, 110
1, 50356, Note_off_c, 0, 60, 110
1, 50367, Note_on_c, 0, 59, 106
1, 50429, Note_off_c, 0, 59, 106
1, 50547, Note_on_c, 0, 59, 108
1, 50624, Note_off_c, 0, 59, 108
1, 50636, Note_on_c, 0, 62, 107
1, 50716, Note_off_c, 0, 62, 107
1, 50722, Note_on_c, 0, 60, 106
1, 50829, Note_off_c, 0, 60, 106
1, 50832, Note_on_c, 0, 62, 108
1, 50899, Note_off_c, 0, 62, 108
1, 50915, Note_on_c, 0, 64, 108
1, 51008, Note_off_c, 0, 64, 108
1, 51014, Note_on_c, 0, 67, 114
1, 51087, Note_off_c, 0, 67, 114
1, 51103, Note_on_c, 0, 65, 110
1, 51210, Note_off_c, 0, 65, 110
1, 51216, Note_on_c, 0, 64, 112
1, 51284, Note_off_c, 0, 64, 112
1, 51307, Note_on_c, 0, 63, 111
1, 51373, Note_off_c, 0, 63, 111
1, 51380, Note_on_c, 0, 62, 102
1, 51454, Note_off_c, 0, 62, 102
1, 51475, Note_on_c, 0, 60, 107
1, 51568, Note_off_c, 0, 60, 107
1, 51584, Note_on_c, 0, 56, 109
1, 51674, Note_off_c, 0, 56, 109
1, 51680, Note_on_c, 0, 55, 101
1, 51773, Note_off_c, 0, 55, 101
1, 51799, Note_on_c, 0, 56, 90
1, 51856, Note_off_c, 0, 56, 90
1, 51856, Note_on_c, 0, 58, 107
1, 51953, Note_off_c, 0, 58, 107
1, 51963, Note_on_c, 0, 60, 100
1, 52033, Note_off_c, 0, 60, 100
1, 52056, Note_on_c, 0, 62, 93
1, 52119, Note_off_c, 0, 62, 93
1, 52152, Note_on_c, 0, 65, 91
1, 52229, Note_off_c, 0, 65, 91
1, 52229, Note_on_c, 0, 70, 111
1, 52510, Note_off_c, 0, 70, 111
1, 52533, Note_on_c, 0, 68, 112
1, 52620, Note_off_c, 0, 68, 112
1, 52623, Note_on_c, 0, 67, 107
1, 52737, Note_off_c, 0, 67, 107
1, 52737, Note_on_c, 0, 63, 114
1, 52814, Note_off_c, 0, 63, 114
1, 52827, Note_on_c, 0, 62, 110
1, 52910, Note_off_c, 0, 62, 110
1, 52933, Note_on_c, 0, 65, 110
1, 53006, Note_off_c, 0, 65, 110
1, 53019, Note_on_c, 0, 63, 116
1, 53119, Note_off_c, 0, 63, 116
1, 53119, Note_on_c, 0, 60, 113
1, 53236, Note_off_c, 0, 60, 113
1, 53700, Note_on_c, 0, 68, 111
1, 53744, Note_off_c, 0, 68, 111
1, 53748, Note_on_c, 0, 70, 120
1, 53820, Note_off_c, 0, 70, 120
1, 53895, Note_on_c, 0, 70, 118
1, 54344, Note_off_c, 0, 70, 118
1, 54380, Note_on_c, 0, 66, 108
1, 54480, Note_off_c, 0, 66, 108
1, 54496, Note_on_c, 0, 70, 101
1, 54593, Note_off_c, 0, 70, 101
1, 54593, Note_on_c, 0, 73, 121
1, 54841, Note_off_c, 0, 73, 121
1, 54844, Note_on_c, 0, 70, 112
1, 54917, Note_off_c, 0, 70, 112
1, 54917, Note_on_c, 0, 66, 110
1, 54987, Note_on_c, 0, 63, 116
1, 54987, Note_off_c, 0, 66, 110
1, 55070, Note_off_c, 0, 63, 116
1, 55161, Note_on_c, 0, 71, 113
1, 55188, Note_off_c, 0, 71, 113
1, 55193, Note_on_c, 0, 72, 118
1, 55419, Note_off_c, 0, 72, 118
1, 55423, Note_on_c, 0, 69, 109
1, 55451, Note_off_c, 0, 69, 109
1, 55464, Note_on_c, 0, 65, 105
1, 55491, Note_off_c, 0, 65, 105
1, 55505, Note_on_c, 0, 62, 104
1, 55605, Note_off_c, 0, 62, 104
1, 55608, Note_on_c, 0, 65, 101
1, 55658, Note_off_c, 0, 65, 101
1, 55658, Note_on_c, 0, 72, 113
1, 55721, Note_off_c, 0, 72, 113
1, 55724, Note_on_c, 0, 71, 116
1, 56287, Note_off_c, 0, 71, 116
1, 56307, Note_on_c, 0, 67, 104
1, 56367, Note_off_c, 0, 67, 104
1, 56369, Note_on_c, 0, 69, 108
1, 56384, Note_off_c, 0, 69, 108
1, 56389, Note_on_c, 0, 71, 116
1, 56438, Note_off_c, 0, 71, 116
1, 56445, Note_on_c, 0, 69, 110
1, 56525, Note_off_c, 0, 69, 110
1, 56535, Note_on_c, 0, 65, 108
1, 56622, Note_off_c, 0, 65, 108
1, 56622, Note_on_c, 0, 62, 111
1, 56719, Note_off_c, 0, 62, 111
1, 56722, Note_on_c, 0, 59, 98
1, 56789, Note_off_c, 0, 59, 98
1, 56792, Note_on_c, 0, 67, 113
1, 56966, Note_off_c, 0, 67, 113
1, 57301, Note_on_c, 0, 67, 116
1, 57371, Note_off_c, 0, 67, 116
1, 57377, Note_on_c, 0, 69, 117
1, 57464, Note_off_c, 0, 69, 117
1, 57483, Note_on_c, 0, 71, 123
1, 57517, Note_off_c, 0, 71, 123
1, 57520, Note_on_c, 0, 72, 125
1, 57596, Note_off_c, 0, 72, 125
1, 57640, Note_on_c, 0, 72, 119
1, 57744, Note_off_c, 0, 72, 119
1, 57750, Note_on_c, 0, 74, 120
1, 58280, Note_off_c, 0, 74, 120
1, 58283, Note_on_c, 0, 72, 109
1, 58316, Note_off_c, 0, 72, 109
1, 58335, Note_on_c, 0, 74, 113
1, 58472, Note_off_c, 0, 74, 113
1, 58485, Note_on_c, 0, 75, 117
1, 58595, Note_off_c, 0, 75, 117
1, 58598, Note_on_c, 0, 74, 114
1, 58678, Note_off_c, 0, 74, 114
1, 59028, Note_on_c, 0, 72, 105
1, 59058, Note_off_c, 0, 72, 105
1, 59079, Note_on_c, 0, 74, 114
1, 59387, Note_off_c, 0, 74, 114
1, 59400, Note_on_c, 0, 73, 113
1, 59440, Note_off_c, 0, 73, 113
1, 59440, Note_on_c, 0, 71, 106
1, 59480, Note_off_c, 0, 71, 106
1, 59493, Note_on_c, 0, 70, 112
1, 59701, Note_off_c, 0, 70, 112
1, 59747, Note_on_c, 0, 64, 94
1, 59830, Note_off_c, 0, 64, 94
1, 59836, Note_on_c, 0, 68, 100
1, 59876, Note_off_c, 0, 68, 100
1, 59876, Note_on_c, 0, 70, 112
1, 59916, Note_off_c, 0, 70, 112
1, 59916, Note_on_c, 0, 75, 116
1, 60144, Note_off_c, 0, 75, 116
1, 60194, Note_on_c, 0, 73, 115
1, 60277, Note_off_c, 0, 73, 115
1, 60310, Note_on_c, 0, 72, 110
1, 60397, Note_off_c, 0, 72, 110
1, 60397, Note_on_c, 0, 67, 107
1, 60578, Note_off_c, 0, 67, 107
1, 60583, Note_on_c, 0, 70, 105
1, 60639, Note_off_c, 0, 70, 105
1, 60657, Note_on_c, 0, 67, 113
1, 60757, Note_off_c, 0, 67, 113
1, 60757, Note_on_c, 0, 63, 113
1, 60834, Note_off_c, 0, 63, 113
1, 60834, Note_on_c, 0, 64, 112
1, 60927, Note_off_c, 0, 64, 112
1, 60927, Note_on_c, 0, 67, 112
1, 61014, Note_off_c, 0, 67, 112
1, 61027, Note_on_c, 0, 65, 111
1, 61092, Note_off_c, 0, 65, 111
1, 61097, Note_on_c, 0, 68, 92
1, 61157, Note_off_c, 0, 68, 92
1, 61170, Note_on_c, 0, 72, 106
1, 61263, Note_off_c, 0, 72, 106
1, 61299, Note_on_c, 0, 75, 107
1, 61426, Note_off_c, 0, 75, 107
1, 61486, Note_on_c, 0, 75, 112
1, 61529, Note_off_c, 0, 75, 112
1, 61542, Note_on_c, 0, 79, 120
1, 61951, Note_off_c, 0, 79, 120
1, 61977, Note_on_c, 0, 70, 101
1, 62023, Note_off_c, 0, 70, 101
1, 62091, Note_on_c, 0, 77, 97
1, 62132, Note_off_c, 0, 77, 97
1, 62155, Note_on_c, 0, 75, 112
1, 62216, Note_off_c, 0, 75, 112
1, 62227, Note_on_c, 0, 74, 108
1, 62297, Note_off_c, 0, 74, 108
1, 62297, Note_on_c, 0, 68, 105
1, 62451, Note_off_c, 0, 68, 105
1, 62850, Note_on_c, 0, 71, 100
1, 62878, Note_off_c, 0, 71, 100
1, 62889, Note_on_c, 0, 74, 113
1, 63385, Note_off_c, 0, 74, 113
1, 63395, Note_on_c, 0, 70, 110
1, 63452, Note_off_c, 0, 70, 110
1, 63459, Note_on_c, 0, 66, 108
1, 63495, Note_off_c, 0, 66, 108
1, 63508, Note_on_c, 0, 62, 109
1, 63555, Note_off_c, 0, 62, 109
1, 63578, Note_on_c, 0, 58, 103
1, 63626, Note_off_c, 0, 58, 103
1, 63640, Note_on_c, 0, 50, 112
1, 63707, Note_off_c, 0, 50, 112
1, 63711, Note_on_c, 0, 51, 104
1, 63753, Note_off_c, 0, 51, 104
1, 63755, Note_on_c, 0, 54, 104
1, 63805, Note_off_c, 0, 54, 104
1, 63815, Note_on_c, 0, 57, 106
1, 63872, Note_off_c, 0, 57, 106
1, 63875, Note_on_c, 0, 62, 108
1, 63908, Note_off_c, 0, 62, 108
1, 63920, Note_on_c, 0, 66, 110
1, 63970, Note_off_c, 0, 66, 110
1, 63978, Note_on_c, 0, 68, 108
1, 64006, Note_off_c, 0, 68, 108
1, 64012, Note_on_c, 0, 70, 106
1, 64061, Note_off_c, 0, 70, 106
1, 64223, Note_on_c, 0, 57, 113
1, 64271, Note_off_c, 0, 57, 113
1, 64275, Note_on_c, 0, 59, 106
1, 64338, Note_off_c, 0, 59, 106
1, 64341, Note_on_c, 0, 61, 113
1, 64387, Note_off_c, 0, 61, 113
1, 64387, Note_on_c, 0, 63, 113
1, 64420, Note_off_c, 0, 63, 113
1, 64437, Note_on_c, 0, 67, 110
1, 64483, Note_off_c, 0, 67, 110
1, 64485, Note_on_c, 0, 71, 113
1, 64562, Note_off_c, 0, 71, 113
1, 64572, Note_on_c, 0, 75, 114
1, 64978, Note_off_c, 0, 75, 114
1, 64978, Note_on_c, 0, 71, 111
1, 65063, Note_off_c, 0, 71, 111
1, 65063, Note_on_c, 0, 74, 105
1, 65150, Note_off_c, 0, 74, 105
1, 65158, Note_on_c, 0, 72, 111
1, 65268, Note_off_c, 0, 72, 111
1, 65268, Note_on_c, 0, 63, 115
1, 65459, Note_off_c, 0, 63, 115
1, 65811, Note_on_c, 0, 70, 108
1, 65849, Note_off_c, 0, 70, 108
1, 65857, Note_on_c, 0, 72, 122
1, 66239, Note_off_c, 0, 72, 122
1, 66292, Note_on_c, 0, 72, 121
1, 66409, Note_off_c, 0, 72, 121
1, 66412, Note_on_c, 0, 67, 100
1, 66499, Note_off_c, 0, 67, 100
1, 66505, Note_on_c, 0, 71, 120
1, 66568, Note_off_c, 0, 71, 120
1, 66594, Note_on_c, 0, 74, 110
1, 66677, Note_off_c, 0, 74, 110
1, 66690, Note_on_c, 0, 72, 117
1, 66777, Note_off_c, 0, 72, 117
1, 66810, Note_on_c, 0, 67, 103
1, 66861, Note_off_c, 0, 67, 103
1, 66879, Note_on_c, 0, 69, 115
1, 66906, Note_off_c, 0, 69, 115
1, 66922, Note_on_c, 0, 71, 114
1, 66978, Note_off_c, 0, 71, 114
1, 66990, Note_on_c, 0, 74, 115
1, 67047, Note_off_c, 0, 74, 115
1, 67055, Note_on_c, 0, 73, 119
1, 67094, Note_off_c, 0, 73, 119
1, 67103, Note_on_c, 0, 72, 121
1, 67168, Note_off_c, 0, 72, 121
1, 67181, Note_on_c, 0, 69, 99
1, 67251, Note_off_c, 0, 69, 99
1, 67267, Note_on_c, 0, 71, 115
1, 67357, Note_off_c, 0, 71, 115
1, 67374, Note_on_c, 0, 74, 107
1, 67410, Note_off_c, 0, 74, 107
1, 67421, Note_on_c, 0, 73, 110
1, 67445, Note_off_c, 0, 73, 110
1, 67455, Note_on_c, 0, 72, 116
1, 67521, Note_off_c, 0, 72, 116
1, 67554, Note_on_c, 0, 67, 112
1, 67614, Note_off_c, 0, 67, 112
1, 67634, Note_on_c, 0, 63, 120
1, 67717, Note_off_c, 0, 63, 120
1, 67753, Note_on_c, 0, 60, 113
1, 67830, Note_off_c, 0, 60, 113
1, 67846, Note_on_c, 0, 59, 110
1, 67926, Note_off_c, 0, 59, 110
1, 67936, Note_on_c, 0, 57, 107
1, 67982, Note_off_c, 0, 57, 107
1, 67995, Note_on_c, 0, 59, 104
1, 68122, Note_off_c, 0, 59, 104
1, 68135, Note_on_c, 0, 62, 112
1, 68212, Note_off_c, 0, 62, 112
1, 68218, Note_on_c, 0, 60, 106
1, 68325, Note_off_c, 0, 60, 106
1, 68325, Note_on_c, 0, 62, 108
1, 68402, Note_off_c, 0, 62, 108
1, 68405, Note_on_c, 0, 63, 113
1, 68492, Note_off_c, 0, 63, 113
1, 68512, Note_on_c, 0, 65, 110
1, 68602, Note_off_c, 0, 65, 110
1, 68622, Note_on_c, 0, 64, 112
1, 68722, Note_on_c, 0, 60, 107
1, 68722, Note_off_c, 0, 64, 112
1, 68782, Note_off_c, 0, 60, 107
1, 68899, Note_on_c, 0, 70, 91
1, 68966, Note_off_c, 0, 70, 91
1, 68989, Note_on_c, 0, 75, 109
1, 69103, Note_off_c, 0, 75, 109
1, 69173, Note_on_c, 0, 73, 112
1, 69297, Note_off_c, 0, 73, 112
1, 69313, Note_on_c, 0, 71, 105
1, 69363, Note_off_c, 0, 71, 105
1, 69376, Note_on_c, 0, 72, 111
1, 69493, Note_off_c, 0, 72, 111
1, 69493, Note_on_c, 0, 66, 100
1, 69580, Note_off_c, 0, 66, 100
1, 69600, Note_on_c, 0, 67, 92
1, 69673, Note_off_c, 0, 67, 92
1, 69693, Note_on_c, 0, 70, 111
1, 69746, Note_off_c, 0, 70, 111
1, 69759, Note_on_c, 0, 68, 111
1, 69852, Note_off_c, 0, 68, 111
1, 69865, Note_on_c, 0, 63, 103
1, 69932, Note_off_c, 0, 63, 103
1, 69935, Note_on_c, 0, 64, 111
1, 70062, Note_off_c, 0, 64, 111
1, 70062, Note_on_c, 0, 67, 111
1, 70135, Note_off_c, 0, 67, 111
1, 70135, Note_on_c, 0, 65, 109
1, 70245, Note_off_c, 0, 65, 109
1, 70245, Note_on_c, 0, 68, 99
1, 70335, Note_off_c, 0, 68, 99
1, 70341, Note_on_c, 0, 72, 114
1, 70421, Note_off_c, 0, 72, 114
1, 70441, Note_on_c, 0, 75, 114
1, 70538, Note_off_c, 0, 75, 114
1, 70645, Note_on_c, 0, 75, 107
1, 70722, Note_off_c, 0, 75, 107
1, 70732, Note_on_c, 0, 74, 115
1, 70799, Note_off_c, 0, 74, 115
1, 70799, Note_on_c, 0, 73, 101
1, 70845, Note_off_c, 0, 73, 101
1, 70848, Note_on_c, 0, 71, 102
1, 70918, Note_on_c, 0, 72, 120
1, 70918, Note_off_c, 0, 71, 102
1, 71028, Note_off_c, 0, 72, 120
1, 71061, Note_on_c, 0, 69, 114
1, 71208, Note_off_c, 0, 69, 114
1, 71600, Note_on_c, 0, 70, 113
1, 71634, Note_off_c, 0, 70, 113
1, 71641, Note_on_c, 0, 71, 116
1, 71812, Note_off_c, 0, 71, 116
1, 71824, Note_on_c, 0, 72, 102
1, 71867, Note_off_c, 0, 72, 102
1, 71877, Note_on_c, 0, 71, 112
1, 71927, Note_off_c, 0, 71, 112
1, 71937, Note_on_c, 0, 69, 98
1, 72010, Note_off_c, 0, 69, 98
1, 72010, Note_on_c, 0, 71, 116
1, 72073, Note_off_c, 0, 71, 116
1, 72099, Note_on_c, 0, 67, 106
1, 72166, Note_off_c, 0, 67, 106
1, 72176, Note_on_c, 0, 63, 111
1, 72229, Note_off_c, 0, 63, 111
1, 72272, Note_on_c, 0, 59, 105
1, 72349, Note_off_c, 0, 59, 105
1, 72426, Note_on_c, 0, 63, 117
1, 72553, Note_off_c, 0, 63, 117
1, 72556, Note_on_c, 0, 60, 106
1, 72660, Note_off_c, 0, 60, 106
1, 72663, Note_on_c, 0, 58, 101
1, 72790, Note_off_c, 0, 58, 101
1, 72813, Note_on_c, 0, 60, 108
1, 72943, Note_on_c, 0, 61, 109
1, 72943, Note_off_c, 0, 60, 108
1, 73013, Note_off_c, 0, 61, 109
1, 73016, Note_on_c, 0, 63, 115
1, 73096, Note_off_c, 0, 63, 115
1, 73106, Note_on_c, 0, 65, 113
1, 73189, Note_off_c, 0, 65, 113
1, 73205, Note_on_c, 0, 62, 115
1, 73302, Note_off_c, 0, 62, 115
1, 73324, Note_on_c, 0, 64, 116
1, 73408, Note_off_c, 0, 64, 116
1, 73495, Note_on_c, 0, 65, 103
1, 73524, Note_off_c, 0, 65, 103
1, 73528, Note_on_c, 0, 67, 109
1, 73611, Note_off_c, 0, 67, 109
1, 73611, Note_on_c, 0, 69, 106
1, 73694, Note_off_c, 0, 69, 106
1, 73694, Note_on_c, 0, 72, 114
1, 73761, Note_on_c, 0, 71, 116
1, 73761, Note_off_c, 0, 72, 114
1, 73824, Note_off_c, 0, 71, 116
1, 73860, Note_on_c, 0, 74, 108
1, 73920, Note_off_c, 0, 74, 108
1, 73950, Note_on_c, 0, 70, 111
1, 74037, Note_off_c, 0, 70, 111
1, 74057, Note_on_c, 0, 68, 114
1, 74130, Note_off_c, 0, 68, 114
1, 74143, Note_on_c, 0, 63, 99
1, 74253, Note_off_c, 0, 63, 99
1, 74253, Note_on_c, 0, 65, 97
1, 74320, Note_off_c, 0, 65, 97
1, 74323, Note_on_c, 0, 67, 114
1, 74416, Note_off_c, 0, 67, 114
1, 74439, Note_on_c, 0, 63, 113
1, 74502, Note_off_c, 0, 63, 113
1, 74512, Note_on_c, 0, 60, 106
1, 74652, Note_off_c, 0, 60, 106
1, 74698, Note_on_c, 0, 65, 109
1, 74832, Note_off_c, 0, 65, 109
1, 75195, Note_on_c, 0, 67, 118
1, 75275, Note_off_c, 0, 67, 118
1, 75283, Note_on_c, 0, 66, 116
1, 75353, Note_off_c, 0, 66, 116
1, 75384, Note_on_c, 0, 65, 114
1, 75481, Note_off_c, 0, 65, 114
1, 75481, Note_on_c, 0, 63, 118
1, 75635, Note_off_c, 0, 63, 118
1, 75648, Note_on_c, 0, 60, 116
1, 75772, Note_off_c, 0, 60, 116
1, 75852, Note_on_c, 0, 60, 119
1, 75979, Note_off_c, 0, 60, 119
1, 76032, Note_on_c, 0, 60, 113
1, 76172, Note_off_c, 0, 60, 113
1, 76229, Note_on_c, 0, 60, 122
1, 76527, Note_off_c, 0, 60, 122
1, 76547, Note_on_c, 0, 66, 119
1, 76586, Note_off_c, 0, 66, 119
1, 76589, Note_on_c, 0, 67, 114
1, 76891, Note_off_c, 0, 67, 114
1, 76914, Note_on_c, 0, 65, 114
1, 76981, Note_off_c, 0, 65, 114
1, 76987, Note_on_c, 0, 63, 120
1, 77033, Note_off_c, 0, 63, 120
1, 77036, Note_on_c, 0, 60, 116
1, 77109, Note_off_c, 0, 60, 116
1, 77111, Note_on_c, 0, 63, 124
1, 77176, Note_off_c, 0, 63, 124
1, 77185, Note_on_c, 0, 67, 118
1, 77238, Note_off_c, 0, 67, 118
1, 77238, Note_on_c, 0, 63, 121
1, 77311, Note_off_c, 0, 63, 121
1, 77311, Note_on_c, 0, 67, 115
1, 77374, Note_off_c, 0, 67, 115
1, 77390, Note_on_c, 0, 70, 121
1, 77487, Note_off_c, 0, 70, 121
1, 77493, Note_on_c, 0, 74, 117
1, 77721, Note_off_c, 0, 74, 117
1, 77727, Note_on_c, 0, 72, 109
1, 77777, Note_off_c, 0, 72, 109
1, 77783, Note_on_c, 0, 70, 116
1, 78034, Note_off_c, 0, 70, 116
1, 78060, Note_on_c, 0, 67, 114
1, 78147, Note_off_c, 0, 67, 114
1, 78163, Note_on_c, 0, 63, 118
1, 78260, Note_off_c, 0, 63, 118
1, 78260, Note_on_c, 0, 60, 116
1, 78377, Note_off_c, 0, 60, 116
1, 78648, Note_on_c, 0, 53, 110
1, 78702, Note_off_c, 0, 53, 110
1, 78714, Note_on_c, 0, 56, 107
1, 78777, Note_off_c, 0, 56, 107
1, 78793, Note_on_c, 0, 60, 105
1, 78839, Note_off_c, 0, 60, 105
1, 78845, Note_on_c, 0, 63, 113
1, 78878, Note_off_c, 0, 63, 113
1, 78878, Note_on_c, 0, 67, 111
1, 78931, Note_off_c, 0, 67, 111
1, 78931, Note_on_c, 0, 70, 117
1, 79364, Note_off_c, 0, 70, 117
1, 79384, Note_on_c, 0, 67, 109
1, 79447, Note_off_c, 0, 67, 109
1, 79452, Note_on_c, 0, 68, 119
1, 79483, Note_off_c, 0, 68, 119
1, 79483, Note_on_c, 0, 67, 113
1, 79536, Note_off_c, 0, 67, 113
1, 79549, Note_on_c, 0, 65, 112
1, 79579, Note_off_c, 0, 65, 112
1, 79595, Note_on_c, 0, 63, 117
1, 79628, Note_off_c, 0, 63, 117
1, 79648, Note_on_c, 0, 62, 112
1, 79678, Note_off_c, 0, 62, 112
1, 79678, Note_on_c, 0, 60, 112
1, 79738, Note_off_c, 0, 60, 112
1, 79741, Note_on_c, 0, 58, 108
1, 79787, Note_off_c, 0, 58, 108
1, 79793, Note_on_c, 0, 56, 110
1, 79846, Note_off_c, 0, 56, 110
1, 79852, Note_on_c, 0, 55, 120
1, 79885, Note_off_c, 0, 55, 120
1, 79885, Note_on_c, 0, 53, 118
1, 79925, Note_off_c, 0, 53, 118
1, 79925, Note_on_c, 0, 51, 114
1, 79965, Note_off_c, 0, 51, 114
1, 79985, Note_on_c, 0, 50, 106
1, 80021, Note_off_c, 0, 50, 106
1, 80047, Note_on_c, 0, 48, 112
1, 80211, Note_off_c, 0, 48, 112
1, 80560, Note_on_c, 0, 50, 112
1, 80627, Note_off_c, 0, 50, 112
1, 80627, Note_on_c, 0, 53, 112
1, 80670, Note_off_c, 0, 53, 112
1, 80676, Note_on_c, 0, 52, 102
1, 80712, Note_off_c, 0, 52, 102
1, 80727, Note_on_c, 0, 51, 109
1, 80772, Note_off_c, 0, 51, 109
1, 80772, Note_on_c, 0, 55, 104
1, 80832, Note_off_c, 0, 55, 104
1, 80838, Note_on_c, 0, 57, 104
1, 80901, Note_off_c, 0, 57, 104
1, 80901, Note_on_c, 0, 59, 99
1, 80958, Note_off_c, 0, 59, 99
1, 80958, Note_on_c, 0, 60, 112
1, 81015, Note_off_c, 0, 60, 112
1, 81025, Note_on_c, 0, 62, 115
1, 81082, Note_off_c, 0, 62, 115
1, 81082, Note_on_c, 0, 64, 112
1, 81115, Note_off_c, 0, 64, 112
1, 81115, Note_on_c, 0, 65, 111
1, 81172, Note_off_c, 0, 65, 111
1, 81172, Note_on_c, 0, 67, 109
1, 81222, Note_off_c, 0, 67, 109
1, 81222, Note_on_c, 0, 69, 117
1, 81289, Note_off_c, 0, 69, 117
1, 81295, Note_on_c, 0, 71, 121
1, 81419, Note_off_c, 0, 71, 121
1, 81669, Note_on_c, 0, 52, 102
1, 81697, Note_off_c, 0, 52, 102
1, 81697, Note_on_c, 0, 54, 102
1, 81750, Note_on_c, 0, 56, 109
1, 81750, Note_off_c, 0, 54, 102
1, 81810, Note_off_c, 0, 56, 109
1, 81813, Note_on_c, 0, 58, 101
1, 81859, Note_on_c, 0, 60, 100
1, 81859, Note_off_c, 0, 58, 101
1, 81892, Note_off_c, 0, 60, 100
1, 81892, Note_on_c, 0, 62, 108
1, 81938, Note_off_c, 0, 62, 108
1, 81954, Note_on_c, 0, 65, 105
1, 82011, Note_off_c, 0, 65, 105
1, 82021, Note_on_c, 0, 68, 113
1, 82054, Note_off_c, 0, 68, 113
1, 82054, Note_on_c, 0, 70, 117
1, 82198, Note_off_c, 0, 70, 117
1, 82285, Note_on_c, 0, 58, 101
1, 82395, Note_off_c, 0, 58, 101
1, 82395, Note_on_c, 0, 61, 100
1, 82448, Note_off_c, 0, 61, 100
1, 82454, Note_on_c, 0, 63, 115
1, 82487, Note_off_c, 0, 63, 115
1, 82493, Note_on_c, 0, 67, 99
1, 82563, Note_off_c, 0, 67, 99
1, 82596, Note_on_c, 0, 71, 107
1, 82686, Note_off_c, 0, 71, 107
1, 82706, Note_on_c, 0, 75, 111
1, 83397, Note_off_c, 0, 75, 111
1, 83397, Note_on_c, 0, 71, 110
1, 83497, Note_off_c, 0, 71, 110
1, 83550, Note_on_c, 0, 74, 111
1, 83956, Note_off_c, 0, 74, 111
1, 84540, Note_on_c, 0, 70, 116
1, 84607, Note_off_c, 0, 70, 116
1, 84613, Note_on_c, 0, 71, 113
1, 84646, Note_off_c, 0, 71, 113
1, 84660, Note_on_c, 0, 73, 116
1, 84685, Note_off_c, 0, 73, 116
1, 84696, Note_on_c, 0, 74, 112
1, 84840, Note_off_c, 0, 74, 112
1, 84840, Note_on_c, 0, 73, 114
1, 84870, Note_off_c, 0, 73, 114
1, 84870, Note_on_c, 0, 72, 115
1, 84913, Note_off_c, 0, 72, 115
1, 84926, Note_on_c, 0, 71, 118
1, 85053, Note_off_c, 0, 71, 118
1, 85056, Note_on_c, 0, 68, 112
1, 85102, Note_off_c, 0, 68, 112
1, 85115, Note_on_c, 0, 67, 112
1, 85198, Note_off_c, 0, 67, 112
1, 85208, Note_on_c, 0, 66, 112
1, 85298, Note_off_c, 0, 66, 112
1, 85304, Note_on_c, 0, 65, 110
1, 85384, Note_off_c, 0, 65, 110
1, 85417, Note_on_c, 0, 63, 116
1, 85474, Note_off_c, 0, 63, 116
1, 85507, Note_on_c, 0, 62, 108
1, 85621, Note_off_c, 0, 62, 108
1, 85627, Note_on_c, 0, 60, 107
1, 85694, Note_off_c, 0, 60, 107
1, 85717, Note_on_c, 0, 59, 111
1, 85857, Note_off_c, 0, 59, 111
1, 85866, Note_on_c, 0, 57, 103
1, 85900, Note_off_c, 0, 57, 103
1, 85903, Note_on_c, 0, 59, 103
1, 85960, Note_off_c, 0, 59, 103
1, 85980, Note_on_c, 0, 62, 110
1, 86063, Note_off_c, 0, 62, 110
1, 86097, Note_on_c, 0, 60, 109
1, 86205, Note_off_c, 0, 60, 109
1, 86210, Note_on_c, 0, 62, 112
1, 86270, Note_off_c, 0, 62, 112
1, 86289, Note_on_c, 0, 63, 116
1, 86379, Note_off_c, 0, 63, 116
1, 86392, Note_on_c, 0, 65, 110
1, 86482, Note_off_c, 0, 65, 110
1, 86512, Note_on_c, 0, 67, 108
1, 86569, Note_off_c, 0, 67, 108
1, 86575, Note_on_c, 0, 68, 117
1, 86665, Note_off_c, 0, 68, 117
1, 86752, Note_on_c, 0, 71, 109
1, 86825, Note_off_c, 0, 71, 109
1, 86841, Note_on_c, 0, 72, 118
1, 87069, Note_off_c, 0, 72, 118
1, 87069, Note_on_c, 0, 67, 113
1, 87166, Note_on_c, 0, 68, 110
1, 87166, Note_off_c, 0, 67, 113
1, 87236, Note_off_c, 0, 68, 110
1, 87236, Note_on_c, 0, 67, 111
1, 87313, Note_off_c, 0, 67, 111
1, 87333, Note_on_c, 0, 65, 112
1, 87393, Note_off_c, 0, 65, 112
1, 87416, Note_on_c, 0, 64, 109
1, 87540, Note_off_c, 0, 64, 109
1, 87540, Note_on_c, 0, 67, 112
1, 87627, Note_off_c, 0, 67, 112
1, 87630, Note_on_c, 0, 65, 103
1, 87730, Note_off_c, 0, 65, 103
1, 87730, Note_on_c, 0, 60, 107
1, 87820, Note_off_c, 0, 60, 107
1, 87820, Note_on_c, 0, 56, 107
1, 87903, Note_off_c, 0, 56, 107
1, 87934, Note_on_c, 0, 55, 86
1, 87984, Note_off_c, 0, 55, 86
1, 88002, Note_on_c, 0, 60, 114
1, 88116, Note_off_c, 0, 60, 114
1, 88213, Note_on_c, 0, 55, 102
1, 88283, Note_off_c, 0, 55, 102
1, 88309, Note_on_c, 0, 60, 109
1, 88426, Note_off_c, 0, 60, 109
1, 88426, Note_on_c, 0, 58, 104
1, 88513, Note_off_c, 0, 58, 104
1, 88513, Note_on_c, 0, 60, 110
1, 88600, Note_off_c, 0, 60, 110
1, 88607, Note_on_c, 0, 62, 100
1, 88648, Note_off_c, 0, 62, 100
1, 88770, Note_on_c, 0, 69, 120
1, 88860, Note_off_c, 0, 69, 120
1, 88874, Note_on_c, 0, 68, 117
1, 88946, Note_off_c, 0, 68, 117
1, 88955, Note_on_c, 0, 67, 112
1, 89018, Note_off_c, 0, 67, 112
1, 89062, Note_on_c, 0, 65, 112
1, 89119, Note_off_c, 0, 65, 112
1, 89122, Note_on_c, 0, 63, 116
1, 89236, Note_off_c, 0, 63, 116
1, 89253, Note_on_c, 0, 67, 102
1, 89323, Note_off_c, 0, 67, 102
1, 89323, Note_on_c, 0, 69, 114
1, 89433, Note_off_c, 0, 69, 114
1, 89453, Note_on_c, 0, 74, 112
1, 89526, Note_off_c, 0, 74, 112
1, 89633, Note_on_c, 0, 74, 112
1, 89696, Note_off_c, 0, 74, 112
1, 89722, Note_on_c, 0, 71, 112
1, 89849, Note_off_c, 0, 71, 112
1, 90268, Note_on_c, 0, 72, 111
1, 90570, Note_off_c, 0, 72, 111
1, 90603, Note_on_c, 0, 68, 96
1, 90673, Note_off_c, 0, 68, 96
1, 90706, Note_on_c, 0, 70, 109
1, 90799, Note_off_c, 0, 70, 109
1, 90799, Note_on_c, 0, 66, 107
1, 90859, Note_off_c, 0, 66, 107
1, 90859, Note_on_c, 0, 63, 114
1, 90983, Note_off_c, 0, 63, 114
1, 91022, Note_on_c, 0, 58, 101
1, 91065, Note_off_c, 0, 58, 101
1, 91089, Note_on_c, 0, 65, 107
1, 91157, Note_off_c, 0, 65, 107
1, 91163, Note_on_c, 0, 66, 105
1, 91221, Note_off_c, 0, 66, 105
1, 91612, Note_on_c, 0, 70, 105
1, 91648, Note_off_c, 0, 70, 105
1, 91663, Note_on_c, 0, 74, 116
1, 91770, Note_off_c, 0, 74, 116
1, 91785, Note_on_c, 0, 73, 118
1, 91811, Note_off_c, 0, 73, 118
1, 91817, Note_on_c, 0, 71, 123
1, 91917, Note_on_c, 0, 68, 120
1, 91917, Note_off_c, 0, 71, 123
1, 92000, Note_off_c, 0, 68, 120
1, 92017, Note_on_c, 0, 67, 115
1, 92107, Note_off_c, 0, 67, 115
1, 92110, Note_on_c, 0, 65, 112
1, 92177, Note_off_c, 0, 65, 112
1, 92183, Note_on_c, 0, 63, 119
1, 92253, Note_off_c, 0, 63, 119
1, 92256, Note_on_c, 0, 60, 108
1, 92323, Note_on_c, 0, 63, 112
1, 92323, Note_off_c, 0, 60, 108
1, 92386, Note_off_c, 0, 63, 112
1, 92386, Note_on_c, 0, 67, 113
1, 92456, Note_off_c, 0, 67, 113
1, 92489, Note_on_c, 0, 62, 103
1, 92542, Note_off_c, 0, 62, 103
1, 92548, Note_on_c, 0, 65, 107
1, 92615, Note_off_c, 0, 65, 107
1, 92628, Note_on_c, 0, 68, 114
1, 92725, Note_off_c, 0, 68, 114
1, 93217, Note_on_c, 0, 66, 106
1, 93269, Note_off_c, 0, 66, 106
1, 93284, Note_on_c, 0, 68, 112
1, 93555, Note_off_c, 0, 68, 112
1, 93560, Note_on_c, 0, 67, 112
1, 93633, Note_off_c, 0, 67, 112
1, 93648, Note_on_c, 0, 65, 110
1, 93715, Note_off_c, 0, 65, 110
1, 93715, Note_on_c, 0, 63, 117
1, 93829, Note_off_c, 0, 63, 117
1, 93902, Note_on_c, 0, 59, 106
1, 93992, Note_off_c, 0, 59, 106
1, 93992, Note_on_c, 0, 62, 112
1, 94106, Note_off_c, 0, 62, 112
1, 94118, Note_on_c, 0, 60, 111
1, 94217, Note_off_c, 0, 60, 111
1, 94225, Note_on_c, 0, 62, 113
1, 94332, Note_off_c, 0, 62, 113
1, 94405, Note_on_c, 0, 65, 111
1, 94509, Note_off_c, 0, 65, 111
1, 94515, Note_on_c, 0, 66, 110
1, 94592, Note_off_c, 0, 66, 110
1, 94618, Note_on_c, 0, 67, 115
1, 94675, Note_off_c, 0, 67, 115
1, 94678, Note_on_c, 0, 68, 114
1, 94761, Note_off_c, 0, 68, 114
1, 94777, Note_on_c, 0, 66, 105
1, 94854, Note_off_c, 0, 66, 105
1, 94874, Note_on_c, 0, 67, 111
1, 94971, Note_off_c, 0, 67, 111
1, 94971, Note_on_c, 0, 63, 118
1, 95061, Note_off_c, 0, 63, 118
1, 95061, Note_on_c, 0, 62, 113
1, 95168, Note_off_c, 0, 62, 113
1, 95168, Note_on_c, 0, 65, 113
1, 95258, Note_off_c, 0, 65, 113
1, 95261, Note_on_c, 0, 63, 117
1, 95344, Note_off_c, 0, 63, 117
1, 95357, Note_on_c, 0, 60, 107
1, 95450, Note_off_c, 0, 60, 107
1, 95456, Note_on_c, 0, 59, 104
1, 95539, Note_off_c, 0, 59, 104
1, 95539, Note_on_c, 0, 62, 111
1, 95619, Note_off_c, 0, 62, 111
1, 95632, Note_on_c, 0, 60, 104
1, 95732, Note_off_c, 0, 60, 104
1, 95745, Note_on_c, 0, 62, 109
1, 95815, Note_off_c, 0, 62, 109
1, 96006, Note_on_c, 0, 72, 113
1, 96106, Note_off_c, 0, 72, 113
1, 96116, Note_on_c, 0, 66, 102
1, 96189, Note_off_c, 0, 66, 102
1, 96189, Note_on_c, 0, 67, 102
1, 96272, Note_off_c, 0, 67, 102
1, 96275, Note_on_c, 0, 70, 110
1, 96375, Note_off_c, 0, 70, 110
1, 96375, Note_on_c, 0, 68, 109
1, 96475, Note_off_c, 0, 68, 109
1, 96485, Note_on_c, 0, 67, 110
1, 96548, Note_off_c, 0, 67, 110
1, 96569, Note_on_c, 0, 64, 110
1, 96612, Note_off_c, 0, 64, 110
1, 96617, Note_on_c, 0, 60, 92
1, 96650, Note_off_c, 0, 60, 92
1, 96777, Note_on_c, 0, 67, 112
1, 96877, Note_off_c, 0, 67, 112
1, 96877, Note_on_c, 0, 65, 107
1, 97390, Note_off_c, 0, 65, 107
1, 97393, Note_on_c, 0, 63, 118
1, 97470, Note_off_c, 0, 63, 118
1, 97480, Note_on_c, 0, 65, 116
1, 97701, Note_off_c, 0, 65, 116
1, 97724, Note_on_c, 0, 63, 122
1, 97824, Note_off_c, 0, 63, 122
1, 97824, Note_on_c, 0, 65, 113
1, 97911, Note_off_c, 0, 65, 113
1, 97911, Note_on_c, 0, 63, 116
1, 97994, Note_off_c, 0, 63, 116
1, 98006, Note_on_c, 0, 60, 109
1, 98077, Note_off_c, 0, 60, 109
1, 98090, Note_on_c, 0, 58, 106
1, 98190, Note_off_c, 0, 58, 106
1, 98190, Note_on_c, 0, 56, 106
1, 98267, Note_off_c, 0, 56, 106
1, 98267, Note_on_c, 0, 55, 70
1, 98371, Note_off_c, 0, 55, 70
1, 98374, Note_on_c, 0, 57, 103
1, 98444, Note_off_c, 0, 57, 103
1, 98467, Note_on_c, 0, 59, 103
1, 98524, Note_off_c, 0, 59, 103
1, 98577, Note_on_c, 0, 62, 115
1, 98670, Note_off_c, 0, 62, 115
1, 98670, Note_on_c, 0, 60, 104
1, 98810, Note_off_c, 0, 60, 104
1, 98813, Note_on_c, 0, 62, 114
1, 98923, Note_off_c, 0, 62, 114
1, 98935, Note_on_c, 0, 63, 118
1, 99042, Note_off_c, 0, 63, 118
1, 99345, Note_on_c, 0, 62, 116
1, 99388, Note_on_c, 0, 63, 123
1, 99388, Note_off_c, 0, 62, 116
1, 99713, Note_off_c, 0, 63, 123
1, 99729, Note_on_c, 0, 62, 117
1, 99775, Note_off_c, 0, 62, 117
1, 99791, Note_on_c, 0, 63, 122
1, 99848, Note_off_c, 0, 63, 122
1, 99878, Note_on_c, 0, 65, 112
1, 99911, Note_off_c, 0, 65, 112
1, 99921, Note_on_c, 0, 66, 115
1, 99964, Note_off_c, 0, 66, 115
1, 99974, Note_on_c, 0, 68, 120
1, 100015, Note_off_c, 0, 68, 120
1, 100019, Note_on_c, 0, 70, 119
1, 100096, Note_off_c, 0, 70, 119
1, 100096, Note_on_c, 0, 73, 121
1, 100153, Note_off_c, 0, 73, 121
1, 100169, Note_on_c, 0, 72, 121
1, 100430, Note_off_c, 0, 72, 121
1, 100443, Note_on_c, 0, 70, 119
1, 100530, Note_off_c, 0, 70, 119
1, 100530, Note_on_c, 0, 62, 105
1, 100634, Note_off_c, 0, 62, 105
1, 100654, Note_on_c, 0, 65, 107
1, 100711, Note_off_c, 0, 65, 107
1, 100724, Note_on_c, 0, 67, 110
1, 100781, Note_off_c, 0, 67, 110
1, 100784, Note_on_c, 0, 69, 116
1, 100844, Note_off_c, 0, 69, 116
1, 100844, Note_on_c, 0, 72, 120
1, 100897, Note_off_c, 0, 72, 120
1, 100900, Note_on_c, 0, 71, 118
1, 101209, Note_off_c, 0, 71, 118
1, 101214, Note_on_c, 0, 68, 117
1, 101291, Note_off_c, 0, 68, 117
1, 101291, Note_on_c, 0, 67, 119
1, 101354, Note_on_c, 0, 63, 120
1, 101354, Note_off_c, 0, 67, 119
1, 101461, Note_off_c, 0, 63, 120
1, 102186, Note_on_c, 0, 70, 108
1, 102212, Note_off_c, 0, 70, 108
1, 102212, Note_on_c, 0, 71, 121
1, 102661, Note_off_c, 0, 71, 121
1, 102728, Note_on_c, 0, 67, 105
1, 102778, Note_off_c, 0, 67, 105
1, 102818, Note_on_c, 0, 71, 117
1, 102844, Note_off_c, 0, 71, 117
1, 102854, Note_on_c, 0, 72, 121
1, 103169, Note_off_c, 0, 72, 121
1, 103207, Note_on_c, 0, 75, 101
1, 103252, Note_off_c, 0, 75, 101
1, 103349, Note_on_c, 0, 79, 127
1, 103711, Note_off_c, 0, 79, 127
1, 103711, Note_on_c, 0, 77, 93
1, 103831, Note_off_c, 0, 77, 93
1, 103867, Note_on_c, 0, 75, 115
1, 103971, Note_off_c, 0, 75, 115
1, 103994, Note_on_c, 0, 77, 103
1, 104108, Note_off_c, 0, 77, 103
1, 104118, Note_on_c, 0, 79, 115
1, 104248, Note_off_c, 0, 79, 115
1, 104305, Note_on_c, 0, 77, 96
1, 104385, Note_off_c, 0, 77, 96
1, 104438, Note_on_c, 0, 75, 115
1, 105055, Note_off_c, 0, 75, 115
1, 105055, Note_on_c, 0, 72, 116
1, 105313, Note_off_c, 0, 72, 116
1, 105383, Note_on_c, 0, 70, 95
1, 105463, Note_off_c, 0, 70, 95
1, 105473, Note_on_c, 0, 72, 117
1, 105748, Note_off_c, 0, 72, 117
1, 105784, Note_on_c, 0, 70, 115
1, 105864, Note_off_c, 0, 70, 115
1, 105874, Note_on_c, 0, 68, 116
1, 105961, Note_off_c, 0, 68, 116
1, 105961, Note_on_c, 0, 63, 107
1, 106004, Note_off_c, 0, 63, 107
1, 106019, Note_on_c, 0, 64, 114
1, 106132, Note_off_c, 0, 64, 114
1, 106143, Note_on_c, 0, 67, 113
1, 106230, Note_off_c, 0, 67, 113
1, 106243, Note_on_c, 0, 65, 109
1, 106330, Note_off_c, 0, 65, 109
1, 106343, Note_on_c, 0, 68, 114
1, 106423, Note_off_c, 0, 68, 114
1, 106439, Note_on_c, 0, 72, 96
1, 106563, Note_off_c, 0, 72, 96
1, 106569, Note_on_c, 0, 73, 92
1, 106615, Note_off_c, 0, 73, 92
1, 106625, Note_on_c, 0, 75, 114
1, 106735, Note_off_c, 0, 75, 114
1, 106735, Note_on_c, 0, 72, 115
1, 106818, Note_off_c, 0, 72, 115
1, 106826, Note_on_c, 0, 68, 113
1, 106906, Note_off_c, 0, 68, 113
1, 106914, Note_on_c, 0, 67, 112
1, 107014, Note_off_c, 0, 67, 112
1, 107030, Note_on_c, 0, 65, 108
1, 107160, Note_off_c, 0, 65, 108
1, 107495, Note_on_c, 0, 67, 112
1, 107592, Note_off_c, 0, 67, 112
1, 107592, Note_on_c, 0, 66, 108
1, 107672, Note_off_c, 0, 66, 108
1, 107692, Note_on_c, 0, 65, 112
1, 107762, Note_off_c, 0, 65, 112
1, 107765, Note_on_c, 0, 64, 104
1, 107865, Note_off_c, 0, 64, 104
1, 107865, Note_on_c, 0, 63, 114
1, 107952, Note_off_c, 0, 63, 114
1, 107952, Note_on_c, 0, 62, 111
1, 108039, Note_off_c, 0, 62, 111
1, 108042, Note_on_c, 0, 60, 107
1, 108172, Note_off_c, 0, 60, 107
1, 108175, Note_on_c, 0, 59, 103
1, 108228, Note_off_c, 0, 59, 103
1, 108238, Note_on_c, 0, 60, 109
1, 108315, Note_off_c, 0, 60, 109
1, 108331, Note_on_c, 0, 62, 117
1, 108411, Note_off_c, 0, 62, 117
1, 108414, Note_on_c, 0, 63, 117
1, 108511, Note_off_c, 0, 63, 117
1, 108531, Note_on_c, 0, 60, 105
1, 108658, Note_off_c, 0, 60, 105
1, 108658, Note_on_c, 0, 62, 107
1, 108694, Note_off_c, 0, 62, 107
1, 108700, Note_on_c, 0, 63, 111
1, 108800, Note_off_c, 0, 63, 111
1, 108850, Note_on_c, 0, 65, 109
1, 108930, Note_off_c, 0, 65, 109
1, 108936, Note_on_c, 0, 66, 107
1, 109023, Note_off_c, 0, 66, 107
1, 109036, Note_on_c, 0, 68, 111
1, 109126, Note_off_c, 0, 68, 111
1, 109126, Note_on_c, 0, 70, 114
1, 109223, Note_off_c, 0, 70, 114
1, 109226, Note_on_c, 0, 73, 114
1, 109343, Note_off_c, 0, 73, 114
1, 109343, Note_on_c, 0, 70, 111
1, 109430, Note_off_c, 0, 70, 111
1, 109430, Note_on_c, 0, 66, 109
1, 109508, Note_off_c, 0, 66, 109
1, 109508, Note_on_c, 0, 63, 115
1, 109622, Note_off_c, 0, 63, 115
1, 109631, Note_on_c, 0, 61, 87
1, 109685, Note_off_c, 0, 61, 87
1, 109692, Note_on_c, 0, 62, 108
1, 109809, Note_off_c, 0, 62, 108
1, 109809, Note_on_c, 0, 64, 113
1, 109902, Note_off_c, 0, 64, 113
1, 109907, Note_on_c, 0, 65, 117
1, 109989, Note_off_c, 0, 65, 117
1, 110007, Note_on_c, 0, 62, 105
1, 110059, Note_off_c, 0, 62, 105
1, 110075, Note_on_c, 0, 67, 112
1, 110151, Note_off_c, 0, 67, 112
1, 110176, Note_on_c, 0, 63, 121
1, 110273, Note_off_c, 0, 63, 121
1, 110276, Note_on_c, 0, 59, 98
1, 110396, Note_off_c, 0, 59, 98
1, 110439, Note_on_c, 0, 63, 111
1, 110506, Note_off_c, 0, 63, 111
1, 110519, Note_on_c, 0, 60, 108
1, 110589, Note_off_c, 0, 60, 108
1, 110589, Note_on_c, 0, 63, 116
1, 110652, Note_off_c, 0, 63, 116
1, 110668, Note_on_c, 0, 67, 111
1, 110745, Note_off_c, 0, 67, 111
1, 110745, Note_on_c, 0, 63, 110
1, 110805, Note_off_c, 0, 63, 110
1, 110805, Note_on_c, 0, 67, 115
1, 110858, Note_on_c, 0, 70, 120
1, 110858, Note_off_c, 0, 67, 115
1, 111035, Note_off_c, 0, 70, 120
1, 111384, Note_on_c, 0, 68, 117
1, 111467, Note_off_c, 0, 68, 117
1, 111480, Note_on_c, 0, 70, 119
1, 112285, Note_off_c, 0, 70, 119
1, 112295, Note_on_c, 0, 67, 112
1, 112388, Note_off_c, 0, 67, 112
1, 112404, Note_on_c, 0, 63, 117
1, 112474, Note_off_c, 0, 63, 117
1, 112474, Note_on_c, 0, 60, 110
1, 112527, Note_off_c, 0, 60, 110
1, 112530, Note_on_c, 0, 63, 115
1, 112593, Note_off_c, 0, 63, 115
1, 112613, Note_on_c, 0, 67, 111
1, 112680, Note_off_c, 0, 67, 111
1, 112696, Note_on_c, 0, 70, 119
1, 112759, Note_off_c, 0, 70, 119
1, 112765, Note_on_c, 0, 67, 106
1, 112838, Note_off_c, 0, 67, 106
1, 112858, Note_on_c, 0, 63, 110
1, 112931, Note_off_c, 0, 63, 110
1, 112947, Note_on_c, 0, 60, 111
1, 112993, Note_off_c, 0, 60, 111
1, 112993, Note_on_c, 0, 63, 112
1, 113050, Note_off_c, 0, 63, 112
1, 113056, Note_on_c, 0, 66, 108
1, 113126, Note_off_c, 0, 66, 108
1, 113137, Note_on_c, 0, 67, 113
1, 113187, Note_off_c, 0, 67, 113
1, 113188, Note_on_c, 0, 69, 110
1, 113261, Note_off_c, 0, 69, 110
1, 113281, Note_on_c, 0, 66, 106
1, 113369, Note_off_c, 0, 66, 106
1, 113380, Note_on_c, 0, 62, 117
1, 113443, Note_off_c, 0, 62, 117
1, 113459, Note_on_c, 0, 63, 113
1, 113530, Note_off_c, 0, 63, 113
1, 113531, Note_on_c, 0, 66, 107
1, 113577, Note_off_c, 0, 66, 107
1, 113594, Note_on_c, 0, 67, 115
1, 113638, Note_off_c, 0, 67, 115
1, 113638, Note_on_c, 0, 70, 118
1, 114124, Note_off_c, 0, 70, 118
1, 114134, Note_on_c, 0, 67, 113
1, 114177, Note_off_c, 0, 67, 113
1, 114200, Note_on_c, 0, 63, 120
1, 114265, Note_off_c, 0, 63, 120
1, 114274, Note_on_c, 0, 60, 104
1, 114299, Note_off_c, 0, 60, 104
1, 114307, Note_on_c, 0, 63, 110
1, 114358, Note_off_c, 0, 63, 110
1, 114361, Note_on_c, 0, 67, 109
1, 114397, Note_off_c, 0, 67, 109
1, 114404, Note_on_c, 0, 68, 117
1, 114440, Note_off_c, 0, 68, 117
1, 114443, Note_on_c, 0, 70, 119
1, 114516, Note_off_c, 0, 70, 119
1, 114519, Note_on_c, 0, 67, 117
1, 114602, Note_off_c, 0, 67, 117
1, 114616, Note_on_c, 0, 63, 120
1, 114683, Note_off_c, 0, 63, 120
1, 114694, Note_on_c, 0, 60, 106
1, 114754, Note_off_c, 0, 60, 106
1, 114765, Note_on_c, 0, 63, 101
1, 114796, Note_off_c, 0, 63, 101
1, 114814, Note_on_c, 0, 67, 116
1, 114842, Note_off_c, 0, 67, 116
1, 114845, Note_on_c, 0, 70, 117
1, 115016, Note_off_c, 0, 70, 117
1, 115311, Note_on_c, 0, 70, 95
1, 115340, Note_off_c, 0, 70, 95
1, 115352, Note_on_c, 0, 71, 111
1, 115386, Note_off_c, 0, 71, 111
1, 115393, Note_on_c, 0, 74, 116
1, 115442, Note_off_c, 0, 74, 116
1, 115448, Note_on_c, 0, 75, 120
1, 115585, Note_off_c, 0, 75, 120
1, 115592, Note_on_c, 0, 74, 117
1, 115623, Note_off_c, 0, 74, 117
1, 115627, Note_on_c, 0, 72, 115
1, 115667, Note_off_c, 0, 72, 115
1, 115677, Note_on_c, 0, 70, 117
1, 115709, Note_off_c, 0, 70, 117
1, 115725, Note_on_c, 0, 68, 119
1, 115774, Note_off_c, 0, 68, 119
1, 115792, Note_on_c, 0, 65, 114
1, 115835, Note_off_c, 0, 65, 114
1, 115858, Note_on_c, 0, 68, 116
1, 115915, Note_off_c, 0, 68, 116
1, 115928, Note_on_c, 0, 70, 112
1, 115968, Note_off_c, 0, 70, 112
1, 115983, Note_on_c, 0, 75, 118
1, 116093, Note_off_c, 0, 75, 118
1, 116107, Note_on_c, 0, 72, 118
1, 116155, Note_off_c, 0, 72, 118
1, 116179, Note_on_c, 0, 68, 115
1, 116257, Note_off_c, 0, 68, 115
1, 116268, Note_on_c, 0, 65, 106
1, 116304, Note_off_c, 0, 65, 106
1, 116320, Note_on_c, 0, 62, 98
1, 116387, Note_off_c, 0, 62, 98
1, 116397, Note_on_c, 0, 63, 113
1, 116441, Note_off_c, 0, 63, 113
1, 116451, Note_on_c, 0, 67, 112
1, 116505, Note_off_c, 0, 67, 112
1, 116513, Note_on_c, 0, 70, 117
1, 116791, Note_off_c, 0, 70, 117
1, 116791, Note_on_c, 0, 67, 111
1, 116854, Note_off_c, 0, 67, 111
1, 116854, Note_on_c, 0, 65, 106
1, 116884, Note_off_c, 0, 65, 106
1, 116897, Note_on_c, 0, 63, 114
1, 116957, Note_off_c, 0, 63, 114
1, 116957, Note_on_c, 0, 60, 107
1, 117003, Note_on_c, 0, 63, 111
1, 117003, Note_off_c, 0, 60, 107
1, 117049, Note_off_c, 0, 63, 111
1, 117049, Note_on_c, 0, 67, 111
1, 117126, Note_off_c, 0, 67, 111
1, 117132, Note_on_c, 0, 70, 115
1, 117172, Note_off_c, 0, 70, 115
1, 117175, Note_on_c, 0, 67, 108
1, 117235, Note_off_c, 0, 67, 108
1, 117238, Note_on_c, 0, 63, 116
1, 117305, Note_off_c, 0, 63, 116
1, 117305, Note_on_c, 0, 60, 106
1, 117345, Note_off_c, 0, 60, 106
1, 117345, Note_on_c, 0, 63, 115
1, 117395, Note_off_c, 0, 63, 115
1, 117401, Note_on_c, 0, 65, 107
1, 117444, Note_off_c, 0, 65, 107
1, 117447, Note_on_c, 0, 67, 109
1, 117490, Note_off_c, 0, 67, 109
1, 117490, Note_on_c, 0, 70, 116
1, 117536, Note_off_c, 0, 70, 116
1, 117546, Note_on_c, 0, 67, 112
1, 117599, Note_off_c, 0, 67, 112
1, 117612, Note_on_c, 0, 65, 113
1, 117672, Note_off_c, 0, 65, 113
1, 117672, Note_on_c, 0, 63, 117
1, 117729, Note_off_c, 0, 63, 117
1, 117759, Note_on_c, 0, 67, 119
1, 117849, Note_off_c, 0, 67, 119
1, 117852, Note_on_c, 0, 70, 121
1, 118019, Note_off_c, 0, 70, 121
1, 118438, Note_on_c, 0, 70, 106
1, 118483, Note_off_c, 0, 70, 106
1, 118491, Note_on_c, 0, 74, 121
1, 118631, Note_off_c, 0, 74, 121
1, 118644, Note_on_c, 0, 73, 118
1, 118711, Note_off_c, 0, 73, 118
1, 118724, Note_on_c, 0, 72, 115
1, 118760, Note_off_c, 0, 72, 115
1, 118786, Note_on_c, 0, 71, 118
1, 118896, Note_off_c, 0, 71, 118
1, 118896, Note_on_c, 0, 68, 113
1, 119000, Note_off_c, 0, 68, 113
1, 119003, Note_on_c, 0, 67, 108
1, 119076, Note_off_c, 0, 67, 108
1, 119092, Note_on_c, 0, 66, 110
1, 119179, Note_off_c, 0, 66, 110
1, 119184, Note_on_c, 0, 65, 107
1, 119249, Note_off_c, 0, 65, 107
1, 119264, Note_on_c, 0, 63, 117
1, 119326, Note_off_c, 0, 63, 117
1, 119327, Note_on_c, 0, 62, 108
1, 119417, Note_off_c, 0, 62, 108
1, 119443, Note_on_c, 0, 60, 111
1, 119533, Note_off_c, 0, 60, 111
1, 119533, Note_on_c, 0, 59, 111
1, 119613, Note_off_c, 0, 59, 111
1, 119619, Note_on_c, 0, 55, 100
1, 119679, Note_off_c, 0, 55, 100
1, 119715, Note_on_c, 0, 59, 104
1, 119792, Note_off_c, 0, 59, 104
1, 119822, Note_on_c, 0, 62, 109
1, 119892, Note_off_c, 0, 62, 109
1, 119902, Note_on_c, 0, 60, 106
1, 119985, Note_off_c, 0, 60, 106
1, 120005, Note_on_c, 0, 62, 114
1, 120082, Note_off_c, 0, 62, 114
1, 120105, Note_on_c, 0, 63, 110
1, 120188, Note_off_c, 0, 63, 110
1, 120211, Note_on_c, 0, 65, 116
1, 120268, Note_off_c, 0, 65, 116
1, 120271, Note_on_c, 0, 67, 115
1, 120368, Note_off_c, 0, 67, 115
1, 120368, Note_on_c, 0, 63, 117
1, 120448, Note_off_c, 0, 63, 117
1, 120448, Note_on_c, 0, 60, 110
1, 120575, Note_off_c, 0, 60, 110
1, 120632, Note_on_c, 0, 65, 114
1, 120756, Note_off_c, 0, 65, 114
1, 120759, Note_on_c, 0, 62, 119
1, 120822, Note_on_c, 0, 59, 109
1, 120822, Note_off_c, 0, 62, 119
1, 120905, Note_off_c, 0, 59, 109
1, 120941, Note_on_c, 0, 55, 108
1, 121001, Note_off_c, 0, 55, 108
1, 121001, Note_on_c, 0, 63, 121
1, 121101, Note_off_c, 0, 63, 121
1, 121124, Note_on_c, 0, 60, 105
1, 121194, Note_off_c, 0, 60, 105
1, 121194, Note_on_c, 0, 63, 121
1, 121291, Note_off_c, 0, 63, 121
1, 121311, Note_on_c, 0, 67, 117
1, 121398, Note_off_c, 0, 67, 117
1, 121502, Note_on_c, 0, 67, 120
1, 121589, Note_off_c, 0, 67, 120
1, 121595, Note_on_c, 0, 65, 114
1, 121709, Note_on_c, 0, 68, 119
1, 121709, Note_off_c, 0, 65, 114
1, 122182, Note_off_c, 0, 68, 119
1, 122185, Note_on_c, 0, 67, 117
1, 122248, Note_off_c, 0, 67, 117
1, 122264, Note_on_c, 0, 68, 122
1, 122331, Note_off_c, 0, 68, 122
1, 122351, Note_on_c, 0, 67, 114
1, 122431, Note_off_c, 0, 67, 114
1, 122474, Note_on_c, 0, 65, 116
1, 122551, Note_off_c, 0, 65, 116
1, 122554, Note_on_c, 0, 63, 120
1, 122614, Note_off_c, 0, 63, 120
1, 122647, Note_on_c, 0, 60, 115
1, 122764, Note_off_c, 0, 60, 115
1, 123307, Note_on_c, 0, 64, 123
1, 123424, Note_off_c, 0, 64, 123
1, 123427, Note_on_c, 0, 67, 99
1, 123531, Note_on_c, 0, 70, 117
1, 123531, Note_off_c, 0, 67, 99
1, 123621, Note_off_c, 0, 70, 117
1, 123664, Note_on_c, 0, 75, 105
1, 123764, Note_off_c, 0, 75, 105
1, 123821, Note_on_c, 0, 75, 119
1, 123908, Note_off_c, 0, 75, 119
1, 123918, Note_on_c, 0, 73, 118
1, 123988, Note_off_c, 0, 73, 118
1, 123994, Note_on_c, 0, 72, 114
1, 124339, Note_off_c, 0, 72, 114
1, 124365, Note_on_c, 0, 70, 109
1, 124418, Note_on_c, 0, 68, 116
1, 124418, Note_off_c, 0, 70, 109
1, 124478, Note_off_c, 0, 68, 116
1, 124478, Note_on_c, 0, 67, 116
1, 124736, Note_off_c, 0, 67, 116
1, 124750, Note_on_c, 0, 65, 112
1, 124788, Note_off_c, 0, 65, 112
1, 124794, Note_on_c, 0, 63, 114
1, 124846, Note_off_c, 0, 63, 114
1, 124856, Note_on_c, 0, 60, 111
1, 124919, Note_off_c, 0, 60, 111
1, 124919, Note_on_c, 0, 58, 106
1, 124962, Note_off_c, 0, 58, 106
1, 124963, Note_on_c, 0, 56, 110
1, 125023, Note_off_c, 0, 56, 110
1, 125023, Note_on_c, 0, 55, 110
1, 125083, Note_off_c, 0, 55, 110
1, 125085, Note_on_c, 0, 53, 109
1, 125155, Note_off_c, 0, 53, 109
1, 125155, Note_on_c, 0, 51, 116
1, 125191, Note_off_c, 0, 51, 116
1, 125191, Note_on_c, 0, 48, 118
1, 125281, Note_off_c, 0, 48, 118
1, 125297, Note_on_c, 0, 46, 116
1, 125441, Note_off_c, 0, 46, 116
1, 125762, Note_on_c, 0, 50, 109
1, 125807, Note_off_c, 0, 50, 109
1, 125807, Note_on_c, 0, 51, 115
1, 125914, Note_off_c, 0, 51, 115
1, 125914, Note_on_c, 0, 48, 109
1, 125940, Note_off_c, 0, 48, 109
1, 125940, Note_on_c, 0, 53, 105
1, 126000, Note_off_c, 0, 53, 105
1, 126000, Note_on_c, 0, 50, 113
1, 126036, Note_off_c, 0, 50, 113
1, 126036, Note_on_c, 0, 51, 113
1, 126096, Note_off_c, 0, 51, 113
1, 126109, Note_on_c, 0, 50, 110
1, 126149, Note_off_c, 0, 50, 110
1, 126149, Note_on_c, 0, 51, 112
1, 126195, Note_on_c, 0, 53, 107
1, 126195, Note_off_c, 0, 51, 112
1, 126231, Note_off_c, 0, 53, 107
1, 126241, Note_on_c, 0, 54, 105
1, 126284, Note_off_c, 0, 54, 105
1, 126297, Note_on_c, 0, 56, 111
1, 126317, Note_off_c, 0, 56, 111
1, 126323, Note_on_c, 0, 57, 112
1, 126390, Note_off_c, 0, 57, 112
1, 126390, Note_on_c, 0, 59, 101
1, 126436, Note_off_c, 0, 59, 101
1, 126462, Note_on_c, 0, 60, 111
1, 126498, Note_off_c, 0, 60, 111
1, 126501, Note_on_c, 0, 61, 110
1, 126534, Note_on_c, 0, 62, 114
1, 126534, Note_off_c, 0, 61, 110
1, 126580, Note_off_c, 0, 62, 114
1, 126580, Note_on_c, 0, 63, 114
1, 126630, Note_off_c, 0, 63, 114
1, 126633, Note_on_c, 0, 65, 116
1, 126686, Note_off_c, 0, 65, 116
1, 126689, Note_on_c, 0, 63, 113
1, 126739, Note_off_c, 0, 63, 113
1, 126739, Note_on_c, 0, 65, 113
1, 126772, Note_off_c, 0, 65, 113
1, 126778, Note_on_c, 0, 67, 94
1, 126838, Note_off_c, 0, 67, 94
1, 126838, Note_on_c, 0, 69, 102
1, 126891, Note_off_c, 0, 69, 102
1, 126891, Note_on_c, 0, 70, 104
1, 126931, Note_off_c, 0, 70, 104
1, 126934, Note_on_c, 0, 71, 120
1, 127014, Note_off_c, 0, 71, 120
1, 127282, Note_on_c, 0, 50, 106
1, 127328, Note_off_c, 0, 50, 106
1, 127328, Note_on_c, 0, 53, 106
1, 127364, Note_off_c, 0, 53, 106
1, 127374, Note_on_c, 0, 56, 114
1, 127410, Note_off_c, 0, 56, 114
1, 127416, Note_on_c, 0, 57, 110
1, 127466, Note_off_c, 0, 57, 110
1, 127476, Note_on_c, 0, 60, 112
1, 127533, Note_off_c, 0, 60, 112
1, 127533, Note_on_c, 0, 63, 111
1, 127596, Note_off_c, 0, 63, 111
1, 127619, Note_on_c, 0, 66, 102
1, 127649, Note_off_c, 0, 66, 102
1, 127655, Note_on_c, 0, 67, 111
1, 127681, Note_off_c, 0, 67, 111
1, 127717, Note_on_c, 0, 70, 111
1, 127827, Note_off_c, 0, 70, 111
1, 127914, Note_on_c, 0, 49, 113
1, 127942, Note_off_c, 0, 49, 113
1, 127943, Note_on_c, 0, 51, 106
1, 127973, Note_off_c, 0, 51, 106
1, 127976, Note_on_c, 0, 53, 105
1, 128012, Note_off_c, 0, 53, 105
1, 128020, Note_on_c, 0, 55, 107
1, 128038, Note_off_c, 0, 55, 107
1, 128046, Note_on_c, 0, 57, 112
1, 128071, Note_off_c, 0, 57, 112
1, 128071, Note_on_c, 0, 59, 112
1, 128144, Note_on_c, 0, 61, 114
1, 128144, Note_off_c, 0, 59, 112
1, 128184, Note_off_c, 0, 61, 114
1, 128187, Note_on_c, 0, 63, 116
1, 128230, Note_on_c, 0, 65, 109
1, 128230, Note_off_c, 0, 63, 116
1, 128280, Note_off_c, 0, 65, 109
1, 128286, Note_on_c, 0, 67, 114
1, 128326, Note_off_c, 0, 67, 114
1, 128326, Note_on_c, 0, 69, 117
1, 128372, Note_off_c, 0, 69, 117
1, 128382, Note_on_c, 0, 71, 117
1, 128747, Note_off_c, 0, 71, 117
1, 128747, Note_on_c, 0, 70, 108
1, 128797, Note_off_c, 0, 70, 108
1, 128800, Note_on_c, 0, 71, 115
1, 128836, Note_off_c, 0, 71, 115
1, 128842, Note_on_c, 0, 67, 108
1, 128895, Note_off_c, 0, 67, 108
1, 128901, Note_on_c, 0, 69, 115
1, 128951, Note_off_c, 0, 69, 115
1, 128954, Note_on_c, 0, 71, 117
1, 129024, Note_off_c, 0, 71, 117
1, 129027, Note_on_c, 0, 69, 115
1, 129097, Note_off_c, 0, 69, 115
1, 129133, Note_on_c, 0, 65, 111
1, 129226, Note_off_c, 0, 65, 111
1, 129699, Note_on_c, 0, 66, 114
1, 129735, Note_off_c, 0, 66, 114
1, 129745, Note_on_c, 0, 67, 117
1, 130124, Note_off_c, 0, 67, 117
1, 130140, Note_on_c, 0, 60, 113
1, 130223, Note_off_c, 0, 60, 113
1, 130256, Note_on_c, 0, 63, 117
1, 130319, Note_off_c, 0, 63, 117
1, 130319, Note_on_c, 0, 67, 117
1, 130402, Note_off_c, 0, 67, 117
1, 130455, Note_on_c, 0, 58, 109
1, 130552, Note_off_c, 0, 58, 109
1, 130629, Note_on_c, 0, 62, 112
1, 130712, Note_off_c, 0, 62, 112
1, 130725, Note_on_c, 0, 65, 115
1, 130822, Note_off_c, 0, 65, 115
1, 130822, Note_on_c, 0, 60, 119
1, 131117, Note_off_c, 0, 60, 119
1, 131174, Note_on_c, 0, 63, 108
1, 131220, Note_off_c, 0, 63, 108
1, 131226, Note_on_c, 0, 66, 111
1, 131266, Note_off_c, 0, 66, 111
1, 131269, Note_on_c, 0, 58, 107
1, 131359, Note_off_c, 0, 58, 107
1, 131395, Note_on_c, 0, 62, 115
1, 131468, Note_off_c, 0, 62, 115
1, 131481, Note_on_c, 0, 65, 114
1, 131568, Note_off_c, 0, 65, 114
1, 131635, Note_on_c, 0, 60, 116
1, 131769, Note_off_c, 0, 60, 116
1, 131772, Note_on_c, 0, 63, 121
1, 131842, Note_off_c, 0, 63, 121
1, 131845, Note_on_c, 0, 67, 118
1, 131949, Note_off_c, 0, 67, 118
1, 132036, Note_on_c, 0, 58, 112
1, 132166, Note_off_c, 0, 58, 112
1, 132166, Note_on_c, 0, 62, 122
1, 132219, Note_off_c, 0, 62, 122
1, 132232, Note_on_c, 0, 65, 119
1, 132319, Note_off_c, 0, 65, 119
1, 132335, Note_on_c, 0, 63, 125
1, 132717, Note_off_c, 0, 63, 125
1, 132723, Note_on_c, 0, 60, 105
1, 132790, Note_off_c, 0, 60, 105
1, 132806, Note_on_c, 0, 63, 121
1, 132896, Note_off_c, 0, 63, 121
1, 132896, Note_on_c, 0, 67, 112
1, 133000, Note_off_c, 0, 67, 112
1, 133302, Note_on_c, 0, 65, 114
1, 133392, Note_off_c, 0, 65, 114
1, 133398, Note_on_c, 0, 68, 116
1, 133468, Note_off_c, 0, 68, 116
1, 133468, Note_on_c, 0, 72, 113
1, 133548, Note_off_c, 0, 72, 113
1, 133574, Note_on_c, 0, 63, 118
1, 133691, Note_off_c, 0, 63, 118
1, 133691, Note_on_c, 0, 67, 115
1, 133768, Note_off_c, 0, 67, 115
1, 133784, Note_on_c, 0, 70, 118
1, 133857, Note_on_c, 0, 65, 113
1, 133857, Note_off_c, 0, 70, 118
1, 134102, Note_off_c, 0, 65, 113
1, 134102, Note_on_c, 0, 67, 111
1, 134155, Note_off_c, 0, 67, 111
1, 134181, Note_on_c, 0, 72, 107
1, 134234, Note_on_c, 0, 63, 116
1, 134234, Note_off_c, 0, 72, 107
1, 134321, Note_off_c, 0, 63, 116
1, 134351, Note_on_c, 0, 67, 117
1, 134411, Note_off_c, 0, 67, 117
1, 134411, Note_on_c, 0, 70, 116
1, 134488, Note_off_c, 0, 70, 116
1, 134558, Note_on_c, 0, 60, 112
1, 134655, Note_off_c, 0, 60, 112
1, 134668, Note_on_c, 0, 63, 116
1, 134913, Note_off_c, 0, 63, 116
1, 134913, Note_on_c, 0, 67, 113
1, 135027, Note_off_c, 0, 67, 113
1, 135097, Note_on_c, 0, 58, 109
1, 135295, Note_off_c, 0, 58, 109
1, 135345, Note_on_c, 0, 62, 116
1, 135378, Note_off_c, 0, 62, 116
1, 135388, Note_on_c, 0, 65, 110
1, 135458, Note_off_c, 0, 65, 110
1, 135458, Note_on_c, 0, 60, 119
1, 135656, Note_off_c, 0, 60, 119
1, 135669, Note_on_c, 0, 63, 116
1, 135712, Note_off_c, 0, 63, 116
1, 135752, Note_on_c, 0, 67, 114
1, 135822, Note_off_c, 0, 67, 114
1, 135825, Note_on_c, 0, 62, 110
1, 135972, Note_off_c, 0, 62, 110
1, 136317, Note_on_c, 0, 67, 115
1, 136384, Note_off_c, 0, 67, 115
1, 136384, Note_on_c, 0, 66, 112
1, 136444, Note_off_c, 0, 66, 112
1, 136467, Note_on_c, 0, 66, 113
1, 136591, Note_off_c, 0, 66, 113
1, 136611, Note_on_c, 0, 65, 112
1, 136674, Note_off_c, 0, 65, 112
1, 136685, Note_on_c, 0, 64, 120
1, 136773, Note_off_c, 0, 64, 120
1, 136780, Note_on_c, 0, 63, 121
1, 136863, Note_off_c, 0, 63, 121
1, 136872, Note_on_c, 0, 62, 111
1, 136895, Note_off_c, 0, 62, 111
1, 136895, Note_on_c, 0, 60, 110
1, 136983, Note_off_c, 0, 60, 110
1, 136983, Note_on_c, 0, 58, 105
1, 137056, Note_off_c, 0, 58, 105
1, 137077, Note_on_c, 0, 53, 107
1, 137143, Note_off_c, 0, 53, 107
1, 137259, Note_on_c, 0, 53, 107
1, 137328, Note_off_c, 0, 53, 107
1, 137354, Note_on_c, 0, 57, 109
1, 137444, Note_off_c, 0, 57, 109
1, 137458, Note_on_c, 0, 62, 113
1, 137543, Note_off_c, 0, 62, 113
1, 137543, Note_on_c, 0, 59, 109
1, 137621, Note_off_c, 0, 59, 109
1, 137632, Note_on_c, 0, 57, 108
1, 137713, Note_off_c, 0, 57, 108
1, 137806, Note_on_c, 0, 57, 104
1, 137884, Note_off_c, 0, 57, 104
1, 137884, Note_on_c, 0, 59, 108
1, 137941, Note_off_c, 0, 59, 108
1, 137979, Note_on_c, 0, 62, 113
1, 138072, Note_off_c, 0, 62, 113
1, 138072, Note_on_c, 0, 60, 107
1, 138172, Note_off_c, 0, 60, 107
1, 138183, Note_on_c, 0, 62, 115
1, 138288, Note_off_c, 0, 62, 115
1, 138297, Note_on_c, 0, 63, 101
1, 138394, Note_off_c, 0, 63, 101
1, 138401, Note_on_c, 0, 65, 110
1, 138486, Note_off_c, 0, 65, 110
1, 138486, Note_on_c, 0, 67, 107
1, 138574, Note_off_c, 0, 67, 107
1, 138574, Note_on_c, 0, 72, 117
1, 138640, Note_off_c, 0, 72, 117
1, 138659, Note_on_c, 0, 67, 110
1, 138752, Note_off_c, 0, 67, 110
1, 138768, Note_on_c, 0, 65, 114
1, 138861, Note_off_c, 0, 65, 114
1, 138861, Note_on_c, 0, 63, 119
1, 138949, Note_off_c, 0, 63, 119
1, 138956, Note_on_c, 0, 67, 115
1, 139027, Note_off_c, 0, 67, 115
1, 139036, Note_on_c, 0, 63, 117
1, 139095, Note_off_c, 0, 63, 117
1, 139109, Note_on_c, 0, 62, 114
1, 139182, Note_off_c, 0, 62, 114
1, 139196, Note_on_c, 0, 60, 108
1, 139327, Note_off_c, 0, 60, 108
1, 139391, Note_on_c, 0, 62, 118
1, 139498, Note_off_c, 0, 62, 118
1, 139498, Note_on_c, 0, 63, 119
1, 140044, Note_off_c, 0, 63, 119
1, 140044, Note_on_c, 0, 62, 117
1, 140191, Note_off_c, 0, 62, 117
1, 140198, Note_on_c, 0, 63, 121
1, 140300, Note_off_c, 0, 63, 121
1, 140302, Note_on_c, 0, 65, 111
1, 140395, Note_off_c, 0, 65, 111
1, 140874, Note_on_c, 0, 63, 118
1, 140971, Note_off_c, 0, 63, 118
1, 140972, Note_on_c, 0, 65, 109
1, 141090, Note_off_c, 0, 65, 109
1, 141098, Note_on_c, 0, 66, 117
1, 141142, Note_off_c, 0, 66, 117
1, 141152, Note_on_c, 0, 67, 118
1, 141705, Note_off_c, 0, 67, 118
1, 141747, Note_on_c, 0, 70, 120
1, 141789, Note_off_c, 0, 70, 120
1, 141789, Note_on_c, 0, 69, 118
1, 141834, Note_off_c, 0, 69, 118
1, 141850, Note_on_c, 0, 65, 113
1, 141922, Note_off_c, 0, 65, 113
1, 141947, Note_on_c, 0, 63, 116
1, 142004, Note_off_c, 0, 63, 116
1, 142023, Note_on_c, 0, 60, 120
1, 142438, Note_off_c, 0, 60, 120
1, 142438, Note_on_c, 0, 65, 110
1, 142533, Note_on_c, 0, 60, 105
1, 142533, Note_off_c, 0, 65, 110
1, 142595, Note_off_c, 0, 60, 105
1, 142595, Note_on_c, 0, 65, 112
1, 142661, Note_off_c, 0, 65, 112
1, 142661, Note_on_c, 0, 68, 117
1, 142739, Note_off_c, 0, 68, 117
1, 142758, Note_on_c, 0, 65, 106
1, 142812, Note_off_c, 0, 65, 106
1, 142812, Note_on_c, 0, 68, 118
1, 142871, Note_off_c, 0, 68, 118
1, 142871, Note_on_c, 0, 72, 114
1, 142944, Note_off_c, 0, 72, 114
1, 142946, Note_on_c, 0, 75, 117
1, 143301, Note_off_c, 0, 75, 117
1, 143312, Note_on_c, 0, 74, 101
1, 143339, Note_off_c, 0, 74, 101
1, 143352, Note_on_c, 0, 71, 110
1, 143380, Note_off_c, 0, 71, 110
1, 143382, Note_on_c, 0, 70, 113
1, 143422, Note_off_c, 0, 70, 113
1, 143424, Note_on_c, 0, 68, 116
1, 143466, Note_off_c, 0, 68, 116
1, 143474, Note_on_c, 0, 67, 113
1, 143598, Note_off_c, 0, 67, 113
1, 144114, Note_on_c, 0, 67, 118
1, 144195, Note_off_c, 0, 67, 118
1, 144195, Note_on_c, 0, 66, 113
1, 144302, Note_off_c, 0, 66, 113
1, 144306, Note_on_c, 0, 63, 122
1, 144387, Note_off_c, 0, 63, 122
1, 144394, Note_on_c, 0, 62, 116
1, 144484, Note_off_c, 0, 62, 116
1, 144498, Note_on_c, 0, 65, 114
1, 144567, Note_off_c, 0, 65, 114
1, 144567, Note_on_c, 0, 63, 120
1, 144681, Note_off_c, 0, 63, 120
1, 144688, Note_on_c, 0, 60, 115
1, 144769, Note_off_c, 0, 60, 115
1, 144774, Note_on_c, 0, 59, 108
1, 144854, Note_off_c, 0, 59, 108
1, 144885, Note_on_c, 0, 55, 108
1, 144932, Note_off_c, 0, 55, 108
1, 144939, Note_on_c, 0, 60, 110
1, 145118, Note_off_c, 0, 60, 110
1, 145163, Note_on_c, 0, 63, 111
1, 145253, Note_off_c, 0, 63, 111
1, 145272, Note_on_c, 0, 65, 112
1, 145319, Note_off_c, 0, 65, 112
1, 145333, Note_on_c, 0, 66, 115
1, 145397, Note_off_c, 0, 66, 115
1, 145475, Note_on_c, 0, 65, 113
1, 146093, Note_off_c, 0, 65, 113
1, 146097, Note_on_c, 0, 66, 113
1, 146123, Note_off_c, 0, 66, 113
1, 146127, Note_on_c, 0, 65, 116
1, 146394, Note_off_c, 0, 65, 116
1, 146398, Note_on_c, 0, 66, 115
1, 146424, Note_off_c, 0, 66, 115
1, 146426, Note_on_c, 0, 65, 116
1, 146707, Note_off_c, 0, 65, 116
1, 146718, Note_on_c, 0, 63, 117
1, 146794, Note_off_c, 0, 63, 117
1, 146822, Note_on_c, 0, 60, 109
1, 147239, Note_off_c, 0, 60, 109
1, 147290, Note_on_c, 0, 58, 9
1, 147457, Note_off_c, 0, 58, 9
1, 147473, Note_on_c, 0, 62, 119
1, 147568, Note_off_c, 0, 62, 119
1, 147596, Note_on_c, 0, 60, 119
1, 147827, Note_off_c, 0, 60, 119
1, 147831, Note_on_c, 0, 55, 117
1, 148222, Note_off_c, 0, 55, 117
1, 148222, End_track
0, 0, End_of_file
