0, 0, Header, 1, 1, 192
1, 0, Start_track
1, 0, Title_t, "Melody"
1, 0, Tempo, 361445
1, 0, Key_signature, -4, "major"
1, 0, Time_signature, 4, 2, 24, 8
1, 1905, Note_on_c, 0, 75, 116
1, 2018, Note_off_c, 0, 75, 116
1, 2221, Note_on_c, 0, 77, 110
1, 2283, Note_off_c, 0, 77, 110
1, 2292, Note_on_c, 0, 79, 124
1, 2380, Note_off_c, 0, 79, 124
1, 2418, Note_on_c, 0, 82, 105
1, 2601, Note_off_c, 0, 82, 105
1, 2633, Note_on_c, 0, 79, 106
1, 2682, Note_off_c, 0, 79, 106
1, 2717, Note_on_c, 0, 82, 106
1, 2868, Note_off_c, 0, 82, 106
1, 2900, Note_on_c, 0, 79, 117
1, 2986, Note_off_c, 0, 79, 117
1, 3019, Note_on_c, 0, 78, 116
1, 3065, Note_off_c, 0, 78, 116
1, 3075, Note_on_c, 0, 79, 124
1, 3149, Note_off_c, 0, 79, 124
1, 3161, Note_on_c, 0, 77, 112
1, 3198, Note_off_c, 0, 77, 112
1, 3216, Note_on_c, 0, 75, 119
1, 3269, Note_off_c, 0, 75, 119
1, 3292, Note_on_c, 0, 73, 123
1, 3372, Note_off_c, 0, 73, 123
1, 3375, Note_on_c, 0, 72, 107
1, 3418, Note_off_c, 0, 72, 107
1, 3428, Note_on_c, 0, 70, 106
1, 3472, Note_off_c, 0, 70, 106
1, 3484, Note_on_c, 0, 72, 106
1, 3747, Note_off_c, 0, 72, 106
1, 3861, Note_on_c, 0, 72, 116
1, 3956, Note_off_c, 0, 72, 116
1, 3971, Note_on_c, 0, 75, 123
1, 4052, Note_off_c, 0, 75, 123
1, 4087, Note_on_c, 0, 77, 122
1, 4139, Note_off_c, 0, 77, 122
1, 4179, Note_on_c, 0, 71, 113
1, 4232, Note_off_c, 0, 71, 113
1, 4239, Note_on_c, 0, 72, 117
1, 4325, Note_off_c, 0, 72, 117
1, 4370, Note_on_c, 0, 80, 100
1, 4535, Note_off_c, 0, 80, 100
1, 4564, Note_on_c, 0, 77, 108
1, 4630, Note_off_c, 0, 77, 108
1, 4664, Note_on_c, 0, 80, 124
1, 4734, Note_off_c, 0, 80, 124
1, 4778, Note_on_c, 0, 77, 83
1, 4993, Note_off_c, 0, 77, 83
1, 5042, Note_on_c, 0, 79, 120
1, 5112, Note_off_c, 0, 79, 120
1, 5141, Note_on_c, 0, 81, 116
1, 5224, Note_off_c, 0, 81, 116
1, 5246, Note_on_c, 0, 82, 119
1, 5330, Note_off_c, 0, 82, 119
1, 5345, Note_on_c, 0, 75, 111
1, 5412, Note_off_c, 0, 75, 111
1, 5421, Note_on_c, 0, 79, 121
1, 5505, Note_off_c, 0, 79, 121
1, 5537, Note_on_c, 0, 77, 112
1, 5592, Note_off_c, 0, 77, 112
1, 5619, Note_on_c, 0, 75, 124
1, 5696, Note_off_c, 0, 75, 124
1, 5726, Note_on_c, 0, 72, 120
1, 5773, Note_off_c, 0, 72, 120
1, 5805, Note_on_c, 0, 73, 123
1, 5875, Note_off_c, 0, 73, 123
1, 5932, Note_on_c, 0, 73, 118
1, 6012, Note_off_c, 0, 73, 118
1, 6090, Note_on_c, 0, 73, 98
1, 6436, Note_off_c, 0, 73, 98
1, 6531, Note_on_c, 0, 71, 118
1, 6603, Note_off_c, 0, 71, 118
1, 6633, Note_on_c, 0, 72, 114
1, 6694, Note_off_c, 0, 72, 114
1, 6715, Note_on_c, 0, 75, 122
1, 6796, Note_off_c, 0, 75, 122
1, 6829, Note_on_c, 0, 71, 115
1, 6896, Note_off_c, 0, 71, 115
1, 6911, Note_on_c, 0, 72, 116
1, 6988, Note_off_c, 0, 72, 116
1, 7029, Note_on_c, 0, 80, 92
1, 7207, Note_off_c, 0, 80, 92
1, 7239, Note_on_c, 0, 77, 84
1, 7288, Note_off_c, 0, 77, 84
1, 7297, Note_on_c, 0, 80, 115
1, 7391, Note_off_c, 0, 80, 115
1, 7406, Note_on_c, 0, 77, 102
1, 7444, Note_off_c, 0, 77, 102
1, 7478, Note_on_c, 0, 71, 113
1, 7581, Note_off_c, 0, 71, 113
1, 7596, Note_on_c, 0, 72, 117
1, 7660, Note_off_c, 0, 72, 117
1, 7672, Note_on_c, 0, 75, 94
1, 7849, Note_off_c, 0, 75, 94
1, 7870, Note_on_c, 0, 77, 117
1, 7930, Note_off_c, 0, 77, 117
1, 8156, Note_on_c, 0, 85, 127
1, 8439, Note_off_c, 0, 85, 127
1, 8449, Note_on_c, 0, 82, 108
1, 8523, Note_off_c, 0, 82, 108
1, 8547, Note_on_c, 0, 78, 111
1, 8713, Note_off_c, 0, 78, 111
1, 8733, Note_on_c, 0, 79, 108
1, 8793, Note_off_c, 0, 79, 108
1, 8793, Note_on_c, 0, 75, 110
1, 8891, Note_off_c, 0, 75, 110
1, 8918, Note_on_c, 0, 77, 112
1, 8968, Note_off_c, 0, 77, 112
1, 8980, Note_on_c, 0, 70, 121
1, 9074, Note_off_c, 0, 70, 121
1, 9100, Note_on_c, 0, 72, 120
1, 9153, Note_off_c, 0, 72, 120
1, 9166, Note_on_c, 0, 73, 118
1, 9229, Note_off_c, 0, 73, 118
1, 9295, Note_on_c, 0, 73, 101
1, 9509, Note_off_c, 0, 73, 101
1, 9564, Note_on_c, 0, 71, 112
1, 9641, Note_off_c, 0, 71, 112
1, 9667, Note_on_c, 0, 72, 112
1, 9725, Note_off_c, 0, 72, 112
1, 9748, Note_on_c, 0, 75, 121
1, 9840, Note_off_c, 0, 75, 121
1, 9849, Note_on_c, 0, 71, 115
1, 9929, Note_off_c, 0, 71, 115
1, 9937, Note_on_c, 0, 72, 118
1, 9998, Note_off_c, 0, 72, 118
1, 10044, Note_on_c, 0, 80, 92
1, 10212, Note_off_c, 0, 80, 92
1, 10228, Note_on_c, 0, 75, 107
1, 10265, Note_off_c, 0, 75, 107
1, 10299, Note_on_c, 0, 80, 94
1, 10450, Note_off_c, 0, 80, 94
1, 10493, Note_on_c, 0, 72, 116
1, 10553, Note_off_c, 0, 72, 116
1, 10619, Note_on_c, 0, 75, 102
1, 10820, Note_off_c, 0, 75, 102
1, 11051, Note_on_c, 0, 76, 114
1, 11174, Note_off_c, 0, 76, 114
1, 11186, Note_on_c, 0, 77, 119
1, 11247, Note_off_c, 0, 77, 119
1, 11270, Note_on_c, 0, 80, 107
1, 11374, Note_off_c, 0, 80, 107
1, 11400, Note_on_c, 0, 77, 105
1, 11453, Note_off_c, 0, 77, 105
1, 11466, Note_on_c, 0, 80, 112
1, 11577, Note_off_c, 0, 80, 112
1, 11597, Note_on_c, 0, 77, 105
1, 11752, Note_off_c, 0, 77, 105
1, 11762, Note_on_c, 0, 72, 116
1, 11828, Note_off_c, 0, 72, 116
1, 11832, Note_on_c, 0, 75, 102
1, 12003, Note_off_c, 0, 75, 102
1, 12021, Note_on_c, 0, 72, 110
1, 12083, Note_off_c, 0, 72, 110
1, 12094, Note_on_c, 0, 71, 109
1, 12150, Note_off_c, 0, 71, 109
1, 12155, Note_on_c, 0, 70, 111
1, 12209, Note_off_c, 0, 70, 111
1, 12219, Note_on_c, 0, 69, 116
1, 12296, Note_off_c, 0, 69, 116
1, 12339, Note_on_c, 0, 77, 113
1, 12400, Note_off_c, 0, 77, 113
1, 12598, Note_on_c, 0, 74, 108
1, 12702, Note_off_c, 0, 74, 108
1, 12717, Note_on_c, 0, 80, 123
1, 12778, Note_off_c, 0, 80, 123
1, 12799, Note_on_c, 0, 77, 117
1, 12849, Note_off_c, 0, 77, 117
1, 12892, Note_on_c, 0, 74, 107
1, 12972, Note_off_c, 0, 74, 107
1, 12985, Note_on_c, 0, 73, 123
1, 13057, Note_off_c, 0, 73, 123
1, 13100, Note_on_c, 0, 79, 116
1, 13166, Note_off_c, 0, 79, 116
1, 13179, Note_on_c, 0, 77, 105
1, 13254, Note_off_c, 0, 77, 105
1, 13274, Note_on_c, 0, 73, 113
1, 13343, Note_off_c, 0, 73, 113
1, 13369, Note_on_c, 0, 72, 112
1, 13552, Note_off_c, 0, 72, 112
1, 13564, Note_on_c, 0, 71, 119
1, 13595, Note_off_c, 0, 71, 119
1, 13601, Note_on_c, 0, 70, 115
1, 13642, Note_off_c, 0, 70, 115
1, 13658, Note_on_c, 0, 69, 113
1, 13718, Note_off_c, 0, 69, 113
1, 13748, Note_on_c, 0, 77, 99
1, 13982, Note_off_c, 0, 77, 99
1, 14106, Note_on_c, 0, 74, 111
1, 14200, Note_off_c, 0, 74, 111
1, 14243, Note_on_c, 0, 80, 123
1, 14310, Note_off_c, 0, 80, 123
1, 14325, Note_on_c, 0, 77, 117
1, 14409, Note_off_c, 0, 77, 117
1, 14425, Note_on_c, 0, 74, 102
1, 14512, Note_off_c, 0, 74, 102
1, 14519, Note_on_c, 0, 73, 122
1, 14606, Note_off_c, 0, 73, 122
1, 14628, Note_on_c, 0, 79, 100
1, 14797, Note_off_c, 0, 79, 100
1, 14827, Note_on_c, 0, 73, 116
1, 14885, Note_off_c, 0, 73, 116
1, 14898, Note_on_c, 0, 72, 113
1, 14992, Note_off_c, 0, 72, 113
1, 15008, Note_on_c, 0, 71, 117
1, 15080, Note_off_c, 0, 71, 117
1, 15084, Note_on_c, 0, 72, 116
1, 15170, Note_off_c, 0, 72, 116
1, 15207, Note_on_c, 0, 73, 117
1, 15285, Note_off_c, 0, 73, 117
1, 15300, Note_on_c, 0, 72, 96
1, 15377, Note_off_c, 0, 72, 96
1, 15377, End_track
0, 0, End_of_file
