0, 0, Header, 1, 1, 840
1, 0, Start_track
1, 0, Title_t, "Melody"
1, 0, Tempo, 337078
1, 0, Key_signature, 4, "major"
1, 0, Time_signature, 3, 2, 24, 8
1, 11727, Note_on_c, 0, 75, 127
1, 11965, Note_off_c, 0, 75, 127
1, 12001, Note_on_c, 0, 71, 118
1, 12167, Note_off_c, 0, 71, 118
1, 13439, Note_on_c, 0, 71, 114
1, 13648, Note_off_c, 0, 71, 114
1, 13716, Note_on_c, 0, 80, 116
1, 13958, Note_off_c, 0, 80, 116
1, 15259, Note_on_c, 0, 83, 99
1, 15479, Note_off_c, 0, 83, 99
1, 15518, Note_on_c, 0, 78, 118
1, 15767, Note_off_c, 0, 78, 118
1, 15846, Note_on_c, 0, 83, 108
1, 15976, Note_off_c, 0, 83, 108
1, 16066, Note_on_c, 0, 80, 121
1, 16319, Note_off_c, 0, 80, 121
1, 16394, Note_on_c, 0, 78, 117
1, 16636, Note_off_c, 0, 78, 117
1, 16683, Note_on_c, 0, 83, 111
1, 16968, Note_off_c, 0, 83, 111
1, 17047, Note_on_c, 0, 75, 116
1, 17325, Note_off_c, 0, 75, 116
1, 17411, Note_on_c, 0, 68, 95
1, 17501, Note_off_c, 0, 68, 95
1, 18538, Note_on_c, 0, 83, 107
1, 18780, Note_off_c, 0, 83, 107
1, 18812, Note_on_c, 0, 73, 118
1, 19148, Note_off_c, 0, 73, 118
1, 20269, Note_on_c, 0, 83, 111
1, 20464, Note_off_c, 0, 83, 111
1, 20536, Note_on_c, 0, 75, 121
1, 20742, Note_off_c, 0, 75, 121
1, 20915, Note_on_c, 0, 83, 101
1, 21045, Note_off_c, 0, 83, 101
1, 21084, Note_on_c, 0, 78, 107
1, 21340, Note_off_c, 0, 78, 107
1, 21434, Note_on_c, 0, 83, 106
1, 21614, Note_off_c, 0, 83, 106
1, 21661, Note_on_c, 0, 75, 116
1, 21903, Note_off_c, 0, 75, 116
1, 21964, Note_on_c, 0, 83, 107
1, 22166, Note_off_c, 0, 83, 107
1, 22238, Note_on_c, 0, 73, 114
1, 22433, Note_off_c, 0, 73, 114
1, 22516, Note_on_c, 0, 78, 113
1, 22711, Note_off_c, 0, 78, 113
1, 22758, Note_on_c, 0, 75, 114
1, 23025, Note_off_c, 0, 75, 114
1, 24428, Note_on_c, 0, 83, 108
1, 24706, Note_off_c, 0, 83, 108
1, 24807, Note_on_c, 0, 75, 115
1, 25009, Note_off_c, 0, 75, 115
1, 25059, Note_on_c, 0, 71, 103
1, 25247, Note_off_c, 0, 71, 103
1, 25355, Note_on_c, 0, 66, 107
1, 25474, Note_off_c, 0, 66, 107
1, 25539, Note_on_c, 0, 71, 103
1, 25806, Note_off_c, 0, 71, 103
1, 27009, Note_on_c, 0, 71, 105
1, 27319, Note_off_c, 0, 71, 105
1, 27374, Note_on_c, 0, 68, 106
1, 27562, Note_off_c, 0, 68, 106
1, 27617, Note_on_c, 0, 71, 109
1, 27845, Note_off_c, 0, 71, 109
1, 27921, Note_on_c, 0, 63, 111
1, 28246, Note_off_c, 0, 63, 111
1, 29515, Note_on_c, 0, 83, 101
1, 29656, Note_off_c, 0, 83, 101
1, 29699, Note_on_c, 0, 85, 98
1, 31930, Note_off_c, 0, 85, 98
1, 31998, Note_on_c, 0, 83, 102
1, 32153, Note_off_c, 0, 83, 102
1, 32420, Note_on_c, 0, 85, 100
1, 32680, Note_off_c, 0, 85, 100
1, 32730, Note_on_c, 0, 83, 98
1, 32874, Note_off_c, 0, 83, 98
1, 32939, Note_on_c, 0, 85, 102
1, 33213, Note_off_c, 0, 85, 102
1, 33263, Note_on_c, 0, 83, 105
1, 33443, Note_off_c, 0, 83, 105
1, 33544, Note_on_c, 0, 78, 111
1, 33732, Note_off_c, 0, 78, 111
1, 33898, Note_on_c, 0, 83, 104
1, 34024, Note_off_c, 0, 83, 104
1, 34089, Note_on_c, 0, 80, 109
1, 34291, Note_off_c, 0, 80, 109
1, 34345, Note_on_c, 0, 75, 114
1, 34551, Note_off_c, 0, 75, 114
1, 34579, Note_on_c, 0, 80, 113
1, 34843, Note_off_c, 0, 80, 113
1, 34868, Note_on_c, 0, 78, 114
1, 35052, Note_off_c, 0, 78, 114
1, 35117, Note_on_c, 0, 73, 112
1, 35326, Note_off_c, 0, 73, 112
1, 35409, Note_on_c, 0, 78, 110
1, 35629, Note_off_c, 0, 78, 110
1, 35679, Note_on_c, 0, 75, 118
1, 35859, Note_off_c, 0, 75, 118
1, 35909, Note_on_c, 0, 71, 103
1, 36057, Note_off_c, 0, 71, 103
1, 36165, Note_on_c, 0, 75, 117
1, 36338, Note_off_c, 0, 75, 117
1, 36392, Note_on_c, 0, 71, 103
1, 36674, Note_off_c, 0, 71, 103
1, 36757, Note_on_c, 0, 73, 116
1, 36988, Note_off_c, 0, 73, 116
1, 37053, Note_on_c, 0, 71, 104
1, 37277, Note_off_c, 0, 71, 104
1, 37382, Note_on_c, 0, 66, 98
1, 38505, Note_off_c, 0, 66, 98
1, 38638, Note_on_c, 0, 71, 107
1, 38887, Note_off_c, 0, 71, 107
1, 38952, Note_on_c, 0, 68, 106
1, 39140, Note_off_c, 0, 68, 106
1, 39190, Note_on_c, 0, 71, 103
1, 39417, Note_off_c, 0, 71, 103
1, 39482, Note_on_c, 0, 68, 104
1, 39720, Note_off_c, 0, 68, 104
1, 39908, Note_on_c, 0, 63, 112
1, 40168, Note_off_c, 0, 63, 112
1, 40240, Note_on_c, 0, 66, 109
1, 40412, Note_off_c, 0, 66, 109
1, 40412, Note_on_c, 0, 63, 111
1, 40534, Note_off_c, 0, 63, 111
1, 40546, Note_on_c, 0, 66, 101
1, 42169, Note_off_c, 0, 66, 101
1, 42226, Note_on_c, 0, 63, 106
1, 42403, Note_off_c, 0, 63, 106
1, 42442, Note_on_c, 0, 66, 101
1, 42619, Note_off_c, 0, 66, 101
1, 42716, Note_on_c, 0, 73, 116
1, 42918, Note_off_c, 0, 73, 116
1, 42975, Note_on_c, 0, 71, 105
1, 43134, Note_off_c, 0, 71, 105
1, 43217, Note_on_c, 0, 66, 103
1, 43607, Note_off_c, 0, 66, 103
1, 44576, Note_on_c, 0, 75, 118
1, 44811, Note_off_c, 0, 75, 118
1, 44861, Note_on_c, 0, 71, 105
1, 45096, Note_off_c, 0, 71, 105
1, 45124, Note_on_c, 0, 73, 117
1, 45355, Note_off_c, 0, 73, 117
1, 45463, Note_on_c, 0, 71, 99
1, 45672, Note_off_c, 0, 71, 99
1, 45737, Note_on_c, 0, 75, 118
1, 46080, Note_off_c, 0, 75, 118
1, 47157, Note_on_c, 0, 82, 112
1, 47366, Note_off_c, 0, 82, 112
1, 47474, Note_on_c, 0, 75, 119
1, 47669, Note_off_c, 0, 75, 119
1, 47759, Note_on_c, 0, 82, 99
1, 47914, Note_off_c, 0, 82, 99
1, 47968, Note_on_c, 0, 76, 120
1, 48210, Note_off_c, 0, 76, 120
1, 48249, Note_on_c, 0, 78, 108
1, 48462, Note_off_c, 0, 78, 108
1, 49597, Note_on_c, 0, 83, 99
1, 52027, Note_off_c, 0, 83, 99
1, 52077, Note_on_c, 0, 80, 109
1, 52283, Note_off_c, 0, 80, 109
1, 52330, Note_on_c, 0, 83, 103
1, 52543, Note_off_c, 0, 83, 103
1, 52633, Note_on_c, 0, 78, 107
1, 52846, Note_off_c, 0, 78, 107
1, 52925, Note_on_c, 0, 83, 109
1, 53084, Note_off_c, 0, 83, 109
1, 53156, Note_on_c, 0, 76, 113
1, 53318, Note_off_c, 0, 76, 113
1, 53440, Note_on_c, 0, 83, 109
1, 53570, Note_off_c, 0, 83, 109
1, 53692, Note_on_c, 0, 75, 118
1, 53861, Note_off_c, 0, 75, 118
1, 53958, Note_on_c, 0, 83, 99
1, 54088, Note_off_c, 0, 83, 99
1, 54221, Note_on_c, 0, 73, 115
1, 54452, Note_off_c, 0, 73, 115
1, 54556, Note_on_c, 0, 83, 106
1, 54682, Note_off_c, 0, 83, 106
1, 54739, Note_on_c, 0, 75, 117
1, 55013, Note_off_c, 0, 75, 117
1, 55117, Note_on_c, 0, 83, 111
1, 55268, Note_off_c, 0, 83, 111
1, 55365, Note_on_c, 0, 76, 115
1, 55545, Note_off_c, 0, 76, 115
1, 55714, Note_on_c, 0, 83, 108
1, 55833, Note_off_c, 0, 83, 108
1, 55912, Note_on_c, 0, 78, 111
1, 56147, Note_off_c, 0, 78, 111
1, 56244, Note_on_c, 0, 83, 98
1, 56399, Note_off_c, 0, 83, 98
1, 56496, Note_on_c, 0, 80, 109
1, 56709, Note_off_c, 0, 80, 109
1, 56864, Note_on_c, 0, 83, 102
1, 57026, Note_off_c, 0, 83, 102
1, 57112, Note_on_c, 0, 78, 108
1, 57278, Note_off_c, 0, 78, 108
1, 57400, Note_on_c, 0, 83, 102
1, 57562, Note_off_c, 0, 83, 102
1, 57684, Note_on_c, 0, 78, 116
1, 57843, Note_off_c, 0, 78, 116
1, 57958, Note_on_c, 0, 83, 107
1, 58073, Note_off_c, 0, 83, 107
1, 58152, Note_on_c, 0, 76, 119
1, 58329, Note_off_c, 0, 76, 119
1, 58444, Note_on_c, 0, 83, 99
1, 58577, Note_off_c, 0, 83, 99
1, 58656, Note_on_c, 0, 75, 122
1, 58818, Note_off_c, 0, 75, 122
1, 58915, Note_on_c, 0, 83, 113
1, 59048, Note_off_c, 0, 83, 113
1, 59131, Note_on_c, 0, 73, 115
1, 59268, Note_off_c, 0, 73, 115
1, 59369, Note_on_c, 0, 83, 112
1, 59510, Note_off_c, 0, 83, 112
1, 59600, Note_on_c, 0, 75, 117
1, 59762, Note_off_c, 0, 75, 117
1, 59834, Note_on_c, 0, 83, 111
1, 59989, Note_off_c, 0, 83, 111
1, 60054, Note_on_c, 0, 76, 115
1, 60198, Note_off_c, 0, 76, 115
1, 60255, Note_on_c, 0, 83, 112
1, 60446, Note_off_c, 0, 83, 112
1, 60503, Note_on_c, 0, 78, 119
1, 60698, Note_off_c, 0, 78, 119
1, 60771, Note_on_c, 0, 71, 92
1, 60933, Note_off_c, 0, 71, 92
1, 61000, Note_on_c, 0, 80, 117
1, 61180, Note_off_c, 0, 80, 117
1, 61227, Note_on_c, 0, 83, 113
1, 61407, Note_off_c, 0, 83, 113
1, 61439, Note_on_c, 0, 78, 114
1, 61627, Note_off_c, 0, 78, 114
1, 61681, Note_on_c, 0, 83, 90
1, 61829, Note_off_c, 0, 83, 90
1, 61894, Note_on_c, 0, 78, 114
1, 62045, Note_off_c, 0, 78, 114
1, 62088, Note_on_c, 0, 83, 105
1, 62221, Note_off_c, 0, 83, 105
1, 62268, Note_on_c, 0, 76, 116
1, 62405, Note_off_c, 0, 76, 116
1, 62459, Note_on_c, 0, 83, 104
1, 62560, Note_off_c, 0, 83, 104
1, 62646, Note_on_c, 0, 75, 115
1, 62823, Note_off_c, 0, 75, 115
1, 62888, Note_on_c, 0, 83, 98
1, 62996, Note_off_c, 0, 83, 98
1, 63090, Note_on_c, 0, 73, 111
1, 63223, Note_off_c, 0, 73, 111
1, 63288, Note_on_c, 0, 83, 100
1, 63414, Note_off_c, 0, 83, 100
1, 63479, Note_on_c, 0, 75, 118
1, 63699, Note_off_c, 0, 75, 118
1, 63742, Note_on_c, 0, 83, 107
1, 63864, Note_off_c, 0, 83, 107
1, 63921, Note_on_c, 0, 75, 118
1, 64087, Note_off_c, 0, 75, 118
1, 64123, Note_on_c, 0, 83, 108
1, 64256, Note_off_c, 0, 83, 108
1, 64303, Note_on_c, 0, 76, 115
1, 64538, Note_off_c, 0, 76, 115
1, 64556, Note_on_c, 0, 83, 102
1, 64642, Note_off_c, 0, 83, 102
1, 64717, Note_on_c, 0, 78, 116
1, 64876, Note_off_c, 0, 78, 116
1, 64933, Note_on_c, 0, 83, 105
1, 65052, Note_off_c, 0, 83, 105
1, 65167, Note_on_c, 0, 78, 114
1, 65315, Note_off_c, 0, 78, 114
1, 65354, Note_on_c, 0, 83, 89
1, 65451, Note_off_c, 0, 83, 89
1, 65523, Note_on_c, 0, 80, 106
1, 65700, Note_off_c, 0, 80, 106
1, 65757, Note_on_c, 0, 83, 109
1, 65901, Note_off_c, 0, 83, 109
1, 65962, Note_on_c, 0, 76, 116
1, 66110, Note_off_c, 0, 76, 116
1, 66167, Note_on_c, 0, 83, 98
1, 66318, Note_off_c, 0, 83, 98
1, 66404, Note_on_c, 0, 75, 118
1, 66570, Note_off_c, 0, 75, 118
1, 66602, Note_on_c, 0, 83, 104
1, 66728, Note_off_c, 0, 83, 104
1, 66854, Note_on_c, 0, 75, 116
1, 67002, Note_off_c, 0, 75, 116
1, 67096, Note_on_c, 0, 83, 105
1, 67208, Note_off_c, 0, 83, 105
1, 67255, Note_on_c, 0, 80, 117
1, 67399, Note_off_c, 0, 80, 117
1, 67511, Note_on_c, 0, 83, 98
1, 67623, Note_off_c, 0, 83, 98
1, 67695, Note_on_c, 0, 75, 112
1, 67857, Note_off_c, 0, 75, 112
1, 67922, Note_on_c, 0, 83, 96
1, 68066, Note_off_c, 0, 83, 96
1, 68174, Note_on_c, 0, 76, 113
1, 68387, Note_off_c, 0, 76, 113
1, 68473, Note_on_c, 0, 71, 97
1, 68867, Note_off_c, 0, 71, 97
1, 70454, Note_on_c, 0, 83, 95
1, 70598, Note_off_c, 0, 83, 95
1, 70641, Note_on_c, 0, 85, 103
1, 70767, Note_off_c, 0, 85, 103
1, 70803, Note_on_c, 0, 86, 94
1, 70875, Note_off_c, 0, 86, 94
1, 70948, Note_on_c, 0, 87, 96
1, 73114, Note_on_c, 0, 86, 81
1, 73114, Note_off_c, 0, 87, 96
1, 73742, Note_off_c, 0, 86, 81
1, 73742, Note_on_c, 0, 85, 84
1, 73973, Note_off_c, 0, 85, 84
1, 74334, Note_on_c, 0, 87, 101
1, 74637, Note_off_c, 0, 87, 101
1, 74738, Note_on_c, 0, 85, 101
1, 75077, Note_off_c, 0, 85, 101
1, 75257, Note_on_c, 0, 87, 105
1, 76710, Note_off_c, 0, 87, 105
1, 76840, Note_on_c, 0, 86, 83
1, 77241, Note_off_c, 0, 86, 83
1, 77331, Note_on_c, 0, 85, 106
1, 77566, Note_off_c, 0, 85, 106
1, 77634, Note_on_c, 0, 83, 108
1, 78501, Note_off_c, 0, 83, 108
1, 78573, Note_on_c, 0, 80, 113
1, 79032, Note_off_c, 0, 80, 113
1, 79106, Note_on_c, 0, 75, 112
1, 80845, Note_off_c, 0, 75, 112
1, 80929, Note_on_c, 0, 73, 108
1, 81077, Note_off_c, 0, 73, 108
1, 81127, Note_on_c, 0, 75, 114
1, 81217, Note_off_c, 0, 75, 114
1, 81264, Note_on_c, 0, 78, 119
1, 81376, Note_off_c, 0, 78, 119
1, 81419, Note_on_c, 0, 80, 114
1, 81487, Note_off_c, 0, 80, 114
1, 81508, Note_on_c, 0, 83, 106
1, 81594, Note_off_c, 0, 83, 106
1, 81651, Note_on_c, 0, 85, 103
1, 81856, Note_off_c, 0, 85, 103
1, 81896, Note_on_c, 0, 83, 112
1, 82000, Note_off_c, 0, 83, 112
1, 82053, Note_on_c, 0, 80, 115
1, 82152, Note_off_c, 0, 80, 115
1, 82192, Note_on_c, 0, 79, 115
1, 82265, Note_off_c, 0, 79, 115
1, 82282, Note_on_c, 0, 78, 115
1, 82370, Note_off_c, 0, 78, 115
1, 82403, Note_on_c, 0, 75, 122
1, 82547, Note_off_c, 0, 75, 122
1, 82605, Note_on_c, 0, 73, 116
1, 82755, Note_off_c, 0, 73, 116
1, 82800, Note_on_c, 0, 71, 112
1, 82919, Note_off_c, 0, 71, 112
1, 82954, Note_on_c, 0, 75, 112
1, 84721, Note_off_c, 0, 75, 112
1, 84789, Note_on_c, 0, 73, 113
1, 84923, Note_off_c, 0, 73, 113
1, 84948, Note_on_c, 0, 75, 113
1, 85059, Note_off_c, 0, 75, 113
1, 85094, Note_on_c, 0, 78, 115
1, 85236, Note_off_c, 0, 78, 115
1, 85258, Note_on_c, 0, 80, 106
1, 85316, Note_off_c, 0, 80, 106
1, 85338, Note_on_c, 0, 83, 107
1, 85475, Note_off_c, 0, 83, 107
1, 85497, Note_on_c, 0, 80, 117
1, 85568, Note_off_c, 0, 80, 117
1, 85583, Note_on_c, 0, 79, 114
1, 85631, Note_off_c, 0, 79, 114
1, 85661, Note_on_c, 0, 75, 119
1, 85816, Note_off_c, 0, 75, 119
1, 85859, Note_on_c, 0, 73, 123
1, 86100, Note_off_c, 0, 73, 123
1, 86122, Note_on_c, 0, 75, 120
1, 87617, Note_off_c, 0, 75, 120
1, 87678, Note_on_c, 0, 73, 120
1, 88003, Note_off_c, 0, 73, 120
1, 88053, Note_on_c, 0, 71, 110
1, 88693, Note_off_c, 0, 71, 110
1, 88771, Note_on_c, 0, 68, 108
1, 89190, Note_off_c, 0, 68, 108
1, 89248, Note_on_c, 0, 63, 111
1, 90814, Note_off_c, 0, 63, 111
1, 91308, Note_on_c, 0, 64, 111
1, 91427, Note_off_c, 0, 64, 111
1, 91474, Note_on_c, 0, 66, 116
1, 91672, Note_off_c, 0, 66, 116
1, 91747, Note_on_c, 0, 68, 110
1, 91906, Note_off_c, 0, 68, 110
1, 91974, Note_on_c, 0, 71, 97
1, 92125, Note_off_c, 0, 71, 97
1, 92193, Note_on_c, 0, 73, 115
1, 92352, Note_off_c, 0, 73, 115
1, 92413, Note_on_c, 0, 75, 112
1, 92488, Note_off_c, 0, 75, 112
1, 92545, Note_on_c, 0, 78, 113
1, 92682, Note_off_c, 0, 78, 113
1, 92747, Note_on_c, 0, 80, 112
1, 92866, Note_off_c, 0, 80, 112
1, 92909, Note_on_c, 0, 83, 106
1, 93050, Note_off_c, 0, 83, 106
1, 93097, Note_on_c, 0, 85, 101
1, 93295, Note_off_c, 0, 85, 101
1, 93692, Note_on_c, 0, 85, 86
1, 93811, Note_off_c, 0, 85, 86
1, 94270, Note_on_c, 0, 85, 95
1, 94418, Note_off_c, 0, 85, 95
1, 94757, Note_on_c, 0, 85, 101
1, 95303, Note_off_c, 0, 85, 101
1, 95328, Note_on_c, 0, 83, 106
1, 95577, Note_off_c, 0, 83, 106
1, 95667, Note_on_c, 0, 75, 117
1, 97109, Note_off_c, 0, 75, 117
1, 97181, Note_on_c, 0, 73, 118
1, 97365, Note_off_c, 0, 73, 118
1, 98638, Note_on_c, 0, 85, 105
1, 98916, Note_off_c, 0, 85, 105
1, 99035, Note_on_c, 0, 83, 104
1, 99302, Note_off_c, 0, 83, 104
1, 99598, Note_on_c, 0, 85, 99
1, 99843, Note_off_c, 0, 85, 99
1, 100273, Note_on_c, 0, 83, 101
1, 100486, Note_off_c, 0, 83, 101
1, 100645, Note_on_c, 0, 75, 112
1, 101776, Note_off_c, 0, 75, 112
1, 101851, Note_on_c, 0, 73, 107
1, 102205, Note_off_c, 0, 73, 107
1, 102259, Note_on_c, 0, 75, 116
1, 102718, Note_off_c, 0, 75, 116
1, 102768, Note_on_c, 0, 73, 111
1, 102952, Note_off_c, 0, 73, 111
1, 103389, Note_on_c, 0, 85, 93
1, 103653, Note_off_c, 0, 85, 93
1, 103692, Note_on_c, 0, 83, 93
1, 103854, Note_off_c, 0, 83, 93
1, 104465, Note_on_c, 0, 85, 97
1, 104830, Note_off_c, 0, 85, 97
1, 105263, Note_on_c, 0, 83, 102
1, 105541, Note_off_c, 0, 83, 102
1, 105692, Note_on_c, 0, 75, 118
1, 106111, Note_off_c, 0, 75, 118
1, 106164, Note_on_c, 0, 73, 102
1, 106402, Note_off_c, 0, 73, 102
1, 106439, Note_on_c, 0, 75, 115
1, 107198, Note_off_c, 0, 75, 115
1, 107263, Note_on_c, 0, 73, 115
1, 107483, Note_off_c, 0, 73, 115
1, 108455, Note_on_c, 0, 64, 116
1, 108549, Note_off_c, 0, 64, 116
1, 108592, Note_on_c, 0, 66, 114
1, 108751, Note_off_c, 0, 66, 114
1, 108783, Note_on_c, 0, 68, 105
1, 108909, Note_off_c, 0, 68, 105
1, 108941, Note_on_c, 0, 71, 104
1, 109042, Note_off_c, 0, 71, 104
1, 109074, Note_on_c, 0, 73, 117
1, 109298, Note_off_c, 0, 73, 117
1, 109345, Note_on_c, 0, 75, 118
1, 109467, Note_off_c, 0, 75, 118
1, 109521, Note_on_c, 0, 78, 110
1, 109647, Note_off_c, 0, 78, 110
1, 109679, Note_on_c, 0, 80, 106
1, 109744, Note_off_c, 0, 80, 106
1, 109783, Note_on_c, 0, 83, 95
1, 109913, Note_off_c, 0, 83, 95
1, 109934, Note_on_c, 0, 85, 91
1, 110122, Note_off_c, 0, 85, 91
1, 110176, Note_on_c, 0, 83, 90
1, 110291, Note_off_c, 0, 83, 90
1, 110327, Note_on_c, 0, 86, 98
1, 110797, Note_off_c, 0, 86, 98
1, 110836, Note_on_c, 0, 84, 93
1, 110973, Note_off_c, 0, 84, 93
1, 111085, Note_on_c, 0, 75, 113
1, 112712, Note_off_c, 0, 75, 113
1, 112748, Note_on_c, 0, 73, 112
1, 113030, Note_off_c, 0, 73, 112
1, 113458, Note_on_c, 0, 84, 83
1, 113508, Note_off_c, 0, 84, 83
1, 113553, Note_on_c, 0, 85, 103
1, 113713, Note_off_c, 0, 85, 103
1, 113735, Note_on_c, 0, 86, 99
1, 113816, Note_off_c, 0, 86, 99
1, 113841, Note_on_c, 0, 87, 103
1, 115310, Note_off_c, 0, 87, 103
1, 115360, Note_on_c, 0, 86, 84
1, 115777, Note_off_c, 0, 86, 84
1, 115826, Note_on_c, 0, 86, 96
1, 116140, Note_off_c, 0, 86, 96
1, 116284, Note_on_c, 0, 87, 104
1, 117188, Note_off_c, 0, 87, 104
1, 117249, Note_on_c, 0, 86, 82
1, 118266, Note_off_c, 0, 86, 82
1, 118304, Note_on_c, 0, 83, 96
1, 120268, Note_off_c, 0, 83, 96
1, 121427, Note_on_c, 0, 85, 101
1, 122978, Note_off_c, 0, 85, 101
1, 123126, Note_on_c, 0, 83, 89
1, 123465, Note_off_c, 0, 83, 89
1, 123609, Note_on_c, 0, 79, 101
1, 123717, Note_off_c, 0, 79, 101
1, 123900, Note_on_c, 0, 83, 94
1, 124034, Note_off_c, 0, 83, 94
1, 124069, Note_on_c, 0, 78, 108
1, 124264, Note_off_c, 0, 78, 108
1, 124398, Note_on_c, 0, 83, 95
1, 124525, Note_off_c, 0, 83, 95
1, 124599, Note_on_c, 0, 78, 113
1, 124863, Note_off_c, 0, 78, 113
1, 124918, Note_on_c, 0, 75, 119
1, 125029, Note_off_c, 0, 75, 119
1, 125110, Note_on_c, 0, 78, 113
1, 125316, Note_off_c, 0, 78, 113
1, 125363, Note_on_c, 0, 73, 113
1, 125556, Note_off_c, 0, 73, 113
1, 125596, Note_on_c, 0, 77, 112
1, 125827, Note_off_c, 0, 77, 112
1, 125867, Note_on_c, 0, 73, 113
1, 126085, Note_off_c, 0, 73, 113
1, 126161, Note_on_c, 0, 71, 113
1, 126392, Note_off_c, 0, 71, 113
1, 126419, Note_on_c, 0, 73, 111
1, 126652, Note_off_c, 0, 73, 111
1, 126746, Note_on_c, 0, 71, 103
1, 127925, Note_off_c, 0, 71, 103
1, 127970, Note_on_c, 0, 66, 107
1, 128117, Note_off_c, 0, 66, 107
1, 128142, Note_on_c, 0, 71, 107
1, 128823, Note_off_c, 0, 71, 107
1, 128823, Note_on_c, 0, 59, 105
1, 129143, Note_off_c, 0, 59, 105
1, 131228, Note_on_c, 0, 64, 115
1, 131426, Note_off_c, 0, 64, 115
1, 131497, Note_on_c, 0, 66, 114
1, 132951, Note_off_c, 0, 66, 114
1, 133066, Note_on_c, 0, 64, 113
1, 133196, Note_off_c, 0, 64, 113
1, 133275, Note_on_c, 0, 68, 109
1, 133444, Note_off_c, 0, 68, 109
1, 133519, Note_on_c, 0, 71, 104
1, 134520, Note_off_c, 0, 71, 104
1, 134585, Note_on_c, 0, 66, 110
1, 134765, Note_off_c, 0, 66, 110
1, 134869, Note_on_c, 0, 71, 110
1, 134991, Note_off_c, 0, 71, 110
1, 135099, Note_on_c, 0, 73, 114
1, 135359, Note_off_c, 0, 73, 114
1, 135402, Note_on_c, 0, 67, 107
1, 135553, Note_off_c, 0, 67, 107
1, 135592, Note_on_c, 0, 68, 106
1, 136286, Note_off_c, 0, 68, 106
1, 136477, Note_on_c, 0, 75, 115
1, 136654, Note_off_c, 0, 75, 115
1, 136675, Note_on_c, 0, 71, 106
1, 136946, Note_off_c, 0, 71, 106
1, 137018, Note_on_c, 0, 76, 119
1, 137209, Note_off_c, 0, 76, 119
1, 137237, Note_on_c, 0, 78, 110
1, 137446, Note_off_c, 0, 78, 110
1, 137493, Note_on_c, 0, 73, 111
1, 137684, Note_off_c, 0, 73, 111
1, 137745, Note_on_c, 0, 78, 115
1, 137961, Note_off_c, 0, 78, 115
1, 137993, Note_on_c, 0, 80, 112
1, 138148, Note_off_c, 0, 80, 112
1, 138209, Note_on_c, 0, 78, 113
1, 138375, Note_off_c, 0, 78, 113
1, 138443, Note_on_c, 0, 80, 104
1, 138537, Note_off_c, 0, 80, 104
1, 138598, Note_on_c, 0, 83, 95
1, 138829, Note_off_c, 0, 83, 95
1, 141277, Note_on_c, 0, 83, 97
1, 141407, Note_off_c, 0, 83, 97
1, 141475, Note_on_c, 0, 85, 95
1, 142646, Note_off_c, 0, 85, 95
1, 142693, Note_on_c, 0, 83, 101
1, 142826, Note_off_c, 0, 83, 101
1, 142920, Note_on_c, 0, 85, 102
1, 143129, Note_off_c, 0, 85, 102
1, 143215, Note_on_c, 0, 83, 102
1, 143388, Note_off_c, 0, 83, 102
1, 143532, Note_on_c, 0, 78, 113
1, 143759, Note_off_c, 0, 78, 113
1, 143845, Note_on_c, 0, 83, 92
1, 143971, Note_off_c, 0, 83, 92
1, 144039, Note_on_c, 0, 80, 116
1, 144281, Note_off_c, 0, 80, 116
1, 144342, Note_on_c, 0, 76, 118
1, 144522, Note_off_c, 0, 76, 118
1, 144619, Note_on_c, 0, 80, 116
1, 144810, Note_off_c, 0, 80, 116
1, 144842, Note_on_c, 0, 78, 114
1, 145077, Note_off_c, 0, 78, 114
1, 145171, Note_on_c, 0, 75, 117
1, 145366, Note_off_c, 0, 75, 117
1, 145423, Note_on_c, 0, 78, 114
1, 145607, Note_off_c, 0, 78, 114
1, 145654, Note_on_c, 0, 76, 124
1, 145881, Note_off_c, 0, 76, 124
1, 145960, Note_on_c, 0, 73, 112
1, 146137, Note_off_c, 0, 73, 112
1, 146202, Note_on_c, 0, 76, 119
1, 146458, Note_off_c, 0, 76, 119
1, 146490, Note_on_c, 0, 75, 108
1, 147820, Note_off_c, 0, 75, 108
1, 147892, Note_on_c, 0, 73, 113
1, 148163, Note_off_c, 0, 73, 113
1, 148267, Note_on_c, 0, 71, 109
1, 148758, Note_off_c, 0, 71, 109
1, 148855, Note_on_c, 0, 66, 108
1, 149292, Note_off_c, 0, 66, 108
1, 151258, Note_on_c, 0, 71, 84
1, 151457, Note_off_c, 0, 71, 84
1, 151457, Note_on_c, 0, 75, 118
1, 153066, Note_off_c, 0, 75, 118
1, 153113, Note_on_c, 0, 73, 117
1, 153261, Note_off_c, 0, 73, 117
1, 153322, Note_on_c, 0, 75, 119
1, 154063, Note_off_c, 0, 75, 119
1, 154196, Note_on_c, 0, 75, 120
1, 154539, Note_off_c, 0, 75, 120
1, 154991, Note_on_c, 0, 75, 116
1, 155370, Note_off_c, 0, 75, 116
1, 155901, Note_on_c, 0, 75, 112
1, 158020, Note_off_c, 0, 75, 112
1, 158184, Note_on_c, 0, 73, 109
1, 158367, Note_off_c, 0, 73, 109
1, 158494, Note_on_c, 0, 71, 104
1, 159175, Note_off_c, 0, 71, 104
1, 159251, Note_on_c, 0, 68, 106
1, 159586, Note_off_c, 0, 68, 106
1, 159702, Note_on_c, 0, 63, 115
1, 161207, Note_off_c, 0, 63, 115
1, 163180, Note_on_c, 0, 61, 112
1, 163332, Note_off_c, 0, 61, 112
1, 163428, Note_on_c, 0, 63, 120
1, 163997, Note_off_c, 0, 63, 120
1, 164103, Note_on_c, 0, 63, 117
1, 164550, Note_off_c, 0, 63, 117
1, 164992, Note_on_c, 0, 63, 115
1, 165459, Note_off_c, 0, 63, 115
1, 165947, Note_on_c, 0, 63, 110
1, 168052, Note_off_c, 0, 63, 110
1, 168107, Note_on_c, 0, 61, 108
1, 168279, Note_off_c, 0, 61, 108
1, 168329, Note_on_c, 0, 63, 111
1, 168512, Note_off_c, 0, 63, 111
1, 168720, Note_on_c, 0, 73, 118
1, 168933, Note_off_c, 0, 73, 118
1, 168999, Note_on_c, 0, 70, 102
1, 169115, Note_off_c, 0, 70, 102
1, 169170, Note_on_c, 0, 71, 100
1, 171036, Note_off_c, 0, 71, 100
1, 173212, Note_on_c, 0, 67, 114
1, 173517, Note_off_c, 0, 67, 114
1, 173552, Note_on_c, 0, 68, 110
1, 173862, Note_off_c, 0, 68, 110
1, 173917, Note_on_c, 0, 80, 119
1, 174166, Note_off_c, 0, 80, 119
1, 174247, Note_on_c, 0, 78, 119
1, 175874, Note_off_c, 0, 78, 119
1, 175919, Note_on_c, 0, 67, 111
1, 176178, Note_off_c, 0, 67, 111
1, 176254, Note_on_c, 0, 68, 105
1, 176345, Note_off_c, 0, 68, 105
1, 176426, Note_on_c, 0, 78, 118
1, 176690, Note_off_c, 0, 78, 118
1, 176796, Note_on_c, 0, 76, 118
1, 177670, Note_off_c, 0, 76, 118
1, 177909, Note_on_c, 0, 67, 109
1, 178102, Note_off_c, 0, 67, 109
1, 178132, Note_on_c, 0, 68, 104
1, 178264, Note_off_c, 0, 68, 104
1, 178365, Note_on_c, 0, 75, 116
1, 178522, Note_off_c, 0, 75, 116
1, 178583, Note_on_c, 0, 73, 111
1, 179595, Note_off_c, 0, 73, 111
1, 179834, Note_on_c, 0, 67, 108
1, 180001, Note_off_c, 0, 67, 108
1, 180041, Note_on_c, 0, 68, 106
1, 180117, Note_off_c, 0, 68, 106
1, 180218, Note_on_c, 0, 73, 119
1, 180487, Note_off_c, 0, 73, 119
1, 180542, Note_on_c, 0, 71, 104
1, 182260, Note_off_c, 0, 71, 104
1, 182305, Note_on_c, 0, 67, 110
1, 182518, Note_off_c, 0, 67, 110
1, 182558, Note_on_c, 0, 68, 106
1, 182639, Note_off_c, 0, 68, 106
1, 182750, Note_on_c, 0, 75, 110
1, 182958, Note_off_c, 0, 75, 110
1, 183044, Note_on_c, 0, 73, 112
1, 183740, Note_off_c, 0, 73, 112
1, 184192, Note_on_c, 0, 67, 113
1, 184405, Note_off_c, 0, 67, 113
1, 184460, Note_on_c, 0, 68, 105
1, 184571, Note_off_c, 0, 68, 105
1, 184632, Note_on_c, 0, 78, 116
1, 184932, Note_off_c, 0, 78, 116
1, 184987, Note_on_c, 0, 75, 113
1, 185897, Note_off_c, 0, 75, 113
1, 186542, Note_on_c, 0, 67, 110
1, 186735, Note_off_c, 0, 67, 110
1, 186775, Note_on_c, 0, 68, 105
1, 186937, Note_off_c, 0, 68, 105
1, 187043, Note_on_c, 0, 78, 115
1, 187170, Note_off_c, 0, 78, 115
1, 187251, Note_on_c, 0, 76, 118
1, 187744, Note_off_c, 0, 76, 118
1, 187881, Note_on_c, 0, 67, 111
1, 188043, Note_off_c, 0, 67, 111
1, 188109, Note_on_c, 0, 68, 104
1, 188246, Note_off_c, 0, 68, 104
1, 188342, Note_on_c, 0, 80, 108
1, 188479, Note_off_c, 0, 80, 108
1, 188570, Note_on_c, 0, 78, 111
1, 189576, Note_off_c, 0, 78, 111
1, 189743, Note_on_c, 0, 67, 108
1, 189900, Note_off_c, 0, 67, 108
1, 189961, Note_on_c, 0, 68, 105
1, 190052, Note_off_c, 0, 68, 105
1, 190158, Note_on_c, 0, 78, 112
1, 190376, Note_off_c, 0, 78, 112
1, 190442, Note_on_c, 0, 76, 116
1, 190950, Note_off_c, 0, 76, 116
1, 191143, Note_on_c, 0, 67, 104
1, 191265, Note_off_c, 0, 67, 104
1, 191310, Note_on_c, 0, 68, 97
1, 191426, Note_off_c, 0, 68, 97
1, 191507, Note_on_c, 0, 75, 106
1, 191644, Note_off_c, 0, 75, 106
1, 191689, Note_on_c, 0, 73, 108
1, 192487, Note_off_c, 0, 73, 108
1, 192695, Note_on_c, 0, 68, 98
1, 192837, Note_off_c, 0, 68, 98
1, 192882, Note_on_c, 0, 71, 98
1, 193034, Note_off_c, 0, 71, 98
1, 193054, Note_on_c, 0, 73, 110
1, 193196, Note_off_c, 0, 73, 110
1, 193246, Note_on_c, 0, 75, 103
1, 193296, Note_off_c, 0, 75, 103
1, 193341, Note_on_c, 0, 78, 112
1, 193396, Note_off_c, 0, 78, 112
1, 193406, Note_on_c, 0, 80, 109
1, 193461, Note_off_c, 0, 80, 109
1, 193466, Note_on_c, 0, 83, 112
1, 193644, Note_off_c, 0, 83, 112
1, 193715, Note_on_c, 0, 85, 99
1, 193979, Note_off_c, 0, 85, 99
1, 195636, Note_on_c, 0, 83, 105
1, 195755, Note_off_c, 0, 83, 105
1, 195798, Note_on_c, 0, 85, 100
1, 195917, Note_off_c, 0, 85, 100
1, 195980, Note_on_c, 0, 80, 91
1, 196102, Note_off_c, 0, 80, 91
1, 196151, Note_on_c, 0, 83, 97
1, 196259, Note_off_c, 0, 83, 97
1, 196309, Note_on_c, 0, 78, 112
1, 196446, Note_off_c, 0, 78, 112
1, 196489, Note_on_c, 0, 83, 102
1, 196763, Note_off_c, 0, 83, 102
1, 196889, Note_on_c, 0, 78, 115
1, 197102, Note_off_c, 0, 78, 115
1, 197185, Note_on_c, 0, 76, 114
1, 197311, Note_off_c, 0, 76, 114
1, 197358, Note_on_c, 0, 78, 114
1, 197607, Note_off_c, 0, 78, 114
1, 197646, Note_on_c, 0, 80, 114
1, 197888, Note_off_c, 0, 80, 114
1, 197956, Note_on_c, 0, 78, 114
1, 198093, Note_off_c, 0, 78, 114
1, 198172, Note_on_c, 0, 80, 117
1, 198352, Note_off_c, 0, 80, 117
1, 198395, Note_on_c, 0, 83, 100
1, 198619, Note_off_c, 0, 83, 100
1, 199630, Note_on_c, 0, 71, 108
1, 199760, Note_off_c, 0, 71, 108
1, 199833, Note_on_c, 0, 73, 100
1, 200086, Note_off_c, 0, 73, 100
1, 200168, Note_on_c, 0, 71, 112
1, 200337, Note_off_c, 0, 71, 112
1, 200446, Note_on_c, 0, 78, 115
1, 200688, Note_off_c, 0, 78, 115
1, 200713, Note_on_c, 0, 83, 98
1, 200864, Note_off_c, 0, 83, 98
1, 200936, Note_on_c, 0, 80, 115
1, 201210, Note_off_c, 0, 80, 115
1, 201271, Note_on_c, 0, 78, 111
1, 201451, Note_off_c, 0, 78, 111
1, 201519, Note_on_c, 0, 80, 115
1, 201728, Note_off_c, 0, 80, 115
1, 201747, Note_on_c, 0, 83, 111
1, 201949, Note_off_c, 0, 83, 111
1, 202008, Note_on_c, 0, 78, 113
1, 202203, Note_off_c, 0, 78, 113
1, 202242, Note_on_c, 0, 80, 111
1, 202411, Note_off_c, 0, 80, 111
1, 202454, Note_on_c, 0, 83, 110
1, 202750, Note_off_c, 0, 83, 110
1, 202815, Note_on_c, 0, 80, 110
1, 202984, Note_off_c, 0, 80, 110
1, 203038, Note_on_c, 0, 83, 113
1, 203236, Note_off_c, 0, 83, 113
1, 203293, Note_on_c, 0, 85, 102
1, 203531, Note_off_c, 0, 85, 102
1, 204505, Note_on_c, 0, 83, 105
1, 204779, Note_off_c, 0, 83, 105
1, 204850, Note_on_c, 0, 85, 91
1, 204987, Note_off_c, 0, 85, 91
1, 205053, Note_on_c, 0, 83, 112
1, 205286, Note_off_c, 0, 83, 112
1, 205377, Note_on_c, 0, 78, 109
1, 205585, Note_off_c, 0, 78, 109
1, 205630, Note_on_c, 0, 71, 95
1, 205843, Note_off_c, 0, 71, 95
1, 205909, Note_on_c, 0, 78, 113
1, 206178, Note_off_c, 0, 78, 113
1, 206208, Note_on_c, 0, 83, 92
1, 206356, Note_off_c, 0, 83, 92
1, 206421, Note_on_c, 0, 80, 116
1, 206639, Note_off_c, 0, 80, 116
1, 206684, Note_on_c, 0, 83, 114
1, 206867, Note_off_c, 0, 83, 114
1, 207050, Note_on_c, 0, 78, 114
1, 207273, Note_off_c, 0, 78, 114
1, 207283, Note_on_c, 0, 83, 109
1, 207532, Note_off_c, 0, 83, 109
1, 207643, Note_on_c, 0, 85, 101
1, 207831, Note_off_c, 0, 85, 101
1, 207942, Note_on_c, 0, 83, 111
1, 208170, Note_off_c, 0, 83, 111
1, 208215, Note_on_c, 0, 85, 108
1, 208337, Note_off_c, 0, 85, 108
1, 208413, Note_on_c, 0, 83, 105
1, 211494, Note_off_c, 0, 83, 105
1, 211570, Note_on_c, 0, 85, 82
1, 211620, Note_off_c, 0, 85, 82
1, 211677, Note_on_c, 0, 86, 104
1, 211760, Note_off_c, 0, 86, 104
1, 211842, Note_on_c, 0, 87, 105
1, 212894, Note_off_c, 0, 87, 105
1, 213010, Note_on_c, 0, 85, 99
1, 213152, Note_off_c, 0, 85, 99
1, 213221, Note_on_c, 0, 83, 105
1, 213437, Note_off_c, 0, 83, 105
1, 213668, Note_on_c, 0, 87, 104
1, 214033, Note_off_c, 0, 87, 104
1, 214105, Note_on_c, 0, 86, 98
1, 214365, Note_off_c, 0, 86, 98
1, 214893, Note_on_c, 0, 87, 96
1, 215162, Note_off_c, 0, 87, 96
1, 215273, Note_on_c, 0, 85, 108
1, 215501, Note_off_c, 0, 85, 108
1, 215912, Note_on_c, 0, 86, 99
1, 216049, Note_off_c, 0, 86, 99
1, 216099, Note_on_c, 0, 87, 99
1, 216500, Note_off_c, 0, 87, 99
1, 216586, Note_on_c, 0, 85, 100
1, 216850, Note_off_c, 0, 85, 100
1, 217073, Note_on_c, 0, 86, 99
1, 217312, Note_off_c, 0, 86, 99
1, 217357, Note_on_c, 0, 87, 107
1, 217977, Note_off_c, 0, 87, 107
1, 218038, Note_on_c, 0, 85, 104
1, 218210, Note_off_c, 0, 85, 104
1, 218357, Note_on_c, 0, 83, 105
1, 219567, Note_off_c, 0, 83, 105
1, 219750, Note_on_c, 0, 80, 111
1, 220441, Note_off_c, 0, 80, 111
1, 220527, Note_on_c, 0, 75, 113
1, 222210, Note_off_c, 0, 75, 113
1, 222356, Note_on_c, 0, 73, 111
1, 222533, Note_off_c, 0, 73, 111
1, 222580, Note_on_c, 0, 75, 117
1, 222710, Note_off_c, 0, 75, 117
1, 222775, Note_on_c, 0, 78, 104
1, 222858, Note_off_c, 0, 78, 104
1, 222894, Note_on_c, 0, 80, 114
1, 222988, Note_off_c, 0, 80, 114
1, 223020, Note_on_c, 0, 83, 110
1, 223124, Note_off_c, 0, 83, 110
1, 223167, Note_on_c, 0, 80, 120
1, 223271, Note_off_c, 0, 80, 120
1, 223346, Note_on_c, 0, 75, 124
1, 223548, Note_off_c, 0, 75, 124
1, 224170, Note_on_c, 0, 75, 116
1, 224397, Note_off_c, 0, 75, 116
1, 225026, Note_on_c, 0, 75, 116
1, 225282, Note_off_c, 0, 75, 116
1, 225820, Note_on_c, 0, 75, 110
1, 228007, Note_off_c, 0, 75, 110
1, 228057, Note_on_c, 0, 73, 111
1, 228371, Note_off_c, 0, 73, 111
1, 228399, Note_on_c, 0, 71, 100
1, 229122, Note_off_c, 0, 71, 100
1, 229234, Note_on_c, 0, 68, 99
1, 229581, Note_off_c, 0, 68, 99
1, 229667, Note_on_c, 0, 63, 108
1, 230907, Note_off_c, 0, 63, 108
1, 232697, Note_on_c, 0, 63, 121
1, 233102, Note_off_c, 0, 63, 121
1, 233141, Note_on_c, 0, 61, 113
1, 233372, Note_off_c, 0, 61, 113
1, 233451, Note_on_c, 0, 66, 110
1, 236590, Note_off_c, 0, 66, 110
1, 236795, Note_on_c, 0, 61, 107
1, 237120, Note_off_c, 0, 61, 107
1, 237267, Note_on_c, 0, 66, 105
1, 237485, Note_off_c, 0, 66, 105
1, 237632, Note_on_c, 0, 71, 98
1, 237789, Note_off_c, 0, 71, 98
1, 237834, Note_on_c, 0, 73, 116
1, 237945, Note_off_c, 0, 73, 116
1, 238031, Note_on_c, 0, 75, 111
1, 238117, Note_off_c, 0, 75, 111
1, 238193, Note_on_c, 0, 78, 110
1, 240461, Note_off_c, 0, 78, 110
1, 240527, Note_on_c, 0, 75, 116
1, 240715, Note_off_c, 0, 75, 116
1, 240788, Note_on_c, 0, 78, 91
1, 240871, Note_off_c, 0, 78, 91
1, 240901, Note_on_c, 0, 83, 97
1, 241030, Note_off_c, 0, 83, 97
1, 241042, Note_on_c, 0, 80, 108
1, 241120, Note_off_c, 0, 80, 108
1, 241163, Note_on_c, 0, 78, 109
1, 241218, Note_off_c, 0, 78, 109
1, 241273, Note_on_c, 0, 75, 117
1, 241453, Note_off_c, 0, 75, 117
1, 241475, Note_on_c, 0, 73, 114
1, 241607, Note_off_c, 0, 73, 114
1, 241665, Note_on_c, 0, 75, 115
1, 241804, Note_off_c, 0, 75, 115
1, 241829, Note_on_c, 0, 78, 102
1, 241884, Note_off_c, 0, 78, 102
1, 241922, Note_on_c, 0, 83, 96
1, 242005, Note_off_c, 0, 83, 96
1, 242040, Note_on_c, 0, 80, 103
1, 242159, Note_off_c, 0, 80, 103
1, 242212, Note_on_c, 0, 75, 117
1, 242433, Note_off_c, 0, 75, 117
1, 242468, Note_on_c, 0, 73, 114
1, 242648, Note_off_c, 0, 73, 114
1, 242691, Note_on_c, 0, 71, 96
1, 242841, Note_off_c, 0, 71, 96
1, 242884, Note_on_c, 0, 68, 101
1, 243062, Note_off_c, 0, 68, 101
1, 243128, Note_on_c, 0, 66, 106
1, 243313, Note_off_c, 0, 66, 106
1, 243340, Note_on_c, 0, 63, 112
1, 243426, Note_off_c, 0, 63, 112
1, 243499, Note_on_c, 0, 66, 100
1, 245758, Note_off_c, 0, 66, 100
1, 245808, Note_on_c, 0, 64, 108
1, 245963, Note_off_c, 0, 64, 108
1, 245989, Note_on_c, 0, 66, 100
1, 246101, Note_off_c, 0, 66, 100
1, 246117, Note_on_c, 0, 71, 103
1, 246261, Note_off_c, 0, 71, 103
1, 246362, Note_on_c, 0, 61, 115
1, 246615, Note_off_c, 0, 61, 115
1, 246690, Note_on_c, 0, 63, 115
1, 246823, Note_off_c, 0, 63, 115
1, 246851, Note_on_c, 0, 66, 106
1, 246999, Note_off_c, 0, 66, 106
1, 247053, Note_on_c, 0, 68, 103
1, 247190, Note_off_c, 0, 68, 103
1, 247254, Note_on_c, 0, 71, 100
1, 247376, Note_off_c, 0, 71, 100
1, 247427, Note_on_c, 0, 73, 117
1, 247600, Note_off_c, 0, 73, 117
1, 247661, Note_on_c, 0, 75, 121
1, 247780, Note_off_c, 0, 75, 121
1, 247823, Note_on_c, 0, 78, 117
1, 248264, Note_off_c, 0, 78, 117
1, 251207, Note_on_c, 0, 75, 118
1, 252801, Note_off_c, 0, 75, 118
1, 252905, Note_on_c, 0, 73, 116
1, 253223, Note_off_c, 0, 73, 116
1, 253280, Note_on_c, 0, 73, 120
1, 254198, Note_off_c, 0, 73, 120
1, 254249, Note_on_c, 0, 71, 105
1, 254340, Note_off_c, 0, 71, 105
1, 254416, Note_on_c, 0, 68, 113
1, 254507, Note_off_c, 0, 68, 113
1, 254552, Note_on_c, 0, 66, 113
1, 254602, Note_off_c, 0, 66, 113
1, 254668, Note_on_c, 0, 63, 113
1, 254713, Note_off_c, 0, 63, 113
1, 254763, Note_on_c, 0, 62, 109
1, 254885, Note_off_c, 0, 62, 109
1, 254910, Note_on_c, 0, 61, 105
1, 256491, Note_off_c, 0, 61, 105
1, 256633, Note_on_c, 0, 78, 117
1, 257294, Note_off_c, 0, 78, 117
1, 257358, Note_on_c, 0, 75, 117
1, 257452, Note_off_c, 0, 75, 117
1, 257513, Note_on_c, 0, 73, 115
1, 257632, Note_off_c, 0, 73, 115
1, 257686, Note_on_c, 0, 70, 103
1, 257758, Note_off_c, 0, 70, 103
1, 257795, Note_on_c, 0, 69, 112
1, 257876, Note_off_c, 0, 69, 112
1, 257906, Note_on_c, 0, 68, 112
1, 258010, Note_off_c, 0, 68, 112
1, 258010, Note_on_c, 0, 66, 111
1, 258382, Note_off_c, 0, 66, 111
1, 258461, Note_on_c, 0, 73, 112
1, 259028, Note_off_c, 0, 73, 112
1, 259073, Note_on_c, 0, 71, 104
1, 259185, Note_off_c, 0, 71, 104
1, 259200, Note_on_c, 0, 68, 107
1, 259290, Note_off_c, 0, 68, 107
1, 259311, Note_on_c, 0, 67, 109
1, 259379, Note_off_c, 0, 67, 109
1, 259404, Note_on_c, 0, 66, 108
1, 259454, Note_off_c, 0, 66, 108
1, 259464, Note_on_c, 0, 64, 113
1, 259504, Note_off_c, 0, 64, 113
1, 259526, Note_on_c, 0, 63, 109
1, 259617, Note_off_c, 0, 63, 109
1, 259660, Note_on_c, 0, 61, 105
1, 260093, Note_off_c, 0, 61, 105
1, 260178, Note_on_c, 0, 78, 107
1, 260706, Note_off_c, 0, 78, 107
1, 260731, Note_on_c, 0, 75, 109
1, 260810, Note_off_c, 0, 75, 109
1, 260835, Note_on_c, 0, 73, 110
1, 260907, Note_off_c, 0, 73, 110
1, 260975, Note_on_c, 0, 71, 114
1, 261058, Note_off_c, 0, 71, 114
1, 261086, Note_on_c, 0, 68, 101
1, 261176, Note_off_c, 0, 68, 101
1, 261208, Note_on_c, 0, 67, 115
1, 261283, Note_off_c, 0, 67, 115
1, 261326, Note_on_c, 0, 66, 112
1, 261662, Note_off_c, 0, 66, 112
1, 261712, Note_on_c, 0, 73, 110
1, 262196, Note_off_c, 0, 73, 110
1, 262268, Note_on_c, 0, 70, 108
1, 262369, Note_off_c, 0, 70, 108
1, 262390, Note_on_c, 0, 67, 108
1, 262458, Note_off_c, 0, 67, 108
1, 262486, Note_on_c, 0, 66, 107
1, 262565, Note_off_c, 0, 66, 107
1, 262593, Note_on_c, 0, 63, 112
1, 262755, Note_off_c, 0, 63, 112
1, 262783, Note_on_c, 0, 62, 108
1, 262905, Note_off_c, 0, 62, 108
1, 262955, Note_on_c, 0, 61, 98
1, 263671, Note_off_c, 0, 61, 98
1, 263916, Note_on_c, 0, 66, 98
1, 264129, Note_off_c, 0, 66, 98
1, 264268, Note_on_c, 0, 78, 110
1, 264542, Note_off_c, 0, 78, 110
1, 264602, Note_on_c, 0, 75, 109
1, 264703, Note_off_c, 0, 75, 109
1, 264713, Note_on_c, 0, 74, 99
1, 264804, Note_off_c, 0, 74, 99
1, 264804, Note_on_c, 0, 71, 96
1, 264879, Note_off_c, 0, 71, 96
1, 264938, Note_on_c, 0, 68, 109
1, 265042, Note_off_c, 0, 68, 109
1, 265078, Note_on_c, 0, 67, 108
1, 265150, Note_off_c, 0, 67, 108
1, 265211, Note_on_c, 0, 66, 102
1, 265362, Note_off_c, 0, 66, 102
1, 265416, Note_on_c, 0, 73, 101
1, 265972, Note_off_c, 0, 73, 101
1, 266029, Note_on_c, 0, 70, 109
1, 266112, Note_off_c, 0, 70, 109
1, 266129, Note_on_c, 0, 68, 113
1, 266230, Note_on_c, 0, 67, 109
1, 266230, Note_off_c, 0, 68, 113
1, 266295, Note_off_c, 0, 67, 109
1, 266311, Note_on_c, 0, 66, 104
1, 266382, Note_off_c, 0, 66, 104
1, 266395, Note_on_c, 0, 63, 108
1, 266517, Note_off_c, 0, 63, 108
1, 266556, Note_on_c, 0, 62, 104
1, 266650, Note_off_c, 0, 62, 104
1, 266704, Note_on_c, 0, 61, 98
1, 268338, Note_off_c, 0, 61, 98
1, 268649, Note_on_c, 0, 64, 105
1, 269198, Note_off_c, 0, 64, 105
1, 269292, Note_on_c, 0, 68, 109
1, 269736, Note_off_c, 0, 68, 109
1, 272057, Note_on_c, 0, 64, 116
1, 272205, Note_off_c, 0, 64, 116
1, 272262, Note_on_c, 0, 66, 109
1, 272366, Note_off_c, 0, 66, 109
1, 272456, Note_on_c, 0, 68, 108
1, 272611, Note_off_c, 0, 68, 108
1, 272672, Note_on_c, 0, 71, 103
1, 272791, Note_off_c, 0, 71, 103
1, 272827, Note_on_c, 0, 73, 115
1, 272978, Note_off_c, 0, 73, 115
1, 273028, Note_on_c, 0, 75, 113
1, 273107, Note_off_c, 0, 75, 113
1, 273132, Note_on_c, 0, 78, 110
1, 273229, Note_off_c, 0, 78, 110
1, 273276, Note_on_c, 0, 80, 111
1, 273344, Note_off_c, 0, 80, 111
1, 273376, Note_on_c, 0, 83, 110
1, 273527, Note_off_c, 0, 83, 110
1, 273559, Note_on_c, 0, 85, 94
1, 273812, Note_off_c, 0, 85, 94
1, 274224, Note_on_c, 0, 83, 99
1, 274437, Note_off_c, 0, 83, 99
1, 274936, Note_on_c, 0, 85, 87
1, 275116, Note_off_c, 0, 85, 87
1, 275586, Note_on_c, 0, 63, 107
1, 276533, Note_off_c, 0, 63, 107
1, 276684, Note_on_c, 0, 61, 104
1, 276828, Note_off_c, 0, 61, 104
1, 276907, Note_on_c, 0, 63, 109
1, 277333, Note_off_c, 0, 63, 109
1, 277398, Note_on_c, 0, 61, 99
1, 277557, Note_off_c, 0, 61, 99
1, 278200, Note_on_c, 0, 85, 93
1, 278332, Note_off_c, 0, 85, 93
1, 278362, Note_on_c, 0, 83, 96
1, 278443, Note_off_c, 0, 83, 96
1, 278468, Note_on_c, 0, 80, 106
1, 278508, Note_off_c, 0, 80, 106
1, 278533, Note_on_c, 0, 79, 113
1, 278619, Note_off_c, 0, 79, 113
1, 278669, Note_on_c, 0, 75, 114
1, 279009, Note_off_c, 0, 75, 114
1, 279115, Note_on_c, 0, 73, 113
1, 279404, Note_off_c, 0, 73, 113
1, 279943, Note_on_c, 0, 70, 109
1, 280146, Note_off_c, 0, 70, 109
1, 280348, Note_on_c, 0, 63, 102
1, 280897, Note_off_c, 0, 63, 102
1, 281054, Note_on_c, 0, 63, 107
1, 281806, Note_off_c, 0, 63, 107
1, 281887, Note_on_c, 0, 61, 93
1, 282217, Note_off_c, 0, 61, 93
1, 283112, Note_on_c, 0, 85, 89
1, 283216, Note_off_c, 0, 85, 89
1, 283263, Note_on_c, 0, 83, 97
1, 283331, Note_off_c, 0, 83, 97
1, 283354, Note_on_c, 0, 80, 113
1, 283422, Note_off_c, 0, 80, 113
1, 283450, Note_on_c, 0, 78, 119
1, 283493, Note_off_c, 0, 78, 119
1, 283536, Note_on_c, 0, 75, 112
1, 284038, Note_off_c, 0, 75, 112
1, 284085, Note_on_c, 0, 73, 110
1, 284634, Note_off_c, 0, 73, 110
1, 284689, Note_on_c, 0, 70, 105
1, 284755, Note_off_c, 0, 70, 105
1, 284803, Note_on_c, 0, 68, 110
1, 284917, Note_off_c, 0, 68, 110
1, 284934, Note_on_c, 0, 66, 105
1, 285043, Note_off_c, 0, 66, 105
1, 285068, Note_on_c, 0, 63, 101
1, 285246, Note_off_c, 0, 63, 101
1, 285279, Note_on_c, 0, 61, 102
1, 285441, Note_off_c, 0, 61, 102
1, 285480, Note_on_c, 0, 63, 104
1, 287332, Note_off_c, 0, 63, 104
1, 287399, Note_on_c, 0, 61, 99
1, 287601, Note_off_c, 0, 61, 99
1, 287713, Note_on_c, 0, 64, 106
1, 288161, Note_off_c, 0, 64, 106
1, 288182, Note_on_c, 0, 68, 109
1, 288706, Note_off_c, 0, 68, 109
1, 290680, Note_on_c, 0, 61, 111
1, 290831, Note_off_c, 0, 61, 111
1, 290870, Note_on_c, 0, 63, 113
1, 291018, Note_off_c, 0, 63, 113
1, 291061, Note_on_c, 0, 66, 111
1, 291187, Note_off_c, 0, 66, 111
1, 291200, Note_on_c, 0, 68, 109
1, 291297, Note_off_c, 0, 68, 109
1, 291351, Note_on_c, 0, 71, 105
1, 291477, Note_off_c, 0, 71, 105
1, 291513, Note_on_c, 0, 73, 114
1, 291682, Note_off_c, 0, 73, 114
1, 291729, Note_on_c, 0, 75, 114
1, 291862, Note_off_c, 0, 75, 114
1, 291898, Note_on_c, 0, 78, 108
1, 292017, Note_off_c, 0, 78, 108
1, 292064, Note_on_c, 0, 80, 111
1, 292179, Note_off_c, 0, 80, 111
1, 292215, Note_on_c, 0, 83, 109
1, 292348, Note_off_c, 0, 83, 109
1, 292404, Note_on_c, 0, 85, 85
1, 292922, Note_off_c, 0, 85, 85
1, 292925, Note_on_c, 0, 83, 98
1, 293503, Note_off_c, 0, 83, 98
1, 293539, Note_on_c, 0, 87, 103
1, 293864, Note_off_c, 0, 87, 103
1, 293918, Note_on_c, 0, 86, 104
1, 294026, Note_off_c, 0, 86, 104
1, 294062, Note_on_c, 0, 85, 103
1, 294159, Note_off_c, 0, 85, 103
1, 294238, Note_on_c, 0, 83, 101
1, 294473, Note_off_c, 0, 83, 101
1, 294534, Note_on_c, 0, 87, 102
1, 294722, Note_off_c, 0, 87, 102
1, 294769, Note_on_c, 0, 86, 91
1, 294859, Note_off_c, 0, 86, 91
1, 294906, Note_on_c, 0, 85, 92
1, 295028, Note_off_c, 0, 85, 92
1, 295049, Note_on_c, 0, 84, 105
1, 295114, Note_off_c, 0, 84, 105
1, 295146, Note_on_c, 0, 83, 106
1, 295420, Note_off_c, 0, 83, 106
1, 295430, Note_on_c, 0, 78, 117
1, 296388, Note_off_c, 0, 78, 117
1, 296413, Note_on_c, 0, 76, 118
1, 296608, Note_off_c, 0, 76, 118
1, 296658, Note_on_c, 0, 75, 112
1, 296802, Note_off_c, 0, 75, 112
1, 296852, Note_on_c, 0, 78, 116
1, 297090, Note_off_c, 0, 78, 116
1, 297111, Note_on_c, 0, 77, 113
1, 297154, Note_off_c, 0, 77, 113
1, 297190, Note_on_c, 0, 76, 121
1, 297359, Note_off_c, 0, 76, 121
1, 297410, Note_on_c, 0, 75, 109
1, 297532, Note_off_c, 0, 75, 109
1, 297553, Note_on_c, 0, 78, 113
1, 297654, Note_off_c, 0, 78, 113
1, 297721, Note_on_c, 0, 86, 76
1, 297990, Note_off_c, 0, 86, 76
1, 297997, Note_on_c, 0, 85, 85
1, 298040, Note_off_c, 0, 85, 85
1, 298057, Note_on_c, 0, 84, 100
1, 298093, Note_off_c, 0, 84, 100
1, 298122, Note_on_c, 0, 83, 109
1, 298317, Note_off_c, 0, 83, 109
1, 298391, Note_on_c, 0, 86, 84
1, 298607, Note_off_c, 0, 86, 84
1, 298625, Note_on_c, 0, 85, 90
1, 298661, Note_off_c, 0, 85, 90
1, 298693, Note_on_c, 0, 84, 96
1, 298718, Note_off_c, 0, 84, 96
1, 298736, Note_on_c, 0, 83, 100
1, 298851, Note_off_c, 0, 83, 100
1, 298894, Note_on_c, 0, 86, 92
1, 299045, Note_off_c, 0, 86, 92
1, 299081, Note_on_c, 0, 85, 102
1, 299142, Note_off_c, 0, 85, 102
1, 299174, Note_on_c, 0, 83, 104
1, 299260, Note_off_c, 0, 83, 104
1, 299281, Note_on_c, 0, 82, 97
1, 299324, Note_off_c, 0, 82, 97
1, 299363, Note_on_c, 0, 78, 112
1, 300306, Note_off_c, 0, 78, 112
1, 300360, Note_on_c, 0, 75, 47
1, 300595, Note_off_c, 0, 75, 47
1, 300631, Note_on_c, 0, 78, 114
1, 300855, Note_off_c, 0, 78, 114
1, 300876, Note_on_c, 0, 75, 116
1, 301071, Note_off_c, 0, 75, 116
1, 301103, Note_on_c, 0, 78, 114
1, 301280, Note_off_c, 0, 78, 114
1, 301330, Note_on_c, 0, 75, 113
1, 301525, Note_off_c, 0, 75, 113
1, 301597, Note_on_c, 0, 71, 100
1, 301763, Note_off_c, 0, 71, 100
1, 301878, Note_on_c, 0, 66, 110
1, 302131, Note_off_c, 0, 66, 110
1, 302185, Note_on_c, 0, 64, 113
1, 302329, Note_off_c, 0, 64, 113
1, 302354, Note_on_c, 0, 66, 110
1, 302451, Note_off_c, 0, 66, 110
1, 302501, Note_on_c, 0, 68, 111
1, 302656, Note_off_c, 0, 68, 111
1, 302688, Note_on_c, 0, 71, 106
1, 302800, Note_off_c, 0, 71, 106
1, 302836, Note_on_c, 0, 73, 114
1, 302977, Note_off_c, 0, 73, 114
1, 303002, Note_on_c, 0, 75, 116
1, 303128, Note_off_c, 0, 75, 116
1, 303149, Note_on_c, 0, 78, 105
1, 303246, Note_off_c, 0, 78, 105
1, 303303, Note_on_c, 0, 83, 105
1, 303404, Note_off_c, 0, 83, 105
1, 303472, Note_on_c, 0, 87, 97
1, 303638, Note_off_c, 0, 87, 97
1, 303797, Note_on_c, 0, 83, 100
1, 303923, Note_off_c, 0, 83, 100
1, 303941, Note_on_c, 0, 87, 100
1, 304125, Note_off_c, 0, 87, 100
1, 304237, Note_on_c, 0, 83, 98
1, 307014, Note_off_c, 0, 83, 98
1, 307209, Note_on_c, 0, 81, 86
1, 307360, Note_off_c, 0, 81, 86
1, 307446, Note_on_c, 0, 83, 103
1, 307648, Note_off_c, 0, 83, 103
1, 308248, Note_on_c, 0, 83, 94
1, 308551, Note_off_c, 0, 83, 94
1, 310301, Note_on_c, 0, 82, 110
1, 310503, Note_off_c, 0, 82, 110
1, 310539, Note_on_c, 0, 83, 105
1, 311942, Note_off_c, 0, 83, 105
1, 312080, Note_on_c, 0, 80, 107
1, 312232, Note_off_c, 0, 80, 107
1, 312318, Note_on_c, 0, 83, 103
1, 312490, Note_off_c, 0, 83, 103
1, 312576, Note_on_c, 0, 86, 101
1, 312769, Note_off_c, 0, 86, 101
1, 312871, Note_on_c, 0, 83, 98
1, 314889, Note_off_c, 0, 83, 98
1, 315005, Note_on_c, 0, 80, 117
1, 315162, Note_off_c, 0, 80, 117
1, 315223, Note_on_c, 0, 83, 100
1, 315350, Note_off_c, 0, 83, 100
1, 315431, Note_on_c, 0, 85, 107
1, 315573, Note_off_c, 0, 85, 107
1, 315628, Note_on_c, 0, 83, 105
1, 316136, Note_off_c, 0, 83, 105
1, 316232, Note_on_c, 0, 78, 114
1, 316389, Note_off_c, 0, 78, 114
1, 316526, Note_on_c, 0, 83, 100
1, 316668, Note_off_c, 0, 83, 100
1, 316723, Note_on_c, 0, 85, 104
1, 316850, Note_off_c, 0, 85, 104
1, 316936, Note_on_c, 0, 83, 102
1, 317714, Note_off_c, 0, 83, 102
1, 317764, Note_on_c, 0, 80, 120
1, 317957, Note_off_c, 0, 80, 120
1, 318023, Note_on_c, 0, 83, 100
1, 318211, Note_off_c, 0, 83, 100
1, 318261, Note_on_c, 0, 85, 96
1, 318352, Note_off_c, 0, 85, 96
1, 318428, Note_on_c, 0, 83, 105
1, 319023, Note_off_c, 0, 83, 105
1, 319109, Note_on_c, 0, 76, 117
1, 319317, Note_off_c, 0, 76, 117
1, 319383, Note_on_c, 0, 83, 106
1, 319566, Note_off_c, 0, 83, 106
1, 319606, Note_on_c, 0, 85, 103
1, 319763, Note_off_c, 0, 85, 103
1, 319874, Note_on_c, 0, 83, 104
1, 320484, Note_off_c, 0, 83, 104
1, 320585, Note_on_c, 0, 75, 107
1, 320732, Note_off_c, 0, 75, 107
1, 320803, Note_on_c, 0, 83, 99
1, 321047, Note_off_c, 0, 83, 99
1, 321072, Note_on_c, 0, 85, 95
1, 321178, Note_off_c, 0, 85, 95
1, 321274, Note_on_c, 0, 83, 96
1, 321660, Note_off_c, 0, 83, 96
1, 321766, Note_on_c, 0, 73, 108
1, 321943, Note_off_c, 0, 73, 108
1, 322039, Note_on_c, 0, 83, 98
1, 322262, Note_off_c, 0, 83, 98
1, 322302, Note_on_c, 0, 85, 100
1, 322444, Note_off_c, 0, 85, 100
1, 322489, Note_on_c, 0, 83, 102
1, 322758, Note_off_c, 0, 83, 102
1, 322910, Note_on_c, 0, 78, 97
1, 323052, Note_off_c, 0, 78, 97
1, 323174, Note_on_c, 0, 83, 100
1, 323372, Note_off_c, 0, 83, 100
1, 323443, Note_on_c, 0, 85, 99
1, 323570, Note_off_c, 0, 85, 99
1, 323610, Note_on_c, 0, 83, 99
1, 323843, Note_off_c, 0, 83, 99
1, 323883, Note_on_c, 0, 80, 114
1, 324081, Note_off_c, 0, 80, 114
1, 324121, Note_on_c, 0, 83, 98
1, 324309, Note_off_c, 0, 83, 98
1, 324349, Note_on_c, 0, 85, 101
1, 324537, Note_off_c, 0, 85, 101
1, 324592, Note_on_c, 0, 83, 101
1, 324703, Note_off_c, 0, 83, 101
1, 324769, Note_on_c, 0, 86, 98
1, 324855, Note_off_c, 0, 86, 98
1, 324900, Note_on_c, 0, 78, 100
1, 325072, Note_off_c, 0, 78, 100
1, 325209, Note_on_c, 0, 83, 96
1, 325427, Note_off_c, 0, 83, 96
1, 325554, Note_on_c, 0, 83, 97
1, 325813, Note_off_c, 0, 83, 97
1, 325868, Note_on_c, 0, 85, 100
1, 326030, Note_off_c, 0, 85, 100
1, 326085, Note_on_c, 0, 83, 92
1, 329802, Note_off_c, 0, 83, 92
1, 329959, Note_on_c, 0, 80, 107
1, 331383, Note_off_c, 0, 80, 107
1, 331578, Note_on_c, 0, 78, 104
1, 331715, Note_off_c, 0, 78, 104
1, 331780, Note_on_c, 0, 75, 106
1, 331895, Note_off_c, 0, 75, 106
1, 331945, Note_on_c, 0, 73, 112
1, 332039, Note_off_c, 0, 73, 112
1, 332111, Note_on_c, 0, 71, 107
1, 332783, Note_off_c, 0, 71, 107
1, 332869, Note_on_c, 0, 71, 96
1, 333245, Note_off_c, 0, 71, 96
1, 333642, Note_on_c, 0, 71, 100
1, 333996, Note_off_c, 0, 71, 100
1, 334768, Note_on_c, 0, 71, 97
1, 336751, Note_off_c, 0, 71, 97
1, 336757, Note_on_c, 0, 68, 90
1, 336966, Note_off_c, 0, 68, 90
1, 337052, Note_on_c, 0, 71, 111
1, 337630, Note_off_c, 0, 71, 111
1, 337724, Note_on_c, 0, 71, 93
1, 337955, Note_off_c, 0, 71, 93
1, 340088, Note_on_c, 0, 74, 124
1, 340478, Note_off_c, 0, 74, 124
1, 340499, Note_on_c, 0, 75, 117
1, 341909, Note_off_c, 0, 75, 117
1, 341988, Note_on_c, 0, 73, 115
1, 342176, Note_off_c, 0, 73, 115
1, 342257, Note_on_c, 0, 71, 103
1, 342485, Note_off_c, 0, 71, 103
1, 342937, Note_on_c, 0, 71, 96
1, 343247, Note_off_c, 0, 71, 96
1, 343801, Note_on_c, 0, 71, 100
1, 344151, Note_off_c, 0, 71, 100
1, 344617, Note_on_c, 0, 71, 97
1, 347061, Note_off_c, 0, 71, 97
1, 347180, Note_on_c, 0, 71, 97
1, 347595, Note_off_c, 0, 71, 97
1, 347678, Note_on_c, 0, 64, 99
1, 347749, Note_off_c, 0, 64, 99
1, 347862, Note_on_c, 0, 59, 118
1, 348136, Note_off_c, 0, 59, 118
1, 350327, Note_on_c, 0, 71, 106
1, 351918, Note_off_c, 0, 71, 106
1, 352018, Note_on_c, 0, 68, 103
1, 352216, Note_off_c, 0, 68, 103
1, 352322, Note_on_c, 0, 64, 117
1, 352835, Note_off_c, 0, 64, 117
1, 352911, Note_on_c, 0, 71, 89
1, 354497, Note_off_c, 0, 71, 89
1, 354700, Note_on_c, 0, 71, 92
1, 354974, Note_off_c, 0, 71, 92
1, 355050, Note_on_c, 0, 66, 96
1, 355426, Note_off_c, 0, 66, 96
1, 355507, Note_on_c, 0, 64, 101
1, 355842, Note_off_c, 0, 64, 101
1, 357250, Note_on_c, 0, 64, 90
1, 357478, Note_off_c, 0, 64, 90
1, 357600, Note_on_c, 0, 59, 91
1, 357961, Note_off_c, 0, 59, 91
1, 358118, Note_on_c, 0, 64, 82
1, 359547, Note_off_c, 0, 64, 82
1, 359547, End_track
0, 0, End_of_file
