0, 0, Header, 1, 1, 840
1, 0, Start_track
1, 0, Note_on_c, 0, 63, 118
1, 3507, Note_off_c, 0, 63, 118
1, 3611, Note_on_c, 0, 64, 112
1, 3867, Note_off_c, 0, 64, 112
1, 3897, Note_on_c, 0, 65, 121
1, 4017, Note_off_c, 0, 65, 121
1, 4035, Note_on_c, 0, 66, 115
1, 7343, Title_t, "Melody"
1, 7343, Tempo, 322580
1, 7343, Key_signature, 1, "major"
1, 7343, Time_signature, 1, 2, 24, 8
1, 8413, Note_off_c, 0, 66, 115
1, 8413, Note_on_c, 0, 64, 105
1, 19039, Note_off_c, 0, 64, 105
1, 19976, Note_on_c, 0, 71, 124
1, 20369, Note_off_c, 0, 71, 124
1, 20384, Note_on_c, 0, 69, 122
1, 20731, Note_off_c, 0, 69, 122
1, 20806, Note_on_c, 0, 70, 112
1, 21047, Note_off_c, 0, 70, 112
1, 21062, Note_on_c, 0, 71, 113
1, 25264, Note_off_c, 0, 71, 113
1, 25324, Note_on_c, 0, 69, 114
1, 25686, Note_off_c, 0, 69, 114
1, 25701, Note_on_c, 0, 67, 111
1, 25988, Note_off_c, 0, 67, 111
1, 26209, Note_on_c, 0, 70, 113
1, 26368, Note_off_c, 0, 70, 113
1, 26399, Note_on_c, 0, 71, 110
1, 31925, Note_off_c, 0, 71, 110
1, 33827, Note_on_c, 0, 69, 117
1, 34294, Note_off_c, 0, 69, 117
1, 34315, Note_on_c, 0, 67, 112
1, 34591, Note_off_c, 0, 67, 112
1, 34920, Note_on_c, 0, 69, 109
1, 35068, Note_off_c, 0, 69, 109
1, 35099, Note_on_c, 0, 71, 105
1, 41890, Note_off_c, 0, 71, 105
1, 42017, Note_on_c, 0, 69, 107
1, 42431, Note_off_c, 0, 69, 107
1, 42452, Note_on_c, 0, 67, 103
1, 42824, Note_off_c, 0, 67, 103
1, 43142, Note_on_c, 0, 64, 107
1, 43577, Note_off_c, 0, 64, 107
1, 43587, Note_on_c, 0, 67, 107
1, 43916, Note_off_c, 0, 67, 107
1, 44149, Note_on_c, 0, 64, 95
1, 49325, Note_off_c, 0, 64, 95
1, 50589, Note_on_c, 0, 62, 106
1, 51705, Note_off_c, 0, 62, 106
1, 51821, Note_on_c, 0, 59, 98
1, 56412, Note_off_c, 0, 59, 98
1, 57559, Note_on_c, 0, 57, 110
1, 57941, Note_off_c, 0, 57, 110
1, 58004, Note_on_c, 0, 55, 104
1, 58344, Note_off_c, 0, 55, 104
1, 58503, Note_on_c, 0, 57, 103
1, 59576, Note_off_c, 0, 57, 103
1, 59671, Note_on_c, 0, 55, 107
1, 60191, Note_off_c, 0, 55, 107
1, 60286, Note_on_c, 0, 52, 99
1, 60541, Note_off_c, 0, 52, 99
1, 60594, Note_on_c, 0, 55, 112
1, 60891, Note_off_c, 0, 55, 112
1, 61018, Note_on_c, 0, 52, 105
1, 62484, Note_off_c, 0, 52, 105
1, 62484, Note_on_c, 0, 55, 110
1, 64630, Note_off_c, 0, 55, 110
1, 66117, Note_on_c, 0, 55, 112
1, 66542, Note_off_c, 0, 55, 112
1, 66563, Note_on_c, 0, 52, 108
1, 66903, Note_off_c, 0, 52, 108
1, 66934, Note_on_c, 0, 55, 109
1, 69803, Note_off_c, 0, 55, 109
1, 69845, Note_on_c, 0, 52, 101
1, 70259, Note_off_c, 0, 52, 101
1, 70290, Note_on_c, 0, 57, 107
1, 70619, Note_off_c, 0, 57, 107
1, 70661, Note_on_c, 0, 59, 107
1, 70958, Note_off_c, 0, 59, 107
1, 70979, Note_on_c, 0, 57, 102
1, 73359, Note_off_c, 0, 57, 102
1, 74740, Note_on_c, 0, 59, 112
1, 75069, Note_off_c, 0, 59, 112
1, 75079, Note_on_c, 0, 62, 118
1, 75504, Note_off_c, 0, 62, 118
1, 75663, Note_on_c, 0, 67, 121
1, 76035, Note_off_c, 0, 67, 121
1, 76088, Note_on_c, 0, 64, 111
1, 76406, Note_off_c, 0, 64, 111
1, 76565, Note_on_c, 0, 69, 119
1, 77117, Note_off_c, 0, 69, 119
1, 77170, Note_on_c, 0, 67, 114
1, 77425, Note_off_c, 0, 67, 114
1, 77733, Note_on_c, 0, 64, 111
1, 78041, Note_off_c, 0, 64, 111
1, 78062, Note_on_c, 0, 67, 113
1, 78338, Note_off_c, 0, 67, 113
1, 78529, Note_on_c, 0, 64, 106
1, 79071, Note_off_c, 0, 64, 106
1, 79304, Note_on_c, 0, 64, 110
1, 79867, Note_off_c, 0, 64, 110
1, 80132, Note_on_c, 0, 64, 106
1, 83543, Note_off_c, 0, 64, 106
1, 85301, Note_on_c, 0, 67, 116
1, 85603, Note_off_c, 0, 67, 116
1, 85610, Note_on_c, 0, 68, 117
1, 85738, Note_off_c, 0, 68, 117
1, 85738, Note_on_c, 0, 69, 109
1, 90363, Note_off_c, 0, 69, 109
1, 91594, Note_on_c, 0, 69, 115
1, 92100, Note_off_c, 0, 69, 115
1, 92130, Note_on_c, 0, 67, 115
1, 92432, Note_off_c, 0, 67, 115
1, 92583, Note_on_c, 0, 64, 110
1, 92862, Note_off_c, 0, 64, 110
1, 92922, Note_on_c, 0, 67, 117
1, 93209, Note_off_c, 0, 67, 117
1, 93269, Note_on_c, 0, 64, 105
1, 93533, Note_off_c, 0, 64, 105
1, 93578, Note_on_c, 0, 67, 116
1, 93910, Note_off_c, 0, 67, 116
1, 94129, Note_on_c, 0, 68, 116
1, 94317, Note_off_c, 0, 68, 116
1, 94339, Note_on_c, 0, 69, 117
1, 94860, Note_off_c, 0, 69, 117
1, 95079, Note_on_c, 0, 69, 115
1, 95698, Note_off_c, 0, 69, 115
1, 95879, Note_on_c, 0, 69, 114
1, 96649, Note_off_c, 0, 69, 114
1, 96671, Note_on_c, 0, 67, 110
1, 97003, Note_off_c, 0, 67, 110
1, 97169, Note_on_c, 0, 68, 115
1, 97297, Note_off_c, 0, 68, 115
1, 97304, Note_on_c, 0, 69, 106
1, 100637, Note_off_c, 0, 69, 106
1, 102322, Note_on_c, 0, 69, 116
1, 102722, Note_off_c, 0, 69, 116
1, 102744, Note_on_c, 0, 67, 114
1, 102993, Note_off_c, 0, 67, 114
1, 103087, Note_on_c, 0, 64, 113
1, 103374, Note_off_c, 0, 64, 113
1, 103445, Note_on_c, 0, 67, 114
1, 103785, Note_off_c, 0, 67, 114
1, 103898, Note_on_c, 0, 64, 109
1, 104124, Note_off_c, 0, 64, 109
1, 104169, Note_on_c, 0, 67, 114
1, 104509, Note_off_c, 0, 67, 114
1, 104662, Note_on_c, 0, 68, 120
1, 104863, Note_off_c, 0, 68, 120
1, 104870, Note_on_c, 0, 69, 114
1, 108822, Note_off_c, 0, 69, 114
1, 110835, Note_on_c, 0, 69, 116
1, 111313, Note_off_c, 0, 69, 116
1, 111334, Note_on_c, 0, 67, 111
1, 111620, Note_off_c, 0, 67, 111
1, 111715, Note_on_c, 0, 64, 106
1, 112039, Note_off_c, 0, 64, 106
1, 112054, Note_on_c, 0, 67, 112
1, 112378, Note_off_c, 0, 67, 112
1, 112463, Note_on_c, 0, 64, 107
1, 112803, Note_off_c, 0, 64, 107
1, 112824, Note_on_c, 0, 67, 111
1, 113164, Note_off_c, 0, 67, 111
1, 113397, Note_on_c, 0, 68, 117
1, 113492, Note_off_c, 0, 68, 117
1, 113497, Note_on_c, 0, 69, 116
1, 113874, Note_off_c, 0, 69, 116
1, 113874, Note_on_c, 0, 67, 111
1, 114081, Note_off_c, 0, 67, 111
1, 114394, Note_on_c, 0, 68, 119
1, 114452, Note_off_c, 0, 68, 119
1, 114457, Note_on_c, 0, 69, 116
1, 114696, Note_off_c, 0, 69, 116
1, 114706, Note_on_c, 0, 71, 117
1, 114982, Note_off_c, 0, 71, 117
1, 115109, Note_on_c, 0, 69, 110
1, 119004, Note_off_c, 0, 69, 110
1, 120752, Note_on_c, 0, 69, 119
1, 121145, Note_off_c, 0, 69, 119
1, 121155, Note_on_c, 0, 67, 114
1, 121372, Note_off_c, 0, 67, 114
1, 121621, Note_on_c, 0, 69, 105
1, 121769, Note_off_c, 0, 69, 105
1, 121790, Note_on_c, 0, 71, 110
1, 125674, Note_off_c, 0, 71, 110
1, 127135, Note_on_c, 0, 69, 122
1, 127480, Note_off_c, 0, 69, 122
1, 127506, Note_on_c, 0, 67, 118
1, 127787, Note_off_c, 0, 67, 118
1, 128047, Note_on_c, 0, 69, 119
1, 128302, Note_off_c, 0, 69, 119
1, 128349, Note_on_c, 0, 71, 119
1, 128657, Note_off_c, 0, 71, 119
1, 128922, Note_on_c, 0, 71, 121
1, 129150, Note_off_c, 0, 71, 121
1, 129160, Note_on_c, 0, 72, 118
1, 129292, Note_off_c, 0, 72, 118
1, 129307, Note_on_c, 0, 74, 106
1, 131353, Note_off_c, 0, 74, 106
1, 131384, Note_on_c, 0, 71, 111
1, 134407, Note_off_c, 0, 71, 111
1, 136160, Note_on_c, 0, 69, 120
1, 136425, Note_off_c, 0, 69, 120
1, 136446, Note_on_c, 0, 71, 119
1, 136653, Note_off_c, 0, 71, 119
1, 136801, Note_on_c, 0, 64, 108
1, 137050, Note_off_c, 0, 64, 108
1, 137166, Note_on_c, 0, 67, 118
1, 137452, Note_off_c, 0, 67, 118
1, 137489, Note_on_c, 0, 69, 118
1, 137855, Note_off_c, 0, 69, 118
1, 137998, Note_on_c, 0, 71, 119
1, 138391, Note_off_c, 0, 71, 119
1, 138406, Note_on_c, 0, 74, 113
1, 138767, Note_off_c, 0, 74, 113
1, 138963, Note_on_c, 0, 74, 115
1, 139356, Note_off_c, 0, 74, 115
1, 139393, Note_on_c, 0, 71, 119
1, 140004, Note_off_c, 0, 71, 119
1, 140902, Note_on_c, 0, 69, 115
1, 141093, Note_off_c, 0, 69, 115
1, 141098, Note_on_c, 0, 71, 112
1, 141347, Note_off_c, 0, 71, 112
1, 141437, Note_on_c, 0, 64, 119
1, 141819, Note_off_c, 0, 64, 119
1, 141866, Note_on_c, 0, 67, 113
1, 142174, Note_off_c, 0, 67, 113
1, 142200, Note_on_c, 0, 69, 110
1, 142561, Note_off_c, 0, 69, 110
1, 142635, Note_on_c, 0, 71, 120
1, 142937, Note_off_c, 0, 71, 120
1, 142958, Note_on_c, 0, 74, 110
1, 143505, Note_off_c, 0, 74, 110
1, 143685, Note_on_c, 0, 74, 114
1, 144179, Note_off_c, 0, 74, 114
1, 144242, Note_on_c, 0, 69, 116
1, 144635, Note_off_c, 0, 69, 116
1, 145539, Note_on_c, 0, 69, 116
1, 145777, Note_off_c, 0, 69, 116
1, 145792, Note_on_c, 0, 71, 116
1, 146022, Note_off_c, 0, 71, 116
1, 146101, Note_on_c, 0, 64, 114
1, 146437, Note_off_c, 0, 64, 114
1, 146444, Note_on_c, 0, 67, 113
1, 146697, Note_off_c, 0, 67, 113
1, 146746, Note_on_c, 0, 69, 109
1, 147139, Note_off_c, 0, 69, 109
1, 147176, Note_on_c, 0, 71, 113
1, 147489, Note_off_c, 0, 71, 113
1, 147594, Note_on_c, 0, 74, 118
1, 148104, Note_off_c, 0, 74, 118
1, 148198, Note_on_c, 0, 74, 115
1, 148659, Note_off_c, 0, 74, 115
1, 148674, Note_on_c, 0, 71, 111
1, 149021, Note_off_c, 0, 71, 111
1, 149943, Note_on_c, 0, 69, 116
1, 150177, Note_off_c, 0, 69, 116
1, 150192, Note_on_c, 0, 71, 120
1, 150411, Note_off_c, 0, 71, 120
1, 150539, Note_on_c, 0, 64, 114
1, 150875, Note_off_c, 0, 64, 114
1, 150886, Note_on_c, 0, 67, 115
1, 151097, Note_off_c, 0, 67, 115
1, 151187, Note_on_c, 0, 67, 113
1, 151368, Note_off_c, 0, 67, 113
1, 151424, Note_on_c, 0, 69, 120
1, 151718, Note_off_c, 0, 69, 120
1, 151865, Note_on_c, 0, 71, 122
1, 152110, Note_off_c, 0, 71, 122
1, 152151, Note_on_c, 0, 74, 115
1, 152419, Note_off_c, 0, 74, 115
1, 152694, Note_on_c, 0, 79, 109
1, 153177, Note_off_c, 0, 79, 109
1, 153305, Note_on_c, 0, 74, 113
1, 153837, Note_off_c, 0, 74, 113
1, 154003, Note_on_c, 0, 71, 116
1, 154422, Note_off_c, 0, 71, 116
1, 154671, Note_on_c, 0, 69, 112
1, 154924, Note_off_c, 0, 69, 112
1, 154931, Note_on_c, 0, 71, 114
1, 155407, Note_off_c, 0, 71, 114
1, 156106, Note_on_c, 0, 69, 117
1, 156306, Note_off_c, 0, 69, 117
1, 156321, Note_on_c, 0, 71, 120
1, 156559, Note_off_c, 0, 71, 120
1, 156589, Note_on_c, 0, 64, 112
1, 156944, Note_off_c, 0, 64, 112
1, 156993, Note_on_c, 0, 67, 113
1, 157242, Note_off_c, 0, 67, 113
1, 157351, Note_on_c, 0, 69, 121
1, 157630, Note_off_c, 0, 69, 121
1, 157637, Note_on_c, 0, 71, 118
1, 157905, Note_off_c, 0, 71, 118
1, 157920, Note_on_c, 0, 74, 111
1, 158214, Note_off_c, 0, 74, 111
1, 158395, Note_on_c, 0, 79, 105
1, 158912, Note_off_c, 0, 79, 105
1, 159134, Note_on_c, 0, 74, 116
1, 159413, Note_off_c, 0, 74, 116
1, 159465, Note_on_c, 0, 71, 115
1, 159767, Note_off_c, 0, 71, 115
1, 159789, Note_on_c, 0, 69, 111
1, 160117, Note_off_c, 0, 69, 111
1, 160128, Note_on_c, 0, 71, 117
1, 160691, Note_off_c, 0, 71, 117
1, 161446, Note_on_c, 0, 69, 120
1, 161661, Note_off_c, 0, 69, 120
1, 161672, Note_on_c, 0, 71, 117
1, 162257, Note_off_c, 0, 71, 117
1, 162279, Note_on_c, 0, 67, 119
1, 162551, Note_off_c, 0, 67, 119
1, 162558, Note_on_c, 0, 69, 118
1, 162773, Note_off_c, 0, 69, 118
1, 162773, Note_on_c, 0, 71, 121
1, 162958, Note_off_c, 0, 71, 121
1, 162976, Note_on_c, 0, 74, 117
1, 163248, Note_off_c, 0, 74, 117
1, 164128, Note_on_c, 0, 71, 118
1, 164502, Note_off_c, 0, 71, 118
1, 164947, Note_on_c, 0, 78, 109
1, 165022, Note_off_c, 0, 78, 109
1, 165033, Note_on_c, 0, 79, 114
1, 165939, Note_off_c, 0, 79, 114
1, 165973, Note_on_c, 0, 74, 109
1, 166479, Note_off_c, 0, 74, 109
1, 166494, Note_on_c, 0, 71, 110
1, 168205, Note_off_c, 0, 71, 110
1, 169176, Note_on_c, 0, 71, 116
1, 169538, Note_off_c, 0, 71, 116
1, 169549, Note_on_c, 0, 69, 111
1, 169843, Note_off_c, 0, 69, 111
1, 169854, Note_on_c, 0, 64, 112
1, 170205, Note_off_c, 0, 64, 112
1, 170250, Note_on_c, 0, 67, 114
1, 170722, Note_off_c, 0, 67, 114
1, 170771, Note_on_c, 0, 69, 110
1, 171148, Note_off_c, 0, 69, 110
1, 171355, Note_on_c, 0, 63, 116
1, 171736, Note_off_c, 0, 63, 116
1, 171751, Note_on_c, 0, 67, 114
1, 171996, Note_off_c, 0, 67, 114
1, 172067, Note_on_c, 0, 61, 114
1, 172739, Note_off_c, 0, 61, 114
1, 172791, Note_on_c, 0, 66, 107
1, 173070, Note_off_c, 0, 66, 107
1, 173115, Note_on_c, 0, 63, 116
1, 173394, Note_off_c, 0, 63, 116
1, 173401, Note_on_c, 0, 59, 109
1, 173680, Note_off_c, 0, 59, 109
1, 173706, Note_on_c, 0, 57, 113
1, 174155, Note_off_c, 0, 57, 113
1, 174173, Note_on_c, 0, 59, 110
1, 174429, Note_off_c, 0, 59, 110
1, 174436, Note_on_c, 0, 51, 112
1, 174708, Note_off_c, 0, 51, 112
1, 174754, Note_on_c, 0, 49, 109
1, 175067, Note_off_c, 0, 49, 109
1, 175231, Note_on_c, 0, 57, 108
1, 175533, Note_off_c, 0, 57, 108
1, 175570, Note_on_c, 0, 53, 113
1, 175894, Note_off_c, 0, 53, 113
1, 175931, Note_on_c, 0, 51, 110
1, 176882, Note_off_c, 0, 51, 110
1, 178120, Note_on_c, 0, 57, 110
1, 178406, Note_off_c, 0, 57, 110
1, 178421, Note_on_c, 0, 55, 108
1, 178681, Note_off_c, 0, 55, 108
1, 178702, Note_on_c, 0, 57, 112
1, 178951, Note_off_c, 0, 57, 112
1, 178993, Note_on_c, 0, 59, 109
1, 179221, Note_off_c, 0, 59, 109
1, 179242, Note_on_c, 0, 61, 113
1, 179497, Note_off_c, 0, 61, 113
1, 179528, Note_on_c, 0, 59, 106
1, 179735, Note_off_c, 0, 59, 106
1, 179745, Note_on_c, 0, 61, 109
1, 179973, Note_off_c, 0, 61, 109
1, 179983, Note_on_c, 0, 63, 116
1, 180243, Note_off_c, 0, 63, 116
1, 180264, Note_on_c, 0, 66, 112
1, 180460, Note_off_c, 0, 66, 112
1, 180470, Note_on_c, 0, 63, 114
1, 181570, Note_off_c, 0, 63, 114
1, 181596, Note_on_c, 0, 67, 110
1, 181824, Note_off_c, 0, 67, 110
1, 181855, Note_on_c, 0, 69, 112
1, 182072, Note_off_c, 0, 69, 112
1, 182077, Note_on_c, 0, 71, 114
1, 182231, Note_off_c, 0, 71, 114
1, 182246, Note_on_c, 0, 73, 116
1, 182559, Note_off_c, 0, 73, 116
1, 182617, Note_on_c, 0, 69, 110
1, 183143, Note_off_c, 0, 69, 110
1, 184548, Note_on_c, 0, 67, 118
1, 184816, Note_off_c, 0, 67, 118
1, 184823, Note_on_c, 0, 68, 109
1, 184977, Note_off_c, 0, 68, 109
1, 184992, Note_on_c, 0, 69, 110
1, 186299, Note_off_c, 0, 69, 110
1, 186333, Note_on_c, 0, 67, 119
1, 186518, Note_off_c, 0, 67, 119
1, 186529, Note_on_c, 0, 63, 114
1, 186687, Note_off_c, 0, 63, 114
1, 186717, Note_on_c, 0, 67, 109
1, 186909, Note_off_c, 0, 67, 109
1, 186927, Note_on_c, 0, 63, 109
1, 187104, Note_off_c, 0, 63, 109
1, 187134, Note_on_c, 0, 61, 110
1, 187379, Note_off_c, 0, 61, 110
1, 187443, Note_on_c, 0, 55, 105
1, 187628, Note_off_c, 0, 55, 105
1, 187665, Note_on_c, 0, 63, 110
1, 187872, Note_off_c, 0, 63, 110
1, 187909, Note_on_c, 0, 59, 107
1, 188135, Note_off_c, 0, 59, 107
1, 188165, Note_on_c, 0, 55, 107
1, 188437, Note_off_c, 0, 55, 107
1, 188486, Note_on_c, 0, 51, 115
1, 188720, Note_off_c, 0, 51, 115
1, 188735, Note_on_c, 0, 57, 115
1, 188950, Note_off_c, 0, 57, 115
1, 188976, Note_on_c, 0, 53, 119
1, 189198, Note_off_c, 0, 53, 119
1, 189220, Note_on_c, 0, 49, 116
1, 189458, Note_off_c, 0, 49, 116
1, 189461, Note_on_c, 0, 51, 114
1, 189676, Note_on_c, 0, 54, 117
1, 189676, Note_off_c, 0, 51, 114
1, 189959, Note_off_c, 0, 54, 117
1, 189977, Note_on_c, 0, 51, 111
1, 190267, Note_off_c, 0, 51, 111
1, 191347, Note_on_c, 0, 51, 118
1, 191649, Note_off_c, 0, 51, 118
1, 191724, Note_on_c, 0, 55, 120
1, 191935, Note_off_c, 0, 55, 120
1, 191987, Note_on_c, 0, 57, 108
1, 192262, Note_off_c, 0, 57, 108
1, 193305, Note_on_c, 0, 57, 113
1, 193561, Note_off_c, 0, 57, 113
1, 193613, Note_on_c, 0, 63, 117
1, 193937, Note_off_c, 0, 63, 117
1, 193963, Note_on_c, 0, 59, 106
1, 195160, Note_off_c, 0, 59, 106
1, 195726, Note_on_c, 0, 59, 108
1, 195982, Note_off_c, 0, 59, 108
1, 196031, Note_on_c, 0, 63, 116
1, 196284, Note_off_c, 0, 63, 116
1, 196306, Note_on_c, 0, 67, 109
1, 197167, Note_off_c, 0, 67, 109
1, 197299, Note_on_c, 0, 65, 116
1, 197578, Note_off_c, 0, 65, 116
1, 197608, Note_on_c, 0, 61, 113
1, 197804, Note_off_c, 0, 61, 113
1, 197909, Note_on_c, 0, 65, 110
1, 198150, Note_off_c, 0, 65, 110
1, 198153, Note_on_c, 0, 63, 117
1, 198440, Note_off_c, 0, 63, 117
1, 198458, Note_on_c, 0, 59, 110
1, 198798, Note_off_c, 0, 59, 110
1, 199725, Note_on_c, 0, 57, 115
1, 200075, Note_off_c, 0, 57, 115
1, 200090, Note_on_c, 0, 53, 113
1, 200318, Note_off_c, 0, 53, 113
1, 200328, Note_on_c, 0, 51, 115
1, 200620, Note_off_c, 0, 51, 115
1, 200630, Note_on_c, 0, 55, 110
1, 200906, Note_on_c, 0, 49, 115
1, 200906, Note_off_c, 0, 55, 110
1, 201123, Note_off_c, 0, 49, 115
1, 201144, Note_on_c, 0, 51, 114
1, 201367, Note_off_c, 0, 51, 114
1, 201414, Note_on_c, 0, 53, 120
1, 201669, Note_off_c, 0, 53, 120
1, 201732, Note_on_c, 0, 51, 118
1, 202034, Note_off_c, 0, 51, 118
1, 202103, Note_on_c, 0, 55, 114
1, 202480, Note_off_c, 0, 55, 114
1, 203479, Note_on_c, 0, 55, 119
1, 203849, Note_off_c, 0, 55, 119
1, 203849, Note_on_c, 0, 53, 116
1, 204114, Note_off_c, 0, 53, 116
1, 204168, Note_on_c, 0, 57, 115
1, 205422, Note_off_c, 0, 57, 115
1, 205538, Note_on_c, 0, 55, 111
1, 205856, Note_off_c, 0, 55, 111
1, 205871, Note_on_c, 0, 51, 108
1, 206232, Note_off_c, 0, 51, 108
1, 206279, Note_on_c, 0, 55, 113
1, 206624, Note_off_c, 0, 55, 113
1, 206634, Note_on_c, 0, 53, 111
1, 207091, Note_off_c, 0, 53, 111
1, 208207, Note_on_c, 0, 57, 116
1, 208483, Note_off_c, 0, 57, 116
1, 208530, Note_on_c, 0, 62, 118
1, 208710, Note_off_c, 0, 62, 118
1, 208747, Note_on_c, 0, 65, 112
1, 208964, Note_off_c, 0, 65, 112
1, 209011, Note_on_c, 0, 57, 113
1, 209324, Note_off_c, 0, 57, 113
1, 209371, Note_on_c, 0, 63, 114
1, 209679, Note_off_c, 0, 63, 114
1, 209689, Note_on_c, 0, 59, 111
1, 210002, Note_off_c, 0, 59, 111
1, 210002, Note_on_c, 0, 63, 118
1, 210278, Note_off_c, 0, 63, 118
1, 210293, Note_on_c, 0, 67, 116
1, 210548, Note_off_c, 0, 67, 116
1, 210558, Note_on_c, 0, 69, 121
1, 210627, Note_off_c, 0, 69, 121
1, 210637, Note_on_c, 0, 70, 116
1, 210807, Note_off_c, 0, 70, 116
1, 210833, Note_on_c, 0, 70, 123
1, 211189, Note_off_c, 0, 70, 123
1, 211199, Note_on_c, 0, 67, 116
1, 211443, Note_off_c, 0, 67, 116
1, 211453, Note_on_c, 0, 69, 120
1, 211670, Note_off_c, 0, 69, 120
1, 211675, Note_on_c, 0, 71, 119
1, 211855, Note_off_c, 0, 71, 119
1, 211881, Note_on_c, 0, 74, 120
1, 212173, Note_off_c, 0, 74, 120
1, 212178, Note_on_c, 0, 69, 119
1, 212688, Note_off_c, 0, 69, 119
1, 213788, Note_on_c, 0, 69, 115
1, 214149, Note_off_c, 0, 69, 115
1, 214180, Note_on_c, 0, 67, 110
1, 214392, Note_off_c, 0, 67, 110
1, 214546, Note_on_c, 0, 63, 111
1, 214864, Note_off_c, 0, 63, 111
1, 214864, Note_on_c, 0, 66, 115
1, 215050, Note_off_c, 0, 66, 115
1, 215055, Note_on_c, 0, 67, 110
1, 216978, Note_off_c, 0, 67, 110
1, 217004, Note_on_c, 0, 64, 110
1, 217275, Note_off_c, 0, 64, 110
1, 217285, Note_on_c, 0, 59, 107
1, 217683, Note_off_c, 0, 59, 107
1, 218777, Note_on_c, 0, 59, 114
1, 219000, Note_off_c, 0, 59, 114
1, 219047, Note_on_c, 0, 57, 112
1, 219286, Note_off_c, 0, 57, 112
1, 219307, Note_on_c, 0, 54, 106
1, 219503, Note_off_c, 0, 54, 106
1, 219513, Note_on_c, 0, 59, 111
1, 219810, Note_off_c, 0, 59, 111
1, 219852, Note_on_c, 0, 53, 112
1, 220505, Note_off_c, 0, 53, 112
1, 220557, Note_on_c, 0, 52, 106
1, 220806, Note_off_c, 0, 52, 106
1, 220854, Note_on_c, 0, 55, 102
1, 221109, Note_off_c, 0, 55, 102
1, 222150, Note_on_c, 0, 55, 103
1, 222490, Note_off_c, 0, 55, 103
1, 222521, Note_on_c, 0, 60, 110
1, 222760, Note_off_c, 0, 60, 110
1, 222786, Note_on_c, 0, 64, 108
1, 223014, Note_off_c, 0, 64, 108
1, 223093, Note_on_c, 0, 67, 114
1, 223581, Note_off_c, 0, 67, 114
1, 223671, Note_on_c, 0, 67, 113
1, 223894, Note_off_c, 0, 67, 113
1, 223941, Note_on_c, 0, 63, 119
1, 224514, Note_off_c, 0, 63, 119
1, 224519, Note_on_c, 0, 61, 106
1, 224758, Note_off_c, 0, 61, 106
1, 224773, Note_on_c, 0, 66, 108
1, 224959, Note_off_c, 0, 66, 108
1, 224996, Note_on_c, 0, 63, 118
1, 225245, Note_off_c, 0, 63, 118
1, 225271, Note_on_c, 0, 58, 112
1, 225536, Note_off_c, 0, 58, 112
1, 226572, Note_on_c, 0, 58, 116
1, 226901, Note_off_c, 0, 58, 116
1, 226916, Note_on_c, 0, 60, 117
1, 227112, Note_off_c, 0, 60, 117
1, 227149, Note_on_c, 0, 63, 109
1, 227319, Note_off_c, 0, 63, 109
1, 227340, Note_on_c, 0, 67, 116
1, 227568, Note_off_c, 0, 67, 116
1, 227573, Note_on_c, 0, 63, 115
1, 227849, Note_off_c, 0, 63, 115
1, 227854, Note_on_c, 0, 68, 113
1, 228082, Note_off_c, 0, 68, 113
1, 228108, Note_on_c, 0, 72, 115
1, 228379, Note_off_c, 0, 72, 115
1, 228410, Note_on_c, 0, 69, 117
1, 228797, Note_off_c, 0, 69, 117
1, 229721, Note_on_c, 0, 71, 116
1, 229992, Note_off_c, 0, 71, 116
1, 229997, Note_on_c, 0, 69, 119
1, 230262, Note_off_c, 0, 69, 119
1, 230277, Note_on_c, 0, 66, 113
1, 230494, Note_off_c, 0, 66, 113
1, 230511, Note_on_c, 0, 69, 114
1, 230647, Note_off_c, 0, 69, 114
1, 230654, Note_on_c, 0, 66, 105
1, 230758, Note_off_c, 0, 66, 105
1, 230758, Note_on_c, 0, 63, 120
1, 231044, Note_off_c, 0, 63, 120
1, 231054, Note_on_c, 0, 61, 115
1, 231266, Note_off_c, 0, 61, 115
1, 231266, Note_on_c, 0, 66, 117
1, 231499, Note_off_c, 0, 66, 117
1, 231514, Note_on_c, 0, 63, 121
1, 231747, Note_off_c, 0, 63, 121
1, 231778, Note_on_c, 0, 59, 114
1, 231990, Note_off_c, 0, 59, 114
1, 232021, Note_on_c, 0, 57, 109
1, 232307, Note_off_c, 0, 57, 109
1, 232315, Note_on_c, 0, 54, 111
1, 232477, Note_off_c, 0, 54, 111
1, 232477, Note_on_c, 0, 59, 113
1, 232696, Note_off_c, 0, 59, 113
1, 232711, Note_on_c, 0, 57, 108
1, 233822, Note_off_c, 0, 57, 108
1, 235133, Note_on_c, 0, 57, 119
1, 235595, Note_off_c, 0, 57, 119
1, 235621, Note_on_c, 0, 55, 117
1, 235913, Note_off_c, 0, 55, 117
1, 235933, Note_on_c, 0, 52, 109
1, 236161, Note_off_c, 0, 52, 109
1, 236172, Note_on_c, 0, 57, 111
1, 236517, Note_off_c, 0, 57, 111
1, 236548, Note_on_c, 0, 55, 111
1, 236813, Note_off_c, 0, 55, 111
1, 236834, Note_on_c, 0, 51, 120
1, 237067, Note_off_c, 0, 51, 120
1, 237077, Note_on_c, 0, 49, 113
1, 237332, Note_off_c, 0, 49, 113
1, 237342, Note_on_c, 0, 51, 114
1, 237676, Note_off_c, 0, 51, 114
1, 238556, Note_on_c, 0, 56, 114
1, 238786, Note_off_c, 0, 56, 114
1, 238808, Note_on_c, 0, 58, 110
1, 239110, Note_off_c, 0, 58, 110
1, 239143, Note_on_c, 0, 53, 109
1, 239408, Note_off_c, 0, 53, 109
1, 239423, Note_on_c, 0, 51, 115
1, 239694, Note_off_c, 0, 51, 115
1, 239709, Note_on_c, 0, 50, 113
1, 239972, Note_off_c, 0, 50, 113
1, 239977, Note_on_c, 0, 53, 112
1, 240218, Note_off_c, 0, 53, 112
1, 240247, Note_on_c, 0, 50, 109
1, 240483, Note_off_c, 0, 50, 109
1, 240501, Note_on_c, 0, 53, 112
1, 240769, Note_off_c, 0, 53, 112
1, 240808, Note_on_c, 0, 58, 112
1, 241017, Note_off_c, 0, 58, 112
1, 241022, Note_on_c, 0, 61, 111
1, 241157, Note_off_c, 0, 61, 111
1, 241162, Note_on_c, 0, 54, 109
1, 241337, Note_off_c, 0, 54, 109
1, 241360, Note_on_c, 0, 58, 115
1, 241567, Note_off_c, 0, 58, 115
1, 241570, Note_on_c, 0, 60, 112
1, 241751, Note_off_c, 0, 60, 112
1, 241769, Note_on_c, 0, 62, 116
1, 241946, Note_off_c, 0, 62, 116
1, 242052, Note_on_c, 0, 67, 117
1, 242275, Note_off_c, 0, 67, 117
1, 242292, Note_on_c, 0, 63, 124
1, 242499, Note_off_c, 0, 63, 124
1, 242533, Note_on_c, 0, 61, 114
1, 242755, Note_off_c, 0, 61, 114
1, 242792, Note_on_c, 0, 59, 113
1, 243003, Note_off_c, 0, 59, 113
1, 243021, Note_on_c, 0, 56, 114
1, 243236, Note_off_c, 0, 56, 114
1, 243258, Note_on_c, 0, 54, 110
1, 243424, Note_off_c, 0, 54, 110
1, 243454, Note_on_c, 0, 56, 111
1, 243673, Note_off_c, 0, 56, 111
1, 243684, Note_on_c, 0, 59, 114
1, 243929, Note_off_c, 0, 59, 114
1, 243949, Note_on_c, 0, 63, 113
1, 244107, Note_off_c, 0, 63, 113
1, 244110, Note_on_c, 0, 58, 108
1, 244351, Note_off_c, 0, 58, 108
1, 245506, Note_on_c, 0, 58, 114
1, 245808, Note_off_c, 0, 58, 114
1, 245811, Note_on_c, 0, 61, 115
1, 246030, Note_off_c, 0, 61, 115
1, 246037, Note_on_c, 0, 66, 118
1, 246271, Note_off_c, 0, 66, 118
1, 246271, Note_on_c, 0, 64, 116
1, 246520, Note_off_c, 0, 64, 116
1, 246523, Note_on_c, 0, 61, 116
1, 246761, Note_off_c, 0, 61, 116
1, 246768, Note_on_c, 0, 64, 110
1, 246892, Note_off_c, 0, 64, 110
1, 246892, Note_on_c, 0, 67, 116
1, 247194, Note_off_c, 0, 67, 116
1, 247209, Note_on_c, 0, 64, 116
1, 247496, Note_off_c, 0, 64, 116
1, 247507, Note_on_c, 0, 67, 120
1, 247729, Note_off_c, 0, 67, 120
1, 247740, Note_on_c, 0, 71, 124
1, 247978, Note_off_c, 0, 71, 124
1, 247981, Note_on_c, 0, 73, 126
1, 248400, Note_off_c, 0, 73, 126
1, 249397, Note_on_c, 0, 71, 122
1, 249767, Note_off_c, 0, 71, 122
1, 249785, Note_on_c, 0, 73, 120
1, 250170, Note_off_c, 0, 73, 120
1, 250226, Note_on_c, 0, 69, 120
1, 250464, Note_off_c, 0, 69, 120
1, 250505, Note_on_c, 0, 66, 115
1, 250739, Note_off_c, 0, 66, 115
1, 250788, Note_on_c, 0, 62, 114
1, 250969, Note_off_c, 0, 62, 114
1, 251747, Note_on_c, 0, 69, 121
1, 252003, Note_off_c, 0, 69, 121
1, 252018, Note_on_c, 0, 71, 121
1, 252324, Note_off_c, 0, 71, 121
1, 252335, Note_on_c, 0, 73, 120
1, 252678, Note_off_c, 0, 73, 120
1, 252965, Note_on_c, 0, 71, 122
1, 253176, Note_off_c, 0, 71, 122
1, 253191, Note_on_c, 0, 69, 121
1, 253485, Note_off_c, 0, 69, 121
1, 253503, Note_on_c, 0, 65, 112
1, 253612, Note_off_c, 0, 65, 112
1, 253612, Note_on_c, 0, 62, 113
1, 253843, Note_off_c, 0, 62, 113
1, 253920, Note_on_c, 0, 65, 117
1, 254078, Note_off_c, 0, 65, 117
1, 254115, Note_on_c, 0, 69, 118
1, 254281, Note_off_c, 0, 69, 118
1, 254303, Note_on_c, 0, 71, 122
1, 254480, Note_off_c, 0, 71, 122
1, 254487, Note_on_c, 0, 73, 121
1, 254804, Note_off_c, 0, 73, 121
1, 255000, Note_on_c, 0, 71, 117
1, 255147, Note_off_c, 0, 71, 117
1, 255154, Note_on_c, 0, 69, 120
1, 255380, Note_off_c, 0, 69, 120
1, 255406, Note_on_c, 0, 65, 111
1, 255557, Note_off_c, 0, 65, 111
1, 255564, Note_on_c, 0, 62, 112
1, 255900, Note_off_c, 0, 62, 112
1, 256803, Note_on_c, 0, 69, 117
1, 257022, Note_off_c, 0, 69, 117
1, 257033, Note_on_c, 0, 71, 112
1, 257297, Note_off_c, 0, 71, 112
1, 257297, Note_on_c, 0, 68, 115
1, 257599, Note_off_c, 0, 68, 115
1, 257617, Note_on_c, 0, 70, 110
1, 257726, Note_off_c, 0, 70, 110
1, 257729, Note_on_c, 0, 72, 112
1, 258019, Note_off_c, 0, 72, 112
1, 258019, Note_on_c, 0, 69, 111
1, 258272, Note_off_c, 0, 69, 111
1, 258272, Note_on_c, 0, 72, 112
1, 258532, Note_off_c, 0, 72, 112
1, 258547, Note_on_c, 0, 69, 119
1, 258743, Note_off_c, 0, 69, 119
1, 258758, Note_on_c, 0, 71, 117
1, 259018, Note_off_c, 0, 71, 117
1, 259036, Note_on_c, 0, 73, 122
1, 259406, Note_off_c, 0, 73, 122
1, 259417, Note_on_c, 0, 71, 108
1, 259575, Note_off_c, 0, 71, 108
1, 259586, Note_on_c, 0, 69, 121
1, 259812, Note_off_c, 0, 69, 121
1, 259830, Note_on_c, 0, 66, 113
1, 259973, Note_off_c, 0, 66, 113
1, 259995, Note_on_c, 0, 62, 113
1, 260486, Note_off_c, 0, 62, 113
1, 261238, Note_on_c, 0, 69, 114
1, 261453, Note_off_c, 0, 69, 114
1, 261456, Note_on_c, 0, 71, 114
1, 261682, Note_off_c, 0, 71, 114
1, 261693, Note_on_c, 0, 68, 114
1, 261965, Note_off_c, 0, 68, 114
1, 261976, Note_on_c, 0, 65, 115
1, 262240, Note_off_c, 0, 65, 115
1, 262240, Note_on_c, 0, 69, 119
1, 262466, Note_off_c, 0, 69, 119
1, 262481, Note_on_c, 0, 71, 119
1, 262703, Note_off_c, 0, 71, 119
1, 262721, Note_on_c, 0, 73, 124
1, 263110, Note_off_c, 0, 73, 124
1, 263363, Note_on_c, 0, 71, 117
1, 263714, Note_off_c, 0, 71, 117
1, 263952, Note_on_c, 0, 73, 119
1, 264390, Note_off_c, 0, 73, 119
1, 264480, Note_on_c, 0, 69, 120
1, 264665, Note_off_c, 0, 69, 120
1, 264706, Note_on_c, 0, 65, 119
1, 264879, Note_off_c, 0, 65, 119
1, 264890, Note_on_c, 0, 63, 114
1, 265071, Note_off_c, 0, 63, 114
1, 265078, Note_on_c, 0, 62, 113
1, 265304, Note_off_c, 0, 62, 113
1, 266192, Note_on_c, 0, 69, 110
1, 266396, Note_off_c, 0, 69, 110
1, 266411, Note_on_c, 0, 70, 107
1, 266671, Note_off_c, 0, 70, 107
1, 266678, Note_on_c, 0, 68, 113
1, 266980, Note_off_c, 0, 68, 113
1, 266987, Note_on_c, 0, 65, 114
1, 267206, Note_off_c, 0, 65, 114
1, 267240, Note_on_c, 0, 69, 120
1, 267451, Note_off_c, 0, 69, 120
1, 267466, Note_on_c, 0, 71, 117
1, 267692, Note_off_c, 0, 71, 117
1, 267695, Note_on_c, 0, 73, 117
1, 268088, Note_off_c, 0, 73, 117
1, 268280, Note_on_c, 0, 69, 118
1, 268676, Note_off_c, 0, 69, 118
1, 268872, Note_on_c, 0, 72, 114
1, 268943, Note_off_c, 0, 72, 114
1, 268950, Note_on_c, 0, 73, 116
1, 269399, Note_off_c, 0, 73, 116
1, 269410, Note_on_c, 0, 71, 110
1, 269542, Note_off_c, 0, 71, 110
1, 269560, Note_on_c, 0, 69, 114
1, 269733, Note_off_c, 0, 69, 114
1, 269736, Note_on_c, 0, 67, 116
1, 269958, Note_off_c, 0, 67, 116
1, 269965, Note_on_c, 0, 65, 113
1, 270085, Note_off_c, 0, 65, 113
1, 270103, Note_on_c, 0, 62, 114
1, 270556, Note_off_c, 0, 62, 114
1, 271338, Note_on_c, 0, 69, 117
1, 271519, Note_off_c, 0, 69, 117
1, 271522, Note_on_c, 0, 71, 107
1, 271703, Note_off_c, 0, 71, 107
1, 271759, Note_on_c, 0, 67, 116
1, 272053, Note_off_c, 0, 67, 116
1, 272094, Note_on_c, 0, 65, 114
1, 272566, Note_off_c, 0, 65, 114
1, 273291, Note_on_c, 0, 69, 114
1, 273495, Note_off_c, 0, 69, 114
1, 273510, Note_on_c, 0, 71, 117
1, 273759, Note_off_c, 0, 71, 117
1, 273770, Note_on_c, 0, 73, 117
1, 274151, Note_off_c, 0, 73, 117
1, 274355, Note_on_c, 0, 71, 119
1, 274642, Note_off_c, 0, 71, 119
1, 274645, Note_on_c, 0, 69, 115
1, 274845, Note_off_c, 0, 69, 115
1, 274916, Note_on_c, 0, 64, 113
1, 275172, Note_off_c, 0, 64, 113
1, 275179, Note_on_c, 0, 69, 115
1, 275375, Note_off_c, 0, 69, 115
1, 275503, Note_on_c, 0, 63, 114
1, 275914, Note_off_c, 0, 63, 114
1, 276121, Note_on_c, 0, 67, 113
1, 276411, Note_off_c, 0, 67, 113
1, 276422, Note_on_c, 0, 65, 114
1, 276622, Note_off_c, 0, 65, 114
1, 276640, Note_on_c, 0, 62, 115
1, 276866, Note_off_c, 0, 62, 115
1, 276869, Note_on_c, 0, 58, 110
1, 277065, Note_off_c, 0, 58, 110
1, 277208, Note_on_c, 0, 65, 114
1, 277816, Note_off_c, 0, 65, 114
1, 277823, Note_on_c, 0, 63, 118
1, 278098, Note_off_c, 0, 63, 118
1, 278105, Note_on_c, 0, 59, 109
1, 278320, Note_off_c, 0, 59, 109
1, 278361, Note_on_c, 0, 56, 107
1, 278625, Note_off_c, 0, 56, 107
1, 279796, Note_on_c, 0, 59, 116
1, 280151, Note_off_c, 0, 59, 116
1, 280203, Note_on_c, 0, 63, 120
1, 280633, Note_off_c, 0, 63, 120
1, 280648, Note_on_c, 0, 61, 109
1, 280882, Note_off_c, 0, 61, 109
1, 280885, Note_on_c, 0, 59, 107
1, 281062, Note_off_c, 0, 59, 107
1, 281077, Note_on_c, 0, 56, 113
1, 281239, Note_off_c, 0, 56, 113
1, 281242, Note_on_c, 0, 53, 105
1, 281589, Note_off_c, 0, 53, 105
1, 281596, Note_on_c, 0, 56, 108
1, 281807, Note_off_c, 0, 56, 108
1, 281807, Note_on_c, 0, 59, 107
1, 282014, Note_on_c, 0, 63, 117
1, 282014, Note_off_c, 0, 59, 107
1, 282210, Note_off_c, 0, 63, 117
1, 282217, Note_on_c, 0, 61, 113
1, 282455, Note_off_c, 0, 61, 113
1, 282462, Note_on_c, 0, 58, 114
1, 282684, Note_off_c, 0, 58, 114
1, 282687, Note_on_c, 0, 54, 108
1, 283069, Note_off_c, 0, 54, 108
1, 283971, Note_on_c, 0, 56, 121
1, 284178, Note_off_c, 0, 56, 121
1, 284199, Note_on_c, 0, 58, 109
1, 284438, Note_off_c, 0, 58, 109
1, 284464, Note_on_c, 0, 61, 114
1, 285149, Note_off_c, 0, 61, 114
1, 285156, Note_on_c, 0, 59, 108
1, 285336, Note_off_c, 0, 59, 108
1, 285343, Note_on_c, 0, 57, 107
1, 285430, Note_off_c, 0, 57, 107
1, 285440, Note_on_c, 0, 56, 114
1, 285506, Note_off_c, 0, 56, 114
1, 285517, Note_on_c, 0, 55, 121
1, 285639, Note_off_c, 0, 55, 121
1, 285657, Note_on_c, 0, 52, 118
1, 285848, Note_off_c, 0, 52, 118
1, 285879, Note_on_c, 0, 55, 114
1, 286054, Note_off_c, 0, 55, 114
1, 286069, Note_on_c, 0, 57, 108
1, 286260, Note_off_c, 0, 57, 108
1, 286299, Note_on_c, 0, 59, 108
1, 286506, Note_off_c, 0, 59, 108
1, 286511, Note_on_c, 0, 57, 107
1, 286726, Note_off_c, 0, 57, 107
1, 286757, Note_on_c, 0, 53, 107
1, 286985, Note_off_c, 0, 53, 107
1, 287008, Note_on_c, 0, 50, 108
1, 287316, Note_off_c, 0, 50, 108
1, 287390, Note_on_c, 0, 55, 109
1, 287626, Note_off_c, 0, 55, 109
1, 287636, Note_on_c, 0, 53, 105
1, 287945, Note_off_c, 0, 53, 105
1, 289173, Note_on_c, 0, 57, 108
1, 289587, Note_off_c, 0, 57, 108
1, 289589, Note_on_c, 0, 55, 105
1, 289727, Note_off_c, 0, 55, 105
1, 289785, Note_on_c, 0, 51, 110
1, 290220, Note_off_c, 0, 51, 110
1, 290222, Note_on_c, 0, 55, 101
1, 290556, Note_off_c, 0, 55, 101
1, 290677, Note_on_c, 0, 59, 116
1, 290926, Note_off_c, 0, 59, 116
1, 290933, Note_on_c, 0, 63, 116
1, 291174, Note_off_c, 0, 63, 116
1, 291204, Note_on_c, 0, 59, 111
1, 291438, Note_off_c, 0, 59, 111
1, 291468, Note_on_c, 0, 55, 116
1, 291634, Note_off_c, 0, 55, 116
1, 291634, Note_on_c, 0, 57, 108
1, 291853, Note_off_c, 0, 57, 108
1, 291860, Note_on_c, 0, 59, 110
1, 292041, Note_off_c, 0, 59, 110
1, 292056, Note_on_c, 0, 60, 111
1, 292260, Note_off_c, 0, 60, 111
1, 292260, Note_on_c, 0, 63, 117
1, 292501, Note_off_c, 0, 63, 117
1, 292531, Note_on_c, 0, 68, 97
1, 292576, Note_off_c, 0, 68, 97
1, 292593, Note_on_c, 0, 69, 112
1, 293015, Note_off_c, 0, 69, 112
1, 293030, Note_on_c, 0, 69, 108
1, 293375, Note_off_c, 0, 69, 108
1, 293435, Note_on_c, 0, 67, 109
1, 293578, Note_off_c, 0, 67, 109
1, 293578, Note_on_c, 0, 68, 109
1, 293819, Note_off_c, 0, 68, 109
1, 293841, Note_on_c, 0, 67, 109
1, 294037, Note_off_c, 0, 67, 109
1, 294052, Note_on_c, 0, 63, 110
1, 294286, Note_off_c, 0, 63, 110
1, 294316, Note_on_c, 0, 60, 108
1, 294489, Note_off_c, 0, 60, 108
1, 294526, Note_on_c, 0, 56, 106
1, 294714, Note_off_c, 0, 56, 106
1, 294759, Note_on_c, 0, 63, 121
1, 294978, Note_off_c, 0, 63, 121
1, 295008, Note_on_c, 0, 58, 108
1, 295453, Note_off_c, 0, 58, 108
1, 296843, Note_on_c, 0, 58, 106
1, 297984, Note_off_c, 0, 58, 106
1, 297991, Note_on_c, 0, 55, 107
1, 298346, Note_off_c, 0, 55, 107
1, 298391, Note_on_c, 0, 56, 107
1, 298693, Note_off_c, 0, 56, 107
1, 298693, Note_on_c, 0, 51, 115
1, 298995, Note_off_c, 0, 51, 115
1, 299010, Note_on_c, 0, 48, 113
1, 299191, Note_off_c, 0, 48, 113
1, 299198, Note_on_c, 0, 55, 110
1, 299492, Note_off_c, 0, 55, 110
1, 299499, Note_on_c, 0, 56, 110
1, 299823, Note_off_c, 0, 56, 110
1, 300692, Note_on_c, 0, 56, 112
1, 300911, Note_off_c, 0, 56, 112
1, 300941, Note_on_c, 0, 58, 110
1, 301167, Note_off_c, 0, 58, 110
1, 301212, Note_on_c, 0, 60, 114
1, 301400, Note_off_c, 0, 60, 114
1, 301415, Note_on_c, 0, 63, 117
1, 301596, Note_off_c, 0, 63, 117
1, 301648, Note_on_c, 0, 59, 106
1, 301852, Note_off_c, 0, 59, 106
1, 301889, Note_on_c, 0, 58, 115
1, 302115, Note_off_c, 0, 58, 115
1, 302145, Note_on_c, 0, 57, 109
1, 302349, Note_off_c, 0, 57, 109
1, 302356, Note_on_c, 0, 59, 109
1, 302605, Note_off_c, 0, 59, 109
1, 302612, Note_on_c, 0, 61, 110
1, 302740, Note_off_c, 0, 61, 110
1, 302762, Note_on_c, 0, 63, 117
1, 303003, Note_off_c, 0, 63, 117
1, 303010, Note_on_c, 0, 64, 109
1, 303244, Note_off_c, 0, 64, 109
1, 303289, Note_on_c, 0, 66, 112
1, 303523, Note_off_c, 0, 66, 112
1, 303530, Note_on_c, 0, 68, 110
1, 303764, Note_off_c, 0, 68, 110
1, 303786, Note_on_c, 0, 70, 111
1, 303922, Note_off_c, 0, 70, 111
1, 303990, Note_on_c, 0, 70, 116
1, 304216, Note_off_c, 0, 70, 116
1, 304216, Note_on_c, 0, 66, 115
1, 304359, Note_off_c, 0, 66, 115
1, 304396, Note_on_c, 0, 68, 108
1, 304532, Note_off_c, 0, 68, 108
1, 304584, Note_on_c, 0, 70, 107
1, 304810, Note_off_c, 0, 70, 107
1, 304825, Note_on_c, 0, 68, 110
1, 305006, Note_off_c, 0, 68, 110
1, 305081, Note_on_c, 0, 65, 110
1, 305315, Note_off_c, 0, 65, 110
1, 305367, Note_on_c, 0, 63, 114
1, 305503, Note_off_c, 0, 63, 114
1, 305510, Note_on_c, 0, 67, 110
1, 305668, Note_off_c, 0, 67, 110
1, 305683, Note_on_c, 0, 63, 117
1, 305932, Note_off_c, 0, 63, 117
1, 305954, Note_on_c, 0, 62, 114
1, 306127, Note_off_c, 0, 62, 114
1, 306149, Note_on_c, 0, 59, 109
1, 306360, Note_off_c, 0, 59, 109
1, 306367, Note_on_c, 0, 57, 114
1, 306533, Note_off_c, 0, 57, 114
1, 306601, Note_on_c, 0, 53, 113
1, 306842, Note_off_c, 0, 53, 113
1, 306849, Note_on_c, 0, 55, 109
1, 307053, Note_off_c, 0, 55, 109
1, 307083, Note_on_c, 0, 59, 112
1, 307249, Note_off_c, 0, 59, 112
1, 307275, Note_on_c, 0, 63, 122
1, 307441, Note_off_c, 0, 63, 122
1, 307471, Note_on_c, 0, 65, 112
1, 307546, Note_off_c, 0, 65, 112
1, 307557, Note_on_c, 0, 67, 115
1, 307655, Note_off_c, 0, 67, 115
1, 307670, Note_on_c, 0, 71, 107
1, 307790, Note_off_c, 0, 71, 107
1, 307918, Note_on_c, 0, 75, 111
1, 308235, Note_off_c, 0, 75, 111
1, 308235, Note_on_c, 0, 71, 103
1, 308575, Note_off_c, 0, 71, 103
1, 308590, Note_on_c, 0, 79, 115
1, 309035, Note_off_c, 0, 79, 115
1, 309042, Note_on_c, 0, 75, 108
1, 309412, Note_off_c, 0, 75, 108
1, 309412, Note_on_c, 0, 72, 112
1, 309971, Note_off_c, 0, 72, 112
1, 311588, Note_on_c, 0, 72, 10
1, 311874, Note_off_c, 0, 72, 10
1, 311884, Note_on_c, 0, 71, 111
1, 312202, Note_off_c, 0, 71, 111
1, 312457, Note_on_c, 0, 75, 109
1, 312993, Note_off_c, 0, 75, 109
1, 313168, Note_on_c, 0, 71, 113
1, 313550, Note_off_c, 0, 71, 113
1, 313576, Note_on_c, 0, 69, 108
1, 315637, Note_off_c, 0, 69, 108
1, 315652, Note_on_c, 0, 67, 109
1, 315843, Note_off_c, 0, 67, 109
1, 315922, Note_on_c, 0, 63, 112
1, 316102, Note_off_c, 0, 63, 112
1, 316123, Note_on_c, 0, 69, 107
1, 316277, Note_off_c, 0, 69, 107
1, 316298, Note_on_c, 0, 70, 115
1, 316579, Note_off_c, 0, 70, 115
1, 316589, Note_on_c, 0, 69, 110
1, 316817, Note_off_c, 0, 69, 110
1, 316827, Note_on_c, 0, 70, 106
1, 317050, Note_off_c, 0, 70, 106
1, 317063, Note_on_c, 0, 63, 102
1, 317259, Note_off_c, 0, 63, 102
1, 317308, Note_on_c, 0, 59, 116
1, 317594, Note_off_c, 0, 59, 116
1, 317612, Note_on_c, 0, 58, 108
1, 317710, Note_off_c, 0, 58, 108
1, 317747, Note_on_c, 0, 59, 110
1, 317830, Note_off_c, 0, 59, 110
1, 317890, Note_on_c, 0, 57, 110
1, 318048, Note_off_c, 0, 57, 110
1, 318055, Note_on_c, 0, 56, 111
1, 318228, Note_off_c, 0, 56, 111
1, 318250, Note_on_c, 0, 55, 111
1, 318436, Note_off_c, 0, 55, 111
1, 318491, Note_on_c, 0, 59, 105
1, 318687, Note_off_c, 0, 59, 105
1, 318767, Note_on_c, 0, 51, 117
1, 318968, Note_off_c, 0, 51, 117
1, 318980, Note_on_c, 0, 55, 119
1, 319128, Note_off_c, 0, 55, 119
1, 319137, Note_on_c, 0, 59, 118
1, 319312, Note_off_c, 0, 59, 118
1, 319327, Note_on_c, 0, 51, 122
1, 319528, Note_off_c, 0, 51, 122
1, 319533, Note_on_c, 0, 48, 119
1, 320032, Note_off_c, 0, 48, 119
1, 320047, Note_on_c, 0, 51, 121
1, 320305, Note_off_c, 0, 51, 121
1, 320305, Note_on_c, 0, 45, 110
1, 321330, Note_off_c, 0, 45, 110
1, 322527, Note_on_c, 0, 47, 118
1, 322760, Note_off_c, 0, 47, 118
1, 322797, Note_on_c, 0, 51, 115
1, 323009, Note_off_c, 0, 51, 115
1, 323019, Note_on_c, 0, 53, 113
1, 323236, Note_off_c, 0, 53, 113
1, 323273, Note_on_c, 0, 51, 118
1, 323480, Note_off_c, 0, 51, 118
1, 323501, Note_on_c, 0, 53, 113
1, 323787, Note_off_c, 0, 53, 113
1, 324727, Note_on_c, 0, 55, 116
1, 324907, Note_off_c, 0, 55, 116
1, 324965, Note_on_c, 0, 57, 114
1, 325151, Note_off_c, 0, 57, 114
1, 325172, Note_on_c, 0, 60, 116
1, 325437, Note_off_c, 0, 60, 116
1, 325458, Note_on_c, 0, 63, 117
1, 325590, Note_off_c, 0, 63, 117
1, 325595, Note_on_c, 0, 59, 108
1, 325802, Note_off_c, 0, 59, 108
1, 326567, Note_on_c, 0, 59, 109
1, 326827, Note_off_c, 0, 59, 109
1, 326901, Note_on_c, 0, 63, 115
1, 327129, Note_off_c, 0, 63, 115
1, 327139, Note_on_c, 0, 67, 117
1, 327335, Note_off_c, 0, 67, 117
1, 327388, Note_on_c, 0, 60, 114
1, 327632, Note_off_c, 0, 60, 114
1, 328365, Note_on_c, 0, 60, 113
1, 328566, Note_off_c, 0, 60, 113
1, 328587, Note_on_c, 0, 63, 120
1, 328826, Note_off_c, 0, 63, 120
1, 328841, Note_on_c, 0, 62, 118
1, 329085, Note_off_c, 0, 62, 118
1, 329568, Note_on_c, 0, 62, 117
1, 329807, Note_off_c, 0, 62, 117
1, 329828, Note_on_c, 0, 65, 113
1, 330067, Note_off_c, 0, 65, 113
1, 330082, Note_on_c, 0, 63, 110
1, 330225, Note_off_c, 0, 63, 110
1, 330692, Note_on_c, 0, 63, 118
1, 330947, Note_off_c, 0, 63, 118
1, 330994, Note_on_c, 0, 67, 121
1, 331211, Note_off_c, 0, 67, 121
1, 331253, Note_on_c, 0, 65, 112
1, 331412, Note_off_c, 0, 65, 112
1, 332049, Note_on_c, 0, 65, 120
1, 332266, Note_off_c, 0, 65, 120
1, 332271, Note_on_c, 0, 69, 121
1, 332552, Note_off_c, 0, 69, 121
1, 332578, Note_on_c, 0, 67, 115
1, 332732, Note_off_c, 0, 67, 115
1, 333327, Note_on_c, 0, 67, 119
1, 333518, Note_off_c, 0, 67, 119
1, 333544, Note_on_c, 0, 71, 118
1, 333783, Note_off_c, 0, 71, 118
1, 333809, Note_on_c, 0, 69, 120
1, 334037, Note_off_c, 0, 69, 120
1, 334770, Note_on_c, 0, 69, 115
1, 334977, Note_off_c, 0, 69, 115
1, 335014, Note_on_c, 0, 72, 111
1, 335253, Note_off_c, 0, 72, 111
1, 335263, Note_on_c, 0, 71, 111
1, 335560, Note_off_c, 0, 71, 111
1, 336327, Note_on_c, 0, 71, 116
1, 336455, Note_off_c, 0, 71, 116
1, 336462, Note_on_c, 0, 72, 117
1, 336526, Note_off_c, 0, 72, 117
1, 336552, Note_on_c, 0, 74, 112
1, 336631, Note_off_c, 0, 74, 112
1, 336653, Note_on_c, 0, 75, 108
1, 336762, Note_off_c, 0, 75, 108
1, 336992, Note_on_c, 0, 79, 121
1, 337558, Note_off_c, 0, 79, 121
1, 337712, Note_on_c, 0, 79, 110
1, 338002, Note_off_c, 0, 79, 110
1, 338024, Note_on_c, 0, 75, 109
1, 338341, Note_off_c, 0, 75, 109
1, 338405, Note_on_c, 0, 71, 113
1, 338695, Note_off_c, 0, 71, 113
1, 339387, Note_on_c, 0, 71, 113
1, 339604, Note_off_c, 0, 71, 113
1, 339614, Note_on_c, 0, 73, 114
1, 339789, Note_off_c, 0, 73, 114
1, 339799, Note_on_c, 0, 75, 106
1, 339985, Note_off_c, 0, 75, 106
1, 340000, Note_on_c, 0, 69, 110
1, 341333, Note_off_c, 0, 69, 110
1, 341359, Note_on_c, 0, 67, 112
1, 341709, Note_off_c, 0, 67, 112
1, 341730, Note_on_c, 0, 63, 119
1, 341990, Note_off_c, 0, 63, 119
1, 342016, Note_on_c, 0, 67, 117
1, 342255, Note_off_c, 0, 67, 117
1, 342286, Note_on_c, 0, 63, 119
1, 342482, Note_off_c, 0, 63, 119
1, 343417, Note_on_c, 0, 70, 117
1, 343587, Note_off_c, 0, 70, 117
1, 343613, Note_on_c, 0, 72, 112
1, 343899, Note_off_c, 0, 72, 112
1, 343989, Note_on_c, 0, 62, 112
1, 345445, Note_off_c, 0, 62, 112
1, 345450, Note_on_c, 0, 59, 113
1, 345657, Note_off_c, 0, 59, 113
1, 345672, Note_on_c, 0, 55, 113
1, 345895, Note_off_c, 0, 55, 113
1, 345926, Note_on_c, 0, 57, 106
1, 346462, Note_off_c, 0, 57, 106
1, 347405, Note_on_c, 0, 57, 119
1, 347697, Note_off_c, 0, 57, 119
1, 347757, Note_on_c, 0, 60, 105
1, 347964, Note_off_c, 0, 60, 105
1, 347993, Note_on_c, 0, 59, 107
1, 348274, Note_off_c, 0, 59, 107
1, 349062, Note_on_c, 0, 59, 112
1, 349348, Note_off_c, 0, 59, 112
1, 349369, Note_on_c, 0, 61, 110
1, 349613, Note_off_c, 0, 61, 110
1, 349623, Note_on_c, 0, 64, 112
1, 349840, Note_off_c, 0, 64, 112
1, 349861, Note_on_c, 0, 63, 113
1, 350132, Note_off_c, 0, 63, 113
1, 350865, Note_on_c, 0, 63, 120
1, 351146, Note_off_c, 0, 63, 120
1, 351177, Note_on_c, 0, 65, 116
1, 351389, Note_off_c, 0, 65, 116
1, 351404, Note_on_c, 0, 67, 121
1, 351616, Note_off_c, 0, 67, 121
1, 351653, Note_on_c, 0, 69, 115
1, 351998, Note_off_c, 0, 69, 115
1, 352742, Note_on_c, 0, 69, 118
1, 353129, Note_off_c, 0, 69, 118
1, 353134, Note_on_c, 0, 71, 116
1, 353458, Note_off_c, 0, 71, 116
1, 353681, Note_on_c, 0, 71, 117
1, 354711, Note_off_c, 0, 71, 117
1, 354732, Note_on_c, 0, 72, 116
1, 355816, Note_off_c, 0, 72, 116
1, 356820, Note_on_c, 0, 72, 120
1, 357144, Note_off_c, 0, 72, 120
1, 357181, Note_on_c, 0, 71, 120
1, 357521, Note_off_c, 0, 71, 120
1, 357765, Note_on_c, 0, 71, 117
1, 358099, Note_off_c, 0, 71, 117
1, 358114, Note_on_c, 0, 75, 106
1, 358331, Note_off_c, 0, 75, 106
1, 358543, Note_on_c, 0, 78, 115
1, 358654, Note_off_c, 0, 78, 115
1, 358675, Note_on_c, 0, 79, 118
1, 359833, Note_off_c, 0, 79, 118
1, 360545, Note_on_c, 0, 72, 120
1, 361002, Note_off_c, 0, 72, 120
1, 361017, Note_on_c, 0, 71, 115
1, 361309, Note_off_c, 0, 71, 115
1, 361595, Note_on_c, 0, 71, 116
1, 361954, Note_off_c, 0, 71, 116
1, 361954, Note_on_c, 0, 75, 104
1, 362171, Note_off_c, 0, 75, 104
1, 362538, Note_on_c, 0, 79, 113
1, 362749, Note_off_c, 0, 79, 113
1, 362756, Note_on_c, 0, 80, 115
1, 362994, Note_off_c, 0, 80, 115
1, 363001, Note_on_c, 0, 81, 110
1, 363133, Note_on_c, 0, 82, 110
1, 363133, Note_off_c, 0, 81, 110
1, 363639, Note_off_c, 0, 82, 110
1, 363650, Note_on_c, 0, 81, 90
1, 364231, Note_off_c, 0, 81, 90
1, 364389, Note_on_c, 0, 79, 102
1, 364683, Note_off_c, 0, 79, 102
1, 364758, Note_on_c, 0, 80, 107
1, 365751, Note_off_c, 0, 80, 107
1, 365762, Note_on_c, 0, 79, 108
1, 366616, Note_off_c, 0, 79, 108
1, 367439, Note_on_c, 0, 75, 107
1, 367714, Note_off_c, 0, 75, 107
1, 367721, Note_on_c, 0, 74, 110
1, 367826, Note_off_c, 0, 74, 110
1, 367833, Note_on_c, 0, 71, 114
1, 368120, Note_off_c, 0, 71, 114
1, 368339, Note_on_c, 0, 71, 120
1, 368652, Note_off_c, 0, 71, 120
1, 368652, Note_on_c, 0, 70, 119
1, 368939, Note_off_c, 0, 70, 119
1, 368946, Note_on_c, 0, 69, 121
1, 369380, Note_off_c, 0, 69, 121
1, 369553, Note_on_c, 0, 76, 107
1, 369802, Note_off_c, 0, 76, 107
1, 369820, Note_on_c, 0, 77, 113
1, 370590, Note_off_c, 0, 77, 113
1, 370608, Note_on_c, 0, 75, 115
1, 371696, Note_off_c, 0, 75, 115
1, 372387, Note_on_c, 0, 71, 119
1, 372625, Note_off_c, 0, 71, 119
1, 372647, Note_on_c, 0, 69, 113
1, 372926, Note_off_c, 0, 69, 113
1, 372926, Note_on_c, 0, 71, 115
1, 373179, Note_off_c, 0, 71, 115
1, 373231, Note_on_c, 0, 75, 110
1, 373605, Note_off_c, 0, 75, 110
1, 373873, Note_on_c, 0, 69, 114
1, 374197, Note_off_c, 0, 69, 114
1, 374223, Note_on_c, 0, 71, 113
1, 374464, Note_off_c, 0, 71, 113
1, 374720, Note_on_c, 0, 64, 122
1, 374874, Note_off_c, 0, 64, 122
1, 374881, Note_on_c, 0, 65, 119
1, 376275, Note_off_c, 0, 65, 119
1, 376316, Note_on_c, 0, 63, 121
1, 376606, Note_off_c, 0, 63, 121
1, 376643, Note_on_c, 0, 59, 113
1, 376933, Note_off_c, 0, 59, 113
1, 376955, Note_on_c, 0, 57, 112
1, 377215, Note_off_c, 0, 57, 112
1, 377267, Note_on_c, 0, 59, 113
1, 377440, Note_off_c, 0, 59, 113
1, 377455, Note_on_c, 0, 61, 111
1, 377655, Note_off_c, 0, 61, 111
1, 377685, Note_on_c, 0, 63, 125
1, 377930, Note_off_c, 0, 63, 125
1, 377941, Note_on_c, 0, 65, 119
1, 378061, Note_off_c, 0, 65, 119
1, 378098, Note_on_c, 0, 69, 119
1, 378275, Note_off_c, 0, 69, 119
1, 378293, Note_on_c, 0, 71, 120
1, 378497, Note_off_c, 0, 71, 120
1, 378504, Note_on_c, 0, 73, 116
1, 378825, Note_off_c, 0, 73, 116
1, 380049, Note_on_c, 0, 71, 118
1, 380324, Note_off_c, 0, 71, 118
1, 380342, Note_on_c, 0, 69, 118
1, 380716, Note_off_c, 0, 69, 118
1, 380976, Note_on_c, 0, 75, 124
1, 381146, Note_off_c, 0, 75, 124
1, 381147, Note_on_c, 0, 76, 122
1, 381243, Note_off_c, 0, 76, 122
1, 381246, Note_on_c, 0, 77, 109
1, 381967, Note_off_c, 0, 77, 109
1, 381985, Note_on_c, 0, 75, 113
1, 383167, Note_off_c, 0, 75, 113
1, 383238, Note_on_c, 0, 71, 117
1, 383491, Note_off_c, 0, 71, 117
1, 383525, Note_on_c, 0, 69, 123
1, 383755, Note_off_c, 0, 69, 123
1, 383770, Note_on_c, 0, 71, 120
1, 384000, Note_off_c, 0, 71, 120
1, 384090, Note_on_c, 0, 63, 123
1, 384369, Note_off_c, 0, 63, 123
1, 384395, Note_on_c, 0, 65, 119
1, 385498, Note_off_c, 0, 65, 119
1, 385520, Note_on_c, 0, 63, 122
1, 385758, Note_off_c, 0, 63, 122
1, 385776, Note_on_c, 0, 59, 116
1, 385946, Note_off_c, 0, 59, 116
1, 385972, Note_on_c, 0, 57, 116
1, 386134, Note_off_c, 0, 57, 116
1, 387143, Note_on_c, 0, 59, 117
1, 387411, Note_off_c, 0, 59, 117
1, 387441, Note_on_c, 0, 67, 116
1, 387652, Note_off_c, 0, 67, 116
1, 387670, Note_on_c, 0, 70, 119
1, 388134, Note_off_c, 0, 70, 119
1, 388912, Note_on_c, 0, 69, 123
1, 389168, Note_off_c, 0, 69, 123
1, 389175, Note_on_c, 0, 70, 118
1, 389397, Note_off_c, 0, 70, 118
1, 389495, Note_on_c, 0, 67, 122
1, 389823, Note_off_c, 0, 67, 122
1, 389849, Note_on_c, 0, 64, 115
1, 390098, Note_off_c, 0, 64, 115
1, 390101, Note_on_c, 0, 67, 114
1, 390361, Note_off_c, 0, 67, 114
1, 390402, Note_on_c, 0, 72, 118
1, 391565, Note_off_c, 0, 72, 118
1, 391591, Note_on_c, 0, 70, 117
1, 392562, Note_off_c, 0, 70, 117
1, 393200, Note_on_c, 0, 69, 113
1, 393695, Note_off_c, 0, 69, 113
1, 393719, Note_on_c, 0, 68, 117
1, 393887, Note_off_c, 0, 68, 117
1, 393894, Note_on_c, 0, 67, 118
1, 394105, Note_off_c, 0, 67, 118
1, 394127, Note_on_c, 0, 64, 112
1, 394399, Note_off_c, 0, 64, 112
1, 394402, Note_on_c, 0, 67, 114
1, 394658, Note_off_c, 0, 67, 114
1, 394710, Note_on_c, 0, 72, 113
1, 395053, Note_off_c, 0, 72, 113
1, 395332, Note_on_c, 0, 72, 120
1, 396050, Note_off_c, 0, 72, 120
1, 396091, Note_on_c, 0, 70, 114
1, 396933, Note_off_c, 0, 70, 114
1, 397454, Note_on_c, 0, 52, 120
1, 397658, Note_off_c, 0, 52, 120
1, 397658, Note_on_c, 0, 55, 111
1, 397982, Note_off_c, 0, 55, 111
1, 398012, Note_on_c, 0, 51, 115
1, 398238, Note_off_c, 0, 51, 115
1, 398268, Note_on_c, 0, 49, 111
1, 398388, Note_off_c, 0, 49, 111
1, 398410, Note_on_c, 0, 51, 115
1, 398564, Note_off_c, 0, 51, 115
1, 398575, Note_on_c, 0, 55, 109
1, 398798, Note_off_c, 0, 55, 109
1, 398808, Note_on_c, 0, 52, 120
1, 399060, Note_off_c, 0, 52, 120
1, 399098, Note_on_c, 0, 54, 111
1, 399196, Note_off_c, 0, 54, 111
1, 399203, Note_on_c, 0, 56, 112
1, 399452, Note_off_c, 0, 56, 112
1, 399498, Note_on_c, 0, 58, 106
1, 399670, Note_off_c, 0, 58, 106
1, 399699, Note_on_c, 0, 62, 120
1, 399892, Note_off_c, 0, 62, 120
1, 399918, Note_on_c, 0, 61, 117
1, 400058, Note_off_c, 0, 61, 117
1, 400097, Note_on_c, 0, 59, 115
1, 400229, Note_off_c, 0, 59, 115
1, 400240, Note_on_c, 0, 58, 114
1, 400459, Note_off_c, 0, 58, 114
1, 400477, Note_on_c, 0, 57, 111
1, 400579, Note_off_c, 0, 57, 111
1, 400582, Note_on_c, 0, 56, 111
1, 400740, Note_off_c, 0, 56, 111
1, 400766, Note_on_c, 0, 55, 116
1, 400933, Note_off_c, 0, 55, 116
1, 401873, Note_on_c, 0, 61, 111
1, 402065, Note_off_c, 0, 61, 111
1, 402076, Note_on_c, 0, 63, 106
1, 402317, Note_off_c, 0, 63, 106
1, 402362, Note_on_c, 0, 64, 120
1, 402532, Note_off_c, 0, 64, 120
1, 402535, Note_on_c, 0, 66, 114
1, 402712, Note_off_c, 0, 66, 114
1, 402855, Note_on_c, 0, 61, 119
1, 403019, Note_off_c, 0, 61, 119
1, 403034, Note_on_c, 0, 63, 126
1, 403320, Note_off_c, 0, 63, 126
1, 403391, Note_on_c, 0, 67, 117
1, 403579, Note_off_c, 0, 67, 117
1, 403586, Note_on_c, 0, 72, 119
1, 404218, Note_off_c, 0, 72, 119
1, 404382, Note_on_c, 0, 72, 120
1, 405110, Note_off_c, 0, 72, 120
1, 405139, Note_on_c, 0, 70, 116
1, 406029, Note_off_c, 0, 70, 116
1, 407062, Note_on_c, 0, 72, 119
1, 407447, Note_off_c, 0, 72, 119
1, 407515, Note_on_c, 0, 75, 108
1, 407768, Note_off_c, 0, 75, 108
1, 407892, Note_on_c, 0, 75, 107
1, 408421, Note_off_c, 0, 75, 107
1, 408451, Note_on_c, 0, 73, 115
1, 409399, Note_off_c, 0, 73, 115
1, 410064, Note_on_c, 0, 69, 120
1, 410324, Note_off_c, 0, 69, 120
1, 410331, Note_on_c, 0, 70, 118
1, 410516, Note_off_c, 0, 70, 118
1, 410527, Note_on_c, 0, 69, 116
1, 410595, Note_off_c, 0, 69, 116
1, 410602, Note_on_c, 0, 67, 121
1, 410900, Note_off_c, 0, 67, 121
1, 410903, Note_on_c, 0, 68, 110
1, 411073, Note_off_c, 0, 68, 110
1, 411073, Note_on_c, 0, 67, 113
1, 411303, Note_off_c, 0, 67, 113
1, 411318, Note_on_c, 0, 72, 112
1, 411548, Note_off_c, 0, 72, 112
1, 411718, Note_on_c, 0, 75, 113
1, 412001, Note_off_c, 0, 75, 113
1, 412008, Note_on_c, 0, 73, 111
1, 412094, Note_off_c, 0, 73, 111
1, 412177, Note_on_c, 0, 79, 115
1, 412981, Note_off_c, 0, 79, 115
1, 414050, Note_on_c, 0, 69, 108
1, 414306, Note_off_c, 0, 69, 108
1, 414332, Note_on_c, 0, 72, 115
1, 414668, Note_off_c, 0, 72, 115
1, 414849, Note_on_c, 0, 69, 118
1, 415283, Note_off_c, 0, 69, 118
1, 415586, Note_on_c, 0, 79, 116
1, 415689, Note_off_c, 0, 79, 116
1, 415696, Note_on_c, 0, 80, 114
1, 415730, Note_off_c, 0, 80, 114
1, 415743, Note_on_c, 0, 81, 111
1, 416941, Note_off_c, 0, 81, 111
1, 416970, Note_on_c, 0, 79, 112
1, 417581, Note_off_c, 0, 79, 112
1, 417833, Note_on_c, 0, 77, 92
1, 418353, Note_off_c, 0, 77, 92
1, 418368, Note_on_c, 0, 74, 106
1, 418692, Note_off_c, 0, 74, 106
1, 418699, Note_on_c, 0, 72, 100
1, 418842, Note_off_c, 0, 72, 100
1, 418855, Note_on_c, 0, 69, 110
1, 419960, Note_off_c, 0, 69, 110
1, 420856, Note_on_c, 0, 69, 117
1, 421090, Note_off_c, 0, 69, 117
1, 421127, Note_on_c, 0, 71, 115
1, 421455, Note_off_c, 0, 71, 115
1, 421481, Note_on_c, 0, 67, 113
1, 423582, Note_off_c, 0, 67, 113
1, 423676, Note_on_c, 0, 63, 114
1, 423966, Note_off_c, 0, 63, 114
1, 423969, Note_on_c, 0, 67, 110
1, 424139, Note_off_c, 0, 67, 110
1, 424150, Note_on_c, 0, 66, 109
1, 424388, Note_off_c, 0, 66, 109
1, 424444, Note_on_c, 0, 61, 111
1, 424655, Note_off_c, 0, 61, 111
1, 424696, Note_on_c, 0, 59, 111
1, 424979, Note_off_c, 0, 59, 111
1, 424994, Note_on_c, 0, 57, 115
1, 425186, Note_off_c, 0, 57, 115
1, 425201, Note_on_c, 0, 59, 116
1, 425382, Note_off_c, 0, 59, 116
1, 425412, Note_on_c, 0, 58, 110
1, 425744, Note_off_c, 0, 58, 110
1, 425781, Note_on_c, 0, 57, 116
1, 425886, Note_off_c, 0, 57, 116
1, 425893, Note_on_c, 0, 59, 109
1, 426195, Note_off_c, 0, 59, 109
1, 426225, Note_on_c, 0, 63, 119
1, 426478, Note_off_c, 0, 63, 119
1, 426508, Note_on_c, 0, 66, 111
1, 426712, Note_off_c, 0, 66, 111
1, 426734, Note_on_c, 0, 69, 118
1, 426998, Note_off_c, 0, 69, 118
1, 427005, Note_on_c, 0, 71, 121
1, 427197, Note_off_c, 0, 71, 121
1, 427204, Note_on_c, 0, 74, 119
1, 427755, Note_off_c, 0, 74, 119
1, 428000, Note_on_c, 0, 74, 122
1, 428461, Note_off_c, 0, 74, 122
1, 428472, Note_on_c, 0, 72, 122
1, 428951, Note_off_c, 0, 72, 122
1, 429091, Note_on_c, 0, 75, 115
1, 429215, Note_off_c, 0, 75, 115
1, 429225, Note_on_c, 0, 76, 120
1, 429355, Note_off_c, 0, 76, 120
1, 429360, Note_on_c, 0, 77, 107
1, 430018, Note_off_c, 0, 77, 107
1, 430061, Note_on_c, 0, 75, 115
1, 431232, Note_off_c, 0, 75, 115
1, 432245, Note_on_c, 0, 74, 122
1, 432441, Note_off_c, 0, 74, 122
1, 432456, Note_on_c, 0, 73, 121
1, 432556, Note_off_c, 0, 73, 121
1, 432561, Note_on_c, 0, 71, 121
1, 432661, Note_off_c, 0, 71, 121
1, 432661, Note_on_c, 0, 69, 118
1, 432857, Note_off_c, 0, 69, 118
1, 432878, Note_on_c, 0, 68, 121
1, 433861, Note_off_c, 0, 68, 121
1, 433898, Note_on_c, 0, 66, 116
1, 434105, Note_off_c, 0, 66, 116
1, 434126, Note_on_c, 0, 65, 116
1, 434200, Note_on_c, 0, 68, 119
1, 434200, Note_off_c, 0, 65, 116
1, 434433, Note_off_c, 0, 68, 119
1, 434448, Note_on_c, 0, 66, 114
1, 434756, Note_off_c, 0, 66, 114
1, 434782, Note_on_c, 0, 65, 114
1, 434867, Note_off_c, 0, 65, 114
1, 434877, Note_on_c, 0, 64, 119
1, 434983, Note_off_c, 0, 64, 119
1, 435009, Note_on_c, 0, 63, 117
1, 435232, Note_off_c, 0, 63, 117
1, 435311, Note_on_c, 0, 65, 115
1, 435502, Note_off_c, 0, 65, 115
1, 435512, Note_on_c, 0, 62, 116
1, 435703, Note_off_c, 0, 62, 116
1, 435734, Note_on_c, 0, 61, 107
1, 435973, Note_off_c, 0, 61, 107
1, 436089, Note_on_c, 0, 63, 117
1, 436317, Note_off_c, 0, 63, 117
1, 436348, Note_on_c, 0, 59, 113
1, 436512, Note_off_c, 0, 59, 113
1, 436554, Note_on_c, 0, 57, 111
1, 436947, Note_off_c, 0, 57, 111
1, 438068, Note_on_c, 0, 59, 113
1, 438546, Note_off_c, 0, 59, 113
1, 438551, Note_on_c, 0, 57, 115
1, 438743, Note_off_c, 0, 57, 115
1, 438784, Note_on_c, 0, 54, 112
1, 438961, Note_off_c, 0, 54, 112
1, 439019, Note_on_c, 0, 57, 115
1, 439275, Note_off_c, 0, 57, 115
1, 439290, Note_on_c, 0, 55, 114
1, 439509, Note_off_c, 0, 55, 114
1, 439535, Note_on_c, 0, 52, 111
1, 439769, Note_off_c, 0, 52, 111
1, 439829, Note_on_c, 0, 47, 111
1, 440169, Note_off_c, 0, 47, 111
1, 440172, Note_on_c, 0, 54, 112
1, 440357, Note_off_c, 0, 54, 112
1, 440387, Note_on_c, 0, 49, 110
1, 440689, Note_off_c, 0, 49, 110
1, 440722, Note_on_c, 0, 51, 110
1, 440929, Note_off_c, 0, 51, 110
1, 440990, Note_on_c, 0, 53, 113
1, 441243, Note_off_c, 0, 53, 113
1, 441250, Note_on_c, 0, 55, 112
1, 441505, Note_off_c, 0, 55, 112
1, 442859, Note_on_c, 0, 58, 111
1, 444060, Note_off_c, 0, 58, 111
1, 444064, Note_on_c, 0, 55, 110
1, 444309, Note_off_c, 0, 55, 110
1, 444324, Note_on_c, 0, 56, 116
1, 444562, Note_off_c, 0, 56, 116
1, 444569, Note_on_c, 0, 58, 109
1, 444791, Note_off_c, 0, 58, 109
1, 444802, Note_on_c, 0, 60, 112
1, 444968, Note_off_c, 0, 60, 112
1, 444971, Note_on_c, 0, 62, 114
1, 445091, Note_off_c, 0, 62, 114
1, 445102, Note_on_c, 0, 60, 114
1, 445287, Note_off_c, 0, 60, 114
1, 445313, Note_on_c, 0, 56, 113
1, 445535, Note_off_c, 0, 56, 113
1, 445546, Note_on_c, 0, 57, 114
1, 445689, Note_off_c, 0, 57, 114
1, 445704, Note_on_c, 0, 60, 109
1, 445847, Note_off_c, 0, 60, 109
1, 445862, Note_on_c, 0, 63, 119
1, 446077, Note_off_c, 0, 63, 119
1, 446080, Note_on_c, 0, 68, 122
1, 446348, Note_off_c, 0, 68, 122
1, 446351, Note_on_c, 0, 67, 116
1, 446558, Note_off_c, 0, 67, 116
1, 446595, Note_on_c, 0, 65, 111
1, 446814, Note_off_c, 0, 65, 111
1, 446844, Note_on_c, 0, 67, 113
1, 446987, Note_off_c, 0, 67, 113
1, 447028, Note_on_c, 0, 66, 113
1, 447239, Note_off_c, 0, 66, 113
1, 447261, Note_on_c, 0, 63, 121
1, 447540, Note_off_c, 0, 63, 121
1, 447543, Note_on_c, 0, 61, 109
1, 447720, Note_off_c, 0, 61, 109
1, 447754, Note_on_c, 0, 59, 112
1, 447965, Note_off_c, 0, 59, 112
1, 447988, Note_on_c, 0, 58, 110
1, 448188, Note_off_c, 0, 58, 110
1, 448210, Note_on_c, 0, 57, 112
1, 448429, Note_off_c, 0, 57, 112
1, 448448, Note_on_c, 0, 59, 113
1, 448671, Note_off_c, 0, 59, 113
1, 448671, Note_on_c, 0, 61, 120
1, 448872, Note_off_c, 0, 61, 120
1, 448872, Note_on_c, 0, 63, 116
1, 449057, Note_on_c, 0, 66, 108
1, 449057, Note_off_c, 0, 63, 116
1, 449291, Note_off_c, 0, 66, 108
1, 449295, Note_on_c, 0, 69, 110
1, 449502, Note_off_c, 0, 69, 110
1, 449502, Note_on_c, 0, 72, 121
1, 450001, Note_off_c, 0, 72, 121
1, 450027, Note_on_c, 0, 69, 111
1, 450406, Note_off_c, 0, 69, 111
1, 450406, Note_on_c, 0, 71, 124
1, 450791, Note_off_c, 0, 71, 124
1, 450806, Note_on_c, 0, 70, 105
1, 451285, Note_off_c, 0, 70, 105
1, 452454, Note_on_c, 0, 71, 116
1, 452725, Note_off_c, 0, 71, 116
1, 452746, Note_on_c, 0, 69, 120
1, 452985, Note_off_c, 0, 69, 120
1, 452995, Note_on_c, 0, 70, 122
1, 453568, Note_off_c, 0, 70, 122
1, 453839, Note_on_c, 0, 69, 121
1, 454083, Note_off_c, 0, 69, 121
1, 454114, Note_on_c, 0, 67, 117
1, 454326, Note_off_c, 0, 67, 117
1, 454347, Note_on_c, 0, 62, 116
1, 454644, Note_off_c, 0, 62, 116
1, 454681, Note_on_c, 0, 67, 114
1, 454914, Note_off_c, 0, 67, 114
1, 454940, Note_on_c, 0, 66, 107
1, 455184, Note_off_c, 0, 66, 107
1, 455221, Note_on_c, 0, 61, 102
1, 455502, Note_off_c, 0, 61, 102
1, 455624, Note_on_c, 0, 63, 118
1, 455910, Note_off_c, 0, 63, 118
1, 455925, Note_on_c, 0, 59, 108
1, 456142, Note_off_c, 0, 59, 108
1, 456179, Note_on_c, 0, 57, 112
1, 456402, Note_off_c, 0, 57, 112
1, 456460, Note_on_c, 0, 54, 108
1, 456672, Note_off_c, 0, 54, 108
1, 456682, Note_on_c, 0, 59, 107
1, 456852, Note_off_c, 0, 59, 107
1, 456857, Note_on_c, 0, 57, 105
1, 459147, Note_off_c, 0, 57, 105
1, 460735, Note_on_c, 0, 69, 119
1, 461107, Note_off_c, 0, 69, 119
1, 461133, Note_on_c, 0, 67, 121
1, 461419, Note_off_c, 0, 67, 121
1, 461607, Note_on_c, 0, 68, 122
1, 461718, Note_off_c, 0, 68, 122
1, 461720, Note_on_c, 0, 69, 119
1, 462256, Note_off_c, 0, 69, 119
1, 462388, Note_on_c, 0, 68, 124
1, 462480, Note_off_c, 0, 68, 124
1, 462484, Note_on_c, 0, 69, 120
1, 463791, Note_off_c, 0, 69, 120
1, 463843, Note_on_c, 0, 64, 118
1, 464209, Note_off_c, 0, 64, 118
1, 464216, Note_on_c, 0, 67, 117
1, 464423, Note_off_c, 0, 67, 117
1, 465363, Note_on_c, 0, 69, 122
1, 465687, Note_off_c, 0, 69, 122
1, 465728, Note_on_c, 0, 67, 111
1, 465803, Note_off_c, 0, 67, 111
1, 465844, Note_on_c, 0, 64, 116
1, 466221, Note_off_c, 0, 64, 116
1, 466228, Note_on_c, 0, 67, 117
1, 466579, Note_off_c, 0, 67, 117
1, 466616, Note_on_c, 0, 69, 118
1, 467005, Note_off_c, 0, 69, 118
1, 467300, Note_on_c, 0, 69, 10
1, 467717, Note_off_c, 0, 69, 10
1, 467717, Note_on_c, 0, 71, 121
1, 468112, Note_off_c, 0, 71, 121
1, 468220, Note_on_c, 0, 71, 115
1, 468605, Note_off_c, 0, 71, 115
1, 468623, Note_on_c, 0, 73, 118
1, 468944, Note_off_c, 0, 73, 118
1, 469137, Note_on_c, 0, 68, 117
1, 469612, Note_off_c, 0, 68, 117
1, 470310, Note_on_c, 0, 71, 117
1, 470594, Note_off_c, 0, 71, 117
1, 470607, Note_on_c, 0, 67, 114
1, 470909, Note_off_c, 0, 67, 114
1, 471028, Note_on_c, 0, 68, 108
1, 471192, Note_off_c, 0, 68, 108
1, 471205, Note_on_c, 0, 63, 120
1, 471635, Note_off_c, 0, 63, 120
1, 472032, Note_on_c, 0, 71, 116
1, 472417, Note_off_c, 0, 71, 116
1, 472428, Note_on_c, 0, 70, 103
1, 472756, Note_off_c, 0, 70, 103
1, 472808, Note_on_c, 0, 66, 109
1, 473083, Note_off_c, 0, 66, 109
1, 473094, Note_on_c, 0, 65, 106
1, 473241, Note_off_c, 0, 65, 106
1, 473244, Note_on_c, 0, 68, 108
1, 473448, Note_off_c, 0, 68, 108
1, 473463, Note_on_c, 0, 63, 120
1, 473716, Note_off_c, 0, 63, 120
1, 473731, Note_on_c, 0, 61, 112
1, 473893, Note_off_c, 0, 61, 112
1, 473902, Note_on_c, 0, 56, 110
1, 474098, Note_off_c, 0, 56, 110
1, 474106, Note_on_c, 0, 63, 119
1, 474362, Note_off_c, 0, 63, 119
1, 474384, Note_on_c, 0, 59, 115
1, 474622, Note_off_c, 0, 59, 115
1, 474622, Note_on_c, 0, 56, 115
1, 474829, Note_off_c, 0, 56, 115
1, 474847, Note_on_c, 0, 55, 111
1, 475066, Note_off_c, 0, 55, 111
1, 475069, Note_on_c, 0, 59, 108
1, 475348, Note_off_c, 0, 59, 108
1, 475382, Note_on_c, 0, 51, 114
1, 475669, Note_off_c, 0, 51, 114
1, 476734, Note_on_c, 0, 59, 117
1, 476998, Note_off_c, 0, 59, 117
1, 477013, Note_on_c, 0, 54, 108
1, 477307, Note_off_c, 0, 54, 108
1, 477314, Note_on_c, 0, 59, 113
1, 477657, Note_off_c, 0, 59, 113
1, 477664, Note_on_c, 0, 56, 112
1, 478461, Note_off_c, 0, 56, 112
1, 478479, Note_on_c, 0, 53, 108
1, 478822, Note_off_c, 0, 53, 108
1, 478829, Note_on_c, 0, 50, 111
1, 479029, Note_off_c, 0, 50, 111
1, 479036, Note_on_c, 0, 51, 114
1, 479224, Note_off_c, 0, 51, 114
1, 479227, Note_on_c, 0, 53, 114
1, 479457, Note_off_c, 0, 53, 114
1, 479475, Note_on_c, 0, 52, 116
1, 479784, Note_off_c, 0, 52, 116
1, 481072, Note_on_c, 0, 51, 116
1, 481253, Note_off_c, 0, 51, 116
1, 481271, Note_on_c, 0, 53, 114
1, 481493, Note_off_c, 0, 53, 114
1, 481496, Note_on_c, 0, 48, 114
1, 481745, Note_off_c, 0, 48, 114
1, 481760, Note_on_c, 0, 51, 121
1, 482062, Note_off_c, 0, 51, 121
1, 482084, Note_on_c, 0, 53, 127
1, 482288, Note_off_c, 0, 53, 127
1, 482299, Note_on_c, 0, 51, 125
1, 482518, Note_off_c, 0, 51, 125
1, 482525, Note_on_c, 0, 53, 110
1, 482895, Note_off_c, 0, 53, 110
1, 482940, Note_on_c, 0, 56, 103
1, 483212, Note_off_c, 0, 56, 103
1, 483261, Note_on_c, 0, 59, 105
1, 483499, Note_off_c, 0, 59, 105
1, 483499, Note_on_c, 0, 63, 118
1, 483789, Note_off_c, 0, 63, 118
1, 483807, Note_on_c, 0, 61, 110
1, 483965, Note_off_c, 0, 61, 110
1, 483991, Note_on_c, 0, 58, 106
1, 484198, Note_off_c, 0, 58, 106
1, 484247, Note_on_c, 0, 54, 100
1, 484526, Note_off_c, 0, 54, 100
1, 484590, Note_on_c, 0, 56, 105
1, 484903, Note_off_c, 0, 56, 105
1, 484982, Note_on_c, 0, 58, 113
1, 485186, Note_off_c, 0, 58, 113
1, 485212, Note_on_c, 0, 61, 111
1, 485378, Note_off_c, 0, 61, 111
1, 485385, Note_on_c, 0, 63, 122
1, 485713, Note_off_c, 0, 63, 122
1, 485720, Note_on_c, 0, 65, 110
1, 486842, Note_off_c, 0, 65, 110
1, 486849, Note_on_c, 0, 61, 111
1, 487083, Note_off_c, 0, 61, 111
1, 487098, Note_on_c, 0, 63, 114
1, 487377, Note_off_c, 0, 63, 114
1, 487388, Note_on_c, 0, 65, 108
1, 487595, Note_off_c, 0, 65, 108
1, 487598, Note_on_c, 0, 66, 113
1, 487873, Note_off_c, 0, 66, 113
1, 487910, Note_on_c, 0, 61, 107
1, 488178, Note_off_c, 0, 61, 107
1, 489179, Note_on_c, 0, 66, 115
1, 489503, Note_off_c, 0, 66, 115
1, 489533, Note_on_c, 0, 63, 117
1, 489835, Note_off_c, 0, 63, 117
1, 490061, Note_on_c, 0, 66, 115
1, 490340, Note_off_c, 0, 66, 115
1, 490355, Note_on_c, 0, 67, 123
1, 490714, Note_off_c, 0, 67, 123
1, 490725, Note_on_c, 0, 64, 114
1, 491049, Note_off_c, 0, 64, 114
1, 491279, Note_on_c, 0, 67, 121
1, 491588, Note_off_c, 0, 67, 121
1, 491618, Note_on_c, 0, 69, 118
1, 492986, Note_off_c, 0, 69, 118
1, 493008, Note_on_c, 0, 66, 112
1, 493230, Note_off_c, 0, 66, 112
1, 493256, Note_on_c, 0, 62, 116
1, 493546, Note_off_c, 0, 62, 116
1, 493549, Note_on_c, 0, 66, 109
1, 493771, Note_on_c, 0, 69, 114
1, 493771, Note_off_c, 0, 66, 109
1, 494084, Note_off_c, 0, 69, 114
1, 494099, Note_on_c, 0, 70, 112
1, 494495, Note_off_c, 0, 70, 112
1, 496157, Note_on_c, 0, 70, 113
1, 496463, Note_off_c, 0, 70, 113
1, 496474, Note_on_c, 0, 72, 116
1, 496749, Note_off_c, 0, 72, 116
1, 496764, Note_on_c, 0, 69, 107
1, 497153, Note_off_c, 0, 69, 107
1, 497179, Note_on_c, 0, 70, 117
1, 497507, Note_off_c, 0, 70, 117
1, 497541, Note_on_c, 0, 72, 117
1, 497707, Note_off_c, 0, 72, 117
1, 497733, Note_on_c, 0, 68, 114
1, 498008, Note_off_c, 0, 68, 114
1, 498023, Note_on_c, 0, 70, 117
1, 498450, Note_off_c, 0, 70, 117
1, 498733, Note_on_c, 0, 66, 111
1, 499095, Note_off_c, 0, 66, 111
1, 499121, Note_on_c, 0, 67, 110
1, 499423, Note_off_c, 0, 67, 110
1, 499453, Note_on_c, 0, 66, 124
1, 499687, Note_off_c, 0, 66, 124
1, 499747, Note_on_c, 0, 70, 110
1, 500045, Note_off_c, 0, 70, 110
1, 500063, Note_on_c, 0, 71, 116
1, 500463, Note_off_c, 0, 71, 116
1, 500587, Note_on_c, 0, 67, 119
1, 500919, Note_off_c, 0, 67, 119
1, 500964, Note_on_c, 0, 64, 119
1, 501285, Note_off_c, 0, 64, 119
1, 501322, Note_on_c, 0, 67, 115
1, 501628, Note_off_c, 0, 67, 115
1, 501635, Note_on_c, 0, 71, 115
1, 501907, Note_off_c, 0, 71, 115
1, 501907, Note_on_c, 0, 73, 116
1, 502194, Note_off_c, 0, 73, 116
1, 502341, Note_on_c, 0, 69, 116
1, 502696, Note_off_c, 0, 69, 116
1, 502722, Note_on_c, 0, 66, 106
1, 503160, Note_off_c, 0, 66, 106
1, 503454, Note_on_c, 0, 69, 116
1, 503778, Note_off_c, 0, 69, 116
1, 503830, Note_on_c, 0, 73, 114
1, 504196, Note_off_c, 0, 73, 114
1, 504392, Note_on_c, 0, 74, 116
1, 504732, Note_off_c, 0, 74, 116
1, 504958, Note_on_c, 0, 69, 119
1, 505248, Note_off_c, 0, 69, 119
1, 505289, Note_on_c, 0, 67, 120
1, 505496, Note_off_c, 0, 67, 120
1, 505545, Note_on_c, 0, 63, 122
1, 505801, Note_off_c, 0, 63, 122
1, 505812, Note_on_c, 0, 67, 117
1, 506065, Note_off_c, 0, 67, 117
1, 506072, Note_on_c, 0, 69, 115
1, 506264, Note_off_c, 0, 69, 115
1, 506282, Note_on_c, 0, 72, 117
1, 506538, Note_off_c, 0, 72, 117
1, 506549, Note_on_c, 0, 74, 114
1, 506783, Note_off_c, 0, 74, 114
1, 506983, Note_on_c, 0, 69, 117
1, 507323, Note_off_c, 0, 69, 117
1, 507330, Note_on_c, 0, 67, 111
1, 507552, Note_off_c, 0, 67, 111
1, 507582, Note_on_c, 0, 65, 108
1, 507801, Note_off_c, 0, 65, 108
1, 507831, Note_on_c, 0, 62, 114
1, 508103, Note_off_c, 0, 62, 114
1, 509085, Note_on_c, 0, 69, 118
1, 509387, Note_off_c, 0, 69, 118
1, 509398, Note_on_c, 0, 72, 115
1, 509681, Note_off_c, 0, 72, 115
1, 509903, Note_on_c, 0, 74, 111
1, 510416, Note_off_c, 0, 74, 111
1, 510416, Note_on_c, 0, 75, 107
1, 510635, Note_off_c, 0, 75, 107
1, 510774, Note_on_c, 0, 71, 118
1, 511095, Note_off_c, 0, 71, 118
1, 511117, Note_on_c, 0, 68, 116
1, 511400, Note_off_c, 0, 68, 116
1, 511407, Note_on_c, 0, 65, 108
1, 511841, Note_off_c, 0, 65, 108
1, 512086, Note_on_c, 0, 68, 116
1, 512399, Note_off_c, 0, 68, 116
1, 512436, Note_on_c, 0, 71, 114
1, 512745, Note_off_c, 0, 71, 114
1, 512911, Note_on_c, 0, 73, 119
1, 513243, Note_off_c, 0, 73, 119
1, 513265, Note_on_c, 0, 75, 104
1, 513567, Note_off_c, 0, 75, 104
1, 513891, Note_on_c, 0, 80, 81
1, 514166, Note_off_c, 0, 80, 81
1, 514623, Note_on_c, 0, 73, 113
1, 514959, Note_off_c, 0, 73, 113
1, 514966, Note_on_c, 0, 70, 112
1, 515510, Note_off_c, 0, 70, 112
1, 516519, Note_on_c, 0, 70, 111
1, 516817, Note_off_c, 0, 70, 111
1, 516820, Note_on_c, 0, 73, 113
1, 517186, Note_off_c, 0, 73, 113
1, 517367, Note_on_c, 0, 76, 114
1, 517831, Note_off_c, 0, 76, 114
1, 518019, Note_on_c, 0, 73, 113
1, 518347, Note_off_c, 0, 73, 113
1, 518354, Note_on_c, 0, 69, 108
1, 518852, Note_off_c, 0, 69, 108
1, 519003, Note_on_c, 0, 71, 113
1, 519278, Note_off_c, 0, 71, 113
1, 519281, Note_on_c, 0, 73, 111
1, 519692, Note_off_c, 0, 73, 111
1, 519956, Note_on_c, 0, 73, 117
1, 520345, Note_off_c, 0, 73, 117
1, 520405, Note_on_c, 0, 69, 110
1, 520760, Note_off_c, 0, 69, 110
1, 520771, Note_on_c, 0, 66, 111
1, 521137, Note_off_c, 0, 66, 111
1, 521231, Note_on_c, 0, 69, 106
1, 521699, Note_off_c, 0, 69, 106
1, 521733, Note_on_c, 0, 72, 110
1, 522065, Note_off_c, 0, 72, 110
1, 522231, Note_on_c, 0, 74, 104
1, 522533, Note_off_c, 0, 74, 104
1, 522559, Note_on_c, 0, 69, 113
1, 522868, Note_off_c, 0, 69, 113
1, 522886, Note_on_c, 0, 67, 111
1, 523150, Note_off_c, 0, 67, 111
1, 523176, Note_on_c, 0, 63, 121
1, 523463, Note_off_c, 0, 63, 121
1, 523466, Note_on_c, 0, 67, 111
1, 523707, Note_off_c, 0, 67, 111
1, 523718, Note_on_c, 0, 69, 105
1, 523974, Note_off_c, 0, 69, 105
1, 523989, Note_on_c, 0, 72, 109
1, 524238, Note_off_c, 0, 72, 109
1, 524241, Note_on_c, 0, 69, 107
1, 524377, Note_off_c, 0, 69, 107
1, 524505, Note_on_c, 0, 67, 109
1, 524833, Note_off_c, 0, 67, 109
1, 524844, Note_on_c, 0, 65, 110
1, 525078, Note_off_c, 0, 65, 110
1, 525104, Note_on_c, 0, 62, 111
1, 525440, Note_off_c, 0, 62, 111
1, 526501, Note_on_c, 0, 72, 116
1, 526822, Note_off_c, 0, 72, 116
1, 526825, Note_on_c, 0, 69, 111
1, 527112, Note_off_c, 0, 69, 111
1, 527414, Note_on_c, 0, 71, 113
1, 527909, Note_off_c, 0, 71, 113
1, 527912, Note_on_c, 0, 68, 118
1, 528218, Note_off_c, 0, 68, 118
1, 528236, Note_on_c, 0, 66, 122
1, 528451, Note_off_c, 0, 66, 122
1, 528466, Note_on_c, 0, 63, 124
1, 528734, Note_off_c, 0, 63, 124
1, 528756, Note_on_c, 0, 61, 112
1, 528990, Note_off_c, 0, 61, 112
1, 528990, Note_on_c, 0, 63, 118
1, 529250, Note_off_c, 0, 63, 118
1, 529257, Note_on_c, 0, 65, 109
1, 529400, Note_off_c, 0, 65, 109
1, 529411, Note_on_c, 0, 68, 111
1, 529569, Note_off_c, 0, 68, 111
1, 529572, Note_on_c, 0, 71, 110
1, 529798, Note_off_c, 0, 71, 110
1, 529805, Note_on_c, 0, 70, 112
1, 530145, Note_off_c, 0, 70, 112
1, 530205, Note_on_c, 0, 68, 107
1, 530469, Note_off_c, 0, 68, 107
1, 530699, Note_on_c, 0, 70, 114
1, 531129, Note_off_c, 0, 70, 114
1, 531253, Note_on_c, 0, 65, 113
1, 531502, Note_off_c, 0, 65, 113
1, 531528, Note_on_c, 0, 63, 122
1, 531928, Note_off_c, 0, 63, 122
1, 532890, Note_on_c, 0, 70, 117
1, 533163, Note_off_c, 0, 70, 117
1, 533181, Note_on_c, 0, 69, 116
1, 533566, Note_off_c, 0, 69, 116
1, 533746, Note_on_c, 0, 69, 115
1, 534120, Note_off_c, 0, 69, 115
1, 534127, Note_on_c, 0, 67, 112
1, 534488, Note_off_c, 0, 67, 112
1, 534509, Note_on_c, 0, 64, 118
1, 534788, Note_off_c, 0, 64, 118
1, 534795, Note_on_c, 0, 67, 115
1, 535047, Note_off_c, 0, 67, 115
1, 535068, Note_on_c, 0, 63, 117
1, 535572, Note_off_c, 0, 63, 117
1, 535590, Note_on_c, 0, 67, 109
1, 536004, Note_off_c, 0, 67, 109
1, 536086, Note_on_c, 0, 69, 112
1, 536394, Note_off_c, 0, 69, 112
1, 536431, Note_on_c, 0, 71, 113
1, 536643, Note_off_c, 0, 71, 113
1, 536648, Note_on_c, 0, 69, 107
1, 537678, Note_off_c, 0, 69, 107
1, 537760, Note_on_c, 0, 66, 122
1, 538009, Note_off_c, 0, 66, 122
1, 538016, Note_on_c, 0, 62, 113
1, 538255, Note_off_c, 0, 62, 113
1, 538281, Note_on_c, 0, 59, 111
1, 538530, Note_off_c, 0, 59, 111
1, 539380, Note_on_c, 0, 69, 114
1, 539624, Note_off_c, 0, 69, 114
1, 539645, Note_on_c, 0, 67, 115
1, 539868, Note_off_c, 0, 67, 115
1, 539889, Note_on_c, 0, 63, 121
1, 540234, Note_off_c, 0, 63, 121
1, 540255, Note_on_c, 0, 69, 116
1, 540510, Note_off_c, 0, 69, 116
1, 540547, Note_on_c, 0, 67, 119
1, 540775, Note_off_c, 0, 67, 119
1, 540854, Note_on_c, 0, 63, 119
1, 541183, Note_off_c, 0, 63, 119
1, 541236, Note_on_c, 0, 67, 113
1, 541618, Note_off_c, 0, 67, 113
1, 541756, Note_on_c, 0, 65, 110
1, 542143, Note_off_c, 0, 65, 110
1, 542169, Note_on_c, 0, 62, 108
1, 542583, Note_off_c, 0, 62, 108
1, 543364, Note_on_c, 0, 66, 111
1, 543640, Note_off_c, 0, 66, 111
1, 543655, Note_on_c, 0, 63, 119
1, 544053, Note_off_c, 0, 63, 119
1, 544135, Note_on_c, 0, 66, 110
1, 544517, Note_off_c, 0, 66, 110
1, 544530, Note_on_c, 0, 65, 106
1, 544694, Note_off_c, 0, 65, 106
1, 544789, Note_on_c, 0, 63, 119
1, 545078, Note_off_c, 0, 63, 119
1, 545099, Note_on_c, 0, 68, 113
1, 545343, Note_off_c, 0, 68, 113
1, 545350, Note_on_c, 0, 65, 114
1, 545575, Note_off_c, 0, 65, 114
1, 545580, Note_on_c, 0, 61, 105
1, 545832, Note_off_c, 0, 61, 105
1, 545853, Note_on_c, 0, 59, 105
1, 546147, Note_off_c, 0, 59, 105
1, 546149, Note_on_c, 0, 63, 114
1, 546494, Note_off_c, 0, 63, 114
1, 546499, Note_on_c, 0, 58, 104
1, 547179, Note_off_c, 0, 58, 104
1, 548002, Note_on_c, 0, 59, 109
1, 548294, Note_off_c, 0, 59, 109
1, 548331, Note_on_c, 0, 64, 114
1, 548729, Note_off_c, 0, 64, 114
1, 548803, Note_on_c, 0, 59, 109
1, 549249, Note_off_c, 0, 59, 109
1, 549610, Note_on_c, 0, 55, 108
1, 549875, Note_off_c, 0, 55, 108
1, 549896, Note_on_c, 0, 61, 114
1, 550177, Note_off_c, 0, 61, 114
1, 550198, Note_on_c, 0, 59, 112
1, 550447, Note_off_c, 0, 59, 112
1, 550462, Note_on_c, 0, 57, 106
1, 550690, Note_off_c, 0, 57, 106
1, 550711, Note_on_c, 0, 54, 108
1, 550992, Note_off_c, 0, 54, 108
1, 550992, Note_on_c, 0, 59, 111
1, 551193, Note_off_c, 0, 59, 111
1, 551214, Note_on_c, 0, 57, 109
1, 551586, Note_off_c, 0, 57, 109
1, 552457, Note_on_c, 0, 57, 114
1, 552754, Note_off_c, 0, 57, 114
1, 552754, Note_on_c, 0, 55, 114
1, 552934, Note_off_c, 0, 55, 114
1, 552944, Note_on_c, 0, 51, 113
1, 553188, Note_off_c, 0, 51, 113
1, 553241, Note_on_c, 0, 55, 115
1, 553474, Note_off_c, 0, 55, 115
1, 553505, Note_on_c, 0, 51, 115
1, 553802, Note_off_c, 0, 51, 115
1, 553802, Note_on_c, 0, 53, 107
1, 554009, Note_off_c, 0, 53, 107
1, 554976, Note_on_c, 0, 57, 116
1, 555231, Note_off_c, 0, 57, 116
1, 555284, Note_on_c, 0, 58, 113
1, 555523, Note_off_c, 0, 58, 113
1, 555528, Note_on_c, 0, 60, 115
1, 555719, Note_off_c, 0, 60, 115
1, 555766, Note_on_c, 0, 62, 118
1, 556026, Note_off_c, 0, 62, 118
1, 556073, Note_on_c, 0, 67, 118
1, 556296, Note_off_c, 0, 67, 118
1, 556322, Note_on_c, 0, 62, 116
1, 556763, Note_off_c, 0, 62, 116
1, 556975, Note_on_c, 0, 58, 114
1, 557256, Note_off_c, 0, 58, 114
1, 557303, Note_on_c, 0, 63, 121
1, 557589, Note_off_c, 0, 63, 121
1, 557604, Note_on_c, 0, 61, 116
1, 557800, Note_off_c, 0, 61, 116
1, 557842, Note_on_c, 0, 59, 115
1, 558086, Note_off_c, 0, 59, 115
1, 558107, Note_on_c, 0, 56, 117
1, 558319, Note_off_c, 0, 56, 117
1, 558319, Note_on_c, 0, 53, 117
1, 558568, Note_off_c, 0, 53, 117
1, 558573, Note_on_c, 0, 56, 116
1, 558817, Note_off_c, 0, 56, 116
1, 558817, Note_on_c, 0, 59, 109
1, 559103, Note_off_c, 0, 59, 109
1, 559108, Note_on_c, 0, 63, 121
1, 559341, Note_off_c, 0, 63, 121
1, 559383, Note_on_c, 0, 58, 107
1, 559733, Note_off_c, 0, 58, 107
1, 560806, Note_on_c, 0, 58, 113
1, 561108, Note_off_c, 0, 58, 113
1, 561108, Note_on_c, 0, 61, 114
1, 561373, Note_off_c, 0, 61, 114
1, 561399, Note_on_c, 0, 64, 117
1, 561574, Note_off_c, 0, 64, 117
1, 561616, Note_on_c, 0, 59, 113
1, 561871, Note_off_c, 0, 59, 113
1, 561881, Note_on_c, 0, 58, 112
1, 562056, Note_off_c, 0, 58, 112
1, 562056, Note_on_c, 0, 57, 113
1, 562236, Note_off_c, 0, 57, 113
1, 562236, Note_on_c, 0, 56, 120
1, 562459, Note_off_c, 0, 56, 120
1, 562474, Note_on_c, 0, 55, 117
1, 562766, Note_off_c, 0, 55, 117
1, 562776, Note_on_c, 0, 57, 116
1, 562999, Note_off_c, 0, 57, 116
1, 563020, Note_on_c, 0, 58, 105
1, 563296, Note_off_c, 0, 58, 105
1, 563338, Note_on_c, 0, 62, 108
1, 563566, Note_off_c, 0, 62, 108
1, 563566, Note_on_c, 0, 63, 117
1, 563783, Note_off_c, 0, 63, 117
1, 563804, Note_on_c, 0, 65, 115
1, 564000, Note_off_c, 0, 65, 115
1, 564026, Note_on_c, 0, 67, 118
1, 564254, Note_off_c, 0, 67, 118
1, 564264, Note_on_c, 0, 72, 124
1, 564561, Note_off_c, 0, 72, 124
1, 564566, Note_on_c, 0, 70, 123
1, 564938, Note_off_c, 0, 70, 123
1, 565942, Note_on_c, 0, 69, 125
1, 566356, Note_off_c, 0, 69, 125
1, 566387, Note_on_c, 0, 67, 118
1, 566673, Note_off_c, 0, 67, 118
1, 566758, Note_on_c, 0, 64, 114
1, 567029, Note_off_c, 0, 64, 114
1, 567044, Note_on_c, 0, 67, 124
1, 567362, Note_off_c, 0, 67, 124
1, 567367, Note_on_c, 0, 65, 115
1, 567579, Note_off_c, 0, 65, 115
1, 567632, Note_on_c, 0, 61, 114
1, 567865, Note_off_c, 0, 61, 114
1, 567870, Note_on_c, 0, 66, 118
1, 568119, Note_off_c, 0, 66, 118
1, 568124, Note_on_c, 0, 62, 119
1, 568458, Note_off_c, 0, 62, 119
1, 568489, Note_on_c, 0, 59, 114
1, 568712, Note_off_c, 0, 59, 114
1, 568712, Note_on_c, 0, 57, 113
1, 568961, Note_off_c, 0, 57, 113
1, 569024, Note_on_c, 0, 57, 108
1, 570086, Note_off_c, 0, 57, 108
1, 570123, Note_on_c, 0, 53, 111
1, 570308, Note_off_c, 0, 53, 111
1, 570355, Note_on_c, 0, 50, 111
1, 570620, Note_off_c, 0, 50, 111
1, 570630, Note_on_c, 0, 53, 107
1, 570784, Note_off_c, 0, 53, 107
1, 570805, Note_on_c, 0, 57, 115
1, 571060, Note_off_c, 0, 57, 115
1, 571118, Note_on_c, 0, 59, 112
1, 571367, Note_off_c, 0, 59, 112
1, 571372, Note_on_c, 0, 61, 116
1, 571510, Note_off_c, 0, 61, 116
1, 571515, Note_on_c, 0, 63, 116
1, 571669, Note_off_c, 0, 63, 116
1, 571674, Note_on_c, 0, 66, 111
1, 571833, Note_off_c, 0, 66, 111
1, 571840, Note_on_c, 0, 69, 118
1, 572068, Note_off_c, 0, 69, 118
1, 572094, Note_on_c, 0, 71, 112
1, 572232, Note_off_c, 0, 71, 112
1, 572255, Note_on_c, 0, 74, 124
1, 572595, Note_off_c, 0, 74, 124
1, 572610, Note_on_c, 0, 69, 116
1, 572865, Note_off_c, 0, 69, 116
1, 573744, Note_on_c, 0, 74, 117
1, 574044, Note_off_c, 0, 74, 117
1, 574059, Note_on_c, 0, 69, 119
1, 574338, Note_off_c, 0, 69, 119
1, 574516, Note_on_c, 0, 74, 114
1, 574768, Note_off_c, 0, 74, 114
1, 574794, Note_on_c, 0, 69, 116
1, 575033, Note_off_c, 0, 69, 116
1, 575205, Note_on_c, 0, 74, 109
1, 575460, Note_off_c, 0, 74, 109
1, 575486, Note_on_c, 0, 69, 113
1, 575735, Note_off_c, 0, 69, 113
1, 576053, Note_on_c, 0, 78, 123
1, 576156, Note_off_c, 0, 78, 123
1, 576156, Note_on_c, 0, 79, 120
1, 576923, Note_off_c, 0, 79, 120
1, 577138, Note_on_c, 0, 83, 104
1, 577294, Note_off_c, 0, 83, 104
1, 577312, Note_on_c, 0, 69, 114
1, 577598, Note_off_c, 0, 69, 114
1, 577728, Note_on_c, 0, 74, 109
1, 577948, Note_off_c, 0, 74, 109
1, 577977, Note_on_c, 0, 69, 113
1, 578208, Note_off_c, 0, 69, 113
1, 578330, Note_on_c, 0, 74, 121
1, 578579, Note_off_c, 0, 74, 121
1, 578592, Note_on_c, 0, 70, 109
1, 578855, Note_off_c, 0, 70, 109
1, 579102, Note_on_c, 0, 79, 119
1, 579519, Note_off_c, 0, 79, 119
1, 579532, Note_on_c, 0, 74, 119
1, 579850, Note_off_c, 0, 74, 119
1, 580838, Note_on_c, 0, 69, 122
1, 581135, Note_off_c, 0, 69, 122
1, 581243, Note_on_c, 0, 74, 106
1, 581421, Note_off_c, 0, 74, 106
1, 581498, Note_on_c, 0, 69, 113
1, 581753, Note_off_c, 0, 69, 113
1, 581909, Note_on_c, 0, 78, 91
1, 581967, Note_off_c, 0, 78, 91
1, 581972, Note_on_c, 0, 79, 112
1, 582216, Note_off_c, 0, 79, 112
1, 582216, Note_on_c, 0, 83, 113
1, 582343, Note_off_c, 0, 83, 113
1, 582607, Note_on_c, 0, 79, 119
1, 583010, Note_off_c, 0, 79, 119
1, 583067, Note_on_c, 0, 81, 114
1, 583197, Note_off_c, 0, 81, 114
1, 583212, Note_on_c, 0, 83, 105
1, 583352, Note_off_c, 0, 83, 105
1, 583367, Note_on_c, 0, 73, 104
1, 583529, Note_off_c, 0, 73, 104
1, 583693, Note_on_c, 0, 70, 105
1, 583993, Note_off_c, 0, 70, 105
1, 584173, Note_on_c, 0, 74, 115
1, 584345, Note_off_c, 0, 74, 115
1, 584350, Note_on_c, 0, 73, 117
1, 584429, Note_off_c, 0, 73, 117
1, 584444, Note_on_c, 0, 79, 116
1, 584970, Note_off_c, 0, 79, 116
1, 585116, Note_on_c, 0, 78, 110
1, 585216, Note_off_c, 0, 78, 110
1, 585223, Note_on_c, 0, 79, 113
1, 585536, Note_off_c, 0, 79, 113
1, 585543, Note_on_c, 0, 80, 106
1, 585641, Note_off_c, 0, 80, 106
1, 585646, Note_on_c, 0, 81, 113
1, 585879, Note_off_c, 0, 81, 113
1, 585884, Note_on_c, 0, 82, 109
1, 586064, Note_off_c, 0, 82, 109
1, 587132, Note_on_c, 0, 45, 119
1, 587583, Note_off_c, 0, 45, 119
1, 587590, Note_on_c, 0, 52, 115
1, 587919, Note_off_c, 0, 52, 115
1, 587932, Note_on_c, 0, 49, 119
1, 588080, Note_off_c, 0, 49, 119
1, 588082, Note_on_c, 0, 50, 116
1, 588214, Note_off_c, 0, 50, 116
1, 588219, Note_on_c, 0, 51, 114
1, 588883, Note_off_c, 0, 51, 114
1, 589518, Note_on_c, 0, 69, 116
1, 589791, Note_off_c, 0, 69, 116
1, 589979, Note_on_c, 0, 74, 110
1, 590172, Note_off_c, 0, 74, 110
1, 590190, Note_on_c, 0, 79, 115
1, 590761, Note_off_c, 0, 79, 115
1, 590861, Note_on_c, 0, 79, 106
1, 591291, Note_off_c, 0, 79, 106
1, 591298, Note_on_c, 0, 80, 94
1, 591345, Note_off_c, 0, 80, 94
1, 591360, Note_on_c, 0, 81, 107
1, 591726, Note_off_c, 0, 81, 107
1, 591904, Note_on_c, 0, 45, 120
1, 592422, Note_off_c, 0, 45, 120
1, 592467, Note_on_c, 0, 52, 121
1, 592767, Note_off_c, 0, 52, 121
1, 592782, Note_on_c, 0, 51, 115
1, 593188, Note_off_c, 0, 51, 115
1, 594027, Note_on_c, 0, 69, 116
1, 594300, Note_off_c, 0, 69, 116
1, 594310, Note_on_c, 0, 74, 115
1, 594464, Note_off_c, 0, 74, 115
1, 594777, Note_on_c, 0, 79, 110
1, 595188, Note_off_c, 0, 79, 110
1, 595225, Note_on_c, 0, 81, 112
1, 595541, Note_off_c, 0, 81, 112
1, 595761, Note_on_c, 0, 45, 122
1, 596079, Note_off_c, 0, 45, 122
1, 596299, Note_on_c, 0, 52, 111
1, 596500, Note_off_c, 0, 52, 111
1, 596500, Note_on_c, 0, 51, 115
1, 596840, Note_off_c, 0, 51, 115
1, 596863, Note_on_c, 0, 55, 120
1, 597258, Note_off_c, 0, 55, 120
1, 597265, Note_on_c, 0, 49, 118
1, 597642, Note_off_c, 0, 49, 118
1, 597649, Note_on_c, 0, 51, 117
1, 597874, Note_off_c, 0, 51, 117
1, 598625, Note_on_c, 0, 69, 119
1, 598882, Note_off_c, 0, 69, 119
1, 598889, Note_on_c, 0, 74, 112
1, 599040, Note_off_c, 0, 74, 112
1, 599257, Note_on_c, 0, 79, 122
1, 599692, Note_off_c, 0, 79, 122
1, 599699, Note_on_c, 0, 81, 111
1, 599959, Note_off_c, 0, 81, 111
1, 600191, Note_on_c, 0, 45, 124
1, 600546, Note_off_c, 0, 45, 124
1, 600561, Note_on_c, 0, 52, 124
1, 600885, Note_off_c, 0, 52, 124
1, 600885, Note_on_c, 0, 51, 123
1, 601058, Note_off_c, 0, 51, 123
1, 601194, Note_on_c, 0, 54, 117
1, 601534, Note_off_c, 0, 54, 117
1, 601549, Note_on_c, 0, 58, 112
1, 601828, Note_off_c, 0, 58, 112
1, 601846, Note_on_c, 0, 62, 107
1, 602012, Note_off_c, 0, 62, 107
1, 602057, Note_on_c, 0, 63, 112
1, 602219, Note_off_c, 0, 63, 112
1, 602226, Note_on_c, 0, 68, 105
1, 602350, Note_off_c, 0, 68, 105
1, 602365, Note_on_c, 0, 69, 101
1, 602493, Note_off_c, 0, 69, 101
1, 602519, Note_on_c, 0, 73, 105
1, 602655, Note_off_c, 0, 73, 105
1, 602706, Note_on_c, 0, 79, 117
1, 603537, Note_off_c, 0, 79, 117
1, 604257, Note_on_c, 0, 69, 110
1, 604514, Note_off_c, 0, 69, 110
1, 604532, Note_on_c, 0, 74, 115
1, 604763, Note_off_c, 0, 74, 115
1, 604927, Note_on_c, 0, 79, 113
1, 605288, Note_off_c, 0, 79, 113
1, 605303, Note_on_c, 0, 81, 106
1, 605422, Note_off_c, 0, 81, 106
1, 605432, Note_on_c, 0, 82, 97
1, 605559, Note_off_c, 0, 82, 97
1, 605913, Note_on_c, 0, 45, 119
1, 606366, Note_off_c, 0, 45, 119
1, 606381, Note_on_c, 0, 52, 115
1, 606664, Note_off_c, 0, 52, 115
1, 606667, Note_on_c, 0, 51, 124
1, 606821, Note_off_c, 0, 51, 124
1, 606882, Note_on_c, 0, 70, 111
1, 607052, Note_off_c, 0, 70, 111
1, 607057, Note_on_c, 0, 71, 109
1, 607227, Note_off_c, 0, 71, 109
1, 607242, Note_on_c, 0, 72, 110
1, 607414, Note_off_c, 0, 72, 110
1, 607432, Note_on_c, 0, 73, 101
1, 607572, Note_off_c, 0, 73, 101
1, 607690, Note_on_c, 0, 74, 114
1, 608037, Note_off_c, 0, 74, 114
1, 608037, Note_on_c, 0, 79, 102
1, 608207, Note_off_c, 0, 79, 102
1, 608210, Note_on_c, 0, 80, 111
1, 608629, Note_off_c, 0, 80, 111
1, 608813, Note_on_c, 0, 80, 93
1, 609158, Note_off_c, 0, 80, 93
1, 609167, Note_on_c, 0, 73, 93
1, 610166, Note_off_c, 0, 73, 93
1, 611135, Note_on_c, 0, 79, 103
1, 611299, Note_off_c, 0, 79, 103
1, 611309, Note_on_c, 0, 81, 104
1, 611670, Note_off_c, 0, 81, 104
1, 611685, Note_on_c, 0, 73, 104
1, 612258, Note_off_c, 0, 73, 104
1, 612470, Note_on_c, 0, 81, 97
1, 614712, Note_off_c, 0, 81, 97
1, 614765, Note_on_c, 0, 79, 106
1, 616816, Note_off_c, 0, 79, 106
1, 617156, Note_on_c, 0, 76, 101
1, 617889, Note_off_c, 0, 76, 101
1, 618239, Note_on_c, 0, 71, 117
1, 622894, Note_off_c, 0, 71, 117
1, 622965, Note_on_c, 0, 69, 108
1, 623267, Note_off_c, 0, 69, 108
1, 623290, Note_on_c, 0, 65, 20
1, 623608, Note_off_c, 0, 65, 20
1, 623642, Note_on_c, 0, 71, 107
1, 623798, Note_off_c, 0, 71, 107
1, 623808, Note_on_c, 0, 69, 111
1, 624028, Note_off_c, 0, 69, 111
1, 624043, Note_on_c, 0, 65, 106
1, 624292, Note_off_c, 0, 65, 106
1, 624292, Note_on_c, 0, 71, 106
1, 624440, Note_off_c, 0, 71, 106
1, 624469, Note_on_c, 0, 69, 109
1, 624670, Note_off_c, 0, 69, 109
1, 624688, Note_on_c, 0, 65, 108
1, 624903, Note_off_c, 0, 65, 108
1, 624953, Note_on_c, 0, 71, 108
1, 625075, Note_off_c, 0, 71, 108
1, 625082, Note_on_c, 0, 69, 113
1, 625299, Note_off_c, 0, 69, 113
1, 625333, Note_on_c, 0, 65, 105
1, 625574, Note_off_c, 0, 65, 105
1, 625574, Note_on_c, 0, 71, 106
1, 625690, Note_off_c, 0, 71, 106
1, 625700, Note_on_c, 0, 69, 113
1, 625941, Note_off_c, 0, 69, 113
1, 625959, Note_on_c, 0, 65, 109
1, 626354, Note_off_c, 0, 65, 109
1, 627467, Note_on_c, 0, 71, 111
1, 628210, Note_off_c, 0, 71, 111
1, 628257, Note_on_c, 0, 74, 109
1, 629691, Note_off_c, 0, 74, 109
1, 629712, Note_on_c, 0, 72, 106
1, 629887, Note_off_c, 0, 72, 106
1, 629892, Note_on_c, 0, 71, 113
1, 630008, Note_off_c, 0, 71, 113
1, 630018, Note_on_c, 0, 69, 117
1, 630145, Note_off_c, 0, 69, 117
1, 630166, Note_on_c, 0, 70, 119
1, 630474, Note_off_c, 0, 70, 119
1, 630511, Note_on_c, 0, 69, 114
1, 630787, Note_off_c, 0, 69, 114
1, 630802, Note_on_c, 0, 65, 110
1, 630950, Note_off_c, 0, 65, 110
1, 630965, Note_on_c, 0, 63, 111
1, 631087, Note_off_c, 0, 63, 111
1, 631129, Note_on_c, 0, 66, 114
1, 631336, Note_off_c, 0, 66, 114
1, 631351, Note_on_c, 0, 63, 117
1, 631568, Note_off_c, 0, 63, 117
1, 631583, Note_on_c, 0, 58, 111
1, 631710, Note_off_c, 0, 58, 111
1, 631720, Note_on_c, 0, 57, 113
1, 632049, Note_off_c, 0, 57, 113
1, 632080, Note_on_c, 0, 53, 119
1, 632250, Note_off_c, 0, 53, 119
1, 632271, Note_on_c, 0, 58, 117
1, 632441, Note_off_c, 0, 58, 117
1, 632451, Note_on_c, 0, 57, 117
1, 632642, Note_off_c, 0, 57, 117
1, 632647, Note_on_c, 0, 53, 112
1, 632806, Note_off_c, 0, 53, 112
1, 632880, Note_on_c, 0, 49, 115
1, 633060, Note_off_c, 0, 49, 115
1, 633060, Note_on_c, 0, 51, 118
1, 633208, Note_off_c, 0, 51, 118
1, 633239, Note_on_c, 0, 53, 112
1, 633488, Note_off_c, 0, 53, 112
1, 633530, Note_on_c, 0, 51, 116
1, 634401, Note_off_c, 0, 51, 116
1, 634416, Note_on_c, 0, 47, 114
1, 634676, Note_off_c, 0, 47, 114
1, 634681, Note_on_c, 0, 47, 123
1, 634808, Note_off_c, 0, 47, 123
1, 634930, Note_on_c, 0, 51, 115
1, 635211, Note_off_c, 0, 51, 115
1, 635242, Note_on_c, 0, 45, 109
1, 635938, Note_off_c, 0, 45, 109
1, 636905, Note_on_c, 0, 55, 107
1, 637059, Note_off_c, 0, 55, 107
1, 637082, Note_on_c, 0, 57, 108
1, 637331, Note_off_c, 0, 57, 108
1, 637352, Note_on_c, 0, 59, 109
1, 637577, Note_off_c, 0, 59, 109
1, 637606, Note_on_c, 0, 61, 110
1, 637733, Note_off_c, 0, 61, 110
1, 637735, Note_on_c, 0, 62, 108
1, 637920, Note_off_c, 0, 62, 108
1, 637941, Note_on_c, 0, 63, 112
1, 638100, Note_off_c, 0, 63, 112
1, 638123, Note_on_c, 0, 65, 111
1, 638356, Note_off_c, 0, 65, 111
1, 638371, Note_on_c, 0, 67, 113
1, 638583, Note_off_c, 0, 67, 113
1, 638585, Note_on_c, 0, 68, 114
1, 638654, Note_off_c, 0, 68, 114
1, 638659, Note_on_c, 0, 69, 109
1, 638852, Note_off_c, 0, 69, 109
1, 638859, Note_on_c, 0, 71, 106
1, 639021, Note_off_c, 0, 71, 106
1, 639024, Note_on_c, 0, 72, 105
1, 639288, Note_off_c, 0, 72, 105
1, 639306, Note_on_c, 0, 69, 106
1, 639634, Note_off_c, 0, 69, 106
1, 639943, Note_on_c, 0, 74, 103
1, 640317, Note_off_c, 0, 74, 103
1, 640358, Note_on_c, 0, 69, 109
1, 640754, Note_off_c, 0, 69, 109
1, 641124, Note_on_c, 0, 69, 110
1, 641653, Note_off_c, 0, 69, 110
1, 641953, Note_on_c, 0, 69, 103
1, 642542, Note_off_c, 0, 69, 103
1, 642796, Note_on_c, 0, 69, 106
1, 645214, Note_off_c, 0, 69, 106
1, 646438, Note_on_c, 0, 67, 111
1, 646831, Note_on_c, 0, 64, 113
1, 646831, Note_off_c, 0, 67, 111
1, 647114, Note_off_c, 0, 64, 113
1, 647132, Note_on_c, 0, 69, 109
1, 647521, Note_off_c, 0, 69, 109
1, 647532, Note_on_c, 0, 67, 104
1, 647849, Note_off_c, 0, 67, 104
1, 647860, Note_on_c, 0, 69, 112
1, 648301, Note_off_c, 0, 69, 112
1, 648301, Note_on_c, 0, 67, 109
1, 648569, Note_off_c, 0, 67, 109
1, 648804, Note_on_c, 0, 68, 108
1, 648979, Note_off_c, 0, 68, 108
1, 648989, Note_on_c, 0, 69, 108
1, 649525, Note_off_c, 0, 69, 108
1, 649588, Note_on_c, 0, 68, 107
1, 649768, Note_off_c, 0, 68, 107
1, 649773, Note_on_c, 0, 69, 100
1, 652871, Note_off_c, 0, 69, 100
1, 652971, Note_on_c, 0, 68, 106
1, 653098, Note_off_c, 0, 68, 106
1, 653116, Note_on_c, 0, 69, 105
1, 653745, Note_off_c, 0, 69, 105
1, 653837, Note_on_c, 0, 69, 102
1, 654987, Note_off_c, 0, 69, 102
1, 655045, Note_on_c, 0, 64, 99
1, 658515, Note_off_c, 0, 64, 99
1, 659590, Note_on_c, 0, 69, 107
1, 659892, Note_off_c, 0, 69, 107
1, 659917, Note_on_c, 0, 71, 93
1, 664928, Note_off_c, 0, 71, 93
1, 664928, End_track
0, 0, End_of_file
