0, 0, Header, 1, 1, 192
1, 0, Start_track
1, 0, Title_t, "Melody"
1, 0, Tempo, 281690
1, 0, Key_signature, -3, "major"
1, 0, Time_signature, 4, 2, 24, 8
1, 1512, Note_on_c, 0, 78, 113
1, 1858, Note_off_c, 0, 78, 113
1, 1915, Note_on_c, 0, 82, 115
1, 1996, Note_off_c, 0, 82, 115
1, 2012, Note_on_c, 0, 79, 105
1, 2095, Note_off_c, 0, 79, 105
1, 2115, Note_on_c, 0, 82, 102
1, 2237, Note_off_c, 0, 82, 102
1, 2296, Note_on_c, 0, 82, 108
1, 2422, Note_off_c, 0, 82, 108
1, 2518, Note_on_c, 0, 82, 102
1, 2583, Note_off_c, 0, 82, 102
1, 2611, Note_on_c, 0, 82, 108
1, 2696, Note_off_c, 0, 82, 108
1, 2775, Note_on_c, 0, 82, 101
1, 2898, Note_off_c, 0, 82, 101
1, 3001, Note_on_c, 0, 82, 110
1, 3133, Note_off_c, 0, 82, 110
1, 3169, Note_on_c, 0, 79, 109
1, 3284, Note_off_c, 0, 79, 109
1, 3361, Note_on_c, 0, 75, 82
1, 3609, Note_off_c, 0, 75, 82
1, 3754, Note_on_c, 0, 78, 107
1, 3850, Note_off_c, 0, 78, 107
1, 3884, Note_on_c, 0, 79, 114
1, 3988, Note_off_c, 0, 79, 114
1, 4051, Note_on_c, 0, 75, 103
1, 4118, Note_off_c, 0, 75, 103
1, 4151, Note_on_c, 0, 84, 103
1, 4391, Note_off_c, 0, 84, 103
1, 4527, Note_on_c, 0, 78, 113
1, 4617, Note_off_c, 0, 78, 113
1, 4649, Note_on_c, 0, 79, 112
1, 4749, Note_off_c, 0, 79, 112
1, 4839, Note_on_c, 0, 82, 84
1, 4886, Note_off_c, 0, 82, 84
1, 4921, Note_on_c, 0, 87, 111
1, 5130, Note_off_c, 0, 87, 111
1, 5273, Note_on_c, 0, 86, 123
1, 5388, Note_off_c, 0, 86, 123
1, 5411, Note_on_c, 0, 85, 123
1, 5531, Note_off_c, 0, 85, 123
1, 5590, Note_on_c, 0, 82, 103
1, 5655, Note_off_c, 0, 82, 103
1, 5684, Note_on_c, 0, 84, 122
1, 5761, Note_off_c, 0, 84, 122
1, 5774, Note_on_c, 0, 82, 107
1, 5839, Note_off_c, 0, 82, 107
1, 5886, Note_on_c, 0, 85, 125
1, 5977, Note_off_c, 0, 85, 125
1, 6055, Note_on_c, 0, 84, 117
1, 6171, Note_off_c, 0, 84, 117
1, 6215, Note_on_c, 0, 82, 117
1, 6369, Note_off_c, 0, 82, 117
1, 6420, Note_on_c, 0, 78, 114
1, 6511, Note_off_c, 0, 78, 114
1, 6614, Note_on_c, 0, 79, 109
1, 6716, Note_off_c, 0, 79, 109
1, 6748, Note_on_c, 0, 82, 113
1, 6856, Note_off_c, 0, 82, 113
1, 6913, Note_on_c, 0, 82, 112
1, 7092, Note_off_c, 0, 82, 112
1, 7107, Note_on_c, 0, 78, 107
1, 7176, Note_off_c, 0, 78, 107
1, 7185, Note_on_c, 0, 79, 113
1, 7254, Note_off_c, 0, 79, 113
1, 7290, Note_on_c, 0, 82, 115
1, 7359, Note_off_c, 0, 82, 115
1, 7368, Note_on_c, 0, 84, 121
1, 7482, Note_off_c, 0, 84, 121
1, 7675, Note_on_c, 0, 77, 114
1, 7744, Note_off_c, 0, 77, 114
1, 7750, Note_on_c, 0, 80, 117
1, 7835, Note_off_c, 0, 80, 117
1, 7867, Note_on_c, 0, 74, 106
1, 7940, Note_off_c, 0, 74, 106
1, 7940, Note_on_c, 0, 77, 118
1, 8038, Note_off_c, 0, 77, 118
1, 8057, Note_on_c, 0, 70, 117
1, 8126, Note_off_c, 0, 70, 117
1, 8129, Note_on_c, 0, 72, 116
1, 8212, Note_off_c, 0, 72, 116
1, 8219, Note_on_c, 0, 73, 112
1, 8304, Note_off_c, 0, 73, 112
1, 8322, Note_on_c, 0, 74, 113
1, 8419, Note_off_c, 0, 74, 113
1, 8453, Note_on_c, 0, 67, 95
1, 8502, Note_off_c, 0, 67, 95
1, 8503, Note_on_c, 0, 70, 114
1, 8611, Note_off_c, 0, 70, 114
1, 8616, Note_on_c, 0, 74, 111
1, 8686, Note_off_c, 0, 74, 111
1, 8690, Note_on_c, 0, 77, 105
1, 8788, Note_off_c, 0, 77, 105
1, 8791, Note_on_c, 0, 76, 115
1, 8854, Note_off_c, 0, 76, 115
1, 8889, Note_on_c, 0, 79, 114
1, 8970, Note_off_c, 0, 79, 114
1, 8985, Note_on_c, 0, 77, 108
1, 9046, Note_off_c, 0, 77, 108
1, 9064, Note_on_c, 0, 80, 113
1, 9271, Note_off_c, 0, 80, 113
1, 9450, Note_on_c, 0, 77, 112
1, 9525, Note_off_c, 0, 77, 112
1, 9574, Note_on_c, 0, 80, 115
1, 9717, Note_off_c, 0, 80, 115
1, 9751, Note_on_c, 0, 77, 107
1, 9805, Note_off_c, 0, 77, 107
1, 9824, Note_on_c, 0, 80, 110
1, 9907, Note_off_c, 0, 80, 110
1, 9934, Note_on_c, 0, 77, 107
1, 10001, Note_off_c, 0, 77, 107
1, 10022, Note_on_c, 0, 73, 116
1, 10103, Note_off_c, 0, 73, 116
1, 10114, Note_on_c, 0, 74, 108
1, 10212, Note_off_c, 0, 74, 108
1, 10220, Note_on_c, 0, 77, 108
1, 10311, Note_off_c, 0, 77, 108
1, 10316, Note_on_c, 0, 76, 106
1, 10385, Note_off_c, 0, 76, 106
1, 10429, Note_on_c, 0, 79, 99
1, 10506, Note_off_c, 0, 79, 99
1, 10512, Note_on_c, 0, 77, 95
1, 10565, Note_off_c, 0, 77, 95
1, 10589, Note_on_c, 0, 79, 105
1, 10619, Note_off_c, 0, 79, 105
1, 10623, Note_on_c, 0, 80, 111
1, 10711, Note_off_c, 0, 80, 111
1, 10820, Note_on_c, 0, 80, 110
1, 10926, Note_off_c, 0, 80, 110
1, 10989, Note_on_c, 0, 80, 108
1, 11133, Note_off_c, 0, 80, 108
1, 11198, Note_on_c, 0, 73, 116
1, 11292, Note_off_c, 0, 73, 116
1, 11299, Note_on_c, 0, 74, 109
1, 11384, Note_off_c, 0, 74, 109
1, 11388, Note_on_c, 0, 77, 99
1, 11664, Note_off_c, 0, 77, 99
1, 11868, Note_on_c, 0, 79, 110
1, 11901, Note_off_c, 0, 79, 110
1, 11904, Note_on_c, 0, 80, 115
1, 12008, Note_off_c, 0, 80, 115
1, 12034, Note_on_c, 0, 77, 101
1, 12119, Note_off_c, 0, 77, 101
1, 12157, Note_on_c, 0, 86, 99
1, 12457, Note_off_c, 0, 86, 99
1, 12514, Note_on_c, 0, 85, 116
1, 12632, Note_off_c, 0, 85, 116
1, 12639, Note_on_c, 0, 86, 115
1, 12706, Note_off_c, 0, 86, 115
1, 12725, Note_on_c, 0, 84, 106
1, 12972, Note_off_c, 0, 84, 106
1, 13003, Note_on_c, 0, 82, 102
1, 13418, Note_off_c, 0, 82, 102
1, 13669, Note_on_c, 0, 82, 106
1, 13760, Note_off_c, 0, 82, 106
1, 13771, Note_on_c, 0, 87, 98
1, 14042, Note_off_c, 0, 87, 98
1, 14063, Note_on_c, 0, 85, 125
1, 14175, Note_off_c, 0, 85, 125
1, 14183, Note_on_c, 0, 84, 111
1, 14317, Note_off_c, 0, 84, 111
1, 14349, Note_on_c, 0, 82, 104
1, 14424, Note_off_c, 0, 82, 104
1, 14467, Note_on_c, 0, 83, 78
1, 14479, Note_off_c, 0, 83, 78
1, 14482, Note_on_c, 0, 84, 108
1, 14513, Note_off_c, 0, 84, 108
1, 14543, Note_on_c, 0, 82, 82
1, 14602, Note_off_c, 0, 82, 82
1, 14611, Note_on_c, 0, 77, 105
1, 14720, Note_off_c, 0, 77, 105
1, 14723, Note_on_c, 0, 78, 111
1, 15088, Note_off_c, 0, 78, 111
1, 15098, Note_on_c, 0, 77, 113
1, 15179, Note_off_c, 0, 77, 113
1, 15212, Note_on_c, 0, 70, 111
1, 15336, Note_off_c, 0, 70, 111
1, 15417, Note_on_c, 0, 72, 106
1, 15555, Note_off_c, 0, 72, 106
1, 15615, Note_on_c, 0, 75, 113
1, 15723, Note_off_c, 0, 75, 113
1, 15761, Note_on_c, 0, 75, 91
1, 15847, Note_off_c, 0, 75, 91
1, 16003, Note_on_c, 0, 78, 112
1, 16094, Note_off_c, 0, 78, 112
1, 16143, Note_on_c, 0, 79, 118
1, 16245, Note_off_c, 0, 79, 118
1, 16297, Note_on_c, 0, 82, 97
1, 16376, Note_off_c, 0, 82, 97
1, 16473, Note_on_c, 0, 82, 112
1, 16552, Note_off_c, 0, 82, 112
1, 16564, Note_on_c, 0, 84, 119
1, 16635, Note_off_c, 0, 84, 119
1, 16652, Note_on_c, 0, 82, 94
1, 16733, Note_off_c, 0, 82, 94
1, 16750, Note_on_c, 0, 84, 125
1, 16864, Note_off_c, 0, 84, 125
1, 16873, Note_on_c, 0, 85, 92
1, 17088, Note_off_c, 0, 85, 92
1, 17155, Note_on_c, 0, 82, 109
1, 17247, Note_off_c, 0, 82, 109
1, 17281, Note_on_c, 0, 84, 115
1, 17375, Note_off_c, 0, 84, 115
1, 17429, Note_on_c, 0, 82, 107
1, 17502, Note_off_c, 0, 82, 107
1, 17544, Note_on_c, 0, 84, 117
1, 17585, Note_off_c, 0, 84, 117
1, 17588, Note_on_c, 0, 85, 99
1, 17621, Note_off_c, 0, 85, 99
1, 17621, Note_on_c, 0, 82, 102
1, 17679, Note_off_c, 0, 82, 102
1, 17699, Note_on_c, 0, 84, 117
1, 17743, Note_off_c, 0, 84, 117
1, 17749, Note_on_c, 0, 85, 117
1, 17817, Note_off_c, 0, 85, 117
1, 17822, Note_on_c, 0, 82, 113
1, 17914, Note_off_c, 0, 82, 113
1, 17998, Note_on_c, 0, 79, 116
1, 18081, Note_off_c, 0, 79, 116
1, 18093, Note_on_c, 0, 78, 113
1, 18185, Note_off_c, 0, 78, 113
1, 18297, Note_on_c, 0, 79, 113
1, 18384, Note_off_c, 0, 79, 113
1, 18487, Note_on_c, 0, 79, 115
1, 18594, Note_off_c, 0, 79, 115
1, 18690, Note_on_c, 0, 75, 107
1, 18769, Note_off_c, 0, 75, 107
1, 18775, Note_on_c, 0, 77, 108
1, 18881, Note_off_c, 0, 77, 108
1, 18966, Note_on_c, 0, 75, 106
1, 19024, Note_off_c, 0, 75, 106
1, 19036, Note_on_c, 0, 77, 107
1, 19200, Note_off_c, 0, 77, 107
1, 19414, Note_on_c, 0, 75, 115
1, 19485, Note_off_c, 0, 75, 115
1, 19486, Note_on_c, 0, 77, 111
1, 19567, Note_off_c, 0, 77, 111
1, 19580, Note_on_c, 0, 75, 114
1, 19649, Note_off_c, 0, 75, 114
1, 19693, Note_on_c, 0, 73, 113
1, 19762, Note_off_c, 0, 73, 113
1, 19771, Note_on_c, 0, 72, 116
1, 19877, Note_off_c, 0, 72, 116
1, 19899, Note_on_c, 0, 67, 98
1, 19966, Note_off_c, 0, 67, 98
1, 19968, Note_on_c, 0, 72, 110
1, 20065, Note_off_c, 0, 72, 110
1, 20089, Note_on_c, 0, 75, 114
1, 20138, Note_off_c, 0, 75, 114
1, 20163, Note_on_c, 0, 80, 110
1, 20252, Note_off_c, 0, 80, 110
1, 20275, Note_on_c, 0, 72, 112
1, 20330, Note_off_c, 0, 72, 112
1, 20352, Note_on_c, 0, 75, 115
1, 20419, Note_off_c, 0, 75, 115
1, 20464, Note_on_c, 0, 80, 105
1, 20527, Note_off_c, 0, 80, 105
1, 20536, Note_on_c, 0, 84, 109
1, 21060, Note_off_c, 0, 84, 109
1, 21311, Note_on_c, 0, 83, 127
1, 21443, Note_off_c, 0, 83, 127
1, 21448, Note_on_c, 0, 84, 115
1, 21493, Note_off_c, 0, 84, 115
1, 21503, Note_on_c, 0, 83, 119
1, 21586, Note_off_c, 0, 83, 119
1, 21600, Note_on_c, 0, 84, 105
1, 21673, Note_off_c, 0, 84, 105
1, 21696, Note_on_c, 0, 82, 115
1, 21812, Note_off_c, 0, 82, 115
1, 21828, Note_on_c, 0, 80, 115
1, 21922, Note_off_c, 0, 80, 115
1, 21987, Note_on_c, 0, 75, 119
1, 22046, Note_off_c, 0, 75, 119
1, 22076, Note_on_c, 0, 78, 103
1, 22186, Note_off_c, 0, 78, 103
1, 22286, Note_on_c, 0, 78, 103
1, 22406, Note_off_c, 0, 78, 103
1, 22462, Note_on_c, 0, 75, 111
1, 22629, Note_off_c, 0, 75, 111
1, 22641, Note_on_c, 0, 72, 109
1, 22714, Note_off_c, 0, 72, 109
1, 22729, Note_on_c, 0, 71, 116
1, 22780, Note_off_c, 0, 71, 116
1, 22787, Note_on_c, 0, 72, 116
1, 22829, Note_off_c, 0, 72, 116
1, 22832, Note_on_c, 0, 70, 119
1, 22891, Note_off_c, 0, 70, 119
1, 22950, Note_on_c, 0, 79, 107
1, 23088, Note_off_c, 0, 79, 107
1, 23148, Note_on_c, 0, 78, 107
1, 23189, Note_off_c, 0, 78, 107
1, 23210, Note_on_c, 0, 79, 107
1, 23312, Note_off_c, 0, 79, 107
1, 23346, Note_on_c, 0, 78, 105
1, 23391, Note_off_c, 0, 78, 105
1, 23399, Note_on_c, 0, 77, 108
1, 23452, Note_off_c, 0, 77, 108
1, 23480, Note_on_c, 0, 72, 112
1, 23574, Note_off_c, 0, 72, 112
1, 23579, Note_on_c, 0, 75, 112
1, 23616, Note_off_c, 0, 75, 112
1, 23619, Note_on_c, 0, 76, 124
1, 23892, Note_off_c, 0, 76, 124
1, 23901, Note_on_c, 0, 72, 108
1, 24189, Note_off_c, 0, 72, 108
1, 24195, Note_on_c, 0, 67, 103
1, 24226, Note_off_c, 0, 67, 103
1, 24364, Note_on_c, 0, 69, 119
1, 24453, Note_off_c, 0, 69, 119
1, 24481, Note_on_c, 0, 72, 112
1, 24528, Note_off_c, 0, 72, 112
1, 24544, Note_on_c, 0, 74, 108
1, 24599, Note_off_c, 0, 74, 108
1, 24615, Note_on_c, 0, 72, 110
1, 24712, Note_off_c, 0, 72, 110
1, 24736, Note_on_c, 0, 75, 120
1, 24815, Note_off_c, 0, 75, 120
1, 24852, Note_on_c, 0, 72, 114
1, 25014, Note_off_c, 0, 72, 114
1, 25037, Note_on_c, 0, 75, 108
1, 25090, Note_off_c, 0, 75, 108
1, 25100, Note_on_c, 0, 74, 108
1, 25210, Note_off_c, 0, 74, 108
1, 25251, Note_on_c, 0, 67, 104
1, 25304, Note_off_c, 0, 67, 104
1, 25318, Note_on_c, 0, 70, 115
1, 25391, Note_off_c, 0, 70, 115
1, 25426, Note_on_c, 0, 74, 108
1, 25495, Note_off_c, 0, 74, 108
1, 25507, Note_on_c, 0, 77, 107
1, 25596, Note_off_c, 0, 77, 107
1, 25618, Note_on_c, 0, 70, 113
1, 25675, Note_off_c, 0, 70, 113
1, 25698, Note_on_c, 0, 74, 107
1, 25761, Note_off_c, 0, 74, 107
1, 25800, Note_on_c, 0, 80, 109
1, 25859, Note_off_c, 0, 80, 109
1, 25888, Note_on_c, 0, 79, 108
1, 26008, Note_off_c, 0, 79, 108
1, 26008, End_track
0, 0, End_of_file
