0, 0, Header, 1, 1, 840
1, 0, Start_track
1, 0, Title_t, "Melody"
1, 0, Tempo, 333333
1, 0, Key_signature, 1, "major"
1, 0, Time_signature, 3, 2, 24, 8
1, 2207, Note_on_c, 0, 59, 99
1, 2850, Note_off_c, 0, 59, 99
1, 2981, Note_on_c, 0, 60, 112
1, 3610, Note_off_c, 0, 60, 112
1, 3858, Note_on_c, 0, 62, 120
1, 4574, Note_off_c, 0, 62, 120
1, 4793, Note_on_c, 0, 64, 121
1, 5524, Note_off_c, 0, 64, 121
1, 5699, Note_on_c, 0, 66, 112
1, 6357, Note_off_c, 0, 66, 112
1, 6415, Note_on_c, 0, 67, 110
1, 7175, Note_off_c, 0, 67, 110
1, 7365, Note_on_c, 0, 69, 104
1, 7730, Note_off_c, 0, 69, 104
1, 7905, Note_on_c, 0, 71, 95
1, 9441, Note_off_c, 0, 71, 95
1, 9514, Note_on_c, 0, 69, 99
1, 9748, Note_off_c, 0, 69, 99
1, 9806, Note_on_c, 0, 71, 99
1, 10303, Note_off_c, 0, 71, 99
1, 10493, Note_on_c, 0, 71, 104
1, 10770, Note_off_c, 0, 71, 104
1, 12335, Note_on_c, 0, 71, 107
1, 12627, Note_off_c, 0, 71, 107
1, 12992, Note_on_c, 0, 71, 105
1, 16751, Note_off_c, 0, 71, 105
1, 16998, Note_on_c, 0, 69, 107
1, 17142, Note_off_c, 0, 69, 107
1, 17224, Note_on_c, 0, 67, 112
1, 17368, Note_off_c, 0, 67, 112
1, 17470, Note_on_c, 0, 64, 112
1, 17644, Note_off_c, 0, 64, 112
1, 17658, Note_on_c, 0, 71, 108
1, 17791, Note_off_c, 0, 71, 108
1, 17814, Note_on_c, 0, 69, 110
1, 17898, Note_off_c, 0, 69, 110
1, 17945, Note_on_c, 0, 67, 111
1, 18105, Note_off_c, 0, 67, 111
1, 18185, Note_on_c, 0, 64, 108
1, 18339, Note_off_c, 0, 64, 108
1, 18359, Note_on_c, 0, 71, 107
1, 18523, Note_off_c, 0, 71, 107
1, 18556, Note_on_c, 0, 69, 111
1, 18673, Note_off_c, 0, 69, 111
1, 18735, Note_on_c, 0, 67, 116
1, 18909, Note_off_c, 0, 67, 116
1, 18953, Note_on_c, 0, 64, 116
1, 19127, Note_off_c, 0, 64, 116
1, 19186, Note_on_c, 0, 71, 111
1, 19330, Note_off_c, 0, 71, 111
1, 19350, Note_on_c, 0, 69, 111
1, 19430, Note_off_c, 0, 69, 111
1, 19477, Note_on_c, 0, 67, 114
1, 19641, Note_off_c, 0, 67, 114
1, 19721, Note_on_c, 0, 64, 114
1, 19854, Note_off_c, 0, 64, 114
1, 19943, Note_on_c, 0, 71, 110
1, 20117, Note_off_c, 0, 71, 110
1, 20121, Note_on_c, 0, 69, 113
1, 20219, Note_off_c, 0, 69, 113
1, 20255, Note_on_c, 0, 67, 112
1, 20399, Note_off_c, 0, 67, 112
1, 20426, Note_on_c, 0, 64, 111
1, 20570, Note_off_c, 0, 64, 111
1, 20611, Note_on_c, 0, 66, 110
1, 20842, Note_off_c, 0, 66, 110
1, 20898, Note_on_c, 0, 67, 111
1, 21011, Note_off_c, 0, 67, 111
1, 21062, Note_on_c, 0, 69, 112
1, 21211, Note_off_c, 0, 69, 112
1, 21231, Note_on_c, 0, 70, 109
1, 21308, Note_off_c, 0, 70, 109
1, 21359, Note_on_c, 0, 73, 114
1, 21477, Note_off_c, 0, 73, 114
1, 21533, Note_on_c, 0, 74, 117
1, 21656, Note_off_c, 0, 74, 117
1, 21692, Note_on_c, 0, 76, 117
1, 21820, Note_off_c, 0, 76, 117
1, 21845, Note_on_c, 0, 78, 117
1, 21917, Note_off_c, 0, 78, 117
1, 21937, Note_on_c, 0, 79, 110
1, 22034, Note_off_c, 0, 79, 110
1, 22106, Note_on_c, 0, 81, 119
1, 22260, Note_off_c, 0, 81, 119
1, 22306, Note_on_c, 0, 83, 108
1, 22419, Note_off_c, 0, 83, 108
1, 22521, Note_on_c, 0, 85, 111
1, 22803, Note_off_c, 0, 85, 111
1, 22844, Note_on_c, 0, 86, 109
1, 23080, Note_off_c, 0, 86, 109
1, 23141, Note_on_c, 0, 85, 99
1, 24982, Note_off_c, 0, 85, 99
1, 25059, Note_on_c, 0, 83, 99
1, 25269, Note_off_c, 0, 83, 99
1, 25320, Note_on_c, 0, 84, 91
1, 25479, Note_off_c, 0, 84, 91
1, 25621, Note_on_c, 0, 71, 92
1, 27522, Note_off_c, 0, 71, 92
1, 27668, Note_on_c, 0, 81, 113
1, 27850, Note_off_c, 0, 81, 113
1, 27908, Note_on_c, 0, 79, 122
1, 28138, Note_off_c, 0, 79, 122
1, 28233, Note_on_c, 0, 76, 123
1, 28668, Note_off_c, 0, 76, 123
1, 28875, Note_on_c, 0, 71, 92
1, 29219, Note_off_c, 0, 71, 92
1, 31142, Note_on_c, 0, 70, 122
1, 31327, Note_off_c, 0, 70, 122
1, 31393, Note_on_c, 0, 71, 100
1, 32796, Note_off_c, 0, 71, 100
1, 32898, Note_on_c, 0, 71, 102
1, 33150, Note_off_c, 0, 71, 102
1, 33278, Note_on_c, 0, 76, 117
1, 33540, Note_off_c, 0, 76, 117
1, 33946, Note_on_c, 0, 71, 102
1, 34280, Note_off_c, 0, 71, 102
1, 34598, Note_on_c, 0, 76, 117
1, 34932, Note_off_c, 0, 76, 117
1, 35055, Note_on_c, 0, 71, 102
1, 35409, Note_off_c, 0, 71, 102
1, 35686, Note_on_c, 0, 76, 117
1, 37578, Note_off_c, 0, 76, 117
1, 37747, Note_on_c, 0, 71, 104
1, 37911, Note_off_c, 0, 71, 104
1, 37944, Note_on_c, 0, 69, 106
1, 38036, Note_off_c, 0, 69, 106
1, 38090, Note_on_c, 0, 67, 112
1, 38280, Note_off_c, 0, 67, 112
1, 38339, Note_on_c, 0, 64, 115
1, 38876, Note_off_c, 0, 64, 115
1, 38998, Note_on_c, 0, 59, 110
1, 39553, Note_off_c, 0, 59, 110
1, 42789, Note_on_c, 0, 71, 112
1, 43041, Note_off_c, 0, 71, 112
1, 43103, Note_on_c, 0, 76, 123
1, 43432, Note_off_c, 0, 76, 123
1, 43662, Note_on_c, 0, 78, 123
1, 43987, Note_off_c, 0, 78, 123
1, 44045, Note_on_c, 0, 81, 122
1, 44385, Note_off_c, 0, 81, 122
1, 44597, Note_on_c, 0, 81, 107
1, 47939, Note_off_c, 0, 81, 107
1, 48113, Note_on_c, 0, 73, 103
1, 48365, Note_off_c, 0, 73, 103
1, 48575, Note_on_c, 0, 83, 101
1, 53162, Note_off_c, 0, 83, 101
1, 53679, Note_on_c, 0, 83, 117
1, 53898, Note_off_c, 0, 83, 117
1, 54000, Note_on_c, 0, 85, 118
1, 54146, Note_off_c, 0, 85, 118
1, 54189, Note_on_c, 0, 86, 116
1, 54320, Note_off_c, 0, 86, 116
1, 54371, Note_on_c, 0, 85, 105
1, 54480, Note_off_c, 0, 85, 105
1, 54597, Note_on_c, 0, 83, 97
1, 56425, Note_off_c, 0, 83, 97
1, 56544, Note_on_c, 0, 79, 111
1, 56851, Note_off_c, 0, 79, 111
1, 56908, Note_on_c, 0, 83, 110
1, 57103, Note_off_c, 0, 83, 110
1, 57154, Note_on_c, 0, 85, 112
1, 57315, Note_off_c, 0, 85, 112
1, 57343, Note_on_c, 0, 86, 117
1, 57492, Note_off_c, 0, 86, 117
1, 57515, Note_on_c, 0, 85, 110
1, 57628, Note_off_c, 0, 85, 110
1, 57651, Note_on_c, 0, 83, 111
1, 58041, Note_off_c, 0, 83, 111
1, 58089, Note_on_c, 0, 85, 111
1, 58204, Note_off_c, 0, 85, 111
1, 58227, Note_on_c, 0, 86, 114
1, 58442, Note_off_c, 0, 86, 114
1, 58457, Note_on_c, 0, 85, 109
1, 58536, Note_off_c, 0, 85, 109
1, 58561, Note_on_c, 0, 83, 111
1, 58864, Note_off_c, 0, 83, 111
1, 58910, Note_on_c, 0, 85, 111
1, 59048, Note_off_c, 0, 85, 111
1, 59086, Note_on_c, 0, 86, 116
1, 59345, Note_off_c, 0, 86, 116
1, 59370, Note_on_c, 0, 85, 110
1, 59524, Note_off_c, 0, 85, 110
1, 59600, Note_on_c, 0, 83, 98
1, 60733, Note_off_c, 0, 83, 98
1, 60782, Note_on_c, 0, 81, 108
1, 60866, Note_off_c, 0, 81, 108
1, 60881, Note_on_c, 0, 79, 118
1, 61096, Note_off_c, 0, 79, 118
1, 61219, Note_on_c, 0, 76, 123
1, 61422, Note_off_c, 0, 76, 123
1, 61481, Note_on_c, 0, 78, 119
1, 61678, Note_off_c, 0, 78, 119
1, 61798, Note_on_c, 0, 81, 100
1, 61875, Note_off_c, 0, 81, 100
1, 61911, Note_on_c, 0, 78, 121
1, 62011, Note_off_c, 0, 78, 121
1, 62065, Note_on_c, 0, 76, 118
1, 62149, Note_off_c, 0, 76, 118
1, 62172, Note_on_c, 0, 74, 114
1, 62405, Note_off_c, 0, 74, 114
1, 62428, Note_on_c, 0, 73, 120
1, 62896, Note_off_c, 0, 73, 120
1, 63011, Note_on_c, 0, 76, 123
1, 63137, Note_off_c, 0, 76, 123
1, 63172, Note_on_c, 0, 74, 114
1, 63233, Note_off_c, 0, 74, 114
1, 63266, Note_on_c, 0, 73, 119
1, 63376, Note_off_c, 0, 73, 119
1, 63401, Note_on_c, 0, 70, 109
1, 63524, Note_off_c, 0, 70, 109
1, 63544, Note_on_c, 0, 69, 113
1, 63636, Note_off_c, 0, 69, 113
1, 63669, Note_on_c, 0, 67, 115
1, 63856, Note_off_c, 0, 67, 115
1, 63886, Note_on_c, 0, 66, 111
1, 64814, Note_off_c, 0, 66, 111
1, 64837, Note_on_c, 0, 70, 107
1, 64955, Note_off_c, 0, 70, 107
1, 64973, Note_on_c, 0, 69, 111
1, 65047, Note_off_c, 0, 69, 111
1, 65075, Note_on_c, 0, 67, 114
1, 65149, Note_off_c, 0, 67, 114
1, 65184, Note_on_c, 0, 66, 114
1, 65317, Note_off_c, 0, 66, 114
1, 65391, Note_on_c, 0, 64, 112
1, 65897, Note_off_c, 0, 64, 112
1, 65922, Note_on_c, 0, 66, 113
1, 66042, Note_off_c, 0, 66, 113
1, 66093, Note_on_c, 0, 64, 115
1, 66221, Note_off_c, 0, 64, 115
1, 66249, Note_on_c, 0, 62, 109
1, 66364, Note_off_c, 0, 62, 109
1, 66387, Note_on_c, 0, 61, 108
1, 67060, Note_off_c, 0, 61, 108
1, 67132, Note_on_c, 0, 64, 113
1, 67306, Note_off_c, 0, 64, 113
1, 67352, Note_on_c, 0, 62, 114
1, 67465, Note_off_c, 0, 62, 114
1, 67519, Note_on_c, 0, 60, 113
1, 67616, Note_off_c, 0, 60, 113
1, 67675, Note_on_c, 0, 59, 105
1, 70038, Note_off_c, 0, 59, 105
1, 73130, Note_on_c, 0, 64, 117
1, 73397, Note_off_c, 0, 64, 117
1, 73474, Note_on_c, 0, 67, 118
1, 73643, Note_off_c, 0, 67, 118
1, 73709, Note_on_c, 0, 71, 112
1, 73853, Note_off_c, 0, 71, 112
1, 73894, Note_on_c, 0, 74, 112
1, 74099, Note_off_c, 0, 74, 112
1, 74176, Note_on_c, 0, 78, 123
1, 74320, Note_off_c, 0, 78, 123
1, 74361, Note_on_c, 0, 79, 114
1, 74417, Note_off_c, 0, 79, 114
1, 74453, Note_on_c, 0, 81, 122
1, 74540, Note_off_c, 0, 81, 122
1, 74586, Note_on_c, 0, 83, 116
1, 74786, Note_off_c, 0, 83, 116
1, 74822, Note_on_c, 0, 85, 110
1, 76868, Note_off_c, 0, 85, 110
1, 76934, Note_on_c, 0, 83, 114
1, 77098, Note_off_c, 0, 83, 114
1, 77164, Note_on_c, 0, 85, 108
1, 77354, Note_off_c, 0, 85, 108
1, 77415, Note_on_c, 0, 83, 109
1, 78613, Note_off_c, 0, 83, 109
1, 78741, Note_on_c, 0, 81, 114
1, 79003, Note_off_c, 0, 81, 114
1, 79085, Note_on_c, 0, 79, 119
1, 79563, Note_off_c, 0, 79, 119
1, 79609, Note_on_c, 0, 76, 125
1, 80035, Note_off_c, 0, 76, 125
1, 82102, Note_on_c, 0, 71, 112
1, 82914, Note_off_c, 0, 71, 112
1, 82970, Note_on_c, 0, 83, 102
1, 83720, Note_off_c, 0, 83, 102
1, 83930, Note_on_c, 0, 81, 107
1, 84068, Note_off_c, 0, 81, 107
1, 84114, Note_on_c, 0, 83, 114
1, 84268, Note_off_c, 0, 83, 114
1, 84952, Note_on_c, 0, 83, 116
1, 85342, Note_off_c, 0, 83, 116
1, 85851, Note_on_c, 0, 83, 114
1, 86360, Note_off_c, 0, 83, 114
1, 86642, Note_on_c, 0, 83, 112
1, 87058, Note_off_c, 0, 83, 112
1, 87118, Note_on_c, 0, 86, 110
1, 87366, Note_off_c, 0, 86, 110
1, 87519, Note_on_c, 0, 83, 103
1, 90364, Note_off_c, 0, 83, 103
1, 90510, Note_on_c, 0, 81, 114
1, 90722, Note_off_c, 0, 81, 114
1, 90860, Note_on_c, 0, 79, 116
1, 91262, Note_off_c, 0, 79, 116
1, 91342, Note_on_c, 0, 76, 121
1, 91875, Note_off_c, 0, 76, 121
1, 94691, Note_on_c, 0, 78, 121
1, 95941, Note_off_c, 0, 78, 121
1, 95981, Note_on_c, 0, 76, 121
1, 96141, Note_off_c, 0, 76, 121
1, 96188, Note_on_c, 0, 74, 120
1, 96297, Note_off_c, 0, 74, 120
1, 96370, Note_on_c, 0, 71, 110
1, 96527, Note_off_c, 0, 71, 110
1, 96570, Note_on_c, 0, 74, 121
1, 96705, Note_off_c, 0, 74, 121
1, 96745, Note_on_c, 0, 76, 120
1, 96873, Note_off_c, 0, 76, 120
1, 96924, Note_on_c, 0, 78, 122
1, 97084, Note_off_c, 0, 78, 122
1, 97124, Note_on_c, 0, 76, 122
1, 97314, Note_off_c, 0, 76, 122
1, 97361, Note_on_c, 0, 74, 124
1, 97470, Note_off_c, 0, 74, 124
1, 97510, Note_on_c, 0, 71, 101
1, 99579, Note_off_c, 0, 71, 101
1, 99669, Note_on_c, 0, 74, 119
1, 99859, Note_off_c, 0, 74, 119
1, 99884, Note_on_c, 0, 76, 118
1, 100017, Note_off_c, 0, 76, 118
1, 100032, Note_on_c, 0, 78, 119
1, 100178, Note_off_c, 0, 78, 119
1, 100221, Note_on_c, 0, 76, 125
1, 100388, Note_off_c, 0, 76, 125
1, 100434, Note_on_c, 0, 74, 119
1, 100590, Note_off_c, 0, 74, 119
1, 100636, Note_on_c, 0, 71, 109
1, 100813, Note_off_c, 0, 71, 109
1, 100831, Note_on_c, 0, 74, 120
1, 100998, Note_off_c, 0, 74, 120
1, 101018, Note_on_c, 0, 76, 126
1, 101123, Note_off_c, 0, 76, 126
1, 101148, Note_on_c, 0, 78, 118
1, 101289, Note_off_c, 0, 78, 118
1, 101324, Note_on_c, 0, 81, 116
1, 101473, Note_off_c, 0, 81, 116
1, 101516, Note_on_c, 0, 83, 113
1, 101670, Note_off_c, 0, 83, 113
1, 101703, Note_on_c, 0, 81, 118
1, 101880, Note_off_c, 0, 81, 118
1, 101921, Note_on_c, 0, 78, 120
1, 102036, Note_off_c, 0, 78, 120
1, 102051, Note_on_c, 0, 76, 125
1, 102228, Note_off_c, 0, 76, 125
1, 102284, Note_on_c, 0, 74, 119
1, 102476, Note_off_c, 0, 74, 119
1, 102530, Note_on_c, 0, 71, 116
1, 102689, Note_off_c, 0, 71, 116
1, 102727, Note_on_c, 0, 74, 118
1, 102871, Note_off_c, 0, 74, 118
1, 102894, Note_on_c, 0, 76, 121
1, 103012, Note_off_c, 0, 76, 121
1, 103029, Note_on_c, 0, 78, 120
1, 103178, Note_off_c, 0, 78, 120
1, 103226, Note_on_c, 0, 81, 112
1, 103393, Note_off_c, 0, 81, 112
1, 103418, Note_on_c, 0, 83, 110
1, 103564, Note_off_c, 0, 83, 110
1, 103594, Note_on_c, 0, 81, 111
1, 103730, Note_off_c, 0, 81, 111
1, 103760, Note_on_c, 0, 78, 116
1, 103888, Note_off_c, 0, 78, 116
1, 103924, Note_on_c, 0, 76, 123
1, 104039, Note_off_c, 0, 76, 123
1, 104087, Note_on_c, 0, 74, 119
1, 104238, Note_off_c, 0, 74, 119
1, 104279, Note_on_c, 0, 71, 107
1, 104446, Note_off_c, 0, 71, 107
1, 104484, Note_on_c, 0, 74, 118
1, 104648, Note_off_c, 0, 74, 118
1, 104663, Note_on_c, 0, 76, 123
1, 104771, Note_off_c, 0, 76, 123
1, 104817, Note_on_c, 0, 78, 120
1, 104948, Note_off_c, 0, 78, 120
1, 104966, Note_on_c, 0, 81, 113
1, 105089, Note_off_c, 0, 81, 113
1, 105104, Note_on_c, 0, 83, 117
1, 105271, Note_off_c, 0, 83, 117
1, 105304, Note_on_c, 0, 85, 113
1, 105484, Note_off_c, 0, 85, 113
1, 105522, Note_on_c, 0, 83, 115
1, 105645, Note_off_c, 0, 83, 115
1, 105681, Note_on_c, 0, 81, 115
1, 105799, Note_off_c, 0, 81, 115
1, 105822, Note_on_c, 0, 79, 116
1, 105901, Note_off_c, 0, 79, 116
1, 105919, Note_on_c, 0, 78, 117
1, 106014, Note_off_c, 0, 78, 117
1, 106034, Note_on_c, 0, 76, 123
1, 106165, Note_off_c, 0, 76, 123
1, 106216, Note_on_c, 0, 74, 121
1, 106380, Note_off_c, 0, 74, 121
1, 106421, Note_on_c, 0, 71, 111
1, 106557, Note_off_c, 0, 71, 111
1, 106598, Note_on_c, 0, 74, 118
1, 106762, Note_off_c, 0, 74, 118
1, 106774, Note_on_c, 0, 76, 121
1, 106905, Note_off_c, 0, 76, 121
1, 106935, Note_on_c, 0, 78, 110
1, 107030, Note_off_c, 0, 78, 110
1, 107055, Note_on_c, 0, 81, 114
1, 107168, Note_off_c, 0, 81, 114
1, 107222, Note_on_c, 0, 83, 104
1, 107553, Note_off_c, 0, 83, 104
1, 107635, Note_on_c, 0, 79, 114
1, 107717, Note_off_c, 0, 79, 114
1, 107727, Note_on_c, 0, 78, 116
1, 107809, Note_off_c, 0, 78, 116
1, 107827, Note_on_c, 0, 76, 123
1, 107937, Note_off_c, 0, 76, 123
1, 107978, Note_on_c, 0, 74, 119
1, 108173, Note_off_c, 0, 74, 119
1, 108211, Note_on_c, 0, 73, 118
1, 109902, Note_off_c, 0, 73, 118
1, 109956, Note_on_c, 0, 71, 103
1, 110051, Note_off_c, 0, 71, 103
1, 110079, Note_on_c, 0, 69, 112
1, 110181, Note_off_c, 0, 69, 112
1, 110232, Note_on_c, 0, 66, 111
1, 110327, Note_off_c, 0, 66, 111
1, 110365, Note_on_c, 0, 64, 116
1, 110573, Note_off_c, 0, 64, 116
1, 110591, Note_on_c, 0, 62, 113
1, 111475, Note_off_c, 0, 62, 113
1, 111541, Note_on_c, 0, 64, 114
1, 112353, Note_off_c, 0, 64, 114
1, 114725, Note_on_c, 0, 64, 119
1, 114904, Note_off_c, 0, 64, 119
1, 114947, Note_on_c, 0, 67, 116
1, 115100, Note_off_c, 0, 67, 116
1, 115125, Note_on_c, 0, 69, 113
1, 115278, Note_off_c, 0, 69, 113
1, 115332, Note_on_c, 0, 71, 98
1, 119060, Note_off_c, 0, 71, 98
1, 119087, Note_on_c, 0, 69, 103
1, 119193, Note_off_c, 0, 69, 103
1, 119273, Note_on_c, 0, 67, 110
1, 119422, Note_off_c, 0, 67, 110
1, 119502, Note_on_c, 0, 64, 115
1, 119695, Note_off_c, 0, 64, 115
1, 119742, Note_on_c, 0, 67, 110
1, 119917, Note_off_c, 0, 67, 110
1, 119971, Note_on_c, 0, 69, 111
1, 120066, Note_off_c, 0, 69, 111
1, 120117, Note_on_c, 0, 71, 110
1, 120237, Note_off_c, 0, 71, 110
1, 120266, Note_on_c, 0, 69, 111
1, 120353, Note_off_c, 0, 69, 111
1, 120367, Note_on_c, 0, 67, 115
1, 120571, Note_off_c, 0, 67, 115
1, 120611, Note_on_c, 0, 64, 115
1, 120830, Note_off_c, 0, 64, 115
1, 120870, Note_on_c, 0, 67, 115
1, 120972, Note_off_c, 0, 67, 115
1, 120993, Note_on_c, 0, 69, 113
1, 121128, Note_off_c, 0, 69, 113
1, 121146, Note_on_c, 0, 71, 108
1, 121248, Note_off_c, 0, 71, 108
1, 121277, Note_on_c, 0, 69, 111
1, 121361, Note_off_c, 0, 69, 111
1, 121393, Note_on_c, 0, 67, 117
1, 121557, Note_off_c, 0, 67, 117
1, 121611, Note_on_c, 0, 64, 118
1, 121804, Note_off_c, 0, 64, 118
1, 121880, Note_on_c, 0, 67, 114
1, 121960, Note_off_c, 0, 67, 114
1, 121978, Note_on_c, 0, 69, 113
1, 122138, Note_off_c, 0, 69, 113
1, 122156, Note_on_c, 0, 71, 111
1, 122291, Note_off_c, 0, 71, 111
1, 122338, Note_on_c, 0, 67, 113
1, 122619, Note_off_c, 0, 67, 113
1, 122666, Note_on_c, 0, 64, 119
1, 122845, Note_off_c, 0, 64, 119
1, 122888, Note_on_c, 0, 67, 114
1, 123063, Note_off_c, 0, 67, 114
1, 123088, Note_on_c, 0, 69, 107
1, 123186, Note_off_c, 0, 69, 107
1, 123211, Note_on_c, 0, 71, 109
1, 123309, Note_off_c, 0, 71, 109
1, 123330, Note_on_c, 0, 69, 110
1, 123395, Note_off_c, 0, 69, 110
1, 123431, Note_on_c, 0, 67, 113
1, 123632, Note_off_c, 0, 67, 113
1, 123690, Note_on_c, 0, 64, 118
1, 123785, Note_off_c, 0, 64, 118
1, 123814, Note_on_c, 0, 65, 113
1, 123887, Note_off_c, 0, 65, 113
1, 123916, Note_on_c, 0, 67, 112
1, 124058, Note_off_c, 0, 67, 112
1, 124079, Note_on_c, 0, 69, 110
1, 124196, Note_off_c, 0, 69, 110
1, 124214, Note_on_c, 0, 70, 108
1, 124301, Note_off_c, 0, 70, 108
1, 124311, Note_on_c, 0, 69, 108
1, 124402, Note_off_c, 0, 69, 108
1, 124493, Note_on_c, 0, 66, 110
1, 124639, Note_off_c, 0, 66, 110
1, 124697, Note_on_c, 0, 67, 109
1, 124857, Note_off_c, 0, 67, 109
1, 124911, Note_on_c, 0, 69, 106
1, 125017, Note_off_c, 0, 69, 106
1, 125027, Note_on_c, 0, 71, 109
1, 125114, Note_off_c, 0, 71, 109
1, 125146, Note_on_c, 0, 73, 112
1, 125354, Note_off_c, 0, 73, 112
1, 125375, Note_on_c, 0, 74, 109
1, 125492, Note_off_c, 0, 74, 109
1, 125513, Note_on_c, 0, 76, 118
1, 125626, Note_off_c, 0, 76, 118
1, 125688, Note_on_c, 0, 79, 117
1, 125837, Note_off_c, 0, 79, 117
1, 125888, Note_on_c, 0, 81, 114
1, 126008, Note_off_c, 0, 81, 114
1, 126062, Note_on_c, 0, 83, 117
1, 126182, Note_off_c, 0, 83, 117
1, 126258, Note_on_c, 0, 85, 101
1, 129081, Note_off_c, 0, 85, 101
1, 129256, Note_on_c, 0, 83, 108
1, 129453, Note_off_c, 0, 83, 108
1, 129571, Note_on_c, 0, 85, 85
1, 130239, Note_off_c, 0, 85, 85
1, 130280, Note_on_c, 0, 83, 101
1, 131329, Note_off_c, 0, 83, 101
1, 134403, Note_on_c, 0, 83, 112
1, 134600, Note_off_c, 0, 83, 112
1, 134907, Note_on_c, 0, 83, 115
1, 135199, Note_off_c, 0, 83, 115
1, 135352, Note_on_c, 0, 86, 109
1, 136946, Note_off_c, 0, 86, 109
1, 137063, Note_on_c, 0, 83, 105
1, 137311, Note_off_c, 0, 83, 105
1, 137471, Note_on_c, 0, 86, 108
1, 139211, Note_off_c, 0, 86, 108
1, 139272, Note_on_c, 0, 84, 96
1, 139374, Note_off_c, 0, 84, 96
1, 139389, Note_on_c, 0, 82, 93
1, 139448, Note_off_c, 0, 82, 93
1, 139476, Note_on_c, 0, 81, 101
1, 139540, Note_off_c, 0, 81, 101
1, 139557, Note_on_c, 0, 79, 116
1, 139832, Note_off_c, 0, 79, 116
1, 139865, Note_on_c, 0, 76, 116
1, 140208, Note_off_c, 0, 76, 116
1, 140639, Note_on_c, 0, 76, 119
1, 140902, Note_off_c, 0, 76, 119
1, 141443, Note_on_c, 0, 76, 115
1, 141852, Note_off_c, 0, 76, 115
1, 142246, Note_on_c, 0, 76, 9
1, 144645, Note_off_c, 0, 76, 9
1, 144703, Note_on_c, 0, 74, 97
1, 144863, Note_off_c, 0, 74, 97
1, 144906, Note_on_c, 0, 76, 117
1, 145103, Note_off_c, 0, 76, 117
1, 145666, Note_on_c, 0, 76, 116
1, 146002, Note_off_c, 0, 76, 116
1, 146565, Note_on_c, 0, 76, 115
1, 146908, Note_off_c, 0, 76, 115
1, 147361, Note_on_c, 0, 70, 106
1, 147829, Note_off_c, 0, 70, 106
1, 147858, Note_on_c, 0, 71, 101
1, 149496, Note_off_c, 0, 71, 101
1, 149654, Note_on_c, 0, 69, 108
1, 149813, Note_off_c, 0, 69, 108
1, 149915, Note_on_c, 0, 67, 115
1, 150362, Note_off_c, 0, 67, 115
1, 150593, Note_on_c, 0, 64, 115
1, 151066, Note_off_c, 0, 64, 115
1, 154655, Note_on_c, 0, 64, 118
1, 154896, Note_off_c, 0, 64, 118
1, 154998, Note_on_c, 0, 67, 116
1, 155260, Note_off_c, 0, 67, 116
1, 155306, Note_on_c, 0, 69, 119
1, 158062, Note_off_c, 0, 69, 119
1, 158236, Note_on_c, 0, 74, 116
1, 159856, Note_off_c, 0, 74, 116
1, 159953, Note_on_c, 0, 71, 110
1, 162509, Note_off_c, 0, 71, 110
1, 164766, Note_on_c, 0, 64, 117
1, 164930, Note_off_c, 0, 64, 117
1, 164991, Note_on_c, 0, 67, 111
1, 165145, Note_off_c, 0, 67, 111
1, 165283, Note_on_c, 0, 69, 110
1, 165529, Note_off_c, 0, 69, 110
1, 165909, Note_on_c, 0, 69, 104
1, 166176, Note_off_c, 0, 69, 104
1, 166561, Note_on_c, 0, 69, 110
1, 166874, Note_off_c, 0, 69, 110
1, 167156, Note_on_c, 0, 69, 105
1, 168081, Note_off_c, 0, 69, 105
1, 168266, Note_on_c, 0, 74, 109
1, 169243, Note_off_c, 0, 74, 109
1, 169284, Note_on_c, 0, 73, 109
1, 169530, Note_off_c, 0, 73, 109
1, 169602, Note_on_c, 0, 76, 117
1, 169761, Note_off_c, 0, 76, 117
1, 169781, Note_on_c, 0, 77, 107
1, 169878, Note_off_c, 0, 77, 107
1, 169950, Note_on_c, 0, 74, 117
1, 170058, Note_off_c, 0, 74, 117
1, 170124, Note_on_c, 0, 72, 112
1, 170242, Note_off_c, 0, 72, 112
1, 170324, Note_on_c, 0, 71, 96
1, 171990, Note_off_c, 0, 71, 96
1, 173813, Note_on_c, 0, 70, 105
1, 173897, Note_off_c, 0, 70, 105
1, 173937, Note_on_c, 0, 67, 114
1, 174116, Note_off_c, 0, 67, 114
1, 174181, Note_on_c, 0, 66, 115
1, 174352, Note_off_c, 0, 66, 115
1, 174395, Note_on_c, 0, 67, 114
1, 174533, Note_off_c, 0, 67, 114
1, 174558, Note_on_c, 0, 69, 110
1, 174686, Note_off_c, 0, 69, 110
1, 174722, Note_on_c, 0, 71, 110
1, 174864, Note_off_c, 0, 71, 110
1, 174893, Note_on_c, 0, 73, 118
1, 175046, Note_off_c, 0, 73, 118
1, 175108, Note_on_c, 0, 74, 118
1, 175199, Note_off_c, 0, 74, 118
1, 175239, Note_on_c, 0, 76, 119
1, 175337, Note_off_c, 0, 76, 119
1, 175358, Note_on_c, 0, 78, 115
1, 175423, Note_off_c, 0, 78, 115
1, 175477, Note_on_c, 0, 79, 118
1, 175645, Note_off_c, 0, 79, 118
1, 175659, Note_on_c, 0, 81, 117
1, 175790, Note_off_c, 0, 81, 117
1, 175804, Note_on_c, 0, 83, 111
1, 175964, Note_off_c, 0, 83, 111
1, 176028, Note_on_c, 0, 85, 94
1, 177313, Note_off_c, 0, 85, 94
1, 177455, Note_on_c, 0, 83, 101
1, 177758, Note_off_c, 0, 83, 101
1, 177790, Note_on_c, 0, 85, 95
1, 177844, Note_off_c, 0, 85, 95
1, 177884, Note_on_c, 0, 87, 99
1, 178088, Note_off_c, 0, 87, 99
1, 178091, Note_on_c, 0, 86, 102
1, 178149, Note_off_c, 0, 86, 102
1, 178192, Note_on_c, 0, 85, 105
1, 178283, Note_off_c, 0, 85, 105
1, 178363, Note_on_c, 0, 83, 110
1, 178542, Note_off_c, 0, 83, 110
1, 178585, Note_on_c, 0, 80, 117
1, 179879, Note_off_c, 0, 80, 117
1, 179970, Note_on_c, 0, 78, 115
1, 180134, Note_off_c, 0, 78, 115
1, 181004, Note_on_c, 0, 66, 115
1, 181146, Note_off_c, 0, 66, 115
1, 181193, Note_on_c, 0, 67, 117
1, 181288, Note_off_c, 0, 67, 117
1, 181328, Note_on_c, 0, 69, 112
1, 181466, Note_off_c, 0, 69, 112
1, 181491, Note_on_c, 0, 70, 110
1, 181582, Note_off_c, 0, 70, 110
1, 181625, Note_on_c, 0, 73, 121
1, 181749, Note_off_c, 0, 73, 121
1, 181770, Note_on_c, 0, 74, 121
1, 181890, Note_off_c, 0, 74, 121
1, 181904, Note_on_c, 0, 76, 118
1, 181995, Note_off_c, 0, 76, 118
1, 182013, Note_on_c, 0, 79, 116
1, 182159, Note_off_c, 0, 79, 116
1, 182184, Note_on_c, 0, 83, 108
1, 182301, Note_off_c, 0, 83, 108
1, 182319, Note_on_c, 0, 85, 107
1, 182417, Note_off_c, 0, 85, 107
1, 182438, Note_on_c, 0, 84, 94
1, 182492, Note_off_c, 0, 84, 94
1, 182535, Note_on_c, 0, 83, 116
1, 182743, Note_off_c, 0, 83, 116
1, 182764, Note_on_c, 0, 85, 104
1, 182829, Note_off_c, 0, 85, 104
1, 182858, Note_on_c, 0, 86, 109
1, 182945, Note_off_c, 0, 86, 109
1, 182974, Note_on_c, 0, 85, 106
1, 183131, Note_off_c, 0, 85, 106
1, 183182, Note_on_c, 0, 83, 109
1, 183364, Note_off_c, 0, 83, 109
1, 183407, Note_on_c, 0, 80, 114
1, 184836, Note_off_c, 0, 80, 114
1, 184920, Note_on_c, 0, 78, 107
1, 185055, Note_off_c, 0, 78, 107
1, 186247, Note_on_c, 0, 71, 111
1, 186462, Note_off_c, 0, 71, 111
1, 186524, Note_on_c, 0, 73, 122
1, 186710, Note_off_c, 0, 73, 122
1, 186750, Note_on_c, 0, 74, 119
1, 186881, Note_off_c, 0, 74, 119
1, 186917, Note_on_c, 0, 78, 107
1, 187012, Note_off_c, 0, 78, 107
1, 187026, Note_on_c, 0, 81, 110
1, 187183, Note_off_c, 0, 81, 110
1, 187197, Note_on_c, 0, 83, 113
1, 187350, Note_off_c, 0, 83, 113
1, 187375, Note_on_c, 0, 85, 105
1, 187532, Note_off_c, 0, 85, 105
1, 187572, Note_on_c, 0, 84, 87
1, 187619, Note_off_c, 0, 84, 87
1, 187666, Note_on_c, 0, 83, 111
1, 187863, Note_off_c, 0, 83, 111
1, 187884, Note_on_c, 0, 85, 101
1, 187938, Note_off_c, 0, 85, 101
1, 187963, Note_on_c, 0, 86, 91
1, 188036, Note_off_c, 0, 86, 91
1, 188065, Note_on_c, 0, 85, 89
1, 188247, Note_off_c, 0, 85, 89
1, 188360, Note_on_c, 0, 83, 111
1, 188542, Note_off_c, 0, 83, 111
1, 188600, Note_on_c, 0, 80, 115
1, 189956, Note_off_c, 0, 80, 115
1, 190051, Note_on_c, 0, 78, 114
1, 190248, Note_off_c, 0, 78, 114
1, 190275, Note_on_c, 0, 74, 115
1, 192784, Note_off_c, 0, 74, 115
1, 193252, Note_on_c, 0, 76, 118
1, 193540, Note_off_c, 0, 76, 118
1, 193668, Note_on_c, 0, 74, 112
1, 195010, Note_off_c, 0, 74, 112
1, 195333, Note_on_c, 0, 74, 109
1, 195842, Note_off_c, 0, 74, 109
1, 195960, Note_on_c, 0, 71, 104
1, 196242, Note_off_c, 0, 71, 104
1, 196298, Note_on_c, 0, 71, 102
1, 198020, Note_off_c, 0, 71, 102
1, 198200, Note_on_c, 0, 69, 92
1, 198380, Note_off_c, 0, 69, 92
1, 198467, Note_on_c, 0, 71, 111
1, 198667, Note_off_c, 0, 71, 111
1, 198805, Note_on_c, 0, 69, 102
1, 200095, Note_off_c, 0, 69, 102
1, 200167, Note_on_c, 0, 67, 108
1, 200352, Note_off_c, 0, 67, 108
1, 200480, Note_on_c, 0, 64, 114
1, 200798, Note_off_c, 0, 64, 114
1, 201013, Note_on_c, 0, 59, 109
1, 202432, Note_off_c, 0, 59, 109
1, 205564, Note_on_c, 0, 64, 113
1, 205929, Note_off_c, 0, 64, 113
1, 206026, Note_on_c, 0, 67, 119
1, 206247, Note_off_c, 0, 67, 119
1, 206298, Note_on_c, 0, 69, 114
1, 206796, Note_off_c, 0, 69, 114
1, 206893, Note_on_c, 0, 69, 108
1, 210040, Note_off_c, 0, 69, 108
1, 210117, Note_on_c, 0, 67, 112
1, 210333, Note_off_c, 0, 67, 112
1, 210420, Note_on_c, 0, 64, 116
1, 211078, Note_off_c, 0, 64, 116
1, 211201, Note_on_c, 0, 64, 116
1, 211597, Note_off_c, 0, 64, 116
1, 213412, Note_on_c, 0, 64, 117
1, 213550, Note_off_c, 0, 64, 117
1, 213642, Note_on_c, 0, 66, 109
1, 213757, Note_off_c, 0, 66, 109
1, 213769, Note_on_c, 0, 67, 116
1, 213889, Note_off_c, 0, 67, 116
1, 213937, Note_on_c, 0, 69, 112
1, 214111, Note_off_c, 0, 69, 112
1, 214141, Note_on_c, 0, 71, 107
1, 214254, Note_off_c, 0, 71, 107
1, 214289, Note_on_c, 0, 73, 118
1, 214448, Note_off_c, 0, 73, 118
1, 214473, Note_on_c, 0, 74, 115
1, 214578, Note_off_c, 0, 74, 115
1, 214619, Note_on_c, 0, 76, 119
1, 214729, Note_off_c, 0, 76, 119
1, 214762, Note_on_c, 0, 78, 110
1, 214844, Note_off_c, 0, 78, 110
1, 214856, Note_on_c, 0, 79, 115
1, 215069, Note_off_c, 0, 79, 115
1, 215110, Note_on_c, 0, 81, 113
1, 215192, Note_off_c, 0, 81, 113
1, 215225, Note_on_c, 0, 83, 114
1, 215461, Note_off_c, 0, 83, 114
1, 215502, Note_on_c, 0, 85, 88
1, 216952, Note_off_c, 0, 85, 88
1, 216980, Note_on_c, 0, 83, 99
1, 217162, Note_off_c, 0, 83, 99
1, 217216, Note_on_c, 0, 81, 105
1, 217340, Note_off_c, 0, 81, 105
1, 217372, Note_on_c, 0, 79, 115
1, 217525, Note_off_c, 0, 79, 115
1, 217606, Note_on_c, 0, 78, 114
1, 218130, Note_off_c, 0, 78, 114
1, 218167, Note_on_c, 0, 83, 110
1, 218240, Note_off_c, 0, 83, 110
1, 218291, Note_on_c, 0, 81, 80
1, 218331, Note_off_c, 0, 81, 80
1, 218367, Note_on_c, 0, 79, 116
1, 218465, Note_off_c, 0, 79, 116
1, 218523, Note_on_c, 0, 78, 114
1, 218610, Note_off_c, 0, 78, 114
1, 218672, Note_on_c, 0, 76, 123
1, 219216, Note_off_c, 0, 76, 123
1, 219270, Note_on_c, 0, 78, 107
1, 219335, Note_off_c, 0, 78, 107
1, 219386, Note_on_c, 0, 83, 109
1, 219462, Note_off_c, 0, 83, 109
1, 219505, Note_on_c, 0, 81, 108
1, 219578, Note_off_c, 0, 81, 108
1, 219610, Note_on_c, 0, 78, 119
1, 219694, Note_off_c, 0, 78, 119
1, 219745, Note_on_c, 0, 76, 123
1, 219825, Note_off_c, 0, 76, 123
1, 219872, Note_on_c, 0, 74, 113
1, 219981, Note_off_c, 0, 74, 113
1, 220028, Note_on_c, 0, 73, 116
1, 221531, Note_off_c, 0, 73, 116
1, 221622, Note_on_c, 0, 71, 103
1, 221691, Note_off_c, 0, 71, 103
1, 221691, Note_on_c, 0, 68, 108
1, 221783, Note_off_c, 0, 68, 108
1, 221800, Note_on_c, 0, 67, 113
1, 221895, Note_off_c, 0, 67, 113
1, 221924, Note_on_c, 0, 66, 110
1, 222026, Note_off_c, 0, 66, 110
1, 222036, Note_on_c, 0, 64, 111
1, 222118, Note_off_c, 0, 64, 111
1, 222123, Note_on_c, 0, 62, 111
1, 222205, Note_off_c, 0, 62, 111
1, 222236, Note_on_c, 0, 61, 106
1, 222986, Note_off_c, 0, 61, 106
1, 224497, Note_on_c, 0, 78, 117
1, 225091, Note_off_c, 0, 78, 117
1, 225127, Note_on_c, 0, 76, 123
1, 225456, Note_off_c, 0, 76, 123
1, 225530, Note_on_c, 0, 78, 119
1, 226244, Note_off_c, 0, 78, 119
1, 226252, Note_on_c, 0, 76, 124
1, 226332, Note_off_c, 0, 76, 124
1, 226375, Note_on_c, 0, 74, 115
1, 226437, Note_off_c, 0, 74, 115
1, 226440, Note_on_c, 0, 73, 115
1, 226573, Note_off_c, 0, 73, 115
1, 226596, Note_on_c, 0, 70, 106
1, 226675, Note_off_c, 0, 70, 106
1, 226712, Note_on_c, 0, 69, 114
1, 226812, Note_off_c, 0, 69, 114
1, 226858, Note_on_c, 0, 67, 112
1, 227045, Note_off_c, 0, 67, 112
1, 227054, Note_on_c, 0, 66, 106
1, 227966, Note_off_c, 0, 66, 106
1, 228504, Note_on_c, 0, 73, 121
1, 230000, Note_off_c, 0, 73, 121
1, 230059, Note_on_c, 0, 70, 96
1, 230208, Note_off_c, 0, 70, 96
1, 230272, Note_on_c, 0, 73, 111
1, 230575, Note_off_c, 0, 73, 111
1, 230610, Note_on_c, 0, 70, 104
1, 230730, Note_off_c, 0, 70, 104
1, 230753, Note_on_c, 0, 69, 108
1, 230832, Note_off_c, 0, 69, 108
1, 230862, Note_on_c, 0, 67, 112
1, 230928, Note_off_c, 0, 67, 112
1, 230958, Note_on_c, 0, 66, 107
1, 231174, Note_off_c, 0, 66, 107
1, 231215, Note_on_c, 0, 62, 109
1, 231369, Note_off_c, 0, 62, 109
1, 231484, Note_on_c, 0, 61, 102
1, 231815, Note_off_c, 0, 61, 102
1, 233513, Note_on_c, 0, 83, 107
1, 234957, Note_off_c, 0, 83, 107
1, 235011, Note_on_c, 0, 81, 107
1, 235201, Note_off_c, 0, 81, 107
1, 235233, Note_on_c, 0, 83, 102
1, 235357, Note_off_c, 0, 83, 102
1, 235477, Note_on_c, 0, 85, 83
1, 235608, Note_off_c, 0, 85, 83
1, 235717, Note_on_c, 0, 83, 97
1, 235874, Note_off_c, 0, 83, 97
1, 235921, Note_on_c, 0, 82, 110
1, 236564, Note_off_c, 0, 82, 110
1, 236619, Note_on_c, 0, 80, 112
1, 236724, Note_off_c, 0, 80, 112
1, 236757, Note_on_c, 0, 79, 112
1, 236949, Note_off_c, 0, 79, 112
1, 236973, Note_on_c, 0, 75, 105
1, 237047, Note_off_c, 0, 75, 105
1, 237078, Note_on_c, 0, 77, 105
1, 237160, Note_off_c, 0, 77, 105
1, 237190, Note_on_c, 0, 79, 111
1, 237266, Note_off_c, 0, 79, 111
1, 237315, Note_on_c, 0, 80, 112
1, 237387, Note_off_c, 0, 80, 112
1, 237412, Note_on_c, 0, 82, 109
1, 237489, Note_off_c, 0, 82, 109
1, 237517, Note_on_c, 0, 84, 102
1, 237614, Note_off_c, 0, 84, 102
1, 237622, Note_on_c, 0, 76, 104
1, 237728, Note_off_c, 0, 76, 104
1, 237740, Note_on_c, 0, 78, 113
1, 237941, Note_off_c, 0, 78, 113
1, 237941, Note_on_c, 0, 80, 112
1, 238101, Note_off_c, 0, 80, 112
1, 238111, Note_on_c, 0, 79, 111
1, 238271, Note_off_c, 0, 79, 111
1, 238327, Note_on_c, 0, 76, 114
1, 238515, Note_off_c, 0, 76, 114
1, 238527, Note_on_c, 0, 78, 103
1, 238586, Note_off_c, 0, 78, 103
1, 238596, Note_on_c, 0, 75, 110
1, 238697, Note_off_c, 0, 75, 110
1, 238707, Note_on_c, 0, 74, 103
1, 238740, Note_off_c, 0, 74, 103
1, 238753, Note_on_c, 0, 73, 109
1, 238963, Note_off_c, 0, 73, 109
1, 238996, Note_on_c, 0, 71, 104
1, 239101, Note_off_c, 0, 71, 104
1, 239126, Note_on_c, 0, 70, 104
1, 239246, Note_off_c, 0, 70, 104
1, 239266, Note_on_c, 0, 69, 106
1, 239374, Note_off_c, 0, 69, 106
1, 239417, Note_on_c, 0, 67, 106
1, 239504, Note_off_c, 0, 67, 106
1, 239558, Note_on_c, 0, 66, 107
1, 239822, Note_off_c, 0, 66, 107
1, 239850, Note_on_c, 0, 69, 103
1, 240104, Note_off_c, 0, 69, 103
1, 240137, Note_on_c, 0, 70, 101
1, 240260, Note_off_c, 0, 70, 101
1, 240288, Note_on_c, 0, 72, 109
1, 240416, Note_off_c, 0, 72, 109
1, 240487, Note_on_c, 0, 74, 109
1, 240577, Note_off_c, 0, 74, 109
1, 240577, Note_on_c, 0, 76, 117
1, 240672, Note_off_c, 0, 76, 117
1, 240678, Note_on_c, 0, 78, 108
1, 240765, Note_off_c, 0, 78, 108
1, 240798, Note_on_c, 0, 79, 110
1, 240898, Note_off_c, 0, 79, 110
1, 240898, Note_on_c, 0, 81, 110
1, 240994, Note_off_c, 0, 81, 110
1, 240999, Note_on_c, 0, 83, 106
1, 241065, Note_off_c, 0, 83, 106
1, 241076, Note_on_c, 0, 84, 108
1, 241150, Note_off_c, 0, 84, 108
1, 241181, Note_on_c, 0, 83, 104
1, 241305, Note_on_c, 0, 79, 113
1, 241305, Note_off_c, 0, 83, 104
1, 241456, Note_off_c, 0, 79, 113
1, 241485, Note_on_c, 0, 78, 115
1, 241538, Note_off_c, 0, 78, 115
1, 241574, Note_on_c, 0, 76, 120
1, 241658, Note_off_c, 0, 76, 120
1, 241673, Note_on_c, 0, 74, 115
1, 241775, Note_off_c, 0, 74, 115
1, 241823, Note_on_c, 0, 72, 113
1, 241879, Note_off_c, 0, 72, 113
1, 241904, Note_on_c, 0, 70, 121
1, 241991, Note_off_c, 0, 70, 121
1, 242019, Note_on_c, 0, 67, 113
1, 242222, Note_off_c, 0, 67, 113
1, 242260, Note_on_c, 0, 66, 113
1, 243445, Note_off_c, 0, 66, 113
1, 245157, Note_on_c, 0, 64, 119
1, 245421, Note_off_c, 0, 64, 119
1, 245446, Note_on_c, 0, 66, 114
1, 245569, Note_off_c, 0, 66, 114
1, 245589, Note_on_c, 0, 67, 115
1, 245877, Note_off_c, 0, 67, 115
1, 245910, Note_on_c, 0, 69, 109
1, 245997, Note_off_c, 0, 69, 109
1, 246007, Note_on_c, 0, 70, 105
1, 246151, Note_off_c, 0, 70, 105
1, 246166, Note_on_c, 0, 73, 115
1, 246281, Note_off_c, 0, 73, 115
1, 246288, Note_on_c, 0, 72, 114
1, 246447, Note_off_c, 0, 72, 114
1, 246480, Note_on_c, 0, 69, 110
1, 246570, Note_off_c, 0, 69, 110
1, 246611, Note_on_c, 0, 65, 113
1, 246798, Note_off_c, 0, 65, 113
1, 246823, Note_on_c, 0, 67, 115
1, 246889, Note_off_c, 0, 67, 115
1, 246919, Note_on_c, 0, 70, 108
1, 247037, Note_off_c, 0, 70, 108
1, 247088, Note_on_c, 0, 72, 114
1, 247224, Note_off_c, 0, 72, 114
1, 247252, Note_on_c, 0, 74, 112
1, 247336, Note_off_c, 0, 74, 112
1, 247353, Note_on_c, 0, 76, 118
1, 247414, Note_off_c, 0, 76, 118
1, 247431, Note_on_c, 0, 77, 114
1, 247531, Note_off_c, 0, 77, 114
1, 247574, Note_on_c, 0, 79, 115
1, 247771, Note_off_c, 0, 79, 115
1, 247786, Note_on_c, 0, 82, 115
1, 247863, Note_off_c, 0, 82, 115
1, 247888, Note_on_c, 0, 83, 116
1, 248024, Note_off_c, 0, 83, 116
1, 248039, Note_on_c, 0, 81, 111
1, 248082, Note_off_c, 0, 81, 111
1, 248107, Note_on_c, 0, 79, 110
1, 248287, Note_off_c, 0, 79, 110
1, 248361, Note_on_c, 0, 77, 107
1, 248456, Note_off_c, 0, 77, 107
1, 248463, Note_on_c, 0, 79, 113
1, 248542, Note_off_c, 0, 79, 113
1, 248567, Note_on_c, 0, 81, 110
1, 248662, Note_off_c, 0, 81, 110
1, 248692, Note_on_c, 0, 83, 109
1, 248866, Note_off_c, 0, 83, 109
1, 248899, Note_on_c, 0, 74, 111
1, 249084, Note_off_c, 0, 74, 111
1, 249140, Note_on_c, 0, 78, 117
1, 249332, Note_off_c, 0, 78, 117
1, 249352, Note_on_c, 0, 80, 113
1, 249503, Note_off_c, 0, 80, 113
1, 249521, Note_on_c, 0, 83, 101
1, 249641, Note_off_c, 0, 83, 101
1, 249728, Note_on_c, 0, 79, 115
1, 249838, Note_off_c, 0, 79, 115
1, 249879, Note_on_c, 0, 74, 108
1, 250082, Note_off_c, 0, 74, 108
1, 250094, Note_on_c, 0, 73, 109
1, 250248, Note_off_c, 0, 73, 109
1, 250258, Note_on_c, 0, 71, 101
1, 250337, Note_off_c, 0, 71, 101
1, 250357, Note_on_c, 0, 69, 108
1, 250429, Note_off_c, 0, 69, 108
1, 250436, Note_on_c, 0, 67, 111
1, 250631, Note_off_c, 0, 67, 111
1, 250659, Note_on_c, 0, 66, 109
1, 250857, Note_off_c, 0, 66, 109
1, 250864, Note_on_c, 0, 67, 114
1, 250974, Note_off_c, 0, 67, 114
1, 251007, Note_on_c, 0, 69, 110
1, 251145, Note_off_c, 0, 69, 110
1, 251157, Note_on_c, 0, 70, 101
1, 251295, Note_off_c, 0, 70, 101
1, 251307, Note_on_c, 0, 72, 93
1, 251358, Note_off_c, 0, 72, 93
1, 251378, Note_on_c, 0, 74, 106
1, 251491, Note_off_c, 0, 74, 106
1, 251521, Note_on_c, 0, 76, 116
1, 251675, Note_off_c, 0, 76, 116
1, 251698, Note_on_c, 0, 79, 119
1, 251816, Note_off_c, 0, 79, 119
1, 251821, Note_on_c, 0, 81, 117
1, 251862, Note_off_c, 0, 81, 117
1, 251890, Note_on_c, 0, 83, 118
1, 252064, Note_off_c, 0, 83, 118
1, 252147, Note_on_c, 0, 79, 119
1, 252339, Note_off_c, 0, 79, 119
1, 252361, Note_on_c, 0, 78, 118
1, 252445, Note_off_c, 0, 78, 118
1, 252473, Note_on_c, 0, 76, 108
1, 252542, Note_off_c, 0, 76, 108
1, 252579, Note_on_c, 0, 74, 115
1, 252648, Note_off_c, 0, 74, 115
1, 252696, Note_on_c, 0, 72, 113
1, 252835, Note_off_c, 0, 72, 113
1, 252835, Note_on_c, 0, 70, 113
1, 252935, Note_off_c, 0, 70, 113
1, 252950, Note_on_c, 0, 69, 116
1, 253045, Note_off_c, 0, 69, 116
1, 253063, Note_on_c, 0, 67, 112
1, 253209, Note_off_c, 0, 67, 112
1, 253248, Note_on_c, 0, 66, 106
1, 255018, Note_off_c, 0, 66, 106
1, 255083, Note_on_c, 0, 64, 112
1, 255229, Note_off_c, 0, 64, 112
1, 255265, Note_on_c, 0, 67, 106
1, 255349, Note_off_c, 0, 67, 106
1, 255390, Note_on_c, 0, 70, 107
1, 255508, Note_off_c, 0, 70, 107
1, 255553, Note_on_c, 0, 73, 105
1, 255697, Note_off_c, 0, 73, 105
1, 255713, Note_on_c, 0, 75, 110
1, 255833, Note_off_c, 0, 75, 110
1, 255854, Note_on_c, 0, 78, 107
1, 255972, Note_off_c, 0, 78, 107
1, 255985, Note_on_c, 0, 80, 108
1, 256134, Note_off_c, 0, 80, 108
1, 256170, Note_on_c, 0, 68, 100
1, 256234, Note_off_c, 0, 68, 100
1, 256267, Note_on_c, 0, 72, 113
1, 256354, Note_off_c, 0, 72, 113
1, 256410, Note_on_c, 0, 75, 113
1, 256492, Note_off_c, 0, 75, 113
1, 256528, Note_on_c, 0, 78, 112
1, 256636, Note_off_c, 0, 78, 112
1, 256664, Note_on_c, 0, 80, 109
1, 256736, Note_off_c, 0, 80, 109
1, 256754, Note_on_c, 0, 83, 110
1, 256843, Note_off_c, 0, 83, 110
1, 256861, Note_on_c, 0, 82, 113
1, 257015, Note_off_c, 0, 82, 113
1, 257040, Note_on_c, 0, 80, 116
1, 257217, Note_off_c, 0, 80, 116
1, 257273, Note_on_c, 0, 75, 116
1, 257368, Note_off_c, 0, 75, 116
1, 257406, Note_on_c, 0, 73, 113
1, 257544, Note_off_c, 0, 73, 113
1, 257580, Note_on_c, 0, 70, 100
1, 257654, Note_off_c, 0, 70, 100
1, 257669, Note_on_c, 0, 68, 111
1, 257807, Note_off_c, 0, 68, 111
1, 257902, Note_on_c, 0, 63, 116
1, 258079, Note_off_c, 0, 63, 116
1, 258104, Note_on_c, 0, 61, 109
1, 258278, Note_off_c, 0, 61, 109
1, 258350, Note_on_c, 0, 63, 119
1, 258530, Note_off_c, 0, 63, 119
1, 258550, Note_on_c, 0, 65, 112
1, 258665, Note_off_c, 0, 65, 112
1, 258690, Note_on_c, 0, 68, 117
1, 258798, Note_off_c, 0, 68, 117
1, 258800, Note_on_c, 0, 71, 114
1, 258889, Note_off_c, 0, 71, 114
1, 258896, Note_on_c, 0, 73, 112
1, 258973, Note_off_c, 0, 73, 112
1, 258998, Note_on_c, 0, 75, 119
1, 259095, Note_off_c, 0, 75, 119
1, 259128, Note_on_c, 0, 77, 119
1, 259217, Note_off_c, 0, 77, 119
1, 259242, Note_on_c, 0, 80, 117
1, 259424, Note_off_c, 0, 80, 117
1, 259467, Note_on_c, 0, 75, 119
1, 259562, Note_off_c, 0, 75, 119
1, 259590, Note_on_c, 0, 73, 118
1, 259736, Note_off_c, 0, 73, 118
1, 259751, Note_on_c, 0, 70, 106
1, 259892, Note_off_c, 0, 70, 106
1, 259953, Note_on_c, 0, 66, 114
1, 260104, Note_off_c, 0, 66, 114
1, 260176, Note_on_c, 0, 63, 120
1, 260361, Note_off_c, 0, 63, 120
1, 260407, Note_on_c, 0, 66, 109
1, 260479, Note_off_c, 0, 66, 109
1, 260509, Note_on_c, 0, 69, 109
1, 260663, Note_off_c, 0, 69, 109
1, 260729, Note_on_c, 0, 73, 115
1, 260885, Note_off_c, 0, 73, 115
1, 260905, Note_on_c, 0, 74, 117
1, 260974, Note_off_c, 0, 74, 117
1, 261002, Note_on_c, 0, 77, 115
1, 261102, Note_off_c, 0, 77, 115
1, 261130, Note_on_c, 0, 79, 116
1, 261194, Note_off_c, 0, 79, 116
1, 261217, Note_on_c, 0, 82, 113
1, 261348, Note_off_c, 0, 82, 113
1, 261360, Note_on_c, 0, 85, 116
1, 261614, Note_off_c, 0, 85, 116
1, 261657, Note_on_c, 0, 83, 113
1, 261757, Note_off_c, 0, 83, 113
1, 261780, Note_on_c, 0, 80, 103
1, 261821, Note_off_c, 0, 80, 103
1, 261846, Note_on_c, 0, 79, 114
1, 261907, Note_off_c, 0, 79, 114
1, 261932, Note_on_c, 0, 75, 116
1, 262063, Note_off_c, 0, 75, 116
1, 262088, Note_on_c, 0, 70, 112
1, 262260, Note_off_c, 0, 70, 112
1, 262283, Note_on_c, 0, 68, 115
1, 262373, Note_off_c, 0, 68, 115
1, 262385, Note_on_c, 0, 67, 113
1, 262451, Note_off_c, 0, 67, 113
1, 262505, Note_on_c, 0, 64, 119
1, 262674, Note_off_c, 0, 64, 119
1, 262710, Note_on_c, 0, 68, 107
1, 262779, Note_off_c, 0, 68, 107
1, 262789, Note_on_c, 0, 69, 110
1, 262927, Note_off_c, 0, 69, 110
1, 262939, Note_on_c, 0, 71, 109
1, 263059, Note_off_c, 0, 71, 109
1, 263074, Note_on_c, 0, 73, 118
1, 263233, Note_off_c, 0, 73, 118
1, 263258, Note_on_c, 0, 76, 120
1, 263409, Note_off_c, 0, 76, 120
1, 263452, Note_on_c, 0, 78, 96
1, 263578, Note_off_c, 0, 78, 96
1, 263603, Note_on_c, 0, 83, 91
1, 263682, Note_off_c, 0, 83, 91
1, 263723, Note_on_c, 0, 85, 91
1, 263897, Note_off_c, 0, 85, 91
1, 263938, Note_on_c, 0, 83, 82
1, 264002, Note_off_c, 0, 83, 82
1, 264066, Note_on_c, 0, 79, 108
1, 264148, Note_off_c, 0, 79, 108
1, 264189, Note_on_c, 0, 76, 97
1, 264309, Note_off_c, 0, 76, 97
1, 264355, Note_on_c, 0, 71, 104
1, 264509, Note_off_c, 0, 71, 104
1, 264537, Note_on_c, 0, 67, 101
1, 264626, Note_off_c, 0, 67, 101
1, 264698, Note_on_c, 0, 64, 110
1, 264834, Note_off_c, 0, 64, 110
1, 264872, Note_on_c, 0, 66, 107
1, 264974, Note_off_c, 0, 66, 107
1, 265012, Note_on_c, 0, 68, 103
1, 265189, Note_off_c, 0, 68, 103
1, 265219, Note_on_c, 0, 70, 102
1, 265327, Note_off_c, 0, 70, 102
1, 265386, Note_on_c, 0, 72, 111
1, 265527, Note_off_c, 0, 72, 111
1, 265544, Note_on_c, 0, 74, 113
1, 265644, Note_off_c, 0, 74, 113
1, 265669, Note_on_c, 0, 76, 115
1, 265753, Note_off_c, 0, 76, 115
1, 265765, Note_on_c, 0, 78, 108
1, 265826, Note_off_c, 0, 78, 108
1, 265838, Note_on_c, 0, 79, 109
1, 265948, Note_off_c, 0, 79, 109
1, 265953, Note_on_c, 0, 81, 108
1, 266048, Note_off_c, 0, 81, 108
1, 266081, Note_on_c, 0, 83, 104
1, 266217, Note_off_c, 0, 83, 104
1, 266242, Note_on_c, 0, 81, 111
1, 266314, Note_off_c, 0, 81, 111
1, 266347, Note_on_c, 0, 79, 113
1, 266470, Note_off_c, 0, 79, 113
1, 266500, Note_on_c, 0, 78, 112
1, 266600, Note_off_c, 0, 78, 112
1, 266628, Note_on_c, 0, 76, 120
1, 266694, Note_off_c, 0, 76, 120
1, 266724, Note_on_c, 0, 74, 115
1, 266865, Note_off_c, 0, 74, 115
1, 266893, Note_on_c, 0, 72, 119
1, 266972, Note_off_c, 0, 72, 119
1, 266995, Note_on_c, 0, 71, 114
1, 267097, Note_off_c, 0, 71, 114
1, 267143, Note_on_c, 0, 69, 115
1, 267261, Note_off_c, 0, 69, 115
1, 267294, Note_on_c, 0, 67, 113
1, 267458, Note_off_c, 0, 67, 113
1, 267481, Note_on_c, 0, 66, 106
1, 267879, Note_off_c, 0, 66, 106
1, 270089, Note_on_c, 0, 64, 112
1, 270257, Note_off_c, 0, 64, 112
1, 270313, Note_on_c, 0, 66, 112
1, 270415, Note_off_c, 0, 66, 112
1, 270469, Note_on_c, 0, 67, 110
1, 270584, Note_off_c, 0, 67, 110
1, 270653, Note_on_c, 0, 69, 114
1, 270743, Note_off_c, 0, 69, 114
1, 270758, Note_on_c, 0, 70, 107
1, 270884, Note_off_c, 0, 70, 107
1, 270920, Note_on_c, 0, 73, 110
1, 271115, Note_off_c, 0, 73, 110
1, 271138, Note_on_c, 0, 74, 108
1, 271184, Note_off_c, 0, 74, 108
1, 271201, Note_on_c, 0, 76, 117
1, 271339, Note_off_c, 0, 76, 117
1, 271369, Note_on_c, 0, 78, 101
1, 271407, Note_off_c, 0, 78, 101
1, 271437, Note_on_c, 0, 79, 114
1, 271539, Note_off_c, 0, 79, 114
1, 271557, Note_on_c, 0, 81, 114
1, 271758, Note_off_c, 0, 81, 114
1, 271770, Note_on_c, 0, 83, 92
1, 273446, Note_off_c, 0, 83, 92
1, 273507, Note_on_c, 0, 83, 98
1, 274376, Note_off_c, 0, 83, 98
1, 274494, Note_on_c, 0, 85, 104
1, 274699, Note_off_c, 0, 85, 104
1, 274714, Note_on_c, 0, 86, 106
1, 275043, Note_off_c, 0, 86, 106
1, 275090, Note_on_c, 0, 85, 86
1, 275188, Note_off_c, 0, 85, 86
1, 275202, Note_on_c, 0, 84, 105
1, 275315, Note_off_c, 0, 84, 105
1, 275380, Note_on_c, 0, 83, 99
1, 276356, Note_off_c, 0, 83, 99
1, 276466, Note_on_c, 0, 77, 112
1, 276633, Note_off_c, 0, 77, 112
1, 276684, Note_on_c, 0, 79, 118
1, 276887, Note_off_c, 0, 79, 118
1, 276902, Note_on_c, 0, 80, 120
1, 277017, Note_off_c, 0, 80, 120
1, 277060, Note_on_c, 0, 82, 106
1, 277193, Note_off_c, 0, 82, 106
1, 277241, Note_on_c, 0, 79, 114
1, 277405, Note_off_c, 0, 79, 114
1, 277438, Note_on_c, 0, 77, 106
1, 277564, Note_off_c, 0, 77, 106
1, 277597, Note_on_c, 0, 75, 102
1, 277900, Note_off_c, 0, 75, 102
1, 277907, Note_on_c, 0, 79, 117
1, 278117, Note_off_c, 0, 79, 117
1, 278153, Note_on_c, 0, 82, 105
1, 278245, Note_off_c, 0, 82, 105
1, 278291, Note_on_c, 0, 76, 108
1, 278450, Note_off_c, 0, 76, 108
1, 278465, Note_on_c, 0, 78, 106
1, 278686, Note_off_c, 0, 78, 106
1, 278755, Note_on_c, 0, 80, 112
1, 278940, Note_off_c, 0, 80, 112
1, 278945, Note_on_c, 0, 82, 111
1, 279042, Note_off_c, 0, 82, 111
1, 279101, Note_on_c, 0, 79, 112
1, 279193, Note_off_c, 0, 79, 112
1, 279231, Note_on_c, 0, 76, 114
1, 279495, Note_off_c, 0, 76, 114
1, 279533, Note_on_c, 0, 75, 109
1, 279633, Note_off_c, 0, 75, 109
1, 279669, Note_on_c, 0, 73, 113
1, 279836, Note_off_c, 0, 73, 113
1, 279895, Note_on_c, 0, 71, 107
1, 279982, Note_off_c, 0, 71, 107
1, 280005, Note_on_c, 0, 70, 106
1, 280174, Note_off_c, 0, 70, 106
1, 280202, Note_on_c, 0, 69, 109
1, 280325, Note_off_c, 0, 69, 109
1, 280368, Note_on_c, 0, 67, 115
1, 280571, Note_off_c, 0, 67, 115
1, 280628, Note_on_c, 0, 66, 106
1, 281918, Note_off_c, 0, 66, 106
1, 281958, Note_on_c, 0, 64, 114
1, 282137, Note_off_c, 0, 64, 114
1, 282169, Note_on_c, 0, 66, 111
1, 282220, Note_off_c, 0, 66, 111
1, 282238, Note_on_c, 0, 65, 108
1, 282428, Note_off_c, 0, 65, 108
1, 282435, Note_on_c, 0, 59, 110
1, 282859, Note_off_c, 0, 59, 110
1, 285565, Note_on_c, 0, 64, 117
1, 285733, Note_off_c, 0, 64, 117
1, 285791, Note_on_c, 0, 67, 122
1, 285904, Note_off_c, 0, 67, 122
1, 285977, Note_on_c, 0, 69, 117
1, 286371, Note_off_c, 0, 69, 117
1, 286601, Note_on_c, 0, 69, 115
1, 287043, Note_off_c, 0, 69, 115
1, 287269, Note_on_c, 0, 69, 112
1, 287674, Note_off_c, 0, 69, 112
1, 287757, Note_on_c, 0, 74, 123
1, 290811, Note_off_c, 0, 74, 123
1, 290903, Note_on_c, 0, 71, 100
1, 291191, Note_off_c, 0, 71, 100
1, 293525, Note_on_c, 0, 71, 109
1, 293957, Note_off_c, 0, 71, 109
1, 294471, Note_on_c, 0, 71, 9
1, 294789, Note_off_c, 0, 71, 9
1, 294969, Note_on_c, 0, 76, 126
1, 295185, Note_off_c, 0, 76, 126
1, 295302, Note_on_c, 0, 83, 103
1, 295737, Note_off_c, 0, 83, 103
1, 296146, Note_on_c, 0, 83, 106
1, 297597, Note_off_c, 0, 83, 106
1, 297611, Note_on_c, 0, 71, 109
1, 297932, Note_off_c, 0, 71, 109
1, 297932, Note_on_c, 0, 76, 112
1, 298235, Note_off_c, 0, 76, 112
1, 298235, Note_on_c, 0, 83, 112
1, 298502, Note_off_c, 0, 83, 112
1, 298534, Note_on_c, 0, 71, 120
1, 298833, Note_off_c, 0, 71, 120
1, 298833, Note_on_c, 0, 76, 118
1, 299129, Note_off_c, 0, 76, 118
1, 299154, Note_on_c, 0, 83, 98
1, 299464, Note_off_c, 0, 83, 98
1, 299478, Note_on_c, 0, 76, 111
1, 299748, Note_off_c, 0, 76, 111
1, 299758, Note_on_c, 0, 83, 102
1, 302370, Note_off_c, 0, 83, 102
1, 302416, Note_on_c, 0, 81, 115
1, 302544, Note_off_c, 0, 81, 115
1, 302595, Note_on_c, 0, 79, 116
1, 302697, Note_off_c, 0, 79, 116
1, 302774, Note_on_c, 0, 81, 122
1, 303108, Note_off_c, 0, 81, 122
1, 303180, Note_on_c, 0, 83, 113
1, 303540, Note_off_c, 0, 83, 113
1, 303581, Note_on_c, 0, 82, 114
1, 303658, Note_off_c, 0, 82, 114
1, 305776, Note_on_c, 0, 71, 110
1, 306058, Note_off_c, 0, 71, 110
1, 306109, Note_on_c, 0, 76, 123
1, 306515, Note_off_c, 0, 76, 123
1, 306741, Note_on_c, 0, 83, 115
1, 307383, Note_off_c, 0, 83, 115
1, 307429, Note_on_c, 0, 82, 113
1, 307691, Note_off_c, 0, 82, 113
1, 307726, Note_on_c, 0, 83, 106
1, 309124, Note_off_c, 0, 83, 106
1, 309170, Note_on_c, 0, 84, 101
1, 309735, Note_off_c, 0, 84, 101
1, 309801, Note_on_c, 0, 83, 107
1, 309939, Note_off_c, 0, 83, 107
1, 309980, Note_on_c, 0, 81, 113
1, 310118, Note_off_c, 0, 81, 113
1, 310200, Note_on_c, 0, 79, 114
1, 310349, Note_off_c, 0, 79, 114
1, 310415, Note_on_c, 0, 81, 113
1, 310538, Note_off_c, 0, 81, 113
1, 310553, Note_on_c, 0, 84, 99
1, 310666, Note_off_c, 0, 84, 99
1, 310691, Note_on_c, 0, 86, 108
1, 310850, Note_off_c, 0, 86, 108
1, 310911, Note_on_c, 0, 83, 99
1, 314992, Note_off_c, 0, 83, 99
1, 315087, Note_on_c, 0, 81, 109
1, 315220, Note_off_c, 0, 81, 109
1, 315235, Note_on_c, 0, 79, 116
1, 315399, Note_off_c, 0, 79, 116
1, 315465, Note_on_c, 0, 76, 111
1, 315711, Note_off_c, 0, 76, 111
1, 316266, Note_on_c, 0, 76, 117
1, 316584, Note_off_c, 0, 76, 117
1, 317057, Note_on_c, 0, 76, 121
1, 317391, Note_off_c, 0, 76, 121
1, 317807, Note_on_c, 0, 76, 118
1, 319956, Note_off_c, 0, 76, 118
1, 320048, Note_on_c, 0, 74, 107
1, 320264, Note_off_c, 0, 74, 107
1, 320330, Note_on_c, 0, 76, 123
1, 320643, Note_off_c, 0, 76, 123
1, 320833, Note_on_c, 0, 64, 117
1, 321126, Note_off_c, 0, 64, 117
1, 325533, Note_on_c, 0, 71, 108
1, 325826, Note_off_c, 0, 71, 108
1, 326283, Note_on_c, 0, 71, 106
1, 326545, Note_off_c, 0, 71, 106
1, 327069, Note_on_c, 0, 71, 105
1, 329985, Note_off_c, 0, 71, 105
1, 330048, Note_on_c, 0, 69, 111
1, 330285, Note_off_c, 0, 69, 111
1, 330358, Note_on_c, 0, 67, 115
1, 330837, Note_off_c, 0, 67, 115
1, 330910, Note_on_c, 0, 64, 119
1, 331348, Note_off_c, 0, 64, 119
1, 333330, Note_on_c, 0, 65, 118
1, 333468, Note_off_c, 0, 65, 118
1, 333482, Note_on_c, 0, 66, 119
1, 334864, Note_off_c, 0, 66, 119
1, 334867, Note_on_c, 0, 64, 127
1, 335057, Note_off_c, 0, 64, 127
1, 335086, Note_on_c, 0, 62, 121
1, 335320, Note_off_c, 0, 62, 121
1, 335323, Note_on_c, 0, 59, 107
1, 338117, Note_off_c, 0, 59, 107
1, 338270, Note_on_c, 0, 62, 108
1, 338573, Note_off_c, 0, 62, 108
1, 338573, Note_on_c, 0, 64, 117
1, 338807, Note_off_c, 0, 64, 117
1, 338817, Note_on_c, 0, 66, 104
1, 340166, Note_off_c, 0, 66, 104
1, 340166, Note_on_c, 0, 64, 108
1, 340348, Note_off_c, 0, 64, 108
1, 340384, Note_on_c, 0, 66, 109
1, 340607, Note_off_c, 0, 66, 109
1, 340680, Note_on_c, 0, 64, 116
1, 340818, Note_off_c, 0, 64, 116
1, 340858, Note_on_c, 0, 62, 100
1, 341143, Note_off_c, 0, 62, 100
1, 341157, Note_on_c, 0, 59, 95
1, 343281, Note_off_c, 0, 59, 95
1, 343591, Note_on_c, 0, 66, 114
1, 345178, Note_off_c, 0, 66, 114
1, 345188, Note_on_c, 0, 64, 106
1, 345404, Note_off_c, 0, 64, 106
1, 345445, Note_on_c, 0, 66, 114
1, 345717, Note_off_c, 0, 66, 114
1, 346236, Note_on_c, 0, 66, 111
1, 346488, Note_off_c, 0, 66, 111
1, 347079, Note_on_c, 0, 66, 108
1, 347356, Note_off_c, 0, 66, 108
1, 347936, Note_on_c, 0, 66, 104
1, 350137, Note_off_c, 0, 66, 104
1, 350140, Note_on_c, 0, 64, 114
1, 350392, Note_off_c, 0, 64, 114
1, 350399, Note_on_c, 0, 62, 115
1, 350611, Note_off_c, 0, 62, 115
1, 350624, Note_on_c, 0, 59, 116
1, 351189, Note_off_c, 0, 59, 116
1, 351240, Note_on_c, 0, 59, 119
1, 351528, Note_off_c, 0, 59, 119
1, 353531, Note_on_c, 0, 71, 107
1, 355266, Note_off_c, 0, 71, 107
1, 355266, Note_on_c, 0, 67, 111
1, 355420, Note_off_c, 0, 67, 111
1, 355425, Note_on_c, 0, 66, 110
1, 355569, Note_off_c, 0, 66, 110
1, 355589, Note_on_c, 0, 64, 110
1, 356108, Note_off_c, 0, 64, 110
1, 356190, Note_on_c, 0, 71, 78
1, 357712, Note_off_c, 0, 71, 78
1, 357829, Note_on_c, 0, 71, 84
1, 358183, Note_off_c, 0, 71, 84
1, 358199, Note_on_c, 0, 66, 88
1, 358764, Note_off_c, 0, 66, 88
1, 358784, Note_on_c, 0, 64, 85
1, 359123, Note_off_c, 0, 64, 85
1, 359123, End_track
0, 0, End_of_file
