0, 0, Header, 1, 1, 192
1, 0, Start_track
1, 0, Title_t, "Melody"
1, 0, Tempo, 322580
1, 0, Key_signature, -4, "major"
1, 0, Time_signature, 4, 2, 24, 8
1, 1238, Note_on_c, 0, 75, 125
1, 1339, Note_off_c, 0, 75, 125
1, 1360, Note_on_c, 0, 79, 127
1, 1430, Note_off_c, 0, 79, 127
1, 1540, Note_on_c, 0, 77, 117
1, 1578, Note_off_c, 0, 77, 117
1, 1621, Note_on_c, 0, 75, 124
1, 1710, Note_off_c, 0, 75, 124
1, 1743, Note_on_c, 0, 75, 119
1, 1814, Note_off_c, 0, 75, 119
1, 1835, Note_on_c, 0, 79, 125
1, 1904, Note_off_c, 0, 79, 125
1, 1962, Note_on_c, 0, 79, 112
1, 2100, Note_off_c, 0, 79, 112
1, 2124, Note_on_c, 0, 75, 122
1, 2200, Note_off_c, 0, 75, 122
1, 2224, Note_on_c, 0, 77, 120
1, 2296, Note_off_c, 0, 77, 120
1, 2310, Note_on_c, 0, 75, 120
1, 2356, Note_off_c, 0, 75, 120
1, 2393, Note_on_c, 0, 79, 122
1, 2448, Note_off_c, 0, 79, 122
1, 2499, Note_on_c, 0, 75, 110
1, 2552, Note_off_c, 0, 75, 110
1, 2579, Note_on_c, 0, 80, 116
1, 2662, Note_off_c, 0, 80, 116
1, 2698, Note_on_c, 0, 84, 100
1, 3203, Note_off_c, 0, 84, 100
1, 3343, Note_on_c, 0, 83, 101
1, 3466, Note_off_c, 0, 83, 101
1, 3472, Note_on_c, 0, 84, 116
1, 3528, Note_off_c, 0, 84, 116
1, 3561, Note_on_c, 0, 75, 108
1, 3650, Note_off_c, 0, 75, 108
1, 3652, Note_on_c, 0, 76, 116
1, 3724, Note_off_c, 0, 76, 116
1, 3725, Note_on_c, 0, 77, 115
1, 3817, Note_off_c, 0, 77, 115
1, 3845, Note_on_c, 0, 80, 100
1, 4034, Note_off_c, 0, 80, 100
1, 4052, Note_on_c, 0, 77, 103
1, 4123, Note_off_c, 0, 77, 103
1, 4129, Note_on_c, 0, 79, 108
1, 4233, Note_off_c, 0, 79, 108
1, 4241, Note_on_c, 0, 80, 114
1, 4301, Note_off_c, 0, 80, 114
1, 4309, Note_on_c, 0, 82, 121
1, 4400, Note_off_c, 0, 82, 121
1, 4432, Note_on_c, 0, 80, 112
1, 4480, Note_off_c, 0, 80, 112
1, 4498, Note_on_c, 0, 79, 113
1, 4628, Note_off_c, 0, 79, 113
1, 4637, Note_on_c, 0, 77, 109
1, 4700, Note_off_c, 0, 77, 109
1, 4712, Note_on_c, 0, 75, 113
1, 4773, Note_off_c, 0, 75, 113
1, 4819, Note_on_c, 0, 74, 106
1, 4873, Note_off_c, 0, 74, 106
1, 4891, Note_on_c, 0, 73, 100
1, 5215, Note_off_c, 0, 73, 100
1, 5406, Note_on_c, 0, 75, 105
1, 5640, Note_off_c, 0, 75, 105
1, 5686, Note_on_c, 0, 68, 108
1, 5769, Note_off_c, 0, 68, 108
1, 5778, Note_on_c, 0, 71, 116
1, 5847, Note_off_c, 0, 71, 116
1, 5856, Note_on_c, 0, 72, 117
1, 5917, Note_off_c, 0, 72, 117
1, 5968, Note_on_c, 0, 68, 94
1, 6040, Note_off_c, 0, 68, 94
1, 6050, Note_on_c, 0, 71, 123
1, 6126, Note_off_c, 0, 71, 123
1, 6136, Note_on_c, 0, 72, 117
1, 6212, Note_off_c, 0, 72, 117
1, 6237, Note_on_c, 0, 75, 117
1, 6323, Note_off_c, 0, 75, 117
1, 6362, Note_on_c, 0, 72, 106
1, 6397, Note_off_c, 0, 72, 106
1, 6418, Note_on_c, 0, 80, 111
1, 6523, Note_off_c, 0, 80, 111
1, 6553, Note_on_c, 0, 77, 109
1, 6611, Note_off_c, 0, 77, 109
1, 6614, Note_on_c, 0, 78, 118
1, 6663, Note_off_c, 0, 78, 118
1, 6731, Note_on_c, 0, 77, 117
1, 6792, Note_off_c, 0, 77, 117
1, 6806, Note_on_c, 0, 75, 116
1, 6892, Note_off_c, 0, 75, 116
1, 6927, Note_on_c, 0, 72, 119
1, 6997, Note_off_c, 0, 72, 119
1, 7021, Note_on_c, 0, 71, 122
1, 7048, Note_off_c, 0, 71, 122
1, 7055, Note_on_c, 0, 72, 110
1, 7085, Note_off_c, 0, 72, 110
1, 7108, Note_on_c, 0, 72, 109
1, 7141, Note_off_c, 0, 72, 109
1, 7366, Note_on_c, 0, 77, 109
1, 7398, Note_off_c, 0, 77, 109
1, 7402, Note_on_c, 0, 79, 121
1, 7484, Note_off_c, 0, 79, 121
1, 7566, Note_on_c, 0, 78, 116
1, 7651, Note_off_c, 0, 78, 116
1, 7782, Note_on_c, 0, 79, 119
1, 7871, Note_off_c, 0, 79, 119
1, 7914, Note_on_c, 0, 78, 111
1, 7933, Note_off_c, 0, 78, 111
1, 7936, Note_on_c, 0, 79, 115
1, 7992, Note_off_c, 0, 79, 115
1, 8078, Note_on_c, 0, 77, 114
1, 8130, Note_off_c, 0, 77, 114
1, 8144, Note_on_c, 0, 79, 112
1, 8236, Note_off_c, 0, 79, 112
1, 8259, Note_on_c, 0, 77, 114
1, 8308, Note_off_c, 0, 77, 114
1, 8327, Note_on_c, 0, 75, 109
1, 8378, Note_off_c, 0, 75, 109
1, 8433, Note_on_c, 0, 73, 102
1, 8449, Note_off_c, 0, 73, 102
1, 8453, Note_on_c, 0, 72, 107
1, 8510, Note_off_c, 0, 72, 107
1, 8521, Note_on_c, 0, 70, 120
1, 8602, Note_off_c, 0, 70, 120
1, 8637, Note_on_c, 0, 73, 115
1, 8708, Note_off_c, 0, 73, 115
1, 8731, Note_on_c, 0, 72, 106
1, 8946, Note_off_c, 0, 72, 106
1, 9093, Note_on_c, 0, 73, 111
1, 9115, Note_off_c, 0, 73, 111
1, 9120, Note_on_c, 0, 71, 121
1, 9180, Note_off_c, 0, 71, 121
1, 9197, Note_on_c, 0, 72, 119
1, 9275, Note_off_c, 0, 72, 119
1, 9287, Note_on_c, 0, 75, 117
1, 9367, Note_off_c, 0, 75, 117
1, 9398, Note_on_c, 0, 72, 107
1, 9470, Note_off_c, 0, 72, 107
1, 9473, Note_on_c, 0, 80, 118
1, 9573, Note_off_c, 0, 80, 118
1, 9613, Note_on_c, 0, 79, 107
1, 9726, Note_off_c, 0, 79, 107
1, 9783, Note_on_c, 0, 78, 96
1, 10072, Note_off_c, 0, 78, 96
1, 10244, Note_on_c, 0, 80, 115
1, 10334, Note_off_c, 0, 80, 115
1, 10378, Note_on_c, 0, 80, 105
1, 10534, Note_off_c, 0, 80, 105
1, 10555, Note_on_c, 0, 76, 104
1, 10580, Note_off_c, 0, 76, 104
1, 10643, Note_on_c, 0, 77, 111
1, 10701, Note_off_c, 0, 77, 111
1, 10741, Note_on_c, 0, 80, 109
1, 10804, Note_off_c, 0, 80, 109
1, 10839, Note_on_c, 0, 77, 113
1, 10893, Note_off_c, 0, 77, 113
1, 10937, Note_on_c, 0, 76, 108
1, 10991, Note_off_c, 0, 76, 108
1, 11002, Note_on_c, 0, 80, 117
1, 11097, Note_off_c, 0, 80, 117
1, 11114, Note_on_c, 0, 77, 90
1, 11160, Note_off_c, 0, 77, 90
1, 11191, Note_on_c, 0, 75, 119
1, 11274, Note_off_c, 0, 75, 119
1, 11312, Note_on_c, 0, 72, 122
1, 11361, Note_off_c, 0, 72, 122
1, 11396, Note_on_c, 0, 77, 115
1, 11457, Note_off_c, 0, 77, 115
1, 11494, Note_on_c, 0, 75, 114
1, 11578, Note_off_c, 0, 75, 114
1, 11772, Note_on_c, 0, 80, 121
1, 11865, Note_off_c, 0, 80, 121
1, 11868, Note_on_c, 0, 77, 122
1, 11953, Note_off_c, 0, 77, 122
1, 11959, Note_on_c, 0, 75, 119
1, 12050, Note_off_c, 0, 75, 119
1, 12072, Note_on_c, 0, 74, 119
1, 12132, Note_off_c, 0, 74, 119
1, 12155, Note_on_c, 0, 73, 124
1, 12205, Note_off_c, 0, 73, 124
1, 12279, Note_on_c, 0, 79, 107
1, 12406, Note_off_c, 0, 79, 107
1, 12415, Note_on_c, 0, 75, 94
1, 12457, Note_off_c, 0, 75, 94
1, 12469, Note_on_c, 0, 73, 124
1, 12537, Note_off_c, 0, 73, 124
1, 12541, Note_on_c, 0, 72, 102
1, 13074, Note_off_c, 0, 72, 102
1, 13074, End_track
0, 0, End_of_file
