0, 0, Header, 1, 1, 192
1, 0, Start_track
1, 0, Title_t, "Melody"
1, 0, Tempo, 215827
1, 0, Key_signature, -1, "major"
1, 0, Time_signature, 4, 2, 24, 8
1, 7573, Note_on_c, 0, 69, 110
1, 8203, Note_off_c, 0, 69, 110
1, 8310, Note_on_c, 0, 69, 116
1, 8665, Note_off_c, 0, 69, 116
1, 8686, Note_on_c, 0, 69, 115
1, 8972, Note_off_c, 0, 69, 115
1, 8981, Note_on_c, 0, 69, 109
1, 9354, Note_off_c, 0, 69, 109
1, 9422, Note_on_c, 0, 69, 110
1, 9610, Note_off_c, 0, 69, 110
1, 9646, Note_on_c, 0, 67, 106
1, 9733, Note_off_c, 0, 67, 106
1, 9831, Note_on_c, 0, 69, 109
1, 10128, Note_off_c, 0, 69, 109
1, 10200, Note_on_c, 0, 69, 108
1, 10383, Note_off_c, 0, 69, 108
1, 10388, Note_on_c, 0, 67, 88
1, 10476, Note_off_c, 0, 67, 88
1, 10506, Note_on_c, 0, 69, 108
1, 10703, Note_off_c, 0, 69, 108
1, 10724, Note_on_c, 0, 67, 107
1, 10778, Note_off_c, 0, 67, 107
1, 10799, Note_on_c, 0, 69, 106
1, 10886, Note_off_c, 0, 69, 106
1, 10904, Note_on_c, 0, 67, 106
1, 10978, Note_off_c, 0, 67, 106
1, 10983, Note_on_c, 0, 65, 106
1, 11164, Note_off_c, 0, 65, 106
1, 11178, Note_on_c, 0, 62, 98
1, 11339, Note_off_c, 0, 62, 98
1, 11676, Note_on_c, 0, 69, 105
1, 11959, Note_off_c, 0, 69, 105
1, 11988, Note_on_c, 0, 67, 104
1, 12086, Note_off_c, 0, 67, 104
1, 12118, Note_on_c, 0, 65, 111
1, 12188, Note_off_c, 0, 65, 111
1, 12204, Note_on_c, 0, 62, 107
1, 12263, Note_off_c, 0, 62, 107
1, 12279, Note_on_c, 0, 65, 106
1, 12360, Note_off_c, 0, 65, 106
1, 12403, Note_on_c, 0, 62, 106
1, 12475, Note_off_c, 0, 62, 106
1, 12493, Note_on_c, 0, 60, 106
1, 12560, Note_off_c, 0, 60, 106
1, 12578, Note_on_c, 0, 59, 108
1, 12654, Note_off_c, 0, 59, 108
1, 12675, Note_on_c, 0, 62, 109
1, 12743, Note_off_c, 0, 62, 109
1, 12793, Note_on_c, 0, 59, 109
1, 12960, Note_off_c, 0, 59, 109
1, 12979, Note_on_c, 0, 57, 107
1, 13087, Note_off_c, 0, 57, 107
1, 13106, Note_on_c, 0, 59, 107
1, 13151, Note_off_c, 0, 59, 107
1, 13170, Note_on_c, 0, 57, 107
1, 13335, Note_off_c, 0, 57, 107
1, 13367, Note_on_c, 0, 55, 101
1, 13504, Note_off_c, 0, 55, 101
1, 13531, Note_on_c, 0, 57, 104
1, 13618, Note_off_c, 0, 57, 104
1, 13665, Note_on_c, 0, 53, 101
1, 14042, Note_off_c, 0, 53, 101
1, 14129, Note_on_c, 0, 55, 100
1, 14205, Note_off_c, 0, 55, 100
1, 14313, Note_on_c, 0, 57, 107
1, 14385, Note_off_c, 0, 57, 107
1, 14951, Note_on_c, 0, 57, 118
1, 15019, Note_off_c, 0, 57, 118
1, 15029, Note_on_c, 0, 59, 109
1, 15112, Note_off_c, 0, 59, 109
1, 15117, Note_on_c, 0, 62, 109
1, 15185, Note_off_c, 0, 62, 109
1, 15201, Note_on_c, 0, 65, 109
1, 15277, Note_off_c, 0, 65, 109
1, 15320, Note_on_c, 0, 69, 114
1, 15388, Note_off_c, 0, 69, 114
1, 15413, Note_on_c, 0, 71, 121
1, 15467, Note_off_c, 0, 71, 121
1, 15476, Note_on_c, 0, 74, 116
1, 15568, Note_off_c, 0, 74, 116
1, 15575, Note_on_c, 0, 71, 118
1, 15874, Note_off_c, 0, 71, 118
1, 16273, Note_on_c, 0, 68, 97
1, 16356, Note_off_c, 0, 68, 97
1, 16370, Note_on_c, 0, 70, 114
1, 16439, Note_off_c, 0, 70, 114
1, 16467, Note_on_c, 0, 69, 108
1, 16540, Note_off_c, 0, 69, 108
1, 16563, Note_on_c, 0, 67, 101
1, 16624, Note_off_c, 0, 67, 101
1, 16634, Note_on_c, 0, 69, 114
1, 16687, Note_off_c, 0, 69, 114
1, 16724, Note_on_c, 0, 74, 111
1, 16811, Note_off_c, 0, 74, 111
1, 16830, Note_on_c, 0, 71, 114
1, 17117, Note_off_c, 0, 71, 114
1, 17139, Note_on_c, 0, 69, 116
1, 17215, Note_off_c, 0, 69, 116
1, 17223, Note_on_c, 0, 65, 116
1, 17290, Note_off_c, 0, 65, 116
1, 17293, Note_on_c, 0, 62, 110
1, 17381, Note_off_c, 0, 62, 110
1, 17798, Note_on_c, 0, 57, 112
1, 17858, Note_off_c, 0, 57, 112
1, 17868, Note_on_c, 0, 59, 108
1, 17927, Note_off_c, 0, 59, 108
1, 17943, Note_on_c, 0, 62, 106
1, 18020, Note_off_c, 0, 62, 106
1, 18040, Note_on_c, 0, 65, 99
1, 18115, Note_off_c, 0, 65, 99
1, 18115, Note_on_c, 0, 57, 109
1, 18218, Note_off_c, 0, 57, 109
1, 18232, Note_on_c, 0, 59, 112
1, 18320, Note_off_c, 0, 59, 112
1, 18320, Note_on_c, 0, 62, 115
1, 18419, Note_off_c, 0, 62, 115
1, 18420, Note_on_c, 0, 65, 116
1, 18494, Note_off_c, 0, 65, 116
1, 18497, Note_on_c, 0, 69, 113
1, 18587, Note_off_c, 0, 69, 113
1, 18592, Note_on_c, 0, 71, 118
1, 18671, Note_off_c, 0, 71, 118
1, 18680, Note_on_c, 0, 74, 116
1, 18801, Note_off_c, 0, 74, 116
1, 18806, Note_on_c, 0, 69, 108
1, 18933, Note_off_c, 0, 69, 108
1, 19341, Note_on_c, 0, 69, 114
1, 19436, Note_off_c, 0, 69, 114
1, 19456, Note_on_c, 0, 71, 118
1, 19529, Note_off_c, 0, 71, 118
1, 19540, Note_on_c, 0, 69, 113
1, 19628, Note_off_c, 0, 69, 113
1, 19631, Note_on_c, 0, 65, 107
1, 19692, Note_off_c, 0, 65, 107
1, 19704, Note_on_c, 0, 62, 111
1, 19785, Note_off_c, 0, 62, 111
1, 19816, Note_on_c, 0, 59, 105
1, 19884, Note_off_c, 0, 59, 105
1, 19901, Note_on_c, 0, 64, 117
1, 19981, Note_off_c, 0, 64, 117
1, 19994, Note_on_c, 0, 62, 113
1, 20053, Note_off_c, 0, 62, 113
1, 20072, Note_on_c, 0, 59, 111
1, 20160, Note_off_c, 0, 59, 111
1, 20163, Note_on_c, 0, 57, 113
1, 20222, Note_off_c, 0, 57, 113
1, 20240, Note_on_c, 0, 53, 114
1, 20393, Note_off_c, 0, 53, 114
1, 20432, Note_on_c, 0, 57, 107
1, 20563, Note_off_c, 0, 57, 107
1, 21068, Note_on_c, 0, 46, 118
1, 21172, Note_off_c, 0, 46, 118
1, 21183, Note_on_c, 0, 53, 111
1, 21239, Note_off_c, 0, 53, 111
1, 21264, Note_on_c, 0, 58, 108
1, 21336, Note_off_c, 0, 58, 108
1, 21347, Note_on_c, 0, 63, 114
1, 21402, Note_off_c, 0, 63, 114
1, 21426, Note_on_c, 0, 44, 117
1, 21667, Note_off_c, 0, 44, 117
1, 21682, Note_on_c, 0, 63, 106
1, 21749, Note_off_c, 0, 63, 106
1, 21772, Note_on_c, 0, 46, 115
1, 22045, Note_off_c, 0, 46, 115
1, 22340, Note_on_c, 0, 46, 118
1, 22458, Note_off_c, 0, 46, 118
1, 22464, Note_on_c, 0, 53, 112
1, 22525, Note_off_c, 0, 53, 112
1, 22532, Note_on_c, 0, 58, 109
1, 22599, Note_off_c, 0, 58, 109
1, 22626, Note_on_c, 0, 60, 110
1, 22726, Note_off_c, 0, 60, 110
1, 22758, Note_on_c, 0, 53, 105
1, 22813, Note_off_c, 0, 53, 105
1, 22828, Note_on_c, 0, 58, 112
1, 22875, Note_off_c, 0, 58, 112
1, 22885, Note_on_c, 0, 63, 119
1, 22993, Note_off_c, 0, 63, 119
1, 23002, Note_on_c, 0, 58, 95
1, 23154, Note_off_c, 0, 58, 95
1, 23399, Note_on_c, 0, 58, 112
1, 23503, Note_off_c, 0, 58, 112
1, 23537, Note_on_c, 0, 60, 112
1, 23595, Note_off_c, 0, 60, 112
1, 23595, Note_on_c, 0, 63, 117
1, 23678, Note_off_c, 0, 63, 117
1, 23703, Note_on_c, 0, 65, 109
1, 23777, Note_off_c, 0, 65, 109
1, 23800, Note_on_c, 0, 63, 121
1, 23878, Note_off_c, 0, 63, 121
1, 23891, Note_on_c, 0, 65, 108
1, 23953, Note_off_c, 0, 65, 108
1, 23960, Note_on_c, 0, 70, 116
1, 24074, Note_off_c, 0, 70, 116
1, 24099, Note_on_c, 0, 71, 117
1, 24167, Note_off_c, 0, 71, 117
1, 24180, Note_on_c, 0, 68, 117
1, 24271, Note_off_c, 0, 68, 117
1, 24283, Note_on_c, 0, 66, 112
1, 24361, Note_off_c, 0, 66, 112
1, 24371, Note_on_c, 0, 63, 120
1, 24487, Note_off_c, 0, 63, 120
1, 24498, Note_on_c, 0, 68, 95
1, 24551, Note_off_c, 0, 68, 95
1, 24566, Note_on_c, 0, 65, 111
1, 24655, Note_off_c, 0, 65, 111
1, 24679, Note_on_c, 0, 60, 109
1, 24748, Note_off_c, 0, 60, 109
1, 24763, Note_on_c, 0, 58, 109
1, 24828, Note_off_c, 0, 58, 109
1, 24845, Note_on_c, 0, 53, 110
1, 24923, Note_off_c, 0, 53, 110
1, 24946, Note_on_c, 0, 51, 107
1, 25038, Note_off_c, 0, 51, 107
1, 25045, Note_on_c, 0, 58, 109
1, 25110, Note_off_c, 0, 58, 109
1, 25129, Note_on_c, 0, 56, 103
1, 25213, Note_off_c, 0, 56, 103
1, 25247, Note_on_c, 0, 53, 111
1, 25327, Note_off_c, 0, 53, 111
1, 25353, Note_on_c, 0, 51, 108
1, 25479, Note_off_c, 0, 51, 108
1, 25525, Note_on_c, 0, 53, 109
1, 25619, Note_off_c, 0, 53, 109
1, 25641, Note_on_c, 0, 46, 108
1, 25836, Note_off_c, 0, 46, 108
1, 26306, Note_on_c, 0, 70, 115
1, 26435, Note_off_c, 0, 70, 115
1, 26444, Note_on_c, 0, 66, 100
1, 26505, Note_off_c, 0, 66, 100
1, 26528, Note_on_c, 0, 68, 111
1, 26592, Note_off_c, 0, 68, 111
1, 26626, Note_on_c, 0, 63, 116
1, 26706, Note_off_c, 0, 63, 116
1, 26715, Note_on_c, 0, 60, 108
1, 26806, Note_off_c, 0, 60, 108
1, 26850, Note_on_c, 0, 58, 100
1, 26888, Note_off_c, 0, 58, 100
1, 26908, Note_on_c, 0, 62, 108
1, 26989, Note_off_c, 0, 62, 108
1, 27026, Note_on_c, 0, 65, 105
1, 27110, Note_off_c, 0, 65, 105
1, 27306, Note_on_c, 0, 64, 111
1, 27383, Note_off_c, 0, 64, 111
1, 27403, Note_on_c, 0, 67, 103
1, 27492, Note_off_c, 0, 67, 103
1, 27580, Note_on_c, 0, 65, 112
1, 27998, Note_off_c, 0, 65, 112
1, 28019, Note_on_c, 0, 62, 97
1, 28075, Note_off_c, 0, 62, 97
1, 28089, Note_on_c, 0, 67, 113
1, 28175, Note_off_c, 0, 67, 113
1, 28187, Note_on_c, 0, 65, 111
1, 28249, Note_off_c, 0, 65, 111
1, 28267, Note_on_c, 0, 62, 110
1, 28364, Note_off_c, 0, 62, 110
1, 28383, Note_on_c, 0, 60, 97
1, 28442, Note_off_c, 0, 60, 97
1, 28456, Note_on_c, 0, 64, 118
1, 28533, Note_off_c, 0, 64, 118
1, 28552, Note_on_c, 0, 61, 106
1, 28624, Note_off_c, 0, 61, 106
1, 28640, Note_on_c, 0, 59, 109
1, 28708, Note_off_c, 0, 59, 109
1, 28719, Note_on_c, 0, 58, 109
1, 28802, Note_off_c, 0, 58, 109
1, 28819, Note_on_c, 0, 57, 110
1, 28886, Note_off_c, 0, 57, 110
1, 28905, Note_on_c, 0, 56, 107
1, 28995, Note_off_c, 0, 56, 107
1, 29010, Note_on_c, 0, 55, 103
1, 29092, Note_off_c, 0, 55, 103
1, 29119, Note_on_c, 0, 59, 107
1, 29201, Note_off_c, 0, 59, 107
1, 29223, Note_on_c, 0, 57, 106
1, 29301, Note_off_c, 0, 57, 106
1, 29319, Note_on_c, 0, 53, 108
1, 29400, Note_off_c, 0, 53, 108
1, 29412, Note_on_c, 0, 52, 98
1, 29544, Note_off_c, 0, 52, 98
1, 29576, Note_on_c, 0, 53, 104
1, 29669, Note_off_c, 0, 53, 104
1, 29762, Note_on_c, 0, 57, 108
1, 29882, Note_off_c, 0, 57, 108
1, 30218, Note_on_c, 0, 57, 111
1, 30277, Note_off_c, 0, 57, 111
1, 30292, Note_on_c, 0, 59, 105
1, 30342, Note_off_c, 0, 59, 105
1, 30355, Note_on_c, 0, 61, 109
1, 30410, Note_off_c, 0, 61, 109
1, 30438, Note_on_c, 0, 65, 108
1, 30512, Note_off_c, 0, 65, 108
1, 30546, Note_on_c, 0, 69, 108
1, 30621, Note_off_c, 0, 69, 108
1, 30641, Note_on_c, 0, 71, 117
1, 30716, Note_off_c, 0, 71, 117
1, 30723, Note_on_c, 0, 73, 119
1, 30852, Note_off_c, 0, 73, 119
1, 31268, Note_on_c, 0, 73, 110
1, 31349, Note_off_c, 0, 73, 110
1, 31366, Note_on_c, 0, 71, 115
1, 31437, Note_off_c, 0, 71, 115
1, 31466, Note_on_c, 0, 69, 105
1, 31521, Note_off_c, 0, 69, 105
1, 31526, Note_on_c, 0, 65, 104
1, 31608, Note_off_c, 0, 65, 104
1, 31632, Note_on_c, 0, 61, 96
1, 31698, Note_off_c, 0, 61, 96
1, 31719, Note_on_c, 0, 69, 102
1, 31799, Note_off_c, 0, 69, 102
1, 31809, Note_on_c, 0, 65, 107
1, 31886, Note_off_c, 0, 65, 107
1, 31908, Note_on_c, 0, 62, 110
1, 31984, Note_off_c, 0, 62, 110
1, 32019, Note_on_c, 0, 65, 109
1, 32092, Note_off_c, 0, 65, 109
1, 32112, Note_on_c, 0, 62, 110
1, 32299, Note_off_c, 0, 62, 110
1, 32311, Note_on_c, 0, 70, 103
1, 32391, Note_off_c, 0, 70, 103
1, 32406, Note_on_c, 0, 64, 120
1, 32479, Note_off_c, 0, 64, 120
1, 32495, Note_on_c, 0, 59, 111
1, 32571, Note_off_c, 0, 59, 111
1, 32581, Note_on_c, 0, 57, 113
1, 32702, Note_off_c, 0, 57, 113
1, 32780, Note_on_c, 0, 57, 111
1, 32858, Note_off_c, 0, 57, 111
1, 32872, Note_on_c, 0, 53, 106
1, 32972, Note_off_c, 0, 53, 106
1, 33045, Note_on_c, 0, 57, 107
1, 33122, Note_off_c, 0, 57, 107
1, 33145, Note_on_c, 0, 45, 114
1, 33403, Note_off_c, 0, 45, 114
1, 33577, Note_on_c, 0, 45, 117
1, 33659, Note_off_c, 0, 45, 117
1, 33659, Note_on_c, 0, 54, 115
1, 33727, Note_off_c, 0, 54, 115
1, 33747, Note_on_c, 0, 57, 110
1, 33842, Note_off_c, 0, 57, 110
1, 33851, Note_on_c, 0, 47, 109
1, 33985, Note_off_c, 0, 47, 109
1, 33994, Note_on_c, 0, 54, 108
1, 34078, Note_off_c, 0, 54, 108
1, 34356, Note_on_c, 0, 45, 114
1, 34444, Note_off_c, 0, 45, 114
1, 34463, Note_on_c, 0, 54, 110
1, 34531, Note_off_c, 0, 54, 110
1, 34550, Note_on_c, 0, 57, 111
1, 34618, Note_off_c, 0, 57, 111
1, 34621, Note_on_c, 0, 47, 103
1, 34732, Note_off_c, 0, 47, 103
1, 34743, Note_on_c, 0, 53, 112
1, 34819, Note_off_c, 0, 53, 112
1, 35113, Note_on_c, 0, 47, 117
1, 35191, Note_off_c, 0, 47, 117
1, 35210, Note_on_c, 0, 53, 111
1, 35300, Note_off_c, 0, 53, 111
1, 35309, Note_on_c, 0, 57, 110
1, 35397, Note_off_c, 0, 57, 110
1, 35397, Note_on_c, 0, 50, 113
1, 35495, Note_off_c, 0, 50, 113
1, 35506, Note_on_c, 0, 55, 109
1, 35576, Note_off_c, 0, 55, 109
1, 35908, Note_on_c, 0, 52, 114
1, 35986, Note_off_c, 0, 52, 114
1, 36008, Note_on_c, 0, 55, 108
1, 36104, Note_off_c, 0, 55, 108
1, 36123, Note_on_c, 0, 59, 114
1, 36205, Note_off_c, 0, 59, 114
1, 36215, Note_on_c, 0, 53, 112
1, 36284, Note_off_c, 0, 53, 112
1, 36296, Note_on_c, 0, 57, 107
1, 36361, Note_off_c, 0, 57, 107
1, 36686, Note_on_c, 0, 57, 115
1, 36787, Note_off_c, 0, 57, 115
1, 36806, Note_on_c, 0, 60, 118
1, 36886, Note_off_c, 0, 60, 118
1, 36900, Note_on_c, 0, 65, 121
1, 36956, Note_off_c, 0, 65, 121
1, 36964, Note_on_c, 0, 70, 114
1, 37052, Note_off_c, 0, 70, 114
1, 37065, Note_on_c, 0, 62, 121
1, 37158, Note_off_c, 0, 62, 121
1, 37452, Note_on_c, 0, 62, 123
1, 37543, Note_off_c, 0, 62, 123
1, 37551, Note_on_c, 0, 67, 118
1, 37640, Note_off_c, 0, 67, 118
1, 37640, Note_on_c, 0, 71, 118
1, 37721, Note_off_c, 0, 71, 118
1, 37751, Note_on_c, 0, 60, 119
1, 37851, Note_off_c, 0, 60, 119
1, 37915, Note_on_c, 0, 65, 119
1, 38020, Note_off_c, 0, 65, 119
1, 38031, Note_on_c, 0, 69, 119
1, 38098, Note_off_c, 0, 69, 119
1, 38129, Note_on_c, 0, 62, 116
1, 38301, Note_off_c, 0, 62, 116
1, 38314, Note_on_c, 0, 69, 116
1, 38378, Note_off_c, 0, 69, 116
1, 38407, Note_on_c, 0, 71, 113
1, 38497, Note_off_c, 0, 71, 113
1, 38515, Note_on_c, 0, 64, 118
1, 38617, Note_off_c, 0, 64, 118
1, 38631, Note_on_c, 0, 67, 116
1, 38683, Note_off_c, 0, 67, 116
1, 38697, Note_on_c, 0, 71, 118
1, 38781, Note_off_c, 0, 71, 118
1, 38787, Note_on_c, 0, 65, 104
1, 38915, Note_off_c, 0, 65, 104
1, 39695, Note_on_c, 0, 71, 121
1, 41165, Note_off_c, 0, 71, 121
1, 41183, Note_on_c, 0, 69, 108
1, 41259, Note_off_c, 0, 69, 108
1, 41271, Note_on_c, 0, 71, 117
1, 41439, Note_off_c, 0, 71, 117
1, 41460, Note_on_c, 0, 69, 116
1, 41530, Note_off_c, 0, 69, 116
1, 41542, Note_on_c, 0, 71, 119
1, 41939, Note_off_c, 0, 71, 119
1, 41949, Note_on_c, 0, 69, 114
1, 42019, Note_off_c, 0, 69, 114
1, 42028, Note_on_c, 0, 65, 113
1, 42096, Note_off_c, 0, 65, 113
1, 42121, Note_on_c, 0, 62, 111
1, 42220, Note_off_c, 0, 62, 111
1, 42839, Note_on_c, 0, 71, 119
1, 42987, Note_off_c, 0, 71, 119
1, 42988, Note_on_c, 0, 69, 98
1, 43098, Note_off_c, 0, 69, 98
1, 43137, Note_on_c, 0, 71, 118
1, 43632, Note_off_c, 0, 71, 118
1, 43668, Note_on_c, 0, 69, 91
1, 43756, Note_off_c, 0, 69, 91
1, 43837, Note_on_c, 0, 71, 117
1, 43929, Note_off_c, 0, 71, 117
1, 44059, Note_on_c, 0, 71, 116
1, 44327, Note_off_c, 0, 71, 116
1, 44357, Note_on_c, 0, 69, 105
1, 44422, Note_off_c, 0, 69, 105
1, 44445, Note_on_c, 0, 71, 117
1, 44532, Note_off_c, 0, 71, 117
1, 44557, Note_on_c, 0, 69, 113
1, 44624, Note_off_c, 0, 69, 113
1, 44636, Note_on_c, 0, 71, 116
1, 44741, Note_off_c, 0, 71, 116
1, 44753, Note_on_c, 0, 69, 115
1, 44814, Note_off_c, 0, 69, 115
1, 44833, Note_on_c, 0, 65, 110
1, 44928, Note_off_c, 0, 65, 110
1, 44950, Note_on_c, 0, 65, 110
1, 45020, Note_off_c, 0, 65, 110
1, 45039, Note_on_c, 0, 62, 114
1, 45125, Note_off_c, 0, 62, 114
1, 45151, Note_on_c, 0, 58, 110
1, 45209, Note_off_c, 0, 58, 110
1, 45227, Note_on_c, 0, 65, 116
1, 45522, Note_off_c, 0, 65, 116
1, 45639, Note_on_c, 0, 68, 112
1, 45715, Note_off_c, 0, 68, 112
1, 45734, Note_on_c, 0, 72, 117
1, 45859, Note_off_c, 0, 72, 117
1, 45914, Note_on_c, 0, 72, 120
1, 46746, Note_off_c, 0, 72, 120
1, 46763, Note_on_c, 0, 68, 122
1, 46848, Note_off_c, 0, 68, 122
1, 46855, Note_on_c, 0, 63, 117
1, 46951, Note_off_c, 0, 63, 117
1, 47561, Note_on_c, 0, 72, 115
1, 47660, Note_off_c, 0, 72, 115
1, 47684, Note_on_c, 0, 70, 98
1, 47756, Note_off_c, 0, 70, 98
1, 47838, Note_on_c, 0, 72, 120
1, 48309, Note_off_c, 0, 72, 120
1, 48341, Note_on_c, 0, 68, 112
1, 48405, Note_off_c, 0, 68, 112
1, 48420, Note_on_c, 0, 63, 115
1, 48488, Note_off_c, 0, 63, 115
1, 49059, Note_on_c, 0, 72, 119
1, 49162, Note_off_c, 0, 72, 119
1, 49177, Note_on_c, 0, 70, 115
1, 49267, Note_off_c, 0, 70, 115
1, 49352, Note_on_c, 0, 72, 113
1, 49815, Note_off_c, 0, 72, 113
1, 49847, Note_on_c, 0, 70, 108
1, 49924, Note_off_c, 0, 70, 108
1, 49998, Note_on_c, 0, 72, 114
1, 50209, Note_off_c, 0, 72, 114
1, 50628, Note_on_c, 0, 72, 117
1, 50714, Note_off_c, 0, 72, 117
1, 50730, Note_on_c, 0, 70, 116
1, 50816, Note_off_c, 0, 70, 116
1, 50879, Note_on_c, 0, 72, 112
1, 51379, Note_off_c, 0, 72, 112
1, 51386, Note_on_c, 0, 68, 112
1, 51457, Note_off_c, 0, 68, 112
1, 51476, Note_on_c, 0, 63, 113
1, 51625, Note_off_c, 0, 63, 113
1, 52164, Note_on_c, 0, 71, 116
1, 52287, Note_off_c, 0, 71, 116
1, 52296, Note_on_c, 0, 69, 91
1, 52413, Note_off_c, 0, 69, 91
1, 52446, Note_on_c, 0, 71, 9
1, 53232, Note_off_c, 0, 71, 9
1, 53246, Note_on_c, 0, 69, 110
1, 53296, Note_off_c, 0, 69, 110
1, 53431, Note_on_c, 0, 71, 113
1, 53606, Note_off_c, 0, 71, 113
1, 54008, Note_on_c, 0, 71, 114
1, 54112, Note_off_c, 0, 71, 114
1, 54123, Note_on_c, 0, 69, 109
1, 54183, Note_off_c, 0, 69, 109
1, 54256, Note_on_c, 0, 71, 114
1, 54733, Note_off_c, 0, 71, 114
1, 54770, Note_on_c, 0, 67, 110
1, 54860, Note_off_c, 0, 67, 110
1, 54884, Note_on_c, 0, 65, 109
1, 54942, Note_off_c, 0, 65, 109
1, 55534, Note_on_c, 0, 71, 124
1, 55639, Note_off_c, 0, 71, 124
1, 55653, Note_on_c, 0, 69, 116
1, 55720, Note_off_c, 0, 69, 116
1, 55803, Note_on_c, 0, 71, 122
1, 56261, Note_off_c, 0, 71, 122
1, 56279, Note_on_c, 0, 69, 118
1, 56331, Note_off_c, 0, 69, 118
1, 56447, Note_on_c, 0, 71, 117
1, 56545, Note_off_c, 0, 71, 117
1, 56670, Note_on_c, 0, 71, 121
1, 56906, Note_off_c, 0, 71, 121
1, 56917, Note_on_c, 0, 69, 107
1, 57015, Note_off_c, 0, 69, 107
1, 57026, Note_on_c, 0, 71, 118
1, 57152, Note_off_c, 0, 71, 118
1, 57175, Note_on_c, 0, 69, 111
1, 57231, Note_off_c, 0, 69, 111
1, 57322, Note_on_c, 0, 71, 115
1, 57547, Note_off_c, 0, 71, 115
1, 57561, Note_on_c, 0, 65, 115
1, 57605, Note_off_c, 0, 65, 115
1, 57616, Note_on_c, 0, 62, 110
1, 57710, Note_off_c, 0, 62, 110
1, 57729, Note_on_c, 0, 58, 111
1, 57790, Note_off_c, 0, 58, 111
1, 57808, Note_on_c, 0, 65, 112
1, 58084, Note_off_c, 0, 65, 112
1, 58103, Note_on_c, 0, 62, 99
1, 58155, Note_off_c, 0, 62, 99
1, 58210, Note_on_c, 0, 69, 117
1, 58270, Note_off_c, 0, 69, 117
1, 58414, Note_on_c, 0, 71, 120
1, 58532, Note_off_c, 0, 71, 120
1, 58546, Note_on_c, 0, 69, 117
1, 58635, Note_off_c, 0, 69, 117
1, 58644, Note_on_c, 0, 69, 122
1, 58806, Note_off_c, 0, 69, 122
1, 58816, Note_on_c, 0, 71, 120
1, 58938, Note_off_c, 0, 71, 120
1, 58943, Note_on_c, 0, 69, 117
1, 59183, Note_off_c, 0, 69, 117
1, 59210, Note_on_c, 0, 71, 117
1, 59296, Note_off_c, 0, 71, 117
1, 59299, Note_on_c, 0, 69, 114
1, 59576, Note_off_c, 0, 69, 114
1, 59985, Note_on_c, 0, 71, 113
1, 60124, Note_off_c, 0, 71, 113
1, 60134, Note_on_c, 0, 69, 112
1, 60375, Note_off_c, 0, 69, 112
1, 60385, Note_on_c, 0, 71, 112
1, 60490, Note_off_c, 0, 71, 112
1, 60553, Note_on_c, 0, 69, 112
1, 60827, Note_off_c, 0, 69, 112
1, 60972, Note_on_c, 0, 71, 103
1, 61057, Note_off_c, 0, 71, 103
1, 61093, Note_on_c, 0, 65, 110
1, 61142, Note_off_c, 0, 65, 110
1, 61147, Note_on_c, 0, 62, 112
1, 61240, Note_off_c, 0, 62, 112
1, 61263, Note_on_c, 0, 59, 96
1, 61317, Note_off_c, 0, 59, 96
1, 61346, Note_on_c, 0, 65, 112
1, 61409, Note_off_c, 0, 65, 112
1, 61451, Note_on_c, 0, 67, 113
1, 61501, Note_off_c, 0, 67, 113
1, 61510, Note_on_c, 0, 69, 108
1, 61601, Note_off_c, 0, 69, 108
1, 61644, Note_on_c, 0, 71, 117
1, 61715, Note_off_c, 0, 71, 117
1, 61725, Note_on_c, 0, 67, 113
1, 61808, Note_off_c, 0, 67, 113
1, 61819, Note_on_c, 0, 71, 116
1, 61898, Note_off_c, 0, 71, 116
1, 61910, Note_on_c, 0, 69, 112
1, 62003, Note_off_c, 0, 69, 112
1, 62018, Note_on_c, 0, 67, 112
1, 62073, Note_off_c, 0, 67, 112
1, 62090, Note_on_c, 0, 65, 116
1, 62215, Note_off_c, 0, 65, 116
1, 62234, Note_on_c, 0, 65, 115
1, 62302, Note_off_c, 0, 65, 115
1, 62302, Note_on_c, 0, 62, 116
1, 62381, Note_off_c, 0, 62, 116
1, 62412, Note_on_c, 0, 58, 111
1, 62478, Note_off_c, 0, 58, 111
1, 62483, Note_on_c, 0, 65, 111
1, 62791, Note_off_c, 0, 65, 111
1, 62900, Note_on_c, 0, 67, 116
1, 62971, Note_off_c, 0, 67, 116
1, 62987, Note_on_c, 0, 65, 111
1, 63037, Note_off_c, 0, 65, 111
1, 63055, Note_on_c, 0, 67, 112
1, 63177, Note_off_c, 0, 67, 112
1, 63184, Note_on_c, 0, 65, 116
1, 63276, Note_off_c, 0, 65, 116
1, 63293, Note_on_c, 0, 62, 115
1, 63364, Note_off_c, 0, 62, 115
1, 63383, Note_on_c, 0, 65, 111
1, 63450, Note_off_c, 0, 65, 111
1, 63452, Note_on_c, 0, 62, 116
1, 63678, Note_off_c, 0, 62, 116
1, 63690, Note_on_c, 0, 59, 109
1, 63764, Note_off_c, 0, 59, 109
1, 63765, Note_on_c, 0, 62, 111
1, 63859, Note_off_c, 0, 62, 111
1, 63859, Note_on_c, 0, 59, 103
1, 63957, Note_off_c, 0, 59, 103
1, 63974, Note_on_c, 0, 57, 111
1, 64071, Note_off_c, 0, 57, 111
1, 64156, Note_on_c, 0, 57, 110
1, 64216, Note_off_c, 0, 57, 110
1, 64232, Note_on_c, 0, 53, 103
1, 64345, Note_off_c, 0, 53, 103
1, 64807, Note_on_c, 0, 50, 109
1, 64905, Note_off_c, 0, 50, 109
1, 64920, Note_on_c, 0, 53, 110
1, 65033, Note_off_c, 0, 53, 110
1, 65048, Note_on_c, 0, 50, 101
1, 65140, Note_off_c, 0, 50, 101
1, 65240, Note_on_c, 0, 52, 118
1, 65349, Note_off_c, 0, 52, 118
1, 65423, Note_on_c, 0, 55, 107
1, 65524, Note_off_c, 0, 55, 107
1, 65538, Note_on_c, 0, 59, 110
1, 65607, Note_off_c, 0, 59, 110
1, 65634, Note_on_c, 0, 53, 113
1, 65721, Note_off_c, 0, 53, 113
1, 65732, Note_on_c, 0, 55, 107
1, 65793, Note_off_c, 0, 55, 107
1, 65809, Note_on_c, 0, 57, 108
1, 65895, Note_off_c, 0, 57, 108
1, 65945, Note_on_c, 0, 59, 109
1, 66004, Note_off_c, 0, 59, 109
1, 66010, Note_on_c, 0, 61, 111
1, 66109, Note_off_c, 0, 61, 111
1, 66117, Note_on_c, 0, 62, 112
1, 66192, Note_off_c, 0, 62, 112
1, 66204, Note_on_c, 0, 64, 116
1, 66282, Note_off_c, 0, 64, 116
1, 66297, Note_on_c, 0, 65, 111
1, 66389, Note_off_c, 0, 65, 111
1, 66395, Note_on_c, 0, 62, 114
1, 66469, Note_off_c, 0, 62, 114
1, 66484, Note_on_c, 0, 64, 116
1, 66562, Note_off_c, 0, 64, 116
1, 66577, Note_on_c, 0, 65, 113
1, 66637, Note_off_c, 0, 65, 113
1, 66686, Note_on_c, 0, 67, 114
1, 66760, Note_off_c, 0, 67, 114
1, 66777, Note_on_c, 0, 67, 119
1, 66871, Note_off_c, 0, 67, 119
1, 66876, Note_on_c, 0, 65, 114
1, 66938, Note_off_c, 0, 65, 114
1, 66952, Note_on_c, 0, 69, 123
1, 67046, Note_off_c, 0, 69, 123
1, 67077, Note_on_c, 0, 72, 115
1, 67204, Note_off_c, 0, 72, 115
1, 67251, Note_on_c, 0, 72, 120
1, 67345, Note_off_c, 0, 72, 120
1, 67364, Note_on_c, 0, 71, 118
1, 67446, Note_off_c, 0, 71, 118
1, 67963, Note_on_c, 0, 74, 106
1, 68698, Note_off_c, 0, 74, 106
1, 68706, Note_on_c, 0, 67, 100
1, 68755, Note_off_c, 0, 67, 100
1, 68767, Note_on_c, 0, 71, 118
1, 68854, Note_off_c, 0, 71, 118
1, 68872, Note_on_c, 0, 72, 113
1, 68941, Note_off_c, 0, 72, 113
1, 68948, Note_on_c, 0, 71, 110
1, 69058, Note_off_c, 0, 71, 110
1, 69070, Note_on_c, 0, 70, 112
1, 69142, Note_off_c, 0, 70, 112
1, 69153, Note_on_c, 0, 69, 111
1, 69222, Note_off_c, 0, 69, 111
1, 69240, Note_on_c, 0, 68, 111
1, 69309, Note_off_c, 0, 68, 111
1, 69310, Note_on_c, 0, 67, 109
1, 69365, Note_off_c, 0, 67, 109
1, 69432, Note_on_c, 0, 71, 115
1, 69511, Note_off_c, 0, 71, 115
1, 69521, Note_on_c, 0, 69, 112
1, 69612, Note_off_c, 0, 69, 112
1, 69615, Note_on_c, 0, 65, 104
1, 69662, Note_off_c, 0, 65, 104
1, 69678, Note_on_c, 0, 64, 120
1, 69812, Note_off_c, 0, 64, 120
1, 69861, Note_on_c, 0, 69, 111
1, 69901, Note_off_c, 0, 69, 111
1, 69919, Note_on_c, 0, 65, 105
1, 70189, Note_off_c, 0, 65, 105
1, 70297, Note_on_c, 0, 67, 110
1, 70390, Note_off_c, 0, 67, 110
1, 70432, Note_on_c, 0, 68, 105
1, 70514, Note_off_c, 0, 68, 105
1, 70903, Note_on_c, 0, 51, 112
1, 71001, Note_off_c, 0, 51, 112
1, 71021, Note_on_c, 0, 56, 114
1, 71107, Note_off_c, 0, 56, 114
1, 71122, Note_on_c, 0, 60, 112
1, 71199, Note_off_c, 0, 60, 112
1, 71213, Note_on_c, 0, 44, 119
1, 71437, Note_off_c, 0, 44, 119
1, 71622, Note_on_c, 0, 45, 120
1, 71722, Note_off_c, 0, 45, 120
1, 71735, Note_on_c, 0, 54, 110
1, 71790, Note_off_c, 0, 54, 110
1, 71816, Note_on_c, 0, 58, 111
1, 71971, Note_off_c, 0, 58, 111
1, 71983, Note_on_c, 0, 53, 112
1, 72118, Note_off_c, 0, 53, 112
1, 72498, Note_on_c, 0, 60, 104
1, 72602, Note_off_c, 0, 60, 104
1, 72617, Note_on_c, 0, 53, 117
1, 72647, Note_off_c, 0, 53, 117
1, 72666, Note_on_c, 0, 58, 112
1, 72776, Note_off_c, 0, 58, 112
1, 72793, Note_on_c, 0, 63, 118
1, 72877, Note_off_c, 0, 63, 118
1, 72888, Note_on_c, 0, 58, 107
1, 72970, Note_off_c, 0, 58, 107
1, 72971, Note_on_c, 0, 53, 114
1, 73010, Note_off_c, 0, 53, 114
1, 73027, Note_on_c, 0, 56, 112
1, 73128, Note_off_c, 0, 56, 112
1, 73465, Note_on_c, 0, 56, 110
1, 73560, Note_off_c, 0, 56, 110
1, 73564, Note_on_c, 0, 67, 113
1, 73632, Note_off_c, 0, 67, 113
1, 73632, Note_on_c, 0, 63, 116
1, 73703, Note_off_c, 0, 63, 116
1, 73752, Note_on_c, 0, 68, 104
1, 73810, Note_off_c, 0, 68, 104
1, 73835, Note_on_c, 0, 72, 105
1, 73912, Note_off_c, 0, 72, 105
1, 73934, Note_on_c, 0, 73, 111
1, 74024, Note_off_c, 0, 73, 111
1, 74031, Note_on_c, 0, 70, 110
1, 74095, Note_off_c, 0, 70, 110
1, 74137, Note_on_c, 0, 66, 100
1, 74205, Note_off_c, 0, 66, 100
1, 74620, Note_on_c, 0, 70, 113
1, 74746, Note_off_c, 0, 70, 113
1, 74760, Note_on_c, 0, 66, 107
1, 74814, Note_off_c, 0, 66, 107
1, 74820, Note_on_c, 0, 63, 113
1, 74911, Note_off_c, 0, 63, 113
1, 74995, Note_on_c, 0, 68, 115
1, 75100, Note_off_c, 0, 68, 115
1, 75116, Note_on_c, 0, 65, 108
1, 75196, Note_off_c, 0, 65, 108
1, 75223, Note_on_c, 0, 61, 105
1, 75311, Note_off_c, 0, 61, 105
1, 75368, Note_on_c, 0, 65, 106
1, 75450, Note_off_c, 0, 65, 106
1, 75474, Note_on_c, 0, 63, 112
1, 75579, Note_off_c, 0, 63, 112
1, 75601, Note_on_c, 0, 70, 103
1, 75660, Note_off_c, 0, 70, 103
1, 75682, Note_on_c, 0, 53, 111
1, 75731, Note_off_c, 0, 53, 111
1, 75749, Note_on_c, 0, 51, 108
1, 75834, Note_off_c, 0, 51, 108
1, 75857, Note_on_c, 0, 58, 105
1, 75931, Note_off_c, 0, 58, 105
1, 75932, Note_on_c, 0, 56, 107
1, 75999, Note_off_c, 0, 56, 107
1, 76008, Note_on_c, 0, 53, 107
1, 76054, Note_off_c, 0, 53, 107
1, 76083, Note_on_c, 0, 51, 110
1, 76212, Note_off_c, 0, 51, 110
1, 76244, Note_on_c, 0, 56, 113
1, 76307, Note_off_c, 0, 56, 113
1, 76328, Note_on_c, 0, 53, 106
1, 76402, Note_off_c, 0, 53, 106
1, 76440, Note_on_c, 0, 46, 110
1, 76646, Note_off_c, 0, 46, 110
1, 77048, Note_on_c, 0, 45, 115
1, 77153, Note_off_c, 0, 45, 115
1, 77153, Note_on_c, 0, 54, 107
1, 77208, Note_off_c, 0, 54, 107
1, 77224, Note_on_c, 0, 57, 104
1, 77291, Note_off_c, 0, 57, 104
1, 77302, Note_on_c, 0, 46, 113
1, 77451, Note_off_c, 0, 46, 113
1, 77867, Note_on_c, 0, 46, 110
1, 77996, Note_off_c, 0, 46, 110
1, 78045, Note_on_c, 0, 57, 109
1, 78145, Note_off_c, 0, 57, 109
1, 78160, Note_on_c, 0, 56, 111
1, 78237, Note_off_c, 0, 56, 111
1, 78243, Note_on_c, 0, 53, 112
1, 78319, Note_off_c, 0, 53, 112
1, 78330, Note_on_c, 0, 56, 106
1, 78463, Note_off_c, 0, 56, 106
1, 78482, Note_on_c, 0, 51, 106
1, 78540, Note_off_c, 0, 51, 106
1, 78564, Note_on_c, 0, 53, 115
1, 78620, Note_off_c, 0, 53, 115
1, 78647, Note_on_c, 0, 55, 105
1, 78716, Note_off_c, 0, 55, 105
1, 78730, Note_on_c, 0, 58, 110
1, 78794, Note_off_c, 0, 58, 110
1, 78822, Note_on_c, 0, 52, 112
1, 78960, Note_off_c, 0, 52, 112
1, 79425, Note_on_c, 0, 52, 114
1, 79498, Note_off_c, 0, 52, 114
1, 79509, Note_on_c, 0, 53, 108
1, 79637, Note_off_c, 0, 53, 108
1, 79676, Note_on_c, 0, 57, 108
1, 79719, Note_off_c, 0, 57, 108
1, 79723, Note_on_c, 0, 55, 108
1, 79795, Note_off_c, 0, 55, 108
1, 79804, Note_on_c, 0, 51, 103
1, 79897, Note_off_c, 0, 51, 103
1, 79971, Note_on_c, 0, 53, 116
1, 80054, Note_off_c, 0, 53, 116
1, 80071, Note_on_c, 0, 50, 107
1, 80167, Note_off_c, 0, 50, 107
1, 80186, Note_on_c, 0, 58, 109
1, 80282, Note_off_c, 0, 58, 109
1, 80328, Note_on_c, 0, 62, 109
1, 80371, Note_off_c, 0, 62, 109
1, 80393, Note_on_c, 0, 67, 107
1, 80461, Note_off_c, 0, 67, 107
1, 80500, Note_on_c, 0, 68, 112
1, 80567, Note_off_c, 0, 68, 112
1, 80578, Note_on_c, 0, 67, 117
1, 80701, Note_off_c, 0, 67, 117
1, 80705, Note_on_c, 0, 68, 111
1, 80772, Note_off_c, 0, 68, 111
1, 80779, Note_on_c, 0, 63, 119
1, 80877, Note_off_c, 0, 63, 119
1, 80892, Note_on_c, 0, 61, 106
1, 80953, Note_off_c, 0, 61, 106
1, 81000, Note_on_c, 0, 58, 105
1, 81049, Note_off_c, 0, 58, 105
1, 81066, Note_on_c, 0, 56, 103
1, 81129, Note_off_c, 0, 56, 103
1, 81140, Note_on_c, 0, 54, 106
1, 81234, Note_off_c, 0, 54, 106
1, 81443, Note_on_c, 0, 61, 107
1, 81509, Note_off_c, 0, 61, 107
1, 81517, Note_on_c, 0, 66, 105
1, 81606, Note_off_c, 0, 66, 105
1, 81609, Note_on_c, 0, 61, 107
1, 81680, Note_off_c, 0, 61, 107
1, 81699, Note_on_c, 0, 59, 105
1, 81759, Note_off_c, 0, 59, 105
1, 81779, Note_on_c, 0, 58, 109
1, 81861, Note_off_c, 0, 58, 109
1, 81872, Note_on_c, 0, 57, 106
1, 81965, Note_off_c, 0, 57, 106
1, 82667, Note_on_c, 0, 68, 111
1, 82763, Note_off_c, 0, 68, 111
1, 82787, Note_on_c, 0, 65, 111
1, 82852, Note_off_c, 0, 65, 111
1, 82871, Note_on_c, 0, 62, 106
1, 82965, Note_off_c, 0, 62, 106
1, 83071, Note_on_c, 0, 71, 112
1, 84123, Note_off_c, 0, 71, 112
1, 84144, Note_on_c, 0, 69, 98
1, 84214, Note_off_c, 0, 69, 98
1, 84230, Note_on_c, 0, 71, 112
1, 84420, Note_off_c, 0, 71, 112
1, 84423, Note_on_c, 0, 69, 104
1, 84490, Note_off_c, 0, 69, 104
1, 84520, Note_on_c, 0, 71, 111
1, 84886, Note_off_c, 0, 71, 111
1, 84917, Note_on_c, 0, 69, 107
1, 84982, Note_off_c, 0, 69, 107
1, 85017, Note_on_c, 0, 65, 108
1, 85095, Note_off_c, 0, 65, 108
1, 85122, Note_on_c, 0, 62, 110
1, 85201, Note_off_c, 0, 62, 110
1, 85650, Note_on_c, 0, 71, 108
1, 85932, Note_off_c, 0, 71, 108
1, 85944, Note_on_c, 0, 69, 102
1, 86012, Note_off_c, 0, 69, 102
1, 86028, Note_on_c, 0, 65, 106
1, 86103, Note_off_c, 0, 65, 106
1, 86118, Note_on_c, 0, 62, 109
1, 86199, Note_off_c, 0, 62, 109
1, 86209, Note_on_c, 0, 65, 104
1, 86269, Note_off_c, 0, 65, 104
1, 86283, Note_on_c, 0, 69, 104
1, 86370, Note_off_c, 0, 69, 104
1, 86393, Note_on_c, 0, 71, 113
1, 86485, Note_off_c, 0, 71, 113
1, 86488, Note_on_c, 0, 69, 110
1, 86570, Note_off_c, 0, 69, 110
1, 86607, Note_on_c, 0, 65, 110
1, 86651, Note_off_c, 0, 65, 110
1, 86663, Note_on_c, 0, 69, 113
1, 86763, Note_off_c, 0, 69, 113
1, 86773, Note_on_c, 0, 71, 116
1, 86851, Note_off_c, 0, 71, 116
1, 86863, Note_on_c, 0, 69, 114
1, 86923, Note_off_c, 0, 69, 114
1, 86956, Note_on_c, 0, 65, 98
1, 87015, Note_off_c, 0, 65, 98
1, 87039, Note_on_c, 0, 69, 114
1, 87134, Note_off_c, 0, 69, 114
1, 87156, Note_on_c, 0, 71, 115
1, 87227, Note_off_c, 0, 71, 115
1, 87246, Note_on_c, 0, 69, 115
1, 87336, Note_off_c, 0, 69, 115
1, 87341, Note_on_c, 0, 65, 111
1, 87429, Note_off_c, 0, 65, 111
1, 87429, Note_on_c, 0, 62, 112
1, 87538, Note_off_c, 0, 62, 112
1, 87552, Note_on_c, 0, 59, 101
1, 87617, Note_off_c, 0, 59, 101
1, 87625, Note_on_c, 0, 65, 107
1, 87907, Note_off_c, 0, 65, 107
1, 88008, Note_on_c, 0, 65, 107
1, 88046, Note_off_c, 0, 65, 107
1, 88056, Note_on_c, 0, 67, 109
1, 88157, Note_off_c, 0, 67, 109
1, 88173, Note_on_c, 0, 69, 107
1, 88246, Note_off_c, 0, 69, 107
1, 88285, Note_on_c, 0, 71, 116
1, 88367, Note_off_c, 0, 71, 116
1, 88389, Note_on_c, 0, 67, 114
1, 88466, Note_off_c, 0, 67, 114
1, 88486, Note_on_c, 0, 69, 110
1, 88545, Note_off_c, 0, 69, 110
1, 88554, Note_on_c, 0, 67, 112
1, 88662, Note_off_c, 0, 67, 112
1, 88669, Note_on_c, 0, 65, 108
1, 88816, Note_off_c, 0, 65, 108
1, 88886, Note_on_c, 0, 65, 110
1, 88976, Note_off_c, 0, 65, 110
1, 88976, Note_on_c, 0, 62, 106
1, 89062, Note_off_c, 0, 62, 106
1, 89157, Note_on_c, 0, 65, 107
1, 89269, Note_off_c, 0, 65, 107
1, 89278, Note_on_c, 0, 62, 111
1, 89385, Note_off_c, 0, 62, 111
1, 89951, Note_on_c, 0, 67, 112
1, 90954, Note_off_c, 0, 67, 112
1, 90995, Note_on_c, 0, 65, 103
1, 91076, Note_off_c, 0, 65, 103
1, 91094, Note_on_c, 0, 67, 111
1, 91210, Note_off_c, 0, 67, 111
1, 91217, Note_on_c, 0, 65, 106
1, 91300, Note_off_c, 0, 65, 106
1, 91383, Note_on_c, 0, 67, 113
1, 91724, Note_off_c, 0, 67, 113
1, 91760, Note_on_c, 0, 65, 110
1, 91854, Note_off_c, 0, 65, 110
1, 91872, Note_on_c, 0, 62, 95
1, 91984, Note_off_c, 0, 62, 95
1, 92027, Note_on_c, 0, 57, 105
1, 92181, Note_off_c, 0, 57, 105
1, 92426, Note_on_c, 0, 57, 112
1, 92526, Note_off_c, 0, 57, 112
1, 92532, Note_on_c, 0, 59, 112
1, 92590, Note_off_c, 0, 59, 112
1, 92602, Note_on_c, 0, 62, 112
1, 92678, Note_off_c, 0, 62, 112
1, 92703, Note_on_c, 0, 65, 108
1, 92779, Note_off_c, 0, 65, 108
1, 92809, Note_on_c, 0, 69, 108
1, 92882, Note_off_c, 0, 69, 108
1, 92910, Note_on_c, 0, 71, 118
1, 92988, Note_off_c, 0, 71, 118
1, 92997, Note_on_c, 0, 72, 120
1, 93375, Note_off_c, 0, 72, 120
1, 93381, Note_on_c, 0, 71, 117
1, 93454, Note_off_c, 0, 71, 117
1, 93464, Note_on_c, 0, 72, 119
1, 93554, Note_off_c, 0, 72, 119
1, 93569, Note_on_c, 0, 71, 119
1, 93652, Note_off_c, 0, 71, 119
1, 93670, Note_on_c, 0, 69, 115
1, 93744, Note_off_c, 0, 69, 115
1, 93758, Note_on_c, 0, 65, 105
1, 93829, Note_off_c, 0, 65, 105
1, 93866, Note_on_c, 0, 71, 112
1, 93920, Note_off_c, 0, 71, 112
1, 93949, Note_on_c, 0, 69, 112
1, 94132, Note_off_c, 0, 69, 112
1, 94144, Note_on_c, 0, 65, 105
1, 94218, Note_off_c, 0, 65, 105
1, 94236, Note_on_c, 0, 68, 112
1, 94317, Note_off_c, 0, 68, 112
1, 94338, Note_on_c, 0, 65, 109
1, 94424, Note_off_c, 0, 65, 109
1, 94433, Note_on_c, 0, 62, 115
1, 94615, Note_off_c, 0, 62, 115
1, 94631, Note_on_c, 0, 65, 113
1, 94687, Note_off_c, 0, 65, 113
1, 94705, Note_on_c, 0, 62, 114
1, 94800, Note_off_c, 0, 62, 114
1, 94816, Note_on_c, 0, 59, 114
1, 94920, Note_off_c, 0, 59, 114
1, 95002, Note_on_c, 0, 59, 117
1, 95060, Note_off_c, 0, 59, 117
1, 95074, Note_on_c, 0, 57, 113
1, 95172, Note_off_c, 0, 57, 113
1, 95446, Note_on_c, 0, 51, 114
1, 95514, Note_off_c, 0, 51, 114
1, 95524, Note_on_c, 0, 56, 108
1, 95574, Note_off_c, 0, 56, 108
1, 95612, Note_on_c, 0, 60, 116
1, 95675, Note_off_c, 0, 60, 116
1, 95697, Note_on_c, 0, 44, 122
1, 95927, Note_off_c, 0, 44, 122
1, 96000, Note_on_c, 0, 44, 126
1, 96064, Note_off_c, 0, 44, 126
1, 96077, Note_on_c, 0, 54, 118
1, 96126, Note_off_c, 0, 54, 118
1, 96142, Note_on_c, 0, 58, 116
1, 96211, Note_off_c, 0, 58, 116
1, 96235, Note_on_c, 0, 48, 115
1, 96342, Note_off_c, 0, 48, 115
1, 96839, Note_on_c, 0, 60, 115
1, 96916, Note_off_c, 0, 60, 115
1, 96930, Note_on_c, 0, 65, 116
1, 96990, Note_off_c, 0, 65, 116
1, 96997, Note_on_c, 0, 70, 112
1, 97073, Note_off_c, 0, 70, 112
1, 97117, Note_on_c, 0, 62, 111
1, 97175, Note_off_c, 0, 62, 111
1, 97188, Note_on_c, 0, 68, 122
1, 97317, Note_off_c, 0, 68, 122
1, 97686, Note_on_c, 0, 73, 108
1, 98331, Note_off_c, 0, 73, 108
1, 98355, Note_on_c, 0, 70, 109
1, 98411, Note_off_c, 0, 70, 109
1, 98421, Note_on_c, 0, 73, 108
1, 98470, Note_off_c, 0, 73, 108
1, 98486, Note_on_c, 0, 74, 111
1, 98545, Note_off_c, 0, 74, 111
1, 98559, Note_on_c, 0, 73, 112
1, 98634, Note_off_c, 0, 73, 112
1, 98653, Note_on_c, 0, 72, 112
1, 98704, Note_off_c, 0, 72, 112
1, 98709, Note_on_c, 0, 71, 116
1, 98761, Note_off_c, 0, 71, 116
1, 98771, Note_on_c, 0, 70, 117
1, 98847, Note_off_c, 0, 70, 117
1, 98857, Note_on_c, 0, 69, 113
1, 98898, Note_off_c, 0, 69, 113
1, 98909, Note_on_c, 0, 66, 113
1, 98963, Note_off_c, 0, 66, 113
1, 98972, Note_on_c, 0, 65, 113
1, 99059, Note_off_c, 0, 65, 113
1, 99071, Note_on_c, 0, 63, 114
1, 99144, Note_off_c, 0, 63, 114
1, 99165, Note_on_c, 0, 68, 118
1, 99214, Note_off_c, 0, 68, 118
1, 99219, Note_on_c, 0, 66, 115
1, 99293, Note_off_c, 0, 66, 115
1, 99307, Note_on_c, 0, 63, 122
1, 99422, Note_off_c, 0, 63, 122
1, 99429, Note_on_c, 0, 70, 100
1, 99494, Note_off_c, 0, 70, 100
1, 99504, Note_on_c, 0, 65, 116
1, 99600, Note_off_c, 0, 65, 116
1, 99611, Note_on_c, 0, 60, 113
1, 99698, Note_off_c, 0, 60, 113
1, 99704, Note_on_c, 0, 58, 111
1, 99785, Note_off_c, 0, 58, 111
1, 99791, Note_on_c, 0, 53, 115
1, 99881, Note_off_c, 0, 53, 115
1, 99893, Note_on_c, 0, 51, 110
1, 99973, Note_off_c, 0, 51, 110
1, 99978, Note_on_c, 0, 58, 113
1, 100053, Note_off_c, 0, 58, 113
1, 100065, Note_on_c, 0, 56, 105
1, 100136, Note_off_c, 0, 56, 105
1, 100158, Note_on_c, 0, 53, 115
1, 100260, Note_off_c, 0, 53, 115
1, 100265, Note_on_c, 0, 51, 110
1, 100346, Note_off_c, 0, 51, 110
1, 100358, Note_on_c, 0, 53, 111
1, 100427, Note_off_c, 0, 53, 111
1, 100439, Note_on_c, 0, 51, 112
1, 100530, Note_off_c, 0, 51, 112
1, 100533, Note_on_c, 0, 48, 110
1, 100650, Note_off_c, 0, 48, 110
1, 100655, Note_on_c, 0, 46, 110
1, 100830, Note_off_c, 0, 46, 110
1, 100835, Note_on_c, 0, 48, 115
1, 100917, Note_off_c, 0, 48, 115
1, 100940, Note_on_c, 0, 46, 114
1, 101081, Note_off_c, 0, 46, 114
1, 101775, Note_on_c, 0, 64, 119
1, 101860, Note_off_c, 0, 64, 119
1, 101869, Note_on_c, 0, 65, 114
1, 101924, Note_off_c, 0, 65, 114
1, 101951, Note_on_c, 0, 69, 118
1, 102031, Note_off_c, 0, 69, 118
1, 102063, Note_on_c, 0, 72, 121
1, 102156, Note_off_c, 0, 72, 121
1, 102174, Note_on_c, 0, 71, 121
1, 102437, Note_off_c, 0, 71, 121
1, 102461, Note_on_c, 0, 69, 110
1, 102539, Note_off_c, 0, 69, 110
1, 102550, Note_on_c, 0, 65, 112
1, 102624, Note_off_c, 0, 65, 112
1, 102634, Note_on_c, 0, 62, 111
1, 102733, Note_off_c, 0, 62, 111
1, 103326, Note_on_c, 0, 69, 113
1, 103404, Note_off_c, 0, 69, 113
1, 103414, Note_on_c, 0, 65, 110
1, 103479, Note_off_c, 0, 65, 110
1, 103494, Note_on_c, 0, 62, 112
1, 103603, Note_off_c, 0, 62, 112
1, 103610, Note_on_c, 0, 58, 109
1, 103674, Note_off_c, 0, 58, 109
1, 103686, Note_on_c, 0, 65, 110
1, 103939, Note_off_c, 0, 65, 110
1, 103994, Note_on_c, 0, 61, 99
1, 104041, Note_off_c, 0, 61, 99
1, 104075, Note_on_c, 0, 67, 111
1, 104160, Note_off_c, 0, 67, 111
1, 104171, Note_on_c, 0, 65, 111
1, 104247, Note_off_c, 0, 65, 111
1, 104261, Note_on_c, 0, 67, 102
1, 104361, Note_off_c, 0, 67, 102
1, 104370, Note_on_c, 0, 65, 111
1, 104431, Note_off_c, 0, 65, 111
1, 104448, Note_on_c, 0, 62, 112
1, 104548, Note_off_c, 0, 62, 112
1, 104553, Note_on_c, 0, 65, 111
1, 104621, Note_off_c, 0, 65, 111
1, 104633, Note_on_c, 0, 62, 113
1, 104738, Note_off_c, 0, 62, 113
1, 104752, Note_on_c, 0, 60, 111
1, 104816, Note_off_c, 0, 60, 111
1, 104825, Note_on_c, 0, 59, 107
1, 104897, Note_off_c, 0, 59, 107
1, 104920, Note_on_c, 0, 62, 115
1, 104996, Note_off_c, 0, 62, 115
1, 105010, Note_on_c, 0, 59, 107
1, 105102, Note_off_c, 0, 59, 107
1, 105122, Note_on_c, 0, 57, 108
1, 105206, Note_off_c, 0, 57, 108
1, 105228, Note_on_c, 0, 55, 98
1, 105309, Note_off_c, 0, 55, 98
1, 105320, Note_on_c, 0, 57, 101
1, 105380, Note_off_c, 0, 57, 101
1, 105401, Note_on_c, 0, 59, 107
1, 105486, Note_off_c, 0, 59, 107
1, 105500, Note_on_c, 0, 55, 100
1, 105549, Note_off_c, 0, 55, 100
1, 105573, Note_on_c, 0, 57, 110
1, 105652, Note_off_c, 0, 57, 110
1, 105670, Note_on_c, 0, 53, 107
1, 105751, Note_off_c, 0, 53, 107
1, 105768, Note_on_c, 0, 50, 100
1, 105891, Note_off_c, 0, 50, 100
1, 105896, Note_on_c, 0, 53, 106
1, 105965, Note_off_c, 0, 53, 106
1, 105970, Note_on_c, 0, 50, 110
1, 106041, Note_off_c, 0, 50, 110
1, 106055, Note_on_c, 0, 53, 109
1, 106107, Note_off_c, 0, 53, 109
1, 106113, Note_on_c, 0, 57, 116
1, 106205, Note_off_c, 0, 57, 116
1, 106218, Note_on_c, 0, 47, 9
1, 106350, Note_off_c, 0, 47, 9
1, 107065, Note_on_c, 0, 69, 102
1, 107374, Note_off_c, 0, 69, 102
1, 107522, Note_on_c, 0, 69, 111
1, 107617, Note_off_c, 0, 69, 111
1, 107686, Note_on_c, 0, 71, 115
1, 107795, Note_off_c, 0, 71, 115
1, 107800, Note_on_c, 0, 68, 111
1, 107889, Note_off_c, 0, 68, 111
1, 107903, Note_on_c, 0, 69, 107
1, 108050, Note_off_c, 0, 69, 107
1, 108072, Note_on_c, 0, 71, 110
1, 108138, Note_off_c, 0, 71, 110
1, 108154, Note_on_c, 0, 68, 110
1, 108243, Note_off_c, 0, 68, 110
1, 108284, Note_on_c, 0, 63, 113
1, 108389, Note_off_c, 0, 63, 113
1, 108670, Note_on_c, 0, 63, 122
1, 108758, Note_off_c, 0, 63, 122
1, 108767, Note_on_c, 0, 65, 111
1, 108826, Note_off_c, 0, 65, 111
1, 108842, Note_on_c, 0, 67, 108
1, 108925, Note_off_c, 0, 67, 108
1, 108945, Note_on_c, 0, 69, 112
1, 109007, Note_off_c, 0, 69, 112
1, 109022, Note_on_c, 0, 68, 110
1, 109128, Note_off_c, 0, 68, 110
1, 109164, Note_on_c, 0, 65, 102
1, 109215, Note_off_c, 0, 65, 102
1, 109233, Note_on_c, 0, 69, 107
1, 109271, Note_off_c, 0, 69, 107
1, 109285, Note_on_c, 0, 73, 112
1, 109462, Note_off_c, 0, 73, 112
1, 109491, Note_on_c, 0, 71, 110
1, 109583, Note_off_c, 0, 71, 110
1, 109601, Note_on_c, 0, 69, 102
1, 109677, Note_off_c, 0, 69, 102
1, 109701, Note_on_c, 0, 65, 103
1, 109760, Note_off_c, 0, 65, 103
1, 109773, Note_on_c, 0, 63, 111
1, 109869, Note_off_c, 0, 63, 111
1, 109876, Note_on_c, 0, 61, 108
1, 109943, Note_off_c, 0, 61, 108
1, 109959, Note_on_c, 0, 59, 103
1, 110067, Note_off_c, 0, 59, 103
1, 110162, Note_on_c, 0, 61, 111
1, 110407, Note_off_c, 0, 61, 111
1, 110567, Note_on_c, 0, 63, 112
1, 110685, Note_off_c, 0, 63, 112
1, 110767, Note_on_c, 0, 67, 112
1, 110847, Note_off_c, 0, 67, 112
1, 110860, Note_on_c, 0, 65, 111
1, 110928, Note_off_c, 0, 65, 111
1, 110941, Note_on_c, 0, 63, 118
1, 111039, Note_off_c, 0, 63, 118
1, 111055, Note_on_c, 0, 65, 109
1, 111117, Note_off_c, 0, 65, 109
1, 111133, Note_on_c, 0, 63, 118
1, 111218, Note_off_c, 0, 63, 118
1, 111238, Note_on_c, 0, 61, 103
1, 111319, Note_off_c, 0, 61, 103
1, 111338, Note_on_c, 0, 57, 106
1, 111423, Note_off_c, 0, 57, 106
1, 111437, Note_on_c, 0, 63, 115
1, 111507, Note_off_c, 0, 63, 115
1, 111516, Note_on_c, 0, 59, 104
1, 111586, Note_off_c, 0, 59, 104
1, 111598, Note_on_c, 0, 57, 109
1, 111685, Note_off_c, 0, 57, 109
1, 111708, Note_on_c, 0, 53, 111
1, 111786, Note_off_c, 0, 53, 111
1, 111795, Note_on_c, 0, 57, 110
1, 111870, Note_off_c, 0, 57, 110
1, 111882, Note_on_c, 0, 53, 110
1, 111972, Note_off_c, 0, 53, 110
1, 112001, Note_on_c, 0, 50, 105
1, 112105, Note_off_c, 0, 50, 105
1, 113040, Note_on_c, 0, 67, 111
1, 113559, Note_off_c, 0, 67, 111
1, 113691, Note_on_c, 0, 67, 111
1, 113790, Note_off_c, 0, 67, 111
1, 113811, Note_on_c, 0, 65, 106
1, 113887, Note_off_c, 0, 65, 106
1, 113936, Note_on_c, 0, 67, 110
1, 114213, Note_off_c, 0, 67, 110
1, 114231, Note_on_c, 0, 67, 109
1, 114717, Note_off_c, 0, 67, 109
1, 114755, Note_on_c, 0, 65, 112
1, 114836, Note_off_c, 0, 65, 112
1, 114859, Note_on_c, 0, 62, 108
1, 114935, Note_off_c, 0, 62, 108
1, 114965, Note_on_c, 0, 57, 104
1, 115099, Note_off_c, 0, 57, 104
1, 115572, Note_on_c, 0, 57, 116
1, 115650, Note_off_c, 0, 57, 116
1, 115671, Note_on_c, 0, 59, 109
1, 115751, Note_off_c, 0, 59, 109
1, 115773, Note_on_c, 0, 62, 107
1, 115834, Note_off_c, 0, 62, 107
1, 115849, Note_on_c, 0, 65, 106
1, 115916, Note_off_c, 0, 65, 106
1, 115965, Note_on_c, 0, 69, 112
1, 116006, Note_off_c, 0, 69, 112
1, 116015, Note_on_c, 0, 71, 107
1, 116084, Note_off_c, 0, 71, 107
1, 116100, Note_on_c, 0, 74, 114
1, 116165, Note_off_c, 0, 74, 114
1, 116191, Note_on_c, 0, 79, 119
1, 116302, Note_off_c, 0, 79, 119
1, 116320, Note_on_c, 0, 69, 112
1, 117391, Note_off_c, 0, 69, 112
1, 117498, Note_on_c, 0, 69, 106
1, 117623, Note_off_c, 0, 69, 106
1, 117677, Note_on_c, 0, 74, 106
1, 117813, Note_off_c, 0, 74, 106
1, 117820, Note_on_c, 0, 72, 112
1, 117870, Note_off_c, 0, 72, 112
1, 117888, Note_on_c, 0, 69, 109
1, 117996, Note_off_c, 0, 69, 109
1, 118027, Note_on_c, 0, 81, 103
1, 118181, Note_off_c, 0, 81, 103
1, 118219, Note_on_c, 0, 81, 89
1, 118317, Note_off_c, 0, 81, 89
1, 118347, Note_on_c, 0, 69, 103
1, 118481, Note_off_c, 0, 69, 103
1, 118522, Note_on_c, 0, 69, 103
1, 118609, Note_off_c, 0, 69, 103
1, 118616, Note_on_c, 0, 74, 108
1, 118747, Note_off_c, 0, 74, 108
1, 118820, Note_on_c, 0, 74, 103
1, 118875, Note_off_c, 0, 74, 103
1, 118895, Note_on_c, 0, 71, 109
1, 118981, Note_off_c, 0, 71, 109
1, 119006, Note_on_c, 0, 74, 106
1, 119149, Note_off_c, 0, 74, 106
1, 119198, Note_on_c, 0, 74, 102
1, 119284, Note_off_c, 0, 74, 102
1, 119355, Note_on_c, 0, 79, 118
1, 119657, Note_off_c, 0, 79, 118
1, 119718, Note_on_c, 0, 69, 112
1, 119808, Note_off_c, 0, 69, 112
1, 120533, Note_on_c, 0, 80, 115
1, 120749, Note_off_c, 0, 80, 115
1, 120772, Note_on_c, 0, 68, 105
1, 120893, Note_off_c, 0, 68, 105
1, 121022, Note_on_c, 0, 70, 102
1, 121654, Note_off_c, 0, 70, 102
1, 121685, Note_on_c, 0, 65, 95
1, 121715, Note_off_c, 0, 65, 95
1, 121773, Note_on_c, 0, 70, 100
1, 121820, Note_off_c, 0, 70, 100
1, 121852, Note_on_c, 0, 83, 98
1, 121919, Note_off_c, 0, 83, 98
1, 122026, Note_on_c, 0, 75, 113
1, 122116, Note_off_c, 0, 75, 113
1, 122204, Note_on_c, 0, 75, 89
1, 122267, Note_off_c, 0, 75, 89
1, 122301, Note_on_c, 0, 72, 101
1, 122368, Note_off_c, 0, 72, 101
1, 122411, Note_on_c, 0, 68, 104
1, 122534, Note_off_c, 0, 68, 104
1, 122616, Note_on_c, 0, 68, 100
1, 122675, Note_off_c, 0, 68, 100
1, 122697, Note_on_c, 0, 66, 101
1, 122767, Note_off_c, 0, 66, 101
1, 122915, Note_on_c, 0, 70, 107
1, 122955, Note_off_c, 0, 70, 107
1, 122983, Note_on_c, 0, 73, 103
1, 123055, Note_off_c, 0, 73, 103
1, 123098, Note_on_c, 0, 73, 98
1, 123235, Note_off_c, 0, 73, 98
1, 123257, Note_on_c, 0, 70, 101
1, 123355, Note_off_c, 0, 70, 101
1, 123384, Note_on_c, 0, 65, 107
1, 123433, Note_off_c, 0, 65, 107
1, 123455, Note_on_c, 0, 63, 112
1, 123528, Note_off_c, 0, 63, 112
1, 123636, Note_on_c, 0, 65, 104
1, 123717, Note_off_c, 0, 65, 104
1, 123737, Note_on_c, 0, 60, 104
1, 123817, Note_off_c, 0, 60, 104
1, 123834, Note_on_c, 0, 56, 108
1, 123891, Note_off_c, 0, 56, 108
1, 123930, Note_on_c, 0, 63, 111
1, 124018, Note_off_c, 0, 63, 111
1, 124027, Note_on_c, 0, 58, 108
1, 124101, Note_off_c, 0, 58, 108
1, 124118, Note_on_c, 0, 53, 107
1, 124178, Note_off_c, 0, 53, 107
1, 124184, Note_on_c, 0, 51, 108
1, 124268, Note_off_c, 0, 51, 108
1, 124282, Note_on_c, 0, 56, 107
1, 124375, Note_off_c, 0, 56, 107
1, 124390, Note_on_c, 0, 53, 103
1, 124739, Note_off_c, 0, 53, 103
1, 124778, Note_on_c, 0, 56, 108
1, 124834, Note_off_c, 0, 56, 108
1, 124856, Note_on_c, 0, 58, 101
1, 124941, Note_off_c, 0, 58, 101
1, 125553, Note_on_c, 0, 70, 110
1, 125651, Note_off_c, 0, 70, 110
1, 125684, Note_on_c, 0, 72, 101
1, 125762, Note_off_c, 0, 72, 101
1, 125774, Note_on_c, 0, 63, 93
1, 125905, Note_off_c, 0, 63, 93
1, 125952, Note_on_c, 0, 65, 109
1, 126042, Note_off_c, 0, 65, 109
1, 126154, Note_on_c, 0, 69, 104
1, 126236, Note_off_c, 0, 69, 104
1, 126248, Note_on_c, 0, 74, 107
1, 126290, Note_off_c, 0, 74, 107
1, 126301, Note_on_c, 0, 71, 106
1, 126387, Note_off_c, 0, 71, 106
1, 126951, Note_on_c, 0, 71, 108
1, 127270, Note_off_c, 0, 71, 108
1, 127410, Note_on_c, 0, 69, 97
1, 127454, Note_off_c, 0, 69, 97
1, 127463, Note_on_c, 0, 71, 109
1, 127528, Note_off_c, 0, 71, 109
1, 127561, Note_on_c, 0, 69, 111
1, 127607, Note_off_c, 0, 69, 111
1, 127620, Note_on_c, 0, 65, 110
1, 127708, Note_off_c, 0, 65, 110
1, 127730, Note_on_c, 0, 69, 107
1, 127787, Note_off_c, 0, 69, 107
1, 127805, Note_on_c, 0, 65, 113
1, 128078, Note_off_c, 0, 65, 113
1, 128132, Note_on_c, 0, 62, 109
1, 128177, Note_off_c, 0, 62, 109
1, 128200, Note_on_c, 0, 67, 108
1, 128280, Note_off_c, 0, 67, 108
1, 128302, Note_on_c, 0, 65, 109
1, 128365, Note_off_c, 0, 65, 109
1, 128387, Note_on_c, 0, 67, 106
1, 128470, Note_off_c, 0, 67, 106
1, 128506, Note_on_c, 0, 65, 113
1, 128555, Note_off_c, 0, 65, 113
1, 128577, Note_on_c, 0, 62, 110
1, 128674, Note_off_c, 0, 62, 110
1, 128694, Note_on_c, 0, 62, 113
1, 128743, Note_off_c, 0, 62, 113
1, 128761, Note_on_c, 0, 59, 110
1, 128870, Note_off_c, 0, 59, 110
1, 128904, Note_on_c, 0, 55, 97
1, 128946, Note_off_c, 0, 55, 97
1, 128961, Note_on_c, 0, 62, 114
1, 129070, Note_off_c, 0, 62, 114
1, 129260, Note_on_c, 0, 71, 115
1, 129335, Note_off_c, 0, 71, 115
1, 129359, Note_on_c, 0, 61, 113
1, 129497, Note_off_c, 0, 61, 113
1, 129605, Note_on_c, 0, 67, 111
1, 129691, Note_off_c, 0, 67, 111
1, 129709, Note_on_c, 0, 63, 117
1, 129809, Note_off_c, 0, 63, 117
1, 130137, Note_on_c, 0, 69, 115
1, 130213, Note_off_c, 0, 69, 115
1, 130242, Note_on_c, 0, 63, 109
1, 130290, Note_off_c, 0, 63, 109
1, 130307, Note_on_c, 0, 59, 107
1, 130397, Note_off_c, 0, 59, 107
1, 130416, Note_on_c, 0, 57, 110
1, 130491, Note_off_c, 0, 57, 110
1, 130495, Note_on_c, 0, 53, 114
1, 130548, Note_off_c, 0, 53, 114
1, 130686, Note_on_c, 0, 57, 108
1, 130780, Note_off_c, 0, 57, 108
1, 130791, Note_on_c, 0, 59, 109
1, 130869, Note_off_c, 0, 59, 109
1, 130873, Note_on_c, 0, 52, 112
1, 131021, Note_off_c, 0, 52, 112
1, 131080, Note_on_c, 0, 55, 111
1, 131159, Note_off_c, 0, 55, 111
1, 131178, Note_on_c, 0, 59, 111
1, 131261, Note_off_c, 0, 59, 111
1, 131300, Note_on_c, 0, 50, 113
1, 131359, Note_off_c, 0, 50, 113
1, 131376, Note_on_c, 0, 53, 112
1, 131442, Note_off_c, 0, 53, 112
1, 131450, Note_on_c, 0, 57, 118
1, 131497, Note_off_c, 0, 57, 118
1, 131505, Note_on_c, 0, 53, 110
1, 131542, Note_off_c, 0, 53, 110
1, 131542, Note_on_c, 0, 47, 105
1, 131629, Note_off_c, 0, 47, 105
1, 132171, Note_on_c, 0, 59, 111
1, 132222, Note_off_c, 0, 59, 111
1, 132252, Note_on_c, 0, 50, 112
1, 132328, Note_off_c, 0, 50, 112
1, 132332, Note_on_c, 0, 57, 105
1, 132391, Note_off_c, 0, 57, 105
1, 132402, Note_on_c, 0, 47, 110
1, 132559, Note_off_c, 0, 47, 110
1, 132686, Note_on_c, 0, 59, 113
1, 132764, Note_off_c, 0, 59, 113
1, 132792, Note_on_c, 0, 54, 115
1, 132864, Note_off_c, 0, 54, 115
1, 132888, Note_on_c, 0, 57, 123
1, 132959, Note_off_c, 0, 57, 123
1, 132982, Note_on_c, 0, 48, 116
1, 133083, Note_off_c, 0, 48, 116
1, 133297, Note_on_c, 0, 48, 117
1, 133376, Note_off_c, 0, 48, 117
1, 133385, Note_on_c, 0, 53, 112
1, 133441, Note_off_c, 0, 53, 112
1, 133455, Note_on_c, 0, 57, 114
1, 133549, Note_off_c, 0, 57, 114
1, 133566, Note_on_c, 0, 50, 108
1, 133693, Note_off_c, 0, 50, 108
1, 133964, Note_on_c, 0, 50, 119
1, 134013, Note_off_c, 0, 50, 119
1, 134039, Note_on_c, 0, 53, 113
1, 134093, Note_off_c, 0, 53, 113
1, 134102, Note_on_c, 0, 57, 116
1, 134192, Note_off_c, 0, 57, 116
1, 134215, Note_on_c, 0, 59, 114
1, 134299, Note_off_c, 0, 59, 114
1, 134310, Note_on_c, 0, 52, 113
1, 134430, Note_off_c, 0, 52, 113
1, 134696, Note_on_c, 0, 52, 120
1, 134785, Note_off_c, 0, 52, 120
1, 134788, Note_on_c, 0, 53, 112
1, 134847, Note_off_c, 0, 53, 112
1, 134860, Note_on_c, 0, 55, 108
1, 134963, Note_off_c, 0, 55, 108
1, 134975, Note_on_c, 0, 57, 115
1, 135063, Note_off_c, 0, 57, 115
1, 135077, Note_on_c, 0, 53, 114
1, 135166, Note_off_c, 0, 53, 114
1, 135167, Note_on_c, 0, 55, 110
1, 135235, Note_off_c, 0, 55, 110
1, 135248, Note_on_c, 0, 57, 108
1, 135346, Note_off_c, 0, 57, 108
1, 135364, Note_on_c, 0, 59, 109
1, 135443, Note_off_c, 0, 59, 109
1, 135463, Note_on_c, 0, 61, 114
1, 135569, Note_off_c, 0, 61, 114
1, 135574, Note_on_c, 0, 62, 116
1, 135623, Note_off_c, 0, 62, 116
1, 135626, Note_on_c, 0, 64, 121
1, 135709, Note_off_c, 0, 64, 121
1, 135724, Note_on_c, 0, 65, 115
1, 135801, Note_off_c, 0, 65, 115
1, 135806, Note_on_c, 0, 62, 117
1, 135889, Note_off_c, 0, 62, 117
1, 135913, Note_on_c, 0, 64, 121
1, 135981, Note_off_c, 0, 64, 121
1, 135987, Note_on_c, 0, 65, 93
1, 136104, Note_off_c, 0, 65, 93
1, 136123, Note_on_c, 0, 67, 118
1, 136201, Note_off_c, 0, 67, 118
1, 136216, Note_on_c, 0, 69, 120
1, 136294, Note_off_c, 0, 69, 120
1, 136303, Note_on_c, 0, 65, 113
1, 136376, Note_off_c, 0, 65, 113
1, 136386, Note_on_c, 0, 62, 113
1, 136489, Note_off_c, 0, 62, 113
1, 136503, Note_on_c, 0, 58, 106
1, 136577, Note_off_c, 0, 58, 106
1, 136591, Note_on_c, 0, 65, 110
1, 136773, Note_off_c, 0, 65, 110
1, 136816, Note_on_c, 0, 67, 108
1, 136895, Note_off_c, 0, 67, 108
1, 136908, Note_on_c, 0, 65, 107
1, 136971, Note_off_c, 0, 65, 107
1, 136993, Note_on_c, 0, 62, 112
1, 137077, Note_off_c, 0, 62, 112
1, 137096, Note_on_c, 0, 65, 112
1, 137152, Note_off_c, 0, 65, 112
1, 137168, Note_on_c, 0, 62, 112
1, 137262, Note_off_c, 0, 62, 112
1, 137272, Note_on_c, 0, 60, 112
1, 137359, Note_off_c, 0, 60, 112
1, 137368, Note_on_c, 0, 59, 110
1, 137461, Note_off_c, 0, 59, 110
1, 137480, Note_on_c, 0, 62, 111
1, 137535, Note_off_c, 0, 62, 111
1, 137537, Note_on_c, 0, 59, 109
1, 137638, Note_off_c, 0, 59, 109
1, 137643, Note_on_c, 0, 57, 110
1, 137696, Note_off_c, 0, 57, 110
1, 137825, Note_on_c, 0, 57, 107
1, 137881, Note_off_c, 0, 57, 107
1, 137887, Note_on_c, 0, 53, 103
1, 137972, Note_off_c, 0, 53, 103
1, 138040, Note_on_c, 0, 53, 115
1, 138109, Note_off_c, 0, 53, 115
1, 138120, Note_on_c, 0, 57, 109
1, 138177, Note_off_c, 0, 57, 109
1, 138184, Note_on_c, 0, 59, 105
1, 138240, Note_off_c, 0, 59, 105
1, 138858, Note_on_c, 0, 59, 111
1, 138926, Note_off_c, 0, 59, 111
1, 138936, Note_on_c, 0, 62, 112
1, 139010, Note_off_c, 0, 62, 112
1, 139028, Note_on_c, 0, 65, 103
1, 139101, Note_off_c, 0, 65, 103
1, 139183, Note_on_c, 0, 72, 112
1, 139368, Note_off_c, 0, 72, 112
1, 139375, Note_on_c, 0, 69, 111
1, 139444, Note_off_c, 0, 69, 111
1, 139484, Note_on_c, 0, 72, 111
1, 139570, Note_off_c, 0, 72, 111
1, 139585, Note_on_c, 0, 69, 109
1, 139759, Note_off_c, 0, 69, 109
1, 139770, Note_on_c, 0, 72, 105
1, 139913, Note_off_c, 0, 72, 105
1, 139951, Note_on_c, 0, 69, 110
1, 140126, Note_off_c, 0, 69, 110
1, 140136, Note_on_c, 0, 72, 109
1, 140314, Note_off_c, 0, 72, 109
1, 140334, Note_on_c, 0, 69, 116
1, 140517, Note_off_c, 0, 69, 116
1, 140520, Note_on_c, 0, 72, 113
1, 140702, Note_off_c, 0, 72, 113
1, 140713, Note_on_c, 0, 69, 109
1, 140809, Note_off_c, 0, 69, 109
1, 140943, Note_on_c, 0, 81, 95
1, 141171, Note_off_c, 0, 81, 95
1, 141480, Note_on_c, 0, 72, 101
1, 141602, Note_off_c, 0, 72, 101
1, 141627, Note_on_c, 0, 69, 99
1, 141741, Note_off_c, 0, 69, 99
1, 141753, Note_on_c, 0, 72, 114
1, 141851, Note_off_c, 0, 72, 114
1, 141860, Note_on_c, 0, 69, 110
1, 142029, Note_off_c, 0, 69, 110
1, 142049, Note_on_c, 0, 72, 120
1, 142117, Note_off_c, 0, 72, 120
1, 142135, Note_on_c, 0, 72, 115
1, 142226, Note_off_c, 0, 72, 115
1, 142253, Note_on_c, 0, 69, 120
1, 142410, Note_off_c, 0, 69, 120
1, 142422, Note_on_c, 0, 72, 122
1, 142489, Note_off_c, 0, 72, 122
1, 142505, Note_on_c, 0, 72, 116
1, 142600, Note_off_c, 0, 72, 116
1, 142621, Note_on_c, 0, 69, 116
1, 142765, Note_off_c, 0, 69, 116
1, 142792, Note_on_c, 0, 72, 118
1, 142883, Note_off_c, 0, 72, 118
1, 142895, Note_on_c, 0, 65, 111
1, 142946, Note_off_c, 0, 65, 111
1, 142976, Note_on_c, 0, 69, 112
1, 143173, Note_off_c, 0, 69, 112
1, 143178, Note_on_c, 0, 72, 112
1, 143229, Note_off_c, 0, 72, 112
1, 143250, Note_on_c, 0, 72, 107
1, 143377, Note_off_c, 0, 72, 107
1, 143728, Note_on_c, 0, 72, 118
1, 143787, Note_off_c, 0, 72, 118
1, 143796, Note_on_c, 0, 72, 108
1, 143869, Note_off_c, 0, 72, 108
1, 143881, Note_on_c, 0, 69, 109
1, 143977, Note_off_c, 0, 69, 109
1, 143996, Note_on_c, 0, 72, 109
1, 144051, Note_off_c, 0, 72, 109
1, 144063, Note_on_c, 0, 63, 108
1, 144153, Note_off_c, 0, 63, 108
1, 144197, Note_on_c, 0, 68, 106
1, 144255, Note_off_c, 0, 68, 106
1, 144275, Note_on_c, 0, 72, 104
1, 144364, Note_off_c, 0, 72, 104
1, 144406, Note_on_c, 0, 60, 115
1, 144600, Note_off_c, 0, 60, 115
1, 144912, Note_on_c, 0, 61, 113
1, 144997, Note_off_c, 0, 61, 113
1, 145016, Note_on_c, 0, 66, 110
1, 145064, Note_off_c, 0, 66, 110
1, 145093, Note_on_c, 0, 70, 107
1, 145146, Note_off_c, 0, 70, 107
1, 145172, Note_on_c, 0, 73, 110
1, 145270, Note_off_c, 0, 73, 110
1, 145745, Note_on_c, 0, 73, 106
1, 145841, Note_off_c, 0, 73, 106
1, 145855, Note_on_c, 0, 72, 110
1, 145877, Note_off_c, 0, 72, 110
1, 145886, Note_on_c, 0, 71, 113
1, 145927, Note_off_c, 0, 71, 113
1, 145941, Note_on_c, 0, 70, 117
1, 146144, Note_off_c, 0, 70, 117
1, 146549, Note_on_c, 0, 73, 111
1, 146653, Note_off_c, 0, 73, 111
1, 146660, Note_on_c, 0, 71, 110
1, 146726, Note_off_c, 0, 71, 110
1, 146734, Note_on_c, 0, 69, 104
1, 146802, Note_off_c, 0, 69, 104
1, 146806, Note_on_c, 0, 68, 107
1, 146898, Note_off_c, 0, 68, 107
1, 146912, Note_on_c, 0, 67, 107
1, 146987, Note_off_c, 0, 67, 107
1, 147023, Note_on_c, 0, 71, 109
1, 147101, Note_off_c, 0, 71, 109
1, 147120, Note_on_c, 0, 64, 111
1, 147212, Note_off_c, 0, 64, 111
1, 147222, Note_on_c, 0, 67, 107
1, 147279, Note_off_c, 0, 67, 107
1, 147291, Note_on_c, 0, 71, 113
1, 147389, Note_off_c, 0, 71, 113
1, 147398, Note_on_c, 0, 69, 109
1, 147458, Note_off_c, 0, 69, 109
1, 147467, Note_on_c, 0, 66, 108
1, 147555, Note_off_c, 0, 66, 108
1, 147571, Note_on_c, 0, 71, 109
1, 147658, Note_off_c, 0, 71, 109
1, 147666, Note_on_c, 0, 70, 108
1, 147985, Note_off_c, 0, 70, 108
1, 148012, Note_on_c, 0, 66, 105
1, 148073, Note_off_c, 0, 66, 105
1, 148083, Note_on_c, 0, 65, 105
1, 148176, Note_off_c, 0, 65, 105
1, 148189, Note_on_c, 0, 63, 109
1, 148260, Note_off_c, 0, 63, 109
1, 148283, Note_on_c, 0, 68, 113
1, 148357, Note_off_c, 0, 68, 113
1, 148367, Note_on_c, 0, 66, 107
1, 148438, Note_off_c, 0, 66, 107
1, 148450, Note_on_c, 0, 63, 111
1, 148562, Note_off_c, 0, 63, 111
1, 148572, Note_on_c, 0, 70, 95
1, 148623, Note_off_c, 0, 70, 95
1, 148649, Note_on_c, 0, 65, 109
1, 148720, Note_off_c, 0, 65, 109
1, 148745, Note_on_c, 0, 60, 107
1, 148822, Note_off_c, 0, 60, 107
1, 148825, Note_on_c, 0, 58, 107
1, 148891, Note_off_c, 0, 58, 107
1, 148911, Note_on_c, 0, 53, 107
1, 148983, Note_off_c, 0, 53, 107
1, 148987, Note_on_c, 0, 51, 108
1, 149077, Note_off_c, 0, 51, 108
1, 149085, Note_on_c, 0, 58, 105
1, 149156, Note_off_c, 0, 58, 105
1, 149172, Note_on_c, 0, 56, 101
1, 149268, Note_off_c, 0, 56, 101
1, 149290, Note_on_c, 0, 53, 108
1, 149370, Note_off_c, 0, 53, 108
1, 149379, Note_on_c, 0, 51, 105
1, 149446, Note_off_c, 0, 51, 105
1, 149456, Note_on_c, 0, 53, 105
1, 149546, Note_off_c, 0, 53, 105
1, 149551, Note_on_c, 0, 51, 106
1, 149644, Note_off_c, 0, 51, 106
1, 149662, Note_on_c, 0, 46, 109
1, 149799, Note_off_c, 0, 46, 109
1, 149838, Note_on_c, 0, 46, 115
1, 149965, Note_off_c, 0, 46, 115
1, 149972, Note_on_c, 0, 44, 114
1, 150144, Note_off_c, 0, 44, 114
1, 150542, Note_on_c, 0, 45, 124
1, 150660, Note_off_c, 0, 45, 124
1, 150681, Note_on_c, 0, 46, 110
1, 151085, Note_off_c, 0, 46, 110
1, 151098, Note_on_c, 0, 47, 103
1, 151188, Note_off_c, 0, 47, 103
1, 151234, Note_on_c, 0, 54, 109
1, 151290, Note_off_c, 0, 54, 109
1, 151295, Note_on_c, 0, 50, 108
1, 151425, Note_off_c, 0, 50, 108
1, 151887, Note_on_c, 0, 50, 113
1, 151967, Note_off_c, 0, 50, 113
1, 151979, Note_on_c, 0, 54, 110
1, 152078, Note_off_c, 0, 54, 110
1, 152096, Note_on_c, 0, 57, 111
1, 152178, Note_off_c, 0, 57, 111
1, 152194, Note_on_c, 0, 53, 110
1, 152250, Note_off_c, 0, 53, 110
1, 152264, Note_on_c, 0, 51, 104
1, 152327, Note_off_c, 0, 51, 104
1, 152374, Note_on_c, 0, 55, 107
1, 152432, Note_off_c, 0, 55, 107
1, 152442, Note_on_c, 0, 53, 108
1, 152502, Note_off_c, 0, 53, 108
1, 152823, Note_on_c, 0, 53, 117
1, 152888, Note_off_c, 0, 53, 117
1, 152897, Note_on_c, 0, 52, 111
1, 152968, Note_off_c, 0, 52, 111
1, 152982, Note_on_c, 0, 51, 103
1, 153065, Note_off_c, 0, 51, 103
1, 153085, Note_on_c, 0, 55, 105
1, 153163, Note_off_c, 0, 55, 105
1, 153179, Note_on_c, 0, 50, 108
1, 153254, Note_off_c, 0, 50, 108
1, 153263, Note_on_c, 0, 53, 105
1, 153309, Note_off_c, 0, 53, 105
1, 153380, Note_on_c, 0, 58, 108
1, 153471, Note_off_c, 0, 58, 108
1, 153489, Note_on_c, 0, 53, 109
1, 153540, Note_off_c, 0, 53, 109
1, 153548, Note_on_c, 0, 62, 106
1, 153665, Note_off_c, 0, 62, 106
1, 154003, Note_on_c, 0, 68, 113
1, 154094, Note_off_c, 0, 68, 113
1, 154105, Note_on_c, 0, 63, 112
1, 154177, Note_off_c, 0, 63, 112
1, 154187, Note_on_c, 0, 61, 108
1, 154258, Note_off_c, 0, 61, 108
1, 154308, Note_on_c, 0, 58, 108
1, 154362, Note_off_c, 0, 58, 108
1, 154385, Note_on_c, 0, 65, 108
1, 154445, Note_off_c, 0, 65, 108
1, 154461, Note_on_c, 0, 61, 111
1, 154531, Note_off_c, 0, 61, 111
1, 154546, Note_on_c, 0, 59, 107
1, 154611, Note_off_c, 0, 59, 107
1, 154622, Note_on_c, 0, 58, 113
1, 154701, Note_off_c, 0, 58, 113
1, 154722, Note_on_c, 0, 57, 109
1, 154769, Note_off_c, 0, 57, 109
1, 154787, Note_on_c, 0, 56, 109
1, 154872, Note_off_c, 0, 56, 109
1, 154881, Note_on_c, 0, 55, 105
1, 154939, Note_off_c, 0, 55, 105
1, 154982, Note_on_c, 0, 59, 107
1, 155076, Note_off_c, 0, 59, 107
1, 155086, Note_on_c, 0, 53, 105
1, 155182, Note_off_c, 0, 53, 105
1, 155437, Note_on_c, 0, 67, 110
1, 155547, Note_off_c, 0, 67, 110
1, 155572, Note_on_c, 0, 63, 111
1, 155634, Note_off_c, 0, 63, 111
1, 155847, Note_on_c, 0, 61, 113
1, 155994, Note_off_c, 0, 61, 113
1, 156054, Note_on_c, 0, 61, 114
1, 156113, Note_off_c, 0, 61, 114
1, 156124, Note_on_c, 0, 51, 103
1, 156242, Note_on_c, 0, 62, 113
1, 156242, Note_off_c, 0, 51, 103
1, 156271, Note_off_c, 0, 62, 113
1, 156293, Note_on_c, 0, 62, 115
1, 156344, Note_off_c, 0, 62, 115
1, 156360, Note_on_c, 0, 65, 113
1, 156480, Note_off_c, 0, 65, 113
1, 157046, Note_on_c, 0, 67, 106
1, 157908, Note_off_c, 0, 67, 106
1, 157946, Note_on_c, 0, 63, 112
1, 158031, Note_off_c, 0, 63, 112
1, 158049, Note_on_c, 0, 67, 106
1, 158116, Note_off_c, 0, 67, 106
1, 158135, Note_on_c, 0, 69, 104
1, 158202, Note_off_c, 0, 69, 104
1, 158223, Note_on_c, 0, 71, 112
1, 158299, Note_off_c, 0, 71, 112
1, 158322, Note_on_c, 0, 68, 110
1, 158411, Note_off_c, 0, 68, 110
1, 158415, Note_on_c, 0, 67, 111
1, 158485, Note_off_c, 0, 67, 111
1, 158504, Note_on_c, 0, 69, 111
1, 158585, Note_off_c, 0, 69, 111
1, 158597, Note_on_c, 0, 71, 114
1, 158691, Note_off_c, 0, 71, 114
1, 158722, Note_on_c, 0, 69, 108
1, 158783, Note_off_c, 0, 69, 108
1, 158818, Note_on_c, 0, 67, 107
1, 158890, Note_off_c, 0, 67, 107
1, 158906, Note_on_c, 0, 69, 111
1, 158961, Note_off_c, 0, 69, 111
1, 158981, Note_on_c, 0, 71, 106
1, 159249, Note_off_c, 0, 71, 106
1, 159272, Note_on_c, 0, 62, 46
1, 159331, Note_off_c, 0, 62, 46
1, 159360, Note_on_c, 0, 67, 108
1, 159428, Note_off_c, 0, 67, 108
1, 159447, Note_on_c, 0, 69, 111
1, 159507, Note_off_c, 0, 69, 111
1, 159520, Note_on_c, 0, 71, 111
1, 159623, Note_off_c, 0, 71, 111
1, 159641, Note_on_c, 0, 68, 110
1, 159729, Note_off_c, 0, 68, 110
1, 159743, Note_on_c, 0, 67, 109
1, 159804, Note_off_c, 0, 67, 109
1, 159826, Note_on_c, 0, 69, 111
1, 159892, Note_off_c, 0, 69, 111
1, 159915, Note_on_c, 0, 71, 111
1, 160003, Note_off_c, 0, 71, 111
1, 160022, Note_on_c, 0, 68, 110
1, 160120, Note_off_c, 0, 68, 110
1, 160125, Note_on_c, 0, 67, 111
1, 160195, Note_off_c, 0, 67, 111
1, 160198, Note_on_c, 0, 69, 111
1, 160273, Note_off_c, 0, 69, 111
1, 160289, Note_on_c, 0, 71, 111
1, 160370, Note_off_c, 0, 71, 111
1, 160394, Note_on_c, 0, 68, 111
1, 160472, Note_off_c, 0, 68, 111
1, 160492, Note_on_c, 0, 67, 114
1, 160570, Note_off_c, 0, 67, 114
1, 160574, Note_on_c, 0, 69, 115
1, 160642, Note_off_c, 0, 69, 115
1, 160661, Note_on_c, 0, 71, 115
1, 160720, Note_off_c, 0, 71, 115
1, 160739, Note_on_c, 0, 68, 109
1, 160795, Note_off_c, 0, 68, 109
1, 160842, Note_on_c, 0, 67, 107
1, 161122, Note_off_c, 0, 67, 107
1, 161248, Note_on_c, 0, 65, 110
1, 161323, Note_off_c, 0, 65, 110
1, 161339, Note_on_c, 0, 63, 108
1, 161392, Note_off_c, 0, 63, 108
1, 162520, Note_on_c, 0, 71, 114
1, 163449, Note_off_c, 0, 71, 114
1, 163463, Note_on_c, 0, 74, 103
1, 163544, Note_off_c, 0, 74, 103
1, 163559, Note_on_c, 0, 74, 104
1, 163628, Note_off_c, 0, 74, 104
1, 163634, Note_on_c, 0, 71, 111
1, 163805, Note_off_c, 0, 71, 111
1, 163822, Note_on_c, 0, 74, 110
1, 163887, Note_off_c, 0, 74, 110
1, 163904, Note_on_c, 0, 74, 106
1, 163966, Note_off_c, 0, 74, 106
1, 163987, Note_on_c, 0, 69, 117
1, 164241, Note_off_c, 0, 69, 117
1, 164793, Note_on_c, 0, 71, 100
1, 164864, Note_off_c, 0, 71, 100
1, 164865, Note_on_c, 0, 74, 114
1, 165340, Note_off_c, 0, 74, 114
1, 165377, Note_on_c, 0, 70, 103
1, 165407, Note_off_c, 0, 70, 103
1, 165410, Note_on_c, 0, 71, 107
1, 165466, Note_off_c, 0, 71, 107
1, 165482, Note_on_c, 0, 74, 108
1, 165644, Note_off_c, 0, 74, 108
1, 165673, Note_on_c, 0, 71, 106
1, 165748, Note_off_c, 0, 71, 106
1, 165770, Note_on_c, 0, 74, 113
1, 165859, Note_off_c, 0, 74, 113
1, 165870, Note_on_c, 0, 73, 113
1, 166072, Note_off_c, 0, 73, 113
1, 166091, Note_on_c, 0, 71, 111
1, 166160, Note_off_c, 0, 71, 111
1, 166173, Note_on_c, 0, 73, 110
1, 166255, Note_off_c, 0, 73, 110
1, 166266, Note_on_c, 0, 71, 112
1, 166365, Note_off_c, 0, 71, 112
1, 166377, Note_on_c, 0, 68, 113
1, 166420, Note_off_c, 0, 68, 113
1, 166440, Note_on_c, 0, 66, 109
1, 166552, Note_off_c, 0, 66, 109
1, 166563, Note_on_c, 0, 71, 111
1, 166629, Note_off_c, 0, 71, 111
1, 166633, Note_on_c, 0, 68, 110
1, 166819, Note_off_c, 0, 68, 110
1, 166848, Note_on_c, 0, 65, 106
1, 166915, Note_off_c, 0, 65, 106
1, 166934, Note_on_c, 0, 68, 108
1, 167014, Note_off_c, 0, 68, 108
1, 167035, Note_on_c, 0, 65, 107
1, 167089, Note_off_c, 0, 65, 107
1, 167118, Note_on_c, 0, 63, 110
1, 167185, Note_off_c, 0, 63, 110
1, 167199, Note_on_c, 0, 61, 110
1, 167253, Note_off_c, 0, 61, 110
1, 167411, Note_on_c, 0, 65, 111
1, 167482, Note_off_c, 0, 65, 111
1, 167488, Note_on_c, 0, 61, 110
1, 167572, Note_off_c, 0, 61, 110
1, 167591, Note_on_c, 0, 59, 104
1, 167667, Note_off_c, 0, 59, 104
1, 167708, Note_on_c, 0, 55, 116
1, 167773, Note_off_c, 0, 55, 116
1, 167792, Note_on_c, 0, 53, 112
1, 167861, Note_off_c, 0, 53, 112
1, 167873, Note_on_c, 0, 59, 113
1, 167937, Note_off_c, 0, 59, 113
1, 167946, Note_on_c, 0, 57, 113
1, 168015, Note_off_c, 0, 57, 113
1, 168020, Note_on_c, 0, 53, 111
1, 168148, Note_off_c, 0, 53, 111
1, 168254, Note_on_c, 0, 53, 111
1, 168325, Note_off_c, 0, 53, 111
1, 168344, Note_on_c, 0, 50, 99
1, 168423, Note_off_c, 0, 50, 99
1, 168970, Note_on_c, 0, 80, 97
1, 169119, Note_off_c, 0, 80, 97
1, 169145, Note_on_c, 0, 80, 88
1, 169256, Note_off_c, 0, 80, 88
1, 169274, Note_on_c, 0, 72, 105
1, 169556, Note_off_c, 0, 72, 105
1, 169571, Note_on_c, 0, 68, 99
1, 169656, Note_off_c, 0, 68, 99
1, 169697, Note_on_c, 0, 72, 101
1, 169784, Note_off_c, 0, 72, 101
1, 169790, Note_on_c, 0, 70, 99
1, 169838, Note_off_c, 0, 70, 99
1, 169887, Note_on_c, 0, 65, 106
1, 169929, Note_off_c, 0, 65, 106
1, 169944, Note_on_c, 0, 62, 102
1, 170047, Note_off_c, 0, 62, 102
1, 170063, Note_on_c, 0, 58, 99
1, 170114, Note_off_c, 0, 58, 99
1, 170133, Note_on_c, 0, 64, 110
1, 170236, Note_off_c, 0, 64, 110
1, 170501, Note_on_c, 0, 67, 112
1, 170603, Note_off_c, 0, 67, 112
1, 170615, Note_on_c, 0, 64, 108
1, 170683, Note_off_c, 0, 64, 108
1, 170695, Note_on_c, 0, 60, 109
1, 170849, Note_off_c, 0, 60, 109
1, 170860, Note_on_c, 0, 56, 105
1, 170884, Note_off_c, 0, 56, 105
1, 170889, Note_on_c, 0, 58, 113
1, 170955, Note_off_c, 0, 58, 113
1, 170966, Note_on_c, 0, 60, 107
1, 171026, Note_off_c, 0, 60, 107
1, 171050, Note_on_c, 0, 58, 110
1, 171170, Note_off_c, 0, 58, 110
1, 171187, Note_on_c, 0, 52, 115
1, 171250, Note_off_c, 0, 52, 115
1, 171266, Note_on_c, 0, 50, 111
1, 171341, Note_off_c, 0, 50, 111
1, 171363, Note_on_c, 0, 55, 112
1, 171406, Note_off_c, 0, 55, 112
1, 171415, Note_on_c, 0, 52, 110
1, 171518, Note_off_c, 0, 52, 110
1, 171545, Note_on_c, 0, 46, 111
1, 171720, Note_off_c, 0, 46, 111
1, 172065, Note_on_c, 0, 46, 116
1, 172163, Note_off_c, 0, 46, 116
1, 172173, Note_on_c, 0, 53, 111
1, 172254, Note_off_c, 0, 53, 111
1, 172263, Note_on_c, 0, 58, 111
1, 172326, Note_off_c, 0, 58, 111
1, 172367, Note_on_c, 0, 58, 113
1, 172422, Note_off_c, 0, 58, 113
1, 172436, Note_on_c, 0, 60, 108
1, 172516, Note_off_c, 0, 60, 108
1, 172818, Note_on_c, 0, 48, 112
1, 172915, Note_off_c, 0, 48, 112
1, 172927, Note_on_c, 0, 53, 105
1, 173063, Note_off_c, 0, 53, 105
1, 173089, Note_on_c, 0, 58, 111
1, 173187, Note_off_c, 0, 58, 111
1, 173192, Note_on_c, 0, 52, 113
1, 173278, Note_off_c, 0, 52, 113
1, 173280, Note_on_c, 0, 53, 113
1, 173349, Note_off_c, 0, 53, 113
1, 173361, Note_on_c, 0, 57, 113
1, 173469, Note_off_c, 0, 57, 113
1, 173483, Note_on_c, 0, 60, 113
1, 173568, Note_off_c, 0, 60, 113
1, 173594, Note_on_c, 0, 58, 94
1, 173712, Note_off_c, 0, 58, 94
1, 173985, Note_on_c, 0, 70, 112
1, 174057, Note_off_c, 0, 70, 112
1, 174096, Note_on_c, 0, 66, 110
1, 174143, Note_off_c, 0, 66, 110
1, 174156, Note_on_c, 0, 63, 109
1, 174258, Note_off_c, 0, 63, 109
1, 174319, Note_on_c, 0, 65, 113
1, 174397, Note_off_c, 0, 65, 113
1, 174409, Note_on_c, 0, 63, 113
1, 174486, Note_off_c, 0, 63, 113
1, 174505, Note_on_c, 0, 58, 109
1, 174590, Note_off_c, 0, 58, 109
1, 174614, Note_on_c, 0, 65, 108
1, 174690, Note_off_c, 0, 65, 108
1, 174704, Note_on_c, 0, 62, 104
1, 174784, Note_off_c, 0, 62, 104
1, 174794, Note_on_c, 0, 65, 102
1, 174843, Note_off_c, 0, 65, 102
1, 175298, Note_on_c, 0, 50, 107
1, 175400, Note_off_c, 0, 50, 107
1, 175413, Note_on_c, 0, 53, 102
1, 175471, Note_off_c, 0, 53, 102
1, 175490, Note_on_c, 0, 57, 105
1, 175588, Note_off_c, 0, 57, 105
1, 175597, Note_on_c, 0, 62, 114
1, 175676, Note_off_c, 0, 62, 114
1, 175696, Note_on_c, 0, 59, 108
1, 175810, Note_off_c, 0, 59, 108
1, 175898, Note_on_c, 0, 57, 108
1, 176045, Note_off_c, 0, 57, 108
1, 176288, Note_on_c, 0, 68, 97
1, 176367, Note_off_c, 0, 68, 97
1, 176376, Note_on_c, 0, 70, 100
1, 176458, Note_off_c, 0, 70, 100
1, 176463, Note_on_c, 0, 68, 99
1, 176541, Note_off_c, 0, 68, 99
1, 176590, Note_on_c, 0, 65, 96
1, 176646, Note_off_c, 0, 65, 96
1, 176672, Note_on_c, 0, 68, 110
1, 176766, Note_off_c, 0, 68, 110
1, 176776, Note_on_c, 0, 65, 104
1, 176854, Note_off_c, 0, 65, 104
1, 176868, Note_on_c, 0, 62, 110
1, 176964, Note_off_c, 0, 62, 110
1, 177037, Note_on_c, 0, 65, 110
1, 177319, Note_off_c, 0, 65, 110
1, 177354, Note_on_c, 0, 62, 106
1, 177426, Note_off_c, 0, 62, 106
1, 177457, Note_on_c, 0, 67, 109
1, 177546, Note_off_c, 0, 67, 109
1, 177556, Note_on_c, 0, 65, 111
1, 177639, Note_off_c, 0, 65, 111
1, 177656, Note_on_c, 0, 67, 111
1, 177696, Note_off_c, 0, 67, 111
1, 177707, Note_on_c, 0, 67, 106
1, 177745, Note_off_c, 0, 67, 106
1, 177752, Note_on_c, 0, 65, 112
1, 177815, Note_off_c, 0, 65, 112
1, 177844, Note_on_c, 0, 62, 111
1, 177917, Note_off_c, 0, 62, 111
1, 177930, Note_on_c, 0, 65, 110
1, 178000, Note_off_c, 0, 65, 110
1, 178011, Note_on_c, 0, 64, 115
1, 178087, Note_off_c, 0, 64, 115
1, 178107, Note_on_c, 0, 67, 112
1, 178176, Note_off_c, 0, 67, 112
1, 178188, Note_on_c, 0, 65, 111
1, 178266, Note_off_c, 0, 65, 111
1, 178296, Note_on_c, 0, 67, 108
1, 178370, Note_off_c, 0, 67, 108
1, 178393, Note_on_c, 0, 69, 104
1, 178468, Note_off_c, 0, 69, 104
1, 178483, Note_on_c, 0, 71, 108
1, 178572, Note_off_c, 0, 71, 108
1, 178577, Note_on_c, 0, 73, 108
1, 178629, Note_off_c, 0, 73, 108
1, 178641, Note_on_c, 0, 74, 110
1, 178710, Note_off_c, 0, 74, 110
1, 178743, Note_on_c, 0, 73, 103
1, 178834, Note_off_c, 0, 73, 103
1, 178846, Note_on_c, 0, 71, 110
1, 178921, Note_off_c, 0, 71, 110
1, 178932, Note_on_c, 0, 69, 107
1, 179009, Note_off_c, 0, 69, 107
1, 179017, Note_on_c, 0, 68, 105
1, 179099, Note_off_c, 0, 68, 105
1, 179113, Note_on_c, 0, 67, 107
1, 179214, Note_off_c, 0, 67, 107
1, 179239, Note_on_c, 0, 71, 110
1, 179319, Note_off_c, 0, 71, 110
1, 179325, Note_on_c, 0, 69, 106
1, 179387, Note_off_c, 0, 69, 106
1, 179403, Note_on_c, 0, 65, 108
1, 179483, Note_off_c, 0, 65, 108
1, 179498, Note_on_c, 0, 62, 111
1, 179587, Note_off_c, 0, 62, 111
1, 179703, Note_on_c, 0, 65, 108
1, 179870, Note_off_c, 0, 65, 108
1, 179882, Note_on_c, 0, 67, 107
1, 179942, Note_off_c, 0, 67, 107
1, 179988, Note_on_c, 0, 65, 109
1, 180044, Note_off_c, 0, 65, 109
1, 180063, Note_on_c, 0, 62, 112
1, 180120, Note_off_c, 0, 62, 112
1, 180171, Note_on_c, 0, 65, 113
1, 180233, Note_off_c, 0, 65, 113
1, 180259, Note_on_c, 0, 62, 113
1, 180317, Note_off_c, 0, 62, 113
1, 180339, Note_on_c, 0, 59, 108
1, 180411, Note_off_c, 0, 59, 108
1, 180520, Note_on_c, 0, 59, 113
1, 180592, Note_off_c, 0, 59, 113
1, 180601, Note_on_c, 0, 57, 112
1, 180689, Note_off_c, 0, 57, 112
1, 180698, Note_on_c, 0, 53, 102
1, 180781, Note_off_c, 0, 53, 102
1, 180819, Note_on_c, 0, 57, 115
1, 180887, Note_off_c, 0, 57, 115
1, 180912, Note_on_c, 0, 62, 113
1, 181016, Note_off_c, 0, 62, 113
1, 181681, Note_on_c, 0, 69, 112
1, 182233, Note_off_c, 0, 69, 112
1, 182252, Note_on_c, 0, 65, 97
1, 182297, Note_off_c, 0, 65, 97
1, 182316, Note_on_c, 0, 69, 113
1, 182397, Note_off_c, 0, 69, 113
1, 182433, Note_on_c, 0, 65, 112
1, 182480, Note_off_c, 0, 65, 112
1, 182498, Note_on_c, 0, 62, 110
1, 182590, Note_off_c, 0, 62, 110
1, 182686, Note_on_c, 0, 65, 110
1, 182871, Note_off_c, 0, 65, 110
1, 182881, Note_on_c, 0, 62, 110
1, 182950, Note_off_c, 0, 62, 110
1, 182992, Note_on_c, 0, 69, 107
1, 183161, Note_off_c, 0, 69, 107
1, 183485, Note_on_c, 0, 69, 111
1, 183708, Note_off_c, 0, 69, 111
1, 183750, Note_on_c, 0, 62, 105
1, 183804, Note_off_c, 0, 62, 105
1, 183807, Note_on_c, 0, 69, 104
1, 183921, Note_off_c, 0, 69, 104
1, 184029, Note_on_c, 0, 71, 117
1, 184125, Note_off_c, 0, 71, 117
1, 184155, Note_on_c, 0, 62, 99
1, 184213, Note_off_c, 0, 62, 99
1, 184241, Note_on_c, 0, 69, 113
1, 184417, Note_off_c, 0, 69, 113
1, 184432, Note_on_c, 0, 71, 117
1, 184513, Note_off_c, 0, 71, 117
1, 184569, Note_on_c, 0, 62, 107
1, 184608, Note_off_c, 0, 62, 107
1, 184628, Note_on_c, 0, 69, 110
1, 184813, Note_off_c, 0, 69, 110
1, 184824, Note_on_c, 0, 71, 117
1, 184891, Note_off_c, 0, 71, 117
1, 184931, Note_on_c, 0, 62, 102
1, 184985, Note_off_c, 0, 62, 102
1, 185023, Note_on_c, 0, 62, 107
1, 185140, Note_off_c, 0, 62, 107
1, 185586, Note_on_c, 0, 69, 110
1, 185660, Note_off_c, 0, 69, 110
1, 185669, Note_on_c, 0, 71, 112
1, 185731, Note_off_c, 0, 71, 112
1, 185742, Note_on_c, 0, 74, 111
1, 185828, Note_off_c, 0, 74, 111
1, 186146, Note_on_c, 0, 69, 112
1, 186203, Note_off_c, 0, 69, 112
1, 186214, Note_on_c, 0, 71, 111
1, 186288, Note_off_c, 0, 71, 111
1, 186306, Note_on_c, 0, 75, 109
1, 186404, Note_off_c, 0, 75, 109
1, 186962, Note_on_c, 0, 69, 108
1, 187050, Note_off_c, 0, 69, 108
1, 187068, Note_on_c, 0, 71, 115
1, 187137, Note_off_c, 0, 71, 115
1, 187195, Note_on_c, 0, 74, 112
1, 187304, Note_off_c, 0, 74, 112
1, 187350, Note_on_c, 0, 74, 105
1, 187402, Note_off_c, 0, 74, 105
1, 187442, Note_on_c, 0, 79, 106
1, 187581, Note_off_c, 0, 79, 106
1, 187617, Note_on_c, 0, 77, 112
1, 187859, Note_off_c, 0, 77, 112
1, 187917, Note_on_c, 0, 74, 109
1, 187987, Note_off_c, 0, 74, 109
1, 188011, Note_on_c, 0, 69, 106
1, 188113, Note_off_c, 0, 69, 106
1, 188137, Note_on_c, 0, 65, 101
1, 188259, Note_off_c, 0, 65, 101
1, 188579, Note_on_c, 0, 65, 114
1, 188637, Note_off_c, 0, 65, 114
1, 188681, Note_on_c, 0, 69, 110
1, 188748, Note_off_c, 0, 69, 110
1, 188759, Note_on_c, 0, 74, 103
1, 189018, Note_off_c, 0, 74, 103
1, 189039, Note_on_c, 0, 71, 114
1, 189131, Note_off_c, 0, 71, 114
1, 189139, Note_on_c, 0, 69, 113
1, 189206, Note_off_c, 0, 69, 113
1, 189227, Note_on_c, 0, 65, 110
1, 189290, Note_off_c, 0, 65, 110
1, 189300, Note_on_c, 0, 62, 110
1, 189364, Note_off_c, 0, 62, 110
1, 189376, Note_on_c, 0, 59, 112
1, 189451, Note_off_c, 0, 59, 112
1, 189463, Note_on_c, 0, 65, 109
1, 189543, Note_off_c, 0, 65, 109
1, 189560, Note_on_c, 0, 62, 110
1, 189619, Note_off_c, 0, 62, 110
1, 189646, Note_on_c, 0, 59, 109
1, 189735, Note_off_c, 0, 59, 109
1, 189752, Note_on_c, 0, 57, 109
1, 189799, Note_off_c, 0, 57, 109
1, 189823, Note_on_c, 0, 53, 112
1, 190000, Note_off_c, 0, 53, 112
1, 190021, Note_on_c, 0, 57, 105
1, 190099, Note_off_c, 0, 57, 105
1, 190115, Note_on_c, 0, 45, 115
1, 190336, Note_off_c, 0, 45, 115
1, 190773, Note_on_c, 0, 45, 116
1, 190872, Note_off_c, 0, 45, 116
1, 190911, Note_on_c, 0, 50, 114
1, 190986, Note_off_c, 0, 50, 114
1, 190999, Note_on_c, 0, 45, 114
1, 191136, Note_off_c, 0, 45, 114
1, 191589, Note_on_c, 0, 47, 118
1, 191659, Note_off_c, 0, 47, 118
1, 191682, Note_on_c, 0, 54, 107
1, 191748, Note_off_c, 0, 54, 107
1, 191792, Note_on_c, 0, 49, 109
1, 192040, Note_off_c, 0, 49, 109
1, 192065, Note_on_c, 0, 57, 113
1, 192130, Note_off_c, 0, 57, 113
1, 192166, Note_on_c, 0, 48, 106
1, 192244, Note_off_c, 0, 48, 106
1, 192251, Note_on_c, 0, 53, 112
1, 192314, Note_off_c, 0, 53, 112
1, 192324, Note_on_c, 0, 57, 103
1, 192418, Note_off_c, 0, 57, 103
1, 192429, Note_on_c, 0, 62, 112
1, 192491, Note_off_c, 0, 62, 112
1, 192515, Note_on_c, 0, 59, 111
1, 192596, Note_off_c, 0, 59, 111
1, 193115, Note_on_c, 0, 51, 117
1, 193291, Note_off_c, 0, 51, 117
1, 193295, Note_on_c, 0, 58, 108
1, 193408, Note_off_c, 0, 58, 108
1, 193718, Note_on_c, 0, 53, 117
1, 193794, Note_off_c, 0, 53, 117
1, 193813, Note_on_c, 0, 54, 109
1, 193901, Note_off_c, 0, 54, 109
1, 194115, Note_on_c, 0, 61, 117
1, 194201, Note_off_c, 0, 61, 117
1, 194317, Note_on_c, 0, 52, 109
1, 194387, Note_off_c, 0, 52, 109
1, 194681, Note_on_c, 0, 51, 110
1, 194751, Note_off_c, 0, 51, 110
1, 194764, Note_on_c, 0, 58, 104
1, 194832, Note_off_c, 0, 58, 104
1, 194865, Note_on_c, 0, 60, 101
1, 194938, Note_off_c, 0, 60, 101
1, 195627, Note_on_c, 0, 58, 107
1, 195695, Note_off_c, 0, 58, 107
1, 195701, Note_on_c, 0, 55, 107
1, 195784, Note_off_c, 0, 55, 107
1, 195799, Note_on_c, 0, 52, 105
1, 195889, Note_off_c, 0, 52, 105
1, 195904, Note_on_c, 0, 55, 103
1, 195975, Note_off_c, 0, 55, 103
1, 196101, Note_on_c, 0, 52, 109
1, 196186, Note_off_c, 0, 52, 109
1, 196220, Note_on_c, 0, 55, 100
1, 196296, Note_off_c, 0, 55, 100
1, 196600, Note_on_c, 0, 51, 111
1, 196689, Note_off_c, 0, 51, 111
1, 196705, Note_on_c, 0, 53, 123
1, 196763, Note_off_c, 0, 53, 123
1, 196802, Note_on_c, 0, 57, 115
1, 196858, Note_off_c, 0, 57, 115
1, 196886, Note_on_c, 0, 63, 121
1, 196978, Note_off_c, 0, 63, 121
1, 196989, Note_on_c, 0, 58, 106
1, 197050, Note_off_c, 0, 58, 106
1, 197132, Note_on_c, 0, 66, 105
1, 197165, Note_off_c, 0, 66, 105
1, 197169, Note_on_c, 0, 70, 107
1, 197261, Note_off_c, 0, 70, 107
1, 197290, Note_on_c, 0, 66, 104
1, 197345, Note_off_c, 0, 66, 104
1, 197366, Note_on_c, 0, 63, 102
1, 197430, Note_off_c, 0, 63, 102
1, 197485, Note_on_c, 0, 58, 119
1, 197548, Note_off_c, 0, 58, 119
1, 197564, Note_on_c, 0, 44, 116
1, 197725, Note_off_c, 0, 44, 116
1, 197744, Note_on_c, 0, 46, 112
1, 197811, Note_off_c, 0, 46, 112
1, 197834, Note_on_c, 0, 44, 115
1, 198002, Note_off_c, 0, 44, 115
1, 198688, Note_on_c, 0, 70, 115
1, 198765, Note_off_c, 0, 70, 115
1, 198808, Note_on_c, 0, 66, 110
1, 198863, Note_off_c, 0, 66, 110
1, 198881, Note_on_c, 0, 63, 113
1, 198973, Note_off_c, 0, 63, 113
1, 198994, Note_on_c, 0, 58, 110
1, 199071, Note_off_c, 0, 58, 110
1, 199097, Note_on_c, 0, 45, 111
1, 199236, Note_off_c, 0, 45, 111
1, 199241, Note_on_c, 0, 46, 102
1, 199330, Note_off_c, 0, 46, 102
1, 199958, Note_on_c, 0, 47, 111
1, 200040, Note_off_c, 0, 47, 111
1, 200051, Note_on_c, 0, 54, 107
1, 200211, Note_off_c, 0, 54, 107
1, 200238, Note_on_c, 0, 52, 110
1, 200297, Note_off_c, 0, 52, 110
1, 200343, Note_on_c, 0, 54, 111
1, 200402, Note_off_c, 0, 54, 111
1, 200421, Note_on_c, 0, 55, 110
1, 200489, Note_off_c, 0, 55, 110
1, 200510, Note_on_c, 0, 57, 110
1, 200586, Note_off_c, 0, 57, 110
1, 200598, Note_on_c, 0, 53, 113
1, 200675, Note_off_c, 0, 53, 113
1, 201397, Note_on_c, 0, 53, 113
1, 201473, Note_off_c, 0, 53, 113
1, 201485, Note_on_c, 0, 55, 113
1, 201553, Note_off_c, 0, 55, 113
1, 201571, Note_on_c, 0, 56, 109
1, 201614, Note_off_c, 0, 56, 109
1, 201650, Note_on_c, 0, 59, 109
1, 201713, Note_off_c, 0, 59, 109
1, 201728, Note_on_c, 0, 63, 115
1, 201824, Note_off_c, 0, 63, 115
1, 201829, Note_on_c, 0, 61, 111
1, 201896, Note_off_c, 0, 61, 111
1, 201921, Note_on_c, 0, 56, 110
1, 202002, Note_off_c, 0, 56, 110
1, 202118, Note_on_c, 0, 61, 115
1, 202221, Note_off_c, 0, 61, 115
1, 202239, Note_on_c, 0, 64, 113
1, 202299, Note_off_c, 0, 64, 113
1, 202326, Note_on_c, 0, 59, 112
1, 202397, Note_off_c, 0, 59, 112
1, 202412, Note_on_c, 0, 56, 108
1, 202486, Note_off_c, 0, 56, 108
1, 202510, Note_on_c, 0, 53, 105
1, 202596, Note_off_c, 0, 53, 105
1, 202656, Note_on_c, 0, 55, 101
1, 202690, Note_off_c, 0, 55, 101
1, 202711, Note_on_c, 0, 59, 108
1, 202769, Note_off_c, 0, 59, 108
1, 202818, Note_on_c, 0, 64, 114
1, 202886, Note_off_c, 0, 64, 114
1, 202905, Note_on_c, 0, 59, 111
1, 202981, Note_off_c, 0, 59, 111
1, 203028, Note_on_c, 0, 55, 105
1, 203075, Note_off_c, 0, 55, 105
1, 203100, Note_on_c, 0, 59, 110
1, 203178, Note_off_c, 0, 59, 110
1, 203198, Note_on_c, 0, 62, 116
1, 203266, Note_off_c, 0, 62, 116
1, 203284, Note_on_c, 0, 67, 114
1, 203347, Note_off_c, 0, 67, 114
1, 203370, Note_on_c, 0, 67, 119
1, 203451, Note_off_c, 0, 67, 119
1, 203465, Note_on_c, 0, 69, 111
1, 203546, Note_off_c, 0, 69, 111
1, 203574, Note_on_c, 0, 67, 107
1, 203656, Note_off_c, 0, 67, 107
1, 203684, Note_on_c, 0, 67, 111
1, 203749, Note_off_c, 0, 67, 111
1, 203772, Note_on_c, 0, 69, 106
1, 203841, Note_off_c, 0, 69, 106
1, 203882, Note_on_c, 0, 64, 107
1, 203968, Note_off_c, 0, 64, 107
1, 204045, Note_on_c, 0, 67, 105
1, 204127, Note_off_c, 0, 67, 105
1, 204169, Note_on_c, 0, 65, 107
1, 204203, Note_off_c, 0, 65, 107
1, 204215, Note_on_c, 0, 62, 111
1, 204305, Note_off_c, 0, 62, 111
1, 204321, Note_on_c, 0, 60, 107
1, 204406, Note_off_c, 0, 60, 107
1, 204431, Note_on_c, 0, 59, 108
1, 204496, Note_off_c, 0, 59, 108
1, 204514, Note_on_c, 0, 62, 110
1, 204595, Note_off_c, 0, 62, 110
1, 204624, Note_on_c, 0, 65, 101
1, 204696, Note_off_c, 0, 65, 101
1, 204737, Note_on_c, 0, 68, 99
1, 204783, Note_off_c, 0, 68, 99
1, 204804, Note_on_c, 0, 72, 114
1, 204876, Note_off_c, 0, 72, 114
1, 204909, Note_on_c, 0, 65, 107
1, 204964, Note_off_c, 0, 65, 107
1, 204992, Note_on_c, 0, 69, 98
1, 205050, Note_off_c, 0, 69, 98
1, 205105, Note_on_c, 0, 72, 107
1, 205164, Note_off_c, 0, 72, 107
1, 205183, Note_on_c, 0, 71, 103
1, 205352, Note_off_c, 0, 71, 103
1, 205988, Note_on_c, 0, 71, 112
1, 206989, Note_off_c, 0, 71, 112
1, 207034, Note_on_c, 0, 69, 105
1, 207119, Note_off_c, 0, 69, 105
1, 207166, Note_on_c, 0, 71, 110
1, 207251, Note_off_c, 0, 71, 110
1, 207393, Note_on_c, 0, 69, 98
1, 207431, Note_off_c, 0, 69, 98
1, 207449, Note_on_c, 0, 71, 110
1, 207540, Note_off_c, 0, 71, 110
1, 207636, Note_on_c, 0, 69, 107
1, 207692, Note_off_c, 0, 69, 107
1, 207737, Note_on_c, 0, 71, 113
1, 207792, Note_off_c, 0, 71, 113
1, 207821, Note_on_c, 0, 69, 108
1, 208098, Note_off_c, 0, 69, 108
1, 208103, Note_on_c, 0, 65, 100
1, 208170, Note_off_c, 0, 65, 100
1, 208194, Note_on_c, 0, 69, 106
1, 208254, Note_off_c, 0, 69, 106
1, 208303, Note_on_c, 0, 71, 107
1, 208381, Note_off_c, 0, 71, 107
1, 208511, Note_on_c, 0, 69, 94
1, 208560, Note_off_c, 0, 69, 94
1, 208584, Note_on_c, 0, 71, 112
1, 208680, Note_off_c, 0, 71, 112
1, 208699, Note_on_c, 0, 66, 103
1, 208741, Note_off_c, 0, 66, 103
1, 208755, Note_on_c, 0, 69, 103
1, 208835, Note_off_c, 0, 69, 103
1, 208890, Note_on_c, 0, 71, 117
1, 208966, Note_off_c, 0, 71, 117
1, 208980, Note_on_c, 0, 69, 114
1, 209036, Note_off_c, 0, 69, 114
1, 209047, Note_on_c, 0, 71, 115
1, 209101, Note_off_c, 0, 71, 115
1, 209119, Note_on_c, 0, 74, 114
1, 209199, Note_off_c, 0, 74, 114
1, 209220, Note_on_c, 0, 71, 113
1, 209292, Note_off_c, 0, 71, 113
1, 209308, Note_on_c, 0, 69, 115
1, 209384, Note_off_c, 0, 69, 115
1, 209403, Note_on_c, 0, 65, 121
1, 209450, Note_off_c, 0, 65, 121
1, 209464, Note_on_c, 0, 62, 113
1, 209579, Note_off_c, 0, 62, 113
1, 209592, Note_on_c, 0, 58, 99
1, 209648, Note_off_c, 0, 58, 99
1, 209663, Note_on_c, 0, 65, 110
1, 209937, Note_off_c, 0, 65, 110
1, 210067, Note_on_c, 0, 69, 113
1, 210127, Note_off_c, 0, 69, 113
1, 210161, Note_on_c, 0, 62, 113
1, 210198, Note_off_c, 0, 62, 113
1, 210710, Note_on_c, 0, 71, 110
1, 211053, Note_off_c, 0, 71, 110
1, 211077, Note_on_c, 0, 67, 101
1, 211144, Note_off_c, 0, 67, 101
1, 211171, Note_on_c, 0, 71, 114
1, 211230, Note_off_c, 0, 71, 114
1, 211253, Note_on_c, 0, 74, 112
1, 211396, Note_off_c, 0, 74, 112
1, 211429, Note_on_c, 0, 79, 120
1, 212275, Note_off_c, 0, 79, 120
1, 212329, Note_on_c, 0, 67, 9
1, 212432, Note_off_c, 0, 67, 9
1, 212470, Note_on_c, 0, 65, 112
1, 212697, Note_off_c, 0, 65, 112
1, 213435, Note_on_c, 0, 81, 119
1, 214496, Note_off_c, 0, 81, 119
1, 214630, Note_on_c, 0, 79, 101
1, 215182, Note_off_c, 0, 79, 101
1, 215218, Note_on_c, 0, 76, 101
1, 215280, Note_off_c, 0, 76, 101
1, 215305, Note_on_c, 0, 73, 102
1, 215824, Note_off_c, 0, 73, 102
1, 215845, Note_on_c, 0, 71, 100
1, 215908, Note_off_c, 0, 71, 100
1, 215926, Note_on_c, 0, 73, 106
1, 215994, Note_off_c, 0, 73, 106
1, 216049, Note_on_c, 0, 71, 101
1, 216109, Note_off_c, 0, 71, 101
1, 216140, Note_on_c, 0, 69, 100
1, 216189, Note_off_c, 0, 69, 100
1, 216218, Note_on_c, 0, 65, 100
1, 216262, Note_off_c, 0, 65, 100
1, 216340, Note_on_c, 0, 69, 95
1, 216652, Note_off_c, 0, 69, 95
1, 216690, Note_on_c, 0, 65, 106
1, 216756, Note_off_c, 0, 65, 106
1, 216791, Note_on_c, 0, 62, 105
1, 216956, Note_off_c, 0, 62, 105
1, 216982, Note_on_c, 0, 59, 99
1, 217034, Note_off_c, 0, 59, 99
1, 217059, Note_on_c, 0, 57, 107
1, 217127, Note_off_c, 0, 57, 107
1, 217160, Note_on_c, 0, 44, 111
1, 217337, Note_off_c, 0, 44, 111
1, 217347, Note_on_c, 0, 63, 112
1, 217447, Note_off_c, 0, 63, 112
1, 218219, Note_on_c, 0, 65, 107
1, 218380, Note_off_c, 0, 65, 107
1, 218421, Note_on_c, 0, 70, 103
1, 218466, Note_off_c, 0, 70, 103
1, 218507, Note_on_c, 0, 75, 96
1, 218614, Note_off_c, 0, 75, 96
1, 218632, Note_on_c, 0, 74, 98
1, 218808, Note_off_c, 0, 74, 98
1, 218831, Note_on_c, 0, 75, 106
1, 218883, Note_off_c, 0, 75, 106
1, 218893, Note_on_c, 0, 72, 100
1, 218954, Note_off_c, 0, 72, 100
1, 218998, Note_on_c, 0, 70, 101
1, 219071, Note_off_c, 0, 70, 101
1, 219101, Note_on_c, 0, 66, 104
1, 219162, Note_off_c, 0, 66, 104
1, 219185, Note_on_c, 0, 65, 106
1, 219247, Note_off_c, 0, 65, 106
1, 219260, Note_on_c, 0, 63, 107
1, 219335, Note_off_c, 0, 63, 107
1, 219369, Note_on_c, 0, 68, 99
1, 219432, Note_off_c, 0, 68, 99
1, 219441, Note_on_c, 0, 66, 100
1, 219508, Note_off_c, 0, 66, 100
1, 219526, Note_on_c, 0, 63, 105
1, 219636, Note_off_c, 0, 63, 105
1, 219703, Note_on_c, 0, 65, 110
1, 219812, Note_off_c, 0, 65, 110
1, 219829, Note_on_c, 0, 60, 103
1, 219875, Note_off_c, 0, 60, 103
1, 219931, Note_on_c, 0, 68, 101
1, 219989, Note_off_c, 0, 68, 101
1, 220005, Note_on_c, 0, 63, 115
1, 220094, Note_off_c, 0, 63, 115
1, 220112, Note_on_c, 0, 70, 100
1, 220165, Note_off_c, 0, 70, 100
1, 220203, Note_on_c, 0, 66, 102
1, 220264, Note_off_c, 0, 66, 102
1, 220272, Note_on_c, 0, 46, 108
1, 220376, Note_off_c, 0, 46, 108
1, 220424, Note_on_c, 0, 65, 99
1, 220451, Note_off_c, 0, 65, 99
1, 220471, Note_on_c, 0, 62, 102
1, 220555, Note_off_c, 0, 62, 102
1, 220572, Note_on_c, 0, 61, 99
1, 220644, Note_off_c, 0, 61, 99
1, 220659, Note_on_c, 0, 65, 89
1, 220716, Note_off_c, 0, 65, 89
1, 220727, Note_on_c, 0, 64, 95
1, 220815, Note_off_c, 0, 64, 95
1, 220831, Note_on_c, 0, 69, 101
1, 220912, Note_off_c, 0, 69, 101
1, 220919, Note_on_c, 0, 68, 97
1, 221001, Note_off_c, 0, 68, 97
1, 221023, Note_on_c, 0, 64, 104
1, 221097, Note_off_c, 0, 64, 104
1, 221120, Note_on_c, 0, 59, 104
1, 221196, Note_off_c, 0, 59, 104
1, 221210, Note_on_c, 0, 58, 104
1, 221279, Note_off_c, 0, 58, 104
1, 221297, Note_on_c, 0, 60, 102
1, 221375, Note_off_c, 0, 60, 102
1, 221382, Note_on_c, 0, 62, 111
1, 221472, Note_off_c, 0, 62, 111
1, 221506, Note_on_c, 0, 67, 101
1, 221571, Note_off_c, 0, 67, 101
1, 221581, Note_on_c, 0, 67, 111
1, 221675, Note_off_c, 0, 67, 111
1, 221683, Note_on_c, 0, 65, 104
1, 221754, Note_off_c, 0, 65, 104
1, 221766, Note_on_c, 0, 69, 102
1, 221849, Note_off_c, 0, 69, 102
1, 221868, Note_on_c, 0, 71, 107
1, 221965, Note_off_c, 0, 71, 107
1, 221980, Note_on_c, 0, 70, 106
1, 222062, Note_off_c, 0, 70, 106
1, 222098, Note_on_c, 0, 66, 106
1, 222179, Note_off_c, 0, 66, 106
1, 222186, Note_on_c, 0, 65, 109
1, 222216, Note_off_c, 0, 65, 109
1, 222232, Note_on_c, 0, 63, 105
1, 222329, Note_off_c, 0, 63, 105
1, 222343, Note_on_c, 0, 68, 108
1, 222421, Note_off_c, 0, 68, 108
1, 222435, Note_on_c, 0, 65, 105
1, 222511, Note_off_c, 0, 65, 105
1, 222518, Note_on_c, 0, 63, 113
1, 222597, Note_off_c, 0, 63, 113
1, 222614, Note_on_c, 0, 58, 107
1, 222669, Note_off_c, 0, 58, 107
1, 222691, Note_on_c, 0, 65, 110
1, 222795, Note_off_c, 0, 65, 110
1, 222816, Note_on_c, 0, 60, 103
1, 222870, Note_off_c, 0, 60, 103
1, 222897, Note_on_c, 0, 58, 105
1, 222964, Note_off_c, 0, 58, 105
1, 223025, Note_on_c, 0, 51, 108
1, 223101, Note_off_c, 0, 51, 108
1, 223126, Note_on_c, 0, 54, 111
1, 223176, Note_off_c, 0, 54, 111
1, 223186, Note_on_c, 0, 57, 102
1, 223258, Note_off_c, 0, 57, 102
1, 223924, Note_on_c, 0, 49, 113
1, 224011, Note_off_c, 0, 49, 113
1, 224031, Note_on_c, 0, 53, 106
1, 224085, Note_off_c, 0, 53, 106
1, 224101, Note_on_c, 0, 58, 107
1, 224184, Note_off_c, 0, 58, 107
1, 224185, Note_on_c, 0, 44, 114
1, 224459, Note_off_c, 0, 44, 114
1, 224525, Note_on_c, 0, 58, 103
1, 224564, Note_off_c, 0, 58, 103
1, 224590, Note_on_c, 0, 48, 110
1, 224674, Note_off_c, 0, 48, 110
1, 224694, Note_on_c, 0, 54, 105
1, 224750, Note_off_c, 0, 54, 105
1, 224766, Note_on_c, 0, 58, 106
1, 224849, Note_off_c, 0, 58, 106
1, 224869, Note_on_c, 0, 59, 104
1, 224899, Note_off_c, 0, 59, 104
1, 224908, Note_on_c, 0, 58, 100
1, 224933, Note_off_c, 0, 58, 100
1, 224949, Note_on_c, 0, 50, 103
1, 225031, Note_off_c, 0, 50, 103
1, 225053, Note_on_c, 0, 54, 103
1, 225116, Note_off_c, 0, 54, 103
1, 225124, Note_on_c, 0, 59, 102
1, 225189, Note_off_c, 0, 59, 102
1, 225206, Note_on_c, 0, 62, 109
1, 225297, Note_off_c, 0, 62, 109
1, 225302, Note_on_c, 0, 59, 102
1, 225367, Note_off_c, 0, 59, 102
1, 225386, Note_on_c, 0, 54, 100
1, 225462, Note_off_c, 0, 54, 100
1, 225468, Note_on_c, 0, 68, 96
1, 225555, Note_off_c, 0, 68, 96
1, 225571, Note_on_c, 0, 62, 105
1, 225656, Note_off_c, 0, 62, 105
1, 225657, Note_on_c, 0, 59, 101
1, 225733, Note_off_c, 0, 59, 101
1, 225764, Note_on_c, 0, 55, 102
1, 225842, Note_off_c, 0, 55, 102
1, 225869, Note_on_c, 0, 57, 103
1, 225925, Note_off_c, 0, 57, 103
1, 225950, Note_on_c, 0, 59, 102
1, 226013, Note_off_c, 0, 59, 102
1, 226033, Note_on_c, 0, 49, 111
1, 226118, Note_off_c, 0, 49, 111
1, 226119, Note_on_c, 0, 62, 109
1, 226158, Note_off_c, 0, 62, 109
1, 226176, Note_on_c, 0, 64, 107
1, 226282, Note_off_c, 0, 64, 107
1, 226293, Note_on_c, 0, 67, 108
1, 226461, Note_off_c, 0, 67, 108
1, 226483, Note_on_c, 0, 65, 106
1, 226571, Note_off_c, 0, 65, 106
1, 226578, Note_on_c, 0, 69, 110
1, 226640, Note_off_c, 0, 69, 110
1, 226654, Note_on_c, 0, 71, 115
1, 226741, Note_off_c, 0, 71, 115
1, 226774, Note_on_c, 0, 62, 108
1, 226839, Note_off_c, 0, 62, 108
1, 226854, Note_on_c, 0, 67, 116
1, 226916, Note_off_c, 0, 67, 116
1, 226927, Note_on_c, 0, 71, 112
1, 227004, Note_off_c, 0, 71, 112
1, 227016, Note_on_c, 0, 75, 115
1, 227084, Note_off_c, 0, 75, 115
1, 227091, Note_on_c, 0, 79, 120
1, 227284, Note_off_c, 0, 79, 120
1, 227294, Note_on_c, 0, 49, 122
1, 227483, Note_off_c, 0, 49, 122
1, 228599, Note_on_c, 0, 79, 125
1, 229866, Note_off_c, 0, 79, 125
1, 229894, Note_on_c, 0, 83, 108
1, 230055, Note_off_c, 0, 83, 108
1, 230059, Note_on_c, 0, 77, 109
1, 230579, Note_off_c, 0, 77, 109
1, 231080, Note_on_c, 0, 81, 106
1, 231359, Note_off_c, 0, 81, 106
1, 231391, Note_on_c, 0, 77, 105
1, 231870, Note_off_c, 0, 77, 105
1, 232474, Note_on_c, 0, 81, 95
1, 233403, Note_off_c, 0, 81, 95
1, 233466, Note_on_c, 0, 77, 97
1, 233694, Note_off_c, 0, 77, 97
1, 233735, Note_on_c, 0, 79, 92
1, 233831, Note_off_c, 0, 79, 92
1, 233898, Note_on_c, 0, 77, 98
1, 234043, Note_off_c, 0, 77, 98
1, 234141, Note_on_c, 0, 81, 82
1, 234356, Note_off_c, 0, 81, 82
1, 234472, Note_on_c, 0, 74, 96
1, 234548, Note_off_c, 0, 74, 96
1, 234564, Note_on_c, 0, 71, 105
1, 234659, Note_off_c, 0, 71, 105
1, 234674, Note_on_c, 0, 69, 103
1, 234759, Note_off_c, 0, 69, 103
1, 234796, Note_on_c, 0, 65, 110
1, 234887, Note_off_c, 0, 65, 110
1, 235512, Note_on_c, 0, 81, 110
1, 236238, Note_off_c, 0, 81, 110
1, 236270, Note_on_c, 0, 77, 98
1, 236319, Note_off_c, 0, 77, 98
1, 236438, Note_on_c, 0, 74, 94
1, 236697, Note_off_c, 0, 74, 94
1, 237034, Note_on_c, 0, 81, 99
1, 237749, Note_off_c, 0, 81, 99
1, 237792, Note_on_c, 0, 77, 96
1, 237897, Note_off_c, 0, 77, 96
1, 237913, Note_on_c, 0, 79, 106
1, 237969, Note_off_c, 0, 79, 106
1, 237979, Note_on_c, 0, 81, 98
1, 238035, Note_off_c, 0, 81, 98
1, 238382, Note_on_c, 0, 74, 95
1, 238472, Note_off_c, 0, 74, 95
1, 238499, Note_on_c, 0, 71, 95
1, 238746, Note_off_c, 0, 71, 95
1, 238860, Note_on_c, 0, 69, 110
1, 238908, Note_off_c, 0, 69, 110
1, 238920, Note_on_c, 0, 74, 111
1, 238990, Note_off_c, 0, 74, 111
1, 238995, Note_on_c, 0, 73, 114
1, 239122, Note_off_c, 0, 73, 114
1, 239131, Note_on_c, 0, 71, 115
1, 239204, Note_off_c, 0, 71, 115
1, 239214, Note_on_c, 0, 69, 117
1, 239334, Note_off_c, 0, 69, 117
1, 239350, Note_on_c, 0, 67, 112
1, 239465, Note_off_c, 0, 67, 112
1, 239479, Note_on_c, 0, 71, 111
1, 239559, Note_off_c, 0, 71, 111
1, 239566, Note_on_c, 0, 69, 120
1, 239651, Note_off_c, 0, 69, 120
1, 239664, Note_on_c, 0, 65, 117
1, 239722, Note_off_c, 0, 65, 117
1, 239734, Note_on_c, 0, 62, 115
1, 239832, Note_off_c, 0, 62, 115
1, 239843, Note_on_c, 0, 58, 109
1, 239921, Note_off_c, 0, 58, 109
1, 239950, Note_on_c, 0, 65, 112
1, 240019, Note_off_c, 0, 65, 112
1, 240033, Note_on_c, 0, 62, 108
1, 240118, Note_off_c, 0, 62, 108
1, 240667, Note_on_c, 0, 80, 107
1, 241415, Note_off_c, 0, 80, 107
1, 241542, Note_on_c, 0, 78, 98
1, 241736, Note_off_c, 0, 78, 98
1, 241844, Note_on_c, 0, 77, 100
1, 242001, Note_off_c, 0, 77, 100
1, 242010, Note_on_c, 0, 76, 99
1, 242103, Note_off_c, 0, 76, 99
1, 242112, Note_on_c, 0, 75, 101
1, 242200, Note_off_c, 0, 75, 101
1, 242206, Note_on_c, 0, 72, 95
1, 242285, Note_off_c, 0, 72, 95
1, 242298, Note_on_c, 0, 74, 103
1, 242387, Note_off_c, 0, 74, 103
1, 242431, Note_on_c, 0, 68, 98
1, 242482, Note_off_c, 0, 68, 98
1, 242502, Note_on_c, 0, 73, 99
1, 242551, Note_off_c, 0, 73, 99
1, 242591, Note_on_c, 0, 70, 101
1, 242661, Note_off_c, 0, 70, 101
1, 242720, Note_on_c, 0, 66, 105
1, 242787, Note_off_c, 0, 66, 105
1, 242814, Note_on_c, 0, 63, 102
1, 242908, Note_off_c, 0, 63, 102
1, 243548, Note_on_c, 0, 70, 104
1, 243918, Note_off_c, 0, 70, 104
1, 243951, Note_on_c, 0, 63, 103
1, 244046, Note_off_c, 0, 63, 103
1, 244057, Note_on_c, 0, 68, 97
1, 244127, Note_off_c, 0, 68, 97
1, 244161, Note_on_c, 0, 66, 105
1, 244230, Note_off_c, 0, 66, 105
1, 244240, Note_on_c, 0, 63, 111
1, 244333, Note_off_c, 0, 63, 111
1, 244347, Note_on_c, 0, 58, 97
1, 244408, Note_off_c, 0, 58, 97
1, 244408, Note_on_c, 0, 72, 107
1, 244516, Note_off_c, 0, 72, 107
1, 244551, Note_on_c, 0, 60, 108
1, 244592, Note_off_c, 0, 60, 108
1, 244609, Note_on_c, 0, 58, 104
1, 244668, Note_off_c, 0, 58, 104
1, 244693, Note_on_c, 0, 53, 102
1, 244754, Note_off_c, 0, 53, 102
1, 244763, Note_on_c, 0, 51, 106
1, 244862, Note_off_c, 0, 51, 106
1, 244869, Note_on_c, 0, 57, 103
1, 244934, Note_off_c, 0, 57, 103
1, 244941, Note_on_c, 0, 53, 109
1, 245033, Note_off_c, 0, 53, 109
1, 245065, Note_on_c, 0, 46, 111
1, 245165, Note_off_c, 0, 46, 111
1, 245187, Note_on_c, 0, 53, 106
1, 245285, Note_off_c, 0, 53, 106
1, 245321, Note_on_c, 0, 46, 106
1, 245377, Note_off_c, 0, 46, 106
1, 245396, Note_on_c, 0, 44, 109
1, 245848, Note_off_c, 0, 44, 109
1, 245857, Note_on_c, 0, 46, 110
1, 245925, Note_off_c, 0, 46, 110
1, 246074, Note_on_c, 0, 51, 109
1, 246181, Note_off_c, 0, 51, 109
1, 246621, Note_on_c, 0, 46, 113
1, 246724, Note_off_c, 0, 46, 113
1, 246749, Note_on_c, 0, 65, 107
1, 246831, Note_off_c, 0, 65, 107
1, 246842, Note_on_c, 0, 58, 109
1, 246888, Note_off_c, 0, 58, 109
1, 246909, Note_on_c, 0, 63, 113
1, 246970, Note_off_c, 0, 63, 113
1, 246982, Note_on_c, 0, 45, 110
1, 247258, Note_off_c, 0, 45, 110
1, 247841, Note_on_c, 0, 50, 107
1, 247944, Note_off_c, 0, 50, 107
1, 247959, Note_on_c, 0, 53, 105
1, 248014, Note_off_c, 0, 53, 105
1, 248023, Note_on_c, 0, 57, 107
1, 248110, Note_off_c, 0, 57, 107
1, 248135, Note_on_c, 0, 49, 111
1, 248200, Note_off_c, 0, 49, 111
1, 248225, Note_on_c, 0, 51, 103
1, 248285, Note_off_c, 0, 51, 103
1, 248353, Note_on_c, 0, 53, 102
1, 248418, Note_off_c, 0, 53, 102
1, 248439, Note_on_c, 0, 58, 99
1, 248495, Note_off_c, 0, 58, 99
1, 248522, Note_on_c, 0, 49, 101
1, 248670, Note_off_c, 0, 49, 101
1, 248671, Note_on_c, 0, 59, 99
1, 248757, Note_off_c, 0, 59, 99
1, 248762, Note_on_c, 0, 63, 109
1, 248875, Note_off_c, 0, 63, 109
1, 248875, Note_on_c, 0, 58, 90
1, 248951, Note_off_c, 0, 58, 90
1, 248958, Note_on_c, 0, 54, 96
1, 249018, Note_off_c, 0, 54, 96
1, 249078, Note_on_c, 0, 63, 94
1, 249143, Note_off_c, 0, 63, 94
1, 249149, Note_on_c, 0, 69, 99
1, 249300, Note_off_c, 0, 69, 99
1, 249323, Note_on_c, 0, 61, 103
1, 249386, Note_off_c, 0, 61, 103
1, 249401, Note_on_c, 0, 69, 90
1, 249491, Note_off_c, 0, 69, 90
1, 249515, Note_on_c, 0, 66, 97
1, 249574, Note_off_c, 0, 66, 97
1, 249575, Note_on_c, 0, 62, 109
1, 249686, Note_off_c, 0, 62, 109
1, 249702, Note_on_c, 0, 61, 104
1, 249785, Note_off_c, 0, 61, 104
1, 249788, Note_on_c, 0, 56, 103
1, 249875, Note_off_c, 0, 56, 103
1, 249893, Note_on_c, 0, 54, 95
1, 249943, Note_off_c, 0, 54, 95
1, 249955, Note_on_c, 0, 56, 107
1, 250055, Note_off_c, 0, 56, 107
1, 250098, Note_on_c, 0, 57, 99
1, 250142, Note_off_c, 0, 57, 99
1, 250146, Note_on_c, 0, 59, 106
1, 250227, Note_off_c, 0, 59, 106
1, 250243, Note_on_c, 0, 61, 113
1, 250314, Note_off_c, 0, 61, 113
1, 250326, Note_on_c, 0, 63, 113
1, 250384, Note_off_c, 0, 63, 113
1, 250394, Note_on_c, 0, 64, 114
1, 250490, Note_off_c, 0, 64, 114
1, 250499, Note_on_c, 0, 66, 106
1, 250578, Note_off_c, 0, 66, 106
1, 250621, Note_on_c, 0, 67, 107
1, 250681, Note_off_c, 0, 67, 107
1, 250693, Note_on_c, 0, 69, 106
1, 250763, Note_off_c, 0, 69, 106
1, 250787, Note_on_c, 0, 73, 100
1, 250872, Note_off_c, 0, 73, 100
1, 250891, Note_on_c, 0, 74, 97
1, 250973, Note_off_c, 0, 74, 97
1, 250992, Note_on_c, 0, 71, 100
1, 251064, Note_off_c, 0, 71, 100
1, 251085, Note_on_c, 0, 69, 104
1, 251173, Note_off_c, 0, 69, 104
1, 251200, Note_on_c, 0, 66, 104
1, 251265, Note_off_c, 0, 66, 104
1, 251270, Note_on_c, 0, 62, 109
1, 251370, Note_off_c, 0, 62, 109
1, 251389, Note_on_c, 0, 57, 95
1, 251450, Note_off_c, 0, 57, 95
1, 251468, Note_on_c, 0, 65, 108
1, 251549, Note_off_c, 0, 65, 108
1, 251554, Note_on_c, 0, 62, 107
1, 251660, Note_off_c, 0, 62, 107
1, 251667, Note_on_c, 0, 59, 102
1, 251731, Note_off_c, 0, 59, 102
1, 251743, Note_on_c, 0, 53, 97
1, 251879, Note_off_c, 0, 53, 97
1, 252511, Note_on_c, 0, 71, 111
1, 252877, Note_off_c, 0, 71, 111
1, 252900, Note_on_c, 0, 65, 105
1, 252945, Note_off_c, 0, 65, 105
1, 252992, Note_on_c, 0, 71, 115
1, 253067, Note_off_c, 0, 71, 115
1, 253093, Note_on_c, 0, 71, 117
1, 253166, Note_off_c, 0, 71, 117
1, 253177, Note_on_c, 0, 72, 113
1, 253245, Note_off_c, 0, 72, 113
1, 253267, Note_on_c, 0, 73, 114
1, 253359, Note_off_c, 0, 73, 114
1, 253387, Note_on_c, 0, 71, 118
1, 253463, Note_off_c, 0, 71, 118
1, 253481, Note_on_c, 0, 71, 117
1, 253561, Note_off_c, 0, 71, 117
1, 253582, Note_on_c, 0, 72, 112
1, 253652, Note_off_c, 0, 72, 112
1, 253673, Note_on_c, 0, 73, 112
1, 253772, Note_off_c, 0, 73, 112
1, 253791, Note_on_c, 0, 71, 115
1, 253867, Note_off_c, 0, 71, 115
1, 253882, Note_on_c, 0, 71, 116
1, 253965, Note_off_c, 0, 71, 116
1, 253979, Note_on_c, 0, 72, 113
1, 254036, Note_off_c, 0, 72, 113
1, 254057, Note_on_c, 0, 73, 110
1, 254128, Note_off_c, 0, 73, 110
1, 254144, Note_on_c, 0, 71, 115
1, 254227, Note_off_c, 0, 71, 115
1, 254255, Note_on_c, 0, 71, 114
1, 254342, Note_off_c, 0, 71, 114
1, 254351, Note_on_c, 0, 72, 111
1, 254436, Note_off_c, 0, 72, 111
1, 254456, Note_on_c, 0, 53, 114
1, 254522, Note_off_c, 0, 53, 114
1, 254535, Note_on_c, 0, 59, 112
1, 254684, Note_off_c, 0, 59, 112
1, 254715, Note_on_c, 0, 60, 106
1, 254780, Note_off_c, 0, 60, 106
1, 254811, Note_on_c, 0, 53, 114
1, 254877, Note_off_c, 0, 53, 114
1, 254883, Note_on_c, 0, 59, 112
1, 255047, Note_off_c, 0, 59, 112
1, 255066, Note_on_c, 0, 60, 114
1, 255146, Note_off_c, 0, 60, 114
1, 255191, Note_on_c, 0, 53, 108
1, 255256, Note_off_c, 0, 53, 108
1, 255267, Note_on_c, 0, 59, 111
1, 255414, Note_off_c, 0, 59, 111
1, 255424, Note_on_c, 0, 60, 112
1, 255513, Note_off_c, 0, 60, 112
1, 255521, Note_on_c, 0, 72, 106
1, 255622, Note_off_c, 0, 72, 106
1, 255634, Note_on_c, 0, 57, 111
1, 255718, Note_off_c, 0, 57, 111
1, 255731, Note_on_c, 0, 50, 104
1, 255868, Note_off_c, 0, 50, 104
1, 256372, Note_on_c, 0, 72, 116
1, 256463, Note_off_c, 0, 72, 116
1, 256475, Note_on_c, 0, 73, 113
1, 256558, Note_off_c, 0, 73, 113
1, 256571, Note_on_c, 0, 71, 112
1, 256648, Note_off_c, 0, 71, 112
1, 256654, Note_on_c, 0, 72, 117
1, 256739, Note_off_c, 0, 72, 117
1, 256754, Note_on_c, 0, 71, 112
1, 256937, Note_off_c, 0, 71, 112
1, 256942, Note_on_c, 0, 72, 119
1, 257007, Note_off_c, 0, 72, 119
1, 257025, Note_on_c, 0, 73, 113
1, 257103, Note_off_c, 0, 73, 113
1, 257118, Note_on_c, 0, 72, 99
1, 257400, Note_off_c, 0, 72, 99
1, 257418, Note_on_c, 0, 54, 114
1, 257490, Note_off_c, 0, 54, 114
1, 257497, Note_on_c, 0, 53, 111
1, 257640, Note_off_c, 0, 53, 111
1, 257693, Note_on_c, 0, 59, 109
1, 257788, Note_off_c, 0, 59, 109
1, 257794, Note_on_c, 0, 47, 116
1, 257858, Note_off_c, 0, 47, 116
1, 257874, Note_on_c, 0, 54, 112
1, 257944, Note_off_c, 0, 54, 112
1, 257946, Note_on_c, 0, 53, 111
1, 258055, Note_off_c, 0, 53, 111
1, 258070, Note_on_c, 0, 58, 108
1, 258144, Note_off_c, 0, 58, 108
1, 258159, Note_on_c, 0, 48, 113
1, 258233, Note_off_c, 0, 48, 113
1, 258241, Note_on_c, 0, 54, 110
1, 258413, Note_off_c, 0, 54, 110
1, 258452, Note_on_c, 0, 57, 112
1, 258513, Note_off_c, 0, 57, 112
1, 258525, Note_on_c, 0, 46, 114
1, 258605, Note_off_c, 0, 46, 114
1, 258632, Note_on_c, 0, 53, 112
1, 258741, Note_off_c, 0, 53, 112
1, 259177, Note_on_c, 0, 72, 118
1, 259274, Note_off_c, 0, 72, 118
1, 259286, Note_on_c, 0, 73, 113
1, 259362, Note_off_c, 0, 73, 113
1, 259370, Note_on_c, 0, 71, 113
1, 259482, Note_off_c, 0, 71, 113
1, 259512, Note_on_c, 0, 72, 110
1, 259622, Note_off_c, 0, 72, 110
1, 259651, Note_on_c, 0, 54, 113
1, 259752, Note_off_c, 0, 54, 113
1, 259761, Note_on_c, 0, 53, 112
1, 259894, Note_off_c, 0, 53, 112
1, 259929, Note_on_c, 0, 57, 110
1, 260019, Note_off_c, 0, 57, 110
1, 260041, Note_on_c, 0, 47, 111
1, 260113, Note_off_c, 0, 47, 111
1, 260131, Note_on_c, 0, 53, 108
1, 260241, Note_off_c, 0, 53, 108
1, 260335, Note_on_c, 0, 60, 111
1, 260384, Note_off_c, 0, 60, 111
1, 260393, Note_on_c, 0, 61, 110
1, 260481, Note_off_c, 0, 61, 110
1, 260494, Note_on_c, 0, 59, 110
1, 260668, Note_off_c, 0, 59, 110
1, 260679, Note_on_c, 0, 72, 116
1, 260767, Note_off_c, 0, 72, 116
1, 260778, Note_on_c, 0, 73, 112
1, 260838, Note_off_c, 0, 73, 112
1, 260863, Note_on_c, 0, 71, 104
1, 261033, Note_off_c, 0, 71, 104
1, 261065, Note_on_c, 0, 72, 106
1, 261111, Note_off_c, 0, 72, 106
1, 261148, Note_on_c, 0, 47, 107
1, 261252, Note_off_c, 0, 47, 107
1, 261272, Note_on_c, 0, 53, 110
1, 261425, Note_off_c, 0, 53, 110
1, 261434, Note_on_c, 0, 57, 110
1, 261527, Note_off_c, 0, 57, 110
1, 261572, Note_on_c, 0, 46, 110
1, 261637, Note_off_c, 0, 46, 110
1, 261649, Note_on_c, 0, 53, 108
1, 261720, Note_off_c, 0, 53, 108
1, 262180, Note_on_c, 0, 72, 114
1, 262266, Note_off_c, 0, 72, 114
1, 262279, Note_on_c, 0, 73, 110
1, 262355, Note_off_c, 0, 73, 110
1, 262393, Note_on_c, 0, 71, 113
1, 262447, Note_off_c, 0, 71, 113
1, 262461, Note_on_c, 0, 71, 110
1, 262515, Note_off_c, 0, 71, 110
1, 262535, Note_on_c, 0, 72, 112
1, 262625, Note_off_c, 0, 72, 112
1, 262646, Note_on_c, 0, 47, 111
1, 262744, Note_off_c, 0, 47, 111
1, 262753, Note_on_c, 0, 53, 111
1, 262945, Note_off_c, 0, 53, 111
1, 262956, Note_on_c, 0, 57, 109
1, 263062, Note_off_c, 0, 57, 109
1, 263062, Note_on_c, 0, 47, 115
1, 263107, Note_off_c, 0, 47, 115
1, 263107, Note_on_c, 0, 53, 107
1, 263254, Note_off_c, 0, 53, 107
1, 263330, Note_on_c, 0, 60, 112
1, 263411, Note_off_c, 0, 60, 112
1, 263416, Note_on_c, 0, 52, 105
1, 263481, Note_off_c, 0, 52, 105
1, 263483, Note_on_c, 0, 59, 106
1, 263655, Note_off_c, 0, 59, 106
1, 263670, Note_on_c, 0, 72, 109
1, 263755, Note_off_c, 0, 72, 109
1, 263775, Note_on_c, 0, 73, 103
1, 263838, Note_off_c, 0, 73, 103
1, 263851, Note_on_c, 0, 71, 109
1, 264032, Note_off_c, 0, 71, 109
1, 264044, Note_on_c, 0, 72, 109
1, 264131, Note_off_c, 0, 72, 109
1, 264150, Note_on_c, 0, 54, 120
1, 264206, Note_off_c, 0, 54, 120
1, 264222, Note_on_c, 0, 53, 112
1, 264427, Note_off_c, 0, 53, 112
1, 264458, Note_on_c, 0, 57, 112
1, 264534, Note_off_c, 0, 57, 112
1, 264546, Note_on_c, 0, 46, 111
1, 264607, Note_off_c, 0, 46, 111
1, 264616, Note_on_c, 0, 53, 101
1, 264754, Note_off_c, 0, 53, 101
1, 265250, Note_on_c, 0, 73, 99
1, 265336, Note_off_c, 0, 73, 99
1, 265350, Note_on_c, 0, 74, 9
1, 265409, Note_off_c, 0, 74, 9
1, 265462, Note_on_c, 0, 70, 109
1, 265560, Note_off_c, 0, 70, 109
1, 265591, Note_on_c, 0, 72, 109
1, 265689, Note_off_c, 0, 72, 109
1, 265736, Note_on_c, 0, 46, 117
1, 265793, Note_off_c, 0, 46, 117
1, 265822, Note_on_c, 0, 51, 112
1, 265914, Note_off_c, 0, 51, 112
1, 265941, Note_on_c, 0, 54, 111
1, 266064, Note_off_c, 0, 54, 111
1, 266098, Note_on_c, 0, 45, 115
1, 266165, Note_off_c, 0, 45, 115
1, 266180, Note_on_c, 0, 51, 112
1, 266302, Note_off_c, 0, 51, 112
1, 266367, Note_on_c, 0, 73, 99
1, 266450, Note_off_c, 0, 73, 99
1, 266467, Note_on_c, 0, 73, 100
1, 266551, Note_off_c, 0, 73, 100
1, 266572, Note_on_c, 0, 70, 106
1, 266634, Note_off_c, 0, 70, 106
1, 266659, Note_on_c, 0, 70, 107
1, 266710, Note_off_c, 0, 70, 107
1, 266719, Note_on_c, 0, 73, 108
1, 266848, Note_off_c, 0, 73, 108
1, 266905, Note_on_c, 0, 70, 107
1, 267046, Note_off_c, 0, 70, 107
1, 267068, Note_on_c, 0, 73, 108
1, 267139, Note_off_c, 0, 73, 108
1, 267175, Note_on_c, 0, 46, 114
1, 267252, Note_off_c, 0, 46, 114
1, 267263, Note_on_c, 0, 51, 113
1, 267394, Note_off_c, 0, 51, 113
1, 267434, Note_on_c, 0, 54, 113
1, 267559, Note_off_c, 0, 54, 113
1, 267574, Note_on_c, 0, 46, 117
1, 267628, Note_off_c, 0, 46, 117
1, 267633, Note_on_c, 0, 51, 113
1, 267732, Note_off_c, 0, 51, 113
1, 268167, Note_on_c, 0, 73, 107
1, 268298, Note_off_c, 0, 73, 107
1, 268325, Note_on_c, 0, 70, 109
1, 268410, Note_off_c, 0, 70, 109
1, 268424, Note_on_c, 0, 70, 108
1, 268488, Note_off_c, 0, 70, 108
1, 268498, Note_on_c, 0, 73, 108
1, 268619, Note_off_c, 0, 73, 108
1, 268626, Note_on_c, 0, 47, 114
1, 268710, Note_off_c, 0, 47, 114
1, 268723, Note_on_c, 0, 51, 114
1, 268868, Note_off_c, 0, 51, 114
1, 268886, Note_on_c, 0, 54, 110
1, 268990, Note_off_c, 0, 54, 110
1, 269026, Note_on_c, 0, 46, 117
1, 269082, Note_off_c, 0, 46, 117
1, 269088, Note_on_c, 0, 51, 112
1, 269230, Note_off_c, 0, 51, 112
1, 269271, Note_on_c, 0, 73, 101
1, 269418, Note_off_c, 0, 73, 101
1, 269478, Note_on_c, 0, 70, 105
1, 269535, Note_off_c, 0, 70, 105
1, 269567, Note_on_c, 0, 70, 109
1, 269630, Note_off_c, 0, 70, 109
1, 269653, Note_on_c, 0, 73, 111
1, 269711, Note_off_c, 0, 73, 111
1, 269729, Note_on_c, 0, 73, 105
1, 269790, Note_off_c, 0, 73, 105
1, 269815, Note_on_c, 0, 70, 107
1, 269972, Note_off_c, 0, 70, 107
1, 270013, Note_on_c, 0, 73, 107
1, 270067, Note_off_c, 0, 73, 107
1, 270081, Note_on_c, 0, 46, 107
1, 270149, Note_off_c, 0, 46, 107
1, 270165, Note_on_c, 0, 51, 112
1, 270337, Note_off_c, 0, 51, 112
1, 270355, Note_on_c, 0, 54, 112
1, 270420, Note_off_c, 0, 54, 112
1, 270462, Note_on_c, 0, 46, 116
1, 270511, Note_off_c, 0, 46, 116
1, 270532, Note_on_c, 0, 51, 110
1, 270657, Note_off_c, 0, 51, 110
1, 271136, Note_on_c, 0, 72, 116
1, 271223, Note_off_c, 0, 72, 116
1, 271233, Note_on_c, 0, 73, 107
1, 271306, Note_off_c, 0, 73, 107
1, 271348, Note_on_c, 0, 71, 114
1, 271423, Note_off_c, 0, 71, 114
1, 271453, Note_on_c, 0, 71, 112
1, 271599, Note_off_c, 0, 71, 112
1, 271620, Note_on_c, 0, 47, 115
1, 271687, Note_off_c, 0, 47, 115
1, 271707, Note_on_c, 0, 50, 112
1, 271892, Note_off_c, 0, 50, 112
1, 271893, Note_on_c, 0, 54, 106
1, 271982, Note_off_c, 0, 54, 106
1, 272004, Note_on_c, 0, 46, 113
1, 272059, Note_off_c, 0, 46, 113
1, 272062, Note_on_c, 0, 50, 110
1, 272193, Note_off_c, 0, 50, 110
1, 272297, Note_on_c, 0, 61, 106
1, 272364, Note_off_c, 0, 61, 106
1, 272393, Note_on_c, 0, 72, 110
1, 272451, Note_off_c, 0, 72, 110
1, 272467, Note_on_c, 0, 59, 108
1, 272538, Note_off_c, 0, 59, 108
1, 272563, Note_on_c, 0, 71, 110
1, 272658, Note_off_c, 0, 71, 110
1, 272667, Note_on_c, 0, 72, 109
1, 272717, Note_off_c, 0, 72, 109
1, 272743, Note_on_c, 0, 51, 110
1, 272818, Note_off_c, 0, 51, 110
1, 272856, Note_on_c, 0, 59, 111
1, 273031, Note_off_c, 0, 59, 111
1, 273112, Note_on_c, 0, 50, 106
1, 273279, Note_off_c, 0, 50, 106
1, 273377, Note_on_c, 0, 53, 105
1, 273489, Note_off_c, 0, 53, 105
1, 273499, Note_on_c, 0, 47, 104
1, 273540, Note_off_c, 0, 47, 104
1, 273551, Note_on_c, 0, 50, 107
1, 273715, Note_off_c, 0, 50, 107
1, 274062, Note_on_c, 0, 71, 113
1, 274098, Note_off_c, 0, 71, 113
1, 274104, Note_on_c, 0, 72, 111
1, 274146, Note_off_c, 0, 72, 111
1, 274155, Note_on_c, 0, 73, 117
1, 274249, Note_off_c, 0, 73, 117
1, 274270, Note_on_c, 0, 71, 115
1, 274446, Note_off_c, 0, 71, 115
1, 274456, Note_on_c, 0, 72, 118
1, 274532, Note_off_c, 0, 72, 118
1, 274532, Note_on_c, 0, 47, 109
1, 274602, Note_off_c, 0, 47, 109
1, 274607, Note_on_c, 0, 50, 112
1, 274765, Note_off_c, 0, 50, 112
1, 274799, Note_on_c, 0, 53, 108
1, 274874, Note_off_c, 0, 53, 108
1, 274906, Note_on_c, 0, 47, 108
1, 274962, Note_off_c, 0, 47, 108
1, 274980, Note_on_c, 0, 50, 111
1, 275101, Note_off_c, 0, 50, 111
1, 275164, Note_on_c, 0, 71, 111
1, 275258, Note_off_c, 0, 71, 111
1, 275270, Note_on_c, 0, 50, 110
1, 275319, Note_off_c, 0, 50, 110
1, 275337, Note_on_c, 0, 59, 105
1, 275460, Note_off_c, 0, 59, 105
1, 275491, Note_on_c, 0, 71, 113
1, 275537, Note_off_c, 0, 71, 113
1, 275555, Note_on_c, 0, 71, 115
1, 275594, Note_off_c, 0, 71, 115
1, 275615, Note_on_c, 0, 72, 107
1, 275688, Note_off_c, 0, 72, 107
1, 275697, Note_on_c, 0, 71, 105
1, 275959, Note_off_c, 0, 71, 105
1, 275973, Note_on_c, 0, 47, 112
1, 276037, Note_off_c, 0, 47, 112
1, 276049, Note_on_c, 0, 50, 107
1, 276236, Note_off_c, 0, 50, 107
1, 276258, Note_on_c, 0, 54, 114
1, 276327, Note_off_c, 0, 54, 114
1, 276350, Note_on_c, 0, 47, 112
1, 276395, Note_off_c, 0, 47, 112
1, 276405, Note_on_c, 0, 50, 107
1, 276545, Note_off_c, 0, 50, 107
1, 277163, Note_on_c, 0, 72, 114
1, 277268, Note_off_c, 0, 72, 114
1, 277269, Note_on_c, 0, 69, 110
1, 277370, Note_off_c, 0, 69, 110
1, 277431, Note_on_c, 0, 79, 114
1, 277888, Note_off_c, 0, 79, 114
1, 277916, Note_on_c, 0, 77, 97
1, 277990, Note_off_c, 0, 77, 97
1, 278009, Note_on_c, 0, 79, 102
1, 278609, Note_off_c, 0, 79, 102
1, 278737, Note_on_c, 0, 79, 105
1, 278933, Note_off_c, 0, 79, 105
1, 279014, Note_on_c, 0, 79, 101
1, 279251, Note_off_c, 0, 79, 101
1, 279367, Note_on_c, 0, 79, 90
1, 279467, Note_off_c, 0, 79, 90
1, 279501, Note_on_c, 0, 69, 95
1, 279656, Note_off_c, 0, 69, 95
1, 279681, Note_on_c, 0, 67, 98
1, 279782, Note_off_c, 0, 67, 98
1, 280498, Note_on_c, 0, 74, 104
1, 280785, Note_off_c, 0, 74, 104
1, 280797, Note_on_c, 0, 71, 105
1, 280843, Note_off_c, 0, 71, 105
1, 280852, Note_on_c, 0, 70, 113
1, 280944, Note_off_c, 0, 70, 113
1, 280955, Note_on_c, 0, 69, 114
1, 281039, Note_off_c, 0, 69, 114
1, 281046, Note_on_c, 0, 68, 111
1, 281093, Note_off_c, 0, 68, 111
1, 281103, Note_on_c, 0, 67, 112
1, 281209, Note_off_c, 0, 67, 112
1, 281225, Note_on_c, 0, 71, 113
1, 281302, Note_off_c, 0, 71, 113
1, 281318, Note_on_c, 0, 67, 111
1, 281484, Note_off_c, 0, 67, 111
1, 281502, Note_on_c, 0, 63, 115
1, 281582, Note_off_c, 0, 63, 115
1, 281606, Note_on_c, 0, 67, 111
1, 281685, Note_off_c, 0, 67, 111
1, 281694, Note_on_c, 0, 65, 110
1, 281763, Note_off_c, 0, 65, 110
1, 281788, Note_on_c, 0, 63, 110
1, 281836, Note_off_c, 0, 63, 110
1, 281846, Note_on_c, 0, 61, 111
1, 281966, Note_off_c, 0, 61, 111
1, 281978, Note_on_c, 0, 56, 101
1, 282025, Note_off_c, 0, 56, 101
1, 282037, Note_on_c, 0, 63, 109
1, 282126, Note_off_c, 0, 63, 109
1, 282146, Note_on_c, 0, 61, 108
1, 282231, Note_off_c, 0, 61, 108
1, 282241, Note_on_c, 0, 59, 109
1, 282367, Note_off_c, 0, 59, 109
1, 282378, Note_on_c, 0, 56, 103
1, 282418, Note_off_c, 0, 56, 103
1, 282426, Note_on_c, 0, 61, 113
1, 282751, Note_off_c, 0, 61, 113
1, 282842, Note_on_c, 0, 65, 115
1, 282931, Note_off_c, 0, 65, 115
1, 282941, Note_on_c, 0, 62, 98
1, 283117, Note_off_c, 0, 62, 98
1, 283117, Note_on_c, 0, 69, 109
1, 283487, Note_off_c, 0, 69, 109
1, 283831, Note_on_c, 0, 69, 114
1, 284217, Note_off_c, 0, 69, 114
1, 284229, Note_on_c, 0, 67, 111
1, 284321, Note_off_c, 0, 67, 111
1, 284332, Note_on_c, 0, 65, 109
1, 284440, Note_off_c, 0, 65, 109
1, 284453, Note_on_c, 0, 65, 107
1, 284496, Note_off_c, 0, 65, 107
1, 284501, Note_on_c, 0, 62, 107
1, 284593, Note_off_c, 0, 62, 107
1, 284600, Note_on_c, 0, 59, 108
1, 284677, Note_off_c, 0, 59, 108
1, 284680, Note_on_c, 0, 65, 112
1, 284787, Note_off_c, 0, 65, 112
1, 284796, Note_on_c, 0, 62, 113
1, 284907, Note_off_c, 0, 62, 113
1, 285360, Note_on_c, 0, 71, 112
1, 285733, Note_off_c, 0, 71, 112
1, 285744, Note_on_c, 0, 65, 107
1, 285816, Note_off_c, 0, 65, 107
1, 285832, Note_on_c, 0, 71, 114
1, 285994, Note_off_c, 0, 71, 114
1, 286008, Note_on_c, 0, 72, 115
1, 286088, Note_off_c, 0, 72, 115
1, 286099, Note_on_c, 0, 73, 116
1, 286184, Note_off_c, 0, 73, 116
1, 286189, Note_on_c, 0, 71, 112
1, 286363, Note_off_c, 0, 71, 112
1, 286377, Note_on_c, 0, 72, 112
1, 286452, Note_off_c, 0, 72, 112
1, 286471, Note_on_c, 0, 73, 109
1, 286555, Note_off_c, 0, 73, 109
1, 286574, Note_on_c, 0, 69, 114
1, 286658, Note_off_c, 0, 69, 114
1, 286679, Note_on_c, 0, 65, 114
1, 286753, Note_off_c, 0, 65, 114
1, 286767, Note_on_c, 0, 62, 110
1, 286873, Note_off_c, 0, 62, 110
1, 286881, Note_on_c, 0, 58, 106
1, 286955, Note_off_c, 0, 58, 106
1, 286958, Note_on_c, 0, 53, 110
1, 287045, Note_off_c, 0, 53, 110
1, 287050, Note_on_c, 0, 62, 111
1, 287124, Note_off_c, 0, 62, 111
1, 287134, Note_on_c, 0, 59, 110
1, 287217, Note_off_c, 0, 59, 110
1, 287234, Note_on_c, 0, 57, 110
1, 287307, Note_off_c, 0, 57, 110
1, 287311, Note_on_c, 0, 53, 111
1, 287416, Note_off_c, 0, 53, 111
1, 287427, Note_on_c, 0, 59, 112
1, 287499, Note_off_c, 0, 59, 112
1, 287500, Note_on_c, 0, 57, 112
1, 287591, Note_off_c, 0, 57, 112
1, 287591, Note_on_c, 0, 53, 114
1, 287664, Note_off_c, 0, 53, 114
1, 287680, Note_on_c, 0, 50, 112
1, 287767, Note_off_c, 0, 50, 112
1, 287773, Note_on_c, 0, 53, 112
1, 287853, Note_off_c, 0, 53, 112
1, 287863, Note_on_c, 0, 50, 110
1, 287939, Note_off_c, 0, 50, 110
1, 287950, Note_on_c, 0, 45, 118
1, 288042, Note_off_c, 0, 45, 118
1, 288448, Note_on_c, 0, 41, 118
1, 288533, Note_off_c, 0, 41, 118
1, 288565, Note_on_c, 0, 65, 110
1, 288621, Note_off_c, 0, 65, 110
1, 288635, Note_on_c, 0, 68, 113
1, 288710, Note_off_c, 0, 68, 113
1, 288719, Note_on_c, 0, 70, 119
1, 288798, Note_off_c, 0, 70, 119
1, 288804, Note_on_c, 0, 44, 121
1, 288944, Note_off_c, 0, 44, 121
1, 289178, Note_on_c, 0, 44, 126
1, 289318, Note_off_c, 0, 44, 126
1, 289334, Note_on_c, 0, 54, 113
1, 289395, Note_off_c, 0, 54, 113
1, 289411, Note_on_c, 0, 58, 111
1, 289472, Note_off_c, 0, 58, 111
1, 289501, Note_on_c, 0, 59, 111
1, 289577, Note_off_c, 0, 59, 111
1, 289579, Note_on_c, 0, 46, 113
1, 289721, Note_off_c, 0, 46, 113
1, 289906, Note_on_c, 0, 46, 110
1, 290036, Note_off_c, 0, 46, 110
1, 290059, Note_on_c, 0, 53, 109
1, 290139, Note_off_c, 0, 53, 109
1, 290169, Note_on_c, 0, 58, 105
1, 290225, Note_off_c, 0, 58, 105
1, 290234, Note_on_c, 0, 59, 112
1, 290297, Note_off_c, 0, 59, 112
1, 290322, Note_on_c, 0, 48, 113
1, 290407, Note_off_c, 0, 48, 113
1, 290666, Note_on_c, 0, 48, 120
1, 290755, Note_off_c, 0, 48, 120
1, 290766, Note_on_c, 0, 53, 119
1, 290825, Note_off_c, 0, 53, 119
1, 290847, Note_on_c, 0, 58, 114
1, 290924, Note_off_c, 0, 58, 114
1, 290938, Note_on_c, 0, 59, 114
1, 291029, Note_off_c, 0, 59, 114
1, 291043, Note_on_c, 0, 51, 107
1, 291146, Note_off_c, 0, 51, 107
1, 291408, Note_on_c, 0, 51, 117
1, 291487, Note_off_c, 0, 51, 117
1, 291492, Note_on_c, 0, 54, 113
1, 291538, Note_off_c, 0, 54, 113
1, 291567, Note_on_c, 0, 58, 110
1, 291667, Note_off_c, 0, 58, 110
1, 291686, Note_on_c, 0, 58, 113
1, 291771, Note_off_c, 0, 58, 113
1, 291774, Note_on_c, 0, 51, 114
1, 291861, Note_off_c, 0, 51, 114
1, 291870, Note_on_c, 0, 54, 110
1, 291931, Note_off_c, 0, 54, 110
1, 291940, Note_on_c, 0, 57, 117
1, 292023, Note_off_c, 0, 57, 117
1, 292036, Note_on_c, 0, 52, 113
1, 292140, Note_off_c, 0, 52, 113
1, 292531, Note_on_c, 0, 52, 112
1, 292666, Note_off_c, 0, 52, 112
1, 292676, Note_on_c, 0, 57, 112
1, 292728, Note_off_c, 0, 57, 112
1, 292757, Note_on_c, 0, 56, 115
1, 292809, Note_off_c, 0, 56, 115
1, 292820, Note_on_c, 0, 52, 113
1, 292912, Note_off_c, 0, 52, 113
1, 292930, Note_on_c, 0, 69, 112
1, 293040, Note_off_c, 0, 69, 112
1, 293077, Note_on_c, 0, 62, 109
1, 293153, Note_off_c, 0, 62, 109
1, 293184, Note_on_c, 0, 67, 112
1, 293364, Note_off_c, 0, 67, 112
1, 293375, Note_on_c, 0, 65, 114
1, 293459, Note_off_c, 0, 65, 114
1, 293489, Note_on_c, 0, 68, 117
1, 293543, Note_off_c, 0, 68, 117
1, 293556, Note_on_c, 0, 70, 115
1, 293653, Note_off_c, 0, 70, 115
1, 293664, Note_on_c, 0, 63, 114
1, 293710, Note_off_c, 0, 63, 114
1, 293717, Note_on_c, 0, 66, 111
1, 293792, Note_off_c, 0, 66, 111
1, 293809, Note_on_c, 0, 58, 117
1, 293901, Note_off_c, 0, 58, 117
1, 293915, Note_on_c, 0, 58, 117
1, 293955, Note_off_c, 0, 58, 117
1, 293969, Note_on_c, 0, 54, 110
1, 294020, Note_off_c, 0, 54, 110
1, 294020, Note_on_c, 0, 50, 120
1, 294089, Note_off_c, 0, 50, 120
1, 294113, Note_on_c, 0, 52, 113
1, 294197, Note_off_c, 0, 52, 113
1, 294203, Note_on_c, 0, 50, 112
1, 294298, Note_off_c, 0, 50, 112
1, 294304, Note_on_c, 0, 46, 119
1, 294450, Note_off_c, 0, 46, 119
1, 294488, Note_on_c, 0, 46, 121
1, 294549, Note_off_c, 0, 46, 121
1, 294567, Note_on_c, 0, 44, 111
1, 294721, Note_off_c, 0, 44, 111
1, 294853, Note_on_c, 0, 46, 115
1, 294941, Note_off_c, 0, 46, 115
1, 294953, Note_on_c, 0, 56, 106
1, 295012, Note_off_c, 0, 56, 106
1, 295053, Note_on_c, 0, 57, 116
1, 295127, Note_off_c, 0, 57, 116
1, 295149, Note_on_c, 0, 50, 113
1, 295289, Note_off_c, 0, 50, 113
1, 295649, Note_on_c, 0, 62, 115
1, 295736, Note_off_c, 0, 62, 115
1, 295744, Note_on_c, 0, 65, 120
1, 295819, Note_off_c, 0, 65, 120
1, 295829, Note_on_c, 0, 68, 116
1, 295912, Note_off_c, 0, 68, 116
1, 295917, Note_on_c, 0, 63, 118
1, 296006, Note_off_c, 0, 63, 118
1, 296019, Note_on_c, 0, 65, 114
1, 296080, Note_off_c, 0, 65, 114
1, 296098, Note_on_c, 0, 67, 112
1, 296194, Note_off_c, 0, 67, 112
1, 296204, Note_on_c, 0, 68, 112
1, 296274, Note_off_c, 0, 68, 112
1, 296285, Note_on_c, 0, 65, 113
1, 296353, Note_off_c, 0, 65, 113
1, 296361, Note_on_c, 0, 64, 115
1, 296421, Note_off_c, 0, 64, 115
1, 296435, Note_on_c, 0, 63, 110
1, 296527, Note_off_c, 0, 63, 110
1, 296546, Note_on_c, 0, 67, 110
1, 296733, Note_off_c, 0, 67, 110
1, 296741, Note_on_c, 0, 67, 111
1, 296806, Note_off_c, 0, 67, 111
1, 296823, Note_on_c, 0, 63, 111
1, 296903, Note_off_c, 0, 63, 111
1, 296913, Note_on_c, 0, 61, 112
1, 296994, Note_off_c, 0, 61, 112
1, 297000, Note_on_c, 0, 68, 116
1, 297077, Note_off_c, 0, 68, 116
1, 297090, Note_on_c, 0, 63, 110
1, 297166, Note_off_c, 0, 63, 110
1, 297189, Note_on_c, 0, 58, 110
1, 297281, Note_off_c, 0, 58, 110
1, 297294, Note_on_c, 0, 53, 111
1, 297356, Note_off_c, 0, 53, 111
1, 297357, Note_on_c, 0, 51, 105
1, 297454, Note_off_c, 0, 51, 105
1, 297472, Note_on_c, 0, 53, 105
1, 297543, Note_off_c, 0, 53, 105
1, 297551, Note_on_c, 0, 59, 110
1, 297636, Note_off_c, 0, 59, 110
1, 297641, Note_on_c, 0, 63, 117
1, 297746, Note_off_c, 0, 63, 117
1, 297754, Note_on_c, 0, 59, 110
1, 297849, Note_off_c, 0, 59, 110
1, 297865, Note_on_c, 0, 55, 105
1, 297934, Note_off_c, 0, 55, 105
1, 297952, Note_on_c, 0, 59, 107
1, 298041, Note_off_c, 0, 59, 107
1, 298052, Note_on_c, 0, 63, 123
1, 298134, Note_off_c, 0, 63, 123
1, 298144, Note_on_c, 0, 67, 110
1, 298232, Note_off_c, 0, 67, 110
1, 298247, Note_on_c, 0, 68, 117
1, 298319, Note_off_c, 0, 68, 117
1, 298328, Note_on_c, 0, 67, 120
1, 298411, Note_off_c, 0, 67, 120
1, 298421, Note_on_c, 0, 67, 116
1, 298511, Note_off_c, 0, 67, 116
1, 298525, Note_on_c, 0, 68, 119
1, 298611, Note_off_c, 0, 68, 119
1, 298623, Note_on_c, 0, 65, 116
1, 298699, Note_off_c, 0, 65, 116
1, 298716, Note_on_c, 0, 69, 116
1, 298805, Note_off_c, 0, 69, 116
1, 298814, Note_on_c, 0, 71, 109
1, 298876, Note_off_c, 0, 71, 109
1, 298888, Note_on_c, 0, 69, 118
1, 298969, Note_off_c, 0, 69, 118
1, 298987, Note_on_c, 0, 65, 117
1, 299078, Note_off_c, 0, 65, 117
1, 299090, Note_on_c, 0, 62, 116
1, 299187, Note_off_c, 0, 62, 116
1, 299194, Note_on_c, 0, 58, 108
1, 299261, Note_off_c, 0, 58, 108
1, 299261, Note_on_c, 0, 65, 111
1, 299459, Note_off_c, 0, 65, 111
1, 299470, Note_on_c, 0, 67, 106
1, 299626, Note_off_c, 0, 67, 106
1, 299644, Note_on_c, 0, 69, 106
1, 299769, Note_off_c, 0, 69, 106
1, 300204, Note_on_c, 0, 65, 118
1, 300312, Note_off_c, 0, 65, 118
1, 300331, Note_on_c, 0, 62, 105
1, 300413, Note_off_c, 0, 62, 105
1, 300426, Note_on_c, 0, 67, 116
1, 300591, Note_off_c, 0, 67, 116
1, 300620, Note_on_c, 0, 65, 107
1, 300738, Note_off_c, 0, 65, 107
1, 300876, Note_on_c, 0, 62, 107
1, 301174, Note_off_c, 0, 62, 107
1, 301233, Note_on_c, 0, 65, 107
1, 301349, Note_off_c, 0, 65, 107
1, 301359, Note_on_c, 0, 62, 104
1, 301424, Note_off_c, 0, 62, 104
1, 301463, Note_on_c, 0, 69, 120
1, 302299, Note_off_c, 0, 69, 120
1, 302708, Note_on_c, 0, 69, 110
1, 302809, Note_off_c, 0, 69, 110
1, 302821, Note_on_c, 0, 62, 106
1, 302909, Note_off_c, 0, 62, 106
1, 302987, Note_on_c, 0, 69, 118
1, 303355, Note_off_c, 0, 69, 118
1, 303373, Note_on_c, 0, 67, 116
1, 303443, Note_off_c, 0, 67, 116
1, 303470, Note_on_c, 0, 65, 114
1, 303613, Note_off_c, 0, 65, 114
1, 303624, Note_on_c, 0, 62, 106
1, 303728, Note_off_c, 0, 62, 106
1, 303817, Note_on_c, 0, 69, 113
1, 304006, Note_off_c, 0, 69, 113
1, 304012, Note_on_c, 0, 72, 111
1, 304106, Note_off_c, 0, 72, 111
1, 304180, Note_on_c, 0, 64, 119
1, 304536, Note_off_c, 0, 64, 119
1, 304554, Note_on_c, 0, 62, 110
1, 304619, Note_off_c, 0, 62, 110
1, 304639, Note_on_c, 0, 65, 112
1, 304716, Note_off_c, 0, 65, 112
1, 304731, Note_on_c, 0, 62, 108
1, 304816, Note_off_c, 0, 62, 108
1, 304873, Note_on_c, 0, 60, 111
1, 304920, Note_off_c, 0, 60, 111
1, 304921, Note_on_c, 0, 59, 110
1, 305017, Note_off_c, 0, 59, 110
1, 305020, Note_on_c, 0, 62, 112
1, 305086, Note_off_c, 0, 62, 112
1, 305092, Note_on_c, 0, 59, 108
1, 305190, Note_off_c, 0, 59, 108
1, 305230, Note_on_c, 0, 57, 109
1, 305281, Note_off_c, 0, 57, 109
1, 305292, Note_on_c, 0, 53, 113
1, 305469, Note_off_c, 0, 53, 113
1, 305483, Note_on_c, 0, 57, 114
1, 305541, Note_off_c, 0, 57, 114
1, 305556, Note_on_c, 0, 50, 106
1, 305698, Note_off_c, 0, 50, 106
1, 306179, Note_on_c, 0, 69, 115
1, 306700, Note_off_c, 0, 69, 115
1, 306733, Note_on_c, 0, 62, 109
1, 306805, Note_off_c, 0, 62, 109
1, 306823, Note_on_c, 0, 69, 119
1, 307023, Note_off_c, 0, 69, 119
1, 307032, Note_on_c, 0, 71, 115
1, 307112, Note_off_c, 0, 71, 115
1, 307163, Note_on_c, 0, 62, 110
1, 307206, Note_off_c, 0, 62, 110
1, 307215, Note_on_c, 0, 69, 105
1, 307778, Note_off_c, 0, 69, 105
1, 307797, Note_on_c, 0, 71, 113
1, 307866, Note_off_c, 0, 71, 113
1, 307888, Note_on_c, 0, 62, 107
1, 307951, Note_off_c, 0, 62, 107
1, 307963, Note_on_c, 0, 69, 106
1, 308169, Note_off_c, 0, 69, 106
1, 308175, Note_on_c, 0, 71, 115
1, 308257, Note_off_c, 0, 71, 115
1, 308273, Note_on_c, 0, 69, 107
1, 308357, Note_off_c, 0, 69, 107
1, 308372, Note_on_c, 0, 69, 117
1, 308532, Note_off_c, 0, 69, 117
1, 308542, Note_on_c, 0, 71, 115
1, 308599, Note_off_c, 0, 71, 115
1, 308599, Note_on_c, 0, 81, 115
1, 308705, Note_off_c, 0, 81, 115
1, 308716, Note_on_c, 0, 83, 103
1, 308911, Note_off_c, 0, 83, 103
1, 308940, Note_on_c, 0, 71, 113
1, 309013, Note_off_c, 0, 71, 113
1, 309032, Note_on_c, 0, 62, 110
1, 309101, Note_off_c, 0, 62, 110
1, 309114, Note_on_c, 0, 69, 118
1, 309291, Note_off_c, 0, 69, 118
1, 309307, Note_on_c, 0, 71, 111
1, 309370, Note_off_c, 0, 71, 111
1, 309433, Note_on_c, 0, 62, 110
1, 309477, Note_off_c, 0, 62, 110
1, 309479, Note_on_c, 0, 69, 116
1, 309724, Note_off_c, 0, 69, 116
1, 310077, Note_on_c, 0, 71, 116
1, 310135, Note_off_c, 0, 71, 116
1, 310164, Note_on_c, 0, 62, 109
1, 310205, Note_off_c, 0, 62, 109
1, 310217, Note_on_c, 0, 69, 115
1, 310424, Note_off_c, 0, 69, 115
1, 310433, Note_on_c, 0, 71, 110
1, 310501, Note_off_c, 0, 71, 110
1, 310517, Note_on_c, 0, 62, 108
1, 310553, Note_off_c, 0, 62, 108
1, 310578, Note_on_c, 0, 69, 113
1, 310778, Note_off_c, 0, 69, 113
1, 310788, Note_on_c, 0, 71, 111
1, 310866, Note_off_c, 0, 71, 111
1, 310883, Note_on_c, 0, 62, 110
1, 310932, Note_off_c, 0, 62, 110
1, 310947, Note_on_c, 0, 69, 115
1, 311159, Note_off_c, 0, 69, 115
1, 311171, Note_on_c, 0, 71, 116
1, 311259, Note_off_c, 0, 71, 116
1, 311263, Note_on_c, 0, 62, 108
1, 311299, Note_off_c, 0, 62, 108
1, 311310, Note_on_c, 0, 69, 115
1, 311545, Note_off_c, 0, 69, 115
1, 311557, Note_on_c, 0, 71, 114
1, 311623, Note_off_c, 0, 71, 114
1, 311661, Note_on_c, 0, 62, 109
1, 311699, Note_off_c, 0, 62, 109
1, 311718, Note_on_c, 0, 83, 99
1, 311865, Note_off_c, 0, 83, 99
1, 311907, Note_on_c, 0, 71, 110
1, 311996, Note_off_c, 0, 71, 110
1, 312013, Note_on_c, 0, 62, 112
1, 312044, Note_off_c, 0, 62, 112
1, 312049, Note_on_c, 0, 69, 112
1, 312283, Note_off_c, 0, 69, 112
1, 312296, Note_on_c, 0, 71, 114
1, 312372, Note_off_c, 0, 71, 114
1, 312383, Note_on_c, 0, 62, 108
1, 312419, Note_off_c, 0, 62, 108
1, 312455, Note_on_c, 0, 69, 102
1, 312669, Note_off_c, 0, 69, 102
1, 313049, Note_on_c, 0, 72, 110
1, 313134, Note_off_c, 0, 72, 110
1, 313143, Note_on_c, 0, 73, 105
1, 313193, Note_off_c, 0, 73, 105
1, 313212, Note_on_c, 0, 70, 120
1, 313414, Note_off_c, 0, 70, 120
1, 313423, Note_on_c, 0, 72, 119
1, 313513, Note_off_c, 0, 72, 119
1, 313525, Note_on_c, 0, 73, 116
1, 313583, Note_off_c, 0, 73, 116
1, 313602, Note_on_c, 0, 70, 120
1, 313816, Note_off_c, 0, 70, 120
1, 313821, Note_on_c, 0, 72, 115
1, 313898, Note_off_c, 0, 72, 115
1, 313910, Note_on_c, 0, 73, 115
1, 313988, Note_off_c, 0, 73, 115
1, 313997, Note_on_c, 0, 70, 119
1, 314195, Note_off_c, 0, 70, 119
1, 314214, Note_on_c, 0, 72, 116
1, 314277, Note_off_c, 0, 72, 116
1, 314293, Note_on_c, 0, 73, 115
1, 314368, Note_off_c, 0, 73, 115
1, 314381, Note_on_c, 0, 70, 114
1, 314598, Note_off_c, 0, 70, 114
1, 314609, Note_on_c, 0, 72, 110
1, 314674, Note_off_c, 0, 72, 110
1, 314695, Note_on_c, 0, 65, 101
1, 314747, Note_off_c, 0, 65, 101
1, 314800, Note_on_c, 0, 75, 109
1, 314951, Note_off_c, 0, 75, 109
1, 314964, Note_on_c, 0, 72, 108
1, 315003, Note_off_c, 0, 72, 108
1, 315015, Note_on_c, 0, 73, 108
1, 315114, Note_off_c, 0, 73, 108
1, 315122, Note_on_c, 0, 70, 117
1, 315328, Note_off_c, 0, 70, 117
1, 315335, Note_on_c, 0, 72, 113
1, 315411, Note_off_c, 0, 72, 113
1, 315418, Note_on_c, 0, 73, 108
1, 315490, Note_off_c, 0, 73, 108
1, 315517, Note_on_c, 0, 70, 110
1, 315768, Note_off_c, 0, 70, 110
1, 316144, Note_on_c, 0, 48, 107
1, 316252, Note_off_c, 0, 48, 107
1, 316267, Note_on_c, 0, 54, 103
1, 316313, Note_off_c, 0, 54, 103
1, 316344, Note_on_c, 0, 49, 111
1, 316593, Note_off_c, 0, 49, 111
1, 316624, Note_on_c, 0, 54, 109
1, 316699, Note_off_c, 0, 54, 109
1, 316715, Note_on_c, 0, 49, 109
1, 316778, Note_off_c, 0, 49, 109
1, 316793, Note_on_c, 0, 54, 110
1, 316867, Note_off_c, 0, 54, 110
1, 316880, Note_on_c, 0, 58, 112
1, 316952, Note_off_c, 0, 58, 112
1, 316977, Note_on_c, 0, 59, 114
1, 317076, Note_off_c, 0, 59, 114
1, 317087, Note_on_c, 0, 52, 119
1, 317157, Note_off_c, 0, 52, 119
1, 317168, Note_on_c, 0, 55, 114
1, 317234, Note_off_c, 0, 55, 114
1, 317238, Note_on_c, 0, 59, 112
1, 317303, Note_off_c, 0, 59, 112
1, 317331, Note_on_c, 0, 62, 109
1, 317412, Note_off_c, 0, 62, 109
1, 317423, Note_on_c, 0, 57, 103
1, 317493, Note_off_c, 0, 57, 103
1, 317862, Note_on_c, 0, 57, 101
1, 317891, Note_off_c, 0, 57, 101
1, 317905, Note_on_c, 0, 58, 102
1, 317939, Note_off_c, 0, 58, 102
1, 317954, Note_on_c, 0, 57, 105
1, 317985, Note_off_c, 0, 57, 105
1, 317987, Note_on_c, 0, 69, 106
1, 318014, Note_off_c, 0, 69, 106
1, 318014, Note_on_c, 0, 71, 106
1, 318085, Note_off_c, 0, 71, 106
1, 318090, Note_on_c, 0, 68, 103
1, 318178, Note_off_c, 0, 68, 103
1, 318198, Note_on_c, 0, 70, 109
1, 318335, Note_off_c, 0, 70, 109
1, 318348, Note_on_c, 0, 66, 114
1, 318407, Note_off_c, 0, 66, 114
1, 318414, Note_on_c, 0, 63, 83
1, 318526, Note_off_c, 0, 63, 83
1, 318529, Note_on_c, 0, 58, 113
1, 318642, Note_off_c, 0, 58, 113
1, 318655, Note_on_c, 0, 68, 109
1, 318698, Note_off_c, 0, 68, 109
1, 318724, Note_on_c, 0, 66, 115
1, 318780, Note_off_c, 0, 66, 115
1, 318802, Note_on_c, 0, 63, 114
1, 318929, Note_off_c, 0, 63, 114
1, 319388, Note_on_c, 0, 62, 119
1, 319712, Note_off_c, 0, 62, 119
1, 319719, Note_on_c, 0, 62, 119
1, 320042, Note_off_c, 0, 62, 119
1, 320070, Note_on_c, 0, 58, 115
1, 320129, Note_off_c, 0, 58, 115
1, 320137, Note_on_c, 0, 64, 127
1, 320318, Note_off_c, 0, 64, 127
1, 320325, Note_on_c, 0, 65, 121
1, 320518, Note_off_c, 0, 65, 121
1, 320524, Note_on_c, 0, 62, 116
1, 320866, Note_off_c, 0, 62, 116
1, 320894, Note_on_c, 0, 65, 115
1, 320967, Note_off_c, 0, 65, 115
1, 321005, Note_on_c, 0, 62, 115
1, 321107, Note_off_c, 0, 62, 115
1, 321543, Note_on_c, 0, 64, 121
1, 321633, Note_off_c, 0, 64, 121
1, 321641, Note_on_c, 0, 65, 114
1, 321813, Note_off_c, 0, 65, 114
1, 321820, Note_on_c, 0, 67, 114
1, 322000, Note_off_c, 0, 67, 114
1, 322014, Note_on_c, 0, 69, 117
1, 322188, Note_off_c, 0, 69, 117
1, 322205, Note_on_c, 0, 72, 118
1, 322335, Note_off_c, 0, 72, 118
1, 322372, Note_on_c, 0, 64, 117
1, 322765, Note_off_c, 0, 64, 117
1, 322768, Note_on_c, 0, 62, 113
1, 322953, Note_off_c, 0, 62, 113
1, 322962, Note_on_c, 0, 65, 110
1, 323053, Note_off_c, 0, 65, 110
1, 323143, Note_on_c, 0, 59, 109
1, 323314, Note_off_c, 0, 59, 109
1, 323331, Note_on_c, 0, 60, 110
1, 323431, Note_off_c, 0, 60, 110
1, 323440, Note_on_c, 0, 57, 100
1, 323916, Note_off_c, 0, 57, 100
1, 323937, Note_on_c, 0, 53, 102
1, 324093, Note_off_c, 0, 53, 102
1, 324111, Note_on_c, 0, 50, 96
1, 324212, Note_off_c, 0, 50, 96
1, 324700, Note_on_c, 0, 55, 113
1, 324805, Note_off_c, 0, 55, 113
1, 324818, Note_on_c, 0, 57, 107
1, 325095, Note_off_c, 0, 57, 107
1, 325123, Note_on_c, 0, 53, 114
1, 325679, Note_off_c, 0, 53, 114
1, 326234, Note_on_c, 0, 52, 114
1, 326368, Note_off_c, 0, 52, 114
1, 326380, Note_on_c, 0, 53, 111
1, 326643, Note_off_c, 0, 53, 111
1, 326653, Note_on_c, 0, 50, 111
1, 327169, Note_off_c, 0, 50, 111
1, 327815, Note_on_c, 0, 48, 111
1, 327906, Note_off_c, 0, 48, 111
1, 327927, Note_on_c, 0, 53, 114
1, 327979, Note_off_c, 0, 53, 114
1, 327993, Note_on_c, 0, 52, 108
1, 328069, Note_off_c, 0, 52, 108
1, 328081, Note_on_c, 0, 48, 107
1, 328166, Note_off_c, 0, 48, 107
1, 328178, Note_on_c, 0, 47, 107
1, 328713, Note_off_c, 0, 47, 107
1, 329046, Note_on_c, 0, 47, 118
1, 329107, Note_off_c, 0, 47, 118
1, 329117, Note_on_c, 0, 50, 113
1, 329209, Note_off_c, 0, 50, 113
1, 329214, Note_on_c, 0, 46, 115
1, 329316, Note_off_c, 0, 46, 115
1, 329319, Note_on_c, 0, 64, 115
1, 329435, Note_off_c, 0, 64, 115
1, 329442, Note_on_c, 0, 62, 115
1, 329511, Note_off_c, 0, 62, 115
1, 329521, Note_on_c, 0, 59, 113
1, 329615, Note_off_c, 0, 59, 113
1, 329650, Note_on_c, 0, 57, 100
1, 335056, Note_off_c, 0, 57, 100
1, 335056, End_track
0, 0, End_of_file
