0, 0, Header, 1, 1, 192
1, 0, Start_track
1, 0, Title_t, "Melody"
1, 0, Tempo, 206185
1, 0, Key_signature, -3, "major"
1, 0, Time_signature, 4, 2, 24, 8
1, 2724, Note_on_c, 0, 61, 113
1, 2783, Note_off_c, 0, 61, 113
1, 2834, Note_on_c, 0, 64, 115
1, 2912, Note_off_c, 0, 64, 115
1, 2925, Note_on_c, 0, 68, 117
1, 3006, Note_off_c, 0, 68, 117
1, 3019, Note_on_c, 0, 71, 120
1, 3108, Note_off_c, 0, 71, 120
1, 3121, Note_on_c, 0, 70, 118
1, 3372, Note_off_c, 0, 70, 118
1, 3399, Note_on_c, 0, 68, 114
1, 3496, Note_off_c, 0, 68, 114
1, 3506, Note_on_c, 0, 66, 111
1, 3573, Note_off_c, 0, 66, 111
1, 3616, Note_on_c, 0, 63, 114
1, 3707, Note_off_c, 0, 63, 114
1, 3707, Note_on_c, 0, 59, 104
1, 3771, Note_off_c, 0, 59, 104
1, 3911, Note_on_c, 0, 62, 111
1, 3992, Note_off_c, 0, 62, 111
1, 4010, Note_on_c, 0, 64, 114
1, 4104, Note_off_c, 0, 64, 114
1, 4109, Note_on_c, 0, 66, 106
1, 4179, Note_off_c, 0, 66, 106
1, 4189, Note_on_c, 0, 69, 111
1, 4280, Note_off_c, 0, 69, 111
1, 4298, Note_on_c, 0, 67, 110
1, 4357, Note_off_c, 0, 67, 110
1, 4384, Note_on_c, 0, 62, 109
1, 4454, Note_off_c, 0, 62, 109
1, 4475, Note_on_c, 0, 59, 102
1, 4545, Note_off_c, 0, 59, 102
1, 4683, Note_on_c, 0, 59, 103
1, 4740, Note_off_c, 0, 59, 103
1, 4777, Note_on_c, 0, 56, 111
1, 4845, Note_off_c, 0, 56, 111
1, 4877, Note_on_c, 0, 55, 108
1, 4945, Note_off_c, 0, 55, 108
1, 4959, Note_on_c, 0, 53, 103
1, 5027, Note_off_c, 0, 53, 103
1, 5046, Note_on_c, 0, 51, 102
1, 5108, Note_off_c, 0, 51, 102
1, 5146, Note_on_c, 0, 53, 102
1, 5204, Note_off_c, 0, 53, 102
1, 5204, Note_on_c, 0, 55, 108
1, 5276, Note_off_c, 0, 55, 108
1, 5298, Note_on_c, 0, 56, 107
1, 5393, Note_off_c, 0, 56, 107
1, 5421, Note_on_c, 0, 58, 101
1, 5487, Note_off_c, 0, 58, 101
1, 5525, Note_on_c, 0, 60, 109
1, 5604, Note_on_c, 0, 62, 107
1, 5604, Note_off_c, 0, 60, 109
1, 5691, Note_off_c, 0, 62, 107
1, 5729, Note_on_c, 0, 65, 108
1, 5824, Note_off_c, 0, 65, 108
1, 5831, Note_on_c, 0, 64, 110
1, 5910, Note_off_c, 0, 64, 110
1, 5927, Note_on_c, 0, 60, 114
1, 5991, Note_off_c, 0, 60, 114
1, 6027, Note_on_c, 0, 56, 104
1, 6078, Note_off_c, 0, 56, 104
1, 6104, Note_on_c, 0, 55, 105
1, 6185, Note_off_c, 0, 55, 105
1, 6185, Note_on_c, 0, 54, 106
1, 6243, Note_off_c, 0, 54, 106
1, 6305, Note_on_c, 0, 63, 118
1, 6377, Note_off_c, 0, 63, 118
1, 6397, Note_on_c, 0, 62, 107
1, 6454, Note_off_c, 0, 62, 107
1, 6482, Note_on_c, 0, 60, 109
1, 6548, Note_off_c, 0, 60, 109
1, 6565, Note_on_c, 0, 59, 105
1, 6637, Note_off_c, 0, 59, 105
1, 6665, Note_on_c, 0, 62, 111
1, 6718, Note_off_c, 0, 62, 111
1, 6746, Note_on_c, 0, 67, 112
1, 6810, Note_off_c, 0, 67, 112
1, 6848, Note_on_c, 0, 71, 110
1, 6925, Note_off_c, 0, 71, 110
1, 6949, Note_on_c, 0, 62, 113
1, 7015, Note_off_c, 0, 62, 113
1, 7037, Note_on_c, 0, 65, 103
1, 7099, Note_off_c, 0, 65, 103
1, 7138, Note_on_c, 0, 68, 110
1, 7212, Note_off_c, 0, 68, 110
1, 7246, Note_on_c, 0, 72, 107
1, 7293, Note_off_c, 0, 72, 107
1, 7325, Note_on_c, 0, 63, 116
1, 7408, Note_off_c, 0, 63, 116
1, 7419, Note_on_c, 0, 65, 101
1, 7493, Note_off_c, 0, 65, 101
1, 7496, Note_on_c, 0, 67, 100
1, 7564, Note_off_c, 0, 67, 100
1, 7592, Note_on_c, 0, 70, 111
1, 7671, Note_off_c, 0, 70, 111
1, 7705, Note_on_c, 0, 64, 116
1, 7811, Note_off_c, 0, 64, 116
1, 7816, Note_on_c, 0, 68, 104
1, 7861, Note_off_c, 0, 68, 104
1, 7891, Note_on_c, 0, 70, 108
1, 7970, Note_off_c, 0, 70, 108
1, 7990, Note_on_c, 0, 73, 104
1, 8056, Note_off_c, 0, 73, 104
1, 8080, Note_on_c, 0, 70, 110
1, 8220, Note_off_c, 0, 70, 110
1, 8237, Note_on_c, 0, 68, 110
1, 8328, Note_off_c, 0, 68, 110
1, 8356, Note_on_c, 0, 66, 112
1, 8435, Note_off_c, 0, 66, 112
1, 8801, Note_on_c, 0, 70, 121
1, 8897, Note_off_c, 0, 70, 121
1, 8912, Note_on_c, 0, 69, 108
1, 8963, Note_off_c, 0, 69, 108
1, 8980, Note_on_c, 0, 68, 113
1, 9086, Note_off_c, 0, 68, 113
1, 9116, Note_on_c, 0, 67, 117
1, 9197, Note_off_c, 0, 67, 117
1, 9210, Note_on_c, 0, 65, 107
1, 9278, Note_off_c, 0, 65, 107
1, 9291, Note_on_c, 0, 63, 122
1, 9374, Note_off_c, 0, 63, 122
1, 9385, Note_on_c, 0, 62, 112
1, 9459, Note_off_c, 0, 62, 112
1, 9478, Note_on_c, 0, 60, 110
1, 9567, Note_off_c, 0, 60, 110
1, 9582, Note_on_c, 0, 58, 107
1, 9640, Note_off_c, 0, 58, 107
1, 9685, Note_on_c, 0, 68, 115
1, 9745, Note_off_c, 0, 68, 115
1, 9752, Note_on_c, 0, 67, 114
1, 9852, Note_off_c, 0, 67, 114
1, 9865, Note_on_c, 0, 62, 108
1, 9946, Note_off_c, 0, 62, 108
1, 9961, Note_on_c, 0, 65, 109
1, 10048, Note_off_c, 0, 65, 109
1, 10067, Note_on_c, 0, 63, 117
1, 10131, Note_off_c, 0, 63, 117
1, 10146, Note_on_c, 0, 62, 109
1, 10231, Note_off_c, 0, 62, 109
1, 10257, Note_on_c, 0, 65, 109
1, 10317, Note_off_c, 0, 65, 109
1, 10330, Note_on_c, 0, 64, 115
1, 10421, Note_off_c, 0, 64, 115
1, 10436, Note_on_c, 0, 60, 108
1, 10493, Note_off_c, 0, 60, 108
1, 10531, Note_on_c, 0, 57, 105
1, 10616, Note_off_c, 0, 57, 105
1, 10652, Note_on_c, 0, 52, 101
1, 10710, Note_off_c, 0, 52, 101
1, 10719, Note_on_c, 0, 55, 109
1, 10791, Note_off_c, 0, 55, 109
1, 10830, Note_on_c, 0, 52, 100
1, 10881, Note_off_c, 0, 52, 100
1, 10881, Note_on_c, 0, 54, 103
1, 10995, Note_off_c, 0, 54, 103
1, 11014, Note_on_c, 0, 63, 116
1, 11074, Note_off_c, 0, 63, 116
1, 11083, Note_on_c, 0, 62, 114
1, 11179, Note_off_c, 0, 62, 114
1, 11199, Note_on_c, 0, 60, 104
1, 11273, Note_off_c, 0, 60, 104
1, 11280, Note_on_c, 0, 59, 108
1, 11352, Note_off_c, 0, 59, 108
1, 11395, Note_on_c, 0, 57, 111
1, 11461, Note_off_c, 0, 57, 111
1, 11485, Note_on_c, 0, 55, 102
1, 11553, Note_off_c, 0, 55, 102
1, 11589, Note_on_c, 0, 57, 105
1, 11640, Note_off_c, 0, 57, 105
1, 11649, Note_on_c, 0, 59, 100
1, 11717, Note_off_c, 0, 59, 100
1, 11753, Note_on_c, 0, 62, 111
1, 11819, Note_off_c, 0, 62, 111
1, 11826, Note_on_c, 0, 63, 115
1, 11917, Note_off_c, 0, 63, 115
1, 11956, Note_on_c, 0, 61, 107
1, 12024, Note_off_c, 0, 61, 107
1, 12043, Note_on_c, 0, 59, 107
1, 12138, Note_off_c, 0, 59, 107
1, 12151, Note_on_c, 0, 58, 106
1, 12232, Note_off_c, 0, 58, 106
1, 12349, Note_on_c, 0, 54, 109
1, 12411, Note_off_c, 0, 54, 109
1, 12420, Note_on_c, 0, 56, 107
1, 12486, Note_off_c, 0, 56, 107
1, 12539, Note_on_c, 0, 58, 101
1, 12615, Note_off_c, 0, 58, 101
1, 12620, Note_on_c, 0, 59, 106
1, 12711, Note_off_c, 0, 59, 106
1, 12737, Note_on_c, 0, 61, 109
1, 12820, Note_off_c, 0, 61, 109
1, 12831, Note_on_c, 0, 63, 98
1, 12907, Note_off_c, 0, 63, 98
1, 12948, Note_on_c, 0, 66, 103
1, 12984, Note_off_c, 0, 66, 103
1, 13010, Note_on_c, 0, 70, 116
1, 13112, Note_off_c, 0, 70, 116
1, 13123, Note_on_c, 0, 69, 113
1, 13191, Note_off_c, 0, 69, 113
1, 13198, Note_on_c, 0, 68, 110
1, 13279, Note_off_c, 0, 68, 110
1, 13282, Note_on_c, 0, 67, 115
1, 13371, Note_off_c, 0, 67, 115
1, 13386, Note_on_c, 0, 65, 109
1, 13463, Note_off_c, 0, 65, 109
1, 13791, Note_on_c, 0, 67, 120
1, 13868, Note_off_c, 0, 67, 120
1, 13879, Note_on_c, 0, 66, 120
1, 13953, Note_off_c, 0, 66, 120
1, 13964, Note_on_c, 0, 65, 111
1, 14060, Note_on_c, 0, 62, 105
1, 14060, Note_off_c, 0, 65, 111
1, 14115, Note_off_c, 0, 62, 105
1, 14120, Note_on_c, 0, 63, 124
1, 14254, Note_off_c, 0, 63, 124
1, 14267, Note_on_c, 0, 65, 110
1, 14358, Note_off_c, 0, 65, 110
1, 14445, Note_on_c, 0, 70, 117
1, 14522, Note_off_c, 0, 70, 117
1, 14554, Note_on_c, 0, 75, 123
1, 14673, Note_off_c, 0, 75, 123
1, 14680, Note_on_c, 0, 70, 122
1, 14803, Note_off_c, 0, 70, 122
1, 15093, Note_on_c, 0, 70, 117
1, 15157, Note_off_c, 0, 70, 117
1, 15170, Note_on_c, 0, 71, 119
1, 15253, Note_off_c, 0, 71, 119
1, 15256, Note_on_c, 0, 70, 117
1, 15548, Note_off_c, 0, 70, 117
1, 15587, Note_on_c, 0, 66, 106
1, 15655, Note_off_c, 0, 66, 106
1, 15661, Note_on_c, 0, 70, 105
1, 15791, Note_off_c, 0, 70, 105
1, 15808, Note_on_c, 0, 74, 114
1, 16416, Note_off_c, 0, 74, 114
1, 16416, Note_on_c, 0, 72, 120
1, 16490, Note_off_c, 0, 72, 120
1, 16495, Note_on_c, 0, 71, 116
1, 16569, Note_off_c, 0, 71, 116
1, 16610, Note_on_c, 0, 62, 106
1, 16668, Note_off_c, 0, 62, 106
1, 16677, Note_on_c, 0, 67, 112
1, 16766, Note_off_c, 0, 67, 112
1, 16781, Note_on_c, 0, 71, 118
1, 16853, Note_off_c, 0, 71, 118
1, 16877, Note_on_c, 0, 70, 115
1, 16935, Note_off_c, 0, 70, 115
1, 16936, Note_on_c, 0, 69, 119
1, 17008, Note_off_c, 0, 69, 119
1, 17013, Note_on_c, 0, 68, 113
1, 17121, Note_off_c, 0, 68, 113
1, 17136, Note_on_c, 0, 72, 114
1, 17191, Note_off_c, 0, 72, 114
1, 17213, Note_on_c, 0, 70, 118
1, 17323, Note_off_c, 0, 70, 118
1, 17326, Note_on_c, 0, 67, 115
1, 17407, Note_off_c, 0, 67, 115
1, 17424, Note_on_c, 0, 65, 110
1, 17484, Note_off_c, 0, 65, 110
1, 17484, Note_on_c, 0, 63, 114
1, 17546, Note_off_c, 0, 63, 114
1, 17572, Note_on_c, 0, 67, 118
1, 17663, Note_off_c, 0, 67, 118
1, 17670, Note_on_c, 0, 63, 107
1, 17765, Note_off_c, 0, 63, 107
1, 17992, Note_on_c, 0, 70, 111
1, 18093, Note_off_c, 0, 70, 111
1, 18099, Note_on_c, 0, 74, 118
1, 18287, Note_on_c, 0, 70, 122
1, 18287, Note_off_c, 0, 74, 118
1, 18383, Note_off_c, 0, 70, 122
1, 18449, Note_on_c, 0, 66, 114
1, 18534, Note_off_c, 0, 66, 114
1, 18537, Note_on_c, 0, 62, 111
1, 18614, Note_off_c, 0, 62, 111
1, 18866, Note_on_c, 0, 62, 116
1, 18915, Note_off_c, 0, 62, 116
1, 18937, Note_on_c, 0, 67, 113
1, 19030, Note_off_c, 0, 67, 113
1, 19039, Note_on_c, 0, 71, 117
1, 19115, Note_off_c, 0, 71, 117
1, 19134, Note_on_c, 0, 62, 119
1, 19210, Note_off_c, 0, 62, 119
1, 19230, Note_on_c, 0, 65, 110
1, 19268, Note_off_c, 0, 65, 110
1, 19292, Note_on_c, 0, 68, 119
1, 19400, Note_off_c, 0, 68, 119
1, 19405, Note_on_c, 0, 72, 111
1, 19469, Note_off_c, 0, 72, 111
1, 19488, Note_on_c, 0, 63, 123
1, 19577, Note_off_c, 0, 63, 123
1, 19584, Note_on_c, 0, 65, 107
1, 19637, Note_off_c, 0, 65, 107
1, 19686, Note_on_c, 0, 67, 111
1, 19748, Note_off_c, 0, 67, 111
1, 19761, Note_on_c, 0, 70, 116
1, 19854, Note_off_c, 0, 70, 116
1, 19859, Note_on_c, 0, 64, 115
1, 19993, Note_off_c, 0, 64, 115
1, 20004, Note_on_c, 0, 68, 112
1, 20108, Note_off_c, 0, 68, 112
1, 20125, Note_on_c, 0, 70, 118
1, 20220, Note_off_c, 0, 70, 118
1, 20220, Note_on_c, 0, 66, 107
1, 20531, Note_off_c, 0, 66, 107
1, 20542, Note_on_c, 0, 63, 119
1, 20604, Note_off_c, 0, 63, 119
1, 20645, Note_on_c, 0, 61, 111
1, 20724, Note_off_c, 0, 61, 111
1, 20748, Note_on_c, 0, 60, 110
1, 20795, Note_off_c, 0, 60, 110
1, 20821, Note_on_c, 0, 59, 111
1, 20902, Note_off_c, 0, 59, 111
1, 20926, Note_on_c, 0, 55, 103
1, 20973, Note_off_c, 0, 55, 103
1, 20997, Note_on_c, 0, 60, 112
1, 21073, Note_off_c, 0, 60, 112
1, 21118, Note_on_c, 0, 62, 114
1, 21186, Note_off_c, 0, 62, 114
1, 21199, Note_on_c, 0, 63, 122
1, 21280, Note_off_c, 0, 63, 122
1, 21314, Note_on_c, 0, 60, 103
1, 21371, Note_off_c, 0, 60, 103
1, 21401, Note_on_c, 0, 67, 119
1, 21469, Note_off_c, 0, 67, 119
1, 21488, Note_on_c, 0, 65, 108
1, 21541, Note_off_c, 0, 65, 108
1, 21588, Note_on_c, 0, 62, 110
1, 21664, Note_off_c, 0, 62, 110
1, 21673, Note_on_c, 0, 60, 113
1, 21758, Note_off_c, 0, 60, 113
1, 21769, Note_on_c, 0, 58, 101
1, 21873, Note_off_c, 0, 58, 101
1, 22089, Note_on_c, 0, 68, 121
1, 22168, Note_off_c, 0, 68, 121
1, 22171, Note_on_c, 0, 67, 118
1, 22229, Note_off_c, 0, 67, 118
1, 22255, Note_on_c, 0, 63, 121
1, 22367, Note_off_c, 0, 63, 121
1, 22627, Note_on_c, 0, 57, 114
1, 22689, Note_off_c, 0, 57, 114
1, 22829, Note_on_c, 0, 67, 104
1, 22901, Note_off_c, 0, 67, 104
1, 22908, Note_on_c, 0, 71, 122
1, 22985, Note_off_c, 0, 71, 122
1, 22992, Note_on_c, 0, 69, 117
1, 23071, Note_off_c, 0, 69, 117
1, 23071, Note_on_c, 0, 66, 113
1, 23164, Note_off_c, 0, 66, 113
1, 23179, Note_on_c, 0, 64, 118
1, 23266, Note_off_c, 0, 64, 118
1, 23277, Note_on_c, 0, 62, 111
1, 23334, Note_off_c, 0, 62, 111
1, 23358, Note_on_c, 0, 64, 121
1, 23451, Note_off_c, 0, 64, 121
1, 23454, Note_on_c, 0, 66, 107
1, 23522, Note_off_c, 0, 66, 107
1, 23546, Note_on_c, 0, 69, 118
1, 23625, Note_off_c, 0, 69, 118
1, 23645, Note_on_c, 0, 67, 114
1, 23732, Note_off_c, 0, 67, 114
1, 23749, Note_on_c, 0, 69, 115
1, 23821, Note_off_c, 0, 69, 115
1, 23821, Note_on_c, 0, 71, 116
1, 23889, Note_off_c, 0, 71, 116
1, 23909, Note_on_c, 0, 70, 114
1, 24108, Note_off_c, 0, 70, 114
1, 24135, Note_on_c, 0, 71, 115
1, 24661, Note_off_c, 0, 71, 115
1, 24789, Note_on_c, 0, 70, 119
1, 24880, Note_off_c, 0, 70, 119
1, 24914, Note_on_c, 0, 66, 112
1, 24982, Note_off_c, 0, 66, 112
1, 24983, Note_on_c, 0, 68, 114
1, 25064, Note_off_c, 0, 68, 114
1, 25065, Note_on_c, 0, 70, 117
1, 25139, Note_off_c, 0, 70, 117
1, 25161, Note_on_c, 0, 66, 110
1, 25246, Note_off_c, 0, 66, 110
1, 25263, Note_on_c, 0, 63, 119
1, 25344, Note_off_c, 0, 63, 119
1, 25353, Note_on_c, 0, 61, 108
1, 25446, Note_off_c, 0, 61, 108
1, 25459, Note_on_c, 0, 59, 99
1, 25519, Note_off_c, 0, 59, 99
1, 25541, Note_on_c, 0, 60, 105
1, 25632, Note_off_c, 0, 60, 105
1, 25633, Note_on_c, 0, 62, 111
1, 25701, Note_off_c, 0, 62, 111
1, 25731, Note_on_c, 0, 63, 117
1, 25812, Note_off_c, 0, 63, 117
1, 25838, Note_on_c, 0, 60, 100
1, 25896, Note_off_c, 0, 60, 100
1, 25916, Note_on_c, 0, 67, 112
1, 26014, Note_off_c, 0, 67, 112
1, 26019, Note_on_c, 0, 65, 109
1, 26077, Note_off_c, 0, 65, 109
1, 26080, Note_on_c, 0, 62, 111
1, 26180, Note_off_c, 0, 62, 111
1, 26214, Note_on_c, 0, 60, 109
1, 26282, Note_off_c, 0, 60, 109
1, 26295, Note_on_c, 0, 58, 98
1, 26561, Note_off_c, 0, 58, 98
1, 26570, Note_on_c, 0, 67, 116
1, 26676, Note_off_c, 0, 67, 116
1, 27162, Note_on_c, 0, 61, 110
1, 27239, Note_off_c, 0, 61, 110
1, 27240, Note_on_c, 0, 64, 115
1, 27300, Note_off_c, 0, 64, 115
1, 27300, Note_on_c, 0, 68, 120
1, 27360, Note_off_c, 0, 68, 120
1, 27363, Note_on_c, 0, 70, 114
1, 27418, Note_off_c, 0, 70, 114
1, 27437, Note_on_c, 0, 66, 113
1, 27513, Note_off_c, 0, 66, 113
1, 27530, Note_on_c, 0, 68, 110
1, 27588, Note_on_c, 0, 70, 112
1, 27588, Note_off_c, 0, 68, 110
1, 27660, Note_off_c, 0, 70, 112
1, 27711, Note_on_c, 0, 73, 105
1, 27787, Note_off_c, 0, 73, 105
1, 27806, Note_on_c, 0, 70, 110
1, 27872, Note_off_c, 0, 70, 110
1, 27902, Note_on_c, 0, 61, 109
1, 27985, Note_off_c, 0, 61, 109
1, 27994, Note_on_c, 0, 63, 112
1, 28091, Note_off_c, 0, 63, 112
1, 28140, Note_on_c, 0, 65, 108
1, 28200, Note_off_c, 0, 65, 108
1, 28207, Note_on_c, 0, 62, 112
1, 28317, Note_off_c, 0, 62, 112
1, 28317, Note_on_c, 0, 64, 119
1, 28385, Note_off_c, 0, 64, 119
1, 28404, Note_on_c, 0, 66, 108
1, 28466, Note_off_c, 0, 66, 108
1, 28496, Note_on_c, 0, 69, 117
1, 28592, Note_off_c, 0, 69, 117
1, 28592, Note_on_c, 0, 67, 113
1, 28662, Note_off_c, 0, 67, 113
1, 28694, Note_on_c, 0, 62, 117
1, 28754, Note_off_c, 0, 62, 117
1, 28786, Note_on_c, 0, 59, 107
1, 28848, Note_off_c, 0, 59, 107
1, 28977, Note_on_c, 0, 60, 107
1, 29066, Note_off_c, 0, 60, 107
1, 29069, Note_on_c, 0, 56, 113
1, 29145, Note_off_c, 0, 56, 113
1, 29150, Note_on_c, 0, 55, 107
1, 29214, Note_off_c, 0, 55, 107
1, 29255, Note_on_c, 0, 53, 106
1, 29319, Note_off_c, 0, 53, 106
1, 29336, Note_on_c, 0, 51, 105
1, 29398, Note_off_c, 0, 51, 105
1, 29437, Note_on_c, 0, 53, 108
1, 29516, Note_off_c, 0, 53, 108
1, 29535, Note_on_c, 0, 55, 108
1, 29612, Note_off_c, 0, 55, 108
1, 29625, Note_on_c, 0, 56, 107
1, 29720, Note_off_c, 0, 56, 107
1, 29734, Note_on_c, 0, 58, 106
1, 29796, Note_off_c, 0, 58, 106
1, 29833, Note_on_c, 0, 60, 109
1, 29910, Note_off_c, 0, 60, 109
1, 29910, Note_on_c, 0, 62, 110
1, 29982, Note_off_c, 0, 62, 110
1, 30033, Note_on_c, 0, 65, 110
1, 30107, Note_off_c, 0, 65, 110
1, 30120, Note_on_c, 0, 64, 112
1, 30188, Note_off_c, 0, 64, 112
1, 30197, Note_on_c, 0, 68, 103
1, 30255, Note_off_c, 0, 68, 103
1, 30281, Note_on_c, 0, 67, 108
1, 30341, Note_off_c, 0, 67, 108
1, 30513, Note_on_c, 0, 71, 116
1, 30571, Note_off_c, 0, 71, 116
1, 30624, Note_on_c, 0, 62, 104
1, 30681, Note_off_c, 0, 62, 104
1, 30717, Note_on_c, 0, 64, 98
1, 30777, Note_off_c, 0, 64, 98
1, 30803, Note_on_c, 0, 66, 100
1, 30863, Note_off_c, 0, 66, 100
1, 30893, Note_on_c, 0, 67, 116
1, 30946, Note_off_c, 0, 67, 116
1, 31016, Note_on_c, 0, 69, 114
1, 31084, Note_off_c, 0, 69, 114
1, 31084, Note_on_c, 0, 71, 111
1, 31146, Note_off_c, 0, 71, 111
1, 31155, Note_on_c, 0, 74, 107
1, 31231, Note_off_c, 0, 74, 107
1, 31257, Note_on_c, 0, 68, 114
1, 31355, Note_on_c, 0, 72, 114
1, 31355, Note_off_c, 0, 68, 114
1, 31410, Note_off_c, 0, 72, 114
1, 31446, Note_on_c, 0, 70, 115
1, 31520, Note_off_c, 0, 70, 115
1, 31539, Note_on_c, 0, 68, 114
1, 31620, Note_off_c, 0, 68, 114
1, 31627, Note_on_c, 0, 67, 110
1, 31716, Note_off_c, 0, 67, 110
1, 31782, Note_on_c, 0, 65, 97
1, 31854, Note_off_c, 0, 65, 97
1, 31873, Note_on_c, 0, 67, 109
1, 31920, Note_off_c, 0, 67, 109
1, 31931, Note_on_c, 0, 67, 112
1, 32003, Note_off_c, 0, 67, 112
1, 32031, Note_on_c, 0, 64, 112
1, 32129, Note_off_c, 0, 64, 112
1, 32144, Note_on_c, 0, 66, 98
1, 32202, Note_off_c, 0, 66, 98
1, 32241, Note_on_c, 0, 68, 94
1, 32284, Note_off_c, 0, 68, 94
1, 32312, Note_on_c, 0, 70, 103
1, 32376, Note_off_c, 0, 70, 103
1, 32383, Note_on_c, 0, 73, 117
1, 32597, Note_off_c, 0, 73, 117
1, 32610, Note_on_c, 0, 70, 113
1, 32687, Note_off_c, 0, 70, 113
1, 32698, Note_on_c, 0, 68, 111
1, 32755, Note_off_c, 0, 68, 111
1, 32800, Note_on_c, 0, 66, 106
1, 32855, Note_off_c, 0, 66, 106
1, 32868, Note_on_c, 0, 63, 112
1, 32993, Note_off_c, 0, 63, 112
1, 33476, Note_on_c, 0, 72, 112
1, 33555, Note_off_c, 0, 72, 112
1, 33565, Note_on_c, 0, 74, 119
1, 33749, Note_off_c, 0, 74, 119
1, 33761, Note_on_c, 0, 70, 98
1, 33831, Note_off_c, 0, 70, 98
1, 33858, Note_on_c, 0, 73, 103
1, 33899, Note_off_c, 0, 73, 103
1, 33902, Note_on_c, 0, 72, 114
1, 33955, Note_off_c, 0, 72, 114
1, 33968, Note_on_c, 0, 70, 120
1, 34045, Note_off_c, 0, 70, 120
1, 34057, Note_on_c, 0, 68, 119
1, 34127, Note_off_c, 0, 68, 119
1, 34141, Note_on_c, 0, 67, 116
1, 34239, Note_off_c, 0, 67, 116
1, 34252, Note_on_c, 0, 65, 110
1, 34303, Note_off_c, 0, 65, 110
1, 34304, Note_on_c, 0, 63, 120
1, 34437, Note_off_c, 0, 63, 120
1, 34454, Note_on_c, 0, 65, 109
1, 34520, Note_off_c, 0, 65, 109
1, 34649, Note_on_c, 0, 70, 109
1, 34696, Note_off_c, 0, 70, 109
1, 34729, Note_on_c, 0, 71, 113
1, 34812, Note_off_c, 0, 71, 113
1, 34830, Note_on_c, 0, 74, 113
1, 35422, Note_off_c, 0, 74, 113
1, 35422, Note_on_c, 0, 73, 111
1, 35450, Note_off_c, 0, 73, 111
1, 35450, Note_on_c, 0, 72, 114
1, 35482, Note_off_c, 0, 72, 114
1, 35495, Note_on_c, 0, 71, 120
1, 35603, Note_off_c, 0, 71, 120
1, 35627, Note_on_c, 0, 66, 105
1, 35697, Note_off_c, 0, 66, 105
1, 35712, Note_on_c, 0, 69, 113
1, 35801, Note_off_c, 0, 69, 113
1, 35825, Note_on_c, 0, 66, 104
1, 35891, Note_off_c, 0, 66, 104
1, 35906, Note_on_c, 0, 67, 118
1, 36014, Note_off_c, 0, 67, 118
1, 36015, Note_on_c, 0, 62, 116
1, 36096, Note_off_c, 0, 62, 116
1, 36122, Note_on_c, 0, 59, 110
1, 36182, Note_off_c, 0, 59, 110
1, 36182, Note_on_c, 0, 56, 102
1, 36256, Note_off_c, 0, 56, 102
1, 36282, Note_on_c, 0, 63, 120
1, 36371, Note_off_c, 0, 63, 120
1, 36395, Note_on_c, 0, 59, 110
1, 36469, Note_off_c, 0, 59, 110
1, 36474, Note_on_c, 0, 58, 106
1, 36531, Note_off_c, 0, 58, 106
1, 36576, Note_on_c, 0, 54, 98
1, 36638, Note_off_c, 0, 54, 98
1, 36662, Note_on_c, 0, 56, 118
1, 36755, Note_off_c, 0, 56, 118
1, 36777, Note_on_c, 0, 54, 108
1, 36824, Note_off_c, 0, 54, 108
1, 36854, Note_on_c, 0, 56, 108
1, 36909, Note_off_c, 0, 56, 108
1, 36954, Note_on_c, 0, 58, 101
1, 37041, Note_off_c, 0, 58, 101
1, 37054, Note_on_c, 0, 59, 105
1, 37131, Note_off_c, 0, 59, 105
1, 37153, Note_on_c, 0, 61, 116
1, 37240, Note_off_c, 0, 61, 116
1, 37243, Note_on_c, 0, 63, 117
1, 37322, Note_off_c, 0, 63, 117
1, 37361, Note_on_c, 0, 66, 104
1, 37416, Note_off_c, 0, 66, 104
1, 37438, Note_on_c, 0, 69, 120
1, 37550, Note_off_c, 0, 69, 120
1, 37557, Note_on_c, 0, 66, 111
1, 37610, Note_off_c, 0, 66, 111
1, 37623, Note_on_c, 0, 63, 116
1, 37718, Note_off_c, 0, 63, 116
1, 37733, Note_on_c, 0, 59, 99
1, 37791, Note_off_c, 0, 59, 99
1, 37817, Note_on_c, 0, 68, 111
1, 38086, Note_off_c, 0, 68, 111
1, 38093, Note_on_c, 0, 67, 113
1, 38134, Note_off_c, 0, 67, 113
1, 38145, Note_on_c, 0, 65, 106
1, 38228, Note_off_c, 0, 65, 106
1, 38228, Note_on_c, 0, 62, 113
1, 38290, Note_off_c, 0, 62, 113
1, 38291, Note_on_c, 0, 63, 119
1, 38378, Note_off_c, 0, 63, 119
1, 38381, Note_on_c, 0, 62, 113
1, 38432, Note_off_c, 0, 62, 113
1, 38471, Note_on_c, 0, 60, 111
1, 38547, Note_off_c, 0, 60, 111
1, 38567, Note_on_c, 0, 58, 113
1, 38643, Note_off_c, 0, 58, 113
1, 38650, Note_on_c, 0, 56, 113
1, 38750, Note_off_c, 0, 56, 113
1, 38769, Note_on_c, 0, 55, 109
1, 38822, Note_off_c, 0, 55, 109
1, 38850, Note_on_c, 0, 53, 111
1, 38937, Note_off_c, 0, 53, 111
1, 38968, Note_on_c, 0, 51, 92
1, 39055, Note_off_c, 0, 51, 92
1, 39086, Note_on_c, 0, 53, 97
1, 39200, Note_off_c, 0, 53, 97
1, 39245, Note_on_c, 0, 58, 97
1, 39294, Note_off_c, 0, 58, 97
1, 39307, Note_on_c, 0, 63, 122
1, 39396, Note_off_c, 0, 63, 122
1, 40182, Note_on_c, 0, 54, 111
1, 40244, Note_off_c, 0, 54, 111
1, 40264, Note_on_c, 0, 59, 107
1, 40326, Note_off_c, 0, 59, 107
1, 40348, Note_on_c, 0, 63, 119
1, 40429, Note_off_c, 0, 63, 119
1, 40438, Note_on_c, 0, 62, 118
1, 40512, Note_off_c, 0, 62, 118
1, 40538, Note_on_c, 0, 64, 122
1, 40657, Note_off_c, 0, 64, 122
1, 40662, Note_on_c, 0, 66, 111
1, 40722, Note_off_c, 0, 66, 111
1, 40742, Note_on_c, 0, 69, 118
1, 40846, Note_off_c, 0, 69, 118
1, 40847, Note_on_c, 0, 67, 114
1, 40921, Note_off_c, 0, 67, 114
1, 40959, Note_on_c, 0, 62, 117
1, 41033, Note_off_c, 0, 62, 117
1, 41033, Note_on_c, 0, 59, 105
1, 41107, Note_off_c, 0, 59, 105
1, 41156, Note_on_c, 0, 55, 97
1, 41203, Note_off_c, 0, 55, 97
1, 41218, Note_on_c, 0, 60, 116
1, 41297, Note_off_c, 0, 60, 116
1, 41323, Note_on_c, 0, 56, 114
1, 41419, Note_off_c, 0, 56, 114
1, 41443, Note_on_c, 0, 55, 110
1, 41503, Note_off_c, 0, 55, 110
1, 41518, Note_on_c, 0, 53, 107
1, 41595, Note_off_c, 0, 53, 107
1, 41606, Note_on_c, 0, 51, 105
1, 41685, Note_off_c, 0, 51, 105
1, 41702, Note_on_c, 0, 53, 108
1, 41785, Note_off_c, 0, 53, 108
1, 41815, Note_on_c, 0, 55, 112
1, 41881, Note_off_c, 0, 55, 112
1, 41882, Note_on_c, 0, 56, 111
1, 41959, Note_off_c, 0, 56, 111
1, 41993, Note_on_c, 0, 58, 101
1, 42057, Note_off_c, 0, 58, 101
1, 42081, Note_on_c, 0, 60, 112
1, 42162, Note_off_c, 0, 60, 112
1, 42182, Note_on_c, 0, 62, 104
1, 42235, Note_off_c, 0, 62, 104
1, 42267, Note_on_c, 0, 65, 110
1, 42350, Note_off_c, 0, 65, 110
1, 42355, Note_on_c, 0, 64, 115
1, 42413, Note_off_c, 0, 64, 115
1, 42452, Note_on_c, 0, 68, 102
1, 42514, Note_off_c, 0, 68, 102
1, 42514, Note_on_c, 0, 67, 107
1, 42593, Note_off_c, 0, 67, 107
1, 42737, Note_on_c, 0, 71, 110
1, 42792, Note_off_c, 0, 71, 110
1, 42830, Note_on_c, 0, 62, 111
1, 42898, Note_off_c, 0, 62, 111
1, 42905, Note_on_c, 0, 64, 107
1, 42967, Note_off_c, 0, 64, 107
1, 43027, Note_on_c, 0, 69, 115
1, 43104, Note_off_c, 0, 69, 115
1, 43107, Note_on_c, 0, 67, 115
1, 43192, Note_off_c, 0, 67, 115
1, 43209, Note_on_c, 0, 69, 116
1, 43288, Note_off_c, 0, 69, 116
1, 43288, Note_on_c, 0, 71, 111
1, 43358, Note_off_c, 0, 71, 111
1, 43369, Note_on_c, 0, 72, 114
1, 43448, Note_off_c, 0, 72, 114
1, 43480, Note_on_c, 0, 62, 115
1, 43567, Note_off_c, 0, 62, 115
1, 43586, Note_on_c, 0, 63, 102
1, 43631, Note_off_c, 0, 63, 102
1, 43674, Note_on_c, 0, 68, 112
1, 43742, Note_off_c, 0, 68, 112
1, 43766, Note_on_c, 0, 72, 115
1, 43828, Note_off_c, 0, 72, 115
1, 43852, Note_on_c, 0, 63, 119
1, 43950, Note_off_c, 0, 63, 119
1, 43961, Note_on_c, 0, 65, 107
1, 44029, Note_off_c, 0, 65, 107
1, 44042, Note_on_c, 0, 67, 107
1, 44119, Note_off_c, 0, 67, 107
1, 44172, Note_on_c, 0, 67, 93
1, 44217, Note_off_c, 0, 67, 93
1, 44638, Note_on_c, 0, 66, 117
1, 44734, Note_off_c, 0, 66, 117
1, 44814, Note_on_c, 0, 63, 123
1, 44926, Note_on_c, 0, 61, 108
1, 44926, Note_off_c, 0, 63, 123
1, 45003, Note_off_c, 0, 61, 108
1, 45016, Note_on_c, 0, 59, 107
1, 45095, Note_off_c, 0, 59, 107
1, 45100, Note_on_c, 0, 61, 111
1, 45189, Note_off_c, 0, 61, 111
1, 45192, Note_on_c, 0, 63, 114
1, 45287, Note_off_c, 0, 63, 114
1, 45321, Note_on_c, 0, 66, 107
1, 45387, Note_off_c, 0, 66, 107
1, 45388, Note_on_c, 0, 70, 118
1, 45483, Note_off_c, 0, 70, 118
1, 45491, Note_on_c, 0, 69, 115
1, 45543, Note_off_c, 0, 69, 115
1, 45556, Note_on_c, 0, 68, 117
1, 45647, Note_off_c, 0, 68, 117
1, 45676, Note_on_c, 0, 67, 116
1, 45742, Note_off_c, 0, 67, 116
1, 45746, Note_on_c, 0, 65, 108
1, 45818, Note_off_c, 0, 65, 108
1, 45838, Note_on_c, 0, 63, 121
1, 45900, Note_off_c, 0, 63, 121
1, 45915, Note_on_c, 0, 62, 114
1, 46008, Note_off_c, 0, 62, 114
1, 46051, Note_on_c, 0, 60, 111
1, 46121, Note_off_c, 0, 60, 111
1, 46121, Note_on_c, 0, 58, 111
1, 46214, Note_off_c, 0, 58, 111
1, 46246, Note_on_c, 0, 68, 113
1, 46310, Note_off_c, 0, 68, 113
1, 46311, Note_on_c, 0, 67, 113
1, 46425, Note_off_c, 0, 67, 113
1, 46430, Note_on_c, 0, 62, 107
1, 46509, Note_off_c, 0, 62, 107
1, 46514, Note_on_c, 0, 65, 110
1, 46618, Note_off_c, 0, 65, 110
1, 46629, Note_on_c, 0, 63, 120
1, 46706, Note_off_c, 0, 63, 120
1, 46717, Note_on_c, 0, 62, 111
1, 46777, Note_off_c, 0, 62, 111
1, 46811, Note_on_c, 0, 65, 109
1, 46887, Note_off_c, 0, 65, 109
1, 46898, Note_on_c, 0, 64, 115
1, 46996, Note_off_c, 0, 64, 115
1, 47003, Note_on_c, 0, 60, 109
1, 47064, Note_off_c, 0, 60, 109
1, 47064, Note_on_c, 0, 56, 109
1, 47159, Note_off_c, 0, 56, 109
1, 47191, Note_on_c, 0, 54, 96
1, 47248, Note_off_c, 0, 54, 96
1, 47266, Note_on_c, 0, 55, 103
1, 47648, Note_off_c, 0, 55, 103
1, 47683, Note_on_c, 0, 62, 116
1, 47806, Note_off_c, 0, 62, 116
1, 48013, Note_on_c, 0, 67, 105
1, 48060, Note_off_c, 0, 67, 105
1, 48060, Note_on_c, 0, 71, 125
1, 48179, Note_off_c, 0, 71, 125
1, 48521, Note_on_c, 0, 61, 120
1, 48598, Note_off_c, 0, 61, 120
1, 48601, Note_on_c, 0, 64, 113
1, 48650, Note_off_c, 0, 64, 113
1, 48650, Note_on_c, 0, 68, 114
1, 48714, Note_off_c, 0, 68, 114
1, 48714, Note_on_c, 0, 71, 123
1, 48780, Note_off_c, 0, 71, 123
1, 48780, Note_on_c, 0, 70, 125
1, 48966, Note_off_c, 0, 70, 125
1, 48971, Note_on_c, 0, 72, 119
1, 49026, Note_off_c, 0, 72, 119
1, 49043, Note_on_c, 0, 73, 124
1, 49166, Note_off_c, 0, 73, 124
1, 49186, Note_on_c, 0, 73, 120
1, 49457, Note_off_c, 0, 73, 120
1, 49481, Note_on_c, 0, 70, 113
1, 49536, Note_off_c, 0, 70, 113
1, 49555, Note_on_c, 0, 66, 104
1, 49623, Note_off_c, 0, 66, 104
1, 49655, Note_on_c, 0, 63, 123
1, 49791, Note_off_c, 0, 63, 123
1, 49864, Note_on_c, 0, 70, 114
1, 49970, Note_off_c, 0, 70, 114
1, 49978, Note_on_c, 0, 74, 117
1, 50214, Note_off_c, 0, 74, 117
1, 50251, Note_on_c, 0, 71, 121
1, 50313, Note_off_c, 0, 71, 121
1, 50318, Note_on_c, 0, 70, 117
1, 50416, Note_off_c, 0, 70, 117
1, 50439, Note_on_c, 0, 68, 115
1, 50509, Note_off_c, 0, 68, 115
1, 50514, Note_on_c, 0, 67, 119
1, 50614, Note_off_c, 0, 67, 119
1, 50634, Note_on_c, 0, 65, 114
1, 50692, Note_off_c, 0, 65, 114
1, 50692, Note_on_c, 0, 63, 122
1, 50775, Note_off_c, 0, 63, 122
1, 50790, Note_on_c, 0, 65, 110
1, 50873, Note_off_c, 0, 65, 110
1, 50901, Note_on_c, 0, 67, 106
1, 50956, Note_off_c, 0, 67, 106
1, 50963, Note_on_c, 0, 70, 106
1, 51035, Note_off_c, 0, 70, 106
1, 51044, Note_on_c, 0, 75, 120
1, 51188, Note_off_c, 0, 75, 120
1, 51549, Note_on_c, 0, 75, 121
1, 51636, Note_off_c, 0, 75, 121
1, 51639, Note_on_c, 0, 73, 122
1, 51730, Note_on_c, 0, 71, 127
1, 51730, Note_off_c, 0, 73, 122
1, 51802, Note_off_c, 0, 71, 127
1, 51811, Note_on_c, 0, 70, 123
1, 52126, Note_off_c, 0, 70, 123
1, 52145, Note_on_c, 0, 66, 110
1, 52215, Note_off_c, 0, 66, 110
1, 52240, Note_on_c, 0, 71, 101
1, 52322, Note_off_c, 0, 71, 101
1, 52339, Note_on_c, 0, 74, 118
1, 52893, Note_off_c, 0, 74, 118
1, 52917, Note_on_c, 0, 73, 107
1, 52961, Note_off_c, 0, 73, 107
1, 52980, Note_on_c, 0, 71, 121
1, 53074, Note_off_c, 0, 71, 121
1, 53118, Note_on_c, 0, 62, 114
1, 53197, Note_off_c, 0, 62, 114
1, 53204, Note_on_c, 0, 67, 114
1, 53276, Note_off_c, 0, 67, 114
1, 53293, Note_on_c, 0, 71, 122
1, 53369, Note_off_c, 0, 71, 122
1, 53380, Note_on_c, 0, 70, 116
1, 53448, Note_off_c, 0, 70, 116
1, 53463, Note_on_c, 0, 69, 116
1, 53535, Note_off_c, 0, 69, 116
1, 53574, Note_on_c, 0, 68, 114
1, 53657, Note_off_c, 0, 68, 114
1, 53681, Note_on_c, 0, 72, 116
1, 53730, Note_off_c, 0, 72, 116
1, 53754, Note_on_c, 0, 70, 118
1, 53837, Note_off_c, 0, 70, 118
1, 53856, Note_on_c, 0, 67, 119
1, 53909, Note_off_c, 0, 67, 119
1, 53929, Note_on_c, 0, 65, 114
1, 54031, Note_off_c, 0, 65, 114
1, 54044, Note_on_c, 0, 63, 111
1, 54102, Note_off_c, 0, 63, 111
1, 54122, Note_on_c, 0, 67, 123
1, 54258, Note_off_c, 0, 67, 123
1, 54261, Note_on_c, 0, 70, 119
1, 54392, Note_off_c, 0, 70, 119
1, 54418, Note_on_c, 0, 75, 125
1, 54558, Note_off_c, 0, 75, 125
1, 54650, Note_on_c, 0, 62, 109
1, 54701, Note_off_c, 0, 62, 109
1, 54834, Note_on_c, 0, 71, 124
1, 54915, Note_off_c, 0, 71, 124
1, 54918, Note_on_c, 0, 69, 117
1, 55009, Note_off_c, 0, 69, 117
1, 55444, Note_on_c, 0, 62, 65
1, 55508, Note_off_c, 0, 62, 65
1, 55526, Note_on_c, 0, 67, 116
1, 55597, Note_off_c, 0, 67, 116
1, 55619, Note_on_c, 0, 71, 117
1, 55687, Note_off_c, 0, 71, 117
1, 55712, Note_on_c, 0, 62, 111
1, 55797, Note_off_c, 0, 62, 111
1, 55811, Note_on_c, 0, 65, 102
1, 55859, Note_off_c, 0, 65, 102
1, 55873, Note_on_c, 0, 68, 115
1, 55981, Note_off_c, 0, 68, 115
1, 55987, Note_on_c, 0, 72, 116
1, 56064, Note_off_c, 0, 72, 116
1, 56094, Note_on_c, 0, 63, 118
1, 56191, Note_off_c, 0, 63, 118
1, 56195, Note_on_c, 0, 65, 99
1, 56310, Note_off_c, 0, 65, 99
1, 56319, Note_on_c, 0, 67, 100
1, 56376, Note_off_c, 0, 67, 100
1, 56386, Note_on_c, 0, 70, 104
1, 56449, Note_off_c, 0, 70, 104
1, 56463, Note_on_c, 0, 75, 120
1, 56604, Note_off_c, 0, 75, 120
1, 56646, Note_on_c, 0, 73, 112
1, 56762, Note_off_c, 0, 73, 112
1, 56767, Note_on_c, 0, 71, 119
1, 56838, Note_off_c, 0, 71, 119
1, 56838, Note_on_c, 0, 70, 118
1, 56938, Note_off_c, 0, 70, 118
1, 56938, Note_on_c, 0, 68, 116
1, 57010, Note_off_c, 0, 68, 116
1, 57027, Note_on_c, 0, 66, 114
1, 57136, Note_off_c, 0, 66, 114
1, 57136, Note_on_c, 0, 64, 113
1, 57215, Note_off_c, 0, 64, 113
1, 57220, Note_on_c, 0, 63, 115
1, 57325, Note_off_c, 0, 63, 115
1, 57331, Note_on_c, 0, 61, 106
1, 57381, Note_off_c, 0, 61, 106
1, 57405, Note_on_c, 0, 59, 105
1, 57464, Note_off_c, 0, 59, 105
1, 57536, Note_on_c, 0, 55, 102
1, 57599, Note_off_c, 0, 55, 102
1, 57636, Note_on_c, 0, 60, 113
1, 57707, Note_off_c, 0, 60, 113
1, 57737, Note_on_c, 0, 62, 110
1, 57832, Note_off_c, 0, 62, 110
1, 57850, Note_on_c, 0, 63, 114
1, 57921, Note_off_c, 0, 63, 114
1, 57935, Note_on_c, 0, 65, 110
1, 58002, Note_off_c, 0, 65, 110
1, 58028, Note_on_c, 0, 67, 111
1, 58110, Note_off_c, 0, 67, 111
1, 58127, Note_on_c, 0, 65, 109
1, 58190, Note_off_c, 0, 65, 109
1, 58208, Note_on_c, 0, 62, 110
1, 58302, Note_off_c, 0, 62, 110
1, 58324, Note_on_c, 0, 60, 110
1, 58409, Note_off_c, 0, 60, 110
1, 58423, Note_on_c, 0, 58, 106
1, 58494, Note_off_c, 0, 58, 106
1, 58505, Note_on_c, 0, 68, 117
1, 58598, Note_off_c, 0, 68, 117
1, 58603, Note_on_c, 0, 67, 113
1, 58705, Note_off_c, 0, 67, 113
1, 58712, Note_on_c, 0, 62, 103
1, 58775, Note_off_c, 0, 62, 103
1, 58799, Note_on_c, 0, 65, 108
1, 58890, Note_off_c, 0, 65, 108
1, 58903, Note_on_c, 0, 63, 120
1, 58989, Note_off_c, 0, 63, 120
1, 59002, Note_on_c, 0, 62, 111
1, 59089, Note_off_c, 0, 62, 111
1, 59102, Note_on_c, 0, 60, 109
1, 59172, Note_off_c, 0, 60, 109
1, 59209, Note_on_c, 0, 68, 105
1, 59276, Note_off_c, 0, 68, 105
1, 59289, Note_on_c, 0, 67, 118
1, 59382, Note_off_c, 0, 67, 118
1, 59498, Note_on_c, 0, 67, 104
1, 59556, Note_off_c, 0, 67, 104
1, 59556, Note_on_c, 0, 71, 121
1, 59730, Note_off_c, 0, 71, 121
1, 59750, Note_on_c, 0, 67, 106
1, 59844, Note_off_c, 0, 67, 106
1, 59845, Note_on_c, 0, 71, 118
1, 60226, Note_off_c, 0, 71, 118
1, 60273, Note_on_c, 0, 67, 105
1, 60348, Note_off_c, 0, 67, 105
1, 60348, Note_on_c, 0, 71, 121
1, 60439, Note_off_c, 0, 71, 121
1, 60444, Note_on_c, 0, 74, 119
1, 60549, Note_off_c, 0, 74, 119
1, 60859, Note_on_c, 0, 61, 114
1, 60933, Note_off_c, 0, 61, 114
1, 60933, Note_on_c, 0, 64, 111
1, 60981, Note_off_c, 0, 64, 111
1, 60984, Note_on_c, 0, 68, 119
1, 61053, Note_off_c, 0, 68, 119
1, 61056, Note_on_c, 0, 71, 122
1, 61118, Note_off_c, 0, 71, 122
1, 61123, Note_on_c, 0, 70, 118
1, 61202, Note_off_c, 0, 70, 118
1, 61208, Note_on_c, 0, 72, 118
1, 61260, Note_off_c, 0, 72, 118
1, 61265, Note_on_c, 0, 73, 122
1, 61722, Note_off_c, 0, 73, 122
1, 61742, Note_on_c, 0, 70, 114
1, 61806, Note_off_c, 0, 70, 114
1, 61845, Note_on_c, 0, 68, 114
1, 61904, Note_off_c, 0, 68, 114
1, 61914, Note_on_c, 0, 66, 110
1, 61991, Note_off_c, 0, 66, 110
1, 62005, Note_on_c, 0, 63, 111
1, 62103, Note_off_c, 0, 63, 111
1, 62105, Note_on_c, 0, 59, 114
1, 62161, Note_off_c, 0, 59, 114
1, 62332, Note_on_c, 0, 70, 104
1, 62465, Note_off_c, 0, 70, 104
1, 62471, Note_on_c, 0, 74, 114
1, 62616, Note_off_c, 0, 74, 114
1, 62642, Note_on_c, 0, 71, 119
1, 62704, Note_off_c, 0, 71, 119
1, 62718, Note_on_c, 0, 70, 111
1, 62790, Note_off_c, 0, 70, 111
1, 62800, Note_on_c, 0, 68, 117
1, 62872, Note_off_c, 0, 68, 117
1, 62893, Note_on_c, 0, 67, 116
1, 62965, Note_off_c, 0, 67, 116
1, 62992, Note_on_c, 0, 65, 115
1, 63078, Note_off_c, 0, 65, 115
1, 63100, Note_on_c, 0, 63, 121
1, 63183, Note_off_c, 0, 63, 121
1, 63187, Note_on_c, 0, 65, 110
1, 63273, Note_off_c, 0, 65, 110
1, 63308, Note_on_c, 0, 67, 104
1, 63383, Note_off_c, 0, 67, 104
1, 63399, Note_on_c, 0, 70, 104
1, 63458, Note_off_c, 0, 70, 104
1, 63472, Note_on_c, 0, 75, 119
1, 63600, Note_off_c, 0, 75, 119
1, 63885, Note_on_c, 0, 70, 107
1, 63950, Note_off_c, 0, 70, 107
1, 63959, Note_on_c, 0, 73, 120
1, 64532, Note_off_c, 0, 73, 120
1, 64549, Note_on_c, 0, 70, 119
1, 64647, Note_off_c, 0, 70, 119
1, 64653, Note_on_c, 0, 68, 114
1, 64728, Note_off_c, 0, 68, 114
1, 64748, Note_on_c, 0, 66, 115
1, 64816, Note_off_c, 0, 66, 115
1, 64816, Note_on_c, 0, 63, 114
1, 64940, Note_off_c, 0, 63, 114
1, 64948, Note_on_c, 0, 59, 97
1, 65010, Note_off_c, 0, 59, 97
1, 65031, Note_on_c, 0, 62, 113
1, 65120, Note_off_c, 0, 62, 113
1, 65136, Note_on_c, 0, 64, 110
1, 65192, Note_off_c, 0, 64, 110
1, 65220, Note_on_c, 0, 66, 107
1, 65291, Note_off_c, 0, 66, 107
1, 65332, Note_on_c, 0, 69, 119
1, 65427, Note_off_c, 0, 69, 119
1, 65441, Note_on_c, 0, 67, 114
1, 65520, Note_off_c, 0, 67, 114
1, 65549, Note_on_c, 0, 62, 113
1, 65638, Note_off_c, 0, 62, 113
1, 65648, Note_on_c, 0, 59, 102
1, 65711, Note_off_c, 0, 59, 102
1, 65752, Note_on_c, 0, 55, 101
1, 65802, Note_off_c, 0, 55, 101
1, 65808, Note_on_c, 0, 60, 115
1, 65899, Note_off_c, 0, 60, 115
1, 65921, Note_on_c, 0, 63, 121
1, 66000, Note_off_c, 0, 63, 121
1, 66010, Note_on_c, 0, 62, 110
1, 66073, Note_off_c, 0, 62, 110
1, 66102, Note_on_c, 0, 60, 110
1, 66187, Note_off_c, 0, 60, 110
1, 66192, Note_on_c, 0, 58, 111
1, 66264, Note_off_c, 0, 58, 111
1, 66282, Note_on_c, 0, 60, 109
1, 66359, Note_off_c, 0, 60, 109
1, 66373, Note_on_c, 0, 62, 107
1, 66458, Note_off_c, 0, 62, 107
1, 66466, Note_on_c, 0, 65, 108
1, 66560, Note_off_c, 0, 65, 108
1, 66580, Note_on_c, 0, 63, 112
1, 66675, Note_off_c, 0, 63, 112
1, 66691, Note_on_c, 0, 65, 106
1, 66750, Note_off_c, 0, 65, 106
1, 66867, Note_on_c, 0, 67, 100
1, 66903, Note_off_c, 0, 67, 100
1, 66907, Note_on_c, 0, 70, 100
1, 66943, Note_off_c, 0, 70, 100
1, 66951, Note_on_c, 0, 71, 120
1, 67049, Note_off_c, 0, 71, 120
1, 67058, Note_on_c, 0, 69, 117
1, 67152, Note_off_c, 0, 69, 117
1, 67157, Note_on_c, 0, 67, 115
1, 67255, Note_off_c, 0, 67, 115
1, 67263, Note_on_c, 0, 66, 117
1, 67354, Note_off_c, 0, 66, 117
1, 67849, Note_on_c, 0, 62, 109
1, 67909, Note_off_c, 0, 62, 109
1, 67937, Note_on_c, 0, 67, 115
1, 68003, Note_off_c, 0, 67, 115
1, 68015, Note_on_c, 0, 71, 115
1, 68102, Note_off_c, 0, 71, 115
1, 68131, Note_on_c, 0, 62, 113
1, 68212, Note_off_c, 0, 62, 113
1, 68230, Note_on_c, 0, 65, 106
1, 68286, Note_off_c, 0, 65, 106
1, 68292, Note_on_c, 0, 68, 111
1, 68420, Note_off_c, 0, 68, 111
1, 68436, Note_on_c, 0, 71, 112
1, 68483, Note_off_c, 0, 71, 112
1, 68488, Note_on_c, 0, 63, 119
1, 68608, Note_off_c, 0, 63, 119
1, 68610, Note_on_c, 0, 65, 106
1, 68664, Note_off_c, 0, 65, 106
1, 68703, Note_on_c, 0, 67, 107
1, 68775, Note_off_c, 0, 67, 107
1, 68795, Note_on_c, 0, 70, 114
1, 68890, Note_off_c, 0, 70, 114
1, 68890, Note_on_c, 0, 64, 115
1, 69000, Note_off_c, 0, 64, 115
1, 69008, Note_on_c, 0, 67, 109
1, 69055, Note_off_c, 0, 67, 109
1, 69055, Note_on_c, 0, 70, 114
1, 69160, Note_off_c, 0, 70, 114
1, 69164, Note_on_c, 0, 73, 107
1, 69232, Note_off_c, 0, 73, 107
1, 69234, Note_on_c, 0, 72, 106
1, 69273, Note_off_c, 0, 72, 106
1, 69274, Note_on_c, 0, 70, 99
1, 69344, Note_off_c, 0, 70, 99
1, 69357, Note_on_c, 0, 68, 110
1, 69484, Note_off_c, 0, 68, 110
1, 69490, Note_on_c, 0, 70, 97
1, 69538, Note_off_c, 0, 70, 97
1, 69615, Note_on_c, 0, 66, 110
1, 69665, Note_off_c, 0, 66, 110
1, 69681, Note_on_c, 0, 70, 117
1, 69755, Note_off_c, 0, 70, 117
1, 69761, Note_on_c, 0, 69, 110
1, 69832, Note_off_c, 0, 69, 110
1, 69837, Note_on_c, 0, 68, 113
1, 69927, Note_off_c, 0, 68, 113
1, 69954, Note_on_c, 0, 67, 113
1, 70039, Note_off_c, 0, 67, 113
1, 70049, Note_on_c, 0, 65, 106
1, 70136, Note_off_c, 0, 65, 106
1, 70142, Note_on_c, 0, 63, 119
1, 70219, Note_off_c, 0, 63, 119
1, 70240, Note_on_c, 0, 62, 111
1, 70307, Note_off_c, 0, 62, 111
1, 70315, Note_on_c, 0, 60, 108
1, 70408, Note_off_c, 0, 60, 108
1, 70414, Note_on_c, 0, 58, 111
1, 70481, Note_off_c, 0, 58, 111
1, 70520, Note_on_c, 0, 56, 113
1, 70615, Note_off_c, 0, 56, 113
1, 70621, Note_on_c, 0, 55, 108
1, 70689, Note_off_c, 0, 55, 108
1, 70716, Note_on_c, 0, 53, 111
1, 70795, Note_off_c, 0, 53, 111
1, 70803, Note_on_c, 0, 51, 109
1, 70846, Note_off_c, 0, 51, 109
1, 70852, Note_on_c, 0, 53, 107
1, 70896, Note_off_c, 0, 53, 107
1, 70901, Note_on_c, 0, 55, 109
1, 70965, Note_off_c, 0, 55, 109
1, 70971, Note_on_c, 0, 56, 111
1, 71027, Note_off_c, 0, 56, 111
1, 71039, Note_on_c, 0, 58, 106
1, 71095, Note_off_c, 0, 58, 106
1, 71096, Note_on_c, 0, 60, 111
1, 71148, Note_off_c, 0, 60, 111
1, 71150, Note_on_c, 0, 62, 110
1, 71189, Note_off_c, 0, 62, 110
1, 71195, Note_on_c, 0, 63, 117
1, 71242, Note_off_c, 0, 63, 117
1, 71244, Note_on_c, 0, 67, 116
1, 71294, Note_off_c, 0, 67, 116
1, 71302, Note_on_c, 0, 68, 121
1, 71348, Note_off_c, 0, 68, 121
1, 71348, Note_on_c, 0, 70, 116
1, 71511, Note_off_c, 0, 70, 116
1, 71739, Note_on_c, 0, 59, 104
1, 71799, Note_off_c, 0, 59, 104
1, 71844, Note_on_c, 0, 62, 109
1, 71895, Note_off_c, 0, 62, 109
1, 71905, Note_on_c, 0, 64, 115
1, 71946, Note_off_c, 0, 64, 115
1, 71959, Note_on_c, 0, 67, 115
1, 72018, Note_off_c, 0, 67, 115
1, 72021, Note_on_c, 0, 69, 118
1, 72083, Note_off_c, 0, 69, 118
1, 72084, Note_on_c, 0, 71, 118
1, 72601, Note_off_c, 0, 71, 118
1, 72663, Note_on_c, 0, 67, 107
1, 72708, Note_off_c, 0, 67, 107
1, 72713, Note_on_c, 0, 69, 117
1, 72814, Note_off_c, 0, 69, 117
1, 72819, Note_on_c, 0, 67, 115
1, 72919, Note_off_c, 0, 67, 115
1, 73169, Note_on_c, 0, 61, 111
1, 73233, Note_off_c, 0, 61, 111
1, 73239, Note_on_c, 0, 64, 116
1, 73281, Note_off_c, 0, 64, 116
1, 73290, Note_on_c, 0, 68, 118
1, 73335, Note_off_c, 0, 68, 118
1, 73340, Note_on_c, 0, 71, 119
1, 73369, Note_off_c, 0, 71, 119
1, 73379, Note_on_c, 0, 70, 115
1, 73546, Note_off_c, 0, 70, 115
1, 73552, Note_on_c, 0, 72, 111
1, 73585, Note_off_c, 0, 72, 111
1, 73587, Note_on_c, 0, 75, 110
1, 73772, Note_off_c, 0, 75, 110
1, 73777, Note_on_c, 0, 73, 112
1, 74116, Note_off_c, 0, 73, 112
1, 74122, Note_on_c, 0, 70, 113
1, 74213, Note_off_c, 0, 70, 113
1, 74225, Note_on_c, 0, 66, 103
1, 74292, Note_off_c, 0, 66, 103
1, 74304, Note_on_c, 0, 63, 119
1, 74437, Note_off_c, 0, 63, 119
1, 74645, Note_on_c, 0, 70, 102
1, 74737, Note_off_c, 0, 70, 102
1, 74745, Note_on_c, 0, 74, 114
1, 74882, Note_off_c, 0, 74, 114
1, 74886, Note_on_c, 0, 71, 123
1, 74947, Note_off_c, 0, 71, 123
1, 74954, Note_on_c, 0, 70, 113
1, 75040, Note_off_c, 0, 70, 113
1, 75046, Note_on_c, 0, 68, 119
1, 75123, Note_off_c, 0, 68, 119
1, 75128, Note_on_c, 0, 67, 111
1, 75224, Note_off_c, 0, 67, 111
1, 75231, Note_on_c, 0, 65, 112
1, 75273, Note_off_c, 0, 65, 112
1, 75275, Note_on_c, 0, 63, 121
1, 75419, Note_off_c, 0, 63, 121
1, 75435, Note_on_c, 0, 62, 106
1, 75494, Note_off_c, 0, 62, 106
1, 75523, Note_on_c, 0, 65, 109
1, 75624, Note_off_c, 0, 65, 109
1, 75637, Note_on_c, 0, 62, 103
1, 75673, Note_off_c, 0, 62, 103
1, 75679, Note_on_c, 0, 63, 119
1, 75778, Note_off_c, 0, 63, 119
1, 75797, Note_on_c, 0, 65, 104
1, 75871, Note_off_c, 0, 65, 104
1, 75898, Note_on_c, 0, 67, 109
1, 75952, Note_off_c, 0, 67, 109
1, 75979, Note_on_c, 0, 70, 111
1, 76043, Note_off_c, 0, 70, 111
1, 76084, Note_on_c, 0, 63, 116
1, 76197, Note_off_c, 0, 63, 116
1, 76215, Note_on_c, 0, 59, 103
1, 76273, Note_off_c, 0, 59, 103
1, 76294, Note_on_c, 0, 56, 100
1, 76350, Note_off_c, 0, 56, 100
1, 76442, Note_on_c, 0, 58, 111
1, 76508, Note_off_c, 0, 58, 111
1, 76594, Note_on_c, 0, 54, 100
1, 76761, Note_off_c, 0, 54, 100
1, 76848, Note_on_c, 0, 58, 111
1, 76879, Note_off_c, 0, 58, 111
1, 76889, Note_on_c, 0, 59, 95
1, 76956, Note_off_c, 0, 59, 95
1, 76984, Note_on_c, 0, 60, 96
1, 77029, Note_off_c, 0, 60, 96
1, 77070, Note_on_c, 0, 61, 100
1, 77121, Note_off_c, 0, 61, 100
1, 77126, Note_on_c, 0, 63, 106
1, 77193, Note_off_c, 0, 63, 106
1, 77197, Note_on_c, 0, 66, 113
1, 77259, Note_off_c, 0, 66, 113
1, 77263, Note_on_c, 0, 62, 111
1, 77352, Note_off_c, 0, 62, 111
1, 77368, Note_on_c, 0, 64, 118
1, 77445, Note_off_c, 0, 64, 118
1, 77458, Note_on_c, 0, 66, 108
1, 77521, Note_off_c, 0, 66, 108
1, 77553, Note_on_c, 0, 69, 117
1, 77634, Note_off_c, 0, 69, 117
1, 77638, Note_on_c, 0, 67, 112
1, 77692, Note_off_c, 0, 67, 112
1, 77724, Note_on_c, 0, 62, 113
1, 77814, Note_off_c, 0, 62, 113
1, 77823, Note_on_c, 0, 59, 101
1, 77875, Note_off_c, 0, 59, 101
1, 77941, Note_on_c, 0, 55, 104
1, 77997, Note_off_c, 0, 55, 104
1, 78024, Note_on_c, 0, 60, 110
1, 78079, Note_off_c, 0, 60, 110
1, 78107, Note_on_c, 0, 63, 115
1, 78193, Note_off_c, 0, 63, 115
1, 78201, Note_on_c, 0, 62, 107
1, 78269, Note_off_c, 0, 62, 107
1, 78291, Note_on_c, 0, 60, 108
1, 78376, Note_off_c, 0, 60, 108
1, 78377, Note_on_c, 0, 58, 101
1, 78440, Note_off_c, 0, 58, 101
1, 78456, Note_on_c, 0, 67, 111
1, 78639, Note_off_c, 0, 67, 111
1, 79070, Note_on_c, 0, 66, 113
1, 79115, Note_off_c, 0, 66, 113
1, 79123, Note_on_c, 0, 67, 109
1, 79468, Note_off_c, 0, 67, 109
1, 79470, Note_on_c, 0, 65, 101
1, 79521, Note_off_c, 0, 65, 101
1, 79521, Note_on_c, 0, 66, 110
1, 79602, Note_off_c, 0, 66, 110
1, 79616, Note_on_c, 0, 67, 111
1, 79724, Note_off_c, 0, 67, 111
1, 79752, Note_on_c, 0, 69, 103
1, 79806, Note_off_c, 0, 69, 103
1, 79826, Note_on_c, 0, 71, 116
1, 79911, Note_off_c, 0, 71, 116
1, 79935, Note_on_c, 0, 67, 107
1, 80087, Note_off_c, 0, 67, 107
1, 80195, Note_on_c, 0, 71, 116
1, 80226, Note_off_c, 0, 71, 116
1, 80226, Note_on_c, 0, 73, 104
1, 80285, Note_off_c, 0, 73, 104
1, 80312, Note_on_c, 0, 68, 107
1, 80425, Note_off_c, 0, 68, 107
1, 80429, Note_on_c, 0, 72, 110
1, 80479, Note_off_c, 0, 72, 110
1, 80500, Note_on_c, 0, 70, 110
1, 80579, Note_off_c, 0, 70, 110
1, 80608, Note_on_c, 0, 68, 112
1, 80689, Note_off_c, 0, 68, 112
1, 80701, Note_on_c, 0, 67, 109
1, 80807, Note_off_c, 0, 67, 109
1, 80843, Note_on_c, 0, 63, 105
1, 80883, Note_off_c, 0, 63, 105
1, 80896, Note_on_c, 0, 65, 99
1, 80954, Note_off_c, 0, 65, 99
1, 80979, Note_on_c, 0, 67, 112
1, 81058, Note_off_c, 0, 67, 112
1, 81062, Note_on_c, 0, 64, 110
1, 81183, Note_off_c, 0, 64, 110
1, 81184, Note_on_c, 0, 66, 102
1, 81271, Note_off_c, 0, 66, 102
1, 81281, Note_on_c, 0, 68, 99
1, 81341, Note_off_c, 0, 68, 99
1, 81372, Note_on_c, 0, 70, 102
1, 81407, Note_off_c, 0, 70, 102
1, 81436, Note_on_c, 0, 73, 115
1, 81653, Note_off_c, 0, 73, 115
1, 81654, Note_on_c, 0, 70, 112
1, 81739, Note_off_c, 0, 70, 112
1, 81756, Note_on_c, 0, 68, 108
1, 81807, Note_off_c, 0, 68, 108
1, 81835, Note_on_c, 0, 66, 106
1, 81928, Note_off_c, 0, 66, 106
1, 81964, Note_on_c, 0, 63, 111
1, 82019, Note_off_c, 0, 63, 111
1, 82025, Note_on_c, 0, 59, 105
1, 82085, Note_off_c, 0, 59, 105
1, 82110, Note_on_c, 0, 58, 105
1, 82191, Note_off_c, 0, 58, 105
1, 82222, Note_on_c, 0, 60, 111
1, 82313, Note_off_c, 0, 60, 111
1, 82314, Note_on_c, 0, 62, 108
1, 82401, Note_off_c, 0, 62, 108
1, 82423, Note_on_c, 0, 63, 111
1, 82498, Note_off_c, 0, 63, 111
1, 82526, Note_on_c, 0, 65, 101
1, 82578, Note_off_c, 0, 65, 101
1, 82590, Note_on_c, 0, 67, 114
1, 82699, Note_off_c, 0, 67, 114
1, 82701, Note_on_c, 0, 65, 109
1, 82765, Note_off_c, 0, 65, 109
1, 82766, Note_on_c, 0, 62, 111
1, 82853, Note_off_c, 0, 62, 111
1, 82896, Note_on_c, 0, 60, 110
1, 82979, Note_off_c, 0, 60, 110
1, 82991, Note_on_c, 0, 58, 109
1, 83049, Note_off_c, 0, 58, 109
1, 83105, Note_on_c, 0, 68, 118
1, 83184, Note_off_c, 0, 68, 118
1, 83184, Note_on_c, 0, 67, 117
1, 83284, Note_off_c, 0, 67, 117
1, 83308, Note_on_c, 0, 62, 102
1, 83380, Note_off_c, 0, 62, 102
1, 83388, Note_on_c, 0, 65, 109
1, 83462, Note_off_c, 0, 65, 109
1, 83476, Note_on_c, 0, 63, 116
1, 83563, Note_off_c, 0, 63, 116
1, 83569, Note_on_c, 0, 62, 106
1, 83654, Note_off_c, 0, 62, 106
1, 83675, Note_on_c, 0, 65, 108
1, 83725, Note_off_c, 0, 65, 108
1, 83745, Note_on_c, 0, 64, 116
1, 83836, Note_off_c, 0, 64, 116
1, 83864, Note_on_c, 0, 60, 112
1, 83934, Note_off_c, 0, 60, 112
1, 83951, Note_on_c, 0, 56, 110
1, 84028, Note_off_c, 0, 56, 110
1, 84152, Note_on_c, 0, 62, 101
1, 84443, Note_off_c, 0, 62, 101
1, 84447, Note_on_c, 0, 60, 106
1, 84503, Note_off_c, 0, 60, 106
1, 84521, Note_on_c, 0, 59, 111
1, 84589, Note_off_c, 0, 59, 111
1, 84625, Note_on_c, 0, 62, 111
1, 84695, Note_off_c, 0, 62, 111
1, 84699, Note_on_c, 0, 64, 113
1, 84786, Note_off_c, 0, 64, 113
1, 84804, Note_on_c, 0, 66, 107
1, 84924, Note_off_c, 0, 66, 107
1, 85415, Note_on_c, 0, 61, 116
1, 85467, Note_off_c, 0, 61, 116
1, 85496, Note_on_c, 0, 68, 124
1, 85564, Note_off_c, 0, 68, 124
1, 85566, Note_on_c, 0, 71, 125
1, 85632, Note_off_c, 0, 71, 125
1, 85642, Note_on_c, 0, 70, 120
1, 85858, Note_off_c, 0, 70, 120
1, 85878, Note_on_c, 0, 66, 109
1, 85971, Note_off_c, 0, 66, 109
1, 86045, Note_on_c, 0, 66, 106
1, 86357, Note_off_c, 0, 66, 106
1, 86379, Note_on_c, 0, 63, 117
1, 86485, Note_off_c, 0, 63, 117
1, 86493, Note_on_c, 0, 61, 100
1, 86617, Note_off_c, 0, 61, 100
1, 86665, Note_on_c, 0, 59, 102
1, 86758, Note_off_c, 0, 59, 102
1, 86859, Note_on_c, 0, 60, 110
1, 86921, Note_off_c, 0, 60, 110
1, 86943, Note_on_c, 0, 62, 112
1, 87010, Note_off_c, 0, 62, 112
1, 87024, Note_on_c, 0, 63, 117
1, 87103, Note_off_c, 0, 63, 117
1, 87146, Note_on_c, 0, 60, 108
1, 87208, Note_off_c, 0, 60, 108
1, 87226, Note_on_c, 0, 67, 114
1, 87323, Note_off_c, 0, 67, 114
1, 87324, Note_on_c, 0, 65, 111
1, 87376, Note_off_c, 0, 65, 111
1, 87378, Note_on_c, 0, 62, 113
1, 87471, Note_off_c, 0, 62, 113
1, 87506, Note_on_c, 0, 60, 109
1, 87556, Note_off_c, 0, 60, 109
1, 87565, Note_on_c, 0, 58, 104
1, 87682, Note_off_c, 0, 58, 104
1, 87685, Note_on_c, 0, 63, 114
1, 87778, Note_off_c, 0, 63, 114
1, 87784, Note_on_c, 0, 65, 104
1, 87882, Note_off_c, 0, 65, 104
1, 87900, Note_on_c, 0, 67, 115
1, 87993, Note_off_c, 0, 67, 115
1, 88060, Note_on_c, 0, 67, 113
1, 88134, Note_off_c, 0, 67, 113
1, 88142, Note_on_c, 0, 70, 120
1, 88335, Note_off_c, 0, 70, 120
1, 88824, Note_on_c, 0, 68, 111
1, 88888, Note_off_c, 0, 68, 111
1, 88893, Note_on_c, 0, 70, 121
1, 89391, Note_off_c, 0, 70, 121
1, 89408, Note_on_c, 0, 66, 101
1, 89464, Note_off_c, 0, 66, 101
1, 89464, Note_on_c, 0, 71, 104
1, 89507, Note_off_c, 0, 71, 104
1, 89515, Note_on_c, 0, 74, 115
1, 89579, Note_off_c, 0, 74, 115
1, 89591, Note_on_c, 0, 72, 118
1, 89728, Note_off_c, 0, 72, 118
1, 89788, Note_on_c, 0, 69, 118
1, 89877, Note_off_c, 0, 69, 118
1, 90020, Note_on_c, 0, 72, 119
1, 90075, Note_off_c, 0, 72, 119
1, 90084, Note_on_c, 0, 71, 120
1, 90171, Note_off_c, 0, 71, 120
1, 90296, Note_on_c, 0, 67, 111
1, 90363, Note_off_c, 0, 67, 111
1, 90371, Note_on_c, 0, 71, 115
1, 90441, Note_off_c, 0, 71, 115
1, 90442, Note_on_c, 0, 70, 114
1, 90559, Note_off_c, 0, 70, 114
1, 90560, Note_on_c, 0, 69, 115
1, 90661, Note_off_c, 0, 69, 115
1, 90669, Note_on_c, 0, 68, 112
1, 90741, Note_off_c, 0, 68, 112
1, 90770, Note_on_c, 0, 72, 113
1, 90817, Note_off_c, 0, 72, 113
1, 90829, Note_on_c, 0, 70, 109
1, 90935, Note_off_c, 0, 70, 109
1, 90943, Note_on_c, 0, 67, 115
1, 91032, Note_off_c, 0, 67, 115
1, 91038, Note_on_c, 0, 65, 105
1, 91124, Note_off_c, 0, 65, 105
1, 91152, Note_on_c, 0, 63, 104
1, 91218, Note_off_c, 0, 63, 104
1, 91220, Note_on_c, 0, 67, 107
1, 91314, Note_off_c, 0, 67, 107
1, 91323, Note_on_c, 0, 70, 106
1, 91374, Note_off_c, 0, 70, 106
1, 91386, Note_on_c, 0, 64, 110
1, 91488, Note_off_c, 0, 64, 110
1, 91773, Note_on_c, 0, 71, 118
1, 91890, Note_off_c, 0, 71, 118
1, 91890, Note_on_c, 0, 69, 114
1, 91975, Note_off_c, 0, 69, 114
1, 91980, Note_on_c, 0, 66, 107
1, 92044, Note_off_c, 0, 66, 107
1, 92085, Note_on_c, 0, 64, 120
1, 92176, Note_off_c, 0, 64, 120
1, 92178, Note_on_c, 0, 62, 116
1, 92245, Note_off_c, 0, 62, 116
1, 92267, Note_on_c, 0, 64, 115
1, 92373, Note_off_c, 0, 64, 115
1, 92374, Note_on_c, 0, 66, 104
1, 92449, Note_off_c, 0, 66, 104
1, 92454, Note_on_c, 0, 69, 111
1, 92543, Note_off_c, 0, 69, 111
1, 92576, Note_on_c, 0, 62, 111
1, 92646, Note_off_c, 0, 62, 111
1, 92670, Note_on_c, 0, 65, 104
1, 92737, Note_off_c, 0, 65, 104
1, 92753, Note_on_c, 0, 68, 105
1, 92853, Note_off_c, 0, 68, 105
1, 92853, Note_on_c, 0, 72, 112
1, 92927, Note_off_c, 0, 72, 112
1, 92935, Note_on_c, 0, 63, 112
1, 93029, Note_off_c, 0, 63, 112
1, 93037, Note_on_c, 0, 65, 103
1, 93123, Note_off_c, 0, 65, 103
1, 93154, Note_on_c, 0, 67, 97
1, 93210, Note_off_c, 0, 67, 97
1, 93210, Note_on_c, 0, 70, 112
1, 93295, Note_off_c, 0, 70, 112
1, 93296, Note_on_c, 0, 64, 106
1, 93394, Note_off_c, 0, 64, 106
1, 93396, Note_on_c, 0, 66, 103
1, 93490, Note_off_c, 0, 66, 103
1, 93494, Note_on_c, 0, 68, 91
1, 93572, Note_off_c, 0, 68, 91
1, 93593, Note_on_c, 0, 70, 100
1, 93657, Note_off_c, 0, 70, 100
1, 93661, Note_on_c, 0, 73, 113
1, 93815, Note_off_c, 0, 73, 113
1, 93878, Note_on_c, 0, 70, 113
1, 93991, Note_off_c, 0, 70, 113
1, 93991, Note_on_c, 0, 68, 111
1, 94070, Note_off_c, 0, 68, 111
1, 94075, Note_on_c, 0, 66, 103
1, 94176, Note_off_c, 0, 66, 103
1, 94200, Note_on_c, 0, 63, 115
1, 94255, Note_off_c, 0, 63, 115
1, 94267, Note_on_c, 0, 59, 99
1, 94338, Note_off_c, 0, 59, 99
1, 94483, Note_on_c, 0, 67, 111
1, 94558, Note_off_c, 0, 67, 111
1, 94562, Note_on_c, 0, 68, 110
1, 94625, Note_off_c, 0, 68, 110
1, 94629, Note_on_c, 0, 67, 110
1, 94696, Note_off_c, 0, 67, 110
1, 94714, Note_on_c, 0, 65, 101
1, 94781, Note_off_c, 0, 65, 101
1, 94789, Note_on_c, 0, 63, 116
1, 94878, Note_off_c, 0, 63, 116
1, 94891, Note_on_c, 0, 62, 114
1, 94968, Note_off_c, 0, 62, 114
1, 94981, Note_on_c, 0, 60, 106
1, 95051, Note_off_c, 0, 60, 106
1, 95079, Note_on_c, 0, 58, 107
1, 95142, Note_off_c, 0, 58, 107
1, 95152, Note_on_c, 0, 56, 109
1, 95246, Note_off_c, 0, 56, 109
1, 95266, Note_on_c, 0, 55, 106
1, 95348, Note_off_c, 0, 55, 106
1, 95353, Note_on_c, 0, 58, 109
1, 95440, Note_off_c, 0, 58, 109
1, 95454, Note_on_c, 0, 60, 102
1, 95539, Note_off_c, 0, 60, 102
1, 95555, Note_on_c, 0, 62, 101
1, 95609, Note_off_c, 0, 62, 101
1, 95614, Note_on_c, 0, 65, 109
1, 95724, Note_off_c, 0, 65, 109
1, 95733, Note_on_c, 0, 63, 109
1, 95814, Note_off_c, 0, 63, 109
1, 95820, Note_on_c, 0, 67, 117
1, 95925, Note_off_c, 0, 67, 117
1, 95954, Note_on_c, 0, 67, 115
1, 96013, Note_off_c, 0, 67, 115
1, 96410, Note_on_c, 0, 67, 121
1, 96550, Note_off_c, 0, 67, 121
1, 96629, Note_on_c, 0, 66, 110
1, 96699, Note_off_c, 0, 66, 110
1, 96701, Note_on_c, 0, 69, 114
1, 96784, Note_off_c, 0, 69, 114
1, 96791, Note_on_c, 0, 67, 115
1, 96895, Note_off_c, 0, 67, 115
1, 96912, Note_on_c, 0, 62, 112
1, 96987, Note_off_c, 0, 62, 112
1, 97018, Note_on_c, 0, 59, 100
1, 97092, Note_off_c, 0, 59, 100
1, 97119, Note_on_c, 0, 55, 97
1, 97190, Note_off_c, 0, 55, 97
1, 97213, Note_on_c, 0, 62, 114
1, 97325, Note_off_c, 0, 62, 114
1, 97575, Note_on_c, 0, 63, 117
1, 97739, Note_off_c, 0, 63, 117
1, 97775, Note_on_c, 0, 59, 113
1, 97852, Note_off_c, 0, 59, 113
1, 97922, Note_on_c, 0, 54, 96
1, 97996, Note_off_c, 0, 54, 96
1, 98007, Note_on_c, 0, 58, 104
1, 98315, Note_off_c, 0, 58, 104
1, 98328, Note_on_c, 0, 54, 98
1, 98390, Note_off_c, 0, 54, 98
1, 98390, Note_on_c, 0, 59, 108
1, 98490, Note_off_c, 0, 59, 108
1, 98500, Note_on_c, 0, 61, 108
1, 98612, Note_off_c, 0, 61, 108
1, 98623, Note_on_c, 0, 63, 103
1, 98704, Note_off_c, 0, 63, 103
1, 98705, Note_on_c, 0, 66, 100
1, 98755, Note_off_c, 0, 66, 100
1, 98763, Note_on_c, 0, 69, 114
1, 98880, Note_off_c, 0, 69, 114
1, 98886, Note_on_c, 0, 69, 112
1, 98968, Note_off_c, 0, 69, 112
1, 98981, Note_on_c, 0, 67, 105
1, 99060, Note_off_c, 0, 67, 105
1, 99074, Note_on_c, 0, 67, 114
1, 99156, Note_off_c, 0, 67, 114
1, 99161, Note_on_c, 0, 65, 109
1, 99220, Note_off_c, 0, 65, 109
1, 99232, Note_on_c, 0, 67, 113
1, 99321, Note_off_c, 0, 67, 113
1, 99323, Note_on_c, 0, 68, 116
1, 99431, Note_off_c, 0, 68, 116
1, 99464, Note_on_c, 0, 65, 101
1, 99520, Note_off_c, 0, 65, 101
1, 99528, Note_on_c, 0, 69, 114
1, 99638, Note_off_c, 0, 69, 114
1, 99646, Note_on_c, 0, 66, 110
1, 99709, Note_off_c, 0, 66, 110
1, 99736, Note_on_c, 0, 62, 115
1, 99818, Note_off_c, 0, 62, 115
1, 99859, Note_on_c, 0, 58, 96
1, 99911, Note_off_c, 0, 58, 96
1, 99921, Note_on_c, 0, 67, 115
1, 100015, Note_off_c, 0, 67, 115
1, 100039, Note_on_c, 0, 63, 118
1, 100126, Note_off_c, 0, 63, 118
1, 100134, Note_on_c, 0, 62, 112
1, 100196, Note_off_c, 0, 62, 112
1, 100218, Note_on_c, 0, 65, 109
1, 100292, Note_off_c, 0, 65, 109
1, 100292, Note_on_c, 0, 63, 116
1, 100404, Note_off_c, 0, 63, 116
1, 100975, Note_on_c, 0, 65, 103
1, 101035, Note_off_c, 0, 65, 103
1, 101045, Note_on_c, 0, 66, 110
1, 101463, Note_off_c, 0, 66, 110
1, 101514, Note_on_c, 0, 59, 107
1, 101574, Note_off_c, 0, 59, 107
1, 101586, Note_on_c, 0, 61, 109
1, 101680, Note_off_c, 0, 61, 109
1, 101694, Note_on_c, 0, 63, 112
1, 101772, Note_off_c, 0, 63, 112
1, 101784, Note_on_c, 0, 66, 112
1, 101856, Note_off_c, 0, 66, 112
1, 101889, Note_on_c, 0, 62, 114
1, 101979, Note_off_c, 0, 62, 114
1, 101987, Note_on_c, 0, 64, 114
1, 102065, Note_off_c, 0, 64, 114
1, 102074, Note_on_c, 0, 66, 107
1, 102153, Note_off_c, 0, 66, 107
1, 102158, Note_on_c, 0, 69, 113
1, 102255, Note_off_c, 0, 69, 113
1, 102260, Note_on_c, 0, 62, 110
1, 102531, Note_off_c, 0, 62, 110
1, 102552, Note_on_c, 0, 67, 108
1, 102595, Note_off_c, 0, 67, 108
1, 102610, Note_on_c, 0, 71, 118
1, 102664, Note_off_c, 0, 71, 118
1, 102670, Note_on_c, 0, 68, 117
1, 102874, Note_off_c, 0, 68, 117
1, 102882, Note_on_c, 0, 72, 116
1, 102933, Note_off_c, 0, 72, 116
1, 102948, Note_on_c, 0, 70, 120
1, 103334, Note_off_c, 0, 70, 120
1, 103346, Note_on_c, 0, 67, 114
1, 103439, Note_off_c, 0, 67, 114
1, 103455, Note_on_c, 0, 65, 109
1, 103518, Note_off_c, 0, 65, 109
1, 103521, Note_on_c, 0, 63, 116
1, 103633, Note_off_c, 0, 63, 116
1, 103901, Note_on_c, 0, 57, 104
1, 103952, Note_off_c, 0, 57, 104
1, 104156, Note_on_c, 0, 67, 101
1, 104197, Note_off_c, 0, 67, 101
1, 104213, Note_on_c, 0, 71, 118
1, 104299, Note_off_c, 0, 71, 118
1, 104430, Note_on_c, 0, 62, 111
1, 104489, Note_off_c, 0, 62, 111
1, 104624, Note_on_c, 0, 67, 116
1, 104705, Note_off_c, 0, 67, 116
1, 104719, Note_on_c, 0, 69, 116
1, 104778, Note_off_c, 0, 69, 116
1, 104790, Note_on_c, 0, 71, 113
1, 104867, Note_off_c, 0, 71, 113
1, 104891, Note_on_c, 0, 74, 98
1, 104924, Note_off_c, 0, 74, 98
1, 104931, Note_on_c, 0, 71, 116
1, 104976, Note_off_c, 0, 71, 116
1, 104987, Note_on_c, 0, 70, 114
1, 105107, Note_off_c, 0, 70, 114
1, 105109, Note_on_c, 0, 69, 113
1, 105211, Note_off_c, 0, 69, 113
1, 105216, Note_on_c, 0, 68, 113
1, 105283, Note_off_c, 0, 68, 113
1, 105283, Note_on_c, 0, 72, 106
1, 105350, Note_off_c, 0, 72, 106
1, 105372, Note_on_c, 0, 70, 112
1, 105462, Note_off_c, 0, 70, 112
1, 105472, Note_on_c, 0, 67, 113
1, 105557, Note_off_c, 0, 67, 113
1, 105594, Note_on_c, 0, 65, 106
1, 105662, Note_off_c, 0, 65, 106
1, 105662, Note_on_c, 0, 63, 103
1, 105739, Note_off_c, 0, 63, 103
1, 105741, Note_on_c, 0, 64, 114
1, 105830, Note_off_c, 0, 64, 114
1, 105852, Note_on_c, 0, 66, 106
1, 105922, Note_off_c, 0, 66, 106
1, 105927, Note_on_c, 0, 68, 106
1, 105989, Note_off_c, 0, 68, 106
1, 106028, Note_on_c, 0, 70, 102
1, 106092, Note_off_c, 0, 70, 102
1, 106108, Note_on_c, 0, 73, 112
1, 106217, Note_off_c, 0, 73, 112
1, 106222, Note_on_c, 0, 70, 112
1, 106303, Note_off_c, 0, 70, 112
1, 106316, Note_on_c, 0, 68, 108
1, 106407, Note_off_c, 0, 68, 108
1, 106421, Note_on_c, 0, 66, 108
1, 106496, Note_off_c, 0, 66, 108
1, 106496, Note_on_c, 0, 63, 112
1, 106621, Note_off_c, 0, 63, 112
1, 106629, Note_on_c, 0, 61, 106
1, 106700, Note_off_c, 0, 61, 106
1, 106709, Note_on_c, 0, 59, 98
1, 106794, Note_off_c, 0, 59, 98
1, 106841, Note_on_c, 0, 55, 96
1, 106895, Note_off_c, 0, 55, 96
1, 106935, Note_on_c, 0, 60, 109
1, 107005, Note_off_c, 0, 60, 109
1, 107010, Note_on_c, 0, 62, 111
1, 107068, Note_off_c, 0, 62, 111
1, 107078, Note_on_c, 0, 63, 114
1, 107202, Note_off_c, 0, 63, 114
1, 107211, Note_on_c, 0, 67, 110
1, 107274, Note_off_c, 0, 67, 110
1, 107276, Note_on_c, 0, 65, 103
1, 107465, Note_off_c, 0, 65, 103
1, 107760, Note_on_c, 0, 68, 120
1, 107851, Note_off_c, 0, 68, 120
1, 107860, Note_on_c, 0, 67, 114
1, 107943, Note_off_c, 0, 67, 114
1, 107960, Note_on_c, 0, 62, 103
1, 108016, Note_off_c, 0, 62, 103
1, 108033, Note_on_c, 0, 65, 108
1, 108126, Note_off_c, 0, 65, 108
1, 108139, Note_on_c, 0, 63, 119
1, 108229, Note_off_c, 0, 63, 119
1, 108242, Note_on_c, 0, 62, 112
1, 108328, Note_off_c, 0, 62, 112
1, 108345, Note_on_c, 0, 60, 96
1, 108384, Note_off_c, 0, 60, 96
1, 108406, Note_on_c, 0, 64, 117
1, 108500, Note_off_c, 0, 64, 117
1, 108556, Note_on_c, 0, 68, 95
1, 108610, Note_off_c, 0, 68, 95
1, 108623, Note_on_c, 0, 67, 93
1, 108679, Note_off_c, 0, 67, 93
1, 108810, Note_on_c, 0, 71, 119
1, 108891, Note_off_c, 0, 71, 119
1, 108907, Note_on_c, 0, 69, 115
1, 108977, Note_off_c, 0, 69, 115
1, 108978, Note_on_c, 0, 66, 106
1, 109055, Note_off_c, 0, 66, 106
1, 109099, Note_on_c, 0, 64, 114
1, 109180, Note_off_c, 0, 64, 114
1, 109185, Note_on_c, 0, 62, 113
1, 109244, Note_off_c, 0, 62, 113
1, 109256, Note_on_c, 0, 64, 114
1, 109326, Note_off_c, 0, 64, 114
1, 109331, Note_on_c, 0, 66, 105
1, 109381, Note_off_c, 0, 66, 105
1, 109400, Note_on_c, 0, 69, 107
1, 109467, Note_off_c, 0, 69, 107
1, 109490, Note_on_c, 0, 69, 113
1, 109550, Note_off_c, 0, 69, 113
1, 109556, Note_on_c, 0, 67, 107
1, 109660, Note_off_c, 0, 67, 107
1, 109681, Note_on_c, 0, 62, 112
1, 109732, Note_off_c, 0, 62, 112
1, 109773, Note_on_c, 0, 59, 98
1, 109847, Note_off_c, 0, 59, 98
1, 109869, Note_on_c, 0, 56, 104
1, 109933, Note_off_c, 0, 56, 104
1, 109964, Note_on_c, 0, 64, 102
1, 110010, Note_off_c, 0, 64, 102
1, 110336, Note_on_c, 0, 63, 122
1, 110615, Note_off_c, 0, 63, 122
1, 110654, Note_on_c, 0, 58, 9
1, 110963, Note_off_c, 0, 58, 9
1, 110981, Note_on_c, 0, 54, 107
1, 111041, Note_off_c, 0, 54, 107
1, 111065, Note_on_c, 0, 59, 107
1, 111154, Note_off_c, 0, 59, 107
1, 111169, Note_on_c, 0, 61, 113
1, 111243, Note_off_c, 0, 61, 113
1, 111260, Note_on_c, 0, 63, 106
1, 111349, Note_off_c, 0, 63, 106
1, 111362, Note_on_c, 0, 66, 104
1, 111434, Note_off_c, 0, 66, 104
1, 111453, Note_on_c, 0, 69, 121
1, 111561, Note_off_c, 0, 69, 121
1, 111562, Note_on_c, 0, 68, 115
1, 111601, Note_off_c, 0, 68, 115
1, 111612, Note_on_c, 0, 67, 116
1, 111726, Note_off_c, 0, 67, 116
1, 111739, Note_on_c, 0, 66, 112
1, 111826, Note_off_c, 0, 66, 112
1, 111848, Note_on_c, 0, 65, 109
1, 111937, Note_off_c, 0, 65, 109
1, 111937, Note_on_c, 0, 63, 120
1, 112018, Note_off_c, 0, 63, 120
1, 112023, Note_on_c, 0, 62, 110
1, 112106, Note_off_c, 0, 62, 110
1, 112113, Note_on_c, 0, 60, 107
1, 112183, Note_off_c, 0, 60, 107
1, 112190, Note_on_c, 0, 58, 107
1, 112283, Note_off_c, 0, 58, 107
1, 112300, Note_on_c, 0, 68, 115
1, 112366, Note_off_c, 0, 68, 115
1, 112371, Note_on_c, 0, 67, 109
1, 112467, Note_off_c, 0, 67, 109
1, 112484, Note_on_c, 0, 62, 104
1, 112554, Note_off_c, 0, 62, 104
1, 112565, Note_on_c, 0, 65, 107
1, 112682, Note_off_c, 0, 65, 107
1, 112683, Note_on_c, 0, 63, 115
1, 112751, Note_off_c, 0, 63, 115
1, 112762, Note_on_c, 0, 62, 107
1, 112858, Note_off_c, 0, 62, 107
1, 112899, Note_on_c, 0, 60, 102
1, 112953, Note_off_c, 0, 60, 102
1, 112965, Note_on_c, 0, 63, 116
1, 113044, Note_off_c, 0, 63, 116
1, 113061, Note_on_c, 0, 59, 107
1, 113129, Note_off_c, 0, 59, 107
1, 113140, Note_on_c, 0, 56, 111
1, 113210, Note_off_c, 0, 56, 111
1, 113268, Note_on_c, 0, 52, 94
1, 113309, Note_off_c, 0, 52, 94
1, 113340, Note_on_c, 0, 58, 106
1, 113642, Note_off_c, 0, 58, 106
1, 113657, Note_on_c, 0, 54, 94
1, 113725, Note_off_c, 0, 54, 94
1, 113730, Note_on_c, 0, 59, 109
1, 113802, Note_off_c, 0, 59, 109
1, 113818, Note_on_c, 0, 61, 107
1, 113886, Note_off_c, 0, 61, 107
1, 113906, Note_on_c, 0, 63, 114
1, 113985, Note_off_c, 0, 63, 114
1, 114018, Note_on_c, 0, 66, 110
1, 114095, Note_off_c, 0, 66, 110
1, 114123, Note_on_c, 0, 62, 115
1, 114195, Note_off_c, 0, 62, 115
1, 114208, Note_on_c, 0, 64, 121
1, 114289, Note_off_c, 0, 64, 121
1, 114304, Note_on_c, 0, 66, 105
1, 114370, Note_off_c, 0, 66, 105
1, 114392, Note_on_c, 0, 69, 119
1, 114481, Note_off_c, 0, 69, 119
1, 114486, Note_on_c, 0, 67, 116
1, 114533, Note_off_c, 0, 67, 116
1, 114942, Note_on_c, 0, 70, 100
1, 115032, Note_off_c, 0, 70, 100
1, 115058, Note_on_c, 0, 74, 114
1, 115199, Note_off_c, 0, 74, 114
1, 115234, Note_on_c, 0, 71, 126
1, 115277, Note_off_c, 0, 71, 126
1, 115289, Note_on_c, 0, 70, 121
1, 115361, Note_off_c, 0, 70, 121
1, 115367, Note_on_c, 0, 68, 121
1, 115450, Note_off_c, 0, 68, 121
1, 115462, Note_on_c, 0, 67, 116
1, 115530, Note_off_c, 0, 67, 116
1, 115539, Note_on_c, 0, 65, 113
1, 115626, Note_off_c, 0, 65, 113
1, 115637, Note_on_c, 0, 63, 119
1, 115709, Note_off_c, 0, 63, 119
1, 115735, Note_on_c, 0, 65, 110
1, 115820, Note_off_c, 0, 65, 110
1, 115857, Note_on_c, 0, 67, 103
1, 115912, Note_off_c, 0, 67, 103
1, 115926, Note_on_c, 0, 70, 103
1, 115980, Note_off_c, 0, 70, 103
1, 115998, Note_on_c, 0, 75, 109
1, 116114, Note_off_c, 0, 75, 109
1, 116403, Note_on_c, 0, 72, 102
1, 116527, Note_off_c, 0, 72, 102
1, 116534, Note_on_c, 0, 74, 114
1, 116646, Note_off_c, 0, 74, 114
1, 116703, Note_on_c, 0, 73, 119
1, 116748, Note_off_c, 0, 73, 119
1, 116759, Note_on_c, 0, 71, 121
1, 116839, Note_off_c, 0, 71, 121
1, 116931, Note_on_c, 0, 62, 106
1, 116968, Note_off_c, 0, 62, 106
1, 116972, Note_on_c, 0, 67, 118
1, 117049, Note_off_c, 0, 67, 118
1, 117071, Note_on_c, 0, 71, 122
1, 117141, Note_off_c, 0, 71, 122
1, 117165, Note_on_c, 0, 68, 119
1, 117248, Note_off_c, 0, 68, 119
1, 117256, Note_on_c, 0, 72, 121
1, 117318, Note_off_c, 0, 72, 121
1, 117351, Note_on_c, 0, 70, 116
1, 117432, Note_off_c, 0, 70, 116
1, 117442, Note_on_c, 0, 68, 116
1, 117514, Note_off_c, 0, 68, 116
1, 117531, Note_on_c, 0, 67, 114
1, 117622, Note_off_c, 0, 67, 114
1, 117938, Note_on_c, 0, 64, 116
1, 118008, Note_off_c, 0, 64, 116
1, 118035, Note_on_c, 0, 66, 107
1, 118107, Note_off_c, 0, 66, 107
1, 118112, Note_on_c, 0, 68, 102
1, 118210, Note_off_c, 0, 68, 102
1, 118214, Note_on_c, 0, 70, 104
1, 118291, Note_off_c, 0, 70, 104
1, 118303, Note_on_c, 0, 73, 118
1, 118392, Note_off_c, 0, 73, 118
1, 118417, Note_on_c, 0, 70, 114
1, 118491, Note_off_c, 0, 70, 114
1, 118511, Note_on_c, 0, 68, 110
1, 118571, Note_off_c, 0, 68, 110
1, 118598, Note_on_c, 0, 66, 111
1, 118676, Note_off_c, 0, 66, 111
1, 118705, Note_on_c, 0, 63, 113
1, 118799, Note_off_c, 0, 63, 113
1, 118823, Note_on_c, 0, 59, 92
1, 118927, Note_off_c, 0, 59, 92
1, 119063, Note_on_c, 0, 63, 118
1, 119142, Note_off_c, 0, 63, 118
1, 119159, Note_on_c, 0, 65, 107
1, 119230, Note_off_c, 0, 65, 107
1, 119261, Note_on_c, 0, 67, 110
1, 119336, Note_off_c, 0, 67, 110
1, 119388, Note_on_c, 0, 65, 92
1, 119428, Note_off_c, 0, 65, 92
1, 119465, Note_on_c, 0, 69, 118
1, 119536, Note_off_c, 0, 69, 118
1, 119568, Note_on_c, 0, 66, 108
1, 119632, Note_off_c, 0, 66, 108
1, 119663, Note_on_c, 0, 62, 107
1, 119730, Note_off_c, 0, 62, 107
1, 119752, Note_on_c, 0, 60, 108
1, 119810, Note_off_c, 0, 60, 108
1, 119843, Note_on_c, 0, 58, 112
1, 119893, Note_off_c, 0, 58, 112
1, 119914, Note_on_c, 0, 67, 111
1, 119978, Note_off_c, 0, 67, 111
1, 120006, Note_on_c, 0, 68, 110
1, 120066, Note_off_c, 0, 68, 110
1, 120125, Note_on_c, 0, 65, 108
1, 120189, Note_off_c, 0, 65, 108
1, 120193, Note_on_c, 0, 63, 120
1, 120293, Note_off_c, 0, 63, 120
1, 120294, Note_on_c, 0, 65, 102
1, 120369, Note_off_c, 0, 65, 102
1, 120370, Note_on_c, 0, 67, 101
1, 120437, Note_off_c, 0, 67, 101
1, 120481, Note_on_c, 0, 70, 105
1, 120568, Note_off_c, 0, 70, 105
1, 120573, Note_on_c, 0, 71, 120
1, 120670, Note_off_c, 0, 71, 120
1, 120676, Note_on_c, 0, 69, 118
1, 120758, Note_off_c, 0, 69, 118
1, 120764, Note_on_c, 0, 67, 111
1, 120850, Note_off_c, 0, 67, 111
1, 120862, Note_on_c, 0, 66, 113
1, 120949, Note_off_c, 0, 66, 113
1, 121042, Note_on_c, 0, 64, 119
1, 121119, Note_off_c, 0, 64, 119
1, 121128, Note_on_c, 0, 62, 114
1, 121209, Note_off_c, 0, 62, 114
1, 121236, Note_on_c, 0, 60, 108
1, 121299, Note_off_c, 0, 60, 108
1, 121321, Note_on_c, 0, 59, 111
1, 121389, Note_off_c, 0, 59, 111
1, 121426, Note_on_c, 0, 62, 112
1, 121484, Note_off_c, 0, 62, 112
1, 121527, Note_on_c, 0, 67, 105
1, 121594, Note_off_c, 0, 67, 105
1, 121615, Note_on_c, 0, 69, 101
1, 121702, Note_off_c, 0, 69, 101
1, 121707, Note_on_c, 0, 71, 118
1, 121802, Note_off_c, 0, 71, 118
1, 121865, Note_on_c, 0, 67, 111
1, 121912, Note_off_c, 0, 67, 111
1, 121918, Note_on_c, 0, 69, 107
1, 121966, Note_off_c, 0, 69, 107
1, 121975, Note_on_c, 0, 71, 121
1, 122062, Note_off_c, 0, 71, 121
1, 122067, Note_on_c, 0, 70, 116
1, 122149, Note_off_c, 0, 70, 116
1, 122488, Note_on_c, 0, 71, 112
1, 122519, Note_off_c, 0, 71, 112
1, 122525, Note_on_c, 0, 73, 121
1, 122852, Note_off_c, 0, 73, 121
1, 122855, Note_on_c, 0, 70, 122
1, 123113, Note_off_c, 0, 70, 122
1, 123129, Note_on_c, 0, 73, 117
1, 123177, Note_off_c, 0, 73, 117
1, 123194, Note_on_c, 0, 70, 120
1, 123295, Note_off_c, 0, 70, 120
1, 123327, Note_on_c, 0, 66, 114
1, 123399, Note_off_c, 0, 66, 114
1, 123409, Note_on_c, 0, 63, 119
1, 123521, Note_off_c, 0, 63, 119
1, 123530, Note_on_c, 0, 59, 90
1, 123585, Note_off_c, 0, 59, 90
1, 123599, Note_on_c, 0, 60, 108
1, 123690, Note_off_c, 0, 60, 108
1, 123699, Note_on_c, 0, 62, 113
1, 123781, Note_off_c, 0, 62, 113
1, 123801, Note_on_c, 0, 63, 111
1, 123890, Note_off_c, 0, 63, 111
1, 123899, Note_on_c, 0, 65, 101
1, 123966, Note_off_c, 0, 65, 101
1, 123972, Note_on_c, 0, 67, 116
1, 124042, Note_off_c, 0, 67, 116
1, 124073, Note_on_c, 0, 65, 113
1, 124124, Note_off_c, 0, 65, 113
1, 124137, Note_on_c, 0, 62, 113
1, 124254, Note_off_c, 0, 62, 113
1, 124264, Note_on_c, 0, 60, 107
1, 124336, Note_off_c, 0, 60, 107
1, 124354, Note_on_c, 0, 58, 105
1, 124439, Note_off_c, 0, 58, 105
1, 124439, Note_on_c, 0, 63, 115
1, 124530, Note_off_c, 0, 63, 115
1, 124596, Note_on_c, 0, 67, 104
1, 124655, Note_off_c, 0, 67, 104
1, 124655, Note_on_c, 0, 70, 94
1, 124702, Note_off_c, 0, 70, 94
1, 124702, Note_on_c, 0, 75, 119
1, 124952, Note_off_c, 0, 75, 119
1, 124956, Note_on_c, 0, 70, 111
1, 125037, Note_off_c, 0, 70, 111
1, 125049, Note_on_c, 0, 72, 123
1, 125159, Note_off_c, 0, 72, 123
1, 125225, Note_on_c, 0, 70, 115
1, 125669, Note_off_c, 0, 70, 115
1, 126040, Note_on_c, 0, 71, 109
1, 126081, Note_off_c, 0, 71, 109
1, 126089, Note_on_c, 0, 73, 118
1, 126326, Note_off_c, 0, 73, 118
1, 126338, Note_on_c, 0, 74, 121
1, 126542, Note_off_c, 0, 74, 121
1, 126619, Note_on_c, 0, 71, 122
1, 126729, Note_off_c, 0, 71, 122
1, 126829, Note_on_c, 0, 72, 123
1, 126916, Note_off_c, 0, 72, 123
1, 126926, Note_on_c, 0, 71, 123
1, 127007, Note_off_c, 0, 71, 123
1, 127019, Note_on_c, 0, 67, 109
1, 127089, Note_off_c, 0, 67, 109
1, 127091, Note_on_c, 0, 69, 119
1, 127174, Note_off_c, 0, 69, 119
1, 127174, Note_on_c, 0, 72, 119
1, 127236, Note_off_c, 0, 72, 119
1, 127263, Note_on_c, 0, 70, 116
1, 127395, Note_off_c, 0, 70, 116
1, 127727, Note_on_c, 0, 71, 104
1, 127816, Note_off_c, 0, 71, 104
1, 127830, Note_on_c, 0, 74, 109
1, 128120, Note_off_c, 0, 74, 109
1, 128130, Note_on_c, 0, 72, 114
1, 128193, Note_off_c, 0, 72, 114
1, 128214, Note_on_c, 0, 70, 116
1, 128328, Note_off_c, 0, 70, 116
1, 128338, Note_on_c, 0, 67, 112
1, 128425, Note_off_c, 0, 67, 112
1, 128438, Note_on_c, 0, 63, 105
1, 128521, Note_off_c, 0, 63, 105
1, 128621, Note_on_c, 0, 72, 105
1, 128710, Note_off_c, 0, 72, 105
1, 128715, Note_on_c, 0, 74, 119
1, 128867, Note_off_c, 0, 74, 119
1, 128871, Note_on_c, 0, 73, 118
1, 128921, Note_off_c, 0, 73, 118
1, 128925, Note_on_c, 0, 71, 121
1, 129014, Note_off_c, 0, 71, 121
1, 129142, Note_on_c, 0, 67, 114
1, 129231, Note_off_c, 0, 67, 114
1, 129236, Note_on_c, 0, 71, 119
1, 129298, Note_off_c, 0, 71, 119
1, 129346, Note_on_c, 0, 62, 114
1, 129420, Note_off_c, 0, 62, 114
1, 129482, Note_on_c, 0, 68, 115
1, 129563, Note_off_c, 0, 68, 115
1, 129618, Note_on_c, 0, 72, 116
1, 129674, Note_off_c, 0, 72, 116
1, 129746, Note_on_c, 0, 63, 115
1, 129804, Note_off_c, 0, 63, 115
1, 129805, Note_on_c, 0, 65, 103
1, 129872, Note_off_c, 0, 65, 103
1, 129940, Note_on_c, 0, 67, 100
1, 130007, Note_off_c, 0, 67, 100
1, 130012, Note_on_c, 0, 70, 102
1, 130080, Note_off_c, 0, 70, 102
1, 130086, Note_on_c, 0, 75, 109
1, 130617, Note_off_c, 0, 75, 109
1, 130654, Note_on_c, 0, 73, 118
1, 130740, Note_on_c, 0, 71, 118
1, 130740, Note_off_c, 0, 73, 118
1, 130817, Note_off_c, 0, 71, 118
1, 130818, Note_on_c, 0, 70, 112
1, 130942, Note_off_c, 0, 70, 112
1, 130952, Note_on_c, 0, 66, 110
1, 130997, Note_off_c, 0, 66, 110
1, 131018, Note_on_c, 0, 63, 111
1, 131076, Note_off_c, 0, 63, 111
1, 131225, Note_on_c, 0, 70, 108
1, 131312, Note_off_c, 0, 70, 108
1, 131322, Note_on_c, 0, 74, 113
1, 131423, Note_off_c, 0, 74, 113
1, 131435, Note_on_c, 0, 73, 115
1, 131506, Note_off_c, 0, 73, 115
1, 131516, Note_on_c, 0, 71, 117
1, 131586, Note_off_c, 0, 71, 117
1, 131596, Note_on_c, 0, 70, 104
1, 131656, Note_off_c, 0, 70, 104
1, 131696, Note_on_c, 0, 69, 115
1, 131766, Note_off_c, 0, 69, 115
1, 131788, Note_on_c, 0, 68, 104
1, 131851, Note_off_c, 0, 68, 104
1, 131883, Note_on_c, 0, 67, 112
1, 131965, Note_off_c, 0, 67, 112
1, 131990, Note_on_c, 0, 65, 109
1, 132053, Note_off_c, 0, 65, 109
1, 132061, Note_on_c, 0, 63, 118
1, 132140, Note_off_c, 0, 63, 118
1, 132148, Note_on_c, 0, 62, 111
1, 132237, Note_off_c, 0, 62, 111
1, 132254, Note_on_c, 0, 60, 110
1, 132345, Note_off_c, 0, 60, 110
1, 132358, Note_on_c, 0, 58, 108
1, 132436, Note_off_c, 0, 58, 108
1, 132458, Note_on_c, 0, 60, 108
1, 132521, Note_off_c, 0, 60, 108
1, 132521, Note_on_c, 0, 62, 112
1, 132595, Note_off_c, 0, 62, 112
1, 132627, Note_on_c, 0, 65, 110
1, 132708, Note_off_c, 0, 65, 110
1, 132714, Note_on_c, 0, 64, 112
1, 132789, Note_off_c, 0, 64, 112
1, 132798, Note_on_c, 0, 67, 106
1, 132879, Note_off_c, 0, 67, 106
1, 133106, Note_on_c, 0, 70, 110
1, 133181, Note_off_c, 0, 70, 110
1, 133191, Note_on_c, 0, 74, 115
1, 133388, Note_off_c, 0, 74, 115
1, 133394, Note_on_c, 0, 73, 120
1, 133448, Note_off_c, 0, 73, 120
1, 133453, Note_on_c, 0, 71, 117
1, 133605, Note_off_c, 0, 71, 117
1, 133679, Note_on_c, 0, 66, 110
1, 133757, Note_off_c, 0, 66, 110
1, 133792, Note_on_c, 0, 69, 118
1, 133932, Note_off_c, 0, 69, 118
1, 133957, Note_on_c, 0, 69, 122
1, 134065, Note_off_c, 0, 69, 122
1, 134070, Note_on_c, 0, 67, 113
1, 134165, Note_off_c, 0, 67, 113
1, 134521, Note_on_c, 0, 69, 121
1, 134561, Note_off_c, 0, 69, 121
1, 134565, Note_on_c, 0, 70, 116
1, 134900, Note_off_c, 0, 70, 116
1, 134908, Note_on_c, 0, 66, 104
1, 134986, Note_off_c, 0, 66, 104
1, 134994, Note_on_c, 0, 68, 117
1, 135080, Note_off_c, 0, 68, 117
1, 135090, Note_on_c, 0, 70, 116
1, 135167, Note_off_c, 0, 70, 116
1, 135173, Note_on_c, 0, 66, 108
1, 135247, Note_off_c, 0, 66, 108
1, 135256, Note_on_c, 0, 63, 120
1, 135395, Note_off_c, 0, 63, 120
1, 135432, Note_on_c, 0, 63, 116
1, 135563, Note_off_c, 0, 63, 116
1, 135580, Note_on_c, 0, 59, 96
1, 135650, Note_off_c, 0, 59, 96
1, 135747, Note_on_c, 0, 60, 108
1, 135838, Note_off_c, 0, 60, 108
1, 135846, Note_on_c, 0, 62, 115
1, 135913, Note_off_c, 0, 62, 115
1, 135923, Note_on_c, 0, 63, 118
1, 136037, Note_off_c, 0, 63, 118
1, 136059, Note_on_c, 0, 60, 98
1, 136107, Note_off_c, 0, 60, 98
1, 136107, Note_on_c, 0, 67, 115
1, 136213, Note_off_c, 0, 67, 115
1, 136217, Note_on_c, 0, 65, 109
1, 136285, Note_on_c, 0, 62, 111
1, 136285, Note_off_c, 0, 65, 109
1, 136398, Note_off_c, 0, 62, 111
1, 136410, Note_on_c, 0, 60, 106
1, 136497, Note_off_c, 0, 60, 106
1, 136502, Note_on_c, 0, 58, 109
1, 136572, Note_off_c, 0, 58, 109
1, 136574, Note_on_c, 0, 60, 105
1, 136644, Note_off_c, 0, 60, 105
1, 136649, Note_on_c, 0, 62, 107
1, 136738, Note_off_c, 0, 62, 107
1, 136790, Note_on_c, 0, 65, 109
1, 136856, Note_off_c, 0, 65, 109
1, 136857, Note_on_c, 0, 63, 111
1, 136966, Note_off_c, 0, 63, 111
1, 136995, Note_on_c, 0, 65, 107
1, 137059, Note_off_c, 0, 65, 107
1, 137065, Note_on_c, 0, 63, 111
1, 137105, Note_off_c, 0, 63, 111
1, 137117, Note_on_c, 0, 67, 100
1, 137165, Note_off_c, 0, 67, 100
1, 137187, Note_on_c, 0, 70, 110
1, 137246, Note_off_c, 0, 70, 110
1, 137297, Note_on_c, 0, 63, 119
1, 137368, Note_off_c, 0, 63, 119
1, 137378, Note_on_c, 0, 59, 106
1, 137430, Note_off_c, 0, 59, 106
1, 137458, Note_on_c, 0, 56, 103
1, 137528, Note_off_c, 0, 56, 103
1, 137559, Note_on_c, 0, 54, 94
1, 137606, Note_off_c, 0, 54, 94
1, 137618, Note_on_c, 0, 58, 99
1, 137941, Note_off_c, 0, 58, 99
1, 138005, Note_on_c, 0, 59, 106
1, 138075, Note_off_c, 0, 59, 106
1, 138095, Note_on_c, 0, 61, 104
1, 138189, Note_off_c, 0, 61, 104
1, 138234, Note_on_c, 0, 63, 106
1, 138278, Note_off_c, 0, 63, 106
1, 138311, Note_on_c, 0, 66, 105
1, 138369, Note_off_c, 0, 66, 105
1, 138420, Note_on_c, 0, 62, 104
1, 138525, Note_off_c, 0, 62, 104
1, 138527, Note_on_c, 0, 60, 101
1, 138568, Note_off_c, 0, 60, 101
1, 138605, Note_on_c, 0, 59, 94
1, 138659, Note_off_c, 0, 59, 94
1, 138740, Note_on_c, 0, 62, 104
1, 138806, Note_off_c, 0, 62, 104
1, 138841, Note_on_c, 0, 59, 93
1, 138904, Note_off_c, 0, 59, 93
1, 138972, Note_on_c, 0, 54, 102
1, 139053, Note_off_c, 0, 54, 102
1, 139053, End_track
0, 0, End_of_file
