0, 0, Header, 1, 1, 9240
1, 0, Start_track
1, 0, Title_t, "Melody"
1, 0, Tempo, 731707
1, 0, Key_signature, -3, "major"
1, 0, Time_signature, 4, 2, 24, 8
1, 116989, Note_on_c, 0, 67, 119
1, 119009, Note_off_c, 0, 67, 119
1, 119380, Note_on_c, 0, 65, 123
1, 120905, Note_off_c, 0, 65, 123
1, 121069, Note_on_c, 0, 63, 121
1, 123501, Note_off_c, 0, 63, 121
1, 123665, Note_on_c, 0, 60, 118
1, 126303, Note_off_c, 0, 60, 118
1, 126385, Note_on_c, 0, 56, 112
1, 128158, Note_off_c, 0, 56, 112
1, 128405, Note_on_c, 0, 53, 104
1, 129229, Note_off_c, 0, 53, 104
1, 129517, Note_on_c, 0, 62, 125
1, 131908, Note_off_c, 0, 62, 125
1, 132072, Note_on_c, 0, 60, 116
1, 134504, Note_off_c, 0, 60, 116
1, 135204, Note_on_c, 0, 58, 104
1, 137595, Note_off_c, 0, 58, 104
1, 138790, Note_on_c, 0, 57, 92
1, 139903, Note_on_c, 0, 58, 101
1, 139903, Note_off_c, 0, 57, 92
1, 142170, Note_off_c, 0, 58, 101
1, 142252, Note_on_c, 0, 60, 102
1, 143860, Note_off_c, 0, 60, 102
1, 144024, Note_on_c, 0, 62, 125
1, 146704, Note_off_c, 0, 62, 125
1, 147281, Note_on_c, 0, 63, 107
1, 148765, Note_off_c, 0, 63, 107
1, 148971, Note_on_c, 0, 65, 108
1, 150331, Note_off_c, 0, 65, 108
1, 150660, Note_on_c, 0, 67, 104
1, 152515, Note_off_c, 0, 67, 104
1, 153234, Note_on_c, 0, 68, 119
1, 155579, Note_off_c, 0, 68, 119
1, 155606, Note_on_c, 0, 70, 104
1, 163801, Note_off_c, 0, 70, 104
1, 164141, Note_on_c, 0, 67, 108
1, 166285, Note_off_c, 0, 67, 108
1, 166738, Note_on_c, 0, 65, 108
1, 168428, Note_off_c, 0, 65, 108
1, 168592, Note_on_c, 0, 63, 108
1, 170901, Note_off_c, 0, 63, 108
1, 171993, Note_on_c, 0, 61, 110
1, 179518, Note_off_c, 0, 61, 110
1, 191847, Note_on_c, 0, 67, 118
1, 193661, Note_off_c, 0, 67, 118
1, 193825, Note_on_c, 0, 68, 124
1, 195927, Note_off_c, 0, 68, 124
1, 195927, Note_on_c, 0, 67, 114
1, 196669, Note_off_c, 0, 67, 114
1, 197400, Note_on_c, 0, 65, 114
1, 198997, Note_off_c, 0, 65, 114
1, 199203, Note_on_c, 0, 64, 125
1, 201213, Note_off_c, 0, 64, 125
1, 201470, Note_on_c, 0, 60, 109
1, 203480, Note_off_c, 0, 60, 109
1, 204294, Note_on_c, 0, 62, 124
1, 206479, Note_off_c, 0, 62, 124
1, 206984, Note_on_c, 0, 64, 121
1, 208994, Note_off_c, 0, 64, 121
1, 209200, Note_on_c, 0, 64, 116
1, 211206, Note_off_c, 0, 64, 116
1, 211206, Note_on_c, 0, 65, 110
1, 213185, Note_off_c, 0, 65, 110
1, 213776, Note_on_c, 0, 60, 109
1, 217198, Note_off_c, 0, 60, 109
1, 217280, Note_on_c, 0, 58, 97
1, 219465, Note_off_c, 0, 58, 97
1, 219877, Note_on_c, 0, 56, 105
1, 221361, Note_off_c, 0, 56, 105
1, 221484, Note_on_c, 0, 59, 99
1, 222349, Note_off_c, 0, 59, 99
1, 222555, Note_on_c, 0, 60, 93
1, 227791, Note_off_c, 0, 60, 93
1, 227955, Note_on_c, 0, 56, 106
1, 230429, Note_off_c, 0, 56, 106
1, 230470, Note_on_c, 0, 55, 95
1, 232119, Note_off_c, 0, 55, 95
1, 232325, Note_on_c, 0, 53, 106
1, 233891, Note_off_c, 0, 53, 106
1, 234097, Note_on_c, 0, 58, 97
1, 236282, Note_off_c, 0, 58, 97
1, 236854, Note_on_c, 0, 56, 96
1, 243121, Note_off_c, 0, 56, 96
1, 252073, Note_on_c, 0, 59, 106
1, 254217, Note_off_c, 0, 59, 106
1, 254340, Note_on_c, 0, 58, 105
1, 255329, Note_off_c, 0, 58, 105
1, 255535, Note_on_c, 0, 59, 98
1, 256483, Note_off_c, 0, 59, 98
1, 256524, Note_on_c, 0, 61, 115
1, 258874, Note_off_c, 0, 61, 115
1, 258997, Note_on_c, 0, 63, 105
1, 259533, Note_off_c, 0, 63, 105
1, 259697, Note_on_c, 0, 66, 94
1, 260315, Note_off_c, 0, 66, 94
1, 260438, Note_on_c, 0, 70, 91
1, 261056, Note_off_c, 0, 70, 91
1, 261097, Note_on_c, 0, 73, 101
1, 263983, Note_off_c, 0, 73, 101
1, 266168, Note_on_c, 0, 71, 104
1, 267776, Note_off_c, 0, 71, 104
1, 267776, Note_on_c, 0, 70, 109
1, 270043, Note_off_c, 0, 70, 109
1, 270249, Note_on_c, 0, 68, 115
1, 273176, Note_off_c, 0, 68, 115
1, 273217, Note_on_c, 0, 66, 103
1, 275072, Note_off_c, 0, 66, 103
1, 275113, Note_on_c, 0, 63, 110
1, 277463, Note_off_c, 0, 63, 110
1, 277885, Note_on_c, 0, 61, 116
1, 280771, Note_off_c, 0, 61, 116
1, 281286, Note_on_c, 0, 59, 100
1, 284790, Note_off_c, 0, 59, 100
1, 289006, Note_on_c, 0, 58, 100
1, 291315, Note_off_c, 0, 58, 100
1, 291479, Note_on_c, 0, 59, 94
1, 293293, Note_off_c, 0, 59, 94
1, 295272, Note_on_c, 0, 63, 112
1, 298034, Note_off_c, 0, 63, 112
1, 298281, Note_on_c, 0, 66, 106
1, 300919, Note_off_c, 0, 66, 106
1, 301083, Note_on_c, 0, 68, 103
1, 301990, Note_off_c, 0, 68, 103
1, 302402, Note_on_c, 0, 70, 107
1, 306690, Note_off_c, 0, 70, 107
1, 306854, Note_on_c, 0, 68, 108
1, 308792, Note_off_c, 0, 68, 108
1, 310853, Note_on_c, 0, 63, 108
1, 313491, Note_off_c, 0, 63, 108
1, 313573, Note_on_c, 0, 65, 102
1, 315799, Note_off_c, 0, 65, 102
1, 316829, Note_on_c, 0, 67, 100
1, 321653, Note_off_c, 0, 67, 100
1, 322518, Note_on_c, 0, 58, 96
1, 323631, Note_off_c, 0, 58, 96
1, 323837, Note_on_c, 0, 57, 93
1, 324826, Note_off_c, 0, 57, 93
1, 324949, Note_on_c, 0, 58, 97
1, 326021, Note_off_c, 0, 58, 97
1, 326021, Note_on_c, 0, 60, 106
1, 327381, Note_off_c, 0, 60, 106
1, 327381, Note_on_c, 0, 62, 116
1, 328741, Note_off_c, 0, 62, 116
1, 328864, Note_on_c, 0, 63, 115
1, 329606, Note_off_c, 0, 63, 115
1, 329688, Note_on_c, 0, 65, 107
1, 330430, Note_off_c, 0, 65, 107
1, 330512, Note_on_c, 0, 67, 105
1, 331790, Note_off_c, 0, 67, 105
1, 342263, Note_on_c, 0, 63, 115
1, 344737, Note_off_c, 0, 63, 115
1, 345077, Note_on_c, 0, 65, 104
1, 345850, Note_off_c, 0, 65, 104
1, 346210, Note_on_c, 0, 68, 107
1, 349251, Note_off_c, 0, 68, 107
1, 349611, Note_on_c, 0, 67, 107
1, 351672, Note_off_c, 0, 67, 107
1, 351744, Note_on_c, 0, 64, 117
1, 354382, Note_off_c, 0, 64, 117
1, 354794, Note_on_c, 0, 62, 116
1, 356690, Note_off_c, 0, 62, 116
1, 359164, Note_on_c, 0, 66, 101
1, 359906, Note_off_c, 0, 66, 101
1, 360153, Note_on_c, 0, 67, 100
1, 362544, Note_off_c, 0, 67, 100
1, 362647, Note_on_c, 0, 63, 112
1, 365224, Note_off_c, 0, 63, 112
1, 367120, Note_on_c, 0, 63, 115
1, 370913, Note_off_c, 0, 63, 115
1, 371119, Note_on_c, 0, 60, 102
1, 374129, Note_off_c, 0, 60, 102
1, 376149, Note_on_c, 0, 67, 113
1, 378334, Note_off_c, 0, 67, 113
1, 378375, Note_on_c, 0, 65, 110
1, 380230, Note_off_c, 0, 65, 110
1, 380312, Note_on_c, 0, 63, 115
1, 382373, Note_off_c, 0, 63, 115
1, 382537, Note_on_c, 0, 60, 109
1, 383980, Note_off_c, 0, 60, 109
1, 385268, Note_on_c, 0, 62, 125
1, 387484, Note_off_c, 0, 62, 125
1, 387607, Note_on_c, 0, 63, 118
1, 388761, Note_off_c, 0, 63, 118
1, 389874, Note_on_c, 0, 65, 112
1, 391440, Note_off_c, 0, 65, 112
1, 391604, Note_on_c, 0, 67, 112
1, 392964, Note_off_c, 0, 67, 112
1, 393994, Note_on_c, 0, 68, 119
1, 395890, Note_on_c, 0, 69, 115
1, 395890, Note_off_c, 0, 68, 119
1, 396838, Note_off_c, 0, 69, 115
1, 396961, Note_on_c, 0, 70, 104
1, 408671, Note_off_c, 0, 70, 104
1, 418672, Note_on_c, 0, 73, 110
1, 420687, Note_off_c, 0, 73, 110
1, 420720, Note_on_c, 0, 72, 116
1, 421441, Note_off_c, 0, 72, 116
1, 421879, Note_on_c, 0, 71, 111
1, 423167, Note_off_c, 0, 71, 111
1, 423991, Note_on_c, 0, 66, 109
1, 425640, Note_off_c, 0, 66, 109
1, 425820, Note_on_c, 0, 62, 118
1, 427716, Note_off_c, 0, 62, 118
1, 427880, Note_on_c, 0, 61, 117
1, 430106, Note_off_c, 0, 61, 117
1, 430229, Note_on_c, 0, 59, 98
1, 431795, Note_off_c, 0, 59, 98
1, 432042, Note_on_c, 0, 58, 90
1, 437649, Note_off_c, 0, 58, 90
1, 438081, Note_on_c, 0, 63, 109
1, 439678, Note_off_c, 0, 63, 109
1, 456944, Note_on_c, 0, 62, 117
1, 459954, Note_off_c, 0, 62, 117
1, 460118, Note_on_c, 0, 63, 115
1, 462468, Note_off_c, 0, 63, 115
1, 462509, Note_on_c, 0, 62, 116
1, 464611, Note_off_c, 0, 62, 116
1, 464775, Note_on_c, 0, 60, 109
1, 467094, Note_off_c, 0, 60, 109
1, 467454, Note_on_c, 0, 61, 109
1, 475700, Note_off_c, 0, 61, 109
1, 475906, Note_on_c, 0, 60, 107
1, 476813, Note_off_c, 0, 60, 107
1, 477060, Note_on_c, 0, 61, 114
1, 478338, Note_off_c, 0, 61, 114
1, 478379, Note_on_c, 0, 62, 117
1, 479203, Note_off_c, 0, 62, 117
1, 479285, Note_on_c, 0, 63, 113
1, 480480, Note_off_c, 0, 63, 113
1, 480603, Note_on_c, 0, 62, 110
1, 481675, Note_off_c, 0, 62, 110
1, 481716, Note_on_c, 0, 64, 110
1, 482581, Note_off_c, 0, 64, 110
1, 482663, Note_on_c, 0, 66, 102
1, 483157, Note_off_c, 0, 66, 102
1, 483198, Note_on_c, 0, 67, 103
1, 485630, Note_off_c, 0, 67, 103
1, 487908, Note_on_c, 0, 69, 116
1, 489557, Note_off_c, 0, 69, 116
1, 491072, Note_on_c, 0, 70, 111
1, 492845, Note_off_c, 0, 70, 111
1, 493319, Note_on_c, 0, 72, 106
1, 494710, Note_off_c, 0, 72, 106
1, 495565, Note_on_c, 0, 73, 106
1, 498245, Note_off_c, 0, 73, 106
1, 498286, Note_on_c, 0, 72, 107
1, 500388, Note_off_c, 0, 72, 107
1, 501954, Note_on_c, 0, 60, 98
1, 513004, Note_off_c, 0, 60, 98
1, 525168, Note_on_c, 0, 53, 100
1, 525910, Note_off_c, 0, 53, 100
1, 526074, Note_on_c, 0, 56, 106
1, 527640, Note_off_c, 0, 56, 106
1, 527763, Note_on_c, 0, 60, 109
1, 529865, Note_off_c, 0, 60, 109
1, 531266, Note_on_c, 0, 63, 110
1, 532461, Note_off_c, 0, 63, 110
1, 532625, Note_on_c, 0, 66, 117
1, 533490, Note_off_c, 0, 66, 117
1, 533531, Note_on_c, 0, 70, 114
1, 537324, Note_off_c, 0, 70, 114
1, 537530, Note_on_c, 0, 68, 109
1, 540004, Note_off_c, 0, 68, 109
1, 541818, Note_on_c, 0, 67, 108
1, 543055, Note_off_c, 0, 67, 108
1, 543055, Note_on_c, 0, 68, 114
1, 546559, Note_off_c, 0, 68, 114
1, 546600, Note_on_c, 0, 63, 109
1, 555300, Note_off_c, 0, 63, 109
1, 555877, Note_on_c, 0, 61, 121
1, 558608, Note_off_c, 0, 61, 121
1, 558863, Note_on_c, 0, 58, 95
1, 561089, Note_off_c, 0, 58, 95
1, 561281, Note_on_c, 0, 51, 87
1, 565528, Note_off_c, 0, 51, 87
1, 566265, Note_on_c, 0, 56, 90
1, 566924, Note_off_c, 0, 56, 90
1, 567047, Note_on_c, 0, 58, 99
1, 570304, Note_off_c, 0, 58, 99
1, 570468, Note_on_c, 0, 56, 97
1, 577601, Note_off_c, 0, 56, 97
1, 586383, Note_on_c, 0, 59, 102
1, 588393, Note_off_c, 0, 59, 102
1, 588650, Note_on_c, 0, 63, 116
1, 590505, Note_off_c, 0, 63, 116
1, 592154, Note_on_c, 0, 66, 109
1, 594112, Note_off_c, 0, 66, 109
1, 595503, Note_on_c, 0, 69, 114
1, 597100, Note_off_c, 0, 69, 114
1, 597151, Note_on_c, 0, 70, 107
1, 597614, Note_off_c, 0, 70, 107
1, 597665, Note_on_c, 0, 72, 107
1, 598231, Note_off_c, 0, 72, 107
1, 598581, Note_on_c, 0, 73, 115
1, 601146, Note_off_c, 0, 73, 115
1, 601365, Note_on_c, 0, 71, 103
1, 603344, Note_off_c, 0, 71, 103
1, 603563, Note_on_c, 0, 70, 112
1, 606055, Note_off_c, 0, 70, 112
1, 606989, Note_on_c, 0, 68, 117
1, 609545, Note_off_c, 0, 68, 117
1, 609792, Note_on_c, 0, 63, 112
1, 612059, Note_off_c, 0, 63, 112
1, 612759, Note_on_c, 0, 59, 98
1, 614666, Note_off_c, 0, 59, 98
1, 614921, Note_on_c, 0, 58, 94
1, 616982, Note_off_c, 0, 58, 94
1, 617087, Note_on_c, 0, 68, 117
1, 619602, Note_off_c, 0, 68, 117
1, 619725, Note_on_c, 0, 67, 106
1, 621621, Note_off_c, 0, 67, 106
1, 621909, Note_on_c, 0, 62, 113
1, 623682, Note_off_c, 0, 62, 113
1, 624011, Note_on_c, 0, 65, 111
1, 626113, Note_off_c, 0, 65, 111
1, 626113, Note_on_c, 0, 63, 110
1, 627638, Note_off_c, 0, 63, 110
1, 627802, Note_on_c, 0, 62, 108
1, 629039, Note_off_c, 0, 62, 108
1, 629039, Note_on_c, 0, 63, 103
1, 629698, Note_off_c, 0, 63, 103
1, 630014, Note_on_c, 0, 67, 75
1, 630820, Note_off_c, 0, 67, 75
1, 630966, Note_on_c, 0, 70, 113
1, 631955, Note_off_c, 0, 70, 113
1, 632541, Note_on_c, 0, 72, 99
1, 634035, Note_off_c, 0, 72, 99
1, 634776, Note_on_c, 0, 75, 99
1, 637405, Note_off_c, 0, 75, 99
1, 637405, Note_on_c, 0, 73, 104
1, 639796, Note_off_c, 0, 73, 104
1, 659547, Note_on_c, 0, 72, 109
1, 664618, Note_off_c, 0, 72, 109
1, 664618, Note_on_c, 0, 71, 105
1, 665855, Note_off_c, 0, 71, 105
1, 665855, Note_on_c, 0, 70, 106
1, 666885, Note_off_c, 0, 70, 106
1, 666926, Note_on_c, 0, 69, 114
1, 669400, Note_off_c, 0, 69, 114
1, 670678, Note_on_c, 0, 70, 116
1, 672987, Note_off_c, 0, 70, 116
1, 673069, Note_on_c, 0, 69, 113
1, 673605, Note_off_c, 0, 69, 113
1, 673646, Note_on_c, 0, 68, 120
1, 677068, Note_off_c, 0, 68, 120
1, 678799, Note_on_c, 0, 70, 115
1, 680778, Note_off_c, 0, 70, 115
1, 680860, Note_on_c, 0, 69, 118
1, 681478, Note_off_c, 0, 69, 118
1, 681601, Note_on_c, 0, 68, 124
1, 682425, Note_off_c, 0, 68, 124
1, 682548, Note_on_c, 0, 67, 111
1, 684238, Note_off_c, 0, 67, 111
1, 684361, Note_on_c, 0, 68, 123
1, 685515, Note_off_c, 0, 68, 123
1, 685638, Note_on_c, 0, 67, 114
1, 686421, Note_off_c, 0, 67, 114
1, 686544, Note_on_c, 0, 65, 111
1, 688646, Note_off_c, 0, 65, 111
1, 689140, Note_on_c, 0, 67, 108
1, 690212, Note_off_c, 0, 67, 108
1, 690253, Note_on_c, 0, 65, 109
1, 690995, Note_off_c, 0, 65, 109
1, 691159, Note_on_c, 0, 64, 117
1, 691818, Note_off_c, 0, 64, 117
1, 692024, Note_on_c, 0, 63, 123
1, 694126, Note_off_c, 0, 63, 123
1, 695445, Note_on_c, 0, 63, 122
1, 698290, Note_off_c, 0, 63, 122
1, 699815, Note_on_c, 0, 63, 118
1, 710494, Note_off_c, 0, 63, 118
1, 715194, Note_on_c, 0, 68, 120
1, 716513, Note_off_c, 0, 68, 120
1, 716929, Note_on_c, 0, 70, 122
1, 717881, Note_on_c, 0, 69, 118
1, 717881, Note_off_c, 0, 70, 122
1, 718943, Note_off_c, 0, 69, 118
1, 718943, Note_on_c, 0, 67, 116
1, 720592, Note_off_c, 0, 67, 116
1, 720674, Note_on_c, 0, 66, 114
1, 721869, Note_off_c, 0, 66, 114
1, 722116, Note_on_c, 0, 63, 113
1, 723064, Note_off_c, 0, 63, 113
1, 723146, Note_on_c, 0, 62, 122
1, 724506, Note_off_c, 0, 62, 122
1, 724506, Note_on_c, 0, 60, 112
1, 726114, Note_off_c, 0, 60, 112
1, 726237, Note_on_c, 0, 58, 100
1, 728257, Note_off_c, 0, 58, 100
1, 729535, Note_on_c, 0, 52, 86
1, 730400, Note_off_c, 0, 52, 86
1, 730564, Note_on_c, 0, 55, 95
1, 731471, Note_off_c, 0, 55, 95
1, 731677, Note_on_c, 0, 57, 106
1, 732790, Note_off_c, 0, 57, 106
1, 733046, Note_on_c, 0, 54, 100
1, 734356, Note_off_c, 0, 54, 100
1, 734356, Note_on_c, 0, 55, 108
1, 735345, Note_off_c, 0, 55, 108
1, 735386, Note_on_c, 0, 57, 106
1, 736540, Note_off_c, 0, 57, 106
1, 736540, Note_on_c, 0, 58, 102
1, 737282, Note_off_c, 0, 58, 102
1, 737323, Note_on_c, 0, 60, 108
1, 738601, Note_off_c, 0, 60, 108
1, 738765, Note_on_c, 0, 62, 118
1, 739507, Note_off_c, 0, 62, 118
1, 739507, Note_on_c, 0, 64, 119
1, 740579, Note_off_c, 0, 64, 119
1, 740579, Note_on_c, 0, 65, 107
1, 741032, Note_off_c, 0, 65, 107
1, 741032, Note_on_c, 0, 66, 105
1, 741403, Note_off_c, 0, 66, 105
1, 741444, Note_on_c, 0, 67, 108
1, 742144, Note_off_c, 0, 67, 108
1, 742350, Note_on_c, 0, 69, 117
1, 743050, Note_off_c, 0, 69, 117
1, 743050, Note_on_c, 0, 70, 103
1, 744658, Note_off_c, 0, 70, 103
1, 756461, Note_on_c, 0, 70, 114
1, 760223, Note_off_c, 0, 70, 114
1, 760491, Note_on_c, 0, 70, 116
1, 762387, Note_off_c, 0, 70, 116
1, 762551, Note_on_c, 0, 72, 113
1, 771375, Note_on_c, 0, 67, 110
1, 771375, Note_off_c, 0, 72, 113
1, 773647, Note_off_c, 0, 67, 110
1, 777683, Note_on_c, 0, 62, 9
1, 779579, Note_off_c, 0, 62, 9
1, 779743, Note_on_c, 0, 64, 120
1, 780815, Note_off_c, 0, 64, 120
1, 780856, Note_on_c, 0, 65, 108
1, 792071, Note_off_c, 0, 65, 108
1, 792112, Note_on_c, 0, 63, 111
1, 795451, Note_off_c, 0, 63, 111
1, 795657, Note_on_c, 0, 61, 111
1, 797430, Note_off_c, 0, 61, 111
1, 797687, Note_on_c, 0, 62, 113
1, 801965, Note_off_c, 0, 62, 113
1, 802171, Note_on_c, 0, 62, 106
1, 811448, Note_off_c, 0, 62, 106
1, 819090, Note_on_c, 0, 58, 109
1, 821362, Note_off_c, 0, 58, 109
1, 821655, Note_on_c, 0, 55, 102
1, 823634, Note_off_c, 0, 55, 102
1, 823634, Note_on_c, 0, 62, 123
1, 826272, Note_off_c, 0, 62, 123
1, 826290, Note_on_c, 0, 60, 114
1, 828392, Note_off_c, 0, 60, 114
1, 828689, Note_on_c, 0, 58, 105
1, 830791, Note_off_c, 0, 58, 105
1, 830887, Note_on_c, 0, 55, 101
1, 832348, Note_off_c, 0, 55, 101
1, 832348, Note_on_c, 0, 61, 99
1, 833873, Note_off_c, 0, 61, 99
1, 833914, Note_on_c, 0, 62, 109
1, 842243, Note_off_c, 0, 62, 109
1, 852180, Note_on_c, 0, 54, 110
1, 852839, Note_off_c, 0, 54, 110
1, 853003, Note_on_c, 0, 56, 104
1, 853745, Note_off_c, 0, 56, 104
1, 853868, Note_on_c, 0, 61, 102
1, 855187, Note_off_c, 0, 61, 102
1, 855310, Note_on_c, 0, 68, 110
1, 856629, Note_off_c, 0, 68, 110
1, 856670, Note_on_c, 0, 71, 103
1, 861329, Note_off_c, 0, 71, 103
1, 861411, Note_on_c, 0, 69, 110
1, 863307, Note_off_c, 0, 69, 110
1, 863389, Note_on_c, 0, 68, 115
1, 865409, Note_off_c, 0, 68, 115
1, 865615, Note_on_c, 0, 66, 108
1, 867759, Note_off_c, 0, 66, 108
1, 867800, Note_on_c, 0, 65, 110
1, 869861, Note_off_c, 0, 65, 110
1, 869902, Note_on_c, 0, 63, 116
1, 872293, Note_off_c, 0, 63, 116
1, 872334, Note_on_c, 0, 61, 121
1, 873818, Note_off_c, 0, 61, 121
1, 873859, Note_on_c, 0, 62, 122
1, 880703, Note_off_c, 0, 62, 122
1, 880703, Note_on_c, 0, 63, 117
1, 881981, Note_off_c, 0, 63, 117
1, 883836, Note_on_c, 0, 65, 115
1, 886062, Note_off_c, 0, 65, 115
1, 886474, Note_on_c, 0, 67, 105
1, 897937, Note_off_c, 0, 67, 105
1, 911255, Note_on_c, 0, 69, 122
1, 913440, Note_off_c, 0, 69, 122
1, 914883, Note_on_c, 0, 70, 110
1, 917810, Note_off_c, 0, 70, 110
1, 918675, Note_on_c, 0, 71, 106
1, 919293, Note_off_c, 0, 71, 106
1, 919540, Note_on_c, 0, 72, 107
1, 923539, Note_off_c, 0, 72, 107
1, 923745, Note_on_c, 0, 67, 106
1, 925518, Note_off_c, 0, 67, 106
1, 925847, Note_on_c, 0, 63, 118
1, 928279, Note_off_c, 0, 63, 118
1, 928279, Note_on_c, 0, 62, 124
1, 931082, Note_off_c, 0, 62, 124
1, 931288, Note_on_c, 0, 60, 104
1, 933226, Note_off_c, 0, 60, 104
1, 933308, Note_on_c, 0, 55, 103
1, 935287, Note_off_c, 0, 55, 103
1, 935328, Note_on_c, 0, 58, 105
1, 937059, Note_off_c, 0, 58, 105
1, 937471, Note_on_c, 0, 57, 97
1, 938955, Note_off_c, 0, 57, 97
1, 938996, Note_on_c, 0, 60, 95
1, 939985, Note_off_c, 0, 60, 95
1, 939985, Note_on_c, 0, 63, 114
1, 940356, Note_off_c, 0, 63, 114
1, 940479, Note_on_c, 0, 67, 111
1, 941922, Note_off_c, 0, 67, 111
1, 942169, Note_on_c, 0, 65, 106
1, 943653, Note_off_c, 0, 65, 106
1, 943735, Note_on_c, 0, 63, 111
1, 946209, Note_off_c, 0, 63, 111
1, 946291, Note_on_c, 0, 61, 118
1, 948146, Note_off_c, 0, 61, 118
1, 948269, Note_on_c, 0, 62, 117
1, 950495, Note_off_c, 0, 62, 117
1, 950618, Note_on_c, 0, 58, 106
1, 953215, Note_off_c, 0, 58, 106
1, 953338, Note_on_c, 0, 53, 96
1, 955647, Note_off_c, 0, 53, 96
1, 956132, Note_on_c, 0, 58, 96
1, 964635, Note_off_c, 0, 58, 96
1, 984674, Note_on_c, 0, 54, 97
1, 985704, Note_off_c, 0, 54, 97
1, 985704, Note_on_c, 0, 56, 97
1, 986404, Note_off_c, 0, 56, 97
1, 986445, Note_on_c, 0, 59, 92
1, 987517, Note_off_c, 0, 59, 92
1, 987558, Note_on_c, 0, 61, 103
1, 988753, Note_off_c, 0, 61, 103
1, 988876, Note_on_c, 0, 68, 114
1, 990195, Note_off_c, 0, 68, 114
1, 990401, Note_on_c, 0, 71, 113
1, 991143, Note_off_c, 0, 71, 113
1, 991266, Note_on_c, 0, 68, 117
1, 997368, Note_off_c, 0, 68, 117
1, 997409, Note_on_c, 0, 66, 103
1, 999223, Note_off_c, 0, 66, 103
1, 1000913, Note_on_c, 0, 53, 106
1, 1002067, Note_off_c, 0, 53, 106
1, 1002396, Note_on_c, 0, 56, 101
1, 1003014, Note_off_c, 0, 56, 101
1, 1003137, Note_on_c, 0, 58, 92
1, 1003549, Note_off_c, 0, 58, 92
1, 1003631, Note_on_c, 0, 60, 91
1, 1004331, Note_on_c, 0, 62, 105
1, 1004331, Note_off_c, 0, 60, 91
1, 1005073, Note_off_c, 0, 62, 105
1, 1005155, Note_on_c, 0, 63, 106
1, 1005814, Note_off_c, 0, 63, 106
1, 1005814, Note_on_c, 0, 70, 109
1, 1007463, Note_off_c, 0, 70, 109
1, 1007627, Note_on_c, 0, 67, 106
1, 1015585, Note_off_c, 0, 67, 106
1, 1015832, Note_on_c, 0, 65, 102
1, 1017605, Note_off_c, 0, 65, 102
1, 1017769, Note_on_c, 0, 63, 113
1, 1019047, Note_off_c, 0, 63, 113
1, 1019129, Note_on_c, 0, 61, 115
1, 1020737, Note_off_c, 0, 61, 115
1, 1020988, Note_on_c, 0, 62, 105
1, 1028740, Note_off_c, 0, 62, 105
1, 1040157, Note_on_c, 0, 62, 127
1, 1042424, Note_off_c, 0, 62, 127
1, 1042630, Note_on_c, 0, 63, 126
1, 1044073, Note_off_c, 0, 63, 126
1, 1045474, Note_on_c, 0, 66, 117
1, 1047247, Note_off_c, 0, 66, 117
1, 1047370, Note_on_c, 0, 67, 111
1, 1049308, Note_off_c, 0, 67, 111
1, 1050874, Note_on_c, 0, 69, 113
1, 1052399, Note_off_c, 0, 69, 113
1, 1052440, Note_on_c, 0, 70, 106
1, 1058047, Note_off_c, 0, 70, 106
1, 1058211, Note_on_c, 0, 73, 108
1, 1062375, Note_off_c, 0, 73, 108
1, 1062457, Note_on_c, 0, 70, 104
1, 1071693, Note_off_c, 0, 70, 104
1, 1071775, Note_on_c, 0, 67, 104
1, 1074084, Note_off_c, 0, 67, 104
1, 1074125, Note_on_c, 0, 66, 100
1, 1076599, Note_off_c, 0, 66, 100
1, 1076763, Note_on_c, 0, 62, 99
1, 1078701, Note_off_c, 0, 62, 99
1, 1078783, Note_on_c, 0, 65, 106
1, 1081050, Note_off_c, 0, 65, 106
1, 1081256, Note_on_c, 0, 62, 112
1, 1082286, Note_off_c, 0, 62, 112
1, 1082492, Note_on_c, 0, 64, 112
1, 1086697, Note_off_c, 0, 64, 112
1, 1087068, Note_on_c, 0, 72, 97
1, 1092510, Note_off_c, 0, 72, 97
1, 1104509, Note_on_c, 0, 64, 123
1, 1107271, Note_off_c, 0, 64, 123
1, 1107394, Note_on_c, 0, 65, 111
1, 1109538, Note_off_c, 0, 65, 111
1, 1109579, Note_on_c, 0, 67, 106
1, 1111599, Note_off_c, 0, 67, 106
1, 1111763, Note_on_c, 0, 68, 107
1, 1114237, Note_off_c, 0, 68, 107
1, 1114360, Note_on_c, 0, 70, 113
1, 1116339, Note_off_c, 0, 70, 113
1, 1116421, Note_on_c, 0, 72, 105
1, 1118565, Note_off_c, 0, 72, 105
1, 1119966, Note_on_c, 0, 74, 106
1, 1121986, Note_off_c, 0, 74, 106
1, 1121986, Note_on_c, 0, 75, 99
1, 1123965, Note_off_c, 0, 75, 99
1, 1124047, Note_on_c, 0, 72, 105
1, 1125531, Note_off_c, 0, 72, 105
1, 1125654, Note_on_c, 0, 70, 102
1, 1127756, Note_off_c, 0, 70, 102
1, 1127797, Note_on_c, 0, 68, 112
1, 1130518, Note_off_c, 0, 68, 112
1, 1130600, Note_on_c, 0, 67, 103
1, 1135177, Note_off_c, 0, 67, 103
1, 1135259, Note_on_c, 0, 63, 112
1, 1137609, Note_off_c, 0, 63, 112
1, 1137732, Note_on_c, 0, 59, 95
1, 1139628, Note_off_c, 0, 59, 95
1, 1142596, Note_on_c, 0, 66, 101
1, 1146472, Note_off_c, 0, 66, 101
1, 1146636, Note_on_c, 0, 63, 110
1, 1147790, Note_off_c, 0, 63, 110
1, 1147954, Note_on_c, 0, 59, 95
1, 1149067, Note_off_c, 0, 59, 95
1, 1149190, Note_on_c, 0, 58, 100
1, 1150262, Note_off_c, 0, 58, 100
1, 1150767, Note_on_c, 0, 56, 110
1, 1156488, Note_off_c, 0, 56, 110
1, 1157477, Note_on_c, 0, 51, 91
1, 1158672, Note_off_c, 0, 51, 91
1, 1158960, Note_on_c, 0, 58, 101
1, 1160733, Note_off_c, 0, 58, 101
1, 1160774, Note_on_c, 0, 56, 96
1, 1164608, Note_off_c, 0, 56, 96
1, 1176071, Note_on_c, 0, 59, 105
1, 1178050, Note_off_c, 0, 59, 105
1, 1178214, Note_on_c, 0, 63, 121
1, 1180481, Note_off_c, 0, 63, 121
1, 1180687, Note_on_c, 0, 66, 112
1, 1182336, Note_off_c, 0, 66, 112
1, 1183366, Note_on_c, 0, 70, 113
1, 1186334, Note_off_c, 0, 70, 113
1, 1186416, Note_on_c, 0, 68, 106
1, 1189467, Note_off_c, 0, 68, 106
1, 1189508, Note_on_c, 0, 67, 103
1, 1191446, Note_off_c, 0, 67, 103
1, 1191487, Note_on_c, 0, 68, 109
1, 1195239, Note_off_c, 0, 68, 109
1, 1195692, Note_on_c, 0, 75, 96
1, 1198949, Note_off_c, 0, 75, 96
1, 1199237, Note_on_c, 0, 71, 106
1, 1200845, Note_off_c, 0, 71, 106
1, 1200927, Note_on_c, 0, 70, 109
1, 1202658, Note_off_c, 0, 70, 109
1, 1202699, Note_on_c, 0, 68, 114
1, 1205544, Note_off_c, 0, 68, 114
1, 1205585, Note_on_c, 0, 67, 105
1, 1212306, Note_off_c, 0, 67, 105
1, 1213275, Note_on_c, 0, 63, 110
1, 1215130, Note_off_c, 0, 63, 110
1, 1216140, Note_on_c, 0, 58, 95
1, 1218078, Note_off_c, 0, 58, 95
1, 1218201, Note_on_c, 0, 55, 91
1, 1220386, Note_off_c, 0, 55, 91
1, 1220757, Note_on_c, 0, 63, 114
1, 1224633, Note_off_c, 0, 63, 114
1, 1225004, Note_on_c, 0, 62, 113
1, 1226447, Note_off_c, 0, 62, 113
1, 1226611, Note_on_c, 0, 63, 106
1, 1235847, Note_off_c, 0, 63, 106
1, 1236001, Note_on_c, 0, 61, 109
1, 1239351, Note_off_c, 0, 61, 109
1, 1239454, Note_on_c, 0, 60, 96
1, 1241515, Note_off_c, 0, 60, 96
1, 1242154, Note_on_c, 0, 56, 93
1, 1244669, Note_off_c, 0, 56, 93
1, 1245470, Note_on_c, 0, 60, 87
1, 1256025, Note_off_c, 0, 60, 87
1, 1258398, Note_on_c, 0, 62, 110
1, 1260872, Note_off_c, 0, 62, 110
1, 1260872, Note_on_c, 0, 58, 82
1, 1263634, Note_off_c, 0, 58, 82
1, 1263798, Note_on_c, 0, 66, 80
1, 1264416, Note_off_c, 0, 66, 80
1, 1264622, Note_on_c, 0, 67, 98
1, 1273446, Note_off_c, 0, 67, 98
1, 1274476, Note_on_c, 0, 58, 101
1, 1276400, Note_off_c, 0, 58, 101
1, 1276400, Note_on_c, 0, 62, 115
1, 1277792, Note_off_c, 0, 62, 115
1, 1277938, Note_on_c, 0, 63, 108
1, 1281090, Note_off_c, 0, 63, 108
1, 1281566, Note_on_c, 0, 63, 99
1, 1294884, Note_off_c, 0, 63, 99
1, 1303409, Note_on_c, 0, 63, 100
1, 1305522, Note_off_c, 0, 63, 100
1, 1305573, Note_on_c, 0, 60, 100
1, 1307428, Note_off_c, 0, 60, 100
1, 1307531, Note_on_c, 0, 61, 107
1, 1309025, Note_off_c, 0, 61, 107
1, 1309076, Note_on_c, 0, 62, 91
1, 1314230, Note_off_c, 0, 62, 91
1, 1315415, Note_on_c, 0, 58, 93
1, 1320723, Note_off_c, 0, 58, 93
1, 1320723, End_track
0, 0, End_of_file
