0, 0, Header, 1, 1, 192
1, 0, Start_track
1, 0, Title_t, "Melody"
1, 0, Tempo, 222222
1, 0, Key_signature, -2, "major"
1, 0, Time_signature, 4, 2, 24, 8
1, 2282, Note_on_c, 0, 50, 90
1, 2432, Note_off_c, 0, 50, 90
1, 2482, Note_on_c, 0, 53, 105
1, 2682, Note_off_c, 0, 53, 105
1, 2682, Note_on_c, 0, 57, 109
1, 2842, Note_off_c, 0, 57, 109
1, 2857, Note_on_c, 0, 53, 84
1, 2947, Note_off_c, 0, 53, 84
1, 2987, Note_on_c, 0, 58, 108
1, 3212, Note_off_c, 0, 58, 108
1, 3377, Note_on_c, 0, 55, 103
1, 3472, Note_off_c, 0, 55, 103
1, 3472, Note_on_c, 0, 62, 113
1, 3577, Note_off_c, 0, 62, 113
1, 3577, Note_on_c, 0, 60, 108
1, 3697, Note_off_c, 0, 60, 108
1, 3697, Note_on_c, 0, 58, 95
1, 3757, Note_off_c, 0, 58, 95
1, 3777, Note_on_c, 0, 55, 94
1, 3862, Note_off_c, 0, 55, 94
1, 3867, Note_on_c, 0, 60, 113
1, 3952, Note_off_c, 0, 60, 113
1, 3962, Note_on_c, 0, 62, 115
1, 4042, Note_off_c, 0, 62, 115
1, 4052, Note_on_c, 0, 63, 122
1, 4122, Note_off_c, 0, 63, 122
1, 4137, Note_on_c, 0, 64, 127
1, 4217, Note_off_c, 0, 64, 127
1, 4222, Note_on_c, 0, 65, 118
1, 4302, Note_off_c, 0, 65, 118
1, 4312, Note_on_c, 0, 63, 121
1, 4417, Note_off_c, 0, 63, 121
1, 4442, Note_on_c, 0, 62, 110
1, 4522, Note_off_c, 0, 62, 110
1, 4522, Note_on_c, 0, 60, 111
1, 4617, Note_off_c, 0, 60, 111
1, 4617, Note_on_c, 0, 58, 106
1, 4702, Note_off_c, 0, 58, 106
1, 4722, Note_on_c, 0, 56, 108
1, 4797, Note_off_c, 0, 56, 108
1, 4802, Note_on_c, 0, 55, 107
1, 4897, Note_off_c, 0, 55, 107
1, 4917, Note_on_c, 0, 53, 105
1, 5002, Note_off_c, 0, 53, 105
1, 5007, Note_on_c, 0, 51, 94
1, 5122, Note_off_c, 0, 51, 94
1, 5192, Note_on_c, 0, 58, 107
1, 5297, Note_off_c, 0, 58, 107
1, 5387, Note_on_c, 0, 61, 109
1, 5507, Note_off_c, 0, 61, 109
1, 5517, Note_on_c, 0, 65, 99
1, 5592, Note_off_c, 0, 65, 99
1, 5592, Note_on_c, 0, 69, 114
1, 5692, Note_off_c, 0, 69, 114
1, 5692, Note_on_c, 0, 67, 115
1, 5782, Note_off_c, 0, 67, 115
1, 5787, Note_on_c, 0, 65, 109
1, 5872, Note_off_c, 0, 65, 109
1, 5887, Note_on_c, 0, 63, 119
1, 5972, Note_off_c, 0, 63, 119
1, 5982, Note_on_c, 0, 62, 113
1, 6057, Note_off_c, 0, 62, 113
1, 6077, Note_on_c, 0, 60, 109
1, 6157, Note_off_c, 0, 60, 109
1, 6187, Note_on_c, 0, 58, 108
1, 6307, Note_off_c, 0, 58, 108
1, 7124, Note_on_c, 0, 62, 121
1, 7199, Note_off_c, 0, 62, 121
1, 7219, Note_on_c, 0, 63, 124
1, 7304, Note_off_c, 0, 63, 124
1, 7304, Note_on_c, 0, 59, 106
1, 7409, Note_off_c, 0, 59, 106
1, 7409, Note_on_c, 0, 56, 91
1, 7504, Note_off_c, 0, 56, 91
1, 7519, Note_on_c, 0, 59, 106
1, 7594, Note_off_c, 0, 59, 106
1, 7594, Note_on_c, 0, 62, 114
1, 7694, Note_off_c, 0, 62, 114
1, 7694, Note_on_c, 0, 60, 104
1, 7794, Note_off_c, 0, 60, 104
1, 7809, Note_on_c, 0, 62, 115
1, 7894, Note_off_c, 0, 62, 115
1, 7904, Note_on_c, 0, 63, 121
1, 7944, Note_off_c, 0, 63, 121
1, 7959, Note_on_c, 0, 64, 121
1, 8069, Note_off_c, 0, 64, 121
1, 8084, Note_on_c, 0, 65, 111
1, 8199, Note_off_c, 0, 65, 111
1, 8199, Note_on_c, 0, 67, 110
1, 8284, Note_off_c, 0, 67, 110
1, 8299, Note_on_c, 0, 69, 96
1, 8384, Note_off_c, 0, 69, 96
1, 8399, Note_on_c, 0, 70, 115
1, 8454, Note_on_c, 0, 71, 117
1, 8454, Note_off_c, 0, 70, 115
1, 8544, Note_off_c, 0, 71, 117
1, 8544, Note_on_c, 0, 72, 109
1, 8594, Note_off_c, 0, 72, 109
1, 8599, Note_on_c, 0, 71, 107
1, 8649, Note_off_c, 0, 71, 107
1, 8649, Note_on_c, 0, 69, 109
1, 8764, Note_off_c, 0, 69, 109
1, 8764, Note_on_c, 0, 65, 95
1, 8819, Note_off_c, 0, 65, 95
1, 8839, Note_on_c, 0, 70, 116
1, 8939, Note_off_c, 0, 70, 116
1, 8964, Note_on_c, 0, 71, 116
1, 9009, Note_off_c, 0, 71, 116
1, 9024, Note_on_c, 0, 68, 108
1, 9134, Note_off_c, 0, 68, 108
1, 9134, Note_on_c, 0, 64, 113
1, 9244, Note_off_c, 0, 64, 113
1, 9274, Note_on_c, 0, 61, 89
1, 9449, Note_off_c, 0, 61, 89
1, 9514, Note_on_c, 0, 70, 110
1, 9594, Note_off_c, 0, 70, 110
1, 9604, Note_on_c, 0, 69, 114
1, 9679, Note_off_c, 0, 69, 114
1, 9699, Note_on_c, 0, 67, 112
1, 9784, Note_off_c, 0, 67, 112
1, 9784, Note_on_c, 0, 65, 106
1, 9894, Note_off_c, 0, 65, 106
1, 9894, Note_on_c, 0, 63, 119
1, 9959, Note_off_c, 0, 63, 119
1, 9974, Note_on_c, 0, 62, 113
1, 10054, Note_off_c, 0, 62, 113
1, 10084, Note_on_c, 0, 60, 108
1, 10179, Note_off_c, 0, 60, 108
1, 10194, Note_on_c, 0, 58, 101
1, 10279, Note_off_c, 0, 58, 101
1, 10299, Note_on_c, 0, 55, 96
1, 10349, Note_off_c, 0, 55, 96
1, 10349, Note_on_c, 0, 63, 116
1, 10469, Note_off_c, 0, 63, 116
1, 10484, Note_on_c, 0, 60, 107
1, 10559, Note_off_c, 0, 60, 107
1, 10559, Note_on_c, 0, 56, 106
1, 10664, Note_off_c, 0, 56, 106
1, 10694, Note_on_c, 0, 53, 96
1, 10739, Note_off_c, 0, 53, 96
1, 10744, Note_on_c, 0, 55, 106
1, 10874, Note_off_c, 0, 55, 106
1, 10899, Note_on_c, 0, 58, 82
1, 11069, Note_off_c, 0, 58, 82
1, 11906, Note_on_c, 0, 53, 99
1, 11981, Note_off_c, 0, 53, 99
1, 11981, Note_on_c, 0, 55, 100
1, 12066, Note_off_c, 0, 55, 100
1, 12066, Note_on_c, 0, 57, 96
1, 12186, Note_off_c, 0, 57, 96
1, 12186, Note_on_c, 0, 60, 107
1, 12316, Note_off_c, 0, 60, 107
1, 12351, Note_on_c, 0, 58, 111
1, 12446, Note_off_c, 0, 58, 111
1, 12451, Note_on_c, 0, 62, 102
1, 12556, Note_off_c, 0, 62, 102
1, 12556, Note_on_c, 0, 65, 105
1, 12611, Note_on_c, 0, 69, 119
1, 12611, Note_off_c, 0, 65, 105
1, 12706, Note_off_c, 0, 69, 119
1, 12706, Note_on_c, 0, 67, 115
1, 12811, Note_off_c, 0, 67, 115
1, 12821, Note_on_c, 0, 65, 115
1, 12926, Note_off_c, 0, 65, 115
1, 12941, Note_on_c, 0, 62, 104
1, 12986, Note_off_c, 0, 62, 104
1, 12986, Note_on_c, 0, 64, 121
1, 13261, Note_off_c, 0, 64, 121
1, 13261, Note_on_c, 0, 67, 109
1, 13316, Note_on_c, 0, 70, 114
1, 13316, Note_off_c, 0, 67, 109
1, 13386, Note_off_c, 0, 70, 114
1, 13386, Note_on_c, 0, 68, 110
1, 13621, Note_off_c, 0, 68, 110
1, 13656, Note_on_c, 0, 71, 108
1, 13751, Note_off_c, 0, 71, 108
1, 13766, Note_on_c, 0, 67, 104
1, 13831, Note_off_c, 0, 67, 104
1, 13951, Note_on_c, 0, 71, 114
1, 14056, Note_off_c, 0, 71, 114
1, 14066, Note_on_c, 0, 66, 104
1, 14156, Note_off_c, 0, 66, 104
1, 14973, Note_on_c, 0, 62, 113
1, 15088, Note_off_c, 0, 62, 113
1, 15113, Note_on_c, 0, 61, 104
1, 15153, Note_off_c, 0, 61, 104
1, 15173, Note_on_c, 0, 62, 109
1, 15223, Note_off_c, 0, 62, 109
1, 15248, Note_on_c, 0, 64, 115
1, 15353, Note_off_c, 0, 64, 115
1, 15368, Note_on_c, 0, 65, 113
1, 15423, Note_off_c, 0, 65, 113
1, 15458, Note_on_c, 0, 67, 113
1, 15543, Note_off_c, 0, 67, 113
1, 15543, Note_on_c, 0, 69, 115
1, 15633, Note_off_c, 0, 69, 115
1, 15643, Note_on_c, 0, 72, 114
1, 15713, Note_on_c, 0, 71, 109
1, 15713, Note_off_c, 0, 72, 114
1, 15803, Note_off_c, 0, 71, 109
1, 15828, Note_on_c, 0, 69, 113
1, 15913, Note_off_c, 0, 69, 113
1, 15923, Note_on_c, 0, 67, 106
1, 16003, Note_off_c, 0, 67, 106
1, 16013, Note_on_c, 0, 65, 110
1, 16113, Note_off_c, 0, 65, 110
1, 16133, Note_on_c, 0, 64, 101
1, 16238, Note_off_c, 0, 64, 101
1, 16502, Note_on_c, 0, 65, 105
1, 16614, Note_off_c, 0, 65, 105
1, 16617, Note_on_c, 0, 62, 98
1, 16708, Note_off_c, 0, 62, 98
1, 16722, Note_on_c, 0, 66, 101
1, 16813, Note_off_c, 0, 66, 101
1, 16823, Note_on_c, 0, 69, 112
1, 16918, Note_off_c, 0, 69, 112
1, 16921, Note_on_c, 0, 67, 103
1, 17005, Note_off_c, 0, 67, 103
1, 17008, Note_on_c, 0, 62, 96
1, 17096, Note_off_c, 0, 62, 96
1, 17117, Note_on_c, 0, 65, 108
1, 17219, Note_off_c, 0, 65, 108
1, 17236, Note_on_c, 0, 62, 99
1, 17285, Note_off_c, 0, 62, 99
1, 17285, Note_on_c, 0, 64, 115
1, 17408, Note_off_c, 0, 64, 115
1, 17418, Note_on_c, 0, 60, 101
1, 17530, Note_off_c, 0, 60, 101
1, 18203, Note_on_c, 0, 55, 94
1, 18280, Note_off_c, 0, 55, 94
1, 18287, Note_on_c, 0, 59, 90
1, 18368, Note_off_c, 0, 59, 90
1, 18368, Note_on_c, 0, 62, 106
1, 18463, Note_off_c, 0, 62, 106
1, 18463, Note_on_c, 0, 60, 96
1, 18572, Note_off_c, 0, 60, 96
1, 18572, Note_on_c, 0, 63, 121
1, 18670, Note_off_c, 0, 63, 121
1, 18684, Note_on_c, 0, 62, 108
1, 18775, Note_off_c, 0, 62, 108
1, 18782, Note_on_c, 0, 60, 88
1, 18827, Note_off_c, 0, 60, 88
1, 18827, Note_on_c, 0, 65, 113
1, 18946, Note_off_c, 0, 65, 113
1, 18967, Note_on_c, 0, 63, 117
1, 19034, Note_on_c, 0, 62, 115
1, 19034, Note_off_c, 0, 63, 117
1, 19104, Note_off_c, 0, 62, 115
1, 19135, Note_on_c, 0, 60, 103
1, 19237, Note_off_c, 0, 60, 103
1, 19237, Note_on_c, 0, 58, 94
1, 19311, Note_off_c, 0, 58, 94
1, 19346, Note_on_c, 0, 60, 103
1, 19434, Note_off_c, 0, 60, 103
1, 19635, Note_on_c, 0, 69, 114
1, 19726, Note_off_c, 0, 69, 114
1, 19729, Note_on_c, 0, 70, 115
1, 19824, Note_off_c, 0, 70, 115
1, 19841, Note_on_c, 0, 65, 108
1, 19932, Note_off_c, 0, 65, 108
1, 19956, Note_on_c, 0, 62, 97
1, 20047, Note_off_c, 0, 62, 97
1, 20047, Note_on_c, 0, 66, 107
1, 20121, Note_off_c, 0, 66, 107
1, 20131, Note_on_c, 0, 67, 107
1, 20198, Note_off_c, 0, 67, 107
1, 20198, Note_on_c, 0, 63, 115
1, 20286, Note_off_c, 0, 63, 115
1, 20321, Note_on_c, 0, 60, 85
1, 20409, Note_off_c, 0, 60, 85
1, 20409, Note_on_c, 0, 65, 114
1, 20490, Note_off_c, 0, 65, 114
1, 20511, Note_on_c, 0, 60, 99
1, 20602, Note_off_c, 0, 60, 99
1, 21162, Note_on_c, 0, 63, 121
1, 21243, Note_off_c, 0, 63, 121
1, 21257, Note_on_c, 0, 62, 111
1, 21313, Note_off_c, 0, 62, 111
1, 21320, Note_on_c, 0, 60, 97
1, 21376, Note_off_c, 0, 60, 97
1, 21390, Note_on_c, 0, 59, 106
1, 21485, Note_off_c, 0, 59, 106
1, 21485, Note_on_c, 0, 62, 110
1, 21569, Note_off_c, 0, 62, 110
1, 21569, Note_on_c, 0, 60, 100
1, 21678, Note_off_c, 0, 60, 100
1, 21681, Note_on_c, 0, 62, 111
1, 21772, Note_off_c, 0, 62, 111
1, 21793, Note_on_c, 0, 63, 107
1, 21870, Note_off_c, 0, 63, 107
1, 21891, Note_on_c, 0, 64, 102
1, 21968, Note_off_c, 0, 64, 102
1, 21968, Note_on_c, 0, 65, 112
1, 22056, Note_off_c, 0, 65, 112
1, 22091, Note_on_c, 0, 63, 117
1, 22147, Note_off_c, 0, 63, 117
1, 22168, Note_on_c, 0, 62, 110
1, 22259, Note_off_c, 0, 62, 110
1, 22280, Note_on_c, 0, 60, 99
1, 22364, Note_off_c, 0, 60, 99
1, 22371, Note_on_c, 0, 58, 96
1, 22455, Note_off_c, 0, 58, 96
1, 22490, Note_on_c, 0, 57, 92
1, 22564, Note_off_c, 0, 57, 92
1, 22588, Note_on_c, 0, 56, 88
1, 22665, Note_off_c, 0, 56, 88
1, 22668, Note_on_c, 0, 58, 96
1, 22752, Note_off_c, 0, 58, 96
1, 22752, Note_on_c, 0, 60, 92
1, 22836, Note_off_c, 0, 60, 92
1, 22850, Note_on_c, 0, 62, 107
1, 22941, Note_off_c, 0, 62, 107
1, 22972, Note_on_c, 0, 63, 94
1, 23053, Note_off_c, 0, 63, 94
1, 23053, Note_on_c, 0, 65, 101
1, 23144, Note_off_c, 0, 65, 101
1, 23147, Note_on_c, 0, 67, 112
1, 23235, Note_off_c, 0, 67, 112
1, 23266, Note_on_c, 0, 63, 100
1, 23333, Note_off_c, 0, 63, 100
1, 23333, Note_on_c, 0, 70, 113
1, 23431, Note_off_c, 0, 70, 113
1, 23441, Note_on_c, 0, 66, 106
1, 23529, Note_off_c, 0, 66, 106
1, 23539, Note_on_c, 0, 65, 107
1, 23616, Note_off_c, 0, 65, 107
1, 23637, Note_on_c, 0, 63, 116
1, 23718, Note_off_c, 0, 63, 116
1, 23732, Note_on_c, 0, 62, 109
1, 23806, Note_off_c, 0, 62, 109
1, 23809, Note_on_c, 0, 60, 100
1, 23904, Note_on_c, 0, 58, 99
1, 23904, Note_off_c, 0, 60, 100
1, 23995, Note_off_c, 0, 58, 99
1, 24019, Note_on_c, 0, 57, 84
1, 24071, Note_off_c, 0, 57, 84
1, 24243, Note_on_c, 0, 62, 107
1, 24362, Note_off_c, 0, 62, 107
1, 24383, Note_on_c, 0, 63, 117
1, 24474, Note_off_c, 0, 63, 117
1, 24474, Note_on_c, 0, 59, 81
1, 24548, Note_off_c, 0, 59, 81
1, 24558, Note_on_c, 0, 62, 110
1, 24667, Note_off_c, 0, 62, 110
1, 24681, Note_on_c, 0, 60, 93
1, 24769, Note_off_c, 0, 60, 93
1, 24769, Note_on_c, 0, 62, 109
1, 24860, Note_off_c, 0, 62, 109
1, 24874, Note_on_c, 0, 63, 105
1, 24948, Note_off_c, 0, 63, 105
1, 24955, Note_on_c, 0, 64, 105
1, 25053, Note_off_c, 0, 64, 105
1, 25056, Note_on_c, 0, 65, 110
1, 25154, Note_off_c, 0, 65, 110
1, 25161, Note_on_c, 0, 67, 101
1, 25242, Note_off_c, 0, 67, 101
1, 25242, Note_on_c, 0, 69, 116
1, 25330, Note_off_c, 0, 69, 116
1, 25349, Note_on_c, 0, 65, 96
1, 25407, Note_off_c, 0, 65, 96
1, 25414, Note_on_c, 0, 70, 113
1, 25674, Note_off_c, 0, 70, 113
1, 25698, Note_on_c, 0, 65, 108
1, 26036, Note_off_c, 0, 65, 108
1, 26064, Note_on_c, 0, 62, 110
1, 26194, Note_off_c, 0, 62, 110
1, 26194, Note_on_c, 0, 60, 92
1, 26504, Note_off_c, 0, 60, 92
1, 26532, Note_on_c, 0, 67, 100
1, 26789, Note_off_c, 0, 67, 100
1, 27741, Note_on_c, 0, 69, 114
1, 27867, Note_off_c, 0, 69, 114
1, 27870, Note_on_c, 0, 67, 110
1, 27965, Note_on_c, 0, 65, 114
1, 27965, Note_off_c, 0, 67, 110
1, 28060, Note_off_c, 0, 65, 114
1, 28070, Note_on_c, 0, 62, 110
1, 28154, Note_off_c, 0, 62, 110
1, 28157, Note_on_c, 0, 63, 122
1, 28213, Note_off_c, 0, 63, 122
1, 28230, Note_on_c, 0, 64, 107
1, 28275, Note_off_c, 0, 64, 107
1, 28278, Note_on_c, 0, 63, 118
1, 28362, Note_on_c, 0, 62, 111
1, 28362, Note_off_c, 0, 63, 118
1, 28436, Note_off_c, 0, 62, 111
1, 28443, Note_on_c, 0, 60, 109
1, 28506, Note_off_c, 0, 60, 109
1, 28537, Note_on_c, 0, 58, 97
1, 28656, Note_off_c, 0, 58, 97
1, 28846, Note_on_c, 0, 58, 94
1, 28874, Note_off_c, 0, 58, 94
1, 28874, Note_on_c, 0, 60, 102
1, 28951, Note_off_c, 0, 60, 102
1, 28961, Note_on_c, 0, 62, 105
1, 29028, Note_off_c, 0, 62, 105
1, 29056, Note_on_c, 0, 63, 120
1, 29147, Note_off_c, 0, 63, 120
1, 29154, Note_on_c, 0, 65, 102
1, 29259, Note_off_c, 0, 65, 102
1, 29273, Note_on_c, 0, 67, 106
1, 29350, Note_off_c, 0, 67, 106
1, 29350, Note_on_c, 0, 70, 104
1, 29381, Note_off_c, 0, 70, 104
1, 29479, Note_on_c, 0, 70, 109
1, 29965, Note_off_c, 0, 70, 109
1, 29968, Note_on_c, 0, 67, 110
1, 30077, Note_off_c, 0, 67, 110
1, 30087, Note_on_c, 0, 65, 114
1, 30168, Note_off_c, 0, 65, 114
1, 30189, Note_on_c, 0, 60, 108
1, 30294, Note_off_c, 0, 60, 108
1, 31630, Note_on_c, 0, 69, 118
1, 31686, Note_off_c, 0, 69, 118
1, 31686, Note_on_c, 0, 71, 113
1, 31724, Note_off_c, 0, 71, 113
1, 31731, Note_on_c, 0, 73, 117
1, 31794, Note_off_c, 0, 73, 117
1, 31794, Note_on_c, 0, 74, 116
1, 31875, Note_off_c, 0, 74, 116
1, 31882, Note_on_c, 0, 73, 114
1, 31934, Note_off_c, 0, 73, 114
1, 31941, Note_on_c, 0, 72, 115
1, 32046, Note_off_c, 0, 72, 115
1, 32046, Note_on_c, 0, 71, 107
1, 32105, Note_off_c, 0, 71, 107
1, 32112, Note_on_c, 0, 70, 106
1, 32126, Note_on_c, 0, 67, 109
1, 32126, Note_off_c, 0, 70, 106
1, 32245, Note_off_c, 0, 67, 109
1, 32315, Note_on_c, 0, 67, 98
1, 32382, Note_off_c, 0, 67, 98
1, 32382, Note_on_c, 0, 74, 109
1, 32508, Note_off_c, 0, 74, 109
1, 32508, Note_on_c, 0, 72, 119
1, 32582, Note_off_c, 0, 72, 119
1, 32582, Note_on_c, 0, 70, 117
1, 32726, Note_off_c, 0, 70, 117
1, 32726, Note_on_c, 0, 67, 99
1, 32761, Note_off_c, 0, 67, 99
1, 32761, Note_on_c, 0, 69, 114
1, 32877, Note_off_c, 0, 69, 114
1, 32887, Note_on_c, 0, 65, 100
1, 32975, Note_off_c, 0, 65, 100
1, 33073, Note_on_c, 0, 69, 103
1, 33136, Note_off_c, 0, 69, 103
1, 33136, Note_on_c, 0, 70, 111
1, 33284, Note_off_c, 0, 70, 111
1, 33284, Note_on_c, 0, 69, 95
1, 33336, Note_off_c, 0, 69, 95
1, 33336, Note_on_c, 0, 70, 114
1, 33459, Note_off_c, 0, 70, 114
1, 33466, Note_on_c, 0, 67, 97
1, 33536, Note_off_c, 0, 67, 97
1, 33536, Note_on_c, 0, 68, 111
1, 33652, Note_off_c, 0, 68, 111
1, 33659, Note_on_c, 0, 65, 113
1, 33747, Note_off_c, 0, 65, 113
1, 33750, Note_on_c, 0, 61, 96
1, 33806, Note_off_c, 0, 61, 96
1, 33806, Note_on_c, 0, 65, 98
1, 33851, Note_off_c, 0, 65, 98
1, 33851, Note_on_c, 0, 68, 109
1, 33921, Note_off_c, 0, 68, 109
1, 33938, Note_on_c, 0, 67, 111
1, 34019, Note_off_c, 0, 67, 111
1, 34019, Note_on_c, 0, 64, 118
1, 34103, Note_off_c, 0, 64, 118
1, 34141, Note_on_c, 0, 62, 113
1, 34232, Note_off_c, 0, 62, 113
1, 34239, Note_on_c, 0, 60, 98
1, 34320, Note_off_c, 0, 60, 98
1, 34323, Note_on_c, 0, 59, 93
1, 34411, Note_off_c, 0, 59, 93
1, 34428, Note_on_c, 0, 61, 105
1, 34498, Note_off_c, 0, 61, 105
1, 34498, Note_on_c, 0, 63, 106
1, 34586, Note_off_c, 0, 63, 106
1, 34621, Note_on_c, 0, 65, 104
1, 34702, Note_off_c, 0, 65, 104
1, 34709, Note_on_c, 0, 67, 109
1, 34818, Note_off_c, 0, 67, 109
1, 34818, Note_on_c, 0, 62, 104
1, 34892, Note_off_c, 0, 62, 104
1, 34899, Note_on_c, 0, 65, 112
1, 35085, Note_off_c, 0, 65, 112
1, 35088, Note_on_c, 0, 62, 112
1, 35169, Note_off_c, 0, 62, 112
1, 35200, Note_on_c, 0, 60, 103
1, 35274, Note_off_c, 0, 60, 103
1, 35302, Note_on_c, 0, 58, 99
1, 35414, Note_off_c, 0, 58, 99
1, 35417, Note_on_c, 0, 55, 94
1, 35462, Note_off_c, 0, 55, 94
1, 35462, Note_on_c, 0, 63, 119
1, 35588, Note_off_c, 0, 63, 119
1, 35591, Note_on_c, 0, 65, 112
1, 35693, Note_off_c, 0, 65, 112
1, 35700, Note_on_c, 0, 67, 109
1, 35805, Note_off_c, 0, 67, 109
1, 35805, Note_on_c, 0, 63, 103
1, 35861, Note_off_c, 0, 63, 103
1, 35861, Note_on_c, 0, 70, 96
1, 35963, Note_off_c, 0, 70, 96
1, 35973, Note_on_c, 0, 66, 109
1, 36040, Note_off_c, 0, 66, 109
1, 36040, Note_on_c, 0, 63, 122
1, 36145, Note_off_c, 0, 63, 122
1, 36173, Note_on_c, 0, 60, 89
1, 36218, Note_off_c, 0, 60, 89
1, 36221, Note_on_c, 0, 65, 115
1, 36330, Note_off_c, 0, 65, 115
1, 36351, Note_on_c, 0, 62, 113
1, 36435, Note_off_c, 0, 62, 113
1, 36456, Note_on_c, 0, 58, 102
1, 36547, Note_off_c, 0, 58, 102
1, 36550, Note_on_c, 0, 55, 96
1, 36620, Note_off_c, 0, 55, 96
1, 36623, Note_on_c, 0, 63, 122
1, 36732, Note_off_c, 0, 63, 122
1, 36756, Note_on_c, 0, 60, 102
1, 36830, Note_off_c, 0, 60, 102
1, 36840, Note_on_c, 0, 57, 96
1, 36903, Note_off_c, 0, 57, 96
1, 36934, Note_on_c, 0, 53, 101
1, 37015, Note_off_c, 0, 53, 101
1, 37018, Note_on_c, 0, 62, 113
1, 37123, Note_off_c, 0, 62, 113
1, 37123, Note_on_c, 0, 60, 104
1, 37211, Note_off_c, 0, 60, 104
1, 37228, Note_on_c, 0, 58, 104
1, 37333, Note_off_c, 0, 58, 104
1, 37333, Note_on_c, 0, 53, 90
1, 37403, Note_off_c, 0, 53, 90
1, 38104, Note_on_c, 0, 60, 102
1, 38209, Note_off_c, 0, 60, 102
1, 38307, Note_on_c, 0, 60, 105
1, 38370, Note_off_c, 0, 60, 105
1, 38370, Note_on_c, 0, 64, 110
1, 38482, Note_off_c, 0, 64, 110
1, 38506, Note_on_c, 0, 67, 102
1, 38590, Note_off_c, 0, 67, 102
1, 38593, Note_on_c, 0, 69, 112
1, 38621, Note_off_c, 0, 69, 112
1, 38624, Note_on_c, 0, 71, 112
1, 38648, Note_off_c, 0, 71, 112
1, 38662, Note_on_c, 0, 72, 113
1, 38690, Note_off_c, 0, 72, 113
1, 38690, Note_on_c, 0, 73, 116
1, 38757, Note_off_c, 0, 73, 116
1, 38757, Note_on_c, 0, 74, 113
1, 38887, Note_off_c, 0, 74, 113
1, 38887, Note_on_c, 0, 71, 110
1, 38968, Note_off_c, 0, 71, 110
1, 38975, Note_on_c, 0, 72, 115
1, 39052, Note_off_c, 0, 72, 115
1, 39052, Note_on_c, 0, 69, 114
1, 39175, Note_off_c, 0, 69, 114
1, 40130, Note_on_c, 0, 61, 109
1, 40239, Note_off_c, 0, 61, 109
1, 40239, Note_on_c, 0, 62, 116
1, 40313, Note_off_c, 0, 62, 116
1, 40313, Note_on_c, 0, 64, 116
1, 40397, Note_off_c, 0, 64, 116
1, 40414, Note_on_c, 0, 61, 103
1, 40509, Note_off_c, 0, 61, 103
1, 40512, Note_on_c, 0, 62, 111
1, 40589, Note_off_c, 0, 62, 111
1, 40589, Note_on_c, 0, 64, 109
1, 40670, Note_off_c, 0, 64, 109
1, 40673, Note_on_c, 0, 65, 114
1, 40785, Note_on_c, 0, 62, 108
1, 40785, Note_off_c, 0, 65, 114
1, 40890, Note_off_c, 0, 62, 108
1, 40900, Note_on_c, 0, 67, 110
1, 40995, Note_off_c, 0, 67, 110
1, 41019, Note_on_c, 0, 64, 120
1, 41082, Note_off_c, 0, 64, 120
1, 41089, Note_on_c, 0, 60, 105
1, 41194, Note_off_c, 0, 60, 105
1, 41215, Note_on_c, 0, 55, 90
1, 41267, Note_off_c, 0, 55, 90
1, 41267, Note_on_c, 0, 58, 96
1, 41383, Note_off_c, 0, 58, 96
1, 41414, Note_on_c, 0, 60, 103
1, 41470, Note_off_c, 0, 60, 103
1, 41508, Note_on_c, 0, 65, 101
1, 41578, Note_off_c, 0, 65, 101
1, 41578, Note_on_c, 0, 69, 108
1, 41613, Note_off_c, 0, 69, 108
1, 41613, Note_on_c, 0, 72, 114
1, 41672, Note_off_c, 0, 72, 114
1, 41675, Note_on_c, 0, 69, 113
1, 41861, Note_off_c, 0, 69, 113
1, 41871, Note_on_c, 0, 64, 112
1, 41987, Note_off_c, 0, 64, 112
1, 41987, Note_on_c, 0, 60, 96
1, 42054, Note_off_c, 0, 60, 96
1, 42061, Note_on_c, 0, 58, 97
1, 42163, Note_off_c, 0, 58, 97
1, 43369, Note_on_c, 0, 57, 99
1, 43436, Note_off_c, 0, 57, 99
1, 43506, Note_on_c, 0, 60, 103
1, 43534, Note_off_c, 0, 60, 103
1, 43537, Note_on_c, 0, 64, 102
1, 43600, Note_off_c, 0, 64, 102
1, 43617, Note_on_c, 0, 68, 113
1, 43719, Note_off_c, 0, 68, 113
1, 43719, Note_on_c, 0, 66, 110
1, 43786, Note_off_c, 0, 66, 110
1, 43810, Note_on_c, 0, 65, 112
1, 43894, Note_off_c, 0, 65, 112
1, 43904, Note_on_c, 0, 63, 118
1, 43985, Note_off_c, 0, 63, 118
1, 43988, Note_on_c, 0, 62, 114
1, 44090, Note_off_c, 0, 62, 114
1, 44097, Note_on_c, 0, 60, 104
1, 44167, Note_off_c, 0, 60, 104
1, 44177, Note_on_c, 0, 58, 101
1, 44275, Note_off_c, 0, 58, 101
1, 44398, Note_on_c, 0, 58, 105
1, 44785, Note_off_c, 0, 58, 105
1, 44820, Note_on_c, 0, 58, 106
1, 44897, Note_off_c, 0, 58, 106
1, 44907, Note_on_c, 0, 60, 109
1, 45033, Note_off_c, 0, 60, 109
1, 46157, Note_on_c, 0, 58, 100
1, 46308, Note_off_c, 0, 58, 100
1, 46346, Note_on_c, 0, 60, 110
1, 46628, Note_off_c, 0, 60, 110
1, 46677, Note_on_c, 0, 58, 91
1, 46736, Note_off_c, 0, 58, 91
1, 46743, Note_on_c, 0, 60, 109
1, 46824, Note_off_c, 0, 60, 109
1, 46834, Note_on_c, 0, 63, 117
1, 46936, Note_off_c, 0, 63, 117
1, 46939, Note_on_c, 0, 62, 113
1, 47027, Note_off_c, 0, 62, 113
1, 47027, Note_on_c, 0, 60, 104
1, 47118, Note_off_c, 0, 60, 104
1, 47128, Note_on_c, 0, 58, 99
1, 47237, Note_off_c, 0, 58, 99
1, 47416, Note_on_c, 0, 58, 102
1, 47514, Note_off_c, 0, 58, 102
1, 47517, Note_on_c, 0, 60, 93
1, 47591, Note_off_c, 0, 60, 93
1, 47601, Note_on_c, 0, 62, 111
1, 47703, Note_off_c, 0, 62, 111
1, 47713, Note_on_c, 0, 63, 99
1, 47797, Note_off_c, 0, 63, 99
1, 47828, Note_on_c, 0, 65, 91
1, 47916, Note_off_c, 0, 65, 91
1, 47916, Note_on_c, 0, 67, 109
1, 48212, Note_on_c, 0, 63, 117
1, 48212, Note_off_c, 0, 67, 109
1, 48349, Note_off_c, 0, 63, 117
1, 48363, Note_on_c, 0, 62, 110
1, 48458, Note_off_c, 0, 62, 110
1, 48470, Note_on_c, 0, 60, 106
1, 48572, Note_off_c, 0, 60, 106
1, 48592, Note_on_c, 0, 58, 97
1, 48831, Note_off_c, 0, 58, 97
1, 49982, Note_on_c, 0, 58, 105
1, 50063, Note_off_c, 0, 58, 105
1, 50260, Note_on_c, 0, 58, 96
1, 50397, Note_off_c, 0, 58, 96
1, 50453, Note_on_c, 0, 58, 103
1, 50541, Note_off_c, 0, 58, 103
1, 50569, Note_on_c, 0, 60, 107
1, 50660, Note_off_c, 0, 60, 107
1, 50667, Note_on_c, 0, 62, 114
1, 50758, Note_off_c, 0, 62, 114
1, 50758, Note_on_c, 0, 60, 107
1, 50842, Note_off_c, 0, 60, 107
1, 50845, Note_on_c, 0, 59, 101
1, 50926, Note_off_c, 0, 59, 101
1, 50943, Note_on_c, 0, 62, 117
1, 51034, Note_off_c, 0, 62, 117
1, 51034, Note_on_c, 0, 60, 108
1, 51118, Note_off_c, 0, 60, 108
1, 51118, Note_on_c, 0, 62, 113
1, 51223, Note_off_c, 0, 62, 113
1, 51223, Note_on_c, 0, 63, 102
1, 51307, Note_off_c, 0, 63, 102
1, 51324, Note_on_c, 0, 64, 100
1, 51408, Note_off_c, 0, 64, 100
1, 51429, Note_on_c, 0, 65, 116
1, 51503, Note_off_c, 0, 65, 116
1, 51527, Note_on_c, 0, 63, 116
1, 51576, Note_off_c, 0, 63, 116
1, 51593, Note_on_c, 0, 62, 35
1, 51716, Note_off_c, 0, 62, 35
1, 51719, Note_on_c, 0, 60, 105
1, 51821, Note_off_c, 0, 60, 105
1, 51919, Note_on_c, 0, 60, 107
1, 52017, Note_off_c, 0, 60, 107
1, 52017, Note_on_c, 0, 62, 92
1, 52098, Note_off_c, 0, 62, 92
1, 52129, Note_on_c, 0, 63, 107
1, 52217, Note_off_c, 0, 63, 107
1, 52220, Note_on_c, 0, 70, 118
1, 52315, Note_off_c, 0, 70, 118
1, 52332, Note_on_c, 0, 69, 114
1, 52395, Note_off_c, 0, 69, 114
1, 52405, Note_on_c, 0, 68, 111
1, 52507, Note_off_c, 0, 68, 111
1, 52535, Note_on_c, 0, 65, 111
1, 52612, Note_off_c, 0, 65, 111
1, 52629, Note_on_c, 0, 62, 91
1, 52681, Note_off_c, 0, 62, 91
1, 52684, Note_on_c, 0, 65, 92
1, 52712, Note_off_c, 0, 65, 92
1, 52712, Note_on_c, 0, 68, 114
1, 52782, Note_off_c, 0, 68, 114
1, 52782, Note_on_c, 0, 67, 107
1, 52859, Note_off_c, 0, 67, 107
1, 52911, Note_on_c, 0, 65, 97
1, 52981, Note_off_c, 0, 65, 97
1, 53005, Note_on_c, 0, 66, 109
1, 53093, Note_off_c, 0, 66, 109
1, 53107, Note_on_c, 0, 63, 117
1, 53205, Note_off_c, 0, 63, 117
1, 53215, Note_on_c, 0, 59, 97
1, 53296, Note_off_c, 0, 59, 97
1, 53296, Note_on_c, 0, 56, 105
1, 53363, Note_off_c, 0, 56, 105
1, 53387, Note_on_c, 0, 65, 115
1, 53485, Note_off_c, 0, 65, 115
1, 53499, Note_on_c, 0, 64, 92
1, 53573, Note_off_c, 0, 64, 92
1, 53590, Note_on_c, 0, 65, 89
1, 53688, Note_off_c, 0, 65, 89
1, 53712, Note_on_c, 0, 67, 89
1, 53786, Note_off_c, 0, 67, 89
1, 53796, Note_on_c, 0, 68, 111
1, 53891, Note_off_c, 0, 68, 111
1, 53898, Note_on_c, 0, 67, 112
1, 53968, Note_off_c, 0, 67, 112
1, 53975, Note_on_c, 0, 65, 110
1, 54045, Note_off_c, 0, 65, 110
1, 54069, Note_on_c, 0, 62, 116
1, 54160, Note_off_c, 0, 62, 116
1, 54160, Note_on_c, 0, 63, 109
1, 54265, Note_off_c, 0, 63, 109
1, 54268, Note_on_c, 0, 65, 114
1, 54338, Note_off_c, 0, 65, 114
1, 54348, Note_on_c, 0, 67, 109
1, 54446, Note_off_c, 0, 67, 109
1, 54502, Note_on_c, 0, 63, 100
1, 54579, Note_off_c, 0, 63, 100
1, 54582, Note_on_c, 0, 70, 99
1, 54656, Note_off_c, 0, 70, 99
1, 54670, Note_on_c, 0, 66, 111
1, 54747, Note_off_c, 0, 66, 111
1, 54764, Note_on_c, 0, 63, 117
1, 54873, Note_off_c, 0, 63, 117
1, 54897, Note_on_c, 0, 60, 101
1, 54971, Note_off_c, 0, 60, 101
1, 54971, Note_on_c, 0, 62, 116
1, 55066, Note_off_c, 0, 62, 116
1, 55076, Note_on_c, 0, 65, 104
1, 55150, Note_off_c, 0, 65, 104
1, 55150, Note_on_c, 0, 67, 111
1, 55231, Note_off_c, 0, 67, 111
1, 55231, Note_on_c, 0, 70, 117
1, 55336, Note_off_c, 0, 70, 117
1, 56954, Note_on_c, 0, 67, 107
1, 56982, Note_off_c, 0, 67, 107
1, 56989, Note_on_c, 0, 69, 117
1, 57479, Note_off_c, 0, 69, 117
1, 57503, Note_on_c, 0, 67, 106
1, 57598, Note_off_c, 0, 67, 106
1, 57615, Note_on_c, 0, 63, 118
1, 57925, Note_off_c, 0, 63, 118
1, 58080, Note_on_c, 0, 63, 117
1, 58185, Note_off_c, 0, 63, 117
1, 58357, Note_on_c, 0, 63, 98
1, 58445, Note_off_c, 0, 63, 98
1, 58473, Note_on_c, 0, 67, 94
1, 58659, Note_off_c, 0, 67, 94
1, 59258, Note_on_c, 0, 67, 116
1, 59370, Note_on_c, 0, 66, 113
1, 59370, Note_off_c, 0, 67, 116
1, 59422, Note_off_c, 0, 66, 113
1, 59439, Note_on_c, 0, 65, 115
1, 59527, Note_off_c, 0, 65, 115
1, 59551, Note_on_c, 0, 63, 117
1, 59625, Note_off_c, 0, 63, 117
1, 59639, Note_on_c, 0, 62, 117
1, 59734, Note_on_c, 0, 60, 110
1, 59734, Note_off_c, 0, 62, 117
1, 59846, Note_off_c, 0, 60, 110
1, 59860, Note_on_c, 0, 58, 108
1, 59905, Note_off_c, 0, 58, 108
1, 60017, Note_on_c, 0, 63, 116
1, 60136, Note_off_c, 0, 63, 116
1, 60143, Note_on_c, 0, 60, 108
1, 60227, Note_off_c, 0, 60, 108
1, 60230, Note_on_c, 0, 56, 106
1, 60307, Note_off_c, 0, 56, 106
1, 60331, Note_on_c, 0, 58, 112
1, 60419, Note_off_c, 0, 58, 112
1, 60595, Note_on_c, 0, 58, 108
1, 60714, Note_off_c, 0, 58, 108
1, 60795, Note_on_c, 0, 65, 115
1, 60890, Note_off_c, 0, 65, 115
1, 60914, Note_on_c, 0, 63, 120
1, 61009, Note_off_c, 0, 63, 120
1, 61009, Note_on_c, 0, 58, 103
1, 61090, Note_off_c, 0, 58, 103
1, 61121, Note_on_c, 0, 54, 101
1, 61198, Note_off_c, 0, 54, 101
1, 61201, Note_on_c, 0, 53, 93
1, 61282, Note_off_c, 0, 53, 93
1, 61285, Note_on_c, 0, 63, 111
1, 61478, Note_off_c, 0, 63, 111
1, 61492, Note_on_c, 0, 61, 97
1, 61576, Note_off_c, 0, 61, 97
1, 61576, Note_on_c, 0, 62, 112
1, 61685, Note_off_c, 0, 62, 112
1, 61737, Note_on_c, 0, 53, 96
1, 61786, Note_off_c, 0, 53, 96
1, 61814, Note_on_c, 0, 57, 93
1, 61859, Note_off_c, 0, 57, 93
1, 61859, Note_on_c, 0, 60, 105
1, 61947, Note_off_c, 0, 60, 105
1, 62063, Note_on_c, 0, 58, 110
1, 62133, Note_off_c, 0, 58, 110
1, 62284, Note_on_c, 0, 65, 114
1, 62319, Note_off_c, 0, 65, 114
1, 62357, Note_on_c, 0, 69, 117
1, 62469, Note_off_c, 0, 69, 117
1, 62469, Note_on_c, 0, 67, 109
1, 62557, Note_off_c, 0, 67, 109
1, 62560, Note_on_c, 0, 65, 114
1, 62648, Note_off_c, 0, 65, 114
1, 62658, Note_on_c, 0, 62, 106
1, 62749, Note_off_c, 0, 62, 106
1, 62749, Note_on_c, 0, 64, 115
1, 62890, Note_off_c, 0, 64, 115
1, 62893, Note_on_c, 0, 61, 105
1, 62984, Note_off_c, 0, 61, 105
1, 63139, Note_on_c, 0, 65, 112
1, 63230, Note_off_c, 0, 65, 112
1, 63230, Note_on_c, 0, 62, 108
1, 63286, Note_off_c, 0, 62, 108
1, 63300, Note_on_c, 0, 60, 102
1, 63374, Note_off_c, 0, 60, 102
1, 63381, Note_on_c, 0, 57, 94
1, 63433, Note_off_c, 0, 57, 94
1, 63457, Note_on_c, 0, 56, 107
1, 63513, Note_off_c, 0, 56, 107
1, 63516, Note_on_c, 0, 64, 110
1, 63625, Note_off_c, 0, 64, 110
1, 63625, Note_on_c, 0, 60, 104
1, 63709, Note_off_c, 0, 60, 104
1, 63730, Note_on_c, 0, 56, 101
1, 63821, Note_off_c, 0, 56, 101
1, 63821, Note_on_c, 0, 52, 92
1, 63888, Note_off_c, 0, 52, 92
1, 63905, Note_on_c, 0, 55, 99
1, 64021, Note_off_c, 0, 55, 99
1, 64049, Note_on_c, 0, 54, 98
1, 64116, Note_off_c, 0, 54, 98
1, 64687, Note_on_c, 0, 70, 119
1, 64768, Note_off_c, 0, 70, 119
1, 64768, Note_on_c, 0, 66, 117
1, 64842, Note_off_c, 0, 66, 117
1, 64856, Note_on_c, 0, 65, 114
1, 64972, Note_off_c, 0, 65, 114
1, 64972, Note_on_c, 0, 63, 120
1, 65049, Note_off_c, 0, 63, 120
1, 65063, Note_on_c, 0, 62, 117
1, 65122, Note_off_c, 0, 62, 117
1, 65146, Note_on_c, 0, 64, 113
1, 65237, Note_off_c, 0, 64, 113
1, 65244, Note_on_c, 0, 65, 113
1, 65349, Note_off_c, 0, 65, 113
1, 65349, Note_on_c, 0, 62, 109
1, 65447, Note_off_c, 0, 62, 109
1, 65447, Note_on_c, 0, 67, 113
1, 65552, Note_off_c, 0, 67, 113
1, 65552, Note_on_c, 0, 63, 123
1, 65619, Note_off_c, 0, 63, 123
1, 65619, Note_on_c, 0, 59, 100
1, 65714, Note_off_c, 0, 59, 100
1, 65721, Note_on_c, 0, 58, 91
1, 65766, Note_off_c, 0, 58, 91
1, 65866, Note_on_c, 0, 67, 109
1, 65915, Note_off_c, 0, 67, 109
1, 65920, Note_on_c, 0, 69, 120
1, 66434, Note_off_c, 0, 69, 120
1, 66483, Note_on_c, 0, 69, 115
1, 66807, Note_off_c, 0, 69, 115
1, 66810, Note_on_c, 0, 64, 115
1, 66915, Note_off_c, 0, 64, 115
1, 66922, Note_on_c, 0, 60, 100
1, 66985, Note_off_c, 0, 60, 100
1, 67006, Note_on_c, 0, 58, 98
1, 67097, Note_off_c, 0, 58, 98
1, 67097, Note_on_c, 0, 60, 102
1, 67181, Note_off_c, 0, 60, 102
1, 67223, Note_on_c, 0, 64, 95
1, 67282, Note_off_c, 0, 64, 95
1, 67303, Note_on_c, 0, 69, 119
1, 67394, Note_off_c, 0, 69, 119
1, 67397, Note_on_c, 0, 67, 109
1, 67509, Note_off_c, 0, 67, 109
1, 67523, Note_on_c, 0, 60, 92
1, 67565, Note_off_c, 0, 60, 92
1, 67586, Note_on_c, 0, 62, 107
1, 67674, Note_off_c, 0, 62, 107
1, 67681, Note_on_c, 0, 63, 119
1, 67850, Note_off_c, 0, 63, 119
1, 68999, Note_on_c, 0, 65, 111
1, 69097, Note_off_c, 0, 65, 111
1, 69178, Note_on_c, 0, 62, 112
1, 69273, Note_off_c, 0, 62, 112
1, 69276, Note_on_c, 0, 63, 117
1, 69374, Note_off_c, 0, 63, 117
1, 69388, Note_on_c, 0, 65, 112
1, 69476, Note_off_c, 0, 65, 112
1, 69476, Note_on_c, 0, 67, 108
1, 69571, Note_off_c, 0, 67, 108
1, 69585, Note_on_c, 0, 69, 117
1, 69687, Note_off_c, 0, 69, 117
1, 69694, Note_on_c, 0, 70, 118
1, 69778, Note_off_c, 0, 70, 118
1, 69799, Note_on_c, 0, 69, 103
1, 69899, Note_off_c, 0, 69, 103
1, 69907, Note_on_c, 0, 72, 115
1, 70153, Note_off_c, 0, 72, 115
1, 70160, Note_on_c, 0, 70, 115
1, 70477, Note_off_c, 0, 70, 115
1, 70554, Note_on_c, 0, 70, 118
1, 70649, Note_off_c, 0, 70, 118
1, 70666, Note_on_c, 0, 69, 104
1, 70725, Note_off_c, 0, 69, 104
1, 70739, Note_on_c, 0, 70, 105
1, 70820, Note_off_c, 0, 70, 105
1, 70844, Note_on_c, 0, 73, 112
1, 70925, Note_on_c, 0, 74, 107
1, 70925, Note_off_c, 0, 73, 112
1, 71037, Note_off_c, 0, 74, 107
1, 71037, Note_on_c, 0, 73, 96
1, 71072, Note_off_c, 0, 73, 96
1, 71075, Note_on_c, 0, 71, 113
1, 71191, Note_off_c, 0, 71, 113
1, 71208, Note_on_c, 0, 74, 107
1, 71275, Note_off_c, 0, 74, 107
1, 71278, Note_on_c, 0, 72, 111
1, 71390, Note_off_c, 0, 72, 111
1, 71397, Note_on_c, 0, 67, 98
1, 71481, Note_off_c, 0, 67, 98
1, 71488, Note_on_c, 0, 70, 119
1, 71600, Note_on_c, 0, 67, 98
1, 71600, Note_off_c, 0, 70, 119
1, 71698, Note_off_c, 0, 67, 98
1, 71705, Note_on_c, 0, 69, 111
1, 71791, Note_off_c, 0, 69, 111
1, 71810, Note_on_c, 0, 67, 115
1, 71905, Note_off_c, 0, 67, 115
1, 71908, Note_on_c, 0, 65, 113
1, 71982, Note_off_c, 0, 65, 113
1, 72020, Note_on_c, 0, 63, 122
1, 72104, Note_off_c, 0, 63, 122
1, 72107, Note_on_c, 0, 62, 117
1, 72332, Note_off_c, 0, 62, 117
1, 72427, Note_on_c, 0, 72, 114
1, 72490, Note_off_c, 0, 72, 114
1, 72490, Note_on_c, 0, 70, 114
1, 72779, Note_off_c, 0, 70, 114
1, 72807, Note_on_c, 0, 68, 112
1, 72888, Note_off_c, 0, 68, 112
1, 72888, Note_on_c, 0, 67, 108
1, 72976, Note_off_c, 0, 67, 108
1, 72976, Note_on_c, 0, 63, 119
1, 73092, Note_off_c, 0, 63, 119
1, 74585, Note_on_c, 0, 63, 120
1, 74630, Note_off_c, 0, 63, 120
1, 74631, Note_on_c, 0, 65, 112
1, 75138, Note_off_c, 0, 65, 112
1, 75190, Note_on_c, 0, 65, 115
1, 75260, Note_off_c, 0, 65, 115
1, 75369, Note_on_c, 0, 65, 114
1, 75503, Note_off_c, 0, 65, 114
1, 75510, Note_on_c, 0, 62, 113
1, 75573, Note_off_c, 0, 62, 113
1, 75576, Note_on_c, 0, 63, 119
1, 75903, Note_off_c, 0, 63, 119
1, 75913, Note_on_c, 0, 61, 102
1, 75965, Note_off_c, 0, 61, 102
1, 75979, Note_on_c, 0, 62, 113
1, 76155, Note_off_c, 0, 62, 113
1, 76169, Note_on_c, 0, 58, 97
1, 76264, Note_off_c, 0, 58, 97
1, 76264, Note_on_c, 0, 60, 104
1, 76331, Note_off_c, 0, 60, 104
1, 76440, Note_on_c, 0, 62, 111
1, 76528, Note_off_c, 0, 62, 111
1, 76542, Note_on_c, 0, 63, 118
1, 76626, Note_off_c, 0, 63, 118
1, 76654, Note_on_c, 0, 67, 106
1, 76745, Note_off_c, 0, 67, 106
1, 76745, Note_on_c, 0, 65, 106
1, 76857, Note_off_c, 0, 65, 106
1, 76857, Note_on_c, 0, 62, 114
1, 76945, Note_off_c, 0, 62, 114
1, 76948, Note_on_c, 0, 63, 116
1, 77067, Note_off_c, 0, 63, 116
1, 77067, Note_on_c, 0, 60, 96
1, 77126, Note_off_c, 0, 60, 96
1, 77154, Note_on_c, 0, 62, 114
1, 77249, Note_off_c, 0, 62, 114
1, 77256, Note_on_c, 0, 60, 102
1, 77301, Note_off_c, 0, 60, 102
1, 77322, Note_on_c, 0, 59, 98
1, 77424, Note_off_c, 0, 59, 98
1, 77547, Note_on_c, 0, 60, 95
1, 77698, Note_off_c, 0, 60, 95
1, 77874, Note_on_c, 0, 64, 98
1, 77962, Note_off_c, 0, 64, 98
1, 77962, Note_on_c, 0, 65, 112
1, 78043, Note_off_c, 0, 65, 112
1, 78053, Note_on_c, 0, 63, 118
1, 78127, Note_off_c, 0, 63, 118
1, 78148, Note_on_c, 0, 62, 111
1, 78222, Note_off_c, 0, 62, 111
1, 78222, Note_on_c, 0, 60, 106
1, 78289, Note_off_c, 0, 60, 106
1, 78338, Note_on_c, 0, 58, 101
1, 78415, Note_off_c, 0, 58, 101
1, 78425, Note_on_c, 0, 60, 99
1, 78492, Note_off_c, 0, 60, 99
1, 78530, Note_on_c, 0, 62, 98
1, 78611, Note_off_c, 0, 62, 98
1, 78639, Note_on_c, 0, 65, 103
1, 78716, Note_off_c, 0, 65, 103
1, 78716, Note_on_c, 0, 70, 112
1, 78807, Note_off_c, 0, 70, 112
1, 78807, Note_on_c, 0, 67, 110
1, 78888, Note_off_c, 0, 67, 110
1, 78923, Note_on_c, 0, 68, 117
1, 79028, Note_off_c, 0, 68, 117
1, 79028, Note_on_c, 0, 65, 104
1, 79102, Note_off_c, 0, 65, 104
1, 79102, Note_on_c, 0, 67, 113
1, 79193, Note_off_c, 0, 67, 113
1, 79193, Note_on_c, 0, 63, 105
1, 79277, Note_off_c, 0, 63, 105
1, 79284, Note_on_c, 0, 65, 118
1, 79365, Note_off_c, 0, 65, 118
1, 79372, Note_on_c, 0, 62, 109
1, 79453, Note_off_c, 0, 62, 109
1, 79460, Note_on_c, 0, 63, 115
1, 79583, Note_off_c, 0, 63, 115
1, 79583, Note_on_c, 0, 61, 112
1, 79664, Note_off_c, 0, 61, 112
1, 79678, Note_on_c, 0, 58, 102
1, 79752, Note_off_c, 0, 58, 102
1, 79780, Note_on_c, 0, 54, 104
1, 79861, Note_off_c, 0, 54, 104
1, 79875, Note_on_c, 0, 53, 96
1, 79927, Note_off_c, 0, 53, 96
1, 79962, Note_on_c, 0, 63, 120
1, 80050, Note_off_c, 0, 63, 120
1, 80064, Note_on_c, 0, 62, 115
1, 80148, Note_off_c, 0, 62, 115
1, 80165, Note_on_c, 0, 60, 112
1, 80256, Note_off_c, 0, 60, 112
1, 80270, Note_on_c, 0, 58, 105
1, 80368, Note_off_c, 0, 58, 105
1, 80438, Note_on_c, 0, 55, 104
1, 80526, Note_off_c, 0, 55, 104
1, 80550, Note_on_c, 0, 58, 108
1, 80715, Note_off_c, 0, 58, 108
1, 81169, Note_on_c, 0, 58, 99
1, 81211, Note_off_c, 0, 58, 99
1, 81426, Note_on_c, 0, 58, 100
1, 81556, Note_off_c, 0, 58, 100
1, 81753, Note_on_c, 0, 63, 112
1, 81894, Note_off_c, 0, 63, 112
1, 81964, Note_on_c, 0, 59, 110
1, 82031, Note_off_c, 0, 59, 110
1, 82232, Note_on_c, 0, 60, 114
1, 82334, Note_off_c, 0, 60, 114
1, 82517, Note_on_c, 0, 64, 123
1, 82661, Note_off_c, 0, 64, 123
1, 83831, Note_on_c, 0, 65, 121
1, 83915, Note_off_c, 0, 65, 121
1, 83915, Note_on_c, 0, 64, 114
1, 83985, Note_off_c, 0, 64, 114
1, 84013, Note_on_c, 0, 65, 111
1, 84104, Note_off_c, 0, 65, 111
1, 84104, Note_on_c, 0, 67, 108
1, 84174, Note_off_c, 0, 67, 108
1, 84174, Note_on_c, 0, 69, 120
1, 84251, Note_off_c, 0, 69, 120
1, 84279, Note_on_c, 0, 67, 117
1, 84360, Note_off_c, 0, 67, 117
1, 84360, Note_on_c, 0, 65, 115
1, 84451, Note_off_c, 0, 65, 115
1, 84475, Note_on_c, 0, 63, 121
1, 84570, Note_off_c, 0, 63, 121
1, 84584, Note_on_c, 0, 62, 109
1, 84661, Note_off_c, 0, 62, 109
1, 84668, Note_on_c, 0, 60, 113
1, 84745, Note_off_c, 0, 60, 113
1, 84766, Note_on_c, 0, 58, 96
1, 84808, Note_off_c, 0, 58, 96
1, 84839, Note_on_c, 0, 55, 98
1, 84927, Note_off_c, 0, 55, 98
1, 84927, Note_on_c, 0, 63, 125
1, 85159, Note_off_c, 0, 63, 125
1, 85159, Note_on_c, 0, 62, 119
1, 85243, Note_off_c, 0, 62, 119
1, 85246, Note_on_c, 0, 60, 111
1, 85341, Note_off_c, 0, 60, 111
1, 85355, Note_on_c, 0, 58, 110
1, 85450, Note_off_c, 0, 58, 110
1, 85450, Note_on_c, 0, 55, 106
1, 85527, Note_off_c, 0, 55, 106
1, 85548, Note_on_c, 0, 53, 104
1, 85607, Note_off_c, 0, 53, 104
1, 85751, Note_on_c, 0, 58, 108
1, 85853, Note_off_c, 0, 58, 108
1, 86519, Note_on_c, 0, 57, 102
1, 86624, Note_off_c, 0, 57, 102
1, 86775, Note_on_c, 0, 55, 105
1, 86831, Note_off_c, 0, 55, 105
1, 86834, Note_on_c, 0, 57, 105
1, 86886, Note_off_c, 0, 57, 105
1, 86914, Note_on_c, 0, 58, 105
1, 86977, Note_off_c, 0, 58, 105
1, 86984, Note_on_c, 0, 60, 114
1, 87079, Note_off_c, 0, 60, 114
1, 87082, Note_on_c, 0, 62, 109
1, 87159, Note_off_c, 0, 62, 109
1, 87162, Note_on_c, 0, 63, 114
1, 87239, Note_off_c, 0, 63, 114
1, 87242, Note_on_c, 0, 65, 119
1, 87330, Note_off_c, 0, 65, 119
1, 87386, Note_on_c, 0, 60, 117
1, 87460, Note_off_c, 0, 60, 117
1, 88419, Note_on_c, 0, 64, 122
1, 88486, Note_off_c, 0, 64, 122
1, 88486, Note_on_c, 0, 60, 105
1, 88556, Note_off_c, 0, 60, 105
1, 88556, Note_on_c, 0, 64, 116
1, 88637, Note_off_c, 0, 64, 116
1, 88637, Note_on_c, 0, 67, 114
1, 88718, Note_off_c, 0, 67, 114
1, 88718, Note_on_c, 0, 64, 110
1, 88795, Note_on_c, 0, 67, 115
1, 88795, Note_off_c, 0, 64, 110
1, 88844, Note_off_c, 0, 67, 115
1, 88844, Note_on_c, 0, 71, 118
1, 88953, Note_off_c, 0, 71, 118
1, 88974, Note_on_c, 0, 74, 86
1, 89171, Note_off_c, 0, 74, 86
1, 90006, Note_on_c, 0, 57, 103
1, 90136, Note_off_c, 0, 57, 103
1, 90174, Note_on_c, 0, 57, 94
1, 90262, Note_off_c, 0, 57, 94
1, 90300, Note_on_c, 0, 60, 104
1, 90367, Note_off_c, 0, 60, 104
1, 90367, Note_on_c, 0, 59, 104
1, 90479, Note_off_c, 0, 59, 104
1, 91124, Note_on_c, 0, 66, 108
1, 91258, Note_on_c, 0, 67, 111
1, 91258, Note_off_c, 0, 66, 108
1, 91332, Note_off_c, 0, 67, 111
1, 91339, Note_on_c, 0, 64, 106
1, 91434, Note_off_c, 0, 64, 106
1, 91437, Note_on_c, 0, 60, 101
1, 91511, Note_off_c, 0, 60, 101
1, 91525, Note_on_c, 0, 58, 99
1, 91577, Note_off_c, 0, 58, 99
1, 91612, Note_on_c, 0, 60, 106
1, 91668, Note_off_c, 0, 60, 106
1, 91668, Note_on_c, 0, 62, 103
1, 91724, Note_off_c, 0, 62, 103
1, 91741, Note_on_c, 0, 65, 91
1, 91786, Note_off_c, 0, 65, 91
1, 91786, Note_on_c, 0, 69, 99
1, 91821, Note_off_c, 0, 69, 99
1, 91821, Note_on_c, 0, 71, 110
1, 91884, Note_off_c, 0, 71, 110
1, 91901, Note_on_c, 0, 69, 105
1, 92003, Note_off_c, 0, 69, 105
1, 92003, Note_on_c, 0, 64, 115
1, 92087, Note_off_c, 0, 64, 115
1, 92094, Note_on_c, 0, 62, 113
1, 92206, Note_off_c, 0, 62, 113
1, 92206, Note_on_c, 0, 63, 108
1, 92301, Note_off_c, 0, 63, 108
1, 92301, Note_on_c, 0, 65, 112
1, 92396, Note_off_c, 0, 65, 112
1, 92420, Note_on_c, 0, 62, 107
1, 92522, Note_off_c, 0, 62, 107
1, 92525, Note_on_c, 0, 63, 108
1, 92616, Note_off_c, 0, 63, 108
1, 92616, Note_on_c, 0, 65, 104
1, 92679, Note_off_c, 0, 65, 104
1, 92693, Note_on_c, 0, 67, 108
1, 92798, Note_off_c, 0, 67, 108
1, 92819, Note_on_c, 0, 64, 109
1, 92840, Note_off_c, 0, 64, 109
1, 92850, Note_on_c, 0, 62, 111
1, 92962, Note_off_c, 0, 62, 111
1, 93060, Note_on_c, 0, 64, 117
1, 93190, Note_off_c, 0, 64, 117
1, 93190, Note_on_c, 0, 61, 109
1, 93232, Note_off_c, 0, 61, 109
1, 93260, Note_on_c, 0, 56, 104
1, 93302, Note_off_c, 0, 56, 104
1, 93305, Note_on_c, 0, 53, 104
1, 93372, Note_off_c, 0, 53, 104
1, 93460, Note_on_c, 0, 61, 104
1, 93583, Note_off_c, 0, 61, 104
1, 94210, Note_on_c, 0, 61, 106
1, 94273, Note_off_c, 0, 61, 106
1, 94276, Note_on_c, 0, 62, 115
1, 94417, Note_off_c, 0, 62, 115
1, 94434, Note_on_c, 0, 65, 106
1, 94522, Note_off_c, 0, 65, 106
1, 94610, Note_on_c, 0, 63, 119
1, 94807, Note_off_c, 0, 63, 119
1, 94831, Note_on_c, 0, 65, 113
1, 94922, Note_off_c, 0, 65, 113
1, 95006, Note_on_c, 0, 68, 108
1, 95058, Note_off_c, 0, 68, 108
1, 95061, Note_on_c, 0, 69, 117
1, 95198, Note_off_c, 0, 69, 117
1, 95208, Note_on_c, 0, 65, 99
1, 95296, Note_off_c, 0, 65, 99
1, 95296, Note_on_c, 0, 70, 117
1, 95772, Note_off_c, 0, 70, 117
1, 96597, Note_on_c, 0, 69, 114
1, 96635, Note_off_c, 0, 69, 114
1, 96635, Note_on_c, 0, 70, 118
1, 96881, Note_off_c, 0, 70, 118
1, 96905, Note_on_c, 0, 69, 116
1, 96989, Note_off_c, 0, 69, 116
1, 96989, Note_on_c, 0, 68, 115
1, 97087, Note_off_c, 0, 68, 115
1, 97097, Note_on_c, 0, 67, 116
1, 97192, Note_off_c, 0, 67, 116
1, 97280, Note_on_c, 0, 62, 100
1, 97368, Note_off_c, 0, 62, 100
1, 97382, Note_on_c, 0, 67, 94
1, 97547, Note_off_c, 0, 67, 94
1, 97705, Note_on_c, 0, 62, 100
1, 97775, Note_off_c, 0, 62, 100
1, 97775, Note_on_c, 0, 65, 112
1, 97873, Note_off_c, 0, 65, 112
1, 97890, Note_on_c, 0, 63, 104
1, 97985, Note_off_c, 0, 63, 104
1, 97985, Note_on_c, 0, 70, 117
1, 98076, Note_off_c, 0, 70, 117
1, 98076, Note_on_c, 0, 66, 111
1, 98164, Note_off_c, 0, 66, 111
1, 98164, Note_on_c, 0, 65, 110
1, 98262, Note_off_c, 0, 65, 110
1, 98262, Note_on_c, 0, 63, 118
1, 98343, Note_off_c, 0, 63, 118
1, 98357, Note_on_c, 0, 62, 115
1, 98459, Note_off_c, 0, 62, 115
1, 98459, Note_on_c, 0, 60, 101
1, 98536, Note_off_c, 0, 60, 101
1, 98546, Note_on_c, 0, 58, 86
1, 98605, Note_off_c, 0, 58, 86
1, 98668, Note_on_c, 0, 60, 93
1, 98770, Note_off_c, 0, 60, 93
1, 98784, Note_on_c, 0, 63, 96
1, 98840, Note_off_c, 0, 63, 96
1, 98854, Note_on_c, 0, 65, 101
1, 98928, Note_off_c, 0, 65, 101
1, 98928, Note_on_c, 0, 69, 117
1, 99009, Note_off_c, 0, 69, 117
1, 99009, Note_on_c, 0, 70, 116
1, 99100, Note_off_c, 0, 70, 116
1, 99100, Note_on_c, 0, 65, 109
1, 99216, Note_off_c, 0, 65, 109
1, 99223, Note_on_c, 0, 62, 105
1, 99311, Note_off_c, 0, 62, 105
1, 99311, Note_on_c, 0, 66, 106
1, 99385, Note_off_c, 0, 66, 106
1, 99392, Note_on_c, 0, 67, 112
1, 99487, Note_off_c, 0, 67, 112
1, 99487, Note_on_c, 0, 63, 117
1, 99635, Note_off_c, 0, 63, 117
1, 99635, Note_on_c, 0, 60, 95
1, 99691, Note_off_c, 0, 60, 95
1, 99691, Note_on_c, 0, 65, 105
1, 99839, Note_off_c, 0, 65, 105
1, 99839, Note_on_c, 0, 61, 105
1, 99895, Note_off_c, 0, 61, 105
1, 99905, Note_on_c, 0, 57, 93
1, 99975, Note_off_c, 0, 57, 93
1, 99978, Note_on_c, 0, 54, 94
1, 100066, Note_off_c, 0, 54, 94
1, 100080, Note_on_c, 0, 53, 99
1, 100154, Note_off_c, 0, 53, 99
1, 100171, Note_on_c, 0, 63, 113
1, 100266, Note_off_c, 0, 63, 113
1, 100280, Note_on_c, 0, 62, 106
1, 100382, Note_off_c, 0, 62, 106
1, 100382, Note_on_c, 0, 60, 102
1, 100473, Note_off_c, 0, 60, 102
1, 100487, Note_on_c, 0, 58, 91
1, 100652, Note_off_c, 0, 58, 91
1, 100652, End_track
0, 0, End_of_file
