0, 0, Header, 1, 1, 192
1, 0, Start_track
1, 0, Title_t, "Melody"
1, 0, Tempo, 340909
1, 0, Key_signature, -3, "major"
1, 0, Time_signature, 4, 2, 24, 8
1, 2870, Note_on_c, 0, 58, 110
1, 2987, Note_off_c, 0, 58, 110
1, 2991, Note_on_c, 0, 60, 107
1, 3064, Note_off_c, 0, 60, 107
1, 3077, Note_on_c, 0, 63, 107
1, 3199, Note_off_c, 0, 63, 107
1, 3210, Note_on_c, 0, 65, 115
1, 3252, Note_off_c, 0, 65, 115
1, 3263, Note_on_c, 0, 67, 112
1, 3320, Note_off_c, 0, 67, 112
1, 3388, Note_on_c, 0, 63, 99
1, 3469, Note_off_c, 0, 63, 99
1, 3570, Note_on_c, 0, 63, 78
1, 3826, Note_off_c, 0, 63, 78
1, 4429, Note_on_c, 0, 69, 124
1, 4474, Note_off_c, 0, 69, 124
1, 4478, Note_on_c, 0, 70, 119
1, 4564, Note_off_c, 0, 70, 119
1, 4565, Note_on_c, 0, 68, 108
1, 4635, Note_off_c, 0, 68, 108
1, 4639, Note_on_c, 0, 67, 98
1, 4724, Note_off_c, 0, 67, 98
1, 4745, Note_on_c, 0, 63, 89
1, 4813, Note_off_c, 0, 63, 89
1, 4824, Note_on_c, 0, 60, 91
1, 4902, Note_off_c, 0, 60, 91
1, 4919, Note_on_c, 0, 55, 95
1, 4997, Note_off_c, 0, 55, 95
1, 5003, Note_on_c, 0, 56, 92
1, 5101, Note_off_c, 0, 56, 92
1, 5115, Note_on_c, 0, 56, 91
1, 5173, Note_off_c, 0, 56, 91
1, 5179, Note_on_c, 0, 55, 97
1, 5313, Note_off_c, 0, 55, 97
1, 5324, Note_on_c, 0, 58, 99
1, 5382, Note_off_c, 0, 58, 99
1, 5386, Note_on_c, 0, 60, 102
1, 5488, Note_off_c, 0, 60, 102
1, 5501, Note_on_c, 0, 63, 87
1, 5752, Note_off_c, 0, 63, 87
1, 5948, Note_on_c, 0, 58, 115
1, 6068, Note_off_c, 0, 58, 115
1, 6074, Note_on_c, 0, 60, 106
1, 6144, Note_off_c, 0, 60, 106
1, 6150, Note_on_c, 0, 63, 106
1, 6231, Note_off_c, 0, 63, 106
1, 6266, Note_on_c, 0, 65, 124
1, 6308, Note_off_c, 0, 65, 124
1, 6316, Note_on_c, 0, 66, 101
1, 6410, Note_off_c, 0, 66, 101
1, 6463, Note_on_c, 0, 63, 94
1, 6580, Note_off_c, 0, 63, 94
1, 6663, Note_on_c, 0, 63, 84
1, 6937, Note_off_c, 0, 63, 84
1, 7487, Note_on_c, 0, 70, 122
1, 7607, Note_off_c, 0, 70, 122
1, 7608, Note_on_c, 0, 68, 114
1, 7675, Note_off_c, 0, 68, 114
1, 7676, Note_on_c, 0, 66, 116
1, 7770, Note_off_c, 0, 66, 116
1, 7804, Note_on_c, 0, 63, 83
1, 7849, Note_off_c, 0, 63, 83
1, 7853, Note_on_c, 0, 67, 103
1, 7959, Note_off_c, 0, 67, 103
1, 7985, Note_on_c, 0, 58, 103
1, 8133, Note_off_c, 0, 58, 103
1, 8141, Note_on_c, 0, 57, 95
1, 8170, Note_off_c, 0, 57, 95
1, 8176, Note_on_c, 0, 56, 99
1, 8231, Note_off_c, 0, 56, 99
1, 8245, Note_on_c, 0, 55, 97
1, 8365, Note_off_c, 0, 55, 97
1, 8376, Note_on_c, 0, 58, 94
1, 8423, Note_off_c, 0, 58, 94
1, 8431, Note_on_c, 0, 60, 101
1, 8533, Note_off_c, 0, 60, 101
1, 8541, Note_on_c, 0, 58, 83
1, 8598, Note_off_c, 0, 58, 83
1, 8609, Note_on_c, 0, 65, 109
1, 8739, Note_off_c, 0, 65, 109
1, 8802, Note_on_c, 0, 65, 107
1, 8909, Note_off_c, 0, 65, 107
1, 8933, Note_on_c, 0, 65, 88
1, 9194, Note_off_c, 0, 65, 88
1, 9208, Note_on_c, 0, 63, 87
1, 9338, Note_off_c, 0, 63, 87
1, 9339, Note_on_c, 0, 60, 85
1, 9378, Note_off_c, 0, 60, 85
1, 9382, Note_on_c, 0, 67, 94
1, 9507, Note_off_c, 0, 67, 94
1, 9521, Note_on_c, 0, 58, 91
1, 9655, Note_off_c, 0, 58, 91
1, 10292, Note_on_c, 0, 67, 123
1, 10359, Note_off_c, 0, 67, 123
1, 10360, Note_on_c, 0, 70, 114
1, 10497, Note_off_c, 0, 70, 114
1, 10501, Note_on_c, 0, 68, 112
1, 10553, Note_off_c, 0, 68, 112
1, 10559, Note_on_c, 0, 66, 105
1, 10665, Note_off_c, 0, 66, 105
1, 10682, Note_on_c, 0, 63, 105
1, 10727, Note_off_c, 0, 63, 105
1, 10736, Note_on_c, 0, 58, 102
1, 10868, Note_off_c, 0, 58, 102
1, 10881, Note_on_c, 0, 55, 99
1, 10916, Note_off_c, 0, 55, 99
1, 10917, Note_on_c, 0, 56, 96
1, 11046, Note_off_c, 0, 56, 96
1, 11119, Note_on_c, 0, 55, 95
1, 11233, Note_off_c, 0, 55, 95
1, 11244, Note_on_c, 0, 63, 79
1, 11482, Note_off_c, 0, 63, 79
1, 12175, Note_on_c, 0, 67, 122
1, 12255, Note_off_c, 0, 67, 122
1, 12261, Note_on_c, 0, 70, 115
1, 12365, Note_off_c, 0, 70, 115
1, 12373, Note_on_c, 0, 72, 112
1, 12603, Note_off_c, 0, 72, 112
1, 12606, Note_on_c, 0, 73, 91
1, 13387, Note_off_c, 0, 73, 91
1, 13400, Note_on_c, 0, 72, 103
1, 13431, Note_off_c, 0, 72, 103
1, 13437, Note_on_c, 0, 73, 104
1, 13508, Note_off_c, 0, 73, 104
1, 13512, Note_on_c, 0, 72, 94
1, 13562, Note_off_c, 0, 72, 94
1, 13565, Note_on_c, 0, 70, 89
1, 13609, Note_off_c, 0, 70, 89
1, 13613, Note_on_c, 0, 69, 94
1, 13707, Note_off_c, 0, 69, 94
1, 13718, Note_on_c, 0, 70, 109
1, 13771, Note_off_c, 0, 70, 109
1, 13782, Note_on_c, 0, 66, 98
1, 13906, Note_off_c, 0, 66, 98
1, 13974, Note_on_c, 0, 65, 101
1, 14078, Note_off_c, 0, 65, 101
1, 14081, Note_on_c, 0, 63, 98
1, 14139, Note_off_c, 0, 63, 98
1, 14147, Note_on_c, 0, 58, 113
1, 14240, Note_off_c, 0, 58, 113
1, 14241, Note_on_c, 0, 60, 97
1, 14267, Note_off_c, 0, 60, 97
1, 14275, Note_on_c, 0, 61, 98
1, 14534, Note_off_c, 0, 61, 98
1, 15109, Note_on_c, 0, 68, 106
1, 15122, Note_off_c, 0, 68, 106
1, 15123, Note_on_c, 0, 69, 127
1, 15178, Note_off_c, 0, 69, 127
1, 15197, Note_on_c, 0, 68, 104
1, 15219, Note_off_c, 0, 68, 104
1, 15225, Note_on_c, 0, 69, 118
1, 15283, Note_off_c, 0, 69, 118
1, 15291, Note_on_c, 0, 68, 115
1, 15318, Note_off_c, 0, 68, 115
1, 15321, Note_on_c, 0, 70, 117
1, 15388, Note_off_c, 0, 70, 117
1, 15417, Note_on_c, 0, 72, 118
1, 15541, Note_off_c, 0, 72, 118
1, 15545, Note_on_c, 0, 73, 84
1, 16239, Note_off_c, 0, 73, 84
1, 16256, Note_on_c, 0, 73, 89
1, 16373, Note_off_c, 0, 73, 89
1, 16502, Note_on_c, 0, 69, 89
1, 16582, Note_off_c, 0, 69, 89
1, 16590, Note_on_c, 0, 70, 95
1, 16653, Note_off_c, 0, 70, 95
1, 16662, Note_on_c, 0, 66, 96
1, 16776, Note_off_c, 0, 66, 96
1, 16780, Note_on_c, 0, 62, 98
1, 16820, Note_off_c, 0, 62, 98
1, 16820, Note_on_c, 0, 65, 107
1, 16952, Note_off_c, 0, 65, 107
1, 17012, Note_on_c, 0, 69, 105
1, 17046, Note_off_c, 0, 69, 105
1, 17054, Note_on_c, 0, 70, 103
1, 17129, Note_off_c, 0, 70, 103
1, 17145, Note_on_c, 0, 70, 100
1, 17195, Note_off_c, 0, 70, 100
1, 17209, Note_on_c, 0, 66, 100
1, 17326, Note_off_c, 0, 66, 100
1, 17329, Note_on_c, 0, 63, 93
1, 17521, Note_off_c, 0, 63, 93
1, 17913, Note_on_c, 0, 58, 115
1, 17991, Note_off_c, 0, 58, 115
1, 17999, Note_on_c, 0, 60, 109
1, 18080, Note_off_c, 0, 60, 109
1, 18119, Note_on_c, 0, 72, 113
1, 18217, Note_off_c, 0, 72, 113
1, 18267, Note_on_c, 0, 66, 108
1, 18379, Note_off_c, 0, 66, 108
1, 18385, Note_on_c, 0, 63, 87
1, 18479, Note_off_c, 0, 63, 87
1, 18480, Note_on_c, 0, 66, 104
1, 18622, Note_off_c, 0, 66, 104
1, 18628, Note_on_c, 0, 65, 94
1, 18945, Note_off_c, 0, 65, 94
1, 19422, Note_on_c, 0, 58, 106
1, 19520, Note_off_c, 0, 58, 106
1, 19531, Note_on_c, 0, 60, 104
1, 19609, Note_off_c, 0, 60, 104
1, 19631, Note_on_c, 0, 72, 109
1, 19729, Note_off_c, 0, 72, 109
1, 19748, Note_on_c, 0, 66, 112
1, 19818, Note_off_c, 0, 66, 112
1, 19826, Note_on_c, 0, 60, 101
1, 19915, Note_off_c, 0, 60, 101
1, 19967, Note_on_c, 0, 72, 109
1, 20047, Note_off_c, 0, 72, 109
1, 20068, Note_on_c, 0, 66, 111
1, 20110, Note_off_c, 0, 66, 111
1, 20114, Note_on_c, 0, 67, 110
1, 20145, Note_off_c, 0, 67, 110
1, 20149, Note_on_c, 0, 66, 101
1, 20214, Note_off_c, 0, 66, 101
1, 20230, Note_on_c, 0, 63, 98
1, 20264, Note_off_c, 0, 63, 98
1, 20268, Note_on_c, 0, 66, 102
1, 20452, Note_off_c, 0, 66, 102
1, 20455, Note_on_c, 0, 63, 91
1, 20822, Note_off_c, 0, 63, 91
1, 20964, Note_on_c, 0, 59, 83
1, 20993, Note_off_c, 0, 59, 83
1, 21002, Note_on_c, 0, 60, 104
1, 21118, Note_off_c, 0, 60, 104
1, 21122, Note_on_c, 0, 59, 96
1, 21159, Note_off_c, 0, 59, 96
1, 21162, Note_on_c, 0, 58, 104
1, 21233, Note_off_c, 0, 58, 104
1, 21234, Note_on_c, 0, 57, 101
1, 21294, Note_off_c, 0, 57, 101
1, 21338, Note_on_c, 0, 58, 109
1, 21395, Note_off_c, 0, 58, 109
1, 21592, Note_on_c, 0, 55, 95
1, 21686, Note_off_c, 0, 55, 95
1, 21686, End_track
0, 0, End_of_file
