0, 0, Header, 1, 1, 192
1, 0, Start_track
1, 0, Title_t, "Melody"
1, 0, Tempo, 331491
1, 0, Key_signature, -3, "major"
1, 0, Time_signature, 4, 2, 24, 8
1, 896, Note_on_c, 0, 61, 115
1, 976, Note_off_c, 0, 61, 115
1, 984, Note_on_c, 0, 58, 108
1, 1065, Note_off_c, 0, 58, 108
1, 1084, Note_on_c, 0, 51, 107
1, 1164, Note_off_c, 0, 51, 107
1, 1164, Note_on_c, 0, 57, 112
1, 1266, Note_off_c, 0, 57, 112
1, 1282, Note_on_c, 0, 56, 114
1, 1316, Note_off_c, 0, 56, 114
1, 1319, Note_on_c, 0, 53, 118
1, 1355, Note_off_c, 0, 53, 118
1, 1359, Note_on_c, 0, 51, 111
1, 1561, Note_off_c, 0, 51, 111
1, 1929, Note_on_c, 0, 51, 106
1, 2051, Note_off_c, 0, 51, 106
1, 2055, Note_on_c, 0, 54, 109
1, 2109, Note_off_c, 0, 54, 109
1, 2112, Note_on_c, 0, 56, 115
1, 2257, Note_off_c, 0, 56, 115
1, 2274, Note_on_c, 0, 56, 116
1, 2378, Note_off_c, 0, 56, 116
1, 2392, Note_on_c, 0, 57, 114
1, 2511, Note_off_c, 0, 57, 114
1, 2519, Note_on_c, 0, 56, 112
1, 2645, Note_off_c, 0, 56, 112
1, 2645, Note_on_c, 0, 54, 107
1, 2711, Note_off_c, 0, 54, 107
1, 2720, Note_on_c, 0, 56, 109
1, 2902, Note_off_c, 0, 56, 109
1, 2910, Note_on_c, 0, 54, 104
1, 3042, Note_off_c, 0, 54, 104
1, 3069, Note_on_c, 0, 56, 114
1, 3184, Note_off_c, 0, 56, 114
1, 3194, Note_on_c, 0, 57, 110
1, 3289, Note_off_c, 0, 57, 110
1, 3299, Note_on_c, 0, 56, 111
1, 3410, Note_off_c, 0, 56, 111
1, 3410, Note_on_c, 0, 54, 103
1, 3474, Note_off_c, 0, 54, 103
1, 3474, Note_on_c, 0, 56, 107
1, 3689, Note_off_c, 0, 56, 107
1, 3689, Note_on_c, 0, 54, 113
1, 3815, Note_off_c, 0, 54, 113
1, 3824, Note_on_c, 0, 57, 113
1, 3887, Note_off_c, 0, 57, 113
1, 3897, Note_on_c, 0, 58, 109
1, 3964, Note_off_c, 0, 58, 109
1, 3987, Note_on_c, 0, 61, 110
1, 4075, Note_off_c, 0, 61, 110
1, 4081, Note_on_c, 0, 63, 114
1, 4264, Note_off_c, 0, 63, 114
1, 4279, Note_on_c, 0, 62, 107
1, 4391, Note_off_c, 0, 62, 107
1, 4392, Note_on_c, 0, 61, 105
1, 4437, Note_off_c, 0, 61, 105
1, 4469, Note_on_c, 0, 59, 100
1, 4545, Note_off_c, 0, 59, 100
1, 4571, Note_on_c, 0, 56, 104
1, 4625, Note_off_c, 0, 56, 104
1, 4646, Note_on_c, 0, 59, 97
1, 4709, Note_off_c, 0, 59, 97
1, 4713, Note_on_c, 0, 60, 101
1, 4794, Note_off_c, 0, 60, 101
1, 4810, Note_on_c, 0, 65, 95
1, 5106, Note_off_c, 0, 65, 95
1, 5396, Note_on_c, 0, 58, 112
1, 5534, Note_off_c, 0, 58, 112
1, 5584, Note_on_c, 0, 64, 126
1, 5870, Note_off_c, 0, 64, 126
1, 5909, Note_on_c, 0, 62, 110
1, 5981, Note_off_c, 0, 62, 110
1, 5992, Note_on_c, 0, 63, 116
1, 6153, Note_off_c, 0, 63, 116
1, 6244, Note_on_c, 0, 62, 113
1, 6333, Note_off_c, 0, 62, 113
1, 6333, Note_on_c, 0, 61, 107
1, 6437, Note_off_c, 0, 61, 107
1, 6440, Note_on_c, 0, 60, 108
1, 6529, Note_off_c, 0, 60, 108
1, 6529, Note_on_c, 0, 58, 107
1, 6593, Note_off_c, 0, 58, 107
1, 6608, Note_on_c, 0, 57, 108
1, 6681, Note_off_c, 0, 57, 108
1, 6695, Note_on_c, 0, 48, 97
1, 6745, Note_off_c, 0, 48, 97
1, 6754, Note_on_c, 0, 51, 103
1, 6839, Note_off_c, 0, 51, 103
1, 6845, Note_on_c, 0, 55, 109
1, 6938, Note_off_c, 0, 55, 109
1, 6938, Note_on_c, 0, 53, 108
1, 7035, Note_off_c, 0, 53, 108
1, 7037, Note_on_c, 0, 51, 108
1, 7121, Note_off_c, 0, 51, 108
1, 7123, Note_on_c, 0, 45, 104
1, 7188, Note_off_c, 0, 45, 104
1, 7190, Note_on_c, 0, 48, 99
1, 7234, Note_off_c, 0, 48, 99
1, 7235, Note_on_c, 0, 49, 99
1, 7331, Note_off_c, 0, 49, 99
1, 7335, Note_on_c, 0, 50, 100
1, 7433, Note_off_c, 0, 50, 100
1, 7502, Note_on_c, 0, 59, 103
1, 7614, Note_off_c, 0, 59, 103
1, 7632, Note_on_c, 0, 57, 98
1, 7688, Note_off_c, 0, 57, 98
1, 7692, Note_on_c, 0, 58, 98
1, 7861, Note_off_c, 0, 58, 98
1, 8281, Note_on_c, 0, 68, 117
1, 8411, Note_off_c, 0, 68, 117
1, 8416, Note_on_c, 0, 66, 97
1, 8491, Note_off_c, 0, 66, 97
1, 8491, Note_on_c, 0, 67, 102
1, 8748, Note_off_c, 0, 67, 102
1, 9067, Note_on_c, 0, 77, 119
1, 9159, Note_off_c, 0, 77, 119
1, 9176, Note_on_c, 0, 76, 117
1, 9281, Note_off_c, 0, 76, 117
1, 9281, Note_on_c, 0, 75, 102
1, 9613, Note_off_c, 0, 75, 102
1, 9844, Note_on_c, 0, 72, 120
1, 9929, Note_off_c, 0, 72, 120
1, 9983, Note_on_c, 0, 68, 110
1, 10111, Note_off_c, 0, 68, 110
1, 10142, Note_on_c, 0, 66, 109
1, 10347, Note_off_c, 0, 66, 109
1, 10636, Note_on_c, 0, 62, 99
1, 10753, Note_off_c, 0, 62, 99
1, 10758, Note_on_c, 0, 67, 110
1, 10817, Note_off_c, 0, 67, 110
1, 10881, Note_on_c, 0, 70, 120
1, 10991, Note_off_c, 0, 70, 120
1, 11038, Note_on_c, 0, 68, 114
1, 11143, Note_off_c, 0, 68, 114
1, 11164, Note_on_c, 0, 66, 90
1, 11212, Note_off_c, 0, 66, 90
1, 11221, Note_on_c, 0, 67, 102
1, 11330, Note_off_c, 0, 67, 102
1, 11362, Note_on_c, 0, 65, 100
1, 11435, Note_off_c, 0, 65, 100
1, 11441, Note_on_c, 0, 64, 102
1, 11540, Note_off_c, 0, 64, 102
1, 11540, Note_on_c, 0, 67, 108
1, 11602, Note_off_c, 0, 67, 108
1, 11640, Note_on_c, 0, 65, 106
1, 11714, Note_off_c, 0, 65, 106
1, 11739, Note_on_c, 0, 67, 97
1, 11803, Note_off_c, 0, 67, 97
1, 11806, Note_on_c, 0, 68, 89
1, 11900, Note_off_c, 0, 68, 89
1, 11910, Note_on_c, 0, 70, 99
1, 11989, Note_off_c, 0, 70, 99
1, 11998, Note_on_c, 0, 66, 100
1, 12092, Note_off_c, 0, 66, 100
1, 12104, Note_on_c, 0, 58, 101
1, 12184, Note_off_c, 0, 58, 101
1, 12184, Note_on_c, 0, 62, 101
1, 12314, Note_off_c, 0, 62, 101
1, 12314, Note_on_c, 0, 63, 116
1, 12378, Note_off_c, 0, 63, 116
1, 12495, Note_on_c, 0, 67, 108
1, 12558, Note_on_c, 0, 66, 108
1, 12558, Note_off_c, 0, 67, 108
1, 12617, Note_off_c, 0, 66, 108
1, 12619, Note_on_c, 0, 65, 105
1, 12695, Note_off_c, 0, 65, 105
1, 12696, Note_on_c, 0, 64, 109
1, 12765, Note_off_c, 0, 64, 109
1, 12767, Note_on_c, 0, 63, 111
1, 12867, Note_off_c, 0, 63, 111
1, 12868, Note_on_c, 0, 62, 108
1, 12947, Note_off_c, 0, 62, 108
1, 12954, Note_on_c, 0, 61, 106
1, 13050, Note_off_c, 0, 61, 106
1, 13050, Note_on_c, 0, 53, 104
1, 13141, Note_off_c, 0, 53, 104
1, 13143, Note_on_c, 0, 57, 102
1, 13223, Note_off_c, 0, 57, 102
1, 13226, Note_on_c, 0, 60, 107
1, 13322, Note_off_c, 0, 60, 107
1, 13330, Note_on_c, 0, 59, 101
1, 13422, Note_off_c, 0, 59, 101
1, 13427, Note_on_c, 0, 57, 82
1, 13499, Note_off_c, 0, 57, 82
1, 13506, Note_on_c, 0, 58, 105
1, 13615, Note_off_c, 0, 58, 105
1, 13616, Note_on_c, 0, 56, 110
1, 13708, Note_off_c, 0, 56, 110
1, 13713, Note_on_c, 0, 53, 110
1, 13862, Note_off_c, 0, 53, 110
1, 13870, Note_on_c, 0, 54, 106
1, 14083, Note_off_c, 0, 54, 106
1, 14090, Note_on_c, 0, 55, 107
1, 14287, Note_off_c, 0, 55, 107
1, 14287, Note_on_c, 0, 56, 111
1, 14483, Note_off_c, 0, 56, 111
1, 14483, Note_on_c, 0, 57, 102
1, 14667, Note_off_c, 0, 57, 102
1, 14673, Note_on_c, 0, 58, 103
1, 14851, Note_off_c, 0, 58, 103
1, 14852, Note_on_c, 0, 60, 109
1, 15069, Note_off_c, 0, 60, 109
1, 15069, Note_on_c, 0, 61, 103
1, 15243, Note_off_c, 0, 61, 103
1, 15250, Note_on_c, 0, 63, 104
1, 15370, Note_off_c, 0, 63, 104
1, 15378, Note_on_c, 0, 63, 104
1, 15422, Note_off_c, 0, 63, 104
1, 15430, Note_on_c, 0, 65, 99
1, 15726, Note_off_c, 0, 65, 99
1, 15780, Note_on_c, 0, 61, 104
1, 15866, Note_off_c, 0, 61, 104
1, 15871, Note_on_c, 0, 60, 99
1, 15947, Note_off_c, 0, 60, 99
1, 15958, Note_on_c, 0, 58, 104
1, 16001, Note_off_c, 0, 58, 104
1, 16022, Note_on_c, 0, 57, 105
1, 16138, Note_off_c, 0, 57, 105
1, 16148, Note_on_c, 0, 53, 104
1, 16195, Note_off_c, 0, 53, 104
1, 16208, Note_on_c, 0, 56, 106
1, 16330, Note_off_c, 0, 56, 106
1, 16340, Note_on_c, 0, 53, 101
1, 16407, Note_off_c, 0, 53, 101
1, 16425, Note_on_c, 0, 54, 106
1, 16518, Note_off_c, 0, 54, 106
1, 16521, Note_on_c, 0, 55, 103
1, 16745, Note_off_c, 0, 55, 103
1, 17307, Note_on_c, 0, 70, 120
1, 17505, Note_off_c, 0, 70, 120
1, 17911, Note_on_c, 0, 68, 115
1, 18015, Note_off_c, 0, 68, 115
1, 18027, Note_on_c, 0, 66, 114
1, 18151, Note_off_c, 0, 66, 114
1, 18154, Note_on_c, 0, 65, 107
1, 18286, Note_off_c, 0, 65, 107
1, 18293, Note_on_c, 0, 63, 102
1, 18430, Note_off_c, 0, 63, 102
1, 18435, Note_on_c, 0, 65, 114
1, 18511, Note_off_c, 0, 65, 114
1, 18650, Note_on_c, 0, 57, 99
1, 18848, Note_off_c, 0, 57, 99
1, 19189, Note_on_c, 0, 63, 118
1, 19288, Note_off_c, 0, 63, 118
1, 19295, Note_on_c, 0, 62, 116
1, 19389, Note_off_c, 0, 62, 116
1, 19402, Note_on_c, 0, 70, 120
1, 19528, Note_off_c, 0, 70, 120
1, 20016, Note_on_c, 0, 79, 116
1, 20156, Note_off_c, 0, 79, 116
1, 20398, Note_on_c, 0, 72, 113
1, 20543, Note_on_c, 0, 73, 117
1, 20543, Note_off_c, 0, 72, 113
1, 20695, Note_off_c, 0, 73, 117
1, 20927, Note_on_c, 0, 65, 113
1, 21013, Note_off_c, 0, 65, 113
1, 21030, Note_on_c, 0, 69, 98
1, 21111, Note_off_c, 0, 69, 98
1, 21121, Note_on_c, 0, 72, 115
1, 21216, Note_off_c, 0, 72, 115
1, 21232, Note_on_c, 0, 71, 120
1, 21312, Note_off_c, 0, 71, 120
1, 21333, Note_on_c, 0, 64, 120
1, 21439, Note_off_c, 0, 64, 120
1, 21586, Note_on_c, 0, 70, 121
1, 21727, Note_off_c, 0, 70, 121
1, 21952, Note_on_c, 0, 60, 111
1, 22074, Note_off_c, 0, 60, 111
1, 22092, Note_on_c, 0, 68, 116
1, 22219, Note_off_c, 0, 68, 116
1, 22472, Note_on_c, 0, 66, 116
1, 22535, Note_off_c, 0, 66, 116
1, 22584, Note_on_c, 0, 57, 110
1, 22679, Note_off_c, 0, 57, 110
1, 22685, Note_on_c, 0, 58, 98
1, 22721, Note_off_c, 0, 58, 98
1, 22726, Note_on_c, 0, 65, 111
1, 22865, Note_off_c, 0, 65, 111
1, 22867, Note_on_c, 0, 63, 122
1, 22989, Note_off_c, 0, 63, 122
1, 23047, Note_on_c, 0, 54, 107
1, 23103, Note_off_c, 0, 54, 107
1, 23119, Note_on_c, 0, 62, 115
1, 23295, Note_off_c, 0, 62, 115
1, 23505, Note_on_c, 0, 60, 111
1, 23619, Note_off_c, 0, 60, 111
1, 23640, Note_on_c, 0, 59, 99
1, 23670, Note_off_c, 0, 59, 99
1, 23751, Note_on_c, 0, 60, 104
1, 23831, Note_off_c, 0, 60, 104
1, 23843, Note_on_c, 0, 58, 111
1, 23890, Note_off_c, 0, 58, 111
1, 23926, Note_on_c, 0, 56, 115
1, 24014, Note_off_c, 0, 56, 115
1, 24019, Note_on_c, 0, 51, 106
1, 24087, Note_off_c, 0, 51, 106
1, 24124, Note_on_c, 0, 48, 100
1, 24170, Note_off_c, 0, 48, 100
1, 24298, Note_on_c, 0, 47, 102
1, 24382, Note_off_c, 0, 47, 102
1, 24385, Note_on_c, 0, 55, 109
1, 24467, Note_off_c, 0, 55, 109
1, 24606, Note_on_c, 0, 53, 113
1, 24693, Note_off_c, 0, 53, 113
1, 24710, Note_on_c, 0, 51, 104
1, 24805, Note_off_c, 0, 51, 104
1, 24807, Note_on_c, 0, 53, 98
1, 24833, Note_off_c, 0, 53, 98
1, 24856, Note_on_c, 0, 55, 110
1, 24975, Note_off_c, 0, 55, 110
1, 24980, Note_on_c, 0, 58, 112
1, 25032, Note_off_c, 0, 58, 112
1, 25090, Note_on_c, 0, 52, 103
1, 25138, Note_off_c, 0, 52, 103
1, 25170, Note_on_c, 0, 54, 96
1, 25211, Note_off_c, 0, 54, 96
1, 25247, Note_on_c, 0, 56, 108
1, 25391, Note_off_c, 0, 56, 108
1, 25427, Note_on_c, 0, 64, 120
1, 25543, Note_off_c, 0, 64, 120
1, 25548, Note_on_c, 0, 61, 104
1, 25616, Note_off_c, 0, 61, 104
1, 25650, Note_on_c, 0, 59, 101
1, 25719, Note_off_c, 0, 59, 101
1, 25730, Note_on_c, 0, 57, 105
1, 25796, Note_off_c, 0, 57, 105
1, 25799, Note_on_c, 0, 56, 109
1, 25904, Note_off_c, 0, 56, 109
1, 25913, Note_on_c, 0, 58, 112
1, 26051, Note_off_c, 0, 58, 112
1, 26056, Note_on_c, 0, 59, 103
1, 26098, Note_off_c, 0, 59, 103
1, 26109, Note_on_c, 0, 61, 100
1, 26277, Note_off_c, 0, 61, 100
1, 26285, Note_on_c, 0, 63, 113
1, 26392, Note_off_c, 0, 63, 113
1, 26392, Note_on_c, 0, 60, 111
1, 26517, Note_off_c, 0, 60, 111
1, 26517, Note_on_c, 0, 61, 87
1, 26543, Note_off_c, 0, 61, 87
1, 26565, Note_on_c, 0, 65, 99
1, 26690, Note_off_c, 0, 65, 99
1, 26751, Note_on_c, 0, 72, 100
1, 27067, Note_off_c, 0, 72, 100
1, 27592, Note_on_c, 0, 69, 120
1, 27648, Note_off_c, 0, 69, 120
1, 27648, Note_on_c, 0, 70, 113
1, 27741, Note_off_c, 0, 70, 113
1, 27749, Note_on_c, 0, 72, 119
1, 27827, Note_off_c, 0, 72, 119
1, 27828, Note_on_c, 0, 73, 102
1, 27895, Note_off_c, 0, 73, 102
1, 27948, Note_on_c, 0, 65, 106
1, 27981, Note_off_c, 0, 65, 106
1, 27984, Note_on_c, 0, 69, 104
1, 28064, Note_off_c, 0, 69, 104
1, 28064, Note_on_c, 0, 72, 117
1, 28143, Note_off_c, 0, 72, 117
1, 28145, Note_on_c, 0, 71, 119
1, 28198, Note_off_c, 0, 71, 119
1, 28218, Note_on_c, 0, 69, 102
1, 28273, Note_off_c, 0, 69, 102
1, 28303, Note_on_c, 0, 70, 118
1, 28377, Note_off_c, 0, 70, 118
1, 28379, Note_on_c, 0, 68, 105
1, 28456, Note_off_c, 0, 68, 105
1, 28457, Note_on_c, 0, 65, 103
1, 28535, Note_off_c, 0, 65, 103
1, 28538, Note_on_c, 0, 66, 104
1, 28613, Note_off_c, 0, 66, 104
1, 28615, Note_on_c, 0, 67, 112
1, 28673, Note_off_c, 0, 67, 112
1, 28720, Note_on_c, 0, 63, 93
1, 28777, Note_off_c, 0, 63, 93
1, 28789, Note_on_c, 0, 65, 111
1, 28863, Note_off_c, 0, 65, 111
1, 28865, Note_on_c, 0, 61, 117
1, 28991, Note_off_c, 0, 61, 117
1, 28993, Note_on_c, 0, 60, 116
1, 29065, Note_off_c, 0, 60, 116
1, 29069, Note_on_c, 0, 59, 107
1, 29122, Note_off_c, 0, 59, 107
1, 29126, Note_on_c, 0, 58, 104
1, 29202, Note_off_c, 0, 58, 104
1, 29278, Note_on_c, 0, 57, 110
1, 29384, Note_off_c, 0, 57, 110
1, 29384, Note_on_c, 0, 55, 106
1, 29433, Note_off_c, 0, 55, 106
1, 29488, Note_on_c, 0, 56, 113
1, 29565, Note_off_c, 0, 56, 113
1, 29565, Note_on_c, 0, 53, 107
1, 29633, Note_off_c, 0, 53, 107
1, 29649, Note_on_c, 0, 54, 108
1, 29723, Note_off_c, 0, 54, 108
1, 29739, Note_on_c, 0, 58, 112
1, 29815, Note_off_c, 0, 58, 112
1, 29850, Note_on_c, 0, 61, 111
1, 29928, Note_off_c, 0, 61, 111
1, 29928, Note_on_c, 0, 63, 119
1, 30009, Note_off_c, 0, 63, 119
1, 30020, Note_on_c, 0, 64, 118
1, 30140, Note_off_c, 0, 64, 118
1, 30179, Note_on_c, 0, 75, 114
1, 30352, Note_off_c, 0, 75, 114
1, 30402, Note_on_c, 0, 62, 113
1, 30489, Note_on_c, 0, 63, 112
1, 30489, Note_off_c, 0, 62, 113
1, 30571, Note_off_c, 0, 63, 112
1, 30618, Note_on_c, 0, 74, 117
1, 30735, Note_off_c, 0, 74, 117
1, 30735, Note_on_c, 0, 72, 109
1, 30819, Note_off_c, 0, 72, 109
1, 30824, Note_on_c, 0, 70, 111
1, 30951, Note_off_c, 0, 70, 111
1, 30987, Note_on_c, 0, 69, 105
1, 31111, Note_off_c, 0, 69, 105
1, 31205, Note_on_c, 0, 63, 111
1, 31292, Note_off_c, 0, 63, 111
1, 31297, Note_on_c, 0, 60, 111
1, 31364, Note_off_c, 0, 60, 111
1, 31390, Note_on_c, 0, 56, 98
1, 31476, Note_off_c, 0, 56, 98
1, 31498, Note_on_c, 0, 53, 98
1, 31543, Note_off_c, 0, 53, 98
1, 31556, Note_on_c, 0, 61, 108
1, 31609, Note_off_c, 0, 61, 108
1, 31609, Note_on_c, 0, 62, 106
1, 31691, Note_off_c, 0, 62, 106
1, 32487, Note_on_c, 0, 63, 120
1, 32579, Note_off_c, 0, 63, 120
1, 32693, Note_on_c, 0, 65, 117
1, 32769, Note_off_c, 0, 65, 117
1, 32776, Note_on_c, 0, 66, 102
1, 32824, Note_off_c, 0, 66, 102
1, 32841, Note_on_c, 0, 63, 120
1, 32909, Note_off_c, 0, 63, 120
1, 33014, Note_on_c, 0, 63, 119
1, 33155, Note_off_c, 0, 63, 119
1, 33462, Note_on_c, 0, 70, 123
1, 33535, Note_off_c, 0, 70, 123
1, 33539, Note_on_c, 0, 68, 97
1, 33592, Note_off_c, 0, 68, 97
1, 33652, Note_on_c, 0, 63, 118
1, 33900, Note_off_c, 0, 63, 118
1, 34199, Note_on_c, 0, 72, 122
1, 34330, Note_off_c, 0, 72, 122
1, 34361, Note_on_c, 0, 63, 122
1, 34466, Note_off_c, 0, 63, 122
1, 34555, Note_on_c, 0, 63, 10
1, 34756, Note_off_c, 0, 63, 10
1, 35047, Note_on_c, 0, 74, 118
1, 35119, Note_off_c, 0, 74, 118
1, 35119, Note_on_c, 0, 75, 116
1, 35201, Note_off_c, 0, 75, 116
1, 35216, Note_on_c, 0, 72, 117
1, 35290, Note_off_c, 0, 72, 117
1, 35298, Note_on_c, 0, 74, 111
1, 35371, Note_off_c, 0, 74, 111
1, 35404, Note_on_c, 0, 70, 117
1, 35486, Note_off_c, 0, 70, 117
1, 35503, Note_on_c, 0, 67, 101
1, 35685, Note_off_c, 0, 67, 101
1, 35695, Note_on_c, 0, 65, 110
1, 35768, Note_off_c, 0, 65, 110
1, 35799, Note_on_c, 0, 64, 117
1, 35872, Note_off_c, 0, 64, 117
1, 35891, Note_on_c, 0, 61, 110
1, 35974, Note_off_c, 0, 61, 110
1, 35979, Note_on_c, 0, 60, 107
1, 36073, Note_off_c, 0, 60, 107
1, 36074, Note_on_c, 0, 58, 107
1, 36142, Note_off_c, 0, 58, 107
1, 36178, Note_on_c, 0, 55, 105
1, 36256, Note_off_c, 0, 55, 105
1, 36261, Note_on_c, 0, 56, 113
1, 36326, Note_off_c, 0, 56, 113
1, 36327, Note_on_c, 0, 60, 105
1, 36388, Note_off_c, 0, 60, 105
1, 36404, Note_on_c, 0, 63, 92
1, 36427, Note_off_c, 0, 63, 92
1, 36458, Note_on_c, 0, 67, 89
1, 36495, Note_off_c, 0, 67, 89
1, 36541, Note_on_c, 0, 70, 118
1, 36643, Note_off_c, 0, 70, 118
1, 36643, Note_on_c, 0, 66, 108
1, 36709, Note_off_c, 0, 66, 108
1, 36745, Note_on_c, 0, 62, 108
1, 36827, Note_off_c, 0, 62, 108
1, 36831, Note_on_c, 0, 59, 106
1, 36908, Note_off_c, 0, 59, 106
1, 36913, Note_on_c, 0, 58, 106
1, 36983, Note_off_c, 0, 58, 106
1, 37018, Note_on_c, 0, 68, 104
1, 37277, Note_off_c, 0, 68, 104
1, 37286, Note_on_c, 0, 67, 101
1, 37353, Note_off_c, 0, 67, 101
1, 37359, Note_on_c, 0, 68, 99
1, 37442, Note_off_c, 0, 68, 99
1, 37482, Note_on_c, 0, 69, 89
1, 37573, Note_off_c, 0, 69, 89
1, 37575, Note_on_c, 0, 70, 104
1, 37773, Note_off_c, 0, 70, 104
1, 38064, Note_on_c, 0, 70, 118
1, 38162, Note_off_c, 0, 70, 118
1, 38162, Note_on_c, 0, 69, 113
1, 38248, Note_off_c, 0, 69, 113
1, 38250, Note_on_c, 0, 68, 109
1, 38315, Note_off_c, 0, 68, 109
1, 38320, Note_on_c, 0, 73, 106
1, 38437, Note_off_c, 0, 73, 106
1, 38438, Note_on_c, 0, 66, 99
1, 38530, Note_off_c, 0, 66, 99
1, 38552, Note_on_c, 0, 69, 91
1, 38600, Note_off_c, 0, 69, 91
1, 38614, Note_on_c, 0, 72, 111
1, 38719, Note_off_c, 0, 72, 111
1, 38729, Note_on_c, 0, 69, 88
1, 38786, Note_off_c, 0, 69, 88
1, 38786, Note_on_c, 0, 71, 116
1, 38904, Note_off_c, 0, 71, 116
1, 38997, Note_on_c, 0, 67, 101
1, 39072, Note_off_c, 0, 67, 101
1, 39098, Note_on_c, 0, 70, 114
1, 39183, Note_off_c, 0, 70, 114
1, 39183, Note_on_c, 0, 64, 116
1, 39291, Note_off_c, 0, 64, 116
1, 39302, Note_on_c, 0, 68, 107
1, 39365, Note_off_c, 0, 68, 107
1, 39389, Note_on_c, 0, 66, 100
1, 39485, Note_off_c, 0, 66, 100
1, 39489, Note_on_c, 0, 62, 101
1, 39562, Note_off_c, 0, 62, 101
1, 39600, Note_on_c, 0, 66, 104
1, 39655, Note_off_c, 0, 66, 104
1, 39664, Note_on_c, 0, 64, 95
1, 39687, Note_off_c, 0, 64, 95
1, 39702, Note_on_c, 0, 62, 111
1, 39732, Note_off_c, 0, 62, 111
1, 39769, Note_on_c, 0, 59, 103
1, 39856, Note_off_c, 0, 59, 103
1, 39886, Note_on_c, 0, 57, 108
1, 39988, Note_off_c, 0, 57, 108
1, 39989, Note_on_c, 0, 59, 98
1, 40020, Note_off_c, 0, 59, 98
1, 40040, Note_on_c, 0, 61, 112
1, 40103, Note_off_c, 0, 61, 112
1, 40108, Note_on_c, 0, 57, 107
1, 40239, Note_on_c, 0, 58, 107
1, 40239, Note_off_c, 0, 57, 107
1, 40324, Note_off_c, 0, 58, 107
1, 40435, Note_on_c, 0, 53, 113
1, 40485, Note_off_c, 0, 53, 113
1, 40489, Note_on_c, 0, 56, 111
1, 40593, Note_off_c, 0, 56, 111
1, 40598, Note_on_c, 0, 58, 109
1, 40663, Note_off_c, 0, 58, 109
1, 40673, Note_on_c, 0, 55, 111
1, 40795, Note_off_c, 0, 55, 111
1, 40806, Note_on_c, 0, 51, 110
1, 40859, Note_off_c, 0, 51, 110
1, 40860, Note_on_c, 0, 49, 104
1, 40961, Note_off_c, 0, 49, 104
1, 40969, Note_on_c, 0, 46, 118
1, 41050, Note_off_c, 0, 46, 118
1, 41052, Note_on_c, 0, 45, 112
1, 41221, Note_off_c, 0, 45, 112
1, 41221, Note_on_c, 0, 59, 106
1, 41315, Note_off_c, 0, 59, 106
1, 41363, Note_on_c, 0, 51, 111
1, 41562, Note_off_c, 0, 51, 111
1, 41864, Note_on_c, 0, 54, 106
1, 41943, Note_off_c, 0, 54, 106
1, 41949, Note_on_c, 0, 57, 101
1, 41985, Note_off_c, 0, 57, 101
1, 41987, Note_on_c, 0, 61, 107
1, 42041, Note_off_c, 0, 61, 107
1, 42041, Note_on_c, 0, 65, 116
1, 42111, Note_off_c, 0, 65, 116
1, 42113, Note_on_c, 0, 64, 116
1, 42170, Note_off_c, 0, 64, 116
1, 42170, Note_on_c, 0, 63, 114
1, 42226, Note_off_c, 0, 63, 114
1, 42241, Note_on_c, 0, 61, 111
1, 42280, Note_off_c, 0, 61, 111
1, 42281, Note_on_c, 0, 60, 109
1, 42335, Note_off_c, 0, 60, 109
1, 42337, Note_on_c, 0, 58, 110
1, 42372, Note_off_c, 0, 58, 110
1, 42396, Note_on_c, 0, 56, 109
1, 42456, Note_off_c, 0, 56, 109
1, 42460, Note_on_c, 0, 55, 113
1, 42512, Note_off_c, 0, 55, 113
1, 42518, Note_on_c, 0, 54, 113
1, 42578, Note_off_c, 0, 54, 113
1, 42579, Note_on_c, 0, 53, 116
1, 42614, Note_off_c, 0, 53, 116
1, 42618, Note_on_c, 0, 52, 106
1, 42668, Note_off_c, 0, 52, 106
1, 42690, Note_on_c, 0, 50, 103
1, 42759, Note_off_c, 0, 50, 103
1, 42761, Note_on_c, 0, 51, 108
1, 42821, Note_off_c, 0, 51, 108
1, 42829, Note_on_c, 0, 49, 104
1, 42881, Note_off_c, 0, 49, 104
1, 42881, Note_on_c, 0, 48, 108
1, 42924, Note_off_c, 0, 48, 108
1, 42929, Note_on_c, 0, 46, 116
1, 42978, Note_off_c, 0, 46, 116
1, 42982, Note_on_c, 0, 45, 112
1, 43039, Note_off_c, 0, 45, 112
1, 43044, Note_on_c, 0, 55, 107
1, 43110, Note_on_c, 0, 51, 103
1, 43110, Note_off_c, 0, 55, 107
1, 43137, Note_off_c, 0, 51, 103
1, 43143, Note_on_c, 0, 49, 104
1, 43174, Note_off_c, 0, 49, 104
1, 43221, Note_on_c, 0, 53, 110
1, 43295, Note_off_c, 0, 53, 110
1, 43298, Note_on_c, 0, 52, 99
1, 43329, Note_off_c, 0, 52, 99
1, 43331, Note_on_c, 0, 51, 104
1, 43406, Note_off_c, 0, 51, 104
1, 43406, Note_on_c, 0, 53, 110
1, 43474, Note_off_c, 0, 53, 110
1, 43474, Note_on_c, 0, 51, 105
1, 43501, Note_off_c, 0, 51, 105
1, 43536, Note_on_c, 0, 53, 111
1, 43575, Note_off_c, 0, 53, 111
1, 43575, Note_on_c, 0, 56, 108
1, 43632, Note_off_c, 0, 56, 108
1, 43637, Note_on_c, 0, 60, 109
1, 43678, Note_off_c, 0, 60, 109
1, 43688, Note_on_c, 0, 54, 111
1, 43766, Note_off_c, 0, 54, 111
1, 43766, Note_on_c, 0, 55, 106
1, 43797, Note_off_c, 0, 55, 106
1, 43797, Note_on_c, 0, 58, 108
1, 43871, Note_off_c, 0, 58, 108
1, 43873, Note_on_c, 0, 57, 107
1, 43924, Note_off_c, 0, 57, 107
1, 43928, Note_on_c, 0, 56, 108
1, 43964, Note_off_c, 0, 56, 108
1, 43968, Note_on_c, 0, 58, 102
1, 44006, Note_off_c, 0, 58, 102
1, 44010, Note_on_c, 0, 60, 103
1, 44080, Note_off_c, 0, 60, 103
1, 44090, Note_on_c, 0, 66, 99
1, 44134, Note_off_c, 0, 66, 99
1, 44134, Note_on_c, 0, 67, 110
1, 44171, Note_on_c, 0, 70, 110
1, 44171, Note_off_c, 0, 67, 110
1, 44229, Note_off_c, 0, 70, 110
1, 44242, Note_on_c, 0, 65, 106
1, 44279, Note_off_c, 0, 65, 106
1, 44284, Note_on_c, 0, 66, 104
1, 44337, Note_off_c, 0, 66, 104
1, 44345, Note_on_c, 0, 62, 101
1, 44371, Note_off_c, 0, 62, 101
1, 44374, Note_on_c, 0, 59, 107
1, 44399, Note_off_c, 0, 59, 107
1, 44404, Note_on_c, 0, 57, 105
1, 44451, Note_off_c, 0, 57, 105
1, 44470, Note_on_c, 0, 58, 97
1, 44595, Note_off_c, 0, 58, 97
1, 44953, Note_on_c, 0, 54, 113
1, 44999, Note_off_c, 0, 54, 113
1, 45001, Note_on_c, 0, 55, 110
1, 45064, Note_off_c, 0, 55, 110
1, 45064, Note_on_c, 0, 58, 105
1, 45097, Note_off_c, 0, 58, 105
1, 45097, Note_on_c, 0, 61, 110
1, 45115, Note_off_c, 0, 61, 110
1, 45119, Note_on_c, 0, 65, 112
1, 45203, Note_off_c, 0, 65, 112
1, 45203, Note_on_c, 0, 60, 112
1, 45300, Note_off_c, 0, 60, 112
1, 45305, Note_on_c, 0, 63, 112
1, 45443, Note_off_c, 0, 63, 112
1, 45451, Note_on_c, 0, 62, 97
1, 45504, Note_off_c, 0, 62, 97
1, 45509, Note_on_c, 0, 60, 99
1, 45570, Note_off_c, 0, 60, 99
1, 45589, Note_on_c, 0, 61, 110
1, 45665, Note_off_c, 0, 61, 110
1, 45679, Note_on_c, 0, 63, 113
1, 45740, Note_off_c, 0, 63, 113
1, 45755, Note_on_c, 0, 65, 91
1, 45833, Note_off_c, 0, 65, 91
1, 45843, Note_on_c, 0, 68, 90
1, 45864, Note_off_c, 0, 68, 90
1, 45939, Note_on_c, 0, 72, 118
1, 46103, Note_off_c, 0, 72, 118
1, 46242, Note_on_c, 0, 65, 114
1, 46314, Note_off_c, 0, 65, 114
1, 46330, Note_on_c, 0, 65, 109
1, 46452, Note_off_c, 0, 65, 109
1, 46467, Note_on_c, 0, 65, 108
1, 46527, Note_off_c, 0, 65, 108
1, 46637, Note_on_c, 0, 65, 115
1, 46707, Note_off_c, 0, 65, 115
1, 46843, Note_on_c, 0, 66, 105
1, 47007, Note_off_c, 0, 66, 105
1, 47251, Note_on_c, 0, 74, 117
1, 47449, Note_off_c, 0, 74, 117
1, 47557, Note_on_c, 0, 67, 109
1, 47607, Note_off_c, 0, 67, 109
1, 47687, Note_on_c, 0, 70, 122
1, 47745, Note_off_c, 0, 70, 122
1, 47771, Note_on_c, 0, 68, 110
1, 47834, Note_off_c, 0, 68, 110
1, 47862, Note_on_c, 0, 67, 109
1, 47915, Note_off_c, 0, 67, 109
1, 47940, Note_on_c, 0, 65, 105
1, 48012, Note_off_c, 0, 65, 105
1, 48027, Note_on_c, 0, 64, 113
1, 48119, Note_off_c, 0, 64, 113
1, 48161, Note_on_c, 0, 67, 107
1, 48204, Note_off_c, 0, 67, 107
1, 48247, Note_on_c, 0, 65, 109
1, 48307, Note_off_c, 0, 65, 109
1, 48317, Note_on_c, 0, 67, 107
1, 48379, Note_off_c, 0, 67, 107
1, 48526, Note_on_c, 0, 69, 86
1, 48562, Note_off_c, 0, 69, 86
1, 48593, Note_on_c, 0, 70, 111
1, 48697, Note_off_c, 0, 70, 111
1, 48718, Note_on_c, 0, 68, 90
1, 48758, Note_off_c, 0, 68, 90
1, 48835, Note_on_c, 0, 69, 100
1, 48887, Note_off_c, 0, 69, 100
1, 48907, Note_on_c, 0, 67, 101
1, 48957, Note_off_c, 0, 67, 101
1, 49009, Note_on_c, 0, 67, 115
1, 49064, Note_off_c, 0, 67, 115
1, 49116, Note_on_c, 0, 63, 114
1, 49158, Note_off_c, 0, 63, 114
1, 49184, Note_on_c, 0, 66, 94
1, 49231, Note_off_c, 0, 66, 94
1, 49236, Note_on_c, 0, 65, 101
1, 49283, Note_off_c, 0, 65, 101
1, 49289, Note_on_c, 0, 62, 104
1, 49343, Note_off_c, 0, 62, 104
1, 49394, Note_on_c, 0, 63, 122
1, 49468, Note_off_c, 0, 63, 122
1, 49476, Note_on_c, 0, 60, 114
1, 49563, Note_off_c, 0, 60, 114
1, 49568, Note_on_c, 0, 56, 109
1, 49657, Note_off_c, 0, 56, 109
1, 49662, Note_on_c, 0, 53, 109
1, 49734, Note_off_c, 0, 53, 109
1, 49734, Note_on_c, 0, 55, 108
1, 49841, Note_off_c, 0, 55, 108
1, 49841, Note_on_c, 0, 58, 111
1, 49926, Note_off_c, 0, 58, 111
1, 50124, Note_on_c, 0, 58, 108
1, 50225, Note_off_c, 0, 58, 108
1, 50274, Note_on_c, 0, 60, 112
1, 50302, Note_off_c, 0, 60, 112
1, 50302, Note_on_c, 0, 63, 122
1, 50403, Note_off_c, 0, 63, 122
1, 50440, Note_on_c, 0, 66, 121
1, 50512, Note_off_c, 0, 66, 121
1, 50521, Note_on_c, 0, 67, 109
1, 50554, Note_off_c, 0, 67, 109
1, 50677, Note_on_c, 0, 66, 116
1, 50794, Note_off_c, 0, 66, 116
1, 50888, Note_on_c, 0, 63, 120
1, 51009, Note_off_c, 0, 63, 120
1, 51051, Note_on_c, 0, 60, 111
1, 51368, Note_off_c, 0, 60, 111
1, 51594, Note_on_c, 0, 70, 120
1, 51725, Note_off_c, 0, 70, 120
1, 51745, Note_on_c, 0, 68, 107
1, 51787, Note_off_c, 0, 68, 107
1, 51797, Note_on_c, 0, 66, 112
1, 51822, Note_off_c, 0, 66, 112
1, 51822, Note_on_c, 0, 63, 120
1, 51941, Note_off_c, 0, 63, 120
1, 51959, Note_on_c, 0, 63, 118
1, 52172, Note_off_c, 0, 63, 118
1, 52185, Note_on_c, 0, 63, 116
1, 52339, Note_off_c, 0, 63, 116
1, 52381, Note_on_c, 0, 66, 117
1, 52485, Note_off_c, 0, 66, 117
1, 52488, Note_on_c, 0, 67, 109
1, 52568, Note_off_c, 0, 67, 109
1, 53141, Note_on_c, 0, 58, 116
1, 53258, Note_off_c, 0, 58, 116
1, 53258, Note_on_c, 0, 60, 108
1, 53315, Note_off_c, 0, 60, 108
1, 53328, Note_on_c, 0, 63, 127
1, 53435, Note_off_c, 0, 63, 127
1, 53475, Note_on_c, 0, 65, 117
1, 53599, Note_off_c, 0, 65, 117
1, 53654, Note_on_c, 0, 63, 100
1, 53726, Note_on_c, 0, 66, 110
1, 53726, Note_off_c, 0, 63, 100
1, 53852, Note_off_c, 0, 66, 110
1, 53881, Note_on_c, 0, 63, 109
1, 54098, Note_off_c, 0, 63, 109
1, 54098, Note_on_c, 0, 60, 117
1, 54197, Note_off_c, 0, 60, 117
1, 54324, Note_on_c, 0, 77, 111
1, 54461, Note_off_c, 0, 77, 111
1, 54470, Note_on_c, 0, 78, 104
1, 54585, Note_off_c, 0, 78, 104
1, 54585, Note_on_c, 0, 75, 118
1, 54655, Note_off_c, 0, 75, 118
1, 54676, Note_on_c, 0, 73, 114
1, 54754, Note_off_c, 0, 73, 114
1, 54761, Note_on_c, 0, 70, 114
1, 54834, Note_on_c, 0, 68, 115
1, 54834, Note_off_c, 0, 70, 114
1, 54949, Note_off_c, 0, 68, 115
1, 54977, Note_on_c, 0, 66, 104
1, 55017, Note_off_c, 0, 66, 104
1, 55046, Note_on_c, 0, 68, 115
1, 55144, Note_off_c, 0, 68, 115
1, 55162, Note_on_c, 0, 67, 91
1, 55195, Note_off_c, 0, 67, 91
1, 55212, Note_on_c, 0, 68, 111
1, 55324, Note_off_c, 0, 68, 111
1, 55355, Note_on_c, 0, 66, 85
1, 55404, Note_off_c, 0, 66, 85
1, 55408, Note_on_c, 0, 68, 105
1, 55505, Note_off_c, 0, 68, 105
1, 55539, Note_on_c, 0, 68, 103
1, 55588, Note_off_c, 0, 68, 103
1, 55605, Note_on_c, 0, 66, 106
1, 55687, Note_off_c, 0, 66, 106
1, 55722, Note_on_c, 0, 70, 117
1, 55779, Note_off_c, 0, 70, 117
1, 55948, Note_on_c, 0, 83, 105
1, 56018, Note_off_c, 0, 83, 105
1, 56120, Note_on_c, 0, 81, 110
1, 56217, Note_off_c, 0, 81, 110
1, 56297, Note_on_c, 0, 80, 101
1, 56397, Note_off_c, 0, 80, 101
1, 56516, Note_on_c, 0, 78, 112
1, 56564, Note_off_c, 0, 78, 112
1, 56586, Note_on_c, 0, 79, 115
1, 56646, Note_off_c, 0, 79, 115
1, 56662, Note_on_c, 0, 75, 108
1, 56740, Note_off_c, 0, 75, 108
1, 56754, Note_on_c, 0, 77, 114
1, 56834, Note_off_c, 0, 77, 114
1, 56867, Note_on_c, 0, 72, 111
1, 56954, Note_off_c, 0, 72, 111
1, 56963, Note_on_c, 0, 72, 114
1, 57030, Note_off_c, 0, 72, 114
1, 57033, Note_on_c, 0, 70, 115
1, 57105, Note_off_c, 0, 70, 115
1, 57120, Note_on_c, 0, 69, 111
1, 57234, Note_off_c, 0, 69, 111
1, 57267, Note_on_c, 0, 75, 111
1, 57386, Note_off_c, 0, 75, 111
1, 57397, Note_on_c, 0, 71, 115
1, 57493, Note_off_c, 0, 71, 115
1, 57501, Note_on_c, 0, 67, 105
1, 57586, Note_off_c, 0, 67, 105
1, 57597, Note_on_c, 0, 64, 116
1, 57673, Note_off_c, 0, 64, 116
1, 57685, Note_on_c, 0, 63, 111
1, 57781, Note_off_c, 0, 63, 111
1, 57781, Note_on_c, 0, 61, 108
1, 57840, Note_off_c, 0, 61, 108
1, 57899, Note_on_c, 0, 58, 92
1, 57962, Note_off_c, 0, 58, 92
1, 57966, Note_on_c, 0, 59, 101
1, 58046, Note_off_c, 0, 59, 101
1, 58056, Note_on_c, 0, 60, 101
1, 58187, Note_off_c, 0, 60, 101
1, 58236, Note_on_c, 0, 71, 112
1, 58321, Note_off_c, 0, 71, 112
1, 58330, Note_on_c, 0, 72, 112
1, 58417, Note_off_c, 0, 72, 112
1, 58440, Note_on_c, 0, 68, 103
1, 58586, Note_off_c, 0, 68, 103
1, 58604, Note_on_c, 0, 68, 88
1, 58644, Note_off_c, 0, 68, 88
1, 58930, Note_on_c, 0, 72, 115
1, 59090, Note_off_c, 0, 72, 115
1, 59097, Note_on_c, 0, 74, 118
1, 59215, Note_off_c, 0, 74, 118
1, 59236, Note_on_c, 0, 68, 112
1, 59356, Note_off_c, 0, 68, 112
1, 59393, Note_on_c, 0, 73, 114
1, 59541, Note_off_c, 0, 73, 114
1, 59543, Note_on_c, 0, 75, 119
1, 59619, Note_off_c, 0, 75, 119
1, 59619, Note_on_c, 0, 74, 117
1, 59711, Note_off_c, 0, 74, 117
1, 59711, Note_on_c, 0, 72, 120
1, 59791, Note_off_c, 0, 72, 120
1, 59812, Note_on_c, 0, 70, 119
1, 59897, Note_off_c, 0, 70, 119
1, 59912, Note_on_c, 0, 68, 115
1, 59975, Note_off_c, 0, 68, 115
1, 59980, Note_on_c, 0, 67, 105
1, 60074, Note_off_c, 0, 67, 105
1, 60094, Note_on_c, 0, 65, 105
1, 60161, Note_off_c, 0, 65, 105
1, 60194, Note_on_c, 0, 64, 111
1, 60278, Note_off_c, 0, 64, 111
1, 60289, Note_on_c, 0, 67, 106
1, 60352, Note_off_c, 0, 67, 106
1, 60392, Note_on_c, 0, 65, 111
1, 60465, Note_off_c, 0, 65, 111
1, 60480, Note_on_c, 0, 67, 106
1, 60540, Note_off_c, 0, 67, 106
1, 60558, Note_on_c, 0, 68, 105
1, 60647, Note_off_c, 0, 68, 105
1, 60647, Note_on_c, 0, 69, 110
1, 60731, Note_off_c, 0, 69, 110
1, 60746, Note_on_c, 0, 70, 115
1, 60826, Note_off_c, 0, 70, 115
1, 60831, Note_on_c, 0, 72, 111
1, 60908, Note_off_c, 0, 72, 111
1, 60928, Note_on_c, 0, 74, 108
1, 60986, Note_off_c, 0, 74, 108
1, 61024, Note_on_c, 0, 77, 113
1, 61096, Note_off_c, 0, 77, 113
1, 61112, Note_on_c, 0, 74, 117
1, 61182, Note_off_c, 0, 74, 117
1, 61182, Note_on_c, 0, 75, 115
1, 61272, Note_off_c, 0, 75, 115
1, 61472, Note_on_c, 0, 77, 108
1, 61514, Note_off_c, 0, 77, 108
1, 61517, Note_on_c, 0, 79, 115
1, 61577, Note_off_c, 0, 79, 115
1, 61597, Note_on_c, 0, 82, 111
1, 61654, Note_off_c, 0, 82, 111
1, 61675, Note_on_c, 0, 84, 106
1, 61762, Note_off_c, 0, 84, 106
1, 61816, Note_on_c, 0, 85, 98
1, 61865, Note_off_c, 0, 85, 98
1, 61875, Note_on_c, 0, 86, 100
1, 61961, Note_off_c, 0, 86, 100
1, 62170, Note_on_c, 0, 82, 104
1, 62255, Note_off_c, 0, 82, 104
1, 62268, Note_on_c, 0, 81, 110
1, 62343, Note_off_c, 0, 81, 110
1, 62349, Note_on_c, 0, 78, 117
1, 62416, Note_off_c, 0, 78, 117
1, 62419, Note_on_c, 0, 75, 116
1, 62556, Note_off_c, 0, 75, 116
1, 62592, Note_on_c, 0, 75, 115
1, 62744, Note_off_c, 0, 75, 115
1, 62792, Note_on_c, 0, 75, 118
1, 62970, Note_off_c, 0, 75, 118
1, 63175, Note_on_c, 0, 75, 116
1, 63282, Note_off_c, 0, 75, 116
1, 63291, Note_on_c, 0, 75, 112
1, 63343, Note_off_c, 0, 75, 112
1, 63357, Note_on_c, 0, 75, 103
1, 63392, Note_off_c, 0, 75, 103
1, 63406, Note_on_c, 0, 75, 109
1, 63447, Note_off_c, 0, 75, 109
1, 63467, Note_on_c, 0, 75, 104
1, 63530, Note_off_c, 0, 75, 104
1, 63539, Note_on_c, 0, 75, 105
1, 63583, Note_off_c, 0, 75, 105
1, 63599, Note_on_c, 0, 75, 106
1, 63643, Note_off_c, 0, 75, 106
1, 63652, Note_on_c, 0, 75, 105
1, 63718, Note_off_c, 0, 75, 105
1, 63738, Note_on_c, 0, 78, 114
1, 63789, Note_off_c, 0, 78, 114
1, 63801, Note_on_c, 0, 79, 114
1, 63884, Note_off_c, 0, 79, 114
1, 64098, Note_on_c, 0, 75, 114
1, 64245, Note_off_c, 0, 75, 114
1, 64295, Note_on_c, 0, 75, 120
1, 64481, Note_off_c, 0, 75, 120
1, 64654, Note_on_c, 0, 75, 118
1, 64705, Note_off_c, 0, 75, 118
1, 64719, Note_on_c, 0, 75, 117
1, 64771, Note_off_c, 0, 75, 117
1, 64789, Note_on_c, 0, 75, 110
1, 64846, Note_off_c, 0, 75, 110
1, 64857, Note_on_c, 0, 75, 109
1, 64910, Note_off_c, 0, 75, 109
1, 64927, Note_on_c, 0, 75, 108
1, 64990, Note_off_c, 0, 75, 108
1, 65013, Note_on_c, 0, 75, 109
1, 65080, Note_off_c, 0, 75, 109
1, 65088, Note_on_c, 0, 75, 104
1, 65118, Note_off_c, 0, 75, 104
1, 65133, Note_on_c, 0, 75, 90
1, 65163, Note_off_c, 0, 75, 90
1, 65178, Note_on_c, 0, 75, 111
1, 65223, Note_off_c, 0, 75, 111
1, 65240, Note_on_c, 0, 80, 101
1, 65291, Note_off_c, 0, 80, 101
1, 65302, Note_on_c, 0, 82, 110
1, 65368, Note_off_c, 0, 82, 110
1, 65590, Note_on_c, 0, 75, 119
1, 65717, Note_off_c, 0, 75, 119
1, 65779, Note_on_c, 0, 75, 112
1, 66013, Note_off_c, 0, 75, 112
1, 66409, Note_on_c, 0, 84, 92
1, 66548, Note_off_c, 0, 84, 92
1, 66548, Note_on_c, 0, 82, 106
1, 66657, Note_off_c, 0, 82, 106
1, 66664, Note_on_c, 0, 81, 108
1, 66720, Note_off_c, 0, 81, 108
1, 66749, Note_on_c, 0, 78, 108
1, 66805, Note_off_c, 0, 78, 108
1, 66819, Note_on_c, 0, 78, 102
1, 66904, Note_off_c, 0, 78, 102
1, 66911, Note_on_c, 0, 77, 112
1, 66958, Note_off_c, 0, 77, 112
1, 66965, Note_on_c, 0, 76, 109
1, 67014, Note_off_c, 0, 76, 109
1, 67103, Note_on_c, 0, 75, 113
1, 67210, Note_off_c, 0, 75, 113
1, 67225, Note_on_c, 0, 72, 109
1, 67284, Note_off_c, 0, 72, 109
1, 67301, Note_on_c, 0, 70, 115
1, 67406, Note_off_c, 0, 70, 115
1, 67432, Note_on_c, 0, 65, 106
1, 67474, Note_off_c, 0, 65, 106
1, 67534, Note_on_c, 0, 71, 106
1, 67576, Note_off_c, 0, 71, 106
1, 67577, Note_on_c, 0, 68, 103
1, 67605, Note_off_c, 0, 68, 103
1, 67607, Note_on_c, 0, 65, 116
1, 67688, Note_off_c, 0, 65, 116
1, 67697, Note_on_c, 0, 63, 120
1, 67804, Note_off_c, 0, 63, 120
1, 67814, Note_on_c, 0, 59, 96
1, 67849, Note_off_c, 0, 59, 96
1, 67872, Note_on_c, 0, 62, 118
1, 67983, Note_off_c, 0, 62, 118
1, 67983, Note_on_c, 0, 65, 112
1, 68036, Note_off_c, 0, 65, 112
1, 68090, Note_on_c, 0, 68, 110
1, 68140, Note_off_c, 0, 68, 110
1, 68180, Note_on_c, 0, 72, 117
1, 68250, Note_off_c, 0, 72, 117
1, 68304, Note_on_c, 0, 74, 119
1, 68350, Note_off_c, 0, 74, 119
1, 68352, Note_on_c, 0, 75, 117
1, 68426, Note_off_c, 0, 75, 117
1, 68441, Note_on_c, 0, 74, 116
1, 68527, Note_off_c, 0, 74, 116
1, 68542, Note_on_c, 0, 72, 117
1, 68609, Note_off_c, 0, 72, 117
1, 68659, Note_on_c, 0, 70, 121
1, 68732, Note_off_c, 0, 70, 121
1, 68758, Note_on_c, 0, 67, 97
1, 68792, Note_off_c, 0, 67, 97
1, 68886, Note_on_c, 0, 69, 106
1, 68932, Note_on_c, 0, 68, 103
1, 68932, Note_off_c, 0, 69, 106
1, 68952, Note_off_c, 0, 68, 103
1, 68952, Note_on_c, 0, 66, 105
1, 69004, Note_off_c, 0, 66, 105
1, 69052, Note_on_c, 0, 67, 10
1, 69135, Note_off_c, 0, 67, 10
1, 69190, Note_on_c, 0, 65, 111
1, 69324, Note_off_c, 0, 65, 111
1, 69324, Note_on_c, 0, 61, 111
1, 69392, Note_off_c, 0, 61, 111
1, 69422, Note_on_c, 0, 58, 103
1, 69518, Note_off_c, 0, 58, 103
1, 69539, Note_on_c, 0, 53, 115
1, 69576, Note_off_c, 0, 53, 115
1, 69607, Note_on_c, 0, 56, 109
1, 69698, Note_off_c, 0, 56, 109
1, 69711, Note_on_c, 0, 55, 115
1, 69810, Note_off_c, 0, 55, 115
1, 70071, Note_on_c, 0, 69, 126
1, 70153, Note_off_c, 0, 69, 126
1, 70153, Note_on_c, 0, 70, 124
1, 70304, Note_off_c, 0, 70, 124
1, 70312, Note_on_c, 0, 68, 118
1, 70392, Note_off_c, 0, 68, 118
1, 70439, Note_on_c, 0, 66, 114
1, 70504, Note_off_c, 0, 66, 114
1, 70527, Note_on_c, 0, 63, 124
1, 70658, Note_off_c, 0, 63, 124
1, 70663, Note_on_c, 0, 60, 115
1, 70774, Note_off_c, 0, 60, 115
1, 70826, Note_on_c, 0, 66, 112
1, 71018, Note_off_c, 0, 66, 112
1, 71380, Note_on_c, 0, 63, 97
1, 71453, Note_off_c, 0, 63, 97
1, 71495, Note_on_c, 0, 69, 115
1, 71543, Note_off_c, 0, 69, 115
1, 71543, Note_on_c, 0, 70, 106
1, 71603, Note_off_c, 0, 70, 106
1, 71606, Note_on_c, 0, 73, 105
1, 71653, Note_off_c, 0, 73, 105
1, 71669, Note_on_c, 0, 69, 114
1, 71734, Note_off_c, 0, 69, 114
1, 71950, Note_on_c, 0, 63, 122
1, 72004, Note_off_c, 0, 63, 122
1, 72035, Note_on_c, 0, 69, 105
1, 72090, Note_off_c, 0, 69, 105
1, 72095, Note_on_c, 0, 70, 106
1, 72147, Note_off_c, 0, 70, 106
1, 72147, Note_on_c, 0, 72, 110
1, 72194, Note_off_c, 0, 72, 110
1, 72204, Note_on_c, 0, 69, 113
1, 72250, Note_off_c, 0, 69, 113
1, 72259, Note_on_c, 0, 68, 105
1, 72314, Note_off_c, 0, 68, 105
1, 72317, Note_on_c, 0, 66, 105
1, 72367, Note_off_c, 0, 66, 105
1, 72374, Note_on_c, 0, 68, 116
1, 72437, Note_off_c, 0, 68, 116
1, 72458, Note_on_c, 0, 66, 112
1, 72485, Note_off_c, 0, 66, 112
1, 72498, Note_on_c, 0, 63, 118
1, 72567, Note_off_c, 0, 63, 118
1, 72569, Note_on_c, 0, 61, 113
1, 72610, Note_off_c, 0, 61, 113
1, 72634, Note_on_c, 0, 58, 108
1, 72687, Note_off_c, 0, 58, 108
1, 72695, Note_on_c, 0, 57, 114
1, 72749, Note_off_c, 0, 57, 114
1, 72754, Note_on_c, 0, 56, 112
1, 72803, Note_off_c, 0, 56, 112
1, 72808, Note_on_c, 0, 54, 114
1, 72887, Note_off_c, 0, 54, 114
1, 72891, Note_on_c, 0, 51, 112
1, 72937, Note_off_c, 0, 51, 112
1, 72940, Note_on_c, 0, 56, 113
1, 73005, Note_off_c, 0, 56, 113
1, 73018, Note_on_c, 0, 51, 111
1, 73065, Note_off_c, 0, 51, 111
1, 73065, Note_on_c, 0, 54, 116
1, 73127, Note_off_c, 0, 54, 116
1, 73134, Note_on_c, 0, 55, 112
1, 73188, Note_off_c, 0, 55, 112
1, 73192, Note_on_c, 0, 58, 108
1, 73241, Note_off_c, 0, 58, 108
1, 73241, Note_on_c, 0, 60, 113
1, 73309, Note_off_c, 0, 60, 113
1, 73309, Note_on_c, 0, 63, 108
1, 73447, Note_off_c, 0, 63, 108
1, 73459, Note_on_c, 0, 64, 121
1, 73522, Note_off_c, 0, 64, 121
1, 73530, Note_on_c, 0, 65, 114
1, 73619, Note_off_c, 0, 65, 114
1, 73639, Note_on_c, 0, 63, 118
1, 73711, Note_off_c, 0, 63, 118
1, 73718, Note_on_c, 0, 61, 106
1, 73751, Note_off_c, 0, 61, 106
1, 73755, Note_on_c, 0, 58, 103
1, 73814, Note_off_c, 0, 58, 103
1, 73829, Note_on_c, 0, 54, 108
1, 73877, Note_off_c, 0, 54, 108
1, 73879, Note_on_c, 0, 56, 114
1, 73927, Note_off_c, 0, 56, 114
1, 73927, Note_on_c, 0, 57, 114
1, 73971, Note_off_c, 0, 57, 114
1, 73972, Note_on_c, 0, 56, 106
1, 74019, Note_off_c, 0, 56, 106
1, 74021, Note_on_c, 0, 54, 112
1, 74084, Note_off_c, 0, 54, 112
1, 74104, Note_on_c, 0, 51, 105
1, 74191, Note_off_c, 0, 51, 105
1, 74199, Note_on_c, 0, 56, 114
1, 74288, Note_off_c, 0, 56, 114
1, 74297, Note_on_c, 0, 54, 114
1, 74377, Note_off_c, 0, 54, 114
1, 74433, Note_on_c, 0, 47, 103
1, 74480, Note_off_c, 0, 47, 103
1, 74480, Note_on_c, 0, 48, 105
1, 74530, Note_off_c, 0, 48, 105
1, 74553, Note_on_c, 0, 51, 110
1, 74721, Note_off_c, 0, 51, 110
1, 74726, Note_on_c, 0, 48, 110
1, 74757, Note_off_c, 0, 48, 110
1, 74763, Note_on_c, 0, 47, 112
1, 74800, Note_off_c, 0, 47, 112
1, 74809, Note_on_c, 0, 46, 109
1, 74846, Note_off_c, 0, 46, 109
1, 74846, End_track
0, 0, End_of_file
