0, 0, Header, 1, 1, 192
1, 0, Start_track
1, 0, Title_t, "Melody"
1, 0, Tempo, 413793
1, 0, Key_signature, -2, "major"
1, 0, Time_signature, 4, 2, 24, 8
1, 1510, Note_on_c, 0, 54, 108
1, 1545, Note_off_c, 0, 54, 108
1, 1548, Note_on_c, 0, 56, 117
1, 1598, Note_off_c, 0, 56, 117
1, 1604, Note_on_c, 0, 55, 115
1, 1706, Note_off_c, 0, 55, 115
1, 1714, Note_on_c, 0, 53, 115
1, 1782, Note_off_c, 0, 53, 115
1, 1804, Note_on_c, 0, 50, 104
1, 1902, Note_off_c, 0, 50, 104
1, 1912, Note_on_c, 0, 48, 104
1, 2018, Note_off_c, 0, 48, 104
1, 2018, Note_on_c, 0, 50, 103
1, 2173, Note_off_c, 0, 50, 103
1, 2394, Note_on_c, 0, 52, 121
1, 2463, Note_off_c, 0, 52, 121
1, 2463, Note_on_c, 0, 53, 115
1, 2546, Note_off_c, 0, 53, 115
1, 2689, Note_on_c, 0, 50, 106
1, 2806, Note_off_c, 0, 50, 106
1, 3098, Note_on_c, 0, 56, 113
1, 3200, Note_off_c, 0, 56, 113
1, 3201, Note_on_c, 0, 55, 113
1, 3269, Note_off_c, 0, 55, 113
1, 3278, Note_on_c, 0, 53, 113
1, 3344, Note_off_c, 0, 53, 113
1, 3362, Note_on_c, 0, 50, 107
1, 3443, Note_off_c, 0, 50, 107
1, 3492, Note_on_c, 0, 48, 105
1, 3545, Note_off_c, 0, 48, 105
1, 3551, Note_on_c, 0, 50, 106
1, 3675, Note_off_c, 0, 50, 106
1, 3974, Note_on_c, 0, 53, 122
1, 4041, Note_off_c, 0, 53, 122
1, 4042, Note_on_c, 0, 54, 107
1, 4099, Note_off_c, 0, 54, 107
1, 4257, Note_on_c, 0, 50, 106
1, 4374, Note_off_c, 0, 50, 106
1, 4608, Note_on_c, 0, 60, 123
1, 4753, Note_off_c, 0, 60, 123
1, 4760, Note_on_c, 0, 59, 118
1, 4813, Note_off_c, 0, 59, 118
1, 4813, Note_on_c, 0, 58, 110
1, 4869, Note_off_c, 0, 58, 110
1, 4882, Note_on_c, 0, 55, 112
1, 4989, Note_off_c, 0, 55, 112
1, 4998, Note_on_c, 0, 53, 104
1, 5064, Note_off_c, 0, 53, 104
1, 5084, Note_on_c, 0, 55, 96
1, 5337, Note_off_c, 0, 55, 96
1, 5458, Note_on_c, 0, 58, 112
1, 5594, Note_off_c, 0, 58, 112
1, 5962, Note_on_c, 0, 55, 113
1, 6020, Note_off_c, 0, 55, 113
1, 6022, Note_on_c, 0, 58, 106
1, 6052, Note_off_c, 0, 58, 106
1, 6057, Note_on_c, 0, 59, 103
1, 6104, Note_off_c, 0, 59, 103
1, 6105, Note_on_c, 0, 62, 118
1, 6148, Note_off_c, 0, 62, 118
1, 6153, Note_on_c, 0, 65, 108
1, 6219, Note_off_c, 0, 65, 108
1, 6279, Note_on_c, 0, 67, 118
1, 6330, Note_off_c, 0, 67, 118
1, 6339, Note_on_c, 0, 65, 108
1, 6392, Note_off_c, 0, 65, 108
1, 6429, Note_on_c, 0, 67, 117
1, 6474, Note_off_c, 0, 67, 117
1, 6479, Note_on_c, 0, 68, 111
1, 6535, Note_off_c, 0, 68, 111
1, 6538, Note_on_c, 0, 67, 112
1, 6608, Note_off_c, 0, 67, 112
1, 6611, Note_on_c, 0, 65, 111
1, 6664, Note_off_c, 0, 65, 111
1, 6669, Note_on_c, 0, 62, 120
1, 6740, Note_off_c, 0, 62, 120
1, 6747, Note_on_c, 0, 60, 116
1, 6798, Note_off_c, 0, 60, 116
1, 6803, Note_on_c, 0, 56, 108
1, 6854, Note_off_c, 0, 56, 108
1, 6863, Note_on_c, 0, 55, 114
1, 6927, Note_off_c, 0, 55, 114
1, 6944, Note_on_c, 0, 50, 109
1, 7017, Note_off_c, 0, 50, 109
1, 7026, Note_on_c, 0, 53, 112
1, 7109, Note_off_c, 0, 53, 112
1, 7114, Note_on_c, 0, 50, 105
1, 7167, Note_off_c, 0, 50, 105
1, 7167, Note_on_c, 0, 53, 112
1, 7223, Note_off_c, 0, 53, 112
1, 7228, Note_on_c, 0, 55, 112
1, 7290, Note_off_c, 0, 55, 112
1, 7301, Note_on_c, 0, 53, 110
1, 7350, Note_off_c, 0, 53, 110
1, 7350, Note_on_c, 0, 54, 109
1, 7397, Note_off_c, 0, 54, 109
1, 7397, Note_on_c, 0, 50, 103
1, 7548, Note_off_c, 0, 50, 103
1, 7858, Note_on_c, 0, 57, 115
1, 7903, Note_off_c, 0, 57, 115
1, 7903, Note_on_c, 0, 60, 119
1, 7956, Note_off_c, 0, 60, 119
1, 7957, Note_on_c, 0, 61, 114
1, 8000, Note_off_c, 0, 61, 114
1, 8011, Note_on_c, 0, 64, 118
1, 8054, Note_off_c, 0, 64, 118
1, 8054, Note_on_c, 0, 66, 111
1, 8118, Note_off_c, 0, 66, 111
1, 8182, Note_on_c, 0, 69, 116
1, 8238, Note_off_c, 0, 69, 116
1, 8291, Note_on_c, 0, 71, 106
1, 8332, Note_off_c, 0, 71, 106
1, 8332, Note_on_c, 0, 72, 108
1, 8402, Note_off_c, 0, 72, 108
1, 8420, Note_on_c, 0, 69, 116
1, 8601, Note_off_c, 0, 69, 116
1, 8680, Note_on_c, 0, 67, 113
1, 8721, Note_off_c, 0, 67, 113
1, 8721, Note_on_c, 0, 68, 115
1, 8800, Note_off_c, 0, 68, 115
1, 8864, Note_on_c, 0, 67, 114
1, 8956, Note_off_c, 0, 67, 114
1, 8976, Note_on_c, 0, 65, 115
1, 9038, Note_off_c, 0, 65, 115
1, 9056, Note_on_c, 0, 62, 119
1, 9156, Note_off_c, 0, 62, 119
1, 9167, Note_on_c, 0, 60, 96
1, 9237, Note_off_c, 0, 60, 96
1, 9242, Note_on_c, 0, 65, 115
1, 9363, Note_off_c, 0, 65, 115
1, 9381, Note_on_c, 0, 62, 105
1, 9432, Note_off_c, 0, 62, 105
1, 9433, Note_on_c, 0, 65, 116
1, 9592, Note_off_c, 0, 65, 116
1, 9629, Note_on_c, 0, 62, 113
1, 9937, Note_off_c, 0, 62, 113
1, 9965, Note_on_c, 0, 60, 103
1, 10006, Note_off_c, 0, 60, 103
1, 10006, Note_on_c, 0, 64, 113
1, 10043, Note_off_c, 0, 64, 113
1, 10046, Note_on_c, 0, 66, 107
1, 10110, Note_off_c, 0, 66, 107
1, 10132, Note_on_c, 0, 69, 116
1, 10190, Note_off_c, 0, 69, 116
1, 10195, Note_on_c, 0, 71, 118
1, 10278, Note_off_c, 0, 71, 118
1, 10297, Note_on_c, 0, 74, 111
1, 10361, Note_off_c, 0, 74, 111
1, 10544, Note_on_c, 0, 75, 115
1, 10585, Note_off_c, 0, 75, 115
1, 10594, Note_on_c, 0, 77, 111
1, 10639, Note_off_c, 0, 77, 111
1, 10639, Note_on_c, 0, 75, 112
1, 10692, Note_off_c, 0, 75, 112
1, 10706, Note_on_c, 0, 76, 97
1, 10825, Note_off_c, 0, 76, 97
1, 10856, Note_on_c, 0, 72, 108
1, 10895, Note_off_c, 0, 72, 108
1, 10895, Note_on_c, 0, 69, 109
1, 10934, Note_off_c, 0, 69, 109
1, 10958, Note_on_c, 0, 65, 117
1, 11050, Note_off_c, 0, 65, 117
1, 11112, Note_on_c, 0, 62, 121
1, 11216, Note_off_c, 0, 62, 121
1, 11422, Note_on_c, 0, 62, 121
1, 11531, Note_off_c, 0, 62, 121
1, 11693, Note_on_c, 0, 62, 126
1, 11759, Note_off_c, 0, 62, 126
1, 12003, Note_on_c, 0, 76, 107
1, 12046, Note_off_c, 0, 76, 107
1, 12046, Note_on_c, 0, 77, 109
1, 12133, Note_off_c, 0, 77, 109
1, 12138, Note_on_c, 0, 76, 112
1, 12189, Note_off_c, 0, 76, 112
1, 12189, Note_on_c, 0, 77, 104
1, 12249, Note_off_c, 0, 77, 104
1, 12249, Note_on_c, 0, 76, 113
1, 12284, Note_off_c, 0, 76, 113
1, 12284, Note_on_c, 0, 77, 107
1, 12344, Note_off_c, 0, 77, 107
1, 12364, Note_on_c, 0, 71, 106
1, 12396, Note_off_c, 0, 71, 106
1, 12397, Note_on_c, 0, 69, 113
1, 12423, Note_off_c, 0, 69, 113
1, 12426, Note_on_c, 0, 67, 115
1, 12454, Note_off_c, 0, 67, 115
1, 12454, Note_on_c, 0, 65, 113
1, 12535, Note_off_c, 0, 65, 113
1, 12635, Note_on_c, 0, 62, 125
1, 12720, Note_off_c, 0, 62, 125
1, 12945, Note_on_c, 0, 61, 97
1, 12968, Note_off_c, 0, 61, 97
1, 12969, Note_on_c, 0, 62, 124
1, 13040, Note_off_c, 0, 62, 124
1, 13244, Note_on_c, 0, 62, 121
1, 13317, Note_off_c, 0, 62, 121
1, 13561, Note_on_c, 0, 76, 120
1, 13600, Note_off_c, 0, 76, 120
1, 13600, Note_on_c, 0, 77, 107
1, 13789, Note_off_c, 0, 77, 107
1, 13806, Note_on_c, 0, 70, 119
1, 13845, Note_off_c, 0, 70, 119
1, 13856, Note_on_c, 0, 71, 106
1, 13890, Note_off_c, 0, 71, 106
1, 13905, Note_on_c, 0, 74, 107
1, 13944, Note_off_c, 0, 74, 107
1, 13955, Note_on_c, 0, 73, 115
1, 14002, Note_off_c, 0, 73, 115
1, 14005, Note_on_c, 0, 72, 113
1, 14052, Note_off_c, 0, 72, 113
1, 14061, Note_on_c, 0, 69, 103
1, 14091, Note_off_c, 0, 69, 103
1, 14091, Note_on_c, 0, 71, 113
1, 14134, Note_off_c, 0, 71, 113
1, 14147, Note_on_c, 0, 69, 115
1, 14177, Note_off_c, 0, 69, 115
1, 14182, Note_on_c, 0, 67, 112
1, 14231, Note_off_c, 0, 67, 112
1, 14246, Note_on_c, 0, 66, 109
1, 14308, Note_off_c, 0, 66, 109
1, 14309, Note_on_c, 0, 65, 104
1, 14339, Note_off_c, 0, 65, 104
1, 14339, Note_on_c, 0, 69, 116
1, 14374, Note_off_c, 0, 69, 116
1, 14383, Note_on_c, 0, 64, 115
1, 14418, Note_off_c, 0, 64, 115
1, 14425, Note_on_c, 0, 62, 108
1, 14474, Note_off_c, 0, 62, 108
1, 14477, Note_on_c, 0, 67, 113
1, 14520, Note_on_c, 0, 66, 117
1, 14520, Note_off_c, 0, 67, 113
1, 14567, Note_off_c, 0, 66, 117
1, 14567, Note_on_c, 0, 65, 114
1, 14604, Note_off_c, 0, 65, 114
1, 14613, Note_on_c, 0, 61, 112
1, 14660, Note_on_c, 0, 64, 118
1, 14660, Note_off_c, 0, 61, 112
1, 14711, Note_off_c, 0, 64, 118
1, 14711, Note_on_c, 0, 62, 112
1, 14757, Note_off_c, 0, 62, 112
1, 14757, Note_on_c, 0, 57, 107
1, 14815, Note_off_c, 0, 57, 107
1, 14817, Note_on_c, 0, 53, 104
1, 14854, Note_off_c, 0, 53, 104
1, 14854, Note_on_c, 0, 60, 116
1, 14907, Note_off_c, 0, 60, 116
1, 14907, Note_on_c, 0, 57, 102
1, 14954, Note_on_c, 0, 59, 111
1, 14954, Note_off_c, 0, 57, 102
1, 15003, Note_off_c, 0, 59, 111
1, 15003, Note_on_c, 0, 55, 115
1, 15046, Note_off_c, 0, 55, 115
1, 15053, Note_on_c, 0, 57, 111
1, 15092, Note_off_c, 0, 57, 111
1, 15099, Note_on_c, 0, 53, 108
1, 15140, Note_off_c, 0, 53, 108
1, 15149, Note_on_c, 0, 52, 111
1, 15194, Note_off_c, 0, 52, 111
1, 15199, Note_on_c, 0, 50, 107
1, 15265, Note_off_c, 0, 50, 107
1, 15408, Note_on_c, 0, 76, 119
1, 15442, Note_on_c, 0, 77, 110
1, 15442, Note_off_c, 0, 76, 119
1, 15559, Note_off_c, 0, 77, 110
1, 15570, Note_on_c, 0, 69, 96
1, 15592, Note_off_c, 0, 69, 96
1, 15592, Note_on_c, 0, 67, 111
1, 15618, Note_off_c, 0, 67, 111
1, 15619, Note_on_c, 0, 65, 110
1, 15690, Note_off_c, 0, 65, 110
1, 15716, Note_on_c, 0, 62, 119
1, 15812, Note_off_c, 0, 62, 119
1, 15984, Note_on_c, 0, 70, 119
1, 16046, Note_off_c, 0, 70, 119
1, 16048, Note_on_c, 0, 71, 98
1, 16085, Note_off_c, 0, 71, 98
1, 16097, Note_on_c, 0, 74, 104
1, 16148, Note_on_c, 0, 71, 108
1, 16148, Note_off_c, 0, 74, 104
1, 16201, Note_off_c, 0, 71, 108
1, 16201, Note_on_c, 0, 73, 109
1, 16238, Note_off_c, 0, 73, 109
1, 16238, Note_on_c, 0, 71, 117
1, 16271, Note_off_c, 0, 71, 117
1, 16276, Note_on_c, 0, 69, 108
1, 16351, Note_off_c, 0, 69, 108
1, 16351, Note_on_c, 0, 68, 111
1, 16384, Note_off_c, 0, 68, 111
1, 16384, Note_on_c, 0, 67, 111
1, 16418, Note_off_c, 0, 67, 111
1, 16426, Note_on_c, 0, 71, 109
1, 16466, Note_off_c, 0, 71, 109
1, 16466, Note_on_c, 0, 66, 107
1, 16505, Note_off_c, 0, 66, 107
1, 16511, Note_on_c, 0, 64, 105
1, 16557, Note_off_c, 0, 64, 105
1, 16571, Note_on_c, 0, 69, 115
1, 16595, Note_off_c, 0, 69, 115
1, 16595, Note_on_c, 0, 68, 114
1, 16613, Note_off_c, 0, 68, 114
1, 16616, Note_on_c, 0, 67, 112
1, 16648, Note_off_c, 0, 67, 112
1, 16656, Note_on_c, 0, 66, 112
1, 16705, Note_off_c, 0, 66, 112
1, 16723, Note_on_c, 0, 62, 118
1, 16756, Note_off_c, 0, 62, 118
1, 16765, Note_on_c, 0, 58, 109
1, 16790, Note_off_c, 0, 58, 109
1, 16814, Note_on_c, 0, 55, 111
1, 16850, Note_off_c, 0, 55, 111
1, 16850, Note_on_c, 0, 64, 119
1, 16898, Note_on_c, 0, 62, 119
1, 16898, Note_off_c, 0, 64, 119
1, 16940, Note_off_c, 0, 62, 119
1, 16941, Note_on_c, 0, 61, 116
1, 16986, Note_off_c, 0, 61, 116
1, 16986, Note_on_c, 0, 57, 106
1, 17029, Note_off_c, 0, 57, 106
1, 17029, Note_on_c, 0, 59, 111
1, 17074, Note_off_c, 0, 59, 111
1, 17074, Note_on_c, 0, 55, 114
1, 17115, Note_off_c, 0, 55, 114
1, 17132, Note_on_c, 0, 52, 110
1, 17169, Note_off_c, 0, 52, 110
1, 17175, Note_on_c, 0, 49, 103
1, 17212, Note_off_c, 0, 49, 103
1, 17217, Note_on_c, 0, 54, 119
1, 17254, Note_off_c, 0, 54, 119
1, 17260, Note_on_c, 0, 52, 115
1, 17320, Note_off_c, 0, 52, 115
1, 17320, Note_on_c, 0, 47, 122
1, 17363, Note_off_c, 0, 47, 122
1, 17371, Note_on_c, 0, 45, 124
1, 17431, Note_off_c, 0, 45, 124
1, 17668, Note_on_c, 0, 51, 120
1, 17709, Note_off_c, 0, 51, 120
1, 17710, Note_on_c, 0, 52, 119
1, 17745, Note_off_c, 0, 52, 119
1, 17751, Note_on_c, 0, 55, 120
1, 17800, Note_off_c, 0, 55, 120
1, 17801, Note_on_c, 0, 52, 117
1, 17843, Note_off_c, 0, 52, 117
1, 17857, Note_on_c, 0, 55, 122
1, 17887, Note_off_c, 0, 55, 122
1, 17890, Note_on_c, 0, 56, 118
1, 17908, Note_off_c, 0, 56, 118
1, 17908, Note_on_c, 0, 58, 117
1, 17937, Note_off_c, 0, 58, 117
1, 17940, Note_on_c, 0, 60, 114
1, 17963, Note_off_c, 0, 60, 114
1, 17963, Note_on_c, 0, 64, 123
1, 18012, Note_off_c, 0, 64, 123
1, 18026, Note_on_c, 0, 62, 118
1, 18071, Note_off_c, 0, 62, 118
1, 18091, Note_on_c, 0, 57, 111
1, 18127, Note_off_c, 0, 57, 111
1, 18132, Note_on_c, 0, 53, 112
1, 18162, Note_off_c, 0, 53, 112
1, 18162, Note_on_c, 0, 60, 118
1, 18194, Note_off_c, 0, 60, 118
1, 18216, Note_on_c, 0, 57, 112
1, 18251, Note_off_c, 0, 57, 112
1, 18253, Note_on_c, 0, 59, 105
1, 18283, Note_off_c, 0, 59, 105
1, 18293, Note_on_c, 0, 62, 112
1, 18329, Note_off_c, 0, 62, 112
1, 18336, Note_on_c, 0, 65, 107
1, 18392, Note_off_c, 0, 65, 107
1, 18393, Note_on_c, 0, 69, 114
1, 18439, Note_off_c, 0, 69, 114
1, 18442, Note_on_c, 0, 63, 109
1, 18481, Note_off_c, 0, 63, 109
1, 18482, Note_on_c, 0, 64, 101
1, 18515, Note_off_c, 0, 64, 101
1, 18532, Note_on_c, 0, 67, 113
1, 18577, Note_off_c, 0, 67, 113
1, 18581, Note_on_c, 0, 66, 113
1, 18622, Note_off_c, 0, 66, 113
1, 18622, Note_on_c, 0, 65, 111
1, 18664, Note_off_c, 0, 65, 111
1, 18664, Note_on_c, 0, 62, 112
1, 18709, Note_off_c, 0, 62, 112
1, 18715, Note_on_c, 0, 63, 119
1, 18734, Note_off_c, 0, 63, 119
1, 18743, Note_on_c, 0, 64, 115
1, 18795, Note_off_c, 0, 64, 115
1, 18810, Note_on_c, 0, 67, 113
1, 18850, Note_off_c, 0, 67, 113
1, 18852, Note_on_c, 0, 66, 112
1, 18905, Note_off_c, 0, 66, 112
1, 18909, Note_on_c, 0, 65, 114
1, 18943, Note_off_c, 0, 65, 114
1, 18945, Note_on_c, 0, 62, 103
1, 18997, Note_off_c, 0, 62, 103
1, 19003, Note_on_c, 0, 63, 116
1, 19051, Note_off_c, 0, 63, 116
1, 19051, Note_on_c, 0, 64, 116
1, 19098, Note_off_c, 0, 64, 116
1, 19122, Note_on_c, 0, 67, 111
1, 19154, Note_off_c, 0, 67, 111
1, 19156, Note_on_c, 0, 66, 108
1, 19191, Note_off_c, 0, 66, 108
1, 19195, Note_on_c, 0, 65, 108
1, 19236, Note_off_c, 0, 65, 108
1, 19243, Note_on_c, 0, 62, 109
1, 19293, Note_off_c, 0, 62, 109
1, 19293, Note_on_c, 0, 63, 121
1, 19335, Note_off_c, 0, 63, 121
1, 19339, Note_on_c, 0, 64, 115
1, 19392, Note_off_c, 0, 64, 115
1, 19394, Note_on_c, 0, 67, 110
1, 19423, Note_off_c, 0, 67, 110
1, 19427, Note_on_c, 0, 66, 110
1, 19466, Note_off_c, 0, 66, 110
1, 19467, Note_on_c, 0, 65, 112
1, 19511, Note_off_c, 0, 65, 112
1, 19511, Note_on_c, 0, 62, 106
1, 19563, Note_off_c, 0, 62, 106
1, 19563, Note_on_c, 0, 63, 118
1, 19606, Note_off_c, 0, 63, 118
1, 19608, Note_on_c, 0, 64, 108
1, 19650, Note_off_c, 0, 64, 108
1, 19655, Note_on_c, 0, 67, 110
1, 19698, Note_off_c, 0, 67, 110
1, 19701, Note_on_c, 0, 66, 111
1, 19733, Note_off_c, 0, 66, 111
1, 19739, Note_on_c, 0, 65, 112
1, 19778, Note_off_c, 0, 65, 112
1, 19784, Note_on_c, 0, 62, 109
1, 19828, Note_off_c, 0, 62, 109
1, 19832, Note_on_c, 0, 67, 113
1, 19858, Note_off_c, 0, 67, 113
1, 19865, Note_on_c, 0, 65, 105
1, 19891, Note_off_c, 0, 65, 105
1, 19901, Note_on_c, 0, 62, 112
1, 19941, Note_off_c, 0, 62, 112
1, 19949, Note_on_c, 0, 57, 103
1, 19972, Note_off_c, 0, 57, 103
1, 19981, Note_on_c, 0, 54, 110
1, 20000, Note_off_c, 0, 54, 110
1, 20017, Note_on_c, 0, 62, 115
1, 20051, Note_off_c, 0, 62, 115
1, 20059, Note_on_c, 0, 60, 114
1, 20094, Note_off_c, 0, 60, 114
1, 20104, Note_on_c, 0, 57, 111
1, 20138, Note_off_c, 0, 57, 111
1, 20341, Note_on_c, 0, 72, 112
1, 20414, Note_off_c, 0, 72, 112
1, 20415, Note_on_c, 0, 74, 108
1, 20819, Note_off_c, 0, 74, 108
1, 20834, Note_on_c, 0, 74, 109
1, 20876, Note_off_c, 0, 74, 109
1, 20890, Note_on_c, 0, 72, 112
1, 20933, Note_off_c, 0, 72, 112
1, 20952, Note_on_c, 0, 74, 107
1, 21007, Note_on_c, 0, 72, 113
1, 21007, Note_off_c, 0, 74, 107
1, 21058, Note_off_c, 0, 72, 113
1, 21064, Note_on_c, 0, 74, 111
1, 21110, Note_off_c, 0, 74, 111
1, 21114, Note_on_c, 0, 72, 111
1, 21166, Note_off_c, 0, 72, 111
1, 21177, Note_on_c, 0, 74, 109
1, 21224, Note_off_c, 0, 74, 109
1, 21224, Note_on_c, 0, 72, 110
1, 21259, Note_off_c, 0, 72, 110
1, 21311, Note_on_c, 0, 77, 98
1, 21353, Note_off_c, 0, 77, 98
1, 21391, Note_on_c, 0, 79, 118
1, 21462, Note_off_c, 0, 79, 118
1, 21477, Note_on_c, 0, 80, 109
1, 21524, Note_off_c, 0, 80, 109
1, 21545, Note_on_c, 0, 82, 101
1, 21594, Note_off_c, 0, 82, 101
1, 21814, Note_on_c, 0, 72, 113
1, 21854, Note_off_c, 0, 72, 113
1, 21862, Note_on_c, 0, 74, 111
1, 22004, Note_off_c, 0, 74, 111
1, 22029, Note_on_c, 0, 74, 110
1, 22065, Note_off_c, 0, 74, 110
1, 22070, Note_on_c, 0, 72, 108
1, 22098, Note_off_c, 0, 72, 108
1, 22140, Note_on_c, 0, 74, 109
1, 22183, Note_off_c, 0, 74, 109
1, 22193, Note_on_c, 0, 72, 110
1, 22234, Note_off_c, 0, 72, 110
1, 22241, Note_on_c, 0, 74, 111
1, 22294, Note_off_c, 0, 74, 111
1, 22299, Note_on_c, 0, 72, 109
1, 22344, Note_off_c, 0, 72, 109
1, 22348, Note_on_c, 0, 74, 111
1, 22401, Note_off_c, 0, 74, 111
1, 22409, Note_on_c, 0, 72, 111
1, 22459, Note_off_c, 0, 72, 111
1, 22459, Note_on_c, 0, 74, 110
1, 22511, Note_off_c, 0, 74, 110
1, 22511, Note_on_c, 0, 72, 110
1, 22568, Note_off_c, 0, 72, 110
1, 22568, Note_on_c, 0, 74, 108
1, 22622, Note_off_c, 0, 74, 108
1, 22625, Note_on_c, 0, 72, 111
1, 22682, Note_off_c, 0, 72, 111
1, 22687, Note_on_c, 0, 74, 107
1, 22730, Note_off_c, 0, 74, 107
1, 22738, Note_on_c, 0, 72, 108
1, 22795, Note_off_c, 0, 72, 108
1, 22796, Note_on_c, 0, 74, 108
1, 22828, Note_off_c, 0, 74, 108
1, 22832, Note_on_c, 0, 72, 104
1, 22867, Note_off_c, 0, 72, 104
1, 22867, Note_on_c, 0, 71, 103
1, 22894, Note_off_c, 0, 71, 103
1, 22901, Note_on_c, 0, 77, 106
1, 22942, Note_off_c, 0, 77, 106
1, 22974, Note_on_c, 0, 79, 114
1, 23028, Note_off_c, 0, 79, 114
1, 23045, Note_on_c, 0, 74, 106
1, 23116, Note_off_c, 0, 74, 106
1, 23391, Note_on_c, 0, 83, 75
1, 23440, Note_off_c, 0, 83, 75
1, 23463, Note_on_c, 0, 87, 106
1, 23512, Note_off_c, 0, 87, 106
1, 23527, Note_on_c, 0, 83, 106
1, 23559, Note_off_c, 0, 83, 106
1, 23560, Note_on_c, 0, 80, 110
1, 23624, Note_off_c, 0, 80, 110
1, 23902, Note_on_c, 0, 77, 98
1, 23946, Note_off_c, 0, 77, 98
1, 24012, Note_on_c, 0, 77, 111
1, 24088, Note_off_c, 0, 77, 111
1, 24099, Note_on_c, 0, 74, 111
1, 24172, Note_off_c, 0, 74, 111
1, 24191, Note_on_c, 0, 72, 109
1, 24282, Note_off_c, 0, 72, 109
1, 24293, Note_on_c, 0, 67, 116
1, 24471, Note_off_c, 0, 67, 116
1, 24481, Note_on_c, 0, 65, 115
1, 24560, Note_off_c, 0, 65, 115
1, 24562, Note_on_c, 0, 62, 124
1, 24681, Note_off_c, 0, 62, 124
1, 24697, Note_on_c, 0, 60, 103
1, 24747, Note_off_c, 0, 60, 103
1, 24786, Note_on_c, 0, 65, 120
1, 24848, Note_off_c, 0, 65, 120
1, 24848, Note_on_c, 0, 66, 115
1, 24919, Note_off_c, 0, 66, 115
1, 25043, Note_on_c, 0, 67, 120
1, 25105, Note_off_c, 0, 67, 120
1, 25105, Note_on_c, 0, 69, 117
1, 25172, Note_off_c, 0, 69, 117
1, 25179, Note_on_c, 0, 65, 121
1, 25217, Note_off_c, 0, 65, 121
1, 25223, Note_on_c, 0, 66, 111
1, 25340, Note_off_c, 0, 66, 111
1, 25340, Note_on_c, 0, 62, 122
1, 25452, Note_off_c, 0, 62, 122
1, 25461, Note_on_c, 0, 60, 117
1, 25616, Note_off_c, 0, 60, 117
1, 25631, Note_on_c, 0, 60, 111
1, 25793, Note_off_c, 0, 60, 111
1, 26150, Note_on_c, 0, 57, 119
1, 26197, Note_off_c, 0, 57, 119
1, 26211, Note_on_c, 0, 57, 114
1, 26282, Note_off_c, 0, 57, 114
1, 26297, Note_on_c, 0, 60, 122
1, 26330, Note_off_c, 0, 60, 122
1, 26337, Note_on_c, 0, 61, 120
1, 26445, Note_off_c, 0, 61, 120
1, 26462, Note_on_c, 0, 62, 121
1, 26575, Note_off_c, 0, 62, 121
1, 26609, Note_on_c, 0, 64, 118
1, 26740, Note_off_c, 0, 64, 118
1, 26946, Note_on_c, 0, 69, 117
1, 27015, Note_off_c, 0, 69, 117
1, 27022, Note_on_c, 0, 67, 109
1, 27091, Note_off_c, 0, 67, 109
1, 27117, Note_on_c, 0, 64, 119
1, 27145, Note_off_c, 0, 64, 119
1, 27145, Note_on_c, 0, 65, 112
1, 27245, Note_off_c, 0, 65, 112
1, 27263, Note_on_c, 0, 62, 125
1, 27329, Note_off_c, 0, 62, 125
1, 27373, Note_on_c, 0, 57, 114
1, 27441, Note_off_c, 0, 57, 114
1, 27705, Note_on_c, 0, 50, 118
1, 27775, Note_off_c, 0, 50, 118
1, 27917, Note_on_c, 0, 54, 124
1, 27988, Note_off_c, 0, 54, 124
1, 28109, Note_on_c, 0, 57, 114
1, 28190, Note_off_c, 0, 57, 114
1, 28307, Note_on_c, 0, 60, 125
1, 28377, Note_off_c, 0, 60, 125
1, 28485, Note_on_c, 0, 64, 124
1, 28565, Note_on_c, 0, 62, 127
1, 28565, Note_off_c, 0, 64, 124
1, 28651, Note_off_c, 0, 62, 127
1, 28658, Note_on_c, 0, 60, 125
1, 28736, Note_off_c, 0, 60, 125
1, 28753, Note_on_c, 0, 57, 115
1, 28828, Note_off_c, 0, 57, 115
1, 28845, Note_on_c, 0, 55, 119
1, 28918, Note_off_c, 0, 55, 119
1, 28933, Note_on_c, 0, 53, 117
1, 29019, Note_off_c, 0, 53, 117
1, 29036, Note_on_c, 0, 48, 109
1, 29101, Note_off_c, 0, 48, 109
1, 29144, Note_on_c, 0, 50, 114
1, 29200, Note_off_c, 0, 50, 114
1, 29207, Note_on_c, 0, 53, 118
1, 29311, Note_off_c, 0, 53, 118
1, 29319, Note_on_c, 0, 50, 111
1, 29471, Note_off_c, 0, 50, 111
1, 29471, End_track
0, 0, End_of_file
