0, 0, Header, 1, 1, 192
1, 0, Start_track
1, 0, Title_t, "Melody"
1, 0, Tempo, 451127
1, 0, Key_signature, -3, "major"
1, 0, Time_signature, 4, 2, 24, 8
1, 464, Note_on_c, 0, 71, 110
1, 646, Note_off_c, 0, 71, 110
1, 652, Note_on_c, 0, 73, 108
1, 832, Note_off_c, 0, 73, 108
1, 838, Note_on_c, 0, 72, 105
1, 920, Note_off_c, 0, 72, 105
1, 930, Note_on_c, 0, 70, 113
1, 993, Note_off_c, 0, 70, 113
1, 1036, Note_on_c, 0, 63, 110
1, 1108, Note_off_c, 0, 63, 110
1, 1145, Note_on_c, 0, 68, 116
1, 1205, Note_off_c, 0, 68, 116
1, 1206, Note_on_c, 0, 69, 110
1, 1242, Note_off_c, 0, 69, 110
1, 1249, Note_on_c, 0, 68, 111
1, 1309, Note_off_c, 0, 68, 111
1, 1315, Note_on_c, 0, 66, 108
1, 1373, Note_off_c, 0, 66, 108
1, 1380, Note_on_c, 0, 63, 110
1, 1426, Note_off_c, 0, 63, 110
1, 1433, Note_on_c, 0, 61, 112
1, 1496, Note_off_c, 0, 61, 112
1, 1498, Note_on_c, 0, 58, 109
1, 1556, Note_off_c, 0, 58, 109
1, 1573, Note_on_c, 0, 57, 113
1, 1615, Note_off_c, 0, 57, 113
1, 1631, Note_on_c, 0, 56, 109
1, 1686, Note_off_c, 0, 56, 109
1, 1709, Note_on_c, 0, 54, 113
1, 1846, Note_off_c, 0, 54, 113
1, 1889, Note_on_c, 0, 51, 97
1, 2038, Note_off_c, 0, 51, 97
1, 2432, Note_on_c, 0, 51, 109
1, 2482, Note_off_c, 0, 51, 109
1, 2490, Note_on_c, 0, 54, 113
1, 2544, Note_off_c, 0, 54, 113
1, 2551, Note_on_c, 0, 56, 112
1, 2599, Note_off_c, 0, 56, 112
1, 2610, Note_on_c, 0, 58, 107
1, 2659, Note_off_c, 0, 58, 107
1, 2697, Note_on_c, 0, 56, 110
1, 2756, Note_off_c, 0, 56, 110
1, 2756, Note_on_c, 0, 57, 112
1, 2809, Note_off_c, 0, 57, 112
1, 2818, Note_on_c, 0, 55, 100
1, 2853, Note_off_c, 0, 55, 100
1, 2859, Note_on_c, 0, 51, 99
1, 2956, Note_off_c, 0, 51, 99
1, 2994, Note_on_c, 0, 56, 109
1, 3053, Note_off_c, 0, 56, 109
1, 3072, Note_on_c, 0, 54, 98
1, 3180, Note_off_c, 0, 54, 98
1, 3264, Note_on_c, 0, 48, 108
1, 3299, Note_off_c, 0, 48, 108
1, 3303, Note_on_c, 0, 49, 100
1, 3361, Note_off_c, 0, 49, 100
1, 3441, Note_on_c, 0, 51, 100
1, 3563, Note_off_c, 0, 51, 100
1, 3950, Note_on_c, 0, 51, 113
1, 3994, Note_off_c, 0, 51, 113
1, 4002, Note_on_c, 0, 54, 109
1, 4056, Note_off_c, 0, 54, 109
1, 4073, Note_on_c, 0, 56, 109
1, 4116, Note_off_c, 0, 56, 109
1, 4140, Note_on_c, 0, 58, 110
1, 4191, Note_off_c, 0, 58, 110
1, 4231, Note_on_c, 0, 60, 121
1, 4296, Note_off_c, 0, 60, 121
1, 4299, Note_on_c, 0, 61, 114
1, 4359, Note_off_c, 0, 61, 114
1, 4399, Note_on_c, 0, 58, 107
1, 4496, Note_off_c, 0, 58, 107
1, 4513, Note_on_c, 0, 51, 104
1, 4572, Note_off_c, 0, 51, 104
1, 4589, Note_on_c, 0, 55, 106
1, 4633, Note_off_c, 0, 55, 106
1, 4633, Note_on_c, 0, 56, 104
1, 4721, Note_off_c, 0, 56, 104
1, 4733, Note_on_c, 0, 51, 103
1, 4770, Note_off_c, 0, 51, 103
1, 4799, Note_on_c, 0, 54, 102
1, 4937, Note_off_c, 0, 54, 102
1, 4975, Note_on_c, 0, 51, 94
1, 5080, Note_off_c, 0, 51, 94
1, 5553, Note_on_c, 0, 65, 121
1, 5603, Note_off_c, 0, 65, 121
1, 5606, Note_on_c, 0, 61, 114
1, 5656, Note_off_c, 0, 61, 114
1, 5664, Note_on_c, 0, 63, 115
1, 5745, Note_off_c, 0, 63, 115
1, 5761, Note_on_c, 0, 61, 108
1, 5870, Note_off_c, 0, 61, 108
1, 5870, Note_on_c, 0, 58, 110
1, 5925, Note_off_c, 0, 58, 110
1, 5943, Note_on_c, 0, 51, 94
1, 6048, Note_off_c, 0, 51, 94
1, 6062, Note_on_c, 0, 49, 98
1, 6105, Note_off_c, 0, 49, 98
1, 6116, Note_on_c, 0, 56, 110
1, 6160, Note_off_c, 0, 56, 110
1, 6166, Note_on_c, 0, 57, 107
1, 6238, Note_off_c, 0, 57, 107
1, 6271, Note_on_c, 0, 51, 104
1, 6308, Note_off_c, 0, 51, 104
1, 6314, Note_on_c, 0, 53, 111
1, 6363, Note_off_c, 0, 53, 111
1, 6365, Note_on_c, 0, 54, 109
1, 6426, Note_off_c, 0, 54, 109
1, 6503, Note_on_c, 0, 51, 99
1, 6656, Note_off_c, 0, 51, 99
1, 6850, Note_on_c, 0, 65, 123
1, 6940, Note_off_c, 0, 65, 123
1, 6951, Note_on_c, 0, 67, 110
1, 7010, Note_off_c, 0, 67, 110
1, 7024, Note_on_c, 0, 66, 112
1, 7082, Note_off_c, 0, 66, 112
1, 7088, Note_on_c, 0, 68, 106
1, 7175, Note_off_c, 0, 68, 106
1, 7180, Note_on_c, 0, 67, 106
1, 7205, Note_off_c, 0, 67, 106
1, 7209, Note_on_c, 0, 69, 104
1, 7304, Note_off_c, 0, 69, 104
1, 7315, Note_on_c, 0, 67, 102
1, 7352, Note_off_c, 0, 67, 102
1, 7354, Note_on_c, 0, 70, 104
1, 7424, Note_off_c, 0, 70, 104
1, 7445, Note_on_c, 0, 63, 117
1, 7517, Note_off_c, 0, 63, 117
1, 7535, Note_on_c, 0, 63, 100
1, 7780, Note_off_c, 0, 63, 100
1, 8074, Note_on_c, 0, 63, 116
1, 8152, Note_off_c, 0, 63, 116
1, 8155, Note_on_c, 0, 65, 116
1, 8239, Note_off_c, 0, 65, 116
1, 8253, Note_on_c, 0, 67, 110
1, 8353, Note_off_c, 0, 67, 110
1, 8357, Note_on_c, 0, 66, 114
1, 8379, Note_off_c, 0, 66, 114
1, 8382, Note_on_c, 0, 68, 109
1, 8494, Note_off_c, 0, 68, 109
1, 8506, Note_on_c, 0, 60, 117
1, 8585, Note_off_c, 0, 60, 117
1, 8599, Note_on_c, 0, 61, 115
1, 8637, Note_off_c, 0, 61, 115
1, 8646, Note_on_c, 0, 62, 118
1, 8723, Note_off_c, 0, 62, 118
1, 8725, Note_on_c, 0, 63, 114
1, 8794, Note_off_c, 0, 63, 114
1, 8807, Note_on_c, 0, 65, 106
1, 8883, Note_off_c, 0, 65, 106
1, 8952, Note_on_c, 0, 58, 95
1, 9032, Note_off_c, 0, 58, 95
1, 9049, Note_on_c, 0, 60, 118
1, 9103, Note_off_c, 0, 60, 118
1, 9121, Note_on_c, 0, 61, 117
1, 9218, Note_off_c, 0, 61, 117
1, 9234, Note_on_c, 0, 60, 117
1, 9266, Note_off_c, 0, 60, 117
1, 9273, Note_on_c, 0, 61, 117
1, 9347, Note_off_c, 0, 61, 117
1, 9360, Note_on_c, 0, 62, 118
1, 9510, Note_off_c, 0, 62, 118
1, 9518, Note_on_c, 0, 63, 120
1, 9572, Note_off_c, 0, 63, 120
1, 9607, Note_on_c, 0, 51, 100
1, 9672, Note_off_c, 0, 51, 100
1, 9689, Note_on_c, 0, 51, 107
1, 9768, Note_off_c, 0, 51, 107
1, 9776, Note_on_c, 0, 54, 98
1, 9967, Note_off_c, 0, 54, 98
1, 10298, Note_on_c, 0, 71, 111
1, 10383, Note_off_c, 0, 71, 111
1, 10391, Note_on_c, 0, 73, 115
1, 10454, Note_off_c, 0, 73, 115
1, 10488, Note_on_c, 0, 72, 113
1, 10595, Note_off_c, 0, 72, 113
1, 10601, Note_on_c, 0, 71, 116
1, 10677, Note_off_c, 0, 71, 116
1, 10686, Note_on_c, 0, 70, 114
1, 10797, Note_off_c, 0, 70, 114
1, 10853, Note_on_c, 0, 63, 113
1, 10869, Note_off_c, 0, 63, 113
1, 10875, Note_on_c, 0, 65, 114
1, 10929, Note_off_c, 0, 65, 114
1, 10936, Note_on_c, 0, 66, 112
1, 11022, Note_off_c, 0, 66, 112
1, 11060, Note_on_c, 0, 63, 103
1, 11260, Note_off_c, 0, 63, 103
1, 11391, Note_on_c, 0, 58, 105
1, 11437, Note_off_c, 0, 58, 105
1, 11448, Note_on_c, 0, 61, 116
1, 11564, Note_off_c, 0, 61, 116
1, 11580, Note_on_c, 0, 63, 111
1, 11615, Note_off_c, 0, 63, 111
1, 11626, Note_on_c, 0, 65, 115
1, 11748, Note_off_c, 0, 65, 115
1, 11748, Note_on_c, 0, 63, 112
1, 11965, Note_off_c, 0, 63, 112
1, 12191, Note_on_c, 0, 69, 119
1, 12263, Note_off_c, 0, 69, 119
1, 12275, Note_on_c, 0, 68, 112
1, 12326, Note_off_c, 0, 68, 112
1, 12330, Note_on_c, 0, 66, 106
1, 12384, Note_off_c, 0, 66, 106
1, 12388, Note_on_c, 0, 63, 113
1, 12496, Note_off_c, 0, 63, 113
1, 12565, Note_on_c, 0, 63, 104
1, 12777, Note_off_c, 0, 63, 104
1, 13087, Note_on_c, 0, 72, 112
1, 13150, Note_off_c, 0, 72, 112
1, 13153, Note_on_c, 0, 73, 110
1, 13206, Note_off_c, 0, 73, 110
1, 13222, Note_on_c, 0, 69, 110
1, 13267, Note_off_c, 0, 69, 110
1, 13280, Note_on_c, 0, 72, 110
1, 13340, Note_off_c, 0, 72, 110
1, 13341, Note_on_c, 0, 70, 110
1, 13361, Note_off_c, 0, 70, 110
1, 13366, Note_on_c, 0, 69, 111
1, 13399, Note_off_c, 0, 69, 111
1, 13405, Note_on_c, 0, 65, 99
1, 13465, Note_off_c, 0, 65, 99
1, 13474, Note_on_c, 0, 68, 110
1, 13534, Note_off_c, 0, 68, 110
1, 13538, Note_on_c, 0, 67, 108
1, 13591, Note_off_c, 0, 67, 108
1, 13600, Note_on_c, 0, 63, 104
1, 13649, Note_off_c, 0, 63, 104
1, 13660, Note_on_c, 0, 65, 110
1, 13702, Note_off_c, 0, 65, 110
1, 13728, Note_on_c, 0, 64, 118
1, 13766, Note_off_c, 0, 64, 118
1, 13788, Note_on_c, 0, 61, 107
1, 13832, Note_off_c, 0, 61, 107
1, 13840, Note_on_c, 0, 57, 107
1, 13898, Note_off_c, 0, 57, 107
1, 13922, Note_on_c, 0, 52, 105
1, 13962, Note_off_c, 0, 52, 105
1, 13978, Note_on_c, 0, 49, 100
1, 14024, Note_off_c, 0, 49, 100
1, 14038, Note_on_c, 0, 51, 99
1, 14257, Note_off_c, 0, 51, 99
1, 14610, Note_on_c, 0, 64, 118
1, 14668, Note_off_c, 0, 64, 118
1, 14671, Note_on_c, 0, 66, 111
1, 14734, Note_off_c, 0, 66, 111
1, 14737, Note_on_c, 0, 62, 115
1, 14800, Note_off_c, 0, 62, 115
1, 14807, Note_on_c, 0, 65, 109
1, 14845, Note_off_c, 0, 65, 109
1, 14852, Note_on_c, 0, 63, 114
1, 14912, Note_off_c, 0, 63, 114
1, 14924, Note_on_c, 0, 58, 101
1, 14962, Note_off_c, 0, 58, 101
1, 14962, Note_on_c, 0, 61, 113
1, 15033, Note_off_c, 0, 61, 113
1, 15035, Note_on_c, 0, 60, 115
1, 15090, Note_off_c, 0, 60, 115
1, 15112, Note_on_c, 0, 56, 106
1, 15155, Note_off_c, 0, 56, 106
1, 15164, Note_on_c, 0, 54, 112
1, 15223, Note_off_c, 0, 54, 112
1, 15232, Note_on_c, 0, 58, 105
1, 15299, Note_off_c, 0, 58, 105
1, 15299, Note_on_c, 0, 54, 110
1, 15368, Note_off_c, 0, 54, 110
1, 15369, Note_on_c, 0, 53, 107
1, 15425, Note_off_c, 0, 53, 107
1, 15426, Note_on_c, 0, 51, 105
1, 15471, Note_off_c, 0, 51, 105
1, 15489, Note_on_c, 0, 56, 113
1, 15552, Note_off_c, 0, 56, 113
1, 15561, Note_on_c, 0, 51, 103
1, 15603, Note_off_c, 0, 51, 103
1, 15622, Note_on_c, 0, 54, 114
1, 15675, Note_off_c, 0, 54, 114
1, 15679, Note_on_c, 0, 55, 112
1, 15734, Note_off_c, 0, 55, 112
1, 15748, Note_on_c, 0, 56, 110
1, 15801, Note_off_c, 0, 56, 110
1, 15807, Note_on_c, 0, 57, 112
1, 15866, Note_off_c, 0, 57, 112
1, 15869, Note_on_c, 0, 58, 106
1, 15933, Note_off_c, 0, 58, 106
1, 15933, Note_on_c, 0, 51, 100
1, 15996, Note_off_c, 0, 51, 100
1, 16005, Note_on_c, 0, 54, 109
1, 16053, Note_off_c, 0, 54, 109
1, 16061, Note_on_c, 0, 55, 113
1, 16101, Note_off_c, 0, 55, 113
1, 16115, Note_on_c, 0, 56, 108
1, 16169, Note_off_c, 0, 56, 108
1, 16177, Note_on_c, 0, 57, 112
1, 16237, Note_off_c, 0, 57, 112
1, 16246, Note_on_c, 0, 58, 111
1, 16295, Note_off_c, 0, 58, 111
1, 16301, Note_on_c, 0, 60, 119
1, 16362, Note_on_c, 0, 62, 115
1, 16362, Note_off_c, 0, 60, 119
1, 16421, Note_off_c, 0, 62, 115
1, 16425, Note_on_c, 0, 65, 115
1, 16478, Note_off_c, 0, 65, 115
1, 16487, Note_on_c, 0, 62, 107
1, 16540, Note_off_c, 0, 62, 107
1, 16543, Note_on_c, 0, 63, 116
1, 16586, Note_off_c, 0, 63, 116
1, 16597, Note_on_c, 0, 64, 120
1, 16646, Note_off_c, 0, 64, 120
1, 16676, Note_on_c, 0, 55, 106
1, 16711, Note_off_c, 0, 55, 106
1, 16725, Note_on_c, 0, 58, 107
1, 16778, Note_off_c, 0, 58, 107
1, 16795, Note_on_c, 0, 61, 116
1, 16849, Note_off_c, 0, 61, 116
1, 16852, Note_on_c, 0, 60, 111
1, 16908, Note_off_c, 0, 60, 111
1, 16910, Note_on_c, 0, 55, 114
1, 16956, Note_off_c, 0, 55, 114
1, 16968, Note_on_c, 0, 58, 115
1, 17039, Note_off_c, 0, 58, 115
1, 17042, Note_on_c, 0, 55, 108
1, 17085, Note_off_c, 0, 55, 108
1, 17088, Note_on_c, 0, 56, 107
1, 17127, Note_off_c, 0, 56, 107
1, 17141, Note_on_c, 0, 58, 106
1, 17196, Note_off_c, 0, 58, 106
1, 17204, Note_on_c, 0, 60, 112
1, 17265, Note_off_c, 0, 60, 112
1, 17286, Note_on_c, 0, 63, 99
1, 17311, Note_off_c, 0, 63, 99
1, 17317, Note_on_c, 0, 67, 112
1, 17381, Note_off_c, 0, 67, 112
1, 17381, Note_on_c, 0, 64, 104
1, 17436, Note_off_c, 0, 64, 104
1, 17436, Note_on_c, 0, 65, 98
1, 17491, Note_off_c, 0, 65, 98
1, 17503, Note_on_c, 0, 67, 110
1, 17554, Note_off_c, 0, 67, 110
1, 17561, Note_on_c, 0, 68, 111
1, 17611, Note_off_c, 0, 68, 111
1, 17627, Note_on_c, 0, 70, 112
1, 17673, Note_off_c, 0, 70, 112
1, 17692, Note_on_c, 0, 72, 111
1, 17737, Note_off_c, 0, 72, 111
1, 17743, Note_on_c, 0, 75, 101
1, 17804, Note_off_c, 0, 75, 101
1, 17812, Note_on_c, 0, 74, 107
1, 17862, Note_off_c, 0, 74, 107
1, 17886, Note_on_c, 0, 70, 91
1, 18034, Note_off_c, 0, 70, 91
1, 18302, Note_on_c, 0, 77, 104
1, 18350, Note_off_c, 0, 77, 104
1, 18352, Note_on_c, 0, 78, 109
1, 18397, Note_off_c, 0, 78, 109
1, 18406, Note_on_c, 0, 79, 109
1, 18467, Note_off_c, 0, 79, 109
1, 18484, Note_on_c, 0, 75, 106
1, 18538, Note_off_c, 0, 75, 106
1, 18545, Note_on_c, 0, 73, 102
1, 18589, Note_off_c, 0, 73, 102
1, 18610, Note_on_c, 0, 70, 116
1, 18670, Note_off_c, 0, 70, 116
1, 18672, Note_on_c, 0, 69, 117
1, 18726, Note_off_c, 0, 69, 117
1, 18733, Note_on_c, 0, 68, 108
1, 18787, Note_off_c, 0, 68, 108
1, 18811, Note_on_c, 0, 66, 111
1, 18849, Note_off_c, 0, 66, 111
1, 18881, Note_on_c, 0, 63, 119
1, 18981, Note_off_c, 0, 63, 119
1, 19038, Note_on_c, 0, 66, 113
1, 19107, Note_off_c, 0, 66, 113
1, 19113, Note_on_c, 0, 67, 102
1, 19157, Note_off_c, 0, 67, 102
1, 19171, Note_on_c, 0, 70, 110
1, 19226, Note_off_c, 0, 70, 110
1, 19558, Note_on_c, 0, 68, 104
1, 19586, Note_off_c, 0, 68, 104
1, 19594, Note_on_c, 0, 70, 109
1, 19627, Note_off_c, 0, 70, 109
1, 19643, Note_on_c, 0, 71, 115
1, 19708, Note_off_c, 0, 71, 115
1, 19717, Note_on_c, 0, 72, 109
1, 19852, Note_off_c, 0, 72, 109
1, 19856, Note_on_c, 0, 73, 104
1, 19968, Note_off_c, 0, 73, 104
1, 19976, Note_on_c, 0, 74, 103
1, 20084, Note_off_c, 0, 74, 103
1, 20099, Note_on_c, 0, 75, 105
1, 20162, Note_off_c, 0, 75, 105
1, 20172, Note_on_c, 0, 75, 108
1, 20214, Note_off_c, 0, 75, 108
1, 20373, Note_on_c, 0, 63, 116
1, 20455, Note_off_c, 0, 63, 116
1, 20567, Note_on_c, 0, 66, 100
1, 20745, Note_off_c, 0, 66, 100
1, 21062, Note_on_c, 0, 66, 111
1, 21123, Note_off_c, 0, 66, 111
1, 21127, Note_on_c, 0, 71, 105
1, 21241, Note_off_c, 0, 71, 105
1, 21247, Note_on_c, 0, 72, 106
1, 21473, Note_off_c, 0, 72, 106
1, 21489, Note_on_c, 0, 73, 103
1, 21644, Note_off_c, 0, 73, 103
1, 21657, Note_on_c, 0, 74, 102
1, 21717, Note_off_c, 0, 74, 102
1, 21720, Note_on_c, 0, 75, 105
1, 21823, Note_off_c, 0, 75, 105
1, 21924, Note_on_c, 0, 63, 113
1, 22021, Note_off_c, 0, 63, 113
1, 22122, Note_on_c, 0, 66, 104
1, 22262, Note_off_c, 0, 66, 104
1, 22265, Note_on_c, 0, 63, 103
1, 22305, Note_off_c, 0, 63, 103
1, 22327, Note_on_c, 0, 69, 115
1, 22365, Note_off_c, 0, 69, 115
1, 22365, Note_on_c, 0, 68, 113
1, 22388, Note_off_c, 0, 68, 113
1, 22399, Note_on_c, 0, 66, 107
1, 22432, Note_off_c, 0, 66, 107
1, 22439, Note_on_c, 0, 63, 95
1, 22598, Note_off_c, 0, 63, 95
1, 22819, Note_on_c, 0, 69, 101
1, 22842, Note_off_c, 0, 69, 101
1, 22853, Note_on_c, 0, 70, 113
1, 22914, Note_off_c, 0, 70, 113
1, 22914, Note_on_c, 0, 71, 112
1, 23016, Note_off_c, 0, 71, 112
1, 23032, Note_on_c, 0, 72, 107
1, 23232, Note_off_c, 0, 72, 107
1, 23275, Note_on_c, 0, 75, 107
1, 23324, Note_off_c, 0, 75, 107
1, 23425, Note_on_c, 0, 63, 111
1, 23486, Note_off_c, 0, 63, 111
1, 23489, Note_on_c, 0, 65, 118
1, 23531, Note_off_c, 0, 65, 118
1, 23534, Note_on_c, 0, 66, 110
1, 23603, Note_off_c, 0, 66, 110
1, 23619, Note_on_c, 0, 63, 100
1, 23663, Note_off_c, 0, 63, 100
1, 23674, Note_on_c, 0, 66, 106
1, 23833, Note_off_c, 0, 66, 106
1, 23860, Note_on_c, 0, 72, 111
1, 23910, Note_on_c, 0, 71, 112
1, 23910, Note_off_c, 0, 72, 111
1, 23924, Note_off_c, 0, 71, 112
1, 23933, Note_on_c, 0, 72, 114
1, 23989, Note_off_c, 0, 72, 114
1, 23996, Note_on_c, 0, 73, 99
1, 24019, Note_off_c, 0, 73, 99
1, 24027, Note_on_c, 0, 74, 99
1, 24113, Note_off_c, 0, 74, 99
1, 24115, Note_on_c, 0, 75, 101
1, 24186, Note_off_c, 0, 75, 101
1, 24203, Note_on_c, 0, 63, 120
1, 24251, Note_off_c, 0, 63, 120
1, 24259, Note_on_c, 0, 65, 112
1, 24297, Note_on_c, 0, 66, 106
1, 24297, Note_off_c, 0, 65, 112
1, 24371, Note_off_c, 0, 66, 106
1, 24383, Note_on_c, 0, 63, 97
1, 24590, Note_off_c, 0, 63, 97
1, 25100, Note_on_c, 0, 70, 115
1, 25142, Note_off_c, 0, 70, 115
1, 25143, Note_on_c, 0, 68, 115
1, 25187, Note_off_c, 0, 68, 115
1, 25190, Note_on_c, 0, 67, 112
1, 25251, Note_off_c, 0, 67, 112
1, 25295, Note_on_c, 0, 70, 113
1, 25349, Note_off_c, 0, 70, 113
1, 25373, Note_on_c, 0, 70, 108
1, 25452, Note_off_c, 0, 70, 108
1, 25712, Note_on_c, 0, 73, 104
1, 25731, Note_off_c, 0, 73, 104
1, 25736, Note_on_c, 0, 72, 104
1, 25748, Note_off_c, 0, 72, 104
1, 25751, Note_on_c, 0, 71, 115
1, 25779, Note_off_c, 0, 71, 115
1, 25786, Note_on_c, 0, 70, 115
1, 25841, Note_off_c, 0, 70, 115
1, 25844, Note_on_c, 0, 68, 113
1, 25873, Note_off_c, 0, 68, 113
1, 25881, Note_on_c, 0, 67, 110
1, 25919, Note_off_c, 0, 67, 110
1, 25938, Note_on_c, 0, 65, 112
1, 25970, Note_off_c, 0, 65, 112
1, 25976, Note_on_c, 0, 64, 116
1, 26029, Note_off_c, 0, 64, 116
1, 26029, Note_on_c, 0, 61, 109
1, 26066, Note_off_c, 0, 61, 109
1, 26079, Note_on_c, 0, 60, 110
1, 26128, Note_off_c, 0, 60, 110
1, 26139, Note_on_c, 0, 58, 110
1, 26169, Note_off_c, 0, 58, 110
1, 26172, Note_on_c, 0, 55, 111
1, 26202, Note_off_c, 0, 55, 111
1, 26214, Note_on_c, 0, 56, 109
1, 26249, Note_off_c, 0, 56, 109
1, 26258, Note_on_c, 0, 58, 108
1, 26291, Note_off_c, 0, 58, 108
1, 26294, Note_on_c, 0, 61, 103
1, 26319, Note_off_c, 0, 61, 103
1, 26323, Note_on_c, 0, 64, 101
1, 26352, Note_off_c, 0, 64, 101
1, 26361, Note_on_c, 0, 67, 111
1, 26406, Note_off_c, 0, 67, 111
1, 26410, Note_on_c, 0, 64, 110
1, 26448, Note_off_c, 0, 64, 110
1, 26455, Note_on_c, 0, 65, 101
1, 26492, Note_off_c, 0, 65, 101
1, 26498, Note_on_c, 0, 67, 110
1, 26531, Note_off_c, 0, 67, 110
1, 26537, Note_on_c, 0, 68, 110
1, 26566, Note_off_c, 0, 68, 110
1, 26587, Note_on_c, 0, 59, 100
1, 26625, Note_off_c, 0, 59, 100
1, 26638, Note_on_c, 0, 60, 110
1, 26681, Note_off_c, 0, 60, 110
1, 26683, Note_on_c, 0, 63, 102
1, 26721, Note_off_c, 0, 63, 102
1, 26721, Note_on_c, 0, 67, 110
1, 26767, Note_off_c, 0, 67, 110
1, 26783, Note_on_c, 0, 66, 113
1, 26812, Note_off_c, 0, 66, 113
1, 26821, Note_on_c, 0, 65, 108
1, 26856, Note_off_c, 0, 65, 108
1, 26866, Note_on_c, 0, 64, 117
1, 26908, Note_off_c, 0, 64, 117
1, 26911, Note_on_c, 0, 63, 108
1, 26954, Note_off_c, 0, 63, 108
1, 26960, Note_on_c, 0, 60, 109
1, 26995, Note_off_c, 0, 60, 109
1, 27003, Note_on_c, 0, 56, 104
1, 27036, Note_off_c, 0, 56, 104
1, 27045, Note_on_c, 0, 53, 103
1, 27075, Note_off_c, 0, 53, 103
1, 27087, Note_on_c, 0, 62, 113
1, 27144, Note_off_c, 0, 62, 113
1, 27149, Note_on_c, 0, 58, 95
1, 27184, Note_off_c, 0, 58, 95
1, 27188, Note_on_c, 0, 60, 112
1, 27233, Note_off_c, 0, 60, 112
1, 27243, Note_on_c, 0, 56, 114
1, 27285, Note_off_c, 0, 56, 114
1, 27297, Note_on_c, 0, 55, 115
1, 27322, Note_off_c, 0, 55, 115
1, 27336, Note_on_c, 0, 53, 108
1, 27365, Note_off_c, 0, 53, 108
1, 27366, Note_on_c, 0, 58, 106
1, 27419, Note_off_c, 0, 58, 106
1, 27425, Note_on_c, 0, 57, 111
1, 27462, Note_off_c, 0, 57, 111
1, 27468, Note_on_c, 0, 56, 109
1, 27516, Note_off_c, 0, 56, 109
1, 27522, Note_on_c, 0, 58, 101
1, 27564, Note_off_c, 0, 58, 101
1, 27573, Note_on_c, 0, 60, 107
1, 27624, Note_off_c, 0, 60, 107
1, 27633, Note_on_c, 0, 62, 108
1, 27658, Note_off_c, 0, 62, 108
1, 27673, Note_on_c, 0, 66, 110
1, 27703, Note_off_c, 0, 66, 110
1, 27733, Note_on_c, 0, 61, 101
1, 27762, Note_off_c, 0, 61, 101
1, 27769, Note_on_c, 0, 62, 105
1, 27808, Note_off_c, 0, 62, 105
1, 27811, Note_on_c, 0, 65, 105
1, 27850, Note_off_c, 0, 65, 105
1, 27854, Note_on_c, 0, 63, 109
1, 27896, Note_off_c, 0, 63, 109
1, 27900, Note_on_c, 0, 60, 105
1, 27935, Note_off_c, 0, 60, 105
1, 27938, Note_on_c, 0, 56, 103
1, 27967, Note_off_c, 0, 56, 103
1, 27983, Note_on_c, 0, 53, 104
1, 28020, Note_off_c, 0, 53, 104
1, 28043, Note_on_c, 0, 62, 113
1, 28082, Note_off_c, 0, 62, 113
1, 28082, Note_on_c, 0, 60, 106
1, 28121, Note_on_c, 0, 58, 107
1, 28121, Note_off_c, 0, 60, 106
1, 28167, Note_off_c, 0, 58, 107
1, 28174, Note_on_c, 0, 56, 109
1, 28213, Note_off_c, 0, 56, 109
1, 28215, Note_on_c, 0, 55, 107
1, 28253, Note_off_c, 0, 55, 107
1, 28260, Note_on_c, 0, 58, 107
1, 28306, Note_off_c, 0, 58, 107
1, 28312, Note_on_c, 0, 60, 110
1, 28356, Note_off_c, 0, 60, 110
1, 28374, Note_on_c, 0, 62, 109
1, 28409, Note_off_c, 0, 62, 109
1, 28409, Note_on_c, 0, 65, 110
1, 28459, Note_off_c, 0, 65, 110
1, 28461, Note_on_c, 0, 62, 104
1, 28499, Note_off_c, 0, 62, 104
1, 28501, Note_on_c, 0, 63, 96
1, 28535, Note_off_c, 0, 63, 96
1, 28556, Note_on_c, 0, 65, 111
1, 28593, Note_off_c, 0, 65, 111
1, 28604, Note_on_c, 0, 67, 111
1, 28648, Note_off_c, 0, 67, 111
1, 28651, Note_on_c, 0, 70, 111
1, 28720, Note_off_c, 0, 70, 111
1, 29341, Note_on_c, 0, 77, 108
1, 29386, Note_off_c, 0, 77, 108
1, 29386, Note_on_c, 0, 78, 105
1, 29557, Note_off_c, 0, 78, 105
1, 29574, Note_on_c, 0, 75, 103
1, 29618, Note_off_c, 0, 75, 103
1, 29626, Note_on_c, 0, 73, 101
1, 29676, Note_off_c, 0, 73, 101
1, 29678, Note_on_c, 0, 70, 109
1, 29743, Note_off_c, 0, 70, 109
1, 29765, Note_on_c, 0, 69, 115
1, 29808, Note_off_c, 0, 69, 115
1, 29821, Note_on_c, 0, 68, 111
1, 29877, Note_off_c, 0, 68, 111
1, 29888, Note_on_c, 0, 66, 110
1, 29942, Note_off_c, 0, 66, 110
1, 29953, Note_on_c, 0, 63, 117
1, 30028, Note_off_c, 0, 63, 117
1, 30152, Note_on_c, 0, 54, 113
1, 30189, Note_off_c, 0, 54, 113
1, 30208, Note_on_c, 0, 66, 104
1, 30256, Note_off_c, 0, 66, 104
1, 30275, Note_on_c, 0, 66, 103
1, 30314, Note_off_c, 0, 66, 103
1, 30339, Note_on_c, 0, 63, 103
1, 30427, Note_off_c, 0, 63, 103
1, 30498, Note_on_c, 0, 68, 109
1, 30550, Note_off_c, 0, 68, 109
1, 30879, Note_on_c, 0, 78, 101
1, 31069, Note_off_c, 0, 78, 101
1, 31112, Note_on_c, 0, 75, 107
1, 31163, Note_off_c, 0, 75, 107
1, 31169, Note_on_c, 0, 73, 104
1, 31215, Note_off_c, 0, 73, 104
1, 31224, Note_on_c, 0, 70, 109
1, 31275, Note_off_c, 0, 70, 109
1, 31278, Note_on_c, 0, 69, 111
1, 31323, Note_off_c, 0, 69, 111
1, 31346, Note_on_c, 0, 68, 108
1, 31386, Note_off_c, 0, 68, 108
1, 31404, Note_on_c, 0, 66, 100
1, 31467, Note_off_c, 0, 66, 100
1, 31486, Note_on_c, 0, 63, 112
1, 31544, Note_off_c, 0, 63, 112
1, 31670, Note_on_c, 0, 68, 112
1, 31725, Note_off_c, 0, 68, 112
1, 31733, Note_on_c, 0, 69, 103
1, 31810, Note_off_c, 0, 69, 103
1, 31811, Note_on_c, 0, 67, 112
1, 31832, Note_off_c, 0, 67, 112
1, 31834, Note_on_c, 0, 69, 112
1, 31921, Note_off_c, 0, 69, 112
1, 31928, Note_on_c, 0, 68, 100
1, 31958, Note_off_c, 0, 68, 100
1, 31969, Note_on_c, 0, 72, 107
1, 32018, Note_off_c, 0, 72, 107
1, 32029, Note_on_c, 0, 71, 111
1, 32061, Note_off_c, 0, 71, 111
1, 32064, Note_on_c, 0, 70, 115
1, 32113, Note_off_c, 0, 70, 115
1, 32174, Note_on_c, 0, 58, 104
1, 32219, Note_off_c, 0, 58, 104
1, 32261, Note_on_c, 0, 65, 111
1, 32309, Note_off_c, 0, 65, 111
1, 32323, Note_on_c, 0, 68, 111
1, 32360, Note_off_c, 0, 68, 111
1, 32394, Note_on_c, 0, 66, 114
1, 32420, Note_off_c, 0, 66, 114
1, 32423, Note_on_c, 0, 67, 105
1, 32453, Note_off_c, 0, 67, 105
1, 32467, Note_on_c, 0, 63, 104
1, 32512, Note_off_c, 0, 63, 104
1, 32520, Note_on_c, 0, 65, 103
1, 32566, Note_off_c, 0, 65, 103
1, 32588, Note_on_c, 0, 61, 104
1, 32641, Note_off_c, 0, 61, 104
1, 32645, Note_on_c, 0, 58, 107
1, 32695, Note_off_c, 0, 58, 107
1, 32704, Note_on_c, 0, 53, 101
1, 32753, Note_off_c, 0, 53, 101
1, 32754, Note_on_c, 0, 63, 112
1, 32813, Note_off_c, 0, 63, 112
1, 32824, Note_on_c, 0, 61, 111
1, 32880, Note_off_c, 0, 61, 111
1, 32883, Note_on_c, 0, 60, 113
1, 32938, Note_off_c, 0, 60, 113
1, 32940, Note_on_c, 0, 56, 106
1, 32989, Note_off_c, 0, 56, 106
1, 32995, Note_on_c, 0, 51, 106
1, 33022, Note_off_c, 0, 51, 106
1, 33030, Note_on_c, 0, 54, 106
1, 33094, Note_off_c, 0, 54, 106
1, 33108, Note_on_c, 0, 58, 104
1, 33151, Note_off_c, 0, 58, 104
1, 33157, Note_on_c, 0, 51, 91
1, 33357, Note_off_c, 0, 51, 91
1, 33670, Note_on_c, 0, 55, 109
1, 33715, Note_off_c, 0, 55, 109
1, 33719, Note_on_c, 0, 57, 109
1, 33758, Note_off_c, 0, 57, 109
1, 33760, Note_on_c, 0, 60, 118
1, 33815, Note_off_c, 0, 60, 118
1, 33819, Note_on_c, 0, 59, 112
1, 33849, Note_off_c, 0, 59, 112
1, 33856, Note_on_c, 0, 58, 109
1, 33902, Note_off_c, 0, 58, 109
1, 33902, Note_on_c, 0, 56, 110
1, 33932, Note_off_c, 0, 56, 110
1, 33945, Note_on_c, 0, 55, 114
1, 33989, Note_off_c, 0, 55, 114
1, 33993, Note_on_c, 0, 58, 105
1, 34030, Note_off_c, 0, 58, 105
1, 34038, Note_on_c, 0, 60, 110
1, 34076, Note_off_c, 0, 60, 110
1, 34088, Note_on_c, 0, 65, 106
1, 34134, Note_off_c, 0, 65, 106
1, 34134, Note_on_c, 0, 62, 119
1, 34179, Note_off_c, 0, 62, 119
1, 34188, Note_on_c, 0, 63, 110
1, 34269, Note_off_c, 0, 63, 110
1, 34286, Note_on_c, 0, 70, 88
1, 34316, Note_off_c, 0, 70, 88
1, 34320, Note_on_c, 0, 74, 105
1, 34365, Note_off_c, 0, 74, 105
1, 34365, Note_on_c, 0, 75, 99
1, 34418, Note_off_c, 0, 75, 99
1, 34424, Note_on_c, 0, 72, 104
1, 34468, Note_off_c, 0, 72, 104
1, 34470, Note_on_c, 0, 68, 112
1, 34509, Note_off_c, 0, 68, 112
1, 34509, Note_on_c, 0, 67, 109
1, 34552, Note_off_c, 0, 67, 109
1, 34561, Note_on_c, 0, 65, 95
1, 34612, Note_off_c, 0, 65, 95
1, 34619, Note_on_c, 0, 74, 78
1, 34638, Note_off_c, 0, 74, 78
1, 34646, Note_on_c, 0, 73, 104
1, 34667, Note_off_c, 0, 73, 104
1, 34669, Note_on_c, 0, 72, 105
1, 34685, Note_off_c, 0, 72, 105
1, 34691, Note_on_c, 0, 71, 111
1, 34719, Note_off_c, 0, 71, 111
1, 34723, Note_on_c, 0, 70, 111
1, 34751, Note_off_c, 0, 70, 111
1, 34763, Note_on_c, 0, 68, 109
1, 34806, Note_off_c, 0, 68, 109
1, 34809, Note_on_c, 0, 67, 104
1, 34841, Note_off_c, 0, 67, 104
1, 34852, Note_on_c, 0, 65, 107
1, 34896, Note_on_c, 0, 62, 116
1, 34896, Note_off_c, 0, 65, 107
1, 34935, Note_off_c, 0, 62, 116
1, 34943, Note_on_c, 0, 63, 112
1, 34993, Note_off_c, 0, 63, 112
1, 34994, Note_on_c, 0, 64, 108
1, 35044, Note_off_c, 0, 64, 108
1, 35046, Note_on_c, 0, 55, 109
1, 35085, Note_off_c, 0, 55, 109
1, 35088, Note_on_c, 0, 58, 103
1, 35120, Note_off_c, 0, 58, 103
1, 35132, Note_on_c, 0, 61, 110
1, 35176, Note_off_c, 0, 61, 110
1, 35180, Note_on_c, 0, 60, 111
1, 35219, Note_off_c, 0, 60, 111
1, 35226, Note_on_c, 0, 55, 105
1, 35261, Note_off_c, 0, 55, 105
1, 35265, Note_on_c, 0, 58, 109
1, 35305, Note_off_c, 0, 58, 109
1, 35308, Note_on_c, 0, 56, 101
1, 35326, Note_off_c, 0, 56, 101
1, 35330, Note_on_c, 0, 57, 108
1, 35374, Note_off_c, 0, 57, 108
1, 35376, Note_on_c, 0, 58, 100
1, 35393, Note_off_c, 0, 58, 100
1, 35400, Note_on_c, 0, 60, 103
1, 35417, Note_off_c, 0, 60, 103
1, 35433, Note_on_c, 0, 64, 112
1, 35447, Note_off_c, 0, 64, 112
1, 35460, Note_on_c, 0, 67, 114
1, 35510, Note_off_c, 0, 67, 114
1, 35510, Note_on_c, 0, 64, 98
1, 35535, Note_off_c, 0, 64, 98
1, 35544, Note_on_c, 0, 65, 100
1, 35586, Note_off_c, 0, 65, 100
1, 35588, Note_on_c, 0, 67, 101
1, 35623, Note_off_c, 0, 67, 101
1, 35635, Note_on_c, 0, 68, 107
1, 35678, Note_off_c, 0, 68, 107
1, 35689, Note_on_c, 0, 70, 98
1, 35729, Note_off_c, 0, 70, 98
1, 35736, Note_on_c, 0, 72, 108
1, 35790, Note_off_c, 0, 72, 108
1, 35793, Note_on_c, 0, 68, 113
1, 35827, Note_off_c, 0, 68, 113
1, 35835, Note_on_c, 0, 67, 107
1, 35873, Note_off_c, 0, 67, 107
1, 35884, Note_on_c, 0, 65, 106
1, 35913, Note_off_c, 0, 65, 106
1, 35922, Note_on_c, 0, 64, 101
1, 35961, Note_off_c, 0, 64, 101
1, 35972, Note_on_c, 0, 65, 97
1, 36007, Note_off_c, 0, 65, 97
1, 36011, Note_on_c, 0, 70, 107
1, 36057, Note_off_c, 0, 70, 107
1, 36058, Note_on_c, 0, 69, 105
1, 36096, Note_off_c, 0, 69, 105
1, 36105, Note_on_c, 0, 68, 98
1, 36154, Note_off_c, 0, 68, 98
1, 36207, Note_on_c, 0, 71, 116
1, 36258, Note_off_c, 0, 71, 116
1, 36264, Note_on_c, 0, 70, 110
1, 36308, Note_off_c, 0, 70, 110
1, 36313, Note_on_c, 0, 69, 106
1, 36338, Note_off_c, 0, 69, 106
1, 36378, Note_on_c, 0, 61, 100
1, 36401, Note_off_c, 0, 61, 100
1, 36408, Note_on_c, 0, 68, 108
1, 36456, Note_off_c, 0, 68, 108
1, 36456, Note_on_c, 0, 66, 107
1, 36500, Note_off_c, 0, 66, 107
1, 36506, Note_on_c, 0, 65, 106
1, 36535, Note_off_c, 0, 65, 106
1, 36543, Note_on_c, 0, 64, 110
1, 36571, Note_off_c, 0, 64, 110
1, 36589, Note_on_c, 0, 63, 111
1, 36633, Note_off_c, 0, 63, 111
1, 36637, Note_on_c, 0, 60, 110
1, 36676, Note_off_c, 0, 60, 110
1, 36687, Note_on_c, 0, 56, 103
1, 36729, Note_off_c, 0, 56, 103
1, 36732, Note_on_c, 0, 53, 105
1, 36769, Note_off_c, 0, 53, 105
1, 36772, Note_on_c, 0, 62, 111
1, 36831, Note_off_c, 0, 62, 111
1, 36843, Note_on_c, 0, 58, 98
1, 36866, Note_off_c, 0, 58, 98
1, 36874, Note_on_c, 0, 60, 98
1, 36901, Note_off_c, 0, 60, 98
1, 36912, Note_on_c, 0, 62, 109
1, 36940, Note_off_c, 0, 62, 109
1, 36942, Note_on_c, 0, 65, 104
1, 36969, Note_off_c, 0, 65, 104
1, 36977, Note_on_c, 0, 62, 111
1, 37021, Note_off_c, 0, 62, 111
1, 37027, Note_on_c, 0, 63, 108
1, 37085, Note_off_c, 0, 63, 108
1, 37118, Note_on_c, 0, 70, 109
1, 37161, Note_off_c, 0, 70, 109
1, 37161, Note_on_c, 0, 74, 107
1, 37204, Note_off_c, 0, 74, 107
1, 37208, Note_on_c, 0, 75, 106
1, 37235, Note_off_c, 0, 75, 106
1, 37238, Note_on_c, 0, 70, 107
1, 37292, Note_off_c, 0, 70, 107
1, 37296, Note_on_c, 0, 68, 109
1, 37333, Note_off_c, 0, 68, 109
1, 37342, Note_on_c, 0, 67, 102
1, 37379, Note_off_c, 0, 67, 102
1, 37400, Note_on_c, 0, 63, 114
1, 37446, Note_off_c, 0, 63, 114
1, 37490, Note_on_c, 0, 61, 81
1, 37513, Note_off_c, 0, 61, 81
1, 37532, Note_on_c, 0, 71, 108
1, 37565, Note_off_c, 0, 71, 108
1, 37571, Note_on_c, 0, 72, 106
1, 37661, Note_off_c, 0, 72, 106
1, 37661, Note_on_c, 0, 70, 91
1, 37842, Note_off_c, 0, 70, 91
1, 38305, Note_on_c, 0, 75, 93
1, 38392, Note_off_c, 0, 75, 93
1, 38443, Note_on_c, 0, 87, 93
1, 38487, Note_off_c, 0, 87, 93
1, 38521, Note_on_c, 0, 87, 66
1, 38625, Note_off_c, 0, 87, 66
1, 39034, Note_on_c, 0, 81, 88
1, 39096, Note_off_c, 0, 81, 88
1, 39103, Note_on_c, 0, 84, 105
1, 39199, Note_off_c, 0, 84, 105
1, 39208, Note_on_c, 0, 86, 100
1, 39229, Note_off_c, 0, 86, 100
1, 39237, Note_on_c, 0, 87, 97
1, 39285, Note_off_c, 0, 87, 97
1, 39313, Note_on_c, 0, 87, 77
1, 39383, Note_off_c, 0, 87, 77
1, 39786, Note_on_c, 0, 80, 86
1, 39857, Note_off_c, 0, 80, 86
1, 39860, Note_on_c, 0, 84, 99
1, 39953, Note_off_c, 0, 84, 99
1, 40008, Note_on_c, 0, 87, 63
1, 40181, Note_off_c, 0, 87, 63
1, 40542, Note_on_c, 0, 80, 82
1, 40611, Note_off_c, 0, 80, 82
1, 40617, Note_on_c, 0, 85, 108
1, 40664, Note_off_c, 0, 85, 108
1, 40715, Note_on_c, 0, 86, 102
1, 40734, Note_off_c, 0, 86, 102
1, 40741, Note_on_c, 0, 87, 90
1, 40791, Note_off_c, 0, 87, 90
1, 40873, Note_on_c, 0, 75, 88
1, 40905, Note_off_c, 0, 75, 88
1, 41299, Note_on_c, 0, 81, 98
1, 41350, Note_off_c, 0, 81, 98
1, 41354, Note_on_c, 0, 85, 104
1, 41392, Note_off_c, 0, 85, 104
1, 41480, Note_on_c, 0, 88, 98
1, 41522, Note_off_c, 0, 88, 98
1, 41540, Note_on_c, 0, 88, 83
1, 41568, Note_off_c, 0, 88, 83
1, 41599, Note_on_c, 0, 88, 86
1, 41618, Note_off_c, 0, 88, 86
1, 41646, Note_on_c, 0, 75, 91
1, 41680, Note_off_c, 0, 75, 91
1, 41898, Note_on_c, 0, 85, 108
1, 41941, Note_off_c, 0, 85, 108
1, 41971, Note_on_c, 0, 87, 103
1, 42000, Note_off_c, 0, 87, 103
1, 42010, Note_on_c, 0, 88, 89
1, 42069, Note_off_c, 0, 88, 89
1, 42270, Note_on_c, 0, 63, 123
1, 42337, Note_off_c, 0, 63, 123
1, 42362, Note_on_c, 0, 66, 115
1, 42467, Note_off_c, 0, 66, 115
1, 42662, Note_on_c, 0, 84, 102
1, 42705, Note_off_c, 0, 84, 102
1, 42772, Note_on_c, 0, 87, 70
1, 42856, Note_off_c, 0, 87, 70
1, 43027, Note_on_c, 0, 63, 127
1, 43108, Note_off_c, 0, 63, 127
1, 43120, Note_on_c, 0, 66, 116
1, 43180, Note_off_c, 0, 66, 116
1, 43187, Note_on_c, 0, 67, 113
1, 43219, Note_off_c, 0, 67, 113
1, 43406, Note_on_c, 0, 84, 93
1, 43441, Note_off_c, 0, 84, 93
1, 43481, Note_on_c, 0, 87, 102
1, 43508, Note_off_c, 0, 87, 102
1, 43520, Note_on_c, 0, 87, 71
1, 43598, Note_off_c, 0, 87, 71
1, 43753, Note_on_c, 0, 63, 119
1, 43833, Note_off_c, 0, 63, 119
1, 43852, Note_on_c, 0, 66, 119
1, 43881, Note_off_c, 0, 66, 119
1, 43888, Note_on_c, 0, 67, 114
1, 43920, Note_off_c, 0, 67, 114
1, 43928, Note_on_c, 0, 68, 112
1, 43982, Note_off_c, 0, 68, 112
1, 43986, Note_on_c, 0, 67, 118
1, 44025, Note_off_c, 0, 67, 118
1, 44037, Note_on_c, 0, 68, 109
1, 44066, Note_off_c, 0, 68, 109
1, 44091, Note_on_c, 0, 69, 106
1, 44137, Note_off_c, 0, 69, 106
1, 44144, Note_on_c, 0, 68, 112
1, 44158, Note_off_c, 0, 68, 112
1, 44159, Note_on_c, 0, 69, 107
1, 44226, Note_off_c, 0, 69, 107
1, 44243, Note_on_c, 0, 70, 110
1, 44302, Note_off_c, 0, 70, 110
1, 44368, Note_on_c, 0, 84, 101
1, 44408, Note_off_c, 0, 84, 101
1, 44459, Note_on_c, 0, 86, 85
1, 44476, Note_off_c, 0, 86, 85
1, 44492, Note_on_c, 0, 87, 75
1, 44569, Note_off_c, 0, 87, 75
1, 44621, Note_on_c, 0, 75, 82
1, 44666, Note_off_c, 0, 75, 82
1, 44730, Note_on_c, 0, 85, 104
1, 44784, Note_off_c, 0, 85, 104
1, 44824, Note_on_c, 0, 73, 96
1, 44882, Note_off_c, 0, 73, 96
1, 44921, Note_on_c, 0, 82, 107
1, 44990, Note_off_c, 0, 82, 107
1, 45027, Note_on_c, 0, 72, 85
1, 45071, Note_off_c, 0, 72, 85
1, 45101, Note_on_c, 0, 78, 99
1, 45156, Note_off_c, 0, 78, 99
1, 45188, Note_on_c, 0, 75, 106
1, 45312, Note_off_c, 0, 75, 106
1, 45413, Note_on_c, 0, 77, 86
1, 45449, Note_off_c, 0, 77, 86
1, 45449, Note_on_c, 0, 78, 103
1, 45523, Note_off_c, 0, 78, 103
1, 45561, Note_on_c, 0, 75, 109
1, 45609, Note_off_c, 0, 75, 109
1, 45615, Note_on_c, 0, 73, 105
1, 45663, Note_off_c, 0, 73, 105
1, 45682, Note_on_c, 0, 70, 113
1, 45732, Note_off_c, 0, 70, 113
1, 45743, Note_on_c, 0, 69, 116
1, 45794, Note_off_c, 0, 69, 116
1, 45803, Note_on_c, 0, 68, 114
1, 45852, Note_off_c, 0, 68, 114
1, 45863, Note_on_c, 0, 66, 112
1, 45907, Note_off_c, 0, 66, 112
1, 45949, Note_on_c, 0, 77, 98
1, 45983, Note_off_c, 0, 77, 98
1, 45987, Note_on_c, 0, 78, 110
1, 46109, Note_off_c, 0, 78, 110
1, 46111, Note_on_c, 0, 75, 105
1, 46156, Note_off_c, 0, 75, 105
1, 46172, Note_on_c, 0, 73, 100
1, 46221, Note_off_c, 0, 73, 100
1, 46234, Note_on_c, 0, 70, 114
1, 46273, Note_off_c, 0, 70, 114
1, 46317, Note_on_c, 0, 69, 108
1, 46351, Note_off_c, 0, 69, 108
1, 46369, Note_on_c, 0, 68, 103
1, 46430, Note_off_c, 0, 68, 103
1, 46430, Note_on_c, 0, 66, 105
1, 46462, Note_off_c, 0, 66, 105
1, 46515, Note_on_c, 0, 77, 94
1, 46540, Note_off_c, 0, 77, 94
1, 46542, Note_on_c, 0, 78, 110
1, 46666, Note_off_c, 0, 78, 110
1, 46694, Note_on_c, 0, 75, 106
1, 46742, Note_off_c, 0, 75, 106
1, 46756, Note_on_c, 0, 73, 101
1, 46796, Note_off_c, 0, 73, 101
1, 46814, Note_on_c, 0, 70, 109
1, 46854, Note_off_c, 0, 70, 109
1, 46872, Note_on_c, 0, 68, 116
1, 46902, Note_off_c, 0, 68, 116
1, 46910, Note_on_c, 0, 69, 113
1, 46960, Note_off_c, 0, 69, 113
1, 46988, Note_on_c, 0, 63, 110
1, 47036, Note_off_c, 0, 63, 110
1, 47076, Note_on_c, 0, 69, 109
1, 47116, Note_off_c, 0, 69, 109
1, 47116, Note_on_c, 0, 68, 110
1, 47158, Note_off_c, 0, 68, 110
1, 47171, Note_on_c, 0, 66, 108
1, 47232, Note_off_c, 0, 66, 108
1, 47239, Note_on_c, 0, 63, 111
1, 47389, Note_off_c, 0, 63, 111
1, 47515, Note_on_c, 0, 63, 116
1, 47549, Note_off_c, 0, 63, 116
1, 47568, Note_on_c, 0, 63, 118
1, 47603, Note_off_c, 0, 63, 118
1, 47632, Note_on_c, 0, 66, 113
1, 47669, Note_off_c, 0, 66, 113
1, 47675, Note_on_c, 0, 67, 108
1, 47744, Note_off_c, 0, 67, 108
1, 47748, Note_on_c, 0, 72, 116
1, 47807, Note_off_c, 0, 72, 116
1, 47811, Note_on_c, 0, 71, 112
1, 47836, Note_off_c, 0, 71, 112
1, 47845, Note_on_c, 0, 70, 117
1, 47941, Note_off_c, 0, 70, 117
1, 47947, Note_on_c, 0, 63, 106
1, 48182, Note_off_c, 0, 63, 106
1, 48296, Note_on_c, 0, 63, 111
1, 48333, Note_off_c, 0, 63, 111
1, 48342, Note_on_c, 0, 63, 117
1, 48374, Note_off_c, 0, 63, 117
1, 48453, Note_on_c, 0, 70, 116
1, 48523, Note_off_c, 0, 70, 116
1, 48532, Note_on_c, 0, 68, 115
1, 48556, Note_off_c, 0, 68, 115
1, 48600, Note_on_c, 0, 66, 107
1, 48642, Note_off_c, 0, 66, 107
1, 48648, Note_on_c, 0, 61, 111
1, 48704, Note_off_c, 0, 61, 111
1, 48707, Note_on_c, 0, 63, 99
1, 48930, Note_off_c, 0, 63, 99
1, 49053, Note_on_c, 0, 58, 110
1, 49096, Note_off_c, 0, 58, 110
1, 49119, Note_on_c, 0, 58, 107
1, 49159, Note_off_c, 0, 58, 107
1, 49184, Note_on_c, 0, 61, 116
1, 49222, Note_off_c, 0, 61, 116
1, 49229, Note_on_c, 0, 62, 121
1, 49279, Note_off_c, 0, 62, 121
1, 49283, Note_on_c, 0, 65, 115
1, 49326, Note_off_c, 0, 65, 115
1, 49328, Note_on_c, 0, 64, 120
1, 49365, Note_off_c, 0, 64, 120
1, 49371, Note_on_c, 0, 63, 123
1, 49411, Note_off_c, 0, 63, 123
1, 49415, Note_on_c, 0, 62, 122
1, 49458, Note_off_c, 0, 62, 122
1, 49462, Note_on_c, 0, 61, 114
1, 49500, Note_off_c, 0, 61, 114
1, 49508, Note_on_c, 0, 53, 104
1, 49543, Note_off_c, 0, 53, 104
1, 49556, Note_on_c, 0, 60, 117
1, 49596, Note_off_c, 0, 60, 117
1, 49596, Note_on_c, 0, 58, 108
1, 49638, Note_off_c, 0, 58, 108
1, 49647, Note_on_c, 0, 53, 109
1, 49685, Note_off_c, 0, 53, 109
1, 49692, Note_on_c, 0, 56, 118
1, 49727, Note_off_c, 0, 56, 118
1, 49729, Note_on_c, 0, 55, 114
1, 49766, Note_off_c, 0, 55, 114
1, 49774, Note_on_c, 0, 51, 103
1, 49809, Note_off_c, 0, 51, 103
1, 49816, Note_on_c, 0, 53, 106
1, 49856, Note_off_c, 0, 53, 106
1, 49862, Note_on_c, 0, 49, 64
1, 49895, Note_off_c, 0, 49, 64
1, 49907, Note_on_c, 0, 48, 108
1, 49940, Note_off_c, 0, 48, 108
1, 49951, Note_on_c, 0, 46, 111
1, 49994, Note_off_c, 0, 46, 111
1, 50005, Note_on_c, 0, 51, 109
1, 50040, Note_off_c, 0, 51, 109
1, 50044, Note_on_c, 0, 50, 110
1, 50072, Note_off_c, 0, 50, 110
1, 50084, Note_on_c, 0, 49, 108
1, 50130, Note_off_c, 0, 49, 108
1, 50149, Note_on_c, 0, 50, 104
1, 50184, Note_off_c, 0, 50, 104
1, 50190, Note_on_c, 0, 55, 107
1, 50206, Note_off_c, 0, 55, 107
1, 50209, Note_on_c, 0, 59, 108
1, 50228, Note_off_c, 0, 59, 108
1, 50237, Note_on_c, 0, 66, 110
1, 50298, Note_off_c, 0, 66, 110
1, 50299, Note_on_c, 0, 64, 110
1, 50348, Note_off_c, 0, 64, 110
1, 50349, Note_on_c, 0, 59, 105
1, 50388, Note_off_c, 0, 59, 105
1, 50392, Note_on_c, 0, 57, 112
1, 50430, Note_off_c, 0, 57, 112
1, 50433, Note_on_c, 0, 55, 118
1, 50494, Note_off_c, 0, 55, 118
1, 50502, Note_on_c, 0, 61, 121
1, 50562, Note_off_c, 0, 61, 121
1, 50651, Note_on_c, 0, 60, 119
1, 50742, Note_off_c, 0, 60, 119
1, 50995, Note_on_c, 0, 56, 105
1, 51039, Note_off_c, 0, 56, 105
1, 51047, Note_on_c, 0, 58, 101
1, 51137, Note_off_c, 0, 58, 101
1, 51158, Note_on_c, 0, 54, 108
1, 51225, Note_off_c, 0, 54, 108
1, 51227, Note_on_c, 0, 51, 100
1, 51361, Note_off_c, 0, 51, 100
1, 51374, Note_on_c, 0, 49, 103
1, 51422, Note_off_c, 0, 49, 103
1, 51439, Note_on_c, 0, 48, 99
1, 51535, Note_off_c, 0, 48, 99
1, 51567, Note_on_c, 0, 56, 101
1, 51676, Note_off_c, 0, 56, 101
1, 51940, Note_on_c, 0, 56, 110
1, 52000, Note_off_c, 0, 56, 110
1, 52004, Note_on_c, 0, 57, 100
1, 52096, Note_off_c, 0, 57, 100
1, 52113, Note_on_c, 0, 60, 113
1, 52198, Note_off_c, 0, 60, 113
1, 52207, Note_on_c, 0, 58, 102
1, 52293, Note_off_c, 0, 58, 102
1, 52304, Note_on_c, 0, 55, 110
1, 52371, Note_off_c, 0, 55, 110
1, 52388, Note_on_c, 0, 51, 103
1, 52480, Note_off_c, 0, 51, 103
1, 52493, Note_on_c, 0, 48, 98
1, 52538, Note_off_c, 0, 48, 98
1, 52560, Note_on_c, 0, 56, 105
1, 52676, Note_off_c, 0, 56, 105
1, 52676, Note_on_c, 0, 58, 104
1, 52735, Note_off_c, 0, 58, 104
1, 52751, Note_on_c, 0, 54, 110
1, 52800, Note_off_c, 0, 54, 110
1, 52802, Note_on_c, 0, 55, 105
1, 52877, Note_off_c, 0, 55, 105
1, 52885, Note_on_c, 0, 51, 103
1, 52939, Note_off_c, 0, 51, 103
1, 53454, Note_on_c, 0, 48, 111
1, 53512, Note_off_c, 0, 48, 111
1, 53528, Note_on_c, 0, 51, 104
1, 53609, Note_off_c, 0, 51, 104
1, 53638, Note_on_c, 0, 55, 116
1, 53712, Note_off_c, 0, 55, 116
1, 53746, Note_on_c, 0, 51, 99
1, 53834, Note_off_c, 0, 51, 99
1, 53866, Note_on_c, 0, 48, 104
1, 53906, Note_off_c, 0, 48, 104
1, 53938, Note_on_c, 0, 51, 98
1, 54008, Note_off_c, 0, 51, 98
1, 54027, Note_on_c, 0, 54, 112
1, 54103, Note_off_c, 0, 54, 112
1, 54117, Note_on_c, 0, 51, 97
1, 54193, Note_off_c, 0, 51, 97
1, 54212, Note_on_c, 0, 48, 98
1, 54266, Note_off_c, 0, 48, 98
1, 54299, Note_on_c, 0, 51, 101
1, 54366, Note_off_c, 0, 51, 101
1, 54395, Note_on_c, 0, 55, 111
1, 54466, Note_off_c, 0, 55, 111
1, 54472, Note_on_c, 0, 58, 103
1, 54535, Note_off_c, 0, 58, 103
1, 54546, Note_on_c, 0, 57, 107
1, 54583, Note_off_c, 0, 57, 107
1, 54594, Note_on_c, 0, 56, 106
1, 54626, Note_off_c, 0, 56, 106
1, 54659, Note_on_c, 0, 55, 107
1, 54741, Note_off_c, 0, 55, 107
1, 54783, Note_on_c, 0, 51, 111
1, 54841, Note_off_c, 0, 51, 111
1, 54874, Note_on_c, 0, 46, 108
1, 54959, Note_off_c, 0, 46, 108
1, 54963, Note_on_c, 0, 45, 115
1, 55021, Note_off_c, 0, 45, 115
1, 55032, Note_on_c, 0, 44, 123
1, 55124, Note_off_c, 0, 44, 123
1, 55157, Note_on_c, 0, 53, 107
1, 55221, Note_off_c, 0, 53, 107
1, 55233, Note_on_c, 0, 50, 102
1, 55270, Note_off_c, 0, 50, 102
1, 55277, Note_on_c, 0, 51, 103
1, 55388, Note_off_c, 0, 51, 103
1, 55430, Note_on_c, 0, 60, 115
1, 55562, Note_off_c, 0, 60, 115
1, 55574, Note_on_c, 0, 58, 100
1, 55821, Note_off_c, 0, 58, 100
1, 55849, Note_on_c, 0, 51, 104
1, 55940, Note_off_c, 0, 51, 104
1, 56028, Note_on_c, 0, 56, 104
1, 56086, Note_off_c, 0, 56, 104
1, 56095, Note_on_c, 0, 55, 101
1, 56140, Note_off_c, 0, 55, 101
1, 56220, Note_on_c, 0, 56, 98
1, 56297, Note_off_c, 0, 56, 98
1, 56325, Note_on_c, 0, 54, 101
1, 56381, Note_off_c, 0, 54, 101
1, 56398, Note_on_c, 0, 51, 101
1, 56503, Note_off_c, 0, 51, 101
1, 56520, Note_on_c, 0, 46, 109
1, 56566, Note_off_c, 0, 46, 109
1, 56578, Note_on_c, 0, 49, 99
1, 56660, Note_off_c, 0, 49, 99
1, 56705, Note_on_c, 0, 51, 97
1, 56802, Note_off_c, 0, 51, 97
1, 56802, End_track
0, 0, End_of_file
