0, 0, Header, 1, 1, 9240
1, 0, Start_track
1, 0, Title_t, "Melody"
1, 0, Tempo, 714285
1, 0, Key_signature, -2, "major"
1, 0, Time_signature, 4, 2, 24, 8
1, 46089, Note_on_c, 0, 60, 114
1, 47966, Note_off_c, 0, 60, 114
1, 48191, Note_on_c, 0, 62, 114
1, 51420, Note_off_c, 0, 62, 114
1, 51570, Note_on_c, 0, 63, 118
1, 53222, Note_off_c, 0, 63, 118
1, 53822, Note_on_c, 0, 65, 106
1, 55474, Note_off_c, 0, 65, 106
1, 55624, Note_on_c, 0, 64, 102
1, 55999, Note_off_c, 0, 64, 102
1, 56449, Note_on_c, 0, 62, 103
1, 59377, Note_off_c, 0, 62, 103
1, 68431, Note_on_c, 0, 55, 89
1, 69645, Note_off_c, 0, 55, 89
1, 70067, Note_on_c, 0, 58, 97
1, 72179, Note_off_c, 0, 58, 97
1, 72390, Note_on_c, 0, 60, 114
1, 74713, Note_off_c, 0, 60, 114
1, 75346, Note_on_c, 0, 62, 115
1, 78408, Note_off_c, 0, 62, 115
1, 79252, Note_on_c, 0, 62, 111
1, 81733, Note_off_c, 0, 62, 111
1, 81838, Note_on_c, 0, 58, 100
1, 83897, Note_off_c, 0, 58, 100
1, 83897, Note_on_c, 0, 64, 116
1, 85797, Note_off_c, 0, 64, 116
1, 86008, Note_on_c, 0, 65, 109
1, 88595, Note_off_c, 0, 65, 109
1, 88911, Note_on_c, 0, 65, 110
1, 91234, Note_off_c, 0, 65, 110
1, 91445, Note_on_c, 0, 67, 104
1, 93821, Note_off_c, 0, 67, 104
1, 94287, Note_on_c, 0, 62, 114
1, 97591, Note_off_c, 0, 62, 114
1, 97891, Note_on_c, 0, 62, 109
1, 110131, Note_off_c, 0, 62, 109
1, 110926, Note_on_c, 0, 60, 109
1, 113143, Note_off_c, 0, 60, 109
1, 113354, Note_on_c, 0, 58, 97
1, 115149, Note_off_c, 0, 58, 97
1, 115254, Note_on_c, 0, 60, 102
1, 117577, Note_off_c, 0, 60, 102
1, 118105, Note_on_c, 0, 53, 87
1, 120269, Note_off_c, 0, 53, 87
1, 120374, Note_on_c, 0, 58, 98
1, 121905, Note_off_c, 0, 58, 98
1, 122169, Note_on_c, 0, 55, 100
1, 124122, Note_off_c, 0, 55, 100
1, 124861, Note_on_c, 0, 50, 100
1, 126867, Note_off_c, 0, 50, 100
1, 127078, Note_on_c, 0, 53, 102
1, 128186, Note_off_c, 0, 53, 102
1, 128186, Note_on_c, 0, 55, 101
1, 128872, Note_off_c, 0, 55, 101
1, 128872, Note_on_c, 0, 53, 99
1, 130350, Note_off_c, 0, 53, 99
1, 130455, Note_on_c, 0, 50, 93
1, 132144, Note_off_c, 0, 50, 93
1, 132144, Note_on_c, 0, 51, 90
1, 135153, Note_off_c, 0, 51, 90
1, 146188, Note_on_c, 0, 63, 113
1, 148405, Note_off_c, 0, 63, 113
1, 148616, Note_on_c, 0, 67, 99
1, 150886, Note_off_c, 0, 67, 99
1, 151466, Note_on_c, 0, 70, 104
1, 153366, Note_off_c, 0, 70, 104
1, 153999, Note_on_c, 0, 72, 90
1, 154632, Note_off_c, 0, 72, 90
1, 155054, Note_on_c, 0, 74, 96
1, 157166, Note_off_c, 0, 74, 96
1, 157218, Note_on_c, 0, 75, 99
1, 160280, Note_off_c, 0, 75, 99
1, 160755, Note_on_c, 0, 74, 97
1, 162603, Note_off_c, 0, 74, 97
1, 162919, Note_on_c, 0, 72, 97
1, 164502, Note_off_c, 0, 72, 97
1, 164977, Note_on_c, 0, 70, 100
1, 166983, Note_off_c, 0, 70, 100
1, 167563, Note_on_c, 0, 67, 100
1, 169305, Note_off_c, 0, 67, 100
1, 169885, Note_on_c, 0, 72, 82
1, 170888, Note_off_c, 0, 72, 82
1, 170993, Note_on_c, 0, 73, 89
1, 171732, Note_off_c, 0, 73, 89
1, 171732, Note_on_c, 0, 74, 94
1, 174900, Note_off_c, 0, 74, 94
1, 175533, Note_on_c, 0, 70, 97
1, 178753, Note_off_c, 0, 70, 97
1, 179545, Note_on_c, 0, 72, 95
1, 182501, Note_off_c, 0, 72, 95
1, 183662, Note_on_c, 0, 69, 104
1, 184876, Note_off_c, 0, 69, 104
1, 185192, Note_on_c, 0, 65, 100
1, 186142, Note_off_c, 0, 65, 100
1, 186722, Note_on_c, 0, 60, 112
1, 187830, Note_off_c, 0, 60, 112
1, 187830, Note_on_c, 0, 57, 102
1, 189202, Note_off_c, 0, 57, 102
1, 189254, Note_on_c, 0, 53, 90
1, 190415, Note_off_c, 0, 53, 90
1, 190731, Note_on_c, 0, 63, 111
1, 192209, Note_off_c, 0, 63, 111
1, 192261, Note_on_c, 0, 62, 103
1, 192894, Note_off_c, 0, 62, 103
1, 193316, Note_on_c, 0, 58, 114
1, 194952, Note_off_c, 0, 58, 114
1, 195004, Note_on_c, 0, 55, 97
1, 196324, Note_off_c, 0, 55, 97
1, 196429, Note_on_c, 0, 50, 99
1, 197036, Note_off_c, 0, 50, 99
1, 197300, Note_on_c, 0, 53, 106
1, 198250, Note_off_c, 0, 53, 106
1, 198751, Note_on_c, 0, 50, 102
1, 199727, Note_off_c, 0, 50, 102
1, 199806, Note_on_c, 0, 51, 99
1, 201126, Note_off_c, 0, 51, 99
1, 201558, Note_on_c, 0, 62, 104
1, 202496, Note_off_c, 0, 62, 104
1, 202871, Note_on_c, 0, 61, 109
1, 204185, Note_off_c, 0, 61, 109
1, 204560, Note_on_c, 0, 56, 105
1, 205836, Note_off_c, 0, 56, 105
1, 206085, Note_on_c, 0, 53, 104
1, 207009, Note_off_c, 0, 53, 104
1, 207246, Note_on_c, 0, 60, 113
1, 208434, Note_off_c, 0, 60, 113
1, 208750, Note_on_c, 0, 57, 104
1, 210070, Note_off_c, 0, 57, 104
1, 210228, Note_on_c, 0, 58, 104
1, 211336, Note_off_c, 0, 58, 104
1, 211336, Note_on_c, 0, 62, 106
1, 212629, Note_off_c, 0, 62, 106
1, 212866, Note_on_c, 0, 65, 96
1, 213974, Note_off_c, 0, 65, 96
1, 213974, Note_on_c, 0, 69, 99
1, 215584, Note_off_c, 0, 69, 99
1, 215584, Note_on_c, 0, 72, 98
1, 217088, Note_off_c, 0, 72, 98
1, 217167, Note_on_c, 0, 70, 102
1, 218803, Note_off_c, 0, 70, 102
1, 218803, Note_on_c, 0, 67, 99
1, 220070, Note_off_c, 0, 67, 99
1, 220360, Note_on_c, 0, 63, 102
1, 221785, Note_off_c, 0, 63, 102
1, 221890, Note_on_c, 0, 58, 101
1, 223289, Note_off_c, 0, 58, 101
1, 223553, Note_on_c, 0, 55, 100
1, 224767, Note_off_c, 0, 55, 100
1, 224899, Note_on_c, 0, 62, 106
1, 226192, Note_off_c, 0, 62, 106
1, 226350, Note_on_c, 0, 65, 99
1, 227353, Note_off_c, 0, 65, 99
1, 227722, Note_on_c, 0, 60, 109
1, 228989, Note_off_c, 0, 60, 109
1, 229569, Note_on_c, 0, 56, 106
1, 230466, Note_off_c, 0, 56, 106
1, 230466, Note_on_c, 0, 53, 101
1, 232023, Note_off_c, 0, 53, 101
1, 232260, Note_on_c, 0, 58, 102
1, 233500, Note_off_c, 0, 58, 102
1, 233790, Note_on_c, 0, 55, 105
1, 234925, Note_off_c, 0, 55, 105
1, 235294, Note_on_c, 0, 51, 107
1, 236086, Note_off_c, 0, 51, 107
1, 236534, Note_on_c, 0, 48, 96
1, 237695, Note_off_c, 0, 48, 96
1, 238328, Note_on_c, 0, 54, 107
1, 239516, Note_off_c, 0, 54, 107
1, 239991, Note_on_c, 0, 50, 96
1, 240888, Note_off_c, 0, 50, 96
1, 241046, Note_on_c, 0, 48, 102
1, 242471, Note_off_c, 0, 48, 102
1, 242603, Note_on_c, 0, 46, 96
1, 246668, Note_off_c, 0, 46, 96
1, 262455, Note_on_c, 0, 62, 127
1, 264910, Note_off_c, 0, 62, 127
1, 264989, Note_on_c, 0, 61, 118
1, 265253, Note_off_c, 0, 61, 118
1, 265411, Note_on_c, 0, 60, 106
1, 266150, Note_off_c, 0, 60, 106
1, 266150, Note_on_c, 0, 58, 82
1, 267417, Note_off_c, 0, 58, 82
1, 268076, Note_on_c, 0, 55, 100
1, 276840, Note_off_c, 0, 55, 100
1, 277024, Note_on_c, 0, 58, 102
1, 282673, Note_off_c, 0, 58, 102
1, 290593, Note_on_c, 0, 63, 126
1, 293549, Note_off_c, 0, 63, 126
1, 293575, Note_on_c, 0, 62, 120
1, 293918, Note_off_c, 0, 62, 120
1, 294129, Note_on_c, 0, 61, 104
1, 295396, Note_off_c, 0, 61, 104
1, 296583, Note_on_c, 0, 55, 100
1, 304027, Note_off_c, 0, 55, 100
1, 304396, Note_on_c, 0, 58, 95
1, 311339, Note_off_c, 0, 58, 95
1, 312553, Note_on_c, 0, 63, 117
1, 314533, Note_off_c, 0, 63, 117
1, 314559, Note_on_c, 0, 62, 112
1, 316591, Note_off_c, 0, 62, 112
1, 316802, Note_on_c, 0, 60, 113
1, 318993, Note_off_c, 0, 60, 113
1, 319177, Note_on_c, 0, 58, 99
1, 320892, Note_off_c, 0, 58, 99
1, 320892, Note_on_c, 0, 57, 99
1, 321288, Note_off_c, 0, 57, 99
1, 321446, Note_on_c, 0, 53, 85
1, 322554, Note_off_c, 0, 53, 85
1, 322818, Note_on_c, 0, 57, 105
1, 325141, Note_off_c, 0, 57, 105
1, 325325, Note_on_c, 0, 60, 110
1, 326803, Note_off_c, 0, 60, 110
1, 327119, Note_on_c, 0, 55, 101
1, 329257, Note_off_c, 0, 55, 101
1, 329362, Note_on_c, 0, 54, 101
1, 331526, Note_off_c, 0, 54, 101
1, 331737, Note_on_c, 0, 53, 105
1, 333690, Note_off_c, 0, 53, 105
1, 334297, Note_on_c, 0, 51, 97
1, 336277, Note_off_c, 0, 51, 97
1, 336277, Note_on_c, 0, 50, 96
1, 338283, Note_off_c, 0, 50, 96
1, 338626, Note_on_c, 0, 54, 107
1, 340606, Note_off_c, 0, 54, 107
1, 340817, Note_on_c, 0, 57, 106
1, 342612, Note_off_c, 0, 57, 106
1, 342902, Note_on_c, 0, 60, 110
1, 345304, Note_off_c, 0, 60, 110
1, 345436, Note_on_c, 0, 63, 118
1, 347204, Note_off_c, 0, 63, 118
1, 347441, Note_on_c, 0, 66, 105
1, 349473, Note_off_c, 0, 66, 105
1, 349578, Note_on_c, 0, 62, 110
1, 351874, Note_off_c, 0, 62, 110
1, 351900, Note_on_c, 0, 60, 113
1, 354091, Note_off_c, 0, 60, 113
1, 354487, Note_on_c, 0, 58, 86
1, 367343, Note_off_c, 0, 58, 86
1, 370642, Note_on_c, 0, 50, 97
1, 372226, Note_off_c, 0, 50, 97
1, 372720, Note_on_c, 0, 58, 104
1, 375536, Note_off_c, 0, 58, 104
1, 376437, Note_on_c, 0, 58, 104
1, 378915, Note_off_c, 0, 58, 104
1, 379478, Note_on_c, 0, 58, 103
1, 381505, Note_off_c, 0, 58, 103
1, 381993, Note_on_c, 0, 58, 105
1, 384546, Note_off_c, 0, 58, 105
1, 385559, Note_on_c, 0, 58, 102
1, 387811, Note_off_c, 0, 58, 102
1, 388186, Note_on_c, 0, 60, 111
1, 390588, Note_off_c, 0, 60, 111
1, 390588, Note_on_c, 0, 57, 103
1, 393554, Note_off_c, 0, 57, 103
1, 394229, Note_on_c, 0, 57, 105
1, 396669, Note_off_c, 0, 57, 105
1, 397194, Note_on_c, 0, 55, 99
1, 398808, Note_off_c, 0, 55, 99
1, 398995, Note_on_c, 0, 57, 108
1, 402111, Note_off_c, 0, 57, 108
1, 403425, Note_on_c, 0, 57, 105
1, 405978, Note_off_c, 0, 57, 105
1, 406428, Note_on_c, 0, 55, 101
1, 408230, Note_off_c, 0, 55, 101
1, 408492, Note_on_c, 0, 57, 110
1, 411045, Note_off_c, 0, 57, 110
1, 411946, Note_on_c, 0, 57, 110
1, 414949, Note_off_c, 0, 57, 110
1, 415437, Note_on_c, 0, 54, 100
1, 417201, Note_off_c, 0, 54, 100
1, 417501, Note_on_c, 0, 57, 111
1, 420579, Note_off_c, 0, 57, 111
1, 422005, Note_on_c, 0, 57, 107
1, 424407, Note_off_c, 0, 57, 107
1, 424984, Note_on_c, 0, 50, 89
1, 426990, Note_off_c, 0, 50, 89
1, 443331, Note_on_c, 0, 50, 104
1, 444967, Note_off_c, 0, 50, 104
1, 445653, Note_on_c, 0, 56, 113
1, 448425, Note_off_c, 0, 56, 113
1, 449349, Note_on_c, 0, 56, 108
1, 451434, Note_off_c, 0, 56, 108
1, 451698, Note_on_c, 0, 55, 108
1, 454153, Note_off_c, 0, 55, 108
1, 454786, Note_on_c, 0, 56, 109
1, 458085, Note_off_c, 0, 56, 109
1, 458929, Note_on_c, 0, 56, 112
1, 461067, Note_off_c, 0, 56, 112
1, 461383, Note_on_c, 0, 58, 103
1, 463389, Note_off_c, 0, 58, 103
1, 464339, Note_on_c, 0, 55, 102
1, 466424, Note_off_c, 0, 55, 102
1, 467664, Note_on_c, 0, 55, 100
1, 470092, Note_off_c, 0, 55, 100
1, 470355, Note_on_c, 0, 54, 102
1, 472335, Note_off_c, 0, 54, 102
1, 472942, Note_on_c, 0, 55, 98
1, 476083, Note_off_c, 0, 55, 98
1, 476769, Note_on_c, 0, 55, 100
1, 479224, Note_off_c, 0, 55, 100
1, 479752, Note_on_c, 0, 53, 103
1, 481468, Note_off_c, 0, 53, 103
1, 482101, Note_on_c, 0, 55, 101
1, 484345, Note_off_c, 0, 55, 101
1, 485216, Note_on_c, 0, 51, 95
1, 486800, Note_off_c, 0, 51, 95
1, 488780, Note_on_c, 0, 55, 107
1, 490760, Note_off_c, 0, 55, 107
1, 491578, Note_on_c, 0, 60, 120
1, 495405, Note_off_c, 0, 60, 120
1, 495457, Note_on_c, 0, 61, 119
1, 496143, Note_off_c, 0, 61, 119
1, 496195, Note_on_c, 0, 62, 117
1, 500022, Note_off_c, 0, 62, 117
1, 500418, Note_on_c, 0, 63, 101
1, 527926, Note_off_c, 0, 63, 101
1, 528559, Note_on_c, 0, 62, 113
1, 530935, Note_off_c, 0, 62, 113
1, 531251, Note_on_c, 0, 67, 103
1, 532559, Note_off_c, 0, 67, 103
1, 532559, Note_on_c, 0, 66, 100
1, 533122, Note_off_c, 0, 66, 100
1, 533272, Note_on_c, 0, 61, 112
1, 534586, Note_off_c, 0, 61, 112
1, 534886, Note_on_c, 0, 60, 106
1, 535787, Note_off_c, 0, 60, 106
1, 536049, Note_on_c, 0, 58, 101
1, 537025, Note_off_c, 0, 58, 101
1, 537851, Note_on_c, 0, 60, 110
1, 541943, Note_off_c, 0, 60, 110
1, 542581, Note_on_c, 0, 57, 94
1, 544270, Note_off_c, 0, 57, 94
1, 544795, Note_on_c, 0, 58, 99
1, 546709, Note_off_c, 0, 58, 99
1, 547197, Note_on_c, 0, 60, 115
1, 551589, Note_off_c, 0, 60, 115
1, 552114, Note_on_c, 0, 56, 107
1, 553916, Note_off_c, 0, 56, 107
1, 554103, Note_on_c, 0, 57, 108
1, 561199, Note_off_c, 0, 57, 108
1, 561949, Note_on_c, 0, 53, 107
1, 564314, Note_off_c, 0, 53, 107
1, 564614, Note_on_c, 0, 54, 107
1, 566003, Note_off_c, 0, 54, 107
1, 566303, Note_on_c, 0, 53, 109
1, 568630, Note_off_c, 0, 53, 109
1, 569193, Note_on_c, 0, 50, 102
1, 571182, Note_off_c, 0, 50, 102
1, 571182, Note_on_c, 0, 51, 102
1, 573547, Note_off_c, 0, 51, 102
1, 573772, Note_on_c, 0, 49, 93
1, 575686, Note_off_c, 0, 49, 93
1, 575836, Note_on_c, 0, 50, 104
1, 577600, Note_off_c, 0, 50, 104
1, 578088, Note_on_c, 0, 58, 99
1, 581730, Note_off_c, 0, 58, 99
1, 581767, Note_on_c, 0, 57, 98
1, 582555, Note_off_c, 0, 57, 98
1, 583681, Note_on_c, 0, 50, 92
1, 584844, Note_off_c, 0, 50, 92
1, 585144, Note_on_c, 0, 51, 102
1, 586833, Note_off_c, 0, 51, 102
1, 587321, Note_on_c, 0, 60, 107
1, 593065, Note_off_c, 0, 60, 107
1, 600386, Note_on_c, 0, 53, 111
1, 602451, Note_off_c, 0, 53, 111
1, 602901, Note_on_c, 0, 55, 105
1, 604665, Note_off_c, 0, 55, 105
1, 605340, Note_on_c, 0, 62, 112
1, 606992, Note_off_c, 0, 62, 112
1, 607292, Note_on_c, 0, 57, 110
1, 609206, Note_off_c, 0, 57, 110
1, 609468, Note_on_c, 0, 58, 102
1, 611307, Note_off_c, 0, 58, 102
1, 612170, Note_on_c, 0, 67, 105
1, 614986, Note_off_c, 0, 67, 105
1, 616337, Note_on_c, 0, 58, 98
1, 618251, Note_off_c, 0, 58, 98
1, 618513, Note_on_c, 0, 60, 115
1, 620390, Note_off_c, 0, 60, 115
1, 621253, Note_on_c, 0, 69, 102
1, 622304, Note_off_c, 0, 69, 102
1, 622341, Note_on_c, 0, 68, 87
1, 622716, Note_off_c, 0, 68, 87
1, 623354, Note_on_c, 0, 60, 107
1, 625231, Note_off_c, 0, 60, 107
1, 625493, Note_on_c, 0, 62, 108
1, 627220, Note_off_c, 0, 62, 108
1, 627633, Note_on_c, 0, 70, 101
1, 629097, Note_off_c, 0, 70, 101
1, 629097, Note_on_c, 0, 69, 87
1, 630298, Note_off_c, 0, 69, 87
1, 630335, Note_on_c, 0, 62, 108
1, 631987, Note_off_c, 0, 62, 108
1, 632287, Note_on_c, 0, 67, 98
1, 633788, Note_off_c, 0, 67, 98
1, 634801, Note_on_c, 0, 74, 94
1, 638518, Note_off_c, 0, 74, 94
1, 639344, Note_on_c, 0, 69, 100
1, 641071, Note_off_c, 0, 69, 100
1, 641746, Note_on_c, 0, 72, 97
1, 643398, Note_off_c, 0, 72, 97
1, 643735, Note_on_c, 0, 70, 99
1, 645800, Note_off_c, 0, 70, 99
1, 651808, Note_on_c, 0, 74, 100
1, 653127, Note_off_c, 0, 74, 100
1, 653127, Note_on_c, 0, 75, 103
1, 656347, Note_off_c, 0, 75, 103
1, 656347, Note_on_c, 0, 74, 98
1, 658036, Note_off_c, 0, 74, 98
1, 658933, Note_on_c, 0, 70, 104
1, 660358, Note_off_c, 0, 70, 104
1, 660885, Note_on_c, 0, 67, 98
1, 662944, Note_off_c, 0, 67, 98
1, 663736, Note_on_c, 0, 63, 93
1, 665636, Note_off_c, 0, 63, 93
1, 666857, Note_on_c, 0, 72, 100
1, 668246, Note_off_c, 0, 72, 100
1, 668246, Note_on_c, 0, 73, 96
1, 668696, Note_off_c, 0, 73, 96
1, 668996, Note_on_c, 0, 74, 89
1, 669897, Note_off_c, 0, 74, 89
1, 670122, Note_on_c, 0, 72, 99
1, 671886, Note_off_c, 0, 72, 99
1, 672561, Note_on_c, 0, 70, 104
1, 674137, Note_off_c, 0, 70, 104
1, 674137, Note_on_c, 0, 71, 89
1, 675663, Note_off_c, 0, 71, 89
1, 675663, Note_on_c, 0, 69, 92
1, 676714, Note_off_c, 0, 69, 92
1, 676989, Note_on_c, 0, 67, 99
1, 678528, Note_off_c, 0, 67, 99
1, 679391, Note_on_c, 0, 65, 104
1, 681080, Note_off_c, 0, 65, 104
1, 681380, Note_on_c, 0, 63, 112
1, 683219, Note_off_c, 0, 63, 112
1, 683481, Note_on_c, 0, 62, 103
1, 685208, Note_off_c, 0, 62, 103
1, 686109, Note_on_c, 0, 58, 101
1, 687348, Note_off_c, 0, 58, 101
1, 687948, Note_on_c, 0, 53, 102
1, 690200, Note_off_c, 0, 53, 102
1, 690613, Note_on_c, 0, 51, 99
1, 692302, Note_off_c, 0, 51, 99
1, 692302, Note_on_c, 0, 50, 103
1, 694629, Note_off_c, 0, 50, 103
1, 694779, Note_on_c, 0, 60, 105
1, 695454, Note_off_c, 0, 60, 105
1, 695454, Note_on_c, 0, 61, 113
1, 695791, Note_off_c, 0, 61, 113
1, 696053, Note_on_c, 0, 62, 118
1, 698230, Note_off_c, 0, 62, 118
1, 698380, Note_on_c, 0, 58, 98
1, 700144, Note_off_c, 0, 58, 98
1, 700444, Note_on_c, 0, 53, 96
1, 701870, Note_off_c, 0, 53, 96
1, 702283, Note_on_c, 0, 61, 111
1, 705474, Note_off_c, 0, 61, 111
1, 705887, Note_on_c, 0, 58, 98
1, 707013, Note_off_c, 0, 58, 98
1, 707501, Note_on_c, 0, 54, 106
1, 708364, Note_off_c, 0, 54, 106
1, 708664, Note_on_c, 0, 51, 100
1, 709602, Note_off_c, 0, 51, 100
1, 710465, Note_on_c, 0, 60, 113
1, 712192, Note_off_c, 0, 60, 113
1, 712905, Note_on_c, 0, 58, 99
1, 714857, Note_off_c, 0, 58, 99
1, 715157, Note_on_c, 0, 56, 108
1, 717372, Note_off_c, 0, 56, 108
1, 717559, Note_on_c, 0, 54, 105
1, 719436, Note_off_c, 0, 54, 105
1, 719924, Note_on_c, 0, 53, 93
1, 726382, Note_off_c, 0, 53, 93
1, 731717, Note_on_c, 0, 64, 106
1, 732720, Note_off_c, 0, 64, 106
1, 733036, Note_on_c, 0, 65, 112
1, 735359, Note_off_c, 0, 65, 112
1, 736151, Note_on_c, 0, 65, 114
1, 738685, Note_off_c, 0, 65, 114
1, 738790, Note_on_c, 0, 63, 121
1, 747290, Note_off_c, 0, 63, 121
1, 747870, Note_on_c, 0, 61, 121
1, 749665, Note_off_c, 0, 61, 121
1, 750140, Note_on_c, 0, 60, 116
1, 751988, Note_off_c, 0, 60, 116
1, 752304, Note_on_c, 0, 58, 90
1, 764553, Note_off_c, 0, 58, 90
1, 764899, Note_on_c, 0, 53, 104
1, 766288, Note_off_c, 0, 53, 104
1, 766776, Note_on_c, 0, 61, 114
1, 770042, Note_off_c, 0, 61, 114
1, 770605, Note_on_c, 0, 61, 115
1, 773308, Note_off_c, 0, 61, 115
1, 773608, Note_on_c, 0, 58, 97
1, 775072, Note_off_c, 0, 58, 97
1, 775297, Note_on_c, 0, 61, 113
1, 776198, Note_on_c, 0, 62, 112
1, 776198, Note_off_c, 0, 61, 113
1, 776611, Note_off_c, 0, 62, 112
1, 776836, Note_on_c, 0, 63, 113
1, 783819, Note_off_c, 0, 63, 113
1, 784532, Note_on_c, 0, 58, 97
1, 787648, Note_off_c, 0, 58, 97
1, 789074, Note_on_c, 0, 58, 105
1, 791289, Note_off_c, 0, 58, 105
1, 791889, Note_on_c, 0, 53, 102
1, 793240, Note_off_c, 0, 53, 102
1, 793765, Note_on_c, 0, 60, 9
1, 809008, Note_off_c, 0, 60, 9
1, 819509, Note_on_c, 0, 67, 109
1, 821568, Note_off_c, 0, 67, 109
1, 822782, Note_on_c, 0, 70, 107
1, 825105, Note_off_c, 0, 70, 107
1, 825210, Note_on_c, 0, 68, 110
1, 827058, Note_off_c, 0, 68, 110
1, 827058, Note_on_c, 0, 67, 107
1, 829117, Note_off_c, 0, 67, 107
1, 829169, Note_on_c, 0, 65, 111
1, 831069, Note_off_c, 0, 65, 111
1, 832072, Note_on_c, 0, 64, 120
1, 834395, Note_off_c, 0, 64, 120
1, 834659, Note_on_c, 0, 65, 108
1, 836190, Note_off_c, 0, 65, 108
1, 836348, Note_on_c, 0, 67, 105
1, 838407, Note_off_c, 0, 67, 105
1, 838934, Note_on_c, 0, 68, 109
1, 840729, Note_off_c, 0, 68, 109
1, 841045, Note_on_c, 0, 65, 109
1, 842945, Note_off_c, 0, 65, 109
1, 843314, Note_on_c, 0, 60, 116
1, 845267, Note_off_c, 0, 60, 116
1, 845372, Note_on_c, 0, 56, 97
1, 847378, Note_off_c, 0, 56, 97
1, 847800, Note_on_c, 0, 53, 102
1, 849595, Note_off_c, 0, 53, 102
1, 851284, Note_on_c, 0, 63, 121
1, 853079, Note_off_c, 0, 63, 121
1, 853237, Note_on_c, 0, 64, 115
1, 854715, Note_off_c, 0, 64, 115
1, 855178, Note_on_c, 0, 60, 112
1, 856392, Note_off_c, 0, 60, 112
1, 857406, Note_on_c, 0, 57, 109
1, 859306, Note_off_c, 0, 57, 109
1, 860019, Note_on_c, 0, 56, 109
1, 861258, Note_off_c, 0, 56, 109
1, 861746, Note_on_c, 0, 54, 107
1, 863322, Note_off_c, 0, 54, 107
1, 863697, Note_on_c, 0, 53, 104
1, 865536, Note_off_c, 0, 53, 104
1, 865761, Note_on_c, 0, 56, 104
1, 867037, Note_off_c, 0, 56, 104
1, 867037, Note_on_c, 0, 55, 101
1, 867637, Note_off_c, 0, 55, 101
1, 867862, Note_on_c, 0, 51, 100
1, 869589, Note_off_c, 0, 51, 100
1, 869914, Note_on_c, 0, 49, 99
1, 875669, Note_off_c, 0, 49, 99
1, 876422, Note_on_c, 0, 64, 108
1, 877811, Note_off_c, 0, 64, 108
1, 878148, Note_on_c, 0, 65, 108
1, 882728, Note_off_c, 0, 65, 108
1, 883178, Note_on_c, 0, 65, 109
1, 885843, Note_off_c, 0, 65, 109
1, 885955, Note_on_c, 0, 63, 113
1, 894928, Note_off_c, 0, 63, 113
1, 895228, Note_on_c, 0, 61, 114
1, 897405, Note_off_c, 0, 61, 114
1, 897405, Note_on_c, 0, 60, 109
1, 899695, Note_off_c, 0, 60, 109
1, 900295, Note_on_c, 0, 58, 92
1, 912610, Note_off_c, 0, 58, 92
1, 917603, Note_on_c, 0, 61, 115
1, 919930, Note_off_c, 0, 61, 115
1, 920380, Note_on_c, 0, 58, 104
1, 922820, Note_off_c, 0, 58, 104
1, 922932, Note_on_c, 0, 62, 112
1, 924171, Note_off_c, 0, 62, 112
1, 924208, Note_on_c, 0, 63, 120
1, 930891, Note_off_c, 0, 63, 120
1, 931379, Note_on_c, 0, 61, 106
1, 933068, Note_off_c, 0, 61, 106
1, 933068, Note_on_c, 0, 62, 112
1, 933518, Note_off_c, 0, 62, 112
1, 933555, Note_on_c, 0, 63, 113
1, 935882, Note_off_c, 0, 63, 113
1, 936182, Note_on_c, 0, 61, 109
1, 937721, Note_off_c, 0, 61, 109
1, 939560, Note_on_c, 0, 58, 101
1, 941362, Note_off_c, 0, 58, 101
1, 941699, Note_on_c, 0, 60, 105
1, 968580, Note_off_c, 0, 60, 105
1, 969934, Note_on_c, 0, 60, 112
1, 971961, Note_off_c, 0, 60, 112
1, 972374, Note_on_c, 0, 63, 116
1, 973763, Note_off_c, 0, 63, 116
1, 973950, Note_on_c, 0, 65, 110
1, 975902, Note_off_c, 0, 65, 110
1, 976615, Note_on_c, 0, 67, 110
1, 978567, Note_off_c, 0, 67, 110
1, 978679, Note_on_c, 0, 68, 106
1, 979617, Note_off_c, 0, 68, 106
1, 979879, Note_on_c, 0, 69, 105
1, 982695, Note_off_c, 0, 69, 105
1, 983821, Note_on_c, 0, 70, 106
1, 985285, Note_off_c, 0, 70, 106
1, 985698, Note_on_c, 0, 72, 99
1, 987162, Note_off_c, 0, 72, 99
1, 987575, Note_on_c, 0, 67, 100
1, 991667, Note_off_c, 0, 67, 100
1, 992643, Note_on_c, 0, 65, 99
1, 994745, Note_off_c, 0, 65, 99
1, 996021, Note_on_c, 0, 67, 101
1, 997522, Note_off_c, 0, 67, 101
1, 997522, Note_on_c, 0, 66, 104
1, 998010, Note_off_c, 0, 66, 104
1, 998085, Note_on_c, 0, 65, 85
1, 998835, Note_off_c, 0, 65, 85
1, 1005931, Note_on_c, 0, 67, 101
1, 1007996, Note_off_c, 0, 67, 101
1, 1008333, Note_on_c, 0, 70, 105
1, 1010022, Note_off_c, 0, 70, 105
1, 1010097, Note_on_c, 0, 72, 102
1, 1012612, Note_off_c, 0, 72, 102
1, 1014902, Note_on_c, 0, 71, 96
1, 1016779, Note_off_c, 0, 71, 96
1, 1016816, Note_on_c, 0, 72, 99
1, 1020007, Note_off_c, 0, 72, 99
1, 1020119, Note_on_c, 0, 73, 96
1, 1024474, Note_off_c, 0, 73, 96
1, 1024796, Note_on_c, 0, 74, 96
1, 1028280, Note_off_c, 0, 74, 96
1, 1028339, Note_on_c, 0, 73, 97
1, 1028864, Note_off_c, 0, 73, 97
1, 1029239, Note_on_c, 0, 70, 105
1, 1031491, Note_off_c, 0, 70, 105
1, 1033969, Note_on_c, 0, 75, 105
1, 1035132, Note_off_c, 0, 75, 105
1, 1035207, Note_on_c, 0, 76, 100
1, 1035920, Note_off_c, 0, 76, 100
1, 1036220, Note_on_c, 0, 77, 90
1, 1041701, Note_off_c, 0, 77, 90
1, 1043578, Note_on_c, 0, 79, 108
1, 1046957, Note_off_c, 0, 79, 108
1, 1047895, Note_on_c, 0, 72, 98
1, 1049509, Note_off_c, 0, 72, 98
1, 1049771, Note_on_c, 0, 73, 95
1, 1051272, Note_off_c, 0, 73, 95
1, 1051459, Note_on_c, 0, 74, 98
1, 1064600, Note_off_c, 0, 74, 98
1, 1065013, Note_on_c, 0, 73, 97
1, 1066514, Note_off_c, 0, 73, 97
1, 1066514, Note_on_c, 0, 72, 97
1, 1067189, Note_off_c, 0, 72, 97
1, 1067189, Note_on_c, 0, 71, 103
1, 1067714, Note_off_c, 0, 71, 103
1, 1067714, Note_on_c, 0, 70, 101
1, 1069403, Note_off_c, 0, 70, 101
1, 1070529, Note_on_c, 0, 72, 102
1, 1072256, Note_off_c, 0, 72, 102
1, 1072931, Note_on_c, 0, 67, 88
1, 1074920, Note_off_c, 0, 67, 88
1, 1074957, Note_on_c, 0, 69, 108
1, 1075970, Note_off_c, 0, 69, 108
1, 1076383, Note_on_c, 0, 70, 109
1, 1080175, Note_off_c, 0, 70, 109
1, 1080287, Note_on_c, 0, 67, 108
1, 1081638, Note_off_c, 0, 67, 108
1, 1082163, Note_on_c, 0, 65, 109
1, 1083402, Note_off_c, 0, 65, 109
1, 1083852, Note_on_c, 0, 61, 118
1, 1085241, Note_off_c, 0, 61, 118
1, 1085428, Note_on_c, 0, 60, 117
1, 1086554, Note_off_c, 0, 60, 117
1, 1086891, Note_on_c, 0, 58, 106
1, 1088805, Note_off_c, 0, 58, 106
1, 1089255, Note_on_c, 0, 55, 106
1, 1092596, Note_off_c, 0, 55, 106
1, 1092596, Note_on_c, 0, 58, 89
1, 1106488, Note_off_c, 0, 58, 89
1, 1108290, Note_on_c, 0, 73, 99
1, 1109791, Note_off_c, 0, 73, 99
1, 1109791, Note_on_c, 0, 74, 103
1, 1110541, Note_off_c, 0, 74, 103
1, 1110691, Note_on_c, 0, 75, 102
1, 1117712, Note_off_c, 0, 75, 102
1, 1117712, Note_on_c, 0, 74, 100
1, 1119401, Note_off_c, 0, 74, 100
1, 1120039, Note_on_c, 0, 72, 103
1, 1121578, Note_off_c, 0, 72, 103
1, 1121878, Note_on_c, 0, 70, 104
1, 1124881, Note_off_c, 0, 70, 104
1, 1125294, Note_on_c, 0, 67, 102
1, 1127321, Note_off_c, 0, 67, 102
1, 1127884, Note_on_c, 0, 72, 101
1, 1129310, Note_off_c, 0, 72, 101
1, 1129535, Note_on_c, 0, 74, 98
1, 1130473, Note_off_c, 0, 74, 98
1, 1130698, Note_on_c, 0, 75, 100
1, 1132687, Note_off_c, 0, 75, 100
1, 1133437, Note_on_c, 0, 72, 99
1, 1142222, Note_off_c, 0, 72, 99
1, 1143010, Note_on_c, 0, 71, 88
1, 1144173, Note_off_c, 0, 71, 88
1, 1144323, Note_on_c, 0, 69, 96
1, 1145411, Note_off_c, 0, 69, 96
1, 1145561, Note_on_c, 0, 67, 100
1, 1147062, Note_off_c, 0, 67, 100
1, 1147587, Note_on_c, 0, 65, 108
1, 1149276, Note_off_c, 0, 65, 108
1, 1149689, Note_on_c, 0, 64, 115
1, 1151566, Note_off_c, 0, 64, 115
1, 1151866, Note_on_c, 0, 63, 113
1, 1153743, Note_off_c, 0, 63, 113
1, 1153968, Note_on_c, 0, 62, 110
1, 1155807, Note_off_c, 0, 62, 110
1, 1155957, Note_on_c, 0, 60, 115
1, 1158097, Note_off_c, 0, 60, 115
1, 1158134, Note_on_c, 0, 58, 106
1, 1160199, Note_off_c, 0, 58, 106
1, 1160349, Note_on_c, 0, 57, 112
1, 1162301, Note_off_c, 0, 57, 112
1, 1162676, Note_on_c, 0, 55, 103
1, 1164891, Note_off_c, 0, 55, 103
1, 1165041, Note_on_c, 0, 53, 105
1, 1167519, Note_off_c, 0, 53, 105
1, 1167819, Note_on_c, 0, 51, 98
1, 1169208, Note_off_c, 0, 51, 98
1, 1169696, Note_on_c, 0, 50, 96
1, 1171798, Note_off_c, 0, 50, 96
1, 1172023, Note_on_c, 0, 53, 106
1, 1173975, Note_off_c, 0, 53, 106
1, 1174162, Note_on_c, 0, 58, 105
1, 1176677, Note_off_c, 0, 58, 105
1, 1176902, Note_on_c, 0, 62, 109
1, 1178366, Note_off_c, 0, 62, 109
1, 1178591, Note_on_c, 0, 58, 102
1, 1181069, Note_off_c, 0, 58, 102
1, 1181857, Note_on_c, 0, 55, 96
1, 1183133, Note_off_c, 0, 55, 96
1, 1183508, Note_on_c, 0, 65, 104
1, 1186136, Note_off_c, 0, 65, 104
1, 1186136, Note_on_c, 0, 62, 106
1, 1187825, Note_off_c, 0, 62, 106
1, 1188313, Note_on_c, 0, 58, 96
1, 1190265, Note_off_c, 0, 58, 96
1, 1191015, Note_on_c, 0, 53, 95
1, 1192629, Note_on_c, 0, 60, 112
1, 1192629, Note_off_c, 0, 53, 95
1, 1195369, Note_off_c, 0, 60, 112
1, 1195519, Note_on_c, 0, 62, 105
1, 1197095, Note_off_c, 0, 62, 105
1, 1197245, Note_on_c, 0, 58, 110
1, 1199422, Note_off_c, 0, 58, 110
1, 1200060, Note_on_c, 0, 50, 94
1, 1201561, Note_off_c, 0, 50, 94
1, 1202086, Note_on_c, 0, 55, 95
1, 1210609, Note_off_c, 0, 55, 95
1, 1224989, Note_on_c, 0, 55, 101
1, 1226866, Note_off_c, 0, 55, 101
1, 1227241, Note_on_c, 0, 58, 101
1, 1228817, Note_off_c, 0, 58, 101
1, 1229192, Note_on_c, 0, 60, 122
1, 1232195, Note_off_c, 0, 60, 122
1, 1232645, Note_on_c, 0, 62, 124
1, 1234184, Note_off_c, 0, 62, 124
1, 1235235, Note_on_c, 0, 60, 91
1, 1237337, Note_off_c, 0, 60, 91
1, 1237937, Note_on_c, 0, 62, 119
1, 1239401, Note_off_c, 0, 62, 119
1, 1239513, Note_on_c, 0, 63, 123
1, 1247998, Note_off_c, 0, 63, 123
1, 1248148, Note_on_c, 0, 62, 115
1, 1248748, Note_off_c, 0, 62, 115
1, 1248898, Note_on_c, 0, 63, 116
1, 1254605, Note_off_c, 0, 63, 116
1, 1254755, Note_on_c, 0, 62, 107
1, 1255205, Note_off_c, 0, 62, 107
1, 1255205, Note_on_c, 0, 63, 114
1, 1260236, Note_off_c, 0, 63, 114
1, 1260348, Note_on_c, 0, 62, 107
1, 1260986, Note_off_c, 0, 62, 107
1, 1261136, Note_on_c, 0, 63, 112
1, 1266467, Note_off_c, 0, 63, 112
1, 1266467, Note_on_c, 0, 62, 108
1, 1268569, Note_off_c, 0, 62, 108
1, 1269019, Note_on_c, 0, 60, 110
1, 1271046, Note_off_c, 0, 60, 110
1, 1271534, Note_on_c, 0, 58, 100
1, 1273523, Note_off_c, 0, 58, 100
1, 1273710, Note_on_c, 0, 55, 104
1, 1275362, Note_off_c, 0, 55, 104
1, 1275737, Note_on_c, 0, 62, 110
1, 1278177, Note_off_c, 0, 62, 110
1, 1278214, Note_on_c, 0, 63, 107
1, 1280354, Note_off_c, 0, 63, 107
1, 1280691, Note_on_c, 0, 60, 110
1, 1283582, Note_off_c, 0, 60, 110
1, 1284370, Note_on_c, 0, 60, 96
1, 1302918, Note_off_c, 0, 60, 96
1, 1303443, Note_on_c, 0, 57, 109
1, 1305808, Note_off_c, 0, 57, 109
1, 1306333, Note_on_c, 0, 54, 103
1, 1308322, Note_off_c, 0, 54, 103
1, 1308434, Note_on_c, 0, 50, 98
1, 1310236, Note_off_c, 0, 50, 98
1, 1310799, Note_on_c, 0, 48, 96
1, 1312901, Note_off_c, 0, 48, 96
1, 1312976, Note_on_c, 0, 55, 82
1, 1322400, Note_off_c, 0, 55, 82
1, 1322400, End_track
0, 0, End_of_file
