0, 0, Header, 1, 1, 192
1, 0, Start_track
1, 0, Title_t, "Melody"
1, 0, Tempo, 267857
1, 0, Key_signature, -1, "major"
1, 0, Time_signature, 4, 2, 24, 8
1, 2849, Note_on_c, 0, 67, 113
1, 2949, Note_off_c, 0, 67, 113
1, 2976, Note_on_c, 0, 65, 116
1, 3120, Note_off_c, 0, 65, 116
1, 3158, Note_on_c, 0, 64, 110
1, 3223, Note_off_c, 0, 64, 110
1, 3250, Note_on_c, 0, 62, 109
1, 3337, Note_off_c, 0, 62, 109
1, 3360, Note_on_c, 0, 60, 117
1, 3443, Note_off_c, 0, 60, 117
1, 3467, Note_on_c, 0, 57, 91
1, 3562, Note_off_c, 0, 57, 91
1, 3649, Note_on_c, 0, 57, 107
1, 3751, Note_off_c, 0, 57, 107
1, 3758, Note_on_c, 0, 58, 113
1, 3876, Note_off_c, 0, 58, 113
1, 4125, Note_on_c, 0, 57, 106
1, 4306, Note_off_c, 0, 57, 106
1, 4321, Note_on_c, 0, 60, 112
1, 4381, Note_off_c, 0, 60, 112
1, 4408, Note_on_c, 0, 55, 95
1, 4583, Note_off_c, 0, 55, 95
1, 4900, Note_on_c, 0, 53, 97
1, 4961, Note_off_c, 0, 53, 97
1, 4981, Note_on_c, 0, 48, 102
1, 5051, Note_off_c, 0, 48, 102
1, 5221, Note_on_c, 0, 57, 87
1, 5298, Note_off_c, 0, 57, 87
1, 5301, Note_on_c, 0, 58, 98
1, 5372, Note_off_c, 0, 58, 98
1, 5410, Note_on_c, 0, 60, 109
1, 5511, Note_off_c, 0, 60, 109
1, 5604, Note_on_c, 0, 58, 118
1, 5696, Note_off_c, 0, 58, 118
1, 5715, Note_on_c, 0, 56, 112
1, 5845, Note_off_c, 0, 56, 112
1, 5920, Note_on_c, 0, 53, 104
1, 5989, Note_off_c, 0, 53, 104
1, 6002, Note_on_c, 0, 55, 98
1, 6158, Note_off_c, 0, 55, 98
1, 6257, Note_on_c, 0, 53, 100
1, 6361, Note_off_c, 0, 53, 100
1, 6473, Note_on_c, 0, 61, 109
1, 6534, Note_off_c, 0, 61, 109
1, 6555, Note_on_c, 0, 64, 117
1, 6654, Note_off_c, 0, 64, 117
1, 6667, Note_on_c, 0, 64, 109
1, 6725, Note_off_c, 0, 64, 109
1, 6736, Note_on_c, 0, 62, 104
1, 6832, Note_off_c, 0, 62, 104
1, 6854, Note_on_c, 0, 61, 114
1, 6945, Note_off_c, 0, 61, 114
1, 6957, Note_on_c, 0, 60, 103
1, 7080, Note_off_c, 0, 60, 103
1, 8289, Note_on_c, 0, 58, 111
1, 8376, Note_off_c, 0, 58, 111
1, 8397, Note_on_c, 0, 57, 113
1, 8484, Note_off_c, 0, 57, 113
1, 8606, Note_on_c, 0, 54, 108
1, 8739, Note_off_c, 0, 54, 108
1, 8845, Note_on_c, 0, 53, 108
1, 8989, Note_off_c, 0, 53, 108
1, 9068, Note_on_c, 0, 52, 99
1, 9135, Note_off_c, 0, 52, 99
1, 9148, Note_on_c, 0, 60, 105
1, 9393, Note_off_c, 0, 60, 105
1, 9407, Note_on_c, 0, 58, 114
1, 9499, Note_off_c, 0, 58, 114
1, 9516, Note_on_c, 0, 56, 113
1, 9593, Note_off_c, 0, 56, 113
1, 9598, Note_on_c, 0, 57, 99
1, 9776, Note_off_c, 0, 57, 99
1, 9786, Note_on_c, 0, 58, 114
1, 9870, Note_off_c, 0, 58, 114
1, 9875, Note_on_c, 0, 60, 106
1, 10041, Note_off_c, 0, 60, 106
1, 10054, Note_on_c, 0, 58, 100
1, 10163, Note_off_c, 0, 58, 100
1, 10183, Note_on_c, 0, 60, 106
1, 10326, Note_off_c, 0, 60, 106
1, 10345, Note_on_c, 0, 58, 101
1, 10470, Note_off_c, 0, 58, 101
1, 11116, Note_on_c, 0, 65, 116
1, 11271, Note_off_c, 0, 65, 116
1, 11301, Note_on_c, 0, 64, 119
1, 11418, Note_off_c, 0, 64, 119
1, 11431, Note_on_c, 0, 65, 117
1, 11575, Note_off_c, 0, 65, 117
1, 11850, Note_on_c, 0, 65, 121
1, 11980, Note_off_c, 0, 65, 121
1, 12028, Note_on_c, 0, 65, 115
1, 12155, Note_off_c, 0, 65, 115
1, 12190, Note_on_c, 0, 64, 123
1, 12249, Note_off_c, 0, 64, 123
1, 12269, Note_on_c, 0, 65, 116
1, 12380, Note_off_c, 0, 65, 116
1, 12390, Note_on_c, 0, 64, 117
1, 12464, Note_off_c, 0, 64, 117
1, 12483, Note_on_c, 0, 62, 102
1, 12548, Note_off_c, 0, 62, 102
1, 12584, Note_on_c, 0, 61, 115
1, 12649, Note_off_c, 0, 61, 115
1, 12663, Note_on_c, 0, 62, 118
1, 12774, Note_off_c, 0, 62, 118
1, 12790, Note_on_c, 0, 62, 117
1, 12866, Note_off_c, 0, 62, 117
1, 12883, Note_on_c, 0, 61, 118
1, 12994, Note_off_c, 0, 61, 118
1, 13070, Note_on_c, 0, 62, 117
1, 13208, Note_off_c, 0, 62, 117
1, 14189, Note_on_c, 0, 67, 118
1, 14284, Note_off_c, 0, 67, 118
1, 14298, Note_on_c, 0, 65, 123
1, 14381, Note_off_c, 0, 65, 123
1, 14392, Note_on_c, 0, 64, 113
1, 14490, Note_off_c, 0, 64, 113
1, 14511, Note_on_c, 0, 62, 121
1, 14591, Note_off_c, 0, 62, 121
1, 14611, Note_on_c, 0, 60, 110
1, 14723, Note_off_c, 0, 60, 110
1, 14782, Note_on_c, 0, 58, 117
1, 14869, Note_off_c, 0, 58, 117
1, 14896, Note_on_c, 0, 56, 112
1, 15048, Note_off_c, 0, 56, 112
1, 15078, Note_on_c, 0, 53, 99
1, 15151, Note_off_c, 0, 53, 99
1, 15158, Note_on_c, 0, 55, 111
1, 15289, Note_off_c, 0, 55, 111
1, 15506, Note_on_c, 0, 53, 105
1, 15614, Note_off_c, 0, 53, 105
1, 15685, Note_on_c, 0, 55, 111
1, 15763, Note_off_c, 0, 55, 111
1, 15770, Note_on_c, 0, 56, 118
1, 15837, Note_off_c, 0, 56, 118
1, 15848, Note_on_c, 0, 57, 104
1, 15909, Note_off_c, 0, 57, 104
1, 15921, Note_on_c, 0, 60, 115
1, 15999, Note_off_c, 0, 60, 115
1, 16028, Note_on_c, 0, 60, 116
1, 16120, Note_off_c, 0, 60, 116
1, 16132, Note_on_c, 0, 60, 112
1, 16370, Note_off_c, 0, 60, 112
1, 17876, Note_on_c, 0, 46, 110
1, 17914, Note_off_c, 0, 46, 110
1, 18180, Note_on_c, 0, 56, 120
1, 18254, Note_off_c, 0, 56, 120
1, 18263, Note_on_c, 0, 55, 91
1, 18354, Note_off_c, 0, 55, 91
1, 18373, Note_on_c, 0, 53, 106
1, 18467, Note_off_c, 0, 53, 106
1, 18632, Note_on_c, 0, 58, 111
1, 18732, Note_off_c, 0, 58, 111
1, 18748, Note_on_c, 0, 60, 108
1, 18824, Note_off_c, 0, 60, 108
1, 18918, Note_on_c, 0, 57, 98
1, 19158, Note_off_c, 0, 57, 98
1, 20087, Note_on_c, 0, 60, 111
1, 20187, Note_off_c, 0, 60, 111
1, 20295, Note_on_c, 0, 65, 121
1, 20500, Note_off_c, 0, 65, 121
1, 20642, Note_on_c, 0, 65, 121
1, 20933, Note_off_c, 0, 65, 121
1, 20992, Note_on_c, 0, 65, 113
1, 21278, Note_off_c, 0, 65, 113
1, 21278, Note_on_c, 0, 56, 102
1, 21468, Note_off_c, 0, 56, 102
1, 21660, Note_on_c, 0, 53, 112
1, 21739, Note_off_c, 0, 53, 112
1, 21764, Note_on_c, 0, 55, 111
1, 21833, Note_off_c, 0, 55, 111
1, 22160, Note_on_c, 0, 64, 100
1, 22226, Note_off_c, 0, 64, 100
1, 22246, Note_on_c, 0, 67, 115
1, 22340, Note_off_c, 0, 67, 115
1, 22359, Note_on_c, 0, 66, 117
1, 22415, Note_off_c, 0, 66, 117
1, 22434, Note_on_c, 0, 65, 120
1, 22543, Note_off_c, 0, 65, 120
1, 22566, Note_on_c, 0, 64, 122
1, 22627, Note_off_c, 0, 64, 122
1, 22642, Note_on_c, 0, 63, 114
1, 22760, Note_off_c, 0, 63, 114
1, 22951, Note_on_c, 0, 62, 112
1, 23110, Note_off_c, 0, 62, 112
1, 23126, Note_on_c, 0, 65, 121
1, 23185, Note_off_c, 0, 65, 121
1, 23206, Note_on_c, 0, 61, 112
1, 23299, Note_off_c, 0, 61, 112
1, 23332, Note_on_c, 0, 57, 92
1, 23395, Note_off_c, 0, 57, 92
1, 23408, Note_on_c, 0, 60, 111
1, 23577, Note_off_c, 0, 60, 111
1, 24473, Note_on_c, 0, 68, 117
1, 24819, Note_off_c, 0, 68, 117
1, 24850, Note_on_c, 0, 65, 114
1, 25228, Note_off_c, 0, 65, 114
1, 25274, Note_on_c, 0, 62, 109
1, 25538, Note_off_c, 0, 62, 109
1, 26431, Note_on_c, 0, 61, 121
1, 26499, Note_off_c, 0, 61, 121
1, 26512, Note_on_c, 0, 62, 111
1, 26624, Note_off_c, 0, 62, 111
1, 26643, Note_on_c, 0, 58, 119
1, 26712, Note_off_c, 0, 58, 119
1, 26722, Note_on_c, 0, 57, 91
1, 26844, Note_off_c, 0, 57, 91
1, 26855, Note_on_c, 0, 56, 115
1, 26923, Note_off_c, 0, 56, 115
1, 27271, Note_on_c, 0, 53, 103
1, 27411, Note_off_c, 0, 53, 103
1, 27478, Note_on_c, 0, 52, 114
1, 27561, Note_off_c, 0, 52, 114
1, 27612, Note_on_c, 0, 60, 107
1, 27812, Note_off_c, 0, 60, 107
1, 27886, Note_on_c, 0, 58, 107
1, 27973, Note_off_c, 0, 58, 107
1, 28000, Note_on_c, 0, 56, 117
1, 28064, Note_off_c, 0, 56, 117
1, 28072, Note_on_c, 0, 57, 110
1, 28249, Note_off_c, 0, 57, 110
1, 28456, Note_on_c, 0, 57, 113
1, 28622, Note_off_c, 0, 57, 113
1, 29618, Note_on_c, 0, 72, 119
1, 29733, Note_off_c, 0, 72, 119
1, 29809, Note_on_c, 0, 70, 127
1, 29942, Note_off_c, 0, 70, 127
1, 29953, Note_on_c, 0, 69, 120
1, 30139, Note_off_c, 0, 69, 120
1, 30321, Note_on_c, 0, 72, 117
1, 30432, Note_off_c, 0, 72, 117
1, 30495, Note_on_c, 0, 70, 123
1, 30584, Note_off_c, 0, 70, 123
1, 30596, Note_on_c, 0, 68, 122
1, 30749, Note_off_c, 0, 68, 122
1, 31466, Note_on_c, 0, 63, 106
1, 31484, Note_off_c, 0, 63, 106
1, 31545, Note_on_c, 0, 72, 118
1, 31630, Note_off_c, 0, 72, 118
1, 31643, Note_on_c, 0, 71, 120
1, 31723, Note_off_c, 0, 71, 120
1, 31739, Note_on_c, 0, 70, 121
1, 31843, Note_off_c, 0, 70, 121
1, 31857, Note_on_c, 0, 69, 119
1, 32102, Note_off_c, 0, 69, 119
1, 32121, Note_on_c, 0, 67, 110
1, 32248, Note_off_c, 0, 67, 110
1, 32255, Note_on_c, 0, 65, 118
1, 32390, Note_off_c, 0, 65, 118
1, 32419, Note_on_c, 0, 63, 110
1, 32514, Note_off_c, 0, 63, 110
1, 32525, Note_on_c, 0, 62, 107
1, 32609, Note_off_c, 0, 62, 107
1, 32626, Note_on_c, 0, 60, 112
1, 32698, Note_off_c, 0, 60, 112
1, 32708, Note_on_c, 0, 58, 110
1, 32857, Note_off_c, 0, 58, 110
1, 32923, Note_on_c, 0, 53, 90
1, 32999, Note_off_c, 0, 53, 90
1, 33007, Note_on_c, 0, 56, 107
1, 33253, Note_off_c, 0, 56, 107
1, 33309, Note_on_c, 0, 55, 108
1, 33391, Note_off_c, 0, 55, 108
1, 33402, Note_on_c, 0, 53, 110
1, 33466, Note_off_c, 0, 53, 110
1, 33628, Note_on_c, 0, 64, 115
1, 34107, Note_off_c, 0, 64, 115
1, 34123, Note_on_c, 0, 67, 109
1, 34207, Note_off_c, 0, 67, 109
1, 34216, Note_on_c, 0, 64, 113
1, 34261, Note_off_c, 0, 64, 113
1, 34267, Note_on_c, 0, 65, 111
1, 34337, Note_off_c, 0, 65, 111
1, 34340, Note_on_c, 0, 69, 112
1, 34382, Note_off_c, 0, 69, 112
1, 34396, Note_on_c, 0, 65, 116
1, 34442, Note_off_c, 0, 65, 116
1, 34464, Note_on_c, 0, 60, 115
1, 34607, Note_off_c, 0, 60, 115
1, 34622, Note_on_c, 0, 58, 103
1, 34890, Note_off_c, 0, 58, 103
1, 36043, Note_on_c, 0, 72, 120
1, 36127, Note_off_c, 0, 72, 120
1, 36143, Note_on_c, 0, 71, 112
1, 36214, Note_off_c, 0, 71, 112
1, 36227, Note_on_c, 0, 70, 114
1, 36298, Note_off_c, 0, 70, 114
1, 36404, Note_on_c, 0, 60, 106
1, 36466, Note_off_c, 0, 60, 106
1, 36482, Note_on_c, 0, 65, 119
1, 36600, Note_off_c, 0, 65, 119
1, 36613, Note_on_c, 0, 69, 108
1, 36782, Note_off_c, 0, 69, 108
1, 36798, Note_on_c, 0, 65, 117
1, 36897, Note_off_c, 0, 65, 117
1, 36898, Note_on_c, 0, 64, 113
1, 36977, Note_off_c, 0, 64, 113
1, 37011, Note_on_c, 0, 62, 115
1, 37060, Note_off_c, 0, 62, 115
1, 37071, Note_on_c, 0, 61, 101
1, 37149, Note_off_c, 0, 61, 101
1, 37187, Note_on_c, 0, 58, 111
1, 37257, Note_off_c, 0, 58, 111
1, 37264, Note_on_c, 0, 57, 103
1, 37393, Note_off_c, 0, 57, 103
1, 37465, Note_on_c, 0, 58, 112
1, 37544, Note_off_c, 0, 58, 112
1, 37560, Note_on_c, 0, 60, 112
1, 37664, Note_off_c, 0, 60, 112
1, 37742, Note_on_c, 0, 58, 106
1, 37816, Note_off_c, 0, 58, 106
1, 37837, Note_on_c, 0, 60, 110
1, 38000, Note_off_c, 0, 60, 110
1, 38016, Note_on_c, 0, 58, 107
1, 38108, Note_off_c, 0, 58, 107
1, 38764, Note_on_c, 0, 65, 122
1, 39082, Note_off_c, 0, 65, 122
1, 39099, Note_on_c, 0, 65, 123
1, 39169, Note_off_c, 0, 65, 123
1, 39190, Note_on_c, 0, 68, 119
1, 39235, Note_off_c, 0, 68, 119
1, 39242, Note_on_c, 0, 67, 114
1, 39331, Note_off_c, 0, 67, 114
1, 39357, Note_on_c, 0, 65, 114
1, 39460, Note_off_c, 0, 65, 114
1, 39511, Note_on_c, 0, 62, 112
1, 39567, Note_off_c, 0, 62, 112
1, 39575, Note_on_c, 0, 65, 99
1, 39667, Note_off_c, 0, 65, 99
1, 39672, Note_on_c, 0, 58, 118
1, 39744, Note_off_c, 0, 58, 118
1, 39940, Note_on_c, 0, 57, 115
1, 40033, Note_off_c, 0, 57, 115
1, 40076, Note_on_c, 0, 60, 115
1, 40125, Note_off_c, 0, 60, 115
1, 40134, Note_on_c, 0, 56, 101
1, 40232, Note_off_c, 0, 56, 101
1, 40330, Note_on_c, 0, 55, 111
1, 40444, Note_off_c, 0, 55, 111
1, 40550, Note_on_c, 0, 53, 105
1, 40606, Note_off_c, 0, 53, 105
1, 40614, Note_on_c, 0, 55, 101
1, 40653, Note_off_c, 0, 55, 101
1, 40660, Note_on_c, 0, 53, 110
1, 40712, Note_off_c, 0, 53, 110
1, 40944, Note_on_c, 0, 58, 111
1, 40993, Note_off_c, 0, 58, 111
1, 41029, Note_on_c, 0, 62, 115
1, 41191, Note_off_c, 0, 62, 115
1, 41209, Note_on_c, 0, 65, 119
1, 41269, Note_off_c, 0, 65, 119
1, 41281, Note_on_c, 0, 61, 111
1, 41436, Note_off_c, 0, 61, 111
1, 42155, Note_on_c, 0, 68, 87
1, 42183, Note_off_c, 0, 68, 87
1, 42212, Note_on_c, 0, 70, 117
1, 42338, Note_off_c, 0, 70, 117
1, 42443, Note_on_c, 0, 67, 118
1, 42548, Note_off_c, 0, 67, 118
1, 42560, Note_on_c, 0, 68, 119
1, 42742, Note_off_c, 0, 68, 119
1, 42787, Note_on_c, 0, 62, 9
1, 42980, Note_off_c, 0, 62, 9
1, 43767, Note_on_c, 0, 72, 122
1, 43893, Note_off_c, 0, 72, 122
1, 43964, Note_on_c, 0, 70, 124
1, 44090, Note_off_c, 0, 70, 124
1, 44103, Note_on_c, 0, 69, 123
1, 44239, Note_off_c, 0, 69, 123
1, 44257, Note_on_c, 0, 67, 115
1, 44347, Note_off_c, 0, 67, 115
1, 44362, Note_on_c, 0, 66, 120
1, 44489, Note_off_c, 0, 66, 120
1, 44574, Note_on_c, 0, 63, 103
1, 44648, Note_off_c, 0, 63, 103
1, 44687, Note_on_c, 0, 65, 119
1, 44782, Note_off_c, 0, 65, 119
1, 44794, Note_on_c, 0, 62, 114
1, 44901, Note_off_c, 0, 62, 114
1, 44910, Note_on_c, 0, 60, 102
1, 44978, Note_off_c, 0, 60, 102
1, 45003, Note_on_c, 0, 58, 108
1, 45104, Note_off_c, 0, 58, 108
1, 45300, Note_on_c, 0, 57, 116
1, 45360, Note_off_c, 0, 57, 116
1, 45369, Note_on_c, 0, 58, 111
1, 45515, Note_off_c, 0, 58, 111
1, 45526, Note_on_c, 0, 60, 113
1, 45615, Note_off_c, 0, 60, 113
1, 45627, Note_on_c, 0, 55, 111
1, 45723, Note_off_c, 0, 55, 111
1, 45892, Note_on_c, 0, 55, 105
1, 46054, Note_off_c, 0, 55, 105
1, 46285, Note_on_c, 0, 60, 112
1, 46381, Note_off_c, 0, 60, 112
1, 46465, Note_on_c, 0, 64, 120
1, 46610, Note_off_c, 0, 64, 120
1, 46615, Note_on_c, 0, 65, 115
1, 46719, Note_off_c, 0, 65, 115
1, 46788, Note_on_c, 0, 64, 121
1, 46875, Note_off_c, 0, 64, 121
1, 46882, Note_on_c, 0, 65, 119
1, 46998, Note_off_c, 0, 65, 119
1, 47113, Note_on_c, 0, 59, 107
1, 47194, Note_off_c, 0, 59, 107
1, 47194, Note_on_c, 0, 60, 109
1, 47284, Note_off_c, 0, 60, 109
1, 47378, Note_on_c, 0, 56, 109
1, 47457, Note_off_c, 0, 56, 109
1, 47469, Note_on_c, 0, 57, 112
1, 47553, Note_off_c, 0, 57, 112
1, 47836, Note_on_c, 0, 56, 113
1, 47916, Note_off_c, 0, 56, 113
1, 47923, Note_on_c, 0, 57, 105
1, 48019, Note_off_c, 0, 57, 105
1, 48033, Note_on_c, 0, 53, 103
1, 48109, Note_off_c, 0, 53, 103
1, 48109, End_track
0, 0, End_of_file
