0, 0, Header, 1, 1, 192
1, 0, Start_track
1, 0, Title_t, "Melody"
1, 0, Tempo, 389610
1, 0, Key_signature, -4, "major"
1, 0, Time_signature, 4, 2, 24, 8
1, 1082, Note_on_c, 0, 64, 108
1, 1102, Note_off_c, 0, 64, 108
1, 1119, Note_on_c, 0, 63, 106
1, 1184, Note_off_c, 0, 63, 106
1, 1206, Note_on_c, 0, 65, 114
1, 1271, Note_off_c, 0, 65, 114
1, 1289, Note_on_c, 0, 67, 117
1, 1357, Note_off_c, 0, 67, 117
1, 1388, Note_on_c, 0, 68, 114
1, 1449, Note_off_c, 0, 68, 114
1, 1466, Note_on_c, 0, 70, 114
1, 1548, Note_off_c, 0, 70, 114
1, 1576, Note_on_c, 0, 72, 121
1, 1650, Note_off_c, 0, 72, 121
1, 1664, Note_on_c, 0, 73, 125
1, 1755, Note_off_c, 0, 73, 125
1, 1789, Note_on_c, 0, 71, 111
1, 1859, Note_off_c, 0, 71, 111
1, 1864, Note_on_c, 0, 72, 109
1, 2041, Note_off_c, 0, 72, 109
1, 2062, Note_on_c, 0, 70, 108
1, 2136, Note_off_c, 0, 70, 108
1, 2157, Note_on_c, 0, 68, 116
1, 2229, Note_off_c, 0, 68, 116
1, 2253, Note_on_c, 0, 67, 108
1, 2333, Note_off_c, 0, 67, 108
1, 2365, Note_on_c, 0, 65, 109
1, 2446, Note_off_c, 0, 65, 109
1, 2477, Note_on_c, 0, 64, 95
1, 2635, Note_off_c, 0, 64, 95
1, 2687, Note_on_c, 0, 67, 114
1, 2778, Note_off_c, 0, 67, 114
1, 2809, Note_on_c, 0, 63, 104
1, 2863, Note_off_c, 0, 63, 104
1, 2874, Note_on_c, 0, 67, 111
1, 2995, Note_off_c, 0, 67, 111
1, 3022, Note_on_c, 0, 65, 114
1, 3112, Note_off_c, 0, 65, 114
1, 3200, Note_on_c, 0, 60, 99
1, 3234, Note_off_c, 0, 60, 99
1, 3283, Note_on_c, 0, 63, 105
1, 3320, Note_off_c, 0, 63, 105
1, 3328, Note_on_c, 0, 65, 106
1, 3352, Note_off_c, 0, 65, 106
1, 3365, Note_on_c, 0, 63, 104
1, 3392, Note_off_c, 0, 63, 104
1, 3420, Note_on_c, 0, 60, 101
1, 3476, Note_off_c, 0, 60, 101
1, 3519, Note_on_c, 0, 61, 108
1, 3595, Note_off_c, 0, 61, 108
1, 3633, Note_on_c, 0, 63, 109
1, 3662, Note_off_c, 0, 63, 109
1, 3681, Note_on_c, 0, 65, 111
1, 3728, Note_off_c, 0, 65, 111
1, 3738, Note_on_c, 0, 68, 114
1, 3787, Note_off_c, 0, 68, 114
1, 3803, Note_on_c, 0, 72, 121
1, 3874, Note_off_c, 0, 72, 121
1, 3913, Note_on_c, 0, 75, 124
1, 3993, Note_off_c, 0, 75, 124
1, 4006, Note_on_c, 0, 74, 119
1, 4093, Note_off_c, 0, 74, 119
1, 4107, Note_on_c, 0, 73, 118
1, 4211, Note_off_c, 0, 73, 118
1, 4222, Note_on_c, 0, 72, 115
1, 4276, Note_off_c, 0, 72, 115
1, 4319, Note_on_c, 0, 70, 111
1, 4392, Note_off_c, 0, 70, 111
1, 4416, Note_on_c, 0, 69, 118
1, 4481, Note_off_c, 0, 69, 118
1, 4515, Note_on_c, 0, 68, 112
1, 4537, Note_off_c, 0, 68, 112
1, 4545, Note_on_c, 0, 69, 102
1, 4559, Note_off_c, 0, 69, 102
1, 4569, Note_on_c, 0, 68, 111
1, 4595, Note_off_c, 0, 68, 111
1, 4606, Note_on_c, 0, 67, 111
1, 4673, Note_off_c, 0, 67, 111
1, 4721, Note_on_c, 0, 66, 109
1, 4781, Note_off_c, 0, 66, 109
1, 4817, Note_on_c, 0, 65, 110
1, 4883, Note_off_c, 0, 65, 110
1, 4908, Note_on_c, 0, 64, 102
1, 4984, Note_off_c, 0, 64, 102
1, 5010, Note_on_c, 0, 60, 103
1, 5074, Note_off_c, 0, 60, 103
1, 5093, Note_on_c, 0, 63, 100
1, 5202, Note_off_c, 0, 63, 100
1, 5214, Note_on_c, 0, 60, 85
1, 5374, Note_off_c, 0, 60, 85
1, 6003, Note_on_c, 0, 80, 117
1, 6087, Note_off_c, 0, 80, 117
1, 6121, Note_on_c, 0, 77, 124
1, 6190, Note_off_c, 0, 77, 124
1, 6203, Note_on_c, 0, 75, 121
1, 6272, Note_off_c, 0, 75, 121
1, 6291, Note_on_c, 0, 73, 123
1, 6368, Note_off_c, 0, 73, 123
1, 6383, Note_on_c, 0, 72, 123
1, 6465, Note_off_c, 0, 72, 123
1, 6504, Note_on_c, 0, 70, 121
1, 6592, Note_off_c, 0, 70, 121
1, 6618, Note_on_c, 0, 68, 115
1, 6655, Note_off_c, 0, 68, 115
1, 6660, Note_on_c, 0, 67, 114
1, 6694, Note_off_c, 0, 67, 114
1, 6702, Note_on_c, 0, 68, 119
1, 6882, Note_off_c, 0, 68, 119
1, 6927, Note_on_c, 0, 67, 116
1, 6993, Note_off_c, 0, 67, 116
1, 7023, Note_on_c, 0, 65, 101
1, 7089, Note_off_c, 0, 65, 101
1, 7109, Note_on_c, 0, 70, 114
1, 7205, Note_off_c, 0, 70, 114
1, 7499, Note_on_c, 0, 67, 105
1, 7532, Note_off_c, 0, 67, 105
1, 7541, Note_on_c, 0, 67, 100
1, 7566, Note_off_c, 0, 67, 100
1, 7590, Note_on_c, 0, 67, 108
1, 7616, Note_off_c, 0, 67, 108
1, 7638, Note_on_c, 0, 67, 110
1, 7670, Note_off_c, 0, 67, 110
1, 7702, Note_on_c, 0, 64, 101
1, 7740, Note_off_c, 0, 64, 101
1, 7790, Note_on_c, 0, 67, 92
1, 7834, Note_off_c, 0, 67, 92
1, 7906, Note_on_c, 0, 69, 99
1, 7943, Note_off_c, 0, 69, 99
1, 8008, Note_on_c, 0, 67, 108
1, 8044, Note_off_c, 0, 67, 108
1, 8127, Note_on_c, 0, 64, 116
1, 8227, Note_off_c, 0, 64, 116
1, 8273, Note_on_c, 0, 64, 114
1, 8387, Note_off_c, 0, 64, 114
1, 8406, Note_on_c, 0, 62, 104
1, 8497, Note_off_c, 0, 62, 104
1, 9205, Note_on_c, 0, 67, 104
1, 9237, Note_off_c, 0, 67, 104
1, 9247, Note_on_c, 0, 69, 116
1, 9284, Note_off_c, 0, 69, 116
1, 9299, Note_on_c, 0, 71, 108
1, 9344, Note_off_c, 0, 71, 108
1, 9356, Note_on_c, 0, 72, 107
1, 9386, Note_off_c, 0, 72, 107
1, 9408, Note_on_c, 0, 74, 115
1, 9449, Note_off_c, 0, 74, 115
1, 9477, Note_on_c, 0, 71, 102
1, 9516, Note_off_c, 0, 71, 102
1, 9525, Note_on_c, 0, 72, 105
1, 9552, Note_off_c, 0, 72, 105
1, 9558, Note_on_c, 0, 74, 111
1, 9588, Note_off_c, 0, 74, 111
1, 9606, Note_on_c, 0, 75, 112
1, 9648, Note_off_c, 0, 75, 112
1, 9667, Note_on_c, 0, 71, 100
1, 9704, Note_off_c, 0, 71, 100
1, 9710, Note_on_c, 0, 73, 111
1, 9745, Note_off_c, 0, 73, 111
1, 9755, Note_on_c, 0, 72, 104
1, 9787, Note_off_c, 0, 72, 104
1, 9804, Note_on_c, 0, 72, 108
1, 9839, Note_off_c, 0, 72, 108
1, 9854, Note_on_c, 0, 66, 106
1, 9895, Note_off_c, 0, 66, 106
1, 9902, Note_on_c, 0, 65, 101
1, 9941, Note_off_c, 0, 65, 101
1, 9949, Note_on_c, 0, 63, 97
1, 9972, Note_off_c, 0, 63, 97
1, 10021, Note_on_c, 0, 67, 118
1, 10064, Note_off_c, 0, 67, 118
1, 10413, Note_on_c, 0, 72, 119
1, 10446, Note_off_c, 0, 72, 119
1, 10451, Note_on_c, 0, 73, 112
1, 10493, Note_off_c, 0, 73, 112
1, 10498, Note_on_c, 0, 74, 110
1, 10539, Note_off_c, 0, 74, 110
1, 10549, Note_on_c, 0, 77, 112
1, 10604, Note_off_c, 0, 77, 112
1, 10607, Note_on_c, 0, 74, 119
1, 10647, Note_off_c, 0, 74, 119
1, 10652, Note_on_c, 0, 73, 114
1, 10684, Note_off_c, 0, 73, 114
1, 10691, Note_on_c, 0, 72, 104
1, 10727, Note_off_c, 0, 72, 104
1, 10744, Note_on_c, 0, 75, 112
1, 10773, Note_off_c, 0, 75, 112
1, 10788, Note_on_c, 0, 71, 110
1, 10834, Note_off_c, 0, 71, 110
1, 10840, Note_on_c, 0, 70, 103
1, 10878, Note_off_c, 0, 70, 103
1, 10890, Note_on_c, 0, 66, 107
1, 10932, Note_off_c, 0, 66, 107
1, 10936, Note_on_c, 0, 74, 107
1, 10972, Note_off_c, 0, 74, 107
1, 10986, Note_on_c, 0, 70, 114
1, 11022, Note_off_c, 0, 70, 114
1, 11034, Note_on_c, 0, 69, 110
1, 11072, Note_off_c, 0, 69, 110
1, 11079, Note_on_c, 0, 68, 104
1, 11133, Note_off_c, 0, 68, 104
1, 11136, Note_on_c, 0, 72, 101
1, 11167, Note_off_c, 0, 72, 101
1, 11177, Note_on_c, 0, 68, 113
1, 11216, Note_off_c, 0, 68, 113
1, 11226, Note_on_c, 0, 67, 104
1, 11273, Note_off_c, 0, 67, 104
1, 11278, Note_on_c, 0, 65, 104
1, 11315, Note_off_c, 0, 65, 104
1, 11317, Note_on_c, 0, 70, 113
1, 11354, Note_off_c, 0, 70, 113
1, 11365, Note_on_c, 0, 69, 115
1, 11413, Note_off_c, 0, 69, 115
1, 11426, Note_on_c, 0, 68, 114
1, 11464, Note_off_c, 0, 68, 114
1, 11474, Note_on_c, 0, 67, 113
1, 11513, Note_off_c, 0, 67, 113
1, 11524, Note_on_c, 0, 65, 109
1, 11568, Note_off_c, 0, 65, 109
1, 11573, Note_on_c, 0, 63, 101
1, 11632, Note_off_c, 0, 63, 101
1, 11632, Note_on_c, 0, 66, 96
1, 11668, Note_off_c, 0, 66, 96
1, 11675, Note_on_c, 0, 65, 106
1, 11727, Note_off_c, 0, 65, 106
1, 11735, Note_on_c, 0, 68, 111
1, 11767, Note_off_c, 0, 68, 111
1, 11777, Note_on_c, 0, 71, 122
1, 11817, Note_off_c, 0, 71, 122
1, 11826, Note_on_c, 0, 70, 113
1, 11856, Note_off_c, 0, 70, 113
1, 11868, Note_on_c, 0, 68, 114
1, 11909, Note_off_c, 0, 68, 114
1, 11914, Note_on_c, 0, 67, 109
1, 11954, Note_off_c, 0, 67, 109
1, 11989, Note_on_c, 0, 65, 100
1, 12010, Note_off_c, 0, 65, 100
1, 12015, Note_on_c, 0, 64, 96
1, 12073, Note_off_c, 0, 64, 96
1, 12081, Note_on_c, 0, 63, 109
1, 12161, Note_off_c, 0, 63, 109
1, 12178, Note_on_c, 0, 65, 102
1, 12202, Note_off_c, 0, 65, 102
1, 12208, Note_on_c, 0, 66, 100
1, 12238, Note_off_c, 0, 66, 100
1, 12255, Note_on_c, 0, 68, 101
1, 12307, Note_off_c, 0, 68, 101
1, 12332, Note_on_c, 0, 70, 108
1, 12358, Note_off_c, 0, 70, 108
1, 12381, Note_on_c, 0, 67, 105
1, 12428, Note_off_c, 0, 67, 105
1, 12454, Note_on_c, 0, 70, 107
1, 12493, Note_off_c, 0, 70, 107
1, 12510, Note_on_c, 0, 71, 108
1, 12539, Note_off_c, 0, 71, 108
1, 12546, Note_on_c, 0, 72, 113
1, 12581, Note_off_c, 0, 72, 113
1, 12589, Note_on_c, 0, 74, 89
1, 12617, Note_off_c, 0, 74, 89
1, 12624, Note_on_c, 0, 77, 126
1, 12658, Note_off_c, 0, 77, 126
1, 12662, Note_on_c, 0, 76, 125
1, 12719, Note_off_c, 0, 76, 125
1, 12729, Note_on_c, 0, 75, 108
1, 12757, Note_off_c, 0, 75, 108
1, 12767, Note_on_c, 0, 72, 118
1, 12835, Note_off_c, 0, 72, 118
1, 12955, Note_on_c, 0, 77, 127
1, 13011, Note_off_c, 0, 77, 127
1, 13048, Note_on_c, 0, 76, 126
1, 13113, Note_off_c, 0, 76, 126
1, 13131, Note_on_c, 0, 75, 123
1, 13206, Note_off_c, 0, 75, 123
1, 13214, Note_on_c, 0, 77, 123
1, 13293, Note_off_c, 0, 77, 123
1, 13308, Note_on_c, 0, 74, 116
1, 13569, Note_off_c, 0, 74, 116
1, 13588, Note_on_c, 0, 72, 115
1, 13663, Note_off_c, 0, 72, 115
1, 13695, Note_on_c, 0, 71, 115
1, 13773, Note_off_c, 0, 71, 115
1, 14007, Note_on_c, 0, 62, 99
1, 14055, Note_off_c, 0, 62, 99
1, 14104, Note_on_c, 0, 64, 102
1, 14345, Note_off_c, 0, 64, 102
1, 15189, Note_on_c, 0, 74, 113
1, 15329, Note_off_c, 0, 74, 113
1, 15347, Note_on_c, 0, 76, 104
1, 15392, Note_off_c, 0, 76, 104
1, 15402, Note_on_c, 0, 74, 115
1, 15495, Note_off_c, 0, 74, 115
1, 15575, Note_on_c, 0, 62, 106
1, 15626, Note_off_c, 0, 62, 106
1, 15648, Note_on_c, 0, 62, 98
1, 15695, Note_off_c, 0, 62, 98
1, 15726, Note_on_c, 0, 62, 104
1, 15984, Note_off_c, 0, 62, 104
1, 16043, Note_on_c, 0, 63, 116
1, 16155, Note_off_c, 0, 63, 116
1, 16177, Note_on_c, 0, 70, 110
1, 16244, Note_off_c, 0, 70, 110
1, 16246, Note_on_c, 0, 72, 117
1, 16398, Note_off_c, 0, 72, 117
1, 16405, Note_on_c, 0, 71, 117
1, 16541, Note_off_c, 0, 71, 117
1, 16549, Note_on_c, 0, 71, 107
1, 16625, Note_off_c, 0, 71, 107
1, 16723, Note_on_c, 0, 69, 117
1, 16795, Note_off_c, 0, 69, 117
1, 16821, Note_on_c, 0, 71, 114
1, 16928, Note_off_c, 0, 71, 114
1, 17088, Note_on_c, 0, 67, 113
1, 17175, Note_off_c, 0, 67, 113
1, 17205, Note_on_c, 0, 65, 105
1, 17275, Note_off_c, 0, 65, 105
1, 17277, Note_on_c, 0, 66, 100
1, 17352, Note_off_c, 0, 66, 100
1, 17372, Note_on_c, 0, 61, 105
1, 17475, Note_off_c, 0, 61, 105
1, 17497, Note_on_c, 0, 64, 104
1, 17724, Note_off_c, 0, 64, 104
1, 17732, Note_on_c, 0, 64, 104
1, 17777, Note_off_c, 0, 64, 104
1, 17886, Note_on_c, 0, 68, 115
1, 17928, Note_off_c, 0, 68, 115
1, 17932, Note_on_c, 0, 67, 106
1, 17966, Note_off_c, 0, 67, 106
1, 17976, Note_on_c, 0, 66, 104
1, 18035, Note_off_c, 0, 66, 104
1, 18069, Note_on_c, 0, 68, 111
1, 18135, Note_off_c, 0, 68, 111
1, 18164, Note_on_c, 0, 69, 112
1, 18234, Note_off_c, 0, 69, 112
1, 18259, Note_on_c, 0, 71, 119
1, 18335, Note_off_c, 0, 71, 119
1, 18370, Note_on_c, 0, 73, 120
1, 18450, Note_off_c, 0, 73, 120
1, 18455, Note_on_c, 0, 76, 116
1, 18542, Note_off_c, 0, 76, 116
1, 18552, Note_on_c, 0, 75, 117
1, 18633, Note_off_c, 0, 75, 117
1, 18650, Note_on_c, 0, 73, 117
1, 18724, Note_off_c, 0, 73, 117
1, 18752, Note_on_c, 0, 71, 103
1, 18822, Note_off_c, 0, 71, 103
1, 18842, Note_on_c, 0, 70, 111
1, 18910, Note_off_c, 0, 70, 111
1, 18943, Note_on_c, 0, 69, 111
1, 19012, Note_off_c, 0, 69, 111
1, 19035, Note_on_c, 0, 69, 99
1, 19086, Note_off_c, 0, 69, 99
1, 19117, Note_on_c, 0, 68, 110
1, 19182, Note_off_c, 0, 68, 110
1, 19214, Note_on_c, 0, 66, 107
1, 19267, Note_off_c, 0, 66, 107
1, 19295, Note_on_c, 0, 64, 104
1, 19410, Note_off_c, 0, 64, 104
1, 19418, Note_on_c, 0, 63, 97
1, 19576, Note_off_c, 0, 63, 97
1, 19671, Note_on_c, 0, 71, 115
1, 19754, Note_off_c, 0, 71, 115
1, 19775, Note_on_c, 0, 69, 115
1, 19852, Note_off_c, 0, 69, 115
1, 19872, Note_on_c, 0, 68, 113
1, 19957, Note_off_c, 0, 68, 113
1, 20067, Note_on_c, 0, 63, 98
1, 20089, Note_off_c, 0, 63, 98
1, 20105, Note_on_c, 0, 60, 96
1, 20194, Note_off_c, 0, 60, 96
1, 20203, Note_on_c, 0, 61, 98
1, 20438, Note_off_c, 0, 61, 98
1, 21619, Note_on_c, 0, 79, 124
1, 21737, Note_off_c, 0, 79, 124
1, 21771, Note_on_c, 0, 77, 123
1, 21883, Note_off_c, 0, 77, 123
1, 21929, Note_on_c, 0, 72, 115
1, 22006, Note_off_c, 0, 72, 115
1, 22043, Note_on_c, 0, 75, 120
1, 22118, Note_off_c, 0, 75, 120
1, 22137, Note_on_c, 0, 72, 117
1, 22209, Note_off_c, 0, 72, 117
1, 22240, Note_on_c, 0, 73, 120
1, 22312, Note_off_c, 0, 73, 120
1, 22329, Note_on_c, 0, 75, 121
1, 22399, Note_off_c, 0, 75, 121
1, 22423, Note_on_c, 0, 77, 121
1, 22505, Note_off_c, 0, 77, 121
1, 22515, Note_on_c, 0, 80, 123
1, 22602, Note_off_c, 0, 80, 123
1, 22629, Note_on_c, 0, 79, 118
1, 22711, Note_off_c, 0, 79, 118
1, 22722, Note_on_c, 0, 77, 122
1, 22800, Note_off_c, 0, 77, 122
1, 22819, Note_on_c, 0, 75, 113
1, 22896, Note_off_c, 0, 75, 113
1, 22909, Note_on_c, 0, 74, 117
1, 22999, Note_off_c, 0, 74, 117
1, 23018, Note_on_c, 0, 73, 115
1, 23091, Note_off_c, 0, 73, 115
1, 23118, Note_on_c, 0, 72, 109
1, 23183, Note_off_c, 0, 72, 109
1, 23226, Note_on_c, 0, 71, 105
1, 23302, Note_off_c, 0, 71, 105
1, 23327, Note_on_c, 0, 67, 109
1, 23372, Note_off_c, 0, 67, 109
1, 23415, Note_on_c, 0, 66, 97
1, 23495, Note_off_c, 0, 66, 97
1, 23530, Note_on_c, 0, 66, 100
1, 23584, Note_off_c, 0, 66, 100
1, 23605, Note_on_c, 0, 64, 99
1, 23710, Note_off_c, 0, 64, 99
1, 23777, Note_on_c, 0, 63, 99
1, 23900, Note_off_c, 0, 63, 99
1, 23930, Note_on_c, 0, 60, 81
1, 24135, Note_off_c, 0, 60, 81
1, 24506, Note_on_c, 0, 70, 112
1, 24580, Note_off_c, 0, 70, 112
1, 24602, Note_on_c, 0, 68, 102
1, 24686, Note_off_c, 0, 68, 102
1, 24695, Note_on_c, 0, 69, 106
1, 24730, Note_off_c, 0, 69, 106
1, 24742, Note_on_c, 0, 68, 101
1, 24784, Note_off_c, 0, 68, 101
1, 24804, Note_on_c, 0, 65, 99
1, 24893, Note_off_c, 0, 65, 99
1, 24911, Note_on_c, 0, 70, 115
1, 24977, Note_off_c, 0, 70, 115
1, 25011, Note_on_c, 0, 68, 100
1, 25094, Note_off_c, 0, 68, 100
1, 25105, Note_on_c, 0, 70, 109
1, 25140, Note_off_c, 0, 70, 109
1, 25152, Note_on_c, 0, 68, 107
1, 25183, Note_off_c, 0, 68, 107
1, 25210, Note_on_c, 0, 65, 97
1, 25282, Note_off_c, 0, 65, 97
1, 25287, Note_on_c, 0, 70, 113
1, 25354, Note_off_c, 0, 70, 113
1, 25369, Note_on_c, 0, 68, 104
1, 25460, Note_off_c, 0, 68, 104
1, 25465, Note_on_c, 0, 70, 83
1, 25492, Note_off_c, 0, 70, 83
1, 25514, Note_on_c, 0, 68, 109
1, 25545, Note_off_c, 0, 68, 109
1, 25555, Note_on_c, 0, 64, 103
1, 25657, Note_off_c, 0, 64, 103
1, 25692, Note_on_c, 0, 71, 117
1, 25825, Note_off_c, 0, 71, 117
1, 26108, Note_on_c, 0, 70, 120
1, 26179, Note_off_c, 0, 70, 120
1, 26206, Note_on_c, 0, 67, 107
1, 26269, Note_off_c, 0, 67, 107
1, 26291, Note_on_c, 0, 68, 107
1, 26323, Note_off_c, 0, 68, 107
1, 26330, Note_on_c, 0, 67, 107
1, 26362, Note_off_c, 0, 67, 107
1, 26381, Note_on_c, 0, 63, 103
1, 26456, Note_off_c, 0, 63, 103
1, 26478, Note_on_c, 0, 70, 115
1, 26565, Note_off_c, 0, 70, 115
1, 26586, Note_on_c, 0, 67, 110
1, 26669, Note_off_c, 0, 67, 110
1, 26681, Note_on_c, 0, 67, 109
1, 26746, Note_off_c, 0, 67, 109
1, 26768, Note_on_c, 0, 63, 103
1, 26845, Note_off_c, 0, 63, 103
1, 26883, Note_on_c, 0, 73, 117
1, 27133, Note_off_c, 0, 73, 117
1, 27162, Note_on_c, 0, 71, 109
1, 27253, Note_off_c, 0, 71, 109
1, 27280, Note_on_c, 0, 66, 100
1, 27390, Note_off_c, 0, 66, 100
1, 27664, Note_on_c, 0, 70, 116
1, 27741, Note_off_c, 0, 70, 116
1, 27748, Note_on_c, 0, 68, 107
1, 27830, Note_off_c, 0, 68, 107
1, 27837, Note_on_c, 0, 70, 114
1, 27884, Note_off_c, 0, 70, 114
1, 27889, Note_on_c, 0, 67, 101
1, 27925, Note_off_c, 0, 67, 101
1, 27931, Note_on_c, 0, 65, 101
1, 28032, Note_off_c, 0, 65, 101
1, 28034, Note_on_c, 0, 70, 116
1, 28107, Note_off_c, 0, 70, 116
1, 28134, Note_on_c, 0, 68, 115
1, 28199, Note_off_c, 0, 68, 115
1, 28226, Note_on_c, 0, 70, 113
1, 28256, Note_off_c, 0, 70, 113
1, 28264, Note_on_c, 0, 68, 101
1, 28301, Note_off_c, 0, 68, 101
1, 28333, Note_on_c, 0, 65, 98
1, 28405, Note_off_c, 0, 65, 98
1, 28430, Note_on_c, 0, 68, 114
1, 28499, Note_off_c, 0, 68, 114
1, 28529, Note_on_c, 0, 71, 10
1, 28614, Note_off_c, 0, 71, 10
1, 28620, Note_on_c, 0, 72, 116
1, 28694, Note_off_c, 0, 72, 116
1, 28730, Note_on_c, 0, 73, 117
1, 28808, Note_off_c, 0, 73, 117
1, 28823, Note_on_c, 0, 74, 118
1, 28912, Note_off_c, 0, 74, 118
1, 28924, Note_on_c, 0, 75, 117
1, 29021, Note_off_c, 0, 75, 117
1, 29031, Note_on_c, 0, 71, 109
1, 29091, Note_off_c, 0, 71, 109
1, 29091, Note_on_c, 0, 72, 111
1, 29141, Note_off_c, 0, 72, 111
1, 29217, Note_on_c, 0, 70, 116
1, 29284, Note_off_c, 0, 70, 116
1, 29318, Note_on_c, 0, 68, 111
1, 29390, Note_off_c, 0, 68, 111
1, 29416, Note_on_c, 0, 63, 103
1, 29480, Note_off_c, 0, 63, 103
1, 29487, Note_on_c, 0, 60, 90
1, 29602, Note_off_c, 0, 60, 90
1, 29669, Note_on_c, 0, 61, 104
1, 29799, Note_off_c, 0, 61, 104
1, 29820, Note_on_c, 0, 63, 105
1, 29902, Note_off_c, 0, 63, 105
1, 30256, Note_on_c, 0, 73, 108
1, 30294, Note_off_c, 0, 73, 108
1, 30301, Note_on_c, 0, 72, 106
1, 30332, Note_off_c, 0, 72, 106
1, 30348, Note_on_c, 0, 70, 109
1, 30372, Note_off_c, 0, 70, 109
1, 30383, Note_on_c, 0, 68, 108
1, 30433, Note_off_c, 0, 68, 108
1, 30444, Note_on_c, 0, 67, 104
1, 30487, Note_off_c, 0, 67, 104
1, 30498, Note_on_c, 0, 65, 106
1, 30540, Note_off_c, 0, 65, 106
1, 30547, Note_on_c, 0, 64, 102
1, 30592, Note_off_c, 0, 64, 102
1, 30598, Note_on_c, 0, 67, 101
1, 30636, Note_off_c, 0, 67, 101
1, 30640, Note_on_c, 0, 70, 90
1, 30672, Note_off_c, 0, 70, 90
1, 30678, Note_on_c, 0, 73, 107
1, 30734, Note_off_c, 0, 73, 107
1, 30736, Note_on_c, 0, 72, 108
1, 30782, Note_off_c, 0, 72, 108
1, 30784, Note_on_c, 0, 70, 107
1, 30800, Note_off_c, 0, 70, 107
1, 30809, Note_on_c, 0, 68, 92
1, 30886, Note_off_c, 0, 68, 92
1, 30906, Note_on_c, 0, 65, 103
1, 30942, Note_off_c, 0, 65, 103
1, 30967, Note_on_c, 0, 68, 114
1, 31003, Note_off_c, 0, 68, 114
1, 31010, Note_on_c, 0, 67, 104
1, 31032, Note_off_c, 0, 67, 104
1, 31051, Note_on_c, 0, 65, 106
1, 31086, Note_off_c, 0, 65, 106
1, 31095, Note_on_c, 0, 64, 100
1, 31140, Note_off_c, 0, 64, 100
1, 31192, Note_on_c, 0, 66, 110
1, 31224, Note_off_c, 0, 66, 110
1, 31227, Note_on_c, 0, 65, 105
1, 31241, Note_off_c, 0, 65, 105
1, 31244, Note_on_c, 0, 64, 102
1, 31271, Note_off_c, 0, 64, 102
1, 31272, Note_on_c, 0, 65, 100
1, 31308, Note_off_c, 0, 65, 100
1, 31313, Note_on_c, 0, 66, 103
1, 31357, Note_off_c, 0, 66, 103
1, 31367, Note_on_c, 0, 68, 100
1, 31412, Note_off_c, 0, 68, 100
1, 31422, Note_on_c, 0, 70, 109
1, 31479, Note_off_c, 0, 70, 109
1, 31489, Note_on_c, 0, 72, 105
1, 31551, Note_off_c, 0, 72, 105
1, 31564, Note_on_c, 0, 77, 116
1, 31606, Note_off_c, 0, 77, 116
1, 31612, Note_on_c, 0, 74, 99
1, 31632, Note_off_c, 0, 74, 99
1, 31641, Note_on_c, 0, 71, 106
1, 31669, Note_off_c, 0, 71, 106
1, 31678, Note_on_c, 0, 70, 101
1, 31700, Note_off_c, 0, 70, 101
1, 31713, Note_on_c, 0, 68, 102
1, 31740, Note_off_c, 0, 68, 102
1, 31761, Note_on_c, 0, 72, 115
1, 31837, Note_off_c, 0, 72, 115
1, 32198, Note_on_c, 0, 72, 116
1, 32240, Note_off_c, 0, 72, 116
1, 32249, Note_on_c, 0, 72, 99
1, 32271, Note_off_c, 0, 72, 99
1, 32273, Note_on_c, 0, 69, 107
1, 32300, Note_off_c, 0, 69, 107
1, 32306, Note_on_c, 0, 70, 111
1, 32333, Note_off_c, 0, 70, 111
1, 32342, Note_on_c, 0, 72, 112
1, 32372, Note_off_c, 0, 72, 112
1, 32387, Note_on_c, 0, 73, 110
1, 32427, Note_off_c, 0, 73, 110
1, 32434, Note_on_c, 0, 75, 109
1, 32471, Note_off_c, 0, 75, 109
1, 32478, Note_on_c, 0, 77, 111
1, 32515, Note_off_c, 0, 77, 111
1, 32527, Note_on_c, 0, 80, 121
1, 32577, Note_off_c, 0, 80, 121
1, 32584, Note_on_c, 0, 79, 116
1, 32621, Note_off_c, 0, 79, 116
1, 32627, Note_on_c, 0, 77, 120
1, 32678, Note_off_c, 0, 77, 120
1, 32686, Note_on_c, 0, 75, 115
1, 32720, Note_off_c, 0, 75, 115
1, 32727, Note_on_c, 0, 74, 114
1, 32757, Note_off_c, 0, 74, 114
1, 32764, Note_on_c, 0, 73, 112
1, 32794, Note_off_c, 0, 73, 112
1, 32799, Note_on_c, 0, 74, 107
1, 32818, Note_off_c, 0, 74, 107
1, 32825, Note_on_c, 0, 73, 87
1, 32852, Note_off_c, 0, 73, 87
1, 32854, Note_on_c, 0, 70, 97
1, 32882, Note_off_c, 0, 70, 97
1, 32888, Note_on_c, 0, 68, 106
1, 32984, Note_off_c, 0, 68, 106
1, 32995, Note_on_c, 0, 74, 107
1, 33025, Note_off_c, 0, 74, 107
1, 33034, Note_on_c, 0, 73, 113
1, 33082, Note_off_c, 0, 73, 113
1, 33093, Note_on_c, 0, 77, 125
1, 33134, Note_off_c, 0, 77, 125
1, 33144, Note_on_c, 0, 75, 108
1, 33169, Note_off_c, 0, 75, 108
1, 33181, Note_on_c, 0, 72, 113
1, 33228, Note_off_c, 0, 72, 113
1, 33237, Note_on_c, 0, 73, 119
1, 33292, Note_off_c, 0, 73, 119
1, 33297, Note_on_c, 0, 71, 113
1, 33336, Note_off_c, 0, 71, 113
1, 33346, Note_on_c, 0, 72, 113
1, 33375, Note_off_c, 0, 72, 113
1, 33393, Note_on_c, 0, 70, 116
1, 33427, Note_off_c, 0, 70, 116
1, 33431, Note_on_c, 0, 69, 107
1, 33471, Note_off_c, 0, 69, 107
1, 33489, Note_on_c, 0, 67, 100
1, 33521, Note_off_c, 0, 67, 100
1, 33526, Note_on_c, 0, 68, 111
1, 33581, Note_off_c, 0, 68, 111
1, 33725, Note_on_c, 0, 70, 112
1, 33762, Note_off_c, 0, 70, 112
1, 33784, Note_on_c, 0, 69, 112
1, 33812, Note_off_c, 0, 69, 112
1, 33814, Note_on_c, 0, 70, 109
1, 33824, Note_off_c, 0, 70, 109
1, 33830, Note_on_c, 0, 68, 100
1, 33862, Note_off_c, 0, 68, 100
1, 33867, Note_on_c, 0, 67, 113
1, 33920, Note_off_c, 0, 67, 113
1, 33928, Note_on_c, 0, 66, 108
1, 33966, Note_off_c, 0, 66, 108
1, 33979, Note_on_c, 0, 68, 107
1, 34036, Note_off_c, 0, 68, 107
1, 34040, Note_on_c, 0, 70, 104
1, 34062, Note_off_c, 0, 70, 104
1, 34068, Note_on_c, 0, 69, 103
1, 34121, Note_off_c, 0, 69, 103
1, 34133, Note_on_c, 0, 79, 113
1, 34168, Note_off_c, 0, 79, 113
1, 34173, Note_on_c, 0, 77, 117
1, 34215, Note_off_c, 0, 77, 117
1, 34463, Note_on_c, 0, 72, 112
1, 34536, Note_off_c, 0, 72, 112
1, 34553, Note_on_c, 0, 75, 120
1, 34663, Note_off_c, 0, 75, 120
1, 34663, Note_on_c, 0, 73, 118
1, 34755, Note_off_c, 0, 73, 118
1, 34757, Note_on_c, 0, 72, 115
1, 34833, Note_off_c, 0, 72, 115
1, 34849, Note_on_c, 0, 68, 109
1, 34924, Note_off_c, 0, 68, 109
1, 34939, Note_on_c, 0, 65, 101
1, 35031, Note_off_c, 0, 65, 101
1, 35093, Note_on_c, 0, 70, 114
1, 35115, Note_off_c, 0, 70, 114
1, 35124, Note_on_c, 0, 68, 112
1, 35145, Note_off_c, 0, 68, 112
1, 35153, Note_on_c, 0, 67, 109
1, 35224, Note_off_c, 0, 67, 109
1, 35246, Note_on_c, 0, 65, 110
1, 35336, Note_off_c, 0, 65, 110
1, 35351, Note_on_c, 0, 62, 93
1, 35386, Note_off_c, 0, 62, 93
1, 35391, Note_on_c, 0, 63, 91
1, 35486, Note_off_c, 0, 63, 91
1, 35502, Note_on_c, 0, 64, 94
1, 35595, Note_off_c, 0, 64, 94
1, 35608, Note_on_c, 0, 67, 106
1, 35668, Note_off_c, 0, 67, 106
1, 35713, Note_on_c, 0, 69, 104
1, 35780, Note_off_c, 0, 69, 104
1, 35809, Note_on_c, 0, 71, 112
1, 35876, Note_off_c, 0, 71, 112
1, 35913, Note_on_c, 0, 74, 119
1, 35988, Note_off_c, 0, 74, 119
1, 35997, Note_on_c, 0, 71, 106
1, 36079, Note_off_c, 0, 71, 106
1, 36094, Note_on_c, 0, 72, 108
1, 36172, Note_off_c, 0, 72, 108
1, 36189, Note_on_c, 0, 74, 115
1, 36269, Note_off_c, 0, 74, 115
1, 36299, Note_on_c, 0, 77, 108
1, 36331, Note_off_c, 0, 77, 108
1, 36347, Note_on_c, 0, 75, 103
1, 36378, Note_off_c, 0, 75, 103
1, 36391, Note_on_c, 0, 76, 119
1, 36453, Note_off_c, 0, 76, 119
1, 36490, Note_on_c, 0, 81, 115
1, 36555, Note_off_c, 0, 81, 115
1, 36570, Note_on_c, 0, 80, 119
1, 36649, Note_off_c, 0, 80, 119
1, 36664, Note_on_c, 0, 79, 112
1, 36739, Note_off_c, 0, 79, 112
1, 36754, Note_on_c, 0, 78, 112
1, 36830, Note_off_c, 0, 78, 112
1, 36846, Note_on_c, 0, 77, 114
1, 36926, Note_off_c, 0, 77, 114
1, 36933, Note_on_c, 0, 76, 115
1, 37025, Note_off_c, 0, 76, 115
1, 37032, Note_on_c, 0, 75, 113
1, 37137, Note_off_c, 0, 75, 113
1, 37150, Note_on_c, 0, 67, 87
1, 37175, Note_off_c, 0, 67, 87
1, 37230, Note_on_c, 0, 72, 110
1, 37315, Note_off_c, 0, 72, 110
1, 37337, Note_on_c, 0, 75, 116
1, 37419, Note_off_c, 0, 75, 116
1, 37442, Note_on_c, 0, 74, 115
1, 37514, Note_off_c, 0, 74, 115
1, 37532, Note_on_c, 0, 72, 113
1, 37614, Note_off_c, 0, 72, 113
1, 37631, Note_on_c, 0, 71, 107
1, 37711, Note_off_c, 0, 71, 107
1, 37723, Note_on_c, 0, 63, 98
1, 37817, Note_off_c, 0, 63, 98
1, 37826, Note_on_c, 0, 70, 106
1, 37973, Note_off_c, 0, 70, 106
1, 37998, Note_on_c, 0, 68, 108
1, 38107, Note_off_c, 0, 68, 108
1, 38116, Note_on_c, 0, 65, 108
1, 38192, Note_off_c, 0, 65, 108
1, 38422, Note_on_c, 0, 79, 123
1, 38504, Note_off_c, 0, 79, 123
1, 38509, Note_on_c, 0, 80, 117
1, 38586, Note_off_c, 0, 80, 117
1, 38601, Note_on_c, 0, 79, 114
1, 38664, Note_off_c, 0, 79, 114
1, 38675, Note_on_c, 0, 77, 114
1, 38765, Note_off_c, 0, 77, 114
1, 38795, Note_on_c, 0, 76, 115
1, 38857, Note_off_c, 0, 76, 115
1, 38886, Note_on_c, 0, 74, 112
1, 38955, Note_off_c, 0, 74, 112
1, 38985, Note_on_c, 0, 75, 113
1, 39122, Note_off_c, 0, 75, 113
1, 39154, Note_on_c, 0, 73, 113
1, 39202, Note_off_c, 0, 73, 113
1, 39215, Note_on_c, 0, 71, 105
1, 39251, Note_off_c, 0, 71, 105
1, 39268, Note_on_c, 0, 70, 105
1, 39303, Note_off_c, 0, 70, 105
1, 39310, Note_on_c, 0, 68, 102
1, 39360, Note_off_c, 0, 68, 102
1, 39366, Note_on_c, 0, 67, 107
1, 39431, Note_off_c, 0, 67, 107
1, 39473, Note_on_c, 0, 65, 104
1, 39539, Note_off_c, 0, 65, 104
1, 40089, Note_on_c, 0, 74, 114
1, 40149, Note_off_c, 0, 74, 114
1, 40151, Note_on_c, 0, 75, 114
1, 40316, Note_off_c, 0, 75, 114
1, 40380, Note_on_c, 0, 72, 110
1, 40462, Note_off_c, 0, 72, 110
1, 40492, Note_on_c, 0, 70, 110
1, 40587, Note_off_c, 0, 70, 110
1, 40605, Note_on_c, 0, 68, 116
1, 40642, Note_off_c, 0, 68, 116
1, 40647, Note_on_c, 0, 67, 105
1, 40692, Note_off_c, 0, 67, 105
1, 40697, Note_on_c, 0, 68, 109
1, 40840, Note_off_c, 0, 68, 109
1, 40876, Note_on_c, 0, 67, 101
1, 41031, Note_off_c, 0, 67, 101
1, 41043, Note_on_c, 0, 63, 101
1, 41153, Note_off_c, 0, 63, 101
1, 41245, Note_on_c, 0, 65, 103
1, 41325, Note_off_c, 0, 65, 103
1, 41352, Note_on_c, 0, 63, 101
1, 41426, Note_off_c, 0, 63, 101
1, 41458, Note_on_c, 0, 62, 96
1, 41525, Note_off_c, 0, 62, 96
1, 41545, Note_on_c, 0, 60, 90
1, 41615, Note_off_c, 0, 60, 90
1, 41633, Note_on_c, 0, 59, 80
1, 41709, Note_off_c, 0, 59, 80
1, 41726, Note_on_c, 0, 62, 91
1, 41784, Note_off_c, 0, 62, 91
1, 41823, Note_on_c, 0, 64, 98
1, 41894, Note_off_c, 0, 64, 98
1, 41934, Note_on_c, 0, 66, 100
1, 41986, Note_off_c, 0, 66, 100
1, 42025, Note_on_c, 0, 69, 108
1, 42071, Note_off_c, 0, 69, 108
1, 42074, Note_on_c, 0, 70, 106
1, 42083, Note_off_c, 0, 70, 106
1, 42093, Note_on_c, 0, 69, 101
1, 42123, Note_off_c, 0, 69, 101
1, 42129, Note_on_c, 0, 66, 101
1, 42193, Note_off_c, 0, 66, 101
1, 42226, Note_on_c, 0, 67, 106
1, 42289, Note_off_c, 0, 67, 106
1, 42312, Note_on_c, 0, 69, 109
1, 42371, Note_off_c, 0, 69, 109
1, 42409, Note_on_c, 0, 70, 109
1, 42477, Note_off_c, 0, 70, 109
1, 42491, Note_on_c, 0, 71, 112
1, 42554, Note_off_c, 0, 71, 112
1, 42619, Note_on_c, 0, 76, 114
1, 42678, Note_off_c, 0, 76, 114
1, 42686, Note_on_c, 0, 75, 118
1, 42777, Note_off_c, 0, 75, 118
1, 42783, Note_on_c, 0, 74, 115
1, 42869, Note_off_c, 0, 74, 115
1, 42880, Note_on_c, 0, 71, 94
1, 42932, Note_off_c, 0, 71, 94
1, 42961, Note_on_c, 0, 72, 109
1, 42989, Note_off_c, 0, 72, 109
1, 42995, Note_on_c, 0, 73, 113
1, 43023, Note_off_c, 0, 73, 113
1, 43027, Note_on_c, 0, 72, 104
1, 43051, Note_off_c, 0, 72, 104
1, 43057, Note_on_c, 0, 71, 108
1, 43119, Note_off_c, 0, 71, 108
1, 43144, Note_on_c, 0, 72, 113
1, 43219, Note_off_c, 0, 72, 113
1, 43245, Note_on_c, 0, 74, 116
1, 43316, Note_off_c, 0, 74, 116
1, 43342, Note_on_c, 0, 76, 119
1, 43406, Note_off_c, 0, 76, 119
1, 43441, Note_on_c, 0, 79, 118
1, 43515, Note_off_c, 0, 79, 118
1, 43552, Note_on_c, 0, 83, 119
1, 43657, Note_off_c, 0, 83, 119
1, 43684, Note_on_c, 0, 81, 117
1, 43746, Note_off_c, 0, 81, 117
1, 43801, Note_on_c, 0, 79, 116
1, 43881, Note_off_c, 0, 79, 116
1, 43901, Note_on_c, 0, 78, 117
1, 43985, Note_off_c, 0, 78, 117
1, 44170, Note_on_c, 0, 82, 108
1, 44251, Note_off_c, 0, 82, 108
1, 44279, Note_on_c, 0, 77, 114
1, 44352, Note_off_c, 0, 77, 114
1, 44371, Note_on_c, 0, 76, 115
1, 44453, Note_off_c, 0, 76, 115
1, 44467, Note_on_c, 0, 75, 113
1, 44535, Note_off_c, 0, 75, 113
1, 44546, Note_on_c, 0, 77, 115
1, 44621, Note_off_c, 0, 77, 115
1, 44650, Note_on_c, 0, 74, 117
1, 44719, Note_off_c, 0, 74, 117
1, 44733, Note_on_c, 0, 71, 110
1, 44795, Note_off_c, 0, 71, 110
1, 44831, Note_on_c, 0, 72, 109
1, 44900, Note_off_c, 0, 72, 109
1, 44917, Note_on_c, 0, 70, 107
1, 44982, Note_off_c, 0, 70, 107
1, 45022, Note_on_c, 0, 71, 106
1, 45100, Note_off_c, 0, 71, 106
1, 45138, Note_on_c, 0, 66, 101
1, 45203, Note_off_c, 0, 66, 101
1, 45234, Note_on_c, 0, 62, 94
1, 45294, Note_off_c, 0, 62, 94
1, 45406, Note_on_c, 0, 64, 90
1, 45598, Note_off_c, 0, 64, 90
1, 46560, Note_on_c, 0, 83, 106
1, 46851, Note_off_c, 0, 83, 106
1, 46938, Note_on_c, 0, 82, 115
1, 47021, Note_off_c, 0, 82, 115
1, 47033, Note_on_c, 0, 80, 121
1, 47108, Note_off_c, 0, 80, 121
1, 47128, Note_on_c, 0, 78, 115
1, 47212, Note_off_c, 0, 78, 115
1, 47217, Note_on_c, 0, 76, 120
1, 47301, Note_off_c, 0, 76, 120
1, 47313, Note_on_c, 0, 75, 115
1, 47384, Note_off_c, 0, 75, 115
1, 47398, Note_on_c, 0, 73, 116
1, 47470, Note_off_c, 0, 73, 116
1, 47495, Note_on_c, 0, 71, 114
1, 47557, Note_off_c, 0, 71, 114
1, 47577, Note_on_c, 0, 69, 111
1, 47646, Note_off_c, 0, 69, 111
1, 47675, Note_on_c, 0, 68, 111
1, 47762, Note_off_c, 0, 68, 111
1, 47784, Note_on_c, 0, 63, 104
1, 47864, Note_off_c, 0, 63, 104
1, 47894, Note_on_c, 0, 61, 88
1, 47949, Note_off_c, 0, 61, 88
1, 47979, Note_on_c, 0, 63, 99
1, 48036, Note_off_c, 0, 63, 99
1, 48081, Note_on_c, 0, 66, 99
1, 48166, Note_off_c, 0, 66, 99
1, 48202, Note_on_c, 0, 64, 93
1, 48388, Note_off_c, 0, 64, 93
1, 49280, Note_on_c, 0, 78, 121
1, 49364, Note_off_c, 0, 78, 121
1, 49371, Note_on_c, 0, 79, 118
1, 49494, Note_off_c, 0, 79, 118
1, 49554, Note_on_c, 0, 77, 118
1, 49632, Note_off_c, 0, 77, 118
1, 49659, Note_on_c, 0, 72, 108
1, 49708, Note_off_c, 0, 72, 108
1, 49759, Note_on_c, 0, 75, 114
1, 49834, Note_off_c, 0, 75, 114
1, 49843, Note_on_c, 0, 72, 108
1, 49911, Note_off_c, 0, 72, 108
1, 49922, Note_on_c, 0, 73, 109
1, 50004, Note_off_c, 0, 73, 109
1, 50015, Note_on_c, 0, 75, 114
1, 50094, Note_off_c, 0, 75, 114
1, 50115, Note_on_c, 0, 77, 111
1, 50194, Note_off_c, 0, 77, 111
1, 50206, Note_on_c, 0, 80, 111
1, 50293, Note_off_c, 0, 80, 111
1, 50316, Note_on_c, 0, 79, 112
1, 50389, Note_off_c, 0, 79, 112
1, 50414, Note_on_c, 0, 77, 110
1, 50492, Note_off_c, 0, 77, 110
1, 50511, Note_on_c, 0, 75, 111
1, 50593, Note_off_c, 0, 75, 111
1, 50600, Note_on_c, 0, 74, 116
1, 50683, Note_off_c, 0, 74, 116
1, 50689, Note_on_c, 0, 73, 114
1, 50782, Note_off_c, 0, 73, 114
1, 50790, Note_on_c, 0, 72, 109
1, 50877, Note_off_c, 0, 72, 109
1, 50894, Note_on_c, 0, 71, 114
1, 50973, Note_off_c, 0, 71, 114
1, 50983, Note_on_c, 0, 67, 115
1, 51057, Note_off_c, 0, 67, 115
1, 51091, Note_on_c, 0, 66, 103
1, 51190, Note_off_c, 0, 66, 103
1, 51195, Note_on_c, 0, 66, 109
1, 51245, Note_off_c, 0, 66, 109
1, 51274, Note_on_c, 0, 64, 110
1, 51358, Note_off_c, 0, 64, 110
1, 51386, Note_on_c, 0, 60, 98
1, 51454, Note_off_c, 0, 60, 98
1, 51464, Note_on_c, 0, 63, 105
1, 51556, Note_off_c, 0, 63, 105
1, 51581, Note_on_c, 0, 60, 82
1, 51758, Note_off_c, 0, 60, 82
1, 52146, Note_on_c, 0, 69, 115
1, 52201, Note_off_c, 0, 69, 115
1, 52219, Note_on_c, 0, 70, 117
1, 52384, Note_off_c, 0, 70, 117
1, 52407, Note_on_c, 0, 68, 114
1, 52495, Note_off_c, 0, 68, 114
1, 52509, Note_on_c, 0, 65, 114
1, 52588, Note_off_c, 0, 65, 114
1, 52610, Note_on_c, 0, 63, 105
1, 52679, Note_off_c, 0, 63, 105
1, 52706, Note_on_c, 0, 65, 117
1, 52784, Note_off_c, 0, 65, 117
1, 52806, Note_on_c, 0, 68, 118
1, 52878, Note_off_c, 0, 68, 118
1, 52895, Note_on_c, 0, 70, 120
1, 52985, Note_off_c, 0, 70, 120
1, 52997, Note_on_c, 0, 71, 117
1, 53079, Note_off_c, 0, 71, 117
1, 53094, Note_on_c, 0, 72, 112
1, 53115, Note_off_c, 0, 72, 112
1, 53124, Note_on_c, 0, 71, 111
1, 53166, Note_off_c, 0, 71, 111
1, 53177, Note_on_c, 0, 68, 111
1, 53257, Note_off_c, 0, 68, 111
1, 53283, Note_on_c, 0, 64, 110
1, 53350, Note_off_c, 0, 64, 110
1, 53388, Note_on_c, 0, 61, 99
1, 53427, Note_off_c, 0, 61, 99
1, 53473, Note_on_c, 0, 64, 110
1, 53531, Note_off_c, 0, 64, 110
1, 53574, Note_on_c, 0, 68, 113
1, 53642, Note_off_c, 0, 68, 113
1, 53657, Note_on_c, 0, 71, 117
1, 53728, Note_off_c, 0, 71, 117
1, 53764, Note_on_c, 0, 70, 110
1, 53834, Note_off_c, 0, 70, 110
1, 53851, Note_on_c, 0, 67, 97
1, 53923, Note_off_c, 0, 67, 97
1, 53950, Note_on_c, 0, 68, 108
1, 54018, Note_off_c, 0, 68, 108
1, 54059, Note_on_c, 0, 70, 111
1, 54130, Note_off_c, 0, 70, 111
1, 54142, Note_on_c, 0, 72, 98
1, 54178, Note_off_c, 0, 72, 98
1, 54188, Note_on_c, 0, 71, 107
1, 54225, Note_off_c, 0, 71, 107
1, 54239, Note_on_c, 0, 72, 118
1, 54317, Note_off_c, 0, 72, 118
1, 54346, Note_on_c, 0, 73, 120
1, 54424, Note_off_c, 0, 73, 120
1, 54439, Note_on_c, 0, 74, 116
1, 54524, Note_off_c, 0, 74, 116
1, 54546, Note_on_c, 0, 77, 105
1, 54584, Note_off_c, 0, 77, 105
1, 54589, Note_on_c, 0, 75, 112
1, 54692, Note_off_c, 0, 75, 112
1, 54828, Note_on_c, 0, 73, 108
1, 54910, Note_off_c, 0, 73, 108
1, 54939, Note_on_c, 0, 71, 112
1, 55033, Note_off_c, 0, 71, 112
1, 55058, Note_on_c, 0, 73, 111
1, 55253, Note_off_c, 0, 73, 111
1, 55302, Note_on_c, 0, 70, 111
1, 55368, Note_off_c, 0, 70, 111
1, 55401, Note_on_c, 0, 65, 105
1, 55451, Note_off_c, 0, 65, 105
1, 55483, Note_on_c, 0, 68, 109
1, 55560, Note_off_c, 0, 68, 109
1, 55565, Note_on_c, 0, 70, 113
1, 55607, Note_off_c, 0, 70, 113
1, 55614, Note_on_c, 0, 68, 104
1, 55631, Note_off_c, 0, 68, 104
1, 55646, Note_on_c, 0, 67, 107
1, 55740, Note_off_c, 0, 67, 107
1, 55764, Note_on_c, 0, 65, 111
1, 55834, Note_off_c, 0, 65, 111
1, 55872, Note_on_c, 0, 63, 102
1, 55944, Note_off_c, 0, 63, 102
1, 55981, Note_on_c, 0, 60, 89
1, 56018, Note_off_c, 0, 60, 89
1, 56025, Note_on_c, 0, 61, 97
1, 56105, Note_off_c, 0, 61, 97
1, 56148, Note_on_c, 0, 63, 101
1, 56216, Note_off_c, 0, 63, 101
1, 56229, Note_on_c, 0, 65, 103
1, 56266, Note_off_c, 0, 65, 103
1, 56283, Note_on_c, 0, 68, 105
1, 56322, Note_off_c, 0, 68, 105
1, 56335, Note_on_c, 0, 72, 115
1, 56412, Note_off_c, 0, 72, 115
1, 56416, Note_on_c, 0, 71, 108
1, 56498, Note_off_c, 0, 71, 108
1, 56509, Note_on_c, 0, 67, 110
1, 56584, Note_off_c, 0, 67, 110
1, 56599, Note_on_c, 0, 66, 106
1, 56674, Note_off_c, 0, 66, 106
1, 56711, Note_on_c, 0, 64, 109
1, 56766, Note_off_c, 0, 64, 109
1, 56806, Note_on_c, 0, 63, 104
1, 56883, Note_off_c, 0, 63, 104
1, 56891, Note_on_c, 0, 64, 95
1, 56914, Note_off_c, 0, 64, 95
1, 56923, Note_on_c, 0, 63, 102
1, 56957, Note_off_c, 0, 63, 102
1, 56974, Note_on_c, 0, 60, 85
1, 57096, Note_off_c, 0, 60, 85
1, 57121, Note_on_c, 0, 63, 90
1, 57142, Note_off_c, 0, 63, 90
1, 57179, Note_on_c, 0, 68, 112
1, 57284, Note_off_c, 0, 68, 112
1, 57313, Note_on_c, 0, 63, 94
1, 57461, Note_off_c, 0, 63, 94
1, 58530, Note_on_c, 0, 67, 108
1, 58698, Note_off_c, 0, 67, 108
1, 58735, Note_on_c, 0, 67, 107
1, 58964, Note_off_c, 0, 67, 107
1, 59039, Note_on_c, 0, 65, 107
1, 59144, Note_off_c, 0, 65, 107
1, 59166, Note_on_c, 0, 63, 98
1, 59211, Note_off_c, 0, 63, 98
1, 59341, Note_on_c, 0, 63, 108
1, 59470, Note_off_c, 0, 63, 108
1, 59489, Note_on_c, 0, 61, 104
1, 59536, Note_off_c, 0, 61, 104
1, 59543, Note_on_c, 0, 63, 105
1, 59593, Note_off_c, 0, 63, 105
1, 59634, Note_on_c, 0, 72, 110
1, 59713, Note_off_c, 0, 72, 110
1, 59799, Note_on_c, 0, 73, 96
1, 59829, Note_off_c, 0, 73, 96
1, 59832, Note_on_c, 0, 70, 111
1, 59864, Note_off_c, 0, 70, 111
1, 59917, Note_on_c, 0, 71, 110
1, 60035, Note_off_c, 0, 71, 110
1, 60069, Note_on_c, 0, 67, 102
1, 60156, Note_off_c, 0, 67, 102
1, 60196, Note_on_c, 0, 66, 95
1, 60259, Note_off_c, 0, 66, 95
1, 60334, Note_on_c, 0, 64, 101
1, 60406, Note_off_c, 0, 64, 101
1, 60416, Note_on_c, 0, 63, 98
1, 60504, Note_off_c, 0, 63, 98
1, 60544, Note_on_c, 0, 61, 102
1, 60590, Note_off_c, 0, 61, 102
1, 60605, Note_on_c, 0, 60, 79
1, 60772, Note_off_c, 0, 60, 79
1, 61593, Note_on_c, 0, 80, 110
1, 61665, Note_off_c, 0, 80, 110
1, 61676, Note_on_c, 0, 77, 117
1, 61756, Note_off_c, 0, 77, 117
1, 61785, Note_on_c, 0, 75, 115
1, 61854, Note_off_c, 0, 75, 115
1, 61874, Note_on_c, 0, 73, 111
1, 61955, Note_off_c, 0, 73, 111
1, 61986, Note_on_c, 0, 72, 109
1, 62074, Note_off_c, 0, 72, 109
1, 62083, Note_on_c, 0, 70, 114
1, 62154, Note_off_c, 0, 70, 114
1, 62168, Note_on_c, 0, 68, 106
1, 62227, Note_off_c, 0, 68, 106
1, 62255, Note_on_c, 0, 70, 107
1, 62315, Note_off_c, 0, 70, 107
1, 62360, Note_on_c, 0, 72, 104
1, 62433, Note_off_c, 0, 72, 104
1, 62451, Note_on_c, 0, 74, 109
1, 62493, Note_off_c, 0, 74, 109
1, 62500, Note_on_c, 0, 72, 107
1, 62550, Note_off_c, 0, 72, 107
1, 62555, Note_on_c, 0, 71, 101
1, 62622, Note_off_c, 0, 71, 101
1, 62644, Note_on_c, 0, 68, 110
1, 62720, Note_off_c, 0, 68, 110
1, 62750, Note_on_c, 0, 67, 102
1, 62830, Note_off_c, 0, 67, 102
1, 62846, Note_on_c, 0, 65, 99
1, 62903, Note_off_c, 0, 65, 99
1, 62920, Note_on_c, 0, 64, 86
1, 62982, Note_off_c, 0, 64, 86
1, 63042, Note_on_c, 0, 67, 105
1, 63097, Note_off_c, 0, 67, 105
1, 63102, Note_on_c, 0, 69, 109
1, 63215, Note_off_c, 0, 69, 109
1, 63224, Note_on_c, 0, 71, 112
1, 63290, Note_off_c, 0, 71, 112
1, 63320, Note_on_c, 0, 74, 116
1, 63417, Note_off_c, 0, 74, 116
1, 63422, Note_on_c, 0, 71, 95
1, 63489, Note_off_c, 0, 71, 95
1, 63509, Note_on_c, 0, 72, 113
1, 63555, Note_off_c, 0, 72, 113
1, 63558, Note_on_c, 0, 73, 109
1, 63580, Note_off_c, 0, 73, 109
1, 63582, Note_on_c, 0, 72, 104
1, 63607, Note_off_c, 0, 72, 104
1, 63614, Note_on_c, 0, 71, 105
1, 63680, Note_off_c, 0, 71, 105
1, 63715, Note_on_c, 0, 72, 107
1, 63805, Note_off_c, 0, 72, 107
1, 63807, Note_on_c, 0, 71, 99
1, 63899, Note_off_c, 0, 71, 99
1, 63906, Note_on_c, 0, 69, 105
1, 63991, Note_off_c, 0, 69, 105
1, 64000, Note_on_c, 0, 68, 108
1, 64048, Note_off_c, 0, 68, 108
1, 64066, Note_on_c, 0, 67, 99
1, 64174, Note_off_c, 0, 67, 99
1, 64174, Note_on_c, 0, 65, 103
1, 64256, Note_off_c, 0, 65, 103
1, 64262, Note_on_c, 0, 64, 97
1, 64344, Note_off_c, 0, 64, 97
1, 64471, Note_on_c, 0, 63, 96
1, 64540, Note_off_c, 0, 63, 96
1, 64557, Note_on_c, 0, 67, 117
1, 64617, Note_off_c, 0, 67, 117
1, 64633, Note_on_c, 0, 63, 91
1, 64737, Note_off_c, 0, 63, 91
1, 64748, Note_on_c, 0, 59, 90
1, 64800, Note_off_c, 0, 59, 90
1, 64806, Note_on_c, 0, 60, 94
1, 64888, Note_off_c, 0, 60, 94
1, 64911, Note_on_c, 0, 62, 108
1, 64974, Note_off_c, 0, 62, 108
1, 65003, Note_on_c, 0, 63, 105
1, 65063, Note_off_c, 0, 63, 105
1, 65068, Note_on_c, 0, 65, 105
1, 65098, Note_off_c, 0, 65, 105
1, 65105, Note_on_c, 0, 67, 112
1, 65175, Note_off_c, 0, 67, 112
1, 65197, Note_on_c, 0, 70, 121
1, 65280, Note_off_c, 0, 70, 121
1, 65565, Note_on_c, 0, 68, 114
1, 65635, Note_off_c, 0, 68, 114
1, 65868, Note_on_c, 0, 67, 109
1, 65947, Note_off_c, 0, 67, 109
1, 66308, Note_on_c, 0, 78, 110
1, 66378, Note_off_c, 0, 78, 110
1, 66390, Note_on_c, 0, 74, 110
1, 66488, Note_off_c, 0, 74, 110
1, 66493, Note_on_c, 0, 73, 112
1, 66586, Note_off_c, 0, 73, 112
1, 66588, Note_on_c, 0, 71, 112
1, 66666, Note_off_c, 0, 71, 112
1, 66673, Note_on_c, 0, 70, 108
1, 66762, Note_off_c, 0, 70, 108
1, 66767, Note_on_c, 0, 68, 114
1, 66859, Note_off_c, 0, 68, 114
1, 66860, Note_on_c, 0, 67, 105
1, 66957, Note_off_c, 0, 67, 105
1, 66959, Note_on_c, 0, 65, 111
1, 67033, Note_off_c, 0, 65, 111
1, 67065, Note_on_c, 0, 66, 107
1, 67245, Note_off_c, 0, 66, 107
1, 67265, Note_on_c, 0, 64, 110
1, 67353, Note_off_c, 0, 64, 110
1, 67361, Note_on_c, 0, 62, 92
1, 67398, Note_off_c, 0, 62, 92
1, 67452, Note_on_c, 0, 63, 104
1, 67512, Note_off_c, 0, 63, 104
1, 67541, Note_on_c, 0, 64, 96
1, 67586, Note_off_c, 0, 64, 96
1, 67598, Note_on_c, 0, 63, 95
1, 67675, Note_off_c, 0, 63, 95
1, 67744, Note_on_c, 0, 65, 92
1, 67808, Note_off_c, 0, 65, 92
1, 67830, Note_on_c, 0, 68, 108
1, 67910, Note_off_c, 0, 68, 108
1, 67927, Note_on_c, 0, 70, 111
1, 67989, Note_off_c, 0, 70, 111
1, 68026, Note_on_c, 0, 72, 111
1, 68086, Note_off_c, 0, 72, 111
1, 68122, Note_on_c, 0, 75, 122
1, 68194, Note_off_c, 0, 75, 122
1, 68223, Note_on_c, 0, 74, 114
1, 68389, Note_off_c, 0, 74, 114
1, 68413, Note_on_c, 0, 72, 113
1, 68477, Note_off_c, 0, 72, 113
1, 68491, Note_on_c, 0, 73, 97
1, 68514, Note_off_c, 0, 73, 97
1, 68536, Note_on_c, 0, 72, 104
1, 68596, Note_off_c, 0, 72, 104
1, 68598, Note_on_c, 0, 71, 106
1, 68682, Note_off_c, 0, 71, 106
1, 68697, Note_on_c, 0, 69, 105
1, 68779, Note_off_c, 0, 69, 105
1, 68807, Note_on_c, 0, 68, 83
1, 68817, Note_off_c, 0, 68, 83
1, 68825, Note_on_c, 0, 66, 86
1, 68860, Note_off_c, 0, 66, 86
1, 68874, Note_on_c, 0, 64, 94
1, 68892, Note_off_c, 0, 64, 94
1, 68902, Note_on_c, 0, 63, 103
1, 68962, Note_off_c, 0, 63, 103
1, 68997, Note_on_c, 0, 62, 100
1, 69089, Note_off_c, 0, 62, 100
1, 69120, Note_on_c, 0, 62, 92
1, 69333, Note_off_c, 0, 62, 92
1, 70598, Note_on_c, 0, 61, 100
1, 70653, Note_off_c, 0, 61, 100
1, 70658, Note_on_c, 0, 62, 99
1, 70704, Note_off_c, 0, 62, 99
1, 70724, Note_on_c, 0, 67, 103
1, 70754, Note_off_c, 0, 67, 103
1, 70779, Note_on_c, 0, 71, 118
1, 70848, Note_off_c, 0, 71, 118
1, 70867, Note_on_c, 0, 74, 121
1, 70978, Note_off_c, 0, 74, 121
1, 70993, Note_on_c, 0, 71, 116
1, 71079, Note_off_c, 0, 71, 116
1, 71182, Note_on_c, 0, 61, 98
1, 71252, Note_off_c, 0, 61, 98
1, 71287, Note_on_c, 0, 67, 101
1, 71340, Note_off_c, 0, 67, 101
1, 71350, Note_on_c, 0, 71, 118
1, 71413, Note_off_c, 0, 71, 118
1, 71426, Note_on_c, 0, 74, 122
1, 71531, Note_off_c, 0, 74, 122
1, 71550, Note_on_c, 0, 71, 113
1, 71671, Note_off_c, 0, 71, 113
1, 72303, Note_on_c, 0, 72, 108
1, 72383, Note_off_c, 0, 72, 108
1, 72387, Note_on_c, 0, 73, 102
1, 72414, Note_off_c, 0, 73, 102
1, 72417, Note_on_c, 0, 72, 109
1, 72461, Note_off_c, 0, 72, 109
1, 72472, Note_on_c, 0, 71, 108
1, 72568, Note_off_c, 0, 71, 108
1, 72651, Note_on_c, 0, 74, 113
1, 72731, Note_off_c, 0, 74, 113
1, 72742, Note_on_c, 0, 66, 91
1, 72832, Note_off_c, 0, 66, 91
1, 72954, Note_on_c, 0, 71, 115
1, 73037, Note_off_c, 0, 71, 115
1, 73043, Note_on_c, 0, 72, 116
1, 73139, Note_off_c, 0, 72, 116
1, 73146, Note_on_c, 0, 74, 116
1, 73228, Note_off_c, 0, 74, 116
1, 73241, Note_on_c, 0, 72, 107
1, 73306, Note_off_c, 0, 72, 107
1, 73341, Note_on_c, 0, 64, 95
1, 73390, Note_off_c, 0, 64, 95
1, 73420, Note_on_c, 0, 71, 112
1, 73587, Note_off_c, 0, 71, 112
1, 73594, Note_on_c, 0, 72, 115
1, 73690, Note_off_c, 0, 72, 115
1, 74155, Note_on_c, 0, 69, 115
1, 74227, Note_off_c, 0, 69, 115
1, 74245, Note_on_c, 0, 68, 113
1, 74315, Note_off_c, 0, 68, 113
1, 74355, Note_on_c, 0, 66, 102
1, 74410, Note_off_c, 0, 66, 102
1, 74446, Note_on_c, 0, 64, 106
1, 74501, Note_off_c, 0, 64, 106
1, 74554, Note_on_c, 0, 63, 103
1, 74609, Note_off_c, 0, 63, 103
1, 74650, Note_on_c, 0, 66, 98
1, 74697, Note_off_c, 0, 66, 98
1, 74739, Note_on_c, 0, 71, 118
1, 74821, Note_off_c, 0, 71, 118
1, 74838, Note_on_c, 0, 69, 112
1, 74894, Note_off_c, 0, 69, 112
1, 74940, Note_on_c, 0, 68, 113
1, 75006, Note_off_c, 0, 68, 113
1, 75043, Note_on_c, 0, 59, 89
1, 75090, Note_off_c, 0, 59, 89
1, 75110, Note_on_c, 0, 60, 94
1, 75238, Note_off_c, 0, 60, 94
1, 75250, Note_on_c, 0, 61, 90
1, 75457, Note_off_c, 0, 61, 90
1, 76591, Note_on_c, 0, 76, 91
1, 76656, Note_off_c, 0, 76, 91
1, 76662, Note_on_c, 0, 77, 106
1, 76729, Note_off_c, 0, 77, 106
1, 76805, Note_on_c, 0, 77, 106
1, 76890, Note_off_c, 0, 77, 106
1, 76927, Note_on_c, 0, 72, 109
1, 77024, Note_off_c, 0, 72, 109
1, 77095, Note_on_c, 0, 70, 102
1, 77155, Note_off_c, 0, 70, 102
1, 77215, Note_on_c, 0, 75, 113
1, 77363, Note_off_c, 0, 75, 113
1, 77374, Note_on_c, 0, 75, 112
1, 77477, Note_off_c, 0, 75, 112
1, 77498, Note_on_c, 0, 75, 110
1, 77591, Note_off_c, 0, 75, 110
1, 77643, Note_on_c, 0, 73, 110
1, 77717, Note_off_c, 0, 73, 110
1, 77731, Note_on_c, 0, 68, 103
1, 77809, Note_off_c, 0, 68, 103
1, 77846, Note_on_c, 0, 65, 100
1, 77894, Note_off_c, 0, 65, 100
1, 77908, Note_on_c, 0, 64, 90
1, 77985, Note_off_c, 0, 64, 90
1, 78036, Note_on_c, 0, 70, 105
1, 78102, Note_off_c, 0, 70, 105
1, 78109, Note_on_c, 0, 72, 110
1, 78254, Note_off_c, 0, 72, 110
1, 78320, Note_on_c, 0, 70, 98
1, 78388, Note_off_c, 0, 70, 98
1, 78419, Note_on_c, 0, 67, 102
1, 78483, Note_off_c, 0, 67, 102
1, 78559, Note_on_c, 0, 66, 97
1, 78591, Note_off_c, 0, 66, 97
1, 78623, Note_on_c, 0, 64, 100
1, 78719, Note_off_c, 0, 64, 100
1, 78749, Note_on_c, 0, 63, 95
1, 78834, Note_off_c, 0, 63, 95
1, 78854, Note_on_c, 0, 63, 100
1, 78927, Note_off_c, 0, 63, 100
1, 78939, Note_on_c, 0, 63, 83
1, 79029, Note_off_c, 0, 63, 83
1, 79357, Note_on_c, 0, 68, 104
1, 79419, Note_off_c, 0, 68, 104
1, 79426, Note_on_c, 0, 70, 113
1, 79581, Note_off_c, 0, 70, 113
1, 79606, Note_on_c, 0, 68, 113
1, 79676, Note_off_c, 0, 68, 113
1, 79698, Note_on_c, 0, 65, 118
1, 79765, Note_off_c, 0, 65, 118
1, 79807, Note_on_c, 0, 63, 110
1, 79865, Note_off_c, 0, 63, 110
1, 79907, Note_on_c, 0, 60, 99
1, 79947, Note_off_c, 0, 60, 99
1, 79988, Note_on_c, 0, 61, 100
1, 80047, Note_off_c, 0, 61, 100
1, 80097, Note_on_c, 0, 63, 109
1, 80154, Note_off_c, 0, 63, 109
1, 80184, Note_on_c, 0, 64, 109
1, 80254, Note_off_c, 0, 64, 109
1, 80278, Note_on_c, 0, 66, 110
1, 80342, Note_off_c, 0, 66, 110
1, 80390, Note_on_c, 0, 68, 116
1, 80455, Note_off_c, 0, 68, 116
1, 80480, Note_on_c, 0, 71, 111
1, 80555, Note_off_c, 0, 71, 111
1, 80582, Note_on_c, 0, 70, 106
1, 80658, Note_off_c, 0, 70, 106
1, 80678, Note_on_c, 0, 68, 112
1, 80735, Note_off_c, 0, 68, 112
1, 80782, Note_on_c, 0, 66, 108
1, 80843, Note_off_c, 0, 66, 108
1, 80854, Note_on_c, 0, 64, 112
1, 80926, Note_off_c, 0, 64, 112
1, 80936, Note_on_c, 0, 63, 109
1, 81014, Note_off_c, 0, 63, 109
1, 81035, Note_on_c, 0, 65, 99
1, 81076, Note_off_c, 0, 65, 99
1, 81088, Note_on_c, 0, 63, 105
1, 81126, Note_off_c, 0, 63, 105
1, 81136, Note_on_c, 0, 60, 100
1, 81204, Note_off_c, 0, 60, 100
1, 81236, Note_on_c, 0, 63, 114
1, 81292, Note_off_c, 0, 63, 114
1, 81337, Note_on_c, 0, 67, 114
1, 81405, Note_off_c, 0, 67, 114
1, 81420, Note_on_c, 0, 68, 115
1, 81496, Note_off_c, 0, 68, 115
1, 81520, Note_on_c, 0, 70, 112
1, 81603, Note_off_c, 0, 70, 112
1, 81610, Note_on_c, 0, 72, 120
1, 81702, Note_off_c, 0, 72, 120
1, 81707, Note_on_c, 0, 73, 123
1, 81856, Note_off_c, 0, 73, 123
1, 81881, Note_on_c, 0, 71, 113
1, 81965, Note_off_c, 0, 71, 113
1, 82288, Note_on_c, 0, 72, 119
1, 82349, Note_off_c, 0, 72, 119
1, 82367, Note_on_c, 0, 69, 114
1, 82448, Note_off_c, 0, 69, 114
1, 82452, Note_on_c, 0, 70, 113
1, 82536, Note_off_c, 0, 70, 113
1, 82555, Note_on_c, 0, 65, 105
1, 82625, Note_off_c, 0, 65, 105
1, 82841, Note_on_c, 0, 69, 110
1, 82916, Note_off_c, 0, 69, 110
1, 82927, Note_on_c, 0, 72, 118
1, 82999, Note_off_c, 0, 72, 118
1, 83024, Note_on_c, 0, 70, 114
1, 83100, Note_off_c, 0, 70, 114
1, 83112, Note_on_c, 0, 69, 112
1, 83189, Note_off_c, 0, 69, 112
1, 83209, Note_on_c, 0, 68, 103
1, 83290, Note_off_c, 0, 68, 103
1, 83302, Note_on_c, 0, 70, 110
1, 83344, Note_off_c, 0, 70, 110
1, 83346, Note_on_c, 0, 68, 107
1, 83391, Note_off_c, 0, 68, 107
1, 83401, Note_on_c, 0, 67, 102
1, 83462, Note_off_c, 0, 67, 102
1, 83499, Note_on_c, 0, 65, 110
1, 83556, Note_off_c, 0, 65, 110
1, 83593, Note_on_c, 0, 66, 102
1, 83656, Note_off_c, 0, 66, 102
1, 83673, Note_on_c, 0, 64, 106
1, 83746, Note_off_c, 0, 64, 106
1, 83773, Note_on_c, 0, 63, 99
1, 83841, Note_off_c, 0, 63, 99
1, 83868, Note_on_c, 0, 61, 92
1, 83929, Note_off_c, 0, 61, 92
1, 83938, Note_on_c, 0, 60, 85
1, 84058, Note_off_c, 0, 60, 85
1, 84060, Note_on_c, 0, 63, 107
1, 84123, Note_off_c, 0, 63, 107
1, 84138, Note_on_c, 0, 67, 104
1, 84218, Note_off_c, 0, 67, 104
1, 84245, Note_on_c, 0, 68, 100
1, 84414, Note_off_c, 0, 68, 100
1, 84804, Note_on_c, 0, 72, 116
1, 84868, Note_off_c, 0, 72, 116
1, 84878, Note_on_c, 0, 69, 101
1, 84908, Note_off_c, 0, 69, 101
1, 84930, Note_on_c, 0, 65, 105
1, 84977, Note_off_c, 0, 65, 105
1, 85007, Note_on_c, 0, 61, 95
1, 85091, Note_off_c, 0, 61, 95
1, 85096, Note_on_c, 0, 60, 91
1, 85216, Note_off_c, 0, 60, 91
1, 85229, Note_on_c, 0, 58, 100
1, 85475, Note_off_c, 0, 58, 100
1, 85514, Note_on_c, 0, 55, 97
1, 85945, Note_off_c, 0, 55, 97
1, 85945, End_track
0, 0, End_of_file
