0, 0, Header, 1, 1, 192
1, 0, Start_track
1, 0, Title_t, "Melody"
1, 0, Tempo, 392156
1, 0, Key_signature, -1, "major"
1, 0, Time_signature, 4, 2, 24, 8
1, 781, Note_on_c, 0, 68, 113
1, 812, Note_off_c, 0, 68, 113
1, 823, Note_on_c, 0, 69, 122
1, 1294, Note_off_c, 0, 69, 122
1, 1305, Note_on_c, 0, 72, 108
1, 1338, Note_off_c, 0, 72, 108
1, 1347, Note_on_c, 0, 73, 117
1, 1434, Note_off_c, 0, 73, 117
1, 1441, Note_on_c, 0, 74, 109
1, 2564, Note_off_c, 0, 74, 109
1, 2595, Note_on_c, 0, 72, 118
1, 2646, Note_off_c, 0, 72, 118
1, 2653, Note_on_c, 0, 73, 109
1, 2717, Note_off_c, 0, 73, 109
1, 2717, Note_on_c, 0, 72, 116
1, 2804, Note_off_c, 0, 72, 116
1, 2808, Note_on_c, 0, 69, 125
1, 2897, Note_off_c, 0, 69, 125
1, 2902, Note_on_c, 0, 65, 113
1, 2975, Note_off_c, 0, 65, 113
1, 2985, Note_on_c, 0, 67, 116
1, 3069, Note_off_c, 0, 67, 116
1, 3083, Note_on_c, 0, 68, 114
1, 3119, Note_off_c, 0, 68, 114
1, 3120, Note_on_c, 0, 69, 117
1, 3185, Note_off_c, 0, 69, 117
1, 3191, Note_on_c, 0, 68, 115
1, 3260, Note_off_c, 0, 68, 115
1, 3263, Note_on_c, 0, 69, 105
1, 3281, Note_off_c, 0, 69, 105
1, 3285, Note_on_c, 0, 67, 114
1, 3366, Note_off_c, 0, 67, 114
1, 3369, Note_on_c, 0, 66, 112
1, 3416, Note_off_c, 0, 66, 112
1, 3416, Note_on_c, 0, 67, 114
1, 3447, Note_off_c, 0, 67, 114
1, 3463, Note_on_c, 0, 65, 106
1, 3539, Note_off_c, 0, 65, 106
1, 3552, Note_on_c, 0, 62, 114
1, 3625, Note_off_c, 0, 62, 114
1, 3630, Note_on_c, 0, 61, 110
1, 3706, Note_off_c, 0, 61, 110
1, 3720, Note_on_c, 0, 60, 108
1, 3788, Note_off_c, 0, 60, 108
1, 3798, Note_on_c, 0, 57, 110
1, 3861, Note_off_c, 0, 57, 110
1, 3868, Note_on_c, 0, 56, 101
1, 3932, Note_off_c, 0, 56, 101
1, 3942, Note_on_c, 0, 53, 100
1, 3995, Note_off_c, 0, 53, 100
1, 4009, Note_on_c, 0, 52, 107
1, 4120, Note_off_c, 0, 52, 107
1, 4120, Note_on_c, 0, 51, 108
1, 4188, Note_off_c, 0, 51, 108
1, 4394, Note_on_c, 0, 66, 113
1, 4424, Note_off_c, 0, 66, 113
1, 4424, Note_on_c, 0, 67, 113
1, 4436, Note_off_c, 0, 67, 113
1, 4437, Note_on_c, 0, 68, 116
1, 4485, Note_off_c, 0, 68, 116
1, 4485, Note_on_c, 0, 67, 100
1, 4554, Note_off_c, 0, 67, 100
1, 4608, Note_on_c, 0, 72, 103
1, 4678, Note_off_c, 0, 72, 103
1, 4689, Note_on_c, 0, 67, 111
1, 4779, Note_off_c, 0, 67, 111
1, 4779, Note_on_c, 0, 65, 110
1, 4870, Note_off_c, 0, 65, 110
1, 4870, Note_on_c, 0, 62, 111
1, 4943, Note_off_c, 0, 62, 111
1, 4985, Note_on_c, 0, 62, 101
1, 5153, Note_off_c, 0, 62, 101
1, 5154, Note_on_c, 0, 60, 101
1, 5196, Note_off_c, 0, 60, 101
1, 5546, Note_on_c, 0, 68, 110
1, 5581, Note_off_c, 0, 68, 110
1, 5585, Note_on_c, 0, 69, 115
1, 5632, Note_off_c, 0, 69, 115
1, 5637, Note_on_c, 0, 72, 101
1, 5684, Note_off_c, 0, 72, 101
1, 5748, Note_on_c, 0, 68, 116
1, 5780, Note_off_c, 0, 68, 116
1, 5780, Note_on_c, 0, 67, 112
1, 5801, Note_off_c, 0, 67, 112
1, 5802, Note_on_c, 0, 68, 113
1, 5825, Note_off_c, 0, 68, 113
1, 5830, Note_on_c, 0, 67, 101
1, 5906, Note_off_c, 0, 67, 101
1, 5912, Note_on_c, 0, 68, 114
1, 6009, Note_off_c, 0, 68, 114
1, 6022, Note_on_c, 0, 68, 115
1, 6108, Note_off_c, 0, 68, 115
1, 6115, Note_on_c, 0, 67, 113
1, 6212, Note_off_c, 0, 67, 113
1, 6222, Note_on_c, 0, 65, 114
1, 6287, Note_off_c, 0, 65, 114
1, 6308, Note_on_c, 0, 62, 106
1, 6413, Note_off_c, 0, 62, 106
1, 6417, Note_on_c, 0, 65, 115
1, 6625, Note_off_c, 0, 65, 115
1, 6626, Note_on_c, 0, 64, 91
1, 6761, Note_off_c, 0, 64, 91
1, 6989, Note_on_c, 0, 62, 114
1, 7066, Note_off_c, 0, 62, 114
1, 7078, Note_on_c, 0, 62, 107
1, 7215, Note_off_c, 0, 62, 107
1, 7292, Note_on_c, 0, 65, 120
1, 7373, Note_off_c, 0, 65, 120
1, 7373, Note_on_c, 0, 62, 95
1, 7462, Note_off_c, 0, 62, 95
1, 7462, Note_on_c, 0, 64, 114
1, 7487, Note_off_c, 0, 64, 114
1, 7488, Note_on_c, 0, 65, 119
1, 7531, Note_off_c, 0, 65, 119
1, 7533, Note_on_c, 0, 77, 119
1, 7567, Note_off_c, 0, 77, 119
1, 7573, Note_on_c, 0, 74, 104
1, 7639, Note_off_c, 0, 74, 104
1, 8050, Note_on_c, 0, 65, 97
1, 8118, Note_off_c, 0, 65, 97
1, 8147, Note_on_c, 0, 65, 97
1, 8206, Note_off_c, 0, 65, 97
1, 8236, Note_on_c, 0, 65, 117
1, 8335, Note_off_c, 0, 65, 117
1, 8340, Note_on_c, 0, 64, 96
1, 8369, Note_off_c, 0, 64, 96
1, 8531, Note_on_c, 0, 62, 84
1, 8589, Note_off_c, 0, 62, 84
1, 8621, Note_on_c, 0, 62, 108
1, 8660, Note_off_c, 0, 62, 108
1, 8757, Note_on_c, 0, 62, 120
1, 8794, Note_off_c, 0, 62, 120
1, 8863, Note_on_c, 0, 62, 111
1, 8912, Note_off_c, 0, 62, 111
1, 9008, Note_on_c, 0, 65, 119
1, 9090, Note_off_c, 0, 65, 119
1, 9090, Note_on_c, 0, 64, 116
1, 9108, Note_off_c, 0, 64, 116
1, 9293, Note_on_c, 0, 59, 106
1, 9316, Note_off_c, 0, 59, 106
1, 9392, Note_on_c, 0, 62, 99
1, 9423, Note_off_c, 0, 62, 99
1, 9474, Note_on_c, 0, 62, 103
1, 9507, Note_off_c, 0, 62, 103
1, 9572, Note_on_c, 0, 62, 115
1, 9672, Note_off_c, 0, 62, 115
1, 9689, Note_on_c, 0, 62, 113
1, 9775, Note_off_c, 0, 62, 113
1, 9783, Note_on_c, 0, 65, 116
1, 9878, Note_off_c, 0, 65, 116
1, 10018, Note_on_c, 0, 59, 113
1, 10041, Note_off_c, 0, 59, 113
1, 10065, Note_on_c, 0, 62, 112
1, 10107, Note_off_c, 0, 62, 112
1, 10161, Note_on_c, 0, 62, 112
1, 10261, Note_off_c, 0, 62, 112
1, 10364, Note_on_c, 0, 62, 114
1, 10466, Note_off_c, 0, 62, 114
1, 10541, Note_on_c, 0, 65, 114
1, 10618, Note_off_c, 0, 65, 114
1, 10773, Note_on_c, 0, 59, 105
1, 10814, Note_off_c, 0, 59, 105
1, 10829, Note_on_c, 0, 62, 105
1, 10863, Note_off_c, 0, 62, 105
1, 10918, Note_on_c, 0, 62, 91
1, 10948, Note_off_c, 0, 62, 91
1, 11020, Note_on_c, 0, 62, 103
1, 11050, Note_off_c, 0, 62, 103
1, 11122, Note_on_c, 0, 62, 112
1, 11201, Note_off_c, 0, 62, 112
1, 11305, Note_on_c, 0, 65, 115
1, 11402, Note_off_c, 0, 65, 115
1, 11534, Note_on_c, 0, 59, 110
1, 11559, Note_off_c, 0, 59, 110
1, 11583, Note_on_c, 0, 62, 115
1, 11625, Note_off_c, 0, 62, 115
1, 11686, Note_on_c, 0, 62, 103
1, 11764, Note_off_c, 0, 62, 103
1, 11789, Note_on_c, 0, 62, 117
1, 11826, Note_off_c, 0, 62, 117
1, 11895, Note_on_c, 0, 62, 111
1, 11983, Note_off_c, 0, 62, 111
1, 12002, Note_on_c, 0, 59, 100
1, 12052, Note_off_c, 0, 59, 100
1, 12064, Note_on_c, 0, 65, 110
1, 12158, Note_off_c, 0, 65, 110
1, 12294, Note_on_c, 0, 59, 112
1, 12327, Note_off_c, 0, 59, 112
1, 12340, Note_on_c, 0, 62, 111
1, 12461, Note_off_c, 0, 62, 111
1, 12470, Note_on_c, 0, 59, 97
1, 12537, Note_off_c, 0, 59, 97
1, 12573, Note_on_c, 0, 62, 115
1, 12628, Note_off_c, 0, 62, 115
1, 12673, Note_on_c, 0, 59, 97
1, 12742, Note_off_c, 0, 59, 97
1, 12749, Note_on_c, 0, 62, 113
1, 12838, Note_off_c, 0, 62, 113
1, 12838, Note_on_c, 0, 65, 115
1, 12926, Note_off_c, 0, 65, 115
1, 13089, Note_on_c, 0, 59, 100
1, 13119, Note_off_c, 0, 59, 100
1, 13126, Note_on_c, 0, 62, 115
1, 13206, Note_off_c, 0, 62, 115
1, 13216, Note_on_c, 0, 62, 111
1, 13307, Note_off_c, 0, 62, 111
1, 13319, Note_on_c, 0, 62, 113
1, 13395, Note_off_c, 0, 62, 113
1, 13413, Note_on_c, 0, 62, 107
1, 13484, Note_off_c, 0, 62, 107
1, 13496, Note_on_c, 0, 62, 106
1, 13584, Note_off_c, 0, 62, 106
1, 13591, Note_on_c, 0, 67, 110
1, 13611, Note_off_c, 0, 67, 110
1, 13612, Note_on_c, 0, 68, 117
1, 13625, Note_off_c, 0, 68, 117
1, 13627, Note_on_c, 0, 69, 121
1, 13685, Note_off_c, 0, 69, 121
1, 13841, Note_on_c, 0, 59, 96
1, 13872, Note_off_c, 0, 59, 96
1, 13876, Note_on_c, 0, 62, 107
1, 13972, Note_off_c, 0, 62, 107
1, 13979, Note_on_c, 0, 62, 114
1, 14074, Note_off_c, 0, 62, 114
1, 14074, Note_on_c, 0, 67, 114
1, 14108, Note_off_c, 0, 67, 114
1, 14108, Note_on_c, 0, 68, 118
1, 14126, Note_off_c, 0, 68, 118
1, 14128, Note_on_c, 0, 69, 119
1, 14164, Note_off_c, 0, 69, 119
1, 14173, Note_on_c, 0, 67, 112
1, 14256, Note_off_c, 0, 67, 112
1, 14269, Note_on_c, 0, 65, 105
1, 14336, Note_off_c, 0, 65, 105
1, 14352, Note_on_c, 0, 62, 116
1, 14431, Note_off_c, 0, 62, 116
1, 14431, Note_on_c, 0, 61, 101
1, 14455, Note_off_c, 0, 61, 101
1, 14626, Note_on_c, 0, 59, 99
1, 14650, Note_off_c, 0, 59, 99
1, 14732, Note_on_c, 0, 62, 113
1, 14781, Note_off_c, 0, 62, 113
1, 14783, Note_on_c, 0, 63, 113
1, 14832, Note_off_c, 0, 63, 113
1, 14850, Note_on_c, 0, 59, 100
1, 14899, Note_off_c, 0, 59, 100
1, 14944, Note_on_c, 0, 65, 112
1, 15034, Note_off_c, 0, 65, 112
1, 15113, Note_on_c, 0, 67, 100
1, 15133, Note_off_c, 0, 67, 100
1, 15137, Note_on_c, 0, 68, 118
1, 15155, Note_off_c, 0, 68, 118
1, 15157, Note_on_c, 0, 69, 120
1, 15193, Note_off_c, 0, 69, 120
1, 15395, Note_on_c, 0, 62, 100
1, 15435, Note_off_c, 0, 62, 100
1, 15485, Note_on_c, 0, 67, 119
1, 15551, Note_off_c, 0, 67, 119
1, 15552, Note_on_c, 0, 68, 118
1, 15599, Note_off_c, 0, 68, 118
1, 15601, Note_on_c, 0, 65, 108
1, 15639, Note_off_c, 0, 65, 108
1, 15696, Note_on_c, 0, 67, 115
1, 15745, Note_off_c, 0, 67, 115
1, 15745, Note_on_c, 0, 68, 115
1, 15785, Note_off_c, 0, 68, 115
1, 15786, Note_on_c, 0, 65, 95
1, 15831, Note_off_c, 0, 65, 95
1, 15869, Note_on_c, 0, 67, 121
1, 15911, Note_off_c, 0, 67, 121
1, 15916, Note_on_c, 0, 66, 118
1, 15934, Note_off_c, 0, 66, 118
1, 15936, Note_on_c, 0, 68, 119
1, 15969, Note_off_c, 0, 68, 119
1, 15969, Note_on_c, 0, 65, 109
1, 16036, Note_off_c, 0, 65, 109
1, 16063, Note_on_c, 0, 67, 114
1, 16109, Note_off_c, 0, 67, 114
1, 16155, Note_on_c, 0, 67, 105
1, 16226, Note_off_c, 0, 67, 105
1, 16266, Note_on_c, 0, 67, 118
1, 16361, Note_off_c, 0, 67, 118
1, 16370, Note_on_c, 0, 65, 90
1, 16449, Note_off_c, 0, 65, 90
1, 16456, Note_on_c, 0, 67, 111
1, 16548, Note_off_c, 0, 67, 111
1, 16555, Note_on_c, 0, 65, 95
1, 16589, Note_off_c, 0, 65, 95
1, 16644, Note_on_c, 0, 67, 119
1, 16747, Note_off_c, 0, 67, 119
1, 16747, Note_on_c, 0, 65, 94
1, 16805, Note_off_c, 0, 65, 94
1, 16844, Note_on_c, 0, 67, 111
1, 16930, Note_off_c, 0, 67, 111
1, 16937, Note_on_c, 0, 65, 95
1, 16993, Note_off_c, 0, 65, 95
1, 17040, Note_on_c, 0, 67, 115
1, 17126, Note_off_c, 0, 67, 115
1, 17127, Note_on_c, 0, 65, 107
1, 17166, Note_off_c, 0, 65, 107
1, 17237, Note_on_c, 0, 67, 110
1, 17309, Note_off_c, 0, 67, 110
1, 17317, Note_on_c, 0, 67, 99
1, 17363, Note_off_c, 0, 67, 99
1, 17510, Note_on_c, 0, 65, 113
1, 17601, Note_off_c, 0, 65, 113
1, 17618, Note_on_c, 0, 68, 105
1, 17651, Note_off_c, 0, 68, 105
1, 17653, Note_on_c, 0, 69, 110
1, 17678, Note_off_c, 0, 69, 110
1, 17681, Note_on_c, 0, 70, 85
1, 17719, Note_off_c, 0, 70, 85
1, 17719, Note_on_c, 0, 72, 111
1, 17766, Note_off_c, 0, 72, 111
1, 17815, Note_on_c, 0, 72, 114
1, 17884, Note_off_c, 0, 72, 114
1, 17885, Note_on_c, 0, 74, 114
1, 17945, Note_off_c, 0, 74, 114
1, 18009, Note_on_c, 0, 68, 111
1, 18049, Note_off_c, 0, 68, 111
1, 18052, Note_on_c, 0, 67, 95
1, 18074, Note_off_c, 0, 67, 95
1, 18188, Note_on_c, 0, 67, 116
1, 18359, Note_off_c, 0, 67, 116
1, 18392, Note_on_c, 0, 65, 114
1, 18463, Note_off_c, 0, 65, 114
1, 18495, Note_on_c, 0, 62, 112
1, 18637, Note_off_c, 0, 62, 112
1, 18657, Note_on_c, 0, 62, 112
1, 18742, Note_off_c, 0, 62, 112
1, 18770, Note_on_c, 0, 62, 106
1, 18846, Note_off_c, 0, 62, 106
1, 18855, Note_on_c, 0, 68, 112
1, 18894, Note_off_c, 0, 68, 112
1, 18894, Note_on_c, 0, 69, 112
1, 18905, Note_off_c, 0, 69, 112
1, 18909, Note_on_c, 0, 70, 84
1, 18940, Note_off_c, 0, 70, 84
1, 19272, Note_on_c, 0, 62, 99
1, 19317, Note_off_c, 0, 62, 99
1, 19350, Note_on_c, 0, 72, 104
1, 19425, Note_off_c, 0, 72, 104
1, 19434, Note_on_c, 0, 74, 117
1, 19530, Note_off_c, 0, 74, 117
1, 19544, Note_on_c, 0, 75, 115
1, 19569, Note_off_c, 0, 75, 115
1, 19582, Note_on_c, 0, 76, 111
1, 19696, Note_off_c, 0, 76, 111
1, 19699, Note_on_c, 0, 77, 109
1, 20592, Note_off_c, 0, 77, 109
1, 20690, Note_on_c, 0, 74, 110
1, 20725, Note_off_c, 0, 74, 110
1, 20737, Note_on_c, 0, 73, 108
1, 20754, Note_off_c, 0, 73, 108
1, 20771, Note_on_c, 0, 72, 98
1, 20800, Note_off_c, 0, 72, 98
1, 20890, Note_on_c, 0, 68, 118
1, 20922, Note_off_c, 0, 68, 118
1, 20932, Note_on_c, 0, 67, 113
1, 20939, Note_off_c, 0, 67, 113
1, 20946, Note_on_c, 0, 66, 102
1, 20963, Note_off_c, 0, 66, 102
1, 21087, Note_on_c, 0, 67, 111
1, 21184, Note_off_c, 0, 67, 111
1, 21185, Note_on_c, 0, 65, 95
1, 21265, Note_off_c, 0, 65, 95
1, 21265, Note_on_c, 0, 67, 113
1, 21461, Note_off_c, 0, 67, 113
1, 21475, Note_on_c, 0, 65, 113
1, 21563, Note_off_c, 0, 65, 113
1, 21575, Note_on_c, 0, 65, 113
1, 21687, Note_off_c, 0, 65, 113
1, 21744, Note_on_c, 0, 65, 116
1, 21817, Note_off_c, 0, 65, 116
1, 21817, Note_on_c, 0, 64, 108
1, 21823, Note_off_c, 0, 64, 108
1, 21825, Note_on_c, 0, 62, 106
1, 21844, Note_off_c, 0, 62, 106
1, 22392, Note_on_c, 0, 69, 122
1, 22458, Note_on_c, 0, 72, 102
1, 22458, Note_off_c, 0, 69, 122
1, 22515, Note_off_c, 0, 72, 102
1, 22520, Note_on_c, 0, 74, 115
1, 22579, Note_off_c, 0, 74, 115
1, 22582, Note_on_c, 0, 77, 110
1, 22628, Note_off_c, 0, 77, 110
1, 22693, Note_on_c, 0, 79, 115
1, 22751, Note_on_c, 0, 80, 117
1, 22751, Note_off_c, 0, 79, 115
1, 22769, Note_off_c, 0, 80, 117
1, 22771, Note_on_c, 0, 81, 102
1, 22815, Note_off_c, 0, 81, 102
1, 22854, Note_on_c, 0, 79, 113
1, 22945, Note_off_c, 0, 79, 113
1, 22981, Note_on_c, 0, 78, 116
1, 23042, Note_off_c, 0, 78, 116
1, 23043, Note_on_c, 0, 77, 116
1, 23071, Note_off_c, 0, 77, 116
1, 23114, Note_on_c, 0, 74, 122
1, 23190, Note_off_c, 0, 74, 122
1, 23208, Note_on_c, 0, 72, 107
1, 23246, Note_off_c, 0, 72, 107
1, 23253, Note_on_c, 0, 74, 115
1, 23427, Note_off_c, 0, 74, 115
1, 23448, Note_on_c, 0, 72, 104
1, 23490, Note_off_c, 0, 72, 104
1, 23535, Note_on_c, 0, 69, 121
1, 23593, Note_off_c, 0, 69, 121
1, 23595, Note_on_c, 0, 68, 116
1, 23655, Note_off_c, 0, 68, 116
1, 23741, Note_on_c, 0, 67, 114
1, 23781, Note_off_c, 0, 67, 114
1, 23789, Note_on_c, 0, 67, 111
1, 23836, Note_off_c, 0, 67, 111
1, 23843, Note_on_c, 0, 65, 89
1, 23868, Note_off_c, 0, 65, 89
1, 23933, Note_on_c, 0, 67, 115
1, 24026, Note_off_c, 0, 67, 115
1, 24029, Note_on_c, 0, 65, 108
1, 24057, Note_off_c, 0, 65, 108
1, 24141, Note_on_c, 0, 68, 111
1, 24182, Note_off_c, 0, 68, 111
1, 24217, Note_on_c, 0, 67, 118
1, 24309, Note_off_c, 0, 67, 118
1, 24311, Note_on_c, 0, 65, 119
1, 24407, Note_off_c, 0, 65, 119
1, 24419, Note_on_c, 0, 65, 105
1, 24602, Note_off_c, 0, 65, 105
1, 24618, Note_on_c, 0, 62, 112
1, 24774, Note_off_c, 0, 62, 112
1, 24801, Note_on_c, 0, 62, 110
1, 24873, Note_off_c, 0, 62, 110
1, 25356, Note_on_c, 0, 75, 117
1, 25383, Note_off_c, 0, 75, 117
1, 25387, Note_on_c, 0, 76, 121
1, 25453, Note_off_c, 0, 76, 121
1, 25453, Note_on_c, 0, 77, 118
1, 25544, Note_off_c, 0, 77, 118
1, 25557, Note_on_c, 0, 74, 113
1, 25588, Note_off_c, 0, 74, 113
1, 25678, Note_on_c, 0, 76, 117
1, 25813, Note_off_c, 0, 76, 117
1, 25816, Note_on_c, 0, 77, 109
1, 25924, Note_off_c, 0, 77, 109
1, 25945, Note_on_c, 0, 74, 112
1, 25976, Note_off_c, 0, 74, 112
1, 26037, Note_on_c, 0, 76, 118
1, 26140, Note_off_c, 0, 76, 118
1, 26141, Note_on_c, 0, 77, 118
1, 26221, Note_off_c, 0, 77, 118
1, 26223, Note_on_c, 0, 78, 78
1, 26280, Note_off_c, 0, 78, 78
1, 26342, Note_on_c, 0, 74, 106
1, 26369, Note_off_c, 0, 74, 106
1, 26501, Note_on_c, 0, 74, 91
1, 26535, Note_off_c, 0, 74, 91
1, 26600, Note_on_c, 0, 74, 110
1, 26620, Note_off_c, 0, 74, 110
1, 26620, Note_on_c, 0, 75, 125
1, 26640, Note_off_c, 0, 75, 125
1, 26642, Note_on_c, 0, 76, 119
1, 26690, Note_off_c, 0, 76, 119
1, 26690, Note_on_c, 0, 77, 119
1, 26748, Note_off_c, 0, 77, 119
1, 26749, Note_on_c, 0, 75, 104
1, 26764, Note_off_c, 0, 75, 104
1, 26764, Note_on_c, 0, 74, 89
1, 26772, Note_off_c, 0, 74, 89
1, 26860, Note_on_c, 0, 74, 114
1, 26891, Note_off_c, 0, 74, 114
1, 26891, Note_on_c, 0, 73, 90
1, 26898, Note_off_c, 0, 73, 90
1, 27000, Note_on_c, 0, 74, 111
1, 27029, Note_off_c, 0, 74, 111
1, 27029, Note_on_c, 0, 73, 99
1, 27037, Note_off_c, 0, 73, 99
1, 27129, Note_on_c, 0, 74, 119
1, 27160, Note_off_c, 0, 74, 119
1, 27237, Note_on_c, 0, 74, 112
1, 27267, Note_off_c, 0, 74, 112
1, 27342, Note_on_c, 0, 74, 102
1, 27356, Note_off_c, 0, 74, 102
1, 27360, Note_on_c, 0, 75, 120
1, 27366, Note_off_c, 0, 75, 120
1, 27369, Note_on_c, 0, 76, 123
1, 27378, Note_off_c, 0, 76, 123
1, 27381, Note_on_c, 0, 77, 123
1, 27456, Note_off_c, 0, 77, 123
1, 27458, Note_on_c, 0, 76, 116
1, 27470, Note_off_c, 0, 76, 116
1, 27473, Note_on_c, 0, 75, 87
1, 27477, Note_off_c, 0, 75, 87
1, 27604, Note_on_c, 0, 74, 115
1, 27628, Note_off_c, 0, 74, 115
1, 27628, Note_on_c, 0, 73, 94
1, 27636, Note_off_c, 0, 73, 94
1, 27746, Note_on_c, 0, 74, 121
1, 27778, Note_off_c, 0, 74, 121
1, 27780, Note_on_c, 0, 73, 99
1, 27791, Note_off_c, 0, 73, 99
1, 27875, Note_on_c, 0, 74, 115
1, 27920, Note_off_c, 0, 74, 115
1, 27986, Note_on_c, 0, 74, 115
1, 28020, Note_off_c, 0, 74, 115
1, 28020, Note_on_c, 0, 73, 98
1, 28030, Note_off_c, 0, 73, 98
1, 28118, Note_on_c, 0, 74, 114
1, 28158, Note_off_c, 0, 74, 114
1, 28240, Note_on_c, 0, 74, 112
1, 28284, Note_off_c, 0, 74, 112
1, 28361, Note_on_c, 0, 74, 117
1, 28401, Note_off_c, 0, 74, 117
1, 28508, Note_on_c, 0, 74, 119
1, 28579, Note_off_c, 0, 74, 119
1, 28587, Note_on_c, 0, 74, 118
1, 28636, Note_off_c, 0, 74, 118
1, 28699, Note_on_c, 0, 74, 92
1, 28724, Note_off_c, 0, 74, 92
1, 28780, Note_on_c, 0, 74, 116
1, 28801, Note_off_c, 0, 74, 116
1, 28862, Note_on_c, 0, 75, 96
1, 28887, Note_off_c, 0, 75, 96
1, 28889, Note_on_c, 0, 76, 123
1, 28905, Note_off_c, 0, 76, 123
1, 28913, Note_on_c, 0, 77, 116
1, 28961, Note_off_c, 0, 77, 116
1, 28963, Note_on_c, 0, 76, 111
1, 28973, Note_off_c, 0, 76, 111
1, 29117, Note_on_c, 0, 74, 113
1, 29145, Note_off_c, 0, 74, 113
1, 29151, Note_on_c, 0, 72, 94
1, 29158, Note_off_c, 0, 72, 94
1, 29255, Note_on_c, 0, 74, 115
1, 29299, Note_off_c, 0, 74, 115
1, 29299, Note_on_c, 0, 72, 103
1, 29311, Note_off_c, 0, 72, 103
1, 29392, Note_on_c, 0, 74, 117
1, 29428, Note_off_c, 0, 74, 117
1, 29494, Note_on_c, 0, 74, 113
1, 29536, Note_off_c, 0, 74, 113
1, 29626, Note_on_c, 0, 74, 113
1, 29668, Note_off_c, 0, 74, 113
1, 29753, Note_on_c, 0, 74, 113
1, 29789, Note_off_c, 0, 74, 113
1, 29792, Note_on_c, 0, 73, 84
1, 29804, Note_off_c, 0, 73, 84
1, 29882, Note_on_c, 0, 74, 111
1, 29925, Note_off_c, 0, 74, 111
1, 30014, Note_on_c, 0, 74, 117
1, 30047, Note_off_c, 0, 74, 117
1, 30115, Note_on_c, 0, 74, 111
1, 30146, Note_off_c, 0, 74, 111
1, 30218, Note_on_c, 0, 74, 112
1, 30375, Note_off_c, 0, 74, 112
1, 30404, Note_on_c, 0, 76, 114
1, 30426, Note_off_c, 0, 76, 114
1, 30431, Note_on_c, 0, 79, 117
1, 30469, Note_off_c, 0, 79, 117
1, 30469, Note_on_c, 0, 78, 106
1, 30478, Note_off_c, 0, 78, 106
1, 30478, Note_on_c, 0, 77, 89
1, 30487, Note_off_c, 0, 77, 89
1, 30609, Note_on_c, 0, 74, 109
1, 30644, Note_off_c, 0, 74, 109
1, 30645, Note_on_c, 0, 73, 98
1, 30657, Note_off_c, 0, 73, 98
1, 30769, Note_on_c, 0, 75, 118
1, 30810, Note_off_c, 0, 75, 118
1, 30811, Note_on_c, 0, 74, 83
1, 30822, Note_off_c, 0, 74, 83
1, 30895, Note_on_c, 0, 74, 114
1, 30932, Note_off_c, 0, 74, 114
1, 30932, Note_on_c, 0, 73, 93
1, 30946, Note_off_c, 0, 73, 93
1, 31008, Note_on_c, 0, 73, 111
1, 31045, Note_off_c, 0, 73, 111
1, 31045, Note_on_c, 0, 72, 107
1, 31061, Note_off_c, 0, 72, 107
1, 31242, Note_on_c, 0, 74, 121
1, 31279, Note_off_c, 0, 74, 121
1, 31279, Note_on_c, 0, 72, 119
1, 31293, Note_off_c, 0, 72, 119
1, 31463, Note_on_c, 0, 76, 77
1, 31501, Note_off_c, 0, 76, 77
1, 31564, Note_on_c, 0, 82, 101
1, 31627, Note_off_c, 0, 82, 101
1, 31635, Note_on_c, 0, 84, 115
1, 31976, Note_off_c, 0, 84, 115
1, 31980, Note_on_c, 0, 83, 113
1, 31993, Note_off_c, 0, 83, 113
1, 31993, Note_on_c, 0, 82, 100
1, 32003, Note_off_c, 0, 82, 100
1, 32005, Note_on_c, 0, 80, 117
1, 32047, Note_off_c, 0, 80, 117
1, 32051, Note_on_c, 0, 81, 114
1, 32192, Note_off_c, 0, 81, 114
1, 32192, Note_on_c, 0, 80, 115
1, 32239, Note_off_c, 0, 80, 115
1, 32585, Note_on_c, 0, 83, 114
1, 32615, Note_off_c, 0, 83, 114
1, 32619, Note_on_c, 0, 82, 112
1, 32659, Note_off_c, 0, 82, 112
1, 32663, Note_on_c, 0, 84, 116
1, 32751, Note_off_c, 0, 84, 116
1, 32758, Note_on_c, 0, 83, 109
1, 32771, Note_off_c, 0, 83, 109
1, 32778, Note_on_c, 0, 81, 110
1, 32790, Note_off_c, 0, 81, 110
1, 32797, Note_on_c, 0, 79, 104
1, 32831, Note_off_c, 0, 79, 104
1, 32831, Note_on_c, 0, 80, 111
1, 32858, Note_off_c, 0, 80, 111
1, 32868, Note_on_c, 0, 81, 108
1, 32956, Note_off_c, 0, 81, 108
1, 32960, Note_on_c, 0, 80, 85
1, 32991, Note_off_c, 0, 80, 85
1, 33277, Note_on_c, 0, 79, 118
1, 33348, Note_off_c, 0, 79, 118
1, 33451, Note_on_c, 0, 77, 114
1, 33487, Note_off_c, 0, 77, 114
1, 33487, Note_on_c, 0, 83, 116
1, 33527, Note_off_c, 0, 83, 116
1, 33529, Note_on_c, 0, 84, 116
1, 33589, Note_off_c, 0, 84, 116
1, 33655, Note_on_c, 0, 77, 109
1, 33695, Note_off_c, 0, 77, 109
1, 33695, Note_on_c, 0, 81, 111
1, 33780, Note_off_c, 0, 81, 111
1, 33785, Note_on_c, 0, 80, 101
1, 33792, Note_off_c, 0, 80, 101
1, 33795, Note_on_c, 0, 79, 87
1, 33805, Note_off_c, 0, 79, 87
1, 34038, Note_on_c, 0, 84, 121
1, 34102, Note_off_c, 0, 84, 121
1, 34112, Note_on_c, 0, 83, 104
1, 34124, Note_off_c, 0, 83, 104
1, 34127, Note_on_c, 0, 82, 113
1, 34138, Note_off_c, 0, 82, 113
1, 34143, Note_on_c, 0, 80, 108
1, 34211, Note_off_c, 0, 80, 108
1, 34222, Note_on_c, 0, 81, 108
1, 34339, Note_off_c, 0, 81, 108
1, 34428, Note_on_c, 0, 79, 115
1, 34474, Note_off_c, 0, 79, 115
1, 34518, Note_on_c, 0, 77, 82
1, 34570, Note_off_c, 0, 77, 82
1, 34617, Note_on_c, 0, 74, 116
1, 34681, Note_off_c, 0, 74, 116
1, 34700, Note_on_c, 0, 72, 112
1, 34737, Note_off_c, 0, 72, 112
1, 34816, Note_on_c, 0, 68, 112
1, 34902, Note_on_c, 0, 67, 89
1, 34902, Note_off_c, 0, 68, 112
1, 34924, Note_off_c, 0, 67, 89
1, 34983, Note_on_c, 0, 79, 118
1, 35096, Note_off_c, 0, 79, 118
1, 35096, Note_on_c, 0, 77, 112
1, 35145, Note_off_c, 0, 77, 112
1, 35199, Note_on_c, 0, 69, 93
1, 35234, Note_off_c, 0, 69, 93
1, 35234, Note_on_c, 0, 70, 106
1, 35284, Note_off_c, 0, 70, 106
1, 35288, Note_on_c, 0, 74, 110
1, 35313, Note_off_c, 0, 74, 110
1, 35381, Note_on_c, 0, 80, 119
1, 35423, Note_off_c, 0, 80, 119
1, 35431, Note_on_c, 0, 79, 107
1, 35478, Note_off_c, 0, 79, 107
1, 35505, Note_on_c, 0, 65, 100
1, 35537, Note_off_c, 0, 65, 100
1, 35584, Note_on_c, 0, 67, 110
1, 35671, Note_off_c, 0, 67, 110
1, 35672, Note_on_c, 0, 65, 96
1, 35716, Note_off_c, 0, 65, 96
1, 35750, Note_on_c, 0, 67, 117
1, 35859, Note_off_c, 0, 67, 117
1, 35861, Note_on_c, 0, 65, 98
1, 35909, Note_off_c, 0, 65, 98
1, 35953, Note_on_c, 0, 67, 115
1, 36049, Note_off_c, 0, 67, 115
1, 36054, Note_on_c, 0, 65, 86
1, 36098, Note_off_c, 0, 65, 86
1, 36145, Note_on_c, 0, 67, 122
1, 36239, Note_off_c, 0, 67, 122
1, 36248, Note_on_c, 0, 65, 96
1, 36292, Note_off_c, 0, 65, 96
1, 36350, Note_on_c, 0, 68, 106
1, 36390, Note_off_c, 0, 68, 106
1, 36459, Note_on_c, 0, 67, 117
1, 36485, Note_off_c, 0, 67, 117
1, 36487, Note_on_c, 0, 65, 121
1, 36519, Note_off_c, 0, 65, 121
1, 36519, Note_on_c, 0, 61, 119
1, 36535, Note_off_c, 0, 61, 119
1, 36535, Note_on_c, 0, 62, 118
1, 36640, Note_off_c, 0, 62, 118
1, 36640, Note_on_c, 0, 60, 101
1, 36694, Note_off_c, 0, 60, 101
1, 36713, Note_on_c, 0, 62, 111
1, 36806, Note_off_c, 0, 62, 111
1, 36821, Note_on_c, 0, 65, 120
1, 36972, Note_off_c, 0, 65, 120
1, 36986, Note_on_c, 0, 65, 114
1, 37052, Note_off_c, 0, 65, 114
1, 37052, Note_on_c, 0, 64, 98
1, 37070, Note_off_c, 0, 64, 98
1, 37295, Note_on_c, 0, 69, 115
1, 37349, Note_off_c, 0, 69, 115
1, 37356, Note_on_c, 0, 72, 107
1, 37419, Note_off_c, 0, 72, 107
1, 37427, Note_on_c, 0, 82, 97
1, 37469, Note_off_c, 0, 82, 97
1, 37481, Note_on_c, 0, 84, 101
1, 37533, Note_off_c, 0, 84, 101
1, 37571, Note_on_c, 0, 81, 101
1, 37632, Note_off_c, 0, 81, 101
1, 37674, Note_on_c, 0, 84, 100
1, 37745, Note_off_c, 0, 84, 100
1, 37799, Note_on_c, 0, 78, 109
1, 37850, Note_off_c, 0, 78, 109
1, 37914, Note_on_c, 0, 84, 95
1, 37985, Note_off_c, 0, 84, 95
1, 37985, Note_on_c, 0, 85, 101
1, 37995, Note_off_c, 0, 85, 101
1, 37995, Note_on_c, 0, 86, 99
1, 38243, Note_off_c, 0, 86, 99
1, 38268, Note_on_c, 0, 84, 107
1, 38325, Note_off_c, 0, 84, 107
1, 38361, Note_on_c, 0, 82, 123
1, 38423, Note_off_c, 0, 82, 123
1, 38447, Note_on_c, 0, 80, 85
1, 38464, Note_off_c, 0, 80, 85
1, 38467, Note_on_c, 0, 81, 113
1, 38526, Note_off_c, 0, 81, 113
1, 38532, Note_on_c, 0, 79, 117
1, 38598, Note_off_c, 0, 79, 117
1, 38637, Note_on_c, 0, 77, 117
1, 38711, Note_off_c, 0, 77, 117
1, 38717, Note_on_c, 0, 74, 115
1, 38769, Note_off_c, 0, 74, 115
1, 38814, Note_on_c, 0, 74, 122
1, 38910, Note_off_c, 0, 74, 122
1, 38910, Note_on_c, 0, 72, 115
1, 38953, Note_off_c, 0, 72, 115
1, 39009, Note_on_c, 0, 68, 113
1, 39114, Note_off_c, 0, 68, 113
1, 39118, Note_on_c, 0, 65, 98
1, 39164, Note_off_c, 0, 65, 98
1, 39194, Note_on_c, 0, 67, 118
1, 39295, Note_off_c, 0, 67, 118
1, 39297, Note_on_c, 0, 65, 110
1, 39324, Note_off_c, 0, 65, 110
1, 39500, Note_on_c, 0, 84, 86
1, 39545, Note_off_c, 0, 84, 86
1, 39660, Note_on_c, 0, 85, 104
1, 39763, Note_off_c, 0, 85, 104
1, 39798, Note_on_c, 0, 82, 99
1, 39842, Note_off_c, 0, 82, 99
1, 39880, Note_on_c, 0, 79, 114
1, 39950, Note_off_c, 0, 79, 114
1, 39960, Note_on_c, 0, 77, 119
1, 40022, Note_off_c, 0, 77, 119
1, 40029, Note_on_c, 0, 74, 118
1, 40095, Note_off_c, 0, 74, 118
1, 40152, Note_on_c, 0, 74, 113
1, 40316, Note_off_c, 0, 74, 113
1, 40320, Note_on_c, 0, 72, 115
1, 40392, Note_off_c, 0, 72, 115
1, 40428, Note_on_c, 0, 68, 119
1, 40480, Note_off_c, 0, 68, 119
1, 40480, Note_on_c, 0, 67, 99
1, 40504, Note_off_c, 0, 67, 99
1, 40621, Note_on_c, 0, 65, 97
1, 40674, Note_off_c, 0, 65, 97
1, 40714, Note_on_c, 0, 67, 122
1, 40791, Note_off_c, 0, 67, 122
1, 40817, Note_on_c, 0, 65, 93
1, 40873, Note_off_c, 0, 65, 93
1, 40908, Note_on_c, 0, 67, 114
1, 40953, Note_off_c, 0, 67, 114
1, 40953, Note_on_c, 0, 68, 110
1, 41011, Note_off_c, 0, 68, 110
1, 41016, Note_on_c, 0, 67, 93
1, 41082, Note_off_c, 0, 67, 93
1, 41089, Note_on_c, 0, 65, 127
1, 41170, Note_off_c, 0, 65, 127
1, 41185, Note_on_c, 0, 62, 109
1, 41390, Note_off_c, 0, 62, 109
1, 41392, Note_on_c, 0, 65, 120
1, 41531, Note_off_c, 0, 65, 120
1, 41598, Note_on_c, 0, 65, 119
1, 41692, Note_off_c, 0, 65, 119
1, 41695, Note_on_c, 0, 64, 95
1, 41734, Note_off_c, 0, 64, 95
1, 41854, Note_on_c, 0, 62, 118
1, 41959, Note_off_c, 0, 62, 118
1, 41980, Note_on_c, 0, 59, 104
1, 42048, Note_off_c, 0, 59, 104
1, 42059, Note_on_c, 0, 62, 114
1, 42169, Note_off_c, 0, 62, 114
1, 42169, Note_on_c, 0, 59, 98
1, 42225, Note_off_c, 0, 59, 98
1, 42244, Note_on_c, 0, 62, 117
1, 42365, Note_off_c, 0, 62, 117
1, 42377, Note_on_c, 0, 59, 96
1, 42422, Note_off_c, 0, 59, 96
1, 42433, Note_on_c, 0, 67, 110
1, 42518, Note_off_c, 0, 67, 110
1, 42528, Note_on_c, 0, 65, 113
1, 42606, Note_off_c, 0, 65, 113
1, 42616, Note_on_c, 0, 62, 117
1, 42707, Note_off_c, 0, 62, 117
1, 42716, Note_on_c, 0, 62, 108
1, 42806, Note_off_c, 0, 62, 108
1, 42817, Note_on_c, 0, 62, 105
1, 42903, Note_off_c, 0, 62, 105
1, 42913, Note_on_c, 0, 62, 106
1, 43090, Note_off_c, 0, 62, 106
1, 43104, Note_on_c, 0, 62, 108
1, 43158, Note_off_c, 0, 62, 108
1, 43380, Note_on_c, 0, 67, 117
1, 43419, Note_off_c, 0, 67, 117
1, 43426, Note_on_c, 0, 66, 112
1, 43445, Note_off_c, 0, 66, 112
1, 43445, Note_on_c, 0, 67, 113
1, 43483, Note_off_c, 0, 67, 113
1, 43492, Note_on_c, 0, 65, 98
1, 43554, Note_off_c, 0, 65, 98
1, 43563, Note_on_c, 0, 67, 113
1, 43655, Note_off_c, 0, 67, 113
1, 43659, Note_on_c, 0, 65, 91
1, 43720, Note_off_c, 0, 65, 91
1, 43757, Note_on_c, 0, 62, 114
1, 43878, Note_off_c, 0, 62, 114
1, 43890, Note_on_c, 0, 60, 102
1, 43946, Note_off_c, 0, 60, 102
1, 43951, Note_on_c, 0, 62, 104
1, 44118, Note_off_c, 0, 62, 104
1, 44118, Note_on_c, 0, 63, 113
1, 44151, Note_off_c, 0, 63, 113
1, 44161, Note_on_c, 0, 64, 116
1, 44312, Note_off_c, 0, 64, 116
1, 44314, Note_on_c, 0, 65, 110
1, 44382, Note_off_c, 0, 65, 110
1, 44437, Note_on_c, 0, 62, 108
1, 44571, Note_off_c, 0, 62, 108
1, 44619, Note_on_c, 0, 62, 110
1, 44696, Note_off_c, 0, 62, 110
1, 44726, Note_on_c, 0, 62, 101
1, 44863, Note_off_c, 0, 62, 101
1, 45093, Note_on_c, 0, 60, 105
1, 45160, Note_off_c, 0, 60, 105
1, 45160, Note_on_c, 0, 59, 90
1, 45187, Note_off_c, 0, 59, 90
1, 45277, Note_on_c, 0, 60, 100
1, 45576, Note_off_c, 0, 60, 100
1, 45576, Note_on_c, 0, 65, 113
1, 45630, Note_off_c, 0, 65, 113
1, 45630, Note_on_c, 0, 66, 115
1, 45653, Note_on_c, 0, 67, 119
1, 45653, Note_off_c, 0, 66, 115
1, 45762, Note_off_c, 0, 67, 119
1, 45768, Note_on_c, 0, 65, 111
1, 45842, Note_off_c, 0, 65, 111
1, 45956, Note_on_c, 0, 60, 109
1, 45978, Note_off_c, 0, 60, 109
1, 45979, Note_on_c, 0, 62, 105
1, 46052, Note_off_c, 0, 62, 105
1, 46133, Note_on_c, 0, 62, 106
1, 46208, Note_off_c, 0, 62, 106
1, 46211, Note_on_c, 0, 62, 97
1, 46368, Note_off_c, 0, 62, 97
1, 46598, Note_on_c, 0, 60, 105
1, 46629, Note_off_c, 0, 60, 105
1, 46629, Note_on_c, 0, 61, 104
1, 46643, Note_off_c, 0, 61, 104
1, 46649, Note_on_c, 0, 60, 95
1, 46683, Note_off_c, 0, 60, 95
1, 46796, Note_on_c, 0, 60, 102
1, 46965, Note_off_c, 0, 60, 102
1, 47277, Note_on_c, 0, 53, 92
1, 47322, Note_off_c, 0, 53, 92
1, 47365, Note_on_c, 0, 60, 110
1, 47405, Note_off_c, 0, 60, 110
1, 47413, Note_on_c, 0, 62, 99
1, 47643, Note_off_c, 0, 62, 99
1, 47670, Note_on_c, 0, 62, 101
1, 47739, Note_off_c, 0, 62, 101
1, 47761, Note_on_c, 0, 62, 102
1, 48048, Note_off_c, 0, 62, 102
1, 48139, Note_on_c, 0, 60, 100
1, 48223, Note_off_c, 0, 60, 100
1, 48332, Note_on_c, 0, 60, 92
1, 48486, Note_off_c, 0, 60, 92
1, 48903, Note_on_c, 0, 60, 112
1, 48948, Note_off_c, 0, 60, 112
1, 48948, Note_on_c, 0, 62, 95
1, 49176, Note_off_c, 0, 62, 95
1, 49209, Note_on_c, 0, 62, 99
1, 49377, Note_off_c, 0, 62, 99
1, 49675, Note_on_c, 0, 60, 100
1, 49758, Note_off_c, 0, 60, 100
1, 49998, Note_on_c, 0, 60, 95
1, 53107, Note_off_c, 0, 60, 95
1, 53107, End_track
0, 0, End_of_file
