0, 0, Header, 1, 1, 192
1, 0, Start_track
1, 0, Title_t, "Melody"
1, 0, Tempo, 204081
1, 0, Key_signature, -3, "major"
1, 0, Time_signature, 4, 2, 24, 8
1, 2778, Note_on_c, 0, 72, 112
1, 3492, Note_off_c, 0, 72, 112
1, 3547, Note_on_c, 0, 74, 117
1, 3628, Note_off_c, 0, 74, 117
1, 3749, Note_on_c, 0, 67, 99
1, 4039, Note_off_c, 0, 67, 99
1, 4051, Note_on_c, 0, 72, 114
1, 5029, Note_off_c, 0, 72, 114
1, 5281, Note_on_c, 0, 77, 125
1, 5570, Note_off_c, 0, 77, 125
1, 5575, Note_on_c, 0, 70, 98
1, 6017, Note_off_c, 0, 70, 98
1, 6059, Note_on_c, 0, 72, 103
1, 6373, Note_off_c, 0, 72, 103
1, 6418, Note_on_c, 0, 76, 117
1, 6495, Note_off_c, 0, 76, 117
1, 6501, Note_on_c, 0, 74, 94
1, 6539, Note_off_c, 0, 74, 94
1, 6802, Note_on_c, 0, 67, 101
1, 7059, Note_off_c, 0, 67, 101
1, 7079, Note_on_c, 0, 72, 110
1, 8153, Note_off_c, 0, 72, 110
1, 8326, Note_on_c, 0, 66, 111
1, 8402, Note_off_c, 0, 66, 111
1, 8414, Note_on_c, 0, 68, 105
1, 8493, Note_off_c, 0, 68, 105
1, 8501, Note_on_c, 0, 70, 118
1, 8589, Note_off_c, 0, 70, 118
1, 8602, Note_on_c, 0, 66, 107
1, 8668, Note_off_c, 0, 66, 107
1, 8695, Note_on_c, 0, 68, 115
1, 8804, Note_off_c, 0, 68, 115
1, 9103, Note_on_c, 0, 65, 119
1, 9176, Note_off_c, 0, 65, 119
1, 9199, Note_on_c, 0, 67, 113
1, 9265, Note_off_c, 0, 67, 113
1, 9278, Note_on_c, 0, 69, 116
1, 9357, Note_off_c, 0, 69, 116
1, 9359, Note_on_c, 0, 65, 110
1, 9434, Note_off_c, 0, 65, 110
1, 9461, Note_on_c, 0, 67, 112
1, 9553, Note_off_c, 0, 67, 112
1, 9671, Note_on_c, 0, 64, 117
1, 9949, Note_off_c, 0, 64, 117
1, 9955, Note_on_c, 0, 66, 112
1, 10027, Note_off_c, 0, 66, 112
1, 10052, Note_on_c, 0, 67, 112
1, 10128, Note_off_c, 0, 67, 112
1, 10158, Note_on_c, 0, 64, 108
1, 10231, Note_off_c, 0, 64, 108
1, 10240, Note_on_c, 0, 66, 114
1, 10315, Note_off_c, 0, 66, 114
1, 10589, Note_on_c, 0, 63, 111
1, 10668, Note_off_c, 0, 63, 111
1, 10677, Note_on_c, 0, 65, 118
1, 10750, Note_off_c, 0, 65, 118
1, 10789, Note_on_c, 0, 67, 97
1, 10842, Note_off_c, 0, 67, 97
1, 10866, Note_on_c, 0, 63, 111
1, 10924, Note_off_c, 0, 63, 111
1, 10989, Note_on_c, 0, 65, 121
1, 11114, Note_off_c, 0, 65, 121
1, 11712, Note_on_c, 0, 77, 127
1, 12020, Note_off_c, 0, 77, 127
1, 12022, Note_on_c, 0, 79, 121
1, 12893, Note_off_c, 0, 79, 121
1, 12909, Note_on_c, 0, 80, 121
1, 13228, Note_off_c, 0, 80, 121
1, 13237, Note_on_c, 0, 77, 124
1, 13553, Note_off_c, 0, 77, 124
1, 13559, Note_on_c, 0, 79, 123
1, 13852, Note_off_c, 0, 79, 123
1, 13867, Note_on_c, 0, 75, 119
1, 14148, Note_off_c, 0, 75, 119
1, 14157, Note_on_c, 0, 72, 108
1, 14226, Note_off_c, 0, 72, 108
1, 14363, Note_on_c, 0, 74, 96
1, 14548, Note_off_c, 0, 74, 96
1, 14580, Note_on_c, 0, 74, 117
1, 14746, Note_off_c, 0, 74, 117
1, 14758, Note_on_c, 0, 70, 115
1, 15048, Note_off_c, 0, 70, 115
1, 15062, Note_on_c, 0, 72, 119
1, 15483, Note_off_c, 0, 72, 119
1, 15491, Note_on_c, 0, 67, 94
1, 15615, Note_off_c, 0, 67, 94
1, 15716, Note_on_c, 0, 70, 121
1, 15901, Note_off_c, 0, 70, 121
1, 15918, Note_on_c, 0, 65, 114
1, 16199, Note_off_c, 0, 65, 114
1, 16215, Note_on_c, 0, 67, 117
1, 16501, Note_off_c, 0, 67, 117
1, 16537, Note_on_c, 0, 63, 89
1, 16654, Note_off_c, 0, 63, 89
1, 16728, Note_on_c, 0, 65, 118
1, 17252, Note_off_c, 0, 65, 118
1, 17385, Note_on_c, 0, 70, 115
1, 17425, Note_off_c, 0, 70, 115
1, 17440, Note_on_c, 0, 68, 115
1, 17517, Note_off_c, 0, 68, 115
1, 17529, Note_on_c, 0, 66, 111
1, 17597, Note_off_c, 0, 66, 111
1, 17612, Note_on_c, 0, 67, 105
1, 17647, Note_off_c, 0, 67, 105
1, 17655, Note_on_c, 0, 68, 108
1, 17708, Note_off_c, 0, 68, 108
1, 17709, Note_on_c, 0, 70, 120
1, 17885, Note_off_c, 0, 70, 120
1, 17905, Note_on_c, 0, 66, 113
1, 17953, Note_off_c, 0, 66, 113
1, 17972, Note_on_c, 0, 68, 107
1, 18046, Note_off_c, 0, 68, 107
1, 18083, Note_on_c, 0, 70, 117
1, 18245, Note_off_c, 0, 70, 117
1, 18272, Note_on_c, 0, 65, 112
1, 18358, Note_off_c, 0, 65, 112
1, 18416, Note_on_c, 0, 67, 112
1, 18497, Note_off_c, 0, 67, 112
1, 18529, Note_on_c, 0, 69, 111
1, 19046, Note_off_c, 0, 69, 111
1, 19063, Note_on_c, 0, 68, 108
1, 19132, Note_off_c, 0, 68, 108
1, 19165, Note_on_c, 0, 67, 109
1, 19218, Note_off_c, 0, 67, 109
1, 19250, Note_on_c, 0, 64, 112
1, 19717, Note_off_c, 0, 64, 112
1, 19733, Note_on_c, 0, 62, 102
1, 19768, Note_off_c, 0, 62, 102
1, 19794, Note_on_c, 0, 63, 111
1, 20127, Note_off_c, 0, 63, 111
1, 20142, Note_on_c, 0, 65, 113
1, 20279, Note_off_c, 0, 65, 113
1, 21651, Note_on_c, 0, 73, 118
1, 21726, Note_off_c, 0, 73, 118
1, 21752, Note_on_c, 0, 74, 108
1, 21817, Note_off_c, 0, 74, 108
1, 21832, Note_on_c, 0, 77, 120
1, 21914, Note_off_c, 0, 77, 120
1, 21923, Note_on_c, 0, 76, 118
1, 22011, Note_off_c, 0, 76, 118
1, 22031, Note_on_c, 0, 75, 111
1, 22079, Note_off_c, 0, 75, 111
1, 22087, Note_on_c, 0, 73, 97
1, 22120, Note_off_c, 0, 73, 97
1, 22125, Note_on_c, 0, 71, 109
1, 22211, Note_off_c, 0, 71, 109
1, 22222, Note_on_c, 0, 74, 115
1, 22350, Note_off_c, 0, 74, 115
1, 22363, Note_on_c, 0, 71, 112
1, 22434, Note_off_c, 0, 71, 112
1, 22441, Note_on_c, 0, 72, 111
1, 22525, Note_off_c, 0, 72, 111
1, 22530, Note_on_c, 0, 73, 112
1, 22569, Note_off_c, 0, 73, 112
1, 22572, Note_on_c, 0, 70, 110
1, 22603, Note_off_c, 0, 70, 110
1, 22625, Note_on_c, 0, 69, 108
1, 22678, Note_off_c, 0, 69, 108
1, 22706, Note_on_c, 0, 73, 109
1, 22733, Note_off_c, 0, 73, 109
1, 22748, Note_on_c, 0, 72, 117
1, 22834, Note_off_c, 0, 72, 117
1, 22844, Note_on_c, 0, 71, 113
1, 22930, Note_off_c, 0, 71, 113
1, 22950, Note_on_c, 0, 69, 110
1, 23019, Note_off_c, 0, 69, 110
1, 23026, Note_on_c, 0, 66, 108
1, 23106, Note_off_c, 0, 66, 108
1, 23144, Note_on_c, 0, 64, 105
1, 23208, Note_off_c, 0, 64, 105
1, 23221, Note_on_c, 0, 65, 110
1, 23289, Note_off_c, 0, 65, 110
1, 23308, Note_on_c, 0, 64, 100
1, 23350, Note_off_c, 0, 64, 100
1, 23365, Note_on_c, 0, 62, 102
1, 23471, Note_off_c, 0, 62, 102
1, 23505, Note_on_c, 0, 65, 119
1, 23553, Note_off_c, 0, 65, 119
1, 23596, Note_on_c, 0, 67, 105
1, 23639, Note_off_c, 0, 67, 105
1, 23664, Note_on_c, 0, 65, 111
1, 23752, Note_off_c, 0, 65, 111
1, 23808, Note_on_c, 0, 68, 100
1, 23852, Note_off_c, 0, 68, 100
1, 23852, Note_on_c, 0, 74, 103
1, 23884, Note_off_c, 0, 74, 103
1, 23889, Note_on_c, 0, 72, 111
1, 23928, Note_off_c, 0, 72, 111
1, 23943, Note_on_c, 0, 68, 97
1, 23994, Note_off_c, 0, 68, 97
1, 24004, Note_on_c, 0, 66, 92
1, 24077, Note_off_c, 0, 66, 92
1, 24138, Note_on_c, 0, 70, 119
1, 24212, Note_off_c, 0, 70, 119
1, 24222, Note_on_c, 0, 69, 114
1, 24312, Note_off_c, 0, 69, 114
1, 24330, Note_on_c, 0, 68, 111
1, 24409, Note_off_c, 0, 68, 111
1, 24419, Note_on_c, 0, 67, 112
1, 24523, Note_off_c, 0, 67, 112
1, 24540, Note_on_c, 0, 64, 104
1, 24595, Note_off_c, 0, 64, 104
1, 24665, Note_on_c, 0, 67, 113
1, 24789, Note_off_c, 0, 67, 113
1, 24801, Note_on_c, 0, 64, 111
1, 24862, Note_off_c, 0, 64, 111
1, 24872, Note_on_c, 0, 61, 106
1, 24970, Note_off_c, 0, 61, 106
1, 24978, Note_on_c, 0, 59, 100
1, 25009, Note_off_c, 0, 59, 100
1, 25032, Note_on_c, 0, 61, 98
1, 25109, Note_off_c, 0, 61, 98
1, 25160, Note_on_c, 0, 62, 93
1, 25192, Note_off_c, 0, 62, 93
1, 25206, Note_on_c, 0, 63, 91
1, 25263, Note_off_c, 0, 63, 91
1, 25320, Note_on_c, 0, 67, 114
1, 25405, Note_off_c, 0, 67, 114
1, 25425, Note_on_c, 0, 65, 102
1, 25498, Note_off_c, 0, 65, 102
1, 25510, Note_on_c, 0, 67, 112
1, 25599, Note_off_c, 0, 67, 112
1, 25621, Note_on_c, 0, 68, 92
1, 25679, Note_off_c, 0, 68, 92
1, 25713, Note_on_c, 0, 69, 99
1, 25764, Note_off_c, 0, 69, 99
1, 25785, Note_on_c, 0, 70, 118
1, 25881, Note_off_c, 0, 70, 118
1, 25895, Note_on_c, 0, 68, 109
1, 25980, Note_off_c, 0, 68, 109
1, 25994, Note_on_c, 0, 69, 114
1, 26064, Note_off_c, 0, 69, 114
1, 26083, Note_on_c, 0, 67, 108
1, 26160, Note_off_c, 0, 67, 108
1, 26191, Note_on_c, 0, 66, 111
1, 26283, Note_off_c, 0, 66, 111
1, 26288, Note_on_c, 0, 69, 110
1, 26360, Note_off_c, 0, 69, 110
1, 26399, Note_on_c, 0, 66, 101
1, 26426, Note_off_c, 0, 66, 101
1, 26426, Note_on_c, 0, 67, 99
1, 26456, Note_off_c, 0, 67, 99
1, 26471, Note_on_c, 0, 69, 112
1, 26554, Note_off_c, 0, 69, 112
1, 26570, Note_on_c, 0, 67, 113
1, 26649, Note_off_c, 0, 67, 113
1, 26673, Note_on_c, 0, 69, 113
1, 26771, Note_off_c, 0, 69, 113
1, 26779, Note_on_c, 0, 70, 107
1, 26837, Note_off_c, 0, 70, 107
1, 26843, Note_on_c, 0, 72, 102
1, 26929, Note_off_c, 0, 72, 102
1, 26933, Note_on_c, 0, 74, 114
1, 27039, Note_off_c, 0, 74, 114
1, 27052, Note_on_c, 0, 73, 112
1, 27121, Note_off_c, 0, 73, 112
1, 27129, Note_on_c, 0, 72, 110
1, 27224, Note_off_c, 0, 72, 110
1, 27231, Note_on_c, 0, 71, 111
1, 27310, Note_off_c, 0, 71, 111
1, 27329, Note_on_c, 0, 70, 108
1, 27432, Note_off_c, 0, 70, 108
1, 27439, Note_on_c, 0, 68, 102
1, 27499, Note_off_c, 0, 68, 102
1, 27509, Note_on_c, 0, 67, 105
1, 27577, Note_off_c, 0, 67, 105
1, 27589, Note_on_c, 0, 65, 102
1, 27658, Note_off_c, 0, 65, 102
1, 27695, Note_on_c, 0, 64, 104
1, 27785, Note_off_c, 0, 64, 104
1, 27820, Note_on_c, 0, 62, 99
1, 27911, Note_off_c, 0, 62, 99
1, 27932, Note_on_c, 0, 61, 90
1, 28002, Note_off_c, 0, 61, 90
1, 28165, Note_on_c, 0, 67, 110
1, 28238, Note_off_c, 0, 67, 110
1, 28285, Note_on_c, 0, 65, 97
1, 28347, Note_off_c, 0, 65, 97
1, 28372, Note_on_c, 0, 67, 102
1, 28453, Note_off_c, 0, 67, 102
1, 28473, Note_on_c, 0, 65, 119
1, 28533, Note_off_c, 0, 65, 119
1, 28566, Note_on_c, 0, 60, 95
1, 28598, Note_off_c, 0, 60, 95
1, 29527, Note_on_c, 0, 77, 123
1, 29613, Note_off_c, 0, 77, 123
1, 29625, Note_on_c, 0, 78, 121
1, 29704, Note_off_c, 0, 78, 121
1, 29724, Note_on_c, 0, 76, 122
1, 29788, Note_off_c, 0, 76, 122
1, 29796, Note_on_c, 0, 77, 125
1, 29889, Note_off_c, 0, 77, 125
1, 29893, Note_on_c, 0, 78, 124
1, 29963, Note_off_c, 0, 78, 124
1, 29967, Note_on_c, 0, 77, 111
1, 30000, Note_off_c, 0, 77, 111
1, 30009, Note_on_c, 0, 76, 122
1, 30073, Note_off_c, 0, 76, 122
1, 30102, Note_on_c, 0, 74, 117
1, 30161, Note_off_c, 0, 74, 117
1, 30171, Note_on_c, 0, 75, 113
1, 30244, Note_off_c, 0, 75, 113
1, 30250, Note_on_c, 0, 76, 115
1, 30309, Note_off_c, 0, 76, 115
1, 30344, Note_on_c, 0, 74, 110
1, 30393, Note_off_c, 0, 74, 110
1, 30403, Note_on_c, 0, 75, 113
1, 30478, Note_off_c, 0, 75, 113
1, 30488, Note_on_c, 0, 74, 113
1, 30597, Note_off_c, 0, 74, 113
1, 31057, Note_on_c, 0, 77, 121
1, 31147, Note_off_c, 0, 77, 121
1, 31157, Note_on_c, 0, 78, 115
1, 31224, Note_off_c, 0, 78, 115
1, 31229, Note_on_c, 0, 76, 114
1, 31319, Note_off_c, 0, 76, 114
1, 31326, Note_on_c, 0, 77, 116
1, 31433, Note_off_c, 0, 77, 116
1, 31433, Note_on_c, 0, 75, 108
1, 31504, Note_off_c, 0, 75, 108
1, 31515, Note_on_c, 0, 76, 116
1, 31608, Note_off_c, 0, 76, 116
1, 31610, Note_on_c, 0, 74, 112
1, 31712, Note_off_c, 0, 74, 112
1, 31728, Note_on_c, 0, 75, 101
1, 31809, Note_off_c, 0, 75, 101
1, 32587, Note_on_c, 0, 77, 116
1, 32662, Note_off_c, 0, 77, 116
1, 32675, Note_on_c, 0, 78, 120
1, 32753, Note_off_c, 0, 78, 120
1, 32765, Note_on_c, 0, 76, 113
1, 32846, Note_off_c, 0, 76, 113
1, 32859, Note_on_c, 0, 77, 119
1, 32936, Note_off_c, 0, 77, 119
1, 32946, Note_on_c, 0, 78, 119
1, 33035, Note_off_c, 0, 78, 119
1, 33039, Note_on_c, 0, 76, 111
1, 33130, Note_off_c, 0, 76, 111
1, 33131, Note_on_c, 0, 74, 110
1, 33205, Note_off_c, 0, 74, 110
1, 33211, Note_on_c, 0, 75, 111
1, 33316, Note_off_c, 0, 75, 111
1, 33320, Note_on_c, 0, 73, 111
1, 33401, Note_off_c, 0, 73, 111
1, 33415, Note_on_c, 0, 74, 114
1, 33516, Note_off_c, 0, 74, 114
1, 33548, Note_on_c, 0, 73, 114
1, 33660, Note_off_c, 0, 73, 114
1, 33663, Note_on_c, 0, 71, 105
1, 33794, Note_off_c, 0, 71, 105
1, 33804, Note_on_c, 0, 72, 110
1, 33879, Note_off_c, 0, 72, 110
1, 33891, Note_on_c, 0, 70, 115
1, 33972, Note_off_c, 0, 70, 115
1, 34014, Note_on_c, 0, 71, 108
1, 34088, Note_off_c, 0, 71, 108
1, 34112, Note_on_c, 0, 68, 108
1, 34169, Note_off_c, 0, 68, 108
1, 34193, Note_on_c, 0, 70, 116
1, 34268, Note_off_c, 0, 70, 116
1, 34291, Note_on_c, 0, 72, 114
1, 34383, Note_off_c, 0, 72, 114
1, 34393, Note_on_c, 0, 74, 112
1, 34470, Note_off_c, 0, 74, 112
1, 34481, Note_on_c, 0, 77, 123
1, 34595, Note_off_c, 0, 77, 123
1, 34989, Note_on_c, 0, 76, 116
1, 35186, Note_off_c, 0, 76, 116
1, 35212, Note_on_c, 0, 72, 102
1, 35265, Note_off_c, 0, 72, 102
1, 35410, Note_on_c, 0, 74, 122
1, 35659, Note_off_c, 0, 74, 122
1, 35692, Note_on_c, 0, 70, 121
1, 35989, Note_off_c, 0, 70, 121
1, 36012, Note_on_c, 0, 66, 112
1, 36086, Note_off_c, 0, 66, 112
1, 36199, Note_on_c, 0, 70, 114
1, 36487, Note_off_c, 0, 70, 114
1, 36494, Note_on_c, 0, 69, 111
1, 36566, Note_off_c, 0, 69, 111
1, 36575, Note_on_c, 0, 70, 118
1, 36646, Note_off_c, 0, 70, 118
1, 36656, Note_on_c, 0, 69, 117
1, 36733, Note_off_c, 0, 69, 117
1, 36763, Note_on_c, 0, 65, 103
1, 36855, Note_off_c, 0, 65, 103
1, 36987, Note_on_c, 0, 69, 117
1, 37229, Note_off_c, 0, 69, 117
1, 37236, Note_on_c, 0, 68, 116
1, 37530, Note_off_c, 0, 68, 116
1, 37557, Note_on_c, 0, 64, 101
1, 37627, Note_off_c, 0, 64, 101
1, 37740, Note_on_c, 0, 68, 115
1, 38680, Note_off_c, 0, 68, 115
1, 38734, Note_on_c, 0, 72, 124
1, 38827, Note_off_c, 0, 72, 124
1, 38835, Note_on_c, 0, 74, 121
1, 39013, Note_off_c, 0, 74, 121
1, 39029, Note_on_c, 0, 69, 104
1, 39094, Note_off_c, 0, 69, 104
1, 39231, Note_on_c, 0, 72, 116
1, 40030, Note_off_c, 0, 72, 116
1, 40038, Note_on_c, 0, 74, 116
1, 40216, Note_off_c, 0, 74, 116
1, 40226, Note_on_c, 0, 77, 118
1, 40316, Note_off_c, 0, 77, 118
1, 40326, Note_on_c, 0, 76, 116
1, 40420, Note_off_c, 0, 76, 116
1, 40426, Note_on_c, 0, 75, 111
1, 40493, Note_off_c, 0, 75, 111
1, 40538, Note_on_c, 0, 71, 108
1, 40603, Note_off_c, 0, 71, 108
1, 40622, Note_on_c, 0, 74, 119
1, 40700, Note_off_c, 0, 74, 119
1, 40705, Note_on_c, 0, 73, 110
1, 40740, Note_off_c, 0, 73, 110
1, 40764, Note_on_c, 0, 71, 109
1, 40799, Note_off_c, 0, 71, 109
1, 40810, Note_on_c, 0, 72, 115
1, 40883, Note_off_c, 0, 72, 115
1, 40902, Note_on_c, 0, 70, 115
1, 40972, Note_off_c, 0, 70, 115
1, 40990, Note_on_c, 0, 69, 110
1, 41061, Note_off_c, 0, 69, 110
1, 41112, Note_on_c, 0, 72, 120
1, 41205, Note_off_c, 0, 72, 120
1, 41209, Note_on_c, 0, 71, 111
1, 41285, Note_off_c, 0, 71, 111
1, 41568, Note_on_c, 0, 71, 116
1, 41664, Note_off_c, 0, 71, 116
1, 41683, Note_on_c, 0, 70, 111
1, 41711, Note_off_c, 0, 70, 111
1, 41719, Note_on_c, 0, 69, 107
1, 41742, Note_off_c, 0, 69, 107
1, 41752, Note_on_c, 0, 66, 112
1, 41827, Note_off_c, 0, 66, 112
1, 41857, Note_on_c, 0, 64, 113
1, 41927, Note_off_c, 0, 64, 113
1, 41935, Note_on_c, 0, 65, 106
1, 42011, Note_off_c, 0, 65, 106
1, 42091, Note_on_c, 0, 67, 97
1, 42133, Note_off_c, 0, 67, 97
1, 42143, Note_on_c, 0, 68, 101
1, 42173, Note_off_c, 0, 68, 101
1, 42239, Note_on_c, 0, 72, 108
1, 42337, Note_off_c, 0, 72, 108
1, 42409, Note_on_c, 0, 66, 89
1, 42441, Note_off_c, 0, 66, 89
1, 42483, Note_on_c, 0, 65, 100
1, 42520, Note_off_c, 0, 65, 100
1, 42532, Note_on_c, 0, 70, 113
1, 42634, Note_off_c, 0, 70, 113
1, 42644, Note_on_c, 0, 69, 109
1, 42718, Note_off_c, 0, 69, 109
1, 42736, Note_on_c, 0, 68, 94
1, 42808, Note_off_c, 0, 68, 94
1, 43750, Note_on_c, 0, 73, 119
1, 43910, Note_off_c, 0, 73, 119
1, 43910, Note_on_c, 0, 75, 121
1, 43992, Note_off_c, 0, 75, 121
1, 44022, Note_on_c, 0, 70, 116
1, 44699, Note_off_c, 0, 70, 116
1, 44704, Note_on_c, 0, 73, 118
1, 44786, Note_off_c, 0, 73, 118
1, 44935, Note_on_c, 0, 68, 112
1, 45330, Note_off_c, 0, 68, 112
1, 45338, Note_on_c, 0, 70, 114
1, 45547, Note_off_c, 0, 70, 114
1, 45570, Note_on_c, 0, 63, 110
1, 45964, Note_off_c, 0, 63, 110
1, 45981, Note_on_c, 0, 65, 116
1, 46194, Note_off_c, 0, 65, 116
1, 46207, Note_on_c, 0, 63, 101
1, 46250, Note_off_c, 0, 63, 101
1, 46415, Note_on_c, 0, 60, 107
1, 46487, Note_off_c, 0, 60, 107
1, 46607, Note_on_c, 0, 60, 107
1, 47384, Note_off_c, 0, 60, 107
1, 47944, Note_on_c, 0, 75, 116
1, 48252, Note_off_c, 0, 75, 116
1, 48276, Note_on_c, 0, 77, 120
1, 48570, Note_off_c, 0, 77, 120
1, 48600, Note_on_c, 0, 79, 121
1, 49059, Note_off_c, 0, 79, 121
1, 49085, Note_on_c, 0, 79, 118
1, 49177, Note_off_c, 0, 79, 118
1, 49299, Note_on_c, 0, 75, 113
1, 49360, Note_off_c, 0, 75, 113
1, 49497, Note_on_c, 0, 77, 119
1, 49582, Note_off_c, 0, 77, 119
1, 49684, Note_on_c, 0, 77, 114
1, 50880, Note_off_c, 0, 77, 114
1, 51415, Note_on_c, 0, 77, 121
1, 51551, Note_off_c, 0, 77, 121
1, 51553, Note_on_c, 0, 79, 97
1, 51652, Note_off_c, 0, 79, 97
1, 51658, Note_on_c, 0, 82, 111
1, 52729, Note_off_c, 0, 82, 111
1, 52730, Note_on_c, 0, 79, 116
1, 52884, Note_off_c, 0, 79, 116
1, 52912, Note_on_c, 0, 77, 118
1, 53022, Note_off_c, 0, 77, 118
1, 53030, Note_on_c, 0, 77, 107
1, 54434, Note_off_c, 0, 77, 107
1, 54454, Note_on_c, 0, 80, 98
1, 54559, Note_off_c, 0, 80, 98
1, 54565, Note_on_c, 0, 78, 107
1, 54731, Note_off_c, 0, 78, 107
1, 54766, Note_on_c, 0, 77, 105
1, 54909, Note_off_c, 0, 77, 105
1, 54921, Note_on_c, 0, 75, 110
1, 55127, Note_off_c, 0, 75, 110
1, 55161, Note_on_c, 0, 73, 108
1, 55625, Note_off_c, 0, 73, 108
1, 55633, Note_on_c, 0, 75, 111
1, 55901, Note_off_c, 0, 75, 111
1, 55905, Note_on_c, 0, 72, 9
1, 56212, Note_off_c, 0, 72, 9
1, 56224, Note_on_c, 0, 70, 96
1, 56290, Note_off_c, 0, 70, 96
1, 56421, Note_on_c, 0, 70, 113
1, 56792, Note_off_c, 0, 70, 113
1, 56854, Note_on_c, 0, 70, 105
1, 56892, Note_off_c, 0, 70, 105
1, 57642, Note_on_c, 0, 75, 110
1, 57705, Note_off_c, 0, 75, 110
1, 57718, Note_on_c, 0, 74, 119
1, 57791, Note_off_c, 0, 74, 119
1, 57805, Note_on_c, 0, 76, 118
1, 57875, Note_off_c, 0, 76, 118
1, 57884, Note_on_c, 0, 78, 91
1, 57920, Note_off_c, 0, 78, 91
1, 57931, Note_on_c, 0, 79, 115
1, 57991, Note_off_c, 0, 79, 115
1, 58008, Note_on_c, 0, 80, 118
1, 58114, Note_off_c, 0, 80, 118
1, 58132, Note_on_c, 0, 76, 114
1, 58232, Note_off_c, 0, 76, 114
1, 58814, Note_on_c, 0, 75, 101
1, 58860, Note_off_c, 0, 75, 101
1, 58868, Note_on_c, 0, 74, 109
1, 58977, Note_off_c, 0, 74, 109
1, 58984, Note_on_c, 0, 75, 104
1, 59053, Note_off_c, 0, 75, 104
1, 59088, Note_on_c, 0, 79, 114
1, 59188, Note_off_c, 0, 79, 114
1, 59194, Note_on_c, 0, 77, 116
1, 59277, Note_off_c, 0, 77, 116
1, 59283, Note_on_c, 0, 76, 117
1, 59375, Note_off_c, 0, 76, 117
1, 59379, Note_on_c, 0, 75, 115
1, 59467, Note_off_c, 0, 75, 115
1, 59471, Note_on_c, 0, 74, 98
1, 59529, Note_off_c, 0, 74, 98
1, 59882, Note_on_c, 0, 71, 101
1, 59951, Note_off_c, 0, 71, 101
1, 59951, Note_on_c, 0, 74, 116
1, 60058, Note_off_c, 0, 74, 116
1, 60082, Note_on_c, 0, 71, 104
1, 60140, Note_off_c, 0, 71, 104
1, 60145, Note_on_c, 0, 72, 108
1, 60221, Note_off_c, 0, 72, 108
1, 60235, Note_on_c, 0, 74, 116
1, 60337, Note_off_c, 0, 74, 116
1, 60340, Note_on_c, 0, 75, 112
1, 60443, Note_off_c, 0, 75, 112
1, 60449, Note_on_c, 0, 77, 112
1, 60514, Note_off_c, 0, 77, 112
1, 60520, Note_on_c, 0, 78, 116
1, 60597, Note_off_c, 0, 78, 116
1, 60628, Note_on_c, 0, 76, 111
1, 60724, Note_off_c, 0, 76, 111
1, 60729, Note_on_c, 0, 77, 115
1, 60815, Note_off_c, 0, 77, 115
1, 60825, Note_on_c, 0, 74, 117
1, 60937, Note_off_c, 0, 74, 117
1, 60938, Note_on_c, 0, 75, 111
1, 60998, Note_off_c, 0, 75, 111
1, 61034, Note_on_c, 0, 76, 113
1, 61107, Note_off_c, 0, 76, 113
1, 61133, Note_on_c, 0, 74, 115
1, 61237, Note_off_c, 0, 74, 115
1, 61240, Note_on_c, 0, 72, 111
1, 61320, Note_off_c, 0, 72, 111
1, 61327, Note_on_c, 0, 70, 110
1, 61385, Note_off_c, 0, 70, 110
1, 61395, Note_on_c, 0, 69, 102
1, 61489, Note_off_c, 0, 69, 102
1, 61499, Note_on_c, 0, 68, 114
1, 61597, Note_off_c, 0, 68, 114
1, 61604, Note_on_c, 0, 67, 107
1, 61701, Note_off_c, 0, 67, 107
1, 61711, Note_on_c, 0, 65, 108
1, 61793, Note_off_c, 0, 65, 108
1, 61807, Note_on_c, 0, 63, 105
1, 61973, Note_off_c, 0, 63, 105
1, 61979, Note_on_c, 0, 60, 99
1, 62089, Note_off_c, 0, 60, 99
1, 62097, Note_on_c, 0, 58, 100
1, 62207, Note_off_c, 0, 58, 100
1, 62217, Note_on_c, 0, 55, 113
1, 62303, Note_off_c, 0, 55, 113
1, 62316, Note_on_c, 0, 53, 109
1, 62398, Note_off_c, 0, 53, 109
1, 62418, Note_on_c, 0, 55, 104
1, 62498, Note_off_c, 0, 55, 104
1, 62507, Note_on_c, 0, 58, 97
1, 62630, Note_off_c, 0, 58, 97
1, 62639, Note_on_c, 0, 60, 95
1, 62678, Note_off_c, 0, 60, 95
1, 62686, Note_on_c, 0, 65, 107
1, 62801, Note_off_c, 0, 65, 107
1, 62805, Note_on_c, 0, 62, 92
1, 62896, Note_off_c, 0, 62, 92
1, 62903, Note_on_c, 0, 63, 100
1, 62981, Note_off_c, 0, 63, 100
1, 62984, Note_on_c, 0, 65, 107
1, 63054, Note_off_c, 0, 65, 107
1, 63073, Note_on_c, 0, 67, 99
1, 63178, Note_off_c, 0, 67, 99
1, 63188, Note_on_c, 0, 69, 102
1, 63275, Note_off_c, 0, 69, 102
1, 63276, Note_on_c, 0, 74, 106
1, 63324, Note_off_c, 0, 74, 106
1, 63326, Note_on_c, 0, 71, 110
1, 63387, Note_off_c, 0, 71, 110
1, 63872, Note_on_c, 0, 66, 111
1, 64353, Note_off_c, 0, 66, 111
1, 64360, Note_on_c, 0, 68, 112
1, 64434, Note_off_c, 0, 68, 112
1, 64438, Note_on_c, 0, 70, 113
1, 64500, Note_off_c, 0, 70, 113
1, 64624, Note_on_c, 0, 65, 106
1, 64695, Note_off_c, 0, 65, 106
1, 64803, Note_on_c, 0, 65, 114
1, 64986, Note_off_c, 0, 65, 114
1, 65007, Note_on_c, 0, 65, 114
1, 65122, Note_off_c, 0, 65, 114
1, 65124, Note_on_c, 0, 67, 98
1, 65178, Note_off_c, 0, 67, 98
1, 65183, Note_on_c, 0, 69, 114
1, 65284, Note_off_c, 0, 69, 114
1, 65291, Note_on_c, 0, 64, 107
1, 65422, Note_off_c, 0, 64, 107
1, 65508, Note_on_c, 0, 64, 115
1, 66690, Note_off_c, 0, 64, 115
1, 66840, Note_on_c, 0, 74, 119
1, 66947, Note_off_c, 0, 74, 119
1, 66950, Note_on_c, 0, 75, 115
1, 66991, Note_off_c, 0, 75, 115
1, 67016, Note_on_c, 0, 78, 112
1, 67091, Note_off_c, 0, 78, 112
1, 67097, Note_on_c, 0, 77, 119
1, 67198, Note_off_c, 0, 77, 119
1, 67200, Note_on_c, 0, 78, 118
1, 67296, Note_off_c, 0, 78, 118
1, 67299, Note_on_c, 0, 76, 116
1, 67408, Note_off_c, 0, 76, 116
1, 67612, Note_on_c, 0, 76, 114
1, 67707, Note_off_c, 0, 76, 114
1, 67714, Note_on_c, 0, 78, 112
1, 67780, Note_off_c, 0, 78, 112
1, 67791, Note_on_c, 0, 76, 112
1, 67886, Note_off_c, 0, 76, 112
1, 67894, Note_on_c, 0, 77, 120
1, 67975, Note_off_c, 0, 77, 120
1, 67983, Note_on_c, 0, 78, 107
1, 68056, Note_off_c, 0, 78, 107
1, 68064, Note_on_c, 0, 76, 113
1, 68111, Note_off_c, 0, 76, 113
1, 68358, Note_on_c, 0, 77, 112
1, 68454, Note_off_c, 0, 77, 112
1, 68461, Note_on_c, 0, 78, 110
1, 68522, Note_off_c, 0, 78, 110
1, 68525, Note_on_c, 0, 76, 110
1, 68606, Note_off_c, 0, 76, 110
1, 68612, Note_on_c, 0, 77, 116
1, 68704, Note_off_c, 0, 77, 116
1, 68710, Note_on_c, 0, 78, 106
1, 68778, Note_off_c, 0, 78, 106
1, 68780, Note_on_c, 0, 76, 111
1, 68862, Note_off_c, 0, 76, 111
1, 68868, Note_on_c, 0, 77, 106
1, 68957, Note_off_c, 0, 77, 106
1, 68965, Note_on_c, 0, 75, 110
1, 69054, Note_off_c, 0, 75, 110
1, 69060, Note_on_c, 0, 73, 108
1, 69147, Note_off_c, 0, 73, 108
1, 69149, Note_on_c, 0, 74, 107
1, 69235, Note_off_c, 0, 74, 107
1, 69245, Note_on_c, 0, 72, 103
1, 69298, Note_off_c, 0, 72, 103
1, 69305, Note_on_c, 0, 73, 110
1, 69428, Note_off_c, 0, 73, 110
1, 69433, Note_on_c, 0, 71, 105
1, 69514, Note_off_c, 0, 71, 105
1, 69522, Note_on_c, 0, 72, 110
1, 69615, Note_off_c, 0, 72, 110
1, 69620, Note_on_c, 0, 70, 114
1, 69704, Note_off_c, 0, 70, 114
1, 69712, Note_on_c, 0, 71, 110
1, 69798, Note_off_c, 0, 71, 110
1, 69815, Note_on_c, 0, 69, 105
1, 69888, Note_off_c, 0, 69, 105
1, 69898, Note_on_c, 0, 70, 115
1, 69994, Note_off_c, 0, 70, 115
1, 69996, Note_on_c, 0, 75, 115
1, 70088, Note_off_c, 0, 75, 115
1, 70096, Note_on_c, 0, 74, 120
1, 70186, Note_off_c, 0, 74, 120
1, 70190, Note_on_c, 0, 72, 116
1, 70278, Note_off_c, 0, 72, 116
1, 70286, Note_on_c, 0, 70, 115
1, 70361, Note_off_c, 0, 70, 115
1, 70371, Note_on_c, 0, 69, 114
1, 70444, Note_off_c, 0, 69, 114
1, 70453, Note_on_c, 0, 68, 114
1, 70550, Note_off_c, 0, 68, 114
1, 70558, Note_on_c, 0, 64, 110
1, 70631, Note_off_c, 0, 64, 110
1, 70656, Note_on_c, 0, 67, 111
1, 70739, Note_off_c, 0, 67, 111
1, 70754, Note_on_c, 0, 64, 105
1, 70837, Note_off_c, 0, 64, 105
1, 70845, Note_on_c, 0, 66, 109
1, 70920, Note_off_c, 0, 66, 109
1, 70937, Note_on_c, 0, 67, 109
1, 71009, Note_off_c, 0, 67, 109
1, 71050, Note_on_c, 0, 68, 102
1, 71104, Note_off_c, 0, 68, 102
1, 71117, Note_on_c, 0, 70, 116
1, 71211, Note_off_c, 0, 70, 116
1, 71258, Note_on_c, 0, 71, 107
1, 71305, Note_off_c, 0, 71, 107
1, 71306, Note_on_c, 0, 73, 105
1, 71398, Note_off_c, 0, 73, 105
1, 72516, Note_on_c, 0, 73, 119
1, 72564, Note_off_c, 0, 73, 119
1, 72570, Note_on_c, 0, 74, 123
1, 72864, Note_off_c, 0, 74, 123
1, 72870, Note_on_c, 0, 73, 114
1, 72941, Note_off_c, 0, 73, 114
1, 72948, Note_on_c, 0, 72, 116
1, 73007, Note_off_c, 0, 72, 116
1, 73014, Note_on_c, 0, 73, 117
1, 73117, Note_off_c, 0, 73, 117
1, 73117, Note_on_c, 0, 72, 115
1, 73209, Note_off_c, 0, 72, 115
1, 73211, Note_on_c, 0, 73, 119
1, 73301, Note_off_c, 0, 73, 119
1, 73306, Note_on_c, 0, 72, 116
1, 73365, Note_off_c, 0, 72, 116
1, 73365, Note_on_c, 0, 73, 114
1, 73425, Note_off_c, 0, 73, 114
1, 73429, Note_on_c, 0, 72, 118
1, 73506, Note_off_c, 0, 72, 118
1, 73510, Note_on_c, 0, 73, 115
1, 73586, Note_off_c, 0, 73, 115
1, 73589, Note_on_c, 0, 72, 118
1, 73640, Note_off_c, 0, 72, 118
1, 73643, Note_on_c, 0, 73, 115
1, 73737, Note_off_c, 0, 73, 115
1, 73739, Note_on_c, 0, 72, 117
1, 73774, Note_off_c, 0, 72, 117
1, 73777, Note_on_c, 0, 73, 116
1, 73869, Note_off_c, 0, 73, 116
1, 73871, Note_on_c, 0, 72, 117
1, 73903, Note_off_c, 0, 72, 117
1, 73906, Note_on_c, 0, 73, 116
1, 73995, Note_off_c, 0, 73, 116
1, 74000, Note_on_c, 0, 72, 117
1, 74058, Note_off_c, 0, 72, 117
1, 74064, Note_on_c, 0, 73, 114
1, 74130, Note_off_c, 0, 73, 114
1, 74134, Note_on_c, 0, 72, 117
1, 74182, Note_off_c, 0, 72, 117
1, 74190, Note_on_c, 0, 73, 114
1, 74327, Note_off_c, 0, 73, 114
1, 74335, Note_on_c, 0, 71, 105
1, 74377, Note_off_c, 0, 71, 105
1, 74387, Note_on_c, 0, 72, 115
1, 75815, Note_off_c, 0, 72, 115
1, 75842, Note_on_c, 0, 72, 118
1, 76111, Note_off_c, 0, 72, 118
1, 76142, Note_on_c, 0, 67, 109
1, 76204, Note_off_c, 0, 67, 109
1, 76352, Note_on_c, 0, 70, 117
1, 77150, Note_off_c, 0, 70, 117
1, 77167, Note_on_c, 0, 74, 120
1, 77459, Note_off_c, 0, 74, 120
1, 77467, Note_on_c, 0, 75, 110
1, 77519, Note_off_c, 0, 75, 110
1, 77522, Note_on_c, 0, 72, 115
1, 77675, Note_off_c, 0, 72, 115
1, 77700, Note_on_c, 0, 67, 97
1, 77788, Note_off_c, 0, 67, 97
1, 77800, Note_on_c, 0, 70, 117
1, 77946, Note_off_c, 0, 70, 117
1, 78030, Note_on_c, 0, 70, 118
1, 78519, Note_off_c, 0, 70, 118
1, 78584, Note_on_c, 0, 70, 103
1, 78676, Note_off_c, 0, 70, 103
1, 79393, Note_on_c, 0, 73, 118
1, 79582, Note_off_c, 0, 73, 118
1, 79586, Note_on_c, 0, 75, 115
1, 79693, Note_off_c, 0, 75, 115
1, 79700, Note_on_c, 0, 70, 114
1, 79924, Note_off_c, 0, 70, 114
1, 79931, Note_on_c, 0, 71, 112
1, 79978, Note_off_c, 0, 71, 112
1, 79999, Note_on_c, 0, 73, 116
1, 80157, Note_off_c, 0, 73, 116
1, 80162, Note_on_c, 0, 68, 113
1, 80368, Note_off_c, 0, 68, 113
1, 80370, Note_on_c, 0, 70, 114
1, 80472, Note_off_c, 0, 70, 114
1, 80480, Note_on_c, 0, 65, 111
1, 80574, Note_off_c, 0, 65, 111
1, 80675, Note_on_c, 0, 65, 113
1, 80931, Note_off_c, 0, 65, 113
1, 80945, Note_on_c, 0, 67, 114
1, 82039, Note_off_c, 0, 67, 114
1, 82076, Note_on_c, 0, 65, 102
1, 82130, Note_off_c, 0, 65, 102
1, 82177, Note_on_c, 0, 66, 107
1, 82303, Note_off_c, 0, 66, 107
1, 82311, Note_on_c, 0, 67, 102
1, 82384, Note_off_c, 0, 67, 102
1, 82409, Note_on_c, 0, 69, 102
1, 82478, Note_off_c, 0, 69, 102
1, 82511, Note_on_c, 0, 66, 105
1, 82585, Note_off_c, 0, 66, 105
1, 82610, Note_on_c, 0, 68, 104
1, 82669, Note_off_c, 0, 68, 104
1, 83367, Note_on_c, 0, 65, 122
1, 83432, Note_off_c, 0, 65, 122
1, 83444, Note_on_c, 0, 67, 106
1, 83508, Note_off_c, 0, 67, 106
1, 83512, Note_on_c, 0, 69, 113
1, 83638, Note_off_c, 0, 69, 113
1, 83640, Note_on_c, 0, 65, 110
1, 83726, Note_off_c, 0, 65, 110
1, 83734, Note_on_c, 0, 67, 110
1, 83814, Note_off_c, 0, 67, 110
1, 83820, Note_on_c, 0, 65, 111
1, 83903, Note_off_c, 0, 65, 111
1, 83911, Note_on_c, 0, 62, 103
1, 83996, Note_off_c, 0, 62, 103
1, 84056, Note_on_c, 0, 61, 99
1, 84126, Note_off_c, 0, 61, 99
1, 84283, Note_on_c, 0, 65, 122
1, 84334, Note_off_c, 0, 65, 122
1, 84519, Note_on_c, 0, 65, 114
1, 84622, Note_off_c, 0, 65, 114
1, 85248, Note_on_c, 0, 74, 105
1, 85338, Note_off_c, 0, 74, 105
1, 85445, Note_on_c, 0, 77, 116
1, 85565, Note_off_c, 0, 77, 116
1, 85846, Note_on_c, 0, 70, 101
1, 85928, Note_off_c, 0, 70, 101
1, 86064, Note_on_c, 0, 75, 115
1, 86130, Note_off_c, 0, 75, 115
1, 86133, Note_on_c, 0, 74, 116
1, 86177, Note_off_c, 0, 74, 116
1, 86187, Note_on_c, 0, 75, 109
1, 86311, Note_off_c, 0, 75, 109
1, 86349, Note_on_c, 0, 68, 103
1, 86434, Note_off_c, 0, 68, 103
1, 86548, Note_on_c, 0, 74, 116
1, 86669, Note_off_c, 0, 74, 116
1, 86812, Note_on_c, 0, 67, 102
1, 86903, Note_off_c, 0, 67, 102
1, 87019, Note_on_c, 0, 72, 114
1, 87118, Note_off_c, 0, 72, 114
1, 87220, Note_on_c, 0, 67, 112
1, 87276, Note_off_c, 0, 67, 112
1, 87411, Note_on_c, 0, 70, 115
1, 87499, Note_off_c, 0, 70, 115
1, 87500, Note_on_c, 0, 67, 107
1, 87599, Note_off_c, 0, 67, 107
1, 87601, Note_on_c, 0, 69, 112
1, 87703, Note_off_c, 0, 69, 112
1, 87968, Note_on_c, 0, 73, 112
1, 88070, Note_off_c, 0, 73, 112
1, 88076, Note_on_c, 0, 71, 111
1, 88168, Note_off_c, 0, 71, 111
1, 88172, Note_on_c, 0, 68, 95
1, 88273, Note_off_c, 0, 68, 95
1, 88297, Note_on_c, 0, 64, 102
1, 88385, Note_off_c, 0, 64, 102
1, 88391, Note_on_c, 0, 65, 101
1, 88470, Note_off_c, 0, 65, 101
1, 88719, Note_on_c, 0, 72, 113
1, 88816, Note_off_c, 0, 72, 113
1, 88823, Note_on_c, 0, 69, 107
1, 88927, Note_off_c, 0, 69, 107
1, 88930, Note_on_c, 0, 70, 112
1, 89014, Note_off_c, 0, 70, 112
1, 89018, Note_on_c, 0, 72, 115
1, 89123, Note_off_c, 0, 72, 115
1, 89134, Note_on_c, 0, 73, 116
1, 89210, Note_off_c, 0, 73, 116
1, 89212, Note_on_c, 0, 74, 113
1, 89261, Note_off_c, 0, 74, 113
1, 89262, Note_on_c, 0, 75, 113
1, 89357, Note_off_c, 0, 75, 113
1, 89370, Note_on_c, 0, 76, 116
1, 89499, Note_off_c, 0, 76, 116
1, 89502, Note_on_c, 0, 77, 102
1, 89560, Note_off_c, 0, 77, 102
1, 89562, Note_on_c, 0, 74, 111
1, 89659, Note_off_c, 0, 74, 111
1, 89666, Note_on_c, 0, 75, 108
1, 89775, Note_off_c, 0, 75, 108
1, 89779, Note_on_c, 0, 73, 104
1, 89900, Note_off_c, 0, 73, 104
1, 89971, Note_on_c, 0, 77, 107
1, 90028, Note_off_c, 0, 77, 107
1, 90055, Note_on_c, 0, 73, 107
1, 90174, Note_off_c, 0, 73, 107
1, 90177, Note_on_c, 0, 71, 98
1, 90276, Note_off_c, 0, 71, 98
1, 90282, Note_on_c, 0, 72, 98
1, 90341, Note_off_c, 0, 72, 98
1, 91026, Note_on_c, 0, 74, 117
1, 92719, Note_off_c, 0, 74, 117
1, 92724, Note_on_c, 0, 73, 120
1, 92771, Note_off_c, 0, 73, 120
1, 92777, Note_on_c, 0, 74, 107
1, 92803, Note_off_c, 0, 74, 107
1, 92815, Note_on_c, 0, 73, 120
1, 92887, Note_off_c, 0, 73, 120
1, 92904, Note_on_c, 0, 74, 105
1, 92953, Note_off_c, 0, 74, 105
1, 92962, Note_on_c, 0, 73, 116
1, 93121, Note_off_c, 0, 73, 116
1, 93129, Note_on_c, 0, 74, 115
1, 93159, Note_off_c, 0, 74, 115
1, 93172, Note_on_c, 0, 73, 117
1, 93245, Note_off_c, 0, 73, 117
1, 93253, Note_on_c, 0, 74, 117
1, 93300, Note_off_c, 0, 74, 117
1, 93311, Note_on_c, 0, 73, 117
1, 93376, Note_off_c, 0, 73, 117
1, 93385, Note_on_c, 0, 74, 118
1, 93424, Note_off_c, 0, 74, 118
1, 93440, Note_on_c, 0, 73, 113
1, 93500, Note_off_c, 0, 73, 113
1, 93512, Note_on_c, 0, 72, 118
1, 93590, Note_off_c, 0, 72, 118
1, 93600, Note_on_c, 0, 73, 108
1, 93627, Note_off_c, 0, 73, 108
1, 93633, Note_on_c, 0, 72, 118
1, 93703, Note_off_c, 0, 72, 118
1, 93705, Note_on_c, 0, 73, 107
1, 93728, Note_off_c, 0, 73, 107
1, 93732, Note_on_c, 0, 72, 121
1, 93815, Note_off_c, 0, 72, 121
1, 93819, Note_on_c, 0, 73, 114
1, 93866, Note_off_c, 0, 73, 114
1, 93872, Note_on_c, 0, 72, 115
1, 93945, Note_off_c, 0, 72, 115
1, 93949, Note_on_c, 0, 73, 111
1, 93979, Note_off_c, 0, 73, 111
1, 93983, Note_on_c, 0, 72, 119
1, 94136, Note_off_c, 0, 72, 119
1, 94146, Note_on_c, 0, 74, 122
1, 94389, Note_off_c, 0, 74, 122
1, 94393, Note_on_c, 0, 67, 112
1, 94478, Note_off_c, 0, 67, 112
1, 94589, Note_on_c, 0, 72, 123
1, 95381, Note_off_c, 0, 72, 123
1, 95384, Note_on_c, 0, 74, 122
1, 95627, Note_on_c, 0, 67, 119
1, 95627, Note_off_c, 0, 74, 122
1, 95930, Note_off_c, 0, 67, 119
1, 95944, Note_on_c, 0, 72, 109
1, 96028, Note_off_c, 0, 72, 109
1, 96151, Note_on_c, 0, 70, 118
1, 96280, Note_off_c, 0, 70, 118
1, 96346, Note_on_c, 0, 70, 120
1, 96895, Note_off_c, 0, 70, 120
1, 96902, Note_on_c, 0, 68, 116
1, 96968, Note_off_c, 0, 68, 116
1, 96980, Note_on_c, 0, 69, 117
1, 97066, Note_off_c, 0, 69, 117
1, 97070, Note_on_c, 0, 67, 116
1, 97121, Note_off_c, 0, 67, 116
1, 97151, Note_on_c, 0, 65, 115
1, 97235, Note_off_c, 0, 65, 115
1, 97254, Note_on_c, 0, 63, 110
1, 97352, Note_off_c, 0, 63, 110
1, 97428, Note_on_c, 0, 65, 111
1, 97519, Note_off_c, 0, 65, 111
1, 97548, Note_on_c, 0, 68, 104
1, 97590, Note_off_c, 0, 68, 104
1, 97605, Note_on_c, 0, 69, 106
1, 97630, Note_off_c, 0, 69, 106
1, 97646, Note_on_c, 0, 68, 108
1, 97696, Note_off_c, 0, 68, 108
1, 97711, Note_on_c, 0, 67, 105
1, 97818, Note_off_c, 0, 67, 105
1, 97891, Note_on_c, 0, 70, 117
1, 97979, Note_off_c, 0, 70, 117
1, 97986, Note_on_c, 0, 69, 112
1, 98069, Note_off_c, 0, 69, 112
1, 98076, Note_on_c, 0, 68, 110
1, 98155, Note_off_c, 0, 68, 110
1, 98161, Note_on_c, 0, 67, 110
1, 98270, Note_off_c, 0, 67, 110
1, 98274, Note_on_c, 0, 65, 113
1, 98367, Note_off_c, 0, 65, 113
1, 98377, Note_on_c, 0, 63, 110
1, 98482, Note_off_c, 0, 63, 110
1, 98486, Note_on_c, 0, 62, 101
1, 98535, Note_off_c, 0, 62, 101
1, 98550, Note_on_c, 0, 65, 112
1, 98664, Note_off_c, 0, 65, 112
1, 98676, Note_on_c, 0, 61, 100
1, 98754, Note_off_c, 0, 61, 100
1, 98766, Note_on_c, 0, 60, 87
1, 98819, Note_off_c, 0, 60, 87
1, 100869, Note_on_c, 0, 74, 118
1, 101291, Note_off_c, 0, 74, 118
1, 101297, Note_on_c, 0, 75, 120
1, 101673, Note_off_c, 0, 75, 120
1, 101675, Note_on_c, 0, 76, 117
1, 102037, Note_off_c, 0, 76, 117
1, 102040, Note_on_c, 0, 77, 115
1, 103330, Note_off_c, 0, 77, 115
1, 103334, Note_on_c, 0, 76, 109
1, 103411, Note_off_c, 0, 76, 109
1, 103419, Note_on_c, 0, 77, 108
1, 103517, Note_off_c, 0, 77, 108
1, 103538, Note_on_c, 0, 75, 111
1, 103591, Note_off_c, 0, 75, 111
1, 103596, Note_on_c, 0, 74, 110
1, 103626, Note_off_c, 0, 74, 110
1, 103641, Note_on_c, 0, 75, 102
1, 105101, Note_off_c, 0, 75, 102
1, 105171, Note_on_c, 0, 71, 101
1, 105230, Note_off_c, 0, 71, 101
1, 105253, Note_on_c, 0, 74, 110
1, 105343, Note_off_c, 0, 74, 110
1, 105348, Note_on_c, 0, 73, 98
1, 105382, Note_off_c, 0, 73, 98
1, 105383, Note_on_c, 0, 71, 111
1, 105464, Note_off_c, 0, 71, 111
1, 105470, Note_on_c, 0, 72, 112
1, 105560, Note_off_c, 0, 72, 112
1, 105564, Note_on_c, 0, 70, 111
1, 105678, Note_off_c, 0, 70, 111
1, 105682, Note_on_c, 0, 69, 100
1, 105718, Note_off_c, 0, 69, 100
1, 105721, Note_on_c, 0, 67, 108
1, 105832, Note_off_c, 0, 67, 108
1, 105838, Note_on_c, 0, 65, 104
1, 105933, Note_off_c, 0, 65, 104
1, 105946, Note_on_c, 0, 64, 109
1, 106000, Note_off_c, 0, 64, 109
1, 106008, Note_on_c, 0, 63, 104
1, 106109, Note_off_c, 0, 63, 104
1, 106123, Note_on_c, 0, 65, 109
1, 106191, Note_off_c, 0, 65, 109
1, 106208, Note_on_c, 0, 67, 102
1, 106276, Note_off_c, 0, 67, 102
1, 106284, Note_on_c, 0, 69, 97
1, 106359, Note_off_c, 0, 69, 97
1, 106380, Note_on_c, 0, 70, 113
1, 106476, Note_off_c, 0, 70, 113
1, 106482, Note_on_c, 0, 68, 104
1, 106539, Note_off_c, 0, 68, 104
1, 106575, Note_on_c, 0, 70, 112
1, 106665, Note_off_c, 0, 70, 112
1, 106673, Note_on_c, 0, 69, 108
1, 106746, Note_off_c, 0, 69, 108
1, 106761, Note_on_c, 0, 68, 106
1, 106840, Note_off_c, 0, 68, 106
1, 106855, Note_on_c, 0, 67, 110
1, 106947, Note_off_c, 0, 67, 110
1, 106958, Note_on_c, 0, 65, 111
1, 107044, Note_off_c, 0, 65, 111
1, 107064, Note_on_c, 0, 63, 106
1, 107145, Note_off_c, 0, 63, 106
1, 107161, Note_on_c, 0, 61, 99
1, 107319, Note_off_c, 0, 61, 99
1, 107379, Note_on_c, 0, 60, 103
1, 107422, Note_off_c, 0, 60, 103
1, 107424, Note_on_c, 0, 58, 102
1, 107508, Note_off_c, 0, 58, 102
1, 107529, Note_on_c, 0, 56, 105
1, 107586, Note_off_c, 0, 56, 105
1, 107599, Note_on_c, 0, 58, 98
1, 107650, Note_off_c, 0, 58, 98
1, 107680, Note_on_c, 0, 60, 103
1, 107838, Note_off_c, 0, 60, 103
1, 107867, Note_on_c, 0, 67, 119
1, 107987, Note_off_c, 0, 67, 119
1, 107996, Note_on_c, 0, 64, 105
1, 108095, Note_off_c, 0, 64, 105
1, 108102, Note_on_c, 0, 65, 110
1, 108174, Note_off_c, 0, 65, 110
1, 108177, Note_on_c, 0, 67, 111
1, 108266, Note_off_c, 0, 67, 111
1, 108270, Note_on_c, 0, 68, 110
1, 108360, Note_off_c, 0, 68, 110
1, 108362, Note_on_c, 0, 69, 106
1, 108405, Note_off_c, 0, 69, 106
1, 108410, Note_on_c, 0, 74, 117
1, 108551, Note_off_c, 0, 74, 117
1, 108554, Note_on_c, 0, 71, 114
1, 108628, Note_off_c, 0, 71, 114
1, 108634, Note_on_c, 0, 72, 116
1, 108717, Note_off_c, 0, 72, 116
1, 108729, Note_on_c, 0, 70, 113
1, 108829, Note_off_c, 0, 70, 113
1, 108843, Note_on_c, 0, 67, 101
1, 108888, Note_off_c, 0, 67, 101
1, 108902, Note_on_c, 0, 68, 100
1, 108948, Note_off_c, 0, 68, 100
1, 108966, Note_on_c, 0, 69, 107
1, 109094, Note_off_c, 0, 69, 107
1, 109099, Note_on_c, 0, 70, 109
1, 109186, Note_off_c, 0, 70, 109
1, 109191, Note_on_c, 0, 69, 107
1, 109272, Note_off_c, 0, 69, 107
1, 109280, Note_on_c, 0, 67, 110
1, 109360, Note_off_c, 0, 67, 110
1, 109372, Note_on_c, 0, 66, 101
1, 109465, Note_off_c, 0, 66, 101
1, 109482, Note_on_c, 0, 63, 95
1, 109587, Note_off_c, 0, 63, 95
1, 109632, Note_on_c, 0, 64, 91
1, 109688, Note_off_c, 0, 64, 91
1, 109692, Note_on_c, 0, 66, 96
1, 109728, Note_off_c, 0, 66, 96
1, 109735, Note_on_c, 0, 69, 112
1, 109842, Note_off_c, 0, 69, 112
1, 109850, Note_on_c, 0, 66, 109
1, 109914, Note_off_c, 0, 66, 109
1, 109941, Note_on_c, 0, 67, 96
1, 110007, Note_off_c, 0, 67, 96
1, 110026, Note_on_c, 0, 69, 100
1, 110142, Note_off_c, 0, 69, 100
1, 110148, Note_on_c, 0, 70, 114
1, 110221, Note_off_c, 0, 70, 114
1, 110226, Note_on_c, 0, 72, 109
1, 110307, Note_off_c, 0, 72, 109
1, 110313, Note_on_c, 0, 74, 115
1, 110361, Note_off_c, 0, 74, 115
1, 110365, Note_on_c, 0, 72, 114
1, 110402, Note_off_c, 0, 72, 114
1, 110405, Note_on_c, 0, 74, 114
1, 110465, Note_off_c, 0, 74, 114
1, 111186, Note_on_c, 0, 73, 120
1, 111312, Note_off_c, 0, 73, 120
1, 111315, Note_on_c, 0, 72, 117
1, 111394, Note_off_c, 0, 72, 117
1, 111397, Note_on_c, 0, 70, 121
1, 111494, Note_off_c, 0, 70, 121
1, 111499, Note_on_c, 0, 69, 115
1, 111586, Note_off_c, 0, 69, 115
1, 111589, Note_on_c, 0, 67, 112
1, 111667, Note_off_c, 0, 67, 112
1, 111673, Note_on_c, 0, 65, 123
1, 111766, Note_off_c, 0, 65, 123
1, 111788, Note_on_c, 0, 61, 105
1, 111850, Note_off_c, 0, 61, 105
1, 111872, Note_on_c, 0, 60, 103
1, 111955, Note_off_c, 0, 60, 103
1, 111983, Note_on_c, 0, 58, 100
1, 112061, Note_off_c, 0, 58, 100
1, 112112, Note_on_c, 0, 61, 94
1, 112275, Note_off_c, 0, 61, 94
1, 112341, Note_on_c, 0, 65, 119
1, 112434, Note_off_c, 0, 65, 119
1, 112440, Note_on_c, 0, 67, 122
1, 112545, Note_off_c, 0, 67, 122
1, 112545, End_track
0, 0, End_of_file
