0, 0, Header, 1, 1, 192
1, 0, Start_track
1, 0, Title_t, "Melody"
1, 0, Tempo, 458015
1, 0, Key_signature, -1, "major"
1, 0, Time_signature, 4, 2, 24, 8
1, 1385, Note_on_c, 0, 77, 120
1, 1467, Note_off_c, 0, 77, 120
1, 1473, Note_on_c, 0, 76, 119
1, 1493, Note_off_c, 0, 76, 119
1, 1506, Note_on_c, 0, 77, 121
1, 1564, Note_off_c, 0, 77, 121
1, 1574, Note_on_c, 0, 79, 112
1, 2367, Note_off_c, 0, 79, 112
1, 2500, Note_on_c, 0, 77, 110
1, 2554, Note_off_c, 0, 77, 110
1, 2598, Note_on_c, 0, 77, 119
1, 2693, Note_off_c, 0, 77, 119
1, 2699, Note_on_c, 0, 75, 114
1, 2767, Note_off_c, 0, 75, 114
1, 2770, Note_on_c, 0, 74, 117
1, 2824, Note_off_c, 0, 74, 117
1, 2830, Note_on_c, 0, 72, 101
1, 2871, Note_off_c, 0, 72, 101
1, 2891, Note_on_c, 0, 73, 110
1, 3075, Note_off_c, 0, 73, 110
1, 3119, Note_on_c, 0, 69, 112
1, 3180, Note_off_c, 0, 69, 112
1, 3183, Note_on_c, 0, 66, 104
1, 3244, Note_off_c, 0, 66, 104
1, 3257, Note_on_c, 0, 63, 92
1, 3284, Note_off_c, 0, 63, 92
1, 3297, Note_on_c, 0, 65, 109
1, 3362, Note_off_c, 0, 65, 109
1, 3368, Note_on_c, 0, 62, 92
1, 3402, Note_off_c, 0, 62, 92
1, 3429, Note_on_c, 0, 62, 101
1, 3482, Note_off_c, 0, 62, 101
1, 3491, Note_on_c, 0, 65, 108
1, 3551, Note_off_c, 0, 65, 108
1, 3560, Note_on_c, 0, 68, 98
1, 3587, Note_off_c, 0, 68, 98
1, 3600, Note_on_c, 0, 70, 112
1, 3665, Note_off_c, 0, 70, 112
1, 3666, Note_on_c, 0, 76, 102
1, 3724, Note_off_c, 0, 76, 102
1, 3733, Note_on_c, 0, 70, 106
1, 3793, Note_off_c, 0, 70, 106
1, 3802, Note_on_c, 0, 73, 111
1, 3850, Note_off_c, 0, 73, 111
1, 3854, Note_on_c, 0, 70, 105
1, 3917, Note_off_c, 0, 70, 105
1, 3919, Note_on_c, 0, 73, 105
1, 3987, Note_off_c, 0, 73, 105
1, 3987, Note_on_c, 0, 70, 106
1, 4047, Note_off_c, 0, 70, 106
1, 4049, Note_on_c, 0, 73, 105
1, 4104, Note_off_c, 0, 73, 105
1, 4113, Note_on_c, 0, 70, 103
1, 4178, Note_off_c, 0, 70, 103
1, 4180, Note_on_c, 0, 73, 102
1, 4306, Note_off_c, 0, 73, 102
1, 4342, Note_on_c, 0, 70, 90
1, 4514, Note_off_c, 0, 70, 90
1, 4806, Note_on_c, 0, 72, 115
1, 4869, Note_off_c, 0, 72, 115
1, 4871, Note_on_c, 0, 69, 97
1, 4909, Note_off_c, 0, 69, 97
1, 4918, Note_on_c, 0, 72, 111
1, 5419, Note_off_c, 0, 72, 111
1, 5801, Note_on_c, 0, 69, 119
1, 5871, Note_off_c, 0, 69, 119
1, 5880, Note_on_c, 0, 71, 112
1, 6006, Note_off_c, 0, 71, 112
1, 6020, Note_on_c, 0, 68, 110
1, 6236, Note_off_c, 0, 68, 110
1, 6253, Note_on_c, 0, 70, 112
1, 6292, Note_off_c, 0, 70, 112
1, 6307, Note_on_c, 0, 67, 103
1, 6329, Note_off_c, 0, 67, 103
1, 6333, Note_on_c, 0, 70, 95
1, 6358, Note_off_c, 0, 70, 95
1, 6360, Note_on_c, 0, 72, 107
1, 6387, Note_off_c, 0, 72, 107
1, 6395, Note_on_c, 0, 74, 109
1, 6413, Note_off_c, 0, 74, 109
1, 6423, Note_on_c, 0, 75, 115
1, 6450, Note_off_c, 0, 75, 115
1, 6450, Note_on_c, 0, 77, 121
1, 6497, Note_off_c, 0, 77, 121
1, 6497, Note_on_c, 0, 79, 116
1, 6608, Note_off_c, 0, 79, 116
1, 6861, Note_on_c, 0, 82, 118
1, 6920, Note_off_c, 0, 82, 118
1, 6921, Note_on_c, 0, 79, 115
1, 6967, Note_off_c, 0, 79, 115
1, 6975, Note_on_c, 0, 79, 115
1, 7009, Note_off_c, 0, 79, 115
1, 7022, Note_on_c, 0, 77, 116
1, 7071, Note_off_c, 0, 77, 116
1, 7077, Note_on_c, 0, 76, 119
1, 7119, Note_off_c, 0, 76, 119
1, 7124, Note_on_c, 0, 75, 110
1, 7166, Note_off_c, 0, 75, 110
1, 7172, Note_on_c, 0, 74, 116
1, 7223, Note_off_c, 0, 74, 116
1, 7236, Note_on_c, 0, 73, 111
1, 7283, Note_off_c, 0, 73, 111
1, 7286, Note_on_c, 0, 72, 100
1, 7321, Note_off_c, 0, 72, 100
1, 7327, Note_on_c, 0, 70, 110
1, 7376, Note_off_c, 0, 70, 110
1, 7386, Note_on_c, 0, 69, 114
1, 7432, Note_off_c, 0, 69, 114
1, 7445, Note_on_c, 0, 67, 106
1, 7487, Note_off_c, 0, 67, 106
1, 7495, Note_on_c, 0, 65, 106
1, 7544, Note_off_c, 0, 65, 106
1, 7566, Note_on_c, 0, 62, 96
1, 7600, Note_off_c, 0, 62, 96
1, 7601, Note_on_c, 0, 63, 101
1, 7642, Note_off_c, 0, 63, 101
1, 7657, Note_on_c, 0, 65, 105
1, 7713, Note_off_c, 0, 65, 105
1, 7716, Note_on_c, 0, 67, 94
1, 7758, Note_off_c, 0, 67, 94
1, 7759, Note_on_c, 0, 69, 113
1, 7805, Note_off_c, 0, 69, 113
1, 7810, Note_on_c, 0, 70, 94
1, 7852, Note_off_c, 0, 70, 94
1, 7870, Note_on_c, 0, 73, 116
1, 7911, Note_off_c, 0, 73, 116
1, 7917, Note_on_c, 0, 72, 99
1, 7961, Note_off_c, 0, 72, 99
1, 7969, Note_on_c, 0, 70, 111
1, 8016, Note_off_c, 0, 70, 111
1, 8027, Note_on_c, 0, 69, 110
1, 8080, Note_off_c, 0, 69, 110
1, 8088, Note_on_c, 0, 72, 108
1, 8132, Note_off_c, 0, 72, 108
1, 8140, Note_on_c, 0, 70, 105
1, 8189, Note_off_c, 0, 70, 105
1, 8190, Note_on_c, 0, 68, 98
1, 8249, Note_off_c, 0, 68, 98
1, 8255, Note_on_c, 0, 69, 109
1, 8308, Note_off_c, 0, 69, 109
1, 8314, Note_on_c, 0, 67, 108
1, 8361, Note_off_c, 0, 67, 108
1, 8371, Note_on_c, 0, 66, 100
1, 8427, Note_off_c, 0, 66, 100
1, 8428, Note_on_c, 0, 64, 84
1, 8453, Note_off_c, 0, 64, 84
1, 8466, Note_on_c, 0, 65, 107
1, 8519, Note_off_c, 0, 65, 107
1, 8544, Note_on_c, 0, 62, 99
1, 8588, Note_off_c, 0, 62, 99
1, 8598, Note_on_c, 0, 64, 106
1, 8625, Note_off_c, 0, 64, 106
1, 8645, Note_on_c, 0, 65, 104
1, 8682, Note_off_c, 0, 65, 104
1, 8687, Note_on_c, 0, 67, 86
1, 8707, Note_off_c, 0, 67, 86
1, 8715, Note_on_c, 0, 69, 105
1, 8750, Note_off_c, 0, 69, 105
1, 8758, Note_on_c, 0, 70, 108
1, 8799, Note_off_c, 0, 70, 108
1, 8810, Note_on_c, 0, 71, 96
1, 8905, Note_off_c, 0, 71, 96
1, 9127, Note_on_c, 0, 70, 115
1, 9233, Note_on_c, 0, 68, 86
1, 9233, Note_off_c, 0, 70, 115
1, 9274, Note_off_c, 0, 68, 86
1, 9277, Note_on_c, 0, 69, 112
1, 9401, Note_off_c, 0, 69, 112
1, 9421, Note_on_c, 0, 64, 107
1, 9513, Note_off_c, 0, 64, 107
1, 9537, Note_on_c, 0, 63, 101
1, 9670, Note_off_c, 0, 63, 101
1, 9702, Note_on_c, 0, 63, 85
1, 9799, Note_off_c, 0, 63, 85
1, 10086, Note_on_c, 0, 77, 121
1, 10137, Note_off_c, 0, 77, 121
1, 10142, Note_on_c, 0, 76, 125
1, 10191, Note_off_c, 0, 76, 125
1, 10197, Note_on_c, 0, 75, 118
1, 10248, Note_off_c, 0, 75, 118
1, 10256, Note_on_c, 0, 77, 124
1, 10317, Note_off_c, 0, 77, 124
1, 10318, Note_on_c, 0, 74, 118
1, 10586, Note_off_c, 0, 74, 118
1, 10613, Note_on_c, 0, 72, 90
1, 10638, Note_off_c, 0, 72, 90
1, 10653, Note_on_c, 0, 73, 114
1, 10759, Note_off_c, 0, 73, 114
1, 10770, Note_on_c, 0, 68, 114
1, 10850, Note_off_c, 0, 68, 114
1, 10863, Note_on_c, 0, 65, 109
1, 10967, Note_off_c, 0, 65, 109
1, 10975, Note_on_c, 0, 60, 102
1, 11038, Note_off_c, 0, 60, 102
1, 11038, Note_on_c, 0, 61, 93
1, 11157, Note_off_c, 0, 61, 93
1, 11157, Note_on_c, 0, 60, 97
1, 11714, Note_off_c, 0, 60, 97
1, 11725, Note_on_c, 0, 58, 100
1, 12046, Note_off_c, 0, 58, 100
1, 12049, Note_on_c, 0, 57, 98
1, 12235, Note_off_c, 0, 57, 98
1, 12500, Note_on_c, 0, 67, 102
1, 12520, Note_off_c, 0, 67, 102
1, 12523, Note_on_c, 0, 68, 118
1, 12598, Note_off_c, 0, 68, 118
1, 12604, Note_on_c, 0, 73, 117
1, 12704, Note_off_c, 0, 73, 117
1, 12710, Note_on_c, 0, 69, 94
1, 12786, Note_off_c, 0, 69, 94
1, 12787, Note_on_c, 0, 73, 114
1, 12911, Note_off_c, 0, 73, 114
1, 12926, Note_on_c, 0, 68, 113
1, 13030, Note_off_c, 0, 68, 113
1, 13036, Note_on_c, 0, 65, 112
1, 13145, Note_off_c, 0, 65, 112
1, 13162, Note_on_c, 0, 63, 106
1, 13293, Note_off_c, 0, 63, 106
1, 13300, Note_on_c, 0, 62, 95
1, 13342, Note_off_c, 0, 62, 95
1, 13953, Note_on_c, 0, 77, 126
1, 14021, Note_off_c, 0, 77, 126
1, 14050, Note_on_c, 0, 81, 127
1, 14109, Note_off_c, 0, 81, 127
1, 14115, Note_on_c, 0, 82, 125
1, 14174, Note_off_c, 0, 82, 125
1, 14175, Note_on_c, 0, 84, 123
1, 14231, Note_off_c, 0, 84, 123
1, 14231, Note_on_c, 0, 82, 125
1, 14289, Note_off_c, 0, 82, 125
1, 14290, Note_on_c, 0, 81, 126
1, 14348, Note_off_c, 0, 81, 126
1, 14354, Note_on_c, 0, 79, 125
1, 14405, Note_off_c, 0, 79, 125
1, 14413, Note_on_c, 0, 82, 123
1, 14478, Note_off_c, 0, 82, 123
1, 14483, Note_on_c, 0, 81, 125
1, 14536, Note_off_c, 0, 81, 125
1, 14546, Note_on_c, 0, 79, 121
1, 14597, Note_off_c, 0, 79, 121
1, 14605, Note_on_c, 0, 77, 121
1, 14670, Note_off_c, 0, 77, 121
1, 14675, Note_on_c, 0, 76, 115
1, 15249, Note_off_c, 0, 76, 115
1, 15254, Note_on_c, 0, 74, 101
1, 15286, Note_off_c, 0, 74, 101
1, 15294, Note_on_c, 0, 75, 115
1, 15430, Note_off_c, 0, 75, 115
1, 15433, Note_on_c, 0, 73, 108
1, 15578, Note_off_c, 0, 73, 108
1, 15819, Note_on_c, 0, 77, 97
1, 15846, Note_off_c, 0, 77, 97
1, 15846, Note_on_c, 0, 76, 121
1, 15880, Note_off_c, 0, 76, 121
1, 15890, Note_on_c, 0, 75, 113
1, 16011, Note_off_c, 0, 75, 113
1, 16012, Note_on_c, 0, 74, 112
1, 16051, Note_off_c, 0, 74, 112
1, 16071, Note_on_c, 0, 73, 112
1, 16117, Note_off_c, 0, 73, 112
1, 16118, Note_on_c, 0, 72, 107
1, 16153, Note_off_c, 0, 72, 107
1, 16175, Note_on_c, 0, 70, 114
1, 16217, Note_off_c, 0, 70, 114
1, 16234, Note_on_c, 0, 69, 115
1, 16280, Note_off_c, 0, 69, 115
1, 16280, Note_on_c, 0, 67, 102
1, 16327, Note_off_c, 0, 67, 102
1, 16337, Note_on_c, 0, 65, 110
1, 16376, Note_off_c, 0, 65, 110
1, 16377, Note_on_c, 0, 64, 103
1, 16430, Note_off_c, 0, 64, 103
1, 16440, Note_on_c, 0, 62, 96
1, 16470, Note_off_c, 0, 62, 96
1, 16476, Note_on_c, 0, 63, 102
1, 16520, Note_off_c, 0, 63, 102
1, 16530, Note_on_c, 0, 65, 103
1, 16595, Note_off_c, 0, 65, 103
1, 16598, Note_on_c, 0, 67, 89
1, 16616, Note_off_c, 0, 67, 89
1, 16624, Note_on_c, 0, 69, 116
1, 16658, Note_off_c, 0, 69, 116
1, 16668, Note_on_c, 0, 70, 105
1, 16707, Note_off_c, 0, 70, 105
1, 16739, Note_on_c, 0, 73, 103
1, 16774, Note_off_c, 0, 73, 103
1, 16777, Note_on_c, 0, 72, 108
1, 16806, Note_off_c, 0, 72, 108
1, 16809, Note_on_c, 0, 70, 112
1, 16850, Note_off_c, 0, 70, 112
1, 16860, Note_on_c, 0, 69, 115
1, 16889, Note_off_c, 0, 69, 115
1, 17025, Note_on_c, 0, 77, 109
1, 17059, Note_off_c, 0, 77, 109
1, 17059, Note_on_c, 0, 75, 107
1, 17082, Note_off_c, 0, 75, 107
1, 17082, Note_on_c, 0, 71, 101
1, 17107, Note_off_c, 0, 71, 101
1, 17108, Note_on_c, 0, 69, 108
1, 17150, Note_off_c, 0, 69, 108
1, 17163, Note_on_c, 0, 70, 112
1, 17221, Note_off_c, 0, 70, 112
1, 17234, Note_on_c, 0, 67, 89
1, 17263, Note_off_c, 0, 67, 89
1, 17271, Note_on_c, 0, 69, 108
1, 17447, Note_off_c, 0, 69, 108
1, 17457, Note_on_c, 0, 67, 102
1, 17501, Note_off_c, 0, 67, 102
1, 17507, Note_on_c, 0, 65, 111
1, 17565, Note_off_c, 0, 65, 111
1, 17568, Note_on_c, 0, 64, 108
1, 17612, Note_off_c, 0, 64, 108
1, 17620, Note_on_c, 0, 63, 99
1, 17657, Note_off_c, 0, 63, 99
1, 17944, Note_on_c, 0, 74, 120
1, 18096, Note_off_c, 0, 74, 120
1, 18101, Note_on_c, 0, 73, 104
1, 18121, Note_off_c, 0, 73, 104
1, 18126, Note_on_c, 0, 74, 121
1, 18237, Note_off_c, 0, 74, 121
1, 18250, Note_on_c, 0, 75, 107
1, 18410, Note_off_c, 0, 75, 107
1, 18442, Note_on_c, 0, 73, 97
1, 18513, Note_off_c, 0, 73, 97
1, 18513, Note_on_c, 0, 76, 125
1, 18583, Note_off_c, 0, 76, 125
1, 18584, Note_on_c, 0, 75, 117
1, 18635, Note_off_c, 0, 75, 117
1, 18641, Note_on_c, 0, 76, 123
1, 18697, Note_off_c, 0, 76, 123
1, 18703, Note_on_c, 0, 77, 119
1, 18831, Note_off_c, 0, 77, 119
1, 19101, Note_on_c, 0, 89, 120
1, 19256, Note_off_c, 0, 89, 120
1, 19464, Note_on_c, 0, 83, 101
1, 19489, Note_off_c, 0, 83, 101
1, 19492, Note_on_c, 0, 87, 116
1, 19527, Note_off_c, 0, 87, 116
1, 19530, Note_on_c, 0, 88, 119
1, 19622, Note_off_c, 0, 88, 119
1, 19669, Note_on_c, 0, 86, 119
1, 19781, Note_off_c, 0, 86, 119
1, 19786, Note_on_c, 0, 84, 120
1, 19873, Note_off_c, 0, 84, 120
1, 19876, Note_on_c, 0, 82, 116
1, 19978, Note_off_c, 0, 82, 116
1, 19983, Note_on_c, 0, 80, 112
1, 20012, Note_off_c, 0, 80, 112
1, 20054, Note_on_c, 0, 79, 97
1, 20065, Note_off_c, 0, 79, 97
1, 20073, Note_on_c, 0, 77, 116
1, 20158, Note_off_c, 0, 77, 116
1, 20178, Note_on_c, 0, 80, 107
1, 20189, Note_off_c, 0, 80, 107
1, 20194, Note_on_c, 0, 77, 113
1, 20241, Note_off_c, 0, 77, 113
1, 20242, Note_on_c, 0, 75, 112
1, 20349, Note_off_c, 0, 75, 112
1, 20362, Note_on_c, 0, 72, 110
1, 20404, Note_off_c, 0, 72, 110
1, 20429, Note_on_c, 0, 70, 105
1, 20559, Note_off_c, 0, 70, 105
1, 20574, Note_on_c, 0, 65, 82
1, 20609, Note_off_c, 0, 65, 82
1, 20615, Note_on_c, 0, 69, 104
1, 20789, Note_off_c, 0, 69, 104
1, 20790, Note_on_c, 0, 66, 96
1, 20913, Note_off_c, 0, 66, 96
1, 20935, Note_on_c, 0, 65, 96
1, 21095, Note_off_c, 0, 65, 96
1, 21108, Note_on_c, 0, 63, 95
1, 21296, Note_off_c, 0, 63, 95
1, 21306, Note_on_c, 0, 61, 97
1, 21473, Note_off_c, 0, 61, 97
1, 21488, Note_on_c, 0, 59, 92
1, 21730, Note_off_c, 0, 59, 92
1, 21748, Note_on_c, 0, 58, 92
1, 21866, Note_off_c, 0, 58, 92
1, 21884, Note_on_c, 0, 58, 93
1, 21921, Note_off_c, 0, 58, 93
1, 22327, Note_on_c, 0, 74, 107
1, 22361, Note_off_c, 0, 74, 107
1, 22361, Note_on_c, 0, 72, 105
1, 22390, Note_off_c, 0, 72, 105
1, 22391, Note_on_c, 0, 69, 112
1, 22437, Note_off_c, 0, 69, 112
1, 22448, Note_on_c, 0, 70, 108
1, 22513, Note_off_c, 0, 70, 108
1, 22516, Note_on_c, 0, 67, 95
1, 22539, Note_off_c, 0, 67, 95
1, 22544, Note_on_c, 0, 68, 105
1, 22603, Note_off_c, 0, 68, 105
1, 22614, Note_on_c, 0, 70, 95
1, 22685, Note_off_c, 0, 70, 95
1, 22700, Note_on_c, 0, 72, 111
1, 22749, Note_off_c, 0, 72, 111
1, 22755, Note_on_c, 0, 74, 115
1, 22801, Note_off_c, 0, 74, 115
1, 22811, Note_on_c, 0, 76, 114
1, 22858, Note_off_c, 0, 76, 114
1, 22868, Note_on_c, 0, 74, 105
1, 22927, Note_off_c, 0, 74, 105
1, 22933, Note_on_c, 0, 72, 113
1, 22980, Note_off_c, 0, 72, 113
1, 22984, Note_on_c, 0, 71, 103
1, 23008, Note_off_c, 0, 71, 103
1, 23034, Note_on_c, 0, 70, 114
1, 23085, Note_off_c, 0, 70, 114
1, 23143, Note_on_c, 0, 68, 101
1, 23430, Note_off_c, 0, 68, 101
1, 23435, Note_on_c, 0, 69, 97
1, 23595, Note_off_c, 0, 69, 97
1, 23670, Note_on_c, 0, 77, 116
1, 23700, Note_off_c, 0, 77, 116
1, 23701, Note_on_c, 0, 75, 106
1, 23721, Note_off_c, 0, 75, 106
1, 23729, Note_on_c, 0, 72, 95
1, 23747, Note_off_c, 0, 72, 95
1, 23747, Note_on_c, 0, 68, 94
1, 23767, Note_off_c, 0, 68, 94
1, 23770, Note_on_c, 0, 69, 103
1, 23821, Note_off_c, 0, 69, 103
1, 23844, Note_on_c, 0, 70, 108
1, 23989, Note_off_c, 0, 70, 108
1, 24031, Note_on_c, 0, 69, 106
1, 24152, Note_off_c, 0, 69, 106
1, 24165, Note_on_c, 0, 67, 103
1, 24192, Note_off_c, 0, 67, 103
1, 24239, Note_on_c, 0, 66, 96
1, 24269, Note_off_c, 0, 66, 96
1, 24310, Note_on_c, 0, 64, 99
1, 24344, Note_off_c, 0, 64, 99
1, 24598, Note_on_c, 0, 77, 123
1, 24651, Note_off_c, 0, 77, 123
1, 24652, Note_on_c, 0, 76, 123
1, 24699, Note_off_c, 0, 76, 123
1, 24707, Note_on_c, 0, 77, 125
1, 24760, Note_off_c, 0, 77, 125
1, 24765, Note_on_c, 0, 79, 121
1, 24821, Note_off_c, 0, 79, 121
1, 24821, Note_on_c, 0, 76, 121
1, 24875, Note_off_c, 0, 76, 121
1, 24880, Note_on_c, 0, 74, 10
1, 24941, Note_off_c, 0, 74, 10
1, 24947, Note_on_c, 0, 72, 107
1, 25099, Note_off_c, 0, 72, 107
1, 25169, Note_on_c, 0, 74, 122
1, 25225, Note_off_c, 0, 74, 122
1, 25228, Note_on_c, 0, 72, 105
1, 25255, Note_off_c, 0, 72, 105
1, 25294, Note_on_c, 0, 74, 117
1, 25523, Note_off_c, 0, 74, 117
1, 25528, Note_on_c, 0, 72, 103
1, 25555, Note_off_c, 0, 72, 103
1, 25556, Note_on_c, 0, 74, 114
1, 25627, Note_off_c, 0, 74, 114
1, 25627, Note_on_c, 0, 72, 110
1, 25662, Note_off_c, 0, 72, 110
1, 25662, Note_on_c, 0, 70, 98
1, 25839, Note_off_c, 0, 70, 98
1, 26129, Note_on_c, 0, 77, 122
1, 26171, Note_off_c, 0, 77, 122
1, 26177, Note_on_c, 0, 76, 112
1, 26216, Note_off_c, 0, 76, 112
1, 26224, Note_on_c, 0, 76, 119
1, 26268, Note_off_c, 0, 76, 119
1, 26283, Note_on_c, 0, 78, 123
1, 26330, Note_off_c, 0, 78, 123
1, 26362, Note_on_c, 0, 81, 125
1, 26404, Note_off_c, 0, 81, 125
1, 26414, Note_on_c, 0, 83, 125
1, 26461, Note_off_c, 0, 83, 125
1, 26467, Note_on_c, 0, 86, 123
1, 26516, Note_off_c, 0, 86, 123
1, 26527, Note_on_c, 0, 82, 119
1, 26581, Note_off_c, 0, 82, 119
1, 26592, Note_on_c, 0, 81, 124
1, 26634, Note_off_c, 0, 81, 124
1, 26644, Note_on_c, 0, 79, 120
1, 26688, Note_off_c, 0, 79, 120
1, 26693, Note_on_c, 0, 77, 124
1, 26746, Note_off_c, 0, 77, 124
1, 26752, Note_on_c, 0, 75, 118
1, 26796, Note_off_c, 0, 75, 118
1, 26811, Note_on_c, 0, 72, 119
1, 26850, Note_off_c, 0, 72, 119
1, 26860, Note_on_c, 0, 71, 103
1, 26899, Note_off_c, 0, 71, 103
1, 26917, Note_on_c, 0, 70, 113
1, 26968, Note_off_c, 0, 70, 113
1, 26974, Note_on_c, 0, 69, 117
1, 27025, Note_off_c, 0, 69, 117
1, 27071, Note_on_c, 0, 70, 117
1, 27127, Note_off_c, 0, 70, 117
1, 27190, Note_on_c, 0, 69, 121
1, 27229, Note_off_c, 0, 69, 121
1, 27249, Note_on_c, 0, 67, 111
1, 27293, Note_off_c, 0, 67, 111
1, 27299, Note_on_c, 0, 65, 114
1, 27352, Note_off_c, 0, 65, 114
1, 27357, Note_on_c, 0, 64, 109
1, 27403, Note_off_c, 0, 64, 109
1, 27426, Note_on_c, 0, 63, 109
1, 27473, Note_off_c, 0, 63, 109
1, 27478, Note_on_c, 0, 60, 103
1, 27519, Note_off_c, 0, 60, 103
1, 27527, Note_on_c, 0, 59, 102
1, 27619, Note_off_c, 0, 59, 102
1, 27630, Note_on_c, 0, 58, 106
1, 27792, Note_off_c, 0, 58, 106
1, 27808, Note_on_c, 0, 57, 100
1, 27956, Note_off_c, 0, 57, 100
1, 27956, End_track
0, 0, End_of_file
