0, 0, Header, 1, 1, 420
1, 0, Start_track
1, 0, Title_t, "Melody"
1, 0, Tempo, 387096
1, 0, Key_signature, -3, "major"
1, 0, Time_signature, 4, 2, 24, 8
1, 7963, Note_on_c, 0, 64, 93
1, 8186, Note_off_c, 0, 64, 93
1, 8214, Note_on_c, 0, 68, 82
1, 8276, Note_off_c, 0, 68, 82
1, 8287, Note_on_c, 0, 73, 102
1, 8504, Note_off_c, 0, 73, 102
1, 8549, Note_on_c, 0, 66, 100
1, 8800, Note_off_c, 0, 66, 100
1, 8825, Note_on_c, 0, 67, 94
1, 9045, Note_off_c, 0, 67, 94
1, 9063, Note_on_c, 0, 68, 91
1, 9595, Note_off_c, 0, 68, 91
1, 11109, Note_on_c, 0, 69, 94
1, 11285, Note_off_c, 0, 69, 94
1, 11291, Note_on_c, 0, 70, 87
1, 11372, Note_off_c, 0, 70, 87
1, 11387, Note_on_c, 0, 73, 109
1, 11541, Note_off_c, 0, 73, 109
1, 11572, Note_on_c, 0, 72, 109
1, 11694, Note_off_c, 0, 72, 109
1, 11709, Note_on_c, 0, 70, 104
1, 11860, Note_off_c, 0, 70, 104
1, 11885, Note_on_c, 0, 67, 92
1, 11985, Note_off_c, 0, 67, 92
1, 11997, Note_on_c, 0, 72, 106
1, 12078, Note_off_c, 0, 72, 106
1, 12153, Note_on_c, 0, 70, 83
1, 12206, Note_off_c, 0, 70, 83
1, 12302, Note_on_c, 0, 77, 104
1, 12401, Note_off_c, 0, 77, 104
1, 12491, Note_on_c, 0, 69, 107
1, 12628, Note_off_c, 0, 69, 107
1, 12664, Note_on_c, 0, 70, 107
1, 12783, Note_off_c, 0, 70, 107
1, 12808, Note_on_c, 0, 69, 107
1, 12905, Note_off_c, 0, 69, 107
1, 12942, Note_on_c, 0, 67, 94
1, 13030, Note_off_c, 0, 67, 94
1, 13067, Note_on_c, 0, 65, 105
1, 13180, Note_off_c, 0, 65, 105
1, 13222, Note_on_c, 0, 64, 100
1, 13345, Note_off_c, 0, 64, 100
1, 13351, Note_on_c, 0, 62, 87
1, 13492, Note_off_c, 0, 62, 87
1, 13495, Note_on_c, 0, 63, 101
1, 13611, Note_off_c, 0, 63, 101
1, 13658, Note_on_c, 0, 65, 106
1, 13761, Note_off_c, 0, 65, 106
1, 13783, Note_on_c, 0, 66, 103
1, 13899, Note_off_c, 0, 66, 103
1, 13912, Note_on_c, 0, 63, 75
1, 14000, Note_off_c, 0, 63, 75
1, 14055, Note_on_c, 0, 65, 99
1, 14584, Note_off_c, 0, 65, 99
1, 14602, Note_on_c, 0, 63, 88
1, 14721, Note_off_c, 0, 63, 88
1, 17130, Note_on_c, 0, 75, 114
1, 17271, Note_off_c, 0, 75, 114
1, 17304, Note_on_c, 0, 73, 109
1, 17405, Note_off_c, 0, 73, 109
1, 17442, Note_on_c, 0, 72, 102
1, 17557, Note_off_c, 0, 72, 102
1, 17599, Note_on_c, 0, 70, 105
1, 17714, Note_off_c, 0, 70, 105
1, 17740, Note_on_c, 0, 67, 94
1, 17821, Note_off_c, 0, 67, 94
1, 17836, Note_on_c, 0, 69, 108
1, 17948, Note_off_c, 0, 69, 108
1, 17963, Note_on_c, 0, 70, 103
1, 18113, Note_off_c, 0, 70, 103
1, 18128, Note_on_c, 0, 72, 97
1, 18263, Note_off_c, 0, 72, 97
1, 18276, Note_on_c, 0, 71, 94
1, 18357, Note_off_c, 0, 71, 94
1, 18394, Note_on_c, 0, 70, 101
1, 18513, Note_off_c, 0, 70, 101
1, 18524, Note_on_c, 0, 69, 103
1, 18665, Note_off_c, 0, 69, 103
1, 18687, Note_on_c, 0, 67, 104
1, 18788, Note_off_c, 0, 67, 104
1, 18812, Note_on_c, 0, 65, 100
1, 18960, Note_off_c, 0, 65, 100
1, 18975, Note_on_c, 0, 62, 88
1, 19075, Note_on_c, 0, 63, 100
1, 19075, Note_off_c, 0, 62, 88
1, 19203, Note_off_c, 0, 63, 100
1, 19217, Note_on_c, 0, 61, 94
1, 19324, Note_off_c, 0, 61, 94
1, 19338, Note_on_c, 0, 60, 94
1, 19445, Note_off_c, 0, 60, 94
1, 19473, Note_on_c, 0, 58, 103
1, 19606, Note_off_c, 0, 58, 103
1, 19612, Note_on_c, 0, 57, 97
1, 19774, Note_off_c, 0, 57, 97
1, 19780, Note_on_c, 0, 55, 88
1, 19877, Note_off_c, 0, 55, 88
1, 19881, Note_on_c, 0, 57, 101
1, 20513, Note_off_c, 0, 57, 101
1, 20517, Note_on_c, 0, 58, 101
1, 20680, Note_off_c, 0, 58, 101
1, 20694, Note_on_c, 0, 54, 84
1, 22855, Note_off_c, 0, 54, 84
1, 23727, Note_on_c, 0, 67, 101
1, 23794, Note_off_c, 0, 67, 101
1, 23973, Note_on_c, 0, 78, 109
1, 24387, Note_off_c, 0, 78, 109
1, 24555, Note_on_c, 0, 75, 103
1, 24840, Note_off_c, 0, 75, 103
1, 24871, Note_on_c, 0, 64, 101
1, 25172, Note_off_c, 0, 64, 101
1, 25426, Note_on_c, 0, 61, 97
1, 25527, Note_off_c, 0, 61, 97
1, 25686, Note_on_c, 0, 72, 98
1, 26155, Note_off_c, 0, 72, 98
1, 26279, Note_on_c, 0, 69, 102
1, 26564, Note_off_c, 0, 69, 102
1, 26595, Note_on_c, 0, 58, 105
1, 26973, Note_off_c, 0, 58, 105
1, 29654, Note_on_c, 0, 82, 114
1, 29853, Note_off_c, 0, 82, 114
1, 29857, Note_on_c, 0, 79, 85
1, 29914, Note_off_c, 0, 79, 85
1, 29918, Note_on_c, 0, 82, 114
1, 30070, Note_off_c, 0, 82, 114
1, 30084, Note_on_c, 0, 85, 115
1, 30219, Note_off_c, 0, 85, 115
1, 30226, Note_on_c, 0, 84, 114
1, 30358, Note_off_c, 0, 84, 114
1, 30373, Note_on_c, 0, 82, 108
1, 30517, Note_off_c, 0, 82, 108
1, 30524, Note_on_c, 0, 81, 108
1, 30675, Note_off_c, 0, 81, 108
1, 30681, Note_on_c, 0, 77, 93
1, 30753, Note_off_c, 0, 77, 93
1, 30776, Note_on_c, 0, 81, 105
1, 30916, Note_off_c, 0, 81, 105
1, 30931, Note_on_c, 0, 79, 108
1, 31056, Note_off_c, 0, 79, 108
1, 31059, Note_on_c, 0, 77, 110
1, 31195, Note_off_c, 0, 77, 110
1, 31210, Note_on_c, 0, 76, 110
1, 31331, Note_off_c, 0, 76, 110
1, 31345, Note_on_c, 0, 75, 109
1, 31456, Note_off_c, 0, 75, 109
1, 31512, Note_on_c, 0, 73, 103
1, 31608, Note_off_c, 0, 73, 103
1, 31663, Note_on_c, 0, 72, 102
1, 31746, Note_off_c, 0, 72, 102
1, 31813, Note_on_c, 0, 70, 103
1, 31899, Note_off_c, 0, 70, 103
1, 31944, Note_on_c, 0, 69, 99
1, 32071, Note_off_c, 0, 69, 99
1, 32108, Note_on_c, 0, 67, 91
1, 32153, Note_off_c, 0, 67, 91
1, 32156, Note_on_c, 0, 69, 92
1, 32190, Note_off_c, 0, 69, 92
1, 32191, Note_on_c, 0, 72, 111
1, 32334, Note_off_c, 0, 72, 111
1, 32363, Note_on_c, 0, 69, 92
1, 32430, Note_off_c, 0, 69, 92
1, 32442, Note_on_c, 0, 70, 106
1, 32599, Note_off_c, 0, 70, 106
1, 32608, Note_on_c, 0, 68, 91
1, 32713, Note_off_c, 0, 68, 91
1, 32722, Note_on_c, 0, 69, 103
1, 32857, Note_off_c, 0, 69, 103
1, 32880, Note_on_c, 0, 66, 92
1, 32968, Note_off_c, 0, 66, 92
1, 32979, Note_on_c, 0, 67, 101
1, 33418, Note_off_c, 0, 67, 101
1, 33649, Note_on_c, 0, 63, 101
1, 33863, Note_off_c, 0, 63, 101
1, 33876, Note_on_c, 0, 64, 104
1, 34181, Note_off_c, 0, 64, 104
1, 34209, Note_on_c, 0, 66, 104
1, 35085, Note_off_c, 0, 66, 104
1, 35118, Note_on_c, 0, 63, 108
1, 35253, Note_off_c, 0, 63, 108
1, 35264, Note_on_c, 0, 64, 104
1, 35394, Note_off_c, 0, 64, 104
1, 35464, Note_on_c, 0, 60, 92
1, 35554, Note_off_c, 0, 60, 92
1, 35560, Note_on_c, 0, 61, 101
1, 36056, Note_off_c, 0, 61, 101
1, 36100, Note_on_c, 0, 57, 102
1, 36341, Note_off_c, 0, 57, 102
1, 36349, Note_on_c, 0, 58, 101
1, 36457, Note_off_c, 0, 58, 101
1, 36459, Note_on_c, 0, 54, 91
1, 36596, Note_off_c, 0, 54, 91
1, 36607, Note_on_c, 0, 55, 96
1, 36697, Note_off_c, 0, 55, 96
1, 36734, Note_on_c, 0, 51, 90
1, 36873, Note_off_c, 0, 51, 90
1, 36888, Note_on_c, 0, 54, 91
1, 37007, Note_off_c, 0, 54, 91
1, 38062, Note_on_c, 0, 77, 112
1, 38113, Note_off_c, 0, 77, 112
1, 38113, Note_on_c, 0, 76, 113
1, 38175, Note_off_c, 0, 76, 113
1, 38197, Note_on_c, 0, 75, 103
1, 38282, Note_off_c, 0, 75, 103
1, 38314, Note_on_c, 0, 79, 96
1, 38398, Note_off_c, 0, 79, 96
1, 38568, Note_on_c, 0, 67, 89
1, 38637, Note_off_c, 0, 67, 89
1, 38820, Note_on_c, 0, 70, 107
1, 39075, Note_off_c, 0, 70, 107
1, 39075, Note_on_c, 0, 67, 85
1, 39137, Note_off_c, 0, 67, 85
1, 39139, Note_on_c, 0, 69, 110
1, 39383, Note_off_c, 0, 69, 110
1, 39405, Note_on_c, 0, 77, 93
1, 39474, Note_off_c, 0, 77, 93
1, 40678, Note_on_c, 0, 76, 102
1, 40723, Note_off_c, 0, 76, 102
1, 40726, Note_on_c, 0, 77, 105
1, 40755, Note_off_c, 0, 77, 105
1, 40827, Note_on_c, 0, 69, 106
1, 40957, Note_off_c, 0, 69, 106
1, 40982, Note_on_c, 0, 70, 104
1, 42103, Note_off_c, 0, 70, 104
1, 42114, Note_on_c, 0, 72, 97
1, 42186, Note_off_c, 0, 72, 97
1, 42190, Note_on_c, 0, 73, 106
1, 42388, Note_off_c, 0, 73, 106
1, 42392, Note_on_c, 0, 67, 90
1, 42487, Note_off_c, 0, 67, 90
1, 42492, Note_on_c, 0, 69, 105
1, 42648, Note_off_c, 0, 69, 105
1, 42669, Note_on_c, 0, 70, 104
1, 42765, Note_off_c, 0, 70, 104
1, 42766, Note_on_c, 0, 72, 98
1, 43070, Note_off_c, 0, 72, 98
1, 45036, Note_on_c, 0, 72, 104
1, 45168, Note_off_c, 0, 72, 104
1, 45258, Note_on_c, 0, 67, 86
1, 45325, Note_off_c, 0, 67, 86
1, 45328, Note_on_c, 0, 70, 108
1, 45424, Note_off_c, 0, 70, 108
1, 45438, Note_on_c, 0, 69, 104
1, 45588, Note_off_c, 0, 69, 104
1, 45599, Note_on_c, 0, 67, 96
1, 45718, Note_off_c, 0, 67, 96
1, 45732, Note_on_c, 0, 65, 101
1, 45854, Note_off_c, 0, 65, 101
1, 45880, Note_on_c, 0, 62, 93
1, 45980, Note_off_c, 0, 62, 93
1, 45986, Note_on_c, 0, 63, 95
1, 46115, Note_off_c, 0, 63, 95
1, 46130, Note_on_c, 0, 65, 98
1, 46259, Note_off_c, 0, 65, 98
1, 46265, Note_on_c, 0, 67, 85
1, 46359, Note_off_c, 0, 67, 85
1, 46366, Note_on_c, 0, 69, 106
1, 46491, Note_off_c, 0, 69, 106
1, 46506, Note_on_c, 0, 70, 107
1, 46632, Note_off_c, 0, 70, 107
1, 46651, Note_on_c, 0, 72, 109
1, 46769, Note_off_c, 0, 72, 109
1, 46780, Note_on_c, 0, 73, 108
1, 46892, Note_off_c, 0, 73, 108
1, 46918, Note_on_c, 0, 75, 112
1, 47051, Note_off_c, 0, 75, 112
1, 47061, Note_on_c, 0, 77, 114
1, 47186, Note_off_c, 0, 77, 114
1, 47322, Note_on_c, 0, 79, 116
1, 47462, Note_off_c, 0, 79, 116
1, 47469, Note_on_c, 0, 82, 115
1, 47610, Note_off_c, 0, 82, 115
1, 47621, Note_on_c, 0, 84, 127
1, 47754, Note_off_c, 0, 84, 127
1, 47765, Note_on_c, 0, 85, 119
1, 47887, Note_off_c, 0, 85, 119
1, 47895, Note_on_c, 0, 86, 125
1, 48035, Note_off_c, 0, 86, 125
1, 48044, Note_on_c, 0, 89, 115
1, 48183, Note_off_c, 0, 89, 115
1, 49879, Note_on_c, 0, 82, 114
1, 50085, Note_off_c, 0, 82, 114
1, 50095, Note_on_c, 0, 83, 108
1, 50143, Note_off_c, 0, 83, 108
1, 50149, Note_on_c, 0, 82, 111
1, 50316, Note_off_c, 0, 82, 111
1, 50379, Note_on_c, 0, 89, 106
1, 50618, Note_off_c, 0, 89, 106
1, 50642, Note_on_c, 0, 82, 114
1, 50826, Note_off_c, 0, 82, 114
1, 50839, Note_on_c, 0, 81, 112
1, 51161, Note_off_c, 0, 81, 112
1, 51173, Note_on_c, 0, 80, 99
1, 56520, Note_off_c, 0, 80, 99
1, 56535, Note_on_c, 0, 79, 98
1, 56598, Note_off_c, 0, 79, 98
1, 56605, Note_on_c, 0, 77, 94
1, 56668, Note_off_c, 0, 77, 94
1, 56677, Note_on_c, 0, 78, 95
1, 56762, Note_off_c, 0, 78, 95
1, 56766, Note_on_c, 0, 76, 97
1, 56795, Note_off_c, 0, 76, 97
1, 56802, Note_on_c, 0, 75, 95
1, 56966, Note_off_c, 0, 75, 95
1, 59149, Note_on_c, 0, 75, 113
1, 59328, Note_off_c, 0, 75, 113
1, 59331, Note_on_c, 0, 77, 96
1, 59397, Note_off_c, 0, 77, 96
1, 59403, Note_on_c, 0, 78, 113
1, 59587, Note_off_c, 0, 78, 113
1, 59593, Note_on_c, 0, 80, 107
1, 59718, Note_off_c, 0, 80, 107
1, 59725, Note_on_c, 0, 82, 109
1, 59846, Note_off_c, 0, 82, 109
1, 59874, Note_on_c, 0, 82, 101
1, 59918, Note_off_c, 0, 82, 101
1, 59925, Note_on_c, 0, 80, 104
1, 59989, Note_off_c, 0, 80, 104
1, 59992, Note_on_c, 0, 78, 106
1, 60111, Note_off_c, 0, 78, 106
1, 60150, Note_on_c, 0, 76, 109
1, 60235, Note_off_c, 0, 76, 109
1, 60288, Note_on_c, 0, 75, 109
1, 60395, Note_off_c, 0, 75, 109
1, 60439, Note_on_c, 0, 73, 108
1, 60550, Note_off_c, 0, 73, 108
1, 60584, Note_on_c, 0, 69, 103
1, 60700, Note_off_c, 0, 69, 103
1, 60844, Note_on_c, 0, 72, 105
1, 61083, Note_off_c, 0, 72, 105
1, 61105, Note_on_c, 0, 73, 105
1, 61297, Note_off_c, 0, 73, 105
1, 61311, Note_on_c, 0, 75, 106
1, 61766, Note_off_c, 0, 75, 106
1, 61805, Note_on_c, 0, 67, 98
1, 61968, Note_off_c, 0, 67, 98
1, 61974, Note_on_c, 0, 68, 83
1, 62046, Note_off_c, 0, 68, 83
1, 62052, Note_on_c, 0, 70, 107
1, 62229, Note_off_c, 0, 70, 107
1, 62236, Note_on_c, 0, 68, 86
1, 62311, Note_off_c, 0, 68, 86
1, 62318, Note_on_c, 0, 73, 107
1, 62474, Note_off_c, 0, 73, 107
1, 62488, Note_on_c, 0, 72, 106
1, 62614, Note_off_c, 0, 72, 106
1, 62625, Note_on_c, 0, 70, 104
1, 62766, Note_off_c, 0, 70, 104
1, 62790, Note_on_c, 0, 66, 83
1, 62868, Note_off_c, 0, 66, 83
1, 62870, Note_on_c, 0, 69, 103
1, 62992, Note_off_c, 0, 69, 103
1, 63028, Note_on_c, 0, 70, 102
1, 63135, Note_off_c, 0, 70, 102
1, 63144, Note_on_c, 0, 72, 103
1, 63257, Note_off_c, 0, 72, 103
1, 63275, Note_on_c, 0, 75, 105
1, 63374, Note_off_c, 0, 75, 105
1, 63422, Note_on_c, 0, 64, 105
1, 63559, Note_off_c, 0, 64, 105
1, 63573, Note_on_c, 0, 62, 93
1, 63677, Note_off_c, 0, 62, 93
1, 63684, Note_on_c, 0, 67, 97
1, 63825, Note_off_c, 0, 67, 97
1, 63847, Note_on_c, 0, 69, 106
1, 63972, Note_off_c, 0, 69, 106
1, 63990, Note_on_c, 0, 71, 99
1, 64130, Note_off_c, 0, 71, 99
1, 64151, Note_on_c, 0, 62, 88
1, 64273, Note_off_c, 0, 62, 88
1, 64278, Note_on_c, 0, 65, 97
1, 64419, Note_off_c, 0, 65, 97
1, 64429, Note_on_c, 0, 62, 91
1, 64526, Note_off_c, 0, 62, 91
1, 64549, Note_on_c, 0, 63, 102
1, 64669, Note_off_c, 0, 63, 102
1, 64687, Note_on_c, 0, 65, 95
1, 64799, Note_off_c, 0, 65, 95
1, 64806, Note_on_c, 0, 67, 88
1, 64908, Note_off_c, 0, 67, 88
1, 64923, Note_on_c, 0, 69, 100
1, 65031, Note_off_c, 0, 69, 100
1, 65065, Note_on_c, 0, 70, 99
1, 65154, Note_off_c, 0, 70, 99
1, 65217, Note_on_c, 0, 72, 90
1, 65305, Note_off_c, 0, 72, 90
1, 65370, Note_on_c, 0, 73, 104
1, 65493, Note_off_c, 0, 73, 104
1, 65512, Note_on_c, 0, 67, 95
1, 65609, Note_off_c, 0, 67, 95
1, 65638, Note_on_c, 0, 72, 104
1, 65760, Note_off_c, 0, 72, 104
1, 65769, Note_on_c, 0, 71, 102
1, 65875, Note_off_c, 0, 71, 102
1, 65906, Note_on_c, 0, 70, 24
1, 66043, Note_off_c, 0, 70, 24
1, 66057, Note_on_c, 0, 67, 87
1, 66156, Note_off_c, 0, 67, 87
1, 66164, Note_on_c, 0, 69, 104
1, 66304, Note_off_c, 0, 69, 104
1, 66326, Note_on_c, 0, 67, 102
1, 66458, Note_off_c, 0, 67, 102
1, 66465, Note_on_c, 0, 65, 104
1, 66602, Note_off_c, 0, 65, 104
1, 66619, Note_on_c, 0, 64, 102
1, 66729, Note_off_c, 0, 64, 102
1, 66764, Note_on_c, 0, 63, 98
1, 66882, Note_off_c, 0, 63, 98
1, 66914, Note_on_c, 0, 61, 94
1, 67022, Note_off_c, 0, 61, 94
1, 67049, Note_on_c, 0, 60, 92
1, 67165, Note_off_c, 0, 60, 92
1, 67197, Note_on_c, 0, 58, 93
1, 67327, Note_off_c, 0, 58, 93
1, 67359, Note_on_c, 0, 57, 99
1, 67491, Note_off_c, 0, 57, 99
1, 67527, Note_on_c, 0, 69, 95
1, 67740, Note_off_c, 0, 69, 95
1, 68526, Note_on_c, 0, 70, 107
1, 68707, Note_off_c, 0, 70, 107
1, 68722, Note_on_c, 0, 69, 96
1, 68783, Note_off_c, 0, 69, 96
1, 68798, Note_on_c, 0, 70, 104
1, 69306, Note_off_c, 0, 70, 104
1, 69315, Note_on_c, 0, 72, 94
1, 69470, Note_off_c, 0, 72, 94
1, 72656, Note_on_c, 0, 70, 113
1, 72864, Note_off_c, 0, 70, 113
1, 72872, Note_on_c, 0, 81, 111
1, 72958, Note_off_c, 0, 81, 111
1, 73170, Note_on_c, 0, 81, 98
1, 73280, Note_off_c, 0, 81, 98
1, 73556, Note_on_c, 0, 81, 115
1, 73881, Note_off_c, 0, 81, 115
1, 73894, Note_on_c, 0, 81, 116
1, 74095, Note_off_c, 0, 81, 116
1, 74120, Note_on_c, 0, 81, 115
1, 74434, Note_off_c, 0, 81, 115
1, 74448, Note_on_c, 0, 81, 117
1, 74668, Note_off_c, 0, 81, 117
1, 74697, Note_on_c, 0, 88, 110
1, 74890, Note_off_c, 0, 88, 110
1, 74932, Note_on_c, 0, 81, 113
1, 75193, Note_off_c, 0, 81, 113
1, 75199, Note_on_c, 0, 81, 106
1, 75392, Note_off_c, 0, 81, 106
1, 75396, Note_on_c, 0, 79, 103
1, 75436, Note_off_c, 0, 79, 103
1, 75441, Note_on_c, 0, 77, 109
1, 75851, Note_off_c, 0, 77, 109
1, 75854, Note_on_c, 0, 75, 92
1, 76172, Note_off_c, 0, 75, 92
1, 76913, Note_on_c, 0, 85, 98
1, 76946, Note_off_c, 0, 85, 98
1, 76953, Note_on_c, 0, 89, 117
1, 77073, Note_off_c, 0, 89, 117
1, 77087, Note_on_c, 0, 88, 113
1, 77617, Note_off_c, 0, 88, 113
1, 77623, Note_on_c, 0, 89, 110
1, 78002, Note_off_c, 0, 89, 110
1, 78006, Note_on_c, 0, 90, 109
1, 78139, Note_off_c, 0, 90, 109
1, 79658, Note_on_c, 0, 86, 102
1, 79697, Note_off_c, 0, 86, 102
1, 79707, Note_on_c, 0, 90, 117
1, 79802, Note_off_c, 0, 90, 117
1, 79808, Note_on_c, 0, 91, 116
1, 79889, Note_off_c, 0, 91, 116
1, 79895, Note_on_c, 0, 90, 119
1, 80040, Note_off_c, 0, 90, 119
1, 80621, Note_on_c, 0, 67, 107
1, 80740, Note_off_c, 0, 67, 107
1, 80768, Note_on_c, 0, 70, 107
1, 80886, Note_off_c, 0, 70, 107
1, 80890, Note_on_c, 0, 69, 103
1, 81038, Note_off_c, 0, 69, 103
1, 81058, Note_on_c, 0, 67, 88
1, 81128, Note_off_c, 0, 67, 88
1, 81135, Note_on_c, 0, 70, 107
1, 81294, Note_off_c, 0, 70, 107
1, 81308, Note_on_c, 0, 67, 88
1, 81393, Note_off_c, 0, 67, 88
1, 81402, Note_on_c, 0, 69, 99
1, 81575, Note_off_c, 0, 69, 99
1, 81579, Note_on_c, 0, 70, 102
1, 81693, Note_off_c, 0, 70, 102
1, 81697, Note_on_c, 0, 72, 101
1, 81871, Note_off_c, 0, 72, 101
1, 81874, Note_on_c, 0, 73, 100
1, 82308, Note_off_c, 0, 73, 100
1, 82356, Note_on_c, 0, 63, 97
1, 82587, Note_off_c, 0, 63, 97
1, 85895, Note_on_c, 0, 81, 116
1, 86061, Note_off_c, 0, 81, 116
1, 86068, Note_on_c, 0, 77, 89
1, 86143, Note_off_c, 0, 77, 89
1, 86150, Note_on_c, 0, 81, 116
1, 86291, Note_off_c, 0, 81, 116
1, 86317, Note_on_c, 0, 84, 118
1, 86431, Note_off_c, 0, 84, 118
1, 86440, Note_on_c, 0, 86, 117
1, 86584, Note_off_c, 0, 86, 117
1, 86604, Note_on_c, 0, 84, 117
1, 86729, Note_off_c, 0, 84, 117
1, 86744, Note_on_c, 0, 82, 112
1, 86857, Note_off_c, 0, 82, 112
1, 86871, Note_on_c, 0, 80, 113
1, 87000, Note_off_c, 0, 80, 113
1, 87011, Note_on_c, 0, 81, 110
1, 87143, Note_off_c, 0, 81, 110
1, 87154, Note_on_c, 0, 79, 107
1, 87242, Note_off_c, 0, 79, 107
1, 87278, Note_on_c, 0, 77, 108
1, 87381, Note_off_c, 0, 77, 108
1, 87423, Note_on_c, 0, 76, 105
1, 87514, Note_off_c, 0, 76, 105
1, 87586, Note_on_c, 0, 75, 99
1, 87652, Note_off_c, 0, 75, 99
1, 87740, Note_on_c, 0, 74, 98
1, 87810, Note_off_c, 0, 74, 98
1, 87898, Note_on_c, 0, 73, 98
1, 87975, Note_off_c, 0, 73, 98
1, 88169, Note_on_c, 0, 76, 109
1, 89192, Note_off_c, 0, 76, 109
1, 89205, Note_on_c, 0, 75, 110
1, 89357, Note_off_c, 0, 75, 110
1, 89371, Note_on_c, 0, 74, 100
1, 90158, Note_off_c, 0, 74, 100
1, 90169, Note_on_c, 0, 75, 98
1, 90237, Note_off_c, 0, 75, 98
1, 90245, Note_on_c, 0, 76, 93
1, 90342, Note_off_c, 0, 76, 93
1, 90348, Note_on_c, 0, 73, 97
1, 90474, Note_off_c, 0, 73, 97
1, 90547, Note_on_c, 0, 76, 103
1, 90809, Note_off_c, 0, 76, 103
1, 90830, Note_on_c, 0, 74, 94
1, 90932, Note_off_c, 0, 74, 94
1, 91013, Note_on_c, 0, 77, 108
1, 91173, Note_off_c, 0, 77, 108
1, 91185, Note_on_c, 0, 76, 101
1, 91222, Note_off_c, 0, 76, 101
1, 91225, Note_on_c, 0, 75, 105
1, 91332, Note_off_c, 0, 75, 105
1, 91345, Note_on_c, 0, 78, 109
1, 91468, Note_off_c, 0, 78, 109
1, 91471, Note_on_c, 0, 77, 103
1, 91510, Note_off_c, 0, 77, 103
1, 91524, Note_on_c, 0, 76, 98
1, 91624, Note_off_c, 0, 76, 98
1, 92404, Note_on_c, 0, 77, 109
1, 92492, Note_off_c, 0, 77, 109
1, 92495, Note_on_c, 0, 78, 102
1, 92572, Note_off_c, 0, 78, 102
1, 92575, Note_on_c, 0, 77, 101
1, 92652, Note_off_c, 0, 77, 101
1, 92655, Note_on_c, 0, 76, 92
1, 92708, Note_off_c, 0, 76, 92
1, 92716, Note_on_c, 0, 73, 98
1, 92792, Note_off_c, 0, 73, 98
1, 92797, Note_on_c, 0, 71, 96
1, 92861, Note_off_c, 0, 71, 96
1, 92879, Note_on_c, 0, 68, 99
1, 92965, Note_off_c, 0, 68, 99
1, 92969, Note_on_c, 0, 72, 101
1, 93030, Note_off_c, 0, 72, 101
1, 93036, Note_on_c, 0, 76, 101
1, 93104, Note_off_c, 0, 76, 101
1, 93111, Note_on_c, 0, 76, 107
1, 93166, Note_off_c, 0, 76, 107
1, 93166, Note_on_c, 0, 80, 113
1, 93228, Note_off_c, 0, 80, 113
1, 93229, Note_on_c, 0, 83, 107
1, 93295, Note_off_c, 0, 83, 107
1, 93303, Note_on_c, 0, 77, 93
1, 93384, Note_off_c, 0, 77, 93
1, 93462, Note_on_c, 0, 92, 94
1, 93504, Note_off_c, 0, 92, 94
1, 93506, Note_on_c, 0, 90, 109
1, 93888, Note_off_c, 0, 90, 109
1, 94486, Note_on_c, 0, 67, 105
1, 94556, Note_off_c, 0, 67, 105
1, 94568, Note_on_c, 0, 70, 98
1, 94747, Note_off_c, 0, 70, 98
1, 94763, Note_on_c, 0, 67, 88
1, 94825, Note_off_c, 0, 67, 88
1, 94842, Note_on_c, 0, 69, 109
1, 95002, Note_off_c, 0, 69, 109
1, 95021, Note_on_c, 0, 67, 104
1, 95136, Note_off_c, 0, 67, 104
1, 95149, Note_on_c, 0, 65, 103
1, 95276, Note_off_c, 0, 65, 103
1, 95303, Note_on_c, 0, 62, 88
1, 95416, Note_off_c, 0, 62, 88
1, 95428, Note_on_c, 0, 63, 98
1, 95547, Note_off_c, 0, 63, 98
1, 95552, Note_on_c, 0, 65, 100
1, 95692, Note_off_c, 0, 65, 100
1, 95699, Note_on_c, 0, 67, 87
1, 95798, Note_off_c, 0, 67, 87
1, 95810, Note_on_c, 0, 69, 104
1, 95940, Note_off_c, 0, 69, 104
1, 95964, Note_on_c, 0, 70, 100
1, 96060, Note_off_c, 0, 70, 100
1, 96104, Note_on_c, 0, 73, 98
1, 96208, Note_off_c, 0, 73, 98
1, 96221, Note_on_c, 0, 72, 93
1, 96320, Note_off_c, 0, 72, 93
1, 96372, Note_on_c, 0, 70, 105
1, 96498, Note_off_c, 0, 70, 105
1, 96520, Note_on_c, 0, 69, 106
1, 96649, Note_off_c, 0, 69, 106
1, 96661, Note_on_c, 0, 67, 104
1, 96793, Note_off_c, 0, 67, 104
1, 96812, Note_on_c, 0, 66, 98
1, 96913, Note_off_c, 0, 66, 98
1, 96964, Note_on_c, 0, 61, 95
1, 97086, Note_off_c, 0, 61, 95
1, 97089, Note_on_c, 0, 58, 98
1, 97202, Note_off_c, 0, 58, 98
1, 97208, Note_on_c, 0, 56, 99
1, 97335, Note_off_c, 0, 56, 99
1, 97339, Note_on_c, 0, 57, 98
1, 97732, Note_off_c, 0, 57, 98
1, 98478, Note_on_c, 0, 67, 105
1, 98677, Note_off_c, 0, 67, 105
1, 98707, Note_on_c, 0, 69, 89
1, 98751, Note_off_c, 0, 69, 89
1, 98751, Note_on_c, 0, 73, 103
1, 100564, Note_off_c, 0, 73, 103
1, 100603, Note_on_c, 0, 72, 100
1, 100749, Note_off_c, 0, 72, 100
1, 100767, Note_on_c, 0, 69, 84
1, 100839, Note_off_c, 0, 69, 84
1, 100854, Note_on_c, 0, 70, 105
1, 101022, Note_off_c, 0, 70, 105
1, 101064, Note_on_c, 0, 67, 86
1, 101133, Note_off_c, 0, 67, 86
1, 101144, Note_on_c, 0, 69, 96
1, 101265, Note_off_c, 0, 69, 96
1, 101293, Note_on_c, 0, 70, 102
1, 101398, Note_off_c, 0, 70, 102
1, 101403, Note_on_c, 0, 72, 97
1, 101520, Note_off_c, 0, 72, 97
1, 101552, Note_on_c, 0, 73, 102
1, 101669, Note_off_c, 0, 73, 102
1, 101686, Note_on_c, 0, 75, 87
1, 104709, Note_off_c, 0, 75, 87
1, 104709, End_track
0, 0, End_of_file
