0, 0, Header, 1, 1, 840
1, 0, Start_track
1, 0, Title_t, "Melody"
1, 0, Tempo, 500000
1, 0, Key_signature, -5, "major"
1, 0, Time_signature, 4, 2, 24, 8
1, 10786, Note_on_c, 0, 68, 115
1, 11026, Note_off_c, 0, 68, 115
1, 11077, Note_on_c, 0, 70, 116
1, 11268, Note_off_c, 0, 70, 116
1, 11319, Note_on_c, 0, 73, 122
1, 11607, Note_off_c, 0, 73, 122
1, 11665, Note_on_c, 0, 75, 125
1, 11918, Note_off_c, 0, 75, 125
1, 11948, Note_on_c, 0, 73, 118
1, 12126, Note_off_c, 0, 73, 118
1, 12177, Note_on_c, 0, 70, 107
1, 12434, Note_off_c, 0, 70, 107
1, 12526, Note_on_c, 0, 73, 117
1, 13156, Note_off_c, 0, 73, 117
1, 14098, Note_on_c, 0, 66, 117
1, 14348, Note_off_c, 0, 66, 117
1, 14419, Note_on_c, 0, 70, 124
1, 14669, Note_off_c, 0, 70, 124
1, 14682, Note_on_c, 0, 73, 125
1, 14956, Note_off_c, 0, 73, 125
1, 15065, Note_on_c, 0, 76, 125
1, 15335, Note_off_c, 0, 76, 125
1, 15410, Note_on_c, 0, 73, 125
1, 15584, Note_off_c, 0, 73, 125
1, 15710, Note_on_c, 0, 70, 119
1, 15902, Note_off_c, 0, 70, 119
1, 15974, Note_on_c, 0, 73, 121
1, 16567, Note_off_c, 0, 73, 121
1, 17099, Note_on_c, 0, 68, 113
1, 17428, Note_off_c, 0, 68, 113
1, 17474, Note_on_c, 0, 70, 120
1, 17766, Note_off_c, 0, 70, 120
1, 17824, Note_on_c, 0, 73, 123
1, 18104, Note_off_c, 0, 73, 123
1, 18267, Note_on_c, 0, 76, 122
1, 18474, Note_off_c, 0, 76, 122
1, 18513, Note_on_c, 0, 77, 120
1, 18690, Note_off_c, 0, 77, 120
1, 18860, Note_on_c, 0, 73, 121
1, 19150, Note_off_c, 0, 73, 121
1, 19274, Note_on_c, 0, 70, 116
1, 19503, Note_off_c, 0, 70, 116
1, 19671, Note_on_c, 0, 73, 116
1, 20241, Note_off_c, 0, 73, 116
1, 20367, Note_on_c, 0, 70, 109
1, 20913, Note_off_c, 0, 70, 109
1, 21034, Note_on_c, 0, 68, 118
1, 21370, Note_off_c, 0, 68, 118
1, 21448, Note_on_c, 0, 63, 98
1, 22481, Note_off_c, 0, 63, 98
1, 24567, Note_on_c, 0, 73, 118
1, 24882, Note_off_c, 0, 73, 118
1, 24974, Note_on_c, 0, 76, 122
1, 25285, Note_off_c, 0, 76, 122
1, 25425, Note_on_c, 0, 78, 123
1, 25754, Note_off_c, 0, 78, 123
1, 25880, Note_on_c, 0, 79, 122
1, 26191, Note_off_c, 0, 79, 122
1, 26317, Note_on_c, 0, 78, 123
1, 26659, Note_off_c, 0, 78, 123
1, 26758, Note_on_c, 0, 76, 121
1, 27035, Note_off_c, 0, 76, 121
1, 27093, Note_on_c, 0, 73, 123
1, 27309, Note_off_c, 0, 73, 123
1, 27446, Note_on_c, 0, 76, 119
1, 27782, Note_off_c, 0, 76, 119
1, 27884, Note_on_c, 0, 73, 117
1, 28607, Note_off_c, 0, 73, 117
1, 28685, Note_on_c, 0, 71, 120
1, 28883, Note_off_c, 0, 71, 120
1, 29063, Note_on_c, 0, 68, 115
1, 29232, Note_off_c, 0, 68, 115
1, 29262, Note_on_c, 0, 67, 114
1, 29418, Note_off_c, 0, 67, 114
1, 29460, Note_on_c, 0, 66, 113
1, 29628, Note_off_c, 0, 66, 113
1, 29660, Note_on_c, 0, 64, 108
1, 29779, Note_off_c, 0, 64, 108
1, 30022, Note_on_c, 0, 64, 114
1, 30199, Note_off_c, 0, 64, 114
1, 30270, Note_on_c, 0, 65, 104
1, 30562, Note_off_c, 0, 65, 104
1, 30622, Note_on_c, 0, 61, 107
1, 30724, Note_off_c, 0, 61, 107
1, 30760, Note_on_c, 0, 60, 95
1, 30901, Note_off_c, 0, 60, 95
1, 30974, Note_on_c, 0, 61, 103
1, 31783, Note_off_c, 0, 61, 103
1, 31921, Note_on_c, 0, 64, 117
1, 32116, Note_off_c, 0, 64, 117
1, 32154, Note_on_c, 0, 65, 111
1, 32409, Note_off_c, 0, 65, 111
1, 33236, Note_on_c, 0, 66, 100
1, 33393, Note_off_c, 0, 66, 100
1, 33465, Note_on_c, 0, 68, 117
1, 33629, Note_off_c, 0, 68, 117
1, 33694, Note_on_c, 0, 70, 121
1, 33916, Note_off_c, 0, 70, 121
1, 34056, Note_on_c, 0, 71, 118
1, 34861, Note_off_c, 0, 71, 118
1, 35015, Note_on_c, 0, 65, 106
1, 35426, Note_off_c, 0, 65, 106
1, 35528, Note_on_c, 0, 70, 114
1, 36275, Note_off_c, 0, 70, 114
1, 36343, Note_on_c, 0, 65, 117
1, 38067, Note_off_c, 0, 65, 117
1, 38118, Note_on_c, 0, 61, 105
1, 38844, Note_off_c, 0, 61, 105
1, 38881, Note_on_c, 0, 58, 89
1, 39055, Note_off_c, 0, 58, 89
1, 39089, Note_on_c, 0, 61, 103
1, 39651, Note_off_c, 0, 61, 103
1, 42023, Note_on_c, 0, 73, 120
1, 42291, Note_off_c, 0, 73, 120
1, 42466, Note_on_c, 0, 78, 125
1, 42790, Note_off_c, 0, 78, 125
1, 42907, Note_on_c, 0, 77, 119
1, 43194, Note_off_c, 0, 77, 119
1, 43311, Note_on_c, 0, 73, 124
1, 43652, Note_off_c, 0, 73, 124
1, 43932, Note_on_c, 0, 68, 121
1, 44224, Note_off_c, 0, 68, 121
1, 44275, Note_on_c, 0, 66, 113
1, 44479, Note_off_c, 0, 66, 113
1, 44544, Note_on_c, 0, 64, 115
1, 44700, Note_off_c, 0, 64, 115
1, 44987, Note_on_c, 0, 64, 113
1, 45196, Note_off_c, 0, 64, 113
1, 45247, Note_on_c, 0, 65, 105
1, 45456, Note_off_c, 0, 65, 105
1, 45546, Note_on_c, 0, 61, 106
1, 45749, Note_off_c, 0, 61, 106
1, 45785, Note_on_c, 0, 58, 90
1, 45869, Note_off_c, 0, 58, 90
1, 45906, Note_on_c, 0, 61, 99
1, 46866, Note_off_c, 0, 61, 99
1, 47134, Note_on_c, 0, 61, 94
1, 47285, Note_off_c, 0, 61, 94
1, 49781, Note_on_c, 0, 68, 105
1, 49873, Note_off_c, 0, 68, 105
1, 49968, Note_on_c, 0, 70, 117
1, 50085, Note_off_c, 0, 70, 117
1, 50197, Note_on_c, 0, 73, 120
1, 50355, Note_off_c, 0, 73, 120
1, 50540, Note_on_c, 0, 76, 122
1, 50839, Note_off_c, 0, 76, 122
1, 51029, Note_on_c, 0, 77, 127
1, 51319, Note_off_c, 0, 77, 127
1, 51467, Note_on_c, 0, 78, 126
1, 51774, Note_off_c, 0, 78, 126
1, 51888, Note_on_c, 0, 79, 122
1, 52183, Note_off_c, 0, 79, 122
1, 52351, Note_on_c, 0, 80, 118
1, 52663, Note_off_c, 0, 80, 118
1, 52792, Note_on_c, 0, 77, 102
1, 53567, Note_off_c, 0, 77, 102
1, 54005, Note_on_c, 0, 73, 123
1, 54356, Note_off_c, 0, 73, 123
1, 54424, Note_on_c, 0, 71, 118
1, 54767, Note_off_c, 0, 71, 118
1, 54842, Note_on_c, 0, 68, 116
1, 55293, Note_off_c, 0, 68, 116
1, 55351, Note_on_c, 0, 66, 107
1, 56570, Note_off_c, 0, 66, 107
1, 57052, Note_on_c, 0, 61, 95
1, 57247, Note_off_c, 0, 61, 95
1, 57351, Note_on_c, 0, 64, 108
1, 57563, Note_off_c, 0, 64, 108
1, 57599, Note_on_c, 0, 65, 102
1, 57772, Note_off_c, 0, 65, 102
1, 57988, Note_on_c, 0, 68, 115
1, 58319, Note_off_c, 0, 68, 115
1, 60215, Note_on_c, 0, 68, 109
1, 60368, Note_off_c, 0, 68, 109
1, 60432, Note_on_c, 0, 70, 118
1, 60605, Note_off_c, 0, 70, 118
1, 60630, Note_on_c, 0, 71, 114
1, 60797, Note_off_c, 0, 71, 114
1, 60827, Note_on_c, 0, 73, 114
1, 61011, Note_off_c, 0, 73, 114
1, 61029, Note_on_c, 0, 70, 112
1, 61137, Note_off_c, 0, 70, 112
1, 61168, Note_on_c, 0, 71, 100
1, 61341, Note_off_c, 0, 71, 100
1, 61432, Note_on_c, 0, 68, 98
1, 61583, Note_off_c, 0, 68, 98
1, 61824, Note_on_c, 0, 66, 107
1, 62126, Note_off_c, 0, 66, 107
1, 62154, Note_on_c, 0, 65, 98
1, 62452, Note_off_c, 0, 65, 98
1, 62532, Note_on_c, 0, 69, 93
1, 62611, Note_off_c, 0, 69, 93
1, 62632, Note_on_c, 0, 71, 114
1, 62791, Note_off_c, 0, 71, 114
1, 62845, Note_on_c, 0, 76, 123
1, 63449, Note_off_c, 0, 76, 123
1, 63479, Note_on_c, 0, 74, 119
1, 63650, Note_off_c, 0, 74, 119
1, 63674, Note_on_c, 0, 72, 119
1, 63828, Note_off_c, 0, 72, 119
1, 63849, Note_on_c, 0, 73, 112
1, 64036, Note_off_c, 0, 73, 112
1, 64065, Note_on_c, 0, 70, 122
1, 64295, Note_off_c, 0, 70, 122
1, 64319, Note_on_c, 0, 71, 120
1, 64467, Note_off_c, 0, 71, 120
1, 64498, Note_on_c, 0, 69, 112
1, 64604, Note_off_c, 0, 69, 112
1, 64661, Note_on_c, 0, 70, 116
1, 64857, Note_off_c, 0, 70, 116
1, 64898, Note_on_c, 0, 64, 113
1, 65294, Note_off_c, 0, 64, 113
1, 70207, Note_on_c, 0, 73, 103
1, 70440, Note_off_c, 0, 73, 103
1, 70640, Note_on_c, 0, 76, 111
1, 70902, Note_off_c, 0, 76, 111
1, 71064, Note_on_c, 0, 77, 118
1, 71350, Note_off_c, 0, 77, 118
1, 71535, Note_on_c, 0, 78, 121
1, 71812, Note_off_c, 0, 78, 121
1, 71964, Note_on_c, 0, 79, 120
1, 72264, Note_off_c, 0, 79, 120
1, 72406, Note_on_c, 0, 80, 119
1, 72709, Note_off_c, 0, 80, 119
1, 72803, Note_on_c, 0, 77, 122
1, 73111, Note_off_c, 0, 77, 122
1, 73227, Note_on_c, 0, 78, 119
1, 73525, Note_off_c, 0, 78, 119
1, 73646, Note_on_c, 0, 76, 119
1, 73928, Note_off_c, 0, 76, 119
1, 74128, Note_on_c, 0, 77, 115
1, 74455, Note_off_c, 0, 77, 115
1, 74530, Note_on_c, 0, 72, 108
1, 74806, Note_off_c, 0, 72, 108
1, 74938, Note_on_c, 0, 75, 112
1, 75046, Note_off_c, 0, 75, 112
1, 75084, Note_on_c, 0, 77, 113
1, 75203, Note_off_c, 0, 77, 113
1, 75235, Note_on_c, 0, 75, 106
1, 75380, Note_off_c, 0, 75, 106
1, 75400, Note_on_c, 0, 73, 112
1, 75530, Note_off_c, 0, 73, 112
1, 75838, Note_on_c, 0, 74, 116
1, 76138, Note_off_c, 0, 74, 116
1, 76204, Note_on_c, 0, 71, 115
1, 76418, Note_off_c, 0, 71, 115
1, 76618, Note_on_c, 0, 70, 105
1, 76804, Note_off_c, 0, 70, 105
1, 77074, Note_on_c, 0, 68, 106
1, 77262, Note_off_c, 0, 68, 106
1, 77424, Note_on_c, 0, 65, 108
1, 77694, Note_off_c, 0, 65, 108
1, 77742, Note_on_c, 0, 66, 102
1, 78683, Note_off_c, 0, 66, 102
1, 79070, Note_on_c, 0, 77, 119
1, 79552, Note_off_c, 0, 77, 119
1, 79631, Note_on_c, 0, 77, 103
1, 79701, Note_off_c, 0, 77, 103
1, 79721, Note_on_c, 0, 75, 112
1, 79827, Note_off_c, 0, 75, 112
1, 79850, Note_on_c, 0, 73, 113
1, 79965, Note_off_c, 0, 73, 113
1, 79979, Note_on_c, 0, 70, 107
1, 80314, Note_off_c, 0, 70, 107
1, 80491, Note_on_c, 0, 66, 106
1, 80798, Note_off_c, 0, 66, 106
1, 80916, Note_on_c, 0, 63, 91
1, 81128, Note_off_c, 0, 63, 91
1, 81308, Note_on_c, 0, 63, 94
1, 81476, Note_off_c, 0, 63, 94
1, 81655, Note_on_c, 0, 61, 90
1, 81750, Note_off_c, 0, 61, 90
1, 81807, Note_on_c, 0, 64, 82
1, 81887, Note_off_c, 0, 64, 82
1, 81933, Note_on_c, 0, 61, 87
1, 82034, Note_off_c, 0, 61, 87
1, 82107, Note_on_c, 0, 59, 89
1, 82210, Note_off_c, 0, 59, 89
1, 82263, Note_on_c, 0, 60, 94
1, 82779, Note_off_c, 0, 60, 94
1, 82850, Note_on_c, 0, 71, 109
1, 83056, Note_off_c, 0, 71, 109
1, 83198, Note_on_c, 0, 69, 109
1, 83369, Note_off_c, 0, 69, 109
1, 83387, Note_on_c, 0, 70, 104
1, 83486, Note_off_c, 0, 70, 104
1, 83495, Note_on_c, 0, 69, 103
1, 83592, Note_off_c, 0, 69, 103
1, 83615, Note_on_c, 0, 67, 103
1, 83890, Note_off_c, 0, 67, 103
1, 84048, Note_on_c, 0, 68, 113
1, 84379, Note_off_c, 0, 68, 113
1, 84485, Note_on_c, 0, 60, 87
1, 84589, Note_off_c, 0, 60, 87
1, 84642, Note_on_c, 0, 61, 93
1, 84944, Note_off_c, 0, 61, 93
1, 85249, Note_on_c, 0, 66, 111
1, 85508, Note_off_c, 0, 66, 111
1, 85650, Note_on_c, 0, 65, 101
1, 86041, Note_off_c, 0, 65, 101
1, 86186, Note_on_c, 0, 61, 87
1, 87056, Note_off_c, 0, 61, 87
1, 87173, Note_on_c, 0, 61, 98
1, 87322, Note_off_c, 0, 61, 98
1, 91917, Note_on_c, 0, 76, 114
1, 92220, Note_off_c, 0, 76, 114
1, 92349, Note_on_c, 0, 79, 110
1, 92691, Note_off_c, 0, 79, 110
1, 92768, Note_on_c, 0, 80, 117
1, 93045, Note_off_c, 0, 80, 117
1, 93180, Note_on_c, 0, 82, 122
1, 93531, Note_off_c, 0, 82, 122
1, 93995, Note_on_c, 0, 85, 125
1, 94300, Note_off_c, 0, 85, 125
1, 94485, Note_on_c, 0, 83, 119
1, 94769, Note_off_c, 0, 83, 119
1, 94837, Note_on_c, 0, 80, 113
1, 95102, Note_off_c, 0, 80, 113
1, 95167, Note_on_c, 0, 79, 113
1, 95442, Note_off_c, 0, 79, 113
1, 95446, Note_on_c, 0, 78, 111
1, 95728, Note_off_c, 0, 78, 111
1, 95751, Note_on_c, 0, 76, 110
1, 95948, Note_off_c, 0, 76, 110
1, 95971, Note_on_c, 0, 73, 107
1, 96167, Note_off_c, 0, 73, 107
1, 96238, Note_on_c, 0, 76, 112
1, 96447, Note_off_c, 0, 76, 112
1, 96512, Note_on_c, 0, 77, 105
1, 96694, Note_off_c, 0, 77, 105
1, 96893, Note_on_c, 0, 73, 116
1, 97112, Note_off_c, 0, 73, 116
1, 97268, Note_on_c, 0, 71, 113
1, 97416, Note_off_c, 0, 71, 113
1, 97459, Note_on_c, 0, 68, 109
1, 97587, Note_off_c, 0, 68, 109
1, 97650, Note_on_c, 0, 66, 101
1, 97763, Note_off_c, 0, 66, 101
1, 97798, Note_on_c, 0, 64, 103
1, 97902, Note_off_c, 0, 64, 103
1, 98170, Note_on_c, 0, 64, 110
1, 98362, Note_off_c, 0, 64, 110
1, 98374, Note_on_c, 0, 65, 100
1, 98561, Note_off_c, 0, 65, 100
1, 98603, Note_on_c, 0, 61, 101
1, 98777, Note_off_c, 0, 61, 101
1, 98807, Note_on_c, 0, 60, 112
1, 98976, Note_off_c, 0, 60, 112
1, 99008, Note_on_c, 0, 61, 101
1, 99573, Note_off_c, 0, 61, 101
1, 102735, Note_on_c, 0, 73, 118
1, 102953, Note_off_c, 0, 73, 118
1, 103100, Note_on_c, 0, 76, 123
1, 103432, Note_off_c, 0, 76, 123
1, 103595, Note_on_c, 0, 78, 124
1, 103879, Note_off_c, 0, 78, 124
1, 104025, Note_on_c, 0, 79, 121
1, 104423, Note_off_c, 0, 79, 121
1, 104510, Note_on_c, 0, 80, 122
1, 105559, Note_off_c, 0, 80, 122
1, 105792, Note_on_c, 0, 79, 121
1, 106100, Note_off_c, 0, 79, 121
1, 106194, Note_on_c, 0, 80, 103
1, 106272, Note_off_c, 0, 80, 103
1, 106296, Note_on_c, 0, 78, 118
1, 106428, Note_off_c, 0, 78, 118
1, 106446, Note_on_c, 0, 76, 109
1, 106811, Note_off_c, 0, 76, 109
1, 106831, Note_on_c, 0, 73, 115
1, 107155, Note_off_c, 0, 73, 115
1, 107941, Note_on_c, 0, 79, 121
1, 108139, Note_off_c, 0, 79, 121
1, 108175, Note_on_c, 0, 78, 120
1, 108332, Note_off_c, 0, 78, 120
1, 108374, Note_on_c, 0, 76, 115
1, 108672, Note_off_c, 0, 76, 115
1, 108742, Note_on_c, 0, 73, 113
1, 108922, Note_off_c, 0, 73, 113
1, 109112, Note_on_c, 0, 71, 115
1, 109437, Note_off_c, 0, 71, 115
1, 109510, Note_on_c, 0, 68, 112
1, 109696, Note_off_c, 0, 68, 112
1, 110176, Note_on_c, 0, 67, 113
1, 110362, Note_off_c, 0, 67, 113
1, 110433, Note_on_c, 0, 66, 113
1, 110503, Note_off_c, 0, 66, 113
1, 110550, Note_on_c, 0, 64, 116
1, 110732, Note_off_c, 0, 64, 116
1, 110790, Note_on_c, 0, 61, 95
1, 110980, Note_off_c, 0, 61, 95
1, 111153, Note_on_c, 0, 63, 110
1, 111287, Note_off_c, 0, 63, 110
1, 111352, Note_on_c, 0, 65, 114
1, 111659, Note_off_c, 0, 65, 114
1, 112862, Note_on_c, 0, 64, 104
1, 112966, Note_off_c, 0, 64, 104
1, 113085, Note_on_c, 0, 65, 95
1, 113189, Note_off_c, 0, 65, 95
1, 113226, Note_on_c, 0, 70, 91
1, 113282, Note_off_c, 0, 70, 91
1, 113299, Note_on_c, 0, 68, 113
1, 113537, Note_off_c, 0, 68, 113
1, 113562, Note_on_c, 0, 70, 113
1, 113713, Note_off_c, 0, 70, 113
1, 113898, Note_on_c, 0, 71, 119
1, 114072, Note_off_c, 0, 71, 119
1, 114102, Note_on_c, 0, 73, 117
1, 114261, Note_off_c, 0, 73, 117
1, 114271, Note_on_c, 0, 70, 114
1, 114789, Note_off_c, 0, 70, 114
1, 115992, Note_on_c, 0, 65, 118
1, 117620, Note_off_c, 0, 65, 118
1, 117998, Note_on_c, 0, 61, 106
1, 118539, Note_off_c, 0, 61, 106
1, 118846, Note_on_c, 0, 61, 101
1, 119514, Note_off_c, 0, 61, 101
1, 121461, Note_on_c, 0, 68, 96
1, 121579, Note_off_c, 0, 68, 96
1, 121714, Note_on_c, 0, 70, 73
1, 121816, Note_off_c, 0, 70, 73
1, 121884, Note_on_c, 0, 73, 102
1, 122007, Note_off_c, 0, 73, 102
1, 122197, Note_on_c, 0, 78, 116
1, 122449, Note_off_c, 0, 78, 116
1, 122700, Note_on_c, 0, 77, 117
1, 122953, Note_off_c, 0, 77, 117
1, 123054, Note_on_c, 0, 73, 111
1, 123482, Note_off_c, 0, 73, 111
1, 123848, Note_on_c, 0, 73, 107
1, 124648, Note_off_c, 0, 73, 107
1, 124697, Note_on_c, 0, 71, 110
1, 124935, Note_off_c, 0, 71, 110
1, 124964, Note_on_c, 0, 68, 105
1, 125156, Note_off_c, 0, 68, 105
1, 125226, Note_on_c, 0, 66, 96
1, 125339, Note_off_c, 0, 66, 96
1, 125469, Note_on_c, 0, 64, 102
1, 125657, Note_off_c, 0, 64, 102
1, 125919, Note_on_c, 0, 64, 104
1, 126045, Note_off_c, 0, 64, 104
1, 126094, Note_on_c, 0, 66, 108
1, 126244, Note_off_c, 0, 66, 108
1, 126333, Note_on_c, 0, 61, 88
1, 126482, Note_off_c, 0, 61, 88
1, 126547, Note_on_c, 0, 59, 83
1, 126723, Note_off_c, 0, 59, 83
1, 128138, Note_on_c, 0, 58, 89
1, 128323, Note_off_c, 0, 58, 89
1, 128349, Note_on_c, 0, 60, 100
1, 128565, Note_off_c, 0, 60, 100
1, 128733, Note_on_c, 0, 63, 103
1, 128915, Note_off_c, 0, 63, 103
1, 129012, Note_on_c, 0, 61, 92
1, 129146, Note_off_c, 0, 61, 92
1, 129243, Note_on_c, 0, 58, 78
1, 129389, Note_off_c, 0, 58, 78
1, 129564, Note_on_c, 0, 61, 95
1, 129978, Note_off_c, 0, 61, 95
1, 130080, Note_on_c, 0, 61, 95
1, 130199, Note_off_c, 0, 61, 95
1, 130199, End_track
0, 0, End_of_file
