0, 0, Header, 1, 1, 192
1, 0, Start_track
1, 0, Title_t, "Melody"
1, 0, Tempo, 387096
1, 0, Key_signature, -3, "major"
1, 0, Time_signature, 4, 2, 24, 8
1, 1892, Note_on_c, 0, 72, 117
1, 1954, Note_off_c, 0, 72, 117
1, 1980, Note_on_c, 0, 70, 119
1, 2073, Note_off_c, 0, 70, 119
1, 2091, Note_on_c, 0, 68, 116
1, 2161, Note_off_c, 0, 68, 116
1, 2258, Note_on_c, 0, 67, 120
1, 2329, Note_off_c, 0, 67, 120
1, 2412, Note_on_c, 0, 66, 118
1, 2482, Note_off_c, 0, 66, 118
1, 2490, Note_on_c, 0, 65, 115
1, 2552, Note_off_c, 0, 65, 115
1, 2561, Note_on_c, 0, 67, 116
1, 2671, Note_off_c, 0, 67, 116
1, 2687, Note_on_c, 0, 67, 118
1, 3049, Note_off_c, 0, 67, 118
1, 3093, Note_on_c, 0, 70, 124
1, 3202, Note_off_c, 0, 70, 124
1, 3227, Note_on_c, 0, 67, 114
1, 3274, Note_off_c, 0, 67, 114
1, 3282, Note_on_c, 0, 68, 118
1, 3384, Note_off_c, 0, 68, 118
1, 3390, Note_on_c, 0, 73, 125
1, 3476, Note_off_c, 0, 73, 125
1, 3482, Note_on_c, 0, 71, 118
1, 3586, Note_off_c, 0, 71, 118
1, 3594, Note_on_c, 0, 68, 117
1, 3756, Note_off_c, 0, 68, 117
1, 3764, Note_on_c, 0, 66, 115
1, 3822, Note_off_c, 0, 66, 115
1, 3849, Note_on_c, 0, 68, 117
1, 3949, Note_off_c, 0, 68, 117
1, 3963, Note_on_c, 0, 67, 112
1, 4209, Note_off_c, 0, 67, 112
1, 4221, Note_on_c, 0, 62, 106
1, 4363, Note_off_c, 0, 62, 106
1, 4369, Note_on_c, 0, 60, 96
1, 4391, Note_off_c, 0, 60, 96
1, 4435, Note_on_c, 0, 65, 117
1, 4553, Note_off_c, 0, 65, 117
1, 4563, Note_on_c, 0, 63, 105
1, 4999, Note_off_c, 0, 63, 105
1, 5008, Note_on_c, 0, 64, 106
1, 5048, Note_off_c, 0, 64, 106
1, 5058, Note_on_c, 0, 66, 106
1, 5093, Note_off_c, 0, 66, 106
1, 5104, Note_on_c, 0, 67, 113
1, 5141, Note_off_c, 0, 67, 113
1, 5147, Note_on_c, 0, 69, 118
1, 5174, Note_off_c, 0, 69, 118
1, 5186, Note_on_c, 0, 71, 119
1, 5238, Note_off_c, 0, 71, 119
1, 5252, Note_on_c, 0, 68, 106
1, 5273, Note_off_c, 0, 68, 106
1, 5279, Note_on_c, 0, 66, 110
1, 5318, Note_off_c, 0, 66, 110
1, 5341, Note_on_c, 0, 64, 103
1, 5381, Note_off_c, 0, 64, 103
1, 5383, Note_on_c, 0, 69, 118
1, 5427, Note_off_c, 0, 69, 118
1, 5435, Note_on_c, 0, 66, 107
1, 5474, Note_off_c, 0, 66, 107
1, 5482, Note_on_c, 0, 67, 111
1, 5533, Note_off_c, 0, 67, 111
1, 5536, Note_on_c, 0, 69, 116
1, 5580, Note_off_c, 0, 69, 116
1, 5595, Note_on_c, 0, 66, 112
1, 5636, Note_off_c, 0, 66, 112
1, 5787, Note_on_c, 0, 58, 102
1, 5815, Note_off_c, 0, 58, 102
1, 5854, Note_on_c, 0, 59, 104
1, 5894, Note_off_c, 0, 59, 104
1, 5900, Note_on_c, 0, 61, 94
1, 5926, Note_off_c, 0, 61, 94
1, 5928, Note_on_c, 0, 62, 99
1, 5955, Note_off_c, 0, 62, 99
1, 5961, Note_on_c, 0, 65, 111
1, 6002, Note_off_c, 0, 65, 111
1, 6003, Note_on_c, 0, 62, 88
1, 6063, Note_off_c, 0, 62, 88
1, 6091, Note_on_c, 0, 65, 112
1, 6113, Note_off_c, 0, 65, 112
1, 6128, Note_on_c, 0, 66, 88
1, 6170, Note_off_c, 0, 66, 88
1, 6189, Note_on_c, 0, 67, 104
1, 6239, Note_off_c, 0, 67, 104
1, 6239, Note_on_c, 0, 70, 110
1, 6279, Note_off_c, 0, 70, 110
1, 6279, Note_on_c, 0, 67, 106
1, 6345, Note_off_c, 0, 67, 106
1, 6362, Note_on_c, 0, 70, 114
1, 6402, Note_off_c, 0, 70, 114
1, 6403, Note_on_c, 0, 69, 102
1, 6439, Note_off_c, 0, 69, 102
1, 6440, Note_on_c, 0, 72, 94
1, 6457, Note_off_c, 0, 72, 94
1, 6458, Note_on_c, 0, 75, 116
1, 6507, Note_off_c, 0, 75, 116
1, 6507, Note_on_c, 0, 74, 118
1, 6550, Note_off_c, 0, 74, 118
1, 6550, Note_on_c, 0, 72, 118
1, 6602, Note_off_c, 0, 72, 118
1, 6602, Note_on_c, 0, 70, 118
1, 6639, Note_off_c, 0, 70, 118
1, 6640, Note_on_c, 0, 69, 112
1, 6674, Note_off_c, 0, 69, 112
1, 6680, Note_on_c, 0, 68, 106
1, 6712, Note_off_c, 0, 68, 106
1, 6713, Note_on_c, 0, 70, 112
1, 6750, Note_off_c, 0, 70, 112
1, 6752, Note_on_c, 0, 68, 104
1, 6770, Note_off_c, 0, 68, 104
1, 6771, Note_on_c, 0, 67, 103
1, 6792, Note_off_c, 0, 67, 103
1, 6794, Note_on_c, 0, 65, 105
1, 6840, Note_off_c, 0, 65, 105
1, 6845, Note_on_c, 0, 70, 119
1, 6895, Note_off_c, 0, 70, 119
1, 6895, Note_on_c, 0, 68, 114
1, 6943, Note_off_c, 0, 68, 114
1, 6947, Note_on_c, 0, 67, 110
1, 6985, Note_off_c, 0, 67, 110
1, 6985, Note_on_c, 0, 65, 115
1, 7041, Note_off_c, 0, 65, 115
1, 7048, Note_on_c, 0, 63, 106
1, 7084, Note_off_c, 0, 63, 106
1, 7089, Note_on_c, 0, 65, 107
1, 7141, Note_off_c, 0, 65, 107
1, 7150, Note_on_c, 0, 67, 100
1, 7220, Note_off_c, 0, 67, 100
1, 7230, Note_on_c, 0, 74, 120
1, 7299, Note_off_c, 0, 74, 120
1, 7313, Note_on_c, 0, 71, 119
1, 7333, Note_off_c, 0, 71, 119
1, 7334, Note_on_c, 0, 72, 110
1, 7361, Note_off_c, 0, 72, 110
1, 7361, Note_on_c, 0, 69, 111
1, 7380, Note_off_c, 0, 69, 111
1, 7380, Note_on_c, 0, 71, 118
1, 7431, Note_off_c, 0, 71, 118
1, 7433, Note_on_c, 0, 72, 115
1, 7470, Note_off_c, 0, 72, 115
1, 7470, Note_on_c, 0, 71, 107
1, 7503, Note_off_c, 0, 71, 107
1, 7503, Note_on_c, 0, 67, 111
1, 7561, Note_off_c, 0, 67, 111
1, 7561, Note_on_c, 0, 65, 116
1, 7609, Note_off_c, 0, 65, 116
1, 7614, Note_on_c, 0, 63, 105
1, 7654, Note_off_c, 0, 63, 105
1, 7655, Note_on_c, 0, 62, 107
1, 7710, Note_off_c, 0, 62, 107
1, 7711, Note_on_c, 0, 61, 100
1, 7771, Note_off_c, 0, 61, 100
1, 8320, Note_on_c, 0, 69, 122
1, 8358, Note_off_c, 0, 69, 122
1, 8360, Note_on_c, 0, 70, 121
1, 8702, Note_off_c, 0, 70, 121
1, 9346, Note_on_c, 0, 72, 125
1, 9383, Note_off_c, 0, 72, 125
1, 9384, Note_on_c, 0, 73, 106
1, 9399, Note_off_c, 0, 73, 106
1, 9401, Note_on_c, 0, 72, 120
1, 9441, Note_off_c, 0, 72, 120
1, 9446, Note_on_c, 0, 69, 119
1, 9498, Note_off_c, 0, 69, 119
1, 9500, Note_on_c, 0, 67, 116
1, 9540, Note_off_c, 0, 67, 116
1, 9551, Note_on_c, 0, 65, 114
1, 9597, Note_off_c, 0, 65, 114
1, 9610, Note_on_c, 0, 68, 97
1, 9635, Note_off_c, 0, 68, 97
1, 9636, Note_on_c, 0, 69, 107
1, 9672, Note_off_c, 0, 69, 107
1, 9672, Note_on_c, 0, 72, 117
1, 9729, Note_off_c, 0, 72, 117
1, 9732, Note_on_c, 0, 74, 106
1, 9755, Note_off_c, 0, 74, 106
1, 9757, Note_on_c, 0, 77, 123
1, 9833, Note_off_c, 0, 77, 123
1, 9940, Note_on_c, 0, 72, 120
1, 10121, Note_off_c, 0, 72, 120
1, 10124, Note_on_c, 0, 71, 120
1, 10171, Note_off_c, 0, 71, 120
1, 10174, Note_on_c, 0, 72, 115
1, 10194, Note_off_c, 0, 72, 115
1, 10196, Note_on_c, 0, 71, 123
1, 10233, Note_off_c, 0, 71, 123
1, 10237, Note_on_c, 0, 68, 121
1, 10297, Note_off_c, 0, 68, 121
1, 10310, Note_on_c, 0, 66, 115
1, 10444, Note_off_c, 0, 66, 115
1, 10445, Note_on_c, 0, 64, 109
1, 10487, Note_off_c, 0, 64, 109
1, 10492, Note_on_c, 0, 66, 114
1, 10630, Note_off_c, 0, 66, 114
1, 10633, Note_on_c, 0, 68, 118
1, 10691, Note_off_c, 0, 68, 118
1, 10792, Note_on_c, 0, 70, 123
1, 11047, Note_off_c, 0, 70, 123
1, 11065, Note_on_c, 0, 65, 117
1, 11190, Note_off_c, 0, 65, 117
1, 11208, Note_on_c, 0, 70, 118
1, 11323, Note_off_c, 0, 70, 118
1, 11918, Note_on_c, 0, 79, 119
1, 12007, Note_off_c, 0, 79, 119
1, 12010, Note_on_c, 0, 80, 117
1, 12111, Note_off_c, 0, 80, 117
1, 12117, Note_on_c, 0, 79, 112
1, 12205, Note_off_c, 0, 79, 112
1, 12213, Note_on_c, 0, 77, 120
1, 12293, Note_off_c, 0, 77, 120
1, 12313, Note_on_c, 0, 76, 123
1, 12385, Note_off_c, 0, 76, 123
1, 12406, Note_on_c, 0, 75, 119
1, 12481, Note_off_c, 0, 75, 119
1, 12503, Note_on_c, 0, 73, 115
1, 12594, Note_off_c, 0, 73, 115
1, 12601, Note_on_c, 0, 74, 120
1, 12678, Note_off_c, 0, 74, 120
1, 12718, Note_on_c, 0, 72, 118
1, 12800, Note_off_c, 0, 72, 118
1, 12878, Note_on_c, 0, 69, 114
1, 12974, Note_off_c, 0, 69, 114
1, 12979, Note_on_c, 0, 70, 116
1, 13069, Note_off_c, 0, 70, 116
1, 13081, Note_on_c, 0, 71, 118
1, 13158, Note_off_c, 0, 71, 118
1, 13163, Note_on_c, 0, 68, 115
1, 13268, Note_off_c, 0, 68, 115
1, 13273, Note_on_c, 0, 67, 119
1, 13351, Note_off_c, 0, 67, 119
1, 13363, Note_on_c, 0, 65, 118
1, 13440, Note_off_c, 0, 65, 118
1, 13472, Note_on_c, 0, 67, 120
1, 13547, Note_off_c, 0, 67, 120
1, 13549, Note_on_c, 0, 68, 118
1, 13650, Note_off_c, 0, 68, 118
1, 13655, Note_on_c, 0, 67, 120
1, 13723, Note_off_c, 0, 67, 120
1, 13741, Note_on_c, 0, 65, 121
1, 13832, Note_off_c, 0, 65, 121
1, 13834, Note_on_c, 0, 62, 107
1, 13899, Note_off_c, 0, 62, 107
1, 13908, Note_on_c, 0, 63, 117
1, 14285, Note_off_c, 0, 63, 117
1, 14297, Note_on_c, 0, 62, 118
1, 14511, Note_off_c, 0, 62, 118
1, 14523, Note_on_c, 0, 59, 109
1, 14562, Note_off_c, 0, 59, 109
1, 14569, Note_on_c, 0, 60, 115
1, 14605, Note_off_c, 0, 60, 115
1, 14610, Note_on_c, 0, 60, 106
1, 14974, Note_off_c, 0, 60, 106
1, 15000, Note_on_c, 0, 60, 105
1, 15024, Note_off_c, 0, 60, 105
1, 15621, Note_on_c, 0, 66, 122
1, 15650, Note_off_c, 0, 66, 122
1, 15658, Note_on_c, 0, 67, 116
1, 15685, Note_off_c, 0, 67, 116
1, 15688, Note_on_c, 0, 70, 123
1, 15740, Note_off_c, 0, 70, 123
1, 15744, Note_on_c, 0, 67, 117
1, 15781, Note_off_c, 0, 67, 117
1, 15793, Note_on_c, 0, 68, 115
1, 15839, Note_off_c, 0, 68, 115
1, 15848, Note_on_c, 0, 70, 117
1, 15885, Note_off_c, 0, 70, 117
1, 15887, Note_on_c, 0, 69, 104
1, 15924, Note_off_c, 0, 69, 104
1, 15943, Note_on_c, 0, 75, 123
1, 16014, Note_off_c, 0, 75, 123
1, 16129, Note_on_c, 0, 73, 124
1, 16186, Note_off_c, 0, 73, 124
1, 16190, Note_on_c, 0, 74, 124
1, 16236, Note_off_c, 0, 74, 124
1, 16306, Note_on_c, 0, 72, 125
1, 16355, Note_off_c, 0, 72, 125
1, 16364, Note_on_c, 0, 70, 121
1, 16418, Note_off_c, 0, 70, 121
1, 16494, Note_on_c, 0, 69, 124
1, 16551, Note_off_c, 0, 69, 124
1, 16554, Note_on_c, 0, 68, 114
1, 16603, Note_off_c, 0, 68, 114
1, 16684, Note_on_c, 0, 70, 122
1, 16742, Note_off_c, 0, 70, 122
1, 16748, Note_on_c, 0, 67, 119
1, 16878, Note_off_c, 0, 67, 119
1, 16881, Note_on_c, 0, 65, 104
1, 16917, Note_off_c, 0, 65, 104
1, 16928, Note_on_c, 0, 70, 127
1, 17063, Note_off_c, 0, 70, 127
1, 17068, Note_on_c, 0, 63, 116
1, 17705, Note_off_c, 0, 63, 116
1, 17760, Note_on_c, 0, 68, 117
1, 17796, Note_off_c, 0, 68, 117
1, 17804, Note_on_c, 0, 70, 121
1, 17848, Note_off_c, 0, 70, 121
1, 17856, Note_on_c, 0, 72, 102
1, 17871, Note_off_c, 0, 72, 102
1, 17874, Note_on_c, 0, 73, 116
1, 17923, Note_off_c, 0, 73, 116
1, 17932, Note_on_c, 0, 75, 121
1, 18009, Note_off_c, 0, 75, 121
1, 18068, Note_on_c, 0, 71, 123
1, 18148, Note_off_c, 0, 71, 123
1, 18153, Note_on_c, 0, 70, 121
1, 18267, Note_off_c, 0, 70, 121
1, 18285, Note_on_c, 0, 68, 118
1, 18333, Note_off_c, 0, 68, 118
1, 18883, Note_on_c, 0, 70, 103
1, 18942, Note_off_c, 0, 70, 103
1, 19083, Note_on_c, 0, 70, 120
1, 19181, Note_off_c, 0, 70, 120
1, 19273, Note_on_c, 0, 70, 120
1, 19367, Note_off_c, 0, 70, 120
1, 19455, Note_on_c, 0, 70, 112
1, 19579, Note_off_c, 0, 70, 112
1, 19640, Note_on_c, 0, 70, 117
1, 19749, Note_off_c, 0, 70, 117
1, 19753, Note_on_c, 0, 70, 117
1, 19814, Note_off_c, 0, 70, 117
1, 19846, Note_on_c, 0, 73, 117
1, 19950, Note_off_c, 0, 73, 117
1, 19985, Note_on_c, 0, 70, 119
1, 20074, Note_off_c, 0, 70, 119
1, 20162, Note_on_c, 0, 70, 115
1, 20584, Note_off_c, 0, 70, 115
1, 20624, Note_on_c, 0, 70, 103
1, 20676, Note_off_c, 0, 70, 103
1, 20729, Note_on_c, 0, 67, 118
1, 20763, Note_off_c, 0, 67, 118
1, 20775, Note_on_c, 0, 65, 114
1, 20827, Note_off_c, 0, 65, 114
1, 20835, Note_on_c, 0, 67, 110
1, 20944, Note_off_c, 0, 67, 110
1, 20963, Note_on_c, 0, 67, 102
1, 21300, Note_off_c, 0, 67, 102
1, 21905, Note_on_c, 0, 65, 113
1, 22097, Note_off_c, 0, 65, 113
1, 22099, Note_on_c, 0, 67, 116
1, 22190, Note_off_c, 0, 67, 116
1, 22192, Note_on_c, 0, 68, 108
1, 22270, Note_off_c, 0, 68, 108
1, 22301, Note_on_c, 0, 72, 116
1, 22393, Note_off_c, 0, 72, 116
1, 22396, Note_on_c, 0, 70, 111
1, 22545, Note_off_c, 0, 70, 111
1, 22549, Note_on_c, 0, 67, 105
1, 22665, Note_off_c, 0, 67, 105
1, 22668, Note_on_c, 0, 65, 99
1, 23036, Note_off_c, 0, 65, 99
1, 23042, Note_on_c, 0, 63, 105
1, 23141, Note_off_c, 0, 63, 105
1, 23151, Note_on_c, 0, 62, 92
1, 23305, Note_off_c, 0, 62, 92
1, 23311, Note_on_c, 0, 60, 95
1, 23403, Note_off_c, 0, 60, 95
1, 23429, Note_on_c, 0, 58, 99
1, 23709, Note_off_c, 0, 58, 99
1, 23720, Note_on_c, 0, 56, 93
1, 23796, Note_off_c, 0, 56, 93
1, 23796, End_track
0, 0, End_of_file
