0, 0, Header, 1, 1, 192
1, 0, Start_track
1, 0, Title_t, "Melody"
1, 0, Tempo, 402684
1, 0, Key_signature, -1, "major"
1, 0, Time_signature, 4, 2, 24, 8
1, 1591, Note_on_c, 0, 69, 114
1, 1714, Note_off_c, 0, 69, 114
1, 1714, Note_on_c, 0, 70, 105
1, 1738, Note_off_c, 0, 70, 105
1, 1742, Note_on_c, 0, 72, 106
1, 1824, Note_off_c, 0, 72, 106
1, 1841, Note_on_c, 0, 72, 107
1, 1917, Note_off_c, 0, 72, 107
1, 1994, Note_on_c, 0, 72, 108
1, 2140, Note_off_c, 0, 72, 108
1, 2149, Note_on_c, 0, 72, 109
1, 2234, Note_off_c, 0, 72, 109
1, 3127, Note_on_c, 0, 65, 108
1, 3233, Note_off_c, 0, 65, 108
1, 3240, Note_on_c, 0, 72, 111
1, 3347, Note_off_c, 0, 72, 111
1, 3362, Note_on_c, 0, 72, 90
1, 3428, Note_off_c, 0, 72, 90
1, 3521, Note_on_c, 0, 72, 110
1, 3615, Note_off_c, 0, 72, 110
1, 3625, Note_on_c, 0, 72, 108
1, 3897, Note_off_c, 0, 72, 108
1, 3904, Note_on_c, 0, 72, 101
1, 3960, Note_off_c, 0, 72, 101
1, 4687, Note_on_c, 0, 65, 92
1, 4767, Note_off_c, 0, 65, 92
1, 4788, Note_on_c, 0, 72, 107
1, 4920, Note_off_c, 0, 72, 107
1, 4941, Note_on_c, 0, 72, 100
1, 5016, Note_off_c, 0, 72, 100
1, 5071, Note_on_c, 0, 72, 108
1, 5156, Note_off_c, 0, 72, 108
1, 5169, Note_on_c, 0, 71, 103
1, 5226, Note_off_c, 0, 71, 103
1, 5233, Note_on_c, 0, 72, 109
1, 5259, Note_off_c, 0, 72, 109
1, 5259, Note_on_c, 0, 73, 112
1, 5345, Note_off_c, 0, 73, 112
1, 5348, Note_on_c, 0, 72, 105
1, 5459, Note_off_c, 0, 72, 105
1, 5466, Note_on_c, 0, 69, 103
1, 5775, Note_off_c, 0, 69, 103
1, 6050, Note_on_c, 0, 69, 117
1, 6120, Note_off_c, 0, 69, 117
1, 6128, Note_on_c, 0, 68, 103
1, 6207, Note_off_c, 0, 68, 103
1, 6212, Note_on_c, 0, 69, 117
1, 6299, Note_off_c, 0, 69, 117
1, 6305, Note_on_c, 0, 70, 104
1, 6394, Note_off_c, 0, 70, 104
1, 6403, Note_on_c, 0, 68, 105
1, 6495, Note_off_c, 0, 68, 105
1, 6495, Note_on_c, 0, 69, 112
1, 6570, Note_off_c, 0, 69, 112
1, 6575, Note_on_c, 0, 67, 103
1, 6663, Note_off_c, 0, 67, 103
1, 6665, Note_on_c, 0, 68, 104
1, 6739, Note_off_c, 0, 68, 104
1, 6744, Note_on_c, 0, 69, 115
1, 6811, Note_off_c, 0, 69, 115
1, 6824, Note_on_c, 0, 65, 106
1, 6897, Note_off_c, 0, 65, 106
1, 6905, Note_on_c, 0, 62, 99
1, 6971, Note_off_c, 0, 62, 99
1, 6990, Note_on_c, 0, 57, 96
1, 7038, Note_off_c, 0, 57, 96
1, 7050, Note_on_c, 0, 62, 98
1, 7509, Note_off_c, 0, 62, 98
1, 7763, Note_on_c, 0, 69, 114
1, 7838, Note_off_c, 0, 69, 114
1, 7874, Note_on_c, 0, 72, 112
1, 7910, Note_off_c, 0, 72, 112
1, 7911, Note_on_c, 0, 73, 111
1, 7923, Note_off_c, 0, 73, 111
1, 7931, Note_on_c, 0, 74, 104
1, 8098, Note_off_c, 0, 74, 104
1, 8115, Note_on_c, 0, 69, 116
1, 8208, Note_off_c, 0, 69, 116
1, 8236, Note_on_c, 0, 67, 99
1, 8878, Note_off_c, 0, 67, 99
1, 8922, Note_on_c, 0, 65, 98
1, 8996, Note_off_c, 0, 65, 98
1, 9069, Note_on_c, 0, 71, 106
1, 9088, Note_on_c, 0, 72, 107
1, 9088, Note_off_c, 0, 71, 106
1, 9262, Note_off_c, 0, 72, 107
1, 9262, Note_on_c, 0, 70, 100
1, 9313, Note_off_c, 0, 70, 100
1, 9332, Note_on_c, 0, 67, 103
1, 9372, Note_off_c, 0, 67, 103
1, 9398, Note_on_c, 0, 65, 101
1, 9669, Note_off_c, 0, 65, 101
1, 9693, Note_on_c, 0, 63, 97
1, 9752, Note_off_c, 0, 63, 97
1, 9793, Note_on_c, 0, 65, 102
1, 9827, Note_off_c, 0, 65, 102
1, 9835, Note_on_c, 0, 67, 104
1, 9972, Note_off_c, 0, 67, 104
1, 9972, Note_on_c, 0, 60, 102
1, 10074, Note_off_c, 0, 60, 102
1, 10089, Note_on_c, 0, 58, 92
1, 10217, Note_off_c, 0, 58, 92
1, 10550, Note_on_c, 0, 66, 102
1, 10581, Note_off_c, 0, 66, 102
1, 10581, Note_on_c, 0, 67, 105
1, 10604, Note_off_c, 0, 67, 105
1, 10613, Note_on_c, 0, 68, 108
1, 10639, Note_off_c, 0, 68, 108
1, 10651, Note_on_c, 0, 69, 112
1, 10716, Note_off_c, 0, 69, 112
1, 10743, Note_on_c, 0, 74, 93
1, 10903, Note_off_c, 0, 74, 93
1, 10935, Note_on_c, 0, 68, 105
1, 10963, Note_off_c, 0, 68, 105
1, 10964, Note_on_c, 0, 67, 101
1, 11042, Note_off_c, 0, 67, 101
1, 11050, Note_on_c, 0, 65, 89
1, 11102, Note_off_c, 0, 65, 89
1, 11114, Note_on_c, 0, 67, 103
1, 11216, Note_off_c, 0, 67, 103
1, 11229, Note_on_c, 0, 65, 84
1, 11283, Note_off_c, 0, 65, 84
1, 11327, Note_on_c, 0, 62, 99
1, 11419, Note_off_c, 0, 62, 99
1, 11439, Note_on_c, 0, 62, 100
1, 11494, Note_off_c, 0, 62, 100
1, 11619, Note_on_c, 0, 62, 100
1, 11673, Note_off_c, 0, 62, 100
1, 11810, Note_on_c, 0, 62, 103
1, 11863, Note_off_c, 0, 62, 103
1, 12004, Note_on_c, 0, 62, 94
1, 12052, Note_off_c, 0, 62, 94
1, 12195, Note_on_c, 0, 62, 99
1, 12242, Note_off_c, 0, 62, 99
1, 12391, Note_on_c, 0, 62, 101
1, 12438, Note_off_c, 0, 62, 101
1, 12482, Note_on_c, 0, 62, 101
1, 12675, Note_off_c, 0, 62, 101
1, 12682, Note_on_c, 0, 62, 101
1, 12774, Note_off_c, 0, 62, 101
1, 12791, Note_on_c, 0, 59, 93
1, 12859, Note_off_c, 0, 59, 93
1, 12888, Note_on_c, 0, 62, 102
1, 12973, Note_off_c, 0, 62, 102
1, 12990, Note_on_c, 0, 64, 102
1, 13073, Note_off_c, 0, 64, 102
1, 13081, Note_on_c, 0, 65, 100
1, 13151, Note_off_c, 0, 65, 100
1, 13866, Note_on_c, 0, 59, 87
1, 13928, Note_off_c, 0, 59, 87
1, 13950, Note_on_c, 0, 62, 102
1, 14008, Note_off_c, 0, 62, 102
1, 14125, Note_on_c, 0, 62, 95
1, 14396, Note_off_c, 0, 62, 95
1, 14429, Note_on_c, 0, 59, 100
1, 14506, Note_off_c, 0, 59, 100
1, 14529, Note_on_c, 0, 62, 106
1, 14614, Note_off_c, 0, 62, 106
1, 14809, Note_on_c, 0, 65, 109
1, 14945, Note_off_c, 0, 65, 109
1, 15185, Note_on_c, 0, 59, 102
1, 15268, Note_off_c, 0, 59, 102
1, 15297, Note_on_c, 0, 62, 105
1, 15366, Note_off_c, 0, 62, 105
1, 15372, Note_on_c, 0, 62, 103
1, 15497, Note_off_c, 0, 62, 103
1, 15502, Note_on_c, 0, 59, 94
1, 15540, Note_off_c, 0, 59, 94
1, 15671, Note_on_c, 0, 64, 110
1, 15766, Note_off_c, 0, 64, 110
1, 15766, Note_on_c, 0, 65, 94
1, 15826, Note_off_c, 0, 65, 94
1, 15960, Note_on_c, 0, 59, 98
1, 16034, Note_off_c, 0, 59, 98
1, 16062, Note_on_c, 0, 62, 103
1, 16124, Note_off_c, 0, 62, 103
1, 16141, Note_on_c, 0, 62, 103
1, 16238, Note_off_c, 0, 62, 103
1, 16252, Note_on_c, 0, 59, 87
1, 16308, Note_off_c, 0, 59, 87
1, 16329, Note_on_c, 0, 62, 104
1, 16431, Note_off_c, 0, 62, 104
1, 16440, Note_on_c, 0, 62, 105
1, 16503, Note_off_c, 0, 62, 105
1, 16517, Note_on_c, 0, 62, 103
1, 16620, Note_off_c, 0, 62, 103
1, 16642, Note_on_c, 0, 59, 89
1, 16694, Note_off_c, 0, 59, 89
1, 16709, Note_on_c, 0, 62, 103
1, 16794, Note_off_c, 0, 62, 103
1, 16832, Note_on_c, 0, 62, 103
1, 16885, Note_off_c, 0, 62, 103
1, 16896, Note_on_c, 0, 62, 99
1, 17023, Note_off_c, 0, 62, 99
1, 17027, Note_on_c, 0, 59, 96
1, 17100, Note_off_c, 0, 59, 96
1, 17163, Note_on_c, 0, 65, 103
1, 17198, Note_off_c, 0, 65, 103
1, 17198, Note_on_c, 0, 67, 102
1, 17214, Note_on_c, 0, 69, 114
1, 17214, Note_off_c, 0, 67, 102
1, 17300, Note_off_c, 0, 69, 114
1, 17300, Note_on_c, 0, 67, 107
1, 17383, Note_off_c, 0, 67, 107
1, 17436, Note_on_c, 0, 65, 107
1, 17506, Note_off_c, 0, 65, 107
1, 17545, Note_on_c, 0, 65, 105
1, 17646, Note_off_c, 0, 65, 105
1, 17682, Note_on_c, 0, 57, 101
1, 17761, Note_off_c, 0, 57, 101
1, 17782, Note_on_c, 0, 62, 90
1, 18047, Note_off_c, 0, 62, 90
1, 18055, Note_on_c, 0, 59, 99
1, 18160, Note_off_c, 0, 59, 99
1, 18160, Note_on_c, 0, 57, 87
1, 18233, Note_off_c, 0, 57, 87
1, 18635, Note_on_c, 0, 67, 85
1, 18676, Note_off_c, 0, 67, 85
1, 18683, Note_on_c, 0, 69, 114
1, 18725, Note_off_c, 0, 69, 114
1, 18734, Note_on_c, 0, 74, 104
1, 18805, Note_off_c, 0, 74, 104
1, 18838, Note_on_c, 0, 74, 110
1, 18930, Note_off_c, 0, 74, 110
1, 18930, Note_on_c, 0, 75, 111
1, 18975, Note_off_c, 0, 75, 111
1, 18979, Note_on_c, 0, 72, 105
1, 19073, Note_off_c, 0, 72, 105
1, 19102, Note_on_c, 0, 69, 117
1, 19185, Note_off_c, 0, 69, 117
1, 19209, Note_on_c, 0, 67, 107
1, 19304, Note_off_c, 0, 67, 107
1, 19345, Note_on_c, 0, 65, 102
1, 19433, Note_off_c, 0, 65, 102
1, 19433, Note_on_c, 0, 64, 84
1, 19451, Note_off_c, 0, 64, 84
1, 20553, Note_on_c, 0, 72, 108
1, 20634, Note_off_c, 0, 72, 108
1, 20651, Note_on_c, 0, 72, 109
1, 20725, Note_off_c, 0, 72, 109
1, 20738, Note_on_c, 0, 72, 108
1, 20827, Note_off_c, 0, 72, 108
1, 20849, Note_on_c, 0, 77, 111
1, 20917, Note_off_c, 0, 77, 111
1, 21343, Note_on_c, 0, 70, 103
1, 21421, Note_off_c, 0, 70, 103
1, 21428, Note_on_c, 0, 70, 103
1, 21497, Note_off_c, 0, 70, 103
1, 21502, Note_on_c, 0, 70, 101
1, 21595, Note_off_c, 0, 70, 101
1, 21728, Note_on_c, 0, 77, 107
1, 21819, Note_off_c, 0, 77, 107
1, 22103, Note_on_c, 0, 69, 116
1, 22203, Note_off_c, 0, 69, 116
1, 22205, Note_on_c, 0, 68, 108
1, 22285, Note_off_c, 0, 68, 108
1, 22285, Note_on_c, 0, 69, 117
1, 22392, Note_off_c, 0, 69, 117
1, 22392, Note_on_c, 0, 68, 108
1, 22475, Note_off_c, 0, 68, 108
1, 22479, Note_on_c, 0, 69, 119
1, 22574, Note_off_c, 0, 69, 119
1, 22606, Note_on_c, 0, 76, 109
1, 22633, Note_off_c, 0, 76, 109
1, 22636, Note_on_c, 0, 77, 108
1, 22709, Note_off_c, 0, 77, 108
1, 22989, Note_on_c, 0, 76, 112
1, 23042, Note_off_c, 0, 76, 112
1, 23042, Note_on_c, 0, 77, 113
1, 23075, Note_off_c, 0, 77, 113
1, 23076, Note_on_c, 0, 76, 111
1, 23141, Note_off_c, 0, 76, 111
1, 23152, Note_on_c, 0, 74, 110
1, 23241, Note_off_c, 0, 74, 110
1, 23250, Note_on_c, 0, 73, 109
1, 23343, Note_off_c, 0, 73, 109
1, 23355, Note_on_c, 0, 70, 103
1, 23432, Note_off_c, 0, 70, 103
1, 23436, Note_on_c, 0, 69, 116
1, 23530, Note_off_c, 0, 69, 116
1, 23538, Note_on_c, 0, 67, 108
1, 23626, Note_off_c, 0, 67, 108
1, 23641, Note_on_c, 0, 65, 112
1, 23715, Note_off_c, 0, 65, 112
1, 23745, Note_on_c, 0, 74, 108
1, 23814, Note_off_c, 0, 74, 108
1, 24031, Note_on_c, 0, 68, 115
1, 24064, Note_off_c, 0, 68, 115
1, 24069, Note_on_c, 0, 67, 106
1, 24081, Note_off_c, 0, 67, 106
1, 24083, Note_on_c, 0, 66, 104
1, 24104, Note_off_c, 0, 66, 104
1, 24317, Note_on_c, 0, 62, 88
1, 24357, Note_off_c, 0, 62, 88
1, 24411, Note_on_c, 0, 67, 110
1, 24513, Note_off_c, 0, 67, 110
1, 24601, Note_on_c, 0, 65, 106
1, 24705, Note_off_c, 0, 65, 106
1, 24784, Note_on_c, 0, 68, 103
1, 24816, Note_off_c, 0, 68, 103
1, 24818, Note_on_c, 0, 69, 113
1, 24885, Note_off_c, 0, 69, 113
1, 24885, Note_on_c, 0, 67, 85
1, 24898, Note_off_c, 0, 67, 85
1, 25093, Note_on_c, 0, 62, 103
1, 25122, Note_off_c, 0, 62, 103
1, 25171, Note_on_c, 0, 67, 109
1, 25257, Note_off_c, 0, 67, 109
1, 25281, Note_on_c, 0, 67, 107
1, 25361, Note_off_c, 0, 67, 107
1, 25372, Note_on_c, 0, 67, 108
1, 25455, Note_off_c, 0, 67, 108
1, 25465, Note_on_c, 0, 65, 112
1, 25526, Note_off_c, 0, 65, 112
1, 25546, Note_on_c, 0, 65, 111
1, 25610, Note_off_c, 0, 65, 111
1, 25639, Note_on_c, 0, 65, 103
1, 25724, Note_off_c, 0, 65, 103
1, 25743, Note_on_c, 0, 62, 102
1, 25803, Note_off_c, 0, 62, 102
1, 26126, Note_on_c, 0, 68, 101
1, 26152, Note_off_c, 0, 68, 101
1, 26154, Note_on_c, 0, 69, 108
1, 26215, Note_off_c, 0, 69, 108
1, 26216, Note_on_c, 0, 72, 105
1, 26286, Note_off_c, 0, 72, 105
1, 26306, Note_on_c, 0, 74, 112
1, 26392, Note_off_c, 0, 74, 112
1, 26412, Note_on_c, 0, 77, 112
1, 26479, Note_off_c, 0, 77, 112
1, 26510, Note_on_c, 0, 77, 106
1, 26608, Note_off_c, 0, 77, 106
1, 26608, Note_on_c, 0, 78, 108
1, 26619, Note_off_c, 0, 78, 108
1, 26619, Note_on_c, 0, 79, 106
1, 26693, Note_off_c, 0, 79, 106
1, 26717, Note_on_c, 0, 79, 110
1, 26925, Note_off_c, 0, 79, 110
1, 26945, Note_on_c, 0, 77, 107
1, 27016, Note_off_c, 0, 77, 107
1, 27019, Note_on_c, 0, 74, 112
1, 27075, Note_off_c, 0, 74, 112
1, 27127, Note_on_c, 0, 72, 102
1, 27277, Note_off_c, 0, 72, 102
1, 27288, Note_on_c, 0, 74, 102
1, 27367, Note_off_c, 0, 74, 102
1, 27394, Note_on_c, 0, 68, 106
1, 27438, Note_off_c, 0, 68, 106
1, 27442, Note_on_c, 0, 67, 101
1, 27491, Note_off_c, 0, 67, 101
1, 27492, Note_on_c, 0, 68, 102
1, 27560, Note_off_c, 0, 68, 102
1, 27563, Note_on_c, 0, 65, 101
1, 27631, Note_off_c, 0, 65, 101
1, 27671, Note_on_c, 0, 67, 106
1, 27771, Note_off_c, 0, 67, 106
1, 27777, Note_on_c, 0, 65, 101
1, 27853, Note_off_c, 0, 65, 101
1, 27880, Note_on_c, 0, 62, 104
1, 28042, Note_off_c, 0, 62, 104
1, 28051, Note_on_c, 0, 65, 103
1, 28153, Note_off_c, 0, 65, 103
1, 28341, Note_on_c, 0, 62, 101
1, 28378, Note_off_c, 0, 62, 101
1, 28422, Note_on_c, 0, 65, 108
1, 28523, Note_off_c, 0, 65, 108
1, 28533, Note_on_c, 0, 67, 94
1, 28596, Note_off_c, 0, 67, 94
1, 28638, Note_on_c, 0, 67, 9
1, 28805, Note_off_c, 0, 67, 9
1, 28815, Note_on_c, 0, 65, 104
1, 28886, Note_off_c, 0, 65, 104
1, 28934, Note_on_c, 0, 68, 105
1, 28983, Note_off_c, 0, 68, 105
1, 28983, Note_on_c, 0, 67, 94
1, 28998, Note_off_c, 0, 67, 94
1, 29094, Note_on_c, 0, 62, 97
1, 29128, Note_off_c, 0, 62, 97
1, 29189, Note_on_c, 0, 67, 103
1, 29273, Note_off_c, 0, 67, 103
1, 29292, Note_on_c, 0, 65, 81
1, 29366, Note_off_c, 0, 65, 81
1, 29394, Note_on_c, 0, 62, 101
1, 29490, Note_off_c, 0, 62, 101
1, 29496, Note_on_c, 0, 60, 89
1, 29565, Note_off_c, 0, 60, 89
1, 29577, Note_on_c, 0, 62, 102
1, 29635, Note_off_c, 0, 62, 102
1, 29635, Note_on_c, 0, 61, 95
1, 29646, Note_off_c, 0, 61, 95
1, 29848, Note_on_c, 0, 62, 95
1, 29886, Note_off_c, 0, 62, 95
1, 29951, Note_on_c, 0, 65, 105
1, 30043, Note_off_c, 0, 65, 105
1, 30054, Note_on_c, 0, 67, 92
1, 30105, Note_off_c, 0, 67, 92
1, 30149, Note_on_c, 0, 67, 108
1, 30240, Note_off_c, 0, 67, 108
1, 30242, Note_on_c, 0, 65, 103
1, 30271, Note_off_c, 0, 65, 103
1, 30344, Note_on_c, 0, 67, 92
1, 30379, Note_off_c, 0, 67, 92
1, 30428, Note_on_c, 0, 67, 106
1, 30521, Note_off_c, 0, 67, 106
1, 30524, Note_on_c, 0, 65, 99
1, 30548, Note_off_c, 0, 65, 99
1, 30617, Note_on_c, 0, 67, 97
1, 30664, Note_off_c, 0, 67, 97
1, 30706, Note_on_c, 0, 67, 107
1, 30796, Note_off_c, 0, 67, 107
1, 30803, Note_on_c, 0, 65, 100
1, 30839, Note_off_c, 0, 65, 100
1, 30906, Note_on_c, 0, 67, 105
1, 30995, Note_off_c, 0, 67, 105
1, 31001, Note_on_c, 0, 65, 98
1, 31038, Note_off_c, 0, 65, 98
1, 31074, Note_on_c, 0, 67, 104
1, 31196, Note_off_c, 0, 67, 104
1, 31202, Note_on_c, 0, 65, 101
1, 31239, Note_off_c, 0, 65, 101
1, 31280, Note_on_c, 0, 67, 106
1, 31313, Note_off_c, 0, 67, 106
1, 31317, Note_on_c, 0, 68, 105
1, 31353, Note_off_c, 0, 68, 105
1, 31357, Note_on_c, 0, 67, 93
1, 31399, Note_off_c, 0, 67, 93
1, 31479, Note_on_c, 0, 62, 97
1, 31555, Note_off_c, 0, 62, 97
1, 31569, Note_on_c, 0, 65, 108
1, 31753, Note_off_c, 0, 65, 108
1, 32040, Note_on_c, 0, 65, 105
1, 32091, Note_on_c, 0, 66, 108
1, 32091, Note_off_c, 0, 65, 105
1, 32118, Note_off_c, 0, 66, 108
1, 32133, Note_on_c, 0, 67, 106
1, 32413, Note_off_c, 0, 67, 106
1, 32422, Note_on_c, 0, 65, 102
1, 32513, Note_off_c, 0, 65, 102
1, 32537, Note_on_c, 0, 66, 104
1, 32574, Note_off_c, 0, 66, 104
1, 32581, Note_on_c, 0, 67, 106
1, 32617, Note_off_c, 0, 67, 106
1, 32628, Note_on_c, 0, 68, 103
1, 32965, Note_off_c, 0, 68, 103
1, 32969, Note_on_c, 0, 69, 113
1, 33359, Note_off_c, 0, 69, 113
1, 33593, Note_on_c, 0, 68, 107
1, 33647, Note_off_c, 0, 68, 107
1, 33665, Note_on_c, 0, 69, 114
1, 33754, Note_off_c, 0, 69, 114
1, 33766, Note_on_c, 0, 70, 108
1, 33823, Note_off_c, 0, 70, 108
1, 33824, Note_on_c, 0, 69, 99
1, 33859, Note_off_c, 0, 69, 99
1, 33879, Note_on_c, 0, 68, 93
1, 33931, Note_off_c, 0, 68, 93
1, 33931, Note_on_c, 0, 69, 113
1, 34041, Note_off_c, 0, 69, 113
1, 34107, Note_on_c, 0, 65, 89
1, 34141, Note_off_c, 0, 65, 89
1, 34157, Note_on_c, 0, 68, 107
1, 34242, Note_off_c, 0, 68, 107
1, 34245, Note_on_c, 0, 69, 114
1, 34335, Note_off_c, 0, 69, 114
1, 34355, Note_on_c, 0, 70, 103
1, 34402, Note_off_c, 0, 70, 103
1, 34402, Note_on_c, 0, 69, 105
1, 34452, Note_off_c, 0, 69, 105
1, 34468, Note_on_c, 0, 68, 93
1, 34528, Note_off_c, 0, 68, 93
1, 34528, Note_on_c, 0, 69, 112
1, 34653, Note_off_c, 0, 69, 112
1, 34726, Note_on_c, 0, 68, 106
1, 34824, Note_off_c, 0, 68, 106
1, 34828, Note_on_c, 0, 69, 105
1, 34878, Note_off_c, 0, 69, 105
1, 34905, Note_on_c, 0, 69, 79
1, 34920, Note_off_c, 0, 69, 79
1, 34922, Note_on_c, 0, 70, 105
1, 34964, Note_off_c, 0, 70, 105
1, 34971, Note_on_c, 0, 69, 101
1, 35038, Note_off_c, 0, 69, 101
1, 35043, Note_on_c, 0, 68, 94
1, 35102, Note_off_c, 0, 68, 94
1, 35103, Note_on_c, 0, 69, 117
1, 35156, Note_off_c, 0, 69, 117
1, 35161, Note_on_c, 0, 68, 109
1, 35207, Note_off_c, 0, 68, 109
1, 35305, Note_on_c, 0, 68, 103
1, 35401, Note_off_c, 0, 68, 103
1, 35401, Note_on_c, 0, 69, 106
1, 35449, Note_off_c, 0, 69, 106
1, 35507, Note_on_c, 0, 70, 104
1, 35536, Note_off_c, 0, 70, 104
1, 35536, Note_on_c, 0, 69, 106
1, 35592, Note_off_c, 0, 69, 106
1, 35604, Note_on_c, 0, 62, 87
1, 35669, Note_off_c, 0, 62, 87
1, 35669, Note_on_c, 0, 69, 109
1, 35779, Note_off_c, 0, 69, 109
1, 35783, Note_on_c, 0, 62, 91
1, 35857, Note_off_c, 0, 62, 91
1, 35865, Note_on_c, 0, 68, 102
1, 35964, Note_off_c, 0, 68, 102
1, 35964, Note_on_c, 0, 69, 95
1, 36003, Note_off_c, 0, 69, 95
1, 36077, Note_on_c, 0, 70, 104
1, 36106, Note_off_c, 0, 70, 104
1, 36107, Note_on_c, 0, 69, 105
1, 36176, Note_off_c, 0, 69, 105
1, 36180, Note_on_c, 0, 62, 84
1, 36249, Note_off_c, 0, 62, 84
1, 36255, Note_on_c, 0, 69, 119
1, 36293, Note_off_c, 0, 69, 119
1, 36294, Note_on_c, 0, 68, 86
1, 36316, Note_off_c, 0, 68, 86
1, 36435, Note_on_c, 0, 62, 98
1, 36531, Note_off_c, 0, 62, 98
1, 36589, Note_on_c, 0, 58, 90
1, 36623, Note_off_c, 0, 58, 90
1, 36637, Note_on_c, 0, 68, 106
1, 36721, Note_off_c, 0, 68, 106
1, 36736, Note_on_c, 0, 69, 102
1, 36766, Note_off_c, 0, 69, 102
1, 36820, Note_on_c, 0, 70, 101
1, 36854, Note_off_c, 0, 70, 101
1, 36854, Note_on_c, 0, 69, 103
1, 36912, Note_off_c, 0, 69, 103
1, 36930, Note_on_c, 0, 69, 112
1, 36979, Note_off_c, 0, 69, 112
1, 37124, Note_on_c, 0, 62, 95
1, 37157, Note_off_c, 0, 62, 95
1, 37199, Note_on_c, 0, 67, 103
1, 37246, Note_off_c, 0, 67, 103
1, 37246, Note_on_c, 0, 68, 106
1, 37299, Note_off_c, 0, 68, 106
1, 37310, Note_on_c, 0, 69, 104
1, 37333, Note_off_c, 0, 69, 104
1, 37412, Note_on_c, 0, 70, 110
1, 37436, Note_off_c, 0, 70, 110
1, 37436, Note_on_c, 0, 69, 106
1, 37463, Note_off_c, 0, 69, 106
1, 37465, Note_on_c, 0, 70, 107
1, 37498, Note_off_c, 0, 70, 107
1, 37527, Note_on_c, 0, 68, 94
1, 37567, Note_off_c, 0, 68, 94
1, 37597, Note_on_c, 0, 69, 112
1, 37689, Note_off_c, 0, 69, 112
1, 37715, Note_on_c, 0, 62, 91
1, 37757, Note_off_c, 0, 62, 91
1, 37778, Note_on_c, 0, 68, 100
1, 37828, Note_off_c, 0, 68, 100
1, 37860, Note_on_c, 0, 69, 88
1, 37895, Note_off_c, 0, 69, 88
1, 37958, Note_on_c, 0, 70, 107
1, 37995, Note_off_c, 0, 70, 107
1, 37996, Note_on_c, 0, 69, 104
1, 38028, Note_off_c, 0, 69, 104
1, 38038, Note_on_c, 0, 70, 101
1, 38091, Note_off_c, 0, 70, 101
1, 38097, Note_on_c, 0, 68, 86
1, 38130, Note_off_c, 0, 68, 86
1, 38144, Note_on_c, 0, 69, 105
1, 38224, Note_off_c, 0, 69, 105
1, 38347, Note_on_c, 0, 62, 103
1, 38450, Note_off_c, 0, 62, 103
1, 38464, Note_on_c, 0, 58, 82
1, 38491, Note_off_c, 0, 58, 82
1, 38538, Note_on_c, 0, 68, 110
1, 38590, Note_off_c, 0, 68, 110
1, 38592, Note_on_c, 0, 67, 102
1, 38602, Note_off_c, 0, 67, 102
1, 38606, Note_on_c, 0, 66, 105
1, 38622, Note_off_c, 0, 66, 105
1, 38625, Note_on_c, 0, 65, 103
1, 38646, Note_off_c, 0, 65, 103
1, 38706, Note_on_c, 0, 62, 109
1, 38759, Note_off_c, 0, 62, 109
1, 38766, Note_on_c, 0, 61, 105
1, 38804, Note_off_c, 0, 61, 105
1, 38838, Note_on_c, 0, 60, 90
1, 38880, Note_off_c, 0, 60, 90
1, 38911, Note_on_c, 0, 67, 110
1, 38949, Note_off_c, 0, 67, 110
1, 38951, Note_on_c, 0, 66, 106
1, 38966, Note_off_c, 0, 66, 106
1, 38971, Note_on_c, 0, 65, 101
1, 38986, Note_off_c, 0, 65, 101
1, 39100, Note_on_c, 0, 62, 102
1, 39205, Note_off_c, 0, 62, 102
1, 39216, Note_on_c, 0, 60, 96
1, 39264, Note_off_c, 0, 60, 96
1, 39288, Note_on_c, 0, 65, 105
1, 39415, Note_off_c, 0, 65, 105
1, 39435, Note_on_c, 0, 65, 96
1, 39542, Note_off_c, 0, 65, 96
1, 39593, Note_on_c, 0, 65, 104
1, 39641, Note_off_c, 0, 65, 104
1, 39779, Note_on_c, 0, 56, 98
1, 39832, Note_off_c, 0, 56, 98
1, 39833, Note_on_c, 0, 55, 100
1, 39844, Note_off_c, 0, 55, 100
1, 39846, Note_on_c, 0, 54, 80
1, 39849, Note_on_c, 0, 53, 110
1, 39849, Note_off_c, 0, 54, 80
1, 39868, Note_off_c, 0, 53, 110
1, 39876, Note_on_c, 0, 52, 100
1, 39899, Note_off_c, 0, 52, 100
1, 39991, Note_on_c, 0, 53, 97
1, 40028, Note_off_c, 0, 53, 97
1, 40066, Note_on_c, 0, 55, 102
1, 40167, Note_off_c, 0, 55, 102
1, 40169, Note_on_c, 0, 53, 97
1, 40220, Note_off_c, 0, 53, 97
1, 40225, Note_on_c, 0, 57, 117
1, 40258, Note_off_c, 0, 57, 117
1, 40263, Note_on_c, 0, 60, 104
1, 40282, Note_off_c, 0, 60, 104
1, 40287, Note_on_c, 0, 62, 100
1, 40325, Note_off_c, 0, 62, 100
1, 40333, Note_on_c, 0, 60, 100
1, 40363, Note_off_c, 0, 60, 100
1, 40374, Note_on_c, 0, 62, 91
1, 40540, Note_off_c, 0, 62, 91
1, 40540, End_track
0, 0, End_of_file
