0, 0, Header, 1, 1, 840
1, 0, Start_track
1, 0, Title_t, "Melody"
1, 0, Tempo, 387096
1, 0, Key_signature, 2, "major"
1, 0, Time_signature, 4, 2, 24, 8
1, 8446, Note_on_c, 0, 78, 119
1, 8924, Note_off_c, 0, 78, 119
1, 8971, Note_on_c, 0, 73, 107
1, 13364, Note_off_c, 0, 73, 107
1, 13433, Note_on_c, 0, 75, 111
1, 13930, Note_off_c, 0, 75, 111
1, 13980, Note_on_c, 0, 70, 109
1, 17236, Note_off_c, 0, 70, 109
1, 17475, Note_on_c, 0, 68, 102
1, 17645, Note_off_c, 0, 68, 102
1, 17764, Note_on_c, 0, 70, 111
1, 18387, Note_off_c, 0, 70, 111
1, 18393, Note_on_c, 0, 68, 92
1, 18569, Note_off_c, 0, 68, 92
1, 18594, Note_on_c, 0, 70, 110
1, 19198, Note_off_c, 0, 70, 110
1, 19305, Note_on_c, 0, 68, 85
1, 21471, Note_off_c, 0, 68, 85
1, 25105, Note_on_c, 0, 70, 95
1, 25259, Note_off_c, 0, 70, 95
1, 25403, Note_on_c, 0, 75, 111
1, 25796, Note_off_c, 0, 75, 111
1, 25899, Note_on_c, 0, 77, 115
1, 26248, Note_off_c, 0, 77, 115
1, 26260, Note_on_c, 0, 78, 124
1, 26666, Note_off_c, 0, 78, 124
1, 26807, Note_on_c, 0, 80, 122
1, 27096, Note_off_c, 0, 80, 122
1, 27143, Note_on_c, 0, 82, 123
1, 27520, Note_off_c, 0, 82, 123
1, 27671, Note_on_c, 0, 77, 102
1, 27828, Note_off_c, 0, 77, 102
1, 27985, Note_on_c, 0, 80, 120
1, 28536, Note_off_c, 0, 80, 120
1, 28567, Note_on_c, 0, 82, 110
1, 28730, Note_off_c, 0, 82, 110
1, 28821, Note_on_c, 0, 78, 125
1, 29280, Note_off_c, 0, 78, 125
1, 29336, Note_on_c, 0, 75, 121
1, 30350, Note_off_c, 0, 75, 121
1, 30372, Note_on_c, 0, 70, 121
1, 31014, Note_off_c, 0, 70, 121
1, 31014, Note_on_c, 0, 68, 117
1, 32632, Note_off_c, 0, 68, 117
1, 32682, Note_on_c, 0, 70, 114
1, 32896, Note_off_c, 0, 70, 114
1, 32924, Note_on_c, 0, 68, 119
1, 33418, Note_off_c, 0, 68, 119
1, 33449, Note_on_c, 0, 70, 119
1, 34340, Note_off_c, 0, 70, 119
1, 34393, Note_on_c, 0, 66, 109
1, 34575, Note_off_c, 0, 66, 109
1, 34603, Note_on_c, 0, 68, 116
1, 35116, Note_off_c, 0, 68, 116
1, 35134, Note_on_c, 0, 70, 109
1, 37363, Note_off_c, 0, 70, 109
1, 39239, Note_on_c, 0, 79, 102
1, 39371, Note_off_c, 0, 79, 102
1, 39371, Note_on_c, 0, 80, 111
1, 39471, Note_off_c, 0, 80, 111
1, 39524, Note_on_c, 0, 82, 116
1, 39763, Note_off_c, 0, 82, 116
1, 39763, Note_on_c, 0, 80, 112
1, 40088, Note_off_c, 0, 80, 112
1, 40156, Note_on_c, 0, 79, 121
1, 40488, Note_off_c, 0, 79, 121
1, 40538, Note_on_c, 0, 77, 120
1, 40905, Note_off_c, 0, 77, 120
1, 40927, Note_on_c, 0, 76, 123
1, 41352, Note_off_c, 0, 76, 123
1, 41394, Note_on_c, 0, 75, 120
1, 41788, Note_off_c, 0, 75, 120
1, 41805, Note_on_c, 0, 74, 120
1, 42205, Note_off_c, 0, 74, 120
1, 42236, Note_on_c, 0, 73, 116
1, 42650, Note_off_c, 0, 73, 116
1, 42685, Note_on_c, 0, 72, 120
1, 43070, Note_off_c, 0, 72, 120
1, 43105, Note_on_c, 0, 71, 117
1, 43667, Note_off_c, 0, 71, 117
1, 43671, Note_on_c, 0, 73, 113
1, 43941, Note_off_c, 0, 73, 113
1, 44534, Note_on_c, 0, 75, 106
1, 44627, Note_off_c, 0, 75, 106
1, 44629, Note_on_c, 0, 74, 120
1, 44852, Note_off_c, 0, 74, 120
1, 44863, Note_on_c, 0, 73, 116
1, 45212, Note_off_c, 0, 73, 116
1, 45227, Note_on_c, 0, 70, 119
1, 45590, Note_off_c, 0, 70, 119
1, 45592, Note_on_c, 0, 68, 115
1, 45979, Note_off_c, 0, 68, 115
1, 45985, Note_on_c, 0, 67, 114
1, 46374, Note_off_c, 0, 67, 114
1, 46402, Note_on_c, 0, 66, 112
1, 46791, Note_off_c, 0, 66, 112
1, 46793, Note_on_c, 0, 64, 112
1, 47176, Note_off_c, 0, 64, 112
1, 47220, Note_on_c, 0, 61, 108
1, 47549, Note_off_c, 0, 61, 108
1, 47551, Note_on_c, 0, 62, 108
1, 47905, Note_off_c, 0, 62, 108
1, 47991, Note_on_c, 0, 63, 110
1, 48181, Note_off_c, 0, 63, 110
1, 48216, Note_on_c, 0, 64, 110
1, 48532, Note_off_c, 0, 64, 110
1, 48543, Note_on_c, 0, 65, 114
1, 48764, Note_off_c, 0, 65, 114
1, 48821, Note_on_c, 0, 66, 112
1, 49252, Note_off_c, 0, 66, 112
1, 49305, Note_on_c, 0, 68, 113
1, 49601, Note_off_c, 0, 68, 113
1, 49605, Note_on_c, 0, 69, 110
1, 49757, Note_off_c, 0, 69, 110
1, 49763, Note_on_c, 0, 71, 118
1, 49993, Note_off_c, 0, 71, 118
1, 49993, Note_on_c, 0, 72, 117
1, 50340, Note_off_c, 0, 72, 117
1, 50373, Note_on_c, 0, 69, 112
1, 50780, Note_off_c, 0, 69, 112
1, 51222, Note_on_c, 0, 79, 121
1, 51408, Note_off_c, 0, 79, 121
1, 51412, Note_on_c, 0, 77, 117
1, 51524, Note_off_c, 0, 77, 117
1, 51526, Note_on_c, 0, 74, 119
1, 52010, Note_off_c, 0, 74, 119
1, 52010, Note_on_c, 0, 72, 120
1, 52364, Note_off_c, 0, 72, 120
1, 52381, Note_on_c, 0, 69, 114
1, 52848, Note_off_c, 0, 69, 114
1, 52890, Note_on_c, 0, 67, 116
1, 53275, Note_off_c, 0, 67, 116
1, 53748, Note_on_c, 0, 65, 82
1, 53900, Note_off_c, 0, 65, 82
1, 54190, Note_on_c, 0, 62, 77
1, 54276, Note_off_c, 0, 62, 77
1, 54295, Note_on_c, 0, 64, 92
1, 54379, Note_off_c, 0, 64, 92
1, 54491, Note_on_c, 0, 67, 111
1, 54626, Note_off_c, 0, 67, 111
1, 54626, Note_on_c, 0, 65, 109
1, 54858, Note_off_c, 0, 65, 109
1, 54862, Note_on_c, 0, 63, 97
1, 55211, Note_off_c, 0, 63, 97
1, 55284, Note_on_c, 0, 67, 108
1, 55649, Note_off_c, 0, 67, 108
1, 55699, Note_on_c, 0, 70, 114
1, 56059, Note_off_c, 0, 70, 114
1, 56063, Note_on_c, 0, 74, 119
1, 56426, Note_off_c, 0, 74, 119
1, 56439, Note_on_c, 0, 77, 120
1, 56810, Note_off_c, 0, 77, 120
1, 56810, Note_on_c, 0, 74, 117
1, 57230, Note_off_c, 0, 74, 117
1, 57247, Note_on_c, 0, 75, 114
1, 57645, Note_off_c, 0, 75, 114
1, 57645, Note_on_c, 0, 77, 116
1, 58043, Note_off_c, 0, 77, 116
1, 58049, Note_on_c, 0, 74, 114
1, 58582, Note_off_c, 0, 74, 114
1, 58588, Note_on_c, 0, 71, 106
1, 58882, Note_off_c, 0, 71, 106
1, 59415, Note_on_c, 0, 77, 118
1, 59760, Note_off_c, 0, 77, 118
1, 59855, Note_on_c, 0, 76, 114
1, 60324, Note_off_c, 0, 76, 114
1, 60359, Note_on_c, 0, 73, 112
1, 60748, Note_off_c, 0, 73, 112
1, 66719, Note_on_c, 0, 76, 108
1, 66978, Note_off_c, 0, 76, 108
1, 67144, Note_on_c, 0, 76, 123
1, 67496, Note_off_c, 0, 76, 123
1, 67518, Note_on_c, 0, 78, 127
1, 67989, Note_off_c, 0, 78, 127
1, 68006, Note_on_c, 0, 73, 120
1, 68446, Note_off_c, 0, 73, 120
1, 68784, Note_on_c, 0, 71, 121
1, 69158, Note_off_c, 0, 71, 121
1, 69220, Note_on_c, 0, 73, 120
1, 69614, Note_off_c, 0, 73, 120
1, 69633, Note_on_c, 0, 71, 119
1, 70040, Note_off_c, 0, 71, 119
1, 73120, Note_on_c, 0, 73, 108
1, 73321, Note_off_c, 0, 73, 108
1, 73487, Note_on_c, 0, 75, 122
1, 73963, Note_off_c, 0, 75, 122
1, 73985, Note_on_c, 0, 73, 109
1, 74184, Note_off_c, 0, 73, 109
1, 74327, Note_on_c, 0, 75, 122
1, 74796, Note_off_c, 0, 75, 122
1, 74835, Note_on_c, 0, 70, 119
1, 75277, Note_off_c, 0, 70, 119
1, 75575, Note_on_c, 0, 68, 115
1, 75921, Note_off_c, 0, 68, 115
1, 75921, Note_on_c, 0, 70, 120
1, 76081, Note_off_c, 0, 70, 120
1, 76099, Note_on_c, 0, 69, 118
1, 76152, Note_off_c, 0, 69, 118
1, 76164, Note_on_c, 0, 70, 116
1, 77663, Note_off_c, 0, 70, 116
1, 77708, Note_on_c, 0, 68, 108
1, 77889, Note_off_c, 0, 68, 108
1, 77908, Note_on_c, 0, 67, 107
1, 78054, Note_off_c, 0, 67, 107
1, 78054, Note_on_c, 0, 65, 105
1, 78120, Note_off_c, 0, 65, 105
1, 78124, Note_on_c, 0, 63, 112
1, 78356, Note_off_c, 0, 63, 112
1, 78477, Note_on_c, 0, 59, 106
1, 78674, Note_off_c, 0, 59, 106
1, 78753, Note_on_c, 0, 58, 103
1, 84129, Note_off_c, 0, 58, 103
1, 86679, Note_on_c, 0, 82, 114
1, 90143, Note_off_c, 0, 82, 114
1, 90208, Note_on_c, 0, 79, 101
1, 90275, Note_off_c, 0, 79, 101
1, 90286, Note_on_c, 0, 78, 115
1, 90401, Note_off_c, 0, 78, 115
1, 90431, Note_on_c, 0, 76, 108
1, 90500, Note_off_c, 0, 76, 108
1, 90517, Note_on_c, 0, 74, 112
1, 90664, Note_off_c, 0, 74, 112
1, 90675, Note_on_c, 0, 73, 115
1, 90881, Note_off_c, 0, 73, 115
1, 90911, Note_on_c, 0, 71, 109
1, 91064, Note_off_c, 0, 71, 109
1, 91102, Note_on_c, 0, 70, 117
1, 91208, Note_off_c, 0, 70, 117
1, 91240, Note_on_c, 0, 68, 106
1, 91513, Note_off_c, 0, 68, 106
1, 91565, Note_on_c, 0, 64, 97
1, 91642, Note_off_c, 0, 64, 97
1, 91654, Note_on_c, 0, 63, 97
1, 91728, Note_off_c, 0, 63, 97
1, 91767, Note_on_c, 0, 61, 101
1, 91926, Note_off_c, 0, 61, 101
1, 91968, Note_on_c, 0, 60, 97
1, 92136, Note_off_c, 0, 60, 97
1, 92147, Note_on_c, 0, 58, 111
1, 93744, Note_off_c, 0, 58, 111
1, 93744, Note_on_c, 0, 60, 99
1, 93865, Note_off_c, 0, 60, 99
1, 93891, Note_on_c, 0, 61, 107
1, 94028, Note_off_c, 0, 61, 107
1, 94053, Note_on_c, 0, 63, 98
1, 94128, Note_off_c, 0, 63, 98
1, 94173, Note_on_c, 0, 64, 107
1, 94281, Note_off_c, 0, 64, 107
1, 94292, Note_on_c, 0, 66, 103
1, 94402, Note_off_c, 0, 66, 103
1, 94417, Note_on_c, 0, 67, 106
1, 94509, Note_off_c, 0, 67, 106
1, 94532, Note_on_c, 0, 69, 106
1, 94670, Note_off_c, 0, 69, 106
1, 94693, Note_on_c, 0, 71, 104
1, 94828, Note_off_c, 0, 71, 104
1, 94848, Note_on_c, 0, 73, 112
1, 95030, Note_off_c, 0, 73, 112
1, 95055, Note_on_c, 0, 75, 109
1, 95157, Note_off_c, 0, 75, 109
1, 95254, Note_on_c, 0, 77, 104
1, 95328, Note_off_c, 0, 77, 104
1, 95374, Note_on_c, 0, 80, 112
1, 95510, Note_off_c, 0, 80, 112
1, 95550, Note_on_c, 0, 81, 119
1, 95704, Note_off_c, 0, 81, 119
1, 95724, Note_on_c, 0, 82, 118
1, 98029, Note_off_c, 0, 82, 118
1, 99904, Note_on_c, 0, 79, 118
1, 100112, Note_off_c, 0, 79, 118
1, 100120, Note_on_c, 0, 80, 110
1, 100221, Note_off_c, 0, 80, 110
1, 100283, Note_on_c, 0, 82, 116
1, 100659, Note_off_c, 0, 82, 116
1, 100659, Note_on_c, 0, 79, 121
1, 101019, Note_off_c, 0, 79, 121
1, 101050, Note_on_c, 0, 80, 116
1, 101457, Note_off_c, 0, 80, 116
1, 101488, Note_on_c, 0, 82, 117
1, 101868, Note_off_c, 0, 82, 117
1, 101923, Note_on_c, 0, 79, 121
1, 102044, Note_off_c, 0, 79, 121
1, 102057, Note_on_c, 0, 78, 120
1, 102305, Note_off_c, 0, 78, 120
1, 102309, Note_on_c, 0, 79, 115
1, 102557, Note_off_c, 0, 79, 115
1, 102568, Note_on_c, 0, 82, 107
1, 102698, Note_off_c, 0, 82, 107
1, 102724, Note_on_c, 0, 77, 115
1, 103202, Note_off_c, 0, 77, 115
1, 103228, Note_on_c, 0, 75, 98
1, 103932, Note_off_c, 0, 75, 98
1, 103943, Note_on_c, 0, 73, 115
1, 104301, Note_off_c, 0, 73, 115
1, 104425, Note_on_c, 0, 71, 114
1, 104774, Note_off_c, 0, 71, 114
1, 106954, Note_on_c, 0, 75, 118
1, 107423, Note_off_c, 0, 75, 118
1, 107452, Note_on_c, 0, 71, 115
1, 107825, Note_off_c, 0, 71, 115
1, 107867, Note_on_c, 0, 68, 90
1, 108169, Note_off_c, 0, 68, 90
1, 108313, Note_on_c, 0, 70, 91
1, 108591, Note_off_c, 0, 70, 91
1, 108609, Note_on_c, 0, 73, 117
1, 109087, Note_off_c, 0, 73, 117
1, 109087, Note_on_c, 0, 72, 116
1, 109387, Note_off_c, 0, 72, 116
1, 109424, Note_on_c, 0, 71, 116
1, 109911, Note_off_c, 0, 71, 116
1, 109911, Note_on_c, 0, 73, 114
1, 110183, Note_off_c, 0, 73, 114
1, 110245, Note_on_c, 0, 68, 109
1, 110718, Note_off_c, 0, 68, 109
1, 110850, Note_on_c, 0, 66, 109
1, 111109, Note_off_c, 0, 66, 109
1, 112838, Note_on_c, 0, 60, 100
1, 112957, Note_off_c, 0, 60, 100
1, 112968, Note_on_c, 0, 62, 92
1, 113084, Note_off_c, 0, 62, 92
1, 113085, Note_on_c, 0, 63, 90
1, 113209, Note_off_c, 0, 63, 90
1, 113215, Note_on_c, 0, 70, 95
1, 113374, Note_off_c, 0, 70, 95
1, 113418, Note_on_c, 0, 74, 119
1, 113789, Note_off_c, 0, 74, 119
1, 113818, Note_on_c, 0, 77, 121
1, 114200, Note_off_c, 0, 77, 121
1, 114210, Note_on_c, 0, 76, 120
1, 114590, Note_off_c, 0, 76, 120
1, 114601, Note_on_c, 0, 75, 120
1, 114968, Note_off_c, 0, 75, 120
1, 114985, Note_on_c, 0, 74, 121
1, 115365, Note_off_c, 0, 74, 121
1, 115424, Note_on_c, 0, 72, 118
1, 115784, Note_off_c, 0, 72, 118
1, 115801, Note_on_c, 0, 70, 119
1, 116159, Note_off_c, 0, 70, 119
1, 116240, Note_on_c, 0, 69, 114
1, 116578, Note_off_c, 0, 69, 114
1, 116615, Note_on_c, 0, 67, 114
1, 116993, Note_off_c, 0, 67, 114
1, 116993, Note_on_c, 0, 65, 113
1, 117387, Note_off_c, 0, 65, 113
1, 117468, Note_on_c, 0, 64, 112
1, 117766, Note_off_c, 0, 64, 112
1, 117794, Note_on_c, 0, 63, 103
1, 118243, Note_off_c, 0, 63, 103
1, 118285, Note_on_c, 0, 74, 115
1, 119524, Note_on_c, 0, 71, 112
1, 119524, Note_off_c, 0, 74, 115
1, 119991, Note_off_c, 0, 71, 112
1, 120075, Note_on_c, 0, 66, 95
1, 120221, Note_off_c, 0, 66, 95
1, 120393, Note_on_c, 0, 76, 113
1, 121015, Note_off_c, 0, 76, 113
1, 121028, Note_on_c, 0, 73, 109
1, 122923, Note_off_c, 0, 73, 109
1, 127193, Note_on_c, 0, 76, 116
1, 127389, Note_off_c, 0, 76, 116
1, 127414, Note_on_c, 0, 78, 116
1, 127569, Note_off_c, 0, 78, 116
1, 127820, Note_on_c, 0, 78, 123
1, 128572, Note_off_c, 0, 78, 123
1, 128638, Note_on_c, 0, 73, 116
1, 128834, Note_off_c, 0, 73, 116
1, 128834, Note_on_c, 0, 73, 118
1, 129015, Note_off_c, 0, 73, 118
1, 129022, Note_on_c, 0, 74, 106
1, 129070, Note_off_c, 0, 74, 106
1, 129087, Note_on_c, 0, 73, 116
1, 129361, Note_off_c, 0, 73, 116
1, 129378, Note_on_c, 0, 74, 118
1, 129413, Note_off_c, 0, 74, 118
1, 129419, Note_on_c, 0, 73, 119
1, 129673, Note_off_c, 0, 73, 119
1, 129675, Note_on_c, 0, 74, 109
1, 129712, Note_off_c, 0, 74, 109
1, 129727, Note_on_c, 0, 73, 9
1, 129986, Note_off_c, 0, 73, 9
1, 129997, Note_on_c, 0, 74, 43
1, 130052, Note_off_c, 0, 74, 43
1, 130052, Note_on_c, 0, 73, 117
1, 130326, Note_off_c, 0, 73, 117
1, 130341, Note_on_c, 0, 74, 109
1, 130391, Note_off_c, 0, 74, 109
1, 130413, Note_on_c, 0, 73, 119
1, 130645, Note_off_c, 0, 73, 119
1, 130657, Note_on_c, 0, 74, 111
1, 130712, Note_off_c, 0, 74, 111
1, 130737, Note_on_c, 0, 73, 118
1, 130987, Note_off_c, 0, 73, 118
1, 130988, Note_on_c, 0, 74, 113
1, 131046, Note_off_c, 0, 74, 113
1, 131052, Note_on_c, 0, 73, 121
1, 131300, Note_off_c, 0, 73, 121
1, 131323, Note_on_c, 0, 74, 120
1, 131357, Note_off_c, 0, 74, 120
1, 131371, Note_on_c, 0, 73, 115
1, 131490, Note_off_c, 0, 73, 115
1, 131867, Note_on_c, 0, 73, 116
1, 132037, Note_off_c, 0, 73, 116
1, 132045, Note_on_c, 0, 73, 116
1, 132183, Note_off_c, 0, 73, 116
1, 132196, Note_on_c, 0, 74, 113
1, 132235, Note_off_c, 0, 74, 113
1, 132242, Note_on_c, 0, 73, 118
1, 132382, Note_off_c, 0, 73, 118
1, 132386, Note_on_c, 0, 74, 111
1, 132414, Note_off_c, 0, 74, 111
1, 132421, Note_on_c, 0, 73, 118
1, 132572, Note_off_c, 0, 73, 118
1, 132601, Note_on_c, 0, 73, 120
1, 132745, Note_off_c, 0, 73, 120
1, 132752, Note_on_c, 0, 74, 115
1, 132780, Note_off_c, 0, 74, 115
1, 132797, Note_on_c, 0, 73, 118
1, 132924, Note_off_c, 0, 73, 118
1, 132961, Note_on_c, 0, 73, 117
1, 133062, Note_off_c, 0, 73, 117
1, 133062, Note_on_c, 0, 74, 115
1, 133082, Note_off_c, 0, 74, 115
1, 133101, Note_on_c, 0, 73, 118
1, 133240, Note_off_c, 0, 73, 118
1, 133240, Note_on_c, 0, 74, 117
1, 133277, Note_off_c, 0, 74, 117
1, 133296, Note_on_c, 0, 73, 117
1, 133418, Note_off_c, 0, 73, 117
1, 133418, Note_on_c, 0, 74, 113
1, 133443, Note_off_c, 0, 74, 113
1, 133461, Note_on_c, 0, 73, 117
1, 133643, Note_off_c, 0, 73, 117
1, 133723, Note_on_c, 0, 75, 117
1, 134992, Note_off_c, 0, 75, 117
1, 135103, Note_on_c, 0, 70, 110
1, 135164, Note_off_c, 0, 70, 110
1, 135171, Note_on_c, 0, 71, 117
1, 135224, Note_off_c, 0, 71, 117
1, 135239, Note_on_c, 0, 70, 114
1, 135374, Note_off_c, 0, 70, 114
1, 135374, Note_on_c, 0, 71, 116
1, 135605, Note_off_c, 0, 71, 116
1, 135619, Note_on_c, 0, 70, 117
1, 135702, Note_off_c, 0, 70, 117
1, 135706, Note_on_c, 0, 71, 110
1, 135915, Note_off_c, 0, 71, 110
1, 135933, Note_on_c, 0, 70, 114
1, 136022, Note_off_c, 0, 70, 114
1, 136036, Note_on_c, 0, 71, 117
1, 136229, Note_off_c, 0, 71, 117
1, 136240, Note_on_c, 0, 70, 112
1, 136326, Note_off_c, 0, 70, 112
1, 136332, Note_on_c, 0, 71, 112
1, 136480, Note_off_c, 0, 71, 112
1, 136495, Note_on_c, 0, 70, 117
1, 136671, Note_off_c, 0, 70, 117
1, 136682, Note_on_c, 0, 71, 112
1, 136859, Note_off_c, 0, 71, 112
1, 136877, Note_on_c, 0, 70, 106
1, 136952, Note_off_c, 0, 70, 106
1, 136963, Note_on_c, 0, 71, 115
1, 137109, Note_off_c, 0, 71, 115
1, 137109, Note_on_c, 0, 70, 116
1, 137212, Note_off_c, 0, 70, 116
1, 137243, Note_on_c, 0, 67, 109
1, 137392, Note_off_c, 0, 67, 109
1, 137392, Note_on_c, 0, 70, 107
1, 137538, Note_off_c, 0, 70, 107
1, 137538, Note_on_c, 0, 71, 110
1, 137676, Note_off_c, 0, 71, 110
1, 137687, Note_on_c, 0, 70, 107
1, 137775, Note_off_c, 0, 70, 107
1, 137775, Note_on_c, 0, 67, 115
1, 137989, Note_off_c, 0, 67, 115
1, 138007, Note_on_c, 0, 68, 105
1, 138057, Note_on_c, 0, 67, 115
1, 138057, Note_off_c, 0, 68, 105
1, 138277, Note_off_c, 0, 67, 115
1, 138299, Note_on_c, 0, 68, 106
1, 138344, Note_off_c, 0, 68, 106
1, 138369, Note_on_c, 0, 67, 113
1, 138613, Note_off_c, 0, 67, 113
1, 138617, Note_on_c, 0, 68, 109
1, 138653, Note_off_c, 0, 68, 109
1, 138670, Note_on_c, 0, 67, 117
1, 138803, Note_off_c, 0, 67, 117
1, 138815, Note_on_c, 0, 66, 113
1, 138903, Note_off_c, 0, 66, 113
1, 138906, Note_on_c, 0, 65, 110
1, 138957, Note_off_c, 0, 65, 110
1, 138980, Note_on_c, 0, 63, 111
1, 139183, Note_off_c, 0, 63, 111
1, 139183, Note_on_c, 0, 64, 98
1, 139219, Note_off_c, 0, 64, 98
1, 139220, Note_on_c, 0, 63, 112
1, 139670, Note_off_c, 0, 63, 112
1, 139690, Note_on_c, 0, 64, 98
1, 139745, Note_off_c, 0, 64, 98
1, 139757, Note_on_c, 0, 63, 107
1, 139982, Note_off_c, 0, 63, 107
1, 139989, Note_on_c, 0, 64, 92
1, 140025, Note_off_c, 0, 64, 92
1, 140034, Note_on_c, 0, 63, 107
1, 140325, Note_off_c, 0, 63, 107
1, 140329, Note_on_c, 0, 64, 101
1, 140357, Note_off_c, 0, 64, 101
1, 140369, Note_on_c, 0, 63, 107
1, 140820, Note_off_c, 0, 63, 107
1, 140826, Note_on_c, 0, 64, 91
1, 140873, Note_off_c, 0, 64, 91
1, 140879, Note_on_c, 0, 63, 99
1, 141069, Note_off_c, 0, 63, 99
1, 141087, Note_on_c, 0, 64, 99
1, 141183, Note_off_c, 0, 64, 99
1, 141195, Note_on_c, 0, 63, 102
1, 141401, Note_off_c, 0, 63, 102
1, 141404, Note_on_c, 0, 64, 88
1, 141438, Note_off_c, 0, 64, 88
1, 141455, Note_on_c, 0, 63, 100
1, 141617, Note_off_c, 0, 63, 100
1, 141639, Note_on_c, 0, 64, 98
1, 141683, Note_off_c, 0, 64, 98
1, 141692, Note_on_c, 0, 63, 110
1, 141972, Note_off_c, 0, 63, 110
1, 141998, Note_on_c, 0, 63, 98
1, 144211, Note_off_c, 0, 63, 98
1, 146960, Note_on_c, 0, 63, 107
1, 147917, Note_off_c, 0, 63, 107
1, 148018, Note_on_c, 0, 64, 113
1, 148179, Note_on_c, 0, 66, 109
1, 148179, Note_off_c, 0, 64, 113
1, 148293, Note_off_c, 0, 66, 109
1, 148335, Note_on_c, 0, 68, 108
1, 148471, Note_off_c, 0, 68, 108
1, 148499, Note_on_c, 0, 69, 115
1, 148662, Note_off_c, 0, 69, 115
1, 148706, Note_on_c, 0, 72, 109
1, 148795, Note_off_c, 0, 72, 109
1, 148806, Note_on_c, 0, 73, 119
1, 148974, Note_off_c, 0, 73, 119
1, 149014, Note_on_c, 0, 75, 117
1, 149150, Note_off_c, 0, 75, 117
1, 149165, Note_on_c, 0, 76, 118
1, 149353, Note_off_c, 0, 76, 118
1, 149360, Note_on_c, 0, 79, 115
1, 149421, Note_off_c, 0, 79, 115
1, 149421, Note_on_c, 0, 80, 113
1, 149529, Note_on_c, 0, 81, 108
1, 149529, Note_off_c, 0, 80, 113
1, 149628, Note_off_c, 0, 81, 108
1, 149628, Note_on_c, 0, 82, 121
1, 149816, Note_off_c, 0, 82, 121
1, 149825, Note_on_c, 0, 83, 122
1, 149984, Note_off_c, 0, 83, 122
1, 150013, Note_on_c, 0, 85, 123
1, 150085, Note_off_c, 0, 85, 123
1, 150096, Note_on_c, 0, 87, 113
1, 150209, Note_off_c, 0, 87, 113
1, 150213, Note_on_c, 0, 88, 118
1, 150471, Note_off_c, 0, 88, 118
1, 150471, Note_on_c, 0, 87, 117
1, 151352, Note_off_c, 0, 87, 117
1, 151403, Note_on_c, 0, 85, 117
1, 151597, Note_off_c, 0, 85, 117
1, 151612, Note_on_c, 0, 84, 112
1, 151707, Note_off_c, 0, 84, 112
1, 151707, Note_on_c, 0, 81, 107
1, 151873, Note_off_c, 0, 81, 107
1, 151873, Note_on_c, 0, 78, 107
1, 152052, Note_off_c, 0, 78, 107
1, 152070, Note_on_c, 0, 76, 104
1, 152262, Note_off_c, 0, 76, 104
1, 152300, Note_on_c, 0, 75, 100
1, 152498, Note_off_c, 0, 75, 100
1, 152537, Note_on_c, 0, 74, 120
1, 152661, Note_off_c, 0, 74, 120
1, 152675, Note_on_c, 0, 75, 120
1, 153940, Note_off_c, 0, 75, 120
1, 153952, Note_on_c, 0, 73, 121
1, 154162, Note_off_c, 0, 73, 121
1, 154174, Note_on_c, 0, 71, 110
1, 154243, Note_off_c, 0, 71, 110
1, 154243, Note_on_c, 0, 68, 109
1, 154378, Note_off_c, 0, 68, 109
1, 154418, Note_on_c, 0, 67, 97
1, 154484, Note_off_c, 0, 67, 97
1, 154515, Note_on_c, 0, 66, 114
1, 154599, Note_off_c, 0, 66, 114
1, 154625, Note_on_c, 0, 65, 108
1, 154799, Note_off_c, 0, 65, 108
1, 154827, Note_on_c, 0, 64, 114
1, 155010, Note_off_c, 0, 64, 114
1, 155010, Note_on_c, 0, 63, 114
1, 158322, Note_off_c, 0, 63, 114
1, 160281, Note_on_c, 0, 77, 121
1, 160422, Note_off_c, 0, 77, 121
1, 160461, Note_on_c, 0, 80, 111
1, 160525, Note_off_c, 0, 80, 111
1, 160525, Note_on_c, 0, 82, 118
1, 160915, Note_off_c, 0, 82, 118
1, 160938, Note_on_c, 0, 80, 117
1, 160991, Note_off_c, 0, 80, 117
1, 161008, Note_on_c, 0, 78, 110
1, 161061, Note_off_c, 0, 78, 110
1, 161088, Note_on_c, 0, 79, 113
1, 161302, Note_off_c, 0, 79, 113
1, 161346, Note_on_c, 0, 80, 117
1, 161648, Note_off_c, 0, 80, 117
1, 161666, Note_on_c, 0, 82, 105
1, 161870, Note_off_c, 0, 82, 105
1, 161870, Note_on_c, 0, 81, 109
1, 161929, Note_off_c, 0, 81, 109
1, 161941, Note_on_c, 0, 79, 120
1, 162180, Note_off_c, 0, 79, 120
1, 162236, Note_on_c, 0, 77, 120
1, 162563, Note_off_c, 0, 77, 120
1, 162616, Note_on_c, 0, 76, 118
1, 162965, Note_off_c, 0, 76, 118
1, 162987, Note_on_c, 0, 75, 117
1, 163393, Note_off_c, 0, 75, 117
1, 163393, Note_on_c, 0, 74, 117
1, 163761, Note_off_c, 0, 74, 117
1, 163820, Note_on_c, 0, 73, 113
1, 164553, Note_off_c, 0, 73, 113
1, 164553, Note_on_c, 0, 75, 110
1, 164987, Note_off_c, 0, 75, 110
1, 165005, Note_on_c, 0, 70, 114
1, 166809, Note_off_c, 0, 70, 114
1, 166809, Note_on_c, 0, 68, 99
1, 166982, Note_off_c, 0, 68, 99
1, 167010, Note_on_c, 0, 70, 109
1, 167520, Note_off_c, 0, 70, 109
1, 167551, Note_on_c, 0, 68, 112
1, 167812, Note_off_c, 0, 68, 112
1, 167837, Note_on_c, 0, 63, 107
1, 168403, Note_off_c, 0, 63, 107
1, 168453, Note_on_c, 0, 61, 104
1, 168695, Note_off_c, 0, 61, 104
1, 168735, Note_on_c, 0, 66, 108
1, 169254, Note_off_c, 0, 66, 108
1, 169310, Note_on_c, 0, 68, 109
1, 170894, Note_off_c, 0, 68, 109
1, 172694, Note_on_c, 0, 74, 113
1, 172846, Note_off_c, 0, 74, 113
1, 173001, Note_on_c, 0, 77, 120
1, 173443, Note_off_c, 0, 77, 120
1, 173474, Note_on_c, 0, 74, 119
1, 173753, Note_off_c, 0, 74, 119
1, 173790, Note_on_c, 0, 75, 117
1, 174312, Note_off_c, 0, 75, 117
1, 174331, Note_on_c, 0, 71, 106
1, 174636, Note_off_c, 0, 71, 106
1, 175548, Note_on_c, 0, 74, 114
1, 176345, Note_off_c, 0, 74, 114
1, 176345, Note_on_c, 0, 75, 114
1, 176900, Note_off_c, 0, 75, 114
1, 176919, Note_on_c, 0, 72, 114
1, 178513, Note_off_c, 0, 72, 114
1, 178612, Note_on_c, 0, 74, 117
1, 178930, Note_off_c, 0, 74, 117
1, 178952, Note_on_c, 0, 71, 105
1, 179474, Note_off_c, 0, 71, 105
1, 179549, Note_on_c, 0, 71, 104
1, 179743, Note_off_c, 0, 71, 104
1, 180270, Note_on_c, 0, 74, 114
1, 180668, Note_off_c, 0, 74, 114
1, 180668, Note_on_c, 0, 73, 111
1, 181288, Note_off_c, 0, 73, 111
1, 181307, Note_on_c, 0, 73, 113
1, 181561, Note_off_c, 0, 73, 113
1, 181966, Note_on_c, 0, 76, 115
1, 182342, Note_off_c, 0, 76, 115
1, 182381, Note_on_c, 0, 72, 113
1, 182956, Note_off_c, 0, 72, 113
1, 182973, Note_on_c, 0, 72, 111
1, 183207, Note_off_c, 0, 72, 111
1, 186696, Note_on_c, 0, 78, 119
1, 186868, Note_off_c, 0, 78, 119
1, 186879, Note_on_c, 0, 79, 118
1, 186956, Note_off_c, 0, 79, 118
1, 186962, Note_on_c, 0, 78, 120
1, 187187, Note_off_c, 0, 78, 120
1, 187187, Note_on_c, 0, 76, 121
1, 187381, Note_off_c, 0, 76, 121
1, 187381, Note_on_c, 0, 77, 113
1, 187462, Note_off_c, 0, 77, 113
1, 187464, Note_on_c, 0, 76, 121
1, 187665, Note_off_c, 0, 76, 121
1, 187689, Note_on_c, 0, 75, 112
1, 187757, Note_off_c, 0, 75, 112
1, 187779, Note_on_c, 0, 76, 120
1, 187960, Note_off_c, 0, 76, 120
1, 187973, Note_on_c, 0, 75, 110
1, 188054, Note_off_c, 0, 75, 110
1, 188054, Note_on_c, 0, 76, 122
1, 188144, Note_off_c, 0, 76, 122
1, 188161, Note_on_c, 0, 77, 117
1, 188203, Note_off_c, 0, 77, 117
1, 188225, Note_on_c, 0, 76, 120
1, 188342, Note_off_c, 0, 76, 120
1, 188342, Note_on_c, 0, 75, 109
1, 188379, Note_off_c, 0, 75, 109
1, 188394, Note_on_c, 0, 76, 119
1, 188464, Note_on_c, 0, 79, 122
1, 188464, Note_off_c, 0, 76, 119
1, 188599, Note_off_c, 0, 79, 122
1, 188634, Note_on_c, 0, 76, 113
1, 188740, Note_off_c, 0, 76, 113
1, 188750, Note_on_c, 0, 73, 119
1, 189852, Note_off_c, 0, 73, 119
1, 189879, Note_on_c, 0, 74, 110
1, 189979, Note_off_c, 0, 74, 110
1, 190029, Note_on_c, 0, 73, 118
1, 190159, Note_off_c, 0, 73, 118
1, 190170, Note_on_c, 0, 74, 112
1, 190205, Note_off_c, 0, 74, 112
1, 190216, Note_on_c, 0, 73, 120
1, 190357, Note_off_c, 0, 73, 120
1, 190392, Note_on_c, 0, 74, 116
1, 190447, Note_off_c, 0, 74, 116
1, 190466, Note_on_c, 0, 73, 119
1, 190647, Note_off_c, 0, 73, 119
1, 190697, Note_on_c, 0, 73, 119
1, 190827, Note_off_c, 0, 73, 119
1, 190827, Note_on_c, 0, 74, 115
1, 190869, Note_off_c, 0, 74, 115
1, 190886, Note_on_c, 0, 73, 119
1, 190963, Note_off_c, 0, 73, 119
1, 191022, Note_on_c, 0, 73, 119
1, 191159, Note_off_c, 0, 73, 119
1, 191159, Note_on_c, 0, 74, 112
1, 191190, Note_off_c, 0, 74, 112
1, 191203, Note_on_c, 0, 73, 116
1, 191296, Note_off_c, 0, 73, 116
1, 191342, Note_on_c, 0, 73, 120
1, 191485, Note_off_c, 0, 73, 120
1, 191547, Note_on_c, 0, 73, 118
1, 191739, Note_off_c, 0, 73, 118
1, 191774, Note_on_c, 0, 73, 113
1, 191906, Note_off_c, 0, 73, 113
1, 191906, Note_on_c, 0, 71, 120
1, 192167, Note_off_c, 0, 71, 120
1, 192167, Note_on_c, 0, 72, 116
1, 192279, Note_off_c, 0, 72, 116
1, 192298, Note_on_c, 0, 73, 118
1, 193321, Note_off_c, 0, 73, 118
1, 193566, Note_on_c, 0, 70, 120
1, 193884, Note_off_c, 0, 70, 120
1, 193884, Note_on_c, 0, 68, 117
1, 194295, Note_off_c, 0, 68, 117
1, 194310, Note_on_c, 0, 70, 119
1, 194659, Note_off_c, 0, 70, 119
1, 194659, Note_on_c, 0, 68, 117
1, 195179, Note_off_c, 0, 68, 117
1, 195185, Note_on_c, 0, 70, 119
1, 195399, Note_off_c, 0, 70, 119
1, 195412, Note_on_c, 0, 68, 118
1, 195595, Note_off_c, 0, 68, 118
1, 195603, Note_on_c, 0, 67, 114
1, 196107, Note_off_c, 0, 67, 114
1, 196107, Note_on_c, 0, 63, 108
1, 197980, Note_off_c, 0, 63, 108
1, 198064, Note_on_c, 0, 66, 106
1, 198312, Note_off_c, 0, 66, 106
1, 198323, Note_on_c, 0, 67, 101
1, 198429, Note_off_c, 0, 67, 101
1, 198429, Note_on_c, 0, 70, 110
1, 198665, Note_off_c, 0, 70, 110
1, 198671, Note_on_c, 0, 69, 104
1, 198839, Note_off_c, 0, 69, 104
1, 198861, Note_on_c, 0, 68, 103
1, 199111, Note_off_c, 0, 68, 103
1, 199115, Note_on_c, 0, 70, 109
1, 199365, Note_off_c, 0, 70, 109
1, 199365, Note_on_c, 0, 71, 98
1, 199438, Note_off_c, 0, 71, 98
1, 199438, Note_on_c, 0, 73, 105
1, 199674, Note_off_c, 0, 73, 105
1, 199682, Note_on_c, 0, 75, 103
1, 199921, Note_off_c, 0, 75, 103
1, 199921, Note_on_c, 0, 71, 103
1, 200164, Note_off_c, 0, 71, 103
1, 201349, Note_on_c, 0, 68, 108
1, 201441, Note_off_c, 0, 68, 108
1, 201444, Note_on_c, 0, 67, 103
1, 201765, Note_off_c, 0, 67, 103
1, 201768, Note_on_c, 0, 66, 107
1, 201999, Note_on_c, 0, 64, 105
1, 201999, Note_off_c, 0, 66, 107
1, 202120, Note_off_c, 0, 64, 105
1, 202132, Note_on_c, 0, 65, 109
1, 202357, Note_off_c, 0, 65, 109
1, 206438, Note_on_c, 0, 63, 112
1, 206663, Note_off_c, 0, 63, 112
1, 206688, Note_on_c, 0, 64, 114
1, 206898, Note_off_c, 0, 64, 114
1, 206901, Note_on_c, 0, 66, 112
1, 207129, Note_off_c, 0, 66, 112
1, 207162, Note_on_c, 0, 70, 111
1, 207300, Note_off_c, 0, 70, 111
1, 207304, Note_on_c, 0, 71, 115
1, 207445, Note_on_c, 0, 72, 113
1, 207445, Note_off_c, 0, 71, 115
1, 207530, Note_off_c, 0, 72, 113
1, 207531, Note_on_c, 0, 74, 118
1, 207671, Note_off_c, 0, 74, 118
1, 207678, Note_on_c, 0, 75, 109
1, 207734, Note_off_c, 0, 75, 109
1, 207735, Note_on_c, 0, 72, 113
1, 208355, Note_off_c, 0, 72, 113
1, 208631, Note_on_c, 0, 75, 118
1, 208896, Note_off_c, 0, 75, 118
1, 209179, Note_on_c, 0, 75, 118
1, 209522, Note_off_c, 0, 75, 118
1, 209599, Note_on_c, 0, 75, 117
1, 209878, Note_off_c, 0, 75, 117
1, 209954, Note_on_c, 0, 73, 109
1, 210059, Note_off_c, 0, 73, 109
1, 210072, Note_on_c, 0, 71, 116
1, 210169, Note_off_c, 0, 71, 116
1, 210188, Note_on_c, 0, 69, 105
1, 210276, Note_off_c, 0, 69, 105
1, 210324, Note_on_c, 0, 68, 112
1, 210525, Note_off_c, 0, 68, 112
1, 210575, Note_on_c, 0, 66, 113
1, 210628, Note_off_c, 0, 66, 113
1, 210631, Note_on_c, 0, 65, 113
1, 210761, Note_off_c, 0, 65, 113
1, 210765, Note_on_c, 0, 64, 115
1, 210868, Note_off_c, 0, 64, 115
1, 210894, Note_on_c, 0, 63, 112
1, 214227, Note_off_c, 0, 63, 112
1, 214227, Note_on_c, 0, 64, 115
1, 214441, Note_off_c, 0, 64, 115
1, 214478, Note_on_c, 0, 66, 112
1, 215016, Note_off_c, 0, 66, 112
1, 215033, Note_on_c, 0, 68, 109
1, 215139, Note_off_c, 0, 68, 109
1, 215249, Note_on_c, 0, 70, 112
1, 216748, Note_off_c, 0, 70, 112
1, 216767, Note_on_c, 0, 68, 103
1, 216884, Note_off_c, 0, 68, 103
1, 216895, Note_on_c, 0, 70, 110
1, 217446, Note_off_c, 0, 70, 110
1, 217503, Note_on_c, 0, 68, 109
1, 217857, Note_off_c, 0, 68, 109
1, 220044, Note_on_c, 0, 77, 111
1, 220221, Note_off_c, 0, 77, 111
1, 220245, Note_on_c, 0, 80, 96
1, 220313, Note_off_c, 0, 80, 96
1, 220421, Note_on_c, 0, 82, 111
1, 220793, Note_off_c, 0, 82, 111
1, 220819, Note_on_c, 0, 81, 114
1, 221140, Note_off_c, 0, 81, 114
1, 221226, Note_on_c, 0, 80, 115
1, 221620, Note_on_c, 0, 79, 114
1, 221620, Note_off_c, 0, 80, 115
1, 221865, Note_off_c, 0, 79, 114
1, 221871, Note_on_c, 0, 78, 107
1, 221944, Note_off_c, 0, 78, 107
1, 222010, Note_on_c, 0, 77, 114
1, 222384, Note_off_c, 0, 77, 114
1, 222399, Note_on_c, 0, 76, 115
1, 222775, Note_off_c, 0, 76, 115
1, 222830, Note_on_c, 0, 75, 110
1, 223261, Note_off_c, 0, 75, 110
1, 223336, Note_on_c, 0, 74, 103
1, 223559, Note_off_c, 0, 74, 103
1, 223587, Note_on_c, 0, 71, 105
1, 224140, Note_off_c, 0, 71, 105
1, 224171, Note_on_c, 0, 73, 113
1, 224525, Note_off_c, 0, 73, 113
1, 224963, Note_on_c, 0, 75, 106
1, 225106, Note_off_c, 0, 75, 106
1, 225106, Note_on_c, 0, 74, 115
1, 225221, Note_off_c, 0, 74, 115
1, 225227, Note_on_c, 0, 73, 109
1, 225375, Note_off_c, 0, 73, 109
1, 225379, Note_on_c, 0, 70, 112
1, 225784, Note_off_c, 0, 70, 112
1, 225837, Note_on_c, 0, 68, 110
1, 226134, Note_off_c, 0, 68, 110
1, 226159, Note_on_c, 0, 66, 107
1, 226664, Note_off_c, 0, 66, 107
1, 226690, Note_on_c, 0, 65, 110
1, 226937, Note_off_c, 0, 65, 110
1, 226968, Note_on_c, 0, 64, 89
1, 227443, Note_off_c, 0, 64, 89
1, 227596, Note_on_c, 0, 66, 106
1, 227792, Note_off_c, 0, 66, 106
1, 227853, Note_on_c, 0, 68, 107
1, 228369, Note_off_c, 0, 68, 107
1, 228411, Note_on_c, 0, 71, 114
1, 228768, Note_off_c, 0, 71, 114
1, 230074, Note_on_c, 0, 71, 100
1, 230275, Note_off_c, 0, 71, 100
1, 230301, Note_on_c, 0, 72, 114
1, 230839, Note_off_c, 0, 72, 114
1, 230911, Note_on_c, 0, 69, 106
1, 231133, Note_off_c, 0, 69, 106
1, 231888, Note_on_c, 0, 74, 116
1, 232078, Note_off_c, 0, 74, 116
1, 232078, Note_on_c, 0, 72, 108
1, 232197, Note_off_c, 0, 72, 108
1, 232203, Note_on_c, 0, 69, 117
1, 232623, Note_off_c, 0, 69, 117
1, 233544, Note_on_c, 0, 67, 117
1, 233868, Note_off_c, 0, 67, 117
1, 233899, Note_on_c, 0, 65, 115
1, 234259, Note_off_c, 0, 65, 115
1, 234277, Note_on_c, 0, 64, 115
1, 234602, Note_off_c, 0, 64, 115
1, 234693, Note_on_c, 0, 63, 110
1, 235072, Note_off_c, 0, 63, 110
1, 235083, Note_on_c, 0, 65, 115
1, 235355, Note_off_c, 0, 65, 115
1, 235430, Note_on_c, 0, 67, 107
1, 235976, Note_off_c, 0, 67, 107
1, 236031, Note_on_c, 0, 70, 99
1, 236180, Note_off_c, 0, 70, 99
1, 236241, Note_on_c, 0, 74, 119
1, 236787, Note_off_c, 0, 74, 119
1, 236794, Note_on_c, 0, 72, 113
1, 237929, Note_off_c, 0, 72, 113
1, 237986, Note_on_c, 0, 69, 115
1, 238459, Note_off_c, 0, 69, 115
1, 238459, Note_on_c, 0, 73, 116
1, 238711, Note_off_c, 0, 73, 116
1, 238757, Note_on_c, 0, 74, 118
1, 239171, Note_off_c, 0, 74, 118
1, 239197, Note_on_c, 0, 74, 117
1, 239562, Note_off_c, 0, 74, 117
1, 239581, Note_on_c, 0, 71, 108
1, 240021, Note_off_c, 0, 71, 108
1, 240080, Note_on_c, 0, 74, 112
1, 240339, Note_off_c, 0, 74, 112
1, 240361, Note_on_c, 0, 76, 110
1, 240821, Note_off_c, 0, 76, 110
1, 240847, Note_on_c, 0, 76, 108
1, 241088, Note_off_c, 0, 76, 108
1, 241107, Note_on_c, 0, 73, 104
1, 241638, Note_off_c, 0, 73, 104
1, 241686, Note_on_c, 0, 76, 95
1, 241894, Note_off_c, 0, 76, 95
1, 241920, Note_on_c, 0, 78, 115
1, 242466, Note_off_c, 0, 78, 115
1, 242510, Note_on_c, 0, 75, 104
1, 242693, Note_off_c, 0, 75, 104
1, 243585, Note_on_c, 0, 79, 112
1, 244275, Note_off_c, 0, 79, 112
1, 244312, Note_on_c, 0, 76, 108
1, 244872, Note_off_c, 0, 76, 108
1, 244872, Note_on_c, 0, 71, 97
1, 248184, Note_off_c, 0, 71, 97
1, 248184, End_track
0, 0, End_of_file
