0, 0, Header, 1, 1, 192
1, 0, Start_track
1, 0, Title_t, "Melody"
1, 0, Tempo, 281690
1, 0, Key_signature, 0, "major"
1, 0, Time_signature, 4, 2, 24, 8
1, 3995, Note_on_c, 0, 70, 107
1, 4109, Note_off_c, 0, 70, 107
1, 4116, Note_on_c, 0, 68, 100
1, 4381, Note_off_c, 0, 68, 100
1, 4472, Note_on_c, 0, 67, 102
1, 4741, Note_off_c, 0, 67, 102
1, 4752, Note_on_c, 0, 69, 109
1, 4839, Note_off_c, 0, 69, 109
1, 4842, Note_on_c, 0, 67, 102
1, 4921, Note_off_c, 0, 67, 102
1, 4932, Note_on_c, 0, 68, 97
1, 4967, Note_off_c, 0, 68, 97
1, 4982, Note_on_c, 0, 65, 96
1, 5029, Note_off_c, 0, 65, 96
1, 5048, Note_on_c, 0, 64, 102
1, 5099, Note_off_c, 0, 64, 102
1, 5134, Note_on_c, 0, 65, 104
1, 5205, Note_off_c, 0, 65, 104
1, 5220, Note_on_c, 0, 67, 107
1, 5318, Note_off_c, 0, 67, 107
1, 5405, Note_on_c, 0, 76, 116
1, 5776, Note_off_c, 0, 76, 116
1, 5815, Note_on_c, 0, 74, 99
1, 5909, Note_off_c, 0, 74, 99
1, 5924, Note_on_c, 0, 76, 114
1, 5971, Note_off_c, 0, 76, 114
1, 5986, Note_on_c, 0, 74, 118
1, 6041, Note_off_c, 0, 74, 118
1, 6044, Note_on_c, 0, 72, 102
1, 6142, Note_off_c, 0, 72, 102
1, 6209, Note_on_c, 0, 70, 105
1, 6284, Note_off_c, 0, 70, 105
1, 6311, Note_on_c, 0, 73, 93
1, 6358, Note_off_c, 0, 73, 93
1, 6365, Note_on_c, 0, 70, 105
1, 6388, Note_off_c, 0, 70, 105
1, 6391, Note_on_c, 0, 68, 108
1, 6517, Note_off_c, 0, 68, 108
1, 6600, Note_on_c, 0, 67, 116
1, 6679, Note_off_c, 0, 67, 116
1, 6694, Note_on_c, 0, 68, 100
1, 6733, Note_off_c, 0, 68, 100
1, 6748, Note_on_c, 0, 67, 111
1, 6791, Note_off_c, 0, 67, 111
1, 6826, Note_on_c, 0, 65, 108
1, 6940, Note_off_c, 0, 65, 108
1, 7209, Note_on_c, 0, 70, 119
1, 7292, Note_off_c, 0, 70, 119
1, 7303, Note_on_c, 0, 69, 118
1, 7397, Note_off_c, 0, 69, 118
1, 7397, Note_on_c, 0, 68, 117
1, 7464, Note_off_c, 0, 68, 117
1, 7483, Note_on_c, 0, 70, 122
1, 7514, Note_off_c, 0, 70, 122
1, 7521, Note_on_c, 0, 68, 109
1, 7580, Note_off_c, 0, 68, 109
1, 7580, Note_on_c, 0, 67, 113
1, 7671, Note_off_c, 0, 67, 113
1, 7706, Note_on_c, 0, 65, 118
1, 7777, Note_off_c, 0, 65, 118
1, 8093, Note_on_c, 0, 67, 112
1, 8180, Note_off_c, 0, 67, 112
1, 8195, Note_on_c, 0, 69, 115
1, 8254, Note_off_c, 0, 69, 115
1, 8269, Note_on_c, 0, 71, 101
1, 8348, Note_off_c, 0, 71, 101
1, 8367, Note_on_c, 0, 74, 124
1, 8477, Note_off_c, 0, 74, 124
1, 8496, Note_on_c, 0, 71, 99
1, 8555, Note_off_c, 0, 71, 99
1, 8570, Note_on_c, 0, 73, 124
1, 8657, Note_off_c, 0, 73, 124
1, 8680, Note_on_c, 0, 71, 115
1, 8743, Note_off_c, 0, 71, 115
1, 8758, Note_on_c, 0, 72, 113
1, 8829, Note_off_c, 0, 72, 113
1, 8868, Note_on_c, 0, 67, 109
1, 8962, Note_off_c, 0, 67, 109
1, 9262, Note_on_c, 0, 62, 94
1, 9293, Note_off_c, 0, 62, 94
1, 9330, Note_on_c, 0, 64, 94
1, 9389, Note_off_c, 0, 64, 94
1, 9422, Note_on_c, 0, 69, 119
1, 9481, Note_off_c, 0, 69, 119
1, 9520, Note_on_c, 0, 68, 122
1, 9599, Note_off_c, 0, 68, 122
1, 9610, Note_on_c, 0, 71, 85
1, 9645, Note_off_c, 0, 71, 85
1, 9654, Note_on_c, 0, 70, 122
1, 9699, Note_off_c, 0, 70, 122
1, 9726, Note_on_c, 0, 78, 116
1, 9785, Note_off_c, 0, 78, 116
1, 9792, Note_on_c, 0, 80, 126
1, 9859, Note_off_c, 0, 80, 126
1, 9874, Note_on_c, 0, 79, 123
1, 9957, Note_off_c, 0, 79, 123
1, 9969, Note_on_c, 0, 78, 123
1, 10016, Note_off_c, 0, 78, 123
1, 10016, Note_on_c, 0, 77, 124
1, 10071, Note_off_c, 0, 77, 124
1, 10087, Note_on_c, 0, 75, 119
1, 10164, Note_off_c, 0, 75, 119
1, 10172, Note_on_c, 0, 74, 119
1, 10261, Note_off_c, 0, 74, 119
1, 10261, Note_on_c, 0, 73, 120
1, 10363, Note_off_c, 0, 73, 120
1, 10368, Note_on_c, 0, 75, 108
1, 10454, Note_off_c, 0, 75, 108
1, 10456, Note_on_c, 0, 72, 116
1, 10550, Note_off_c, 0, 72, 116
1, 10550, Note_on_c, 0, 70, 117
1, 10639, Note_off_c, 0, 70, 117
1, 10644, Note_on_c, 0, 68, 113
1, 10733, Note_off_c, 0, 68, 113
1, 10752, Note_on_c, 0, 64, 107
1, 10849, Note_off_c, 0, 64, 107
1, 11068, Note_on_c, 0, 63, 103
1, 11126, Note_off_c, 0, 63, 103
1, 11145, Note_on_c, 0, 65, 112
1, 11214, Note_off_c, 0, 65, 112
1, 11225, Note_on_c, 0, 67, 91
1, 11314, Note_off_c, 0, 67, 91
1, 11327, Note_on_c, 0, 68, 103
1, 11402, Note_off_c, 0, 68, 103
1, 11424, Note_on_c, 0, 70, 109
1, 11518, Note_off_c, 0, 70, 109
1, 11526, Note_on_c, 0, 68, 94
1, 11592, Note_off_c, 0, 68, 94
1, 11617, Note_on_c, 0, 67, 99
1, 11672, Note_off_c, 0, 67, 99
1, 11680, Note_on_c, 0, 70, 112
1, 11771, Note_off_c, 0, 70, 112
1, 11801, Note_on_c, 0, 72, 95
1, 11945, Note_off_c, 0, 72, 95
1, 11964, Note_on_c, 0, 75, 111
1, 12069, Note_off_c, 0, 75, 111
1, 12085, Note_on_c, 0, 77, 127
1, 12143, Note_off_c, 0, 77, 127
1, 12168, Note_on_c, 0, 74, 119
1, 12257, Note_off_c, 0, 74, 119
1, 12284, Note_on_c, 0, 71, 106
1, 12342, Note_off_c, 0, 71, 106
1, 12355, Note_on_c, 0, 72, 114
1, 12435, Note_off_c, 0, 72, 114
1, 12448, Note_on_c, 0, 74, 111
1, 12506, Note_off_c, 0, 74, 111
1, 12508, Note_on_c, 0, 72, 118
1, 12563, Note_off_c, 0, 72, 118
1, 12571, Note_on_c, 0, 71, 105
1, 12651, Note_off_c, 0, 71, 105
1, 12653, Note_on_c, 0, 69, 104
1, 12769, Note_off_c, 0, 69, 104
1, 12777, Note_on_c, 0, 68, 93
1, 12835, Note_off_c, 0, 68, 93
1, 12835, Note_on_c, 0, 71, 117
1, 12926, Note_off_c, 0, 71, 117
1, 13123, Note_on_c, 0, 67, 103
1, 13223, Note_off_c, 0, 67, 103
1, 13223, Note_on_c, 0, 64, 108
1, 13300, Note_off_c, 0, 64, 108
1, 13313, Note_on_c, 0, 66, 103
1, 13390, Note_off_c, 0, 66, 103
1, 13409, Note_on_c, 0, 64, 103
1, 13506, Note_off_c, 0, 64, 103
1, 13514, Note_on_c, 0, 65, 104
1, 13566, Note_off_c, 0, 65, 104
1, 13571, Note_on_c, 0, 63, 108
1, 13662, Note_off_c, 0, 63, 108
1, 13675, Note_on_c, 0, 62, 99
1, 13764, Note_off_c, 0, 62, 99
1, 13791, Note_on_c, 0, 64, 105
1, 13866, Note_off_c, 0, 64, 105
1, 13868, Note_on_c, 0, 65, 99
1, 13957, Note_off_c, 0, 65, 99
1, 13987, Note_on_c, 0, 67, 104
1, 14045, Note_off_c, 0, 67, 104
1, 14067, Note_on_c, 0, 69, 106
1, 14156, Note_off_c, 0, 69, 106
1, 14194, Note_on_c, 0, 74, 89
1, 14229, Note_off_c, 0, 74, 89
1, 14235, Note_on_c, 0, 76, 92
1, 14368, Note_off_c, 0, 76, 92
1, 14390, Note_on_c, 0, 74, 118
1, 14531, Note_off_c, 0, 74, 118
1, 14569, Note_on_c, 0, 74, 114
1, 14646, Note_off_c, 0, 74, 114
1, 14657, Note_on_c, 0, 72, 119
1, 14740, Note_off_c, 0, 72, 119
1, 14740, Note_on_c, 0, 74, 110
1, 14803, Note_off_c, 0, 74, 110
1, 14805, Note_on_c, 0, 72, 120
1, 14855, Note_off_c, 0, 72, 120
1, 14868, Note_on_c, 0, 71, 110
1, 14934, Note_off_c, 0, 71, 110
1, 14945, Note_on_c, 0, 68, 118
1, 15036, Note_on_c, 0, 67, 106
1, 15036, Note_off_c, 0, 68, 118
1, 15125, Note_off_c, 0, 67, 106
1, 15147, Note_on_c, 0, 65, 105
1, 15222, Note_off_c, 0, 65, 105
1, 15244, Note_on_c, 0, 64, 101
1, 15352, Note_off_c, 0, 64, 101
1, 16804, Note_on_c, 0, 67, 109
1, 16845, Note_off_c, 0, 67, 109
1, 16867, Note_on_c, 0, 69, 112
1, 16903, Note_off_c, 0, 69, 112
1, 16930, Note_on_c, 0, 72, 105
1, 16974, Note_off_c, 0, 72, 105
1, 16990, Note_on_c, 0, 74, 121
1, 17120, Note_off_c, 0, 74, 121
1, 17136, Note_on_c, 0, 72, 110
1, 17361, Note_off_c, 0, 72, 110
1, 17405, Note_on_c, 0, 69, 111
1, 17494, Note_off_c, 0, 69, 111
1, 17502, Note_on_c, 0, 67, 100
1, 17568, Note_off_c, 0, 67, 100
1, 17593, Note_on_c, 0, 75, 105
1, 17640, Note_off_c, 0, 75, 105
1, 17653, Note_on_c, 0, 76, 121
1, 17792, Note_off_c, 0, 76, 121
1, 17792, Note_on_c, 0, 79, 125
1, 17978, Note_off_c, 0, 79, 125
1, 18520, Note_on_c, 0, 77, 117
1, 18634, Note_off_c, 0, 77, 117
1, 18636, Note_on_c, 0, 76, 116
1, 18719, Note_off_c, 0, 76, 116
1, 18724, Note_on_c, 0, 74, 113
1, 18815, Note_off_c, 0, 74, 113
1, 18834, Note_on_c, 0, 73, 109
1, 18923, Note_off_c, 0, 73, 109
1, 18928, Note_on_c, 0, 72, 101
1, 19008, Note_off_c, 0, 72, 101
1, 19019, Note_on_c, 0, 71, 90
1, 19099, Note_off_c, 0, 71, 90
1, 19124, Note_on_c, 0, 70, 101
1, 19190, Note_off_c, 0, 70, 101
1, 19206, Note_on_c, 0, 69, 98
1, 19283, Note_off_c, 0, 69, 98
1, 19285, Note_on_c, 0, 68, 102
1, 19376, Note_off_c, 0, 68, 102
1, 19392, Note_on_c, 0, 70, 115
1, 19425, Note_off_c, 0, 70, 115
1, 19425, Note_on_c, 0, 68, 98
1, 19511, Note_off_c, 0, 68, 98
1, 19516, Note_on_c, 0, 67, 100
1, 19599, Note_off_c, 0, 67, 100
1, 19599, Note_on_c, 0, 65, 108
1, 19679, Note_off_c, 0, 65, 108
1, 19698, Note_on_c, 0, 62, 86
1, 19745, Note_off_c, 0, 62, 86
1, 19781, Note_on_c, 0, 63, 95
1, 19847, Note_off_c, 0, 63, 95
1, 19860, Note_on_c, 0, 64, 101
1, 19932, Note_off_c, 0, 64, 101
1, 19979, Note_on_c, 0, 67, 101
1, 20051, Note_off_c, 0, 67, 101
1, 20053, Note_on_c, 0, 69, 97
1, 20111, Note_off_c, 0, 69, 97
1, 20155, Note_on_c, 0, 71, 85
1, 20238, Note_off_c, 0, 71, 85
1, 20240, Note_on_c, 0, 74, 116
1, 20359, Note_off_c, 0, 74, 116
1, 20367, Note_on_c, 0, 71, 93
1, 20422, Note_off_c, 0, 71, 93
1, 20435, Note_on_c, 0, 73, 111
1, 20551, Note_off_c, 0, 73, 111
1, 20556, Note_on_c, 0, 71, 98
1, 20606, Note_off_c, 0, 71, 98
1, 20628, Note_on_c, 0, 72, 103
1, 20736, Note_off_c, 0, 72, 103
1, 20761, Note_on_c, 0, 67, 104
1, 20883, Note_off_c, 0, 67, 104
1, 21392, Note_on_c, 0, 76, 115
1, 21453, Note_off_c, 0, 76, 115
1, 21464, Note_on_c, 0, 78, 106
1, 21519, Note_off_c, 0, 78, 106
1, 21519, Note_on_c, 0, 76, 105
1, 21599, Note_off_c, 0, 76, 105
1, 21621, Note_on_c, 0, 74, 108
1, 21676, Note_off_c, 0, 74, 108
1, 21676, Note_on_c, 0, 76, 104
1, 21709, Note_off_c, 0, 76, 104
1, 21722, Note_on_c, 0, 74, 111
1, 21791, Note_off_c, 0, 74, 111
1, 21791, Note_on_c, 0, 73, 110
1, 21841, Note_off_c, 0, 73, 110
1, 21846, Note_on_c, 0, 74, 105
1, 21896, Note_off_c, 0, 74, 105
1, 21918, Note_on_c, 0, 73, 112
1, 21987, Note_off_c, 0, 73, 112
1, 21992, Note_on_c, 0, 71, 110
1, 22030, Note_off_c, 0, 71, 110
1, 22049, Note_on_c, 0, 73, 110
1, 22085, Note_off_c, 0, 73, 110
1, 22098, Note_on_c, 0, 71, 106
1, 22159, Note_off_c, 0, 71, 106
1, 22181, Note_on_c, 0, 70, 109
1, 22231, Note_off_c, 0, 70, 109
1, 22250, Note_on_c, 0, 72, 98
1, 22286, Note_off_c, 0, 72, 98
1, 22308, Note_on_c, 0, 70, 111
1, 22355, Note_off_c, 0, 70, 111
1, 22388, Note_on_c, 0, 68, 110
1, 22438, Note_off_c, 0, 68, 110
1, 22451, Note_on_c, 0, 70, 109
1, 22501, Note_off_c, 0, 70, 109
1, 22509, Note_on_c, 0, 68, 110
1, 22556, Note_off_c, 0, 68, 110
1, 22561, Note_on_c, 0, 67, 108
1, 22611, Note_off_c, 0, 67, 108
1, 22611, Note_on_c, 0, 68, 111
1, 22655, Note_off_c, 0, 68, 111
1, 22663, Note_on_c, 0, 67, 109
1, 22718, Note_off_c, 0, 67, 109
1, 22737, Note_on_c, 0, 65, 106
1, 22792, Note_off_c, 0, 65, 106
1, 22800, Note_on_c, 0, 67, 102
1, 22847, Note_off_c, 0, 67, 102
1, 22855, Note_on_c, 0, 65, 109
1, 22924, Note_off_c, 0, 65, 109
1, 22935, Note_on_c, 0, 63, 106
1, 23001, Note_off_c, 0, 63, 106
1, 23051, Note_on_c, 0, 65, 109
1, 23117, Note_off_c, 0, 65, 109
1, 23144, Note_on_c, 0, 67, 91
1, 23202, Note_off_c, 0, 67, 91
1, 23227, Note_on_c, 0, 68, 98
1, 23307, Note_off_c, 0, 68, 98
1, 23320, Note_on_c, 0, 70, 109
1, 23428, Note_off_c, 0, 70, 109
1, 23433, Note_on_c, 0, 67, 98
1, 23483, Note_off_c, 0, 67, 98
1, 23510, Note_on_c, 0, 68, 96
1, 23582, Note_off_c, 0, 68, 96
1, 23615, Note_on_c, 0, 70, 113
1, 23717, Note_off_c, 0, 70, 113
1, 23742, Note_on_c, 0, 72, 99
1, 23856, Note_off_c, 0, 72, 99
1, 23894, Note_on_c, 0, 77, 117
1, 24005, Note_off_c, 0, 77, 117
1, 24007, Note_on_c, 0, 76, 114
1, 24093, Note_off_c, 0, 76, 114
1, 24101, Note_on_c, 0, 75, 111
1, 24198, Note_off_c, 0, 75, 111
1, 24206, Note_on_c, 0, 73, 113
1, 24292, Note_off_c, 0, 73, 113
1, 24305, Note_on_c, 0, 72, 102
1, 24388, Note_off_c, 0, 72, 102
1, 24413, Note_on_c, 0, 70, 108
1, 24482, Note_off_c, 0, 70, 108
1, 24493, Note_on_c, 0, 69, 103
1, 24584, Note_off_c, 0, 69, 103
1, 24603, Note_on_c, 0, 71, 89
1, 24683, Note_off_c, 0, 71, 89
1, 24691, Note_on_c, 0, 72, 105
1, 24766, Note_off_c, 0, 72, 105
1, 24796, Note_on_c, 0, 77, 107
1, 24854, Note_off_c, 0, 77, 107
1, 24867, Note_on_c, 0, 76, 107
1, 24967, Note_off_c, 0, 76, 107
1, 24983, Note_on_c, 0, 79, 103
1, 25063, Note_off_c, 0, 79, 103
1, 25074, Note_on_c, 0, 76, 118
1, 25157, Note_off_c, 0, 76, 118
1, 25168, Note_on_c, 0, 75, 115
1, 25270, Note_off_c, 0, 75, 115
1, 25270, Note_on_c, 0, 74, 111
1, 25350, Note_off_c, 0, 74, 111
1, 25363, Note_on_c, 0, 73, 114
1, 25438, Note_off_c, 0, 73, 114
1, 25468, Note_on_c, 0, 72, 100
1, 25554, Note_off_c, 0, 72, 100
1, 25559, Note_on_c, 0, 71, 107
1, 25628, Note_off_c, 0, 71, 107
1, 25658, Note_on_c, 0, 69, 96
1, 25758, Note_off_c, 0, 69, 96
1, 25758, Note_on_c, 0, 67, 106
1, 25841, Note_off_c, 0, 67, 106
1, 25843, Note_on_c, 0, 66, 94
1, 25945, Note_off_c, 0, 66, 94
1, 25958, Note_on_c, 0, 64, 95
1, 26033, Note_off_c, 0, 64, 95
1, 26060, Note_on_c, 0, 65, 95
1, 26143, Note_off_c, 0, 65, 95
1, 26145, Note_on_c, 0, 69, 107
1, 26231, Note_off_c, 0, 69, 107
1, 26242, Note_on_c, 0, 72, 93
1, 26328, Note_off_c, 0, 72, 93
1, 26355, Note_on_c, 0, 76, 109
1, 26418, Note_off_c, 0, 76, 109
1, 26429, Note_on_c, 0, 79, 113
1, 26506, Note_off_c, 0, 79, 113
1, 26522, Note_on_c, 0, 78, 116
1, 26608, Note_off_c, 0, 78, 116
1, 26613, Note_on_c, 0, 77, 105
1, 26685, Note_off_c, 0, 77, 105
1, 26696, Note_on_c, 0, 76, 109
1, 26807, Note_off_c, 0, 76, 109
1, 26815, Note_on_c, 0, 74, 98
1, 26890, Note_off_c, 0, 74, 98
1, 26896, Note_on_c, 0, 73, 111
1, 27016, Note_off_c, 0, 73, 111
1, 27100, Note_on_c, 0, 71, 105
1, 27169, Note_off_c, 0, 71, 105
1, 27207, Note_on_c, 0, 70, 95
1, 27273, Note_off_c, 0, 70, 95
1, 27286, Note_on_c, 0, 69, 100
1, 27344, Note_off_c, 0, 69, 100
1, 27374, Note_on_c, 0, 68, 102
1, 27451, Note_off_c, 0, 68, 102
1, 27673, Note_on_c, 0, 72, 88
1, 27756, Note_off_c, 0, 72, 88
1, 27779, Note_on_c, 0, 77, 93
1, 27837, Note_off_c, 0, 77, 93
1, 27858, Note_on_c, 0, 79, 111
1, 27933, Note_off_c, 0, 79, 111
1, 27952, Note_on_c, 0, 77, 103
1, 28035, Note_off_c, 0, 77, 103
1, 28054, Note_on_c, 0, 73, 115
1, 28129, Note_off_c, 0, 73, 115
1, 28148, Note_on_c, 0, 70, 106
1, 28214, Note_off_c, 0, 70, 106
1, 28233, Note_on_c, 0, 67, 88
1, 28299, Note_off_c, 0, 67, 88
1, 28312, Note_on_c, 0, 75, 115
1, 28423, Note_off_c, 0, 75, 115
1, 28434, Note_on_c, 0, 72, 109
1, 28511, Note_off_c, 0, 72, 109
1, 28530, Note_on_c, 0, 67, 99
1, 28627, Note_off_c, 0, 67, 99
1, 28696, Note_on_c, 0, 70, 116
1, 28790, Note_off_c, 0, 70, 116
1, 28820, Note_on_c, 0, 68, 108
1, 28900, Note_off_c, 0, 68, 108
1, 28925, Note_on_c, 0, 65, 94
1, 29000, Note_off_c, 0, 65, 94
1, 29094, Note_on_c, 0, 67, 108
1, 29171, Note_off_c, 0, 67, 108
1, 29212, Note_on_c, 0, 65, 110
1, 29278, Note_off_c, 0, 65, 110
1, 29294, Note_on_c, 0, 64, 91
1, 29344, Note_off_c, 0, 64, 91
1, 29352, Note_on_c, 0, 63, 94
1, 29452, Note_off_c, 0, 63, 94
1, 29479, Note_on_c, 0, 64, 105
1, 29540, Note_off_c, 0, 64, 105
1, 29551, Note_on_c, 0, 66, 97
1, 29589, Note_off_c, 0, 66, 97
1, 29611, Note_on_c, 0, 67, 105
1, 29677, Note_off_c, 0, 67, 105
1, 29702, Note_on_c, 0, 69, 108
1, 29771, Note_off_c, 0, 69, 108
1, 29801, Note_on_c, 0, 71, 108
1, 29876, Note_off_c, 0, 71, 108
1, 29898, Note_on_c, 0, 74, 119
1, 30003, Note_off_c, 0, 74, 119
1, 30005, Note_on_c, 0, 71, 103
1, 30068, Note_off_c, 0, 71, 103
1, 30087, Note_on_c, 0, 74, 110
1, 30139, Note_off_c, 0, 74, 110
1, 30155, Note_on_c, 0, 73, 104
1, 30205, Note_off_c, 0, 73, 104
1, 30207, Note_on_c, 0, 71, 110
1, 30259, Note_off_c, 0, 71, 110
1, 30297, Note_on_c, 0, 72, 108
1, 30369, Note_off_c, 0, 72, 108
1, 30391, Note_on_c, 0, 67, 100
1, 30499, Note_off_c, 0, 67, 100
1, 30624, Note_on_c, 0, 69, 115
1, 30662, Note_off_c, 0, 69, 115
1, 30675, Note_on_c, 0, 70, 106
1, 30844, Note_off_c, 0, 70, 106
1, 30844, Note_on_c, 0, 68, 106
1, 30952, Note_off_c, 0, 68, 106
1, 31038, Note_on_c, 0, 63, 101
1, 31213, Note_off_c, 0, 63, 101
1, 32108, Note_on_c, 0, 70, 108
1, 32152, Note_off_c, 0, 70, 108
1, 32168, Note_on_c, 0, 68, 122
1, 32234, Note_off_c, 0, 68, 122
1, 32236, Note_on_c, 0, 67, 119
1, 32308, Note_off_c, 0, 67, 119
1, 32316, Note_on_c, 0, 65, 114
1, 32396, Note_off_c, 0, 65, 114
1, 32396, Note_on_c, 0, 64, 96
1, 32485, Note_off_c, 0, 64, 96
1, 32504, Note_on_c, 0, 63, 95
1, 32565, Note_off_c, 0, 63, 95
1, 32603, Note_on_c, 0, 64, 104
1, 32683, Note_off_c, 0, 64, 104
1, 32683, Note_on_c, 0, 69, 101
1, 32727, Note_off_c, 0, 69, 101
1, 32732, Note_on_c, 0, 67, 104
1, 32812, Note_off_c, 0, 67, 104
1, 32812, Note_on_c, 0, 69, 106
1, 32889, Note_off_c, 0, 69, 106
1, 32894, Note_on_c, 0, 71, 100
1, 32974, Note_off_c, 0, 71, 100
1, 32974, Note_on_c, 0, 74, 121
1, 33088, Note_off_c, 0, 74, 121
1, 33090, Note_on_c, 0, 71, 105
1, 33156, Note_off_c, 0, 71, 105
1, 33158, Note_on_c, 0, 73, 121
1, 33269, Note_off_c, 0, 73, 121
1, 33282, Note_on_c, 0, 71, 94
1, 33365, Note_off_c, 0, 71, 94
1, 33378, Note_on_c, 0, 72, 110
1, 33467, Note_off_c, 0, 72, 110
1, 33478, Note_on_c, 0, 67, 108
1, 33592, Note_off_c, 0, 67, 108
1, 33889, Note_on_c, 0, 71, 113
1, 33939, Note_off_c, 0, 71, 113
1, 33964, Note_on_c, 0, 74, 111
1, 34035, Note_off_c, 0, 74, 111
1, 34038, Note_on_c, 0, 76, 111
1, 34068, Note_off_c, 0, 76, 111
1, 34071, Note_on_c, 0, 78, 98
1, 34093, Note_off_c, 0, 78, 98
1, 34098, Note_on_c, 0, 81, 124
1, 34159, Note_off_c, 0, 81, 124
1, 34172, Note_on_c, 0, 80, 117
1, 34277, Note_off_c, 0, 80, 117
1, 34393, Note_on_c, 0, 69, 116
1, 34465, Note_off_c, 0, 69, 116
1, 34476, Note_on_c, 0, 70, 110
1, 34723, Note_off_c, 0, 70, 110
1, 34792, Note_on_c, 0, 80, 121
1, 34906, Note_off_c, 0, 80, 121
1, 34906, Note_on_c, 0, 79, 112
1, 34995, Note_off_c, 0, 79, 112
1, 35000, Note_on_c, 0, 77, 123
1, 35100, Note_off_c, 0, 77, 123
1, 35113, Note_on_c, 0, 78, 115
1, 35174, Note_off_c, 0, 78, 115
1, 35182, Note_on_c, 0, 76, 121
1, 35276, Note_off_c, 0, 76, 121
1, 35289, Note_on_c, 0, 75, 108
1, 35378, Note_off_c, 0, 75, 108
1, 35391, Note_on_c, 0, 73, 117
1, 35466, Note_off_c, 0, 73, 117
1, 35479, Note_on_c, 0, 70, 104
1, 35559, Note_off_c, 0, 70, 104
1, 35561, Note_on_c, 0, 71, 94
1, 35636, Note_off_c, 0, 71, 94
1, 35649, Note_on_c, 0, 72, 89
1, 35738, Note_off_c, 0, 72, 89
1, 35788, Note_on_c, 0, 63, 95
1, 35865, Note_off_c, 0, 63, 95
1, 35873, Note_on_c, 0, 65, 94
1, 35964, Note_off_c, 0, 65, 94
1, 35991, Note_on_c, 0, 67, 94
1, 36043, Note_off_c, 0, 67, 94
1, 36059, Note_on_c, 0, 70, 104
1, 36153, Note_on_c, 0, 67, 94
1, 36153, Note_off_c, 0, 70, 104
1, 36247, Note_off_c, 0, 67, 94
1, 36247, Note_on_c, 0, 68, 89
1, 36327, Note_off_c, 0, 68, 89
1, 36343, Note_on_c, 0, 70, 115
1, 36437, Note_off_c, 0, 70, 115
1, 36437, Note_on_c, 0, 71, 87
1, 36514, Note_off_c, 0, 71, 87
1, 36527, Note_on_c, 0, 73, 91
1, 36599, Note_off_c, 0, 73, 91
1, 36599, Note_on_c, 0, 75, 111
1, 36715, Note_off_c, 0, 75, 111
1, 36723, Note_on_c, 0, 73, 98
1, 36792, Note_off_c, 0, 73, 98
1, 36811, Note_on_c, 0, 74, 113
1, 36911, Note_off_c, 0, 74, 113
1, 36911, Note_on_c, 0, 71, 98
1, 36974, Note_off_c, 0, 71, 98
1, 36985, Note_on_c, 0, 72, 104
1, 37087, Note_off_c, 0, 72, 104
1, 37095, Note_on_c, 0, 70, 114
1, 37156, Note_off_c, 0, 70, 114
1, 37186, Note_on_c, 0, 71, 103
1, 37269, Note_off_c, 0, 71, 103
1, 37296, Note_on_c, 0, 68, 104
1, 37365, Note_off_c, 0, 68, 104
1, 37376, Note_on_c, 0, 69, 100
1, 37470, Note_off_c, 0, 69, 100
1, 37923, Note_on_c, 0, 76, 118
1, 37992, Note_off_c, 0, 76, 118
1, 38008, Note_on_c, 0, 74, 108
1, 38049, Note_off_c, 0, 74, 108
1, 38049, Note_on_c, 0, 71, 104
1, 38101, Note_off_c, 0, 71, 104
1, 38123, Note_on_c, 0, 69, 102
1, 38195, Note_off_c, 0, 69, 102
1, 38236, Note_on_c, 0, 65, 110
1, 38302, Note_off_c, 0, 65, 110
1, 38310, Note_on_c, 0, 62, 90
1, 38382, Note_off_c, 0, 62, 90
1, 38395, Note_on_c, 0, 64, 98
1, 38486, Note_off_c, 0, 64, 98
1, 38491, Note_on_c, 0, 65, 110
1, 38591, Note_off_c, 0, 65, 110
1, 38610, Note_on_c, 0, 67, 99
1, 38682, Note_off_c, 0, 67, 99
1, 38687, Note_on_c, 0, 69, 113
1, 38776, Note_off_c, 0, 69, 113
1, 38859, Note_on_c, 0, 76, 117
1, 39000, Note_off_c, 0, 76, 117
1, 39011, Note_on_c, 0, 74, 111
1, 39269, Note_off_c, 0, 74, 111
1, 39310, Note_on_c, 0, 72, 112
1, 39357, Note_off_c, 0, 72, 112
1, 39365, Note_on_c, 0, 74, 95
1, 39420, Note_on_c, 0, 72, 112
1, 39420, Note_off_c, 0, 74, 95
1, 39489, Note_off_c, 0, 72, 112
1, 39494, Note_on_c, 0, 71, 112
1, 39560, Note_off_c, 0, 71, 112
1, 39579, Note_on_c, 0, 68, 113
1, 39654, Note_off_c, 0, 68, 113
1, 39665, Note_on_c, 0, 67, 104
1, 39742, Note_off_c, 0, 67, 104
1, 39742, Note_on_c, 0, 65, 110
1, 39842, Note_off_c, 0, 65, 110
1, 39872, Note_on_c, 0, 64, 108
1, 39958, Note_off_c, 0, 64, 108
1, 40008, Note_on_c, 0, 64, 102
1, 40250, Note_off_c, 0, 64, 102
1, 41282, Note_on_c, 0, 62, 117
1, 41340, Note_off_c, 0, 62, 117
1, 41351, Note_on_c, 0, 64, 118
1, 41504, Note_off_c, 0, 64, 118
1, 41520, Note_on_c, 0, 67, 116
1, 41647, Note_off_c, 0, 67, 116
1, 41660, Note_on_c, 0, 71, 120
1, 41801, Note_off_c, 0, 71, 120
1, 41823, Note_on_c, 0, 74, 120
1, 41945, Note_off_c, 0, 74, 120
1, 41986, Note_on_c, 0, 73, 118
1, 42083, Note_off_c, 0, 73, 118
1, 42105, Note_on_c, 0, 72, 113
1, 42235, Note_off_c, 0, 72, 113
1, 42279, Note_on_c, 0, 64, 102
1, 42432, Note_off_c, 0, 64, 102
1, 42651, Note_on_c, 0, 69, 116
1, 42709, Note_off_c, 0, 69, 116
1, 42709, Note_on_c, 0, 70, 108
1, 42853, Note_off_c, 0, 70, 108
1, 42869, Note_on_c, 0, 65, 97
1, 43213, Note_off_c, 0, 65, 97
1, 43310, Note_on_c, 0, 67, 107
1, 43404, Note_off_c, 0, 67, 107
1, 43437, Note_on_c, 0, 70, 110
1, 43567, Note_off_c, 0, 70, 110
1, 43580, Note_on_c, 0, 68, 107
1, 43677, Note_off_c, 0, 68, 107
1, 43949, Note_on_c, 0, 69, 104
1, 44029, Note_off_c, 0, 69, 104
1, 44037, Note_on_c, 0, 68, 101
1, 44123, Note_off_c, 0, 68, 101
1, 44148, Note_on_c, 0, 72, 108
1, 44223, Note_off_c, 0, 72, 108
1, 44242, Note_on_c, 0, 67, 100
1, 44322, Note_off_c, 0, 67, 100
1, 44335, Note_on_c, 0, 65, 99
1, 44412, Note_off_c, 0, 65, 99
1, 44437, Note_on_c, 0, 64, 92
1, 44478, Note_off_c, 0, 64, 92
1, 44533, Note_on_c, 0, 67, 96
1, 44616, Note_off_c, 0, 67, 96
1, 44635, Note_on_c, 0, 69, 100
1, 44693, Note_off_c, 0, 69, 100
1, 44706, Note_on_c, 0, 71, 93
1, 44744, Note_off_c, 0, 71, 93
1, 44760, Note_on_c, 0, 74, 99
1, 44857, Note_off_c, 0, 74, 99
1, 44890, Note_on_c, 0, 71, 94
1, 44948, Note_off_c, 0, 71, 94
1, 44961, Note_on_c, 0, 72, 97
1, 45030, Note_off_c, 0, 72, 97
1, 45068, Note_on_c, 0, 74, 112
1, 45140, Note_off_c, 0, 74, 112
1, 45148, Note_on_c, 0, 76, 112
1, 45231, Note_off_c, 0, 76, 112
1, 45278, Note_on_c, 0, 67, 108
1, 45372, Note_off_c, 0, 67, 108
1, 45906, Note_on_c, 0, 78, 115
1, 46067, Note_off_c, 0, 78, 115
1, 46067, Note_on_c, 0, 76, 108
1, 46189, Note_off_c, 0, 76, 108
1, 46205, Note_on_c, 0, 73, 109
1, 46346, Note_off_c, 0, 73, 109
1, 46966, Note_on_c, 0, 76, 114
1, 47021, Note_off_c, 0, 76, 114
1, 47034, Note_on_c, 0, 77, 106
1, 47114, Note_off_c, 0, 77, 106
1, 47158, Note_on_c, 0, 76, 113
1, 47238, Note_off_c, 0, 76, 113
1, 47346, Note_on_c, 0, 74, 113
1, 47426, Note_off_c, 0, 74, 113
1, 47426, Note_on_c, 0, 75, 105
1, 47534, Note_off_c, 0, 75, 105
1, 47547, Note_on_c, 0, 67, 86
1, 47630, Note_off_c, 0, 67, 86
1, 47635, Note_on_c, 0, 68, 97
1, 47712, Note_off_c, 0, 68, 97
1, 47731, Note_on_c, 0, 73, 110
1, 47817, Note_off_c, 0, 73, 110
1, 47819, Note_on_c, 0, 72, 101
1, 47908, Note_off_c, 0, 72, 101
1, 47930, Note_on_c, 0, 68, 103
1, 47991, Note_off_c, 0, 68, 103
1, 47991, Note_on_c, 0, 64, 95
1, 48074, Note_off_c, 0, 64, 95
1, 48238, Note_on_c, 0, 63, 85
1, 48313, Note_off_c, 0, 63, 85
1, 48324, Note_on_c, 0, 65, 92
1, 48399, Note_off_c, 0, 65, 92
1, 48407, Note_on_c, 0, 67, 91
1, 48459, Note_off_c, 0, 67, 91
1, 48484, Note_on_c, 0, 68, 86
1, 48559, Note_off_c, 0, 68, 86
1, 48584, Note_on_c, 0, 70, 106
1, 48670, Note_off_c, 0, 70, 106
1, 48683, Note_on_c, 0, 67, 91
1, 48741, Note_off_c, 0, 67, 91
1, 48749, Note_on_c, 0, 68, 103
1, 48846, Note_off_c, 0, 68, 103
1, 48862, Note_on_c, 0, 70, 114
1, 48956, Note_off_c, 0, 70, 114
1, 48956, Note_on_c, 0, 69, 107
1, 49036, Note_off_c, 0, 69, 107
1, 49058, Note_on_c, 0, 71, 101
1, 49138, Note_off_c, 0, 71, 101
1, 49149, Note_on_c, 0, 72, 113
1, 49207, Note_off_c, 0, 72, 113
1, 49223, Note_on_c, 0, 74, 116
1, 49289, Note_off_c, 0, 74, 116
1, 49330, Note_on_c, 0, 76, 116
1, 49416, Note_off_c, 0, 76, 116
1, 49424, Note_on_c, 0, 72, 110
1, 49507, Note_off_c, 0, 72, 110
1, 49507, Note_on_c, 0, 69, 100
1, 49601, Note_off_c, 0, 69, 100
1, 49742, Note_on_c, 0, 68, 104
1, 49828, Note_off_c, 0, 68, 104
1, 49828, Note_on_c, 0, 64, 93
1, 49872, Note_off_c, 0, 64, 93
1, 49897, Note_on_c, 0, 67, 102
1, 49980, Note_off_c, 0, 67, 102
1, 50013, Note_on_c, 0, 67, 104
1, 50054, Note_off_c, 0, 67, 104
1, 50087, Note_on_c, 0, 66, 94
1, 50167, Note_off_c, 0, 66, 94
1, 50189, Note_on_c, 0, 64, 99
1, 50255, Note_off_c, 0, 64, 99
1, 50263, Note_on_c, 0, 63, 98
1, 50374, Note_off_c, 0, 63, 98
1, 50374, Note_on_c, 0, 61, 81
1, 50443, Note_off_c, 0, 61, 81
1, 50454, Note_on_c, 0, 62, 92
1, 50520, Note_off_c, 0, 62, 92
1, 50542, Note_on_c, 0, 64, 97
1, 50631, Note_off_c, 0, 64, 97
1, 50664, Note_on_c, 0, 65, 98
1, 50736, Note_off_c, 0, 65, 98
1, 50755, Note_on_c, 0, 67, 93
1, 50810, Note_off_c, 0, 67, 93
1, 50810, Note_on_c, 0, 69, 102
1, 50896, Note_off_c, 0, 69, 102
1, 50940, Note_on_c, 0, 72, 105
1, 51001, Note_on_c, 0, 76, 113
1, 51001, Note_off_c, 0, 72, 105
1, 51126, Note_off_c, 0, 76, 113
1, 51131, Note_on_c, 0, 74, 110
1, 51239, Note_off_c, 0, 74, 110
1, 51311, Note_on_c, 0, 74, 105
1, 51361, Note_off_c, 0, 74, 105
1, 51369, Note_on_c, 0, 72, 110
1, 51413, Note_off_c, 0, 72, 110
1, 51426, Note_on_c, 0, 71, 103
1, 51481, Note_off_c, 0, 71, 103
1, 51500, Note_on_c, 0, 73, 108
1, 51583, Note_off_c, 0, 73, 108
1, 51599, Note_on_c, 0, 70, 104
1, 51665, Note_off_c, 0, 70, 104
1, 51690, Note_on_c, 0, 68, 105
1, 51765, Note_off_c, 0, 68, 105
1, 51795, Note_on_c, 0, 65, 85
1, 51858, Note_off_c, 0, 65, 85
1, 51863, Note_on_c, 0, 66, 88
1, 51940, Note_off_c, 0, 66, 88
1, 51948, Note_on_c, 0, 67, 90
1, 52006, Note_off_c, 0, 67, 90
1, 53383, Note_on_c, 0, 70, 88
1, 53416, Note_off_c, 0, 70, 88
1, 53443, Note_on_c, 0, 72, 87
1, 53495, Note_off_c, 0, 72, 87
1, 53545, Note_on_c, 0, 74, 107
1, 53606, Note_off_c, 0, 74, 107
1, 53664, Note_on_c, 0, 72, 114
1, 53727, Note_off_c, 0, 72, 114
1, 53952, Note_on_c, 0, 70, 87
1, 53979, Note_off_c, 0, 70, 87
1, 53990, Note_on_c, 0, 69, 93
1, 54073, Note_off_c, 0, 69, 93
1, 54098, Note_on_c, 0, 74, 116
1, 54237, Note_off_c, 0, 74, 116
1, 54239, Note_on_c, 0, 72, 111
1, 54347, Note_off_c, 0, 72, 111
1, 54472, Note_on_c, 0, 67, 82
1, 54505, Note_off_c, 0, 67, 82
1, 54530, Note_on_c, 0, 69, 102
1, 54568, Note_off_c, 0, 69, 102
1, 54584, Note_on_c, 0, 71, 95
1, 54606, Note_off_c, 0, 71, 95
1, 54631, Note_on_c, 0, 72, 107
1, 54667, Note_off_c, 0, 72, 107
1, 54700, Note_on_c, 0, 74, 118
1, 54822, Note_off_c, 0, 74, 118
1, 54830, Note_on_c, 0, 72, 111
1, 54891, Note_off_c, 0, 72, 111
1, 55005, Note_on_c, 0, 70, 110
1, 55113, Note_off_c, 0, 70, 110
1, 55179, Note_on_c, 0, 69, 108
1, 55273, Note_off_c, 0, 69, 108
1, 55395, Note_on_c, 0, 68, 111
1, 55486, Note_off_c, 0, 68, 111
1, 55583, Note_on_c, 0, 64, 91
1, 55638, Note_off_c, 0, 64, 91
1, 55651, Note_on_c, 0, 67, 109
1, 55753, Note_off_c, 0, 67, 109
1, 55786, Note_on_c, 0, 65, 97
1, 56008, Note_off_c, 0, 65, 97
1, 56038, Note_on_c, 0, 63, 100
1, 56101, Note_off_c, 0, 63, 100
1, 56112, Note_on_c, 0, 65, 91
1, 56159, Note_off_c, 0, 65, 91
1, 56159, Note_on_c, 0, 63, 101
1, 56195, Note_off_c, 0, 63, 101
1, 56211, Note_on_c, 0, 62, 89
1, 56327, Note_off_c, 0, 62, 89
1, 56366, Note_on_c, 0, 60, 93
1, 56425, Note_off_c, 0, 60, 93
1, 56438, Note_on_c, 0, 58, 81
1, 56530, Note_off_c, 0, 58, 81
1, 56543, Note_on_c, 0, 56, 90
1, 56608, Note_off_c, 0, 56, 90
1, 56608, Note_on_c, 0, 55, 100
1, 56677, Note_off_c, 0, 55, 100
1, 56722, Note_on_c, 0, 57, 91
1, 56797, Note_off_c, 0, 57, 91
1, 57024, Note_on_c, 0, 63, 99
1, 57069, Note_off_c, 0, 63, 99
1, 57078, Note_on_c, 0, 62, 89
1, 57109, Note_off_c, 0, 62, 89
1, 57116, Note_on_c, 0, 61, 80
1, 57143, Note_off_c, 0, 61, 80
1, 57190, Note_on_c, 0, 60, 98
1, 57257, Note_off_c, 0, 60, 98
1, 57266, Note_on_c, 0, 62, 98
1, 57329, Note_off_c, 0, 62, 98
1, 57371, Note_on_c, 0, 64, 114
1, 57473, Note_off_c, 0, 64, 114
1, 57481, Note_on_c, 0, 67, 117
1, 57681, Note_off_c, 0, 67, 117
1, 59650, Note_on_c, 0, 75, 85
1, 59747, Note_off_c, 0, 75, 85
1, 59791, Note_on_c, 0, 77, 95
1, 59860, Note_off_c, 0, 77, 95
1, 59904, Note_on_c, 0, 75, 90
1, 59987, Note_off_c, 0, 75, 90
1, 60012, Note_on_c, 0, 72, 86
1, 60109, Note_off_c, 0, 72, 86
1, 60175, Note_on_c, 0, 72, 96
1, 60280, Note_off_c, 0, 72, 96
1, 60357, Note_on_c, 0, 72, 101
1, 60395, Note_off_c, 0, 72, 101
1, 60403, Note_on_c, 0, 74, 103
1, 60439, Note_off_c, 0, 74, 103
1, 60452, Note_on_c, 0, 72, 107
1, 60499, Note_off_c, 0, 72, 107
1, 60501, Note_on_c, 0, 71, 105
1, 60559, Note_off_c, 0, 71, 105
1, 60567, Note_on_c, 0, 72, 98
1, 60617, Note_off_c, 0, 72, 98
1, 60650, Note_on_c, 0, 73, 109
1, 60725, Note_off_c, 0, 73, 109
1, 60736, Note_on_c, 0, 72, 102
1, 60813, Note_off_c, 0, 72, 102
1, 60846, Note_on_c, 0, 71, 111
1, 60907, Note_off_c, 0, 71, 111
1, 60909, Note_on_c, 0, 70, 102
1, 60986, Note_off_c, 0, 70, 102
1, 61005, Note_on_c, 0, 68, 94
1, 61082, Note_off_c, 0, 68, 94
1, 61090, Note_on_c, 0, 69, 98
1, 61198, Note_off_c, 0, 69, 98
1, 61231, Note_on_c, 0, 71, 110
1, 61289, Note_off_c, 0, 71, 110
1, 61294, Note_on_c, 0, 72, 104
1, 61383, Note_off_c, 0, 72, 104
1, 61405, Note_on_c, 0, 74, 92
1, 61482, Note_off_c, 0, 74, 92
1, 61484, Note_on_c, 0, 76, 116
1, 61575, Note_off_c, 0, 76, 116
1, 61605, Note_on_c, 0, 79, 117
1, 61657, Note_off_c, 0, 79, 117
1, 61684, Note_on_c, 0, 80, 104
1, 61761, Note_off_c, 0, 80, 104
1, 61788, Note_on_c, 0, 76, 118
1, 61868, Note_off_c, 0, 76, 118
1, 61893, Note_on_c, 0, 74, 100
1, 61970, Note_off_c, 0, 74, 100
1, 61975, Note_on_c, 0, 73, 115
1, 62066, Note_off_c, 0, 73, 115
1, 62088, Note_on_c, 0, 72, 106
1, 62151, Note_off_c, 0, 72, 106
1, 62164, Note_on_c, 0, 71, 111
1, 62239, Note_off_c, 0, 71, 111
1, 62247, Note_on_c, 0, 69, 102
1, 62344, Note_off_c, 0, 69, 102
1, 62366, Note_on_c, 0, 67, 105
1, 62429, Note_off_c, 0, 67, 105
1, 62445, Note_on_c, 0, 66, 99
1, 62547, Note_off_c, 0, 66, 99
1, 62616, Note_on_c, 0, 67, 97
1, 62691, Note_off_c, 0, 67, 97
1, 62721, Note_on_c, 0, 69, 109
1, 62812, Note_off_c, 0, 69, 109
1, 62820, Note_on_c, 0, 72, 99
1, 62889, Note_off_c, 0, 72, 99
1, 62914, Note_on_c, 0, 76, 105
1, 63003, Note_off_c, 0, 76, 105
1, 63142, Note_on_c, 0, 76, 111
1, 63211, Note_off_c, 0, 76, 111
1, 63211, Note_on_c, 0, 77, 118
1, 63286, Note_off_c, 0, 77, 118
1, 63305, Note_on_c, 0, 76, 114
1, 63410, Note_off_c, 0, 76, 114
1, 63482, Note_on_c, 0, 74, 117
1, 63576, Note_off_c, 0, 74, 117
1, 63603, Note_on_c, 0, 72, 112
1, 63666, Note_on_c, 0, 73, 102
1, 63666, Note_off_c, 0, 72, 112
1, 63713, Note_off_c, 0, 73, 102
1, 63724, Note_on_c, 0, 72, 112
1, 63779, Note_off_c, 0, 72, 112
1, 63781, Note_on_c, 0, 71, 105
1, 63864, Note_off_c, 0, 71, 105
1, 63877, Note_on_c, 0, 69, 104
1, 63974, Note_off_c, 0, 69, 104
1, 63985, Note_on_c, 0, 67, 102
1, 64054, Note_off_c, 0, 67, 102
1, 64652, Note_on_c, 0, 72, 113
1, 64743, Note_off_c, 0, 72, 113
1, 64784, Note_on_c, 0, 70, 116
1, 64881, Note_off_c, 0, 70, 116
1, 64939, Note_on_c, 0, 63, 105
1, 65105, Note_off_c, 0, 63, 105
1, 65191, Note_on_c, 0, 69, 107
1, 65254, Note_off_c, 0, 69, 107
1, 65267, Note_on_c, 0, 70, 111
1, 65489, Note_off_c, 0, 70, 111
1, 65519, Note_on_c, 0, 68, 105
1, 65630, Note_off_c, 0, 68, 105
1, 65657, Note_on_c, 0, 67, 107
1, 65754, Note_off_c, 0, 67, 107
1, 65776, Note_on_c, 0, 64, 95
1, 66045, Note_off_c, 0, 64, 95
1, 66045, End_track
0, 0, End_of_file
