0, 0, Header, 1, 1, 192
1, 0, Start_track
1, 0, Title_t, "Melody"
1, 0, Tempo, 322580
1, 0, Key_signature, -3, "major"
1, 0, Time_signature, 4, 2, 24, 8
1, 1856, Note_on_c, 0, 67, 105
1, 1973, Note_off_c, 0, 67, 105
1, 1980, Note_on_c, 0, 68, 98
1, 2055, Note_off_c, 0, 68, 98
1, 2061, Note_on_c, 0, 70, 115
1, 2201, Note_off_c, 0, 70, 115
1, 2214, Note_on_c, 0, 70, 101
1, 2577, Note_off_c, 0, 70, 101
1, 2637, Note_on_c, 0, 72, 116
1, 2729, Note_off_c, 0, 72, 116
1, 2739, Note_on_c, 0, 74, 117
1, 2797, Note_off_c, 0, 74, 117
1, 2818, Note_on_c, 0, 75, 115
1, 2905, Note_off_c, 0, 75, 115
1, 2929, Note_on_c, 0, 75, 97
1, 3120, Note_off_c, 0, 75, 97
1, 3191, Note_on_c, 0, 67, 105
1, 3251, Note_off_c, 0, 67, 105
1, 3258, Note_on_c, 0, 69, 90
1, 3285, Note_off_c, 0, 69, 90
1, 3293, Note_on_c, 0, 68, 94
1, 3334, Note_off_c, 0, 68, 94
1, 3368, Note_on_c, 0, 73, 121
1, 3422, Note_off_c, 0, 73, 121
1, 3434, Note_on_c, 0, 71, 97
1, 3460, Note_off_c, 0, 71, 97
1, 3511, Note_on_c, 0, 73, 116
1, 3564, Note_off_c, 0, 73, 116
1, 3584, Note_on_c, 0, 72, 114
1, 3622, Note_off_c, 0, 72, 114
1, 3655, Note_on_c, 0, 70, 88
1, 3678, Note_off_c, 0, 70, 88
1, 3679, Note_on_c, 0, 68, 97
1, 3720, Note_off_c, 0, 68, 97
1, 3729, Note_on_c, 0, 69, 115
1, 3771, Note_off_c, 0, 69, 115
1, 3779, Note_on_c, 0, 65, 113
1, 3811, Note_off_c, 0, 65, 113
1, 3839, Note_on_c, 0, 61, 86
1, 3868, Note_off_c, 0, 61, 86
1, 3875, Note_on_c, 0, 58, 107
1, 3903, Note_off_c, 0, 58, 107
1, 3908, Note_on_c, 0, 57, 85
1, 3997, Note_off_c, 0, 57, 85
1, 4038, Note_on_c, 0, 65, 76
1, 4071, Note_off_c, 0, 65, 76
1, 4073, Note_on_c, 0, 69, 112
1, 4130, Note_off_c, 0, 69, 112
1, 4135, Note_on_c, 0, 68, 118
1, 4177, Note_off_c, 0, 68, 118
1, 4182, Note_on_c, 0, 65, 108
1, 4223, Note_off_c, 0, 65, 108
1, 4291, Note_on_c, 0, 67, 107
1, 4342, Note_off_c, 0, 67, 107
1, 4345, Note_on_c, 0, 65, 117
1, 4377, Note_off_c, 0, 65, 117
1, 4379, Note_on_c, 0, 63, 111
1, 4413, Note_off_c, 0, 63, 111
1, 4449, Note_on_c, 0, 61, 98
1, 4500, Note_off_c, 0, 61, 98
1, 4511, Note_on_c, 0, 62, 90
1, 4551, Note_off_c, 0, 62, 90
1, 4562, Note_on_c, 0, 65, 103
1, 4606, Note_off_c, 0, 65, 103
1, 4617, Note_on_c, 0, 68, 90
1, 4658, Note_off_c, 0, 68, 90
1, 4659, Note_on_c, 0, 71, 103
1, 4703, Note_off_c, 0, 71, 103
1, 4797, Note_on_c, 0, 67, 98
1, 4834, Note_off_c, 0, 67, 98
1, 4838, Note_on_c, 0, 70, 111
1, 4878, Note_off_c, 0, 70, 111
1, 4882, Note_on_c, 0, 68, 107
1, 4925, Note_off_c, 0, 68, 107
1, 4931, Note_on_c, 0, 67, 89
1, 4997, Note_off_c, 0, 67, 89
1, 5003, Note_on_c, 0, 68, 82
1, 5035, Note_off_c, 0, 68, 82
1, 5041, Note_on_c, 0, 72, 116
1, 5175, Note_off_c, 0, 72, 116
1, 6313, Note_on_c, 0, 67, 92
1, 6408, Note_off_c, 0, 67, 92
1, 6415, Note_on_c, 0, 68, 81
1, 6481, Note_off_c, 0, 68, 81
1, 6513, Note_on_c, 0, 72, 115
1, 6608, Note_off_c, 0, 72, 115
1, 6662, Note_on_c, 0, 75, 120
1, 6744, Note_off_c, 0, 75, 120
1, 6780, Note_on_c, 0, 80, 112
1, 6864, Note_off_c, 0, 80, 112
1, 6878, Note_on_c, 0, 78, 121
1, 6941, Note_off_c, 0, 78, 121
1, 6952, Note_on_c, 0, 77, 123
1, 7051, Note_off_c, 0, 77, 123
1, 7055, Note_on_c, 0, 76, 123
1, 7127, Note_off_c, 0, 76, 123
1, 7131, Note_on_c, 0, 75, 127
1, 7241, Note_off_c, 0, 75, 127
1, 7244, Note_on_c, 0, 67, 95
1, 7274, Note_off_c, 0, 67, 95
1, 7319, Note_on_c, 0, 70, 118
1, 7415, Note_off_c, 0, 70, 118
1, 7421, Note_on_c, 0, 74, 126
1, 7503, Note_off_c, 0, 74, 126
1, 7505, Note_on_c, 0, 73, 118
1, 7536, Note_off_c, 0, 73, 118
1, 7539, Note_on_c, 0, 74, 120
1, 7573, Note_off_c, 0, 74, 120
1, 7577, Note_on_c, 0, 73, 109
1, 7608, Note_off_c, 0, 73, 109
1, 7613, Note_on_c, 0, 69, 118
1, 7691, Note_off_c, 0, 69, 118
1, 7698, Note_on_c, 0, 68, 110
1, 7795, Note_off_c, 0, 68, 110
1, 7807, Note_on_c, 0, 66, 104
1, 7864, Note_off_c, 0, 66, 104
1, 7873, Note_on_c, 0, 65, 87
1, 7958, Note_off_c, 0, 65, 87
1, 8009, Note_on_c, 0, 75, 119
1, 8080, Note_off_c, 0, 75, 119
1, 8095, Note_on_c, 0, 79, 124
1, 8219, Note_off_c, 0, 79, 124
1, 8227, Note_on_c, 0, 77, 121
1, 8497, Note_off_c, 0, 77, 121
1, 8506, Note_on_c, 0, 78, 115
1, 8531, Note_off_c, 0, 78, 115
1, 8535, Note_on_c, 0, 77, 113
1, 8605, Note_off_c, 0, 77, 113
1, 8611, Note_on_c, 0, 74, 115
1, 8707, Note_off_c, 0, 74, 115
1, 8711, Note_on_c, 0, 72, 116
1, 8817, Note_off_c, 0, 72, 116
1, 8907, Note_on_c, 0, 70, 97
1, 8970, Note_off_c, 0, 70, 97
1, 8972, Note_on_c, 0, 73, 120
1, 9100, Note_off_c, 0, 73, 120
1, 9108, Note_on_c, 0, 74, 113
1, 9156, Note_off_c, 0, 74, 113
1, 9159, Note_on_c, 0, 73, 116
1, 9217, Note_off_c, 0, 73, 116
1, 9220, Note_on_c, 0, 71, 119
1, 9329, Note_off_c, 0, 71, 119
1, 9342, Note_on_c, 0, 69, 96
1, 9386, Note_off_c, 0, 69, 96
1, 9400, Note_on_c, 0, 70, 116
1, 9503, Note_off_c, 0, 70, 116
1, 9511, Note_on_c, 0, 67, 109
1, 9553, Note_off_c, 0, 67, 109
1, 9587, Note_on_c, 0, 63, 90
1, 9683, Note_off_c, 0, 63, 90
1, 9754, Note_on_c, 0, 68, 105
1, 9795, Note_off_c, 0, 68, 105
1, 9800, Note_on_c, 0, 70, 106
1, 9876, Note_off_c, 0, 70, 106
1, 9882, Note_on_c, 0, 68, 104
1, 9910, Note_off_c, 0, 68, 104
1, 9921, Note_on_c, 0, 67, 93
1, 10096, Note_off_c, 0, 67, 93
1, 10659, Note_on_c, 0, 70, 114
1, 10749, Note_off_c, 0, 70, 114
1, 10786, Note_on_c, 0, 72, 113
1, 10851, Note_off_c, 0, 72, 113
1, 10854, Note_on_c, 0, 73, 116
1, 10936, Note_off_c, 0, 73, 116
1, 10941, Note_on_c, 0, 75, 112
1, 11005, Note_off_c, 0, 75, 112
1, 11006, Note_on_c, 0, 73, 115
1, 11059, Note_off_c, 0, 73, 115
1, 11064, Note_on_c, 0, 72, 111
1, 11159, Note_off_c, 0, 72, 111
1, 11161, Note_on_c, 0, 70, 98
1, 11230, Note_off_c, 0, 70, 98
1, 11237, Note_on_c, 0, 73, 119
1, 11361, Note_off_c, 0, 73, 119
1, 11366, Note_on_c, 0, 70, 101
1, 11467, Note_off_c, 0, 70, 101
1, 11529, Note_on_c, 0, 73, 111
1, 11665, Note_off_c, 0, 73, 111
1, 11729, Note_on_c, 0, 70, 116
1, 11858, Note_off_c, 0, 70, 116
1, 12168, Note_on_c, 0, 70, 113
1, 12266, Note_off_c, 0, 70, 113
1, 12328, Note_on_c, 0, 72, 112
1, 12392, Note_off_c, 0, 72, 112
1, 12401, Note_on_c, 0, 73, 120
1, 12498, Note_off_c, 0, 73, 120
1, 12518, Note_on_c, 0, 67, 85
1, 12570, Note_off_c, 0, 67, 85
1, 12581, Note_on_c, 0, 70, 118
1, 12682, Note_off_c, 0, 70, 118
1, 12694, Note_on_c, 0, 73, 120
1, 12759, Note_off_c, 0, 73, 120
1, 12761, Note_on_c, 0, 72, 106
1, 12793, Note_off_c, 0, 72, 106
1, 12798, Note_on_c, 0, 73, 111
1, 12849, Note_off_c, 0, 73, 111
1, 12850, Note_on_c, 0, 72, 120
1, 12886, Note_off_c, 0, 72, 120
1, 12892, Note_on_c, 0, 71, 119
1, 12939, Note_off_c, 0, 71, 119
1, 12982, Note_on_c, 0, 70, 119
1, 13085, Note_off_c, 0, 70, 119
1, 13097, Note_on_c, 0, 68, 94
1, 13151, Note_off_c, 0, 68, 94
1, 13158, Note_on_c, 0, 69, 122
1, 13277, Note_off_c, 0, 69, 122
1, 13279, Note_on_c, 0, 73, 122
1, 13339, Note_off_c, 0, 73, 122
1, 13357, Note_on_c, 0, 78, 112
1, 13383, Note_off_c, 0, 78, 112
1, 13385, Note_on_c, 0, 79, 122
1, 13445, Note_off_c, 0, 79, 122
1, 13463, Note_on_c, 0, 81, 126
1, 13537, Note_off_c, 0, 81, 126
1, 13557, Note_on_c, 0, 80, 117
1, 13666, Note_off_c, 0, 80, 117
1, 13676, Note_on_c, 0, 77, 126
1, 13734, Note_off_c, 0, 77, 126
1, 13743, Note_on_c, 0, 75, 113
1, 13778, Note_off_c, 0, 75, 113
1, 13785, Note_on_c, 0, 73, 113
1, 13847, Note_off_c, 0, 73, 113
1, 13865, Note_on_c, 0, 70, 111
1, 13928, Note_off_c, 0, 70, 111
1, 13969, Note_on_c, 0, 80, 111
1, 14003, Note_off_c, 0, 80, 111
1, 14006, Note_on_c, 0, 81, 110
1, 14044, Note_off_c, 0, 81, 110
1, 14049, Note_on_c, 0, 79, 100
1, 14069, Note_off_c, 0, 79, 100
1, 14071, Note_on_c, 0, 77, 121
1, 14159, Note_off_c, 0, 77, 121
1, 14179, Note_on_c, 0, 74, 110
1, 14227, Note_off_c, 0, 74, 110
1, 14238, Note_on_c, 0, 75, 120
1, 14278, Note_off_c, 0, 75, 120
1, 14281, Note_on_c, 0, 74, 124
1, 14367, Note_off_c, 0, 74, 124
1, 14367, Note_on_c, 0, 73, 118
1, 14452, Note_off_c, 0, 73, 118
1, 14478, Note_on_c, 0, 70, 108
1, 14569, Note_off_c, 0, 70, 108
1, 14589, Note_on_c, 0, 70, 86
1, 14662, Note_off_c, 0, 70, 86
1, 14766, Note_on_c, 0, 70, 115
1, 14861, Note_off_c, 0, 70, 115
1, 14933, Note_on_c, 0, 69, 80
1, 14950, Note_off_c, 0, 69, 80
1, 14950, Note_on_c, 0, 70, 116
1, 15040, Note_off_c, 0, 70, 116
1, 15051, Note_on_c, 0, 70, 115
1, 15120, Note_off_c, 0, 70, 115
1, 15132, Note_on_c, 0, 68, 108
1, 15214, Note_off_c, 0, 68, 108
1, 15230, Note_on_c, 0, 66, 101
1, 15296, Note_off_c, 0, 66, 101
1, 15331, Note_on_c, 0, 63, 90
1, 15384, Note_off_c, 0, 63, 90
1, 15485, Note_on_c, 0, 67, 102
1, 15602, Note_off_c, 0, 67, 102
1, 15616, Note_on_c, 0, 70, 91
1, 15850, Note_off_c, 0, 70, 91
1, 16384, Note_on_c, 0, 79, 102
1, 16447, Note_off_c, 0, 79, 102
1, 16451, Note_on_c, 0, 74, 113
1, 16574, Note_off_c, 0, 74, 113
1, 16593, Note_on_c, 0, 72, 99
1, 16618, Note_off_c, 0, 72, 99
1, 16633, Note_on_c, 0, 73, 114
1, 16781, Note_off_c, 0, 73, 114
1, 16784, Note_on_c, 0, 71, 103
1, 16933, Note_off_c, 0, 71, 103
1, 16944, Note_on_c, 0, 72, 114
1, 17072, Note_off_c, 0, 72, 114
1, 17161, Note_on_c, 0, 65, 89
1, 17208, Note_off_c, 0, 65, 89
1, 17216, Note_on_c, 0, 67, 94
1, 17334, Note_off_c, 0, 67, 94
1, 17353, Note_on_c, 0, 68, 93
1, 17663, Note_off_c, 0, 68, 93
1, 17755, Note_on_c, 0, 71, 113
1, 17805, Note_off_c, 0, 71, 113
1, 17811, Note_on_c, 0, 73, 99
1, 17833, Note_off_c, 0, 73, 99
1, 17845, Note_on_c, 0, 71, 86
1, 17873, Note_off_c, 0, 71, 86
1, 17880, Note_on_c, 0, 69, 112
1, 17966, Note_off_c, 0, 69, 112
1, 18021, Note_on_c, 0, 64, 94
1, 18085, Note_off_c, 0, 64, 94
1, 18166, Note_on_c, 0, 69, 95
1, 18198, Note_off_c, 0, 69, 95
1, 18202, Note_on_c, 0, 68, 100
1, 18282, Note_off_c, 0, 68, 100
1, 18297, Note_on_c, 0, 66, 104
1, 18413, Note_off_c, 0, 66, 104
1, 18424, Note_on_c, 0, 64, 96
1, 18526, Note_off_c, 0, 64, 96
1, 18528, Note_on_c, 0, 63, 79
1, 18826, Note_off_c, 0, 63, 79
1, 18841, Note_on_c, 0, 67, 91
1, 18930, Note_off_c, 0, 67, 91
1, 18948, Note_on_c, 0, 69, 85
1, 18993, Note_off_c, 0, 69, 85
1, 18994, Note_on_c, 0, 70, 102
1, 19073, Note_off_c, 0, 70, 102
1, 19083, Note_on_c, 0, 68, 93
1, 19188, Note_off_c, 0, 68, 93
1, 19287, Note_on_c, 0, 70, 109
1, 19394, Note_off_c, 0, 70, 109
1, 19399, Note_on_c, 0, 67, 105
1, 19449, Note_off_c, 0, 67, 105
1, 19501, Note_on_c, 0, 63, 86
1, 19558, Note_off_c, 0, 63, 86
1, 19682, Note_on_c, 0, 65, 94
1, 19793, Note_off_c, 0, 65, 94
1, 19793, End_track
0, 0, End_of_file
