0, 0, Header, 1, 1, 192
1, 0, Start_track
1, 0, Title_t, "Melody"
1, 0, Tempo, 283018
1, 0, Key_signature, 0, "major"
1, 0, Time_signature, 4, 2, 24, 8
1, 1727, Note_on_c, 0, 52, 108
1, 1893, Note_off_c, 0, 52, 108
1, 1904, Note_on_c, 0, 53, 120
1, 2053, Note_off_c, 0, 53, 120
1, 2086, Note_on_c, 0, 54, 113
1, 2274, Note_off_c, 0, 54, 113
1, 2279, Note_on_c, 0, 55, 118
1, 2411, Note_off_c, 0, 55, 118
1, 2428, Note_on_c, 0, 65, 121
1, 2854, Note_off_c, 0, 65, 121
1, 2883, Note_on_c, 0, 64, 125
1, 3056, Note_off_c, 0, 64, 125
1, 3148, Note_on_c, 0, 57, 105
1, 4273, Note_off_c, 0, 57, 105
1, 4797, Note_on_c, 0, 53, 107
1, 4892, Note_off_c, 0, 53, 107
1, 4971, Note_on_c, 0, 55, 108
1, 5142, Note_off_c, 0, 55, 108
1, 5157, Note_on_c, 0, 56, 115
1, 5268, Note_off_c, 0, 56, 115
1, 5279, Note_on_c, 0, 57, 112
1, 5389, Note_off_c, 0, 57, 112
1, 5473, Note_on_c, 0, 60, 111
1, 5567, Note_off_c, 0, 60, 111
1, 5633, Note_on_c, 0, 64, 123
1, 5782, Note_off_c, 0, 64, 123
1, 5864, Note_on_c, 0, 62, 115
1, 6108, Note_off_c, 0, 62, 115
1, 6145, Note_on_c, 0, 59, 109
1, 6243, Note_off_c, 0, 59, 109
1, 6262, Note_on_c, 0, 55, 111
1, 7244, Note_off_c, 0, 55, 111
1, 8037, Note_on_c, 0, 52, 115
1, 8208, Note_off_c, 0, 52, 115
1, 8215, Note_on_c, 0, 53, 110
1, 8325, Note_off_c, 0, 53, 110
1, 8403, Note_on_c, 0, 55, 118
1, 8474, Note_off_c, 0, 55, 118
1, 8485, Note_on_c, 0, 55, 114
1, 8529, Note_off_c, 0, 55, 114
1, 8541, Note_on_c, 0, 55, 106
1, 8579, Note_off_c, 0, 55, 106
1, 8597, Note_on_c, 0, 55, 115
1, 8648, Note_off_c, 0, 55, 115
1, 8657, Note_on_c, 0, 55, 105
1, 8787, Note_off_c, 0, 55, 105
1, 8886, Note_on_c, 0, 57, 117
1, 9185, Note_off_c, 0, 57, 117
1, 9427, Note_on_c, 0, 59, 104
1, 9596, Note_off_c, 0, 59, 104
1, 9607, Note_on_c, 0, 60, 115
1, 9749, Note_off_c, 0, 60, 115
1, 9759, Note_on_c, 0, 61, 120
1, 9865, Note_off_c, 0, 61, 120
1, 9886, Note_on_c, 0, 62, 121
1, 9987, Note_off_c, 0, 62, 121
1, 10022, Note_on_c, 0, 66, 116
1, 10354, Note_off_c, 0, 66, 116
1, 10365, Note_on_c, 0, 64, 120
1, 10675, Note_off_c, 0, 64, 120
1, 10928, Note_on_c, 0, 60, 113
1, 11030, Note_off_c, 0, 60, 113
1, 11049, Note_on_c, 0, 64, 122
1, 11159, Note_off_c, 0, 64, 122
1, 11231, Note_on_c, 0, 60, 116
1, 11383, Note_off_c, 0, 60, 116
1, 11452, Note_on_c, 0, 52, 112
1, 11566, Note_off_c, 0, 52, 112
1, 11670, Note_on_c, 0, 59, 112
1, 11891, Note_off_c, 0, 59, 112
1, 11984, Note_on_c, 0, 57, 116
1, 12318, Note_off_c, 0, 57, 116
1, 12646, Note_on_c, 0, 64, 123
1, 12977, Note_off_c, 0, 64, 123
1, 12989, Note_on_c, 0, 63, 120
1, 13095, Note_off_c, 0, 63, 120
1, 13099, Note_on_c, 0, 62, 114
1, 13733, Note_off_c, 0, 62, 114
1, 13997, Note_on_c, 0, 52, 105
1, 14167, Note_off_c, 0, 52, 105
1, 14184, Note_on_c, 0, 53, 117
1, 14348, Note_off_c, 0, 53, 117
1, 14360, Note_on_c, 0, 54, 125
1, 14481, Note_off_c, 0, 54, 125
1, 14490, Note_on_c, 0, 55, 111
1, 14617, Note_off_c, 0, 55, 111
1, 14689, Note_on_c, 0, 65, 119
1, 15132, Note_off_c, 0, 65, 119
1, 15163, Note_on_c, 0, 64, 125
1, 15334, Note_off_c, 0, 64, 125
1, 15444, Note_on_c, 0, 56, 115
1, 15537, Note_off_c, 0, 56, 115
1, 15549, Note_on_c, 0, 57, 108
1, 16458, Note_off_c, 0, 57, 108
1, 17070, Note_on_c, 0, 53, 101
1, 17233, Note_off_c, 0, 53, 101
1, 17252, Note_on_c, 0, 54, 109
1, 17425, Note_off_c, 0, 54, 109
1, 17438, Note_on_c, 0, 55, 112
1, 17524, Note_off_c, 0, 55, 112
1, 17535, Note_on_c, 0, 56, 114
1, 17688, Note_off_c, 0, 56, 114
1, 17745, Note_on_c, 0, 60, 107
1, 17822, Note_off_c, 0, 60, 107
1, 17893, Note_on_c, 0, 64, 122
1, 18088, Note_off_c, 0, 64, 122
1, 18094, Note_on_c, 0, 62, 116
1, 18291, Note_off_c, 0, 62, 116
1, 18376, Note_on_c, 0, 60, 115
1, 18450, Note_off_c, 0, 60, 115
1, 18479, Note_on_c, 0, 60, 99
1, 19304, Note_off_c, 0, 60, 99
1, 20122, Note_on_c, 0, 62, 112
1, 20173, Note_off_c, 0, 62, 112
1, 20306, Note_on_c, 0, 60, 102
1, 20365, Note_off_c, 0, 60, 102
1, 20490, Note_on_c, 0, 64, 112
1, 20576, Note_off_c, 0, 64, 112
1, 20691, Note_on_c, 0, 60, 109
1, 20750, Note_off_c, 0, 60, 109
1, 20873, Note_on_c, 0, 62, 116
1, 20984, Note_off_c, 0, 62, 116
1, 20994, Note_on_c, 0, 60, 105
1, 21064, Note_off_c, 0, 60, 105
1, 21073, Note_on_c, 0, 64, 108
1, 21151, Note_off_c, 0, 64, 108
1, 21179, Note_on_c, 0, 60, 105
1, 21434, Note_off_c, 0, 60, 105
1, 21832, Note_on_c, 0, 59, 115
1, 21937, Note_off_c, 0, 59, 115
1, 22017, Note_on_c, 0, 57, 121
1, 22135, Note_off_c, 0, 57, 121
1, 22156, Note_on_c, 0, 55, 113
1, 22337, Note_off_c, 0, 55, 113
1, 22403, Note_on_c, 0, 59, 104
1, 22548, Note_off_c, 0, 59, 104
1, 22591, Note_on_c, 0, 57, 112
1, 22720, Note_off_c, 0, 57, 112
1, 22743, Note_on_c, 0, 55, 109
1, 22939, Note_off_c, 0, 55, 109
1, 23194, Note_on_c, 0, 52, 109
1, 23335, Note_off_c, 0, 52, 109
1, 23358, Note_on_c, 0, 53, 123
1, 23515, Note_off_c, 0, 53, 123
1, 23544, Note_on_c, 0, 54, 120
1, 23676, Note_off_c, 0, 54, 120
1, 23683, Note_on_c, 0, 55, 113
1, 23804, Note_off_c, 0, 55, 113
1, 23852, Note_on_c, 0, 65, 119
1, 24285, Note_off_c, 0, 65, 119
1, 24329, Note_on_c, 0, 64, 125
1, 24608, Note_off_c, 0, 64, 125
1, 24627, Note_on_c, 0, 60, 96
1, 25505, Note_off_c, 0, 60, 96
1, 25582, Note_on_c, 0, 64, 127
1, 25648, Note_off_c, 0, 64, 127
1, 25667, Note_on_c, 0, 63, 118
1, 25761, Note_off_c, 0, 63, 118
1, 25767, Note_on_c, 0, 60, 115
1, 25820, Note_off_c, 0, 60, 115
1, 25851, Note_on_c, 0, 57, 117
1, 25923, Note_off_c, 0, 57, 117
1, 25935, Note_on_c, 0, 55, 109
1, 26034, Note_off_c, 0, 55, 109
1, 26051, Note_on_c, 0, 52, 119
1, 26103, Note_off_c, 0, 52, 119
1, 26121, Note_on_c, 0, 50, 100
1, 26201, Note_off_c, 0, 50, 100
1, 26224, Note_on_c, 0, 48, 112
1, 26420, Note_off_c, 0, 48, 112
1, 26420, End_track
0, 0, End_of_file
