0, 0, Header, 1, 1, 192
1, 0, Start_track
1, 0, Title_t, "Melody"
1, 0, Tempo, 226415
1, 0, Key_signature, -1, "major"
1, 0, Time_signature, 4, 2, 24, 8
1, 2583, Note_on_c, 0, 61, 95
1, 2686, Note_off_c, 0, 61, 95
1, 2689, Note_on_c, 0, 62, 95
1, 2780, Note_off_c, 0, 62, 95
1, 2783, Note_on_c, 0, 63, 97
1, 2898, Note_off_c, 0, 63, 97
1, 2905, Note_on_c, 0, 61, 87
1, 2978, Note_off_c, 0, 61, 87
1, 2985, Note_on_c, 0, 62, 91
1, 3076, Note_off_c, 0, 62, 91
1, 3085, Note_on_c, 0, 63, 80
1, 3168, Note_off_c, 0, 63, 80
1, 3175, Note_on_c, 0, 64, 102
1, 3248, Note_off_c, 0, 64, 102
1, 3267, Note_on_c, 0, 65, 110
1, 3380, Note_off_c, 0, 65, 110
1, 3387, Note_on_c, 0, 66, 101
1, 3473, Note_off_c, 0, 66, 101
1, 3475, Note_on_c, 0, 67, 99
1, 3546, Note_off_c, 0, 67, 99
1, 3563, Note_on_c, 0, 69, 101
1, 3663, Note_off_c, 0, 69, 101
1, 3672, Note_on_c, 0, 67, 98
1, 3765, Note_off_c, 0, 67, 98
1, 3774, Note_on_c, 0, 65, 86
1, 3865, Note_off_c, 0, 65, 86
1, 3865, Note_on_c, 0, 67, 82
1, 3953, Note_off_c, 0, 67, 82
1, 3957, Note_on_c, 0, 69, 98
1, 4081, Note_off_c, 0, 69, 98
1, 4081, Note_on_c, 0, 70, 77
1, 4140, Note_off_c, 0, 70, 77
1, 4151, Note_on_c, 0, 72, 103
1, 4286, Note_off_c, 0, 72, 103
1, 4298, Note_on_c, 0, 71, 90
1, 4381, Note_off_c, 0, 71, 90
1, 4383, Note_on_c, 0, 70, 88
1, 4466, Note_off_c, 0, 70, 88
1, 4474, Note_on_c, 0, 69, 94
1, 4551, Note_off_c, 0, 69, 94
1, 4558, Note_on_c, 0, 67, 90
1, 4644, Note_off_c, 0, 67, 90
1, 4653, Note_on_c, 0, 65, 94
1, 4729, Note_off_c, 0, 65, 94
1, 4738, Note_on_c, 0, 63, 96
1, 4814, Note_off_c, 0, 63, 96
1, 4826, Note_on_c, 0, 61, 100
1, 4909, Note_off_c, 0, 61, 100
1, 4918, Note_on_c, 0, 58, 85
1, 5023, Note_off_c, 0, 58, 85
1, 5023, Note_on_c, 0, 53, 81
1, 5096, Note_off_c, 0, 53, 81
1, 5115, Note_on_c, 0, 57, 84
1, 5454, Note_off_c, 0, 57, 84
1, 6268, Note_on_c, 0, 62, 102
1, 6341, Note_off_c, 0, 62, 102
1, 6350, Note_on_c, 0, 61, 90
1, 6443, Note_off_c, 0, 61, 90
1, 6447, Note_on_c, 0, 62, 92
1, 6547, Note_off_c, 0, 62, 92
1, 6554, Note_on_c, 0, 63, 86
1, 6605, Note_off_c, 0, 63, 86
1, 6607, Note_on_c, 0, 65, 112
1, 6707, Note_off_c, 0, 65, 112
1, 7492, Note_on_c, 0, 62, 95
1, 7563, Note_off_c, 0, 62, 95
1, 7585, Note_on_c, 0, 64, 105
1, 7678, Note_off_c, 0, 64, 105
1, 7680, Note_on_c, 0, 67, 102
1, 7748, Note_off_c, 0, 67, 102
1, 7765, Note_on_c, 0, 72, 119
1, 7907, Note_off_c, 0, 72, 119
1, 7907, Note_on_c, 0, 67, 103
1, 7966, Note_off_c, 0, 67, 103
1, 7968, Note_on_c, 0, 69, 80
1, 8054, Note_off_c, 0, 69, 80
1, 8061, Note_on_c, 0, 72, 101
1, 8137, Note_off_c, 0, 72, 101
1, 8139, Note_on_c, 0, 77, 118
1, 8249, Note_off_c, 0, 77, 118
1, 8253, Note_on_c, 0, 76, 121
1, 8336, Note_off_c, 0, 76, 121
1, 8343, Note_on_c, 0, 75, 109
1, 8438, Note_off_c, 0, 75, 109
1, 8450, Note_on_c, 0, 73, 108
1, 8543, Note_off_c, 0, 73, 108
1, 8550, Note_on_c, 0, 72, 104
1, 8650, Note_off_c, 0, 72, 104
1, 8652, Note_on_c, 0, 70, 100
1, 8738, Note_on_c, 0, 69, 89
1, 8738, Note_off_c, 0, 70, 100
1, 8829, Note_off_c, 0, 69, 89
1, 8848, Note_on_c, 0, 70, 84
1, 8907, Note_off_c, 0, 70, 84
1, 8919, Note_on_c, 0, 72, 118
1, 9019, Note_off_c, 0, 72, 118
1, 9041, Note_on_c, 0, 65, 96
1, 9301, Note_off_c, 0, 65, 96
1, 9313, Note_on_c, 0, 69, 105
1, 9433, Note_off_c, 0, 69, 105
1, 9437, Note_on_c, 0, 67, 99
1, 9692, Note_off_c, 0, 67, 99
1, 9701, Note_on_c, 0, 70, 94
1, 9809, Note_off_c, 0, 70, 94
1, 9819, Note_on_c, 0, 69, 96
1, 9908, Note_off_c, 0, 69, 96
1, 9915, Note_on_c, 0, 67, 96
1, 9996, Note_off_c, 0, 67, 96
1, 10005, Note_on_c, 0, 72, 79
1, 10381, Note_off_c, 0, 72, 79
1, 11148, Note_on_c, 0, 73, 97
1, 11255, Note_off_c, 0, 73, 97
1, 11261, Note_on_c, 0, 74, 99
1, 11339, Note_off_c, 0, 74, 99
1, 11343, Note_on_c, 0, 76, 127
1, 11490, Note_off_c, 0, 76, 127
1, 11507, Note_on_c, 0, 74, 114
1, 11615, Note_off_c, 0, 74, 114
1, 12003, Note_on_c, 0, 65, 100
1, 12098, Note_off_c, 0, 65, 100
1, 12111, Note_on_c, 0, 69, 100
1, 12250, Note_off_c, 0, 69, 100
1, 12291, Note_on_c, 0, 72, 115
1, 12401, Note_off_c, 0, 72, 115
1, 12410, Note_on_c, 0, 71, 111
1, 12476, Note_off_c, 0, 71, 111
1, 12485, Note_on_c, 0, 70, 95
1, 12598, Note_off_c, 0, 70, 95
1, 12600, Note_on_c, 0, 69, 96
1, 12666, Note_off_c, 0, 69, 96
1, 12673, Note_on_c, 0, 70, 87
1, 12869, Note_off_c, 0, 70, 87
1, 12911, Note_on_c, 0, 70, 86
1, 13029, Note_off_c, 0, 70, 86
1, 13481, Note_on_c, 0, 62, 92
1, 13564, Note_off_c, 0, 62, 92
1, 13571, Note_on_c, 0, 64, 93
1, 13639, Note_off_c, 0, 64, 93
1, 13639, Note_on_c, 0, 67, 106
1, 13762, Note_off_c, 0, 67, 106
1, 13825, Note_on_c, 0, 72, 121
1, 13935, Note_off_c, 0, 72, 121
1, 14043, Note_on_c, 0, 75, 110
1, 14146, Note_off_c, 0, 75, 110
1, 14148, Note_on_c, 0, 72, 114
1, 14241, Note_off_c, 0, 72, 114
1, 14250, Note_on_c, 0, 73, 104
1, 14343, Note_off_c, 0, 73, 104
1, 14350, Note_on_c, 0, 72, 101
1, 14443, Note_off_c, 0, 72, 101
1, 14445, Note_on_c, 0, 70, 97
1, 14511, Note_off_c, 0, 70, 97
1, 14520, Note_on_c, 0, 69, 99
1, 14593, Note_off_c, 0, 69, 99
1, 14602, Note_on_c, 0, 67, 96
1, 14705, Note_off_c, 0, 67, 96
1, 14714, Note_on_c, 0, 65, 88
1, 14790, Note_off_c, 0, 65, 88
1, 14802, Note_on_c, 0, 64, 96
1, 14890, Note_off_c, 0, 64, 96
1, 14902, Note_on_c, 0, 62, 100
1, 14997, Note_off_c, 0, 62, 100
1, 15014, Note_on_c, 0, 60, 88
1, 15080, Note_off_c, 0, 60, 88
1, 15094, Note_on_c, 0, 58, 89
1, 15155, Note_off_c, 0, 58, 89
1, 15191, Note_on_c, 0, 57, 89
1, 15269, Note_off_c, 0, 57, 89
1, 15278, Note_on_c, 0, 60, 88
1, 15341, Note_off_c, 0, 60, 88
1, 15358, Note_on_c, 0, 65, 105
1, 15453, Note_off_c, 0, 65, 105
1, 16159, Note_on_c, 0, 58, 88
1, 16237, Note_off_c, 0, 58, 88
1, 16241, Note_on_c, 0, 60, 92
1, 16317, Note_off_c, 0, 60, 92
1, 16336, Note_on_c, 0, 61, 95
1, 16439, Note_off_c, 0, 61, 95
1, 16439, Note_on_c, 0, 60, 94
1, 16530, Note_off_c, 0, 60, 94
1, 16539, Note_on_c, 0, 58, 89
1, 16625, Note_off_c, 0, 58, 89
1, 16625, Note_on_c, 0, 61, 88
1, 16716, Note_off_c, 0, 61, 88
1, 16716, Note_on_c, 0, 65, 106
1, 16821, Note_off_c, 0, 65, 106
1, 16823, Note_on_c, 0, 68, 103
1, 16906, Note_off_c, 0, 68, 103
1, 16908, Note_on_c, 0, 65, 99
1, 17008, Note_off_c, 0, 65, 99
1, 17015, Note_on_c, 0, 67, 91
1, 17081, Note_off_c, 0, 67, 91
1, 17105, Note_on_c, 0, 69, 94
1, 17181, Note_off_c, 0, 69, 94
1, 17190, Note_on_c, 0, 70, 84
1, 17251, Note_off_c, 0, 70, 84
1, 17260, Note_on_c, 0, 72, 116
1, 17358, Note_off_c, 0, 72, 116
1, 17365, Note_on_c, 0, 71, 103
1, 17433, Note_off_c, 0, 71, 103
1, 17440, Note_on_c, 0, 70, 89
1, 17612, Note_off_c, 0, 70, 89
1, 17646, Note_on_c, 0, 68, 99
1, 17741, Note_off_c, 0, 68, 99
1, 17753, Note_on_c, 0, 67, 98
1, 17846, Note_off_c, 0, 67, 98
1, 17858, Note_on_c, 0, 65, 97
1, 17946, Note_off_c, 0, 65, 97
1, 17960, Note_on_c, 0, 63, 97
1, 18043, Note_off_c, 0, 63, 97
1, 18052, Note_on_c, 0, 61, 90
1, 18143, Note_off_c, 0, 61, 90
1, 18147, Note_on_c, 0, 60, 95
1, 18235, Note_off_c, 0, 60, 95
1, 18239, Note_on_c, 0, 58, 87
1, 18307, Note_off_c, 0, 58, 87
1, 18316, Note_on_c, 0, 56, 89
1, 18382, Note_off_c, 0, 56, 89
1, 18411, Note_on_c, 0, 55, 93
1, 18502, Note_off_c, 0, 55, 93
1, 18502, Note_on_c, 0, 56, 90
1, 18580, Note_off_c, 0, 56, 90
1, 18602, Note_on_c, 0, 58, 93
1, 18695, Note_off_c, 0, 58, 93
1, 18736, Note_on_c, 0, 55, 89
1, 18814, Note_off_c, 0, 55, 89
1, 18818, Note_on_c, 0, 56, 90
1, 18896, Note_off_c, 0, 56, 90
1, 18898, Note_on_c, 0, 57, 92
1, 18998, Note_off_c, 0, 57, 92
1, 19007, Note_on_c, 0, 58, 93
1, 19127, Note_off_c, 0, 58, 93
1, 19134, Note_on_c, 0, 59, 95
1, 19210, Note_off_c, 0, 59, 95
1, 19214, Note_on_c, 0, 60, 95
1, 19332, Note_off_c, 0, 60, 95
1, 19339, Note_on_c, 0, 62, 95
1, 19434, Note_off_c, 0, 62, 95
1, 19448, Note_on_c, 0, 63, 89
1, 19536, Note_off_c, 0, 63, 89
1, 19536, Note_on_c, 0, 65, 108
1, 19656, Note_off_c, 0, 65, 108
1, 19663, Note_on_c, 0, 66, 99
1, 19731, Note_off_c, 0, 66, 99
1, 19738, Note_on_c, 0, 67, 97
1, 19829, Note_off_c, 0, 67, 97
1, 19833, Note_on_c, 0, 68, 95
1, 19904, Note_off_c, 0, 68, 95
1, 19916, Note_on_c, 0, 69, 103
1, 20026, Note_off_c, 0, 69, 103
1, 20033, Note_on_c, 0, 70, 90
1, 20089, Note_off_c, 0, 70, 90
1, 20096, Note_on_c, 0, 71, 97
1, 20179, Note_off_c, 0, 71, 97
1, 20193, Note_on_c, 0, 72, 92
1, 20271, Note_off_c, 0, 72, 92
1, 20278, Note_on_c, 0, 73, 96
1, 20465, Note_off_c, 0, 73, 96
1, 21621, Note_on_c, 0, 72, 106
1, 21746, Note_off_c, 0, 72, 106
1, 21753, Note_on_c, 0, 70, 102
1, 21866, Note_off_c, 0, 70, 102
1, 21868, Note_on_c, 0, 69, 89
1, 21939, Note_off_c, 0, 69, 89
1, 21943, Note_on_c, 0, 72, 87
1, 22021, Note_off_c, 0, 72, 87
1, 22030, Note_on_c, 0, 77, 120
1, 22145, Note_off_c, 0, 77, 120
1, 22376, Note_on_c, 0, 75, 113
1, 22496, Note_off_c, 0, 75, 113
1, 22503, Note_on_c, 0, 73, 101
1, 22586, Note_off_c, 0, 73, 101
1, 22586, Note_on_c, 0, 72, 104
1, 22689, Note_off_c, 0, 72, 104
1, 22689, Note_on_c, 0, 70, 105
1, 22780, Note_off_c, 0, 70, 105
1, 22782, Note_on_c, 0, 69, 100
1, 22865, Note_off_c, 0, 69, 100
1, 22874, Note_on_c, 0, 67, 103
1, 22962, Note_off_c, 0, 67, 103
1, 22979, Note_on_c, 0, 65, 100
1, 23072, Note_off_c, 0, 65, 100
1, 23081, Note_on_c, 0, 64, 94
1, 23147, Note_off_c, 0, 64, 94
1, 23183, Note_on_c, 0, 62, 95
1, 23372, Note_off_c, 0, 62, 95
1, 23372, Note_on_c, 0, 61, 89
1, 23544, Note_off_c, 0, 61, 89
1, 23551, Note_on_c, 0, 64, 95
1, 23718, Note_off_c, 0, 64, 95
1, 23725, Note_on_c, 0, 69, 75
1, 24094, Note_off_c, 0, 69, 75
1, 25309, Note_on_c, 0, 67, 112
1, 25377, Note_off_c, 0, 67, 112
1, 25384, Note_on_c, 0, 66, 103
1, 25440, Note_off_c, 0, 66, 103
1, 25447, Note_on_c, 0, 67, 102
1, 25496, Note_off_c, 0, 67, 102
1, 25573, Note_on_c, 0, 77, 121
1, 25636, Note_off_c, 0, 77, 121
1, 26210, Note_on_c, 0, 69, 97
1, 26281, Note_off_c, 0, 69, 97
1, 26288, Note_on_c, 0, 70, 86
1, 26349, Note_off_c, 0, 70, 86
1, 26351, Note_on_c, 0, 72, 117
1, 26466, Note_off_c, 0, 72, 117
1, 26475, Note_on_c, 0, 71, 112
1, 26561, Note_off_c, 0, 71, 112
1, 26573, Note_on_c, 0, 70, 102
1, 26654, Note_off_c, 0, 70, 102
1, 26658, Note_on_c, 0, 69, 105
1, 26746, Note_off_c, 0, 69, 105
1, 26750, Note_on_c, 0, 67, 101
1, 26863, Note_off_c, 0, 67, 101
1, 26872, Note_on_c, 0, 65, 94
1, 26943, Note_off_c, 0, 65, 94
1, 27068, Note_on_c, 0, 64, 89
1, 27117, Note_off_c, 0, 64, 89
1, 27121, Note_on_c, 0, 67, 104
1, 27214, Note_off_c, 0, 67, 104
1, 27233, Note_on_c, 0, 64, 85
1, 27292, Note_off_c, 0, 64, 85
1, 27299, Note_on_c, 0, 65, 94
1, 27436, Note_off_c, 0, 65, 94
1, 27436, Note_on_c, 0, 67, 85
1, 27487, Note_off_c, 0, 67, 85
1, 27506, Note_on_c, 0, 69, 105
1, 27611, Note_off_c, 0, 69, 105
1, 27625, Note_on_c, 0, 67, 99
1, 27711, Note_off_c, 0, 67, 99
1, 27720, Note_on_c, 0, 65, 79
1, 27818, Note_off_c, 0, 65, 79
1, 27820, Note_on_c, 0, 64, 86
1, 27915, Note_off_c, 0, 64, 86
1, 27934, Note_on_c, 0, 62, 80
1, 27997, Note_off_c, 0, 62, 80
1, 28001, Note_on_c, 0, 65, 86
1, 28074, Note_off_c, 0, 65, 86
1, 28174, Note_on_c, 0, 72, 77
1, 28272, Note_off_c, 0, 72, 77
1, 28289, Note_on_c, 0, 76, 123
1, 28412, Note_off_c, 0, 76, 123
1, 28416, Note_on_c, 0, 75, 108
1, 28482, Note_off_c, 0, 75, 108
1, 28489, Note_on_c, 0, 74, 106
1, 28562, Note_off_c, 0, 74, 106
1, 28574, Note_on_c, 0, 73, 108
1, 28662, Note_off_c, 0, 73, 108
1, 28671, Note_on_c, 0, 72, 93
1, 28811, Note_off_c, 0, 72, 93
1, 29987, Note_on_c, 0, 77, 122
1, 30114, Note_off_c, 0, 77, 122
1, 30114, Note_on_c, 0, 78, 123
1, 30190, Note_off_c, 0, 78, 123
1, 30207, Note_on_c, 0, 79, 119
1, 30295, Note_off_c, 0, 79, 119
1, 30307, Note_on_c, 0, 76, 123
1, 30398, Note_off_c, 0, 76, 123
1, 30405, Note_on_c, 0, 75, 110
1, 30508, Note_off_c, 0, 75, 110
1, 30515, Note_on_c, 0, 73, 108
1, 30593, Note_off_c, 0, 73, 108
1, 30602, Note_on_c, 0, 72, 106
1, 30678, Note_off_c, 0, 72, 106
1, 30695, Note_on_c, 0, 70, 87
1, 30776, Note_off_c, 0, 70, 87
1, 30783, Note_on_c, 0, 69, 84
1, 30866, Note_off_c, 0, 69, 84
1, 30875, Note_on_c, 0, 70, 78
1, 30946, Note_off_c, 0, 70, 78
1, 30963, Note_on_c, 0, 72, 111
1, 31046, Note_off_c, 0, 72, 111
1, 31082, Note_on_c, 0, 65, 95
1, 31148, Note_off_c, 0, 65, 95
1, 31155, Note_on_c, 0, 67, 78
1, 31233, Note_off_c, 0, 67, 78
1, 31240, Note_on_c, 0, 69, 78
1, 31299, Note_off_c, 0, 69, 78
1, 31313, Note_on_c, 0, 70, 101
1, 31413, Note_off_c, 0, 70, 101
1, 31432, Note_on_c, 0, 67, 88
1, 31495, Note_off_c, 0, 67, 88
1, 31694, Note_on_c, 0, 72, 109
1, 31807, Note_off_c, 0, 72, 109
1, 31814, Note_on_c, 0, 71, 102
1, 31902, Note_off_c, 0, 71, 102
1, 31909, Note_on_c, 0, 70, 94
1, 31990, Note_off_c, 0, 70, 94
1, 31992, Note_on_c, 0, 69, 98
1, 32068, Note_off_c, 0, 69, 98
1, 32077, Note_on_c, 0, 67, 100
1, 32172, Note_off_c, 0, 67, 100
1, 32196, Note_on_c, 0, 65, 83
1, 32296, Note_off_c, 0, 65, 83
1, 32394, Note_on_c, 0, 64, 80
1, 32465, Note_off_c, 0, 64, 80
1, 32469, Note_on_c, 0, 67, 82
1, 32567, Note_off_c, 0, 67, 82
1, 32579, Note_on_c, 0, 64, 84
1, 32650, Note_off_c, 0, 64, 84
1, 32674, Note_on_c, 0, 65, 101
1, 32733, Note_off_c, 0, 65, 101
1, 32733, Note_on_c, 0, 69, 90
1, 32792, Note_off_c, 0, 69, 90
1, 32806, Note_on_c, 0, 74, 108
1, 32867, Note_off_c, 0, 74, 108
1, 32881, Note_on_c, 0, 72, 96
1, 32984, Note_off_c, 0, 72, 96
1, 33943, Note_on_c, 0, 72, 103
1, 34019, Note_off_c, 0, 72, 103
1, 34023, Note_on_c, 0, 74, 98
1, 34077, Note_off_c, 0, 74, 98
1, 34084, Note_on_c, 0, 76, 108
1, 34140, Note_off_c, 0, 76, 108
1, 34152, Note_on_c, 0, 77, 112
1, 34289, Note_off_c, 0, 77, 112
1, 34357, Note_on_c, 0, 65, 97
1, 34465, Note_off_c, 0, 65, 97
1, 34516, Note_on_c, 0, 75, 115
1, 34643, Note_off_c, 0, 75, 115
1, 34655, Note_on_c, 0, 72, 108
1, 34733, Note_off_c, 0, 72, 108
1, 34735, Note_on_c, 0, 73, 108
1, 34838, Note_off_c, 0, 73, 108
1, 34838, Note_on_c, 0, 72, 98
1, 34919, Note_off_c, 0, 72, 98
1, 34921, Note_on_c, 0, 70, 83
1, 35012, Note_off_c, 0, 70, 83
1, 35021, Note_on_c, 0, 69, 97
1, 35107, Note_off_c, 0, 69, 97
1, 35116, Note_on_c, 0, 67, 95
1, 35204, Note_off_c, 0, 67, 95
1, 35218, Note_on_c, 0, 65, 93
1, 35301, Note_off_c, 0, 65, 93
1, 35310, Note_on_c, 0, 63, 83
1, 35380, Note_off_c, 0, 63, 83
1, 35393, Note_on_c, 0, 61, 90
1, 35682, Note_off_c, 0, 61, 90
1, 35686, Note_on_c, 0, 64, 93
1, 35806, Note_off_c, 0, 64, 93
1, 35818, Note_on_c, 0, 61, 77
1, 35909, Note_off_c, 0, 61, 77
1, 35918, Note_on_c, 0, 62, 83
1, 36228, Note_off_c, 0, 62, 83
1, 36272, Note_on_c, 0, 65, 97
1, 36838, Note_off_c, 0, 65, 97
1, 36842, Note_on_c, 0, 68, 107
1, 36933, Note_off_c, 0, 68, 107
1, 36937, Note_on_c, 0, 66, 94
1, 37018, Note_off_c, 0, 66, 94
1, 37035, Note_on_c, 0, 67, 84
1, 37367, Note_off_c, 0, 67, 84
1, 37369, Note_on_c, 0, 70, 105
1, 37464, Note_off_c, 0, 70, 105
1, 37481, Note_on_c, 0, 67, 92
1, 37554, Note_off_c, 0, 67, 92
1, 37554, Note_on_c, 0, 69, 79
1, 37937, Note_off_c, 0, 69, 79
1, 37944, Note_on_c, 0, 72, 101
1, 38089, Note_off_c, 0, 72, 101
1, 38095, Note_on_c, 0, 69, 93
1, 38195, Note_off_c, 0, 69, 93
1, 38230, Note_on_c, 0, 74, 115
1, 38350, Note_off_c, 0, 74, 115
1, 38354, Note_on_c, 0, 72, 109
1, 38442, Note_off_c, 0, 72, 109
1, 38449, Note_on_c, 0, 70, 93
1, 38522, Note_off_c, 0, 70, 93
1, 38529, Note_on_c, 0, 69, 78
1, 38644, Note_off_c, 0, 69, 78
1, 38710, Note_on_c, 0, 72, 108
1, 38805, Note_off_c, 0, 72, 108
1, 38817, Note_on_c, 0, 70, 94
1, 38890, Note_off_c, 0, 70, 94
1, 38897, Note_on_c, 0, 69, 95
1, 38973, Note_off_c, 0, 69, 95
1, 38990, Note_on_c, 0, 67, 96
1, 39068, Note_off_c, 0, 67, 96
1, 39075, Note_on_c, 0, 65, 90
1, 39166, Note_off_c, 0, 65, 90
1, 39168, Note_on_c, 0, 64, 91
1, 39249, Note_off_c, 0, 64, 91
1, 39268, Note_on_c, 0, 62, 79
1, 39339, Note_off_c, 0, 62, 79
1, 39361, Note_on_c, 0, 67, 98
1, 39449, Note_off_c, 0, 67, 98
1, 39458, Note_on_c, 0, 64, 85
1, 39539, Note_off_c, 0, 64, 85
1, 39598, Note_on_c, 0, 60, 88
1, 39674, Note_off_c, 0, 60, 88
1, 39676, Note_on_c, 0, 65, 99
1, 39752, Note_off_c, 0, 65, 99
1, 39769, Note_on_c, 0, 67, 94
1, 39850, Note_off_c, 0, 67, 94
1, 39869, Note_on_c, 0, 68, 90
1, 39947, Note_off_c, 0, 68, 90
1, 39959, Note_on_c, 0, 70, 75
1, 40022, Note_off_c, 0, 70, 75
1, 40039, Note_on_c, 0, 72, 99
1, 40142, Note_off_c, 0, 72, 99
1, 40142, Note_on_c, 0, 68, 91
1, 40228, Note_off_c, 0, 68, 91
1, 40240, Note_on_c, 0, 65, 85
1, 40338, Note_off_c, 0, 65, 85
1, 40355, Note_on_c, 0, 61, 76
1, 40418, Note_off_c, 0, 61, 76
1, 40418, Note_on_c, 0, 69, 99
1, 40521, Note_off_c, 0, 69, 99
1, 40535, Note_on_c, 0, 70, 83
1, 40601, Note_off_c, 0, 70, 83
1, 40610, Note_on_c, 0, 72, 110
1, 40715, Note_off_c, 0, 72, 110
1, 40732, Note_on_c, 0, 70, 102
1, 40783, Note_off_c, 0, 70, 102
1, 40795, Note_on_c, 0, 69, 92
1, 40863, Note_off_c, 0, 69, 92
1, 40872, Note_on_c, 0, 70, 85
1, 40926, Note_off_c, 0, 70, 85
1, 40930, Note_on_c, 0, 73, 96
1, 40984, Note_off_c, 0, 73, 96
1, 40988, Note_on_c, 0, 77, 119
1, 41056, Note_off_c, 0, 77, 119
1, 41060, Note_on_c, 0, 75, 100
1, 41224, Note_off_c, 0, 75, 100
1, 42078, Note_on_c, 0, 72, 102
1, 42161, Note_off_c, 0, 72, 102
1, 42165, Note_on_c, 0, 73, 109
1, 42219, Note_off_c, 0, 73, 109
1, 42231, Note_on_c, 0, 75, 110
1, 42280, Note_off_c, 0, 75, 110
1, 42284, Note_on_c, 0, 77, 123
1, 42404, Note_off_c, 0, 77, 123
1, 42431, Note_on_c, 0, 75, 115
1, 42519, Note_off_c, 0, 75, 115
1, 42528, Note_on_c, 0, 73, 112
1, 42606, Note_off_c, 0, 73, 112
1, 42625, Note_on_c, 0, 72, 107
1, 42703, Note_off_c, 0, 72, 107
1, 42705, Note_on_c, 0, 70, 99
1, 42776, Note_off_c, 0, 70, 99
1, 42778, Note_on_c, 0, 68, 100
1, 42881, Note_off_c, 0, 68, 100
1, 42885, Note_on_c, 0, 67, 96
1, 42973, Note_off_c, 0, 67, 96
1, 42990, Note_on_c, 0, 68, 95
1, 43046, Note_off_c, 0, 68, 95
1, 43058, Note_on_c, 0, 70, 108
1, 43153, Note_off_c, 0, 70, 108
1, 43165, Note_on_c, 0, 67, 99
1, 43246, Note_off_c, 0, 67, 99
1, 43268, Note_on_c, 0, 71, 115
1, 43361, Note_off_c, 0, 71, 115
1, 43375, Note_on_c, 0, 69, 106
1, 43461, Note_off_c, 0, 69, 106
1, 43461, Note_on_c, 0, 67, 102
1, 43547, Note_off_c, 0, 67, 102
1, 43551, Note_on_c, 0, 66, 97
1, 43639, Note_off_c, 0, 66, 97
1, 43648, Note_on_c, 0, 64, 84
1, 43758, Note_off_c, 0, 64, 84
1, 43765, Note_on_c, 0, 62, 90
1, 43851, Note_off_c, 0, 62, 90
1, 43858, Note_on_c, 0, 61, 88
1, 44032, Note_off_c, 0, 61, 88
1, 44039, Note_on_c, 0, 64, 101
1, 44127, Note_off_c, 0, 64, 101
1, 44139, Note_on_c, 0, 61, 88
1, 44220, Note_off_c, 0, 61, 88
1, 44227, Note_on_c, 0, 62, 87
1, 44322, Note_off_c, 0, 62, 87
1, 44329, Note_on_c, 0, 64, 91
1, 44400, Note_off_c, 0, 64, 91
1, 44414, Note_on_c, 0, 65, 98
1, 44519, Note_off_c, 0, 65, 98
1, 44528, Note_on_c, 0, 67, 91
1, 44609, Note_off_c, 0, 67, 91
1, 44616, Note_on_c, 0, 68, 106
1, 44702, Note_off_c, 0, 68, 106
1, 44704, Note_on_c, 0, 65, 96
1, 44785, Note_off_c, 0, 65, 96
1, 44792, Note_on_c, 0, 66, 89
1, 44863, Note_off_c, 0, 66, 89
1, 44880, Note_on_c, 0, 67, 87
1, 44961, Note_off_c, 0, 67, 87
1, 44975, Note_on_c, 0, 70, 99
1, 45073, Note_off_c, 0, 70, 99
1, 45082, Note_on_c, 0, 67, 95
1, 45168, Note_off_c, 0, 67, 95
1, 45236, Note_on_c, 0, 69, 89
1, 45304, Note_off_c, 0, 69, 89
1, 45321, Note_on_c, 0, 72, 115
1, 45431, Note_off_c, 0, 72, 115
1, 45450, Note_on_c, 0, 69, 99
1, 45516, Note_off_c, 0, 69, 99
1, 45525, Note_on_c, 0, 70, 97
1, 45571, Note_off_c, 0, 70, 97
1, 45585, Note_on_c, 0, 75, 112
1, 45676, Note_off_c, 0, 75, 112
1, 45688, Note_on_c, 0, 72, 121
1, 45759, Note_off_c, 0, 72, 121
1, 45788, Note_on_c, 0, 73, 123
1, 45834, Note_off_c, 0, 73, 123
1, 45848, Note_on_c, 0, 72, 115
1, 45907, Note_off_c, 0, 72, 115
1, 45916, Note_on_c, 0, 70, 108
1, 45984, Note_off_c, 0, 70, 108
1, 45991, Note_on_c, 0, 69, 102
1, 46052, Note_off_c, 0, 69, 102
1, 46052, Note_on_c, 0, 67, 101
1, 46113, Note_off_c, 0, 67, 101
1, 46130, Note_on_c, 0, 65, 100
1, 46255, Note_off_c, 0, 65, 100
1, 47214, Note_on_c, 0, 79, 118
1, 47324, Note_off_c, 0, 79, 118
1, 47333, Note_on_c, 0, 78, 124
1, 47421, Note_off_c, 0, 78, 124
1, 47423, Note_on_c, 0, 77, 121
1, 47511, Note_off_c, 0, 77, 121
1, 47520, Note_on_c, 0, 76, 122
1, 47625, Note_on_c, 0, 75, 112
1, 47625, Note_off_c, 0, 76, 122
1, 47720, Note_off_c, 0, 75, 112
1, 47742, Note_on_c, 0, 73, 115
1, 47835, Note_off_c, 0, 73, 115
1, 47847, Note_on_c, 0, 72, 105
1, 47933, Note_off_c, 0, 72, 105
1, 47945, Note_on_c, 0, 70, 98
1, 48011, Note_off_c, 0, 70, 98
1, 48028, Note_on_c, 0, 69, 95
1, 48089, Note_off_c, 0, 69, 95
1, 48101, Note_on_c, 0, 70, 87
1, 48155, Note_off_c, 0, 70, 87
1, 48169, Note_on_c, 0, 72, 115
1, 48274, Note_off_c, 0, 72, 115
1, 48308, Note_on_c, 0, 65, 100
1, 48391, Note_off_c, 0, 65, 100
1, 48398, Note_on_c, 0, 66, 92
1, 48457, Note_off_c, 0, 66, 92
1, 48469, Note_on_c, 0, 70, 105
1, 48557, Note_off_c, 0, 70, 105
1, 48557, Note_on_c, 0, 69, 105
1, 48677, Note_off_c, 0, 69, 105
1, 48684, Note_on_c, 0, 67, 98
1, 48755, Note_off_c, 0, 67, 98
1, 48772, Note_on_c, 0, 68, 105
1, 48848, Note_off_c, 0, 68, 105
1, 48855, Note_on_c, 0, 70, 89
1, 48886, Note_off_c, 0, 70, 89
1, 48888, Note_on_c, 0, 72, 105
1, 49001, Note_off_c, 0, 72, 105
1, 49015, Note_on_c, 0, 69, 104
1, 49096, Note_off_c, 0, 69, 104
1, 49103, Note_on_c, 0, 70, 105
1, 49174, Note_off_c, 0, 70, 105
1, 49183, Note_on_c, 0, 71, 83
1, 49498, Note_off_c, 0, 71, 83
1, 50091, Note_on_c, 0, 71, 100
1, 50184, Note_off_c, 0, 71, 100
1, 50188, Note_on_c, 0, 72, 96
1, 50286, Note_off_c, 0, 72, 96
1, 50300, Note_on_c, 0, 76, 24
1, 50398, Note_off_c, 0, 76, 24
1, 50420, Note_on_c, 0, 74, 116
1, 50479, Note_off_c, 0, 74, 116
1, 50501, Note_on_c, 0, 69, 107
1, 50577, Note_off_c, 0, 69, 107
1, 50589, Note_on_c, 0, 70, 88
1, 50657, Note_off_c, 0, 70, 88
1, 50671, Note_on_c, 0, 74, 122
1, 50779, Note_off_c, 0, 74, 122
1, 50779, Note_on_c, 0, 72, 111
1, 50865, Note_off_c, 0, 72, 111
1, 50882, Note_on_c, 0, 67, 92
1, 50975, Note_off_c, 0, 67, 92
1, 51002, Note_on_c, 0, 69, 79
1, 51070, Note_off_c, 0, 69, 79
1, 51084, Note_on_c, 0, 72, 125
1, 51172, Note_off_c, 0, 72, 125
1, 51176, Note_on_c, 0, 71, 116
1, 51244, Note_off_c, 0, 71, 116
1, 51244, Note_on_c, 0, 70, 107
1, 51347, Note_off_c, 0, 70, 107
1, 51359, Note_on_c, 0, 69, 105
1, 51430, Note_off_c, 0, 69, 105
1, 51437, Note_on_c, 0, 67, 99
1, 51520, Note_off_c, 0, 67, 99
1, 51534, Note_on_c, 0, 65, 99
1, 51620, Note_off_c, 0, 65, 99
1, 51713, Note_on_c, 0, 64, 79
1, 51784, Note_off_c, 0, 64, 79
1, 51801, Note_on_c, 0, 67, 98
1, 51864, Note_off_c, 0, 67, 98
1, 51886, Note_on_c, 0, 64, 97
1, 51937, Note_off_c, 0, 64, 97
1, 51954, Note_on_c, 0, 65, 100
1, 52045, Note_off_c, 0, 65, 100
1, 52111, Note_on_c, 0, 76, 106
1, 52204, Note_off_c, 0, 76, 106
1, 52208, Note_on_c, 0, 74, 107
1, 52286, Note_off_c, 0, 74, 107
1, 52300, Note_on_c, 0, 72, 72
1, 52361, Note_off_c, 0, 72, 72
1, 52361, End_track
0, 0, End_of_file
