0, 0, Header, 1, 1, 192
1, 0, Start_track
1, 0, Title_t, "Melody"
1, 0, Tempo, 260869
1, 0, Key_signature, -2, "major"
1, 0, Time_signature, 4, 2, 24, 8
1, 3960, Note_on_c, 0, 72, 108
1, 4000, Note_off_c, 0, 72, 108
1, 4006, Note_on_c, 0, 70, 110
1, 4069, Note_off_c, 0, 70, 110
1, 4077, Note_on_c, 0, 69, 93
1, 4180, Note_off_c, 0, 69, 93
1, 4187, Note_on_c, 0, 70, 91
1, 4233, Note_off_c, 0, 70, 91
1, 4241, Note_on_c, 0, 72, 111
1, 4331, Note_off_c, 0, 72, 111
1, 4347, Note_on_c, 0, 70, 107
1, 4444, Note_off_c, 0, 70, 107
1, 4447, Note_on_c, 0, 69, 99
1, 4550, Note_off_c, 0, 69, 99
1, 4554, Note_on_c, 0, 70, 96
1, 4602, Note_off_c, 0, 70, 96
1, 4617, Note_on_c, 0, 74, 107
1, 4693, Note_off_c, 0, 74, 107
1, 4712, Note_on_c, 0, 70, 111
1, 4793, Note_off_c, 0, 70, 111
1, 4808, Note_on_c, 0, 65, 104
1, 4884, Note_off_c, 0, 65, 104
1, 4900, Note_on_c, 0, 64, 93
1, 4954, Note_off_c, 0, 64, 93
1, 4973, Note_on_c, 0, 69, 112
1, 5136, Note_off_c, 0, 69, 112
1, 5167, Note_on_c, 0, 72, 111
1, 5250, Note_off_c, 0, 72, 111
1, 5254, Note_on_c, 0, 69, 117
1, 5352, Note_off_c, 0, 69, 117
1, 5358, Note_on_c, 0, 70, 114
1, 5444, Note_off_c, 0, 70, 114
1, 5449, Note_on_c, 0, 69, 119
1, 5535, Note_off_c, 0, 69, 119
1, 5540, Note_on_c, 0, 68, 119
1, 5640, Note_off_c, 0, 68, 119
1, 5646, Note_on_c, 0, 67, 109
1, 5722, Note_off_c, 0, 67, 109
1, 5727, Note_on_c, 0, 65, 105
1, 5833, Note_off_c, 0, 65, 105
1, 5841, Note_on_c, 0, 63, 95
1, 5897, Note_off_c, 0, 63, 95
1, 5906, Note_on_c, 0, 61, 85
1, 6025, Note_off_c, 0, 61, 85
1, 6039, Note_on_c, 0, 62, 89
1, 6080, Note_off_c, 0, 62, 89
1, 6100, Note_on_c, 0, 70, 114
1, 6192, Note_off_c, 0, 70, 114
1, 6201, Note_on_c, 0, 65, 107
1, 6282, Note_off_c, 0, 65, 107
1, 6303, Note_on_c, 0, 62, 89
1, 6389, Note_off_c, 0, 62, 89
1, 6408, Note_on_c, 0, 58, 93
1, 6472, Note_off_c, 0, 58, 93
1, 6484, Note_on_c, 0, 63, 99
1, 6580, Note_off_c, 0, 63, 99
1, 6587, Note_on_c, 0, 60, 99
1, 6647, Note_off_c, 0, 60, 99
1, 6679, Note_on_c, 0, 63, 100
1, 6771, Note_off_c, 0, 63, 100
1, 6785, Note_on_c, 0, 61, 93
1, 7092, Note_off_c, 0, 61, 93
1, 9136, Note_on_c, 0, 69, 108
1, 9293, Note_off_c, 0, 69, 108
1, 9298, Note_on_c, 0, 71, 102
1, 9408, Note_off_c, 0, 71, 102
1, 9415, Note_on_c, 0, 74, 96
1, 9483, Note_off_c, 0, 74, 96
1, 9492, Note_on_c, 0, 79, 121
1, 9599, Note_off_c, 0, 79, 121
1, 9606, Note_on_c, 0, 78, 116
1, 9663, Note_off_c, 0, 78, 116
1, 9671, Note_on_c, 0, 77, 117
1, 9776, Note_off_c, 0, 77, 117
1, 9790, Note_on_c, 0, 76, 115
1, 9866, Note_off_c, 0, 76, 115
1, 9875, Note_on_c, 0, 75, 119
1, 9965, Note_off_c, 0, 75, 119
1, 9973, Note_on_c, 0, 74, 97
1, 10056, Note_off_c, 0, 74, 97
1, 10067, Note_on_c, 0, 72, 103
1, 10144, Note_off_c, 0, 72, 103
1, 10157, Note_on_c, 0, 71, 112
1, 10260, Note_off_c, 0, 71, 112
1, 10269, Note_on_c, 0, 70, 115
1, 10357, Note_off_c, 0, 70, 115
1, 10359, Note_on_c, 0, 67, 116
1, 10466, Note_off_c, 0, 67, 116
1, 10474, Note_on_c, 0, 63, 87
1, 10555, Note_off_c, 0, 63, 87
1, 10574, Note_on_c, 0, 60, 98
1, 10629, Note_off_c, 0, 60, 98
1, 10659, Note_on_c, 0, 65, 111
1, 10757, Note_off_c, 0, 65, 111
1, 10764, Note_on_c, 0, 66, 97
1, 10819, Note_off_c, 0, 66, 97
1, 10823, Note_on_c, 0, 69, 112
1, 10923, Note_off_c, 0, 69, 112
1, 10929, Note_on_c, 0, 68, 114
1, 11019, Note_off_c, 0, 68, 114
1, 11024, Note_on_c, 0, 66, 111
1, 11117, Note_off_c, 0, 66, 111
1, 11131, Note_on_c, 0, 65, 110
1, 11221, Note_off_c, 0, 65, 110
1, 11229, Note_on_c, 0, 63, 88
1, 11295, Note_off_c, 0, 63, 88
1, 11340, Note_on_c, 0, 61, 86
1, 11400, Note_off_c, 0, 61, 86
1, 11402, Note_on_c, 0, 62, 83
1, 11493, Note_off_c, 0, 62, 83
1, 11517, Note_on_c, 0, 65, 96
1, 11571, Note_off_c, 0, 65, 96
1, 11583, Note_on_c, 0, 67, 93
1, 11690, Note_off_c, 0, 67, 93
1, 11701, Note_on_c, 0, 65, 91
1, 11744, Note_off_c, 0, 65, 91
1, 11752, Note_on_c, 0, 69, 114
1, 11923, Note_off_c, 0, 69, 114
1, 11956, Note_on_c, 0, 72, 114
1, 12052, Note_off_c, 0, 72, 114
1, 12061, Note_on_c, 0, 70, 109
1, 12141, Note_off_c, 0, 70, 109
1, 12154, Note_on_c, 0, 69, 95
1, 12267, Note_off_c, 0, 69, 95
1, 12323, Note_on_c, 0, 74, 112
1, 12419, Note_off_c, 0, 74, 112
1, 12440, Note_on_c, 0, 74, 114
1, 12520, Note_off_c, 0, 74, 114
1, 12525, Note_on_c, 0, 77, 120
1, 12616, Note_off_c, 0, 77, 120
1, 12626, Note_on_c, 0, 77, 118
1, 12700, Note_off_c, 0, 77, 118
1, 12717, Note_on_c, 0, 74, 109
1, 12793, Note_off_c, 0, 74, 109
1, 12819, Note_on_c, 0, 74, 110
1, 12892, Note_off_c, 0, 74, 110
1, 12908, Note_on_c, 0, 70, 104
1, 13005, Note_off_c, 0, 70, 104
1, 13014, Note_on_c, 0, 70, 107
1, 13089, Note_off_c, 0, 70, 107
1, 13095, Note_on_c, 0, 67, 118
1, 13187, Note_off_c, 0, 67, 118
1, 13206, Note_on_c, 0, 67, 117
1, 13269, Note_off_c, 0, 67, 117
1, 13292, Note_on_c, 0, 70, 98
1, 13614, Note_off_c, 0, 70, 98
1, 13657, Note_on_c, 0, 67, 106
1, 13795, Note_off_c, 0, 67, 106
1, 13854, Note_on_c, 0, 72, 105
1, 13951, Note_off_c, 0, 72, 105
1, 13973, Note_on_c, 0, 67, 108
1, 14079, Note_off_c, 0, 67, 108
1, 14155, Note_on_c, 0, 70, 92
1, 14520, Note_off_c, 0, 70, 92
1, 15667, Note_on_c, 0, 72, 105
1, 15730, Note_off_c, 0, 72, 105
1, 15761, Note_on_c, 0, 66, 103
1, 15880, Note_off_c, 0, 66, 103
1, 15887, Note_on_c, 0, 67, 85
1, 15945, Note_off_c, 0, 67, 85
1, 15959, Note_on_c, 0, 70, 96
1, 16055, Note_off_c, 0, 70, 96
1, 16078, Note_on_c, 0, 73, 95
1, 16133, Note_off_c, 0, 73, 95
1, 16145, Note_on_c, 0, 77, 122
1, 16268, Note_off_c, 0, 77, 122
1, 16273, Note_on_c, 0, 76, 113
1, 16332, Note_off_c, 0, 76, 113
1, 16336, Note_on_c, 0, 75, 116
1, 16420, Note_off_c, 0, 75, 116
1, 16425, Note_on_c, 0, 74, 115
1, 16514, Note_off_c, 0, 74, 115
1, 16519, Note_on_c, 0, 72, 113
1, 16602, Note_off_c, 0, 72, 113
1, 16608, Note_on_c, 0, 71, 117
1, 16701, Note_off_c, 0, 71, 117
1, 16706, Note_on_c, 0, 70, 113
1, 16799, Note_off_c, 0, 70, 113
1, 16804, Note_on_c, 0, 67, 116
1, 16895, Note_off_c, 0, 67, 116
1, 16901, Note_on_c, 0, 63, 89
1, 17004, Note_off_c, 0, 63, 89
1, 17010, Note_on_c, 0, 60, 88
1, 17076, Note_off_c, 0, 60, 88
1, 17091, Note_on_c, 0, 66, 115
1, 17234, Note_off_c, 0, 66, 115
1, 17234, Note_on_c, 0, 63, 93
1, 17267, Note_off_c, 0, 63, 93
1, 17273, Note_on_c, 0, 65, 103
1, 17402, Note_off_c, 0, 65, 103
1, 17416, Note_on_c, 0, 63, 91
1, 17464, Note_off_c, 0, 63, 91
1, 17480, Note_on_c, 0, 60, 94
1, 17600, Note_off_c, 0, 60, 94
1, 17606, Note_on_c, 0, 61, 91
1, 17659, Note_off_c, 0, 61, 91
1, 17669, Note_on_c, 0, 62, 89
1, 17748, Note_off_c, 0, 62, 89
1, 17769, Note_on_c, 0, 65, 102
1, 17841, Note_off_c, 0, 65, 102
1, 17844, Note_on_c, 0, 67, 123
1, 17966, Note_off_c, 0, 67, 123
1, 17971, Note_on_c, 0, 65, 100
1, 18032, Note_off_c, 0, 65, 100
1, 18043, Note_on_c, 0, 70, 115
1, 18149, Note_off_c, 0, 70, 115
1, 18156, Note_on_c, 0, 69, 119
1, 18228, Note_off_c, 0, 69, 119
1, 18237, Note_on_c, 0, 68, 117
1, 18348, Note_off_c, 0, 68, 117
1, 18356, Note_on_c, 0, 70, 99
1, 18407, Note_off_c, 0, 70, 99
1, 18421, Note_on_c, 0, 71, 109
1, 18522, Note_off_c, 0, 71, 109
1, 18526, Note_on_c, 0, 67, 110
1, 18658, Note_off_c, 0, 67, 110
1, 19101, Note_on_c, 0, 70, 106
1, 19141, Note_off_c, 0, 70, 106
1, 19147, Note_on_c, 0, 69, 113
1, 19170, Note_off_c, 0, 69, 113
1, 19173, Note_on_c, 0, 67, 115
1, 19234, Note_off_c, 0, 67, 115
1, 19243, Note_on_c, 0, 65, 105
1, 19343, Note_off_c, 0, 65, 105
1, 20157, Note_on_c, 0, 70, 109
1, 20260, Note_off_c, 0, 70, 109
1, 20273, Note_on_c, 0, 70, 103
1, 20334, Note_off_c, 0, 70, 103
1, 20338, Note_on_c, 0, 69, 92
1, 20448, Note_off_c, 0, 69, 92
1, 20460, Note_on_c, 0, 70, 94
1, 20527, Note_off_c, 0, 70, 94
1, 20532, Note_on_c, 0, 72, 109
1, 20627, Note_off_c, 0, 72, 109
1, 20637, Note_on_c, 0, 70, 112
1, 20717, Note_off_c, 0, 70, 112
1, 20727, Note_on_c, 0, 69, 111
1, 20813, Note_off_c, 0, 69, 111
1, 20818, Note_on_c, 0, 67, 111
1, 20886, Note_off_c, 0, 67, 111
1, 20900, Note_on_c, 0, 65, 108
1, 20972, Note_off_c, 0, 65, 108
1, 20975, Note_on_c, 0, 66, 98
1, 21024, Note_off_c, 0, 66, 98
1, 21028, Note_on_c, 0, 65, 108
1, 21080, Note_off_c, 0, 65, 108
1, 21093, Note_on_c, 0, 62, 89
1, 21169, Note_off_c, 0, 62, 89
1, 21201, Note_on_c, 0, 65, 97
1, 21267, Note_off_c, 0, 65, 97
1, 21290, Note_on_c, 0, 70, 115
1, 21380, Note_off_c, 0, 70, 115
1, 21393, Note_on_c, 0, 70, 99
1, 21421, Note_off_c, 0, 70, 99
1, 21437, Note_on_c, 0, 65, 105
1, 21498, Note_off_c, 0, 65, 105
1, 21502, Note_on_c, 0, 67, 110
1, 21584, Note_off_c, 0, 67, 110
1, 21600, Note_on_c, 0, 70, 106
1, 21641, Note_off_c, 0, 70, 106
1, 21648, Note_on_c, 0, 67, 103
1, 21711, Note_off_c, 0, 67, 103
1, 21717, Note_on_c, 0, 63, 85
1, 21770, Note_off_c, 0, 63, 85
1, 21815, Note_on_c, 0, 67, 88
1, 21869, Note_off_c, 0, 67, 88
1, 21890, Note_on_c, 0, 72, 117
1, 21976, Note_off_c, 0, 72, 117
1, 21987, Note_on_c, 0, 67, 108
1, 22058, Note_off_c, 0, 67, 108
1, 22061, Note_on_c, 0, 69, 103
1, 22143, Note_off_c, 0, 69, 103
1, 22149, Note_on_c, 0, 70, 115
1, 22199, Note_off_c, 0, 70, 115
1, 22202, Note_on_c, 0, 69, 110
1, 22252, Note_off_c, 0, 69, 110
1, 22254, Note_on_c, 0, 65, 105
1, 22385, Note_off_c, 0, 65, 105
1, 22629, Note_on_c, 0, 67, 109
1, 22748, Note_off_c, 0, 67, 109
1, 22749, Note_on_c, 0, 69, 94
1, 22788, Note_off_c, 0, 69, 94
1, 22803, Note_on_c, 0, 72, 115
1, 22901, Note_off_c, 0, 72, 115
1, 22914, Note_on_c, 0, 70, 114
1, 22998, Note_off_c, 0, 70, 114
1, 23010, Note_on_c, 0, 69, 108
1, 23078, Note_off_c, 0, 69, 108
1, 23086, Note_on_c, 0, 70, 102
1, 23163, Note_off_c, 0, 70, 102
1, 23180, Note_on_c, 0, 72, 108
1, 23288, Note_off_c, 0, 72, 108
1, 23293, Note_on_c, 0, 74, 111
1, 23356, Note_off_c, 0, 74, 111
1, 23362, Note_on_c, 0, 75, 117
1, 23460, Note_off_c, 0, 75, 117
1, 23470, Note_on_c, 0, 76, 108
1, 23553, Note_off_c, 0, 76, 108
1, 23554, Note_on_c, 0, 77, 119
1, 23659, Note_off_c, 0, 77, 119
1, 23666, Note_on_c, 0, 74, 110
1, 23722, Note_off_c, 0, 74, 110
1, 23728, Note_on_c, 0, 70, 117
1, 23832, Note_off_c, 0, 70, 117
1, 23841, Note_on_c, 0, 69, 118
1, 23935, Note_off_c, 0, 69, 118
1, 23939, Note_on_c, 0, 67, 96
1, 24024, Note_off_c, 0, 67, 96
1, 24039, Note_on_c, 0, 68, 112
1, 24132, Note_off_c, 0, 68, 112
1, 24235, Note_on_c, 0, 74, 115
1, 24307, Note_off_c, 0, 74, 115
1, 24315, Note_on_c, 0, 78, 119
1, 24423, Note_off_c, 0, 78, 119
1, 24429, Note_on_c, 0, 74, 112
1, 24510, Note_off_c, 0, 74, 112
1, 24520, Note_on_c, 0, 71, 118
1, 24594, Note_off_c, 0, 71, 118
1, 24605, Note_on_c, 0, 68, 108
1, 24694, Note_off_c, 0, 68, 108
1, 24706, Note_on_c, 0, 66, 95
1, 24845, Note_off_c, 0, 66, 95
1, 24979, Note_on_c, 0, 70, 82
1, 25023, Note_off_c, 0, 70, 82
1, 25032, Note_on_c, 0, 73, 97
1, 25087, Note_off_c, 0, 73, 97
1, 25099, Note_on_c, 0, 75, 115
1, 25226, Note_off_c, 0, 75, 115
1, 25235, Note_on_c, 0, 73, 92
1, 25279, Note_off_c, 0, 73, 92
1, 25288, Note_on_c, 0, 75, 113
1, 25394, Note_off_c, 0, 75, 113
1, 25401, Note_on_c, 0, 73, 85
1, 25659, Note_off_c, 0, 73, 85
1, 26881, Note_on_c, 0, 69, 113
1, 26965, Note_off_c, 0, 69, 113
1, 26968, Note_on_c, 0, 72, 110
1, 27063, Note_off_c, 0, 72, 110
1, 27073, Note_on_c, 0, 70, 110
1, 27172, Note_off_c, 0, 70, 110
1, 27177, Note_on_c, 0, 69, 110
1, 27279, Note_off_c, 0, 69, 110
1, 27281, Note_on_c, 0, 70, 107
1, 27341, Note_off_c, 0, 70, 107
1, 27347, Note_on_c, 0, 69, 114
1, 27461, Note_off_c, 0, 69, 114
1, 27473, Note_on_c, 0, 68, 96
1, 27544, Note_off_c, 0, 68, 96
1, 27553, Note_on_c, 0, 67, 102
1, 27646, Note_off_c, 0, 67, 102
1, 27662, Note_on_c, 0, 69, 101
1, 27723, Note_off_c, 0, 69, 101
1, 27728, Note_on_c, 0, 70, 113
1, 27827, Note_off_c, 0, 70, 113
1, 27835, Note_on_c, 0, 67, 107
1, 27930, Note_off_c, 0, 67, 107
1, 27938, Note_on_c, 0, 63, 87
1, 28046, Note_off_c, 0, 63, 87
1, 28058, Note_on_c, 0, 60, 97
1, 28119, Note_off_c, 0, 60, 97
1, 28132, Note_on_c, 0, 65, 111
1, 28246, Note_off_c, 0, 65, 111
1, 28251, Note_on_c, 0, 64, 104
1, 28319, Note_off_c, 0, 64, 104
1, 28345, Note_on_c, 0, 63, 100
1, 28386, Note_off_c, 0, 63, 100
1, 28389, Note_on_c, 0, 62, 88
1, 28421, Note_off_c, 0, 62, 88
1, 28456, Note_on_c, 0, 51, 100
1, 28502, Note_off_c, 0, 51, 100
1, 28526, Note_on_c, 0, 53, 96
1, 28616, Note_off_c, 0, 53, 96
1, 28646, Note_on_c, 0, 57, 100
1, 28684, Note_off_c, 0, 57, 100
1, 28706, Note_on_c, 0, 61, 111
1, 28819, Note_off_c, 0, 61, 111
1, 28828, Note_on_c, 0, 57, 104
1, 28872, Note_off_c, 0, 57, 104
1, 28889, Note_on_c, 0, 60, 107
1, 29000, Note_off_c, 0, 60, 107
1, 29011, Note_on_c, 0, 58, 107
1, 29085, Note_off_c, 0, 58, 107
1, 29088, Note_on_c, 0, 57, 108
1, 29150, Note_off_c, 0, 57, 108
1, 29179, Note_on_c, 0, 70, 104
1, 29261, Note_off_c, 0, 70, 104
1, 29281, Note_on_c, 0, 67, 118
1, 29379, Note_off_c, 0, 67, 118
1, 29386, Note_on_c, 0, 66, 107
1, 29468, Note_off_c, 0, 66, 107
1, 29481, Note_on_c, 0, 53, 112
1, 29567, Note_off_c, 0, 53, 112
1, 29581, Note_on_c, 0, 51, 115
1, 29672, Note_off_c, 0, 51, 115
1, 29827, Note_on_c, 0, 53, 98
1, 29887, Note_off_c, 0, 53, 98
1, 29889, Note_on_c, 0, 55, 105
1, 29976, Note_off_c, 0, 55, 105
1, 29987, Note_on_c, 0, 53, 99
1, 30061, Note_off_c, 0, 53, 99
1, 30073, Note_on_c, 0, 58, 107
1, 30204, Note_off_c, 0, 58, 107
1, 30919, Note_on_c, 0, 62, 107
1, 31016, Note_off_c, 0, 62, 107
1, 31020, Note_on_c, 0, 56, 100
1, 31119, Note_off_c, 0, 56, 100
1, 31124, Note_on_c, 0, 57, 101
1, 31198, Note_off_c, 0, 57, 101
1, 31209, Note_on_c, 0, 60, 115
1, 31315, Note_off_c, 0, 60, 115
1, 31321, Note_on_c, 0, 58, 105
1, 31400, Note_off_c, 0, 58, 105
1, 31584, Note_on_c, 0, 62, 95
1, 31679, Note_off_c, 0, 62, 95
1, 31702, Note_on_c, 0, 65, 95
1, 31755, Note_off_c, 0, 65, 95
1, 31771, Note_on_c, 0, 67, 107
1, 31874, Note_off_c, 0, 67, 107
1, 31883, Note_on_c, 0, 65, 95
1, 31933, Note_off_c, 0, 65, 95
1, 31946, Note_on_c, 0, 70, 114
1, 32045, Note_off_c, 0, 70, 114
1, 32061, Note_on_c, 0, 67, 107
1, 32130, Note_off_c, 0, 67, 107
1, 32150, Note_on_c, 0, 63, 88
1, 32247, Note_off_c, 0, 63, 88
1, 32258, Note_on_c, 0, 60, 88
1, 32315, Note_off_c, 0, 60, 88
1, 32322, Note_on_c, 0, 65, 112
1, 32398, Note_off_c, 0, 65, 112
1, 32401, Note_on_c, 0, 67, 106
1, 32445, Note_off_c, 0, 67, 106
1, 32452, Note_on_c, 0, 65, 109
1, 32535, Note_off_c, 0, 65, 109
1, 32556, Note_on_c, 0, 64, 91
1, 32656, Note_off_c, 0, 64, 91
1, 32674, Note_on_c, 0, 65, 100
1, 32732, Note_off_c, 0, 65, 100
1, 32750, Note_on_c, 0, 67, 120
1, 32840, Note_off_c, 0, 67, 120
1, 32850, Note_on_c, 0, 65, 103
1, 32996, Note_off_c, 0, 65, 103
1, 33079, Note_on_c, 0, 70, 114
1, 33222, Note_off_c, 0, 70, 114
1, 33235, Note_on_c, 0, 72, 108
1, 33268, Note_off_c, 0, 72, 108
1, 33276, Note_on_c, 0, 70, 114
1, 33316, Note_off_c, 0, 70, 114
1, 33322, Note_on_c, 0, 69, 92
1, 33417, Note_off_c, 0, 69, 92
1, 33433, Note_on_c, 0, 70, 80
1, 33476, Note_off_c, 0, 70, 80
1, 33487, Note_on_c, 0, 72, 111
1, 33583, Note_off_c, 0, 72, 111
1, 33588, Note_on_c, 0, 70, 116
1, 33674, Note_off_c, 0, 70, 116
1, 33686, Note_on_c, 0, 69, 98
1, 33754, Note_off_c, 0, 69, 98
1, 33765, Note_on_c, 0, 70, 92
1, 33845, Note_off_c, 0, 70, 92
1, 33850, Note_on_c, 0, 73, 115
1, 33948, Note_off_c, 0, 73, 115
1, 33962, Note_on_c, 0, 75, 105
1, 33988, Note_off_c, 0, 75, 105
1, 33993, Note_on_c, 0, 73, 118
1, 34043, Note_off_c, 0, 73, 118
1, 34052, Note_on_c, 0, 72, 103
1, 34138, Note_off_c, 0, 72, 103
1, 34180, Note_on_c, 0, 73, 99
1, 34229, Note_off_c, 0, 73, 99
1, 34246, Note_on_c, 0, 75, 118
1, 34336, Note_off_c, 0, 75, 118
1, 34351, Note_on_c, 0, 73, 106
1, 34416, Note_off_c, 0, 73, 106
1, 34424, Note_on_c, 0, 70, 113
1, 34534, Note_off_c, 0, 70, 113
1, 34538, Note_on_c, 0, 67, 98
1, 34658, Note_off_c, 0, 67, 98
1, 35590, Note_on_c, 0, 73, 120
1, 35722, Note_off_c, 0, 73, 120
1, 35780, Note_on_c, 0, 74, 112
1, 35889, Note_off_c, 0, 74, 112
1, 35894, Note_on_c, 0, 75, 102
1, 35927, Note_off_c, 0, 75, 102
1, 35928, Note_on_c, 0, 74, 115
1, 35979, Note_off_c, 0, 74, 115
1, 35981, Note_on_c, 0, 69, 109
1, 36119, Note_off_c, 0, 69, 109
1, 36176, Note_on_c, 0, 70, 109
1, 36282, Note_off_c, 0, 70, 109
1, 36293, Note_on_c, 0, 74, 106
1, 36342, Note_off_c, 0, 74, 106
1, 36345, Note_on_c, 0, 70, 101
1, 36380, Note_off_c, 0, 70, 101
1, 36385, Note_on_c, 0, 65, 100
1, 36503, Note_off_c, 0, 65, 100
1, 36566, Note_on_c, 0, 68, 122
1, 36669, Note_off_c, 0, 68, 122
1, 36672, Note_on_c, 0, 67, 115
1, 36786, Note_off_c, 0, 67, 115
1, 36874, Note_on_c, 0, 67, 99
1, 36932, Note_off_c, 0, 67, 99
1, 36942, Note_on_c, 0, 70, 111
1, 37056, Note_off_c, 0, 70, 111
1, 37064, Note_on_c, 0, 67, 98
1, 37119, Note_off_c, 0, 67, 98
1, 37126, Note_on_c, 0, 70, 112
1, 37230, Note_off_c, 0, 70, 112
1, 37243, Note_on_c, 0, 74, 113
1, 37306, Note_off_c, 0, 74, 113
1, 37309, Note_on_c, 0, 77, 120
1, 37445, Note_off_c, 0, 77, 120
1, 37448, Note_on_c, 0, 76, 113
1, 37489, Note_off_c, 0, 76, 113
1, 37495, Note_on_c, 0, 75, 107
1, 37605, Note_off_c, 0, 75, 107
1, 37658, Note_on_c, 0, 65, 106
1, 37723, Note_off_c, 0, 65, 106
1, 37737, Note_on_c, 0, 66, 99
1, 37814, Note_off_c, 0, 66, 99
1, 37833, Note_on_c, 0, 69, 88
1, 37885, Note_off_c, 0, 69, 88
1, 37906, Note_on_c, 0, 74, 108
1, 38034, Note_off_c, 0, 74, 108
1, 38039, Note_on_c, 0, 69, 95
1, 38078, Note_off_c, 0, 69, 95
1, 38103, Note_on_c, 0, 74, 112
1, 38211, Note_off_c, 0, 74, 112
1, 38220, Note_on_c, 0, 72, 107
1, 38311, Note_off_c, 0, 72, 107
1, 38315, Note_on_c, 0, 69, 112
1, 38418, Note_off_c, 0, 69, 112
1, 38429, Note_on_c, 0, 65, 102
1, 38480, Note_off_c, 0, 65, 102
1, 38493, Note_on_c, 0, 70, 84
1, 38835, Note_off_c, 0, 70, 84
1, 40046, Note_on_c, 0, 70, 113
1, 40125, Note_off_c, 0, 70, 113
1, 40127, Note_on_c, 0, 72, 99
1, 40169, Note_off_c, 0, 72, 99
1, 40172, Note_on_c, 0, 70, 111
1, 40215, Note_off_c, 0, 70, 111
1, 40219, Note_on_c, 0, 67, 113
1, 40323, Note_off_c, 0, 67, 113
1, 40416, Note_on_c, 0, 70, 115
1, 40517, Note_off_c, 0, 70, 115
1, 40521, Note_on_c, 0, 72, 107
1, 40561, Note_off_c, 0, 72, 107
1, 40566, Note_on_c, 0, 70, 115
1, 40621, Note_off_c, 0, 70, 115
1, 40624, Note_on_c, 0, 67, 118
1, 40712, Note_off_c, 0, 67, 118
1, 40809, Note_on_c, 0, 70, 118
1, 40919, Note_off_c, 0, 70, 118
1, 40924, Note_on_c, 0, 72, 101
1, 40952, Note_off_c, 0, 72, 101
1, 40955, Note_on_c, 0, 70, 111
1, 40998, Note_off_c, 0, 70, 111
1, 41007, Note_on_c, 0, 67, 101
1, 41120, Note_off_c, 0, 67, 101
1, 41130, Note_on_c, 0, 69, 79
1, 41176, Note_off_c, 0, 69, 79
1, 41183, Note_on_c, 0, 72, 114
1, 41287, Note_off_c, 0, 72, 114
1, 41289, Note_on_c, 0, 73, 112
1, 41407, Note_off_c, 0, 73, 112
1, 41409, Note_on_c, 0, 72, 116
1, 41473, Note_off_c, 0, 72, 116
1, 41485, Note_on_c, 0, 71, 115
1, 41553, Note_off_c, 0, 71, 115
1, 41565, Note_on_c, 0, 70, 115
1, 41663, Note_off_c, 0, 70, 115
1, 41670, Note_on_c, 0, 67, 114
1, 41776, Note_off_c, 0, 67, 114
1, 41788, Note_on_c, 0, 63, 88
1, 41862, Note_off_c, 0, 63, 88
1, 41875, Note_on_c, 0, 60, 85
1, 41933, Note_off_c, 0, 60, 85
1, 41944, Note_on_c, 0, 65, 114
1, 42060, Note_off_c, 0, 65, 114
1, 42074, Note_on_c, 0, 63, 89
1, 42148, Note_off_c, 0, 63, 89
1, 42166, Note_on_c, 0, 60, 84
1, 42235, Note_off_c, 0, 60, 84
1, 42255, Note_on_c, 0, 61, 94
1, 42330, Note_off_c, 0, 61, 94
1, 42346, Note_on_c, 0, 62, 95
1, 42427, Note_off_c, 0, 62, 95
1, 42453, Note_on_c, 0, 65, 108
1, 42506, Note_off_c, 0, 65, 108
1, 42515, Note_on_c, 0, 67, 124
1, 42636, Note_off_c, 0, 67, 124
1, 42647, Note_on_c, 0, 65, 103
1, 42707, Note_off_c, 0, 65, 103
1, 42713, Note_on_c, 0, 70, 117
1, 42826, Note_off_c, 0, 70, 117
1, 42838, Note_on_c, 0, 71, 108
1, 43107, Note_off_c, 0, 71, 108
1, 43117, Note_on_c, 0, 70, 85
1, 43480, Note_off_c, 0, 70, 85
1, 45077, Note_on_c, 0, 69, 107
1, 45213, Note_off_c, 0, 69, 107
1, 45230, Note_on_c, 0, 74, 101
1, 45326, Note_off_c, 0, 74, 101
1, 45350, Note_on_c, 0, 76, 111
1, 45408, Note_off_c, 0, 76, 111
1, 45427, Note_on_c, 0, 81, 122
1, 45523, Note_off_c, 0, 81, 122
1, 45539, Note_on_c, 0, 82, 124
1, 45624, Note_off_c, 0, 82, 124
1, 45630, Note_on_c, 0, 81, 121
1, 45720, Note_off_c, 0, 81, 121
1, 45723, Note_on_c, 0, 79, 121
1, 45810, Note_off_c, 0, 79, 121
1, 45818, Note_on_c, 0, 78, 119
1, 45906, Note_off_c, 0, 78, 119
1, 45921, Note_on_c, 0, 77, 121
1, 45993, Note_off_c, 0, 77, 121
1, 45999, Note_on_c, 0, 74, 113
1, 46079, Note_off_c, 0, 74, 113
1, 46095, Note_on_c, 0, 71, 102
1, 46190, Note_off_c, 0, 71, 102
1, 46202, Note_on_c, 0, 66, 99
1, 46297, Note_off_c, 0, 66, 99
1, 46307, Note_on_c, 0, 67, 89
1, 46363, Note_off_c, 0, 67, 89
1, 46366, Note_on_c, 0, 70, 105
1, 46459, Note_off_c, 0, 70, 105
1, 46489, Note_on_c, 0, 74, 108
1, 46568, Note_off_c, 0, 74, 108
1, 46571, Note_on_c, 0, 77, 119
1, 46717, Note_off_c, 0, 77, 119
1, 46720, Note_on_c, 0, 76, 107
1, 46759, Note_off_c, 0, 76, 107
1, 46768, Note_on_c, 0, 75, 107
1, 46864, Note_off_c, 0, 75, 107
1, 46882, Note_on_c, 0, 67, 121
1, 46975, Note_off_c, 0, 67, 121
1, 46979, Note_on_c, 0, 66, 101
1, 47038, Note_off_c, 0, 66, 101
1, 47087, Note_on_c, 0, 67, 97
1, 47139, Note_off_c, 0, 67, 97
1, 47172, Note_on_c, 0, 74, 110
1, 47268, Note_off_c, 0, 74, 110
1, 47278, Note_on_c, 0, 73, 109
1, 47360, Note_off_c, 0, 73, 109
1, 47366, Note_on_c, 0, 72, 95
1, 47465, Note_off_c, 0, 72, 95
1, 47483, Note_on_c, 0, 65, 97
1, 47583, Note_off_c, 0, 65, 97
1, 47662, Note_on_c, 0, 69, 107
1, 47725, Note_off_c, 0, 69, 107
1, 47742, Note_on_c, 0, 72, 107
1, 47838, Note_off_c, 0, 72, 107
1, 47850, Note_on_c, 0, 70, 120
1, 47928, Note_off_c, 0, 70, 120
1, 47931, Note_on_c, 0, 69, 121
1, 48013, Note_off_c, 0, 69, 121
1, 48019, Note_on_c, 0, 70, 116
1, 48081, Note_off_c, 0, 70, 116
1, 48087, Note_on_c, 0, 69, 124
1, 48211, Note_off_c, 0, 69, 124
1, 48220, Note_on_c, 0, 67, 121
1, 48294, Note_off_c, 0, 67, 121
1, 48301, Note_on_c, 0, 66, 114
1, 48389, Note_off_c, 0, 66, 114
1, 48404, Note_on_c, 0, 65, 113
1, 48503, Note_off_c, 0, 65, 113
1, 48509, Note_on_c, 0, 63, 96
1, 48610, Note_off_c, 0, 63, 96
1, 48620, Note_on_c, 0, 61, 99
1, 48704, Note_off_c, 0, 61, 99
1, 48710, Note_on_c, 0, 62, 90
1, 48806, Note_off_c, 0, 62, 90
1, 48829, Note_on_c, 0, 65, 100
1, 48883, Note_off_c, 0, 65, 100
1, 48891, Note_on_c, 0, 67, 126
1, 49010, Note_off_c, 0, 67, 126
1, 49014, Note_on_c, 0, 65, 104
1, 49073, Note_off_c, 0, 65, 104
1, 49078, Note_on_c, 0, 69, 127
1, 49207, Note_off_c, 0, 69, 127
1, 49213, Note_on_c, 0, 70, 105
1, 49280, Note_off_c, 0, 70, 105
1, 49291, Note_on_c, 0, 72, 104
1, 49384, Note_off_c, 0, 72, 104
1, 49392, Note_on_c, 0, 70, 117
1, 49471, Note_off_c, 0, 70, 117
1, 49474, Note_on_c, 0, 69, 117
1, 49557, Note_off_c, 0, 69, 117
1, 49561, Note_on_c, 0, 70, 110
1, 49609, Note_off_c, 0, 70, 110
1, 49612, Note_on_c, 0, 69, 122
1, 49683, Note_off_c, 0, 69, 122
1, 49685, Note_on_c, 0, 70, 83
1, 50020, Note_off_c, 0, 70, 83
1, 50757, Note_on_c, 0, 72, 122
1, 50838, Note_off_c, 0, 72, 122
1, 50844, Note_on_c, 0, 74, 108
1, 50952, Note_off_c, 0, 74, 108
1, 50957, Note_on_c, 0, 69, 105
1, 51030, Note_off_c, 0, 69, 105
1, 51036, Note_on_c, 0, 72, 114
1, 51134, Note_off_c, 0, 72, 114
1, 51141, Note_on_c, 0, 70, 113
1, 51225, Note_off_c, 0, 70, 113
1, 51233, Note_on_c, 0, 69, 109
1, 51322, Note_off_c, 0, 69, 109
1, 51334, Note_on_c, 0, 70, 108
1, 51390, Note_off_c, 0, 70, 108
1, 51411, Note_on_c, 0, 67, 115
1, 51519, Note_off_c, 0, 67, 115
1, 51523, Note_on_c, 0, 66, 108
1, 51604, Note_off_c, 0, 66, 108
1, 51607, Note_on_c, 0, 65, 102
1, 51703, Note_off_c, 0, 65, 102
1, 51710, Note_on_c, 0, 76, 115
1, 51767, Note_off_c, 0, 76, 115
1, 51772, Note_on_c, 0, 77, 117
1, 51977, Note_off_c, 0, 77, 117
1, 52021, Note_on_c, 0, 74, 108
1, 52097, Note_off_c, 0, 74, 108
1, 52103, Note_on_c, 0, 72, 114
1, 52192, Note_off_c, 0, 72, 114
1, 52199, Note_on_c, 0, 70, 109
1, 52291, Note_off_c, 0, 70, 109
1, 52293, Note_on_c, 0, 65, 104
1, 52492, Note_off_c, 0, 65, 104
1, 52509, Note_on_c, 0, 65, 104
1, 52574, Note_off_c, 0, 65, 104
1, 52580, Note_on_c, 0, 67, 117
1, 52697, Note_off_c, 0, 67, 117
1, 52704, Note_on_c, 0, 65, 87
1, 53038, Note_off_c, 0, 65, 87
1, 53673, Note_on_c, 0, 67, 112
1, 53739, Note_off_c, 0, 67, 112
1, 53751, Note_on_c, 0, 70, 110
1, 53866, Note_off_c, 0, 70, 110
1, 53874, Note_on_c, 0, 72, 112
1, 53948, Note_off_c, 0, 72, 112
1, 53961, Note_on_c, 0, 73, 111
1, 54066, Note_off_c, 0, 73, 111
1, 54077, Note_on_c, 0, 67, 103
1, 54143, Note_off_c, 0, 67, 103
1, 54155, Note_on_c, 0, 72, 115
1, 54243, Note_off_c, 0, 72, 115
1, 54261, Note_on_c, 0, 71, 117
1, 54333, Note_off_c, 0, 71, 117
1, 54340, Note_on_c, 0, 70, 114
1, 54445, Note_off_c, 0, 70, 114
1, 54451, Note_on_c, 0, 67, 116
1, 54531, Note_off_c, 0, 67, 116
1, 54549, Note_on_c, 0, 63, 91
1, 54668, Note_off_c, 0, 63, 91
1, 54669, Note_on_c, 0, 60, 89
1, 54723, Note_off_c, 0, 60, 89
1, 54730, Note_on_c, 0, 65, 110
1, 54838, Note_off_c, 0, 65, 110
1, 54850, Note_on_c, 0, 63, 94
1, 54935, Note_off_c, 0, 63, 94
1, 54951, Note_on_c, 0, 60, 104
1, 55055, Note_off_c, 0, 60, 104
1, 55065, Note_on_c, 0, 61, 108
1, 55117, Note_off_c, 0, 61, 108
1, 55126, Note_on_c, 0, 62, 106
1, 55241, Note_off_c, 0, 62, 106
1, 55250, Note_on_c, 0, 60, 113
1, 55313, Note_off_c, 0, 60, 113
1, 55327, Note_on_c, 0, 59, 116
1, 55442, Note_off_c, 0, 59, 116
1, 55450, Note_on_c, 0, 55, 104
1, 55509, Note_off_c, 0, 55, 104
1, 55520, Note_on_c, 0, 57, 104
1, 55613, Note_off_c, 0, 57, 104
1, 55623, Note_on_c, 0, 59, 105
1, 55693, Note_off_c, 0, 59, 105
1, 55703, Note_on_c, 0, 62, 108
1, 55816, Note_off_c, 0, 62, 108
1, 55841, Note_on_c, 0, 59, 107
1, 55908, Note_off_c, 0, 59, 107
1, 55915, Note_on_c, 0, 60, 102
1, 56013, Note_off_c, 0, 60, 102
1, 56023, Note_on_c, 0, 62, 102
1, 56104, Note_off_c, 0, 62, 102
1, 56107, Note_on_c, 0, 63, 102
1, 56210, Note_off_c, 0, 63, 102
1, 56222, Note_on_c, 0, 62, 108
1, 56292, Note_off_c, 0, 62, 108
1, 56319, Note_on_c, 0, 60, 112
1, 56405, Note_off_c, 0, 60, 112
1, 56413, Note_on_c, 0, 58, 113
1, 56499, Note_off_c, 0, 58, 113
1, 56508, Note_on_c, 0, 56, 104
1, 56580, Note_off_c, 0, 56, 104
1, 56590, Note_on_c, 0, 57, 107
1, 56672, Note_off_c, 0, 57, 107
1, 56686, Note_on_c, 0, 60, 113
1, 56791, Note_off_c, 0, 60, 113
1, 56802, Note_on_c, 0, 57, 98
1, 56880, Note_off_c, 0, 57, 98
1, 56891, Note_on_c, 0, 58, 98
1, 56972, Note_off_c, 0, 58, 98
1, 56987, Note_on_c, 0, 60, 112
1, 57066, Note_off_c, 0, 60, 112
1, 57077, Note_on_c, 0, 61, 102
1, 57166, Note_off_c, 0, 61, 102
1, 57173, Note_on_c, 0, 62, 101
1, 57249, Note_off_c, 0, 62, 101
1, 57262, Note_on_c, 0, 63, 90
1, 57350, Note_off_c, 0, 63, 90
1, 57361, Note_on_c, 0, 64, 95
1, 57431, Note_off_c, 0, 64, 95
1, 57439, Note_on_c, 0, 65, 111
1, 57553, Note_off_c, 0, 65, 111
1, 57568, Note_on_c, 0, 64, 99
1, 57646, Note_off_c, 0, 64, 99
1, 57659, Note_on_c, 0, 63, 89
1, 57732, Note_off_c, 0, 63, 89
1, 57748, Note_on_c, 0, 60, 94
1, 57952, Note_off_c, 0, 60, 94
1, 57959, Note_on_c, 0, 62, 95
1, 58012, Note_off_c, 0, 62, 95
1, 58022, Note_on_c, 0, 65, 108
1, 58145, Note_off_c, 0, 65, 108
1, 58158, Note_on_c, 0, 67, 95
1, 58204, Note_off_c, 0, 67, 95
1, 58212, Note_on_c, 0, 69, 117
1, 58339, Note_off_c, 0, 69, 117
1, 58349, Note_on_c, 0, 70, 113
1, 58402, Note_off_c, 0, 70, 113
1, 58415, Note_on_c, 0, 72, 105
1, 58472, Note_off_c, 0, 72, 105
1, 58490, Note_on_c, 0, 74, 110
1, 58532, Note_off_c, 0, 74, 110
1, 58539, Note_on_c, 0, 76, 115
1, 58579, Note_off_c, 0, 76, 115
1, 58603, Note_on_c, 0, 81, 123
1, 58655, Note_off_c, 0, 81, 123
1, 58661, Note_on_c, 0, 82, 113
1, 58834, Note_off_c, 0, 82, 113
1, 58834, End_track
0, 0, End_of_file
