0, 0, Header, 1, 1, 192
1, 0, Start_track
1, 0, Title_t, "Melody"
1, 0, Tempo, 284360
1, 0, Key_signature, 1, "major"
1, 0, Time_signature, 4, 2, 24, 8
1, 3861, Note_on_c, 0, 64, 94
1, 3910, Note_off_c, 0, 64, 94
1, 3918, Note_on_c, 0, 67, 122
1, 3995, Note_off_c, 0, 67, 122
1, 4029, Note_on_c, 0, 67, 121
1, 4110, Note_off_c, 0, 67, 121
1, 4221, Note_on_c, 0, 67, 95
1, 4284, Note_off_c, 0, 67, 95
1, 4293, Note_on_c, 0, 69, 120
1, 4403, Note_off_c, 0, 69, 120
1, 4409, Note_on_c, 0, 67, 112
1, 4482, Note_off_c, 0, 67, 112
1, 4504, Note_on_c, 0, 64, 92
1, 4581, Note_off_c, 0, 64, 92
1, 4587, Note_on_c, 0, 67, 110
1, 4850, Note_off_c, 0, 67, 110
1, 5196, Note_on_c, 0, 64, 91
1, 5229, Note_off_c, 0, 64, 91
1, 5237, Note_on_c, 0, 67, 98
1, 5307, Note_off_c, 0, 67, 98
1, 5313, Note_on_c, 0, 70, 97
1, 5361, Note_off_c, 0, 70, 97
1, 5368, Note_on_c, 0, 72, 98
1, 5425, Note_off_c, 0, 72, 98
1, 5432, Note_on_c, 0, 74, 109
1, 5602, Note_off_c, 0, 74, 109
1, 6299, Note_on_c, 0, 67, 118
1, 6369, Note_off_c, 0, 67, 118
1, 6377, Note_on_c, 0, 72, 108
1, 6478, Note_off_c, 0, 72, 108
1, 6483, Note_on_c, 0, 71, 99
1, 6554, Note_off_c, 0, 71, 99
1, 6565, Note_on_c, 0, 69, 102
1, 6669, Note_off_c, 0, 69, 102
1, 6674, Note_on_c, 0, 70, 111
1, 6746, Note_off_c, 0, 70, 111
1, 6755, Note_on_c, 0, 71, 104
1, 6841, Note_off_c, 0, 71, 104
1, 6857, Note_on_c, 0, 67, 93
1, 6981, Note_off_c, 0, 67, 93
1, 7116, Note_on_c, 0, 67, 121
1, 7217, Note_off_c, 0, 67, 121
1, 7228, Note_on_c, 0, 67, 118
1, 7303, Note_off_c, 0, 67, 118
1, 7331, Note_on_c, 0, 64, 85
1, 7397, Note_off_c, 0, 64, 85
1, 7403, Note_on_c, 0, 67, 115
1, 7484, Note_off_c, 0, 67, 115
1, 7492, Note_on_c, 0, 69, 121
1, 7596, Note_off_c, 0, 69, 121
1, 7601, Note_on_c, 0, 67, 111
1, 7692, Note_off_c, 0, 67, 111
1, 7712, Note_on_c, 0, 64, 92
1, 7837, Note_off_c, 0, 64, 92
1, 8177, Note_on_c, 0, 61, 96
1, 8227, Note_off_c, 0, 61, 96
1, 8250, Note_on_c, 0, 63, 96
1, 8329, Note_off_c, 0, 63, 96
1, 8336, Note_on_c, 0, 61, 89
1, 8412, Note_off_c, 0, 61, 89
1, 8422, Note_on_c, 0, 62, 95
1, 8510, Note_off_c, 0, 62, 95
1, 8536, Note_on_c, 0, 60, 101
1, 8614, Note_off_c, 0, 60, 101
1, 8620, Note_on_c, 0, 57, 84
1, 8708, Note_off_c, 0, 57, 84
1, 8731, Note_on_c, 0, 58, 94
1, 8800, Note_off_c, 0, 58, 94
1, 8807, Note_on_c, 0, 60, 105
1, 8926, Note_off_c, 0, 60, 105
1, 8935, Note_on_c, 0, 58, 98
1, 8998, Note_off_c, 0, 58, 98
1, 9012, Note_on_c, 0, 57, 94
1, 9089, Note_off_c, 0, 57, 94
1, 9097, Note_on_c, 0, 58, 100
1, 9170, Note_off_c, 0, 58, 100
1, 9184, Note_on_c, 0, 57, 102
1, 9267, Note_off_c, 0, 57, 102
1, 9279, Note_on_c, 0, 56, 102
1, 9357, Note_off_c, 0, 56, 102
1, 9387, Note_on_c, 0, 55, 89
1, 9452, Note_off_c, 0, 55, 89
1, 9469, Note_on_c, 0, 56, 96
1, 9554, Note_off_c, 0, 56, 96
1, 9568, Note_on_c, 0, 57, 96
1, 9659, Note_off_c, 0, 57, 96
1, 9671, Note_on_c, 0, 60, 99
1, 9737, Note_off_c, 0, 60, 99
1, 9743, Note_on_c, 0, 61, 100
1, 9838, Note_off_c, 0, 61, 100
1, 9855, Note_on_c, 0, 60, 94
1, 9930, Note_off_c, 0, 60, 94
1, 9938, Note_on_c, 0, 63, 93
1, 10031, Note_off_c, 0, 63, 93
1, 10058, Note_on_c, 0, 60, 97
1, 10144, Note_off_c, 0, 60, 97
1, 10959, Note_on_c, 0, 69, 120
1, 11038, Note_off_c, 0, 69, 120
1, 11041, Note_on_c, 0, 70, 110
1, 11142, Note_off_c, 0, 70, 110
1, 11144, Note_on_c, 0, 71, 111
1, 11225, Note_off_c, 0, 71, 111
1, 11233, Note_on_c, 0, 72, 103
1, 11317, Note_off_c, 0, 72, 103
1, 11330, Note_on_c, 0, 69, 125
1, 11414, Note_off_c, 0, 69, 125
1, 11430, Note_on_c, 0, 65, 107
1, 11526, Note_off_c, 0, 65, 107
1, 11542, Note_on_c, 0, 62, 88
1, 11590, Note_off_c, 0, 62, 88
1, 11610, Note_on_c, 0, 67, 119
1, 11737, Note_off_c, 0, 67, 119
1, 11743, Note_on_c, 0, 69, 91
1, 11782, Note_off_c, 0, 69, 91
1, 11809, Note_on_c, 0, 71, 107
1, 11899, Note_off_c, 0, 71, 107
1, 11909, Note_on_c, 0, 69, 116
1, 11986, Note_off_c, 0, 69, 116
1, 11993, Note_on_c, 0, 71, 107
1, 12086, Note_off_c, 0, 71, 107
1, 12091, Note_on_c, 0, 69, 116
1, 12172, Note_off_c, 0, 69, 116
1, 12178, Note_on_c, 0, 71, 105
1, 12278, Note_off_c, 0, 71, 105
1, 12287, Note_on_c, 0, 69, 113
1, 12361, Note_off_c, 0, 69, 113
1, 12365, Note_on_c, 0, 71, 102
1, 12456, Note_off_c, 0, 71, 102
1, 12466, Note_on_c, 0, 69, 112
1, 12546, Note_off_c, 0, 69, 112
1, 12552, Note_on_c, 0, 68, 113
1, 12673, Note_off_c, 0, 68, 113
1, 12689, Note_on_c, 0, 64, 85
1, 12735, Note_off_c, 0, 64, 85
1, 12744, Note_on_c, 0, 66, 87
1, 12828, Note_off_c, 0, 66, 87
1, 12845, Note_on_c, 0, 68, 107
1, 12934, Note_off_c, 0, 68, 107
1, 12947, Note_on_c, 0, 71, 97
1, 13046, Note_off_c, 0, 71, 97
1, 13057, Note_on_c, 0, 68, 88
1, 13108, Note_off_c, 0, 68, 88
1, 13113, Note_on_c, 0, 69, 106
1, 13222, Note_off_c, 0, 69, 106
1, 13233, Note_on_c, 0, 71, 99
1, 13341, Note_off_c, 0, 71, 99
1, 13349, Note_on_c, 0, 72, 96
1, 13496, Note_off_c, 0, 72, 96
1, 13527, Note_on_c, 0, 69, 112
1, 13653, Note_off_c, 0, 69, 112
1, 13691, Note_on_c, 0, 64, 84
1, 13890, Note_off_c, 0, 64, 84
1, 13901, Note_on_c, 0, 60, 86
1, 14044, Note_off_c, 0, 60, 86
1, 14062, Note_on_c, 0, 63, 91
1, 14201, Note_off_c, 0, 63, 91
1, 14205, Note_on_c, 0, 60, 88
1, 14263, Note_off_c, 0, 60, 88
1, 14266, Note_on_c, 0, 62, 93
1, 14352, Note_off_c, 0, 62, 93
1, 14371, Note_on_c, 0, 60, 101
1, 14461, Note_off_c, 0, 60, 101
1, 14569, Note_on_c, 0, 58, 94
1, 14623, Note_off_c, 0, 58, 94
1, 14628, Note_on_c, 0, 59, 83
1, 14724, Note_off_c, 0, 59, 83
1, 14747, Note_on_c, 0, 62, 90
1, 14810, Note_off_c, 0, 62, 90
1, 14828, Note_on_c, 0, 64, 92
1, 14921, Note_off_c, 0, 64, 92
1, 14928, Note_on_c, 0, 66, 94
1, 14985, Note_off_c, 0, 66, 94
1, 14995, Note_on_c, 0, 69, 118
1, 15102, Note_off_c, 0, 69, 118
1, 15112, Note_on_c, 0, 67, 116
1, 15186, Note_off_c, 0, 67, 116
1, 15194, Note_on_c, 0, 66, 101
1, 15285, Note_off_c, 0, 66, 101
1, 15296, Note_on_c, 0, 67, 106
1, 15378, Note_off_c, 0, 67, 106
1, 15392, Note_on_c, 0, 64, 93
1, 15489, Note_off_c, 0, 64, 93
1, 15493, Note_on_c, 0, 63, 90
1, 15550, Note_off_c, 0, 63, 90
1, 15791, Note_on_c, 0, 65, 99
1, 15926, Note_off_c, 0, 65, 99
1, 15937, Note_on_c, 0, 70, 100
1, 16114, Note_off_c, 0, 70, 100
1, 17101, Note_on_c, 0, 65, 102
1, 17198, Note_off_c, 0, 65, 102
1, 17205, Note_on_c, 0, 67, 86
1, 17263, Note_off_c, 0, 67, 86
1, 17271, Note_on_c, 0, 70, 111
1, 17365, Note_off_c, 0, 70, 111
1, 17377, Note_on_c, 0, 74, 113
1, 17468, Note_off_c, 0, 74, 113
1, 17480, Note_on_c, 0, 69, 101
1, 17570, Note_off_c, 0, 69, 101
1, 17575, Note_on_c, 0, 70, 96
1, 17645, Note_off_c, 0, 70, 96
1, 17649, Note_on_c, 0, 72, 114
1, 17759, Note_off_c, 0, 72, 114
1, 17765, Note_on_c, 0, 70, 108
1, 17849, Note_off_c, 0, 70, 108
1, 17858, Note_on_c, 0, 69, 100
1, 17942, Note_off_c, 0, 69, 100
1, 17951, Note_on_c, 0, 67, 106
1, 18045, Note_off_c, 0, 67, 106
1, 18055, Note_on_c, 0, 65, 101
1, 18150, Note_off_c, 0, 65, 101
1, 18157, Note_on_c, 0, 63, 89
1, 18220, Note_off_c, 0, 63, 89
1, 18251, Note_on_c, 0, 60, 88
1, 18345, Note_off_c, 0, 60, 88
1, 18356, Note_on_c, 0, 61, 93
1, 18404, Note_off_c, 0, 61, 93
1, 18416, Note_on_c, 0, 62, 95
1, 18516, Note_off_c, 0, 62, 95
1, 18528, Note_on_c, 0, 63, 85
1, 18579, Note_off_c, 0, 63, 85
1, 18591, Note_on_c, 0, 64, 93
1, 18688, Note_off_c, 0, 64, 93
1, 18701, Note_on_c, 0, 65, 107
1, 18780, Note_off_c, 0, 65, 107
1, 18798, Note_on_c, 0, 67, 108
1, 18903, Note_off_c, 0, 67, 108
1, 18908, Note_on_c, 0, 65, 96
1, 18958, Note_off_c, 0, 65, 96
1, 18963, Note_on_c, 0, 70, 111
1, 19132, Note_off_c, 0, 70, 111
1, 19186, Note_on_c, 0, 69, 94
1, 19218, Note_off_c, 0, 69, 94
1, 19225, Note_on_c, 0, 70, 99
1, 19260, Note_off_c, 0, 70, 99
1, 19279, Note_on_c, 0, 67, 110
1, 19360, Note_off_c, 0, 67, 110
1, 19375, Note_on_c, 0, 63, 89
1, 19469, Note_off_c, 0, 63, 89
1, 19479, Note_on_c, 0, 60, 85
1, 19514, Note_off_c, 0, 60, 85
1, 19524, Note_on_c, 0, 70, 108
1, 19697, Note_off_c, 0, 70, 108
1, 19736, Note_on_c, 0, 69, 100
1, 19767, Note_off_c, 0, 69, 100
1, 19768, Note_on_c, 0, 70, 102
1, 19809, Note_off_c, 0, 70, 102
1, 19823, Note_on_c, 0, 66, 95
1, 19923, Note_off_c, 0, 66, 95
1, 19928, Note_on_c, 0, 63, 80
1, 20003, Note_off_c, 0, 63, 80
1, 20057, Note_on_c, 0, 60, 83
1, 20102, Note_off_c, 0, 60, 83
1, 20108, Note_on_c, 0, 69, 113
1, 20214, Note_off_c, 0, 69, 113
1, 20228, Note_on_c, 0, 70, 92
1, 20284, Note_off_c, 0, 70, 92
1, 20296, Note_on_c, 0, 72, 108
1, 20389, Note_off_c, 0, 72, 108
1, 20406, Note_on_c, 0, 70, 106
1, 20517, Note_off_c, 0, 70, 106
1, 20535, Note_on_c, 0, 69, 102
1, 20573, Note_off_c, 0, 69, 102
1, 20576, Note_on_c, 0, 70, 100
1, 20657, Note_off_c, 0, 70, 100
1, 20661, Note_on_c, 0, 67, 115
1, 20754, Note_off_c, 0, 67, 115
1, 20766, Note_on_c, 0, 66, 107
1, 20857, Note_off_c, 0, 66, 107
1, 20865, Note_on_c, 0, 65, 103
1, 20953, Note_off_c, 0, 65, 103
1, 20973, Note_on_c, 0, 63, 91
1, 21034, Note_off_c, 0, 63, 91
1, 21058, Note_on_c, 0, 60, 91
1, 21153, Note_off_c, 0, 60, 91
1, 21159, Note_on_c, 0, 61, 88
1, 21230, Note_off_c, 0, 61, 88
1, 21234, Note_on_c, 0, 62, 95
1, 21315, Note_off_c, 0, 62, 95
1, 21328, Note_on_c, 0, 61, 79
1, 21392, Note_off_c, 0, 61, 79
1, 21563, Note_on_c, 0, 62, 99
1, 21607, Note_off_c, 0, 62, 99
1, 21625, Note_on_c, 0, 65, 107
1, 21717, Note_off_c, 0, 65, 107
1, 21745, Note_on_c, 0, 62, 100
1, 21784, Note_off_c, 0, 62, 100
1, 21810, Note_on_c, 0, 58, 100
1, 21917, Note_off_c, 0, 58, 100
1, 22005, Note_on_c, 0, 64, 93
1, 22096, Note_off_c, 0, 64, 93
1, 22132, Note_on_c, 0, 55, 92
1, 22205, Note_off_c, 0, 55, 92
1, 22917, Note_on_c, 0, 57, 101
1, 23016, Note_off_c, 0, 57, 101
1, 23022, Note_on_c, 0, 58, 97
1, 23068, Note_off_c, 0, 58, 97
1, 23077, Note_on_c, 0, 60, 105
1, 23129, Note_off_c, 0, 60, 105
1, 23136, Note_on_c, 0, 61, 95
1, 23173, Note_off_c, 0, 61, 95
1, 23176, Note_on_c, 0, 63, 96
1, 23263, Note_off_c, 0, 63, 96
1, 23281, Note_on_c, 0, 60, 105
1, 23359, Note_off_c, 0, 60, 105
1, 23379, Note_on_c, 0, 61, 90
1, 23446, Note_off_c, 0, 61, 90
1, 23455, Note_on_c, 0, 62, 103
1, 23538, Note_off_c, 0, 62, 103
1, 23551, Note_on_c, 0, 57, 90
1, 23575, Note_off_c, 0, 57, 90
1, 23725, Note_on_c, 0, 60, 106
1, 23814, Note_off_c, 0, 60, 106
1, 23832, Note_on_c, 0, 59, 110
1, 23893, Note_off_c, 0, 59, 110
1, 23908, Note_on_c, 0, 57, 106
1, 23974, Note_off_c, 0, 57, 106
1, 23984, Note_on_c, 0, 55, 108
1, 24075, Note_off_c, 0, 55, 108
1, 24095, Note_on_c, 0, 54, 94
1, 24171, Note_off_c, 0, 54, 94
1, 24185, Note_on_c, 0, 55, 98
1, 24253, Note_off_c, 0, 55, 98
1, 24276, Note_on_c, 0, 57, 109
1, 24372, Note_off_c, 0, 57, 109
1, 24393, Note_on_c, 0, 55, 102
1, 24473, Note_off_c, 0, 55, 102
1, 24485, Note_on_c, 0, 54, 91
1, 24562, Note_off_c, 0, 54, 91
1, 24570, Note_on_c, 0, 55, 99
1, 24658, Note_off_c, 0, 55, 99
1, 24847, Note_on_c, 0, 64, 101
1, 24939, Note_off_c, 0, 64, 101
1, 24953, Note_on_c, 0, 62, 89
1, 25008, Note_off_c, 0, 62, 89
1, 25025, Note_on_c, 0, 64, 102
1, 25136, Note_off_c, 0, 64, 102
1, 25145, Note_on_c, 0, 56, 102
1, 25277, Note_off_c, 0, 56, 102
1, 25937, Note_on_c, 0, 57, 103
1, 26007, Note_off_c, 0, 57, 103
1, 26009, Note_on_c, 0, 58, 92
1, 26059, Note_off_c, 0, 58, 92
1, 26063, Note_on_c, 0, 59, 99
1, 26149, Note_off_c, 0, 59, 99
1, 26162, Note_on_c, 0, 60, 108
1, 26275, Note_off_c, 0, 60, 108
1, 26286, Note_on_c, 0, 59, 105
1, 26357, Note_off_c, 0, 59, 105
1, 26382, Note_on_c, 0, 58, 90
1, 26444, Note_off_c, 0, 58, 90
1, 26457, Note_on_c, 0, 59, 96
1, 26531, Note_off_c, 0, 59, 96
1, 26537, Note_on_c, 0, 68, 105
1, 26627, Note_off_c, 0, 68, 105
1, 26652, Note_on_c, 0, 66, 106
1, 26726, Note_off_c, 0, 66, 106
1, 26746, Note_on_c, 0, 64, 97
1, 26833, Note_off_c, 0, 64, 97
1, 26850, Note_on_c, 0, 62, 91
1, 26918, Note_off_c, 0, 62, 91
1, 26931, Note_on_c, 0, 63, 86
1, 27012, Note_off_c, 0, 63, 86
1, 27017, Note_on_c, 0, 65, 101
1, 27102, Note_off_c, 0, 65, 101
1, 27113, Note_on_c, 0, 67, 88
1, 27181, Note_off_c, 0, 67, 88
1, 27210, Note_on_c, 0, 70, 109
1, 27299, Note_off_c, 0, 70, 109
1, 27318, Note_on_c, 0, 68, 106
1, 27428, Note_off_c, 0, 68, 106
1, 27441, Note_on_c, 0, 69, 95
1, 27483, Note_off_c, 0, 69, 95
1, 27489, Note_on_c, 0, 72, 113
1, 27583, Note_off_c, 0, 72, 113
1, 27591, Note_on_c, 0, 75, 108
1, 27660, Note_off_c, 0, 75, 108
1, 27675, Note_on_c, 0, 72, 118
1, 27784, Note_off_c, 0, 72, 118
1, 27792, Note_on_c, 0, 73, 107
1, 27844, Note_off_c, 0, 73, 107
1, 27852, Note_on_c, 0, 74, 112
1, 27951, Note_off_c, 0, 74, 112
1, 27963, Note_on_c, 0, 72, 115
1, 28055, Note_off_c, 0, 72, 115
1, 28061, Note_on_c, 0, 69, 95
1, 28142, Note_off_c, 0, 69, 95
1, 28156, Note_on_c, 0, 70, 108
1, 28227, Note_off_c, 0, 70, 108
1, 28239, Note_on_c, 0, 71, 113
1, 28343, Note_off_c, 0, 71, 113
1, 28379, Note_on_c, 0, 62, 85
1, 28418, Note_off_c, 0, 62, 85
1, 28458, Note_on_c, 0, 67, 84
1, 28528, Note_off_c, 0, 67, 84
1, 28554, Note_on_c, 0, 69, 100
1, 28632, Note_off_c, 0, 69, 100
1, 28634, Note_on_c, 0, 71, 111
1, 28721, Note_off_c, 0, 71, 111
1, 28738, Note_on_c, 0, 72, 116
1, 28819, Note_off_c, 0, 72, 116
1, 28827, Note_on_c, 0, 74, 117
1, 28907, Note_off_c, 0, 74, 117
1, 28921, Note_on_c, 0, 74, 114
1, 28979, Note_off_c, 0, 74, 114
1, 28990, Note_on_c, 0, 72, 114
1, 29083, Note_off_c, 0, 72, 114
1, 29091, Note_on_c, 0, 74, 89
1, 29125, Note_off_c, 0, 74, 89
1, 29134, Note_on_c, 0, 72, 112
1, 29183, Note_off_c, 0, 72, 112
1, 29192, Note_on_c, 0, 71, 111
1, 29282, Note_off_c, 0, 71, 111
1, 29294, Note_on_c, 0, 72, 100
1, 29321, Note_off_c, 0, 72, 100
1, 29324, Note_on_c, 0, 71, 106
1, 29349, Note_off_c, 0, 71, 106
1, 29376, Note_on_c, 0, 69, 102
1, 29466, Note_off_c, 0, 69, 102
1, 29476, Note_on_c, 0, 70, 94
1, 29517, Note_off_c, 0, 70, 94
1, 29525, Note_on_c, 0, 69, 107
1, 29544, Note_off_c, 0, 69, 107
1, 29561, Note_on_c, 0, 67, 114
1, 29658, Note_off_c, 0, 67, 114
1, 29670, Note_on_c, 0, 68, 96
1, 29697, Note_off_c, 0, 68, 96
1, 29705, Note_on_c, 0, 67, 109
1, 29739, Note_off_c, 0, 67, 109
1, 29781, Note_on_c, 0, 64, 90
1, 29878, Note_off_c, 0, 64, 90
1, 29888, Note_on_c, 0, 67, 100
1, 29939, Note_off_c, 0, 67, 100
1, 29948, Note_on_c, 0, 69, 113
1, 30038, Note_off_c, 0, 69, 113
1, 30056, Note_on_c, 0, 67, 109
1, 30116, Note_off_c, 0, 67, 109
1, 30159, Note_on_c, 0, 64, 90
1, 30220, Note_off_c, 0, 64, 90
1, 30227, Note_on_c, 0, 74, 117
1, 30378, Note_off_c, 0, 74, 117
1, 30388, Note_on_c, 0, 76, 92
1, 30426, Note_off_c, 0, 76, 92
1, 30438, Note_on_c, 0, 74, 109
1, 30488, Note_off_c, 0, 74, 109
1, 30505, Note_on_c, 0, 72, 104
1, 30614, Note_off_c, 0, 72, 104
1, 30707, Note_on_c, 0, 70, 108
1, 30790, Note_off_c, 0, 70, 108
1, 30801, Note_on_c, 0, 72, 97
1, 30836, Note_off_c, 0, 72, 97
1, 30841, Note_on_c, 0, 70, 106
1, 30883, Note_off_c, 0, 70, 106
1, 30890, Note_on_c, 0, 69, 113
1, 30987, Note_off_c, 0, 69, 113
1, 31075, Note_on_c, 0, 67, 112
1, 31174, Note_off_c, 0, 67, 112
1, 31185, Note_on_c, 0, 68, 110
1, 31216, Note_off_c, 0, 68, 110
1, 31222, Note_on_c, 0, 67, 114
1, 31289, Note_off_c, 0, 67, 114
1, 31308, Note_on_c, 0, 64, 92
1, 31398, Note_off_c, 0, 64, 92
1, 31402, Note_on_c, 0, 67, 100
1, 31459, Note_off_c, 0, 67, 100
1, 31467, Note_on_c, 0, 69, 119
1, 31560, Note_off_c, 0, 69, 119
1, 31567, Note_on_c, 0, 67, 115
1, 31651, Note_off_c, 0, 67, 115
1, 31667, Note_on_c, 0, 66, 85
1, 31756, Note_off_c, 0, 66, 85
1, 31767, Note_on_c, 0, 67, 88
1, 31811, Note_off_c, 0, 67, 88
1, 31829, Note_on_c, 0, 70, 109
1, 31934, Note_off_c, 0, 70, 109
1, 31952, Note_on_c, 0, 73, 113
1, 32059, Note_off_c, 0, 73, 113
1, 32063, Note_on_c, 0, 74, 101
1, 32187, Note_off_c, 0, 74, 101
1, 32207, Note_on_c, 0, 69, 117
1, 32312, Note_off_c, 0, 69, 117
1, 32328, Note_on_c, 0, 70, 104
1, 32462, Note_off_c, 0, 70, 104
1, 32489, Note_on_c, 0, 70, 101
1, 32570, Note_off_c, 0, 70, 101
1, 32585, Note_on_c, 0, 67, 108
1, 32723, Note_off_c, 0, 67, 108
1, 34111, Note_on_c, 0, 70, 114
1, 34204, Note_off_c, 0, 70, 114
1, 34215, Note_on_c, 0, 72, 112
1, 34272, Note_off_c, 0, 72, 112
1, 34286, Note_on_c, 0, 75, 102
1, 34381, Note_off_c, 0, 75, 102
1, 34402, Note_on_c, 0, 72, 115
1, 34484, Note_off_c, 0, 72, 115
1, 34490, Note_on_c, 0, 73, 108
1, 34575, Note_off_c, 0, 73, 108
1, 34597, Note_on_c, 0, 70, 110
1, 34657, Note_off_c, 0, 70, 110
1, 34669, Note_on_c, 0, 67, 100
1, 34765, Note_off_c, 0, 67, 100
1, 34785, Note_on_c, 0, 64, 85
1, 34832, Note_off_c, 0, 64, 85
1, 34868, Note_on_c, 0, 68, 110
1, 34958, Note_off_c, 0, 68, 110
1, 34961, Note_on_c, 0, 69, 115
1, 35038, Note_off_c, 0, 69, 115
1, 35050, Note_on_c, 0, 70, 111
1, 35134, Note_off_c, 0, 70, 111
1, 35144, Note_on_c, 0, 71, 111
1, 35223, Note_off_c, 0, 71, 111
1, 35229, Note_on_c, 0, 72, 105
1, 35321, Note_off_c, 0, 72, 105
1, 35336, Note_on_c, 0, 69, 109
1, 35410, Note_off_c, 0, 69, 109
1, 35422, Note_on_c, 0, 66, 108
1, 35527, Note_off_c, 0, 66, 108
1, 35547, Note_on_c, 0, 62, 88
1, 35594, Note_off_c, 0, 62, 88
1, 35613, Note_on_c, 0, 65, 102
1, 35738, Note_off_c, 0, 65, 102
1, 35747, Note_on_c, 0, 67, 83
1, 35791, Note_off_c, 0, 67, 83
1, 35799, Note_on_c, 0, 69, 112
1, 35905, Note_off_c, 0, 69, 112
1, 35928, Note_on_c, 0, 65, 100
1, 36003, Note_off_c, 0, 65, 100
1, 36014, Note_on_c, 0, 67, 94
1, 36089, Note_off_c, 0, 67, 94
1, 36120, Note_on_c, 0, 65, 100
1, 36195, Note_off_c, 0, 65, 100
1, 36207, Note_on_c, 0, 64, 83
1, 36286, Note_off_c, 0, 64, 83
1, 36289, Note_on_c, 0, 65, 94
1, 36355, Note_off_c, 0, 65, 94
1, 36365, Note_on_c, 0, 68, 109
1, 36480, Note_off_c, 0, 68, 109
1, 36492, Note_on_c, 0, 69, 96
1, 36538, Note_off_c, 0, 69, 96
1, 36553, Note_on_c, 0, 71, 115
1, 36656, Note_off_c, 0, 71, 115
1, 36674, Note_on_c, 0, 68, 105
1, 36755, Note_off_c, 0, 68, 105
1, 36821, Note_on_c, 0, 71, 98
1, 36854, Note_off_c, 0, 71, 98
1, 36863, Note_on_c, 0, 68, 107
1, 36933, Note_off_c, 0, 68, 107
1, 36942, Note_on_c, 0, 72, 116
1, 37057, Note_off_c, 0, 72, 116
1, 37068, Note_on_c, 0, 67, 93
1, 37115, Note_off_c, 0, 67, 93
1, 37134, Note_on_c, 0, 76, 108
1, 37231, Note_off_c, 0, 76, 108
1, 37251, Note_on_c, 0, 72, 108
1, 37385, Note_off_c, 0, 72, 108
1, 37387, Note_on_c, 0, 74, 111
1, 37452, Note_off_c, 0, 74, 111
1, 37460, Note_on_c, 0, 72, 109
1, 37493, Note_off_c, 0, 72, 109
1, 37510, Note_on_c, 0, 69, 105
1, 37625, Note_off_c, 0, 69, 105
1, 37635, Note_on_c, 0, 71, 91
1, 37679, Note_off_c, 0, 71, 91
1, 37685, Note_on_c, 0, 72, 105
1, 37788, Note_off_c, 0, 72, 105
1, 37808, Note_on_c, 0, 69, 107
1, 37956, Note_off_c, 0, 69, 107
1, 37967, Note_on_c, 0, 70, 94
1, 37998, Note_off_c, 0, 70, 94
1, 38008, Note_on_c, 0, 69, 110
1, 38055, Note_off_c, 0, 69, 110
1, 38069, Note_on_c, 0, 66, 106
1, 38184, Note_off_c, 0, 66, 106
1, 38191, Note_on_c, 0, 67, 90
1, 38246, Note_off_c, 0, 67, 90
1, 38251, Note_on_c, 0, 69, 110
1, 38405, Note_off_c, 0, 69, 110
1, 38566, Note_on_c, 0, 66, 104
1, 38635, Note_off_c, 0, 66, 104
1, 38635, Note_on_c, 0, 67, 104
1, 38739, Note_off_c, 0, 67, 104
1, 38765, Note_on_c, 0, 69, 110
1, 38823, Note_off_c, 0, 69, 110
1, 38836, Note_on_c, 0, 71, 104
1, 38934, Note_off_c, 0, 71, 104
1, 38946, Note_on_c, 0, 74, 116
1, 39017, Note_off_c, 0, 74, 116
1, 39031, Note_on_c, 0, 72, 105
1, 39124, Note_off_c, 0, 72, 105
1, 39138, Note_on_c, 0, 74, 95
1, 39184, Note_off_c, 0, 74, 95
1, 39195, Note_on_c, 0, 76, 109
1, 39302, Note_off_c, 0, 76, 109
1, 39313, Note_on_c, 0, 78, 107
1, 39373, Note_off_c, 0, 78, 107
1, 39386, Note_on_c, 0, 79, 107
1, 39490, Note_off_c, 0, 79, 107
1, 39501, Note_on_c, 0, 76, 104
1, 39570, Note_off_c, 0, 76, 104
1, 39577, Note_on_c, 0, 72, 99
1, 39683, Note_off_c, 0, 72, 99
1, 39703, Note_on_c, 0, 69, 98
1, 39759, Note_off_c, 0, 69, 98
1, 39778, Note_on_c, 0, 75, 105
1, 39881, Note_off_c, 0, 75, 105
1, 39886, Note_on_c, 0, 74, 87
1, 39899, Note_off_c, 0, 74, 87
1, 39908, Note_on_c, 0, 73, 92
1, 39947, Note_off_c, 0, 73, 92
1, 39955, Note_on_c, 0, 74, 107
1, 40058, Note_off_c, 0, 74, 107
1, 40074, Note_on_c, 0, 76, 106
1, 40134, Note_off_c, 0, 76, 106
1, 40142, Note_on_c, 0, 78, 107
1, 40260, Note_off_c, 0, 78, 107
1, 40266, Note_on_c, 0, 77, 102
1, 40279, Note_off_c, 0, 77, 102
1, 40285, Note_on_c, 0, 76, 103
1, 40324, Note_off_c, 0, 76, 103
1, 40326, Note_on_c, 0, 78, 106
1, 40433, Note_off_c, 0, 78, 106
1, 40455, Note_on_c, 0, 76, 84
1, 40727, Note_off_c, 0, 76, 84
1, 41697, Note_on_c, 0, 74, 120
1, 41816, Note_off_c, 0, 74, 120
1, 41829, Note_on_c, 0, 67, 95
1, 41883, Note_off_c, 0, 67, 95
1, 41892, Note_on_c, 0, 74, 122
1, 42030, Note_off_c, 0, 74, 122
1, 42083, Note_on_c, 0, 74, 119
1, 42203, Note_off_c, 0, 74, 119
1, 42213, Note_on_c, 0, 70, 106
1, 42282, Note_off_c, 0, 70, 106
1, 42295, Note_on_c, 0, 67, 114
1, 42396, Note_off_c, 0, 67, 114
1, 42413, Note_on_c, 0, 64, 89
1, 42463, Note_off_c, 0, 64, 89
1, 42473, Note_on_c, 0, 69, 114
1, 42565, Note_off_c, 0, 69, 114
1, 42569, Note_on_c, 0, 72, 111
1, 42639, Note_off_c, 0, 72, 111
1, 42658, Note_on_c, 0, 69, 114
1, 42774, Note_off_c, 0, 69, 114
1, 42782, Note_on_c, 0, 70, 109
1, 42833, Note_off_c, 0, 70, 109
1, 42841, Note_on_c, 0, 71, 108
1, 42946, Note_off_c, 0, 71, 108
1, 42950, Note_on_c, 0, 67, 97
1, 43078, Note_off_c, 0, 67, 97
1, 43215, Note_on_c, 0, 67, 116
1, 43350, Note_off_c, 0, 67, 116
1, 43355, Note_on_c, 0, 69, 95
1, 43411, Note_off_c, 0, 69, 95
1, 43418, Note_on_c, 0, 70, 113
1, 43505, Note_off_c, 0, 70, 113
1, 43516, Note_on_c, 0, 67, 106
1, 43739, Note_off_c, 0, 67, 106
1, 44294, Note_on_c, 0, 64, 104
1, 44352, Note_off_c, 0, 64, 104
1, 44363, Note_on_c, 0, 63, 97
1, 44381, Note_off_c, 0, 63, 97
1, 44401, Note_on_c, 0, 61, 95
1, 44496, Note_off_c, 0, 61, 95
1, 44519, Note_on_c, 0, 62, 90
1, 44576, Note_off_c, 0, 62, 90
1, 44587, Note_on_c, 0, 63, 94
1, 44682, Note_off_c, 0, 63, 94
1, 44694, Note_on_c, 0, 62, 100
1, 44746, Note_off_c, 0, 62, 100
1, 44767, Note_on_c, 0, 61, 93
1, 44832, Note_off_c, 0, 61, 93
1, 44845, Note_on_c, 0, 62, 90
1, 44915, Note_off_c, 0, 62, 90
1, 44925, Note_on_c, 0, 67, 111
1, 45042, Note_off_c, 0, 67, 111
1, 45053, Note_on_c, 0, 69, 95
1, 45103, Note_off_c, 0, 69, 95
1, 45117, Note_on_c, 0, 70, 114
1, 45228, Note_off_c, 0, 70, 114
1, 45244, Note_on_c, 0, 67, 95
1, 45301, Note_off_c, 0, 67, 95
1, 45309, Note_on_c, 0, 69, 115
1, 45409, Note_off_c, 0, 69, 115
1, 45414, Note_on_c, 0, 68, 110
1, 45499, Note_off_c, 0, 68, 110
1, 45503, Note_on_c, 0, 67, 106
1, 45604, Note_off_c, 0, 67, 106
1, 45612, Note_on_c, 0, 69, 115
1, 45685, Note_off_c, 0, 69, 115
1, 45702, Note_on_c, 0, 70, 117
1, 45799, Note_off_c, 0, 70, 117
1, 45808, Note_on_c, 0, 72, 108
1, 45892, Note_off_c, 0, 72, 108
1, 45897, Note_on_c, 0, 73, 113
1, 46002, Note_off_c, 0, 73, 113
1, 46013, Note_on_c, 0, 70, 98
1, 46071, Note_off_c, 0, 70, 98
1, 46078, Note_on_c, 0, 72, 115
1, 46175, Note_off_c, 0, 72, 115
1, 46180, Note_on_c, 0, 71, 116
1, 46270, Note_off_c, 0, 71, 116
1, 46279, Note_on_c, 0, 70, 114
1, 46361, Note_off_c, 0, 70, 114
1, 46380, Note_on_c, 0, 67, 114
1, 46462, Note_off_c, 0, 67, 114
1, 46488, Note_on_c, 0, 63, 82
1, 46576, Note_off_c, 0, 63, 82
1, 46590, Note_on_c, 0, 60, 93
1, 46634, Note_off_c, 0, 60, 93
1, 46668, Note_on_c, 0, 65, 106
1, 46772, Note_off_c, 0, 65, 106
1, 46780, Note_on_c, 0, 67, 93
1, 46826, Note_off_c, 0, 67, 93
1, 46835, Note_on_c, 0, 69, 116
1, 46927, Note_off_c, 0, 69, 116
1, 46940, Note_on_c, 0, 67, 112
1, 47009, Note_off_c, 0, 67, 112
1, 47022, Note_on_c, 0, 65, 105
1, 47126, Note_off_c, 0, 65, 105
1, 47142, Note_on_c, 0, 63, 92
1, 47205, Note_off_c, 0, 63, 92
1, 47220, Note_on_c, 0, 60, 99
1, 47325, Note_off_c, 0, 60, 99
1, 47348, Note_on_c, 0, 61, 96
1, 47405, Note_off_c, 0, 61, 96
1, 47410, Note_on_c, 0, 62, 108
1, 47511, Note_off_c, 0, 62, 108
1, 47532, Note_on_c, 0, 60, 107
1, 47613, Note_off_c, 0, 60, 107
1, 47628, Note_on_c, 0, 57, 90
1, 47706, Note_off_c, 0, 57, 90
1, 47715, Note_on_c, 0, 58, 108
1, 47783, Note_off_c, 0, 58, 108
1, 47794, Note_on_c, 0, 59, 112
1, 47898, Note_off_c, 0, 59, 112
1, 47921, Note_on_c, 0, 57, 105
1, 47986, Note_off_c, 0, 57, 105
1, 48115, Note_on_c, 0, 55, 99
1, 48176, Note_off_c, 0, 55, 99
1, 48179, Note_on_c, 0, 56, 116
1, 48289, Note_off_c, 0, 56, 116
1, 48309, Note_on_c, 0, 53, 101
1, 48409, Note_off_c, 0, 53, 101
1, 48423, Note_on_c, 0, 48, 83
1, 48533, Note_off_c, 0, 48, 83
1, 48964, Note_on_c, 0, 63, 110
1, 49010, Note_off_c, 0, 63, 110
1, 49019, Note_on_c, 0, 62, 100
1, 49045, Note_off_c, 0, 62, 100
1, 49085, Note_on_c, 0, 55, 102
1, 49139, Note_off_c, 0, 55, 102
1, 49281, Note_on_c, 0, 62, 93
1, 49318, Note_off_c, 0, 62, 93
1, 49320, Note_on_c, 0, 65, 112
1, 49417, Note_off_c, 0, 65, 112
1, 49425, Note_on_c, 0, 64, 100
1, 49496, Note_off_c, 0, 64, 100
1, 49512, Note_on_c, 0, 62, 104
1, 49609, Note_off_c, 0, 62, 104
1, 49633, Note_on_c, 0, 60, 103
1, 49752, Note_off_c, 0, 60, 103
1, 50269, Note_on_c, 0, 62, 106
1, 50367, Note_off_c, 0, 62, 106
1, 50381, Note_on_c, 0, 61, 105
1, 50462, Note_off_c, 0, 61, 105
1, 50479, Note_on_c, 0, 64, 88
1, 50577, Note_off_c, 0, 64, 88
1, 50583, Note_on_c, 0, 67, 118
1, 50632, Note_off_c, 0, 67, 118
1, 50654, Note_on_c, 0, 71, 117
1, 50754, Note_off_c, 0, 71, 117
1, 50764, Note_on_c, 0, 69, 117
1, 50850, Note_off_c, 0, 69, 117
1, 50868, Note_on_c, 0, 67, 88
1, 51011, Note_off_c, 0, 67, 88
1, 51033, Note_on_c, 0, 69, 120
1, 51129, Note_off_c, 0, 69, 120
1, 51144, Note_on_c, 0, 67, 123
1, 51238, Note_off_c, 0, 67, 123
1, 51260, Note_on_c, 0, 64, 98
1, 51332, Note_off_c, 0, 64, 98
1, 51345, Note_on_c, 0, 63, 97
1, 51415, Note_off_c, 0, 63, 97
1, 51421, Note_on_c, 0, 62, 86
1, 51495, Note_off_c, 0, 62, 86
1, 51505, Note_on_c, 0, 67, 94
1, 51586, Note_off_c, 0, 67, 94
1, 51606, Note_on_c, 0, 66, 113
1, 51704, Note_off_c, 0, 66, 113
1, 51711, Note_on_c, 0, 67, 105
1, 51766, Note_off_c, 0, 67, 105
1, 51771, Note_on_c, 0, 69, 126
1, 51877, Note_off_c, 0, 69, 126
1, 51888, Note_on_c, 0, 67, 113
1, 52099, Note_off_c, 0, 67, 113
1, 52107, Note_on_c, 0, 69, 112
1, 52132, Note_off_c, 0, 69, 112
1, 52143, Note_on_c, 0, 70, 109
1, 52289, Note_off_c, 0, 70, 109
1, 52293, Note_on_c, 0, 74, 106
1, 52581, Note_off_c, 0, 74, 106
1, 52624, Note_on_c, 0, 74, 102
1, 52713, Note_off_c, 0, 74, 102
1, 52749, Note_on_c, 0, 70, 109
1, 52864, Note_off_c, 0, 70, 109
1, 52896, Note_on_c, 0, 65, 106
1, 52999, Note_off_c, 0, 65, 106
1, 53033, Note_on_c, 0, 63, 90
1, 53317, Note_off_c, 0, 63, 90
1, 53698, Note_on_c, 0, 74, 115
1, 53803, Note_off_c, 0, 74, 115
1, 53811, Note_on_c, 0, 69, 106
1, 53873, Note_off_c, 0, 69, 106
1, 53877, Note_on_c, 0, 72, 106
1, 53984, Note_off_c, 0, 72, 106
1, 53991, Note_on_c, 0, 70, 111
1, 54076, Note_off_c, 0, 70, 111
1, 54091, Note_on_c, 0, 69, 102
1, 54167, Note_off_c, 0, 69, 102
1, 54177, Note_on_c, 0, 70, 102
1, 54256, Note_off_c, 0, 70, 102
1, 54262, Note_on_c, 0, 67, 114
1, 54369, Note_off_c, 0, 67, 114
1, 54381, Note_on_c, 0, 69, 104
1, 54459, Note_off_c, 0, 69, 104
1, 54468, Note_on_c, 0, 70, 109
1, 54553, Note_off_c, 0, 70, 109
1, 54561, Note_on_c, 0, 72, 95
1, 54630, Note_off_c, 0, 72, 95
1, 54639, Note_on_c, 0, 74, 109
1, 54747, Note_off_c, 0, 74, 109
1, 54762, Note_on_c, 0, 75, 98
1, 54820, Note_off_c, 0, 75, 98
1, 54838, Note_on_c, 0, 77, 108
1, 54946, Note_off_c, 0, 77, 108
1, 54987, Note_on_c, 0, 77, 106
1, 55135, Note_off_c, 0, 77, 106
1, 55152, Note_on_c, 0, 79, 113
1, 55317, Note_off_c, 0, 79, 113
1, 55333, Note_on_c, 0, 81, 105
1, 55352, Note_off_c, 0, 81, 105
1, 55354, Note_on_c, 0, 82, 118
1, 55517, Note_off_c, 0, 82, 118
1, 55527, Note_on_c, 0, 77, 102
1, 55733, Note_off_c, 0, 77, 102
1, 56666, Note_on_c, 0, 79, 115
1, 56706, Note_off_c, 0, 79, 115
1, 56713, Note_on_c, 0, 78, 114
1, 56764, Note_off_c, 0, 78, 114
1, 56777, Note_on_c, 0, 77, 117
1, 56853, Note_off_c, 0, 77, 117
1, 56882, Note_on_c, 0, 74, 103
1, 56935, Note_off_c, 0, 74, 103
1, 56945, Note_on_c, 0, 75, 120
1, 57043, Note_off_c, 0, 75, 120
1, 57060, Note_on_c, 0, 74, 106
1, 57148, Note_off_c, 0, 74, 106
1, 57152, Note_on_c, 0, 72, 114
1, 57233, Note_off_c, 0, 72, 114
1, 57242, Note_on_c, 0, 73, 114
1, 57312, Note_off_c, 0, 73, 114
1, 57322, Note_on_c, 0, 74, 115
1, 57428, Note_off_c, 0, 74, 115
1, 57432, Note_on_c, 0, 70, 111
1, 57509, Note_off_c, 0, 70, 111
1, 57527, Note_on_c, 0, 65, 107
1, 57650, Note_off_c, 0, 65, 107
1, 57714, Note_on_c, 0, 69, 119
1, 57810, Note_off_c, 0, 69, 119
1, 57816, Note_on_c, 0, 72, 116
1, 57888, Note_off_c, 0, 72, 116
1, 57903, Note_on_c, 0, 71, 116
1, 57984, Note_off_c, 0, 71, 116
1, 58013, Note_on_c, 0, 69, 112
1, 58082, Note_off_c, 0, 69, 112
1, 58090, Note_on_c, 0, 70, 112
1, 58185, Note_off_c, 0, 70, 112
1, 58197, Note_on_c, 0, 65, 108
1, 58267, Note_off_c, 0, 65, 108
1, 58308, Note_on_c, 0, 62, 90
1, 58391, Note_off_c, 0, 62, 90
1, 58410, Note_on_c, 0, 58, 97
1, 58470, Note_off_c, 0, 58, 97
1, 58477, Note_on_c, 0, 67, 120
1, 58590, Note_off_c, 0, 67, 120
1, 58601, Note_on_c, 0, 69, 101
1, 58650, Note_off_c, 0, 69, 101
1, 58658, Note_on_c, 0, 71, 115
1, 58746, Note_off_c, 0, 71, 115
1, 58758, Note_on_c, 0, 72, 111
1, 58827, Note_off_c, 0, 72, 111
1, 58833, Note_on_c, 0, 74, 116
1, 58932, Note_off_c, 0, 74, 116
1, 58941, Note_on_c, 0, 72, 112
1, 59029, Note_off_c, 0, 72, 112
1, 59045, Note_on_c, 0, 69, 99
1, 59116, Note_off_c, 0, 69, 99
1, 59133, Note_on_c, 0, 70, 109
1, 59216, Note_off_c, 0, 70, 109
1, 59221, Note_on_c, 0, 71, 115
1, 59295, Note_off_c, 0, 71, 115
1, 59314, Note_on_c, 0, 67, 118
1, 59402, Note_off_c, 0, 67, 118
1, 59422, Note_on_c, 0, 64, 92
1, 59526, Note_off_c, 0, 64, 92
1, 59537, Note_on_c, 0, 60, 92
1, 59581, Note_off_c, 0, 60, 92
1, 59601, Note_on_c, 0, 70, 113
1, 59697, Note_off_c, 0, 70, 113
1, 59722, Note_on_c, 0, 66, 97
1, 59771, Note_off_c, 0, 66, 97
1, 59780, Note_on_c, 0, 69, 114
1, 59868, Note_off_c, 0, 69, 114
1, 59884, Note_on_c, 0, 67, 117
1, 59982, Note_off_c, 0, 67, 117
1, 59991, Note_on_c, 0, 66, 111
1, 60085, Note_off_c, 0, 66, 111
1, 60093, Note_on_c, 0, 67, 107
1, 60157, Note_off_c, 0, 67, 107
1, 60184, Note_on_c, 0, 64, 98
1, 60270, Note_off_c, 0, 64, 98
1, 60275, Note_on_c, 0, 63, 93
1, 60334, Note_off_c, 0, 63, 93
1, 60349, Note_on_c, 0, 62, 101
1, 60445, Note_off_c, 0, 62, 101
1, 60459, Note_on_c, 0, 60, 111
1, 60551, Note_off_c, 0, 60, 111
1, 60564, Note_on_c, 0, 57, 93
1, 60647, Note_off_c, 0, 57, 93
1, 60654, Note_on_c, 0, 58, 108
1, 60730, Note_off_c, 0, 58, 108
1, 60739, Note_on_c, 0, 59, 113
1, 60891, Note_off_c, 0, 59, 113
1, 61050, Note_on_c, 0, 59, 104
1, 61096, Note_off_c, 0, 59, 104
1, 61126, Note_on_c, 0, 60, 113
1, 61213, Note_off_c, 0, 60, 113
1, 61237, Note_on_c, 0, 59, 112
1, 61299, Note_off_c, 0, 59, 112
1, 61305, Note_on_c, 0, 57, 108
1, 61403, Note_off_c, 0, 57, 108
1, 61444, Note_on_c, 0, 55, 104
1, 61492, Note_off_c, 0, 55, 104
1, 61500, Note_on_c, 0, 59, 110
1, 61601, Note_off_c, 0, 59, 110
1, 61619, Note_on_c, 0, 57, 107
1, 61668, Note_off_c, 0, 57, 107
1, 61677, Note_on_c, 0, 59, 111
1, 61787, Note_off_c, 0, 59, 111
1, 61802, Note_on_c, 0, 57, 106
1, 61977, Note_off_c, 0, 57, 106
1, 62942, Note_on_c, 0, 64, 96
1, 62985, Note_off_c, 0, 64, 96
1, 62998, Note_on_c, 0, 66, 106
1, 63045, Note_off_c, 0, 66, 106
1, 63054, Note_on_c, 0, 70, 116
1, 63143, Note_off_c, 0, 70, 116
1, 63160, Note_on_c, 0, 66, 110
1, 63258, Note_off_c, 0, 66, 110
1, 63273, Note_on_c, 0, 63, 89
1, 63321, Note_off_c, 0, 63, 89
1, 63343, Note_on_c, 0, 60, 99
1, 63400, Note_off_c, 0, 60, 99
1, 63414, Note_on_c, 0, 69, 117
1, 63516, Note_off_c, 0, 69, 117
1, 63532, Note_on_c, 0, 65, 109
1, 63601, Note_off_c, 0, 65, 109
1, 63617, Note_on_c, 0, 61, 96
1, 63687, Note_off_c, 0, 61, 96
1, 63700, Note_on_c, 0, 58, 95
1, 63752, Note_off_c, 0, 58, 95
1, 63785, Note_on_c, 0, 70, 113
1, 63883, Note_off_c, 0, 70, 113
1, 63893, Note_on_c, 0, 66, 100
1, 63950, Note_off_c, 0, 66, 100
1, 63956, Note_on_c, 0, 70, 114
1, 64054, Note_off_c, 0, 70, 114
1, 64071, Note_on_c, 0, 66, 101
1, 64136, Note_off_c, 0, 66, 101
1, 64150, Note_on_c, 0, 69, 111
1, 64247, Note_off_c, 0, 69, 111
1, 64261, Note_on_c, 0, 66, 115
1, 64358, Note_off_c, 0, 66, 115
1, 64515, Note_on_c, 0, 67, 112
1, 64645, Note_off_c, 0, 67, 112
1, 64655, Note_on_c, 0, 71, 110
1, 64775, Note_off_c, 0, 71, 110
1, 65623, Note_on_c, 0, 67, 104
1, 65697, Note_off_c, 0, 67, 104
1, 65702, Note_on_c, 0, 72, 125
1, 65786, Note_off_c, 0, 72, 125
1, 65791, Note_on_c, 0, 71, 118
1, 65803, Note_off_c, 0, 71, 118
1, 65811, Note_on_c, 0, 72, 121
1, 65880, Note_off_c, 0, 72, 121
1, 65890, Note_on_c, 0, 73, 117
1, 65992, Note_off_c, 0, 73, 117
1, 66061, Note_on_c, 0, 74, 116
1, 66226, Note_off_c, 0, 74, 116
1, 66241, Note_on_c, 0, 76, 112
1, 66373, Note_off_c, 0, 76, 112
1, 66477, Note_on_c, 0, 78, 91
1, 66924, Note_off_c, 0, 78, 91
1, 67140, Note_on_c, 0, 76, 114
1, 67203, Note_off_c, 0, 76, 114
1, 67212, Note_on_c, 0, 74, 116
1, 67309, Note_off_c, 0, 74, 116
1, 67328, Note_on_c, 0, 66, 109
1, 67400, Note_off_c, 0, 66, 109
1, 67411, Note_on_c, 0, 67, 107
1, 67508, Note_off_c, 0, 67, 107
1, 67600, Note_on_c, 0, 76, 102
1, 67762, Note_off_c, 0, 76, 102
1, 67780, Note_on_c, 0, 74, 104
1, 67911, Note_off_c, 0, 74, 104
1, 67921, Note_on_c, 0, 72, 108
1, 68045, Note_off_c, 0, 72, 108
1, 68500, Note_on_c, 0, 61, 101
1, 68576, Note_off_c, 0, 61, 101
1, 68594, Note_on_c, 0, 62, 91
1, 68666, Note_off_c, 0, 62, 91
1, 68782, Note_on_c, 0, 72, 114
1, 68875, Note_off_c, 0, 72, 114
1, 68895, Note_on_c, 0, 70, 101
1, 68959, Note_on_c, 0, 72, 118
1, 68959, Note_off_c, 0, 70, 101
1, 69042, Note_off_c, 0, 72, 118
1, 69057, Note_on_c, 0, 70, 115
1, 69149, Note_off_c, 0, 70, 115
1, 69156, Note_on_c, 0, 69, 111
1, 69243, Note_off_c, 0, 69, 111
1, 69244, Note_on_c, 0, 70, 105
1, 69311, Note_off_c, 0, 70, 105
1, 69323, Note_on_c, 0, 69, 126
1, 69405, Note_off_c, 0, 69, 126
1, 69423, Note_on_c, 0, 68, 121
1, 69511, Note_off_c, 0, 68, 121
1, 69524, Note_on_c, 0, 67, 118
1, 69626, Note_off_c, 0, 67, 118
1, 69632, Note_on_c, 0, 69, 125
1, 69704, Note_off_c, 0, 69, 125
1, 69711, Note_on_c, 0, 70, 109
1, 69814, Note_off_c, 0, 70, 109
1, 69831, Note_on_c, 0, 72, 97
1, 69883, Note_off_c, 0, 72, 97
1, 69889, Note_on_c, 0, 74, 117
1, 69981, Note_off_c, 0, 74, 117
1, 69994, Note_on_c, 0, 79, 121
1, 70091, Note_off_c, 0, 79, 121
1, 70105, Note_on_c, 0, 74, 106
1, 70179, Note_off_c, 0, 74, 106
1, 70190, Note_on_c, 0, 72, 103
1, 70265, Note_off_c, 0, 72, 103
1, 70286, Note_on_c, 0, 70, 112
1, 70372, Note_off_c, 0, 70, 112
1, 70385, Note_on_c, 0, 74, 112
1, 70464, Note_off_c, 0, 74, 112
1, 70470, Note_on_c, 0, 70, 110
1, 70562, Note_off_c, 0, 70, 110
1, 70571, Note_on_c, 0, 69, 127
1, 70646, Note_off_c, 0, 69, 127
1, 70657, Note_on_c, 0, 67, 125
1, 70756, Note_off_c, 0, 67, 125
1, 70762, Note_on_c, 0, 70, 115
1, 70839, Note_off_c, 0, 70, 115
1, 70845, Note_on_c, 0, 67, 121
1, 70951, Note_off_c, 0, 67, 121
1, 70958, Note_on_c, 0, 65, 107
1, 71049, Note_off_c, 0, 65, 107
1, 71069, Note_on_c, 0, 63, 90
1, 71137, Note_off_c, 0, 63, 90
1, 71150, Note_on_c, 0, 67, 118
1, 71247, Note_off_c, 0, 67, 118
1, 71265, Note_on_c, 0, 63, 94
1, 71329, Note_off_c, 0, 63, 94
1, 71343, Note_on_c, 0, 62, 99
1, 71412, Note_off_c, 0, 62, 99
1, 71432, Note_on_c, 0, 61, 92
1, 71529, Note_off_c, 0, 61, 92
1, 71542, Note_on_c, 0, 62, 93
1, 71595, Note_off_c, 0, 62, 93
1, 71609, Note_on_c, 0, 63, 102
1, 71696, Note_off_c, 0, 63, 102
1, 71716, Note_on_c, 0, 62, 96
1, 71788, Note_off_c, 0, 62, 96
1, 71820, Note_on_c, 0, 61, 91
1, 71917, Note_off_c, 0, 61, 91
1, 71923, Note_on_c, 0, 62, 100
1, 71976, Note_off_c, 0, 62, 100
1, 71988, Note_on_c, 0, 65, 104
1, 72094, Note_off_c, 0, 65, 104
1, 72101, Note_on_c, 0, 67, 97
1, 72168, Note_off_c, 0, 67, 97
1, 72174, Note_on_c, 0, 69, 117
1, 72279, Note_off_c, 0, 69, 117
1, 72283, Note_on_c, 0, 72, 107
1, 72344, Note_off_c, 0, 72, 107
1, 72353, Note_on_c, 0, 69, 117
1, 72445, Note_off_c, 0, 69, 117
1, 72452, Note_on_c, 0, 67, 119
1, 72540, Note_off_c, 0, 67, 119
1, 72560, Note_on_c, 0, 65, 103
1, 72650, Note_off_c, 0, 65, 103
1, 72659, Note_on_c, 0, 69, 109
1, 72739, Note_off_c, 0, 69, 109
1, 72746, Note_on_c, 0, 65, 107
1, 72846, Note_off_c, 0, 65, 107
1, 72858, Note_on_c, 0, 63, 94
1, 72928, Note_off_c, 0, 63, 94
1, 72943, Note_on_c, 0, 61, 85
1, 73037, Note_off_c, 0, 61, 85
1, 73043, Note_on_c, 0, 62, 90
1, 73115, Note_off_c, 0, 62, 90
1, 73145, Note_on_c, 0, 63, 92
1, 73240, Note_off_c, 0, 63, 92
1, 73250, Note_on_c, 0, 64, 94
1, 73452, Note_off_c, 0, 64, 94
1, 73470, Note_on_c, 0, 64, 89
1, 73519, Note_off_c, 0, 64, 89
1, 73537, Note_on_c, 0, 59, 99
1, 73654, Note_off_c, 0, 59, 99
1, 74210, Note_on_c, 0, 62, 95
1, 74243, Note_off_c, 0, 62, 95
1, 74250, Note_on_c, 0, 60, 104
1, 74287, Note_off_c, 0, 60, 104
1, 74302, Note_on_c, 0, 59, 100
1, 74354, Note_off_c, 0, 59, 100
1, 74359, Note_on_c, 0, 60, 104
1, 74411, Note_off_c, 0, 60, 104
1, 74419, Note_on_c, 0, 63, 96
1, 74444, Note_off_c, 0, 63, 96
1, 74458, Note_on_c, 0, 67, 117
1, 74497, Note_off_c, 0, 67, 117
1, 74509, Note_on_c, 0, 71, 122
1, 74587, Note_off_c, 0, 71, 122
1, 74599, Note_on_c, 0, 69, 115
1, 74674, Note_off_c, 0, 69, 115
1, 74687, Note_on_c, 0, 68, 114
1, 74736, Note_off_c, 0, 68, 114
1, 74744, Note_on_c, 0, 67, 108
1, 74769, Note_off_c, 0, 67, 108
1, 74771, Note_on_c, 0, 69, 109
1, 74793, Note_off_c, 0, 69, 109
1, 74796, Note_on_c, 0, 72, 106
1, 74821, Note_off_c, 0, 72, 106
1, 74828, Note_on_c, 0, 75, 113
1, 74874, Note_off_c, 0, 75, 113
1, 74879, Note_on_c, 0, 72, 118
1, 74955, Note_off_c, 0, 72, 118
1, 74961, Note_on_c, 0, 73, 108
1, 75013, Note_off_c, 0, 73, 108
1, 75015, Note_on_c, 0, 74, 113
1, 75073, Note_off_c, 0, 74, 113
1, 75086, Note_on_c, 0, 69, 118
1, 75155, Note_off_c, 0, 69, 118
1, 75166, Note_on_c, 0, 70, 102
1, 75196, Note_off_c, 0, 70, 102
1, 75211, Note_on_c, 0, 71, 101
1, 75261, Note_off_c, 0, 71, 101
1, 75284, Note_on_c, 0, 67, 109
1, 75389, Note_off_c, 0, 67, 109
1, 76100, Note_on_c, 0, 71, 112
1, 76184, Note_off_c, 0, 71, 112
1, 76187, Note_on_c, 0, 72, 109
1, 76284, Note_off_c, 0, 72, 109
1, 76297, Note_on_c, 0, 73, 109
1, 76373, Note_off_c, 0, 73, 109
1, 76390, Note_on_c, 0, 74, 106
1, 76490, Note_off_c, 0, 74, 106
1, 76514, Note_on_c, 0, 71, 93
1, 76575, Note_off_c, 0, 71, 93
1, 76578, Note_on_c, 0, 72, 109
1, 76676, Note_off_c, 0, 72, 109
1, 76687, Note_on_c, 0, 73, 104
1, 76784, Note_off_c, 0, 73, 104
1, 76807, Note_on_c, 0, 74, 103
1, 76881, Note_off_c, 0, 74, 103
1, 76900, Note_on_c, 0, 74, 108
1, 76977, Note_off_c, 0, 74, 108
1, 76984, Note_on_c, 0, 75, 107
1, 77066, Note_off_c, 0, 75, 107
1, 77099, Note_on_c, 0, 75, 106
1, 77176, Note_off_c, 0, 75, 106
1, 77184, Note_on_c, 0, 76, 110
1, 77273, Note_off_c, 0, 76, 110
1, 77295, Note_on_c, 0, 76, 111
1, 77360, Note_off_c, 0, 76, 111
1, 77368, Note_on_c, 0, 72, 106
1, 77469, Note_off_c, 0, 72, 106
1, 77489, Note_on_c, 0, 72, 108
1, 77548, Note_off_c, 0, 72, 108
1, 77565, Note_on_c, 0, 69, 106
1, 77643, Note_off_c, 0, 69, 106
1, 77661, Note_on_c, 0, 69, 106
1, 77744, Note_off_c, 0, 69, 106
1, 77754, Note_on_c, 0, 70, 103
1, 77868, Note_off_c, 0, 70, 103
1, 77963, Note_on_c, 0, 71, 108
1, 78070, Note_off_c, 0, 71, 108
1, 78338, Note_on_c, 0, 66, 114
1, 78457, Note_off_c, 0, 66, 114
1, 78480, Note_on_c, 0, 64, 91
1, 78521, Note_off_c, 0, 64, 91
1, 78536, Note_on_c, 0, 66, 110
1, 78643, Note_off_c, 0, 66, 110
1, 78665, Note_on_c, 0, 64, 92
1, 78902, Note_off_c, 0, 64, 92
1, 78911, Note_on_c, 0, 69, 110
1, 79063, Note_off_c, 0, 69, 110
1, 79651, Note_on_c, 0, 67, 112
1, 79727, Note_off_c, 0, 67, 112
1, 79733, Note_on_c, 0, 66, 94
1, 79834, Note_off_c, 0, 66, 94
1, 79844, Note_on_c, 0, 67, 107
1, 79910, Note_off_c, 0, 67, 107
1, 79914, Note_on_c, 0, 69, 115
1, 80005, Note_off_c, 0, 69, 115
1, 80019, Note_on_c, 0, 67, 113
1, 80089, Note_off_c, 0, 67, 113
1, 80103, Note_on_c, 0, 66, 92
1, 80193, Note_off_c, 0, 66, 92
1, 80213, Note_on_c, 0, 67, 101
1, 80264, Note_off_c, 0, 67, 101
1, 80280, Note_on_c, 0, 70, 114
1, 80400, Note_off_c, 0, 70, 114
1, 80408, Note_on_c, 0, 74, 89
1, 80455, Note_off_c, 0, 74, 89
1, 80463, Note_on_c, 0, 76, 109
1, 80563, Note_off_c, 0, 76, 109
1, 80581, Note_on_c, 0, 79, 113
1, 80742, Note_off_c, 0, 79, 113
1, 80791, Note_on_c, 0, 76, 114
1, 80847, Note_off_c, 0, 76, 114
1, 80859, Note_on_c, 0, 79, 9
1, 81059, Note_off_c, 0, 79, 9
1, 81077, Note_on_c, 0, 73, 89
1, 81110, Note_off_c, 0, 73, 89
1, 81134, Note_on_c, 0, 76, 96
1, 81220, Note_off_c, 0, 76, 96
1, 82399, Note_on_c, 0, 74, 115
1, 82493, Note_off_c, 0, 74, 115
1, 82502, Note_on_c, 0, 73, 106
1, 82575, Note_off_c, 0, 73, 106
1, 82583, Note_on_c, 0, 72, 108
1, 82658, Note_off_c, 0, 72, 108
1, 82683, Note_on_c, 0, 70, 108
1, 82753, Note_off_c, 0, 70, 108
1, 82765, Note_on_c, 0, 67, 108
1, 82856, Note_off_c, 0, 67, 108
1, 82881, Note_on_c, 0, 64, 88
1, 82913, Note_off_c, 0, 64, 88
1, 82960, Note_on_c, 0, 69, 109
1, 83058, Note_off_c, 0, 69, 109
1, 83068, Note_on_c, 0, 72, 110
1, 83138, Note_off_c, 0, 72, 110
1, 83155, Note_on_c, 0, 71, 113
1, 83248, Note_off_c, 0, 71, 113
1, 83264, Note_on_c, 0, 69, 109
1, 83345, Note_off_c, 0, 69, 109
1, 83353, Note_on_c, 0, 70, 108
1, 83426, Note_off_c, 0, 70, 108
1, 83455, Note_on_c, 0, 67, 108
1, 83530, Note_off_c, 0, 67, 108
1, 83543, Note_on_c, 0, 63, 86
1, 83619, Note_off_c, 0, 63, 86
1, 83640, Note_on_c, 0, 60, 100
1, 83728, Note_off_c, 0, 60, 100
1, 83739, Note_on_c, 0, 68, 105
1, 83840, Note_off_c, 0, 68, 105
1, 83844, Note_on_c, 0, 69, 109
1, 83921, Note_off_c, 0, 69, 109
1, 83926, Note_on_c, 0, 70, 106
1, 84019, Note_off_c, 0, 70, 106
1, 84023, Note_on_c, 0, 71, 110
1, 84099, Note_off_c, 0, 71, 110
1, 84109, Note_on_c, 0, 72, 91
1, 84357, Note_off_c, 0, 72, 91
1, 84488, Note_on_c, 0, 65, 100
1, 84611, Note_off_c, 0, 65, 100
1, 84625, Note_on_c, 0, 62, 88
1, 84655, Note_off_c, 0, 62, 88
1, 84675, Note_on_c, 0, 65, 96
1, 84875, Note_off_c, 0, 65, 96
1, 84891, Note_on_c, 0, 69, 105
1, 84998, Note_off_c, 0, 69, 105
1, 85010, Note_on_c, 0, 65, 103
1, 85082, Note_off_c, 0, 65, 103
1, 85103, Note_on_c, 0, 62, 88
1, 85162, Note_off_c, 0, 62, 88
1, 85184, Note_on_c, 0, 57, 101
1, 85265, Note_off_c, 0, 57, 101
1, 85288, Note_on_c, 0, 59, 84
1, 85376, Note_off_c, 0, 59, 84
1, 85391, Note_on_c, 0, 56, 101
1, 85459, Note_off_c, 0, 56, 101
1, 85604, Note_on_c, 0, 62, 88
1, 85632, Note_off_c, 0, 62, 88
1, 85651, Note_on_c, 0, 67, 118
1, 85768, Note_off_c, 0, 67, 118
1, 85778, Note_on_c, 0, 64, 93
1, 85864, Note_off_c, 0, 64, 93
1, 85876, Note_on_c, 0, 59, 102
1, 85965, Note_off_c, 0, 59, 102
1, 85980, Note_on_c, 0, 55, 99
1, 86026, Note_off_c, 0, 55, 99
1, 86048, Note_on_c, 0, 62, 100
1, 86142, Note_off_c, 0, 62, 100
1, 86155, Note_on_c, 0, 60, 91
1, 86331, Note_off_c, 0, 60, 91
1, 86409, Note_on_c, 0, 64, 95
1, 86450, Note_off_c, 0, 64, 95
1, 86462, Note_on_c, 0, 67, 106
1, 86527, Note_off_c, 0, 67, 106
1, 86535, Note_on_c, 0, 71, 106
1, 86595, Note_off_c, 0, 71, 106
1, 86607, Note_on_c, 0, 69, 103
1, 86769, Note_off_c, 0, 69, 103
1, 87315, Note_on_c, 0, 65, 103
1, 87375, Note_off_c, 0, 65, 103
1, 87378, Note_on_c, 0, 66, 99
1, 87413, Note_off_c, 0, 66, 99
1, 87427, Note_on_c, 0, 69, 102
1, 87484, Note_off_c, 0, 69, 102
1, 87493, Note_on_c, 0, 67, 108
1, 87541, Note_off_c, 0, 67, 108
1, 87554, Note_on_c, 0, 66, 97
1, 87615, Note_off_c, 0, 66, 97
1, 87628, Note_on_c, 0, 67, 88
1, 87685, Note_off_c, 0, 67, 88
1, 87706, Note_on_c, 0, 69, 98
1, 87747, Note_off_c, 0, 69, 98
1, 87753, Note_on_c, 0, 71, 106
1, 87803, Note_off_c, 0, 71, 106
1, 87814, Note_on_c, 0, 72, 111
1, 87868, Note_off_c, 0, 72, 111
1, 87882, Note_on_c, 0, 71, 109
1, 87931, Note_off_c, 0, 71, 109
1, 87937, Note_on_c, 0, 70, 101
1, 88002, Note_off_c, 0, 70, 101
1, 88021, Note_on_c, 0, 71, 98
1, 88065, Note_off_c, 0, 71, 98
1, 88071, Note_on_c, 0, 72, 105
1, 88117, Note_off_c, 0, 72, 105
1, 88125, Note_on_c, 0, 73, 102
1, 88167, Note_off_c, 0, 73, 102
1, 88172, Note_on_c, 0, 74, 99
1, 88229, Note_off_c, 0, 74, 99
1, 88240, Note_on_c, 0, 79, 112
1, 88315, Note_off_c, 0, 79, 112
1, 88325, Note_on_c, 0, 75, 98
1, 88352, Note_off_c, 0, 75, 98
1, 88366, Note_on_c, 0, 70, 98
1, 88408, Note_off_c, 0, 70, 98
1, 88424, Note_on_c, 0, 67, 113
1, 88479, Note_off_c, 0, 67, 113
1, 88486, Note_on_c, 0, 69, 104
1, 88621, Note_off_c, 0, 69, 104
1, 88623, Note_on_c, 0, 68, 89
1, 88660, Note_off_c, 0, 68, 89
1, 89569, Note_on_c, 0, 67, 102
1, 89635, Note_off_c, 0, 67, 102
1, 89642, Note_on_c, 0, 70, 112
1, 89737, Note_off_c, 0, 70, 112
1, 89750, Note_on_c, 0, 71, 115
1, 89814, Note_off_c, 0, 71, 115
1, 89825, Note_on_c, 0, 72, 114
1, 89922, Note_off_c, 0, 72, 114
1, 89932, Note_on_c, 0, 75, 100
1, 90010, Note_off_c, 0, 75, 100
1, 90017, Note_on_c, 0, 72, 106
1, 90126, Note_off_c, 0, 72, 106
1, 90131, Note_on_c, 0, 73, 105
1, 90206, Note_off_c, 0, 73, 105
1, 90218, Note_on_c, 0, 74, 113
1, 90291, Note_off_c, 0, 74, 113
1, 90304, Note_on_c, 0, 72, 111
1, 90383, Note_off_c, 0, 72, 111
1, 90393, Note_on_c, 0, 69, 112
1, 90486, Note_off_c, 0, 69, 112
1, 90494, Note_on_c, 0, 67, 104
1, 90552, Note_off_c, 0, 67, 104
1, 90560, Note_on_c, 0, 65, 94
1, 90683, Note_off_c, 0, 65, 94
1, 90774, Note_on_c, 0, 65, 99
1, 90958, Note_off_c, 0, 65, 99
1, 90982, Note_on_c, 0, 67, 110
1, 91066, Note_off_c, 0, 67, 110
1, 91077, Note_on_c, 0, 69, 113
1, 91145, Note_off_c, 0, 69, 113
1, 91162, Note_on_c, 0, 67, 106
1, 91248, Note_off_c, 0, 67, 106
1, 91273, Note_on_c, 0, 65, 102
1, 91352, Note_off_c, 0, 65, 102
1, 91367, Note_on_c, 0, 63, 88
1, 91438, Note_off_c, 0, 63, 88
1, 91448, Note_on_c, 0, 62, 96
1, 91529, Note_off_c, 0, 62, 96
1, 91545, Note_on_c, 0, 61, 88
1, 91605, Note_off_c, 0, 61, 88
1, 91713, Note_on_c, 0, 67, 113
1, 91826, Note_off_c, 0, 67, 113
1, 91839, Note_on_c, 0, 65, 103
1, 91913, Note_off_c, 0, 65, 103
1, 91925, Note_on_c, 0, 62, 94
1, 91997, Note_off_c, 0, 62, 94
1, 92018, Note_on_c, 0, 58, 99
1, 92094, Note_off_c, 0, 58, 99
1, 92108, Note_on_c, 0, 60, 104
1, 92194, Note_off_c, 0, 60, 104
1, 92198, Note_on_c, 0, 62, 103
1, 92274, Note_off_c, 0, 62, 103
1, 92283, Note_on_c, 0, 60, 101
1, 92358, Note_off_c, 0, 60, 101
1, 92374, Note_on_c, 0, 62, 86
1, 92667, Note_off_c, 0, 62, 86
1, 93542, Note_on_c, 0, 62, 86
1, 93572, Note_off_c, 0, 62, 86
1, 93580, Note_on_c, 0, 65, 104
1, 93637, Note_off_c, 0, 65, 104
1, 93658, Note_on_c, 0, 69, 103
1, 93741, Note_off_c, 0, 69, 103
1, 93758, Note_on_c, 0, 67, 112
1, 93832, Note_off_c, 0, 67, 112
1, 93843, Note_on_c, 0, 66, 91
1, 93927, Note_off_c, 0, 66, 91
1, 93934, Note_on_c, 0, 67, 93
1, 94004, Note_off_c, 0, 67, 93
1, 94023, Note_on_c, 0, 70, 106
1, 94103, Note_off_c, 0, 70, 106
1, 94127, Note_on_c, 0, 67, 105
1, 94214, Note_off_c, 0, 67, 105
1, 94226, Note_on_c, 0, 63, 88
1, 94275, Note_off_c, 0, 63, 88
1, 94301, Note_on_c, 0, 60, 94
1, 94349, Note_off_c, 0, 60, 94
1, 94383, Note_on_c, 0, 65, 103
1, 94453, Note_off_c, 0, 65, 103
1, 94461, Note_on_c, 0, 67, 101
1, 94510, Note_off_c, 0, 67, 101
1, 94521, Note_on_c, 0, 65, 106
1, 94575, Note_off_c, 0, 65, 106
1, 94606, Note_on_c, 0, 62, 93
1, 94679, Note_off_c, 0, 62, 93
1, 94694, Note_on_c, 0, 65, 101
1, 94751, Note_off_c, 0, 65, 101
1, 94766, Note_on_c, 0, 70, 112
1, 94872, Note_off_c, 0, 70, 112
1, 94884, Note_on_c, 0, 65, 92
1, 94943, Note_off_c, 0, 65, 92
1, 94950, Note_on_c, 0, 67, 114
1, 95057, Note_off_c, 0, 67, 114
1, 95064, Note_on_c, 0, 70, 102
1, 95090, Note_off_c, 0, 70, 102
1, 95100, Note_on_c, 0, 67, 98
1, 95123, Note_off_c, 0, 67, 98
1, 95146, Note_on_c, 0, 64, 90
1, 95253, Note_off_c, 0, 64, 90
1, 95260, Note_on_c, 0, 67, 94
1, 95310, Note_off_c, 0, 67, 94
1, 95325, Note_on_c, 0, 71, 116
1, 95439, Note_off_c, 0, 71, 116
1, 95461, Note_on_c, 0, 67, 94
1, 95506, Note_off_c, 0, 67, 94
1, 95522, Note_on_c, 0, 69, 109
1, 95625, Note_off_c, 0, 69, 109
1, 95627, Note_on_c, 0, 70, 103
1, 95642, Note_off_c, 0, 70, 103
1, 95649, Note_on_c, 0, 69, 109
1, 95695, Note_off_c, 0, 69, 109
1, 95714, Note_on_c, 0, 66, 96
1, 95829, Note_off_c, 0, 66, 96
1, 95844, Note_on_c, 0, 69, 91
1, 95892, Note_off_c, 0, 69, 91
1, 95895, Note_on_c, 0, 75, 109
1, 96022, Note_off_c, 0, 75, 109
1, 96029, Note_on_c, 0, 73, 99
1, 96087, Note_off_c, 0, 73, 99
1, 96091, Note_on_c, 0, 74, 112
1, 96183, Note_off_c, 0, 74, 112
1, 96193, Note_on_c, 0, 72, 113
1, 96287, Note_off_c, 0, 72, 113
1, 96295, Note_on_c, 0, 69, 102
1, 96402, Note_off_c, 0, 69, 102
1, 96418, Note_on_c, 0, 70, 96
1, 96464, Note_off_c, 0, 70, 96
1, 96471, Note_on_c, 0, 71, 110
1, 96594, Note_off_c, 0, 71, 110
1, 96603, Note_on_c, 0, 67, 94
1, 96662, Note_off_c, 0, 67, 94
1, 96681, Note_on_c, 0, 74, 103
1, 96708, Note_off_c, 0, 74, 103
1, 96718, Note_on_c, 0, 72, 110
1, 96800, Note_off_c, 0, 72, 110
1, 96810, Note_on_c, 0, 73, 101
1, 96966, Note_off_c, 0, 73, 101
1, 96992, Note_on_c, 0, 74, 103
1, 97189, Note_off_c, 0, 74, 103
1, 97213, Note_on_c, 0, 76, 103
1, 97334, Note_off_c, 0, 76, 103
1, 97347, Note_on_c, 0, 78, 103
1, 97416, Note_off_c, 0, 78, 103
1, 97433, Note_on_c, 0, 79, 110
1, 97542, Note_off_c, 0, 79, 110
1, 97552, Note_on_c, 0, 78, 104
1, 97612, Note_off_c, 0, 78, 104
1, 97632, Note_on_c, 0, 76, 102
1, 97740, Note_off_c, 0, 76, 102
1, 97747, Note_on_c, 0, 75, 104
1, 97819, Note_off_c, 0, 75, 104
1, 97831, Note_on_c, 0, 74, 104
1, 97912, Note_off_c, 0, 74, 104
1, 97941, Note_on_c, 0, 71, 99
1, 98004, Note_off_c, 0, 71, 99
1, 98010, Note_on_c, 0, 67, 117
1, 98115, Note_off_c, 0, 67, 117
1, 98193, Note_on_c, 0, 69, 118
1, 98300, Note_off_c, 0, 69, 118
1, 98307, Note_on_c, 0, 71, 105
1, 98374, Note_off_c, 0, 71, 105
1, 98382, Note_on_c, 0, 69, 117
1, 98469, Note_off_c, 0, 69, 117
1, 98479, Note_on_c, 0, 71, 95
1, 98776, Note_off_c, 0, 71, 95
1, 99435, Note_on_c, 0, 75, 116
1, 99523, Note_off_c, 0, 75, 116
1, 99527, Note_on_c, 0, 76, 113
1, 99610, Note_off_c, 0, 76, 113
1, 99619, Note_on_c, 0, 77, 119
1, 99703, Note_off_c, 0, 77, 119
1, 99706, Note_on_c, 0, 78, 113
1, 99798, Note_off_c, 0, 78, 113
1, 99811, Note_on_c, 0, 75, 112
1, 99891, Note_off_c, 0, 75, 112
1, 99907, Note_on_c, 0, 71, 108
1, 99996, Note_off_c, 0, 71, 108
1, 100008, Note_on_c, 0, 68, 107
1, 100076, Note_off_c, 0, 68, 107
1, 100095, Note_on_c, 0, 75, 106
1, 100191, Note_off_c, 0, 75, 106
1, 100199, Note_on_c, 0, 73, 102
1, 100274, Note_off_c, 0, 73, 102
1, 100276, Note_on_c, 0, 75, 101
1, 100369, Note_off_c, 0, 75, 101
1, 100393, Note_on_c, 0, 73, 106
1, 100479, Note_off_c, 0, 73, 106
1, 100486, Note_on_c, 0, 74, 110
1, 100559, Note_off_c, 0, 74, 110
1, 100578, Note_on_c, 0, 72, 102
1, 100653, Note_off_c, 0, 72, 102
1, 100662, Note_on_c, 0, 69, 110
1, 100776, Note_off_c, 0, 69, 110
1, 100789, Note_on_c, 0, 70, 98
1, 100844, Note_off_c, 0, 70, 98
1, 100851, Note_on_c, 0, 71, 98
1, 100951, Note_off_c, 0, 71, 98
1, 100960, Note_on_c, 0, 66, 104
1, 101068, Note_off_c, 0, 66, 104
1, 101250, Note_on_c, 0, 70, 102
1, 101352, Note_off_c, 0, 70, 102
1, 101360, Note_on_c, 0, 66, 93
1, 101412, Note_off_c, 0, 66, 93
1, 101417, Note_on_c, 0, 69, 109
1, 101514, Note_off_c, 0, 69, 109
1, 101519, Note_on_c, 0, 67, 111
1, 101607, Note_off_c, 0, 67, 111
1, 101619, Note_on_c, 0, 66, 102
1, 101714, Note_off_c, 0, 66, 102
1, 101722, Note_on_c, 0, 67, 101
1, 101797, Note_off_c, 0, 67, 101
1, 101807, Note_on_c, 0, 64, 94
1, 101893, Note_off_c, 0, 64, 94
1, 101902, Note_on_c, 0, 63, 88
1, 101967, Note_off_c, 0, 63, 88
1, 101978, Note_on_c, 0, 62, 92
1, 102085, Note_off_c, 0, 62, 92
1, 102185, Note_on_c, 0, 66, 109
1, 102306, Note_off_c, 0, 66, 109
1, 102319, Note_on_c, 0, 67, 98
1, 102377, Note_off_c, 0, 67, 98
1, 102384, Note_on_c, 0, 69, 114
1, 102481, Note_off_c, 0, 69, 114
1, 102489, Note_on_c, 0, 67, 109
1, 102571, Note_off_c, 0, 67, 109
1, 102584, Note_on_c, 0, 66, 97
1, 102680, Note_off_c, 0, 66, 97
1, 102693, Note_on_c, 0, 67, 90
1, 102751, Note_off_c, 0, 67, 90
1, 102763, Note_on_c, 0, 70, 107
1, 102899, Note_off_c, 0, 70, 107
1, 102908, Note_on_c, 0, 74, 92
1, 102945, Note_off_c, 0, 74, 92
1, 102957, Note_on_c, 0, 76, 107
1, 103056, Note_off_c, 0, 76, 107
1, 103065, Note_on_c, 0, 79, 115
1, 103138, Note_off_c, 0, 79, 115
1, 103162, Note_on_c, 0, 81, 112
1, 103259, Note_off_c, 0, 81, 112
1, 103274, Note_on_c, 0, 79, 110
1, 103359, Note_off_c, 0, 79, 110
1, 103373, Note_on_c, 0, 76, 101
1, 103457, Note_off_c, 0, 76, 101
1, 103470, Note_on_c, 0, 74, 98
1, 103541, Note_off_c, 0, 74, 98
1, 104157, Note_on_c, 0, 58, 110
1, 104226, Note_off_c, 0, 58, 110
1, 104243, Note_on_c, 0, 76, 100
1, 104316, Note_off_c, 0, 76, 100
1, 104326, Note_on_c, 0, 74, 94
1, 104514, Note_off_c, 0, 74, 94
1, 104917, Note_on_c, 0, 69, 103
1, 104998, Note_off_c, 0, 69, 103
1, 105006, Note_on_c, 0, 72, 111
1, 105076, Note_off_c, 0, 72, 111
1, 105092, Note_on_c, 0, 70, 100
1, 105225, Note_off_c, 0, 70, 100
1, 105285, Note_on_c, 0, 66, 108
1, 105387, Note_off_c, 0, 66, 108
1, 105398, Note_on_c, 0, 69, 103
1, 105471, Note_off_c, 0, 69, 103
1, 105485, Note_on_c, 0, 67, 109
1, 105641, Note_off_c, 0, 67, 109
1, 105715, Note_on_c, 0, 62, 78
1, 105760, Note_off_c, 0, 62, 78
1, 105781, Note_on_c, 0, 63, 89
1, 105837, Note_off_c, 0, 63, 89
1, 105945, Note_on_c, 0, 67, 104
1, 106098, Note_off_c, 0, 67, 104
1, 106145, Note_on_c, 0, 64, 82
1, 106214, Note_off_c, 0, 64, 82
1, 106221, Note_on_c, 0, 69, 108
1, 106337, Note_off_c, 0, 69, 108
1, 106371, Note_on_c, 0, 64, 89
1, 106419, Note_off_c, 0, 64, 89
1, 106423, Note_on_c, 0, 66, 109
1, 106524, Note_off_c, 0, 66, 109
1, 106529, Note_on_c, 0, 67, 103
1, 106585, Note_off_c, 0, 67, 103
1, 106595, Note_on_c, 0, 69, 112
1, 106677, Note_off_c, 0, 69, 112
1, 106688, Note_on_c, 0, 67, 117
1, 106773, Note_off_c, 0, 67, 117
1, 106780, Note_on_c, 0, 66, 113
1, 106885, Note_off_c, 0, 66, 113
1, 106903, Note_on_c, 0, 64, 96
1, 106964, Note_off_c, 0, 64, 96
1, 106971, Note_on_c, 0, 62, 87
1, 107028, Note_off_c, 0, 62, 87
1, 107039, Note_on_c, 0, 64, 90
1, 107088, Note_off_c, 0, 64, 90
1, 107097, Note_on_c, 0, 62, 94
1, 107152, Note_off_c, 0, 62, 94
1, 107165, Note_on_c, 0, 67, 109
1, 107304, Note_off_c, 0, 67, 109
1, 107323, Note_on_c, 0, 69, 98
1, 107546, Note_off_c, 0, 69, 98
1, 107631, Note_on_c, 0, 65, 92
1, 107662, Note_off_c, 0, 65, 92
1, 107673, Note_on_c, 0, 61, 100
1, 107704, Note_off_c, 0, 61, 100
1, 107732, Note_on_c, 0, 58, 85
1, 107788, Note_off_c, 0, 58, 85
1, 107788, End_track
0, 0, End_of_file
