0, 0, Header, 1, 1, 192
1, 0, Start_track
1, 0, Note_on_c, 0, 67, 116
1, 109, Note_off_c, 0, 67, 116
1, 122, Note_on_c, 0, 65, 122
1, 196, Note_off_c, 0, 65, 122
1, 212, Note_on_c, 0, 64, 98
1, 288, Note_off_c, 0, 64, 98
1, 305, Note_on_c, 0, 62, 98
1, 373, Note_off_c, 0, 62, 98
1, 489, Note_on_c, 0, 64, 106
1, 553, Note_off_c, 0, 64, 106
1, 576, Note_on_c, 0, 67, 118
1, 672, Note_off_c, 0, 67, 118
1, 683, Note_on_c, 0, 65, 106
1, 729, Note_off_c, 0, 65, 106
1, 745, Note_on_c, 0, 68, 111
1, 836, Note_off_c, 0, 68, 111
1, 863, Note_on_c, 0, 70, 108
1, 932, Note_off_c, 0, 70, 108
1, 939, Note_on_c, 0, 72, 116
1, 1026, Note_off_c, 0, 72, 116
1, 1042, Note_on_c, 0, 70, 108
1, 1101, Note_off_c, 0, 70, 108
1, 1120, Note_on_c, 0, 68, 109
1, 1218, Note_off_c, 0, 68, 109
1, 1335, Note_on_c, 0, 70, 108
1, 1427, Note_off_c, 0, 70, 108
1, 1437, Note_on_c, 0, 69, 108
1, 1493, Note_off_c, 0, 69, 108
1, 1501, Note_on_c, 0, 70, 108
1, 1587, Note_off_c, 0, 70, 108
1, 1605, Note_on_c, 0, 72, 116
1, 1702, Note_off_c, 0, 72, 116
1, 1712, Note_on_c, 0, 73, 107
1, 1800, Note_off_c, 0, 73, 107
1, 1819, Note_on_c, 0, 65, 91
1, 1867, Note_off_c, 0, 65, 91
1, 1878, Note_on_c, 0, 68, 107
1, 2047, Note_off_c, 0, 68, 107
1, 2078, Note_on_c, 0, 72, 108
1, 2170, Note_off_c, 0, 72, 108
1, 2192, Note_on_c, 0, 70, 101
1, 2244, Note_off_c, 0, 70, 101
1, 2261, Note_on_c, 0, 68, 108
1, 2368, Note_off_c, 0, 68, 108
1, 2373, Note_on_c, 0, 65, 97
1, 2427, Note_off_c, 0, 65, 97
1, 2434, Note_on_c, 0, 67, 107
1, 2532, Note_off_c, 0, 67, 107
1, 2550, Note_on_c, 0, 65, 109
1, 2623, Note_off_c, 0, 65, 109
1, 2635, Note_on_c, 0, 63, 98
1, 2709, Note_off_c, 0, 63, 98
1, 2756, Note_on_c, 0, 63, 103
1, 2810, Note_off_c, 0, 63, 103
1, 2832, Note_on_c, 0, 62, 95
1, 2918, Note_off_c, 0, 62, 95
1, 2941, Note_on_c, 0, 63, 106
1, 2983, Note_off_c, 0, 63, 106
1, 3010, Note_on_c, 0, 65, 117
1, 3095, Note_off_c, 0, 65, 117
1, 3110, Note_on_c, 0, 64, 105
1, 3176, Note_off_c, 0, 64, 105
1, 3205, Note_on_c, 0, 63, 103
1, 3263, Note_off_c, 0, 63, 103
1, 3287, Title_t, "Melody"
1, 3287, Tempo, 314136
1, 3287, Key_signature, -4, "major"
1, 3287, Time_signature, 4, 2, 24, 8
1, 3287, Note_on_c, 0, 60, 106
1, 3357, Note_off_c, 0, 60, 106
1, 3369, Note_on_c, 0, 58, 96
1, 3476, Note_off_c, 0, 58, 96
1, 3483, Note_on_c, 0, 56, 101
1, 3536, Note_off_c, 0, 56, 101
1, 3550, Note_on_c, 0, 58, 100
1, 3642, Note_off_c, 0, 58, 100
1, 3662, Note_on_c, 0, 56, 93
1, 3705, Note_off_c, 0, 56, 93
1, 3722, Note_on_c, 0, 58, 102
1, 3825, Note_off_c, 0, 58, 102
1, 3841, Note_on_c, 0, 56, 93
1, 4100, Note_off_c, 0, 56, 93
1, 4473, Note_on_c, 0, 60, 114
1, 4569, Note_off_c, 0, 60, 114
1, 4578, Note_on_c, 0, 59, 107
1, 4655, Note_off_c, 0, 59, 107
1, 4664, Note_on_c, 0, 58, 88
1, 4750, Note_off_c, 0, 58, 88
1, 4774, Note_on_c, 0, 60, 113
1, 4850, Note_off_c, 0, 60, 113
1, 4863, Note_on_c, 0, 61, 102
1, 4931, Note_off_c, 0, 61, 102
1, 4961, Note_on_c, 0, 63, 104
1, 5016, Note_off_c, 0, 63, 104
1, 5029, Note_on_c, 0, 64, 99
1, 5145, Note_off_c, 0, 64, 99
1, 5160, Note_on_c, 0, 62, 102
1, 5200, Note_off_c, 0, 62, 102
1, 5218, Note_on_c, 0, 63, 105
1, 5311, Note_off_c, 0, 63, 105
1, 5329, Note_on_c, 0, 61, 107
1, 5401, Note_off_c, 0, 61, 107
1, 5425, Note_on_c, 0, 60, 85
1, 5492, Note_off_c, 0, 60, 85
1, 5507, Note_on_c, 0, 63, 102
1, 5563, Note_off_c, 0, 63, 102
1, 5572, Note_on_c, 0, 65, 115
1, 5696, Note_off_c, 0, 65, 115
1, 5710, Note_on_c, 0, 63, 94
1, 5749, Note_off_c, 0, 63, 94
1, 5780, Note_on_c, 0, 67, 115
1, 5889, Note_off_c, 0, 67, 115
1, 5941, Note_on_c, 0, 68, 116
1, 6053, Note_off_c, 0, 68, 116
1, 6067, Note_on_c, 0, 67, 111
1, 6135, Note_off_c, 0, 67, 111
1, 6141, Note_on_c, 0, 65, 110
1, 6244, Note_off_c, 0, 65, 110
1, 6255, Note_on_c, 0, 66, 113
1, 6305, Note_off_c, 0, 66, 113
1, 6315, Note_on_c, 0, 67, 115
1, 6416, Note_off_c, 0, 67, 115
1, 6444, Note_on_c, 0, 60, 87
1, 6478, Note_off_c, 0, 60, 87
1, 6490, Note_on_c, 0, 63, 94
1, 6855, Note_off_c, 0, 63, 94
1, 6870, Note_on_c, 0, 56, 103
1, 7038, Note_off_c, 0, 56, 103
1, 7070, Note_on_c, 0, 60, 111
1, 7158, Note_off_c, 0, 60, 111
1, 7174, Note_on_c, 0, 58, 92
1, 7430, Note_off_c, 0, 58, 92
1, 8102, Note_on_c, 0, 63, 102
1, 8140, Note_off_c, 0, 63, 102
1, 8280, Note_on_c, 0, 72, 123
1, 8359, Note_off_c, 0, 72, 123
1, 8374, Note_on_c, 0, 73, 112
1, 8460, Note_off_c, 0, 73, 112
1, 8470, Note_on_c, 0, 72, 119
1, 8550, Note_off_c, 0, 72, 119
1, 8559, Note_on_c, 0, 70, 112
1, 8645, Note_off_c, 0, 70, 112
1, 8653, Note_on_c, 0, 71, 121
1, 8740, Note_off_c, 0, 71, 121
1, 8754, Note_on_c, 0, 72, 118
1, 8846, Note_off_c, 0, 72, 118
1, 8856, Note_on_c, 0, 70, 116
1, 8934, Note_off_c, 0, 70, 116
1, 8945, Note_on_c, 0, 68, 83
1, 9032, Note_off_c, 0, 68, 83
1, 9047, Note_on_c, 0, 66, 119
1, 9113, Note_off_c, 0, 66, 119
1, 9123, Note_on_c, 0, 67, 117
1, 9218, Note_off_c, 0, 67, 117
1, 9233, Note_on_c, 0, 65, 119
1, 9303, Note_off_c, 0, 65, 119
1, 9314, Note_on_c, 0, 64, 103
1, 9399, Note_off_c, 0, 64, 103
1, 9433, Note_on_c, 0, 64, 105
1, 9481, Note_off_c, 0, 64, 105
1, 9512, Note_on_c, 0, 67, 114
1, 9602, Note_off_c, 0, 67, 114
1, 9842, Note_on_c, 0, 65, 117
1, 9877, Note_off_c, 0, 65, 117
1, 9893, Note_on_c, 0, 67, 103
1, 10160, Note_off_c, 0, 67, 103
1, 10194, Note_on_c, 0, 65, 111
1, 10233, Note_off_c, 0, 65, 111
1, 10257, Note_on_c, 0, 68, 120
1, 10362, Note_off_c, 0, 68, 120
1, 10376, Note_on_c, 0, 65, 109
1, 10420, Note_off_c, 0, 65, 109
1, 10435, Note_on_c, 0, 67, 105
1, 10555, Note_off_c, 0, 67, 105
1, 10574, Note_on_c, 0, 65, 95
1, 10599, Note_off_c, 0, 65, 95
1, 10614, Note_on_c, 0, 68, 118
1, 10716, Note_off_c, 0, 68, 118
1, 10727, Note_on_c, 0, 67, 110
1, 10795, Note_off_c, 0, 67, 110
1, 10808, Note_on_c, 0, 65, 113
1, 10916, Note_off_c, 0, 65, 113
1, 10930, Note_on_c, 0, 64, 101
1, 10981, Note_off_c, 0, 64, 101
1, 10990, Note_on_c, 0, 70, 94
1, 11300, Note_off_c, 0, 70, 94
1, 11392, Note_on_c, 0, 72, 122
1, 11498, Note_off_c, 0, 72, 122
1, 11502, Note_on_c, 0, 70, 114
1, 11568, Note_off_c, 0, 70, 114
1, 11577, Note_on_c, 0, 67, 109
1, 11671, Note_off_c, 0, 67, 109
1, 11681, Note_on_c, 0, 65, 114
1, 11755, Note_off_c, 0, 65, 114
1, 11766, Note_on_c, 0, 63, 98
1, 11941, Note_off_c, 0, 63, 98
1, 11960, Note_on_c, 0, 65, 120
1, 12060, Note_off_c, 0, 65, 120
1, 12067, Note_on_c, 0, 63, 100
1, 12118, Note_off_c, 0, 63, 100
1, 12136, Note_on_c, 0, 66, 118
1, 12246, Note_off_c, 0, 66, 118
1, 12252, Note_on_c, 0, 65, 110
1, 12309, Note_off_c, 0, 65, 110
1, 12317, Note_on_c, 0, 63, 103
1, 12476, Note_off_c, 0, 63, 103
1, 12493, Note_on_c, 0, 64, 102
1, 12676, Note_off_c, 0, 64, 102
1, 12694, Note_on_c, 0, 65, 100
1, 13028, Note_off_c, 0, 65, 100
1, 14251, Note_on_c, 0, 60, 95
1, 14294, Note_off_c, 0, 60, 95
1, 14302, Note_on_c, 0, 65, 124
1, 14383, Note_off_c, 0, 65, 124
1, 14397, Note_on_c, 0, 62, 96
1, 14472, Note_off_c, 0, 62, 96
1, 14486, Note_on_c, 0, 63, 102
1, 14556, Note_off_c, 0, 63, 102
1, 14578, Note_on_c, 0, 64, 103
1, 14646, Note_off_c, 0, 64, 103
1, 14669, Note_on_c, 0, 62, 106
1, 14737, Note_off_c, 0, 62, 106
1, 14755, Note_on_c, 0, 60, 104
1, 14819, Note_off_c, 0, 60, 104
1, 15050, Note_on_c, 0, 59, 105
1, 15098, Note_off_c, 0, 59, 105
1, 15111, Note_on_c, 0, 62, 108
1, 15204, Note_off_c, 0, 62, 108
1, 15215, Note_on_c, 0, 60, 107
1, 15282, Note_off_c, 0, 60, 107
1, 15435, Note_on_c, 0, 60, 91
1, 15477, Note_off_c, 0, 60, 91
1, 15493, Note_on_c, 0, 63, 100
1, 15658, Note_off_c, 0, 63, 100
1, 15680, Note_on_c, 0, 65, 125
1, 15793, Note_off_c, 0, 65, 125
1, 15803, Note_on_c, 0, 63, 97
1, 15853, Note_off_c, 0, 63, 97
1, 15870, Note_on_c, 0, 62, 95
1, 15938, Note_off_c, 0, 62, 95
1, 15961, Note_on_c, 0, 63, 109
1, 16029, Note_off_c, 0, 63, 109
1, 16043, Note_on_c, 0, 62, 102
1, 16137, Note_off_c, 0, 62, 102
1, 16161, Note_on_c, 0, 61, 108
1, 16228, Note_off_c, 0, 61, 108
1, 16244, Note_on_c, 0, 60, 97
1, 16308, Note_off_c, 0, 60, 97
1, 16332, Note_on_c, 0, 62, 98
1, 16418, Note_off_c, 0, 62, 98
1, 16436, Note_on_c, 0, 63, 88
1, 16538, Note_off_c, 0, 63, 88
1, 16557, Note_on_c, 0, 64, 100
1, 16596, Note_off_c, 0, 64, 100
1, 16607, Note_on_c, 0, 65, 115
1, 16693, Note_off_c, 0, 65, 115
1, 16716, Note_on_c, 0, 67, 110
1, 16776, Note_off_c, 0, 67, 110
1, 16791, Note_on_c, 0, 68, 105
1, 16871, Note_off_c, 0, 68, 105
1, 16960, Note_on_c, 0, 70, 97
1, 17233, Note_off_c, 0, 70, 97
1, 17461, Note_on_c, 0, 75, 114
1, 17534, Note_off_c, 0, 75, 114
1, 17556, Note_on_c, 0, 72, 111
1, 17627, Note_off_c, 0, 72, 111
1, 17644, Note_on_c, 0, 70, 102
1, 17899, Note_off_c, 0, 70, 102
1, 17916, Note_on_c, 0, 67, 112
1, 18009, Note_off_c, 0, 67, 112
1, 18017, Note_on_c, 0, 65, 116
1, 18101, Note_off_c, 0, 65, 116
1, 18112, Note_on_c, 0, 63, 89
1, 18198, Note_off_c, 0, 63, 89
1, 18208, Note_on_c, 0, 65, 121
1, 18280, Note_off_c, 0, 65, 121
1, 18295, Note_on_c, 0, 67, 95
1, 18317, Note_off_c, 0, 67, 95
1, 18324, Note_on_c, 0, 68, 100
1, 18347, Note_off_c, 0, 68, 100
1, 18354, Note_on_c, 0, 67, 103
1, 18451, Note_off_c, 0, 67, 103
1, 18463, Note_on_c, 0, 68, 111
1, 18561, Note_off_c, 0, 68, 111
1, 18593, Note_on_c, 0, 69, 115
1, 18698, Note_off_c, 0, 69, 115
1, 18707, Note_on_c, 0, 70, 104
1, 18757, Note_off_c, 0, 70, 104
1, 18766, Note_on_c, 0, 67, 114
1, 18848, Note_off_c, 0, 67, 114
1, 18857, Note_on_c, 0, 63, 99
1, 18951, Note_off_c, 0, 63, 99
1, 18960, Note_on_c, 0, 60, 101
1, 19011, Note_off_c, 0, 60, 101
1, 19019, Note_on_c, 0, 63, 104
1, 19126, Note_off_c, 0, 63, 104
1, 19149, Note_on_c, 0, 61, 102
1, 19214, Note_off_c, 0, 61, 102
1, 19234, Note_on_c, 0, 62, 103
1, 19304, Note_off_c, 0, 62, 103
1, 19318, Note_on_c, 0, 61, 107
1, 19405, Note_off_c, 0, 61, 107
1, 19421, Note_on_c, 0, 60, 93
1, 19490, Note_off_c, 0, 60, 93
1, 19518, Note_on_c, 0, 64, 108
1, 19571, Note_off_c, 0, 64, 108
1, 19582, Note_on_c, 0, 67, 110
1, 19681, Note_off_c, 0, 67, 110
1, 19695, Note_on_c, 0, 71, 112
1, 19734, Note_off_c, 0, 71, 112
1, 19746, Note_on_c, 0, 74, 113
1, 19871, Note_off_c, 0, 74, 113
1, 19941, Note_on_c, 0, 76, 126
1, 20060, Note_off_c, 0, 76, 126
1, 20071, Note_on_c, 0, 74, 113
1, 20122, Note_off_c, 0, 74, 113
1, 20145, Note_on_c, 0, 71, 112
1, 20270, Note_off_c, 0, 71, 112
1, 20280, Note_on_c, 0, 67, 95
1, 20316, Note_off_c, 0, 67, 95
1, 20322, Note_on_c, 0, 69, 115
1, 20431, Note_off_c, 0, 69, 115
1, 20437, Note_on_c, 0, 71, 93
1, 20736, Note_off_c, 0, 71, 93
1, 22657, Note_on_c, 0, 64, 112
1, 22711, Note_off_c, 0, 64, 112
1, 22724, Note_on_c, 0, 67, 117
1, 22828, Note_off_c, 0, 67, 117
1, 22838, Note_on_c, 0, 64, 107
1, 22910, Note_off_c, 0, 64, 107
1, 22923, Note_on_c, 0, 62, 101
1, 23009, Note_off_c, 0, 62, 101
1, 23028, Note_on_c, 0, 67, 114
1, 23098, Note_off_c, 0, 67, 114
1, 23109, Note_on_c, 0, 66, 92
1, 23162, Note_off_c, 0, 66, 92
1, 23213, Note_on_c, 0, 67, 108
1, 23282, Note_off_c, 0, 67, 108
1, 23290, Note_on_c, 0, 69, 122
1, 23383, Note_off_c, 0, 69, 122
1, 23394, Note_on_c, 0, 67, 108
1, 23473, Note_off_c, 0, 67, 108
1, 23491, Note_on_c, 0, 64, 100
1, 23573, Note_off_c, 0, 64, 100
1, 23664, Note_on_c, 0, 62, 104
1, 23828, Note_off_c, 0, 62, 104
1, 23863, Note_on_c, 0, 62, 105
1, 24020, Note_off_c, 0, 62, 105
1, 24053, Note_on_c, 0, 64, 105
1, 24131, Note_off_c, 0, 64, 105
1, 24148, Note_on_c, 0, 67, 95
1, 24194, Note_off_c, 0, 67, 95
1, 24212, Note_on_c, 0, 69, 114
1, 24323, Note_off_c, 0, 69, 114
1, 24421, Note_on_c, 0, 71, 107
1, 24535, Note_off_c, 0, 71, 107
1, 24606, Note_on_c, 0, 71, 110
1, 24771, Note_off_c, 0, 71, 110
1, 24776, Note_on_c, 0, 72, 113
1, 24877, Note_off_c, 0, 72, 113
1, 24889, Note_on_c, 0, 71, 111
1, 24957, Note_off_c, 0, 71, 111
1, 24964, Note_on_c, 0, 70, 105
1, 25069, Note_off_c, 0, 70, 105
1, 25075, Note_on_c, 0, 68, 101
1, 25137, Note_off_c, 0, 68, 101
1, 25143, Note_on_c, 0, 69, 116
1, 25306, Note_off_c, 0, 69, 116
1, 25373, Note_on_c, 0, 69, 119
1, 25539, Note_off_c, 0, 69, 119
1, 25568, Note_on_c, 0, 67, 110
1, 25669, Note_off_c, 0, 67, 110
1, 25672, Note_on_c, 0, 63, 102
1, 25721, Note_off_c, 0, 63, 102
1, 25733, Note_on_c, 0, 60, 102
1, 25858, Note_off_c, 0, 60, 102
1, 25866, Note_on_c, 0, 55, 91
1, 25911, Note_off_c, 0, 55, 91
1, 25939, Note_on_c, 0, 59, 85
1, 26188, Note_off_c, 0, 59, 85
1, 26993, Note_on_c, 0, 60, 101
1, 27052, Note_off_c, 0, 60, 101
1, 27060, Note_on_c, 0, 61, 98
1, 27136, Note_off_c, 0, 61, 98
1, 27154, Note_on_c, 0, 63, 107
1, 27227, Note_off_c, 0, 63, 107
1, 27235, Note_on_c, 0, 64, 109
1, 27322, Note_off_c, 0, 64, 109
1, 27338, Note_on_c, 0, 67, 118
1, 27415, Note_off_c, 0, 67, 118
1, 27424, Note_on_c, 0, 70, 117
1, 27504, Note_off_c, 0, 70, 117
1, 27517, Note_on_c, 0, 68, 122
1, 27593, Note_off_c, 0, 68, 122
1, 27607, Note_on_c, 0, 65, 117
1, 27706, Note_off_c, 0, 65, 117
1, 27732, Note_on_c, 0, 60, 102
1, 27785, Note_off_c, 0, 60, 102
1, 27815, Note_on_c, 0, 67, 100
1, 27879, Note_off_c, 0, 67, 100
1, 27889, Note_on_c, 0, 68, 115
1, 27945, Note_off_c, 0, 68, 115
1, 27959, Note_on_c, 0, 67, 111
1, 27995, Note_off_c, 0, 67, 111
1, 27999, Note_on_c, 0, 65, 114
1, 28092, Note_off_c, 0, 65, 114
1, 28101, Note_on_c, 0, 68, 125
1, 28179, Note_off_c, 0, 68, 125
1, 28188, Note_on_c, 0, 65, 117
1, 28271, Note_off_c, 0, 65, 117
1, 28287, Note_on_c, 0, 61, 106
1, 28367, Note_off_c, 0, 61, 106
1, 28383, Note_on_c, 0, 56, 104
1, 28472, Note_off_c, 0, 56, 104
1, 28490, Note_on_c, 0, 53, 100
1, 28543, Note_off_c, 0, 53, 100
1, 28564, Note_on_c, 0, 60, 108
1, 28733, Note_off_c, 0, 60, 108
1, 28752, Note_on_c, 0, 58, 99
1, 28855, Note_off_c, 0, 58, 99
1, 28892, Note_on_c, 0, 63, 104
1, 28996, Note_off_c, 0, 63, 104
1, 29232, Note_on_c, 0, 63, 106
1, 29311, Note_off_c, 0, 63, 106
1, 29317, Note_on_c, 0, 64, 107
1, 29408, Note_off_c, 0, 64, 107
1, 29508, Note_on_c, 0, 64, 106
1, 29682, Note_off_c, 0, 64, 106
1, 29686, Note_on_c, 0, 65, 122
1, 29804, Note_off_c, 0, 65, 122
1, 29914, Note_on_c, 0, 65, 119
1, 29996, Note_off_c, 0, 65, 119
1, 30004, Note_on_c, 0, 65, 118
1, 30072, Note_off_c, 0, 65, 118
1, 30081, Note_on_c, 0, 66, 112
1, 30183, Note_off_c, 0, 66, 112
1, 30278, Note_on_c, 0, 68, 100
1, 30606, Note_off_c, 0, 68, 100
1, 30629, Note_on_c, 0, 65, 9
1, 30738, Note_off_c, 0, 65, 9
1, 30752, Note_on_c, 0, 63, 103
1, 30821, Note_off_c, 0, 63, 103
1, 30879, Note_on_c, 0, 60, 83
1, 30943, Note_off_c, 0, 60, 83
1, 30960, Note_on_c, 0, 61, 101
1, 31011, Note_off_c, 0, 61, 101
1, 31041, Note_on_c, 0, 65, 110
1, 31112, Note_off_c, 0, 65, 110
1, 31135, Note_on_c, 0, 68, 109
1, 31204, Note_off_c, 0, 68, 109
1, 31227, Note_on_c, 0, 70, 93
1, 31492, Note_off_c, 0, 70, 93
1, 31589, Note_on_c, 0, 68, 111
1, 31680, Note_off_c, 0, 68, 111
1, 31699, Note_on_c, 0, 64, 101
1, 31750, Note_off_c, 0, 64, 101
1, 31779, Note_on_c, 0, 61, 97
1, 31849, Note_off_c, 0, 61, 97
1, 31872, Note_on_c, 0, 67, 109
1, 31953, Note_off_c, 0, 67, 109
1, 31961, Note_on_c, 0, 65, 82
1, 32070, Note_off_c, 0, 65, 82
1, 32077, Note_on_c, 0, 66, 110
1, 32134, Note_off_c, 0, 66, 110
1, 32145, Note_on_c, 0, 67, 108
1, 32248, Note_off_c, 0, 67, 108
1, 32258, Note_on_c, 0, 65, 110
1, 32325, Note_off_c, 0, 65, 110
1, 32346, Note_on_c, 0, 63, 98
1, 32419, Note_off_c, 0, 63, 98
1, 32436, Note_on_c, 0, 60, 104
1, 32508, Note_off_c, 0, 60, 104
1, 32520, Note_on_c, 0, 58, 88
1, 32646, Note_off_c, 0, 58, 88
1, 32669, Note_on_c, 0, 56, 98
1, 32713, Note_off_c, 0, 56, 98
1, 32732, Note_on_c, 0, 58, 96
1, 32841, Note_off_c, 0, 58, 96
1, 32852, Note_on_c, 0, 56, 93
1, 32904, Note_off_c, 0, 56, 93
1, 32905, Note_on_c, 0, 58, 96
1, 33000, Note_off_c, 0, 58, 96
1, 33018, Note_on_c, 0, 56, 98
1, 33169, Note_off_c, 0, 56, 98
1, 33202, Note_on_c, 0, 56, 95
1, 33261, Note_off_c, 0, 56, 95
1, 33294, Note_on_c, 0, 60, 101
1, 33413, Note_off_c, 0, 60, 101
1, 33446, Note_on_c, 0, 63, 91
1, 33820, Note_off_c, 0, 63, 91
1, 34870, Note_on_c, 0, 72, 116
1, 34937, Note_off_c, 0, 72, 116
1, 34941, Note_on_c, 0, 75, 113
1, 35041, Note_off_c, 0, 75, 113
1, 35055, Note_on_c, 0, 76, 119
1, 35088, Note_off_c, 0, 76, 119
1, 35097, Note_on_c, 0, 75, 113
1, 35139, Note_off_c, 0, 75, 113
1, 35146, Note_on_c, 0, 72, 119
1, 35244, Note_off_c, 0, 72, 119
1, 35259, Note_on_c, 0, 70, 116
1, 35341, Note_off_c, 0, 70, 116
1, 35351, Note_on_c, 0, 68, 108
1, 35438, Note_off_c, 0, 68, 108
1, 35449, Note_on_c, 0, 70, 114
1, 35512, Note_off_c, 0, 70, 114
1, 35518, Note_on_c, 0, 72, 119
1, 35617, Note_off_c, 0, 72, 119
1, 35633, Note_on_c, 0, 73, 103
1, 35704, Note_off_c, 0, 73, 103
1, 35738, Note_on_c, 0, 70, 94
1, 35822, Note_off_c, 0, 70, 94
1, 35833, Note_on_c, 0, 71, 117
1, 35895, Note_off_c, 0, 71, 117
1, 35906, Note_on_c, 0, 72, 119
1, 35987, Note_off_c, 0, 72, 119
1, 36008, Note_on_c, 0, 70, 115
1, 36086, Note_off_c, 0, 70, 115
1, 36100, Note_on_c, 0, 68, 118
1, 36194, Note_off_c, 0, 68, 118
1, 36205, Note_on_c, 0, 64, 108
1, 36271, Note_off_c, 0, 64, 108
1, 36287, Note_on_c, 0, 60, 99
1, 36400, Note_off_c, 0, 60, 99
1, 36473, Note_on_c, 0, 65, 121
1, 36569, Note_off_c, 0, 65, 121
1, 36573, Note_on_c, 0, 60, 99
1, 36644, Note_off_c, 0, 60, 99
1, 36652, Note_on_c, 0, 65, 117
1, 36752, Note_off_c, 0, 65, 117
1, 36783, Note_on_c, 0, 68, 120
1, 36859, Note_off_c, 0, 68, 120
1, 36890, Note_on_c, 0, 65, 88
1, 36956, Note_off_c, 0, 65, 88
1, 36960, Note_on_c, 0, 66, 111
1, 37034, Note_off_c, 0, 66, 111
1, 37046, Note_on_c, 0, 67, 111
1, 37143, Note_off_c, 0, 67, 111
1, 37161, Note_on_c, 0, 66, 111
1, 37236, Note_off_c, 0, 66, 111
1, 37246, Note_on_c, 0, 65, 91
1, 37329, Note_off_c, 0, 65, 91
1, 37343, Note_on_c, 0, 67, 107
1, 37399, Note_off_c, 0, 67, 107
1, 37405, Note_on_c, 0, 68, 114
1, 37511, Note_off_c, 0, 68, 114
1, 37620, Note_on_c, 0, 70, 109
1, 37706, Note_off_c, 0, 70, 109
1, 37724, Note_on_c, 0, 72, 114
1, 37801, Note_off_c, 0, 72, 114
1, 37815, Note_on_c, 0, 73, 89
1, 37896, Note_off_c, 0, 73, 89
1, 38000, Note_on_c, 0, 75, 116
1, 38119, Note_off_c, 0, 75, 116
1, 38186, Note_on_c, 0, 79, 106
1, 38231, Note_off_c, 0, 79, 106
1, 38236, Note_on_c, 0, 80, 116
1, 38384, Note_off_c, 0, 80, 116
1, 38397, Note_on_c, 0, 75, 115
1, 38498, Note_off_c, 0, 75, 115
1, 38503, Note_on_c, 0, 73, 97
1, 38643, Note_off_c, 0, 73, 97
1, 38649, Note_on_c, 0, 72, 101
1, 38685, Note_off_c, 0, 72, 101
1, 38692, Note_on_c, 0, 70, 106
1, 38756, Note_off_c, 0, 70, 106
1, 38771, Note_on_c, 0, 68, 110
1, 38850, Note_off_c, 0, 68, 110
1, 38856, Note_on_c, 0, 77, 116
1, 39139, Note_off_c, 0, 77, 116
1, 39153, Note_on_c, 0, 75, 113
1, 39247, Note_off_c, 0, 75, 113
1, 39258, Note_on_c, 0, 73, 96
1, 39327, Note_off_c, 0, 73, 96
1, 39336, Note_on_c, 0, 72, 107
1, 39428, Note_off_c, 0, 72, 107
1, 39440, Note_on_c, 0, 70, 107
1, 39508, Note_off_c, 0, 70, 107
1, 39512, Note_on_c, 0, 69, 109
1, 39623, Note_off_c, 0, 69, 109
1, 39634, Note_on_c, 0, 67, 93
1, 39683, Note_off_c, 0, 67, 93
1, 39697, Note_on_c, 0, 68, 110
1, 39803, Note_off_c, 0, 68, 110
1, 39814, Note_on_c, 0, 66, 111
1, 39893, Note_off_c, 0, 66, 111
1, 39918, Note_on_c, 0, 63, 88
1, 39977, Note_off_c, 0, 63, 88
1, 39986, Note_on_c, 0, 64, 104
1, 40048, Note_off_c, 0, 64, 104
1, 40066, Note_on_c, 0, 65, 114
1, 40167, Note_off_c, 0, 65, 114
1, 40197, Note_on_c, 0, 63, 101
1, 40251, Note_off_c, 0, 63, 101
1, 40274, Note_on_c, 0, 60, 89
1, 40388, Note_off_c, 0, 60, 89
1, 40402, Note_on_c, 0, 61, 89
1, 40438, Note_off_c, 0, 61, 89
1, 40455, Note_on_c, 0, 62, 98
1, 40557, Note_off_c, 0, 62, 98
1, 40569, Note_on_c, 0, 60, 99
1, 40621, Note_off_c, 0, 60, 99
1, 40784, Note_on_c, 0, 62, 91
1, 40804, Note_off_c, 0, 62, 91
1, 40817, Note_on_c, 0, 67, 113
1, 40931, Note_off_c, 0, 67, 113
1, 40946, Note_on_c, 0, 65, 106
1, 41020, Note_off_c, 0, 65, 106
1, 41163, Note_on_c, 0, 67, 90
1, 41198, Note_off_c, 0, 67, 90
1, 41217, Note_on_c, 0, 69, 112
1, 41317, Note_off_c, 0, 69, 112
1, 41380, Note_on_c, 0, 72, 85
1, 41681, Note_off_c, 0, 72, 85
1, 41971, Note_on_c, 0, 67, 106
1, 42116, Note_off_c, 0, 67, 106
1, 42167, Note_on_c, 0, 64, 106
1, 42269, Note_off_c, 0, 64, 106
1, 42280, Note_on_c, 0, 60, 104
1, 42334, Note_off_c, 0, 60, 104
1, 42360, Note_on_c, 0, 68, 118
1, 42447, Note_off_c, 0, 68, 118
1, 42475, Note_on_c, 0, 65, 115
1, 42543, Note_off_c, 0, 65, 115
1, 42554, Note_on_c, 0, 61, 101
1, 42638, Note_off_c, 0, 61, 101
1, 42658, Note_on_c, 0, 59, 102
1, 42707, Note_off_c, 0, 59, 102
1, 42726, Note_on_c, 0, 62, 101
1, 42827, Note_off_c, 0, 62, 101
1, 42835, Note_on_c, 0, 60, 104
1, 42908, Note_off_c, 0, 60, 104
1, 43110, Note_on_c, 0, 63, 100
1, 43209, Note_off_c, 0, 63, 100
1, 43230, Note_on_c, 0, 67, 90
1, 43267, Note_off_c, 0, 67, 90
1, 43279, Note_on_c, 0, 70, 111
1, 43361, Note_off_c, 0, 70, 111
1, 43372, Note_on_c, 0, 72, 110
1, 43423, Note_off_c, 0, 72, 110
1, 43426, Note_on_c, 0, 70, 110
1, 43462, Note_off_c, 0, 70, 110
1, 43475, Note_on_c, 0, 69, 110
1, 43598, Note_off_c, 0, 69, 110
1, 43625, Note_on_c, 0, 67, 80
1, 43665, Note_off_c, 0, 67, 80
1, 43679, Note_on_c, 0, 68, 107
1, 43768, Note_off_c, 0, 68, 107
1, 43786, Note_on_c, 0, 72, 104
1, 43834, Note_off_c, 0, 72, 104
1, 43864, Note_on_c, 0, 75, 110
1, 43976, Note_off_c, 0, 75, 110
1, 44046, Note_on_c, 0, 77, 121
1, 44148, Note_off_c, 0, 77, 121
1, 44160, Note_on_c, 0, 78, 120
1, 44214, Note_off_c, 0, 78, 120
1, 44229, Note_on_c, 0, 79, 116
1, 44332, Note_off_c, 0, 79, 116
1, 44352, Note_on_c, 0, 77, 119
1, 44428, Note_off_c, 0, 77, 119
1, 44447, Note_on_c, 0, 74, 98
1, 44549, Note_off_c, 0, 74, 98
1, 44633, Note_on_c, 0, 72, 107
1, 44727, Note_off_c, 0, 72, 107
1, 44734, Note_on_c, 0, 75, 114
1, 44803, Note_off_c, 0, 75, 114
1, 44817, Note_on_c, 0, 72, 102
1, 44919, Note_off_c, 0, 72, 102
1, 44949, Note_on_c, 0, 72, 85
1, 45280, Note_off_c, 0, 72, 85
1, 46248, Note_on_c, 0, 74, 108
1, 46272, Note_off_c, 0, 74, 108
1, 46280, Note_on_c, 0, 72, 121
1, 46307, Note_off_c, 0, 72, 121
1, 46340, Note_on_c, 0, 66, 125
1, 46459, Note_off_c, 0, 66, 125
1, 46468, Note_on_c, 0, 69, 96
1, 46504, Note_off_c, 0, 69, 96
1, 46522, Note_on_c, 0, 72, 117
1, 46607, Note_off_c, 0, 72, 117
1, 46628, Note_on_c, 0, 75, 116
1, 46704, Note_off_c, 0, 75, 116
1, 46712, Note_on_c, 0, 72, 119
1, 46810, Note_off_c, 0, 72, 119
1, 46819, Note_on_c, 0, 73, 103
1, 46901, Note_off_c, 0, 73, 103
1, 46908, Note_on_c, 0, 74, 109
1, 46987, Note_off_c, 0, 74, 109
1, 47079, Note_on_c, 0, 72, 121
1, 47194, Note_off_c, 0, 72, 121
1, 47220, Note_on_c, 0, 69, 103
1, 47271, Note_off_c, 0, 69, 103
1, 47279, Note_on_c, 0, 70, 115
1, 47391, Note_off_c, 0, 70, 115
1, 47397, Note_on_c, 0, 71, 111
1, 47469, Note_off_c, 0, 71, 111
1, 47476, Note_on_c, 0, 72, 110
1, 47562, Note_off_c, 0, 72, 110
1, 47573, Note_on_c, 0, 71, 114
1, 47648, Note_off_c, 0, 71, 114
1, 47657, Note_on_c, 0, 67, 113
1, 47769, Note_off_c, 0, 67, 113
1, 47790, Note_on_c, 0, 62, 95
1, 47832, Note_off_c, 0, 62, 95
1, 47853, Note_on_c, 0, 66, 114
1, 47959, Note_off_c, 0, 66, 114
1, 47997, Note_on_c, 0, 62, 93
1, 48030, Note_off_c, 0, 62, 93
1, 48055, Note_on_c, 0, 65, 114
1, 48157, Note_off_c, 0, 65, 114
1, 48171, Note_on_c, 0, 62, 89
1, 48212, Note_off_c, 0, 62, 89
1, 48233, Note_on_c, 0, 66, 116
1, 48344, Note_off_c, 0, 66, 116
1, 48363, Note_on_c, 0, 62, 86
1, 48394, Note_off_c, 0, 62, 86
1, 48404, Note_on_c, 0, 65, 115
1, 48538, Note_off_c, 0, 65, 115
1, 48554, Note_on_c, 0, 60, 97
1, 48595, Note_off_c, 0, 60, 97
1, 48623, Note_on_c, 0, 66, 107
1, 48735, Note_off_c, 0, 66, 107
1, 48755, Note_on_c, 0, 62, 81
1, 48788, Note_off_c, 0, 62, 81
1, 48809, Note_on_c, 0, 67, 77
1, 49155, Note_off_c, 0, 67, 77
1, 49484, Note_on_c, 0, 67, 114
1, 49548, Note_off_c, 0, 67, 114
1, 49556, Note_on_c, 0, 68, 115
1, 49670, Note_off_c, 0, 68, 115
1, 50046, Note_on_c, 0, 64, 96
1, 50101, Note_off_c, 0, 64, 96
1, 50104, Note_on_c, 0, 69, 121
1, 50224, Note_off_c, 0, 69, 121
1, 50238, Note_on_c, 0, 64, 97
1, 50282, Note_off_c, 0, 64, 97
1, 50308, Note_on_c, 0, 70, 114
1, 50407, Note_off_c, 0, 70, 114
1, 50415, Note_on_c, 0, 71, 116
1, 50477, Note_off_c, 0, 71, 116
1, 50486, Note_on_c, 0, 72, 115
1, 50588, Note_off_c, 0, 72, 115
1, 50598, Note_on_c, 0, 71, 113
1, 50673, Note_off_c, 0, 71, 113
1, 50686, Note_on_c, 0, 69, 109
1, 50766, Note_off_c, 0, 69, 109
1, 50789, Note_on_c, 0, 68, 112
1, 50859, Note_off_c, 0, 68, 112
1, 50867, Note_on_c, 0, 67, 107
1, 50943, Note_off_c, 0, 67, 107
1, 50957, Note_on_c, 0, 68, 104
1, 50995, Note_off_c, 0, 68, 104
1, 51003, Note_on_c, 0, 67, 108
1, 51047, Note_off_c, 0, 67, 108
1, 51053, Note_on_c, 0, 66, 109
1, 51139, Note_off_c, 0, 66, 109
1, 51155, Note_on_c, 0, 64, 97
1, 51231, Note_off_c, 0, 64, 97
1, 51249, Note_on_c, 0, 62, 101
1, 51336, Note_off_c, 0, 62, 101
1, 51343, Note_on_c, 0, 59, 100
1, 51412, Note_off_c, 0, 59, 100
1, 51428, Note_on_c, 0, 57, 102
1, 51522, Note_off_c, 0, 57, 102
1, 51543, Note_on_c, 0, 55, 99
1, 51593, Note_off_c, 0, 55, 99
1, 51635, Note_on_c, 0, 59, 102
1, 51749, Note_off_c, 0, 59, 102
1, 51755, Note_on_c, 0, 58, 94
1, 51801, Note_off_c, 0, 58, 94
1, 51818, Note_on_c, 0, 57, 95
1, 51983, Note_off_c, 0, 57, 95
1, 52004, Note_on_c, 0, 67, 106
1, 52106, Note_off_c, 0, 67, 106
1, 52116, Note_on_c, 0, 66, 116
1, 52227, Note_off_c, 0, 66, 116
1, 52235, Note_on_c, 0, 65, 114
1, 52300, Note_off_c, 0, 65, 114
1, 52316, Note_on_c, 0, 64, 100
1, 52380, Note_off_c, 0, 64, 100
1, 52394, Note_on_c, 0, 63, 94
1, 52473, Note_off_c, 0, 63, 94
1, 52485, Note_on_c, 0, 65, 115
1, 52567, Note_off_c, 0, 65, 115
1, 52574, Note_on_c, 0, 66, 90
1, 52672, Note_off_c, 0, 66, 90
1, 52686, Note_on_c, 0, 69, 113
1, 52747, Note_off_c, 0, 69, 113
1, 52762, Note_on_c, 0, 72, 114
1, 52859, Note_off_c, 0, 72, 114
1, 52872, Note_on_c, 0, 69, 103
1, 52928, Note_off_c, 0, 69, 103
1, 52941, Note_on_c, 0, 71, 108
1, 53047, Note_off_c, 0, 71, 108
1, 53062, Note_on_c, 0, 69, 114
1, 53128, Note_off_c, 0, 69, 114
1, 53161, Note_on_c, 0, 68, 95
1, 53310, Note_off_c, 0, 68, 95
1, 53332, Note_on_c, 0, 69, 117
1, 53428, Note_off_c, 0, 69, 117
1, 53437, Note_on_c, 0, 70, 104
1, 53507, Note_off_c, 0, 70, 104
1, 53516, Note_on_c, 0, 71, 108
1, 53618, Note_off_c, 0, 71, 108
1, 53652, Note_on_c, 0, 64, 83
1, 53699, Note_off_c, 0, 64, 83
1, 53725, Note_on_c, 0, 68, 108
1, 53801, Note_off_c, 0, 68, 108
1, 53818, Note_on_c, 0, 69, 118
1, 53877, Note_off_c, 0, 69, 118
1, 53896, Note_on_c, 0, 70, 107
1, 54082, Note_off_c, 0, 70, 107
1, 54106, Note_on_c, 0, 71, 109
1, 54185, Note_off_c, 0, 71, 109
1, 54194, Note_on_c, 0, 72, 111
1, 54288, Note_off_c, 0, 72, 111
1, 54302, Note_on_c, 0, 73, 100
1, 54385, Note_off_c, 0, 73, 100
1, 54398, Note_on_c, 0, 70, 103
1, 54469, Note_off_c, 0, 70, 103
1, 54484, Note_on_c, 0, 67, 107
1, 54587, Note_off_c, 0, 67, 107
1, 54600, Note_on_c, 0, 64, 95
1, 54648, Note_off_c, 0, 64, 95
1, 54691, Note_on_c, 0, 65, 110
1, 54851, Note_off_c, 0, 65, 110
1, 54872, Note_on_c, 0, 68, 109
1, 54996, Note_off_c, 0, 68, 109
1, 55010, Note_on_c, 0, 65, 101
1, 55052, Note_off_c, 0, 65, 101
1, 55054, Note_on_c, 0, 67, 106
1, 55158, Note_off_c, 0, 67, 106
1, 55171, Note_on_c, 0, 65, 112
1, 55233, Note_off_c, 0, 65, 112
1, 55264, Note_on_c, 0, 60, 105
1, 55350, Note_off_c, 0, 60, 105
1, 55373, Note_on_c, 0, 56, 96
1, 55417, Note_off_c, 0, 56, 96
1, 55441, Note_on_c, 0, 58, 97
1, 55582, Note_off_c, 0, 58, 97
1, 55640, Note_on_c, 0, 53, 97
1, 55694, Note_off_c, 0, 53, 97
1, 55708, Note_on_c, 0, 56, 96
1, 55959, Note_off_c, 0, 56, 96
1, 55992, Note_on_c, 0, 60, 104
1, 56083, Note_off_c, 0, 60, 104
1, 56101, Note_on_c, 0, 63, 97
1, 56360, Note_off_c, 0, 63, 97
1, 56394, Note_on_c, 0, 60, 97
1, 56469, Note_off_c, 0, 60, 97
1, 56482, Note_on_c, 0, 63, 104
1, 56546, Note_off_c, 0, 63, 104
1, 56565, Note_on_c, 0, 60, 103
1, 56662, Note_off_c, 0, 60, 103
1, 56678, Note_on_c, 0, 58, 100
1, 56733, Note_off_c, 0, 58, 100
1, 56759, Note_on_c, 0, 56, 105
1, 56866, Note_off_c, 0, 56, 105
1, 56871, Note_on_c, 0, 53, 85
1, 56910, Note_off_c, 0, 53, 85
1, 56933, Note_on_c, 0, 56, 94
1, 57207, Note_off_c, 0, 56, 94
1, 58005, Note_on_c, 0, 73, 79
1, 58046, Note_off_c, 0, 73, 79
1, 58072, Note_on_c, 0, 75, 119
1, 58207, Note_off_c, 0, 75, 119
1, 58253, Note_on_c, 0, 77, 125
1, 58360, Note_off_c, 0, 77, 125
1, 58376, Note_on_c, 0, 75, 117
1, 58457, Note_off_c, 0, 75, 117
1, 58472, Note_on_c, 0, 73, 103
1, 58584, Note_off_c, 0, 73, 103
1, 58649, Note_on_c, 0, 75, 117
1, 58741, Note_off_c, 0, 75, 117
1, 58752, Note_on_c, 0, 73, 99
1, 58818, Note_off_c, 0, 73, 99
1, 58825, Note_on_c, 0, 71, 111
1, 58932, Note_off_c, 0, 71, 111
1, 58950, Note_on_c, 0, 70, 107
1, 59006, Note_off_c, 0, 70, 107
1, 59021, Note_on_c, 0, 68, 114
1, 59107, Note_off_c, 0, 68, 114
1, 59126, Note_on_c, 0, 70, 104
1, 59328, Note_off_c, 0, 70, 104
1, 59350, Note_on_c, 0, 70, 105
1, 59386, Note_off_c, 0, 70, 105
1, 59410, Note_on_c, 0, 72, 114
1, 59500, Note_off_c, 0, 72, 114
1, 59513, Note_on_c, 0, 70, 108
1, 59581, Note_off_c, 0, 70, 108
1, 59591, Note_on_c, 0, 68, 109
1, 59759, Note_off_c, 0, 68, 109
1, 59777, Note_on_c, 0, 70, 108
1, 59864, Note_off_c, 0, 70, 108
1, 59872, Note_on_c, 0, 68, 109
1, 59953, Note_off_c, 0, 68, 109
1, 59959, Note_on_c, 0, 67, 108
1, 60025, Note_off_c, 0, 67, 108
1, 60032, Note_on_c, 0, 68, 103
1, 60095, Note_off_c, 0, 68, 103
1, 60104, Note_on_c, 0, 67, 107
1, 60142, Note_off_c, 0, 67, 107
1, 60156, Note_on_c, 0, 66, 110
1, 60224, Note_off_c, 0, 66, 110
1, 60230, Note_on_c, 0, 67, 98
1, 60279, Note_off_c, 0, 67, 98
1, 60285, Note_on_c, 0, 66, 109
1, 60325, Note_off_c, 0, 66, 109
1, 60334, Note_on_c, 0, 65, 112
1, 60405, Note_off_c, 0, 65, 112
1, 60419, Note_on_c, 0, 67, 96
1, 60463, Note_off_c, 0, 67, 96
1, 60475, Note_on_c, 0, 65, 108
1, 60536, Note_off_c, 0, 65, 108
1, 60557, Note_on_c, 0, 64, 101
1, 60696, Note_off_c, 0, 64, 101
1, 60733, Note_on_c, 0, 63, 100
1, 60899, Note_off_c, 0, 63, 100
1, 61113, Note_on_c, 0, 60, 111
1, 61210, Note_off_c, 0, 60, 111
1, 61221, Note_on_c, 0, 59, 103
1, 61285, Note_off_c, 0, 59, 103
1, 61305, Note_on_c, 0, 58, 94
1, 61376, Note_off_c, 0, 58, 94
1, 61385, Note_on_c, 0, 56, 106
1, 61513, Note_off_c, 0, 56, 106
1, 61573, Note_on_c, 0, 53, 95
1, 61638, Note_off_c, 0, 53, 95
1, 61655, Note_on_c, 0, 55, 102
1, 61749, Note_off_c, 0, 55, 102
1, 61756, Note_on_c, 0, 53, 94
1, 61828, Note_off_c, 0, 53, 94
1, 61866, Note_on_c, 0, 51, 97
1, 61937, Note_off_c, 0, 51, 97
1, 61941, Note_on_c, 0, 60, 110
1, 62026, Note_off_c, 0, 60, 110
1, 62062, Note_on_c, 0, 55, 93
1, 62180, Note_off_c, 0, 55, 93
1, 62227, Note_on_c, 0, 58, 101
1, 62310, Note_off_c, 0, 58, 101
1, 62315, Note_on_c, 0, 56, 104
1, 62387, Note_off_c, 0, 56, 104
1, 62419, Note_on_c, 0, 53, 95
1, 62472, Note_off_c, 0, 53, 95
1, 62498, Note_on_c, 0, 56, 98
1, 62758, Note_off_c, 0, 56, 98
1, 63428, Note_on_c, 0, 72, 127
1, 63504, Note_off_c, 0, 72, 127
1, 63527, Note_on_c, 0, 68, 111
1, 63602, Note_off_c, 0, 68, 111
1, 63612, Note_on_c, 0, 70, 120
1, 63682, Note_off_c, 0, 70, 120
1, 63720, Note_on_c, 0, 72, 118
1, 63807, Note_off_c, 0, 72, 118
1, 63822, Note_on_c, 0, 68, 120
1, 63901, Note_off_c, 0, 68, 120
1, 63906, Note_on_c, 0, 65, 109
1, 63981, Note_off_c, 0, 65, 109
1, 64000, Note_on_c, 0, 68, 120
1, 64093, Note_off_c, 0, 68, 120
1, 64133, Note_on_c, 0, 72, 111
1, 64187, Note_off_c, 0, 72, 111
1, 64202, Note_on_c, 0, 68, 110
1, 64225, Note_off_c, 0, 68, 110
1, 64232, Note_on_c, 0, 65, 109
1, 64277, Note_off_c, 0, 65, 109
1, 64296, Note_on_c, 0, 73, 108
1, 64378, Note_off_c, 0, 73, 108
1, 64387, Note_on_c, 0, 69, 117
1, 64456, Note_off_c, 0, 69, 117
1, 64484, Note_on_c, 0, 72, 117
1, 64572, Note_off_c, 0, 72, 117
1, 64582, Note_on_c, 0, 71, 113
1, 64650, Note_off_c, 0, 71, 113
1, 64665, Note_on_c, 0, 70, 113
1, 64787, Note_off_c, 0, 70, 113
1, 64807, Note_on_c, 0, 65, 87
1, 64847, Note_off_c, 0, 65, 87
1, 64861, Note_on_c, 0, 68, 120
1, 64969, Note_off_c, 0, 68, 120
1, 64977, Note_on_c, 0, 67, 111
1, 65050, Note_off_c, 0, 67, 111
1, 65055, Note_on_c, 0, 65, 86
1, 65133, Note_off_c, 0, 65, 86
1, 65152, Note_on_c, 0, 67, 106
1, 65214, Note_off_c, 0, 67, 106
1, 65230, Note_on_c, 0, 75, 117
1, 65330, Note_off_c, 0, 75, 117
1, 65346, Note_on_c, 0, 76, 123
1, 65423, Note_off_c, 0, 76, 123
1, 65430, Note_on_c, 0, 77, 121
1, 65522, Note_off_c, 0, 77, 121
1, 65536, Note_on_c, 0, 76, 119
1, 65611, Note_off_c, 0, 76, 119
1, 65631, Note_on_c, 0, 75, 114
1, 65726, Note_off_c, 0, 75, 114
1, 65742, Note_on_c, 0, 68, 111
1, 65817, Note_off_c, 0, 68, 111
1, 65828, Note_on_c, 0, 65, 104
1, 65941, Note_off_c, 0, 65, 104
1, 65954, Note_on_c, 0, 63, 84
1, 66017, Note_off_c, 0, 63, 84
1, 66019, Note_on_c, 0, 68, 92
1, 66301, Note_off_c, 0, 68, 92
1, 66324, Note_on_c, 0, 65, 114
1, 66410, Note_off_c, 0, 65, 114
1, 66426, Note_on_c, 0, 63, 87
1, 66539, Note_off_c, 0, 63, 87
1, 66593, Note_on_c, 0, 68, 98
1, 66829, Note_off_c, 0, 68, 98
1, 66856, Note_on_c, 0, 65, 111
1, 66935, Note_off_c, 0, 65, 111
1, 66961, Note_on_c, 0, 61, 98
1, 67069, Note_off_c, 0, 61, 98
1, 67138, Note_on_c, 0, 68, 112
1, 67254, Note_off_c, 0, 68, 112
1, 67266, Note_on_c, 0, 65, 113
1, 67315, Note_off_c, 0, 65, 113
1, 67362, Note_on_c, 0, 61, 105
1, 67436, Note_off_c, 0, 61, 105
1, 67464, Note_on_c, 0, 58, 85
1, 67511, Note_off_c, 0, 58, 85
1, 67527, Note_on_c, 0, 69, 112
1, 67631, Note_off_c, 0, 69, 112
1, 67649, Note_on_c, 0, 65, 114
1, 67709, Note_off_c, 0, 65, 114
1, 67718, Note_on_c, 0, 62, 95
1, 67834, Note_off_c, 0, 62, 95
1, 67910, Note_on_c, 0, 67, 107
1, 68003, Note_off_c, 0, 67, 107
1, 68026, Note_on_c, 0, 65, 112
1, 68087, Note_off_c, 0, 65, 112
1, 68118, Note_on_c, 0, 62, 86
1, 68193, Note_off_c, 0, 62, 86
1, 68203, Note_on_c, 0, 63, 103
1, 68267, Note_off_c, 0, 63, 103
1, 68281, Note_on_c, 0, 64, 97
1, 68391, Note_off_c, 0, 64, 97
1, 68396, Note_on_c, 0, 65, 105
1, 68432, Note_off_c, 0, 65, 105
1, 68443, Note_on_c, 0, 64, 102
1, 68489, Note_off_c, 0, 64, 102
1, 68511, Note_on_c, 0, 60, 95
1, 68572, Note_off_c, 0, 60, 95
1, 68600, Note_on_c, 0, 64, 105
1, 68651, Note_off_c, 0, 64, 105
1, 68669, Note_on_c, 0, 65, 110
1, 68749, Note_off_c, 0, 65, 110
1, 68765, Note_on_c, 0, 67, 107
1, 68803, Note_off_c, 0, 67, 107
1, 68814, Note_on_c, 0, 65, 110
1, 68852, Note_off_c, 0, 65, 110
1, 68866, Note_on_c, 0, 62, 79
1, 68972, Note_off_c, 0, 62, 79
1, 68986, Note_on_c, 0, 65, 112
1, 69040, Note_off_c, 0, 65, 112
1, 69047, Note_on_c, 0, 66, 112
1, 69091, Note_off_c, 0, 66, 112
1, 69098, Note_on_c, 0, 67, 104
1, 69139, Note_off_c, 0, 67, 104
1, 69150, Note_on_c, 0, 72, 107
1, 69205, Note_off_c, 0, 72, 107
1, 69212, Note_on_c, 0, 67, 109
1, 69263, Note_off_c, 0, 67, 109
1, 69270, Note_on_c, 0, 65, 106
1, 69338, Note_off_c, 0, 65, 106
1, 69345, Note_on_c, 0, 64, 94
1, 69386, Note_off_c, 0, 64, 94
1, 69394, Note_on_c, 0, 65, 101
1, 69449, Note_off_c, 0, 65, 101
1, 69459, Note_on_c, 0, 64, 93
1, 69722, Note_off_c, 0, 64, 93
1, 69775, Note_on_c, 0, 63, 87
1, 70039, Note_off_c, 0, 63, 87
1, 71593, Note_on_c, 0, 72, 103
1, 71666, Note_off_c, 0, 72, 103
1, 71681, Note_on_c, 0, 75, 115
1, 71772, Note_off_c, 0, 75, 115
1, 71787, Note_on_c, 0, 77, 126
1, 71874, Note_off_c, 0, 77, 126
1, 71884, Note_on_c, 0, 75, 111
1, 71984, Note_off_c, 0, 75, 111
1, 71999, Note_on_c, 0, 72, 96
1, 72049, Note_off_c, 0, 72, 96
1, 72069, Note_on_c, 0, 74, 104
1, 72153, Note_off_c, 0, 74, 104
1, 72169, Note_on_c, 0, 75, 111
1, 72253, Note_off_c, 0, 75, 111
1, 72265, Note_on_c, 0, 74, 105
1, 72363, Note_off_c, 0, 74, 105
1, 72386, Note_on_c, 0, 70, 91
1, 72438, Note_off_c, 0, 70, 91
1, 72442, Note_on_c, 0, 73, 92
1, 72536, Note_off_c, 0, 73, 92
1, 72559, Note_on_c, 0, 75, 110
1, 72619, Note_off_c, 0, 75, 110
1, 72629, Note_on_c, 0, 73, 98
1, 72732, Note_off_c, 0, 73, 98
1, 72744, Note_on_c, 0, 72, 106
1, 73021, Note_off_c, 0, 72, 106
1, 73034, Note_on_c, 0, 70, 104
1, 73117, Note_off_c, 0, 70, 104
1, 73131, Note_on_c, 0, 69, 113
1, 73204, Note_off_c, 0, 69, 113
1, 73219, Note_on_c, 0, 68, 113
1, 73313, Note_off_c, 0, 68, 113
1, 73328, Note_on_c, 0, 63, 101
1, 73374, Note_off_c, 0, 63, 101
1, 73411, Note_on_c, 0, 68, 112
1, 73500, Note_off_c, 0, 68, 112
1, 73509, Note_on_c, 0, 70, 105
1, 73581, Note_off_c, 0, 70, 105
1, 73607, Note_on_c, 0, 69, 108
1, 73693, Note_off_c, 0, 69, 108
1, 73714, Note_on_c, 0, 71, 105
1, 73776, Note_off_c, 0, 71, 105
1, 73793, Note_on_c, 0, 69, 109
1, 73903, Note_off_c, 0, 69, 109
1, 73909, Note_on_c, 0, 64, 93
1, 73948, Note_off_c, 0, 64, 93
1, 73961, Note_on_c, 0, 67, 104
1, 74057, Note_off_c, 0, 67, 104
1, 74070, Note_on_c, 0, 69, 114
1, 74146, Note_off_c, 0, 69, 114
1, 74160, Note_on_c, 0, 67, 109
1, 74267, Note_off_c, 0, 67, 109
1, 74278, Note_on_c, 0, 64, 92
1, 74317, Note_off_c, 0, 64, 92
1, 74345, Note_on_c, 0, 66, 102
1, 74439, Note_off_c, 0, 66, 102
1, 74456, Note_on_c, 0, 67, 99
1, 74520, Note_off_c, 0, 67, 99
1, 74536, Note_on_c, 0, 64, 88
1, 74643, Note_off_c, 0, 64, 88
1, 74662, Note_on_c, 0, 63, 95
1, 74709, Note_off_c, 0, 63, 95
1, 74735, Note_on_c, 0, 62, 88
1, 74832, Note_off_c, 0, 62, 88
1, 74842, Note_on_c, 0, 64, 93
1, 74894, Note_off_c, 0, 64, 93
1, 74920, Note_on_c, 0, 67, 102
1, 75030, Note_off_c, 0, 67, 102
1, 75048, Note_on_c, 0, 64, 89
1, 75095, Note_off_c, 0, 64, 89
1, 75102, Note_on_c, 0, 71, 108
1, 75234, Note_off_c, 0, 71, 108
1, 75262, Note_on_c, 0, 67, 86
1, 75307, Note_off_c, 0, 67, 86
1, 75314, Note_on_c, 0, 72, 108
1, 75407, Note_off_c, 0, 72, 108
1, 75418, Note_on_c, 0, 73, 100
1, 75490, Note_off_c, 0, 73, 100
1, 75503, Note_on_c, 0, 74, 101
1, 75578, Note_off_c, 0, 74, 101
1, 75620, Note_on_c, 0, 71, 107
1, 75664, Note_off_c, 0, 71, 107
1, 75677, Note_on_c, 0, 67, 107
1, 75761, Note_off_c, 0, 67, 107
1, 75769, Note_on_c, 0, 64, 85
1, 75802, Note_off_c, 0, 64, 85
1, 75816, Note_on_c, 0, 67, 92
1, 76057, Note_off_c, 0, 67, 92
1, 76380, Note_on_c, 0, 67, 104
1, 76435, Note_off_c, 0, 67, 104
1, 76443, Note_on_c, 0, 69, 88
1, 76476, Note_off_c, 0, 69, 88
1, 76479, Note_on_c, 0, 70, 94
1, 76509, Note_off_c, 0, 70, 94
1, 76516, Note_on_c, 0, 71, 87
1, 76550, Note_off_c, 0, 71, 87
1, 76560, Note_on_c, 0, 74, 108
1, 76624, Note_off_c, 0, 74, 108
1, 76630, Note_on_c, 0, 72, 108
1, 76809, Note_off_c, 0, 72, 108
1, 77150, Note_on_c, 0, 72, 117
1, 77240, Note_off_c, 0, 72, 117
1, 77242, Note_on_c, 0, 75, 109
1, 77291, Note_off_c, 0, 75, 109
1, 77300, Note_on_c, 0, 76, 105
1, 77349, Note_off_c, 0, 76, 105
1, 77357, Note_on_c, 0, 81, 116
1, 77436, Note_off_c, 0, 81, 116
1, 77451, Note_on_c, 0, 84, 93
1, 77501, Note_off_c, 0, 84, 93
1, 77735, Note_on_c, 0, 74, 102
1, 77797, Note_off_c, 0, 74, 102
1, 77805, Note_on_c, 0, 76, 111
1, 77843, Note_off_c, 0, 76, 111
1, 77849, Note_on_c, 0, 77, 113
1, 77888, Note_off_c, 0, 77, 113
1, 77895, Note_on_c, 0, 78, 114
1, 77919, Note_off_c, 0, 78, 114
1, 77926, Note_on_c, 0, 79, 111
1, 78008, Note_off_c, 0, 79, 111
1, 78013, Note_on_c, 0, 78, 110
1, 78108, Note_off_c, 0, 78, 110
1, 78342, Note_on_c, 0, 76, 120
1, 78433, Note_off_c, 0, 76, 120
1, 78448, Note_on_c, 0, 75, 111
1, 78523, Note_off_c, 0, 75, 111
1, 78538, Note_on_c, 0, 74, 104
1, 78631, Note_off_c, 0, 74, 104
1, 78653, Note_on_c, 0, 71, 111
1, 78723, Note_off_c, 0, 71, 111
1, 78730, Note_on_c, 0, 67, 106
1, 78833, Note_off_c, 0, 67, 106
1, 78869, Note_on_c, 0, 64, 92
1, 78916, Note_off_c, 0, 64, 92
1, 78937, Note_on_c, 0, 67, 101
1, 79186, Note_off_c, 0, 67, 101
1, 79322, Note_on_c, 0, 69, 120
1, 79419, Note_off_c, 0, 69, 120
1, 79429, Note_on_c, 0, 67, 109
1, 79513, Note_off_c, 0, 67, 109
1, 79533, Note_on_c, 0, 64, 96
1, 79595, Note_off_c, 0, 64, 96
1, 79606, Note_on_c, 0, 65, 120
1, 79685, Note_off_c, 0, 65, 120
1, 79704, Note_on_c, 0, 66, 115
1, 79803, Note_off_c, 0, 66, 115
1, 79811, Note_on_c, 0, 64, 108
1, 79877, Note_off_c, 0, 64, 108
1, 79899, Note_on_c, 0, 60, 109
1, 79994, Note_off_c, 0, 60, 109
1, 80008, Note_on_c, 0, 57, 106
1, 80070, Note_off_c, 0, 57, 106
1, 80077, Note_on_c, 0, 55, 98
1, 80206, Note_off_c, 0, 55, 98
1, 80224, Note_on_c, 0, 53, 95
1, 80367, Note_off_c, 0, 53, 95
1, 80384, Note_on_c, 0, 57, 101
1, 80448, Note_off_c, 0, 57, 101
1, 80459, Note_on_c, 0, 59, 101
1, 80578, Note_off_c, 0, 59, 101
1, 80591, Note_on_c, 0, 56, 93
1, 80873, Note_off_c, 0, 56, 93
1, 82175, Note_on_c, 0, 60, 86
1, 82325, Note_off_c, 0, 60, 86
1, 82366, Note_on_c, 0, 60, 105
1, 82426, Note_off_c, 0, 60, 105
1, 82450, Note_on_c, 0, 65, 122
1, 82543, Note_off_c, 0, 65, 122
1, 82550, Note_on_c, 0, 60, 94
1, 82716, Note_off_c, 0, 60, 94
1, 82734, Note_on_c, 0, 60, 114
1, 82801, Note_off_c, 0, 60, 114
1, 82811, Note_on_c, 0, 61, 110
1, 82912, Note_off_c, 0, 61, 110
1, 82940, Note_on_c, 0, 58, 86
1, 83121, Note_off_c, 0, 58, 86
1, 83206, Note_on_c, 0, 60, 108
1, 83340, Note_off_c, 0, 60, 108
1, 83357, Note_on_c, 0, 58, 89
1, 83496, Note_off_c, 0, 58, 89
1, 83704, Note_on_c, 0, 65, 111
1, 83758, Note_off_c, 0, 65, 111
1, 83769, Note_on_c, 0, 68, 107
1, 83865, Note_off_c, 0, 68, 107
1, 83880, Note_on_c, 0, 67, 93
1, 84045, Note_off_c, 0, 67, 93
1, 84078, Note_on_c, 0, 67, 102
1, 84127, Note_off_c, 0, 67, 102
1, 84155, Note_on_c, 0, 72, 107
1, 84249, Note_off_c, 0, 72, 107
1, 84266, Note_on_c, 0, 70, 103
1, 84339, Note_off_c, 0, 70, 103
1, 84364, Note_on_c, 0, 67, 105
1, 84448, Note_off_c, 0, 67, 105
1, 84465, Note_on_c, 0, 63, 92
1, 84515, Note_off_c, 0, 63, 92
1, 84548, Note_on_c, 0, 68, 106
1, 84646, Note_off_c, 0, 68, 106
1, 84666, Note_on_c, 0, 63, 93
1, 84715, Note_off_c, 0, 63, 93
1, 84738, Note_on_c, 0, 66, 103
1, 84853, Note_off_c, 0, 66, 103
1, 84869, Note_on_c, 0, 63, 82
1, 84913, Note_off_c, 0, 63, 82
1, 84933, Note_on_c, 0, 65, 109
1, 85034, Note_off_c, 0, 65, 109
1, 85063, Note_on_c, 0, 63, 88
1, 85100, Note_off_c, 0, 63, 88
1, 85125, Note_on_c, 0, 68, 103
1, 85247, Note_off_c, 0, 68, 103
1, 85310, Note_on_c, 0, 65, 111
1, 85429, Note_off_c, 0, 65, 111
1, 85447, Note_on_c, 0, 63, 87
1, 85486, Note_off_c, 0, 63, 87
1, 85520, Note_on_c, 0, 68, 86
1, 85559, Note_off_c, 0, 68, 86
1, 85577, Note_on_c, 0, 63, 92
1, 85635, Note_off_c, 0, 63, 92
1, 85655, Note_on_c, 0, 61, 94
1, 85756, Note_off_c, 0, 61, 94
1, 86099, Note_on_c, 0, 68, 110
1, 86205, Note_off_c, 0, 68, 110
1, 86228, Note_on_c, 0, 64, 107
1, 86322, Note_off_c, 0, 64, 107
1, 86398, Note_on_c, 0, 63, 101
1, 86452, Note_off_c, 0, 63, 101
1, 86485, Note_on_c, 0, 61, 103
1, 86565, Note_off_c, 0, 61, 103
1, 86578, Note_on_c, 0, 68, 102
1, 86850, Note_off_c, 0, 68, 102
1, 86893, Note_on_c, 0, 63, 99
1, 86968, Note_off_c, 0, 63, 99
1, 86976, Note_on_c, 0, 61, 106
1, 87052, Note_off_c, 0, 61, 106
1, 87168, Note_on_c, 0, 59, 97
1, 87230, Note_off_c, 0, 59, 97
1, 87239, Note_on_c, 0, 60, 108
1, 87351, Note_off_c, 0, 60, 108
1, 87365, Note_on_c, 0, 58, 93
1, 87438, Note_off_c, 0, 58, 93
1, 87445, Note_on_c, 0, 57, 98
1, 87528, Note_off_c, 0, 57, 98
1, 87551, Note_on_c, 0, 55, 94
1, 87694, Note_off_c, 0, 55, 94
1, 87740, Note_on_c, 0, 58, 95
1, 87824, Note_off_c, 0, 58, 95
1, 87830, Note_on_c, 0, 59, 98
1, 87902, Note_off_c, 0, 59, 98
1, 87915, Note_on_c, 0, 62, 102
1, 87990, Note_off_c, 0, 62, 102
1, 88013, Note_on_c, 0, 67, 113
1, 88117, Note_off_c, 0, 67, 113
1, 88126, Note_on_c, 0, 65, 103
1, 88184, Note_off_c, 0, 65, 103
1, 88203, Note_on_c, 0, 68, 111
1, 88289, Note_off_c, 0, 68, 111
1, 88306, Note_on_c, 0, 65, 115
1, 88372, Note_off_c, 0, 65, 115
1, 88383, Note_on_c, 0, 60, 103
1, 88507, Note_off_c, 0, 60, 103
1, 88570, Note_on_c, 0, 58, 85
1, 88876, Note_off_c, 0, 58, 85
1, 89629, Note_on_c, 0, 63, 99
1, 89672, Note_off_c, 0, 63, 99
1, 89677, Note_on_c, 0, 65, 116
1, 89730, Note_off_c, 0, 65, 116
1, 89753, Note_on_c, 0, 68, 115
1, 89839, Note_off_c, 0, 68, 115
1, 89852, Note_on_c, 0, 70, 108
1, 89882, Note_off_c, 0, 70, 108
1, 89891, Note_on_c, 0, 68, 116
1, 89922, Note_off_c, 0, 68, 116
1, 89933, Note_on_c, 0, 67, 91
1, 90010, Note_off_c, 0, 67, 91
1, 90056, Note_on_c, 0, 68, 105
1, 90090, Note_off_c, 0, 68, 105
1, 90103, Note_on_c, 0, 70, 111
1, 90214, Note_off_c, 0, 70, 111
1, 90228, Note_on_c, 0, 68, 116
1, 90294, Note_off_c, 0, 68, 116
1, 90303, Note_on_c, 0, 65, 106
1, 90408, Note_off_c, 0, 65, 106
1, 90430, Note_on_c, 0, 63, 88
1, 90466, Note_off_c, 0, 63, 88
1, 90494, Note_on_c, 0, 67, 109
1, 90588, Note_off_c, 0, 67, 109
1, 90601, Note_on_c, 0, 65, 116
1, 90678, Note_off_c, 0, 65, 116
1, 90705, Note_on_c, 0, 62, 88
1, 90792, Note_off_c, 0, 62, 88
1, 90808, Note_on_c, 0, 63, 103
1, 90884, Note_off_c, 0, 63, 103
1, 90885, Note_on_c, 0, 64, 96
1, 90957, Note_off_c, 0, 64, 96
1, 91054, Note_on_c, 0, 72, 118
1, 91170, Note_off_c, 0, 72, 118
1, 91190, Note_on_c, 0, 72, 110
1, 91246, Note_off_c, 0, 72, 110
1, 91262, Note_on_c, 0, 68, 114
1, 91370, Note_off_c, 0, 68, 114
1, 91386, Note_on_c, 0, 65, 92
1, 91465, Note_off_c, 0, 65, 92
1, 91465, End_track
0, 0, End_of_file
