0, 0, Header, 1, 1, 192
1, 0, Start_track
1, 0, Title_t, "Melody"
1, 0, Tempo, 234375
1, 0, Key_signature, -1, "major"
1, 0, Time_signature, 4, 2, 24, 8
1, 3725, Note_on_c, 0, 60, 86
1, 3840, Note_off_c, 0, 60, 86
1, 3840, Note_on_c, 0, 58, 77
1, 3919, Note_off_c, 0, 58, 77
1, 3924, Note_on_c, 0, 57, 84
1, 4025, Note_off_c, 0, 57, 84
1, 4025, Note_on_c, 0, 60, 81
1, 4117, Note_off_c, 0, 60, 81
1, 4117, Note_on_c, 0, 65, 101
1, 4218, Note_off_c, 0, 65, 101
1, 4218, Note_on_c, 0, 62, 83
1, 4306, Note_off_c, 0, 62, 83
1, 4306, Note_on_c, 0, 67, 95
1, 4410, Note_off_c, 0, 67, 95
1, 4410, Note_on_c, 0, 65, 91
1, 4496, Note_off_c, 0, 65, 91
1, 4496, Note_on_c, 0, 64, 88
1, 4589, Note_on_c, 0, 62, 86
1, 4589, Note_off_c, 0, 64, 88
1, 4672, Note_off_c, 0, 62, 86
1, 4678, Note_on_c, 0, 60, 80
1, 4791, Note_off_c, 0, 60, 80
1, 4791, Note_on_c, 0, 53, 85
1, 4857, Note_off_c, 0, 53, 85
1, 4892, Note_on_c, 0, 57, 84
1, 4984, Note_off_c, 0, 57, 84
1, 4984, Note_on_c, 0, 60, 85
1, 5068, Note_off_c, 0, 60, 85
1, 5068, Note_on_c, 0, 64, 87
1, 5167, Note_off_c, 0, 64, 87
1, 5167, Note_on_c, 0, 62, 76
1, 5253, Note_off_c, 0, 62, 76
1, 5258, Note_on_c, 0, 60, 78
1, 5349, Note_off_c, 0, 60, 78
1, 5349, Note_on_c, 0, 64, 84
1, 5436, Note_off_c, 0, 64, 84
1, 5436, Note_on_c, 0, 69, 100
1, 5541, Note_off_c, 0, 69, 100
1, 5541, Note_on_c, 0, 65, 77
1, 5628, Note_off_c, 0, 65, 77
1, 5633, Note_on_c, 0, 70, 100
1, 5721, Note_off_c, 0, 70, 100
1, 5729, Note_on_c, 0, 69, 96
1, 5812, Note_off_c, 0, 69, 96
1, 5812, Note_on_c, 0, 67, 81
1, 5914, Note_off_c, 0, 67, 81
1, 5916, Note_on_c, 0, 65, 77
1, 6007, Note_off_c, 0, 65, 77
1, 6007, Note_on_c, 0, 72, 108
1, 6094, Note_off_c, 0, 72, 108
1, 6094, Note_on_c, 0, 70, 93
1, 6178, Note_off_c, 0, 70, 93
1, 6183, Note_on_c, 0, 69, 80
1, 6296, Note_off_c, 0, 69, 80
1, 6296, Note_on_c, 0, 72, 94
1, 6393, Note_on_c, 0, 77, 96
1, 6393, Note_off_c, 0, 72, 94
1, 6503, Note_off_c, 0, 77, 96
1, 6576, Note_on_c, 0, 70, 81
1, 6695, Note_off_c, 0, 70, 81
1, 6767, Note_on_c, 0, 75, 99
1, 6874, Note_off_c, 0, 75, 99
1, 6874, Note_on_c, 0, 73, 102
1, 6971, Note_off_c, 0, 73, 102
1, 6971, Note_on_c, 0, 72, 93
1, 7082, Note_off_c, 0, 72, 93
1, 7082, Note_on_c, 0, 70, 90
1, 7158, Note_off_c, 0, 70, 90
1, 7160, Note_on_c, 0, 69, 84
1, 7272, Note_off_c, 0, 69, 84
1, 7335, Note_on_c, 0, 72, 106
1, 7431, Note_off_c, 0, 72, 106
1, 7431, Note_on_c, 0, 71, 103
1, 7520, Note_off_c, 0, 71, 103
1, 7520, Note_on_c, 0, 70, 97
1, 7609, Note_off_c, 0, 70, 97
1, 7611, Note_on_c, 0, 69, 96
1, 7717, Note_off_c, 0, 69, 96
1, 7717, Note_on_c, 0, 67, 89
1, 7812, Note_off_c, 0, 67, 89
1, 7812, Note_on_c, 0, 65, 83
1, 7908, Note_off_c, 0, 65, 83
1, 7908, Note_on_c, 0, 64, 78
1, 7999, Note_off_c, 0, 64, 78
1, 7999, Note_on_c, 0, 65, 84
1, 8091, Note_off_c, 0, 65, 84
1, 8091, Note_on_c, 0, 67, 100
1, 8197, Note_off_c, 0, 67, 100
1, 8197, Note_on_c, 0, 64, 83
1, 8293, Note_on_c, 0, 65, 84
1, 8293, Note_off_c, 0, 64, 83
1, 8392, Note_off_c, 0, 65, 84
1, 8392, Note_on_c, 0, 67, 82
1, 8482, Note_off_c, 0, 67, 82
1, 8482, Note_on_c, 0, 69, 95
1, 8586, Note_off_c, 0, 69, 95
1, 8586, Note_on_c, 0, 65, 80
1, 8729, Note_off_c, 0, 65, 80
1, 8814, Note_on_c, 0, 65, 69
1, 8958, Note_off_c, 0, 65, 69
1, 9536, Note_on_c, 0, 66, 99
1, 9600, Note_off_c, 0, 66, 99
1, 9602, Note_on_c, 0, 67, 83
1, 9662, Note_off_c, 0, 67, 83
1, 9662, Note_on_c, 0, 70, 87
1, 9719, Note_off_c, 0, 70, 87
1, 9719, Note_on_c, 0, 74, 96
1, 9804, Note_off_c, 0, 74, 96
1, 9806, Note_on_c, 0, 77, 111
1, 9920, Note_off_c, 0, 77, 111
1, 9930, Note_on_c, 0, 67, 98
1, 10109, Note_off_c, 0, 67, 98
1, 10109, Note_on_c, 0, 70, 84
1, 10186, Note_off_c, 0, 70, 84
1, 10186, Note_on_c, 0, 74, 100
1, 10281, Note_off_c, 0, 74, 100
1, 10281, Note_on_c, 0, 77, 113
1, 10367, Note_off_c, 0, 77, 113
1, 10367, Note_on_c, 0, 66, 83
1, 10621, Note_off_c, 0, 66, 83
1, 10621, Note_on_c, 0, 70, 94
1, 10683, Note_off_c, 0, 70, 94
1, 10683, Note_on_c, 0, 74, 107
1, 10763, Note_off_c, 0, 74, 107
1, 10763, Note_on_c, 0, 77, 101
1, 10847, Note_off_c, 0, 77, 101
1, 10847, Note_on_c, 0, 65, 90
1, 10985, Note_off_c, 0, 65, 90
1, 11198, Note_on_c, 0, 67, 100
1, 11259, Note_off_c, 0, 67, 100
1, 11303, Note_on_c, 0, 70, 87
1, 11416, Note_off_c, 0, 70, 87
1, 11428, Note_on_c, 0, 69, 95
1, 11532, Note_off_c, 0, 69, 95
1, 11532, Note_on_c, 0, 67, 76
1, 11668, Note_on_c, 0, 72, 102
1, 11668, Note_off_c, 0, 67, 76
1, 11786, Note_off_c, 0, 72, 102
1, 11871, Note_on_c, 0, 72, 82
1, 11956, Note_off_c, 0, 72, 82
1, 12448, Note_on_c, 0, 72, 110
1, 12557, Note_off_c, 0, 72, 110
1, 12658, Note_on_c, 0, 73, 108
1, 12774, Note_off_c, 0, 73, 108
1, 12781, Note_on_c, 0, 75, 103
1, 12867, Note_on_c, 0, 73, 103
1, 12867, Note_off_c, 0, 75, 103
1, 12954, Note_off_c, 0, 73, 103
1, 12954, Note_on_c, 0, 72, 99
1, 13051, Note_off_c, 0, 72, 99
1, 13053, Note_on_c, 0, 70, 86
1, 13145, Note_off_c, 0, 70, 86
1, 13150, Note_on_c, 0, 69, 85
1, 13240, Note_off_c, 0, 69, 85
1, 13243, Note_on_c, 0, 72, 108
1, 13332, Note_off_c, 0, 72, 108
1, 13332, Note_on_c, 0, 71, 96
1, 13433, Note_off_c, 0, 71, 96
1, 13433, Note_on_c, 0, 70, 90
1, 13530, Note_off_c, 0, 70, 90
1, 13532, Note_on_c, 0, 69, 101
1, 13624, Note_off_c, 0, 69, 101
1, 13624, Note_on_c, 0, 67, 93
1, 13717, Note_off_c, 0, 67, 93
1, 13717, Note_on_c, 0, 65, 87
1, 13804, Note_off_c, 0, 65, 87
1, 13804, Note_on_c, 0, 64, 75
1, 13905, Note_off_c, 0, 64, 75
1, 13905, Note_on_c, 0, 65, 88
1, 14001, Note_off_c, 0, 65, 88
1, 14001, Note_on_c, 0, 67, 92
1, 14102, Note_on_c, 0, 64, 81
1, 14102, Note_off_c, 0, 67, 92
1, 14190, Note_off_c, 0, 64, 81
1, 14190, Note_on_c, 0, 65, 82
1, 14280, Note_on_c, 0, 67, 77
1, 14280, Note_off_c, 0, 65, 82
1, 14370, Note_off_c, 0, 67, 77
1, 14372, Note_on_c, 0, 70, 96
1, 14471, Note_off_c, 0, 70, 96
1, 14471, Note_on_c, 0, 69, 87
1, 14557, Note_off_c, 0, 69, 87
1, 14557, Note_on_c, 0, 67, 74
1, 14672, Note_off_c, 0, 67, 74
1, 14672, Note_on_c, 0, 65, 75
1, 14761, Note_on_c, 0, 72, 78
1, 14761, Note_off_c, 0, 65, 75
1, 14913, Note_off_c, 0, 72, 78
1, 14968, Note_on_c, 0, 72, 83
1, 15019, Note_off_c, 0, 72, 83
1, 15494, Note_on_c, 0, 70, 101
1, 15598, Note_off_c, 0, 70, 101
1, 15600, Note_on_c, 0, 72, 101
1, 15699, Note_off_c, 0, 72, 101
1, 15699, Note_on_c, 0, 73, 97
1, 15795, Note_off_c, 0, 73, 97
1, 15795, Note_on_c, 0, 75, 93
1, 15879, Note_off_c, 0, 75, 93
1, 15879, Note_on_c, 0, 77, 106
1, 15973, Note_off_c, 0, 77, 106
1, 15994, Note_on_c, 0, 65, 92
1, 16089, Note_off_c, 0, 65, 92
1, 16089, Note_on_c, 0, 68, 104
1, 16184, Note_off_c, 0, 68, 104
1, 16193, Note_on_c, 0, 65, 92
1, 16284, Note_off_c, 0, 65, 92
1, 16284, Note_on_c, 0, 66, 94
1, 16378, Note_off_c, 0, 66, 94
1, 16378, Note_on_c, 0, 68, 100
1, 16460, Note_off_c, 0, 68, 100
1, 16460, Note_on_c, 0, 71, 94
1, 16550, Note_off_c, 0, 71, 94
1, 16565, Note_on_c, 0, 75, 98
1, 16659, Note_off_c, 0, 75, 98
1, 16659, Note_on_c, 0, 78, 119
1, 16729, Note_off_c, 0, 78, 119
1, 16779, Note_on_c, 0, 71, 87
1, 16877, Note_off_c, 0, 71, 87
1, 16877, Note_on_c, 0, 75, 104
1, 16973, Note_off_c, 0, 75, 104
1, 16973, Note_on_c, 0, 73, 105
1, 17062, Note_off_c, 0, 73, 105
1, 17069, Note_on_c, 0, 71, 92
1, 17163, Note_off_c, 0, 71, 92
1, 17163, Note_on_c, 0, 70, 93
1, 17264, Note_on_c, 0, 68, 91
1, 17264, Note_off_c, 0, 70, 93
1, 17359, Note_off_c, 0, 68, 91
1, 17359, Note_on_c, 0, 70, 93
1, 17444, Note_off_c, 0, 70, 93
1, 17456, Note_on_c, 0, 71, 91
1, 17557, Note_off_c, 0, 71, 91
1, 17557, Note_on_c, 0, 73, 103
1, 17633, Note_off_c, 0, 73, 103
1, 17640, Note_on_c, 0, 74, 98
1, 17748, Note_off_c, 0, 74, 98
1, 17750, Note_on_c, 0, 78, 113
1, 17829, Note_off_c, 0, 78, 113
1, 17829, Note_on_c, 0, 79, 85
1, 17971, Note_off_c, 0, 79, 85
1, 18193, Note_on_c, 0, 65, 101
1, 18299, Note_off_c, 0, 65, 101
1, 18299, Note_on_c, 0, 66, 91
1, 18401, Note_off_c, 0, 66, 91
1, 18401, Note_on_c, 0, 70, 83
1, 18495, Note_off_c, 0, 70, 83
1, 18495, Note_on_c, 0, 73, 99
1, 18594, Note_off_c, 0, 73, 99
1, 18599, Note_on_c, 0, 77, 110
1, 18697, Note_off_c, 0, 77, 110
1, 18710, Note_on_c, 0, 72, 94
1, 18790, Note_off_c, 0, 72, 94
1, 18790, Note_on_c, 0, 75, 100
1, 18913, Note_off_c, 0, 75, 100
1, 18913, Note_on_c, 0, 73, 93
1, 19101, Note_off_c, 0, 73, 93
1, 19126, Note_on_c, 0, 73, 89
1, 19188, Note_off_c, 0, 73, 89
1, 19580, Note_on_c, 0, 69, 91
1, 19692, Note_off_c, 0, 69, 91
1, 19692, Note_on_c, 0, 70, 86
1, 19789, Note_off_c, 0, 70, 86
1, 19789, Note_on_c, 0, 74, 98
1, 19882, Note_off_c, 0, 74, 98
1, 19882, Note_on_c, 0, 67, 94
1, 19977, Note_off_c, 0, 67, 94
1, 19977, Note_on_c, 0, 72, 106
1, 20077, Note_off_c, 0, 72, 106
1, 20077, Note_on_c, 0, 71, 100
1, 20170, Note_off_c, 0, 71, 100
1, 20170, Note_on_c, 0, 70, 95
1, 20259, Note_off_c, 0, 70, 95
1, 20261, Note_on_c, 0, 69, 96
1, 20351, Note_off_c, 0, 69, 96
1, 20351, Note_on_c, 0, 67, 92
1, 20446, Note_off_c, 0, 67, 92
1, 20448, Note_on_c, 0, 65, 90
1, 20531, Note_off_c, 0, 65, 90
1, 20539, Note_on_c, 0, 64, 93
1, 20628, Note_off_c, 0, 64, 93
1, 20628, Note_on_c, 0, 65, 90
1, 20721, Note_off_c, 0, 65, 90
1, 20721, Note_on_c, 0, 67, 93
1, 20814, Note_off_c, 0, 67, 93
1, 20821, Note_on_c, 0, 69, 88
1, 20920, Note_off_c, 0, 69, 88
1, 20926, Note_on_c, 0, 70, 91
1, 21026, Note_off_c, 0, 70, 91
1, 21031, Note_on_c, 0, 67, 90
1, 21115, Note_off_c, 0, 67, 90
1, 21115, Note_on_c, 0, 72, 103
1, 21207, Note_off_c, 0, 72, 103
1, 21207, Note_on_c, 0, 70, 95
1, 21306, Note_off_c, 0, 70, 95
1, 21306, Note_on_c, 0, 69, 91
1, 21383, Note_off_c, 0, 69, 91
1, 21389, Note_on_c, 0, 67, 96
1, 21486, Note_off_c, 0, 67, 96
1, 21486, Note_on_c, 0, 65, 86
1, 21580, Note_off_c, 0, 65, 86
1, 21580, Note_on_c, 0, 70, 84
1, 21752, Note_off_c, 0, 70, 84
1, 21789, Note_on_c, 0, 70, 91
1, 21939, Note_off_c, 0, 70, 91
1, 21939, Note_on_c, 0, 69, 102
1, 22019, Note_off_c, 0, 69, 102
1, 22027, Note_on_c, 0, 67, 95
1, 22078, Note_off_c, 0, 67, 95
1, 22078, Note_on_c, 0, 65, 96
1, 22133, Note_off_c, 0, 65, 96
1, 22133, Note_on_c, 0, 64, 79
1, 22205, Note_off_c, 0, 64, 79
1, 22243, Note_on_c, 0, 72, 100
1, 22378, Note_off_c, 0, 72, 100
1, 22378, Note_on_c, 0, 70, 97
1, 22441, Note_off_c, 0, 70, 97
1, 22447, Note_on_c, 0, 69, 91
1, 22489, Note_off_c, 0, 69, 91
1, 22496, Note_on_c, 0, 67, 100
1, 22536, Note_off_c, 0, 67, 100
1, 22544, Note_on_c, 0, 65, 89
1, 22614, Note_off_c, 0, 65, 89
1, 22639, Note_on_c, 0, 74, 104
1, 22743, Note_off_c, 0, 74, 104
1, 22795, Note_on_c, 0, 74, 101
1, 22930, Note_off_c, 0, 74, 101
1, 22933, Note_on_c, 0, 72, 105
1, 22996, Note_off_c, 0, 72, 105
1, 23001, Note_on_c, 0, 70, 101
1, 23046, Note_off_c, 0, 70, 101
1, 23048, Note_on_c, 0, 69, 98
1, 23095, Note_off_c, 0, 69, 98
1, 23097, Note_on_c, 0, 67, 86
1, 23178, Note_off_c, 0, 67, 86
1, 23209, Note_on_c, 0, 76, 111
1, 23324, Note_off_c, 0, 76, 111
1, 23324, Note_on_c, 0, 74, 99
1, 23388, Note_off_c, 0, 74, 99
1, 23401, Note_on_c, 0, 72, 88
1, 23448, Note_off_c, 0, 72, 88
1, 23461, Note_on_c, 0, 70, 87
1, 23502, Note_off_c, 0, 70, 87
1, 23503, Note_on_c, 0, 69, 86
1, 23557, Note_off_c, 0, 69, 86
1, 23587, Note_on_c, 0, 77, 100
1, 23739, Note_off_c, 0, 77, 100
1, 24533, Note_on_c, 0, 77, 127
1, 24654, Note_off_c, 0, 77, 127
1, 24654, Note_on_c, 0, 76, 119
1, 24742, Note_off_c, 0, 76, 119
1, 24742, Note_on_c, 0, 75, 112
1, 24837, Note_off_c, 0, 75, 112
1, 24837, Note_on_c, 0, 73, 114
1, 24929, Note_off_c, 0, 73, 114
1, 24936, Note_on_c, 0, 72, 108
1, 25031, Note_off_c, 0, 72, 108
1, 25031, Note_on_c, 0, 70, 103
1, 25125, Note_off_c, 0, 70, 103
1, 25125, Note_on_c, 0, 69, 96
1, 25228, Note_on_c, 0, 70, 79
1, 25228, Note_off_c, 0, 69, 96
1, 25313, Note_off_c, 0, 70, 79
1, 25316, Note_on_c, 0, 72, 113
1, 25404, Note_off_c, 0, 72, 113
1, 25406, Note_on_c, 0, 71, 102
1, 25489, Note_off_c, 0, 71, 102
1, 25489, Note_on_c, 0, 70, 105
1, 25576, Note_off_c, 0, 70, 105
1, 25581, Note_on_c, 0, 69, 102
1, 25672, Note_off_c, 0, 69, 102
1, 25672, Note_on_c, 0, 67, 101
1, 25775, Note_off_c, 0, 67, 101
1, 25780, Note_on_c, 0, 65, 79
1, 25864, Note_off_c, 0, 65, 79
1, 25869, Note_on_c, 0, 64, 79
1, 25963, Note_off_c, 0, 64, 79
1, 25963, Note_on_c, 0, 65, 89
1, 26047, Note_off_c, 0, 65, 89
1, 26047, Note_on_c, 0, 67, 98
1, 26159, Note_off_c, 0, 67, 98
1, 26159, Note_on_c, 0, 64, 76
1, 26250, Note_off_c, 0, 64, 76
1, 26250, Note_on_c, 0, 65, 92
1, 26362, Note_off_c, 0, 65, 92
1, 26362, Note_on_c, 0, 67, 88
1, 26551, Note_off_c, 0, 67, 88
1, 26551, Note_on_c, 0, 69, 98
1, 26707, Note_on_c, 0, 65, 90
1, 26707, Note_off_c, 0, 69, 98
1, 26793, Note_off_c, 0, 65, 90
1, 26818, Note_on_c, 0, 70, 95
1, 26921, Note_off_c, 0, 70, 95
1, 26921, Note_on_c, 0, 69, 85
1, 27111, Note_off_c, 0, 69, 85
1, 27119, Note_on_c, 0, 67, 96
1, 27275, Note_off_c, 0, 67, 96
1, 27275, Note_on_c, 0, 65, 83
1, 27362, Note_off_c, 0, 65, 83
1, 27383, Note_on_c, 0, 72, 101
1, 27458, Note_off_c, 0, 72, 101
1, 27458, Note_on_c, 0, 70, 92
1, 27549, Note_off_c, 0, 70, 92
1, 27549, Note_on_c, 0, 69, 84
1, 27644, Note_off_c, 0, 69, 84
1, 27644, Note_on_c, 0, 67, 90
1, 27727, Note_off_c, 0, 67, 90
1, 27727, Note_on_c, 0, 72, 98
1, 27856, Note_off_c, 0, 72, 98
1, 27950, Note_on_c, 0, 72, 94
1, 27998, Note_off_c, 0, 72, 94
1, 27998, End_track
0, 0, End_of_file
