0, 0, Header, 1, 1, 192
1, 0, Start_track
1, 0, Title_t, "Melody"
1, 0, Tempo, 342857
1, 0, Key_signature, -1, "major"
1, 0, Time_signature, 4, 2, 24, 8
1, 1937, Note_on_c, 0, 67, 100
1, 2041, Note_off_c, 0, 67, 100
1, 2052, Note_on_c, 0, 70, 103
1, 2157, Note_off_c, 0, 70, 103
1, 2160, Note_on_c, 0, 69, 92
1, 2264, Note_off_c, 0, 69, 92
1, 2268, Note_on_c, 0, 73, 90
1, 2329, Note_off_c, 0, 73, 90
1, 2329, Note_on_c, 0, 78, 125
1, 2442, Note_off_c, 0, 78, 125
1, 2452, Note_on_c, 0, 76, 121
1, 2542, Note_off_c, 0, 76, 121
1, 2543, Note_on_c, 0, 75, 106
1, 2647, Note_on_c, 0, 73, 108
1, 2647, Note_off_c, 0, 75, 106
1, 2720, Note_off_c, 0, 73, 108
1, 2726, Note_on_c, 0, 72, 102
1, 2817, Note_off_c, 0, 72, 102
1, 2826, Note_on_c, 0, 70, 104
1, 2907, Note_off_c, 0, 70, 104
1, 2915, Note_on_c, 0, 69, 94
1, 3028, Note_off_c, 0, 69, 94
1, 3066, Note_on_c, 0, 70, 91
1, 3107, Note_off_c, 0, 70, 91
1, 3107, Note_on_c, 0, 72, 106
1, 3212, Note_off_c, 0, 72, 106
1, 3215, Note_on_c, 0, 70, 105
1, 3293, Note_off_c, 0, 70, 105
1, 3306, Note_on_c, 0, 69, 99
1, 3391, Note_off_c, 0, 69, 99
1, 3394, Note_on_c, 0, 65, 100
1, 3555, Note_off_c, 0, 65, 100
1, 3581, Note_on_c, 0, 65, 105
1, 3670, Note_off_c, 0, 65, 105
1, 3691, Note_on_c, 0, 70, 109
1, 3814, Note_off_c, 0, 70, 109
1, 3814, Note_on_c, 0, 65, 96
1, 3858, Note_off_c, 0, 65, 96
1, 3880, Note_on_c, 0, 68, 113
1, 3981, Note_off_c, 0, 68, 113
1, 3994, Note_on_c, 0, 70, 106
1, 4068, Note_off_c, 0, 70, 106
1, 4074, Note_on_c, 0, 72, 101
1, 4183, Note_off_c, 0, 72, 101
1, 4188, Note_on_c, 0, 73, 95
1, 4264, Note_off_c, 0, 73, 95
1, 4269, Note_on_c, 0, 74, 105
1, 4383, Note_off_c, 0, 74, 105
1, 4384, Note_on_c, 0, 72, 96
1, 4454, Note_off_c, 0, 72, 96
1, 4467, Note_on_c, 0, 71, 90
1, 4579, Note_off_c, 0, 71, 90
1, 4580, Note_on_c, 0, 66, 96
1, 4740, Note_off_c, 0, 66, 96
1, 4751, Note_on_c, 0, 66, 86
1, 4831, Note_off_c, 0, 66, 86
1, 5401, Note_on_c, 0, 75, 106
1, 5534, Note_off_c, 0, 75, 106
1, 5537, Note_on_c, 0, 73, 116
1, 5589, Note_off_c, 0, 73, 116
1, 5600, Note_on_c, 0, 72, 114
1, 5665, Note_off_c, 0, 72, 114
1, 5679, Note_on_c, 0, 70, 114
1, 5724, Note_off_c, 0, 70, 114
1, 5738, Note_on_c, 0, 69, 108
1, 5820, Note_off_c, 0, 69, 108
1, 5829, Note_on_c, 0, 67, 108
1, 5905, Note_off_c, 0, 67, 108
1, 5919, Note_on_c, 0, 65, 105
1, 5987, Note_off_c, 0, 65, 105
1, 5995, Note_on_c, 0, 64, 100
1, 6097, Note_off_c, 0, 64, 100
1, 6110, Note_on_c, 0, 62, 102
1, 6186, Note_off_c, 0, 62, 102
1, 6190, Note_on_c, 0, 60, 86
1, 6268, Note_off_c, 0, 60, 86
1, 6284, Note_on_c, 0, 62, 95
1, 6363, Note_off_c, 0, 62, 95
1, 6395, Note_on_c, 0, 64, 95
1, 6461, Note_off_c, 0, 64, 95
1, 6472, Note_on_c, 0, 65, 99
1, 6556, Note_off_c, 0, 65, 99
1, 6573, Note_on_c, 0, 67, 99
1, 6662, Note_off_c, 0, 67, 99
1, 6678, Note_on_c, 0, 69, 96
1, 6772, Note_off_c, 0, 69, 96
1, 6780, Note_on_c, 0, 70, 105
1, 6893, Note_off_c, 0, 70, 105
1, 6897, Note_on_c, 0, 66, 96
1, 6941, Note_off_c, 0, 66, 96
1, 6961, Note_on_c, 0, 68, 110
1, 7054, Note_off_c, 0, 68, 110
1, 7144, Note_on_c, 0, 71, 105
1, 7318, Note_off_c, 0, 71, 105
1, 7331, Note_on_c, 0, 69, 96
1, 7531, Note_off_c, 0, 69, 96
1, 7531, Note_on_c, 0, 67, 110
1, 7727, Note_off_c, 0, 67, 110
1, 7741, Note_on_c, 0, 72, 112
1, 7829, Note_off_c, 0, 72, 112
1, 7915, Note_on_c, 0, 77, 127
1, 8023, Note_off_c, 0, 77, 127
1, 8026, Note_on_c, 0, 76, 124
1, 8120, Note_off_c, 0, 76, 124
1, 8123, Note_on_c, 0, 75, 102
1, 8232, Note_off_c, 0, 75, 102
1, 8240, Note_on_c, 0, 73, 106
1, 8316, Note_off_c, 0, 73, 106
1, 8357, Note_on_c, 0, 72, 104
1, 8495, Note_off_c, 0, 72, 104
1, 8500, Note_on_c, 0, 70, 104
1, 8629, Note_off_c, 0, 70, 104
1, 8632, Note_on_c, 0, 69, 96
1, 8696, Note_off_c, 0, 69, 96
1, 8698, Note_on_c, 0, 72, 102
1, 8808, Note_off_c, 0, 72, 102
1, 8814, Note_on_c, 0, 70, 105
1, 8882, Note_off_c, 0, 70, 105
1, 8888, Note_on_c, 0, 69, 91
1, 9033, Note_off_c, 0, 69, 91
1, 9037, Note_on_c, 0, 72, 84
1, 9086, Note_off_c, 0, 72, 84
1, 9086, Note_on_c, 0, 77, 115
1, 9194, Note_off_c, 0, 77, 115
1, 9208, Note_on_c, 0, 74, 90
1, 9459, Note_off_c, 0, 74, 90
1, 9848, Note_on_c, 0, 72, 120
1, 9956, Note_off_c, 0, 72, 120
1, 9956, Note_on_c, 0, 70, 111
1, 10034, Note_off_c, 0, 70, 111
1, 10047, Note_on_c, 0, 68, 112
1, 10105, Note_off_c, 0, 68, 112
1, 10122, Note_on_c, 0, 67, 109
1, 10178, Note_off_c, 0, 67, 109
1, 10178, Note_on_c, 0, 65, 104
1, 10232, Note_off_c, 0, 65, 104
1, 10241, Note_on_c, 0, 63, 96
1, 10297, Note_off_c, 0, 63, 96
1, 10311, Note_on_c, 0, 61, 85
1, 10354, Note_off_c, 0, 61, 85
1, 10365, Note_on_c, 0, 62, 100
1, 10435, Note_off_c, 0, 62, 100
1, 10443, Note_on_c, 0, 64, 99
1, 10510, Note_off_c, 0, 64, 99
1, 10512, Note_on_c, 0, 66, 100
1, 10555, Note_off_c, 0, 66, 100
1, 10564, Note_on_c, 0, 67, 101
1, 10617, Note_off_c, 0, 67, 101
1, 10617, Note_on_c, 0, 69, 103
1, 10699, Note_off_c, 0, 69, 103
1, 10704, Note_on_c, 0, 71, 103
1, 10752, Note_off_c, 0, 71, 103
1, 10755, Note_on_c, 0, 67, 106
1, 10813, Note_off_c, 0, 67, 106
1, 10821, Note_on_c, 0, 69, 103
1, 10871, Note_off_c, 0, 69, 103
1, 10881, Note_on_c, 0, 70, 108
1, 10923, Note_off_c, 0, 70, 108
1, 10931, Note_on_c, 0, 71, 108
1, 10992, Note_off_c, 0, 71, 108
1, 10995, Note_on_c, 0, 70, 108
1, 11046, Note_off_c, 0, 70, 108
1, 11060, Note_on_c, 0, 69, 107
1, 11119, Note_off_c, 0, 69, 107
1, 11129, Note_on_c, 0, 68, 105
1, 11184, Note_off_c, 0, 68, 105
1, 11188, Note_on_c, 0, 67, 105
1, 11221, Note_off_c, 0, 67, 105
1, 11232, Note_on_c, 0, 66, 103
1, 11284, Note_off_c, 0, 66, 103
1, 11287, Note_on_c, 0, 64, 103
1, 11348, Note_off_c, 0, 64, 103
1, 11348, Note_on_c, 0, 63, 96
1, 11414, Note_off_c, 0, 63, 96
1, 11428, Note_on_c, 0, 61, 98
1, 11494, Note_off_c, 0, 61, 98
1, 11513, Note_on_c, 0, 60, 90
1, 11559, Note_off_c, 0, 60, 90
1, 11562, Note_on_c, 0, 58, 95
1, 11606, Note_off_c, 0, 58, 95
1, 11616, Note_on_c, 0, 57, 92
1, 11685, Note_off_c, 0, 57, 92
1, 11685, Note_on_c, 0, 58, 93
1, 11731, Note_off_c, 0, 58, 93
1, 11733, Note_on_c, 0, 60, 90
1, 11825, Note_off_c, 0, 60, 90
1, 11875, Note_on_c, 0, 64, 99
1, 11915, Note_off_c, 0, 64, 99
1, 11928, Note_on_c, 0, 65, 102
1, 11982, Note_off_c, 0, 65, 102
1, 12358, Note_on_c, 0, 62, 92
1, 12390, Note_off_c, 0, 62, 92
1, 12390, Note_on_c, 0, 64, 99
1, 12433, Note_off_c, 0, 64, 99
1, 12440, Note_on_c, 0, 65, 105
1, 12490, Note_off_c, 0, 65, 105
1, 12498, Note_on_c, 0, 67, 110
1, 12555, Note_off_c, 0, 67, 110
1, 12556, Note_on_c, 0, 64, 99
1, 12593, Note_off_c, 0, 64, 99
1, 12597, Note_on_c, 0, 65, 104
1, 12655, Note_off_c, 0, 65, 104
1, 12659, Note_on_c, 0, 67, 106
1, 12708, Note_off_c, 0, 67, 106
1, 12708, Note_on_c, 0, 69, 109
1, 12734, Note_off_c, 0, 69, 109
1, 12734, Note_on_c, 0, 70, 110
1, 12773, Note_off_c, 0, 70, 110
1, 12781, Note_on_c, 0, 69, 112
1, 12823, Note_off_c, 0, 69, 112
1, 12828, Note_on_c, 0, 67, 106
1, 12878, Note_off_c, 0, 67, 106
1, 12881, Note_on_c, 0, 65, 101
1, 12920, Note_off_c, 0, 65, 101
1, 12923, Note_on_c, 0, 64, 99
1, 12976, Note_off_c, 0, 64, 99
1, 12976, Note_on_c, 0, 62, 89
1, 13011, Note_off_c, 0, 62, 89
1, 13018, Note_on_c, 0, 60, 92
1, 13057, Note_off_c, 0, 60, 92
1, 13065, Note_on_c, 0, 58, 100
1, 13107, Note_off_c, 0, 58, 100
1, 13109, Note_on_c, 0, 57, 100
1, 13157, Note_off_c, 0, 57, 100
1, 13157, Note_on_c, 0, 60, 94
1, 13190, Note_off_c, 0, 60, 94
1, 13204, Note_on_c, 0, 64, 102
1, 13242, Note_off_c, 0, 64, 102
1, 13246, Note_on_c, 0, 67, 112
1, 13311, Note_off_c, 0, 67, 112
1, 13311, Note_on_c, 0, 65, 101
1, 13362, Note_off_c, 0, 65, 101
1, 13364, Note_on_c, 0, 66, 106
1, 13411, Note_off_c, 0, 66, 106
1, 13411, Note_on_c, 0, 69, 110
1, 13441, Note_off_c, 0, 69, 110
1, 13452, Note_on_c, 0, 77, 104
1, 13518, Note_off_c, 0, 77, 104
1, 13518, End_track
0, 0, End_of_file
