0, 0, Header, 1, 1, 192
1, 0, Start_track
1, 0, Title_t, "Melody"
1, 0, Tempo, 431654
1, 0, Key_signature, -3, "major"
1, 0, Time_signature, 4, 2, 24, 8
1, 5079, Note_on_c, 0, 72, 115
1, 5177, Note_off_c, 0, 72, 115
1, 5264, Note_on_c, 0, 72, 115
1, 5352, Note_off_c, 0, 72, 115
1, 5444, Note_on_c, 0, 70, 119
1, 5578, Note_off_c, 0, 70, 119
1, 5583, Note_on_c, 0, 68, 93
1, 5880, Note_off_c, 0, 68, 93
1, 6379, Note_on_c, 0, 72, 117
1, 6498, Note_off_c, 0, 72, 117
1, 6507, Note_on_c, 0, 71, 107
1, 6545, Note_off_c, 0, 71, 107
1, 6572, Note_on_c, 0, 72, 112
1, 6682, Note_off_c, 0, 72, 112
1, 6691, Note_on_c, 0, 67, 100
1, 6740, Note_off_c, 0, 67, 100
1, 6749, Note_on_c, 0, 70, 120
1, 6871, Note_off_c, 0, 70, 120
1, 6882, Note_on_c, 0, 70, 121
1, 6969, Note_off_c, 0, 70, 121
1, 7052, Note_on_c, 0, 68, 121
1, 7337, Note_off_c, 0, 68, 121
1, 7479, Note_on_c, 0, 72, 106
1, 7607, Note_off_c, 0, 72, 106
1, 7611, Note_on_c, 0, 70, 113
1, 7833, Note_off_c, 0, 70, 113
1, 7862, Note_on_c, 0, 73, 106
1, 7983, Note_off_c, 0, 73, 106
1, 7988, Note_on_c, 0, 72, 96
1, 8243, Note_off_c, 0, 72, 96
1, 8251, Note_on_c, 0, 76, 109
1, 8341, Note_off_c, 0, 76, 109
1, 8352, Note_on_c, 0, 79, 122
1, 8433, Note_off_c, 0, 79, 122
1, 8437, Note_on_c, 0, 77, 111
1, 8533, Note_off_c, 0, 77, 111
1, 8544, Note_on_c, 0, 72, 92
1, 8763, Note_off_c, 0, 72, 92
1, 8797, Note_on_c, 0, 68, 114
1, 8893, Note_off_c, 0, 68, 114
1, 8902, Note_on_c, 0, 67, 123
1, 8978, Note_off_c, 0, 67, 123
1, 8983, Note_on_c, 0, 65, 109
1, 9077, Note_off_c, 0, 65, 109
1, 9080, Note_on_c, 0, 63, 100
1, 9154, Note_off_c, 0, 63, 100
1, 9156, Note_on_c, 0, 62, 101
1, 9247, Note_off_c, 0, 62, 101
1, 9265, Note_on_c, 0, 60, 100
1, 9336, Note_off_c, 0, 60, 100
1, 9368, Note_on_c, 0, 61, 90
1, 9404, Note_off_c, 0, 61, 90
1, 9409, Note_on_c, 0, 64, 87
1, 9442, Note_off_c, 0, 64, 87
1, 9446, Note_on_c, 0, 67, 125
1, 9507, Note_off_c, 0, 67, 125
1, 9510, Note_on_c, 0, 69, 126
1, 9595, Note_off_c, 0, 69, 126
1, 9607, Note_on_c, 0, 70, 125
1, 9675, Note_off_c, 0, 70, 125
1, 9685, Note_on_c, 0, 72, 113
1, 9767, Note_off_c, 0, 72, 113
1, 9792, Note_on_c, 0, 74, 113
1, 10015, Note_off_c, 0, 74, 113
1, 10040, Note_on_c, 0, 72, 102
1, 10141, Note_off_c, 0, 72, 102
1, 10145, Note_on_c, 0, 65, 92
1, 10379, Note_off_c, 0, 65, 92
1, 10695, Note_on_c, 0, 70, 120
1, 10762, Note_off_c, 0, 70, 120
1, 10774, Note_on_c, 0, 69, 107
1, 10852, Note_off_c, 0, 69, 107
1, 10868, Note_on_c, 0, 68, 120
1, 10948, Note_off_c, 0, 68, 120
1, 10949, Note_on_c, 0, 66, 90
1, 11057, Note_off_c, 0, 66, 90
1, 11062, Note_on_c, 0, 67, 121
1, 11127, Note_off_c, 0, 67, 121
1, 11130, Note_on_c, 0, 72, 111
1, 11233, Note_off_c, 0, 72, 111
1, 11233, Note_on_c, 0, 70, 118
1, 11314, Note_off_c, 0, 70, 118
1, 11318, Note_on_c, 0, 67, 124
1, 11436, Note_off_c, 0, 67, 124
1, 11439, Note_on_c, 0, 63, 89
1, 11481, Note_off_c, 0, 63, 89
1, 11503, Note_on_c, 0, 65, 113
1, 11601, Note_off_c, 0, 65, 113
1, 11606, Note_on_c, 0, 66, 115
1, 11678, Note_off_c, 0, 66, 115
1, 11682, Note_on_c, 0, 67, 123
1, 11784, Note_off_c, 0, 67, 123
1, 11798, Note_on_c, 0, 63, 85
1, 11843, Note_off_c, 0, 63, 85
1, 11866, Note_on_c, 0, 65, 93
1, 11954, Note_off_c, 0, 65, 93
1, 11961, Note_on_c, 0, 67, 127
1, 12041, Note_off_c, 0, 67, 127
1, 12049, Note_on_c, 0, 68, 121
1, 12134, Note_off_c, 0, 68, 121
1, 12146, Note_on_c, 0, 68, 125
1, 12224, Note_off_c, 0, 68, 125
1, 12233, Note_on_c, 0, 67, 121
1, 12327, Note_off_c, 0, 67, 121
1, 12347, Note_on_c, 0, 65, 103
1, 12468, Note_off_c, 0, 65, 103
1, 12566, Note_on_c, 0, 65, 88
1, 12587, Note_off_c, 0, 65, 88
1, 12596, Note_on_c, 0, 70, 116
1, 12750, Note_off_c, 0, 70, 116
1, 13702, Note_on_c, 0, 75, 114
1, 13800, Note_off_c, 0, 75, 114
1, 13807, Note_on_c, 0, 73, 110
1, 13885, Note_off_c, 0, 73, 110
1, 13894, Note_on_c, 0, 75, 126
1, 13992, Note_off_c, 0, 75, 126
1, 13999, Note_on_c, 0, 73, 108
1, 14058, Note_off_c, 0, 73, 108
1, 14078, Note_on_c, 0, 71, 106
1, 14159, Note_off_c, 0, 71, 106
1, 14176, Note_on_c, 0, 70, 116
1, 14244, Note_off_c, 0, 70, 116
1, 14267, Note_on_c, 0, 71, 108
1, 14357, Note_off_c, 0, 71, 108
1, 14364, Note_on_c, 0, 70, 117
1, 14447, Note_off_c, 0, 70, 117
1, 14456, Note_on_c, 0, 69, 102
1, 14527, Note_off_c, 0, 69, 102
1, 14538, Note_on_c, 0, 70, 120
1, 14612, Note_off_c, 0, 70, 120
1, 14627, Note_on_c, 0, 74, 121
1, 14718, Note_off_c, 0, 74, 121
1, 14722, Note_on_c, 0, 72, 112
1, 14812, Note_off_c, 0, 72, 112
1, 14819, Note_on_c, 0, 70, 117
1, 14911, Note_off_c, 0, 70, 117
1, 14918, Note_on_c, 0, 67, 121
1, 14990, Note_off_c, 0, 67, 121
1, 14999, Note_on_c, 0, 65, 109
1, 15108, Note_off_c, 0, 65, 109
1, 15111, Note_on_c, 0, 63, 91
1, 15159, Note_off_c, 0, 63, 91
1, 15172, Note_on_c, 0, 65, 109
1, 15288, Note_off_c, 0, 65, 109
1, 15298, Note_on_c, 0, 63, 90
1, 15334, Note_off_c, 0, 63, 90
1, 15343, Note_on_c, 0, 68, 121
1, 15451, Note_off_c, 0, 68, 121
1, 15462, Note_on_c, 0, 67, 113
1, 15521, Note_off_c, 0, 67, 113
1, 15538, Note_on_c, 0, 65, 104
1, 15639, Note_off_c, 0, 65, 104
1, 15714, Note_on_c, 0, 70, 106
1, 15989, Note_off_c, 0, 70, 106
1, 16288, Note_on_c, 0, 72, 117
1, 16399, Note_off_c, 0, 72, 117
1, 16410, Note_on_c, 0, 67, 112
1, 16638, Note_off_c, 0, 67, 112
1, 16643, Note_on_c, 0, 65, 107
1, 16770, Note_off_c, 0, 65, 107
1, 16776, Note_on_c, 0, 63, 90
1, 16993, Note_off_c, 0, 63, 90
1, 17017, Note_on_c, 0, 60, 103
1, 17123, Note_off_c, 0, 60, 103
1, 17140, Note_on_c, 0, 58, 101
1, 17385, Note_off_c, 0, 58, 101
1, 17398, Note_on_c, 0, 60, 86
1, 17501, Note_off_c, 0, 60, 86
1, 17520, Note_on_c, 0, 63, 96
1, 17574, Note_off_c, 0, 63, 96
1, 17596, Note_on_c, 0, 67, 120
1, 17723, Note_off_c, 0, 67, 120
1, 17731, Note_on_c, 0, 63, 82
1, 17770, Note_off_c, 0, 63, 82
1, 17779, Note_on_c, 0, 67, 119
1, 17956, Note_off_c, 0, 67, 119
1, 17972, Note_on_c, 0, 70, 111
1, 18092, Note_off_c, 0, 70, 111
1, 18098, Note_on_c, 0, 67, 96
1, 18136, Note_off_c, 0, 67, 96
1, 18147, Note_on_c, 0, 70, 114
1, 18266, Note_off_c, 0, 70, 114
1, 18278, Note_on_c, 0, 70, 113
1, 18341, Note_off_c, 0, 70, 113
1, 18347, Note_on_c, 0, 72, 112
1, 18443, Note_off_c, 0, 72, 112
1, 18469, Note_on_c, 0, 70, 113
1, 18525, Note_off_c, 0, 70, 113
1, 18528, Note_on_c, 0, 67, 120
1, 18646, Note_off_c, 0, 67, 120
1, 18660, Note_on_c, 0, 63, 85
1, 18707, Note_off_c, 0, 63, 85
1, 18716, Note_on_c, 0, 65, 107
1, 18844, Note_off_c, 0, 65, 107
1, 18851, Note_on_c, 0, 63, 89
1, 18889, Note_off_c, 0, 63, 89
1, 18898, Note_on_c, 0, 65, 107
1, 18997, Note_off_c, 0, 65, 107
1, 19022, Note_on_c, 0, 67, 115
1, 19100, Note_off_c, 0, 67, 115
1, 19105, Note_on_c, 0, 65, 107
1, 19211, Note_off_c, 0, 65, 107
1, 19233, Note_on_c, 0, 63, 84
1, 19292, Note_off_c, 0, 63, 84
1, 19421, Note_on_c, 0, 63, 93
1, 19463, Note_off_c, 0, 63, 93
1, 19488, Note_on_c, 0, 70, 114
1, 19598, Note_off_c, 0, 70, 114
1, 19605, Note_on_c, 0, 68, 96
1, 19650, Note_off_c, 0, 68, 96
1, 19657, Note_on_c, 0, 70, 116
1, 19765, Note_off_c, 0, 70, 116
1, 19780, Note_on_c, 0, 71, 105
1, 19857, Note_off_c, 0, 71, 105
1, 19861, Note_on_c, 0, 70, 112
1, 19957, Note_off_c, 0, 70, 112
1, 19960, Note_on_c, 0, 68, 112
1, 20036, Note_off_c, 0, 68, 112
1, 20041, Note_on_c, 0, 67, 104
1, 20106, Note_off_c, 0, 67, 104
1, 20106, Note_on_c, 0, 70, 97
1, 20160, Note_off_c, 0, 70, 97
1, 20160, Note_on_c, 0, 72, 98
1, 20223, Note_off_c, 0, 72, 98
1, 20228, Note_on_c, 0, 75, 104
1, 20572, Note_off_c, 0, 75, 104
1, 21527, Note_on_c, 0, 74, 110
1, 21621, Note_off_c, 0, 74, 110
1, 21630, Note_on_c, 0, 72, 126
1, 21698, Note_off_c, 0, 72, 126
1, 21710, Note_on_c, 0, 70, 117
1, 21886, Note_off_c, 0, 70, 117
1, 21892, Note_on_c, 0, 67, 118
1, 21986, Note_off_c, 0, 67, 118
1, 22007, Note_on_c, 0, 65, 108
1, 22075, Note_off_c, 0, 65, 108
1, 22093, Note_on_c, 0, 64, 90
1, 22188, Note_off_c, 0, 64, 90
1, 22197, Note_on_c, 0, 67, 119
1, 22258, Note_off_c, 0, 67, 119
1, 22267, Note_on_c, 0, 72, 121
1, 22365, Note_off_c, 0, 72, 121
1, 22367, Note_on_c, 0, 70, 117
1, 22445, Note_off_c, 0, 70, 117
1, 22452, Note_on_c, 0, 68, 118
1, 22538, Note_off_c, 0, 68, 118
1, 22547, Note_on_c, 0, 67, 123
1, 22635, Note_off_c, 0, 67, 123
1, 22646, Note_on_c, 0, 65, 110
1, 22740, Note_off_c, 0, 65, 110
1, 22754, Note_on_c, 0, 63, 93
1, 22817, Note_off_c, 0, 63, 93
1, 22845, Note_on_c, 0, 62, 92
1, 22925, Note_off_c, 0, 62, 92
1, 22935, Note_on_c, 0, 66, 112
1, 23003, Note_off_c, 0, 66, 112
1, 23017, Note_on_c, 0, 70, 118
1, 23109, Note_off_c, 0, 70, 118
1, 23117, Note_on_c, 0, 73, 113
1, 23195, Note_off_c, 0, 73, 113
1, 23207, Note_on_c, 0, 74, 124
1, 23293, Note_off_c, 0, 74, 124
1, 23305, Note_on_c, 0, 77, 115
1, 23386, Note_off_c, 0, 77, 115
1, 23390, Note_on_c, 0, 74, 122
1, 23490, Note_off_c, 0, 74, 122
1, 23501, Note_on_c, 0, 72, 112
1, 23576, Note_off_c, 0, 72, 112
1, 23584, Note_on_c, 0, 70, 113
1, 23677, Note_off_c, 0, 70, 113
1, 23681, Note_on_c, 0, 67, 117
1, 23782, Note_off_c, 0, 67, 117
1, 23791, Note_on_c, 0, 65, 97
1, 23880, Note_off_c, 0, 65, 97
1, 23890, Note_on_c, 0, 63, 89
1, 23929, Note_off_c, 0, 63, 89
1, 23959, Note_on_c, 0, 65, 108
1, 24050, Note_off_c, 0, 65, 108
1, 24067, Note_on_c, 0, 67, 120
1, 24113, Note_off_c, 0, 67, 120
1, 24125, Note_on_c, 0, 68, 116
1, 24297, Note_off_c, 0, 68, 116
1, 24326, Note_on_c, 0, 65, 102
1, 24413, Note_off_c, 0, 65, 102
1, 24424, Note_on_c, 0, 67, 121
1, 24486, Note_off_c, 0, 67, 121
1, 24504, Note_on_c, 0, 68, 119
1, 24601, Note_off_c, 0, 68, 119
1, 24610, Note_on_c, 0, 69, 119
1, 24687, Note_off_c, 0, 69, 119
1, 24694, Note_on_c, 0, 70, 112
1, 24812, Note_off_c, 0, 70, 112
1, 24818, Note_on_c, 0, 67, 102
1, 24863, Note_off_c, 0, 67, 102
1, 24873, Note_on_c, 0, 70, 115
1, 24976, Note_off_c, 0, 70, 115
1, 24985, Note_on_c, 0, 72, 123
1, 25058, Note_off_c, 0, 72, 123
1, 25063, Note_on_c, 0, 75, 116
1, 25157, Note_off_c, 0, 75, 116
1, 25170, Note_on_c, 0, 72, 115
1, 25226, Note_off_c, 0, 72, 115
1, 25238, Note_on_c, 0, 70, 115
1, 25291, Note_off_c, 0, 70, 115
1, 25304, Note_on_c, 0, 67, 110
1, 25358, Note_off_c, 0, 67, 110
1, 25370, Note_on_c, 0, 63, 93
1, 25410, Note_off_c, 0, 63, 93
1, 25430, Note_on_c, 0, 65, 108
1, 25488, Note_off_c, 0, 65, 108
1, 25495, Note_on_c, 0, 67, 99
1, 25536, Note_off_c, 0, 67, 99
1, 25545, Note_on_c, 0, 65, 105
1, 25605, Note_off_c, 0, 65, 105
1, 25620, Note_on_c, 0, 63, 95
1, 25664, Note_off_c, 0, 63, 95
1, 25673, Note_on_c, 0, 65, 106
1, 25737, Note_off_c, 0, 65, 106
1, 25737, Note_on_c, 0, 63, 98
1, 25785, Note_off_c, 0, 63, 98
1, 25797, Note_on_c, 0, 61, 103
1, 25852, Note_off_c, 0, 61, 103
1, 25863, Note_on_c, 0, 63, 96
1, 25916, Note_off_c, 0, 63, 96
1, 25918, Note_on_c, 0, 61, 101
1, 25974, Note_off_c, 0, 61, 101
1, 25989, Note_on_c, 0, 59, 108
1, 26049, Note_off_c, 0, 59, 108
1, 26052, Note_on_c, 0, 61, 80
1, 26099, Note_off_c, 0, 61, 80
1, 26103, Note_on_c, 0, 59, 110
1, 26161, Note_off_c, 0, 59, 110
1, 26169, Note_on_c, 0, 58, 109
1, 26252, Note_off_c, 0, 58, 109
1, 26252, Note_on_c, 0, 60, 107
1, 26292, Note_off_c, 0, 60, 107
1, 26301, Note_on_c, 0, 58, 112
1, 26347, Note_off_c, 0, 58, 112
1, 26368, Note_on_c, 0, 55, 103
1, 26407, Note_off_c, 0, 55, 103
1, 26410, Note_on_c, 0, 56, 102
1, 26432, Note_off_c, 0, 56, 102
1, 26435, Note_on_c, 0, 58, 108
1, 26472, Note_off_c, 0, 58, 108
1, 26474, Note_on_c, 0, 60, 103
1, 26535, Note_off_c, 0, 60, 103
1, 26552, Note_on_c, 0, 63, 100
1, 26642, Note_off_c, 0, 63, 100
1, 26661, Note_on_c, 0, 60, 9
1, 26881, Note_off_c, 0, 60, 9
1, 27401, Note_on_c, 0, 67, 118
1, 27458, Note_off_c, 0, 67, 118
1, 27466, Note_on_c, 0, 70, 106
1, 27522, Note_off_c, 0, 70, 106
1, 27527, Note_on_c, 0, 72, 88
1, 27592, Note_off_c, 0, 72, 88
1, 27595, Note_on_c, 0, 74, 120
1, 27660, Note_off_c, 0, 74, 120
1, 27666, Note_on_c, 0, 75, 125
1, 27764, Note_off_c, 0, 75, 125
1, 27765, Note_on_c, 0, 74, 121
1, 27852, Note_off_c, 0, 74, 121
1, 27853, Note_on_c, 0, 72, 122
1, 27953, Note_off_c, 0, 72, 122
1, 27956, Note_on_c, 0, 71, 118
1, 28027, Note_off_c, 0, 71, 118
1, 28033, Note_on_c, 0, 70, 115
1, 28097, Note_off_c, 0, 70, 115
1, 28100, Note_on_c, 0, 67, 107
1, 28158, Note_off_c, 0, 67, 107
1, 28163, Note_on_c, 0, 63, 86
1, 28199, Note_off_c, 0, 63, 86
1, 28237, Note_on_c, 0, 68, 124
1, 28298, Note_off_c, 0, 68, 124
1, 28304, Note_on_c, 0, 70, 117
1, 28349, Note_off_c, 0, 70, 117
1, 28351, Note_on_c, 0, 68, 125
1, 28410, Note_off_c, 0, 68, 125
1, 28417, Note_on_c, 0, 67, 125
1, 28528, Note_off_c, 0, 67, 125
1, 28530, Note_on_c, 0, 65, 111
1, 28608, Note_off_c, 0, 65, 111
1, 28615, Note_on_c, 0, 64, 97
1, 28723, Note_off_c, 0, 64, 97
1, 28730, Note_on_c, 0, 62, 95
1, 28797, Note_off_c, 0, 62, 95
1, 28799, Note_on_c, 0, 63, 96
1, 28912, Note_off_c, 0, 63, 96
1, 28921, Note_on_c, 0, 62, 103
1, 28981, Note_off_c, 0, 62, 103
1, 28988, Note_on_c, 0, 61, 95
1, 29086, Note_off_c, 0, 61, 95
1, 29087, Note_on_c, 0, 64, 100
1, 29161, Note_off_c, 0, 64, 100
1, 29170, Note_on_c, 0, 63, 90
1, 29258, Note_off_c, 0, 63, 90
1, 29280, Note_on_c, 0, 72, 101
1, 29573, Note_off_c, 0, 72, 101
1, 29849, Note_on_c, 0, 63, 98
1, 29894, Note_off_c, 0, 63, 98
1, 29897, Note_on_c, 0, 65, 113
1, 30041, Note_off_c, 0, 65, 113
1, 30041, Note_on_c, 0, 63, 93
1, 30086, Note_off_c, 0, 63, 93
1, 30093, Note_on_c, 0, 67, 121
1, 30217, Note_off_c, 0, 67, 121
1, 30221, Note_on_c, 0, 68, 124
1, 30287, Note_off_c, 0, 68, 124
1, 30298, Note_on_c, 0, 70, 117
1, 30401, Note_off_c, 0, 70, 117
1, 30407, Note_on_c, 0, 68, 126
1, 30494, Note_off_c, 0, 68, 126
1, 30501, Note_on_c, 0, 67, 117
1, 30600, Note_off_c, 0, 67, 117
1, 30605, Note_on_c, 0, 65, 103
1, 30659, Note_off_c, 0, 65, 103
1, 30672, Note_on_c, 0, 75, 123
1, 30767, Note_off_c, 0, 75, 123
1, 30783, Note_on_c, 0, 72, 112
1, 30861, Note_off_c, 0, 72, 112
1, 30868, Note_on_c, 0, 73, 107
1, 30946, Note_off_c, 0, 73, 107
1, 30958, Note_on_c, 0, 75, 121
1, 31052, Note_off_c, 0, 75, 121
1, 31056, Note_on_c, 0, 72, 113
1, 31144, Note_off_c, 0, 72, 113
1, 31156, Note_on_c, 0, 68, 103
1, 31228, Note_off_c, 0, 68, 103
1, 31232, Note_on_c, 0, 70, 122
1, 31339, Note_off_c, 0, 70, 122
1, 31344, Note_on_c, 0, 72, 119
1, 31432, Note_off_c, 0, 72, 119
1, 31439, Note_on_c, 0, 73, 108
1, 31532, Note_off_c, 0, 73, 108
1, 31585, Note_on_c, 0, 70, 117
1, 31685, Note_off_c, 0, 70, 117
1, 31706, Note_on_c, 0, 72, 113
1, 31773, Note_off_c, 0, 72, 113
1, 31778, Note_on_c, 0, 73, 106
1, 31867, Note_off_c, 0, 73, 106
1, 31883, Note_on_c, 0, 70, 121
1, 31979, Note_off_c, 0, 70, 121
1, 32003, Note_on_c, 0, 67, 123
1, 32077, Note_off_c, 0, 67, 123
1, 32085, Note_on_c, 0, 68, 101
1, 32108, Note_off_c, 0, 68, 101
1, 32119, Note_on_c, 0, 70, 109
1, 32173, Note_off_c, 0, 70, 109
1, 32190, Note_on_c, 0, 72, 88
1, 32445, Note_off_c, 0, 72, 88
1, 33059, Note_on_c, 0, 68, 112
1, 33113, Note_off_c, 0, 68, 112
1, 33122, Note_on_c, 0, 70, 109
1, 33231, Note_off_c, 0, 70, 109
1, 33233, Note_on_c, 0, 72, 122
1, 33299, Note_off_c, 0, 72, 122
1, 33309, Note_on_c, 0, 73, 120
1, 33426, Note_off_c, 0, 73, 120
1, 33435, Note_on_c, 0, 71, 113
1, 33490, Note_off_c, 0, 71, 113
1, 33494, Note_on_c, 0, 72, 120
1, 33603, Note_off_c, 0, 72, 120
1, 33612, Note_on_c, 0, 70, 120
1, 33689, Note_off_c, 0, 70, 120
1, 33696, Note_on_c, 0, 67, 123
1, 33799, Note_off_c, 0, 67, 123
1, 33809, Note_on_c, 0, 68, 123
1, 33876, Note_off_c, 0, 68, 123
1, 33881, Note_on_c, 0, 69, 105
1, 33970, Note_off_c, 0, 69, 105
1, 33989, Note_on_c, 0, 72, 124
1, 34056, Note_off_c, 0, 72, 124
1, 34066, Note_on_c, 0, 67, 123
1, 34171, Note_off_c, 0, 67, 123
1, 34178, Note_on_c, 0, 66, 114
1, 34250, Note_off_c, 0, 66, 114
1, 34256, Note_on_c, 0, 65, 110
1, 34354, Note_off_c, 0, 65, 110
1, 34372, Note_on_c, 0, 63, 101
1, 34426, Note_off_c, 0, 63, 101
1, 34447, Note_on_c, 0, 62, 96
1, 34528, Note_off_c, 0, 62, 96
1, 34550, Note_on_c, 0, 65, 114
1, 34620, Note_off_c, 0, 65, 114
1, 34651, Note_on_c, 0, 60, 111
1, 34729, Note_off_c, 0, 60, 111
1, 34752, Note_on_c, 0, 59, 118
1, 34822, Note_off_c, 0, 59, 118
1, 34829, Note_on_c, 0, 58, 102
1, 34932, Note_off_c, 0, 58, 102
1, 34938, Note_on_c, 0, 62, 105
1, 34999, Note_off_c, 0, 62, 105
1, 35013, Note_on_c, 0, 66, 117
1, 35100, Note_off_c, 0, 66, 117
1, 35106, Note_on_c, 0, 69, 125
1, 35174, Note_off_c, 0, 69, 125
1, 35197, Note_on_c, 0, 72, 104
1, 35318, Note_off_c, 0, 72, 104
1, 35323, Note_on_c, 0, 70, 107
1, 35551, Note_off_c, 0, 70, 107
1, 35566, Note_on_c, 0, 67, 121
1, 35663, Note_off_c, 0, 67, 121
1, 35702, Note_on_c, 0, 63, 88
1, 35750, Note_off_c, 0, 63, 88
1, 35768, Note_on_c, 0, 65, 107
1, 35876, Note_off_c, 0, 65, 107
1, 35879, Note_on_c, 0, 67, 115
1, 35951, Note_off_c, 0, 67, 115
1, 35958, Note_on_c, 0, 68, 112
1, 36076, Note_off_c, 0, 68, 112
1, 36078, Note_on_c, 0, 70, 116
1, 36156, Note_off_c, 0, 70, 116
1, 36156, Note_on_c, 0, 68, 109
1, 36263, Note_off_c, 0, 68, 109
1, 36266, Note_on_c, 0, 67, 111
1, 36335, Note_off_c, 0, 67, 111
1, 36351, Note_on_c, 0, 65, 97
1, 36447, Note_off_c, 0, 65, 97
1, 36541, Note_on_c, 0, 67, 113
1, 36700, Note_off_c, 0, 67, 113
1, 36717, Note_on_c, 0, 70, 81
1, 37100, Note_off_c, 0, 70, 81
1, 37671, Note_on_c, 0, 75, 114
1, 37802, Note_off_c, 0, 75, 114
1, 37811, Note_on_c, 0, 71, 108
1, 37832, Note_off_c, 0, 71, 108
1, 37834, Note_on_c, 0, 68, 99
1, 37855, Note_off_c, 0, 68, 99
1, 37857, Note_on_c, 0, 66, 106
1, 37989, Note_off_c, 0, 66, 106
1, 37992, Note_on_c, 0, 68, 107
1, 38124, Note_off_c, 0, 68, 107
1, 38130, Note_on_c, 0, 70, 96
1, 38166, Note_off_c, 0, 70, 96
1, 38169, Note_on_c, 0, 68, 109
1, 38194, Note_off_c, 0, 68, 109
1, 38197, Note_on_c, 0, 66, 113
1, 38246, Note_off_c, 0, 66, 113
1, 38259, Note_on_c, 0, 65, 104
1, 38402, Note_off_c, 0, 65, 104
1, 38407, Note_on_c, 0, 63, 91
1, 38440, Note_off_c, 0, 63, 91
1, 38440, Note_on_c, 0, 60, 69
1, 38558, Note_off_c, 0, 60, 69
1, 38574, Note_on_c, 0, 63, 96
1, 38621, Note_off_c, 0, 63, 96
1, 38639, Note_on_c, 0, 67, 88
1, 38739, Note_off_c, 0, 67, 88
1, 38755, Note_on_c, 0, 70, 114
1, 38823, Note_off_c, 0, 70, 114
1, 38826, Note_on_c, 0, 72, 117
1, 38943, Note_off_c, 0, 72, 117
1, 38950, Note_on_c, 0, 70, 108
1, 39008, Note_off_c, 0, 70, 108
1, 39009, Note_on_c, 0, 75, 118
1, 39124, Note_off_c, 0, 75, 118
1, 39125, Note_on_c, 0, 77, 120
1, 39214, Note_off_c, 0, 77, 120
1, 39223, Note_on_c, 0, 75, 107
1, 39319, Note_off_c, 0, 75, 107
1, 39337, Note_on_c, 0, 72, 107
1, 39406, Note_off_c, 0, 72, 107
1, 39409, Note_on_c, 0, 70, 111
1, 39504, Note_off_c, 0, 70, 111
1, 39506, Note_on_c, 0, 67, 117
1, 39591, Note_off_c, 0, 67, 117
1, 39602, Note_on_c, 0, 65, 102
1, 39701, Note_off_c, 0, 65, 102
1, 39704, Note_on_c, 0, 63, 89
1, 39764, Note_off_c, 0, 63, 89
1, 39773, Note_on_c, 0, 65, 107
1, 39882, Note_off_c, 0, 65, 107
1, 39887, Note_on_c, 0, 63, 92
1, 39967, Note_off_c, 0, 63, 92
1, 39978, Note_on_c, 0, 62, 82
1, 40069, Note_off_c, 0, 62, 82
1, 40078, Note_on_c, 0, 63, 98
1, 40162, Note_off_c, 0, 63, 98
1, 40168, Note_on_c, 0, 62, 101
1, 40269, Note_off_c, 0, 62, 101
1, 40281, Note_on_c, 0, 61, 95
1, 40350, Note_off_c, 0, 61, 95
1, 40361, Note_on_c, 0, 60, 87
1, 40412, Note_off_c, 0, 60, 87
1, 40422, Note_on_c, 0, 63, 81
1, 40472, Note_off_c, 0, 63, 81
1, 40474, Note_on_c, 0, 67, 118
1, 40541, Note_off_c, 0, 67, 118
1, 40544, Note_on_c, 0, 70, 110
1, 40660, Note_off_c, 0, 70, 110
1, 40666, Note_on_c, 0, 69, 101
1, 40734, Note_off_c, 0, 69, 101
1, 40738, Note_on_c, 0, 68, 111
1, 40809, Note_off_c, 0, 68, 111
1, 40818, Note_on_c, 0, 69, 98
1, 40856, Note_off_c, 0, 69, 98
1, 40861, Note_on_c, 0, 70, 114
1, 40929, Note_off_c, 0, 70, 114
1, 40931, Note_on_c, 0, 67, 113
1, 40998, Note_off_c, 0, 67, 113
1, 41003, Note_on_c, 0, 66, 105
1, 41057, Note_off_c, 0, 66, 105
1, 41057, Note_on_c, 0, 65, 93
1, 41252, Note_off_c, 0, 65, 93
1, 41496, Note_on_c, 0, 70, 116
1, 41572, Note_off_c, 0, 70, 116
1, 41579, Note_on_c, 0, 72, 91
1, 41615, Note_off_c, 0, 72, 91
1, 41616, Note_on_c, 0, 75, 119
1, 41701, Note_off_c, 0, 75, 119
1, 41708, Note_on_c, 0, 73, 108
1, 41789, Note_off_c, 0, 73, 108
1, 41793, Note_on_c, 0, 74, 106
1, 41832, Note_off_c, 0, 74, 106
1, 41840, Note_on_c, 0, 73, 110
1, 41908, Note_off_c, 0, 73, 110
1, 41912, Note_on_c, 0, 72, 112
1, 42015, Note_off_c, 0, 72, 112
1, 42020, Note_on_c, 0, 71, 111
1, 42090, Note_off_c, 0, 71, 111
1, 42092, Note_on_c, 0, 70, 112
1, 42195, Note_off_c, 0, 70, 112
1, 42202, Note_on_c, 0, 68, 114
1, 42283, Note_off_c, 0, 68, 114
1, 42291, Note_on_c, 0, 65, 103
1, 42384, Note_off_c, 0, 65, 103
1, 42391, Note_on_c, 0, 66, 113
1, 42472, Note_off_c, 0, 66, 113
1, 42481, Note_on_c, 0, 67, 117
1, 42595, Note_off_c, 0, 67, 117
1, 42602, Note_on_c, 0, 70, 101
1, 42660, Note_off_c, 0, 70, 101
1, 42661, Note_on_c, 0, 72, 110
1, 42779, Note_off_c, 0, 72, 110
1, 42781, Note_on_c, 0, 75, 119
1, 42849, Note_off_c, 0, 75, 119
1, 42858, Note_on_c, 0, 79, 119
1, 42966, Note_off_c, 0, 79, 119
1, 42977, Note_on_c, 0, 80, 117
1, 43065, Note_off_c, 0, 80, 117
1, 43073, Note_on_c, 0, 79, 106
1, 43169, Note_off_c, 0, 79, 106
1, 43175, Note_on_c, 0, 77, 113
1, 43258, Note_off_c, 0, 77, 113
1, 43263, Note_on_c, 0, 75, 103
1, 43350, Note_off_c, 0, 75, 103
1, 43375, Note_on_c, 0, 70, 108
1, 43434, Note_off_c, 0, 70, 108
1, 43435, Note_on_c, 0, 67, 119
1, 43576, Note_off_c, 0, 67, 119
1, 43657, Note_on_c, 0, 68, 118
1, 43778, Note_off_c, 0, 68, 118
1, 43780, Note_on_c, 0, 67, 95
1, 43821, Note_off_c, 0, 67, 95
1, 43834, Note_on_c, 0, 68, 115
1, 43951, Note_off_c, 0, 68, 115
1, 43956, Note_on_c, 0, 70, 112
1, 44027, Note_off_c, 0, 70, 112
1, 44032, Note_on_c, 0, 71, 106
1, 44130, Note_off_c, 0, 71, 106
1, 44136, Note_on_c, 0, 70, 98
1, 44182, Note_off_c, 0, 70, 98
1, 44190, Note_on_c, 0, 68, 116
1, 44236, Note_off_c, 0, 68, 116
1, 44242, Note_on_c, 0, 67, 115
1, 44374, Note_off_c, 0, 67, 115
1, 44386, Note_on_c, 0, 70, 90
1, 44425, Note_off_c, 0, 70, 90
1, 44436, Note_on_c, 0, 72, 102
1, 44544, Note_off_c, 0, 72, 102
1, 44565, Note_on_c, 0, 75, 87
1, 44868, Note_off_c, 0, 75, 87
1, 45704, Note_on_c, 0, 67, 110
1, 45772, Note_off_c, 0, 67, 110
1, 45780, Note_on_c, 0, 70, 117
1, 45904, Note_off_c, 0, 70, 117
1, 45913, Note_on_c, 0, 67, 106
1, 45960, Note_off_c, 0, 67, 106
1, 45965, Note_on_c, 0, 70, 116
1, 46086, Note_off_c, 0, 70, 116
1, 46096, Note_on_c, 0, 67, 111
1, 46164, Note_off_c, 0, 67, 111
1, 46165, Note_on_c, 0, 64, 95
1, 46311, Note_off_c, 0, 64, 95
1, 46311, Note_on_c, 0, 60, 96
1, 46359, Note_off_c, 0, 60, 96
1, 46366, Note_on_c, 0, 63, 102
1, 46480, Note_off_c, 0, 63, 102
1, 46490, Note_on_c, 0, 62, 102
1, 46566, Note_off_c, 0, 62, 102
1, 46578, Note_on_c, 0, 61, 102
1, 46688, Note_off_c, 0, 61, 102
1, 46695, Note_on_c, 0, 59, 103
1, 46765, Note_off_c, 0, 59, 103
1, 46766, Note_on_c, 0, 60, 112
1, 46894, Note_off_c, 0, 60, 112
1, 46897, Note_on_c, 0, 68, 117
1, 47084, Note_off_c, 0, 68, 117
1, 47084, Note_on_c, 0, 60, 100
1, 47167, Note_off_c, 0, 60, 100
1, 47179, Note_on_c, 0, 62, 98
1, 47329, Note_off_c, 0, 62, 98
1, 47352, Note_on_c, 0, 70, 115
1, 47469, Note_off_c, 0, 70, 115
1, 47470, Note_on_c, 0, 67, 118
1, 47553, Note_off_c, 0, 67, 118
1, 47676, Note_on_c, 0, 63, 100
1, 47737, Note_off_c, 0, 63, 100
1, 47751, Note_on_c, 0, 65, 113
1, 47869, Note_off_c, 0, 65, 113
1, 47869, Note_on_c, 0, 63, 96
1, 47925, Note_off_c, 0, 63, 96
1, 47946, Note_on_c, 0, 59, 76
1, 48005, Note_off_c, 0, 59, 76
1, 48011, Note_on_c, 0, 63, 77
1, 48045, Note_off_c, 0, 63, 77
1, 48048, Note_on_c, 0, 67, 96
1, 48089, Note_off_c, 0, 67, 96
1, 48093, Note_on_c, 0, 70, 104
1, 48137, Note_off_c, 0, 70, 104
1, 48140, Note_on_c, 0, 74, 118
1, 48219, Note_off_c, 0, 74, 118
1, 48222, Note_on_c, 0, 72, 107
1, 48297, Note_off_c, 0, 72, 107
1, 48301, Note_on_c, 0, 75, 121
1, 48378, Note_off_c, 0, 75, 121
1, 48394, Note_on_c, 0, 72, 108
1, 48448, Note_off_c, 0, 72, 108
1, 48453, Note_on_c, 0, 68, 117
1, 48508, Note_off_c, 0, 68, 117
1, 48514, Note_on_c, 0, 65, 103
1, 48554, Note_off_c, 0, 65, 103
1, 48554, Note_on_c, 0, 66, 102
1, 48603, Note_off_c, 0, 66, 102
1, 48607, Note_on_c, 0, 67, 106
1, 48636, Note_off_c, 0, 67, 106
1, 48638, Note_on_c, 0, 68, 96
1, 48676, Note_off_c, 0, 68, 96
1, 48679, Note_on_c, 0, 69, 98
1, 48720, Note_off_c, 0, 69, 98
1, 48727, Note_on_c, 0, 70, 114
1, 48782, Note_off_c, 0, 70, 114
1, 48782, Note_on_c, 0, 67, 114
1, 48831, Note_off_c, 0, 67, 114
1, 48837, Note_on_c, 0, 63, 87
1, 48871, Note_off_c, 0, 63, 87
1, 48889, Note_on_c, 0, 60, 96
1, 48968, Note_off_c, 0, 60, 96
1, 48980, Note_on_c, 0, 65, 103
1, 49026, Note_off_c, 0, 65, 103
1, 49032, Note_on_c, 0, 64, 91
1, 49072, Note_off_c, 0, 64, 91
1, 49089, Note_on_c, 0, 63, 88
1, 49159, Note_off_c, 0, 63, 88
1, 49167, Note_on_c, 0, 65, 104
1, 49215, Note_off_c, 0, 65, 104
1, 49218, Note_on_c, 0, 67, 92
1, 49259, Note_off_c, 0, 67, 92
1, 49264, Note_on_c, 0, 68, 91
1, 49312, Note_off_c, 0, 68, 91
1, 49318, Note_on_c, 0, 69, 106
1, 49360, Note_off_c, 0, 69, 106
1, 49365, Note_on_c, 0, 70, 95
1, 49404, Note_off_c, 0, 70, 95
1, 49406, Note_on_c, 0, 72, 104
1, 49451, Note_off_c, 0, 72, 104
1, 49454, Note_on_c, 0, 70, 111
1, 49498, Note_off_c, 0, 70, 111
1, 49504, Note_on_c, 0, 69, 102
1, 49538, Note_off_c, 0, 69, 102
1, 49543, Note_on_c, 0, 70, 91
1, 49579, Note_off_c, 0, 70, 91
1, 49585, Note_on_c, 0, 75, 116
1, 49640, Note_off_c, 0, 75, 116
1, 49642, Note_on_c, 0, 73, 100
1, 49695, Note_off_c, 0, 73, 100
1, 49698, Note_on_c, 0, 75, 104
1, 49734, Note_off_c, 0, 75, 104
1, 49739, Note_on_c, 0, 73, 104
1, 49790, Note_off_c, 0, 73, 104
1, 49791, Note_on_c, 0, 72, 105
1, 49834, Note_off_c, 0, 72, 105
1, 49844, Note_on_c, 0, 71, 104
1, 49890, Note_off_c, 0, 71, 104
1, 49895, Note_on_c, 0, 70, 110
1, 49939, Note_off_c, 0, 70, 110
1, 49940, Note_on_c, 0, 69, 112
1, 49972, Note_off_c, 0, 69, 112
1, 49973, Note_on_c, 0, 68, 119
1, 50020, Note_off_c, 0, 68, 119
1, 50021, Note_on_c, 0, 67, 115
1, 50067, Note_off_c, 0, 67, 115
1, 50071, Note_on_c, 0, 65, 101
1, 50118, Note_off_c, 0, 65, 101
1, 50120, Note_on_c, 0, 64, 92
1, 50165, Note_off_c, 0, 64, 92
1, 50165, Note_on_c, 0, 63, 90
1, 50209, Note_off_c, 0, 63, 90
1, 50211, Note_on_c, 0, 65, 111
1, 50263, Note_off_c, 0, 65, 111
1, 50272, Note_on_c, 0, 66, 111
1, 50311, Note_off_c, 0, 66, 111
1, 50316, Note_on_c, 0, 65, 107
1, 50358, Note_off_c, 0, 65, 107
1, 50367, Note_on_c, 0, 63, 90
1, 50396, Note_off_c, 0, 63, 90
1, 50403, Note_on_c, 0, 61, 91
1, 50447, Note_off_c, 0, 61, 91
1, 50451, Note_on_c, 0, 62, 91
1, 50484, Note_off_c, 0, 62, 91
1, 50488, Note_on_c, 0, 65, 112
1, 50550, Note_off_c, 0, 65, 112
1, 50552, Note_on_c, 0, 64, 94
1, 50591, Note_off_c, 0, 64, 94
1, 50593, Note_on_c, 0, 62, 90
1, 50640, Note_off_c, 0, 62, 90
1, 50643, Note_on_c, 0, 63, 83
1, 50685, Note_off_c, 0, 63, 83
1, 50690, Note_on_c, 0, 65, 105
1, 50739, Note_off_c, 0, 65, 105
1, 50743, Note_on_c, 0, 67, 89
1, 50777, Note_off_c, 0, 67, 89
1, 50779, Note_on_c, 0, 70, 80
1, 50817, Note_off_c, 0, 70, 80
1, 50820, Note_on_c, 0, 72, 90
1, 50859, Note_off_c, 0, 72, 90
1, 50860, Note_on_c, 0, 75, 116
1, 50923, Note_off_c, 0, 75, 116
1, 50929, Note_on_c, 0, 72, 107
1, 50994, Note_off_c, 0, 72, 107
1, 51573, Note_on_c, 0, 75, 108
1, 51661, Note_off_c, 0, 75, 108
1, 51665, Note_on_c, 0, 76, 118
1, 51702, Note_off_c, 0, 76, 118
1, 51703, Note_on_c, 0, 75, 115
1, 51765, Note_off_c, 0, 75, 115
1, 51767, Note_on_c, 0, 74, 116
1, 51880, Note_off_c, 0, 74, 116
1, 51883, Note_on_c, 0, 72, 119
1, 51968, Note_off_c, 0, 72, 119
1, 51971, Note_on_c, 0, 70, 110
1, 52081, Note_off_c, 0, 70, 110
1, 52084, Note_on_c, 0, 68, 119
1, 52166, Note_off_c, 0, 68, 119
1, 52171, Note_on_c, 0, 67, 118
1, 52333, Note_off_c, 0, 67, 118
1, 52373, Note_on_c, 0, 68, 119
1, 52472, Note_off_c, 0, 68, 119
1, 52478, Note_on_c, 0, 69, 109
1, 52553, Note_off_c, 0, 69, 109
1, 52558, Note_on_c, 0, 70, 110
1, 52669, Note_off_c, 0, 70, 110
1, 52670, Note_on_c, 0, 68, 122
1, 52750, Note_off_c, 0, 68, 122
1, 52753, Note_on_c, 0, 67, 116
1, 52857, Note_off_c, 0, 67, 116
1, 52860, Note_on_c, 0, 65, 110
1, 52945, Note_off_c, 0, 65, 110
1, 52954, Note_on_c, 0, 63, 97
1, 53056, Note_off_c, 0, 63, 97
1, 53064, Note_on_c, 0, 62, 102
1, 53144, Note_off_c, 0, 62, 102
1, 53158, Note_on_c, 0, 61, 96
1, 53255, Note_off_c, 0, 61, 96
1, 53269, Note_on_c, 0, 63, 9
1, 53373, Note_off_c, 0, 63, 9
1, 53381, Note_on_c, 0, 64, 101
1, 53453, Note_off_c, 0, 64, 101
1, 53467, Note_on_c, 0, 67, 120
1, 53539, Note_off_c, 0, 67, 120
1, 53548, Note_on_c, 0, 71, 114
1, 53670, Note_off_c, 0, 71, 114
1, 53679, Note_on_c, 0, 67, 105
1, 53724, Note_off_c, 0, 67, 105
1, 53731, Note_on_c, 0, 70, 117
1, 53877, Note_off_c, 0, 70, 117
1, 53881, Note_on_c, 0, 68, 104
1, 53920, Note_off_c, 0, 68, 104
1, 53936, Note_on_c, 0, 70, 114
1, 54127, Note_off_c, 0, 70, 114
1, 54132, Note_on_c, 0, 68, 115
1, 54239, Note_off_c, 0, 68, 115
1, 54249, Note_on_c, 0, 67, 119
1, 54328, Note_off_c, 0, 67, 119
1, 54343, Note_on_c, 0, 65, 106
1, 54457, Note_off_c, 0, 65, 106
1, 54463, Note_on_c, 0, 63, 81
1, 54495, Note_off_c, 0, 63, 81
1, 54510, Note_on_c, 0, 72, 121
1, 54657, Note_off_c, 0, 72, 121
1, 54663, Note_on_c, 0, 70, 104
1, 54714, Note_off_c, 0, 70, 104
1, 54718, Note_on_c, 0, 73, 105
1, 54900, Note_off_c, 0, 73, 105
1, 54967, Note_on_c, 0, 65, 102
1, 55043, Note_off_c, 0, 65, 102
1, 55052, Note_on_c, 0, 67, 119
1, 55138, Note_off_c, 0, 67, 119
1, 55140, Note_on_c, 0, 68, 122
1, 55247, Note_off_c, 0, 68, 122
1, 55249, Note_on_c, 0, 69, 113
1, 55326, Note_off_c, 0, 69, 113
1, 55335, Note_on_c, 0, 70, 109
1, 55439, Note_off_c, 0, 70, 109
1, 55439, Note_on_c, 0, 67, 112
1, 55517, Note_off_c, 0, 67, 112
1, 55522, Note_on_c, 0, 63, 87
1, 55644, Note_off_c, 0, 63, 87
1, 55648, Note_on_c, 0, 65, 110
1, 55696, Note_off_c, 0, 65, 110
1, 55705, Note_on_c, 0, 68, 114
1, 55850, Note_off_c, 0, 68, 114
1, 55855, Note_on_c, 0, 65, 94
1, 56079, Note_off_c, 0, 65, 94
1, 56695, Note_on_c, 0, 72, 122
1, 56772, Note_off_c, 0, 72, 122
1, 56777, Note_on_c, 0, 74, 104
1, 56820, Note_off_c, 0, 74, 104
1, 56823, Note_on_c, 0, 77, 120
1, 56898, Note_off_c, 0, 77, 120
1, 56898, Note_on_c, 0, 79, 125
1, 57044, Note_off_c, 0, 79, 125
1, 57052, Note_on_c, 0, 72, 115
1, 57166, Note_off_c, 0, 72, 115
1, 57431, Note_on_c, 0, 77, 125
1, 57488, Note_off_c, 0, 77, 125
1, 57497, Note_on_c, 0, 72, 103
1, 57557, Note_off_c, 0, 72, 103
1, 57571, Note_on_c, 0, 68, 114
1, 57629, Note_off_c, 0, 68, 114
1, 57641, Note_on_c, 0, 65, 99
1, 57681, Note_off_c, 0, 65, 99
1, 57719, Note_on_c, 0, 70, 116
1, 57765, Note_off_c, 0, 70, 116
1, 57766, Note_on_c, 0, 72, 108
1, 57839, Note_off_c, 0, 72, 108
1, 57841, Note_on_c, 0, 70, 114
1, 57896, Note_off_c, 0, 70, 114
1, 57905, Note_on_c, 0, 69, 101
1, 57968, Note_off_c, 0, 69, 101
1, 57977, Note_on_c, 0, 70, 103
1, 58026, Note_off_c, 0, 70, 103
1, 58028, Note_on_c, 0, 72, 86
1, 58083, Note_off_c, 0, 72, 86
1, 58105, Note_on_c, 0, 73, 109
1, 58254, Note_off_c, 0, 73, 109
1, 58312, Note_on_c, 0, 67, 120
1, 58406, Note_off_c, 0, 67, 120
1, 58417, Note_on_c, 0, 70, 116
1, 58495, Note_off_c, 0, 70, 116
1, 58505, Note_on_c, 0, 69, 108
1, 58614, Note_off_c, 0, 69, 108
1, 58616, Note_on_c, 0, 72, 115
1, 58684, Note_off_c, 0, 72, 115
1, 58708, Note_on_c, 0, 67, 117
1, 58796, Note_off_c, 0, 67, 117
1, 58802, Note_on_c, 0, 66, 111
1, 58872, Note_off_c, 0, 66, 111
1, 58879, Note_on_c, 0, 65, 110
1, 58956, Note_off_c, 0, 65, 110
1, 59074, Note_on_c, 0, 74, 117
1, 59179, Note_off_c, 0, 74, 117
1, 59184, Note_on_c, 0, 75, 117
1, 59270, Note_off_c, 0, 75, 117
1, 59278, Note_on_c, 0, 74, 124
1, 59386, Note_off_c, 0, 74, 124
1, 59395, Note_on_c, 0, 72, 116
1, 59473, Note_off_c, 0, 72, 116
1, 59483, Note_on_c, 0, 70, 112
1, 59591, Note_off_c, 0, 70, 112
1, 59593, Note_on_c, 0, 69, 117
1, 59666, Note_off_c, 0, 69, 117
1, 59702, Note_on_c, 0, 68, 118
1, 59793, Note_off_c, 0, 68, 118
1, 59799, Note_on_c, 0, 67, 118
1, 59886, Note_off_c, 0, 67, 118
1, 59890, Note_on_c, 0, 65, 100
1, 59989, Note_off_c, 0, 65, 100
1, 60019, Note_on_c, 0, 64, 101
1, 60058, Note_off_c, 0, 64, 101
1, 60062, Note_on_c, 0, 63, 84
1, 60212, Note_off_c, 0, 63, 84
1, 60231, Note_on_c, 0, 67, 104
1, 60275, Note_off_c, 0, 67, 104
1, 60299, Note_on_c, 0, 70, 116
1, 60412, Note_off_c, 0, 70, 116
1, 60490, Note_on_c, 0, 63, 87
1, 60643, Note_off_c, 0, 63, 87
1, 60688, Note_on_c, 0, 67, 124
1, 60791, Note_off_c, 0, 67, 124
1, 60791, Note_on_c, 0, 70, 115
1, 60864, Note_off_c, 0, 70, 115
1, 60869, Note_on_c, 0, 65, 94
1, 60955, Note_off_c, 0, 65, 94
1, 60984, Note_on_c, 0, 68, 119
1, 61065, Note_off_c, 0, 68, 119
1, 61065, Note_on_c, 0, 72, 111
1, 61250, Note_off_c, 0, 72, 111
1, 61275, Note_on_c, 0, 66, 110
1, 61384, Note_off_c, 0, 66, 110
1, 61389, Note_on_c, 0, 69, 110
1, 61440, Note_off_c, 0, 69, 110
1, 61463, Note_on_c, 0, 74, 117
1, 61572, Note_off_c, 0, 74, 117
1, 61574, Note_on_c, 0, 72, 107
1, 61650, Note_off_c, 0, 72, 107
1, 61651, Note_on_c, 0, 70, 111
1, 61772, Note_off_c, 0, 70, 111
1, 61786, Note_on_c, 0, 72, 92
1, 61824, Note_off_c, 0, 72, 92
1, 61854, Note_on_c, 0, 75, 117
1, 61962, Note_off_c, 0, 75, 117
1, 61962, Note_on_c, 0, 72, 117
1, 62046, Note_off_c, 0, 72, 117
1, 62047, Note_on_c, 0, 70, 113
1, 62159, Note_off_c, 0, 70, 113
1, 62255, Note_on_c, 0, 67, 118
1, 62356, Note_off_c, 0, 67, 118
1, 62367, Note_on_c, 0, 70, 115
1, 62434, Note_off_c, 0, 70, 115
1, 62447, Note_on_c, 0, 68, 114
1, 62581, Note_off_c, 0, 68, 114
1, 62777, Note_on_c, 0, 58, 115
1, 62853, Note_off_c, 0, 58, 115
1, 62892, Note_on_c, 0, 71, 105
1, 62968, Note_off_c, 0, 71, 105
1, 62985, Note_on_c, 0, 67, 120
1, 63060, Note_off_c, 0, 67, 120
1, 63069, Note_on_c, 0, 65, 108
1, 63148, Note_off_c, 0, 65, 108
1, 63168, Note_on_c, 0, 62, 101
1, 63236, Note_off_c, 0, 62, 101
1, 63255, Note_on_c, 0, 58, 110
1, 63346, Note_off_c, 0, 58, 110
1, 63383, Note_on_c, 0, 58, 102
1, 63638, Note_off_c, 0, 58, 102
1, 64229, Note_on_c, 0, 60, 107
1, 64269, Note_off_c, 0, 60, 107
1, 64275, Note_on_c, 0, 62, 93
1, 64322, Note_off_c, 0, 62, 93
1, 64332, Note_on_c, 0, 63, 85
1, 64381, Note_off_c, 0, 63, 85
1, 64391, Note_on_c, 0, 65, 112
1, 64460, Note_off_c, 0, 65, 112
1, 64621, Note_on_c, 0, 61, 99
1, 64665, Note_off_c, 0, 61, 99
1, 64669, Note_on_c, 0, 62, 91
1, 64718, Note_off_c, 0, 62, 91
1, 64725, Note_on_c, 0, 65, 113
1, 64774, Note_off_c, 0, 65, 113
1, 64784, Note_on_c, 0, 64, 97
1, 64816, Note_off_c, 0, 64, 97
1, 64817, Note_on_c, 0, 63, 94
1, 64864, Note_off_c, 0, 63, 94
1, 64867, Note_on_c, 0, 65, 109
1, 64914, Note_off_c, 0, 65, 109
1, 64918, Note_on_c, 0, 67, 99
1, 64956, Note_off_c, 0, 67, 99
1, 64959, Note_on_c, 0, 68, 102
1, 65008, Note_off_c, 0, 68, 102
1, 65025, Note_on_c, 0, 70, 114
1, 65119, Note_off_c, 0, 70, 114
1, 65209, Note_on_c, 0, 66, 106
1, 65257, Note_off_c, 0, 66, 106
1, 65263, Note_on_c, 0, 67, 93
1, 65302, Note_off_c, 0, 67, 93
1, 65311, Note_on_c, 0, 70, 117
1, 65361, Note_off_c, 0, 70, 117
1, 65366, Note_on_c, 0, 69, 106
1, 65398, Note_off_c, 0, 69, 106
1, 65407, Note_on_c, 0, 67, 99
1, 65456, Note_off_c, 0, 67, 99
1, 65463, Note_on_c, 0, 68, 96
1, 65508, Note_off_c, 0, 68, 96
1, 65511, Note_on_c, 0, 70, 94
1, 65551, Note_off_c, 0, 70, 94
1, 65556, Note_on_c, 0, 72, 92
1, 65592, Note_off_c, 0, 72, 92
1, 65601, Note_on_c, 0, 75, 117
1, 65660, Note_off_c, 0, 75, 117
1, 65664, Note_on_c, 0, 72, 114
1, 65702, Note_off_c, 0, 72, 114
1, 65706, Note_on_c, 0, 73, 105
1, 65753, Note_off_c, 0, 73, 105
1, 65755, Note_on_c, 0, 74, 108
1, 65802, Note_off_c, 0, 74, 108
1, 65807, Note_on_c, 0, 70, 111
1, 65857, Note_off_c, 0, 70, 111
1, 65861, Note_on_c, 0, 71, 99
1, 65895, Note_off_c, 0, 71, 99
1, 65902, Note_on_c, 0, 72, 115
1, 65954, Note_off_c, 0, 72, 115
1, 65955, Note_on_c, 0, 66, 104
1, 65991, Note_off_c, 0, 66, 104
1, 66062, Note_on_c, 0, 70, 114
1, 66111, Note_off_c, 0, 70, 114
1, 66117, Note_on_c, 0, 69, 106
1, 66162, Note_off_c, 0, 69, 106
1, 66164, Note_on_c, 0, 67, 100
1, 66193, Note_off_c, 0, 67, 100
1, 66196, Note_on_c, 0, 68, 120
1, 66252, Note_off_c, 0, 68, 120
1, 66254, Note_on_c, 0, 67, 118
1, 66303, Note_off_c, 0, 67, 118
1, 66304, Note_on_c, 0, 65, 100
1, 66343, Note_off_c, 0, 65, 100
1, 66352, Note_on_c, 0, 64, 95
1, 66390, Note_off_c, 0, 64, 95
1, 66396, Note_on_c, 0, 63, 91
1, 66455, Note_off_c, 0, 63, 91
1, 66461, Note_on_c, 0, 70, 107
1, 66543, Note_off_c, 0, 70, 107
1, 66543, End_track
0, 0, End_of_file
