0, 0, Header, 1, 1, 192
1, 0, Start_track
1, 0, Title_t, "Melody"
1, 0, Tempo, 201342
1, 0, Key_signature, -2, "major"
1, 0, Time_signature, 4, 2, 24, 8
1, 2784, Note_on_c, 0, 65, 88
1, 2861, Note_off_c, 0, 65, 88
1, 2867, Note_on_c, 0, 69, 101
1, 2944, Note_off_c, 0, 69, 101
1, 2950, Note_on_c, 0, 70, 89
1, 3009, Note_off_c, 0, 70, 89
1, 3020, Note_on_c, 0, 72, 107
1, 3148, Note_off_c, 0, 72, 107
1, 3155, Note_on_c, 0, 70, 103
1, 3209, Note_off_c, 0, 70, 103
1, 3212, Note_on_c, 0, 69, 92
1, 3297, Note_off_c, 0, 69, 92
1, 3300, Note_on_c, 0, 70, 95
1, 3373, Note_off_c, 0, 70, 95
1, 3380, Note_on_c, 0, 74, 105
1, 3488, Note_off_c, 0, 74, 105
1, 3519, Note_on_c, 0, 65, 89
1, 3592, Note_off_c, 0, 65, 89
1, 3599, Note_on_c, 0, 67, 97
1, 3684, Note_off_c, 0, 67, 97
1, 3703, Note_on_c, 0, 69, 90
1, 3776, Note_off_c, 0, 69, 90
1, 3779, Note_on_c, 0, 70, 100
1, 3878, Note_off_c, 0, 70, 100
1, 3891, Note_on_c, 0, 67, 97
1, 3968, Note_off_c, 0, 67, 97
1, 4006, Note_on_c, 0, 63, 87
1, 4072, Note_off_c, 0, 63, 87
1, 4083, Note_on_c, 0, 60, 79
1, 4149, Note_off_c, 0, 60, 79
1, 4149, Note_on_c, 0, 69, 106
1, 4242, Note_off_c, 0, 69, 106
1, 4257, Note_on_c, 0, 70, 102
1, 4338, Note_off_c, 0, 70, 102
1, 4338, Note_on_c, 0, 72, 114
1, 4431, Note_off_c, 0, 72, 114
1, 4446, Note_on_c, 0, 71, 106
1, 4535, Note_off_c, 0, 71, 106
1, 4546, Note_on_c, 0, 70, 100
1, 4627, Note_off_c, 0, 70, 100
1, 4630, Note_on_c, 0, 69, 101
1, 4700, Note_off_c, 0, 69, 101
1, 4703, Note_on_c, 0, 68, 99
1, 4800, Note_off_c, 0, 68, 99
1, 4811, Note_on_c, 0, 67, 103
1, 4896, Note_off_c, 0, 67, 103
1, 4896, Note_on_c, 0, 65, 98
1, 4973, Note_off_c, 0, 65, 98
1, 4988, Note_on_c, 0, 63, 89
1, 5065, Note_off_c, 0, 63, 89
1, 5080, Note_on_c, 0, 62, 99
1, 5192, Note_off_c, 0, 62, 99
1, 5211, Note_on_c, 0, 65, 88
1, 5261, Note_off_c, 0, 65, 88
1, 5268, Note_on_c, 0, 70, 112
1, 5369, Note_off_c, 0, 70, 112
1, 5372, Note_on_c, 0, 69, 111
1, 5473, Note_off_c, 0, 69, 111
1, 5473, Note_on_c, 0, 68, 105
1, 5543, Note_off_c, 0, 68, 105
1, 5559, Note_on_c, 0, 67, 105
1, 5636, Note_off_c, 0, 67, 105
1, 5652, Note_on_c, 0, 65, 104
1, 5737, Note_off_c, 0, 65, 104
1, 5750, Note_on_c, 0, 63, 94
1, 5838, Note_off_c, 0, 63, 94
1, 5843, Note_on_c, 0, 62, 84
1, 5912, Note_off_c, 0, 62, 84
1, 5923, Note_on_c, 0, 63, 94
1, 5994, Note_off_c, 0, 63, 94
1, 6007, Note_on_c, 0, 65, 104
1, 6101, Note_off_c, 0, 65, 104
1, 6120, Note_on_c, 0, 62, 98
1, 6186, Note_off_c, 0, 62, 98
1, 6208, Note_on_c, 0, 63, 99
1, 6307, Note_off_c, 0, 63, 99
1, 6323, Note_on_c, 0, 66, 111
1, 6455, Note_off_c, 0, 66, 111
1, 6490, Note_on_c, 0, 67, 106
1, 6561, Note_off_c, 0, 67, 106
1, 6574, Note_on_c, 0, 68, 100
1, 6634, Note_off_c, 0, 68, 100
1, 6639, Note_on_c, 0, 69, 108
1, 6727, Note_off_c, 0, 69, 108
1, 6743, Note_on_c, 0, 70, 107
1, 6850, Note_off_c, 0, 70, 107
1, 6869, Note_on_c, 0, 67, 91
1, 6943, Note_off_c, 0, 67, 91
1, 6951, Note_on_c, 0, 63, 90
1, 7025, Note_off_c, 0, 63, 90
1, 7044, Note_on_c, 0, 60, 83
1, 7102, Note_off_c, 0, 60, 83
1, 7107, Note_on_c, 0, 70, 102
1, 7223, Note_off_c, 0, 70, 102
1, 7236, Note_on_c, 0, 66, 93
1, 7294, Note_off_c, 0, 66, 93
1, 7302, Note_on_c, 0, 70, 93
1, 7445, Note_off_c, 0, 70, 93
1, 7483, Note_on_c, 0, 70, 90
1, 7815, Note_off_c, 0, 70, 90
1, 8767, Note_on_c, 0, 66, 79
1, 8816, Note_off_c, 0, 66, 79
1, 8838, Note_on_c, 0, 67, 100
1, 8939, Note_off_c, 0, 67, 100
1, 8940, Note_on_c, 0, 74, 113
1, 9028, Note_off_c, 0, 74, 113
1, 9030, Note_on_c, 0, 77, 110
1, 9157, Note_off_c, 0, 77, 110
1, 9159, Note_on_c, 0, 65, 108
1, 9222, Note_off_c, 0, 65, 108
1, 9235, Note_on_c, 0, 67, 100
1, 9287, Note_off_c, 0, 67, 100
1, 9292, Note_on_c, 0, 70, 90
1, 9330, Note_off_c, 0, 70, 90
1, 9346, Note_on_c, 0, 72, 106
1, 9395, Note_off_c, 0, 72, 106
1, 9411, Note_on_c, 0, 77, 122
1, 9505, Note_off_c, 0, 77, 122
1, 9516, Note_on_c, 0, 76, 127
1, 9593, Note_off_c, 0, 76, 127
1, 9609, Note_on_c, 0, 75, 118
1, 9689, Note_off_c, 0, 75, 118
1, 9705, Note_on_c, 0, 74, 114
1, 9790, Note_off_c, 0, 74, 114
1, 9809, Note_on_c, 0, 72, 104
1, 9900, Note_off_c, 0, 72, 104
1, 9919, Note_on_c, 0, 70, 98
1, 10007, Note_off_c, 0, 70, 98
1, 10012, Note_on_c, 0, 69, 93
1, 10111, Note_off_c, 0, 69, 93
1, 10113, Note_on_c, 0, 70, 85
1, 10165, Note_off_c, 0, 70, 85
1, 10170, Note_on_c, 0, 72, 111
1, 10266, Note_off_c, 0, 72, 111
1, 10293, Note_on_c, 0, 66, 105
1, 10378, Note_off_c, 0, 66, 105
1, 10378, Note_on_c, 0, 67, 91
1, 10430, Note_off_c, 0, 67, 91
1, 10438, Note_on_c, 0, 70, 83
1, 10487, Note_off_c, 0, 70, 83
1, 10492, Note_on_c, 0, 74, 104
1, 10555, Note_off_c, 0, 74, 104
1, 10560, Note_on_c, 0, 78, 122
1, 10676, Note_off_c, 0, 78, 122
1, 10700, Note_on_c, 0, 76, 112
1, 10863, Note_off_c, 0, 76, 112
1, 10890, Note_on_c, 0, 78, 120
1, 10992, Note_off_c, 0, 78, 120
1, 11011, Note_on_c, 0, 76, 116
1, 11135, Note_off_c, 0, 76, 116
1, 12430, Note_on_c, 0, 79, 111
1, 12540, Note_off_c, 0, 79, 111
1, 12548, Note_on_c, 0, 78, 122
1, 12650, Note_off_c, 0, 78, 122
1, 12671, Note_on_c, 0, 77, 121
1, 12742, Note_off_c, 0, 77, 121
1, 12756, Note_on_c, 0, 76, 123
1, 12841, Note_off_c, 0, 76, 123
1, 12849, Note_on_c, 0, 75, 116
1, 12943, Note_off_c, 0, 75, 116
1, 12973, Note_on_c, 0, 69, 101
1, 13078, Note_off_c, 0, 69, 101
1, 13083, Note_on_c, 0, 66, 97
1, 13246, Note_off_c, 0, 66, 97
1, 13727, Note_on_c, 0, 74, 114
1, 13846, Note_off_c, 0, 74, 114
1, 13857, Note_on_c, 0, 73, 115
1, 13956, Note_off_c, 0, 73, 115
1, 13964, Note_on_c, 0, 72, 117
1, 14080, Note_off_c, 0, 72, 117
1, 14088, Note_on_c, 0, 71, 113
1, 14187, Note_off_c, 0, 71, 113
1, 14189, Note_on_c, 0, 70, 107
1, 14269, Note_off_c, 0, 70, 107
1, 14274, Note_on_c, 0, 69, 107
1, 14365, Note_off_c, 0, 69, 107
1, 14373, Note_on_c, 0, 67, 101
1, 14450, Note_off_c, 0, 67, 101
1, 14455, Note_on_c, 0, 65, 98
1, 14529, Note_off_c, 0, 65, 98
1, 14531, Note_on_c, 0, 64, 96
1, 14602, Note_off_c, 0, 64, 96
1, 14607, Note_on_c, 0, 63, 94
1, 14695, Note_off_c, 0, 63, 94
1, 14717, Note_on_c, 0, 62, 98
1, 14805, Note_off_c, 0, 62, 98
1, 14813, Note_on_c, 0, 60, 87
1, 14890, Note_off_c, 0, 60, 87
1, 14901, Note_on_c, 0, 58, 84
1, 15044, Note_off_c, 0, 58, 84
1, 15110, Note_on_c, 0, 60, 90
1, 15217, Note_off_c, 0, 60, 90
1, 15236, Note_on_c, 0, 57, 78
1, 15305, Note_off_c, 0, 57, 78
1, 15321, Note_on_c, 0, 58, 77
1, 15402, Note_off_c, 0, 58, 77
1, 15409, Note_on_c, 0, 60, 83
1, 15494, Note_off_c, 0, 60, 83
1, 15494, Note_on_c, 0, 62, 93
1, 15564, Note_off_c, 0, 62, 93
1, 15587, Note_on_c, 0, 63, 92
1, 15676, Note_off_c, 0, 63, 92
1, 15691, Note_on_c, 0, 65, 103
1, 15790, Note_off_c, 0, 65, 103
1, 15790, Note_on_c, 0, 67, 100
1, 15881, Note_off_c, 0, 67, 100
1, 15903, Note_on_c, 0, 69, 100
1, 16010, Note_off_c, 0, 69, 100
1, 16015, Note_on_c, 0, 70, 91
1, 16075, Note_off_c, 0, 70, 91
1, 16094, Note_on_c, 0, 72, 104
1, 16204, Note_off_c, 0, 72, 104
1, 16209, Note_on_c, 0, 70, 100
1, 16305, Note_off_c, 0, 70, 100
1, 16324, Note_on_c, 0, 69, 97
1, 16393, Note_off_c, 0, 69, 97
1, 16398, Note_on_c, 0, 70, 97
1, 16492, Note_off_c, 0, 70, 97
1, 16505, Note_on_c, 0, 76, 113
1, 16604, Note_off_c, 0, 76, 113
1, 16670, Note_on_c, 0, 78, 108
1, 16866, Note_off_c, 0, 78, 108
1, 17421, Note_on_c, 0, 66, 105
1, 17518, Note_off_c, 0, 66, 105
1, 17545, Note_on_c, 0, 68, 90
1, 17599, Note_off_c, 0, 68, 90
1, 17606, Note_on_c, 0, 70, 103
1, 17687, Note_off_c, 0, 70, 103
1, 17710, Note_on_c, 0, 72, 107
1, 17807, Note_off_c, 0, 72, 107
1, 17830, Note_on_c, 0, 74, 113
1, 17915, Note_off_c, 0, 74, 113
1, 18012, Note_on_c, 0, 75, 101
1, 18167, Note_off_c, 0, 75, 101
1, 18221, Note_on_c, 0, 76, 93
1, 18427, Note_off_c, 0, 76, 93
1, 19680, Note_on_c, 0, 77, 121
1, 19866, Note_off_c, 0, 77, 121
1, 19885, Note_on_c, 0, 78, 120
1, 19997, Note_off_c, 0, 78, 120
1, 20008, Note_on_c, 0, 77, 113
1, 20144, Note_off_c, 0, 77, 113
1, 20439, Note_on_c, 0, 75, 104
1, 20559, Note_off_c, 0, 75, 104
1, 20574, Note_on_c, 0, 70, 109
1, 20659, Note_off_c, 0, 70, 109
1, 20674, Note_on_c, 0, 66, 95
1, 20775, Note_off_c, 0, 66, 95
1, 20783, Note_on_c, 0, 65, 93
1, 20856, Note_off_c, 0, 65, 93
1, 20866, Note_on_c, 0, 63, 100
1, 20955, Note_off_c, 0, 63, 100
1, 20960, Note_on_c, 0, 65, 88
1, 21263, Note_off_c, 0, 65, 88
1, 21733, Note_on_c, 0, 65, 106
1, 21834, Note_off_c, 0, 65, 106
1, 21841, Note_on_c, 0, 67, 96
1, 21907, Note_off_c, 0, 67, 96
1, 21910, Note_on_c, 0, 69, 103
1, 22030, Note_off_c, 0, 69, 103
1, 22037, Note_on_c, 0, 72, 122
1, 22138, Note_off_c, 0, 72, 122
1, 22157, Note_on_c, 0, 70, 118
1, 22227, Note_off_c, 0, 70, 118
1, 22234, Note_on_c, 0, 69, 103
1, 22307, Note_off_c, 0, 69, 103
1, 22322, Note_on_c, 0, 70, 97
1, 22403, Note_off_c, 0, 70, 97
1, 22410, Note_on_c, 0, 74, 116
1, 22503, Note_off_c, 0, 74, 116
1, 22530, Note_on_c, 0, 65, 104
1, 22603, Note_off_c, 0, 65, 104
1, 22606, Note_on_c, 0, 67, 90
1, 22672, Note_off_c, 0, 67, 90
1, 22691, Note_on_c, 0, 69, 91
1, 22784, Note_off_c, 0, 69, 91
1, 22795, Note_on_c, 0, 70, 114
1, 22868, Note_off_c, 0, 70, 114
1, 22871, Note_on_c, 0, 67, 105
1, 22956, Note_off_c, 0, 67, 105
1, 22971, Note_on_c, 0, 63, 84
1, 23068, Note_off_c, 0, 63, 84
1, 23071, Note_on_c, 0, 60, 78
1, 23141, Note_off_c, 0, 60, 78
1, 23141, Note_on_c, 0, 69, 113
1, 23249, Note_off_c, 0, 69, 113
1, 23264, Note_on_c, 0, 70, 101
1, 23334, Note_off_c, 0, 70, 101
1, 23341, Note_on_c, 0, 72, 116
1, 23442, Note_off_c, 0, 72, 116
1, 23445, Note_on_c, 0, 71, 111
1, 23534, Note_off_c, 0, 71, 111
1, 23553, Note_on_c, 0, 70, 108
1, 23634, Note_off_c, 0, 70, 108
1, 23657, Note_on_c, 0, 66, 111
1, 23727, Note_off_c, 0, 66, 111
1, 23742, Note_on_c, 0, 64, 90
1, 23823, Note_off_c, 0, 64, 90
1, 23842, Note_on_c, 0, 60, 83
1, 23935, Note_off_c, 0, 60, 83
1, 23938, Note_on_c, 0, 69, 99
1, 24105, Note_off_c, 0, 69, 99
1, 24189, Note_on_c, 0, 69, 85
1, 24317, Note_off_c, 0, 69, 85
1, 24882, Note_on_c, 0, 67, 111
1, 24965, Note_off_c, 0, 67, 111
1, 24990, Note_on_c, 0, 69, 112
1, 25059, Note_off_c, 0, 69, 112
1, 25063, Note_on_c, 0, 70, 109
1, 25193, Note_off_c, 0, 70, 109
1, 25193, Note_on_c, 0, 67, 97
1, 25264, Note_off_c, 0, 67, 97
1, 25272, Note_on_c, 0, 69, 82
1, 25330, Note_off_c, 0, 69, 82
1, 25349, Note_on_c, 0, 70, 94
1, 25434, Note_off_c, 0, 70, 94
1, 25450, Note_on_c, 0, 72, 115
1, 25530, Note_off_c, 0, 72, 115
1, 25541, Note_on_c, 0, 70, 107
1, 25618, Note_off_c, 0, 70, 107
1, 25623, Note_on_c, 0, 69, 99
1, 25703, Note_off_c, 0, 69, 99
1, 25725, Note_on_c, 0, 70, 94
1, 25774, Note_off_c, 0, 70, 94
1, 25793, Note_on_c, 0, 74, 111
1, 25884, Note_off_c, 0, 74, 111
1, 25942, Note_on_c, 0, 65, 97
1, 26130, Note_off_c, 0, 65, 97
1, 26204, Note_on_c, 0, 65, 77
1, 26328, Note_off_c, 0, 65, 77
1, 26925, Note_on_c, 0, 73, 110
1, 27033, Note_off_c, 0, 73, 110
1, 27037, Note_on_c, 0, 68, 102
1, 27114, Note_off_c, 0, 68, 102
1, 27121, Note_on_c, 0, 64, 90
1, 27219, Note_off_c, 0, 64, 90
1, 27241, Note_on_c, 0, 60, 83
1, 27303, Note_off_c, 0, 60, 83
1, 27318, Note_on_c, 0, 61, 88
1, 27380, Note_off_c, 0, 61, 88
1, 27403, Note_on_c, 0, 64, 84
1, 27476, Note_off_c, 0, 64, 84
1, 27495, Note_on_c, 0, 66, 104
1, 27588, Note_off_c, 0, 66, 104
1, 27603, Note_on_c, 0, 67, 98
1, 27657, Note_on_c, 0, 70, 103
1, 27657, Note_off_c, 0, 67, 98
1, 27703, Note_off_c, 0, 70, 103
1, 27703, Note_on_c, 0, 75, 113
1, 27843, Note_off_c, 0, 75, 113
1, 27870, Note_on_c, 0, 73, 110
1, 27928, Note_off_c, 0, 73, 110
1, 27947, Note_on_c, 0, 72, 107
1, 28044, Note_off_c, 0, 72, 107
1, 28059, Note_on_c, 0, 70, 102
1, 28113, Note_off_c, 0, 70, 102
1, 28116, Note_on_c, 0, 69, 101
1, 28193, Note_off_c, 0, 69, 101
1, 28196, Note_on_c, 0, 67, 97
1, 28273, Note_off_c, 0, 67, 97
1, 28280, Note_on_c, 0, 66, 97
1, 28365, Note_off_c, 0, 66, 97
1, 28384, Note_on_c, 0, 64, 95
1, 28469, Note_off_c, 0, 64, 95
1, 28478, Note_on_c, 0, 63, 94
1, 28590, Note_off_c, 0, 63, 94
1, 28608, Note_on_c, 0, 66, 93
1, 28681, Note_off_c, 0, 66, 93
1, 28684, Note_on_c, 0, 71, 103
1, 28777, Note_off_c, 0, 71, 103
1, 28780, Note_on_c, 0, 66, 97
1, 28850, Note_off_c, 0, 66, 97
1, 28873, Note_on_c, 0, 68, 91
1, 28911, Note_off_c, 0, 68, 91
1, 28918, Note_on_c, 0, 70, 89
1, 28956, Note_off_c, 0, 70, 89
1, 28979, Note_on_c, 0, 73, 113
1, 29076, Note_off_c, 0, 73, 113
1, 29099, Note_on_c, 0, 71, 111
1, 29188, Note_off_c, 0, 71, 111
1, 29191, Note_on_c, 0, 70, 98
1, 29249, Note_off_c, 0, 70, 98
1, 29256, Note_on_c, 0, 68, 105
1, 29353, Note_off_c, 0, 68, 105
1, 29360, Note_on_c, 0, 66, 102
1, 29453, Note_off_c, 0, 66, 102
1, 29460, Note_on_c, 0, 64, 98
1, 29545, Note_off_c, 0, 64, 98
1, 29556, Note_on_c, 0, 63, 96
1, 29657, Note_off_c, 0, 63, 96
1, 29668, Note_on_c, 0, 61, 92
1, 29738, Note_off_c, 0, 61, 92
1, 29761, Note_on_c, 0, 59, 90
1, 29862, Note_off_c, 0, 59, 90
1, 29869, Note_on_c, 0, 58, 84
1, 29946, Note_off_c, 0, 58, 84
1, 29973, Note_on_c, 0, 57, 89
1, 30118, Note_off_c, 0, 57, 89
1, 30140, Note_on_c, 0, 62, 96
1, 30229, Note_off_c, 0, 62, 96
1, 30229, Note_on_c, 0, 66, 101
1, 30310, Note_off_c, 0, 66, 101
1, 30333, Note_on_c, 0, 69, 112
1, 30445, Note_off_c, 0, 69, 112
1, 30464, Note_on_c, 0, 66, 96
1, 30724, Note_off_c, 0, 66, 96
1, 30735, Note_on_c, 0, 68, 105
1, 30843, Note_off_c, 0, 68, 105
1, 30866, Note_on_c, 0, 66, 94
1, 31087, Note_off_c, 0, 66, 94
1, 31114, Note_on_c, 0, 64, 93
1, 31296, Note_off_c, 0, 64, 93
1, 31358, Note_on_c, 0, 66, 97
1, 31544, Note_off_c, 0, 66, 97
1, 31555, Note_on_c, 0, 64, 88
1, 31827, Note_off_c, 0, 64, 88
1, 31858, Note_on_c, 0, 68, 89
1, 32134, Note_off_c, 0, 68, 89
1, 32149, Note_on_c, 0, 64, 75
1, 32207, Note_off_c, 0, 64, 75
1, 32222, Note_on_c, 0, 66, 91
1, 32521, Note_off_c, 0, 66, 91
1, 33552, Note_on_c, 0, 71, 102
1, 33625, Note_off_c, 0, 71, 102
1, 33644, Note_on_c, 0, 72, 106
1, 33717, Note_off_c, 0, 72, 106
1, 33736, Note_on_c, 0, 76, 118
1, 33852, Note_off_c, 0, 76, 118
1, 33879, Note_on_c, 0, 67, 106
1, 33945, Note_off_c, 0, 67, 106
1, 33960, Note_on_c, 0, 69, 97
1, 34041, Note_off_c, 0, 69, 97
1, 34060, Note_on_c, 0, 71, 102
1, 34122, Note_off_c, 0, 71, 102
1, 34141, Note_on_c, 0, 74, 112
1, 34249, Note_off_c, 0, 74, 112
1, 34256, Note_on_c, 0, 72, 112
1, 34353, Note_off_c, 0, 72, 112
1, 34364, Note_on_c, 0, 71, 111
1, 34445, Note_off_c, 0, 71, 111
1, 34445, Note_on_c, 0, 69, 100
1, 34511, Note_off_c, 0, 69, 100
1, 34518, Note_on_c, 0, 67, 103
1, 34626, Note_off_c, 0, 67, 103
1, 34633, Note_on_c, 0, 66, 91
1, 34726, Note_off_c, 0, 66, 91
1, 34741, Note_on_c, 0, 69, 111
1, 34791, Note_off_c, 0, 69, 111
1, 34818, Note_on_c, 0, 66, 99
1, 34903, Note_off_c, 0, 66, 99
1, 34914, Note_on_c, 0, 67, 93
1, 34972, Note_off_c, 0, 67, 93
1, 35003, Note_on_c, 0, 69, 97
1, 35061, Note_off_c, 0, 69, 97
1, 35076, Note_on_c, 0, 71, 92
1, 35134, Note_off_c, 0, 71, 92
1, 35165, Note_on_c, 0, 72, 90
1, 35250, Note_off_c, 0, 72, 90
1, 35265, Note_on_c, 0, 74, 114
1, 35370, Note_off_c, 0, 74, 114
1, 35373, Note_on_c, 0, 73, 106
1, 35458, Note_off_c, 0, 73, 106
1, 35458, Note_on_c, 0, 72, 112
1, 35547, Note_off_c, 0, 72, 112
1, 35562, Note_on_c, 0, 71, 110
1, 35655, Note_off_c, 0, 71, 110
1, 35662, Note_on_c, 0, 69, 103
1, 35735, Note_off_c, 0, 69, 103
1, 35738, Note_on_c, 0, 67, 98
1, 35843, Note_off_c, 0, 67, 98
1, 35846, Note_on_c, 0, 66, 95
1, 35927, Note_off_c, 0, 66, 95
1, 35942, Note_on_c, 0, 67, 88
1, 36019, Note_off_c, 0, 67, 88
1, 36034, Note_on_c, 0, 69, 115
1, 36115, Note_off_c, 0, 69, 115
1, 36134, Note_on_c, 0, 66, 109
1, 36219, Note_off_c, 0, 66, 109
1, 36226, Note_on_c, 0, 67, 110
1, 36307, Note_off_c, 0, 67, 110
1, 36317, Note_on_c, 0, 70, 101
1, 36360, Note_off_c, 0, 70, 101
1, 36369, Note_on_c, 0, 74, 110
1, 36423, Note_off_c, 0, 74, 110
1, 36434, Note_on_c, 0, 77, 117
1, 36523, Note_off_c, 0, 77, 117
1, 36538, Note_on_c, 0, 76, 126
1, 36588, Note_off_c, 0, 76, 126
1, 36603, Note_on_c, 0, 75, 119
1, 36684, Note_off_c, 0, 75, 119
1, 36684, Note_on_c, 0, 73, 120
1, 36773, Note_off_c, 0, 73, 120
1, 36796, Note_on_c, 0, 72, 110
1, 36897, Note_off_c, 0, 72, 110
1, 36908, Note_on_c, 0, 70, 101
1, 36970, Note_off_c, 0, 70, 101
1, 36985, Note_on_c, 0, 69, 102
1, 37062, Note_off_c, 0, 69, 102
1, 37073, Note_on_c, 0, 67, 101
1, 37131, Note_off_c, 0, 67, 101
1, 37150, Note_on_c, 0, 65, 98
1, 37251, Note_off_c, 0, 65, 98
1, 37258, Note_on_c, 0, 64, 92
1, 37343, Note_off_c, 0, 64, 92
1, 37354, Note_on_c, 0, 63, 97
1, 37435, Note_off_c, 0, 63, 97
1, 37438, Note_on_c, 0, 65, 109
1, 37531, Note_off_c, 0, 65, 109
1, 37558, Note_on_c, 0, 66, 104
1, 37670, Note_off_c, 0, 66, 104
1, 37673, Note_on_c, 0, 69, 107
1, 37731, Note_off_c, 0, 69, 107
1, 37746, Note_on_c, 0, 72, 111
1, 37827, Note_off_c, 0, 72, 111
1, 37835, Note_on_c, 0, 77, 98
1, 38115, Note_off_c, 0, 77, 98
1, 38125, Note_on_c, 0, 72, 108
1, 38202, Note_off_c, 0, 72, 108
1, 38205, Note_on_c, 0, 77, 91
1, 38528, Note_off_c, 0, 77, 91
1, 39403, Note_on_c, 0, 74, 114
1, 39504, Note_off_c, 0, 74, 114
1, 39507, Note_on_c, 0, 75, 114
1, 39600, Note_off_c, 0, 75, 114
1, 39600, Note_on_c, 0, 74, 118
1, 39693, Note_off_c, 0, 74, 118
1, 39708, Note_on_c, 0, 72, 111
1, 39801, Note_off_c, 0, 72, 111
1, 39816, Note_on_c, 0, 70, 108
1, 39878, Note_off_c, 0, 70, 108
1, 39881, Note_on_c, 0, 69, 101
1, 39954, Note_off_c, 0, 69, 101
1, 39973, Note_on_c, 0, 72, 114
1, 40097, Note_off_c, 0, 72, 114
1, 40116, Note_on_c, 0, 69, 113
1, 40197, Note_off_c, 0, 69, 113
1, 40200, Note_on_c, 0, 70, 97
1, 40258, Note_off_c, 0, 70, 97
1, 40269, Note_on_c, 0, 72, 89
1, 40339, Note_off_c, 0, 72, 89
1, 40346, Note_on_c, 0, 74, 111
1, 40439, Note_off_c, 0, 74, 111
1, 40470, Note_on_c, 0, 75, 110
1, 40551, Note_off_c, 0, 75, 110
1, 40562, Note_on_c, 0, 77, 122
1, 40698, Note_off_c, 0, 77, 122
1, 40701, Note_on_c, 0, 76, 118
1, 40786, Note_off_c, 0, 76, 118
1, 40801, Note_on_c, 0, 75, 113
1, 40882, Note_off_c, 0, 75, 113
1, 40889, Note_on_c, 0, 74, 116
1, 40966, Note_off_c, 0, 74, 116
1, 40981, Note_on_c, 0, 72, 104
1, 41051, Note_off_c, 0, 72, 104
1, 41070, Note_on_c, 0, 70, 107
1, 41140, Note_off_c, 0, 70, 107
1, 41155, Note_on_c, 0, 69, 98
1, 41240, Note_off_c, 0, 69, 98
1, 41251, Note_on_c, 0, 70, 97
1, 41305, Note_off_c, 0, 70, 97
1, 41320, Note_on_c, 0, 72, 114
1, 41417, Note_off_c, 0, 72, 114
1, 41436, Note_on_c, 0, 65, 104
1, 41506, Note_off_c, 0, 65, 104
1, 41533, Note_on_c, 0, 67, 95
1, 41626, Note_off_c, 0, 67, 95
1, 41633, Note_on_c, 0, 68, 98
1, 41710, Note_off_c, 0, 68, 98
1, 41713, Note_on_c, 0, 70, 115
1, 41806, Note_off_c, 0, 70, 115
1, 41821, Note_on_c, 0, 69, 111
1, 41894, Note_off_c, 0, 69, 111
1, 41909, Note_on_c, 0, 68, 99
1, 41986, Note_off_c, 0, 68, 99
1, 41993, Note_on_c, 0, 67, 94
1, 42086, Note_off_c, 0, 67, 94
1, 42093, Note_on_c, 0, 65, 99
1, 42205, Note_off_c, 0, 65, 99
1, 42208, Note_on_c, 0, 63, 87
1, 42281, Note_off_c, 0, 63, 87
1, 42296, Note_on_c, 0, 62, 88
1, 42408, Note_off_c, 0, 62, 88
1, 42472, Note_on_c, 0, 65, 95
1, 42671, Note_off_c, 0, 65, 95
1, 42720, Note_on_c, 0, 65, 81
1, 42854, Note_off_c, 0, 65, 81
1, 43659, Note_on_c, 0, 77, 117
1, 43748, Note_off_c, 0, 77, 117
1, 43759, Note_on_c, 0, 76, 116
1, 43829, Note_off_c, 0, 76, 116
1, 43841, Note_on_c, 0, 75, 114
1, 43973, Note_off_c, 0, 75, 114
1, 44003, Note_on_c, 0, 66, 105
1, 44069, Note_off_c, 0, 66, 105
1, 44084, Note_on_c, 0, 65, 102
1, 44270, Note_off_c, 0, 65, 102
1, 44289, Note_on_c, 0, 63, 91
1, 44355, Note_off_c, 0, 63, 91
1, 44382, Note_on_c, 0, 65, 101
1, 44716, Note_off_c, 0, 65, 101
1, 44723, Note_on_c, 0, 63, 95
1, 44793, Note_off_c, 0, 63, 95
1, 44820, Note_on_c, 0, 65, 108
1, 44921, Note_off_c, 0, 65, 108
1, 44928, Note_on_c, 0, 63, 93
1, 44994, Note_off_c, 0, 63, 93
1, 45017, Note_on_c, 0, 58, 78
1, 45106, Note_off_c, 0, 58, 78
1, 45109, Note_on_c, 0, 60, 83
1, 45175, Note_off_c, 0, 60, 83
1, 45200, Note_on_c, 0, 62, 93
1, 45374, Note_off_c, 0, 62, 93
1, 45460, Note_on_c, 0, 62, 87
1, 45539, Note_off_c, 0, 62, 87
1, 46142, Note_on_c, 0, 65, 112
1, 46243, Note_off_c, 0, 65, 112
1, 46250, Note_on_c, 0, 67, 104
1, 46308, Note_off_c, 0, 67, 104
1, 46323, Note_on_c, 0, 69, 105
1, 46400, Note_off_c, 0, 69, 105
1, 46419, Note_on_c, 0, 70, 103
1, 46504, Note_off_c, 0, 70, 103
1, 46519, Note_on_c, 0, 72, 114
1, 46631, Note_off_c, 0, 72, 114
1, 46642, Note_on_c, 0, 70, 114
1, 46712, Note_off_c, 0, 70, 114
1, 46727, Note_on_c, 0, 69, 101
1, 46804, Note_off_c, 0, 69, 101
1, 46819, Note_on_c, 0, 70, 99
1, 46900, Note_off_c, 0, 70, 99
1, 46900, Note_on_c, 0, 64, 112
1, 46966, Note_off_c, 0, 64, 112
1, 46985, Note_on_c, 0, 66, 106
1, 47093, Note_off_c, 0, 66, 106
1, 47112, Note_on_c, 0, 67, 96
1, 47189, Note_off_c, 0, 67, 96
1, 47192, Note_on_c, 0, 69, 86
1, 47269, Note_off_c, 0, 69, 86
1, 47280, Note_on_c, 0, 73, 116
1, 47373, Note_off_c, 0, 73, 116
1, 47400, Note_on_c, 0, 68, 108
1, 47477, Note_off_c, 0, 68, 108
1, 47500, Note_on_c, 0, 64, 88
1, 47562, Note_off_c, 0, 64, 88
1, 47589, Note_on_c, 0, 60, 81
1, 47651, Note_off_c, 0, 60, 81
1, 47678, Note_on_c, 0, 70, 108
1, 47857, Note_off_c, 0, 70, 108
1, 47868, Note_on_c, 0, 69, 104
1, 47980, Note_off_c, 0, 69, 104
1, 47983, Note_on_c, 0, 67, 102
1, 48076, Note_off_c, 0, 67, 102
1, 48087, Note_on_c, 0, 65, 100
1, 48180, Note_off_c, 0, 65, 100
1, 48183, Note_on_c, 0, 63, 93
1, 48260, Note_off_c, 0, 63, 93
1, 48276, Note_on_c, 0, 62, 80
1, 48479, Note_off_c, 0, 62, 80
1, 48507, Note_on_c, 0, 62, 81
1, 48616, Note_off_c, 0, 62, 81
1, 49168, Note_on_c, 0, 62, 105
1, 49280, Note_off_c, 0, 62, 105
1, 49295, Note_on_c, 0, 60, 90
1, 49365, Note_off_c, 0, 60, 90
1, 49368, Note_on_c, 0, 62, 107
1, 49457, Note_off_c, 0, 62, 107
1, 49466, Note_on_c, 0, 60, 97
1, 49576, Note_off_c, 0, 60, 97
1, 49582, Note_on_c, 0, 58, 88
1, 49737, Note_off_c, 0, 58, 88
1, 49773, Note_on_c, 0, 60, 101
1, 49885, Note_off_c, 0, 60, 101
1, 49908, Note_on_c, 0, 57, 85
1, 49989, Note_off_c, 0, 57, 85
1, 50004, Note_on_c, 0, 58, 76
1, 50074, Note_off_c, 0, 58, 76
1, 50077, Note_on_c, 0, 60, 85
1, 50158, Note_off_c, 0, 60, 85
1, 50181, Note_on_c, 0, 62, 97
1, 50254, Note_off_c, 0, 62, 97
1, 50277, Note_on_c, 0, 63, 95
1, 50370, Note_off_c, 0, 63, 95
1, 50381, Note_on_c, 0, 65, 111
1, 50474, Note_off_c, 0, 65, 111
1, 50489, Note_on_c, 0, 64, 101
1, 50566, Note_off_c, 0, 64, 101
1, 50577, Note_on_c, 0, 63, 101
1, 50666, Note_off_c, 0, 63, 101
1, 50669, Note_on_c, 0, 62, 96
1, 50742, Note_off_c, 0, 62, 96
1, 50753, Note_on_c, 0, 60, 92
1, 50838, Note_off_c, 0, 60, 92
1, 50849, Note_on_c, 0, 58, 90
1, 50946, Note_off_c, 0, 58, 90
1, 50961, Note_on_c, 0, 57, 88
1, 51027, Note_off_c, 0, 57, 88
1, 51038, Note_on_c, 0, 58, 81
1, 51133, Note_off_c, 0, 58, 81
1, 51138, Note_on_c, 0, 60, 87
1, 51254, Note_off_c, 0, 60, 87
1, 51257, Note_on_c, 0, 62, 90
1, 51346, Note_off_c, 0, 62, 90
1, 51377, Note_on_c, 0, 58, 86
1, 51602, Note_off_c, 0, 58, 86
1, 51602, End_track
0, 0, End_of_file
