0, 0, Header, 1, 1, 192
1, 0, Start_track
1, 0, Title_t, "Melody"
1, 0, Tempo, 431654
1, 0, Key_signature, 6, "major"
1, 0, Time_signature, 4, 2, 24, 8
1, 2304, Note_on_c, 0, 70, 110
1, 2368, Note_off_c, 0, 70, 110
1, 2986, Note_on_c, 0, 69, 88
1, 3022, Note_off_c, 0, 69, 88
1, 3068, Note_on_c, 0, 70, 89
1, 3114, Note_off_c, 0, 70, 89
1, 3163, Note_on_c, 0, 71, 118
1, 3210, Note_off_c, 0, 71, 118
1, 3223, Note_on_c, 0, 70, 110
1, 3260, Note_on_c, 0, 71, 107
1, 3260, Note_off_c, 0, 70, 110
1, 3326, Note_off_c, 0, 71, 107
1, 3342, Note_on_c, 0, 70, 105
1, 3426, Note_off_c, 0, 70, 105
1, 3435, Note_on_c, 0, 67, 106
1, 3487, Note_off_c, 0, 67, 106
1, 3546, Note_on_c, 0, 69, 109
1, 3601, Note_off_c, 0, 69, 109
1, 3601, Note_on_c, 0, 68, 102
1, 3660, Note_off_c, 0, 68, 102
1, 3670, Note_on_c, 0, 69, 102
1, 3728, Note_off_c, 0, 69, 102
1, 3749, Note_on_c, 0, 68, 84
1, 3788, Note_off_c, 0, 68, 84
1, 4468, Note_on_c, 0, 67, 110
1, 4581, Note_off_c, 0, 67, 110
1, 4581, Note_on_c, 0, 62, 84
1, 4844, Note_off_c, 0, 62, 84
1, 5178, Note_on_c, 0, 64, 76
1, 5201, Note_off_c, 0, 64, 76
1, 5257, Note_on_c, 0, 68, 82
1, 5515, Note_off_c, 0, 68, 82
1, 6030, Note_on_c, 0, 70, 105
1, 6067, Note_off_c, 0, 70, 105
1, 6122, Note_on_c, 0, 71, 117
1, 6160, Note_off_c, 0, 71, 117
1, 6247, Note_on_c, 0, 68, 112
1, 6357, Note_off_c, 0, 68, 112
1, 6422, Note_on_c, 0, 63, 102
1, 6499, Note_off_c, 0, 63, 102
1, 6510, Note_on_c, 0, 59, 100
1, 6593, Note_off_c, 0, 59, 100
1, 6607, Note_on_c, 0, 58, 88
1, 6941, Note_off_c, 0, 58, 88
1, 7557, Note_on_c, 0, 73, 119
1, 7597, Note_off_c, 0, 73, 119
1, 7604, Note_on_c, 0, 71, 116
1, 7650, Note_off_c, 0, 71, 116
1, 7653, Note_on_c, 0, 73, 107
1, 7699, Note_off_c, 0, 73, 107
1, 7699, Note_on_c, 0, 71, 118
1, 7737, Note_off_c, 0, 71, 118
1, 7737, Note_on_c, 0, 73, 118
1, 7778, Note_off_c, 0, 73, 118
1, 7778, Note_on_c, 0, 71, 106
1, 7832, Note_off_c, 0, 71, 106
1, 7832, Note_on_c, 0, 66, 100
1, 7882, Note_off_c, 0, 66, 100
1, 7882, Note_on_c, 0, 68, 107
1, 7927, Note_off_c, 0, 68, 107
1, 7927, Note_on_c, 0, 70, 112
1, 7988, Note_off_c, 0, 70, 112
1, 8026, Note_on_c, 0, 68, 109
1, 8055, Note_off_c, 0, 68, 109
1, 8055, Note_on_c, 0, 70, 108
1, 8085, Note_off_c, 0, 70, 108
1, 8106, Note_on_c, 0, 66, 120
1, 8171, Note_off_c, 0, 66, 120
1, 8171, Note_on_c, 0, 68, 108
1, 8220, Note_off_c, 0, 68, 108
1, 8222, Note_on_c, 0, 70, 105
1, 8273, Note_off_c, 0, 70, 105
1, 8279, Note_on_c, 0, 66, 108
1, 8341, Note_off_c, 0, 66, 108
1, 8341, Note_on_c, 0, 65, 112
1, 8431, Note_off_c, 0, 65, 112
1, 8437, Note_on_c, 0, 63, 93
1, 8563, Note_off_c, 0, 63, 93
1, 9083, Note_on_c, 0, 69, 78
1, 9110, Note_off_c, 0, 69, 78
1, 9144, Note_on_c, 0, 70, 107
1, 9217, Note_off_c, 0, 70, 107
1, 9231, Note_on_c, 0, 71, 121
1, 9311, Note_off_c, 0, 71, 121
1, 9324, Note_on_c, 0, 71, 122
1, 9416, Note_off_c, 0, 71, 122
1, 9421, Note_on_c, 0, 70, 122
1, 9508, Note_off_c, 0, 70, 122
1, 9516, Note_on_c, 0, 66, 106
1, 9569, Note_off_c, 0, 66, 106
1, 9635, Note_on_c, 0, 69, 116
1, 9705, Note_off_c, 0, 69, 116
1, 9711, Note_on_c, 0, 70, 117
1, 9814, Note_off_c, 0, 70, 117
1, 9814, Note_on_c, 0, 72, 100
1, 9903, Note_off_c, 0, 72, 100
1, 9903, Note_on_c, 0, 74, 118
1, 9999, Note_off_c, 0, 74, 118
1, 9999, Note_on_c, 0, 67, 95
1, 10091, Note_off_c, 0, 67, 95
1, 10103, Note_on_c, 0, 69, 119
1, 10195, Note_off_c, 0, 69, 119
1, 10195, Note_on_c, 0, 62, 107
1, 10233, Note_off_c, 0, 62, 107
1, 10301, Note_on_c, 0, 67, 118
1, 10399, Note_off_c, 0, 67, 118
1, 10406, Note_on_c, 0, 62, 92
1, 10495, Note_off_c, 0, 62, 92
1, 10498, Note_on_c, 0, 64, 112
1, 10565, Note_off_c, 0, 64, 112
1, 10571, Note_on_c, 0, 60, 89
1, 10658, Note_off_c, 0, 60, 89
1, 10679, Note_on_c, 0, 62, 109
1, 10760, Note_off_c, 0, 62, 109
1, 10779, Note_on_c, 0, 57, 95
1, 10959, Note_off_c, 0, 57, 95
1, 11546, Note_on_c, 0, 73, 122
1, 11620, Note_off_c, 0, 73, 122
1, 11645, Note_on_c, 0, 76, 117
1, 11717, Note_off_c, 0, 76, 117
1, 11726, Note_on_c, 0, 71, 119
1, 11826, Note_off_c, 0, 71, 119
1, 11831, Note_on_c, 0, 69, 118
1, 11907, Note_off_c, 0, 69, 118
1, 11926, Note_on_c, 0, 68, 115
1, 12011, Note_off_c, 0, 68, 115
1, 12011, Note_on_c, 0, 71, 122
1, 12088, Note_off_c, 0, 71, 122
1, 12113, Note_on_c, 0, 65, 114
1, 12200, Note_off_c, 0, 65, 114
1, 12240, Note_on_c, 0, 61, 104
1, 12290, Note_off_c, 0, 61, 104
1, 12295, Note_on_c, 0, 64, 111
1, 12496, Note_off_c, 0, 64, 111
1, 12496, Note_on_c, 0, 62, 95
1, 12524, Note_off_c, 0, 62, 95
1, 12524, Note_on_c, 0, 64, 106
1, 12549, Note_off_c, 0, 64, 106
1, 12549, Note_on_c, 0, 62, 103
1, 12679, Note_off_c, 0, 62, 103
1, 12705, Note_on_c, 0, 63, 111
1, 12854, Note_off_c, 0, 63, 111
1, 12854, Note_on_c, 0, 60, 105
1, 12974, Note_off_c, 0, 60, 105
1, 12975, Note_on_c, 0, 58, 95
1, 13256, Note_off_c, 0, 58, 95
1, 14195, Note_on_c, 0, 72, 121
1, 14259, Note_off_c, 0, 72, 121
1, 14293, Note_on_c, 0, 73, 122
1, 14360, Note_off_c, 0, 73, 122
1, 14376, Note_on_c, 0, 77, 124
1, 14443, Note_off_c, 0, 77, 124
1, 14480, Note_on_c, 0, 80, 123
1, 14552, Note_off_c, 0, 80, 123
1, 14613, Note_on_c, 0, 81, 127
1, 14667, Note_off_c, 0, 81, 127
1, 14678, Note_on_c, 0, 84, 122
1, 14839, Note_off_c, 0, 84, 122
1, 14869, Note_on_c, 0, 82, 112
1, 14923, Note_off_c, 0, 82, 112
1, 14937, Note_on_c, 0, 82, 122
1, 14969, Note_off_c, 0, 82, 122
1, 14973, Note_on_c, 0, 80, 120
1, 14993, Note_off_c, 0, 80, 120
1, 14993, Note_on_c, 0, 79, 122
1, 15058, Note_off_c, 0, 79, 122
1, 15069, Note_on_c, 0, 78, 121
1, 15153, Note_off_c, 0, 78, 121
1, 15165, Note_on_c, 0, 77, 122
1, 15239, Note_off_c, 0, 77, 122
1, 15254, Note_on_c, 0, 76, 119
1, 15339, Note_off_c, 0, 76, 119
1, 15359, Note_on_c, 0, 75, 119
1, 15439, Note_off_c, 0, 75, 119
1, 15459, Note_on_c, 0, 72, 120
1, 15536, Note_off_c, 0, 72, 120
1, 15543, Note_on_c, 0, 67, 111
1, 15638, Note_off_c, 0, 67, 111
1, 15650, Note_on_c, 0, 70, 116
1, 15748, Note_off_c, 0, 70, 116
1, 15789, Note_on_c, 0, 67, 113
1, 15848, Note_off_c, 0, 67, 113
1, 15849, Note_on_c, 0, 68, 107
1, 15936, Note_off_c, 0, 68, 107
1, 15979, Note_on_c, 0, 72, 116
1, 16035, Note_off_c, 0, 72, 116
1, 16058, Note_on_c, 0, 75, 121
1, 16117, Note_off_c, 0, 75, 121
1, 16186, Note_on_c, 0, 79, 117
1, 16246, Note_off_c, 0, 79, 117
1, 16250, Note_on_c, 0, 80, 115
1, 16296, Note_off_c, 0, 80, 115
1, 16296, Note_on_c, 0, 81, 120
1, 16357, Note_off_c, 0, 81, 120
1, 16357, Note_on_c, 0, 82, 122
1, 16406, Note_off_c, 0, 82, 122
1, 16406, Note_on_c, 0, 81, 118
1, 16447, Note_off_c, 0, 81, 118
1, 16448, Note_on_c, 0, 80, 120
1, 16524, Note_off_c, 0, 80, 120
1, 16524, Note_on_c, 0, 81, 109
1, 16544, Note_off_c, 0, 81, 109
1, 16544, Note_on_c, 0, 79, 118
1, 16616, Note_off_c, 0, 79, 118
1, 16644, Note_on_c, 0, 78, 119
1, 16722, Note_off_c, 0, 78, 119
1, 16740, Note_on_c, 0, 77, 119
1, 16812, Note_off_c, 0, 77, 119
1, 16828, Note_on_c, 0, 76, 118
1, 16897, Note_off_c, 0, 76, 118
1, 16946, Note_on_c, 0, 75, 118
1, 17020, Note_off_c, 0, 75, 118
1, 17039, Note_on_c, 0, 72, 115
1, 17086, Note_off_c, 0, 72, 115
1, 17126, Note_on_c, 0, 67, 104
1, 17178, Note_on_c, 0, 68, 102
1, 17178, Note_off_c, 0, 67, 104
1, 17232, Note_off_c, 0, 68, 102
1, 17232, Note_on_c, 0, 70, 108
1, 17281, Note_off_c, 0, 70, 108
1, 17298, Note_on_c, 0, 68, 103
1, 17367, Note_off_c, 0, 68, 103
1, 17457, Note_on_c, 0, 68, 90
1, 17576, Note_off_c, 0, 68, 90
1, 17610, Note_on_c, 0, 68, 97
1, 17768, Note_off_c, 0, 68, 97
1, 17772, Note_on_c, 0, 68, 98
1, 17853, Note_off_c, 0, 68, 98
1, 17863, Note_on_c, 0, 68, 105
1, 18007, Note_off_c, 0, 68, 105
1, 18014, Note_on_c, 0, 68, 115
1, 18063, Note_off_c, 0, 68, 115
1, 18070, Note_on_c, 0, 68, 104
1, 18178, Note_off_c, 0, 68, 104
1, 18228, Note_on_c, 0, 70, 113
1, 18297, Note_off_c, 0, 70, 113
1, 18322, Note_on_c, 0, 71, 115
1, 18378, Note_off_c, 0, 71, 115
1, 18401, Note_on_c, 0, 73, 117
1, 18482, Note_off_c, 0, 73, 117
1, 18524, Note_on_c, 0, 74, 116
1, 18585, Note_off_c, 0, 74, 116
1, 18608, Note_on_c, 0, 76, 119
1, 18672, Note_off_c, 0, 76, 119
1, 18708, Note_on_c, 0, 73, 112
1, 18777, Note_off_c, 0, 73, 112
1, 18788, Note_on_c, 0, 71, 115
1, 18864, Note_off_c, 0, 71, 115
1, 18929, Note_on_c, 0, 68, 112
1, 18985, Note_off_c, 0, 68, 112
1, 18985, Note_on_c, 0, 70, 111
1, 19049, Note_off_c, 0, 70, 111
1, 19296, Note_on_c, 0, 73, 121
1, 19360, Note_off_c, 0, 73, 121
1, 19379, Note_on_c, 0, 70, 120
1, 19430, Note_off_c, 0, 70, 120
1, 19484, Note_on_c, 0, 70, 111
1, 19521, Note_off_c, 0, 70, 111
1, 19521, Note_on_c, 0, 68, 117
1, 19554, Note_off_c, 0, 68, 117
1, 19560, Note_on_c, 0, 66, 113
1, 19610, Note_off_c, 0, 66, 113
1, 19657, Note_on_c, 0, 65, 116
1, 19729, Note_off_c, 0, 65, 116
1, 19772, Note_on_c, 0, 63, 115
1, 19818, Note_off_c, 0, 63, 115
1, 19840, Note_on_c, 0, 62, 109
1, 19883, Note_off_c, 0, 62, 109
1, 19889, Note_on_c, 0, 65, 112
1, 19918, Note_off_c, 0, 65, 112
1, 19919, Note_on_c, 0, 68, 112
1, 19949, Note_off_c, 0, 68, 112
1, 19952, Note_on_c, 0, 70, 102
1, 20001, Note_off_c, 0, 70, 102
1, 20029, Note_on_c, 0, 71, 111
1, 20065, Note_off_c, 0, 71, 111
1, 20066, Note_on_c, 0, 73, 106
1, 20106, Note_off_c, 0, 73, 106
1, 20118, Note_on_c, 0, 70, 116
1, 20349, Note_off_c, 0, 70, 116
1, 20408, Note_on_c, 0, 75, 114
1, 20476, Note_off_c, 0, 75, 114
1, 20510, Note_on_c, 0, 70, 92
1, 20544, Note_off_c, 0, 70, 92
1, 21270, Note_on_c, 0, 70, 95
1, 21290, Note_on_c, 0, 72, 105
1, 21290, Note_off_c, 0, 70, 95
1, 21310, Note_on_c, 0, 74, 115
1, 21310, Note_off_c, 0, 72, 105
1, 21340, Note_off_c, 0, 74, 115
1, 21340, Note_on_c, 0, 75, 122
1, 21442, Note_off_c, 0, 75, 122
1, 21443, Note_on_c, 0, 70, 95
1, 21476, Note_off_c, 0, 70, 95
1, 21944, Note_on_c, 0, 77, 117
1, 22047, Note_off_c, 0, 77, 117
1, 22047, Note_on_c, 0, 72, 89
1, 22077, Note_off_c, 0, 72, 89
1, 22790, Note_on_c, 0, 72, 95
1, 22819, Note_off_c, 0, 72, 95
1, 22819, Note_on_c, 0, 74, 106
1, 22840, Note_off_c, 0, 74, 106
1, 22840, Note_on_c, 0, 76, 115
1, 22890, Note_off_c, 0, 76, 115
1, 22890, Note_on_c, 0, 77, 121
1, 22984, Note_off_c, 0, 77, 121
1, 22984, Note_on_c, 0, 72, 89
1, 23016, Note_off_c, 0, 72, 89
1, 23282, Note_on_c, 0, 72, 101
1, 23318, Note_off_c, 0, 72, 101
1, 23360, Note_on_c, 0, 77, 102
1, 23399, Note_off_c, 0, 77, 102
1, 23465, Note_on_c, 0, 76, 117
1, 23552, Note_off_c, 0, 76, 117
1, 23571, Note_on_c, 0, 71, 86
1, 23606, Note_off_c, 0, 71, 86
1, 24118, Note_on_c, 0, 71, 99
1, 24151, Note_off_c, 0, 71, 99
1, 24151, Note_on_c, 0, 73, 122
1, 24198, Note_off_c, 0, 73, 122
1, 24198, Note_on_c, 0, 75, 119
1, 24241, Note_off_c, 0, 75, 119
1, 24241, Note_on_c, 0, 76, 119
1, 24377, Note_off_c, 0, 76, 119
1, 24381, Note_on_c, 0, 71, 98
1, 24409, Note_off_c, 0, 71, 98
1, 24898, Note_on_c, 0, 70, 110
1, 24914, Note_off_c, 0, 70, 110
1, 24914, Note_on_c, 0, 72, 107
1, 24934, Note_off_c, 0, 72, 107
1, 24934, Note_on_c, 0, 74, 115
1, 24972, Note_off_c, 0, 74, 115
1, 24975, Note_on_c, 0, 75, 125
1, 25095, Note_off_c, 0, 75, 125
1, 25113, Note_on_c, 0, 70, 87
1, 25141, Note_off_c, 0, 70, 87
1, 25490, Note_on_c, 0, 68, 95
1, 25511, Note_off_c, 0, 68, 95
1, 25511, Note_on_c, 0, 70, 104
1, 25529, Note_off_c, 0, 70, 104
1, 25529, Note_on_c, 0, 72, 109
1, 25555, Note_off_c, 0, 72, 109
1, 25555, Note_on_c, 0, 74, 123
1, 25591, Note_off_c, 0, 74, 123
1, 25591, Note_on_c, 0, 75, 124
1, 25697, Note_off_c, 0, 75, 124
1, 25700, Note_on_c, 0, 70, 104
1, 25728, Note_off_c, 0, 70, 104
1, 26004, Note_on_c, 0, 68, 93
1, 26020, Note_off_c, 0, 68, 93
1, 26020, Note_on_c, 0, 70, 99
1, 26046, Note_off_c, 0, 70, 99
1, 26046, Note_on_c, 0, 72, 107
1, 26070, Note_off_c, 0, 72, 107
1, 26070, Note_on_c, 0, 74, 122
1, 26117, Note_off_c, 0, 74, 122
1, 26117, Note_on_c, 0, 75, 126
1, 26217, Note_off_c, 0, 75, 126
1, 26223, Note_on_c, 0, 70, 111
1, 26259, Note_off_c, 0, 70, 111
1, 26345, Note_on_c, 0, 70, 110
1, 26385, Note_off_c, 0, 70, 110
1, 26412, Note_on_c, 0, 75, 125
1, 26451, Note_off_c, 0, 75, 125
1, 26451, Note_on_c, 0, 77, 125
1, 26493, Note_off_c, 0, 77, 125
1, 26500, Note_on_c, 0, 78, 54
1, 26543, Note_off_c, 0, 78, 54
1, 26543, Note_on_c, 0, 80, 123
1, 26610, Note_off_c, 0, 80, 123
1, 26611, Note_on_c, 0, 81, 124
1, 26648, Note_off_c, 0, 81, 124
1, 26651, Note_on_c, 0, 82, 125
1, 26726, Note_off_c, 0, 82, 125
1, 26739, Note_on_c, 0, 77, 110
1, 26779, Note_off_c, 0, 77, 110
1, 27367, Note_on_c, 0, 70, 118
1, 27421, Note_off_c, 0, 70, 118
1, 27445, Note_on_c, 0, 75, 123
1, 27504, Note_off_c, 0, 75, 123
1, 27527, Note_on_c, 0, 77, 123
1, 27595, Note_off_c, 0, 77, 123
1, 27631, Note_on_c, 0, 78, 120
1, 27693, Note_off_c, 0, 78, 120
1, 27716, Note_on_c, 0, 80, 119
1, 27791, Note_off_c, 0, 80, 119
1, 27818, Note_on_c, 0, 82, 121
1, 27909, Note_off_c, 0, 82, 121
1, 27912, Note_on_c, 0, 80, 120
1, 28005, Note_off_c, 0, 80, 120
1, 28030, Note_on_c, 0, 81, 118
1, 28119, Note_on_c, 0, 77, 122
1, 28119, Note_off_c, 0, 81, 118
1, 28206, Note_off_c, 0, 77, 122
1, 28216, Note_on_c, 0, 72, 120
1, 28302, Note_off_c, 0, 72, 120
1, 28309, Note_on_c, 0, 70, 117
1, 28439, Note_off_c, 0, 70, 117
1, 28454, Note_on_c, 0, 66, 103
1, 28501, Note_off_c, 0, 66, 103
1, 28522, Note_on_c, 0, 68, 91
1, 28567, Note_off_c, 0, 68, 91
1, 28567, Note_on_c, 0, 69, 101
1, 28590, Note_off_c, 0, 69, 101
1, 28619, Note_on_c, 0, 70, 118
1, 28698, Note_off_c, 0, 70, 118
1, 28702, Note_on_c, 0, 71, 120
1, 28773, Note_off_c, 0, 71, 120
1, 28814, Note_on_c, 0, 72, 121
1, 28875, Note_off_c, 0, 72, 121
1, 28908, Note_on_c, 0, 69, 118
1, 28962, Note_off_c, 0, 69, 118
1, 28987, Note_on_c, 0, 67, 116
1, 29060, Note_off_c, 0, 67, 116
1, 29098, Note_on_c, 0, 65, 93
1, 29156, Note_off_c, 0, 65, 93
1, 29168, Note_on_c, 0, 67, 103
1, 29343, Note_off_c, 0, 67, 103
1, 29359, Note_on_c, 0, 64, 107
1, 29449, Note_off_c, 0, 64, 107
1, 29863, Note_on_c, 0, 71, 119
1, 29925, Note_off_c, 0, 71, 119
1, 29959, Note_on_c, 0, 76, 119
1, 30033, Note_off_c, 0, 76, 119
1, 30131, Note_on_c, 0, 80, 122
1, 30212, Note_off_c, 0, 80, 122
1, 30242, Note_on_c, 0, 81, 123
1, 30326, Note_off_c, 0, 81, 123
1, 30379, Note_on_c, 0, 77, 123
1, 30435, Note_off_c, 0, 77, 123
1, 30435, Note_on_c, 0, 78, 120
1, 30498, Note_off_c, 0, 78, 120
1, 30534, Note_on_c, 0, 76, 120
1, 30602, Note_off_c, 0, 76, 120
1, 30633, Note_on_c, 0, 73, 121
1, 30699, Note_off_c, 0, 73, 121
1, 30708, Note_on_c, 0, 71, 118
1, 30780, Note_off_c, 0, 71, 118
1, 30804, Note_on_c, 0, 73, 125
1, 30869, Note_off_c, 0, 73, 125
1, 30896, Note_on_c, 0, 66, 103
1, 30975, Note_off_c, 0, 66, 103
1, 30983, Note_on_c, 0, 68, 118
1, 31070, Note_off_c, 0, 68, 118
1, 31087, Note_on_c, 0, 70, 119
1, 31182, Note_off_c, 0, 70, 119
1, 31236, Note_on_c, 0, 77, 126
1, 31311, Note_off_c, 0, 77, 126
1, 31349, Note_on_c, 0, 76, 120
1, 31440, Note_off_c, 0, 76, 120
1, 31475, Note_on_c, 0, 75, 117
1, 31538, Note_off_c, 0, 75, 117
1, 31553, Note_on_c, 0, 78, 119
1, 31584, Note_off_c, 0, 78, 119
1, 31599, Note_on_c, 0, 74, 110
1, 31617, Note_off_c, 0, 74, 110
1, 31617, Note_on_c, 0, 72, 115
1, 31692, Note_off_c, 0, 72, 115
1, 31692, Note_on_c, 0, 70, 118
1, 31776, Note_off_c, 0, 70, 118
1, 31776, Note_on_c, 0, 66, 117
1, 31848, Note_off_c, 0, 66, 117
1, 31861, Note_on_c, 0, 65, 117
1, 31920, Note_off_c, 0, 65, 117
1, 31920, Note_on_c, 0, 63, 108
1, 32005, Note_off_c, 0, 63, 108
1, 32050, Note_on_c, 0, 67, 118
1, 32104, Note_off_c, 0, 67, 118
1, 32117, Note_on_c, 0, 68, 117
1, 32377, Note_off_c, 0, 68, 117
1, 32377, Note_on_c, 0, 65, 116
1, 32449, Note_off_c, 0, 65, 116
1, 32453, Note_on_c, 0, 60, 107
1, 32548, Note_off_c, 0, 60, 107
1, 32568, Note_on_c, 0, 63, 107
1, 32754, Note_off_c, 0, 63, 107
1, 32768, Note_on_c, 0, 65, 105
1, 32865, Note_off_c, 0, 65, 105
1, 32875, Note_on_c, 0, 68, 111
1, 32943, Note_off_c, 0, 68, 111
1, 32961, Note_on_c, 0, 68, 115
1, 33146, Note_off_c, 0, 68, 115
1, 33160, Note_on_c, 0, 65, 98
1, 33187, Note_off_c, 0, 65, 98
1, 33238, Note_on_c, 0, 68, 97
1, 33279, Note_off_c, 0, 68, 97
1, 33333, Note_on_c, 0, 68, 115
1, 33509, Note_off_c, 0, 68, 115
1, 33509, Note_on_c, 0, 65, 94
1, 33559, Note_off_c, 0, 65, 94
1, 33613, Note_on_c, 0, 68, 97
1, 33628, Note_off_c, 0, 68, 97
1, 33702, Note_on_c, 0, 68, 114
1, 33782, Note_off_c, 0, 68, 114
1, 33785, Note_on_c, 0, 68, 101
1, 33883, Note_off_c, 0, 68, 101
1, 33887, Note_on_c, 0, 68, 114
1, 33980, Note_off_c, 0, 68, 114
1, 33990, Note_on_c, 0, 68, 116
1, 34029, Note_off_c, 0, 68, 116
1, 34067, Note_on_c, 0, 69, 118
1, 34173, Note_off_c, 0, 69, 118
1, 34216, Note_on_c, 0, 65, 87
1, 34253, Note_off_c, 0, 65, 87
1, 34261, Note_on_c, 0, 67, 114
1, 34376, Note_off_c, 0, 67, 114
1, 34376, Note_on_c, 0, 62, 92
1, 34451, Note_off_c, 0, 62, 92
1, 34453, Note_on_c, 0, 65, 104
1, 34541, Note_off_c, 0, 65, 104
1, 34547, Note_on_c, 0, 65, 101
1, 34637, Note_off_c, 0, 65, 101
1, 34644, Note_on_c, 0, 67, 96
1, 34734, Note_off_c, 0, 67, 96
1, 34762, Note_on_c, 0, 69, 111
1, 34812, Note_off_c, 0, 69, 111
1, 35785, Note_on_c, 0, 73, 98
1, 35824, Note_off_c, 0, 73, 98
1, 35832, Note_on_c, 0, 75, 111
1, 35852, Note_off_c, 0, 75, 111
1, 35855, Note_on_c, 0, 73, 117
1, 35876, Note_off_c, 0, 73, 117
1, 35876, Note_on_c, 0, 71, 111
1, 35925, Note_off_c, 0, 71, 111
1, 35964, Note_on_c, 0, 73, 111
1, 36048, Note_off_c, 0, 73, 111
1, 36053, Note_on_c, 0, 71, 100
1, 36085, Note_off_c, 0, 71, 100
1, 36150, Note_on_c, 0, 73, 118
1, 36229, Note_off_c, 0, 73, 118
1, 36234, Note_on_c, 0, 71, 100
1, 36268, Note_off_c, 0, 71, 100
1, 36329, Note_on_c, 0, 73, 118
1, 36422, Note_off_c, 0, 73, 118
1, 36426, Note_on_c, 0, 71, 111
1, 36460, Note_off_c, 0, 71, 111
1, 36516, Note_on_c, 0, 73, 117
1, 36588, Note_off_c, 0, 73, 117
1, 36617, Note_on_c, 0, 71, 99
1, 36659, Note_off_c, 0, 71, 99
1, 36708, Note_on_c, 0, 73, 120
1, 36798, Note_off_c, 0, 73, 120
1, 36800, Note_on_c, 0, 71, 106
1, 36831, Note_off_c, 0, 71, 106
1, 36851, Note_on_c, 0, 78, 103
1, 36880, Note_off_c, 0, 78, 103
1, 36900, Note_on_c, 0, 73, 108
1, 36975, Note_off_c, 0, 73, 108
1, 36989, Note_on_c, 0, 71, 112
1, 37018, Note_off_c, 0, 71, 112
1, 37292, Note_on_c, 0, 66, 107
1, 37314, Note_off_c, 0, 66, 107
1, 37323, Note_on_c, 0, 68, 106
1, 37346, Note_off_c, 0, 68, 106
1, 37367, Note_on_c, 0, 70, 118
1, 37438, Note_off_c, 0, 70, 118
1, 37485, Note_on_c, 0, 77, 119
1, 37544, Note_off_c, 0, 77, 119
1, 37583, Note_on_c, 0, 76, 121
1, 37648, Note_off_c, 0, 76, 121
1, 37688, Note_on_c, 0, 75, 126
1, 37750, Note_off_c, 0, 75, 126
1, 37759, Note_on_c, 0, 72, 121
1, 37844, Note_off_c, 0, 72, 121
1, 37855, Note_on_c, 0, 70, 119
1, 37926, Note_off_c, 0, 70, 119
1, 37940, Note_on_c, 0, 66, 118
1, 38031, Note_off_c, 0, 66, 118
1, 38040, Note_on_c, 0, 65, 115
1, 38151, Note_off_c, 0, 65, 115
1, 38151, Note_on_c, 0, 63, 93
1, 38188, Note_off_c, 0, 63, 93
1, 38234, Note_on_c, 0, 68, 116
1, 38351, Note_on_c, 0, 65, 108
1, 38351, Note_off_c, 0, 68, 116
1, 38400, Note_off_c, 0, 65, 108
1, 38723, Note_on_c, 0, 77, 121
1, 38756, Note_off_c, 0, 77, 121
1, 38818, Note_on_c, 0, 79, 119
1, 38853, Note_off_c, 0, 79, 119
1, 38856, Note_on_c, 0, 80, 124
1, 38903, Note_off_c, 0, 80, 124
1, 38923, Note_on_c, 0, 77, 114
1, 38958, Note_off_c, 0, 77, 114
1, 39019, Note_on_c, 0, 79, 121
1, 39068, Note_off_c, 0, 79, 121
1, 39070, Note_on_c, 0, 80, 125
1, 39131, Note_off_c, 0, 80, 125
1, 39322, Note_on_c, 0, 74, 117
1, 39376, Note_off_c, 0, 74, 117
1, 39451, Note_on_c, 0, 79, 121
1, 39517, Note_off_c, 0, 79, 121
1, 39519, Note_on_c, 0, 80, 123
1, 39587, Note_off_c, 0, 80, 123
1, 39628, Note_on_c, 0, 77, 124
1, 39699, Note_off_c, 0, 77, 124
1, 39717, Note_on_c, 0, 79, 109
1, 39814, Note_off_c, 0, 79, 109
1, 39843, Note_on_c, 0, 80, 122
1, 39917, Note_off_c, 0, 80, 122
1, 39928, Note_on_c, 0, 77, 119
1, 40014, Note_off_c, 0, 77, 119
1, 40026, Note_on_c, 0, 79, 118
1, 40114, Note_off_c, 0, 79, 118
1, 40130, Note_on_c, 0, 80, 125
1, 40211, Note_off_c, 0, 80, 125
1, 40242, Note_on_c, 0, 79, 122
1, 40316, Note_off_c, 0, 79, 122
1, 40319, Note_on_c, 0, 75, 117
1, 40395, Note_off_c, 0, 75, 117
1, 40430, Note_on_c, 0, 77, 123
1, 40509, Note_off_c, 0, 77, 123
1, 40517, Note_on_c, 0, 75, 107
1, 40598, Note_off_c, 0, 75, 107
1, 40630, Note_on_c, 0, 77, 112
1, 40702, Note_off_c, 0, 77, 112
1, 40737, Note_on_c, 0, 72, 88
1, 40796, Note_off_c, 0, 72, 88
1, 40825, Note_on_c, 0, 73, 119
1, 40902, Note_off_c, 0, 73, 119
1, 40907, Note_on_c, 0, 70, 99
1, 40951, Note_off_c, 0, 70, 99
1, 40997, Note_on_c, 0, 71, 100
1, 41015, Note_off_c, 0, 71, 100
1, 41020, Note_on_c, 0, 72, 116
1, 41082, Note_off_c, 0, 72, 116
1, 41089, Note_on_c, 0, 75, 121
1, 41162, Note_off_c, 0, 75, 121
1, 41205, Note_on_c, 0, 70, 115
1, 41295, Note_off_c, 0, 70, 115
1, 41297, Note_on_c, 0, 69, 118
1, 41400, Note_off_c, 0, 69, 118
1, 41439, Note_on_c, 0, 72, 98
1, 41487, Note_off_c, 0, 72, 98
1, 41531, Note_on_c, 0, 70, 115
1, 41599, Note_off_c, 0, 70, 115
1, 41632, Note_on_c, 0, 71, 115
1, 41694, Note_off_c, 0, 71, 115
1, 41706, Note_on_c, 0, 73, 120
1, 41768, Note_off_c, 0, 73, 120
1, 41827, Note_on_c, 0, 75, 123
1, 41888, Note_off_c, 0, 75, 123
1, 41911, Note_on_c, 0, 77, 123
1, 41973, Note_off_c, 0, 77, 123
1, 42004, Note_on_c, 0, 78, 124
1, 42061, Note_off_c, 0, 78, 124
1, 42088, Note_on_c, 0, 80, 124
1, 42179, Note_off_c, 0, 80, 124
1, 42191, Note_on_c, 0, 79, 103
1, 42220, Note_off_c, 0, 79, 103
1, 42227, Note_on_c, 0, 77, 124
1, 42278, Note_off_c, 0, 77, 124
1, 42292, Note_on_c, 0, 78, 123
1, 42380, Note_off_c, 0, 78, 123
1, 42391, Note_on_c, 0, 75, 123
1, 42456, Note_off_c, 0, 75, 123
1, 42481, Note_on_c, 0, 76, 120
1, 42581, Note_off_c, 0, 76, 120
1, 42599, Note_on_c, 0, 77, 122
1, 42673, Note_off_c, 0, 77, 122
1, 42696, Note_on_c, 0, 76, 114
1, 42767, Note_off_c, 0, 76, 114
1, 42793, Note_on_c, 0, 75, 115
1, 42883, Note_off_c, 0, 75, 115
1, 42886, Note_on_c, 0, 74, 116
1, 42981, Note_off_c, 0, 74, 116
1, 42986, Note_on_c, 0, 75, 103
1, 43009, Note_off_c, 0, 75, 103
1, 43014, Note_on_c, 0, 73, 113
1, 43062, Note_off_c, 0, 73, 113
1, 43081, Note_on_c, 0, 71, 113
1, 43155, Note_off_c, 0, 71, 113
1, 43177, Note_on_c, 0, 68, 110
1, 43258, Note_off_c, 0, 68, 110
1, 43265, Note_on_c, 0, 69, 114
1, 43359, Note_off_c, 0, 69, 114
1, 43360, Note_on_c, 0, 68, 101
1, 43435, Note_off_c, 0, 68, 101
1, 43439, Note_on_c, 0, 70, 109
1, 43495, Note_off_c, 0, 70, 109
1, 43568, Note_on_c, 0, 73, 93
1, 43610, Note_off_c, 0, 73, 93
1, 43645, Note_on_c, 0, 70, 111
1, 43717, Note_off_c, 0, 70, 111
1, 43737, Note_on_c, 0, 70, 100
1, 43774, Note_off_c, 0, 70, 100
1, 43781, Note_on_c, 0, 68, 105
1, 43834, Note_off_c, 0, 68, 105
1, 43837, Note_on_c, 0, 68, 96
1, 43930, Note_off_c, 0, 68, 96
1, 43944, Note_on_c, 0, 65, 113
1, 44022, Note_off_c, 0, 65, 113
1, 44022, Note_on_c, 0, 63, 108
1, 44101, Note_off_c, 0, 63, 108
1, 44101, Note_on_c, 0, 62, 94
1, 44156, Note_off_c, 0, 62, 94
1, 44157, Note_on_c, 0, 65, 104
1, 44196, Note_off_c, 0, 65, 104
1, 44196, Note_on_c, 0, 68, 114
1, 44238, Note_off_c, 0, 68, 114
1, 44292, Note_on_c, 0, 71, 111
1, 44335, Note_off_c, 0, 71, 111
1, 44340, Note_on_c, 0, 73, 107
1, 44396, Note_off_c, 0, 73, 107
1, 44400, Note_on_c, 0, 70, 107
1, 44661, Note_off_c, 0, 70, 107
1, 44993, Note_on_c, 0, 68, 112
1, 45080, Note_off_c, 0, 68, 112
1, 45080, Note_on_c, 0, 70, 120
1, 45283, Note_off_c, 0, 70, 120
1, 45293, Note_on_c, 0, 75, 119
1, 45342, Note_off_c, 0, 75, 119
1, 45342, Note_on_c, 0, 70, 94
1, 45369, Note_off_c, 0, 70, 94
1, 45428, Note_on_c, 0, 68, 114
1, 45460, Note_off_c, 0, 68, 114
1, 45470, Note_on_c, 0, 67, 107
1, 45529, Note_off_c, 0, 67, 107
1, 45541, Note_on_c, 0, 68, 97
1, 45619, Note_off_c, 0, 68, 97
1, 45626, Note_on_c, 0, 69, 100
1, 45800, Note_off_c, 0, 69, 100
1, 45815, Note_on_c, 0, 68, 90
1, 46015, Note_off_c, 0, 68, 90
1, 46042, Note_on_c, 0, 68, 119
1, 46140, Note_off_c, 0, 68, 119
1, 46150, Note_on_c, 0, 68, 103
1, 46204, Note_off_c, 0, 68, 103
1, 46250, Note_on_c, 0, 68, 87
1, 46309, Note_off_c, 0, 68, 87
1, 46326, Note_on_c, 0, 69, 104
1, 46388, Note_off_c, 0, 69, 104
1, 46404, Note_on_c, 0, 67, 110
1, 46467, Note_off_c, 0, 67, 110
1, 46627, Note_on_c, 0, 67, 116
1, 46730, Note_off_c, 0, 67, 116
1, 46730, Note_on_c, 0, 62, 91
1, 46772, Note_off_c, 0, 62, 91
1, 46822, Note_on_c, 0, 65, 103
1, 46997, Note_off_c, 0, 65, 103
1, 47012, Note_on_c, 0, 67, 112
1, 47078, Note_off_c, 0, 67, 112
1, 47129, Note_on_c, 0, 67, 95
1, 47207, Note_off_c, 0, 67, 95
1, 47226, Note_on_c, 0, 70, 109
1, 47274, Note_off_c, 0, 70, 109
1, 47274, Note_on_c, 0, 67, 103
1, 47308, Note_off_c, 0, 67, 103
1, 47314, Note_on_c, 0, 65, 103
1, 47377, Note_off_c, 0, 65, 103
1, 47377, Note_on_c, 0, 67, 112
1, 47455, Note_off_c, 0, 67, 112
1, 47520, Note_on_c, 0, 63, 95
1, 47546, Note_off_c, 0, 63, 95
1, 47552, Note_on_c, 0, 65, 104
1, 47637, Note_off_c, 0, 65, 104
1, 47666, Note_on_c, 0, 65, 107
1, 47737, Note_off_c, 0, 65, 107
1, 47757, Note_on_c, 0, 67, 92
1, 47822, Note_off_c, 0, 67, 92
1, 48147, Note_on_c, 0, 68, 91
1, 48183, Note_off_c, 0, 68, 91
1, 48198, Note_on_c, 0, 68, 98
1, 48332, Note_off_c, 0, 68, 98
1, 48344, Note_on_c, 0, 67, 116
1, 48383, Note_off_c, 0, 67, 116
1, 48392, Note_on_c, 0, 68, 102
1, 48434, Note_off_c, 0, 68, 102
1, 48443, Note_on_c, 0, 70, 117
1, 48515, Note_off_c, 0, 70, 117
1, 48545, Note_on_c, 0, 71, 119
1, 48608, Note_off_c, 0, 71, 119
1, 48609, Note_on_c, 0, 73, 122
1, 48699, Note_off_c, 0, 73, 122
1, 48712, Note_on_c, 0, 75, 106
1, 48733, Note_off_c, 0, 75, 106
1, 48733, Note_on_c, 0, 73, 122
1, 48907, Note_off_c, 0, 73, 122
1, 48907, Note_on_c, 0, 71, 116
1, 48985, Note_off_c, 0, 71, 116
1, 49016, Note_on_c, 0, 73, 118
1, 49124, Note_off_c, 0, 73, 118
1, 49126, Note_on_c, 0, 74, 110
1, 49161, Note_off_c, 0, 74, 110
1, 49168, Note_on_c, 0, 73, 113
1, 49194, Note_off_c, 0, 73, 113
1, 49198, Note_on_c, 0, 71, 116
1, 49301, Note_off_c, 0, 71, 116
1, 49301, Note_on_c, 0, 66, 97
1, 49347, Note_off_c, 0, 66, 97
1, 49383, Note_on_c, 0, 68, 117
1, 49465, Note_off_c, 0, 68, 117
1, 49508, Note_on_c, 0, 70, 119
1, 49643, Note_off_c, 0, 70, 119
1, 49704, Note_on_c, 0, 77, 123
1, 49781, Note_off_c, 0, 77, 123
1, 49791, Note_on_c, 0, 76, 122
1, 49876, Note_off_c, 0, 76, 122
1, 49900, Note_on_c, 0, 75, 123
1, 49975, Note_off_c, 0, 75, 123
1, 49988, Note_on_c, 0, 72, 120
1, 50078, Note_off_c, 0, 72, 120
1, 50082, Note_on_c, 0, 70, 118
1, 50161, Note_off_c, 0, 70, 118
1, 50170, Note_on_c, 0, 66, 117
1, 50253, Note_off_c, 0, 66, 117
1, 50263, Note_on_c, 0, 65, 115
1, 50358, Note_off_c, 0, 65, 115
1, 50382, Note_on_c, 0, 63, 84
1, 50435, Note_off_c, 0, 63, 84
1, 50455, Note_on_c, 0, 67, 115
1, 50516, Note_off_c, 0, 67, 115
1, 50518, Note_on_c, 0, 68, 117
1, 50804, Note_off_c, 0, 68, 117
1, 50811, Note_on_c, 0, 65, 113
1, 50909, Note_off_c, 0, 65, 113
1, 50909, Note_on_c, 0, 60, 103
1, 51006, Note_off_c, 0, 60, 103
1, 51011, Note_on_c, 0, 58, 91
1, 51342, Note_off_c, 0, 58, 91
1, 51342, End_track
0, 0, End_of_file
