0, 0, Header, 1, 1, 192
1, 0, Start_track
1, 0, Title_t, "Melody"
1, 0, Tempo, 384615
1, 0, Key_signature, -3, "major"
1, 0, Time_signature, 4, 2, 24, 8
1, 1865, Note_on_c, 0, 73, 106
1, 2044, Note_off_c, 0, 73, 106
1, 2060, Note_on_c, 0, 70, 101
1, 2149, Note_off_c, 0, 70, 101
1, 2149, Note_on_c, 0, 68, 103
1, 2224, Note_off_c, 0, 68, 103
1, 2248, Note_on_c, 0, 70, 97
1, 2327, Note_off_c, 0, 70, 97
1, 2335, Note_on_c, 0, 63, 102
1, 2442, Note_off_c, 0, 63, 102
1, 2460, Note_on_c, 0, 58, 87
1, 2498, Note_off_c, 0, 58, 87
1, 2529, Note_on_c, 0, 63, 95
1, 2714, Note_off_c, 0, 63, 95
1, 3294, Note_on_c, 0, 73, 120
1, 3512, Note_off_c, 0, 73, 120
1, 3524, Note_on_c, 0, 74, 107
1, 3568, Note_off_c, 0, 74, 107
1, 3572, Note_on_c, 0, 72, 115
1, 3598, Note_off_c, 0, 72, 115
1, 3598, Note_on_c, 0, 70, 119
1, 3657, Note_off_c, 0, 70, 119
1, 3677, Note_on_c, 0, 68, 109
1, 3762, Note_off_c, 0, 68, 109
1, 3786, Note_on_c, 0, 70, 120
1, 3855, Note_off_c, 0, 70, 120
1, 3855, Note_on_c, 0, 63, 114
1, 3938, Note_off_c, 0, 63, 114
1, 3958, Note_on_c, 0, 63, 113
1, 4043, Note_off_c, 0, 63, 113
1, 4051, Note_on_c, 0, 66, 104
1, 4220, Note_off_c, 0, 66, 104
1, 4240, Note_on_c, 0, 67, 108
1, 4431, Note_off_c, 0, 67, 108
1, 4445, Note_on_c, 0, 67, 113
1, 4591, Note_off_c, 0, 67, 113
1, 4635, Note_on_c, 0, 66, 96
1, 4704, Note_off_c, 0, 66, 96
1, 4710, Note_on_c, 0, 67, 109
1, 4905, Note_off_c, 0, 67, 109
1, 4922, Note_on_c, 0, 63, 111
1, 4993, Note_off_c, 0, 63, 111
1, 5005, Note_on_c, 0, 61, 91
1, 5049, Note_off_c, 0, 61, 91
1, 5051, Note_on_c, 0, 63, 100
1, 5067, Note_off_c, 0, 63, 100
1, 5073, Note_on_c, 0, 61, 92
1, 5111, Note_off_c, 0, 61, 92
1, 5115, Note_on_c, 0, 58, 104
1, 5204, Note_off_c, 0, 58, 104
1, 5206, Note_on_c, 0, 61, 108
1, 5277, Note_off_c, 0, 61, 108
1, 5277, Note_on_c, 0, 58, 98
1, 5358, Note_off_c, 0, 58, 98
1, 5380, Note_on_c, 0, 63, 108
1, 5501, Note_off_c, 0, 63, 108
1, 5573, Note_on_c, 0, 63, 97
1, 5784, Note_off_c, 0, 63, 97
1, 7000, Note_on_c, 0, 70, 106
1, 7028, Note_off_c, 0, 70, 106
1, 7035, Note_on_c, 0, 73, 98
1, 7062, Note_off_c, 0, 73, 98
1, 7079, Note_on_c, 0, 75, 115
1, 7126, Note_off_c, 0, 75, 115
1, 7170, Note_on_c, 0, 75, 113
1, 7217, Note_off_c, 0, 75, 113
1, 7266, Note_on_c, 0, 75, 110
1, 7309, Note_off_c, 0, 75, 110
1, 7358, Note_on_c, 0, 70, 109
1, 7405, Note_off_c, 0, 70, 109
1, 7470, Note_on_c, 0, 73, 119
1, 7554, Note_off_c, 0, 73, 119
1, 7558, Note_on_c, 0, 75, 123
1, 7679, Note_off_c, 0, 75, 123
1, 7679, Note_on_c, 0, 77, 110
1, 7723, Note_off_c, 0, 77, 110
1, 7734, Note_on_c, 0, 75, 107
1, 7767, Note_off_c, 0, 75, 107
1, 7769, Note_on_c, 0, 74, 116
1, 7828, Note_off_c, 0, 74, 116
1, 7833, Note_on_c, 0, 73, 113
1, 7934, Note_off_c, 0, 73, 113
1, 7958, Note_on_c, 0, 77, 119
1, 8024, Note_off_c, 0, 77, 119
1, 8041, Note_on_c, 0, 74, 110
1, 8083, Note_off_c, 0, 74, 110
1, 8084, Note_on_c, 0, 72, 117
1, 8112, Note_off_c, 0, 72, 117
1, 8117, Note_on_c, 0, 71, 124
1, 8206, Note_off_c, 0, 71, 124
1, 8221, Note_on_c, 0, 70, 122
1, 8299, Note_off_c, 0, 70, 122
1, 8300, Note_on_c, 0, 69, 123
1, 8395, Note_off_c, 0, 69, 123
1, 8413, Note_on_c, 0, 68, 92
1, 8568, Note_off_c, 0, 68, 92
1, 8581, Note_on_c, 0, 68, 111
1, 8695, Note_off_c, 0, 68, 111
1, 8702, Note_on_c, 0, 68, 103
1, 8764, Note_off_c, 0, 68, 103
1, 8771, Note_on_c, 0, 68, 111
1, 8878, Note_off_c, 0, 68, 111
1, 8880, Note_on_c, 0, 68, 101
1, 8971, Note_off_c, 0, 68, 101
1, 8978, Note_on_c, 0, 68, 111
1, 9066, Note_off_c, 0, 68, 111
1, 9079, Note_on_c, 0, 68, 96
1, 9148, Note_off_c, 0, 68, 96
1, 9152, Note_on_c, 0, 66, 107
1, 9341, Note_off_c, 0, 66, 107
1, 9342, Note_on_c, 0, 68, 101
1, 9447, Note_off_c, 0, 68, 101
1, 9447, Note_on_c, 0, 70, 101
1, 9538, Note_off_c, 0, 70, 101
1, 9640, Note_on_c, 0, 66, 107
1, 9726, Note_off_c, 0, 66, 107
1, 9728, Note_on_c, 0, 63, 87
1, 9838, Note_off_c, 0, 63, 87
1, 9845, Note_on_c, 0, 63, 98
1, 9895, Note_off_c, 0, 63, 98
1, 9902, Note_on_c, 0, 63, 99
1, 10007, Note_off_c, 0, 63, 99
1, 10081, Note_on_c, 0, 65, 114
1, 10185, Note_off_c, 0, 65, 114
1, 10200, Note_on_c, 0, 68, 101
1, 10291, Note_off_c, 0, 68, 101
1, 10299, Note_on_c, 0, 68, 119
1, 10368, Note_off_c, 0, 68, 119
1, 10378, Note_on_c, 0, 68, 117
1, 10428, Note_off_c, 0, 68, 117
1, 10458, Note_on_c, 0, 68, 118
1, 10514, Note_off_c, 0, 68, 118
1, 10556, Note_on_c, 0, 68, 114
1, 10647, Note_off_c, 0, 68, 114
1, 10649, Note_on_c, 0, 66, 104
1, 10830, Note_off_c, 0, 66, 104
1, 10835, Note_on_c, 0, 68, 95
1, 10933, Note_off_c, 0, 68, 95
1, 10988, Note_on_c, 0, 68, 101
1, 11021, Note_off_c, 0, 68, 101
1, 11026, Note_on_c, 0, 70, 98
1, 11062, Note_off_c, 0, 70, 98
1, 11140, Note_on_c, 0, 63, 105
1, 11448, Note_off_c, 0, 63, 105
1, 11448, Note_on_c, 0, 70, 98
1, 11472, Note_on_c, 0, 68, 103
1, 11472, Note_off_c, 0, 70, 98
1, 11515, Note_off_c, 0, 68, 103
1, 11522, Note_on_c, 0, 67, 105
1, 11591, Note_off_c, 0, 67, 105
1, 11612, Note_on_c, 0, 63, 104
1, 11710, Note_off_c, 0, 63, 104
1, 11791, Note_on_c, 0, 61, 92
1, 11885, Note_off_c, 0, 61, 92
1, 11892, Note_on_c, 0, 63, 88
1, 12189, Note_off_c, 0, 63, 88
1, 12651, Note_on_c, 0, 67, 108
1, 12698, Note_off_c, 0, 67, 108
1, 12760, Note_on_c, 0, 70, 120
1, 12790, Note_off_c, 0, 70, 120
1, 12790, Note_on_c, 0, 68, 113
1, 12823, Note_off_c, 0, 68, 113
1, 12828, Note_on_c, 0, 67, 110
1, 12904, Note_off_c, 0, 67, 110
1, 12932, Note_on_c, 0, 68, 118
1, 12974, Note_off_c, 0, 68, 118
1, 12978, Note_on_c, 0, 67, 116
1, 13034, Note_off_c, 0, 67, 116
1, 13042, Note_on_c, 0, 68, 110
1, 13097, Note_off_c, 0, 68, 110
1, 13104, Note_on_c, 0, 67, 111
1, 13156, Note_off_c, 0, 67, 111
1, 13203, Note_on_c, 0, 63, 92
1, 13256, Note_off_c, 0, 63, 92
1, 13415, Note_on_c, 0, 68, 117
1, 13501, Note_off_c, 0, 68, 117
1, 13509, Note_on_c, 0, 67, 113
1, 13587, Note_off_c, 0, 67, 113
1, 13592, Note_on_c, 0, 63, 97
1, 13632, Note_off_c, 0, 63, 97
1, 13701, Note_on_c, 0, 68, 118
1, 13716, Note_off_c, 0, 68, 118
1, 13721, Note_on_c, 0, 67, 114
1, 13776, Note_off_c, 0, 67, 114
1, 13783, Note_on_c, 0, 68, 104
1, 13916, Note_off_c, 0, 68, 104
1, 13923, Note_on_c, 0, 67, 106
1, 13978, Note_off_c, 0, 67, 106
1, 13999, Note_on_c, 0, 65, 117
1, 14051, Note_off_c, 0, 65, 117
1, 14055, Note_on_c, 0, 64, 96
1, 14079, Note_off_c, 0, 64, 96
1, 14083, Note_on_c, 0, 65, 110
1, 14098, Note_off_c, 0, 65, 110
1, 14105, Note_on_c, 0, 63, 107
1, 14136, Note_off_c, 0, 63, 107
1, 14138, Note_on_c, 0, 61, 110
1, 14235, Note_off_c, 0, 61, 110
1, 14235, Note_on_c, 0, 60, 106
1, 14323, Note_off_c, 0, 60, 106
1, 14325, Note_on_c, 0, 58, 112
1, 14411, Note_off_c, 0, 58, 112
1, 14411, Note_on_c, 0, 56, 99
1, 14535, Note_off_c, 0, 56, 99
1, 14548, Note_on_c, 0, 58, 105
1, 14597, Note_off_c, 0, 58, 105
1, 14599, Note_on_c, 0, 60, 101
1, 14781, Note_off_c, 0, 60, 101
1, 14809, Note_on_c, 0, 53, 101
1, 15139, Note_off_c, 0, 53, 101
1, 16103, Note_on_c, 0, 65, 108
1, 16204, Note_off_c, 0, 65, 108
1, 16219, Note_on_c, 0, 67, 105
1, 16291, Note_off_c, 0, 67, 105
1, 16299, Note_on_c, 0, 68, 104
1, 16390, Note_off_c, 0, 68, 104
1, 16400, Note_on_c, 0, 70, 124
1, 16498, Note_off_c, 0, 70, 124
1, 16505, Note_on_c, 0, 72, 117
1, 16580, Note_off_c, 0, 72, 117
1, 16581, Note_on_c, 0, 77, 104
1, 16631, Note_off_c, 0, 77, 104
1, 16631, Note_on_c, 0, 75, 122
1, 16690, Note_off_c, 0, 75, 122
1, 16694, Note_on_c, 0, 74, 107
1, 16773, Note_off_c, 0, 74, 107
1, 16793, Note_on_c, 0, 73, 118
1, 16882, Note_off_c, 0, 73, 118
1, 16895, Note_on_c, 0, 74, 104
1, 16925, Note_off_c, 0, 74, 104
1, 16927, Note_on_c, 0, 72, 118
1, 16957, Note_off_c, 0, 72, 118
1, 16961, Note_on_c, 0, 71, 122
1, 17053, Note_off_c, 0, 71, 122
1, 17057, Note_on_c, 0, 70, 116
1, 17144, Note_off_c, 0, 70, 116
1, 17154, Note_on_c, 0, 68, 117
1, 17239, Note_off_c, 0, 68, 117
1, 17249, Note_on_c, 0, 67, 101
1, 17322, Note_off_c, 0, 67, 101
1, 17342, Note_on_c, 0, 70, 117
1, 17425, Note_off_c, 0, 70, 117
1, 17443, Note_on_c, 0, 63, 114
1, 17555, Note_off_c, 0, 63, 114
1, 17557, Note_on_c, 0, 58, 89
1, 17594, Note_off_c, 0, 58, 89
1, 17605, Note_on_c, 0, 63, 92
1, 17808, Note_off_c, 0, 63, 92
1, 18588, Note_on_c, 0, 67, 108
1, 18624, Note_off_c, 0, 67, 108
1, 18632, Note_on_c, 0, 66, 103
1, 18670, Note_off_c, 0, 66, 103
1, 18680, Note_on_c, 0, 68, 118
1, 18932, Note_off_c, 0, 68, 118
1, 18946, Note_on_c, 0, 66, 114
1, 19029, Note_off_c, 0, 66, 114
1, 19041, Note_on_c, 0, 67, 105
1, 19124, Note_off_c, 0, 67, 105
1, 19138, Note_on_c, 0, 63, 108
1, 19239, Note_off_c, 0, 63, 108
1, 19257, Note_on_c, 0, 58, 87
1, 19322, Note_off_c, 0, 58, 87
1, 19332, Note_on_c, 0, 61, 90
1, 19417, Note_off_c, 0, 61, 90
1, 19425, Note_on_c, 0, 63, 92
1, 19638, Note_off_c, 0, 63, 92
1, 20770, Note_on_c, 0, 70, 109
1, 20820, Note_off_c, 0, 70, 109
1, 20968, Note_on_c, 0, 75, 123
1, 21029, Note_off_c, 0, 75, 123
1, 21153, Note_on_c, 0, 80, 120
1, 21226, Note_off_c, 0, 80, 120
1, 21352, Note_on_c, 0, 78, 125
1, 21429, Note_off_c, 0, 78, 125
1, 21437, Note_on_c, 0, 79, 117
1, 21519, Note_off_c, 0, 79, 117
1, 21521, Note_on_c, 0, 75, 122
1, 21612, Note_off_c, 0, 75, 122
1, 21614, Note_on_c, 0, 73, 99
1, 21638, Note_off_c, 0, 73, 99
1, 21638, Note_on_c, 0, 74, 112
1, 21666, Note_off_c, 0, 74, 112
1, 21666, Note_on_c, 0, 73, 116
1, 21716, Note_off_c, 0, 73, 116
1, 21717, Note_on_c, 0, 70, 122
1, 21802, Note_off_c, 0, 70, 122
1, 21804, Note_on_c, 0, 68, 107
1, 21895, Note_off_c, 0, 68, 107
1, 21913, Note_on_c, 0, 70, 115
1, 21994, Note_off_c, 0, 70, 115
1, 22012, Note_on_c, 0, 66, 103
1, 22103, Note_off_c, 0, 66, 103
1, 22103, Note_on_c, 0, 67, 92
1, 22143, Note_off_c, 0, 67, 92
1, 23615, Note_on_c, 0, 70, 105
1, 23672, Note_off_c, 0, 70, 105
1, 23733, Note_on_c, 0, 78, 117
1, 23779, Note_off_c, 0, 78, 117
1, 23787, Note_on_c, 0, 82, 125
1, 23862, Note_off_c, 0, 82, 125
1, 23890, Note_on_c, 0, 82, 125
1, 23953, Note_off_c, 0, 82, 125
1, 23953, Note_on_c, 0, 80, 124
1, 24168, Note_off_c, 0, 80, 124
1, 24180, Note_on_c, 0, 82, 111
1, 24251, Note_off_c, 0, 82, 111
1, 24300, Note_on_c, 0, 78, 127
1, 24362, Note_off_c, 0, 78, 127
1, 24369, Note_on_c, 0, 79, 114
1, 24429, Note_off_c, 0, 79, 114
1, 24462, Note_on_c, 0, 80, 122
1, 24535, Note_off_c, 0, 80, 122
1, 24592, Note_on_c, 0, 79, 123
1, 24671, Note_off_c, 0, 79, 123
1, 24698, Note_on_c, 0, 81, 116
1, 24737, Note_off_c, 0, 81, 116
1, 24737, Note_on_c, 0, 77, 107
1, 24763, Note_off_c, 0, 77, 107
1, 24763, Note_on_c, 0, 75, 122
1, 24839, Note_off_c, 0, 75, 122
1, 24865, Note_on_c, 0, 70, 122
1, 24946, Note_off_c, 0, 70, 122
1, 24959, Note_on_c, 0, 68, 117
1, 25006, Note_off_c, 0, 68, 117
1, 25008, Note_on_c, 0, 70, 116
1, 25073, Note_off_c, 0, 70, 116
1, 25101, Note_on_c, 0, 65, 107
1, 25124, Note_off_c, 0, 65, 107
1, 25129, Note_on_c, 0, 67, 108
1, 25221, Note_off_c, 0, 67, 108
1, 25875, Note_on_c, 0, 84, 122
1, 26025, Note_off_c, 0, 84, 122
1, 26029, Note_on_c, 0, 82, 104
1, 26073, Note_off_c, 0, 82, 104
1, 26074, Note_on_c, 0, 80, 123
1, 26163, Note_off_c, 0, 80, 123
1, 26167, Note_on_c, 0, 79, 124
1, 26253, Note_off_c, 0, 79, 124
1, 26263, Note_on_c, 0, 76, 124
1, 26336, Note_off_c, 0, 76, 124
1, 26356, Note_on_c, 0, 77, 126
1, 26445, Note_off_c, 0, 77, 126
1, 26446, Note_on_c, 0, 76, 126
1, 26534, Note_off_c, 0, 76, 126
1, 26561, Note_on_c, 0, 75, 125
1, 26650, Note_off_c, 0, 75, 125
1, 26658, Note_on_c, 0, 70, 98
1, 26704, Note_off_c, 0, 70, 98
1, 26735, Note_on_c, 0, 73, 113
1, 26821, Note_off_c, 0, 73, 113
1, 26832, Note_on_c, 0, 75, 124
1, 26934, Note_off_c, 0, 75, 124
1, 26945, Note_on_c, 0, 72, 102
1, 27004, Note_off_c, 0, 72, 102
1, 27037, Note_on_c, 0, 73, 120
1, 27132, Note_off_c, 0, 73, 120
1, 27137, Note_on_c, 0, 70, 98
1, 27196, Note_off_c, 0, 70, 98
1, 27211, Note_on_c, 0, 71, 122
1, 27313, Note_off_c, 0, 71, 122
1, 27331, Note_on_c, 0, 74, 101
1, 27368, Note_off_c, 0, 74, 101
1, 27372, Note_on_c, 0, 72, 113
1, 27408, Note_off_c, 0, 72, 113
1, 27412, Note_on_c, 0, 71, 123
1, 27504, Note_off_c, 0, 71, 123
1, 27518, Note_on_c, 0, 70, 121
1, 27583, Note_off_c, 0, 70, 121
1, 27594, Note_on_c, 0, 69, 120
1, 27678, Note_off_c, 0, 69, 120
1, 27722, Note_on_c, 0, 70, 96
1, 27742, Note_off_c, 0, 70, 96
1, 27744, Note_on_c, 0, 68, 98
1, 27767, Note_off_c, 0, 68, 98
1, 27772, Note_on_c, 0, 67, 119
1, 27860, Note_off_c, 0, 67, 119
1, 27874, Note_on_c, 0, 66, 105
1, 27976, Note_off_c, 0, 66, 105
1, 27980, Note_on_c, 0, 70, 120
1, 28055, Note_off_c, 0, 70, 120
1, 28159, Note_on_c, 0, 66, 118
1, 28237, Note_off_c, 0, 66, 118
1, 28241, Note_on_c, 0, 62, 103
1, 28336, Note_off_c, 0, 62, 103
1, 28380, Note_on_c, 0, 63, 106
1, 28437, Note_off_c, 0, 63, 106
1, 28460, Note_on_c, 0, 65, 111
1, 28609, Note_off_c, 0, 65, 111
1, 28617, Note_on_c, 0, 63, 111
1, 28725, Note_off_c, 0, 63, 111
1, 28730, Note_on_c, 0, 60, 108
1, 28796, Note_off_c, 0, 60, 108
1, 28803, Note_on_c, 0, 61, 102
1, 28846, Note_off_c, 0, 61, 102
1, 28847, Note_on_c, 0, 63, 90
1, 28899, Note_off_c, 0, 63, 90
1, 28903, Note_on_c, 0, 58, 94
1, 28981, Note_off_c, 0, 58, 94
1, 28982, Note_on_c, 0, 63, 105
1, 29079, Note_off_c, 0, 63, 105
1, 29092, Note_on_c, 0, 59, 90
1, 29164, Note_off_c, 0, 59, 90
1, 29184, Note_on_c, 0, 62, 112
1, 29289, Note_off_c, 0, 62, 112
1, 29310, Note_on_c, 0, 60, 103
1, 29366, Note_off_c, 0, 60, 103
1, 29387, Note_on_c, 0, 63, 113
1, 29479, Note_off_c, 0, 63, 113
1, 29487, Note_on_c, 0, 62, 99
1, 29539, Note_off_c, 0, 62, 99
1, 29549, Note_on_c, 0, 63, 93
1, 29801, Note_off_c, 0, 63, 93
1, 30621, Note_on_c, 0, 63, 97
1, 30676, Note_off_c, 0, 63, 97
1, 30738, Note_on_c, 0, 65, 109
1, 30806, Note_off_c, 0, 65, 109
1, 30813, Note_on_c, 0, 67, 118
1, 30897, Note_off_c, 0, 67, 118
1, 30914, Note_on_c, 0, 68, 117
1, 30989, Note_off_c, 0, 68, 117
1, 30994, Note_on_c, 0, 69, 123
1, 31099, Note_off_c, 0, 69, 123
1, 31146, Note_on_c, 0, 70, 124
1, 31225, Note_off_c, 0, 70, 124
1, 31303, Note_on_c, 0, 72, 117
1, 31391, Note_off_c, 0, 72, 117
1, 31531, Note_on_c, 0, 73, 122
1, 31583, Note_off_c, 0, 73, 122
1, 31590, Note_on_c, 0, 72, 122
1, 31650, Note_off_c, 0, 72, 122
1, 31657, Note_on_c, 0, 73, 121
1, 31710, Note_off_c, 0, 73, 121
1, 31769, Note_on_c, 0, 72, 103
1, 31806, Note_off_c, 0, 72, 103
1, 31810, Note_on_c, 0, 70, 113
1, 31837, Note_off_c, 0, 70, 113
1, 31839, Note_on_c, 0, 71, 118
1, 31882, Note_off_c, 0, 71, 118
1, 31893, Note_on_c, 0, 70, 121
1, 31946, Note_off_c, 0, 70, 121
1, 32001, Note_on_c, 0, 71, 114
1, 32051, Note_off_c, 0, 71, 114
1, 32074, Note_on_c, 0, 68, 100
1, 32105, Note_off_c, 0, 68, 100
1, 32113, Note_on_c, 0, 67, 109
1, 32155, Note_off_c, 0, 67, 109
1, 32163, Note_on_c, 0, 65, 116
1, 32235, Note_off_c, 0, 65, 116
1, 32242, Note_on_c, 0, 64, 113
1, 32311, Note_off_c, 0, 64, 113
1, 32337, Note_on_c, 0, 61, 115
1, 32412, Note_off_c, 0, 61, 115
1, 32430, Note_on_c, 0, 60, 107
1, 32506, Note_off_c, 0, 60, 107
1, 32519, Note_on_c, 0, 58, 105
1, 32597, Note_off_c, 0, 58, 105
1, 32623, Note_on_c, 0, 56, 105
1, 32793, Note_off_c, 0, 56, 105
1, 32819, Note_on_c, 0, 60, 104
1, 32868, Note_off_c, 0, 60, 104
1, 32873, Note_on_c, 0, 63, 106
1, 32894, Note_off_c, 0, 63, 106
1, 32901, Note_on_c, 0, 67, 111
1, 32983, Note_off_c, 0, 67, 111
1, 32983, Note_on_c, 0, 65, 112
1, 33178, Note_off_c, 0, 65, 112
1, 33185, Note_on_c, 0, 67, 114
1, 33264, Note_off_c, 0, 67, 114
1, 33279, Note_on_c, 0, 60, 94
1, 33652, Note_off_c, 0, 60, 94
1, 34246, Note_on_c, 0, 76, 111
1, 34282, Note_off_c, 0, 76, 111
1, 34286, Note_on_c, 0, 74, 118
1, 34317, Note_off_c, 0, 74, 118
1, 34324, Note_on_c, 0, 73, 113
1, 34360, Note_off_c, 0, 73, 113
1, 34361, Note_on_c, 0, 74, 109
1, 34400, Note_off_c, 0, 74, 109
1, 34415, Note_on_c, 0, 75, 110
1, 34442, Note_off_c, 0, 75, 110
1, 34450, Note_on_c, 0, 76, 104
1, 34502, Note_off_c, 0, 76, 104
1, 34506, Note_on_c, 0, 75, 111
1, 34537, Note_off_c, 0, 75, 111
1, 34545, Note_on_c, 0, 74, 123
1, 34607, Note_off_c, 0, 74, 123
1, 34628, Note_on_c, 0, 72, 121
1, 34707, Note_off_c, 0, 72, 121
1, 34734, Note_on_c, 0, 73, 106
1, 34771, Note_off_c, 0, 73, 106
1, 34771, Note_on_c, 0, 72, 113
1, 34799, Note_off_c, 0, 72, 113
1, 34800, Note_on_c, 0, 71, 120
1, 34884, Note_off_c, 0, 71, 120
1, 34885, Note_on_c, 0, 70, 118
1, 34971, Note_off_c, 0, 70, 118
1, 34981, Note_on_c, 0, 69, 119
1, 35060, Note_off_c, 0, 69, 119
1, 35065, Note_on_c, 0, 68, 103
1, 35095, Note_off_c, 0, 68, 103
1, 35096, Note_on_c, 0, 70, 111
1, 35117, Note_off_c, 0, 70, 111
1, 35119, Note_on_c, 0, 68, 113
1, 35161, Note_off_c, 0, 68, 113
1, 35163, Note_on_c, 0, 67, 117
1, 35257, Note_off_c, 0, 67, 117
1, 35262, Note_on_c, 0, 66, 112
1, 35348, Note_off_c, 0, 66, 112
1, 35363, Note_on_c, 0, 62, 111
1, 35433, Note_off_c, 0, 62, 111
1, 35446, Note_on_c, 0, 59, 108
1, 35541, Note_off_c, 0, 59, 108
1, 35545, Note_on_c, 0, 57, 99
1, 35618, Note_off_c, 0, 57, 99
1, 35631, Note_on_c, 0, 58, 98
1, 35703, Note_off_c, 0, 58, 98
1, 35737, Note_on_c, 0, 63, 91
1, 36123, Note_off_c, 0, 63, 91
1, 36218, Note_on_c, 0, 68, 113
1, 36252, Note_off_c, 0, 68, 113
1, 36301, Note_on_c, 0, 68, 107
1, 36382, Note_off_c, 0, 68, 107
1, 36412, Note_on_c, 0, 68, 100
1, 36477, Note_off_c, 0, 68, 100
1, 36492, Note_on_c, 0, 68, 118
1, 36576, Note_off_c, 0, 68, 118
1, 36596, Note_on_c, 0, 68, 121
1, 36677, Note_off_c, 0, 68, 121
1, 36695, Note_on_c, 0, 68, 119
1, 36770, Note_off_c, 0, 68, 119
1, 36798, Note_on_c, 0, 68, 115
1, 36871, Note_off_c, 0, 68, 115
1, 36886, Note_on_c, 0, 68, 120
1, 36964, Note_off_c, 0, 68, 120
1, 36991, Note_on_c, 0, 68, 118
1, 37061, Note_off_c, 0, 68, 118
1, 37082, Note_on_c, 0, 68, 117
1, 37155, Note_off_c, 0, 68, 117
1, 37198, Note_on_c, 0, 67, 108
1, 37225, Note_off_c, 0, 67, 108
1, 37230, Note_on_c, 0, 66, 104
1, 37266, Note_off_c, 0, 66, 104
1, 37273, Note_on_c, 0, 63, 100
1, 37316, Note_off_c, 0, 63, 100
1, 37318, Note_on_c, 0, 60, 105
1, 37344, Note_off_c, 0, 60, 105
1, 37352, Note_on_c, 0, 58, 97
1, 37525, Note_off_c, 0, 58, 97
1, 37530, Note_on_c, 0, 63, 100
1, 37753, Note_off_c, 0, 63, 100
1, 38299, Note_on_c, 0, 73, 103
1, 38362, Note_off_c, 0, 73, 103
1, 38364, Note_on_c, 0, 70, 105
1, 41352, Note_off_c, 0, 70, 105
1, 41383, Note_on_c, 0, 69, 110
1, 41416, Note_off_c, 0, 69, 110
1, 41475, Note_on_c, 0, 69, 116
1, 41550, Note_off_c, 0, 69, 116
1, 41573, Note_on_c, 0, 68, 114
1, 41615, Note_off_c, 0, 68, 114
1, 41622, Note_on_c, 0, 66, 100
1, 41664, Note_off_c, 0, 66, 100
1, 41671, Note_on_c, 0, 63, 104
1, 41692, Note_off_c, 0, 63, 104
1, 41694, Note_on_c, 0, 62, 92
1, 41750, Note_off_c, 0, 62, 92
1, 41760, Note_on_c, 0, 63, 94
1, 41906, Note_off_c, 0, 63, 94
1, 42943, Note_on_c, 0, 70, 108
1, 44055, Note_off_c, 0, 70, 108
1, 44063, Note_on_c, 0, 70, 123
1, 44107, Note_off_c, 0, 70, 123
1, 44114, Note_on_c, 0, 72, 116
1, 44141, Note_off_c, 0, 72, 116
1, 44145, Note_on_c, 0, 73, 122
1, 44184, Note_off_c, 0, 73, 122
1, 44189, Note_on_c, 0, 75, 124
1, 44220, Note_off_c, 0, 75, 124
1, 44231, Note_on_c, 0, 77, 118
1, 44277, Note_off_c, 0, 77, 118
1, 44333, Note_on_c, 0, 73, 119
1, 44388, Note_off_c, 0, 73, 119
1, 44443, Note_on_c, 0, 69, 119
1, 44506, Note_off_c, 0, 69, 119
1, 44524, Note_on_c, 0, 72, 108
1, 44570, Note_off_c, 0, 72, 108
1, 44577, Note_on_c, 0, 69, 114
1, 44617, Note_off_c, 0, 69, 114
1, 44622, Note_on_c, 0, 70, 115
1, 44655, Note_off_c, 0, 70, 115
1, 44668, Note_on_c, 0, 65, 100
1, 44704, Note_off_c, 0, 65, 100
1, 44708, Note_on_c, 0, 68, 115
1, 44741, Note_off_c, 0, 68, 115
1, 44759, Note_on_c, 0, 70, 100
1, 44787, Note_off_c, 0, 70, 100
1, 44788, Note_on_c, 0, 68, 104
1, 44816, Note_off_c, 0, 68, 104
1, 44816, Note_on_c, 0, 67, 115
1, 44856, Note_off_c, 0, 67, 115
1, 44858, Note_on_c, 0, 66, 105
1, 44898, Note_off_c, 0, 66, 105
1, 44899, Note_on_c, 0, 65, 116
1, 44936, Note_off_c, 0, 65, 116
1, 44943, Note_on_c, 0, 64, 112
1, 44990, Note_off_c, 0, 64, 112
1, 44995, Note_on_c, 0, 63, 113
1, 45041, Note_off_c, 0, 63, 113
1, 45045, Note_on_c, 0, 59, 107
1, 45085, Note_off_c, 0, 59, 107
1, 45090, Note_on_c, 0, 61, 105
1, 45132, Note_off_c, 0, 61, 105
1, 45136, Note_on_c, 0, 59, 90
1, 45182, Note_off_c, 0, 59, 90
1, 45189, Note_on_c, 0, 58, 98
1, 45236, Note_off_c, 0, 58, 98
1, 45256, Note_on_c, 0, 60, 100
1, 45473, Note_off_c, 0, 60, 100
1, 45477, Note_on_c, 0, 68, 113
1, 45669, Note_off_c, 0, 68, 113
1, 45676, Note_on_c, 0, 70, 119
1, 45860, Note_off_c, 0, 70, 119
1, 45862, Note_on_c, 0, 66, 112
1, 46038, Note_off_c, 0, 66, 112
1, 46051, Note_on_c, 0, 68, 118
1, 46155, Note_off_c, 0, 68, 118
1, 46163, Note_on_c, 0, 65, 105
1, 46235, Note_off_c, 0, 65, 105
1, 46248, Note_on_c, 0, 66, 116
1, 46334, Note_off_c, 0, 66, 116
1, 46334, Note_on_c, 0, 62, 114
1, 46457, Note_off_c, 0, 62, 114
1, 46470, Note_on_c, 0, 58, 86
1, 46509, Note_off_c, 0, 58, 86
1, 46546, Note_on_c, 0, 65, 117
1, 46677, Note_off_c, 0, 65, 117
1, 46719, Note_on_c, 0, 63, 113
1, 46923, Note_off_c, 0, 63, 113
1, 46930, Note_on_c, 0, 65, 115
1, 47024, Note_off_c, 0, 65, 115
1, 47037, Note_on_c, 0, 60, 103
1, 47116, Note_off_c, 0, 60, 103
1, 47246, Note_on_c, 0, 67, 99
1, 47276, Note_off_c, 0, 67, 99
1, 47284, Note_on_c, 0, 68, 103
1, 47385, Note_off_c, 0, 68, 103
1, 47440, Note_on_c, 0, 69, 117
1, 47505, Note_off_c, 0, 69, 117
1, 47537, Note_on_c, 0, 68, 113
1, 47605, Note_off_c, 0, 68, 113
1, 47610, Note_on_c, 0, 66, 113
1, 47713, Note_off_c, 0, 66, 113
1, 47749, Note_on_c, 0, 67, 96
1, 47777, Note_off_c, 0, 67, 96
1, 47785, Note_on_c, 0, 68, 97
1, 47897, Note_off_c, 0, 68, 97
1, 47903, Note_on_c, 0, 63, 110
1, 47990, Note_off_c, 0, 63, 110
1, 48006, Note_on_c, 0, 58, 97
1, 48077, Note_off_c, 0, 58, 97
1, 48077, Note_on_c, 0, 61, 102
1, 48180, Note_off_c, 0, 61, 102
1, 48187, Note_on_c, 0, 63, 94
1, 48505, Note_off_c, 0, 63, 94
1, 49753, Note_on_c, 0, 70, 117
1, 49828, Note_off_c, 0, 70, 117
1, 49929, Note_on_c, 0, 75, 121
1, 50027, Note_off_c, 0, 75, 121
1, 50151, Note_on_c, 0, 80, 119
1, 50258, Note_off_c, 0, 80, 119
1, 50318, Note_on_c, 0, 81, 102
1, 50355, Note_off_c, 0, 81, 102
1, 50360, Note_on_c, 0, 79, 124
1, 50412, Note_off_c, 0, 79, 124
1, 50420, Note_on_c, 0, 80, 115
1, 50440, Note_off_c, 0, 80, 115
1, 50460, Note_on_c, 0, 81, 113
1, 50494, Note_off_c, 0, 81, 113
1, 50496, Note_on_c, 0, 79, 105
1, 50530, Note_off_c, 0, 79, 105
1, 50530, Note_on_c, 0, 77, 121
1, 50607, Note_off_c, 0, 77, 121
1, 50617, Note_on_c, 0, 76, 120
1, 50702, Note_off_c, 0, 76, 120
1, 50704, Note_on_c, 0, 73, 117
1, 50795, Note_off_c, 0, 73, 117
1, 50811, Note_on_c, 0, 74, 118
1, 50839, Note_off_c, 0, 74, 118
1, 50851, Note_on_c, 0, 72, 117
1, 50893, Note_off_c, 0, 72, 117
1, 50893, Note_on_c, 0, 70, 120
1, 50984, Note_off_c, 0, 70, 120
1, 50988, Note_on_c, 0, 68, 118
1, 51093, Note_off_c, 0, 68, 118
1, 51182, Note_on_c, 0, 72, 120
1, 51292, Note_off_c, 0, 72, 120
1, 51373, Note_on_c, 0, 75, 122
1, 51491, Note_off_c, 0, 75, 122
1, 51572, Note_on_c, 0, 79, 117
1, 51659, Note_off_c, 0, 79, 117
1, 51681, Note_on_c, 0, 75, 121
1, 51774, Note_off_c, 0, 75, 121
1, 51871, Note_on_c, 0, 71, 122
1, 51915, Note_off_c, 0, 71, 122
1, 51921, Note_on_c, 0, 70, 120
1, 51963, Note_off_c, 0, 70, 120
1, 51967, Note_on_c, 0, 72, 114
1, 52164, Note_off_c, 0, 72, 114
1, 52174, Note_on_c, 0, 71, 113
1, 52239, Note_off_c, 0, 71, 113
1, 52249, Note_on_c, 0, 68, 98
1, 52295, Note_off_c, 0, 68, 98
1, 52343, Note_on_c, 0, 67, 116
1, 52446, Note_off_c, 0, 67, 116
1, 52570, Note_on_c, 0, 68, 110
1, 52614, Note_off_c, 0, 68, 110
1, 52616, Note_on_c, 0, 70, 106
1, 52715, Note_off_c, 0, 70, 106
1, 52717, Note_on_c, 0, 72, 119
1, 52810, Note_off_c, 0, 72, 119
1, 52958, Note_on_c, 0, 66, 94
1, 52990, Note_off_c, 0, 66, 94
1, 53004, Note_on_c, 0, 68, 103
1, 53103, Note_off_c, 0, 68, 103
1, 53119, Note_on_c, 0, 70, 112
1, 53200, Note_off_c, 0, 70, 112
1, 53214, Note_on_c, 0, 67, 118
1, 53299, Note_off_c, 0, 67, 118
1, 53427, Note_on_c, 0, 68, 118
1, 53496, Note_off_c, 0, 68, 118
1, 53598, Note_on_c, 0, 68, 108
1, 53650, Note_off_c, 0, 68, 108
1, 53657, Note_on_c, 0, 69, 102
1, 53707, Note_off_c, 0, 69, 102
1, 53719, Note_on_c, 0, 68, 113
1, 53778, Note_off_c, 0, 68, 113
1, 53802, Note_on_c, 0, 66, 111
1, 53861, Note_off_c, 0, 66, 111
1, 53878, Note_on_c, 0, 63, 115
1, 54010, Note_off_c, 0, 63, 115
1, 54072, Note_on_c, 0, 61, 102
1, 54157, Note_off_c, 0, 61, 102
1, 54181, Note_on_c, 0, 63, 99
1, 54443, Note_off_c, 0, 63, 99
1, 54656, Note_on_c, 0, 67, 97
1, 54741, Note_off_c, 0, 67, 97
1, 54745, Note_on_c, 0, 68, 118
1, 54830, Note_off_c, 0, 68, 118
1, 54840, Note_on_c, 0, 68, 119
1, 54921, Note_off_c, 0, 68, 119
1, 54931, Note_on_c, 0, 68, 108
1, 55026, Note_off_c, 0, 68, 108
1, 55036, Note_on_c, 0, 68, 101
1, 55101, Note_off_c, 0, 68, 101
1, 55113, Note_on_c, 0, 68, 106
1, 55196, Note_off_c, 0, 68, 106
1, 55218, Note_on_c, 0, 68, 100
1, 55301, Note_off_c, 0, 68, 100
1, 55309, Note_on_c, 0, 68, 108
1, 55390, Note_off_c, 0, 68, 108
1, 55410, Note_on_c, 0, 68, 102
1, 55491, Note_off_c, 0, 68, 102
1, 55511, Note_on_c, 0, 68, 117
1, 55588, Note_off_c, 0, 68, 117
1, 55600, Note_on_c, 0, 70, 122
1, 55667, Note_off_c, 0, 70, 122
1, 55691, Note_on_c, 0, 63, 114
1, 55774, Note_off_c, 0, 63, 114
1, 55794, Note_on_c, 0, 63, 114
1, 55863, Note_off_c, 0, 63, 114
1, 55903, Note_on_c, 0, 63, 93
1, 55974, Note_off_c, 0, 63, 93
1, 56002, Note_on_c, 0, 63, 107
1, 56181, Note_off_c, 0, 63, 107
1, 56482, Note_on_c, 0, 72, 116
1, 56538, Note_off_c, 0, 72, 116
1, 56650, Note_on_c, 0, 71, 120
1, 56741, Note_off_c, 0, 71, 120
1, 56755, Note_on_c, 0, 70, 121
1, 56830, Note_off_c, 0, 70, 121
1, 56838, Note_on_c, 0, 66, 110
1, 56895, Note_off_c, 0, 66, 110
1, 56911, Note_on_c, 0, 67, 100
1, 57029, Note_off_c, 0, 67, 100
1, 57047, Note_on_c, 0, 70, 104
1, 57146, Note_off_c, 0, 70, 104
1, 57160, Note_on_c, 0, 66, 96
1, 57232, Note_off_c, 0, 66, 96
1, 57238, Note_on_c, 0, 67, 96
1, 57312, Note_off_c, 0, 67, 96
1, 57341, Note_on_c, 0, 63, 91
1, 57701, Note_off_c, 0, 63, 91
1, 57701, End_track
0, 0, End_of_file
