0, 0, Header, 1, 1, 192
1, 0, Start_track
1, 0, Title_t, "Melody"
1, 0, Tempo, 188679
1, 0, Key_signature, -1, "major"
1, 0, Time_signature, 4, 2, 24, 8
1, 4702, Note_on_c, 0, 70, 113
1, 4817, Note_off_c, 0, 70, 113
1, 4817, Note_on_c, 0, 69, 111
1, 4916, Note_off_c, 0, 69, 111
1, 4920, Note_on_c, 0, 66, 108
1, 5115, Note_off_c, 0, 66, 108
1, 5123, Note_on_c, 0, 61, 102
1, 5330, Note_off_c, 0, 61, 102
1, 5330, Note_on_c, 0, 57, 99
1, 5490, Note_off_c, 0, 57, 99
1, 5500, Note_on_c, 0, 64, 120
1, 5637, Note_off_c, 0, 64, 120
1, 5718, Note_on_c, 0, 61, 104
1, 5838, Note_off_c, 0, 61, 104
1, 5846, Note_on_c, 0, 62, 106
1, 6120, Note_off_c, 0, 62, 106
1, 6165, Note_on_c, 0, 64, 120
1, 6260, Note_off_c, 0, 64, 120
1, 6272, Note_on_c, 0, 65, 118
1, 6413, Note_off_c, 0, 65, 118
1, 6450, Note_on_c, 0, 67, 118
1, 6549, Note_off_c, 0, 67, 118
1, 6642, Note_on_c, 0, 69, 119
1, 6890, Note_off_c, 0, 69, 119
1, 6916, Note_on_c, 0, 65, 108
1, 7004, Note_off_c, 0, 65, 108
1, 7009, Note_on_c, 0, 67, 110
1, 7434, Note_off_c, 0, 67, 110
1, 7584, Note_on_c, 0, 65, 117
1, 7691, Note_off_c, 0, 65, 117
1, 7695, Note_on_c, 0, 64, 116
1, 7782, Note_off_c, 0, 64, 116
1, 7798, Note_on_c, 0, 63, 106
1, 7889, Note_off_c, 0, 63, 106
1, 7905, Note_on_c, 0, 67, 113
1, 7992, Note_off_c, 0, 67, 113
1, 7994, Note_on_c, 0, 63, 91
1, 8064, Note_off_c, 0, 63, 91
1, 8064, Note_on_c, 0, 62, 85
1, 8140, Note_off_c, 0, 62, 85
1, 8189, Note_on_c, 0, 65, 116
1, 8280, Note_off_c, 0, 65, 116
1, 8458, Note_on_c, 0, 57, 99
1, 8546, Note_off_c, 0, 57, 99
1, 8551, Note_on_c, 0, 58, 98
1, 8627, Note_off_c, 0, 58, 98
1, 8653, Note_on_c, 0, 63, 112
1, 8726, Note_off_c, 0, 63, 112
1, 8726, Note_on_c, 0, 60, 86
1, 8826, Note_off_c, 0, 60, 86
1, 8846, Note_on_c, 0, 61, 108
1, 8908, Note_off_c, 0, 61, 108
1, 8913, Note_on_c, 0, 62, 118
1, 8975, Note_off_c, 0, 62, 118
1, 9329, Note_on_c, 0, 60, 109
1, 9426, Note_off_c, 0, 60, 109
1, 9440, Note_on_c, 0, 57, 102
1, 9504, Note_off_c, 0, 57, 102
1, 9509, Note_on_c, 0, 58, 109
1, 9591, Note_off_c, 0, 58, 109
1, 9599, Note_on_c, 0, 60, 106
1, 9687, Note_off_c, 0, 60, 106
1, 9707, Note_on_c, 0, 62, 99
1, 9848, Note_off_c, 0, 62, 99
1, 9892, Note_on_c, 0, 67, 118
1, 9998, Note_off_c, 0, 67, 118
1, 10015, Note_on_c, 0, 64, 109
1, 10071, Note_off_c, 0, 64, 109
1, 10079, Note_on_c, 0, 65, 119
1, 10152, Note_off_c, 0, 65, 119
1, 10184, Note_on_c, 0, 61, 111
1, 10254, Note_off_c, 0, 61, 111
1, 10254, Note_on_c, 0, 59, 93
1, 10327, Note_off_c, 0, 59, 93
1, 10344, Note_on_c, 0, 57, 107
1, 10414, Note_off_c, 0, 57, 107
1, 10422, Note_on_c, 0, 56, 88
1, 10509, Note_off_c, 0, 56, 88
1, 11225, Note_on_c, 0, 67, 119
1, 11334, Note_off_c, 0, 67, 119
1, 11336, Note_on_c, 0, 64, 111
1, 11406, Note_off_c, 0, 64, 111
1, 11414, Note_on_c, 0, 65, 110
1, 11496, Note_off_c, 0, 65, 110
1, 11515, Note_on_c, 0, 67, 116
1, 11579, Note_off_c, 0, 67, 116
1, 11591, Note_on_c, 0, 69, 107
1, 11678, Note_off_c, 0, 69, 107
1, 11678, Note_on_c, 0, 67, 114
1, 11763, Note_off_c, 0, 67, 114
1, 11785, Note_on_c, 0, 66, 118
1, 11880, Note_off_c, 0, 66, 118
1, 11892, Note_on_c, 0, 69, 118
1, 11983, Note_off_c, 0, 69, 118
1, 11997, Note_on_c, 0, 67, 110
1, 12080, Note_off_c, 0, 67, 110
1, 12086, Note_on_c, 0, 69, 123
1, 12169, Note_off_c, 0, 69, 123
1, 12179, Note_on_c, 0, 70, 125
1, 12264, Note_off_c, 0, 70, 125
1, 12267, Note_on_c, 0, 72, 122
1, 12361, Note_off_c, 0, 72, 122
1, 12363, Note_on_c, 0, 73, 125
1, 12451, Note_off_c, 0, 73, 125
1, 12459, Note_on_c, 0, 74, 111
1, 12544, Note_off_c, 0, 74, 111
1, 12544, Note_on_c, 0, 72, 116
1, 12659, Note_off_c, 0, 72, 116
1, 12661, Note_on_c, 0, 71, 118
1, 12749, Note_off_c, 0, 71, 118
1, 12760, Note_on_c, 0, 70, 119
1, 12854, Note_off_c, 0, 70, 119
1, 12874, Note_on_c, 0, 69, 116
1, 12953, Note_off_c, 0, 69, 116
1, 12953, Note_on_c, 0, 67, 110
1, 13053, Note_off_c, 0, 67, 110
1, 13064, Note_on_c, 0, 65, 115
1, 13155, Note_off_c, 0, 65, 115
1, 13166, Note_on_c, 0, 64, 115
1, 13248, Note_off_c, 0, 64, 115
1, 13248, Note_on_c, 0, 61, 109
1, 13336, Note_off_c, 0, 61, 109
1, 13347, Note_on_c, 0, 58, 99
1, 13411, Note_off_c, 0, 58, 99
1, 13425, Note_on_c, 0, 59, 94
1, 13498, Note_off_c, 0, 59, 94
1, 13506, Note_on_c, 0, 60, 99
1, 13585, Note_off_c, 0, 60, 99
1, 13587, Note_on_c, 0, 62, 99
1, 13672, Note_off_c, 0, 62, 99
1, 13677, Note_on_c, 0, 64, 110
1, 13762, Note_off_c, 0, 64, 110
1, 13762, Note_on_c, 0, 65, 107
1, 13850, Note_off_c, 0, 65, 107
1, 13864, Note_on_c, 0, 67, 107
1, 13985, Note_off_c, 0, 67, 107
1, 13999, Note_on_c, 0, 64, 99
1, 14093, Note_on_c, 0, 67, 96
1, 14093, Note_off_c, 0, 64, 99
1, 14202, Note_off_c, 0, 67, 96
1, 14204, Note_on_c, 0, 68, 110
1, 14274, Note_off_c, 0, 68, 110
1, 14300, Note_on_c, 0, 68, 114
1, 14388, Note_off_c, 0, 68, 114
1, 14407, Note_on_c, 0, 69, 108
1, 14528, Note_off_c, 0, 69, 108
1, 14531, Note_on_c, 0, 70, 107
1, 14619, Note_off_c, 0, 70, 107
1, 14639, Note_on_c, 0, 70, 120
1, 14736, Note_off_c, 0, 70, 120
1, 14744, Note_on_c, 0, 68, 105
1, 14823, Note_off_c, 0, 68, 105
1, 14840, Note_on_c, 0, 69, 108
1, 14931, Note_off_c, 0, 69, 108
1, 14938, Note_on_c, 0, 70, 110
1, 15016, Note_off_c, 0, 70, 110
1, 15024, Note_on_c, 0, 70, 120
1, 15090, Note_off_c, 0, 70, 120
1, 15102, Note_on_c, 0, 69, 113
1, 15193, Note_off_c, 0, 69, 113
1, 15211, Note_on_c, 0, 68, 106
1, 15321, Note_off_c, 0, 68, 106
1, 15337, Note_on_c, 0, 69, 102
1, 15411, Note_off_c, 0, 69, 102
1, 15427, Note_on_c, 0, 70, 113
1, 15514, Note_off_c, 0, 70, 113
1, 15526, Note_on_c, 0, 69, 103
1, 15579, Note_off_c, 0, 69, 103
1, 15591, Note_on_c, 0, 68, 99
1, 15709, Note_off_c, 0, 68, 99
1, 15733, Note_on_c, 0, 69, 99
1, 15799, Note_off_c, 0, 69, 99
1, 15809, Note_on_c, 0, 70, 117
1, 15892, Note_off_c, 0, 70, 117
1, 15894, Note_on_c, 0, 69, 114
1, 15977, Note_off_c, 0, 69, 114
1, 15981, Note_on_c, 0, 68, 102
1, 16076, Note_off_c, 0, 68, 102
1, 16094, Note_on_c, 0, 69, 106
1, 16177, Note_off_c, 0, 69, 106
1, 16195, Note_on_c, 0, 70, 117
1, 16282, Note_off_c, 0, 70, 117
1, 16286, Note_on_c, 0, 69, 113
1, 16362, Note_off_c, 0, 69, 113
1, 16376, Note_on_c, 0, 68, 105
1, 16469, Note_off_c, 0, 68, 105
1, 16485, Note_on_c, 0, 69, 110
1, 16563, Note_off_c, 0, 69, 110
1, 16577, Note_on_c, 0, 70, 119
1, 16670, Note_off_c, 0, 70, 119
1, 16676, Note_on_c, 0, 69, 115
1, 16742, Note_off_c, 0, 69, 115
1, 16752, Note_on_c, 0, 68, 106
1, 16843, Note_off_c, 0, 68, 106
1, 16863, Note_on_c, 0, 69, 104
1, 16943, Note_off_c, 0, 69, 104
1, 16957, Note_on_c, 0, 70, 118
1, 17044, Note_off_c, 0, 70, 118
1, 17056, Note_on_c, 0, 69, 113
1, 17112, Note_off_c, 0, 69, 113
1, 17114, Note_on_c, 0, 68, 104
1, 17253, Note_off_c, 0, 68, 104
1, 17257, Note_on_c, 0, 69, 104
1, 17346, Note_off_c, 0, 69, 104
1, 17354, Note_on_c, 0, 70, 120
1, 17424, Note_off_c, 0, 70, 120
1, 17438, Note_on_c, 0, 69, 111
1, 17512, Note_off_c, 0, 69, 111
1, 17524, Note_on_c, 0, 68, 103
1, 17629, Note_off_c, 0, 68, 103
1, 17647, Note_on_c, 0, 69, 93
1, 17692, Note_off_c, 0, 69, 93
1, 17698, Note_on_c, 0, 70, 119
1, 17799, Note_off_c, 0, 70, 119
1, 17813, Note_on_c, 0, 69, 106
1, 17879, Note_off_c, 0, 69, 106
1, 17889, Note_on_c, 0, 68, 108
1, 17990, Note_off_c, 0, 68, 108
1, 18008, Note_on_c, 0, 69, 111
1, 18061, Note_off_c, 0, 69, 111
1, 18067, Note_on_c, 0, 74, 123
1, 18173, Note_off_c, 0, 74, 123
1, 18282, Note_on_c, 0, 71, 108
1, 18385, Note_off_c, 0, 71, 108
1, 18387, Note_on_c, 0, 72, 117
1, 18469, Note_off_c, 0, 72, 117
1, 18469, Note_on_c, 0, 73, 113
1, 18598, Note_off_c, 0, 73, 113
1, 19261, Note_on_c, 0, 77, 115
1, 19344, Note_off_c, 0, 77, 115
1, 19373, Note_on_c, 0, 76, 121
1, 19437, Note_off_c, 0, 76, 121
1, 19447, Note_on_c, 0, 75, 107
1, 19521, Note_off_c, 0, 75, 107
1, 19550, Note_on_c, 0, 79, 116
1, 19647, Note_off_c, 0, 79, 116
1, 19655, Note_on_c, 0, 73, 108
1, 19756, Note_off_c, 0, 73, 108
1, 19760, Note_on_c, 0, 70, 106
1, 19824, Note_off_c, 0, 70, 106
1, 19832, Note_on_c, 0, 72, 101
1, 19937, Note_off_c, 0, 72, 101
1, 19951, Note_on_c, 0, 70, 119
1, 20054, Note_off_c, 0, 70, 119
1, 20060, Note_on_c, 0, 67, 105
1, 20134, Note_off_c, 0, 67, 105
1, 20138, Note_on_c, 0, 68, 109
1, 20204, Note_off_c, 0, 68, 109
1, 20210, Note_on_c, 0, 69, 117
1, 20349, Note_off_c, 0, 69, 117
1, 20373, Note_on_c, 0, 61, 97
1, 20435, Note_off_c, 0, 61, 97
1, 20457, Note_on_c, 0, 62, 89
1, 20521, Note_off_c, 0, 62, 89
1, 20531, Note_on_c, 0, 63, 92
1, 20582, Note_off_c, 0, 63, 92
1, 20588, Note_on_c, 0, 65, 102
1, 20664, Note_off_c, 0, 65, 102
1, 20684, Note_on_c, 0, 63, 95
1, 20767, Note_off_c, 0, 63, 95
1, 20808, Note_on_c, 0, 66, 118
1, 20930, Note_off_c, 0, 66, 118
1, 20967, Note_on_c, 0, 57, 104
1, 21033, Note_off_c, 0, 57, 104
1, 21043, Note_on_c, 0, 58, 99
1, 21115, Note_off_c, 0, 58, 99
1, 21131, Note_on_c, 0, 63, 118
1, 21220, Note_off_c, 0, 63, 118
1, 21234, Note_on_c, 0, 62, 96
1, 21327, Note_off_c, 0, 62, 96
1, 21331, Note_on_c, 0, 58, 98
1, 21409, Note_off_c, 0, 58, 98
1, 21425, Note_on_c, 0, 60, 99
1, 21566, Note_off_c, 0, 60, 99
1, 21703, Note_on_c, 0, 60, 103
1, 21773, Note_off_c, 0, 60, 103
1, 21789, Note_on_c, 0, 62, 110
1, 21884, Note_off_c, 0, 62, 110
1, 21954, Note_on_c, 0, 65, 118
1, 22043, Note_off_c, 0, 65, 118
1, 22175, Note_on_c, 0, 67, 117
1, 22243, Note_off_c, 0, 67, 117
1, 22259, Note_on_c, 0, 68, 117
1, 22364, Note_off_c, 0, 68, 117
1, 22378, Note_on_c, 0, 67, 119
1, 22467, Note_on_c, 0, 65, 118
1, 22467, Note_off_c, 0, 67, 119
1, 22560, Note_off_c, 0, 65, 118
1, 22566, Note_on_c, 0, 61, 109
1, 22638, Note_off_c, 0, 61, 109
1, 22658, Note_on_c, 0, 59, 103
1, 22724, Note_off_c, 0, 59, 103
1, 22740, Note_on_c, 0, 60, 108
1, 22831, Note_off_c, 0, 60, 108
1, 22947, Note_on_c, 0, 70, 123
1, 23048, Note_off_c, 0, 70, 123
1, 23048, Note_on_c, 0, 68, 113
1, 23135, Note_off_c, 0, 68, 113
1, 23143, Note_on_c, 0, 69, 117
1, 23232, Note_off_c, 0, 69, 117
1, 23346, Note_on_c, 0, 67, 117
1, 23447, Note_off_c, 0, 67, 117
1, 23463, Note_on_c, 0, 64, 114
1, 23533, Note_off_c, 0, 64, 114
1, 23550, Note_on_c, 0, 66, 108
1, 23622, Note_off_c, 0, 66, 108
1, 23634, Note_on_c, 0, 69, 111
1, 23700, Note_off_c, 0, 69, 111
1, 23720, Note_on_c, 0, 63, 108
1, 23800, Note_off_c, 0, 63, 108
1, 23812, Note_on_c, 0, 61, 98
1, 23886, Note_off_c, 0, 61, 98
1, 23906, Note_on_c, 0, 61, 95
1, 23997, Note_off_c, 0, 61, 95
1, 24113, Note_on_c, 0, 69, 114
1, 24191, Note_off_c, 0, 69, 114
1, 24207, Note_on_c, 0, 66, 113
1, 24269, Note_off_c, 0, 66, 113
1, 24283, Note_on_c, 0, 67, 112
1, 24359, Note_off_c, 0, 67, 112
1, 24379, Note_on_c, 0, 69, 121
1, 24448, Note_off_c, 0, 69, 121
1, 24459, Note_on_c, 0, 70, 124
1, 24529, Note_off_c, 0, 70, 124
1, 24558, Note_on_c, 0, 72, 127
1, 24643, Note_off_c, 0, 72, 127
1, 24663, Note_on_c, 0, 73, 124
1, 24751, Note_off_c, 0, 73, 124
1, 24751, Note_on_c, 0, 74, 113
1, 24826, Note_off_c, 0, 74, 113
1, 24842, Note_on_c, 0, 75, 107
1, 24940, Note_off_c, 0, 75, 107
1, 24954, Note_on_c, 0, 71, 111
1, 25034, Note_off_c, 0, 71, 111
1, 25048, Note_on_c, 0, 70, 121
1, 25137, Note_off_c, 0, 70, 121
1, 25139, Note_on_c, 0, 69, 119
1, 25238, Note_off_c, 0, 69, 119
1, 25252, Note_on_c, 0, 67, 114
1, 25341, Note_off_c, 0, 67, 114
1, 25347, Note_on_c, 0, 65, 121
1, 25436, Note_off_c, 0, 65, 121
1, 25454, Note_on_c, 0, 64, 110
1, 25534, Note_off_c, 0, 64, 110
1, 25543, Note_on_c, 0, 61, 114
1, 25628, Note_off_c, 0, 61, 114
1, 25630, Note_on_c, 0, 58, 104
1, 25724, Note_off_c, 0, 58, 104
1, 25726, Note_on_c, 0, 59, 102
1, 25796, Note_off_c, 0, 59, 102
1, 25801, Note_on_c, 0, 60, 99
1, 25874, Note_off_c, 0, 60, 99
1, 25891, Note_on_c, 0, 62, 106
1, 25967, Note_off_c, 0, 62, 106
1, 25975, Note_on_c, 0, 64, 112
1, 26057, Note_off_c, 0, 64, 112
1, 26074, Note_on_c, 0, 65, 112
1, 26171, Note_off_c, 0, 65, 112
1, 26173, Note_on_c, 0, 67, 116
1, 26261, Note_off_c, 0, 67, 116
1, 26284, Note_on_c, 0, 68, 109
1, 26381, Note_off_c, 0, 68, 109
1, 26404, Note_on_c, 0, 66, 111
1, 26477, Note_off_c, 0, 66, 111
1, 26477, Note_on_c, 0, 67, 118
1, 26550, Note_off_c, 0, 67, 118
1, 26564, Note_on_c, 0, 69, 109
1, 26658, Note_off_c, 0, 69, 109
1, 26677, Note_on_c, 0, 65, 105
1, 26756, Note_off_c, 0, 65, 105
1, 27141, Note_on_c, 0, 58, 100
1, 27220, Note_off_c, 0, 58, 100
1, 27234, Note_on_c, 0, 57, 109
1, 27346, Note_off_c, 0, 57, 109
1, 27354, Note_on_c, 0, 58, 102
1, 27436, Note_off_c, 0, 58, 102
1, 27462, Note_on_c, 0, 60, 99
1, 27541, Note_off_c, 0, 60, 99
1, 27546, Note_on_c, 0, 62, 103
1, 27646, Note_off_c, 0, 62, 103
1, 27646, Note_on_c, 0, 64, 104
1, 27713, Note_off_c, 0, 64, 104
1, 27713, Note_on_c, 0, 65, 119
1, 27828, Note_off_c, 0, 65, 119
1, 27857, Note_on_c, 0, 62, 111
1, 27945, Note_off_c, 0, 62, 111
1, 27945, Note_on_c, 0, 63, 101
1, 28033, Note_off_c, 0, 63, 101
1, 28044, Note_on_c, 0, 65, 115
1, 28153, Note_off_c, 0, 65, 115
1, 28173, Note_on_c, 0, 66, 108
1, 28237, Note_off_c, 0, 66, 108
1, 28263, Note_on_c, 0, 68, 97
1, 28292, Note_off_c, 0, 68, 97
1, 28318, Note_on_c, 0, 72, 125
1, 28409, Note_off_c, 0, 72, 125
1, 28420, Note_on_c, 0, 71, 115
1, 28499, Note_off_c, 0, 71, 115
1, 28499, Note_on_c, 0, 70, 117
1, 28584, Note_off_c, 0, 70, 117
1, 28607, Note_on_c, 0, 68, 114
1, 28677, Note_on_c, 0, 65, 103
1, 28677, Note_off_c, 0, 68, 114
1, 28771, Note_off_c, 0, 65, 103
1, 28771, Note_on_c, 0, 66, 110
1, 28862, Note_off_c, 0, 66, 110
1, 28862, Note_on_c, 0, 67, 102
1, 28935, Note_off_c, 0, 67, 102
1, 28937, Note_on_c, 0, 70, 114
1, 29028, Note_off_c, 0, 70, 114
1, 29030, Note_on_c, 0, 63, 110
1, 29106, Note_off_c, 0, 63, 110
1, 29230, Note_on_c, 0, 63, 113
1, 29312, Note_off_c, 0, 63, 113
1, 29317, Note_on_c, 0, 65, 115
1, 29390, Note_off_c, 0, 65, 115
1, 29404, Note_on_c, 0, 67, 112
1, 29483, Note_off_c, 0, 67, 112
1, 29491, Note_on_c, 0, 68, 105
1, 29585, Note_off_c, 0, 68, 105
1, 29626, Note_on_c, 0, 70, 124
1, 29705, Note_off_c, 0, 70, 124
1, 29722, Note_on_c, 0, 68, 117
1, 29801, Note_off_c, 0, 68, 117
1, 29812, Note_on_c, 0, 67, 107
1, 29906, Note_off_c, 0, 67, 107
1, 29923, Note_on_c, 0, 65, 119
1, 29996, Note_off_c, 0, 65, 119
1, 30007, Note_on_c, 0, 64, 114
1, 30086, Note_off_c, 0, 64, 114
1, 30086, Note_on_c, 0, 67, 112
1, 30177, Note_off_c, 0, 67, 112
1, 30177, Note_on_c, 0, 70, 117
1, 30271, Note_off_c, 0, 70, 117
1, 30312, Note_on_c, 0, 73, 121
1, 30394, Note_off_c, 0, 73, 121
1, 30399, Note_on_c, 0, 72, 109
1, 30508, Note_off_c, 0, 72, 109
1, 30779, Note_on_c, 0, 79, 123
1, 31353, Note_off_c, 0, 79, 123
1, 31353, Note_on_c, 0, 77, 94
1, 31465, Note_off_c, 0, 77, 94
1, 31473, Note_on_c, 0, 75, 113
1, 31576, Note_off_c, 0, 75, 113
1, 31580, Note_on_c, 0, 74, 113
1, 31674, Note_off_c, 0, 74, 113
1, 31678, Note_on_c, 0, 72, 121
1, 31761, Note_off_c, 0, 72, 121
1, 31761, Note_on_c, 0, 70, 98
1, 31825, Note_off_c, 0, 70, 98
1, 31833, Note_on_c, 0, 70, 105
1, 31936, Note_off_c, 0, 70, 105
1, 31941, Note_on_c, 0, 67, 109
1, 32017, Note_off_c, 0, 67, 109
1, 32040, Note_on_c, 0, 68, 105
1, 32143, Note_off_c, 0, 68, 105
1, 32145, Note_on_c, 0, 75, 118
1, 32239, Note_off_c, 0, 75, 118
1, 32244, Note_on_c, 0, 73, 115
1, 32276, Note_off_c, 0, 73, 115
1, 32276, Note_on_c, 0, 71, 114
1, 32308, Note_off_c, 0, 71, 114
1, 32310, Note_on_c, 0, 70, 120
1, 32419, Note_off_c, 0, 70, 120
1, 32427, Note_on_c, 0, 68, 118
1, 32518, Note_off_c, 0, 68, 118
1, 32526, Note_on_c, 0, 65, 109
1, 32596, Note_off_c, 0, 65, 109
1, 32613, Note_on_c, 0, 66, 109
1, 32695, Note_off_c, 0, 66, 109
1, 32700, Note_on_c, 0, 67, 110
1, 32788, Note_off_c, 0, 67, 110
1, 33287, Note_on_c, 0, 67, 116
1, 33372, Note_off_c, 0, 67, 116
1, 33389, Note_on_c, 0, 66, 120
1, 33462, Note_off_c, 0, 66, 120
1, 33482, Note_on_c, 0, 67, 103
1, 33552, Note_off_c, 0, 67, 103
1, 33572, Note_on_c, 0, 69, 121
1, 33660, Note_off_c, 0, 69, 121
1, 33668, Note_on_c, 0, 71, 115
1, 33756, Note_off_c, 0, 71, 115
1, 33835, Note_on_c, 0, 74, 122
1, 33929, Note_off_c, 0, 74, 122
1, 33940, Note_on_c, 0, 71, 115
1, 34031, Note_off_c, 0, 71, 115
1, 34042, Note_on_c, 0, 72, 112
1, 34101, Note_off_c, 0, 72, 112
1, 34112, Note_on_c, 0, 74, 107
1, 34159, Note_off_c, 0, 74, 107
1, 34175, Note_on_c, 0, 72, 118
1, 34249, Note_off_c, 0, 72, 118
1, 34253, Note_on_c, 0, 71, 111
1, 34317, Note_off_c, 0, 71, 111
1, 34325, Note_on_c, 0, 69, 117
1, 34426, Note_off_c, 0, 69, 117
1, 34428, Note_on_c, 0, 67, 110
1, 34504, Note_off_c, 0, 67, 110
1, 34514, Note_on_c, 0, 68, 115
1, 34590, Note_off_c, 0, 68, 115
1, 34598, Note_on_c, 0, 69, 105
1, 34687, Note_off_c, 0, 69, 105
1, 34693, Note_on_c, 0, 65, 99
1, 34778, Note_off_c, 0, 65, 99
1, 34778, Note_on_c, 0, 64, 96
1, 34875, Note_off_c, 0, 64, 96
1, 34881, Note_on_c, 0, 63, 95
1, 34964, Note_off_c, 0, 63, 95
1, 34972, Note_on_c, 0, 67, 120
1, 35167, Note_off_c, 0, 67, 120
1, 35177, Note_on_c, 0, 64, 116
1, 35280, Note_off_c, 0, 64, 116
1, 35294, Note_on_c, 0, 61, 96
1, 35350, Note_off_c, 0, 61, 96
1, 35368, Note_on_c, 0, 64, 115
1, 35571, Note_off_c, 0, 64, 115
1, 36007, Note_on_c, 0, 66, 123
1, 36139, Note_off_c, 0, 66, 123
1, 36170, Note_on_c, 0, 73, 111
1, 36373, Note_off_c, 0, 73, 111
1, 36385, Note_on_c, 0, 74, 118
1, 36549, Note_off_c, 0, 74, 118
1, 36549, Note_on_c, 0, 75, 117
1, 36758, Note_off_c, 0, 75, 117
1, 37115, Note_on_c, 0, 72, 116
1, 37179, Note_off_c, 0, 72, 116
1, 37208, Note_on_c, 0, 73, 120
1, 37286, Note_off_c, 0, 73, 120
1, 37308, Note_on_c, 0, 74, 110
1, 37391, Note_off_c, 0, 74, 110
1, 37391, Note_on_c, 0, 70, 112
1, 37465, Note_off_c, 0, 70, 112
1, 37475, Note_on_c, 0, 67, 92
1, 37624, Note_off_c, 0, 67, 92
1, 37684, Note_on_c, 0, 72, 116
1, 37771, Note_off_c, 0, 72, 116
1, 37978, Note_on_c, 0, 71, 121
1, 38052, Note_off_c, 0, 71, 121
1, 38064, Note_on_c, 0, 72, 125
1, 38248, Note_off_c, 0, 72, 125
1, 38256, Note_on_c, 0, 67, 117
1, 38353, Note_off_c, 0, 67, 117
1, 38367, Note_on_c, 0, 68, 105
1, 38423, Note_off_c, 0, 68, 105
1, 38435, Note_on_c, 0, 69, 118
1, 38501, Note_off_c, 0, 69, 118
1, 38540, Note_on_c, 0, 65, 103
1, 38604, Note_off_c, 0, 65, 103
1, 38612, Note_on_c, 0, 64, 98
1, 38678, Note_off_c, 0, 64, 98
1, 38700, Note_on_c, 0, 62, 86
1, 38766, Note_off_c, 0, 62, 86
1, 38809, Note_on_c, 0, 67, 115
1, 38889, Note_off_c, 0, 67, 115
1, 38905, Note_on_c, 0, 65, 117
1, 38965, Note_off_c, 0, 65, 117
1, 38977, Note_on_c, 0, 62, 102
1, 39055, Note_off_c, 0, 62, 102
1, 39066, Note_on_c, 0, 63, 107
1, 39151, Note_off_c, 0, 63, 107
1, 39165, Note_on_c, 0, 64, 105
1, 39235, Note_off_c, 0, 64, 105
1, 39362, Note_on_c, 0, 71, 104
1, 39438, Note_off_c, 0, 71, 104
1, 39449, Note_on_c, 0, 69, 98
1, 39515, Note_off_c, 0, 69, 98
1, 39522, Note_on_c, 0, 71, 125
1, 39674, Note_off_c, 0, 71, 125
1, 39769, Note_on_c, 0, 66, 114
1, 39848, Note_off_c, 0, 66, 114
1, 39969, Note_on_c, 0, 63, 118
1, 40101, Note_off_c, 0, 63, 118
1, 40115, Note_on_c, 0, 60, 96
1, 40179, Note_off_c, 0, 60, 96
1, 40373, Note_on_c, 0, 57, 108
1, 40535, Note_off_c, 0, 57, 108
1, 40549, Note_on_c, 0, 61, 108
1, 40613, Note_off_c, 0, 61, 108
1, 40627, Note_on_c, 0, 64, 117
1, 40691, Note_off_c, 0, 64, 117
1, 40723, Note_on_c, 0, 69, 118
1, 40808, Note_off_c, 0, 69, 118
1, 40816, Note_on_c, 0, 64, 93
1, 40895, Note_off_c, 0, 64, 93
1, 40903, Note_on_c, 0, 60, 91
1, 40965, Note_off_c, 0, 60, 91
1, 41003, Note_on_c, 0, 59, 100
1, 41091, Note_off_c, 0, 59, 100
1, 41126, Note_on_c, 0, 66, 108
1, 41193, Note_off_c, 0, 66, 108
1, 41216, Note_on_c, 0, 69, 121
1, 41629, Note_off_c, 0, 69, 121
1, 41643, Note_on_c, 0, 67, 110
1, 41707, Note_off_c, 0, 67, 110
1, 41751, Note_on_c, 0, 69, 122
1, 42040, Note_off_c, 0, 69, 122
1, 42057, Note_on_c, 0, 65, 122
1, 42251, Note_off_c, 0, 65, 122
1, 42262, Note_on_c, 0, 61, 112
1, 42462, Note_off_c, 0, 61, 112
1, 42488, Note_on_c, 0, 57, 106
1, 42606, Note_off_c, 0, 57, 106
1, 42614, Note_on_c, 0, 64, 111
1, 42741, Note_off_c, 0, 64, 111
1, 42791, Note_on_c, 0, 57, 106
1, 43012, Note_off_c, 0, 57, 106
1, 43056, Note_on_c, 0, 57, 103
1, 43380, Note_off_c, 0, 57, 103
1, 43787, Note_on_c, 0, 73, 117
1, 43857, Note_off_c, 0, 73, 117
1, 43865, Note_on_c, 0, 74, 122
1, 43962, Note_off_c, 0, 74, 122
1, 43982, Note_on_c, 0, 77, 118
1, 44082, Note_off_c, 0, 77, 118
1, 44084, Note_on_c, 0, 76, 115
1, 44166, Note_off_c, 0, 76, 115
1, 44174, Note_on_c, 0, 75, 114
1, 44277, Note_off_c, 0, 75, 114
1, 44277, Note_on_c, 0, 74, 120
1, 44365, Note_off_c, 0, 74, 120
1, 44384, Note_on_c, 0, 72, 118
1, 44469, Note_off_c, 0, 72, 118
1, 44483, Note_on_c, 0, 70, 122
1, 44572, Note_off_c, 0, 70, 122
1, 44584, Note_on_c, 0, 69, 119
1, 44664, Note_off_c, 0, 69, 119
1, 44668, Note_on_c, 0, 67, 110
1, 44738, Note_off_c, 0, 67, 110
1, 44750, Note_on_c, 0, 65, 117
1, 44835, Note_off_c, 0, 65, 117
1, 44853, Note_on_c, 0, 64, 111
1, 44933, Note_off_c, 0, 64, 111
1, 44939, Note_on_c, 0, 63, 110
1, 45026, Note_off_c, 0, 63, 110
1, 45042, Note_on_c, 0, 67, 115
1, 45110, Note_off_c, 0, 67, 115
1, 45116, Note_on_c, 0, 62, 100
1, 45199, Note_off_c, 0, 62, 100
1, 45219, Note_on_c, 0, 60, 86
1, 45307, Note_off_c, 0, 60, 86
1, 45314, Note_on_c, 0, 65, 114
1, 45455, Note_off_c, 0, 65, 114
1, 45461, Note_on_c, 0, 58, 98
1, 45541, Note_off_c, 0, 58, 98
1, 45559, Note_on_c, 0, 62, 93
1, 45619, Note_off_c, 0, 62, 93
1, 45621, Note_on_c, 0, 63, 118
1, 45697, Note_off_c, 0, 63, 118
1, 45701, Note_on_c, 0, 61, 110
1, 45833, Note_off_c, 0, 61, 110
1, 45839, Note_on_c, 0, 62, 112
1, 45934, Note_off_c, 0, 62, 112
1, 45940, Note_on_c, 0, 63, 121
1, 46004, Note_off_c, 0, 63, 121
1, 46016, Note_on_c, 0, 64, 118
1, 46101, Note_off_c, 0, 64, 118
1, 46117, Note_on_c, 0, 65, 123
1, 46191, Note_off_c, 0, 65, 123
1, 46191, Note_on_c, 0, 67, 117
1, 46288, Note_off_c, 0, 67, 117
1, 46288, Note_on_c, 0, 69, 118
1, 46381, Note_off_c, 0, 69, 118
1, 46401, Note_on_c, 0, 70, 122
1, 46484, Note_off_c, 0, 70, 122
1, 46494, Note_on_c, 0, 72, 122
1, 46616, Note_off_c, 0, 72, 122
1, 46622, Note_on_c, 0, 69, 113
1, 46688, Note_off_c, 0, 69, 113
1, 46694, Note_on_c, 0, 70, 116
1, 46754, Note_off_c, 0, 70, 116
1, 46766, Note_on_c, 0, 72, 124
1, 46840, Note_off_c, 0, 72, 124
1, 46860, Note_on_c, 0, 73, 110
1, 46918, Note_off_c, 0, 73, 110
1, 46922, Note_on_c, 0, 74, 108
1, 47021, Note_off_c, 0, 74, 108
1, 47035, Note_on_c, 0, 76, 122
1, 47138, Note_off_c, 0, 76, 122
1, 47150, Note_on_c, 0, 77, 124
1, 47239, Note_off_c, 0, 77, 124
1, 47239, Note_on_c, 0, 76, 116
1, 47319, Note_off_c, 0, 76, 116
1, 47323, Note_on_c, 0, 74, 122
1, 47403, Note_off_c, 0, 74, 122
1, 47403, Note_on_c, 0, 72, 117
1, 47500, Note_off_c, 0, 72, 117
1, 47514, Note_on_c, 0, 73, 115
1, 47582, Note_off_c, 0, 73, 115
1, 47600, Note_on_c, 0, 74, 118
1, 47687, Note_off_c, 0, 74, 118
1, 47687, Note_on_c, 0, 70, 115
1, 47765, Note_off_c, 0, 70, 115
1, 47783, Note_on_c, 0, 69, 114
1, 47872, Note_off_c, 0, 69, 114
1, 47880, Note_on_c, 0, 68, 107
1, 47965, Note_off_c, 0, 68, 107
1, 47971, Note_on_c, 0, 72, 116
1, 48064, Note_off_c, 0, 72, 116
1, 48080, Note_on_c, 0, 70, 119
1, 48169, Note_off_c, 0, 70, 119
1, 48177, Note_on_c, 0, 67, 111
1, 48255, Note_off_c, 0, 67, 111
1, 48265, Note_on_c, 0, 68, 106
1, 48341, Note_off_c, 0, 68, 106
1, 48353, Note_on_c, 0, 69, 119
1, 48454, Note_off_c, 0, 69, 119
1, 48460, Note_on_c, 0, 67, 115
1, 48534, Note_off_c, 0, 67, 115
1, 48540, Note_on_c, 0, 66, 111
1, 48645, Note_off_c, 0, 66, 111
1, 48657, Note_on_c, 0, 69, 119
1, 48740, Note_off_c, 0, 69, 119
1, 48752, Note_on_c, 0, 67, 117
1, 48814, Note_off_c, 0, 67, 117
1, 48840, Note_on_c, 0, 69, 123
1, 48902, Note_off_c, 0, 69, 123
1, 48924, Note_on_c, 0, 70, 125
1, 48988, Note_off_c, 0, 70, 125
1, 49077, Note_on_c, 0, 72, 107
1, 49133, Note_off_c, 0, 72, 107
1, 49143, Note_on_c, 0, 73, 123
1, 49232, Note_off_c, 0, 73, 123
1, 49246, Note_on_c, 0, 74, 95
1, 49310, Note_off_c, 0, 74, 95
1, 49316, Note_on_c, 0, 72, 123
1, 49411, Note_off_c, 0, 72, 123
1, 49425, Note_on_c, 0, 71, 121
1, 49495, Note_off_c, 0, 71, 121
1, 49513, Note_on_c, 0, 70, 122
1, 49591, Note_off_c, 0, 70, 122
1, 49605, Note_on_c, 0, 69, 123
1, 49698, Note_off_c, 0, 69, 123
1, 49716, Note_on_c, 0, 67, 115
1, 49799, Note_off_c, 0, 67, 115
1, 49803, Note_on_c, 0, 65, 117
1, 49892, Note_off_c, 0, 65, 117
1, 49898, Note_on_c, 0, 64, 119
1, 49976, Note_off_c, 0, 64, 119
1, 50005, Note_on_c, 0, 61, 108
1, 50081, Note_off_c, 0, 61, 108
1, 50223, Note_on_c, 0, 59, 99
1, 50293, Note_off_c, 0, 59, 99
1, 50351, Note_on_c, 0, 63, 112
1, 50423, Note_off_c, 0, 63, 112
1, 50429, Note_on_c, 0, 64, 113
1, 50491, Note_off_c, 0, 64, 113
1, 50501, Note_on_c, 0, 65, 114
1, 50613, Note_off_c, 0, 65, 114
1, 50623, Note_on_c, 0, 67, 111
1, 50726, Note_off_c, 0, 67, 111
1, 50738, Note_on_c, 0, 64, 109
1, 50823, Note_off_c, 0, 64, 109
1, 50825, Note_on_c, 0, 65, 113
1, 50926, Note_off_c, 0, 65, 113
1, 50934, Note_on_c, 0, 67, 109
1, 51019, Note_off_c, 0, 67, 109
1, 51027, Note_on_c, 0, 68, 108
1, 51107, Note_off_c, 0, 68, 108
1, 51111, Note_on_c, 0, 69, 104
1, 51198, Note_off_c, 0, 69, 104
1, 51216, Note_on_c, 0, 74, 124
1, 51319, Note_off_c, 0, 74, 124
1, 51331, Note_on_c, 0, 73, 122
1, 51416, Note_off_c, 0, 73, 122
1, 51428, Note_on_c, 0, 72, 114
1, 51515, Note_off_c, 0, 72, 114
1, 51546, Note_on_c, 0, 62, 91
1, 51604, Note_off_c, 0, 62, 91
1, 51604, Note_on_c, 0, 65, 98
1, 51662, Note_off_c, 0, 65, 98
1, 51680, Note_on_c, 0, 70, 109
1, 51769, Note_off_c, 0, 70, 109
1, 51775, Note_on_c, 0, 69, 113
1, 51880, Note_off_c, 0, 69, 113
1, 51896, Note_on_c, 0, 66, 95
1, 51949, Note_off_c, 0, 66, 95
1, 51957, Note_on_c, 0, 64, 87
1, 52017, Note_off_c, 0, 64, 87
1, 52046, Note_on_c, 0, 68, 89
1, 52112, Note_off_c, 0, 68, 89
1, 52126, Note_on_c, 0, 69, 107
1, 52200, Note_off_c, 0, 69, 107
1, 52214, Note_on_c, 0, 70, 107
1, 52292, Note_off_c, 0, 70, 107
1, 52304, Note_on_c, 0, 69, 103
1, 52364, Note_off_c, 0, 69, 103
1, 52368, Note_on_c, 0, 68, 95
1, 52465, Note_off_c, 0, 68, 95
1, 52491, Note_on_c, 0, 70, 117
1, 52650, Note_off_c, 0, 70, 117
1, 52660, Note_on_c, 0, 69, 109
1, 52703, Note_off_c, 0, 69, 109
1, 52705, Note_on_c, 0, 68, 102
1, 52775, Note_off_c, 0, 68, 102
1, 52783, Note_on_c, 0, 69, 103
1, 52851, Note_off_c, 0, 69, 103
1, 52861, Note_on_c, 0, 70, 121
1, 52973, Note_off_c, 0, 70, 121
1, 52973, Note_on_c, 0, 69, 117
1, 53047, Note_off_c, 0, 69, 117
1, 53059, Note_on_c, 0, 68, 105
1, 53144, Note_off_c, 0, 68, 105
1, 53168, Note_on_c, 0, 69, 108
1, 53236, Note_off_c, 0, 69, 108
1, 53289, Note_on_c, 0, 73, 118
1, 53345, Note_off_c, 0, 73, 118
1, 53361, Note_on_c, 0, 74, 115
1, 53865, Note_off_c, 0, 74, 115
1, 54425, Note_on_c, 0, 73, 116
1, 54487, Note_off_c, 0, 73, 116
1, 54501, Note_on_c, 0, 74, 115
1, 54746, Note_off_c, 0, 74, 115
1, 54895, Note_on_c, 0, 76, 113
1, 54961, Note_off_c, 0, 76, 113
1, 54973, Note_on_c, 0, 77, 122
1, 55215, Note_off_c, 0, 77, 122
1, 55252, Note_on_c, 0, 69, 109
1, 55640, Note_off_c, 0, 69, 109
1, 56485, Note_on_c, 0, 80, 101
1, 56532, Note_off_c, 0, 80, 101
1, 56532, Note_on_c, 0, 82, 109
1, 56799, Note_off_c, 0, 82, 109
1, 56815, Note_on_c, 0, 81, 109
1, 56906, Note_off_c, 0, 81, 109
1, 56970, Note_on_c, 0, 79, 108
1, 57030, Note_off_c, 0, 79, 108
1, 57123, Note_on_c, 0, 77, 112
1, 57214, Note_off_c, 0, 77, 112
1, 57251, Note_on_c, 0, 76, 115
1, 57311, Note_off_c, 0, 76, 115
1, 57327, Note_on_c, 0, 75, 119
1, 57401, Note_off_c, 0, 75, 119
1, 57471, Note_on_c, 0, 74, 119
1, 57535, Note_off_c, 0, 74, 119
1, 57535, Note_on_c, 0, 72, 122
1, 57640, Note_off_c, 0, 72, 122
1, 57648, Note_on_c, 0, 70, 114
1, 57722, Note_off_c, 0, 70, 114
1, 57736, Note_on_c, 0, 69, 118
1, 57835, Note_off_c, 0, 69, 118
1, 57859, Note_on_c, 0, 67, 100
1, 57915, Note_off_c, 0, 67, 100
1, 57917, Note_on_c, 0, 64, 99
1, 57970, Note_off_c, 0, 64, 99
1, 58008, Note_on_c, 0, 61, 100
1, 58126, Note_off_c, 0, 61, 100
1, 58137, Note_on_c, 0, 62, 106
1, 58196, Note_off_c, 0, 62, 106
1, 58216, Note_on_c, 0, 63, 109
1, 58286, Note_off_c, 0, 63, 109
1, 58297, Note_on_c, 0, 64, 108
1, 58353, Note_off_c, 0, 64, 108
1, 58361, Note_on_c, 0, 65, 118
1, 58431, Note_off_c, 0, 65, 118
1, 58442, Note_on_c, 0, 67, 109
1, 58527, Note_off_c, 0, 67, 109
1, 58535, Note_on_c, 0, 69, 109
1, 58647, Note_off_c, 0, 69, 109
1, 58652, Note_on_c, 0, 70, 112
1, 58716, Note_off_c, 0, 70, 112
1, 58727, Note_on_c, 0, 72, 116
1, 58842, Note_off_c, 0, 72, 116
1, 58856, Note_on_c, 0, 69, 118
1, 58929, Note_off_c, 0, 69, 118
1, 59434, Note_on_c, 0, 78, 101
1, 59490, Note_off_c, 0, 78, 101
1, 59490, Note_on_c, 0, 81, 10
1, 60630, Note_off_c, 0, 81, 10
1, 60638, Note_on_c, 0, 79, 111
1, 60682, Note_off_c, 0, 79, 111
1, 60699, Note_on_c, 0, 83, 118
1, 60743, Note_off_c, 0, 83, 118
1, 60754, Note_on_c, 0, 81, 102
1, 60807, Note_off_c, 0, 81, 102
1, 60827, Note_on_c, 0, 77, 120
1, 60939, Note_off_c, 0, 77, 120
1, 60947, Note_on_c, 0, 76, 115
1, 61050, Note_off_c, 0, 76, 115
1, 61085, Note_on_c, 0, 74, 117
1, 61132, Note_off_c, 0, 74, 117
1, 61140, Note_on_c, 0, 72, 107
1, 61183, Note_off_c, 0, 72, 107
1, 61185, Note_on_c, 0, 74, 118
1, 61236, Note_off_c, 0, 74, 118
1, 61244, Note_on_c, 0, 72, 114
1, 61300, Note_off_c, 0, 72, 114
1, 61310, Note_on_c, 0, 71, 115
1, 61380, Note_off_c, 0, 71, 115
1, 61386, Note_on_c, 0, 70, 119
1, 61491, Note_off_c, 0, 70, 119
1, 61497, Note_on_c, 0, 69, 116
1, 61573, Note_off_c, 0, 69, 116
1, 61585, Note_on_c, 0, 67, 109
1, 61665, Note_off_c, 0, 67, 109
1, 61694, Note_on_c, 0, 65, 119
1, 61758, Note_off_c, 0, 65, 119
1, 61766, Note_on_c, 0, 64, 119
1, 61857, Note_off_c, 0, 64, 119
1, 61879, Note_on_c, 0, 61, 110
1, 61955, Note_off_c, 0, 61, 110
1, 61969, Note_on_c, 0, 58, 104
1, 62060, Note_off_c, 0, 58, 104
1, 62070, Note_on_c, 0, 59, 104
1, 62140, Note_off_c, 0, 59, 104
1, 62142, Note_on_c, 0, 61, 108
1, 62183, Note_off_c, 0, 61, 108
1, 62201, Note_on_c, 0, 62, 111
1, 62261, Note_off_c, 0, 62, 111
1, 62279, Note_on_c, 0, 64, 112
1, 62378, Note_off_c, 0, 64, 112
1, 62388, Note_on_c, 0, 65, 113
1, 62458, Note_off_c, 0, 65, 113
1, 62470, Note_on_c, 0, 67, 117
1, 62555, Note_off_c, 0, 67, 117
1, 62567, Note_on_c, 0, 64, 118
1, 62662, Note_off_c, 0, 64, 118
1, 62680, Note_on_c, 0, 65, 117
1, 62750, Note_off_c, 0, 65, 117
1, 62776, Note_on_c, 0, 67, 112
1, 62842, Note_off_c, 0, 67, 112
1, 62856, Note_on_c, 0, 68, 114
1, 62936, Note_off_c, 0, 68, 114
1, 62965, Note_on_c, 0, 69, 112
1, 63037, Note_off_c, 0, 69, 112
1, 63047, Note_on_c, 0, 74, 117
1, 63179, Note_off_c, 0, 74, 117
1, 63179, Note_on_c, 0, 73, 120
1, 63251, Note_off_c, 0, 73, 120
1, 63253, Note_on_c, 0, 72, 120
1, 63342, Note_off_c, 0, 72, 120
1, 63366, Note_on_c, 0, 65, 103
1, 63415, Note_off_c, 0, 65, 103
1, 63415, Note_on_c, 0, 61, 98
1, 63468, Note_on_c, 0, 65, 103
1, 63468, Note_off_c, 0, 61, 98
1, 63521, Note_off_c, 0, 65, 103
1, 63556, Note_on_c, 0, 70, 119
1, 63632, Note_off_c, 0, 70, 119
1, 63642, Note_on_c, 0, 67, 113
1, 63720, Note_off_c, 0, 67, 113
1, 63726, Note_on_c, 0, 68, 119
1, 63798, Note_off_c, 0, 68, 119
1, 63806, Note_on_c, 0, 69, 116
1, 63884, Note_off_c, 0, 69, 116
1, 63904, Note_on_c, 0, 65, 116
1, 63974, Note_off_c, 0, 65, 116
1, 63978, Note_on_c, 0, 64, 114
1, 64046, Note_off_c, 0, 64, 114
1, 64070, Note_on_c, 0, 62, 113
1, 64134, Note_off_c, 0, 62, 113
1, 64152, Note_on_c, 0, 61, 111
1, 64239, Note_off_c, 0, 61, 111
1, 64270, Note_on_c, 0, 64, 109
1, 64348, Note_off_c, 0, 64, 109
1, 64352, Note_on_c, 0, 67, 119
1, 64424, Note_off_c, 0, 67, 119
1, 64428, Note_on_c, 0, 70, 122
1, 64535, Note_off_c, 0, 70, 122
1, 64557, Note_on_c, 0, 67, 104
1, 64652, Note_off_c, 0, 67, 104
1, 64652, Note_on_c, 0, 68, 113
1, 64720, Note_off_c, 0, 68, 113
1, 64730, Note_on_c, 0, 69, 115
1, 64810, Note_off_c, 0, 69, 115
1, 64836, Note_on_c, 0, 65, 120
1, 64921, Note_off_c, 0, 65, 120
1, 64921, Note_on_c, 0, 61, 105
1, 65010, Note_off_c, 0, 61, 105
1, 65043, Note_on_c, 0, 57, 107
1, 65105, Note_off_c, 0, 57, 107
1, 65127, Note_on_c, 0, 58, 103
1, 65218, Note_off_c, 0, 58, 103
1, 65249, Note_on_c, 0, 63, 108
1, 65307, Note_off_c, 0, 63, 108
1, 65313, Note_on_c, 0, 64, 119
1, 65389, Note_off_c, 0, 64, 119
1, 65403, Note_on_c, 0, 61, 110
1, 65475, Note_off_c, 0, 61, 110
1, 65512, Note_on_c, 0, 62, 110
1, 65590, Note_off_c, 0, 62, 110
1, 65610, Note_on_c, 0, 64, 112
1, 65666, Note_off_c, 0, 64, 112
1, 65670, Note_on_c, 0, 65, 111
1, 65742, Note_off_c, 0, 65, 111
1, 65744, Note_on_c, 0, 67, 108
1, 65812, Note_off_c, 0, 67, 108
1, 65826, Note_on_c, 0, 69, 121
1, 65915, Note_off_c, 0, 69, 121
1, 65946, Note_on_c, 0, 65, 110
1, 66004, Note_off_c, 0, 65, 110
1, 66030, Note_on_c, 0, 69, 120
1, 66202, Note_off_c, 0, 69, 120
1, 66206, Note_on_c, 0, 68, 121
1, 66336, Note_off_c, 0, 68, 121
1, 66348, Note_on_c, 0, 65, 111
1, 66395, Note_off_c, 0, 65, 111
1, 66401, Note_on_c, 0, 68, 119
1, 66567, Note_off_c, 0, 68, 119
1, 66575, Note_on_c, 0, 67, 118
1, 66687, Note_off_c, 0, 67, 118
1, 66716, Note_on_c, 0, 65, 110
1, 66761, Note_off_c, 0, 65, 110
1, 66773, Note_on_c, 0, 67, 121
1, 66937, Note_off_c, 0, 67, 121
1, 66980, Note_on_c, 0, 62, 110
1, 67058, Note_off_c, 0, 62, 110
1, 67087, Note_on_c, 0, 65, 99
1, 67182, Note_off_c, 0, 65, 99
1, 67182, Note_on_c, 0, 67, 116
1, 67256, Note_off_c, 0, 67, 116
1, 67293, Note_on_c, 0, 69, 126
1, 67413, Note_off_c, 0, 69, 126
1, 67429, Note_on_c, 0, 65, 110
1, 67482, Note_off_c, 0, 65, 110
1, 67498, Note_on_c, 0, 69, 122
1, 67697, Note_off_c, 0, 69, 122
1, 67709, Note_on_c, 0, 68, 123
1, 67804, Note_off_c, 0, 68, 123
1, 67822, Note_on_c, 0, 65, 107
1, 67869, Note_off_c, 0, 65, 107
1, 67895, Note_on_c, 0, 68, 121
1, 68045, Note_off_c, 0, 68, 121
1, 68045, Note_on_c, 0, 65, 113
1, 68112, Note_off_c, 0, 65, 113
1, 68126, Note_on_c, 0, 67, 123
1, 68208, Note_off_c, 0, 67, 123
1, 68222, Note_on_c, 0, 65, 112
1, 68263, Note_off_c, 0, 65, 112
1, 68280, Note_on_c, 0, 67, 119
1, 68436, Note_off_c, 0, 67, 119
1, 68465, Note_on_c, 0, 60, 107
1, 68594, Note_off_c, 0, 60, 107
1, 68611, Note_on_c, 0, 63, 111
1, 68675, Note_off_c, 0, 63, 111
1, 68698, Note_on_c, 0, 64, 108
1, 68754, Note_off_c, 0, 64, 108
1, 68762, Note_on_c, 0, 65, 118
1, 68835, Note_off_c, 0, 65, 118
1, 68846, Note_on_c, 0, 67, 123
1, 68905, Note_off_c, 0, 67, 123
1, 68919, Note_on_c, 0, 70, 120
1, 69037, Note_off_c, 0, 70, 120
1, 69042, Note_on_c, 0, 67, 112
1, 69115, Note_off_c, 0, 67, 112
1, 69123, Note_on_c, 0, 68, 113
1, 69170, Note_off_c, 0, 68, 113
1, 69229, Note_on_c, 0, 69, 112
1, 69305, Note_off_c, 0, 69, 112
1, 69316, Note_on_c, 0, 70, 122
1, 69398, Note_off_c, 0, 70, 122
1, 69398, Note_on_c, 0, 69, 122
1, 69501, Note_off_c, 0, 69, 122
1, 69512, Note_on_c, 0, 67, 121
1, 69585, Note_off_c, 0, 67, 121
1, 69611, Note_on_c, 0, 65, 119
1, 69699, Note_off_c, 0, 65, 119
1, 69761, Note_on_c, 0, 56, 107
1, 69828, Note_off_c, 0, 56, 107
1, 69830, Note_on_c, 0, 58, 113
1, 69900, Note_off_c, 0, 58, 113
1, 69908, Note_on_c, 0, 63, 121
1, 69987, Note_off_c, 0, 63, 121
1, 69995, Note_on_c, 0, 62, 114
1, 70074, Note_off_c, 0, 62, 114
1, 70076, Note_on_c, 0, 58, 107
1, 70143, Note_off_c, 0, 58, 107
1, 70154, Note_on_c, 0, 60, 110
1, 70245, Note_off_c, 0, 60, 110
1, 70250, Note_on_c, 0, 56, 93
1, 70291, Note_off_c, 0, 56, 93
1, 70302, Note_on_c, 0, 57, 96
1, 70358, Note_off_c, 0, 57, 96
1, 70372, Note_on_c, 0, 58, 101
1, 70439, Note_off_c, 0, 58, 101
1, 70439, Note_on_c, 0, 60, 100
1, 70524, Note_off_c, 0, 60, 100
1, 70529, Note_on_c, 0, 62, 110
1, 70641, Note_off_c, 0, 62, 110
1, 70661, Note_on_c, 0, 65, 123
1, 70776, Note_off_c, 0, 65, 123
1, 70787, Note_on_c, 0, 67, 123
1, 70881, Note_off_c, 0, 67, 123
1, 70904, Note_on_c, 0, 68, 117
1, 70992, Note_off_c, 0, 68, 117
1, 71024, Note_on_c, 0, 65, 108
1, 71088, Note_off_c, 0, 65, 108
1, 71102, Note_on_c, 0, 67, 119
1, 71193, Note_off_c, 0, 67, 119
1, 71204, Note_on_c, 0, 65, 116
1, 71277, Note_off_c, 0, 65, 116
1, 71288, Note_on_c, 0, 61, 110
1, 71394, Note_off_c, 0, 61, 110
1, 71417, Note_on_c, 0, 60, 109
1, 71517, Note_off_c, 0, 60, 109
1, 71983, Note_on_c, 0, 70, 117
1, 72101, Note_off_c, 0, 70, 117
1, 72114, Note_on_c, 0, 69, 115
1, 72151, Note_off_c, 0, 69, 115
1, 72155, Note_on_c, 0, 67, 114
1, 72292, Note_off_c, 0, 67, 114
1, 72415, Note_on_c, 0, 66, 119
1, 72550, Note_off_c, 0, 66, 119
1, 72585, Note_on_c, 0, 66, 105
1, 72744, Note_off_c, 0, 66, 105
1, 72779, Note_on_c, 0, 69, 115
1, 72861, Note_off_c, 0, 69, 115
1, 72878, Note_on_c, 0, 66, 114
1, 72966, Note_off_c, 0, 66, 114
1, 72982, Note_on_c, 0, 67, 115
1, 73069, Note_off_c, 0, 67, 115
1, 73073, Note_on_c, 0, 69, 121
1, 73147, Note_off_c, 0, 69, 121
1, 73171, Note_on_c, 0, 70, 125
1, 73229, Note_off_c, 0, 70, 125
1, 73249, Note_on_c, 0, 72, 125
1, 73348, Note_off_c, 0, 72, 125
1, 73356, Note_on_c, 0, 73, 120
1, 73414, Note_off_c, 0, 73, 120
1, 73426, Note_on_c, 0, 74, 108
1, 73513, Note_off_c, 0, 74, 108
1, 73513, Note_on_c, 0, 72, 120
1, 73608, Note_off_c, 0, 72, 120
1, 73608, Note_on_c, 0, 71, 119
1, 73695, Note_off_c, 0, 71, 119
1, 73703, Note_on_c, 0, 70, 122
1, 73802, Note_off_c, 0, 70, 122
1, 73802, Note_on_c, 0, 69, 120
1, 73897, Note_off_c, 0, 69, 120
1, 73897, Note_on_c, 0, 67, 118
1, 73984, Note_off_c, 0, 67, 118
1, 73990, Note_on_c, 0, 65, 120
1, 74056, Note_off_c, 0, 65, 120
1, 74064, Note_on_c, 0, 64, 119
1, 74147, Note_off_c, 0, 64, 119
1, 74198, Note_on_c, 0, 61, 108
1, 74297, Note_off_c, 0, 61, 108
1, 74307, Note_on_c, 0, 59, 95
1, 74387, Note_off_c, 0, 59, 95
1, 74392, Note_on_c, 0, 60, 104
1, 74456, Note_off_c, 0, 60, 104
1, 74460, Note_on_c, 0, 61, 112
1, 74511, Note_off_c, 0, 61, 112
1, 74522, Note_on_c, 0, 63, 102
1, 74569, Note_off_c, 0, 63, 102
1, 74579, Note_on_c, 0, 64, 112
1, 74677, Note_off_c, 0, 64, 112
1, 74682, Note_on_c, 0, 65, 122
1, 74744, Note_off_c, 0, 65, 122
1, 74776, Note_on_c, 0, 67, 117
1, 74885, Note_off_c, 0, 67, 117
1, 74899, Note_on_c, 0, 64, 114
1, 74958, Note_off_c, 0, 64, 114
1, 74963, Note_on_c, 0, 65, 113
1, 75027, Note_off_c, 0, 65, 113
1, 75050, Note_on_c, 0, 67, 116
1, 75109, Note_off_c, 0, 67, 116
1, 75126, Note_on_c, 0, 69, 112
1, 75196, Note_off_c, 0, 69, 112
1, 75234, Note_on_c, 0, 65, 98
1, 75296, Note_off_c, 0, 65, 98
1, 76300, Note_on_c, 0, 75, 108
1, 76376, Note_off_c, 0, 75, 108
1, 76455, Note_on_c, 0, 72, 117
1, 76582, Note_off_c, 0, 72, 117
1, 76593, Note_on_c, 0, 73, 121
1, 76678, Note_off_c, 0, 73, 121
1, 76695, Note_on_c, 0, 74, 102
1, 76768, Note_off_c, 0, 74, 102
1, 76770, Note_on_c, 0, 75, 115
1, 76867, Note_off_c, 0, 75, 115
1, 76923, Note_on_c, 0, 71, 120
1, 77011, Note_off_c, 0, 71, 120
1, 77028, Note_on_c, 0, 70, 120
1, 77131, Note_off_c, 0, 70, 120
1, 77145, Note_on_c, 0, 68, 116
1, 77209, Note_off_c, 0, 68, 116
1, 77209, Note_on_c, 0, 65, 105
1, 77312, Note_off_c, 0, 65, 105
1, 77323, Note_on_c, 0, 66, 106
1, 77396, Note_off_c, 0, 66, 106
1, 77407, Note_on_c, 0, 67, 119
1, 77498, Note_off_c, 0, 67, 119
1, 77503, Note_on_c, 0, 68, 115
1, 77562, Note_off_c, 0, 68, 115
1, 77573, Note_on_c, 0, 67, 115
1, 77667, Note_off_c, 0, 67, 115
1, 77669, Note_on_c, 0, 65, 117
1, 77775, Note_off_c, 0, 65, 117
1, 77777, Note_on_c, 0, 63, 104
1, 77865, Note_off_c, 0, 63, 104
1, 77879, Note_on_c, 0, 64, 115
1, 77941, Note_off_c, 0, 64, 115
1, 77982, Note_on_c, 0, 65, 116
1, 78079, Note_off_c, 0, 65, 116
1, 78084, Note_on_c, 0, 67, 118
1, 78172, Note_off_c, 0, 67, 118
1, 78192, Note_on_c, 0, 70, 124
1, 78268, Note_off_c, 0, 70, 124
1, 78270, Note_on_c, 0, 73, 121
1, 78376, Note_off_c, 0, 73, 121
1, 78390, Note_on_c, 0, 70, 104
1, 78472, Note_off_c, 0, 70, 104
1, 78472, Note_on_c, 0, 71, 121
1, 78542, Note_off_c, 0, 71, 121
1, 78544, Note_on_c, 0, 72, 120
1, 78597, Note_off_c, 0, 72, 120
1, 78620, Note_on_c, 0, 68, 117
1, 78696, Note_off_c, 0, 68, 117
1, 78707, Note_on_c, 0, 67, 107
1, 78804, Note_off_c, 0, 67, 107
1, 78815, Note_on_c, 0, 65, 113
1, 78894, Note_off_c, 0, 65, 113
1, 78894, Note_on_c, 0, 64, 117
1, 78970, Note_off_c, 0, 64, 117
1, 78999, Note_on_c, 0, 60, 90
1, 79069, Note_off_c, 0, 60, 90
1, 79095, Note_on_c, 0, 67, 112
1, 79210, Note_off_c, 0, 67, 112
1, 79218, Note_on_c, 0, 64, 114
1, 79280, Note_off_c, 0, 64, 114
1, 79288, Note_on_c, 0, 65, 114
1, 79376, Note_off_c, 0, 65, 114
1, 79378, Note_on_c, 0, 67, 117
1, 79457, Note_off_c, 0, 67, 117
1, 79468, Note_on_c, 0, 68, 107
1, 79530, Note_off_c, 0, 68, 107
1, 79538, Note_on_c, 0, 70, 100
1, 79617, Note_off_c, 0, 70, 100
1, 79617, Note_on_c, 0, 72, 116
1, 79720, Note_off_c, 0, 72, 116
1, 79746, Note_on_c, 0, 68, 119
1, 79834, Note_off_c, 0, 68, 119
1, 79845, Note_on_c, 0, 67, 99
1, 79921, Note_off_c, 0, 67, 99
1, 79929, Note_on_c, 0, 66, 99
1, 80008, Note_off_c, 0, 66, 99
1, 80028, Note_on_c, 0, 73, 120
1, 80125, Note_off_c, 0, 73, 120
1, 80130, Note_on_c, 0, 71, 121
1, 80209, Note_off_c, 0, 71, 121
1, 80220, Note_on_c, 0, 70, 109
1, 80314, Note_off_c, 0, 70, 109
1, 80334, Note_on_c, 0, 68, 119
1, 80431, Note_off_c, 0, 68, 119
1, 80439, Note_on_c, 0, 66, 111
1, 80545, Note_off_c, 0, 66, 111
1, 80550, Note_on_c, 0, 68, 100
1, 80609, Note_off_c, 0, 68, 100
1, 80614, Note_on_c, 0, 72, 122
1, 80735, Note_off_c, 0, 72, 122
1, 80740, Note_on_c, 0, 71, 121
1, 80822, Note_off_c, 0, 71, 121
1, 80827, Note_on_c, 0, 70, 117
1, 80909, Note_off_c, 0, 70, 117
1, 80911, Note_on_c, 0, 68, 118
1, 80973, Note_off_c, 0, 68, 118
1, 80973, Note_on_c, 0, 65, 110
1, 81070, Note_off_c, 0, 65, 110
1, 81075, Note_on_c, 0, 66, 116
1, 81151, Note_off_c, 0, 66, 116
1, 81168, Note_on_c, 0, 67, 105
1, 81247, Note_off_c, 0, 67, 105
1, 81282, Note_on_c, 0, 63, 116
1, 81367, Note_off_c, 0, 63, 116
1, 81375, Note_on_c, 0, 60, 105
1, 81454, Note_off_c, 0, 60, 105
1, 81462, Note_on_c, 0, 60, 93
1, 81506, Note_off_c, 0, 60, 93
1, 81520, Note_on_c, 0, 65, 114
1, 81605, Note_off_c, 0, 65, 114
1, 81732, Note_on_c, 0, 69, 111
1, 81829, Note_off_c, 0, 69, 111
1, 81858, Note_on_c, 0, 67, 121
1, 81943, Note_off_c, 0, 67, 121
1, 81957, Note_on_c, 0, 66, 103
1, 82027, Note_off_c, 0, 66, 103
1, 82124, Note_on_c, 0, 66, 100
1, 82200, Note_off_c, 0, 66, 100
1, 82211, Note_on_c, 0, 66, 109
1, 82311, Note_off_c, 0, 66, 109
1, 82319, Note_on_c, 0, 67, 120
1, 82386, Note_off_c, 0, 67, 120
1, 82394, Note_on_c, 0, 69, 123
1, 82470, Note_off_c, 0, 69, 123
1, 82478, Note_on_c, 0, 71, 121
1, 82563, Note_off_c, 0, 71, 121
1, 82580, Note_on_c, 0, 74, 118
1, 82662, Note_off_c, 0, 74, 118
1, 82691, Note_on_c, 0, 74, 119
1, 82753, Note_off_c, 0, 74, 119
1, 82776, Note_on_c, 0, 71, 120
1, 82849, Note_off_c, 0, 71, 120
1, 82860, Note_on_c, 0, 72, 109
1, 82919, Note_off_c, 0, 72, 109
1, 82933, Note_on_c, 0, 74, 116
1, 82992, Note_off_c, 0, 74, 116
1, 83000, Note_on_c, 0, 72, 121
1, 83056, Note_off_c, 0, 72, 121
1, 83058, Note_on_c, 0, 71, 117
1, 83131, Note_off_c, 0, 71, 117
1, 83142, Note_on_c, 0, 69, 119
1, 83215, Note_off_c, 0, 69, 119
1, 83217, Note_on_c, 0, 67, 110
1, 83284, Note_off_c, 0, 67, 110
1, 83310, Note_on_c, 0, 68, 113
1, 83386, Note_off_c, 0, 68, 113
1, 83388, Note_on_c, 0, 69, 120
1, 83520, Note_off_c, 0, 69, 120
1, 83546, Note_on_c, 0, 65, 107
1, 83593, Note_off_c, 0, 65, 107
1, 83593, Note_on_c, 0, 64, 95
1, 83675, Note_off_c, 0, 64, 95
1, 83692, Note_on_c, 0, 63, 96
1, 83762, Note_off_c, 0, 63, 96
1, 83788, Note_on_c, 0, 67, 114
1, 83882, Note_off_c, 0, 67, 114
1, 83890, Note_on_c, 0, 65, 109
1, 83946, Note_off_c, 0, 65, 109
1, 83954, Note_on_c, 0, 62, 103
1, 84030, Note_off_c, 0, 62, 103
1, 84053, Note_on_c, 0, 63, 111
1, 84126, Note_off_c, 0, 63, 111
1, 84143, Note_on_c, 0, 64, 115
1, 84296, Note_off_c, 0, 64, 115
1, 84346, Note_on_c, 0, 64, 117
1, 84517, Note_off_c, 0, 64, 117
1, 84572, Note_on_c, 0, 64, 108
1, 84655, Note_off_c, 0, 64, 108
1, 84750, Note_on_c, 0, 66, 120
1, 84833, Note_off_c, 0, 66, 120
1, 84853, Note_on_c, 0, 69, 119
1, 84923, Note_off_c, 0, 69, 119
1, 85001, Note_on_c, 0, 76, 126
1, 85117, Note_off_c, 0, 76, 126
1, 85125, Note_on_c, 0, 74, 119
1, 85237, Note_off_c, 0, 74, 119
1, 85249, Note_on_c, 0, 75, 123
1, 85668, Note_off_c, 0, 75, 123
1, 85684, Note_on_c, 0, 68, 109
1, 85804, Note_off_c, 0, 68, 109
1, 85808, Note_on_c, 0, 63, 100
1, 85924, Note_off_c, 0, 63, 100
1, 85986, Note_on_c, 0, 65, 87
1, 86077, Note_off_c, 0, 65, 87
1, 86139, Note_on_c, 0, 71, 122
1, 86192, Note_off_c, 0, 71, 122
1, 86204, Note_on_c, 0, 72, 122
1, 86424, Note_off_c, 0, 72, 122
1, 86465, Note_on_c, 0, 67, 116
1, 86755, Note_off_c, 0, 67, 116
1, 86798, Note_on_c, 0, 68, 116
1, 86868, Note_off_c, 0, 68, 116
1, 86888, Note_on_c, 0, 69, 119
1, 86976, Note_off_c, 0, 69, 119
1, 86976, Note_on_c, 0, 65, 113
1, 87043, Note_off_c, 0, 65, 113
1, 87066, Note_on_c, 0, 62, 105
1, 87145, Note_off_c, 0, 62, 105
1, 87145, Note_on_c, 0, 59, 106
1, 87198, Note_off_c, 0, 59, 106
1, 87212, Note_on_c, 0, 67, 108
1, 87312, Note_off_c, 0, 67, 108
1, 87317, Note_on_c, 0, 65, 114
1, 87405, Note_off_c, 0, 65, 114
1, 87410, Note_on_c, 0, 62, 105
1, 87480, Note_off_c, 0, 62, 105
1, 87494, Note_on_c, 0, 63, 111
1, 87553, Note_off_c, 0, 63, 111
1, 87570, Note_on_c, 0, 64, 121
1, 87691, Note_off_c, 0, 64, 121
1, 88377, Note_on_c, 0, 57, 118
1, 88468, Note_off_c, 0, 57, 118
1, 88476, Note_on_c, 0, 56, 100
1, 88529, Note_off_c, 0, 56, 100
1, 88545, Note_on_c, 0, 57, 100
1, 88628, Note_off_c, 0, 57, 100
1, 88634, Note_on_c, 0, 56, 96
1, 88687, Note_off_c, 0, 56, 96
1, 88699, Note_on_c, 0, 58, 122
1, 88796, Note_off_c, 0, 58, 122
1, 88818, Note_on_c, 0, 57, 111
1, 88888, Note_off_c, 0, 57, 111
1, 88914, Note_on_c, 0, 56, 110
1, 88988, Note_off_c, 0, 56, 110
1, 89002, Note_on_c, 0, 57, 106
1, 89082, Note_off_c, 0, 57, 106
1, 89083, Note_on_c, 0, 58, 119
1, 89171, Note_off_c, 0, 58, 119
1, 89185, Note_on_c, 0, 57, 117
1, 89255, Note_off_c, 0, 57, 117
1, 89281, Note_on_c, 0, 56, 103
1, 89375, Note_off_c, 0, 56, 103
1, 89386, Note_on_c, 0, 57, 111
1, 89445, Note_off_c, 0, 57, 111
1, 89465, Note_on_c, 0, 58, 122
1, 89574, Note_off_c, 0, 58, 122
1, 89588, Note_on_c, 0, 57, 114
1, 89655, Note_off_c, 0, 57, 114
1, 89672, Note_on_c, 0, 56, 96
1, 89775, Note_off_c, 0, 56, 96
1, 89789, Note_on_c, 0, 57, 106
1, 89868, Note_off_c, 0, 57, 106
1, 89868, Note_on_c, 0, 58, 117
1, 89959, Note_off_c, 0, 58, 117
1, 89959, Note_on_c, 0, 57, 114
1, 90018, Note_off_c, 0, 57, 114
1, 90035, Note_on_c, 0, 56, 99
1, 90132, Note_off_c, 0, 56, 99
1, 90173, Note_on_c, 0, 57, 102
1, 90217, Note_off_c, 0, 57, 102
1, 90219, Note_on_c, 0, 58, 107
1, 90310, Note_off_c, 0, 58, 107
1, 90327, Note_on_c, 0, 57, 111
1, 90391, Note_off_c, 0, 57, 111
1, 90408, Note_on_c, 0, 56, 107
1, 90508, Note_off_c, 0, 56, 107
1, 90567, Note_on_c, 0, 57, 110
1, 90614, Note_off_c, 0, 57, 110
1, 90619, Note_on_c, 0, 58, 118
1, 90731, Note_off_c, 0, 58, 118
1, 90739, Note_on_c, 0, 57, 107
1, 90801, Note_off_c, 0, 57, 107
1, 90812, Note_on_c, 0, 56, 96
1, 90885, Note_off_c, 0, 56, 96
1, 90896, Note_on_c, 0, 57, 95
1, 90969, Note_off_c, 0, 57, 95
1, 91013, Note_on_c, 0, 65, 119
1, 91113, Note_off_c, 0, 65, 119
1, 91121, Note_on_c, 0, 64, 110
1, 91188, Note_off_c, 0, 64, 110
1, 91205, Note_on_c, 0, 63, 103
1, 91272, Note_off_c, 0, 63, 103
1, 91289, Note_on_c, 0, 64, 110
1, 91348, Note_off_c, 0, 64, 110
1, 91350, Note_on_c, 0, 65, 111
1, 91444, Note_off_c, 0, 65, 111
1, 91446, Note_on_c, 0, 64, 111
1, 91513, Note_off_c, 0, 64, 111
1, 91524, Note_on_c, 0, 63, 106
1, 91636, Note_off_c, 0, 63, 106
1, 91668, Note_on_c, 0, 64, 113
1, 91715, Note_off_c, 0, 64, 113
1, 91726, Note_on_c, 0, 65, 106
1, 91782, Note_off_c, 0, 65, 106
1, 91784, Note_on_c, 0, 64, 113
1, 91872, Note_off_c, 0, 64, 113
1, 91883, Note_on_c, 0, 63, 109
1, 91983, Note_off_c, 0, 63, 109
1, 91985, Note_on_c, 0, 64, 113
1, 92052, Note_off_c, 0, 64, 113
1, 92078, Note_on_c, 0, 65, 120
1, 92169, Note_off_c, 0, 65, 120
1, 92183, Note_on_c, 0, 64, 103
1, 92230, Note_off_c, 0, 64, 103
1, 92241, Note_on_c, 0, 63, 101
1, 92326, Note_off_c, 0, 63, 101
1, 92361, Note_on_c, 0, 64, 108
1, 92420, Note_off_c, 0, 64, 108
1, 92443, Note_on_c, 0, 69, 114
1, 92534, Note_off_c, 0, 69, 114
1, 92550, Note_on_c, 0, 70, 117
1, 92649, Note_off_c, 0, 70, 117
1, 92669, Note_on_c, 0, 67, 112
1, 92747, Note_off_c, 0, 67, 112
1, 92756, Note_on_c, 0, 68, 113
1, 92846, Note_on_c, 0, 69, 118
1, 92846, Note_off_c, 0, 68, 113
1, 92949, Note_off_c, 0, 69, 118
1, 93032, Note_on_c, 0, 65, 101
1, 93135, Note_off_c, 0, 65, 101
1, 93143, Note_on_c, 0, 66, 119
1, 93222, Note_off_c, 0, 66, 119
1, 93245, Note_on_c, 0, 67, 113
1, 93304, Note_off_c, 0, 67, 113
1, 93339, Note_on_c, 0, 63, 119
1, 93412, Note_off_c, 0, 63, 119
1, 93414, Note_on_c, 0, 60, 109
1, 93490, Note_off_c, 0, 60, 109
1, 93498, Note_on_c, 0, 59, 107
1, 93568, Note_off_c, 0, 59, 107
1, 93594, Note_on_c, 0, 65, 111
1, 93694, Note_off_c, 0, 65, 111
1, 93756, Note_on_c, 0, 57, 101
1, 93818, Note_on_c, 0, 58, 99
1, 93818, Note_off_c, 0, 57, 101
1, 93894, Note_off_c, 0, 58, 99
1, 93914, Note_on_c, 0, 63, 114
1, 93996, Note_off_c, 0, 63, 114
1, 93998, Note_on_c, 0, 61, 110
1, 94077, Note_off_c, 0, 61, 110
1, 94094, Note_on_c, 0, 62, 102
1, 94164, Note_off_c, 0, 62, 102
1, 94184, Note_on_c, 0, 63, 114
1, 94275, Note_off_c, 0, 63, 114
1, 94286, Note_on_c, 0, 64, 117
1, 94368, Note_off_c, 0, 64, 117
1, 94382, Note_on_c, 0, 65, 118
1, 94452, Note_off_c, 0, 65, 118
1, 94457, Note_on_c, 0, 67, 114
1, 94530, Note_off_c, 0, 67, 114
1, 94538, Note_on_c, 0, 69, 119
1, 94623, Note_off_c, 0, 69, 119
1, 94634, Note_on_c, 0, 70, 118
1, 94722, Note_off_c, 0, 70, 118
1, 94733, Note_on_c, 0, 72, 120
1, 94833, Note_off_c, 0, 72, 120
1, 94838, Note_on_c, 0, 69, 116
1, 94911, Note_off_c, 0, 69, 116
1, 94925, Note_on_c, 0, 70, 112
1, 94981, Note_off_c, 0, 70, 112
1, 94989, Note_on_c, 0, 72, 121
1, 95062, Note_off_c, 0, 72, 121
1, 95062, Note_on_c, 0, 73, 123
1, 95156, Note_off_c, 0, 73, 123
1, 95167, Note_on_c, 0, 74, 119
1, 95279, Note_off_c, 0, 74, 119
1, 95279, Note_on_c, 0, 72, 121
1, 95349, Note_off_c, 0, 72, 121
1, 95366, Note_on_c, 0, 70, 122
1, 95445, Note_off_c, 0, 70, 122
1, 95445, Note_on_c, 0, 69, 119
1, 95554, Note_off_c, 0, 69, 119
1, 96244, Note_on_c, 0, 75, 101
1, 96297, Note_off_c, 0, 75, 101
1, 96302, Note_on_c, 0, 77, 123
1, 96434, Note_off_c, 0, 77, 123
1, 96436, Note_on_c, 0, 76, 121
1, 96503, Note_off_c, 0, 76, 121
1, 96523, Note_on_c, 0, 74, 117
1, 96582, Note_off_c, 0, 74, 117
1, 96602, Note_on_c, 0, 72, 118
1, 96675, Note_off_c, 0, 72, 118
1, 96689, Note_on_c, 0, 71, 116
1, 96771, Note_off_c, 0, 71, 116
1, 96776, Note_on_c, 0, 70, 118
1, 96858, Note_off_c, 0, 70, 118
1, 96866, Note_on_c, 0, 69, 120
1, 96942, Note_off_c, 0, 69, 120
1, 96971, Note_on_c, 0, 67, 115
1, 97050, Note_off_c, 0, 67, 115
1, 97064, Note_on_c, 0, 65, 122
1, 97143, Note_off_c, 0, 65, 122
1, 97151, Note_on_c, 0, 64, 119
1, 97245, Note_off_c, 0, 64, 119
1, 97274, Note_on_c, 0, 61, 102
1, 97356, Note_off_c, 0, 61, 102
1, 97364, Note_on_c, 0, 58, 92
1, 97423, Note_off_c, 0, 58, 92
1, 97423, Note_on_c, 0, 60, 97
1, 97496, Note_off_c, 0, 60, 97
1, 97510, Note_on_c, 0, 61, 108
1, 97637, Note_off_c, 0, 61, 108
1, 97690, Note_on_c, 0, 64, 113
1, 97769, Note_off_c, 0, 64, 113
1, 97795, Note_on_c, 0, 65, 112
1, 97892, Note_off_c, 0, 65, 112
1, 97921, Note_on_c, 0, 67, 104
1, 98012, Note_off_c, 0, 67, 104
1, 98017, Note_on_c, 0, 64, 117
1, 98099, Note_off_c, 0, 64, 117
1, 98113, Note_on_c, 0, 65, 118
1, 98219, Note_off_c, 0, 65, 118
1, 98224, Note_on_c, 0, 67, 109
1, 98288, Note_off_c, 0, 67, 109
1, 98308, Note_on_c, 0, 68, 114
1, 98375, Note_off_c, 0, 68, 114
1, 98404, Note_on_c, 0, 69, 110
1, 98480, Note_off_c, 0, 69, 110
1, 98480, Note_on_c, 0, 74, 117
1, 98609, Note_off_c, 0, 74, 117
1, 98623, Note_on_c, 0, 73, 120
1, 98679, Note_off_c, 0, 73, 120
1, 98693, Note_on_c, 0, 72, 109
1, 98811, Note_off_c, 0, 72, 109
1, 98811, Note_on_c, 0, 65, 99
1, 98864, Note_off_c, 0, 65, 99
1, 98872, Note_on_c, 0, 61, 94
1, 98922, Note_off_c, 0, 61, 94
1, 98936, Note_on_c, 0, 65, 101
1, 98977, Note_off_c, 0, 65, 101
1, 99003, Note_on_c, 0, 70, 118
1, 99097, Note_off_c, 0, 70, 118
1, 99108, Note_on_c, 0, 67, 107
1, 99170, Note_off_c, 0, 67, 107
1, 99181, Note_on_c, 0, 68, 107
1, 99240, Note_off_c, 0, 68, 107
1, 99260, Note_on_c, 0, 69, 115
1, 99327, Note_off_c, 0, 69, 115
1, 99350, Note_on_c, 0, 65, 104
1, 99414, Note_off_c, 0, 65, 104
1, 99414, Note_on_c, 0, 64, 99
1, 99472, Note_off_c, 0, 64, 99
1, 99487, Note_on_c, 0, 60, 96
1, 99546, Note_off_c, 0, 60, 96
1, 99548, Note_on_c, 0, 65, 91
1, 99615, Note_off_c, 0, 65, 91
1, 99626, Note_on_c, 0, 67, 108
1, 99738, Note_off_c, 0, 67, 108
1, 99738, Note_on_c, 0, 65, 118
1, 99805, Note_off_c, 0, 65, 118
1, 99813, Note_on_c, 0, 61, 107
1, 99877, Note_off_c, 0, 61, 107
1, 99877, Note_on_c, 0, 62, 107
1, 99944, Note_off_c, 0, 62, 107
1, 99955, Note_on_c, 0, 64, 114
1, 100025, Note_off_c, 0, 64, 114
1, 100087, Note_on_c, 0, 61, 96
1, 100134, Note_off_c, 0, 61, 96
1, 100142, Note_on_c, 0, 62, 114
1, 100277, Note_off_c, 0, 62, 114
1, 100333, Note_on_c, 0, 61, 113
1, 100430, Note_off_c, 0, 61, 113
1, 100465, Note_on_c, 0, 63, 106
1, 100529, Note_off_c, 0, 63, 106
1, 100546, Note_on_c, 0, 65, 110
1, 100631, Note_off_c, 0, 65, 110
1, 100663, Note_on_c, 0, 70, 117
1, 100763, Note_off_c, 0, 70, 117
1, 100774, Note_on_c, 0, 69, 119
1, 100865, Note_off_c, 0, 69, 119
1, 100870, Note_on_c, 0, 68, 114
1, 100949, Note_off_c, 0, 68, 114
1, 100963, Note_on_c, 0, 69, 116
1, 101069, Note_off_c, 0, 69, 116
1, 101145, Note_on_c, 0, 63, 110
1, 101245, Note_off_c, 0, 63, 110
1, 101262, Note_on_c, 0, 65, 109
1, 101353, Note_off_c, 0, 65, 109
1, 101361, Note_on_c, 0, 63, 98
1, 101417, Note_off_c, 0, 63, 98
1, 101419, Note_on_c, 0, 64, 114
1, 101475, Note_off_c, 0, 64, 114
1, 101487, Note_on_c, 0, 65, 124
1, 101572, Note_off_c, 0, 65, 124
1, 101605, Note_on_c, 0, 61, 109
1, 101816, Note_off_c, 0, 61, 109
1, 101907, Note_on_c, 0, 61, 106
1, 102174, Note_off_c, 0, 61, 106
1, 102238, Note_on_c, 0, 61, 101
1, 102364, Note_off_c, 0, 61, 101
1, 102372, Note_on_c, 0, 61, 94
1, 102500, Note_off_c, 0, 61, 94
1, 102500, End_track
0, 0, End_of_file
