0, 0, Header, 1, 1, 840
1, 0, Start_track
1, 0, Title_t, "Melody"
1, 0, Tempo, 447761
1, 0, Key_signature, -3, "major"
1, 0, Time_signature, 4, 2, 24, 8
1, 4290, Note_on_c, 0, 68, 127
1, 4529, Note_off_c, 0, 68, 127
1, 4594, Note_on_c, 0, 67, 113
1, 4779, Note_off_c, 0, 67, 113
1, 4828, Note_on_c, 0, 68, 119
1, 5040, Note_off_c, 0, 68, 119
1, 5083, Note_on_c, 0, 67, 108
1, 5311, Note_off_c, 0, 67, 108
1, 5370, Note_on_c, 0, 68, 117
1, 5598, Note_off_c, 0, 68, 117
1, 5598, Note_on_c, 0, 67, 102
1, 5788, Note_off_c, 0, 67, 102
1, 5820, Note_on_c, 0, 68, 117
1, 6070, Note_off_c, 0, 68, 117
1, 6075, Note_on_c, 0, 67, 110
1, 6320, Note_off_c, 0, 67, 110
1, 6379, Note_on_c, 0, 68, 118
1, 6585, Note_off_c, 0, 68, 118
1, 6639, Note_on_c, 0, 67, 102
1, 6856, Note_off_c, 0, 67, 102
1, 6888, Note_on_c, 0, 68, 115
1, 7171, Note_off_c, 0, 68, 115
1, 7198, Note_on_c, 0, 67, 104
1, 7399, Note_off_c, 0, 67, 104
1, 7399, Note_on_c, 0, 68, 113
1, 7622, Note_off_c, 0, 68, 113
1, 7660, Note_on_c, 0, 67, 102
1, 7877, Note_off_c, 0, 67, 102
1, 8094, Note_on_c, 0, 67, 121
1, 8268, Note_off_c, 0, 67, 121
1, 8295, Note_on_c, 0, 68, 111
1, 8687, Note_off_c, 0, 68, 111
1, 8725, Note_on_c, 0, 67, 113
1, 8937, Note_off_c, 0, 67, 113
1, 9160, Note_on_c, 0, 63, 116
1, 9454, Note_off_c, 0, 63, 116
1, 9492, Note_on_c, 0, 58, 105
1, 9835, Note_off_c, 0, 58, 105
1, 9900, Note_on_c, 0, 63, 114
1, 11070, Note_off_c, 0, 63, 114
1, 16455, Note_on_c, 0, 68, 119
1, 16710, Note_off_c, 0, 68, 119
1, 16737, Note_on_c, 0, 66, 100
1, 16954, Note_off_c, 0, 66, 100
1, 17057, Note_on_c, 0, 68, 120
1, 17258, Note_off_c, 0, 68, 120
1, 17279, Note_on_c, 0, 66, 101
1, 17496, Note_off_c, 0, 66, 101
1, 17659, Note_on_c, 0, 68, 102
1, 17909, Note_off_c, 0, 68, 102
1, 17919, Note_on_c, 0, 66, 98
1, 18169, Note_off_c, 0, 66, 98
1, 18234, Note_on_c, 0, 68, 119
1, 18462, Note_off_c, 0, 68, 119
1, 18505, Note_on_c, 0, 66, 98
1, 18788, Note_off_c, 0, 66, 98
1, 18858, Note_on_c, 0, 68, 119
1, 19108, Note_off_c, 0, 68, 119
1, 19129, Note_on_c, 0, 66, 99
1, 19314, Note_off_c, 0, 66, 99
1, 19390, Note_on_c, 0, 68, 120
1, 19645, Note_off_c, 0, 68, 120
1, 19721, Note_on_c, 0, 66, 97
1, 19971, Note_off_c, 0, 66, 97
1, 20025, Note_on_c, 0, 68, 118
1, 20291, Note_off_c, 0, 68, 118
1, 20291, Note_on_c, 0, 66, 104
1, 20497, Note_off_c, 0, 66, 104
1, 20611, Note_on_c, 0, 68, 121
1, 20850, Note_off_c, 0, 68, 121
1, 20920, Note_on_c, 0, 66, 111
1, 21148, Note_off_c, 0, 66, 111
1, 21529, Note_on_c, 0, 68, 110
1, 21833, Note_off_c, 0, 68, 110
1, 22475, Note_on_c, 0, 66, 114
1, 22589, Note_off_c, 0, 66, 114
1, 22632, Note_on_c, 0, 67, 107
1, 22920, Note_off_c, 0, 67, 107
1, 23018, Note_on_c, 0, 63, 118
1, 23197, Note_off_c, 0, 63, 118
1, 23316, Note_on_c, 0, 58, 106
1, 23452, Note_off_c, 0, 58, 106
1, 23479, Note_on_c, 0, 62, 113
1, 23707, Note_off_c, 0, 62, 113
1, 23810, Note_on_c, 0, 63, 116
1, 24719, Note_off_c, 0, 63, 116
1, 26526, Note_on_c, 0, 73, 122
1, 26722, Note_off_c, 0, 73, 122
1, 26738, Note_on_c, 0, 77, 113
1, 26972, Note_off_c, 0, 77, 113
1, 27151, Note_on_c, 0, 72, 119
1, 27483, Note_off_c, 0, 72, 119
1, 27537, Note_on_c, 0, 70, 118
1, 27863, Note_off_c, 0, 70, 118
1, 27906, Note_on_c, 0, 69, 114
1, 28178, Note_off_c, 0, 69, 114
1, 28325, Note_on_c, 0, 68, 107
1, 28640, Note_off_c, 0, 68, 107
1, 28770, Note_on_c, 0, 72, 121
1, 29091, Note_off_c, 0, 72, 121
1, 29156, Note_on_c, 0, 68, 109
1, 29341, Note_off_c, 0, 68, 109
1, 29362, Note_on_c, 0, 67, 111
1, 29454, Note_off_c, 0, 67, 111
1, 29541, Note_on_c, 0, 64, 101
1, 29873, Note_off_c, 0, 64, 101
1, 30025, Note_on_c, 0, 65, 120
1, 30406, Note_off_c, 0, 65, 120
1, 30422, Note_on_c, 0, 67, 119
1, 30759, Note_off_c, 0, 67, 119
1, 30829, Note_on_c, 0, 68, 110
1, 31150, Note_off_c, 0, 68, 110
1, 31188, Note_on_c, 0, 70, 118
1, 31552, Note_off_c, 0, 70, 118
1, 31846, Note_on_c, 0, 73, 120
1, 31916, Note_off_c, 0, 73, 120
1, 31916, Note_on_c, 0, 74, 123
1, 32084, Note_off_c, 0, 74, 123
1, 32094, Note_on_c, 0, 73, 118
1, 32251, Note_off_c, 0, 73, 118
1, 32251, Note_on_c, 0, 71, 110
1, 32741, Note_off_c, 0, 71, 110
1, 32746, Note_on_c, 0, 65, 99
1, 32811, Note_off_c, 0, 65, 99
1, 32820, Note_on_c, 0, 70, 106
1, 32976, Note_off_c, 0, 70, 106
1, 33029, Note_on_c, 0, 65, 105
1, 33132, Note_off_c, 0, 65, 105
1, 33151, Note_on_c, 0, 62, 119
1, 33579, Note_on_c, 0, 61, 103
1, 33579, Note_off_c, 0, 62, 119
1, 33644, Note_off_c, 0, 61, 103
1, 33651, Note_on_c, 0, 64, 111
1, 33796, Note_off_c, 0, 64, 111
1, 33796, Note_on_c, 0, 61, 114
1, 33907, Note_off_c, 0, 61, 114
1, 33907, Note_on_c, 0, 59, 115
1, 34205, Note_off_c, 0, 59, 115
1, 34254, Note_on_c, 0, 58, 116
1, 34598, Note_off_c, 0, 58, 116
1, 34643, Note_on_c, 0, 56, 119
1, 34834, Note_off_c, 0, 56, 119
1, 34883, Note_on_c, 0, 54, 122
1, 35039, Note_off_c, 0, 54, 122
1, 35058, Note_on_c, 0, 55, 92
1, 35605, Note_off_c, 0, 55, 92
1, 35739, Note_on_c, 0, 60, 111
1, 36259, Note_off_c, 0, 60, 111
1, 36435, Note_on_c, 0, 56, 112
1, 36503, Note_off_c, 0, 56, 112
1, 36529, Note_on_c, 0, 61, 123
1, 36590, Note_off_c, 0, 61, 123
1, 36620, Note_on_c, 0, 63, 117
1, 37075, Note_off_c, 0, 63, 117
1, 37105, Note_on_c, 0, 63, 119
1, 37361, Note_off_c, 0, 63, 119
1, 39125, Note_on_c, 0, 63, 115
1, 39266, Note_off_c, 0, 63, 115
1, 39354, Note_on_c, 0, 63, 101
1, 39488, Note_off_c, 0, 63, 101
1, 39553, Note_on_c, 0, 63, 120
1, 39755, Note_off_c, 0, 63, 120
1, 39957, Note_on_c, 0, 69, 113
1, 40156, Note_off_c, 0, 69, 113
1, 40163, Note_on_c, 0, 70, 121
1, 44175, Note_off_c, 0, 70, 121
1, 44240, Note_on_c, 0, 69, 104
1, 44423, Note_off_c, 0, 69, 104
1, 44449, Note_on_c, 0, 73, 122
1, 45065, Note_off_c, 0, 73, 122
1, 45091, Note_on_c, 0, 69, 108
1, 45255, Note_off_c, 0, 69, 108
1, 45350, Note_on_c, 0, 73, 124
1, 45851, Note_off_c, 0, 73, 124
1, 45889, Note_on_c, 0, 69, 109
1, 46045, Note_off_c, 0, 69, 109
1, 46087, Note_on_c, 0, 73, 125
1, 46676, Note_off_c, 0, 73, 125
1, 46748, Note_on_c, 0, 61, 98
1, 46893, Note_off_c, 0, 61, 98
1, 46954, Note_on_c, 0, 66, 117
1, 47608, Note_off_c, 0, 66, 117
1, 47630, Note_on_c, 0, 61, 111
1, 47775, Note_off_c, 0, 61, 111
1, 47843, Note_on_c, 0, 66, 117
1, 48379, Note_off_c, 0, 66, 117
1, 48424, Note_on_c, 0, 61, 111
1, 49224, Note_off_c, 0, 61, 111
1, 49243, Note_on_c, 0, 61, 112
1, 49767, Note_off_c, 0, 61, 112
1, 49847, Note_on_c, 0, 61, 110
1, 50069, Note_off_c, 0, 61, 110
1, 54582, Note_on_c, 0, 67, 119
1, 54754, Note_off_c, 0, 67, 119
1, 54776, Note_on_c, 0, 64, 111
1, 54940, Note_off_c, 0, 64, 111
1, 54962, Note_on_c, 0, 65, 113
1, 55084, Note_off_c, 0, 65, 113
1, 55118, Note_on_c, 0, 67, 118
1, 55274, Note_off_c, 0, 67, 118
1, 55319, Note_on_c, 0, 68, 104
1, 55632, Note_off_c, 0, 68, 104
1, 58802, Note_on_c, 0, 71, 119
1, 58951, Note_on_c, 0, 72, 112
1, 58951, Note_off_c, 0, 71, 119
1, 59180, Note_off_c, 0, 72, 112
1, 59792, Note_on_c, 0, 77, 114
1, 60190, Note_off_c, 0, 77, 114
1, 60201, Note_on_c, 0, 76, 120
1, 60553, Note_off_c, 0, 76, 120
1, 60614, Note_on_c, 0, 75, 114
1, 61035, Note_off_c, 0, 75, 114
1, 61054, Note_on_c, 0, 72, 116
1, 61264, Note_off_c, 0, 72, 116
1, 61371, Note_on_c, 0, 68, 112
1, 61566, Note_off_c, 0, 68, 112
1, 61581, Note_on_c, 0, 70, 105
1, 61707, Note_off_c, 0, 70, 105
1, 61733, Note_on_c, 0, 68, 110
1, 61824, Note_off_c, 0, 68, 110
1, 61850, Note_on_c, 0, 65, 115
1, 62129, Note_off_c, 0, 65, 115
1, 62148, Note_on_c, 0, 66, 106
1, 62638, Note_off_c, 0, 66, 106
1, 62745, Note_on_c, 0, 73, 119
1, 62955, Note_off_c, 0, 73, 119
1, 63004, Note_on_c, 0, 74, 112
1, 63252, Note_on_c, 0, 73, 95
1, 63252, Note_off_c, 0, 74, 112
1, 63462, Note_off_c, 0, 73, 95
1, 63523, Note_on_c, 0, 72, 116
1, 63802, Note_off_c, 0, 72, 116
1, 63890, Note_on_c, 0, 70, 110
1, 64092, Note_off_c, 0, 70, 110
1, 64145, Note_on_c, 0, 65, 109
1, 64309, Note_off_c, 0, 65, 109
1, 64339, Note_on_c, 0, 68, 116
1, 64649, Note_off_c, 0, 68, 116
1, 64775, Note_on_c, 0, 67, 120
1, 65054, Note_off_c, 0, 67, 120
1, 65299, Note_on_c, 0, 65, 118
1, 65547, Note_off_c, 0, 65, 118
1, 65596, Note_on_c, 0, 62, 106
1, 65883, Note_off_c, 0, 62, 106
1, 66131, Note_on_c, 0, 63, 117
1, 66307, Note_off_c, 0, 63, 117
1, 66345, Note_on_c, 0, 64, 115
1, 66601, Note_off_c, 0, 64, 115
1, 66608, Note_on_c, 0, 67, 113
1, 66791, Note_off_c, 0, 67, 113
1, 66871, Note_on_c, 0, 70, 113
1, 67257, Note_off_c, 0, 70, 113
1, 67433, Note_on_c, 0, 73, 117
1, 67773, Note_off_c, 0, 73, 117
1, 67795, Note_on_c, 0, 72, 115
1, 68085, Note_off_c, 0, 72, 115
1, 68100, Note_on_c, 0, 66, 109
1, 68628, Note_off_c, 0, 66, 109
1, 68731, Note_on_c, 0, 63, 98
1, 68861, Note_off_c, 0, 63, 98
1, 68868, Note_on_c, 0, 64, 101
1, 68982, Note_off_c, 0, 64, 101
1, 69016, Note_on_c, 0, 65, 113
1, 69180, Note_off_c, 0, 65, 113
1, 69210, Note_on_c, 0, 67, 120
1, 69435, Note_off_c, 0, 67, 120
1, 69488, Note_on_c, 0, 71, 117
1, 69660, Note_off_c, 0, 71, 117
1, 69920, Note_on_c, 0, 72, 121
1, 70226, Note_off_c, 0, 72, 121
1, 70382, Note_on_c, 0, 68, 115
1, 70680, Note_off_c, 0, 68, 115
1, 70833, Note_on_c, 0, 68, 112
1, 70967, Note_off_c, 0, 68, 112
1, 70993, Note_on_c, 0, 67, 113
1, 71084, Note_off_c, 0, 67, 113
1, 71087, Note_on_c, 0, 66, 115
1, 71232, Note_off_c, 0, 66, 115
1, 71254, Note_on_c, 0, 65, 123
1, 71422, Note_off_c, 0, 65, 123
1, 71728, Note_on_c, 0, 73, 124
1, 71808, Note_on_c, 0, 74, 124
1, 71808, Note_off_c, 0, 73, 124
1, 71987, Note_off_c, 0, 74, 124
1, 71987, Note_on_c, 0, 73, 119
1, 72117, Note_off_c, 0, 73, 119
1, 72159, Note_on_c, 0, 71, 123
1, 72427, Note_off_c, 0, 71, 123
1, 72580, Note_on_c, 0, 70, 121
1, 72855, Note_off_c, 0, 70, 121
1, 72946, Note_on_c, 0, 69, 120
1, 73240, Note_off_c, 0, 69, 120
1, 73270, Note_on_c, 0, 68, 111
1, 73614, Note_off_c, 0, 68, 111
1, 73728, Note_on_c, 0, 72, 121
1, 74038, Note_off_c, 0, 72, 121
1, 74053, Note_on_c, 0, 67, 111
1, 74562, Note_off_c, 0, 67, 111
1, 74588, Note_on_c, 0, 65, 103
1, 74760, Note_off_c, 0, 65, 103
1, 74871, Note_on_c, 0, 69, 117
1, 75024, Note_off_c, 0, 69, 117
1, 75032, Note_on_c, 0, 70, 120
1, 77444, Note_off_c, 0, 70, 120
1, 77458, Note_on_c, 0, 75, 117
1, 77683, Note_off_c, 0, 75, 117
1, 77713, Note_on_c, 0, 70, 110
1, 77919, Note_off_c, 0, 70, 110
1, 77987, Note_on_c, 0, 65, 79
1, 78232, Note_off_c, 0, 65, 79
1, 78304, Note_on_c, 0, 70, 107
1, 78924, Note_off_c, 0, 70, 107
1, 82568, Note_on_c, 0, 70, 121
1, 82705, Note_off_c, 0, 70, 121
1, 82750, Note_on_c, 0, 72, 116
1, 82864, Note_off_c, 0, 72, 116
1, 82906, Note_on_c, 0, 70, 116
1, 83017, Note_off_c, 0, 70, 116
1, 83024, Note_on_c, 0, 69, 119
1, 83180, Note_off_c, 0, 69, 119
1, 83191, Note_on_c, 0, 70, 120
1, 83355, Note_off_c, 0, 70, 120
1, 83477, Note_on_c, 0, 71, 117
1, 83618, Note_off_c, 0, 71, 117
1, 83629, Note_on_c, 0, 72, 119
1, 83824, Note_off_c, 0, 72, 119
1, 83835, Note_on_c, 0, 73, 113
1, 83972, Note_off_c, 0, 73, 113
1, 84006, Note_on_c, 0, 77, 115
1, 84105, Note_off_c, 0, 77, 115
1, 84116, Note_on_c, 0, 74, 120
1, 84204, Note_off_c, 0, 74, 120
1, 84219, Note_on_c, 0, 75, 123
1, 84410, Note_off_c, 0, 75, 123
1, 84444, Note_on_c, 0, 70, 120
1, 84658, Note_off_c, 0, 70, 120
1, 84665, Note_on_c, 0, 69, 107
1, 84852, Note_off_c, 0, 69, 107
1, 84878, Note_on_c, 0, 68, 114
1, 85042, Note_off_c, 0, 68, 114
1, 85095, Note_on_c, 0, 67, 113
1, 85263, Note_off_c, 0, 67, 113
1, 85293, Note_on_c, 0, 66, 114
1, 85472, Note_off_c, 0, 66, 114
1, 85506, Note_on_c, 0, 65, 117
1, 85678, Note_off_c, 0, 65, 117
1, 85685, Note_on_c, 0, 64, 119
1, 85887, Note_off_c, 0, 64, 119
1, 85925, Note_on_c, 0, 63, 113
1, 86108, Note_off_c, 0, 63, 113
1, 86169, Note_on_c, 0, 59, 100
1, 86264, Note_off_c, 0, 59, 100
1, 86332, Note_on_c, 0, 63, 109
1, 86496, Note_off_c, 0, 63, 109
1, 86496, Note_on_c, 0, 67, 122
1, 86737, Note_off_c, 0, 67, 122
1, 86825, Note_on_c, 0, 64, 115
1, 86970, Note_off_c, 0, 64, 115
1, 86992, Note_on_c, 0, 62, 97
1, 87018, Note_off_c, 0, 62, 97
1, 87056, Note_on_c, 0, 63, 103
1, 87113, Note_off_c, 0, 63, 103
1, 87132, Note_on_c, 0, 64, 113
1, 87342, Note_off_c, 0, 64, 113
1, 87349, Note_on_c, 0, 67, 116
1, 87548, Note_off_c, 0, 67, 116
1, 87578, Note_on_c, 0, 65, 117
1, 87792, Note_off_c, 0, 65, 117
1, 87807, Note_on_c, 0, 67, 122
1, 87952, Note_off_c, 0, 67, 122
1, 87963, Note_on_c, 0, 68, 123
1, 88211, Note_off_c, 0, 68, 123
1, 88214, Note_on_c, 0, 65, 118
1, 88409, Note_off_c, 0, 65, 118
1, 88420, Note_on_c, 0, 66, 101
1, 88657, Note_off_c, 0, 66, 101
1, 88676, Note_on_c, 0, 68, 95
1, 88771, Note_off_c, 0, 68, 95
1, 88793, Note_on_c, 0, 74, 119
1, 88957, Note_off_c, 0, 74, 119
1, 88987, Note_on_c, 0, 72, 117
1, 89086, Note_off_c, 0, 72, 117
1, 89086, Note_on_c, 0, 71, 116
1, 89258, Note_off_c, 0, 71, 116
1, 89258, Note_on_c, 0, 70, 110
1, 89437, Note_off_c, 0, 70, 110
1, 89479, Note_on_c, 0, 68, 117
1, 89670, Note_off_c, 0, 68, 117
1, 89692, Note_on_c, 0, 67, 107
1, 89883, Note_on_c, 0, 65, 116
1, 89883, Note_off_c, 0, 67, 107
1, 90051, Note_off_c, 0, 65, 116
1, 90112, Note_on_c, 0, 63, 99
1, 90345, Note_off_c, 0, 63, 99
1, 90348, Note_on_c, 0, 64, 116
1, 90485, Note_off_c, 0, 64, 116
1, 90488, Note_on_c, 0, 65, 113
1, 90652, Note_off_c, 0, 65, 113
1, 90705, Note_on_c, 0, 61, 112
1, 90877, Note_off_c, 0, 61, 112
1, 91133, Note_on_c, 0, 58, 108
1, 91312, Note_off_c, 0, 58, 108
1, 91331, Note_on_c, 0, 57, 104
1, 91526, Note_off_c, 0, 57, 104
1, 91755, Note_on_c, 0, 60, 116
1, 91946, Note_off_c, 0, 60, 116
1, 92011, Note_on_c, 0, 57, 106
1, 92129, Note_off_c, 0, 57, 106
1, 92144, Note_on_c, 0, 58, 106
1, 92262, Note_off_c, 0, 58, 106
1, 92338, Note_on_c, 0, 61, 109
1, 92491, Note_off_c, 0, 61, 109
1, 92521, Note_on_c, 0, 62, 107
1, 92651, Note_off_c, 0, 62, 107
1, 92681, Note_on_c, 0, 63, 108
1, 92769, Note_off_c, 0, 63, 108
1, 92799, Note_on_c, 0, 64, 118
1, 92933, Note_off_c, 0, 64, 118
1, 92940, Note_on_c, 0, 65, 116
1, 93089, Note_off_c, 0, 65, 116
1, 93111, Note_on_c, 0, 68, 109
1, 93283, Note_off_c, 0, 68, 109
1, 93321, Note_on_c, 0, 72, 116
1, 93577, Note_off_c, 0, 72, 116
1, 93577, Note_on_c, 0, 69, 108
1, 93783, Note_off_c, 0, 69, 108
1, 93783, Note_on_c, 0, 70, 111
1, 93989, Note_off_c, 0, 70, 111
1, 93989, Note_on_c, 0, 68, 117
1, 94214, Note_off_c, 0, 68, 117
1, 94217, Note_on_c, 0, 67, 107
1, 94377, Note_off_c, 0, 67, 107
1, 94422, Note_on_c, 0, 65, 119
1, 94632, Note_off_c, 0, 65, 119
1, 94632, Note_on_c, 0, 64, 102
1, 94670, Note_off_c, 0, 64, 102
1, 94670, Note_on_c, 0, 65, 105
1, 94773, Note_off_c, 0, 65, 105
1, 94788, Note_on_c, 0, 64, 104
1, 94906, Note_off_c, 0, 64, 104
1, 94906, Note_on_c, 0, 62, 112
1, 95051, Note_off_c, 0, 62, 112
1, 95116, Note_on_c, 0, 64, 117
1, 95246, Note_off_c, 0, 64, 117
1, 95288, Note_on_c, 0, 65, 114
1, 95471, Note_off_c, 0, 65, 114
1, 95490, Note_on_c, 0, 67, 101
1, 95658, Note_off_c, 0, 67, 101
1, 95700, Note_on_c, 0, 68, 102
1, 95834, Note_off_c, 0, 68, 102
1, 95879, Note_on_c, 0, 70, 116
1, 96143, Note_off_c, 0, 70, 116
1, 96146, Note_on_c, 0, 67, 106
1, 96291, Note_off_c, 0, 67, 106
1, 96310, Note_on_c, 0, 68, 104
1, 96451, Note_off_c, 0, 68, 104
1, 96451, Note_on_c, 0, 70, 117
1, 96619, Note_off_c, 0, 70, 117
1, 96710, Note_on_c, 0, 71, 113
1, 96905, Note_off_c, 0, 71, 113
1, 96962, Note_on_c, 0, 72, 104
1, 97042, Note_off_c, 0, 72, 104
1, 97091, Note_on_c, 0, 77, 115
1, 97240, Note_off_c, 0, 77, 115
1, 97301, Note_on_c, 0, 76, 120
1, 97515, Note_on_c, 0, 75, 119
1, 97515, Note_off_c, 0, 76, 120
1, 97748, Note_off_c, 0, 75, 119
1, 97790, Note_on_c, 0, 73, 98
1, 98100, Note_off_c, 0, 73, 98
1, 98176, Note_on_c, 0, 71, 107
1, 98375, Note_off_c, 0, 71, 107
1, 98375, Note_on_c, 0, 72, 108
1, 98482, Note_off_c, 0, 72, 108
1, 98516, Note_on_c, 0, 71, 96
1, 98581, Note_off_c, 0, 71, 96
1, 98603, Note_on_c, 0, 68, 102
1, 98775, Note_off_c, 0, 68, 102
1, 98820, Note_on_c, 0, 67, 107
1, 98973, Note_off_c, 0, 67, 107
1, 98973, Note_on_c, 0, 65, 107
1, 99172, Note_off_c, 0, 65, 107
1, 99172, Note_on_c, 0, 70, 115
1, 99397, Note_off_c, 0, 70, 115
1, 99435, Note_on_c, 0, 67, 109
1, 99576, Note_off_c, 0, 67, 109
1, 99595, Note_on_c, 0, 68, 101
1, 99748, Note_off_c, 0, 68, 101
1, 99755, Note_on_c, 0, 70, 114
1, 99973, Note_off_c, 0, 70, 114
1, 99984, Note_on_c, 0, 72, 115
1, 100209, Note_off_c, 0, 72, 115
1, 100239, Note_on_c, 0, 68, 115
1, 100411, Note_off_c, 0, 68, 115
1, 102677, Note_on_c, 0, 79, 120
1, 102807, Note_off_c, 0, 79, 120
1, 102814, Note_on_c, 0, 80, 116
1, 103013, Note_off_c, 0, 80, 116
1, 103062, Note_on_c, 0, 78, 114
1, 103268, Note_off_c, 0, 78, 114
1, 103310, Note_on_c, 0, 79, 111
1, 103489, Note_off_c, 0, 79, 111
1, 103538, Note_on_c, 0, 76, 119
1, 103721, Note_off_c, 0, 76, 119
1, 103732, Note_on_c, 0, 77, 111
1, 103888, Note_off_c, 0, 77, 111
1, 103910, Note_on_c, 0, 75, 122
1, 104112, Note_off_c, 0, 75, 122
1, 104123, Note_on_c, 0, 74, 120
1, 104306, Note_off_c, 0, 74, 120
1, 104306, Note_on_c, 0, 73, 111
1, 104424, Note_off_c, 0, 73, 111
1, 104439, Note_on_c, 0, 72, 117
1, 104550, Note_off_c, 0, 72, 117
1, 104550, Note_on_c, 0, 74, 122
1, 104661, Note_off_c, 0, 74, 122
1, 104664, Note_on_c, 0, 72, 115
1, 104763, Note_off_c, 0, 72, 115
1, 104770, Note_on_c, 0, 71, 118
1, 104926, Note_off_c, 0, 71, 118
1, 104941, Note_on_c, 0, 70, 120
1, 105143, Note_off_c, 0, 70, 120
1, 105154, Note_on_c, 0, 68, 116
1, 105345, Note_off_c, 0, 68, 116
1, 105375, Note_on_c, 0, 65, 105
1, 105524, Note_off_c, 0, 65, 105
1, 105535, Note_on_c, 0, 66, 105
1, 105707, Note_off_c, 0, 66, 105
1, 105733, Note_on_c, 0, 67, 103
1, 105855, Note_off_c, 0, 67, 103
1, 105950, Note_on_c, 0, 63, 115
1, 106087, Note_off_c, 0, 63, 115
1, 106106, Note_on_c, 0, 60, 101
1, 106259, Note_off_c, 0, 60, 101
1, 106327, Note_on_c, 0, 58, 97
1, 106503, Note_off_c, 0, 58, 97
1, 106506, Note_on_c, 0, 65, 117
1, 106720, Note_off_c, 0, 65, 117
1, 106758, Note_on_c, 0, 62, 103
1, 106907, Note_off_c, 0, 62, 103
1, 106914, Note_on_c, 0, 63, 108
1, 107093, Note_off_c, 0, 63, 108
1, 107115, Note_on_c, 0, 65, 117
1, 107317, Note_off_c, 0, 65, 117
1, 107378, Note_on_c, 0, 67, 116
1, 107534, Note_off_c, 0, 67, 116
1, 107549, Note_on_c, 0, 68, 106
1, 107721, Note_off_c, 0, 68, 106
1, 107740, Note_on_c, 0, 67, 108
1, 107950, Note_off_c, 0, 67, 108
1, 107969, Note_on_c, 0, 65, 117
1, 108160, Note_off_c, 0, 65, 117
1, 108171, Note_on_c, 0, 64, 113
1, 108331, Note_off_c, 0, 64, 113
1, 108587, Note_on_c, 0, 68, 112
1, 108690, Note_off_c, 0, 68, 112
1, 108701, Note_on_c, 0, 67, 114
1, 108819, Note_off_c, 0, 67, 114
1, 108841, Note_on_c, 0, 64, 116
1, 108994, Note_off_c, 0, 64, 116
1, 109009, Note_on_c, 0, 65, 120
1, 109173, Note_off_c, 0, 65, 120
1, 109173, Note_on_c, 0, 67, 116
1, 109352, Note_off_c, 0, 67, 116
1, 109367, Note_on_c, 0, 68, 114
1, 109550, Note_off_c, 0, 68, 114
1, 109569, Note_on_c, 0, 70, 115
1, 109791, Note_off_c, 0, 70, 115
1, 109821, Note_on_c, 0, 72, 116
1, 110027, Note_off_c, 0, 72, 116
1, 110099, Note_on_c, 0, 75, 109
1, 110309, Note_off_c, 0, 75, 109
1, 110431, Note_on_c, 0, 79, 113
1, 110660, Note_off_c, 0, 79, 113
1, 110828, Note_on_c, 0, 76, 117
1, 111015, Note_off_c, 0, 76, 117
1, 111015, Note_on_c, 0, 77, 108
1, 111244, Note_off_c, 0, 77, 108
1, 111244, Note_on_c, 0, 75, 120
1, 111458, Note_off_c, 0, 75, 120
1, 111458, Note_on_c, 0, 74, 117
1, 111607, Note_off_c, 0, 74, 117
1, 111607, Note_on_c, 0, 73, 122
1, 111809, Note_off_c, 0, 73, 122
1, 111809, Note_on_c, 0, 72, 112
1, 111877, Note_off_c, 0, 72, 112
1, 111877, Note_on_c, 0, 73, 121
1, 111988, Note_off_c, 0, 73, 121
1, 111999, Note_on_c, 0, 72, 111
1, 112067, Note_off_c, 0, 72, 111
1, 112074, Note_on_c, 0, 71, 10
1, 112276, Note_off_c, 0, 71, 10
1, 112276, Note_on_c, 0, 70, 25
1, 112440, Note_off_c, 0, 70, 25
1, 112489, Note_on_c, 0, 69, 114
1, 112653, Note_off_c, 0, 69, 114
1, 112668, Note_on_c, 0, 68, 111
1, 112863, Note_off_c, 0, 68, 111
1, 112878, Note_on_c, 0, 67, 111
1, 113061, Note_off_c, 0, 67, 111
1, 113114, Note_on_c, 0, 65, 115
1, 113259, Note_off_c, 0, 65, 115
1, 113301, Note_on_c, 0, 63, 114
1, 113412, Note_off_c, 0, 63, 114
1, 113438, Note_on_c, 0, 62, 109
1, 113545, Note_off_c, 0, 62, 109
1, 113575, Note_on_c, 0, 65, 118
1, 113693, Note_off_c, 0, 65, 118
1, 113712, Note_on_c, 0, 67, 104
1, 113861, Note_off_c, 0, 67, 104
1, 113872, Note_on_c, 0, 73, 121
1, 114082, Note_off_c, 0, 73, 121
1, 114085, Note_on_c, 0, 74, 119
1, 114272, Note_off_c, 0, 74, 119
1, 114272, Note_on_c, 0, 73, 115
1, 114363, Note_off_c, 0, 73, 115
1, 114378, Note_on_c, 0, 71, 117
1, 114642, Note_off_c, 0, 71, 117
1, 114664, Note_on_c, 0, 66, 113
1, 114813, Note_off_c, 0, 66, 113
1, 114954, Note_on_c, 0, 62, 116
1, 115107, Note_off_c, 0, 62, 116
1, 115110, Note_on_c, 0, 59, 102
1, 115259, Note_off_c, 0, 59, 102
1, 115358, Note_on_c, 0, 57, 109
1, 115514, Note_off_c, 0, 57, 109
1, 115548, Note_on_c, 0, 58, 112
1, 115720, Note_off_c, 0, 58, 112
1, 115739, Note_on_c, 0, 62, 105
1, 115819, Note_off_c, 0, 62, 105
1, 115819, Note_on_c, 0, 61, 92
1, 115899, Note_off_c, 0, 61, 92
1, 115952, Note_on_c, 0, 59, 96
1, 116040, Note_off_c, 0, 59, 96
1, 116082, Note_on_c, 0, 53, 113
1, 116227, Note_off_c, 0, 53, 113
1, 116238, Note_on_c, 0, 54, 96
1, 116314, Note_off_c, 0, 54, 96
1, 116356, Note_on_c, 0, 58, 96
1, 116428, Note_off_c, 0, 58, 96
1, 116450, Note_on_c, 0, 60, 99
1, 116518, Note_off_c, 0, 60, 99
1, 116529, Note_on_c, 0, 62, 107
1, 116663, Note_off_c, 0, 62, 107
1, 116674, Note_on_c, 0, 65, 115
1, 116930, Note_off_c, 0, 65, 115
1, 116952, Note_on_c, 0, 62, 105
1, 117177, Note_off_c, 0, 62, 105
1, 117215, Note_on_c, 0, 63, 107
1, 117356, Note_off_c, 0, 63, 107
1, 117356, Note_on_c, 0, 65, 115
1, 117597, Note_off_c, 0, 65, 115
1, 117627, Note_on_c, 0, 67, 110
1, 117872, Note_off_c, 0, 67, 110
1, 117875, Note_on_c, 0, 68, 113
1, 117936, Note_off_c, 0, 68, 113
1, 117985, Note_on_c, 0, 74, 119
1, 118107, Note_off_c, 0, 74, 119
1, 118107, Note_on_c, 0, 72, 119
1, 118191, Note_off_c, 0, 72, 119
1, 118210, Note_on_c, 0, 71, 118
1, 118363, Note_off_c, 0, 71, 118
1, 118378, Note_on_c, 0, 70, 117
1, 118561, Note_off_c, 0, 70, 117
1, 118568, Note_on_c, 0, 69, 118
1, 118740, Note_off_c, 0, 69, 118
1, 118774, Note_on_c, 0, 68, 112
1, 118953, Note_off_c, 0, 68, 112
1, 118991, Note_on_c, 0, 67, 114
1, 119197, Note_off_c, 0, 67, 114
1, 119231, Note_on_c, 0, 65, 111
1, 119403, Note_off_c, 0, 65, 111
1, 119406, Note_on_c, 0, 63, 119
1, 119540, Note_off_c, 0, 63, 119
1, 119846, Note_on_c, 0, 65, 116
1, 119953, Note_off_c, 0, 65, 116
1, 119960, Note_on_c, 0, 68, 113
1, 120143, Note_off_c, 0, 68, 113
1, 120173, Note_on_c, 0, 71, 115
1, 120402, Note_off_c, 0, 71, 115
1, 120547, Note_on_c, 0, 68, 114
1, 120638, Note_off_c, 0, 68, 114
1, 120660, Note_on_c, 0, 69, 117
1, 120790, Note_off_c, 0, 69, 117
1, 120790, Note_on_c, 0, 70, 99
1, 120924, Note_off_c, 0, 70, 99
1, 121475, Note_on_c, 0, 70, 99
1, 121605, Note_off_c, 0, 70, 99
1, 121823, Note_on_c, 0, 70, 104
1, 122014, Note_off_c, 0, 70, 104
1, 122151, Note_on_c, 0, 70, 97
1, 122208, Note_off_c, 0, 70, 97
1, 122227, Note_on_c, 0, 71, 106
1, 122403, Note_off_c, 0, 71, 106
1, 122502, Note_on_c, 0, 72, 110
1, 122643, Note_off_c, 0, 72, 110
1, 122688, Note_on_c, 0, 72, 110
1, 122898, Note_off_c, 0, 72, 110
1, 122951, Note_on_c, 0, 71, 111
1, 123130, Note_off_c, 0, 71, 111
1, 123156, Note_on_c, 0, 72, 105
1, 123232, Note_off_c, 0, 72, 105
1, 123254, Note_on_c, 0, 72, 117
1, 123380, Note_off_c, 0, 72, 117
1, 123406, Note_on_c, 0, 72, 120
1, 123559, Note_off_c, 0, 72, 120
1, 123608, Note_on_c, 0, 72, 119
1, 123764, Note_off_c, 0, 72, 119
1, 124028, Note_on_c, 0, 72, 114
1, 124303, Note_off_c, 0, 72, 114
1, 124459, Note_on_c, 0, 79, 114
1, 124841, Note_off_c, 0, 79, 114
1, 125572, Note_on_c, 0, 71, 114
1, 125660, Note_off_c, 0, 71, 114
1, 125667, Note_on_c, 0, 72, 104
1, 125758, Note_off_c, 0, 72, 104
1, 125918, Note_on_c, 0, 71, 93
1, 125948, Note_off_c, 0, 71, 93
1, 125967, Note_on_c, 0, 72, 111
1, 126058, Note_off_c, 0, 72, 111
1, 126115, Note_on_c, 0, 72, 117
1, 126291, Note_off_c, 0, 72, 117
1, 126356, Note_on_c, 0, 72, 101
1, 126581, Note_off_c, 0, 72, 101
1, 126661, Note_on_c, 0, 72, 107
1, 126814, Note_off_c, 0, 72, 107
1, 126859, Note_on_c, 0, 72, 102
1, 127073, Note_off_c, 0, 72, 102
1, 127252, Note_on_c, 0, 75, 111
1, 127431, Note_off_c, 0, 75, 111
1, 127626, Note_on_c, 0, 78, 112
1, 127920, Note_off_c, 0, 78, 112
1, 129577, Note_on_c, 0, 79, 119
1, 129718, Note_off_c, 0, 79, 119
1, 129733, Note_on_c, 0, 80, 116
1, 129970, Note_off_c, 0, 80, 116
1, 129981, Note_on_c, 0, 76, 109
1, 130157, Note_off_c, 0, 76, 109
1, 130199, Note_on_c, 0, 79, 112
1, 130432, Note_off_c, 0, 79, 112
1, 130432, Note_on_c, 0, 76, 116
1, 130608, Note_off_c, 0, 76, 116
1, 130608, Note_on_c, 0, 77, 111
1, 130795, Note_off_c, 0, 77, 111
1, 130795, Note_on_c, 0, 75, 121
1, 130963, Note_off_c, 0, 75, 121
1, 130985, Note_on_c, 0, 74, 116
1, 131176, Note_off_c, 0, 74, 116
1, 131225, Note_on_c, 0, 72, 120
1, 131355, Note_off_c, 0, 72, 120
1, 131385, Note_on_c, 0, 71, 115
1, 131453, Note_off_c, 0, 71, 115
1, 131479, Note_on_c, 0, 69, 106
1, 131601, Note_off_c, 0, 69, 106
1, 131601, Note_on_c, 0, 70, 123
1, 131777, Note_off_c, 0, 70, 123
1, 131777, Note_on_c, 0, 72, 123
1, 131945, Note_off_c, 0, 72, 123
1, 131964, Note_on_c, 0, 73, 124
1, 132136, Note_off_c, 0, 73, 124
1, 132139, Note_on_c, 0, 75, 108
1, 132326, Note_off_c, 0, 75, 108
1, 132337, Note_on_c, 0, 77, 122
1, 132501, Note_off_c, 0, 77, 122
1, 132501, Note_on_c, 0, 79, 122
1, 132543, Note_off_c, 0, 79, 122
1, 132546, Note_on_c, 0, 80, 125
1, 132680, Note_off_c, 0, 80, 125
1, 132691, Note_on_c, 0, 79, 122
1, 132874, Note_off_c, 0, 79, 122
1, 132896, Note_on_c, 0, 77, 121
1, 133075, Note_off_c, 0, 77, 121
1, 133090, Note_on_c, 0, 76, 124
1, 133273, Note_off_c, 0, 76, 124
1, 133284, Note_on_c, 0, 74, 122
1, 133471, Note_off_c, 0, 74, 122
1, 133471, Note_on_c, 0, 75, 120
1, 133650, Note_off_c, 0, 75, 120
1, 133695, Note_on_c, 0, 73, 114
1, 133943, Note_off_c, 0, 73, 114
1, 133981, Note_on_c, 0, 72, 96
1, 134080, Note_off_c, 0, 72, 96
1, 134106, Note_on_c, 0, 73, 106
1, 134213, Note_off_c, 0, 73, 106
1, 134239, Note_on_c, 0, 72, 121
1, 134434, Note_off_c, 0, 72, 121
1, 134514, Note_on_c, 0, 68, 116
1, 134720, Note_off_c, 0, 68, 116
1, 134723, Note_on_c, 0, 67, 89
1, 134822, Note_off_c, 0, 67, 89
1, 134898, Note_on_c, 0, 65, 96
1, 135047, Note_off_c, 0, 65, 96
1, 135096, Note_on_c, 0, 70, 120
1, 135268, Note_off_c, 0, 70, 120
1, 135317, Note_on_c, 0, 67, 111
1, 135516, Note_off_c, 0, 67, 111
1, 135519, Note_on_c, 0, 68, 107
1, 135618, Note_off_c, 0, 68, 107
1, 135629, Note_on_c, 0, 70, 114
1, 135851, Note_off_c, 0, 70, 114
1, 135900, Note_on_c, 0, 71, 115
1, 136053, Note_off_c, 0, 71, 115
1, 136087, Note_on_c, 0, 72, 108
1, 136274, Note_off_c, 0, 72, 108
1, 136289, Note_on_c, 0, 77, 117
1, 136461, Note_off_c, 0, 77, 117
1, 136510, Note_on_c, 0, 76, 122
1, 136705, Note_off_c, 0, 76, 122
1, 136712, Note_on_c, 0, 75, 122
1, 136930, Note_off_c, 0, 75, 122
1, 136930, Note_on_c, 0, 73, 119
1, 137140, Note_off_c, 0, 73, 119
1, 137147, Note_on_c, 0, 72, 113
1, 137185, Note_off_c, 0, 72, 113
1, 137192, Note_on_c, 0, 73, 103
1, 137280, Note_off_c, 0, 73, 103
1, 137291, Note_on_c, 0, 72, 98
1, 137340, Note_off_c, 0, 72, 98
1, 137355, Note_on_c, 0, 71, 114
1, 137515, Note_off_c, 0, 71, 114
1, 137534, Note_on_c, 0, 72, 119
1, 137702, Note_off_c, 0, 72, 119
1, 137767, Note_on_c, 0, 68, 112
1, 137847, Note_off_c, 0, 68, 112
1, 137847, Note_on_c, 0, 67, 108
1, 137877, Note_off_c, 0, 67, 108
1, 137896, Note_on_c, 0, 68, 115
1, 138003, Note_off_c, 0, 68, 115
1, 138003, Note_on_c, 0, 67, 106
1, 138114, Note_off_c, 0, 67, 106
1, 138190, Note_on_c, 0, 65, 108
1, 138316, Note_off_c, 0, 65, 108
1, 138358, Note_on_c, 0, 70, 118
1, 138583, Note_off_c, 0, 70, 118
1, 138583, Note_on_c, 0, 67, 111
1, 138759, Note_off_c, 0, 67, 111
1, 138778, Note_on_c, 0, 68, 112
1, 138946, Note_off_c, 0, 68, 112
1, 138946, Note_on_c, 0, 70, 106
1, 139175, Note_on_c, 0, 71, 115
1, 139175, Note_off_c, 0, 70, 106
1, 139377, Note_off_c, 0, 71, 115
1, 139380, Note_on_c, 0, 72, 119
1, 139536, Note_off_c, 0, 72, 119
1, 141339, Note_on_c, 0, 81, 119
1, 141446, Note_off_c, 0, 81, 119
1, 141449, Note_on_c, 0, 83, 123
1, 141556, Note_off_c, 0, 83, 123
1, 141575, Note_on_c, 0, 84, 122
1, 142313, Note_off_c, 0, 84, 122
1, 142316, Note_on_c, 0, 79, 96
1, 142457, Note_off_c, 0, 79, 96
1, 142457, Note_on_c, 0, 82, 116
1, 142755, Note_off_c, 0, 82, 116
1, 143103, Note_on_c, 0, 71, 117
1, 143302, Note_off_c, 0, 71, 117
1, 143321, Note_on_c, 0, 75, 108
1, 143455, Note_off_c, 0, 75, 108
1, 143539, Note_on_c, 0, 80, 122
1, 144132, Note_off_c, 0, 80, 122
1, 144143, Note_on_c, 0, 79, 117
1, 144345, Note_off_c, 0, 79, 117
1, 144364, Note_on_c, 0, 77, 112
1, 144432, Note_off_c, 0, 77, 112
1, 144474, Note_on_c, 0, 75, 108
1, 144539, Note_off_c, 0, 75, 108
1, 144577, Note_on_c, 0, 71, 91
1, 144695, Note_off_c, 0, 71, 91
1, 144760, Note_on_c, 0, 70, 106
1, 144855, Note_off_c, 0, 70, 106
1, 144946, Note_on_c, 0, 77, 119
1, 145168, Note_off_c, 0, 77, 119
1, 145213, Note_on_c, 0, 74, 112
1, 145373, Note_off_c, 0, 74, 112
1, 145388, Note_on_c, 0, 75, 112
1, 145571, Note_off_c, 0, 75, 112
1, 145571, Note_on_c, 0, 77, 117
1, 145800, Note_off_c, 0, 77, 117
1, 145861, Note_on_c, 0, 79, 120
1, 145995, Note_off_c, 0, 79, 120
1, 146025, Note_on_c, 0, 80, 124
1, 146185, Note_off_c, 0, 80, 124
1, 146196, Note_on_c, 0, 79, 113
1, 146391, Note_off_c, 0, 79, 113
1, 146402, Note_on_c, 0, 77, 121
1, 146543, Note_off_c, 0, 77, 121
1, 146642, Note_on_c, 0, 74, 110
1, 146787, Note_off_c, 0, 74, 110
1, 146794, Note_on_c, 0, 75, 117
1, 146973, Note_off_c, 0, 75, 117
1, 147011, Note_on_c, 0, 76, 124
1, 147213, Note_off_c, 0, 76, 124
1, 147297, Note_on_c, 0, 67, 107
1, 147446, Note_off_c, 0, 67, 107
1, 147488, Note_on_c, 0, 70, 101
1, 147644, Note_off_c, 0, 70, 101
1, 147647, Note_on_c, 0, 73, 114
1, 147823, Note_off_c, 0, 73, 114
1, 147823, Note_on_c, 0, 70, 113
1, 148018, Note_off_c, 0, 70, 113
1, 148040, Note_on_c, 0, 68, 101
1, 148200, Note_off_c, 0, 68, 101
1, 148211, Note_on_c, 0, 69, 102
1, 148387, Note_off_c, 0, 69, 102
1, 148425, Note_on_c, 0, 68, 114
1, 148536, Note_off_c, 0, 68, 114
1, 148566, Note_on_c, 0, 67, 105
1, 148780, Note_off_c, 0, 67, 105
1, 148810, Note_on_c, 0, 64, 105
1, 149078, Note_off_c, 0, 64, 105
1, 149089, Note_on_c, 0, 63, 107
1, 149203, Note_off_c, 0, 63, 107
1, 149256, Note_on_c, 0, 60, 103
1, 149359, Note_off_c, 0, 60, 103
1, 149435, Note_on_c, 0, 67, 119
1, 149630, Note_off_c, 0, 67, 119
1, 149668, Note_on_c, 0, 64, 106
1, 149863, Note_off_c, 0, 64, 106
1, 149882, Note_on_c, 0, 65, 112
1, 150096, Note_off_c, 0, 65, 112
1, 150134, Note_on_c, 0, 67, 117
1, 150279, Note_off_c, 0, 67, 117
1, 150282, Note_on_c, 0, 68, 115
1, 150484, Note_off_c, 0, 68, 115
1, 150491, Note_on_c, 0, 70, 111
1, 150686, Note_off_c, 0, 70, 111
1, 150728, Note_on_c, 0, 75, 122
1, 150923, Note_off_c, 0, 75, 122
1, 150991, Note_on_c, 0, 75, 107
1, 151281, Note_off_c, 0, 75, 107
1, 151376, Note_on_c, 0, 79, 118
1, 151621, Note_off_c, 0, 79, 118
1, 151747, Note_on_c, 0, 76, 107
1, 151911, Note_off_c, 0, 76, 107
1, 151941, Note_on_c, 0, 77, 115
1, 152136, Note_off_c, 0, 77, 115
1, 152136, Note_on_c, 0, 75, 88
1, 152300, Note_off_c, 0, 75, 88
1, 152322, Note_on_c, 0, 74, 120
1, 152509, Note_off_c, 0, 74, 120
1, 152516, Note_on_c, 0, 73, 120
1, 152718, Note_off_c, 0, 73, 120
1, 152718, Note_on_c, 0, 72, 109
1, 152806, Note_off_c, 0, 72, 109
1, 152817, Note_on_c, 0, 74, 115
1, 152931, Note_off_c, 0, 74, 115
1, 152931, Note_on_c, 0, 72, 119
1, 153019, Note_off_c, 0, 72, 119
1, 153019, Note_on_c, 0, 71, 121
1, 153187, Note_off_c, 0, 71, 121
1, 153252, Note_on_c, 0, 70, 120
1, 153477, Note_off_c, 0, 70, 120
1, 153477, Note_on_c, 0, 69, 108
1, 153599, Note_off_c, 0, 69, 108
1, 153602, Note_on_c, 0, 68, 109
1, 153816, Note_off_c, 0, 68, 109
1, 153816, Note_on_c, 0, 72, 116
1, 153969, Note_off_c, 0, 72, 116
1, 154229, Note_on_c, 0, 65, 118
1, 154392, Note_on_c, 0, 66, 107
1, 154392, Note_off_c, 0, 65, 118
1, 154454, Note_off_c, 0, 66, 107
1, 154464, Note_on_c, 0, 65, 117
1, 154548, Note_off_c, 0, 65, 117
1, 154575, Note_on_c, 0, 64, 110
1, 154697, Note_off_c, 0, 64, 110
1, 154718, Note_on_c, 0, 62, 112
1, 154851, Note_off_c, 0, 62, 112
1, 154853, Note_on_c, 0, 63, 114
1, 154978, Note_off_c, 0, 63, 114
1, 155144, Note_on_c, 0, 58, 107
1, 155261, Note_off_c, 0, 58, 107
1, 155296, Note_on_c, 0, 63, 116
1, 155432, Note_off_c, 0, 63, 116
1, 155483, Note_on_c, 0, 67, 121
1, 155640, Note_off_c, 0, 67, 121
1, 155694, Note_on_c, 0, 64, 116
1, 155881, Note_off_c, 0, 64, 116
1, 155957, Note_on_c, 0, 62, 93
1, 156063, Note_off_c, 0, 62, 93
1, 156092, Note_on_c, 0, 64, 120
1, 156279, Note_off_c, 0, 64, 120
1, 156279, Note_on_c, 0, 67, 121
1, 156504, Note_off_c, 0, 67, 121
1, 156504, Note_on_c, 0, 65, 117
1, 156700, Note_off_c, 0, 65, 117
1, 156773, Note_on_c, 0, 62, 99
1, 156868, Note_off_c, 0, 62, 99
1, 156878, Note_on_c, 0, 65, 117
1, 157074, Note_off_c, 0, 65, 117
1, 157106, Note_on_c, 0, 67, 118
1, 157329, Note_off_c, 0, 67, 118
1, 157329, Note_on_c, 0, 68, 109
1, 157394, Note_off_c, 0, 68, 109
1, 158387, Note_on_c, 0, 71, 120
1, 158536, Note_off_c, 0, 71, 120
1, 158541, Note_on_c, 0, 72, 119
1, 158734, Note_off_c, 0, 72, 119
1, 158734, Note_on_c, 0, 71, 97
1, 158935, Note_off_c, 0, 71, 97
1, 159019, Note_on_c, 0, 73, 112
1, 159095, Note_off_c, 0, 73, 112
1, 159095, Note_on_c, 0, 70, 106
1, 159217, Note_off_c, 0, 70, 106
1, 159241, Note_on_c, 0, 69, 116
1, 159366, Note_off_c, 0, 69, 116
1, 159368, Note_on_c, 0, 68, 112
1, 159547, Note_off_c, 0, 68, 112
1, 159631, Note_on_c, 0, 72, 118
1, 159791, Note_off_c, 0, 72, 118
1, 159829, Note_on_c, 0, 67, 111
1, 159948, Note_off_c, 0, 67, 111
1, 160051, Note_on_c, 0, 65, 105
1, 160162, Note_off_c, 0, 65, 105
1, 160232, Note_on_c, 0, 70, 116
1, 160408, Note_off_c, 0, 70, 116
1, 160710, Note_on_c, 0, 63, 106
1, 160832, Note_off_c, 0, 63, 106
1, 160859, Note_on_c, 0, 68, 120
1, 161098, Note_off_c, 0, 68, 120
1, 161174, Note_on_c, 0, 65, 106
1, 161296, Note_off_c, 0, 65, 106
1, 161331, Note_on_c, 0, 66, 115
1, 161450, Note_off_c, 0, 66, 115
1, 161537, Note_on_c, 0, 67, 115
1, 161743, Note_off_c, 0, 67, 115
1, 162042, Note_on_c, 0, 74, 113
1, 162156, Note_off_c, 0, 74, 113
1, 162158, Note_on_c, 0, 75, 120
1, 163059, Note_off_c, 0, 75, 120
1, 163099, Note_on_c, 0, 75, 121
1, 163221, Note_off_c, 0, 75, 121
1, 163305, Note_on_c, 0, 75, 118
1, 163479, Note_off_c, 0, 75, 118
1, 163944, Note_on_c, 0, 75, 119
1, 164709, Note_off_c, 0, 75, 119
1, 164850, Note_on_c, 0, 78, 116
1, 165075, Note_off_c, 0, 78, 116
1, 165083, Note_on_c, 0, 75, 120
1, 165311, Note_off_c, 0, 75, 120
1, 165749, Note_on_c, 0, 75, 118
1, 166440, Note_off_c, 0, 75, 118
1, 166450, Note_on_c, 0, 73, 119
1, 166618, Note_off_c, 0, 73, 119
1, 166699, Note_on_c, 0, 75, 120
1, 166924, Note_off_c, 0, 75, 120
1, 167427, Note_on_c, 0, 75, 114
1, 167832, Note_off_c, 0, 75, 114
1, 168852, Note_on_c, 0, 75, 114
1, 169088, Note_off_c, 0, 75, 114
1, 169221, Note_on_c, 0, 78, 117
1, 169403, Note_off_c, 0, 78, 117
1, 169443, Note_on_c, 0, 80, 107
1, 169701, Note_off_c, 0, 80, 107
1, 169747, Note_on_c, 0, 81, 113
1, 170032, Note_off_c, 0, 81, 113
1, 170130, Note_on_c, 0, 80, 116
1, 170513, Note_off_c, 0, 80, 116
1, 170605, Note_on_c, 0, 78, 117
1, 170926, Note_off_c, 0, 78, 117
1, 171010, Note_on_c, 0, 75, 117
1, 171363, Note_off_c, 0, 75, 117
1, 171420, Note_on_c, 0, 73, 118
1, 171542, Note_off_c, 0, 73, 118
1, 171544, Note_on_c, 0, 72, 119
1, 171693, Note_off_c, 0, 72, 119
1, 171763, Note_on_c, 0, 73, 100
1, 171828, Note_off_c, 0, 73, 100
1, 171868, Note_on_c, 0, 77, 111
1, 171982, Note_off_c, 0, 77, 111
1, 172011, Note_on_c, 0, 76, 109
1, 172122, Note_off_c, 0, 76, 109
1, 172160, Note_on_c, 0, 69, 111
1, 172228, Note_off_c, 0, 69, 111
1, 172241, Note_on_c, 0, 70, 120
1, 172540, Note_off_c, 0, 70, 120
1, 172716, Note_on_c, 0, 70, 102
1, 172876, Note_off_c, 0, 70, 102
1, 172925, Note_on_c, 0, 69, 115
1, 173088, Note_off_c, 0, 69, 115
1, 173139, Note_on_c, 0, 68, 118
1, 173370, Note_off_c, 0, 68, 118
1, 173729, Note_on_c, 0, 66, 109
1, 173867, Note_off_c, 0, 66, 109
1, 174033, Note_on_c, 0, 63, 115
1, 174199, Note_off_c, 0, 63, 115
1, 174329, Note_on_c, 0, 66, 115
1, 174481, Note_off_c, 0, 66, 115
1, 174794, Note_on_c, 0, 68, 114
1, 175011, Note_off_c, 0, 68, 114
1, 175198, Note_on_c, 0, 68, 114
1, 175821, Note_off_c, 0, 68, 114
1, 175840, Note_on_c, 0, 74, 102
1, 175938, Note_off_c, 0, 74, 102
1, 175959, Note_on_c, 0, 67, 99
1, 176027, Note_off_c, 0, 67, 99
1, 176032, Note_on_c, 0, 66, 111
1, 176513, Note_off_c, 0, 66, 111
1, 176616, Note_on_c, 0, 64, 98
1, 176684, Note_off_c, 0, 64, 98
1, 176746, Note_on_c, 0, 66, 109
1, 177102, Note_off_c, 0, 66, 109
1, 177112, Note_on_c, 0, 68, 114
1, 177275, Note_off_c, 0, 68, 114
1, 177634, Note_on_c, 0, 68, 111
1, 178423, Note_off_c, 0, 68, 111
1, 178665, Note_on_c, 0, 67, 100
1, 178765, Note_off_c, 0, 67, 100
1, 178781, Note_on_c, 0, 68, 94
1, 178824, Note_off_c, 0, 68, 94
1, 178853, Note_on_c, 0, 69, 105
1, 178910, Note_off_c, 0, 69, 105
1, 178910, Note_on_c, 0, 70, 122
1, 179729, Note_off_c, 0, 70, 122
1, 179949, Note_on_c, 0, 75, 118
1, 180131, Note_off_c, 0, 75, 118
1, 180373, Note_on_c, 0, 68, 105
1, 180484, Note_off_c, 0, 68, 105
1, 180489, Note_on_c, 0, 69, 102
1, 180714, Note_off_c, 0, 69, 102
1, 180733, Note_on_c, 0, 68, 105
1, 180958, Note_off_c, 0, 68, 105
1, 181355, Note_on_c, 0, 63, 106
1, 181466, Note_off_c, 0, 63, 106
1, 181653, Note_on_c, 0, 66, 119
1, 181797, Note_off_c, 0, 66, 119
1, 181837, Note_on_c, 0, 67, 109
1, 182239, Note_off_c, 0, 67, 109
1, 182307, Note_on_c, 0, 63, 118
1, 182557, Note_off_c, 0, 63, 118
1, 182594, Note_on_c, 0, 58, 110
1, 183516, Note_off_c, 0, 58, 110
1, 185858, Note_on_c, 0, 68, 120
1, 186075, Note_off_c, 0, 68, 120
1, 186192, Note_on_c, 0, 67, 114
1, 186412, Note_off_c, 0, 67, 114
1, 186657, Note_on_c, 0, 63, 103
1, 186771, Note_off_c, 0, 63, 103
1, 186776, Note_on_c, 0, 65, 116
1, 187070, Note_off_c, 0, 65, 116
1, 187176, Note_on_c, 0, 64, 116
1, 187415, Note_off_c, 0, 64, 116
1, 187415, Note_on_c, 0, 67, 113
1, 187605, Note_on_c, 0, 70, 122
1, 187605, Note_off_c, 0, 67, 113
1, 187890, Note_off_c, 0, 70, 122
1, 187996, Note_on_c, 0, 73, 117
1, 188412, Note_off_c, 0, 73, 117
1, 188469, Note_on_c, 0, 71, 115
1, 188841, Note_off_c, 0, 71, 115
1, 189058, Note_on_c, 0, 72, 102
1, 189469, Note_off_c, 0, 72, 102
1, 189479, Note_on_c, 0, 78, 119
1, 189631, Note_off_c, 0, 78, 119
1, 189636, Note_on_c, 0, 74, 106
1, 189723, Note_on_c, 0, 70, 106
1, 189723, Note_off_c, 0, 74, 106
1, 189766, Note_off_c, 0, 70, 106
1, 189766, Note_on_c, 0, 65, 115
1, 190152, Note_off_c, 0, 65, 115
1, 190296, Note_on_c, 0, 67, 118
1, 190573, Note_off_c, 0, 67, 118
1, 190673, Note_on_c, 0, 68, 117
1, 191026, Note_off_c, 0, 68, 117
1, 191096, Note_on_c, 0, 70, 116
1, 191365, Note_off_c, 0, 70, 116
1, 191514, Note_on_c, 0, 72, 114
1, 191829, Note_off_c, 0, 72, 114
1, 191965, Note_on_c, 0, 75, 117
1, 192250, Note_off_c, 0, 75, 117
1, 192552, Note_on_c, 0, 73, 111
1, 192824, Note_off_c, 0, 73, 111
1, 192832, Note_on_c, 0, 74, 118
1, 193038, Note_off_c, 0, 74, 118
1, 193247, Note_on_c, 0, 70, 114
1, 193502, Note_off_c, 0, 70, 114
1, 193719, Note_on_c, 0, 74, 119
1, 193980, Note_off_c, 0, 74, 119
1, 194184, Note_on_c, 0, 70, 112
1, 194431, Note_off_c, 0, 70, 112
1, 194441, Note_on_c, 0, 72, 118
1, 194696, Note_off_c, 0, 72, 118
1, 194946, Note_on_c, 0, 68, 116
1, 195201, Note_off_c, 0, 68, 116
1, 195413, Note_on_c, 0, 72, 124
1, 195745, Note_off_c, 0, 72, 124
1, 195984, Note_on_c, 0, 68, 111
1, 196220, Note_off_c, 0, 68, 111
1, 196239, Note_on_c, 0, 70, 120
1, 196489, Note_off_c, 0, 70, 120
1, 197109, Note_on_c, 0, 68, 119
1, 197492, Note_off_c, 0, 68, 119
1, 197587, Note_on_c, 0, 68, 107
1, 197761, Note_off_c, 0, 68, 107
1, 197823, Note_on_c, 0, 67, 112
1, 197980, Note_off_c, 0, 67, 112
1, 198020, Note_on_c, 0, 65, 119
1, 198207, Note_off_c, 0, 65, 119
1, 198340, Note_on_c, 0, 64, 115
1, 198628, Note_off_c, 0, 64, 115
1, 198870, Note_on_c, 0, 67, 122
1, 199068, Note_off_c, 0, 67, 122
1, 199206, Note_on_c, 0, 65, 110
1, 199342, Note_off_c, 0, 65, 110
1, 199410, Note_on_c, 0, 58, 103
1, 199565, Note_off_c, 0, 58, 103
1, 199589, Note_on_c, 0, 57, 96
1, 199657, Note_off_c, 0, 57, 96
1, 199662, Note_on_c, 0, 63, 111
1, 199887, Note_off_c, 0, 63, 111
1, 200023, Note_on_c, 0, 62, 110
1, 200156, Note_off_c, 0, 62, 110
1, 200267, Note_on_c, 0, 65, 108
1, 200389, Note_off_c, 0, 65, 108
1, 200402, Note_on_c, 0, 68, 118
1, 200706, Note_off_c, 0, 68, 118
1, 200918, Note_on_c, 0, 71, 120
1, 201394, Note_off_c, 0, 71, 120
1, 201415, Note_on_c, 0, 70, 122
1, 201638, Note_off_c, 0, 70, 122
1, 201714, Note_on_c, 0, 64, 107
1, 202220, Note_off_c, 0, 64, 107
1, 202326, Note_on_c, 0, 61, 107
1, 202448, Note_off_c, 0, 61, 107
1, 202453, Note_on_c, 0, 60, 116
1, 202529, Note_off_c, 0, 60, 116
1, 202529, Note_on_c, 0, 63, 108
1, 203073, Note_off_c, 0, 63, 108
1, 203157, Note_on_c, 0, 63, 104
1, 204131, Note_off_c, 0, 63, 104
1, 204248, Note_on_c, 0, 63, 119
1, 204768, Note_off_c, 0, 63, 119
1, 204768, End_track
0, 0, End_of_file
