0, 0, Header, 1, 1, 192
1, 0, Start_track
1, 0, Title_t, "Melody"
1, 0, Tempo, 272727
1, 0, Key_signature, -2, "major"
1, 0, Time_signature, 4, 2, 24, 8
1, 2059, Note_on_c, 0, 55, 100
1, 2240, Note_off_c, 0, 55, 100
1, 2268, Note_on_c, 0, 53, 92
1, 2411, Note_off_c, 0, 53, 92
1, 2451, Note_on_c, 0, 55, 108
1, 2577, Note_off_c, 0, 55, 108
1, 2605, Note_on_c, 0, 53, 95
1, 2698, Note_off_c, 0, 53, 95
1, 2716, Note_on_c, 0, 55, 98
1, 3022, Note_off_c, 0, 55, 98
1, 3062, Note_on_c, 0, 53, 85
1, 3178, Note_off_c, 0, 53, 85
1, 3188, Note_on_c, 0, 55, 104
1, 3398, Note_off_c, 0, 55, 104
1, 3438, Note_on_c, 0, 53, 90
1, 3546, Note_off_c, 0, 53, 90
1, 3595, Note_on_c, 0, 56, 105
1, 3821, Note_off_c, 0, 56, 105
1, 3849, Note_on_c, 0, 53, 95
1, 3938, Note_off_c, 0, 53, 95
1, 3956, Note_on_c, 0, 56, 110
1, 4074, Note_off_c, 0, 56, 110
1, 4090, Note_on_c, 0, 53, 93
1, 4190, Note_off_c, 0, 53, 93
1, 4234, Note_on_c, 0, 56, 101
1, 4471, Note_off_c, 0, 56, 101
1, 4526, Note_on_c, 0, 53, 88
1, 4666, Note_off_c, 0, 53, 88
1, 4731, Note_on_c, 0, 56, 103
1, 4916, Note_off_c, 0, 56, 103
1, 4942, Note_on_c, 0, 53, 80
1, 5050, Note_off_c, 0, 53, 80
1, 5090, Note_on_c, 0, 55, 97
1, 5277, Note_off_c, 0, 55, 97
1, 5800, Note_on_c, 0, 55, 104
1, 5869, Note_off_c, 0, 55, 104
1, 5881, Note_on_c, 0, 54, 100
1, 5966, Note_off_c, 0, 54, 100
1, 5983, Note_on_c, 0, 58, 100
1, 6034, Note_off_c, 0, 58, 100
1, 6058, Note_on_c, 0, 61, 104
1, 6167, Note_off_c, 0, 61, 104
1, 6185, Note_on_c, 0, 62, 102
1, 6248, Note_off_c, 0, 62, 102
1, 6259, Note_on_c, 0, 63, 105
1, 6346, Note_off_c, 0, 63, 105
1, 6354, Note_on_c, 0, 64, 104
1, 6450, Note_off_c, 0, 64, 104
1, 6467, Note_on_c, 0, 65, 99
1, 6528, Note_off_c, 0, 65, 99
1, 6535, Note_on_c, 0, 67, 95
1, 6568, Note_off_c, 0, 67, 95
1, 6578, Note_on_c, 0, 65, 104
1, 6618, Note_off_c, 0, 65, 104
1, 6632, Note_on_c, 0, 61, 98
1, 6745, Note_off_c, 0, 61, 98
1, 6776, Note_on_c, 0, 62, 90
1, 7000, Note_off_c, 0, 62, 90
1, 7024, Note_on_c, 0, 58, 98
1, 7111, Note_off_c, 0, 58, 98
1, 7129, Note_on_c, 0, 55, 92
1, 7222, Note_off_c, 0, 55, 92
1, 7453, Note_on_c, 0, 53, 96
1, 7515, Note_off_c, 0, 53, 96
1, 7540, Note_on_c, 0, 58, 98
1, 7605, Note_off_c, 0, 58, 98
1, 7673, Note_on_c, 0, 58, 91
1, 7848, Note_off_c, 0, 58, 91
1, 7884, Note_on_c, 0, 57, 99
1, 7971, Note_off_c, 0, 57, 99
1, 7991, Note_on_c, 0, 55, 93
1, 8093, Note_off_c, 0, 55, 93
1, 8129, Note_on_c, 0, 60, 102
1, 8258, Note_off_c, 0, 60, 102
1, 8321, Note_on_c, 0, 58, 99
1, 8428, Note_off_c, 0, 58, 99
1, 8447, Note_on_c, 0, 55, 100
1, 8528, Note_off_c, 0, 55, 100
1, 8535, Note_on_c, 0, 54, 101
1, 8614, Note_off_c, 0, 54, 101
1, 8627, Note_on_c, 0, 53, 96
1, 8718, Note_off_c, 0, 53, 96
1, 8748, Note_on_c, 0, 55, 98
1, 8847, Note_off_c, 0, 55, 98
1, 8893, Note_on_c, 0, 60, 101
1, 9151, Note_off_c, 0, 60, 101
1, 9169, Note_on_c, 0, 58, 93
1, 9258, Note_off_c, 0, 58, 93
1, 9270, Note_on_c, 0, 55, 103
1, 9349, Note_off_c, 0, 55, 103
1, 9370, Note_on_c, 0, 54, 100
1, 9498, Note_off_c, 0, 54, 100
1, 9514, Note_on_c, 0, 55, 88
1, 9623, Note_off_c, 0, 55, 88
1, 9646, Note_on_c, 0, 56, 106
1, 9840, Note_off_c, 0, 56, 106
1, 10327, Note_on_c, 0, 58, 111
1, 10456, Note_off_c, 0, 58, 111
1, 10458, Note_on_c, 0, 59, 116
1, 10716, Note_off_c, 0, 59, 116
1, 10744, Note_on_c, 0, 62, 109
1, 10991, Note_off_c, 0, 62, 109
1, 10999, Note_on_c, 0, 59, 103
1, 11095, Note_off_c, 0, 59, 103
1, 11204, Note_on_c, 0, 60, 108
1, 11360, Note_off_c, 0, 60, 108
1, 11375, Note_on_c, 0, 59, 93
1, 11524, Note_off_c, 0, 59, 93
1, 11536, Note_on_c, 0, 55, 95
1, 11777, Note_off_c, 0, 55, 95
1, 11983, Note_on_c, 0, 51, 99
1, 12082, Note_off_c, 0, 51, 99
1, 12143, Note_on_c, 0, 54, 101
1, 12364, Note_off_c, 0, 54, 101
1, 12708, Note_on_c, 0, 53, 99
1, 12811, Note_off_c, 0, 53, 99
1, 12846, Note_on_c, 0, 58, 93
1, 13101, Note_off_c, 0, 58, 93
1, 13128, Note_on_c, 0, 53, 94
1, 13337, Note_off_c, 0, 53, 94
1, 13486, Note_on_c, 0, 53, 106
1, 13577, Note_off_c, 0, 53, 106
1, 13597, Note_on_c, 0, 58, 102
1, 13684, Note_off_c, 0, 58, 102
1, 14146, Note_on_c, 0, 55, 107
1, 14225, Note_on_c, 0, 56, 111
1, 14225, Note_off_c, 0, 55, 107
1, 14341, Note_off_c, 0, 56, 111
1, 14351, Note_on_c, 0, 60, 111
1, 14410, Note_off_c, 0, 60, 111
1, 14416, Note_on_c, 0, 62, 115
1, 14523, Note_off_c, 0, 62, 115
1, 14524, Note_on_c, 0, 67, 112
1, 14628, Note_off_c, 0, 67, 112
1, 14637, Note_on_c, 0, 65, 113
1, 14734, Note_off_c, 0, 65, 113
1, 14747, Note_on_c, 0, 60, 106
1, 14828, Note_off_c, 0, 60, 106
1, 14854, Note_on_c, 0, 56, 106
1, 14931, Note_off_c, 0, 56, 106
1, 14956, Note_on_c, 0, 54, 94
1, 14993, Note_off_c, 0, 54, 94
1, 15015, Note_on_c, 0, 55, 98
1, 15237, Note_off_c, 0, 55, 98
1, 15294, Note_on_c, 0, 56, 104
1, 15354, Note_off_c, 0, 56, 104
1, 15379, Note_on_c, 0, 60, 115
1, 15472, Note_off_c, 0, 60, 115
1, 15493, Note_on_c, 0, 63, 109
1, 15556, Note_off_c, 0, 63, 109
1, 15575, Note_on_c, 0, 65, 111
1, 15707, Note_off_c, 0, 65, 111
1, 16136, Note_on_c, 0, 54, 108
1, 16237, Note_off_c, 0, 54, 108
1, 16254, Note_on_c, 0, 55, 104
1, 16328, Note_off_c, 0, 55, 104
1, 16345, Note_on_c, 0, 58, 105
1, 16415, Note_off_c, 0, 58, 105
1, 16426, Note_on_c, 0, 62, 112
1, 16495, Note_off_c, 0, 62, 112
1, 16511, Note_on_c, 0, 63, 115
1, 16627, Note_off_c, 0, 63, 115
1, 16642, Note_on_c, 0, 65, 100
1, 16777, Note_off_c, 0, 65, 100
1, 16806, Note_on_c, 0, 67, 99
1, 16846, Note_off_c, 0, 67, 99
1, 16856, Note_on_c, 0, 65, 108
1, 16891, Note_off_c, 0, 65, 108
1, 16904, Note_on_c, 0, 62, 106
1, 17019, Note_off_c, 0, 62, 106
1, 17031, Note_on_c, 0, 63, 113
1, 17118, Note_off_c, 0, 63, 113
1, 17202, Note_on_c, 0, 62, 108
1, 17264, Note_off_c, 0, 62, 108
1, 17279, Note_on_c, 0, 58, 101
1, 17412, Note_off_c, 0, 58, 101
1, 17423, Note_on_c, 0, 53, 100
1, 17471, Note_off_c, 0, 53, 100
1, 17566, Note_on_c, 0, 53, 100
1, 17649, Note_off_c, 0, 53, 100
1, 17660, Note_on_c, 0, 55, 102
1, 17780, Note_off_c, 0, 55, 102
1, 17786, Note_on_c, 0, 62, 108
1, 17865, Note_off_c, 0, 62, 108
1, 17972, Note_on_c, 0, 57, 99
1, 18031, Note_off_c, 0, 57, 99
1, 18037, Note_on_c, 0, 50, 95
1, 18141, Note_off_c, 0, 50, 95
1, 18166, Note_on_c, 0, 52, 102
1, 18230, Note_off_c, 0, 52, 102
1, 18251, Note_on_c, 0, 53, 95
1, 18322, Note_off_c, 0, 53, 95
1, 18345, Note_on_c, 0, 57, 104
1, 18459, Note_off_c, 0, 57, 104
1, 18500, Note_on_c, 0, 60, 104
1, 18726, Note_off_c, 0, 60, 104
1, 18733, Note_on_c, 0, 55, 92
1, 19130, Note_off_c, 0, 55, 92
1, 19146, Note_on_c, 0, 50, 101
1, 19180, Note_off_c, 0, 50, 101
1, 19188, Note_on_c, 0, 51, 102
1, 19279, Note_off_c, 0, 51, 102
1, 19287, Note_on_c, 0, 53, 96
1, 19345, Note_off_c, 0, 53, 96
1, 19352, Note_on_c, 0, 54, 102
1, 19445, Note_off_c, 0, 54, 102
1, 19476, Note_on_c, 0, 51, 94
1, 19543, Note_off_c, 0, 51, 94
1, 19559, Note_on_c, 0, 53, 93
1, 19794, Note_off_c, 0, 53, 93
1, 20119, Note_on_c, 0, 60, 127
1, 20292, Note_off_c, 0, 60, 127
1, 20296, Note_on_c, 0, 61, 122
1, 20428, Note_off_c, 0, 61, 122
1, 20448, Note_on_c, 0, 60, 108
1, 20879, Note_off_c, 0, 60, 108
1, 20910, Note_on_c, 0, 58, 85
1, 21039, Note_off_c, 0, 58, 85
1, 21054, Note_on_c, 0, 60, 95
1, 21131, Note_off_c, 0, 60, 95
1, 21146, Note_on_c, 0, 62, 112
1, 21252, Note_off_c, 0, 62, 112
1, 21780, Note_on_c, 0, 64, 118
1, 21959, Note_off_c, 0, 64, 118
1, 21969, Note_on_c, 0, 65, 109
1, 22207, Note_off_c, 0, 65, 109
1, 22217, Note_on_c, 0, 62, 113
1, 22334, Note_off_c, 0, 62, 113
1, 22344, Note_on_c, 0, 63, 116
1, 22417, Note_off_c, 0, 63, 116
1, 22427, Note_on_c, 0, 64, 110
1, 22517, Note_off_c, 0, 64, 110
1, 22531, Note_on_c, 0, 65, 113
1, 22592, Note_off_c, 0, 65, 113
1, 22619, Note_on_c, 0, 62, 113
1, 22708, Note_off_c, 0, 62, 113
1, 22719, Note_on_c, 0, 59, 103
1, 22773, Note_off_c, 0, 59, 103
1, 22788, Note_on_c, 0, 56, 107
1, 22901, Note_off_c, 0, 56, 107
1, 22915, Note_on_c, 0, 53, 99
1, 22989, Note_off_c, 0, 53, 99
1, 23001, Note_on_c, 0, 50, 105
1, 23100, Note_off_c, 0, 50, 105
1, 23151, Note_on_c, 0, 48, 101
1, 23281, Note_off_c, 0, 48, 101
1, 23348, Note_on_c, 0, 51, 98
1, 23708, Note_off_c, 0, 51, 98
1, 23759, Note_on_c, 0, 54, 102
1, 23829, Note_off_c, 0, 54, 102
1, 23830, Note_on_c, 0, 55, 97
1, 24012, Note_off_c, 0, 55, 97
1, 24050, Note_on_c, 0, 53, 92
1, 24334, Note_off_c, 0, 53, 92
1, 24786, Note_on_c, 0, 58, 93
1, 25133, Note_off_c, 0, 58, 93
1, 25240, Note_on_c, 0, 58, 113
1, 25343, Note_off_c, 0, 58, 113
1, 25559, Note_on_c, 0, 58, 98
1, 25798, Note_off_c, 0, 58, 98
1, 25825, Note_on_c, 0, 55, 107
1, 25935, Note_off_c, 0, 55, 107
1, 25956, Note_on_c, 0, 58, 107
1, 26012, Note_off_c, 0, 58, 107
1, 26029, Note_on_c, 0, 61, 113
1, 26145, Note_off_c, 0, 61, 113
1, 26162, Note_on_c, 0, 62, 118
1, 26213, Note_off_c, 0, 62, 118
1, 26228, Note_on_c, 0, 63, 115
1, 26302, Note_off_c, 0, 63, 115
1, 26314, Note_on_c, 0, 64, 115
1, 26405, Note_off_c, 0, 64, 115
1, 26421, Note_on_c, 0, 65, 105
1, 26470, Note_off_c, 0, 65, 105
1, 26480, Note_on_c, 0, 67, 109
1, 26521, Note_off_c, 0, 67, 109
1, 26531, Note_on_c, 0, 65, 108
1, 26579, Note_off_c, 0, 65, 108
1, 26585, Note_on_c, 0, 61, 110
1, 26640, Note_off_c, 0, 61, 110
1, 26643, Note_on_c, 0, 62, 109
1, 26722, Note_off_c, 0, 62, 109
1, 26732, Note_on_c, 0, 63, 112
1, 26802, Note_off_c, 0, 63, 112
1, 26807, Note_on_c, 0, 64, 107
1, 26917, Note_off_c, 0, 64, 107
1, 26941, Note_on_c, 0, 65, 104
1, 27045, Note_off_c, 0, 65, 104
1, 27052, Note_on_c, 0, 68, 92
1, 27088, Note_off_c, 0, 68, 92
1, 27094, Note_on_c, 0, 66, 98
1, 27130, Note_off_c, 0, 66, 98
1, 27137, Note_on_c, 0, 65, 107
1, 27168, Note_off_c, 0, 65, 107
1, 27179, Note_on_c, 0, 61, 104
1, 27307, Note_off_c, 0, 61, 104
1, 27319, Note_on_c, 0, 62, 107
1, 27356, Note_off_c, 0, 62, 107
1, 27366, Note_on_c, 0, 63, 109
1, 27466, Note_off_c, 0, 63, 109
1, 27481, Note_on_c, 0, 64, 109
1, 27562, Note_off_c, 0, 64, 109
1, 27583, Note_on_c, 0, 65, 106
1, 27649, Note_off_c, 0, 65, 106
1, 27663, Note_on_c, 0, 66, 91
1, 27696, Note_off_c, 0, 66, 91
1, 27704, Note_on_c, 0, 65, 108
1, 27756, Note_off_c, 0, 65, 108
1, 27773, Note_on_c, 0, 62, 109
1, 27879, Note_off_c, 0, 62, 109
1, 27887, Note_on_c, 0, 63, 109
1, 27950, Note_off_c, 0, 63, 109
1, 27962, Note_on_c, 0, 64, 106
1, 28069, Note_off_c, 0, 64, 106
1, 28075, Note_on_c, 0, 65, 109
1, 28176, Note_off_c, 0, 65, 109
1, 28441, Note_on_c, 0, 62, 109
1, 28484, Note_off_c, 0, 62, 109
1, 28500, Note_on_c, 0, 63, 114
1, 28579, Note_off_c, 0, 63, 114
1, 28588, Note_on_c, 0, 64, 112
1, 28644, Note_off_c, 0, 64, 112
1, 28653, Note_on_c, 0, 65, 120
1, 28723, Note_off_c, 0, 65, 120
1, 28730, Note_on_c, 0, 66, 118
1, 28802, Note_off_c, 0, 66, 118
1, 28805, Note_on_c, 0, 67, 123
1, 28836, Note_off_c, 0, 67, 123
1, 28848, Note_on_c, 0, 68, 118
1, 29017, Note_off_c, 0, 68, 118
1, 29021, Note_on_c, 0, 67, 117
1, 29041, Note_off_c, 0, 67, 117
1, 29045, Note_on_c, 0, 66, 113
1, 29068, Note_off_c, 0, 66, 113
1, 29084, Note_on_c, 0, 67, 117
1, 29124, Note_off_c, 0, 67, 117
1, 29135, Note_on_c, 0, 66, 109
1, 29161, Note_off_c, 0, 66, 109
1, 29165, Note_on_c, 0, 65, 113
1, 29239, Note_off_c, 0, 65, 113
1, 29251, Note_on_c, 0, 62, 108
1, 29477, Note_off_c, 0, 62, 108
1, 29484, Note_on_c, 0, 63, 104
1, 29810, Note_off_c, 0, 63, 104
1, 30001, Note_on_c, 0, 55, 104
1, 30085, Note_off_c, 0, 55, 104
1, 30105, Note_on_c, 0, 54, 99
1, 30491, Note_off_c, 0, 54, 99
1, 30588, Note_on_c, 0, 53, 93
1, 30888, Note_off_c, 0, 53, 93
1, 30990, Note_on_c, 0, 58, 95
1, 31212, Note_off_c, 0, 58, 95
1, 31667, Note_on_c, 0, 46, 106
1, 31836, Note_off_c, 0, 46, 106
1, 31869, Note_on_c, 0, 47, 109
1, 32455, Note_off_c, 0, 47, 109
1, 32480, Note_on_c, 0, 46, 103
1, 32609, Note_off_c, 0, 46, 103
1, 32649, Note_on_c, 0, 58, 101
1, 32939, Note_off_c, 0, 58, 101
1, 32950, Note_on_c, 0, 55, 105
1, 33082, Note_off_c, 0, 55, 105
1, 33454, Note_on_c, 0, 53, 102
1, 33514, Note_off_c, 0, 53, 102
1, 33524, Note_on_c, 0, 55, 104
1, 33613, Note_off_c, 0, 55, 104
1, 33640, Note_on_c, 0, 58, 108
1, 33715, Note_off_c, 0, 58, 108
1, 33721, Note_on_c, 0, 61, 113
1, 33804, Note_off_c, 0, 61, 113
1, 33805, Note_on_c, 0, 62, 118
1, 33871, Note_off_c, 0, 62, 118
1, 33876, Note_on_c, 0, 63, 119
1, 33960, Note_off_c, 0, 63, 119
1, 33974, Note_on_c, 0, 64, 115
1, 34060, Note_off_c, 0, 64, 115
1, 34073, Note_on_c, 0, 66, 101
1, 34127, Note_off_c, 0, 66, 101
1, 34141, Note_on_c, 0, 67, 106
1, 34181, Note_off_c, 0, 67, 106
1, 34188, Note_on_c, 0, 65, 115
1, 34240, Note_off_c, 0, 65, 115
1, 34257, Note_on_c, 0, 62, 113
1, 34368, Note_off_c, 0, 62, 113
1, 34395, Note_on_c, 0, 59, 95
1, 34740, Note_off_c, 0, 59, 95
1, 34760, Note_on_c, 0, 56, 110
1, 34845, Note_off_c, 0, 56, 110
1, 34883, Note_on_c, 0, 52, 106
1, 34927, Note_off_c, 0, 52, 106
1, 34977, Note_on_c, 0, 47, 98
1, 35551, Note_off_c, 0, 47, 98
1, 35893, Note_on_c, 0, 48, 107
1, 35954, Note_off_c, 0, 48, 107
1, 35976, Note_on_c, 0, 51, 105
1, 36085, Note_off_c, 0, 51, 105
1, 36112, Note_on_c, 0, 58, 111
1, 36190, Note_off_c, 0, 58, 111
1, 36203, Note_on_c, 0, 60, 118
1, 36249, Note_off_c, 0, 60, 118
1, 36266, Note_on_c, 0, 62, 117
1, 36317, Note_off_c, 0, 62, 117
1, 36327, Note_on_c, 0, 64, 124
1, 36388, Note_off_c, 0, 64, 124
1, 36402, Note_on_c, 0, 67, 119
1, 36445, Note_off_c, 0, 67, 119
1, 36462, Note_on_c, 0, 70, 115
1, 36531, Note_off_c, 0, 70, 115
1, 36540, Note_on_c, 0, 71, 120
1, 36573, Note_off_c, 0, 71, 120
1, 36593, Note_on_c, 0, 72, 121
1, 37040, Note_off_c, 0, 72, 121
1, 37044, Note_on_c, 0, 67, 117
1, 37140, Note_off_c, 0, 67, 117
1, 37250, Note_on_c, 0, 70, 113
1, 37524, Note_off_c, 0, 70, 113
1, 37529, Note_on_c, 0, 67, 107
1, 37833, Note_off_c, 0, 67, 107
1, 38555, Note_on_c, 0, 62, 115
1, 38621, Note_off_c, 0, 62, 115
1, 38629, Note_on_c, 0, 63, 117
1, 38705, Note_off_c, 0, 63, 117
1, 38718, Note_on_c, 0, 64, 117
1, 38777, Note_off_c, 0, 64, 117
1, 38788, Note_on_c, 0, 65, 121
1, 38868, Note_off_c, 0, 65, 121
1, 38883, Note_on_c, 0, 66, 110
1, 38905, Note_off_c, 0, 66, 110
1, 38908, Note_on_c, 0, 67, 117
1, 38939, Note_off_c, 0, 67, 117
1, 38942, Note_on_c, 0, 68, 114
1, 38975, Note_off_c, 0, 68, 114
1, 38977, Note_on_c, 0, 69, 110
1, 38988, Note_off_c, 0, 69, 110
1, 38990, Note_on_c, 0, 70, 116
1, 39024, Note_off_c, 0, 70, 116
1, 39033, Note_on_c, 0, 72, 94
1, 39246, Note_off_c, 0, 72, 94
1, 39303, Note_on_c, 0, 60, 79
1, 39344, Note_off_c, 0, 60, 79
1, 39354, Note_on_c, 0, 67, 113
1, 39416, Note_off_c, 0, 67, 113
1, 39423, Note_on_c, 0, 68, 122
1, 39538, Note_off_c, 0, 68, 122
1, 39552, Note_on_c, 0, 70, 111
1, 39792, Note_off_c, 0, 70, 111
1, 39803, Note_on_c, 0, 67, 110
1, 39937, Note_off_c, 0, 67, 110
1, 39944, Note_on_c, 0, 68, 110
1, 40194, Note_off_c, 0, 68, 110
1, 40220, Note_on_c, 0, 62, 106
1, 40259, Note_off_c, 0, 62, 106
1, 40273, Note_on_c, 0, 63, 112
1, 40333, Note_off_c, 0, 63, 112
1, 40340, Note_on_c, 0, 64, 107
1, 40380, Note_off_c, 0, 64, 107
1, 40390, Note_on_c, 0, 65, 113
1, 40458, Note_off_c, 0, 65, 113
1, 40468, Note_on_c, 0, 66, 115
1, 40521, Note_off_c, 0, 66, 115
1, 40528, Note_on_c, 0, 67, 107
1, 40972, Note_off_c, 0, 67, 107
1, 40986, Note_on_c, 0, 62, 109
1, 41019, Note_off_c, 0, 62, 109
1, 41025, Note_on_c, 0, 63, 113
1, 41074, Note_off_c, 0, 63, 113
1, 41088, Note_on_c, 0, 64, 98
1, 41149, Note_off_c, 0, 64, 98
1, 41164, Note_on_c, 0, 65, 96
1, 41379, Note_off_c, 0, 65, 96
1, 41397, Note_on_c, 0, 60, 104
1, 41443, Note_off_c, 0, 60, 104
1, 41456, Note_on_c, 0, 61, 103
1, 41504, Note_off_c, 0, 61, 103
1, 41525, Note_on_c, 0, 63, 104
1, 41765, Note_off_c, 0, 63, 104
1, 41779, Note_on_c, 0, 62, 111
1, 41843, Note_off_c, 0, 62, 111
1, 42142, Note_on_c, 0, 49, 112
1, 42181, Note_off_c, 0, 49, 112
1, 42187, Note_on_c, 0, 51, 116
1, 42245, Note_off_c, 0, 51, 116
1, 42252, Note_on_c, 0, 52, 117
1, 42284, Note_off_c, 0, 52, 117
1, 42302, Note_on_c, 0, 53, 115
1, 42393, Note_off_c, 0, 53, 115
1, 42399, Note_on_c, 0, 54, 111
1, 42447, Note_off_c, 0, 54, 111
1, 42451, Note_on_c, 0, 55, 115
1, 42479, Note_off_c, 0, 55, 115
1, 42483, Note_on_c, 0, 56, 118
1, 42537, Note_off_c, 0, 56, 118
1, 42542, Note_on_c, 0, 57, 115
1, 42646, Note_off_c, 0, 57, 115
1, 42651, Note_on_c, 0, 62, 111
1, 42896, Note_off_c, 0, 62, 111
1, 42913, Note_on_c, 0, 57, 117
1, 42981, Note_off_c, 0, 57, 117
1, 43006, Note_on_c, 0, 61, 104
1, 43285, Note_off_c, 0, 61, 104
1, 43290, Note_on_c, 0, 55, 109
1, 43331, Note_off_c, 0, 55, 109
1, 43338, Note_on_c, 0, 60, 103
1, 43651, Note_off_c, 0, 60, 103
1, 43696, Note_on_c, 0, 54, 106
1, 43786, Note_off_c, 0, 54, 106
1, 43804, Note_on_c, 0, 60, 97
1, 44079, Note_off_c, 0, 60, 97
1, 44089, Note_on_c, 0, 54, 109
1, 44138, Note_off_c, 0, 54, 109
1, 44154, Note_on_c, 0, 60, 103
1, 44406, Note_off_c, 0, 60, 103
1, 44430, Note_on_c, 0, 53, 102
1, 44679, Note_off_c, 0, 53, 102
1, 45128, Note_on_c, 0, 53, 109
1, 45183, Note_off_c, 0, 53, 109
1, 45195, Note_on_c, 0, 55, 113
1, 45281, Note_off_c, 0, 55, 113
1, 45289, Note_on_c, 0, 60, 114
1, 45374, Note_off_c, 0, 60, 114
1, 45413, Note_on_c, 0, 55, 105
1, 45478, Note_off_c, 0, 55, 105
1, 45488, Note_on_c, 0, 53, 104
1, 45593, Note_off_c, 0, 53, 104
1, 45596, Note_on_c, 0, 55, 105
1, 45687, Note_off_c, 0, 55, 105
1, 45705, Note_on_c, 0, 60, 114
1, 45808, Note_off_c, 0, 60, 114
1, 45819, Note_on_c, 0, 55, 102
1, 45893, Note_off_c, 0, 55, 102
1, 45907, Note_on_c, 0, 53, 99
1, 45963, Note_off_c, 0, 53, 99
1, 45967, Note_on_c, 0, 55, 112
1, 46045, Note_off_c, 0, 55, 112
1, 46062, Note_on_c, 0, 53, 109
1, 46137, Note_off_c, 0, 53, 109
1, 46156, Note_on_c, 0, 55, 107
1, 46270, Note_off_c, 0, 55, 107
1, 46286, Note_on_c, 0, 53, 98
1, 46332, Note_off_c, 0, 53, 98
1, 46340, Note_on_c, 0, 56, 113
1, 46428, Note_off_c, 0, 56, 113
1, 46439, Note_on_c, 0, 53, 106
1, 46505, Note_off_c, 0, 53, 106
1, 46521, Note_on_c, 0, 56, 110
1, 46612, Note_off_c, 0, 56, 110
1, 46636, Note_on_c, 0, 53, 102
1, 46714, Note_off_c, 0, 53, 102
1, 46748, Note_on_c, 0, 56, 115
1, 46843, Note_off_c, 0, 56, 115
1, 46858, Note_on_c, 0, 62, 115
1, 46918, Note_off_c, 0, 62, 115
1, 46945, Note_on_c, 0, 56, 106
1, 47032, Note_off_c, 0, 56, 106
1, 47054, Note_on_c, 0, 53, 101
1, 47120, Note_off_c, 0, 53, 101
1, 47127, Note_on_c, 0, 56, 114
1, 47214, Note_off_c, 0, 56, 114
1, 47247, Note_on_c, 0, 53, 99
1, 47296, Note_off_c, 0, 53, 99
1, 47324, Note_on_c, 0, 56, 121
1, 47410, Note_off_c, 0, 56, 121
1, 47431, Note_on_c, 0, 62, 112
1, 47497, Note_off_c, 0, 62, 112
1, 47513, Note_on_c, 0, 56, 109
1, 47600, Note_off_c, 0, 56, 109
1, 47620, Note_on_c, 0, 53, 110
1, 47685, Note_off_c, 0, 53, 110
1, 47694, Note_on_c, 0, 56, 117
1, 47798, Note_off_c, 0, 56, 117
1, 47825, Note_on_c, 0, 53, 96
1, 47903, Note_off_c, 0, 53, 96
1, 47910, Note_on_c, 0, 55, 101
1, 48155, Note_off_c, 0, 55, 101
1, 48405, Note_on_c, 0, 55, 116
1, 48480, Note_off_c, 0, 55, 116
1, 48499, Note_on_c, 0, 48, 112
1, 48589, Note_off_c, 0, 48, 112
1, 48596, Note_on_c, 0, 50, 107
1, 48642, Note_off_c, 0, 50, 107
1, 48648, Note_on_c, 0, 51, 111
1, 48738, Note_off_c, 0, 51, 111
1, 48752, Note_on_c, 0, 52, 118
1, 48798, Note_off_c, 0, 52, 118
1, 48810, Note_on_c, 0, 53, 119
1, 48860, Note_off_c, 0, 53, 119
1, 48866, Note_on_c, 0, 54, 105
1, 49242, Note_off_c, 0, 54, 105
1, 49244, Note_on_c, 0, 53, 107
1, 49356, Note_off_c, 0, 53, 107
1, 49364, Note_on_c, 0, 58, 110
1, 49568, Note_off_c, 0, 58, 110
1, 49646, Note_on_c, 0, 55, 110
1, 49747, Note_off_c, 0, 55, 110
1, 49759, Note_on_c, 0, 57, 107
1, 49836, Note_off_c, 0, 57, 107
1, 49847, Note_on_c, 0, 61, 117
1, 49935, Note_off_c, 0, 61, 117
1, 49949, Note_on_c, 0, 62, 114
1, 49999, Note_off_c, 0, 62, 114
1, 50008, Note_on_c, 0, 63, 117
1, 50089, Note_off_c, 0, 63, 117
1, 50106, Note_on_c, 0, 64, 107
1, 50179, Note_off_c, 0, 64, 107
1, 50203, Note_on_c, 0, 65, 107
1, 50277, Note_off_c, 0, 65, 107
1, 50282, Note_on_c, 0, 67, 104
1, 50322, Note_off_c, 0, 67, 104
1, 50327, Note_on_c, 0, 65, 102
1, 50393, Note_off_c, 0, 65, 102
1, 50421, Note_on_c, 0, 63, 109
1, 50489, Note_off_c, 0, 63, 109
1, 50489, Note_on_c, 0, 65, 100
1, 50526, Note_off_c, 0, 65, 100
1, 50540, Note_on_c, 0, 63, 115
1, 50617, Note_off_c, 0, 63, 115
1, 50637, Note_on_c, 0, 61, 107
1, 50703, Note_off_c, 0, 61, 107
1, 50714, Note_on_c, 0, 62, 97
1, 50933, Note_off_c, 0, 62, 97
1, 50933, End_track
0, 0, End_of_file
