0, 0, Header, 1, 1, 192
1, 0, Start_track
1, 0, Title_t, "Melody"
1, 0, Tempo, 243902
1, 0, Key_signature, 0, "major"
1, 0, Time_signature, 4, 2, 24, 8
1, 2940, Note_on_c, 0, 55, 109
1, 3084, Note_off_c, 0, 55, 109
1, 3138, Note_on_c, 0, 60, 94
1, 3501, Note_off_c, 0, 60, 94
1, 3918, Note_on_c, 0, 55, 102
1, 4064, Note_off_c, 0, 55, 102
1, 4099, Note_on_c, 0, 60, 108
1, 4216, Note_off_c, 0, 60, 108
1, 4227, Note_on_c, 0, 62, 112
1, 4280, Note_off_c, 0, 62, 112
1, 4299, Note_on_c, 0, 63, 113
1, 4360, Note_off_c, 0, 63, 113
1, 4380, Note_on_c, 0, 65, 112
1, 4423, Note_off_c, 0, 65, 112
1, 4432, Note_on_c, 0, 63, 117
1, 4483, Note_off_c, 0, 63, 117
1, 4502, Note_on_c, 0, 62, 110
1, 4611, Note_off_c, 0, 62, 110
1, 4731, Note_on_c, 0, 55, 88
1, 5087, Note_off_c, 0, 55, 88
1, 5933, Note_on_c, 0, 63, 119
1, 6049, Note_off_c, 0, 63, 119
1, 6085, Note_on_c, 0, 63, 120
1, 6234, Note_off_c, 0, 63, 120
1, 6277, Note_on_c, 0, 64, 121
1, 6402, Note_off_c, 0, 64, 121
1, 6415, Note_on_c, 0, 65, 122
1, 6542, Note_off_c, 0, 65, 122
1, 6560, Note_on_c, 0, 66, 122
1, 6797, Note_off_c, 0, 66, 122
1, 6847, Note_on_c, 0, 66, 110
1, 6869, Note_off_c, 0, 66, 110
1, 6875, Note_on_c, 0, 67, 120
1, 7197, Note_off_c, 0, 67, 120
1, 7240, Note_on_c, 0, 65, 111
1, 7342, Note_off_c, 0, 65, 111
1, 7392, Note_on_c, 0, 63, 114
1, 7469, Note_off_c, 0, 63, 114
1, 7478, Note_on_c, 0, 64, 107
1, 7743, Note_off_c, 0, 64, 107
1, 7786, Note_on_c, 0, 60, 107
1, 7874, Note_off_c, 0, 60, 107
1, 7897, Note_on_c, 0, 55, 99
1, 7959, Note_off_c, 0, 55, 99
1, 7976, Note_on_c, 0, 57, 96
1, 8017, Note_off_c, 0, 57, 96
1, 8035, Note_on_c, 0, 55, 97
1, 8085, Note_off_c, 0, 55, 97
1, 8100, Note_on_c, 0, 53, 99
1, 8141, Note_off_c, 0, 53, 99
1, 8150, Note_on_c, 0, 52, 98
1, 8289, Note_off_c, 0, 52, 98
1, 8362, Note_on_c, 0, 55, 94
1, 8467, Note_off_c, 0, 55, 94
1, 8472, Note_on_c, 0, 54, 96
1, 8541, Note_off_c, 0, 54, 96
1, 8545, Note_on_c, 0, 55, 100
1, 8652, Note_off_c, 0, 55, 100
1, 8682, Note_on_c, 0, 60, 91
1, 8955, Note_off_c, 0, 60, 91
1, 9413, Note_on_c, 0, 55, 111
1, 9488, Note_off_c, 0, 55, 111
1, 9518, Note_on_c, 0, 57, 111
1, 9592, Note_off_c, 0, 57, 111
1, 9612, Note_on_c, 0, 62, 114
1, 9686, Note_off_c, 0, 62, 114
1, 9703, Note_on_c, 0, 60, 105
1, 9950, Note_off_c, 0, 60, 105
1, 10017, Note_on_c, 0, 56, 100
1, 10064, Note_off_c, 0, 56, 100
1, 10084, Note_on_c, 0, 57, 106
1, 10173, Note_off_c, 0, 57, 106
1, 10193, Note_on_c, 0, 62, 112
1, 10269, Note_off_c, 0, 62, 112
1, 10291, Note_on_c, 0, 60, 103
1, 10384, Note_off_c, 0, 60, 103
1, 10537, Note_on_c, 0, 55, 105
1, 10635, Note_off_c, 0, 55, 105
1, 10635, Note_on_c, 0, 57, 100
1, 10750, Note_off_c, 0, 57, 100
1, 10819, Note_on_c, 0, 63, 103
1, 11016, Note_off_c, 0, 63, 103
1, 11309, Note_on_c, 0, 55, 104
1, 11384, Note_off_c, 0, 55, 104
1, 11398, Note_on_c, 0, 57, 104
1, 11515, Note_off_c, 0, 57, 104
1, 11582, Note_on_c, 0, 60, 109
1, 11695, Note_off_c, 0, 60, 109
1, 11777, Note_on_c, 0, 62, 109
1, 11924, Note_off_c, 0, 62, 109
1, 11955, Note_on_c, 0, 63, 111
1, 12264, Note_off_c, 0, 63, 111
1, 12283, Note_on_c, 0, 62, 111
1, 12357, Note_off_c, 0, 62, 111
1, 12378, Note_on_c, 0, 60, 110
1, 12468, Note_off_c, 0, 60, 110
1, 12490, Note_on_c, 0, 55, 103
1, 12551, Note_off_c, 0, 55, 103
1, 12573, Note_on_c, 0, 51, 105
1, 12659, Note_off_c, 0, 51, 105
1, 12676, Note_on_c, 0, 52, 104
1, 12757, Note_off_c, 0, 52, 104
1, 12766, Note_on_c, 0, 53, 105
1, 12865, Note_off_c, 0, 53, 105
1, 12882, Note_on_c, 0, 55, 105
1, 13009, Note_off_c, 0, 55, 105
1, 13082, Note_on_c, 0, 55, 91
1, 13456, Note_off_c, 0, 55, 91
1, 13465, Note_on_c, 0, 52, 109
1, 13539, Note_off_c, 0, 52, 109
1, 13544, Note_on_c, 0, 53, 106
1, 13609, Note_off_c, 0, 53, 106
1, 13616, Note_on_c, 0, 55, 101
1, 13659, Note_off_c, 0, 55, 101
1, 13668, Note_on_c, 0, 53, 103
1, 13727, Note_off_c, 0, 53, 103
1, 13742, Note_on_c, 0, 51, 100
1, 13810, Note_off_c, 0, 51, 100
1, 13810, Note_on_c, 0, 52, 102
1, 13903, Note_off_c, 0, 52, 102
1, 13930, Note_on_c, 0, 55, 107
1, 14051, Note_off_c, 0, 55, 107
1, 14064, Note_on_c, 0, 60, 97
1, 14283, Note_off_c, 0, 60, 97
1, 14311, Note_on_c, 0, 57, 106
1, 14426, Note_off_c, 0, 57, 106
1, 15356, Note_on_c, 0, 52, 112
1, 15429, Note_off_c, 0, 52, 112
1, 15459, Note_on_c, 0, 55, 118
1, 15548, Note_off_c, 0, 55, 118
1, 15562, Note_on_c, 0, 58, 113
1, 15629, Note_off_c, 0, 58, 113
1, 15640, Note_on_c, 0, 62, 121
1, 15710, Note_off_c, 0, 62, 121
1, 15732, Note_on_c, 0, 63, 118
1, 15817, Note_off_c, 0, 63, 118
1, 15821, Note_on_c, 0, 64, 125
1, 15882, Note_off_c, 0, 64, 125
1, 15900, Note_on_c, 0, 66, 121
1, 15945, Note_off_c, 0, 66, 121
1, 15952, Note_on_c, 0, 65, 123
1, 16015, Note_off_c, 0, 65, 123
1, 16029, Note_on_c, 0, 64, 115
1, 16110, Note_off_c, 0, 64, 115
1, 16125, Note_on_c, 0, 62, 115
1, 16203, Note_off_c, 0, 62, 115
1, 16215, Note_on_c, 0, 58, 105
1, 16286, Note_off_c, 0, 58, 105
1, 16304, Note_on_c, 0, 55, 105
1, 16372, Note_off_c, 0, 55, 105
1, 16410, Note_on_c, 0, 50, 89
1, 16830, Note_off_c, 0, 50, 89
1, 16860, Note_on_c, 0, 52, 105
1, 16968, Note_off_c, 0, 52, 105
1, 16987, Note_on_c, 0, 55, 105
1, 17101, Note_off_c, 0, 55, 105
1, 17102, Note_on_c, 0, 52, 102
1, 17193, Note_off_c, 0, 52, 102
1, 17224, Note_on_c, 0, 53, 96
1, 17356, Note_off_c, 0, 53, 96
1, 17376, Note_on_c, 0, 50, 104
1, 17475, Note_off_c, 0, 50, 104
1, 17501, Note_on_c, 0, 52, 101
1, 17576, Note_off_c, 0, 52, 101
1, 17588, Note_on_c, 0, 53, 99
1, 17718, Note_off_c, 0, 53, 99
1, 17764, Note_on_c, 0, 57, 102
1, 17879, Note_off_c, 0, 57, 102
1, 17897, Note_on_c, 0, 60, 101
1, 18146, Note_off_c, 0, 60, 101
1, 18157, Note_on_c, 0, 65, 100
1, 18324, Note_off_c, 0, 65, 100
1, 18871, Note_on_c, 0, 63, 116
1, 18936, Note_off_c, 0, 63, 116
1, 18947, Note_on_c, 0, 65, 112
1, 19323, Note_off_c, 0, 65, 112
1, 19365, Note_on_c, 0, 70, 114
1, 19636, Note_off_c, 0, 70, 114
1, 19655, Note_on_c, 0, 65, 113
1, 19729, Note_off_c, 0, 65, 113
1, 19743, Note_on_c, 0, 62, 112
1, 19825, Note_off_c, 0, 62, 112
1, 19836, Note_on_c, 0, 58, 98
1, 19910, Note_off_c, 0, 58, 98
1, 19931, Note_on_c, 0, 53, 96
1, 20044, Note_off_c, 0, 53, 96
1, 20089, Note_on_c, 0, 51, 101
1, 20240, Note_off_c, 0, 51, 101
1, 20263, Note_on_c, 0, 56, 104
1, 20419, Note_off_c, 0, 56, 104
1, 20428, Note_on_c, 0, 55, 102
1, 20471, Note_off_c, 0, 55, 102
1, 20484, Note_on_c, 0, 56, 94
1, 20676, Note_off_c, 0, 56, 94
1, 20676, Note_on_c, 0, 51, 101
1, 20777, Note_off_c, 0, 51, 101
1, 20801, Note_on_c, 0, 52, 101
1, 20895, Note_off_c, 0, 52, 101
1, 20923, Note_on_c, 0, 55, 99
1, 21992, Note_off_c, 0, 55, 99
1, 22017, Note_on_c, 0, 60, 110
1, 22128, Note_off_c, 0, 60, 110
1, 22695, Note_on_c, 0, 60, 111
1, 22998, Note_off_c, 0, 60, 111
1, 23068, Note_on_c, 0, 60, 106
1, 23390, Note_off_c, 0, 60, 106
1, 23398, Note_on_c, 0, 57, 95
1, 23487, Note_off_c, 0, 57, 95
1, 23560, Note_on_c, 0, 62, 106
1, 23690, Note_off_c, 0, 62, 106
1, 23730, Note_on_c, 0, 59, 94
1, 23847, Note_off_c, 0, 59, 94
1, 23949, Note_on_c, 0, 60, 99
1, 24241, Note_off_c, 0, 60, 99
1, 24273, Note_on_c, 0, 59, 89
1, 24493, Note_off_c, 0, 59, 89
1, 24528, Note_on_c, 0, 60, 100
1, 24921, Note_off_c, 0, 60, 100
1, 24985, Note_on_c, 0, 57, 101
1, 25070, Note_off_c, 0, 57, 101
1, 25087, Note_on_c, 0, 59, 102
1, 25247, Note_off_c, 0, 59, 102
1, 25273, Note_on_c, 0, 55, 90
1, 25385, Note_off_c, 0, 55, 90
1, 25408, Note_on_c, 0, 57, 96
1, 25738, Note_off_c, 0, 57, 96
1, 25755, Note_on_c, 0, 55, 83
1, 25846, Note_off_c, 0, 55, 83
1, 25852, Note_on_c, 0, 58, 106
1, 26003, Note_off_c, 0, 58, 106
1, 26038, Note_on_c, 0, 55, 100
1, 26124, Note_off_c, 0, 55, 100
1, 26148, Note_on_c, 0, 56, 103
1, 26393, Note_off_c, 0, 56, 103
1, 26434, Note_on_c, 0, 52, 99
1, 26570, Note_off_c, 0, 52, 99
1, 26597, Note_on_c, 0, 55, 95
1, 26974, Note_off_c, 0, 55, 95
1, 27531, Note_on_c, 0, 63, 118
1, 27627, Note_off_c, 0, 63, 118
1, 27635, Note_on_c, 0, 64, 117
1, 27689, Note_off_c, 0, 64, 117
1, 27706, Note_on_c, 0, 65, 123
1, 27802, Note_off_c, 0, 65, 123
1, 27818, Note_on_c, 0, 66, 124
1, 27882, Note_off_c, 0, 66, 124
1, 27894, Note_on_c, 0, 67, 126
1, 28141, Note_off_c, 0, 67, 126
1, 28740, Note_on_c, 0, 62, 113
1, 28791, Note_off_c, 0, 62, 113
1, 28805, Note_on_c, 0, 63, 120
1, 28870, Note_off_c, 0, 63, 120
1, 28879, Note_on_c, 0, 64, 121
1, 29023, Note_off_c, 0, 64, 121
1, 29024, Note_on_c, 0, 65, 121
1, 29081, Note_off_c, 0, 65, 121
1, 29093, Note_on_c, 0, 66, 118
1, 29149, Note_off_c, 0, 66, 118
1, 29173, Note_on_c, 0, 67, 120
1, 29468, Note_off_c, 0, 67, 120
1, 29493, Note_on_c, 0, 68, 109
1, 29555, Note_off_c, 0, 68, 109
1, 29585, Note_on_c, 0, 67, 112
1, 29887, Note_off_c, 0, 67, 112
1, 29906, Note_on_c, 0, 66, 107
1, 29965, Note_off_c, 0, 66, 107
1, 29981, Note_on_c, 0, 67, 110
1, 30278, Note_off_c, 0, 67, 110
1, 30294, Note_on_c, 0, 65, 112
1, 30347, Note_off_c, 0, 65, 112
1, 30366, Note_on_c, 0, 63, 110
1, 30435, Note_off_c, 0, 63, 110
1, 30446, Note_on_c, 0, 64, 106
1, 30720, Note_off_c, 0, 64, 106
1, 30774, Note_on_c, 0, 60, 106
1, 30847, Note_off_c, 0, 60, 106
1, 30863, Note_on_c, 0, 55, 100
1, 30930, Note_off_c, 0, 55, 100
1, 30952, Note_on_c, 0, 51, 95
1, 31048, Note_off_c, 0, 51, 95
1, 31060, Note_on_c, 0, 52, 99
1, 31145, Note_off_c, 0, 52, 99
1, 31157, Note_on_c, 0, 53, 99
1, 31277, Note_off_c, 0, 53, 99
1, 31301, Note_on_c, 0, 55, 96
1, 31768, Note_off_c, 0, 55, 96
1, 31787, Note_on_c, 0, 52, 99
1, 31868, Note_off_c, 0, 52, 99
1, 31879, Note_on_c, 0, 53, 101
1, 31956, Note_off_c, 0, 53, 101
1, 31967, Note_on_c, 0, 52, 104
1, 32034, Note_off_c, 0, 52, 104
1, 32051, Note_on_c, 0, 51, 101
1, 32117, Note_off_c, 0, 51, 101
1, 32128, Note_on_c, 0, 50, 106
1, 32206, Note_off_c, 0, 50, 106
1, 32220, Note_on_c, 0, 55, 106
1, 32345, Note_off_c, 0, 55, 106
1, 32345, Note_on_c, 0, 60, 102
1, 32479, Note_off_c, 0, 60, 102
1, 32499, Note_on_c, 0, 60, 101
1, 32850, Note_off_c, 0, 60, 101
1, 33743, Note_on_c, 0, 74, 109
1, 33816, Note_off_c, 0, 74, 109
1, 33822, Note_on_c, 0, 75, 124
1, 34718, Note_off_c, 0, 75, 124
1, 34750, Note_on_c, 0, 72, 115
1, 35456, Note_off_c, 0, 72, 115
1, 35545, Note_on_c, 0, 70, 127
1, 35949, Note_off_c, 0, 70, 127
1, 35984, Note_on_c, 0, 67, 106
1, 36128, Note_off_c, 0, 67, 106
1, 36266, Note_on_c, 0, 65, 117
1, 36375, Note_off_c, 0, 65, 117
1, 36392, Note_on_c, 0, 63, 112
1, 36653, Note_off_c, 0, 63, 112
1, 36670, Note_on_c, 0, 60, 106
1, 37021, Note_off_c, 0, 60, 106
1, 37062, Note_on_c, 0, 58, 99
1, 37126, Note_off_c, 0, 58, 99
1, 37138, Note_on_c, 0, 55, 99
1, 37203, Note_off_c, 0, 55, 99
1, 37214, Note_on_c, 0, 53, 99
1, 37265, Note_off_c, 0, 53, 99
1, 37274, Note_on_c, 0, 52, 100
1, 37359, Note_off_c, 0, 52, 100
1, 37367, Note_on_c, 0, 53, 99
1, 37464, Note_off_c, 0, 53, 99
1, 37467, Note_on_c, 0, 53, 99
1, 37558, Note_off_c, 0, 53, 99
1, 37569, Note_on_c, 0, 54, 97
1, 37678, Note_off_c, 0, 54, 97
1, 37684, Note_on_c, 0, 55, 96
1, 37945, Note_off_c, 0, 55, 96
1, 37973, Note_on_c, 0, 52, 102
1, 38070, Note_off_c, 0, 52, 102
1, 38081, Note_on_c, 0, 53, 98
1, 38167, Note_off_c, 0, 53, 98
1, 38186, Note_on_c, 0, 52, 99
1, 38328, Note_off_c, 0, 52, 99
1, 38328, Note_on_c, 0, 53, 100
1, 38427, Note_off_c, 0, 53, 100
1, 38455, Note_on_c, 0, 55, 99
1, 38522, Note_off_c, 0, 55, 99
1, 38522, Note_on_c, 0, 60, 108
1, 38607, Note_off_c, 0, 60, 108
1, 39358, Note_on_c, 0, 60, 116
1, 39446, Note_off_c, 0, 60, 116
1, 39462, Note_on_c, 0, 63, 116
1, 39527, Note_off_c, 0, 63, 116
1, 39533, Note_on_c, 0, 64, 121
1, 39581, Note_off_c, 0, 64, 121
1, 39598, Note_on_c, 0, 67, 118
1, 39634, Note_off_c, 0, 67, 118
1, 39643, Note_on_c, 0, 68, 116
1, 39689, Note_off_c, 0, 68, 116
1, 39698, Note_on_c, 0, 70, 118
1, 39770, Note_off_c, 0, 70, 118
1, 39774, Note_on_c, 0, 71, 117
1, 39814, Note_off_c, 0, 71, 117
1, 39823, Note_on_c, 0, 72, 126
1, 40039, Note_off_c, 0, 72, 126
1, 40059, Note_on_c, 0, 70, 109
1, 40380, Note_off_c, 0, 70, 109
1, 40436, Note_on_c, 0, 62, 107
1, 40491, Note_off_c, 0, 62, 107
1, 40504, Note_on_c, 0, 63, 112
1, 40563, Note_off_c, 0, 63, 112
1, 40570, Note_on_c, 0, 64, 113
1, 40635, Note_off_c, 0, 64, 113
1, 40648, Note_on_c, 0, 69, 98
1, 40667, Note_off_c, 0, 69, 98
1, 40677, Note_on_c, 0, 71, 107
1, 40695, Note_off_c, 0, 71, 107
1, 40701, Note_on_c, 0, 72, 118
1, 40816, Note_off_c, 0, 72, 118
1, 40836, Note_on_c, 0, 69, 113
1, 41047, Note_off_c, 0, 69, 113
1, 41200, Note_on_c, 0, 64, 108
1, 41295, Note_off_c, 0, 64, 108
1, 41313, Note_on_c, 0, 67, 109
1, 41398, Note_off_c, 0, 67, 109
1, 41403, Note_on_c, 0, 64, 105
1, 41480, Note_off_c, 0, 64, 105
1, 41494, Note_on_c, 0, 65, 110
1, 41570, Note_off_c, 0, 65, 110
1, 41597, Note_on_c, 0, 65, 108
1, 41663, Note_off_c, 0, 65, 108
1, 41674, Note_on_c, 0, 62, 108
1, 41765, Note_off_c, 0, 62, 108
1, 41771, Note_on_c, 0, 64, 104
1, 41828, Note_off_c, 0, 64, 104
1, 41843, Note_on_c, 0, 65, 106
1, 41920, Note_off_c, 0, 65, 106
1, 41924, Note_on_c, 0, 67, 107
1, 42034, Note_off_c, 0, 67, 107
1, 42056, Note_on_c, 0, 64, 101
1, 42427, Note_off_c, 0, 64, 101
1, 42436, Note_on_c, 0, 65, 100
1, 42600, Note_off_c, 0, 65, 100
1, 43015, Note_on_c, 0, 46, 103
1, 43124, Note_off_c, 0, 46, 103
1, 43138, Note_on_c, 0, 53, 101
1, 43236, Note_off_c, 0, 53, 101
1, 43242, Note_on_c, 0, 58, 99
1, 43327, Note_off_c, 0, 58, 99
1, 43336, Note_on_c, 0, 59, 103
1, 43413, Note_off_c, 0, 59, 103
1, 43531, Note_on_c, 0, 58, 101
1, 43796, Note_off_c, 0, 58, 101
1, 43902, Note_on_c, 0, 49, 99
1, 43971, Note_off_c, 0, 49, 99
1, 44000, Note_on_c, 0, 53, 99
1, 44117, Note_off_c, 0, 53, 99
1, 44160, Note_on_c, 0, 56, 99
1, 44254, Note_off_c, 0, 56, 99
1, 44589, Note_on_c, 0, 44, 108
1, 44673, Note_off_c, 0, 44, 108
1, 44690, Note_on_c, 0, 48, 109
1, 44713, Note_off_c, 0, 48, 109
1, 44725, Note_on_c, 0, 50, 90
1, 44764, Note_off_c, 0, 50, 90
1, 44774, Note_on_c, 0, 51, 99
1, 44855, Note_off_c, 0, 51, 99
1, 44881, Note_on_c, 0, 53, 103
1, 44914, Note_off_c, 0, 53, 103
1, 44925, Note_on_c, 0, 54, 106
1, 44969, Note_off_c, 0, 54, 106
1, 44973, Note_on_c, 0, 55, 108
1, 44988, Note_off_c, 0, 55, 108
1, 44997, Note_on_c, 0, 56, 114
1, 45257, Note_off_c, 0, 56, 114
1, 45279, Note_on_c, 0, 50, 103
1, 45354, Note_off_c, 0, 50, 103
1, 45389, Note_on_c, 0, 55, 106
1, 45872, Note_off_c, 0, 55, 106
1, 45884, Note_on_c, 0, 57, 100
1, 46198, Note_off_c, 0, 57, 100
1, 46223, Note_on_c, 0, 55, 97
1, 46271, Note_off_c, 0, 55, 97
1, 46303, Note_on_c, 0, 62, 103
1, 46470, Note_off_c, 0, 62, 103
1, 46694, Note_on_c, 0, 62, 103
1, 46957, Note_off_c, 0, 62, 103
1, 46971, Note_on_c, 0, 60, 101
1, 47062, Note_off_c, 0, 60, 101
1, 47076, Note_on_c, 0, 62, 108
1, 47312, Note_off_c, 0, 62, 108
1, 47334, Note_on_c, 0, 60, 103
1, 47433, Note_off_c, 0, 60, 103
1, 47463, Note_on_c, 0, 64, 10
1, 47580, Note_off_c, 0, 64, 10
1, 47600, Note_on_c, 0, 63, 118
1, 47659, Note_off_c, 0, 63, 118
1, 47681, Note_on_c, 0, 64, 124
1, 47774, Note_off_c, 0, 64, 124
1, 47783, Note_on_c, 0, 63, 120
1, 47834, Note_off_c, 0, 63, 120
1, 47848, Note_on_c, 0, 60, 119
1, 47941, Note_off_c, 0, 60, 119
1, 47982, Note_on_c, 0, 57, 110
1, 48007, Note_off_c, 0, 57, 110
1, 48029, Note_on_c, 0, 53, 112
1, 48128, Note_off_c, 0, 53, 112
1, 48147, Note_on_c, 0, 52, 107
1, 48233, Note_off_c, 0, 52, 107
1, 48239, Note_on_c, 0, 55, 108
1, 48504, Note_off_c, 0, 55, 108
1, 48516, Note_on_c, 0, 52, 109
1, 48588, Note_off_c, 0, 52, 109
1, 48602, Note_on_c, 0, 53, 109
1, 48695, Note_off_c, 0, 53, 109
1, 48908, Note_on_c, 0, 53, 106
1, 48986, Note_off_c, 0, 53, 106
1, 49010, Note_on_c, 0, 55, 114
1, 49114, Note_off_c, 0, 55, 114
1, 49114, Note_on_c, 0, 60, 113
1, 49224, Note_off_c, 0, 60, 113
1, 49650, Note_on_c, 0, 60, 110
1, 50054, Note_off_c, 0, 60, 110
1, 50076, Note_on_c, 0, 57, 110
1, 50158, Note_off_c, 0, 57, 110
1, 50186, Note_on_c, 0, 60, 124
1, 50253, Note_off_c, 0, 60, 124
1, 50272, Note_on_c, 0, 62, 125
1, 50333, Note_off_c, 0, 62, 125
1, 50353, Note_on_c, 0, 63, 123
1, 50428, Note_off_c, 0, 63, 123
1, 50437, Note_on_c, 0, 66, 117
1, 50464, Note_off_c, 0, 66, 117
1, 50475, Note_on_c, 0, 63, 126
1, 50542, Note_off_c, 0, 63, 126
1, 50559, Note_on_c, 0, 62, 121
1, 50605, Note_off_c, 0, 62, 121
1, 50638, Note_on_c, 0, 60, 118
1, 50748, Note_off_c, 0, 60, 118
1, 50764, Note_on_c, 0, 55, 112
1, 50820, Note_off_c, 0, 55, 112
1, 50836, Note_on_c, 0, 53, 113
1, 50895, Note_off_c, 0, 53, 113
1, 50911, Note_on_c, 0, 52, 115
1, 50989, Note_off_c, 0, 52, 115
1, 51017, Note_on_c, 0, 53, 111
1, 51131, Note_off_c, 0, 53, 111
1, 51135, Note_on_c, 0, 54, 110
1, 51282, Note_off_c, 0, 54, 110
1, 51309, Note_on_c, 0, 55, 112
1, 51423, Note_off_c, 0, 55, 112
1, 51490, Note_on_c, 0, 60, 109
1, 51581, Note_off_c, 0, 60, 109
1, 51643, Note_on_c, 0, 60, 117
1, 51827, Note_off_c, 0, 60, 117
1, 51847, Note_on_c, 0, 55, 111
1, 51911, Note_off_c, 0, 55, 111
1, 51911, End_track
0, 0, End_of_file
