0, 0, Header, 1, 1, 192
1, 0, Start_track
1, 0, Title_t, "Melody"
1, 0, Tempo, 260869
1, 0, Key_signature, -3, "major"
1, 0, Time_signature, 4, 2, 24, 8
1, 4181, Note_on_c, 0, 60, 115
1, 4448, Note_off_c, 0, 60, 115
1, 4523, Note_on_c, 0, 62, 101
1, 4787, Note_off_c, 0, 62, 101
1, 5272, Note_on_c, 0, 55, 96
1, 5327, Note_off_c, 0, 55, 96
1, 5361, Note_on_c, 0, 60, 127
1, 5450, Note_off_c, 0, 60, 127
1, 5484, Note_on_c, 0, 62, 113
1, 5537, Note_off_c, 0, 62, 113
1, 5551, Note_on_c, 0, 63, 106
1, 5668, Note_off_c, 0, 63, 106
1, 5682, Note_on_c, 0, 65, 96
1, 5735, Note_off_c, 0, 65, 96
1, 5749, Note_on_c, 0, 67, 109
1, 5851, Note_off_c, 0, 67, 109
1, 5874, Note_on_c, 0, 63, 107
1, 5933, Note_off_c, 0, 63, 107
1, 5943, Note_on_c, 0, 65, 106
1, 6030, Note_off_c, 0, 65, 106
1, 6044, Note_on_c, 0, 67, 99
1, 6065, Note_off_c, 0, 67, 99
1, 6077, Note_on_c, 0, 65, 101
1, 6119, Note_off_c, 0, 65, 101
1, 6129, Note_on_c, 0, 63, 113
1, 6210, Note_off_c, 0, 63, 113
1, 6233, Note_on_c, 0, 60, 117
1, 6296, Note_off_c, 0, 60, 117
1, 6315, Note_on_c, 0, 55, 101
1, 6418, Note_off_c, 0, 55, 101
1, 6449, Note_on_c, 0, 51, 102
1, 6525, Note_off_c, 0, 51, 102
1, 6543, Note_on_c, 0, 48, 100
1, 6609, Note_off_c, 0, 48, 100
1, 6618, Note_on_c, 0, 50, 100
1, 6705, Note_off_c, 0, 50, 100
1, 6711, Note_on_c, 0, 51, 106
1, 6778, Note_off_c, 0, 51, 106
1, 6803, Note_on_c, 0, 53, 106
1, 6884, Note_off_c, 0, 53, 106
1, 6911, Note_on_c, 0, 56, 101
1, 6999, Note_off_c, 0, 56, 101
1, 7023, Note_on_c, 0, 53, 96
1, 7063, Note_off_c, 0, 53, 96
1, 7078, Note_on_c, 0, 56, 103
1, 7159, Note_off_c, 0, 56, 103
1, 7190, Note_on_c, 0, 53, 105
1, 7247, Note_off_c, 0, 53, 105
1, 7283, Note_on_c, 0, 55, 95
1, 7586, Note_off_c, 0, 55, 95
1, 7601, Note_on_c, 0, 56, 108
1, 7617, Note_off_c, 0, 56, 108
1, 7635, Note_on_c, 0, 58, 107
1, 7708, Note_off_c, 0, 58, 107
1, 7714, Note_on_c, 0, 59, 102
1, 7751, Note_off_c, 0, 59, 102
1, 7755, Note_on_c, 0, 60, 96
1, 7965, Note_off_c, 0, 60, 96
1, 7996, Note_on_c, 0, 55, 96
1, 8255, Note_off_c, 0, 55, 96
1, 8372, Note_on_c, 0, 53, 108
1, 8433, Note_off_c, 0, 53, 108
1, 8463, Note_on_c, 0, 56, 100
1, 8532, Note_off_c, 0, 56, 100
1, 8569, Note_on_c, 0, 53, 108
1, 8638, Note_off_c, 0, 53, 108
1, 8663, Note_on_c, 0, 55, 103
1, 8739, Note_off_c, 0, 55, 103
1, 8757, Note_on_c, 0, 51, 105
1, 8821, Note_off_c, 0, 51, 105
1, 8848, Note_on_c, 0, 53, 112
1, 8932, Note_off_c, 0, 53, 112
1, 8963, Note_on_c, 0, 50, 103
1, 9048, Note_off_c, 0, 50, 103
1, 9061, Note_on_c, 0, 51, 99
1, 9125, Note_off_c, 0, 51, 99
1, 9156, Note_on_c, 0, 53, 108
1, 9205, Note_off_c, 0, 53, 108
1, 9224, Note_on_c, 0, 55, 102
1, 9287, Note_off_c, 0, 55, 102
1, 9312, Note_on_c, 0, 60, 101
1, 9866, Note_off_c, 0, 60, 101
1, 10364, Note_on_c, 0, 69, 122
1, 10454, Note_off_c, 0, 69, 122
1, 10479, Note_on_c, 0, 67, 114
1, 10534, Note_off_c, 0, 67, 114
1, 10565, Note_on_c, 0, 63, 112
1, 10638, Note_off_c, 0, 63, 112
1, 10654, Note_on_c, 0, 62, 111
1, 10718, Note_off_c, 0, 62, 111
1, 10743, Note_on_c, 0, 60, 121
1, 10834, Note_off_c, 0, 60, 121
1, 10865, Note_on_c, 0, 56, 97
1, 10914, Note_off_c, 0, 56, 97
1, 10927, Note_on_c, 0, 55, 94
1, 11024, Note_off_c, 0, 55, 94
1, 11063, Note_on_c, 0, 51, 91
1, 11123, Note_off_c, 0, 51, 91
1, 11133, Note_on_c, 0, 57, 93
1, 11220, Note_off_c, 0, 57, 93
1, 11251, Note_on_c, 0, 53, 97
1, 11300, Note_off_c, 0, 53, 97
1, 11309, Note_on_c, 0, 55, 98
1, 11406, Note_off_c, 0, 55, 98
1, 11443, Note_on_c, 0, 51, 100
1, 11492, Note_off_c, 0, 51, 100
1, 11514, Note_on_c, 0, 53, 106
1, 11745, Note_off_c, 0, 53, 106
1, 11766, Note_on_c, 0, 50, 102
1, 11820, Note_off_c, 0, 50, 102
1, 11835, Note_on_c, 0, 51, 110
1, 11937, Note_off_c, 0, 51, 110
1, 11967, Note_on_c, 0, 48, 97
1, 12036, Note_off_c, 0, 48, 97
1, 12045, Note_on_c, 0, 50, 106
1, 12097, Note_off_c, 0, 50, 106
1, 12115, Note_on_c, 0, 51, 105
1, 12191, Note_off_c, 0, 51, 105
1, 12201, Note_on_c, 0, 53, 110
1, 12265, Note_off_c, 0, 53, 110
1, 12286, Note_on_c, 0, 55, 105
1, 12352, Note_off_c, 0, 55, 105
1, 12364, Note_on_c, 0, 60, 108
1, 12891, Note_off_c, 0, 60, 108
1, 12930, Note_on_c, 0, 55, 103
1, 13018, Note_off_c, 0, 55, 103
1, 13030, Note_on_c, 0, 56, 91
1, 13220, Note_off_c, 0, 56, 91
1, 13230, Note_on_c, 0, 55, 94
1, 13272, Note_off_c, 0, 55, 94
1, 13296, Note_on_c, 0, 53, 108
1, 13386, Note_off_c, 0, 53, 108
1, 13396, Note_on_c, 0, 55, 104
1, 13480, Note_off_c, 0, 55, 104
1, 13496, Note_on_c, 0, 60, 110
1, 13898, Note_off_c, 0, 60, 110
1, 14449, Note_on_c, 0, 67, 119
1, 14530, Note_off_c, 0, 67, 119
1, 14543, Note_on_c, 0, 68, 120
1, 14633, Note_off_c, 0, 68, 120
1, 14657, Note_on_c, 0, 65, 93
1, 14712, Note_off_c, 0, 65, 93
1, 14719, Note_on_c, 0, 67, 119
1, 14828, Note_off_c, 0, 67, 119
1, 14855, Note_on_c, 0, 63, 108
1, 14919, Note_off_c, 0, 63, 108
1, 14937, Note_on_c, 0, 65, 105
1, 15021, Note_off_c, 0, 65, 105
1, 15037, Note_on_c, 0, 62, 107
1, 15119, Note_off_c, 0, 62, 107
1, 15125, Note_on_c, 0, 63, 103
1, 15306, Note_off_c, 0, 63, 103
1, 15327, Note_on_c, 0, 60, 118
1, 15433, Note_off_c, 0, 60, 118
1, 15461, Note_on_c, 0, 55, 100
1, 15624, Note_off_c, 0, 55, 100
1, 15658, Note_on_c, 0, 51, 96
1, 15703, Note_off_c, 0, 51, 96
1, 15724, Note_on_c, 0, 55, 96
1, 15985, Note_off_c, 0, 55, 96
1, 16019, Note_on_c, 0, 60, 91
1, 16350, Note_off_c, 0, 60, 91
1, 16381, Note_on_c, 0, 57, 98
1, 16613, Note_off_c, 0, 57, 98
1, 17035, Note_on_c, 0, 69, 116
1, 17150, Note_off_c, 0, 69, 116
1, 17159, Note_on_c, 0, 67, 109
1, 17226, Note_off_c, 0, 67, 109
1, 17247, Note_on_c, 0, 64, 104
1, 17323, Note_off_c, 0, 64, 104
1, 17344, Note_on_c, 0, 62, 107
1, 17435, Note_off_c, 0, 62, 107
1, 17454, Note_on_c, 0, 58, 92
1, 17529, Note_off_c, 0, 58, 92
1, 17562, Note_on_c, 0, 57, 96
1, 17622, Note_off_c, 0, 57, 96
1, 17640, Note_on_c, 0, 55, 97
1, 17718, Note_off_c, 0, 55, 97
1, 17746, Note_on_c, 0, 53, 103
1, 17807, Note_off_c, 0, 53, 103
1, 17840, Note_on_c, 0, 52, 98
1, 17936, Note_off_c, 0, 52, 98
1, 17942, Note_on_c, 0, 51, 97
1, 18002, Note_off_c, 0, 51, 97
1, 18023, Note_on_c, 0, 55, 105
1, 18122, Note_off_c, 0, 55, 105
1, 18171, Note_on_c, 0, 53, 106
1, 18445, Note_off_c, 0, 53, 106
1, 18870, Note_on_c, 0, 53, 109
1, 18949, Note_off_c, 0, 53, 109
1, 18962, Note_on_c, 0, 57, 102
1, 19014, Note_off_c, 0, 57, 102
1, 19035, Note_on_c, 0, 60, 120
1, 19126, Note_off_c, 0, 60, 120
1, 19147, Note_on_c, 0, 63, 111
1, 19229, Note_off_c, 0, 63, 111
1, 19230, Note_on_c, 0, 67, 107
1, 19293, Note_off_c, 0, 67, 107
1, 19312, Note_on_c, 0, 65, 104
1, 19393, Note_off_c, 0, 65, 104
1, 19400, Note_on_c, 0, 67, 102
1, 19446, Note_off_c, 0, 67, 102
1, 19453, Note_on_c, 0, 65, 101
1, 19507, Note_off_c, 0, 65, 101
1, 19517, Note_on_c, 0, 62, 110
1, 19608, Note_off_c, 0, 62, 110
1, 19615, Note_on_c, 0, 60, 119
1, 19697, Note_off_c, 0, 60, 119
1, 19716, Note_on_c, 0, 56, 105
1, 19800, Note_off_c, 0, 56, 105
1, 19815, Note_on_c, 0, 53, 107
1, 19894, Note_off_c, 0, 53, 107
1, 19912, Note_on_c, 0, 50, 99
1, 19990, Note_off_c, 0, 50, 99
1, 20005, Note_on_c, 0, 48, 90
1, 20066, Note_off_c, 0, 48, 90
1, 20084, Note_on_c, 0, 55, 107
1, 20171, Note_off_c, 0, 55, 107
1, 20187, Note_on_c, 0, 53, 109
1, 20250, Note_off_c, 0, 53, 109
1, 20274, Note_on_c, 0, 56, 102
1, 20550, Note_off_c, 0, 56, 102
1, 20566, Note_on_c, 0, 53, 110
1, 20609, Note_off_c, 0, 53, 110
1, 20628, Note_on_c, 0, 55, 105
1, 20722, Note_off_c, 0, 55, 105
1, 20780, Note_on_c, 0, 55, 103
1, 20930, Note_off_c, 0, 55, 103
1, 20952, Note_on_c, 0, 51, 102
1, 21009, Note_off_c, 0, 51, 102
1, 21025, Note_on_c, 0, 53, 111
1, 21133, Note_off_c, 0, 53, 111
1, 21152, Note_on_c, 0, 50, 101
1, 21218, Note_off_c, 0, 50, 101
1, 21224, Note_on_c, 0, 51, 112
1, 21317, Note_off_c, 0, 51, 112
1, 21330, Note_on_c, 0, 55, 103
1, 21396, Note_off_c, 0, 55, 103
1, 21415, Note_on_c, 0, 58, 94
1, 21484, Note_off_c, 0, 58, 94
1, 21506, Note_on_c, 0, 63, 103
1, 21789, Note_off_c, 0, 63, 103
1, 21810, Note_on_c, 0, 62, 103
1, 21916, Note_off_c, 0, 62, 103
1, 21990, Note_on_c, 0, 55, 104
1, 22144, Note_off_c, 0, 55, 104
1, 22160, Note_on_c, 0, 62, 111
1, 22274, Note_off_c, 0, 62, 111
1, 22284, Note_on_c, 0, 65, 108
1, 22378, Note_off_c, 0, 65, 108
1, 22388, Note_on_c, 0, 67, 110
1, 22562, Note_off_c, 0, 67, 110
1, 22574, Note_on_c, 0, 63, 102
1, 22929, Note_off_c, 0, 63, 102
1, 23266, Note_on_c, 0, 55, 80
1, 23309, Note_off_c, 0, 55, 80
1, 23334, Note_on_c, 0, 63, 107
1, 23470, Note_off_c, 0, 63, 107
1, 23482, Note_on_c, 0, 55, 97
1, 23540, Note_off_c, 0, 55, 97
1, 23556, Note_on_c, 0, 57, 89
1, 23709, Note_off_c, 0, 57, 89
1, 23734, Note_on_c, 0, 62, 112
1, 23852, Note_off_c, 0, 62, 112
1, 23876, Note_on_c, 0, 55, 93
1, 23915, Note_off_c, 0, 55, 93
1, 23936, Note_on_c, 0, 57, 91
1, 23988, Note_off_c, 0, 57, 91
1, 24028, Note_on_c, 0, 60, 112
1, 24445, Note_off_c, 0, 60, 112
1, 24617, Note_on_c, 0, 54, 105
1, 24677, Note_off_c, 0, 54, 105
1, 24695, Note_on_c, 0, 57, 94
1, 24858, Note_off_c, 0, 57, 94
1, 24889, Note_on_c, 0, 63, 107
1, 25013, Note_off_c, 0, 63, 107
1, 25029, Note_on_c, 0, 55, 100
1, 25090, Note_off_c, 0, 55, 100
1, 25105, Note_on_c, 0, 57, 96
1, 25178, Note_off_c, 0, 57, 96
1, 25202, Note_on_c, 0, 62, 109
1, 25286, Note_off_c, 0, 62, 109
1, 25301, Note_on_c, 0, 60, 114
1, 25385, Note_off_c, 0, 60, 114
1, 25398, Note_on_c, 0, 55, 99
1, 25474, Note_off_c, 0, 55, 99
1, 25492, Note_on_c, 0, 51, 96
1, 25613, Note_off_c, 0, 51, 96
1, 25658, Note_on_c, 0, 55, 105
1, 25770, Note_off_c, 0, 55, 105
1, 25788, Note_on_c, 0, 48, 101
1, 25851, Note_off_c, 0, 48, 101
1, 25866, Note_on_c, 0, 51, 108
1, 25936, Note_off_c, 0, 51, 108
1, 25940, Note_on_c, 0, 52, 102
1, 25952, Note_off_c, 0, 52, 102
1, 25959, Note_on_c, 0, 54, 104
1, 25978, Note_off_c, 0, 54, 104
1, 25991, Note_on_c, 0, 56, 106
1, 26045, Note_off_c, 0, 56, 106
1, 26060, Note_on_c, 0, 57, 102
1, 26100, Note_off_c, 0, 57, 102
1, 26109, Note_on_c, 0, 58, 104
1, 26152, Note_off_c, 0, 58, 104
1, 26159, Note_on_c, 0, 60, 102
1, 26343, Note_off_c, 0, 60, 102
1, 26352, Note_on_c, 0, 55, 106
1, 26620, Note_off_c, 0, 55, 106
1, 26699, Note_on_c, 0, 53, 107
1, 26795, Note_off_c, 0, 53, 107
1, 26807, Note_on_c, 0, 56, 104
1, 26933, Note_off_c, 0, 56, 104
1, 26948, Note_on_c, 0, 53, 107
1, 27032, Note_off_c, 0, 53, 107
1, 27032, End_track
0, 0, End_of_file
