0, 0, Header, 1, 1, 192
1, 0, Start_track
1, 0, Title_t, "Melody"
1, 0, Tempo, 342857
1, 0, Key_signature, -5, "major"
1, 0, Time_signature, 4, 2, 24, 8
1, 2522, Note_on_c, 0, 56, 104
1, 2639, Note_off_c, 0, 56, 104
1, 2719, Note_on_c, 0, 61, 81
1, 2995, Note_off_c, 0, 61, 81
1, 3235, Note_on_c, 0, 53, 100
1, 3278, Note_off_c, 0, 53, 100
1, 3295, Note_on_c, 0, 54, 102
1, 3423, Note_off_c, 0, 54, 102
1, 3500, Note_on_c, 0, 61, 93
1, 3687, Note_off_c, 0, 61, 93
1, 3975, Note_on_c, 0, 52, 109
1, 4049, Note_off_c, 0, 52, 109
1, 4058, Note_on_c, 0, 53, 109
1, 4158, Note_off_c, 0, 53, 109
1, 4178, Note_on_c, 0, 56, 92
1, 4238, Note_off_c, 0, 56, 92
1, 4258, Note_on_c, 0, 61, 95
1, 4493, Note_off_c, 0, 61, 95
1, 4752, Note_on_c, 0, 53, 96
1, 4819, Note_off_c, 0, 53, 96
1, 4827, Note_on_c, 0, 54, 104
1, 4960, Note_off_c, 0, 54, 104
1, 5013, Note_on_c, 0, 61, 99
1, 5218, Note_off_c, 0, 61, 99
1, 5534, Note_on_c, 0, 52, 102
1, 5580, Note_off_c, 0, 52, 102
1, 5584, Note_on_c, 0, 53, 108
1, 5711, Note_off_c, 0, 53, 108
1, 5720, Note_on_c, 0, 56, 103
1, 5773, Note_off_c, 0, 56, 103
1, 5785, Note_on_c, 0, 61, 104
1, 5887, Note_off_c, 0, 61, 104
1, 5903, Note_on_c, 0, 63, 108
1, 5957, Note_off_c, 0, 63, 108
1, 5960, Note_on_c, 0, 65, 83
1, 6044, Note_off_c, 0, 65, 83
1, 6065, Note_on_c, 0, 67, 92
1, 6098, Note_off_c, 0, 67, 92
1, 6105, Note_on_c, 0, 65, 96
1, 6149, Note_off_c, 0, 65, 96
1, 6158, Note_on_c, 0, 61, 106
1, 6258, Note_off_c, 0, 61, 106
1, 6278, Note_on_c, 0, 58, 88
1, 6320, Note_off_c, 0, 58, 88
1, 6335, Note_on_c, 0, 54, 97
1, 6432, Note_off_c, 0, 54, 97
1, 6444, Note_on_c, 0, 51, 93
1, 6542, Note_off_c, 0, 51, 93
1, 6543, Note_on_c, 0, 53, 94
1, 6652, Note_off_c, 0, 53, 94
1, 6665, Note_on_c, 0, 56, 99
1, 6743, Note_off_c, 0, 56, 99
1, 6753, Note_on_c, 0, 52, 102
1, 6844, Note_off_c, 0, 52, 102
1, 6856, Note_on_c, 0, 53, 90
1, 6898, Note_off_c, 0, 53, 90
1, 6916, Note_on_c, 0, 56, 104
1, 7015, Note_off_c, 0, 56, 104
1, 7046, Note_on_c, 0, 61, 91
1, 7164, Note_off_c, 0, 61, 91
1, 7227, Note_on_c, 0, 61, 100
1, 7302, Note_off_c, 0, 61, 100
1, 7313, Note_on_c, 0, 61, 88
1, 7443, Note_off_c, 0, 61, 88
1, 7489, Note_on_c, 0, 59, 96
1, 7591, Note_off_c, 0, 59, 96
1, 7611, Note_on_c, 0, 59, 101
1, 7680, Note_off_c, 0, 59, 101
1, 7703, Note_on_c, 0, 58, 80
1, 7798, Note_off_c, 0, 58, 80
1, 7838, Note_on_c, 0, 56, 93
1, 8116, Note_off_c, 0, 56, 93
1, 8133, Note_on_c, 0, 56, 97
1, 8199, Note_off_c, 0, 56, 97
1, 8221, Note_on_c, 0, 53, 99
1, 8314, Note_off_c, 0, 53, 99
1, 8418, Note_on_c, 0, 63, 102
1, 8532, Note_off_c, 0, 63, 102
1, 8545, Note_on_c, 0, 62, 87
1, 8587, Note_off_c, 0, 62, 87
1, 8593, Note_on_c, 0, 63, 98
1, 8749, Note_off_c, 0, 63, 98
1, 8809, Note_on_c, 0, 61, 100
1, 8932, Note_off_c, 0, 61, 100
1, 8951, Note_on_c, 0, 58, 90
1, 9036, Note_off_c, 0, 58, 90
1, 9096, Note_on_c, 0, 62, 101
1, 9148, Note_off_c, 0, 62, 101
1, 9149, Note_on_c, 0, 63, 91
1, 9293, Note_off_c, 0, 63, 91
1, 9303, Note_on_c, 0, 63, 98
1, 9350, Note_off_c, 0, 63, 98
1, 9355, Note_on_c, 0, 61, 91
1, 9452, Note_off_c, 0, 61, 91
1, 9560, Note_on_c, 0, 64, 102
1, 9632, Note_off_c, 0, 64, 102
1, 9638, Note_on_c, 0, 65, 87
1, 9816, Note_off_c, 0, 65, 87
1, 9825, Note_on_c, 0, 63, 101
1, 9895, Note_off_c, 0, 63, 101
1, 9915, Note_on_c, 0, 61, 96
1, 10022, Note_off_c, 0, 61, 96
1, 10043, Note_on_c, 0, 58, 84
1, 10541, Note_off_c, 0, 58, 84
1, 10978, Note_on_c, 0, 68, 120
1, 11231, Note_off_c, 0, 68, 120
1, 11254, Note_on_c, 0, 66, 106
1, 11306, Note_off_c, 0, 66, 106
1, 11319, Note_on_c, 0, 67, 92
1, 11345, Note_off_c, 0, 67, 92
1, 11353, Note_on_c, 0, 66, 109
1, 11418, Note_off_c, 0, 66, 109
1, 11431, Note_on_c, 0, 64, 109
1, 11565, Note_off_c, 0, 64, 109
1, 11571, Note_on_c, 0, 65, 88
1, 11795, Note_off_c, 0, 65, 88
1, 11817, Note_on_c, 0, 61, 99
1, 11924, Note_off_c, 0, 61, 99
1, 11931, Note_on_c, 0, 58, 86
1, 11987, Note_off_c, 0, 58, 86
1, 12001, Note_on_c, 0, 61, 103
1, 12093, Note_off_c, 0, 61, 103
1, 12106, Note_on_c, 0, 65, 103
1, 12176, Note_off_c, 0, 65, 103
1, 12184, Note_on_c, 0, 64, 103
1, 12285, Note_off_c, 0, 64, 103
1, 12298, Note_on_c, 0, 61, 98
1, 12354, Note_off_c, 0, 61, 98
1, 12360, Note_on_c, 0, 58, 81
1, 12472, Note_off_c, 0, 58, 81
1, 12491, Note_on_c, 0, 53, 91
1, 12543, Note_off_c, 0, 53, 91
1, 12554, Note_on_c, 0, 54, 88
1, 12645, Note_off_c, 0, 54, 88
1, 12663, Note_on_c, 0, 56, 100
1, 12743, Note_off_c, 0, 56, 100
1, 12761, Note_on_c, 0, 52, 99
1, 12857, Note_off_c, 0, 52, 99
1, 12876, Note_on_c, 0, 53, 89
1, 12928, Note_off_c, 0, 53, 89
1, 12950, Note_on_c, 0, 56, 98
1, 13052, Note_off_c, 0, 56, 98
1, 13052, Note_on_c, 0, 61, 85
1, 13290, Note_off_c, 0, 61, 85
1, 13314, Note_on_c, 0, 58, 84
1, 13415, Note_off_c, 0, 58, 84
1, 13424, Note_on_c, 0, 53, 86
1, 13448, Note_off_c, 0, 53, 86
1, 13453, Note_on_c, 0, 54, 92
1, 13559, Note_off_c, 0, 54, 92
1, 13597, Note_on_c, 0, 52, 87
1, 13671, Note_off_c, 0, 52, 87
1, 13678, Note_on_c, 0, 53, 90
1, 13799, Note_off_c, 0, 53, 90
1, 13808, Note_on_c, 0, 56, 88
1, 14013, Note_off_c, 0, 56, 88
1, 14510, Note_on_c, 0, 52, 104
1, 14609, Note_off_c, 0, 52, 104
1, 14610, Note_on_c, 0, 58, 95
1, 14701, Note_off_c, 0, 58, 95
1, 14733, Note_on_c, 0, 46, 102
1, 14995, Note_off_c, 0, 46, 102
1, 15090, Note_on_c, 0, 52, 113
1, 15189, Note_off_c, 0, 52, 113
1, 15210, Note_on_c, 0, 58, 96
1, 15281, Note_off_c, 0, 58, 96
1, 15325, Note_on_c, 0, 46, 104
1, 15516, Note_off_c, 0, 46, 104
1, 15555, Note_on_c, 0, 52, 112
1, 15718, Note_off_c, 0, 52, 112
1, 15735, Note_on_c, 0, 58, 97
1, 15811, Note_off_c, 0, 58, 97
1, 15828, Note_on_c, 0, 62, 112
1, 15924, Note_off_c, 0, 62, 112
1, 15941, Note_on_c, 0, 60, 102
1, 16145, Note_off_c, 0, 60, 102
1, 16215, Note_on_c, 0, 67, 114
1, 16301, Note_off_c, 0, 67, 114
1, 16310, Note_on_c, 0, 65, 109
1, 16496, Note_off_c, 0, 65, 109
1, 16631, Note_on_c, 0, 74, 100
1, 16766, Note_off_c, 0, 74, 100
1, 16776, Note_on_c, 0, 72, 108
1, 16880, Note_off_c, 0, 72, 108
1, 16923, Note_on_c, 0, 67, 102
1, 17041, Note_off_c, 0, 67, 102
1, 17061, Note_on_c, 0, 62, 105
1, 17155, Note_off_c, 0, 62, 105
1, 17170, Note_on_c, 0, 60, 101
1, 17265, Note_off_c, 0, 60, 101
1, 17354, Note_on_c, 0, 64, 97
1, 17457, Note_off_c, 0, 64, 97
1, 17465, Note_on_c, 0, 65, 88
1, 17717, Note_off_c, 0, 65, 88
1, 17723, Note_on_c, 0, 63, 101
1, 17801, Note_off_c, 0, 63, 101
1, 17804, Note_on_c, 0, 62, 102
1, 17901, Note_off_c, 0, 62, 102
1, 17914, Note_on_c, 0, 60, 97
1, 17982, Note_off_c, 0, 60, 97
1, 17986, Note_on_c, 0, 58, 88
1, 18073, Note_off_c, 0, 58, 88
1, 18115, Note_on_c, 0, 56, 95
1, 18192, Note_off_c, 0, 56, 95
1, 18197, Note_on_c, 0, 55, 91
1, 18288, Note_off_c, 0, 55, 91
1, 18321, Note_on_c, 0, 53, 95
1, 18381, Note_off_c, 0, 53, 95
1, 18386, Note_on_c, 0, 55, 89
1, 18604, Note_off_c, 0, 55, 89
1, 18868, Note_on_c, 0, 63, 113
1, 19039, Note_off_c, 0, 63, 113
1, 19043, Note_on_c, 0, 65, 102
1, 19312, Note_off_c, 0, 65, 102
1, 19318, Note_on_c, 0, 61, 105
1, 19434, Note_off_c, 0, 61, 105
1, 19445, Note_on_c, 0, 58, 84
1, 19484, Note_off_c, 0, 58, 84
1, 19497, Note_on_c, 0, 65, 105
1, 19633, Note_off_c, 0, 65, 105
1, 19644, Note_on_c, 0, 65, 105
1, 19702, Note_off_c, 0, 65, 105
1, 19716, Note_on_c, 0, 64, 106
1, 19820, Note_off_c, 0, 64, 106
1, 19823, Note_on_c, 0, 61, 104
1, 19880, Note_off_c, 0, 61, 104
1, 19889, Note_on_c, 0, 59, 91
1, 19998, Note_off_c, 0, 59, 91
1, 20015, Note_on_c, 0, 53, 101
1, 20076, Note_off_c, 0, 53, 101
1, 20080, Note_on_c, 0, 52, 100
1, 20168, Note_off_c, 0, 52, 100
1, 20248, Note_on_c, 0, 58, 92
1, 20364, Note_off_c, 0, 58, 92
1, 20402, Note_on_c, 0, 53, 87
1, 20442, Note_off_c, 0, 53, 87
1, 20444, Note_on_c, 0, 56, 92
1, 20642, Note_off_c, 0, 56, 92
1, 20672, Note_on_c, 0, 53, 87
1, 20750, Note_off_c, 0, 53, 87
1, 20832, Note_on_c, 0, 61, 110
1, 20923, Note_off_c, 0, 61, 110
1, 21524, Note_on_c, 0, 61, 108
1, 21796, Note_off_c, 0, 61, 108
1, 21813, Note_on_c, 0, 58, 101
1, 21861, Note_off_c, 0, 58, 101
1, 21999, Note_on_c, 0, 63, 114
1, 22063, Note_off_c, 0, 63, 114
1, 22069, Note_on_c, 0, 65, 110
1, 22284, Note_off_c, 0, 65, 110
1, 22290, Note_on_c, 0, 67, 110
1, 22317, Note_off_c, 0, 67, 110
1, 22321, Note_on_c, 0, 65, 109
1, 22352, Note_off_c, 0, 65, 109
1, 22360, Note_on_c, 0, 64, 108
1, 22476, Note_off_c, 0, 64, 108
1, 22483, Note_on_c, 0, 61, 106
1, 22541, Note_off_c, 0, 61, 106
1, 22555, Note_on_c, 0, 58, 88
1, 22639, Note_off_c, 0, 58, 88
1, 22659, Note_on_c, 0, 61, 108
1, 22733, Note_off_c, 0, 61, 108
1, 22741, Note_on_c, 0, 63, 110
1, 22846, Note_off_c, 0, 63, 110
1, 22854, Note_on_c, 0, 65, 100
1, 23051, Note_off_c, 0, 65, 100
1, 23063, Note_on_c, 0, 65, 107
1, 23113, Note_off_c, 0, 65, 107
1, 23119, Note_on_c, 0, 61, 106
1, 23230, Note_off_c, 0, 61, 106
1, 23244, Note_on_c, 0, 58, 96
1, 23282, Note_off_c, 0, 58, 96
1, 23294, Note_on_c, 0, 54, 95
1, 23403, Note_off_c, 0, 54, 95
1, 23425, Note_on_c, 0, 52, 93
1, 23477, Note_off_c, 0, 52, 93
1, 23489, Note_on_c, 0, 53, 97
1, 23595, Note_off_c, 0, 53, 97
1, 23616, Note_on_c, 0, 56, 97
1, 23727, Note_off_c, 0, 56, 97
1, 23800, Note_on_c, 0, 53, 92
1, 23847, Note_off_c, 0, 53, 92
1, 23877, Note_on_c, 0, 56, 97
1, 24073, Note_off_c, 0, 56, 97
1, 24155, Note_on_c, 0, 53, 92
1, 24231, Note_off_c, 0, 53, 92
1, 24243, Note_on_c, 0, 54, 98
1, 24355, Note_off_c, 0, 54, 98
1, 24375, Note_on_c, 0, 58, 82
1, 24620, Note_off_c, 0, 58, 82
1, 24646, Note_on_c, 0, 58, 95
1, 24873, Note_off_c, 0, 58, 95
1, 25357, Note_on_c, 0, 56, 104
1, 25475, Note_off_c, 0, 56, 104
1, 25510, Note_on_c, 0, 61, 107
1, 25614, Note_off_c, 0, 61, 107
1, 25727, Note_on_c, 0, 61, 100
1, 25939, Note_off_c, 0, 61, 100
1, 25949, Note_on_c, 0, 58, 96
1, 26038, Note_off_c, 0, 58, 96
1, 26055, Note_on_c, 0, 61, 108
1, 26129, Note_off_c, 0, 61, 108
1, 26153, Note_on_c, 0, 63, 110
1, 26262, Note_off_c, 0, 63, 110
1, 26266, Note_on_c, 0, 65, 100
1, 26507, Note_off_c, 0, 65, 100
1, 26510, Note_on_c, 0, 61, 109
1, 26758, Note_off_c, 0, 61, 109
1, 26766, Note_on_c, 0, 60, 106
1, 26913, Note_off_c, 0, 60, 106
1, 26947, Note_on_c, 0, 63, 101
1, 27204, Note_off_c, 0, 63, 101
1, 27206, Note_on_c, 0, 60, 99
1, 27290, Note_off_c, 0, 60, 99
1, 27297, Note_on_c, 0, 61, 103
1, 27463, Note_off_c, 0, 61, 103
1, 27470, Note_on_c, 0, 58, 92
1, 27595, Note_off_c, 0, 58, 92
1, 27604, Note_on_c, 0, 59, 97
1, 27648, Note_off_c, 0, 59, 97
1, 27652, Note_on_c, 0, 60, 97
1, 27831, Note_off_c, 0, 60, 97
1, 27847, Note_on_c, 0, 56, 109
1, 27898, Note_off_c, 0, 56, 109
1, 28027, Note_on_c, 0, 59, 96
1, 28084, Note_off_c, 0, 59, 96
1, 28089, Note_on_c, 0, 60, 91
1, 28213, Note_off_c, 0, 60, 91
1, 28219, Note_on_c, 0, 56, 105
1, 28356, Note_off_c, 0, 56, 105
1, 28401, Note_on_c, 0, 58, 94
1, 28663, Note_off_c, 0, 58, 94
1, 29119, Note_on_c, 0, 53, 103
1, 29208, Note_off_c, 0, 53, 103
1, 29214, Note_on_c, 0, 54, 113
1, 29372, Note_off_c, 0, 54, 113
1, 29380, Note_on_c, 0, 53, 97
1, 29498, Note_off_c, 0, 53, 97
1, 29513, Note_on_c, 0, 56, 93
1, 29793, Note_off_c, 0, 56, 93
1, 29847, Note_on_c, 0, 52, 91
1, 29930, Note_off_c, 0, 52, 91
1, 29943, Note_on_c, 0, 53, 94
1, 30122, Note_off_c, 0, 53, 94
1, 30263, Note_on_c, 0, 51, 90
1, 30583, Note_off_c, 0, 51, 90
1, 30665, Note_on_c, 0, 51, 94
1, 30727, Note_off_c, 0, 51, 94
1, 30740, Note_on_c, 0, 52, 106
1, 30827, Note_off_c, 0, 52, 106
1, 30841, Note_on_c, 0, 53, 102
1, 30914, Note_off_c, 0, 53, 102
1, 30922, Note_on_c, 0, 54, 97
1, 31008, Note_off_c, 0, 54, 97
1, 31026, Note_on_c, 0, 52, 104
1, 31102, Note_off_c, 0, 52, 104
1, 31104, Note_on_c, 0, 53, 91
1, 31201, Note_off_c, 0, 53, 91
1, 31223, Note_on_c, 0, 56, 100
1, 31287, Note_off_c, 0, 56, 100
1, 31310, Note_on_c, 0, 52, 102
1, 31379, Note_off_c, 0, 52, 102
1, 31386, Note_on_c, 0, 53, 86
1, 31442, Note_off_c, 0, 53, 86
1, 31456, Note_on_c, 0, 56, 101
1, 31573, Note_off_c, 0, 56, 101
1, 31604, Note_on_c, 0, 61, 87
1, 31832, Note_off_c, 0, 61, 87
1, 31847, Note_on_c, 0, 56, 90
1, 31927, Note_off_c, 0, 56, 90
1, 32521, Note_on_c, 0, 44, 110
1, 32605, Note_off_c, 0, 44, 110
1, 32785, Note_on_c, 0, 56, 110
1, 33012, Note_off_c, 0, 56, 110
1, 33026, Note_on_c, 0, 52, 99
1, 33078, Note_off_c, 0, 52, 99
1, 33100, Note_on_c, 0, 45, 10
1, 33517, Note_off_c, 0, 45, 10
1, 33572, Note_on_c, 0, 57, 109
1, 33653, Note_off_c, 0, 57, 109
1, 33771, Note_on_c, 0, 46, 106
1, 33875, Note_off_c, 0, 46, 106
1, 34428, Note_on_c, 0, 44, 113
1, 34510, Note_off_c, 0, 44, 113
1, 34618, Note_on_c, 0, 56, 110
1, 34652, Note_off_c, 0, 56, 110
1, 34655, Note_on_c, 0, 53, 106
1, 34683, Note_off_c, 0, 53, 106
1, 34698, Note_on_c, 0, 45, 98
1, 35136, Note_off_c, 0, 45, 98
1, 35254, Note_on_c, 0, 46, 101
1, 35376, Note_off_c, 0, 46, 101
1, 36024, Note_on_c, 0, 63, 118
1, 36133, Note_off_c, 0, 63, 118
1, 36140, Note_on_c, 0, 64, 119
1, 36306, Note_off_c, 0, 64, 119
1, 36312, Note_on_c, 0, 63, 111
1, 36354, Note_off_c, 0, 63, 111
1, 36362, Note_on_c, 0, 65, 110
1, 36584, Note_off_c, 0, 65, 110
1, 36598, Note_on_c, 0, 61, 110
1, 36708, Note_off_c, 0, 61, 110
1, 36712, Note_on_c, 0, 63, 112
1, 36777, Note_off_c, 0, 63, 112
1, 36784, Note_on_c, 0, 61, 110
1, 36899, Note_off_c, 0, 61, 110
1, 36907, Note_on_c, 0, 56, 97
1, 36965, Note_off_c, 0, 56, 97
1, 36982, Note_on_c, 0, 52, 105
1, 37096, Note_off_c, 0, 52, 105
1, 37098, Note_on_c, 0, 53, 97
1, 37161, Note_off_c, 0, 53, 97
1, 37169, Note_on_c, 0, 54, 102
1, 37260, Note_off_c, 0, 54, 102
1, 37285, Note_on_c, 0, 52, 104
1, 37350, Note_off_c, 0, 52, 104
1, 37356, Note_on_c, 0, 53, 100
1, 37466, Note_off_c, 0, 53, 100
1, 37476, Note_on_c, 0, 56, 102
1, 37533, Note_off_c, 0, 56, 102
1, 37550, Note_on_c, 0, 61, 103
1, 37645, Note_off_c, 0, 61, 103
1, 37653, Note_on_c, 0, 63, 108
1, 37716, Note_off_c, 0, 63, 108
1, 37719, Note_on_c, 0, 65, 99
1, 37821, Note_off_c, 0, 65, 99
1, 37824, Note_on_c, 0, 67, 97
1, 37859, Note_off_c, 0, 67, 97
1, 37861, Note_on_c, 0, 65, 95
1, 37907, Note_off_c, 0, 65, 95
1, 37910, Note_on_c, 0, 61, 103
1, 38036, Note_off_c, 0, 61, 103
1, 38041, Note_on_c, 0, 58, 87
1, 38297, Note_off_c, 0, 58, 87
1, 38565, Note_on_c, 0, 46, 108
1, 38643, Note_off_c, 0, 46, 108
1, 38660, Note_on_c, 0, 58, 102
1, 38733, Note_off_c, 0, 58, 102
1, 38766, Note_on_c, 0, 64, 118
1, 38850, Note_off_c, 0, 64, 118
1, 38851, Note_on_c, 0, 58, 99
1, 38906, Note_off_c, 0, 58, 99
1, 38945, Note_on_c, 0, 52, 107
1, 39061, Note_off_c, 0, 52, 107
1, 39130, Note_on_c, 0, 46, 107
1, 39431, Note_off_c, 0, 46, 107
1, 39525, Note_on_c, 0, 52, 111
1, 39603, Note_off_c, 0, 52, 111
1, 39606, Note_on_c, 0, 58, 102
1, 39689, Note_off_c, 0, 58, 102
1, 39710, Note_on_c, 0, 62, 112
1, 39785, Note_off_c, 0, 62, 112
1, 39789, Note_on_c, 0, 58, 106
1, 39895, Note_off_c, 0, 58, 106
1, 39904, Note_on_c, 0, 52, 106
1, 40188, Note_off_c, 0, 52, 106
1, 40568, Note_on_c, 0, 45, 110
1, 40835, Note_off_c, 0, 45, 110
1, 40884, Note_on_c, 0, 51, 106
1, 40949, Note_off_c, 0, 51, 106
1, 40959, Note_on_c, 0, 57, 109
1, 41069, Note_off_c, 0, 57, 109
1, 41070, Note_on_c, 0, 62, 103
1, 41308, Note_off_c, 0, 62, 103
1, 41330, Note_on_c, 0, 60, 105
1, 41435, Note_off_c, 0, 60, 105
1, 41449, Note_on_c, 0, 55, 95
1, 41632, Note_off_c, 0, 55, 95
1, 41643, Note_on_c, 0, 53, 98
1, 41912, Note_off_c, 0, 53, 98
1, 42181, Note_on_c, 0, 62, 114
1, 42222, Note_off_c, 0, 62, 114
1, 42224, Note_on_c, 0, 63, 115
1, 42278, Note_off_c, 0, 63, 115
1, 42282, Note_on_c, 0, 64, 114
1, 42324, Note_off_c, 0, 64, 114
1, 42326, Note_on_c, 0, 65, 118
1, 42360, Note_off_c, 0, 65, 118
1, 42362, Note_on_c, 0, 65, 119
1, 42428, Note_off_c, 0, 65, 119
1, 42436, Note_on_c, 0, 68, 114
1, 42521, Note_off_c, 0, 68, 114
1, 42527, Note_on_c, 0, 71, 114
1, 42604, Note_off_c, 0, 71, 114
1, 42613, Note_on_c, 0, 72, 127
1, 42710, Note_off_c, 0, 72, 127
1, 42817, Note_on_c, 0, 67, 111
1, 43108, Note_off_c, 0, 67, 111
1, 43124, Note_on_c, 0, 65, 112
1, 43170, Note_off_c, 0, 65, 112
1, 43180, Note_on_c, 0, 67, 110
1, 43207, Note_off_c, 0, 67, 110
1, 43209, Note_on_c, 0, 65, 110
1, 43306, Note_off_c, 0, 65, 110
1, 43329, Note_on_c, 0, 60, 111
1, 43388, Note_off_c, 0, 60, 111
1, 43390, Note_on_c, 0, 55, 91
1, 43494, Note_off_c, 0, 55, 91
1, 43517, Note_on_c, 0, 53, 95
1, 43579, Note_off_c, 0, 53, 95
1, 43592, Note_on_c, 0, 59, 113
1, 43658, Note_off_c, 0, 59, 113
1, 43664, Note_on_c, 0, 60, 110
1, 43866, Note_off_c, 0, 60, 110
1, 43877, Note_on_c, 0, 55, 106
1, 43957, Note_off_c, 0, 55, 106
1, 44141, Note_on_c, 0, 73, 114
1, 44206, Note_off_c, 0, 73, 114
1, 44211, Note_on_c, 0, 71, 118
1, 44256, Note_off_c, 0, 71, 118
1, 44263, Note_on_c, 0, 68, 116
1, 44291, Note_off_c, 0, 68, 116
1, 44293, Note_on_c, 0, 67, 116
1, 44327, Note_off_c, 0, 67, 116
1, 44329, Note_on_c, 0, 66, 111
1, 44370, Note_off_c, 0, 66, 111
1, 44375, Note_on_c, 0, 64, 112
1, 44421, Note_off_c, 0, 64, 112
1, 44430, Note_on_c, 0, 61, 111
1, 44466, Note_off_c, 0, 61, 111
1, 44477, Note_on_c, 0, 59, 104
1, 44519, Note_off_c, 0, 59, 104
1, 44526, Note_on_c, 0, 56, 102
1, 44580, Note_off_c, 0, 56, 102
1, 44590, Note_on_c, 0, 54, 102
1, 44660, Note_off_c, 0, 54, 102
1, 44668, Note_on_c, 0, 52, 107
1, 44721, Note_off_c, 0, 52, 107
1, 44726, Note_on_c, 0, 51, 100
1, 45216, Note_off_c, 0, 51, 100
1, 45248, Note_on_c, 0, 51, 102
1, 45284, Note_off_c, 0, 51, 102
1, 45292, Note_on_c, 0, 49, 98
1, 45366, Note_off_c, 0, 49, 98
1, 45461, Note_on_c, 0, 52, 112
1, 45529, Note_off_c, 0, 52, 112
1, 45531, Note_on_c, 0, 53, 111
1, 45630, Note_off_c, 0, 53, 111
1, 46191, Note_on_c, 0, 63, 106
1, 46436, Note_off_c, 0, 63, 106
1, 46463, Note_on_c, 0, 61, 108
1, 46557, Note_off_c, 0, 61, 108
1, 46653, Note_on_c, 0, 63, 113
1, 46797, Note_off_c, 0, 63, 113
1, 46807, Note_on_c, 0, 63, 114
1, 46843, Note_off_c, 0, 63, 114
1, 46852, Note_on_c, 0, 61, 108
1, 46932, Note_off_c, 0, 61, 108
1, 47034, Note_on_c, 0, 64, 111
1, 47160, Note_off_c, 0, 64, 111
1, 47166, Note_on_c, 0, 65, 101
1, 47234, Note_off_c, 0, 65, 101
1, 47241, Note_on_c, 0, 61, 105
1, 47334, Note_off_c, 0, 61, 105
1, 47436, Note_on_c, 0, 64, 110
1, 47499, Note_off_c, 0, 64, 110
1, 47512, Note_on_c, 0, 65, 103
1, 47611, Note_off_c, 0, 65, 103
1, 47628, Note_on_c, 0, 61, 107
1, 47725, Note_off_c, 0, 61, 107
1, 47758, Note_on_c, 0, 64, 106
1, 47863, Note_off_c, 0, 64, 106
1, 47868, Note_on_c, 0, 65, 103
1, 47961, Note_off_c, 0, 65, 103
1, 47961, Note_on_c, 0, 68, 95
1, 48222, Note_off_c, 0, 68, 95
1, 48232, Note_on_c, 0, 65, 98
1, 48338, Note_off_c, 0, 65, 98
1, 48347, Note_on_c, 0, 65, 99
1, 48388, Note_off_c, 0, 65, 99
1, 48390, Note_on_c, 0, 61, 105
1, 48497, Note_off_c, 0, 61, 105
1, 48571, Note_on_c, 0, 64, 109
1, 48694, Note_off_c, 0, 64, 109
1, 48703, Note_on_c, 0, 66, 93
1, 48722, Note_off_c, 0, 66, 93
1, 48728, Note_on_c, 0, 64, 96
1, 48764, Note_off_c, 0, 64, 96
1, 48769, Note_on_c, 0, 61, 105
1, 48892, Note_off_c, 0, 61, 105
1, 48904, Note_on_c, 0, 63, 111
1, 48979, Note_off_c, 0, 63, 111
1, 48982, Note_on_c, 0, 61, 103
1, 49091, Note_off_c, 0, 61, 103
1, 49108, Note_on_c, 0, 56, 98
1, 49175, Note_off_c, 0, 56, 98
1, 49190, Note_on_c, 0, 52, 100
1, 49277, Note_off_c, 0, 52, 100
1, 49288, Note_on_c, 0, 53, 93
1, 49341, Note_off_c, 0, 53, 93
1, 49370, Note_on_c, 0, 56, 104
1, 49476, Note_off_c, 0, 56, 104
1, 49488, Note_on_c, 0, 61, 82
1, 49637, Note_off_c, 0, 61, 82
1, 49668, Note_on_c, 0, 61, 89
1, 49894, Note_off_c, 0, 61, 89
1, 50056, Note_on_c, 0, 61, 93
1, 50301, Note_off_c, 0, 61, 93
1, 50325, Note_on_c, 0, 58, 87
1, 50409, Note_off_c, 0, 58, 87
1, 50429, Note_on_c, 0, 61, 104
1, 50482, Note_off_c, 0, 61, 104
1, 50512, Note_on_c, 0, 65, 97
1, 50587, Note_off_c, 0, 65, 97
1, 50608, Note_on_c, 0, 61, 97
1, 50671, Note_off_c, 0, 61, 97
1, 50681, Note_on_c, 0, 58, 89
1, 50789, Note_off_c, 0, 58, 89
1, 50863, Note_on_c, 0, 56, 96
1, 51079, Note_off_c, 0, 56, 96
1, 51079, End_track
0, 0, End_of_file
