0, 0, Header, 1, 1, 840
1, 0, Start_track
1, 0, Title_t, "Melody"
1, 0, Tempo, 750000
1, 0, Key_signature, -5, "major"
1, 0, Time_signature, 4, 2, 24, 8
1, 5831, Note_on_c, 0, 51, 119
1, 6149, Note_off_c, 0, 51, 119
1, 6149, Note_on_c, 0, 53, 112
1, 6324, Note_off_c, 0, 53, 112
1, 6330, Note_on_c, 0, 51, 115
1, 6583, Note_off_c, 0, 51, 115
1, 6583, Note_on_c, 0, 53, 109
1, 7161, Note_off_c, 0, 53, 109
1, 7161, Note_on_c, 0, 53, 100
1, 7362, Note_off_c, 0, 53, 100
1, 7492, Note_on_c, 0, 50, 110
1, 7641, Note_off_c, 0, 50, 110
1, 7641, Note_on_c, 0, 51, 112
1, 7901, Note_off_c, 0, 51, 112
1, 7907, Note_on_c, 0, 54, 113
1, 8167, Note_off_c, 0, 54, 113
1, 8290, Note_on_c, 0, 58, 111
1, 8647, Note_off_c, 0, 58, 111
1, 8647, Note_on_c, 0, 58, 108
1, 8998, Note_off_c, 0, 58, 108
1, 8998, Note_on_c, 0, 58, 95
1, 9680, Note_off_c, 0, 58, 95
1, 10577, Note_on_c, 0, 57, 106
1, 11123, Note_off_c, 0, 57, 106
1, 11220, Note_on_c, 0, 53, 112
1, 11525, Note_off_c, 0, 53, 112
1, 11525, Note_on_c, 0, 56, 107
1, 11986, Note_off_c, 0, 56, 107
1, 11986, Note_on_c, 0, 56, 109
1, 12252, Note_off_c, 0, 56, 109
1, 12252, Note_on_c, 0, 53, 114
1, 12557, Note_off_c, 0, 53, 114
1, 12557, Note_on_c, 0, 56, 116
1, 12732, Note_off_c, 0, 56, 116
1, 12732, Note_on_c, 0, 60, 121
1, 13050, Note_off_c, 0, 60, 121
1, 13069, Note_on_c, 0, 63, 95
1, 14356, Note_off_c, 0, 63, 95
1, 15415, Note_on_c, 0, 60, 120
1, 15753, Note_off_c, 0, 60, 120
1, 15753, Note_on_c, 0, 61, 119
1, 16065, Note_off_c, 0, 61, 119
1, 16071, Note_on_c, 0, 63, 103
1, 16773, Note_off_c, 0, 63, 103
1, 16773, Note_on_c, 0, 60, 117
1, 17078, Note_off_c, 0, 60, 117
1, 17109, Note_on_c, 0, 58, 93
1, 17401, Note_off_c, 0, 58, 93
1, 17525, Note_on_c, 0, 60, 118
1, 17908, Note_off_c, 0, 60, 118
1, 17933, Note_on_c, 0, 61, 108
1, 18420, Note_off_c, 0, 61, 108
1, 18420, Note_on_c, 0, 61, 101
1, 18733, Note_off_c, 0, 61, 101
1, 18733, Note_on_c, 0, 58, 86
1, 18998, Note_off_c, 0, 58, 86
1, 18998, Note_on_c, 0, 54, 96
1, 19251, Note_off_c, 0, 54, 96
1, 19290, Note_on_c, 0, 51, 101
1, 19600, Note_off_c, 0, 51, 101
1, 19600, Note_on_c, 0, 46, 96
1, 20989, Note_off_c, 0, 46, 96
1, 21199, Note_on_c, 0, 53, 90
1, 21582, Note_on_c, 0, 53, 86
1, 21582, Note_off_c, 0, 53, 90
1, 22141, Note_off_c, 0, 53, 86
1, 23051, Note_on_c, 0, 53, 104
1, 23278, Note_off_c, 0, 53, 104
1, 23278, Note_on_c, 0, 54, 116
1, 23519, Note_off_c, 0, 54, 116
1, 23519, Note_on_c, 0, 57, 96
1, 23656, Note_off_c, 0, 57, 96
1, 23687, Note_on_c, 0, 60, 120
1, 24012, Note_off_c, 0, 60, 120
1, 24012, Note_on_c, 0, 63, 103
1, 24337, Note_off_c, 0, 63, 103
1, 24377, Note_on_c, 0, 65, 79
1, 25254, Note_off_c, 0, 65, 79
1, 25362, Note_on_c, 0, 61, 105
1, 25563, Note_off_c, 0, 61, 105
1, 25595, Note_on_c, 0, 58, 93
1, 25764, Note_off_c, 0, 58, 93
1, 25803, Note_on_c, 0, 53, 88
1, 25991, Note_off_c, 0, 53, 88
1, 26062, Note_on_c, 0, 49, 79
1, 26179, Note_off_c, 0, 49, 79
1, 26237, Note_on_c, 0, 51, 97
1, 26516, Note_off_c, 0, 51, 97
1, 26581, Note_on_c, 0, 53, 95
1, 27094, Note_off_c, 0, 53, 95
1, 27094, Note_on_c, 0, 54, 97
1, 27263, Note_off_c, 0, 54, 97
1, 27282, Note_on_c, 0, 56, 89
1, 27815, Note_off_c, 0, 56, 89
1, 27828, Note_on_c, 0, 51, 100
1, 28101, Note_off_c, 0, 51, 100
1, 28159, Note_on_c, 0, 49, 82
1, 28763, Note_off_c, 0, 49, 82
1, 29406, Note_on_c, 0, 55, 112
1, 29510, Note_off_c, 0, 55, 112
1, 29510, Note_on_c, 0, 56, 111
1, 29744, Note_off_c, 0, 56, 111
1, 29754, Note_on_c, 0, 53, 96
1, 29836, Note_off_c, 0, 53, 96
1, 29836, Note_on_c, 0, 50, 91
1, 29906, Note_off_c, 0, 50, 91
1, 29906, Note_on_c, 0, 48, 92
1, 30016, Note_off_c, 0, 48, 92
1, 30055, Note_on_c, 0, 47, 101
1, 30516, Note_off_c, 0, 47, 101
1, 30574, Note_on_c, 0, 46, 97
1, 31904, Note_off_c, 0, 46, 97
1, 31904, Note_on_c, 0, 46, 97
1, 31936, Note_off_c, 0, 46, 97
1, 31990, Note_on_c, 0, 53, 83
1, 33443, Note_off_c, 0, 53, 83
1, 34437, Note_on_c, 0, 50, 101
1, 34619, Note_on_c, 0, 51, 110
1, 34619, Note_off_c, 0, 50, 101
1, 34836, Note_off_c, 0, 51, 110
1, 34836, Note_on_c, 0, 54, 115
1, 35037, Note_off_c, 0, 54, 115
1, 35059, Note_on_c, 0, 58, 98
1, 35255, Note_off_c, 0, 58, 98
1, 35279, Note_on_c, 0, 61, 119
1, 35545, Note_off_c, 0, 61, 119
1, 35545, Note_on_c, 0, 61, 112
1, 35857, Note_off_c, 0, 61, 112
1, 35857, Note_on_c, 0, 61, 112
1, 35902, Note_off_c, 0, 61, 112
1, 35908, Note_on_c, 0, 61, 106
1, 36555, Note_off_c, 0, 61, 106
1, 36555, Note_on_c, 0, 58, 90
1, 36929, Note_off_c, 0, 58, 90
1, 36956, Note_on_c, 0, 57, 80
1, 37042, Note_off_c, 0, 57, 80
1, 37062, Note_on_c, 0, 60, 117
1, 37393, Note_off_c, 0, 60, 117
1, 37393, Note_on_c, 0, 56, 94
1, 37809, Note_off_c, 0, 56, 94
1, 37815, Note_on_c, 0, 60, 98
1, 38445, Note_off_c, 0, 60, 98
1, 38445, Note_on_c, 0, 60, 101
1, 38685, Note_off_c, 0, 60, 101
1, 38685, Note_on_c, 0, 56, 101
1, 39114, Note_off_c, 0, 56, 101
1, 39185, Note_on_c, 0, 53, 95
1, 39440, Note_off_c, 0, 53, 95
1, 39440, Note_on_c, 0, 58, 85
1, 40295, Note_off_c, 0, 58, 85
1, 40295, Note_on_c, 0, 58, 79
1, 40321, Note_off_c, 0, 58, 79
1, 42092, Note_on_c, 0, 64, 118
1, 42209, Note_off_c, 0, 64, 118
1, 42233, Note_on_c, 0, 65, 116
1, 42470, Note_off_c, 0, 65, 116
1, 42479, Note_on_c, 0, 67, 105
1, 42529, Note_off_c, 0, 67, 105
1, 42542, Note_on_c, 0, 65, 107
1, 42601, Note_off_c, 0, 65, 107
1, 42605, Note_on_c, 0, 60, 117
1, 42923, Note_off_c, 0, 60, 117
1, 43029, Note_on_c, 0, 63, 108
1, 43555, Note_off_c, 0, 63, 108
1, 43572, Note_on_c, 0, 58, 83
1, 43828, Note_off_c, 0, 58, 83
1, 43942, Note_on_c, 0, 60, 115
1, 44312, Note_off_c, 0, 60, 115
1, 44329, Note_on_c, 0, 61, 110
1, 44690, Note_off_c, 0, 61, 110
1, 44690, Note_on_c, 0, 58, 77
1, 45448, Note_off_c, 0, 58, 77
1, 45621, Note_on_c, 0, 50, 91
1, 45904, Note_off_c, 0, 50, 91
1, 45935, Note_on_c, 0, 51, 101
1, 46081, Note_off_c, 0, 51, 101
1, 46195, Note_on_c, 0, 52, 95
1, 46432, Note_off_c, 0, 52, 95
1, 46482, Note_on_c, 0, 53, 98
1, 46651, Note_off_c, 0, 53, 98
1, 46692, Note_on_c, 0, 54, 99
1, 46984, Note_off_c, 0, 54, 99
1, 47075, Note_on_c, 0, 58, 83
1, 47536, Note_off_c, 0, 58, 83
1, 47600, Note_on_c, 0, 54, 100
1, 47805, Note_off_c, 0, 54, 100
1, 47919, Note_on_c, 0, 51, 91
1, 48097, Note_off_c, 0, 51, 91
1, 48097, Note_on_c, 0, 53, 82
1, 49157, Note_off_c, 0, 53, 82
1, 50048, Note_on_c, 0, 53, 107
1, 50226, Note_off_c, 0, 53, 107
1, 50226, Note_on_c, 0, 54, 111
1, 50460, Note_off_c, 0, 54, 111
1, 50468, Note_on_c, 0, 56, 102
1, 50559, Note_off_c, 0, 56, 102
1, 50563, Note_on_c, 0, 60, 120
1, 50881, Note_off_c, 0, 60, 120
1, 50918, Note_on_c, 0, 64, 112
1, 51000, Note_off_c, 0, 64, 112
1, 51000, Note_on_c, 0, 65, 100
1, 51498, Note_off_c, 0, 65, 100
1, 51498, Note_on_c, 0, 61, 104
1, 52147, Note_off_c, 0, 61, 104
1, 52188, Note_on_c, 0, 58, 86
1, 52375, Note_off_c, 0, 58, 86
1, 52397, Note_on_c, 0, 53, 94
1, 52631, Note_off_c, 0, 53, 94
1, 52730, Note_on_c, 0, 49, 78
1, 53178, Note_off_c, 0, 49, 78
1, 53219, Note_on_c, 0, 51, 93
1, 53447, Note_off_c, 0, 51, 93
1, 53483, Note_on_c, 0, 53, 92
1, 53739, Note_off_c, 0, 53, 92
1, 53766, Note_on_c, 0, 54, 92
1, 54012, Note_off_c, 0, 54, 92
1, 54012, Note_on_c, 0, 57, 77
1, 54752, Note_off_c, 0, 57, 77
1, 54921, Note_on_c, 0, 56, 99
1, 55207, Note_off_c, 0, 56, 99
1, 55272, Note_on_c, 0, 53, 91
1, 55550, Note_on_c, 0, 56, 98
1, 55550, Note_off_c, 0, 53, 91
1, 55764, Note_off_c, 0, 56, 98
1, 55768, Note_on_c, 0, 61, 111
1, 56069, Note_off_c, 0, 61, 111
1, 56114, Note_on_c, 0, 61, 110
1, 56342, Note_off_c, 0, 61, 110
1, 56387, Note_on_c, 0, 61, 108
1, 56597, Note_off_c, 0, 61, 108
1, 56743, Note_on_c, 0, 57, 94
1, 56970, Note_off_c, 0, 57, 94
1, 57028, Note_on_c, 0, 59, 87
1, 57476, Note_off_c, 0, 59, 87
1, 57599, Note_on_c, 0, 57, 87
1, 57807, Note_off_c, 0, 57, 87
1, 57839, Note_on_c, 0, 59, 86
1, 58151, Note_off_c, 0, 59, 86
1, 58440, Note_on_c, 0, 50, 85
1, 58947, Note_off_c, 0, 50, 85
1, 59012, Note_on_c, 0, 52, 93
1, 59233, Note_off_c, 0, 52, 93
1, 59233, Note_on_c, 0, 54, 99
1, 59499, Note_off_c, 0, 54, 99
1, 59503, Note_on_c, 0, 57, 77
1, 60608, Note_off_c, 0, 57, 77
1, 61780, Note_on_c, 0, 57, 116
1, 61845, Note_off_c, 0, 57, 116
1, 61845, Note_on_c, 0, 59, 108
1, 62306, Note_off_c, 0, 59, 108
1, 62306, Note_on_c, 0, 57, 103
1, 62598, Note_off_c, 0, 57, 103
1, 62689, Note_on_c, 0, 62, 123
1, 62988, Note_off_c, 0, 62, 123
1, 63014, Note_on_c, 0, 64, 115
1, 63332, Note_off_c, 0, 64, 115
1, 63332, Note_on_c, 0, 64, 114
1, 63533, Note_off_c, 0, 64, 114
1, 63533, Note_on_c, 0, 62, 119
1, 63845, Note_off_c, 0, 62, 119
1, 63851, Note_on_c, 0, 58, 92
1, 64332, Note_off_c, 0, 58, 92
1, 64431, Note_on_c, 0, 50, 103
1, 64682, Note_off_c, 0, 50, 103
1, 64736, Note_on_c, 0, 52, 86
1, 65828, Note_off_c, 0, 52, 86
1, 66019, Note_on_c, 0, 50, 97
1, 66329, Note_off_c, 0, 50, 97
1, 66369, Note_on_c, 0, 53, 102
1, 66531, Note_off_c, 0, 53, 102
1, 66531, Note_on_c, 0, 54, 111
1, 66765, Note_off_c, 0, 54, 111
1, 66907, Note_on_c, 0, 55, 9
1, 67191, Note_off_c, 0, 55, 9
1, 67191, Note_on_c, 0, 58, 90
1, 67932, Note_off_c, 0, 58, 90
1, 68580, Note_on_c, 0, 60, 115
1, 68911, Note_off_c, 0, 60, 115
1, 68945, Note_on_c, 0, 52, 99
1, 69413, Note_off_c, 0, 52, 99
1, 69466, Note_on_c, 0, 49, 93
1, 70031, Note_off_c, 0, 49, 93
1, 70068, Note_on_c, 0, 50, 95
1, 70351, Note_off_c, 0, 50, 95
1, 72910, Note_on_c, 0, 50, 111
1, 73118, Note_off_c, 0, 50, 111
1, 73137, Note_on_c, 0, 53, 117
1, 73384, Note_off_c, 0, 53, 117
1, 73384, Note_on_c, 0, 57, 110
1, 73559, Note_off_c, 0, 57, 110
1, 73559, Note_on_c, 0, 60, 123
1, 73728, Note_off_c, 0, 60, 123
1, 73728, Note_on_c, 0, 59, 115
1, 74027, Note_off_c, 0, 59, 115
1, 74033, Note_on_c, 0, 55, 89
1, 75203, Note_off_c, 0, 55, 89
1, 76249, Note_on_c, 0, 52, 110
1, 76496, Note_off_c, 0, 52, 110
1, 76528, Note_on_c, 0, 55, 109
1, 76638, Note_off_c, 0, 55, 109
1, 76657, Note_on_c, 0, 59, 113
1, 76904, Note_off_c, 0, 59, 113
1, 76917, Note_on_c, 0, 62, 110
1, 77788, Note_off_c, 0, 62, 110
1, 77963, Note_on_c, 0, 61, 116
1, 78294, Note_off_c, 0, 61, 116
1, 78463, Note_on_c, 0, 60, 118
1, 78716, Note_off_c, 0, 60, 118
1, 78852, Note_on_c, 0, 57, 92
1, 79326, Note_off_c, 0, 57, 92
1, 79430, Note_on_c, 0, 50, 98
1, 79654, Note_off_c, 0, 50, 98
1, 79695, Note_on_c, 0, 53, 97
1, 79950, Note_off_c, 0, 53, 97
1, 79950, Note_on_c, 0, 57, 95
1, 80027, Note_off_c, 0, 57, 95
1, 80071, Note_on_c, 0, 60, 104
1, 80324, Note_off_c, 0, 60, 104
1, 80327, Note_on_c, 0, 57, 93
1, 80432, Note_off_c, 0, 57, 93
1, 80485, Note_on_c, 0, 59, 101
1, 80784, Note_off_c, 0, 59, 101
1, 80790, Note_on_c, 0, 55, 93
1, 81238, Note_off_c, 0, 55, 93
1, 82277, Note_on_c, 0, 52, 110
1, 82523, Note_off_c, 0, 52, 110
1, 82523, Note_on_c, 0, 48, 101
1, 82728, Note_off_c, 0, 48, 101
1, 82769, Note_on_c, 0, 52, 107
1, 82990, Note_off_c, 0, 52, 107
1, 83010, Note_on_c, 0, 55, 105
1, 83197, Note_off_c, 0, 55, 105
1, 83197, Note_on_c, 0, 51, 111
1, 83444, Note_off_c, 0, 51, 111
1, 83471, Note_on_c, 0, 48, 98
1, 83621, Note_off_c, 0, 48, 98
1, 83648, Note_on_c, 0, 51, 106
1, 83888, Note_off_c, 0, 51, 106
1, 83897, Note_on_c, 0, 55, 102
1, 84085, Note_off_c, 0, 55, 102
1, 84094, Note_on_c, 0, 50, 93
1, 84670, Note_off_c, 0, 50, 93
1, 84728, Note_on_c, 0, 55, 99
1, 84975, Note_off_c, 0, 55, 99
1, 85030, Note_on_c, 0, 49, 93
1, 85139, Note_off_c, 0, 49, 93
1, 85170, Note_on_c, 0, 53, 95
1, 85672, Note_off_c, 0, 53, 95
1, 85836, Note_on_c, 0, 51, 97
1, 86531, Note_off_c, 0, 51, 97
1, 87497, Note_on_c, 0, 46, 106
1, 87750, Note_off_c, 0, 46, 106
1, 87750, Note_on_c, 0, 51, 108
1, 87964, Note_off_c, 0, 51, 108
1, 87964, Note_on_c, 0, 53, 114
1, 88172, Note_off_c, 0, 53, 114
1, 88172, Note_on_c, 0, 54, 115
1, 88411, Note_off_c, 0, 54, 115
1, 88411, Note_on_c, 0, 58, 102
1, 88619, Note_off_c, 0, 58, 102
1, 88619, Note_on_c, 0, 54, 114
1, 88827, Note_off_c, 0, 54, 114
1, 88827, Note_on_c, 0, 53, 109
1, 89074, Note_off_c, 0, 53, 109
1, 89074, Note_on_c, 0, 51, 107
1, 89321, Note_off_c, 0, 51, 107
1, 89351, Note_on_c, 0, 46, 104
1, 90202, Note_off_c, 0, 46, 104
1, 90218, Note_on_c, 0, 51, 98
1, 90286, Note_off_c, 0, 51, 98
1, 90313, Note_on_c, 0, 53, 95
1, 91113, Note_off_c, 0, 53, 95
1, 91250, Note_on_c, 0, 52, 93
1, 91963, Note_off_c, 0, 52, 93
1, 92058, Note_on_c, 0, 48, 86
1, 93027, Note_off_c, 0, 48, 86
1, 93817, Note_on_c, 0, 48, 107
1, 94005, Note_off_c, 0, 48, 107
1, 94028, Note_on_c, 0, 49, 104
1, 94216, Note_off_c, 0, 49, 104
1, 94216, Note_on_c, 0, 53, 106
1, 94489, Note_off_c, 0, 53, 106
1, 94489, Note_on_c, 0, 56, 111
1, 94729, Note_off_c, 0, 56, 111
1, 94729, Note_on_c, 0, 58, 106
1, 94788, Note_off_c, 0, 58, 106
1, 94793, Note_on_c, 0, 60, 104
1, 95592, Note_off_c, 0, 60, 104
1, 95614, Note_on_c, 0, 58, 95
1, 95991, Note_off_c, 0, 58, 95
1, 95997, Note_on_c, 0, 56, 102
1, 96289, Note_off_c, 0, 56, 102
1, 96439, Note_on_c, 0, 62, 112
1, 96536, Note_off_c, 0, 62, 112
1, 96570, Note_on_c, 0, 63, 97
1, 97720, Note_off_c, 0, 63, 97
1, 97758, Note_on_c, 0, 60, 117
1, 98154, Note_off_c, 0, 60, 117
1, 98205, Note_on_c, 0, 61, 103
1, 98965, Note_off_c, 0, 61, 103
1, 98980, Note_on_c, 0, 58, 85
1, 99647, Note_off_c, 0, 58, 85
1, 100675, Note_on_c, 0, 50, 104
1, 100902, Note_off_c, 0, 50, 104
1, 100939, Note_on_c, 0, 51, 113
1, 101114, Note_off_c, 0, 51, 113
1, 101114, Note_on_c, 0, 54, 116
1, 101340, Note_off_c, 0, 54, 116
1, 101340, Note_on_c, 0, 58, 99
1, 101476, Note_off_c, 0, 58, 99
1, 101504, Note_on_c, 0, 61, 127
1, 101819, Note_off_c, 0, 61, 127
1, 101819, Note_on_c, 0, 63, 118
1, 102118, Note_off_c, 0, 63, 118
1, 102161, Note_on_c, 0, 61, 122
1, 102316, Note_off_c, 0, 61, 122
1, 102316, Note_on_c, 0, 58, 100
1, 102511, Note_off_c, 0, 58, 100
1, 102590, Note_on_c, 0, 54, 101
1, 102736, Note_off_c, 0, 54, 101
1, 102781, Note_on_c, 0, 51, 94
1, 102986, Note_off_c, 0, 51, 94
1, 103013, Note_on_c, 0, 48, 89
1, 103131, Note_off_c, 0, 48, 89
1, 103176, Note_on_c, 0, 53, 80
1, 104254, Note_off_c, 0, 53, 80
1, 104834, Note_on_c, 0, 56, 103
1, 104957, Note_off_c, 0, 56, 103
1, 105057, Note_on_c, 0, 57, 99
1, 105212, Note_off_c, 0, 57, 99
1, 105212, Note_on_c, 0, 56, 103
1, 105349, Note_off_c, 0, 56, 103
1, 105349, Note_on_c, 0, 63, 109
1, 106523, Note_off_c, 0, 63, 109
1, 106623, Note_on_c, 0, 61, 112
1, 107019, Note_off_c, 0, 61, 112
1, 107020, Note_on_c, 0, 58, 97
1, 107198, Note_off_c, 0, 58, 97
1, 107262, Note_on_c, 0, 53, 97
1, 107527, Note_off_c, 0, 53, 97
1, 107536, Note_on_c, 0, 51, 107
1, 107773, Note_off_c, 0, 51, 107
1, 107795, Note_on_c, 0, 49, 89
1, 108206, Note_off_c, 0, 49, 89
1, 108394, Note_on_c, 0, 52, 104
1, 108725, Note_off_c, 0, 52, 104
1, 108767, Note_on_c, 0, 56, 112
1, 109045, Note_off_c, 0, 56, 112
1, 109045, Note_on_c, 0, 52, 102
1, 109195, Note_off_c, 0, 52, 102
1, 109288, Note_on_c, 0, 51, 108
1, 109528, Note_off_c, 0, 51, 108
1, 109528, Note_on_c, 0, 49, 88
1, 109934, Note_off_c, 0, 49, 88
1, 110079, Note_on_c, 0, 53, 91
1, 110560, Note_off_c, 0, 53, 91
1, 110947, Note_on_c, 0, 56, 116
1, 111174, Note_off_c, 0, 56, 116
1, 111182, Note_on_c, 0, 55, 109
1, 111396, Note_off_c, 0, 55, 109
1, 111396, Note_on_c, 0, 54, 108
1, 111597, Note_on_c, 0, 53, 104
1, 111597, Note_off_c, 0, 54, 108
1, 111849, Note_off_c, 0, 53, 104
1, 111849, Note_on_c, 0, 51, 106
1, 112057, Note_off_c, 0, 51, 106
1, 112072, Note_on_c, 0, 50, 102
1, 112213, Note_off_c, 0, 50, 102
1, 112263, Note_on_c, 0, 48, 88
1, 112496, Note_off_c, 0, 48, 88
1, 112651, Note_on_c, 0, 50, 92
1, 113263, Note_off_c, 0, 50, 92
1, 113309, Note_on_c, 0, 48, 105
1, 113458, Note_off_c, 0, 48, 105
1, 113481, Note_on_c, 0, 46, 101
1, 114546, Note_off_c, 0, 46, 101
1, 114546, End_track
0, 0, End_of_file
