0, 0, Header, 1, 1, 420
1, 0, Start_track
1, 0, Title_t, "Melody"
1, 0, Tempo, 397350
1, 0, Key_signature, -2, "major"
1, 0, Time_signature, 4, 2, 24, 8
1, 1298, Note_on_c, 0, 53, 79
1, 1530, Note_off_c, 0, 53, 79
1, 1581, Note_on_c, 0, 55, 87
1, 1712, Note_off_c, 0, 55, 87
1, 1757, Note_on_c, 0, 58, 88
1, 2071, Note_off_c, 0, 58, 88
1, 3919, Note_on_c, 0, 52, 89
1, 3988, Note_off_c, 0, 52, 89
1, 4007, Note_on_c, 0, 55, 103
1, 4121, Note_off_c, 0, 55, 103
1, 4140, Note_on_c, 0, 58, 110
1, 4247, Note_off_c, 0, 58, 110
1, 4255, Note_on_c, 0, 61, 112
1, 4509, Note_off_c, 0, 61, 112
1, 4537, Note_on_c, 0, 62, 82
1, 4817, Note_off_c, 0, 62, 82
1, 4842, Note_on_c, 0, 61, 82
1, 4898, Note_off_c, 0, 61, 82
1, 4923, Note_on_c, 0, 62, 84
1, 5022, Note_off_c, 0, 62, 84
1, 5034, Note_on_c, 0, 58, 100
1, 5295, Note_off_c, 0, 58, 100
1, 5301, Note_on_c, 0, 53, 100
1, 5484, Note_off_c, 0, 53, 100
1, 5570, Note_on_c, 0, 49, 80
1, 5738, Note_off_c, 0, 49, 80
1, 5779, Note_on_c, 0, 50, 83
1, 5852, Note_off_c, 0, 50, 83
1, 5902, Note_on_c, 0, 53, 95
1, 6126, Note_off_c, 0, 53, 95
1, 6175, Note_on_c, 0, 58, 90
1, 6539, Note_off_c, 0, 58, 90
1, 7857, Note_on_c, 0, 54, 87
1, 7945, Note_off_c, 0, 54, 87
1, 7983, Note_on_c, 0, 55, 110
1, 8231, Note_off_c, 0, 55, 110
1, 8295, Note_on_c, 0, 58, 101
1, 8409, Note_off_c, 0, 58, 101
1, 8421, Note_on_c, 0, 61, 117
1, 8671, Note_off_c, 0, 61, 117
1, 8694, Note_on_c, 0, 63, 118
1, 8870, Note_off_c, 0, 63, 118
1, 8894, Note_on_c, 0, 65, 99
1, 9081, Note_off_c, 0, 65, 99
1, 9091, Note_on_c, 0, 66, 85
1, 9137, Note_off_c, 0, 66, 85
1, 9149, Note_on_c, 0, 65, 106
1, 9239, Note_off_c, 0, 65, 106
1, 9246, Note_on_c, 0, 63, 115
1, 9529, Note_off_c, 0, 63, 115
1, 9552, Note_on_c, 0, 58, 90
1, 9674, Note_off_c, 0, 58, 90
1, 9680, Note_on_c, 0, 61, 103
1, 9957, Note_off_c, 0, 61, 103
1, 10164, Note_on_c, 0, 63, 95
1, 10562, Note_off_c, 0, 63, 95
1, 10847, Note_on_c, 0, 63, 121
1, 10940, Note_off_c, 0, 63, 121
1, 10948, Note_on_c, 0, 64, 102
1, 11125, Note_off_c, 0, 64, 102
1, 11154, Note_on_c, 0, 65, 85
1, 11639, Note_off_c, 0, 65, 85
1, 11656, Note_on_c, 0, 63, 106
1, 11835, Note_off_c, 0, 63, 106
1, 11870, Note_on_c, 0, 61, 97
1, 12156, Note_off_c, 0, 61, 97
1, 12185, Note_on_c, 0, 62, 84
1, 12522, Note_off_c, 0, 62, 84
1, 12552, Note_on_c, 0, 58, 94
1, 12651, Note_off_c, 0, 58, 94
1, 12702, Note_on_c, 0, 53, 86
1, 13065, Note_off_c, 0, 53, 86
1, 13989, Note_on_c, 0, 69, 124
1, 14222, Note_off_c, 0, 69, 124
1, 14235, Note_on_c, 0, 65, 125
1, 14373, Note_off_c, 0, 65, 125
1, 14394, Note_on_c, 0, 62, 118
1, 14611, Note_off_c, 0, 62, 118
1, 14638, Note_on_c, 0, 68, 95
1, 14760, Note_off_c, 0, 68, 95
1, 14790, Note_on_c, 0, 56, 95
1, 15084, Note_off_c, 0, 56, 95
1, 15114, Note_on_c, 0, 55, 87
1, 15520, Note_off_c, 0, 55, 87
1, 15541, Note_on_c, 0, 63, 85
1, 16148, Note_off_c, 0, 63, 85
1, 16346, Note_on_c, 0, 55, 93
1, 16509, Note_off_c, 0, 55, 93
1, 16542, Note_on_c, 0, 54, 100
1, 16766, Note_off_c, 0, 54, 100
1, 16826, Note_on_c, 0, 52, 90
1, 17075, Note_off_c, 0, 52, 90
1, 17091, Note_on_c, 0, 53, 84
1, 17177, Note_off_c, 0, 53, 84
1, 17217, Note_on_c, 0, 50, 75
1, 17332, Note_off_c, 0, 50, 75
1, 17358, Note_on_c, 0, 51, 88
1, 17661, Note_off_c, 0, 51, 88
1, 17675, Note_on_c, 0, 50, 83
1, 17790, Note_off_c, 0, 50, 83
1, 17818, Note_on_c, 0, 51, 96
1, 18009, Note_off_c, 0, 51, 96
1, 18075, Note_on_c, 0, 53, 101
1, 18147, Note_off_c, 0, 53, 101
1, 18148, Note_on_c, 0, 54, 94
1, 18454, Note_off_c, 0, 54, 94
1, 18662, Note_on_c, 0, 53, 97
1, 18907, Note_off_c, 0, 53, 97
1, 18933, Note_on_c, 0, 56, 104
1, 19002, Note_off_c, 0, 56, 104
1, 19034, Note_on_c, 0, 58, 87
1, 20155, Note_off_c, 0, 58, 87
1, 20182, Note_on_c, 0, 55, 81
1, 20272, Note_off_c, 0, 55, 81
1, 20305, Note_on_c, 0, 53, 96
1, 20588, Note_off_c, 0, 53, 96
1, 20617, Note_on_c, 0, 58, 107
1, 20748, Note_off_c, 0, 58, 107
1, 20774, Note_on_c, 0, 55, 80
1, 21148, Note_off_c, 0, 55, 80
1, 21864, Note_on_c, 0, 53, 108
1, 21945, Note_off_c, 0, 53, 108
1, 21950, Note_on_c, 0, 55, 114
1, 22074, Note_off_c, 0, 55, 114
1, 22082, Note_on_c, 0, 58, 115
1, 22196, Note_off_c, 0, 58, 115
1, 22204, Note_on_c, 0, 61, 115
1, 22414, Note_off_c, 0, 61, 115
1, 22428, Note_on_c, 0, 62, 111
1, 22518, Note_off_c, 0, 62, 111
1, 24216, Note_on_c, 0, 53, 94
1, 24323, Note_off_c, 0, 53, 94
1, 24334, Note_on_c, 0, 55, 97
1, 24457, Note_off_c, 0, 55, 97
1, 24470, Note_on_c, 0, 58, 111
1, 24552, Note_off_c, 0, 58, 111
1, 24562, Note_on_c, 0, 61, 118
1, 24943, Note_off_c, 0, 61, 118
1, 24946, Note_on_c, 0, 61, 116
1, 25270, Note_off_c, 0, 61, 116
1, 25272, Note_on_c, 0, 61, 119
1, 25518, Note_off_c, 0, 61, 119
1, 25532, Note_on_c, 0, 60, 114
1, 25863, Note_off_c, 0, 60, 114
1, 25874, Note_on_c, 0, 60, 97
1, 26559, Note_off_c, 0, 60, 97
1, 26564, Note_on_c, 0, 58, 100
1, 26672, Note_off_c, 0, 58, 100
1, 26709, Note_on_c, 0, 56, 99
1, 26932, Note_off_c, 0, 56, 99
1, 26966, Note_on_c, 0, 58, 99
1, 27029, Note_off_c, 0, 58, 99
1, 27048, Note_on_c, 0, 60, 91
1, 27460, Note_off_c, 0, 60, 91
1, 27483, Note_on_c, 0, 55, 90
1, 27723, Note_off_c, 0, 55, 90
1, 27907, Note_on_c, 0, 58, 87
1, 28313, Note_off_c, 0, 58, 87
1, 28853, Note_on_c, 0, 53, 88
1, 28912, Note_off_c, 0, 53, 88
1, 28938, Note_on_c, 0, 54, 89
1, 29006, Note_off_c, 0, 54, 89
1, 29017, Note_on_c, 0, 53, 93
1, 29089, Note_off_c, 0, 53, 93
1, 29137, Note_on_c, 0, 51, 95
1, 29197, Note_off_c, 0, 51, 95
1, 29214, Note_on_c, 0, 53, 91
1, 29591, Note_off_c, 0, 53, 91
1, 29895, Note_on_c, 0, 51, 88
1, 30050, Note_off_c, 0, 51, 88
1, 30066, Note_on_c, 0, 53, 90
1, 30138, Note_off_c, 0, 53, 90
1, 30144, Note_on_c, 0, 55, 86
1, 30226, Note_off_c, 0, 55, 86
1, 30240, Note_on_c, 0, 53, 93
1, 30350, Note_off_c, 0, 53, 93
1, 30355, Note_on_c, 0, 51, 94
1, 30483, Note_off_c, 0, 51, 94
1, 30490, Note_on_c, 0, 53, 91
1, 30561, Note_off_c, 0, 53, 91
1, 30574, Note_on_c, 0, 55, 88
1, 30634, Note_off_c, 0, 55, 88
1, 30642, Note_on_c, 0, 53, 91
1, 30746, Note_off_c, 0, 53, 91
1, 30763, Note_on_c, 0, 51, 97
1, 30886, Note_off_c, 0, 51, 97
1, 30904, Note_on_c, 0, 56, 112
1, 30984, Note_off_c, 0, 56, 112
1, 30995, Note_on_c, 0, 58, 93
1, 31954, Note_off_c, 0, 58, 93
1, 32008, Note_on_c, 0, 53, 92
1, 32126, Note_off_c, 0, 53, 92
1, 32264, Note_on_c, 0, 49, 84
1, 32480, Note_off_c, 0, 49, 84
1, 32645, Note_on_c, 0, 51, 90
1, 32862, Note_off_c, 0, 51, 90
1, 32883, Note_on_c, 0, 52, 76
1, 32957, Note_off_c, 0, 52, 76
1, 32976, Note_on_c, 0, 53, 95
1, 33274, Note_off_c, 0, 53, 95
1, 33292, Note_on_c, 0, 58, 101
1, 33463, Note_off_c, 0, 58, 101
1, 34962, Note_on_c, 0, 58, 106
1, 35173, Note_off_c, 0, 58, 106
1, 35270, Note_on_c, 0, 61, 112
1, 35520, Note_off_c, 0, 61, 112
1, 35527, Note_on_c, 0, 62, 118
1, 35806, Note_off_c, 0, 62, 118
1, 35815, Note_on_c, 0, 63, 119
1, 36056, Note_off_c, 0, 63, 119
1, 36186, Note_on_c, 0, 63, 112
1, 36554, Note_off_c, 0, 63, 112
1, 36570, Note_on_c, 0, 65, 91
1, 37210, Note_off_c, 0, 65, 91
1, 37226, Note_on_c, 0, 62, 105
1, 37482, Note_off_c, 0, 62, 105
1, 37491, Note_on_c, 0, 63, 116
1, 37655, Note_off_c, 0, 63, 116
1, 37668, Note_on_c, 0, 65, 108
1, 37868, Note_off_c, 0, 65, 108
1, 37874, Note_on_c, 0, 66, 109
1, 38104, Note_off_c, 0, 66, 109
1, 38113, Note_on_c, 0, 65, 109
1, 38266, Note_off_c, 0, 65, 109
1, 38272, Note_on_c, 0, 63, 109
1, 38438, Note_off_c, 0, 63, 109
1, 38447, Note_on_c, 0, 61, 102
1, 38687, Note_off_c, 0, 61, 102
1, 38704, Note_on_c, 0, 62, 95
1, 38810, Note_off_c, 0, 62, 95
1, 38871, Note_on_c, 0, 58, 100
1, 39083, Note_off_c, 0, 58, 100
1, 39094, Note_on_c, 0, 53, 89
1, 39264, Note_off_c, 0, 53, 89
1, 39344, Note_on_c, 0, 50, 83
1, 39545, Note_off_c, 0, 50, 83
1, 39558, Note_on_c, 0, 51, 92
1, 39737, Note_off_c, 0, 51, 92
1, 39754, Note_on_c, 0, 49, 79
1, 39841, Note_off_c, 0, 49, 79
1, 39855, Note_on_c, 0, 50, 79
1, 40120, Note_off_c, 0, 50, 79
1, 40136, Note_on_c, 0, 51, 90
1, 40431, Note_off_c, 0, 51, 90
1, 40448, Note_on_c, 0, 52, 86
1, 40570, Note_off_c, 0, 52, 86
1, 40573, Note_on_c, 0, 53, 89
1, 40788, Note_off_c, 0, 53, 89
1, 40815, Note_on_c, 0, 58, 84
1, 41230, Note_off_c, 0, 58, 84
1, 41803, Note_on_c, 0, 62, 114
1, 42064, Note_off_c, 0, 62, 114
1, 42065, Note_on_c, 0, 62, 104
1, 42284, Note_off_c, 0, 62, 104
1, 42288, Note_on_c, 0, 62, 106
1, 42534, Note_off_c, 0, 62, 106
1, 43728, Note_on_c, 0, 62, 122
1, 43914, Note_off_c, 0, 62, 122
1, 43916, Note_on_c, 0, 64, 121
1, 44011, Note_off_c, 0, 64, 121
1, 44020, Note_on_c, 0, 65, 101
1, 44081, Note_off_c, 0, 65, 101
1, 44097, Note_on_c, 0, 68, 108
1, 44154, Note_off_c, 0, 68, 108
1, 44162, Note_on_c, 0, 71, 116
1, 44226, Note_off_c, 0, 71, 116
1, 44252, Note_on_c, 0, 73, 119
1, 44312, Note_off_c, 0, 73, 119
1, 44319, Note_on_c, 0, 74, 114
1, 44559, Note_off_c, 0, 74, 114
1, 44571, Note_on_c, 0, 71, 107
1, 45371, Note_off_c, 0, 71, 107
1, 45561, Note_on_c, 0, 62, 112
1, 45817, Note_off_c, 0, 62, 112
1, 47016, Note_on_c, 0, 62, 118
1, 47212, Note_off_c, 0, 62, 118
1, 47219, Note_on_c, 0, 65, 122
1, 47342, Note_off_c, 0, 65, 122
1, 47385, Note_on_c, 0, 68, 116
1, 47440, Note_off_c, 0, 68, 116
1, 47445, Note_on_c, 0, 71, 119
1, 47537, Note_off_c, 0, 71, 119
1, 47548, Note_on_c, 0, 73, 127
1, 47596, Note_off_c, 0, 73, 127
1, 47609, Note_on_c, 0, 74, 118
1, 47747, Note_off_c, 0, 74, 118
1, 47993, Note_on_c, 0, 67, 96
1, 48664, Note_off_c, 0, 67, 96
1, 48680, Note_on_c, 0, 69, 114
1, 48887, Note_off_c, 0, 69, 114
1, 49076, Note_on_c, 0, 62, 87
1, 49655, Note_off_c, 0, 62, 87
1, 49671, Note_on_c, 0, 60, 101
1, 49921, Note_off_c, 0, 60, 101
1, 50077, Note_on_c, 0, 55, 92
1, 51123, Note_off_c, 0, 55, 92
1, 51149, Note_on_c, 0, 53, 100
1, 51330, Note_off_c, 0, 53, 100
1, 51339, Note_on_c, 0, 52, 86
1, 51613, Note_off_c, 0, 52, 86
1, 51638, Note_on_c, 0, 55, 97
1, 51724, Note_off_c, 0, 55, 97
1, 51746, Note_on_c, 0, 62, 96
1, 52047, Note_off_c, 0, 62, 96
1, 52058, Note_on_c, 0, 60, 110
1, 52239, Note_off_c, 0, 60, 110
1, 52995, Note_on_c, 0, 50, 109
1, 53088, Note_off_c, 0, 50, 109
1, 53101, Note_on_c, 0, 51, 104
1, 53298, Note_off_c, 0, 51, 104
1, 53320, Note_on_c, 0, 53, 95
1, 53655, Note_off_c, 0, 53, 95
1, 53661, Note_on_c, 0, 54, 91
1, 54143, Note_off_c, 0, 54, 91
1, 54178, Note_on_c, 0, 51, 84
1, 54237, Note_off_c, 0, 51, 84
1, 54254, Note_on_c, 0, 53, 94
1, 54631, Note_off_c, 0, 53, 94
1, 55530, Note_on_c, 0, 60, 111
1, 55560, Note_off_c, 0, 60, 111
1, 55563, Note_on_c, 0, 61, 119
1, 55741, Note_off_c, 0, 61, 119
1, 55756, Note_on_c, 0, 61, 112
1, 55950, Note_off_c, 0, 61, 112
1, 55971, Note_on_c, 0, 61, 116
1, 56193, Note_off_c, 0, 61, 116
1, 56369, Note_on_c, 0, 61, 98
1, 56890, Note_off_c, 0, 61, 98
1, 57045, Note_on_c, 0, 61, 116
1, 57233, Note_off_c, 0, 61, 116
1, 57235, Note_on_c, 0, 61, 113
1, 57440, Note_off_c, 0, 61, 113
1, 57646, Note_on_c, 0, 61, 110
1, 57873, Note_off_c, 0, 61, 110
1, 58051, Note_on_c, 0, 61, 115
1, 58324, Note_off_c, 0, 61, 115
1, 58328, Note_on_c, 0, 61, 113
1, 58518, Note_off_c, 0, 61, 113
1, 58520, Note_on_c, 0, 61, 109
1, 58707, Note_off_c, 0, 61, 109
1, 58885, Note_on_c, 0, 61, 111
1, 59109, Note_off_c, 0, 61, 111
1, 59166, Note_on_c, 0, 61, 107
1, 59340, Note_off_c, 0, 61, 107
1, 59345, Note_on_c, 0, 61, 106
1, 59579, Note_off_c, 0, 61, 106
1, 59741, Note_on_c, 0, 61, 111
1, 60019, Note_off_c, 0, 61, 111
1, 60020, Note_on_c, 0, 61, 113
1, 60166, Note_off_c, 0, 61, 113
1, 60371, Note_on_c, 0, 61, 113
1, 60562, Note_off_c, 0, 61, 113
1, 60568, Note_on_c, 0, 61, 104
1, 60929, Note_off_c, 0, 61, 104
1, 60936, Note_on_c, 0, 60, 109
1, 61223, Note_off_c, 0, 60, 109
1, 61276, Note_on_c, 0, 60, 95
1, 61731, Note_off_c, 0, 60, 95
1, 61867, Note_on_c, 0, 55, 96
1, 62010, Note_off_c, 0, 55, 96
1, 62029, Note_on_c, 0, 58, 105
1, 62105, Note_off_c, 0, 58, 105
1, 62118, Note_on_c, 0, 62, 109
1, 62187, Note_off_c, 0, 62, 109
1, 62239, Note_on_c, 0, 63, 110
1, 62492, Note_off_c, 0, 63, 110
1, 62512, Note_on_c, 0, 65, 98
1, 63025, Note_off_c, 0, 65, 98
1, 63041, Note_on_c, 0, 63, 114
1, 63307, Note_off_c, 0, 63, 114
1, 63339, Note_on_c, 0, 65, 91
1, 63835, Note_off_c, 0, 65, 91
1, 63890, Note_on_c, 0, 63, 113
1, 64065, Note_off_c, 0, 63, 113
1, 65328, Note_on_c, 0, 61, 106
1, 65511, Note_off_c, 0, 61, 106
1, 65528, Note_on_c, 0, 62, 118
1, 65737, Note_off_c, 0, 62, 118
1, 65746, Note_on_c, 0, 65, 120
1, 65989, Note_off_c, 0, 65, 120
1, 66192, Note_on_c, 0, 70, 108
1, 67155, Note_off_c, 0, 70, 108
1, 67158, Note_on_c, 0, 67, 106
1, 67406, Note_off_c, 0, 67, 106
1, 67415, Note_on_c, 0, 65, 106
1, 67586, Note_off_c, 0, 65, 106
1, 67600, Note_on_c, 0, 62, 103
1, 67820, Note_off_c, 0, 62, 103
1, 67837, Note_on_c, 0, 58, 100
1, 68006, Note_off_c, 0, 58, 100
1, 68043, Note_on_c, 0, 57, 102
1, 68228, Note_off_c, 0, 57, 102
1, 68281, Note_on_c, 0, 62, 104
1, 68468, Note_off_c, 0, 62, 104
1, 68476, Note_on_c, 0, 57, 97
1, 68667, Note_off_c, 0, 57, 97
1, 68686, Note_on_c, 0, 55, 90
1, 69231, Note_off_c, 0, 55, 90
1, 69371, Note_on_c, 0, 50, 77
1, 69492, Note_off_c, 0, 50, 77
1, 69506, Note_on_c, 0, 51, 94
1, 69674, Note_off_c, 0, 51, 94
1, 69710, Note_on_c, 0, 53, 104
1, 69964, Note_off_c, 0, 53, 104
1, 69975, Note_on_c, 0, 54, 106
1, 70188, Note_off_c, 0, 54, 106
1, 70205, Note_on_c, 0, 53, 95
1, 70270, Note_off_c, 0, 53, 95
1, 70312, Note_on_c, 0, 51, 91
1, 70472, Note_off_c, 0, 51, 91
1, 70497, Note_on_c, 0, 53, 89
1, 71147, Note_off_c, 0, 53, 89
1, 71276, Note_on_c, 0, 51, 93
1, 71554, Note_off_c, 0, 51, 93
1, 71580, Note_on_c, 0, 54, 91
1, 71702, Note_off_c, 0, 54, 91
1, 71722, Note_on_c, 0, 48, 98
1, 71995, Note_off_c, 0, 48, 98
1, 72041, Note_on_c, 0, 54, 89
1, 72096, Note_off_c, 0, 54, 89
1, 72135, Note_on_c, 0, 58, 88
1, 72788, Note_off_c, 0, 58, 88
1, 72824, Note_on_c, 0, 55, 87
1, 72941, Note_off_c, 0, 55, 87
1, 72978, Note_on_c, 0, 58, 102
1, 73153, Note_off_c, 0, 58, 102
1, 73649, Note_on_c, 0, 58, 85
1, 74187, Note_off_c, 0, 58, 85
1, 74215, Note_on_c, 0, 55, 111
1, 74332, Note_off_c, 0, 55, 111
1, 74362, Note_on_c, 0, 58, 97
1, 74427, Note_off_c, 0, 58, 97
1, 74436, Note_on_c, 0, 61, 111
1, 74605, Note_off_c, 0, 61, 111
1, 74627, Note_on_c, 0, 62, 106
1, 74853, Note_off_c, 0, 62, 106
1, 74873, Note_on_c, 0, 63, 112
1, 75030, Note_off_c, 0, 63, 112
1, 75051, Note_on_c, 0, 61, 94
1, 75271, Note_off_c, 0, 61, 94
1, 75293, Note_on_c, 0, 62, 102
1, 75432, Note_off_c, 0, 62, 102
1, 75432, End_track
0, 0, End_of_file
