0, 0, Header, 1, 1, 192
1, 0, Start_track
1, 0, Title_t, "Melody"
1, 0, Tempo, 239043
1, 0, Key_signature, -2, "major"
1, 0, Time_signature, 4, 2, 24, 8
1, 4756, Note_on_c, 0, 53, 100
1, 4835, Note_off_c, 0, 53, 100
1, 4848, Note_on_c, 0, 58, 112
1, 4959, Note_off_c, 0, 58, 112
1, 5010, Note_on_c, 0, 63, 92
1, 5093, Note_off_c, 0, 63, 92
1, 5186, Note_on_c, 0, 65, 112
1, 5493, Note_off_c, 0, 65, 112
1, 5553, Note_on_c, 0, 62, 103
1, 5683, Note_off_c, 0, 62, 103
1, 5715, Note_on_c, 0, 60, 119
1, 5808, Note_off_c, 0, 60, 119
1, 5808, Note_on_c, 0, 58, 112
1, 5905, Note_off_c, 0, 58, 112
1, 5928, Note_on_c, 0, 55, 106
1, 5988, Note_off_c, 0, 55, 106
1, 5988, Note_on_c, 0, 53, 97
1, 6104, Note_off_c, 0, 53, 97
1, 6117, Note_on_c, 0, 50, 96
1, 6196, Note_off_c, 0, 50, 96
1, 6200, Note_on_c, 0, 51, 98
1, 6288, Note_on_c, 0, 48, 88
1, 6288, Note_off_c, 0, 51, 98
1, 6385, Note_off_c, 0, 48, 88
1, 6408, Note_on_c, 0, 50, 94
1, 6547, Note_off_c, 0, 50, 94
1, 6565, Note_on_c, 0, 55, 92
1, 6681, Note_off_c, 0, 55, 92
1, 6718, Note_on_c, 0, 58, 110
1, 7049, Note_off_c, 0, 58, 110
1, 7053, Note_on_c, 0, 55, 107
1, 7197, Note_off_c, 0, 55, 107
1, 8008, Note_on_c, 0, 72, 123
1, 8133, Note_off_c, 0, 72, 123
1, 8133, Note_on_c, 0, 70, 122
1, 8240, Note_off_c, 0, 70, 122
1, 8240, Note_on_c, 0, 67, 123
1, 8333, Note_off_c, 0, 67, 123
1, 8333, Note_on_c, 0, 65, 117
1, 8412, Note_off_c, 0, 65, 117
1, 8425, Note_on_c, 0, 62, 122
1, 8499, Note_off_c, 0, 62, 122
1, 8499, Note_on_c, 0, 60, 124
1, 8592, Note_off_c, 0, 60, 124
1, 8601, Note_on_c, 0, 58, 110
1, 8703, Note_off_c, 0, 58, 110
1, 8707, Note_on_c, 0, 55, 103
1, 8804, Note_off_c, 0, 55, 103
1, 8822, Note_on_c, 0, 47, 98
1, 8910, Note_off_c, 0, 47, 98
1, 8914, Note_on_c, 0, 48, 92
1, 9007, Note_off_c, 0, 48, 92
1, 9007, Note_on_c, 0, 50, 90
1, 9272, Note_off_c, 0, 50, 90
1, 9285, Note_on_c, 0, 53, 99
1, 9989, Note_off_c, 0, 53, 99
1, 10007, Note_on_c, 0, 58, 108
1, 10165, Note_off_c, 0, 58, 108
1, 10859, Note_on_c, 0, 68, 117
1, 10924, Note_off_c, 0, 68, 117
1, 10937, Note_on_c, 0, 65, 109
1, 10983, Note_off_c, 0, 65, 109
1, 11006, Note_on_c, 0, 67, 118
1, 11085, Note_off_c, 0, 67, 118
1, 11103, Note_on_c, 0, 65, 102
1, 11177, Note_off_c, 0, 65, 102
1, 11190, Note_on_c, 0, 68, 122
1, 11269, Note_off_c, 0, 68, 122
1, 11301, Note_on_c, 0, 65, 107
1, 11384, Note_off_c, 0, 65, 107
1, 11402, Note_on_c, 0, 67, 118
1, 11481, Note_off_c, 0, 67, 118
1, 11494, Note_on_c, 0, 65, 107
1, 11568, Note_off_c, 0, 65, 107
1, 11581, Note_on_c, 0, 68, 118
1, 11678, Note_off_c, 0, 68, 118
1, 11682, Note_on_c, 0, 65, 105
1, 11751, Note_off_c, 0, 65, 105
1, 11751, Note_on_c, 0, 67, 115
1, 11848, Note_off_c, 0, 67, 115
1, 11871, Note_on_c, 0, 65, 103
1, 11940, Note_off_c, 0, 65, 103
1, 11940, Note_on_c, 0, 67, 112
1, 12089, Note_off_c, 0, 67, 112
1, 12126, Note_on_c, 0, 65, 108
1, 12228, Note_off_c, 0, 65, 108
1, 12228, Note_on_c, 0, 62, 116
1, 12321, Note_off_c, 0, 62, 116
1, 12334, Note_on_c, 0, 61, 118
1, 12450, Note_off_c, 0, 61, 118
1, 12450, Note_on_c, 0, 58, 109
1, 12533, Note_off_c, 0, 58, 109
1, 12551, Note_on_c, 0, 55, 99
1, 12616, Note_off_c, 0, 55, 99
1, 12629, Note_on_c, 0, 54, 93
1, 12680, Note_on_c, 0, 58, 113
1, 12680, Note_off_c, 0, 54, 93
1, 12801, Note_off_c, 0, 58, 113
1, 12801, Note_on_c, 0, 55, 108
1, 12898, Note_off_c, 0, 55, 108
1, 12921, Note_on_c, 0, 54, 103
1, 12990, Note_off_c, 0, 54, 103
1, 13003, Note_on_c, 0, 50, 90
1, 13086, Note_on_c, 0, 53, 105
1, 13086, Note_off_c, 0, 50, 90
1, 13179, Note_off_c, 0, 53, 105
1, 13179, Note_on_c, 0, 50, 92
1, 13258, Note_off_c, 0, 50, 92
1, 13262, Note_on_c, 0, 51, 92
1, 13350, Note_off_c, 0, 51, 92
1, 13350, Note_on_c, 0, 53, 94
1, 13415, Note_off_c, 0, 53, 94
1, 13419, Note_on_c, 0, 55, 110
1, 13512, Note_off_c, 0, 55, 110
1, 13512, Note_on_c, 0, 60, 120
1, 13609, Note_off_c, 0, 60, 120
1, 13632, Note_on_c, 0, 62, 114
1, 13790, Note_off_c, 0, 62, 114
1, 13790, Note_on_c, 0, 58, 102
1, 14018, Note_off_c, 0, 58, 102
1, 14395, Note_on_c, 0, 63, 122
1, 14506, Note_off_c, 0, 63, 122
1, 14519, Note_on_c, 0, 65, 119
1, 14663, Note_off_c, 0, 65, 119
1, 14667, Note_on_c, 0, 64, 110
1, 15198, Note_off_c, 0, 64, 110
1, 15198, Note_on_c, 0, 65, 112
1, 15491, Note_off_c, 0, 65, 112
1, 15491, Note_on_c, 0, 61, 118
1, 15593, Note_off_c, 0, 61, 118
1, 15593, Note_on_c, 0, 62, 115
1, 15690, Note_off_c, 0, 62, 115
1, 15690, Note_on_c, 0, 58, 107
1, 15806, Note_off_c, 0, 58, 107
1, 15806, Note_on_c, 0, 55, 100
1, 15922, Note_off_c, 0, 55, 100
1, 15922, Note_on_c, 0, 53, 95
1, 15987, Note_off_c, 0, 53, 95
1, 15987, Note_on_c, 0, 50, 89
1, 16089, Note_off_c, 0, 50, 89
1, 16112, Note_on_c, 0, 50, 97
1, 16181, Note_off_c, 0, 50, 97
1, 16194, Note_on_c, 0, 53, 95
1, 16436, Note_off_c, 0, 53, 95
1, 17042, Note_on_c, 0, 51, 107
1, 17093, Note_off_c, 0, 51, 107
1, 17093, Note_on_c, 0, 54, 110
1, 17181, Note_off_c, 0, 54, 110
1, 17190, Note_on_c, 0, 59, 113
1, 17320, Note_off_c, 0, 59, 113
1, 17320, Note_on_c, 0, 64, 111
1, 17702, Note_off_c, 0, 64, 111
1, 17748, Note_on_c, 0, 52, 100
1, 17845, Note_off_c, 0, 52, 100
1, 17868, Note_on_c, 0, 54, 105
1, 17937, Note_off_c, 0, 54, 105
1, 17937, Note_on_c, 0, 59, 115
1, 18048, Note_off_c, 0, 59, 115
1, 18057, Note_on_c, 0, 64, 110
1, 18304, Note_off_c, 0, 64, 110
1, 18308, Note_on_c, 0, 58, 107
1, 18405, Note_off_c, 0, 58, 107
1, 18437, Note_on_c, 0, 57, 108
1, 19075, Note_off_c, 0, 57, 108
1, 19084, Note_on_c, 0, 50, 104
1, 19410, Note_off_c, 0, 50, 104
1, 19410, Note_on_c, 0, 55, 105
1, 19848, Note_off_c, 0, 55, 105
1, 20356, Note_on_c, 0, 66, 114
1, 20439, Note_off_c, 0, 66, 114
1, 20466, Note_on_c, 0, 64, 117
1, 20559, Note_off_c, 0, 64, 117
1, 20559, Note_on_c, 0, 65, 113
1, 20633, Note_off_c, 0, 65, 113
1, 20656, Note_on_c, 0, 64, 115
1, 20749, Note_off_c, 0, 64, 115
1, 20758, Note_on_c, 0, 62, 119
1, 20841, Note_off_c, 0, 62, 119
1, 20841, Note_on_c, 0, 58, 111
1, 20962, Note_on_c, 0, 55, 110
1, 20962, Note_off_c, 0, 58, 111
1, 21050, Note_off_c, 0, 55, 110
1, 21059, Note_on_c, 0, 53, 106
1, 21133, Note_on_c, 0, 55, 104
1, 21133, Note_off_c, 0, 53, 106
1, 21193, Note_off_c, 0, 55, 104
1, 21211, Note_on_c, 0, 53, 101
1, 21266, Note_off_c, 0, 53, 101
1, 21275, Note_on_c, 0, 52, 101
1, 21330, Note_off_c, 0, 52, 101
1, 21353, Note_on_c, 0, 53, 100
1, 21418, Note_off_c, 0, 53, 100
1, 21427, Note_on_c, 0, 55, 110
1, 21562, Note_off_c, 0, 55, 110
1, 21566, Note_on_c, 0, 52, 99
1, 21649, Note_off_c, 0, 52, 99
1, 21649, Note_on_c, 0, 53, 100
1, 21746, Note_off_c, 0, 53, 100
1, 21759, Note_on_c, 0, 57, 118
1, 21819, Note_off_c, 0, 57, 118
1, 21819, Note_on_c, 0, 61, 122
1, 21926, Note_off_c, 0, 61, 122
1, 21944, Note_on_c, 0, 65, 112
1, 22004, Note_off_c, 0, 65, 112
1, 22013, Note_on_c, 0, 63, 115
1, 22106, Note_off_c, 0, 63, 115
1, 22115, Note_on_c, 0, 61, 117
1, 22203, Note_off_c, 0, 61, 117
1, 22203, Note_on_c, 0, 57, 102
1, 22291, Note_off_c, 0, 57, 102
1, 22295, Note_on_c, 0, 53, 90
1, 22397, Note_off_c, 0, 53, 90
1, 22522, Note_on_c, 0, 55, 96
1, 22666, Note_off_c, 0, 55, 96
1, 22745, Note_on_c, 0, 55, 108
1, 22852, Note_off_c, 0, 55, 108
1, 22856, Note_on_c, 0, 53, 98
1, 22921, Note_off_c, 0, 53, 98
1, 22921, Note_on_c, 0, 60, 112
1, 23583, Note_off_c, 0, 60, 112
1, 23699, Note_on_c, 0, 60, 119
1, 24188, Note_off_c, 0, 60, 119
1, 24188, Note_on_c, 0, 58, 109
1, 24313, Note_on_c, 0, 55, 99
1, 24313, Note_off_c, 0, 58, 109
1, 24420, Note_off_c, 0, 55, 99
1, 24447, Note_on_c, 0, 60, 112
1, 24619, Note_off_c, 0, 60, 112
1, 24684, Note_on_c, 0, 60, 110
1, 24814, Note_off_c, 0, 60, 110
1, 24874, Note_on_c, 0, 60, 116
1, 25186, Note_off_c, 0, 60, 116
1, 25512, Note_on_c, 0, 60, 126
1, 25651, Note_off_c, 0, 60, 126
1, 25692, Note_on_c, 0, 61, 115
1, 25897, Note_off_c, 0, 61, 115
1, 25910, Note_on_c, 0, 58, 106
1, 26222, Note_off_c, 0, 58, 106
1, 26235, Note_on_c, 0, 53, 101
1, 26295, Note_off_c, 0, 53, 101
1, 26476, Note_on_c, 0, 53, 98
1, 26555, Note_on_c, 0, 56, 90
1, 26555, Note_off_c, 0, 53, 98
1, 26650, Note_off_c, 0, 56, 90
1, 26701, Note_on_c, 0, 55, 100
1, 26740, Note_off_c, 0, 55, 100
1, 26743, Note_on_c, 0, 58, 107
1, 26880, Note_off_c, 0, 58, 107
1, 26880, Note_on_c, 0, 55, 100
1, 26935, Note_off_c, 0, 55, 100
1, 26935, Note_on_c, 0, 58, 109
1, 27075, Note_off_c, 0, 58, 109
1, 27075, Note_on_c, 0, 55, 106
1, 27124, Note_off_c, 0, 55, 106
1, 27127, Note_on_c, 0, 58, 112
1, 27250, Note_on_c, 0, 55, 105
1, 27250, Note_off_c, 0, 58, 112
1, 27317, Note_off_c, 0, 55, 105
1, 27337, Note_on_c, 0, 49, 93
1, 27413, Note_off_c, 0, 49, 93
1, 27429, Note_on_c, 0, 50, 95
1, 27491, Note_off_c, 0, 50, 95
1, 27497, Note_on_c, 0, 53, 102
1, 27611, Note_off_c, 0, 53, 102
1, 27624, Note_on_c, 0, 58, 103
1, 27929, Note_off_c, 0, 58, 103
1, 29013, Note_on_c, 0, 64, 117
1, 29117, Note_off_c, 0, 64, 117
1, 29133, Note_on_c, 0, 65, 118
1, 29216, Note_off_c, 0, 65, 118
1, 29218, Note_on_c, 0, 66, 112
1, 29322, Note_off_c, 0, 66, 112
1, 29322, Note_on_c, 0, 64, 117
1, 29408, Note_off_c, 0, 64, 117
1, 29408, Note_on_c, 0, 65, 112
1, 29536, Note_off_c, 0, 65, 112
1, 29536, Note_on_c, 0, 61, 118
1, 29610, Note_off_c, 0, 61, 118
1, 29610, Note_on_c, 0, 62, 117
1, 29705, Note_off_c, 0, 62, 117
1, 29765, Note_on_c, 0, 58, 108
1, 30098, Note_off_c, 0, 58, 108
1, 30100, Note_on_c, 0, 53, 102
1, 30186, Note_off_c, 0, 53, 102
1, 30204, Note_on_c, 0, 52, 98
1, 30292, Note_off_c, 0, 52, 98
1, 30310, Note_on_c, 0, 53, 98
1, 30379, Note_off_c, 0, 53, 98
1, 30390, Note_on_c, 0, 54, 103
1, 30485, Note_off_c, 0, 54, 103
1, 30505, Note_on_c, 0, 52, 99
1, 30560, Note_off_c, 0, 52, 99
1, 30569, Note_on_c, 0, 53, 107
1, 30671, Note_off_c, 0, 53, 107
1, 30689, Note_on_c, 0, 46, 95
1, 30744, Note_off_c, 0, 46, 95
1, 30748, Note_on_c, 0, 50, 95
1, 30843, Note_off_c, 0, 50, 95
1, 30843, Note_on_c, 0, 53, 94
1, 30912, Note_off_c, 0, 53, 94
1, 30912, Note_on_c, 0, 58, 121
1, 31021, Note_off_c, 0, 58, 121
1, 31053, Note_on_c, 0, 58, 121
1, 31178, Note_off_c, 0, 58, 121
1, 31233, Note_on_c, 0, 58, 105
1, 31510, Note_off_c, 0, 58, 105
1, 31561, Note_on_c, 0, 48, 92
1, 31621, Note_off_c, 0, 48, 92
1, 31653, Note_on_c, 0, 51, 91
1, 31715, Note_off_c, 0, 51, 91
1, 31721, Note_on_c, 0, 55, 112
1, 31835, Note_off_c, 0, 55, 112
1, 31841, Note_on_c, 0, 58, 109
1, 32111, Note_off_c, 0, 58, 109
1, 32115, Note_on_c, 0, 55, 84
1, 32448, Note_off_c, 0, 55, 84
1, 32475, Note_on_c, 0, 70, 111
1, 32603, Note_off_c, 0, 70, 111
1, 32603, Note_on_c, 0, 67, 120
1, 32698, Note_off_c, 0, 67, 120
1, 32702, Note_on_c, 0, 65, 116
1, 32778, Note_off_c, 0, 65, 116
1, 32778, Note_on_c, 0, 62, 123
1, 32859, Note_off_c, 0, 62, 123
1, 32863, Note_on_c, 0, 60, 120
1, 32991, Note_off_c, 0, 60, 120
1, 33000, Note_on_c, 0, 58, 113
1, 33062, Note_off_c, 0, 58, 113
1, 33062, Note_on_c, 0, 55, 102
1, 33194, Note_off_c, 0, 55, 102
1, 33194, Note_on_c, 0, 51, 95
1, 33282, Note_off_c, 0, 51, 95
1, 33293, Note_on_c, 0, 51, 97
1, 33360, Note_off_c, 0, 51, 97
1, 33392, Note_on_c, 0, 49, 84
1, 33466, Note_off_c, 0, 49, 84
1, 33472, Note_on_c, 0, 50, 86
1, 33565, Note_off_c, 0, 50, 86
1, 33569, Note_on_c, 0, 54, 88
1, 33627, Note_off_c, 0, 54, 88
1, 33640, Note_on_c, 0, 58, 122
1, 33733, Note_off_c, 0, 58, 122
1, 33767, Note_on_c, 0, 58, 124
1, 33918, Note_off_c, 0, 58, 124
1, 34057, Note_on_c, 0, 61, 123
1, 34140, Note_off_c, 0, 61, 123
1, 34165, Note_on_c, 0, 62, 113
1, 34286, Note_off_c, 0, 62, 113
1, 34453, Note_on_c, 0, 69, 96
1, 34630, Note_off_c, 0, 69, 96
1, 34674, Note_on_c, 0, 58, 109
1, 34746, Note_off_c, 0, 58, 109
1, 34764, Note_on_c, 0, 55, 101
1, 35008, Note_off_c, 0, 55, 101
1, 35616, Note_on_c, 0, 72, 121
1, 35716, Note_off_c, 0, 72, 121
1, 35743, Note_on_c, 0, 70, 116
1, 35805, Note_off_c, 0, 70, 116
1, 35811, Note_on_c, 0, 67, 126
1, 35911, Note_off_c, 0, 67, 126
1, 35927, Note_on_c, 0, 65, 114
1, 36003, Note_off_c, 0, 65, 114
1, 36003, Note_on_c, 0, 62, 120
1, 36110, Note_off_c, 0, 62, 120
1, 36119, Note_on_c, 0, 58, 114
1, 36193, Note_off_c, 0, 58, 114
1, 36199, Note_on_c, 0, 60, 119
1, 36292, Note_off_c, 0, 60, 119
1, 36308, Note_on_c, 0, 62, 120
1, 36366, Note_off_c, 0, 62, 120
1, 36379, Note_on_c, 0, 63, 115
1, 36497, Note_off_c, 0, 63, 115
1, 36499, Note_on_c, 0, 58, 112
1, 36587, Note_off_c, 0, 58, 112
1, 36589, Note_on_c, 0, 61, 117
1, 36654, Note_off_c, 0, 61, 117
1, 36654, Note_on_c, 0, 62, 112
1, 36705, Note_off_c, 0, 62, 112
1, 36705, Note_on_c, 0, 63, 112
1, 36732, Note_off_c, 0, 63, 112
1, 36734, Note_on_c, 0, 65, 110
1, 36841, Note_off_c, 0, 65, 110
1, 36845, Note_on_c, 0, 58, 111
1, 36935, Note_off_c, 0, 58, 111
1, 36941, Note_on_c, 0, 61, 117
1, 37020, Note_off_c, 0, 61, 117
1, 37029, Note_on_c, 0, 62, 117
1, 37101, Note_off_c, 0, 62, 117
1, 37112, Note_on_c, 0, 63, 115
1, 37221, Note_off_c, 0, 63, 115
1, 37234, Note_on_c, 0, 64, 111
1, 37308, Note_off_c, 0, 64, 111
1, 37321, Note_on_c, 0, 65, 107
1, 37388, Note_off_c, 0, 65, 107
1, 37406, Note_on_c, 0, 66, 104
1, 37436, Note_off_c, 0, 66, 104
1, 37440, Note_on_c, 0, 65, 106
1, 37505, Note_off_c, 0, 65, 106
1, 37505, Note_on_c, 0, 61, 119
1, 37605, Note_off_c, 0, 61, 119
1, 37611, Note_on_c, 0, 62, 117
1, 37711, Note_off_c, 0, 62, 117
1, 37711, Note_on_c, 0, 58, 107
1, 37839, Note_off_c, 0, 58, 107
1, 37839, Note_on_c, 0, 55, 102
1, 37913, Note_off_c, 0, 55, 102
1, 37926, Note_on_c, 0, 53, 96
1, 38012, Note_off_c, 0, 53, 96
1, 38018, Note_on_c, 0, 50, 88
1, 38094, Note_off_c, 0, 50, 88
1, 38107, Note_on_c, 0, 51, 89
1, 38172, Note_off_c, 0, 51, 89
1, 38172, Note_on_c, 0, 48, 83
1, 38227, Note_off_c, 0, 48, 83
1, 38231, Note_on_c, 0, 50, 89
1, 38508, Note_off_c, 0, 50, 89
1, 38517, Note_on_c, 0, 53, 90
1, 38579, Note_off_c, 0, 53, 90
1, 38588, Note_on_c, 0, 56, 94
1, 38625, Note_off_c, 0, 56, 94
1, 38634, Note_on_c, 0, 58, 120
1, 39202, Note_off_c, 0, 58, 120
1, 39213, Note_on_c, 0, 48, 90
1, 39268, Note_off_c, 0, 48, 90
1, 39293, Note_on_c, 0, 51, 94
1, 39351, Note_off_c, 0, 51, 94
1, 39351, Note_on_c, 0, 58, 114
1, 39847, Note_off_c, 0, 58, 114
1, 39872, Note_on_c, 0, 58, 103
1, 40109, Note_off_c, 0, 58, 103
1, 40183, Note_on_c, 0, 61, 120
1, 40315, Note_off_c, 0, 61, 120
1, 40340, Note_on_c, 0, 62, 114
1, 40472, Note_off_c, 0, 62, 114
1, 40481, Note_on_c, 0, 65, 99
1, 40553, Note_off_c, 0, 65, 99
1, 40553, Note_on_c, 0, 60, 113
1, 40751, Note_off_c, 0, 60, 113
1, 40751, Note_on_c, 0, 55, 97
1, 40848, Note_off_c, 0, 55, 97
1, 40857, Note_on_c, 0, 58, 104
1, 41253, Note_off_c, 0, 58, 104
1, 41723, Note_on_c, 0, 62, 119
1, 41839, Note_off_c, 0, 62, 119
1, 41843, Note_on_c, 0, 64, 114
1, 41929, Note_off_c, 0, 64, 114
1, 41933, Note_on_c, 0, 66, 105
1, 42030, Note_off_c, 0, 66, 105
1, 42034, Note_on_c, 0, 67, 110
1, 42124, Note_off_c, 0, 67, 110
1, 42128, Note_on_c, 0, 69, 118
1, 42279, Note_off_c, 0, 69, 118
1, 42279, Note_on_c, 0, 67, 108
1, 42348, Note_off_c, 0, 67, 108
1, 42354, Note_on_c, 0, 66, 107
1, 42416, Note_off_c, 0, 66, 107
1, 42420, Note_on_c, 0, 64, 108
1, 42524, Note_off_c, 0, 64, 108
1, 42526, Note_on_c, 0, 62, 116
1, 42635, Note_off_c, 0, 62, 116
1, 42635, Note_on_c, 0, 58, 104
1, 42725, Note_off_c, 0, 58, 104
1, 42734, Note_on_c, 0, 52, 99
1, 42803, Note_off_c, 0, 52, 99
1, 42819, Note_on_c, 0, 50, 90
1, 42900, Note_off_c, 0, 50, 90
1, 42904, Note_on_c, 0, 55, 103
1, 43043, Note_off_c, 0, 55, 103
1, 43056, Note_on_c, 0, 52, 96
1, 43121, Note_off_c, 0, 52, 96
1, 43139, Note_on_c, 0, 53, 101
1, 43185, Note_off_c, 0, 53, 101
1, 43185, Note_on_c, 0, 55, 101
1, 43238, Note_off_c, 0, 55, 101
1, 43240, Note_on_c, 0, 58, 108
1, 43302, Note_off_c, 0, 58, 108
1, 43320, Note_on_c, 0, 64, 113
1, 43424, Note_off_c, 0, 64, 113
1, 43424, Note_on_c, 0, 62, 115
1, 43505, Note_off_c, 0, 62, 115
1, 43505, Note_on_c, 0, 59, 103
1, 43595, Note_off_c, 0, 59, 103
1, 43595, Note_on_c, 0, 57, 101
1, 43912, Note_off_c, 0, 57, 101
1, 43916, Note_on_c, 0, 52, 91
1, 44004, Note_off_c, 0, 52, 91
1, 44008, Note_on_c, 0, 57, 106
1, 44259, Note_off_c, 0, 57, 106
1, 44259, Note_on_c, 0, 55, 104
1, 44389, Note_off_c, 0, 55, 104
1, 44389, Note_on_c, 0, 62, 103
1, 44727, Note_off_c, 0, 62, 103
1, 45363, Note_on_c, 0, 60, 118
1, 45442, Note_off_c, 0, 60, 118
1, 45465, Note_on_c, 0, 64, 114
1, 45516, Note_off_c, 0, 64, 114
1, 45539, Note_on_c, 0, 68, 101
1, 45585, Note_off_c, 0, 68, 101
1, 45608, Note_on_c, 0, 71, 117
1, 45649, Note_off_c, 0, 71, 117
1, 45681, Note_on_c, 0, 72, 118
1, 45816, Note_off_c, 0, 72, 118
1, 45875, Note_on_c, 0, 69, 115
1, 45979, Note_off_c, 0, 69, 115
1, 45985, Note_on_c, 0, 67, 116
1, 46099, Note_off_c, 0, 67, 116
1, 46099, Note_on_c, 0, 65, 109
1, 46144, Note_off_c, 0, 65, 109
1, 46153, Note_on_c, 0, 63, 113
1, 46267, Note_off_c, 0, 63, 113
1, 46267, Note_on_c, 0, 61, 115
1, 46358, Note_off_c, 0, 61, 115
1, 46371, Note_on_c, 0, 57, 109
1, 46482, Note_off_c, 0, 57, 109
1, 46488, Note_on_c, 0, 53, 100
1, 46583, Note_off_c, 0, 53, 100
1, 46596, Note_on_c, 0, 49, 86
1, 46661, Note_off_c, 0, 49, 86
1, 46677, Note_on_c, 0, 50, 87
1, 46716, Note_off_c, 0, 50, 87
1, 46729, Note_on_c, 0, 55, 106
1, 46853, Note_off_c, 0, 55, 106
1, 46853, Note_on_c, 0, 53, 92
1, 46921, Note_off_c, 0, 53, 92
1, 46927, Note_on_c, 0, 55, 99
1, 47300, Note_off_c, 0, 55, 99
1, 47627, Note_on_c, 0, 53, 97
1, 47715, Note_on_c, 0, 58, 115
1, 47715, Note_off_c, 0, 53, 97
1, 47826, Note_off_c, 0, 58, 115
1, 47826, Note_on_c, 0, 61, 121
1, 47881, Note_off_c, 0, 61, 121
1, 47894, Note_on_c, 0, 62, 119
1, 48021, Note_off_c, 0, 62, 119
1, 48027, Note_on_c, 0, 58, 109
1, 48095, Note_off_c, 0, 58, 109
1, 48098, Note_on_c, 0, 55, 104
1, 48232, Note_off_c, 0, 55, 104
1, 48232, Note_on_c, 0, 50, 94
1, 48313, Note_off_c, 0, 50, 94
1, 48316, Note_on_c, 0, 51, 92
1, 48420, Note_off_c, 0, 51, 92
1, 48436, Note_on_c, 0, 48, 90
1, 48531, Note_off_c, 0, 48, 90
1, 48534, Note_on_c, 0, 50, 9
1, 48635, Note_off_c, 0, 50, 9
1, 48684, Note_on_c, 0, 53, 90
1, 49090, Note_off_c, 0, 53, 90
1, 49306, Note_on_c, 0, 53, 100
1, 49391, Note_off_c, 0, 53, 100
1, 49410, Note_on_c, 0, 58, 122
1, 49511, Note_off_c, 0, 58, 122
1, 49524, Note_on_c, 0, 61, 124
1, 49579, Note_off_c, 0, 61, 124
1, 49598, Note_on_c, 0, 62, 127
1, 49696, Note_off_c, 0, 62, 127
1, 49696, Note_on_c, 0, 65, 113
1, 49768, Note_off_c, 0, 65, 113
1, 49768, Note_on_c, 0, 63, 117
1, 49892, Note_off_c, 0, 63, 117
1, 49892, Note_on_c, 0, 61, 116
1, 49967, Note_off_c, 0, 61, 116
1, 49996, Note_on_c, 0, 62, 118
1, 50064, Note_off_c, 0, 62, 118
1, 50070, Note_on_c, 0, 65, 109
1, 50161, Note_off_c, 0, 65, 109
1, 50161, Note_on_c, 0, 62, 118
1, 50272, Note_off_c, 0, 62, 118
1, 50275, Note_on_c, 0, 65, 96
1, 50612, Note_off_c, 0, 65, 96
1, 50851, Note_on_c, 0, 70, 124
1, 50936, Note_off_c, 0, 70, 124
1, 50978, Note_on_c, 0, 70, 119
1, 51040, Note_off_c, 0, 70, 119
1, 51151, Note_on_c, 0, 70, 112
1, 51462, Note_off_c, 0, 70, 112
1, 51491, Note_on_c, 0, 68, 113
1, 51572, Note_off_c, 0, 68, 113
1, 51572, Note_on_c, 0, 67, 113
1, 51650, Note_off_c, 0, 67, 113
1, 51650, Note_on_c, 0, 65, 104
1, 51741, Note_off_c, 0, 65, 104
1, 51747, Note_on_c, 0, 61, 115
1, 51861, Note_off_c, 0, 61, 115
1, 51942, Note_on_c, 0, 61, 118
1, 52082, Note_off_c, 0, 61, 118
1, 52137, Note_on_c, 0, 60, 119
1, 52235, Note_off_c, 0, 60, 119
1, 52235, Note_on_c, 0, 58, 110
1, 52333, Note_off_c, 0, 58, 110
1, 52392, Note_on_c, 0, 58, 106
1, 52628, Note_off_c, 0, 58, 106
1, 52641, Note_on_c, 0, 56, 112
1, 52896, Note_off_c, 0, 56, 112
1, 52951, Note_on_c, 0, 55, 95
1, 53016, Note_off_c, 0, 55, 95
1, 53042, Note_on_c, 0, 53, 91
1, 53376, Note_off_c, 0, 53, 91
1, 53376, End_track
0, 0, End_of_file
