0, 0, Header, 1, 1, 27720
1, 0, Start_track
1, 0, Title_t, "Melody"
1, 0, Tempo, 731707
1, 0, Key_signature, -3, "major"
1, 0, Time_signature, 4, 2, 24, 8
1, 330189, Note_on_c, 0, 70, 89
1, 337391, Note_off_c, 0, 70, 89
1, 339748, Note_on_c, 0, 82, 90
1, 347324, Note_off_c, 0, 82, 90
1, 348097, Note_on_c, 0, 79, 91
1, 356446, Note_off_c, 0, 79, 91
1, 357621, Note_on_c, 0, 77, 89
1, 367517, Note_off_c, 0, 77, 89
1, 367517, Note_on_c, 0, 75, 77
1, 375653, Note_off_c, 0, 75, 77
1, 376092, Note_on_c, 0, 74, 94
1, 386208, Note_off_c, 0, 74, 94
1, 386427, Note_on_c, 0, 72, 73
1, 414136, Note_off_c, 0, 72, 73
1, 441333, Note_on_c, 0, 68, 99
1, 451009, Note_off_c, 0, 68, 99
1, 452156, Note_on_c, 0, 80, 91
1, 459423, Note_off_c, 0, 80, 91
1, 460196, Note_on_c, 0, 79, 99
1, 468855, Note_off_c, 0, 79, 99
1, 469782, Note_on_c, 0, 77, 91
1, 479523, Note_off_c, 0, 77, 91
1, 480296, Note_on_c, 0, 75, 83
1, 486790, Note_off_c, 0, 75, 83
1, 486944, Note_on_c, 0, 74, 92
1, 495603, Note_off_c, 0, 74, 92
1, 496994, Note_on_c, 0, 72, 71
1, 526462, Note_off_c, 0, 72, 71
1, 553123, Note_on_c, 0, 67, 85
1, 573795, Note_off_c, 0, 67, 85
1, 580956, Note_on_c, 0, 79, 113
1, 589972, Note_off_c, 0, 79, 113
1, 590281, Note_on_c, 0, 77, 100
1, 596878, Note_off_c, 0, 77, 100
1, 596878, Note_on_c, 0, 75, 84
1, 603035, Note_off_c, 0, 75, 84
1, 603035, Note_on_c, 0, 74, 101
1, 609632, Note_off_c, 0, 74, 101
1, 610291, Note_on_c, 0, 72, 99
1, 618207, Note_off_c, 0, 72, 99
1, 618207, Note_on_c, 0, 70, 80
1, 624144, Note_off_c, 0, 70, 80
1, 624363, Note_on_c, 0, 72, 95
1, 631180, Note_off_c, 0, 72, 95
1, 631180, Note_on_c, 0, 74, 101
1, 637117, Note_off_c, 0, 74, 101
1, 637556, Note_on_c, 0, 75, 91
1, 644593, Note_off_c, 0, 75, 91
1, 644593, Note_on_c, 0, 79, 97
1, 651630, Note_off_c, 0, 79, 97
1, 651630, Note_on_c, 0, 82, 95
1, 660206, Note_off_c, 0, 82, 95
1, 663673, Note_on_c, 0, 86, 116
1, 672249, Note_off_c, 0, 86, 116
1, 673259, Note_on_c, 0, 84, 84
1, 677897, Note_off_c, 0, 84, 84
1, 679116, Note_on_c, 0, 79, 88
1, 687472, Note_off_c, 0, 79, 88
1, 687472, Note_on_c, 0, 75, 82
1, 692530, Note_off_c, 0, 75, 82
1, 692530, Note_on_c, 0, 72, 86
1, 704405, Note_off_c, 0, 72, 86
1, 707263, Note_on_c, 0, 72, 88
1, 718698, Note_off_c, 0, 72, 88
1, 719357, Note_on_c, 0, 71, 108
1, 729033, Note_off_c, 0, 71, 108
1, 730132, Note_on_c, 0, 71, 106
1, 734530, Note_off_c, 0, 71, 106
1, 735409, Note_on_c, 0, 71, 109
1, 744645, Note_off_c, 0, 71, 109
1, 745304, Note_on_c, 0, 71, 104
1, 747626, Note_off_c, 0, 71, 104
1, 747626, Note_on_c, 0, 79, 105
1, 756422, Note_off_c, 0, 79, 105
1, 758277, Note_on_c, 0, 79, 101
1, 762455, Note_off_c, 0, 79, 101
1, 763554, Note_on_c, 0, 79, 93
1, 771251, Note_off_c, 0, 79, 93
1, 772130, Note_on_c, 0, 75, 64
1, 776088, Note_off_c, 0, 75, 64
1, 776088, Note_on_c, 0, 77, 103
1, 785764, Note_off_c, 0, 77, 103
1, 785764, Note_on_c, 0, 75, 89
1, 790382, Note_off_c, 0, 75, 89
1, 790601, Note_on_c, 0, 77, 99
1, 799397, Note_off_c, 0, 77, 99
1, 799397, Note_on_c, 0, 75, 73
1, 803795, Note_off_c, 0, 75, 73
1, 804014, Note_on_c, 0, 72, 89
1, 813690, Note_off_c, 0, 72, 89
1, 813909, Note_on_c, 0, 70, 80
1, 818307, Note_off_c, 0, 70, 80
1, 818437, Note_on_c, 0, 65, 91
1, 826323, Note_off_c, 0, 65, 91
1, 826323, Note_on_c, 0, 63, 81
1, 833590, Note_off_c, 0, 63, 81
1, 873724, Note_on_c, 0, 61, 74
1, 878122, Note_off_c, 0, 61, 74
1, 878122, Note_on_c, 0, 63, 92
1, 882300, Note_off_c, 0, 63, 92
1, 882300, Note_on_c, 0, 65, 95
1, 885158, Note_on_c, 0, 70, 105
1, 885158, Note_off_c, 0, 65, 95
1, 895713, Note_off_c, 0, 70, 105
1, 900111, Note_on_c, 0, 61, 91
1, 904069, Note_off_c, 0, 61, 91
1, 904069, Note_on_c, 0, 63, 87
1, 908907, Note_off_c, 0, 63, 87
1, 909126, Note_on_c, 0, 65, 98
1, 913304, Note_off_c, 0, 65, 98
1, 913304, Note_on_c, 0, 70, 97
1, 925179, Note_off_c, 0, 70, 97
1, 927817, Note_on_c, 0, 67, 99
1, 937053, Note_off_c, 0, 67, 99
1, 937053, Note_on_c, 0, 66, 96
1, 942330, Note_off_c, 0, 66, 96
1, 942330, Note_on_c, 0, 60, 94
1, 950686, Note_off_c, 0, 60, 94
1, 950686, Note_on_c, 0, 59, 92
1, 956403, Note_off_c, 0, 59, 92
1, 956842, Note_on_c, 0, 58, 85
1, 964319, Note_off_c, 0, 58, 85
1, 965418, Note_on_c, 0, 58, 83
1, 970256, Note_off_c, 0, 58, 83
1, 970915, Note_on_c, 0, 67, 108
1, 982350, Note_off_c, 0, 67, 108
1, 984988, Note_on_c, 0, 67, 100
1, 993344, Note_off_c, 0, 67, 100
1, 993563, Note_on_c, 0, 68, 98
1, 997961, Note_off_c, 0, 68, 98
1, 998620, Note_on_c, 0, 64, 100
1, 1007636, Note_on_c, 0, 65, 92
1, 1007636, Note_off_c, 0, 64, 100
1, 1013133, Note_off_c, 0, 65, 92
1, 1013133, Note_on_c, 0, 68, 102
1, 1020170, Note_off_c, 0, 68, 102
1, 1020170, Note_on_c, 0, 72, 97
1, 1026327, Note_off_c, 0, 72, 97
1, 1026327, Note_on_c, 0, 75, 98
1, 1035343, Note_on_c, 0, 79, 102
1, 1035343, Note_off_c, 0, 75, 98
1, 1044139, Note_off_c, 0, 79, 102
1, 1044139, Note_on_c, 0, 82, 96
1, 1052935, Note_off_c, 0, 82, 96
1, 1052935, Note_on_c, 0, 79, 105
1, 1062391, Note_off_c, 0, 79, 105
1, 1062610, Note_on_c, 0, 70, 90
1, 1068107, Note_off_c, 0, 70, 90
1, 1068107, Note_on_c, 0, 69, 82
1, 1076243, Note_off_c, 0, 69, 82
1, 1076243, Note_on_c, 0, 68, 93
1, 1080421, Note_off_c, 0, 68, 93
1, 1080421, Note_on_c, 0, 79, 99
1, 1092736, Note_off_c, 0, 79, 99
1, 1094495, Note_on_c, 0, 79, 100
1, 1107875, Note_off_c, 0, 79, 100
1, 1107875, Note_on_c, 0, 75, 78
1, 1121069, Note_off_c, 0, 75, 78
1, 1123082, Note_on_c, 0, 79, 109
1, 1127040, Note_off_c, 0, 79, 109
1, 1127040, Note_on_c, 0, 80, 94
1, 1131878, Note_off_c, 0, 80, 94
1, 1131878, Note_on_c, 0, 81, 71
1, 1136276, Note_off_c, 0, 81, 71
1, 1137251, Note_on_c, 0, 82, 96
1, 1141425, Note_off_c, 0, 82, 96
1, 1141991, Note_on_c, 0, 81, 96
1, 1146389, Note_off_c, 0, 81, 96
1, 1146389, Note_on_c, 0, 80, 89
1, 1150787, Note_off_c, 0, 80, 89
1, 1150787, Note_on_c, 0, 79, 94
1, 1155625, Note_off_c, 0, 79, 94
1, 1155625, Note_on_c, 0, 80, 83
1, 1159824, Note_off_c, 0, 80, 83
1, 1159824, Note_on_c, 0, 81, 83
1, 1162607, Note_off_c, 0, 81, 83
1, 1163534, Note_on_c, 0, 82, 97
1, 1175285, Note_off_c, 0, 82, 97
1, 1178494, Note_on_c, 0, 78, 91
1, 1189049, Note_off_c, 0, 78, 91
1, 1193667, Note_on_c, 0, 78, 87
1, 1202903, Note_off_c, 0, 78, 87
1, 1221156, Note_on_c, 0, 82, 110
1, 1229732, Note_off_c, 0, 82, 110
1, 1231931, Note_on_c, 0, 87, 100
1, 1243806, Note_off_c, 0, 87, 100
1, 1244025, Note_on_c, 0, 82, 93
1, 1249522, Note_off_c, 0, 82, 93
1, 1249961, Note_on_c, 0, 87, 98
1, 1258537, Note_off_c, 0, 87, 98
1, 1260296, Note_on_c, 0, 82, 89
1, 1264694, Note_off_c, 0, 82, 89
1, 1264694, Note_on_c, 0, 79, 87
1, 1273050, Note_off_c, 0, 79, 87
1, 1273050, Note_on_c, 0, 75, 81
1, 1277022, Note_off_c, 0, 75, 81
1, 1277022, Note_on_c, 0, 82, 99
1, 1291096, Note_off_c, 0, 82, 99
1, 1320551, Note_on_c, 0, 79, 100
1, 1326268, Note_off_c, 0, 79, 100
1, 1326268, Note_on_c, 0, 80, 93
1, 1330886, Note_on_c, 0, 81, 78
1, 1330886, Note_off_c, 0, 80, 93
1, 1334624, Note_off_c, 0, 81, 78
1, 1334624, Note_on_c, 0, 82, 102
1, 1343200, Note_off_c, 0, 82, 102
1, 1343419, Note_on_c, 0, 84, 96
1, 1348696, Note_off_c, 0, 84, 96
1, 1349355, Note_on_c, 0, 80, 91
1, 1357052, Note_off_c, 0, 80, 91
1, 1357271, Note_on_c, 0, 79, 95
1, 1363208, Note_on_c, 0, 72, 95
1, 1363208, Note_off_c, 0, 79, 95
1, 1370245, Note_off_c, 0, 72, 95
1, 1371619, Note_on_c, 0, 70, 99
1, 1377501, Note_off_c, 0, 70, 99
1, 1379232, Note_on_c, 0, 69, 85
1, 1383905, Note_off_c, 0, 69, 85
1, 1384757, Note_on_c, 0, 68, 93
1, 1389595, Note_off_c, 0, 68, 93
1, 1389595, Note_on_c, 0, 79, 96
1, 1404549, Note_off_c, 0, 79, 96
1, 1431818, Note_on_c, 0, 77, 110
1, 1440834, Note_off_c, 0, 77, 110
1, 1441493, Note_on_c, 0, 75, 94
1, 1445451, Note_off_c, 0, 75, 94
1, 1445890, Note_on_c, 0, 77, 114
1, 1455346, Note_off_c, 0, 77, 114
1, 1456005, Note_on_c, 0, 75, 94
1, 1460843, Note_off_c, 0, 75, 94
1, 1461062, Note_on_c, 0, 77, 112
1, 1470298, Note_off_c, 0, 77, 112
1, 1470517, Note_on_c, 0, 75, 74
1, 1475355, Note_off_c, 0, 75, 74
1, 1475355, Note_on_c, 0, 72, 100
1, 1485910, Note_off_c, 0, 72, 100
1, 1488988, Note_on_c, 0, 67, 95
1, 1492946, Note_off_c, 0, 67, 95
1, 1492946, Note_on_c, 0, 71, 95
1, 1497344, Note_off_c, 0, 71, 95
1, 1497344, Note_on_c, 0, 74, 104
1, 1501522, Note_off_c, 0, 74, 104
1, 1501522, Note_on_c, 0, 79, 102
1, 1511198, Note_off_c, 0, 79, 102
1, 1516695, Note_on_c, 0, 66, 107
1, 1520213, Note_off_c, 0, 66, 107
1, 1520213, Note_on_c, 0, 70, 105
1, 1525051, Note_off_c, 0, 70, 105
1, 1525051, Note_on_c, 0, 73, 102
1, 1528569, Note_off_c, 0, 73, 102
1, 1528788, Note_on_c, 0, 78, 106
1, 1541323, Note_off_c, 0, 78, 106
1, 1543522, Note_on_c, 0, 77, 109
1, 1552098, Note_on_c, 0, 79, 110
1, 1552098, Note_off_c, 0, 77, 109
1, 1558035, Note_off_c, 0, 79, 110
1, 1558694, Note_on_c, 0, 75, 88
1, 1567490, Note_off_c, 0, 75, 88
1, 1567490, Note_on_c, 0, 72, 96
1, 1572987, Note_off_c, 0, 72, 96
1, 1572987, Note_on_c, 0, 69, 90
1, 1579584, Note_off_c, 0, 69, 90
1, 1579584, Note_on_c, 0, 67, 87
1, 1585081, Note_off_c, 0, 67, 87
1, 1585740, Note_on_c, 0, 63, 96
1, 1592337, Note_off_c, 0, 63, 96
1, 1592996, Note_on_c, 0, 63, 96
1, 1597834, Note_off_c, 0, 63, 96
1, 1598493, Note_on_c, 0, 63, 90
1, 1607069, Note_off_c, 0, 63, 90
1, 1607508, Note_on_c, 0, 63, 97
1, 1612126, Note_on_c, 0, 65, 114
1, 1612126, Note_off_c, 0, 63, 97
1, 1620262, Note_off_c, 0, 65, 114
1, 1621141, Note_on_c, 0, 65, 108
1, 1624439, Note_off_c, 0, 65, 108
1, 1625098, Note_on_c, 0, 65, 109
1, 1633894, Note_off_c, 0, 65, 109
1, 1634773, Note_on_c, 0, 65, 101
1, 1638291, Note_off_c, 0, 65, 101
1, 1639170, Note_on_c, 0, 65, 118
1, 1649066, Note_off_c, 0, 65, 118
1, 1649945, Note_on_c, 0, 65, 100
1, 1653023, Note_off_c, 0, 65, 100
1, 1653462, Note_on_c, 0, 65, 103
1, 1662478, Note_off_c, 0, 65, 103
1, 1662917, Note_on_c, 0, 65, 86
1, 1666655, Note_off_c, 0, 65, 86
1, 1667534, Note_on_c, 0, 65, 112
1, 1676770, Note_off_c, 0, 65, 112
1, 1677649, Note_on_c, 0, 63, 102
1, 1682047, Note_off_c, 0, 63, 102
1, 1682047, Note_on_c, 0, 65, 115
1, 1693042, Note_off_c, 0, 65, 115
1, 1693042, Note_on_c, 0, 63, 100
1, 1697440, Note_off_c, 0, 63, 100
1, 1697641, Note_on_c, 0, 60, 102
1, 1704792, Note_off_c, 0, 60, 102
1, 1705874, Note_on_c, 0, 60, 98
1, 1711440, Note_off_c, 0, 60, 98
1, 1765612, Note_on_c, 0, 65, 95
1, 1770450, Note_off_c, 0, 65, 95
1, 1770450, Note_on_c, 0, 66, 114
1, 1774408, Note_off_c, 0, 66, 114
1, 1774408, Note_on_c, 0, 67, 99
1, 1778806, Note_off_c, 0, 67, 99
1, 1779245, Note_on_c, 0, 68, 117
1, 1788921, Note_off_c, 0, 68, 117
1, 1792879, Note_on_c, 0, 61, 93
1, 1797277, Note_on_c, 0, 63, 96
1, 1797277, Note_off_c, 0, 61, 93
1, 1802554, Note_off_c, 0, 63, 96
1, 1802554, Note_on_c, 0, 64, 106
1, 1806952, Note_off_c, 0, 64, 106
1, 1807391, Note_on_c, 0, 65, 109
1, 1817067, Note_off_c, 0, 65, 109
1, 1820585, Note_on_c, 0, 64, 108
1, 1824983, Note_off_c, 0, 64, 108
1, 1824983, Note_on_c, 0, 65, 100
1, 1829381, Note_on_c, 0, 66, 102
1, 1829381, Note_off_c, 0, 65, 100
1, 1834878, Note_off_c, 0, 66, 102
1, 1834878, Note_on_c, 0, 67, 116
1, 1842135, Note_off_c, 0, 67, 116
1, 1842794, Note_on_c, 0, 72, 109
1, 1849391, Note_off_c, 0, 72, 109
1, 1849610, Note_on_c, 0, 67, 107
1, 1857966, Note_off_c, 0, 67, 107
1, 1857966, Note_on_c, 0, 60, 100
1, 1863243, Note_off_c, 0, 60, 100
1, 1864122, Note_on_c, 0, 59, 108
1, 1872038, Note_off_c, 0, 59, 108
1, 1872038, Note_on_c, 0, 58, 106
1, 1875996, Note_off_c, 0, 58, 106
1, 1875996, Note_on_c, 0, 67, 106
1, 1885232, Note_off_c, 0, 67, 106
1, 1889630, Note_on_c, 0, 65, 108
1, 1898866, Note_off_c, 0, 65, 108
1, 1898866, Note_on_c, 0, 63, 107
1, 1908102, Note_off_c, 0, 63, 107
1, 1908102, Note_on_c, 0, 60, 90
1, 1918657, Note_off_c, 0, 60, 90
1, 1919096, Note_on_c, 0, 63, 115
1, 1924813, Note_off_c, 0, 63, 115
1, 1924813, Note_on_c, 0, 60, 84
1, 1937568, Note_off_c, 0, 60, 84
1, 1974074, Note_on_c, 0, 70, 111
1, 1982650, Note_off_c, 0, 70, 111
1, 1983529, Note_on_c, 0, 68, 117
1, 1988806, Note_off_c, 0, 68, 117
1, 1989245, Note_on_c, 0, 66, 111
1, 1998041, Note_off_c, 0, 66, 111
1, 1998260, Note_on_c, 0, 63, 102
1, 2002658, Note_off_c, 0, 63, 102
1, 2003977, Note_on_c, 0, 60, 98
1, 2011674, Note_off_c, 0, 60, 98
1, 2012113, Note_on_c, 0, 58, 81
1, 2017390, Note_off_c, 0, 58, 81
1, 2018235, Note_on_c, 0, 63, 105
1, 2028285, Note_off_c, 0, 63, 105
1, 2031243, Note_on_c, 0, 63, 99
1, 2041798, Note_off_c, 0, 63, 99
1, 2072366, Note_on_c, 0, 68, 118
1, 2079843, Note_off_c, 0, 68, 118
1, 2080502, Note_on_c, 0, 68, 111
1, 2085779, Note_off_c, 0, 68, 111
1, 2086730, Note_on_c, 0, 67, 115
1, 2093224, Note_off_c, 0, 67, 115
1, 2093997, Note_on_c, 0, 68, 113
1, 2099718, Note_off_c, 0, 68, 113
1, 2100731, Note_on_c, 0, 71, 112
1, 2106668, Note_off_c, 0, 71, 112
1, 2106668, Note_on_c, 0, 74, 120
1, 2112385, Note_off_c, 0, 74, 120
1, 2113044, Note_on_c, 0, 72, 117
1, 2121400, Note_off_c, 0, 72, 117
1, 2121400, Note_on_c, 0, 67, 94
1, 2127557, Note_off_c, 0, 67, 94
1, 2127996, Note_on_c, 0, 72, 109
1, 2134593, Note_off_c, 0, 72, 109
1, 2134593, Note_on_c, 0, 75, 98
1, 2139651, Note_off_c, 0, 75, 98
1, 2139651, Note_on_c, 0, 79, 112
1, 2147128, Note_off_c, 0, 79, 112
1, 2148007, Note_on_c, 0, 79, 111
1, 2158123, Note_off_c, 0, 79, 111
1, 2210243, Note_on_c, 0, 72, 101
1, 2214201, Note_off_c, 0, 72, 101
1, 2214420, Note_on_c, 0, 75, 93
1, 2218598, Note_off_c, 0, 75, 93
1, 2219037, Note_on_c, 0, 79, 105
1, 2222555, Note_off_c, 0, 79, 105
1, 2223874, Note_on_c, 0, 82, 95
1, 2233990, Note_off_c, 0, 82, 95
1, 2236848, Note_on_c, 0, 80, 96
1, 2246964, Note_off_c, 0, 80, 96
1, 2250922, Note_on_c, 0, 79, 101
1, 2260158, Note_off_c, 0, 79, 101
1, 2261037, Note_on_c, 0, 75, 83
1, 2264995, Note_off_c, 0, 75, 83
1, 2265214, Note_on_c, 0, 78, 104
1, 2274450, Note_off_c, 0, 78, 104
1, 2279288, Note_on_c, 0, 77, 106
1, 2288524, Note_off_c, 0, 77, 106
1, 2288524, Note_on_c, 0, 74, 102
1, 2292482, Note_off_c, 0, 74, 102
1, 2293581, Note_on_c, 0, 71, 102
1, 2302597, Note_off_c, 0, 71, 102
1, 2302816, Note_on_c, 0, 67, 94
1, 2306774, Note_off_c, 0, 67, 94
1, 2306993, Note_on_c, 0, 65, 92
1, 2317548, Note_off_c, 0, 65, 92
1, 2319967, Note_on_c, 0, 72, 106
1, 2328983, Note_off_c, 0, 72, 106
1, 2328983, Note_on_c, 0, 67, 100
1, 2334260, Note_on_c, 0, 72, 111
1, 2334260, Note_off_c, 0, 67, 100
1, 2345475, Note_off_c, 0, 72, 111
1, 2345475, Note_on_c, 0, 67, 108
1, 2350093, Note_off_c, 0, 67, 108
1, 2350093, Note_on_c, 0, 63, 95
1, 2357570, Note_off_c, 0, 63, 95
1, 2357570, Note_on_c, 0, 60, 91
1, 2361308, Note_off_c, 0, 60, 91
1, 2361967, Note_on_c, 0, 60, 99
1, 2372522, Note_off_c, 0, 60, 99
1, 2377580, Note_on_c, 0, 59, 9
1, 2382418, Note_off_c, 0, 59, 9
1, 2383297, Note_on_c, 0, 63, 81
1, 2386155, Note_off_c, 0, 63, 81
1, 2386155, Note_on_c, 0, 67, 92
1, 2390237, Note_off_c, 0, 67, 92
1, 2390237, Note_on_c, 0, 71, 103
1, 2403431, Note_off_c, 0, 71, 103
1, 2404846, Note_on_c, 0, 60, 104
1, 2408804, Note_off_c, 0, 60, 104
1, 2409023, Note_on_c, 0, 63, 94
1, 2412761, Note_on_c, 0, 67, 95
1, 2412761, Note_off_c, 0, 63, 94
1, 2417447, Note_off_c, 0, 67, 95
1, 2417447, Note_on_c, 0, 70, 110
1, 2429762, Note_off_c, 0, 70, 110
1, 2433651, Note_on_c, 0, 70, 100
1, 2443767, Note_off_c, 0, 70, 100
1, 2445526, Note_on_c, 0, 69, 104
1, 2457841, Note_off_c, 0, 69, 104
1, 2529093, Note_on_c, 0, 78, 102
1, 2541848, Note_off_c, 0, 78, 102
1, 2543167, Note_on_c, 0, 79, 113
1, 2555042, Note_off_c, 0, 79, 113
1, 2558464, Note_on_c, 0, 84, 111
1, 2567123, Note_off_c, 0, 84, 111
1, 2569115, Note_on_c, 0, 79, 108
1, 2572633, Note_off_c, 0, 79, 108
1, 2572633, Note_on_c, 0, 84, 112
1, 2582309, Note_off_c, 0, 84, 112
1, 2582309, Note_on_c, 0, 79, 99
1, 2585827, Note_off_c, 0, 79, 99
1, 2586926, Note_on_c, 0, 75, 99
1, 2595062, Note_on_c, 0, 72, 90
1, 2595062, Note_off_c, 0, 75, 99
1, 2606937, Note_off_c, 0, 72, 90
1, 2614414, Note_on_c, 0, 71, 116
1, 2623650, Note_off_c, 0, 71, 116
1, 2623650, Note_on_c, 0, 75, 102
1, 2627828, Note_on_c, 0, 79, 108
1, 2627828, Note_off_c, 0, 75, 102
1, 2639263, Note_off_c, 0, 79, 108
1, 2641022, Note_on_c, 0, 83, 102
1, 2655536, Note_off_c, 0, 83, 102
1, 2685224, Note_on_c, 0, 89, 108
1, 2692701, Note_off_c, 0, 89, 108
1, 2693755, Note_on_c, 0, 87, 86
1, 2698548, Note_off_c, 0, 87, 86
1, 2698857, Note_on_c, 0, 84, 97
1, 2708093, Note_off_c, 0, 84, 97
1, 2708532, Note_on_c, 0, 79, 57
1, 2713370, Note_off_c, 0, 79, 57
1, 2713589, Note_on_c, 0, 77, 106
1, 2721066, Note_off_c, 0, 77, 106
1, 2721285, Note_on_c, 0, 75, 96
1, 2725683, Note_on_c, 0, 79, 114
1, 2725683, Note_off_c, 0, 75, 96
1, 2735139, Note_off_c, 0, 79, 114
1, 2736238, Note_on_c, 0, 75, 93
1, 2741735, Note_off_c, 0, 75, 93
1, 2741954, Note_on_c, 0, 72, 94
1, 2749651, Note_off_c, 0, 72, 94
1, 2750750, Note_on_c, 0, 69, 90
1, 2756467, Note_off_c, 0, 69, 90
1, 2756467, Note_on_c, 0, 67, 99
1, 2763284, Note_off_c, 0, 67, 99
1, 2763284, Note_on_c, 0, 63, 89
1, 2768561, Note_off_c, 0, 63, 89
1, 2768561, Note_on_c, 0, 72, 116
1, 2776477, Note_off_c, 0, 72, 116
1, 2776696, Note_on_c, 0, 74, 117
1, 2782853, Note_off_c, 0, 74, 117
1, 2783072, Note_on_c, 0, 75, 103
1, 2791428, Note_off_c, 0, 75, 103
1, 2792393, Note_on_c, 0, 72, 99
1, 2795949, Note_off_c, 0, 72, 99
1, 2796258, Note_on_c, 0, 68, 102
1, 2803525, Note_off_c, 0, 68, 102
1, 2805280, Note_on_c, 0, 65, 95
1, 2809678, Note_off_c, 0, 65, 95
1, 2809678, Note_on_c, 0, 70, 98
1, 2817155, Note_off_c, 0, 70, 98
1, 2818034, Note_on_c, 0, 71, 104
1, 2823311, Note_off_c, 0, 71, 104
1, 2824190, Note_on_c, 0, 72, 114
1, 2831667, Note_off_c, 0, 72, 114
1, 2831667, Note_on_c, 0, 65, 106
1, 2837604, Note_off_c, 0, 65, 106
1, 2837604, Note_on_c, 0, 67, 106
1, 2844201, Note_on_c, 0, 68, 110
1, 2844201, Note_off_c, 0, 67, 106
1, 2849039, Note_off_c, 0, 68, 110
1, 2850578, Note_on_c, 0, 60, 105
1, 2858494, Note_off_c, 0, 60, 105
1, 2858494, Note_on_c, 0, 61, 89
1, 2862892, Note_off_c, 0, 61, 89
1, 2862892, Note_on_c, 0, 62, 114
1, 2871028, Note_off_c, 0, 62, 114
1, 2871089, Note_on_c, 0, 70, 109
1, 2877404, Note_off_c, 0, 70, 109
1, 2877404, Note_on_c, 0, 67, 107
1, 2883922, Note_on_c, 0, 60, 107
1, 2883922, Note_off_c, 0, 67, 107
1, 2890416, Note_off_c, 0, 60, 107
1, 2891034, Note_on_c, 0, 61, 97
1, 2896136, Note_off_c, 0, 61, 97
1, 2896754, Note_on_c, 0, 62, 110
1, 2901812, Note_off_c, 0, 62, 110
1, 2902939, Note_on_c, 0, 68, 119
1, 2911955, Note_off_c, 0, 68, 119
1, 2912061, Note_on_c, 0, 60, 105
1, 2916390, Note_off_c, 0, 60, 105
1, 2917204, Note_on_c, 0, 61, 91
1, 2923361, Note_off_c, 0, 61, 91
1, 2923361, Note_on_c, 0, 62, 107
1, 2929958, Note_off_c, 0, 62, 107
1, 2929958, Note_on_c, 0, 67, 110
1, 2937435, Note_off_c, 0, 67, 110
1, 2937881, Note_on_c, 0, 60, 103
1, 2942983, Note_off_c, 0, 60, 103
1, 2943151, Note_on_c, 0, 61, 89
1, 2949748, Note_on_c, 0, 62, 107
1, 2949748, Note_off_c, 0, 61, 89
1, 2955245, Note_off_c, 0, 62, 107
1, 2955245, Note_on_c, 0, 66, 118
1, 2963601, Note_off_c, 0, 66, 118
1, 2964260, Note_on_c, 0, 62, 114
1, 2969537, Note_off_c, 0, 62, 114
1, 2969537, Note_on_c, 0, 58, 106
1, 2977234, Note_off_c, 0, 58, 106
1, 2977234, Note_on_c, 0, 54, 95
1, 2982731, Note_off_c, 0, 54, 95
1, 2982731, Note_on_c, 0, 58, 102
1, 2991087, Note_off_c, 0, 58, 102
1, 2996584, Note_on_c, 0, 60, 113
1, 3000542, Note_on_c, 0, 58, 102
1, 3000542, Note_off_c, 0, 60, 113
1, 3006259, Note_off_c, 0, 58, 102
1, 3006918, Note_on_c, 0, 65, 103
1, 3012195, Note_off_c, 0, 65, 103
1, 3012195, Note_on_c, 0, 63, 104
1, 3015933, Note_off_c, 0, 63, 104
1, 3015933, Note_on_c, 0, 72, 106
1, 3020331, Note_off_c, 0, 72, 106
1, 3020770, Note_on_c, 0, 70, 98
1, 3025388, Note_off_c, 0, 70, 98
1, 3025388, Note_on_c, 0, 77, 99
1, 3038582, Note_off_c, 0, 77, 99
1, 3138204, Note_on_c, 0, 87, 105
1, 3145461, Note_off_c, 0, 87, 105
1, 3153158, Note_on_c, 0, 87, 103
1, 3160195, Note_off_c, 0, 87, 103
1, 3166572, Note_on_c, 0, 87, 105
1, 3173829, Note_off_c, 0, 87, 105
1, 3180426, Note_on_c, 0, 84, 105
1, 3188782, Note_off_c, 0, 84, 105
1, 3189881, Note_on_c, 0, 78, 101
1, 3198017, Note_off_c, 0, 78, 101
1, 3204394, Note_on_c, 0, 75, 91
1, 3209891, Note_off_c, 0, 75, 91
1, 3210550, Note_on_c, 0, 72, 106
1, 3218686, Note_off_c, 0, 72, 106
1, 3221984, Note_on_c, 0, 75, 100
1, 3231440, Note_off_c, 0, 75, 100
1, 3232759, Note_on_c, 0, 75, 93
1, 3236277, Note_off_c, 0, 75, 93
1, 3237376, Note_on_c, 0, 75, 99
1, 3245292, Note_off_c, 0, 75, 99
1, 3245511, Note_on_c, 0, 72, 96
1, 3250569, Note_off_c, 0, 72, 96
1, 3250569, Note_on_c, 0, 75, 109
1, 3257386, Note_off_c, 0, 75, 109
1, 3257386, Note_on_c, 0, 79, 104
1, 3269701, Note_off_c, 0, 79, 104
1, 3276078, Note_on_c, 0, 75, 92
1, 3289053, Note_off_c, 0, 75, 92
1, 3291032, Note_on_c, 0, 75, 90
1, 3300048, Note_off_c, 0, 75, 90
1, 3300487, Note_on_c, 0, 72, 76
1, 3303785, Note_off_c, 0, 72, 76
1, 3304664, Note_on_c, 0, 75, 93
1, 3311481, Note_off_c, 0, 75, 93
1, 3312580, Note_on_c, 0, 79, 110
1, 3323575, Note_off_c, 0, 79, 110
1, 3326873, Note_on_c, 0, 75, 89
1, 3330391, Note_on_c, 0, 79, 112
1, 3330391, Note_off_c, 0, 75, 89
1, 3340946, Note_off_c, 0, 79, 112
1, 3341825, Note_on_c, 0, 75, 90
1, 3347102, Note_off_c, 0, 75, 90
1, 3347761, Note_on_c, 0, 72, 102
1, 3354578, Note_off_c, 0, 72, 102
1, 3354797, Note_on_c, 0, 69, 107
1, 3359855, Note_off_c, 0, 69, 107
1, 3359855, Note_on_c, 0, 67, 103
1, 3367991, Note_off_c, 0, 67, 103
1, 3367991, Note_on_c, 0, 63, 95
1, 3374148, Note_off_c, 0, 63, 95
1, 3374807, Note_on_c, 0, 75, 103
1, 3382723, Note_off_c, 0, 75, 103
1, 3388000, Note_on_c, 0, 75, 95
1, 3390199, Note_off_c, 0, 75, 95
1, 3390199, Note_on_c, 0, 72, 107
1, 3393717, Note_off_c, 0, 72, 107
1, 3393717, Note_on_c, 0, 68, 108
1, 3396355, Note_off_c, 0, 68, 108
1, 3396355, Note_on_c, 0, 65, 108
1, 3398554, Note_off_c, 0, 65, 108
1, 3398554, Note_on_c, 0, 68, 103
1, 3401632, Note_on_c, 0, 65, 103
1, 3401632, Note_off_c, 0, 68, 103
1, 3403831, Note_off_c, 0, 65, 103
1, 3403831, Note_on_c, 0, 63, 105
1, 3406909, Note_off_c, 0, 63, 105
1, 3406909, Note_on_c, 0, 60, 105
1, 3410427, Note_off_c, 0, 60, 105
1, 3410427, Note_on_c, 0, 63, 116
1, 3413065, Note_off_c, 0, 63, 116
1, 3413065, Note_on_c, 0, 59, 109
1, 3415264, Note_off_c, 0, 59, 109
1, 3415264, Note_on_c, 0, 56, 114
1, 3417902, Note_off_c, 0, 56, 114
1, 3417902, Note_on_c, 0, 53, 111
1, 3421420, Note_off_c, 0, 53, 111
1, 3421420, Note_on_c, 0, 56, 112
1, 3424058, Note_off_c, 0, 56, 112
1, 3424058, Note_on_c, 0, 53, 108
1, 3426696, Note_off_c, 0, 53, 108
1, 3426696, Note_on_c, 0, 56, 108
1, 3430214, Note_off_c, 0, 56, 108
1, 3430214, Note_on_c, 0, 53, 94
1, 3437251, Note_off_c, 0, 53, 94
1, 3443848, Note_on_c, 0, 58, 102
1, 3452644, Note_off_c, 0, 58, 102
1, 3452644, Note_on_c, 0, 63, 113
1, 3457921, Note_off_c, 0, 63, 113
1, 3457921, Note_on_c, 0, 67, 108
1, 3471555, Note_off_c, 0, 67, 108
1, 3471774, Note_on_c, 0, 70, 110
1, 3484529, Note_off_c, 0, 70, 110
1, 3487683, Note_on_c, 0, 72, 120
1, 3495160, Note_off_c, 0, 72, 120
1, 3495744, Note_on_c, 0, 67, 96
1, 3514656, Note_off_c, 0, 67, 96
1, 3569195, Note_on_c, 0, 62, 127
1, 3576012, Note_off_c, 0, 62, 127
1, 3576012, Note_on_c, 0, 63, 118
1, 3581729, Note_off_c, 0, 63, 118
1, 3581729, Note_on_c, 0, 67, 118
1, 3588546, Note_off_c, 0, 67, 118
1, 3588546, Note_on_c, 0, 70, 111
1, 3595143, Note_off_c, 0, 70, 111
1, 3595802, Note_on_c, 0, 74, 122
1, 3602619, Note_off_c, 0, 74, 122
1, 3602619, Note_on_c, 0, 75, 109
1, 3608556, Note_off_c, 0, 75, 109
1, 3608556, Note_on_c, 0, 79, 104
1, 3616692, Note_off_c, 0, 79, 104
1, 3616692, Note_on_c, 0, 82, 103
1, 3624169, Note_off_c, 0, 82, 103
1, 3624169, Note_on_c, 0, 86, 118
1, 3634065, Note_off_c, 0, 86, 118
1, 3636044, Note_on_c, 0, 84, 109
1, 3645940, Note_off_c, 0, 84, 109
1, 3651217, Note_on_c, 0, 84, 108
1, 3658474, Note_off_c, 0, 84, 108
1, 3658913, Note_on_c, 0, 86, 121
1, 3664850, Note_off_c, 0, 86, 121
1, 3667269, Note_on_c, 0, 87, 114
1, 3670347, Note_off_c, 0, 87, 114
1, 3670347, Note_on_c, 0, 84, 105
1, 3672985, Note_off_c, 0, 84, 105
1, 3672985, Note_on_c, 0, 87, 94
1, 3676943, Note_off_c, 0, 87, 94
1, 3676943, Note_on_c, 0, 84, 93
1, 3678702, Note_off_c, 0, 84, 93
1, 3678702, Note_on_c, 0, 80, 86
1, 3681340, Note_off_c, 0, 80, 86
1, 3681340, Note_on_c, 0, 77, 91
1, 3684418, Note_on_c, 0, 80, 91
1, 3684418, Note_off_c, 0, 77, 91
1, 3687496, Note_off_c, 0, 80, 91
1, 3687496, Note_on_c, 0, 77, 92
1, 3691454, Note_off_c, 0, 77, 92
1, 3691454, Note_on_c, 0, 72, 105
1, 3694092, Note_off_c, 0, 72, 105
1, 3694092, Note_on_c, 0, 68, 103
1, 3697170, Note_off_c, 0, 68, 103
1, 3697170, Note_on_c, 0, 72, 96
1, 3699808, Note_off_c, 0, 72, 96
1, 3700247, Note_on_c, 0, 68, 100
1, 3703325, Note_off_c, 0, 68, 100
1, 3708602, Note_on_c, 0, 72, 103
1, 3715859, Note_off_c, 0, 72, 103
1, 3715859, Note_on_c, 0, 73, 106
1, 3721356, Note_off_c, 0, 73, 106
1, 3721575, Note_on_c, 0, 74, 106
1, 3735209, Note_off_c, 0, 74, 106
1, 3735868, Note_on_c, 0, 82, 105
1, 3747743, Note_off_c, 0, 82, 105
1, 3749502, Note_on_c, 0, 79, 99
1, 3764016, Note_off_c, 0, 79, 99
1, 3764455, Note_on_c, 0, 79, 110
1, 3767973, Note_off_c, 0, 79, 110
1, 3767973, Note_on_c, 0, 79, 109
1, 3773690, Note_off_c, 0, 79, 109
1, 3773690, Note_on_c, 0, 79, 111
1, 3777868, Note_off_c, 0, 79, 111
1, 3777868, Note_on_c, 0, 84, 105
1, 3787544, Note_off_c, 0, 84, 105
1, 3792602, Note_on_c, 0, 72, 94
1, 3796120, Note_on_c, 0, 72, 98
1, 3796120, Note_off_c, 0, 72, 94
1, 3800518, Note_off_c, 0, 72, 98
1, 3800518, Note_on_c, 0, 72, 98
1, 3805356, Note_off_c, 0, 72, 98
1, 3806235, Note_on_c, 0, 79, 112
1, 3815911, Note_off_c, 0, 79, 112
1, 3820749, Note_on_c, 0, 67, 98
1, 3824047, Note_off_c, 0, 67, 98
1, 3824047, Note_on_c, 0, 67, 100
1, 3829105, Note_off_c, 0, 67, 100
1, 3829105, Note_on_c, 0, 67, 100
1, 3832623, Note_off_c, 0, 67, 100
1, 3833502, Note_on_c, 0, 72, 114
1, 3842298, Note_off_c, 0, 72, 114
1, 3849555, Note_on_c, 0, 60, 96
1, 3856152, Note_off_c, 0, 60, 96
1, 3856152, Note_on_c, 0, 63, 100
1, 3871766, Note_off_c, 0, 63, 100
1, 3871766, End_track
0, 0, End_of_file
