0, 0, Header, 1, 1, 192
1, 0, Start_track
1, 0, Title_t, "Melody"
1, 0, Tempo, 300000
1, 0, Key_signature, -4, "major"
1, 0, Time_signature, 4, 2, 24, 8
1, 2548, Note_on_c, 0, 75, 107
1, 2610, Note_off_c, 0, 75, 107
1, 2625, Note_on_c, 0, 77, 96
1, 2717, Note_off_c, 0, 77, 96
1, 2741, Note_on_c, 0, 79, 90
1, 2796, Note_off_c, 0, 79, 90
1, 2805, Note_on_c, 0, 80, 110
1, 2906, Note_off_c, 0, 80, 110
1, 2916, Note_on_c, 0, 80, 111
1, 2992, Note_off_c, 0, 80, 111
1, 2992, Note_on_c, 0, 79, 106
1, 3088, Note_off_c, 0, 79, 106
1, 3102, Note_on_c, 0, 77, 102
1, 3185, Note_off_c, 0, 77, 102
1, 3190, Note_on_c, 0, 79, 103
1, 3282, Note_off_c, 0, 79, 103
1, 3302, Note_on_c, 0, 79, 95
1, 3354, Note_off_c, 0, 79, 95
1, 3371, Note_on_c, 0, 77, 98
1, 3493, Note_off_c, 0, 77, 98
1, 3497, Note_on_c, 0, 75, 101
1, 3576, Note_off_c, 0, 75, 101
1, 3579, Note_on_c, 0, 77, 111
1, 3673, Note_off_c, 0, 77, 111
1, 3689, Note_on_c, 0, 77, 101
1, 3865, Note_off_c, 0, 77, 101
1, 4063, Note_on_c, 0, 75, 113
1, 4146, Note_off_c, 0, 75, 113
1, 4155, Note_on_c, 0, 77, 94
1, 4236, Note_off_c, 0, 77, 94
1, 4249, Note_on_c, 0, 79, 97
1, 4310, Note_off_c, 0, 79, 97
1, 4324, Note_on_c, 0, 80, 97
1, 4441, Note_off_c, 0, 80, 97
1, 4450, Note_on_c, 0, 80, 114
1, 4520, Note_off_c, 0, 80, 114
1, 4537, Note_on_c, 0, 79, 102
1, 4625, Note_off_c, 0, 79, 102
1, 4635, Note_on_c, 0, 77, 99
1, 4710, Note_off_c, 0, 77, 99
1, 4710, Note_on_c, 0, 79, 109
1, 4808, Note_off_c, 0, 79, 109
1, 4824, Note_on_c, 0, 79, 121
1, 4907, Note_off_c, 0, 79, 121
1, 4929, Note_on_c, 0, 77, 103
1, 5029, Note_off_c, 0, 77, 103
1, 5047, Note_on_c, 0, 75, 100
1, 5099, Note_off_c, 0, 75, 100
1, 5104, Note_on_c, 0, 77, 107
1, 5202, Note_off_c, 0, 77, 107
1, 5221, Note_on_c, 0, 77, 101
1, 5380, Note_off_c, 0, 77, 101
1, 5611, Note_on_c, 0, 75, 99
1, 5672, Note_off_c, 0, 75, 99
1, 5688, Note_on_c, 0, 77, 96
1, 5784, Note_off_c, 0, 77, 96
1, 5785, Note_on_c, 0, 79, 95
1, 5861, Note_off_c, 0, 79, 95
1, 5877, Note_on_c, 0, 80, 109
1, 5956, Note_off_c, 0, 80, 109
1, 5980, Note_on_c, 0, 80, 109
1, 6048, Note_off_c, 0, 80, 109
1, 6059, Note_on_c, 0, 75, 108
1, 6228, Note_off_c, 0, 75, 108
1, 6242, Note_on_c, 0, 77, 101
1, 6444, Note_off_c, 0, 77, 101
1, 6447, Note_on_c, 0, 72, 94
1, 6493, Note_off_c, 0, 72, 94
1, 6500, Note_on_c, 0, 73, 108
1, 6561, Note_off_c, 0, 73, 108
1, 6562, Note_on_c, 0, 76, 120
1, 6634, Note_off_c, 0, 76, 120
1, 6648, Note_on_c, 0, 79, 106
1, 6755, Note_off_c, 0, 79, 106
1, 6762, Note_on_c, 0, 83, 103
1, 6838, Note_off_c, 0, 83, 103
1, 6838, Note_on_c, 0, 79, 102
1, 6990, Note_off_c, 0, 79, 102
1, 7021, Note_on_c, 0, 73, 117
1, 7158, Note_off_c, 0, 73, 117
1, 7158, Note_on_c, 0, 71, 103
1, 7221, Note_off_c, 0, 71, 103
1, 7230, Note_on_c, 0, 67, 101
1, 7330, Note_off_c, 0, 67, 101
1, 7335, Note_on_c, 0, 64, 96
1, 7394, Note_off_c, 0, 64, 96
1, 7405, Note_on_c, 0, 70, 108
1, 7507, Note_off_c, 0, 70, 108
1, 7507, Note_on_c, 0, 68, 107
1, 7575, Note_off_c, 0, 68, 107
1, 7596, Note_on_c, 0, 63, 109
1, 7707, Note_off_c, 0, 63, 109
1, 7795, Note_on_c, 0, 58, 99
1, 7873, Note_off_c, 0, 58, 99
1, 7873, Note_on_c, 0, 63, 113
1, 7938, Note_off_c, 0, 63, 113
1, 7949, Note_on_c, 0, 58, 95
1, 8067, Note_off_c, 0, 58, 95
1, 8154, Note_on_c, 0, 63, 106
1, 8518, Note_off_c, 0, 63, 106
1, 9038, Note_on_c, 0, 63, 102
1, 9091, Note_off_c, 0, 63, 102
1, 9107, Note_on_c, 0, 68, 106
1, 9244, Note_off_c, 0, 68, 106
1, 9292, Note_on_c, 0, 75, 117
1, 9488, Note_off_c, 0, 75, 117
1, 9502, Note_on_c, 0, 73, 106
1, 9648, Note_off_c, 0, 73, 106
1, 9683, Note_on_c, 0, 75, 108
1, 9868, Note_off_c, 0, 75, 108
1, 9877, Note_on_c, 0, 73, 114
1, 9992, Note_off_c, 0, 73, 114
1, 10029, Note_on_c, 0, 71, 110
1, 10116, Note_off_c, 0, 71, 110
1, 10205, Note_on_c, 0, 68, 88
1, 10381, Note_off_c, 0, 68, 88
1, 10581, Note_on_c, 0, 63, 117
1, 10646, Note_off_c, 0, 63, 117
1, 10660, Note_on_c, 0, 68, 109
1, 10821, Note_off_c, 0, 68, 109
1, 10841, Note_on_c, 0, 75, 109
1, 11023, Note_off_c, 0, 75, 109
1, 11041, Note_on_c, 0, 73, 105
1, 11191, Note_off_c, 0, 73, 105
1, 11217, Note_on_c, 0, 75, 110
1, 11421, Note_off_c, 0, 75, 110
1, 11437, Note_on_c, 0, 73, 113
1, 11555, Note_off_c, 0, 73, 113
1, 11560, Note_on_c, 0, 75, 106
1, 11755, Note_off_c, 0, 75, 106
1, 11814, Note_on_c, 0, 77, 96
1, 11880, Note_off_c, 0, 77, 96
1, 11902, Note_on_c, 0, 78, 111
1, 11976, Note_off_c, 0, 78, 111
1, 11992, Note_on_c, 0, 80, 114
1, 12125, Note_off_c, 0, 80, 114
1, 12132, Note_on_c, 0, 77, 96
1, 12193, Note_off_c, 0, 77, 96
1, 12198, Note_on_c, 0, 75, 108
1, 12283, Note_off_c, 0, 75, 108
1, 12303, Note_on_c, 0, 73, 108
1, 12392, Note_off_c, 0, 73, 108
1, 12406, Note_on_c, 0, 70, 97
1, 12565, Note_off_c, 0, 70, 97
1, 12576, Note_on_c, 0, 63, 96
1, 12641, Note_off_c, 0, 63, 96
1, 12648, Note_on_c, 0, 65, 91
1, 12720, Note_off_c, 0, 65, 91
1, 12749, Note_on_c, 0, 70, 111
1, 12884, Note_off_c, 0, 70, 111
1, 12893, Note_on_c, 0, 68, 105
1, 12972, Note_off_c, 0, 68, 105
1, 12983, Note_on_c, 0, 64, 101
1, 13070, Note_off_c, 0, 64, 101
1, 13083, Note_on_c, 0, 61, 92
1, 13161, Note_off_c, 0, 61, 92
1, 13168, Note_on_c, 0, 58, 96
1, 13241, Note_off_c, 0, 58, 96
1, 13267, Note_on_c, 0, 61, 103
1, 13337, Note_off_c, 0, 61, 103
1, 13355, Note_on_c, 0, 61, 107
1, 13459, Note_off_c, 0, 61, 107
1, 13469, Note_on_c, 0, 60, 106
1, 13513, Note_off_c, 0, 60, 106
1, 13539, Note_on_c, 0, 60, 93
1, 13627, Note_off_c, 0, 60, 93
1, 13632, Note_on_c, 0, 60, 103
1, 13679, Note_off_c, 0, 60, 103
1, 13697, Note_on_c, 0, 60, 95
1, 13809, Note_off_c, 0, 60, 95
1, 13837, Note_on_c, 0, 63, 98
1, 13889, Note_off_c, 0, 63, 98
1, 13900, Note_on_c, 0, 68, 113
1, 14054, Note_off_c, 0, 68, 113
1, 14093, Note_on_c, 0, 75, 110
1, 14241, Note_off_c, 0, 75, 110
1, 14278, Note_on_c, 0, 80, 110
1, 14515, Note_off_c, 0, 80, 110
1, 15044, Note_on_c, 0, 64, 100
1, 15160, Note_off_c, 0, 64, 100
1, 15170, Note_on_c, 0, 65, 98
1, 15229, Note_off_c, 0, 65, 98
1, 15231, Note_on_c, 0, 68, 117
1, 15327, Note_off_c, 0, 68, 117
1, 15350, Note_on_c, 0, 70, 108
1, 15436, Note_off_c, 0, 70, 108
1, 15446, Note_on_c, 0, 72, 107
1, 15524, Note_off_c, 0, 72, 107
1, 15547, Note_on_c, 0, 77, 103
1, 15641, Note_off_c, 0, 77, 103
1, 15646, Note_on_c, 0, 72, 96
1, 15800, Note_off_c, 0, 72, 96
1, 15802, Note_on_c, 0, 71, 101
1, 15898, Note_off_c, 0, 71, 101
1, 15921, Note_on_c, 0, 77, 94
1, 16009, Note_off_c, 0, 77, 94
1, 16027, Note_on_c, 0, 71, 96
1, 16157, Note_off_c, 0, 71, 96
1, 16170, Note_on_c, 0, 70, 108
1, 16313, Note_off_c, 0, 70, 108
1, 16320, Note_on_c, 0, 77, 92
1, 16395, Note_off_c, 0, 77, 92
1, 16395, Note_on_c, 0, 70, 97
1, 16538, Note_off_c, 0, 70, 97
1, 16553, Note_on_c, 0, 68, 111
1, 16706, Note_off_c, 0, 68, 111
1, 16706, Note_on_c, 0, 77, 113
1, 16737, Note_off_c, 0, 77, 113
1, 16750, Note_on_c, 0, 68, 106
1, 16914, Note_off_c, 0, 68, 106
1, 16934, Note_on_c, 0, 67, 98
1, 17059, Note_off_c, 0, 67, 98
1, 17069, Note_on_c, 0, 77, 100
1, 17108, Note_off_c, 0, 77, 100
1, 17126, Note_on_c, 0, 67, 96
1, 17301, Note_off_c, 0, 67, 96
1, 17301, Note_on_c, 0, 65, 95
1, 17502, Note_off_c, 0, 65, 95
1, 17551, Note_on_c, 0, 65, 106
1, 17665, Note_off_c, 0, 65, 106
1, 17672, Note_on_c, 0, 67, 102
1, 17721, Note_off_c, 0, 67, 102
1, 17734, Note_on_c, 0, 68, 103
1, 17820, Note_off_c, 0, 68, 103
1, 17825, Note_on_c, 0, 70, 110
1, 17908, Note_off_c, 0, 70, 110
1, 17918, Note_on_c, 0, 67, 100
1, 17998, Note_off_c, 0, 67, 100
1, 18013, Note_on_c, 0, 68, 120
1, 18101, Note_off_c, 0, 68, 120
1, 18114, Note_on_c, 0, 65, 88
1, 18249, Note_off_c, 0, 65, 88
1, 18290, Note_on_c, 0, 63, 108
1, 18338, Note_off_c, 0, 63, 108
1, 18347, Note_on_c, 0, 68, 112
1, 18400, Note_off_c, 0, 68, 112
1, 18409, Note_on_c, 0, 71, 90
1, 18457, Note_off_c, 0, 71, 90
1, 18465, Note_on_c, 0, 78, 114
1, 18689, Note_off_c, 0, 78, 114
1, 18696, Note_on_c, 0, 75, 105
1, 18800, Note_off_c, 0, 75, 105
1, 18805, Note_on_c, 0, 73, 101
1, 18885, Note_off_c, 0, 73, 101
1, 18895, Note_on_c, 0, 71, 98
1, 19007, Note_off_c, 0, 71, 98
1, 19025, Note_on_c, 0, 68, 110
1, 19171, Note_off_c, 0, 68, 110
1, 19186, Note_on_c, 0, 66, 107
1, 19238, Note_off_c, 0, 66, 107
1, 19238, Note_on_c, 0, 68, 121
1, 19347, Note_off_c, 0, 68, 121
1, 19349, Note_on_c, 0, 66, 106
1, 19401, Note_off_c, 0, 66, 106
1, 19416, Note_on_c, 0, 68, 108
1, 19648, Note_off_c, 0, 68, 108
1, 19648, Note_on_c, 0, 70, 110
1, 19692, Note_off_c, 0, 70, 110
1, 19697, Note_on_c, 0, 73, 109
1, 19767, Note_off_c, 0, 73, 109
1, 19767, Note_on_c, 0, 78, 122
1, 19897, Note_off_c, 0, 78, 122
1, 19912, Note_on_c, 0, 76, 98
1, 19979, Note_off_c, 0, 76, 98
1, 19997, Note_on_c, 0, 73, 102
1, 20119, Note_off_c, 0, 73, 102
1, 20119, Note_on_c, 0, 71, 99
1, 20184, Note_off_c, 0, 71, 99
1, 20189, Note_on_c, 0, 68, 104
1, 20361, Note_off_c, 0, 68, 104
1, 20387, Note_on_c, 0, 67, 111
1, 20462, Note_off_c, 0, 67, 111
1, 20475, Note_on_c, 0, 71, 107
1, 20558, Note_off_c, 0, 71, 107
1, 20558, Note_on_c, 0, 64, 99
1, 20652, Note_off_c, 0, 64, 99
1, 20665, Note_on_c, 0, 63, 117
1, 20743, Note_off_c, 0, 63, 117
1, 20756, Note_on_c, 0, 59, 109
1, 20834, Note_off_c, 0, 59, 109
1, 20857, Note_on_c, 0, 63, 108
1, 20904, Note_off_c, 0, 63, 108
1, 20935, Note_on_c, 0, 59, 111
1, 21021, Note_off_c, 0, 59, 111
1, 21036, Note_on_c, 0, 63, 104
1, 21124, Note_off_c, 0, 63, 104
1, 21236, Note_on_c, 0, 60, 115
1, 21303, Note_off_c, 0, 60, 115
1, 21310, Note_on_c, 0, 63, 112
1, 21435, Note_off_c, 0, 63, 112
1, 21487, Note_on_c, 0, 68, 115
1, 21756, Note_off_c, 0, 68, 115
1, 22288, Note_on_c, 0, 63, 108
1, 22335, Note_off_c, 0, 63, 108
1, 22335, Note_on_c, 0, 68, 114
1, 22397, Note_off_c, 0, 68, 114
1, 22404, Note_on_c, 0, 72, 107
1, 22458, Note_off_c, 0, 72, 107
1, 22465, Note_on_c, 0, 75, 120
1, 22671, Note_off_c, 0, 75, 120
1, 22832, Note_on_c, 0, 63, 106
1, 22884, Note_off_c, 0, 63, 106
1, 22904, Note_on_c, 0, 68, 110
1, 22966, Note_off_c, 0, 68, 110
1, 22966, Note_on_c, 0, 72, 110
1, 23023, Note_off_c, 0, 72, 110
1, 23041, Note_on_c, 0, 75, 117
1, 23247, Note_off_c, 0, 75, 117
1, 23424, Note_on_c, 0, 63, 116
1, 23491, Note_off_c, 0, 63, 116
1, 23496, Note_on_c, 0, 68, 117
1, 23556, Note_off_c, 0, 68, 117
1, 23558, Note_on_c, 0, 72, 100
1, 23610, Note_off_c, 0, 72, 100
1, 23623, Note_on_c, 0, 75, 118
1, 23761, Note_off_c, 0, 75, 118
1, 23767, Note_on_c, 0, 74, 111
1, 23813, Note_off_c, 0, 74, 111
1, 23817, Note_on_c, 0, 73, 107
1, 23934, Note_off_c, 0, 73, 107
1, 23939, Note_on_c, 0, 71, 100
1, 23996, Note_off_c, 0, 71, 100
1, 24010, Note_on_c, 0, 72, 114
1, 24110, Note_off_c, 0, 72, 114
1, 24117, Note_on_c, 0, 60, 114
1, 24195, Note_off_c, 0, 60, 114
1, 24204, Note_on_c, 0, 65, 106
1, 24285, Note_off_c, 0, 65, 106
1, 24301, Note_on_c, 0, 68, 118
1, 24457, Note_off_c, 0, 68, 118
1, 24481, Note_on_c, 0, 65, 89
1, 24520, Note_off_c, 0, 65, 89
1, 24544, Note_on_c, 0, 68, 118
1, 24759, Note_off_c, 0, 68, 118
1, 24913, Note_on_c, 0, 68, 121
1, 25070, Note_off_c, 0, 68, 121
1, 25097, Note_on_c, 0, 68, 127
1, 25214, Note_off_c, 0, 68, 127
1, 25316, Note_on_c, 0, 71, 118
1, 25408, Note_off_c, 0, 71, 118
1, 25421, Note_on_c, 0, 68, 94
1, 25502, Note_off_c, 0, 68, 94
1, 25516, Note_on_c, 0, 65, 103
1, 25638, Note_off_c, 0, 65, 103
1, 25688, Note_on_c, 0, 63, 102
1, 25816, Note_off_c, 0, 63, 102
1, 25993, Note_on_c, 0, 68, 120
1, 26204, Note_off_c, 0, 68, 120
1, 26449, Note_on_c, 0, 68, 126
1, 26584, Note_off_c, 0, 68, 126
1, 26649, Note_on_c, 0, 68, 123
1, 26824, Note_off_c, 0, 68, 123
1, 26824, Note_on_c, 0, 71, 115
1, 26936, Note_off_c, 0, 71, 115
1, 26946, Note_on_c, 0, 68, 93
1, 27032, Note_off_c, 0, 68, 93
1, 27045, Note_on_c, 0, 65, 104
1, 27172, Note_off_c, 0, 65, 104
1, 27173, Note_on_c, 0, 64, 94
1, 27221, Note_off_c, 0, 64, 94
1, 27224, Note_on_c, 0, 63, 119
1, 27334, Note_off_c, 0, 63, 119
1, 27366, Note_on_c, 0, 68, 114
1, 27607, Note_off_c, 0, 68, 114
1, 27648, Note_on_c, 0, 71, 113
1, 27812, Note_off_c, 0, 71, 113
1, 28025, Note_on_c, 0, 68, 115
1, 28318, Note_off_c, 0, 68, 115
1, 28328, Note_on_c, 0, 71, 119
1, 28579, Note_off_c, 0, 71, 119
1, 28777, Note_on_c, 0, 68, 98
1, 28881, Note_off_c, 0, 68, 98
1, 28921, Note_on_c, 0, 68, 110
1, 29129, Note_off_c, 0, 68, 110
1, 29147, Note_on_c, 0, 71, 112
1, 29332, Note_off_c, 0, 71, 112
1, 29561, Note_on_c, 0, 68, 118
1, 29824, Note_off_c, 0, 68, 118
1, 29850, Note_on_c, 0, 71, 116
1, 30111, Note_off_c, 0, 71, 116
1, 30437, Note_on_c, 0, 68, 109
1, 30640, Note_off_c, 0, 68, 109
1, 30694, Note_on_c, 0, 71, 114
1, 30895, Note_off_c, 0, 71, 114
1, 31085, Note_on_c, 0, 63, 118
1, 31246, Note_off_c, 0, 63, 118
1, 31274, Note_on_c, 0, 63, 123
1, 31422, Note_off_c, 0, 63, 123
1, 31461, Note_on_c, 0, 63, 114
1, 31628, Note_off_c, 0, 63, 114
1, 31682, Note_on_c, 0, 61, 112
1, 31828, Note_off_c, 0, 61, 112
1, 31856, Note_on_c, 0, 60, 110
1, 31968, Note_off_c, 0, 60, 110
1, 32041, Note_on_c, 0, 60, 108
1, 32155, Note_off_c, 0, 60, 108
1, 33186, Note_on_c, 0, 75, 115
1, 33287, Note_off_c, 0, 75, 115
1, 33297, Note_on_c, 0, 75, 115
1, 33472, Note_off_c, 0, 75, 115
1, 33537, Note_on_c, 0, 75, 112
1, 33782, Note_off_c, 0, 75, 112
1, 33797, Note_on_c, 0, 74, 111
1, 33964, Note_off_c, 0, 74, 111
1, 33990, Note_on_c, 0, 74, 110
1, 34170, Note_off_c, 0, 74, 110
1, 34190, Note_on_c, 0, 73, 112
1, 34349, Note_off_c, 0, 73, 112
1, 34377, Note_on_c, 0, 73, 124
1, 34504, Note_on_c, 0, 72, 108
1, 34504, Note_off_c, 0, 73, 124
1, 34647, Note_off_c, 0, 72, 108
1, 34942, Note_on_c, 0, 70, 109
1, 35109, Note_off_c, 0, 70, 109
1, 35137, Note_on_c, 0, 70, 100
1, 35272, Note_off_c, 0, 70, 100
1, 35321, Note_on_c, 0, 70, 109
1, 35501, Note_off_c, 0, 70, 109
1, 35728, Note_on_c, 0, 70, 117
1, 35853, Note_off_c, 0, 70, 117
1, 35868, Note_on_c, 0, 68, 113
1, 35943, Note_off_c, 0, 68, 113
1, 35953, Note_on_c, 0, 65, 104
1, 36031, Note_off_c, 0, 65, 104
1, 36031, Note_on_c, 0, 63, 116
1, 36253, Note_off_c, 0, 63, 116
1, 36300, Note_on_c, 0, 61, 115
1, 36467, Note_off_c, 0, 61, 115
1, 37459, Note_on_c, 0, 72, 116
1, 37594, Note_off_c, 0, 72, 116
1, 37614, Note_on_c, 0, 72, 111
1, 37796, Note_off_c, 0, 72, 111
1, 37809, Note_on_c, 0, 72, 103
1, 37939, Note_off_c, 0, 72, 103
1, 38252, Note_on_c, 0, 72, 86
1, 38383, Note_off_c, 0, 72, 86
1, 38414, Note_on_c, 0, 75, 110
1, 38588, Note_off_c, 0, 75, 110
1, 38604, Note_on_c, 0, 73, 10
1, 38702, Note_off_c, 0, 73, 10
1, 38737, Note_on_c, 0, 71, 110
1, 38826, Note_off_c, 0, 71, 110
1, 38839, Note_on_c, 0, 72, 114
1, 38917, Note_off_c, 0, 72, 114
1, 38929, Note_on_c, 0, 68, 121
1, 39046, Note_off_c, 0, 68, 121
1, 39176, Note_on_c, 0, 63, 106
1, 39301, Note_off_c, 0, 63, 106
1, 39410, Note_on_c, 0, 75, 95
1, 39509, Note_off_c, 0, 75, 95
1, 39558, Note_on_c, 0, 75, 124
1, 39678, Note_off_c, 0, 75, 124
1, 39696, Note_on_c, 0, 74, 125
1, 39762, Note_off_c, 0, 74, 125
1, 39775, Note_on_c, 0, 73, 109
1, 39893, Note_off_c, 0, 73, 109
1, 39893, Note_on_c, 0, 72, 96
1, 39939, Note_off_c, 0, 72, 96
1, 39939, Note_on_c, 0, 77, 106
1, 40117, Note_off_c, 0, 77, 106
1, 40141, Note_on_c, 0, 68, 113
1, 40259, Note_off_c, 0, 68, 113
1, 40260, Note_on_c, 0, 70, 101
1, 40308, Note_off_c, 0, 70, 101
1, 40322, Note_on_c, 0, 72, 109
1, 40401, Note_off_c, 0, 72, 109
1, 40421, Note_on_c, 0, 78, 112
1, 40582, Note_off_c, 0, 78, 112
1, 40589, Note_on_c, 0, 77, 103
1, 40652, Note_off_c, 0, 77, 103
1, 40655, Note_on_c, 0, 75, 104
1, 40705, Note_off_c, 0, 75, 104
1, 40716, Note_on_c, 0, 78, 112
1, 40935, Note_off_c, 0, 78, 112
1, 40949, Note_on_c, 0, 75, 98
1, 40993, Note_off_c, 0, 75, 98
1, 41009, Note_on_c, 0, 78, 119
1, 41183, Note_off_c, 0, 78, 119
1, 41192, Note_on_c, 0, 77, 110
1, 41253, Note_off_c, 0, 77, 110
1, 41258, Note_on_c, 0, 75, 98
1, 41293, Note_on_c, 0, 78, 125
1, 41293, Note_off_c, 0, 75, 98
1, 41439, Note_off_c, 0, 78, 125
1, 41442, Note_on_c, 0, 77, 111
1, 41495, Note_off_c, 0, 77, 111
1, 41508, Note_on_c, 0, 75, 110
1, 41615, Note_off_c, 0, 75, 110
1, 41652, Note_on_c, 0, 85, 122
1, 41774, Note_off_c, 0, 85, 122
1, 41785, Note_on_c, 0, 83, 97
1, 41857, Note_off_c, 0, 83, 97
1, 41858, Note_on_c, 0, 80, 110
1, 41973, Note_off_c, 0, 80, 110
1, 41984, Note_on_c, 0, 77, 89
1, 42069, Note_off_c, 0, 77, 89
1, 42070, Note_on_c, 0, 73, 117
1, 42179, Note_off_c, 0, 73, 117
1, 42180, Note_on_c, 0, 71, 98
1, 42233, Note_off_c, 0, 71, 98
1, 42247, Note_on_c, 0, 68, 119
1, 42323, Note_off_c, 0, 68, 119
1, 42345, Note_on_c, 0, 67, 113
1, 42411, Note_off_c, 0, 67, 113
1, 42416, Note_on_c, 0, 73, 121
1, 42547, Note_off_c, 0, 73, 121
1, 42556, Note_on_c, 0, 72, 116
1, 42615, Note_off_c, 0, 72, 116
1, 42633, Note_on_c, 0, 68, 113
1, 42794, Note_off_c, 0, 68, 113
1, 42825, Note_on_c, 0, 56, 118
1, 42892, Note_off_c, 0, 56, 118
1, 42892, Note_on_c, 0, 61, 106
1, 42928, Note_off_c, 0, 61, 106
1, 42941, Note_on_c, 0, 65, 86
1, 42988, Note_off_c, 0, 65, 86
1, 42992, Note_on_c, 0, 68, 118
1, 43135, Note_off_c, 0, 68, 118
1, 43162, Note_on_c, 0, 62, 112
1, 43238, Note_off_c, 0, 62, 112
1, 43260, Note_on_c, 0, 65, 109
1, 43313, Note_off_c, 0, 65, 109
1, 43313, Note_on_c, 0, 68, 112
1, 43376, Note_on_c, 0, 72, 124
1, 43376, Note_off_c, 0, 68, 112
1, 43552, Note_off_c, 0, 72, 124
1, 43682, Note_on_c, 0, 72, 120
1, 43917, Note_off_c, 0, 72, 120
1, 43950, Note_on_c, 0, 62, 107
1, 43996, Note_off_c, 0, 62, 107
1, 43996, Note_on_c, 0, 65, 108
1, 44036, Note_off_c, 0, 65, 108
1, 44049, Note_on_c, 0, 66, 121
1, 44112, Note_off_c, 0, 66, 121
1, 44132, Note_on_c, 0, 75, 119
1, 44340, Note_off_c, 0, 75, 119
1, 44358, Note_on_c, 0, 61, 112
1, 44400, Note_off_c, 0, 61, 112
1, 44413, Note_on_c, 0, 65, 117
1, 44446, Note_off_c, 0, 65, 117
1, 44453, Note_on_c, 0, 68, 118
1, 44493, Note_off_c, 0, 68, 118
1, 44509, Note_on_c, 0, 73, 118
1, 44707, Note_off_c, 0, 73, 118
1, 44727, Note_on_c, 0, 75, 123
1, 44847, Note_off_c, 0, 75, 123
1, 44866, Note_on_c, 0, 71, 114
1, 44944, Note_off_c, 0, 71, 114
1, 44946, Note_on_c, 0, 67, 109
1, 45024, Note_off_c, 0, 67, 109
1, 45036, Note_on_c, 0, 63, 117
1, 45130, Note_off_c, 0, 63, 117
1, 45146, Note_on_c, 0, 59, 113
1, 45222, Note_off_c, 0, 59, 113
1, 45242, Note_on_c, 0, 63, 112
1, 45307, Note_off_c, 0, 63, 112
1, 45310, Note_on_c, 0, 67, 111
1, 45410, Note_off_c, 0, 67, 111
1, 45462, Note_on_c, 0, 71, 124
1, 45684, Note_off_c, 0, 71, 124
1, 45695, Note_on_c, 0, 68, 115
1, 45858, Note_off_c, 0, 68, 115
1, 46466, Note_on_c, 0, 73, 117
1, 46622, Note_off_c, 0, 73, 117
1, 46650, Note_on_c, 0, 73, 120
1, 46809, Note_off_c, 0, 73, 120
1, 46835, Note_on_c, 0, 73, 119
1, 46918, Note_off_c, 0, 73, 119
1, 46936, Note_on_c, 0, 75, 111
1, 47105, Note_off_c, 0, 75, 111
1, 47162, Note_on_c, 0, 72, 107
1, 47261, Note_off_c, 0, 72, 107
1, 48000, Note_on_c, 0, 73, 116
1, 48120, Note_off_c, 0, 73, 116
1, 48177, Note_on_c, 0, 73, 114
1, 48318, Note_off_c, 0, 73, 114
1, 48336, Note_on_c, 0, 72, 119
1, 48375, Note_off_c, 0, 72, 119
1, 48393, Note_on_c, 0, 73, 124
1, 48497, Note_off_c, 0, 73, 124
1, 48507, Note_on_c, 0, 75, 109
1, 48606, Note_off_c, 0, 75, 109
1, 48650, Note_on_c, 0, 73, 121
1, 48710, Note_off_c, 0, 73, 121
1, 48717, Note_on_c, 0, 71, 109
1, 48748, Note_off_c, 0, 71, 109
1, 48748, Note_on_c, 0, 68, 115
1, 48860, Note_off_c, 0, 68, 115
1, 49048, Note_on_c, 0, 68, 120
1, 49246, Note_off_c, 0, 68, 120
1, 49520, Note_on_c, 0, 63, 124
1, 49575, Note_off_c, 0, 63, 124
1, 49588, Note_on_c, 0, 67, 113
1, 49638, Note_off_c, 0, 67, 113
1, 49643, Note_on_c, 0, 70, 109
1, 49706, Note_off_c, 0, 70, 109
1, 49722, Note_on_c, 0, 75, 123
1, 49897, Note_off_c, 0, 75, 123
1, 49930, Note_on_c, 0, 73, 118
1, 50008, Note_off_c, 0, 73, 118
1, 50018, Note_on_c, 0, 71, 109
1, 50075, Note_off_c, 0, 71, 109
1, 50093, Note_on_c, 0, 72, 106
1, 50296, Note_off_c, 0, 72, 106
1, 50311, Note_on_c, 0, 71, 110
1, 50378, Note_off_c, 0, 71, 110
1, 50398, Note_on_c, 0, 76, 112
1, 50497, Note_off_c, 0, 76, 112
1, 50502, Note_on_c, 0, 71, 115
1, 50567, Note_off_c, 0, 71, 115
1, 50567, Note_on_c, 0, 70, 118
1, 50661, Note_off_c, 0, 70, 118
1, 50681, Note_on_c, 0, 68, 121
1, 50806, Note_off_c, 0, 68, 121
1, 50886, Note_on_c, 0, 58, 112
1, 50998, Note_off_c, 0, 58, 112
1, 50998, Note_on_c, 0, 63, 121
1, 51167, Note_off_c, 0, 63, 121
1, 51245, Note_on_c, 0, 65, 119
1, 51344, Note_off_c, 0, 65, 119
1, 51367, Note_on_c, 0, 68, 108
1, 51656, Note_off_c, 0, 68, 108
1, 51656, End_track
0, 0, End_of_file
