0, 0, Header, 1, 1, 192
1, 0, Start_track
1, 0, Title_t, "Melody"
1, 0, Tempo, 244897
1, 0, Key_signature, -3, "major"
1, 0, Time_signature, 4, 2, 24, 8
1, 3518, Note_on_c, 0, 70, 98
1, 3594, Note_off_c, 0, 70, 98
1, 3600, Note_on_c, 0, 72, 93
1, 3642, Note_off_c, 0, 72, 93
1, 3654, Note_on_c, 0, 70, 103
1, 3693, Note_off_c, 0, 70, 103
1, 3712, Note_on_c, 0, 67, 97
1, 3787, Note_off_c, 0, 67, 97
1, 3798, Note_on_c, 0, 70, 96
1, 3873, Note_off_c, 0, 70, 96
1, 3876, Note_on_c, 0, 75, 105
1, 4058, Note_off_c, 0, 75, 105
1, 4073, Note_on_c, 0, 70, 105
1, 4169, Note_off_c, 0, 70, 105
1, 4175, Note_on_c, 0, 75, 97
1, 4242, Note_off_c, 0, 75, 97
1, 4263, Note_on_c, 0, 79, 96
1, 4354, Note_off_c, 0, 79, 96
1, 4366, Note_on_c, 0, 77, 87
1, 4446, Note_off_c, 0, 77, 87
1, 4452, Note_on_c, 0, 75, 100
1, 4544, Note_off_c, 0, 75, 100
1, 4561, Note_on_c, 0, 74, 88
1, 4644, Note_off_c, 0, 74, 88
1, 4754, Note_on_c, 0, 75, 97
1, 4830, Note_off_c, 0, 75, 97
1, 4836, Note_on_c, 0, 74, 99
1, 4938, Note_off_c, 0, 74, 99
1, 4943, Note_on_c, 0, 75, 98
1, 5016, Note_off_c, 0, 75, 98
1, 5030, Note_on_c, 0, 77, 95
1, 5121, Note_off_c, 0, 77, 95
1, 5137, Note_on_c, 0, 75, 89
1, 5213, Note_off_c, 0, 75, 89
1, 5222, Note_on_c, 0, 74, 93
1, 5302, Note_off_c, 0, 74, 93
1, 5320, Note_on_c, 0, 75, 95
1, 5387, Note_off_c, 0, 75, 95
1, 5400, Note_on_c, 0, 77, 99
1, 5504, Note_off_c, 0, 77, 99
1, 5517, Note_on_c, 0, 75, 89
1, 5600, Note_off_c, 0, 75, 89
1, 5606, Note_on_c, 0, 74, 90
1, 5698, Note_off_c, 0, 74, 90
1, 5704, Note_on_c, 0, 75, 90
1, 5787, Note_off_c, 0, 75, 90
1, 5790, Note_on_c, 0, 77, 101
1, 5892, Note_off_c, 0, 77, 101
1, 5902, Note_on_c, 0, 75, 77
1, 5982, Note_off_c, 0, 75, 77
1, 5982, Note_on_c, 0, 71, 95
1, 6052, Note_off_c, 0, 71, 95
1, 6062, Note_on_c, 0, 68, 75
1, 6148, Note_off_c, 0, 68, 75
1, 6162, Note_on_c, 0, 65, 92
1, 6241, Note_off_c, 0, 65, 92
1, 6273, Note_on_c, 0, 63, 85
1, 6345, Note_off_c, 0, 63, 85
1, 6359, Note_on_c, 0, 70, 104
1, 6464, Note_off_c, 0, 70, 104
1, 6465, Note_on_c, 0, 68, 92
1, 6543, Note_off_c, 0, 68, 92
1, 6552, Note_on_c, 0, 70, 100
1, 6651, Note_off_c, 0, 70, 100
1, 6658, Note_on_c, 0, 68, 78
1, 6714, Note_off_c, 0, 68, 78
1, 6732, Note_on_c, 0, 63, 97
1, 6830, Note_off_c, 0, 63, 97
1, 6905, Note_on_c, 0, 60, 81
1, 7075, Note_off_c, 0, 60, 81
1, 7483, Note_on_c, 0, 70, 104
1, 7609, Note_off_c, 0, 70, 104
1, 7619, Note_on_c, 0, 68, 104
1, 7673, Note_off_c, 0, 68, 104
1, 7700, Note_on_c, 0, 59, 91
1, 7866, Note_off_c, 0, 59, 91
1, 7888, Note_on_c, 0, 67, 88
1, 8033, Note_off_c, 0, 67, 88
1, 8071, Note_on_c, 0, 63, 94
1, 8284, Note_off_c, 0, 63, 94
1, 8382, Note_on_c, 0, 58, 85
1, 8624, Note_off_c, 0, 58, 85
1, 9537, Note_on_c, 0, 87, 105
1, 9593, Note_off_c, 0, 87, 105
1, 9600, Note_on_c, 0, 84, 111
1, 9687, Note_off_c, 0, 84, 111
1, 9711, Note_on_c, 0, 84, 113
1, 9788, Note_off_c, 0, 84, 113
1, 9793, Note_on_c, 0, 80, 101
1, 9874, Note_off_c, 0, 80, 101
1, 9904, Note_on_c, 0, 84, 97
1, 9975, Note_off_c, 0, 84, 97
1, 9992, Note_on_c, 0, 80, 85
1, 10064, Note_off_c, 0, 80, 85
1, 10093, Note_on_c, 0, 80, 76
1, 10168, Note_off_c, 0, 80, 76
1, 10169, Note_on_c, 0, 77, 85
1, 10255, Note_off_c, 0, 77, 85
1, 10283, Note_on_c, 0, 80, 99
1, 10354, Note_off_c, 0, 80, 99
1, 10371, Note_on_c, 0, 77, 77
1, 10447, Note_off_c, 0, 77, 77
1, 10473, Note_on_c, 0, 77, 88
1, 10550, Note_off_c, 0, 77, 88
1, 10559, Note_on_c, 0, 75, 107
1, 10626, Note_off_c, 0, 75, 107
1, 10654, Note_on_c, 0, 80, 92
1, 10729, Note_off_c, 0, 80, 92
1, 10747, Note_on_c, 0, 77, 88
1, 10826, Note_off_c, 0, 77, 88
1, 10851, Note_on_c, 0, 77, 97
1, 10911, Note_off_c, 0, 77, 97
1, 10924, Note_on_c, 0, 75, 87
1, 11008, Note_off_c, 0, 75, 87
1, 11045, Note_on_c, 0, 79, 92
1, 11114, Note_off_c, 0, 79, 92
1, 11133, Note_on_c, 0, 75, 92
1, 11201, Note_off_c, 0, 75, 92
1, 11229, Note_on_c, 0, 75, 97
1, 11292, Note_off_c, 0, 75, 97
1, 11292, Note_on_c, 0, 70, 99
1, 11370, Note_off_c, 0, 70, 99
1, 11385, Note_on_c, 0, 67, 85
1, 11473, Note_off_c, 0, 67, 85
1, 11475, Note_on_c, 0, 63, 106
1, 11550, Note_off_c, 0, 63, 106
1, 11586, Note_on_c, 0, 60, 83
1, 11663, Note_off_c, 0, 60, 83
1, 11666, Note_on_c, 0, 58, 102
1, 11739, Note_off_c, 0, 58, 102
1, 11783, Note_on_c, 0, 55, 83
1, 11861, Note_off_c, 0, 55, 83
1, 11872, Note_on_c, 0, 58, 98
1, 11960, Note_off_c, 0, 58, 98
1, 11964, Note_on_c, 0, 60, 85
1, 12039, Note_off_c, 0, 60, 85
1, 12049, Note_on_c, 0, 63, 112
1, 12154, Note_off_c, 0, 63, 112
1, 12160, Note_on_c, 0, 60, 96
1, 12221, Note_off_c, 0, 60, 96
1, 12242, Note_on_c, 0, 63, 100
1, 12340, Note_off_c, 0, 63, 100
1, 12365, Note_on_c, 0, 60, 108
1, 12435, Note_off_c, 0, 60, 108
1, 12448, Note_on_c, 0, 63, 112
1, 12544, Note_off_c, 0, 63, 112
1, 12560, Note_on_c, 0, 60, 93
1, 12620, Note_off_c, 0, 60, 93
1, 12641, Note_on_c, 0, 60, 105
1, 12720, Note_off_c, 0, 60, 105
1, 12727, Note_on_c, 0, 57, 92
1, 12794, Note_off_c, 0, 57, 92
1, 12802, Note_on_c, 0, 60, 104
1, 12904, Note_off_c, 0, 60, 104
1, 12920, Note_on_c, 0, 63, 80
1, 12993, Note_off_c, 0, 63, 80
1, 13005, Note_on_c, 0, 67, 90
1, 13174, Note_off_c, 0, 67, 90
1, 13500, Note_on_c, 0, 63, 98
1, 13562, Note_off_c, 0, 63, 98
1, 13566, Note_on_c, 0, 67, 99
1, 13686, Note_off_c, 0, 67, 99
1, 13698, Note_on_c, 0, 69, 102
1, 13746, Note_off_c, 0, 69, 102
1, 13759, Note_on_c, 0, 74, 106
1, 13901, Note_off_c, 0, 74, 106
1, 13949, Note_on_c, 0, 72, 101
1, 14117, Note_off_c, 0, 72, 101
1, 15664, Note_on_c, 0, 77, 95
1, 15827, Note_off_c, 0, 77, 95
1, 15856, Note_on_c, 0, 78, 118
1, 16017, Note_off_c, 0, 78, 118
1, 16071, Note_on_c, 0, 77, 113
1, 16202, Note_off_c, 0, 77, 113
1, 16233, Note_on_c, 0, 78, 110
1, 16390, Note_off_c, 0, 78, 110
1, 16442, Note_on_c, 0, 77, 97
1, 16583, Note_off_c, 0, 77, 97
1, 16603, Note_on_c, 0, 78, 118
1, 16734, Note_off_c, 0, 78, 118
1, 16743, Note_on_c, 0, 77, 111
1, 16909, Note_off_c, 0, 77, 111
1, 16918, Note_on_c, 0, 78, 112
1, 17050, Note_off_c, 0, 78, 112
1, 17123, Note_on_c, 0, 75, 91
1, 17175, Note_off_c, 0, 75, 91
1, 17184, Note_on_c, 0, 77, 98
1, 17338, Note_off_c, 0, 77, 98
1, 17366, Note_on_c, 0, 78, 112
1, 17497, Note_off_c, 0, 78, 112
1, 17513, Note_on_c, 0, 75, 103
1, 17554, Note_off_c, 0, 75, 103
1, 17563, Note_on_c, 0, 77, 107
1, 17662, Note_off_c, 0, 77, 107
1, 17686, Note_on_c, 0, 75, 95
1, 17753, Note_off_c, 0, 75, 95
1, 17753, Note_on_c, 0, 80, 107
1, 17868, Note_off_c, 0, 80, 107
1, 17888, Note_on_c, 0, 77, 96
1, 17945, Note_off_c, 0, 77, 96
1, 17956, Note_on_c, 0, 75, 111
1, 18056, Note_off_c, 0, 75, 111
1, 18061, Note_on_c, 0, 72, 85
1, 18117, Note_off_c, 0, 72, 85
1, 18130, Note_on_c, 0, 68, 100
1, 18252, Note_off_c, 0, 68, 100
1, 18252, Note_on_c, 0, 30, 80
1, 18252, Note_off_c, 0, 30, 80
1, 18323, Note_on_c, 0, 70, 102
1, 18480, Note_off_c, 0, 70, 102
1, 18515, Note_on_c, 0, 68, 110
1, 18632, Note_off_c, 0, 68, 110
1, 18643, Note_on_c, 0, 67, 97
1, 18693, Note_off_c, 0, 67, 97
1, 18700, Note_on_c, 0, 66, 117
1, 18798, Note_off_c, 0, 66, 117
1, 18821, Note_on_c, 0, 67, 104
1, 18868, Note_off_c, 0, 67, 104
1, 18882, Note_on_c, 0, 63, 90
1, 18978, Note_off_c, 0, 63, 90
1, 19003, Note_on_c, 0, 60, 90
1, 19066, Note_off_c, 0, 60, 90
1, 19066, Note_on_c, 0, 58, 92
1, 19187, Note_off_c, 0, 58, 92
1, 19196, Note_on_c, 0, 58, 82
1, 19252, Note_off_c, 0, 58, 82
1, 19257, Note_on_c, 0, 63, 105
1, 19416, Note_off_c, 0, 63, 105
1, 19448, Note_on_c, 0, 59, 96
1, 19471, Note_off_c, 0, 59, 96
1, 19471, Note_on_c, 0, 27, 80
1, 19471, Note_off_c, 0, 27, 80
1, 19538, Note_on_c, 0, 63, 100
1, 19622, Note_off_c, 0, 63, 100
1, 19661, Note_on_c, 0, 65, 86
1, 19786, Note_off_c, 0, 65, 86
1, 19831, Note_on_c, 0, 70, 107
1, 20005, Note_off_c, 0, 70, 107
1, 20030, Note_on_c, 0, 68, 117
1, 20141, Note_off_c, 0, 68, 117
1, 20141, Note_on_c, 0, 55, 80
1, 20141, Note_off_c, 0, 55, 80
1, 20161, Note_on_c, 0, 67, 103
1, 20223, Note_off_c, 0, 67, 103
1, 20229, Note_on_c, 0, 63, 91
1, 20345, Note_off_c, 0, 63, 91
1, 20349, Note_on_c, 0, 67, 96
1, 20409, Note_off_c, 0, 67, 96
1, 20412, Note_on_c, 0, 70, 105
1, 20570, Note_off_c, 0, 70, 105
1, 20603, Note_on_c, 0, 77, 101
1, 20863, Note_off_c, 0, 77, 101
1, 20916, Note_on_c, 0, 73, 101
1, 20988, Note_off_c, 0, 73, 101
1, 20997, Note_on_c, 0, 77, 103
1, 21090, Note_off_c, 0, 77, 103
1, 21090, Note_on_c, 0, 73, 103
1, 21183, Note_off_c, 0, 73, 103
1, 21197, Note_on_c, 0, 70, 99
1, 21329, Note_off_c, 0, 70, 99
1, 21329, Note_on_c, 0, 46, 80
1, 21329, Note_off_c, 0, 46, 80
1, 21482, Note_on_c, 0, 63, 106
1, 21565, Note_off_c, 0, 63, 106
1, 21569, Note_on_c, 0, 75, 115
1, 21679, Note_off_c, 0, 75, 115
1, 21682, Note_on_c, 0, 72, 104
1, 21761, Note_off_c, 0, 72, 104
1, 21763, Note_on_c, 0, 75, 108
1, 21910, Note_off_c, 0, 75, 108
1, 21953, Note_on_c, 0, 70, 98
1, 22050, Note_off_c, 0, 70, 98
1, 22061, Note_on_c, 0, 68, 94
1, 22129, Note_off_c, 0, 68, 94
1, 22145, Note_on_c, 0, 63, 112
1, 22236, Note_off_c, 0, 63, 112
1, 22253, Note_on_c, 0, 60, 86
1, 22328, Note_off_c, 0, 60, 86
1, 22345, Note_on_c, 0, 56, 100
1, 22468, Note_off_c, 0, 56, 100
1, 22691, Note_on_c, 0, 78, 117
1, 22833, Note_off_c, 0, 78, 117
1, 22843, Note_on_c, 0, 75, 87
1, 22913, Note_off_c, 0, 75, 87
1, 22915, Note_on_c, 0, 72, 90
1, 22996, Note_off_c, 0, 72, 90
1, 23005, Note_on_c, 0, 69, 86
1, 23096, Note_off_c, 0, 69, 86
1, 23106, Note_on_c, 0, 66, 108
1, 23289, Note_off_c, 0, 66, 108
1, 23304, Note_on_c, 0, 67, 95
1, 23437, Note_off_c, 0, 67, 95
1, 23442, Note_on_c, 0, 63, 93
1, 23489, Note_off_c, 0, 63, 93
1, 23491, Note_on_c, 0, 67, 99
1, 23593, Note_off_c, 0, 67, 99
1, 23604, Note_on_c, 0, 70, 100
1, 23656, Note_off_c, 0, 70, 100
1, 23668, Note_on_c, 0, 75, 115
1, 23793, Note_off_c, 0, 75, 115
1, 23800, Note_on_c, 0, 75, 104
1, 23860, Note_off_c, 0, 75, 104
1, 23869, Note_on_c, 0, 74, 106
1, 23960, Note_off_c, 0, 74, 106
1, 23979, Note_on_c, 0, 70, 103
1, 24051, Note_off_c, 0, 70, 103
1, 24062, Note_on_c, 0, 67, 98
1, 24162, Note_off_c, 0, 67, 98
1, 24178, Note_on_c, 0, 64, 92
1, 24246, Note_off_c, 0, 64, 92
1, 24254, Note_on_c, 0, 67, 102
1, 24362, Note_off_c, 0, 67, 102
1, 24369, Note_on_c, 0, 64, 84
1, 24434, Note_off_c, 0, 64, 84
1, 24454, Note_on_c, 0, 67, 94
1, 24569, Note_off_c, 0, 67, 94
1, 24629, Note_on_c, 0, 55, 101
1, 24662, Note_off_c, 0, 55, 101
1, 24673, Note_on_c, 0, 62, 108
1, 24709, Note_off_c, 0, 62, 108
1, 24712, Note_on_c, 0, 67, 90
1, 24759, Note_off_c, 0, 67, 90
1, 24759, Note_on_c, 0, 69, 105
1, 24829, Note_off_c, 0, 69, 105
1, 24835, Note_on_c, 0, 74, 94
1, 25101, Note_off_c, 0, 74, 94
1, 25139, Note_on_c, 0, 72, 95
1, 25495, Note_off_c, 0, 72, 95
1, 25809, Note_on_c, 0, 78, 104
1, 25992, Note_off_c, 0, 78, 104
1, 25999, Note_on_c, 0, 79, 105
1, 26095, Note_off_c, 0, 79, 105
1, 26120, Note_on_c, 0, 70, 98
1, 26187, Note_off_c, 0, 70, 98
1, 26190, Note_on_c, 0, 69, 102
1, 26286, Note_off_c, 0, 69, 102
1, 26297, Note_on_c, 0, 67, 98
1, 26358, Note_off_c, 0, 67, 98
1, 26364, Note_on_c, 0, 70, 103
1, 26465, Note_off_c, 0, 70, 103
1, 26474, Note_on_c, 0, 67, 94
1, 26535, Note_off_c, 0, 67, 94
1, 26548, Note_on_c, 0, 70, 111
1, 26650, Note_off_c, 0, 70, 111
1, 26689, Note_on_c, 0, 72, 92
1, 26752, Note_off_c, 0, 72, 92
1, 26755, Note_on_c, 0, 75, 106
1, 27075, Note_off_c, 0, 75, 106
1, 27075, End_track
0, 0, End_of_file
