0, 0, Header, 1, 1, 840
1, 0, Start_track
1, 0, Title_t, "Melody"
1, 0, Tempo, 600000
1, 0, Key_signature, -3, "major"
1, 0, Time_signature, 4, 2, 24, 8
1, 6404, Note_on_c, 0, 69, 89
1, 6769, Note_off_c, 0, 69, 89
1, 6825, Note_on_c, 0, 70, 121
1, 7044, Note_off_c, 0, 70, 121
1, 7113, Note_on_c, 0, 75, 112
1, 7409, Note_off_c, 0, 75, 112
1, 7709, Note_on_c, 0, 69, 87
1, 8054, Note_off_c, 0, 69, 87
1, 8094, Note_on_c, 0, 70, 118
1, 8549, Note_off_c, 0, 70, 118
1, 8963, Note_on_c, 0, 60, 102
1, 9186, Note_off_c, 0, 60, 102
1, 9194, Note_on_c, 0, 61, 93
1, 9324, Note_off_c, 0, 61, 93
1, 9348, Note_on_c, 0, 63, 101
1, 9612, Note_off_c, 0, 63, 101
1, 9668, Note_on_c, 0, 60, 99
1, 9964, Note_off_c, 0, 60, 99
1, 10049, Note_on_c, 0, 66, 112
1, 10195, Note_off_c, 0, 66, 112
1, 10243, Note_on_c, 0, 69, 100
1, 10466, Note_off_c, 0, 69, 100
1, 10632, Note_on_c, 0, 74, 127
1, 11400, Note_off_c, 0, 74, 127
1, 11489, Note_on_c, 0, 72, 107
1, 11814, Note_off_c, 0, 72, 107
1, 11842, Note_on_c, 0, 75, 106
1, 12081, Note_off_c, 0, 75, 106
1, 12125, Note_on_c, 0, 72, 93
1, 12271, Note_off_c, 0, 72, 93
1, 12303, Note_on_c, 0, 68, 97
1, 12518, Note_off_c, 0, 68, 97
1, 12741, Note_on_c, 0, 70, 109
1, 13033, Note_off_c, 0, 70, 109
1, 13987, Note_on_c, 0, 67, 84
1, 14261, Note_off_c, 0, 67, 84
1, 14378, Note_on_c, 0, 68, 121
1, 14806, Note_off_c, 0, 68, 121
1, 14834, Note_on_c, 0, 65, 105
1, 14991, Note_off_c, 0, 65, 105
1, 15213, Note_on_c, 0, 67, 99
1, 15441, Note_off_c, 0, 67, 99
1, 15463, Note_on_c, 0, 68, 102
1, 15660, Note_off_c, 0, 68, 102
1, 15694, Note_on_c, 0, 64, 105
1, 15845, Note_off_c, 0, 64, 105
1, 15853, Note_on_c, 0, 63, 87
1, 15990, Note_off_c, 0, 63, 87
1, 16104, Note_on_c, 0, 58, 91
1, 16361, Note_off_c, 0, 58, 91
1, 16472, Note_on_c, 0, 58, 97
1, 16717, Note_off_c, 0, 58, 97
1, 16845, Note_on_c, 0, 71, 96
1, 16930, Note_off_c, 0, 71, 96
1, 16941, Note_on_c, 0, 70, 113
1, 17015, Note_off_c, 0, 70, 113
1, 17032, Note_on_c, 0, 68, 112
1, 17103, Note_off_c, 0, 68, 112
1, 17145, Note_on_c, 0, 66, 116
1, 17273, Note_off_c, 0, 66, 116
1, 17304, Note_on_c, 0, 64, 107
1, 17386, Note_off_c, 0, 64, 107
1, 17434, Note_on_c, 0, 62, 96
1, 17571, Note_off_c, 0, 62, 96
1, 17591, Note_on_c, 0, 61, 102
1, 17736, Note_off_c, 0, 61, 102
1, 17761, Note_on_c, 0, 60, 112
1, 17975, Note_off_c, 0, 60, 112
1, 18166, Note_on_c, 0, 59, 94
1, 18503, Note_off_c, 0, 59, 94
1, 18568, Note_on_c, 0, 57, 99
1, 18936, Note_off_c, 0, 57, 99
1, 19030, Note_on_c, 0, 57, 98
1, 19444, Note_off_c, 0, 57, 98
1, 19715, Note_on_c, 0, 57, 94
1, 19880, Note_off_c, 0, 57, 94
1, 19965, Note_on_c, 0, 60, 114
1, 20096, Note_off_c, 0, 60, 114
1, 20138, Note_on_c, 0, 63, 90
1, 20283, Note_off_c, 0, 63, 90
1, 20317, Note_on_c, 0, 67, 98
1, 20557, Note_off_c, 0, 67, 98
1, 20717, Note_on_c, 0, 72, 106
1, 21142, Note_off_c, 0, 72, 106
1, 21344, Note_on_c, 0, 67, 100
1, 21824, Note_off_c, 0, 67, 100
1, 21932, Note_on_c, 0, 80, 106
1, 22294, Note_off_c, 0, 80, 106
1, 22802, Note_on_c, 0, 70, 96
1, 23039, Note_off_c, 0, 70, 96
1, 23247, Note_on_c, 0, 65, 103
1, 23387, Note_off_c, 0, 65, 103
1, 23389, Note_on_c, 0, 59, 99
1, 23500, Note_off_c, 0, 59, 99
1, 23537, Note_on_c, 0, 62, 102
1, 23679, Note_off_c, 0, 62, 102
1, 23724, Note_on_c, 0, 65, 107
1, 23892, Note_off_c, 0, 65, 107
1, 23951, Note_on_c, 0, 68, 83
1, 24056, Note_off_c, 0, 68, 83
1, 24098, Note_on_c, 0, 72, 112
1, 24600, Note_off_c, 0, 72, 112
1, 24714, Note_on_c, 0, 67, 107
1, 25214, Note_off_c, 0, 67, 107
1, 25348, Note_on_c, 0, 62, 100
1, 25547, Note_off_c, 0, 62, 100
1, 26487, Note_on_c, 0, 63, 102
1, 26678, Note_off_c, 0, 63, 102
1, 26695, Note_on_c, 0, 65, 87
1, 26852, Note_off_c, 0, 65, 87
1, 26909, Note_on_c, 0, 67, 100
1, 27031, Note_off_c, 0, 67, 100
1, 27073, Note_on_c, 0, 70, 121
1, 27435, Note_off_c, 0, 70, 121
1, 27483, Note_on_c, 0, 70, 120
1, 27831, Note_off_c, 0, 70, 120
1, 27919, Note_on_c, 0, 72, 100
1, 28096, Note_off_c, 0, 72, 100
1, 28124, Note_on_c, 0, 78, 90
1, 28321, Note_off_c, 0, 78, 90
1, 28709, Note_on_c, 0, 77, 101
1, 29071, Note_off_c, 0, 77, 101
1, 29439, Note_on_c, 0, 77, 98
1, 29633, Note_off_c, 0, 77, 98
1, 29804, Note_on_c, 0, 84, 90
1, 29946, Note_off_c, 0, 84, 90
1, 29971, Note_on_c, 0, 87, 95
1, 30236, Note_off_c, 0, 87, 95
1, 30264, Note_on_c, 0, 80, 86
1, 30364, Note_off_c, 0, 80, 86
1, 30401, Note_on_c, 0, 84, 84
1, 30672, Note_off_c, 0, 84, 84
1, 30829, Note_on_c, 0, 67, 114
1, 31203, Note_off_c, 0, 67, 114
1, 31383, Note_on_c, 0, 67, 99
1, 31691, Note_off_c, 0, 67, 99
1, 32522, Note_on_c, 0, 70, 118
1, 32799, Note_off_c, 0, 70, 118
1, 32884, Note_on_c, 0, 82, 106
1, 33121, Note_off_c, 0, 82, 106
1, 33166, Note_on_c, 0, 79, 110
1, 33408, Note_off_c, 0, 79, 110
1, 33445, Note_on_c, 0, 77, 83
1, 33627, Note_off_c, 0, 77, 83
1, 33649, Note_on_c, 0, 75, 95
1, 33757, Note_off_c, 0, 75, 95
1, 33791, Note_on_c, 0, 74, 123
1, 34179, Note_off_c, 0, 74, 123
1, 34213, Note_on_c, 0, 72, 112
1, 34395, Note_off_c, 0, 72, 112
1, 34412, Note_on_c, 0, 74, 121
1, 34609, Note_off_c, 0, 74, 121
1, 34657, Note_on_c, 0, 75, 107
1, 34951, Note_off_c, 0, 75, 107
1, 35031, Note_on_c, 0, 79, 107
1, 35391, Note_off_c, 0, 79, 107
1, 35490, Note_on_c, 0, 74, 125
1, 35830, Note_off_c, 0, 74, 125
1, 35861, Note_on_c, 0, 72, 102
1, 36249, Note_off_c, 0, 72, 102
1, 36626, Note_on_c, 0, 69, 99
1, 36763, Note_off_c, 0, 69, 99
1, 36791, Note_on_c, 0, 66, 111
1, 36942, Note_off_c, 0, 66, 111
1, 37007, Note_on_c, 0, 63, 111
1, 37121, Note_off_c, 0, 63, 111
1, 37161, Note_on_c, 0, 62, 111
1, 37306, Note_off_c, 0, 62, 111
1, 37360, Note_on_c, 0, 60, 83
1, 37522, Note_off_c, 0, 60, 83
1, 37576, Note_on_c, 0, 60, 107
1, 37941, Note_off_c, 0, 60, 107
1, 37983, Note_on_c, 0, 66, 115
1, 38377, Note_off_c, 0, 66, 115
1, 38428, Note_on_c, 0, 72, 107
1, 38688, Note_off_c, 0, 72, 107
1, 38725, Note_on_c, 0, 68, 102
1, 38827, Note_off_c, 0, 68, 102
1, 38869, Note_on_c, 0, 65, 98
1, 39066, Note_off_c, 0, 65, 98
1, 39083, Note_on_c, 0, 70, 113
1, 39234, Note_off_c, 0, 70, 113
1, 39299, Note_on_c, 0, 67, 95
1, 39456, Note_off_c, 0, 67, 95
1, 39521, Note_on_c, 0, 63, 104
1, 39701, Note_off_c, 0, 63, 104
1, 39789, Note_on_c, 0, 60, 86
1, 40020, Note_off_c, 0, 60, 86
1, 40077, Note_on_c, 0, 58, 92
1, 40257, Note_off_c, 0, 58, 92
1, 41665, Note_on_c, 0, 70, 119
1, 41822, Note_off_c, 0, 70, 119
1, 41859, Note_on_c, 0, 75, 111
1, 42159, Note_off_c, 0, 75, 111
1, 42230, Note_on_c, 0, 70, 121
1, 42587, Note_off_c, 0, 70, 121
1, 42669, Note_on_c, 0, 74, 124
1, 42914, Note_off_c, 0, 74, 124
1, 42971, Note_on_c, 0, 70, 105
1, 43110, Note_off_c, 0, 70, 105
1, 43132, Note_on_c, 0, 68, 102
1, 43254, Note_off_c, 0, 68, 102
1, 43302, Note_on_c, 0, 67, 94
1, 43450, Note_off_c, 0, 67, 94
1, 43472, Note_on_c, 0, 64, 108
1, 43611, Note_off_c, 0, 64, 108
1, 43668, Note_on_c, 0, 62, 101
1, 43890, Note_off_c, 0, 62, 101
1, 44115, Note_on_c, 0, 68, 75
1, 44397, Note_off_c, 0, 68, 75
1, 44585, Note_on_c, 0, 60, 101
1, 44742, Note_off_c, 0, 60, 101
1, 44767, Note_on_c, 0, 64, 111
1, 44975, Note_off_c, 0, 64, 111
1, 45037, Note_on_c, 0, 59, 102
1, 45285, Note_off_c, 0, 59, 102
1, 45456, Note_on_c, 0, 63, 93
1, 45624, Note_off_c, 0, 63, 93
1, 45664, Note_on_c, 0, 58, 101
1, 46015, Note_off_c, 0, 58, 101
1, 46049, Note_on_c, 0, 63, 104
1, 46226, Note_off_c, 0, 63, 104
1, 46263, Note_on_c, 0, 57, 95
1, 46408, Note_off_c, 0, 57, 95
1, 46447, Note_on_c, 0, 60, 104
1, 46664, Note_off_c, 0, 60, 104
1, 46692, Note_on_c, 0, 63, 95
1, 46849, Note_off_c, 0, 63, 95
1, 46886, Note_on_c, 0, 67, 111
1, 47097, Note_off_c, 0, 67, 111
1, 47148, Note_on_c, 0, 72, 107
1, 48046, Note_off_c, 0, 72, 107
1, 48480, Note_on_c, 0, 71, 119
1, 48849, Note_off_c, 0, 71, 119
1, 48914, Note_on_c, 0, 70, 122
1, 49271, Note_off_c, 0, 70, 122
1, 49352, Note_on_c, 0, 71, 124
1, 49624, Note_off_c, 0, 71, 124
1, 49660, Note_on_c, 0, 72, 118
1, 49802, Note_off_c, 0, 72, 118
1, 49852, Note_on_c, 0, 71, 115
1, 49963, Note_off_c, 0, 71, 115
1, 50077, Note_on_c, 0, 68, 103
1, 50217, Note_off_c, 0, 68, 103
1, 50308, Note_on_c, 0, 65, 95
1, 50559, Note_off_c, 0, 65, 95
1, 50624, Note_on_c, 0, 68, 104
1, 50809, Note_off_c, 0, 68, 104
1, 50883, Note_on_c, 0, 70, 112
1, 51060, Note_off_c, 0, 70, 112
1, 51091, Note_on_c, 0, 68, 101
1, 51288, Note_off_c, 0, 68, 101
1, 51462, Note_on_c, 0, 66, 87
1, 51684, Note_off_c, 0, 66, 87
1, 51778, Note_on_c, 0, 65, 93
1, 52166, Note_off_c, 0, 65, 93
1, 52746, Note_on_c, 0, 87, 121
1, 52951, Note_off_c, 0, 87, 121
1, 53025, Note_on_c, 0, 81, 92
1, 53162, Note_off_c, 0, 81, 92
1, 53213, Note_on_c, 0, 80, 118
1, 53347, Note_off_c, 0, 80, 118
1, 53444, Note_on_c, 0, 76, 120
1, 53572, Note_off_c, 0, 76, 120
1, 53614, Note_on_c, 0, 75, 118
1, 53796, Note_off_c, 0, 75, 118
1, 53873, Note_on_c, 0, 71, 105
1, 53990, Note_off_c, 0, 71, 105
1, 54004, Note_on_c, 0, 68, 120
1, 54238, Note_off_c, 0, 68, 120
1, 54423, Note_on_c, 0, 65, 104
1, 54511, Note_off_c, 0, 65, 104
1, 54545, Note_on_c, 0, 68, 110
1, 54682, Note_off_c, 0, 68, 110
1, 54704, Note_on_c, 0, 71, 110
1, 54826, Note_off_c, 0, 71, 110
1, 54857, Note_on_c, 0, 82, 106
1, 55179, Note_off_c, 0, 82, 106
1, 55224, Note_on_c, 0, 80, 110
1, 55635, Note_off_c, 0, 80, 110
1, 55677, Note_on_c, 0, 79, 117
1, 55948, Note_off_c, 0, 79, 117
1, 56016, Note_on_c, 0, 75, 97
1, 56330, Note_off_c, 0, 75, 97
1, 56398, Note_on_c, 0, 70, 108
1, 56755, Note_off_c, 0, 70, 108
1, 56937, Note_on_c, 0, 66, 113
1, 57359, Note_off_c, 0, 66, 113
1, 57410, Note_on_c, 0, 67, 99
1, 57775, Note_off_c, 0, 67, 99
1, 57815, Note_on_c, 0, 68, 117
1, 58180, Note_off_c, 0, 68, 117
1, 58240, Note_on_c, 0, 70, 110
1, 58562, Note_off_c, 0, 70, 110
1, 58659, Note_on_c, 0, 87, 111
1, 58901, Note_off_c, 0, 87, 111
1, 59083, Note_on_c, 0, 86, 101
1, 59208, Note_off_c, 0, 86, 101
1, 59228, Note_on_c, 0, 84, 87
1, 59345, Note_off_c, 0, 84, 87
1, 59422, Note_on_c, 0, 79, 89
1, 59510, Note_off_c, 0, 79, 89
1, 59538, Note_on_c, 0, 82, 89
1, 59803, Note_off_c, 0, 82, 89
1, 59803, End_track
0, 0, End_of_file
