0, 0, Header, 1, 1, 192
1, 0, Start_track
1, 0, Title_t, "Melody"
1, 0, Tempo, 213523
1, 0, Key_signature, -2, "major"
1, 0, Time_signature, 4, 2, 24, 8
1, 4896, Note_on_c, 0, 89, 97
1, 4987, Note_off_c, 0, 89, 97
1, 4994, Note_on_c, 0, 82, 70
1, 5072, Note_off_c, 0, 82, 70
1, 5085, Note_on_c, 0, 84, 90
1, 5178, Note_off_c, 0, 84, 90
1, 5186, Note_on_c, 0, 85, 81
1, 5272, Note_off_c, 0, 85, 81
1, 5272, Note_on_c, 0, 86, 103
1, 5381, Note_off_c, 0, 86, 103
1, 5394, Note_on_c, 0, 77, 67
1, 5461, Note_off_c, 0, 77, 67
1, 5480, Note_on_c, 0, 79, 91
1, 5555, Note_off_c, 0, 79, 91
1, 5569, Note_on_c, 0, 81, 76
1, 5655, Note_off_c, 0, 81, 76
1, 5664, Note_on_c, 0, 82, 88
1, 5775, Note_off_c, 0, 82, 88
1, 5802, Note_on_c, 0, 72, 85
1, 5885, Note_off_c, 0, 72, 85
1, 5887, Note_on_c, 0, 74, 93
1, 5967, Note_off_c, 0, 74, 93
1, 5972, Note_on_c, 0, 76, 100
1, 6047, Note_off_c, 0, 76, 100
1, 6048, Note_on_c, 0, 77, 112
1, 6121, Note_off_c, 0, 77, 112
1, 6121, Note_on_c, 0, 65, 121
1, 6187, Note_off_c, 0, 65, 121
1, 6190, Note_on_c, 0, 67, 104
1, 6241, Note_off_c, 0, 67, 104
1, 6253, Note_on_c, 0, 70, 108
1, 6328, Note_off_c, 0, 70, 108
1, 6350, Note_on_c, 0, 72, 110
1, 6419, Note_off_c, 0, 72, 110
1, 6444, Note_on_c, 0, 74, 104
1, 6511, Note_off_c, 0, 74, 104
1, 6529, Note_on_c, 0, 72, 96
1, 6582, Note_off_c, 0, 72, 96
1, 6602, Note_on_c, 0, 74, 103
1, 6671, Note_off_c, 0, 74, 103
1, 6696, Note_on_c, 0, 72, 95
1, 6745, Note_off_c, 0, 72, 95
1, 6746, Note_on_c, 0, 74, 105
1, 6815, Note_off_c, 0, 74, 105
1, 6822, Note_on_c, 0, 72, 102
1, 6904, Note_off_c, 0, 72, 102
1, 6920, Note_on_c, 0, 68, 86
1, 6986, Note_off_c, 0, 68, 86
1, 7008, Note_on_c, 0, 65, 107
1, 7079, Note_off_c, 0, 65, 107
1, 7095, Note_on_c, 0, 62, 98
1, 7205, Note_off_c, 0, 62, 98
1, 7208, Note_on_c, 0, 60, 100
1, 7323, Note_off_c, 0, 60, 100
1, 7332, Note_on_c, 0, 58, 86
1, 7421, Note_off_c, 0, 58, 86
1, 7591, Note_on_c, 0, 65, 111
1, 7669, Note_off_c, 0, 65, 111
1, 7691, Note_on_c, 0, 67, 107
1, 7784, Note_off_c, 0, 67, 107
1, 7789, Note_on_c, 0, 70, 116
1, 7869, Note_off_c, 0, 70, 116
1, 7886, Note_on_c, 0, 67, 96
1, 7979, Note_off_c, 0, 67, 96
1, 7986, Note_on_c, 0, 63, 111
1, 8103, Note_off_c, 0, 63, 111
1, 8142, Note_on_c, 0, 58, 91
1, 8243, Note_off_c, 0, 58, 91
1, 8261, Note_on_c, 0, 55, 88
1, 8352, Note_off_c, 0, 55, 88
1, 8352, Note_on_c, 0, 58, 80
1, 8443, Note_on_c, 0, 62, 89
1, 8443, Note_off_c, 0, 58, 80
1, 8539, Note_off_c, 0, 62, 89
1, 8544, Note_on_c, 0, 63, 107
1, 8711, Note_off_c, 0, 63, 107
1, 8744, Note_on_c, 0, 62, 102
1, 8897, Note_off_c, 0, 62, 102
1, 8899, Note_on_c, 0, 67, 94
1, 9066, Note_off_c, 0, 67, 94
1, 9097, Note_on_c, 0, 70, 117
1, 9201, Note_off_c, 0, 70, 117
1, 9221, Note_on_c, 0, 67, 110
1, 9275, Note_off_c, 0, 67, 110
1, 9276, Note_on_c, 0, 70, 114
1, 9426, Note_off_c, 0, 70, 114
1, 9486, Note_on_c, 0, 65, 112
1, 9566, Note_off_c, 0, 65, 112
1, 9580, Note_on_c, 0, 62, 106
1, 9642, Note_off_c, 0, 62, 106
1, 9660, Note_on_c, 0, 65, 104
1, 9755, Note_off_c, 0, 65, 104
1, 9767, Note_on_c, 0, 70, 91
1, 9849, Note_off_c, 0, 70, 91
1, 9863, Note_on_c, 0, 74, 100
1, 10020, Note_off_c, 0, 74, 100
1, 10034, Note_on_c, 0, 67, 97
1, 10120, Note_off_c, 0, 67, 97
1, 10135, Note_on_c, 0, 70, 91
1, 10218, Note_off_c, 0, 70, 91
1, 10236, Note_on_c, 0, 77, 103
1, 10415, Note_off_c, 0, 77, 103
1, 10488, Note_on_c, 0, 77, 110
1, 10621, Note_off_c, 0, 77, 110
1, 10786, Note_on_c, 0, 72, 108
1, 10868, Note_off_c, 0, 72, 108
1, 10879, Note_on_c, 0, 67, 92
1, 10950, Note_off_c, 0, 67, 92
1, 10994, Note_on_c, 0, 60, 101
1, 11159, Note_off_c, 0, 60, 101
1, 11184, Note_on_c, 0, 72, 85
1, 11369, Note_off_c, 0, 72, 85
1, 11381, Note_on_c, 0, 59, 102
1, 11577, Note_off_c, 0, 59, 102
1, 11584, Note_on_c, 0, 62, 113
1, 11748, Note_off_c, 0, 62, 113
1, 11763, Note_on_c, 0, 69, 101
1, 11846, Note_off_c, 0, 69, 101
1, 11866, Note_on_c, 0, 66, 94
1, 11962, Note_off_c, 0, 66, 94
1, 11980, Note_on_c, 0, 62, 109
1, 12058, Note_off_c, 0, 62, 109
1, 12058, Note_on_c, 0, 60, 100
1, 12136, Note_off_c, 0, 60, 100
1, 12152, Note_on_c, 0, 62, 113
1, 12238, Note_off_c, 0, 62, 113
1, 12341, Note_on_c, 0, 62, 118
1, 12421, Note_off_c, 0, 62, 118
1, 12439, Note_on_c, 0, 60, 101
1, 12519, Note_off_c, 0, 60, 101
1, 12534, Note_on_c, 0, 62, 107
1, 12648, Note_off_c, 0, 62, 107
1, 12744, Note_on_c, 0, 62, 107
1, 12817, Note_off_c, 0, 62, 107
1, 12824, Note_on_c, 0, 67, 95
1, 12907, Note_off_c, 0, 67, 95
1, 12907, Note_on_c, 0, 70, 105
1, 13032, Note_off_c, 0, 70, 105
1, 13039, Note_on_c, 0, 64, 108
1, 13101, Note_off_c, 0, 64, 108
1, 13108, Note_on_c, 0, 67, 105
1, 13183, Note_off_c, 0, 67, 105
1, 13206, Note_on_c, 0, 70, 94
1, 13277, Note_off_c, 0, 70, 94
1, 13277, Note_on_c, 0, 74, 121
1, 13455, Note_off_c, 0, 74, 121
1, 13591, Note_on_c, 0, 74, 114
1, 13770, Note_off_c, 0, 74, 114
1, 14177, Note_on_c, 0, 65, 108
1, 14257, Note_off_c, 0, 65, 108
1, 14264, Note_on_c, 0, 69, 126
1, 14344, Note_off_c, 0, 69, 126
1, 14346, Note_on_c, 0, 72, 107
1, 14426, Note_off_c, 0, 72, 107
1, 14439, Note_on_c, 0, 79, 111
1, 14608, Note_off_c, 0, 79, 111
1, 14652, Note_on_c, 0, 79, 119
1, 14759, Note_off_c, 0, 79, 119
1, 14761, Note_on_c, 0, 76, 103
1, 14852, Note_off_c, 0, 76, 103
1, 14854, Note_on_c, 0, 74, 111
1, 14950, Note_off_c, 0, 74, 111
1, 14957, Note_on_c, 0, 70, 104
1, 15050, Note_off_c, 0, 70, 104
1, 15057, Note_on_c, 0, 67, 93
1, 15137, Note_off_c, 0, 67, 93
1, 15150, Note_on_c, 0, 64, 112
1, 15267, Note_off_c, 0, 64, 112
1, 15721, Note_on_c, 0, 65, 104
1, 15833, Note_off_c, 0, 65, 104
1, 15885, Note_on_c, 0, 65, 100
1, 15958, Note_off_c, 0, 65, 100
1, 15989, Note_on_c, 0, 77, 115
1, 16064, Note_off_c, 0, 77, 115
1, 16064, Note_on_c, 0, 65, 118
1, 16097, Note_off_c, 0, 65, 118
1, 16115, Note_on_c, 0, 77, 108
1, 16141, Note_off_c, 0, 77, 108
1, 16148, Note_on_c, 0, 65, 103
1, 16236, Note_off_c, 0, 65, 103
1, 16254, Note_on_c, 0, 76, 108
1, 16355, Note_off_c, 0, 76, 108
1, 16357, Note_on_c, 0, 65, 105
1, 16388, Note_off_c, 0, 65, 105
1, 16414, Note_on_c, 0, 76, 110
1, 16484, Note_on_c, 0, 65, 96
1, 16484, Note_off_c, 0, 76, 110
1, 16523, Note_off_c, 0, 65, 96
1, 16567, Note_on_c, 0, 75, 88
1, 16653, Note_off_c, 0, 75, 88
1, 16668, Note_on_c, 0, 65, 94
1, 16735, Note_off_c, 0, 65, 94
1, 16735, Note_on_c, 0, 74, 112
1, 16920, Note_off_c, 0, 74, 112
1, 17126, Note_on_c, 0, 76, 106
1, 17326, Note_off_c, 0, 76, 106
1, 17409, Note_on_c, 0, 77, 107
1, 17690, Note_off_c, 0, 77, 107
1, 17877, Note_on_c, 0, 74, 122
1, 18070, Note_off_c, 0, 74, 122
1, 18083, Note_on_c, 0, 75, 102
1, 18252, Note_off_c, 0, 75, 102
1, 18285, Note_on_c, 0, 76, 108
1, 18472, Note_off_c, 0, 76, 108
1, 18479, Note_on_c, 0, 77, 103
1, 18653, Note_off_c, 0, 77, 103
1, 18655, Note_on_c, 0, 74, 125
1, 18738, Note_off_c, 0, 74, 125
1, 18753, Note_on_c, 0, 70, 93
1, 18836, Note_off_c, 0, 70, 93
1, 18854, Note_on_c, 0, 68, 105
1, 18921, Note_off_c, 0, 68, 105
1, 18939, Note_on_c, 0, 65, 103
1, 19027, Note_off_c, 0, 65, 103
1, 19058, Note_on_c, 0, 60, 102
1, 19183, Note_off_c, 0, 60, 102
1, 19229, Note_on_c, 0, 60, 100
1, 19367, Note_off_c, 0, 60, 100
1, 19424, Note_on_c, 0, 60, 101
1, 19606, Note_off_c, 0, 60, 101
1, 19613, Note_on_c, 0, 70, 118
1, 19720, Note_off_c, 0, 70, 118
1, 19720, Note_on_c, 0, 66, 107
1, 19816, Note_off_c, 0, 66, 107
1, 19826, Note_on_c, 0, 62, 127
1, 19930, Note_off_c, 0, 62, 127
1, 19943, Note_on_c, 0, 58, 116
1, 20013, Note_off_c, 0, 58, 116
1, 20242, Note_on_c, 0, 58, 110
1, 20317, Note_off_c, 0, 58, 110
1, 20327, Note_on_c, 0, 55, 98
1, 20400, Note_off_c, 0, 55, 98
1, 20413, Note_on_c, 0, 58, 91
1, 20483, Note_off_c, 0, 58, 91
1, 20506, Note_on_c, 0, 55, 95
1, 20573, Note_off_c, 0, 55, 95
1, 20609, Note_on_c, 0, 58, 85
1, 20687, Note_off_c, 0, 58, 85
1, 20692, Note_on_c, 0, 62, 95
1, 20788, Note_off_c, 0, 62, 95
1, 20803, Note_on_c, 0, 63, 115
1, 20938, Note_off_c, 0, 63, 115
1, 20945, Note_on_c, 0, 62, 110
1, 21083, Note_off_c, 0, 62, 110
1, 21150, Note_on_c, 0, 67, 102
1, 21285, Note_off_c, 0, 67, 102
1, 21326, Note_on_c, 0, 70, 111
1, 21500, Note_off_c, 0, 70, 111
1, 21528, Note_on_c, 0, 70, 120
1, 21697, Note_off_c, 0, 70, 120
1, 21723, Note_on_c, 0, 69, 118
1, 21801, Note_off_c, 0, 69, 118
1, 21819, Note_on_c, 0, 62, 108
1, 21879, Note_off_c, 0, 62, 108
1, 21907, Note_on_c, 0, 69, 109
1, 21998, Note_off_c, 0, 69, 109
1, 22000, Note_on_c, 0, 72, 99
1, 22091, Note_off_c, 0, 72, 99
1, 22101, Note_on_c, 0, 74, 123
1, 22244, Note_off_c, 0, 74, 123
1, 22471, Note_on_c, 0, 74, 120
1, 22661, Note_off_c, 0, 74, 120
1, 22778, Note_on_c, 0, 74, 117
1, 22934, Note_off_c, 0, 74, 117
1, 23030, Note_on_c, 0, 74, 124
1, 23202, Note_off_c, 0, 74, 124
1, 23449, Note_on_c, 0, 74, 113
1, 23602, Note_off_c, 0, 74, 113
1, 23628, Note_on_c, 0, 70, 99
1, 23847, Note_off_c, 0, 70, 99
1, 23990, Note_on_c, 0, 74, 119
1, 24157, Note_off_c, 0, 74, 119
1, 24180, Note_on_c, 0, 69, 105
1, 24326, Note_off_c, 0, 69, 105
1, 24560, Note_on_c, 0, 74, 115
1, 24724, Note_off_c, 0, 74, 115
1, 24778, Note_on_c, 0, 70, 107
1, 24921, Note_off_c, 0, 70, 107
1, 24962, Note_on_c, 0, 65, 118
1, 25108, Note_off_c, 0, 65, 118
1, 25149, Note_on_c, 0, 65, 120
1, 25295, Note_off_c, 0, 65, 120
1, 25355, Note_on_c, 0, 58, 103
1, 25438, Note_off_c, 0, 58, 103
1, 25448, Note_on_c, 0, 61, 96
1, 25523, Note_off_c, 0, 61, 96
1, 25530, Note_on_c, 0, 64, 104
1, 25595, Note_off_c, 0, 64, 104
1, 25615, Note_on_c, 0, 69, 98
1, 25708, Note_off_c, 0, 69, 98
1, 25723, Note_on_c, 0, 70, 116
1, 25801, Note_off_c, 0, 70, 116
1, 25803, Note_on_c, 0, 73, 119
1, 25870, Note_off_c, 0, 73, 119
1, 25898, Note_on_c, 0, 76, 104
1, 25981, Note_off_c, 0, 76, 104
1, 25994, Note_on_c, 0, 74, 103
1, 26082, Note_off_c, 0, 74, 103
1, 26092, Note_on_c, 0, 81, 101
1, 26175, Note_off_c, 0, 81, 101
1, 26188, Note_on_c, 0, 79, 93
1, 26248, Note_off_c, 0, 79, 93
1, 26255, Note_on_c, 0, 82, 99
1, 26356, Note_off_c, 0, 82, 99
1, 26376, Note_on_c, 0, 79, 89
1, 26451, Note_off_c, 0, 79, 89
1, 26474, Note_on_c, 0, 75, 102
1, 26549, Note_off_c, 0, 75, 102
1, 26559, Note_on_c, 0, 72, 84
1, 26639, Note_off_c, 0, 72, 84
1, 26665, Note_on_c, 0, 70, 114
1, 26753, Note_off_c, 0, 70, 114
1, 26760, Note_on_c, 0, 67, 103
1, 26830, Note_off_c, 0, 67, 103
1, 26850, Note_on_c, 0, 70, 117
1, 26915, Note_off_c, 0, 70, 117
1, 26930, Note_on_c, 0, 67, 99
1, 27010, Note_off_c, 0, 67, 99
1, 27056, Note_on_c, 0, 69, 108
1, 27209, Note_off_c, 0, 69, 108
1, 27310, Note_on_c, 0, 77, 110
1, 27526, Note_off_c, 0, 77, 110
1, 27612, Note_on_c, 0, 74, 104
1, 27810, Note_off_c, 0, 74, 104
1, 27877, Note_on_c, 0, 77, 82
1, 28119, Note_off_c, 0, 77, 82
1, 28173, Note_on_c, 0, 74, 72
1, 28405, Note_off_c, 0, 74, 72
1, 28405, End_track
0, 0, End_of_file
