0, 0, Header, 1, 1, 192
1, 0, Start_track
1, 0, Title_t, "Melody"
1, 0, Tempo, 247933
1, 0, Key_signature, -3, "major"
1, 0, Time_signature, 4, 2, 24, 8
1, 3722, Note_on_c, 0, 77, 114
1, 3829, Note_off_c, 0, 77, 114
1, 3837, Note_on_c, 0, 74, 98
1, 3899, Note_off_c, 0, 74, 98
1, 3925, Note_on_c, 0, 68, 96
1, 3981, Note_off_c, 0, 68, 96
1, 4005, Note_on_c, 0, 74, 87
1, 4050, Note_off_c, 0, 74, 87
1, 4112, Note_on_c, 0, 79, 111
1, 4237, Note_off_c, 0, 79, 111
1, 4250, Note_on_c, 0, 74, 105
1, 4298, Note_off_c, 0, 74, 105
1, 4311, Note_on_c, 0, 68, 98
1, 4389, Note_off_c, 0, 68, 98
1, 4404, Note_on_c, 0, 74, 93
1, 4429, Note_off_c, 0, 74, 93
1, 4466, Note_on_c, 0, 80, 108
1, 4624, Note_off_c, 0, 80, 108
1, 4647, Note_on_c, 0, 74, 93
1, 4692, Note_off_c, 0, 74, 93
1, 4716, Note_on_c, 0, 68, 96
1, 4787, Note_off_c, 0, 68, 96
1, 4791, Note_on_c, 0, 74, 102
1, 4833, Note_off_c, 0, 74, 102
1, 4850, Note_on_c, 0, 82, 101
1, 5004, Note_off_c, 0, 82, 101
1, 5013, Note_on_c, 0, 74, 88
1, 5054, Note_off_c, 0, 74, 88
1, 5084, Note_on_c, 0, 68, 98
1, 5155, Note_off_c, 0, 68, 98
1, 5168, Note_on_c, 0, 74, 103
1, 5226, Note_off_c, 0, 74, 103
1, 5244, Note_on_c, 0, 80, 107
1, 5378, Note_off_c, 0, 80, 107
1, 5404, Note_on_c, 0, 74, 101
1, 5459, Note_off_c, 0, 74, 101
1, 5486, Note_on_c, 0, 68, 90
1, 5564, Note_off_c, 0, 68, 90
1, 5575, Note_on_c, 0, 74, 111
1, 5635, Note_off_c, 0, 74, 111
1, 5658, Note_on_c, 0, 79, 105
1, 5828, Note_off_c, 0, 79, 105
1, 5913, Note_on_c, 0, 77, 108
1, 6112, Note_off_c, 0, 77, 108
1, 6181, Note_on_c, 0, 87, 98
1, 6316, Note_off_c, 0, 87, 98
1, 6355, Note_on_c, 0, 81, 97
1, 6435, Note_off_c, 0, 81, 97
1, 6439, Note_on_c, 0, 80, 90
1, 6540, Note_off_c, 0, 80, 90
1, 6578, Note_on_c, 0, 82, 111
1, 6694, Note_off_c, 0, 82, 111
1, 6716, Note_on_c, 0, 79, 83
1, 6783, Note_off_c, 0, 79, 83
1, 6805, Note_on_c, 0, 75, 90
1, 6910, Note_off_c, 0, 75, 90
1, 6977, Note_on_c, 0, 70, 94
1, 7109, Note_off_c, 0, 70, 94
1, 7144, Note_on_c, 0, 70, 103
1, 7308, Note_off_c, 0, 70, 103
1, 7730, Note_on_c, 0, 67, 93
1, 7808, Note_off_c, 0, 67, 93
1, 7823, Note_on_c, 0, 70, 102
1, 7861, Note_off_c, 0, 70, 102
1, 7876, Note_on_c, 0, 71, 108
1, 7911, Note_off_c, 0, 71, 108
1, 7919, Note_on_c, 0, 82, 107
1, 8058, Note_off_c, 0, 82, 107
1, 8125, Note_on_c, 0, 80, 117
1, 8275, Note_off_c, 0, 80, 117
1, 8319, Note_on_c, 0, 79, 100
1, 8476, Note_off_c, 0, 79, 100
1, 8487, Note_on_c, 0, 75, 95
1, 8536, Note_off_c, 0, 75, 95
1, 8556, Note_on_c, 0, 70, 101
1, 8675, Note_off_c, 0, 70, 101
1, 8722, Note_on_c, 0, 63, 91
1, 8913, Note_off_c, 0, 63, 91
1, 9192, Note_on_c, 0, 58, 71
1, 9256, Note_off_c, 0, 58, 71
1, 9272, Note_on_c, 0, 61, 98
1, 9406, Note_off_c, 0, 61, 98
1, 9430, Note_on_c, 0, 64, 108
1, 9569, Note_off_c, 0, 64, 108
1, 9589, Note_on_c, 0, 68, 105
1, 9632, Note_off_c, 0, 68, 105
1, 9653, Note_on_c, 0, 73, 116
1, 9728, Note_off_c, 0, 73, 116
1, 9847, Note_on_c, 0, 75, 105
1, 9940, Note_off_c, 0, 75, 105
1, 9955, Note_on_c, 0, 74, 107
1, 10032, Note_off_c, 0, 74, 107
1, 10057, Note_on_c, 0, 73, 102
1, 10134, Note_off_c, 0, 73, 102
1, 10154, Note_on_c, 0, 74, 88
1, 10226, Note_off_c, 0, 74, 88
1, 10238, Note_on_c, 0, 75, 102
1, 10358, Note_off_c, 0, 75, 102
1, 10373, Note_on_c, 0, 74, 92
1, 10444, Note_off_c, 0, 74, 92
1, 10467, Note_on_c, 0, 73, 92
1, 10541, Note_off_c, 0, 73, 92
1, 10548, Note_on_c, 0, 74, 93
1, 10617, Note_off_c, 0, 74, 93
1, 10634, Note_on_c, 0, 75, 103
1, 10774, Note_off_c, 0, 75, 103
1, 10789, Note_on_c, 0, 74, 101
1, 10839, Note_off_c, 0, 74, 101
1, 10853, Note_on_c, 0, 73, 88
1, 10900, Note_off_c, 0, 73, 88
1, 10931, Note_on_c, 0, 80, 119
1, 11161, Note_off_c, 0, 80, 119
1, 11211, Note_on_c, 0, 75, 111
1, 11280, Note_off_c, 0, 75, 111
1, 11291, Note_on_c, 0, 74, 112
1, 11341, Note_off_c, 0, 74, 112
1, 11358, Note_on_c, 0, 73, 105
1, 11441, Note_off_c, 0, 73, 105
1, 11567, Note_on_c, 0, 68, 95
1, 11723, Note_off_c, 0, 68, 95
1, 11762, Note_on_c, 0, 68, 110
1, 11896, Note_off_c, 0, 68, 110
1, 11910, Note_on_c, 0, 67, 97
1, 11977, Note_off_c, 0, 67, 97
1, 11992, Note_on_c, 0, 65, 101
1, 12055, Note_off_c, 0, 65, 101
1, 12064, Note_on_c, 0, 67, 84
1, 12124, Note_off_c, 0, 67, 84
1, 12150, Note_on_c, 0, 70, 102
1, 12426, Note_off_c, 0, 70, 102
1, 12465, Note_on_c, 0, 70, 110
1, 12708, Note_off_c, 0, 70, 110
1, 12738, Note_on_c, 0, 70, 98
1, 12952, Note_off_c, 0, 70, 98
1, 13113, Note_on_c, 0, 82, 113
1, 13315, Note_off_c, 0, 82, 113
1, 13340, Note_on_c, 0, 81, 102
1, 13417, Note_off_c, 0, 81, 102
1, 13426, Note_on_c, 0, 80, 106
1, 13523, Note_off_c, 0, 80, 106
1, 13701, Note_on_c, 0, 80, 112
1, 13871, Note_off_c, 0, 80, 112
1, 13889, Note_on_c, 0, 79, 92
1, 14066, Note_off_c, 0, 79, 92
1, 14084, Note_on_c, 0, 80, 104
1, 14279, Note_off_c, 0, 80, 104
1, 14296, Note_on_c, 0, 75, 93
1, 14436, Note_off_c, 0, 75, 93
1, 14453, Note_on_c, 0, 75, 96
1, 14606, Note_off_c, 0, 75, 96
1, 14639, Note_on_c, 0, 70, 91
1, 14699, Note_off_c, 0, 70, 91
1, 14733, Note_on_c, 0, 67, 97
1, 14846, Note_off_c, 0, 67, 97
1, 15476, Note_on_c, 0, 63, 91
1, 15558, Note_off_c, 0, 63, 91
1, 15567, Note_on_c, 0, 65, 90
1, 15603, Note_off_c, 0, 65, 90
1, 15620, Note_on_c, 0, 70, 108
1, 15789, Note_off_c, 0, 70, 108
1, 15819, Note_on_c, 0, 68, 101
1, 16000, Note_off_c, 0, 68, 101
1, 16064, Note_on_c, 0, 65, 85
1, 16158, Note_off_c, 0, 65, 85
1, 16194, Note_on_c, 0, 68, 117
1, 16374, Note_off_c, 0, 68, 117
1, 16408, Note_on_c, 0, 67, 94
1, 16585, Note_off_c, 0, 67, 94
1, 16834, Note_on_c, 0, 60, 79
1, 16931, Note_off_c, 0, 60, 79
1, 16979, Note_on_c, 0, 67, 100
1, 17070, Note_off_c, 0, 67, 100
1, 17092, Note_on_c, 0, 70, 85
1, 17142, Note_off_c, 0, 70, 85
1, 17164, Note_on_c, 0, 74, 119
1, 17295, Note_off_c, 0, 74, 119
1, 17343, Note_on_c, 0, 74, 114
1, 17515, Note_off_c, 0, 74, 114
1, 17562, Note_on_c, 0, 73, 105
1, 18002, Note_off_c, 0, 73, 105
1, 18318, Note_on_c, 0, 81, 116
1, 18495, Note_off_c, 0, 81, 116
1, 18518, Note_on_c, 0, 67, 93
1, 18597, Note_off_c, 0, 67, 93
1, 18634, Note_on_c, 0, 84, 116
1, 18859, Note_off_c, 0, 84, 116
1, 18893, Note_on_c, 0, 84, 117
1, 19060, Note_off_c, 0, 84, 117
1, 19090, Note_on_c, 0, 76, 89
1, 19225, Note_off_c, 0, 76, 89
1, 19283, Note_on_c, 0, 72, 88
1, 19365, Note_off_c, 0, 72, 88
1, 19374, Note_on_c, 0, 68, 84
1, 19484, Note_off_c, 0, 68, 84
1, 19491, Note_on_c, 0, 67, 92
1, 19568, Note_off_c, 0, 67, 92
1, 19574, Note_on_c, 0, 72, 79
1, 19634, Note_off_c, 0, 72, 79
1, 19660, Note_on_c, 0, 77, 104
1, 19808, Note_off_c, 0, 77, 104
1, 19833, Note_on_c, 0, 77, 104
1, 20183, Note_off_c, 0, 77, 104
1, 20228, Note_on_c, 0, 79, 104
1, 20485, Note_off_c, 0, 79, 104
1, 20524, Note_on_c, 0, 82, 106
1, 20740, Note_off_c, 0, 82, 106
1, 20980, Note_on_c, 0, 80, 115
1, 21104, Note_off_c, 0, 80, 115
1, 21115, Note_on_c, 0, 77, 88
1, 21195, Note_off_c, 0, 77, 88
1, 21215, Note_on_c, 0, 75, 97
1, 21292, Note_off_c, 0, 75, 97
1, 21303, Note_on_c, 0, 71, 89
1, 21370, Note_off_c, 0, 71, 89
1, 21384, Note_on_c, 0, 68, 99
1, 21464, Note_off_c, 0, 68, 99
1, 21482, Note_on_c, 0, 65, 94
1, 21546, Note_off_c, 0, 65, 94
1, 21564, Note_on_c, 0, 63, 94
1, 21625, Note_off_c, 0, 63, 94
1, 21643, Note_on_c, 0, 65, 94
1, 21725, Note_off_c, 0, 65, 94
1, 21748, Note_on_c, 0, 68, 97
1, 21898, Note_off_c, 0, 68, 97
1, 22342, Note_on_c, 0, 67, 93
1, 22408, Note_off_c, 0, 67, 93
1, 22431, Note_on_c, 0, 70, 89
1, 22487, Note_off_c, 0, 70, 89
1, 22505, Note_on_c, 0, 75, 101
1, 22691, Note_off_c, 0, 75, 101
1, 22741, Note_on_c, 0, 63, 91
1, 22797, Note_off_c, 0, 63, 91
1, 22815, Note_on_c, 0, 68, 105
1, 22876, Note_off_c, 0, 68, 105
1, 22891, Note_on_c, 0, 73, 120
1, 22998, Note_off_c, 0, 73, 120
1, 23021, Note_on_c, 0, 73, 118
1, 23122, Note_off_c, 0, 73, 118
1, 23136, Note_on_c, 0, 73, 121
1, 23219, Note_off_c, 0, 73, 121
1, 23249, Note_on_c, 0, 73, 122
1, 23377, Note_off_c, 0, 73, 122
1, 23449, Note_on_c, 0, 73, 112
1, 23689, Note_off_c, 0, 73, 112
1, 23704, Note_on_c, 0, 71, 83
1, 23760, Note_off_c, 0, 71, 83
1, 23775, Note_on_c, 0, 70, 93
1, 23833, Note_off_c, 0, 70, 93
1, 23847, Note_on_c, 0, 67, 92
1, 23910, Note_off_c, 0, 67, 92
1, 23952, Note_on_c, 0, 76, 100
1, 24016, Note_off_c, 0, 76, 100
1, 24036, Note_on_c, 0, 80, 108
1, 24290, Note_off_c, 0, 80, 108
1, 24326, Note_on_c, 0, 79, 101
1, 24661, Note_off_c, 0, 79, 101
1, 24992, Note_on_c, 0, 84, 124
1, 25105, Note_off_c, 0, 84, 124
1, 25125, Note_on_c, 0, 80, 94
1, 25196, Note_off_c, 0, 80, 94
1, 25221, Note_on_c, 0, 77, 110
1, 25290, Note_off_c, 0, 77, 110
1, 25313, Note_on_c, 0, 72, 103
1, 25380, Note_off_c, 0, 72, 103
1, 25410, Note_on_c, 0, 68, 97
1, 25477, Note_off_c, 0, 68, 97
1, 25491, Note_on_c, 0, 65, 90
1, 25554, Note_off_c, 0, 65, 90
1, 25721, Note_on_c, 0, 68, 104
1, 25924, Note_off_c, 0, 68, 104
1, 25958, Note_on_c, 0, 67, 96
1, 26027, Note_off_c, 0, 67, 96
1, 26039, Note_on_c, 0, 68, 95
1, 26108, Note_off_c, 0, 68, 95
1, 26130, Note_on_c, 0, 70, 98
1, 26207, Note_off_c, 0, 70, 98
1, 26221, Note_on_c, 0, 72, 83
1, 26277, Note_off_c, 0, 72, 83
1, 26303, Note_on_c, 0, 74, 127
1, 26486, Note_off_c, 0, 74, 127
1, 26511, Note_on_c, 0, 79, 100
1, 26676, Note_off_c, 0, 79, 100
1, 26706, Note_on_c, 0, 75, 99
1, 26886, Note_off_c, 0, 75, 99
1, 26903, Note_on_c, 0, 82, 80
1, 26978, Note_off_c, 0, 82, 80
1, 27006, Note_on_c, 0, 75, 97
1, 27190, Note_off_c, 0, 75, 97
1, 27202, Note_on_c, 0, 82, 81
1, 27274, Note_off_c, 0, 82, 81
1, 27302, Note_on_c, 0, 75, 101
1, 27469, Note_off_c, 0, 75, 101
1, 27480, Note_on_c, 0, 82, 87
1, 27551, Note_off_c, 0, 82, 87
1, 27571, Note_on_c, 0, 75, 109
1, 27727, Note_off_c, 0, 75, 109
1, 27764, Note_on_c, 0, 82, 92
1, 27838, Note_off_c, 0, 82, 92
1, 27841, Note_on_c, 0, 75, 104
1, 28005, Note_off_c, 0, 75, 104
1, 28087, Note_on_c, 0, 75, 92
1, 28346, Note_off_c, 0, 75, 92
1, 28346, End_track
0, 0, End_of_file
