0, 0, Header, 1, 1, 192
1, 0, Start_track
1, 0, Title_t, "Melody"
1, 0, Tempo, 303030
1, 0, Key_signature, 1, "major"
1, 0, Time_signature, 4, 2, 24, 8
1, 2061, Note_on_c, 0, 61, 101
1, 2091, Note_off_c, 0, 61, 101
1, 2100, Note_on_c, 0, 62, 113
1, 2153, Note_off_c, 0, 62, 113
1, 2193, Note_on_c, 0, 64, 121
1, 2284, Note_off_c, 0, 64, 121
1, 2341, Note_on_c, 0, 67, 118
1, 2410, Note_off_c, 0, 67, 118
1, 2421, Note_on_c, 0, 71, 123
1, 2538, Note_off_c, 0, 71, 123
1, 2604, Note_on_c, 0, 71, 127
1, 2714, Note_off_c, 0, 71, 127
1, 2792, Note_on_c, 0, 71, 104
1, 3030, Note_off_c, 0, 71, 104
1, 3596, Note_on_c, 0, 62, 115
1, 3676, Note_off_c, 0, 62, 115
1, 3690, Note_on_c, 0, 64, 124
1, 3774, Note_off_c, 0, 64, 124
1, 3777, Note_on_c, 0, 67, 122
1, 3879, Note_off_c, 0, 67, 122
1, 3901, Note_on_c, 0, 71, 124
1, 3996, Note_off_c, 0, 71, 124
1, 4069, Note_on_c, 0, 71, 107
1, 4245, Note_off_c, 0, 71, 107
1, 4329, Note_on_c, 0, 71, 126
1, 4428, Note_off_c, 0, 71, 126
1, 5112, Note_on_c, 0, 63, 118
1, 5237, Note_off_c, 0, 63, 118
1, 5259, Note_on_c, 0, 64, 125
1, 5347, Note_off_c, 0, 64, 125
1, 5417, Note_on_c, 0, 67, 123
1, 5483, Note_off_c, 0, 67, 123
1, 5511, Note_on_c, 0, 71, 124
1, 5599, Note_off_c, 0, 71, 124
1, 5635, Note_on_c, 0, 71, 125
1, 5704, Note_off_c, 0, 71, 125
1, 5799, Note_on_c, 0, 71, 102
1, 6019, Note_off_c, 0, 71, 102
1, 6356, Note_on_c, 0, 71, 101
1, 6392, Note_off_c, 0, 71, 101
1, 6396, Note_on_c, 0, 79, 110
1, 6608, Note_off_c, 0, 79, 110
1, 6639, Note_on_c, 0, 74, 120
1, 6739, Note_off_c, 0, 74, 120
1, 6772, Note_on_c, 0, 71, 125
1, 6857, Note_off_c, 0, 71, 125
1, 6931, Note_on_c, 0, 66, 120
1, 7005, Note_off_c, 0, 66, 120
1, 7017, Note_on_c, 0, 69, 125
1, 7117, Note_off_c, 0, 69, 125
1, 7129, Note_on_c, 0, 67, 122
1, 7178, Note_off_c, 0, 67, 122
1, 7203, Note_on_c, 0, 67, 121
1, 7311, Note_off_c, 0, 67, 121
1, 7395, Note_on_c, 0, 67, 113
1, 7565, Note_off_c, 0, 67, 113
1, 7584, Note_on_c, 0, 62, 114
1, 7715, Note_off_c, 0, 62, 114
1, 7717, Note_on_c, 0, 59, 96
1, 7773, Note_off_c, 0, 59, 96
1, 8158, Note_on_c, 0, 65, 113
1, 8194, Note_off_c, 0, 65, 113
1, 8196, Note_on_c, 0, 66, 116
1, 8255, Note_off_c, 0, 66, 116
1, 8273, Note_on_c, 0, 67, 117
1, 8332, Note_off_c, 0, 67, 117
1, 8342, Note_on_c, 0, 71, 118
1, 8448, Note_off_c, 0, 71, 118
1, 8453, Note_on_c, 0, 74, 123
1, 8525, Note_off_c, 0, 74, 123
1, 8537, Note_on_c, 0, 78, 121
1, 8653, Note_off_c, 0, 78, 121
1, 8668, Note_on_c, 0, 76, 118
1, 8890, Note_off_c, 0, 76, 118
1, 8910, Note_on_c, 0, 74, 121
1, 8987, Note_off_c, 0, 74, 121
1, 8992, Note_on_c, 0, 73, 114
1, 9051, Note_off_c, 0, 73, 114
1, 9061, Note_on_c, 0, 72, 121
1, 9110, Note_off_c, 0, 72, 121
1, 9125, Note_on_c, 0, 71, 119
1, 9228, Note_off_c, 0, 71, 119
1, 9246, Note_on_c, 0, 66, 112
1, 9295, Note_off_c, 0, 66, 112
1, 9302, Note_on_c, 0, 69, 102
1, 9620, Note_off_c, 0, 69, 102
1, 9620, Note_on_c, 0, 67, 116
1, 9669, Note_off_c, 0, 67, 116
1, 9687, Note_on_c, 0, 66, 119
1, 9764, Note_off_c, 0, 66, 119
1, 9864, Note_on_c, 0, 64, 123
1, 9988, Note_off_c, 0, 64, 123
1, 10020, Note_on_c, 0, 66, 119
1, 10056, Note_off_c, 0, 66, 119
1, 10062, Note_on_c, 0, 67, 121
1, 10121, Note_off_c, 0, 67, 121
1, 10185, Note_on_c, 0, 67, 120
1, 10265, Note_off_c, 0, 67, 120
1, 10363, Note_on_c, 0, 64, 118
1, 10437, Note_off_c, 0, 64, 118
1, 10439, Note_on_c, 0, 60, 113
1, 10524, Note_off_c, 0, 60, 113
1, 10571, Note_on_c, 0, 57, 109
1, 10620, Note_off_c, 0, 57, 109
1, 10623, Note_on_c, 0, 60, 110
1, 10716, Note_off_c, 0, 60, 110
1, 10731, Note_on_c, 0, 57, 101
1, 11015, Note_off_c, 0, 57, 101
1, 11369, Note_on_c, 0, 65, 118
1, 11495, Note_off_c, 0, 65, 118
1, 11505, Note_on_c, 0, 66, 119
1, 11587, Note_off_c, 0, 66, 119
1, 11596, Note_on_c, 0, 71, 120
1, 11690, Note_off_c, 0, 71, 120
1, 11707, Note_on_c, 0, 71, 111
1, 12003, Note_off_c, 0, 71, 111
1, 12180, Note_on_c, 0, 69, 122
1, 12267, Note_off_c, 0, 69, 122
1, 12285, Note_on_c, 0, 68, 115
1, 12349, Note_off_c, 0, 68, 115
1, 12361, Note_on_c, 0, 71, 122
1, 12446, Note_off_c, 0, 71, 122
1, 12464, Note_on_c, 0, 74, 118
1, 12531, Note_off_c, 0, 74, 118
1, 12554, Note_on_c, 0, 71, 120
1, 12657, Note_off_c, 0, 71, 120
1, 12734, Note_on_c, 0, 70, 119
1, 12847, Note_off_c, 0, 70, 119
1, 12867, Note_on_c, 0, 71, 120
1, 12954, Note_off_c, 0, 71, 120
1, 13036, Note_on_c, 0, 66, 118
1, 13105, Note_off_c, 0, 66, 118
1, 13120, Note_on_c, 0, 69, 121
1, 13223, Note_off_c, 0, 69, 121
1, 13230, Note_on_c, 0, 67, 112
1, 13486, Note_off_c, 0, 67, 112
1, 13498, Note_on_c, 0, 64, 118
1, 13601, Note_off_c, 0, 64, 118
1, 13632, Note_on_c, 0, 58, 101
1, 13673, Note_off_c, 0, 58, 101
1, 13675, Note_on_c, 0, 59, 106
1, 13778, Note_off_c, 0, 59, 106
1, 13802, Note_on_c, 0, 62, 111
1, 13885, Note_off_c, 0, 62, 111
1, 14228, Note_on_c, 0, 69, 99
1, 14276, Note_off_c, 0, 69, 99
1, 14283, Note_on_c, 0, 74, 122
1, 14344, Note_off_c, 0, 74, 122
1, 14359, Note_on_c, 0, 74, 118
1, 14377, Note_off_c, 0, 74, 118
1, 14394, Note_on_c, 0, 74, 121
1, 14447, Note_off_c, 0, 74, 121
1, 14467, Note_on_c, 0, 74, 123
1, 14497, Note_off_c, 0, 74, 123
1, 14519, Note_on_c, 0, 74, 122
1, 14557, Note_off_c, 0, 74, 122
1, 14582, Note_on_c, 0, 74, 122
1, 14611, Note_off_c, 0, 74, 122
1, 14635, Note_on_c, 0, 74, 121
1, 14702, Note_off_c, 0, 74, 121
1, 14766, Note_on_c, 0, 74, 120
1, 14845, Note_off_c, 0, 74, 120
1, 14907, Note_on_c, 0, 74, 121
1, 14997, Note_off_c, 0, 74, 121
1, 15028, Note_on_c, 0, 74, 119
1, 15113, Note_off_c, 0, 74, 119
1, 15206, Note_on_c, 0, 74, 125
1, 15273, Note_off_c, 0, 74, 125
1, 15329, Note_on_c, 0, 74, 119
1, 15396, Note_off_c, 0, 74, 119
1, 15424, Note_on_c, 0, 74, 123
1, 15511, Note_off_c, 0, 74, 123
1, 15531, Note_on_c, 0, 76, 124
1, 15678, Note_off_c, 0, 76, 124
1, 15706, Note_on_c, 0, 79, 106
1, 15739, Note_off_c, 0, 79, 106
1, 15744, Note_on_c, 0, 73, 103
1, 15780, Note_off_c, 0, 73, 103
1, 15984, Note_on_c, 0, 69, 118
1, 16012, Note_off_c, 0, 69, 118
1, 16017, Note_on_c, 0, 70, 119
1, 16084, Note_off_c, 0, 70, 119
1, 16099, Note_on_c, 0, 71, 123
1, 16173, Note_off_c, 0, 71, 123
1, 16178, Note_on_c, 0, 74, 122
1, 16284, Note_off_c, 0, 74, 122
1, 16289, Note_on_c, 0, 72, 110
1, 16547, Note_off_c, 0, 72, 110
1, 16549, Note_on_c, 0, 66, 91
1, 16561, Note_off_c, 0, 66, 91
1, 16566, Note_on_c, 0, 67, 117
1, 16653, Note_off_c, 0, 67, 117
1, 16671, Note_on_c, 0, 63, 103
1, 16691, Note_off_c, 0, 63, 103
1, 16701, Note_on_c, 0, 64, 122
1, 16778, Note_off_c, 0, 64, 122
1, 16842, Note_on_c, 0, 61, 95
1, 16867, Note_off_c, 0, 61, 95
1, 16874, Note_on_c, 0, 62, 90
1, 16907, Note_off_c, 0, 62, 90
1, 17302, Note_on_c, 0, 74, 118
1, 17413, Note_off_c, 0, 74, 118
1, 17460, Note_on_c, 0, 74, 118
1, 17548, Note_off_c, 0, 74, 118
1, 17610, Note_on_c, 0, 74, 120
1, 17690, Note_off_c, 0, 74, 120
1, 17715, Note_on_c, 0, 74, 121
1, 17808, Note_off_c, 0, 74, 121
1, 17833, Note_on_c, 0, 74, 121
1, 17907, Note_off_c, 0, 74, 121
1, 17997, Note_on_c, 0, 74, 122
1, 18066, Note_off_c, 0, 74, 122
1, 18089, Note_on_c, 0, 73, 120
1, 18187, Note_off_c, 0, 73, 120
1, 18233, Note_on_c, 0, 73, 119
1, 18320, Note_off_c, 0, 73, 119
1, 18387, Note_on_c, 0, 73, 120
1, 18472, Note_off_c, 0, 73, 120
1, 18492, Note_on_c, 0, 72, 123
1, 18582, Note_off_c, 0, 72, 123
1, 18613, Note_on_c, 0, 72, 123
1, 18700, Note_off_c, 0, 72, 123
1, 18780, Note_on_c, 0, 72, 123
1, 18865, Note_off_c, 0, 72, 123
1, 18885, Note_on_c, 0, 68, 118
1, 18993, Note_off_c, 0, 68, 118
1, 19036, Note_on_c, 0, 68, 117
1, 19173, Note_off_c, 0, 68, 117
1, 19188, Note_on_c, 0, 71, 123
1, 19265, Note_off_c, 0, 71, 123
1, 19360, Note_on_c, 0, 71, 119
1, 19520, Note_off_c, 0, 71, 119
1, 19631, Note_on_c, 0, 71, 120
1, 19721, Note_off_c, 0, 71, 120
1, 20013, Note_on_c, 0, 71, 122
1, 20116, Note_off_c, 0, 71, 122
1, 20152, Note_on_c, 0, 69, 105
1, 20195, Note_off_c, 0, 69, 105
1, 20213, Note_on_c, 0, 78, 120
1, 20331, Note_off_c, 0, 78, 120
1, 20376, Note_on_c, 0, 72, 101
1, 20398, Note_off_c, 0, 72, 101
1, 20400, Note_on_c, 0, 71, 117
1, 20518, Note_off_c, 0, 71, 117
1, 20541, Note_on_c, 0, 69, 95
1, 20579, Note_off_c, 0, 69, 95
1, 20586, Note_on_c, 0, 74, 118
1, 20712, Note_off_c, 0, 74, 118
1, 20724, Note_on_c, 0, 70, 106
1, 20775, Note_off_c, 0, 70, 106
1, 20790, Note_on_c, 0, 71, 123
1, 20908, Note_off_c, 0, 71, 123
1, 20982, Note_on_c, 0, 66, 121
1, 21085, Note_off_c, 0, 66, 121
1, 21095, Note_on_c, 0, 69, 126
1, 21154, Note_off_c, 0, 69, 126
1, 21161, Note_on_c, 0, 67, 120
1, 21254, Note_off_c, 0, 67, 120
1, 21305, Note_on_c, 0, 59, 100
1, 21334, Note_off_c, 0, 59, 100
1, 21335, Note_on_c, 0, 61, 102
1, 21368, Note_off_c, 0, 61, 102
1, 21370, Note_on_c, 0, 64, 124
1, 21468, Note_off_c, 0, 64, 124
1, 21470, Note_on_c, 0, 62, 97
1, 21692, Note_off_c, 0, 62, 97
1, 21971, Note_on_c, 0, 71, 120
1, 22058, Note_off_c, 0, 71, 120
1, 22094, Note_on_c, 0, 72, 122
1, 22194, Note_off_c, 0, 72, 122
1, 22243, Note_on_c, 0, 71, 121
1, 22330, Note_off_c, 0, 71, 121
1, 22340, Note_on_c, 0, 76, 125
1, 22448, Note_off_c, 0, 76, 125
1, 22460, Note_on_c, 0, 67, 110
1, 22534, Note_off_c, 0, 67, 110
1, 22581, Note_on_c, 0, 64, 113
1, 22653, Note_off_c, 0, 64, 113
1, 22672, Note_on_c, 0, 64, 111
1, 22724, Note_off_c, 0, 64, 111
1, 22730, Note_on_c, 0, 71, 121
1, 23022, Note_off_c, 0, 71, 121
1, 23027, Note_on_c, 0, 67, 105
1, 23040, Note_off_c, 0, 67, 105
1, 23044, Note_on_c, 0, 64, 115
1, 23106, Note_off_c, 0, 64, 115
1, 23118, Note_on_c, 0, 67, 110
1, 23273, Note_off_c, 0, 67, 110
1, 23642, Note_on_c, 0, 69, 124
1, 23722, Note_off_c, 0, 69, 124
1, 23807, Note_on_c, 0, 71, 124
1, 23869, Note_off_c, 0, 71, 124
1, 23887, Note_on_c, 0, 72, 124
1, 23977, Note_off_c, 0, 72, 124
1, 24000, Note_on_c, 0, 72, 123
1, 24054, Note_off_c, 0, 72, 123
1, 24072, Note_on_c, 0, 71, 122
1, 24157, Note_off_c, 0, 71, 122
1, 24257, Note_on_c, 0, 72, 121
1, 24348, Note_off_c, 0, 72, 121
1, 24358, Note_on_c, 0, 73, 115
1, 24411, Note_off_c, 0, 73, 115
1, 24414, Note_on_c, 0, 69, 100
1, 24457, Note_off_c, 0, 69, 100
1, 24604, Note_on_c, 0, 73, 113
1, 24663, Note_off_c, 0, 73, 113
1, 24668, Note_on_c, 0, 74, 121
1, 24753, Note_off_c, 0, 74, 121
1, 24862, Note_on_c, 0, 72, 117
1, 24911, Note_off_c, 0, 72, 117
1, 24916, Note_on_c, 0, 73, 113
1, 24950, Note_off_c, 0, 73, 113
1, 25001, Note_on_c, 0, 74, 109
1, 25070, Note_off_c, 0, 74, 109
1, 25165, Note_on_c, 0, 74, 110
1, 25258, Note_off_c, 0, 74, 110
1, 25263, Note_on_c, 0, 71, 113
1, 25340, Note_off_c, 0, 71, 113
1, 25647, Note_on_c, 0, 71, 111
1, 25711, Note_off_c, 0, 71, 111
1, 25762, Note_on_c, 0, 71, 102
1, 25826, Note_off_c, 0, 71, 102
1, 25833, Note_on_c, 0, 74, 114
1, 25900, Note_off_c, 0, 74, 114
1, 25954, Note_on_c, 0, 74, 115
1, 26031, Note_off_c, 0, 74, 115
1, 26036, Note_on_c, 0, 73, 112
1, 26123, Note_off_c, 0, 73, 112
1, 26216, Note_on_c, 0, 72, 119
1, 26319, Note_off_c, 0, 72, 119
1, 26337, Note_on_c, 0, 76, 113
1, 26404, Note_off_c, 0, 76, 113
1, 26409, Note_on_c, 0, 69, 96
1, 26435, Note_off_c, 0, 69, 96
1, 26444, Note_on_c, 0, 64, 116
1, 26526, Note_off_c, 0, 64, 116
1, 26531, Note_on_c, 0, 67, 114
1, 26603, Note_off_c, 0, 67, 114
1, 26604, Note_on_c, 0, 71, 120
1, 26701, Note_off_c, 0, 71, 120
1, 26791, Note_on_c, 0, 70, 115
1, 26881, Note_off_c, 0, 70, 115
1, 26971, Note_on_c, 0, 71, 108
1, 27048, Note_off_c, 0, 71, 108
1, 27171, Note_on_c, 0, 74, 102
1, 27286, Note_off_c, 0, 74, 102
1, 27286, End_track
0, 0, End_of_file
