0, 0, Header, 1, 1, 192
1, 0, Start_track
1, 0, Title_t, "Melody"
1, 0, Tempo, 327868
1, 0, Key_signature, -4, "major"
1, 0, Time_signature, 4, 2, 24, 8
1, 1240, Note_on_c, 0, 71, 114
1, 1361, Note_off_c, 0, 71, 114
1, 1381, Note_on_c, 0, 72, 120
1, 1494, Note_off_c, 0, 72, 120
1, 1535, Note_on_c, 0, 71, 118
1, 1613, Note_off_c, 0, 71, 118
1, 1617, Note_on_c, 0, 72, 123
1, 1706, Note_off_c, 0, 72, 123
1, 1796, Note_on_c, 0, 72, 125
1, 1908, Note_off_c, 0, 72, 125
1, 2003, Note_on_c, 0, 72, 125
1, 2114, Note_off_c, 0, 72, 125
1, 2190, Note_on_c, 0, 72, 107
1, 2369, Note_off_c, 0, 72, 107
1, 2592, Note_on_c, 0, 72, 124
1, 2700, Note_off_c, 0, 72, 124
1, 2725, Note_on_c, 0, 75, 125
1, 2802, Note_off_c, 0, 75, 125
1, 2885, Note_on_c, 0, 72, 118
1, 2945, Note_off_c, 0, 72, 118
1, 2952, Note_on_c, 0, 75, 123
1, 3046, Note_off_c, 0, 75, 123
1, 3085, Note_on_c, 0, 80, 98
1, 3225, Note_off_c, 0, 80, 98
1, 3286, Note_on_c, 0, 75, 126
1, 3356, Note_off_c, 0, 75, 126
1, 3466, Note_on_c, 0, 75, 127
1, 3533, Note_off_c, 0, 75, 127
1, 3550, Note_on_c, 0, 72, 126
1, 3649, Note_off_c, 0, 72, 126
1, 3718, Note_on_c, 0, 70, 123
1, 3820, Note_off_c, 0, 70, 123
1, 3831, Note_on_c, 0, 68, 123
1, 3918, Note_off_c, 0, 68, 123
1, 3931, Note_on_c, 0, 67, 120
1, 4027, Note_off_c, 0, 67, 120
1, 4046, Note_on_c, 0, 65, 107
1, 4107, Note_off_c, 0, 65, 107
1, 4113, Note_on_c, 0, 70, 109
1, 4308, Note_off_c, 0, 70, 109
1, 4415, Note_on_c, 0, 68, 122
1, 4485, Note_off_c, 0, 68, 122
1, 4496, Note_on_c, 0, 67, 121
1, 4603, Note_off_c, 0, 67, 121
1, 4672, Note_on_c, 0, 65, 120
1, 4778, Note_off_c, 0, 65, 120
1, 4817, Note_on_c, 0, 73, 122
1, 4922, Note_off_c, 0, 73, 122
1, 4979, Note_on_c, 0, 70, 117
1, 5052, Note_off_c, 0, 70, 117
1, 5076, Note_on_c, 0, 73, 120
1, 5162, Note_off_c, 0, 73, 120
1, 5243, Note_on_c, 0, 70, 107
1, 5402, Note_off_c, 0, 70, 107
1, 5747, Note_on_c, 0, 71, 119
1, 5821, Note_off_c, 0, 71, 119
1, 5832, Note_on_c, 0, 72, 125
1, 5915, Note_off_c, 0, 72, 125
1, 5925, Note_on_c, 0, 75, 118
1, 5991, Note_off_c, 0, 75, 118
1, 6005, Note_on_c, 0, 72, 123
1, 6092, Note_off_c, 0, 72, 123
1, 6132, Note_on_c, 0, 67, 123
1, 6214, Note_off_c, 0, 67, 123
1, 6314, Note_on_c, 0, 70, 122
1, 6376, Note_off_c, 0, 70, 122
1, 6386, Note_on_c, 0, 68, 120
1, 6474, Note_off_c, 0, 68, 120
1, 6488, Note_on_c, 0, 68, 115
1, 6659, Note_off_c, 0, 68, 115
1, 6679, Note_on_c, 0, 72, 102
1, 6708, Note_off_c, 0, 72, 102
1, 6712, Note_on_c, 0, 68, 107
1, 6759, Note_off_c, 0, 68, 107
1, 6772, Note_on_c, 0, 65, 115
1, 6815, Note_off_c, 0, 65, 115
1, 6830, Note_on_c, 0, 60, 101
1, 6978, Note_off_c, 0, 60, 101
1, 7257, Note_on_c, 0, 79, 111
1, 7966, Note_off_c, 0, 79, 111
1, 8000, Note_on_c, 0, 75, 120
1, 8062, Note_off_c, 0, 75, 120
1, 8108, Note_on_c, 0, 63, 115
1, 8172, Note_off_c, 0, 63, 115
1, 8188, Note_on_c, 0, 65, 117
1, 8254, Note_off_c, 0, 65, 117
1, 8277, Note_on_c, 0, 68, 111
1, 8367, Note_off_c, 0, 68, 111
1, 8394, Note_on_c, 0, 72, 122
1, 8450, Note_off_c, 0, 72, 122
1, 8464, Note_on_c, 0, 65, 110
1, 8537, Note_off_c, 0, 65, 110
1, 8582, Note_on_c, 0, 68, 115
1, 8653, Note_off_c, 0, 68, 115
1, 8774, Note_on_c, 0, 68, 117
1, 8847, Note_off_c, 0, 68, 117
1, 8943, Note_on_c, 0, 68, 115
1, 9006, Note_off_c, 0, 68, 115
1, 9036, Note_on_c, 0, 61, 106
1, 9108, Note_off_c, 0, 61, 106
1, 9136, Note_on_c, 0, 61, 102
1, 9189, Note_off_c, 0, 61, 102
1, 9210, Note_on_c, 0, 67, 121
1, 9283, Note_off_c, 0, 67, 121
1, 9311, Note_on_c, 0, 67, 117
1, 9384, Note_off_c, 0, 67, 117
1, 9416, Note_on_c, 0, 65, 108
1, 9574, Note_off_c, 0, 65, 108
1, 9616, Note_on_c, 0, 63, 116
1, 9699, Note_off_c, 0, 63, 116
1, 9780, Note_on_c, 0, 72, 110
1, 9953, Note_off_c, 0, 72, 110
1, 10172, Note_on_c, 0, 71, 118
1, 10265, Note_off_c, 0, 71, 118
1, 10298, Note_on_c, 0, 72, 122
1, 10405, Note_off_c, 0, 72, 122
1, 10470, Note_on_c, 0, 70, 123
1, 10530, Note_off_c, 0, 70, 123
1, 10543, Note_on_c, 0, 68, 114
1, 10687, Note_off_c, 0, 68, 114
1, 10711, Note_on_c, 0, 65, 117
1, 10817, Note_off_c, 0, 65, 117
1, 10864, Note_on_c, 0, 68, 118
1, 10954, Note_off_c, 0, 68, 118
1, 11040, Note_on_c, 0, 70, 121
1, 11093, Note_off_c, 0, 70, 121
1, 11112, Note_on_c, 0, 68, 118
1, 11221, Note_off_c, 0, 68, 118
1, 11236, Note_on_c, 0, 65, 99
1, 11288, Note_off_c, 0, 65, 99
1, 11299, Note_on_c, 0, 68, 109
1, 11485, Note_off_c, 0, 68, 109
1, 11508, Note_on_c, 0, 65, 120
1, 11595, Note_off_c, 0, 65, 120
1, 11689, Note_on_c, 0, 63, 116
1, 11770, Note_off_c, 0, 63, 116
1, 12082, Note_on_c, 0, 79, 125
1, 12175, Note_off_c, 0, 79, 125
1, 12204, Note_on_c, 0, 77, 124
1, 12249, Note_off_c, 0, 77, 124
1, 12279, Note_on_c, 0, 73, 116
1, 12368, Note_off_c, 0, 73, 116
1, 12379, Note_on_c, 0, 72, 119
1, 12542, Note_off_c, 0, 72, 119
1, 12638, Note_on_c, 0, 65, 121
1, 12725, Note_off_c, 0, 65, 121
1, 12757, Note_on_c, 0, 66, 108
1, 12830, Note_off_c, 0, 66, 108
1, 12848, Note_on_c, 0, 67, 118
1, 12945, Note_off_c, 0, 67, 118
1, 12970, Note_on_c, 0, 72, 117
1, 13122, Note_off_c, 0, 72, 117
1, 13225, Note_on_c, 0, 68, 117
1, 13321, Note_off_c, 0, 68, 117
1, 13340, Note_on_c, 0, 60, 94
1, 13397, Note_off_c, 0, 60, 94
1, 13400, Note_on_c, 0, 61, 106
1, 13501, Note_off_c, 0, 61, 106
1, 13517, Note_on_c, 0, 67, 103
1, 13767, Note_off_c, 0, 67, 103
1, 13786, Note_on_c, 0, 65, 111
1, 13888, Note_off_c, 0, 65, 111
1, 13888, End_track
0, 0, End_of_file
