0, 0, Header, 1, 1, 192
1, 0, Start_track
1, 0, Title_t, "Melody"
1, 0, Tempo, 303030
1, 0, Key_signature, -1, "major"
1, 0, Time_signature, 4, 2, 24, 8
1, 3040, Note_on_c, 0, 76, 121
1, 3105, Note_off_c, 0, 76, 121
1, 3166, Note_on_c, 0, 79, 124
1, 3238, Note_off_c, 0, 79, 124
1, 3359, Note_on_c, 0, 72, 105
1, 3405, Note_off_c, 0, 72, 105
1, 3414, Note_on_c, 0, 76, 119
1, 3487, Note_off_c, 0, 76, 119
1, 3551, Note_on_c, 0, 67, 93
1, 3585, Note_off_c, 0, 67, 93
1, 3598, Note_on_c, 0, 72, 116
1, 3658, Note_off_c, 0, 72, 116
1, 3724, Note_on_c, 0, 64, 97
1, 3777, Note_off_c, 0, 64, 97
1, 3788, Note_on_c, 0, 67, 98
1, 3890, Note_off_c, 0, 67, 98
1, 3901, Note_on_c, 0, 72, 91
1, 3956, Note_off_c, 0, 72, 91
1, 3956, Note_on_c, 0, 76, 122
1, 4051, Note_off_c, 0, 76, 122
1, 4172, Note_on_c, 0, 76, 119
1, 4234, Note_off_c, 0, 76, 119
1, 4474, Note_on_c, 0, 79, 115
1, 4499, Note_off_c, 0, 79, 115
1, 4506, Note_on_c, 0, 80, 89
1, 4720, Note_off_c, 0, 80, 89
1, 4756, Note_on_c, 0, 78, 124
1, 4825, Note_off_c, 0, 78, 124
1, 4848, Note_on_c, 0, 74, 115
1, 4928, Note_off_c, 0, 74, 115
1, 4937, Note_on_c, 0, 71, 111
1, 5018, Note_off_c, 0, 71, 111
1, 5034, Note_on_c, 0, 67, 104
1, 5074, Note_off_c, 0, 67, 104
1, 5086, Note_on_c, 0, 68, 111
1, 5129, Note_off_c, 0, 68, 111
1, 5209, Note_on_c, 0, 64, 112
1, 5296, Note_off_c, 0, 64, 112
1, 5298, Note_on_c, 0, 62, 107
1, 5378, Note_off_c, 0, 62, 107
1, 5390, Note_on_c, 0, 60, 87
1, 5464, Note_off_c, 0, 60, 87
1, 5471, Note_on_c, 0, 59, 82
1, 5719, Note_off_c, 0, 59, 82
1, 5866, Note_on_c, 0, 76, 123
1, 5916, Note_off_c, 0, 76, 123
1, 5984, Note_on_c, 0, 81, 112
1, 6084, Note_off_c, 0, 81, 112
1, 6156, Note_on_c, 0, 76, 92
1, 6228, Note_off_c, 0, 76, 92
1, 6230, Note_on_c, 0, 81, 113
1, 6387, Note_off_c, 0, 81, 113
1, 6557, Note_on_c, 0, 76, 111
1, 6613, Note_off_c, 0, 76, 111
1, 6628, Note_on_c, 0, 81, 99
1, 6726, Note_off_c, 0, 81, 99
1, 6745, Note_on_c, 0, 76, 96
1, 6790, Note_off_c, 0, 76, 96
1, 6800, Note_on_c, 0, 81, 115
1, 6890, Note_off_c, 0, 81, 115
1, 6990, Note_on_c, 0, 81, 112
1, 7096, Note_off_c, 0, 81, 112
1, 7194, Note_on_c, 0, 81, 114
1, 7292, Note_off_c, 0, 81, 114
1, 7377, Note_on_c, 0, 81, 115
1, 7483, Note_off_c, 0, 81, 115
1, 7514, Note_on_c, 0, 80, 102
1, 7583, Note_off_c, 0, 80, 102
1, 7588, Note_on_c, 0, 79, 110
1, 7678, Note_off_c, 0, 79, 110
1, 7702, Note_on_c, 0, 68, 114
1, 7741, Note_off_c, 0, 68, 114
1, 7744, Note_on_c, 0, 69, 108
1, 7805, Note_off_c, 0, 69, 108
1, 7859, Note_on_c, 0, 68, 105
1, 7952, Note_off_c, 0, 68, 105
1, 7957, Note_on_c, 0, 67, 104
1, 8052, Note_off_c, 0, 67, 104
1, 8077, Note_on_c, 0, 81, 106
1, 8187, Note_off_c, 0, 81, 106
1, 8245, Note_on_c, 0, 80, 120
1, 8335, Note_off_c, 0, 80, 120
1, 8340, Note_on_c, 0, 79, 106
1, 8443, Note_off_c, 0, 79, 106
1, 8520, Note_on_c, 0, 79, 104
1, 8572, Note_off_c, 0, 79, 104
1, 8576, Note_on_c, 0, 80, 91
1, 8696, Note_off_c, 0, 80, 91
1, 8706, Note_on_c, 0, 76, 115
1, 8795, Note_off_c, 0, 76, 115
1, 8927, Note_on_c, 0, 77, 97
1, 9022, Note_off_c, 0, 77, 97
1, 9031, Note_on_c, 0, 75, 116
1, 9090, Note_off_c, 0, 75, 116
1, 9094, Note_on_c, 0, 76, 119
1, 9179, Note_off_c, 0, 76, 119
1, 9273, Note_on_c, 0, 74, 112
1, 9381, Note_off_c, 0, 74, 112
1, 9388, Note_on_c, 0, 72, 115
1, 9465, Note_off_c, 0, 72, 115
1, 9467, Note_on_c, 0, 69, 122
1, 9544, Note_off_c, 0, 69, 122
1, 9655, Note_on_c, 0, 74, 118
1, 9750, Note_off_c, 0, 74, 118
1, 9750, Note_on_c, 0, 72, 119
1, 9830, Note_off_c, 0, 72, 119
1, 9848, Note_on_c, 0, 68, 114
1, 9946, Note_off_c, 0, 68, 114
1, 9960, Note_on_c, 0, 63, 101
1, 9994, Note_off_c, 0, 63, 101
1, 10000, Note_on_c, 0, 65, 110
1, 10081, Note_off_c, 0, 65, 110
1, 10143, Note_on_c, 0, 64, 114
1, 10226, Note_off_c, 0, 64, 114
1, 10236, Note_on_c, 0, 63, 112
1, 10326, Note_off_c, 0, 63, 112
1, 10339, Note_on_c, 0, 64, 107
1, 10406, Note_off_c, 0, 64, 107
1, 10416, Note_on_c, 0, 67, 114
1, 10516, Note_off_c, 0, 67, 114
1, 10516, Note_on_c, 0, 60, 98
1, 10598, Note_off_c, 0, 60, 98
1, 10617, Note_on_c, 0, 64, 110
1, 10696, Note_off_c, 0, 64, 110
1, 10723, Note_on_c, 0, 67, 98
1, 10766, Note_off_c, 0, 67, 98
1, 10786, Note_on_c, 0, 72, 117
1, 10912, Note_off_c, 0, 72, 117
1, 10914, Note_on_c, 0, 71, 101
1, 10947, Note_off_c, 0, 71, 101
1, 10957, Note_on_c, 0, 74, 116
1, 11070, Note_off_c, 0, 74, 116
1, 11080, Note_on_c, 0, 72, 103
1, 11147, Note_off_c, 0, 72, 103
1, 11152, Note_on_c, 0, 76, 120
1, 11252, Note_off_c, 0, 76, 120
1, 11354, Note_on_c, 0, 76, 122
1, 11454, Note_off_c, 0, 76, 122
1, 11521, Note_on_c, 0, 76, 112
1, 11687, Note_off_c, 0, 76, 112
1, 11941, Note_on_c, 0, 66, 111
1, 12018, Note_off_c, 0, 66, 111
1, 12050, Note_on_c, 0, 76, 119
1, 12161, Note_off_c, 0, 76, 119
1, 12251, Note_on_c, 0, 72, 79
1, 12300, Note_off_c, 0, 72, 79
1, 12307, Note_on_c, 0, 76, 126
1, 12394, Note_off_c, 0, 76, 126
1, 12422, Note_on_c, 0, 74, 120
1, 12489, Note_off_c, 0, 74, 120
1, 12501, Note_on_c, 0, 72, 121
1, 12550, Note_off_c, 0, 72, 121
1, 12640, Note_on_c, 0, 69, 91
1, 12689, Note_off_c, 0, 69, 91
1, 12696, Note_on_c, 0, 72, 127
1, 12778, Note_off_c, 0, 72, 127
1, 12884, Note_on_c, 0, 72, 124
1, 12961, Note_off_c, 0, 72, 124
1, 13083, Note_on_c, 0, 72, 117
1, 13220, Note_off_c, 0, 72, 117
1, 13438, Note_on_c, 0, 77, 118
1, 13524, Note_off_c, 0, 77, 118
1, 13531, Note_on_c, 0, 73, 108
1, 13569, Note_off_c, 0, 73, 108
1, 13570, Note_on_c, 0, 76, 110
1, 13656, Note_off_c, 0, 76, 110
1, 13657, Note_on_c, 0, 74, 117
1, 13731, Note_off_c, 0, 74, 117
1, 13736, Note_on_c, 0, 68, 96
1, 13754, Note_off_c, 0, 68, 96
1, 13759, Note_on_c, 0, 70, 93
1, 13792, Note_off_c, 0, 70, 93
1, 13795, Note_on_c, 0, 72, 112
1, 13829, Note_off_c, 0, 72, 112
1, 13835, Note_on_c, 0, 72, 115
1, 13906, Note_off_c, 0, 72, 115
1, 13917, Note_on_c, 0, 72, 113
1, 13966, Note_off_c, 0, 72, 113
1, 13972, Note_on_c, 0, 73, 120
1, 14000, Note_off_c, 0, 73, 120
1, 14004, Note_on_c, 0, 74, 121
1, 14030, Note_off_c, 0, 74, 121
1, 14040, Note_on_c, 0, 73, 116
1, 14087, Note_off_c, 0, 73, 116
1, 14100, Note_on_c, 0, 70, 84
1, 14130, Note_off_c, 0, 70, 84
1, 14130, Note_on_c, 0, 66, 97
1, 14220, Note_off_c, 0, 66, 97
1, 14227, Note_on_c, 0, 65, 102
1, 14309, Note_off_c, 0, 65, 102
1, 14316, Note_on_c, 0, 65, 106
1, 14483, Note_off_c, 0, 65, 106
1, 14495, Note_on_c, 0, 64, 97
1, 14566, Note_off_c, 0, 64, 97
1, 14567, Note_on_c, 0, 69, 113
1, 14673, Note_off_c, 0, 69, 113
1, 14687, Note_on_c, 0, 69, 116
1, 14729, Note_off_c, 0, 69, 116
1, 14745, Note_on_c, 0, 69, 118
1, 14838, Note_off_c, 0, 69, 118
1, 14861, Note_on_c, 0, 69, 116
1, 14910, Note_off_c, 0, 69, 116
1, 14943, Note_on_c, 0, 67, 111
1, 15009, Note_off_c, 0, 67, 111
1, 15121, Note_on_c, 0, 66, 109
1, 15141, Note_on_c, 0, 67, 109
1, 15141, Note_off_c, 0, 66, 109
1, 15238, Note_off_c, 0, 67, 109
1, 15309, Note_on_c, 0, 66, 113
1, 15323, Note_on_c, 0, 67, 110
1, 15323, Note_off_c, 0, 66, 113
1, 15484, Note_off_c, 0, 67, 110
1, 15850, Note_on_c, 0, 79, 124
1, 15932, Note_off_c, 0, 79, 124
1, 16014, Note_on_c, 0, 76, 112
1, 16091, Note_off_c, 0, 76, 112
1, 16101, Note_on_c, 0, 79, 124
1, 16199, Note_off_c, 0, 79, 124
1, 16279, Note_on_c, 0, 77, 125
1, 16372, Note_off_c, 0, 77, 125
1, 16410, Note_on_c, 0, 80, 120
1, 16516, Note_off_c, 0, 80, 120
1, 16590, Note_on_c, 0, 80, 123
1, 16654, Note_off_c, 0, 80, 123
1, 16670, Note_on_c, 0, 76, 118
1, 16763, Note_off_c, 0, 76, 118
1, 16857, Note_on_c, 0, 74, 102
1, 17177, Note_off_c, 0, 74, 102
1, 17179, Note_on_c, 0, 71, 118
1, 17251, Note_off_c, 0, 71, 118
1, 17263, Note_on_c, 0, 68, 113
1, 17350, Note_off_c, 0, 68, 113
1, 17353, Note_on_c, 0, 64, 112
1, 17425, Note_off_c, 0, 64, 112
1, 17436, Note_on_c, 0, 62, 105
1, 17531, Note_off_c, 0, 62, 105
1, 17626, Note_on_c, 0, 62, 92
1, 17830, Note_off_c, 0, 62, 92
1, 18013, Note_on_c, 0, 76, 116
1, 18126, Note_off_c, 0, 76, 116
1, 18138, Note_on_c, 0, 81, 116
1, 18267, Note_off_c, 0, 81, 116
1, 18316, Note_on_c, 0, 76, 114
1, 18388, Note_off_c, 0, 76, 114
1, 18393, Note_on_c, 0, 81, 112
1, 18584, Note_off_c, 0, 81, 112
1, 18695, Note_on_c, 0, 76, 106
1, 18754, Note_off_c, 0, 76, 106
1, 18769, Note_on_c, 0, 81, 115
1, 18872, Note_off_c, 0, 81, 115
1, 18886, Note_on_c, 0, 75, 110
1, 18952, Note_off_c, 0, 75, 110
1, 18959, Note_on_c, 0, 76, 120
1, 19081, Note_off_c, 0, 76, 120
1, 19087, Note_on_c, 0, 74, 113
1, 19169, Note_off_c, 0, 74, 113
1, 19249, Note_on_c, 0, 72, 120
1, 19330, Note_off_c, 0, 72, 120
1, 19334, Note_on_c, 0, 73, 123
1, 19425, Note_off_c, 0, 73, 123
1, 19431, Note_on_c, 0, 74, 114
1, 19505, Note_off_c, 0, 74, 114
1, 19633, Note_on_c, 0, 69, 114
1, 19713, Note_off_c, 0, 69, 114
1, 19721, Note_on_c, 0, 70, 115
1, 19825, Note_off_c, 0, 70, 115
1, 19834, Note_on_c, 0, 66, 103
1, 19906, Note_off_c, 0, 66, 103
1, 19906, Note_on_c, 0, 69, 119
1, 20017, Note_off_c, 0, 69, 119
1, 20026, Note_on_c, 0, 67, 108
1, 20074, Note_off_c, 0, 67, 108
1, 20147, Note_on_c, 0, 62, 81
1, 20203, Note_off_c, 0, 62, 81
1, 20205, Note_on_c, 0, 63, 97
1, 20279, Note_off_c, 0, 63, 97
1, 20281, Note_on_c, 0, 64, 110
1, 20366, Note_off_c, 0, 64, 110
1, 20643, Note_on_c, 0, 72, 93
1, 20675, Note_off_c, 0, 72, 93
1, 20682, Note_on_c, 0, 76, 120
1, 20979, Note_off_c, 0, 76, 120
1, 20982, Note_on_c, 0, 73, 113
1, 21058, Note_off_c, 0, 73, 113
1, 21064, Note_on_c, 0, 72, 124
1, 21130, Note_off_c, 0, 72, 124
1, 21181, Note_on_c, 0, 72, 118
1, 21250, Note_off_c, 0, 72, 118
1, 21251, Note_on_c, 0, 69, 118
1, 21335, Note_off_c, 0, 69, 118
1, 21434, Note_on_c, 0, 69, 119
1, 21527, Note_off_c, 0, 69, 119
1, 21618, Note_on_c, 0, 71, 80
1, 21645, Note_off_c, 0, 71, 80
1, 21650, Note_on_c, 0, 72, 116
1, 21740, Note_off_c, 0, 72, 116
1, 21824, Note_on_c, 0, 67, 118
1, 21926, Note_off_c, 0, 67, 118
1, 22141, Note_on_c, 0, 68, 109
1, 22194, Note_off_c, 0, 68, 109
1, 22230, Note_on_c, 0, 76, 112
1, 22531, Note_off_c, 0, 76, 112
1, 22534, Note_on_c, 0, 73, 121
1, 22602, Note_off_c, 0, 73, 121
1, 22605, Note_on_c, 0, 71, 111
1, 22680, Note_off_c, 0, 71, 111
1, 22680, Note_on_c, 0, 73, 114
1, 22733, Note_off_c, 0, 73, 114
1, 22742, Note_on_c, 0, 71, 113
1, 22784, Note_off_c, 0, 71, 113
1, 22921, Note_on_c, 0, 72, 118
1, 23007, Note_off_c, 0, 72, 118
1, 23106, Note_on_c, 0, 72, 113
1, 23174, Note_off_c, 0, 72, 113
1, 23177, Note_on_c, 0, 67, 107
1, 23254, Note_off_c, 0, 67, 107
1, 23375, Note_on_c, 0, 64, 110
1, 23444, Note_off_c, 0, 64, 110
1, 23670, Note_on_c, 0, 74, 119
1, 23747, Note_off_c, 0, 74, 119
1, 23892, Note_on_c, 0, 74, 118
1, 23989, Note_off_c, 0, 74, 118
1, 24064, Note_on_c, 0, 72, 117
1, 24141, Note_off_c, 0, 72, 117
1, 24157, Note_on_c, 0, 74, 120
1, 24221, Note_off_c, 0, 74, 120
1, 24265, Note_on_c, 0, 72, 115
1, 24323, Note_off_c, 0, 72, 115
1, 24335, Note_on_c, 0, 74, 116
1, 24456, Note_off_c, 0, 74, 116
1, 24544, Note_on_c, 0, 74, 119
1, 24632, Note_off_c, 0, 74, 119
1, 24716, Note_on_c, 0, 71, 122
1, 24811, Note_off_c, 0, 71, 122
1, 24928, Note_on_c, 0, 72, 108
1, 25100, Note_off_c, 0, 72, 108
1, 25250, Note_on_c, 0, 74, 120
1, 25338, Note_off_c, 0, 74, 120
1, 25453, Note_on_c, 0, 74, 112
1, 25554, Note_off_c, 0, 74, 112
1, 25636, Note_on_c, 0, 72, 115
1, 25698, Note_off_c, 0, 72, 115
1, 25705, Note_on_c, 0, 74, 113
1, 25798, Note_off_c, 0, 74, 113
1, 25827, Note_on_c, 0, 72, 115
1, 25913, Note_off_c, 0, 72, 115
1, 25916, Note_on_c, 0, 69, 109
1, 26000, Note_off_c, 0, 69, 109
1, 26047, Note_on_c, 0, 74, 118
1, 26135, Note_off_c, 0, 74, 118
1, 26221, Note_on_c, 0, 72, 119
1, 26287, Note_off_c, 0, 72, 119
1, 26301, Note_on_c, 0, 69, 114
1, 26372, Note_off_c, 0, 69, 114
1, 26432, Note_on_c, 0, 72, 117
1, 26529, Note_off_c, 0, 72, 117
1, 26595, Note_on_c, 0, 72, 120
1, 26670, Note_off_c, 0, 72, 120
1, 26677, Note_on_c, 0, 75, 104
1, 26730, Note_off_c, 0, 75, 104
1, 26888, Note_on_c, 0, 76, 115
1, 26972, Note_off_c, 0, 76, 115
1, 26992, Note_on_c, 0, 74, 118
1, 27100, Note_off_c, 0, 74, 118
1, 27193, Note_on_c, 0, 72, 108
1, 27242, Note_off_c, 0, 72, 108
1, 27264, Note_on_c, 0, 76, 115
1, 27330, Note_off_c, 0, 76, 115
1, 27375, Note_on_c, 0, 72, 120
1, 27437, Note_off_c, 0, 72, 120
1, 27455, Note_on_c, 0, 69, 117
1, 27550, Note_off_c, 0, 69, 117
1, 27592, Note_on_c, 0, 74, 119
1, 27687, Note_off_c, 0, 74, 119
1, 27742, Note_on_c, 0, 72, 120
1, 27833, Note_off_c, 0, 72, 120
1, 27842, Note_on_c, 0, 76, 117
1, 27924, Note_off_c, 0, 76, 117
1, 28001, Note_on_c, 0, 72, 122
1, 28067, Note_off_c, 0, 72, 122
1, 28147, Note_on_c, 0, 72, 104
1, 28409, Note_off_c, 0, 72, 104
1, 28412, Note_on_c, 0, 69, 112
1, 28500, Note_off_c, 0, 69, 112
1, 28512, Note_on_c, 0, 67, 90
1, 28587, Note_off_c, 0, 67, 90
1, 28587, End_track
0, 0, End_of_file
