0, 0, Header, 1, 1, 192
1, 0, Start_track
1, 0, Title_t, "Melody"
1, 0, Tempo, 312500
1, 0, Key_signature, -1, "major"
1, 0, Time_signature, 4, 2, 24, 8
1, 2046, Note_on_c, 0, 72, 117
1, 2124, Note_off_c, 0, 72, 117
1, 2194, Note_on_c, 0, 77, 115
1, 2274, Note_off_c, 0, 77, 115
1, 2346, Note_on_c, 0, 72, 107
1, 2413, Note_off_c, 0, 72, 107
1, 2427, Note_on_c, 0, 77, 112
1, 2600, Note_off_c, 0, 77, 112
1, 2747, Note_on_c, 0, 72, 109
1, 2795, Note_off_c, 0, 72, 109
1, 2817, Note_on_c, 0, 77, 120
1, 2899, Note_off_c, 0, 77, 120
1, 2943, Note_on_c, 0, 72, 108
1, 2986, Note_off_c, 0, 72, 108
1, 2993, Note_on_c, 0, 77, 120
1, 3108, Note_off_c, 0, 77, 120
1, 3173, Note_on_c, 0, 77, 112
1, 3316, Note_off_c, 0, 77, 112
1, 3357, Note_on_c, 0, 81, 95
1, 3503, Note_off_c, 0, 81, 95
1, 3558, Note_on_c, 0, 77, 100
1, 3657, Note_off_c, 0, 77, 100
1, 3673, Note_on_c, 0, 72, 119
1, 3755, Note_off_c, 0, 72, 119
1, 3767, Note_on_c, 0, 74, 119
1, 3853, Note_off_c, 0, 74, 119
1, 3864, Note_on_c, 0, 77, 123
1, 3929, Note_off_c, 0, 77, 123
1, 3948, Note_on_c, 0, 74, 119
1, 4039, Note_off_c, 0, 74, 119
1, 4066, Note_on_c, 0, 72, 121
1, 4119, Note_off_c, 0, 72, 121
1, 4133, Note_on_c, 0, 69, 122
1, 4223, Note_off_c, 0, 69, 122
1, 4254, Note_on_c, 0, 65, 102
1, 4313, Note_off_c, 0, 65, 102
1, 4318, Note_on_c, 0, 69, 122
1, 4410, Note_off_c, 0, 69, 122
1, 4446, Note_on_c, 0, 67, 114
1, 4507, Note_off_c, 0, 67, 114
1, 4521, Note_on_c, 0, 66, 123
1, 4618, Note_off_c, 0, 66, 123
1, 4634, Note_on_c, 0, 67, 112
1, 4693, Note_off_c, 0, 67, 112
1, 4699, Note_on_c, 0, 74, 106
1, 4879, Note_off_c, 0, 74, 106
1, 4888, Note_on_c, 0, 72, 111
1, 4955, Note_off_c, 0, 72, 111
1, 5081, Note_on_c, 0, 65, 126
1, 5178, Note_off_c, 0, 65, 126
1, 5190, Note_on_c, 0, 60, 102
1, 5246, Note_off_c, 0, 60, 102
1, 5265, Note_on_c, 0, 65, 121
1, 5348, Note_off_c, 0, 65, 121
1, 5366, Note_on_c, 0, 69, 117
1, 5429, Note_off_c, 0, 69, 117
1, 5453, Note_on_c, 0, 72, 119
1, 5541, Note_off_c, 0, 72, 119
1, 5563, Note_on_c, 0, 65, 123
1, 5623, Note_off_c, 0, 65, 123
1, 5636, Note_on_c, 0, 69, 122
1, 5726, Note_off_c, 0, 69, 122
1, 5750, Note_on_c, 0, 72, 118
1, 5805, Note_off_c, 0, 72, 118
1, 5808, Note_on_c, 0, 74, 122
1, 5888, Note_off_c, 0, 74, 122
1, 5920, Note_on_c, 0, 70, 107
1, 5979, Note_off_c, 0, 70, 107
1, 5996, Note_on_c, 0, 79, 116
1, 6136, Note_off_c, 0, 79, 116
1, 6179, Note_on_c, 0, 73, 117
1, 6349, Note_off_c, 0, 73, 117
1, 6615, Note_on_c, 0, 72, 124
1, 6693, Note_off_c, 0, 72, 124
1, 6740, Note_on_c, 0, 77, 124
1, 6832, Note_off_c, 0, 77, 124
1, 6888, Note_on_c, 0, 74, 123
1, 6950, Note_off_c, 0, 74, 123
1, 6970, Note_on_c, 0, 68, 120
1, 7064, Note_off_c, 0, 68, 120
1, 7075, Note_on_c, 0, 69, 126
1, 7148, Note_off_c, 0, 69, 126
1, 7168, Note_on_c, 0, 65, 112
1, 7266, Note_off_c, 0, 65, 112
1, 7284, Note_on_c, 0, 68, 123
1, 7366, Note_off_c, 0, 68, 123
1, 7449, Note_on_c, 0, 65, 126
1, 7531, Note_off_c, 0, 65, 126
1, 7557, Note_on_c, 0, 68, 124
1, 7668, Note_off_c, 0, 68, 124
1, 7722, Note_on_c, 0, 65, 124
1, 7827, Note_off_c, 0, 65, 124
1, 8115, Note_on_c, 0, 69, 117
1, 8196, Note_off_c, 0, 69, 117
1, 8238, Note_on_c, 0, 72, 110
1, 8290, Note_off_c, 0, 72, 110
1, 8298, Note_on_c, 0, 77, 121
1, 8387, Note_off_c, 0, 77, 121
1, 8411, Note_on_c, 0, 69, 112
1, 8469, Note_off_c, 0, 69, 112
1, 8479, Note_on_c, 0, 72, 118
1, 8576, Note_off_c, 0, 72, 118
1, 8600, Note_on_c, 0, 77, 122
1, 8669, Note_off_c, 0, 77, 122
1, 8890, Note_on_c, 0, 69, 124
1, 8955, Note_off_c, 0, 69, 124
1, 8999, Note_on_c, 0, 72, 111
1, 9056, Note_off_c, 0, 72, 111
1, 9068, Note_on_c, 0, 77, 120
1, 9163, Note_off_c, 0, 77, 120
1, 9179, Note_on_c, 0, 69, 104
1, 9238, Note_off_c, 0, 69, 104
1, 9253, Note_on_c, 0, 72, 119
1, 9344, Note_off_c, 0, 72, 119
1, 9362, Note_on_c, 0, 77, 119
1, 9430, Note_off_c, 0, 77, 119
1, 9651, Note_on_c, 0, 69, 127
1, 9734, Note_off_c, 0, 69, 127
1, 9780, Note_on_c, 0, 74, 116
1, 9827, Note_off_c, 0, 74, 116
1, 9837, Note_on_c, 0, 77, 122
1, 9934, Note_off_c, 0, 77, 122
1, 9952, Note_on_c, 0, 69, 108
1, 10000, Note_off_c, 0, 69, 108
1, 10016, Note_on_c, 0, 74, 123
1, 10118, Note_off_c, 0, 74, 123
1, 10148, Note_on_c, 0, 77, 123
1, 10230, Note_off_c, 0, 77, 123
1, 10331, Note_on_c, 0, 74, 122
1, 10397, Note_off_c, 0, 74, 122
1, 10411, Note_on_c, 0, 76, 125
1, 10525, Note_off_c, 0, 76, 125
1, 10541, Note_on_c, 0, 75, 112
1, 10582, Note_off_c, 0, 75, 112
1, 10597, Note_on_c, 0, 78, 113
1, 10675, Note_off_c, 0, 78, 113
1, 10719, Note_on_c, 0, 74, 112
1, 10950, Note_off_c, 0, 74, 112
1, 10966, Note_on_c, 0, 72, 113
1, 11059, Note_off_c, 0, 72, 113
1, 11295, Note_on_c, 0, 77, 123
1, 11369, Note_off_c, 0, 77, 123
1, 11376, Note_on_c, 0, 75, 122
1, 11454, Note_off_c, 0, 75, 122
1, 11473, Note_on_c, 0, 74, 125
1, 11541, Note_off_c, 0, 74, 125
1, 11552, Note_on_c, 0, 72, 123
1, 11654, Note_off_c, 0, 72, 123
1, 11670, Note_on_c, 0, 69, 120
1, 11733, Note_off_c, 0, 69, 120
1, 11755, Note_on_c, 0, 65, 116
1, 11857, Note_off_c, 0, 65, 116
1, 11872, Note_on_c, 0, 72, 123
1, 11961, Note_off_c, 0, 72, 123
1, 12030, Note_on_c, 0, 70, 121
1, 12107, Note_off_c, 0, 70, 121
1, 12114, Note_on_c, 0, 72, 122
1, 12233, Note_off_c, 0, 72, 122
1, 12305, Note_on_c, 0, 72, 116
1, 12514, Note_off_c, 0, 72, 116
1, 12602, Note_on_c, 0, 70, 119
1, 12678, Note_off_c, 0, 70, 119
1, 12710, Note_on_c, 0, 68, 118
1, 12808, Note_off_c, 0, 68, 118
1, 12822, Note_on_c, 0, 69, 120
1, 12904, Note_off_c, 0, 69, 120
1, 12929, Note_on_c, 0, 60, 99
1, 12986, Note_off_c, 0, 60, 99
1, 12995, Note_on_c, 0, 62, 106
1, 13066, Note_off_c, 0, 62, 106
1, 13067, Note_on_c, 0, 65, 122
1, 13171, Note_off_c, 0, 65, 122
1, 13199, Note_on_c, 0, 68, 120
1, 13275, Note_off_c, 0, 68, 120
1, 13289, Note_on_c, 0, 71, 117
1, 13356, Note_off_c, 0, 71, 117
1, 13367, Note_on_c, 0, 74, 123
1, 13449, Note_off_c, 0, 74, 123
1, 13454, Note_on_c, 0, 72, 123
1, 13536, Note_off_c, 0, 72, 123
1, 13646, Note_on_c, 0, 65, 124
1, 13745, Note_off_c, 0, 65, 124
1, 13768, Note_on_c, 0, 69, 115
1, 13854, Note_off_c, 0, 69, 115
1, 13854, End_track
0, 0, End_of_file
