0, 0, Header, 1, 1, 192
1, 0, Start_track
1, 0, Title_t, "Melody"
1, 0, Tempo, 410958
1, 0, Key_signature, 0, "major"
1, 0, Time_signature, 4, 2, 24, 8
1, 1214, Note_on_c, 0, 72, 117
1, 1298, Note_off_c, 0, 72, 117
1, 1369, Note_on_c, 0, 72, 117
1, 1455, Note_off_c, 0, 72, 117
1, 1538, Note_on_c, 0, 72, 116
1, 1649, Note_off_c, 0, 72, 116
1, 1763, Note_on_c, 0, 62, 110
1, 1800, Note_off_c, 0, 62, 110
1, 1802, Note_on_c, 0, 64, 123
1, 1910, Note_off_c, 0, 64, 123
1, 1947, Note_on_c, 0, 67, 113
1, 1990, Note_off_c, 0, 67, 113
1, 2003, Note_on_c, 0, 69, 127
1, 2103, Note_off_c, 0, 69, 127
1, 2183, Note_on_c, 0, 72, 109
1, 2340, Note_off_c, 0, 72, 109
1, 2573, Note_on_c, 0, 75, 115
1, 2670, Note_off_c, 0, 75, 115
1, 2713, Note_on_c, 0, 75, 118
1, 2810, Note_off_c, 0, 75, 118
1, 2888, Note_on_c, 0, 75, 117
1, 2993, Note_off_c, 0, 75, 117
1, 3063, Note_on_c, 0, 74, 114
1, 3133, Note_on_c, 0, 72, 118
1, 3133, Note_off_c, 0, 74, 114
1, 3211, Note_off_c, 0, 72, 118
1, 3254, Note_on_c, 0, 72, 111
1, 3397, Note_off_c, 0, 72, 111
1, 4582, Note_on_c, 0, 75, 119
1, 4685, Note_off_c, 0, 75, 119
1, 4750, Note_on_c, 0, 72, 106
1, 4831, Note_off_c, 0, 72, 106
1, 4833, Note_on_c, 0, 75, 116
1, 4993, Note_off_c, 0, 75, 116
1, 5036, Note_on_c, 0, 74, 113
1, 5155, Note_off_c, 0, 74, 113
1, 5233, Note_on_c, 0, 72, 122
1, 5308, Note_off_c, 0, 72, 122
1, 5345, Note_on_c, 0, 69, 120
1, 5407, Note_off_c, 0, 69, 120
1, 5613, Note_on_c, 0, 75, 117
1, 5732, Note_off_c, 0, 75, 117
1, 5759, Note_on_c, 0, 75, 120
1, 5845, Note_off_c, 0, 75, 120
1, 5912, Note_on_c, 0, 74, 116
1, 5974, Note_off_c, 0, 74, 116
1, 5988, Note_on_c, 0, 72, 116
1, 6171, Note_off_c, 0, 72, 116
1, 6176, Note_on_c, 0, 69, 125
1, 6305, Note_off_c, 0, 69, 125
1, 6306, Note_on_c, 0, 63, 115
1, 6531, Note_off_c, 0, 63, 115
1, 7677, Note_on_c, 0, 75, 116
1, 7763, Note_off_c, 0, 75, 116
1, 7828, Note_on_c, 0, 72, 122
1, 7933, Note_off_c, 0, 72, 122
1, 7987, Note_on_c, 0, 72, 122
1, 8060, Note_off_c, 0, 72, 122
1, 8081, Note_on_c, 0, 74, 117
1, 8181, Note_off_c, 0, 74, 117
1, 8254, Note_on_c, 0, 72, 119
1, 8357, Note_off_c, 0, 72, 119
1, 8375, Note_on_c, 0, 69, 121
1, 8453, Note_off_c, 0, 69, 121
1, 8645, Note_on_c, 0, 75, 114
1, 8726, Note_off_c, 0, 75, 114
1, 8799, Note_on_c, 0, 75, 115
1, 8883, Note_off_c, 0, 75, 115
1, 8939, Note_on_c, 0, 75, 116
1, 9190, Note_off_c, 0, 75, 116
1, 9240, Note_on_c, 0, 72, 113
1, 9315, Note_off_c, 0, 72, 113
1, 9352, Note_on_c, 0, 72, 103
1, 9514, Note_off_c, 0, 72, 103
1, 9606, Note_on_c, 0, 67, 119
1, 9711, Note_off_c, 0, 67, 119
1, 9721, Note_on_c, 0, 68, 116
1, 9772, Note_off_c, 0, 68, 116
1, 9785, Note_on_c, 0, 69, 119
1, 9871, Note_off_c, 0, 69, 119
1, 9900, Note_on_c, 0, 77, 115
1, 9975, Note_off_c, 0, 77, 115
1, 9977, Note_on_c, 0, 75, 113
1, 10071, Note_off_c, 0, 75, 113
1, 10086, Note_on_c, 0, 76, 110
1, 10148, Note_off_c, 0, 76, 110
1, 10176, Note_on_c, 0, 72, 111
1, 10245, Note_off_c, 0, 72, 111
1, 10332, Note_on_c, 0, 65, 92
1, 10353, Note_off_c, 0, 65, 92
1, 10360, Note_on_c, 0, 67, 119
1, 10400, Note_off_c, 0, 67, 119
1, 10498, Note_on_c, 0, 67, 121
1, 10587, Note_off_c, 0, 67, 121
1, 10681, Note_on_c, 0, 72, 102
1, 10838, Note_off_c, 0, 72, 102
1, 10838, End_track
0, 0, End_of_file
