0, 0, Header, 1, 1, 192
1, 0, Start_track
1, 0, Title_t, "Melody"
1, 0, Tempo, 422535
1, 0, Key_signature, -1, "major"
1, 0, Time_signature, 4, 2, 24, 8
1, 2076, Note_on_c, 0, 67, 108
1, 2142, Note_off_c, 0, 67, 108
1, 2142, Note_on_c, 0, 69, 117
1, 2206, Note_off_c, 0, 69, 117
1, 2333, Note_on_c, 0, 69, 111
1, 2420, Note_off_c, 0, 69, 111
1, 2514, Note_on_c, 0, 69, 91
1, 2692, Note_off_c, 0, 69, 91
1, 2972, Note_on_c, 0, 72, 115
1, 3031, Note_off_c, 0, 72, 115
1, 3043, Note_on_c, 0, 74, 116
1, 3112, Note_off_c, 0, 74, 116
1, 3153, Note_on_c, 0, 76, 114
1, 3223, Note_off_c, 0, 76, 114
1, 3226, Note_on_c, 0, 74, 114
1, 3279, Note_off_c, 0, 74, 114
1, 3323, Note_on_c, 0, 72, 118
1, 3386, Note_off_c, 0, 72, 118
1, 3386, Note_on_c, 0, 67, 104
1, 3454, Note_off_c, 0, 67, 104
1, 3507, Note_on_c, 0, 68, 115
1, 3572, Note_off_c, 0, 68, 115
1, 3578, Note_on_c, 0, 69, 117
1, 3628, Note_off_c, 0, 69, 117
1, 3630, Note_on_c, 0, 72, 109
1, 3685, Note_off_c, 0, 72, 109
1, 3690, Note_on_c, 0, 69, 95
1, 3738, Note_off_c, 0, 69, 95
1, 3740, Note_on_c, 0, 72, 116
1, 3803, Note_off_c, 0, 72, 116
1, 3860, Note_on_c, 0, 69, 90
1, 4099, Note_off_c, 0, 69, 90
1, 4389, Note_on_c, 0, 76, 102
1, 4593, Note_off_c, 0, 76, 102
1, 4619, Note_on_c, 0, 74, 114
1, 4662, Note_off_c, 0, 74, 114
1, 4733, Note_on_c, 0, 72, 112
1, 4808, Note_off_c, 0, 72, 112
1, 4813, Note_on_c, 0, 67, 109
1, 4876, Note_off_c, 0, 67, 109
1, 4927, Note_on_c, 0, 68, 114
1, 4980, Note_off_c, 0, 68, 114
1, 4981, Note_on_c, 0, 69, 109
1, 5114, Note_off_c, 0, 69, 109
1, 5157, Note_on_c, 0, 64, 112
1, 5222, Note_off_c, 0, 64, 112
1, 5277, Note_on_c, 0, 67, 111
1, 5334, Note_off_c, 0, 67, 111
1, 5340, Note_on_c, 0, 64, 112
1, 5395, Note_off_c, 0, 64, 112
1, 5402, Note_on_c, 0, 57, 83
1, 5445, Note_off_c, 0, 57, 83
1, 5473, Note_on_c, 0, 62, 103
1, 5531, Note_off_c, 0, 62, 103
1, 5619, Note_on_c, 0, 61, 100
1, 5677, Note_off_c, 0, 61, 100
1, 5691, Note_on_c, 0, 60, 88
1, 5854, Note_off_c, 0, 60, 88
1, 6070, Note_on_c, 0, 69, 119
1, 6131, Note_off_c, 0, 69, 119
1, 6169, Note_on_c, 0, 70, 120
1, 6235, Note_off_c, 0, 70, 120
1, 6238, Note_on_c, 0, 69, 116
1, 6316, Note_off_c, 0, 69, 116
1, 6344, Note_on_c, 0, 76, 117
1, 6414, Note_off_c, 0, 76, 117
1, 6416, Note_on_c, 0, 74, 115
1, 6483, Note_off_c, 0, 74, 115
1, 6483, Note_on_c, 0, 71, 114
1, 6542, Note_off_c, 0, 71, 114
1, 6545, Note_on_c, 0, 67, 114
1, 6589, Note_off_c, 0, 67, 114
1, 6593, Note_on_c, 0, 65, 109
1, 6670, Note_off_c, 0, 65, 109
1, 6671, Note_on_c, 0, 62, 106
1, 6709, Note_off_c, 0, 62, 106
1, 6712, Note_on_c, 0, 65, 113
1, 6773, Note_off_c, 0, 65, 113
1, 6776, Note_on_c, 0, 62, 105
1, 6828, Note_off_c, 0, 62, 105
1, 6830, Note_on_c, 0, 59, 92
1, 6902, Note_off_c, 0, 59, 92
1, 6903, Note_on_c, 0, 62, 104
1, 6949, Note_off_c, 0, 62, 104
1, 6955, Note_on_c, 0, 65, 113
1, 7026, Note_off_c, 0, 65, 113
1, 7066, Note_on_c, 0, 71, 117
1, 7130, Note_off_c, 0, 71, 117
1, 7131, Note_on_c, 0, 70, 95
1, 7310, Note_off_c, 0, 70, 95
1, 7338, Note_on_c, 0, 62, 104
1, 7405, Note_off_c, 0, 62, 104
1, 7432, Note_on_c, 0, 63, 109
1, 7488, Note_off_c, 0, 63, 109
1, 7493, Note_on_c, 0, 64, 108
1, 7546, Note_off_c, 0, 64, 108
1, 7546, Note_on_c, 0, 72, 110
1, 7641, Note_off_c, 0, 72, 110
1, 7867, Note_on_c, 0, 69, 120
1, 7915, Note_off_c, 0, 69, 120
1, 7981, Note_on_c, 0, 69, 116
1, 8046, Note_off_c, 0, 69, 116
1, 8161, Note_on_c, 0, 65, 112
1, 8219, Note_off_c, 0, 65, 112
1, 8225, Note_on_c, 0, 60, 103
1, 8289, Note_off_c, 0, 60, 103
1, 8292, Note_on_c, 0, 57, 92
1, 8383, Note_off_c, 0, 57, 92
1, 8706, Note_on_c, 0, 72, 119
1, 8773, Note_off_c, 0, 72, 119
1, 8848, Note_on_c, 0, 71, 113
1, 8900, Note_off_c, 0, 71, 113
1, 8903, Note_on_c, 0, 72, 102
1, 8950, Note_off_c, 0, 72, 102
1, 8958, Note_on_c, 0, 73, 120
1, 9028, Note_off_c, 0, 73, 120
1, 9059, Note_on_c, 0, 74, 117
1, 9126, Note_off_c, 0, 74, 117
1, 9130, Note_on_c, 0, 75, 119
1, 9210, Note_off_c, 0, 75, 119
1, 9245, Note_on_c, 0, 76, 121
1, 9314, Note_off_c, 0, 76, 121
1, 9316, Note_on_c, 0, 77, 123
1, 9366, Note_off_c, 0, 77, 123
1, 9492, Note_on_c, 0, 77, 122
1, 9555, Note_off_c, 0, 77, 122
1, 9686, Note_on_c, 0, 77, 117
1, 9881, Note_off_c, 0, 77, 117
1, 10177, Note_on_c, 0, 81, 110
1, 10427, Note_off_c, 0, 81, 110
1, 10437, Note_on_c, 0, 79, 125
1, 10518, Note_off_c, 0, 79, 125
1, 10547, Note_on_c, 0, 77, 123
1, 10603, Note_off_c, 0, 77, 123
1, 10615, Note_on_c, 0, 74, 113
1, 10677, Note_off_c, 0, 74, 113
1, 10737, Note_on_c, 0, 69, 108
1, 10797, Note_off_c, 0, 69, 108
1, 10798, Note_on_c, 0, 72, 109
1, 10852, Note_off_c, 0, 72, 109
1, 10977, Note_on_c, 0, 72, 118
1, 11038, Note_off_c, 0, 72, 118
1, 11095, Note_on_c, 0, 72, 88
1, 11373, Note_off_c, 0, 72, 88
1, 11666, Note_on_c, 0, 74, 102
1, 11718, Note_off_c, 0, 74, 102
1, 11729, Note_on_c, 0, 74, 117
1, 11796, Note_off_c, 0, 74, 117
1, 11916, Note_on_c, 0, 74, 98
1, 12126, Note_off_c, 0, 74, 98
1, 12277, Note_on_c, 0, 72, 114
1, 12346, Note_off_c, 0, 72, 114
1, 12349, Note_on_c, 0, 77, 112
1, 12426, Note_off_c, 0, 77, 112
1, 12478, Note_on_c, 0, 77, 117
1, 12567, Note_off_c, 0, 77, 117
1, 12625, Note_on_c, 0, 72, 80
1, 12664, Note_off_c, 0, 72, 80
1, 12675, Note_on_c, 0, 77, 118
1, 12721, Note_off_c, 0, 77, 118
1, 12731, Note_on_c, 0, 77, 113
1, 12770, Note_off_c, 0, 77, 113
1, 12779, Note_on_c, 0, 77, 119
1, 12822, Note_off_c, 0, 77, 119
1, 12852, Note_on_c, 0, 77, 115
1, 12920, Note_off_c, 0, 77, 115
1, 12935, Note_on_c, 0, 74, 97
1, 12971, Note_off_c, 0, 74, 97
1, 12974, Note_on_c, 0, 80, 115
1, 13049, Note_off_c, 0, 80, 115
1, 13052, Note_on_c, 0, 79, 126
1, 13120, Note_off_c, 0, 79, 126
1, 13122, Note_on_c, 0, 77, 121
1, 13187, Note_off_c, 0, 77, 121
1, 13188, Note_on_c, 0, 74, 116
1, 13257, Note_off_c, 0, 74, 116
1, 13258, Note_on_c, 0, 72, 119
1, 13324, Note_off_c, 0, 72, 119
1, 13366, Note_on_c, 0, 71, 115
1, 13440, Note_off_c, 0, 71, 115
1, 13443, Note_on_c, 0, 70, 113
1, 13519, Note_off_c, 0, 70, 113
1, 13549, Note_on_c, 0, 74, 101
1, 13573, Note_off_c, 0, 74, 101
1, 13573, Note_on_c, 0, 77, 118
1, 13654, Note_off_c, 0, 77, 118
1, 13744, Note_on_c, 0, 70, 118
1, 13829, Note_off_c, 0, 70, 118
1, 13829, Note_on_c, 0, 69, 121
1, 13875, Note_off_c, 0, 69, 121
1, 13948, Note_on_c, 0, 72, 116
1, 14015, Note_off_c, 0, 72, 116
1, 14026, Note_on_c, 0, 65, 102
1, 14221, Note_off_c, 0, 65, 102
1, 14226, Note_on_c, 0, 69, 120
1, 14295, Note_off_c, 0, 69, 120
1, 14403, Note_on_c, 0, 62, 106
1, 14508, Note_off_c, 0, 62, 106
1, 14606, Note_on_c, 0, 62, 88
1, 14743, Note_off_c, 0, 62, 88
1, 14955, Note_on_c, 0, 77, 115
1, 14989, Note_off_c, 0, 77, 115
1, 14989, Note_on_c, 0, 76, 122
1, 15039, Note_off_c, 0, 76, 122
1, 15118, Note_on_c, 0, 74, 114
1, 15207, Note_off_c, 0, 74, 114
1, 15210, Note_on_c, 0, 72, 122
1, 15287, Note_off_c, 0, 72, 122
1, 15335, Note_on_c, 0, 73, 120
1, 15391, Note_off_c, 0, 73, 120
1, 15392, Note_on_c, 0, 74, 117
1, 15466, Note_off_c, 0, 74, 117
1, 15469, Note_on_c, 0, 68, 99
1, 15514, Note_off_c, 0, 68, 99
1, 15514, Note_on_c, 0, 69, 120
1, 15578, Note_off_c, 0, 69, 120
1, 15582, Note_on_c, 0, 65, 112
1, 15626, Note_off_c, 0, 65, 112
1, 15628, Note_on_c, 0, 66, 112
1, 15699, Note_off_c, 0, 66, 112
1, 15720, Note_on_c, 0, 62, 105
1, 15814, Note_off_c, 0, 62, 105
1, 15893, Note_on_c, 0, 61, 104
1, 15976, Note_off_c, 0, 61, 104
1, 15978, Note_on_c, 0, 60, 109
1, 16026, Note_off_c, 0, 60, 109
1, 16189, Note_on_c, 0, 59, 92
1, 16326, Note_off_c, 0, 59, 92
1, 16369, Note_on_c, 0, 65, 114
1, 16499, Note_off_c, 0, 65, 114
1, 16504, Note_on_c, 0, 63, 94
1, 16552, Note_off_c, 0, 63, 94
1, 16553, Note_on_c, 0, 64, 85
1, 16707, Note_off_c, 0, 64, 85
1, 16883, Note_on_c, 0, 72, 115
1, 16947, Note_off_c, 0, 72, 115
1, 16947, Note_on_c, 0, 74, 115
1, 17066, Note_off_c, 0, 74, 115
1, 17067, Note_on_c, 0, 68, 93
1, 17132, Note_off_c, 0, 68, 93
1, 17135, Note_on_c, 0, 69, 117
1, 17240, Note_off_c, 0, 69, 117
1, 17324, Note_on_c, 0, 65, 93
1, 17485, Note_off_c, 0, 65, 93
1, 17664, Note_on_c, 0, 77, 122
1, 17743, Note_off_c, 0, 77, 122
1, 17832, Note_on_c, 0, 77, 112
1, 18037, Note_off_c, 0, 77, 112
1, 18112, Note_on_c, 0, 74, 115
1, 18178, Note_off_c, 0, 74, 115
1, 18232, Note_on_c, 0, 69, 119
1, 18304, Note_off_c, 0, 69, 119
1, 18304, Note_on_c, 0, 70, 115
1, 18369, Note_off_c, 0, 70, 115
1, 18436, Note_on_c, 0, 69, 121
1, 18502, Note_off_c, 0, 69, 121
1, 18509, Note_on_c, 0, 59, 86
1, 18746, Note_off_c, 0, 59, 86
1, 18750, Note_on_c, 0, 62, 110
1, 18830, Note_off_c, 0, 62, 110
1, 18849, Note_on_c, 0, 65, 111
1, 18903, Note_off_c, 0, 65, 111
1, 18905, Note_on_c, 0, 69, 120
1, 18974, Note_off_c, 0, 69, 120
1, 19024, Note_on_c, 0, 69, 122
1, 19081, Note_off_c, 0, 69, 122
1, 19087, Note_on_c, 0, 69, 102
1, 19262, Note_off_c, 0, 69, 102
1, 19470, Note_on_c, 0, 57, 103
1, 19512, Note_off_c, 0, 57, 103
1, 19517, Note_on_c, 0, 60, 101
1, 19617, Note_off_c, 0, 60, 101
1, 19621, Note_on_c, 0, 64, 108
1, 19684, Note_off_c, 0, 64, 108
1, 19690, Note_on_c, 0, 69, 119
1, 19770, Note_off_c, 0, 69, 119
1, 19807, Note_on_c, 0, 69, 119
1, 19882, Note_off_c, 0, 69, 119
1, 19888, Note_on_c, 0, 69, 105
1, 20064, Note_off_c, 0, 69, 105
1, 20075, Note_on_c, 0, 65, 110
1, 20148, Note_off_c, 0, 65, 110
1, 20216, Note_on_c, 0, 65, 110
1, 20273, Note_off_c, 0, 65, 110
1, 20436, Note_on_c, 0, 67, 88
1, 20465, Note_off_c, 0, 67, 88
1, 20466, Note_on_c, 0, 69, 118
1, 20526, Note_off_c, 0, 69, 118
1, 20586, Note_on_c, 0, 76, 127
1, 20644, Note_off_c, 0, 76, 127
1, 20655, Note_on_c, 0, 74, 116
1, 20734, Note_off_c, 0, 74, 116
1, 20788, Note_on_c, 0, 62, 87
1, 21024, Note_off_c, 0, 62, 87
1, 21242, Note_on_c, 0, 72, 118
1, 21333, Note_off_c, 0, 72, 118
1, 21374, Note_on_c, 0, 74, 107
1, 21517, Note_off_c, 0, 74, 107
1, 21565, Note_on_c, 0, 72, 118
1, 21621, Note_off_c, 0, 72, 118
1, 21636, Note_on_c, 0, 77, 122
1, 21740, Note_off_c, 0, 77, 122
1, 21852, Note_on_c, 0, 77, 124
1, 21952, Note_off_c, 0, 77, 124
1, 22031, Note_on_c, 0, 77, 100
1, 22207, Note_off_c, 0, 77, 100
1, 22577, Note_on_c, 0, 81, 111
1, 23140, Note_off_c, 0, 81, 111
1, 23155, Note_on_c, 0, 79, 122
1, 23217, Note_off_c, 0, 79, 122
1, 23225, Note_on_c, 0, 77, 124
1, 23296, Note_off_c, 0, 77, 124
1, 23348, Note_on_c, 0, 74, 120
1, 23405, Note_off_c, 0, 74, 120
1, 23420, Note_on_c, 0, 68, 117
1, 23517, Note_off_c, 0, 68, 117
1, 23557, Note_on_c, 0, 69, 113
1, 23617, Note_off_c, 0, 69, 113
1, 23625, Note_on_c, 0, 76, 125
1, 23716, Note_off_c, 0, 76, 125
1, 23816, Note_on_c, 0, 74, 119
1, 23900, Note_off_c, 0, 74, 119
1, 23945, Note_on_c, 0, 62, 98
1, 24123, Note_off_c, 0, 62, 98
1, 24232, Note_on_c, 0, 68, 121
1, 24303, Note_off_c, 0, 68, 121
1, 24346, Note_on_c, 0, 69, 123
1, 24406, Note_off_c, 0, 69, 123
1, 24409, Note_on_c, 0, 72, 123
1, 24479, Note_off_c, 0, 72, 123
1, 24481, Note_on_c, 0, 69, 109
1, 24623, Note_off_c, 0, 69, 109
1, 24957, Note_on_c, 0, 79, 88
1, 24999, Note_off_c, 0, 79, 88
1, 25026, Note_on_c, 0, 81, 93
1, 25126, Note_off_c, 0, 81, 93
1, 25128, Note_on_c, 0, 79, 122
1, 25183, Note_off_c, 0, 79, 122
1, 25308, Note_on_c, 0, 77, 120
1, 25399, Note_off_c, 0, 77, 120
1, 25399, Note_on_c, 0, 74, 119
1, 25458, Note_off_c, 0, 74, 119
1, 25595, Note_on_c, 0, 77, 108
1, 25758, Note_off_c, 0, 77, 108
1, 25797, Note_on_c, 0, 73, 121
1, 25857, Note_off_c, 0, 73, 121
1, 25925, Note_on_c, 0, 74, 115
1, 25999, Note_off_c, 0, 74, 115
1, 25999, Note_on_c, 0, 72, 113
1, 26057, Note_off_c, 0, 72, 113
1, 26110, Note_on_c, 0, 70, 120
1, 26187, Note_off_c, 0, 70, 120
1, 26188, Note_on_c, 0, 67, 108
1, 26237, Note_off_c, 0, 67, 108
1, 26383, Note_on_c, 0, 68, 105
1, 26419, Note_off_c, 0, 68, 105
1, 26419, Note_on_c, 0, 70, 119
1, 26457, Note_off_c, 0, 70, 119
1, 26623, Note_on_c, 0, 58, 92
1, 26712, Note_off_c, 0, 58, 92
1, 26718, Note_on_c, 0, 62, 110
1, 26793, Note_off_c, 0, 62, 110
1, 26794, Note_on_c, 0, 65, 114
1, 26857, Note_off_c, 0, 65, 114
1, 26936, Note_on_c, 0, 58, 82
1, 26991, Note_off_c, 0, 58, 82
1, 26995, Note_on_c, 0, 62, 99
1, 27049, Note_off_c, 0, 62, 99
1, 27113, Note_on_c, 0, 65, 104
1, 27197, Note_off_c, 0, 65, 104
1, 27197, Note_on_c, 0, 70, 118
1, 27278, Note_off_c, 0, 70, 118
1, 27281, Note_on_c, 0, 66, 95
1, 27335, Note_off_c, 0, 66, 95
1, 27335, Note_on_c, 0, 70, 118
1, 27409, Note_off_c, 0, 70, 118
1, 27409, Note_on_c, 0, 66, 98
1, 27464, Note_off_c, 0, 66, 98
1, 27467, Note_on_c, 0, 70, 114
1, 27539, Note_off_c, 0, 70, 114
1, 27539, Note_on_c, 0, 66, 97
1, 27586, Note_off_c, 0, 66, 97
1, 27587, Note_on_c, 0, 70, 10
1, 27850, Note_off_c, 0, 70, 10
1, 27850, End_track
0, 0, End_of_file
