0, 0, Header, 1, 1, 192
1, 0, Start_track
1, 0, Title_t, "Melody"
1, 0, Tempo, 555555
1, 0, Key_signature, -2, "major"
1, 0, Time_signature, 4, 2, 24, 8
1, 944, Note_on_c, 0, 74, 110
1, 987, Note_off_c, 0, 74, 110
1, 997, Note_on_c, 0, 70, 108
1, 1033, Note_off_c, 0, 70, 108
1, 1052, Note_on_c, 0, 65, 108
1, 1075, Note_off_c, 0, 65, 108
1, 1083, Note_on_c, 0, 62, 108
1, 1118, Note_off_c, 0, 62, 108
1, 1163, Note_on_c, 0, 65, 112
1, 1192, Note_off_c, 0, 65, 112
1, 1196, Note_on_c, 0, 70, 111
1, 1229, Note_off_c, 0, 70, 111
1, 1237, Note_on_c, 0, 74, 113
1, 1273, Note_off_c, 0, 74, 113
1, 1333, Note_on_c, 0, 74, 112
1, 1375, Note_off_c, 0, 74, 112
1, 1429, Note_on_c, 0, 74, 116
1, 1460, Note_off_c, 0, 74, 116
1, 1477, Note_on_c, 0, 74, 106
1, 1520, Note_off_c, 0, 74, 106
1, 2100, Note_on_c, 0, 74, 113
1, 2133, Note_off_c, 0, 74, 113
1, 2134, Note_on_c, 0, 75, 114
1, 2153, Note_off_c, 0, 75, 114
1, 2157, Note_on_c, 0, 74, 117
1, 2197, Note_off_c, 0, 74, 117
1, 2202, Note_on_c, 0, 73, 120
1, 2247, Note_off_c, 0, 73, 120
1, 2252, Note_on_c, 0, 74, 111
1, 2305, Note_off_c, 0, 74, 111
1, 2351, Note_on_c, 0, 79, 109
1, 2405, Note_off_c, 0, 79, 109
1, 2432, Note_on_c, 0, 74, 114
1, 2470, Note_off_c, 0, 74, 114
1, 2515, Note_on_c, 0, 81, 106
1, 2558, Note_off_c, 0, 81, 106
1, 2635, Note_on_c, 0, 76, 105
1, 2663, Note_off_c, 0, 76, 105
1, 2670, Note_on_c, 0, 74, 108
1, 2697, Note_off_c, 0, 74, 108
1, 2775, Note_on_c, 0, 74, 102
1, 2911, Note_off_c, 0, 74, 102
1, 3054, Note_on_c, 0, 67, 105
1, 3097, Note_off_c, 0, 67, 105
1, 3105, Note_on_c, 0, 70, 109
1, 3141, Note_off_c, 0, 70, 109
1, 3157, Note_on_c, 0, 74, 113
1, 3206, Note_off_c, 0, 74, 113
1, 3257, Note_on_c, 0, 79, 111
1, 3296, Note_off_c, 0, 79, 111
1, 3347, Note_on_c, 0, 78, 113
1, 3403, Note_off_c, 0, 78, 113
1, 3427, Note_on_c, 0, 77, 117
1, 3479, Note_off_c, 0, 77, 117
1, 3559, Note_on_c, 0, 67, 93
1, 3606, Note_off_c, 0, 67, 93
1, 3618, Note_on_c, 0, 75, 103
1, 3781, Note_off_c, 0, 75, 103
1, 3914, Note_on_c, 0, 74, 111
1, 3946, Note_off_c, 0, 74, 111
1, 4006, Note_on_c, 0, 64, 105
1, 4033, Note_off_c, 0, 64, 105
1, 4036, Note_on_c, 0, 67, 104
1, 4078, Note_off_c, 0, 67, 104
1, 4082, Note_on_c, 0, 70, 110
1, 4112, Note_off_c, 0, 70, 110
1, 4116, Note_on_c, 0, 74, 116
1, 4150, Note_off_c, 0, 74, 116
1, 4216, Note_on_c, 0, 74, 116
1, 4250, Note_off_c, 0, 74, 116
1, 4315, Note_on_c, 0, 74, 116
1, 4351, Note_off_c, 0, 74, 116
1, 4396, Note_on_c, 0, 74, 111
1, 4440, Note_off_c, 0, 74, 111
1, 4448, Note_on_c, 0, 74, 104
1, 4529, Note_off_c, 0, 74, 104
1, 4533, Note_on_c, 0, 70, 95
1, 4556, Note_off_c, 0, 70, 95
1, 4765, Note_on_c, 0, 63, 109
1, 4806, Note_off_c, 0, 63, 109
1, 4820, Note_on_c, 0, 69, 100
1, 4843, Note_off_c, 0, 69, 100
1, 4850, Note_on_c, 0, 69, 106
1, 4882, Note_off_c, 0, 69, 106
1, 4896, Note_on_c, 0, 74, 115
1, 4936, Note_off_c, 0, 74, 115
1, 5048, Note_on_c, 0, 74, 110
1, 5089, Note_off_c, 0, 74, 110
1, 5142, Note_on_c, 0, 74, 112
1, 5180, Note_off_c, 0, 74, 112
1, 5195, Note_on_c, 0, 74, 102
1, 5270, Note_off_c, 0, 74, 102
1, 5518, Note_on_c, 0, 79, 105
1, 5577, Note_off_c, 0, 79, 105
1, 5612, Note_on_c, 0, 78, 110
1, 5657, Note_off_c, 0, 78, 110
1, 5705, Note_on_c, 0, 77, 110
1, 5754, Note_off_c, 0, 77, 110
1, 5807, Note_on_c, 0, 70, 101
1, 5857, Note_off_c, 0, 70, 101
1, 5865, Note_on_c, 0, 75, 110
1, 5908, Note_off_c, 0, 75, 110
1, 5950, Note_on_c, 0, 74, 99
1, 5957, Note_off_c, 0, 74, 99
1, 5957, Note_on_c, 0, 93, 80
1, 5957, Note_off_c, 0, 93, 80
1, 6004, Note_on_c, 0, 73, 115
1, 6042, Note_off_c, 0, 73, 115
1, 6049, Note_on_c, 0, 74, 116
1, 6087, Note_off_c, 0, 74, 116
1, 6092, Note_on_c, 0, 72, 108
1, 6139, Note_off_c, 0, 72, 108
1, 6147, Note_on_c, 0, 70, 109
1, 6178, Note_off_c, 0, 70, 109
1, 6184, Note_on_c, 0, 67, 104
1, 6220, Note_off_c, 0, 67, 104
1, 6276, Note_on_c, 0, 69, 104
1, 6317, Note_off_c, 0, 69, 104
1, 6321, Note_on_c, 0, 70, 112
1, 6374, Note_off_c, 0, 70, 112
1, 6380, Note_on_c, 0, 67, 108
1, 6426, Note_off_c, 0, 67, 108
1, 6430, Note_on_c, 0, 63, 107
1, 6464, Note_off_c, 0, 63, 107
1, 6474, Note_on_c, 0, 60, 93
1, 6525, Note_off_c, 0, 60, 93
1, 6530, Note_on_c, 0, 59, 85
1, 6564, Note_off_c, 0, 59, 85
1, 6567, Note_on_c, 0, 58, 102
1, 6617, Note_off_c, 0, 58, 102
1, 6629, Note_on_c, 0, 56, 89
1, 6669, Note_off_c, 0, 56, 89
1, 6675, Note_on_c, 0, 57, 93
1, 6708, Note_off_c, 0, 57, 93
1, 6710, Note_on_c, 0, 64, 93
1, 6739, Note_off_c, 0, 64, 93
1, 6740, Note_on_c, 0, 69, 105
1, 6875, Note_off_c, 0, 69, 105
1, 6890, Note_on_c, 0, 67, 97
1, 7050, Note_off_c, 0, 67, 97
1, 7261, Note_on_c, 0, 65, 110
1, 7304, Note_off_c, 0, 65, 110
1, 7310, Note_on_c, 0, 64, 110
1, 7348, Note_off_c, 0, 64, 110
1, 7361, Note_on_c, 0, 67, 104
1, 7402, Note_off_c, 0, 67, 104
1, 7413, Note_on_c, 0, 65, 104
1, 7442, Note_off_c, 0, 65, 104
1, 7446, Note_on_c, 0, 70, 113
1, 7503, Note_off_c, 0, 70, 113
1, 7511, Note_on_c, 0, 74, 114
1, 7559, Note_off_c, 0, 74, 114
1, 7582, Note_on_c, 0, 77, 113
1, 7631, Note_off_c, 0, 77, 113
1, 7651, Note_on_c, 0, 81, 113
1, 7708, Note_off_c, 0, 81, 113
1, 7766, Note_on_c, 0, 81, 110
1, 7822, Note_off_c, 0, 81, 110
1, 7850, Note_on_c, 0, 81, 111
1, 7898, Note_off_c, 0, 81, 111
1, 7914, Note_on_c, 0, 74, 98
1, 8031, Note_off_c, 0, 74, 98
1, 8127, Note_on_c, 0, 81, 112
1, 8184, Note_off_c, 0, 81, 112
1, 8214, Note_on_c, 0, 74, 111
1, 8261, Note_off_c, 0, 74, 111
1, 8308, Note_on_c, 0, 81, 115
1, 8364, Note_off_c, 0, 81, 115
1, 8384, Note_on_c, 0, 74, 106
1, 8420, Note_off_c, 0, 74, 106
1, 8457, Note_on_c, 0, 82, 119
1, 8510, Note_off_c, 0, 82, 119
1, 8533, Note_on_c, 0, 74, 109
1, 8572, Note_off_c, 0, 74, 109
1, 8591, Note_on_c, 0, 81, 113
1, 8652, Note_off_c, 0, 81, 113
1, 8704, Note_on_c, 0, 81, 114
1, 8764, Note_off_c, 0, 81, 114
1, 8806, Note_on_c, 0, 74, 105
1, 8914, Note_off_c, 0, 74, 105
1, 9005, Note_on_c, 0, 81, 110
1, 9043, Note_off_c, 0, 81, 110
1, 9067, Note_on_c, 0, 74, 103
1, 9104, Note_off_c, 0, 74, 103
1, 9124, Note_on_c, 0, 81, 113
1, 9174, Note_off_c, 0, 81, 113
1, 9195, Note_on_c, 0, 74, 99
1, 9221, Note_off_c, 0, 74, 99
1, 9254, Note_on_c, 0, 81, 109
1, 9295, Note_off_c, 0, 81, 109
1, 9321, Note_on_c, 0, 79, 108
1, 9358, Note_off_c, 0, 79, 108
1, 9370, Note_on_c, 0, 77, 112
1, 9411, Note_off_c, 0, 77, 112
1, 9422, Note_on_c, 0, 78, 112
1, 9458, Note_off_c, 0, 78, 112
1, 9468, Note_on_c, 0, 79, 109
1, 9502, Note_off_c, 0, 79, 109
1, 9523, Note_on_c, 0, 74, 113
1, 9554, Note_off_c, 0, 74, 113
1, 9568, Note_on_c, 0, 74, 113
1, 9583, Note_off_c, 0, 74, 113
1, 9586, Note_on_c, 0, 75, 111
1, 9609, Note_off_c, 0, 75, 111
1, 9615, Note_on_c, 0, 76, 116
1, 9651, Note_off_c, 0, 76, 116
1, 9658, Note_on_c, 0, 77, 113
1, 9696, Note_off_c, 0, 77, 113
1, 9714, Note_on_c, 0, 74, 112
1, 9743, Note_off_c, 0, 74, 112
1, 9759, Note_on_c, 0, 71, 107
1, 9804, Note_off_c, 0, 71, 107
1, 9836, Note_on_c, 0, 67, 103
1, 9869, Note_off_c, 0, 67, 103
1, 9929, Note_on_c, 0, 75, 116
1, 9980, Note_off_c, 0, 75, 116
1, 9994, Note_on_c, 0, 74, 114
1, 10035, Note_off_c, 0, 74, 114
1, 10062, Note_on_c, 0, 77, 92
1, 10095, Note_off_c, 0, 77, 92
1, 10099, Note_on_c, 0, 79, 99
1, 10142, Note_off_c, 0, 79, 99
1, 10228, Note_on_c, 0, 69, 98
1, 10267, Note_off_c, 0, 69, 98
1, 10279, Note_on_c, 0, 74, 113
1, 10329, Note_off_c, 0, 74, 113
1, 10395, Note_on_c, 0, 74, 113
1, 10441, Note_off_c, 0, 74, 113
1, 10456, Note_on_c, 0, 74, 109
1, 10572, Note_off_c, 0, 74, 109
1, 10733, Note_on_c, 0, 73, 109
1, 10794, Note_off_c, 0, 73, 109
1, 10796, Note_on_c, 0, 74, 115
1, 10852, Note_off_c, 0, 74, 115
1, 10855, Note_on_c, 0, 77, 115
1, 10925, Note_off_c, 0, 77, 115
1, 10956, Note_on_c, 0, 74, 114
1, 11015, Note_off_c, 0, 74, 114
1, 11040, Note_on_c, 0, 76, 117
1, 11161, Note_off_c, 0, 76, 117
1, 11163, Note_on_c, 0, 77, 113
1, 11238, Note_off_c, 0, 77, 113
1, 11252, Note_on_c, 0, 74, 96
1, 11435, Note_off_c, 0, 74, 96
1, 11799, Note_on_c, 0, 82, 112
1, 12304, Note_off_c, 0, 82, 112
1, 12316, Note_on_c, 0, 79, 106
1, 12350, Note_off_c, 0, 79, 106
1, 12396, Note_on_c, 0, 81, 106
1, 12438, Note_off_c, 0, 81, 106
1, 12442, Note_on_c, 0, 82, 115
1, 12492, Note_off_c, 0, 82, 115
1, 12575, Note_on_c, 0, 82, 112
1, 12671, Note_off_c, 0, 82, 112
1, 12777, Note_on_c, 0, 82, 107
1, 12952, Note_off_c, 0, 82, 107
1, 12956, Note_on_c, 0, 84, 105
1, 12992, Note_off_c, 0, 84, 105
1, 13107, Note_on_c, 0, 79, 105
1, 13145, Note_off_c, 0, 79, 105
1, 13183, Note_on_c, 0, 82, 111
1, 13240, Note_off_c, 0, 82, 111
1, 13389, Note_on_c, 0, 82, 109
1, 13462, Note_off_c, 0, 82, 109
1, 13581, Note_on_c, 0, 77, 113
1, 13628, Note_off_c, 0, 77, 113
1, 13892, Note_on_c, 0, 74, 108
1, 13944, Note_off_c, 0, 74, 108
1, 13995, Note_on_c, 0, 81, 103
1, 14050, Note_off_c, 0, 81, 103
1, 14118, Note_on_c, 0, 81, 100
1, 14263, Note_off_c, 0, 81, 100
1, 14312, Note_on_c, 0, 81, 105
1, 14359, Note_off_c, 0, 81, 105
1, 14401, Note_on_c, 0, 74, 104
1, 14436, Note_off_c, 0, 74, 104
1, 14454, Note_on_c, 0, 75, 107
1, 14506, Note_off_c, 0, 75, 107
1, 14512, Note_on_c, 0, 74, 107
1, 14556, Note_off_c, 0, 74, 107
1, 14571, Note_on_c, 0, 73, 111
1, 14621, Note_off_c, 0, 73, 111
1, 14633, Note_on_c, 0, 74, 109
1, 14662, Note_off_c, 0, 74, 109
1, 14699, Note_on_c, 0, 81, 105
1, 14742, Note_off_c, 0, 81, 105
1, 14764, Note_on_c, 0, 79, 104
1, 14800, Note_off_c, 0, 79, 104
1, 14823, Note_on_c, 0, 74, 88
1, 14949, Note_off_c, 0, 74, 88
1, 15452, Note_on_c, 0, 70, 88
1, 15479, Note_off_c, 0, 70, 88
1, 15500, Note_on_c, 0, 71, 97
1, 15529, Note_off_c, 0, 71, 97
1, 15544, Note_on_c, 0, 74, 103
1, 15586, Note_off_c, 0, 74, 103
1, 15610, Note_on_c, 0, 79, 103
1, 15653, Note_off_c, 0, 79, 103
1, 15675, Note_on_c, 0, 78, 103
1, 15722, Note_off_c, 0, 78, 103
1, 15736, Note_on_c, 0, 77, 104
1, 15788, Note_off_c, 0, 77, 104
1, 15828, Note_on_c, 0, 76, 109
1, 15868, Note_off_c, 0, 76, 109
1, 15904, Note_on_c, 0, 75, 109
1, 15933, Note_off_c, 0, 75, 109
1, 15943, Note_on_c, 0, 77, 106
1, 15974, Note_off_c, 0, 77, 106
1, 15980, Note_on_c, 0, 75, 94
1, 16233, Note_off_c, 0, 75, 94
1, 16255, Note_on_c, 0, 71, 100
1, 16280, Note_off_c, 0, 71, 100
1, 16313, Note_on_c, 0, 73, 101
1, 16419, Note_off_c, 0, 73, 101
1, 16422, Note_on_c, 0, 74, 93
1, 16621, Note_off_c, 0, 74, 93
1, 16798, Note_on_c, 0, 67, 106
1, 16849, Note_off_c, 0, 67, 106
1, 16856, Note_on_c, 0, 68, 99
1, 16896, Note_off_c, 0, 68, 99
1, 16905, Note_on_c, 0, 69, 99
1, 16938, Note_off_c, 0, 69, 99
1, 16997, Note_on_c, 0, 74, 104
1, 17034, Note_off_c, 0, 74, 104
1, 17065, Note_on_c, 0, 72, 100
1, 17084, Note_off_c, 0, 72, 100
1, 17086, Note_on_c, 0, 74, 101
1, 17108, Note_off_c, 0, 74, 101
1, 17112, Note_on_c, 0, 72, 89
1, 17265, Note_off_c, 0, 72, 89
1, 17302, Note_on_c, 0, 67, 102
1, 17343, Note_off_c, 0, 67, 102
1, 17358, Note_on_c, 0, 68, 99
1, 17391, Note_off_c, 0, 68, 99
1, 17403, Note_on_c, 0, 69, 100
1, 17437, Note_off_c, 0, 69, 100
1, 17477, Note_on_c, 0, 77, 108
1, 17514, Note_off_c, 0, 77, 108
1, 17531, Note_on_c, 0, 74, 95
1, 17658, Note_off_c, 0, 74, 95
1, 17792, Note_on_c, 0, 69, 99
1, 17837, Note_off_c, 0, 69, 99
1, 17871, Note_on_c, 0, 72, 98
1, 17933, Note_off_c, 0, 72, 98
1, 18006, Note_on_c, 0, 72, 99
1, 18058, Note_off_c, 0, 72, 99
1, 18102, Note_on_c, 0, 70, 100
1, 18152, Note_off_c, 0, 70, 100
1, 18187, Note_on_c, 0, 70, 106
1, 18232, Note_off_c, 0, 70, 106
1, 18263, Note_on_c, 0, 69, 102
1, 18292, Note_off_c, 0, 69, 102
1, 18335, Note_on_c, 0, 67, 97
1, 18423, Note_off_c, 0, 67, 97
1, 18573, Note_on_c, 0, 67, 106
1, 18622, Note_off_c, 0, 67, 106
1, 18654, Note_on_c, 0, 68, 94
1, 18725, Note_off_c, 0, 68, 94
1, 18727, Note_on_c, 0, 70, 102
1, 18782, Note_off_c, 0, 70, 102
1, 18808, Note_on_c, 0, 69, 97
1, 18842, Note_off_c, 0, 69, 97
1, 18917, Note_on_c, 0, 69, 100
1, 18954, Note_off_c, 0, 69, 100
1, 18990, Note_on_c, 0, 67, 97
1, 19018, Note_off_c, 0, 67, 97
1, 19023, Note_on_c, 0, 69, 94
1, 19044, Note_off_c, 0, 69, 94
1, 19049, Note_on_c, 0, 67, 96
1, 19187, Note_off_c, 0, 67, 96
1, 19330, Note_on_c, 0, 65, 86
1, 19406, Note_off_c, 0, 65, 86
1, 19430, Note_on_c, 0, 62, 83
1, 19502, Note_off_c, 0, 62, 83
1, 19543, Note_on_c, 0, 62, 87
1, 19601, Note_off_c, 0, 62, 87
1, 19615, Note_on_c, 0, 62, 86
1, 19775, Note_off_c, 0, 62, 86
1, 20117, Note_on_c, 0, 61, 88
1, 20142, Note_off_c, 0, 61, 88
1, 20145, Note_on_c, 0, 62, 98
1, 20271, Note_off_c, 0, 62, 98
1, 20280, Note_on_c, 0, 63, 108
1, 20367, Note_off_c, 0, 63, 108
1, 20368, Note_on_c, 0, 62, 9
1, 20607, Note_off_c, 0, 62, 9
1, 20764, Note_on_c, 0, 61, 106
1, 20780, Note_off_c, 0, 61, 106
1, 20783, Note_on_c, 0, 62, 113
1, 20839, Note_off_c, 0, 62, 113
1, 20844, Note_on_c, 0, 63, 121
1, 20925, Note_off_c, 0, 63, 121
1, 20929, Note_on_c, 0, 62, 110
1, 20967, Note_off_c, 0, 62, 110
1, 20971, Note_on_c, 0, 63, 123
1, 21021, Note_off_c, 0, 63, 123
1, 21031, Note_on_c, 0, 62, 115
1, 21101, Note_off_c, 0, 62, 115
1, 21109, Note_on_c, 0, 67, 111
1, 21131, Note_off_c, 0, 67, 111
1, 21133, Note_on_c, 0, 69, 103
1, 21314, Note_off_c, 0, 69, 103
1, 21377, Note_on_c, 0, 62, 99
1, 21666, Note_off_c, 0, 62, 99
1, 21977, Note_on_c, 0, 68, 104
1, 22000, Note_off_c, 0, 68, 104
1, 22002, Note_on_c, 0, 69, 107
1, 22059, Note_off_c, 0, 69, 107
1, 22072, Note_on_c, 0, 67, 117
1, 22122, Note_off_c, 0, 67, 117
1, 22146, Note_on_c, 0, 65, 105
1, 22184, Note_off_c, 0, 65, 105
1, 22221, Note_on_c, 0, 62, 104
1, 22270, Note_off_c, 0, 62, 104
1, 22295, Note_on_c, 0, 63, 110
1, 22402, Note_off_c, 0, 63, 110
1, 22419, Note_on_c, 0, 59, 91
1, 22468, Note_off_c, 0, 59, 91
1, 22485, Note_on_c, 0, 62, 106
1, 22566, Note_off_c, 0, 62, 106
1, 22610, Note_on_c, 0, 62, 94
1, 22859, Note_off_c, 0, 62, 94
1, 23347, Note_on_c, 0, 61, 105
1, 23411, Note_off_c, 0, 61, 105
1, 23413, Note_on_c, 0, 62, 106
1, 23477, Note_off_c, 0, 62, 106
1, 23484, Note_on_c, 0, 67, 112
1, 23544, Note_off_c, 0, 67, 112
1, 23569, Note_on_c, 0, 62, 96
1, 23612, Note_off_c, 0, 62, 96
1, 23626, Note_on_c, 0, 65, 103
1, 23676, Note_off_c, 0, 65, 103
1, 23691, Note_on_c, 0, 62, 94
1, 23744, Note_off_c, 0, 62, 94
1, 23755, Note_on_c, 0, 65, 96
1, 23802, Note_off_c, 0, 65, 96
1, 23810, Note_on_c, 0, 62, 85
1, 23979, Note_off_c, 0, 62, 85
1, 23979, End_track
0, 0, End_of_file
