0, 0, Header, 1, 1, 192
1, 0, Start_track
1, 0, Title_t, "Melody"
1, 0, Tempo, 461538
1, 0, Key_signature, 1, "major"
1, 0, Time_signature, 4, 2, 24, 8
1, 2380, Note_on_c, 0, 74, 117
1, 2439, Note_off_c, 0, 74, 117
1, 2518, Note_on_c, 0, 74, 111
1, 2577, Note_off_c, 0, 74, 111
1, 2647, Note_on_c, 0, 70, 113
1, 2703, Note_off_c, 0, 70, 113
1, 2711, Note_on_c, 0, 71, 107
1, 2758, Note_off_c, 0, 71, 107
1, 2792, Note_on_c, 0, 67, 100
1, 2842, Note_off_c, 0, 67, 100
1, 2897, Note_on_c, 0, 62, 93
1, 3013, Note_off_c, 0, 62, 93
1, 3442, Note_on_c, 0, 72, 115
1, 3483, Note_off_c, 0, 72, 115
1, 3529, Note_on_c, 0, 76, 122
1, 3577, Note_off_c, 0, 76, 122
1, 3623, Note_on_c, 0, 64, 108
1, 3671, Note_off_c, 0, 64, 108
1, 3705, Note_on_c, 0, 67, 114
1, 3752, Note_off_c, 0, 67, 114
1, 3781, Note_on_c, 0, 71, 111
1, 3849, Note_off_c, 0, 71, 111
1, 3930, Note_on_c, 0, 71, 111
1, 3978, Note_off_c, 0, 71, 111
1, 4031, Note_on_c, 0, 67, 108
1, 4077, Note_off_c, 0, 67, 108
1, 4081, Note_on_c, 0, 69, 105
1, 4130, Note_off_c, 0, 69, 105
1, 4134, Note_on_c, 0, 67, 94
1, 4374, Note_off_c, 0, 67, 94
1, 4379, Note_on_c, 0, 65, 112
1, 4444, Note_off_c, 0, 65, 112
1, 4469, Note_on_c, 0, 62, 103
1, 4519, Note_off_c, 0, 62, 103
1, 4528, Note_on_c, 0, 59, 94
1, 4572, Note_off_c, 0, 59, 94
1, 4585, Note_on_c, 0, 57, 81
1, 4815, Note_off_c, 0, 57, 81
1, 5422, Note_on_c, 0, 69, 108
1, 5456, Note_off_c, 0, 69, 108
1, 5458, Note_on_c, 0, 70, 113
1, 5498, Note_off_c, 0, 70, 113
1, 5537, Note_on_c, 0, 71, 112
1, 5581, Note_off_c, 0, 71, 112
1, 5641, Note_on_c, 0, 76, 117
1, 5704, Note_off_c, 0, 76, 117
1, 5728, Note_on_c, 0, 74, 111
1, 5783, Note_off_c, 0, 74, 111
1, 5810, Note_on_c, 0, 72, 106
1, 5855, Note_off_c, 0, 72, 106
1, 5910, Note_on_c, 0, 63, 103
1, 5965, Note_off_c, 0, 63, 103
1, 5974, Note_on_c, 0, 64, 105
1, 6021, Note_off_c, 0, 64, 105
1, 6040, Note_on_c, 0, 71, 102
1, 6091, Note_off_c, 0, 71, 102
1, 6106, Note_on_c, 0, 69, 100
1, 6151, Note_off_c, 0, 69, 100
1, 6163, Note_on_c, 0, 67, 98
1, 6204, Note_off_c, 0, 67, 98
1, 6226, Note_on_c, 0, 64, 101
1, 6282, Note_off_c, 0, 64, 101
1, 6296, Note_on_c, 0, 60, 95
1, 6341, Note_off_c, 0, 60, 95
1, 6348, Note_on_c, 0, 57, 91
1, 6531, Note_off_c, 0, 57, 91
1, 6749, Note_on_c, 0, 61, 104
1, 6777, Note_off_c, 0, 61, 104
1, 6781, Note_on_c, 0, 62, 107
1, 6851, Note_off_c, 0, 62, 107
1, 6911, Note_on_c, 0, 61, 97
1, 6919, Note_off_c, 0, 61, 97
1, 6920, Note_on_c, 0, 62, 110
1, 6986, Note_off_c, 0, 62, 110
1, 7044, Note_on_c, 0, 54, 95
1, 7062, Note_off_c, 0, 54, 95
1, 7066, Note_on_c, 0, 55, 100
1, 7123, Note_off_c, 0, 55, 100
1, 7138, Note_on_c, 0, 59, 100
1, 7203, Note_off_c, 0, 59, 100
1, 7215, Note_on_c, 0, 62, 104
1, 7267, Note_off_c, 0, 62, 104
1, 7298, Note_on_c, 0, 59, 97
1, 7332, Note_off_c, 0, 59, 97
1, 7337, Note_on_c, 0, 62, 97
1, 7495, Note_off_c, 0, 62, 97
1, 7974, Note_on_c, 0, 72, 88
1, 8025, Note_off_c, 0, 72, 88
1, 8027, Note_on_c, 0, 74, 115
1, 8087, Note_off_c, 0, 74, 115
1, 8132, Note_on_c, 0, 71, 116
1, 8191, Note_off_c, 0, 71, 116
1, 8196, Note_on_c, 0, 69, 98
1, 8396, Note_off_c, 0, 69, 98
1, 8421, Note_on_c, 0, 67, 111
1, 8494, Note_off_c, 0, 67, 111
1, 8497, Note_on_c, 0, 66, 108
1, 8553, Note_off_c, 0, 66, 108
1, 8569, Note_on_c, 0, 64, 114
1, 8635, Note_off_c, 0, 64, 114
1, 8651, Note_on_c, 0, 66, 113
1, 8689, Note_off_c, 0, 66, 113
1, 8692, Note_on_c, 0, 67, 114
1, 8760, Note_off_c, 0, 67, 114
1, 8764, Note_on_c, 0, 64, 112
1, 8833, Note_off_c, 0, 64, 112
1, 8840, Note_on_c, 0, 67, 106
1, 8893, Note_off_c, 0, 67, 106
1, 8901, Note_on_c, 0, 64, 98
1, 9140, Note_off_c, 0, 64, 98
1, 9442, Note_on_c, 0, 72, 115
1, 9496, Note_off_c, 0, 72, 115
1, 9514, Note_on_c, 0, 68, 94
1, 9547, Note_off_c, 0, 68, 94
1, 9561, Note_on_c, 0, 76, 120
1, 9608, Note_off_c, 0, 76, 120
1, 9656, Note_on_c, 0, 64, 117
1, 9698, Note_off_c, 0, 64, 117
1, 9759, Note_on_c, 0, 67, 115
1, 9788, Note_off_c, 0, 67, 115
1, 9807, Note_on_c, 0, 71, 116
1, 9868, Note_off_c, 0, 71, 116
1, 9932, Note_on_c, 0, 71, 113
1, 9983, Note_off_c, 0, 71, 113
1, 10080, Note_on_c, 0, 67, 112
1, 10121, Note_off_c, 0, 67, 112
1, 10228, Note_on_c, 0, 62, 107
1, 10268, Note_off_c, 0, 62, 107
1, 10274, Note_on_c, 0, 61, 99
1, 10309, Note_off_c, 0, 61, 99
1, 10313, Note_on_c, 0, 62, 97
1, 10346, Note_off_c, 0, 62, 97
1, 10381, Note_on_c, 0, 64, 112
1, 10441, Note_off_c, 0, 64, 112
1, 10483, Note_on_c, 0, 67, 109
1, 10545, Note_off_c, 0, 67, 109
1, 10562, Note_on_c, 0, 74, 115
1, 10637, Note_off_c, 0, 74, 115
1, 10684, Note_on_c, 0, 72, 110
1, 10738, Note_off_c, 0, 72, 110
1, 10744, Note_on_c, 0, 64, 103
1, 10835, Note_off_c, 0, 64, 103
1, 10880, Note_on_c, 0, 71, 104
1, 10921, Note_off_c, 0, 71, 104
1, 10950, Note_on_c, 0, 71, 99
1, 10994, Note_off_c, 0, 71, 99
1, 11542, Note_on_c, 0, 74, 120
1, 11602, Note_off_c, 0, 74, 120
1, 11650, Note_on_c, 0, 76, 121
1, 11728, Note_off_c, 0, 76, 121
1, 11767, Note_on_c, 0, 79, 118
1, 11827, Note_off_c, 0, 79, 118
1, 11851, Note_on_c, 0, 76, 124
1, 11891, Note_off_c, 0, 76, 124
1, 11931, Note_on_c, 0, 79, 120
1, 11999, Note_off_c, 0, 79, 120
1, 12018, Note_on_c, 0, 76, 122
1, 12068, Note_off_c, 0, 76, 122
1, 12085, Note_on_c, 0, 74, 119
1, 12149, Note_off_c, 0, 74, 119
1, 12171, Note_on_c, 0, 71, 112
1, 12220, Note_off_c, 0, 71, 112
1, 12231, Note_on_c, 0, 74, 125
1, 12290, Note_off_c, 0, 74, 125
1, 12312, Note_on_c, 0, 71, 121
1, 12358, Note_off_c, 0, 71, 121
1, 12379, Note_on_c, 0, 69, 115
1, 12441, Note_off_c, 0, 69, 115
1, 12450, Note_on_c, 0, 67, 113
1, 12507, Note_off_c, 0, 67, 113
1, 12517, Note_on_c, 0, 64, 113
1, 12589, Note_off_c, 0, 64, 113
1, 12597, Note_on_c, 0, 67, 112
1, 12657, Note_off_c, 0, 67, 112
1, 12663, Note_on_c, 0, 64, 114
1, 12746, Note_off_c, 0, 64, 114
1, 12751, Note_on_c, 0, 69, 116
1, 12853, Note_off_c, 0, 69, 116
1, 12860, Note_on_c, 0, 67, 104
1, 12928, Note_off_c, 0, 67, 104
1, 12932, Note_on_c, 0, 64, 109
1, 13005, Note_off_c, 0, 64, 109
1, 13008, Note_on_c, 0, 69, 114
1, 13104, Note_off_c, 0, 69, 114
1, 13140, Note_on_c, 0, 67, 114
1, 13206, Note_off_c, 0, 67, 114
1, 13208, Note_on_c, 0, 64, 107
1, 13281, Note_off_c, 0, 64, 107
1, 13287, Note_on_c, 0, 67, 110
1, 13364, Note_off_c, 0, 67, 110
1, 13409, Note_on_c, 0, 67, 104
1, 13627, Note_off_c, 0, 67, 104
1, 13635, Note_on_c, 0, 64, 101
1, 13691, Note_off_c, 0, 64, 101
1, 13698, Note_on_c, 0, 62, 100
1, 13745, Note_off_c, 0, 62, 100
1, 14126, Note_on_c, 0, 81, 99
1, 14699, Note_off_c, 0, 81, 99
1, 14724, Note_on_c, 0, 79, 114
1, 14788, Note_off_c, 0, 79, 114
1, 14821, Note_on_c, 0, 81, 111
1, 14894, Note_off_c, 0, 81, 111
1, 14911, Note_on_c, 0, 79, 118
1, 14984, Note_off_c, 0, 79, 118
1, 15005, Note_on_c, 0, 81, 116
1, 15071, Note_off_c, 0, 81, 116
1, 15076, Note_on_c, 0, 79, 114
1, 15150, Note_off_c, 0, 79, 114
1, 15152, Note_on_c, 0, 76, 119
1, 15235, Note_off_c, 0, 76, 119
1, 15248, Note_on_c, 0, 74, 120
1, 15313, Note_off_c, 0, 74, 120
1, 15315, Note_on_c, 0, 72, 108
1, 15384, Note_off_c, 0, 72, 108
1, 15414, Note_on_c, 0, 63, 114
1, 15470, Note_off_c, 0, 63, 114
1, 15477, Note_on_c, 0, 64, 116
1, 15552, Note_off_c, 0, 64, 116
1, 15552, Note_on_c, 0, 67, 105
1, 15602, Note_off_c, 0, 67, 105
1, 15606, Note_on_c, 0, 71, 113
1, 15719, Note_off_c, 0, 71, 113
1, 15743, Note_on_c, 0, 69, 122
1, 15792, Note_off_c, 0, 69, 122
1, 15794, Note_on_c, 0, 67, 120
1, 15852, Note_off_c, 0, 67, 120
1, 15861, Note_on_c, 0, 64, 115
1, 15942, Note_off_c, 0, 64, 115
1, 15944, Note_on_c, 0, 60, 98
1, 16027, Note_off_c, 0, 60, 98
1, 16031, Note_on_c, 0, 57, 98
1, 16108, Note_off_c, 0, 57, 98
1, 16134, Note_on_c, 0, 62, 105
1, 16235, Note_off_c, 0, 62, 105
1, 16286, Note_on_c, 0, 62, 105
1, 16366, Note_off_c, 0, 62, 105
1, 16366, Note_on_c, 0, 55, 97
1, 16443, Note_off_c, 0, 55, 97
1, 16448, Note_on_c, 0, 59, 95
1, 16650, Note_off_c, 0, 59, 95
1, 17052, Note_on_c, 0, 79, 113
1, 17070, Note_off_c, 0, 79, 113
1, 17072, Note_on_c, 0, 81, 113
1, 17111, Note_off_c, 0, 81, 113
1, 17165, Note_on_c, 0, 80, 118
1, 17215, Note_off_c, 0, 80, 118
1, 17221, Note_on_c, 0, 79, 108
1, 17257, Note_off_c, 0, 79, 108
1, 17325, Note_on_c, 0, 69, 112
1, 17369, Note_off_c, 0, 69, 112
1, 17412, Note_on_c, 0, 68, 114
1, 17455, Note_off_c, 0, 68, 114
1, 17459, Note_on_c, 0, 67, 112
1, 17519, Note_off_c, 0, 67, 112
1, 17543, Note_on_c, 0, 71, 117
1, 17600, Note_off_c, 0, 71, 117
1, 17603, Note_on_c, 0, 74, 117
1, 17670, Note_off_c, 0, 74, 117
1, 17676, Note_on_c, 0, 78, 120
1, 17734, Note_off_c, 0, 78, 120
1, 17758, Note_on_c, 0, 75, 115
1, 17791, Note_off_c, 0, 75, 115
1, 17794, Note_on_c, 0, 76, 125
1, 17846, Note_off_c, 0, 76, 125
1, 17860, Note_on_c, 0, 78, 113
1, 17905, Note_off_c, 0, 78, 113
1, 17909, Note_on_c, 0, 79, 121
1, 17973, Note_off_c, 0, 79, 121
1, 18007, Note_on_c, 0, 76, 127
1, 18064, Note_off_c, 0, 76, 127
1, 18101, Note_on_c, 0, 72, 121
1, 18165, Note_off_c, 0, 72, 121
1, 18179, Note_on_c, 0, 62, 101
1, 18207, Note_off_c, 0, 62, 101
1, 18208, Note_on_c, 0, 63, 111
1, 18275, Note_off_c, 0, 63, 111
1, 18283, Note_on_c, 0, 64, 117
1, 18343, Note_off_c, 0, 64, 117
1, 18348, Note_on_c, 0, 67, 118
1, 18378, Note_off_c, 0, 67, 118
1, 18383, Note_on_c, 0, 68, 115
1, 18423, Note_off_c, 0, 68, 115
1, 18430, Note_on_c, 0, 71, 114
1, 18488, Note_off_c, 0, 71, 114
1, 18509, Note_on_c, 0, 73, 109
1, 18539, Note_off_c, 0, 73, 109
1, 18541, Note_on_c, 0, 74, 121
1, 18610, Note_off_c, 0, 74, 121
1, 18626, Note_on_c, 0, 71, 113
1, 18674, Note_off_c, 0, 71, 113
1, 18677, Note_on_c, 0, 74, 118
1, 18728, Note_off_c, 0, 74, 118
1, 18731, Note_on_c, 0, 71, 93
1, 19084, Note_off_c, 0, 71, 93
1, 19338, Note_on_c, 0, 67, 119
1, 19422, Note_off_c, 0, 67, 119
1, 19430, Note_on_c, 0, 65, 124
1, 19516, Note_off_c, 0, 65, 124
1, 19521, Note_on_c, 0, 67, 123
1, 19615, Note_off_c, 0, 67, 123
1, 19618, Note_on_c, 0, 66, 107
1, 19636, Note_off_c, 0, 66, 107
1, 19637, Note_on_c, 0, 63, 121
1, 19713, Note_off_c, 0, 63, 121
1, 19722, Note_on_c, 0, 64, 122
1, 19799, Note_off_c, 0, 64, 122
1, 19836, Note_on_c, 0, 74, 122
1, 19909, Note_off_c, 0, 74, 122
1, 19920, Note_on_c, 0, 72, 118
1, 19983, Note_off_c, 0, 72, 118
1, 20033, Note_on_c, 0, 67, 113
1, 20117, Note_off_c, 0, 67, 113
1, 20121, Note_on_c, 0, 71, 88
1, 20416, Note_off_c, 0, 71, 88
1, 20444, Note_on_c, 0, 62, 105
1, 20517, Note_off_c, 0, 62, 105
1, 20523, Note_on_c, 0, 67, 103
1, 20579, Note_off_c, 0, 67, 103
1, 20579, End_track
0, 0, End_of_file
