0, 0, Header, 1, 1, 2520
1, 0, Start_track
1, 0, Title_t, "Melody"
1, 0, Tempo, 652173
1, 0, Time_signature, 4, 2, 24, 8
1, 63859, Note_on_c, 0, 62, 100
1, 64487, Note_off_c, 0, 62, 100
1, 64554, Note_on_c, 0, 67, 101
1, 65193, Note_on_c, 0, 69, 104
1, 65193, Note_off_c, 0, 67, 101
1, 65697, Note_off_c, 0, 69, 104
1, 65708, Note_on_c, 0, 70, 102
1, 66369, Note_off_c, 0, 70, 102
1, 66369, Note_on_c, 0, 72, 105
1, 67344, Note_off_c, 0, 72, 105
1, 67462, Note_on_c, 0, 73, 97
1, 67820, Note_off_c, 0, 73, 97
1, 67898, Note_on_c, 0, 74, 97
1, 68362, Note_off_c, 0, 74, 97
1, 68362, Note_on_c, 0, 72, 103
1, 68922, Note_off_c, 0, 72, 103
1, 68978, Note_on_c, 0, 70, 101
1, 69283, Note_off_c, 0, 70, 101
1, 69347, Note_on_c, 0, 69, 81
1, 69616, Note_off_c, 0, 69, 81
1, 70032, Note_on_c, 0, 69, 102
1, 71672, Note_off_c, 0, 69, 102
1, 74148, Note_on_c, 0, 60, 87
1, 74621, Note_off_c, 0, 60, 87
1, 75575, Note_on_c, 0, 60, 91
1, 76268, Note_off_c, 0, 60, 91
1, 77584, Note_on_c, 0, 60, 100
1, 80627, Note_off_c, 0, 60, 100
1, 83174, Note_on_c, 0, 72, 96
1, 84128, Note_off_c, 0, 72, 96
1, 84143, Note_on_c, 0, 73, 105
1, 86477, Note_off_c, 0, 73, 105
1, 86848, Note_on_c, 0, 71, 95
1, 87352, Note_off_c, 0, 71, 95
1, 87486, Note_on_c, 0, 70, 94
1, 88057, Note_off_c, 0, 70, 94
1, 88461, Note_on_c, 0, 69, 100
1, 89691, Note_off_c, 0, 69, 100
1, 96591, Note_on_c, 0, 60, 94
1, 97017, Note_off_c, 0, 60, 94
1, 98404, Note_on_c, 0, 60, 102
1, 100548, Note_off_c, 0, 60, 102
1, 101518, Note_on_c, 0, 70, 90
1, 102353, Note_off_c, 0, 70, 90
1, 102353, Note_on_c, 0, 70, 80
1, 102353, Note_off_c, 0, 70, 80
1, 102415, Note_on_c, 0, 72, 106
1, 106752, Note_off_c, 0, 72, 106
1, 107236, Note_on_c, 0, 70, 103
1, 107723, Note_off_c, 0, 70, 103
1, 107762, Note_on_c, 0, 69, 71
1, 107955, Note_off_c, 0, 69, 71
1, 108154, Note_on_c, 0, 69, 101
1, 108557, Note_off_c, 0, 69, 101
1, 108604, Note_on_c, 0, 68, 68
1, 108822, Note_off_c, 0, 68, 68
1, 109197, Note_on_c, 0, 68, 102
1, 109597, Note_off_c, 0, 68, 102
1, 109630, Note_on_c, 0, 67, 71
1, 109789, Note_off_c, 0, 67, 71
1, 110094, Note_on_c, 0, 60, 92
1, 110643, Note_off_c, 0, 60, 92
1, 111057, Note_on_c, 0, 60, 94
1, 111528, Note_off_c, 0, 60, 94
1, 112067, Note_on_c, 0, 60, 95
1, 113313, Note_off_c, 0, 60, 95
1, 113362, Note_on_c, 0, 63, 106
1, 114225, Note_off_c, 0, 63, 106
1, 114241, Note_on_c, 0, 61, 97
1, 114638, Note_off_c, 0, 61, 97
1, 114680, Note_on_c, 0, 60, 94
1, 114963, Note_off_c, 0, 60, 94
1, 115010, Note_on_c, 0, 59, 86
1, 116524, Note_off_c, 0, 59, 86
1, 121482, Note_on_c, 0, 70, 96
1, 121840, Note_off_c, 0, 70, 96
1, 121862, Note_on_c, 0, 71, 104
1, 122456, Note_off_c, 0, 71, 104
1, 122503, Note_on_c, 0, 68, 107
1, 122846, Note_off_c, 0, 68, 107
1, 122895, Note_on_c, 0, 63, 105
1, 123462, Note_off_c, 0, 63, 105
1, 123749, Note_on_c, 0, 68, 110
1, 124050, Note_off_c, 0, 68, 110
1, 124141, Note_on_c, 0, 67, 107
1, 124764, Note_off_c, 0, 67, 107
1, 124932, Note_on_c, 0, 65, 100
1, 125597, Note_off_c, 0, 65, 100
1, 125702, Note_on_c, 0, 62, 97
1, 125919, Note_off_c, 0, 62, 97
1, 125933, Note_on_c, 0, 64, 103
1, 126262, Note_off_c, 0, 64, 103
1, 126290, Note_on_c, 0, 62, 104
1, 126941, Note_off_c, 0, 62, 104
1, 127148, Note_on_c, 0, 60, 104
1, 128381, Note_off_c, 0, 60, 104
1, 138141, Note_on_c, 0, 57, 86
1, 138708, Note_off_c, 0, 57, 86
1, 138778, Note_on_c, 0, 58, 95
1, 139282, Note_off_c, 0, 58, 95
1, 139303, Note_on_c, 0, 60, 105
1, 139933, Note_off_c, 0, 60, 105
1, 139989, Note_on_c, 0, 61, 104
1, 140374, Note_off_c, 0, 61, 104
1, 140423, Note_on_c, 0, 64, 110
1, 141208, Note_off_c, 0, 64, 110
1, 141250, Note_on_c, 0, 67, 104
1, 141796, Note_off_c, 0, 67, 104
1, 141852, Note_on_c, 0, 69, 107
1, 142447, Note_off_c, 0, 69, 107
1, 142468, Note_on_c, 0, 70, 105
1, 143042, Note_off_c, 0, 70, 105
1, 143105, Note_on_c, 0, 71, 106
1, 143742, Note_off_c, 0, 71, 106
1, 143798, Note_on_c, 0, 72, 103
1, 144555, Note_off_c, 0, 72, 103
1, 144625, Note_on_c, 0, 71, 105
1, 144786, Note_off_c, 0, 71, 105
1, 144828, Note_on_c, 0, 72, 105
1, 146615, Note_off_c, 0, 72, 105
1, 146636, Note_on_c, 0, 70, 94
1, 146867, Note_off_c, 0, 70, 94
1, 146888, Note_on_c, 0, 71, 106
1, 147266, Note_off_c, 0, 71, 106
1, 147273, Note_on_c, 0, 70, 98
1, 147833, Note_off_c, 0, 70, 98
1, 147875, Note_on_c, 0, 68, 78
1, 148246, Note_off_c, 0, 68, 78
1, 148288, Note_on_c, 0, 70, 80
1, 151098, Note_off_c, 0, 70, 80
1, 151266, Note_on_c, 0, 68, 97
1, 151658, Note_off_c, 0, 68, 97
1, 151672, Note_on_c, 0, 65, 97
1, 151987, Note_off_c, 0, 65, 97
1, 152015, Note_on_c, 0, 63, 96
1, 152351, Note_off_c, 0, 63, 96
1, 152372, Note_on_c, 0, 59, 88
1, 153023, Note_off_c, 0, 59, 88
1, 153219, Note_on_c, 0, 63, 95
1, 153751, Note_off_c, 0, 63, 95
1, 154311, Note_on_c, 0, 58, 90
1, 154710, Note_off_c, 0, 58, 90
1, 155025, Note_on_c, 0, 63, 93
1, 155431, Note_off_c, 0, 63, 93
1, 155767, Note_on_c, 0, 56, 89
1, 156089, Note_off_c, 0, 56, 89
1, 156269, Note_on_c, 0, 62, 89
1, 156686, Note_off_c, 0, 62, 89
1, 157273, Note_on_c, 0, 53, 81
1, 159402, Note_off_c, 0, 53, 81
1, 169242, Note_on_c, 0, 51, 87
1, 169914, Note_off_c, 0, 51, 87
1, 170458, Note_on_c, 0, 50, 90
1, 171036, Note_off_c, 0, 50, 90
1, 171079, Note_on_c, 0, 51, 96
1, 171493, Note_off_c, 0, 51, 96
1, 171526, Note_on_c, 0, 53, 95
1, 172075, Note_off_c, 0, 53, 95
1, 172175, Note_on_c, 0, 55, 98
1, 172746, Note_off_c, 0, 55, 98
1, 172810, Note_on_c, 0, 56, 95
1, 174284, Note_off_c, 0, 56, 95
1, 174651, Note_on_c, 0, 58, 96
1, 175166, Note_off_c, 0, 58, 96
1, 175188, Note_on_c, 0, 57, 95
1, 175401, Note_off_c, 0, 57, 95
1, 181434, Note_on_c, 0, 61, 84
1, 181893, Note_off_c, 0, 61, 84
1, 181960, Note_on_c, 0, 63, 105
1, 182733, Note_off_c, 0, 63, 105
1, 182777, Note_on_c, 0, 64, 111
1, 183348, Note_off_c, 0, 64, 111
1, 183381, Note_on_c, 0, 66, 105
1, 183818, Note_off_c, 0, 66, 105
1, 183885, Note_on_c, 0, 67, 106
1, 184602, Note_on_c, 0, 68, 110
1, 184602, Note_off_c, 0, 67, 106
1, 185202, Note_off_c, 0, 68, 110
1, 185230, Note_on_c, 0, 70, 109
1, 186104, Note_off_c, 0, 70, 109
1, 186126, Note_on_c, 0, 68, 110
1, 186613, Note_off_c, 0, 68, 110
1, 187044, Note_on_c, 0, 67, 106
1, 188653, Note_off_c, 0, 67, 106
1, 188675, Note_on_c, 0, 65, 103
1, 189275, Note_off_c, 0, 65, 103
1, 189275, Note_on_c, 0, 62, 99
1, 189488, Note_off_c, 0, 62, 99
1, 189510, Note_on_c, 0, 64, 106
1, 190070, Note_off_c, 0, 64, 106
1, 190103, Note_on_c, 0, 62, 102
1, 190787, Note_off_c, 0, 62, 102
1, 191028, Note_on_c, 0, 60, 92
1, 194033, Note_off_c, 0, 60, 92
1, 194229, Note_on_c, 0, 58, 90
1, 194728, Note_off_c, 0, 58, 90
1, 194750, Note_on_c, 0, 56, 93
1, 195327, Note_off_c, 0, 56, 93
1, 195377, Note_on_c, 0, 52, 95
1, 195791, Note_off_c, 0, 52, 95
1, 195858, Note_on_c, 0, 56, 92
1, 196452, Note_off_c, 0, 56, 92
1, 196474, Note_on_c, 0, 51, 87
1, 198885, Note_off_c, 0, 51, 87
1, 199000, Note_on_c, 0, 52, 89
1, 199257, Note_off_c, 0, 52, 89
1, 199319, Note_on_c, 0, 54, 91
1, 199599, Note_off_c, 0, 54, 91
1, 199667, Note_on_c, 0, 56, 93
1, 199986, Note_off_c, 0, 56, 93
1, 199999, Note_on_c, 0, 58, 97
1, 200238, Note_off_c, 0, 58, 97
1, 200238, Note_on_c, 0, 60, 95
1, 200540, Note_off_c, 0, 60, 95
1, 200568, Note_on_c, 0, 63, 104
1, 200949, Note_off_c, 0, 63, 104
1, 200999, Note_on_c, 0, 64, 104
1, 201273, Note_off_c, 0, 64, 104
1, 201327, Note_on_c, 0, 66, 98
1, 201611, Note_off_c, 0, 66, 98
1, 201669, Note_on_c, 0, 70, 102
1, 201893, Note_off_c, 0, 70, 102
1, 201893, Note_on_c, 0, 72, 99
1, 202324, Note_off_c, 0, 72, 99
1, 204712, Note_on_c, 0, 70, 91
1, 205295, Note_off_c, 0, 70, 91
1, 205334, Note_on_c, 0, 68, 104
1, 206079, Note_off_c, 0, 68, 104
1, 206151, Note_on_c, 0, 67, 102
1, 206773, Note_off_c, 0, 67, 102
1, 206817, Note_on_c, 0, 65, 99
1, 207422, Note_off_c, 0, 65, 99
1, 207478, Note_on_c, 0, 62, 98
1, 207888, Note_off_c, 0, 62, 98
1, 207888, Note_on_c, 0, 64, 100
1, 208250, Note_off_c, 0, 64, 100
1, 208305, Note_on_c, 0, 62, 96
1, 209014, Note_off_c, 0, 62, 96
1, 209033, Note_on_c, 0, 60, 91
1, 210184, Note_off_c, 0, 60, 91
1, 219952, Note_on_c, 0, 74, 93
1, 220215, Note_off_c, 0, 74, 93
1, 220272, Note_on_c, 0, 72, 106
1, 220600, Note_off_c, 0, 72, 106
1, 220602, Note_on_c, 0, 70, 101
1, 220862, Note_off_c, 0, 70, 101
1, 220963, Note_on_c, 0, 68, 107
1, 221277, Note_off_c, 0, 68, 107
1, 221303, Note_on_c, 0, 67, 104
1, 221815, Note_off_c, 0, 67, 104
1, 221878, Note_on_c, 0, 66, 103
1, 222414, Note_off_c, 0, 66, 103
1, 222442, Note_on_c, 0, 70, 101
1, 223009, Note_off_c, 0, 70, 101
1, 223028, Note_on_c, 0, 65, 101
1, 223524, Note_off_c, 0, 65, 101
1, 223606, Note_on_c, 0, 64, 107
1, 224099, Note_off_c, 0, 64, 107
1, 224145, Note_on_c, 0, 63, 106
1, 224633, Note_off_c, 0, 63, 106
1, 224680, Note_on_c, 0, 65, 97
1, 225176, Note_off_c, 0, 65, 97
1, 225231, Note_on_c, 0, 61, 90
1, 225412, Note_off_c, 0, 61, 90
1, 225459, Note_on_c, 0, 62, 104
1, 225912, Note_off_c, 0, 62, 104
1, 225971, Note_on_c, 0, 61, 98
1, 226152, Note_off_c, 0, 61, 98
1, 226191, Note_on_c, 0, 60, 100
1, 226419, Note_off_c, 0, 60, 100
1, 226765, Note_on_c, 0, 58, 92
1, 227163, Note_off_c, 0, 58, 92
1, 227190, Note_on_c, 0, 55, 91
1, 227805, Note_off_c, 0, 55, 91
1, 227864, Note_on_c, 0, 50, 86
1, 228278, Note_off_c, 0, 50, 86
1, 228289, Note_on_c, 0, 58, 95
1, 230153, Note_off_c, 0, 58, 95
1, 232029, Note_on_c, 0, 60, 90
1, 232297, Note_off_c, 0, 60, 90
1, 232353, Note_on_c, 0, 62, 107
1, 234008, Note_off_c, 0, 62, 107
1, 234042, Note_on_c, 0, 61, 92
1, 234153, Note_off_c, 0, 61, 92
1, 234174, Note_on_c, 0, 60, 93
1, 234492, Note_off_c, 0, 60, 93
1, 234524, Note_on_c, 0, 58, 87
1, 235136, Note_off_c, 0, 58, 87
1, 235145, Note_on_c, 0, 53, 86
1, 235690, Note_off_c, 0, 53, 86
1, 235805, Note_on_c, 0, 55, 86
1, 236092, Note_off_c, 0, 55, 86
1, 236105, Note_on_c, 0, 56, 90
1, 236345, Note_off_c, 0, 56, 90
1, 236387, Note_on_c, 0, 57, 93
1, 236703, Note_off_c, 0, 57, 93
1, 236703, Note_on_c, 0, 60, 97
1, 237306, Note_off_c, 0, 60, 97
1, 237499, Note_on_c, 0, 65, 93
1, 242072, Note_off_c, 0, 65, 93
1, 242119, Note_on_c, 0, 62, 96
1, 242513, Note_off_c, 0, 62, 96
1, 242544, Note_on_c, 0, 60, 90
1, 242867, Note_off_c, 0, 60, 90
1, 242953, Note_on_c, 0, 59, 85
1, 243260, Note_off_c, 0, 59, 85
1, 243748, Note_on_c, 0, 65, 102
1, 244721, Note_off_c, 0, 65, 102
1, 244877, Note_on_c, 0, 63, 98
1, 245056, Note_off_c, 0, 63, 98
1, 245083, Note_on_c, 0, 62, 100
1, 245303, Note_off_c, 0, 62, 100
1, 245366, Note_on_c, 0, 61, 91
1, 245614, Note_off_c, 0, 61, 91
1, 245653, Note_on_c, 0, 59, 89
1, 245889, Note_off_c, 0, 59, 89
1, 246235, Note_on_c, 0, 64, 104
1, 246992, Note_off_c, 0, 64, 104
1, 247043, Note_on_c, 0, 63, 100
1, 247337, Note_off_c, 0, 63, 100
1, 247353, Note_on_c, 0, 62, 97
1, 247532, Note_off_c, 0, 62, 97
1, 247568, Note_on_c, 0, 61, 92
1, 247806, Note_off_c, 0, 61, 92
1, 247834, Note_on_c, 0, 59, 88
1, 248075, Note_off_c, 0, 59, 88
1, 248128, Note_on_c, 0, 58, 88
1, 248439, Note_off_c, 0, 58, 88
1, 248458, Note_on_c, 0, 57, 88
1, 250098, Note_off_c, 0, 57, 88
1, 255582, Note_on_c, 0, 51, 94
1, 255912, Note_off_c, 0, 51, 94
1, 255920, Note_on_c, 0, 54, 95
1, 256242, Note_off_c, 0, 54, 95
1, 256306, Note_on_c, 0, 55, 92
1, 256524, Note_off_c, 0, 55, 92
1, 256540, Note_on_c, 0, 58, 95
1, 256811, Note_off_c, 0, 58, 95
1, 256875, Note_on_c, 0, 60, 104
1, 257214, Note_off_c, 0, 60, 104
1, 257236, Note_on_c, 0, 62, 106
1, 257449, Note_off_c, 0, 62, 106
1, 257488, Note_on_c, 0, 63, 109
1, 257734, Note_off_c, 0, 63, 109
1, 257742, Note_on_c, 0, 65, 103
1, 257999, Note_off_c, 0, 65, 103
1, 258013, Note_on_c, 0, 66, 105
1, 258321, Note_off_c, 0, 66, 105
1, 258377, Note_on_c, 0, 68, 107
1, 258584, Note_off_c, 0, 68, 107
1, 258628, Note_on_c, 0, 70, 105
1, 258978, Note_on_c, 0, 72, 106
1, 258978, Note_off_c, 0, 70, 105
1, 261066, Note_off_c, 0, 72, 106
1, 261071, Note_on_c, 0, 70, 102
1, 261298, Note_off_c, 0, 70, 102
1, 261309, Note_on_c, 0, 68, 102
1, 261625, Note_off_c, 0, 68, 102
1, 261641, Note_on_c, 0, 66, 100
1, 261862, Note_off_c, 0, 66, 100
1, 261892, Note_on_c, 0, 65, 99
1, 267522, Note_off_c, 0, 65, 99
1, 267545, Note_on_c, 0, 60, 96
1, 268081, Note_off_c, 0, 60, 96
1, 268213, Note_on_c, 0, 58, 95
1, 268745, Note_off_c, 0, 58, 95
1, 268806, Note_on_c, 0, 59, 89
1, 270931, Note_off_c, 0, 59, 89
1, 270970, Note_on_c, 0, 60, 91
1, 271872, Note_off_c, 0, 60, 91
1, 272769, Note_on_c, 0, 65, 103
1, 273178, Note_off_c, 0, 65, 103
1, 273206, Note_on_c, 0, 63, 106
1, 273620, Note_off_c, 0, 63, 106
1, 273620, Note_on_c, 0, 63, 80
1, 273620, Note_off_c, 0, 63, 80
1, 273687, Note_on_c, 0, 60, 94
1, 274152, Note_off_c, 0, 60, 94
1, 274236, Note_on_c, 0, 59, 89
1, 274707, Note_off_c, 0, 59, 89
1, 274779, Note_on_c, 0, 58, 91
1, 275250, Note_off_c, 0, 58, 91
1, 275265, Note_on_c, 0, 56, 90
1, 275615, Note_off_c, 0, 56, 90
1, 275688, Note_on_c, 0, 53, 88
1, 276596, Note_off_c, 0, 53, 88
1, 281927, Note_on_c, 0, 68, 105
1, 282534, Note_off_c, 0, 68, 105
1, 282550, Note_on_c, 0, 67, 102
1, 282984, Note_off_c, 0, 67, 102
1, 283021, Note_on_c, 0, 66, 103
1, 283730, Note_off_c, 0, 66, 103
1, 283810, Note_on_c, 0, 70, 102
1, 284435, Note_off_c, 0, 70, 102
1, 284435, Note_on_c, 0, 68, 104
1, 284726, Note_off_c, 0, 68, 104
1, 284754, Note_on_c, 0, 63, 103
1, 285300, Note_off_c, 0, 63, 103
1, 285353, Note_on_c, 0, 68, 108
1, 285902, Note_off_c, 0, 68, 108
1, 285946, Note_on_c, 0, 67, 101
1, 286596, Note_off_c, 0, 67, 101
1, 286632, Note_on_c, 0, 65, 103
1, 287004, Note_off_c, 0, 65, 103
1, 287023, Note_on_c, 0, 67, 99
1, 287398, Note_off_c, 0, 67, 99
1, 287484, Note_on_c, 0, 62, 103
1, 287681, Note_off_c, 0, 62, 103
1, 287716, Note_on_c, 0, 64, 105
1, 288144, Note_off_c, 0, 64, 105
1, 288155, Note_on_c, 0, 62, 105
1, 288724, Note_off_c, 0, 62, 105
1, 288780, Note_on_c, 0, 60, 100
1, 290664, Note_off_c, 0, 60, 100
1, 294715, Note_on_c, 0, 65, 106
1, 295514, Note_off_c, 0, 65, 106
1, 295557, Note_on_c, 0, 63, 94
1, 295796, Note_off_c, 0, 63, 94
1, 295802, Note_on_c, 0, 64, 110
1, 296480, Note_off_c, 0, 64, 110
1, 296486, Note_on_c, 0, 67, 105
1, 296973, Note_off_c, 0, 67, 105
1, 297113, Note_on_c, 0, 70, 104
1, 297592, Note_off_c, 0, 70, 104
1, 297611, Note_on_c, 0, 72, 101
1, 298114, Note_off_c, 0, 72, 101
1, 298133, Note_on_c, 0, 73, 103
1, 298638, Note_off_c, 0, 73, 103
1, 298697, Note_on_c, 0, 76, 112
1, 299249, Note_off_c, 0, 76, 112
1, 299588, Note_on_c, 0, 70, 103
1, 301219, Note_off_c, 0, 70, 103
1, 302705, Note_on_c, 0, 69, 104
1, 303190, Note_off_c, 0, 69, 104
1, 303215, Note_on_c, 0, 70, 105
1, 303770, Note_off_c, 0, 70, 105
1, 303775, Note_on_c, 0, 72, 103
1, 304304, Note_off_c, 0, 72, 103
1, 304410, Note_on_c, 0, 73, 99
1, 304701, Note_off_c, 0, 73, 99
1, 304720, Note_on_c, 0, 75, 97
1, 305191, Note_off_c, 0, 75, 97
1, 305678, Note_on_c, 0, 72, 104
1, 306278, Note_off_c, 0, 72, 104
1, 306294, Note_on_c, 0, 70, 103
1, 306843, Note_off_c, 0, 70, 103
1, 307072, Note_on_c, 0, 68, 106
1, 307700, Note_off_c, 0, 68, 106
1, 307781, Note_on_c, 0, 65, 101
1, 308183, Note_off_c, 0, 65, 101
1, 308261, Note_on_c, 0, 63, 105
1, 308883, Note_off_c, 0, 63, 105
1, 308922, Note_on_c, 0, 60, 98
1, 309458, Note_off_c, 0, 60, 98
1, 309592, Note_on_c, 0, 58, 91
1, 310136, Note_off_c, 0, 58, 91
1, 310183, Note_on_c, 0, 56, 88
1, 310704, Note_off_c, 0, 56, 88
1, 310748, Note_on_c, 0, 53, 93
1, 311547, Note_off_c, 0, 53, 93
1, 311572, Note_on_c, 0, 48, 90
1, 312149, Note_off_c, 0, 48, 90
1, 312251, Note_on_c, 0, 51, 91
1, 313015, Note_off_c, 0, 51, 91
1, 313019, Note_on_c, 0, 48, 84
1, 313380, Note_off_c, 0, 48, 84
1, 313382, Note_on_c, 0, 53, 92
1, 314217, Note_off_c, 0, 53, 92
1, 314295, Note_on_c, 0, 51, 89
1, 314691, Note_off_c, 0, 51, 89
1, 314702, Note_on_c, 0, 56, 95
1, 315380, Note_off_c, 0, 56, 95
1, 315391, Note_on_c, 0, 53, 92
1, 315753, Note_off_c, 0, 53, 92
1, 315926, Note_on_c, 0, 58, 97
1, 316529, Note_off_c, 0, 58, 97
1, 316635, Note_on_c, 0, 53, 86
1, 317080, Note_off_c, 0, 53, 86
1, 317160, Note_on_c, 0, 60, 106
1, 318935, Note_off_c, 0, 60, 106
1, 318958, Note_on_c, 0, 58, 94
1, 319443, Note_off_c, 0, 58, 94
1, 319450, Note_on_c, 0, 56, 89
1, 319920, Note_off_c, 0, 56, 89
1, 319946, Note_on_c, 0, 58, 86
1, 321276, Note_off_c, 0, 58, 86
1, 325748, Note_on_c, 0, 53, 92
1, 326118, Note_off_c, 0, 53, 92
1, 326162, Note_on_c, 0, 55, 89
1, 326677, Note_off_c, 0, 55, 89
1, 326766, Note_on_c, 0, 57, 94
1, 327203, Note_off_c, 0, 57, 94
1, 327259, Note_on_c, 0, 58, 95
1, 327909, Note_off_c, 0, 58, 95
1, 328009, Note_on_c, 0, 60, 103
1, 328536, Note_off_c, 0, 60, 103
1, 328567, Note_on_c, 0, 61, 102
1, 328977, Note_off_c, 0, 61, 102
1, 329055, Note_on_c, 0, 63, 111
1, 329677, Note_off_c, 0, 63, 111
1, 329700, Note_on_c, 0, 65, 106
1, 330333, Note_off_c, 0, 65, 106
1, 330354, Note_on_c, 0, 67, 104
1, 330835, Note_off_c, 0, 67, 104
1, 330882, Note_on_c, 0, 69, 105
1, 331434, Note_off_c, 0, 69, 105
1, 331481, Note_on_c, 0, 70, 104
1, 331922, Note_off_c, 0, 70, 104
1, 332458, Note_on_c, 0, 72, 100
1, 332639, Note_off_c, 0, 72, 100
1, 332662, Note_on_c, 0, 73, 105
1, 333072, Note_off_c, 0, 73, 105
1, 333459, Note_on_c, 0, 71, 104
1, 333980, Note_off_c, 0, 71, 104
1, 334041, Note_on_c, 0, 69, 103
1, 334607, Note_off_c, 0, 69, 103
1, 334651, Note_on_c, 0, 68, 103
1, 335267, Note_off_c, 0, 68, 103
1, 335306, Note_on_c, 0, 66, 101
1, 336085, Note_off_c, 0, 66, 101
1, 336101, Note_on_c, 0, 65, 98
1, 336577, Note_off_c, 0, 65, 98
1, 336655, Note_on_c, 0, 64, 104
1, 337176, Note_off_c, 0, 64, 104
1, 337215, Note_on_c, 0, 63, 101
1, 337697, Note_off_c, 0, 63, 101
1, 337747, Note_on_c, 0, 59, 88
1, 338408, Note_off_c, 0, 59, 88
1, 338475, Note_on_c, 0, 56, 83
1, 339103, Note_off_c, 0, 56, 83
1, 339237, Note_on_c, 0, 51, 87
1, 339595, Note_off_c, 0, 51, 87
1, 339617, Note_on_c, 0, 58, 87
1, 342297, Note_off_c, 0, 58, 87
1, 344448, Note_on_c, 0, 68, 107
1, 345031, Note_off_c, 0, 68, 107
1, 345086, Note_on_c, 0, 67, 104
1, 345322, Note_off_c, 0, 67, 104
1, 345441, Note_on_c, 0, 65, 103
1, 346125, Note_off_c, 0, 65, 103
1, 346153, Note_on_c, 0, 62, 102
1, 346388, Note_off_c, 0, 62, 102
1, 346503, Note_on_c, 0, 64, 109
1, 347244, Note_off_c, 0, 64, 109
1, 347267, Note_on_c, 0, 65, 105
1, 348074, Note_off_c, 0, 65, 105
1, 348173, Note_on_c, 0, 67, 105
1, 348819, Note_off_c, 0, 67, 105
1, 348857, Note_on_c, 0, 64, 106
1, 349771, Note_off_c, 0, 64, 106
1, 349838, Note_on_c, 0, 60, 95
1, 350875, Note_off_c, 0, 60, 95
1, 355624, Note_on_c, 0, 63, 107
1, 356201, Note_off_c, 0, 63, 107
1, 356229, Note_on_c, 0, 61, 97
1, 356531, Note_off_c, 0, 61, 97
1, 356564, Note_on_c, 0, 56, 92
1, 356945, Note_off_c, 0, 56, 92
1, 357057, Note_on_c, 0, 52, 92
1, 357371, Note_off_c, 0, 52, 92
1, 357421, Note_on_c, 0, 58, 97
1, 358284, Note_off_c, 0, 58, 97
1, 359242, Note_on_c, 0, 60, 97
1, 359853, Note_off_c, 0, 60, 97
1, 360133, Note_on_c, 0, 61, 101
1, 361546, Note_off_c, 0, 61, 101
1, 361781, Note_on_c, 0, 63, 110
1, 362386, Note_off_c, 0, 63, 110
1, 362694, Note_on_c, 0, 64, 113
1, 363400, Note_off_c, 0, 64, 113
1, 363453, Note_on_c, 0, 66, 102
1, 363579, Note_off_c, 0, 66, 102
1, 363610, Note_on_c, 0, 68, 106
1, 364106, Note_off_c, 0, 68, 106
1, 364110, Note_on_c, 0, 67, 97
1, 368674, Note_off_c, 0, 67, 97
1, 368690, Note_on_c, 0, 65, 92
1, 369144, Note_off_c, 0, 65, 92
1, 369174, Note_on_c, 0, 63, 94
1, 369741, Note_off_c, 0, 63, 94
1, 369811, Note_on_c, 0, 60, 91
1, 370331, Note_off_c, 0, 60, 91
1, 370425, Note_on_c, 0, 58, 86
1, 370945, Note_off_c, 0, 58, 86
1, 371031, Note_on_c, 0, 56, 85
1, 371401, Note_off_c, 0, 56, 85
1, 371503, Note_on_c, 0, 53, 88
1, 372062, Note_off_c, 0, 53, 88
1, 372101, Note_on_c, 0, 48, 88
1, 372787, Note_off_c, 0, 48, 88
1, 372796, Note_on_c, 0, 51, 90
1, 373317, Note_off_c, 0, 51, 90
1, 373448, Note_on_c, 0, 56, 84
1, 374039, Note_off_c, 0, 56, 84
1, 374106, Note_on_c, 0, 53, 89
1, 375053, Note_off_c, 0, 53, 89
1, 378431, Note_on_c, 0, 62, 103
1, 378960, Note_off_c, 0, 62, 103
1, 378993, Note_on_c, 0, 63, 103
1, 379155, Note_off_c, 0, 63, 103
1, 379484, Note_on_c, 0, 70, 97
1, 379965, Note_off_c, 0, 70, 97
1, 380272, Note_on_c, 0, 74, 89
1, 380713, Note_off_c, 0, 74, 89
1, 380756, Note_on_c, 0, 74, 102
1, 381185, Note_off_c, 0, 74, 102
1, 381207, Note_on_c, 0, 77, 97
1, 389966, Note_off_c, 0, 77, 97
1, 389999, Note_on_c, 0, 79, 108
1, 391053, Note_off_c, 0, 79, 108
1, 394585, Note_on_c, 0, 62, 102
1, 395056, Note_off_c, 0, 62, 102
1, 395246, Note_on_c, 0, 67, 105
1, 395918, Note_off_c, 0, 67, 105
1, 395951, Note_on_c, 0, 62, 98
1, 396377, Note_off_c, 0, 62, 98
1, 396410, Note_on_c, 0, 69, 103
1, 397228, Note_off_c, 0, 69, 103
1, 397306, Note_on_c, 0, 62, 82
1, 397620, Note_off_c, 0, 62, 82
1, 397642, Note_on_c, 0, 70, 101
1, 398314, Note_off_c, 0, 70, 101
1, 398392, Note_on_c, 0, 69, 85
1, 398683, Note_off_c, 0, 69, 85
1, 398800, Note_on_c, 0, 72, 100
1, 402190, Note_off_c, 0, 72, 100
1, 402225, Note_on_c, 0, 73, 96
1, 402550, Note_off_c, 0, 73, 96
1, 402628, Note_on_c, 0, 72, 95
1, 402807, Note_off_c, 0, 72, 95
1, 402829, Note_on_c, 0, 70, 94
1, 403002, Note_on_c, 0, 67, 100
1, 403002, Note_off_c, 0, 70, 94
1, 403254, Note_off_c, 0, 67, 100
1, 403293, Note_on_c, 0, 65, 97
1, 403489, Note_off_c, 0, 65, 97
1, 403500, Note_on_c, 0, 62, 106
1, 403713, Note_off_c, 0, 62, 106
1, 403813, Note_on_c, 0, 60, 98
1, 403953, Note_off_c, 0, 60, 98
1, 404009, Note_on_c, 0, 58, 103
1, 404250, Note_off_c, 0, 58, 103
1, 404283, Note_on_c, 0, 55, 97
1, 404535, Note_off_c, 0, 55, 97
1, 404596, Note_on_c, 0, 53, 98
1, 404814, Note_off_c, 0, 53, 98
1, 404842, Note_on_c, 0, 50, 97
1, 405324, Note_off_c, 0, 50, 97
1, 407736, Note_on_c, 0, 54, 99
1, 408169, Note_off_c, 0, 54, 99
1, 408172, Note_on_c, 0, 57, 96
1, 408420, Note_off_c, 0, 57, 96
1, 408435, Note_on_c, 0, 59, 93
1, 408671, Note_off_c, 0, 59, 93
1, 408702, Note_on_c, 0, 61, 98
1, 408851, Note_off_c, 0, 61, 98
1, 408886, Note_on_c, 0, 64, 101
1, 409229, Note_off_c, 0, 64, 101
1, 409299, Note_on_c, 0, 66, 102
1, 409460, Note_off_c, 0, 66, 102
1, 409487, Note_on_c, 0, 69, 105
1, 409735, Note_off_c, 0, 69, 105
1, 409766, Note_on_c, 0, 71, 103
1, 410085, Note_off_c, 0, 71, 103
1, 410100, Note_on_c, 0, 73, 102
1, 410399, Note_off_c, 0, 73, 102
1, 410430, Note_on_c, 0, 76, 104
1, 411155, Note_off_c, 0, 76, 104
1, 411198, Note_on_c, 0, 70, 103
1, 411347, Note_off_c, 0, 70, 103
1, 411382, Note_on_c, 0, 69, 100
1, 411539, Note_off_c, 0, 69, 100
1, 411562, Note_on_c, 0, 71, 104
1, 413143, Note_off_c, 0, 71, 104
1, 413190, Note_on_c, 0, 72, 101
1, 413466, Note_off_c, 0, 72, 101
1, 413501, Note_on_c, 0, 70, 93
1, 413694, Note_off_c, 0, 70, 93
1, 413764, Note_on_c, 0, 69, 97
1, 413980, Note_off_c, 0, 69, 97
1, 414043, Note_on_c, 0, 66, 92
1, 414322, Note_off_c, 0, 66, 92
1, 414433, Note_on_c, 0, 64, 99
1, 414556, Note_off_c, 0, 64, 99
1, 414600, Note_on_c, 0, 62, 98
1, 414745, Note_off_c, 0, 62, 98
1, 414756, Note_on_c, 0, 61, 89
1, 414870, Note_off_c, 0, 61, 89
1, 414935, Note_on_c, 0, 59, 92
1, 415083, Note_on_c, 0, 57, 93
1, 415083, Note_off_c, 0, 59, 92
1, 415429, Note_off_c, 0, 57, 93
1, 415449, Note_on_c, 0, 54, 94
1, 415725, Note_off_c, 0, 54, 94
1, 415750, Note_on_c, 0, 53, 95
1, 416054, Note_off_c, 0, 53, 95
1, 416073, Note_on_c, 0, 52, 95
1, 416388, Note_off_c, 0, 52, 95
1, 416436, Note_on_c, 0, 50, 100
1, 416633, Note_off_c, 0, 50, 100
1, 416664, Note_on_c, 0, 53, 99
1, 416809, Note_off_c, 0, 53, 99
1, 416822, Note_on_c, 0, 54, 100
1, 417174, Note_off_c, 0, 54, 100
1, 417180, Note_on_c, 0, 56, 94
1, 417385, Note_off_c, 0, 56, 94
1, 417388, Note_on_c, 0, 58, 92
1, 417751, Note_off_c, 0, 58, 92
1, 417760, Note_on_c, 0, 60, 97
1, 417937, Note_off_c, 0, 60, 97
1, 417952, Note_on_c, 0, 62, 100
1, 418359, Note_off_c, 0, 62, 100
1, 418361, Note_on_c, 0, 64, 105
1, 418597, Note_off_c, 0, 64, 105
1, 418606, Note_on_c, 0, 62, 107
1, 418866, Note_off_c, 0, 62, 107
1, 418867, Note_on_c, 0, 63, 107
1, 418997, Note_off_c, 0, 63, 107
1, 419011, Note_on_c, 0, 65, 101
1, 419355, Note_off_c, 0, 65, 101
1, 419370, Note_on_c, 0, 66, 102
1, 419649, Note_off_c, 0, 66, 102
1, 419664, Note_on_c, 0, 68, 102
1, 419935, Note_off_c, 0, 68, 102
1, 419937, Note_on_c, 0, 70, 101
1, 420186, Note_off_c, 0, 70, 101
1, 420232, Note_on_c, 0, 72, 102
1, 420471, Note_off_c, 0, 72, 102
1, 420482, Note_on_c, 0, 74, 91
1, 420835, Note_off_c, 0, 74, 91
1, 420846, Note_on_c, 0, 71, 100
1, 421161, Note_off_c, 0, 71, 100
1, 421161, Note_on_c, 0, 66, 101
1, 421515, Note_off_c, 0, 66, 101
1, 421522, Note_on_c, 0, 65, 101
1, 421965, Note_off_c, 0, 65, 101
1, 421974, Note_on_c, 0, 71, 101
1, 422206, Note_off_c, 0, 71, 101
1, 422208, Note_on_c, 0, 68, 102
1, 422437, Note_off_c, 0, 68, 102
1, 422443, Note_on_c, 0, 63, 100
1, 422567, Note_off_c, 0, 63, 100
1, 422582, Note_on_c, 0, 62, 106
1, 422873, Note_off_c, 0, 62, 106
1, 422878, Note_on_c, 0, 68, 101
1, 423140, Note_off_c, 0, 68, 101
1, 423180, Note_on_c, 0, 66, 94
1, 423291, Note_off_c, 0, 66, 94
1, 423325, Note_on_c, 0, 65, 98
1, 423498, Note_off_c, 0, 65, 98
1, 423509, Note_on_c, 0, 61, 94
1, 423738, Note_off_c, 0, 61, 94
1, 423771, Note_on_c, 0, 59, 92
1, 424017, Note_off_c, 0, 59, 92
1, 424171, Note_on_c, 0, 62, 105
1, 424695, Note_off_c, 0, 62, 105
1, 424725, Note_on_c, 0, 57, 97
1, 425058, Note_off_c, 0, 57, 97
1, 425100, Note_on_c, 0, 56, 95
1, 425321, Note_off_c, 0, 56, 95
1, 425360, Note_on_c, 0, 60, 99
1, 425637, Note_off_c, 0, 60, 99
1, 425648, Note_on_c, 0, 59, 101
1, 425894, Note_off_c, 0, 59, 101
1, 425960, Note_on_c, 0, 58, 100
1, 426141, Note_off_c, 0, 58, 100
1, 426187, Note_on_c, 0, 57, 102
1, 426393, Note_off_c, 0, 57, 102
1, 426453, Note_on_c, 0, 54, 100
1, 426699, Note_off_c, 0, 54, 100
1, 426729, Note_on_c, 0, 53, 96
1, 427186, Note_off_c, 0, 53, 96
1, 427253, Note_on_c, 0, 51, 102
1, 427595, Note_off_c, 0, 51, 102
1, 427625, Note_on_c, 0, 48, 101
1, 428096, Note_off_c, 0, 48, 101
1, 428170, Note_on_c, 0, 51, 97
1, 428714, Note_off_c, 0, 51, 97
1, 428745, Note_on_c, 0, 53, 94
1, 429573, Note_off_c, 0, 53, 94
1, 429605, Note_on_c, 0, 56, 91
1, 430221, Note_off_c, 0, 56, 91
1, 430349, Note_on_c, 0, 58, 93
1, 432608, Note_off_c, 0, 58, 93
1, 432652, Note_on_c, 0, 56, 90
1, 433263, Note_off_c, 0, 56, 90
1, 433386, Note_on_c, 0, 53, 88
1, 433924, Note_off_c, 0, 53, 88
1, 438208, Note_on_c, 0, 67, 105
1, 438735, Note_off_c, 0, 67, 105
1, 438799, Note_on_c, 0, 68, 109
1, 439406, Note_off_c, 0, 68, 109
1, 439534, Note_on_c, 0, 66, 89
1, 439857, Note_off_c, 0, 66, 89
1, 439943, Note_on_c, 0, 67, 103
1, 440534, Note_off_c, 0, 67, 103
1, 440664, Note_on_c, 0, 79, 102
1, 441365, Note_off_c, 0, 79, 102
1, 441428, Note_on_c, 0, 79, 101
1, 442082, Note_off_c, 0, 79, 101
1, 442093, Note_on_c, 0, 75, 106
1, 442589, Note_off_c, 0, 75, 106
1, 442592, Note_on_c, 0, 71, 101
1, 443317, Note_off_c, 0, 71, 101
1, 443537, Note_on_c, 0, 63, 90
1, 443675, Note_off_c, 0, 63, 90
1, 443852, Note_on_c, 0, 68, 107
1, 444419, Note_off_c, 0, 68, 107
1, 444478, Note_on_c, 0, 70, 104
1, 444872, Note_off_c, 0, 70, 104
1, 444907, Note_on_c, 0, 71, 103
1, 445593, Note_off_c, 0, 71, 103
1, 445620, Note_on_c, 0, 73, 98
1, 446061, Note_off_c, 0, 73, 98
1, 446104, Note_on_c, 0, 75, 86
1, 446561, Note_off_c, 0, 75, 86
1, 446564, Note_on_c, 0, 73, 97
1, 446989, Note_off_c, 0, 73, 97
1, 446989, Note_on_c, 0, 71, 103
1, 447300, Note_off_c, 0, 71, 103
1, 447502, Note_on_c, 0, 70, 103
1, 448062, Note_off_c, 0, 70, 103
1, 448123, Note_on_c, 0, 68, 107
1, 448622, Note_off_c, 0, 68, 107
1, 448694, Note_on_c, 0, 67, 100
1, 449170, Note_off_c, 0, 67, 100
1, 449287, Note_on_c, 0, 65, 99
1, 449864, Note_off_c, 0, 65, 99
1, 449953, Note_on_c, 0, 64, 108
1, 450418, Note_off_c, 0, 64, 108
1, 450485, Note_on_c, 0, 65, 99
1, 450759, Note_off_c, 0, 65, 99
1, 450787, Note_on_c, 0, 66, 99
1, 451039, Note_off_c, 0, 66, 99
1, 451089, Note_on_c, 0, 67, 103
1, 451548, Note_off_c, 0, 67, 103
1, 451570, Note_on_c, 0, 69, 103
1, 452102, Note_off_c, 0, 69, 103
1, 452169, Note_on_c, 0, 70, 104
1, 452724, Note_off_c, 0, 70, 104
1, 452752, Note_on_c, 0, 72, 99
1, 453295, Note_off_c, 0, 72, 99
1, 453339, Note_on_c, 0, 73, 98
1, 453731, Note_off_c, 0, 73, 98
1, 454179, Note_on_c, 0, 75, 96
1, 454644, Note_off_c, 0, 75, 96
1, 454683, Note_on_c, 0, 72, 98
1, 455165, Note_off_c, 0, 72, 98
1, 455355, Note_on_c, 0, 65, 90
1, 455719, Note_off_c, 0, 65, 90
1, 455765, Note_on_c, 0, 67, 103
1, 456321, Note_off_c, 0, 67, 103
1, 456321, Note_on_c, 0, 72, 101
1, 456923, Note_off_c, 0, 72, 101
1, 456937, Note_on_c, 0, 69, 102
1, 457577, Note_off_c, 0, 69, 102
1, 457582, Note_on_c, 0, 68, 101
1, 458196, Note_off_c, 0, 68, 101
1, 458254, Note_on_c, 0, 67, 101
1, 458511, Note_off_c, 0, 67, 101
1, 458851, Note_on_c, 0, 72, 102
1, 459230, Note_off_c, 0, 72, 102
1, 459260, Note_on_c, 0, 69, 101
1, 459784, Note_off_c, 0, 69, 101
1, 459924, Note_on_c, 0, 66, 100
1, 460511, Note_off_c, 0, 66, 100
1, 460536, Note_on_c, 0, 61, 94
1, 461005, Note_on_c, 0, 68, 96
1, 461005, Note_off_c, 0, 61, 94
1, 461588, Note_off_c, 0, 68, 96
1, 461655, Note_on_c, 0, 63, 103
1, 462206, Note_off_c, 0, 63, 103
1, 462462, Note_on_c, 0, 61, 92
1, 462726, Note_off_c, 0, 61, 92
1, 462726, Note_on_c, 0, 56, 9
1, 463738, Note_off_c, 0, 56, 9
1, 463850, Note_on_c, 0, 54, 92
1, 464018, Note_off_c, 0, 54, 92
1, 464132, Note_on_c, 0, 65, 102
1, 464534, Note_off_c, 0, 65, 102
1, 464574, Note_on_c, 0, 63, 105
1, 464848, Note_off_c, 0, 63, 105
1, 464887, Note_on_c, 0, 60, 99
1, 465276, Note_off_c, 0, 60, 99
1, 465287, Note_on_c, 0, 59, 95
1, 466273, Note_off_c, 0, 59, 95
1, 466348, Note_on_c, 0, 54, 88
1, 466645, Note_off_c, 0, 54, 88
1, 466776, Note_on_c, 0, 58, 93
1, 467704, Note_off_c, 0, 58, 93
1, 469871, Note_on_c, 0, 53, 96
1, 470656, Note_off_c, 0, 53, 96
1, 470684, Note_on_c, 0, 56, 99
1, 471581, Note_off_c, 0, 56, 99
1, 471668, Note_on_c, 0, 58, 98
1, 472425, Note_off_c, 0, 58, 98
1, 472461, Note_on_c, 0, 56, 100
1, 473189, Note_off_c, 0, 56, 100
1, 473204, Note_on_c, 0, 53, 99
1, 474796, Note_off_c, 0, 53, 99
1, 477118, Note_on_c, 0, 44, 105
1, 477432, Note_off_c, 0, 44, 105
1, 477510, Note_on_c, 0, 47, 98
1, 477779, Note_off_c, 0, 47, 98
1, 477851, Note_on_c, 0, 51, 95
1, 478086, Note_off_c, 0, 51, 95
1, 478119, Note_on_c, 0, 54, 96
1, 478304, Note_off_c, 0, 54, 96
1, 478343, Note_on_c, 0, 58, 94
1, 478645, Note_off_c, 0, 58, 94
1, 478712, Note_on_c, 0, 56, 98
1, 478975, Note_off_c, 0, 56, 98
1, 479025, Note_on_c, 0, 53, 101
1, 479266, Note_off_c, 0, 53, 101
1, 479378, Note_on_c, 0, 52, 101
1, 479607, Note_off_c, 0, 52, 101
1, 479685, Note_on_c, 0, 51, 98
1, 479909, Note_off_c, 0, 51, 98
1, 479970, Note_on_c, 0, 53, 96
1, 480166, Note_off_c, 0, 53, 96
1, 480205, Note_on_c, 0, 56, 95
1, 480423, Note_off_c, 0, 56, 95
1, 480462, Note_on_c, 0, 59, 95
1, 480624, Note_off_c, 0, 59, 95
1, 480663, Note_on_c, 0, 63, 102
1, 481005, Note_off_c, 0, 63, 102
1, 481094, Note_on_c, 0, 61, 98
1, 481329, Note_off_c, 0, 61, 98
1, 481401, Note_on_c, 0, 59, 102
1, 481580, Note_off_c, 0, 59, 102
1, 481636, Note_on_c, 0, 56, 99
1, 481961, Note_off_c, 0, 56, 99
1, 482000, Note_on_c, 0, 53, 99
1, 482235, Note_off_c, 0, 53, 99
1, 482285, Note_on_c, 0, 55, 95
1, 482554, Note_off_c, 0, 55, 95
1, 482576, Note_on_c, 0, 59, 94
1, 482800, Note_off_c, 0, 59, 94
1, 482814, Note_on_c, 0, 63, 100
1, 483161, Note_off_c, 0, 63, 100
1, 483191, Note_on_c, 0, 58, 102
1, 483476, Note_off_c, 0, 58, 102
1, 483512, Note_on_c, 0, 55, 99
1, 483739, Note_off_c, 0, 55, 99
1, 483783, Note_on_c, 0, 56, 99
1, 484054, Note_off_c, 0, 56, 99
1, 484115, Note_on_c, 0, 58, 97
1, 484384, Note_off_c, 0, 58, 97
1, 484409, Note_on_c, 0, 60, 100
1, 484843, Note_off_c, 0, 60, 100
1, 484949, Note_on_c, 0, 63, 105
1, 485220, Note_off_c, 0, 63, 105
1, 485259, Note_on_c, 0, 65, 101
1, 485679, Note_off_c, 0, 65, 101
1, 485693, Note_on_c, 0, 68, 102
1, 485953, Note_off_c, 0, 68, 102
1, 485972, Note_on_c, 0, 70, 101
1, 486316, Note_off_c, 0, 70, 101
1, 486330, Note_on_c, 0, 72, 104
1, 486590, Note_off_c, 0, 72, 104
1, 486606, Note_on_c, 0, 74, 100
1, 486925, Note_off_c, 0, 74, 100
1, 486964, Note_on_c, 0, 73, 102
1, 487084, Note_off_c, 0, 73, 102
1, 487112, Note_on_c, 0, 72, 102
1, 487277, Note_off_c, 0, 72, 102
1, 487302, Note_on_c, 0, 71, 104
1, 487559, Note_off_c, 0, 71, 104
1, 487581, Note_on_c, 0, 70, 99
1, 489880, Note_off_c, 0, 70, 99
1, 490160, Note_on_c, 0, 69, 101
1, 490437, Note_off_c, 0, 69, 101
1, 490467, Note_on_c, 0, 68, 104
1, 491170, Note_off_c, 0, 68, 104
1, 491217, Note_on_c, 0, 67, 101
1, 491654, Note_off_c, 0, 67, 101
1, 491799, Note_on_c, 0, 65, 101
1, 492219, Note_off_c, 0, 65, 101
1, 492286, Note_on_c, 0, 63, 106
1, 492801, Note_off_c, 0, 63, 106
1, 492851, Note_on_c, 0, 62, 103
1, 493436, Note_off_c, 0, 62, 103
1, 493503, Note_on_c, 0, 60, 95
1, 493856, Note_off_c, 0, 60, 95
1, 493870, Note_on_c, 0, 58, 92
1, 494632, Note_off_c, 0, 58, 92
1, 499328, Note_on_c, 0, 64, 101
1, 499986, Note_off_c, 0, 64, 101
1, 500204, Note_on_c, 0, 73, 102
1, 500986, Note_off_c, 0, 73, 102
1, 501005, Note_on_c, 0, 72, 100
1, 501117, Note_off_c, 0, 72, 100
1, 501147, Note_on_c, 0, 71, 100
1, 501427, Note_off_c, 0, 71, 100
1, 501474, Note_on_c, 0, 70, 100
1, 501852, Note_off_c, 0, 70, 100
1, 501894, Note_on_c, 0, 69, 103
1, 502530, Note_off_c, 0, 69, 103
1, 503174, Note_on_c, 0, 78, 96
1, 505445, Note_off_c, 0, 78, 96
1, 509824, Note_on_c, 0, 72, 106
1, 510278, Note_off_c, 0, 72, 106
1, 510322, Note_on_c, 0, 76, 110
1, 511146, Note_off_c, 0, 76, 110
1, 511269, Note_on_c, 0, 79, 97
1, 511655, Note_off_c, 0, 79, 97
1, 511750, Note_on_c, 0, 80, 108
1, 512002, Note_off_c, 0, 80, 108
1, 512046, Note_on_c, 0, 79, 115
1, 513436, Note_off_c, 0, 79, 115
1, 513621, Note_on_c, 0, 76, 106
1, 514204, Note_off_c, 0, 76, 106
1, 514551, Note_on_c, 0, 72, 105
1, 514797, Note_off_c, 0, 72, 105
1, 515430, Note_on_c, 0, 68, 103
1, 516293, Note_off_c, 0, 68, 103
1, 516399, Note_on_c, 0, 67, 102
1, 516701, Note_off_c, 0, 67, 102
1, 516824, Note_on_c, 0, 65, 101
1, 517227, Note_off_c, 0, 65, 101
1, 517339, Note_on_c, 0, 64, 104
1, 517748, Note_off_c, 0, 64, 104
1, 517792, Note_on_c, 0, 67, 91
1, 518052, Note_off_c, 0, 67, 91
1, 518077, Note_on_c, 0, 70, 99
1, 518665, Note_off_c, 0, 70, 99
1, 519007, Note_on_c, 0, 75, 104
1, 519595, Note_off_c, 0, 75, 104
1, 519774, Note_on_c, 0, 79, 110
1, 520155, Note_off_c, 0, 79, 110
1, 520205, Note_on_c, 0, 80, 108
1, 521029, Note_off_c, 0, 80, 108
1, 521393, Note_on_c, 0, 78, 97
1, 521880, Note_off_c, 0, 78, 97
1, 521958, Note_on_c, 0, 76, 105
1, 522558, Note_off_c, 0, 76, 105
1, 522664, Note_on_c, 0, 75, 104
1, 523146, Note_off_c, 0, 75, 104
1, 523202, Note_on_c, 0, 73, 98
1, 523675, Note_off_c, 0, 73, 98
1, 523722, Note_on_c, 0, 72, 103
1, 524234, Note_off_c, 0, 72, 103
1, 524344, Note_on_c, 0, 71, 99
1, 524872, Note_off_c, 0, 71, 99
1, 524949, Note_on_c, 0, 70, 102
1, 525380, Note_off_c, 0, 70, 102
1, 525475, Note_on_c, 0, 69, 99
1, 525923, Note_off_c, 0, 69, 99
1, 526139, Note_on_c, 0, 68, 102
1, 526667, Note_off_c, 0, 68, 102
1, 526682, Note_on_c, 0, 67, 101
1, 527186, Note_off_c, 0, 67, 101
1, 527227, Note_on_c, 0, 65, 102
1, 527972, Note_off_c, 0, 65, 102
1, 528117, Note_on_c, 0, 62, 94
1, 528302, Note_off_c, 0, 62, 94
1, 528382, Note_on_c, 0, 64, 109
1, 528981, Note_off_c, 0, 64, 109
1, 529002, Note_on_c, 0, 65, 102
1, 529484, Note_off_c, 0, 65, 102
1, 529741, Note_on_c, 0, 67, 101
1, 529959, Note_off_c, 0, 67, 101
1, 530015, Note_on_c, 0, 68, 103
1, 530671, Note_off_c, 0, 68, 103
1, 530710, Note_on_c, 0, 65, 103
1, 531186, Note_off_c, 0, 65, 103
1, 531219, Note_on_c, 0, 67, 101
1, 531751, Note_off_c, 0, 67, 101
1, 531863, Note_on_c, 0, 68, 103
1, 532390, Note_off_c, 0, 68, 103
1, 532462, Note_on_c, 0, 70, 99
1, 533101, Note_off_c, 0, 70, 99
1, 533123, Note_on_c, 0, 71, 91
1, 533425, Note_off_c, 0, 71, 91
1, 533576, Note_on_c, 0, 74, 98
1, 533946, Note_off_c, 0, 74, 98
1, 533996, Note_on_c, 0, 77, 98
1, 535683, Note_off_c, 0, 77, 98
1, 537315, Note_on_c, 0, 76, 110
1, 538079, Note_off_c, 0, 76, 110
1, 538102, Note_on_c, 0, 75, 106
1, 538630, Note_off_c, 0, 75, 106
1, 538677, Note_on_c, 0, 74, 100
1, 539292, Note_off_c, 0, 74, 100
1, 539339, Note_on_c, 0, 72, 99
1, 539804, Note_off_c, 0, 72, 99
1, 539906, Note_on_c, 0, 71, 103
1, 540418, Note_off_c, 0, 71, 103
1, 540418, Note_on_c, 0, 70, 104
1, 540970, Note_off_c, 0, 70, 104
1, 541222, Note_on_c, 0, 66, 102
1, 541639, Note_off_c, 0, 66, 102
1, 541702, Note_on_c, 0, 65, 98
1, 542080, Note_off_c, 0, 65, 98
1, 542403, Note_on_c, 0, 63, 110
1, 542836, Note_off_c, 0, 63, 110
1, 542922, Note_on_c, 0, 62, 107
1, 543466, Note_off_c, 0, 62, 107
1, 543639, Note_on_c, 0, 60, 97
1, 544175, Note_off_c, 0, 60, 97
1, 544253, Note_on_c, 0, 59, 90
1, 544828, Note_off_c, 0, 59, 90
1, 545364, Note_on_c, 0, 57, 94
1, 545848, Note_off_c, 0, 57, 94
1, 545891, Note_on_c, 0, 58, 94
1, 546245, Note_off_c, 0, 58, 94
1, 546260, Note_on_c, 0, 60, 96
1, 546575, Note_off_c, 0, 60, 96
1, 546590, Note_on_c, 0, 62, 105
1, 547244, Note_off_c, 0, 62, 105
1, 547244, Note_on_c, 0, 64, 108
1, 547859, Note_off_c, 0, 64, 108
1, 547914, Note_on_c, 0, 65, 103
1, 548513, Note_off_c, 0, 65, 103
1, 548513, Note_on_c, 0, 67, 99
1, 549088, Note_off_c, 0, 67, 99
1, 549095, Note_on_c, 0, 69, 102
1, 549560, Note_off_c, 0, 69, 102
1, 549757, Note_on_c, 0, 70, 100
1, 550143, Note_off_c, 0, 70, 100
1, 550308, Note_on_c, 0, 72, 100
1, 550986, Note_off_c, 0, 72, 100
1, 551012, Note_on_c, 0, 71, 97
1, 551146, Note_off_c, 0, 71, 97
1, 551202, Note_on_c, 0, 70, 97
1, 551420, Note_off_c, 0, 70, 97
1, 551487, Note_on_c, 0, 69, 97
1, 551862, Note_off_c, 0, 69, 97
1, 552260, Note_on_c, 0, 70, 99
1, 552764, Note_off_c, 0, 70, 99
1, 552796, Note_on_c, 0, 69, 97
1, 552997, Note_off_c, 0, 69, 97
1, 553092, Note_on_c, 0, 68, 99
1, 553254, Note_off_c, 0, 68, 99
1, 553315, Note_on_c, 0, 67, 95
1, 553802, Note_off_c, 0, 67, 95
1, 554052, Note_on_c, 0, 69, 95
1, 554753, Note_off_c, 0, 69, 95
1, 554770, Note_on_c, 0, 68, 96
1, 554966, Note_off_c, 0, 68, 96
1, 555022, Note_on_c, 0, 67, 94
1, 555240, Note_off_c, 0, 67, 94
1, 555284, Note_on_c, 0, 66, 92
1, 555642, Note_off_c, 0, 66, 92
1, 555686, Note_on_c, 0, 65, 92
1, 556493, Note_off_c, 0, 65, 92
1, 556537, Note_on_c, 0, 60, 95
1, 557069, Note_off_c, 0, 60, 95
1, 563394, Note_on_c, 0, 53, 106
1, 563528, Note_off_c, 0, 53, 106
1, 563528, Note_on_c, 0, 54, 95
1, 563718, Note_off_c, 0, 54, 95
1, 563825, Note_on_c, 0, 57, 101
1, 564054, Note_off_c, 0, 57, 101
1, 564090, Note_on_c, 0, 59, 96
1, 564219, Note_off_c, 0, 59, 96
1, 564244, Note_on_c, 0, 61, 96
1, 564438, Note_off_c, 0, 61, 96
1, 564517, Note_on_c, 0, 62, 102
1, 564682, Note_off_c, 0, 62, 102
1, 564689, Note_on_c, 0, 64, 106
1, 564908, Note_off_c, 0, 64, 106
1, 564965, Note_on_c, 0, 66, 106
1, 565124, Note_off_c, 0, 66, 106
1, 565150, Note_on_c, 0, 61, 103
1, 565471, Note_off_c, 0, 61, 103
1, 565497, Note_on_c, 0, 64, 108
1, 565766, Note_off_c, 0, 64, 108
1, 565779, Note_on_c, 0, 66, 104
1, 565956, Note_off_c, 0, 66, 104
1, 565975, Note_on_c, 0, 69, 103
1, 566227, Note_off_c, 0, 69, 103
1, 566234, Note_on_c, 0, 71, 103
1, 566592, Note_off_c, 0, 71, 103
1, 566607, Note_on_c, 0, 73, 98
1, 566740, Note_off_c, 0, 73, 98
1, 566763, Note_on_c, 0, 76, 103
1, 567268, Note_off_c, 0, 76, 103
1, 567306, Note_on_c, 0, 71, 106
1, 567726, Note_off_c, 0, 71, 106
1, 567752, Note_on_c, 0, 76, 94
1, 568147, Note_off_c, 0, 76, 94
1, 568164, Note_on_c, 0, 69, 103
1, 568528, Note_off_c, 0, 69, 103
1, 568535, Note_on_c, 0, 64, 96
1, 568802, Note_off_c, 0, 64, 96
1, 568819, Note_on_c, 0, 71, 96
1, 569137, Note_off_c, 0, 71, 96
1, 569254, Note_on_c, 0, 76, 90
1, 569658, Note_off_c, 0, 76, 90
1, 569681, Note_on_c, 0, 69, 102
1, 569985, Note_off_c, 0, 69, 102
1, 570038, Note_on_c, 0, 71, 96
1, 570300, Note_off_c, 0, 71, 96
1, 570352, Note_on_c, 0, 73, 97
1, 570567, Note_off_c, 0, 73, 97
1, 570600, Note_on_c, 0, 76, 104
1, 571076, Note_off_c, 0, 76, 104
1, 571086, Note_on_c, 0, 71, 102
1, 571631, Note_off_c, 0, 71, 102
1, 572427, Note_on_c, 0, 53, 96
1, 572682, Note_off_c, 0, 53, 96
1, 572699, Note_on_c, 0, 54, 95
1, 572935, Note_off_c, 0, 54, 95
1, 572942, Note_on_c, 0, 56, 95
1, 573218, Note_off_c, 0, 56, 95
1, 573320, Note_on_c, 0, 58, 96
1, 573603, Note_off_c, 0, 58, 96
1, 573689, Note_on_c, 0, 60, 101
1, 573933, Note_off_c, 0, 60, 101
1, 574003, Note_on_c, 0, 63, 108
1, 574334, Note_off_c, 0, 63, 108
1, 574452, Note_on_c, 0, 65, 104
1, 574728, Note_off_c, 0, 65, 104
1, 574751, Note_on_c, 0, 66, 103
1, 575019, Note_off_c, 0, 66, 103
1, 575082, Note_on_c, 0, 68, 108
1, 575318, Note_off_c, 0, 68, 108
1, 575349, Note_on_c, 0, 70, 104
1, 575632, Note_off_c, 0, 70, 104
1, 575673, Note_on_c, 0, 72, 107
1, 576054, Note_off_c, 0, 72, 107
1, 576110, Note_on_c, 0, 74, 100
1, 578039, Note_off_c, 0, 74, 100
1, 578068, Note_on_c, 0, 72, 103
1, 578344, Note_off_c, 0, 72, 103
1, 578391, Note_on_c, 0, 71, 105
1, 578682, Note_off_c, 0, 71, 105
1, 578768, Note_on_c, 0, 70, 102
1, 579335, Note_off_c, 0, 70, 102
1, 579437, Note_on_c, 0, 75, 110
1, 579847, Note_off_c, 0, 75, 110
1, 579847, Note_on_c, 0, 77, 94
1, 586731, Note_off_c, 0, 77, 94
1, 587913, Note_on_c, 0, 75, 114
1, 588459, Note_off_c, 0, 75, 114
1, 588471, Note_on_c, 0, 72, 96
1, 588902, Note_off_c, 0, 72, 96
1, 588909, Note_on_c, 0, 75, 113
1, 589427, Note_off_c, 0, 75, 113
1, 589449, Note_on_c, 0, 72, 101
1, 589960, Note_off_c, 0, 72, 101
1, 590002, Note_on_c, 0, 71, 103
1, 590694, Note_off_c, 0, 71, 103
1, 590709, Note_on_c, 0, 70, 104
1, 591105, Note_off_c, 0, 70, 104
1, 591119, Note_on_c, 0, 68, 88
1, 591528, Note_off_c, 0, 68, 88
1, 591564, Note_on_c, 0, 70, 103
1, 592026, Note_off_c, 0, 70, 103
1, 592042, Note_on_c, 0, 68, 104
1, 592538, Note_off_c, 0, 68, 104
1, 592613, Note_on_c, 0, 65, 96
1, 594481, Note_off_c, 0, 65, 96
1, 596984, Note_on_c, 0, 67, 107
1, 597555, Note_off_c, 0, 67, 107
1, 597586, Note_on_c, 0, 68, 108
1, 598027, Note_off_c, 0, 68, 108
1, 598251, Note_on_c, 0, 70, 92
1, 598463, Note_off_c, 0, 70, 92
1, 598482, Note_on_c, 0, 71, 104
1, 599041, Note_off_c, 0, 71, 104
1, 599186, Note_on_c, 0, 73, 102
1, 599710, Note_off_c, 0, 73, 102
1, 599749, Note_on_c, 0, 75, 97
1, 600450, Note_off_c, 0, 75, 97
1, 600485, Note_on_c, 0, 72, 90
1, 600883, Note_off_c, 0, 72, 90
1, 600922, Note_on_c, 0, 73, 99
1, 601450, Note_off_c, 0, 73, 99
1, 601595, Note_on_c, 0, 71, 101
1, 601969, Note_off_c, 0, 71, 101
1, 602170, Note_on_c, 0, 72, 102
1, 602785, Note_off_c, 0, 72, 102
1, 602832, Note_on_c, 0, 70, 82
1, 603238, Note_off_c, 0, 70, 82
1, 603289, Note_on_c, 0, 71, 105
1, 603915, Note_off_c, 0, 71, 105
1, 604624, Note_on_c, 0, 68, 94
1, 605128, Note_off_c, 0, 68, 94
1, 605195, Note_on_c, 0, 71, 105
1, 605719, Note_off_c, 0, 71, 105
1, 605782, Note_on_c, 0, 70, 105
1, 606255, Note_off_c, 0, 70, 105
1, 606286, Note_on_c, 0, 68, 106
1, 606873, Note_off_c, 0, 68, 106
1, 607058, Note_on_c, 0, 67, 103
1, 607499, Note_off_c, 0, 67, 103
1, 607522, Note_on_c, 0, 65, 101
1, 607987, Note_off_c, 0, 65, 101
1, 608026, Note_on_c, 0, 62, 76
1, 608128, Note_off_c, 0, 62, 76
1, 608159, Note_on_c, 0, 64, 105
1, 608651, Note_off_c, 0, 64, 105
1, 608745, Note_on_c, 0, 62, 106
1, 609249, Note_off_c, 0, 62, 106
1, 609331, Note_on_c, 0, 60, 99
1, 609772, Note_off_c, 0, 60, 99
1, 609811, Note_on_c, 0, 59, 90
1, 610524, Note_off_c, 0, 59, 90
1, 610587, Note_on_c, 0, 58, 96
1, 611024, Note_off_c, 0, 58, 96
1, 611225, Note_on_c, 0, 60, 101
1, 611615, Note_off_c, 0, 60, 101
1, 611729, Note_on_c, 0, 61, 99
1, 612284, Note_off_c, 0, 61, 99
1, 612418, Note_on_c, 0, 63, 110
1, 612877, Note_off_c, 0, 63, 110
1, 612877, Note_on_c, 0, 64, 110
1, 613563, Note_off_c, 0, 64, 110
1, 613662, Note_on_c, 0, 66, 101
1, 614273, Note_off_c, 0, 66, 101
1, 614301, Note_on_c, 0, 67, 104
1, 614785, Note_off_c, 0, 67, 104
1, 614972, Note_on_c, 0, 69, 102
1, 615456, Note_off_c, 0, 69, 102
1, 615554, Note_on_c, 0, 70, 100
1, 616013, Note_off_c, 0, 70, 100
1, 616013, Note_on_c, 0, 72, 100
1, 616600, Note_off_c, 0, 72, 100
1, 616918, Note_on_c, 0, 75, 90
1, 617529, Note_off_c, 0, 75, 90
1, 617931, Note_on_c, 0, 64, 107
1, 618199, Note_off_c, 0, 64, 107
1, 618380, Note_on_c, 0, 72, 100
1, 618750, Note_off_c, 0, 72, 100
1, 619006, Note_on_c, 0, 61, 91
1, 619384, Note_off_c, 0, 61, 91
1, 619522, Note_on_c, 0, 69, 94
1, 619955, Note_off_c, 0, 69, 94
1, 620128, Note_on_c, 0, 58, 95
1, 620411, Note_off_c, 0, 58, 95
1, 620430, Note_on_c, 0, 66, 88
1, 621005, Note_off_c, 0, 66, 88
1, 621158, Note_on_c, 0, 55, 95
1, 621465, Note_off_c, 0, 55, 95
1, 621472, Note_on_c, 0, 63, 97
1, 621826, Note_off_c, 0, 63, 97
1, 622184, Note_on_c, 0, 52, 84
1, 623004, Note_off_c, 0, 52, 84
1, 625074, Note_on_c, 0, 60, 86
1, 625555, Note_off_c, 0, 60, 86
1, 625582, Note_on_c, 0, 63, 95
1, 626319, Note_off_c, 0, 63, 95
1, 626420, Note_on_c, 0, 65, 105
1, 626857, Note_off_c, 0, 65, 105
1, 627002, Note_on_c, 0, 68, 105
1, 627585, Note_off_c, 0, 68, 105
1, 627815, Note_on_c, 0, 69, 98
1, 628130, Note_off_c, 0, 69, 98
1, 628177, Note_on_c, 0, 72, 104
1, 628961, Note_off_c, 0, 72, 104
1, 629016, Note_on_c, 0, 70, 95
1, 631839, Note_off_c, 0, 70, 95
1, 631866, Note_on_c, 0, 68, 96
1, 632788, Note_off_c, 0, 68, 96
1, 632811, Note_on_c, 0, 67, 97
1, 633173, Note_off_c, 0, 67, 97
1, 633204, Note_on_c, 0, 65, 95
1, 634114, Note_off_c, 0, 65, 95
1, 634141, Note_on_c, 0, 63, 100
1, 634740, Note_off_c, 0, 63, 100
1, 634771, Note_on_c, 0, 65, 88
1, 635354, Note_off_c, 0, 65, 88
1, 635440, Note_on_c, 0, 63, 94
1, 636843, Note_off_c, 0, 63, 94
1, 642222, Note_on_c, 0, 46, 102
1, 642468, Note_off_c, 0, 46, 102
1, 642468, Note_on_c, 0, 49, 92
1, 642629, Note_off_c, 0, 49, 92
1, 642629, Note_on_c, 0, 51, 95
1, 642936, Note_off_c, 0, 51, 95
1, 642936, Note_on_c, 0, 57, 92
1, 643306, Note_off_c, 0, 57, 92
1, 643309, Note_on_c, 0, 55, 95
1, 643573, Note_off_c, 0, 55, 95
1, 643600, Note_on_c, 0, 53, 101
1, 643828, Note_off_c, 0, 53, 101
1, 643887, Note_on_c, 0, 52, 103
1, 644044, Note_off_c, 0, 52, 103
1, 644095, Note_on_c, 0, 51, 101
1, 644307, Note_off_c, 0, 51, 101
1, 644366, Note_on_c, 0, 53, 102
1, 644582, Note_off_c, 0, 53, 102
1, 644613, Note_on_c, 0, 55, 98
1, 644814, Note_off_c, 0, 55, 98
1, 644837, Note_on_c, 0, 58, 99
1, 645057, Note_off_c, 0, 58, 99
1, 645080, Note_on_c, 0, 63, 102
1, 645296, Note_off_c, 0, 63, 102
1, 645343, Note_on_c, 0, 60, 100
1, 645654, Note_off_c, 0, 60, 100
1, 645693, Note_on_c, 0, 59, 97
1, 645925, Note_off_c, 0, 59, 97
1, 645964, Note_on_c, 0, 58, 98
1, 646247, Note_off_c, 0, 58, 98
1, 646250, Note_on_c, 0, 57, 96
1, 646529, Note_off_c, 0, 57, 96
1, 646532, Note_on_c, 0, 59, 94
1, 646867, Note_off_c, 0, 59, 94
1, 646914, Note_on_c, 0, 52, 105
1, 647193, Note_off_c, 0, 52, 105
1, 647212, Note_on_c, 0, 63, 106
1, 647606, Note_off_c, 0, 63, 106
1, 647606, Note_on_c, 0, 66, 99
1, 647929, Note_off_c, 0, 66, 99
1, 647960, Note_on_c, 0, 65, 99
1, 648358, Note_off_c, 0, 65, 99
1, 648499, Note_on_c, 0, 69, 92
1, 648782, Note_off_c, 0, 69, 92
1, 648789, Note_on_c, 0, 67, 100
1, 649084, Note_off_c, 0, 67, 100
1, 649099, Note_on_c, 0, 70, 102
1, 649434, Note_off_c, 0, 70, 102
1, 649469, Note_on_c, 0, 73, 98
1, 649748, Note_off_c, 0, 73, 98
1, 649779, Note_on_c, 0, 69, 99
1, 650023, Note_off_c, 0, 69, 99
1, 650038, Note_on_c, 0, 71, 102
1, 650195, Note_off_c, 0, 71, 102
1, 650218, Note_on_c, 0, 73, 100
1, 650474, Note_off_c, 0, 73, 100
1, 650497, Note_on_c, 0, 71, 104
1, 650690, Note_off_c, 0, 71, 104
1, 650697, Note_on_c, 0, 69, 104
1, 650957, Note_off_c, 0, 69, 104
1, 650980, Note_on_c, 0, 68, 104
1, 651295, Note_off_c, 0, 68, 104
1, 651314, Note_on_c, 0, 66, 100
1, 651570, Note_off_c, 0, 66, 100
1, 651625, Note_on_c, 0, 65, 100
1, 651897, Note_off_c, 0, 65, 100
1, 651940, Note_on_c, 0, 64, 103
1, 652160, Note_off_c, 0, 64, 103
1, 652195, Note_on_c, 0, 63, 104
1, 652396, Note_off_c, 0, 63, 104
1, 652459, Note_on_c, 0, 62, 103
1, 652648, Note_off_c, 0, 62, 103
1, 652718, Note_on_c, 0, 61, 94
1, 653029, Note_off_c, 0, 61, 94
1, 653092, Note_on_c, 0, 59, 91
1, 653395, Note_off_c, 0, 59, 91
1, 653450, Note_on_c, 0, 58, 90
1, 655401, Note_off_c, 0, 58, 90
1, 655487, Note_on_c, 0, 53, 96
1, 656046, Note_off_c, 0, 53, 96
1, 656101, Note_on_c, 0, 56, 95
1, 656656, Note_off_c, 0, 56, 95
1, 656723, Note_on_c, 0, 58, 98
1, 657625, Note_off_c, 0, 58, 98
1, 659320, Note_on_c, 0, 68, 110
1, 659631, Note_off_c, 0, 68, 110
1, 659684, Note_on_c, 0, 67, 107
1, 659984, Note_off_c, 0, 67, 107
1, 660059, Note_on_c, 0, 66, 105
1, 660297, Note_off_c, 0, 66, 105
1, 660361, Note_on_c, 0, 65, 106
1, 661005, Note_off_c, 0, 65, 106
1, 661094, Note_on_c, 0, 61, 97
1, 661365, Note_off_c, 0, 61, 97
1, 661437, Note_on_c, 0, 64, 112
1, 662011, Note_off_c, 0, 64, 112
1, 662049, Note_on_c, 0, 67, 104
1, 662604, Note_off_c, 0, 67, 104
1, 662883, Note_on_c, 0, 68, 106
1, 663442, Note_off_c, 0, 68, 106
1, 663489, Note_on_c, 0, 72, 101
1, 664092, Note_off_c, 0, 72, 101
1, 664151, Note_on_c, 0, 76, 106
1, 664951, Note_off_c, 0, 76, 106
1, 665081, Note_on_c, 0, 79, 116
1, 668976, Note_off_c, 0, 79, 116
1, 671864, Note_on_c, 0, 74, 84
1, 672054, Note_off_c, 0, 74, 84
1, 672132, Note_on_c, 0, 75, 106
1, 672401, Note_off_c, 0, 75, 106
1, 672401, Note_on_c, 0, 77, 101
1, 673242, Note_off_c, 0, 77, 101
1, 673499, Note_on_c, 0, 75, 105
1, 675484, Note_off_c, 0, 75, 105
1, 676112, Note_on_c, 0, 69, 90
1, 676426, Note_off_c, 0, 69, 90
1, 676605, Note_on_c, 0, 71, 104
1, 677423, Note_off_c, 0, 71, 104
1, 677467, Note_on_c, 0, 70, 102
1, 680652, Note_off_c, 0, 70, 102
1, 680797, Note_on_c, 0, 68, 104
1, 681391, Note_off_c, 0, 68, 104
1, 681492, Note_on_c, 0, 65, 100
1, 681902, Note_off_c, 0, 65, 100
1, 682122, Note_on_c, 0, 63, 103
1, 682555, Note_off_c, 0, 63, 103
1, 682649, Note_on_c, 0, 60, 95
1, 683319, Note_off_c, 0, 60, 95
1, 683453, Note_on_c, 0, 59, 89
1, 683910, Note_off_c, 0, 59, 89
1, 683973, Note_on_c, 0, 58, 89
1, 684414, Note_off_c, 0, 58, 89
1, 684524, Note_on_c, 0, 56, 87
1, 685099, Note_off_c, 0, 56, 87
1, 685122, Note_on_c, 0, 53, 86
1, 685768, Note_off_c, 0, 53, 86
1, 685815, Note_on_c, 0, 51, 85
1, 686280, Note_off_c, 0, 51, 85
1, 686358, Note_on_c, 0, 56, 85
1, 686846, Note_off_c, 0, 56, 85
1, 686869, Note_on_c, 0, 53, 83
1, 689163, Note_off_c, 0, 53, 83
1, 694927, Note_on_c, 0, 66, 92
1, 695305, Note_off_c, 0, 66, 92
1, 695368, Note_on_c, 0, 65, 97
1, 695596, Note_off_c, 0, 65, 97
1, 695627, Note_on_c, 0, 63, 107
1, 696139, Note_off_c, 0, 63, 107
1, 696194, Note_on_c, 0, 62, 113
1, 696753, Note_off_c, 0, 62, 113
1, 696816, Note_on_c, 0, 61, 109
1, 697312, Note_off_c, 0, 61, 109
1, 697430, Note_on_c, 0, 60, 104
1, 697911, Note_off_c, 0, 60, 104
1, 697989, Note_on_c, 0, 58, 97
1, 698477, Note_off_c, 0, 58, 97
1, 698587, Note_on_c, 0, 55, 95
1, 699099, Note_off_c, 0, 55, 95
1, 699367, Note_on_c, 0, 51, 96
1, 699753, Note_off_c, 0, 51, 96
1, 699784, Note_on_c, 0, 57, 94
1, 700336, Note_off_c, 0, 57, 94
1, 700383, Note_on_c, 0, 58, 93
1, 700990, Note_off_c, 0, 58, 93
1, 701131, Note_on_c, 0, 60, 99
1, 701572, Note_off_c, 0, 60, 99
1, 701871, Note_on_c, 0, 62, 101
1, 702367, Note_off_c, 0, 62, 101
1, 702863, Note_on_c, 0, 60, 93
1, 704172, Note_off_c, 0, 60, 93
1, 704219, Note_on_c, 0, 58, 85
1, 704526, Note_off_c, 0, 58, 85
1, 704628, Note_on_c, 0, 55, 87
1, 705109, Note_off_c, 0, 55, 87
1, 705211, Note_on_c, 0, 50, 80
1, 706299, Note_off_c, 0, 50, 80
1, 706299, End_track
0, 0, End_of_file
