0, 0, Header, 1, 1, 192
1, 0, Start_track
1, 0, Title_t, "Melody"
1, 0, Tempo, 333333
1, 0, Key_signature, -1, "major"
1, 0, Time_signature, 4, 2, 24, 8
1, 2215, Note_on_c, 0, 77, 116
1, 2323, Note_off_c, 0, 77, 116
1, 2622, Note_on_c, 0, 74, 119
1, 2779, Note_off_c, 0, 74, 119
1, 2797, Note_on_c, 0, 72, 120
1, 2916, Note_off_c, 0, 72, 120
1, 2927, Note_on_c, 0, 69, 95
1, 2983, Note_off_c, 0, 69, 95
1, 2999, Note_on_c, 0, 70, 119
1, 3097, Note_off_c, 0, 70, 119
1, 3101, Note_on_c, 0, 69, 119
1, 3171, Note_off_c, 0, 69, 119
1, 3196, Note_on_c, 0, 65, 119
1, 3311, Note_off_c, 0, 65, 119
1, 3335, Note_on_c, 0, 60, 90
1, 3378, Note_off_c, 0, 60, 90
1, 3388, Note_on_c, 0, 67, 118
1, 3491, Note_off_c, 0, 67, 118
1, 3502, Note_on_c, 0, 65, 119
1, 3591, Note_off_c, 0, 65, 119
1, 3598, Note_on_c, 0, 63, 121
1, 3692, Note_off_c, 0, 63, 121
1, 3696, Note_on_c, 0, 59, 114
1, 3787, Note_off_c, 0, 59, 114
1, 3794, Note_on_c, 0, 55, 116
1, 3906, Note_off_c, 0, 55, 116
1, 3908, Note_on_c, 0, 49, 103
1, 3948, Note_off_c, 0, 49, 103
1, 3968, Note_on_c, 0, 53, 116
1, 4069, Note_off_c, 0, 53, 116
1, 4074, Note_on_c, 0, 59, 116
1, 4130, Note_off_c, 0, 59, 116
1, 4148, Note_on_c, 0, 51, 118
1, 4176, Note_off_c, 0, 51, 118
1, 4181, Note_on_c, 0, 52, 114
1, 4318, Note_off_c, 0, 52, 114
1, 4323, Note_on_c, 0, 59, 115
1, 4448, Note_off_c, 0, 59, 115
1, 4469, Note_on_c, 0, 54, 113
1, 4581, Note_off_c, 0, 54, 113
1, 4622, Note_on_c, 0, 54, 116
1, 4702, Note_off_c, 0, 54, 116
1, 4703, Note_on_c, 0, 50, 114
1, 4821, Note_off_c, 0, 50, 114
1, 5284, Note_on_c, 0, 65, 121
1, 5370, Note_off_c, 0, 65, 121
1, 5654, Note_on_c, 0, 65, 118
1, 5776, Note_off_c, 0, 65, 118
1, 5971, Note_on_c, 0, 65, 121
1, 6052, Note_off_c, 0, 65, 121
1, 6182, Note_on_c, 0, 60, 91
1, 6212, Note_off_c, 0, 60, 91
1, 6237, Note_on_c, 0, 64, 122
1, 6345, Note_off_c, 0, 64, 122
1, 6385, Note_on_c, 0, 61, 102
1, 6415, Note_off_c, 0, 61, 102
1, 6425, Note_on_c, 0, 65, 118
1, 6567, Note_off_c, 0, 65, 118
1, 6574, Note_on_c, 0, 60, 101
1, 6598, Note_off_c, 0, 60, 101
1, 6607, Note_on_c, 0, 64, 119
1, 6744, Note_off_c, 0, 64, 119
1, 6759, Note_on_c, 0, 65, 117
1, 7048, Note_off_c, 0, 65, 117
1, 7051, Note_on_c, 0, 60, 114
1, 7094, Note_off_c, 0, 60, 114
1, 7123, Note_on_c, 0, 69, 111
1, 7162, Note_off_c, 0, 69, 111
1, 7192, Note_on_c, 0, 55, 112
1, 7232, Note_off_c, 0, 55, 112
1, 7232, Note_on_c, 0, 57, 112
1, 7333, Note_off_c, 0, 57, 112
1, 7340, Note_on_c, 0, 51, 112
1, 7383, Note_off_c, 0, 51, 112
1, 8085, Note_on_c, 0, 60, 114
1, 8180, Note_off_c, 0, 60, 114
1, 8220, Note_on_c, 0, 64, 112
1, 8271, Note_off_c, 0, 64, 112
1, 8274, Note_on_c, 0, 67, 121
1, 8322, Note_off_c, 0, 67, 121
1, 8343, Note_on_c, 0, 63, 124
1, 8448, Note_off_c, 0, 63, 124
1, 8449, Note_on_c, 0, 65, 121
1, 8495, Note_off_c, 0, 65, 121
1, 8537, Note_on_c, 0, 69, 120
1, 8618, Note_off_c, 0, 69, 120
1, 8631, Note_on_c, 0, 72, 119
1, 8709, Note_off_c, 0, 72, 119
1, 8729, Note_on_c, 0, 74, 119
1, 8809, Note_off_c, 0, 74, 119
1, 8812, Note_on_c, 0, 72, 119
1, 8885, Note_off_c, 0, 72, 119
1, 8903, Note_on_c, 0, 69, 120
1, 9000, Note_off_c, 0, 69, 120
1, 9019, Note_on_c, 0, 65, 102
1, 9067, Note_off_c, 0, 65, 102
1, 9082, Note_on_c, 0, 67, 119
1, 9177, Note_off_c, 0, 67, 119
1, 9192, Note_on_c, 0, 63, 121
1, 9290, Note_off_c, 0, 63, 121
1, 9299, Note_on_c, 0, 62, 119
1, 9423, Note_off_c, 0, 62, 119
1, 9463, Note_on_c, 0, 65, 120
1, 9546, Note_off_c, 0, 65, 120
1, 9558, Note_on_c, 0, 64, 120
1, 9639, Note_off_c, 0, 64, 120
1, 9649, Note_on_c, 0, 63, 121
1, 9748, Note_off_c, 0, 63, 121
1, 9768, Note_on_c, 0, 59, 113
1, 9836, Note_off_c, 0, 59, 113
1, 9836, Note_on_c, 0, 56, 116
1, 9954, Note_off_c, 0, 56, 116
1, 9957, Note_on_c, 0, 51, 99
1, 10031, Note_off_c, 0, 51, 99
1, 10032, Note_on_c, 0, 53, 114
1, 10159, Note_off_c, 0, 53, 114
1, 10213, Note_on_c, 0, 71, 120
1, 10301, Note_off_c, 0, 71, 120
1, 10327, Note_on_c, 0, 69, 119
1, 10405, Note_off_c, 0, 69, 119
1, 10430, Note_on_c, 0, 67, 117
1, 10535, Note_off_c, 0, 67, 117
1, 10585, Note_on_c, 0, 64, 98
1, 10615, Note_off_c, 0, 64, 98
1, 10615, Note_on_c, 0, 66, 115
1, 10723, Note_off_c, 0, 66, 115
1, 11510, Note_on_c, 0, 57, 115
1, 11578, Note_off_c, 0, 57, 115
1, 11586, Note_on_c, 0, 58, 110
1, 11639, Note_off_c, 0, 58, 110
1, 11645, Note_on_c, 0, 62, 98
1, 11680, Note_off_c, 0, 62, 98
1, 11698, Note_on_c, 0, 65, 113
1, 11768, Note_off_c, 0, 65, 113
1, 11807, Note_on_c, 0, 69, 116
1, 11874, Note_off_c, 0, 69, 116
1, 11904, Note_on_c, 0, 67, 118
1, 11965, Note_off_c, 0, 67, 118
1, 11993, Note_on_c, 0, 65, 119
1, 12078, Note_off_c, 0, 65, 119
1, 12168, Note_on_c, 0, 64, 118
1, 12285, Note_off_c, 0, 64, 118
1, 12360, Note_on_c, 0, 64, 114
1, 12443, Note_off_c, 0, 64, 114
1, 12463, Note_on_c, 0, 67, 116
1, 12523, Note_off_c, 0, 67, 116
1, 12556, Note_on_c, 0, 65, 112
1, 12594, Note_off_c, 0, 65, 112
1, 12654, Note_on_c, 0, 67, 112
1, 12702, Note_off_c, 0, 67, 112
1, 12747, Note_on_c, 0, 69, 120
1, 12818, Note_off_c, 0, 69, 120
1, 12851, Note_on_c, 0, 72, 117
1, 12891, Note_off_c, 0, 72, 117
1, 12951, Note_on_c, 0, 77, 116
1, 13024, Note_off_c, 0, 77, 116
1, 13049, Note_on_c, 0, 76, 123
1, 13119, Note_off_c, 0, 76, 123
1, 13132, Note_on_c, 0, 75, 119
1, 13193, Note_off_c, 0, 75, 119
1, 13237, Note_on_c, 0, 73, 121
1, 13290, Note_off_c, 0, 73, 121
1, 13293, Note_on_c, 0, 72, 118
1, 13388, Note_off_c, 0, 72, 118
1, 13431, Note_on_c, 0, 70, 117
1, 13484, Note_off_c, 0, 70, 117
1, 13503, Note_on_c, 0, 69, 116
1, 13576, Note_off_c, 0, 69, 116
1, 13620, Note_on_c, 0, 67, 117
1, 13671, Note_off_c, 0, 67, 117
1, 13694, Note_on_c, 0, 65, 116
1, 13770, Note_off_c, 0, 65, 116
1, 13787, Note_on_c, 0, 64, 115
1, 13866, Note_off_c, 0, 64, 115
1, 13880, Note_on_c, 0, 63, 116
1, 13978, Note_off_c, 0, 63, 116
1, 13980, Note_on_c, 0, 62, 116
1, 14069, Note_off_c, 0, 62, 116
1, 14070, Note_on_c, 0, 61, 111
1, 14158, Note_off_c, 0, 61, 111
1, 14168, Note_on_c, 0, 58, 112
1, 14244, Note_off_c, 0, 58, 112
1, 14252, Note_on_c, 0, 53, 111
1, 14335, Note_off_c, 0, 53, 111
1, 14390, Note_on_c, 0, 49, 110
1, 14415, Note_off_c, 0, 49, 110
1, 14425, Note_on_c, 0, 56, 113
1, 14549, Note_off_c, 0, 56, 113
1, 14553, Note_on_c, 0, 49, 101
1, 14593, Note_off_c, 0, 49, 101
1, 14603, Note_on_c, 0, 53, 113
1, 14745, Note_off_c, 0, 53, 113
1, 15106, Note_on_c, 0, 44, 116
1, 15169, Note_off_c, 0, 44, 116
1, 15174, Note_on_c, 0, 51, 115
1, 15296, Note_off_c, 0, 51, 115
1, 15302, Note_on_c, 0, 44, 111
1, 15347, Note_off_c, 0, 44, 111
1, 15351, Note_on_c, 0, 46, 118
1, 15506, Note_off_c, 0, 46, 118
1, 15872, Note_on_c, 0, 46, 119
1, 15940, Note_off_c, 0, 46, 119
1, 15953, Note_on_c, 0, 51, 113
1, 16056, Note_off_c, 0, 51, 113
1, 16059, Note_on_c, 0, 55, 116
1, 16143, Note_off_c, 0, 55, 116
1, 16143, Note_on_c, 0, 48, 115
1, 16273, Note_off_c, 0, 48, 115
1, 16281, Note_on_c, 0, 53, 118
1, 16322, Note_off_c, 0, 53, 118
1, 16338, Note_on_c, 0, 58, 118
1, 16438, Note_off_c, 0, 58, 118
1, 16443, Note_on_c, 0, 63, 123
1, 16494, Note_off_c, 0, 63, 123
1, 16545, Note_on_c, 0, 57, 114
1, 16646, Note_off_c, 0, 57, 114
1, 16656, Note_on_c, 0, 53, 109
1, 16698, Note_off_c, 0, 53, 109
1, 16704, Note_on_c, 0, 55, 116
1, 16812, Note_off_c, 0, 55, 116
1, 16815, Note_on_c, 0, 51, 114
1, 16885, Note_off_c, 0, 51, 114
1, 16886, Note_on_c, 0, 48, 114
1, 17001, Note_off_c, 0, 48, 114
1, 17017, Note_on_c, 0, 47, 109
1, 17348, Note_off_c, 0, 47, 109
1, 17371, Note_on_c, 0, 51, 102
1, 17417, Note_off_c, 0, 51, 102
1, 17419, Note_on_c, 0, 53, 105
1, 17461, Note_off_c, 0, 53, 105
1, 17461, Note_on_c, 0, 59, 118
1, 17509, Note_off_c, 0, 59, 118
1, 17523, Note_on_c, 0, 56, 115
1, 17567, Note_off_c, 0, 56, 115
1, 17573, Note_on_c, 0, 53, 114
1, 17619, Note_off_c, 0, 53, 114
1, 17623, Note_on_c, 0, 52, 112
1, 17682, Note_off_c, 0, 52, 112
1, 17689, Note_on_c, 0, 51, 112
1, 17737, Note_off_c, 0, 51, 112
1, 17744, Note_on_c, 0, 56, 112
1, 17792, Note_off_c, 0, 56, 112
1, 17807, Note_on_c, 0, 59, 118
1, 17855, Note_off_c, 0, 59, 118
1, 17863, Note_on_c, 0, 63, 119
1, 17909, Note_off_c, 0, 63, 119
1, 17911, Note_on_c, 0, 62, 120
1, 17962, Note_off_c, 0, 62, 120
1, 17971, Note_on_c, 0, 61, 110
1, 18032, Note_off_c, 0, 61, 110
1, 18045, Note_on_c, 0, 59, 115
1, 18089, Note_off_c, 0, 59, 115
1, 18090, Note_on_c, 0, 63, 119
1, 18127, Note_off_c, 0, 63, 119
1, 18132, Note_on_c, 0, 58, 115
1, 18170, Note_off_c, 0, 58, 115
1, 18173, Note_on_c, 0, 55, 108
1, 18233, Note_off_c, 0, 55, 108
1, 18240, Note_on_c, 0, 56, 112
1, 18276, Note_off_c, 0, 56, 112
1, 18282, Note_on_c, 0, 58, 119
1, 18313, Note_off_c, 0, 58, 119
1, 18322, Note_on_c, 0, 59, 116
1, 18352, Note_off_c, 0, 59, 116
1, 18359, Note_on_c, 0, 61, 114
1, 18397, Note_off_c, 0, 61, 114
1, 18404, Note_on_c, 0, 63, 119
1, 18445, Note_off_c, 0, 63, 119
1, 18450, Note_on_c, 0, 65, 108
1, 18476, Note_off_c, 0, 65, 108
1, 18480, Note_on_c, 0, 66, 119
1, 18550, Note_off_c, 0, 66, 119
1, 18553, Note_on_c, 0, 64, 110
1, 18584, Note_off_c, 0, 64, 110
1, 18589, Note_on_c, 0, 65, 120
1, 18636, Note_off_c, 0, 65, 120
1, 18639, Note_on_c, 0, 62, 112
1, 18669, Note_off_c, 0, 62, 112
1, 18680, Note_on_c, 0, 58, 116
1, 18725, Note_off_c, 0, 58, 116
1, 18750, Note_on_c, 0, 55, 110
1, 18776, Note_off_c, 0, 55, 110
1, 18776, Note_on_c, 0, 64, 117
1, 18817, Note_off_c, 0, 64, 117
1, 18821, Note_on_c, 0, 62, 117
1, 18857, Note_off_c, 0, 62, 117
1, 18866, Note_on_c, 0, 60, 112
1, 18895, Note_off_c, 0, 60, 112
1, 18898, Note_on_c, 0, 59, 107
1, 18936, Note_off_c, 0, 59, 107
1, 18944, Note_on_c, 0, 58, 117
1, 18998, Note_off_c, 0, 58, 117
1, 19003, Note_on_c, 0, 60, 110
1, 19033, Note_off_c, 0, 60, 110
1, 19036, Note_on_c, 0, 62, 110
1, 19081, Note_off_c, 0, 62, 110
1, 19089, Note_on_c, 0, 65, 101
1, 19131, Note_off_c, 0, 65, 101
1, 19136, Note_on_c, 0, 69, 120
1, 19166, Note_off_c, 0, 69, 120
1, 19178, Note_on_c, 0, 66, 110
1, 19221, Note_off_c, 0, 66, 110
1, 19235, Note_on_c, 0, 67, 100
1, 19273, Note_off_c, 0, 67, 100
1, 19273, Note_on_c, 0, 69, 97
1, 19308, Note_off_c, 0, 69, 97
1, 19324, Note_on_c, 0, 70, 119
1, 19369, Note_off_c, 0, 70, 119
1, 19399, Note_on_c, 0, 62, 106
1, 19444, Note_off_c, 0, 62, 106
1, 19452, Note_on_c, 0, 64, 108
1, 19510, Note_off_c, 0, 64, 108
1, 19510, Note_on_c, 0, 69, 117
1, 19556, Note_off_c, 0, 69, 117
1, 19561, Note_on_c, 0, 67, 111
1, 19606, Note_off_c, 0, 67, 111
1, 19607, Note_on_c, 0, 65, 117
1, 19643, Note_off_c, 0, 65, 117
1, 19651, Note_on_c, 0, 63, 99
1, 19676, Note_off_c, 0, 63, 99
1, 19685, Note_on_c, 0, 64, 115
1, 19741, Note_off_c, 0, 64, 115
1, 19745, Note_on_c, 0, 68, 118
1, 19792, Note_off_c, 0, 68, 118
1, 19799, Note_on_c, 0, 66, 113
1, 19829, Note_off_c, 0, 66, 113
1, 19836, Note_on_c, 0, 64, 118
1, 19883, Note_off_c, 0, 64, 118
1, 19899, Note_on_c, 0, 63, 116
1, 19937, Note_off_c, 0, 63, 116
1, 19940, Note_on_c, 0, 61, 112
1, 19992, Note_off_c, 0, 61, 112
1, 20000, Note_on_c, 0, 58, 108
1, 20048, Note_off_c, 0, 58, 108
1, 20057, Note_on_c, 0, 57, 119
1, 20092, Note_off_c, 0, 57, 119
1, 20121, Note_on_c, 0, 60, 106
1, 20176, Note_off_c, 0, 60, 106
1, 20181, Note_on_c, 0, 64, 115
1, 20217, Note_off_c, 0, 64, 115
1, 20230, Note_on_c, 0, 67, 117
1, 20264, Note_off_c, 0, 67, 117
1, 20273, Note_on_c, 0, 64, 110
1, 20312, Note_off_c, 0, 64, 110
1, 20318, Note_on_c, 0, 65, 106
1, 20358, Note_off_c, 0, 65, 106
1, 20368, Note_on_c, 0, 69, 116
1, 20406, Note_off_c, 0, 69, 116
1, 20409, Note_on_c, 0, 72, 114
1, 20439, Note_off_c, 0, 72, 114
1, 20447, Note_on_c, 0, 76, 119
1, 20506, Note_off_c, 0, 76, 119
1, 20513, Note_on_c, 0, 77, 110
1, 20665, Note_off_c, 0, 77, 110
1, 20970, Note_on_c, 0, 70, 120
1, 21035, Note_off_c, 0, 70, 120
1, 21066, Note_on_c, 0, 67, 84
1, 21087, Note_off_c, 0, 67, 84
1, 21097, Note_on_c, 0, 69, 118
1, 21178, Note_off_c, 0, 69, 118
1, 21179, Note_on_c, 0, 68, 93
1, 21205, Note_off_c, 0, 68, 93
1, 21216, Note_on_c, 0, 67, 117
1, 21290, Note_off_c, 0, 67, 117
1, 21315, Note_on_c, 0, 65, 119
1, 21432, Note_off_c, 0, 65, 119
1, 21453, Note_on_c, 0, 64, 121
1, 21551, Note_off_c, 0, 64, 121
1, 21552, Note_on_c, 0, 61, 99
1, 21570, Note_off_c, 0, 61, 99
1, 21576, Note_on_c, 0, 63, 118
1, 21850, Note_off_c, 0, 63, 118
1, 22124, Note_on_c, 0, 73, 118
1, 22159, Note_off_c, 0, 73, 118
1, 22163, Note_on_c, 0, 72, 122
1, 22183, Note_off_c, 0, 72, 122
1, 22189, Note_on_c, 0, 71, 124
1, 22224, Note_off_c, 0, 71, 124
1, 22232, Note_on_c, 0, 70, 119
1, 22270, Note_off_c, 0, 70, 119
1, 22271, Note_on_c, 0, 68, 118
1, 22315, Note_off_c, 0, 68, 118
1, 22322, Note_on_c, 0, 66, 116
1, 22354, Note_off_c, 0, 66, 116
1, 22359, Note_on_c, 0, 65, 120
1, 22409, Note_off_c, 0, 65, 120
1, 22424, Note_on_c, 0, 63, 118
1, 22459, Note_off_c, 0, 63, 118
1, 22459, Note_on_c, 0, 65, 116
1, 22533, Note_off_c, 0, 65, 116
1, 22841, Note_on_c, 0, 71, 119
1, 22868, Note_off_c, 0, 71, 119
1, 22871, Note_on_c, 0, 69, 119
1, 22898, Note_off_c, 0, 69, 119
1, 22898, Note_on_c, 0, 67, 118
1, 22927, Note_off_c, 0, 67, 118
1, 22929, Note_on_c, 0, 64, 117
1, 22975, Note_off_c, 0, 64, 117
1, 22983, Note_on_c, 0, 60, 115
1, 23014, Note_off_c, 0, 60, 115
1, 23019, Note_on_c, 0, 57, 114
1, 23062, Note_off_c, 0, 57, 114
1, 23069, Note_on_c, 0, 52, 111
1, 23106, Note_off_c, 0, 52, 111
1, 23113, Note_on_c, 0, 55, 117
1, 23211, Note_off_c, 0, 55, 117
1, 23392, Note_on_c, 0, 58, 116
1, 23507, Note_off_c, 0, 58, 116
1, 23684, Note_on_c, 0, 62, 119
1, 23799, Note_off_c, 0, 62, 119
1, 23889, Note_on_c, 0, 65, 119
1, 23979, Note_off_c, 0, 65, 119
1, 24064, Note_on_c, 0, 65, 119
1, 24182, Note_off_c, 0, 65, 119
1, 24188, Note_on_c, 0, 60, 102
1, 24236, Note_off_c, 0, 60, 102
1, 24239, Note_on_c, 0, 64, 122
1, 24354, Note_off_c, 0, 64, 122
1, 24358, Note_on_c, 0, 62, 101
1, 24401, Note_off_c, 0, 62, 101
1, 24426, Note_on_c, 0, 64, 120
1, 24538, Note_off_c, 0, 64, 120
1, 24565, Note_on_c, 0, 67, 115
1, 24614, Note_off_c, 0, 67, 115
1, 24663, Note_on_c, 0, 65, 119
1, 24739, Note_off_c, 0, 65, 119
1, 24769, Note_on_c, 0, 67, 118
1, 24822, Note_off_c, 0, 67, 118
1, 24847, Note_on_c, 0, 69, 123
1, 24926, Note_off_c, 0, 69, 123
1, 24941, Note_on_c, 0, 72, 118
1, 25009, Note_off_c, 0, 72, 118
1, 25052, Note_on_c, 0, 73, 117
1, 25126, Note_off_c, 0, 73, 117
1, 25136, Note_on_c, 0, 70, 119
1, 25192, Note_off_c, 0, 70, 119
1, 25215, Note_on_c, 0, 66, 120
1, 25306, Note_off_c, 0, 66, 120
1, 25320, Note_on_c, 0, 61, 111
1, 25384, Note_off_c, 0, 61, 111
1, 25401, Note_on_c, 0, 59, 113
1, 25509, Note_off_c, 0, 59, 113
1, 25524, Note_on_c, 0, 64, 102
1, 25566, Note_off_c, 0, 64, 102
1, 25581, Note_on_c, 0, 68, 119
1, 25672, Note_off_c, 0, 68, 119
1, 25693, Note_on_c, 0, 71, 121
1, 25754, Note_off_c, 0, 71, 121
1, 25793, Note_on_c, 0, 70, 116
1, 25869, Note_off_c, 0, 70, 116
1, 25888, Note_on_c, 0, 66, 119
1, 25949, Note_off_c, 0, 66, 119
1, 25982, Note_on_c, 0, 61, 111
1, 26084, Note_off_c, 0, 61, 111
1, 26092, Note_on_c, 0, 59, 101
1, 26136, Note_off_c, 0, 59, 101
1, 26160, Note_on_c, 0, 60, 118
1, 26266, Note_off_c, 0, 60, 118
1, 26331, Note_on_c, 0, 67, 106
1, 26366, Note_off_c, 0, 67, 106
1, 26381, Note_on_c, 0, 69, 119
1, 26519, Note_off_c, 0, 69, 119
1, 26525, Note_on_c, 0, 70, 116
1, 26895, Note_off_c, 0, 70, 116
1, 26910, Note_on_c, 0, 69, 116
1, 26968, Note_off_c, 0, 69, 116
1, 26988, Note_on_c, 0, 65, 116
1, 27034, Note_off_c, 0, 65, 116
1, 27039, Note_on_c, 0, 60, 112
1, 27087, Note_off_c, 0, 60, 112
1, 27090, Note_on_c, 0, 67, 117
1, 27139, Note_off_c, 0, 67, 117
1, 27149, Note_on_c, 0, 65, 108
1, 27184, Note_off_c, 0, 65, 108
1, 27194, Note_on_c, 0, 60, 109
1, 27224, Note_off_c, 0, 60, 109
1, 27226, Note_on_c, 0, 62, 116
1, 27261, Note_off_c, 0, 62, 116
1, 27264, Note_on_c, 0, 57, 108
1, 27311, Note_off_c, 0, 57, 108
1, 27348, Note_on_c, 0, 62, 118
1, 27416, Note_off_c, 0, 62, 118
1, 27417, Note_on_c, 0, 60, 111
1, 27453, Note_off_c, 0, 60, 111
1, 27461, Note_on_c, 0, 57, 107
1, 27514, Note_off_c, 0, 57, 107
1, 27516, Note_on_c, 0, 53, 109
1, 27559, Note_off_c, 0, 53, 109
1, 27565, Note_on_c, 0, 58, 111
1, 27613, Note_off_c, 0, 58, 111
1, 27625, Note_on_c, 0, 55, 112
1, 27671, Note_off_c, 0, 55, 112
1, 27676, Note_on_c, 0, 56, 109
1, 27705, Note_off_c, 0, 56, 109
1, 27713, Note_on_c, 0, 58, 107
1, 27764, Note_off_c, 0, 58, 107
1, 27775, Note_on_c, 0, 59, 114
1, 27830, Note_off_c, 0, 59, 114
1, 27841, Note_on_c, 0, 61, 111
1, 27878, Note_off_c, 0, 61, 111
1, 27895, Note_on_c, 0, 63, 111
1, 27954, Note_off_c, 0, 63, 111
1, 27981, Note_on_c, 0, 70, 113
1, 28020, Note_off_c, 0, 70, 113
1, 28024, Note_on_c, 0, 73, 113
1, 28086, Note_off_c, 0, 73, 113
1, 28109, Note_on_c, 0, 71, 112
1, 28137, Note_off_c, 0, 71, 112
1, 28148, Note_on_c, 0, 72, 114
1, 28205, Note_off_c, 0, 72, 114
1, 28207, Note_on_c, 0, 70, 98
1, 28257, Note_off_c, 0, 70, 98
1, 28260, Note_on_c, 0, 71, 115
1, 28322, Note_off_c, 0, 71, 115
1, 28343, Note_on_c, 0, 63, 107
1, 28380, Note_off_c, 0, 63, 107
1, 28381, Note_on_c, 0, 68, 97
1, 28406, Note_off_c, 0, 68, 97
1, 28418, Note_on_c, 0, 71, 112
1, 28495, Note_off_c, 0, 71, 112
1, 28499, Note_on_c, 0, 69, 109
1, 28558, Note_off_c, 0, 69, 109
1, 28796, Note_on_c, 0, 74, 114
1, 28863, Note_off_c, 0, 74, 114
1, 28864, Note_on_c, 0, 71, 108
1, 28875, Note_off_c, 0, 71, 108
1, 28875, Note_on_c, 0, 72, 116
1, 28957, Note_off_c, 0, 72, 116
1, 28959, Note_on_c, 0, 72, 113
1, 29010, Note_off_c, 0, 72, 113
1, 29020, Note_on_c, 0, 72, 112
1, 29065, Note_off_c, 0, 72, 112
1, 29492, Note_on_c, 0, 69, 117
1, 29559, Note_off_c, 0, 69, 117
1, 29560, Note_on_c, 0, 70, 116
1, 29620, Note_off_c, 0, 70, 116
1, 29634, Note_on_c, 0, 66, 91
1, 29665, Note_off_c, 0, 66, 91
1, 29690, Note_on_c, 0, 69, 120
1, 29745, Note_on_c, 0, 67, 103
1, 29745, Note_off_c, 0, 69, 120
1, 29824, Note_off_c, 0, 67, 103
1, 29877, Note_on_c, 0, 67, 103
1, 29962, Note_off_c, 0, 67, 103
1, 29980, Note_on_c, 0, 64, 122
1, 30043, Note_off_c, 0, 64, 122
1, 30078, Note_on_c, 0, 67, 116
1, 30134, Note_off_c, 0, 67, 116
1, 30172, Note_on_c, 0, 70, 119
1, 30230, Note_off_c, 0, 70, 119
1, 30276, Note_on_c, 0, 72, 120
1, 30339, Note_off_c, 0, 72, 120
1, 30379, Note_on_c, 0, 73, 122
1, 30456, Note_off_c, 0, 73, 122
1, 30456, Note_on_c, 0, 72, 96
1, 30517, Note_off_c, 0, 72, 96
1, 30524, Note_on_c, 0, 72, 118
1, 30609, Note_off_c, 0, 72, 118
1, 30659, Note_on_c, 0, 70, 119
1, 30711, Note_off_c, 0, 70, 119
1, 30750, Note_on_c, 0, 70, 118
1, 30843, Note_off_c, 0, 70, 118
1, 30860, Note_on_c, 0, 67, 92
1, 30895, Note_off_c, 0, 67, 92
1, 30900, Note_on_c, 0, 70, 116
1, 30991, Note_off_c, 0, 70, 116
1, 31089, Note_on_c, 0, 69, 118
1, 31190, Note_off_c, 0, 69, 118
1, 31215, Note_on_c, 0, 67, 113
1, 31285, Note_off_c, 0, 67, 113
1, 31326, Note_on_c, 0, 66, 117
1, 31391, Note_off_c, 0, 66, 117
1, 31441, Note_on_c, 0, 69, 118
1, 31487, Note_off_c, 0, 69, 118
1, 31506, Note_on_c, 0, 67, 116
1, 31650, Note_off_c, 0, 67, 116
1, 31691, Note_on_c, 0, 65, 118
1, 31827, Note_off_c, 0, 65, 118
1, 31839, Note_on_c, 0, 63, 108
1, 31878, Note_off_c, 0, 63, 108
1, 31885, Note_on_c, 0, 64, 120
1, 31970, Note_off_c, 0, 64, 120
1, 31990, Note_on_c, 0, 74, 115
1, 32015, Note_off_c, 0, 74, 115
1, 32044, Note_on_c, 0, 77, 117
1, 32181, Note_off_c, 0, 77, 117
1, 32191, Note_on_c, 0, 72, 113
1, 32248, Note_off_c, 0, 72, 113
1, 32312, Note_on_c, 0, 69, 113
1, 32482, Note_off_c, 0, 69, 113
1, 32621, Note_on_c, 0, 70, 113
1, 32687, Note_off_c, 0, 70, 113
1, 32699, Note_on_c, 0, 69, 110
1, 32728, Note_off_c, 0, 69, 110
1, 32730, Note_on_c, 0, 65, 107
1, 32778, Note_off_c, 0, 65, 107
1, 32785, Note_on_c, 0, 60, 103
1, 32809, Note_off_c, 0, 60, 103
1, 32810, Note_on_c, 0, 67, 115
1, 32853, Note_off_c, 0, 67, 115
1, 32866, Note_on_c, 0, 65, 110
1, 32928, Note_off_c, 0, 65, 110
1, 32930, Note_on_c, 0, 59, 112
1, 32965, Note_off_c, 0, 59, 112
1, 32965, Note_on_c, 0, 57, 110
1, 33003, Note_off_c, 0, 57, 110
1, 33005, Note_on_c, 0, 62, 119
1, 33046, Note_off_c, 0, 62, 119
1, 33046, Note_on_c, 0, 60, 109
1, 33077, Note_off_c, 0, 60, 109
1, 33082, Note_on_c, 0, 56, 108
1, 33100, Note_off_c, 0, 56, 108
1, 33105, Note_on_c, 0, 57, 113
1, 33133, Note_off_c, 0, 57, 113
1, 33138, Note_on_c, 0, 53, 104
1, 33168, Note_off_c, 0, 53, 104
1, 33173, Note_on_c, 0, 58, 112
1, 33234, Note_off_c, 0, 58, 112
1, 33239, Note_on_c, 0, 57, 113
1, 33263, Note_off_c, 0, 57, 113
1, 33267, Note_on_c, 0, 53, 113
1, 33318, Note_off_c, 0, 53, 113
1, 33326, Note_on_c, 0, 52, 115
1, 33351, Note_off_c, 0, 52, 115
1, 33357, Note_on_c, 0, 55, 113
1, 33405, Note_off_c, 0, 55, 113
1, 33423, Note_on_c, 0, 53, 123
1, 33463, Note_off_c, 0, 53, 123
1, 33467, Note_on_c, 0, 48, 116
1, 33507, Note_off_c, 0, 48, 116
1, 33515, Note_on_c, 0, 46, 116
1, 33552, Note_off_c, 0, 46, 116
1, 33557, Note_on_c, 0, 45, 118
1, 33628, Note_off_c, 0, 45, 118
1, 33998, Note_on_c, 0, 44, 118
1, 34057, Note_off_c, 0, 44, 118
1, 34058, Note_on_c, 0, 50, 121
1, 34087, Note_off_c, 0, 50, 121
1, 34088, Note_on_c, 0, 53, 114
1, 34134, Note_off_c, 0, 53, 114
1, 34134, Note_on_c, 0, 54, 116
1, 34160, Note_off_c, 0, 54, 116
1, 34173, Note_on_c, 0, 58, 115
1, 34211, Note_off_c, 0, 58, 115
1, 34211, Note_on_c, 0, 55, 20
1, 34252, Note_off_c, 0, 55, 20
1, 34258, Note_on_c, 0, 56, 88
1, 34291, Note_off_c, 0, 56, 88
1, 34297, Note_on_c, 0, 58, 116
1, 34344, Note_off_c, 0, 58, 116
1, 34346, Note_on_c, 0, 59, 115
1, 34388, Note_off_c, 0, 59, 115
1, 34397, Note_on_c, 0, 61, 119
1, 34438, Note_off_c, 0, 61, 119
1, 34447, Note_on_c, 0, 63, 118
1, 34478, Note_off_c, 0, 63, 118
1, 34478, Note_on_c, 0, 65, 120
1, 34532, Note_off_c, 0, 65, 120
1, 34535, Note_on_c, 0, 64, 123
1, 34580, Note_off_c, 0, 64, 123
1, 34580, Note_on_c, 0, 60, 117
1, 34617, Note_off_c, 0, 60, 117
1, 34617, Note_on_c, 0, 56, 113
1, 34679, Note_off_c, 0, 56, 113
1, 34680, Note_on_c, 0, 52, 112
1, 34708, Note_off_c, 0, 52, 112
1, 34711, Note_on_c, 0, 59, 114
1, 34768, Note_off_c, 0, 59, 114
1, 34768, Note_on_c, 0, 56, 111
1, 34843, Note_off_c, 0, 56, 111
1, 34846, Note_on_c, 0, 57, 116
1, 34869, Note_off_c, 0, 57, 116
1, 34871, Note_on_c, 0, 58, 116
1, 34908, Note_off_c, 0, 58, 116
1, 34912, Note_on_c, 0, 60, 115
1, 34964, Note_off_c, 0, 60, 115
1, 34968, Note_on_c, 0, 62, 116
1, 34999, Note_off_c, 0, 62, 116
1, 35008, Note_on_c, 0, 64, 118
1, 35059, Note_off_c, 0, 64, 118
1, 35059, Note_on_c, 0, 68, 112
1, 35081, Note_off_c, 0, 68, 112
1, 35085, Note_on_c, 0, 71, 114
1, 35143, Note_off_c, 0, 71, 114
1, 35143, Note_on_c, 0, 69, 115
1, 35190, Note_off_c, 0, 69, 115
1, 35192, Note_on_c, 0, 67, 112
1, 35237, Note_off_c, 0, 67, 112
1, 35239, Note_on_c, 0, 64, 110
1, 35269, Note_off_c, 0, 64, 110
1, 35279, Note_on_c, 0, 65, 116
1, 35444, Note_off_c, 0, 65, 116
1, 35657, Note_on_c, 0, 62, 123
1, 35809, Note_off_c, 0, 62, 123
1, 36048, Note_on_c, 0, 65, 120
1, 36146, Note_off_c, 0, 65, 120
1, 36219, Note_on_c, 0, 65, 120
1, 36357, Note_off_c, 0, 65, 120
1, 36372, Note_on_c, 0, 61, 109
1, 36417, Note_off_c, 0, 61, 109
1, 36422, Note_on_c, 0, 64, 122
1, 36552, Note_off_c, 0, 64, 122
1, 36557, Note_on_c, 0, 60, 102
1, 36605, Note_off_c, 0, 60, 102
1, 36609, Note_on_c, 0, 64, 118
1, 36729, Note_off_c, 0, 64, 118
1, 36741, Note_on_c, 0, 67, 119
1, 36796, Note_off_c, 0, 67, 119
1, 36848, Note_on_c, 0, 65, 120
1, 36928, Note_off_c, 0, 65, 120
1, 36953, Note_on_c, 0, 67, 120
1, 37003, Note_off_c, 0, 67, 120
1, 37043, Note_on_c, 0, 69, 122
1, 37098, Note_off_c, 0, 69, 122
1, 37113, Note_on_c, 0, 70, 108
1, 37189, Note_off_c, 0, 70, 108
1, 37209, Note_on_c, 0, 70, 118
1, 37264, Note_off_c, 0, 70, 118
1, 37273, Note_on_c, 0, 72, 118
1, 37489, Note_off_c, 0, 72, 118
1, 37496, Note_on_c, 0, 69, 111
1, 37515, Note_off_c, 0, 69, 111
1, 37517, Note_on_c, 0, 67, 119
1, 37548, Note_off_c, 0, 67, 119
1, 37552, Note_on_c, 0, 65, 116
1, 37578, Note_off_c, 0, 65, 116
1, 37583, Note_on_c, 0, 64, 120
1, 37627, Note_off_c, 0, 64, 120
1, 37633, Note_on_c, 0, 62, 116
1, 37655, Note_off_c, 0, 62, 116
1, 37660, Note_on_c, 0, 61, 115
1, 37701, Note_off_c, 0, 61, 115
1, 37710, Note_on_c, 0, 59, 112
1, 37741, Note_off_c, 0, 59, 112
1, 37743, Note_on_c, 0, 57, 116
1, 37764, Note_off_c, 0, 57, 116
1, 37771, Note_on_c, 0, 55, 116
1, 37799, Note_off_c, 0, 55, 116
1, 37806, Note_on_c, 0, 54, 114
1, 37828, Note_off_c, 0, 54, 114
1, 37832, Note_on_c, 0, 52, 115
1, 37860, Note_off_c, 0, 52, 115
1, 37865, Note_on_c, 0, 51, 117
1, 37896, Note_off_c, 0, 51, 117
1, 37904, Note_on_c, 0, 50, 115
1, 37929, Note_off_c, 0, 50, 115
1, 37936, Note_on_c, 0, 49, 116
1, 37968, Note_off_c, 0, 49, 116
1, 37969, Note_on_c, 0, 47, 117
1, 38010, Note_off_c, 0, 47, 117
1, 38013, Note_on_c, 0, 46, 116
1, 38035, Note_off_c, 0, 46, 116
1, 38040, Note_on_c, 0, 45, 118
1, 38149, Note_off_c, 0, 45, 118
1, 38709, Note_on_c, 0, 49, 116
1, 38745, Note_off_c, 0, 49, 116
1, 38756, Note_on_c, 0, 51, 112
1, 38792, Note_off_c, 0, 51, 112
1, 38793, Note_on_c, 0, 53, 119
1, 38837, Note_off_c, 0, 53, 119
1, 38844, Note_on_c, 0, 49, 118
1, 38885, Note_off_c, 0, 49, 118
1, 38886, Note_on_c, 0, 51, 114
1, 38922, Note_off_c, 0, 51, 114
1, 38925, Note_on_c, 0, 53, 116
1, 38951, Note_off_c, 0, 53, 116
1, 38957, Note_on_c, 0, 55, 120
1, 38977, Note_off_c, 0, 55, 120
1, 38983, Note_on_c, 0, 57, 118
1, 39017, Note_off_c, 0, 57, 118
1, 39023, Note_on_c, 0, 58, 118
1, 39075, Note_off_c, 0, 58, 118
1, 39076, Note_on_c, 0, 60, 120
1, 39096, Note_off_c, 0, 60, 120
1, 39101, Note_on_c, 0, 61, 118
1, 39119, Note_off_c, 0, 61, 118
1, 39122, Note_on_c, 0, 63, 123
1, 39151, Note_off_c, 0, 63, 123
1, 39158, Note_on_c, 0, 65, 118
1, 39219, Note_off_c, 0, 65, 118
1, 39223, Note_on_c, 0, 69, 116
1, 39253, Note_off_c, 0, 69, 116
1, 39256, Note_on_c, 0, 70, 120
1, 39296, Note_off_c, 0, 70, 120
1, 39314, Note_on_c, 0, 72, 121
1, 39426, Note_off_c, 0, 72, 121
1, 39430, Note_on_c, 0, 72, 118
1, 39495, Note_off_c, 0, 72, 118
1, 39498, Note_on_c, 0, 69, 122
1, 39546, Note_off_c, 0, 69, 122
1, 39553, Note_on_c, 0, 72, 121
1, 39771, Note_off_c, 0, 72, 121
1, 39777, Note_on_c, 0, 72, 121
1, 39838, Note_off_c, 0, 72, 121
1, 39840, Note_on_c, 0, 70, 118
1, 39891, Note_off_c, 0, 70, 118
1, 39898, Note_on_c, 0, 72, 121
1, 39936, Note_off_c, 0, 72, 121
1, 39945, Note_on_c, 0, 72, 121
1, 39991, Note_off_c, 0, 72, 121
1, 40012, Note_on_c, 0, 69, 117
1, 40055, Note_off_c, 0, 69, 117
1, 40061, Note_on_c, 0, 72, 120
1, 40104, Note_off_c, 0, 72, 120
1, 40116, Note_on_c, 0, 72, 122
1, 40155, Note_off_c, 0, 72, 122
1, 40176, Note_on_c, 0, 67, 117
1, 40213, Note_off_c, 0, 67, 117
1, 40213, Note_on_c, 0, 72, 115
1, 40264, Note_off_c, 0, 72, 115
1, 40273, Note_on_c, 0, 65, 118
1, 40421, Note_off_c, 0, 65, 118
1, 40625, Note_on_c, 0, 64, 120
1, 40748, Note_off_c, 0, 64, 120
1, 40751, Note_on_c, 0, 61, 106
1, 40794, Note_off_c, 0, 61, 106
1, 40805, Note_on_c, 0, 64, 121
1, 40920, Note_off_c, 0, 64, 121
1, 40930, Note_on_c, 0, 67, 117
1, 41008, Note_off_c, 0, 67, 117
1, 41031, Note_on_c, 0, 65, 118
1, 41120, Note_off_c, 0, 65, 118
1, 41186, Note_on_c, 0, 69, 95
1, 41212, Note_off_c, 0, 69, 95
1, 41216, Note_on_c, 0, 70, 117
1, 41301, Note_off_c, 0, 70, 117
1, 41313, Note_on_c, 0, 71, 115
1, 41428, Note_off_c, 0, 71, 115
1, 41440, Note_on_c, 0, 73, 118
1, 41491, Note_off_c, 0, 73, 118
1, 41501, Note_on_c, 0, 75, 120
1, 41597, Note_off_c, 0, 75, 120
1, 41617, Note_on_c, 0, 71, 120
1, 41687, Note_off_c, 0, 71, 120
1, 41724, Note_on_c, 0, 63, 107
1, 41773, Note_off_c, 0, 63, 107
1, 41773, Note_on_c, 0, 68, 119
1, 41890, Note_off_c, 0, 68, 119
1, 41902, Note_on_c, 0, 71, 120
1, 41980, Note_off_c, 0, 71, 120
1, 41994, Note_on_c, 0, 70, 118
1, 42088, Note_off_c, 0, 70, 118
1, 42100, Note_on_c, 0, 68, 119
1, 42195, Note_off_c, 0, 68, 119
1, 42208, Note_on_c, 0, 67, 116
1, 42298, Note_off_c, 0, 67, 116
1, 42322, Note_on_c, 0, 63, 102
1, 42357, Note_off_c, 0, 63, 102
1, 42362, Note_on_c, 0, 66, 117
1, 42487, Note_off_c, 0, 66, 117
1, 42510, Note_on_c, 0, 63, 108
1, 42550, Note_off_c, 0, 63, 108
1, 42561, Note_on_c, 0, 65, 119
1, 42672, Note_off_c, 0, 65, 119
1, 43069, Note_on_c, 0, 74, 119
1, 43137, Note_off_c, 0, 74, 119
1, 43138, Note_on_c, 0, 72, 121
1, 43184, Note_off_c, 0, 72, 121
1, 43205, Note_on_c, 0, 69, 105
1, 43257, Note_off_c, 0, 69, 105
1, 43264, Note_on_c, 0, 70, 113
1, 43327, Note_off_c, 0, 70, 113
1, 43336, Note_on_c, 0, 67, 116
1, 43410, Note_off_c, 0, 67, 116
1, 43715, Note_on_c, 0, 66, 122
1, 43815, Note_off_c, 0, 66, 122
1, 43846, Note_on_c, 0, 62, 107
1, 43896, Note_off_c, 0, 62, 107
1, 43904, Note_on_c, 0, 65, 117
1, 44011, Note_off_c, 0, 65, 117
1, 44015, Note_on_c, 0, 62, 102
1, 44056, Note_off_c, 0, 62, 102
1, 44057, Note_on_c, 0, 64, 117
1, 44188, Note_off_c, 0, 64, 117
1, 44225, Note_on_c, 0, 60, 110
1, 44275, Note_off_c, 0, 60, 110
1, 44285, Note_on_c, 0, 62, 118
1, 44370, Note_off_c, 0, 62, 118
1, 44398, Note_on_c, 0, 64, 118
1, 44479, Note_off_c, 0, 64, 118
1, 44505, Note_on_c, 0, 65, 117
1, 44573, Note_off_c, 0, 65, 117
1, 44601, Note_on_c, 0, 67, 118
1, 44657, Note_off_c, 0, 67, 118
1, 44677, Note_on_c, 0, 69, 121
1, 44758, Note_on_c, 0, 70, 115
1, 44758, Note_off_c, 0, 69, 121
1, 44828, Note_off_c, 0, 70, 115
1, 44836, Note_on_c, 0, 71, 117
1, 44862, Note_off_c, 0, 71, 117
1, 44869, Note_on_c, 0, 72, 121
1, 44946, Note_off_c, 0, 72, 121
1, 44951, Note_on_c, 0, 71, 118
1, 44980, Note_off_c, 0, 71, 118
1, 44987, Note_on_c, 0, 70, 115
1, 45044, Note_off_c, 0, 70, 115
1, 45048, Note_on_c, 0, 69, 119
1, 45130, Note_off_c, 0, 69, 119
1, 45159, Note_on_c, 0, 70, 118
1, 45264, Note_off_c, 0, 70, 118
1, 45267, Note_on_c, 0, 69, 115
1, 45312, Note_off_c, 0, 69, 115
1, 45316, Note_on_c, 0, 68, 119
1, 45370, Note_off_c, 0, 68, 119
1, 45377, Note_on_c, 0, 67, 115
1, 45436, Note_off_c, 0, 67, 115
1, 45467, Note_on_c, 0, 69, 121
1, 45545, Note_off_c, 0, 69, 121
1, 45551, Note_on_c, 0, 67, 109
1, 45594, Note_off_c, 0, 67, 109
1, 45597, Note_on_c, 0, 66, 117
1, 45657, Note_off_c, 0, 66, 117
1, 45664, Note_on_c, 0, 65, 117
1, 45727, Note_off_c, 0, 65, 117
1, 45749, Note_on_c, 0, 67, 118
1, 45839, Note_off_c, 0, 67, 118
1, 45849, Note_on_c, 0, 66, 118
1, 45886, Note_off_c, 0, 66, 118
1, 45892, Note_on_c, 0, 65, 118
1, 45924, Note_off_c, 0, 65, 118
1, 45929, Note_on_c, 0, 64, 121
1, 45979, Note_off_c, 0, 64, 121
1, 45983, Note_on_c, 0, 63, 119
1, 46198, Note_off_c, 0, 63, 119
1, 46208, Note_on_c, 0, 59, 116
1, 46259, Note_off_c, 0, 59, 116
1, 46279, Note_on_c, 0, 55, 118
1, 46302, Note_off_c, 0, 55, 118
1, 46317, Note_on_c, 0, 51, 110
1, 46354, Note_off_c, 0, 51, 110
1, 46364, Note_on_c, 0, 58, 127
1, 46402, Note_off_c, 0, 58, 127
1, 46412, Note_on_c, 0, 55, 125
1, 46456, Note_off_c, 0, 55, 125
1, 46460, Note_on_c, 0, 56, 124
1, 46499, Note_off_c, 0, 56, 124
1, 46501, Note_on_c, 0, 58, 120
1, 46551, Note_off_c, 0, 58, 120
1, 46558, Note_on_c, 0, 59, 119
1, 46601, Note_off_c, 0, 59, 119
1, 46607, Note_on_c, 0, 61, 115
1, 46652, Note_off_c, 0, 61, 115
1, 46657, Note_on_c, 0, 63, 121
1, 46693, Note_off_c, 0, 63, 121
1, 46698, Note_on_c, 0, 65, 116
1, 46743, Note_off_c, 0, 65, 116
1, 46746, Note_on_c, 0, 66, 117
1, 46783, Note_off_c, 0, 66, 117
1, 46784, Note_on_c, 0, 63, 118
1, 46817, Note_off_c, 0, 63, 118
1, 46823, Note_on_c, 0, 65, 118
1, 46869, Note_off_c, 0, 65, 118
1, 46873, Note_on_c, 0, 63, 117
1, 46911, Note_off_c, 0, 63, 117
1, 46914, Note_on_c, 0, 64, 119
1, 46960, Note_off_c, 0, 64, 119
1, 46968, Note_on_c, 0, 60, 115
1, 47004, Note_off_c, 0, 60, 115
1, 47006, Note_on_c, 0, 57, 113
1, 47040, Note_off_c, 0, 57, 113
1, 47056, Note_on_c, 0, 52, 115
1, 47097, Note_off_c, 0, 52, 115
1, 47105, Note_on_c, 0, 59, 113
1, 47146, Note_off_c, 0, 59, 113
1, 47150, Note_on_c, 0, 56, 114
1, 47196, Note_off_c, 0, 56, 114
1, 47202, Note_on_c, 0, 57, 112
1, 47240, Note_off_c, 0, 57, 112
1, 47254, Note_on_c, 0, 59, 112
1, 47286, Note_off_c, 0, 59, 112
1, 47296, Note_on_c, 0, 60, 115
1, 47336, Note_off_c, 0, 60, 115
1, 47344, Note_on_c, 0, 62, 107
1, 47380, Note_off_c, 0, 62, 107
1, 47386, Note_on_c, 0, 64, 122
1, 47447, Note_off_c, 0, 64, 122
1, 47453, Note_on_c, 0, 62, 113
1, 47477, Note_off_c, 0, 62, 113
1, 47479, Note_on_c, 0, 63, 121
1, 47521, Note_off_c, 0, 63, 121
1, 47529, Note_on_c, 0, 62, 117
1, 47566, Note_off_c, 0, 62, 117
1, 47578, Note_on_c, 0, 61, 117
1, 47625, Note_off_c, 0, 61, 117
1, 47627, Note_on_c, 0, 65, 119
1, 47676, Note_off_c, 0, 65, 119
1, 47678, Note_on_c, 0, 62, 118
1, 47713, Note_off_c, 0, 62, 118
1, 47716, Note_on_c, 0, 60, 116
1, 47741, Note_off_c, 0, 60, 116
1, 47741, Note_on_c, 0, 59, 111
1, 47802, Note_off_c, 0, 59, 111
1, 47807, Note_on_c, 0, 57, 112
1, 47838, Note_off_c, 0, 57, 112
1, 47843, Note_on_c, 0, 58, 113
1, 47881, Note_off_c, 0, 58, 113
1, 47885, Note_on_c, 0, 60, 109
1, 47919, Note_off_c, 0, 60, 109
1, 47922, Note_on_c, 0, 62, 111
1, 47970, Note_off_c, 0, 62, 111
1, 47985, Note_on_c, 0, 65, 104
1, 48018, Note_off_c, 0, 65, 104
1, 48029, Note_on_c, 0, 69, 122
1, 48072, Note_off_c, 0, 69, 122
1, 48077, Note_on_c, 0, 67, 114
1, 48112, Note_off_c, 0, 67, 114
1, 48114, Note_on_c, 0, 65, 114
1, 48159, Note_off_c, 0, 65, 114
1, 48162, Note_on_c, 0, 63, 105
1, 48182, Note_off_c, 0, 63, 105
1, 48192, Note_on_c, 0, 64, 119
1, 48222, Note_off_c, 0, 64, 119
1, 48227, Note_on_c, 0, 67, 111
1, 48260, Note_off_c, 0, 67, 111
1, 48265, Note_on_c, 0, 72, 121
1, 48301, Note_off_c, 0, 72, 121
1, 48307, Note_on_c, 0, 75, 115
1, 48343, Note_off_c, 0, 75, 115
1, 48638, Note_on_c, 0, 74, 120
1, 48661, Note_off_c, 0, 74, 120
1, 48663, Note_on_c, 0, 72, 120
1, 48684, Note_off_c, 0, 72, 120
1, 48688, Note_on_c, 0, 70, 111
1, 48707, Note_off_c, 0, 70, 111
1, 48708, Note_on_c, 0, 67, 111
1, 48734, Note_off_c, 0, 67, 111
1, 48741, Note_on_c, 0, 64, 117
1, 48764, Note_off_c, 0, 64, 117
1, 48767, Note_on_c, 0, 60, 113
1, 48810, Note_off_c, 0, 60, 113
1, 48812, Note_on_c, 0, 69, 109
1, 48855, Note_off_c, 0, 69, 109
1, 48861, Note_on_c, 0, 64, 117
1, 48901, Note_off_c, 0, 64, 117
1, 48903, Note_on_c, 0, 62, 114
1, 48954, Note_off_c, 0, 62, 114
1, 48967, Note_on_c, 0, 69, 116
1, 49003, Note_off_c, 0, 69, 116
1, 49005, Note_on_c, 0, 66, 117
1, 49040, Note_on_c, 0, 61, 114
1, 49040, Note_off_c, 0, 66, 117
1, 49083, Note_off_c, 0, 61, 114
1, 49086, Note_on_c, 0, 58, 114
1, 49131, Note_off_c, 0, 58, 114
1, 49144, Note_on_c, 0, 66, 113
1, 49200, Note_off_c, 0, 66, 113
1, 49202, Note_on_c, 0, 63, 115
1, 49235, Note_off_c, 0, 63, 115
1, 49235, Note_on_c, 0, 58, 112
1, 49288, Note_off_c, 0, 58, 112
1, 49296, Note_on_c, 0, 55, 108
1, 49331, Note_on_c, 0, 63, 120
1, 49331, Note_off_c, 0, 55, 108
1, 49382, Note_off_c, 0, 63, 120
1, 49385, Note_on_c, 0, 62, 115
1, 49425, Note_off_c, 0, 62, 115
1, 49431, Note_on_c, 0, 61, 116
1, 49457, Note_off_c, 0, 61, 116
1, 49468, Note_on_c, 0, 63, 117
1, 49509, Note_off_c, 0, 63, 117
1, 49515, Note_on_c, 0, 60, 116
1, 49564, Note_off_c, 0, 60, 116
1, 49569, Note_on_c, 0, 59, 121
1, 49610, Note_off_c, 0, 59, 121
1, 49625, Note_on_c, 0, 58, 120
1, 49675, Note_off_c, 0, 58, 120
1, 49677, Note_on_c, 0, 60, 111
1, 49704, Note_off_c, 0, 60, 111
1, 49719, Note_on_c, 0, 64, 107
1, 49773, Note_off_c, 0, 64, 107
1, 49777, Note_on_c, 0, 65, 115
1, 49808, Note_off_c, 0, 65, 115
1, 49810, Note_on_c, 0, 69, 122
1, 49852, Note_off_c, 0, 69, 122
1, 49854, Note_on_c, 0, 67, 118
1, 49892, Note_off_c, 0, 67, 118
1, 49896, Note_on_c, 0, 65, 116
1, 49934, Note_off_c, 0, 65, 116
1, 49935, Note_on_c, 0, 62, 115
1, 49979, Note_off_c, 0, 62, 115
1, 49980, Note_on_c, 0, 58, 112
1, 50015, Note_off_c, 0, 58, 112
1, 50027, Note_on_c, 0, 55, 104
1, 50064, Note_off_c, 0, 55, 104
1, 50073, Note_on_c, 0, 64, 123
1, 50128, Note_off_c, 0, 64, 123
1, 50131, Note_on_c, 0, 62, 120
1, 50176, Note_off_c, 0, 62, 120
1, 50177, Note_on_c, 0, 60, 112
1, 50210, Note_off_c, 0, 60, 112
1, 50212, Note_on_c, 0, 58, 112
1, 50266, Note_off_c, 0, 58, 112
1, 50270, Note_on_c, 0, 57, 115
1, 50301, Note_off_c, 0, 57, 115
1, 50301, Note_on_c, 0, 55, 119
1, 50340, Note_off_c, 0, 55, 119
1, 50343, Note_on_c, 0, 54, 109
1, 50377, Note_off_c, 0, 54, 109
1, 50389, Note_on_c, 0, 52, 113
1, 50472, Note_off_c, 0, 52, 113
1, 50476, Note_on_c, 0, 53, 112
1, 50582, Note_off_c, 0, 53, 112
1, 50582, End_track
0, 0, End_of_file
