0, 0, Header, 1, 1, 192
1, 0, Start_track
1, 0, Title_t, "Melody"
1, 0, Tempo, 188679
1, 0, Time_signature, 4, 2, 24, 8
1, 1162, Note_on_c, 0, 53, 107
1, 1229, Note_off_c, 0, 53, 107
1, 1240, Note_on_c, 0, 58, 106
1, 1343, Note_off_c, 0, 58, 106
1, 1343, Note_on_c, 0, 60, 113
1, 1413, Note_off_c, 0, 60, 113
1, 1418, Note_on_c, 0, 61, 114
1, 1530, Note_off_c, 0, 61, 114
1, 1532, Note_on_c, 0, 63, 121
1, 1632, Note_off_c, 0, 63, 121
1, 1633, Note_on_c, 0, 65, 113
1, 1697, Note_off_c, 0, 65, 113
1, 1699, Note_on_c, 0, 67, 113
1, 1758, Note_off_c, 0, 67, 113
1, 1763, Note_on_c, 0, 68, 119
1, 1813, Note_off_c, 0, 68, 119
1, 1817, Note_on_c, 0, 67, 111
1, 1920, Note_off_c, 0, 67, 111
1, 2410, Note_on_c, 0, 66, 105
1, 2439, Note_off_c, 0, 66, 105
1, 2443, Note_on_c, 0, 65, 116
1, 2513, Note_off_c, 0, 65, 116
1, 2514, Note_on_c, 0, 67, 107
1, 2559, Note_off_c, 0, 67, 107
1, 2560, Note_on_c, 0, 65, 105
1, 2650, Note_off_c, 0, 65, 105
1, 3067, Note_on_c, 0, 64, 85
1, 3110, Note_off_c, 0, 64, 85
1, 3111, Note_on_c, 0, 65, 116
1, 3161, Note_off_c, 0, 65, 116
1, 3162, Note_on_c, 0, 63, 110
1, 3331, Note_off_c, 0, 63, 110
1, 3756, Note_on_c, 0, 62, 121
1, 3796, Note_off_c, 0, 62, 121
1, 3796, Note_on_c, 0, 63, 118
1, 3847, Note_off_c, 0, 63, 118
1, 3849, Note_on_c, 0, 62, 108
1, 3958, Note_off_c, 0, 62, 108
1, 4310, Note_on_c, 0, 60, 111
1, 4521, Note_off_c, 0, 60, 111
1, 4537, Note_on_c, 0, 55, 105
1, 4721, Note_off_c, 0, 55, 105
1, 4731, Note_on_c, 0, 53, 106
1, 4936, Note_off_c, 0, 53, 106
1, 4944, Note_on_c, 0, 54, 108
1, 5085, Note_off_c, 0, 54, 108
1, 5128, Note_on_c, 0, 62, 114
1, 5647, Note_off_c, 0, 62, 114
1, 5653, Note_on_c, 0, 63, 119
1, 5747, Note_off_c, 0, 63, 119
1, 5751, Note_on_c, 0, 62, 113
1, 5866, Note_off_c, 0, 62, 113
1, 5871, Note_on_c, 0, 60, 106
1, 5946, Note_off_c, 0, 60, 106
1, 5953, Note_on_c, 0, 59, 102
1, 6038, Note_off_c, 0, 59, 102
1, 6042, Note_on_c, 0, 56, 104
1, 6108, Note_off_c, 0, 56, 104
1, 6115, Note_on_c, 0, 55, 101
1, 6210, Note_off_c, 0, 55, 101
1, 6226, Note_on_c, 0, 54, 103
1, 6316, Note_off_c, 0, 54, 103
1, 6329, Note_on_c, 0, 53, 103
1, 6417, Note_off_c, 0, 53, 103
1, 6433, Note_on_c, 0, 52, 104
1, 6496, Note_off_c, 0, 52, 104
1, 6501, Note_on_c, 0, 51, 110
1, 6596, Note_off_c, 0, 51, 110
1, 6601, Note_on_c, 0, 48, 107
1, 6738, Note_off_c, 0, 48, 107
1, 6740, Note_on_c, 0, 46, 109
1, 6890, Note_off_c, 0, 46, 109
1, 6894, Note_on_c, 0, 45, 108
1, 7196, Note_off_c, 0, 45, 108
1, 8597, Note_on_c, 0, 55, 105
1, 8670, Note_off_c, 0, 55, 105
1, 8678, Note_on_c, 0, 60, 102
1, 8778, Note_off_c, 0, 60, 102
1, 8785, Note_on_c, 0, 63, 104
1, 8847, Note_off_c, 0, 63, 104
1, 8851, Note_on_c, 0, 64, 114
1, 8892, Note_on_c, 0, 67, 112
1, 8892, Note_off_c, 0, 64, 114
1, 8999, Note_off_c, 0, 67, 112
1, 9366, Note_on_c, 0, 67, 108
1, 9423, Note_off_c, 0, 67, 108
1, 9428, Note_on_c, 0, 64, 115
1, 9503, Note_off_c, 0, 64, 115
1, 9507, Note_on_c, 0, 60, 107
1, 9598, Note_off_c, 0, 60, 107
1, 9600, Note_on_c, 0, 56, 105
1, 9662, Note_off_c, 0, 56, 105
1, 9666, Note_on_c, 0, 55, 112
1, 9761, Note_off_c, 0, 55, 112
1, 10172, Note_on_c, 0, 55, 105
1, 10239, Note_off_c, 0, 55, 105
1, 10241, Note_on_c, 0, 56, 108
1, 10327, Note_off_c, 0, 56, 108
1, 10336, Note_on_c, 0, 59, 99
1, 10397, Note_off_c, 0, 59, 99
1, 10401, Note_on_c, 0, 62, 108
1, 10441, Note_off_c, 0, 62, 108
1, 10443, Note_on_c, 0, 63, 108
1, 10478, Note_off_c, 0, 63, 108
1, 10483, Note_on_c, 0, 67, 113
1, 10756, Note_off_c, 0, 67, 113
1, 10758, Note_on_c, 0, 65, 111
1, 10803, Note_off_c, 0, 65, 111
1, 10806, Note_on_c, 0, 63, 115
1, 10851, Note_off_c, 0, 63, 115
1, 10855, Note_on_c, 0, 62, 115
1, 10904, Note_off_c, 0, 62, 115
1, 10912, Note_on_c, 0, 60, 108
1, 10966, Note_off_c, 0, 60, 108
1, 10987, Note_on_c, 0, 59, 104
1, 11028, Note_off_c, 0, 59, 104
1, 11058, Note_on_c, 0, 56, 104
1, 11094, Note_off_c, 0, 56, 104
1, 11097, Note_on_c, 0, 55, 104
1, 11147, Note_off_c, 0, 55, 104
1, 11155, Note_on_c, 0, 53, 104
1, 11192, Note_off_c, 0, 53, 104
1, 11200, Note_on_c, 0, 51, 108
1, 11229, Note_off_c, 0, 51, 108
1, 11234, Note_on_c, 0, 48, 110
1, 11308, Note_off_c, 0, 48, 110
1, 12364, Note_on_c, 0, 68, 111
1, 12482, Note_off_c, 0, 68, 111
1, 12488, Note_on_c, 0, 67, 107
1, 12562, Note_off_c, 0, 67, 107
1, 12568, Note_on_c, 0, 66, 112
1, 12655, Note_off_c, 0, 66, 112
1, 12663, Note_on_c, 0, 65, 109
1, 12743, Note_off_c, 0, 65, 109
1, 12753, Note_on_c, 0, 64, 119
1, 12836, Note_off_c, 0, 64, 119
1, 12842, Note_on_c, 0, 63, 115
1, 12933, Note_off_c, 0, 63, 115
1, 12941, Note_on_c, 0, 65, 114
1, 13028, Note_off_c, 0, 65, 114
1, 13038, Note_on_c, 0, 62, 116
1, 13135, Note_off_c, 0, 62, 116
1, 13139, Note_on_c, 0, 60, 115
1, 13215, Note_off_c, 0, 60, 115
1, 13223, Note_on_c, 0, 59, 106
1, 13314, Note_off_c, 0, 59, 106
1, 13320, Note_on_c, 0, 55, 104
1, 13380, Note_off_c, 0, 55, 104
1, 13396, Note_on_c, 0, 57, 109
1, 13468, Note_off_c, 0, 57, 109
1, 13473, Note_on_c, 0, 62, 112
1, 13569, Note_off_c, 0, 62, 112
1, 13578, Note_on_c, 0, 59, 106
1, 13678, Note_off_c, 0, 59, 106
1, 13684, Note_on_c, 0, 60, 110
1, 13808, Note_off_c, 0, 60, 110
1, 13814, Note_on_c, 0, 63, 104
1, 13892, Note_off_c, 0, 63, 104
1, 13898, Note_on_c, 0, 67, 93
1, 13975, Note_off_c, 0, 67, 93
1, 13978, Note_on_c, 0, 72, 104
1, 14089, Note_off_c, 0, 72, 104
1, 14098, Note_on_c, 0, 60, 111
1, 14194, Note_off_c, 0, 60, 111
1, 14587, Note_on_c, 0, 65, 113
1, 14697, Note_off_c, 0, 65, 113
1, 15193, Note_on_c, 0, 71, 118
1, 15330, Note_off_c, 0, 71, 118
1, 15784, Note_on_c, 0, 67, 115
1, 15898, Note_off_c, 0, 67, 115
1, 16379, Note_on_c, 0, 72, 116
1, 16497, Note_off_c, 0, 72, 116
1, 16723, Note_on_c, 0, 70, 118
1, 16833, Note_off_c, 0, 70, 118
1, 16847, Note_on_c, 0, 68, 117
1, 16934, Note_off_c, 0, 68, 117
1, 17118, Note_on_c, 0, 67, 117
1, 17217, Note_off_c, 0, 67, 117
1, 17225, Note_on_c, 0, 65, 111
1, 17326, Note_off_c, 0, 65, 111
1, 17913, Note_on_c, 0, 45, 121
1, 18425, Note_off_c, 0, 45, 121
1, 18740, Note_on_c, 0, 65, 115
1, 18991, Note_off_c, 0, 65, 115
1, 19503, Note_on_c, 0, 46, 113
1, 19787, Note_off_c, 0, 46, 113
1, 19951, Note_on_c, 0, 63, 126
1, 20212, Note_off_c, 0, 63, 126
1, 20214, Note_on_c, 0, 61, 114
1, 20290, Note_off_c, 0, 61, 114
1, 20294, Note_on_c, 0, 58, 110
1, 20397, Note_off_c, 0, 58, 110
1, 20403, Note_on_c, 0, 56, 106
1, 20473, Note_off_c, 0, 56, 106
1, 20485, Note_on_c, 0, 53, 106
1, 20626, Note_off_c, 0, 53, 106
1, 20891, Note_on_c, 0, 57, 100
1, 21250, Note_off_c, 0, 57, 100
1, 21274, Note_on_c, 0, 60, 113
1, 21392, Note_off_c, 0, 60, 113
1, 21410, Note_on_c, 0, 62, 115
1, 21493, Note_off_c, 0, 62, 115
1, 21499, Note_on_c, 0, 63, 114
1, 21600, Note_off_c, 0, 63, 114
1, 21612, Note_on_c, 0, 65, 117
1, 21674, Note_off_c, 0, 65, 117
1, 21690, Note_on_c, 0, 67, 100
1, 21766, Note_off_c, 0, 67, 100
1, 21766, Note_on_c, 0, 69, 99
1, 21851, Note_off_c, 0, 69, 99
1, 21855, Note_on_c, 0, 71, 119
1, 22023, Note_off_c, 0, 71, 119
1, 22027, Note_on_c, 0, 67, 115
1, 22153, Note_off_c, 0, 67, 115
1, 23041, Note_on_c, 0, 73, 116
1, 23236, Note_off_c, 0, 73, 116
1, 23244, Note_on_c, 0, 72, 120
1, 23320, Note_off_c, 0, 72, 120
1, 23326, Note_on_c, 0, 70, 119
1, 23396, Note_off_c, 0, 70, 119
1, 23396, Note_on_c, 0, 69, 116
1, 23524, Note_off_c, 0, 69, 116
1, 24325, Note_on_c, 0, 67, 118
1, 24952, Note_off_c, 0, 67, 118
1, 24957, Note_on_c, 0, 65, 119
1, 25030, Note_off_c, 0, 65, 119
1, 25044, Note_on_c, 0, 63, 118
1, 25111, Note_off_c, 0, 63, 118
1, 25128, Note_on_c, 0, 61, 110
1, 25201, Note_off_c, 0, 61, 110
1, 25213, Note_on_c, 0, 60, 109
1, 28311, Note_off_c, 0, 60, 109
1, 28315, Note_on_c, 0, 61, 117
1, 28576, Note_off_c, 0, 61, 117
1, 30131, Note_on_c, 0, 53, 103
1, 30219, Note_off_c, 0, 53, 103
1, 30230, Note_on_c, 0, 58, 104
1, 30333, Note_off_c, 0, 58, 104
1, 30335, Note_on_c, 0, 60, 110
1, 30402, Note_off_c, 0, 60, 110
1, 30407, Note_on_c, 0, 61, 113
1, 30489, Note_off_c, 0, 61, 113
1, 30494, Note_on_c, 0, 63, 121
1, 30583, Note_off_c, 0, 63, 121
1, 30594, Note_on_c, 0, 64, 117
1, 30693, Note_off_c, 0, 64, 117
1, 30698, Note_on_c, 0, 66, 115
1, 30774, Note_off_c, 0, 66, 115
1, 30779, Note_on_c, 0, 67, 117
1, 30872, Note_off_c, 0, 67, 117
1, 30874, Note_on_c, 0, 69, 108
1, 30941, Note_off_c, 0, 69, 108
1, 30941, Note_on_c, 0, 71, 115
1, 31065, Note_off_c, 0, 71, 115
1, 31065, Note_on_c, 0, 73, 115
1, 31154, Note_off_c, 0, 73, 115
1, 31163, Note_on_c, 0, 74, 112
1, 31246, Note_off_c, 0, 74, 112
1, 31250, Note_on_c, 0, 71, 108
1, 31362, Note_off_c, 0, 71, 108
1, 31375, Note_on_c, 0, 67, 106
1, 31445, Note_off_c, 0, 67, 106
1, 31457, Note_on_c, 0, 64, 103
1, 31544, Note_off_c, 0, 64, 103
1, 31547, Note_on_c, 0, 69, 107
1, 31648, Note_off_c, 0, 69, 107
1, 31653, Note_on_c, 0, 68, 111
1, 31748, Note_off_c, 0, 68, 111
1, 31755, Note_on_c, 0, 67, 111
1, 31815, Note_off_c, 0, 67, 111
1, 31815, Note_on_c, 0, 71, 108
1, 31908, Note_off_c, 0, 71, 108
1, 31912, Note_on_c, 0, 69, 114
1, 31994, Note_off_c, 0, 69, 114
1, 31996, Note_on_c, 0, 67, 108
1, 32091, Note_off_c, 0, 67, 108
1, 32110, Note_on_c, 0, 66, 113
1, 32188, Note_off_c, 0, 66, 113
1, 32198, Note_on_c, 0, 64, 119
1, 32289, Note_off_c, 0, 64, 119
1, 32291, Note_on_c, 0, 62, 117
1, 32469, Note_off_c, 0, 62, 117
1, 32474, Note_on_c, 0, 66, 113
1, 32639, Note_off_c, 0, 66, 113
1, 32664, Note_on_c, 0, 57, 103
1, 32854, Note_off_c, 0, 57, 103
1, 32861, Note_on_c, 0, 62, 116
1, 33047, Note_off_c, 0, 62, 116
1, 33101, Note_on_c, 0, 54, 104
1, 33242, Note_off_c, 0, 54, 104
1, 33243, Note_on_c, 0, 57, 107
1, 33423, Note_off_c, 0, 57, 107
1, 33431, Note_on_c, 0, 50, 111
1, 33627, Note_off_c, 0, 50, 111
1, 33634, Note_on_c, 0, 54, 109
1, 33839, Note_off_c, 0, 54, 109
1, 33855, Note_on_c, 0, 52, 116
1, 34134, Note_off_c, 0, 52, 116
1, 34144, Note_on_c, 0, 48, 108
1, 34304, Note_off_c, 0, 48, 108
1, 34311, Note_on_c, 0, 45, 113
1, 34857, Note_off_c, 0, 45, 113
1, 35464, Note_on_c, 0, 45, 116
1, 35551, Note_off_c, 0, 45, 116
1, 35551, Note_on_c, 0, 52, 110
1, 35638, Note_off_c, 0, 52, 110
1, 35644, Note_on_c, 0, 50, 106
1, 35754, Note_off_c, 0, 50, 106
1, 36148, Note_on_c, 0, 50, 111
1, 36218, Note_off_c, 0, 50, 111
1, 36226, Note_on_c, 0, 55, 109
1, 36327, Note_off_c, 0, 55, 109
1, 36331, Note_on_c, 0, 52, 110
1, 36438, Note_off_c, 0, 52, 110
1, 37108, Note_on_c, 0, 53, 110
1, 37195, Note_off_c, 0, 53, 110
1, 37197, Note_on_c, 0, 56, 107
1, 37269, Note_off_c, 0, 56, 107
1, 37271, Note_on_c, 0, 60, 112
1, 37351, Note_off_c, 0, 60, 112
1, 37351, Note_on_c, 0, 64, 120
1, 37444, Note_off_c, 0, 64, 120
1, 37458, Note_on_c, 0, 62, 118
1, 37563, Note_off_c, 0, 62, 118
1, 37565, Note_on_c, 0, 64, 118
1, 37668, Note_off_c, 0, 64, 118
1, 37674, Note_on_c, 0, 65, 109
1, 37777, Note_off_c, 0, 65, 109
1, 37779, Note_on_c, 0, 62, 111
1, 37839, Note_off_c, 0, 62, 111
1, 37841, Note_on_c, 0, 63, 120
1, 37926, Note_off_c, 0, 63, 120
1, 37930, Note_on_c, 0, 62, 118
1, 38046, Note_off_c, 0, 62, 118
1, 38054, Note_on_c, 0, 61, 104
1, 38101, Note_off_c, 0, 61, 104
1, 38107, Note_on_c, 0, 65, 116
1, 38190, Note_off_c, 0, 65, 116
1, 38194, Note_on_c, 0, 63, 121
1, 38295, Note_off_c, 0, 63, 121
1, 38301, Note_on_c, 0, 60, 110
1, 38375, Note_off_c, 0, 60, 110
1, 38401, Note_on_c, 0, 55, 115
1, 38473, Note_off_c, 0, 55, 115
1, 38493, Note_on_c, 0, 53, 102
1, 38584, Note_off_c, 0, 53, 102
1, 38590, Note_on_c, 0, 58, 113
1, 38691, Note_off_c, 0, 58, 113
1, 38691, Note_on_c, 0, 63, 124
1, 38784, Note_off_c, 0, 63, 124
1, 38794, Note_on_c, 0, 65, 115
1, 38881, Note_off_c, 0, 65, 115
1, 38885, Note_on_c, 0, 67, 114
1, 38974, Note_off_c, 0, 67, 114
1, 38976, Note_on_c, 0, 68, 119
1, 39050, Note_off_c, 0, 68, 119
1, 39056, Note_on_c, 0, 70, 116
1, 39157, Note_off_c, 0, 70, 116
1, 39175, Note_on_c, 0, 68, 113
1, 40524, Note_off_c, 0, 68, 113
1, 40528, Note_on_c, 0, 65, 114
1, 40606, Note_off_c, 0, 65, 114
1, 40616, Note_on_c, 0, 63, 111
1, 40699, Note_off_c, 0, 63, 111
1, 40707, Note_on_c, 0, 61, 114
1, 40785, Note_off_c, 0, 61, 114
1, 40795, Note_on_c, 0, 58, 109
1, 40878, Note_off_c, 0, 58, 109
1, 40890, Note_on_c, 0, 56, 107
1, 40964, Note_off_c, 0, 56, 107
1, 40970, Note_on_c, 0, 53, 113
1, 41042, Note_off_c, 0, 53, 113
1, 41050, Note_on_c, 0, 51, 114
1, 41097, Note_off_c, 0, 51, 114
1, 41101, Note_on_c, 0, 49, 111
1, 41198, Note_off_c, 0, 49, 111
1, 41202, Note_on_c, 0, 46, 106
1, 41413, Note_off_c, 0, 46, 106
1, 42449, Note_on_c, 0, 55, 107
1, 42523, Note_off_c, 0, 55, 107
1, 42531, Note_on_c, 0, 56, 106
1, 42611, Note_off_c, 0, 56, 106
1, 42619, Note_on_c, 0, 59, 109
1, 42681, Note_off_c, 0, 59, 109
1, 42689, Note_on_c, 0, 62, 117
1, 42790, Note_off_c, 0, 62, 117
1, 42794, Note_on_c, 0, 63, 122
1, 42899, Note_on_c, 0, 65, 115
1, 42899, Note_off_c, 0, 63, 122
1, 42973, Note_off_c, 0, 65, 115
1, 42983, Note_on_c, 0, 67, 116
1, 43086, Note_off_c, 0, 67, 116
1, 43090, Note_on_c, 0, 68, 119
1, 43146, Note_off_c, 0, 68, 119
1, 43150, Note_on_c, 0, 70, 106
1, 43251, Note_off_c, 0, 70, 106
1, 43257, Note_on_c, 0, 71, 118
1, 43323, Note_off_c, 0, 71, 118
1, 43329, Note_on_c, 0, 73, 112
1, 43414, Note_off_c, 0, 73, 112
1, 43418, Note_on_c, 0, 75, 112
1, 43631, Note_off_c, 0, 75, 112
1, 43639, Note_on_c, 0, 71, 114
1, 43736, Note_off_c, 0, 71, 114
1, 44438, Note_on_c, 0, 67, 114
1, 44551, Note_off_c, 0, 67, 114
1, 44553, Note_on_c, 0, 68, 114
1, 44628, Note_off_c, 0, 68, 114
1, 44632, Note_on_c, 0, 67, 115
1, 44717, Note_off_c, 0, 67, 115
1, 44718, Note_on_c, 0, 66, 114
1, 44816, Note_off_c, 0, 66, 114
1, 44827, Note_on_c, 0, 65, 113
1, 44902, Note_off_c, 0, 65, 113
1, 44907, Note_on_c, 0, 64, 118
1, 45005, Note_off_c, 0, 64, 118
1, 45009, Note_on_c, 0, 63, 118
1, 45112, Note_off_c, 0, 63, 118
1, 45123, Note_on_c, 0, 67, 106
1, 45218, Note_off_c, 0, 67, 106
1, 45218, Note_on_c, 0, 69, 106
1, 45287, Note_off_c, 0, 69, 106
1, 45288, Note_on_c, 0, 71, 110
1, 45386, Note_off_c, 0, 71, 110
1, 45403, Note_on_c, 0, 76, 118
1, 45476, Note_off_c, 0, 76, 118
1, 45478, Note_on_c, 0, 79, 117
1, 46001, Note_off_c, 0, 79, 117
1, 46052, Note_on_c, 0, 76, 120
1, 46139, Note_off_c, 0, 76, 120
1, 46146, Note_on_c, 0, 72, 111
1, 46302, Note_off_c, 0, 72, 111
1, 46307, Note_on_c, 0, 68, 117
1, 46491, Note_off_c, 0, 68, 117
1, 46504, Note_on_c, 0, 67, 116
1, 46703, Note_off_c, 0, 67, 116
1, 46707, Note_on_c, 0, 65, 117
1, 46893, Note_off_c, 0, 65, 117
1, 46921, Note_on_c, 0, 62, 111
1, 47014, Note_off_c, 0, 62, 111
1, 47016, Note_on_c, 0, 63, 122
1, 47431, Note_off_c, 0, 63, 122
1, 48137, Note_on_c, 0, 55, 109
1, 48210, Note_off_c, 0, 55, 109
1, 48212, Note_on_c, 0, 57, 110
1, 48282, Note_off_c, 0, 57, 110
1, 48284, Note_on_c, 0, 59, 109
1, 48368, Note_off_c, 0, 59, 109
1, 48376, Note_on_c, 0, 62, 117
1, 48448, Note_off_c, 0, 62, 117
1, 48450, Note_on_c, 0, 63, 118
1, 48553, Note_off_c, 0, 63, 118
1, 48557, Note_on_c, 0, 59, 108
1, 48655, Note_off_c, 0, 59, 108
1, 48662, Note_on_c, 0, 56, 108
1, 48734, Note_off_c, 0, 56, 108
1, 48741, Note_on_c, 0, 61, 110
1, 48834, Note_off_c, 0, 61, 110
1, 48836, Note_on_c, 0, 58, 112
1, 48942, Note_off_c, 0, 58, 112
1, 48946, Note_on_c, 0, 61, 113
1, 49039, Note_off_c, 0, 61, 113
1, 49047, Note_on_c, 0, 66, 105
1, 49153, Note_off_c, 0, 66, 105
1, 49197, Note_on_c, 0, 70, 106
1, 49233, Note_off_c, 0, 70, 106
1, 49238, Note_on_c, 0, 73, 112
1, 49323, Note_off_c, 0, 73, 112
1, 49345, Note_on_c, 0, 73, 109
1, 49424, Note_off_c, 0, 73, 109
1, 49434, Note_on_c, 0, 70, 113
1, 49503, Note_off_c, 0, 70, 113
1, 49529, Note_on_c, 0, 73, 111
1, 49610, Note_off_c, 0, 73, 111
1, 49610, Note_on_c, 0, 71, 111
1, 49707, Note_off_c, 0, 71, 111
1, 49723, Note_on_c, 0, 69, 113
1, 49804, Note_off_c, 0, 69, 113
1, 49814, Note_on_c, 0, 68, 115
1, 49896, Note_off_c, 0, 68, 115
1, 49901, Note_on_c, 0, 66, 111
1, 50033, Note_off_c, 0, 66, 111
1, 50035, Note_on_c, 0, 65, 116
1, 50108, Note_off_c, 0, 65, 116
1, 50124, Note_on_c, 0, 64, 122
1, 50203, Note_off_c, 0, 64, 122
1, 50208, Note_on_c, 0, 63, 121
1, 50290, Note_off_c, 0, 63, 121
1, 50303, Note_on_c, 0, 65, 119
1, 50434, Note_off_c, 0, 65, 119
1, 50436, Note_on_c, 0, 62, 121
1, 50505, Note_off_c, 0, 62, 121
1, 50509, Note_on_c, 0, 60, 111
1, 50597, Note_off_c, 0, 60, 111
1, 50598, Note_on_c, 0, 59, 108
1, 50667, Note_off_c, 0, 59, 108
1, 50674, Note_on_c, 0, 58, 100
1, 50759, Note_off_c, 0, 58, 100
1, 50763, Note_on_c, 0, 60, 116
1, 50866, Note_off_c, 0, 60, 116
1, 50877, Note_on_c, 0, 62, 118
1, 50947, Note_off_c, 0, 62, 118
1, 50948, Note_on_c, 0, 63, 114
1, 51063, Note_on_c, 0, 65, 103
1, 51063, Note_off_c, 0, 63, 114
1, 51153, Note_off_c, 0, 65, 103
1, 51160, Note_on_c, 0, 67, 114
1, 51284, Note_off_c, 0, 67, 114
1, 51288, Note_on_c, 0, 72, 113
1, 51431, Note_off_c, 0, 72, 113
1, 52506, Note_on_c, 0, 71, 110
1, 52634, Note_off_c, 0, 71, 110
1, 52638, Note_on_c, 0, 67, 114
1, 52697, Note_off_c, 0, 67, 114
1, 52697, Note_on_c, 0, 69, 117
1, 52747, Note_off_c, 0, 69, 117
1, 52751, Note_on_c, 0, 71, 110
1, 52855, Note_off_c, 0, 71, 110
1, 52860, Note_on_c, 0, 70, 114
1, 52939, Note_off_c, 0, 70, 114
1, 52940, Note_on_c, 0, 69, 110
1, 53038, Note_off_c, 0, 69, 110
1, 53042, Note_on_c, 0, 68, 113
1, 53149, Note_off_c, 0, 68, 113
1, 53154, Note_on_c, 0, 67, 110
1, 53223, Note_off_c, 0, 67, 110
1, 53225, Note_on_c, 0, 65, 114
1, 53347, Note_off_c, 0, 65, 114
1, 53348, Note_on_c, 0, 67, 108
1, 53420, Note_off_c, 0, 67, 108
1, 53425, Note_on_c, 0, 68, 114
1, 53537, Note_off_c, 0, 68, 114
1, 53553, Note_on_c, 0, 70, 115
1, 53623, Note_off_c, 0, 70, 115
1, 53628, Note_on_c, 0, 67, 114
1, 53731, Note_off_c, 0, 67, 114
1, 53733, Note_on_c, 0, 66, 110
1, 53833, Note_off_c, 0, 66, 110
1, 53837, Note_on_c, 0, 65, 113
1, 53925, Note_off_c, 0, 65, 113
1, 53927, Note_on_c, 0, 64, 125
1, 54020, Note_off_c, 0, 64, 125
1, 54024, Note_on_c, 0, 63, 124
1, 54112, Note_off_c, 0, 63, 124
1, 54125, Note_on_c, 0, 65, 108
1, 54200, Note_off_c, 0, 65, 108
1, 54202, Note_on_c, 0, 67, 113
1, 54287, Note_off_c, 0, 67, 113
1, 54292, Note_on_c, 0, 70, 106
1, 54385, Note_off_c, 0, 70, 106
1, 54390, Note_on_c, 0, 65, 115
1, 54466, Note_off_c, 0, 65, 115
1, 54474, Note_on_c, 0, 64, 114
1, 54572, Note_off_c, 0, 64, 114
1, 54573, Note_on_c, 0, 63, 119
1, 54661, Note_off_c, 0, 63, 119
1, 54671, Note_on_c, 0, 65, 114
1, 54756, Note_off_c, 0, 65, 114
1, 54764, Note_on_c, 0, 62, 118
1, 54873, Note_off_c, 0, 62, 118
1, 54876, Note_on_c, 0, 61, 112
1, 54939, Note_off_c, 0, 61, 112
1, 54944, Note_on_c, 0, 60, 112
1, 55040, Note_off_c, 0, 60, 112
1, 55049, Note_on_c, 0, 59, 108
1, 55125, Note_off_c, 0, 59, 108
1, 55131, Note_on_c, 0, 58, 115
1, 55234, Note_off_c, 0, 58, 115
1, 55243, Note_on_c, 0, 55, 109
1, 55331, Note_off_c, 0, 55, 109
1, 55341, Note_on_c, 0, 51, 109
1, 55445, Note_off_c, 0, 51, 109
1, 55453, Note_on_c, 0, 48, 109
1, 55518, Note_off_c, 0, 48, 109
1, 55528, Note_on_c, 0, 53, 118
1, 55589, Note_off_c, 0, 53, 118
1, 55591, Note_on_c, 0, 52, 111
1, 55695, Note_off_c, 0, 52, 111
1, 55698, Note_on_c, 0, 51, 113
1, 55784, Note_off_c, 0, 51, 113
1, 55787, Note_on_c, 0, 53, 111
1, 55837, Note_off_c, 0, 53, 111
1, 55838, Note_on_c, 0, 55, 111
1, 55870, Note_off_c, 0, 55, 111
1, 55878, Note_on_c, 0, 58, 111
1, 55957, Note_off_c, 0, 58, 111
1, 55986, Note_on_c, 0, 62, 102
1, 56050, Note_off_c, 0, 62, 102
1, 56062, Note_on_c, 0, 65, 120
1, 56166, Note_off_c, 0, 65, 120
1, 56177, Note_on_c, 0, 61, 119
1, 56255, Note_off_c, 0, 61, 119
1, 56263, Note_on_c, 0, 57, 111
1, 56361, Note_off_c, 0, 57, 111
1, 56373, Note_on_c, 0, 53, 108
1, 56434, Note_off_c, 0, 53, 108
1, 56448, Note_on_c, 0, 59, 109
1, 56593, Note_off_c, 0, 59, 109
1, 56600, Note_on_c, 0, 58, 107
1, 56669, Note_off_c, 0, 58, 107
1, 56687, Note_on_c, 0, 57, 107
1, 56755, Note_off_c, 0, 57, 107
1, 56757, Note_on_c, 0, 59, 108
1, 56830, Note_off_c, 0, 59, 108
1, 56850, Note_on_c, 0, 56, 108
1, 56937, Note_off_c, 0, 56, 108
1, 56944, Note_on_c, 0, 53, 94
1, 57018, Note_off_c, 0, 53, 94
1, 57022, Note_on_c, 0, 56, 114
1, 57121, Note_off_c, 0, 56, 114
1, 57129, Note_on_c, 0, 59, 106
1, 57232, Note_off_c, 0, 59, 106
1, 57236, Note_on_c, 0, 58, 106
1, 57310, Note_off_c, 0, 58, 106
1, 57313, Note_on_c, 0, 56, 107
1, 57432, Note_off_c, 0, 56, 107
1, 57440, Note_on_c, 0, 55, 104
1, 57515, Note_off_c, 0, 55, 104
1, 57523, Note_on_c, 0, 54, 108
1, 57593, Note_off_c, 0, 54, 108
1, 57602, Note_on_c, 0, 53, 117
1, 57696, Note_off_c, 0, 53, 117
1, 57699, Note_on_c, 0, 52, 109
1, 57794, Note_off_c, 0, 52, 109
1, 57801, Note_on_c, 0, 51, 111
1, 57891, Note_off_c, 0, 51, 111
1, 57896, Note_on_c, 0, 53, 111
1, 57961, Note_off_c, 0, 53, 111
1, 57964, Note_on_c, 0, 55, 113
1, 58076, Note_off_c, 0, 55, 113
1, 58082, Note_on_c, 0, 57, 108
1, 58139, Note_off_c, 0, 57, 108
1, 58163, Note_on_c, 0, 59, 106
1, 58270, Note_off_c, 0, 59, 106
1, 58276, Note_on_c, 0, 60, 114
1, 58364, Note_off_c, 0, 60, 114
1, 58367, Note_on_c, 0, 62, 115
1, 58442, Note_off_c, 0, 62, 115
1, 58450, Note_on_c, 0, 63, 113
1, 58542, Note_off_c, 0, 63, 113
1, 58545, Note_on_c, 0, 65, 114
1, 58635, Note_off_c, 0, 65, 114
1, 58659, Note_on_c, 0, 67, 104
1, 58729, Note_off_c, 0, 67, 104
1, 58733, Note_on_c, 0, 69, 111
1, 58818, Note_off_c, 0, 69, 111
1, 58824, Note_on_c, 0, 71, 115
1, 58931, Note_off_c, 0, 71, 115
1, 58935, Note_on_c, 0, 72, 106
1, 59029, Note_off_c, 0, 72, 106
1, 59034, Note_on_c, 0, 73, 108
1, 59121, Note_off_c, 0, 73, 108
1, 59124, Note_on_c, 0, 72, 117
1, 59273, Note_off_c, 0, 72, 117
1, 59697, Note_on_c, 0, 70, 119
1, 59813, Note_off_c, 0, 70, 119
1, 59815, Note_on_c, 0, 72, 110
1, 59883, Note_off_c, 0, 72, 110
1, 59886, Note_on_c, 0, 70, 120
1, 60056, Note_off_c, 0, 70, 120
1, 60266, Note_on_c, 0, 69, 116
1, 60372, Note_off_c, 0, 69, 116
1, 60374, Note_on_c, 0, 70, 104
1, 60475, Note_off_c, 0, 70, 104
1, 60479, Note_on_c, 0, 69, 118
1, 60675, Note_off_c, 0, 69, 118
1, 60688, Note_on_c, 0, 65, 10
1, 60885, Note_off_c, 0, 65, 10
1, 60899, Note_on_c, 0, 60, 106
1, 61026, Note_off_c, 0, 60, 106
1, 61033, Note_on_c, 0, 57, 102
1, 61191, Note_off_c, 0, 57, 102
1, 61208, Note_on_c, 0, 53, 108
1, 61364, Note_off_c, 0, 53, 108
1, 61380, Note_on_c, 0, 46, 111
1, 61639, Note_off_c, 0, 46, 111
1, 61641, Note_on_c, 0, 45, 113
1, 61794, Note_off_c, 0, 45, 113
1, 62901, Note_on_c, 0, 53, 104
1, 63011, Note_off_c, 0, 53, 104
1, 63012, Note_on_c, 0, 58, 104
1, 63081, Note_off_c, 0, 58, 104
1, 63082, Note_on_c, 0, 61, 105
1, 63152, Note_off_c, 0, 61, 105
1, 63156, Note_on_c, 0, 60, 109
1, 63268, Note_off_c, 0, 60, 109
1, 63272, Note_on_c, 0, 58, 104
1, 63338, Note_off_c, 0, 58, 104
1, 63346, Note_on_c, 0, 57, 104
1, 63443, Note_off_c, 0, 57, 104
1, 63468, Note_on_c, 0, 53, 102
1, 63566, Note_off_c, 0, 53, 102
1, 63566, Note_on_c, 0, 55, 102
1, 63628, Note_off_c, 0, 55, 102
1, 63638, Note_on_c, 0, 57, 101
1, 63707, Note_off_c, 0, 57, 101
1, 63715, Note_on_c, 0, 58, 105
1, 63850, Note_off_c, 0, 58, 105
1, 63852, Note_on_c, 0, 60, 106
1, 63903, Note_off_c, 0, 60, 106
1, 63904, Note_on_c, 0, 61, 104
1, 63998, Note_off_c, 0, 61, 104
1, 64009, Note_on_c, 0, 63, 112
1, 64110, Note_off_c, 0, 63, 112
1, 64115, Note_on_c, 0, 64, 110
1, 64228, Note_off_c, 0, 64, 110
1, 64232, Note_on_c, 0, 65, 108
1, 64294, Note_off_c, 0, 65, 108
1, 64296, Note_on_c, 0, 66, 107
1, 64366, Note_off_c, 0, 66, 107
1, 64377, Note_on_c, 0, 64, 103
1, 64481, Note_off_c, 0, 64, 103
1, 64485, Note_on_c, 0, 65, 108
1, 64572, Note_off_c, 0, 65, 108
1, 64580, Note_on_c, 0, 61, 109
1, 64655, Note_off_c, 0, 61, 109
1, 64655, Note_on_c, 0, 58, 106
1, 64761, Note_off_c, 0, 58, 106
1, 64766, Note_on_c, 0, 53, 93
1, 64857, Note_off_c, 0, 53, 93
1, 64859, Note_on_c, 0, 58, 102
1, 64947, Note_off_c, 0, 58, 102
1, 64948, Note_on_c, 0, 65, 105
1, 65026, Note_off_c, 0, 65, 105
1, 65033, Note_on_c, 0, 61, 105
1, 65121, Note_off_c, 0, 61, 105
1, 65131, Note_on_c, 0, 58, 97
1, 65225, Note_off_c, 0, 58, 97
1, 65235, Note_on_c, 0, 62, 112
1, 65333, Note_off_c, 0, 62, 112
1, 65350, Note_on_c, 0, 59, 94
1, 65448, Note_off_c, 0, 59, 94
1, 65453, Note_on_c, 0, 58, 83
1, 65553, Note_off_c, 0, 58, 83
1, 65558, Note_on_c, 0, 59, 116
1, 65636, Note_off_c, 0, 59, 116
1, 65643, Note_on_c, 0, 57, 101
1, 65716, Note_off_c, 0, 57, 101
1, 65717, Note_on_c, 0, 56, 97
1, 65811, Note_off_c, 0, 56, 97
1, 65818, Note_on_c, 0, 55, 98
1, 65897, Note_off_c, 0, 55, 98
1, 65910, Note_on_c, 0, 59, 100
1, 65977, Note_off_c, 0, 59, 100
1, 65987, Note_on_c, 0, 57, 103
1, 66043, Note_off_c, 0, 57, 103
1, 66047, Note_on_c, 0, 55, 100
1, 66137, Note_off_c, 0, 55, 100
1, 66148, Note_on_c, 0, 54, 99
1, 66239, Note_off_c, 0, 54, 99
1, 66252, Note_on_c, 0, 57, 101
1, 66339, Note_off_c, 0, 57, 101
1, 66353, Note_on_c, 0, 53, 102
1, 66416, Note_off_c, 0, 53, 102
1, 66426, Note_on_c, 0, 52, 105
1, 66517, Note_off_c, 0, 52, 105
1, 66522, Note_on_c, 0, 51, 105
1, 66589, Note_off_c, 0, 51, 105
1, 66608, Note_on_c, 0, 53, 106
1, 66702, Note_off_c, 0, 53, 106
1, 66713, Note_on_c, 0, 50, 106
1, 66804, Note_off_c, 0, 50, 106
1, 66811, Note_on_c, 0, 53, 99
1, 66878, Note_off_c, 0, 53, 99
1, 66892, Note_on_c, 0, 58, 109
1, 66990, Note_off_c, 0, 58, 109
1, 66997, Note_on_c, 0, 62, 113
1, 67075, Note_off_c, 0, 62, 113
1, 67086, Note_on_c, 0, 63, 118
1, 67140, Note_off_c, 0, 63, 118
1, 67140, Note_on_c, 0, 59, 103
1, 67241, Note_off_c, 0, 59, 103
1, 67243, Note_on_c, 0, 56, 101
1, 67330, Note_off_c, 0, 56, 101
1, 67338, Note_on_c, 0, 61, 108
1, 67398, Note_off_c, 0, 61, 108
1, 67402, Note_on_c, 0, 58, 104
1, 67509, Note_off_c, 0, 58, 104
1, 67517, Note_on_c, 0, 61, 104
1, 67617, Note_off_c, 0, 61, 104
1, 67630, Note_on_c, 0, 66, 103
1, 67718, Note_off_c, 0, 66, 103
1, 67722, Note_on_c, 0, 70, 97
1, 67803, Note_off_c, 0, 70, 97
1, 67808, Note_on_c, 0, 73, 102
1, 67902, Note_off_c, 0, 73, 102
1, 67909, Note_on_c, 0, 73, 101
1, 67984, Note_off_c, 0, 73, 101
1, 68007, Note_on_c, 0, 70, 98
1, 68070, Note_off_c, 0, 70, 98
1, 68080, Note_on_c, 0, 73, 103
1, 68167, Note_off_c, 0, 73, 103
1, 68172, Note_on_c, 0, 71, 107
1, 68263, Note_off_c, 0, 71, 107
1, 68292, Note_on_c, 0, 64, 107
1, 68367, Note_off_c, 0, 64, 107
1, 68375, Note_on_c, 0, 66, 105
1, 68457, Note_off_c, 0, 66, 105
1, 68462, Note_on_c, 0, 71, 105
1, 68546, Note_off_c, 0, 71, 105
1, 68553, Note_on_c, 0, 69, 108
1, 68635, Note_off_c, 0, 69, 108
1, 68652, Note_on_c, 0, 62, 99
1, 68727, Note_off_c, 0, 62, 99
1, 68731, Note_on_c, 0, 64, 111
1, 68825, Note_off_c, 0, 64, 111
1, 68827, Note_on_c, 0, 69, 111
1, 68914, Note_off_c, 0, 69, 111
1, 68922, Note_on_c, 0, 67, 104
1, 69003, Note_off_c, 0, 67, 104
1, 69073, Note_on_c, 0, 60, 104
1, 69127, Note_off_c, 0, 60, 104
1, 69132, Note_on_c, 0, 62, 110
1, 69213, Note_off_c, 0, 62, 110
1, 69220, Note_on_c, 0, 67, 105
1, 69302, Note_off_c, 0, 67, 105
1, 69312, Note_on_c, 0, 65, 104
1, 69366, Note_off_c, 0, 65, 104
1, 69370, Note_on_c, 0, 64, 99
1, 69395, Note_off_c, 0, 64, 99
1, 69403, Note_on_c, 0, 58, 100
1, 69476, Note_off_c, 0, 58, 100
1, 69484, Note_on_c, 0, 60, 102
1, 69585, Note_off_c, 0, 60, 102
1, 69586, Note_on_c, 0, 65, 105
1, 69659, Note_off_c, 0, 65, 105
1, 69664, Note_on_c, 0, 63, 114
1, 69745, Note_off_c, 0, 63, 114
1, 69764, Note_on_c, 0, 56, 99
1, 69880, Note_off_c, 0, 56, 99
1, 69882, Note_on_c, 0, 58, 97
1, 69979, Note_off_c, 0, 58, 97
1, 69996, Note_on_c, 0, 63, 112
1, 70068, Note_off_c, 0, 63, 112
1, 70072, Note_on_c, 0, 61, 106
1, 70095, Note_off_c, 0, 61, 106
1, 70099, Note_on_c, 0, 60, 97
1, 70172, Note_off_c, 0, 60, 97
1, 70188, Note_on_c, 0, 53, 101
1, 70260, Note_off_c, 0, 53, 101
1, 70264, Note_on_c, 0, 56, 112
1, 70342, Note_off_c, 0, 56, 112
1, 70356, Note_on_c, 0, 61, 107
1, 70419, Note_off_c, 0, 61, 107
1, 70435, Note_on_c, 0, 59, 107
1, 70513, Note_off_c, 0, 59, 107
1, 70530, Note_on_c, 0, 52, 101
1, 70600, Note_off_c, 0, 52, 101
1, 70601, Note_on_c, 0, 55, 105
1, 70671, Note_off_c, 0, 55, 105
1, 70679, Note_on_c, 0, 59, 101
1, 70755, Note_off_c, 0, 59, 101
1, 70763, Note_on_c, 0, 57, 103
1, 70866, Note_off_c, 0, 57, 103
1, 70877, Note_on_c, 0, 51, 98
1, 70943, Note_off_c, 0, 51, 98
1, 70947, Note_on_c, 0, 64, 110
1, 71016, Note_off_c, 0, 64, 110
1, 71018, Note_on_c, 0, 69, 105
1, 71116, Note_off_c, 0, 69, 105
1, 71117, Note_on_c, 0, 67, 106
1, 71242, Note_off_c, 0, 67, 106
1, 71856, Note_on_c, 0, 45, 110
1, 71918, Note_off_c, 0, 45, 110
1, 71922, Note_on_c, 0, 51, 106
1, 72005, Note_off_c, 0, 51, 106
1, 72019, Note_on_c, 0, 55, 104
1, 72133, Note_off_c, 0, 55, 104
1, 72137, Note_on_c, 0, 51, 106
1, 72217, Note_off_c, 0, 51, 106
1, 72223, Note_on_c, 0, 48, 111
1, 72324, Note_off_c, 0, 48, 111
1, 72330, Note_on_c, 0, 53, 103
1, 72404, Note_off_c, 0, 53, 103
1, 72412, Note_on_c, 0, 58, 109
1, 72519, Note_off_c, 0, 58, 109
1, 72523, Note_on_c, 0, 60, 101
1, 72612, Note_off_c, 0, 60, 101
1, 72622, Note_on_c, 0, 63, 114
1, 72723, Note_off_c, 0, 63, 114
1, 72731, Note_on_c, 0, 60, 105
1, 72780, Note_off_c, 0, 60, 105
1, 72788, Note_on_c, 0, 66, 100
1, 72873, Note_off_c, 0, 66, 100
1, 72881, Note_on_c, 0, 61, 98
1, 72959, Note_off_c, 0, 61, 98
1, 72969, Note_on_c, 0, 58, 108
1, 73066, Note_off_c, 0, 58, 108
1, 73099, Note_on_c, 0, 55, 107
1, 73196, Note_off_c, 0, 55, 107
1, 73200, Note_on_c, 0, 56, 100
1, 73274, Note_off_c, 0, 56, 100
1, 73282, Note_on_c, 0, 58, 112
1, 73377, Note_off_c, 0, 58, 112
1, 73383, Note_on_c, 0, 59, 111
1, 73466, Note_off_c, 0, 59, 111
1, 73477, Note_on_c, 0, 61, 106
1, 73541, Note_off_c, 0, 61, 106
1, 73549, Note_on_c, 0, 63, 111
1, 73661, Note_off_c, 0, 63, 111
1, 73669, Note_on_c, 0, 66, 107
1, 73784, Note_off_c, 0, 66, 107
1, 73784, Note_on_c, 0, 65, 109
1, 73851, Note_off_c, 0, 65, 109
1, 73859, Note_on_c, 0, 64, 115
1, 73929, Note_off_c, 0, 64, 115
1, 73949, Note_on_c, 0, 63, 113
1, 74028, Note_off_c, 0, 63, 113
1, 74057, Note_on_c, 0, 66, 107
1, 74133, Note_off_c, 0, 66, 107
1, 74141, Note_on_c, 0, 64, 115
1, 74200, Note_off_c, 0, 64, 115
1, 74232, Note_on_c, 0, 61, 102
1, 74294, Note_off_c, 0, 61, 102
1, 74305, Note_on_c, 0, 59, 103
1, 74402, Note_off_c, 0, 59, 103
1, 74406, Note_on_c, 0, 54, 89
1, 74477, Note_off_c, 0, 54, 89
1, 74515, Note_on_c, 0, 57, 108
1, 74579, Note_off_c, 0, 57, 108
1, 74590, Note_on_c, 0, 62, 107
1, 74677, Note_off_c, 0, 62, 107
1, 74685, Note_on_c, 0, 59, 95
1, 74765, Note_off_c, 0, 59, 95
1, 74879, Note_on_c, 0, 60, 109
1, 74959, Note_off_c, 0, 60, 109
1, 74965, Note_on_c, 0, 61, 100
1, 75018, Note_off_c, 0, 61, 100
1, 75030, Note_on_c, 0, 63, 114
1, 75094, Note_off_c, 0, 63, 114
1, 75102, Note_on_c, 0, 62, 113
1, 75187, Note_off_c, 0, 62, 113
1, 75195, Note_on_c, 0, 61, 105
1, 75257, Note_off_c, 0, 61, 105
1, 75271, Note_on_c, 0, 62, 109
1, 75351, Note_off_c, 0, 62, 109
1, 75377, Note_on_c, 0, 67, 105
1, 75420, Note_off_c, 0, 67, 105
1, 75420, Note_on_c, 0, 69, 110
1, 75492, Note_off_c, 0, 69, 110
1, 75496, Note_on_c, 0, 70, 105
1, 75564, Note_off_c, 0, 70, 105
1, 75570, Note_on_c, 0, 72, 109
1, 75628, Note_off_c, 0, 72, 109
1, 75632, Note_on_c, 0, 74, 107
1, 75681, Note_off_c, 0, 74, 107
1, 75681, Note_on_c, 0, 73, 113
1, 75778, Note_off_c, 0, 73, 113
1, 76220, Note_on_c, 0, 70, 114
1, 76344, Note_off_c, 0, 70, 114
1, 76751, Note_on_c, 0, 65, 115
1, 76863, Note_off_c, 0, 65, 115
1, 76869, Note_on_c, 0, 70, 110
1, 76958, Note_off_c, 0, 70, 110
1, 77331, Note_on_c, 0, 67, 110
1, 77426, Note_off_c, 0, 67, 110
1, 77436, Note_on_c, 0, 62, 113
1, 77556, Note_off_c, 0, 62, 113
1, 77796, Note_on_c, 0, 67, 107
1, 77903, Note_off_c, 0, 67, 107
1, 77907, Note_on_c, 0, 64, 111
1, 77987, Note_off_c, 0, 64, 111
1, 77995, Note_on_c, 0, 62, 113
1, 78069, Note_off_c, 0, 62, 113
1, 78073, Note_on_c, 0, 59, 103
1, 78149, Note_off_c, 0, 59, 103
1, 78151, Note_on_c, 0, 56, 106
1, 78225, Note_off_c, 0, 56, 106
1, 78237, Note_on_c, 0, 53, 104
1, 78349, Note_off_c, 0, 53, 104
1, 78349, Note_on_c, 0, 56, 100
1, 78425, Note_off_c, 0, 56, 100
1, 78431, Note_on_c, 0, 59, 105
1, 78509, Note_off_c, 0, 59, 105
1, 78517, Note_on_c, 0, 62, 111
1, 78610, Note_off_c, 0, 62, 111
1, 78632, Note_on_c, 0, 57, 106
1, 78688, Note_off_c, 0, 57, 106
1, 78692, Note_on_c, 0, 55, 99
1, 78787, Note_off_c, 0, 55, 99
1, 78795, Note_on_c, 0, 56, 100
1, 78888, Note_off_c, 0, 56, 100
1, 78898, Note_on_c, 0, 58, 103
1, 78968, Note_off_c, 0, 58, 103
1, 78976, Note_on_c, 0, 59, 106
1, 79061, Note_off_c, 0, 59, 106
1, 79071, Note_on_c, 0, 61, 106
1, 79147, Note_off_c, 0, 61, 106
1, 79147, Note_on_c, 0, 63, 108
1, 79265, Note_on_c, 0, 66, 93
1, 79265, Note_off_c, 0, 63, 108
1, 79325, Note_off_c, 0, 66, 93
1, 79331, Note_on_c, 0, 67, 108
1, 79443, Note_off_c, 0, 67, 108
1, 79459, Note_on_c, 0, 66, 105
1, 79529, Note_off_c, 0, 66, 105
1, 79535, Note_on_c, 0, 63, 110
1, 79615, Note_off_c, 0, 63, 110
1, 79625, Note_on_c, 0, 59, 85
1, 79695, Note_off_c, 0, 59, 85
1, 79713, Note_on_c, 0, 69, 97
1, 79806, Note_off_c, 0, 69, 97
1, 79808, Note_on_c, 0, 68, 110
1, 79868, Note_off_c, 0, 68, 110
1, 79878, Note_on_c, 0, 67, 103
1, 79931, Note_off_c, 0, 67, 103
1, 79935, Note_on_c, 0, 65, 96
1, 79997, Note_off_c, 0, 65, 96
1, 80007, Note_on_c, 0, 62, 93
1, 80063, Note_off_c, 0, 62, 93
1, 80075, Note_on_c, 0, 71, 96
1, 80172, Note_off_c, 0, 71, 96
1, 80186, Note_on_c, 0, 69, 93
1, 80246, Note_off_c, 0, 69, 93
1, 80250, Note_on_c, 0, 70, 108
1, 80368, Note_off_c, 0, 70, 108
1, 80380, Note_on_c, 0, 67, 105
1, 80469, Note_off_c, 0, 67, 105
1, 80473, Note_on_c, 0, 69, 99
1, 80564, Note_off_c, 0, 69, 99
1, 80574, Note_on_c, 0, 67, 101
1, 80657, Note_off_c, 0, 67, 101
1, 80657, Note_on_c, 0, 68, 104
1, 80737, Note_off_c, 0, 68, 104
1, 80743, Note_on_c, 0, 70, 102
1, 80815, Note_off_c, 0, 70, 102
1, 80825, Note_on_c, 0, 71, 103
1, 80897, Note_off_c, 0, 71, 103
1, 80897, Note_on_c, 0, 69, 92
1, 80973, Note_off_c, 0, 69, 92
1, 80979, Note_on_c, 0, 70, 103
1, 81338, Note_off_c, 0, 70, 103
1, 81373, Note_on_c, 0, 68, 109
1, 81470, Note_off_c, 0, 68, 109
1, 81472, Note_on_c, 0, 67, 105
1, 81767, Note_off_c, 0, 67, 105
1, 81776, Note_on_c, 0, 66, 104
1, 81873, Note_off_c, 0, 66, 104
1, 81887, Note_on_c, 0, 65, 107
1, 82017, Note_off_c, 0, 65, 107
1, 82031, Note_on_c, 0, 64, 112
1, 82095, Note_off_c, 0, 64, 112
1, 82111, Note_on_c, 0, 63, 114
1, 82208, Note_off_c, 0, 63, 114
1, 82210, Note_on_c, 0, 67, 106
1, 82284, Note_off_c, 0, 67, 106
1, 82286, Note_on_c, 0, 65, 106
1, 82373, Note_off_c, 0, 65, 106
1, 82381, Note_on_c, 0, 62, 109
1, 82464, Note_off_c, 0, 62, 109
1, 82474, Note_on_c, 0, 58, 105
1, 82538, Note_off_c, 0, 58, 105
1, 82554, Note_on_c, 0, 55, 94
1, 82634, Note_off_c, 0, 55, 94
1, 82671, Note_on_c, 0, 62, 118
1, 82770, Note_off_c, 0, 62, 118
1, 82776, Note_on_c, 0, 60, 108
1, 82854, Note_off_c, 0, 60, 108
1, 82858, Note_on_c, 0, 58, 106
1, 82932, Note_off_c, 0, 58, 106
1, 82969, Note_on_c, 0, 55, 101
1, 83039, Note_off_c, 0, 55, 101
1, 83049, Note_on_c, 0, 57, 107
1, 83132, Note_off_c, 0, 57, 107
1, 83138, Note_on_c, 0, 55, 105
1, 83204, Note_off_c, 0, 55, 105
1, 83222, Note_on_c, 0, 53, 113
1, 83309, Note_off_c, 0, 53, 113
1, 83311, Note_on_c, 0, 51, 102
1, 83400, Note_off_c, 0, 51, 102
1, 83412, Note_on_c, 0, 45, 115
1, 83571, Note_off_c, 0, 45, 115
1, 83610, Note_on_c, 0, 51, 115
1, 83703, Note_off_c, 0, 51, 115
1, 83719, Note_on_c, 0, 45, 119
1, 83885, Note_off_c, 0, 45, 119
1, 84609, Note_on_c, 0, 45, 115
1, 84706, Note_off_c, 0, 45, 115
1, 84716, Note_on_c, 0, 51, 113
1, 84811, Note_off_c, 0, 51, 113
1, 84813, Note_on_c, 0, 57, 105
1, 84904, Note_off_c, 0, 57, 105
1, 84908, Note_on_c, 0, 47, 108
1, 84997, Note_off_c, 0, 47, 108
1, 85009, Note_on_c, 0, 51, 107
1, 85106, Note_off_c, 0, 51, 107
1, 85118, Note_on_c, 0, 55, 103
1, 85178, Note_off_c, 0, 55, 103
1, 85186, Note_on_c, 0, 59, 107
1, 85260, Note_off_c, 0, 59, 107
1, 85270, Note_on_c, 0, 54, 110
1, 85346, Note_off_c, 0, 54, 110
1, 85393, Note_on_c, 0, 50, 95
1, 85461, Note_off_c, 0, 50, 95
1, 85477, Note_on_c, 0, 53, 108
1, 85562, Note_off_c, 0, 53, 108
1, 85564, Note_on_c, 0, 52, 111
1, 85653, Note_off_c, 0, 52, 111
1, 85657, Note_on_c, 0, 51, 105
1, 85729, Note_off_c, 0, 51, 105
1, 85762, Note_on_c, 0, 55, 106
1, 85822, Note_off_c, 0, 55, 106
1, 85830, Note_on_c, 0, 59, 112
1, 85904, Note_off_c, 0, 59, 112
1, 85924, Note_on_c, 0, 62, 108
1, 86002, Note_off_c, 0, 62, 108
1, 86026, Note_on_c, 0, 66, 111
1, 86100, Note_off_c, 0, 66, 111
1, 86108, Note_on_c, 0, 62, 106
1, 86164, Note_off_c, 0, 62, 106
1, 86170, Note_on_c, 0, 59, 106
1, 86250, Note_off_c, 0, 59, 106
1, 86287, Note_on_c, 0, 55, 95
1, 86343, Note_off_c, 0, 55, 95
1, 86376, Note_on_c, 0, 65, 112
1, 86452, Note_off_c, 0, 65, 112
1, 86460, Note_on_c, 0, 62, 113
1, 86540, Note_off_c, 0, 62, 113
1, 86550, Note_on_c, 0, 59, 107
1, 86641, Note_off_c, 0, 59, 107
1, 86651, Note_on_c, 0, 57, 97
1, 86719, Note_off_c, 0, 57, 97
1, 86725, Note_on_c, 0, 58, 108
1, 86820, Note_off_c, 0, 58, 108
1, 86844, Note_on_c, 0, 54, 102
1, 86939, Note_off_c, 0, 54, 102
1, 86943, Note_on_c, 0, 50, 104
1, 87023, Note_off_c, 0, 50, 104
1, 87035, Note_on_c, 0, 46, 112
1, 87145, Note_off_c, 0, 46, 112
1, 87577, Note_on_c, 0, 46, 116
1, 87653, Note_off_c, 0, 46, 116
1, 87653, Note_on_c, 0, 50, 105
1, 87706, Note_off_c, 0, 50, 105
1, 87714, Note_on_c, 0, 53, 97
1, 87749, Note_off_c, 0, 53, 97
1, 87754, Note_on_c, 0, 58, 105
1, 87848, Note_off_c, 0, 58, 105
1, 87850, Note_on_c, 0, 53, 109
1, 87953, Note_off_c, 0, 53, 109
1, 87955, Note_on_c, 0, 52, 104
1, 88031, Note_off_c, 0, 52, 104
1, 88039, Note_on_c, 0, 51, 103
1, 88112, Note_off_c, 0, 51, 103
1, 88117, Note_on_c, 0, 53, 104
1, 88220, Note_off_c, 0, 53, 104
1, 88231, Note_on_c, 0, 50, 103
1, 88331, Note_off_c, 0, 50, 103
1, 88336, Note_on_c, 0, 55, 95
1, 88377, Note_off_c, 0, 55, 95
1, 88388, Note_on_c, 0, 58, 106
1, 88485, Note_off_c, 0, 58, 106
1, 88487, Note_on_c, 0, 62, 105
1, 88575, Note_off_c, 0, 62, 105
1, 88589, Note_on_c, 0, 57, 114
1, 88680, Note_off_c, 0, 57, 114
1, 88682, Note_on_c, 0, 55, 105
1, 88788, Note_off_c, 0, 55, 105
1, 88793, Note_on_c, 0, 56, 102
1, 88863, Note_off_c, 0, 56, 102
1, 88865, Note_on_c, 0, 58, 105
1, 88947, Note_off_c, 0, 58, 105
1, 88955, Note_on_c, 0, 59, 103
1, 89064, Note_off_c, 0, 59, 103
1, 89066, Note_on_c, 0, 57, 98
1, 89125, Note_off_c, 0, 57, 98
1, 89136, Note_on_c, 0, 58, 104
1, 89251, Note_off_c, 0, 58, 104
1, 89256, Note_on_c, 0, 57, 105
1, 89320, Note_off_c, 0, 57, 105
1, 89325, Note_on_c, 0, 56, 104
1, 89410, Note_off_c, 0, 56, 104
1, 89418, Note_on_c, 0, 55, 103
1, 89518, Note_off_c, 0, 55, 103
1, 89529, Note_on_c, 0, 54, 104
1, 89620, Note_off_c, 0, 54, 104
1, 89626, Note_on_c, 0, 50, 103
1, 89700, Note_off_c, 0, 50, 103
1, 89726, Note_on_c, 0, 53, 107
1, 89904, Note_off_c, 0, 53, 107
1, 89916, Note_on_c, 0, 50, 107
1, 90075, Note_off_c, 0, 50, 107
1, 90077, Note_on_c, 0, 52, 112
1, 90257, Note_off_c, 0, 52, 112
1, 90267, Note_on_c, 0, 46, 110
1, 90412, Note_off_c, 0, 46, 110
1, 90848, Note_on_c, 0, 45, 105
1, 90960, Note_off_c, 0, 45, 105
1, 90970, Note_on_c, 0, 51, 114
1, 91037, Note_off_c, 0, 51, 114
1, 91044, Note_on_c, 0, 55, 116
1, 91128, Note_off_c, 0, 55, 116
1, 91390, Note_on_c, 0, 47, 105
1, 91468, Note_off_c, 0, 47, 105
1, 91468, Note_on_c, 0, 51, 105
1, 91553, Note_off_c, 0, 51, 105
1, 91558, Note_on_c, 0, 55, 105
1, 91679, Note_off_c, 0, 55, 105
1, 91959, Note_on_c, 0, 44, 123
1, 92025, Note_off_c, 0, 44, 123
1, 92026, Note_on_c, 0, 46, 115
1, 92079, Note_off_c, 0, 46, 115
1, 92083, Note_on_c, 0, 48, 103
1, 92130, Note_off_c, 0, 48, 103
1, 92146, Note_on_c, 0, 52, 110
1, 92240, Note_off_c, 0, 52, 110
1, 92505, Note_on_c, 0, 46, 113
1, 92592, Note_off_c, 0, 46, 113
1, 92599, Note_on_c, 0, 50, 106
1, 92686, Note_off_c, 0, 50, 106
1, 92691, Note_on_c, 0, 54, 104
1, 92788, Note_off_c, 0, 54, 104
1, 93073, Note_on_c, 0, 46, 118
1, 93157, Note_off_c, 0, 46, 118
1, 93162, Note_on_c, 0, 50, 108
1, 93253, Note_off_c, 0, 50, 108
1, 93261, Note_on_c, 0, 54, 106
1, 93327, Note_off_c, 0, 54, 106
1, 93338, Note_on_c, 0, 58, 108
1, 93432, Note_off_c, 0, 58, 108
1, 93445, Note_on_c, 0, 53, 113
1, 93538, Note_off_c, 0, 53, 113
1, 93543, Note_on_c, 0, 51, 100
1, 93636, Note_off_c, 0, 51, 100
1, 93644, Note_on_c, 0, 52, 108
1, 93716, Note_off_c, 0, 52, 108
1, 93726, Note_on_c, 0, 51, 113
1, 93805, Note_off_c, 0, 51, 113
1, 93813, Note_on_c, 0, 50, 103
1, 93891, Note_off_c, 0, 50, 103
1, 94212, Note_on_c, 0, 47, 107
1, 94285, Note_off_c, 0, 47, 107
1, 94292, Note_on_c, 0, 51, 118
1, 94362, Note_off_c, 0, 51, 118
1, 94367, Note_on_c, 0, 55, 105
1, 94434, Note_off_c, 0, 55, 105
1, 94438, Note_on_c, 0, 59, 108
1, 94523, Note_off_c, 0, 59, 108
1, 94531, Note_on_c, 0, 54, 110
1, 94613, Note_off_c, 0, 54, 110
1, 94618, Note_on_c, 0, 51, 101
1, 94719, Note_off_c, 0, 51, 101
1, 94732, Note_on_c, 0, 53, 110
1, 94808, Note_off_c, 0, 53, 110
1, 94812, Note_on_c, 0, 52, 110
1, 94881, Note_off_c, 0, 52, 110
1, 94895, Note_on_c, 0, 51, 106
1, 94990, Note_off_c, 0, 51, 106
1, 95301, Note_on_c, 0, 46, 112
1, 95364, Note_off_c, 0, 46, 112
1, 95372, Note_on_c, 0, 50, 109
1, 95453, Note_off_c, 0, 50, 109
1, 95461, Note_on_c, 0, 54, 108
1, 95571, Note_off_c, 0, 54, 108
1, 95850, Note_on_c, 0, 50, 107
1, 95940, Note_off_c, 0, 50, 107
1, 95950, Note_on_c, 0, 54, 108
1, 96019, Note_off_c, 0, 54, 108
1, 96025, Note_on_c, 0, 58, 110
1, 96131, Note_off_c, 0, 58, 110
1, 96137, Note_on_c, 0, 62, 118
1, 96228, Note_off_c, 0, 62, 118
1, 96239, Note_on_c, 0, 63, 119
1, 96327, Note_off_c, 0, 63, 119
1, 96333, Note_on_c, 0, 62, 119
1, 96439, Note_off_c, 0, 62, 119
1, 96445, Note_on_c, 0, 61, 115
1, 96511, Note_off_c, 0, 61, 115
1, 96515, Note_on_c, 0, 60, 107
1, 96585, Note_off_c, 0, 60, 107
1, 96603, Note_on_c, 0, 59, 110
1, 96687, Note_off_c, 0, 59, 110
1, 96698, Note_on_c, 0, 57, 105
1, 96788, Note_off_c, 0, 57, 105
1, 96801, Note_on_c, 0, 58, 110
1, 96892, Note_off_c, 0, 58, 110
1, 96909, Note_on_c, 0, 55, 106
1, 97000, Note_off_c, 0, 55, 106
1, 97003, Note_on_c, 0, 56, 107
1, 97066, Note_off_c, 0, 56, 107
1, 97073, Note_on_c, 0, 58, 110
1, 97163, Note_off_c, 0, 58, 110
1, 97166, Note_on_c, 0, 59, 109
1, 97244, Note_off_c, 0, 59, 109
1, 97255, Note_on_c, 0, 61, 112
1, 97337, Note_off_c, 0, 61, 112
1, 97342, Note_on_c, 0, 63, 117
1, 97446, Note_off_c, 0, 63, 117
1, 97450, Note_on_c, 0, 66, 112
1, 97531, Note_off_c, 0, 66, 112
1, 97535, Note_on_c, 0, 65, 112
1, 97623, Note_off_c, 0, 65, 112
1, 97637, Note_on_c, 0, 64, 114
1, 97712, Note_off_c, 0, 64, 114
1, 97719, Note_on_c, 0, 63, 116
1, 97804, Note_off_c, 0, 63, 116
1, 97805, Note_on_c, 0, 65, 113
1, 97908, Note_off_c, 0, 65, 113
1, 97916, Note_on_c, 0, 62, 110
1, 97991, Note_off_c, 0, 62, 110
1, 97999, Note_on_c, 0, 60, 107
1, 98081, Note_off_c, 0, 60, 107
1, 98091, Note_on_c, 0, 59, 103
1, 98167, Note_off_c, 0, 59, 103
1, 98188, Note_on_c, 0, 55, 105
1, 98251, Note_off_c, 0, 55, 105
1, 98258, Note_on_c, 0, 60, 113
1, 98352, Note_off_c, 0, 60, 113
1, 98355, Note_on_c, 0, 63, 118
1, 98459, Note_off_c, 0, 63, 118
1, 98465, Note_on_c, 0, 62, 115
1, 98531, Note_off_c, 0, 62, 115
1, 98538, Note_on_c, 0, 60, 104
1, 98616, Note_off_c, 0, 60, 104
1, 98621, Note_on_c, 0, 59, 106
1, 98699, Note_off_c, 0, 59, 106
1, 98713, Note_on_c, 0, 55, 101
1, 98810, Note_off_c, 0, 55, 101
1, 98816, Note_on_c, 0, 57, 105
1, 98909, Note_off_c, 0, 57, 105
1, 98917, Note_on_c, 0, 62, 114
1, 99010, Note_off_c, 0, 62, 114
1, 99025, Note_on_c, 0, 59, 105
1, 99107, Note_off_c, 0, 59, 105
1, 99112, Note_on_c, 0, 60, 108
1, 99202, Note_off_c, 0, 60, 108
1, 99206, Note_on_c, 0, 63, 108
1, 99303, Note_off_c, 0, 63, 108
1, 99351, Note_on_c, 0, 70, 115
1, 99458, Note_off_c, 0, 70, 115
1, 99465, Note_on_c, 0, 67, 109
1, 99568, Note_off_c, 0, 67, 109
1, 99572, Note_on_c, 0, 68, 112
1, 99635, Note_off_c, 0, 68, 112
1, 99645, Note_on_c, 0, 71, 105
1, 99714, Note_off_c, 0, 71, 105
1, 99734, Note_on_c, 0, 75, 115
1, 99793, Note_off_c, 0, 75, 115
1, 99818, Note_on_c, 0, 79, 116
1, 99869, Note_off_c, 0, 79, 116
1, 99869, Note_on_c, 0, 80, 115
1, 100669, Note_off_c, 0, 80, 115
1, 101658, Note_on_c, 0, 45, 116
1, 101740, Note_off_c, 0, 45, 116
1, 101747, Note_on_c, 0, 51, 110
1, 101841, Note_off_c, 0, 51, 110
1, 101854, Note_on_c, 0, 55, 107
1, 101930, Note_off_c, 0, 55, 107
1, 101941, Note_on_c, 0, 50, 113
1, 102060, Note_off_c, 0, 50, 113
1, 102062, Note_on_c, 0, 51, 111
1, 102124, Note_off_c, 0, 51, 111
1, 102125, Note_on_c, 0, 55, 106
1, 102223, Note_off_c, 0, 55, 106
1, 102233, Note_on_c, 0, 59, 109
1, 102321, Note_off_c, 0, 59, 109
1, 102323, Note_on_c, 0, 63, 116
1, 102423, Note_off_c, 0, 63, 116
1, 102427, Note_on_c, 0, 62, 116
1, 102493, Note_off_c, 0, 62, 116
1, 102507, Note_on_c, 0, 59, 105
1, 102604, Note_off_c, 0, 59, 105
1, 102620, Note_on_c, 0, 55, 94
1, 102674, Note_off_c, 0, 55, 94
1, 102675, Note_on_c, 0, 60, 114
1, 102788, Note_off_c, 0, 60, 114
1, 102795, Note_on_c, 0, 62, 117
1, 102855, Note_off_c, 0, 62, 117
1, 102863, Note_on_c, 0, 63, 121
1, 102969, Note_off_c, 0, 63, 121
1, 102983, Note_on_c, 0, 65, 107
1, 103058, Note_off_c, 0, 65, 107
1, 103062, Note_on_c, 0, 67, 113
1, 103115, Note_off_c, 0, 67, 113
1, 103122, Note_on_c, 0, 70, 111
1, 103210, Note_off_c, 0, 70, 111
1, 103215, Note_on_c, 0, 67, 112
1, 103316, Note_off_c, 0, 67, 112
1, 103326, Note_on_c, 0, 68, 115
1, 103399, Note_off_c, 0, 68, 115
1, 103399, Note_on_c, 0, 71, 105
1, 103450, Note_off_c, 0, 71, 105
1, 103450, Note_on_c, 0, 73, 103
1, 103482, Note_off_c, 0, 73, 103
1, 103484, Note_on_c, 0, 75, 115
1, 103560, Note_off_c, 0, 75, 115
1, 103564, Note_on_c, 0, 79, 117
1, 103664, Note_off_c, 0, 79, 117
1, 103666, Note_on_c, 0, 80, 117
1, 103764, Note_off_c, 0, 80, 117
1, 103765, Note_on_c, 0, 79, 120
1, 104091, Note_off_c, 0, 79, 120
1, 104096, Note_on_c, 0, 75, 100
1, 104128, Note_off_c, 0, 75, 100
1, 104130, Note_on_c, 0, 76, 121
1, 104212, Note_off_c, 0, 76, 121
1, 104222, Note_on_c, 0, 72, 109
1, 104341, Note_off_c, 0, 72, 109
1, 104354, Note_on_c, 0, 68, 114
1, 104444, Note_off_c, 0, 68, 114
1, 104879, Note_on_c, 0, 45, 122
1, 104967, Note_off_c, 0, 45, 122
1, 104972, Note_on_c, 0, 51, 115
1, 105057, Note_off_c, 0, 51, 115
1, 105062, Note_on_c, 0, 55, 109
1, 105144, Note_off_c, 0, 55, 109
1, 105155, Note_on_c, 0, 51, 116
1, 105231, Note_off_c, 0, 51, 116
1, 105236, Note_on_c, 0, 48, 111
1, 105309, Note_off_c, 0, 48, 111
1, 105311, Note_on_c, 0, 50, 97
1, 105373, Note_off_c, 0, 50, 97
1, 105384, Note_on_c, 0, 53, 112
1, 105481, Note_off_c, 0, 53, 112
1, 105485, Note_on_c, 0, 52, 108
1, 105551, Note_off_c, 0, 52, 108
1, 105555, Note_on_c, 0, 51, 108
1, 105637, Note_off_c, 0, 51, 108
1, 105648, Note_on_c, 0, 53, 104
1, 105721, Note_off_c, 0, 53, 104
1, 105731, Note_on_c, 0, 58, 106
1, 105841, Note_off_c, 0, 58, 106
1, 105852, Note_on_c, 0, 62, 107
1, 105939, Note_off_c, 0, 62, 107
1, 105940, Note_on_c, 0, 65, 113
1, 106024, Note_off_c, 0, 65, 113
1, 106032, Note_on_c, 0, 62, 115
1, 106114, Note_off_c, 0, 62, 115
1, 106118, Note_on_c, 0, 58, 104
1, 106213, Note_off_c, 0, 58, 104
1, 106217, Note_on_c, 0, 55, 95
1, 106281, Note_off_c, 0, 55, 95
1, 106288, Note_on_c, 0, 60, 115
1, 106375, Note_off_c, 0, 60, 115
1, 106379, Note_on_c, 0, 63, 117
1, 106472, Note_off_c, 0, 63, 117
1, 106476, Note_on_c, 0, 62, 116
1, 106570, Note_off_c, 0, 62, 116
1, 106574, Note_on_c, 0, 60, 106
1, 106646, Note_off_c, 0, 60, 106
1, 106648, Note_on_c, 0, 59, 104
1, 106711, Note_off_c, 0, 59, 104
1, 106713, Note_on_c, 0, 58, 103
1, 106749, Note_off_c, 0, 58, 103
1, 106754, Note_on_c, 0, 55, 106
1, 106810, Note_off_c, 0, 55, 106
1, 106821, Note_on_c, 0, 57, 106
1, 106900, Note_off_c, 0, 57, 106
1, 106907, Note_on_c, 0, 59, 102
1, 106988, Note_off_c, 0, 59, 102
1, 106995, Note_on_c, 0, 60, 109
1, 107098, Note_off_c, 0, 60, 109
1, 107108, Note_on_c, 0, 62, 116
1, 107205, Note_off_c, 0, 62, 116
1, 107209, Note_on_c, 0, 63, 119
1, 107293, Note_off_c, 0, 63, 119
1, 107300, Note_on_c, 0, 65, 117
1, 107390, Note_off_c, 0, 65, 117
1, 107401, Note_on_c, 0, 66, 110
1, 107507, Note_off_c, 0, 66, 110
1, 107515, Note_on_c, 0, 67, 98
1, 107571, Note_off_c, 0, 67, 98
1, 107576, Note_on_c, 0, 68, 117
1, 107676, Note_off_c, 0, 68, 117
1, 107680, Note_on_c, 0, 66, 101
1, 107739, Note_off_c, 0, 66, 101
1, 107744, Note_on_c, 0, 67, 109
1, 107837, Note_off_c, 0, 67, 109
1, 107844, Note_on_c, 0, 66, 109
1, 107939, Note_off_c, 0, 66, 109
1, 107953, Note_on_c, 0, 65, 111
1, 108026, Note_off_c, 0, 65, 111
1, 108033, Note_on_c, 0, 64, 117
1, 108123, Note_off_c, 0, 64, 117
1, 108128, Note_on_c, 0, 63, 115
1, 108228, Note_off_c, 0, 63, 115
1, 108239, Note_on_c, 0, 65, 112
1, 108309, Note_off_c, 0, 65, 112
1, 108313, Note_on_c, 0, 67, 106
1, 108385, Note_off_c, 0, 67, 106
1, 108407, Note_on_c, 0, 70, 102
1, 108485, Note_off_c, 0, 70, 102
1, 108492, Note_on_c, 0, 73, 105
1, 108582, Note_off_c, 0, 73, 105
1, 108586, Note_on_c, 0, 74, 106
1, 108683, Note_off_c, 0, 74, 106
1, 108687, Note_on_c, 0, 70, 102
1, 108774, Note_off_c, 0, 70, 102
1, 108819, Note_on_c, 0, 67, 98
1, 108879, Note_off_c, 0, 67, 98
1, 108882, Note_on_c, 0, 71, 109
1, 108936, Note_off_c, 0, 71, 109
1, 108940, Note_on_c, 0, 72, 105
1, 109067, Note_off_c, 0, 72, 105
1, 109071, Note_on_c, 0, 71, 102
1, 109124, Note_off_c, 0, 71, 102
1, 109128, Note_on_c, 0, 69, 107
1, 109184, Note_off_c, 0, 69, 107
1, 109188, Note_on_c, 0, 67, 106
1, 109319, Note_off_c, 0, 67, 106
1, 109381, Note_on_c, 0, 67, 100
1, 109413, Note_off_c, 0, 67, 100
1, 109418, Note_on_c, 0, 69, 112
1, 109506, Note_off_c, 0, 69, 112
1, 109522, Note_on_c, 0, 72, 104
1, 109606, Note_off_c, 0, 72, 104
1, 109611, Note_on_c, 0, 71, 109
1, 109687, Note_off_c, 0, 71, 109
1, 109691, Note_on_c, 0, 69, 90
1, 109748, Note_off_c, 0, 69, 90
1, 109770, Note_on_c, 0, 70, 110
1, 109870, Note_off_c, 0, 70, 110
1, 109883, Note_on_c, 0, 67, 105
1, 109976, Note_off_c, 0, 67, 105
1, 109980, Note_on_c, 0, 68, 109
1, 110061, Note_off_c, 0, 68, 109
1, 110065, Note_on_c, 0, 72, 91
1, 110150, Note_off_c, 0, 72, 91
1, 110151, Note_on_c, 0, 75, 108
1, 110244, Note_off_c, 0, 75, 108
1, 110248, Note_on_c, 0, 79, 114
1, 110364, Note_off_c, 0, 79, 114
1, 110377, Note_on_c, 0, 81, 93
1, 111447, Note_off_c, 0, 81, 93
1, 111752, Note_on_c, 0, 78, 119
1, 111834, Note_off_c, 0, 78, 119
1, 111836, Note_on_c, 0, 80, 118
1, 111912, Note_off_c, 0, 80, 118
1, 111914, Note_on_c, 0, 79, 112
1, 112103, Note_off_c, 0, 79, 112
1, 112141, Note_on_c, 0, 75, 109
1, 112306, Note_off_c, 0, 75, 109
1, 112322, Note_on_c, 0, 72, 112
1, 112480, Note_off_c, 0, 72, 112
1, 112497, Note_on_c, 0, 67, 110
1, 112584, Note_off_c, 0, 67, 110
1, 112594, Note_on_c, 0, 68, 111
1, 112687, Note_off_c, 0, 68, 111
1, 112695, Note_on_c, 0, 67, 110
1, 112991, Note_off_c, 0, 67, 110
1, 113010, Note_on_c, 0, 63, 116
1, 113389, Note_off_c, 0, 63, 116
1, 114102, Note_on_c, 0, 67, 114
1, 114196, Note_off_c, 0, 67, 114
1, 114205, Note_on_c, 0, 69, 106
1, 114280, Note_off_c, 0, 69, 106
1, 114283, Note_on_c, 0, 71, 113
1, 114373, Note_off_c, 0, 71, 113
1, 114378, Note_on_c, 0, 72, 109
1, 114472, Note_off_c, 0, 72, 109
1, 114475, Note_on_c, 0, 71, 111
1, 114573, Note_off_c, 0, 71, 111
1, 114577, Note_on_c, 0, 69, 112
1, 114683, Note_off_c, 0, 69, 112
1, 114690, Note_on_c, 0, 67, 108
1, 114768, Note_off_c, 0, 67, 108
1, 114772, Note_on_c, 0, 69, 103
1, 114853, Note_off_c, 0, 69, 103
1, 114861, Note_on_c, 0, 71, 110
1, 114976, Note_off_c, 0, 71, 110
1, 114981, Note_on_c, 0, 67, 102
1, 115023, Note_off_c, 0, 67, 102
1, 115025, Note_on_c, 0, 70, 114
1, 115118, Note_off_c, 0, 70, 114
1, 115130, Note_on_c, 0, 66, 109
1, 115224, Note_off_c, 0, 66, 109
1, 115229, Note_on_c, 0, 65, 109
1, 115324, Note_off_c, 0, 65, 109
1, 115331, Note_on_c, 0, 64, 120
1, 115415, Note_off_c, 0, 64, 120
1, 115422, Note_on_c, 0, 63, 117
1, 115507, Note_off_c, 0, 63, 117
1, 115512, Note_on_c, 0, 65, 111
1, 115612, Note_off_c, 0, 65, 111
1, 115625, Note_on_c, 0, 62, 107
1, 115722, Note_off_c, 0, 62, 107
1, 115724, Note_on_c, 0, 60, 102
1, 115803, Note_off_c, 0, 60, 102
1, 115828, Note_on_c, 0, 59, 104
1, 115973, Note_off_c, 0, 59, 104
1, 115983, Note_on_c, 0, 57, 107
1, 116061, Note_off_c, 0, 57, 107
1, 116063, Note_on_c, 0, 62, 105
1, 116146, Note_off_c, 0, 62, 105
1, 116152, Note_on_c, 0, 58, 108
1, 116268, Note_off_c, 0, 58, 108
1, 116276, Note_on_c, 0, 60, 109
1, 116396, Note_off_c, 0, 60, 109
1, 116400, Note_on_c, 0, 63, 110
1, 116510, Note_off_c, 0, 63, 110
1, 116512, Note_on_c, 0, 67, 101
1, 116574, Note_off_c, 0, 67, 101
1, 116578, Note_on_c, 0, 70, 115
1, 116671, Note_off_c, 0, 70, 115
1, 116679, Note_on_c, 0, 67, 107
1, 116762, Note_off_c, 0, 67, 107
1, 116768, Note_on_c, 0, 68, 104
1, 116821, Note_off_c, 0, 68, 104
1, 116827, Note_on_c, 0, 72, 99
1, 116889, Note_off_c, 0, 72, 99
1, 116891, Note_on_c, 0, 75, 110
1, 116955, Note_off_c, 0, 75, 110
1, 116957, Note_on_c, 0, 79, 115
1, 117029, Note_off_c, 0, 79, 115
1, 117031, Note_on_c, 0, 80, 112
1, 117182, Note_off_c, 0, 80, 112
1, 117186, Note_on_c, 0, 79, 114
1, 117320, Note_off_c, 0, 79, 114
1, 117324, Note_on_c, 0, 80, 114
1, 117407, Note_off_c, 0, 80, 114
1, 117409, Note_on_c, 0, 81, 106
1, 117957, Note_off_c, 0, 81, 106
1, 117963, Note_on_c, 0, 82, 88
1, 118320, Note_off_c, 0, 82, 88
1, 119126, Note_on_c, 0, 67, 112
1, 119213, Note_off_c, 0, 67, 112
1, 119215, Note_on_c, 0, 69, 112
1, 119297, Note_off_c, 0, 69, 112
1, 119299, Note_on_c, 0, 70, 110
1, 119386, Note_off_c, 0, 70, 110
1, 119402, Note_on_c, 0, 72, 108
1, 119497, Note_off_c, 0, 72, 108
1, 119499, Note_on_c, 0, 69, 106
1, 119587, Note_off_c, 0, 69, 106
1, 119595, Note_on_c, 0, 67, 107
1, 119676, Note_off_c, 0, 67, 107
1, 119687, Note_on_c, 0, 65, 111
1, 119759, Note_off_c, 0, 65, 111
1, 119775, Note_on_c, 0, 64, 116
1, 119844, Note_off_c, 0, 64, 116
1, 119851, Note_on_c, 0, 63, 118
1, 119946, Note_off_c, 0, 63, 118
1, 119951, Note_on_c, 0, 65, 111
1, 120042, Note_off_c, 0, 65, 111
1, 120046, Note_on_c, 0, 61, 108
1, 120130, Note_off_c, 0, 61, 108
1, 120132, Note_on_c, 0, 62, 102
1, 120226, Note_off_c, 0, 62, 102
1, 120230, Note_on_c, 0, 65, 113
1, 120324, Note_off_c, 0, 65, 113
1, 120332, Note_on_c, 0, 64, 113
1, 120419, Note_off_c, 0, 64, 113
1, 120432, Note_on_c, 0, 63, 116
1, 120496, Note_off_c, 0, 63, 116
1, 120498, Note_on_c, 0, 65, 111
1, 120614, Note_off_c, 0, 65, 111
1, 120621, Note_on_c, 0, 62, 111
1, 120703, Note_off_c, 0, 62, 111
1, 120708, Note_on_c, 0, 60, 109
1, 120780, Note_off_c, 0, 60, 109
1, 120785, Note_on_c, 0, 59, 101
1, 120873, Note_off_c, 0, 59, 101
1, 120884, Note_on_c, 0, 62, 112
1, 120979, Note_off_c, 0, 62, 112
1, 120984, Note_on_c, 0, 65, 104
1, 121078, Note_off_c, 0, 65, 104
1, 121092, Note_on_c, 0, 67, 98
1, 121149, Note_off_c, 0, 67, 98
1, 121153, Note_on_c, 0, 68, 117
1, 121260, Note_off_c, 0, 68, 117
1, 121264, Note_on_c, 0, 67, 104
1, 121334, Note_off_c, 0, 67, 104
1, 121359, Note_on_c, 0, 66, 47
1, 121472, Note_off_c, 0, 66, 47
1, 121473, Note_on_c, 0, 67, 97
1, 121529, Note_off_c, 0, 67, 97
1, 121534, Note_on_c, 0, 70, 118
1, 121632, Note_off_c, 0, 70, 118
1, 121639, Note_on_c, 0, 68, 115
1, 121702, Note_off_c, 0, 68, 115
1, 121710, Note_on_c, 0, 63, 112
1, 121819, Note_off_c, 0, 63, 112
1, 121830, Note_on_c, 0, 60, 97
1, 121887, Note_off_c, 0, 60, 97
1, 121888, Note_on_c, 0, 67, 110
1, 121997, Note_off_c, 0, 67, 110
1, 121999, Note_on_c, 0, 65, 114
1, 122097, Note_off_c, 0, 65, 114
1, 122107, Note_on_c, 0, 61, 111
1, 122179, Note_off_c, 0, 61, 111
1, 122196, Note_on_c, 0, 56, 104
1, 122278, Note_off_c, 0, 56, 104
1, 122309, Note_on_c, 0, 64, 114
1, 122387, Note_off_c, 0, 64, 114
1, 122391, Note_on_c, 0, 62, 117
1, 122461, Note_off_c, 0, 62, 117
1, 122471, Note_on_c, 0, 58, 112
1, 122537, Note_off_c, 0, 58, 112
1, 122560, Note_on_c, 0, 52, 102
1, 122633, Note_off_c, 0, 52, 102
1, 122643, Note_on_c, 0, 61, 113
1, 122767, Note_off_c, 0, 61, 113
1, 122781, Note_on_c, 0, 60, 108
1, 122803, Note_off_c, 0, 60, 108
1, 122816, Note_on_c, 0, 59, 110
1, 122892, Note_off_c, 0, 59, 110
1, 122903, Note_on_c, 0, 57, 110
1, 122982, Note_off_c, 0, 57, 110
1, 122999, Note_on_c, 0, 58, 110
1, 123086, Note_off_c, 0, 58, 110
1, 123086, Note_on_c, 0, 56, 110
1, 123183, Note_off_c, 0, 56, 110
1, 123197, Note_on_c, 0, 55, 110
1, 123288, Note_off_c, 0, 55, 110
1, 123305, Note_on_c, 0, 53, 117
1, 123420, Note_off_c, 0, 53, 117
1, 123424, Note_on_c, 0, 51, 114
1, 123491, Note_off_c, 0, 51, 114
1, 123594, Note_on_c, 0, 63, 117
1, 123712, Note_off_c, 0, 63, 117
1, 123829, Note_on_c, 0, 69, 112
1, 123939, Note_off_c, 0, 69, 112
1, 123941, Note_on_c, 0, 71, 120
1, 124364, Note_off_c, 0, 71, 120
1, 124963, Note_on_c, 0, 70, 115
1, 125039, Note_off_c, 0, 70, 115
1, 125041, Note_on_c, 0, 72, 119
1, 125508, Note_off_c, 0, 72, 119
1, 126091, Note_on_c, 0, 70, 118
1, 126273, Note_off_c, 0, 70, 118
1, 126285, Note_on_c, 0, 67, 117
1, 126482, Note_off_c, 0, 67, 117
1, 126604, Note_on_c, 0, 70, 110
1, 126670, Note_off_c, 0, 70, 110
1, 126674, Note_on_c, 0, 73, 121
1, 127047, Note_off_c, 0, 73, 121
1, 127053, Note_on_c, 0, 72, 121
1, 127131, Note_off_c, 0, 72, 121
1, 127139, Note_on_c, 0, 70, 116
1, 127222, Note_off_c, 0, 70, 116
1, 127222, Note_on_c, 0, 69, 117
1, 127799, Note_off_c, 0, 69, 117
1, 127842, Note_on_c, 0, 67, 115
1, 127999, Note_off_c, 0, 67, 115
1, 128073, Note_on_c, 0, 65, 115
1, 128210, Note_off_c, 0, 65, 115
1, 128216, Note_on_c, 0, 67, 113
1, 128377, Note_off_c, 0, 67, 113
1, 128377, Note_on_c, 0, 68, 113
1, 128455, Note_off_c, 0, 68, 113
1, 128465, Note_on_c, 0, 67, 112
1, 128585, Note_off_c, 0, 67, 112
1, 128598, Note_on_c, 0, 65, 110
1, 129159, Note_off_c, 0, 65, 110
1, 130037, Note_on_c, 0, 67, 116
1, 130128, Note_off_c, 0, 67, 116
1, 130134, Note_on_c, 0, 69, 109
1, 130185, Note_off_c, 0, 69, 109
1, 130189, Note_on_c, 0, 71, 110
1, 130263, Note_off_c, 0, 71, 110
1, 130289, Note_on_c, 0, 75, 112
1, 130342, Note_off_c, 0, 75, 112
1, 130346, Note_on_c, 0, 78, 120
1, 130397, Note_off_c, 0, 78, 120
1, 130401, Note_on_c, 0, 79, 118
1, 130660, Note_off_c, 0, 79, 118
1, 130666, Note_on_c, 0, 75, 108
1, 130763, Note_off_c, 0, 75, 108
1, 130787, Note_on_c, 0, 71, 107
1, 130859, Note_off_c, 0, 71, 107
1, 130919, Note_on_c, 0, 70, 110
1, 131031, Note_off_c, 0, 70, 110
1, 131039, Note_on_c, 0, 75, 111
1, 131132, Note_off_c, 0, 75, 111
1, 131140, Note_on_c, 0, 73, 107
1, 131220, Note_off_c, 0, 73, 107
1, 131224, Note_on_c, 0, 71, 110
1, 131284, Note_off_c, 0, 71, 110
1, 131296, Note_on_c, 0, 70, 113
1, 131395, Note_off_c, 0, 70, 113
1, 131401, Note_on_c, 0, 68, 113
1, 131504, Note_off_c, 0, 68, 113
1, 131510, Note_on_c, 0, 67, 114
1, 131578, Note_off_c, 0, 67, 114
1, 131586, Note_on_c, 0, 66, 110
1, 131700, Note_off_c, 0, 66, 110
1, 131704, Note_on_c, 0, 65, 109
1, 131799, Note_off_c, 0, 65, 109
1, 131805, Note_on_c, 0, 64, 121
1, 131888, Note_off_c, 0, 64, 121
1, 131894, Note_on_c, 0, 63, 117
1, 131997, Note_off_c, 0, 63, 117
1, 132005, Note_on_c, 0, 65, 96
1, 132075, Note_off_c, 0, 65, 96
1, 132079, Note_on_c, 0, 67, 115
1, 132166, Note_off_c, 0, 67, 115
1, 132168, Note_on_c, 0, 63, 105
1, 132269, Note_off_c, 0, 63, 105
1, 132281, Note_on_c, 0, 65, 106
1, 132370, Note_off_c, 0, 65, 106
1, 132372, Note_on_c, 0, 61, 110
1, 132452, Note_off_c, 0, 61, 110
1, 132456, Note_on_c, 0, 58, 111
1, 132534, Note_off_c, 0, 58, 111
1, 132550, Note_on_c, 0, 53, 108
1, 132622, Note_off_c, 0, 53, 108
1, 132630, Note_on_c, 0, 58, 113
1, 132700, Note_off_c, 0, 58, 113
1, 132704, Note_on_c, 0, 65, 108
1, 132803, Note_off_c, 0, 65, 108
1, 132823, Note_on_c, 0, 62, 114
1, 132893, Note_off_c, 0, 62, 114
1, 132905, Note_on_c, 0, 60, 107
1, 132994, Note_off_c, 0, 60, 107
1, 133000, Note_on_c, 0, 62, 120
1, 133091, Note_off_c, 0, 62, 120
1, 133099, Note_on_c, 0, 60, 111
1, 133190, Note_off_c, 0, 60, 111
1, 133192, Note_on_c, 0, 57, 115
1, 133283, Note_off_c, 0, 57, 115
1, 133293, Note_on_c, 0, 53, 116
1, 133353, Note_off_c, 0, 53, 116
1, 133359, Note_on_c, 0, 55, 111
1, 133456, Note_off_c, 0, 55, 111
1, 133472, Note_on_c, 0, 51, 117
1, 133563, Note_off_c, 0, 51, 117
1, 133566, Note_on_c, 0, 48, 112
1, 133664, Note_off_c, 0, 48, 112
1, 133664, Note_on_c, 0, 53, 107
1, 133815, Note_off_c, 0, 53, 107
1, 133873, Note_on_c, 0, 56, 112
1, 133939, Note_off_c, 0, 56, 112
1, 133949, Note_on_c, 0, 58, 109
1, 134048, Note_off_c, 0, 58, 109
1, 134050, Note_on_c, 0, 62, 112
1, 134114, Note_off_c, 0, 62, 112
1, 134116, Note_on_c, 0, 65, 112
1, 134221, Note_off_c, 0, 65, 112
1, 134225, Note_on_c, 0, 61, 113
1, 134295, Note_off_c, 0, 61, 113
1, 134302, Note_on_c, 0, 57, 109
1, 134372, Note_off_c, 0, 57, 109
1, 134381, Note_on_c, 0, 55, 103
1, 134474, Note_off_c, 0, 55, 103
1, 134480, Note_on_c, 0, 58, 107
1, 134556, Note_off_c, 0, 58, 107
1, 134560, Note_on_c, 0, 60, 109
1, 134667, Note_off_c, 0, 60, 109
1, 134669, Note_on_c, 0, 61, 111
1, 134735, Note_off_c, 0, 61, 111
1, 134745, Note_on_c, 0, 63, 117
1, 134859, Note_off_c, 0, 63, 117
1, 134867, Note_on_c, 0, 65, 108
1, 134943, Note_off_c, 0, 65, 108
1, 134957, Note_on_c, 0, 67, 111
1, 135062, Note_off_c, 0, 67, 111
1, 135070, Note_on_c, 0, 68, 113
1, 135123, Note_off_c, 0, 68, 113
1, 135127, Note_on_c, 0, 70, 97
1, 135191, Note_off_c, 0, 70, 97
1, 135197, Note_on_c, 0, 72, 115
1, 135379, Note_off_c, 0, 72, 115
1, 135389, Note_on_c, 0, 70, 108
1, 135499, Note_off_c, 0, 70, 108
1, 135513, Note_on_c, 0, 68, 102
1, 135571, Note_off_c, 0, 68, 102
1, 135575, Note_on_c, 0, 70, 115
1, 135724, Note_off_c, 0, 70, 115
1, 136116, Note_on_c, 0, 68, 123
1, 136219, Note_off_c, 0, 68, 123
1, 136221, Note_on_c, 0, 67, 118
1, 136337, Note_off_c, 0, 67, 118
1, 136390, Note_on_c, 0, 68, 120
1, 136618, Note_off_c, 0, 68, 120
1, 136910, Note_on_c, 0, 67, 118
1, 136993, Note_off_c, 0, 67, 118
1, 136999, Note_on_c, 0, 65, 118
1, 137109, Note_off_c, 0, 65, 118
1, 137198, Note_on_c, 0, 67, 117
1, 137470, Note_off_c, 0, 67, 117
1, 137841, Note_on_c, 0, 65, 119
1, 137948, Note_off_c, 0, 65, 119
1, 137950, Note_on_c, 0, 63, 122
1, 138084, Note_off_c, 0, 63, 122
1, 138113, Note_on_c, 0, 65, 122
1, 138430, Note_off_c, 0, 65, 122
1, 138810, Note_on_c, 0, 63, 127
1, 139023, Note_off_c, 0, 63, 127
1, 139027, Note_on_c, 0, 61, 109
1, 139384, Note_off_c, 0, 61, 109
1, 139387, Note_on_c, 0, 63, 123
1, 139621, Note_off_c, 0, 63, 123
1, 139628, Note_on_c, 0, 61, 108
1, 139866, Note_off_c, 0, 61, 108
1, 139866, Note_on_c, 0, 63, 125
1, 140162, Note_off_c, 0, 63, 125
1, 140163, Note_on_c, 0, 61, 109
1, 140297, Note_off_c, 0, 61, 109
1, 141008, Note_on_c, 0, 53, 111
1, 141088, Note_off_c, 0, 53, 111
1, 141089, Note_on_c, 0, 55, 109
1, 141122, Note_off_c, 0, 55, 109
1, 141124, Note_on_c, 0, 56, 119
1, 141181, Note_off_c, 0, 56, 119
1, 141183, Note_on_c, 0, 58, 115
1, 141258, Note_off_c, 0, 58, 115
1, 141263, Note_on_c, 0, 61, 115
1, 141336, Note_off_c, 0, 61, 115
1, 141347, Note_on_c, 0, 63, 121
1, 141417, Note_off_c, 0, 63, 121
1, 141425, Note_on_c, 0, 65, 113
1, 141470, Note_off_c, 0, 65, 113
1, 141487, Note_on_c, 0, 67, 110
1, 141529, Note_off_c, 0, 67, 110
1, 141530, Note_on_c, 0, 68, 109
1, 141558, Note_off_c, 0, 68, 109
1, 141560, Note_on_c, 0, 70, 116
1, 141591, Note_off_c, 0, 70, 116
1, 141601, Note_on_c, 0, 71, 118
1, 141649, Note_off_c, 0, 71, 118
1, 141655, Note_on_c, 0, 72, 118
1, 141902, Note_off_c, 0, 72, 118
1, 141916, Note_on_c, 0, 70, 116
1, 142150, Note_off_c, 0, 70, 116
1, 142170, Note_on_c, 0, 72, 114
1, 142346, Note_off_c, 0, 72, 114
1, 142356, Note_on_c, 0, 68, 114
1, 143047, Note_off_c, 0, 68, 114
1, 143065, Note_on_c, 0, 72, 110
1, 143270, Note_off_c, 0, 72, 110
1, 143278, Note_on_c, 0, 70, 114
1, 143477, Note_off_c, 0, 70, 114
1, 143478, Note_on_c, 0, 72, 108
1, 143643, Note_off_c, 0, 72, 108
1, 143650, Note_on_c, 0, 67, 112
1, 143701, Note_off_c, 0, 67, 112
1, 143702, Note_on_c, 0, 68, 118
1, 143851, Note_off_c, 0, 68, 118
1, 143856, Note_on_c, 0, 72, 105
1, 143916, Note_off_c, 0, 72, 105
1, 143927, Note_on_c, 0, 67, 111
1, 144279, Note_off_c, 0, 67, 111
1, 144812, Note_on_c, 0, 72, 117
1, 144924, Note_off_c, 0, 72, 117
1, 144928, Note_on_c, 0, 73, 109
1, 145035, Note_off_c, 0, 73, 109
1, 145039, Note_on_c, 0, 72, 116
1, 145105, Note_off_c, 0, 72, 116
1, 145107, Note_on_c, 0, 70, 117
1, 145188, Note_off_c, 0, 70, 117
1, 145193, Note_on_c, 0, 69, 106
1, 145257, Note_off_c, 0, 69, 106
1, 145261, Note_on_c, 0, 72, 114
1, 145361, Note_off_c, 0, 72, 114
1, 145374, Note_on_c, 0, 70, 110
1, 145480, Note_off_c, 0, 70, 110
1, 145487, Note_on_c, 0, 68, 117
1, 145584, Note_off_c, 0, 68, 117
1, 145591, Note_on_c, 0, 67, 113
1, 145648, Note_off_c, 0, 67, 113
1, 145652, Note_on_c, 0, 71, 111
1, 145743, Note_off_c, 0, 71, 111
1, 145745, Note_on_c, 0, 69, 111
1, 145832, Note_off_c, 0, 69, 111
1, 145845, Note_on_c, 0, 68, 116
1, 145926, Note_off_c, 0, 68, 116
1, 145936, Note_on_c, 0, 67, 113
1, 146034, Note_off_c, 0, 67, 113
1, 146039, Note_on_c, 0, 71, 104
1, 146127, Note_off_c, 0, 71, 104
1, 146141, Note_on_c, 0, 69, 116
1, 146210, Note_off_c, 0, 69, 116
1, 146218, Note_on_c, 0, 67, 112
1, 146302, Note_off_c, 0, 67, 112
1, 146313, Note_on_c, 0, 66, 111
1, 146385, Note_off_c, 0, 66, 111
1, 146389, Note_on_c, 0, 69, 114
1, 146484, Note_off_c, 0, 69, 114
1, 146495, Note_on_c, 0, 65, 116
1, 146579, Note_off_c, 0, 65, 116
1, 146584, Note_on_c, 0, 64, 124
1, 146675, Note_off_c, 0, 64, 124
1, 146679, Note_on_c, 0, 63, 117
1, 146773, Note_off_c, 0, 63, 117
1, 146792, Note_on_c, 0, 65, 106
1, 146846, Note_off_c, 0, 65, 106
1, 146851, Note_on_c, 0, 67, 111
1, 146935, Note_off_c, 0, 67, 111
1, 146943, Note_on_c, 0, 70, 106
1, 147022, Note_off_c, 0, 70, 106
1, 147047, Note_on_c, 0, 65, 111
1, 147141, Note_off_c, 0, 65, 111
1, 147151, Note_on_c, 0, 64, 122
1, 147217, Note_off_c, 0, 64, 122
1, 147219, Note_on_c, 0, 63, 121
1, 147309, Note_off_c, 0, 63, 121
1, 147314, Note_on_c, 0, 62, 116
1, 147412, Note_off_c, 0, 62, 116
1, 147419, Note_on_c, 0, 61, 116
1, 147494, Note_off_c, 0, 61, 116
1, 147505, Note_on_c, 0, 65, 116
1, 147595, Note_off_c, 0, 65, 116
1, 147606, Note_on_c, 0, 63, 123
1, 147675, Note_off_c, 0, 63, 123
1, 147682, Note_on_c, 0, 61, 115
1, 147767, Note_off_c, 0, 61, 115
1, 147772, Note_on_c, 0, 60, 115
1, 147845, Note_off_c, 0, 60, 115
1, 147852, Note_on_c, 0, 59, 105
1, 147931, Note_off_c, 0, 59, 105
1, 147933, Note_on_c, 0, 58, 106
1, 147990, Note_off_c, 0, 58, 106
1, 148009, Note_on_c, 0, 57, 118
1, 148050, Note_off_c, 0, 57, 118
1, 148052, Note_on_c, 0, 56, 102
1, 148136, Note_off_c, 0, 56, 102
1, 148137, Note_on_c, 0, 55, 102
1, 148213, Note_off_c, 0, 55, 102
1, 148224, Note_on_c, 0, 54, 108
1, 148331, Note_off_c, 0, 54, 108
1, 148341, Note_on_c, 0, 53, 106
1, 148417, Note_off_c, 0, 53, 106
1, 148430, Note_on_c, 0, 52, 99
1, 148521, Note_off_c, 0, 52, 99
1, 148531, Note_on_c, 0, 51, 98
1, 148626, Note_off_c, 0, 51, 98
1, 148661, Note_on_c, 0, 53, 96
1, 148754, Note_off_c, 0, 53, 96
1, 148764, Note_on_c, 0, 50, 94
1, 148966, Note_off_c, 0, 50, 94
1, 148966, End_track
0, 0, End_of_file
