0, 0, Header, 1, 1, 192
1, 0, Start_track
1, 0, Title_t, "Melody"
1, 0, Tempo, 287081
1, 0, Key_signature, -1, "major"
1, 0, Time_signature, 4, 2, 24, 8
1, 1688, Note_on_c, 0, 58, 110
1, 1805, Note_off_c, 0, 58, 110
1, 1813, Note_on_c, 0, 60, 113
1, 1896, Note_off_c, 0, 60, 113
1, 1906, Note_on_c, 0, 62, 118
1, 2005, Note_off_c, 0, 62, 118
1, 2021, Note_on_c, 0, 64, 118
1, 2108, Note_off_c, 0, 64, 118
1, 2114, Note_on_c, 0, 65, 111
1, 2231, Note_off_c, 0, 65, 111
1, 2287, Note_on_c, 0, 60, 93
1, 2565, Note_off_c, 0, 60, 93
1, 2821, Note_on_c, 0, 64, 116
1, 2932, Note_off_c, 0, 64, 116
1, 2941, Note_on_c, 0, 61, 115
1, 3039, Note_off_c, 0, 61, 115
1, 3047, Note_on_c, 0, 57, 97
1, 3130, Note_off_c, 0, 57, 97
1, 3142, Note_on_c, 0, 58, 100
1, 3223, Note_off_c, 0, 58, 100
1, 3234, Note_on_c, 0, 60, 111
1, 3315, Note_off_c, 0, 60, 111
1, 3323, Note_on_c, 0, 61, 113
1, 3401, Note_off_c, 0, 61, 113
1, 3410, Note_on_c, 0, 65, 109
1, 3509, Note_off_c, 0, 65, 109
1, 3529, Note_on_c, 0, 67, 110
1, 3624, Note_off_c, 0, 67, 110
1, 3625, Note_on_c, 0, 72, 114
1, 3707, Note_off_c, 0, 72, 114
1, 3714, Note_on_c, 0, 69, 112
1, 3896, Note_off_c, 0, 69, 112
1, 3904, Note_on_c, 0, 67, 109
1, 4020, Note_off_c, 0, 67, 109
1, 4028, Note_on_c, 0, 65, 102
1, 4225, Note_off_c, 0, 65, 102
1, 4437, Note_on_c, 0, 69, 113
1, 4535, Note_off_c, 0, 69, 113
1, 4545, Note_on_c, 0, 67, 111
1, 4705, Note_off_c, 0, 67, 111
1, 4719, Note_on_c, 0, 65, 110
1, 4831, Note_off_c, 0, 65, 110
1, 4837, Note_on_c, 0, 63, 106
1, 5037, Note_off_c, 0, 63, 106
1, 5227, Note_on_c, 0, 67, 110
1, 5314, Note_off_c, 0, 67, 110
1, 5324, Note_on_c, 0, 64, 110
1, 5425, Note_off_c, 0, 64, 110
1, 5461, Note_on_c, 0, 65, 92
1, 5507, Note_off_c, 0, 65, 92
1, 5525, Note_on_c, 0, 69, 113
1, 5615, Note_off_c, 0, 69, 113
1, 5617, Note_on_c, 0, 67, 110
1, 5712, Note_off_c, 0, 67, 110
1, 5722, Note_on_c, 0, 65, 108
1, 5817, Note_off_c, 0, 65, 108
1, 5825, Note_on_c, 0, 62, 109
1, 5920, Note_off_c, 0, 62, 109
1, 5925, Note_on_c, 0, 60, 104
1, 6010, Note_off_c, 0, 60, 104
1, 6018, Note_on_c, 0, 58, 102
1, 6113, Note_off_c, 0, 58, 102
1, 6126, Note_on_c, 0, 57, 102
1, 6196, Note_off_c, 0, 57, 102
1, 6305, Note_on_c, 0, 66, 106
1, 6492, Note_off_c, 0, 66, 106
1, 6503, Note_on_c, 0, 63, 113
1, 6654, Note_off_c, 0, 63, 113
1, 6723, Note_on_c, 0, 57, 95
1, 6871, Note_off_c, 0, 57, 95
1, 7326, Note_on_c, 0, 59, 105
1, 7413, Note_off_c, 0, 59, 105
1, 7515, Note_on_c, 0, 69, 113
1, 7635, Note_off_c, 0, 69, 113
1, 7693, Note_on_c, 0, 58, 107
1, 7815, Note_off_c, 0, 58, 107
1, 7902, Note_on_c, 0, 68, 109
1, 8079, Note_off_c, 0, 68, 109
1, 8098, Note_on_c, 0, 64, 110
1, 8181, Note_off_c, 0, 64, 110
1, 8224, Note_on_c, 0, 60, 108
1, 8296, Note_off_c, 0, 60, 108
1, 8308, Note_on_c, 0, 58, 103
1, 8400, Note_off_c, 0, 58, 103
1, 8449, Note_on_c, 0, 53, 99
1, 8484, Note_off_c, 0, 53, 99
1, 8515, Note_on_c, 0, 57, 104
1, 8599, Note_off_c, 0, 57, 104
1, 8607, Note_on_c, 0, 65, 100
1, 8874, Note_off_c, 0, 65, 100
1, 9182, Note_on_c, 0, 64, 110
1, 9271, Note_off_c, 0, 64, 110
1, 9300, Note_on_c, 0, 72, 113
1, 9384, Note_off_c, 0, 72, 113
1, 9396, Note_on_c, 0, 70, 110
1, 9477, Note_off_c, 0, 70, 110
1, 9496, Note_on_c, 0, 65, 104
1, 9580, Note_off_c, 0, 65, 104
1, 9594, Note_on_c, 0, 61, 107
1, 9690, Note_off_c, 0, 61, 107
1, 9696, Note_on_c, 0, 60, 104
1, 9762, Note_off_c, 0, 60, 104
1, 9813, Note_on_c, 0, 59, 99
1, 9887, Note_off_c, 0, 59, 99
1, 9895, Note_on_c, 0, 58, 103
1, 10002, Note_off_c, 0, 58, 103
1, 10023, Note_on_c, 0, 57, 104
1, 10155, Note_off_c, 0, 57, 104
1, 10170, Note_on_c, 0, 59, 105
1, 10260, Note_off_c, 0, 59, 105
1, 10267, Note_on_c, 0, 61, 113
1, 10356, Note_off_c, 0, 61, 113
1, 10366, Note_on_c, 0, 64, 113
1, 10445, Note_off_c, 0, 64, 113
1, 10459, Note_on_c, 0, 62, 112
1, 10544, Note_off_c, 0, 62, 112
1, 10558, Note_on_c, 0, 64, 113
1, 10643, Note_off_c, 0, 64, 113
1, 10649, Note_on_c, 0, 65, 108
1, 10745, Note_off_c, 0, 65, 108
1, 10757, Note_on_c, 0, 67, 106
1, 10829, Note_off_c, 0, 67, 106
1, 10835, Note_on_c, 0, 63, 112
1, 10923, Note_off_c, 0, 63, 112
1, 10947, Note_on_c, 0, 69, 108
1, 11053, Note_off_c, 0, 69, 108
1, 11059, Note_on_c, 0, 73, 105
1, 11144, Note_off_c, 0, 73, 105
1, 11156, Note_on_c, 0, 71, 111
1, 11241, Note_off_c, 0, 71, 111
1, 11255, Note_on_c, 0, 69, 107
1, 11342, Note_off_c, 0, 69, 107
1, 11381, Note_on_c, 0, 67, 104
1, 11449, Note_off_c, 0, 67, 104
1, 11454, Note_on_c, 0, 68, 106
1, 11537, Note_off_c, 0, 68, 106
1, 11577, Note_on_c, 0, 66, 103
1, 11645, Note_off_c, 0, 66, 103
1, 11666, Note_on_c, 0, 67, 102
1, 11744, Note_off_c, 0, 67, 102
1, 11771, Note_on_c, 0, 65, 98
1, 11835, Note_off_c, 0, 65, 98
1, 11843, Note_on_c, 0, 66, 104
1, 11928, Note_off_c, 0, 66, 104
1, 11984, Note_on_c, 0, 64, 89
1, 12025, Note_off_c, 0, 64, 89
1, 12039, Note_on_c, 0, 65, 106
1, 12131, Note_off_c, 0, 65, 106
1, 12139, Note_on_c, 0, 62, 109
1, 12214, Note_off_c, 0, 62, 109
1, 12266, Note_on_c, 0, 58, 103
1, 12332, Note_off_c, 0, 58, 103
1, 12340, Note_on_c, 0, 55, 90
1, 12395, Note_off_c, 0, 55, 90
1, 12409, Note_on_c, 0, 63, 113
1, 12505, Note_off_c, 0, 63, 113
1, 12512, Note_on_c, 0, 62, 106
1, 12549, Note_off_c, 0, 62, 106
1, 12555, Note_on_c, 0, 61, 106
1, 12594, Note_off_c, 0, 61, 106
1, 12599, Note_on_c, 0, 60, 107
1, 12726, Note_off_c, 0, 60, 107
1, 12736, Note_on_c, 0, 58, 103
1, 12820, Note_off_c, 0, 58, 103
1, 12829, Note_on_c, 0, 57, 102
1, 12904, Note_off_c, 0, 57, 102
1, 12958, Note_on_c, 0, 55, 99
1, 13014, Note_off_c, 0, 55, 99
1, 13030, Note_on_c, 0, 54, 98
1, 13078, Note_off_c, 0, 54, 98
1, 13115, Note_on_c, 0, 63, 110
1, 13229, Note_off_c, 0, 63, 110
1, 13238, Note_on_c, 0, 59, 97
1, 13293, Note_off_c, 0, 59, 97
1, 13608, Note_on_c, 0, 58, 104
1, 13718, Note_off_c, 0, 58, 104
1, 13917, Note_on_c, 0, 57, 99
1, 14169, Note_off_c, 0, 57, 99
1, 14489, Note_on_c, 0, 61, 115
1, 14570, Note_off_c, 0, 61, 115
1, 14581, Note_on_c, 0, 62, 114
1, 14674, Note_off_c, 0, 62, 114
1, 14702, Note_on_c, 0, 65, 112
1, 14759, Note_off_c, 0, 65, 112
1, 14794, Note_on_c, 0, 62, 115
1, 14873, Note_off_c, 0, 62, 115
1, 14883, Note_on_c, 0, 63, 113
1, 14971, Note_off_c, 0, 63, 113
1, 14994, Note_on_c, 0, 67, 109
1, 15088, Note_off_c, 0, 67, 109
1, 15117, Note_on_c, 0, 70, 109
1, 15185, Note_off_c, 0, 70, 109
1, 15193, Note_on_c, 0, 74, 105
1, 15494, Note_off_c, 0, 74, 105
1, 15512, Note_on_c, 0, 72, 111
1, 15571, Note_off_c, 0, 72, 111
1, 15588, Note_on_c, 0, 71, 110
1, 15877, Note_off_c, 0, 71, 110
1, 15892, Note_on_c, 0, 69, 109
1, 16003, Note_off_c, 0, 69, 109
1, 16013, Note_on_c, 0, 68, 109
1, 16170, Note_off_c, 0, 68, 109
1, 16190, Note_on_c, 0, 64, 111
1, 16292, Note_off_c, 0, 64, 111
1, 16300, Note_on_c, 0, 67, 107
1, 16396, Note_off_c, 0, 67, 107
1, 16406, Note_on_c, 0, 65, 104
1, 16653, Note_off_c, 0, 65, 104
1, 16663, Note_on_c, 0, 62, 108
1, 16771, Note_off_c, 0, 62, 108
1, 16781, Note_on_c, 0, 60, 106
1, 16956, Note_off_c, 0, 60, 106
1, 16961, Note_on_c, 0, 65, 104
1, 17062, Note_off_c, 0, 65, 104
1, 17109, Note_on_c, 0, 62, 98
1, 17353, Note_off_c, 0, 62, 98
1, 17663, Note_on_c, 0, 63, 113
1, 17734, Note_off_c, 0, 63, 113
1, 17745, Note_on_c, 0, 66, 109
1, 17843, Note_off_c, 0, 66, 109
1, 17863, Note_on_c, 0, 70, 112
1, 17921, Note_off_c, 0, 70, 112
1, 17964, Note_on_c, 0, 73, 105
1, 18145, Note_off_c, 0, 73, 105
1, 18156, Note_on_c, 0, 70, 111
1, 18241, Note_off_c, 0, 70, 111
1, 18263, Note_on_c, 0, 66, 105
1, 18357, Note_off_c, 0, 66, 105
1, 18374, Note_on_c, 0, 65, 106
1, 18451, Note_off_c, 0, 65, 106
1, 18461, Note_on_c, 0, 63, 100
1, 18529, Note_off_c, 0, 63, 100
1, 18535, Note_on_c, 0, 64, 114
1, 18633, Note_off_c, 0, 64, 114
1, 18666, Note_on_c, 0, 60, 107
1, 18721, Note_off_c, 0, 60, 107
1, 18731, Note_on_c, 0, 59, 99
1, 18822, Note_off_c, 0, 59, 99
1, 18854, Note_on_c, 0, 58, 103
1, 18929, Note_off_c, 0, 58, 103
1, 18940, Note_on_c, 0, 57, 103
1, 19049, Note_off_c, 0, 57, 103
1, 19104, Note_on_c, 0, 53, 103
1, 19127, Note_off_c, 0, 53, 103
1, 19135, Note_on_c, 0, 56, 100
1, 19212, Note_off_c, 0, 56, 100
1, 19241, Note_on_c, 0, 68, 104
1, 19330, Note_off_c, 0, 68, 104
1, 19345, Note_on_c, 0, 65, 102
1, 19453, Note_off_c, 0, 65, 102
1, 19464, Note_on_c, 0, 64, 109
1, 19565, Note_off_c, 0, 64, 109
1, 19578, Note_on_c, 0, 63, 105
1, 19815, Note_off_c, 0, 63, 105
1, 19825, Note_on_c, 0, 62, 102
1, 19864, Note_off_c, 0, 62, 102
1, 19868, Note_on_c, 0, 61, 105
1, 19926, Note_off_c, 0, 61, 105
1, 19940, Note_on_c, 0, 60, 103
1, 20032, Note_off_c, 0, 60, 103
1, 20041, Note_on_c, 0, 61, 107
1, 20112, Note_off_c, 0, 61, 107
1, 20218, Note_on_c, 0, 69, 82
1, 20256, Note_off_c, 0, 69, 82
1, 20266, Note_on_c, 0, 72, 104
1, 20358, Note_off_c, 0, 72, 104
1, 20382, Note_on_c, 0, 70, 110
1, 20420, Note_off_c, 0, 70, 110
1, 20707, Note_on_c, 0, 69, 110
1, 20801, Note_off_c, 0, 69, 110
1, 20822, Note_on_c, 0, 68, 109
1, 20892, Note_off_c, 0, 68, 109
1, 20909, Note_on_c, 0, 64, 112
1, 21044, Note_off_c, 0, 64, 112
1, 21100, Note_on_c, 0, 65, 106
1, 21228, Note_off_c, 0, 65, 106
1, 21296, Note_on_c, 0, 69, 108
1, 21568, Note_off_c, 0, 69, 108
1, 21810, Note_on_c, 0, 64, 113
1, 21892, Note_off_c, 0, 64, 113
1, 21900, Note_on_c, 0, 65, 110
1, 21964, Note_off_c, 0, 65, 110
1, 22008, Note_on_c, 0, 63, 99
1, 22057, Note_off_c, 0, 63, 99
1, 22070, Note_on_c, 0, 64, 112
1, 22172, Note_off_c, 0, 64, 112
1, 22182, Note_on_c, 0, 62, 106
1, 22278, Note_off_c, 0, 62, 106
1, 22288, Note_on_c, 0, 61, 106
1, 22363, Note_off_c, 0, 61, 106
1, 22371, Note_on_c, 0, 58, 103
1, 22458, Note_off_c, 0, 58, 103
1, 22480, Note_on_c, 0, 57, 103
1, 22570, Note_off_c, 0, 57, 103
1, 22590, Note_on_c, 0, 55, 98
1, 22646, Note_off_c, 0, 55, 98
1, 22666, Note_on_c, 0, 53, 96
1, 22796, Note_off_c, 0, 53, 96
1, 22883, Note_on_c, 0, 61, 80
1, 22916, Note_off_c, 0, 61, 80
1, 22928, Note_on_c, 0, 64, 111
1, 23026, Note_off_c, 0, 64, 111
1, 23036, Note_on_c, 0, 62, 112
1, 23116, Note_off_c, 0, 62, 112
1, 23124, Note_on_c, 0, 64, 113
1, 23199, Note_off_c, 0, 64, 113
1, 23222, Note_on_c, 0, 65, 108
1, 23299, Note_off_c, 0, 65, 108
1, 23336, Note_on_c, 0, 67, 107
1, 23403, Note_off_c, 0, 67, 107
1, 23423, Note_on_c, 0, 63, 111
1, 23575, Note_off_c, 0, 63, 111
1, 23586, Note_on_c, 0, 62, 105
1, 23676, Note_off_c, 0, 62, 105
1, 23737, Note_on_c, 0, 60, 106
1, 23850, Note_off_c, 0, 60, 106
1, 24242, Note_on_c, 0, 71, 85
1, 24276, Note_off_c, 0, 71, 85
1, 24303, Note_on_c, 0, 67, 111
1, 24348, Note_off_c, 0, 67, 111
1, 24361, Note_on_c, 0, 66, 111
1, 24454, Note_off_c, 0, 66, 111
1, 24465, Note_on_c, 0, 64, 95
1, 24523, Note_off_c, 0, 64, 95
1, 24537, Note_on_c, 0, 65, 111
1, 24633, Note_off_c, 0, 65, 111
1, 24646, Note_on_c, 0, 62, 112
1, 24713, Note_off_c, 0, 62, 112
1, 24723, Note_on_c, 0, 58, 106
1, 24836, Note_off_c, 0, 58, 106
1, 24906, Note_on_c, 0, 63, 117
1, 24949, Note_off_c, 0, 63, 117
1, 24950, Note_on_c, 0, 64, 111
1, 24972, Note_off_c, 0, 64, 111
1, 24976, Note_on_c, 0, 63, 115
1, 25015, Note_off_c, 0, 63, 115
1, 25020, Note_on_c, 0, 62, 108
1, 25048, Note_off_c, 0, 62, 108
1, 25056, Note_on_c, 0, 61, 109
1, 25090, Note_off_c, 0, 61, 109
1, 25101, Note_on_c, 0, 60, 108
1, 25215, Note_off_c, 0, 60, 108
1, 25246, Note_on_c, 0, 58, 104
1, 25312, Note_off_c, 0, 58, 104
1, 25326, Note_on_c, 0, 57, 104
1, 25417, Note_off_c, 0, 57, 104
1, 25437, Note_on_c, 0, 55, 104
1, 25493, Note_off_c, 0, 55, 104
1, 25540, Note_on_c, 0, 54, 102
1, 25641, Note_off_c, 0, 54, 102
1, 25658, Note_on_c, 0, 50, 94
1, 25716, Note_off_c, 0, 50, 94
1, 25740, Note_on_c, 0, 55, 105
1, 25819, Note_off_c, 0, 55, 105
1, 25844, Note_on_c, 0, 57, 108
1, 25922, Note_off_c, 0, 57, 108
1, 25936, Note_on_c, 0, 58, 106
1, 26012, Note_off_c, 0, 58, 106
1, 26039, Note_on_c, 0, 60, 112
1, 26125, Note_off_c, 0, 60, 112
1, 26138, Note_on_c, 0, 57, 101
1, 26252, Note_off_c, 0, 57, 101
1, 26294, Note_on_c, 0, 57, 106
1, 26396, Note_off_c, 0, 57, 106
1, 26434, Note_on_c, 0, 53, 96
1, 26666, Note_off_c, 0, 53, 96
1, 27049, Note_on_c, 0, 60, 119
1, 27099, Note_off_c, 0, 60, 119
1, 27118, Note_on_c, 0, 65, 101
1, 27139, Note_off_c, 0, 65, 101
1, 27181, Note_on_c, 0, 69, 116
1, 27247, Note_off_c, 0, 69, 116
1, 27272, Note_on_c, 0, 74, 112
1, 27441, Note_off_c, 0, 74, 112
1, 27451, Note_on_c, 0, 69, 117
1, 27536, Note_off_c, 0, 69, 117
1, 27561, Note_on_c, 0, 72, 115
1, 27999, Note_off_c, 0, 72, 115
1, 28127, Note_on_c, 0, 69, 114
1, 28180, Note_off_c, 0, 69, 114
1, 28183, Note_on_c, 0, 68, 110
1, 28216, Note_off_c, 0, 68, 110
1, 28223, Note_on_c, 0, 67, 114
1, 28274, Note_off_c, 0, 67, 114
1, 28285, Note_on_c, 0, 66, 114
1, 28327, Note_off_c, 0, 66, 114
1, 28329, Note_on_c, 0, 64, 117
1, 28370, Note_off_c, 0, 64, 117
1, 28374, Note_on_c, 0, 62, 115
1, 28407, Note_off_c, 0, 62, 115
1, 28412, Note_on_c, 0, 61, 112
1, 28464, Note_off_c, 0, 61, 112
1, 28470, Note_on_c, 0, 64, 113
1, 28504, Note_off_c, 0, 64, 113
1, 28506, Note_on_c, 0, 67, 109
1, 28528, Note_off_c, 0, 67, 109
1, 28529, Note_on_c, 0, 70, 114
1, 28570, Note_off_c, 0, 70, 114
1, 28581, Note_on_c, 0, 69, 114
1, 28643, Note_off_c, 0, 69, 114
1, 28925, Note_on_c, 0, 57, 111
1, 28968, Note_off_c, 0, 57, 111
1, 28978, Note_on_c, 0, 59, 109
1, 29010, Note_off_c, 0, 59, 109
1, 29013, Note_on_c, 0, 61, 113
1, 29068, Note_off_c, 0, 61, 113
1, 29072, Note_on_c, 0, 64, 117
1, 29111, Note_off_c, 0, 64, 117
1, 29114, Note_on_c, 0, 62, 115
1, 29155, Note_off_c, 0, 62, 115
1, 29161, Note_on_c, 0, 64, 117
1, 29210, Note_off_c, 0, 64, 117
1, 29233, Note_on_c, 0, 67, 102
1, 29288, Note_off_c, 0, 67, 102
1, 29298, Note_on_c, 0, 69, 114
1, 29348, Note_off_c, 0, 69, 114
1, 29352, Note_on_c, 0, 65, 110
1, 29387, Note_off_c, 0, 65, 110
1, 29393, Note_on_c, 0, 64, 112
1, 29441, Note_off_c, 0, 64, 112
1, 29445, Note_on_c, 0, 62, 109
1, 29475, Note_off_c, 0, 62, 109
1, 29484, Note_on_c, 0, 67, 113
1, 29528, Note_off_c, 0, 67, 113
1, 29533, Note_on_c, 0, 66, 108
1, 29588, Note_off_c, 0, 66, 108
1, 29592, Note_on_c, 0, 65, 111
1, 29621, Note_off_c, 0, 65, 111
1, 29625, Note_on_c, 0, 64, 120
1, 29682, Note_off_c, 0, 64, 120
1, 29687, Note_on_c, 0, 62, 108
1, 29717, Note_off_c, 0, 62, 108
1, 29722, Note_on_c, 0, 54, 106
1, 29789, Note_off_c, 0, 54, 106
1, 29793, Note_on_c, 0, 55, 108
1, 29851, Note_off_c, 0, 55, 108
1, 29855, Note_on_c, 0, 62, 116
1, 29911, Note_off_c, 0, 62, 116
1, 29916, Note_on_c, 0, 61, 104
1, 29937, Note_off_c, 0, 61, 104
1, 29942, Note_on_c, 0, 58, 106
1, 30002, Note_off_c, 0, 58, 106
1, 30031, Note_on_c, 0, 57, 109
1, 30066, Note_off_c, 0, 57, 109
1, 30075, Note_on_c, 0, 60, 106
1, 30111, Note_off_c, 0, 60, 106
1, 30118, Note_on_c, 0, 63, 117
1, 30163, Note_off_c, 0, 63, 117
1, 30168, Note_on_c, 0, 67, 111
1, 30203, Note_off_c, 0, 67, 111
1, 30207, Note_on_c, 0, 65, 110
1, 30252, Note_off_c, 0, 65, 110
1, 30258, Note_on_c, 0, 63, 116
1, 30295, Note_off_c, 0, 63, 116
1, 30301, Note_on_c, 0, 62, 108
1, 30340, Note_off_c, 0, 62, 108
1, 30343, Note_on_c, 0, 60, 106
1, 30368, Note_off_c, 0, 60, 106
1, 30375, Note_on_c, 0, 58, 108
1, 30398, Note_off_c, 0, 58, 108
1, 30438, Note_on_c, 0, 60, 108
1, 30465, Note_off_c, 0, 60, 108
1, 30480, Note_on_c, 0, 62, 109
1, 30520, Note_off_c, 0, 62, 109
1, 30529, Note_on_c, 0, 65, 104
1, 30570, Note_off_c, 0, 65, 104
1, 30578, Note_on_c, 0, 70, 113
1, 30625, Note_off_c, 0, 70, 113
1, 30633, Note_on_c, 0, 69, 111
1, 30668, Note_off_c, 0, 69, 111
1, 30679, Note_on_c, 0, 67, 111
1, 30737, Note_off_c, 0, 67, 111
1, 30745, Note_on_c, 0, 66, 110
1, 30778, Note_off_c, 0, 66, 110
1, 30783, Note_on_c, 0, 65, 109
1, 30803, Note_off_c, 0, 65, 109
1, 30808, Note_on_c, 0, 63, 117
1, 30853, Note_off_c, 0, 63, 117
1, 30857, Note_on_c, 0, 62, 112
1, 30880, Note_off_c, 0, 62, 112
1, 30882, Note_on_c, 0, 60, 109
1, 30907, Note_off_c, 0, 60, 109
1, 30910, Note_on_c, 0, 58, 107
1, 30926, Note_off_c, 0, 58, 107
1, 30933, Note_on_c, 0, 56, 104
1, 30963, Note_off_c, 0, 56, 104
1, 30972, Note_on_c, 0, 55, 104
1, 31005, Note_off_c, 0, 55, 104
1, 31012, Note_on_c, 0, 54, 106
1, 31064, Note_off_c, 0, 54, 106
1, 31069, Note_on_c, 0, 53, 106
1, 31102, Note_off_c, 0, 53, 106
1, 31107, Note_on_c, 0, 51, 109
1, 31145, Note_off_c, 0, 51, 109
1, 31149, Note_on_c, 0, 50, 106
1, 31196, Note_off_c, 0, 50, 106
1, 31201, Note_on_c, 0, 48, 107
1, 31250, Note_off_c, 0, 48, 107
1, 31256, Note_on_c, 0, 46, 109
1, 31325, Note_off_c, 0, 46, 109
1, 31332, Note_on_c, 0, 45, 108
1, 31442, Note_off_c, 0, 45, 108
1, 31836, Note_on_c, 0, 54, 95
1, 31880, Note_off_c, 0, 54, 95
1, 31888, Note_on_c, 0, 55, 103
1, 31974, Note_off_c, 0, 55, 103
1, 31991, Note_on_c, 0, 57, 110
1, 32070, Note_off_c, 0, 57, 110
1, 32089, Note_on_c, 0, 58, 111
1, 32172, Note_off_c, 0, 58, 111
1, 32184, Note_on_c, 0, 60, 116
1, 32282, Note_off_c, 0, 60, 116
1, 32302, Note_on_c, 0, 61, 118
1, 32373, Note_off_c, 0, 61, 118
1, 32409, Note_on_c, 0, 63, 118
1, 32488, Note_off_c, 0, 63, 118
1, 32500, Note_on_c, 0, 64, 117
1, 32588, Note_off_c, 0, 64, 117
1, 32598, Note_on_c, 0, 66, 112
1, 32671, Note_off_c, 0, 66, 112
1, 32683, Note_on_c, 0, 68, 113
1, 32749, Note_off_c, 0, 68, 113
1, 32775, Note_on_c, 0, 67, 105
1, 32799, Note_off_c, 0, 67, 105
1, 32809, Note_on_c, 0, 70, 113
1, 32866, Note_off_c, 0, 70, 113
1, 32878, Note_on_c, 0, 72, 113
1, 32946, Note_off_c, 0, 72, 113
1, 32958, Note_on_c, 0, 73, 113
1, 33024, Note_off_c, 0, 73, 113
1, 33035, Note_on_c, 0, 75, 108
1, 33144, Note_off_c, 0, 75, 108
1, 33191, Note_on_c, 0, 72, 101
1, 33237, Note_off_c, 0, 72, 101
1, 33253, Note_on_c, 0, 73, 113
1, 33326, Note_off_c, 0, 73, 113
1, 33345, Note_on_c, 0, 72, 112
1, 33418, Note_off_c, 0, 72, 112
1, 33435, Note_on_c, 0, 70, 115
1, 33531, Note_off_c, 0, 70, 115
1, 33544, Note_on_c, 0, 68, 97
1, 33580, Note_off_c, 0, 68, 97
1, 33584, Note_on_c, 0, 69, 110
1, 33700, Note_off_c, 0, 69, 110
1, 33741, Note_on_c, 0, 67, 111
1, 33801, Note_off_c, 0, 67, 111
1, 33827, Note_on_c, 0, 65, 110
1, 33889, Note_off_c, 0, 65, 110
1, 33939, Note_on_c, 0, 63, 118
1, 34003, Note_off_c, 0, 63, 118
1, 34017, Note_on_c, 0, 64, 116
1, 34098, Note_off_c, 0, 64, 116
1, 34132, Note_on_c, 0, 62, 109
1, 34220, Note_off_c, 0, 62, 109
1, 34230, Note_on_c, 0, 61, 108
1, 34301, Note_off_c, 0, 61, 108
1, 34336, Note_on_c, 0, 64, 106
1, 34395, Note_off_c, 0, 64, 106
1, 34416, Note_on_c, 0, 67, 102
1, 34491, Note_off_c, 0, 67, 102
1, 34503, Note_on_c, 0, 70, 115
1, 34578, Note_off_c, 0, 70, 115
1, 34590, Note_on_c, 0, 69, 113
1, 34681, Note_off_c, 0, 69, 113
1, 34701, Note_on_c, 0, 67, 109
1, 34787, Note_off_c, 0, 67, 109
1, 34811, Note_on_c, 0, 65, 107
1, 34949, Note_off_c, 0, 65, 107
1, 35000, Note_on_c, 0, 62, 98
1, 35220, Note_off_c, 0, 62, 98
1, 35660, Note_on_c, 0, 73, 114
1, 35711, Note_off_c, 0, 73, 114
1, 35726, Note_on_c, 0, 72, 118
1, 35771, Note_off_c, 0, 72, 118
1, 35786, Note_on_c, 0, 71, 118
1, 35845, Note_off_c, 0, 71, 118
1, 35861, Note_on_c, 0, 69, 113
1, 35951, Note_off_c, 0, 69, 113
1, 35962, Note_on_c, 0, 68, 114
1, 36041, Note_off_c, 0, 68, 114
1, 36060, Note_on_c, 0, 67, 112
1, 36146, Note_off_c, 0, 67, 112
1, 36161, Note_on_c, 0, 66, 113
1, 36253, Note_off_c, 0, 66, 113
1, 36262, Note_on_c, 0, 64, 98
1, 36321, Note_off_c, 0, 64, 98
1, 36338, Note_on_c, 0, 65, 111
1, 36417, Note_off_c, 0, 65, 111
1, 36432, Note_on_c, 0, 53, 101
1, 36501, Note_off_c, 0, 53, 101
1, 36518, Note_on_c, 0, 58, 103
1, 36571, Note_off_c, 0, 58, 103
1, 36581, Note_on_c, 0, 62, 92
1, 36615, Note_off_c, 0, 62, 92
1, 36630, Note_on_c, 0, 63, 118
1, 36700, Note_off_c, 0, 63, 118
1, 36713, Note_on_c, 0, 62, 113
1, 36805, Note_off_c, 0, 62, 113
1, 36816, Note_on_c, 0, 60, 109
1, 36896, Note_off_c, 0, 60, 109
1, 36906, Note_on_c, 0, 58, 103
1, 36993, Note_off_c, 0, 58, 103
1, 37016, Note_on_c, 0, 57, 104
1, 37103, Note_off_c, 0, 57, 104
1, 37116, Note_on_c, 0, 55, 101
1, 37193, Note_off_c, 0, 55, 101
1, 37203, Note_on_c, 0, 53, 104
1, 37286, Note_off_c, 0, 53, 104
1, 37305, Note_on_c, 0, 54, 105
1, 37385, Note_off_c, 0, 54, 105
1, 37397, Note_on_c, 0, 57, 112
1, 37476, Note_off_c, 0, 57, 112
1, 37487, Note_on_c, 0, 60, 111
1, 37554, Note_off_c, 0, 60, 111
1, 37563, Note_on_c, 0, 63, 118
1, 37626, Note_off_c, 0, 63, 118
1, 37636, Note_on_c, 0, 62, 110
1, 37663, Note_off_c, 0, 62, 110
1, 37676, Note_on_c, 0, 63, 109
1, 37717, Note_off_c, 0, 63, 109
1, 37725, Note_on_c, 0, 62, 107
1, 37764, Note_off_c, 0, 62, 107
1, 37784, Note_on_c, 0, 60, 109
1, 37834, Note_off_c, 0, 60, 109
1, 37845, Note_on_c, 0, 58, 107
1, 37937, Note_off_c, 0, 58, 107
1, 37969, Note_on_c, 0, 60, 109
1, 38064, Note_off_c, 0, 60, 109
1, 38081, Note_on_c, 0, 62, 98
1, 38147, Note_off_c, 0, 62, 98
1, 38172, Note_on_c, 0, 65, 90
1, 38225, Note_off_c, 0, 65, 90
1, 38234, Note_on_c, 0, 69, 115
1, 38284, Note_off_c, 0, 69, 115
1, 38376, Note_on_c, 0, 60, 107
1, 38439, Note_off_c, 0, 60, 107
1, 38451, Note_on_c, 0, 62, 103
1, 38527, Note_off_c, 0, 62, 103
1, 38538, Note_on_c, 0, 65, 94
1, 38861, Note_off_c, 0, 65, 94
1, 39100, Note_on_c, 0, 61, 115
1, 39178, Note_off_c, 0, 61, 115
1, 39184, Note_on_c, 0, 62, 116
1, 39272, Note_off_c, 0, 62, 116
1, 39290, Note_on_c, 0, 65, 112
1, 39384, Note_off_c, 0, 65, 112
1, 39398, Note_on_c, 0, 62, 115
1, 39472, Note_off_c, 0, 62, 115
1, 39479, Note_on_c, 0, 63, 109
1, 39557, Note_off_c, 0, 63, 109
1, 39575, Note_on_c, 0, 67, 111
1, 39665, Note_off_c, 0, 67, 111
1, 39684, Note_on_c, 0, 70, 115
1, 39754, Note_off_c, 0, 70, 115
1, 39793, Note_on_c, 0, 73, 116
1, 39876, Note_off_c, 0, 73, 116
1, 39903, Note_on_c, 0, 74, 112
1, 39980, Note_off_c, 0, 74, 112
1, 39990, Note_on_c, 0, 76, 113
1, 40059, Note_off_c, 0, 76, 113
1, 40091, Note_on_c, 0, 76, 120
1, 40159, Note_off_c, 0, 76, 120
1, 40165, Note_on_c, 0, 75, 50
1, 40244, Note_off_c, 0, 75, 50
1, 40261, Note_on_c, 0, 74, 102
1, 40340, Note_off_c, 0, 74, 102
1, 40370, Note_on_c, 0, 73, 107
1, 40451, Note_off_c, 0, 73, 107
1, 40476, Note_on_c, 0, 69, 104
1, 40550, Note_off_c, 0, 69, 104
1, 40562, Note_on_c, 0, 68, 105
1, 40653, Note_off_c, 0, 68, 105
1, 40672, Note_on_c, 0, 67, 101
1, 40733, Note_off_c, 0, 67, 101
1, 40752, Note_on_c, 0, 66, 101
1, 40855, Note_off_c, 0, 66, 101
1, 40865, Note_on_c, 0, 64, 87
1, 40914, Note_off_c, 0, 64, 87
1, 40929, Note_on_c, 0, 65, 104
1, 41028, Note_off_c, 0, 65, 104
1, 41038, Note_on_c, 0, 67, 104
1, 41117, Note_off_c, 0, 67, 104
1, 41129, Note_on_c, 0, 69, 106
1, 41213, Note_off_c, 0, 69, 106
1, 41228, Note_on_c, 0, 70, 107
1, 41319, Note_off_c, 0, 70, 107
1, 41327, Note_on_c, 0, 71, 106
1, 41419, Note_off_c, 0, 71, 106
1, 41428, Note_on_c, 0, 72, 98
1, 41501, Note_off_c, 0, 72, 98
1, 41537, Note_on_c, 0, 69, 104
1, 41614, Note_off_c, 0, 69, 104
1, 41625, Note_on_c, 0, 65, 92
1, 41703, Note_off_c, 0, 65, 92
1, 41718, Note_on_c, 0, 69, 108
1, 41804, Note_off_c, 0, 69, 108
1, 41833, Note_on_c, 0, 70, 107
1, 41893, Note_off_c, 0, 70, 107
1, 41910, Note_on_c, 0, 67, 101
1, 42000, Note_off_c, 0, 67, 101
1, 42032, Note_on_c, 0, 65, 101
1, 42110, Note_off_c, 0, 65, 101
1, 42118, Note_on_c, 0, 64, 107
1, 42201, Note_off_c, 0, 64, 107
1, 42251, Note_on_c, 0, 62, 95
1, 42296, Note_off_c, 0, 62, 95
1, 42308, Note_on_c, 0, 63, 108
1, 42385, Note_off_c, 0, 63, 108
1, 42403, Note_on_c, 0, 65, 104
1, 42493, Note_off_c, 0, 65, 104
1, 42510, Note_on_c, 0, 66, 105
1, 42593, Note_off_c, 0, 66, 105
1, 42603, Note_on_c, 0, 68, 104
1, 42682, Note_off_c, 0, 68, 104
1, 42682, Note_on_c, 0, 70, 106
1, 42765, Note_off_c, 0, 70, 106
1, 42783, Note_on_c, 0, 73, 102
1, 42858, Note_off_c, 0, 73, 102
1, 42887, Note_on_c, 0, 80, 93
1, 43018, Note_off_c, 0, 80, 93
1, 43031, Note_on_c, 0, 76, 94
1, 43067, Note_off_c, 0, 76, 94
1, 43104, Note_on_c, 0, 73, 104
1, 43199, Note_off_c, 0, 73, 104
1, 43211, Note_on_c, 0, 71, 105
1, 43281, Note_off_c, 0, 71, 105
1, 43297, Note_on_c, 0, 69, 103
1, 43389, Note_off_c, 0, 69, 103
1, 43416, Note_on_c, 0, 67, 98
1, 43481, Note_off_c, 0, 67, 98
1, 43493, Note_on_c, 0, 69, 92
1, 43525, Note_off_c, 0, 69, 92
1, 43528, Note_on_c, 0, 71, 91
1, 43593, Note_off_c, 0, 71, 91
1, 43611, Note_on_c, 0, 66, 101
1, 43659, Note_off_c, 0, 66, 101
1, 43670, Note_on_c, 0, 65, 100
1, 43768, Note_off_c, 0, 65, 100
1, 43964, Note_on_c, 0, 63, 110
1, 44061, Note_off_c, 0, 63, 110
1, 44077, Note_on_c, 0, 62, 105
1, 44183, Note_off_c, 0, 62, 105
1, 44197, Note_on_c, 0, 65, 81
1, 44240, Note_off_c, 0, 65, 81
1, 44255, Note_on_c, 0, 67, 104
1, 44335, Note_off_c, 0, 67, 104
1, 44358, Note_on_c, 0, 69, 107
1, 44431, Note_off_c, 0, 69, 107
1, 44451, Note_on_c, 0, 72, 103
1, 44530, Note_off_c, 0, 72, 103
1, 44553, Note_on_c, 0, 71, 106
1, 44618, Note_off_c, 0, 71, 106
1, 44662, Note_on_c, 0, 70, 103
1, 44722, Note_off_c, 0, 70, 103
1, 44742, Note_on_c, 0, 69, 97
1, 44830, Note_off_c, 0, 69, 97
1, 44845, Note_on_c, 0, 67, 99
1, 44926, Note_off_c, 0, 67, 99
1, 44939, Note_on_c, 0, 65, 98
1, 44980, Note_off_c, 0, 65, 98
1, 45004, Note_on_c, 0, 66, 98
1, 45113, Note_off_c, 0, 66, 98
1, 45540, Note_on_c, 0, 69, 107
1, 45612, Note_off_c, 0, 69, 107
1, 45961, Note_on_c, 0, 72, 108
1, 46063, Note_off_c, 0, 72, 108
1, 46330, Note_on_c, 0, 64, 107
1, 46436, Note_off_c, 0, 64, 107
1, 46719, Note_on_c, 0, 57, 105
1, 46806, Note_off_c, 0, 57, 105
1, 46818, Note_on_c, 0, 61, 111
1, 46896, Note_off_c, 0, 61, 111
1, 46926, Note_on_c, 0, 62, 111
1, 46987, Note_off_c, 0, 62, 111
1, 47004, Note_on_c, 0, 64, 110
1, 47092, Note_off_c, 0, 64, 110
1, 47130, Note_on_c, 0, 65, 107
1, 47204, Note_off_c, 0, 65, 107
1, 47224, Note_on_c, 0, 62, 107
1, 47303, Note_off_c, 0, 62, 107
1, 47799, Note_on_c, 0, 55, 102
1, 47846, Note_off_c, 0, 55, 102
1, 47857, Note_on_c, 0, 58, 103
1, 47900, Note_off_c, 0, 58, 103
1, 47913, Note_on_c, 0, 55, 98
1, 47944, Note_off_c, 0, 55, 98
1, 47948, Note_on_c, 0, 57, 102
1, 47992, Note_off_c, 0, 57, 102
1, 47997, Note_on_c, 0, 60, 100
1, 48043, Note_off_c, 0, 60, 100
1, 48051, Note_on_c, 0, 63, 109
1, 48095, Note_off_c, 0, 63, 109
1, 48104, Note_on_c, 0, 67, 99
1, 48146, Note_off_c, 0, 67, 99
1, 48163, Note_on_c, 0, 60, 102
1, 48196, Note_off_c, 0, 60, 102
1, 48205, Note_on_c, 0, 62, 97
1, 48242, Note_off_c, 0, 62, 97
1, 48250, Note_on_c, 0, 65, 104
1, 48295, Note_off_c, 0, 65, 104
1, 48311, Note_on_c, 0, 62, 104
1, 48336, Note_off_c, 0, 62, 104
1, 48342, Note_on_c, 0, 63, 108
1, 48382, Note_off_c, 0, 63, 108
1, 48390, Note_on_c, 0, 62, 106
1, 48435, Note_off_c, 0, 62, 106
1, 48443, Note_on_c, 0, 61, 102
1, 48477, Note_off_c, 0, 61, 102
1, 48485, Note_on_c, 0, 57, 99
1, 48515, Note_off_c, 0, 57, 99
1, 48522, Note_on_c, 0, 54, 99
1, 48568, Note_off_c, 0, 54, 99
1, 48581, Note_on_c, 0, 52, 95
1, 48641, Note_off_c, 0, 52, 95
1, 48648, Note_on_c, 0, 51, 96
1, 48687, Note_off_c, 0, 51, 96
1, 48696, Note_on_c, 0, 50, 94
1, 48732, Note_off_c, 0, 50, 94
1, 48739, Note_on_c, 0, 53, 96
1, 48767, Note_off_c, 0, 53, 96
1, 48775, Note_on_c, 0, 57, 99
1, 48807, Note_off_c, 0, 57, 99
1, 48814, Note_on_c, 0, 60, 104
1, 48871, Note_off_c, 0, 60, 104
1, 48874, Note_on_c, 0, 58, 102
1, 48928, Note_off_c, 0, 58, 102
1, 48929, Note_on_c, 0, 60, 103
1, 48949, Note_off_c, 0, 60, 103
1, 48956, Note_on_c, 0, 62, 104
1, 49005, Note_off_c, 0, 62, 104
1, 49007, Note_on_c, 0, 65, 99
1, 49056, Note_off_c, 0, 65, 99
1, 49063, Note_on_c, 0, 70, 108
1, 49142, Note_off_c, 0, 70, 108
1, 49377, Note_on_c, 0, 72, 101
1, 49527, Note_off_c, 0, 72, 101
1, 49559, Note_on_c, 0, 72, 86
1, 49636, Note_off_c, 0, 72, 86
1, 49694, Note_on_c, 0, 69, 108
1, 49765, Note_off_c, 0, 69, 108
1, 49784, Note_on_c, 0, 67, 106
1, 49850, Note_off_c, 0, 67, 106
1, 49895, Note_on_c, 0, 66, 107
1, 49970, Note_off_c, 0, 66, 107
1, 50005, Note_on_c, 0, 63, 111
1, 50061, Note_off_c, 0, 63, 111
1, 50078, Note_on_c, 0, 62, 106
1, 50165, Note_off_c, 0, 62, 106
1, 50197, Note_on_c, 0, 60, 104
1, 50260, Note_off_c, 0, 60, 104
1, 50272, Note_on_c, 0, 58, 101
1, 50354, Note_off_c, 0, 58, 101
1, 50438, Note_on_c, 0, 62, 106
1, 50539, Note_off_c, 0, 62, 106
1, 50588, Note_on_c, 0, 65, 104
1, 50649, Note_off_c, 0, 65, 104
1, 50660, Note_on_c, 0, 68, 107
1, 50731, Note_off_c, 0, 68, 107
1, 50748, Note_on_c, 0, 69, 101
1, 50828, Note_off_c, 0, 69, 101
1, 50852, Note_on_c, 0, 65, 101
1, 50918, Note_off_c, 0, 65, 101
1, 50951, Note_on_c, 0, 60, 89
1, 50999, Note_off_c, 0, 60, 89
1, 51037, Note_on_c, 0, 64, 107
1, 51107, Note_off_c, 0, 64, 107
1, 51142, Note_on_c, 0, 65, 102
1, 51177, Note_off_c, 0, 65, 102
1, 51186, Note_on_c, 0, 66, 104
1, 51223, Note_off_c, 0, 66, 104
1, 51241, Note_on_c, 0, 67, 105
1, 51300, Note_off_c, 0, 67, 105
1, 51347, Note_on_c, 0, 66, 102
1, 51407, Note_off_c, 0, 66, 102
1, 51424, Note_on_c, 0, 65, 103
1, 51492, Note_off_c, 0, 65, 103
1, 51529, Note_on_c, 0, 64, 107
1, 51600, Note_off_c, 0, 64, 107
1, 51610, Note_on_c, 0, 62, 105
1, 51690, Note_off_c, 0, 62, 105
1, 51723, Note_on_c, 0, 61, 106
1, 51789, Note_off_c, 0, 61, 106
1, 51809, Note_on_c, 0, 60, 100
1, 51870, Note_off_c, 0, 60, 100
1, 51891, Note_on_c, 0, 57, 100
1, 51970, Note_off_c, 0, 57, 100
1, 51988, Note_on_c, 0, 53, 95
1, 52073, Note_off_c, 0, 53, 95
1, 52744, Note_on_c, 0, 49, 106
1, 52775, Note_off_c, 0, 49, 106
1, 52777, Note_on_c, 0, 51, 104
1, 52809, Note_off_c, 0, 51, 104
1, 52812, Note_on_c, 0, 54, 101
1, 52838, Note_off_c, 0, 54, 101
1, 52844, Note_on_c, 0, 58, 105
1, 52882, Note_off_c, 0, 58, 105
1, 52892, Note_on_c, 0, 61, 111
1, 52933, Note_off_c, 0, 61, 111
1, 52943, Note_on_c, 0, 64, 111
1, 52999, Note_off_c, 0, 64, 111
1, 53009, Note_on_c, 0, 67, 105
1, 53039, Note_off_c, 0, 67, 105
1, 53046, Note_on_c, 0, 70, 113
1, 53087, Note_off_c, 0, 70, 113
1, 53097, Note_on_c, 0, 72, 112
1, 53164, Note_off_c, 0, 72, 112
1, 53174, Note_on_c, 0, 70, 111
1, 53221, Note_off_c, 0, 70, 111
1, 53241, Note_on_c, 0, 69, 104
1, 53578, Note_off_c, 0, 69, 104
1, 53610, Note_on_c, 0, 67, 108
1, 53695, Note_off_c, 0, 67, 108
1, 53704, Note_on_c, 0, 65, 109
1, 53803, Note_off_c, 0, 65, 109
1, 53825, Note_on_c, 0, 64, 110
1, 53982, Note_off_c, 0, 64, 110
1, 54004, Note_on_c, 0, 62, 97
1, 54049, Note_off_c, 0, 62, 97
1, 54087, Note_on_c, 0, 63, 117
1, 54173, Note_off_c, 0, 63, 117
1, 54194, Note_on_c, 0, 65, 111
1, 54268, Note_off_c, 0, 65, 111
1, 54287, Note_on_c, 0, 67, 110
1, 54357, Note_off_c, 0, 67, 110
1, 54394, Note_on_c, 0, 70, 114
1, 54450, Note_off_c, 0, 70, 114
1, 54464, Note_on_c, 0, 72, 112
1, 54552, Note_off_c, 0, 72, 112
1, 54588, Note_on_c, 0, 72, 112
1, 54646, Note_off_c, 0, 72, 112
1, 54680, Note_on_c, 0, 69, 111
1, 54766, Note_off_c, 0, 69, 111
1, 54781, Note_on_c, 0, 65, 94
1, 54881, Note_off_c, 0, 65, 94
1, 54887, Note_on_c, 0, 72, 109
1, 55058, Note_off_c, 0, 72, 109
1, 55074, Note_on_c, 0, 69, 113
1, 55152, Note_off_c, 0, 69, 113
1, 55164, Note_on_c, 0, 67, 107
1, 55257, Note_off_c, 0, 67, 107
1, 55272, Note_on_c, 0, 65, 109
1, 55358, Note_off_c, 0, 65, 109
1, 55373, Note_on_c, 0, 64, 112
1, 55454, Note_off_c, 0, 64, 112
1, 55470, Note_on_c, 0, 62, 109
1, 55564, Note_off_c, 0, 62, 109
1, 55990, Note_on_c, 0, 55, 107
1, 56060, Note_off_c, 0, 55, 107
1, 56077, Note_on_c, 0, 54, 108
1, 56153, Note_off_c, 0, 54, 108
1, 56180, Note_on_c, 0, 63, 118
1, 56262, Note_off_c, 0, 63, 118
1, 56273, Note_on_c, 0, 62, 114
1, 56355, Note_off_c, 0, 62, 114
1, 56377, Note_on_c, 0, 60, 111
1, 56449, Note_off_c, 0, 60, 111
1, 56467, Note_on_c, 0, 59, 105
1, 56566, Note_off_c, 0, 59, 105
1, 56748, Note_on_c, 0, 69, 111
1, 56857, Note_off_c, 0, 69, 111
1, 57027, Note_on_c, 0, 58, 112
1, 57153, Note_off_c, 0, 58, 112
1, 57348, Note_on_c, 0, 68, 105
1, 57586, Note_off_c, 0, 68, 105
1, 57643, Note_on_c, 0, 64, 111
1, 57737, Note_off_c, 0, 64, 111
1, 57746, Note_on_c, 0, 62, 95
1, 57800, Note_off_c, 0, 62, 95
1, 57811, Note_on_c, 0, 63, 118
1, 57888, Note_off_c, 0, 63, 118
1, 57899, Note_on_c, 0, 62, 112
1, 57953, Note_off_c, 0, 62, 112
1, 57958, Note_on_c, 0, 61, 113
1, 58016, Note_off_c, 0, 61, 113
1, 58020, Note_on_c, 0, 60, 112
1, 58131, Note_off_c, 0, 60, 112
1, 58185, Note_on_c, 0, 72, 108
1, 58299, Note_off_c, 0, 72, 108
1, 58476, Note_on_c, 0, 60, 111
1, 58607, Note_off_c, 0, 60, 111
1, 58751, Note_on_c, 0, 61, 118
1, 58871, Note_off_c, 0, 61, 118
1, 59063, Note_on_c, 0, 73, 111
1, 59189, Note_off_c, 0, 73, 111
1, 59340, Note_on_c, 0, 62, 117
1, 59451, Note_off_c, 0, 62, 117
1, 59676, Note_on_c, 0, 74, 113
1, 59901, Note_off_c, 0, 74, 113
1, 59914, Note_on_c, 0, 72, 111
1, 60018, Note_off_c, 0, 72, 111
1, 60028, Note_on_c, 0, 70, 116
1, 60118, Note_off_c, 0, 70, 116
1, 60126, Note_on_c, 0, 69, 114
1, 60202, Note_off_c, 0, 69, 114
1, 60218, Note_on_c, 0, 67, 111
1, 60302, Note_off_c, 0, 67, 111
1, 60314, Note_on_c, 0, 65, 111
1, 60397, Note_off_c, 0, 65, 111
1, 60464, Note_on_c, 0, 63, 116
1, 60578, Note_off_c, 0, 63, 116
1, 60585, Note_on_c, 0, 65, 110
1, 60670, Note_off_c, 0, 65, 110
1, 60703, Note_on_c, 0, 66, 109
1, 60784, Note_off_c, 0, 66, 109
1, 60799, Note_on_c, 0, 64, 117
1, 60878, Note_off_c, 0, 64, 117
1, 60886, Note_on_c, 0, 65, 108
1, 60980, Note_off_c, 0, 65, 108
1, 60995, Note_on_c, 0, 63, 116
1, 61078, Note_off_c, 0, 63, 116
1, 61088, Note_on_c, 0, 62, 108
1, 61172, Note_off_c, 0, 62, 108
1, 61208, Note_on_c, 0, 53, 101
1, 61369, Note_off_c, 0, 53, 101
1, 61394, Note_on_c, 0, 58, 106
1, 61553, Note_off_c, 0, 58, 106
1, 61583, Note_on_c, 0, 62, 112
1, 61745, Note_off_c, 0, 62, 112
1, 61773, Note_on_c, 0, 57, 102
1, 61942, Note_off_c, 0, 57, 102
1, 61972, Note_on_c, 0, 55, 102
1, 62131, Note_off_c, 0, 55, 102
1, 62158, Note_on_c, 0, 54, 106
1, 62224, Note_off_c, 0, 54, 106
1, 62243, Note_on_c, 0, 63, 116
1, 62347, Note_off_c, 0, 63, 116
1, 62365, Note_on_c, 0, 62, 112
1, 62445, Note_off_c, 0, 62, 112
1, 62458, Note_on_c, 0, 60, 108
1, 62522, Note_off_c, 0, 60, 108
1, 62558, Note_on_c, 0, 59, 103
1, 62627, Note_off_c, 0, 59, 103
1, 62644, Note_on_c, 0, 58, 106
1, 62729, Note_off_c, 0, 58, 106
1, 62775, Note_on_c, 0, 60, 96
1, 62826, Note_off_c, 0, 60, 96
1, 62833, Note_on_c, 0, 62, 113
1, 62914, Note_off_c, 0, 62, 113
1, 62958, Note_on_c, 0, 65, 95
1, 62999, Note_off_c, 0, 65, 95
1, 63009, Note_on_c, 0, 69, 113
1, 63107, Note_off_c, 0, 69, 113
1, 63132, Note_on_c, 0, 60, 87
1, 63176, Note_off_c, 0, 60, 87
1, 63176, Note_on_c, 0, 62, 108
1, 63308, Note_off_c, 0, 62, 108
1, 63325, Note_on_c, 0, 65, 107
1, 63467, Note_off_c, 0, 65, 107
1, 63884, Note_on_c, 0, 61, 120
1, 63942, Note_off_c, 0, 61, 120
1, 63969, Note_on_c, 0, 62, 115
1, 64049, Note_off_c, 0, 62, 115
1, 64057, Note_on_c, 0, 65, 113
1, 64145, Note_off_c, 0, 65, 113
1, 64160, Note_on_c, 0, 62, 116
1, 64251, Note_off_c, 0, 62, 116
1, 64331, Note_on_c, 0, 67, 111
1, 64455, Note_off_c, 0, 67, 111
1, 64467, Note_on_c, 0, 70, 107
1, 64522, Note_off_c, 0, 70, 107
1, 64539, Note_on_c, 0, 74, 107
1, 64664, Note_off_c, 0, 74, 107
1, 64672, Note_on_c, 0, 77, 110
1, 64912, Note_off_c, 0, 77, 110
1, 64947, Note_on_c, 0, 74, 106
1, 65041, Note_off_c, 0, 74, 106
1, 65162, Note_on_c, 0, 77, 105
1, 65247, Note_off_c, 0, 77, 105
1, 65266, Note_on_c, 0, 73, 109
1, 65410, Note_off_c, 0, 73, 109
1, 65420, Note_on_c, 0, 71, 111
1, 65466, Note_off_c, 0, 71, 111
1, 65475, Note_on_c, 0, 69, 112
1, 65506, Note_off_c, 0, 69, 112
1, 65511, Note_on_c, 0, 66, 111
1, 65554, Note_off_c, 0, 66, 111
1, 65561, Note_on_c, 0, 63, 116
1, 65655, Note_off_c, 0, 63, 116
1, 65843, Note_on_c, 0, 62, 117
1, 65946, Note_off_c, 0, 62, 117
1, 65966, Note_on_c, 0, 65, 93
1, 65998, Note_off_c, 0, 65, 93
1, 66003, Note_on_c, 0, 69, 94
1, 66054, Note_off_c, 0, 69, 94
1, 66059, Note_on_c, 0, 72, 114
1, 66133, Note_off_c, 0, 72, 114
1, 66142, Note_on_c, 0, 70, 115
1, 66227, Note_off_c, 0, 70, 115
1, 66241, Note_on_c, 0, 69, 114
1, 66323, Note_off_c, 0, 69, 114
1, 66333, Note_on_c, 0, 67, 112
1, 66416, Note_off_c, 0, 67, 112
1, 66428, Note_on_c, 0, 66, 112
1, 66512, Note_off_c, 0, 66, 112
1, 66526, Note_on_c, 0, 65, 113
1, 66592, Note_off_c, 0, 65, 113
1, 66608, Note_on_c, 0, 63, 115
1, 66695, Note_off_c, 0, 63, 115
1, 66704, Note_on_c, 0, 62, 113
1, 66810, Note_off_c, 0, 62, 113
1, 66819, Note_on_c, 0, 60, 106
1, 66865, Note_off_c, 0, 60, 106
1, 66873, Note_on_c, 0, 58, 107
1, 66964, Note_off_c, 0, 58, 107
1, 66975, Note_on_c, 0, 60, 100
1, 67034, Note_off_c, 0, 60, 100
1, 67049, Note_on_c, 0, 62, 110
1, 67153, Note_off_c, 0, 62, 110
1, 67179, Note_on_c, 0, 65, 110
1, 67252, Note_off_c, 0, 65, 110
1, 67263, Note_on_c, 0, 63, 111
1, 67361, Note_off_c, 0, 63, 111
1, 67421, Note_on_c, 0, 54, 99
1, 67466, Note_off_c, 0, 54, 99
1, 67480, Note_on_c, 0, 58, 102
1, 67562, Note_off_c, 0, 58, 102
1, 67577, Note_on_c, 0, 63, 112
1, 67653, Note_off_c, 0, 63, 112
1, 67671, Note_on_c, 0, 65, 108
1, 67778, Note_off_c, 0, 65, 108
1, 67796, Note_on_c, 0, 62, 87
1, 67854, Note_off_c, 0, 62, 87
1, 67860, Note_on_c, 0, 63, 115
1, 67949, Note_off_c, 0, 63, 115
1, 67957, Note_on_c, 0, 65, 107
1, 68040, Note_off_c, 0, 65, 107
1, 68055, Note_on_c, 0, 66, 107
1, 68147, Note_off_c, 0, 66, 107
1, 68162, Note_on_c, 0, 69, 107
1, 68248, Note_off_c, 0, 69, 107
1, 68264, Note_on_c, 0, 68, 106
1, 68339, Note_off_c, 0, 68, 106
1, 68361, Note_on_c, 0, 67, 105
1, 68434, Note_off_c, 0, 67, 105
1, 68455, Note_on_c, 0, 66, 107
1, 68554, Note_off_c, 0, 66, 107
1, 68565, Note_on_c, 0, 64, 90
1, 68626, Note_off_c, 0, 64, 90
1, 68642, Note_on_c, 0, 65, 108
1, 68733, Note_off_c, 0, 65, 108
1, 68773, Note_on_c, 0, 60, 93
1, 68805, Note_off_c, 0, 60, 93
1, 68810, Note_on_c, 0, 63, 110
1, 68848, Note_off_c, 0, 63, 110
1, 68854, Note_on_c, 0, 65, 102
1, 68874, Note_off_c, 0, 65, 102
1, 68884, Note_on_c, 0, 63, 108
1, 68928, Note_off_c, 0, 63, 108
1, 68934, Note_on_c, 0, 61, 109
1, 68991, Note_off_c, 0, 61, 109
1, 69008, Note_on_c, 0, 60, 107
1, 69093, Note_off_c, 0, 60, 107
1, 69101, Note_on_c, 0, 61, 108
1, 69193, Note_off_c, 0, 61, 108
1, 69205, Note_on_c, 0, 65, 107
1, 69297, Note_off_c, 0, 65, 107
1, 69300, Note_on_c, 0, 68, 106
1, 69373, Note_off_c, 0, 68, 106
1, 69389, Note_on_c, 0, 72, 95
1, 69499, Note_off_c, 0, 72, 95
1, 69512, Note_on_c, 0, 75, 99
1, 69586, Note_off_c, 0, 75, 99
1, 69607, Note_on_c, 0, 72, 107
1, 69672, Note_off_c, 0, 72, 107
1, 69702, Note_on_c, 0, 70, 106
1, 69777, Note_off_c, 0, 70, 106
1, 69794, Note_on_c, 0, 68, 104
1, 69876, Note_off_c, 0, 68, 104
1, 69888, Note_on_c, 0, 66, 102
1, 69971, Note_off_c, 0, 66, 102
1, 69993, Note_on_c, 0, 64, 107
1, 70102, Note_off_c, 0, 64, 107
1, 70129, Note_on_c, 0, 63, 105
1, 70203, Note_off_c, 0, 63, 105
1, 70213, Note_on_c, 0, 65, 101
1, 70243, Note_off_c, 0, 65, 101
1, 70261, Note_on_c, 0, 63, 106
1, 70304, Note_off_c, 0, 63, 106
1, 70320, Note_on_c, 0, 61, 110
1, 70355, Note_off_c, 0, 61, 110
1, 70378, Note_on_c, 0, 60, 107
1, 70446, Note_off_c, 0, 60, 107
1, 70478, Note_on_c, 0, 69, 111
1, 70556, Note_off_c, 0, 69, 111
1, 71050, Note_on_c, 0, 69, 114
1, 71125, Note_off_c, 0, 69, 114
1, 71133, Note_on_c, 0, 68, 111
1, 71183, Note_off_c, 0, 68, 111
1, 71195, Note_on_c, 0, 69, 111
1, 71228, Note_off_c, 0, 69, 111
1, 71238, Note_on_c, 0, 69, 115
1, 71278, Note_off_c, 0, 69, 115
1, 71310, Note_on_c, 0, 69, 114
1, 71402, Note_off_c, 0, 69, 114
1, 71711, Note_on_c, 0, 69, 107
1, 71805, Note_off_c, 0, 69, 107
1, 71826, Note_on_c, 0, 69, 113
1, 71898, Note_off_c, 0, 69, 113
1, 71914, Note_on_c, 0, 69, 113
1, 72001, Note_off_c, 0, 69, 113
1, 72308, Note_on_c, 0, 69, 113
1, 72377, Note_off_c, 0, 69, 113
1, 72411, Note_on_c, 0, 69, 115
1, 72471, Note_off_c, 0, 69, 115
1, 72487, Note_on_c, 0, 70, 113
1, 72569, Note_off_c, 0, 70, 113
1, 72792, Note_on_c, 0, 69, 108
1, 72856, Note_off_c, 0, 69, 108
1, 73066, Note_on_c, 0, 67, 112
1, 73141, Note_off_c, 0, 67, 112
1, 73356, Note_on_c, 0, 65, 110
1, 73426, Note_off_c, 0, 65, 110
1, 73635, Note_on_c, 0, 62, 108
1, 73737, Note_off_c, 0, 62, 108
1, 73944, Note_on_c, 0, 72, 108
1, 74030, Note_off_c, 0, 72, 108
1, 74206, Note_on_c, 0, 69, 110
1, 74310, Note_off_c, 0, 69, 110
1, 74533, Note_on_c, 0, 67, 112
1, 74611, Note_off_c, 0, 67, 112
1, 74619, Note_on_c, 0, 66, 111
1, 74713, Note_off_c, 0, 66, 111
1, 74743, Note_on_c, 0, 63, 114
1, 74813, Note_off_c, 0, 63, 114
1, 74828, Note_on_c, 0, 62, 112
1, 74919, Note_off_c, 0, 62, 112
1, 74932, Note_on_c, 0, 60, 99
1, 74995, Note_off_c, 0, 60, 99
1, 75008, Note_on_c, 0, 58, 107
1, 75139, Note_off_c, 0, 58, 107
1, 75156, Note_on_c, 0, 62, 114
1, 75290, Note_off_c, 0, 62, 114
1, 75297, Note_on_c, 0, 65, 95
1, 75379, Note_off_c, 0, 65, 95
1, 75382, Note_on_c, 0, 68, 113
1, 75459, Note_off_c, 0, 68, 113
1, 75471, Note_on_c, 0, 69, 111
1, 75555, Note_off_c, 0, 69, 111
1, 75572, Note_on_c, 0, 70, 112
1, 75647, Note_off_c, 0, 70, 112
1, 75658, Note_on_c, 0, 67, 112
1, 75723, Note_off_c, 0, 67, 112
1, 75735, Note_on_c, 0, 69, 107
1, 75803, Note_off_c, 0, 69, 107
1, 75813, Note_on_c, 0, 65, 100
1, 75845, Note_off_c, 0, 65, 100
1, 75853, Note_on_c, 0, 62, 110
1, 75881, Note_off_c, 0, 62, 110
1, 75887, Note_on_c, 0, 60, 106
1, 75927, Note_off_c, 0, 60, 106
1, 75933, Note_on_c, 0, 59, 103
1, 76037, Note_off_c, 0, 59, 103
1, 76048, Note_on_c, 0, 57, 99
1, 76106, Note_off_c, 0, 57, 99
1, 76115, Note_on_c, 0, 58, 107
1, 76205, Note_off_c, 0, 58, 107
1, 76229, Note_on_c, 0, 60, 113
1, 76291, Note_off_c, 0, 60, 113
1, 76311, Note_on_c, 0, 62, 115
1, 76390, Note_off_c, 0, 62, 115
1, 76414, Note_on_c, 0, 64, 114
1, 76487, Note_off_c, 0, 64, 114
1, 76522, Note_on_c, 0, 65, 111
1, 76602, Note_off_c, 0, 65, 111
1, 76683, Note_on_c, 0, 65, 109
1, 76787, Note_off_c, 0, 65, 109
1, 76802, Note_on_c, 0, 69, 111
1, 76901, Note_off_c, 0, 69, 111
1, 76917, Note_on_c, 0, 74, 106
1, 77083, Note_off_c, 0, 74, 106
1, 77097, Note_on_c, 0, 72, 111
1, 77179, Note_off_c, 0, 72, 111
1, 77213, Note_on_c, 0, 70, 112
1, 77284, Note_off_c, 0, 70, 112
1, 77305, Note_on_c, 0, 69, 109
1, 77383, Note_off_c, 0, 69, 109
1, 77396, Note_on_c, 0, 68, 109
1, 77481, Note_off_c, 0, 68, 109
1, 77489, Note_on_c, 0, 67, 108
1, 77553, Note_off_c, 0, 67, 108
1, 77596, Note_on_c, 0, 66, 108
1, 77672, Note_off_c, 0, 66, 108
1, 77689, Note_on_c, 0, 65, 106
1, 77772, Note_off_c, 0, 65, 106
1, 77787, Note_on_c, 0, 61, 110
1, 77866, Note_off_c, 0, 61, 110
1, 77873, Note_on_c, 0, 60, 105
1, 77942, Note_off_c, 0, 60, 105
1, 77960, Note_on_c, 0, 58, 101
1, 78035, Note_off_c, 0, 58, 101
1, 78077, Note_on_c, 0, 57, 102
1, 78208, Note_off_c, 0, 57, 102
1, 78242, Note_on_c, 0, 61, 111
1, 78341, Note_off_c, 0, 61, 111
1, 78353, Note_on_c, 0, 64, 115
1, 78437, Note_off_c, 0, 64, 115
1, 78475, Note_on_c, 0, 62, 113
1, 78545, Note_off_c, 0, 62, 113
1, 78561, Note_on_c, 0, 64, 112
1, 78638, Note_off_c, 0, 64, 112
1, 78657, Note_on_c, 0, 65, 109
1, 78745, Note_off_c, 0, 65, 109
1, 78760, Note_on_c, 0, 67, 107
1, 78827, Note_off_c, 0, 67, 107
1, 78869, Note_on_c, 0, 63, 115
1, 78935, Note_off_c, 0, 63, 115
1, 78945, Note_on_c, 0, 64, 112
1, 79057, Note_off_c, 0, 64, 112
1, 79076, Note_on_c, 0, 61, 108
1, 79140, Note_off_c, 0, 61, 108
1, 79230, Note_on_c, 0, 63, 90
1, 79249, Note_off_c, 0, 63, 90
1, 79254, Note_on_c, 0, 65, 106
1, 79290, Note_off_c, 0, 65, 106
1, 79298, Note_on_c, 0, 63, 110
1, 79330, Note_off_c, 0, 63, 110
1, 79347, Note_on_c, 0, 59, 103
1, 79402, Note_off_c, 0, 59, 103
1, 79408, Note_on_c, 0, 54, 101
1, 79553, Note_off_c, 0, 54, 101
1, 79580, Note_on_c, 0, 53, 102
1, 79713, Note_off_c, 0, 53, 102
1, 80174, Note_on_c, 0, 57, 108
1, 80216, Note_off_c, 0, 57, 108
1, 80223, Note_on_c, 0, 56, 103
1, 80262, Note_off_c, 0, 56, 103
1, 80269, Note_on_c, 0, 57, 108
1, 80317, Note_off_c, 0, 57, 108
1, 80325, Note_on_c, 0, 59, 106
1, 80353, Note_off_c, 0, 59, 106
1, 80361, Note_on_c, 0, 60, 110
1, 80403, Note_off_c, 0, 60, 110
1, 80412, Note_on_c, 0, 62, 104
1, 80449, Note_off_c, 0, 62, 104
1, 80458, Note_on_c, 0, 65, 111
1, 80497, Note_off_c, 0, 65, 111
1, 80503, Note_on_c, 0, 62, 113
1, 80542, Note_off_c, 0, 62, 113
1, 80547, Note_on_c, 0, 63, 113
1, 80582, Note_off_c, 0, 63, 113
1, 80589, Note_on_c, 0, 65, 109
1, 80635, Note_off_c, 0, 65, 109
1, 80643, Note_on_c, 0, 66, 105
1, 80682, Note_off_c, 0, 66, 105
1, 80695, Note_on_c, 0, 68, 100
1, 80724, Note_off_c, 0, 68, 100
1, 80728, Note_on_c, 0, 70, 107
1, 80773, Note_off_c, 0, 70, 107
1, 80783, Note_on_c, 0, 66, 109
1, 80818, Note_off_c, 0, 66, 109
1, 80827, Note_on_c, 0, 65, 107
1, 80857, Note_off_c, 0, 65, 107
1, 80865, Note_on_c, 0, 63, 113
1, 80911, Note_off_c, 0, 63, 113
1, 80919, Note_on_c, 0, 62, 109
1, 80961, Note_off_c, 0, 62, 109
1, 80966, Note_on_c, 0, 61, 105
1, 80993, Note_off_c, 0, 61, 105
1, 81000, Note_on_c, 0, 59, 104
1, 81036, Note_off_c, 0, 59, 104
1, 81046, Note_on_c, 0, 57, 104
1, 81079, Note_off_c, 0, 57, 104
1, 81082, Note_on_c, 0, 58, 105
1, 81131, Note_off_c, 0, 58, 105
1, 81140, Note_on_c, 0, 60, 106
1, 81176, Note_off_c, 0, 60, 106
1, 81184, Note_on_c, 0, 62, 103
1, 81229, Note_off_c, 0, 62, 103
1, 81236, Note_on_c, 0, 65, 99
1, 81268, Note_off_c, 0, 65, 99
1, 81274, Note_on_c, 0, 69, 108
1, 81313, Note_off_c, 0, 69, 108
1, 81324, Note_on_c, 0, 66, 105
1, 81367, Note_off_c, 0, 66, 105
1, 81373, Note_on_c, 0, 67, 102
1, 81399, Note_off_c, 0, 67, 102
1, 81407, Note_on_c, 0, 69, 102
1, 81488, Note_off_c, 0, 69, 102
1, 81518, Note_on_c, 0, 62, 100
1, 81558, Note_off_c, 0, 62, 100
1, 81572, Note_on_c, 0, 64, 95
1, 81611, Note_off_c, 0, 64, 95
1, 81616, Note_on_c, 0, 65, 97
1, 81645, Note_off_c, 0, 65, 97
1, 81653, Note_on_c, 0, 69, 109
1, 81689, Note_off_c, 0, 69, 109
1, 81700, Note_on_c, 0, 67, 106
1, 81733, Note_off_c, 0, 67, 106
1, 81743, Note_on_c, 0, 65, 104
1, 81766, Note_off_c, 0, 65, 104
1, 81773, Note_on_c, 0, 62, 107
1, 81802, Note_off_c, 0, 62, 107
1, 81813, Note_on_c, 0, 64, 114
1, 81871, Note_off_c, 0, 64, 114
1, 81883, Note_on_c, 0, 60, 102
1, 81929, Note_off_c, 0, 60, 102
1, 81938, Note_on_c, 0, 62, 103
1, 81976, Note_off_c, 0, 62, 103
1, 81981, Note_on_c, 0, 65, 104
1, 82021, Note_off_c, 0, 65, 104
1, 82032, Note_on_c, 0, 62, 105
1, 82072, Note_off_c, 0, 62, 105
1, 82079, Note_on_c, 0, 66, 103
1, 82115, Note_off_c, 0, 66, 103
1, 82123, Note_on_c, 0, 62, 100
1, 82161, Note_off_c, 0, 62, 100
1, 82170, Note_on_c, 0, 67, 105
1, 82214, Note_off_c, 0, 67, 105
1, 82225, Note_on_c, 0, 64, 108
1, 82263, Note_off_c, 0, 64, 108
1, 82267, Note_on_c, 0, 62, 105
1, 82292, Note_off_c, 0, 62, 105
1, 82301, Note_on_c, 0, 60, 106
1, 82346, Note_off_c, 0, 60, 106
1, 82352, Note_on_c, 0, 58, 106
1, 82394, Note_off_c, 0, 58, 106
1, 82400, Note_on_c, 0, 60, 103
1, 82443, Note_off_c, 0, 60, 103
1, 82452, Note_on_c, 0, 62, 102
1, 82483, Note_off_c, 0, 62, 102
1, 82494, Note_on_c, 0, 64, 102
1, 82523, Note_off_c, 0, 64, 102
1, 82533, Note_on_c, 0, 69, 106
1, 82566, Note_off_c, 0, 69, 106
1, 82569, Note_on_c, 0, 67, 102
1, 82603, Note_off_c, 0, 67, 102
1, 82612, Note_on_c, 0, 64, 102
1, 82638, Note_off_c, 0, 64, 102
1, 82643, Note_on_c, 0, 61, 96
1, 82679, Note_off_c, 0, 61, 96
1, 82690, Note_on_c, 0, 67, 94
1, 82755, Note_off_c, 0, 67, 94
1, 82773, Note_on_c, 0, 64, 97
1, 82815, Note_off_c, 0, 64, 97
1, 82820, Note_on_c, 0, 67, 101
1, 82854, Note_off_c, 0, 67, 101
1, 82860, Note_on_c, 0, 65, 100
1, 82901, Note_off_c, 0, 65, 100
1, 82906, Note_on_c, 0, 67, 98
1, 82941, Note_off_c, 0, 67, 98
1, 82950, Note_on_c, 0, 69, 99
1, 82990, Note_off_c, 0, 69, 99
1, 83015, Note_on_c, 0, 70, 99
1, 83051, Note_off_c, 0, 70, 99
1, 83061, Note_on_c, 0, 73, 98
1, 83402, Note_off_c, 0, 73, 98
1, 83570, Note_on_c, 0, 69, 105
1, 83616, Note_off_c, 0, 69, 105
1, 83629, Note_on_c, 0, 65, 106
1, 83730, Note_off_c, 0, 65, 106
1, 83744, Note_on_c, 0, 61, 107
1, 83850, Note_off_c, 0, 61, 107
1, 84075, Note_on_c, 0, 57, 101
1, 84176, Note_off_c, 0, 57, 101
1, 84189, Note_on_c, 0, 59, 93
1, 84222, Note_off_c, 0, 59, 93
1, 84232, Note_on_c, 0, 61, 92
1, 84290, Note_off_c, 0, 61, 92
1, 84303, Note_on_c, 0, 64, 112
1, 84383, Note_off_c, 0, 64, 112
1, 84395, Note_on_c, 0, 62, 110
1, 84475, Note_off_c, 0, 62, 110
1, 84487, Note_on_c, 0, 64, 109
1, 84566, Note_off_c, 0, 64, 109
1, 84571, Note_on_c, 0, 65, 105
1, 84700, Note_off_c, 0, 65, 105
1, 84716, Note_on_c, 0, 67, 102
1, 84770, Note_off_c, 0, 67, 102
1, 84785, Note_on_c, 0, 66, 105
1, 84869, Note_off_c, 0, 66, 105
1, 84893, Note_on_c, 0, 67, 103
1, 84964, Note_off_c, 0, 67, 103
1, 84983, Note_on_c, 0, 68, 101
1, 85058, Note_off_c, 0, 68, 101
1, 85083, Note_on_c, 0, 69, 104
1, 85153, Note_off_c, 0, 69, 104
1, 85177, Note_on_c, 0, 70, 105
1, 85252, Note_off_c, 0, 70, 105
1, 85271, Note_on_c, 0, 67, 100
1, 85339, Note_off_c, 0, 67, 100
1, 85356, Note_on_c, 0, 63, 106
1, 85453, Note_off_c, 0, 63, 106
1, 85466, Note_on_c, 0, 60, 88
1, 85516, Note_off_c, 0, 60, 88
1, 85524, Note_on_c, 0, 65, 106
1, 85616, Note_off_c, 0, 65, 106
1, 85624, Note_on_c, 0, 63, 111
1, 85706, Note_off_c, 0, 63, 111
1, 85718, Note_on_c, 0, 62, 105
1, 85801, Note_off_c, 0, 62, 105
1, 85835, Note_on_c, 0, 60, 105
1, 85898, Note_off_c, 0, 60, 105
1, 85911, Note_on_c, 0, 58, 102
1, 85980, Note_off_c, 0, 58, 102
1, 86017, Note_on_c, 0, 60, 97
1, 86075, Note_off_c, 0, 60, 97
1, 86081, Note_on_c, 0, 62, 98
1, 86166, Note_off_c, 0, 62, 98
1, 86184, Note_on_c, 0, 65, 93
1, 86250, Note_off_c, 0, 65, 93
1, 86271, Note_on_c, 0, 70, 106
1, 86370, Note_off_c, 0, 70, 106
1, 86378, Note_on_c, 0, 72, 106
1, 86444, Note_off_c, 0, 72, 106
1, 86462, Note_on_c, 0, 69, 105
1, 86541, Note_off_c, 0, 69, 105
1, 86564, Note_on_c, 0, 67, 104
1, 86632, Note_off_c, 0, 67, 104
1, 86650, Note_on_c, 0, 66, 105
1, 86729, Note_off_c, 0, 66, 105
1, 86749, Note_on_c, 0, 63, 110
1, 86831, Note_off_c, 0, 63, 110
1, 86846, Note_on_c, 0, 62, 105
1, 86922, Note_off_c, 0, 62, 105
1, 86932, Note_on_c, 0, 60, 102
1, 86999, Note_off_c, 0, 60, 102
1, 87020, Note_on_c, 0, 57, 97
1, 87103, Note_off_c, 0, 57, 97
1, 87147, Note_on_c, 0, 58, 100
1, 87211, Note_off_c, 0, 58, 100
1, 87224, Note_on_c, 0, 62, 99
1, 87309, Note_off_c, 0, 62, 99
1, 87336, Note_on_c, 0, 65, 92
1, 87390, Note_off_c, 0, 65, 92
1, 87404, Note_on_c, 0, 69, 106
1, 87480, Note_off_c, 0, 69, 106
1, 87544, Note_on_c, 0, 60, 102
1, 87567, Note_off_c, 0, 60, 102
1, 87583, Note_on_c, 0, 62, 105
1, 87664, Note_off_c, 0, 62, 105
1, 87683, Note_on_c, 0, 65, 99
1, 87830, Note_off_c, 0, 65, 99
1, 88315, Note_on_c, 0, 53, 107
1, 88338, Note_off_c, 0, 53, 107
1, 88344, Note_on_c, 0, 55, 109
1, 88382, Note_off_c, 0, 55, 109
1, 88391, Note_on_c, 0, 58, 97
1, 88421, Note_off_c, 0, 58, 97
1, 88431, Note_on_c, 0, 60, 103
1, 88448, Note_off_c, 0, 60, 103
1, 88458, Note_on_c, 0, 55, 116
1, 88493, Note_off_c, 0, 55, 116
1, 88500, Note_on_c, 0, 52, 109
1, 88528, Note_off_c, 0, 52, 109
1, 88540, Note_on_c, 0, 54, 113
1, 88580, Note_off_c, 0, 54, 113
1, 88600, Note_on_c, 0, 57, 99
1, 88625, Note_off_c, 0, 57, 99
1, 88636, Note_on_c, 0, 60, 110
1, 88682, Note_off_c, 0, 60, 110
1, 88686, Note_on_c, 0, 64, 107
1, 88717, Note_off_c, 0, 64, 107
1, 88721, Note_on_c, 0, 61, 106
1, 88765, Note_off_c, 0, 61, 106
1, 88773, Note_on_c, 0, 56, 99
1, 88814, Note_off_c, 0, 56, 99
1, 88822, Note_on_c, 0, 54, 98
1, 88907, Note_off_c, 0, 54, 98
1, 88919, Note_on_c, 0, 57, 97
1, 88976, Note_off_c, 0, 57, 97
1, 88986, Note_on_c, 0, 59, 97
1, 89019, Note_off_c, 0, 59, 97
1, 89023, Note_on_c, 0, 61, 108
1, 89083, Note_off_c, 0, 61, 108
1, 89093, Note_on_c, 0, 63, 107
1, 89148, Note_off_c, 0, 63, 107
1, 89194, Note_on_c, 0, 73, 106
1, 89466, Note_off_c, 0, 73, 106
1, 89477, Note_on_c, 0, 71, 108
1, 89516, Note_off_c, 0, 71, 108
1, 89521, Note_on_c, 0, 69, 103
1, 89558, Note_off_c, 0, 69, 103
1, 89563, Note_on_c, 0, 68, 104
1, 89602, Note_off_c, 0, 68, 104
1, 89610, Note_on_c, 0, 66, 102
1, 89680, Note_off_c, 0, 66, 102
1, 89690, Note_on_c, 0, 65, 100
1, 89751, Note_off_c, 0, 65, 100
1, 90056, Note_on_c, 0, 64, 109
1, 90133, Note_off_c, 0, 64, 109
1, 90145, Note_on_c, 0, 69, 106
1, 90194, Note_off_c, 0, 69, 106
1, 90198, Note_on_c, 0, 67, 101
1, 90241, Note_off_c, 0, 67, 101
1, 90248, Note_on_c, 0, 65, 102
1, 90291, Note_off_c, 0, 65, 102
1, 90301, Note_on_c, 0, 64, 106
1, 90384, Note_off_c, 0, 64, 106
1, 90394, Note_on_c, 0, 63, 103
1, 90429, Note_off_c, 0, 63, 103
1, 90715, Note_on_c, 0, 61, 108
1, 90766, Note_off_c, 0, 61, 108
1, 90773, Note_on_c, 0, 62, 106
1, 90814, Note_off_c, 0, 62, 106
1, 90819, Note_on_c, 0, 65, 105
1, 90861, Note_off_c, 0, 65, 105
1, 90867, Note_on_c, 0, 64, 108
1, 90916, Note_off_c, 0, 64, 108
1, 90929, Note_on_c, 0, 63, 106
1, 90960, Note_off_c, 0, 63, 106
1, 90964, Note_on_c, 0, 65, 102
1, 91003, Note_off_c, 0, 65, 102
1, 91015, Note_on_c, 0, 62, 105
1, 91053, Note_off_c, 0, 62, 105
1, 91060, Note_on_c, 0, 60, 102
1, 91106, Note_off_c, 0, 60, 102
1, 91124, Note_on_c, 0, 58, 100
1, 91153, Note_off_c, 0, 58, 100
1, 91163, Note_on_c, 0, 60, 104
1, 91205, Note_off_c, 0, 60, 104
1, 91215, Note_on_c, 0, 62, 102
1, 91252, Note_off_c, 0, 62, 102
1, 91261, Note_on_c, 0, 65, 94
1, 91290, Note_off_c, 0, 65, 94
1, 91303, Note_on_c, 0, 70, 111
1, 91333, Note_off_c, 0, 70, 111
1, 91343, Note_on_c, 0, 69, 107
1, 91382, Note_off_c, 0, 69, 107
1, 91390, Note_on_c, 0, 67, 104
1, 91431, Note_off_c, 0, 67, 104
1, 91437, Note_on_c, 0, 66, 104
1, 91484, Note_off_c, 0, 66, 104
1, 91488, Note_on_c, 0, 65, 103
1, 91519, Note_off_c, 0, 65, 103
1, 91525, Note_on_c, 0, 64, 109
1, 91571, Note_off_c, 0, 64, 109
1, 91575, Note_on_c, 0, 63, 111
1, 91622, Note_off_c, 0, 63, 111
1, 91628, Note_on_c, 0, 65, 103
1, 91666, Note_off_c, 0, 65, 103
1, 91674, Note_on_c, 0, 66, 103
1, 91716, Note_off_c, 0, 66, 103
1, 91743, Note_on_c, 0, 70, 103
1, 91786, Note_off_c, 0, 70, 103
1, 91790, Note_on_c, 0, 73, 104
1, 91842, Note_off_c, 0, 73, 104
1, 91869, Note_on_c, 0, 77, 105
1, 92092, Note_off_c, 0, 77, 105
1, 92101, Note_on_c, 0, 75, 99
1, 92137, Note_off_c, 0, 75, 99
1, 92145, Note_on_c, 0, 73, 104
1, 92201, Note_off_c, 0, 73, 104
1, 92212, Note_on_c, 0, 72, 108
1, 92251, Note_off_c, 0, 72, 108
1, 92261, Note_on_c, 0, 71, 109
1, 92317, Note_off_c, 0, 71, 109
1, 92350, Note_on_c, 0, 70, 107
1, 92421, Note_off_c, 0, 70, 107
1, 92434, Note_on_c, 0, 69, 104
1, 92508, Note_off_c, 0, 69, 104
1, 92530, Note_on_c, 0, 66, 106
1, 92603, Note_off_c, 0, 66, 106
1, 92618, Note_on_c, 0, 64, 109
1, 92710, Note_off_c, 0, 64, 109
1, 92716, Note_on_c, 0, 60, 105
1, 92789, Note_off_c, 0, 60, 105
1, 92800, Note_on_c, 0, 59, 99
1, 92881, Note_off_c, 0, 59, 99
1, 92910, Note_on_c, 0, 57, 102
1, 92978, Note_off_c, 0, 57, 102
1, 92989, Note_on_c, 0, 56, 95
1, 93086, Note_off_c, 0, 56, 95
1, 93093, Note_on_c, 0, 58, 102
1, 93174, Note_off_c, 0, 58, 102
1, 93180, Note_on_c, 0, 60, 107
1, 93251, Note_off_c, 0, 60, 107
1, 93259, Note_on_c, 0, 63, 106
1, 93367, Note_off_c, 0, 63, 106
1, 93390, Note_on_c, 0, 60, 107
1, 93479, Note_off_c, 0, 60, 107
1, 93497, Note_on_c, 0, 61, 109
1, 93576, Note_off_c, 0, 61, 109
1, 93624, Note_on_c, 0, 66, 71
1, 93657, Note_off_c, 0, 66, 71
1, 93680, Note_on_c, 0, 72, 106
1, 93750, Note_off_c, 0, 72, 106
1, 93776, Note_on_c, 0, 75, 103
1, 93847, Note_off_c, 0, 75, 103
1, 93866, Note_on_c, 0, 73, 105
1, 93921, Note_off_c, 0, 73, 105
1, 93943, Note_on_c, 0, 72, 101
1, 94037, Note_off_c, 0, 72, 101
1, 94052, Note_on_c, 0, 70, 106
1, 94120, Note_off_c, 0, 70, 106
1, 94147, Note_on_c, 0, 68, 106
1, 94218, Note_off_c, 0, 68, 106
1, 94247, Note_on_c, 0, 64, 111
1, 94322, Note_off_c, 0, 64, 111
1, 94334, Note_on_c, 0, 63, 111
1, 94418, Note_off_c, 0, 63, 111
1, 94449, Note_on_c, 0, 61, 106
1, 94505, Note_off_c, 0, 61, 106
1, 94517, Note_on_c, 0, 60, 103
1, 94588, Note_off_c, 0, 60, 103
1, 94623, Note_on_c, 0, 72, 100
1, 94780, Note_off_c, 0, 72, 100
1, 95125, Note_on_c, 0, 52, 105
1, 95168, Note_off_c, 0, 52, 105
1, 95175, Note_on_c, 0, 55, 103
1, 95208, Note_off_c, 0, 55, 103
1, 95217, Note_on_c, 0, 57, 104
1, 95252, Note_off_c, 0, 57, 104
1, 95263, Note_on_c, 0, 58, 105
1, 95297, Note_off_c, 0, 58, 105
1, 95302, Note_on_c, 0, 61, 107
1, 95359, Note_off_c, 0, 61, 107
1, 95371, Note_on_c, 0, 63, 109
1, 95416, Note_off_c, 0, 63, 109
1, 95429, Note_on_c, 0, 67, 97
1, 95466, Note_off_c, 0, 67, 97
1, 95481, Note_on_c, 0, 70, 103
1, 95506, Note_off_c, 0, 70, 103
1, 95512, Note_on_c, 0, 72, 102
1, 95529, Note_off_c, 0, 72, 102
1, 95536, Note_on_c, 0, 76, 104
1, 95579, Note_off_c, 0, 76, 104
1, 95596, Note_on_c, 0, 81, 102
1, 95952, Note_off_c, 0, 81, 102
1, 96306, Note_on_c, 0, 81, 105
1, 96481, Note_off_c, 0, 81, 105
1, 96516, Note_on_c, 0, 79, 109
1, 96593, Note_off_c, 0, 79, 109
1, 96601, Note_on_c, 0, 77, 110
1, 96680, Note_off_c, 0, 77, 110
1, 96697, Note_on_c, 0, 76, 117
1, 96777, Note_off_c, 0, 76, 117
1, 96807, Note_on_c, 0, 75, 106
1, 96856, Note_off_c, 0, 75, 106
1, 96875, Note_on_c, 0, 74, 105
1, 96940, Note_off_c, 0, 74, 105
1, 96950, Note_on_c, 0, 72, 107
1, 97003, Note_off_c, 0, 72, 107
1, 97023, Note_on_c, 0, 71, 109
1, 97089, Note_off_c, 0, 71, 109
1, 97113, Note_on_c, 0, 69, 107
1, 97190, Note_off_c, 0, 69, 107
1, 97199, Note_on_c, 0, 68, 108
1, 97281, Note_off_c, 0, 68, 108
1, 97291, Note_on_c, 0, 67, 105
1, 97365, Note_off_c, 0, 67, 105
1, 97375, Note_on_c, 0, 66, 107
1, 97490, Note_off_c, 0, 66, 107
1, 97508, Note_on_c, 0, 64, 89
1, 97572, Note_off_c, 0, 64, 89
1, 97588, Note_on_c, 0, 65, 109
1, 97668, Note_off_c, 0, 65, 109
1, 97677, Note_on_c, 0, 67, 109
1, 97755, Note_off_c, 0, 67, 109
1, 97769, Note_on_c, 0, 69, 111
1, 97847, Note_off_c, 0, 69, 111
1, 97874, Note_on_c, 0, 70, 108
1, 97939, Note_off_c, 0, 70, 108
1, 97985, Note_on_c, 0, 72, 109
1, 98138, Note_off_c, 0, 72, 109
1, 98151, Note_on_c, 0, 69, 110
1, 98241, Note_off_c, 0, 69, 110
1, 98271, Note_on_c, 0, 67, 106
1, 98347, Note_off_c, 0, 67, 106
1, 98354, Note_on_c, 0, 66, 106
1, 98443, Note_off_c, 0, 66, 106
1, 98451, Note_on_c, 0, 57, 105
1, 98515, Note_off_c, 0, 57, 105
1, 98557, Note_on_c, 0, 60, 110
1, 98627, Note_off_c, 0, 60, 110
1, 98638, Note_on_c, 0, 62, 113
1, 98690, Note_off_c, 0, 62, 113
1, 98696, Note_on_c, 0, 63, 111
1, 98739, Note_off_c, 0, 63, 111
1, 98752, Note_on_c, 0, 63, 114
1, 98825, Note_off_c, 0, 63, 114
1, 98872, Note_on_c, 0, 62, 110
1, 99007, Note_off_c, 0, 62, 110
1, 99018, Note_on_c, 0, 60, 105
1, 99083, Note_off_c, 0, 60, 105
1, 99093, Note_on_c, 0, 58, 101
1, 99191, Note_off_c, 0, 58, 101
1, 99207, Note_on_c, 0, 60, 111
1, 99289, Note_off_c, 0, 60, 111
1, 99299, Note_on_c, 0, 62, 108
1, 99398, Note_off_c, 0, 62, 108
1, 99436, Note_on_c, 0, 65, 91
1, 99474, Note_off_c, 0, 65, 91
1, 99486, Note_on_c, 0, 69, 110
1, 99568, Note_off_c, 0, 69, 110
1, 99592, Note_on_c, 0, 60, 104
1, 99664, Note_off_c, 0, 60, 104
1, 99668, Note_on_c, 0, 62, 94
1, 99738, Note_off_c, 0, 62, 94
1, 99742, Note_on_c, 0, 64, 92
1, 99779, Note_off_c, 0, 64, 92
1, 99786, Note_on_c, 0, 67, 110
1, 99861, Note_off_c, 0, 67, 110
1, 99874, Note_on_c, 0, 64, 114
1, 99959, Note_off_c, 0, 64, 114
1, 99981, Note_on_c, 0, 65, 109
1, 100039, Note_off_c, 0, 65, 109
1, 100066, Note_on_c, 0, 69, 108
1, 100135, Note_off_c, 0, 69, 108
1, 100183, Note_on_c, 0, 72, 107
1, 100243, Note_off_c, 0, 72, 107
1, 100266, Note_on_c, 0, 77, 108
1, 100776, Note_off_c, 0, 77, 108
1, 101006, Note_on_c, 0, 77, 112
1, 101245, Note_off_c, 0, 77, 112
1, 101255, Note_on_c, 0, 75, 103
1, 101293, Note_off_c, 0, 75, 103
1, 101304, Note_on_c, 0, 73, 108
1, 101344, Note_off_c, 0, 73, 108
1, 101364, Note_on_c, 0, 72, 109
1, 101582, Note_off_c, 0, 72, 109
1, 101627, Note_on_c, 0, 70, 109
1, 101721, Note_off_c, 0, 70, 109
1, 101752, Note_on_c, 0, 69, 108
1, 101938, Note_off_c, 0, 69, 108
1, 102250, Note_on_c, 0, 77, 111
1, 102428, Note_off_c, 0, 77, 111
1, 102441, Note_on_c, 0, 75, 108
1, 102473, Note_off_c, 0, 75, 108
1, 102479, Note_on_c, 0, 74, 108
1, 102527, Note_off_c, 0, 74, 108
1, 102535, Note_on_c, 0, 72, 111
1, 102651, Note_off_c, 0, 72, 111
1, 102830, Note_on_c, 0, 77, 102
1, 102976, Note_off_c, 0, 77, 102
1, 102980, Note_on_c, 0, 76, 115
1, 103027, Note_off_c, 0, 76, 115
1, 103035, Note_on_c, 0, 74, 105
1, 103081, Note_off_c, 0, 74, 105
1, 103085, Note_on_c, 0, 72, 109
1, 103121, Note_off_c, 0, 72, 109
1, 103129, Note_on_c, 0, 71, 111
1, 103208, Note_off_c, 0, 71, 111
1, 103222, Note_on_c, 0, 69, 110
1, 103281, Note_off_c, 0, 69, 110
1, 103328, Note_on_c, 0, 68, 109
1, 103406, Note_off_c, 0, 68, 109
1, 103416, Note_on_c, 0, 66, 110
1, 103490, Note_off_c, 0, 66, 110
1, 103509, Note_on_c, 0, 65, 107
1, 103608, Note_off_c, 0, 65, 107
1, 103786, Note_on_c, 0, 77, 110
1, 104012, Note_off_c, 0, 77, 110
1, 104061, Note_on_c, 0, 74, 108
1, 104154, Note_off_c, 0, 74, 108
1, 104172, Note_on_c, 0, 72, 107
1, 104243, Note_off_c, 0, 72, 107
1, 104260, Note_on_c, 0, 70, 107
1, 104336, Note_off_c, 0, 70, 107
1, 104355, Note_on_c, 0, 77, 109
1, 104622, Note_off_c, 0, 77, 109
1, 104628, Note_on_c, 0, 75, 108
1, 104682, Note_off_c, 0, 75, 108
1, 104695, Note_on_c, 0, 73, 105
1, 104768, Note_off_c, 0, 73, 105
1, 104783, Note_on_c, 0, 72, 110
1, 104893, Note_off_c, 0, 72, 110
1, 105297, Note_on_c, 0, 66, 112
1, 105380, Note_off_c, 0, 66, 112
1, 105388, Note_on_c, 0, 67, 111
1, 105465, Note_off_c, 0, 67, 111
1, 105478, Note_on_c, 0, 69, 111
1, 105560, Note_off_c, 0, 69, 111
1, 105579, Note_on_c, 0, 70, 111
1, 105667, Note_off_c, 0, 70, 111
1, 105680, Note_on_c, 0, 72, 109
1, 105753, Note_off_c, 0, 72, 109
1, 105772, Note_on_c, 0, 73, 110
1, 105864, Note_off_c, 0, 73, 110
1, 105875, Note_on_c, 0, 75, 106
1, 105952, Note_off_c, 0, 75, 106
1, 105962, Note_on_c, 0, 76, 118
1, 106047, Note_off_c, 0, 76, 118
1, 106060, Note_on_c, 0, 77, 107
1, 106145, Note_off_c, 0, 77, 107
1, 106162, Note_on_c, 0, 78, 106
1, 106336, Note_off_c, 0, 78, 106
1, 106347, Note_on_c, 0, 76, 110
1, 106419, Note_off_c, 0, 76, 110
1, 106426, Note_on_c, 0, 75, 102
1, 106636, Note_off_c, 0, 75, 102
1, 106659, Note_on_c, 0, 73, 104
1, 106754, Note_off_c, 0, 73, 104
1, 106764, Note_on_c, 0, 72, 104
1, 107053, Note_off_c, 0, 72, 104
1, 107068, Note_on_c, 0, 69, 108
1, 107168, Note_off_c, 0, 69, 108
1, 107180, Note_on_c, 0, 67, 108
1, 107284, Note_off_c, 0, 67, 108
1, 107297, Note_on_c, 0, 65, 106
1, 107409, Note_off_c, 0, 65, 106
1, 107431, Note_on_c, 0, 64, 103
1, 107660, Note_off_c, 0, 64, 103
1, 107791, Note_on_c, 0, 62, 113
1, 107891, Note_off_c, 0, 62, 113
1, 107897, Note_on_c, 0, 61, 111
1, 107971, Note_off_c, 0, 61, 111
1, 107988, Note_on_c, 0, 57, 101
1, 108050, Note_off_c, 0, 57, 101
1, 108062, Note_on_c, 0, 59, 97
1, 108111, Note_off_c, 0, 59, 97
1, 108120, Note_on_c, 0, 61, 94
1, 108172, Note_off_c, 0, 61, 94
1, 108178, Note_on_c, 0, 64, 113
1, 108256, Note_off_c, 0, 64, 113
1, 108265, Note_on_c, 0, 62, 112
1, 108348, Note_off_c, 0, 62, 112
1, 108363, Note_on_c, 0, 64, 111
1, 108438, Note_off_c, 0, 64, 111
1, 108449, Note_on_c, 0, 65, 109
1, 108537, Note_off_c, 0, 65, 109
1, 108567, Note_on_c, 0, 67, 108
1, 108637, Note_off_c, 0, 67, 108
1, 108646, Note_on_c, 0, 69, 109
1, 108736, Note_off_c, 0, 69, 109
1, 108757, Note_on_c, 0, 70, 110
1, 108832, Note_off_c, 0, 70, 110
1, 108845, Note_on_c, 0, 72, 106
1, 108925, Note_off_c, 0, 72, 106
1, 108941, Note_on_c, 0, 73, 104
1, 108997, Note_off_c, 0, 73, 104
1, 109003, Note_on_c, 0, 71, 108
1, 109094, Note_off_c, 0, 71, 108
1, 109106, Note_on_c, 0, 69, 107
1, 109194, Note_off_c, 0, 69, 107
1, 109207, Note_on_c, 0, 68, 108
1, 109293, Note_off_c, 0, 68, 108
1, 109307, Note_on_c, 0, 67, 107
1, 109384, Note_off_c, 0, 67, 107
1, 109396, Note_on_c, 0, 66, 108
1, 109478, Note_off_c, 0, 66, 108
1, 109525, Note_on_c, 0, 64, 94
1, 109574, Note_off_c, 0, 64, 94
1, 109582, Note_on_c, 0, 65, 108
1, 109667, Note_off_c, 0, 65, 108
1, 109678, Note_on_c, 0, 63, 112
1, 109768, Note_off_c, 0, 63, 112
1, 109784, Note_on_c, 0, 62, 111
1, 109859, Note_off_c, 0, 62, 111
1, 109873, Note_on_c, 0, 65, 107
1, 109948, Note_off_c, 0, 65, 107
1, 109960, Note_on_c, 0, 67, 106
1, 110064, Note_off_c, 0, 67, 106
1, 110074, Note_on_c, 0, 69, 95
1, 110125, Note_off_c, 0, 69, 95
1, 110161, Note_on_c, 0, 72, 110
1, 110235, Note_off_c, 0, 72, 110
1, 110258, Note_on_c, 0, 70, 110
1, 110313, Note_off_c, 0, 70, 110
1, 110624, Note_on_c, 0, 69, 104
1, 110650, Note_off_c, 0, 69, 104
1, 110654, Note_on_c, 0, 67, 111
1, 110707, Note_off_c, 0, 67, 111
1, 110718, Note_on_c, 0, 66, 110
1, 110798, Note_off_c, 0, 66, 110
1, 110812, Note_on_c, 0, 57, 103
1, 110884, Note_off_c, 0, 57, 103
1, 110897, Note_on_c, 0, 58, 105
1, 110987, Note_off_c, 0, 58, 105
1, 111028, Note_on_c, 0, 60, 109
1, 111110, Note_off_c, 0, 60, 109
1, 111117, Note_on_c, 0, 62, 109
1, 111192, Note_off_c, 0, 62, 109
1, 111204, Note_on_c, 0, 63, 111
1, 111273, Note_off_c, 0, 63, 111
1, 111289, Note_on_c, 0, 62, 105
1, 111546, Note_off_c, 0, 62, 105
1, 111555, Note_on_c, 0, 60, 104
1, 111619, Note_off_c, 0, 60, 104
1, 111625, Note_on_c, 0, 58, 100
1, 111667, Note_off_c, 0, 58, 100
1, 111673, Note_on_c, 0, 60, 104
1, 111712, Note_off_c, 0, 60, 104
1, 111718, Note_on_c, 0, 62, 104
1, 111784, Note_off_c, 0, 62, 104
1, 111795, Note_on_c, 0, 69, 109
1, 111851, Note_off_c, 0, 69, 109
1, 111856, Note_on_c, 0, 67, 105
1, 111897, Note_off_c, 0, 67, 105
1, 111903, Note_on_c, 0, 64, 110
1, 111952, Note_off_c, 0, 64, 110
1, 111958, Note_on_c, 0, 60, 110
1, 112002, Note_off_c, 0, 60, 110
1, 112004, Note_on_c, 0, 65, 104
1, 112173, Note_off_c, 0, 65, 104
1, 112556, Note_on_c, 0, 49, 127
1, 112584, Note_off_c, 0, 49, 127
1, 112589, Note_on_c, 0, 50, 121
1, 112618, Note_off_c, 0, 50, 121
1, 112620, Note_on_c, 0, 53, 112
1, 112665, Note_off_c, 0, 53, 112
1, 112680, Note_on_c, 0, 52, 111
1, 112723, Note_off_c, 0, 52, 111
1, 112741, Note_on_c, 0, 51, 110
1, 112783, Note_off_c, 0, 51, 110
1, 112787, Note_on_c, 0, 53, 101
1, 112819, Note_off_c, 0, 53, 101
1, 112823, Note_on_c, 0, 55, 101
1, 112872, Note_off_c, 0, 55, 101
1, 112878, Note_on_c, 0, 58, 104
1, 112915, Note_off_c, 0, 58, 104
1, 112919, Note_on_c, 0, 62, 111
1, 112956, Note_off_c, 0, 62, 111
1, 112958, Note_on_c, 0, 60, 107
1, 112992, Note_off_c, 0, 60, 107
1, 112996, Note_on_c, 0, 58, 106
1, 113035, Note_off_c, 0, 58, 106
1, 113041, Note_on_c, 0, 55, 106
1, 113078, Note_off_c, 0, 55, 106
1, 113086, Note_on_c, 0, 57, 106
1, 113124, Note_off_c, 0, 57, 106
1, 113134, Note_on_c, 0, 60, 106
1, 113175, Note_off_c, 0, 60, 106
1, 113183, Note_on_c, 0, 63, 110
1, 113229, Note_off_c, 0, 63, 110
1, 113240, Note_on_c, 0, 60, 102
1, 113270, Note_off_c, 0, 60, 102
1, 113284, Note_on_c, 0, 67, 109
1, 113331, Note_off_c, 0, 67, 109
1, 113345, Note_on_c, 0, 63, 109
1, 113373, Note_off_c, 0, 63, 109
1, 113388, Note_on_c, 0, 62, 106
1, 113414, Note_off_c, 0, 62, 106
1, 113417, Note_on_c, 0, 60, 97
1, 113440, Note_off_c, 0, 60, 97
1, 113443, Note_on_c, 0, 65, 107
1, 113490, Note_off_c, 0, 65, 107
1, 113497, Note_on_c, 0, 62, 104
1, 113532, Note_off_c, 0, 62, 104
1, 113539, Note_on_c, 0, 64, 111
1, 113594, Note_off_c, 0, 64, 111
1, 113597, Note_on_c, 0, 61, 103
1, 113643, Note_off_c, 0, 61, 103
1, 113650, Note_on_c, 0, 57, 102
1, 113686, Note_off_c, 0, 57, 102
1, 113686, Note_on_c, 0, 54, 98
1, 113724, Note_off_c, 0, 54, 98
1, 113726, Note_on_c, 0, 63, 111
1, 113777, Note_off_c, 0, 63, 111
1, 113785, Note_on_c, 0, 61, 101
1, 113817, Note_off_c, 0, 61, 101
1, 113821, Note_on_c, 0, 59, 103
1, 113854, Note_off_c, 0, 59, 103
1, 113862, Note_on_c, 0, 58, 105
1, 113896, Note_off_c, 0, 58, 105
1, 113911, Note_on_c, 0, 57, 104
1, 113942, Note_off_c, 0, 57, 104
1, 113953, Note_on_c, 0, 59, 104
1, 113985, Note_off_c, 0, 59, 104
1, 113993, Note_on_c, 0, 61, 109
1, 114056, Note_off_c, 0, 61, 109
1, 114064, Note_on_c, 0, 63, 106
1, 114105, Note_off_c, 0, 63, 106
1, 114114, Note_on_c, 0, 66, 100
1, 114150, Note_off_c, 0, 66, 100
1, 114161, Note_on_c, 0, 69, 100
1, 114192, Note_off_c, 0, 69, 100
1, 114198, Note_on_c, 0, 73, 110
1, 114458, Note_off_c, 0, 73, 110
1, 114462, Note_on_c, 0, 71, 108
1, 114491, Note_off_c, 0, 71, 108
1, 114495, Note_on_c, 0, 69, 106
1, 114524, Note_off_c, 0, 69, 106
1, 114528, Note_on_c, 0, 68, 108
1, 114584, Note_off_c, 0, 68, 108
1, 114584, Note_on_c, 0, 66, 104
1, 114641, Note_off_c, 0, 66, 104
1, 114647, Note_on_c, 0, 65, 105
1, 114679, Note_off_c, 0, 65, 105
1, 114682, Note_on_c, 0, 64, 103
1, 114730, Note_off_c, 0, 64, 103
1, 114734, Note_on_c, 0, 63, 107
1, 114763, Note_off_c, 0, 63, 107
1, 114768, Note_on_c, 0, 65, 102
1, 114809, Note_off_c, 0, 65, 102
1, 114819, Note_on_c, 0, 60, 105
1, 114857, Note_off_c, 0, 60, 105
1, 114862, Note_on_c, 0, 63, 111
1, 114909, Note_off_c, 0, 63, 111
1, 114912, Note_on_c, 0, 62, 107
1, 114948, Note_off_c, 0, 62, 107
1, 114953, Note_on_c, 0, 60, 104
1, 114995, Note_off_c, 0, 60, 104
1, 114998, Note_on_c, 0, 58, 103
1, 115041, Note_off_c, 0, 58, 103
1, 115046, Note_on_c, 0, 60, 102
1, 115075, Note_off_c, 0, 60, 102
1, 115081, Note_on_c, 0, 62, 103
1, 115114, Note_off_c, 0, 62, 103
1, 115122, Note_on_c, 0, 65, 99
1, 115146, Note_off_c, 0, 65, 99
1, 115152, Note_on_c, 0, 70, 110
1, 115207, Note_off_c, 0, 70, 110
1, 115213, Note_on_c, 0, 69, 108
1, 115246, Note_off_c, 0, 69, 108
1, 115249, Note_on_c, 0, 67, 107
1, 115288, Note_off_c, 0, 67, 107
1, 115297, Note_on_c, 0, 66, 108
1, 115334, Note_off_c, 0, 66, 108
1, 115342, Note_on_c, 0, 65, 106
1, 115372, Note_off_c, 0, 65, 106
1, 115375, Note_on_c, 0, 63, 113
1, 115415, Note_off_c, 0, 63, 113
1, 115421, Note_on_c, 0, 62, 110
1, 115455, Note_off_c, 0, 62, 110
1, 115456, Note_on_c, 0, 60, 107
1, 115479, Note_off_c, 0, 60, 107
1, 115480, Note_on_c, 0, 58, 105
1, 115511, Note_off_c, 0, 58, 105
1, 115517, Note_on_c, 0, 57, 103
1, 115537, Note_off_c, 0, 57, 103
1, 115546, Note_on_c, 0, 55, 105
1, 115577, Note_off_c, 0, 55, 105
1, 115585, Note_on_c, 0, 54, 102
1, 115619, Note_off_c, 0, 54, 102
1, 115628, Note_on_c, 0, 53, 103
1, 115666, Note_off_c, 0, 53, 103
1, 115673, Note_on_c, 0, 51, 102
1, 115710, Note_off_c, 0, 51, 102
1, 115716, Note_on_c, 0, 50, 103
1, 115754, Note_off_c, 0, 50, 103
1, 115759, Note_on_c, 0, 49, 102
1, 115794, Note_off_c, 0, 49, 102
1, 115795, Note_on_c, 0, 48, 104
1, 115826, Note_off_c, 0, 48, 104
1, 115833, Note_on_c, 0, 47, 107
1, 115871, Note_off_c, 0, 47, 107
1, 115877, Note_on_c, 0, 46, 105
1, 115918, Note_off_c, 0, 46, 105
1, 115927, Note_on_c, 0, 45, 107
1, 115979, Note_off_c, 0, 45, 107
1, 115987, Note_on_c, 0, 44, 112
1, 116130, Note_off_c, 0, 44, 112
1, 116514, Note_on_c, 0, 69, 112
1, 116589, Note_off_c, 0, 69, 112
1, 116596, Note_on_c, 0, 73, 108
1, 116724, Note_off_c, 0, 73, 108
1, 116735, Note_on_c, 0, 71, 111
1, 116767, Note_off_c, 0, 71, 111
1, 116775, Note_on_c, 0, 69, 108
1, 116804, Note_off_c, 0, 69, 108
1, 116809, Note_on_c, 0, 68, 110
1, 117029, Note_off_c, 0, 68, 110
1, 117039, Note_on_c, 0, 66, 109
1, 117137, Note_off_c, 0, 66, 109
1, 117156, Note_on_c, 0, 65, 108
1, 117240, Note_off_c, 0, 65, 108
1, 117248, Note_on_c, 0, 60, 107
1, 117308, Note_off_c, 0, 60, 107
1, 117314, Note_on_c, 0, 63, 111
1, 117421, Note_off_c, 0, 63, 111
1, 117432, Note_on_c, 0, 62, 110
1, 117500, Note_off_c, 0, 62, 110
1, 117519, Note_on_c, 0, 61, 110
1, 117609, Note_off_c, 0, 61, 110
1, 117621, Note_on_c, 0, 63, 99
1, 117701, Note_off_c, 0, 63, 99
1, 117703, Note_on_c, 0, 65, 110
1, 117791, Note_off_c, 0, 65, 110
1, 117803, Note_on_c, 0, 68, 109
1, 117886, Note_off_c, 0, 68, 109
1, 117896, Note_on_c, 0, 72, 110
1, 117988, Note_off_c, 0, 72, 110
1, 118000, Note_on_c, 0, 71, 111
1, 118070, Note_off_c, 0, 71, 111
1, 118105, Note_on_c, 0, 70, 111
1, 118182, Note_off_c, 0, 70, 111
1, 118190, Note_on_c, 0, 69, 108
1, 118276, Note_off_c, 0, 69, 108
1, 118289, Note_on_c, 0, 68, 108
1, 118371, Note_off_c, 0, 68, 108
1, 118380, Note_on_c, 0, 64, 110
1, 118463, Note_off_c, 0, 64, 110
1, 118494, Note_on_c, 0, 61, 110
1, 118580, Note_off_c, 0, 61, 110
1, 118583, Note_on_c, 0, 59, 86
1, 118637, Note_off_c, 0, 59, 86
1, 118653, Note_on_c, 0, 60, 106
1, 118794, Note_off_c, 0, 60, 106
1, 118991, Note_on_c, 0, 65, 108
1, 119146, Note_off_c, 0, 65, 108
1, 119386, Note_on_c, 0, 61, 113
1, 119536, Note_off_c, 0, 61, 113
1, 119769, Note_on_c, 0, 57, 111
1, 119843, Note_off_c, 0, 57, 111
1, 119985, Note_on_c, 0, 69, 114
1, 120068, Note_off_c, 0, 69, 114
1, 120184, Note_on_c, 0, 67, 114
1, 120248, Note_off_c, 0, 67, 114
1, 120255, Note_on_c, 0, 65, 114
1, 120310, Note_off_c, 0, 65, 114
1, 120600, Note_on_c, 0, 57, 111
1, 120656, Note_off_c, 0, 57, 111
1, 120665, Note_on_c, 0, 62, 113
1, 120792, Note_off_c, 0, 62, 113
1, 120972, Note_on_c, 0, 65, 115
1, 121060, Note_off_c, 0, 65, 115
1, 121073, Note_on_c, 0, 63, 118
1, 121148, Note_off_c, 0, 63, 118
1, 121168, Note_on_c, 0, 54, 106
1, 121268, Note_off_c, 0, 54, 106
1, 121355, Note_on_c, 0, 62, 102
1, 121424, Note_off_c, 0, 62, 102
1, 121480, Note_on_c, 0, 65, 111
1, 121722, Note_off_c, 0, 65, 111
1, 121740, Note_on_c, 0, 63, 117
1, 121825, Note_off_c, 0, 63, 117
1, 121841, Note_on_c, 0, 62, 114
1, 121910, Note_off_c, 0, 62, 114
1, 121929, Note_on_c, 0, 53, 89
1, 121963, Note_off_c, 0, 53, 89
1, 121970, Note_on_c, 0, 54, 98
1, 122012, Note_off_c, 0, 54, 98
1, 122022, Note_on_c, 0, 55, 99
1, 122108, Note_off_c, 0, 55, 99
1, 122114, Note_on_c, 0, 57, 112
1, 122219, Note_off_c, 0, 57, 112
1, 122235, Note_on_c, 0, 58, 114
1, 122288, Note_off_c, 0, 58, 114
1, 122336, Note_on_c, 0, 60, 114
1, 122411, Note_off_c, 0, 60, 114
1, 122438, Note_on_c, 0, 62, 116
1, 122523, Note_off_c, 0, 62, 116
1, 122539, Note_on_c, 0, 65, 113
1, 122628, Note_off_c, 0, 65, 113
1, 122635, Note_on_c, 0, 67, 111
1, 122715, Note_off_c, 0, 67, 111
1, 122735, Note_on_c, 0, 69, 114
1, 122815, Note_off_c, 0, 69, 114
1, 122833, Note_on_c, 0, 70, 115
1, 122921, Note_off_c, 0, 70, 115
1, 122928, Note_on_c, 0, 72, 111
1, 123000, Note_off_c, 0, 72, 111
1, 123037, Note_on_c, 0, 69, 113
1, 123115, Note_off_c, 0, 69, 113
1, 123128, Note_on_c, 0, 67, 109
1, 123216, Note_off_c, 0, 67, 109
1, 123225, Note_on_c, 0, 66, 110
1, 123324, Note_off_c, 0, 66, 110
1, 123348, Note_on_c, 0, 62, 97
1, 123413, Note_off_c, 0, 62, 97
1, 123434, Note_on_c, 0, 65, 112
1, 123541, Note_off_c, 0, 65, 112
1, 123549, Note_on_c, 0, 62, 94
1, 123589, Note_off_c, 0, 62, 94
1, 123604, Note_on_c, 0, 65, 112
1, 123722, Note_off_c, 0, 65, 112
1, 123794, Note_on_c, 0, 64, 118
1, 123907, Note_off_c, 0, 64, 118
1, 123931, Note_on_c, 0, 60, 98
1, 123980, Note_off_c, 0, 60, 98
1, 124008, Note_on_c, 0, 62, 115
1, 124092, Note_off_c, 0, 62, 115
1, 124126, Note_on_c, 0, 65, 105
1, 124302, Note_off_c, 0, 65, 105
1, 124723, Note_on_c, 0, 69, 113
1, 124765, Note_off_c, 0, 69, 113
1, 124773, Note_on_c, 0, 72, 115
1, 124845, Note_off_c, 0, 72, 115
1, 124849, Note_on_c, 0, 74, 110
1, 124909, Note_off_c, 0, 74, 110
1, 124933, Note_on_c, 0, 77, 113
1, 125464, Note_off_c, 0, 77, 113
1, 125644, Note_on_c, 0, 76, 122
1, 125750, Note_off_c, 0, 76, 122
1, 125840, Note_on_c, 0, 69, 112
1, 125910, Note_off_c, 0, 69, 112
1, 125920, Note_on_c, 0, 70, 114
1, 126005, Note_off_c, 0, 70, 114
1, 126021, Note_on_c, 0, 72, 112
1, 126096, Note_off_c, 0, 72, 112
1, 126119, Note_on_c, 0, 73, 111
1, 126193, Note_off_c, 0, 73, 111
1, 126215, Note_on_c, 0, 75, 112
1, 126279, Note_off_c, 0, 75, 112
1, 126294, Note_on_c, 0, 72, 110
1, 126385, Note_off_c, 0, 72, 110
1, 126404, Note_on_c, 0, 70, 114
1, 126469, Note_off_c, 0, 70, 114
1, 126524, Note_on_c, 0, 69, 114
1, 126592, Note_off_c, 0, 69, 114
1, 126606, Note_on_c, 0, 69, 104
1, 126675, Note_off_c, 0, 69, 104
1, 126713, Note_on_c, 0, 64, 100
1, 126772, Note_off_c, 0, 64, 100
1, 126778, Note_on_c, 0, 67, 109
1, 126866, Note_off_c, 0, 67, 109
1, 126883, Note_on_c, 0, 66, 112
1, 126986, Note_off_c, 0, 66, 112
1, 127009, Note_on_c, 0, 64, 98
1, 127051, Note_off_c, 0, 64, 98
1, 127062, Note_on_c, 0, 65, 113
1, 127162, Note_off_c, 0, 65, 113
1, 127173, Note_on_c, 0, 64, 117
1, 127243, Note_off_c, 0, 64, 117
1, 127260, Note_on_c, 0, 63, 119
1, 127342, Note_off_c, 0, 63, 119
1, 127359, Note_on_c, 0, 65, 110
1, 127417, Note_off_c, 0, 65, 110
1, 127442, Note_on_c, 0, 67, 111
1, 127536, Note_off_c, 0, 67, 111
1, 127554, Note_on_c, 0, 70, 115
1, 127620, Note_off_c, 0, 70, 115
1, 127641, Note_on_c, 0, 73, 109
1, 127742, Note_off_c, 0, 73, 109
1, 127760, Note_on_c, 0, 73, 110
1, 127835, Note_off_c, 0, 73, 110
1, 127848, Note_on_c, 0, 69, 111
1, 127925, Note_off_c, 0, 69, 111
1, 127945, Note_on_c, 0, 65, 85
1, 128005, Note_off_c, 0, 65, 85
1, 128016, Note_on_c, 0, 70, 114
1, 128116, Note_off_c, 0, 70, 114
1, 128135, Note_on_c, 0, 72, 114
1, 128204, Note_off_c, 0, 72, 114
1, 128213, Note_on_c, 0, 74, 107
1, 128481, Note_off_c, 0, 74, 107
1, 128786, Note_on_c, 0, 74, 111
1, 128845, Note_off_c, 0, 74, 111
1, 128860, Note_on_c, 0, 75, 112
1, 128907, Note_off_c, 0, 75, 112
1, 128917, Note_on_c, 0, 74, 112
1, 128955, Note_off_c, 0, 74, 112
1, 128980, Note_on_c, 0, 72, 117
1, 129050, Note_off_c, 0, 72, 117
1, 129094, Note_on_c, 0, 70, 117
1, 129155, Note_off_c, 0, 70, 117
1, 129164, Note_on_c, 0, 69, 113
1, 129246, Note_off_c, 0, 69, 113
1, 129285, Note_on_c, 0, 67, 113
1, 129355, Note_off_c, 0, 67, 113
1, 129369, Note_on_c, 0, 66, 113
1, 129444, Note_off_c, 0, 66, 113
1, 129475, Note_on_c, 0, 63, 117
1, 129540, Note_off_c, 0, 63, 117
1, 129556, Note_on_c, 0, 62, 112
1, 129645, Note_off_c, 0, 62, 112
1, 129654, Note_on_c, 0, 60, 109
1, 129719, Note_off_c, 0, 60, 109
1, 129732, Note_on_c, 0, 59, 106
1, 129833, Note_off_c, 0, 59, 106
1, 129859, Note_on_c, 0, 57, 94
1, 129924, Note_off_c, 0, 57, 94
1, 129948, Note_on_c, 0, 58, 110
1, 130014, Note_off_c, 0, 58, 110
1, 130032, Note_on_c, 0, 60, 115
1, 130097, Note_off_c, 0, 60, 115
1, 130109, Note_on_c, 0, 62, 106
1, 130165, Note_off_c, 0, 62, 106
1, 130202, Note_on_c, 0, 69, 94
1, 130232, Note_off_c, 0, 69, 94
1, 130256, Note_on_c, 0, 72, 110
1, 130309, Note_off_c, 0, 72, 110
1, 130328, Note_on_c, 0, 75, 109
1, 130412, Note_off_c, 0, 75, 109
1, 130420, Note_on_c, 0, 73, 111
1, 130500, Note_off_c, 0, 73, 111
1, 130509, Note_on_c, 0, 72, 109
1, 130577, Note_off_c, 0, 72, 109
1, 130595, Note_on_c, 0, 70, 111
1, 130670, Note_off_c, 0, 70, 111
1, 130685, Note_on_c, 0, 68, 113
1, 130759, Note_off_c, 0, 68, 113
1, 130808, Note_on_c, 0, 64, 118
1, 130868, Note_off_c, 0, 64, 118
1, 130883, Note_on_c, 0, 64, 109
1, 130910, Note_off_c, 0, 64, 109
1, 130924, Note_on_c, 0, 61, 110
1, 130995, Note_off_c, 0, 61, 110
1, 131025, Note_on_c, 0, 58, 96
1, 131076, Note_off_c, 0, 58, 96
1, 131093, Note_on_c, 0, 60, 112
1, 131208, Note_off_c, 0, 60, 112
1, 131394, Note_on_c, 0, 69, 115
1, 131506, Note_off_c, 0, 69, 115
1, 131845, Note_on_c, 0, 52, 110
1, 131897, Note_off_c, 0, 52, 110
1, 131903, Note_on_c, 0, 55, 106
1, 131947, Note_off_c, 0, 55, 106
1, 131969, Note_on_c, 0, 58, 112
1, 132014, Note_off_c, 0, 58, 112
1, 132030, Note_on_c, 0, 61, 116
1, 132090, Note_off_c, 0, 61, 116
1, 132099, Note_on_c, 0, 63, 118
1, 132134, Note_off_c, 0, 63, 118
1, 132137, Note_on_c, 0, 65, 111
1, 132160, Note_off_c, 0, 65, 111
1, 132165, Note_on_c, 0, 67, 112
1, 132189, Note_off_c, 0, 67, 112
1, 132197, Note_on_c, 0, 69, 114
1, 132228, Note_off_c, 0, 69, 114
1, 132239, Note_on_c, 0, 70, 114
1, 132264, Note_off_c, 0, 70, 114
1, 132276, Note_on_c, 0, 72, 115
1, 132311, Note_off_c, 0, 72, 115
1, 132319, Note_on_c, 0, 69, 112
1, 132627, Note_off_c, 0, 69, 112
1, 132791, Note_on_c, 0, 68, 115
1, 132834, Note_off_c, 0, 68, 115
1, 132840, Note_on_c, 0, 67, 111
1, 132888, Note_off_c, 0, 67, 111
1, 132898, Note_on_c, 0, 71, 114
1, 132949, Note_off_c, 0, 71, 114
1, 132953, Note_on_c, 0, 69, 117
1, 132990, Note_off_c, 0, 69, 117
1, 133010, Note_on_c, 0, 66, 112
1, 133060, Note_off_c, 0, 66, 112
1, 133065, Note_on_c, 0, 65, 111
1, 133104, Note_off_c, 0, 65, 111
1, 133110, Note_on_c, 0, 64, 120
1, 133155, Note_off_c, 0, 64, 120
1, 133160, Note_on_c, 0, 63, 117
1, 133215, Note_off_c, 0, 63, 117
1, 133220, Note_on_c, 0, 65, 110
1, 133255, Note_off_c, 0, 65, 110
1, 133260, Note_on_c, 0, 67, 109
1, 133286, Note_off_c, 0, 67, 109
1, 133302, Note_on_c, 0, 70, 112
1, 133333, Note_off_c, 0, 70, 112
1, 133364, Note_on_c, 0, 64, 108
1, 133391, Note_off_c, 0, 64, 108
1, 133397, Note_on_c, 0, 61, 111
1, 133437, Note_off_c, 0, 61, 111
1, 133445, Note_on_c, 0, 57, 107
1, 133478, Note_off_c, 0, 57, 107
1, 133481, Note_on_c, 0, 54, 102
1, 133515, Note_off_c, 0, 54, 102
1, 133519, Note_on_c, 0, 63, 120
1, 133570, Note_off_c, 0, 63, 120
1, 133581, Note_on_c, 0, 61, 108
1, 133611, Note_off_c, 0, 61, 108
1, 133616, Note_on_c, 0, 59, 107
1, 133664, Note_off_c, 0, 59, 107
1, 133678, Note_on_c, 0, 57, 109
1, 133740, Note_off_c, 0, 57, 109
1, 133744, Note_on_c, 0, 59, 106
1, 133784, Note_off_c, 0, 59, 106
1, 133787, Note_on_c, 0, 61, 109
1, 133838, Note_off_c, 0, 61, 109
1, 133866, Note_on_c, 0, 68, 112
1, 133925, Note_off_c, 0, 68, 112
1, 133928, Note_on_c, 0, 67, 106
1, 133959, Note_off_c, 0, 67, 106
1, 133968, Note_on_c, 0, 66, 108
1, 134001, Note_off_c, 0, 66, 108
1, 134014, Note_on_c, 0, 61, 106
1, 134049, Note_off_c, 0, 61, 106
1, 134055, Note_on_c, 0, 65, 108
1, 134099, Note_off_c, 0, 65, 108
1, 134104, Note_on_c, 0, 64, 114
1, 134135, Note_off_c, 0, 64, 114
1, 134137, Note_on_c, 0, 63, 113
1, 134171, Note_off_c, 0, 63, 113
1, 134180, Note_on_c, 0, 65, 107
1, 134228, Note_off_c, 0, 65, 107
1, 134245, Note_on_c, 0, 60, 108
1, 134269, Note_off_c, 0, 60, 108
1, 134275, Note_on_c, 0, 63, 114
1, 134317, Note_off_c, 0, 63, 114
1, 134325, Note_on_c, 0, 62, 113
1, 134363, Note_off_c, 0, 62, 113
1, 134376, Note_on_c, 0, 60, 108
1, 134413, Note_off_c, 0, 60, 108
1, 134425, Note_on_c, 0, 58, 111
1, 134473, Note_off_c, 0, 58, 111
1, 134481, Note_on_c, 0, 60, 109
1, 134514, Note_off_c, 0, 60, 109
1, 134523, Note_on_c, 0, 62, 107
1, 134563, Note_off_c, 0, 62, 107
1, 134580, Note_on_c, 0, 65, 100
1, 134606, Note_off_c, 0, 65, 100
1, 134615, Note_on_c, 0, 70, 113
1, 134655, Note_off_c, 0, 70, 113
1, 134662, Note_on_c, 0, 69, 111
1, 134702, Note_off_c, 0, 69, 111
1, 134710, Note_on_c, 0, 68, 108
1, 134754, Note_off_c, 0, 68, 108
1, 134762, Note_on_c, 0, 67, 111
1, 134796, Note_off_c, 0, 67, 111
1, 134804, Note_on_c, 0, 66, 109
1, 134899, Note_off_c, 0, 66, 109
1, 134915, Note_on_c, 0, 65, 102
1, 134954, Note_off_c, 0, 65, 102
1, 135353, Note_on_c, 0, 63, 120
1, 135415, Note_off_c, 0, 63, 120
1, 135416, Note_on_c, 0, 62, 117
1, 135452, Note_off_c, 0, 62, 117
1, 135456, Note_on_c, 0, 61, 110
1, 135488, Note_off_c, 0, 61, 110
1, 135495, Note_on_c, 0, 59, 107
1, 135533, Note_off_c, 0, 59, 107
1, 135549, Note_on_c, 0, 58, 112
1, 135587, Note_off_c, 0, 58, 112
1, 135600, Note_on_c, 0, 60, 108
1, 135629, Note_off_c, 0, 60, 108
1, 135635, Note_on_c, 0, 62, 110
1, 135678, Note_off_c, 0, 62, 110
1, 135702, Note_on_c, 0, 69, 109
1, 135751, Note_off_c, 0, 69, 109
1, 135763, Note_on_c, 0, 67, 111
1, 135800, Note_off_c, 0, 67, 111
1, 135812, Note_on_c, 0, 65, 110
1, 135835, Note_off_c, 0, 65, 110
1, 135844, Note_on_c, 0, 62, 111
1, 135872, Note_off_c, 0, 62, 111
1, 135879, Note_on_c, 0, 64, 115
1, 135922, Note_off_c, 0, 64, 115
1, 135933, Note_on_c, 0, 60, 106
1, 135971, Note_off_c, 0, 60, 106
1, 135979, Note_on_c, 0, 62, 104
1, 136016, Note_off_c, 0, 62, 104
1, 136020, Note_on_c, 0, 64, 108
1, 136053, Note_off_c, 0, 64, 108
1, 136063, Note_on_c, 0, 65, 109
1, 136115, Note_off_c, 0, 65, 109
1, 136120, Note_on_c, 0, 66, 109
1, 136143, Note_off_c, 0, 66, 109
1, 136151, Note_on_c, 0, 67, 111
1, 136197, Note_off_c, 0, 67, 111
1, 136210, Note_on_c, 0, 66, 111
1, 136249, Note_off_c, 0, 66, 111
1, 136258, Note_on_c, 0, 65, 111
1, 136304, Note_off_c, 0, 65, 111
1, 136314, Note_on_c, 0, 64, 118
1, 136355, Note_off_c, 0, 64, 118
1, 136363, Note_on_c, 0, 62, 111
1, 136388, Note_off_c, 0, 62, 111
1, 136392, Note_on_c, 0, 61, 111
1, 136408, Note_off_c, 0, 61, 111
1, 136415, Note_on_c, 0, 60, 114
1, 136442, Note_off_c, 0, 60, 114
1, 136451, Note_on_c, 0, 58, 111
1, 136485, Note_off_c, 0, 58, 111
1, 136489, Note_on_c, 0, 57, 111
1, 136506, Note_off_c, 0, 57, 111
1, 136514, Note_on_c, 0, 55, 106
1, 136536, Note_off_c, 0, 55, 106
1, 136538, Note_on_c, 0, 53, 114
1, 136580, Note_off_c, 0, 53, 114
1, 136585, Note_on_c, 0, 52, 112
1, 136634, Note_off_c, 0, 52, 112
1, 136648, Note_on_c, 0, 51, 110
1, 136680, Note_off_c, 0, 51, 110
1, 136686, Note_on_c, 0, 50, 110
1, 136754, Note_off_c, 0, 50, 110
1, 136762, Note_on_c, 0, 49, 107
1, 136800, Note_off_c, 0, 49, 107
1, 136811, Note_on_c, 0, 48, 109
1, 136851, Note_off_c, 0, 48, 109
1, 136861, Note_on_c, 0, 47, 109
1, 136951, Note_off_c, 0, 47, 109
1, 136965, Note_on_c, 0, 46, 113
1, 137012, Note_off_c, 0, 46, 113
1, 137016, Note_on_c, 0, 45, 108
1, 137155, Note_off_c, 0, 45, 108
1, 137432, Note_on_c, 0, 70, 117
1, 137535, Note_off_c, 0, 70, 117
1, 137541, Note_on_c, 0, 69, 114
1, 137622, Note_off_c, 0, 69, 114
1, 137631, Note_on_c, 0, 67, 115
1, 137721, Note_off_c, 0, 67, 115
1, 137731, Note_on_c, 0, 68, 113
1, 137812, Note_off_c, 0, 68, 113
1, 137821, Note_on_c, 0, 67, 112
1, 137896, Note_off_c, 0, 67, 112
1, 137918, Note_on_c, 0, 66, 113
1, 138010, Note_off_c, 0, 66, 113
1, 138026, Note_on_c, 0, 64, 105
1, 138075, Note_off_c, 0, 64, 105
1, 138092, Note_on_c, 0, 65, 114
1, 138188, Note_off_c, 0, 65, 114
1, 138199, Note_on_c, 0, 63, 108
1, 138250, Note_off_c, 0, 63, 108
1, 138259, Note_on_c, 0, 64, 117
1, 138361, Note_off_c, 0, 64, 117
1, 138383, Note_on_c, 0, 61, 114
1, 138454, Note_off_c, 0, 61, 114
1, 138467, Note_on_c, 0, 57, 106
1, 138548, Note_off_c, 0, 57, 106
1, 138556, Note_on_c, 0, 54, 108
1, 138626, Note_off_c, 0, 54, 108
1, 138650, Note_on_c, 0, 63, 115
1, 138678, Note_off_c, 0, 63, 115
1, 138686, Note_on_c, 0, 66, 108
1, 138717, Note_off_c, 0, 66, 108
1, 138718, Note_on_c, 0, 63, 111
1, 138756, Note_off_c, 0, 63, 111
1, 138762, Note_on_c, 0, 59, 104
1, 138811, Note_off_c, 0, 59, 104
1, 138816, Note_on_c, 0, 54, 107
1, 138934, Note_off_c, 0, 54, 107
1, 138964, Note_on_c, 0, 52, 97
1, 139006, Note_off_c, 0, 52, 97
1, 139011, Note_on_c, 0, 53, 109
1, 139105, Note_off_c, 0, 53, 109
1, 139117, Note_on_c, 0, 51, 102
1, 139190, Note_off_c, 0, 51, 102
1, 139208, Note_on_c, 0, 50, 102
1, 139284, Note_off_c, 0, 50, 102
1, 139324, Note_on_c, 0, 53, 106
1, 139368, Note_off_c, 0, 53, 106
1, 139375, Note_on_c, 0, 55, 104
1, 139413, Note_off_c, 0, 55, 104
1, 139429, Note_on_c, 0, 57, 104
1, 139469, Note_off_c, 0, 57, 104
1, 139487, Note_on_c, 0, 60, 110
1, 139548, Note_off_c, 0, 60, 110
1, 139558, Note_on_c, 0, 68, 98
1, 139590, Note_off_c, 0, 68, 98
1, 139603, Note_on_c, 0, 58, 104
1, 139652, Note_off_c, 0, 58, 104
1, 139684, Note_on_c, 0, 60, 114
1, 139737, Note_off_c, 0, 60, 114
1, 139761, Note_on_c, 0, 61, 116
1, 139829, Note_off_c, 0, 61, 116
1, 139863, Note_on_c, 0, 62, 116
1, 139922, Note_off_c, 0, 62, 116
1, 139938, Note_on_c, 0, 65, 114
1, 140028, Note_off_c, 0, 65, 114
1, 140075, Note_on_c, 0, 62, 97
1, 140110, Note_off_c, 0, 62, 97
1, 140124, Note_on_c, 0, 63, 118
1, 140197, Note_off_c, 0, 63, 118
1, 140205, Note_on_c, 0, 65, 112
1, 140290, Note_off_c, 0, 65, 112
1, 140313, Note_on_c, 0, 66, 112
1, 140390, Note_off_c, 0, 66, 112
1, 140405, Note_on_c, 0, 68, 110
1, 140481, Note_off_c, 0, 68, 110
1, 140496, Note_on_c, 0, 69, 113
1, 140576, Note_off_c, 0, 69, 113
1, 140592, Note_on_c, 0, 70, 110
1, 140672, Note_off_c, 0, 70, 110
1, 140685, Note_on_c, 0, 71, 115
1, 140770, Note_off_c, 0, 71, 115
1, 140788, Note_on_c, 0, 69, 98
1, 140850, Note_off_c, 0, 69, 98
1, 140863, Note_on_c, 0, 70, 114
1, 140945, Note_off_c, 0, 70, 114
1, 140961, Note_on_c, 0, 66, 109
1, 141049, Note_off_c, 0, 66, 109
1, 141067, Note_on_c, 0, 65, 107
1, 141098, Note_off_c, 0, 65, 107
1, 141107, Note_on_c, 0, 64, 109
1, 141169, Note_off_c, 0, 64, 109
1, 141180, Note_on_c, 0, 63, 113
1, 141242, Note_off_c, 0, 63, 113
1, 141252, Note_on_c, 0, 62, 109
1, 141355, Note_off_c, 0, 62, 109
1, 141691, Note_on_c, 0, 69, 112
1, 141793, Note_off_c, 0, 69, 112
1, 142078, Note_on_c, 0, 70, 117
1, 142142, Note_off_c, 0, 70, 117
1, 142149, Note_on_c, 0, 72, 115
1, 142242, Note_off_c, 0, 72, 115
1, 142247, Note_on_c, 0, 69, 100
1, 142313, Note_off_c, 0, 69, 100
1, 142325, Note_on_c, 0, 70, 116
1, 142395, Note_off_c, 0, 70, 116
1, 142437, Note_on_c, 0, 69, 113
1, 142501, Note_off_c, 0, 69, 113
1, 142517, Note_on_c, 0, 68, 113
1, 142579, Note_off_c, 0, 68, 113
1, 142627, Note_on_c, 0, 64, 116
1, 142697, Note_off_c, 0, 64, 116
1, 142707, Note_on_c, 0, 61, 114
1, 142770, Note_off_c, 0, 61, 114
1, 142815, Note_on_c, 0, 59, 96
1, 142865, Note_off_c, 0, 59, 96
1, 142885, Note_on_c, 0, 60, 115
1, 142973, Note_off_c, 0, 60, 115
1, 142987, Note_on_c, 0, 69, 106
1, 143088, Note_off_c, 0, 69, 106
1, 143749, Note_on_c, 0, 69, 111
1, 143841, Note_off_c, 0, 69, 111
1, 144128, Note_on_c, 0, 69, 108
1, 144219, Note_off_c, 0, 69, 108
1, 144522, Note_on_c, 0, 69, 112
1, 144603, Note_off_c, 0, 69, 112
1, 144813, Note_on_c, 0, 69, 113
1, 144871, Note_off_c, 0, 69, 113
1, 144897, Note_on_c, 0, 69, 117
1, 144951, Note_off_c, 0, 69, 117
1, 144980, Note_on_c, 0, 69, 116
1, 145032, Note_off_c, 0, 69, 116
1, 145253, Note_on_c, 0, 69, 105
1, 145322, Note_off_c, 0, 69, 105
1, 145530, Note_on_c, 0, 69, 115
1, 145603, Note_off_c, 0, 69, 115
1, 145620, Note_on_c, 0, 69, 115
1, 145690, Note_off_c, 0, 69, 115
1, 145889, Note_on_c, 0, 70, 118
1, 145987, Note_off_c, 0, 70, 118
1, 146010, Note_on_c, 0, 70, 116
1, 146060, Note_off_c, 0, 70, 116
1, 146079, Note_on_c, 0, 70, 119
1, 146155, Note_off_c, 0, 70, 119
1, 146174, Note_on_c, 0, 70, 112
1, 146247, Note_off_c, 0, 70, 112
1, 146477, Note_on_c, 0, 70, 116
1, 146571, Note_off_c, 0, 70, 116
1, 146579, Note_on_c, 0, 69, 115
1, 146658, Note_off_c, 0, 69, 115
1, 146670, Note_on_c, 0, 71, 118
1, 146745, Note_off_c, 0, 71, 118
1, 146769, Note_on_c, 0, 71, 117
1, 146831, Note_off_c, 0, 71, 117
1, 146845, Note_on_c, 0, 71, 116
1, 146883, Note_off_c, 0, 71, 116
1, 146904, Note_on_c, 0, 71, 104
1, 146996, Note_off_c, 0, 71, 104
1, 147032, Note_on_c, 0, 71, 117
1, 147107, Note_off_c, 0, 71, 117
1, 147132, Note_on_c, 0, 71, 112
1, 147171, Note_off_c, 0, 71, 112
1, 147207, Note_on_c, 0, 72, 114
1, 147285, Note_off_c, 0, 72, 114
1, 147299, Note_on_c, 0, 71, 117
1, 147378, Note_off_c, 0, 71, 117
1, 147387, Note_on_c, 0, 70, 114
1, 147462, Note_off_c, 0, 70, 114
1, 147483, Note_on_c, 0, 69, 113
1, 147565, Note_off_c, 0, 69, 113
1, 147589, Note_on_c, 0, 67, 112
1, 147666, Note_off_c, 0, 67, 112
1, 147684, Note_on_c, 0, 65, 112
1, 147758, Note_off_c, 0, 65, 112
1, 147782, Note_on_c, 0, 64, 117
1, 147868, Note_off_c, 0, 64, 117
1, 147941, Note_on_c, 0, 62, 114
1, 148029, Note_off_c, 0, 62, 114
1, 148039, Note_on_c, 0, 64, 117
1, 148121, Note_off_c, 0, 64, 117
1, 148138, Note_on_c, 0, 65, 114
1, 148213, Note_off_c, 0, 65, 114
1, 148237, Note_on_c, 0, 67, 110
1, 148309, Note_off_c, 0, 67, 110
1, 148328, Note_on_c, 0, 69, 113
1, 148407, Note_off_c, 0, 69, 113
1, 148415, Note_on_c, 0, 70, 115
1, 148473, Note_off_c, 0, 70, 115
1, 148498, Note_on_c, 0, 72, 114
1, 148599, Note_off_c, 0, 72, 114
1, 148642, Note_on_c, 0, 70, 114
1, 148683, Note_off_c, 0, 70, 114
1, 148713, Note_on_c, 0, 69, 112
1, 148780, Note_off_c, 0, 69, 112
1, 148814, Note_on_c, 0, 70, 116
1, 148890, Note_off_c, 0, 70, 116
1, 148904, Note_on_c, 0, 69, 109
1, 148947, Note_off_c, 0, 69, 109
1, 148957, Note_on_c, 0, 68, 107
1, 148995, Note_off_c, 0, 68, 107
1, 149002, Note_on_c, 0, 67, 107
1, 149024, Note_off_c, 0, 67, 107
1, 149078, Note_on_c, 0, 69, 113
1, 149188, Note_off_c, 0, 69, 113
1, 149211, Note_on_c, 0, 67, 107
1, 149260, Note_off_c, 0, 67, 107
1, 149276, Note_on_c, 0, 66, 107
1, 149324, Note_off_c, 0, 66, 107
1, 149334, Note_on_c, 0, 65, 103
1, 149392, Note_off_c, 0, 65, 103
1, 149425, Note_on_c, 0, 67, 114
1, 149504, Note_off_c, 0, 67, 114
1, 149511, Note_on_c, 0, 66, 110
1, 149553, Note_off_c, 0, 66, 110
1, 149562, Note_on_c, 0, 65, 108
1, 149615, Note_off_c, 0, 65, 108
1, 149626, Note_on_c, 0, 64, 117
1, 149772, Note_off_c, 0, 64, 117
1, 150019, Note_on_c, 0, 61, 118
1, 150113, Note_off_c, 0, 61, 118
1, 150155, Note_on_c, 0, 58, 112
1, 150201, Note_off_c, 0, 58, 112
1, 150217, Note_on_c, 0, 61, 116
1, 150280, Note_off_c, 0, 61, 116
1, 150306, Note_on_c, 0, 64, 119
1, 150379, Note_off_c, 0, 64, 119
1, 150406, Note_on_c, 0, 62, 116
1, 150511, Note_off_c, 0, 62, 116
1, 150761, Note_on_c, 0, 62, 116
1, 150831, Note_off_c, 0, 62, 116
1, 150833, Note_on_c, 0, 64, 117
1, 150900, Note_off_c, 0, 64, 117
1, 150909, Note_on_c, 0, 67, 104
1, 150945, Note_off_c, 0, 67, 104
1, 150957, Note_on_c, 0, 69, 114
1, 151022, Note_off_c, 0, 69, 114
1, 151322, Note_on_c, 0, 62, 116
1, 151428, Note_off_c, 0, 62, 116
1, 151446, Note_on_c, 0, 62, 114
1, 151543, Note_off_c, 0, 62, 114
1, 151874, Note_on_c, 0, 65, 114
1, 151935, Note_off_c, 0, 65, 114
1, 151942, Note_on_c, 0, 64, 117
1, 151985, Note_off_c, 0, 64, 117
1, 151991, Note_on_c, 0, 63, 116
1, 152022, Note_off_c, 0, 63, 116
1, 152026, Note_on_c, 0, 65, 112
1, 152060, Note_off_c, 0, 65, 112
1, 152080, Note_on_c, 0, 60, 115
1, 152116, Note_off_c, 0, 60, 115
1, 152128, Note_on_c, 0, 62, 112
1, 152207, Note_off_c, 0, 62, 112
1, 152213, Note_on_c, 0, 60, 110
1, 152289, Note_off_c, 0, 60, 110
1, 152799, Note_on_c, 0, 57, 112
1, 152834, Note_off_c, 0, 57, 112
1, 152841, Note_on_c, 0, 56, 109
1, 152874, Note_off_c, 0, 56, 109
1, 152879, Note_on_c, 0, 57, 113
1, 152923, Note_off_c, 0, 57, 113
1, 152933, Note_on_c, 0, 59, 110
1, 152969, Note_off_c, 0, 59, 110
1, 152972, Note_on_c, 0, 61, 107
1, 153000, Note_off_c, 0, 61, 107
1, 153003, Note_on_c, 0, 62, 106
1, 153034, Note_off_c, 0, 62, 106
1, 153040, Note_on_c, 0, 65, 112
1, 153083, Note_off_c, 0, 65, 112
1, 153090, Note_on_c, 0, 62, 115
1, 153124, Note_off_c, 0, 62, 115
1, 153129, Note_on_c, 0, 63, 116
1, 153167, Note_off_c, 0, 63, 116
1, 153177, Note_on_c, 0, 62, 109
1, 153222, Note_off_c, 0, 62, 109
1, 153507, Note_on_c, 0, 59, 110
1, 153546, Note_off_c, 0, 59, 110
1, 153552, Note_on_c, 0, 62, 105
1, 153576, Note_off_c, 0, 62, 105
1, 153597, Note_on_c, 0, 65, 110
1, 153630, Note_off_c, 0, 65, 110
1, 153636, Note_on_c, 0, 62, 103
1, 153678, Note_off_c, 0, 62, 103
1, 153689, Note_on_c, 0, 69, 113
1, 153728, Note_off_c, 0, 69, 113
1, 153734, Note_on_c, 0, 65, 106
1, 153762, Note_off_c, 0, 65, 106
1, 153767, Note_on_c, 0, 64, 115
1, 153809, Note_off_c, 0, 64, 115
1, 153816, Note_on_c, 0, 62, 109
1, 153848, Note_off_c, 0, 62, 109
1, 153857, Note_on_c, 0, 67, 111
1, 153898, Note_off_c, 0, 67, 111
1, 153910, Note_on_c, 0, 66, 111
1, 153954, Note_off_c, 0, 66, 111
1, 153965, Note_on_c, 0, 65, 105
1, 153985, Note_off_c, 0, 65, 105
1, 153986, Note_on_c, 0, 63, 107
1, 154017, Note_off_c, 0, 63, 107
1, 154026, Note_on_c, 0, 64, 118
1, 154078, Note_off_c, 0, 64, 118
1, 154088, Note_on_c, 0, 62, 114
1, 154121, Note_off_c, 0, 62, 114
1, 154128, Note_on_c, 0, 60, 106
1, 154156, Note_off_c, 0, 60, 106
1, 154163, Note_on_c, 0, 59, 107
1, 154191, Note_off_c, 0, 59, 107
1, 154201, Note_on_c, 0, 58, 111
1, 154244, Note_off_c, 0, 58, 111
1, 154249, Note_on_c, 0, 60, 105
1, 154291, Note_off_c, 0, 60, 105
1, 154298, Note_on_c, 0, 62, 105
1, 154336, Note_off_c, 0, 62, 105
1, 154341, Note_on_c, 0, 65, 107
1, 154375, Note_off_c, 0, 65, 107
1, 154383, Note_on_c, 0, 69, 107
1, 154423, Note_off_c, 0, 69, 107
1, 154426, Note_on_c, 0, 67, 111
1, 154459, Note_off_c, 0, 67, 111
1, 154463, Note_on_c, 0, 65, 107
1, 154484, Note_off_c, 0, 65, 107
1, 154488, Note_on_c, 0, 62, 106
1, 154515, Note_off_c, 0, 62, 106
1, 154519, Note_on_c, 0, 64, 113
1, 154570, Note_off_c, 0, 64, 113
1, 154576, Note_on_c, 0, 60, 110
1, 154618, Note_off_c, 0, 60, 110
1, 154621, Note_on_c, 0, 62, 110
1, 154655, Note_off_c, 0, 62, 110
1, 154661, Note_on_c, 0, 64, 109
1, 154709, Note_off_c, 0, 64, 109
1, 154720, Note_on_c, 0, 65, 110
1, 154742, Note_off_c, 0, 65, 110
1, 154749, Note_on_c, 0, 67, 108
1, 154778, Note_off_c, 0, 67, 108
1, 154783, Note_on_c, 0, 69, 114
1, 154820, Note_off_c, 0, 69, 114
1, 154830, Note_on_c, 0, 70, 114
1, 154862, Note_off_c, 0, 70, 114
1, 154868, Note_on_c, 0, 72, 111
1, 155179, Note_off_c, 0, 72, 111
1, 155406, Note_on_c, 0, 69, 114
1, 155493, Note_off_c, 0, 69, 114
1, 155513, Note_on_c, 0, 70, 117
1, 155630, Note_off_c, 0, 70, 117
1, 155639, Note_on_c, 0, 68, 101
1, 155675, Note_off_c, 0, 68, 101
1, 155687, Note_on_c, 0, 69, 114
1, 155770, Note_off_c, 0, 69, 114
1, 155795, Note_on_c, 0, 63, 119
1, 156045, Note_off_c, 0, 63, 119
1, 156056, Note_on_c, 0, 64, 118
1, 156162, Note_off_c, 0, 64, 118
1, 156183, Note_on_c, 0, 67, 112
1, 156425, Note_off_c, 0, 67, 112
1, 156439, Note_on_c, 0, 65, 112
1, 156556, Note_off_c, 0, 65, 112
1, 156653, Note_on_c, 0, 61, 112
1, 156783, Note_off_c, 0, 61, 112
1, 156800, Note_on_c, 0, 62, 113
1, 156923, Note_off_c, 0, 62, 113
1, 156947, Note_on_c, 0, 65, 111
1, 157067, Note_off_c, 0, 65, 111
1, 157091, Note_on_c, 0, 62, 113
1, 157165, Note_off_c, 0, 62, 113
1, 157307, Note_on_c, 0, 70, 112
1, 157390, Note_off_c, 0, 70, 112
1, 157415, Note_on_c, 0, 73, 113
1, 157505, Note_off_c, 0, 73, 113
1, 157524, Note_on_c, 0, 73, 110
1, 157596, Note_off_c, 0, 73, 110
1, 157611, Note_on_c, 0, 69, 113
1, 157696, Note_off_c, 0, 69, 113
1, 157741, Note_on_c, 0, 65, 90
1, 157788, Note_off_c, 0, 65, 90
1, 157803, Note_on_c, 0, 70, 114
1, 157886, Note_off_c, 0, 70, 114
1, 157894, Note_on_c, 0, 72, 110
1, 157968, Note_off_c, 0, 72, 110
1, 157985, Note_on_c, 0, 74, 111
1, 158063, Note_off_c, 0, 74, 111
1, 158084, Note_on_c, 0, 72, 109
1, 158163, Note_off_c, 0, 72, 109
1, 158167, Note_on_c, 0, 70, 112
1, 158266, Note_off_c, 0, 70, 112
1, 158300, Note_on_c, 0, 68, 94
1, 158348, Note_off_c, 0, 68, 94
1, 158375, Note_on_c, 0, 69, 115
1, 158452, Note_off_c, 0, 69, 115
1, 158460, Note_on_c, 0, 67, 110
1, 158548, Note_off_c, 0, 67, 110
1, 158557, Note_on_c, 0, 66, 111
1, 158627, Note_off_c, 0, 66, 111
1, 158682, Note_on_c, 0, 57, 107
1, 158737, Note_off_c, 0, 57, 107
1, 158750, Note_on_c, 0, 60, 111
1, 158831, Note_off_c, 0, 60, 111
1, 158843, Note_on_c, 0, 62, 115
1, 158918, Note_off_c, 0, 62, 115
1, 158930, Note_on_c, 0, 63, 116
1, 159028, Note_off_c, 0, 63, 116
1, 159045, Note_on_c, 0, 61, 111
1, 159109, Note_off_c, 0, 61, 111
1, 159124, Note_on_c, 0, 60, 105
1, 159210, Note_off_c, 0, 60, 105
1, 159234, Note_on_c, 0, 58, 101
1, 159307, Note_off_c, 0, 58, 101
1, 159317, Note_on_c, 0, 59, 100
1, 159398, Note_off_c, 0, 59, 100
1, 159413, Note_on_c, 0, 57, 95
1, 159465, Note_off_c, 0, 57, 95
1, 159505, Note_on_c, 0, 58, 101
1, 159590, Note_off_c, 0, 58, 101
1, 159602, Note_on_c, 0, 60, 105
1, 159675, Note_off_c, 0, 60, 105
1, 159683, Note_on_c, 0, 62, 104
1, 159753, Note_off_c, 0, 62, 104
1, 159793, Note_on_c, 0, 65, 99
1, 159818, Note_off_c, 0, 65, 99
1, 159873, Note_on_c, 0, 69, 110
1, 159948, Note_off_c, 0, 69, 110
1, 159968, Note_on_c, 0, 64, 99
1, 160026, Note_off_c, 0, 64, 99
1, 160045, Note_on_c, 0, 67, 108
1, 160132, Note_off_c, 0, 67, 108
1, 160144, Note_on_c, 0, 65, 103
1, 160243, Note_off_c, 0, 65, 103
1, 160255, Note_on_c, 0, 64, 102
1, 160330, Note_off_c, 0, 64, 102
1, 160347, Note_on_c, 0, 65, 96
1, 160527, Note_off_c, 0, 65, 96
1, 160900, Note_on_c, 0, 60, 111
1, 160972, Note_off_c, 0, 60, 111
1, 160980, Note_on_c, 0, 62, 99
1, 161044, Note_off_c, 0, 62, 99
1, 161117, Note_on_c, 0, 70, 113
1, 161189, Note_off_c, 0, 70, 113
1, 161204, Note_on_c, 0, 73, 114
1, 161286, Note_off_c, 0, 73, 114
1, 161302, Note_on_c, 0, 74, 112
1, 161375, Note_off_c, 0, 74, 112
1, 161388, Note_on_c, 0, 77, 114
1, 161474, Note_off_c, 0, 77, 114
1, 161484, Note_on_c, 0, 76, 119
1, 161570, Note_off_c, 0, 76, 119
1, 161583, Note_on_c, 0, 75, 109
1, 161666, Note_off_c, 0, 75, 109
1, 161672, Note_on_c, 0, 74, 108
1, 161755, Note_off_c, 0, 74, 108
1, 161763, Note_on_c, 0, 73, 112
1, 161853, Note_off_c, 0, 73, 112
1, 161883, Note_on_c, 0, 69, 110
1, 161930, Note_off_c, 0, 69, 110
1, 161965, Note_on_c, 0, 68, 109
1, 162038, Note_off_c, 0, 68, 109
1, 162054, Note_on_c, 0, 67, 105
1, 162124, Note_off_c, 0, 67, 105
1, 162146, Note_on_c, 0, 66, 108
1, 162231, Note_off_c, 0, 66, 108
1, 162263, Note_on_c, 0, 64, 98
1, 162300, Note_off_c, 0, 64, 98
1, 162316, Note_on_c, 0, 65, 110
1, 162406, Note_off_c, 0, 65, 110
1, 162426, Note_on_c, 0, 65, 111
1, 162502, Note_off_c, 0, 65, 111
1, 162519, Note_on_c, 0, 67, 108
1, 162602, Note_off_c, 0, 67, 108
1, 162617, Note_on_c, 0, 69, 109
1, 162695, Note_off_c, 0, 69, 109
1, 162706, Note_on_c, 0, 70, 111
1, 162794, Note_off_c, 0, 70, 111
1, 162809, Note_on_c, 0, 70, 110
1, 162884, Note_off_c, 0, 70, 110
1, 162897, Note_on_c, 0, 69, 109
1, 162977, Note_off_c, 0, 69, 109
1, 162992, Note_on_c, 0, 67, 105
1, 163069, Note_off_c, 0, 67, 105
1, 163098, Note_on_c, 0, 65, 108
1, 163164, Note_off_c, 0, 65, 108
1, 163189, Note_on_c, 0, 63, 114
1, 163267, Note_off_c, 0, 63, 114
1, 163279, Note_on_c, 0, 62, 108
1, 163350, Note_off_c, 0, 62, 108
1, 163369, Note_on_c, 0, 60, 100
1, 163443, Note_off_c, 0, 60, 100
1, 163456, Note_on_c, 0, 58, 107
1, 163530, Note_off_c, 0, 58, 107
1, 163568, Note_on_c, 0, 60, 102
1, 163615, Note_off_c, 0, 60, 102
1, 163625, Note_on_c, 0, 62, 94
1, 163683, Note_off_c, 0, 62, 94
1, 163693, Note_on_c, 0, 63, 92
1, 163735, Note_off_c, 0, 63, 92
1, 163750, Note_on_c, 0, 65, 110
1, 163810, Note_off_c, 0, 65, 110
1, 163816, Note_on_c, 0, 62, 112
1, 163893, Note_off_c, 0, 62, 112
1, 163897, Note_on_c, 0, 63, 111
1, 163920, Note_off_c, 0, 63, 111
1, 163939, Note_on_c, 0, 63, 108
1, 164014, Note_off_c, 0, 63, 108
1, 164147, Note_on_c, 0, 73, 81
1, 164194, Note_off_c, 0, 73, 81
1, 164223, Note_on_c, 0, 73, 101
1, 164295, Note_off_c, 0, 73, 101
1, 164327, Note_on_c, 0, 75, 106
1, 164386, Note_off_c, 0, 75, 106
1, 164397, Note_on_c, 0, 75, 97
1, 164434, Note_off_c, 0, 75, 97
1, 164446, Note_on_c, 0, 77, 104
1, 164545, Note_off_c, 0, 77, 104
1, 164835, Note_on_c, 0, 73, 109
1, 164940, Note_off_c, 0, 73, 109
1, 164948, Note_on_c, 0, 71, 114
1, 165023, Note_off_c, 0, 71, 114
1, 165035, Note_on_c, 0, 70, 114
1, 165115, Note_off_c, 0, 70, 114
1, 165127, Note_on_c, 0, 69, 113
1, 165228, Note_off_c, 0, 69, 113
1, 165242, Note_on_c, 0, 67, 87
1, 165292, Note_off_c, 0, 67, 87
1, 165294, Note_on_c, 0, 68, 113
1, 165404, Note_off_c, 0, 68, 113
1, 165410, Note_on_c, 0, 65, 110
1, 165486, Note_off_c, 0, 65, 110
1, 165519, Note_on_c, 0, 63, 116
1, 165606, Note_off_c, 0, 63, 116
1, 165625, Note_on_c, 0, 61, 110
1, 165684, Note_off_c, 0, 61, 110
1, 165698, Note_on_c, 0, 60, 109
1, 165766, Note_off_c, 0, 60, 109
1, 165789, Note_on_c, 0, 61, 103
1, 165866, Note_off_c, 0, 61, 103
1, 165967, Note_on_c, 0, 72, 105
1, 166025, Note_off_c, 0, 72, 105
1, 166076, Note_on_c, 0, 75, 105
1, 166128, Note_off_c, 0, 75, 105
1, 166145, Note_on_c, 0, 75, 105
1, 166208, Note_off_c, 0, 75, 105
1, 166235, Note_on_c, 0, 76, 118
1, 166325, Note_off_c, 0, 76, 118
1, 166336, Note_on_c, 0, 75, 103
1, 166599, Note_off_c, 0, 75, 103
1, 166723, Note_on_c, 0, 73, 108
1, 166819, Note_off_c, 0, 73, 108
1, 166824, Note_on_c, 0, 72, 113
1, 166888, Note_off_c, 0, 72, 113
1, 166938, Note_on_c, 0, 69, 108
1, 166972, Note_off_c, 0, 69, 108
1, 166984, Note_on_c, 0, 70, 113
1, 167064, Note_off_c, 0, 70, 113
1, 167093, Note_on_c, 0, 70, 110
1, 167150, Note_off_c, 0, 70, 110
1, 167162, Note_on_c, 0, 69, 111
1, 167256, Note_off_c, 0, 69, 111
1, 167267, Note_on_c, 0, 65, 104
1, 167365, Note_off_c, 0, 65, 104
1, 167525, Note_on_c, 0, 64, 114
1, 167647, Note_off_c, 0, 64, 114
1, 167833, Note_on_c, 0, 57, 107
1, 167919, Note_off_c, 0, 57, 107
1, 167923, Note_on_c, 0, 61, 110
1, 168015, Note_off_c, 0, 61, 110
1, 168018, Note_on_c, 0, 62, 93
1, 168090, Note_off_c, 0, 62, 93
1, 168101, Note_on_c, 0, 64, 113
1, 168202, Note_off_c, 0, 64, 113
1, 168204, Note_on_c, 0, 65, 110
1, 168280, Note_off_c, 0, 65, 110
1, 168291, Note_on_c, 0, 62, 113
1, 168398, Note_off_c, 0, 62, 113
1, 169044, Note_on_c, 0, 61, 114
1, 169097, Note_off_c, 0, 61, 114
1, 169098, Note_on_c, 0, 62, 112
1, 169136, Note_off_c, 0, 62, 112
1, 169143, Note_on_c, 0, 65, 110
1, 169189, Note_off_c, 0, 65, 110
1, 169194, Note_on_c, 0, 64, 117
1, 169240, Note_off_c, 0, 64, 117
1, 169249, Note_on_c, 0, 63, 113
1, 169304, Note_off_c, 0, 63, 113
1, 169309, Note_on_c, 0, 67, 102
1, 169380, Note_off_c, 0, 67, 102
1, 169387, Note_on_c, 0, 70, 103
1, 169421, Note_off_c, 0, 70, 103
1, 169424, Note_on_c, 0, 74, 112
1, 169465, Note_off_c, 0, 74, 112
1, 169476, Note_on_c, 0, 72, 108
1, 169497, Note_off_c, 0, 72, 108
1, 169501, Note_on_c, 0, 70, 109
1, 169545, Note_off_c, 0, 70, 109
1, 169548, Note_on_c, 0, 67, 99
1, 169576, Note_off_c, 0, 67, 99
1, 169588, Note_on_c, 0, 69, 110
1, 169635, Note_off_c, 0, 69, 110
1, 169645, Note_on_c, 0, 72, 109
1, 169686, Note_off_c, 0, 72, 109
1, 169689, Note_on_c, 0, 71, 112
1, 169730, Note_off_c, 0, 71, 112
1, 169740, Note_on_c, 0, 69, 104
1, 169770, Note_off_c, 0, 69, 104
1, 169788, Note_on_c, 0, 69, 111
1, 169833, Note_off_c, 0, 69, 111
1, 169842, Note_on_c, 0, 66, 107
1, 169886, Note_off_c, 0, 66, 107
1, 169891, Note_on_c, 0, 65, 107
1, 169916, Note_off_c, 0, 65, 107
1, 169921, Note_on_c, 0, 64, 113
1, 169974, Note_off_c, 0, 64, 113
1, 169983, Note_on_c, 0, 63, 110
1, 170012, Note_off_c, 0, 63, 110
1, 170014, Note_on_c, 0, 65, 106
1, 170054, Note_off_c, 0, 65, 106
1, 170061, Note_on_c, 0, 60, 105
1, 170100, Note_off_c, 0, 60, 105
1, 170105, Note_on_c, 0, 63, 114
1, 170144, Note_off_c, 0, 63, 114
1, 170148, Note_on_c, 0, 62, 110
1, 170200, Note_off_c, 0, 62, 110
1, 170211, Note_on_c, 0, 60, 103
1, 170242, Note_off_c, 0, 60, 103
1, 170253, Note_on_c, 0, 58, 109
1, 170272, Note_off_c, 0, 58, 109
1, 170278, Note_on_c, 0, 57, 104
1, 170326, Note_off_c, 0, 57, 104
1, 170330, Note_on_c, 0, 58, 104
1, 170433, Note_off_c, 0, 58, 104
1, 170813, Note_on_c, 0, 69, 112
1, 170854, Note_off_c, 0, 69, 112
1, 170857, Note_on_c, 0, 67, 111
1, 170893, Note_off_c, 0, 67, 111
1, 170901, Note_on_c, 0, 66, 110
1, 170966, Note_off_c, 0, 66, 110
1, 171003, Note_on_c, 0, 63, 113
1, 171078, Note_off_c, 0, 63, 113
1, 171085, Note_on_c, 0, 62, 113
1, 171195, Note_off_c, 0, 62, 113
1, 171201, Note_on_c, 0, 60, 107
1, 171247, Note_off_c, 0, 60, 107
1, 171249, Note_on_c, 0, 58, 107
1, 171344, Note_off_c, 0, 58, 107
1, 171396, Note_on_c, 0, 62, 112
1, 171514, Note_off_c, 0, 62, 112
1, 171527, Note_on_c, 0, 65, 109
1, 171617, Note_off_c, 0, 65, 109
1, 171625, Note_on_c, 0, 64, 116
1, 171733, Note_off_c, 0, 64, 116
1, 171795, Note_on_c, 0, 62, 112
1, 171901, Note_off_c, 0, 62, 112
1, 171910, Note_on_c, 0, 64, 117
1, 171986, Note_off_c, 0, 64, 117
1, 171999, Note_on_c, 0, 65, 112
1, 172084, Note_off_c, 0, 65, 112
1, 172098, Note_on_c, 0, 67, 110
1, 172169, Note_off_c, 0, 67, 110
1, 172192, Note_on_c, 0, 69, 113
1, 172266, Note_off_c, 0, 69, 113
1, 172282, Note_on_c, 0, 70, 110
1, 172357, Note_off_c, 0, 70, 110
1, 172373, Note_on_c, 0, 72, 108
1, 172498, Note_off_c, 0, 72, 108
1, 172514, Note_on_c, 0, 70, 111
1, 172575, Note_off_c, 0, 70, 111
1, 172585, Note_on_c, 0, 69, 112
1, 172642, Note_off_c, 0, 69, 112
1, 172687, Note_on_c, 0, 70, 112
1, 172761, Note_off_c, 0, 70, 112
1, 172771, Note_on_c, 0, 69, 110
1, 172878, Note_off_c, 0, 69, 110
1, 172953, Note_on_c, 0, 65, 108
1, 173065, Note_off_c, 0, 65, 108
1, 173074, Note_on_c, 0, 62, 93
1, 173115, Note_off_c, 0, 62, 93
1, 173125, Note_on_c, 0, 65, 103
1, 173323, Note_off_c, 0, 65, 103
1, 173526, Note_on_c, 0, 64, 117
1, 173591, Note_off_c, 0, 64, 117
1, 173600, Note_on_c, 0, 65, 102
1, 173633, Note_off_c, 0, 65, 102
1, 173642, Note_on_c, 0, 64, 104
1, 173707, Note_off_c, 0, 64, 104
1, 173728, Note_on_c, 0, 63, 113
1, 173803, Note_off_c, 0, 63, 113
1, 173816, Note_on_c, 0, 64, 112
1, 173896, Note_off_c, 0, 64, 112
1, 173911, Note_on_c, 0, 65, 109
1, 173997, Note_off_c, 0, 65, 109
1, 174013, Note_on_c, 0, 64, 116
1, 174079, Note_off_c, 0, 64, 116
1, 174085, Note_on_c, 0, 61, 106
1, 174178, Note_off_c, 0, 61, 106
1, 174224, Note_on_c, 0, 57, 95
1, 174264, Note_off_c, 0, 57, 95
1, 174279, Note_on_c, 0, 62, 112
1, 174365, Note_off_c, 0, 62, 112
1, 174379, Note_on_c, 0, 64, 113
1, 174465, Note_off_c, 0, 64, 113
1, 174487, Note_on_c, 0, 65, 111
1, 174571, Note_off_c, 0, 65, 111
1, 174584, Note_on_c, 0, 67, 86
1, 174636, Note_off_c, 0, 67, 86
1, 174647, Note_on_c, 0, 69, 111
1, 174740, Note_off_c, 0, 69, 111
1, 174765, Note_on_c, 0, 67, 108
1, 174837, Note_off_c, 0, 67, 108
1, 174845, Note_on_c, 0, 68, 108
1, 174932, Note_off_c, 0, 68, 108
1, 174941, Note_on_c, 0, 71, 109
1, 175033, Note_off_c, 0, 71, 109
1, 175044, Note_on_c, 0, 69, 109
1, 175114, Note_off_c, 0, 69, 109
1, 175158, Note_on_c, 0, 67, 105
1, 175226, Note_off_c, 0, 67, 105
1, 175232, Note_on_c, 0, 68, 104
1, 175321, Note_off_c, 0, 68, 104
1, 175322, Note_on_c, 0, 67, 104
1, 175399, Note_off_c, 0, 67, 104
1, 175426, Note_on_c, 0, 66, 104
1, 175522, Note_off_c, 0, 66, 104
1, 175531, Note_on_c, 0, 64, 96
1, 175580, Note_off_c, 0, 64, 96
1, 175592, Note_on_c, 0, 65, 106
1, 175682, Note_off_c, 0, 65, 106
1, 175690, Note_on_c, 0, 63, 108
1, 175778, Note_off_c, 0, 63, 108
1, 175797, Note_on_c, 0, 62, 106
1, 175880, Note_off_c, 0, 62, 106
1, 175884, Note_on_c, 0, 58, 98
1, 175959, Note_off_c, 0, 58, 98
1, 175959, End_track
0, 0, End_of_file
