0, 0, Header, 1, 1, 192
1, 0, Start_track
1, 0, Title_t, "Melody"
1, 0, Tempo, 327868
1, 0, Key_signature, 0, "major"
1, 0, Time_signature, 4, 2, 24, 8
1, 6558, Note_on_c, 0, 58, 96
1, 6631, Note_off_c, 0, 58, 96
1, 6643, Note_on_c, 0, 55, 97
1, 6693, Note_off_c, 0, 55, 97
1, 6746, Note_on_c, 0, 60, 103
1, 6873, Note_off_c, 0, 60, 103
1, 7025, Note_on_c, 0, 62, 110
1, 7116, Note_off_c, 0, 62, 110
1, 7505, Note_on_c, 0, 60, 93
1, 7594, Note_off_c, 0, 60, 93
1, 7678, Note_on_c, 0, 62, 107
1, 7893, Note_off_c, 0, 62, 107
1, 7899, Note_on_c, 0, 58, 93
1, 8014, Note_off_c, 0, 58, 93
1, 8017, Note_on_c, 0, 53, 97
1, 8080, Note_off_c, 0, 53, 97
1, 8084, Note_on_c, 0, 50, 100
1, 8162, Note_off_c, 0, 50, 100
1, 8185, Note_on_c, 0, 55, 95
1, 8259, Note_off_c, 0, 55, 95
1, 8262, Note_on_c, 0, 52, 94
1, 8368, Note_off_c, 0, 52, 94
1, 8387, Note_on_c, 0, 60, 100
1, 8449, Note_off_c, 0, 60, 100
1, 8644, Note_on_c, 0, 62, 103
1, 8749, Note_off_c, 0, 62, 103
1, 8927, Note_on_c, 0, 64, 110
1, 9035, Note_off_c, 0, 64, 110
1, 9045, Note_on_c, 0, 65, 104
1, 9208, Note_off_c, 0, 65, 104
1, 9224, Note_on_c, 0, 64, 106
1, 9318, Note_off_c, 0, 64, 106
1, 9325, Note_on_c, 0, 62, 104
1, 9421, Note_off_c, 0, 62, 104
1, 9427, Note_on_c, 0, 61, 99
1, 9508, Note_off_c, 0, 61, 99
1, 9526, Note_on_c, 0, 59, 85
1, 9585, Note_off_c, 0, 59, 85
1, 9595, Note_on_c, 0, 60, 99
1, 9680, Note_off_c, 0, 60, 99
1, 9697, Note_on_c, 0, 59, 95
1, 9773, Note_off_c, 0, 59, 95
1, 9785, Note_on_c, 0, 58, 94
1, 9894, Note_off_c, 0, 58, 94
1, 9905, Note_on_c, 0, 55, 95
1, 9962, Note_off_c, 0, 55, 95
1, 9976, Note_on_c, 0, 54, 92
1, 10077, Note_off_c, 0, 54, 92
1, 10079, Note_on_c, 0, 52, 91
1, 10152, Note_off_c, 0, 52, 91
1, 10157, Note_on_c, 0, 53, 96
1, 10268, Note_off_c, 0, 53, 96
1, 10278, Note_on_c, 0, 51, 96
1, 10378, Note_off_c, 0, 51, 96
1, 10385, Note_on_c, 0, 48, 93
1, 10451, Note_off_c, 0, 48, 93
1, 10492, Note_on_c, 0, 46, 98
1, 10548, Note_off_c, 0, 46, 98
1, 10553, Note_on_c, 0, 51, 99
1, 10637, Note_off_c, 0, 51, 99
1, 10646, Note_on_c, 0, 48, 87
1, 10693, Note_off_c, 0, 48, 87
1, 10727, Note_on_c, 0, 53, 101
1, 10892, Note_off_c, 0, 53, 101
1, 10907, Note_on_c, 0, 54, 101
1, 10996, Note_off_c, 0, 54, 101
1, 11010, Note_on_c, 0, 53, 98
1, 11095, Note_off_c, 0, 53, 98
1, 11108, Note_on_c, 0, 51, 103
1, 11184, Note_off_c, 0, 51, 103
1, 11184, Note_on_c, 0, 48, 102
1, 11234, Note_off_c, 0, 48, 102
1, 11279, Note_on_c, 0, 52, 94
1, 11345, Note_off_c, 0, 52, 94
1, 11406, Note_on_c, 0, 60, 96
1, 11471, Note_off_c, 0, 60, 96
1, 11572, Note_on_c, 0, 62, 98
1, 11639, Note_off_c, 0, 62, 98
1, 11752, Note_on_c, 0, 64, 104
1, 11831, Note_off_c, 0, 64, 104
1, 11944, Note_on_c, 0, 65, 101
1, 12012, Note_off_c, 0, 65, 101
1, 12134, Note_on_c, 0, 64, 100
1, 12207, Note_off_c, 0, 64, 100
1, 12324, Note_on_c, 0, 62, 98
1, 12396, Note_off_c, 0, 62, 98
1, 12501, Note_on_c, 0, 65, 99
1, 12582, Note_off_c, 0, 65, 99
1, 12610, Note_on_c, 0, 62, 106
1, 12691, Note_off_c, 0, 62, 106
1, 12697, Note_on_c, 0, 65, 100
1, 12770, Note_off_c, 0, 65, 100
1, 12782, Note_on_c, 0, 64, 108
1, 12860, Note_off_c, 0, 64, 108
1, 12882, Note_on_c, 0, 67, 88
1, 12959, Note_off_c, 0, 67, 88
1, 12999, Note_on_c, 0, 72, 101
1, 13158, Note_off_c, 0, 72, 101
1, 13194, Note_on_c, 0, 70, 94
1, 13369, Note_off_c, 0, 70, 94
1, 13379, Note_on_c, 0, 72, 99
1, 13456, Note_off_c, 0, 72, 99
1, 13837, Note_on_c, 0, 62, 106
1, 13880, Note_off_c, 0, 62, 106
1, 13884, Note_on_c, 0, 65, 103
1, 13926, Note_off_c, 0, 65, 103
1, 13931, Note_on_c, 0, 64, 105
1, 13980, Note_off_c, 0, 64, 105
1, 14028, Note_on_c, 0, 67, 102
1, 14087, Note_off_c, 0, 67, 102
1, 14128, Note_on_c, 0, 70, 99
1, 14207, Note_off_c, 0, 70, 99
1, 14218, Note_on_c, 0, 72, 98
1, 14289, Note_off_c, 0, 72, 98
1, 14301, Note_on_c, 0, 73, 91
1, 14353, Note_off_c, 0, 73, 91
1, 14353, Note_on_c, 0, 74, 90
1, 14376, Note_off_c, 0, 74, 90
1, 14403, Note_on_c, 0, 72, 86
1, 14444, Note_off_c, 0, 72, 86
1, 14445, Note_on_c, 0, 70, 96
1, 14507, Note_off_c, 0, 70, 96
1, 14517, Note_on_c, 0, 67, 99
1, 14733, Note_off_c, 0, 67, 99
1, 15083, Note_on_c, 0, 66, 104
1, 15158, Note_off_c, 0, 66, 104
1, 15179, Note_on_c, 0, 65, 90
1, 15253, Note_off_c, 0, 65, 90
1, 15263, Note_on_c, 0, 66, 106
1, 15332, Note_off_c, 0, 66, 106
1, 15346, Note_on_c, 0, 65, 100
1, 15406, Note_off_c, 0, 65, 100
1, 15418, Note_on_c, 0, 63, 108
1, 15531, Note_off_c, 0, 63, 108
1, 15541, Note_on_c, 0, 60, 91
1, 15590, Note_off_c, 0, 60, 91
1, 15601, Note_on_c, 0, 65, 104
1, 15717, Note_off_c, 0, 65, 104
1, 15737, Note_on_c, 0, 63, 92
1, 15770, Note_off_c, 0, 63, 92
1, 15780, Note_on_c, 0, 65, 97
1, 15857, Note_off_c, 0, 65, 97
1, 15879, Note_on_c, 0, 66, 99
1, 15921, Note_off_c, 0, 66, 99
1, 15926, Note_on_c, 0, 65, 99
1, 15959, Note_off_c, 0, 65, 99
1, 15991, Note_on_c, 0, 63, 103
1, 16114, Note_off_c, 0, 63, 103
1, 16125, Note_on_c, 0, 60, 88
1, 16168, Note_off_c, 0, 60, 88
1, 16168, Note_on_c, 0, 65, 98
1, 16268, Note_off_c, 0, 65, 98
1, 16276, Note_on_c, 0, 64, 98
1, 16377, Note_off_c, 0, 64, 98
1, 16388, Note_on_c, 0, 63, 102
1, 16459, Note_off_c, 0, 63, 102
1, 16478, Note_on_c, 0, 61, 101
1, 16500, Note_off_c, 0, 61, 101
1, 16500, Note_on_c, 0, 60, 96
1, 16554, Note_off_c, 0, 60, 96
1, 16554, Note_on_c, 0, 58, 93
1, 16619, Note_off_c, 0, 58, 93
1, 16637, Note_on_c, 0, 54, 95
1, 16750, Note_off_c, 0, 54, 95
1, 16761, Note_on_c, 0, 53, 95
1, 16840, Note_off_c, 0, 53, 95
1, 16852, Note_on_c, 0, 51, 97
1, 16919, Note_off_c, 0, 51, 97
1, 16922, Note_on_c, 0, 53, 102
1, 17040, Note_off_c, 0, 53, 102
1, 17045, Note_on_c, 0, 51, 96
1, 17097, Note_off_c, 0, 51, 96
1, 17101, Note_on_c, 0, 53, 98
1, 17213, Note_off_c, 0, 53, 98
1, 17233, Note_on_c, 0, 51, 97
1, 17297, Note_off_c, 0, 51, 97
1, 17313, Note_on_c, 0, 52, 93
1, 17384, Note_off_c, 0, 52, 93
1, 17418, Note_on_c, 0, 60, 98
1, 17468, Note_off_c, 0, 60, 98
1, 17557, Note_on_c, 0, 62, 107
1, 17601, Note_off_c, 0, 62, 107
1, 17687, Note_on_c, 0, 64, 104
1, 17855, Note_off_c, 0, 64, 104
1, 17863, Note_on_c, 0, 62, 99
1, 17952, Note_off_c, 0, 62, 99
1, 17976, Note_on_c, 0, 60, 86
1, 18046, Note_off_c, 0, 60, 86
1, 18056, Note_on_c, 0, 62, 102
1, 18137, Note_off_c, 0, 62, 102
1, 18167, Note_on_c, 0, 64, 101
1, 18229, Note_off_c, 0, 64, 101
1, 18249, Note_on_c, 0, 60, 95
1, 18373, Note_off_c, 0, 60, 95
1, 18793, Time_signature, 3, 2, 24, 8
1, 18793, Note_on_c, 0, 69, 97
1, 18961, Note_off_c, 0, 69, 97
1, 18968, Note_on_c, 0, 65, 85
1, 19055, Note_off_c, 0, 65, 85
1, 19077, Note_on_c, 0, 70, 98
1, 19246, Note_off_c, 0, 70, 98
1, 19256, Note_on_c, 0, 65, 84
1, 19382, Note_off_c, 0, 65, 84
1, 19383, Note_on_c, 0, 67, 101
1, 19453, Note_off_c, 0, 67, 101
1, 19472, Note_on_c, 0, 67, 99
1, 19546, Note_off_c, 0, 67, 99
1, 19555, Note_on_c, 0, 63, 97
1, 19625, Note_off_c, 0, 63, 97
1, 19658, Note_on_c, 0, 67, 99
1, 19702, Note_off_c, 0, 67, 99
1, 19713, Note_on_c, 0, 69, 103
1, 19783, Note_off_c, 0, 69, 103
1, 19789, Note_on_c, 0, 67, 88
1, 19832, Note_off_c, 0, 67, 88
1, 20031, Note_on_c, 0, 65, 99
1, 20119, Note_off_c, 0, 65, 99
1, 20134, Note_on_c, 0, 61, 94
1, 20210, Note_off_c, 0, 61, 94
1, 20232, Note_on_c, 0, 67, 101
1, 20338, Note_off_c, 0, 67, 101
1, 20419, Note_on_c, 0, 63, 94
1, 20479, Note_off_c, 0, 63, 94
1, 20545, Note_on_c, 0, 69, 101
1, 20680, Note_off_c, 0, 69, 101
1, 20706, Note_on_c, 0, 65, 91
1, 20747, Note_off_c, 0, 65, 91
1, 20809, Note_on_c, 0, 71, 99
1, 20936, Note_off_c, 0, 71, 99
1, 21080, Time_signature, 4, 2, 24, 8
1, 21080, Note_on_c, 0, 71, 90
1, 21100, Note_off_c, 0, 71, 90
1, 21108, Note_on_c, 0, 72, 97
1, 21554, Note_off_c, 0, 72, 97
1, 21563, Note_on_c, 0, 71, 104
1, 21638, Note_off_c, 0, 71, 104
1, 21641, Note_on_c, 0, 72, 100
1, 21729, Note_off_c, 0, 72, 100
1, 21743, Note_on_c, 0, 71, 99
1, 21820, Note_off_c, 0, 71, 99
1, 21843, Note_on_c, 0, 70, 100
1, 21950, Note_off_c, 0, 70, 100
1, 21960, Note_on_c, 0, 70, 104
1, 22031, Note_off_c, 0, 70, 104
1, 22036, Note_on_c, 0, 72, 100
1, 22102, Note_off_c, 0, 72, 100
1, 22119, Note_on_c, 0, 70, 96
1, 22171, Note_off_c, 0, 70, 96
1, 22221, Note_on_c, 0, 69, 101
1, 22291, Note_off_c, 0, 69, 101
1, 22296, Note_on_c, 0, 71, 95
1, 22359, Note_off_c, 0, 71, 95
1, 22364, Note_on_c, 0, 72, 99
1, 22405, Note_off_c, 0, 72, 99
1, 22408, Note_on_c, 0, 73, 93
1, 22441, Note_off_c, 0, 73, 93
1, 22449, Note_on_c, 0, 74, 92
1, 22494, Note_off_c, 0, 74, 92
1, 22501, Note_on_c, 0, 72, 95
1, 22533, Note_off_c, 0, 72, 95
1, 22540, Note_on_c, 0, 71, 95
1, 22584, Note_off_c, 0, 71, 95
1, 22595, Note_on_c, 0, 70, 95
1, 22672, Note_off_c, 0, 70, 95
1, 22704, Note_on_c, 0, 67, 97
1, 22798, Note_off_c, 0, 67, 97
1, 22826, Note_on_c, 0, 62, 103
1, 22902, Note_off_c, 0, 62, 103
1, 22912, Note_on_c, 0, 67, 100
1, 22977, Note_off_c, 0, 67, 100
1, 22988, Note_on_c, 0, 66, 98
1, 23071, Note_off_c, 0, 66, 98
1, 23094, Note_on_c, 0, 62, 102
1, 23178, Note_off_c, 0, 62, 102
1, 23182, Note_on_c, 0, 58, 92
1, 23247, Note_off_c, 0, 58, 92
1, 23277, Note_on_c, 0, 55, 91
1, 23336, Note_off_c, 0, 55, 91
1, 23350, Note_on_c, 0, 64, 107
1, 23449, Note_off_c, 0, 64, 107
1, 23453, Note_on_c, 0, 67, 98
1, 23536, Note_off_c, 0, 67, 98
1, 23547, Note_on_c, 0, 64, 102
1, 23628, Note_off_c, 0, 64, 102
1, 23635, Note_on_c, 0, 67, 95
1, 23701, Note_off_c, 0, 67, 95
1, 23718, Note_on_c, 0, 65, 97
1, 23808, Note_off_c, 0, 65, 97
1, 23819, Note_on_c, 0, 64, 105
1, 23894, Note_off_c, 0, 64, 105
1, 23902, Note_on_c, 0, 63, 101
1, 23998, Note_off_c, 0, 63, 101
1, 23998, Note_on_c, 0, 60, 92
1, 24083, Note_off_c, 0, 60, 92
1, 24091, Note_on_c, 0, 58, 90
1, 24171, Note_off_c, 0, 58, 90
1, 24191, Note_on_c, 0, 54, 96
1, 24344, Note_off_c, 0, 54, 96
1, 24891, Note_on_c, 0, 54, 95
1, 24960, Note_off_c, 0, 54, 95
1, 24967, Note_on_c, 0, 58, 95
1, 25010, Note_off_c, 0, 58, 95
1, 25015, Note_on_c, 0, 62, 96
1, 25056, Note_off_c, 0, 62, 96
1, 25066, Note_on_c, 0, 65, 101
1, 25121, Note_off_c, 0, 65, 101
1, 25123, Note_on_c, 0, 62, 103
1, 25154, Note_off_c, 0, 62, 103
1, 25160, Note_on_c, 0, 63, 102
1, 25194, Note_off_c, 0, 63, 102
1, 25198, Note_on_c, 0, 65, 97
1, 25224, Note_off_c, 0, 65, 97
1, 25229, Note_on_c, 0, 68, 109
1, 25266, Note_off_c, 0, 68, 109
1, 25276, Note_on_c, 0, 67, 100
1, 25317, Note_off_c, 0, 67, 100
1, 25322, Note_on_c, 0, 66, 103
1, 25372, Note_off_c, 0, 66, 103
1, 25379, Note_on_c, 0, 62, 98
1, 25415, Note_off_c, 0, 62, 98
1, 25415, Note_on_c, 0, 65, 102
1, 25447, Note_off_c, 0, 65, 102
1, 25461, Note_on_c, 0, 64, 103
1, 25505, Note_off_c, 0, 64, 103
1, 25512, Note_on_c, 0, 63, 104
1, 25537, Note_off_c, 0, 63, 104
1, 25542, Note_on_c, 0, 67, 96
1, 25602, Note_off_c, 0, 67, 96
1, 25609, Note_on_c, 0, 62, 99
1, 25649, Note_off_c, 0, 62, 99
1, 25657, Note_on_c, 0, 64, 102
1, 25692, Note_off_c, 0, 64, 102
1, 25699, Note_on_c, 0, 65, 99
1, 25747, Note_off_c, 0, 65, 99
1, 25754, Note_on_c, 0, 62, 92
1, 25783, Note_off_c, 0, 62, 92
1, 25786, Note_on_c, 0, 64, 106
1, 25834, Note_off_c, 0, 64, 106
1, 25849, Note_on_c, 0, 62, 103
1, 25881, Note_off_c, 0, 62, 103
1, 25889, Note_on_c, 0, 61, 93
1, 25933, Note_off_c, 0, 61, 93
1, 25937, Note_on_c, 0, 62, 85
1, 25969, Note_off_c, 0, 62, 85
1, 25978, Note_on_c, 0, 65, 104
1, 26025, Note_off_c, 0, 65, 104
1, 26030, Note_on_c, 0, 62, 103
1, 26081, Note_off_c, 0, 62, 103
1, 26085, Note_on_c, 0, 58, 97
1, 26115, Note_off_c, 0, 58, 97
1, 26138, Note_on_c, 0, 55, 93
1, 26170, Note_off_c, 0, 55, 93
1, 26184, Note_on_c, 0, 57, 98
1, 26229, Note_off_c, 0, 57, 98
1, 26235, Note_on_c, 0, 55, 102
1, 26265, Note_off_c, 0, 55, 102
1, 26271, Note_on_c, 0, 54, 98
1, 26311, Note_off_c, 0, 54, 98
1, 26332, Note_on_c, 0, 57, 91
1, 26359, Note_off_c, 0, 57, 91
1, 26363, Note_on_c, 0, 60, 99
1, 26403, Note_off_c, 0, 60, 99
1, 26412, Note_on_c, 0, 57, 96
1, 26456, Note_off_c, 0, 57, 96
1, 26464, Note_on_c, 0, 58, 100
1, 26505, Note_off_c, 0, 58, 100
1, 26513, Note_on_c, 0, 60, 98
1, 26538, Note_off_c, 0, 60, 98
1, 26545, Note_on_c, 0, 61, 97
1, 26570, Note_off_c, 0, 61, 97
1, 26578, Note_on_c, 0, 65, 85
1, 26626, Note_off_c, 0, 65, 85
1, 26636, Note_on_c, 0, 69, 102
1, 26673, Note_off_c, 0, 69, 102
1, 26683, Note_on_c, 0, 67, 95
1, 26726, Note_off_c, 0, 67, 95
1, 26728, Note_on_c, 0, 65, 100
1, 26785, Note_off_c, 0, 65, 100
1, 26790, Note_on_c, 0, 62, 96
1, 26816, Note_off_c, 0, 62, 96
1, 26818, Note_on_c, 0, 58, 90
1, 26880, Note_off_c, 0, 58, 90
1, 26887, Note_on_c, 0, 55, 105
1, 26908, Note_off_c, 0, 55, 105
1, 26915, Note_on_c, 0, 64, 105
1, 26963, Note_off_c, 0, 64, 105
1, 26973, Note_on_c, 0, 62, 107
1, 27036, Note_off_c, 0, 62, 107
1, 27042, Note_on_c, 0, 59, 92
1, 27077, Note_off_c, 0, 59, 92
1, 27083, Note_on_c, 0, 58, 106
1, 27140, Note_off_c, 0, 58, 106
1, 27142, Note_on_c, 0, 60, 104
1, 27170, Note_off_c, 0, 60, 104
1, 27173, Note_on_c, 0, 62, 103
1, 27203, Note_off_c, 0, 62, 103
1, 27212, Note_on_c, 0, 64, 102
1, 27250, Note_off_c, 0, 64, 102
1, 27257, Note_on_c, 0, 67, 102
1, 27287, Note_off_c, 0, 67, 102
1, 27293, Note_on_c, 0, 69, 105
1, 27321, Note_off_c, 0, 69, 105
1, 27330, Note_on_c, 0, 70, 102
1, 27356, Note_off_c, 0, 70, 102
1, 27363, Note_on_c, 0, 72, 102
1, 27570, Note_off_c, 0, 72, 102
1, 27577, Note_on_c, 0, 72, 104
1, 27641, Note_off_c, 0, 72, 104
1, 27645, Note_on_c, 0, 70, 96
1, 27716, Note_off_c, 0, 70, 96
1, 27720, Note_on_c, 0, 72, 100
1, 27764, Note_off_c, 0, 72, 100
1, 27770, Note_on_c, 0, 72, 103
1, 27809, Note_off_c, 0, 72, 103
1, 27814, Note_on_c, 0, 69, 99
1, 27871, Note_off_c, 0, 69, 99
1, 27881, Note_on_c, 0, 72, 98
1, 27924, Note_off_c, 0, 72, 98
1, 27937, Note_on_c, 0, 72, 101
1, 27965, Note_off_c, 0, 72, 101
1, 27991, Note_on_c, 0, 67, 93
1, 28040, Note_off_c, 0, 67, 93
1, 28049, Note_on_c, 0, 72, 97
1, 28071, Note_off_c, 0, 72, 97
1, 28096, Note_on_c, 0, 72, 102
1, 28118, Note_off_c, 0, 72, 102
1, 28119, Note_on_c, 0, 69, 98
1, 28154, Note_off_c, 0, 69, 98
1, 28156, Note_on_c, 0, 72, 97
1, 28234, Note_off_c, 0, 72, 97
1, 28588, Note_on_c, 0, 72, 86
1, 28654, Note_off_c, 0, 72, 86
1, 28661, Note_on_c, 0, 72, 99
1, 28718, Note_off_c, 0, 72, 99
1, 28731, Note_on_c, 0, 72, 105
1, 28773, Note_off_c, 0, 72, 105
1, 28775, Note_on_c, 0, 70, 102
1, 28849, Note_off_c, 0, 70, 102
1, 28856, Note_on_c, 0, 72, 101
1, 28935, Note_off_c, 0, 72, 101
1, 28939, Note_on_c, 0, 74, 85
1, 28958, Note_off_c, 0, 74, 85
1, 28963, Note_on_c, 0, 69, 100
1, 29075, Note_off_c, 0, 69, 100
1, 29086, Note_on_c, 0, 72, 99
1, 29116, Note_off_c, 0, 72, 99
1, 29120, Note_on_c, 0, 72, 102
1, 29158, Note_off_c, 0, 72, 102
1, 29162, Note_on_c, 0, 73, 90
1, 29208, Note_off_c, 0, 73, 90
1, 29216, Note_on_c, 0, 67, 95
1, 29278, Note_off_c, 0, 67, 95
1, 29289, Note_on_c, 0, 72, 101
1, 29321, Note_off_c, 0, 72, 101
1, 29324, Note_on_c, 0, 72, 101
1, 29357, Note_off_c, 0, 72, 101
1, 29357, Note_on_c, 0, 69, 102
1, 29425, Note_off_c, 0, 69, 102
1, 29429, Note_on_c, 0, 72, 98
1, 29480, Note_off_c, 0, 72, 98
1, 29486, Note_on_c, 0, 72, 94
1, 29528, Note_off_c, 0, 72, 94
1, 29533, Note_on_c, 0, 70, 99
1, 29612, Note_off_c, 0, 70, 99
1, 29617, Note_on_c, 0, 72, 96
1, 29688, Note_off_c, 0, 72, 96
1, 29693, Note_on_c, 0, 72, 96
1, 29743, Note_off_c, 0, 72, 96
1, 29750, Note_on_c, 0, 69, 102
1, 29790, Note_off_c, 0, 69, 102
1, 29800, Note_on_c, 0, 72, 100
1, 29839, Note_off_c, 0, 72, 100
1, 29847, Note_on_c, 0, 72, 101
1, 29902, Note_off_c, 0, 72, 101
1, 29929, Note_on_c, 0, 67, 99
1, 30012, Note_off_c, 0, 67, 99
1, 30019, Note_on_c, 0, 72, 99
1, 30044, Note_off_c, 0, 72, 99
1, 30049, Note_on_c, 0, 72, 103
1, 30082, Note_off_c, 0, 72, 103
1, 30089, Note_on_c, 0, 68, 105
1, 30180, Note_off_c, 0, 68, 105
1, 30193, Note_on_c, 0, 72, 93
1, 30233, Note_off_c, 0, 72, 93
1, 30244, Note_on_c, 0, 72, 100
1, 30288, Note_off_c, 0, 72, 100
1, 30294, Note_on_c, 0, 70, 99
1, 30365, Note_off_c, 0, 70, 99
1, 30372, Note_on_c, 0, 72, 101
1, 30408, Note_off_c, 0, 72, 101
1, 30418, Note_on_c, 0, 72, 98
1, 30468, Note_off_c, 0, 72, 98
1, 30488, Note_on_c, 0, 68, 102
1, 30585, Note_off_c, 0, 68, 102
1, 30592, Note_on_c, 0, 72, 96
1, 30638, Note_off_c, 0, 72, 96
1, 30645, Note_on_c, 0, 72, 96
1, 30686, Note_off_c, 0, 72, 96
1, 30693, Note_on_c, 0, 63, 106
1, 30751, Note_off_c, 0, 63, 106
1, 30764, Note_on_c, 0, 72, 96
1, 30800, Note_off_c, 0, 72, 96
1, 30806, Note_on_c, 0, 72, 99
1, 30868, Note_off_c, 0, 72, 99
1, 30888, Note_on_c, 0, 61, 101
1, 30906, Note_off_c, 0, 61, 101
1, 30909, Note_on_c, 0, 62, 105
1, 30935, Note_off_c, 0, 62, 105
1, 30943, Note_on_c, 0, 72, 87
1, 30990, Note_off_c, 0, 72, 87
1, 30998, Note_on_c, 0, 72, 87
1, 31033, Note_off_c, 0, 72, 87
1, 31039, Note_on_c, 0, 61, 96
1, 31132, Note_off_c, 0, 61, 96
1, 31141, Note_on_c, 0, 72, 84
1, 31182, Note_off_c, 0, 72, 84
1, 31192, Note_on_c, 0, 72, 95
1, 31227, Note_off_c, 0, 72, 95
1, 31234, Note_on_c, 0, 68, 101
1, 31311, Note_off_c, 0, 68, 101
1, 31320, Note_on_c, 0, 72, 91
1, 31369, Note_off_c, 0, 72, 91
1, 31377, Note_on_c, 0, 72, 95
1, 31416, Note_off_c, 0, 72, 95
1, 31423, Note_on_c, 0, 70, 95
1, 31510, Note_off_c, 0, 70, 95
1, 31517, Note_on_c, 0, 72, 95
1, 31574, Note_off_c, 0, 72, 95
1, 31579, Note_on_c, 0, 72, 96
1, 31622, Note_off_c, 0, 72, 96
1, 31627, Note_on_c, 0, 68, 98
1, 31647, Note_off_c, 0, 68, 98
1, 31657, Note_on_c, 0, 69, 96
1, 31707, Note_off_c, 0, 69, 96
1, 31711, Note_on_c, 0, 72, 92
1, 31767, Note_off_c, 0, 72, 92
1, 31804, Note_on_c, 0, 67, 99
1, 31959, Note_off_c, 0, 67, 99
1, 32204, Note_on_c, 0, 69, 98
1, 32278, Note_off_c, 0, 69, 98
1, 32283, Note_on_c, 0, 72, 96
1, 32373, Note_off_c, 0, 72, 96
1, 32375, Note_on_c, 0, 76, 110
1, 32437, Note_off_c, 0, 76, 110
1, 32444, Note_on_c, 0, 77, 93
1, 33122, Note_off_c, 0, 77, 93
1, 33142, Note_on_c, 0, 76, 102
1, 33291, Note_off_c, 0, 76, 102
1, 33323, Note_on_c, 0, 76, 101
1, 33430, Note_off_c, 0, 76, 101
1, 33445, Note_on_c, 0, 72, 93
1, 33529, Note_off_c, 0, 72, 93
1, 33536, Note_on_c, 0, 69, 100
1, 33644, Note_off_c, 0, 69, 100
1, 33732, Note_on_c, 0, 77, 85
1, 33752, Note_off_c, 0, 77, 85
1, 33759, Note_on_c, 0, 79, 103
1, 33817, Note_off_c, 0, 79, 103
1, 33827, Note_on_c, 0, 82, 107
1, 33843, Note_off_c, 0, 82, 107
1, 33852, Note_on_c, 0, 81, 92
1, 34104, Note_off_c, 0, 81, 92
1, 34108, Note_on_c, 0, 79, 105
1, 34191, Note_off_c, 0, 79, 105
1, 34204, Note_on_c, 0, 79, 104
1, 34299, Note_off_c, 0, 79, 104
1, 34310, Note_on_c, 0, 79, 103
1, 34424, Note_off_c, 0, 79, 103
1, 34663, Note_on_c, 0, 75, 105
1, 34695, Note_off_c, 0, 75, 105
1, 34696, Note_on_c, 0, 76, 102
1, 34791, Note_off_c, 0, 76, 102
1, 34801, Note_on_c, 0, 70, 97
1, 34872, Note_off_c, 0, 70, 97
1, 35054, Note_on_c, 0, 67, 101
1, 35124, Note_off_c, 0, 67, 101
1, 35155, Note_on_c, 0, 62, 107
1, 35219, Note_off_c, 0, 62, 107
1, 35410, Note_on_c, 0, 66, 45
1, 35466, Note_off_c, 0, 66, 45
1, 35473, Note_on_c, 0, 62, 93
1, 35511, Note_off_c, 0, 62, 93
1, 35518, Note_on_c, 0, 59, 98
1, 35549, Note_off_c, 0, 59, 98
1, 35558, Note_on_c, 0, 55, 96
1, 35583, Note_off_c, 0, 55, 96
1, 35592, Note_on_c, 0, 65, 97
1, 35636, Note_off_c, 0, 65, 97
1, 35647, Note_on_c, 0, 62, 100
1, 35688, Note_off_c, 0, 62, 100
1, 35697, Note_on_c, 0, 58, 102
1, 35741, Note_off_c, 0, 58, 102
1, 35744, Note_on_c, 0, 55, 99
1, 35772, Note_off_c, 0, 55, 99
1, 35781, Note_on_c, 0, 62, 99
1, 35810, Note_off_c, 0, 62, 99
1, 35818, Note_on_c, 0, 64, 103
1, 35855, Note_off_c, 0, 64, 103
1, 35862, Note_on_c, 0, 65, 102
1, 35913, Note_off_c, 0, 65, 102
1, 35917, Note_on_c, 0, 62, 96
1, 35946, Note_off_c, 0, 62, 96
1, 35959, Note_on_c, 0, 63, 106
1, 36013, Note_off_c, 0, 63, 106
1, 36018, Note_on_c, 0, 62, 107
1, 36057, Note_off_c, 0, 62, 107
1, 36070, Note_on_c, 0, 61, 100
1, 36101, Note_off_c, 0, 61, 100
1, 36106, Note_on_c, 0, 65, 103
1, 36131, Note_off_c, 0, 65, 103
1, 36134, Note_on_c, 0, 63, 103
1, 36181, Note_off_c, 0, 63, 103
1, 36184, Note_on_c, 0, 60, 101
1, 36237, Note_off_c, 0, 60, 101
1, 36241, Note_on_c, 0, 56, 100
1, 36280, Note_off_c, 0, 56, 100
1, 36285, Note_on_c, 0, 53, 95
1, 36316, Note_off_c, 0, 53, 95
1, 36332, Note_on_c, 0, 58, 96
1, 36372, Note_off_c, 0, 58, 96
1, 36375, Note_on_c, 0, 56, 98
1, 36410, Note_off_c, 0, 56, 98
1, 36418, Note_on_c, 0, 53, 99
1, 36462, Note_off_c, 0, 53, 99
1, 36465, Note_on_c, 0, 51, 103
1, 36498, Note_off_c, 0, 51, 103
1, 36509, Note_on_c, 0, 44, 110
1, 36596, Note_off_c, 0, 44, 110
1, 36616, Note_on_c, 0, 51, 102
1, 36664, Note_off_c, 0, 51, 102
1, 36684, Note_on_c, 0, 44, 115
1, 36716, Note_off_c, 0, 44, 115
1, 36725, Note_on_c, 0, 46, 105
1, 36818, Note_off_c, 0, 46, 105
1, 36992, Note_on_c, 0, 68, 108
1, 37066, Note_off_c, 0, 68, 108
1, 37104, Note_on_c, 0, 72, 111
1, 37235, Note_off_c, 0, 72, 111
1, 37386, Note_on_c, 0, 46, 104
1, 37463, Note_off_c, 0, 46, 104
1, 37483, Note_on_c, 0, 53, 104
1, 37584, Note_off_c, 0, 53, 104
1, 37621, Note_on_c, 0, 51, 97
1, 37656, Note_off_c, 0, 51, 97
1, 37664, Note_on_c, 0, 52, 103
1, 37778, Note_off_c, 0, 52, 103
1, 37986, Note_on_c, 0, 60, 92
1, 38038, Note_off_c, 0, 60, 92
1, 38060, Note_on_c, 0, 62, 109
1, 38166, Note_off_c, 0, 62, 109
1, 38182, Note_on_c, 0, 60, 91
1, 38216, Note_off_c, 0, 60, 91
1, 38242, Note_on_c, 0, 64, 112
1, 38336, Note_off_c, 0, 64, 112
1, 38341, Note_on_c, 0, 62, 93
1, 38385, Note_off_c, 0, 62, 93
1, 38417, Note_on_c, 0, 65, 106
1, 38511, Note_off_c, 0, 65, 106
1, 38530, Note_on_c, 0, 62, 91
1, 38582, Note_off_c, 0, 62, 91
1, 38613, Note_on_c, 0, 66, 103
1, 38719, Note_off_c, 0, 66, 103
1, 38727, Note_on_c, 0, 62, 93
1, 38774, Note_off_c, 0, 62, 93
1, 38783, Note_on_c, 0, 65, 100
1, 38835, Note_off_c, 0, 65, 100
1, 38838, Note_on_c, 0, 67, 101
1, 38953, Note_off_c, 0, 67, 101
1, 39204, Time_signature, 3, 2, 24, 8
1, 39204, Note_on_c, 0, 67, 104
1, 39235, Note_off_c, 0, 67, 104
1, 39252, Note_on_c, 0, 69, 100
1, 39375, Note_off_c, 0, 69, 100
1, 39382, Note_on_c, 0, 72, 100
1, 39438, Note_off_c, 0, 72, 100
1, 39460, Note_on_c, 0, 70, 98
1, 39551, Note_off_c, 0, 70, 98
1, 39569, Note_on_c, 0, 67, 98
1, 39622, Note_off_c, 0, 67, 98
1, 39755, Note_on_c, 0, 63, 109
1, 39842, Note_off_c, 0, 63, 109
1, 39852, Note_on_c, 0, 65, 99
1, 39921, Note_off_c, 0, 65, 99
1, 39928, Note_on_c, 0, 67, 101
1, 40035, Note_off_c, 0, 67, 101
1, 40042, Note_on_c, 0, 63, 83
1, 40099, Note_off_c, 0, 63, 83
1, 40125, Note_on_c, 0, 65, 102
1, 40233, Note_off_c, 0, 65, 102
1, 40240, Note_on_c, 0, 60, 82
1, 40330, Note_off_c, 0, 60, 82
1, 40447, Note_on_c, 0, 65, 103
1, 40520, Note_off_c, 0, 65, 103
1, 40524, Note_on_c, 0, 61, 96
1, 40607, Note_off_c, 0, 61, 96
1, 40749, Note_on_c, 0, 67, 101
1, 40815, Note_off_c, 0, 67, 101
1, 40828, Note_on_c, 0, 63, 101
1, 40898, Note_off_c, 0, 63, 101
1, 41024, Note_on_c, 0, 69, 99
1, 41083, Note_off_c, 0, 69, 99
1, 41208, Note_on_c, 0, 67, 104
1, 41245, Note_off_c, 0, 67, 104
1, 41294, Note_on_c, 0, 69, 95
1, 41335, Note_off_c, 0, 69, 95
1, 41353, Note_on_c, 0, 70, 94
1, 41388, Note_off_c, 0, 70, 94
1, 41406, Note_on_c, 0, 74, 97
1, 41443, Note_off_c, 0, 74, 97
1, 41495, Time_signature, 4, 2, 24, 8
1, 41495, Note_on_c, 0, 76, 101
1, 41557, Note_off_c, 0, 76, 101
1, 41567, Note_on_c, 0, 77, 97
1, 41632, Note_off_c, 0, 77, 97
1, 41639, Note_on_c, 0, 78, 106
1, 41690, Note_off_c, 0, 78, 106
1, 41698, Note_on_c, 0, 79, 110
1, 41764, Note_off_c, 0, 79, 110
1, 41772, Note_on_c, 0, 80, 99
1, 41826, Note_off_c, 0, 80, 99
1, 41830, Note_on_c, 0, 81, 99
1, 41889, Note_off_c, 0, 81, 99
1, 41891, Note_on_c, 0, 82, 99
1, 42250, Note_off_c, 0, 82, 99
1, 42269, Note_on_c, 0, 81, 96
1, 42395, Note_off_c, 0, 81, 96
1, 42457, Note_on_c, 0, 82, 96
1, 42630, Note_off_c, 0, 82, 96
1, 42634, Note_on_c, 0, 81, 97
1, 42776, Note_off_c, 0, 81, 97
1, 42824, Note_on_c, 0, 81, 99
1, 42870, Note_off_c, 0, 81, 99
1, 42878, Note_on_c, 0, 82, 98
1, 43004, Note_off_c, 0, 82, 98
1, 43007, Note_on_c, 0, 81, 103
1, 43082, Note_off_c, 0, 81, 103
1, 43103, Note_on_c, 0, 79, 107
1, 43584, Note_off_c, 0, 79, 107
1, 43854, Note_on_c, 0, 76, 76
1, 43887, Note_off_c, 0, 76, 76
1, 43891, Note_on_c, 0, 77, 91
1, 43919, Note_off_c, 0, 77, 91
1, 43927, Note_on_c, 0, 76, 106
1, 44034, Note_off_c, 0, 76, 106
1, 44034, Note_on_c, 0, 76, 80
1, 44034, Note_off_c, 0, 76, 80
1, 44052, Note_on_c, 0, 72, 91
1, 44132, Note_off_c, 0, 72, 91
1, 44136, Note_on_c, 0, 69, 101
1, 44249, Note_off_c, 0, 69, 101
1, 44260, Note_on_c, 0, 65, 95
1, 44303, Note_off_c, 0, 65, 95
1, 44324, Note_on_c, 0, 70, 102
1, 44441, Note_off_c, 0, 70, 102
1, 44460, Note_on_c, 0, 69, 90
1, 44518, Note_off_c, 0, 69, 90
1, 44533, Note_on_c, 0, 70, 99
1, 44805, Note_off_c, 0, 70, 99
1, 45178, Note_on_c, 0, 70, 105
1, 45257, Note_off_c, 0, 70, 105
1, 45262, Note_on_c, 0, 68, 106
1, 45353, Note_off_c, 0, 68, 106
1, 45358, Note_on_c, 0, 65, 104
1, 45454, Note_off_c, 0, 65, 104
1, 45460, Note_on_c, 0, 63, 111
1, 45549, Note_off_c, 0, 63, 111
1, 45553, Note_on_c, 0, 60, 100
1, 45636, Note_off_c, 0, 60, 100
1, 45647, Note_on_c, 0, 59, 92
1, 45750, Note_off_c, 0, 59, 92
1, 45753, Note_on_c, 0, 58, 98
1, 45822, Note_off_c, 0, 58, 98
1, 45836, Note_on_c, 0, 56, 97
1, 45948, Note_off_c, 0, 56, 97
1, 45963, Note_on_c, 0, 53, 92
1, 46030, Note_off_c, 0, 53, 92
1, 46041, Note_on_c, 0, 57, 101
1, 46122, Note_off_c, 0, 57, 101
1, 46128, Note_on_c, 0, 60, 103
1, 46210, Note_off_c, 0, 60, 103
1, 46323, Note_on_c, 0, 65, 104
1, 46395, Note_off_c, 0, 65, 104
1, 46507, Note_on_c, 0, 69, 104
1, 46562, Note_off_c, 0, 69, 104
1, 46716, Note_on_c, 0, 72, 103
1, 46762, Note_off_c, 0, 72, 103
1, 46791, Note_on_c, 0, 70, 104
1, 46876, Note_off_c, 0, 70, 104
1, 46894, Note_on_c, 0, 67, 103
1, 46958, Note_off_c, 0, 67, 103
1, 46976, Note_on_c, 0, 62, 103
1, 47055, Note_off_c, 0, 62, 103
1, 47061, Note_on_c, 0, 58, 95
1, 47133, Note_off_c, 0, 58, 95
1, 47163, Note_on_c, 0, 62, 108
1, 47233, Note_off_c, 0, 62, 108
1, 47244, Note_on_c, 0, 64, 105
1, 47341, Note_off_c, 0, 64, 105
1, 47357, Note_on_c, 0, 65, 99
1, 47446, Note_off_c, 0, 65, 99
1, 47452, Note_on_c, 0, 62, 92
1, 47507, Note_off_c, 0, 62, 92
1, 47522, Note_on_c, 0, 64, 97
1, 47810, Note_off_c, 0, 64, 97
1, 47815, Note_on_c, 0, 62, 93
1, 47903, Note_off_c, 0, 62, 93
1, 47913, Note_on_c, 0, 60, 86
1, 48043, Note_off_c, 0, 60, 86
1, 48043, End_track
0, 0, End_of_file
