0, 0, Header, 1, 1, 20160
1, 0, Start_track
1, 0, Title_t, "Melody"
1, 0, Tempo, 1224489
1, 0, Key_signature, -4, "major"
1, 0, Time_signature, 4, 2, 24, 8
1, 163363, Note_on_c, 0, 53, 84
1, 165647, Note_off_c, 0, 53, 84
1, 165647, Note_on_c, 0, 56, 90
1, 168603, Note_off_c, 0, 56, 90
1, 169275, Note_on_c, 0, 58, 96
1, 172231, Note_off_c, 0, 58, 96
1, 173574, Note_on_c, 0, 60, 99
1, 175724, Note_off_c, 0, 60, 99
1, 176396, Note_on_c, 0, 63, 114
1, 178815, Note_off_c, 0, 63, 114
1, 179352, Note_on_c, 0, 65, 109
1, 182040, Note_off_c, 0, 65, 109
1, 182980, Note_on_c, 0, 68, 110
1, 184996, Note_off_c, 0, 68, 110
1, 185533, Note_on_c, 0, 70, 82
1, 187549, Note_off_c, 0, 70, 82
1, 187683, Note_on_c, 0, 72, 104
1, 218460, Note_off_c, 0, 72, 104
1, 219131, Note_on_c, 0, 70, 104
1, 246548, Note_off_c, 0, 70, 104
1, 269127, Note_on_c, 0, 60, 107
1, 270605, Note_off_c, 0, 60, 107
1, 270873, Note_on_c, 0, 62, 116
1, 275711, Note_off_c, 0, 62, 116
1, 275845, Note_on_c, 0, 65, 114
1, 279608, Note_off_c, 0, 65, 114
1, 282430, Note_on_c, 0, 72, 95
1, 283774, Note_off_c, 0, 72, 95
1, 284311, Note_on_c, 0, 74, 106
1, 286864, Note_off_c, 0, 74, 106
1, 287132, Note_on_c, 0, 72, 111
1, 289954, Note_off_c, 0, 72, 111
1, 290760, Note_on_c, 0, 70, 110
1, 308769, Note_off_c, 0, 70, 110
1, 325228, Note_on_c, 0, 67, 94
1, 326840, Note_off_c, 0, 67, 94
1, 327046, Note_on_c, 0, 68, 111
1, 329330, Note_off_c, 0, 68, 111
1, 329598, Note_on_c, 0, 67, 110
1, 338333, Note_on_c, 0, 63, 115
1, 338333, Note_off_c, 0, 67, 110
1, 344380, Note_off_c, 0, 63, 115
1, 344783, Note_on_c, 0, 60, 112
1, 348277, Note_off_c, 0, 60, 112
1, 349217, Note_on_c, 0, 56, 100
1, 351636, Note_off_c, 0, 56, 100
1, 352173, Note_on_c, 0, 58, 100
1, 371929, Note_off_c, 0, 58, 100
1, 415346, Note_on_c, 0, 51, 92
1, 416301, Note_off_c, 0, 51, 92
1, 416492, Note_on_c, 0, 53, 97
1, 418403, Note_off_c, 0, 53, 97
1, 418594, Note_on_c, 0, 55, 101
1, 420505, Note_off_c, 0, 55, 101
1, 420887, Note_on_c, 0, 56, 98
1, 422607, Note_off_c, 0, 56, 98
1, 422989, Note_on_c, 0, 58, 101
1, 425378, Note_off_c, 0, 58, 101
1, 426047, Note_on_c, 0, 60, 114
1, 428531, Note_off_c, 0, 60, 114
1, 428817, Note_on_c, 0, 62, 119
1, 430919, Note_off_c, 0, 62, 119
1, 431396, Note_on_c, 0, 64, 122
1, 433307, Note_off_c, 0, 64, 122
1, 433307, Note_on_c, 0, 65, 113
1, 435314, Note_off_c, 0, 65, 113
1, 435409, Note_on_c, 0, 67, 110
1, 438180, Note_off_c, 0, 67, 110
1, 438180, Note_on_c, 0, 68, 113
1, 440282, Note_off_c, 0, 68, 113
1, 440282, Note_on_c, 0, 70, 113
1, 442575, Note_off_c, 0, 70, 113
1, 443017, Note_on_c, 0, 72, 112
1, 445436, Note_off_c, 0, 72, 112
1, 445728, Note_on_c, 0, 70, 108
1, 448212, Note_off_c, 0, 70, 108
1, 448307, Note_on_c, 0, 68, 110
1, 450696, Note_off_c, 0, 68, 110
1, 451173, Note_on_c, 0, 67, 107
1, 461208, Note_off_c, 0, 67, 107
1, 461494, Note_on_c, 0, 65, 106
1, 464552, Note_off_c, 0, 65, 106
1, 465412, Note_on_c, 0, 64, 115
1, 467419, Note_off_c, 0, 64, 115
1, 467419, Note_on_c, 0, 67, 100
1, 469712, Note_off_c, 0, 67, 100
1, 470189, Note_on_c, 0, 60, 87
1, 494464, Note_off_c, 0, 60, 87
1, 500102, Note_on_c, 0, 63, 123
1, 502969, Note_off_c, 0, 63, 123
1, 505167, Note_on_c, 0, 61, 118
1, 507651, Note_off_c, 0, 61, 118
1, 507651, Note_on_c, 0, 60, 116
1, 511569, Note_off_c, 0, 60, 116
1, 511569, Note_on_c, 0, 61, 118
1, 515391, Note_off_c, 0, 61, 118
1, 515391, Note_on_c, 0, 60, 110
1, 517971, Note_off_c, 0, 60, 110
1, 518066, Note_on_c, 0, 61, 118
1, 528674, Note_off_c, 0, 61, 118
1, 561933, Note_on_c, 0, 68, 111
1, 563557, Note_off_c, 0, 68, 111
1, 563843, Note_on_c, 0, 67, 112
1, 566519, Note_off_c, 0, 67, 112
1, 566805, Note_on_c, 0, 68, 111
1, 569863, Note_off_c, 0, 68, 111
1, 570149, Note_on_c, 0, 67, 110
1, 572825, Note_off_c, 0, 67, 110
1, 573207, Note_on_c, 0, 68, 113
1, 578463, Note_off_c, 0, 68, 113
1, 578940, Note_on_c, 0, 61, 101
1, 581807, Note_off_c, 0, 61, 101
1, 596907, Note_on_c, 0, 54, 100
1, 599774, Note_off_c, 0, 54, 100
1, 599965, Note_on_c, 0, 57, 97
1, 602067, Note_off_c, 0, 57, 97
1, 602353, Note_on_c, 0, 62, 121
1, 604837, Note_off_c, 0, 62, 121
1, 604932, Note_on_c, 0, 63, 123
1, 607512, Note_off_c, 0, 63, 123
1, 607798, Note_on_c, 0, 66, 114
1, 610569, Note_off_c, 0, 66, 114
1, 610855, Note_on_c, 0, 69, 117
1, 612862, Note_off_c, 0, 69, 117
1, 614869, Note_on_c, 0, 74, 106
1, 617545, Note_off_c, 0, 74, 106
1, 617736, Note_on_c, 0, 72, 113
1, 619743, Note_off_c, 0, 72, 113
1, 620220, Note_on_c, 0, 71, 111
1, 629108, Note_off_c, 0, 71, 111
1, 631210, Note_on_c, 0, 69, 116
1, 633408, Note_off_c, 0, 69, 116
1, 634937, Note_on_c, 0, 68, 113
1, 642965, Note_off_c, 0, 68, 113
1, 644685, Note_on_c, 0, 66, 106
1, 646405, Note_off_c, 0, 66, 106
1, 648603, Note_on_c, 0, 64, 126
1, 656631, Note_off_c, 0, 64, 126
1, 659211, Note_on_c, 0, 63, 108
1, 661218, Note_off_c, 0, 63, 108
1, 664085, Note_on_c, 0, 61, 109
1, 669723, Note_off_c, 0, 61, 109
1, 687212, Note_on_c, 0, 51, 103
1, 688932, Note_off_c, 0, 51, 103
1, 689314, Note_on_c, 0, 54, 98
1, 691703, Note_off_c, 0, 54, 98
1, 692849, Note_on_c, 0, 59, 115
1, 694664, Note_off_c, 0, 59, 115
1, 694664, Note_on_c, 0, 62, 122
1, 696097, Note_off_c, 0, 62, 122
1, 696192, Note_on_c, 0, 63, 120
1, 705940, Note_off_c, 0, 63, 120
1, 706131, Note_on_c, 0, 59, 98
1, 708329, Note_off_c, 0, 59, 98
1, 708329, Note_on_c, 0, 63, 110
1, 711100, Note_off_c, 0, 63, 110
1, 713202, Note_on_c, 0, 66, 108
1, 730596, Note_off_c, 0, 66, 108
1, 730596, Note_on_c, 0, 62, 105
1, 732220, Note_off_c, 0, 62, 105
1, 732220, Note_on_c, 0, 57, 99
1, 733940, Note_off_c, 0, 57, 99
1, 736138, Note_on_c, 0, 66, 105
1, 748658, Note_off_c, 0, 66, 105
1, 749007, Note_on_c, 0, 63, 112
1, 750345, Note_off_c, 0, 63, 112
1, 750473, Note_on_c, 0, 66, 107
1, 752193, Note_off_c, 0, 66, 107
1, 753722, Note_on_c, 0, 68, 104
1, 769587, Note_off_c, 0, 68, 104
1, 791282, Note_on_c, 0, 73, 108
1, 793671, Note_off_c, 0, 73, 108
1, 793671, Note_on_c, 0, 72, 113
1, 795104, Note_off_c, 0, 72, 113
1, 795104, Note_on_c, 0, 71, 114
1, 796346, Note_off_c, 0, 71, 114
1, 796632, Note_on_c, 0, 70, 113
1, 817753, Note_off_c, 0, 70, 113
1, 818422, Note_on_c, 0, 68, 111
1, 821289, Note_off_c, 0, 68, 111
1, 821671, Note_on_c, 0, 67, 121
1, 823773, Note_on_c, 0, 70, 117
1, 823773, Note_off_c, 0, 67, 121
1, 826640, Note_off_c, 0, 70, 117
1, 826640, Note_on_c, 0, 67, 110
1, 829411, Note_off_c, 0, 67, 110
1, 829411, Note_on_c, 0, 63, 121
1, 831991, Note_off_c, 0, 63, 121
1, 832086, Note_on_c, 0, 65, 112
1, 834093, Note_off_c, 0, 65, 112
1, 834188, Note_on_c, 0, 67, 103
1, 856361, Note_off_c, 0, 67, 103
1, 856456, Note_on_c, 0, 70, 113
1, 858463, Note_off_c, 0, 70, 113
1, 858463, Note_on_c, 0, 67, 109
1, 874137, Note_off_c, 0, 67, 109
1, 874528, Note_on_c, 0, 67, 102
1, 875401, Note_off_c, 0, 67, 102
1, 875737, Note_on_c, 0, 68, 111
1, 877215, Note_off_c, 0, 68, 111
1, 877349, Note_on_c, 0, 67, 116
1, 878491, Note_off_c, 0, 67, 116
1, 878894, Note_on_c, 0, 70, 111
1, 880036, Note_off_c, 0, 70, 111
1, 880237, Note_on_c, 0, 67, 116
1, 881379, Note_off_c, 0, 67, 116
1, 882051, Note_on_c, 0, 69, 111
1, 883193, Note_off_c, 0, 69, 111
1, 883394, Note_on_c, 0, 67, 104
1, 884805, Note_off_c, 0, 67, 104
1, 885006, Note_on_c, 0, 68, 106
1, 886081, Note_off_c, 0, 68, 106
1, 886081, Note_on_c, 0, 71, 102
1, 888029, Note_off_c, 0, 71, 102
1, 888029, Note_on_c, 0, 70, 107
1, 898243, Note_off_c, 0, 70, 107
1, 904223, Note_on_c, 0, 67, 109
1, 906440, Note_off_c, 0, 67, 109
1, 906977, Note_on_c, 0, 63, 119
1, 909261, Note_off_c, 0, 63, 119
1, 909393, Note_on_c, 0, 58, 104
1, 910253, Note_off_c, 0, 58, 104
1, 910444, Note_on_c, 0, 59, 109
1, 911208, Note_off_c, 0, 59, 109
1, 911611, Note_on_c, 0, 58, 104
1, 914702, Note_off_c, 0, 58, 104
1, 914769, Note_on_c, 0, 59, 102
1, 916314, Note_off_c, 0, 59, 102
1, 916515, Note_on_c, 0, 58, 101
1, 925855, Note_off_c, 0, 58, 101
1, 926056, Note_on_c, 0, 53, 107
1, 927736, Note_off_c, 0, 53, 107
1, 928408, Note_on_c, 0, 48, 106
1, 930692, Note_off_c, 0, 48, 106
1, 952464, Note_on_c, 0, 32, 124
1, 954614, Note_off_c, 0, 32, 124
1, 955756, Note_on_c, 0, 56, 107
1, 957637, Note_off_c, 0, 56, 107
1, 957771, Note_on_c, 0, 53, 107
1, 960123, Note_off_c, 0, 53, 107
1, 960230, Note_on_c, 0, 49, 109
1, 962716, Note_off_c, 0, 49, 109
1, 962742, Note_on_c, 0, 53, 110
1, 964959, Note_off_c, 0, 53, 110
1, 964959, Note_on_c, 0, 56, 104
1, 967512, Note_off_c, 0, 56, 104
1, 967780, Note_on_c, 0, 63, 119
1, 969997, Note_off_c, 0, 63, 119
1, 969997, Note_on_c, 0, 59, 99
1, 972617, Note_off_c, 0, 59, 99
1, 972952, Note_on_c, 0, 63, 100
1, 974564, Note_off_c, 0, 63, 100
1, 975034, Note_on_c, 0, 65, 113
1, 976982, Note_off_c, 0, 65, 113
1, 976982, Note_on_c, 0, 67, 108
1, 978930, Note_off_c, 0, 67, 108
1, 979467, Note_on_c, 0, 68, 111
1, 981348, Note_off_c, 0, 68, 111
1, 981818, Note_on_c, 0, 70, 114
1, 983699, Note_off_c, 0, 70, 114
1, 983900, Note_on_c, 0, 72, 107
1, 986117, Note_off_c, 0, 72, 107
1, 986587, Note_on_c, 0, 73, 108
1, 988401, Note_off_c, 0, 73, 108
1, 988871, Note_on_c, 0, 75, 108
1, 991559, Note_off_c, 0, 75, 108
1, 992298, Note_on_c, 0, 72, 95
1, 993440, Note_off_c, 0, 72, 95
1, 993977, Note_on_c, 0, 73, 104
1, 996127, Note_off_c, 0, 73, 104
1, 996328, Note_on_c, 0, 72, 104
1, 997604, Note_off_c, 0, 72, 104
1, 997671, Note_on_c, 0, 71, 108
1, 998880, Note_off_c, 0, 71, 108
1, 999484, Note_on_c, 0, 70, 111
1, 1020584, Note_off_c, 0, 70, 111
1, 1026564, Note_on_c, 0, 70, 112
1, 1028176, Note_off_c, 0, 70, 112
1, 1028176, Note_on_c, 0, 66, 105
1, 1029990, Note_off_c, 0, 66, 105
1, 1030393, Note_on_c, 0, 62, 118
1, 1032073, Note_off_c, 0, 62, 118
1, 1032274, Note_on_c, 0, 66, 104
1, 1034088, Note_off_c, 0, 66, 104
1, 1034222, Note_on_c, 0, 64, 121
1, 1040202, Note_off_c, 0, 64, 121
1, 1040269, Note_on_c, 0, 62, 113
1, 1042016, Note_off_c, 0, 62, 113
1, 1042150, Note_on_c, 0, 59, 62
1, 1043561, Note_off_c, 0, 59, 62
1, 1043561, Note_on_c, 0, 56, 105
1, 1044837, Note_off_c, 0, 56, 105
1, 1045374, Note_on_c, 0, 54, 105
1, 1046718, Note_off_c, 0, 54, 105
1, 1046986, Note_on_c, 0, 56, 110
1, 1048330, Note_off_c, 0, 56, 110
1, 1048598, Note_on_c, 0, 59, 106
1, 1049807, Note_off_c, 0, 59, 106
1, 1049807, Note_on_c, 0, 62, 114
1, 1051285, Note_off_c, 0, 62, 114
1, 1051352, Note_on_c, 0, 58, 107
1, 1052897, Note_off_c, 0, 58, 107
1, 1053031, Note_on_c, 0, 61, 116
1, 1054106, Note_off_c, 0, 61, 116
1, 1054173, Note_on_c, 0, 62, 112
1, 1055487, Note_off_c, 0, 62, 112
1, 1055487, Note_on_c, 0, 65, 106
1, 1056920, Note_off_c, 0, 65, 106
1, 1057015, Note_on_c, 0, 68, 107
1, 1058270, Note_off_c, 0, 68, 107
1, 1058270, Note_on_c, 0, 73, 106
1, 1060487, Note_off_c, 0, 73, 106
1, 1060645, Note_on_c, 0, 71, 109
1, 1062652, Note_off_c, 0, 71, 109
1, 1063034, Note_on_c, 0, 70, 111
1, 1068768, Note_off_c, 0, 70, 111
1, 1068768, Note_on_c, 0, 68, 109
1, 1071826, Note_off_c, 0, 68, 109
1, 1072399, Note_on_c, 0, 70, 109
1, 1074119, Note_off_c, 0, 70, 109
1, 1074596, Note_on_c, 0, 63, 101
1, 1076794, Note_off_c, 0, 63, 101
1, 1076794, Note_on_c, 0, 66, 101
1, 1087020, Note_off_c, 0, 66, 101
1, 1099014, Note_on_c, 0, 46, 114
1, 1101068, Note_off_c, 0, 46, 114
1, 1101068, Note_on_c, 0, 51, 115
1, 1102692, Note_off_c, 0, 51, 115
1, 1102787, Note_on_c, 0, 50, 111
1, 1104220, Note_off_c, 0, 50, 111
1, 1104220, Note_on_c, 0, 54, 105
1, 1105940, Note_off_c, 0, 54, 105
1, 1105940, Note_on_c, 0, 57, 105
1, 1107086, Note_off_c, 0, 57, 105
1, 1107372, Note_on_c, 0, 58, 103
1, 1108423, Note_off_c, 0, 58, 103
1, 1108423, Note_on_c, 0, 60, 114
1, 1109856, Note_off_c, 0, 60, 114
1, 1109856, Note_on_c, 0, 62, 121
1, 1111385, Note_off_c, 0, 62, 121
1, 1111385, Note_on_c, 0, 64, 123
1, 1113296, Note_off_c, 0, 64, 123
1, 1113487, Note_on_c, 0, 62, 117
1, 1123522, Note_off_c, 0, 62, 117
1, 1123522, Note_on_c, 0, 60, 111
1, 1125146, Note_off_c, 0, 60, 111
1, 1125337, Note_on_c, 0, 58, 105
1, 1126770, Note_off_c, 0, 58, 105
1, 1126770, Note_on_c, 0, 54, 105
1, 1128585, Note_off_c, 0, 54, 105
1, 1128752, Note_on_c, 0, 50, 112
1, 1131069, Note_off_c, 0, 50, 112
1, 1131069, Note_on_c, 0, 51, 114
1, 1131738, Note_off_c, 0, 51, 114
1, 1131761, Note_on_c, 0, 54, 109
1, 1132262, Note_off_c, 0, 54, 109
1, 1132375, Note_on_c, 0, 55, 102
1, 1133248, Note_off_c, 0, 55, 102
1, 1133583, Note_on_c, 0, 57, 106
1, 1134322, Note_off_c, 0, 57, 106
1, 1134362, Note_on_c, 0, 58, 106
1, 1135222, Note_off_c, 0, 58, 106
1, 1135463, Note_on_c, 0, 60, 118
1, 1136403, Note_off_c, 0, 60, 118
1, 1136534, Note_on_c, 0, 62, 116
1, 1137011, Note_off_c, 0, 62, 116
1, 1137130, Note_on_c, 0, 63, 113
1, 1137512, Note_off_c, 0, 63, 113
1, 1137631, Note_on_c, 0, 66, 107
1, 1138300, Note_off_c, 0, 66, 107
1, 1138371, Note_on_c, 0, 67, 108
1, 1139517, Note_off_c, 0, 67, 108
1, 1139612, Note_on_c, 0, 70, 111
1, 1140089, Note_off_c, 0, 70, 111
1, 1140160, Note_on_c, 0, 72, 106
1, 1140733, Note_off_c, 0, 72, 106
1, 1140831, Note_on_c, 0, 74, 103
1, 1142779, Note_off_c, 0, 74, 103
1, 1142779, Note_on_c, 0, 72, 104
1, 1143518, Note_off_c, 0, 72, 104
1, 1143585, Note_on_c, 0, 70, 109
1, 1145197, Note_off_c, 0, 70, 109
1, 1145331, Note_on_c, 0, 69, 114
1, 1147683, Note_off_c, 0, 69, 114
1, 1148019, Note_on_c, 0, 70, 109
1, 1149833, Note_off_c, 0, 70, 109
1, 1150975, Note_on_c, 0, 72, 108
1, 1153595, Note_off_c, 0, 72, 108
1, 1155006, Note_on_c, 0, 74, 101
1, 1162129, Note_off_c, 0, 74, 101
1, 1164884, Note_on_c, 0, 70, 105
1, 1167236, Note_off_c, 0, 70, 105
1, 1167773, Note_on_c, 0, 67, 104
1, 1170057, Note_off_c, 0, 67, 104
1, 1170997, Note_on_c, 0, 62, 113
1, 1173013, Note_off_c, 0, 62, 113
1, 1173416, Note_on_c, 0, 60, 108
1, 1176238, Note_off_c, 0, 60, 108
1, 1177178, Note_on_c, 0, 58, 93
1, 1179395, Note_off_c, 0, 58, 93
1, 1180410, Note_on_c, 0, 55, 96
1, 1183659, Note_off_c, 0, 55, 96
1, 1201099, Note_on_c, 0, 54, 104
1, 1203451, Note_off_c, 0, 54, 104
1, 1203719, Note_on_c, 0, 57, 107
1, 1206071, Note_off_c, 0, 57, 107
1, 1206205, Note_on_c, 0, 63, 121
1, 1209027, Note_off_c, 0, 63, 121
1, 1209228, Note_on_c, 0, 66, 111
1, 1211848, Note_off_c, 0, 66, 111
1, 1213393, Note_on_c, 0, 68, 110
1, 1215341, Note_off_c, 0, 68, 110
1, 1216080, Note_on_c, 0, 72, 108
1, 1218028, Note_off_c, 0, 72, 108
1, 1218700, Note_on_c, 0, 70, 110
1, 1220783, Note_off_c, 0, 70, 110
1, 1221320, Note_on_c, 0, 65, 111
1, 1224344, Note_off_c, 0, 65, 111
1, 1225956, Note_on_c, 0, 68, 112
1, 1228778, Note_off_c, 0, 68, 112
1, 1229181, Note_on_c, 0, 63, 120
1, 1231801, Note_off_c, 0, 63, 120
1, 1231801, Note_on_c, 0, 60, 114
1, 1234757, Note_off_c, 0, 60, 114
1, 1234876, Note_on_c, 0, 56, 106
1, 1236166, Note_off_c, 0, 56, 106
1, 1236301, Note_on_c, 0, 62, 124
1, 1238989, Note_off_c, 0, 62, 124
1, 1239661, Note_on_c, 0, 67, 110
1, 1241677, Note_off_c, 0, 67, 110
1, 1242953, Note_on_c, 0, 69, 118
1, 1244834, Note_off_c, 0, 69, 118
1, 1245434, Note_on_c, 0, 70, 112
1, 1248540, Note_off_c, 0, 70, 112
1, 1248798, Note_on_c, 0, 72, 112
1, 1250410, Note_off_c, 0, 72, 112
1, 1250813, Note_on_c, 0, 74, 107
1, 1253501, Note_off_c, 0, 74, 107
1, 1253501, Note_on_c, 0, 72, 105
1, 1255785, Note_off_c, 0, 72, 105
1, 1256389, Note_on_c, 0, 70, 113
1, 1258069, Note_off_c, 0, 70, 113
1, 1258808, Note_on_c, 0, 69, 116
1, 1260689, Note_off_c, 0, 69, 116
1, 1261159, Note_on_c, 0, 67, 106
1, 1263242, Note_off_c, 0, 67, 106
1, 1263779, Note_on_c, 0, 62, 117
1, 1266601, Note_off_c, 0, 62, 117
1, 1267004, Note_on_c, 0, 60, 115
1, 1269759, Note_off_c, 0, 60, 115
1, 1269893, Note_on_c, 0, 58, 106
1, 1274731, Note_off_c, 0, 58, 106
1, 1284743, Note_on_c, 0, 67, 111
1, 1287095, Note_off_c, 0, 67, 111
1, 1288371, Note_on_c, 0, 70, 117
1, 1290521, Note_off_c, 0, 70, 117
1, 1291058, Note_on_c, 0, 69, 119
1, 1293208, Note_off_c, 0, 69, 119
1, 1293745, Note_on_c, 0, 68, 112
1, 1296097, Note_off_c, 0, 68, 112
1, 1296634, Note_on_c, 0, 71, 109
1, 1298985, Note_off_c, 0, 71, 109
1, 1300060, Note_on_c, 0, 67, 113
1, 1302076, Note_off_c, 0, 67, 113
1, 1302479, Note_on_c, 0, 68, 112
1, 1304965, Note_off_c, 0, 68, 112
1, 1305300, Note_on_c, 0, 71, 108
1, 1307450, Note_off_c, 0, 71, 108
1, 1307920, Note_on_c, 0, 75, 113
1, 1310003, Note_off_c, 0, 75, 113
1, 1310887, Note_on_c, 0, 77, 117
1, 1311827, Note_off_c, 0, 77, 117
1, 1311913, Note_on_c, 0, 78, 127
1, 1312853, Note_off_c, 0, 78, 127
1, 1312957, Note_on_c, 0, 79, 117
1, 1328816, Note_off_c, 0, 79, 117
1, 1336678, Note_on_c, 0, 77, 108
1, 1338828, Note_off_c, 0, 77, 108
1, 1339096, Note_on_c, 0, 76, 118
1, 1340910, Note_off_c, 0, 76, 118
1, 1341783, Note_on_c, 0, 77, 106
1, 1352535, Note_off_c, 0, 77, 106
1, 1360330, Note_on_c, 0, 75, 110
1, 1362480, Note_off_c, 0, 75, 110
1, 1363555, Note_on_c, 0, 74, 110
1, 1366041, Note_off_c, 0, 74, 110
1, 1367989, Note_on_c, 0, 75, 103
1, 1374843, Note_off_c, 0, 75, 103
1, 1375649, Note_on_c, 0, 74, 108
1, 1377799, Note_off_c, 0, 74, 108
1, 1378403, Note_on_c, 0, 73, 104
1, 1380015, Note_off_c, 0, 73, 104
1, 1380687, Note_on_c, 0, 74, 109
1, 1389087, Note_off_c, 0, 74, 109
1, 1394194, Note_on_c, 0, 72, 106
1, 1396075, Note_off_c, 0, 72, 106
1, 1396814, Note_on_c, 0, 67, 105
1, 1398628, Note_off_c, 0, 67, 105
1, 1401181, Note_on_c, 0, 65, 108
1, 1411059, Note_off_c, 0, 65, 108
1, 1411260, Note_on_c, 0, 63, 118
1, 1414754, Note_off_c, 0, 63, 118
1, 1415597, Note_on_c, 0, 65, 92
1, 1417844, Note_off_c, 0, 65, 92
1, 1417844, Note_on_c, 0, 67, 106
1, 1423757, Note_on_c, 0, 65, 108
1, 1423757, Note_off_c, 0, 67, 106
1, 1431888, Note_off_c, 0, 65, 108
1, 1431888, Note_on_c, 0, 63, 109
1, 1439279, Note_off_c, 0, 63, 109
1, 1455162, Note_on_c, 0, 47, 111
1, 1457646, Note_off_c, 0, 47, 111
1, 1457765, Note_on_c, 0, 51, 113
1, 1459512, Note_off_c, 0, 51, 113
1, 1459580, Note_on_c, 0, 56, 110
1, 1462393, Note_off_c, 0, 56, 110
1, 1462393, Note_on_c, 0, 49, 116
1, 1464946, Note_off_c, 0, 49, 116
1, 1465147, Note_on_c, 0, 53, 103
1, 1466625, Note_off_c, 0, 53, 103
1, 1466692, Note_on_c, 0, 56, 110
1, 1469178, Note_on_c, 0, 63, 119
1, 1469178, Note_off_c, 0, 56, 110
1, 1471597, Note_off_c, 0, 63, 119
1, 1472201, Note_on_c, 0, 58, 102
1, 1474149, Note_off_c, 0, 58, 102
1, 1474485, Note_on_c, 0, 61, 118
1, 1476501, Note_off_c, 0, 61, 118
1, 1476837, Note_on_c, 0, 60, 117
1, 1479256, Note_off_c, 0, 60, 117
1, 1479323, Note_on_c, 0, 58, 108
1, 1481809, Note_off_c, 0, 58, 108
1, 1482145, Note_on_c, 0, 66, 108
1, 1484429, Note_off_c, 0, 66, 108
1, 1484630, Note_on_c, 0, 63, 108
1, 1486511, Note_off_c, 0, 63, 108
1, 1486511, Note_on_c, 0, 66, 108
1, 1488527, Note_off_c, 0, 66, 108
1, 1489131, Note_on_c, 0, 70, 112
1, 1491348, Note_off_c, 0, 70, 112
1, 1492066, Note_on_c, 0, 72, 110
1, 1493410, Note_off_c, 0, 72, 110
1, 1493430, Note_on_c, 0, 73, 110
1, 1495446, Note_off_c, 0, 73, 110
1, 1495782, Note_on_c, 0, 72, 111
1, 1497126, Note_off_c, 0, 72, 111
1, 1497193, Note_on_c, 0, 71, 111
1, 1498805, Note_off_c, 0, 71, 111
1, 1499141, Note_on_c, 0, 70, 110
1, 1510833, Note_off_c, 0, 70, 110
1, 1521428, Note_on_c, 0, 46, 115
1, 1522646, Note_off_c, 0, 46, 115
1, 1522646, Note_on_c, 0, 52, 117
1, 1523788, Note_off_c, 0, 52, 117
1, 1524055, Note_on_c, 0, 50, 111
1, 1525533, Note_off_c, 0, 50, 111
1, 1525774, Note_on_c, 0, 54, 111
1, 1526275, Note_off_c, 0, 54, 111
1, 1526442, Note_on_c, 0, 57, 108
1, 1527114, Note_off_c, 0, 57, 108
1, 1527469, Note_on_c, 0, 59, 105
1, 1528141, Note_off_c, 0, 59, 105
1, 1528771, Note_on_c, 0, 64, 118
1, 1530182, Note_off_c, 0, 64, 118
1, 1530192, Note_on_c, 0, 62, 119
1, 1531195, Note_off_c, 0, 62, 119
1, 1531242, Note_on_c, 0, 59, 108
1, 1532115, Note_off_c, 0, 59, 108
1, 1532330, Note_on_c, 0, 56, 113
1, 1533203, Note_off_c, 0, 56, 113
1, 1533606, Note_on_c, 0, 54, 111
1, 1534815, Note_off_c, 0, 54, 111
1, 1534919, Note_on_c, 0, 56, 103
1, 1535707, Note_off_c, 0, 56, 103
1, 1535945, Note_on_c, 0, 58, 108
1, 1536590, Note_off_c, 0, 58, 108
1, 1536685, Note_on_c, 0, 61, 111
1, 1538096, Note_off_c, 0, 61, 111
1, 1538172, Note_on_c, 0, 58, 106
1, 1538911, Note_off_c, 0, 58, 106
1, 1539073, Note_on_c, 0, 54, 106
1, 1539946, Note_off_c, 0, 54, 106
1, 1540553, Note_on_c, 0, 55, 112
1, 1541157, Note_off_c, 0, 55, 112
1, 1541394, Note_on_c, 0, 58, 107
1, 1542402, Note_off_c, 0, 58, 107
1, 1542582, Note_on_c, 0, 59, 117
1, 1543035, Note_off_c, 0, 59, 117
1, 1543202, Note_on_c, 0, 61, 119
1, 1543918, Note_off_c, 0, 61, 119
1, 1544204, Note_on_c, 0, 64, 104
1, 1545135, Note_off_c, 0, 64, 104
1, 1545152, Note_on_c, 0, 65, 109
1, 1546294, Note_off_c, 0, 65, 109
1, 1546543, Note_on_c, 0, 70, 108
1, 1547215, Note_off_c, 0, 70, 108
1, 1547704, Note_on_c, 0, 71, 111
1, 1548308, Note_off_c, 0, 71, 111
1, 1548509, Note_on_c, 0, 73, 107
1, 1551667, Note_off_c, 0, 73, 107
1, 1551667, Note_on_c, 0, 71, 108
1, 1552473, Note_off_c, 0, 71, 108
1, 1553010, Note_on_c, 0, 70, 112
1, 1554622, Note_off_c, 0, 70, 112
1, 1554823, Note_on_c, 0, 74, 103
1, 1558048, Note_off_c, 0, 74, 103
1, 1558451, Note_on_c, 0, 71, 105
1, 1559727, Note_off_c, 0, 71, 105
1, 1560466, Note_on_c, 0, 70, 111
1, 1562750, Note_off_c, 0, 70, 111
1, 1562884, Time_signature, 5, 2, 24, 8
1, 1562884, Note_on_c, 0, 75, 103
1, 1565908, Note_off_c, 0, 75, 103
1, 1566223, Note_on_c, 0, 74, 107
1, 1567441, Note_off_c, 0, 74, 107
1, 1567512, Note_on_c, 0, 72, 105
1, 1567942, Note_off_c, 0, 72, 105
1, 1567965, Note_on_c, 0, 71, 99
1, 1568681, Note_off_c, 0, 71, 99
1, 1568794, Note_on_c, 0, 70, 105
1, 1583040, Note_off_c, 0, 70, 105
1, 1588483, Note_on_c, 0, 70, 111
1, 1591238, Note_on_c, 0, 66, 106
1, 1591238, Note_off_c, 0, 70, 111
1, 1593388, Note_off_c, 0, 66, 106
1, 1593589, Note_on_c, 0, 65, 111
1, 1596075, Note_off_c, 0, 65, 111
1, 1596142, Note_on_c, 0, 63, 118
1, 1598830, Note_off_c, 0, 63, 118
1, 1599031, Note_on_c, 0, 62, 117
1, 1601517, Note_off_c, 0, 62, 117
1, 1601517, Note_on_c, 0, 66, 103
1, 1603264, Note_off_c, 0, 66, 103
1, 1603936, Note_on_c, 0, 70, 104
1, 1605750, Note_off_c, 0, 70, 104
1, 1606421, Note_on_c, 0, 72, 105
1, 1608437, Note_off_c, 0, 72, 105
1, 1608705, Note_on_c, 0, 73, 102
1, 1610586, Note_off_c, 0, 73, 102
1, 1610586, Note_on_c, 0, 74, 98
1, 1613744, Note_off_c, 0, 74, 98
1, 1615759, Note_on_c, 0, 70, 111
1, 1622613, Note_off_c, 0, 70, 111
1, 1623217, Note_on_c, 0, 75, 123
1, 1624628, Note_off_c, 0, 75, 123
1, 1625972, Note_on_c, 0, 77, 93
1, 1657152, Note_off_c, 0, 77, 93
1, 1657152, End_track
0, 0, End_of_file
