0, 0, Header, 1, 1, 192
1, 0, Start_track
1, 0, Title_t, "Melody"
1, 0, Tempo, 211267
1, 0, Key_signature, -2, "major"
1, 0, Time_signature, 4, 2, 24, 8
1, 3614, Note_on_c, 0, 57, 107
1, 3732, Note_off_c, 0, 57, 107
1, 3732, Note_on_c, 0, 55, 102
1, 3824, Note_on_c, 0, 53, 103
1, 3824, Note_off_c, 0, 55, 102
1, 3931, Note_off_c, 0, 53, 103
1, 3934, Note_on_c, 0, 52, 106
1, 4023, Note_off_c, 0, 52, 106
1, 4034, Note_on_c, 0, 51, 105
1, 4123, Note_off_c, 0, 51, 105
1, 4145, Note_on_c, 0, 53, 109
1, 4215, Note_off_c, 0, 53, 109
1, 4226, Note_on_c, 0, 55, 97
1, 4300, Note_off_c, 0, 55, 97
1, 4307, Note_on_c, 0, 58, 97
1, 4351, Note_off_c, 0, 58, 97
1, 4369, Note_on_c, 0, 62, 110
1, 4417, Note_off_c, 0, 62, 110
1, 4424, Note_on_c, 0, 65, 115
1, 4501, Note_off_c, 0, 65, 115
1, 4523, Note_on_c, 0, 61, 113
1, 4608, Note_off_c, 0, 61, 113
1, 4608, Note_on_c, 0, 57, 104
1, 4685, Note_off_c, 0, 57, 104
1, 4692, Note_on_c, 0, 56, 105
1, 4781, Note_on_c, 0, 58, 108
1, 4781, Note_off_c, 0, 56, 105
1, 5200, Note_off_c, 0, 58, 108
1, 5214, Note_on_c, 0, 57, 112
1, 5299, Note_off_c, 0, 57, 112
1, 5302, Note_on_c, 0, 59, 112
1, 5602, Note_off_c, 0, 59, 112
1, 5627, Note_on_c, 0, 58, 96
1, 5741, Note_off_c, 0, 58, 96
1, 6813, Note_on_c, 0, 59, 97
1, 6942, Note_off_c, 0, 59, 97
1, 6945, Note_on_c, 0, 61, 113
1, 7045, Note_off_c, 0, 61, 113
1, 7148, Note_on_c, 0, 63, 125
1, 7274, Note_off_c, 0, 63, 125
1, 7296, Note_on_c, 0, 64, 124
1, 7577, Note_off_c, 0, 64, 124
1, 7636, Note_on_c, 0, 64, 121
1, 7788, Note_off_c, 0, 64, 121
1, 7788, Note_on_c, 0, 66, 112
1, 7917, Note_off_c, 0, 66, 112
1, 7946, Note_on_c, 0, 68, 117
1, 8090, Note_off_c, 0, 68, 117
1, 8130, Note_on_c, 0, 69, 115
1, 9168, Note_off_c, 0, 69, 115
1, 9171, Note_on_c, 0, 66, 108
1, 9464, Note_off_c, 0, 66, 108
1, 9486, Note_on_c, 0, 65, 105
1, 9578, Note_off_c, 0, 65, 105
1, 11492, Note_on_c, 0, 55, 92
1, 11610, Note_off_c, 0, 55, 92
1, 11617, Note_on_c, 0, 57, 104
1, 11680, Note_off_c, 0, 57, 104
1, 11724, Note_on_c, 0, 60, 112
1, 11816, Note_off_c, 0, 60, 112
1, 11834, Note_on_c, 0, 61, 110
1, 11960, Note_off_c, 0, 61, 110
1, 11971, Note_on_c, 0, 63, 122
1, 12108, Note_off_c, 0, 63, 122
1, 12108, Note_on_c, 0, 65, 116
1, 12222, Note_off_c, 0, 65, 116
1, 12266, Note_on_c, 0, 67, 113
1, 12366, Note_off_c, 0, 67, 113
1, 12377, Note_on_c, 0, 69, 117
1, 12517, Note_off_c, 0, 69, 117
1, 12517, Note_on_c, 0, 70, 115
1, 12669, Note_off_c, 0, 70, 115
1, 12687, Note_on_c, 0, 72, 114
1, 13751, Note_off_c, 0, 72, 114
1, 13765, Note_on_c, 0, 65, 101
1, 13879, Note_off_c, 0, 65, 101
1, 15559, Note_on_c, 0, 59, 105
1, 15644, Note_off_c, 0, 59, 105
1, 15658, Note_on_c, 0, 61, 103
1, 15743, Note_off_c, 0, 61, 103
1, 15772, Note_on_c, 0, 63, 121
1, 15864, Note_off_c, 0, 63, 121
1, 15875, Note_on_c, 0, 66, 113
1, 15967, Note_off_c, 0, 66, 113
1, 16004, Note_on_c, 0, 68, 116
1, 16093, Note_off_c, 0, 68, 116
1, 16104, Note_on_c, 0, 69, 103
1, 16174, Note_off_c, 0, 69, 103
1, 16185, Note_on_c, 0, 71, 118
1, 16288, Note_off_c, 0, 71, 118
1, 16295, Note_on_c, 0, 73, 112
1, 16398, Note_off_c, 0, 73, 112
1, 16409, Note_on_c, 0, 75, 112
1, 16928, Note_off_c, 0, 75, 112
1, 16946, Note_on_c, 0, 73, 110
1, 17027, Note_off_c, 0, 73, 110
1, 17060, Note_on_c, 0, 71, 115
1, 17163, Note_off_c, 0, 71, 115
1, 17177, Note_on_c, 0, 68, 112
1, 17892, Note_off_c, 0, 68, 112
1, 17906, Note_on_c, 0, 66, 110
1, 18009, Note_off_c, 0, 66, 110
1, 18009, Note_on_c, 0, 63, 115
1, 18101, Note_off_c, 0, 63, 115
1, 18119, Note_on_c, 0, 59, 103
1, 18241, Note_off_c, 0, 59, 103
1, 18259, Note_on_c, 0, 56, 101
1, 18336, Note_off_c, 0, 56, 101
1, 18350, Note_on_c, 0, 61, 112
1, 18468, Note_off_c, 0, 61, 112
1, 18468, Note_on_c, 0, 64, 117
1, 18605, Note_off_c, 0, 64, 117
1, 18616, Note_on_c, 0, 63, 119
1, 18849, Note_off_c, 0, 63, 119
1, 18871, Note_on_c, 0, 62, 105
1, 18941, Note_off_c, 0, 62, 105
1, 19493, Note_on_c, 0, 64, 121
1, 19593, Note_off_c, 0, 64, 121
1, 19593, Note_on_c, 0, 61, 113
1, 19693, Note_off_c, 0, 61, 113
1, 19693, Note_on_c, 0, 57, 104
1, 19778, Note_off_c, 0, 57, 104
1, 19781, Note_on_c, 0, 54, 97
1, 19862, Note_off_c, 0, 54, 97
1, 19862, Note_on_c, 0, 63, 122
1, 19954, Note_off_c, 0, 63, 122
1, 19972, Note_on_c, 0, 61, 110
1, 20053, Note_off_c, 0, 61, 110
1, 20053, Note_on_c, 0, 59, 107
1, 20127, Note_off_c, 0, 59, 107
1, 20152, Note_on_c, 0, 57, 110
1, 20244, Note_off_c, 0, 57, 110
1, 20247, Note_on_c, 0, 56, 109
1, 20339, Note_off_c, 0, 56, 109
1, 20357, Note_on_c, 0, 54, 111
1, 20460, Note_off_c, 0, 54, 111
1, 20478, Note_on_c, 0, 52, 106
1, 20548, Note_off_c, 0, 52, 106
1, 20570, Note_on_c, 0, 50, 112
1, 20659, Note_off_c, 0, 50, 112
1, 20659, Note_on_c, 0, 48, 105
1, 20981, Note_off_c, 0, 48, 105
1, 21025, Note_on_c, 0, 44, 113
1, 21395, Note_off_c, 0, 44, 113
1, 22663, Note_on_c, 0, 59, 113
1, 22752, Note_off_c, 0, 59, 113
1, 22752, Note_on_c, 0, 58, 108
1, 22811, Note_off_c, 0, 58, 108
1, 22814, Note_on_c, 0, 57, 108
1, 22932, Note_off_c, 0, 57, 108
1, 22932, Note_on_c, 0, 54, 112
1, 23028, Note_off_c, 0, 54, 112
1, 23039, Note_on_c, 0, 53, 112
1, 23109, Note_off_c, 0, 53, 112
1, 23112, Note_on_c, 0, 52, 111
1, 23193, Note_off_c, 0, 52, 111
1, 23218, Note_on_c, 0, 51, 110
1, 23314, Note_on_c, 0, 54, 111
1, 23314, Note_off_c, 0, 51, 110
1, 23369, Note_off_c, 0, 54, 111
1, 23402, Note_on_c, 0, 57, 104
1, 23483, Note_off_c, 0, 57, 104
1, 23483, Note_on_c, 0, 62, 97
1, 23594, Note_off_c, 0, 62, 97
1, 23594, Note_on_c, 0, 63, 124
1, 23686, Note_off_c, 0, 63, 124
1, 23693, Note_on_c, 0, 61, 113
1, 23785, Note_off_c, 0, 61, 113
1, 23785, Note_on_c, 0, 59, 111
1, 23866, Note_off_c, 0, 59, 111
1, 23877, Note_on_c, 0, 57, 109
1, 23962, Note_off_c, 0, 57, 109
1, 23973, Note_on_c, 0, 56, 107
1, 24062, Note_off_c, 0, 56, 107
1, 24084, Note_on_c, 0, 54, 109
1, 24198, Note_off_c, 0, 54, 109
1, 24205, Note_on_c, 0, 53, 104
1, 24260, Note_off_c, 0, 53, 104
1, 24263, Note_on_c, 0, 52, 107
1, 24329, Note_off_c, 0, 52, 107
1, 24329, Note_on_c, 0, 51, 117
1, 24432, Note_off_c, 0, 51, 117
1, 24432, Note_on_c, 0, 53, 115
1, 24546, Note_off_c, 0, 53, 115
1, 24553, Note_on_c, 0, 52, 108
1, 24653, Note_off_c, 0, 52, 108
1, 24779, Note_on_c, 0, 49, 103
1, 24908, Note_off_c, 0, 49, 103
1, 24933, Note_on_c, 0, 52, 106
1, 25096, Note_off_c, 0, 52, 106
1, 25140, Note_on_c, 0, 49, 109
1, 25336, Note_off_c, 0, 49, 109
1, 25384, Note_on_c, 0, 52, 114
1, 25521, Note_off_c, 0, 52, 114
1, 25535, Note_on_c, 0, 49, 111
1, 25679, Note_off_c, 0, 49, 111
1, 25697, Note_on_c, 0, 53, 111
1, 26053, Note_off_c, 0, 53, 111
1, 26071, Note_on_c, 0, 49, 102
1, 26160, Note_off_c, 0, 49, 102
1, 26167, Note_on_c, 0, 55, 105
1, 26270, Note_off_c, 0, 55, 105
1, 26295, Note_on_c, 0, 49, 116
1, 26339, Note_off_c, 0, 49, 116
1, 26357, Note_on_c, 0, 56, 114
1, 26431, Note_off_c, 0, 56, 114
1, 26431, Note_on_c, 0, 52, 105
1, 26505, Note_off_c, 0, 52, 105
1, 26527, Note_on_c, 0, 58, 107
1, 26634, Note_off_c, 0, 58, 107
1, 26659, Note_on_c, 0, 54, 118
1, 26733, Note_off_c, 0, 54, 118
1, 26736, Note_on_c, 0, 59, 113
1, 26843, Note_off_c, 0, 59, 113
1, 26854, Note_on_c, 0, 56, 109
1, 26902, Note_off_c, 0, 56, 109
1, 26902, Note_on_c, 0, 61, 115
1, 26994, Note_off_c, 0, 61, 115
1, 27001, Note_on_c, 0, 58, 94
1, 27056, Note_off_c, 0, 58, 94
1, 27074, Note_on_c, 0, 62, 118
1, 27181, Note_off_c, 0, 62, 118
1, 27199, Note_on_c, 0, 59, 100
1, 27265, Note_off_c, 0, 59, 100
1, 27298, Note_on_c, 0, 64, 120
1, 27416, Note_on_c, 0, 61, 94
1, 27416, Note_off_c, 0, 64, 120
1, 27493, Note_off_c, 0, 61, 94
1, 27493, Note_on_c, 0, 65, 109
1, 27582, Note_off_c, 0, 65, 109
1, 27593, Note_on_c, 0, 62, 96
1, 27667, Note_off_c, 0, 62, 96
1, 27689, Note_on_c, 0, 67, 112
1, 27789, Note_off_c, 0, 67, 112
1, 27796, Note_on_c, 0, 64, 98
1, 27847, Note_off_c, 0, 64, 98
1, 27854, Note_on_c, 0, 68, 113
1, 27931, Note_off_c, 0, 68, 113
1, 27964, Note_on_c, 0, 71, 112
1, 28067, Note_off_c, 0, 71, 112
1, 28734, Note_on_c, 0, 73, 105
1, 28830, Note_off_c, 0, 73, 105
1, 28830, Note_on_c, 0, 71, 114
1, 28915, Note_off_c, 0, 71, 114
1, 28915, Note_on_c, 0, 68, 115
1, 29004, Note_off_c, 0, 68, 115
1, 29018, Note_on_c, 0, 66, 117
1, 29107, Note_off_c, 0, 66, 117
1, 29110, Note_on_c, 0, 64, 116
1, 29199, Note_off_c, 0, 64, 116
1, 29206, Note_on_c, 0, 62, 117
1, 29283, Note_off_c, 0, 62, 117
1, 29294, Note_on_c, 0, 59, 109
1, 29368, Note_off_c, 0, 59, 109
1, 29368, Note_on_c, 0, 58, 110
1, 29490, Note_on_c, 0, 56, 111
1, 29490, Note_off_c, 0, 58, 110
1, 29564, Note_off_c, 0, 56, 111
1, 29578, Note_on_c, 0, 54, 120
1, 29670, Note_off_c, 0, 54, 120
1, 29681, Note_on_c, 0, 50, 115
1, 29756, Note_off_c, 0, 50, 115
1, 29756, Note_on_c, 0, 49, 116
1, 29848, Note_off_c, 0, 49, 116
1, 29854, Note_on_c, 0, 47, 119
1, 29943, Note_off_c, 0, 47, 119
1, 29954, Note_on_c, 0, 46, 116
1, 30065, Note_off_c, 0, 46, 116
1, 30065, Note_on_c, 0, 58, 110
1, 30146, Note_off_c, 0, 58, 110
1, 30758, Note_on_c, 0, 57, 111
1, 30884, Note_off_c, 0, 57, 111
1, 30884, Note_on_c, 0, 61, 108
1, 30939, Note_off_c, 0, 61, 108
1, 30946, Note_on_c, 0, 65, 106
1, 31046, Note_off_c, 0, 65, 106
1, 31060, Note_on_c, 0, 69, 114
1, 31130, Note_off_c, 0, 69, 114
1, 31137, Note_on_c, 0, 72, 102
1, 31233, Note_off_c, 0, 72, 102
1, 31233, Note_on_c, 0, 75, 104
1, 31314, Note_off_c, 0, 75, 104
1, 31317, Note_on_c, 0, 77, 113
1, 31665, Note_off_c, 0, 77, 113
1, 31672, Note_on_c, 0, 75, 103
1, 31772, Note_off_c, 0, 75, 103
1, 31786, Note_on_c, 0, 73, 107
1, 31904, Note_off_c, 0, 73, 107
1, 31915, Note_on_c, 0, 72, 106
1, 31996, Note_on_c, 0, 70, 109
1, 31996, Note_off_c, 0, 72, 106
1, 32088, Note_off_c, 0, 70, 109
1, 32095, Note_on_c, 0, 69, 109
1, 32195, Note_off_c, 0, 69, 109
1, 32202, Note_on_c, 0, 67, 109
1, 32279, Note_off_c, 0, 67, 109
1, 32286, Note_on_c, 0, 65, 107
1, 32371, Note_off_c, 0, 65, 107
1, 32393, Note_on_c, 0, 64, 114
1, 32474, Note_off_c, 0, 64, 114
1, 32481, Note_on_c, 0, 63, 116
1, 32577, Note_off_c, 0, 63, 116
1, 32580, Note_on_c, 0, 61, 111
1, 32661, Note_off_c, 0, 61, 111
1, 32664, Note_on_c, 0, 57, 107
1, 32760, Note_off_c, 0, 57, 107
1, 32771, Note_on_c, 0, 54, 112
1, 32889, Note_off_c, 0, 54, 112
1, 32896, Note_on_c, 0, 53, 114
1, 32999, Note_off_c, 0, 53, 114
1, 33013, Note_on_c, 0, 52, 107
1, 33105, Note_off_c, 0, 52, 107
1, 33112, Note_on_c, 0, 51, 113
1, 33186, Note_off_c, 0, 51, 113
1, 33193, Note_on_c, 0, 53, 111
1, 33248, Note_off_c, 0, 53, 111
1, 33273, Note_on_c, 0, 50, 101
1, 33358, Note_off_c, 0, 50, 101
1, 33358, Note_on_c, 0, 53, 98
1, 33435, Note_off_c, 0, 53, 98
1, 33435, Note_on_c, 0, 58, 107
1, 33542, Note_off_c, 0, 58, 107
1, 33542, Note_on_c, 0, 62, 117
1, 33623, Note_off_c, 0, 62, 117
1, 33637, Note_on_c, 0, 63, 120
1, 33748, Note_off_c, 0, 63, 120
1, 33759, Note_on_c, 0, 60, 109
1, 33818, Note_off_c, 0, 60, 109
1, 33847, Note_on_c, 0, 56, 112
1, 33932, Note_off_c, 0, 56, 112
1, 33946, Note_on_c, 0, 53, 103
1, 34046, Note_off_c, 0, 53, 103
1, 34046, Note_on_c, 0, 58, 110
1, 34116, Note_on_c, 0, 55, 105
1, 34116, Note_off_c, 0, 58, 110
1, 34197, Note_off_c, 0, 55, 105
1, 34211, Note_on_c, 0, 56, 106
1, 34300, Note_off_c, 0, 56, 106
1, 34300, Note_on_c, 0, 58, 105
1, 34400, Note_off_c, 0, 58, 105
1, 34411, Note_on_c, 0, 59, 106
1, 34525, Note_on_c, 0, 56, 106
1, 34525, Note_off_c, 0, 59, 106
1, 34625, Note_off_c, 0, 56, 106
1, 34628, Note_on_c, 0, 57, 107
1, 34702, Note_off_c, 0, 57, 107
1, 34720, Note_on_c, 0, 59, 110
1, 34809, Note_off_c, 0, 59, 110
1, 34809, Note_on_c, 0, 60, 106
1, 34898, Note_off_c, 0, 60, 106
1, 34898, Note_on_c, 0, 62, 100
1, 34983, Note_off_c, 0, 62, 100
1, 34986, Note_on_c, 0, 63, 118
1, 35086, Note_off_c, 0, 63, 118
1, 35100, Note_on_c, 0, 60, 97
1, 35177, Note_off_c, 0, 60, 97
1, 35191, Note_on_c, 0, 64, 118
1, 35294, Note_off_c, 0, 64, 118
1, 35350, Note_on_c, 0, 65, 108
1, 35471, Note_off_c, 0, 65, 108
1, 35486, Note_on_c, 0, 66, 114
1, 35596, Note_off_c, 0, 66, 114
1, 36529, Note_on_c, 0, 68, 115
1, 36687, Note_off_c, 0, 68, 115
1, 36723, Note_on_c, 0, 64, 118
1, 36844, Note_off_c, 0, 64, 118
1, 36844, Note_on_c, 0, 61, 107
1, 36949, Note_off_c, 0, 61, 107
1, 36954, Note_on_c, 0, 58, 105
1, 37101, Note_off_c, 0, 58, 105
1, 37116, Note_on_c, 0, 61, 113
1, 37232, Note_off_c, 0, 61, 113
1, 37247, Note_on_c, 0, 64, 121
1, 37489, Note_off_c, 0, 64, 121
1, 38116, Note_on_c, 0, 69, 117
1, 38210, Note_off_c, 0, 69, 117
1, 38215, Note_on_c, 0, 73, 106
1, 38294, Note_off_c, 0, 73, 106
1, 38294, Note_on_c, 0, 71, 108
1, 38391, Note_off_c, 0, 71, 108
1, 38391, Note_on_c, 0, 69, 113
1, 38465, Note_off_c, 0, 69, 113
1, 38472, Note_on_c, 0, 68, 111
1, 38572, Note_off_c, 0, 68, 111
1, 38572, Note_on_c, 0, 66, 111
1, 38649, Note_off_c, 0, 66, 111
1, 38663, Note_on_c, 0, 65, 115
1, 38737, Note_off_c, 0, 65, 115
1, 38740, Note_on_c, 0, 64, 117
1, 38836, Note_off_c, 0, 64, 117
1, 38839, Note_on_c, 0, 63, 118
1, 38935, Note_off_c, 0, 63, 118
1, 38960, Note_on_c, 0, 65, 114
1, 39023, Note_off_c, 0, 65, 114
1, 39048, Note_on_c, 0, 66, 115
1, 39151, Note_off_c, 0, 66, 115
1, 39165, Note_on_c, 0, 64, 104
1, 39231, Note_off_c, 0, 64, 104
1, 39245, Note_on_c, 0, 65, 114
1, 39319, Note_off_c, 0, 65, 114
1, 39326, Note_on_c, 0, 64, 117
1, 39415, Note_off_c, 0, 64, 117
1, 39418, Note_on_c, 0, 63, 122
1, 39503, Note_off_c, 0, 63, 122
1, 39503, Note_on_c, 0, 67, 114
1, 39603, Note_off_c, 0, 67, 114
1, 39606, Note_on_c, 0, 64, 118
1, 39698, Note_off_c, 0, 64, 118
1, 39705, Note_on_c, 0, 60, 113
1, 39786, Note_off_c, 0, 60, 113
1, 39804, Note_on_c, 0, 56, 118
1, 39904, Note_off_c, 0, 56, 118
1, 39915, Note_on_c, 0, 52, 111
1, 40018, Note_off_c, 0, 52, 111
1, 40021, Note_on_c, 0, 57, 108
1, 40310, Note_off_c, 0, 57, 108
1, 40313, Note_on_c, 0, 55, 107
1, 40402, Note_off_c, 0, 55, 107
1, 40420, Note_on_c, 0, 52, 109
1, 40483, Note_off_c, 0, 52, 109
1, 40490, Note_on_c, 0, 48, 112
1, 40608, Note_off_c, 0, 48, 112
1, 42084, Note_on_c, 0, 65, 118
1, 42165, Note_off_c, 0, 65, 118
1, 42187, Note_on_c, 0, 68, 97
1, 42276, Note_off_c, 0, 68, 97
1, 42283, Note_on_c, 0, 70, 114
1, 42995, Note_off_c, 0, 70, 114
1, 43065, Note_on_c, 0, 70, 112
1, 43191, Note_off_c, 0, 70, 112
1, 43276, Note_on_c, 0, 70, 113
1, 43817, Note_off_c, 0, 70, 113
1, 43828, Note_on_c, 0, 68, 115
1, 43965, Note_off_c, 0, 68, 115
1, 43965, Note_on_c, 0, 70, 97
1, 44046, Note_off_c, 0, 70, 97
1, 44053, Note_on_c, 0, 72, 113
1, 44145, Note_off_c, 0, 72, 113
1, 44145, Note_on_c, 0, 70, 113
1, 44634, Note_off_c, 0, 70, 113
1, 44637, Note_on_c, 0, 68, 117
1, 44744, Note_off_c, 0, 68, 117
1, 44747, Note_on_c, 0, 65, 113
1, 44854, Note_off_c, 0, 65, 113
1, 44854, Note_on_c, 0, 63, 114
1, 44980, Note_off_c, 0, 63, 114
1, 45762, Note_on_c, 0, 60, 114
1, 45865, Note_off_c, 0, 60, 114
1, 45883, Note_on_c, 0, 65, 102
1, 45934, Note_off_c, 0, 65, 102
1, 45956, Note_on_c, 0, 67, 114
1, 46022, Note_off_c, 0, 67, 114
1, 46025, Note_on_c, 0, 70, 110
1, 46117, Note_off_c, 0, 70, 110
1, 46139, Note_on_c, 0, 72, 113
1, 46228, Note_off_c, 0, 72, 113
1, 46231, Note_on_c, 0, 75, 113
1, 46312, Note_off_c, 0, 75, 113
1, 46319, Note_on_c, 0, 74, 110
1, 46400, Note_off_c, 0, 74, 110
1, 46400, Note_on_c, 0, 72, 108
1, 46500, Note_off_c, 0, 72, 108
1, 46500, Note_on_c, 0, 70, 109
1, 46592, Note_off_c, 0, 70, 109
1, 46617, Note_on_c, 0, 68, 116
1, 46683, Note_off_c, 0, 68, 116
1, 46701, Note_on_c, 0, 68, 111
1, 46778, Note_off_c, 0, 68, 111
1, 46803, Note_on_c, 0, 67, 111
1, 46895, Note_off_c, 0, 67, 111
1, 46906, Note_on_c, 0, 66, 113
1, 46987, Note_off_c, 0, 66, 113
1, 46998, Note_on_c, 0, 62, 116
1, 47061, Note_off_c, 0, 62, 116
1, 47068, Note_on_c, 0, 59, 110
1, 47186, Note_off_c, 0, 59, 110
1, 47186, Note_on_c, 0, 56, 99
1, 47278, Note_off_c, 0, 56, 99
1, 47292, Note_on_c, 0, 58, 108
1, 47395, Note_off_c, 0, 58, 108
1, 47413, Note_on_c, 0, 55, 101
1, 47476, Note_off_c, 0, 55, 101
1, 47483, Note_on_c, 0, 57, 111
1, 47583, Note_off_c, 0, 57, 111
1, 47601, Note_on_c, 0, 54, 105
1, 47649, Note_off_c, 0, 54, 105
1, 47652, Note_on_c, 0, 56, 113
1, 47722, Note_off_c, 0, 56, 113
1, 47740, Note_on_c, 0, 59, 109
1, 47806, Note_off_c, 0, 59, 109
1, 47828, Note_on_c, 0, 62, 111
1, 47931, Note_off_c, 0, 62, 111
1, 47945, Note_on_c, 0, 66, 111
1, 48030, Note_off_c, 0, 66, 111
1, 48030, Note_on_c, 0, 61, 104
1, 48111, Note_off_c, 0, 61, 104
1, 48125, Note_on_c, 0, 62, 114
1, 48225, Note_off_c, 0, 62, 114
1, 48236, Note_on_c, 0, 66, 95
1, 48306, Note_off_c, 0, 66, 95
1, 48306, Note_on_c, 0, 69, 96
1, 48420, Note_off_c, 0, 69, 96
1, 48431, Note_on_c, 0, 73, 111
1, 48534, Note_off_c, 0, 73, 111
1, 48541, Note_on_c, 0, 72, 106
1, 48626, Note_off_c, 0, 72, 106
1, 48626, Note_on_c, 0, 71, 115
1, 48722, Note_on_c, 0, 68, 94
1, 48722, Note_off_c, 0, 71, 115
1, 48814, Note_off_c, 0, 68, 94
1, 48814, Note_on_c, 0, 69, 109
1, 48891, Note_off_c, 0, 69, 109
1, 48913, Note_on_c, 0, 68, 109
1, 48983, Note_off_c, 0, 68, 109
1, 48983, Note_on_c, 0, 67, 104
1, 49075, Note_off_c, 0, 67, 104
1, 49082, Note_on_c, 0, 66, 110
1, 49152, Note_off_c, 0, 66, 110
1, 49152, Note_on_c, 0, 67, 112
1, 49237, Note_off_c, 0, 67, 112
1, 49237, Note_on_c, 0, 66, 106
1, 49351, Note_off_c, 0, 66, 106
1, 49369, Note_on_c, 0, 65, 106
1, 49450, Note_off_c, 0, 65, 106
1, 49464, Note_on_c, 0, 64, 113
1, 49549, Note_off_c, 0, 64, 113
1, 49560, Note_on_c, 0, 63, 116
1, 49641, Note_off_c, 0, 63, 116
1, 49648, Note_on_c, 0, 62, 109
1, 49737, Note_off_c, 0, 62, 109
1, 49748, Note_on_c, 0, 61, 107
1, 49833, Note_off_c, 0, 61, 107
1, 49840, Note_on_c, 0, 65, 110
1, 49940, Note_off_c, 0, 65, 110
1, 49943, Note_on_c, 0, 60, 106
1, 50020, Note_off_c, 0, 60, 106
1, 50031, Note_on_c, 0, 61, 109
1, 50131, Note_off_c, 0, 61, 109
1, 50138, Note_on_c, 0, 58, 102
1, 50230, Note_off_c, 0, 58, 102
1, 50241, Note_on_c, 0, 55, 97
1, 50292, Note_off_c, 0, 55, 97
1, 50314, Note_on_c, 0, 64, 117
1, 50425, Note_on_c, 0, 62, 118
1, 50425, Note_off_c, 0, 64, 117
1, 50484, Note_off_c, 0, 62, 118
1, 50491, Note_on_c, 0, 59, 105
1, 50587, Note_off_c, 0, 59, 105
1, 50605, Note_on_c, 0, 58, 106
1, 50675, Note_off_c, 0, 58, 106
1, 50700, Note_on_c, 0, 57, 107
1, 50789, Note_off_c, 0, 57, 107
1, 50789, Note_on_c, 0, 54, 105
1, 50866, Note_off_c, 0, 54, 105
1, 50869, Note_on_c, 0, 53, 108
1, 50972, Note_off_c, 0, 53, 108
1, 50986, Note_on_c, 0, 52, 108
1, 51075, Note_off_c, 0, 52, 108
1, 51082, Note_on_c, 0, 51, 113
1, 51163, Note_off_c, 0, 51, 113
1, 51163, Note_on_c, 0, 47, 103
1, 51252, Note_off_c, 0, 47, 103
1, 52049, Note_on_c, 0, 65, 112
1, 52149, Note_off_c, 0, 65, 112
1, 52149, Note_on_c, 0, 64, 116
1, 52260, Note_off_c, 0, 64, 116
1, 52267, Note_on_c, 0, 63, 124
1, 52367, Note_off_c, 0, 63, 124
1, 52378, Note_on_c, 0, 60, 111
1, 52459, Note_off_c, 0, 60, 111
1, 52462, Note_on_c, 0, 57, 114
1, 52562, Note_off_c, 0, 57, 114
1, 52584, Note_on_c, 0, 54, 109
1, 52654, Note_off_c, 0, 54, 109
1, 52654, Note_on_c, 0, 59, 114
1, 52735, Note_off_c, 0, 59, 114
1, 52735, Note_on_c, 0, 54, 102
1, 52809, Note_off_c, 0, 54, 102
1, 52834, Note_on_c, 0, 56, 110
1, 52926, Note_off_c, 0, 56, 110
1, 52929, Note_on_c, 0, 59, 107
1, 53010, Note_off_c, 0, 59, 107
1, 53017, Note_on_c, 0, 61, 112
1, 53102, Note_on_c, 0, 63, 120
1, 53102, Note_off_c, 0, 61, 112
1, 53183, Note_off_c, 0, 63, 120
1, 53201, Note_on_c, 0, 64, 116
1, 53304, Note_off_c, 0, 64, 116
1, 53307, Note_on_c, 0, 66, 115
1, 53425, Note_off_c, 0, 66, 115
1, 53425, Note_on_c, 0, 68, 113
1, 53491, Note_off_c, 0, 68, 113
1, 53516, Note_on_c, 0, 69, 101
1, 53571, Note_off_c, 0, 69, 101
1, 53571, Note_on_c, 0, 71, 116
1, 53682, Note_off_c, 0, 71, 116
1, 53726, Note_on_c, 0, 68, 98
1, 53796, Note_off_c, 0, 68, 98
1, 53818, Note_on_c, 0, 68, 87
1, 53888, Note_off_c, 0, 68, 87
1, 53899, Note_on_c, 0, 69, 113
1, 53962, Note_off_c, 0, 69, 113
1, 53984, Note_on_c, 0, 68, 116
1, 54047, Note_off_c, 0, 68, 116
1, 54080, Note_on_c, 0, 66, 118
1, 54321, Note_off_c, 0, 66, 118
1, 54725, Note_on_c, 0, 65, 118
1, 54843, Note_off_c, 0, 65, 118
1, 54854, Note_on_c, 0, 64, 119
1, 54946, Note_off_c, 0, 64, 119
1, 54964, Note_on_c, 0, 63, 124
1, 55027, Note_off_c, 0, 63, 124
1, 55041, Note_on_c, 0, 60, 112
1, 55122, Note_off_c, 0, 60, 112
1, 55147, Note_on_c, 0, 57, 111
1, 55224, Note_off_c, 0, 57, 111
1, 55235, Note_on_c, 0, 53, 101
1, 55298, Note_off_c, 0, 53, 101
1, 55298, Note_on_c, 0, 62, 113
1, 55405, Note_on_c, 0, 60, 109
1, 55405, Note_off_c, 0, 62, 113
1, 55486, Note_off_c, 0, 60, 109
1, 55504, Note_on_c, 0, 59, 110
1, 55607, Note_off_c, 0, 59, 110
1, 55610, Note_on_c, 0, 58, 111
1, 55684, Note_off_c, 0, 58, 111
1, 55687, Note_on_c, 0, 57, 112
1, 55776, Note_off_c, 0, 57, 112
1, 55794, Note_on_c, 0, 59, 110
1, 55860, Note_off_c, 0, 59, 110
1, 55871, Note_on_c, 0, 61, 108
1, 55956, Note_off_c, 0, 61, 108
1, 55967, Note_on_c, 0, 63, 116
1, 56063, Note_off_c, 0, 63, 116
1, 56077, Note_on_c, 0, 65, 110
1, 56173, Note_off_c, 0, 65, 110
1, 56187, Note_on_c, 0, 66, 106
1, 56287, Note_off_c, 0, 66, 106
1, 56294, Note_on_c, 0, 68, 95
1, 56368, Note_off_c, 0, 68, 95
1, 56390, Note_on_c, 0, 71, 107
1, 56486, Note_on_c, 0, 73, 106
1, 56486, Note_off_c, 0, 71, 107
1, 56593, Note_off_c, 0, 73, 106
1, 56604, Note_on_c, 0, 75, 113
1, 56693, Note_off_c, 0, 75, 113
1, 56693, Note_on_c, 0, 76, 111
1, 56800, Note_on_c, 0, 75, 111
1, 56800, Note_off_c, 0, 76, 111
1, 56892, Note_off_c, 0, 75, 111
1, 56910, Note_on_c, 0, 73, 112
1, 57002, Note_off_c, 0, 73, 112
1, 57013, Note_on_c, 0, 71, 108
1, 57105, Note_off_c, 0, 71, 108
1, 57123, Note_on_c, 0, 69, 115
1, 57189, Note_off_c, 0, 69, 115
1, 57200, Note_on_c, 0, 68, 116
1, 57266, Note_off_c, 0, 68, 116
1, 57291, Note_on_c, 0, 66, 109
1, 57376, Note_off_c, 0, 66, 109
1, 57376, Note_on_c, 0, 65, 109
1, 57472, Note_off_c, 0, 65, 109
1, 57486, Note_on_c, 0, 64, 118
1, 57571, Note_off_c, 0, 64, 118
1, 57582, Note_on_c, 0, 63, 118
1, 57685, Note_off_c, 0, 63, 118
1, 57685, Note_on_c, 0, 65, 111
1, 57766, Note_off_c, 0, 65, 111
1, 57769, Note_on_c, 0, 67, 88
1, 57817, Note_off_c, 0, 67, 88
1, 57850, Note_on_c, 0, 69, 100
1, 57920, Note_off_c, 0, 69, 100
1, 57968, Note_on_c, 0, 70, 111
1, 58042, Note_off_c, 0, 70, 111
1, 58053, Note_on_c, 0, 66, 104
1, 58130, Note_off_c, 0, 66, 104
1, 58144, Note_on_c, 0, 68, 112
1, 58218, Note_off_c, 0, 68, 112
1, 58232, Note_on_c, 0, 70, 104
1, 58313, Note_off_c, 0, 70, 104
1, 58331, Note_on_c, 0, 71, 112
1, 58408, Note_off_c, 0, 71, 112
1, 58430, Note_on_c, 0, 70, 96
1, 58485, Note_off_c, 0, 70, 96
1, 58488, Note_on_c, 0, 73, 107
1, 58599, Note_off_c, 0, 73, 107
1, 58606, Note_on_c, 0, 70, 98
1, 58661, Note_off_c, 0, 70, 98
1, 58675, Note_on_c, 0, 71, 116
1, 58771, Note_off_c, 0, 71, 116
1, 58782, Note_on_c, 0, 69, 104
1, 58852, Note_off_c, 0, 69, 104
1, 58870, Note_on_c, 0, 68, 110
1, 58951, Note_off_c, 0, 68, 110
1, 58969, Note_on_c, 0, 67, 110
1, 59061, Note_off_c, 0, 67, 110
1, 59086, Note_on_c, 0, 66, 108
1, 59152, Note_off_c, 0, 66, 108
1, 59174, Note_on_c, 0, 71, 109
1, 59279, Note_off_c, 0, 71, 109
1, 59332, Note_on_c, 0, 66, 106
1, 59424, Note_off_c, 0, 66, 106
1, 59442, Note_on_c, 0, 65, 107
1, 59512, Note_off_c, 0, 65, 107
1, 59523, Note_on_c, 0, 64, 110
1, 59612, Note_off_c, 0, 64, 110
1, 59612, Note_on_c, 0, 63, 117
1, 59704, Note_off_c, 0, 63, 117
1, 59711, Note_on_c, 0, 67, 111
1, 59800, Note_off_c, 0, 67, 111
1, 59800, Note_on_c, 0, 62, 114
1, 59903, Note_on_c, 0, 60, 111
1, 59903, Note_off_c, 0, 62, 114
1, 59980, Note_off_c, 0, 60, 111
1, 59981, Note_on_c, 0, 57, 109
1, 60062, Note_off_c, 0, 57, 109
1, 60101, Note_on_c, 0, 53, 104
1, 60164, Note_off_c, 0, 53, 104
1, 60178, Note_on_c, 0, 55, 122
1, 60255, Note_off_c, 0, 55, 122
1, 60256, Note_on_c, 0, 51, 123
1, 60337, Note_off_c, 0, 51, 123
1, 60348, Note_on_c, 0, 47, 122
1, 60422, Note_off_c, 0, 47, 122
1, 60433, Note_on_c, 0, 51, 117
1, 60499, Note_off_c, 0, 51, 117
1, 60552, Note_on_c, 0, 44, 127
1, 60778, Note_off_c, 0, 44, 127
1, 61406, Note_on_c, 0, 44, 126
1, 61504, Note_off_c, 0, 44, 126
1, 61513, Note_on_c, 0, 51, 112
1, 61600, Note_off_c, 0, 51, 112
1, 61603, Note_on_c, 0, 56, 110
1, 61705, Note_off_c, 0, 56, 110
1, 61706, Note_on_c, 0, 52, 112
1, 61876, Note_off_c, 0, 52, 112
1, 61883, Note_on_c, 0, 56, 110
1, 61970, Note_off_c, 0, 56, 110
1, 61971, Note_on_c, 0, 59, 107
1, 62056, Note_off_c, 0, 59, 107
1, 62063, Note_on_c, 0, 54, 107
1, 62229, Note_off_c, 0, 54, 107
1, 62249, Note_on_c, 0, 58, 109
1, 62326, Note_off_c, 0, 58, 109
1, 62331, Note_on_c, 0, 61, 109
1, 62434, Note_off_c, 0, 61, 109
1, 62439, Note_on_c, 0, 56, 105
1, 62598, Note_off_c, 0, 56, 105
1, 62605, Note_on_c, 0, 59, 106
1, 62684, Note_off_c, 0, 59, 106
1, 62693, Note_on_c, 0, 63, 107
1, 62785, Note_off_c, 0, 63, 107
1, 62794, Note_on_c, 0, 58, 105
1, 62894, Note_off_c, 0, 58, 105
1, 62929, Note_on_c, 0, 61, 111
1, 63018, Note_off_c, 0, 61, 111
1, 63088, Note_on_c, 0, 66, 110
1, 63175, Note_off_c, 0, 66, 110
1, 63175, Note_on_c, 0, 59, 106
1, 63360, Note_off_c, 0, 59, 106
1, 63361, Note_on_c, 0, 64, 119
1, 63468, Note_off_c, 0, 64, 119
1, 63475, Note_on_c, 0, 68, 110
1, 63565, Note_off_c, 0, 68, 110
1, 63576, Note_on_c, 0, 61, 109
1, 63670, Note_off_c, 0, 61, 109
1, 63684, Note_on_c, 0, 66, 97
1, 63778, Note_off_c, 0, 66, 97
1, 63779, Note_on_c, 0, 70, 108
1, 63866, Note_off_c, 0, 70, 108
1, 63866, Note_on_c, 0, 66, 112
1, 63942, Note_off_c, 0, 66, 112
1, 63951, Note_on_c, 0, 64, 115
1, 64032, Note_off_c, 0, 64, 115
1, 64039, Note_on_c, 0, 68, 96
1, 64126, Note_off_c, 0, 68, 96
1, 64144, Note_on_c, 0, 71, 108
1, 64234, Note_on_c, 0, 68, 89
1, 64234, Note_off_c, 0, 71, 108
1, 64311, Note_off_c, 0, 68, 89
1, 64325, Note_on_c, 0, 70, 107
1, 64419, Note_off_c, 0, 70, 107
1, 64420, Note_on_c, 0, 68, 107
1, 64481, Note_off_c, 0, 68, 107
1, 64499, Note_on_c, 0, 68, 105
1, 64591, Note_off_c, 0, 68, 105
1, 64592, Note_on_c, 0, 67, 109
1, 64677, Note_off_c, 0, 67, 109
1, 64712, Note_on_c, 0, 66, 110
1, 64821, Note_off_c, 0, 66, 110
1, 64826, Note_on_c, 0, 62, 114
1, 64924, Note_on_c, 0, 58, 106
1, 64924, Note_off_c, 0, 62, 114
1, 64994, Note_off_c, 0, 58, 106
1, 65001, Note_on_c, 0, 54, 95
1, 65077, Note_off_c, 0, 54, 95
1, 65084, Note_on_c, 0, 58, 108
1, 65195, Note_off_c, 0, 58, 108
1, 65200, Note_on_c, 0, 54, 98
1, 65279, Note_off_c, 0, 54, 98
1, 65279, Note_on_c, 0, 56, 107
1, 65436, Note_off_c, 0, 56, 107
1, 65849, Note_on_c, 0, 67, 106
1, 65876, Note_off_c, 0, 67, 106
1, 65894, Note_on_c, 0, 69, 118
1, 65932, Note_off_c, 0, 69, 118
1, 65933, Note_on_c, 0, 72, 111
1, 65966, Note_off_c, 0, 72, 111
1, 65997, Note_on_c, 0, 75, 115
1, 66102, Note_off_c, 0, 75, 115
1, 66102, Note_on_c, 0, 73, 112
1, 66155, Note_off_c, 0, 73, 112
1, 66177, Note_on_c, 0, 71, 121
1, 66236, Note_off_c, 0, 71, 121
1, 66256, Note_on_c, 0, 70, 113
1, 66363, Note_on_c, 0, 68, 118
1, 66363, Note_off_c, 0, 70, 113
1, 66424, Note_off_c, 0, 68, 118
1, 66436, Note_on_c, 0, 67, 112
1, 66523, Note_off_c, 0, 67, 112
1, 66537, Note_on_c, 0, 66, 114
1, 66629, Note_off_c, 0, 66, 114
1, 66645, Note_on_c, 0, 65, 114
1, 66704, Note_off_c, 0, 65, 114
1, 66724, Note_on_c, 0, 64, 116
1, 66796, Note_off_c, 0, 64, 116
1, 66807, Note_on_c, 0, 63, 118
1, 66914, Note_off_c, 0, 63, 118
1, 66921, Note_on_c, 0, 62, 115
1, 67002, Note_off_c, 0, 62, 115
1, 67003, Note_on_c, 0, 61, 102
1, 67077, Note_off_c, 0, 61, 102
1, 67091, Note_on_c, 0, 62, 102
1, 67161, Note_off_c, 0, 62, 102
1, 67168, Note_on_c, 0, 65, 114
1, 67245, Note_off_c, 0, 65, 114
1, 67267, Note_on_c, 0, 64, 120
1, 67348, Note_off_c, 0, 64, 120
1, 67364, Note_on_c, 0, 63, 121
1, 67447, Note_off_c, 0, 63, 121
1, 68270, Note_on_c, 0, 73, 91
1, 68299, Note_off_c, 0, 73, 91
1, 68304, Note_on_c, 0, 76, 102
1, 68413, Note_off_c, 0, 76, 102
1, 68444, Note_on_c, 0, 75, 115
1, 68540, Note_off_c, 0, 75, 115
1, 68547, Note_on_c, 0, 74, 116
1, 68643, Note_off_c, 0, 74, 116
1, 68665, Note_on_c, 0, 72, 106
1, 68752, Note_off_c, 0, 72, 106
1, 68755, Note_on_c, 0, 70, 106
1, 68818, Note_off_c, 0, 70, 106
1, 68829, Note_on_c, 0, 69, 114
1, 68914, Note_off_c, 0, 69, 114
1, 68921, Note_on_c, 0, 67, 113
1, 69008, Note_off_c, 0, 67, 113
1, 69013, Note_on_c, 0, 65, 110
1, 69092, Note_off_c, 0, 65, 110
1, 69097, Note_on_c, 0, 64, 110
1, 69174, Note_off_c, 0, 64, 110
1, 69188, Note_on_c, 0, 63, 119
1, 69245, Note_off_c, 0, 63, 119
1, 69289, Note_on_c, 0, 60, 105
1, 69350, Note_off_c, 0, 60, 105
1, 69353, Note_on_c, 0, 67, 117
1, 69455, Note_off_c, 0, 67, 117
1, 69479, Note_on_c, 0, 66, 117
1, 69592, Note_off_c, 0, 66, 117
1, 69612, Note_on_c, 0, 65, 114
1, 69678, Note_off_c, 0, 65, 114
1, 69685, Note_on_c, 0, 64, 118
1, 69761, Note_off_c, 0, 64, 118
1, 69770, Note_on_c, 0, 63, 118
1, 69872, Note_off_c, 0, 63, 118
1, 69879, Note_on_c, 0, 66, 113
1, 69960, Note_on_c, 0, 62, 115
1, 69960, Note_off_c, 0, 66, 113
1, 70063, Note_off_c, 0, 62, 115
1, 70063, Note_on_c, 0, 60, 106
1, 70135, Note_off_c, 0, 60, 106
1, 70153, Note_on_c, 0, 57, 113
1, 70242, Note_off_c, 0, 57, 113
1, 70268, Note_on_c, 0, 54, 104
1, 70327, Note_off_c, 0, 54, 104
1, 70333, Note_on_c, 0, 58, 110
1, 70438, Note_off_c, 0, 58, 110
1, 70504, Note_on_c, 0, 59, 108
1, 70624, Note_off_c, 0, 59, 108
1, 70709, Note_on_c, 0, 60, 115
1, 70812, Note_off_c, 0, 60, 115
1, 70812, Note_on_c, 0, 61, 111
1, 70906, Note_off_c, 0, 61, 111
1, 71506, Note_on_c, 0, 66, 121
1, 71598, Note_off_c, 0, 66, 121
1, 71612, Note_on_c, 0, 65, 112
1, 71675, Note_off_c, 0, 65, 112
1, 71700, Note_on_c, 0, 65, 114
1, 71755, Note_off_c, 0, 65, 114
1, 71764, Note_on_c, 0, 63, 119
1, 71860, Note_off_c, 0, 63, 119
1, 71882, Note_on_c, 0, 62, 119
1, 71943, Note_off_c, 0, 62, 119
1, 71954, Note_on_c, 0, 60, 110
1, 72033, Note_off_c, 0, 60, 110
1, 72040, Note_on_c, 0, 59, 110
1, 72130, Note_off_c, 0, 59, 110
1, 72131, Note_on_c, 0, 68, 111
1, 72214, Note_off_c, 0, 68, 111
1, 72217, Note_on_c, 0, 66, 114
1, 72307, Note_off_c, 0, 66, 114
1, 72307, Note_on_c, 0, 60, 107
1, 72388, Note_off_c, 0, 60, 107
1, 72404, Note_on_c, 0, 62, 117
1, 72502, Note_on_c, 0, 65, 113
1, 72502, Note_off_c, 0, 62, 117
1, 72591, Note_off_c, 0, 65, 113
1, 72598, Note_on_c, 0, 62, 111
1, 72657, Note_off_c, 0, 62, 111
1, 72671, Note_on_c, 0, 63, 120
1, 72774, Note_off_c, 0, 63, 120
1, 72874, Note_on_c, 0, 70, 104
1, 72922, Note_off_c, 0, 70, 104
1, 72957, Note_on_c, 0, 72, 115
1, 73051, Note_off_c, 0, 72, 115
1, 73065, Note_on_c, 0, 73, 107
1, 73165, Note_off_c, 0, 73, 107
1, 73166, Note_on_c, 0, 70, 110
1, 73275, Note_off_c, 0, 70, 110
1, 73276, Note_on_c, 0, 67, 92
1, 73335, Note_off_c, 0, 67, 92
1, 73340, Note_on_c, 0, 71, 117
1, 73432, Note_off_c, 0, 71, 117
1, 73437, Note_on_c, 0, 72, 107
1, 73526, Note_off_c, 0, 72, 107
1, 73531, Note_on_c, 0, 69, 113
1, 73677, Note_off_c, 0, 69, 113
1, 73702, Note_on_c, 0, 70, 113
1, 73778, Note_off_c, 0, 70, 113
1, 73794, Note_on_c, 0, 71, 101
1, 73879, Note_off_c, 0, 71, 101
1, 73888, Note_on_c, 0, 68, 112
1, 74023, Note_off_c, 0, 68, 112
1, 74041, Note_on_c, 0, 64, 101
1, 74089, Note_off_c, 0, 64, 101
1, 74096, Note_on_c, 0, 69, 111
1, 74185, Note_off_c, 0, 69, 111
1, 74196, Note_on_c, 0, 70, 109
1, 74266, Note_off_c, 0, 70, 109
1, 74280, Note_on_c, 0, 67, 110
1, 74387, Note_off_c, 0, 67, 110
1, 74401, Note_on_c, 0, 64, 113
1, 74452, Note_off_c, 0, 64, 113
1, 74452, Note_on_c, 0, 68, 110
1, 74555, Note_off_c, 0, 68, 110
1, 74558, Note_on_c, 0, 69, 113
1, 74656, Note_off_c, 0, 69, 113
1, 74661, Note_on_c, 0, 65, 109
1, 74777, Note_off_c, 0, 65, 109
1, 74814, Note_on_c, 0, 62, 105
1, 74852, Note_off_c, 0, 62, 105
1, 74857, Note_on_c, 0, 66, 113
1, 74931, Note_off_c, 0, 66, 113
1, 74934, Note_on_c, 0, 67, 112
1, 75013, Note_off_c, 0, 67, 112
1, 75013, Note_on_c, 0, 63, 118
1, 75148, Note_off_c, 0, 63, 118
1, 75185, Note_on_c, 0, 61, 108
1, 75225, Note_off_c, 0, 61, 108
1, 75225, Note_on_c, 0, 65, 118
1, 75284, Note_off_c, 0, 65, 118
1, 75291, Note_on_c, 0, 64, 121
1, 75354, Note_off_c, 0, 64, 121
1, 75370, Note_on_c, 0, 63, 118
1, 75466, Note_off_c, 0, 63, 118
1, 75486, Note_on_c, 0, 65, 116
1, 75571, Note_off_c, 0, 65, 116
1, 75589, Note_on_c, 0, 60, 110
1, 75674, Note_off_c, 0, 60, 110
1, 75681, Note_on_c, 0, 63, 120
1, 75747, Note_off_c, 0, 63, 120
1, 75769, Note_on_c, 0, 62, 114
1, 75845, Note_off_c, 0, 62, 114
1, 75869, Note_on_c, 0, 60, 102
1, 75928, Note_off_c, 0, 60, 102
1, 75928, Note_on_c, 0, 58, 111
1, 76033, Note_off_c, 0, 58, 111
1, 76049, Note_on_c, 0, 53, 101
1, 76178, Note_off_c, 0, 53, 101
1, 76337, Note_on_c, 0, 69, 120
1, 76426, Note_off_c, 0, 69, 120
1, 76431, Note_on_c, 0, 67, 112
1, 76512, Note_off_c, 0, 67, 112
1, 76523, Note_on_c, 0, 65, 113
1, 76604, Note_off_c, 0, 65, 113
1, 76628, Note_on_c, 0, 64, 120
1, 76718, Note_off_c, 0, 64, 120
1, 76732, Note_on_c, 0, 63, 121
1, 76811, Note_off_c, 0, 63, 121
1, 76825, Note_on_c, 0, 65, 110
1, 76882, Note_off_c, 0, 65, 110
1, 76891, Note_on_c, 0, 67, 105
1, 76955, Note_off_c, 0, 67, 105
1, 77006, Note_on_c, 0, 73, 104
1, 77054, Note_off_c, 0, 73, 104
1, 77122, Note_on_c, 0, 77, 118
1, 77205, Note_off_c, 0, 77, 118
1, 77208, Note_on_c, 0, 76, 118
1, 77269, Note_off_c, 0, 76, 118
1, 77272, Note_on_c, 0, 75, 110
1, 77340, Note_off_c, 0, 75, 110
1, 77360, Note_on_c, 0, 74, 115
1, 77411, Note_off_c, 0, 74, 115
1, 77423, Note_on_c, 0, 72, 110
1, 77487, Note_off_c, 0, 72, 110
1, 77525, Note_on_c, 0, 70, 105
1, 77591, Note_off_c, 0, 70, 105
1, 77605, Note_on_c, 0, 69, 112
1, 77708, Note_off_c, 0, 69, 112
1, 77711, Note_on_c, 0, 67, 112
1, 77800, Note_off_c, 0, 67, 112
1, 77805, Note_on_c, 0, 65, 114
1, 77869, Note_off_c, 0, 65, 114
1, 77876, Note_on_c, 0, 64, 114
1, 77942, Note_off_c, 0, 64, 114
1, 77949, Note_on_c, 0, 63, 119
1, 78047, Note_off_c, 0, 63, 119
1, 78089, Note_on_c, 0, 66, 114
1, 78174, Note_off_c, 0, 66, 114
1, 78190, Note_on_c, 0, 62, 117
1, 78267, Note_off_c, 0, 62, 117
1, 78276, Note_on_c, 0, 61, 112
1, 78368, Note_off_c, 0, 61, 112
1, 78390, Note_on_c, 0, 56, 107
1, 78508, Note_off_c, 0, 56, 107
1, 78533, Note_on_c, 0, 53, 119
1, 78573, Note_off_c, 0, 53, 119
1, 78573, Note_on_c, 0, 58, 105
1, 79088, Note_off_c, 0, 58, 105
1, 79097, Note_on_c, 0, 56, 97
1, 79158, Note_off_c, 0, 56, 97
1, 79172, Note_on_c, 0, 58, 100
1, 79318, Note_off_c, 0, 58, 100
1, 79318, End_track
0, 0, End_of_file
