0, 0, Header, 1, 1, 192
1, 0, Start_track
1, 0, Title_t, "Melody"
1, 0, Tempo, 200668
1, 0, Key_signature, -2, "major"
1, 0, Time_signature, 4, 2, 24, 8
1, 4961, Note_on_c, 0, 54, 108
1, 5043, Note_off_c, 0, 54, 108
1, 5058, Note_on_c, 0, 53, 106
1, 5138, Note_off_c, 0, 53, 106
1, 5149, Note_on_c, 0, 52, 109
1, 5231, Note_off_c, 0, 52, 109
1, 5231, Note_on_c, 0, 51, 105
1, 5309, Note_off_c, 0, 51, 105
1, 5332, Note_on_c, 0, 53, 112
1, 5415, Note_off_c, 0, 53, 112
1, 5430, Note_on_c, 0, 50, 107
1, 5634, Note_off_c, 0, 50, 107
1, 5634, Note_on_c, 0, 53, 111
1, 5724, Note_off_c, 0, 53, 111
1, 5753, Note_on_c, 0, 50, 96
1, 5822, Note_off_c, 0, 50, 96
1, 5822, Note_on_c, 0, 51, 109
1, 6006, Note_off_c, 0, 51, 109
1, 6007, Note_on_c, 0, 55, 106
1, 6098, Note_off_c, 0, 55, 106
1, 6121, Note_on_c, 0, 52, 98
1, 6198, Note_off_c, 0, 52, 98
1, 6198, Note_on_c, 0, 53, 110
1, 6384, Note_off_c, 0, 53, 110
1, 6384, Note_on_c, 0, 50, 107
1, 6499, Note_off_c, 0, 50, 107
1, 6504, Note_on_c, 0, 48, 106
1, 6695, Note_off_c, 0, 48, 106
1, 6695, Note_on_c, 0, 51, 108
1, 6882, Note_off_c, 0, 51, 108
1, 6913, Note_on_c, 0, 50, 107
1, 7075, Note_off_c, 0, 50, 107
1, 7111, Note_on_c, 0, 48, 105
1, 7279, Note_off_c, 0, 48, 105
1, 7323, Note_on_c, 0, 46, 107
1, 7522, Note_off_c, 0, 46, 107
1, 7545, Note_on_c, 0, 44, 110
1, 7883, Note_off_c, 0, 44, 110
1, 8520, Note_on_c, 0, 68, 117
1, 8613, Note_on_c, 0, 67, 113
1, 8613, Note_off_c, 0, 68, 117
1, 8678, Note_off_c, 0, 67, 113
1, 8687, Note_on_c, 0, 63, 115
1, 8799, Note_off_c, 0, 63, 115
1, 8799, Note_on_c, 0, 58, 103
1, 8917, Note_off_c, 0, 58, 103
1, 8926, Note_on_c, 0, 56, 92
1, 8987, Note_off_c, 0, 56, 92
1, 8989, Note_on_c, 0, 61, 111
1, 9115, Note_off_c, 0, 61, 111
1, 9115, Note_on_c, 0, 63, 101
1, 9176, Note_off_c, 0, 63, 101
1, 9189, Note_on_c, 0, 65, 113
1, 9275, Note_off_c, 0, 65, 113
1, 9302, Note_on_c, 0, 61, 96
1, 9389, Note_on_c, 0, 64, 110
1, 9389, Note_off_c, 0, 61, 96
1, 9511, Note_off_c, 0, 64, 110
1, 9511, Note_on_c, 0, 68, 113
1, 9609, Note_off_c, 0, 68, 113
1, 9609, Note_on_c, 0, 71, 107
1, 9695, Note_off_c, 0, 71, 107
1, 9744, Note_on_c, 0, 64, 101
1, 9775, Note_off_c, 0, 64, 101
1, 9775, Note_on_c, 0, 68, 106
1, 9837, Note_off_c, 0, 68, 106
1, 9837, Note_on_c, 0, 70, 109
1, 10027, Note_off_c, 0, 70, 109
1, 10027, Note_on_c, 0, 73, 108
1, 10308, Note_off_c, 0, 73, 108
1, 10310, Note_on_c, 0, 72, 106
1, 10336, Note_off_c, 0, 72, 106
1, 10336, Note_on_c, 0, 71, 105
1, 10366, Note_on_c, 0, 70, 105
1, 10366, Note_off_c, 0, 71, 105
1, 10525, Note_off_c, 0, 70, 105
1, 10638, Note_on_c, 0, 71, 109
1, 10682, Note_off_c, 0, 71, 109
1, 10687, Note_on_c, 0, 72, 108
1, 10909, Note_off_c, 0, 72, 108
1, 10913, Note_on_c, 0, 71, 106
1, 10937, Note_off_c, 0, 71, 106
1, 10950, Note_on_c, 0, 70, 108
1, 10999, Note_off_c, 0, 70, 108
1, 11021, Note_on_c, 0, 68, 111
1, 11173, Note_off_c, 0, 68, 111
1, 11763, Note_on_c, 0, 69, 114
1, 11853, Note_off_c, 0, 69, 114
1, 11861, Note_on_c, 0, 73, 103
1, 11944, Note_off_c, 0, 73, 103
1, 11948, Note_on_c, 0, 71, 108
1, 12025, Note_off_c, 0, 71, 108
1, 12048, Note_on_c, 0, 69, 111
1, 12111, Note_off_c, 0, 69, 111
1, 12119, Note_on_c, 0, 68, 112
1, 12223, Note_off_c, 0, 68, 112
1, 12229, Note_on_c, 0, 67, 112
1, 12331, Note_off_c, 0, 67, 112
1, 12339, Note_on_c, 0, 66, 110
1, 12441, Note_off_c, 0, 66, 110
1, 12465, Note_on_c, 0, 64, 111
1, 12539, Note_off_c, 0, 64, 111
1, 12547, Note_on_c, 0, 65, 111
1, 12603, Note_off_c, 0, 65, 111
1, 12618, Note_on_c, 0, 64, 114
1, 12701, Note_off_c, 0, 64, 114
1, 12709, Note_on_c, 0, 63, 113
1, 12790, Note_off_c, 0, 63, 113
1, 12808, Note_on_c, 0, 67, 107
1, 12906, Note_off_c, 0, 67, 107
1, 12908, Note_on_c, 0, 65, 109
1, 12998, Note_off_c, 0, 65, 109
1, 13022, Note_on_c, 0, 61, 107
1, 13102, Note_off_c, 0, 61, 107
1, 13107, Note_on_c, 0, 56, 101
1, 13219, Note_off_c, 0, 56, 101
1, 13231, Note_on_c, 0, 53, 102
1, 13283, Note_off_c, 0, 53, 102
1, 13283, Note_on_c, 0, 63, 117
1, 13403, Note_off_c, 0, 63, 117
1, 13466, Note_on_c, 0, 64, 119
1, 13588, Note_off_c, 0, 64, 119
1, 13672, Note_on_c, 0, 65, 115
1, 13859, Note_off_c, 0, 65, 115
1, 13867, Note_on_c, 0, 66, 114
1, 13978, Note_off_c, 0, 66, 114
1, 14841, Note_on_c, 0, 65, 118
1, 14939, Note_off_c, 0, 65, 118
1, 14957, Note_on_c, 0, 62, 119
1, 15047, Note_off_c, 0, 62, 119
1, 15062, Note_on_c, 0, 58, 93
1, 15146, Note_off_c, 0, 58, 93
1, 15209, Note_on_c, 0, 60, 116
1, 15315, Note_off_c, 0, 60, 116
1, 15417, Note_on_c, 0, 56, 112
1, 15540, Note_off_c, 0, 56, 112
1, 15558, Note_on_c, 0, 53, 103
1, 15607, Note_off_c, 0, 53, 103
1, 15609, Note_on_c, 0, 58, 110
1, 15707, Note_off_c, 0, 58, 110
1, 15719, Note_on_c, 0, 56, 110
1, 15795, Note_off_c, 0, 56, 110
1, 15795, Note_on_c, 0, 53, 111
1, 15899, Note_off_c, 0, 53, 111
1, 15899, Note_on_c, 0, 51, 113
1, 15979, Note_off_c, 0, 51, 113
1, 15981, Note_on_c, 0, 48, 111
1, 16186, Note_off_c, 0, 48, 111
1, 16194, Note_on_c, 0, 50, 110
1, 16384, Note_off_c, 0, 50, 110
1, 16385, Note_on_c, 0, 53, 110
1, 16554, Note_off_c, 0, 53, 110
1, 16576, Note_on_c, 0, 58, 107
1, 16734, Note_off_c, 0, 58, 107
1, 17624, Note_on_c, 0, 58, 109
1, 17700, Note_off_c, 0, 58, 109
1, 17709, Note_on_c, 0, 59, 104
1, 17779, Note_off_c, 0, 59, 104
1, 17787, Note_on_c, 0, 64, 107
1, 17843, Note_off_c, 0, 64, 107
1, 17855, Note_on_c, 0, 68, 99
1, 17931, Note_off_c, 0, 68, 99
1, 17931, Note_on_c, 0, 71, 115
1, 18032, Note_off_c, 0, 71, 115
1, 18038, Note_on_c, 0, 68, 93
1, 18101, Note_off_c, 0, 68, 93
1, 18116, Note_on_c, 0, 69, 108
1, 18211, Note_off_c, 0, 69, 108
1, 18217, Note_on_c, 0, 71, 112
1, 18322, Note_off_c, 0, 71, 112
1, 18327, Note_on_c, 0, 72, 112
1, 18449, Note_off_c, 0, 72, 112
1, 18462, Note_on_c, 0, 73, 109
1, 18571, Note_off_c, 0, 73, 109
1, 18622, Note_on_c, 0, 70, 112
1, 18709, Note_off_c, 0, 70, 112
1, 18788, Note_on_c, 0, 66, 106
1, 18892, Note_off_c, 0, 66, 106
1, 18893, Note_on_c, 0, 61, 104
1, 18954, Note_off_c, 0, 61, 104
1, 18988, Note_on_c, 0, 59, 105
1, 19074, Note_off_c, 0, 59, 105
1, 19074, Note_on_c, 0, 63, 119
1, 19187, Note_off_c, 0, 63, 119
1, 19192, Note_on_c, 0, 66, 109
1, 19262, Note_off_c, 0, 66, 109
1, 19273, Note_on_c, 0, 68, 109
1, 19364, Note_off_c, 0, 68, 109
1, 19364, Note_on_c, 0, 73, 102
1, 19457, Note_off_c, 0, 73, 102
1, 19458, Note_on_c, 0, 71, 106
1, 19551, Note_off_c, 0, 71, 106
1, 19567, Note_on_c, 0, 69, 106
1, 19633, Note_off_c, 0, 69, 106
1, 19652, Note_on_c, 0, 68, 109
1, 19725, Note_off_c, 0, 68, 109
1, 19752, Note_on_c, 0, 67, 107
1, 19821, Note_off_c, 0, 67, 107
1, 19839, Note_on_c, 0, 66, 104
1, 19930, Note_off_c, 0, 66, 104
1, 19943, Note_on_c, 0, 69, 107
1, 20022, Note_off_c, 0, 69, 107
1, 20024, Note_on_c, 0, 65, 105
1, 20121, Note_off_c, 0, 65, 105
1, 20129, Note_on_c, 0, 64, 113
1, 20212, Note_off_c, 0, 64, 113
1, 20221, Note_on_c, 0, 63, 111
1, 20319, Note_off_c, 0, 63, 111
1, 20321, Note_on_c, 0, 65, 109
1, 20414, Note_off_c, 0, 65, 109
1, 20422, Note_on_c, 0, 67, 101
1, 20496, Note_off_c, 0, 67, 101
1, 20512, Note_on_c, 0, 69, 98
1, 20602, Note_off_c, 0, 69, 98
1, 20602, Note_on_c, 0, 71, 110
1, 20704, Note_off_c, 0, 71, 110
1, 20720, Note_on_c, 0, 73, 104
1, 20770, Note_off_c, 0, 73, 104
1, 20777, Note_on_c, 0, 74, 103
1, 20874, Note_off_c, 0, 74, 103
1, 20918, Note_on_c, 0, 71, 89
1, 20997, Note_off_c, 0, 71, 89
1, 21002, Note_on_c, 0, 72, 108
1, 21049, Note_off_c, 0, 72, 108
1, 21054, Note_on_c, 0, 71, 102
1, 21130, Note_off_c, 0, 71, 102
1, 21149, Note_on_c, 0, 69, 103
1, 21236, Note_off_c, 0, 69, 103
1, 21245, Note_on_c, 0, 68, 104
1, 21328, Note_off_c, 0, 68, 104
1, 21340, Note_on_c, 0, 67, 105
1, 21442, Note_off_c, 0, 67, 105
1, 21442, Note_on_c, 0, 73, 103
1, 21521, Note_off_c, 0, 73, 103
1, 21536, Note_on_c, 0, 71, 107
1, 21635, Note_off_c, 0, 71, 107
1, 21651, Note_on_c, 0, 69, 104
1, 21731, Note_off_c, 0, 69, 104
1, 21735, Note_on_c, 0, 68, 106
1, 21809, Note_off_c, 0, 68, 106
1, 21818, Note_on_c, 0, 66, 108
1, 21954, Note_off_c, 0, 66, 108
1, 21956, Note_on_c, 0, 65, 106
1, 22008, Note_off_c, 0, 65, 106
1, 22023, Note_on_c, 0, 64, 110
1, 22111, Note_off_c, 0, 64, 110
1, 22119, Note_on_c, 0, 63, 115
1, 22200, Note_off_c, 0, 63, 115
1, 22218, Note_on_c, 0, 67, 103
1, 22284, Note_off_c, 0, 67, 103
1, 22296, Note_on_c, 0, 65, 104
1, 22625, Note_off_c, 0, 65, 104
1, 22625, Note_on_c, 0, 66, 106
1, 22688, Note_off_c, 0, 66, 106
1, 22700, Note_on_c, 0, 64, 109
1, 22872, Note_off_c, 0, 64, 109
1, 22878, Note_on_c, 0, 63, 113
1, 22971, Note_off_c, 0, 63, 113
1, 22977, Note_on_c, 0, 62, 111
1, 23061, Note_off_c, 0, 62, 111
1, 23074, Note_on_c, 0, 61, 109
1, 23140, Note_off_c, 0, 61, 109
1, 23149, Note_on_c, 0, 65, 111
1, 23242, Note_off_c, 0, 65, 111
1, 23242, Note_on_c, 0, 63, 113
1, 23319, Note_off_c, 0, 63, 113
1, 23334, Note_on_c, 0, 61, 107
1, 23439, Note_off_c, 0, 61, 107
1, 23445, Note_on_c, 0, 57, 110
1, 23518, Note_off_c, 0, 57, 110
1, 23608, Note_on_c, 0, 60, 104
1, 23655, Note_off_c, 0, 60, 104
1, 23671, Note_on_c, 0, 62, 110
1, 23714, Note_off_c, 0, 62, 110
1, 23809, Note_on_c, 0, 62, 111
1, 23913, Note_off_c, 0, 62, 111
1, 25934, Note_on_c, 0, 61, 117
1, 26020, Note_off_c, 0, 61, 117
1, 26100, Note_on_c, 0, 62, 124
1, 26219, Note_off_c, 0, 62, 124
1, 26271, Note_on_c, 0, 58, 106
1, 26318, Note_off_c, 0, 58, 106
1, 26319, Note_on_c, 0, 61, 117
1, 26406, Note_off_c, 0, 61, 117
1, 26424, Note_on_c, 0, 62, 124
1, 26548, Note_off_c, 0, 62, 124
1, 26697, Note_on_c, 0, 60, 117
1, 26778, Note_off_c, 0, 60, 117
1, 26884, Note_on_c, 0, 61, 118
1, 27003, Note_off_c, 0, 61, 118
1, 28358, Note_on_c, 0, 53, 113
1, 28443, Note_off_c, 0, 53, 113
1, 28443, Note_on_c, 0, 58, 107
1, 28521, Note_off_c, 0, 58, 107
1, 28535, Note_on_c, 0, 62, 123
1, 28604, Note_off_c, 0, 62, 123
1, 28605, Note_on_c, 0, 63, 124
1, 28717, Note_off_c, 0, 63, 124
1, 28732, Note_on_c, 0, 61, 102
1, 28809, Note_off_c, 0, 61, 102
1, 28817, Note_on_c, 0, 62, 121
1, 28903, Note_off_c, 0, 62, 121
1, 28916, Note_on_c, 0, 60, 101
1, 28989, Note_off_c, 0, 60, 101
1, 29008, Note_on_c, 0, 59, 108
1, 29087, Note_off_c, 0, 59, 108
1, 29110, Note_on_c, 0, 62, 106
1, 29153, Note_off_c, 0, 62, 106
1, 29164, Note_on_c, 0, 65, 116
1, 29257, Note_off_c, 0, 65, 116
1, 29301, Note_on_c, 0, 62, 110
1, 29360, Note_on_c, 0, 68, 117
1, 29360, Note_off_c, 0, 62, 110
1, 29419, Note_off_c, 0, 68, 117
1, 29441, Note_on_c, 0, 66, 114
1, 29522, Note_off_c, 0, 66, 114
1, 29538, Note_on_c, 0, 65, 111
1, 29579, Note_off_c, 0, 65, 111
1, 29601, Note_on_c, 0, 64, 116
1, 29694, Note_off_c, 0, 64, 116
1, 29696, Note_on_c, 0, 63, 117
1, 29775, Note_off_c, 0, 63, 117
1, 29806, Note_on_c, 0, 62, 117
1, 29904, Note_off_c, 0, 62, 117
1, 29904, Note_on_c, 0, 60, 110
1, 29966, Note_off_c, 0, 60, 110
1, 29979, Note_on_c, 0, 59, 106
1, 30109, Note_off_c, 0, 59, 106
1, 30109, Note_on_c, 0, 58, 112
1, 30168, Note_off_c, 0, 58, 112
1, 30184, Note_on_c, 0, 55, 107
1, 30250, Note_off_c, 0, 55, 107
1, 30274, Note_on_c, 0, 51, 108
1, 30421, Note_off_c, 0, 51, 108
1, 30437, Note_on_c, 0, 49, 98
1, 30488, Note_off_c, 0, 49, 98
1, 30488, Note_on_c, 0, 53, 112
1, 30596, Note_off_c, 0, 53, 112
1, 30597, Note_on_c, 0, 52, 112
1, 30666, Note_off_c, 0, 52, 112
1, 30678, Note_on_c, 0, 51, 109
1, 30771, Note_off_c, 0, 51, 109
1, 30773, Note_on_c, 0, 53, 109
1, 30885, Note_off_c, 0, 53, 109
1, 30894, Note_on_c, 0, 50, 103
1, 30934, Note_off_c, 0, 50, 103
1, 30988, Note_on_c, 0, 53, 112
1, 31060, Note_on_c, 0, 57, 107
1, 31060, Note_off_c, 0, 53, 112
1, 31155, Note_off_c, 0, 57, 107
1, 31175, Note_on_c, 0, 60, 112
1, 31276, Note_off_c, 0, 60, 112
1, 31291, Note_on_c, 0, 58, 108
1, 31363, Note_off_c, 0, 58, 108
1, 31381, Note_on_c, 0, 60, 107
1, 31500, Note_off_c, 0, 60, 107
1, 31540, Note_on_c, 0, 62, 102
1, 31591, Note_off_c, 0, 62, 102
1, 31595, Note_on_c, 0, 65, 99
1, 31628, Note_off_c, 0, 65, 99
1, 31628, Note_on_c, 0, 70, 116
1, 31732, Note_off_c, 0, 70, 116
1, 31752, Note_on_c, 0, 62, 114
1, 31864, Note_off_c, 0, 62, 114
1, 33960, Note_on_c, 0, 65, 121
1, 34047, Note_off_c, 0, 65, 121
1, 34052, Note_on_c, 0, 64, 119
1, 34125, Note_off_c, 0, 64, 119
1, 34137, Note_on_c, 0, 63, 116
1, 34228, Note_off_c, 0, 63, 116
1, 34271, Note_on_c, 0, 58, 94
1, 34323, Note_off_c, 0, 58, 94
1, 34323, Note_on_c, 0, 60, 112
1, 34384, Note_off_c, 0, 60, 112
1, 34399, Note_on_c, 0, 62, 111
1, 34508, Note_off_c, 0, 62, 111
1, 34521, Note_on_c, 0, 63, 119
1, 34620, Note_off_c, 0, 63, 119
1, 34653, Note_on_c, 0, 61, 104
1, 34705, Note_on_c, 0, 62, 118
1, 34705, Note_off_c, 0, 61, 104
1, 34806, Note_off_c, 0, 62, 118
1, 34808, Note_on_c, 0, 60, 108
1, 34902, Note_off_c, 0, 60, 108
1, 34902, Note_on_c, 0, 58, 102
1, 34978, Note_off_c, 0, 58, 102
1, 35030, Note_on_c, 0, 55, 95
1, 35096, Note_off_c, 0, 55, 95
1, 35098, Note_on_c, 0, 60, 115
1, 35193, Note_off_c, 0, 60, 115
1, 35211, Note_on_c, 0, 56, 107
1, 35288, Note_off_c, 0, 56, 107
1, 35308, Note_on_c, 0, 55, 107
1, 35398, Note_off_c, 0, 55, 107
1, 35410, Note_on_c, 0, 53, 106
1, 35478, Note_off_c, 0, 53, 106
1, 35478, Note_on_c, 0, 58, 110
1, 35583, Note_off_c, 0, 58, 110
1, 35602, Note_on_c, 0, 55, 111
1, 35663, Note_off_c, 0, 55, 111
1, 35674, Note_on_c, 0, 56, 106
1, 35769, Note_off_c, 0, 56, 106
1, 35769, Note_on_c, 0, 58, 108
1, 35852, Note_off_c, 0, 58, 108
1, 35852, Note_on_c, 0, 55, 102
1, 35935, Note_off_c, 0, 55, 102
1, 35950, Note_on_c, 0, 54, 107
1, 36026, Note_off_c, 0, 54, 107
1, 36039, Note_on_c, 0, 53, 109
1, 36123, Note_off_c, 0, 53, 109
1, 36150, Note_on_c, 0, 52, 106
1, 36248, Note_off_c, 0, 52, 106
1, 36248, Note_on_c, 0, 51, 108
1, 36349, Note_off_c, 0, 51, 108
1, 36361, Note_on_c, 0, 54, 107
1, 36409, Note_off_c, 0, 54, 107
1, 36421, Note_on_c, 0, 58, 107
1, 36512, Note_off_c, 0, 58, 107
1, 36538, Note_on_c, 0, 61, 98
1, 36603, Note_off_c, 0, 61, 98
1, 36616, Note_on_c, 0, 65, 114
1, 36718, Note_off_c, 0, 65, 114
1, 36729, Note_on_c, 0, 63, 102
1, 36809, Note_off_c, 0, 63, 102
1, 36815, Note_on_c, 0, 70, 107
1, 36895, Note_off_c, 0, 70, 107
1, 36921, Note_on_c, 0, 66, 109
1, 37000, Note_off_c, 0, 66, 109
1, 37011, Note_on_c, 0, 65, 108
1, 37087, Note_off_c, 0, 65, 108
1, 37100, Note_on_c, 0, 64, 117
1, 37166, Note_off_c, 0, 64, 117
1, 37177, Note_on_c, 0, 63, 115
1, 37265, Note_off_c, 0, 63, 115
1, 37278, Note_on_c, 0, 65, 113
1, 37372, Note_off_c, 0, 65, 113
1, 37377, Note_on_c, 0, 62, 112
1, 37492, Note_off_c, 0, 62, 112
1, 37497, Note_on_c, 0, 60, 111
1, 37569, Note_off_c, 0, 60, 111
1, 37575, Note_on_c, 0, 57, 107
1, 37661, Note_off_c, 0, 57, 107
1, 37676, Note_on_c, 0, 53, 104
1, 37756, Note_off_c, 0, 53, 104
1, 37756, Note_on_c, 0, 58, 108
1, 37861, Note_off_c, 0, 58, 108
1, 37887, Note_on_c, 0, 53, 92
1, 37939, Note_off_c, 0, 53, 92
1, 37939, Note_on_c, 0, 58, 105
1, 38055, Note_off_c, 0, 58, 105
1, 38055, Note_on_c, 0, 62, 116
1, 38145, Note_off_c, 0, 62, 116
1, 38157, Note_on_c, 0, 63, 117
1, 38245, Note_off_c, 0, 63, 117
1, 38268, Note_on_c, 0, 61, 106
1, 38336, Note_off_c, 0, 61, 106
1, 38347, Note_on_c, 0, 62, 113
1, 38444, Note_off_c, 0, 62, 113
1, 38457, Note_on_c, 0, 60, 105
1, 38554, Note_off_c, 0, 60, 105
1, 38554, Note_on_c, 0, 59, 101
1, 38637, Note_off_c, 0, 59, 101
1, 38666, Note_on_c, 0, 62, 104
1, 38715, Note_off_c, 0, 62, 104
1, 38731, Note_on_c, 0, 65, 113
1, 38830, Note_off_c, 0, 65, 113
1, 38886, Note_on_c, 0, 62, 104
1, 38940, Note_off_c, 0, 62, 104
1, 38946, Note_on_c, 0, 68, 111
1, 39008, Note_off_c, 0, 68, 111
1, 39015, Note_on_c, 0, 67, 105
1, 39098, Note_off_c, 0, 67, 105
1, 39147, Note_on_c, 0, 65, 105
1, 39217, Note_off_c, 0, 65, 105
1, 39218, Note_on_c, 0, 64, 117
1, 39301, Note_off_c, 0, 64, 117
1, 39337, Note_on_c, 0, 63, 112
1, 39419, Note_off_c, 0, 63, 112
1, 39424, Note_on_c, 0, 65, 106
1, 39472, Note_off_c, 0, 65, 106
1, 39475, Note_on_c, 0, 68, 97
1, 39513, Note_off_c, 0, 68, 97
1, 39621, Note_on_c, 0, 71, 97
1, 39668, Note_off_c, 0, 71, 97
1, 39708, Note_on_c, 0, 74, 108
1, 39791, Note_off_c, 0, 74, 108
1, 39800, Note_on_c, 0, 73, 108
1, 39846, Note_off_c, 0, 73, 108
1, 39851, Note_on_c, 0, 72, 108
1, 39914, Note_off_c, 0, 72, 108
1, 39919, Note_on_c, 0, 71, 109
1, 39978, Note_off_c, 0, 71, 109
1, 39996, Note_on_c, 0, 69, 108
1, 40060, Note_off_c, 0, 69, 108
1, 40068, Note_on_c, 0, 67, 102
1, 40146, Note_off_c, 0, 67, 102
1, 40161, Note_on_c, 0, 66, 107
1, 40247, Note_off_c, 0, 66, 107
1, 40272, Note_on_c, 0, 65, 108
1, 40336, Note_off_c, 0, 65, 108
1, 40350, Note_on_c, 0, 64, 116
1, 40432, Note_off_c, 0, 64, 116
1, 40435, Note_on_c, 0, 63, 112
1, 40535, Note_off_c, 0, 63, 112
1, 40535, Note_on_c, 0, 67, 107
1, 40631, Note_off_c, 0, 67, 107
1, 40631, Note_on_c, 0, 65, 108
1, 40707, Note_off_c, 0, 65, 108
1, 40720, Note_on_c, 0, 61, 106
1, 40798, Note_off_c, 0, 61, 106
1, 40798, Note_on_c, 0, 58, 104
1, 40886, Note_off_c, 0, 58, 104
1, 40901, Note_on_c, 0, 55, 103
1, 40961, Note_off_c, 0, 55, 103
1, 40989, Note_on_c, 0, 61, 111
1, 41105, Note_off_c, 0, 61, 111
1, 41111, Note_on_c, 0, 58, 94
1, 41174, Note_off_c, 0, 58, 94
1, 41184, Note_on_c, 0, 62, 117
1, 41287, Note_off_c, 0, 62, 117
1, 41354, Note_on_c, 0, 63, 108
1, 41531, Note_off_c, 0, 63, 108
1, 41554, Note_on_c, 0, 64, 116
1, 41683, Note_off_c, 0, 64, 116
1, 41706, Note_on_c, 0, 60, 100
1, 41761, Note_off_c, 0, 60, 100
1, 41771, Note_on_c, 0, 65, 101
1, 41893, Note_off_c, 0, 65, 101
1, 42606, Note_on_c, 0, 53, 111
1, 42915, Note_off_c, 0, 53, 111
1, 42915, Note_on_c, 0, 58, 110
1, 43002, Note_off_c, 0, 58, 110
1, 43027, Note_on_c, 0, 53, 97
1, 43075, Note_off_c, 0, 53, 97
1, 43075, Note_on_c, 0, 60, 115
1, 43183, Note_off_c, 0, 60, 115
1, 43639, Note_on_c, 0, 53, 104
1, 43842, Note_off_c, 0, 53, 104
1, 43853, Note_on_c, 0, 58, 107
1, 43957, Note_off_c, 0, 58, 107
1, 44524, Note_on_c, 0, 54, 101
1, 44775, Note_off_c, 0, 54, 101
1, 44775, Note_on_c, 0, 59, 114
1, 44884, Note_off_c, 0, 59, 114
1, 44895, Note_on_c, 0, 54, 106
1, 44953, Note_off_c, 0, 54, 106
1, 44957, Note_on_c, 0, 61, 114
1, 45046, Note_off_c, 0, 61, 114
1, 45053, Note_on_c, 0, 63, 115
1, 45131, Note_off_c, 0, 63, 115
1, 45134, Note_on_c, 0, 64, 117
1, 45265, Note_off_c, 0, 64, 117
1, 45680, Note_on_c, 0, 66, 118
1, 45767, Note_off_c, 0, 66, 118
1, 45774, Note_on_c, 0, 63, 119
1, 45874, Note_off_c, 0, 63, 119
1, 45874, Note_on_c, 0, 61, 108
1, 45962, Note_off_c, 0, 61, 108
1, 45965, Note_on_c, 0, 59, 108
1, 46013, Note_off_c, 0, 59, 108
1, 46020, Note_on_c, 0, 58, 92
1, 46109, Note_off_c, 0, 58, 92
1, 46126, Note_on_c, 0, 59, 109
1, 46208, Note_off_c, 0, 59, 109
1, 46224, Note_on_c, 0, 61, 111
1, 46306, Note_off_c, 0, 61, 111
1, 46317, Note_on_c, 0, 63, 115
1, 46417, Note_off_c, 0, 63, 115
1, 46423, Note_on_c, 0, 66, 112
1, 46504, Note_off_c, 0, 66, 112
1, 46509, Note_on_c, 0, 65, 113
1, 46595, Note_off_c, 0, 65, 113
1, 46597, Note_on_c, 0, 64, 120
1, 46688, Note_off_c, 0, 64, 120
1, 46689, Note_on_c, 0, 63, 120
1, 46772, Note_off_c, 0, 63, 120
1, 46772, Note_on_c, 0, 67, 110
1, 46844, Note_off_c, 0, 67, 110
1, 46871, Note_on_c, 0, 62, 114
1, 46973, Note_off_c, 0, 62, 114
1, 46974, Note_on_c, 0, 64, 117
1, 47061, Note_off_c, 0, 64, 117
1, 47068, Note_on_c, 0, 65, 112
1, 47168, Note_off_c, 0, 65, 112
1, 47172, Note_on_c, 0, 62, 102
1, 47249, Note_off_c, 0, 62, 102
1, 47252, Note_on_c, 0, 63, 120
1, 47351, Note_off_c, 0, 63, 120
1, 47360, Note_on_c, 0, 61, 108
1, 47445, Note_off_c, 0, 61, 108
1, 47445, Note_on_c, 0, 62, 114
1, 47528, Note_off_c, 0, 62, 114
1, 47533, Note_on_c, 0, 60, 108
1, 47617, Note_off_c, 0, 60, 108
1, 47617, Note_on_c, 0, 59, 104
1, 47700, Note_off_c, 0, 59, 104
1, 47718, Note_on_c, 0, 62, 110
1, 47794, Note_off_c, 0, 62, 110
1, 47796, Note_on_c, 0, 65, 110
1, 47903, Note_off_c, 0, 65, 110
1, 47933, Note_on_c, 0, 62, 101
1, 47977, Note_off_c, 0, 62, 101
1, 47977, Note_on_c, 0, 67, 118
1, 48079, Note_off_c, 0, 67, 118
1, 48083, Note_on_c, 0, 66, 113
1, 48170, Note_off_c, 0, 66, 113
1, 48176, Note_on_c, 0, 65, 114
1, 48238, Note_off_c, 0, 65, 114
1, 48253, Note_on_c, 0, 64, 118
1, 48347, Note_off_c, 0, 64, 118
1, 48357, Note_on_c, 0, 63, 113
1, 48443, Note_off_c, 0, 63, 113
1, 48452, Note_on_c, 0, 65, 109
1, 48511, Note_off_c, 0, 65, 109
1, 48519, Note_on_c, 0, 67, 108
1, 48581, Note_off_c, 0, 67, 108
1, 48598, Note_on_c, 0, 70, 89
1, 48639, Note_off_c, 0, 70, 89
1, 48685, Note_on_c, 0, 74, 107
1, 48740, Note_off_c, 0, 74, 107
1, 48771, Note_on_c, 0, 77, 106
1, 48888, Note_off_c, 0, 77, 106
1, 48913, Note_on_c, 0, 76, 117
1, 48955, Note_off_c, 0, 76, 117
1, 48956, Note_on_c, 0, 75, 111
1, 49046, Note_off_c, 0, 75, 111
1, 49054, Note_on_c, 0, 74, 107
1, 49139, Note_off_c, 0, 74, 107
1, 49142, Note_on_c, 0, 72, 106
1, 49220, Note_off_c, 0, 72, 106
1, 49265, Note_on_c, 0, 70, 101
1, 49338, Note_off_c, 0, 70, 101
1, 49344, Note_on_c, 0, 69, 111
1, 49414, Note_off_c, 0, 69, 111
1, 49421, Note_on_c, 0, 67, 110
1, 49503, Note_off_c, 0, 67, 110
1, 49504, Note_on_c, 0, 65, 112
1, 49592, Note_off_c, 0, 65, 112
1, 49592, Note_on_c, 0, 64, 115
1, 49674, Note_off_c, 0, 64, 115
1, 49677, Note_on_c, 0, 63, 113
1, 49779, Note_off_c, 0, 63, 113
1, 49789, Note_on_c, 0, 67, 110
1, 49879, Note_off_c, 0, 67, 110
1, 49882, Note_on_c, 0, 62, 113
1, 49979, Note_off_c, 0, 62, 113
1, 49990, Note_on_c, 0, 61, 112
1, 50083, Note_on_c, 0, 60, 113
1, 50083, Note_off_c, 0, 61, 112
1, 50166, Note_off_c, 0, 60, 113
1, 50167, Note_on_c, 0, 59, 111
1, 50256, Note_off_c, 0, 59, 111
1, 50263, Note_on_c, 0, 58, 109
1, 50351, Note_off_c, 0, 58, 109
1, 50372, Note_on_c, 0, 55, 109
1, 50448, Note_off_c, 0, 55, 109
1, 50459, Note_on_c, 0, 51, 108
1, 50528, Note_off_c, 0, 51, 108
1, 50549, Note_on_c, 0, 50, 107
1, 50635, Note_off_c, 0, 50, 107
1, 50635, Note_on_c, 0, 49, 103
1, 50731, Note_off_c, 0, 49, 103
1, 50748, Note_on_c, 0, 52, 109
1, 50807, Note_off_c, 0, 52, 109
1, 50811, Note_on_c, 0, 57, 114
1, 50889, Note_off_c, 0, 57, 114
1, 50912, Note_on_c, 0, 55, 105
1, 50990, Note_off_c, 0, 55, 105
1, 51001, Note_on_c, 0, 54, 112
1, 51116, Note_off_c, 0, 54, 112
1, 51141, Note_on_c, 0, 52, 106
1, 51195, Note_off_c, 0, 52, 106
1, 51195, Note_on_c, 0, 53, 112
1, 51307, Note_off_c, 0, 53, 112
1, 51316, Note_on_c, 0, 51, 111
1, 51390, Note_off_c, 0, 51, 111
1, 51399, Note_on_c, 0, 50, 116
1, 51482, Note_off_c, 0, 50, 116
1, 51498, Note_on_c, 0, 48, 116
1, 51550, Note_off_c, 0, 48, 116
1, 51567, Note_on_c, 0, 46, 118
1, 51626, Note_off_c, 0, 46, 118
1, 51661, Note_on_c, 0, 45, 119
1, 51750, Note_off_c, 0, 45, 119
1, 51752, Note_on_c, 0, 44, 122
1, 51934, Note_off_c, 0, 44, 122
1, 51945, Note_on_c, 0, 51, 116
1, 52058, Note_off_c, 0, 51, 116
1, 52065, Note_on_c, 0, 44, 111
1, 52113, Note_off_c, 0, 44, 111
1, 52124, Note_on_c, 0, 46, 113
1, 52328, Note_off_c, 0, 46, 113
1, 52328, Note_on_c, 0, 53, 113
1, 52454, Note_off_c, 0, 53, 113
1, 53173, Note_on_c, 0, 73, 110
1, 53260, Note_off_c, 0, 73, 110
1, 53265, Note_on_c, 0, 71, 117
1, 53343, Note_off_c, 0, 71, 117
1, 53356, Note_on_c, 0, 66, 99
1, 53438, Note_off_c, 0, 66, 99
1, 53444, Note_on_c, 0, 69, 114
1, 53553, Note_off_c, 0, 69, 114
1, 53564, Note_on_c, 0, 66, 100
1, 53613, Note_off_c, 0, 66, 100
1, 53613, Note_on_c, 0, 68, 110
1, 53717, Note_off_c, 0, 68, 110
1, 53730, Note_on_c, 0, 71, 112
1, 53787, Note_off_c, 0, 71, 112
1, 53792, Note_on_c, 0, 70, 111
1, 53843, Note_off_c, 0, 70, 111
1, 53846, Note_on_c, 0, 69, 107
1, 53903, Note_off_c, 0, 69, 107
1, 53919, Note_on_c, 0, 68, 109
1, 54020, Note_off_c, 0, 68, 109
1, 54025, Note_on_c, 0, 67, 110
1, 54111, Note_off_c, 0, 67, 110
1, 54115, Note_on_c, 0, 69, 106
1, 54202, Note_off_c, 0, 69, 106
1, 54202, Note_on_c, 0, 65, 112
1, 54302, Note_off_c, 0, 65, 112
1, 54307, Note_on_c, 0, 64, 117
1, 54399, Note_off_c, 0, 64, 117
1, 54403, Note_on_c, 0, 63, 116
1, 54507, Note_off_c, 0, 63, 116
1, 54516, Note_on_c, 0, 65, 112
1, 54582, Note_off_c, 0, 65, 112
1, 54595, Note_on_c, 0, 67, 105
1, 54678, Note_off_c, 0, 67, 105
1, 54678, Note_on_c, 0, 70, 98
1, 54733, Note_off_c, 0, 70, 98
1, 54761, Note_on_c, 0, 71, 105
1, 54794, Note_off_c, 0, 71, 105
1, 54830, Note_on_c, 0, 73, 105
1, 54942, Note_off_c, 0, 73, 105
1, 54960, Note_on_c, 0, 70, 104
1, 55049, Note_off_c, 0, 70, 104
1, 55062, Note_on_c, 0, 66, 108
1, 55148, Note_off_c, 0, 66, 108
1, 55169, Note_on_c, 0, 65, 109
1, 55228, Note_off_c, 0, 65, 109
1, 55241, Note_on_c, 0, 64, 110
1, 55323, Note_off_c, 0, 64, 110
1, 55334, Note_on_c, 0, 63, 116
1, 55425, Note_off_c, 0, 63, 116
1, 55430, Note_on_c, 0, 65, 112
1, 55512, Note_off_c, 0, 65, 112
1, 55522, Note_on_c, 0, 64, 110
1, 55607, Note_off_c, 0, 64, 110
1, 55633, Note_on_c, 0, 65, 108
1, 55699, Note_off_c, 0, 65, 108
1, 55699, Note_on_c, 0, 69, 104
1, 55802, Note_off_c, 0, 69, 104
1, 55831, Note_on_c, 0, 72, 112
1, 55892, Note_off_c, 0, 72, 112
1, 55900, Note_on_c, 0, 76, 116
1, 55998, Note_off_c, 0, 76, 116
1, 55998, Note_on_c, 0, 72, 110
1, 56080, Note_off_c, 0, 72, 110
1, 56080, Note_on_c, 0, 69, 100
1, 56166, Note_off_c, 0, 69, 100
1, 56262, Note_on_c, 0, 70, 111
1, 56344, Note_off_c, 0, 70, 111
1, 56373, Note_on_c, 0, 75, 99
1, 56436, Note_off_c, 0, 75, 99
1, 56441, Note_on_c, 0, 73, 100
1, 56538, Note_off_c, 0, 73, 100
1, 56573, Note_on_c, 0, 71, 104
1, 56658, Note_off_c, 0, 71, 104
1, 56658, Note_on_c, 0, 70, 105
1, 56747, Note_off_c, 0, 70, 105
1, 56751, Note_on_c, 0, 68, 108
1, 56862, Note_off_c, 0, 68, 108
1, 56862, Note_on_c, 0, 67, 107
1, 56947, Note_off_c, 0, 67, 107
1, 56972, Note_on_c, 0, 65, 110
1, 57046, Note_off_c, 0, 65, 110
1, 57050, Note_on_c, 0, 64, 113
1, 57144, Note_off_c, 0, 64, 113
1, 57223, Note_on_c, 0, 70, 112
1, 57325, Note_off_c, 0, 70, 112
1, 57330, Note_on_c, 0, 74, 92
1, 57396, Note_off_c, 0, 74, 92
1, 57420, Note_on_c, 0, 63, 112
1, 57536, Note_off_c, 0, 63, 112
1, 57641, Note_on_c, 0, 69, 40
1, 57730, Note_off_c, 0, 69, 40
1, 57742, Note_on_c, 0, 73, 109
1, 57817, Note_off_c, 0, 73, 109
1, 57818, Note_on_c, 0, 71, 103
1, 57892, Note_off_c, 0, 71, 103
1, 57899, Note_on_c, 0, 69, 106
1, 57976, Note_off_c, 0, 69, 106
1, 57984, Note_on_c, 0, 68, 110
1, 58046, Note_off_c, 0, 68, 110
1, 58071, Note_on_c, 0, 66, 106
1, 58166, Note_off_c, 0, 66, 106
1, 58179, Note_on_c, 0, 65, 108
1, 58267, Note_off_c, 0, 65, 108
1, 58283, Note_on_c, 0, 64, 115
1, 58365, Note_off_c, 0, 64, 115
1, 58368, Note_on_c, 0, 63, 116
1, 58448, Note_off_c, 0, 63, 116
1, 58468, Note_on_c, 0, 67, 110
1, 58545, Note_off_c, 0, 67, 110
1, 58557, Note_on_c, 0, 62, 111
1, 58658, Note_off_c, 0, 62, 111
1, 58671, Note_on_c, 0, 60, 107
1, 58723, Note_off_c, 0, 60, 107
1, 58736, Note_on_c, 0, 56, 105
1, 58845, Note_off_c, 0, 56, 105
1, 58863, Note_on_c, 0, 53, 96
1, 58914, Note_on_c, 0, 58, 102
1, 58914, Note_off_c, 0, 53, 96
1, 59037, Note_off_c, 0, 58, 102
1, 59943, Note_on_c, 0, 53, 110
1, 60204, Note_off_c, 0, 53, 110
1, 60236, Note_on_c, 0, 58, 111
1, 60350, Note_off_c, 0, 58, 111
1, 60416, Note_on_c, 0, 60, 120
1, 60609, Note_off_c, 0, 60, 120
1, 60616, Note_on_c, 0, 65, 118
1, 60712, Note_off_c, 0, 65, 118
1, 60794, Note_on_c, 0, 63, 124
1, 61003, Note_off_c, 0, 63, 124
1, 61020, Note_on_c, 0, 67, 115
1, 61142, Note_off_c, 0, 67, 115
1, 61205, Note_on_c, 0, 65, 115
1, 61362, Note_off_c, 0, 65, 115
1, 61362, Note_on_c, 0, 67, 116
1, 61456, Note_off_c, 0, 67, 116
1, 61456, Note_on_c, 0, 68, 115
1, 61775, Note_off_c, 0, 68, 115
1, 61775, Note_on_c, 0, 67, 111
1, 61861, Note_off_c, 0, 67, 111
1, 61863, Note_on_c, 0, 66, 111
1, 61936, Note_off_c, 0, 66, 111
1, 61960, Note_on_c, 0, 65, 112
1, 62035, Note_off_c, 0, 65, 112
1, 62041, Note_on_c, 0, 64, 117
1, 62137, Note_off_c, 0, 64, 117
1, 62137, Note_on_c, 0, 63, 117
1, 62222, Note_off_c, 0, 63, 117
1, 62230, Note_on_c, 0, 67, 109
1, 62308, Note_off_c, 0, 67, 109
1, 62327, Note_on_c, 0, 64, 114
1, 62434, Note_off_c, 0, 64, 114
1, 62460, Note_on_c, 0, 61, 111
1, 62519, Note_off_c, 0, 61, 111
1, 62535, Note_on_c, 0, 56, 109
1, 62622, Note_off_c, 0, 56, 109
1, 62646, Note_on_c, 0, 53, 101
1, 62695, Note_off_c, 0, 53, 101
1, 62712, Note_on_c, 0, 58, 105
1, 62834, Note_off_c, 0, 58, 105
1, 62907, Note_on_c, 0, 54, 110
1, 63015, Note_off_c, 0, 54, 110
1, 63015, Note_on_c, 0, 57, 109
1, 63097, Note_off_c, 0, 57, 109
1, 63118, Note_on_c, 0, 52, 111
1, 63204, Note_off_c, 0, 52, 111
1, 63216, Note_on_c, 0, 54, 106
1, 63293, Note_off_c, 0, 54, 106
1, 63327, Note_on_c, 0, 57, 106
1, 63398, Note_off_c, 0, 57, 106
1, 63435, Note_on_c, 0, 59, 99
1, 63493, Note_off_c, 0, 59, 99
1, 63493, Note_on_c, 0, 64, 122
1, 63597, Note_off_c, 0, 64, 122
1, 63597, Note_on_c, 0, 62, 121
1, 63679, Note_off_c, 0, 62, 121
1, 63689, Note_on_c, 0, 59, 107
1, 63765, Note_off_c, 0, 59, 107
1, 63771, Note_on_c, 0, 57, 109
1, 63872, Note_off_c, 0, 57, 109
1, 63873, Note_on_c, 0, 53, 109
1, 63950, Note_off_c, 0, 53, 109
1, 63961, Note_on_c, 0, 57, 102
1, 64055, Note_off_c, 0, 57, 102
1, 64061, Note_on_c, 0, 59, 110
1, 64125, Note_off_c, 0, 59, 110
1, 64153, Note_on_c, 0, 62, 119
1, 64249, Note_off_c, 0, 62, 119
1, 64249, Note_on_c, 0, 58, 108
1, 64325, Note_off_c, 0, 58, 108
1, 64345, Note_on_c, 0, 55, 103
1, 64426, Note_off_c, 0, 55, 103
1, 64426, Note_on_c, 0, 56, 105
1, 64503, Note_off_c, 0, 56, 105
1, 64520, Note_on_c, 0, 58, 103
1, 64609, Note_off_c, 0, 58, 103
1, 64612, Note_on_c, 0, 59, 108
1, 64725, Note_off_c, 0, 59, 108
1, 64734, Note_on_c, 0, 61, 108
1, 64819, Note_off_c, 0, 61, 108
1, 64827, Note_on_c, 0, 63, 113
1, 64903, Note_off_c, 0, 63, 113
1, 64922, Note_on_c, 0, 66, 99
1, 65005, Note_off_c, 0, 66, 99
1, 65005, Note_on_c, 0, 67, 114
1, 65088, Note_off_c, 0, 67, 114
1, 65091, Note_on_c, 0, 66, 105
1, 65167, Note_off_c, 0, 66, 105
1, 65173, Note_on_c, 0, 63, 113
1, 65276, Note_off_c, 0, 63, 113
1, 65300, Note_on_c, 0, 59, 96
1, 65359, Note_off_c, 0, 59, 96
1, 65362, Note_on_c, 0, 65, 112
1, 65469, Note_off_c, 0, 65, 112
1, 65471, Note_on_c, 0, 64, 111
1, 65558, Note_off_c, 0, 64, 111
1, 65561, Note_on_c, 0, 61, 105
1, 65652, Note_off_c, 0, 61, 105
1, 65663, Note_on_c, 0, 58, 98
1, 65732, Note_off_c, 0, 58, 98
1, 65755, Note_on_c, 0, 63, 121
1, 65845, Note_off_c, 0, 63, 121
1, 65850, Note_on_c, 0, 62, 107
1, 65949, Note_off_c, 0, 62, 107
1, 65954, Note_on_c, 0, 59, 98
1, 66049, Note_off_c, 0, 59, 98
1, 66420, Note_on_c, 0, 68, 112
1, 66458, Note_off_c, 0, 68, 112
1, 66479, Note_on_c, 0, 70, 108
1, 66524, Note_off_c, 0, 70, 108
1, 66591, Note_on_c, 0, 68, 115
1, 66684, Note_off_c, 0, 68, 115
1, 66695, Note_on_c, 0, 65, 108
1, 66812, Note_off_c, 0, 65, 108
1, 66820, Note_on_c, 0, 62, 95
1, 66893, Note_off_c, 0, 62, 95
1, 66901, Note_on_c, 0, 71, 104
1, 66975, Note_off_c, 0, 71, 104
1, 66979, Note_on_c, 0, 70, 110
1, 67053, Note_off_c, 0, 70, 110
1, 67056, Note_on_c, 0, 67, 108
1, 67187, Note_off_c, 0, 67, 108
1, 67210, Note_on_c, 0, 63, 99
1, 67258, Note_off_c, 0, 63, 99
1, 67258, Note_on_c, 0, 69, 113
1, 67343, Note_off_c, 0, 69, 113
1, 67756, Note_on_c, 0, 68, 115
1, 67856, Note_off_c, 0, 68, 115
1, 68310, Note_on_c, 0, 66, 117
1, 68356, Note_off_c, 0, 66, 117
1, 68363, Note_on_c, 0, 67, 112
1, 68400, Note_off_c, 0, 67, 112
1, 68491, Note_on_c, 0, 66, 115
1, 68570, Note_off_c, 0, 66, 115
1, 68570, Note_on_c, 0, 63, 111
1, 68668, Note_off_c, 0, 63, 111
1, 68688, Note_on_c, 0, 59, 105
1, 68753, Note_off_c, 0, 59, 105
1, 68754, Note_on_c, 0, 65, 113
1, 68849, Note_off_c, 0, 65, 113
1, 69272, Note_on_c, 0, 64, 122
1, 69372, Note_off_c, 0, 64, 122
1, 69840, Note_on_c, 0, 62, 127
1, 69896, Note_on_c, 0, 63, 118
1, 69896, Note_off_c, 0, 62, 127
1, 69946, Note_off_c, 0, 63, 118
1, 70023, Note_on_c, 0, 62, 125
1, 70108, Note_off_c, 0, 62, 125
1, 70108, Note_on_c, 0, 59, 107
1, 70211, Note_off_c, 0, 59, 107
1, 70322, Note_on_c, 0, 61, 118
1, 70407, Note_off_c, 0, 61, 118
1, 70435, Note_on_c, 0, 57, 110
1, 70486, Note_off_c, 0, 57, 110
1, 70491, Note_on_c, 0, 53, 109
1, 70572, Note_off_c, 0, 53, 109
1, 70974, Note_on_c, 0, 70, 113
1, 71025, Note_off_c, 0, 70, 113
1, 71028, Note_on_c, 0, 71, 117
1, 71071, Note_off_c, 0, 71, 117
1, 71352, Note_on_c, 0, 70, 115
1, 71455, Note_off_c, 0, 70, 115
1, 71775, Note_on_c, 0, 72, 112
1, 71818, Note_off_c, 0, 72, 112
1, 71818, Note_on_c, 0, 73, 113
1, 71872, Note_off_c, 0, 73, 113
1, 72126, Note_on_c, 0, 69, 117
1, 72240, Note_off_c, 0, 69, 117
1, 72602, Note_on_c, 0, 69, 117
1, 72669, Note_off_c, 0, 69, 117
1, 72799, Note_on_c, 0, 69, 115
1, 72881, Note_off_c, 0, 69, 115
1, 72913, Note_on_c, 0, 64, 105
1, 72970, Note_off_c, 0, 64, 105
1, 72982, Note_on_c, 0, 69, 114
1, 73067, Note_off_c, 0, 69, 114
1, 73081, Note_on_c, 0, 64, 101
1, 73132, Note_off_c, 0, 64, 101
1, 73140, Note_on_c, 0, 69, 113
1, 73225, Note_off_c, 0, 69, 113
1, 73240, Note_on_c, 0, 71, 105
1, 73327, Note_off_c, 0, 71, 105
1, 73327, Note_on_c, 0, 73, 104
1, 73418, Note_off_c, 0, 73, 104
1, 73430, Note_on_c, 0, 71, 104
1, 73500, Note_off_c, 0, 71, 104
1, 73503, Note_on_c, 0, 69, 109
1, 73618, Note_off_c, 0, 69, 109
1, 73648, Note_on_c, 0, 65, 100
1, 73702, Note_off_c, 0, 65, 100
1, 73707, Note_on_c, 0, 69, 111
1, 73810, Note_off_c, 0, 69, 111
1, 73822, Note_on_c, 0, 62, 104
1, 73889, Note_off_c, 0, 62, 104
1, 73897, Note_on_c, 0, 67, 108
1, 74021, Note_off_c, 0, 67, 108
1, 74021, Note_on_c, 0, 69, 112
1, 74102, Note_off_c, 0, 69, 112
1, 74104, Note_on_c, 0, 71, 110
1, 74183, Note_off_c, 0, 71, 110
1, 74198, Note_on_c, 0, 69, 112
1, 74257, Note_off_c, 0, 69, 112
1, 74280, Note_on_c, 0, 67, 108
1, 74378, Note_off_c, 0, 67, 108
1, 74405, Note_on_c, 0, 62, 97
1, 74461, Note_off_c, 0, 62, 97
1, 74461, Note_on_c, 0, 67, 114
1, 74565, Note_off_c, 0, 67, 114
1, 74593, Note_on_c, 0, 60, 104
1, 74643, Note_off_c, 0, 60, 104
1, 74647, Note_on_c, 0, 65, 109
1, 74752, Note_off_c, 0, 65, 109
1, 74753, Note_on_c, 0, 67, 101
1, 74823, Note_off_c, 0, 67, 101
1, 74827, Note_on_c, 0, 69, 117
1, 74921, Note_off_c, 0, 69, 117
1, 74929, Note_on_c, 0, 67, 108
1, 75020, Note_off_c, 0, 67, 108
1, 75027, Note_on_c, 0, 65, 105
1, 75148, Note_off_c, 0, 65, 105
1, 75162, Note_on_c, 0, 60, 104
1, 75213, Note_off_c, 0, 60, 104
1, 75220, Note_on_c, 0, 67, 110
1, 75309, Note_off_c, 0, 67, 110
1, 75319, Note_on_c, 0, 66, 108
1, 75391, Note_off_c, 0, 66, 108
1, 75396, Note_on_c, 0, 63, 104
1, 75498, Note_off_c, 0, 63, 104
1, 75498, Note_on_c, 0, 67, 112
1, 75559, Note_off_c, 0, 67, 112
1, 75597, Note_on_c, 0, 63, 113
1, 75673, Note_off_c, 0, 63, 113
1, 75684, Note_on_c, 0, 65, 112
1, 75755, Note_off_c, 0, 65, 112
1, 75762, Note_on_c, 0, 67, 104
1, 75855, Note_off_c, 0, 67, 104
1, 75894, Note_on_c, 0, 70, 98
1, 75939, Note_off_c, 0, 70, 98
1, 75978, Note_on_c, 0, 72, 107
1, 76013, Note_off_c, 0, 72, 107
1, 76018, Note_on_c, 0, 73, 109
1, 76072, Note_off_c, 0, 73, 109
1, 76073, Note_on_c, 0, 72, 111
1, 76163, Note_off_c, 0, 72, 111
1, 76163, Note_on_c, 0, 71, 110
1, 76245, Note_off_c, 0, 71, 110
1, 76258, Note_on_c, 0, 69, 108
1, 76340, Note_off_c, 0, 69, 108
1, 76342, Note_on_c, 0, 68, 111
1, 76391, Note_off_c, 0, 68, 111
1, 76438, Note_on_c, 0, 66, 109
1, 76530, Note_off_c, 0, 66, 109
1, 76534, Note_on_c, 0, 65, 107
1, 76629, Note_off_c, 0, 65, 107
1, 76629, Note_on_c, 0, 64, 110
1, 76700, Note_off_c, 0, 64, 110
1, 76701, Note_on_c, 0, 63, 113
1, 76771, Note_off_c, 0, 63, 113
1, 76790, Note_on_c, 0, 65, 111
1, 76903, Note_off_c, 0, 65, 111
1, 76904, Note_on_c, 0, 62, 119
1, 77006, Note_off_c, 0, 62, 119
1, 77007, Note_on_c, 0, 60, 109
1, 77076, Note_on_c, 0, 59, 108
1, 77076, Note_off_c, 0, 60, 109
1, 77140, Note_off_c, 0, 59, 108
1, 77198, Note_on_c, 0, 67, 115
1, 77249, Note_off_c, 0, 67, 115
1, 77258, Note_on_c, 0, 66, 111
1, 77349, Note_off_c, 0, 66, 111
1, 77360, Note_on_c, 0, 66, 110
1, 77442, Note_off_c, 0, 66, 110
1, 77451, Note_on_c, 0, 65, 109
1, 77540, Note_off_c, 0, 65, 109
1, 77550, Note_on_c, 0, 64, 118
1, 77635, Note_off_c, 0, 64, 118
1, 77635, Note_on_c, 0, 63, 117
1, 77712, Note_off_c, 0, 63, 117
1, 77733, Note_on_c, 0, 65, 112
1, 77811, Note_off_c, 0, 65, 112
1, 77818, Note_on_c, 0, 62, 114
1, 77913, Note_off_c, 0, 62, 114
1, 77913, Note_on_c, 0, 63, 114
1, 77984, Note_off_c, 0, 63, 114
1, 77993, Note_on_c, 0, 65, 110
1, 78080, Note_off_c, 0, 65, 110
1, 78090, Note_on_c, 0, 62, 102
1, 78152, Note_off_c, 0, 62, 102
1, 78178, Note_on_c, 0, 63, 119
1, 78281, Note_off_c, 0, 63, 119
1, 78284, Note_on_c, 0, 62, 117
1, 78380, Note_off_c, 0, 62, 117
1, 78751, Note_on_c, 0, 63, 123
1, 78843, Note_off_c, 0, 63, 123
1, 78849, Note_on_c, 0, 62, 116
1, 78944, Note_off_c, 0, 62, 116
1, 79342, Note_on_c, 0, 63, 123
1, 79436, Note_off_c, 0, 63, 123
1, 79436, Note_on_c, 0, 62, 116
1, 79531, Note_off_c, 0, 62, 116
1, 79533, Note_on_c, 0, 58, 108
1, 79629, Note_off_c, 0, 58, 108
1, 79635, Note_on_c, 0, 55, 100
1, 79691, Note_off_c, 0, 55, 100
1, 79701, Note_on_c, 0, 63, 121
1, 79816, Note_off_c, 0, 63, 121
1, 79818, Note_on_c, 0, 61, 115
1, 79902, Note_off_c, 0, 61, 115
1, 79902, Note_on_c, 0, 56, 107
1, 79999, Note_off_c, 0, 56, 107
1, 80085, Note_on_c, 0, 63, 125
1, 80186, Note_off_c, 0, 63, 125
1, 80188, Note_on_c, 0, 62, 116
1, 80298, Note_off_c, 0, 62, 116
1, 80647, Note_on_c, 0, 63, 122
1, 80738, Note_off_c, 0, 63, 122
1, 80741, Note_on_c, 0, 62, 121
1, 80844, Note_off_c, 0, 62, 121
1, 81237, Note_on_c, 0, 63, 122
1, 81348, Note_off_c, 0, 63, 122
1, 81352, Note_on_c, 0, 61, 114
1, 81434, Note_on_c, 0, 58, 105
1, 81434, Note_off_c, 0, 61, 114
1, 81528, Note_off_c, 0, 58, 105
1, 81610, Note_on_c, 0, 61, 122
1, 81713, Note_off_c, 0, 61, 122
1, 81724, Note_on_c, 0, 63, 120
1, 81806, Note_off_c, 0, 63, 120
1, 81812, Note_on_c, 0, 65, 117
1, 81915, Note_off_c, 0, 65, 117
1, 81919, Note_on_c, 0, 61, 101
1, 81970, Note_off_c, 0, 61, 101
1, 81981, Note_on_c, 0, 63, 122
1, 82084, Note_off_c, 0, 63, 122
1, 82087, Note_on_c, 0, 61, 118
1, 82187, Note_off_c, 0, 61, 118
1, 82204, Note_on_c, 0, 58, 99
1, 82337, Note_off_c, 0, 58, 99
1, 82339, Note_on_c, 0, 64, 121
1, 82458, Note_off_c, 0, 64, 121
1, 82458, Note_on_c, 0, 61, 114
1, 82505, Note_off_c, 0, 61, 114
1, 82521, Note_on_c, 0, 59, 107
1, 82623, Note_off_c, 0, 59, 107
1, 82656, Note_on_c, 0, 54, 106
1, 82696, Note_off_c, 0, 54, 106
1, 82698, Note_on_c, 0, 57, 112
1, 82803, Note_off_c, 0, 57, 112
1, 82814, Note_on_c, 0, 54, 111
1, 82895, Note_off_c, 0, 54, 111
1, 82907, Note_on_c, 0, 52, 113
1, 82981, Note_off_c, 0, 52, 113
1, 82989, Note_on_c, 0, 54, 108
1, 83095, Note_on_c, 0, 52, 112
1, 83095, Note_off_c, 0, 54, 108
1, 83153, Note_off_c, 0, 52, 112
1, 83164, Note_on_c, 0, 54, 104
1, 83262, Note_off_c, 0, 54, 104
1, 83272, Note_on_c, 0, 57, 110
1, 83373, Note_off_c, 0, 57, 110
1, 83380, Note_on_c, 0, 59, 97
1, 83440, Note_off_c, 0, 59, 97
1, 83446, Note_on_c, 0, 61, 115
1, 83552, Note_off_c, 0, 61, 115
1, 83557, Note_on_c, 0, 66, 112
1, 83649, Note_off_c, 0, 66, 112
1, 83649, Note_on_c, 0, 64, 117
1, 83743, Note_off_c, 0, 64, 117
1, 83752, Note_on_c, 0, 61, 104
1, 83839, Note_off_c, 0, 61, 104
1, 83839, Note_on_c, 0, 59, 106
1, 83934, Note_off_c, 0, 59, 106
1, 83937, Note_on_c, 0, 61, 102
1, 83992, Note_off_c, 0, 61, 102
1, 83992, Note_on_c, 0, 64, 118
1, 84115, Note_off_c, 0, 64, 118
1, 84121, Note_on_c, 0, 66, 108
1, 84172, Note_off_c, 0, 66, 108
1, 84194, Note_on_c, 0, 60, 103
1, 84273, Note_off_c, 0, 60, 103
1, 84315, Note_on_c, 0, 67, 110
1, 84381, Note_off_c, 0, 67, 110
1, 84382, Note_on_c, 0, 65, 109
1, 84473, Note_off_c, 0, 65, 109
1, 84494, Note_on_c, 0, 62, 117
1, 84592, Note_off_c, 0, 62, 117
1, 84592, Note_on_c, 0, 60, 105
1, 84684, Note_off_c, 0, 60, 105
1, 84691, Note_on_c, 0, 62, 117
1, 84776, Note_off_c, 0, 62, 117
1, 84794, Note_on_c, 0, 65, 113
1, 84844, Note_off_c, 0, 65, 113
1, 84848, Note_on_c, 0, 67, 113
1, 84936, Note_off_c, 0, 67, 113
1, 84936, Note_on_c, 0, 63, 113
1, 85041, Note_off_c, 0, 63, 113
1, 85056, Note_on_c, 0, 67, 111
1, 85137, Note_off_c, 0, 67, 111
1, 85137, Note_on_c, 0, 65, 112
1, 85218, Note_off_c, 0, 65, 112
1, 85555, Note_on_c, 0, 63, 123
1, 85646, Note_off_c, 0, 63, 123
1, 85656, Note_on_c, 0, 68, 109
1, 85729, Note_off_c, 0, 68, 109
1, 85753, Note_on_c, 0, 66, 105
1, 85831, Note_off_c, 0, 66, 105
1, 85837, Note_on_c, 0, 63, 117
1, 85913, Note_off_c, 0, 63, 117
1, 85929, Note_on_c, 0, 61, 100
1, 86004, Note_off_c, 0, 61, 100
1, 86010, Note_on_c, 0, 63, 115
1, 86110, Note_off_c, 0, 63, 115
1, 86114, Note_on_c, 0, 66, 106
1, 86166, Note_off_c, 0, 66, 106
1, 86180, Note_on_c, 0, 68, 113
1, 86259, Note_off_c, 0, 68, 113
1, 86265, Note_on_c, 0, 64, 109
1, 86362, Note_off_c, 0, 64, 109
1, 86372, Note_on_c, 0, 69, 112
1, 86445, Note_off_c, 0, 69, 112
1, 86456, Note_on_c, 0, 67, 109
1, 86542, Note_off_c, 0, 67, 109
1, 86548, Note_on_c, 0, 64, 119
1, 86645, Note_off_c, 0, 64, 119
1, 86658, Note_on_c, 0, 62, 112
1, 86731, Note_off_c, 0, 62, 112
1, 86763, Note_on_c, 0, 64, 106
1, 86823, Note_off_c, 0, 64, 106
1, 86823, Note_on_c, 0, 67, 110
1, 86895, Note_off_c, 0, 67, 110
1, 86922, Note_on_c, 0, 69, 109
1, 87005, Note_off_c, 0, 69, 109
1, 87018, Note_on_c, 0, 65, 106
1, 87096, Note_off_c, 0, 65, 106
1, 87112, Note_on_c, 0, 70, 106
1, 87185, Note_off_c, 0, 70, 106
1, 87218, Note_on_c, 0, 67, 110
1, 87302, Note_off_c, 0, 67, 110
1, 87309, Note_on_c, 0, 65, 110
1, 87379, Note_off_c, 0, 65, 110
1, 87379, Note_on_c, 0, 63, 109
1, 87490, Note_off_c, 0, 63, 109
1, 87496, Note_on_c, 0, 68, 109
1, 87587, Note_off_c, 0, 68, 109
1, 87598, Note_on_c, 0, 65, 108
1, 87677, Note_off_c, 0, 65, 108
1, 87721, Note_on_c, 0, 60, 103
1, 87788, Note_off_c, 0, 60, 103
1, 87797, Note_on_c, 0, 58, 102
1, 87884, Note_off_c, 0, 58, 102
1, 87899, Note_on_c, 0, 55, 103
1, 87945, Note_off_c, 0, 55, 103
1, 87947, Note_on_c, 0, 63, 121
1, 88068, Note_off_c, 0, 63, 121
1, 88068, Note_on_c, 0, 60, 108
1, 88148, Note_off_c, 0, 60, 108
1, 88148, Note_on_c, 0, 56, 112
1, 88267, Note_off_c, 0, 56, 112
1, 88276, Note_on_c, 0, 54, 104
1, 88334, Note_off_c, 0, 54, 104
1, 88334, Note_on_c, 0, 58, 107
1, 88393, Note_off_c, 0, 58, 107
1, 88399, Note_on_c, 0, 59, 106
1, 88435, Note_off_c, 0, 59, 106
1, 88442, Note_on_c, 0, 56, 109
1, 88508, Note_off_c, 0, 56, 109
1, 88508, Note_on_c, 0, 53, 119
1, 88591, Note_off_c, 0, 53, 119
1, 88597, Note_on_c, 0, 51, 117
1, 88678, Note_off_c, 0, 51, 117
1, 88678, Note_on_c, 0, 44, 125
1, 88876, Note_off_c, 0, 44, 125
1, 88876, Note_on_c, 0, 46, 124
1, 89027, Note_off_c, 0, 46, 124
1, 89592, Note_on_c, 0, 47, 109
1, 89645, Note_off_c, 0, 47, 109
1, 89669, Note_on_c, 0, 52, 126
1, 89763, Note_off_c, 0, 52, 126
1, 89779, Note_on_c, 0, 50, 122
1, 89851, Note_off_c, 0, 50, 122
1, 89851, Note_on_c, 0, 49, 115
1, 89958, Note_off_c, 0, 49, 115
1, 89978, Note_on_c, 0, 54, 108
1, 90100, Note_off_c, 0, 54, 108
1, 90100, Note_on_c, 0, 57, 103
1, 90172, Note_off_c, 0, 57, 103
1, 90180, Note_on_c, 0, 59, 109
1, 90234, Note_off_c, 0, 59, 109
1, 90236, Note_on_c, 0, 61, 112
1, 90331, Note_off_c, 0, 61, 112
1, 90335, Note_on_c, 0, 60, 107
1, 90417, Note_off_c, 0, 60, 107
1, 90417, Note_on_c, 0, 59, 109
1, 90504, Note_off_c, 0, 59, 109
1, 90512, Note_on_c, 0, 52, 102
1, 90592, Note_off_c, 0, 52, 102
1, 90598, Note_on_c, 0, 59, 107
1, 90707, Note_off_c, 0, 59, 107
1, 90798, Note_on_c, 0, 56, 112
1, 90881, Note_off_c, 0, 56, 112
1, 90882, Note_on_c, 0, 59, 106
1, 90978, Note_off_c, 0, 59, 106
1, 90987, Note_on_c, 0, 58, 107
1, 91061, Note_off_c, 0, 58, 107
1, 91078, Note_on_c, 0, 56, 106
1, 91175, Note_off_c, 0, 56, 106
1, 91184, Note_on_c, 0, 54, 102
1, 91246, Note_off_c, 0, 54, 102
1, 91279, Note_on_c, 0, 54, 105
1, 91378, Note_off_c, 0, 54, 105
1, 91384, Note_on_c, 0, 53, 105
1, 91458, Note_off_c, 0, 53, 105
1, 91467, Note_on_c, 0, 52, 105
1, 91530, Note_off_c, 0, 52, 105
1, 91558, Note_on_c, 0, 51, 108
1, 91642, Note_off_c, 0, 51, 108
1, 91656, Note_on_c, 0, 53, 111
1, 91764, Note_off_c, 0, 53, 111
1, 91767, Note_on_c, 0, 50, 105
1, 91833, Note_off_c, 0, 50, 105
1, 91856, Note_on_c, 0, 53, 106
1, 91897, Note_off_c, 0, 53, 106
1, 91924, Note_on_c, 0, 57, 114
1, 92001, Note_off_c, 0, 57, 114
1, 92020, Note_on_c, 0, 60, 110
1, 92110, Note_off_c, 0, 60, 110
1, 92110, Note_on_c, 0, 58, 109
1, 92200, Note_off_c, 0, 58, 109
1, 92214, Note_on_c, 0, 60, 110
1, 92327, Note_off_c, 0, 60, 110
1, 92346, Note_on_c, 0, 62, 100
1, 92416, Note_off_c, 0, 62, 100
1, 92427, Note_on_c, 0, 65, 101
1, 92470, Note_off_c, 0, 65, 101
1, 92490, Note_on_c, 0, 70, 113
1, 92591, Note_off_c, 0, 70, 113
1, 92605, Note_on_c, 0, 74, 104
1, 92673, Note_off_c, 0, 74, 104
1, 92702, Note_on_c, 0, 72, 101
1, 92786, Note_off_c, 0, 72, 101
1, 92848, Note_on_c, 0, 71, 110
1, 92976, Note_off_c, 0, 71, 110
1, 92994, Note_on_c, 0, 68, 109
1, 93066, Note_off_c, 0, 68, 109
1, 93089, Note_on_c, 0, 66, 103
1, 93156, Note_off_c, 0, 66, 103
1, 93182, Note_on_c, 0, 65, 106
1, 93263, Note_off_c, 0, 65, 106
1, 93268, Note_on_c, 0, 63, 106
1, 93380, Note_off_c, 0, 63, 106
1, 93401, Note_on_c, 0, 65, 102
1, 93442, Note_off_c, 0, 65, 102
1, 93450, Note_on_c, 0, 67, 107
1, 93514, Note_off_c, 0, 67, 107
1, 93564, Note_on_c, 0, 70, 108
1, 93639, Note_off_c, 0, 70, 108
1, 93639, Note_on_c, 0, 72, 109
1, 93687, Note_off_c, 0, 72, 109
1, 93687, Note_on_c, 0, 74, 109
1, 93738, Note_off_c, 0, 74, 109
1, 93738, Note_on_c, 0, 73, 113
1, 93822, Note_off_c, 0, 73, 113
1, 93822, Note_on_c, 0, 71, 107
1, 93893, Note_off_c, 0, 71, 107
1, 93913, Note_on_c, 0, 69, 111
1, 93987, Note_off_c, 0, 69, 111
1, 94012, Note_on_c, 0, 67, 111
1, 94084, Note_off_c, 0, 67, 111
1, 94133, Note_on_c, 0, 66, 99
1, 94183, Note_off_c, 0, 66, 99
1, 94183, Note_on_c, 0, 65, 109
1, 94284, Note_off_c, 0, 65, 109
1, 94293, Note_on_c, 0, 64, 113
1, 94369, Note_off_c, 0, 64, 113
1, 94369, Note_on_c, 0, 63, 112
1, 94473, Note_off_c, 0, 63, 112
1, 94781, Note_on_c, 0, 61, 104
1, 94820, Note_off_c, 0, 61, 104
1, 94831, Note_on_c, 0, 62, 120
1, 94952, Note_off_c, 0, 62, 120
1, 94955, Note_on_c, 0, 65, 119
1, 95064, Note_off_c, 0, 65, 119
1, 95082, Note_on_c, 0, 58, 112
1, 95202, Note_off_c, 0, 58, 112
1, 96012, Note_on_c, 0, 63, 125
1, 96114, Note_off_c, 0, 63, 125
1, 96117, Note_on_c, 0, 65, 119
1, 96180, Note_off_c, 0, 65, 119
1, 96180, Note_on_c, 0, 68, 119
1, 96275, Note_off_c, 0, 68, 119
1, 96282, Note_on_c, 0, 71, 113
1, 96324, Note_off_c, 0, 71, 113
1, 96331, Note_on_c, 0, 72, 110
1, 97334, Note_off_c, 0, 72, 110
1, 97361, Note_on_c, 0, 71, 113
1, 97458, Note_off_c, 0, 71, 113
1, 97477, Note_on_c, 0, 70, 117
1, 97533, Note_off_c, 0, 70, 117
1, 97558, Note_on_c, 0, 70, 118
1, 97626, Note_off_c, 0, 70, 118
1, 97649, Note_on_c, 0, 72, 116
1, 97740, Note_off_c, 0, 72, 116
1, 97753, Note_on_c, 0, 70, 84
1, 97816, Note_off_c, 0, 70, 84
1, 97816, Note_on_c, 0, 72, 118
1, 97897, Note_off_c, 0, 72, 118
1, 97928, Note_on_c, 0, 73, 107
1, 97968, Note_off_c, 0, 73, 107
1, 97977, Note_on_c, 0, 71, 112
1, 98085, Note_off_c, 0, 71, 112
1, 98105, Note_on_c, 0, 71, 101
1, 98168, Note_off_c, 0, 71, 101
1, 98177, Note_on_c, 0, 70, 115
1, 98258, Note_off_c, 0, 70, 115
1, 98281, Note_on_c, 0, 70, 117
1, 98372, Note_off_c, 0, 70, 117
1, 98406, Note_on_c, 0, 72, 105
1, 98464, Note_off_c, 0, 72, 105
1, 98483, Note_on_c, 0, 70, 105
1, 98569, Note_off_c, 0, 70, 105
1, 98592, Note_on_c, 0, 73, 99
1, 98660, Note_off_c, 0, 73, 99
1, 98660, Note_on_c, 0, 70, 99
1, 98728, Note_off_c, 0, 70, 99
1, 98736, Note_on_c, 0, 72, 117
1, 98824, Note_off_c, 0, 72, 117
1, 98843, Note_on_c, 0, 72, 110
1, 98949, Note_off_c, 0, 72, 110
1, 98957, Note_on_c, 0, 71, 111
1, 99041, Note_off_c, 0, 71, 111
1, 99059, Note_on_c, 0, 71, 113
1, 99106, Note_off_c, 0, 71, 113
1, 99121, Note_on_c, 0, 70, 111
1, 99205, Note_off_c, 0, 70, 111
1, 99210, Note_on_c, 0, 71, 105
1, 99301, Note_off_c, 0, 71, 105
1, 99303, Note_on_c, 0, 70, 113
1, 99372, Note_off_c, 0, 70, 113
1, 99391, Note_on_c, 0, 70, 117
1, 99502, Note_off_c, 0, 70, 117
1, 99520, Note_on_c, 0, 72, 110
1, 99606, Note_off_c, 0, 72, 110
1, 99628, Note_on_c, 0, 70, 102
1, 99722, Note_off_c, 0, 70, 102
1, 99738, Note_on_c, 0, 73, 110
1, 99818, Note_off_c, 0, 73, 110
1, 99843, Note_on_c, 0, 73, 114
1, 99905, Note_off_c, 0, 73, 114
1, 99929, Note_on_c, 0, 68, 116
1, 100009, Note_off_c, 0, 68, 116
1, 100020, Note_on_c, 0, 73, 109
1, 100106, Note_off_c, 0, 73, 109
1, 100126, Note_on_c, 0, 70, 112
1, 100209, Note_off_c, 0, 70, 112
1, 100218, Note_on_c, 0, 70, 115
1, 100301, Note_off_c, 0, 70, 115
1, 100313, Note_on_c, 0, 72, 114
1, 100381, Note_off_c, 0, 72, 114
1, 100399, Note_on_c, 0, 70, 98
1, 100458, Note_off_c, 0, 70, 98
1, 100473, Note_on_c, 0, 72, 114
1, 100556, Note_off_c, 0, 72, 114
1, 100574, Note_on_c, 0, 70, 105
1, 100655, Note_off_c, 0, 70, 105
1, 100670, Note_on_c, 0, 72, 110
1, 100767, Note_off_c, 0, 72, 110
1, 100789, Note_on_c, 0, 70, 111
1, 100877, Note_off_c, 0, 70, 111
1, 100897, Note_on_c, 0, 69, 107
1, 100953, Note_off_c, 0, 69, 107
1, 100973, Note_on_c, 0, 67, 103
1, 101031, Note_off_c, 0, 67, 103
1, 101042, Note_on_c, 0, 69, 107
1, 101125, Note_off_c, 0, 69, 107
1, 101154, Note_on_c, 0, 74, 98
1, 101202, Note_off_c, 0, 74, 98
1, 101208, Note_on_c, 0, 73, 107
1, 101248, Note_off_c, 0, 73, 107
1, 101263, Note_on_c, 0, 71, 106
1, 101324, Note_off_c, 0, 71, 106
1, 101358, Note_on_c, 0, 64, 113
1, 101435, Note_off_c, 0, 64, 113
1, 101437, Note_on_c, 0, 66, 110
1, 101482, Note_off_c, 0, 66, 110
1, 101522, Note_on_c, 0, 71, 111
1, 101581, Note_off_c, 0, 71, 111
1, 101610, Note_on_c, 0, 68, 113
1, 101694, Note_off_c, 0, 68, 113
1, 101710, Note_on_c, 0, 73, 105
1, 101775, Note_off_c, 0, 73, 105
1, 101795, Note_on_c, 0, 70, 110
1, 101873, Note_off_c, 0, 70, 110
1, 101903, Note_on_c, 0, 63, 111
1, 101977, Note_off_c, 0, 63, 111
1, 101988, Note_on_c, 0, 65, 109
1, 102056, Note_off_c, 0, 65, 109
1, 102083, Note_on_c, 0, 70, 114
1, 102167, Note_off_c, 0, 70, 114
1, 102176, Note_on_c, 0, 67, 110
1, 102264, Note_off_c, 0, 67, 110
1, 102276, Note_on_c, 0, 72, 106
1, 102341, Note_off_c, 0, 72, 106
1, 102356, Note_on_c, 0, 69, 113
1, 102425, Note_off_c, 0, 69, 113
1, 102465, Note_on_c, 0, 62, 107
1, 102530, Note_off_c, 0, 62, 107
1, 102532, Note_on_c, 0, 64, 111
1, 102600, Note_off_c, 0, 64, 111
1, 102651, Note_on_c, 0, 69, 112
1, 102710, Note_off_c, 0, 69, 112
1, 102725, Note_on_c, 0, 66, 110
1, 102797, Note_off_c, 0, 66, 110
1, 102848, Note_on_c, 0, 71, 105
1, 102892, Note_off_c, 0, 71, 105
1, 102892, Note_on_c, 0, 68, 111
1, 102989, Note_off_c, 0, 68, 111
1, 103026, Note_on_c, 0, 61, 103
1, 103084, Note_off_c, 0, 61, 103
1, 103107, Note_on_c, 0, 63, 110
1, 103177, Note_off_c, 0, 63, 110
1, 103193, Note_on_c, 0, 68, 115
1, 103295, Note_on_c, 0, 67, 113
1, 103295, Note_off_c, 0, 68, 115
1, 103364, Note_off_c, 0, 67, 113
1, 103376, Note_on_c, 0, 66, 111
1, 103485, Note_off_c, 0, 66, 111
1, 103491, Note_on_c, 0, 65, 112
1, 103557, Note_off_c, 0, 65, 112
1, 103569, Note_on_c, 0, 64, 113
1, 103642, Note_off_c, 0, 64, 113
1, 103657, Note_on_c, 0, 63, 115
1, 103734, Note_off_c, 0, 63, 115
1, 103746, Note_on_c, 0, 67, 110
1, 103814, Note_off_c, 0, 67, 110
1, 103834, Note_on_c, 0, 62, 117
1, 103968, Note_off_c, 0, 62, 117
1, 104397, Note_on_c, 0, 69, 112
1, 104492, Note_off_c, 0, 69, 112
1, 104501, Note_on_c, 0, 67, 113
1, 104582, Note_off_c, 0, 67, 113
1, 104587, Note_on_c, 0, 68, 114
1, 104655, Note_off_c, 0, 68, 114
1, 104656, Note_on_c, 0, 72, 100
1, 104717, Note_off_c, 0, 72, 100
1, 104750, Note_on_c, 0, 75, 110
1, 104812, Note_off_c, 0, 75, 110
1, 104863, Note_on_c, 0, 79, 124
1, 104945, Note_off_c, 0, 79, 124
1, 104945, Note_on_c, 0, 82, 113
1, 105733, Note_off_c, 0, 82, 113
1, 105754, Note_on_c, 0, 68, 120
1, 106076, Note_off_c, 0, 68, 120
1, 106077, Note_on_c, 0, 70, 121
1, 106381, Note_off_c, 0, 70, 121
1, 107259, Note_on_c, 0, 70, 118
1, 107328, Note_off_c, 0, 70, 118
1, 107341, Note_on_c, 0, 67, 114
1, 107409, Note_off_c, 0, 67, 114
1, 107418, Note_on_c, 0, 68, 116
1, 107499, Note_off_c, 0, 68, 116
1, 107522, Note_on_c, 0, 72, 103
1, 107560, Note_off_c, 0, 72, 103
1, 107594, Note_on_c, 0, 75, 117
1, 107680, Note_off_c, 0, 75, 117
1, 107688, Note_on_c, 0, 79, 124
1, 107770, Note_off_c, 0, 79, 124
1, 107776, Note_on_c, 0, 82, 107
1, 107840, Note_off_c, 0, 82, 107
1, 107987, Note_on_c, 0, 44, 125
1, 108175, Note_off_c, 0, 44, 125
1, 108197, Note_on_c, 0, 46, 117
1, 108322, Note_off_c, 0, 46, 117
1, 108566, Note_on_c, 0, 70, 116
1, 108657, Note_off_c, 0, 70, 116
1, 108671, Note_on_c, 0, 67, 112
1, 108737, Note_off_c, 0, 67, 112
1, 108740, Note_on_c, 0, 68, 117
1, 108803, Note_off_c, 0, 68, 117
1, 108812, Note_on_c, 0, 72, 97
1, 108903, Note_off_c, 0, 72, 97
1, 108903, Note_on_c, 0, 75, 114
1, 108997, Note_off_c, 0, 75, 114
1, 108997, Note_on_c, 0, 79, 119
1, 109112, Note_off_c, 0, 79, 119
1, 109112, Note_on_c, 0, 82, 103
1, 109346, Note_off_c, 0, 82, 103
1, 109484, Note_on_c, 0, 45, 120
1, 109693, Note_on_c, 0, 47, 117
1, 109693, Note_off_c, 0, 45, 120
1, 109816, Note_off_c, 0, 47, 117
1, 110074, Note_on_c, 0, 70, 116
1, 110152, Note_off_c, 0, 70, 116
1, 110158, Note_on_c, 0, 67, 110
1, 110227, Note_off_c, 0, 67, 110
1, 110234, Note_on_c, 0, 68, 112
1, 110304, Note_off_c, 0, 68, 112
1, 110327, Note_on_c, 0, 72, 102
1, 110410, Note_off_c, 0, 72, 102
1, 110413, Note_on_c, 0, 75, 110
1, 110506, Note_off_c, 0, 75, 110
1, 110509, Note_on_c, 0, 79, 116
1, 110610, Note_off_c, 0, 79, 116
1, 110613, Note_on_c, 0, 80, 119
1, 110868, Note_off_c, 0, 80, 119
1, 111004, Note_on_c, 0, 44, 122
1, 111168, Note_off_c, 0, 44, 122
1, 111175, Note_on_c, 0, 46, 119
1, 111326, Note_off_c, 0, 46, 119
1, 111566, Note_on_c, 0, 67, 111
1, 111689, Note_off_c, 0, 67, 111
1, 111691, Note_on_c, 0, 68, 114
1, 111746, Note_off_c, 0, 68, 114
1, 111758, Note_on_c, 0, 71, 103
1, 111828, Note_off_c, 0, 71, 103
1, 111843, Note_on_c, 0, 75, 112
1, 111917, Note_off_c, 0, 75, 112
1, 111922, Note_on_c, 0, 79, 117
1, 112009, Note_off_c, 0, 79, 117
1, 112009, Note_on_c, 0, 80, 121
1, 112350, Note_off_c, 0, 80, 121
1, 112553, Note_on_c, 0, 67, 115
1, 112640, Note_off_c, 0, 67, 115
1, 112641, Note_on_c, 0, 68, 112
1, 112699, Note_off_c, 0, 68, 112
1, 112731, Note_on_c, 0, 72, 104
1, 112815, Note_off_c, 0, 72, 104
1, 112821, Note_on_c, 0, 75, 111
1, 112890, Note_off_c, 0, 75, 111
1, 112890, Note_on_c, 0, 79, 122
1, 113015, Note_off_c, 0, 79, 122
1, 113020, Note_on_c, 0, 82, 109
1, 113214, Note_off_c, 0, 82, 109
1, 113458, Note_on_c, 0, 67, 115
1, 113568, Note_off_c, 0, 67, 115
1, 113571, Note_on_c, 0, 68, 106
1, 113609, Note_off_c, 0, 68, 106
1, 113621, Note_on_c, 0, 71, 108
1, 113690, Note_off_c, 0, 71, 108
1, 113713, Note_on_c, 0, 75, 114
1, 113799, Note_off_c, 0, 75, 114
1, 113799, Note_on_c, 0, 79, 119
1, 114002, Note_off_c, 0, 79, 119
1, 114038, Note_on_c, 0, 83, 115
1, 114092, Note_off_c, 0, 83, 115
1, 114096, Note_on_c, 0, 84, 116
1, 114174, Note_off_c, 0, 84, 116
1, 114174, Note_on_c, 0, 83, 126
1, 114256, Note_off_c, 0, 83, 126
1, 114275, Note_on_c, 0, 82, 116
1, 114360, Note_off_c, 0, 82, 116
1, 114434, Note_on_c, 0, 79, 122
1, 114550, Note_off_c, 0, 79, 122
1, 114639, Note_on_c, 0, 80, 107
1, 114673, Note_off_c, 0, 80, 107
1, 114682, Note_on_c, 0, 83, 95
1, 114731, Note_off_c, 0, 83, 95
1, 114994, Note_on_c, 0, 79, 109
1, 115148, Note_off_c, 0, 79, 109
1, 115215, Note_on_c, 0, 80, 102
1, 115244, Note_off_c, 0, 80, 102
1, 115259, Note_on_c, 0, 84, 83
1, 115313, Note_off_c, 0, 84, 83
1, 115390, Note_on_c, 0, 45, 119
1, 115564, Note_off_c, 0, 45, 119
1, 115564, Note_on_c, 0, 46, 113
1, 115734, Note_off_c, 0, 46, 113
1, 115734, Note_on_c, 0, 47, 112
1, 115891, Note_off_c, 0, 47, 112
1, 115948, Note_on_c, 0, 63, 112
1, 116100, Note_off_c, 0, 63, 112
1, 116339, Note_on_c, 0, 64, 122
1, 116478, Note_off_c, 0, 64, 122
1, 116730, Note_on_c, 0, 65, 109
1, 116858, Note_off_c, 0, 65, 109
1, 116994, Note_on_c, 0, 66, 112
1, 117117, Note_off_c, 0, 66, 112
1, 117336, Note_on_c, 0, 80, 114
1, 117446, Note_off_c, 0, 80, 114
1, 117521, Note_on_c, 0, 80, 98
1, 117575, Note_off_c, 0, 80, 98
1, 117677, Note_on_c, 0, 44, 120
1, 117839, Note_off_c, 0, 44, 120
1, 117850, Note_on_c, 0, 46, 123
1, 118001, Note_off_c, 0, 46, 123
1, 118265, Note_on_c, 0, 46, 113
1, 118364, Note_off_c, 0, 46, 113
1, 118547, Note_on_c, 0, 47, 118
1, 118639, Note_off_c, 0, 47, 118
1, 118851, Note_on_c, 0, 64, 121
1, 118956, Note_off_c, 0, 64, 121
1, 118966, Note_on_c, 0, 65, 114
1, 119014, Note_off_c, 0, 65, 114
1, 119019, Note_on_c, 0, 66, 114
1, 119112, Note_off_c, 0, 66, 114
1, 119378, Note_on_c, 0, 61, 118
1, 119480, Note_off_c, 0, 61, 118
1, 119490, Note_on_c, 0, 62, 124
1, 119591, Note_off_c, 0, 62, 124
1, 119605, Note_on_c, 0, 63, 124
1, 119673, Note_off_c, 0, 63, 124
1, 119800, Note_on_c, 0, 55, 112
1, 119902, Note_on_c, 0, 56, 104
1, 119902, Note_off_c, 0, 55, 112
1, 119943, Note_off_c, 0, 56, 104
1, 119943, Note_on_c, 0, 57, 112
1, 120047, Note_off_c, 0, 57, 112
1, 120162, Note_on_c, 0, 52, 115
1, 120287, Note_off_c, 0, 52, 115
1, 120288, Note_on_c, 0, 53, 115
1, 120342, Note_off_c, 0, 53, 115
1, 120349, Note_on_c, 0, 54, 113
1, 120418, Note_off_c, 0, 54, 113
1, 120459, Note_on_c, 0, 49, 112
1, 120573, Note_off_c, 0, 49, 112
1, 120899, Note_on_c, 0, 51, 115
1, 121067, Note_off_c, 0, 51, 115
1, 121308, Note_on_c, 0, 52, 113
1, 121418, Note_off_c, 0, 52, 113
1, 121418, Note_on_c, 0, 53, 113
1, 121470, Note_off_c, 0, 53, 113
1, 121470, Note_on_c, 0, 54, 112
1, 121579, Note_off_c, 0, 54, 112
1, 121595, Note_on_c, 0, 55, 108
1, 121678, Note_off_c, 0, 55, 108
1, 121794, Note_on_c, 0, 56, 108
1, 121896, Note_off_c, 0, 56, 108
1, 121900, Note_on_c, 0, 58, 106
1, 121996, Note_on_c, 0, 59, 109
1, 121996, Note_off_c, 0, 58, 106
1, 122074, Note_off_c, 0, 59, 109
1, 122078, Note_on_c, 0, 60, 117
1, 122164, Note_off_c, 0, 60, 117
1, 122173, Note_on_c, 0, 61, 109
1, 122255, Note_off_c, 0, 61, 109
1, 122261, Note_on_c, 0, 64, 119
1, 122374, Note_off_c, 0, 64, 119
1, 122376, Note_on_c, 0, 65, 118
1, 122467, Note_off_c, 0, 65, 118
1, 122470, Note_on_c, 0, 66, 115
1, 122547, Note_off_c, 0, 66, 115
1, 122574, Note_on_c, 0, 67, 111
1, 122611, Note_off_c, 0, 67, 111
1, 122634, Note_on_c, 0, 68, 115
1, 122721, Note_off_c, 0, 68, 115
1, 122739, Note_on_c, 0, 69, 114
1, 122799, Note_off_c, 0, 69, 114
1, 122805, Note_on_c, 0, 70, 110
1, 122907, Note_off_c, 0, 70, 110
1, 122923, Note_on_c, 0, 73, 107
1, 122990, Note_off_c, 0, 73, 107
1, 122996, Note_on_c, 0, 73, 113
1, 123118, Note_off_c, 0, 73, 113
1, 123129, Note_on_c, 0, 72, 110
1, 123209, Note_off_c, 0, 72, 110
1, 123241, Note_on_c, 0, 70, 113
1, 123289, Note_off_c, 0, 70, 113
1, 123307, Note_on_c, 0, 65, 99
1, 123370, Note_off_c, 0, 65, 99
1, 123381, Note_on_c, 0, 61, 109
1, 123501, Note_off_c, 0, 61, 109
1, 123501, Note_on_c, 0, 67, 100
1, 123562, Note_off_c, 0, 67, 100
1, 123583, Note_on_c, 0, 64, 122
1, 123701, Note_off_c, 0, 64, 122
1, 123703, Note_on_c, 0, 61, 109
1, 123788, Note_off_c, 0, 61, 109
1, 123788, Note_on_c, 0, 56, 110
1, 123876, Note_off_c, 0, 56, 110
1, 123923, Note_on_c, 0, 53, 114
1, 123974, Note_off_c, 0, 53, 114
1, 123974, Note_on_c, 0, 58, 115
1, 124063, Note_off_c, 0, 58, 115
1, 124063, Note_on_c, 0, 55, 107
1, 124108, Note_off_c, 0, 55, 107
1, 124108, Note_on_c, 0, 56, 107
1, 124211, Note_off_c, 0, 56, 107
1, 124230, Note_on_c, 0, 58, 108
1, 124331, Note_off_c, 0, 58, 108
1, 124331, Note_on_c, 0, 59, 104
1, 124403, Note_off_c, 0, 59, 104
1, 124426, Note_on_c, 0, 61, 112
1, 124523, Note_off_c, 0, 61, 112
1, 124536, Note_on_c, 0, 63, 114
1, 124617, Note_off_c, 0, 63, 114
1, 124665, Note_on_c, 0, 66, 105
1, 124714, Note_off_c, 0, 66, 105
1, 124714, Note_on_c, 0, 67, 118
1, 124804, Note_off_c, 0, 67, 118
1, 124806, Note_on_c, 0, 66, 111
1, 124882, Note_off_c, 0, 66, 111
1, 124895, Note_on_c, 0, 63, 113
1, 124974, Note_off_c, 0, 63, 113
1, 125005, Note_on_c, 0, 59, 96
1, 125061, Note_off_c, 0, 59, 96
1, 125084, Note_on_c, 0, 69, 111
1, 125189, Note_off_c, 0, 69, 111
1, 125197, Note_on_c, 0, 68, 107
1, 125252, Note_off_c, 0, 68, 107
1, 125263, Note_on_c, 0, 65, 105
1, 125364, Note_off_c, 0, 65, 105
1, 125379, Note_on_c, 0, 61, 96
1, 125446, Note_off_c, 0, 61, 96
1, 125477, Note_on_c, 0, 71, 103
1, 125551, Note_off_c, 0, 71, 103
1, 125560, Note_on_c, 0, 70, 107
1, 125627, Note_off_c, 0, 70, 107
1, 125633, Note_on_c, 0, 67, 105
1, 125732, Note_on_c, 0, 64, 105
1, 125732, Note_off_c, 0, 67, 105
1, 125801, Note_off_c, 0, 64, 105
1, 125867, Note_on_c, 0, 72, 107
1, 125914, Note_off_c, 0, 72, 107
1, 125920, Note_on_c, 0, 73, 104
1, 126065, Note_off_c, 0, 73, 104
1, 126083, Note_on_c, 0, 72, 110
1, 126153, Note_off_c, 0, 72, 110
1, 126181, Note_on_c, 0, 71, 112
1, 126279, Note_off_c, 0, 71, 112
1, 126340, Note_on_c, 0, 69, 112
1, 126401, Note_off_c, 0, 69, 112
1, 126401, Note_on_c, 0, 72, 108
1, 126433, Note_off_c, 0, 72, 108
1, 126433, Note_on_c, 0, 69, 111
1, 126528, Note_off_c, 0, 69, 111
1, 126540, Note_on_c, 0, 68, 111
1, 126594, Note_off_c, 0, 68, 111
1, 126612, Note_on_c, 0, 67, 111
1, 126690, Note_off_c, 0, 67, 111
1, 126706, Note_on_c, 0, 66, 111
1, 126796, Note_off_c, 0, 66, 111
1, 126804, Note_on_c, 0, 65, 110
1, 126885, Note_off_c, 0, 65, 110
1, 126894, Note_on_c, 0, 64, 115
1, 126980, Note_off_c, 0, 64, 115
1, 126999, Note_on_c, 0, 63, 116
1, 127081, Note_off_c, 0, 63, 116
1, 127082, Note_on_c, 0, 62, 118
1, 127163, Note_off_c, 0, 62, 118
1, 127167, Note_on_c, 0, 61, 112
1, 127257, Note_off_c, 0, 61, 112
1, 127275, Note_on_c, 0, 65, 111
1, 127349, Note_off_c, 0, 65, 111
1, 127349, Note_on_c, 0, 63, 116
1, 127439, Note_off_c, 0, 63, 116
1, 127441, Note_on_c, 0, 61, 111
1, 127530, Note_off_c, 0, 61, 111
1, 127535, Note_on_c, 0, 58, 104
1, 127620, Note_off_c, 0, 58, 104
1, 128241, Note_on_c, 0, 64, 117
1, 128313, Note_off_c, 0, 64, 117
1, 128315, Note_on_c, 0, 65, 111
1, 128370, Note_off_c, 0, 65, 111
1, 128379, Note_on_c, 0, 69, 107
1, 128431, Note_off_c, 0, 69, 107
1, 128456, Note_on_c, 0, 72, 109
1, 128511, Note_off_c, 0, 72, 109
1, 128520, Note_on_c, 0, 75, 121
1, 128637, Note_off_c, 0, 75, 121
1, 128638, Note_on_c, 0, 79, 117
1, 129268, Note_off_c, 0, 79, 117
1, 130091, Note_on_c, 0, 74, 93
1, 130124, Note_off_c, 0, 74, 93
1, 130139, Note_on_c, 0, 75, 123
1, 130436, Note_off_c, 0, 75, 123
1, 130438, Note_on_c, 0, 74, 107
1, 130490, Note_off_c, 0, 74, 107
1, 130498, Note_on_c, 0, 73, 107
1, 130535, Note_off_c, 0, 73, 107
1, 130535, Note_on_c, 0, 72, 112
1, 130873, Note_off_c, 0, 72, 112
1, 130879, Note_on_c, 0, 70, 116
1, 130964, Note_off_c, 0, 70, 116
1, 130970, Note_on_c, 0, 69, 112
1, 131248, Note_off_c, 0, 69, 112
1, 131248, Note_on_c, 0, 67, 113
1, 131313, Note_off_c, 0, 67, 113
1, 131321, Note_on_c, 0, 65, 113
1, 131415, Note_off_c, 0, 65, 113
1, 131416, Note_on_c, 0, 64, 112
1, 131487, Note_off_c, 0, 64, 112
1, 131492, Note_on_c, 0, 63, 119
1, 131557, Note_off_c, 0, 63, 119
1, 131563, Note_on_c, 0, 65, 111
1, 131671, Note_off_c, 0, 65, 111
1, 131692, Note_on_c, 0, 62, 116
1, 131793, Note_off_c, 0, 62, 116
1, 131793, Note_on_c, 0, 60, 108
1, 131886, Note_off_c, 0, 60, 108
1, 131889, Note_on_c, 0, 59, 105
1, 131970, Note_off_c, 0, 59, 105
1, 131970, Note_on_c, 0, 62, 122
1, 132069, Note_off_c, 0, 62, 122
1, 132073, Note_on_c, 0, 60, 115
1, 132151, Note_off_c, 0, 60, 115
1, 132153, Note_on_c, 0, 58, 107
1, 132232, Note_off_c, 0, 58, 107
1, 132234, Note_on_c, 0, 57, 108
1, 132320, Note_off_c, 0, 57, 108
1, 132346, Note_on_c, 0, 55, 112
1, 132419, Note_off_c, 0, 55, 112
1, 132431, Note_on_c, 0, 54, 110
1, 132536, Note_off_c, 0, 54, 110
1, 132536, Note_on_c, 0, 52, 110
1, 132636, Note_off_c, 0, 52, 110
1, 132636, Note_on_c, 0, 53, 111
1, 132745, Note_off_c, 0, 53, 111
1, 132745, Note_on_c, 0, 51, 113
1, 132803, Note_off_c, 0, 51, 113
1, 132825, Note_on_c, 0, 50, 113
1, 132925, Note_off_c, 0, 50, 113
1, 132925, Note_on_c, 0, 53, 106
1, 132984, Note_off_c, 0, 53, 106
1, 132995, Note_on_c, 0, 58, 112
1, 133093, Note_off_c, 0, 58, 112
1, 133095, Note_on_c, 0, 60, 114
1, 133184, Note_off_c, 0, 60, 114
1, 133211, Note_on_c, 0, 63, 122
1, 133286, Note_off_c, 0, 63, 122
1, 133295, Note_on_c, 0, 60, 114
1, 133376, Note_off_c, 0, 60, 114
1, 133391, Note_on_c, 0, 56, 114
1, 133479, Note_off_c, 0, 56, 114
1, 133493, Note_on_c, 0, 53, 103
1, 133551, Note_off_c, 0, 53, 103
1, 133554, Note_on_c, 0, 60, 109
1, 133649, Note_off_c, 0, 60, 109
1, 133666, Note_on_c, 0, 65, 115
1, 133764, Note_off_c, 0, 65, 115
1, 133764, Note_on_c, 0, 63, 114
1, 133857, Note_off_c, 0, 63, 114
1, 133859, Note_on_c, 0, 60, 110
1, 133946, Note_off_c, 0, 60, 110
1, 133946, Note_on_c, 0, 58, 109
1, 134039, Note_off_c, 0, 58, 109
1, 134058, Note_on_c, 0, 56, 103
1, 134117, Note_off_c, 0, 56, 103
1, 134117, Note_on_c, 0, 60, 115
1, 134221, Note_off_c, 0, 60, 115
1, 134245, Note_on_c, 0, 65, 117
1, 134326, Note_off_c, 0, 65, 117
1, 134326, Note_on_c, 0, 62, 117
1, 134405, Note_off_c, 0, 62, 117
1, 134408, Note_on_c, 0, 60, 112
1, 134505, Note_off_c, 0, 60, 112
1, 134515, Note_on_c, 0, 56, 110
1, 134592, Note_off_c, 0, 56, 110
1, 134603, Note_on_c, 0, 53, 103
1, 134671, Note_off_c, 0, 53, 103
1, 134691, Note_on_c, 0, 60, 113
1, 134793, Note_off_c, 0, 60, 113
1, 134800, Note_on_c, 0, 65, 116
1, 134884, Note_off_c, 0, 65, 116
1, 134888, Note_on_c, 0, 63, 118
1, 134974, Note_off_c, 0, 63, 118
1, 134978, Note_on_c, 0, 60, 112
1, 135093, Note_off_c, 0, 60, 112
1, 135093, Note_on_c, 0, 58, 109
1, 135182, Note_off_c, 0, 58, 109
1, 135220, Note_on_c, 0, 52, 110
1, 135255, Note_off_c, 0, 52, 110
1, 135255, Note_on_c, 0, 61, 113
1, 135348, Note_off_c, 0, 61, 113
1, 135355, Note_on_c, 0, 66, 113
1, 135445, Note_off_c, 0, 66, 113
1, 135450, Note_on_c, 0, 64, 116
1, 135537, Note_off_c, 0, 64, 116
1, 135537, Note_on_c, 0, 61, 111
1, 135628, Note_off_c, 0, 61, 111
1, 135628, Note_on_c, 0, 59, 109
1, 135727, Note_on_c, 0, 55, 101
1, 135727, Note_off_c, 0, 59, 109
1, 135801, Note_off_c, 0, 55, 101
1, 135810, Note_on_c, 0, 67, 116
1, 135926, Note_off_c, 0, 67, 116
1, 136412, Note_on_c, 0, 60, 120
1, 136490, Note_off_c, 0, 60, 120
1, 136509, Note_on_c, 0, 65, 117
1, 136585, Note_off_c, 0, 65, 117
1, 136591, Note_on_c, 0, 63, 110
1, 136678, Note_off_c, 0, 63, 110
1, 136682, Note_on_c, 0, 60, 110
1, 136765, Note_off_c, 0, 60, 110
1, 136778, Note_on_c, 0, 58, 109
1, 136853, Note_off_c, 0, 58, 109
1, 136935, Note_on_c, 0, 61, 117
1, 137038, Note_off_c, 0, 61, 117
1, 137042, Note_on_c, 0, 66, 118
1, 137133, Note_off_c, 0, 66, 118
1, 137133, Note_on_c, 0, 64, 119
1, 137240, Note_off_c, 0, 64, 119
1, 137243, Note_on_c, 0, 61, 114
1, 137344, Note_off_c, 0, 61, 114
1, 137344, Note_on_c, 0, 59, 109
1, 137442, Note_off_c, 0, 59, 109
1, 137455, Note_on_c, 0, 55, 102
1, 137514, Note_off_c, 0, 55, 102
1, 137533, Note_on_c, 0, 62, 124
1, 137628, Note_off_c, 0, 62, 124
1, 137628, Note_on_c, 0, 67, 115
1, 137700, Note_off_c, 0, 67, 115
1, 137702, Note_on_c, 0, 65, 109
1, 137801, Note_off_c, 0, 65, 109
1, 137818, Note_on_c, 0, 62, 120
1, 137890, Note_off_c, 0, 62, 120
1, 137897, Note_on_c, 0, 60, 110
1, 138014, Note_off_c, 0, 60, 110
1, 138028, Note_on_c, 0, 56, 97
1, 138086, Note_off_c, 0, 56, 97
1, 138086, Note_on_c, 0, 63, 119
1, 138204, Note_off_c, 0, 63, 119
1, 138204, Note_on_c, 0, 68, 115
1, 138286, Note_off_c, 0, 68, 115
1, 138303, Note_on_c, 0, 63, 111
1, 138378, Note_off_c, 0, 63, 111
1, 138378, Note_on_c, 0, 68, 114
1, 138477, Note_off_c, 0, 68, 114
1, 138486, Note_on_c, 0, 66, 105
1, 138556, Note_off_c, 0, 66, 105
1, 138568, Note_on_c, 0, 63, 118
1, 138649, Note_off_c, 0, 63, 118
1, 138649, Note_on_c, 0, 61, 109
1, 138736, Note_off_c, 0, 61, 109
1, 138737, Note_on_c, 0, 59, 98
1, 138818, Note_off_c, 0, 59, 98
1, 138837, Note_on_c, 0, 64, 120
1, 138948, Note_off_c, 0, 64, 120
1, 138966, Note_on_c, 0, 69, 111
1, 139038, Note_off_c, 0, 69, 111
1, 139047, Note_on_c, 0, 64, 107
1, 139140, Note_off_c, 0, 64, 107
1, 139143, Note_on_c, 0, 69, 112
1, 139214, Note_off_c, 0, 69, 112
1, 139223, Note_on_c, 0, 64, 112
1, 139311, Note_off_c, 0, 64, 112
1, 139320, Note_on_c, 0, 69, 110
1, 139403, Note_off_c, 0, 69, 110
1, 139416, Note_on_c, 0, 64, 114
1, 139493, Note_off_c, 0, 64, 114
1, 139504, Note_on_c, 0, 69, 110
1, 139590, Note_off_c, 0, 69, 110
1, 139593, Note_on_c, 0, 64, 108
1, 139685, Note_off_c, 0, 64, 108
1, 139696, Note_on_c, 0, 69, 110
1, 139773, Note_off_c, 0, 69, 110
1, 139784, Note_on_c, 0, 69, 113
1, 139881, Note_off_c, 0, 69, 113
1, 139888, Note_on_c, 0, 64, 91
1, 139962, Note_off_c, 0, 64, 91
1, 139975, Note_on_c, 0, 69, 110
1, 140050, Note_off_c, 0, 69, 110
1, 140050, Note_on_c, 0, 64, 104
1, 140131, Note_off_c, 0, 64, 104
1, 140137, Note_on_c, 0, 69, 110
1, 140222, Note_off_c, 0, 69, 110
1, 140237, Note_on_c, 0, 69, 111
1, 140341, Note_off_c, 0, 69, 111
1, 140364, Note_on_c, 0, 64, 115
1, 140453, Note_off_c, 0, 64, 115
1, 140454, Note_on_c, 0, 69, 111
1, 140535, Note_off_c, 0, 69, 111
1, 140538, Note_on_c, 0, 67, 110
1, 140633, Note_on_c, 0, 64, 116
1, 140633, Note_off_c, 0, 67, 110
1, 140710, Note_off_c, 0, 64, 116
1, 140710, Note_on_c, 0, 62, 116
1, 140807, Note_off_c, 0, 62, 116
1, 140813, Note_on_c, 0, 57, 101
1, 140897, Note_off_c, 0, 57, 101
1, 140916, Note_on_c, 0, 65, 111
1, 140999, Note_off_c, 0, 65, 111
1, 140999, Note_on_c, 0, 70, 108
1, 141079, Note_off_c, 0, 70, 108
1, 141096, Note_on_c, 0, 67, 110
1, 141184, Note_off_c, 0, 67, 110
1, 141199, Note_on_c, 0, 65, 114
1, 141270, Note_off_c, 0, 65, 114
1, 141270, Note_on_c, 0, 63, 116
1, 141409, Note_off_c, 0, 63, 116
1, 141410, Note_on_c, 0, 60, 97
1, 141457, Note_off_c, 0, 60, 97
1, 141474, Note_on_c, 0, 66, 112
1, 141577, Note_off_c, 0, 66, 112
1, 141585, Note_on_c, 0, 68, 111
1, 141675, Note_off_c, 0, 68, 111
1, 141675, Note_on_c, 0, 71, 104
1, 141751, Note_off_c, 0, 71, 104
1, 141766, Note_on_c, 0, 73, 108
1, 142529, Note_off_c, 0, 73, 108
1, 142535, Note_on_c, 0, 73, 110
1, 142607, Note_off_c, 0, 73, 110
1, 142607, Note_on_c, 0, 69, 111
1, 142662, Note_off_c, 0, 69, 111
1, 142662, Note_on_c, 0, 70, 114
1, 142778, Note_off_c, 0, 70, 114
1, 143557, Note_on_c, 0, 69, 115
1, 143658, Note_off_c, 0, 69, 115
1, 143669, Note_on_c, 0, 73, 107
1, 143741, Note_off_c, 0, 73, 107
1, 143741, Note_on_c, 0, 71, 115
1, 143829, Note_off_c, 0, 71, 115
1, 143834, Note_on_c, 0, 69, 115
1, 143921, Note_off_c, 0, 69, 115
1, 143932, Note_on_c, 0, 67, 111
1, 144034, Note_off_c, 0, 67, 111
1, 144049, Note_on_c, 0, 66, 116
1, 144131, Note_off_c, 0, 66, 116
1, 144134, Note_on_c, 0, 65, 112
1, 144233, Note_off_c, 0, 65, 112
1, 144242, Note_on_c, 0, 64, 121
1, 144328, Note_off_c, 0, 64, 121
1, 144330, Note_on_c, 0, 63, 117
1, 144394, Note_off_c, 0, 63, 117
1, 144408, Note_on_c, 0, 65, 117
1, 144489, Note_off_c, 0, 65, 117
1, 144489, Note_on_c, 0, 64, 121
1, 144591, Note_off_c, 0, 64, 121
1, 144594, Note_on_c, 0, 62, 114
1, 144665, Note_off_c, 0, 62, 114
1, 144674, Note_on_c, 0, 67, 108
1, 144724, Note_off_c, 0, 67, 108
1, 144724, Note_on_c, 0, 66, 106
1, 144786, Note_off_c, 0, 66, 106
1, 144862, Note_on_c, 0, 58, 112
1, 144965, Note_off_c, 0, 58, 112
1, 144990, Note_on_c, 0, 60, 113
1, 145075, Note_off_c, 0, 60, 113
1, 145089, Note_on_c, 0, 62, 105
1, 145189, Note_on_c, 0, 65, 103
1, 145189, Note_off_c, 0, 62, 105
1, 145231, Note_off_c, 0, 65, 103
1, 145246, Note_on_c, 0, 70, 118
1, 145341, Note_off_c, 0, 70, 118
1, 145355, Note_on_c, 0, 74, 107
1, 145486, Note_off_c, 0, 74, 107
1, 145490, Note_on_c, 0, 68, 103
1, 145563, Note_off_c, 0, 68, 103
1, 145855, Note_on_c, 0, 68, 115
1, 145964, Note_off_c, 0, 68, 115
1, 145971, Note_on_c, 0, 73, 104
1, 146035, Note_off_c, 0, 73, 104
1, 146035, Note_on_c, 0, 70, 111
1, 146105, Note_off_c, 0, 70, 111
1, 146114, Note_on_c, 0, 66, 111
1, 146183, Note_off_c, 0, 66, 111
1, 146203, Note_on_c, 0, 61, 107
1, 146296, Note_off_c, 0, 61, 107
1, 146303, Note_on_c, 0, 57, 91
1, 146378, Note_off_c, 0, 57, 91
1, 146378, Note_on_c, 0, 64, 121
1, 146508, Note_off_c, 0, 64, 121
1, 146762, Note_on_c, 0, 67, 112
1, 146878, Note_off_c, 0, 67, 112
1, 147148, Note_on_c, 0, 65, 107
1, 147177, Note_off_c, 0, 65, 107
1, 147177, Note_on_c, 0, 64, 112
1, 147215, Note_off_c, 0, 64, 112
1, 147215, Note_on_c, 0, 66, 106
1, 147259, Note_off_c, 0, 66, 106
1, 147517, Note_on_c, 0, 65, 116
1, 147637, Note_off_c, 0, 65, 116
1, 147925, Note_on_c, 0, 59, 107
1, 148014, Note_off_c, 0, 59, 107
1, 148217, Note_on_c, 0, 55, 105
1, 148305, Note_on_c, 0, 59, 105
1, 148305, Note_off_c, 0, 55, 105
1, 148368, Note_off_c, 0, 59, 105
1, 148374, Note_on_c, 0, 62, 123
1, 148479, Note_off_c, 0, 62, 123
1, 148479, Note_on_c, 0, 60, 112
1, 148560, Note_off_c, 0, 60, 112
1, 148569, Note_on_c, 0, 58, 108
1, 148641, Note_off_c, 0, 58, 108
1, 148653, Note_on_c, 0, 57, 109
1, 148734, Note_off_c, 0, 57, 109
1, 148775, Note_on_c, 0, 60, 113
1, 148873, Note_off_c, 0, 60, 113
1, 148877, Note_on_c, 0, 63, 111
1, 148933, Note_off_c, 0, 63, 111
1, 148954, Note_on_c, 0, 65, 97
1, 149034, Note_off_c, 0, 65, 97
1, 149050, Note_on_c, 0, 67, 120
1, 149108, Note_off_c, 0, 67, 120
1, 149137, Note_on_c, 0, 67, 115
1, 149213, Note_off_c, 0, 67, 115
1, 149214, Note_on_c, 0, 66, 113
1, 149318, Note_off_c, 0, 66, 113
1, 149342, Note_on_c, 0, 64, 107
1, 149421, Note_off_c, 0, 64, 107
1, 149426, Note_on_c, 0, 65, 118
1, 149512, Note_off_c, 0, 65, 118
1, 149517, Note_on_c, 0, 63, 122
1, 149604, Note_off_c, 0, 63, 122
1, 149605, Note_on_c, 0, 62, 120
1, 149704, Note_off_c, 0, 62, 120
1, 149713, Note_on_c, 0, 60, 109
1, 149764, Note_off_c, 0, 60, 109
1, 149773, Note_on_c, 0, 59, 107
1, 149863, Note_off_c, 0, 59, 107
1, 149869, Note_on_c, 0, 67, 114
1, 149923, Note_off_c, 0, 67, 114
1, 149925, Note_on_c, 0, 66, 112
1, 150002, Note_off_c, 0, 66, 112
1, 150002, Note_on_c, 0, 67, 112
1, 150051, Note_off_c, 0, 67, 112
1, 150077, Note_on_c, 0, 66, 111
1, 150154, Note_off_c, 0, 66, 111
1, 150156, Note_on_c, 0, 65, 112
1, 150247, Note_off_c, 0, 65, 112
1, 150257, Note_on_c, 0, 64, 117
1, 150338, Note_on_c, 0, 63, 116
1, 150338, Note_off_c, 0, 64, 117
1, 150429, Note_off_c, 0, 63, 116
1, 150440, Note_on_c, 0, 62, 115
1, 150536, Note_off_c, 0, 62, 115
1, 150541, Note_on_c, 0, 60, 113
1, 150609, Note_off_c, 0, 60, 113
1, 150629, Note_on_c, 0, 58, 109
1, 150692, Note_off_c, 0, 58, 109
1, 150694, Note_on_c, 0, 57, 105
1, 150814, Note_off_c, 0, 57, 105
1, 150909, Note_on_c, 0, 58, 107
1, 151013, Note_off_c, 0, 58, 107
1, 151064, Note_on_c, 0, 53, 111
1, 151098, Note_off_c, 0, 53, 111
1, 151098, Note_on_c, 0, 56, 101
1, 151286, Note_off_c, 0, 56, 101
1, 151297, Note_on_c, 0, 58, 104
1, 151431, Note_off_c, 0, 58, 104
1, 151505, Note_on_c, 0, 56, 100
1, 151648, Note_off_c, 0, 56, 100
1, 151648, End_track
0, 0, End_of_file
