0, 0, Header, 1, 1, 840
1, 0, Start_track
1, 0, Title_t, "Melody"
1, 0, Tempo, 476190
1, 0, Key_signature, -3, "major"
1, 0, Time_signature, 4, 2, 24, 8
1, 8016, Note_on_c, 0, 55, 100
1, 8231, Note_off_c, 0, 55, 100
1, 8277, Note_on_c, 0, 60, 116
1, 8492, Note_off_c, 0, 60, 116
1, 8573, Note_on_c, 0, 63, 123
1, 8818, Note_off_c, 0, 63, 123
1, 8838, Note_on_c, 0, 65, 119
1, 9073, Note_off_c, 0, 65, 119
1, 9144, Note_on_c, 0, 67, 116
1, 9389, Note_off_c, 0, 67, 116
1, 9470, Note_on_c, 0, 63, 121
1, 9664, Note_off_c, 0, 63, 121
1, 9664, Note_on_c, 0, 65, 114
1, 10974, Note_off_c, 0, 65, 114
1, 11148, Note_on_c, 0, 65, 115
1, 11782, Note_off_c, 0, 65, 115
1, 11782, Note_on_c, 0, 63, 101
1, 11853, Note_off_c, 0, 63, 101
1, 11853, Note_on_c, 0, 65, 108
1, 12487, Note_off_c, 0, 65, 108
1, 14739, Note_on_c, 0, 55, 95
1, 14984, Note_off_c, 0, 55, 95
1, 14984, Note_on_c, 0, 60, 112
1, 15199, Note_off_c, 0, 60, 112
1, 15250, Note_on_c, 0, 63, 122
1, 15505, Note_off_c, 0, 63, 122
1, 15535, Note_on_c, 0, 65, 120
1, 15770, Note_off_c, 0, 65, 120
1, 15800, Note_on_c, 0, 66, 115
1, 16086, Note_off_c, 0, 66, 115
1, 16157, Note_on_c, 0, 65, 112
1, 17590, Note_off_c, 0, 65, 112
1, 17620, Note_on_c, 0, 63, 102
1, 17712, Note_off_c, 0, 63, 102
1, 17824, Note_on_c, 0, 65, 115
1, 18653, Note_off_c, 0, 65, 115
1, 18663, Note_on_c, 0, 63, 119
1, 19174, Note_on_c, 0, 66, 114
1, 19174, Note_off_c, 0, 63, 119
1, 19808, Note_off_c, 0, 66, 114
1, 22301, Note_on_c, 0, 66, 114
1, 22659, Note_off_c, 0, 66, 114
1, 22705, Note_on_c, 0, 63, 104
1, 22848, Note_off_c, 0, 63, 104
1, 22950, Note_on_c, 0, 65, 118
1, 23369, Note_off_c, 0, 65, 118
1, 23461, Note_on_c, 0, 64, 124
1, 23747, Note_off_c, 0, 64, 124
1, 23910, Note_on_c, 0, 63, 124
1, 24206, Note_off_c, 0, 63, 124
1, 24359, Note_on_c, 0, 61, 116
1, 24522, Note_off_c, 0, 61, 116
1, 24788, Note_on_c, 0, 63, 120
1, 24982, Note_off_c, 0, 63, 120
1, 25002, Note_on_c, 0, 62, 115
1, 25191, Note_off_c, 0, 62, 115
1, 25257, Note_on_c, 0, 60, 111
1, 25420, Note_off_c, 0, 60, 111
1, 25553, Note_on_c, 0, 59, 100
1, 25788, Note_off_c, 0, 59, 100
1, 25808, Note_on_c, 0, 62, 110
1, 25982, Note_off_c, 0, 62, 110
1, 25992, Note_on_c, 0, 65, 112
1, 26227, Note_off_c, 0, 65, 112
1, 26431, Note_on_c, 0, 70, 117
1, 27444, Note_off_c, 0, 70, 117
1, 27577, Note_on_c, 0, 68, 107
1, 27740, Note_off_c, 0, 68, 107
1, 27760, Note_on_c, 0, 70, 110
1, 27934, Note_off_c, 0, 70, 110
1, 28118, Note_on_c, 0, 65, 107
1, 28845, Note_off_c, 0, 65, 107
1, 28865, Note_on_c, 0, 67, 111
1, 29356, Note_off_c, 0, 67, 111
1, 29376, Note_on_c, 0, 63, 120
1, 29570, Note_off_c, 0, 63, 120
1, 29590, Note_on_c, 0, 65, 114
1, 30040, Note_off_c, 0, 65, 114
1, 30040, Note_on_c, 0, 63, 115
1, 30285, Note_off_c, 0, 63, 115
1, 30300, Note_on_c, 0, 60, 102
1, 30489, Note_off_c, 0, 60, 102
1, 30512, Note_on_c, 0, 53, 99
1, 30711, Note_off_c, 0, 53, 99
1, 30711, Note_on_c, 0, 51, 96
1, 30915, Note_off_c, 0, 51, 96
1, 30915, Note_on_c, 0, 53, 93
1, 31122, Note_off_c, 0, 53, 93
1, 31171, Note_on_c, 0, 51, 105
1, 31315, Note_off_c, 0, 51, 105
1, 31315, Note_on_c, 0, 55, 101
1, 31565, Note_off_c, 0, 55, 101
1, 31571, Note_on_c, 0, 48, 92
1, 31767, Note_off_c, 0, 48, 92
1, 31817, Note_on_c, 0, 51, 107
1, 32070, Note_off_c, 0, 51, 107
1, 34876, Note_on_c, 0, 73, 110
1, 35183, Note_off_c, 0, 73, 110
1, 35183, Note_on_c, 0, 74, 112
1, 35654, Note_off_c, 0, 74, 112
1, 35746, Note_on_c, 0, 72, 111
1, 36053, Note_off_c, 0, 72, 111
1, 36288, Note_on_c, 0, 70, 111
1, 36564, Note_off_c, 0, 70, 111
1, 36861, Note_on_c, 0, 69, 114
1, 37424, Note_off_c, 0, 69, 114
1, 37495, Note_on_c, 0, 67, 111
1, 37914, Note_off_c, 0, 67, 111
1, 37996, Note_on_c, 0, 65, 114
1, 38272, Note_off_c, 0, 65, 114
1, 38497, Note_on_c, 0, 63, 114
1, 39203, Note_off_c, 0, 63, 114
1, 39233, Note_on_c, 0, 62, 117
1, 39652, Note_off_c, 0, 62, 117
1, 39713, Note_on_c, 0, 60, 110
1, 39989, Note_off_c, 0, 60, 110
1, 40050, Note_on_c, 0, 59, 101
1, 40459, Note_off_c, 0, 59, 101
1, 40540, Note_on_c, 0, 62, 113
1, 40796, Note_off_c, 0, 62, 113
1, 40806, Note_on_c, 0, 58, 100
1, 41266, Note_off_c, 0, 58, 100
1, 41266, Note_on_c, 0, 58, 103
1, 41347, Note_off_c, 0, 58, 103
1, 41347, Note_on_c, 0, 57, 101
1, 41582, Note_off_c, 0, 57, 101
1, 41664, Note_on_c, 0, 56, 100
1, 42401, Note_off_c, 0, 56, 100
1, 42503, Note_on_c, 0, 54, 91
1, 43096, Note_on_c, 0, 55, 101
1, 43096, Note_off_c, 0, 54, 91
1, 43331, Note_off_c, 0, 55, 101
1, 43464, Note_on_c, 0, 63, 108
1, 43504, Note_off_c, 0, 63, 108
1, 43504, Note_on_c, 0, 65, 111
1, 44097, Note_off_c, 0, 65, 111
1, 44107, Note_on_c, 0, 63, 107
1, 44670, Note_off_c, 0, 63, 107
1, 44710, Note_on_c, 0, 60, 101
1, 45262, Note_off_c, 0, 60, 101
1, 46194, Note_on_c, 0, 69, 114
1, 46457, Note_on_c, 0, 68, 118
1, 46457, Note_off_c, 0, 69, 114
1, 46728, Note_off_c, 0, 68, 118
1, 46776, Note_on_c, 0, 67, 115
1, 47102, Note_off_c, 0, 67, 115
1, 47337, Note_on_c, 0, 69, 117
1, 47582, Note_off_c, 0, 69, 117
1, 47797, Note_on_c, 0, 71, 114
1, 48053, Note_off_c, 0, 71, 114
1, 48196, Note_on_c, 0, 67, 115
1, 48452, Note_off_c, 0, 67, 115
1, 48584, Note_on_c, 0, 66, 110
1, 48768, Note_off_c, 0, 66, 110
1, 48768, Note_on_c, 0, 67, 105
1, 48921, Note_off_c, 0, 67, 105
1, 48936, Note_on_c, 0, 66, 117
1, 49125, Note_off_c, 0, 66, 117
1, 49145, Note_on_c, 0, 65, 103
1, 49375, Note_off_c, 0, 65, 103
1, 49431, Note_on_c, 0, 64, 117
1, 49861, Note_off_c, 0, 64, 117
1, 49937, Note_on_c, 0, 62, 98
1, 50193, Note_off_c, 0, 62, 98
1, 50218, Note_on_c, 0, 63, 117
1, 50576, Note_off_c, 0, 63, 117
1, 50725, Note_on_c, 0, 65, 116
1, 51001, Note_off_c, 0, 65, 116
1, 51123, Note_on_c, 0, 66, 111
1, 51440, Note_off_c, 0, 66, 111
1, 51562, Note_on_c, 0, 68, 117
1, 51817, Note_off_c, 0, 68, 117
1, 51991, Note_on_c, 0, 70, 110
1, 52298, Note_off_c, 0, 70, 110
1, 52451, Note_on_c, 0, 73, 107
1, 52778, Note_off_c, 0, 73, 107
1, 52778, Note_on_c, 0, 72, 108
1, 53208, Note_off_c, 0, 72, 108
1, 53303, Note_on_c, 0, 70, 94
1, 53517, Note_off_c, 0, 70, 94
1, 53616, Note_on_c, 0, 71, 110
1, 54063, Note_off_c, 0, 71, 110
1, 54063, Note_on_c, 0, 62, 101
1, 54330, Note_off_c, 0, 62, 101
1, 54464, Note_on_c, 0, 65, 109
1, 54904, Note_off_c, 0, 65, 109
1, 54924, Note_on_c, 0, 67, 106
1, 55210, Note_off_c, 0, 67, 106
1, 55302, Note_on_c, 0, 68, 105
1, 55732, Note_off_c, 0, 68, 105
1, 55814, Note_on_c, 0, 67, 106
1, 56029, Note_off_c, 0, 67, 106
1, 56131, Note_on_c, 0, 65, 106
1, 56657, Note_off_c, 0, 65, 106
1, 56657, Note_on_c, 0, 62, 96
1, 56861, Note_off_c, 0, 62, 96
1, 56980, Note_on_c, 0, 63, 113
1, 57348, Note_off_c, 0, 63, 113
1, 57986, Note_on_c, 0, 55, 101
1, 58185, Note_on_c, 0, 57, 99
1, 58185, Note_off_c, 0, 55, 101
1, 58374, Note_off_c, 0, 57, 99
1, 58374, Note_on_c, 0, 62, 114
1, 58535, Note_off_c, 0, 62, 114
1, 58800, Note_on_c, 0, 60, 109
1, 59486, Note_off_c, 0, 60, 109
1, 62107, Note_on_c, 0, 60, 117
1, 62496, Note_off_c, 0, 60, 117
1, 62608, Note_on_c, 0, 65, 120
1, 62833, Note_off_c, 0, 65, 120
1, 62935, Note_on_c, 0, 68, 120
1, 63231, Note_off_c, 0, 68, 120
1, 63425, Note_on_c, 0, 72, 113
1, 63875, Note_on_c, 0, 70, 112
1, 63875, Note_off_c, 0, 72, 113
1, 65267, Note_off_c, 0, 70, 112
1, 65512, Note_on_c, 0, 70, 110
1, 66771, Note_off_c, 0, 70, 110
1, 66907, Note_on_c, 0, 70, 110
1, 68070, Note_off_c, 0, 70, 110
1, 68070, Note_on_c, 0, 67, 109
1, 68561, Note_off_c, 0, 67, 109
1, 68672, Note_on_c, 0, 62, 89
1, 68883, Note_off_c, 0, 62, 89
1, 68897, Note_on_c, 0, 70, 111
1, 69388, Note_off_c, 0, 70, 111
1, 69695, Note_on_c, 0, 70, 107
1, 71282, Note_off_c, 0, 70, 107
1, 71374, Note_on_c, 0, 68, 114
1, 71568, Note_off_c, 0, 68, 114
1, 71639, Note_on_c, 0, 65, 113
1, 71843, Note_off_c, 0, 65, 113
1, 71920, Note_on_c, 0, 60, 113
1, 72180, Note_off_c, 0, 60, 113
1, 72364, Note_on_c, 0, 58, 98
1, 73075, Note_off_c, 0, 58, 98
1, 73075, Note_on_c, 0, 56, 95
1, 73555, Note_off_c, 0, 56, 95
1, 75639, Note_on_c, 0, 72, 118
1, 76499, Note_off_c, 0, 72, 118
1, 76499, Note_on_c, 0, 70, 115
1, 76918, Note_off_c, 0, 70, 115
1, 77030, Note_on_c, 0, 68, 119
1, 77296, Note_off_c, 0, 68, 119
1, 77941, Note_on_c, 0, 67, 119
1, 78196, Note_off_c, 0, 67, 119
1, 78196, Note_on_c, 0, 66, 106
1, 78441, Note_off_c, 0, 66, 106
1, 78461, Note_on_c, 0, 69, 110
1, 78573, Note_off_c, 0, 69, 110
1, 78603, Note_on_c, 0, 66, 111
1, 78807, Note_off_c, 0, 66, 111
1, 78807, Note_on_c, 0, 65, 114
1, 79103, Note_off_c, 0, 65, 114
1, 79236, Note_on_c, 0, 63, 119
1, 79604, Note_off_c, 0, 63, 119
1, 79685, Note_on_c, 0, 61, 106
1, 79920, Note_off_c, 0, 61, 106
1, 80042, Note_on_c, 0, 62, 112
1, 80584, Note_off_c, 0, 62, 112
1, 80584, Note_on_c, 0, 60, 112
1, 80768, Note_off_c, 0, 60, 112
1, 80880, Note_on_c, 0, 59, 107
1, 81299, Note_off_c, 0, 59, 107
1, 81391, Note_on_c, 0, 62, 119
1, 81626, Note_off_c, 0, 62, 119
1, 81626, Note_on_c, 0, 65, 115
1, 82086, Note_off_c, 0, 65, 115
1, 82188, Note_on_c, 0, 67, 112
1, 82433, Note_off_c, 0, 67, 112
1, 82576, Note_on_c, 0, 68, 118
1, 83262, Note_off_c, 0, 68, 118
1, 83262, Note_on_c, 0, 67, 111
1, 83814, Note_off_c, 0, 67, 111
1, 83844, Note_on_c, 0, 65, 112
1, 84171, Note_off_c, 0, 65, 112
1, 84252, Note_on_c, 0, 63, 114
1, 84856, Note_off_c, 0, 63, 114
1, 84856, Note_on_c, 0, 62, 113
1, 85542, Note_off_c, 0, 62, 113
1, 85582, Note_on_c, 0, 60, 108
1, 86247, Note_off_c, 0, 60, 108
1, 86984, Note_on_c, 0, 63, 115
1, 87238, Note_off_c, 0, 63, 115
1, 87238, Note_on_c, 0, 58, 101
1, 87463, Note_off_c, 0, 58, 101
1, 87495, Note_on_c, 0, 64, 113
1, 87689, Note_off_c, 0, 64, 113
1, 87699, Note_on_c, 0, 67, 110
1, 87883, Note_off_c, 0, 67, 110
1, 87883, Note_on_c, 0, 66, 111
1, 88610, Note_off_c, 0, 66, 111
1, 88630, Note_on_c, 0, 64, 115
1, 88814, Note_off_c, 0, 64, 115
1, 88814, Note_on_c, 0, 63, 116
1, 88998, Note_off_c, 0, 63, 116
1, 88998, Note_on_c, 0, 62, 116
1, 89213, Note_off_c, 0, 62, 116
1, 89223, Note_on_c, 0, 61, 108
1, 89366, Note_off_c, 0, 61, 108
1, 89366, Note_on_c, 0, 63, 115
1, 89560, Note_off_c, 0, 63, 115
1, 89563, Note_on_c, 0, 60, 109
1, 89752, Note_off_c, 0, 60, 109
1, 89763, Note_on_c, 0, 62, 116
1, 89988, Note_off_c, 0, 62, 116
1, 89991, Note_on_c, 0, 64, 113
1, 90195, Note_on_c, 0, 65, 115
1, 90195, Note_off_c, 0, 64, 113
1, 90302, Note_off_c, 0, 65, 115
1, 90322, Note_on_c, 0, 66, 107
1, 90567, Note_off_c, 0, 66, 107
1, 90587, Note_on_c, 0, 68, 95
1, 90730, Note_off_c, 0, 68, 95
1, 90751, Note_on_c, 0, 70, 112
1, 90904, Note_off_c, 0, 70, 112
1, 90924, Note_on_c, 0, 73, 108
1, 91108, Note_off_c, 0, 73, 108
1, 91108, Note_on_c, 0, 72, 106
1, 91343, Note_off_c, 0, 72, 106
1, 91414, Note_on_c, 0, 70, 113
1, 91598, Note_off_c, 0, 70, 113
1, 91700, Note_on_c, 0, 68, 113
1, 91945, Note_off_c, 0, 68, 113
1, 91989, Note_on_c, 0, 70, 94
1, 92209, Note_off_c, 0, 70, 94
1, 92220, Note_on_c, 0, 72, 112
1, 92414, Note_off_c, 0, 72, 112
1, 92547, Note_on_c, 0, 70, 111
1, 93775, Note_off_c, 0, 70, 111
1, 93877, Note_on_c, 0, 67, 111
1, 93918, Note_off_c, 0, 67, 111
1, 93918, Note_on_c, 0, 67, 108
1, 94182, Note_off_c, 0, 67, 108
1, 94182, Note_on_c, 0, 62, 115
1, 94447, Note_off_c, 0, 62, 115
1, 94447, Note_on_c, 0, 58, 102
1, 94664, Note_off_c, 0, 58, 102
1, 96407, Note_on_c, 0, 53, 109
1, 96555, Note_on_c, 0, 55, 107
1, 96555, Note_off_c, 0, 53, 109
1, 96657, Note_off_c, 0, 55, 107
1, 96657, Note_on_c, 0, 56, 117
1, 96744, Note_off_c, 0, 56, 117
1, 96744, Note_on_c, 0, 58, 114
1, 96819, Note_off_c, 0, 58, 114
1, 96840, Note_on_c, 0, 60, 114
1, 96976, Note_off_c, 0, 60, 114
1, 97049, Note_on_c, 0, 62, 119
1, 97136, Note_off_c, 0, 62, 119
1, 97136, Note_on_c, 0, 63, 121
1, 97197, Note_off_c, 0, 63, 121
1, 97222, Note_on_c, 0, 65, 108
1, 97303, Note_off_c, 0, 65, 108
1, 97343, Note_on_c, 0, 67, 115
1, 97400, Note_off_c, 0, 67, 115
1, 97414, Note_on_c, 0, 68, 113
1, 97465, Note_off_c, 0, 68, 113
1, 97465, Note_on_c, 0, 70, 117
1, 97516, Note_off_c, 0, 70, 117
1, 97516, Note_on_c, 0, 71, 112
1, 97577, Note_off_c, 0, 71, 112
1, 97582, Note_on_c, 0, 72, 124
1, 98042, Note_off_c, 0, 72, 124
1, 98047, Note_on_c, 0, 70, 103
1, 98175, Note_off_c, 0, 70, 103
1, 98195, Note_on_c, 0, 71, 111
1, 98276, Note_off_c, 0, 71, 111
1, 98291, Note_on_c, 0, 70, 115
1, 98383, Note_off_c, 0, 70, 115
1, 98385, Note_on_c, 0, 68, 117
1, 99214, Note_off_c, 0, 68, 117
1, 100217, Note_on_c, 0, 72, 122
1, 100421, Note_off_c, 0, 72, 122
1, 100421, Note_on_c, 0, 70, 105
1, 100636, Note_off_c, 0, 70, 105
1, 100636, Note_on_c, 0, 73, 112
1, 100943, Note_off_c, 0, 73, 112
1, 100950, Note_on_c, 0, 72, 115
1, 101078, Note_off_c, 0, 72, 115
1, 101078, Note_on_c, 0, 71, 116
1, 101159, Note_off_c, 0, 71, 116
1, 101174, Note_on_c, 0, 70, 114
1, 101281, Note_off_c, 0, 70, 114
1, 101319, Note_on_c, 0, 69, 114
1, 102250, Note_off_c, 0, 69, 114
1, 102250, Note_on_c, 0, 69, 109
1, 102475, Note_off_c, 0, 69, 109
1, 102487, Note_on_c, 0, 65, 115
1, 102609, Note_off_c, 0, 65, 115
1, 102629, Note_on_c, 0, 64, 119
1, 102751, Note_off_c, 0, 64, 119
1, 102820, Note_on_c, 0, 63, 121
1, 103178, Note_off_c, 0, 63, 121
1, 103331, Note_on_c, 0, 61, 113
1, 103648, Note_off_c, 0, 61, 113
1, 103671, Note_on_c, 0, 56, 100
1, 103939, Note_off_c, 0, 56, 100
1, 103939, Note_on_c, 0, 53, 107
1, 104204, Note_off_c, 0, 53, 107
1, 104403, Note_on_c, 0, 63, 126
1, 104886, Note_off_c, 0, 63, 126
1, 104886, Note_on_c, 0, 66, 101
1, 105090, Note_off_c, 0, 66, 101
1, 105220, Note_on_c, 0, 70, 116
1, 105660, Note_off_c, 0, 70, 116
1, 105742, Note_on_c, 0, 73, 117
1, 106079, Note_off_c, 0, 73, 117
1, 106089, Note_on_c, 0, 75, 124
1, 106304, Note_off_c, 0, 75, 124
1, 106437, Note_on_c, 0, 77, 106
1, 107153, Note_off_c, 0, 77, 106
1, 107480, Note_on_c, 0, 75, 10
1, 107674, Note_off_c, 0, 75, 10
1, 107919, Note_on_c, 0, 74, 104
1, 108297, Note_off_c, 0, 74, 104
1, 108297, Note_on_c, 0, 72, 95
1, 108665, Note_off_c, 0, 72, 95
1, 108665, Note_on_c, 0, 71, 103
1, 108910, Note_off_c, 0, 71, 103
1, 108993, Note_on_c, 0, 62, 98
1, 109153, Note_off_c, 0, 62, 98
1, 109256, Note_on_c, 0, 65, 111
1, 109440, Note_off_c, 0, 65, 111
1, 109583, Note_on_c, 0, 67, 109
1, 109726, Note_off_c, 0, 67, 109
1, 109726, Note_on_c, 0, 68, 108
1, 109992, Note_off_c, 0, 68, 108
1, 110035, Note_on_c, 0, 67, 106
1, 110260, Note_off_c, 0, 67, 106
1, 110380, Note_on_c, 0, 65, 109
1, 110871, Note_off_c, 0, 65, 109
1, 110883, Note_on_c, 0, 62, 97
1, 111123, Note_off_c, 0, 62, 97
1, 111123, Note_on_c, 0, 63, 114
1, 111537, Note_off_c, 0, 63, 114
1, 111576, Note_on_c, 0, 55, 95
1, 111894, Note_off_c, 0, 55, 95
1, 111894, Note_on_c, 0, 57, 97
1, 112219, Note_off_c, 0, 57, 97
1, 112219, Note_on_c, 0, 62, 107
1, 112515, Note_off_c, 0, 62, 107
1, 112545, Note_on_c, 0, 60, 96
1, 113333, Note_off_c, 0, 60, 96
1, 115309, Note_on_c, 0, 66, 114
1, 115544, Note_off_c, 0, 66, 114
1, 115636, Note_on_c, 0, 63, 105
1, 115840, Note_off_c, 0, 63, 105
1, 115840, Note_on_c, 0, 65, 117
1, 116055, Note_off_c, 0, 65, 117
1, 116073, Note_on_c, 0, 63, 110
1, 116235, Note_off_c, 0, 63, 110
1, 116413, Note_on_c, 0, 65, 112
1, 116689, Note_off_c, 0, 65, 112
1, 116788, Note_on_c, 0, 63, 101
1, 116951, Note_off_c, 0, 63, 101
1, 116995, Note_on_c, 0, 65, 119
1, 117261, Note_off_c, 0, 65, 119
1, 117304, Note_on_c, 0, 60, 96
1, 117506, Note_off_c, 0, 60, 96
1, 117515, Note_on_c, 0, 63, 117
1, 117781, Note_off_c, 0, 63, 117
1, 117893, Note_on_c, 0, 65, 115
1, 118189, Note_off_c, 0, 65, 115
1, 119264, Note_on_c, 0, 63, 120
1, 119571, Note_off_c, 0, 63, 120
1, 119806, Note_on_c, 0, 65, 115
1, 120123, Note_off_c, 0, 65, 115
1, 120962, Note_on_c, 0, 63, 119
1, 121187, Note_off_c, 0, 63, 119
1, 121484, Note_on_c, 0, 65, 113
1, 121719, Note_off_c, 0, 65, 113
1, 121828, Note_on_c, 0, 65, 114
1, 122094, Note_off_c, 0, 65, 114
1, 122270, Note_on_c, 0, 65, 114
1, 122705, Note_off_c, 0, 65, 114
1, 122705, Note_on_c, 0, 63, 100
1, 122862, Note_off_c, 0, 63, 100
1, 123006, Note_on_c, 0, 65, 116
1, 123374, Note_off_c, 0, 65, 116
1, 123527, Note_on_c, 0, 65, 113
1, 123793, Note_off_c, 0, 65, 113
1, 123793, Note_on_c, 0, 66, 110
1, 124353, Note_off_c, 0, 66, 110
1, 124353, Note_on_c, 0, 60, 99
1, 124518, Note_off_c, 0, 60, 99
1, 124641, Note_on_c, 0, 63, 118
1, 125368, Note_off_c, 0, 63, 118
1, 125409, Note_on_c, 0, 65, 112
1, 125982, Note_off_c, 0, 65, 112
1, 126033, Note_on_c, 0, 60, 108
1, 126821, Note_off_c, 0, 60, 108
1, 127136, Note_on_c, 0, 61, 96
1, 127276, Note_off_c, 0, 61, 96
1, 127330, Note_on_c, 0, 65, 93
1, 127445, Note_off_c, 0, 65, 93
1, 127518, Note_on_c, 0, 68, 84
1, 127605, Note_off_c, 0, 68, 84
1, 127707, Note_on_c, 0, 71, 109
1, 127838, Note_off_c, 0, 71, 109
1, 127976, Note_on_c, 0, 65, 111
1, 128183, Note_off_c, 0, 65, 111
1, 128183, Note_on_c, 0, 66, 107
1, 128392, Note_off_c, 0, 66, 107
1, 128394, Note_on_c, 0, 69, 112
1, 128629, Note_off_c, 0, 69, 112
1, 128659, Note_on_c, 0, 66, 102
1, 128791, Note_on_c, 0, 67, 111
1, 128791, Note_off_c, 0, 66, 102
1, 128954, Note_off_c, 0, 67, 111
1, 128971, Note_on_c, 0, 66, 107
1, 129109, Note_off_c, 0, 66, 107
1, 129134, Note_on_c, 0, 65, 108
1, 129343, Note_off_c, 0, 65, 108
1, 129432, Note_on_c, 0, 64, 114
1, 129647, Note_off_c, 0, 64, 114
1, 129657, Note_on_c, 0, 63, 113
1, 129810, Note_off_c, 0, 63, 113
1, 129850, Note_on_c, 0, 62, 113
1, 130054, Note_off_c, 0, 62, 113
1, 130054, Note_on_c, 0, 61, 106
1, 130217, Note_off_c, 0, 61, 106
1, 130268, Note_on_c, 0, 65, 111
1, 130452, Note_off_c, 0, 65, 111
1, 130492, Note_on_c, 0, 63, 113
1, 130666, Note_off_c, 0, 63, 113
1, 130727, Note_on_c, 0, 61, 109
1, 130890, Note_off_c, 0, 61, 109
1, 130890, Note_on_c, 0, 60, 108
1, 131115, Note_off_c, 0, 60, 108
1, 131127, Note_on_c, 0, 59, 104
1, 131331, Note_on_c, 0, 58, 101
1, 131331, Note_off_c, 0, 59, 104
1, 131464, Note_off_c, 0, 58, 101
1, 131481, Note_on_c, 0, 54, 107
1, 131522, Note_off_c, 0, 54, 107
1, 131522, Note_on_c, 0, 54, 105
1, 131685, Note_off_c, 0, 54, 105
1, 131733, Note_on_c, 0, 53, 104
1, 131905, Note_off_c, 0, 53, 104
1, 131905, Note_on_c, 0, 52, 102
1, 132068, Note_on_c, 0, 51, 106
1, 132068, Note_off_c, 0, 52, 102
1, 132227, Note_off_c, 0, 51, 106
1, 132400, Note_on_c, 0, 54, 99
1, 132563, Note_off_c, 0, 54, 99
1, 132583, Note_on_c, 0, 58, 98
1, 132789, Note_off_c, 0, 58, 98
1, 132789, Note_on_c, 0, 61, 90
1, 132946, Note_off_c, 0, 61, 90
1, 133009, Note_on_c, 0, 65, 112
1, 133174, Note_off_c, 0, 65, 112
1, 133174, Note_on_c, 0, 63, 98
1, 133335, Note_off_c, 0, 63, 98
1, 133385, Note_on_c, 0, 64, 112
1, 133548, Note_off_c, 0, 64, 112
1, 133616, Note_on_c, 0, 62, 103
1, 133776, Note_off_c, 0, 62, 103
1, 133776, Note_on_c, 0, 63, 112
1, 133937, Note_off_c, 0, 63, 112
1, 133987, Note_on_c, 0, 61, 106
1, 134143, Note_off_c, 0, 61, 106
1, 134154, Note_on_c, 0, 62, 109
1, 134367, Note_off_c, 0, 62, 109
1, 134444, Note_on_c, 0, 60, 107
1, 134597, Note_off_c, 0, 60, 107
1, 134597, Note_on_c, 0, 59, 98
1, 134765, Note_off_c, 0, 59, 98
1, 136025, Note_on_c, 0, 62, 125
1, 136219, Note_off_c, 0, 62, 125
1, 136368, Note_on_c, 0, 71, 102
1, 136527, Note_off_c, 0, 71, 102
1, 136639, Note_on_c, 0, 71, 109
1, 136851, Note_on_c, 0, 70, 107
1, 136851, Note_off_c, 0, 71, 109
1, 137057, Note_off_c, 0, 70, 107
1, 137117, Note_on_c, 0, 67, 107
1, 137198, Note_on_c, 0, 63, 114
1, 137198, Note_off_c, 0, 67, 107
1, 137535, Note_off_c, 0, 63, 114
1, 137729, Note_on_c, 0, 67, 112
1, 138077, Note_off_c, 0, 67, 112
1, 138077, Note_on_c, 0, 67, 105
1, 138558, Note_off_c, 0, 67, 105
1, 138605, Note_on_c, 0, 63, 109
1, 138871, Note_off_c, 0, 63, 109
1, 138942, Note_on_c, 0, 59, 97
1, 139443, Note_off_c, 0, 59, 97
1, 139653, Note_on_c, 0, 62, 113
1, 140349, Note_off_c, 0, 62, 113
1, 140424, Note_on_c, 0, 63, 110
1, 140946, Note_off_c, 0, 63, 110
1, 142799, Note_on_c, 0, 67, 113
1, 142942, Note_off_c, 0, 67, 113
1, 143628, Note_on_c, 0, 72, 109
1, 143822, Note_off_c, 0, 72, 109
1, 144446, Note_on_c, 0, 75, 120
1, 144640, Note_off_c, 0, 75, 120
1, 145305, Note_on_c, 0, 65, 115
1, 145489, Note_off_c, 0, 65, 115
1, 146451, Note_on_c, 0, 63, 120
1, 146747, Note_off_c, 0, 63, 120
1, 147269, Note_on_c, 0, 65, 117
1, 147576, Note_off_c, 0, 65, 117
1, 148088, Note_on_c, 0, 67, 110
1, 148425, Note_off_c, 0, 67, 110
1, 149479, Note_on_c, 0, 75, 114
1, 149653, Note_off_c, 0, 75, 114
1, 150072, Note_on_c, 0, 66, 108
1, 150235, Note_off_c, 0, 66, 108
1, 150593, Note_on_c, 0, 65, 113
1, 151125, Note_off_c, 0, 65, 113
1, 151130, Note_on_c, 0, 63, 102
1, 151196, Note_off_c, 0, 63, 102
1, 151359, Note_on_c, 0, 65, 117
1, 152167, Note_off_c, 0, 65, 117
1, 152269, Note_on_c, 0, 63, 118
1, 152658, Note_off_c, 0, 63, 118
1, 152715, Note_on_c, 0, 60, 110
1, 152881, Note_off_c, 0, 60, 110
1, 153231, Note_on_c, 0, 69, 121
1, 153377, Note_off_c, 0, 69, 121
1, 153377, Note_on_c, 0, 70, 116
1, 153496, Note_off_c, 0, 70, 116
1, 153496, Note_on_c, 0, 69, 116
1, 153650, Note_on_c, 0, 68, 118
1, 153650, Note_off_c, 0, 69, 116
1, 153810, Note_off_c, 0, 68, 118
1, 154093, Note_on_c, 0, 67, 113
1, 154301, Note_off_c, 0, 67, 113
1, 154526, Note_on_c, 0, 65, 119
1, 154792, Note_off_c, 0, 65, 119
1, 154914, Note_on_c, 0, 66, 113
1, 155241, Note_off_c, 0, 66, 113
1, 155343, Note_on_c, 0, 69, 115
1, 155599, Note_off_c, 0, 69, 115
1, 155824, Note_on_c, 0, 64, 120
1, 156080, Note_off_c, 0, 64, 120
1, 156233, Note_on_c, 0, 67, 114
1, 156765, Note_off_c, 0, 67, 114
1, 156805, Note_on_c, 0, 66, 109
1, 157132, Note_off_c, 0, 66, 109
1, 157152, Note_on_c, 0, 62, 116
1, 157377, Note_off_c, 0, 62, 116
1, 157476, Note_on_c, 0, 59, 110
1, 157691, Note_off_c, 0, 59, 110
1, 158163, Note_on_c, 0, 63, 118
1, 158626, Note_off_c, 0, 63, 118
1, 158626, Note_on_c, 0, 66, 91
1, 158951, Note_off_c, 0, 66, 91
1, 159001, Note_on_c, 0, 70, 115
1, 159390, Note_off_c, 0, 70, 115
1, 159543, Note_on_c, 0, 73, 109
1, 159860, Note_off_c, 0, 73, 109
1, 159880, Note_on_c, 0, 75, 119
1, 160125, Note_off_c, 0, 75, 119
1, 160155, Note_on_c, 0, 77, 102
1, 160646, Note_off_c, 0, 77, 102
1, 161516, Note_on_c, 0, 74, 113
1, 161669, Note_off_c, 0, 74, 113
1, 161709, Note_on_c, 0, 75, 115
1, 161924, Note_off_c, 0, 75, 115
1, 161944, Note_on_c, 0, 71, 114
1, 162210, Note_off_c, 0, 71, 114
1, 162445, Note_on_c, 0, 70, 117
1, 162701, Note_off_c, 0, 70, 117
1, 162864, Note_on_c, 0, 69, 110
1, 163150, Note_off_c, 0, 69, 110
1, 163324, Note_on_c, 0, 68, 116
1, 163631, Note_off_c, 0, 68, 116
1, 163712, Note_on_c, 0, 65, 115
1, 163978, Note_off_c, 0, 65, 115
1, 164049, Note_on_c, 0, 63, 114
1, 164427, Note_off_c, 0, 63, 114
1, 164764, Note_on_c, 0, 67, 111
1, 165132, Note_off_c, 0, 67, 111
1, 165173, Note_on_c, 0, 55, 99
1, 165540, Note_off_c, 0, 55, 99
1, 165571, Note_on_c, 0, 57, 97
1, 165952, Note_off_c, 0, 57, 97
1, 166051, Note_on_c, 0, 62, 121
1, 166337, Note_off_c, 0, 62, 121
1, 166388, Note_on_c, 0, 60, 107
1, 167104, Note_off_c, 0, 60, 107
1, 167175, Note_on_c, 0, 62, 111
1, 167727, Note_off_c, 0, 62, 111
1, 167727, Note_on_c, 0, 63, 105
1, 168167, Note_off_c, 0, 63, 105
1, 172764, Note_on_c, 0, 60, 115
1, 172999, Note_off_c, 0, 60, 115
1, 173306, Note_on_c, 0, 69, 114
1, 173940, Note_off_c, 0, 69, 114
1, 173940, Note_on_c, 0, 72, 112
1, 174339, Note_off_c, 0, 72, 112
1, 174441, Note_on_c, 0, 74, 109
1, 174809, Note_off_c, 0, 74, 109
1, 174809, Note_on_c, 0, 74, 111
1, 175105, Note_off_c, 0, 74, 111
1, 175105, Note_on_c, 0, 75, 98
1, 175391, Note_off_c, 0, 75, 98
1, 175391, Note_on_c, 0, 74, 97
1, 175606, Note_off_c, 0, 74, 97
1, 175652, Note_on_c, 0, 75, 109
1, 176071, Note_off_c, 0, 75, 109
1, 176075, Note_on_c, 0, 74, 99
1, 176331, Note_off_c, 0, 74, 99
1, 176341, Note_on_c, 0, 72, 110
1, 177283, Note_off_c, 0, 72, 110
1, 177375, Note_on_c, 0, 69, 111
1, 177897, Note_off_c, 0, 69, 111
1, 177907, Note_on_c, 0, 67, 111
1, 178797, Note_off_c, 0, 67, 111
1, 178997, Note_on_c, 0, 63, 111
1, 179432, Note_off_c, 0, 63, 111
1, 179477, Note_on_c, 0, 62, 116
1, 180669, Note_off_c, 0, 62, 116
1, 181966, Note_on_c, 0, 45, 117
1, 182665, Note_off_c, 0, 45, 117
1, 182665, Note_on_c, 0, 52, 99
1, 182808, Note_on_c, 0, 55, 110
1, 182808, Note_off_c, 0, 52, 99
1, 182951, Note_off_c, 0, 55, 110
1, 182951, Note_on_c, 0, 59, 110
1, 183107, Note_off_c, 0, 59, 110
1, 183150, Note_on_c, 0, 49, 111
1, 183400, Note_off_c, 0, 49, 111
1, 183528, Note_on_c, 0, 52, 110
1, 183635, Note_on_c, 0, 55, 108
1, 183635, Note_off_c, 0, 52, 110
1, 183706, Note_off_c, 0, 55, 108
1, 183757, Note_on_c, 0, 59, 110
1, 183900, Note_off_c, 0, 59, 110
1, 183937, Note_on_c, 0, 54, 112
1, 184397, Note_off_c, 0, 54, 112
1, 185317, Note_on_c, 0, 46, 115
1, 185798, Note_off_c, 0, 46, 115
1, 185808, Note_on_c, 0, 51, 105
1, 185982, Note_off_c, 0, 51, 105
1, 186012, Note_on_c, 0, 54, 106
1, 186155, Note_off_c, 0, 54, 106
1, 186196, Note_on_c, 0, 58, 106
1, 186400, Note_off_c, 0, 58, 106
1, 186400, Note_on_c, 0, 51, 110
1, 186768, Note_off_c, 0, 51, 110
1, 186787, Note_on_c, 0, 54, 103
1, 186889, Note_off_c, 0, 54, 103
1, 186913, Note_on_c, 0, 58, 101
1, 186970, Note_off_c, 0, 58, 101
1, 186970, Note_on_c, 0, 61, 111
1, 187131, Note_off_c, 0, 61, 111
1, 187175, Note_on_c, 0, 53, 112
1, 187605, Note_off_c, 0, 53, 112
1, 188290, Note_on_c, 0, 44, 110
1, 188457, Note_off_c, 0, 44, 110
1, 188457, Note_on_c, 0, 51, 108
1, 188730, Note_off_c, 0, 51, 108
1, 188730, Note_on_c, 0, 56, 106
1, 188944, Note_off_c, 0, 56, 106
1, 188948, Note_on_c, 0, 49, 108
1, 189110, Note_off_c, 0, 49, 108
1, 189147, Note_on_c, 0, 53, 102
1, 189408, Note_off_c, 0, 53, 102
1, 189424, Note_on_c, 0, 56, 108
1, 189587, Note_off_c, 0, 56, 108
1, 189638, Note_on_c, 0, 59, 114
1, 189739, Note_off_c, 0, 59, 114
1, 189739, Note_on_c, 0, 63, 122
1, 189923, Note_off_c, 0, 63, 122
1, 189958, Note_on_c, 0, 61, 113
1, 190107, Note_off_c, 0, 61, 113
1, 190107, Note_on_c, 0, 59, 101
1, 190311, Note_off_c, 0, 59, 101
1, 190383, Note_on_c, 0, 56, 103
1, 190577, Note_off_c, 0, 56, 103
1, 190577, Note_on_c, 0, 55, 110
1, 190761, Note_off_c, 0, 55, 110
1, 190821, Note_on_c, 0, 63, 117
1, 190995, Note_off_c, 0, 63, 117
1, 190995, Note_on_c, 0, 59, 98
1, 191271, Note_off_c, 0, 59, 98
1, 191414, Note_on_c, 0, 62, 120
1, 191561, Note_off_c, 0, 62, 120
1, 191561, Note_on_c, 0, 55, 96
1, 191806, Note_off_c, 0, 55, 96
1, 191842, Note_on_c, 0, 59, 97
1, 191985, Note_off_c, 0, 59, 97
1, 192056, Note_on_c, 0, 62, 115
1, 192219, Note_off_c, 0, 62, 115
1, 192238, Note_on_c, 0, 60, 109
1, 192453, Note_off_c, 0, 60, 109
1, 192498, Note_on_c, 0, 62, 116
1, 192697, Note_off_c, 0, 62, 116
1, 192722, Note_on_c, 0, 63, 113
1, 192865, Note_off_c, 0, 63, 113
1, 192865, Note_on_c, 0, 65, 95
1, 192962, Note_off_c, 0, 65, 95
1, 192962, Note_on_c, 0, 67, 101
1, 193258, Note_off_c, 0, 67, 101
1, 193278, Note_on_c, 0, 72, 108
1, 193472, Note_off_c, 0, 72, 108
1, 193473, Note_on_c, 0, 67, 107
1, 193606, Note_off_c, 0, 67, 107
1, 193677, Note_on_c, 0, 65, 107
1, 193860, Note_on_c, 0, 63, 113
1, 193860, Note_off_c, 0, 65, 107
1, 194023, Note_off_c, 0, 63, 113
1, 194084, Note_on_c, 0, 67, 104
1, 194258, Note_off_c, 0, 67, 104
1, 194299, Note_on_c, 0, 63, 107
1, 194442, Note_off_c, 0, 63, 107
1, 194482, Note_on_c, 0, 67, 103
1, 194645, Note_off_c, 0, 67, 103
1, 194680, Note_on_c, 0, 64, 108
1, 194854, Note_off_c, 0, 64, 108
1, 194900, Note_on_c, 0, 68, 112
1, 195115, Note_off_c, 0, 68, 112
1, 195115, Note_on_c, 0, 66, 104
1, 195268, Note_off_c, 0, 66, 104
1, 195329, Note_on_c, 0, 64, 110
1, 195513, Note_off_c, 0, 64, 110
1, 195522, Note_on_c, 0, 63, 114
1, 195757, Note_off_c, 0, 63, 114
1, 195798, Note_on_c, 0, 61, 108
1, 195972, Note_off_c, 0, 61, 108
1, 195972, Note_on_c, 0, 60, 102
1, 196125, Note_off_c, 0, 60, 102
1, 196165, Note_on_c, 0, 58, 103
1, 196389, Note_off_c, 0, 58, 103
1, 196389, Note_on_c, 0, 57, 103
1, 196506, Note_off_c, 0, 57, 103
1, 196506, Note_on_c, 0, 55, 98
1, 196670, Note_off_c, 0, 55, 98
1, 196776, Note_on_c, 0, 56, 97
1, 196931, Note_off_c, 0, 56, 97
1, 196949, Note_on_c, 0, 58, 109
1, 197158, Note_off_c, 0, 58, 109
1, 197204, Note_on_c, 0, 60, 112
1, 197388, Note_off_c, 0, 60, 112
1, 197423, Note_on_c, 0, 62, 117
1, 197535, Note_off_c, 0, 62, 117
1, 197627, Note_on_c, 0, 63, 117
1, 197795, Note_off_c, 0, 63, 117
1, 197815, Note_on_c, 0, 65, 112
1, 197989, Note_off_c, 0, 65, 112
1, 198132, Note_on_c, 0, 67, 102
1, 198920, Note_off_c, 0, 67, 102
1, 198930, Note_on_c, 0, 70, 113
1, 199370, Note_off_c, 0, 70, 113
1, 201244, Note_on_c, 0, 67, 113
1, 201500, Note_off_c, 0, 67, 113
1, 201684, Note_on_c, 0, 68, 118
1, 202011, Note_off_c, 0, 68, 118
1, 202358, Note_on_c, 0, 72, 112
1, 202951, Note_off_c, 0, 72, 112
1, 202951, Note_on_c, 0, 70, 109
1, 204558, Note_off_c, 0, 70, 109
1, 204802, Note_on_c, 0, 70, 112
1, 205979, Note_off_c, 0, 70, 112
1, 206060, Note_on_c, 0, 67, 109
1, 206264, Note_off_c, 0, 67, 109
1, 206336, Note_on_c, 0, 63, 118
1, 206561, Note_off_c, 0, 63, 118
1, 206806, Note_on_c, 0, 60, 115
1, 207430, Note_off_c, 0, 60, 115
1, 207440, Note_on_c, 0, 58, 99
1, 208044, Note_off_c, 0, 58, 99
1, 209999, Note_on_c, 0, 75, 108
1, 210152, Note_off_c, 0, 75, 108
1, 210245, Note_on_c, 0, 77, 104
1, 210623, Note_off_c, 0, 77, 104
1, 210847, Note_on_c, 0, 75, 120
1, 211184, Note_off_c, 0, 75, 120
1, 211368, Note_on_c, 0, 73, 114
1, 211757, Note_off_c, 0, 73, 114
1, 211757, Note_on_c, 0, 72, 112
1, 212135, Note_off_c, 0, 72, 112
1, 212246, Note_on_c, 0, 70, 114
1, 212481, Note_off_c, 0, 70, 114
1, 212645, Note_on_c, 0, 68, 100
1, 212736, Note_off_c, 0, 68, 100
1, 212736, Note_on_c, 0, 70, 104
1, 212879, Note_off_c, 0, 70, 104
1, 212908, Note_on_c, 0, 68, 109
1, 213164, Note_off_c, 0, 68, 109
1, 213179, Note_on_c, 0, 67, 10
1, 213419, Note_off_c, 0, 67, 10
1, 213562, Note_on_c, 0, 66, 113
1, 213869, Note_off_c, 0, 66, 113
1, 214032, Note_on_c, 0, 73, 112
1, 214277, Note_off_c, 0, 73, 112
1, 214502, Note_on_c, 0, 70, 116
1, 214758, Note_off_c, 0, 70, 116
1, 214875, Note_on_c, 0, 66, 111
1, 215238, Note_off_c, 0, 66, 111
1, 215330, Note_on_c, 0, 65, 112
1, 215586, Note_off_c, 0, 65, 112
1, 215606, Note_on_c, 0, 63, 118
1, 215908, Note_off_c, 0, 63, 118
1, 216005, Note_on_c, 0, 62, 114
1, 216271, Note_off_c, 0, 62, 114
1, 216415, Note_on_c, 0, 60, 109
1, 216671, Note_off_c, 0, 60, 109
1, 216690, Note_on_c, 0, 59, 104
1, 217089, Note_off_c, 0, 59, 104
1, 217192, Note_on_c, 0, 68, 115
1, 217539, Note_off_c, 0, 68, 115
1, 217539, Note_on_c, 0, 67, 108
1, 217938, Note_off_c, 0, 67, 108
1, 218009, Note_on_c, 0, 65, 118
1, 218357, Note_off_c, 0, 65, 118
1, 218366, Note_on_c, 0, 63, 119
1, 218857, Note_off_c, 0, 63, 119
1, 218862, Note_on_c, 0, 65, 101
1, 219066, Note_off_c, 0, 65, 101
1, 219214, Note_on_c, 0, 67, 112
1, 219705, Note_off_c, 0, 67, 112
1, 219761, Note_on_c, 0, 69, 100
1, 219894, Note_off_c, 0, 69, 100
1, 219931, Note_on_c, 0, 71, 114
1, 220350, Note_off_c, 0, 71, 114
1, 220503, Note_on_c, 0, 72, 108
1, 220707, Note_off_c, 0, 72, 108
1, 220790, Note_on_c, 0, 74, 111
1, 221826, Note_off_c, 0, 74, 111
1, 221862, Note_on_c, 0, 75, 108
1, 223143, Note_off_c, 0, 75, 108
1, 223161, Note_on_c, 0, 75, 103
1, 224474, Note_off_c, 0, 75, 103
1, 224516, Note_on_c, 0, 73, 114
1, 224679, Note_off_c, 0, 73, 114
1, 224731, Note_on_c, 0, 75, 121
1, 225307, Note_off_c, 0, 75, 121
1, 226106, Note_on_c, 0, 70, 114
1, 226310, Note_off_c, 0, 70, 114
1, 226339, Note_on_c, 0, 68, 118
1, 226595, Note_off_c, 0, 68, 118
1, 226717, Note_on_c, 0, 67, 114
1, 227362, Note_off_c, 0, 67, 114
1, 227443, Note_on_c, 0, 65, 114
1, 227944, Note_off_c, 0, 65, 114
1, 227964, Note_on_c, 0, 63, 118
1, 228240, Note_off_c, 0, 63, 118
1, 228372, Note_on_c, 0, 62, 119
1, 229140, Note_off_c, 0, 62, 119
1, 229151, Note_on_c, 0, 60, 112
1, 229632, Note_off_c, 0, 60, 112
1, 229651, Note_on_c, 0, 58, 96
1, 230296, Note_off_c, 0, 58, 96
1, 232009, Note_on_c, 0, 53, 109
1, 232164, Note_off_c, 0, 53, 109
1, 232209, Note_on_c, 0, 58, 107
1, 232413, Note_off_c, 0, 58, 107
1, 232474, Note_on_c, 0, 60, 116
1, 232689, Note_off_c, 0, 60, 116
1, 232740, Note_on_c, 0, 63, 122
1, 232955, Note_off_c, 0, 63, 122
1, 233006, Note_on_c, 0, 65, 119
1, 233210, Note_off_c, 0, 65, 119
1, 233312, Note_on_c, 0, 67, 115
1, 233578, Note_off_c, 0, 67, 115
1, 233591, Note_on_c, 0, 68, 96
1, 233744, Note_off_c, 0, 68, 96
1, 233781, Note_on_c, 0, 70, 120
1, 234016, Note_off_c, 0, 70, 120
1, 234098, Note_on_c, 0, 72, 114
1, 234210, Note_off_c, 0, 72, 114
1, 234249, Note_on_c, 0, 74, 108
1, 234556, Note_off_c, 0, 74, 108
1, 234556, Note_on_c, 0, 75, 110
1, 234817, Note_off_c, 0, 75, 110
1, 234855, Note_on_c, 0, 75, 118
1, 235029, Note_off_c, 0, 75, 118
1, 235057, Note_on_c, 0, 77, 104
1, 236132, Note_off_c, 0, 77, 104
1, 236157, Note_on_c, 0, 75, 117
1, 236356, Note_off_c, 0, 75, 117
1, 236376, Note_on_c, 0, 73, 114
1, 236591, Note_off_c, 0, 73, 114
1, 236593, Note_on_c, 0, 72, 114
1, 237299, Note_off_c, 0, 72, 114
1, 237421, Note_on_c, 0, 70, 117
1, 237799, Note_off_c, 0, 70, 117
1, 237993, Note_on_c, 0, 68, 120
1, 238238, Note_off_c, 0, 68, 120
1, 238401, Note_on_c, 0, 65, 116
1, 238738, Note_off_c, 0, 65, 116
1, 238738, Note_on_c, 0, 66, 112
1, 239086, Note_off_c, 0, 66, 112
1, 239249, Note_on_c, 0, 70, 111
1, 239576, Note_off_c, 0, 70, 111
1, 239708, Note_on_c, 0, 73, 106
1, 240014, Note_off_c, 0, 73, 106
1, 240014, Note_on_c, 0, 75, 118
1, 240239, Note_off_c, 0, 75, 118
1, 240239, Note_on_c, 0, 77, 107
1, 240679, Note_off_c, 0, 77, 107
1, 240821, Note_on_c, 0, 75, 119
1, 241230, Note_off_c, 0, 75, 119
1, 241347, Note_on_c, 0, 76, 111
1, 241987, Note_off_c, 0, 76, 111
1, 243095, Note_on_c, 0, 71, 119
1, 243371, Note_off_c, 0, 71, 119
1, 243506, Note_on_c, 0, 70, 117
1, 243644, Note_off_c, 0, 70, 117
1, 243674, Note_on_c, 0, 71, 117
1, 243802, Note_off_c, 0, 71, 117
1, 243812, Note_on_c, 0, 70, 117
1, 243965, Note_off_c, 0, 70, 117
1, 243981, Note_on_c, 0, 68, 121
1, 244247, Note_off_c, 0, 68, 121
1, 244319, Note_on_c, 0, 63, 118
1, 244800, Note_off_c, 0, 63, 118
1, 244860, Note_on_c, 0, 65, 104
1, 245014, Note_off_c, 0, 65, 104
1, 245042, Note_on_c, 0, 67, 116
1, 245513, Note_off_c, 0, 67, 116
1, 245574, Note_on_c, 0, 63, 120
1, 245901, Note_off_c, 0, 63, 120
1, 245972, Note_on_c, 0, 60, 114
1, 246303, Note_off_c, 0, 60, 114
1, 246649, Note_on_c, 0, 63, 125
1, 246821, Note_on_c, 0, 65, 116
1, 246821, Note_off_c, 0, 63, 125
1, 247496, Note_off_c, 0, 65, 116
1, 247527, Note_on_c, 0, 63, 120
1, 247875, Note_off_c, 0, 63, 120
1, 248571, Note_on_c, 0, 67, 116
1, 248714, Note_off_c, 0, 67, 116
1, 249175, Note_on_c, 0, 70, 112
1, 249707, Note_off_c, 0, 70, 112
1, 249716, Note_on_c, 0, 72, 113
1, 250217, Note_off_c, 0, 72, 113
1, 250246, Note_on_c, 0, 75, 121
1, 250865, Note_off_c, 0, 75, 121
1, 250879, Note_on_c, 0, 77, 103
1, 251197, Note_off_c, 0, 77, 103
1, 251373, Note_on_c, 0, 75, 127
1, 251649, Note_off_c, 0, 75, 127
1, 252529, Note_on_c, 0, 65, 118
1, 253050, Note_off_c, 0, 65, 118
1, 253050, Note_on_c, 0, 63, 102
1, 253206, Note_off_c, 0, 63, 102
1, 253332, Note_on_c, 0, 65, 113
1, 254130, Note_off_c, 0, 65, 113
1, 254181, Note_on_c, 0, 67, 116
1, 254652, Note_off_c, 0, 67, 116
1, 254725, Note_on_c, 0, 75, 125
1, 254884, Note_off_c, 0, 75, 125
1, 255891, Note_on_c, 0, 66, 116
1, 256337, Note_off_c, 0, 66, 116
1, 256337, Note_on_c, 0, 63, 100
1, 256549, Note_off_c, 0, 63, 100
1, 256698, Note_on_c, 0, 65, 117
1, 257189, Note_off_c, 0, 65, 117
1, 257251, Note_on_c, 0, 63, 119
1, 257486, Note_off_c, 0, 63, 119
1, 257517, Note_on_c, 0, 60, 115
1, 257834, Note_off_c, 0, 60, 115
1, 258098, Note_on_c, 0, 75, 126
1, 258753, Note_off_c, 0, 75, 126
1, 258783, Note_on_c, 0, 72, 112
1, 258946, Note_off_c, 0, 72, 112
1, 258997, Note_on_c, 0, 70, 117
1, 259191, Note_off_c, 0, 70, 117
1, 259283, Note_on_c, 0, 67, 113
1, 259477, Note_on_c, 0, 66, 110
1, 259477, Note_off_c, 0, 67, 113
1, 259732, Note_off_c, 0, 66, 110
1, 259782, Note_on_c, 0, 65, 114
1, 260017, Note_off_c, 0, 65, 114
1, 260079, Note_on_c, 0, 63, 117
1, 260294, Note_off_c, 0, 63, 117
1, 260294, Note_on_c, 0, 63, 115
1, 260334, Note_off_c, 0, 63, 115
1, 260354, Note_on_c, 0, 60, 113
1, 260512, Note_off_c, 0, 60, 113
1, 260536, Note_on_c, 0, 58, 104
1, 260832, Note_off_c, 0, 58, 104
1, 260871, Note_on_c, 0, 55, 102
1, 261149, Note_off_c, 0, 55, 102
1, 261149, Note_on_c, 0, 53, 102
1, 261465, Note_off_c, 0, 53, 102
1, 261534, Note_on_c, 0, 54, 106
1, 261659, Note_off_c, 0, 54, 106
1, 261702, Note_on_c, 0, 55, 105
1, 262011, Note_off_c, 0, 55, 105
1, 262086, Note_on_c, 0, 54, 111
1, 262149, Note_off_c, 0, 54, 111
1, 262149, Note_on_c, 0, 55, 108
1, 262266, Note_off_c, 0, 55, 108
1, 262266, Note_on_c, 0, 57, 106
1, 262342, Note_off_c, 0, 57, 106
1, 262342, Note_on_c, 0, 59, 102
1, 262470, Note_off_c, 0, 59, 102
1, 262475, Note_on_c, 0, 61, 120
1, 262608, Note_off_c, 0, 61, 120
1, 262648, Note_on_c, 0, 62, 119
1, 262786, Note_off_c, 0, 62, 119
1, 262821, Note_on_c, 0, 64, 117
1, 262923, Note_off_c, 0, 64, 117
1, 262928, Note_on_c, 0, 66, 111
1, 263061, Note_off_c, 0, 66, 111
1, 263061, Note_on_c, 0, 67, 104
1, 263107, Note_off_c, 0, 67, 104
1, 263127, Note_on_c, 0, 68, 110
1, 263156, Note_off_c, 0, 68, 110
1, 263156, Note_on_c, 0, 69, 115
1, 263237, Note_off_c, 0, 69, 115
1, 263237, Note_on_c, 0, 71, 118
1, 263349, Note_off_c, 0, 71, 118
1, 263349, Note_on_c, 0, 73, 116
1, 263502, Note_on_c, 0, 72, 115
1, 263502, Note_off_c, 0, 73, 116
1, 264208, Note_off_c, 0, 72, 115
1, 264217, Note_on_c, 0, 68, 115
1, 264769, Note_off_c, 0, 68, 115
1, 264810, Note_on_c, 0, 70, 116
1, 265680, Note_off_c, 0, 70, 116
1, 265702, Note_on_c, 0, 70, 105
1, 265952, Note_off_c, 0, 70, 105
1, 265955, Note_on_c, 0, 66, 105
1, 266170, Note_off_c, 0, 66, 105
1, 266217, Note_on_c, 0, 63, 100
1, 266380, Note_off_c, 0, 63, 100
1, 266456, Note_on_c, 0, 58, 103
1, 266613, Note_off_c, 0, 58, 103
1, 266864, Note_on_c, 0, 65, 108
1, 267662, Note_off_c, 0, 65, 108
1, 267662, Note_on_c, 0, 63, 105
1, 268071, Note_off_c, 0, 63, 105
1, 269351, Note_on_c, 0, 67, 110
1, 269892, Note_off_c, 0, 67, 110
1, 269892, Note_on_c, 0, 66, 99
1, 270066, Note_off_c, 0, 66, 99
1, 270096, Note_on_c, 0, 67, 115
1, 270587, Note_off_c, 0, 67, 115
1, 270679, Note_on_c, 0, 63, 117
1, 270955, Note_off_c, 0, 63, 117
1, 271036, Note_on_c, 0, 60, 106
1, 271428, Note_off_c, 0, 60, 106
1, 271428, Note_on_c, 0, 55, 96
1, 271701, Note_off_c, 0, 55, 96
1, 271804, Note_on_c, 0, 62, 115
1, 272418, Note_off_c, 0, 62, 115
1, 272673, Note_on_c, 0, 63, 114
1, 273092, Note_off_c, 0, 63, 114
1, 273266, Note_on_c, 0, 65, 112
1, 273593, Note_off_c, 0, 65, 112
1, 273787, Note_on_c, 0, 63, 116
1, 274012, Note_off_c, 0, 63, 116
1, 274104, Note_on_c, 0, 65, 113
1, 274319, Note_off_c, 0, 65, 113
1, 274601, Note_on_c, 0, 63, 113
1, 274805, Note_off_c, 0, 63, 113
1, 274840, Note_on_c, 0, 62, 114
1, 275054, Note_on_c, 0, 60, 114
1, 275054, Note_off_c, 0, 62, 114
1, 275217, Note_off_c, 0, 60, 114
1, 275381, Note_on_c, 0, 59, 103
1, 275677, Note_off_c, 0, 59, 103
1, 275799, Note_on_c, 0, 62, 115
1, 276044, Note_off_c, 0, 62, 115
1, 276145, Note_on_c, 0, 65, 109
1, 276493, Note_off_c, 0, 65, 109
1, 276637, Note_on_c, 0, 67, 104
1, 276852, Note_off_c, 0, 67, 104
1, 277052, Note_on_c, 0, 67, 106
1, 277231, Note_off_c, 0, 67, 106
1, 277246, Note_on_c, 0, 68, 99
1, 277379, Note_off_c, 0, 68, 99
1, 277433, Note_on_c, 0, 67, 108
1, 277617, Note_off_c, 0, 67, 108
1, 277709, Note_on_c, 0, 65, 108
1, 278210, Note_off_c, 0, 65, 108
1, 278238, Note_on_c, 0, 62, 95
1, 278455, Note_off_c, 0, 62, 95
1, 278557, Note_on_c, 0, 63, 107
1, 278905, Note_off_c, 0, 63, 107
1, 278905, End_track
0, 0, End_of_file
