0, 0, Header, 1, 1, 192
1, 0, Start_track
1, 0, Title_t, "Melody"
1, 0, Tempo, 245901
1, 0, Key_signature, -2, "major"
1, 0, Time_signature, 4, 2, 24, 8
1, 3258, Note_on_c, 0, 69, 112
1, 3359, Note_off_c, 0, 69, 112
1, 3445, Note_on_c, 0, 69, 115
1, 4099, Note_off_c, 0, 69, 115
1, 4135, Note_on_c, 0, 62, 115
1, 4676, Note_off_c, 0, 62, 115
1, 4698, Note_on_c, 0, 64, 119
1, 4793, Note_off_c, 0, 64, 119
1, 4815, Note_on_c, 0, 65, 111
1, 4889, Note_off_c, 0, 65, 111
1, 4903, Note_on_c, 0, 67, 110
1, 5025, Note_off_c, 0, 67, 110
1, 5229, Note_on_c, 0, 58, 98
1, 5295, Note_off_c, 0, 58, 98
1, 5298, Note_on_c, 0, 60, 111
1, 5469, Note_off_c, 0, 60, 111
1, 5478, Note_on_c, 0, 62, 120
1, 5659, Note_off_c, 0, 62, 120
1, 5673, Note_on_c, 0, 64, 122
1, 5942, Note_off_c, 0, 64, 122
1, 5965, Note_on_c, 0, 60, 105
1, 6242, Note_off_c, 0, 60, 105
1, 7209, Note_on_c, 0, 65, 113
1, 7339, Note_off_c, 0, 65, 113
1, 7340, Note_on_c, 0, 64, 120
1, 7593, Note_off_c, 0, 64, 120
1, 7599, Note_on_c, 0, 60, 110
1, 8021, Note_off_c, 0, 60, 110
1, 9471, Note_on_c, 0, 67, 117
1, 9582, Note_off_c, 0, 67, 117
1, 9589, Note_on_c, 0, 66, 115
1, 9839, Note_off_c, 0, 66, 115
1, 9865, Note_on_c, 0, 60, 117
1, 10160, Note_off_c, 0, 60, 117
1, 10276, Note_on_c, 0, 65, 110
1, 10317, Note_off_c, 0, 65, 110
1, 10329, Note_on_c, 0, 67, 113
1, 10392, Note_off_c, 0, 67, 113
1, 10396, Note_on_c, 0, 66, 113
1, 10928, Note_off_c, 0, 66, 113
1, 10942, Note_on_c, 0, 64, 121
1, 11028, Note_off_c, 0, 64, 121
1, 11028, Note_on_c, 0, 62, 117
1, 11133, Note_off_c, 0, 62, 117
1, 11156, Note_on_c, 0, 60, 111
1, 11393, Note_off_c, 0, 60, 111
1, 11400, Note_on_c, 0, 62, 116
1, 11470, Note_off_c, 0, 62, 116
1, 11490, Note_on_c, 0, 64, 119
1, 11577, Note_off_c, 0, 64, 119
1, 11597, Note_on_c, 0, 66, 112
1, 12208, Note_off_c, 0, 66, 112
1, 12245, Note_on_c, 0, 62, 109
1, 12512, Note_off_c, 0, 62, 109
1, 12527, Note_on_c, 0, 60, 103
1, 13365, Note_off_c, 0, 60, 103
1, 13403, Note_on_c, 0, 55, 100
1, 13514, Note_off_c, 0, 55, 100
1, 13576, Note_on_c, 0, 60, 105
1, 13836, Note_off_c, 0, 60, 105
1, 13852, Note_on_c, 0, 57, 97
1, 13987, Note_off_c, 0, 57, 97
1, 14010, Note_on_c, 0, 60, 104
1, 14310, Note_off_c, 0, 60, 104
1, 15832, Note_on_c, 0, 61, 118
1, 15983, Note_off_c, 0, 61, 118
1, 15994, Note_on_c, 0, 60, 118
1, 16127, Note_off_c, 0, 60, 118
1, 16136, Note_on_c, 0, 61, 119
1, 16765, Note_off_c, 0, 61, 119
1, 17139, Note_on_c, 0, 60, 117
1, 17508, Note_off_c, 0, 60, 117
1, 17531, Note_on_c, 0, 59, 104
1, 17620, Note_off_c, 0, 59, 104
1, 17645, Note_on_c, 0, 56, 107
1, 17751, Note_off_c, 0, 56, 107
1, 17805, Note_on_c, 0, 56, 103
1, 17913, Note_off_c, 0, 56, 103
1, 17928, Note_on_c, 0, 53, 97
1, 18100, Note_off_c, 0, 53, 97
1, 18855, Note_on_c, 0, 58, 100
1, 18907, Note_off_c, 0, 58, 100
1, 18920, Note_on_c, 0, 56, 100
1, 19006, Note_off_c, 0, 56, 100
1, 19017, Note_on_c, 0, 59, 104
1, 19075, Note_off_c, 0, 59, 104
1, 19087, Note_on_c, 0, 63, 124
1, 19194, Note_off_c, 0, 63, 124
1, 19201, Note_on_c, 0, 65, 120
1, 19282, Note_off_c, 0, 65, 120
1, 19298, Note_on_c, 0, 68, 120
1, 19387, Note_off_c, 0, 68, 120
1, 19394, Note_on_c, 0, 70, 120
1, 19477, Note_off_c, 0, 70, 120
1, 19486, Note_on_c, 0, 71, 117
1, 19603, Note_off_c, 0, 71, 117
1, 19616, Note_on_c, 0, 68, 100
1, 19669, Note_off_c, 0, 68, 100
1, 19687, Note_on_c, 0, 70, 121
1, 19773, Note_on_c, 0, 68, 115
1, 19773, Note_off_c, 0, 70, 121
1, 19860, Note_off_c, 0, 68, 115
1, 19876, Note_on_c, 0, 63, 120
1, 19965, Note_off_c, 0, 63, 120
1, 19965, Note_on_c, 0, 68, 117
1, 20267, Note_off_c, 0, 68, 117
1, 20270, Note_on_c, 0, 67, 113
1, 20357, Note_off_c, 0, 67, 113
1, 20371, Note_on_c, 0, 66, 112
1, 20469, Note_off_c, 0, 66, 112
1, 20476, Note_on_c, 0, 65, 108
1, 20571, Note_off_c, 0, 65, 108
1, 20577, Note_on_c, 0, 64, 108
1, 20667, Note_off_c, 0, 64, 108
1, 20676, Note_on_c, 0, 62, 116
1, 20774, Note_off_c, 0, 62, 116
1, 20787, Note_on_c, 0, 61, 113
1, 20861, Note_off_c, 0, 61, 113
1, 20863, Note_on_c, 0, 60, 104
1, 20978, Note_off_c, 0, 60, 104
1, 20979, Note_on_c, 0, 59, 98
1, 21070, Note_off_c, 0, 59, 98
1, 21070, Note_on_c, 0, 58, 97
1, 21135, Note_off_c, 0, 58, 97
1, 21145, Note_on_c, 0, 60, 105
1, 21259, Note_off_c, 0, 60, 105
1, 21265, Note_on_c, 0, 57, 94
1, 21478, Note_off_c, 0, 57, 94
1, 21513, Note_on_c, 0, 58, 95
1, 21571, Note_off_c, 0, 58, 95
1, 21580, Note_on_c, 0, 60, 99
1, 21638, Note_off_c, 0, 60, 99
1, 21641, Note_on_c, 0, 62, 114
1, 21886, Note_off_c, 0, 62, 114
1, 21886, Note_on_c, 0, 64, 114
1, 21943, Note_off_c, 0, 64, 114
1, 21952, Note_on_c, 0, 66, 110
1, 21992, Note_off_c, 0, 66, 110
1, 21992, Note_on_c, 0, 67, 118
1, 22256, Note_off_c, 0, 67, 118
1, 22259, Note_on_c, 0, 69, 114
1, 22309, Note_off_c, 0, 69, 114
1, 22313, Note_on_c, 0, 70, 114
1, 22386, Note_off_c, 0, 70, 114
1, 22389, Note_on_c, 0, 72, 117
1, 22658, Note_off_c, 0, 72, 117
1, 22665, Note_on_c, 0, 74, 108
1, 22701, Note_off_c, 0, 74, 108
1, 22707, Note_on_c, 0, 72, 106
1, 22730, Note_off_c, 0, 72, 106
1, 22749, Note_on_c, 0, 70, 111
1, 22803, Note_off_c, 0, 70, 111
1, 22815, Note_on_c, 0, 69, 112
1, 23421, Note_off_c, 0, 69, 112
1, 23425, Note_on_c, 0, 67, 110
1, 23464, Note_off_c, 0, 67, 110
1, 23473, Note_on_c, 0, 65, 110
1, 23516, Note_off_c, 0, 65, 110
1, 23520, Note_on_c, 0, 64, 112
1, 23755, Note_off_c, 0, 64, 112
1, 25108, Note_on_c, 0, 67, 119
1, 25193, Note_off_c, 0, 67, 119
1, 25208, Note_on_c, 0, 63, 105
1, 25297, Note_off_c, 0, 63, 105
1, 25304, Note_on_c, 0, 68, 121
1, 25373, Note_off_c, 0, 68, 121
1, 25381, Note_on_c, 0, 71, 114
1, 25473, Note_off_c, 0, 71, 114
1, 25481, Note_on_c, 0, 69, 118
1, 25563, Note_off_c, 0, 69, 118
1, 25601, Note_on_c, 0, 65, 114
1, 25761, Note_off_c, 0, 65, 114
1, 25764, Note_on_c, 0, 64, 119
1, 25854, Note_off_c, 0, 64, 119
1, 25864, Note_on_c, 0, 63, 117
1, 25974, Note_off_c, 0, 63, 117
1, 25985, Note_on_c, 0, 65, 103
1, 26023, Note_off_c, 0, 65, 103
1, 26026, Note_on_c, 0, 67, 113
1, 26135, Note_off_c, 0, 67, 113
1, 26137, Note_on_c, 0, 70, 113
1, 26215, Note_off_c, 0, 70, 113
1, 26225, Note_on_c, 0, 65, 113
1, 26327, Note_off_c, 0, 65, 113
1, 26332, Note_on_c, 0, 61, 109
1, 26398, Note_off_c, 0, 61, 109
1, 26413, Note_on_c, 0, 56, 109
1, 26564, Note_off_c, 0, 56, 109
1, 26596, Note_on_c, 0, 56, 107
1, 26701, Note_off_c, 0, 56, 107
1, 26712, Note_on_c, 0, 59, 109
1, 26782, Note_off_c, 0, 59, 109
1, 26788, Note_on_c, 0, 58, 110
1, 26883, Note_off_c, 0, 58, 110
1, 26883, Note_on_c, 0, 63, 119
1, 27170, Note_off_c, 0, 63, 119
1, 27172, Note_on_c, 0, 62, 117
1, 27280, Note_off_c, 0, 62, 117
1, 27284, Note_on_c, 0, 61, 112
1, 27371, Note_off_c, 0, 61, 112
1, 27374, Note_on_c, 0, 60, 110
1, 27466, Note_off_c, 0, 60, 110
1, 27473, Note_on_c, 0, 59, 100
1, 27552, Note_off_c, 0, 59, 100
1, 27559, Note_on_c, 0, 58, 100
1, 27655, Note_off_c, 0, 58, 100
1, 27662, Note_on_c, 0, 60, 114
1, 27759, Note_off_c, 0, 60, 114
1, 27764, Note_on_c, 0, 57, 99
1, 27876, Note_on_c, 0, 54, 97
1, 27876, Note_off_c, 0, 57, 99
1, 27920, Note_off_c, 0, 54, 97
1, 27921, Note_on_c, 0, 55, 106
1, 28048, Note_off_c, 0, 55, 106
1, 28051, Note_on_c, 0, 60, 108
1, 28151, Note_off_c, 0, 60, 108
1, 28160, Note_on_c, 0, 57, 109
1, 28235, Note_off_c, 0, 57, 109
1, 28235, Note_on_c, 0, 58, 105
1, 28319, Note_off_c, 0, 58, 105
1, 28342, Note_on_c, 0, 62, 117
1, 28441, Note_off_c, 0, 62, 117
1, 28467, Note_on_c, 0, 65, 100
1, 28545, Note_off_c, 0, 65, 100
1, 28545, Note_on_c, 0, 69, 116
1, 28654, Note_off_c, 0, 69, 116
1, 28660, Note_on_c, 0, 66, 96
1, 28703, Note_off_c, 0, 66, 96
1, 28703, Note_on_c, 0, 67, 108
1, 28800, Note_off_c, 0, 67, 108
1, 28807, Note_on_c, 0, 69, 115
1, 28892, Note_off_c, 0, 69, 115
1, 28895, Note_on_c, 0, 70, 111
1, 28955, Note_off_c, 0, 70, 111
1, 29029, Note_on_c, 0, 62, 116
1, 29098, Note_off_c, 0, 62, 116
1, 29107, Note_on_c, 0, 63, 101
1, 29184, Note_off_c, 0, 63, 101
1, 29301, Note_on_c, 0, 69, 116
1, 29482, Note_off_c, 0, 69, 116
1, 29490, Note_on_c, 0, 67, 111
1, 29582, Note_off_c, 0, 67, 111
1, 29591, Note_on_c, 0, 65, 110
1, 29686, Note_off_c, 0, 65, 110
1, 29687, Note_on_c, 0, 64, 120
1, 29937, Note_off_c, 0, 64, 120
1, 29987, Note_on_c, 0, 62, 117
1, 30237, Note_off_c, 0, 62, 117
1, 30249, Note_on_c, 0, 60, 109
1, 30335, Note_off_c, 0, 60, 109
1, 30350, Note_on_c, 0, 58, 97
1, 30451, Note_off_c, 0, 58, 97
1, 30454, Note_on_c, 0, 57, 102
1, 30664, Note_off_c, 0, 57, 102
1, 30733, Note_on_c, 0, 57, 101
1, 31037, Note_off_c, 0, 57, 101
1, 31052, Note_on_c, 0, 58, 101
1, 31112, Note_off_c, 0, 58, 101
1, 31112, Note_on_c, 0, 60, 110
1, 31162, Note_off_c, 0, 60, 110
1, 31167, Note_on_c, 0, 62, 109
1, 31193, Note_off_c, 0, 62, 109
1, 31201, Note_on_c, 0, 64, 118
1, 31259, Note_off_c, 0, 64, 118
1, 31263, Note_on_c, 0, 65, 110
1, 31284, Note_off_c, 0, 65, 110
1, 31301, Note_on_c, 0, 69, 114
1, 31340, Note_off_c, 0, 69, 114
1, 31343, Note_on_c, 0, 67, 113
1, 31374, Note_off_c, 0, 67, 113
1, 31374, Note_on_c, 0, 66, 115
1, 31457, Note_off_c, 0, 66, 115
1, 31457, Note_on_c, 0, 64, 116
1, 31493, Note_off_c, 0, 64, 116
1, 31501, Note_on_c, 0, 62, 113
1, 31531, Note_off_c, 0, 62, 113
1, 31540, Note_on_c, 0, 60, 107
1, 31587, Note_off_c, 0, 60, 107
1, 31587, Note_on_c, 0, 58, 102
1, 31641, Note_off_c, 0, 58, 102
1, 31647, Note_on_c, 0, 57, 95
1, 31753, Note_off_c, 0, 57, 95
1, 32743, Note_on_c, 0, 46, 115
1, 32846, Note_off_c, 0, 46, 115
1, 32851, Note_on_c, 0, 49, 109
1, 32921, Note_off_c, 0, 49, 109
1, 32927, Note_on_c, 0, 53, 110
1, 33013, Note_off_c, 0, 53, 110
1, 33031, Note_on_c, 0, 60, 122
1, 33094, Note_off_c, 0, 60, 122
1, 33096, Note_on_c, 0, 61, 112
1, 33202, Note_off_c, 0, 61, 112
1, 33202, Note_on_c, 0, 63, 124
1, 33300, Note_off_c, 0, 63, 124
1, 33303, Note_on_c, 0, 65, 119
1, 33394, Note_off_c, 0, 65, 119
1, 33395, Note_on_c, 0, 67, 118
1, 33481, Note_off_c, 0, 67, 118
1, 33484, Note_on_c, 0, 68, 118
1, 33573, Note_off_c, 0, 68, 118
1, 33583, Note_on_c, 0, 70, 120
1, 33674, Note_off_c, 0, 70, 120
1, 33677, Note_on_c, 0, 72, 114
1, 33763, Note_off_c, 0, 72, 114
1, 33786, Note_on_c, 0, 73, 111
1, 33863, Note_off_c, 0, 73, 111
1, 33874, Note_on_c, 0, 75, 113
1, 33956, Note_off_c, 0, 75, 113
1, 33976, Note_on_c, 0, 72, 98
1, 34046, Note_off_c, 0, 72, 98
1, 34050, Note_on_c, 0, 73, 113
1, 34147, Note_off_c, 0, 73, 113
1, 34152, Note_on_c, 0, 73, 114
1, 34288, Note_off_c, 0, 73, 114
1, 34288, Note_on_c, 0, 72, 114
1, 34341, Note_off_c, 0, 72, 114
1, 34349, Note_on_c, 0, 70, 119
1, 34429, Note_off_c, 0, 70, 119
1, 34440, Note_on_c, 0, 69, 118
1, 34537, Note_off_c, 0, 69, 118
1, 34537, Note_on_c, 0, 72, 113
1, 34615, Note_off_c, 0, 72, 113
1, 34622, Note_on_c, 0, 70, 119
1, 34725, Note_off_c, 0, 70, 119
1, 34725, Note_on_c, 0, 68, 119
1, 34818, Note_off_c, 0, 68, 119
1, 34825, Note_on_c, 0, 67, 115
1, 34898, Note_off_c, 0, 67, 115
1, 34901, Note_on_c, 0, 67, 111
1, 34958, Note_off_c, 0, 67, 111
1, 34965, Note_on_c, 0, 66, 111
1, 35080, Note_off_c, 0, 66, 111
1, 35095, Note_on_c, 0, 66, 115
1, 35182, Note_off_c, 0, 66, 115
1, 35188, Note_on_c, 0, 65, 114
1, 35266, Note_off_c, 0, 65, 114
1, 35271, Note_on_c, 0, 65, 112
1, 35325, Note_off_c, 0, 65, 112
1, 35325, Note_on_c, 0, 64, 112
1, 35351, Note_off_c, 0, 64, 112
1, 35357, Note_on_c, 0, 63, 117
1, 35416, Note_off_c, 0, 63, 117
1, 35426, Note_on_c, 0, 62, 112
1, 35490, Note_off_c, 0, 62, 112
1, 35500, Note_on_c, 0, 62, 120
1, 35574, Note_off_c, 0, 62, 120
1, 35577, Note_on_c, 0, 61, 114
1, 35673, Note_off_c, 0, 61, 114
1, 35681, Note_on_c, 0, 60, 113
1, 35780, Note_off_c, 0, 60, 113
1, 35780, Note_on_c, 0, 59, 106
1, 35861, Note_off_c, 0, 59, 106
1, 35874, Note_on_c, 0, 57, 96
1, 35955, Note_off_c, 0, 57, 96
1, 35961, Note_on_c, 0, 58, 109
1, 36049, Note_off_c, 0, 58, 109
1, 36069, Note_on_c, 0, 56, 107
1, 36149, Note_off_c, 0, 56, 107
1, 36152, Note_on_c, 0, 57, 111
1, 36239, Note_off_c, 0, 57, 111
1, 36246, Note_on_c, 0, 55, 107
1, 36326, Note_off_c, 0, 55, 107
1, 36333, Note_on_c, 0, 54, 115
1, 36426, Note_off_c, 0, 54, 115
1, 36512, Note_on_c, 0, 55, 107
1, 36606, Note_off_c, 0, 55, 107
1, 36621, Note_on_c, 0, 57, 108
1, 36711, Note_off_c, 0, 57, 108
1, 36713, Note_on_c, 0, 58, 109
1, 36891, Note_off_c, 0, 58, 109
1, 36909, Note_on_c, 0, 60, 113
1, 36987, Note_off_c, 0, 60, 113
1, 36995, Note_on_c, 0, 62, 120
1, 37081, Note_off_c, 0, 62, 120
1, 37088, Note_on_c, 0, 64, 121
1, 37286, Note_off_c, 0, 64, 121
1, 37292, Note_on_c, 0, 66, 114
1, 37386, Note_off_c, 0, 66, 114
1, 37397, Note_on_c, 0, 67, 112
1, 37487, Note_off_c, 0, 67, 112
1, 37511, Note_on_c, 0, 69, 118
1, 37679, Note_off_c, 0, 69, 118
1, 37684, Note_on_c, 0, 70, 112
1, 37804, Note_off_c, 0, 70, 112
1, 37804, Note_on_c, 0, 72, 112
1, 37980, Note_off_c, 0, 72, 112
1, 37983, Note_on_c, 0, 69, 112
1, 38090, Note_off_c, 0, 69, 112
1, 38113, Note_on_c, 0, 67, 108
1, 38258, Note_off_c, 0, 67, 108
1, 38275, Note_on_c, 0, 62, 98
1, 38370, Note_off_c, 0, 62, 98
1, 38375, Note_on_c, 0, 60, 98
1, 38483, Note_off_c, 0, 60, 98
1, 39230, Note_on_c, 0, 67, 121
1, 39284, Note_off_c, 0, 67, 121
1, 39287, Note_on_c, 0, 68, 127
1, 39342, Note_off_c, 0, 68, 127
1, 39349, Note_on_c, 0, 69, 118
1, 40343, Note_off_c, 0, 69, 118
1, 40378, Note_on_c, 0, 73, 113
1, 40479, Note_off_c, 0, 73, 113
1, 40511, Note_on_c, 0, 66, 96
1, 40551, Note_off_c, 0, 66, 96
1, 40563, Note_on_c, 0, 69, 119
1, 40644, Note_off_c, 0, 69, 119
1, 40667, Note_on_c, 0, 72, 109
1, 40764, Note_off_c, 0, 72, 109
1, 40766, Note_on_c, 0, 70, 116
1, 41000, Note_off_c, 0, 70, 116
1, 41005, Note_on_c, 0, 73, 99
1, 41059, Note_off_c, 0, 73, 99
1, 41081, Note_on_c, 0, 72, 113
1, 41214, Note_off_c, 0, 72, 113
1, 41266, Note_on_c, 0, 65, 96
1, 41309, Note_off_c, 0, 65, 96
1, 41312, Note_on_c, 0, 71, 112
1, 41423, Note_off_c, 0, 71, 112
1, 41480, Note_on_c, 0, 70, 118
1, 41609, Note_off_c, 0, 70, 118
1, 41658, Note_on_c, 0, 65, 115
1, 41790, Note_off_c, 0, 65, 115
1, 41809, Note_on_c, 0, 70, 113
1, 41874, Note_off_c, 0, 70, 113
1, 41888, Note_on_c, 0, 69, 118
1, 41989, Note_off_c, 0, 69, 118
1, 42004, Note_on_c, 0, 69, 106
1, 42187, Note_off_c, 0, 69, 106
1, 42198, Note_on_c, 0, 72, 110
1, 42261, Note_off_c, 0, 72, 110
1, 42273, Note_on_c, 0, 67, 113
1, 42399, Note_off_c, 0, 67, 113
1, 42402, Note_on_c, 0, 68, 114
1, 42493, Note_off_c, 0, 68, 114
1, 42504, Note_on_c, 0, 67, 110
1, 42542, Note_off_c, 0, 67, 110
1, 42551, Note_on_c, 0, 66, 112
1, 42597, Note_off_c, 0, 66, 112
1, 42597, Note_on_c, 0, 71, 114
1, 42657, Note_off_c, 0, 71, 114
1, 42660, Note_on_c, 0, 69, 117
1, 42768, Note_off_c, 0, 69, 117
1, 42770, Note_on_c, 0, 66, 111
1, 42910, Note_off_c, 0, 66, 111
1, 42929, Note_on_c, 0, 64, 124
1, 43018, Note_off_c, 0, 64, 124
1, 43029, Note_on_c, 0, 63, 119
1, 43141, Note_off_c, 0, 63, 119
1, 43223, Note_on_c, 0, 69, 117
1, 43317, Note_off_c, 0, 69, 117
1, 43338, Note_on_c, 0, 71, 103
1, 43395, Note_off_c, 0, 71, 103
1, 43414, Note_on_c, 0, 70, 110
1, 43518, Note_off_c, 0, 70, 110
1, 43523, Note_on_c, 0, 62, 122
1, 43586, Note_off_c, 0, 62, 122
1, 43595, Note_on_c, 0, 61, 121
1, 43679, Note_off_c, 0, 61, 121
1, 43697, Note_on_c, 0, 68, 120
1, 43775, Note_off_c, 0, 68, 120
1, 43794, Note_on_c, 0, 63, 122
1, 43883, Note_off_c, 0, 63, 122
1, 43894, Note_on_c, 0, 61, 116
1, 43960, Note_off_c, 0, 61, 116
1, 43986, Note_on_c, 0, 56, 117
1, 44109, Note_off_c, 0, 56, 117
1, 44170, Note_on_c, 0, 58, 111
1, 44254, Note_off_c, 0, 58, 111
1, 44346, Note_on_c, 0, 56, 109
1, 44441, Note_off_c, 0, 56, 109
1, 44456, Note_on_c, 0, 58, 108
1, 44522, Note_off_c, 0, 58, 108
1, 44557, Note_on_c, 0, 59, 102
1, 44638, Note_off_c, 0, 59, 102
1, 44643, Note_on_c, 0, 61, 116
1, 44730, Note_off_c, 0, 61, 116
1, 44730, Note_on_c, 0, 63, 114
1, 44817, Note_off_c, 0, 63, 114
1, 44847, Note_on_c, 0, 65, 115
1, 44897, Note_off_c, 0, 65, 115
1, 44934, Note_on_c, 0, 66, 109
1, 45017, Note_off_c, 0, 66, 109
1, 45038, Note_on_c, 0, 70, 110
1, 45102, Note_off_c, 0, 70, 110
1, 45112, Note_on_c, 0, 75, 106
1, 45322, Note_off_c, 0, 75, 106
1, 45329, Note_on_c, 0, 68, 113
1, 45485, Note_off_c, 0, 68, 113
1, 45486, Note_on_c, 0, 73, 109
1, 45617, Note_off_c, 0, 73, 109
1, 46354, Note_on_c, 0, 73, 119
1, 46409, Note_off_c, 0, 73, 119
1, 46413, Note_on_c, 0, 74, 10
1, 46660, Note_off_c, 0, 74, 10
1, 46660, Note_on_c, 0, 72, 118
1, 46707, Note_off_c, 0, 72, 118
1, 46720, Note_on_c, 0, 70, 122
1, 46777, Note_off_c, 0, 70, 122
1, 46787, Note_on_c, 0, 69, 117
1, 47573, Note_off_c, 0, 69, 117
1, 47609, Note_on_c, 0, 67, 116
1, 47705, Note_off_c, 0, 67, 116
1, 47721, Note_on_c, 0, 67, 110
1, 47776, Note_off_c, 0, 67, 110
1, 47791, Note_on_c, 0, 69, 119
1, 47912, Note_off_c, 0, 69, 119
1, 47926, Note_on_c, 0, 69, 114
1, 47986, Note_off_c, 0, 69, 114
1, 47992, Note_on_c, 0, 70, 114
1, 48062, Note_off_c, 0, 70, 114
1, 48082, Note_on_c, 0, 70, 119
1, 48172, Note_off_c, 0, 70, 119
1, 48178, Note_on_c, 0, 72, 116
1, 48284, Note_off_c, 0, 72, 116
1, 48308, Note_on_c, 0, 72, 107
1, 48374, Note_off_c, 0, 72, 107
1, 48390, Note_on_c, 0, 72, 120
1, 48482, Note_off_c, 0, 72, 120
1, 48493, Note_on_c, 0, 71, 112
1, 48556, Note_off_c, 0, 71, 112
1, 48574, Note_on_c, 0, 71, 110
1, 48645, Note_off_c, 0, 71, 110
1, 48654, Note_on_c, 0, 72, 116
1, 48746, Note_off_c, 0, 72, 116
1, 48762, Note_on_c, 0, 71, 104
1, 48831, Note_off_c, 0, 71, 104
1, 48843, Note_on_c, 0, 71, 110
1, 48916, Note_off_c, 0, 71, 110
1, 48925, Note_on_c, 0, 70, 106
1, 49000, Note_off_c, 0, 70, 106
1, 49006, Note_on_c, 0, 71, 108
1, 49093, Note_off_c, 0, 71, 108
1, 49106, Note_on_c, 0, 70, 110
1, 49173, Note_off_c, 0, 70, 110
1, 49208, Note_on_c, 0, 70, 108
1, 49303, Note_off_c, 0, 70, 108
1, 49308, Note_on_c, 0, 72, 116
1, 49408, Note_off_c, 0, 72, 116
1, 49412, Note_on_c, 0, 70, 114
1, 49494, Note_off_c, 0, 70, 114
1, 49513, Note_on_c, 0, 69, 115
1, 49582, Note_off_c, 0, 69, 115
1, 49595, Note_on_c, 0, 68, 117
1, 49694, Note_off_c, 0, 68, 117
1, 49697, Note_on_c, 0, 67, 113
1, 49754, Note_off_c, 0, 67, 113
1, 49782, Note_on_c, 0, 71, 108
1, 49878, Note_off_c, 0, 71, 108
1, 49894, Note_on_c, 0, 70, 113
1, 49988, Note_off_c, 0, 70, 113
1, 49988, Note_on_c, 0, 66, 115
1, 50065, Note_off_c, 0, 66, 115
1, 50080, Note_on_c, 0, 65, 112
1, 50164, Note_off_c, 0, 65, 112
1, 50164, Note_on_c, 0, 64, 125
1, 50245, Note_off_c, 0, 64, 125
1, 50249, Note_on_c, 0, 63, 118
1, 50373, Note_off_c, 0, 63, 118
1, 50373, Note_on_c, 0, 66, 111
1, 50442, Note_off_c, 0, 66, 111
1, 50473, Note_on_c, 0, 69, 108
1, 50550, Note_off_c, 0, 69, 108
1, 50557, Note_on_c, 0, 71, 100
1, 50612, Note_off_c, 0, 71, 100
1, 50625, Note_on_c, 0, 70, 106
1, 50702, Note_off_c, 0, 70, 106
1, 50718, Note_on_c, 0, 69, 114
1, 50796, Note_off_c, 0, 69, 114
1, 50818, Note_on_c, 0, 68, 114
1, 50927, Note_off_c, 0, 68, 114
1, 50937, Note_on_c, 0, 67, 110
1, 51025, Note_off_c, 0, 67, 110
1, 51030, Note_on_c, 0, 62, 119
1, 51129, Note_off_c, 0, 62, 119
1, 51140, Note_on_c, 0, 60, 113
1, 51223, Note_off_c, 0, 60, 113
1, 51243, Note_on_c, 0, 57, 107
1, 51338, Note_off_c, 0, 57, 107
1, 51365, Note_on_c, 0, 53, 103
1, 51423, Note_off_c, 0, 53, 103
1, 51426, Note_on_c, 0, 55, 109
1, 51506, Note_off_c, 0, 55, 109
1, 51517, Note_on_c, 0, 50, 108
1, 51583, Note_on_c, 0, 48, 110
1, 51583, Note_off_c, 0, 50, 108
1, 51692, Note_off_c, 0, 48, 110
1, 51710, Note_on_c, 0, 53, 116
1, 51792, Note_off_c, 0, 53, 116
1, 51799, Note_on_c, 0, 46, 113
1, 51995, Note_off_c, 0, 46, 113
1, 51995, Note_on_c, 0, 51, 110
1, 52091, Note_off_c, 0, 51, 110
1, 52095, Note_on_c, 0, 44, 120
1, 52249, Note_off_c, 0, 44, 120
1, 53095, Note_on_c, 0, 47, 120
1, 53172, Note_off_c, 0, 47, 120
1, 53177, Note_on_c, 0, 51, 115
1, 53288, Note_off_c, 0, 51, 115
1, 53302, Note_on_c, 0, 54, 114
1, 53375, Note_off_c, 0, 54, 114
1, 53375, Note_on_c, 0, 58, 117
1, 53464, Note_off_c, 0, 58, 117
1, 53469, Note_on_c, 0, 60, 118
1, 53550, Note_off_c, 0, 60, 118
1, 53550, Note_on_c, 0, 63, 124
1, 53649, Note_off_c, 0, 63, 124
1, 53650, Note_on_c, 0, 65, 119
1, 53721, Note_off_c, 0, 65, 119
1, 53722, Note_on_c, 0, 66, 118
1, 53817, Note_off_c, 0, 66, 118
1, 53844, Note_on_c, 0, 68, 105
1, 53899, Note_off_c, 0, 68, 105
1, 53914, Note_on_c, 0, 70, 119
1, 54010, Note_off_c, 0, 70, 119
1, 54017, Note_on_c, 0, 72, 108
1, 54095, Note_off_c, 0, 72, 108
1, 54116, Note_on_c, 0, 73, 112
1, 54182, Note_off_c, 0, 73, 112
1, 54211, Note_on_c, 0, 74, 114
1, 54316, Note_off_c, 0, 74, 114
1, 54319, Note_on_c, 0, 72, 109
1, 54371, Note_off_c, 0, 72, 109
1, 54383, Note_on_c, 0, 73, 106
1, 54494, Note_off_c, 0, 73, 106
1, 54496, Note_on_c, 0, 70, 115
1, 54612, Note_off_c, 0, 70, 115
1, 54617, Note_on_c, 0, 66, 115
1, 54686, Note_off_c, 0, 66, 115
1, 54693, Note_on_c, 0, 65, 116
1, 54817, Note_off_c, 0, 65, 116
1, 54817, Note_on_c, 0, 64, 124
1, 54900, Note_off_c, 0, 64, 124
1, 54901, Note_on_c, 0, 63, 123
1, 55004, Note_off_c, 0, 63, 123
1, 55010, Note_on_c, 0, 61, 106
1, 55081, Note_off_c, 0, 61, 106
1, 55085, Note_on_c, 0, 62, 120
1, 55180, Note_off_c, 0, 62, 120
1, 55185, Note_on_c, 0, 60, 115
1, 55285, Note_off_c, 0, 60, 115
1, 55288, Note_on_c, 0, 58, 111
1, 55370, Note_off_c, 0, 58, 111
1, 55374, Note_on_c, 0, 60, 117
1, 55431, Note_off_c, 0, 60, 117
1, 55451, Note_on_c, 0, 62, 113
1, 55532, Note_off_c, 0, 62, 113
1, 55571, Note_on_c, 0, 67, 117
1, 55657, Note_off_c, 0, 67, 117
1, 55667, Note_on_c, 0, 68, 121
1, 55765, Note_off_c, 0, 68, 121
1, 55765, Note_on_c, 0, 69, 117
1, 55855, Note_off_c, 0, 69, 117
1, 55860, Note_on_c, 0, 70, 116
1, 55978, Note_off_c, 0, 70, 116
1, 55989, Note_on_c, 0, 68, 102
1, 56038, Note_off_c, 0, 68, 102
1, 56038, Note_on_c, 0, 69, 112
1, 56147, Note_off_c, 0, 69, 112
1, 56157, Note_on_c, 0, 67, 115
1, 56244, Note_off_c, 0, 67, 115
1, 56245, Note_on_c, 0, 66, 111
1, 56340, Note_off_c, 0, 66, 111
1, 56350, Note_on_c, 0, 69, 115
1, 56431, Note_off_c, 0, 69, 115
1, 56453, Note_on_c, 0, 67, 116
1, 56530, Note_off_c, 0, 67, 116
1, 56546, Note_on_c, 0, 65, 116
1, 56630, Note_off_c, 0, 65, 116
1, 56631, Note_on_c, 0, 64, 122
1, 56732, Note_off_c, 0, 64, 122
1, 56732, Note_on_c, 0, 68, 117
1, 56816, Note_off_c, 0, 68, 117
1, 56826, Note_on_c, 0, 66, 113
1, 56917, Note_off_c, 0, 66, 113
1, 56918, Note_on_c, 0, 64, 119
1, 57014, Note_off_c, 0, 64, 119
1, 57016, Note_on_c, 0, 63, 120
1, 57111, Note_off_c, 0, 63, 120
1, 57113, Note_on_c, 0, 67, 115
1, 57180, Note_off_c, 0, 67, 115
1, 57219, Note_on_c, 0, 65, 118
1, 57310, Note_off_c, 0, 65, 118
1, 57310, Note_on_c, 0, 63, 119
1, 57409, Note_on_c, 0, 62, 119
1, 57409, Note_off_c, 0, 63, 119
1, 57520, Note_off_c, 0, 62, 119
1, 57525, Note_on_c, 0, 66, 115
1, 57592, Note_off_c, 0, 66, 115
1, 57596, Note_on_c, 0, 64, 120
1, 57685, Note_off_c, 0, 64, 120
1, 57691, Note_on_c, 0, 62, 118
1, 57747, Note_off_c, 0, 62, 118
1, 57761, Note_on_c, 0, 61, 115
1, 57867, Note_off_c, 0, 61, 115
1, 57867, Note_on_c, 0, 65, 110
1, 57942, Note_off_c, 0, 65, 110
1, 57952, Note_on_c, 0, 64, 121
1, 58222, Note_off_c, 0, 64, 121
1, 58227, Note_on_c, 0, 62, 117
1, 58271, Note_off_c, 0, 62, 117
1, 58291, Note_on_c, 0, 60, 114
1, 58340, Note_off_c, 0, 60, 114
1, 58354, Note_on_c, 0, 58, 110
1, 58574, Note_off_c, 0, 58, 110
1, 58578, Note_on_c, 0, 60, 114
1, 58631, Note_off_c, 0, 60, 114
1, 58642, Note_on_c, 0, 62, 116
1, 58691, Note_off_c, 0, 62, 116
1, 58697, Note_on_c, 0, 64, 119
1, 58760, Note_off_c, 0, 64, 119
1, 58770, Note_on_c, 0, 62, 120
1, 58818, Note_off_c, 0, 62, 120
1, 58842, Note_on_c, 0, 60, 114
1, 58891, Note_off_c, 0, 60, 114
1, 58892, Note_on_c, 0, 58, 107
1, 58974, Note_off_c, 0, 58, 107
1, 58978, Note_on_c, 0, 60, 117
1, 59051, Note_off_c, 0, 60, 117
1, 59063, Note_on_c, 0, 62, 120
1, 59109, Note_off_c, 0, 62, 120
1, 59118, Note_on_c, 0, 64, 121
1, 59162, Note_off_c, 0, 64, 121
1, 59169, Note_on_c, 0, 66, 116
1, 59241, Note_off_c, 0, 66, 116
1, 59243, Note_on_c, 0, 67, 118
1, 59290, Note_off_c, 0, 67, 118
1, 59294, Note_on_c, 0, 69, 118
1, 59372, Note_off_c, 0, 69, 118
1, 59372, Note_on_c, 0, 70, 116
1, 59424, Note_off_c, 0, 70, 116
1, 59425, Note_on_c, 0, 72, 110
1, 60499, Note_off_c, 0, 72, 110
1, 60891, Note_on_c, 0, 62, 119
1, 60994, Note_on_c, 0, 67, 119
1, 60994, Note_off_c, 0, 62, 119
1, 61083, Note_off_c, 0, 67, 119
1, 61090, Note_on_c, 0, 72, 113
1, 61188, Note_off_c, 0, 72, 113
1, 61188, Note_on_c, 0, 69, 116
1, 61302, Note_off_c, 0, 69, 116
1, 61337, Note_on_c, 0, 64, 108
1, 61387, Note_off_c, 0, 64, 108
1, 61393, Note_on_c, 0, 67, 119
1, 61509, Note_off_c, 0, 67, 119
1, 61516, Note_on_c, 0, 62, 124
1, 61573, Note_off_c, 0, 62, 124
1, 61592, Note_on_c, 0, 60, 118
1, 61686, Note_off_c, 0, 60, 118
1, 61687, Note_on_c, 0, 67, 116
1, 61774, Note_off_c, 0, 67, 116
1, 61781, Note_on_c, 0, 63, 124
1, 61865, Note_off_c, 0, 63, 124
1, 61877, Note_on_c, 0, 61, 114
1, 61971, Note_off_c, 0, 61, 114
1, 61986, Note_on_c, 0, 56, 112
1, 62095, Note_off_c, 0, 56, 112
1, 62114, Note_on_c, 0, 53, 102
1, 62160, Note_off_c, 0, 53, 102
1, 62160, Note_on_c, 0, 58, 111
1, 62266, Note_off_c, 0, 58, 111
1, 62277, Note_on_c, 0, 55, 111
1, 62353, Note_off_c, 0, 55, 111
1, 62353, Note_on_c, 0, 56, 110
1, 62418, Note_off_c, 0, 56, 110
1, 62435, Note_on_c, 0, 58, 107
1, 62527, Note_off_c, 0, 58, 107
1, 62528, Note_on_c, 0, 59, 104
1, 62583, Note_off_c, 0, 59, 104
1, 62587, Note_on_c, 0, 61, 113
1, 62701, Note_off_c, 0, 61, 113
1, 62705, Note_on_c, 0, 63, 110
1, 62792, Note_off_c, 0, 63, 110
1, 62815, Note_on_c, 0, 70, 102
1, 62901, Note_off_c, 0, 70, 102
1, 62921, Note_on_c, 0, 73, 112
1, 62994, Note_off_c, 0, 73, 112
1, 63019, Note_on_c, 0, 72, 107
1, 63082, Note_off_c, 0, 72, 107
1, 63097, Note_on_c, 0, 71, 115
1, 63179, Note_off_c, 0, 71, 115
1, 63204, Note_on_c, 0, 70, 119
1, 63286, Note_off_c, 0, 70, 119
1, 63300, Note_on_c, 0, 68, 119
1, 63389, Note_off_c, 0, 68, 119
1, 63432, Note_on_c, 0, 70, 104
1, 63488, Note_off_c, 0, 70, 104
1, 63500, Note_on_c, 0, 71, 114
1, 63555, Note_off_c, 0, 71, 114
1, 63585, Note_on_c, 0, 73, 109
1, 63658, Note_off_c, 0, 73, 109
1, 63663, Note_on_c, 0, 70, 111
1, 63763, Note_off_c, 0, 70, 111
1, 63769, Note_on_c, 0, 69, 113
1, 63844, Note_off_c, 0, 69, 113
1, 63865, Note_on_c, 0, 68, 118
1, 63960, Note_off_c, 0, 68, 118
1, 63981, Note_on_c, 0, 66, 99
1, 64045, Note_off_c, 0, 66, 99
1, 64059, Note_on_c, 0, 67, 113
1, 64131, Note_off_c, 0, 67, 113
1, 64152, Note_on_c, 0, 69, 113
1, 64244, Note_off_c, 0, 69, 113
1, 64256, Note_on_c, 0, 70, 112
1, 64329, Note_off_c, 0, 70, 112
1, 64350, Note_on_c, 0, 72, 98
1, 64434, Note_off_c, 0, 72, 98
1, 64436, Note_on_c, 0, 73, 105
1, 64506, Note_off_c, 0, 73, 105
1, 64537, Note_on_c, 0, 74, 106
1, 64612, Note_off_c, 0, 74, 106
1, 64622, Note_on_c, 0, 70, 109
1, 64725, Note_off_c, 0, 70, 109
1, 64746, Note_on_c, 0, 67, 88
1, 64809, Note_off_c, 0, 67, 88
1, 64823, Note_on_c, 0, 71, 112
1, 64892, Note_off_c, 0, 71, 112
1, 64906, Note_on_c, 0, 72, 101
1, 64979, Note_off_c, 0, 72, 101
1, 64998, Note_on_c, 0, 69, 106
1, 65052, Note_off_c, 0, 69, 106
1, 65130, Note_on_c, 0, 65, 96
1, 65184, Note_off_c, 0, 65, 96
1, 65203, Note_on_c, 0, 69, 115
1, 65295, Note_off_c, 0, 69, 115
1, 65297, Note_on_c, 0, 70, 111
1, 65377, Note_off_c, 0, 70, 111
1, 65381, Note_on_c, 0, 67, 110
1, 65470, Note_off_c, 0, 67, 110
1, 65494, Note_on_c, 0, 62, 93
1, 65556, Note_off_c, 0, 62, 93
1, 65575, Note_on_c, 0, 68, 117
1, 65649, Note_off_c, 0, 68, 117
1, 65665, Note_on_c, 0, 69, 110
1, 65728, Note_off_c, 0, 69, 110
1, 65764, Note_on_c, 0, 65, 110
1, 65851, Note_off_c, 0, 65, 110
1, 65876, Note_on_c, 0, 62, 103
1, 65929, Note_off_c, 0, 62, 103
1, 65952, Note_on_c, 0, 68, 115
1, 66034, Note_off_c, 0, 68, 115
1, 66045, Note_on_c, 0, 69, 110
1, 66118, Note_off_c, 0, 69, 110
1, 66130, Note_on_c, 0, 65, 109
1, 66238, Note_off_c, 0, 65, 109
1, 66248, Note_on_c, 0, 62, 110
1, 66319, Note_off_c, 0, 62, 110
1, 66326, Note_on_c, 0, 66, 107
1, 66432, Note_off_c, 0, 66, 107
1, 66434, Note_on_c, 0, 67, 109
1, 66509, Note_off_c, 0, 67, 109
1, 66509, Note_on_c, 0, 64, 113
1, 66575, Note_off_c, 0, 64, 113
1, 66648, Note_on_c, 0, 60, 93
1, 66718, Note_off_c, 0, 60, 93
1, 66724, Note_on_c, 0, 65, 114
1, 66795, Note_off_c, 0, 65, 114
1, 66807, Note_on_c, 0, 66, 106
1, 66889, Note_off_c, 0, 66, 106
1, 66907, Note_on_c, 0, 63, 114
1, 67001, Note_off_c, 0, 63, 114
1, 67100, Note_on_c, 0, 64, 120
1, 67168, Note_off_c, 0, 64, 120
1, 67173, Note_on_c, 0, 65, 112
1, 67271, Note_off_c, 0, 65, 112
1, 67305, Note_on_c, 0, 62, 115
1, 67389, Note_off_c, 0, 62, 115
1, 67389, Note_on_c, 0, 56, 97
1, 67461, Note_off_c, 0, 56, 97
1, 67492, Note_on_c, 0, 63, 118
1, 67566, Note_off_c, 0, 63, 118
1, 67576, Note_on_c, 0, 64, 116
1, 67665, Note_on_c, 0, 61, 106
1, 67665, Note_off_c, 0, 64, 116
1, 67755, Note_off_c, 0, 61, 106
1, 68235, Note_on_c, 0, 61, 121
1, 68325, Note_off_c, 0, 61, 121
1, 68333, Note_on_c, 0, 62, 126
1, 68422, Note_off_c, 0, 62, 126
1, 68433, Note_on_c, 0, 58, 104
1, 68523, Note_off_c, 0, 58, 104
1, 68542, Note_on_c, 0, 55, 103
1, 68607, Note_off_c, 0, 55, 103
1, 68616, Note_on_c, 0, 60, 121
1, 68706, Note_off_c, 0, 60, 121
1, 68712, Note_on_c, 0, 57, 118
1, 68811, Note_off_c, 0, 57, 118
1, 68818, Note_on_c, 0, 54, 115
1, 68915, Note_off_c, 0, 54, 115
1, 68935, Note_on_c, 0, 53, 101
1, 68984, Note_off_c, 0, 53, 101
1, 68991, Note_on_c, 0, 55, 112
1, 69104, Note_off_c, 0, 55, 112
1, 69109, Note_on_c, 0, 54, 106
1, 69156, Note_off_c, 0, 54, 106
1, 69167, Note_on_c, 0, 55, 110
1, 69257, Note_off_c, 0, 55, 110
1, 69292, Note_on_c, 0, 60, 119
1, 69367, Note_off_c, 0, 60, 119
1, 69374, Note_on_c, 0, 57, 111
1, 69471, Note_off_c, 0, 57, 111
1, 69481, Note_on_c, 0, 58, 109
1, 69540, Note_off_c, 0, 58, 109
1, 69559, Note_on_c, 0, 62, 118
1, 69649, Note_off_c, 0, 62, 118
1, 69685, Note_on_c, 0, 65, 115
1, 69752, Note_off_c, 0, 65, 115
1, 69778, Note_on_c, 0, 68, 117
1, 69878, Note_off_c, 0, 68, 117
1, 69895, Note_on_c, 0, 70, 109
1, 69967, Note_off_c, 0, 70, 109
1, 69973, Note_on_c, 0, 72, 103
1, 70067, Note_off_c, 0, 72, 103
1, 70077, Note_on_c, 0, 73, 104
1, 70155, Note_off_c, 0, 73, 104
1, 70174, Note_on_c, 0, 75, 105
1, 70283, Note_off_c, 0, 75, 105
1, 70287, Note_on_c, 0, 72, 108
1, 70354, Note_off_c, 0, 72, 108
1, 70355, Note_on_c, 0, 68, 118
1, 70453, Note_off_c, 0, 68, 118
1, 70468, Note_on_c, 0, 65, 97
1, 70530, Note_off_c, 0, 65, 97
1, 70535, Note_on_c, 0, 67, 109
1, 70646, Note_off_c, 0, 67, 109
1, 70677, Note_on_c, 0, 61, 114
1, 70774, Note_off_c, 0, 61, 114
1, 70791, Note_on_c, 0, 58, 94
1, 70873, Note_off_c, 0, 58, 94
1, 70943, Note_on_c, 0, 65, 106
1, 71033, Note_off_c, 0, 65, 106
1, 71052, Note_on_c, 0, 61, 112
1, 71118, Note_off_c, 0, 61, 112
1, 71137, Note_on_c, 0, 56, 107
1, 71231, Note_off_c, 0, 56, 107
1, 71244, Note_on_c, 0, 53, 100
1, 71309, Note_off_c, 0, 53, 100
1, 71309, Note_on_c, 0, 55, 114
1, 71423, Note_off_c, 0, 55, 114
1, 71834, Note_on_c, 0, 51, 113
1, 71894, Note_off_c, 0, 51, 113
1, 71908, Note_on_c, 0, 53, 115
1, 71939, Note_off_c, 0, 53, 115
1, 71951, Note_on_c, 0, 54, 114
1, 71990, Note_off_c, 0, 54, 114
1, 71993, Note_on_c, 0, 56, 111
1, 72046, Note_off_c, 0, 56, 111
1, 72064, Note_on_c, 0, 58, 117
1, 72111, Note_off_c, 0, 58, 117
1, 72111, Note_on_c, 0, 60, 119
1, 72162, Note_off_c, 0, 60, 119
1, 72173, Note_on_c, 0, 61, 118
1, 72223, Note_off_c, 0, 61, 118
1, 72225, Note_on_c, 0, 63, 122
1, 72275, Note_off_c, 0, 63, 122
1, 72282, Note_on_c, 0, 65, 119
1, 72340, Note_off_c, 0, 65, 119
1, 72343, Note_on_c, 0, 66, 115
1, 72382, Note_off_c, 0, 66, 115
1, 72395, Note_on_c, 0, 68, 114
1, 72447, Note_off_c, 0, 68, 114
1, 72460, Note_on_c, 0, 70, 115
1, 72507, Note_off_c, 0, 70, 115
1, 72512, Note_on_c, 0, 72, 110
1, 72570, Note_off_c, 0, 72, 110
1, 72581, Note_on_c, 0, 72, 119
1, 72650, Note_off_c, 0, 72, 119
1, 72661, Note_on_c, 0, 68, 117
1, 72724, Note_off_c, 0, 68, 117
1, 72728, Note_on_c, 0, 70, 115
1, 72819, Note_off_c, 0, 70, 115
1, 72824, Note_on_c, 0, 72, 113
1, 72865, Note_off_c, 0, 72, 113
1, 72868, Note_on_c, 0, 72, 118
1, 72947, Note_off_c, 0, 72, 118
1, 72948, Note_on_c, 0, 68, 111
1, 73015, Note_off_c, 0, 68, 111
1, 73016, Note_on_c, 0, 70, 111
1, 73082, Note_off_c, 0, 70, 111
1, 73082, Note_on_c, 0, 72, 107
1, 73129, Note_off_c, 0, 72, 107
1, 73168, Note_on_c, 0, 72, 115
1, 73226, Note_off_c, 0, 72, 115
1, 73234, Note_on_c, 0, 69, 116
1, 73300, Note_off_c, 0, 69, 116
1, 73302, Note_on_c, 0, 70, 113
1, 73360, Note_off_c, 0, 70, 113
1, 73360, Note_on_c, 0, 72, 110
1, 73403, Note_off_c, 0, 72, 110
1, 73418, Note_on_c, 0, 72, 111
1, 73490, Note_off_c, 0, 72, 111
1, 73497, Note_on_c, 0, 69, 115
1, 73573, Note_off_c, 0, 69, 115
1, 73579, Note_on_c, 0, 70, 112
1, 73646, Note_off_c, 0, 70, 112
1, 73653, Note_on_c, 0, 72, 104
1, 73702, Note_off_c, 0, 72, 104
1, 73713, Note_on_c, 0, 72, 115
1, 73777, Note_off_c, 0, 72, 115
1, 73783, Note_on_c, 0, 69, 114
1, 73848, Note_off_c, 0, 69, 114
1, 73857, Note_on_c, 0, 70, 113
1, 73919, Note_off_c, 0, 70, 113
1, 73926, Note_on_c, 0, 72, 104
1, 73965, Note_off_c, 0, 72, 104
1, 73989, Note_on_c, 0, 72, 119
1, 74058, Note_off_c, 0, 72, 119
1, 74074, Note_on_c, 0, 69, 117
1, 74137, Note_off_c, 0, 69, 117
1, 74144, Note_on_c, 0, 70, 111
1, 74209, Note_on_c, 0, 72, 103
1, 74209, Note_off_c, 0, 70, 111
1, 74261, Note_off_c, 0, 72, 103
1, 74278, Note_on_c, 0, 72, 116
1, 74334, Note_off_c, 0, 72, 116
1, 74340, Note_on_c, 0, 69, 116
1, 74408, Note_off_c, 0, 69, 116
1, 74419, Note_on_c, 0, 70, 111
1, 74485, Note_off_c, 0, 70, 111
1, 74486, Note_on_c, 0, 72, 99
1, 74523, Note_off_c, 0, 72, 99
1, 74547, Note_on_c, 0, 72, 116
1, 74598, Note_off_c, 0, 72, 116
1, 74621, Note_on_c, 0, 69, 116
1, 74685, Note_off_c, 0, 69, 116
1, 74685, Note_on_c, 0, 70, 108
1, 74749, Note_off_c, 0, 70, 108
1, 74749, Note_on_c, 0, 72, 103
1, 74802, Note_off_c, 0, 72, 103
1, 74812, Note_on_c, 0, 72, 116
1, 74875, Note_off_c, 0, 72, 116
1, 74878, Note_on_c, 0, 69, 115
1, 74945, Note_off_c, 0, 69, 115
1, 74951, Note_on_c, 0, 70, 108
1, 75019, Note_off_c, 0, 70, 108
1, 75042, Note_on_c, 0, 73, 99
1, 75073, Note_off_c, 0, 73, 99
1, 75073, Note_on_c, 0, 72, 114
1, 75156, Note_off_c, 0, 72, 114
1, 75164, Note_on_c, 0, 69, 116
1, 75231, Note_off_c, 0, 69, 116
1, 75240, Note_on_c, 0, 70, 110
1, 75310, Note_off_c, 0, 70, 110
1, 75315, Note_on_c, 0, 72, 103
1, 75365, Note_off_c, 0, 72, 103
1, 75368, Note_on_c, 0, 72, 117
1, 75430, Note_off_c, 0, 72, 117
1, 75445, Note_on_c, 0, 69, 113
1, 75499, Note_off_c, 0, 69, 113
1, 75517, Note_on_c, 0, 70, 109
1, 75587, Note_off_c, 0, 70, 109
1, 75609, Note_on_c, 0, 72, 106
1, 75646, Note_off_c, 0, 72, 106
1, 75657, Note_on_c, 0, 72, 112
1, 75719, Note_off_c, 0, 72, 112
1, 75719, Note_on_c, 0, 69, 112
1, 75789, Note_off_c, 0, 69, 112
1, 75792, Note_on_c, 0, 70, 112
1, 75866, Note_off_c, 0, 70, 112
1, 75873, Note_on_c, 0, 72, 105
1, 75923, Note_off_c, 0, 72, 105
1, 75930, Note_on_c, 0, 72, 107
1, 76021, Note_off_c, 0, 72, 107
1, 76021, Note_on_c, 0, 69, 111
1, 76093, Note_off_c, 0, 69, 111
1, 76112, Note_on_c, 0, 72, 110
1, 76550, Note_off_c, 0, 72, 110
1, 76565, Note_on_c, 0, 74, 108
1, 76833, Note_off_c, 0, 74, 108
1, 76839, Note_on_c, 0, 72, 109
1, 77069, Note_off_c, 0, 72, 109
1, 77112, Note_on_c, 0, 67, 114
1, 77194, Note_off_c, 0, 67, 114
1, 77213, Note_on_c, 0, 62, 122
1, 77305, Note_off_c, 0, 62, 122
1, 77307, Note_on_c, 0, 59, 119
1, 77369, Note_off_c, 0, 59, 119
1, 77369, Note_on_c, 0, 60, 116
1, 77480, Note_on_c, 0, 65, 113
1, 77480, Note_off_c, 0, 60, 116
1, 77579, Note_off_c, 0, 65, 113
1, 78080, Note_on_c, 0, 70, 117
1, 78115, Note_off_c, 0, 70, 117
1, 78137, Note_on_c, 0, 72, 118
1, 78741, Note_off_c, 0, 72, 118
1, 78748, Note_on_c, 0, 72, 114
1, 78809, Note_off_c, 0, 72, 114
1, 78823, Note_on_c, 0, 69, 120
1, 78934, Note_off_c, 0, 69, 120
1, 78935, Note_on_c, 0, 65, 115
1, 79018, Note_off_c, 0, 65, 115
1, 79028, Note_on_c, 0, 72, 117
1, 79109, Note_off_c, 0, 72, 117
1, 79116, Note_on_c, 0, 72, 115
1, 79169, Note_off_c, 0, 72, 115
1, 79181, Note_on_c, 0, 71, 117
1, 79275, Note_off_c, 0, 71, 117
1, 79276, Note_on_c, 0, 71, 118
1, 79362, Note_off_c, 0, 71, 118
1, 79362, Note_on_c, 0, 70, 117
1, 79453, Note_off_c, 0, 70, 117
1, 79468, Note_on_c, 0, 70, 114
1, 79541, Note_off_c, 0, 70, 114
1, 79541, Note_on_c, 0, 69, 113
1, 79656, Note_off_c, 0, 69, 113
1, 79708, Note_on_c, 0, 69, 114
1, 79826, Note_off_c, 0, 69, 114
1, 79834, Note_on_c, 0, 72, 110
1, 79886, Note_off_c, 0, 72, 110
1, 79914, Note_on_c, 0, 67, 111
1, 80037, Note_off_c, 0, 67, 111
1, 80050, Note_on_c, 0, 67, 113
1, 80119, Note_off_c, 0, 67, 113
1, 80132, Note_on_c, 0, 67, 110
1, 80210, Note_off_c, 0, 67, 110
1, 80223, Note_on_c, 0, 70, 111
1, 80312, Note_off_c, 0, 70, 111
1, 80313, Note_on_c, 0, 69, 116
1, 80403, Note_off_c, 0, 69, 116
1, 80406, Note_on_c, 0, 68, 114
1, 80509, Note_off_c, 0, 68, 114
1, 80514, Note_on_c, 0, 67, 113
1, 80595, Note_off_c, 0, 67, 113
1, 80596, Note_on_c, 0, 71, 113
1, 80680, Note_on_c, 0, 70, 115
1, 80680, Note_off_c, 0, 71, 113
1, 80779, Note_off_c, 0, 70, 115
1, 80787, Note_on_c, 0, 66, 115
1, 80870, Note_off_c, 0, 66, 115
1, 80871, Note_on_c, 0, 65, 116
1, 80944, Note_on_c, 0, 64, 120
1, 80944, Note_off_c, 0, 65, 116
1, 81026, Note_off_c, 0, 64, 120
1, 81029, Note_on_c, 0, 63, 119
1, 81127, Note_off_c, 0, 63, 119
1, 81142, Note_on_c, 0, 65, 111
1, 81230, Note_off_c, 0, 65, 111
1, 81310, Note_on_c, 0, 71, 81
1, 81359, Note_off_c, 0, 71, 81
1, 81420, Note_on_c, 0, 75, 114
1, 81527, Note_off_c, 0, 75, 114
1, 81534, Note_on_c, 0, 76, 112
1, 81629, Note_off_c, 0, 76, 112
1, 81636, Note_on_c, 0, 77, 111
1, 81717, Note_off_c, 0, 77, 111
1, 81726, Note_on_c, 0, 76, 118
1, 81810, Note_off_c, 0, 76, 118
1, 81812, Note_on_c, 0, 75, 113
1, 81891, Note_off_c, 0, 75, 113
1, 81924, Note_on_c, 0, 73, 108
1, 81989, Note_off_c, 0, 73, 108
1, 81996, Note_on_c, 0, 72, 105
1, 82080, Note_off_c, 0, 72, 105
1, 82106, Note_on_c, 0, 71, 100
1, 82189, Note_off_c, 0, 71, 100
1, 82194, Note_on_c, 0, 69, 106
1, 82264, Note_off_c, 0, 69, 106
1, 82287, Note_on_c, 0, 69, 105
1, 82377, Note_off_c, 0, 69, 105
1, 82384, Note_on_c, 0, 68, 113
1, 82451, Note_off_c, 0, 68, 113
1, 82491, Note_on_c, 0, 66, 105
1, 82552, Note_off_c, 0, 66, 105
1, 82552, Note_on_c, 0, 67, 108
1, 82658, Note_off_c, 0, 67, 108
1, 82666, Note_on_c, 0, 65, 111
1, 82739, Note_on_c, 0, 66, 111
1, 82739, Note_off_c, 0, 65, 111
1, 82848, Note_off_c, 0, 66, 111
1, 82857, Note_on_c, 0, 64, 103
1, 82911, Note_off_c, 0, 64, 103
1, 82918, Note_on_c, 0, 65, 111
1, 83008, Note_off_c, 0, 65, 111
1, 83017, Note_on_c, 0, 64, 115
1, 83094, Note_off_c, 0, 64, 115
1, 83096, Note_on_c, 0, 63, 114
1, 83177, Note_off_c, 0, 63, 114
1, 83182, Note_on_c, 0, 67, 109
1, 83281, Note_off_c, 0, 67, 109
1, 83281, Note_on_c, 0, 64, 113
1, 83379, Note_off_c, 0, 64, 113
1, 83384, Note_on_c, 0, 62, 117
1, 83483, Note_off_c, 0, 62, 117
1, 83486, Note_on_c, 0, 58, 103
1, 83573, Note_off_c, 0, 58, 103
1, 83590, Note_on_c, 0, 55, 99
1, 83663, Note_off_c, 0, 55, 99
1, 83666, Note_on_c, 0, 60, 112
1, 83841, Note_off_c, 0, 60, 112
1, 83841, Note_on_c, 0, 62, 105
1, 83975, Note_off_c, 0, 62, 105
1, 84578, Note_on_c, 0, 55, 119
1, 84649, Note_off_c, 0, 55, 119
1, 84649, Note_on_c, 0, 57, 113
1, 84696, Note_off_c, 0, 57, 113
1, 84696, Note_on_c, 0, 58, 115
1, 84758, Note_off_c, 0, 58, 115
1, 84758, Note_on_c, 0, 60, 117
1, 84800, Note_off_c, 0, 60, 117
1, 84800, Note_on_c, 0, 62, 122
1, 84875, Note_off_c, 0, 62, 122
1, 84885, Note_on_c, 0, 64, 122
1, 84933, Note_off_c, 0, 64, 122
1, 84933, Note_on_c, 0, 65, 118
1, 85001, Note_off_c, 0, 65, 118
1, 85007, Note_on_c, 0, 69, 117
1, 85072, Note_off_c, 0, 69, 117
1, 85081, Note_on_c, 0, 70, 114
1, 85162, Note_off_c, 0, 70, 114
1, 85163, Note_on_c, 0, 72, 114
1, 86013, Note_off_c, 0, 72, 114
1, 86021, Note_on_c, 0, 69, 109
1, 86041, Note_on_c, 0, 64, 116
1, 86041, Note_off_c, 0, 69, 109
1, 86091, Note_off_c, 0, 64, 116
1, 86093, Note_on_c, 0, 62, 116
1, 86155, Note_off_c, 0, 62, 116
1, 86156, Note_on_c, 0, 60, 112
1, 86196, Note_off_c, 0, 60, 112
1, 86196, Note_on_c, 0, 62, 115
1, 86260, Note_off_c, 0, 62, 115
1, 86263, Note_on_c, 0, 64, 119
1, 86339, Note_off_c, 0, 64, 119
1, 86340, Note_on_c, 0, 69, 113
1, 86392, Note_off_c, 0, 69, 113
1, 86392, Note_on_c, 0, 72, 114
1, 86620, Note_off_c, 0, 72, 114
1, 86624, Note_on_c, 0, 70, 110
1, 86689, Note_off_c, 0, 70, 110
1, 86689, Note_on_c, 0, 72, 113
1, 86987, Note_off_c, 0, 72, 113
1, 86988, Note_on_c, 0, 69, 112
1, 87051, Note_off_c, 0, 69, 112
1, 87052, Note_on_c, 0, 68, 114
1, 87092, Note_off_c, 0, 68, 114
1, 87095, Note_on_c, 0, 65, 115
1, 87144, Note_off_c, 0, 65, 115
1, 87146, Note_on_c, 0, 62, 117
1, 87291, Note_off_c, 0, 62, 117
1, 87911, Note_on_c, 0, 47, 117
1, 87965, Note_off_c, 0, 47, 117
1, 87965, Note_on_c, 0, 50, 116
1, 88016, Note_off_c, 0, 50, 116
1, 88021, Note_on_c, 0, 52, 112
1, 88060, Note_off_c, 0, 52, 112
1, 88062, Note_on_c, 0, 56, 113
1, 88130, Note_off_c, 0, 56, 113
1, 88134, Note_on_c, 0, 58, 119
1, 88167, Note_off_c, 0, 58, 119
1, 88171, Note_on_c, 0, 61, 119
1, 88215, Note_off_c, 0, 61, 119
1, 88218, Note_on_c, 0, 63, 121
1, 88264, Note_off_c, 0, 63, 121
1, 88267, Note_on_c, 0, 65, 119
1, 88323, Note_off_c, 0, 65, 119
1, 88323, Note_on_c, 0, 67, 114
1, 88375, Note_off_c, 0, 67, 114
1, 88383, Note_on_c, 0, 70, 108
1, 88436, Note_off_c, 0, 70, 108
1, 88466, Note_on_c, 0, 75, 116
1, 88526, Note_off_c, 0, 75, 116
1, 88532, Note_on_c, 0, 79, 122
1, 88573, Note_off_c, 0, 79, 122
1, 88576, Note_on_c, 0, 80, 121
1, 88624, Note_off_c, 0, 80, 121
1, 88624, Note_on_c, 0, 79, 114
1, 88897, Note_off_c, 0, 79, 114
1, 88900, Note_on_c, 0, 75, 117
1, 88986, Note_off_c, 0, 75, 117
1, 89004, Note_on_c, 0, 70, 116
1, 89138, Note_off_c, 0, 70, 116
1, 89157, Note_on_c, 0, 67, 114
1, 89248, Note_off_c, 0, 67, 114
1, 89252, Note_on_c, 0, 63, 121
1, 89401, Note_off_c, 0, 63, 121
1, 89783, Note_on_c, 0, 44, 120
1, 89962, Note_off_c, 0, 44, 120
1, 89985, Note_on_c, 0, 51, 116
1, 90069, Note_off_c, 0, 51, 116
1, 90076, Note_on_c, 0, 49, 118
1, 90177, Note_off_c, 0, 49, 118
1, 90199, Note_on_c, 0, 51, 115
1, 90247, Note_off_c, 0, 51, 115
1, 90271, Note_on_c, 0, 54, 111
1, 90335, Note_off_c, 0, 54, 111
1, 90369, Note_on_c, 0, 55, 110
1, 90414, Note_off_c, 0, 55, 110
1, 90424, Note_on_c, 0, 58, 109
1, 90476, Note_off_c, 0, 58, 109
1, 90477, Note_on_c, 0, 60, 118
1, 90535, Note_off_c, 0, 60, 118
1, 90543, Note_on_c, 0, 63, 119
1, 90593, Note_off_c, 0, 63, 119
1, 90593, Note_on_c, 0, 65, 115
1, 90647, Note_off_c, 0, 65, 115
1, 90651, Note_on_c, 0, 67, 109
1, 90689, Note_off_c, 0, 67, 109
1, 90689, Note_on_c, 0, 70, 108
1, 90732, Note_off_c, 0, 70, 108
1, 90747, Note_on_c, 0, 72, 109
1, 90824, Note_off_c, 0, 72, 109
1, 90824, Note_on_c, 0, 75, 119
1, 90902, Note_off_c, 0, 75, 119
1, 90902, Note_on_c, 0, 76, 106
1, 90941, Note_off_c, 0, 76, 106
1, 90946, Note_on_c, 0, 77, 107
1, 91455, Note_off_c, 0, 77, 107
1, 91565, Note_on_c, 0, 74, 107
1, 91623, Note_off_c, 0, 74, 107
1, 91623, Note_on_c, 0, 72, 107
1, 91662, Note_off_c, 0, 72, 107
1, 91669, Note_on_c, 0, 70, 115
1, 91734, Note_off_c, 0, 70, 115
1, 91753, Note_on_c, 0, 69, 119
1, 91843, Note_off_c, 0, 69, 119
1, 91846, Note_on_c, 0, 67, 122
1, 91929, Note_off_c, 0, 67, 122
1, 91940, Note_on_c, 0, 65, 118
1, 92031, Note_off_c, 0, 65, 118
1, 92031, Note_on_c, 0, 64, 122
1, 92105, Note_off_c, 0, 64, 122
1, 92107, Note_on_c, 0, 62, 119
1, 92467, Note_off_c, 0, 62, 119
1, 92599, Note_on_c, 0, 60, 117
1, 92684, Note_off_c, 0, 60, 117
1, 92707, Note_on_c, 0, 58, 109
1, 92784, Note_off_c, 0, 58, 109
1, 92784, Note_on_c, 0, 57, 116
1, 92893, Note_off_c, 0, 57, 116
1, 92897, Note_on_c, 0, 55, 10
1, 93119, Note_off_c, 0, 55, 10
1, 93347, Note_on_c, 0, 53, 117
1, 93423, Note_off_c, 0, 53, 117
1, 93423, Note_on_c, 0, 52, 113
1, 93544, Note_off_c, 0, 52, 113
1, 93544, Note_on_c, 0, 50, 123
1, 93605, Note_on_c, 0, 48, 109
1, 93605, Note_off_c, 0, 50, 123
1, 93972, Note_off_c, 0, 48, 109
1, 94000, Note_on_c, 0, 50, 108
1, 94108, Note_off_c, 0, 50, 108
1, 94118, Note_on_c, 0, 52, 112
1, 94223, Note_off_c, 0, 52, 112
1, 94223, Note_on_c, 0, 50, 97
1, 95199, Note_off_c, 0, 50, 97
1, 95199, End_track
0, 0, End_of_file
