0, 0, Header, 1, 1, 192
1, 0, Start_track
1, 0, Title_t, "Melody"
1, 0, Tempo, 521739
1, 0, Key_signature, -2, "major"
1, 0, Time_signature, 4, 2, 24, 8
1, 585, Note_on_c, 0, 71, 117
1, 617, Note_off_c, 0, 71, 117
1, 620, Note_on_c, 0, 72, 112
1, 872, Note_off_c, 0, 72, 112
1, 978, Note_on_c, 0, 72, 116
1, 1102, Note_off_c, 0, 72, 116
1, 1115, Note_on_c, 0, 72, 118
1, 1157, Note_off_c, 0, 72, 118
1, 1964, Note_on_c, 0, 73, 119
1, 1978, Note_off_c, 0, 73, 119
1, 1983, Note_on_c, 0, 75, 124
1, 2280, Note_off_c, 0, 75, 124
1, 2291, Note_on_c, 0, 72, 110
1, 2351, Note_off_c, 0, 72, 110
1, 2542, Note_on_c, 0, 72, 109
1, 2801, Note_off_c, 0, 72, 109
1, 2873, Note_on_c, 0, 65, 102
1, 2951, Note_off_c, 0, 65, 102
1, 2955, Note_on_c, 0, 67, 97
1, 3020, Note_off_c, 0, 67, 97
1, 3117, Note_on_c, 0, 67, 93
1, 3276, Note_off_c, 0, 67, 93
1, 3906, Note_on_c, 0, 73, 107
1, 4019, Note_off_c, 0, 73, 107
1, 4101, Note_on_c, 0, 70, 109
1, 4358, Note_off_c, 0, 70, 109
1, 4505, Note_on_c, 0, 74, 123
1, 4521, Note_off_c, 0, 74, 123
1, 4525, Note_on_c, 0, 75, 127
1, 4691, Note_off_c, 0, 75, 127
1, 4701, Note_on_c, 0, 73, 108
1, 4786, Note_off_c, 0, 73, 108
1, 4839, Note_on_c, 0, 70, 106
1, 5015, Note_off_c, 0, 70, 106
1, 5071, Note_on_c, 0, 70, 110
1, 5192, Note_off_c, 0, 70, 110
1, 5205, Note_on_c, 0, 70, 109
1, 5417, Note_off_c, 0, 70, 109
1, 5421, Note_on_c, 0, 65, 91
1, 5443, Note_off_c, 0, 65, 91
1, 5462, Note_on_c, 0, 68, 109
1, 5578, Note_off_c, 0, 68, 109
1, 5661, Note_on_c, 0, 65, 88
1, 5827, Note_off_c, 0, 65, 88
1, 6836, Note_on_c, 0, 74, 111
1, 6862, Note_off_c, 0, 74, 111
1, 6871, Note_on_c, 0, 73, 107
1, 6901, Note_off_c, 0, 73, 107
1, 6907, Note_on_c, 0, 74, 108
1, 6983, Note_off_c, 0, 74, 108
1, 7035, Note_on_c, 0, 71, 104
1, 7058, Note_off_c, 0, 71, 104
1, 7062, Note_on_c, 0, 73, 110
1, 7080, Note_off_c, 0, 73, 110
1, 7086, Note_on_c, 0, 74, 111
1, 7162, Note_off_c, 0, 74, 111
1, 7206, Note_on_c, 0, 71, 104
1, 7226, Note_off_c, 0, 71, 104
1, 7226, Note_on_c, 0, 73, 111
1, 7249, Note_off_c, 0, 73, 111
1, 7252, Note_on_c, 0, 74, 110
1, 7275, Note_off_c, 0, 74, 110
1, 7284, Note_on_c, 0, 74, 115
1, 7350, Note_off_c, 0, 74, 115
1, 7394, Note_on_c, 0, 74, 108
1, 7412, Note_off_c, 0, 74, 108
1, 7414, Note_on_c, 0, 73, 113
1, 7432, Note_off_c, 0, 73, 113
1, 7438, Note_on_c, 0, 74, 117
1, 7458, Note_off_c, 0, 74, 117
1, 7470, Note_on_c, 0, 74, 119
1, 7515, Note_off_c, 0, 74, 119
1, 7587, Note_on_c, 0, 74, 111
1, 7601, Note_off_c, 0, 74, 111
1, 7605, Note_on_c, 0, 73, 109
1, 7619, Note_off_c, 0, 73, 109
1, 7624, Note_on_c, 0, 74, 114
1, 7642, Note_off_c, 0, 74, 114
1, 7655, Note_on_c, 0, 74, 119
1, 7698, Note_off_c, 0, 74, 119
1, 7754, Note_on_c, 0, 71, 105
1, 7787, Note_off_c, 0, 71, 105
1, 7792, Note_on_c, 0, 73, 111
1, 7806, Note_off_c, 0, 73, 111
1, 7812, Note_on_c, 0, 74, 114
1, 7829, Note_off_c, 0, 74, 114
1, 7845, Note_on_c, 0, 74, 114
1, 7895, Note_off_c, 0, 74, 114
1, 7949, Note_on_c, 0, 74, 110
1, 7966, Note_off_c, 0, 74, 110
1, 7968, Note_on_c, 0, 73, 110
1, 7992, Note_off_c, 0, 73, 110
1, 7999, Note_on_c, 0, 74, 114
1, 8010, Note_off_c, 0, 74, 114
1, 8028, Note_on_c, 0, 74, 116
1, 8071, Note_off_c, 0, 74, 116
1, 8132, Note_on_c, 0, 74, 113
1, 8156, Note_off_c, 0, 74, 113
1, 8161, Note_on_c, 0, 73, 109
1, 8177, Note_off_c, 0, 73, 109
1, 8181, Note_on_c, 0, 74, 115
1, 8199, Note_off_c, 0, 74, 115
1, 8212, Note_on_c, 0, 74, 119
1, 8272, Note_off_c, 0, 74, 119
1, 8319, Note_on_c, 0, 70, 116
1, 8400, Note_off_c, 0, 70, 116
1, 8460, Note_on_c, 0, 67, 111
1, 8483, Note_off_c, 0, 67, 111
1, 8486, Note_on_c, 0, 68, 110
1, 8531, Note_off_c, 0, 68, 110
1, 8561, Note_on_c, 0, 65, 107
1, 8651, Note_off_c, 0, 65, 107
1, 8708, Note_on_c, 0, 65, 99
1, 8843, Note_off_c, 0, 65, 99
1, 9404, Note_on_c, 0, 66, 70
1, 9413, Note_off_c, 0, 66, 70
1, 9444, Note_on_c, 0, 70, 105
1, 9552, Note_off_c, 0, 70, 105
1, 9627, Note_on_c, 0, 70, 106
1, 9764, Note_off_c, 0, 70, 106
1, 9778, Note_on_c, 0, 70, 98
1, 9999, Note_off_c, 0, 70, 98
1, 10796, Note_on_c, 0, 73, 118
1, 10825, Note_off_c, 0, 73, 118
1, 10831, Note_on_c, 0, 74, 107
1, 10960, Note_off_c, 0, 74, 107
1, 10987, Note_on_c, 0, 70, 106
1, 11128, Note_off_c, 0, 70, 106
1, 11140, Note_on_c, 0, 65, 104
1, 11179, Note_off_c, 0, 65, 104
1, 11182, Note_on_c, 0, 69, 112
1, 11311, Note_off_c, 0, 69, 112
1, 11313, Note_on_c, 0, 68, 103
1, 11377, Note_off_c, 0, 68, 103
1, 12545, Note_on_c, 0, 74, 117
1, 12603, Note_off_c, 0, 74, 117
1, 12607, Note_on_c, 0, 75, 126
1, 12701, Note_off_c, 0, 75, 126
1, 12715, Note_on_c, 0, 73, 113
1, 12764, Note_off_c, 0, 73, 113
1, 12823, Note_on_c, 0, 70, 109
1, 12889, Note_off_c, 0, 70, 109
1, 12938, Note_on_c, 0, 65, 92
1, 13212, Note_off_c, 0, 65, 92
1, 13230, Note_on_c, 0, 65, 103
1, 13305, Note_off_c, 0, 65, 103
1, 14081, Note_on_c, 0, 62, 106
1, 14100, Note_off_c, 0, 62, 106
1, 14102, Note_on_c, 0, 63, 109
1, 14544, Note_off_c, 0, 63, 109
1, 14568, Note_on_c, 0, 61, 100
1, 14614, Note_off_c, 0, 61, 100
1, 14648, Note_on_c, 0, 63, 112
1, 14679, Note_off_c, 0, 63, 112
1, 14683, Note_on_c, 0, 65, 105
1, 15012, Note_off_c, 0, 65, 105
1, 15030, Note_on_c, 0, 70, 124
1, 15141, Note_off_c, 0, 70, 124
1, 15756, Note_on_c, 0, 74, 117
1, 15882, Note_off_c, 0, 74, 117
1, 15883, Note_on_c, 0, 74, 124
1, 16081, Note_off_c, 0, 74, 124
1, 16084, Note_on_c, 0, 72, 113
1, 16136, Note_off_c, 0, 72, 113
1, 16924, Note_on_c, 0, 74, 101
1, 17099, Note_off_c, 0, 74, 101
1, 17106, Note_on_c, 0, 74, 117
1, 17379, Note_off_c, 0, 74, 117
1, 17434, Note_on_c, 0, 72, 108
1, 17516, Note_off_c, 0, 72, 108
1, 17558, Note_on_c, 0, 70, 111
1, 17657, Note_off_c, 0, 70, 111
1, 17720, Note_on_c, 0, 67, 102
1, 17759, Note_off_c, 0, 67, 102
1, 17761, Note_on_c, 0, 68, 98
1, 17858, Note_off_c, 0, 68, 98
1, 17893, Note_on_c, 0, 65, 94
1, 18055, Note_off_c, 0, 65, 94
1, 18810, Note_on_c, 0, 66, 107
1, 18854, Note_off_c, 0, 66, 107
1, 18863, Note_on_c, 0, 67, 96
1, 18970, Note_off_c, 0, 67, 96
1, 18979, Note_on_c, 0, 66, 92
1, 19014, Note_off_c, 0, 66, 92
1, 19026, Note_on_c, 0, 67, 102
1, 19148, Note_off_c, 0, 67, 102
1, 19154, Note_on_c, 0, 66, 90
1, 19190, Note_off_c, 0, 66, 90
1, 19199, Note_on_c, 0, 67, 103
1, 19335, Note_off_c, 0, 67, 103
1, 19342, Note_on_c, 0, 66, 89
1, 19390, Note_off_c, 0, 66, 89
1, 19401, Note_on_c, 0, 67, 99
1, 19515, Note_off_c, 0, 67, 99
1, 19559, Note_on_c, 0, 70, 114
1, 19627, Note_off_c, 0, 70, 114
1, 20229, Note_on_c, 0, 63, 99
1, 20270, Note_off_c, 0, 63, 99
1, 20271, Note_on_c, 0, 67, 102
1, 20506, Note_off_c, 0, 67, 102
1, 20517, Note_on_c, 0, 66, 104
1, 20565, Note_off_c, 0, 66, 104
1, 20580, Note_on_c, 0, 67, 106
1, 20696, Note_off_c, 0, 67, 106
1, 20711, Note_on_c, 0, 66, 96
1, 20744, Note_off_c, 0, 66, 96
1, 20758, Note_on_c, 0, 67, 104
1, 20876, Note_off_c, 0, 67, 104
1, 20891, Note_on_c, 0, 66, 99
1, 20928, Note_off_c, 0, 66, 99
1, 20933, Note_on_c, 0, 67, 102
1, 21055, Note_off_c, 0, 67, 102
1, 21080, Note_on_c, 0, 70, 116
1, 21144, Note_off_c, 0, 70, 116
1, 22286, Note_on_c, 0, 71, 119
1, 22313, Note_off_c, 0, 71, 119
1, 22320, Note_on_c, 0, 72, 107
1, 23018, Note_off_c, 0, 72, 107
1, 23063, Note_on_c, 0, 73, 110
1, 23144, Note_off_c, 0, 73, 110
1, 23169, Note_on_c, 0, 70, 112
1, 23223, Note_off_c, 0, 70, 112
1, 23282, Note_on_c, 0, 65, 100
1, 23413, Note_off_c, 0, 65, 100
1, 23422, Note_on_c, 0, 65, 103
1, 23545, Note_off_c, 0, 65, 103
1, 23553, Note_on_c, 0, 65, 104
1, 23768, Note_off_c, 0, 65, 104
1, 23780, Note_on_c, 0, 69, 117
1, 23818, Note_off_c, 0, 69, 117
1, 23829, Note_on_c, 0, 70, 114
1, 23901, Note_off_c, 0, 70, 114
1, 25356, Note_on_c, 0, 73, 105
1, 25458, Note_off_c, 0, 73, 105
1, 25922, Note_on_c, 0, 70, 122
1, 26010, Note_off_c, 0, 70, 122
1, 26108, Note_on_c, 0, 67, 106
1, 26175, Note_off_c, 0, 67, 106
1, 26177, Note_on_c, 0, 68, 102
1, 26280, Note_off_c, 0, 68, 102
1, 26298, Note_on_c, 0, 65, 98
1, 26466, Note_off_c, 0, 65, 98
1, 26477, Note_on_c, 0, 69, 105
1, 26606, Note_off_c, 0, 69, 105
1, 26616, Note_on_c, 0, 68, 107
1, 27069, Note_off_c, 0, 68, 107
1, 27071, Note_on_c, 0, 68, 111
1, 27159, Note_off_c, 0, 68, 111
1, 27765, Note_on_c, 0, 65, 90
1, 27831, Note_off_c, 0, 65, 90
1, 27851, Note_on_c, 0, 70, 103
1, 27939, Note_off_c, 0, 70, 103
1, 27991, Note_on_c, 0, 70, 101
1, 28121, Note_off_c, 0, 70, 101
1, 28138, Note_on_c, 0, 70, 97
1, 28554, Note_off_c, 0, 70, 97
1, 28565, Note_on_c, 0, 70, 106
1, 28762, Note_off_c, 0, 70, 106
1, 28772, Note_on_c, 0, 70, 104
1, 29145, Note_off_c, 0, 70, 104
1, 29159, Note_on_c, 0, 70, 106
1, 29529, Note_off_c, 0, 70, 106
1, 29551, Note_on_c, 0, 70, 103
1, 29657, Note_off_c, 0, 70, 103
1, 29676, Note_on_c, 0, 70, 98
1, 29912, Note_off_c, 0, 70, 98
1, 29921, Note_on_c, 0, 70, 108
1, 30061, Note_off_c, 0, 70, 108
1, 31288, Note_on_c, 0, 63, 93
1, 31323, Note_off_c, 0, 63, 93
1, 31384, Note_on_c, 0, 70, 122
1, 31448, Note_off_c, 0, 70, 122
1, 31493, Note_on_c, 0, 70, 116
1, 31588, Note_off_c, 0, 70, 116
1, 31645, Note_on_c, 0, 70, 120
1, 31763, Note_off_c, 0, 70, 120
1, 31825, Note_on_c, 0, 70, 118
1, 31950, Note_off_c, 0, 70, 118
1, 32035, Note_on_c, 0, 70, 116
1, 32183, Note_off_c, 0, 70, 116
1, 32331, Note_on_c, 0, 70, 118
1, 32408, Note_off_c, 0, 70, 118
1, 32474, Note_on_c, 0, 70, 120
1, 32559, Note_off_c, 0, 70, 120
1, 32638, Note_on_c, 0, 70, 121
1, 32719, Note_off_c, 0, 70, 121
1, 32819, Note_on_c, 0, 70, 122
1, 32852, Note_off_c, 0, 70, 122
1, 32858, Note_on_c, 0, 69, 105
1, 33117, Note_off_c, 0, 69, 105
1, 33181, Note_on_c, 0, 65, 96
1, 33359, Note_off_c, 0, 65, 96
1, 33868, Note_on_c, 0, 65, 116
1, 33916, Note_off_c, 0, 65, 116
1, 33934, Note_on_c, 0, 68, 115
1, 34099, Note_off_c, 0, 68, 115
1, 34114, Note_on_c, 0, 67, 105
1, 34299, Note_off_c, 0, 67, 105
1, 34310, Note_on_c, 0, 66, 104
1, 34653, Note_off_c, 0, 66, 104
1, 35284, Note_on_c, 0, 67, 99
1, 35296, Note_off_c, 0, 67, 99
1, 35305, Note_on_c, 0, 68, 117
1, 35606, Note_off_c, 0, 68, 117
1, 35656, Note_on_c, 0, 64, 95
1, 35755, Note_off_c, 0, 64, 95
1, 35771, Note_on_c, 0, 63, 102
1, 36538, Note_off_c, 0, 63, 102
1, 37004, Note_on_c, 0, 64, 106
1, 37021, Note_off_c, 0, 64, 106
1, 37027, Note_on_c, 0, 65, 101
1, 37147, Note_off_c, 0, 65, 101
1, 37156, Note_on_c, 0, 63, 102
1, 37294, Note_off_c, 0, 63, 102
1, 37294, End_track
0, 0, End_of_file
