0, 0, Header, 1, 1, 192
1, 0, Start_track
1, 0, Title_t, "Melody"
1, 0, Tempo, 224719
1, 0, Key_signature, -2, "major"
1, 0, Time_signature, 4, 2, 24, 8
1, 2078, Note_on_c, 0, 74, 102
1, 2162, Note_off_c, 0, 74, 102
1, 2179, Note_on_c, 0, 72, 102
1, 2258, Note_off_c, 0, 72, 102
1, 2359, Note_on_c, 0, 74, 112
1, 2532, Note_off_c, 0, 74, 112
1, 2571, Note_on_c, 0, 72, 107
1, 3076, Note_off_c, 0, 72, 107
1, 3795, Note_on_c, 0, 65, 113
1, 3859, Note_off_c, 0, 65, 113
1, 3974, Note_on_c, 0, 67, 106
1, 4069, Note_off_c, 0, 67, 106
1, 4096, Note_on_c, 0, 70, 114
1, 4210, Note_off_c, 0, 70, 114
1, 4269, Note_on_c, 0, 72, 105
1, 4407, Note_off_c, 0, 72, 105
1, 4501, Note_on_c, 0, 70, 109
1, 4739, Note_off_c, 0, 70, 109
1, 4877, Note_on_c, 0, 70, 107
1, 5030, Note_off_c, 0, 70, 107
1, 5087, Note_on_c, 0, 72, 97
1, 5146, Note_off_c, 0, 72, 97
1, 5158, Note_on_c, 0, 70, 101
1, 5237, Note_off_c, 0, 70, 101
1, 5346, Note_on_c, 0, 70, 95
1, 5688, Note_off_c, 0, 70, 95
1, 6803, Note_on_c, 0, 73, 100
1, 6872, Note_off_c, 0, 73, 100
1, 6901, Note_on_c, 0, 74, 102
1, 7000, Note_off_c, 0, 74, 102
1, 7019, Note_on_c, 0, 73, 103
1, 7063, Note_off_c, 0, 73, 103
1, 7087, Note_on_c, 0, 74, 107
1, 7389, Note_off_c, 0, 74, 107
1, 7408, Note_on_c, 0, 73, 106
1, 7477, Note_off_c, 0, 73, 106
1, 7491, Note_on_c, 0, 74, 108
1, 7719, Note_off_c, 0, 74, 108
1, 7748, Note_on_c, 0, 73, 100
1, 7842, Note_off_c, 0, 73, 100
1, 7846, Note_on_c, 0, 74, 106
1, 8024, Note_off_c, 0, 74, 106
1, 8033, Note_on_c, 0, 72, 99
1, 8142, Note_off_c, 0, 72, 99
1, 8171, Note_on_c, 0, 70, 90
1, 8285, Note_off_c, 0, 70, 90
1, 8354, Note_on_c, 0, 65, 105
1, 8443, Note_off_c, 0, 65, 105
1, 8452, Note_on_c, 0, 62, 106
1, 8551, Note_off_c, 0, 62, 106
1, 8553, Note_on_c, 0, 63, 105
1, 8612, Note_off_c, 0, 63, 105
1, 8626, Note_on_c, 0, 65, 99
1, 9050, Note_off_c, 0, 65, 99
1, 9301, Note_on_c, 0, 62, 113
1, 9365, Note_off_c, 0, 62, 113
1, 9376, Note_on_c, 0, 63, 116
1, 9499, Note_off_c, 0, 63, 116
1, 9514, Note_on_c, 0, 67, 106
1, 9559, Note_off_c, 0, 67, 106
1, 9564, Note_on_c, 0, 70, 113
1, 9652, Note_off_c, 0, 70, 113
1, 9669, Note_on_c, 0, 73, 113
1, 9740, Note_off_c, 0, 73, 113
1, 9753, Note_on_c, 0, 74, 107
1, 9842, Note_off_c, 0, 74, 107
1, 9861, Note_on_c, 0, 73, 100
1, 9950, Note_off_c, 0, 73, 100
1, 9950, Note_on_c, 0, 74, 96
1, 10083, Note_off_c, 0, 74, 96
1, 10147, Note_on_c, 0, 70, 103
1, 10295, Note_off_c, 0, 70, 103
1, 10343, Note_on_c, 0, 70, 107
1, 10610, Note_off_c, 0, 70, 107
1, 10903, Note_on_c, 0, 68, 119
1, 10992, Note_off_c, 0, 68, 119
1, 11036, Note_on_c, 0, 66, 120
1, 11095, Note_off_c, 0, 66, 120
1, 11099, Note_on_c, 0, 68, 118
1, 11168, Note_off_c, 0, 68, 118
1, 11179, Note_on_c, 0, 65, 114
1, 11307, Note_off_c, 0, 65, 114
1, 11391, Note_on_c, 0, 63, 115
1, 11505, Note_off_c, 0, 63, 115
1, 11594, Note_on_c, 0, 52, 106
1, 11663, Note_off_c, 0, 52, 106
1, 11679, Note_on_c, 0, 62, 122
1, 11794, Note_off_c, 0, 62, 122
1, 12414, Note_on_c, 0, 61, 116
1, 12463, Note_off_c, 0, 61, 116
1, 12470, Note_on_c, 0, 63, 122
1, 12512, Note_off_c, 0, 63, 122
1, 12535, Note_on_c, 0, 64, 127
1, 12572, Note_off_c, 0, 64, 127
1, 12585, Note_on_c, 0, 65, 125
1, 12656, Note_off_c, 0, 65, 125
1, 12663, Note_on_c, 0, 67, 120
1, 12717, Note_off_c, 0, 67, 120
1, 12729, Note_on_c, 0, 68, 108
1, 12778, Note_off_c, 0, 68, 108
1, 12810, Note_on_c, 0, 69, 107
1, 12859, Note_off_c, 0, 69, 107
1, 12873, Note_on_c, 0, 70, 113
1, 12939, Note_off_c, 0, 70, 113
1, 12958, Note_on_c, 0, 71, 112
1, 13012, Note_off_c, 0, 71, 112
1, 13034, Note_on_c, 0, 72, 111
1, 13083, Note_off_c, 0, 72, 111
1, 13104, Note_on_c, 0, 73, 116
1, 13156, Note_off_c, 0, 73, 116
1, 13173, Note_on_c, 0, 74, 115
1, 13242, Note_off_c, 0, 74, 115
1, 13370, Note_on_c, 0, 76, 113
1, 13558, Note_off_c, 0, 76, 113
1, 13575, Note_on_c, 0, 74, 113
1, 13748, Note_off_c, 0, 74, 113
1, 13844, Note_on_c, 0, 76, 112
1, 13920, Note_off_c, 0, 76, 112
1, 13934, Note_on_c, 0, 74, 99
1, 13993, Note_off_c, 0, 74, 99
1, 14054, Note_on_c, 0, 72, 112
1, 14108, Note_off_c, 0, 72, 112
1, 14120, Note_on_c, 0, 71, 110
1, 14201, Note_off_c, 0, 71, 110
1, 14235, Note_on_c, 0, 69, 109
1, 14309, Note_off_c, 0, 69, 109
1, 14351, Note_on_c, 0, 67, 104
1, 14452, Note_off_c, 0, 67, 104
1, 14511, Note_on_c, 0, 67, 108
1, 14592, Note_off_c, 0, 67, 108
1, 14711, Note_on_c, 0, 67, 100
1, 14882, Note_off_c, 0, 67, 100
1, 15961, Note_on_c, 0, 64, 95
1, 16045, Note_off_c, 0, 64, 95
1, 16071, Note_on_c, 0, 70, 102
1, 16142, Note_off_c, 0, 70, 102
1, 16176, Note_on_c, 0, 72, 104
1, 16257, Note_off_c, 0, 72, 104
1, 16279, Note_on_c, 0, 74, 111
1, 16338, Note_off_c, 0, 74, 111
1, 16362, Note_on_c, 0, 74, 116
1, 16443, Note_off_c, 0, 74, 116
1, 16450, Note_on_c, 0, 72, 104
1, 16526, Note_off_c, 0, 72, 104
1, 16657, Note_on_c, 0, 74, 103
1, 16696, Note_off_c, 0, 74, 103
1, 16735, Note_on_c, 0, 74, 109
1, 16811, Note_off_c, 0, 74, 109
1, 16835, Note_on_c, 0, 72, 90
1, 16894, Note_off_c, 0, 72, 90
1, 17015, Note_on_c, 0, 74, 92
1, 17104, Note_off_c, 0, 74, 92
1, 17133, Note_on_c, 0, 74, 103
1, 17204, Note_off_c, 0, 74, 103
1, 17213, Note_on_c, 0, 72, 95
1, 17287, Note_off_c, 0, 72, 95
1, 17443, Note_on_c, 0, 74, 99
1, 17586, Note_off_c, 0, 74, 99
1, 17623, Note_on_c, 0, 72, 91
1, 17697, Note_off_c, 0, 72, 91
1, 17811, Note_on_c, 0, 74, 100
1, 17868, Note_off_c, 0, 74, 100
1, 17915, Note_on_c, 0, 74, 101
1, 17981, Note_off_c, 0, 74, 101
1, 18008, Note_on_c, 0, 72, 98
1, 18062, Note_off_c, 0, 72, 98
1, 18226, Note_on_c, 0, 74, 103
1, 18283, Note_off_c, 0, 74, 103
1, 18336, Note_on_c, 0, 74, 102
1, 18378, Note_off_c, 0, 74, 102
1, 18405, Note_on_c, 0, 72, 100
1, 18459, Note_off_c, 0, 72, 100
1, 18587, Note_on_c, 0, 74, 99
1, 18621, Note_off_c, 0, 74, 99
1, 18663, Note_on_c, 0, 74, 103
1, 18772, Note_off_c, 0, 74, 103
1, 18774, Note_on_c, 0, 72, 95
1, 18848, Note_off_c, 0, 72, 95
1, 18986, Note_on_c, 0, 74, 100
1, 19052, Note_off_c, 0, 74, 100
1, 19079, Note_on_c, 0, 74, 102
1, 19148, Note_off_c, 0, 74, 102
1, 19165, Note_on_c, 0, 72, 98
1, 19231, Note_off_c, 0, 72, 98
1, 19367, Note_on_c, 0, 74, 104
1, 19419, Note_off_c, 0, 74, 104
1, 19446, Note_on_c, 0, 74, 103
1, 19560, Note_off_c, 0, 74, 103
1, 19567, Note_on_c, 0, 72, 98
1, 19621, Note_off_c, 0, 72, 98
1, 19747, Note_on_c, 0, 74, 105
1, 19791, Note_off_c, 0, 74, 105
1, 19810, Note_on_c, 0, 74, 101
1, 19901, Note_off_c, 0, 74, 101
1, 19935, Note_on_c, 0, 72, 97
1, 19984, Note_off_c, 0, 72, 97
1, 20140, Note_on_c, 0, 74, 102
1, 20184, Note_off_c, 0, 74, 102
1, 20196, Note_on_c, 0, 74, 97
1, 20285, Note_off_c, 0, 74, 97
1, 20312, Note_on_c, 0, 72, 89
1, 20376, Note_off_c, 0, 72, 89
1, 20485, Note_on_c, 0, 73, 91
1, 20534, Note_off_c, 0, 73, 91
1, 20541, Note_on_c, 0, 74, 98
1, 20672, Note_off_c, 0, 74, 98
1, 20686, Note_on_c, 0, 72, 96
1, 20765, Note_off_c, 0, 72, 96
1, 20891, Note_on_c, 0, 74, 98
1, 20933, Note_off_c, 0, 74, 98
1, 20962, Note_on_c, 0, 74, 98
1, 21033, Note_off_c, 0, 74, 98
1, 21060, Note_on_c, 0, 72, 96
1, 21149, Note_off_c, 0, 72, 96
1, 21263, Note_on_c, 0, 74, 97
1, 21391, Note_off_c, 0, 74, 97
1, 21448, Note_on_c, 0, 72, 93
1, 21512, Note_off_c, 0, 72, 93
1, 21638, Note_on_c, 0, 74, 94
1, 21687, Note_off_c, 0, 74, 94
1, 21721, Note_on_c, 0, 74, 95
1, 21820, Note_off_c, 0, 74, 95
1, 21834, Note_on_c, 0, 72, 90
1, 21915, Note_off_c, 0, 72, 90
1, 22043, Note_on_c, 0, 74, 95
1, 22085, Note_off_c, 0, 74, 95
1, 22117, Note_on_c, 0, 74, 97
1, 22236, Note_off_c, 0, 74, 97
1, 22248, Note_on_c, 0, 72, 94
1, 22309, Note_off_c, 0, 72, 94
1, 22455, Note_on_c, 0, 74, 98
1, 22561, Note_off_c, 0, 74, 98
1, 22608, Note_on_c, 0, 72, 95
1, 22672, Note_off_c, 0, 72, 95
1, 22691, Note_on_c, 0, 65, 91
1, 23139, Note_off_c, 0, 65, 91
1, 25132, Note_on_c, 0, 65, 89
1, 25193, Note_off_c, 0, 65, 89
1, 25197, Note_on_c, 0, 69, 103
1, 25273, Note_off_c, 0, 69, 103
1, 25414, Note_on_c, 0, 70, 107
1, 25493, Note_off_c, 0, 70, 107
1, 25504, Note_on_c, 0, 72, 97
1, 25560, Note_off_c, 0, 72, 97
1, 25566, Note_on_c, 0, 74, 100
1, 25667, Note_off_c, 0, 74, 100
1, 25681, Note_on_c, 0, 70, 98
1, 25747, Note_off_c, 0, 70, 98
1, 25749, Note_on_c, 0, 72, 104
1, 25990, Note_off_c, 0, 72, 104
1, 26009, Note_on_c, 0, 70, 82
1, 26055, Note_off_c, 0, 70, 82
1, 28135, Note_on_c, 0, 62, 96
1, 28187, Note_off_c, 0, 62, 96
1, 28231, Note_on_c, 0, 69, 114
1, 28312, Note_off_c, 0, 69, 114
1, 28435, Note_on_c, 0, 70, 115
1, 28514, Note_off_c, 0, 70, 115
1, 28528, Note_on_c, 0, 72, 97
1, 28592, Note_off_c, 0, 72, 97
1, 28592, Note_on_c, 0, 74, 111
1, 28696, Note_off_c, 0, 74, 111
1, 28696, Note_on_c, 0, 70, 103
1, 28765, Note_off_c, 0, 70, 103
1, 28772, Note_on_c, 0, 72, 111
1, 28985, Note_off_c, 0, 72, 111
1, 29714, Note_on_c, 0, 69, 115
1, 29820, Note_off_c, 0, 69, 115
1, 29820, Note_on_c, 0, 65, 114
1, 29956, Note_off_c, 0, 65, 114
1, 30019, Note_on_c, 0, 65, 107
1, 30383, Note_off_c, 0, 65, 107
1, 32216, Note_on_c, 0, 82, 125
1, 32335, Note_off_c, 0, 82, 125
1, 32344, Note_on_c, 0, 74, 104
1, 32899, Note_off_c, 0, 74, 104
1, 32953, Note_on_c, 0, 76, 104
1, 33005, Note_off_c, 0, 76, 104
1, 33019, Note_on_c, 0, 77, 116
1, 33262, Note_off_c, 0, 77, 116
1, 33294, Note_on_c, 0, 73, 102
1, 33358, Note_off_c, 0, 73, 102
1, 33358, Note_on_c, 0, 74, 107
1, 33613, Note_off_c, 0, 74, 107
1, 33650, Note_on_c, 0, 69, 98
1, 33719, Note_off_c, 0, 69, 98
1, 33719, Note_on_c, 0, 70, 105
1, 33790, Note_off_c, 0, 70, 105
1, 33832, Note_on_c, 0, 64, 107
1, 33886, Note_off_c, 0, 64, 107
1, 33895, Note_on_c, 0, 65, 112
1, 33989, Note_off_c, 0, 65, 112
1, 33993, Note_on_c, 0, 61, 106
1, 34094, Note_off_c, 0, 61, 106
1, 34101, Note_on_c, 0, 62, 92
1, 34403, Note_off_c, 0, 62, 92
1, 34784, Note_on_c, 0, 69, 102
1, 34855, Note_off_c, 0, 69, 102
1, 34862, Note_on_c, 0, 70, 96
1, 35114, Note_off_c, 0, 70, 96
1, 35126, Note_on_c, 0, 73, 98
1, 35195, Note_off_c, 0, 73, 98
1, 35195, Note_on_c, 0, 74, 100
1, 35321, Note_off_c, 0, 74, 100
1, 35321, Note_on_c, 0, 76, 111
1, 35395, Note_off_c, 0, 76, 111
1, 35395, Note_on_c, 0, 77, 105
1, 35509, Note_off_c, 0, 77, 105
1, 35518, Note_on_c, 0, 73, 88
1, 35570, Note_off_c, 0, 73, 88
1, 35577, Note_on_c, 0, 74, 103
1, 35668, Note_off_c, 0, 74, 103
1, 35668, Note_on_c, 0, 69, 94
1, 35752, Note_off_c, 0, 69, 94
1, 35759, Note_on_c, 0, 70, 103
1, 35850, Note_off_c, 0, 70, 103
1, 35899, Note_on_c, 0, 64, 98
1, 35946, Note_off_c, 0, 64, 98
1, 35946, Note_on_c, 0, 65, 109
1, 36047, Note_off_c, 0, 65, 109
1, 36061, Note_on_c, 0, 61, 109
1, 36145, Note_off_c, 0, 61, 109
1, 36169, Note_on_c, 0, 62, 102
1, 36263, Note_off_c, 0, 62, 102
1, 36282, Note_on_c, 0, 64, 105
1, 36326, Note_off_c, 0, 64, 105
1, 36340, Note_on_c, 0, 65, 115
1, 36442, Note_off_c, 0, 65, 115
1, 36455, Note_on_c, 0, 67, 108
1, 36494, Note_off_c, 0, 67, 108
1, 36526, Note_on_c, 0, 68, 100
1, 36625, Note_off_c, 0, 68, 100
1, 36625, Note_on_c, 0, 69, 106
1, 36706, Note_off_c, 0, 69, 106
1, 36718, Note_on_c, 0, 70, 107
1, 36822, Note_off_c, 0, 70, 107
1, 36829, Note_on_c, 0, 71, 106
1, 36881, Note_off_c, 0, 71, 106
1, 36900, Note_on_c, 0, 72, 105
1, 36979, Note_off_c, 0, 72, 105
1, 37001, Note_on_c, 0, 73, 102
1, 37080, Note_off_c, 0, 73, 102
1, 37080, Note_on_c, 0, 74, 92
1, 37278, Note_off_c, 0, 74, 92
1, 37299, Note_on_c, 0, 76, 103
1, 37467, Note_off_c, 0, 76, 103
1, 37467, Note_on_c, 0, 74, 106
1, 37697, Note_off_c, 0, 74, 106
1, 37781, Note_on_c, 0, 72, 110
1, 37842, Note_off_c, 0, 72, 110
1, 37851, Note_on_c, 0, 71, 109
1, 37955, Note_off_c, 0, 71, 109
1, 37969, Note_on_c, 0, 69, 116
1, 38033, Note_off_c, 0, 69, 116
1, 38040, Note_on_c, 0, 68, 112
1, 38149, Note_on_c, 0, 71, 114
1, 38149, Note_off_c, 0, 68, 112
1, 38240, Note_off_c, 0, 71, 114
1, 38247, Note_on_c, 0, 69, 110
1, 38333, Note_off_c, 0, 69, 110
1, 38360, Note_on_c, 0, 67, 116
1, 38434, Note_off_c, 0, 67, 116
1, 38441, Note_on_c, 0, 66, 93
1, 38527, Note_off_c, 0, 66, 93
1, 38541, Note_on_c, 0, 64, 116
1, 38595, Note_off_c, 0, 64, 116
1, 38621, Note_on_c, 0, 65, 119
1, 38730, Note_off_c, 0, 65, 119
1, 38794, Note_on_c, 0, 65, 117
1, 38896, Note_off_c, 0, 65, 117
1, 39007, Note_on_c, 0, 65, 118
1, 39129, Note_off_c, 0, 65, 118
1, 40472, Note_on_c, 0, 64, 118
1, 41139, Note_off_c, 0, 64, 118
1, 41152, Note_on_c, 0, 65, 115
1, 41676, Note_off_c, 0, 65, 115
1, 41705, Note_on_c, 0, 66, 97
1, 42014, Note_off_c, 0, 66, 97
1, 42053, Note_on_c, 0, 67, 104
1, 42224, Note_off_c, 0, 67, 104
1, 43178, Note_on_c, 0, 65, 104
1, 43344, Note_off_c, 0, 65, 104
1, 43378, Note_on_c, 0, 74, 96
1, 43499, Note_off_c, 0, 74, 96
1, 43501, Note_on_c, 0, 72, 101
1, 43577, Note_off_c, 0, 72, 101
1, 43577, Note_on_c, 0, 70, 104
1, 43740, Note_off_c, 0, 70, 104
1, 43772, Note_on_c, 0, 77, 118
1, 43955, Note_off_c, 0, 77, 118
1, 43974, Note_on_c, 0, 74, 95
1, 44088, Note_off_c, 0, 74, 95
1, 44169, Note_on_c, 0, 82, 111
1, 44347, Note_off_c, 0, 82, 111
1, 44406, Note_on_c, 0, 74, 79
1, 44537, Note_off_c, 0, 74, 79
1, 44581, Note_on_c, 0, 77, 106
1, 44722, Note_off_c, 0, 77, 106
1, 44736, Note_on_c, 0, 79, 93
1, 44850, Note_off_c, 0, 79, 93
1, 44857, Note_on_c, 0, 77, 94
1, 44926, Note_off_c, 0, 77, 94
1, 44945, Note_on_c, 0, 75, 100
1, 45027, Note_off_c, 0, 75, 100
1, 45040, Note_on_c, 0, 77, 96
1, 45123, Note_off_c, 0, 77, 96
1, 45134, Note_on_c, 0, 82, 113
1, 45296, Note_off_c, 0, 82, 113
1, 45343, Note_on_c, 0, 79, 101
1, 45464, Note_off_c, 0, 79, 101
1, 45533, Note_on_c, 0, 77, 111
1, 45580, Note_off_c, 0, 77, 111
1, 45634, Note_on_c, 0, 75, 107
1, 45678, Note_off_c, 0, 75, 107
1, 45685, Note_on_c, 0, 74, 92
1, 45771, Note_off_c, 0, 74, 92
1, 45914, Note_on_c, 0, 82, 110
1, 46067, Note_off_c, 0, 82, 110
1, 46114, Note_on_c, 0, 79, 96
1, 46235, Note_off_c, 0, 79, 96
1, 46287, Note_on_c, 0, 77, 107
1, 46336, Note_off_c, 0, 77, 107
1, 46383, Note_on_c, 0, 75, 102
1, 46447, Note_off_c, 0, 75, 102
1, 46456, Note_on_c, 0, 74, 92
1, 46565, Note_off_c, 0, 74, 92
1, 46646, Note_on_c, 0, 82, 108
1, 46804, Note_off_c, 0, 82, 108
1, 46841, Note_on_c, 0, 79, 98
1, 47007, Note_off_c, 0, 79, 98
1, 47031, Note_on_c, 0, 77, 103
1, 47189, Note_off_c, 0, 77, 103
1, 47206, Note_on_c, 0, 74, 100
1, 47446, Note_off_c, 0, 74, 100
1, 47468, Note_on_c, 0, 73, 83
1, 47527, Note_off_c, 0, 73, 83
1, 47527, Note_on_c, 0, 75, 98
1, 47965, Note_off_c, 0, 75, 98
1, 47969, Note_on_c, 0, 74, 91
1, 48318, Note_off_c, 0, 74, 91
1, 48352, Note_on_c, 0, 72, 88
1, 48721, Note_off_c, 0, 72, 88
1, 48750, Note_on_c, 0, 70, 91
1, 48906, Note_off_c, 0, 70, 91
1, 48938, Note_on_c, 0, 69, 88
1, 49059, Note_off_c, 0, 69, 88
1, 49059, End_track
0, 0, End_of_file
