0, 0, Header, 1, 1, 840
1, 0, Start_track
1, 0, Title_t, "Melody"
1, 0, Tempo, 472440
1, 0, Key_signature, -1, "major"
1, 0, Time_signature, 4, 2, 24, 8
1, 9475, Note_on_c, 0, 73, 86
1, 9685, Note_off_c, 0, 73, 86
1, 9706, Note_on_c, 0, 74, 91
1, 9880, Note_off_c, 0, 74, 91
1, 9974, Note_on_c, 0, 72, 82
1, 10271, Note_off_c, 0, 72, 82
1, 10402, Note_on_c, 0, 69, 74
1, 10801, Note_off_c, 0, 69, 74
1, 10845, Note_on_c, 0, 65, 84
1, 11055, Note_off_c, 0, 65, 84
1, 11307, Note_on_c, 0, 70, 102
1, 11648, Note_off_c, 0, 70, 102
1, 11735, Note_on_c, 0, 69, 98
1, 12025, Note_off_c, 0, 69, 98
1, 12474, Note_on_c, 0, 65, 90
1, 14433, Note_off_c, 0, 65, 90
1, 16297, Note_on_c, 0, 65, 80
1, 16518, Note_off_c, 0, 65, 80
1, 16779, Note_on_c, 0, 65, 91
1, 17678, Note_off_c, 0, 65, 91
1, 17920, Note_on_c, 0, 69, 89
1, 18090, Note_off_c, 0, 69, 89
1, 18095, Note_on_c, 0, 70, 103
1, 18265, Note_off_c, 0, 70, 103
1, 18275, Note_on_c, 0, 69, 96
1, 18841, Note_off_c, 0, 69, 96
1, 18888, Note_on_c, 0, 65, 88
1, 19660, Note_off_c, 0, 65, 88
1, 19732, Note_on_c, 0, 65, 91
1, 19929, Note_off_c, 0, 65, 91
1, 20016, Note_on_c, 0, 63, 79
1, 21373, Note_off_c, 0, 63, 79
1, 25180, Note_on_c, 0, 60, 73
1, 25354, Note_off_c, 0, 60, 73
1, 25645, Note_on_c, 0, 65, 96
1, 25928, Note_off_c, 0, 65, 96
1, 26093, Note_on_c, 0, 68, 98
1, 26405, Note_off_c, 0, 68, 98
1, 26484, Note_on_c, 0, 71, 110
1, 26825, Note_off_c, 0, 71, 110
1, 26995, Note_on_c, 0, 74, 106
1, 27433, Note_off_c, 0, 74, 106
1, 27637, Note_on_c, 0, 77, 111
1, 27927, Note_off_c, 0, 77, 111
1, 28826, Note_on_c, 0, 76, 94
1, 29207, Note_off_c, 0, 76, 94
1, 29254, Note_on_c, 0, 72, 99
1, 29580, Note_off_c, 0, 72, 99
1, 30066, Note_on_c, 0, 68, 93
1, 30777, Note_off_c, 0, 68, 93
1, 30856, Note_on_c, 0, 65, 89
1, 31175, Note_off_c, 0, 65, 89
1, 31508, Note_on_c, 0, 69, 82
1, 32066, Note_off_c, 0, 69, 82
1, 32087, Note_on_c, 0, 70, 99
1, 32420, Note_off_c, 0, 70, 99
1, 32557, Note_on_c, 0, 69, 93
1, 32876, Note_off_c, 0, 69, 93
1, 33045, Note_on_c, 0, 65, 91
1, 33364, Note_off_c, 0, 65, 91
1, 33400, Note_on_c, 0, 60, 70
1, 34101, Note_off_c, 0, 60, 70
1, 34126, Note_on_c, 0, 62, 78
1, 34224, Note_off_c, 0, 62, 78
1, 34265, Note_on_c, 0, 64, 83
1, 34688, Note_off_c, 0, 64, 83
1, 34729, Note_on_c, 0, 67, 100
1, 35002, Note_off_c, 0, 67, 100
1, 37195, Note_on_c, 0, 75, 106
1, 37545, Note_off_c, 0, 75, 106
1, 37575, Note_on_c, 0, 74, 103
1, 37879, Note_off_c, 0, 74, 103
1, 38038, Note_on_c, 0, 72, 105
1, 38466, Note_off_c, 0, 72, 105
1, 38486, Note_on_c, 0, 70, 89
1, 39270, Note_off_c, 0, 70, 89
1, 39565, Note_on_c, 0, 69, 99
1, 39760, Note_off_c, 0, 69, 99
1, 39789, Note_on_c, 0, 70, 104
1, 40036, Note_off_c, 0, 70, 104
1, 40118, Note_on_c, 0, 66, 97
1, 40334, Note_off_c, 0, 66, 97
1, 41861, Note_on_c, 0, 71, 83
1, 42031, Note_off_c, 0, 71, 83
1, 42247, Note_on_c, 0, 69, 103
1, 42515, Note_off_c, 0, 69, 103
1, 42633, Note_on_c, 0, 70, 105
1, 42911, Note_off_c, 0, 70, 105
1, 43101, Note_on_c, 0, 72, 110
1, 43462, Note_off_c, 0, 72, 110
1, 43492, Note_on_c, 0, 73, 106
1, 43750, Note_off_c, 0, 73, 106
1, 43770, Note_on_c, 0, 74, 104
1, 43935, Note_off_c, 0, 74, 104
1, 43955, Note_on_c, 0, 73, 106
1, 44194, Note_off_c, 0, 73, 106
1, 44234, Note_on_c, 0, 72, 96
1, 44560, Note_off_c, 0, 72, 96
1, 44706, Note_on_c, 0, 70, 104
1, 44969, Note_off_c, 0, 70, 104
1, 45118, Note_on_c, 0, 69, 101
1, 45458, Note_off_c, 0, 69, 101
1, 45464, Note_on_c, 0, 65, 95
1, 45718, Note_off_c, 0, 65, 95
1, 45746, Note_on_c, 0, 60, 84
1, 46086, Note_off_c, 0, 60, 84
1, 46638, Note_on_c, 0, 63, 91
1, 46892, Note_off_c, 0, 63, 91
1, 46921, Note_on_c, 0, 65, 91
1, 47741, Note_off_c, 0, 65, 91
1, 47767, Note_on_c, 0, 65, 91
1, 47952, Note_off_c, 0, 65, 91
1, 48003, Note_on_c, 0, 65, 104
1, 48209, Note_off_c, 0, 65, 104
1, 52463, Note_on_c, 0, 65, 78
1, 52608, Note_off_c, 0, 65, 78
1, 52644, Note_on_c, 0, 67, 79
1, 52847, Note_off_c, 0, 67, 79
1, 52883, Note_on_c, 0, 69, 100
1, 53122, Note_off_c, 0, 69, 100
1, 53156, Note_on_c, 0, 70, 104
1, 53315, Note_off_c, 0, 70, 104
1, 53498, Note_on_c, 0, 72, 99
1, 53708, Note_off_c, 0, 72, 99
1, 53751, Note_on_c, 0, 73, 103
1, 54005, Note_off_c, 0, 73, 103
1, 54650, Note_on_c, 0, 77, 81
1, 54867, Note_off_c, 0, 77, 81
1, 55498, Note_on_c, 0, 77, 110
1, 55795, Note_off_c, 0, 77, 110
1, 56353, Note_on_c, 0, 76, 103
1, 56628, Note_off_c, 0, 76, 103
1, 56671, Note_on_c, 0, 74, 92
1, 57026, Note_off_c, 0, 74, 92
1, 57446, Note_on_c, 0, 76, 107
1, 57743, Note_off_c, 0, 76, 107
1, 58345, Note_on_c, 0, 72, 82
1, 58852, Note_off_c, 0, 72, 82
1, 58881, Note_on_c, 0, 72, 97
1, 59055, Note_off_c, 0, 72, 97
1, 59163, Note_on_c, 0, 69, 86
1, 59743, Note_off_c, 0, 69, 86
1, 59760, Note_on_c, 0, 65, 67
1, 59890, Note_off_c, 0, 65, 67
1, 59901, Note_on_c, 0, 67, 75
1, 60539, Note_off_c, 0, 67, 75
1, 60546, Note_on_c, 0, 69, 107
1, 60763, Note_off_c, 0, 69, 107
1, 64494, Note_on_c, 0, 75, 79
1, 64566, Note_off_c, 0, 75, 79
1, 64579, Note_on_c, 0, 74, 111
1, 64796, Note_off_c, 0, 74, 111
1, 64825, Note_on_c, 0, 72, 93
1, 65253, Note_off_c, 0, 72, 93
1, 65354, Note_on_c, 0, 68, 99
1, 65600, Note_off_c, 0, 68, 99
1, 66545, Note_on_c, 0, 68, 93
1, 67066, Note_off_c, 0, 68, 93
1, 67107, Note_on_c, 0, 64, 95
1, 67261, Note_off_c, 0, 64, 95
1, 68076, Note_on_c, 0, 64, 85
1, 68633, Note_off_c, 0, 64, 85
1, 68638, Note_on_c, 0, 60, 84
1, 68899, Note_off_c, 0, 60, 84
1, 69674, Note_on_c, 0, 60, 82
1, 70195, Note_off_c, 0, 60, 82
1, 70318, Note_on_c, 0, 56, 95
1, 70596, Note_off_c, 0, 56, 95
1, 72913, Note_on_c, 0, 60, 79
1, 73047, Note_off_c, 0, 60, 79
1, 73301, Note_on_c, 0, 65, 97
1, 73555, Note_off_c, 0, 65, 97
1, 73642, Note_on_c, 0, 67, 100
1, 73903, Note_off_c, 0, 67, 100
1, 74040, Note_on_c, 0, 69, 107
1, 74352, Note_off_c, 0, 69, 107
1, 74423, Note_on_c, 0, 70, 106
1, 74773, Note_off_c, 0, 70, 106
1, 74844, Note_on_c, 0, 72, 108
1, 75156, Note_off_c, 0, 72, 108
1, 75286, Note_on_c, 0, 74, 113
1, 75692, Note_off_c, 0, 74, 113
1, 75699, Note_on_c, 0, 75, 110
1, 76105, Note_off_c, 0, 75, 110
1, 76105, Note_on_c, 0, 74, 98
1, 78790, Note_off_c, 0, 74, 98
1, 78795, Note_on_c, 0, 73, 102
1, 79037, Note_off_c, 0, 73, 102
1, 79341, Note_on_c, 0, 72, 105
1, 79676, Note_off_c, 0, 72, 105
1, 79841, Note_on_c, 0, 70, 98
1, 80104, Note_off_c, 0, 70, 98
1, 80181, Note_on_c, 0, 65, 88
1, 80418, Note_off_c, 0, 65, 88
1, 80549, Note_on_c, 0, 61, 83
1, 80904, Note_off_c, 0, 61, 83
1, 80925, Note_on_c, 0, 62, 85
1, 81208, Note_off_c, 0, 62, 85
1, 81411, Note_on_c, 0, 60, 76
1, 81737, Note_off_c, 0, 60, 76
1, 82215, Note_on_c, 0, 65, 96
1, 82490, Note_off_c, 0, 65, 96
1, 82714, Note_on_c, 0, 69, 91
1, 83163, Note_off_c, 0, 69, 91
1, 83197, Note_on_c, 0, 70, 109
1, 83480, Note_off_c, 0, 70, 109
1, 83490, Note_on_c, 0, 69, 102
1, 83737, Note_off_c, 0, 69, 102
1, 83747, Note_on_c, 0, 65, 87
1, 84196, Note_off_c, 0, 65, 87
1, 84545, Note_on_c, 0, 59, 74
1, 84653, Note_off_c, 0, 59, 74
1, 84689, Note_on_c, 0, 64, 88
1, 85318, Note_off_c, 0, 64, 88
1, 85333, Note_on_c, 0, 65, 86
1, 86552, Note_off_c, 0, 65, 86
1, 91215, Note_on_c, 0, 76, 110
1, 91462, Note_off_c, 0, 76, 110
1, 91472, Note_on_c, 0, 77, 113
1, 91786, Note_off_c, 0, 77, 113
1, 92038, Note_on_c, 0, 76, 104
1, 92213, Note_off_c, 0, 76, 104
1, 92527, Note_on_c, 0, 74, 97
1, 92815, Note_off_c, 0, 74, 97
1, 92835, Note_on_c, 0, 72, 93
1, 93046, Note_off_c, 0, 72, 93
1, 93087, Note_on_c, 0, 73, 105
1, 93293, Note_off_c, 0, 73, 105
1, 93315, Note_on_c, 0, 74, 105
1, 93605, Note_off_c, 0, 74, 105
1, 93637, Note_on_c, 0, 70, 106
1, 93876, Note_off_c, 0, 70, 106
1, 93961, Note_on_c, 0, 67, 99
1, 94177, Note_off_c, 0, 67, 99
1, 94240, Note_on_c, 0, 65, 93
1, 94464, Note_off_c, 0, 65, 93
1, 94572, Note_on_c, 0, 64, 83
1, 94717, Note_off_c, 0, 64, 83
1, 94789, Note_on_c, 0, 67, 84
1, 94963, Note_off_c, 0, 67, 84
1, 95057, Note_on_c, 0, 70, 102
1, 95325, Note_off_c, 0, 70, 102
1, 95349, Note_on_c, 0, 72, 104
1, 95565, Note_off_c, 0, 72, 104
1, 95626, Note_on_c, 0, 73, 106
1, 95914, Note_off_c, 0, 73, 106
1, 95970, Note_on_c, 0, 71, 96
1, 96191, Note_off_c, 0, 71, 96
1, 96196, Note_on_c, 0, 72, 105
1, 96412, Note_off_c, 0, 72, 105
1, 96494, Note_on_c, 0, 63, 80
1, 96704, Note_off_c, 0, 63, 80
1, 96719, Note_on_c, 0, 70, 104
1, 96958, Note_off_c, 0, 70, 104
1, 97050, Note_on_c, 0, 69, 97
1, 97251, Note_off_c, 0, 69, 97
1, 97374, Note_on_c, 0, 67, 101
1, 97559, Note_off_c, 0, 67, 101
1, 97610, Note_on_c, 0, 65, 91
1, 97837, Note_off_c, 0, 65, 91
1, 97935, Note_on_c, 0, 67, 99
1, 98162, Note_off_c, 0, 67, 99
1, 98280, Note_on_c, 0, 64, 72
1, 98470, Note_off_c, 0, 64, 72
1, 98542, Note_on_c, 0, 65, 88
1, 98701, Note_off_c, 0, 65, 88
1, 98819, Note_on_c, 0, 69, 104
1, 98999, Note_off_c, 0, 69, 104
1, 99097, Note_on_c, 0, 72, 103
1, 99287, Note_off_c, 0, 72, 103
1, 99307, Note_on_c, 0, 74, 109
1, 99580, Note_off_c, 0, 74, 109
1, 99619, Note_on_c, 0, 77, 103
1, 99938, Note_off_c, 0, 77, 103
1, 100518, Note_on_c, 0, 77, 91
1, 100873, Note_off_c, 0, 77, 91
1, 100971, Note_on_c, 0, 77, 114
1, 101355, Note_off_c, 0, 77, 114
1, 101372, Note_on_c, 0, 75, 104
1, 101821, Note_off_c, 0, 75, 104
1, 101871, Note_on_c, 0, 72, 101
1, 102232, Note_off_c, 0, 72, 101
1, 102262, Note_on_c, 0, 71, 93
1, 102612, Note_off_c, 0, 71, 93
1, 102741, Note_on_c, 0, 70, 100
1, 103055, Note_off_c, 0, 70, 100
1, 103085, Note_on_c, 0, 68, 99
1, 103497, Note_off_c, 0, 68, 99
1, 104038, Note_on_c, 0, 69, 99
1, 104192, Note_off_c, 0, 69, 99
1, 104233, Note_on_c, 0, 70, 93
1, 105502, Note_off_c, 0, 70, 93
1, 105521, Note_on_c, 0, 68, 89
1, 106043, Note_off_c, 0, 68, 89
1, 106072, Note_on_c, 0, 65, 93
1, 106347, Note_off_c, 0, 65, 93
1, 106522, Note_on_c, 0, 60, 64
1, 107110, Note_off_c, 0, 60, 64
1, 107264, Note_on_c, 0, 65, 104
1, 107573, Note_off_c, 0, 65, 104
1, 111448, Note_on_c, 0, 65, 88
1, 111638, Note_off_c, 0, 65, 88
1, 111684, Note_on_c, 0, 67, 88
1, 111869, Note_off_c, 0, 67, 88
1, 111894, Note_on_c, 0, 69, 92
1, 112082, Note_off_c, 0, 69, 92
1, 112146, Note_on_c, 0, 70, 91
1, 112362, Note_off_c, 0, 70, 91
1, 112418, Note_on_c, 0, 71, 100
1, 112691, Note_off_c, 0, 71, 100
1, 112702, Note_on_c, 0, 72, 106
1, 112890, Note_off_c, 0, 72, 106
1, 112984, Note_on_c, 0, 69, 95
1, 113223, Note_off_c, 0, 69, 95
1, 113323, Note_on_c, 0, 70, 106
1, 113632, Note_off_c, 0, 70, 106
1, 113635, Note_on_c, 0, 69, 97
1, 114237, Note_off_c, 0, 69, 97
1, 114281, Note_on_c, 0, 70, 102
1, 114580, Note_off_c, 0, 70, 102
1, 114595, Note_on_c, 0, 69, 93
1, 115095, Note_off_c, 0, 69, 93
1, 115115, Note_on_c, 0, 70, 108
1, 115461, Note_off_c, 0, 70, 108
1, 115461, Note_on_c, 0, 69, 95
1, 115910, Note_off_c, 0, 69, 95
1, 115924, Note_on_c, 0, 70, 104
1, 116257, Note_off_c, 0, 70, 104
1, 116278, Note_on_c, 0, 69, 93
1, 116510, Note_off_c, 0, 69, 93
1, 116560, Note_on_c, 0, 67, 93
1, 116763, Note_off_c, 0, 67, 93
1, 116770, Note_on_c, 0, 66, 87
1, 117096, Note_off_c, 0, 66, 87
1, 117106, Note_on_c, 0, 69, 101
1, 117338, Note_off_c, 0, 69, 101
1, 117392, Note_on_c, 0, 72, 100
1, 117638, Note_off_c, 0, 72, 100
1, 117667, Note_on_c, 0, 75, 109
1, 117906, Note_off_c, 0, 75, 109
1, 117906, Note_on_c, 0, 72, 89
1, 118181, Note_off_c, 0, 72, 89
1, 118202, Note_on_c, 0, 73, 106
1, 118434, Note_off_c, 0, 73, 106
1, 118459, Note_on_c, 0, 74, 105
1, 118665, Note_off_c, 0, 74, 105
1, 118788, Note_on_c, 0, 70, 105
1, 119015, Note_off_c, 0, 70, 105
1, 119056, Note_on_c, 0, 67, 88
1, 119252, Note_off_c, 0, 67, 88
1, 119266, Note_on_c, 0, 65, 90
1, 119483, Note_off_c, 0, 65, 90
1, 119620, Note_on_c, 0, 64, 86
1, 119808, Note_off_c, 0, 64, 86
1, 119808, Note_on_c, 0, 67, 80
1, 119953, Note_off_c, 0, 67, 80
1, 120018, Note_on_c, 0, 70, 102
1, 120199, Note_off_c, 0, 70, 102
1, 120257, Note_on_c, 0, 72, 103
1, 120511, Note_off_c, 0, 72, 103
1, 120525, Note_on_c, 0, 73, 108
1, 120842, Note_off_c, 0, 73, 108
1, 120842, Note_on_c, 0, 71, 105
1, 121094, Note_off_c, 0, 71, 105
1, 121104, Note_on_c, 0, 72, 103
1, 121274, Note_off_c, 0, 72, 103
1, 121364, Note_on_c, 0, 63, 79
1, 121530, Note_off_c, 0, 63, 79
1, 121646, Note_on_c, 0, 70, 98
1, 121856, Note_off_c, 0, 70, 98
1, 121885, Note_on_c, 0, 69, 85
1, 122153, Note_off_c, 0, 69, 85
1, 122298, Note_on_c, 0, 67, 90
1, 122537, Note_off_c, 0, 67, 90
1, 122782, Note_on_c, 0, 65, 69
1, 122921, Note_off_c, 0, 65, 69
1, 122962, Note_on_c, 0, 66, 74
1, 123152, Note_off_c, 0, 66, 74
1, 123410, Note_on_c, 0, 69, 106
1, 123649, Note_off_c, 0, 69, 106
1, 123734, Note_on_c, 0, 67, 95
1, 123909, Note_off_c, 0, 67, 95
1, 124239, Note_on_c, 0, 65, 97
1, 124463, Note_off_c, 0, 65, 97
1, 124578, Note_on_c, 0, 64, 89
1, 124759, Note_off_c, 0, 64, 89
1, 125034, Note_on_c, 0, 62, 90
1, 125122, Note_off_c, 0, 62, 90
1, 125417, Note_on_c, 0, 64, 97
1, 125623, Note_off_c, 0, 64, 97
1, 125656, Note_on_c, 0, 65, 95
1, 125866, Note_off_c, 0, 65, 95
1, 125887, Note_on_c, 0, 67, 100
1, 126075, Note_off_c, 0, 67, 100
1, 126234, Note_on_c, 0, 64, 81
1, 127049, Note_off_c, 0, 64, 81
1, 127068, Note_on_c, 0, 65, 106
1, 127452, Note_off_c, 0, 65, 106
1, 131254, Note_on_c, 0, 76, 112
1, 131455, Note_off_c, 0, 76, 112
1, 131522, Note_on_c, 0, 77, 114
1, 131892, Note_off_c, 0, 77, 114
1, 132006, Note_on_c, 0, 76, 112
1, 132367, Note_off_c, 0, 76, 112
1, 132790, Note_on_c, 0, 72, 92
1, 133605, Note_off_c, 0, 72, 92
1, 134580, Note_on_c, 0, 74, 99
1, 135088, Note_off_c, 0, 74, 99
1, 135096, Note_on_c, 0, 70, 103
1, 135335, Note_off_c, 0, 70, 103
1, 135351, Note_on_c, 0, 67, 80
1, 135757, Note_off_c, 0, 67, 80
1, 135925, Note_on_c, 0, 64, 90
1, 136146, Note_off_c, 0, 64, 90
1, 137145, Note_on_c, 0, 70, 83
1, 137399, Note_off_c, 0, 70, 83
1, 137461, Note_on_c, 0, 74, 93
1, 137899, Note_off_c, 0, 74, 93
1, 137945, Note_on_c, 0, 72, 96
1, 138162, Note_off_c, 0, 72, 96
1, 138579, Note_on_c, 0, 65, 78
1, 138920, Note_off_c, 0, 65, 78
1, 139198, Note_on_c, 0, 70, 103
1, 139538, Note_off_c, 0, 70, 103
1, 139728, Note_on_c, 0, 69, 96
1, 139955, Note_off_c, 0, 69, 96
1, 140135, Note_on_c, 0, 65, 92
1, 140336, Note_off_c, 0, 65, 92
1, 140561, Note_on_c, 0, 62, 78
1, 140771, Note_off_c, 0, 62, 78
1, 140969, Note_on_c, 0, 65, 93
1, 141223, Note_off_c, 0, 65, 93
1, 141402, Note_on_c, 0, 63, 76
1, 141592, Note_off_c, 0, 63, 76
1, 141819, Note_on_c, 0, 70, 102
1, 142020, Note_off_c, 0, 70, 102
1, 142164, Note_on_c, 0, 74, 106
1, 142635, Note_off_c, 0, 74, 106
1, 142751, Note_on_c, 0, 73, 105
1, 142978, Note_off_c, 0, 73, 105
1, 143488, Note_on_c, 0, 68, 90
1, 143647, Note_off_c, 0, 68, 90
1, 143697, Note_on_c, 0, 65, 80
1, 144190, Note_off_c, 0, 65, 80
1, 144286, Note_on_c, 0, 72, 107
1, 144497, Note_off_c, 0, 72, 107
1, 145905, Note_on_c, 0, 70, 105
1, 146173, Note_off_c, 0, 70, 105
1, 146198, Note_on_c, 0, 68, 93
1, 146688, Note_off_c, 0, 68, 93
1, 146713, Note_on_c, 0, 64, 91
1, 146934, Note_off_c, 0, 64, 91
1, 150480, Note_on_c, 0, 65, 86
1, 150610, Note_off_c, 0, 65, 86
1, 150675, Note_on_c, 0, 67, 87
1, 150801, Note_off_c, 0, 67, 87
1, 150826, Note_on_c, 0, 68, 91
1, 150989, Note_off_c, 0, 68, 91
1, 151047, Note_on_c, 0, 70, 104
1, 151184, Note_off_c, 0, 70, 104
1, 151216, Note_on_c, 0, 72, 104
1, 151455, Note_off_c, 0, 72, 104
1, 151487, Note_on_c, 0, 70, 108
1, 151690, Note_off_c, 0, 70, 108
1, 151700, Note_on_c, 0, 67, 82
1, 151827, Note_off_c, 0, 67, 82
1, 151848, Note_on_c, 0, 68, 84
1, 151974, Note_off_c, 0, 68, 84
1, 152075, Note_on_c, 0, 69, 93
1, 152227, Note_off_c, 0, 69, 93
1, 152274, Note_on_c, 0, 70, 100
1, 152433, Note_off_c, 0, 70, 100
1, 152454, Note_on_c, 0, 72, 85
1, 152599, Note_on_c, 0, 74, 100
1, 152599, Note_off_c, 0, 72, 85
1, 152802, Note_off_c, 0, 74, 100
1, 152820, Note_on_c, 0, 76, 105
1, 153008, Note_off_c, 0, 76, 105
1, 153102, Note_on_c, 0, 72, 104
1, 153276, Note_off_c, 0, 72, 104
1, 155353, Note_on_c, 0, 76, 102
1, 155554, Note_off_c, 0, 76, 102
1, 155579, Note_on_c, 0, 74, 88
1, 155749, Note_off_c, 0, 74, 88
1, 155852, Note_on_c, 0, 69, 85
1, 155962, Note_off_c, 0, 69, 85
1, 155962, Note_on_c, 0, 71, 107
1, 156186, Note_off_c, 0, 71, 107
1, 156193, Note_on_c, 0, 70, 90
1, 156381, Note_on_c, 0, 69, 96
1, 156381, Note_off_c, 0, 70, 90
1, 156555, Note_off_c, 0, 69, 96
1, 156566, Note_on_c, 0, 67, 91
1, 156703, Note_off_c, 0, 67, 91
1, 156731, Note_on_c, 0, 65, 91
1, 156879, Note_off_c, 0, 65, 91
1, 156982, Note_on_c, 0, 69, 108
1, 157157, Note_off_c, 0, 69, 108
1, 157168, Note_on_c, 0, 70, 87
1, 157363, Note_off_c, 0, 70, 87
1, 157392, Note_on_c, 0, 66, 83
1, 157546, Note_off_c, 0, 66, 83
1, 157566, Note_on_c, 0, 69, 98
1, 157751, Note_off_c, 0, 69, 98
1, 157771, Note_on_c, 0, 67, 104
1, 157936, Note_off_c, 0, 67, 104
1, 158266, Note_on_c, 0, 68, 85
1, 158389, Note_off_c, 0, 68, 85
1, 158447, Note_on_c, 0, 69, 99
1, 158599, Note_off_c, 0, 69, 99
1, 158636, Note_on_c, 0, 70, 106
1, 158806, Note_off_c, 0, 70, 106
1, 158852, Note_on_c, 0, 69, 108
1, 159026, Note_off_c, 0, 69, 108
1, 159069, Note_on_c, 0, 67, 99
1, 159243, Note_off_c, 0, 67, 99
1, 159274, Note_on_c, 0, 65, 91
1, 159418, Note_off_c, 0, 65, 91
1, 159448, Note_on_c, 0, 64, 84
1, 159623, Note_off_c, 0, 64, 84
1, 159633, Note_on_c, 0, 65, 72
1, 159772, Note_off_c, 0, 65, 72
1, 159859, Note_on_c, 0, 70, 96
1, 160047, Note_off_c, 0, 70, 96
1, 160085, Note_on_c, 0, 72, 90
1, 160260, Note_off_c, 0, 72, 90
1, 160275, Note_on_c, 0, 73, 109
1, 160481, Note_off_c, 0, 73, 109
1, 160501, Note_on_c, 0, 71, 94
1, 160686, Note_off_c, 0, 71, 94
1, 160716, Note_on_c, 0, 72, 107
1, 160839, Note_off_c, 0, 72, 107
1, 160869, Note_on_c, 0, 71, 103
1, 161101, Note_off_c, 0, 71, 103
1, 161111, Note_on_c, 0, 70, 94
1, 161281, Note_off_c, 0, 70, 94
1, 161342, Note_on_c, 0, 69, 99
1, 161496, Note_off_c, 0, 69, 99
1, 161501, Note_on_c, 0, 67, 95
1, 161711, Note_off_c, 0, 67, 95
1, 161732, Note_on_c, 0, 65, 76
1, 161862, Note_off_c, 0, 65, 76
1, 161862, Note_on_c, 0, 69, 96
1, 162057, Note_off_c, 0, 69, 96
1, 162078, Note_on_c, 0, 70, 87
1, 162302, Note_off_c, 0, 70, 87
1, 162338, Note_on_c, 0, 66, 92
1, 162483, Note_off_c, 0, 66, 92
1, 162501, Note_on_c, 0, 69, 98
1, 162728, Note_off_c, 0, 69, 98
1, 162744, Note_on_c, 0, 67, 91
1, 162968, Note_off_c, 0, 67, 91
1, 163001, Note_on_c, 0, 69, 78
1, 163150, Note_off_c, 0, 69, 78
1, 163177, Note_on_c, 0, 70, 94
1, 163336, Note_off_c, 0, 70, 94
1, 163401, Note_on_c, 0, 72, 96
1, 163524, Note_off_c, 0, 72, 96
1, 163538, Note_on_c, 0, 73, 95
1, 163770, Note_off_c, 0, 73, 95
1, 163792, Note_on_c, 0, 71, 101
1, 163977, Note_off_c, 0, 71, 101
1, 163992, Note_on_c, 0, 72, 104
1, 164151, Note_off_c, 0, 72, 104
1, 164269, Note_on_c, 0, 70, 88
1, 164370, Note_off_c, 0, 70, 88
1, 164381, Note_on_c, 0, 71, 85
1, 164551, Note_off_c, 0, 71, 85
1, 166537, Note_on_c, 0, 72, 101
1, 166686, Note_off_c, 0, 72, 101
1, 166696, Note_on_c, 0, 73, 105
1, 166840, Note_off_c, 0, 73, 105
1, 166897, Note_on_c, 0, 72, 92
1, 167281, Note_off_c, 0, 72, 92
1, 167382, Note_on_c, 0, 70, 107
1, 167614, Note_off_c, 0, 70, 107
1, 167674, Note_on_c, 0, 69, 88
1, 168133, Note_off_c, 0, 69, 88
1, 168215, Note_on_c, 0, 65, 99
1, 168431, Note_off_c, 0, 65, 99
1, 169447, Note_on_c, 0, 69, 78
1, 169813, Note_off_c, 0, 69, 78
1, 169849, Note_on_c, 0, 72, 108
1, 170117, Note_off_c, 0, 72, 108
1, 170179, Note_on_c, 0, 74, 108
1, 170512, Note_off_c, 0, 74, 108
1, 171075, Note_on_c, 0, 65, 86
1, 172287, Note_off_c, 0, 65, 86
1, 172412, Note_on_c, 0, 69, 109
1, 172756, Note_off_c, 0, 69, 109
1, 174454, Note_on_c, 0, 70, 99
1, 174976, Note_off_c, 0, 70, 99
1, 174989, Note_on_c, 0, 71, 110
1, 175221, Note_off_c, 0, 71, 110
1, 177896, Note_on_c, 0, 73, 102
1, 178120, Note_off_c, 0, 73, 102
1, 178178, Note_on_c, 0, 74, 110
1, 178519, Note_off_c, 0, 74, 110
1, 178678, Note_on_c, 0, 72, 102
1, 178997, Note_off_c, 0, 72, 102
1, 179125, Note_on_c, 0, 70, 100
1, 179496, Note_off_c, 0, 70, 100
1, 179594, Note_on_c, 0, 69, 102
1, 179779, Note_off_c, 0, 69, 102
1, 179995, Note_on_c, 0, 67, 98
1, 180330, Note_off_c, 0, 67, 98
1, 180380, Note_on_c, 0, 65, 93
1, 180721, Note_off_c, 0, 65, 93
1, 180825, Note_on_c, 0, 64, 90
1, 181021, Note_off_c, 0, 64, 90
1, 181227, Note_on_c, 0, 63, 80
1, 181583, Note_off_c, 0, 63, 80
1, 181757, Note_on_c, 0, 67, 76
1, 182011, Note_off_c, 0, 67, 76
1, 182054, Note_on_c, 0, 70, 108
1, 182402, Note_off_c, 0, 70, 108
1, 182460, Note_on_c, 0, 73, 102
1, 182808, Note_off_c, 0, 73, 102
1, 182808, Note_on_c, 0, 74, 102
1, 183562, Note_off_c, 0, 74, 102
1, 183707, Note_on_c, 0, 72, 83
1, 184098, Note_off_c, 0, 72, 83
1, 184443, Note_on_c, 0, 70, 87
1, 186006, Note_off_c, 0, 70, 87
1, 186016, Note_on_c, 0, 68, 85
1, 186733, Note_off_c, 0, 68, 85
1, 186758, Note_on_c, 0, 64, 69
1, 186897, Note_off_c, 0, 64, 69
1, 186938, Note_on_c, 0, 68, 86
1, 187485, Note_off_c, 0, 68, 86
1, 187593, Note_on_c, 0, 70, 102
1, 187758, Note_off_c, 0, 70, 102
1, 193708, Note_on_c, 0, 76, 100
1, 194151, Note_off_c, 0, 76, 100
1, 194192, Note_on_c, 0, 74, 108
1, 194496, Note_off_c, 0, 74, 108
1, 194619, Note_on_c, 0, 72, 100
1, 194969, Note_off_c, 0, 72, 100
1, 195030, Note_on_c, 0, 69, 100
1, 195355, Note_off_c, 0, 69, 100
1, 195473, Note_on_c, 0, 67, 96
1, 195828, Note_off_c, 0, 67, 96
1, 195849, Note_on_c, 0, 65, 97
1, 196179, Note_off_c, 0, 65, 97
1, 196256, Note_on_c, 0, 66, 83
1, 196575, Note_off_c, 0, 66, 83
1, 196657, Note_on_c, 0, 74, 83
1, 196734, Note_off_c, 0, 74, 83
1, 196764, Note_on_c, 0, 75, 101
1, 197166, Note_off_c, 0, 75, 101
1, 197186, Note_on_c, 0, 74, 102
1, 198460, Note_off_c, 0, 74, 102
1, 198460, Note_on_c, 0, 74, 80
1, 198460, Note_off_c, 0, 74, 80
1, 198532, Note_on_c, 0, 73, 90
1, 198691, Note_off_c, 0, 73, 90
1, 198778, Note_on_c, 0, 74, 93
1, 198968, Note_off_c, 0, 74, 93
1, 198993, Note_on_c, 0, 70, 90
1, 199916, Note_off_c, 0, 70, 90
1, 201742, Note_on_c, 0, 69, 96
1, 201943, Note_off_c, 0, 69, 96
1, 202082, Note_on_c, 0, 70, 99
1, 202336, Note_off_c, 0, 70, 99
1, 202474, Note_on_c, 0, 72, 104
1, 202778, Note_off_c, 0, 72, 104
1, 202916, Note_on_c, 0, 73, 106
1, 203199, Note_off_c, 0, 73, 106
1, 203335, Note_on_c, 0, 71, 99
1, 203613, Note_off_c, 0, 71, 99
1, 203706, Note_on_c, 0, 72, 92
1, 204018, Note_off_c, 0, 72, 92
1, 204126, Note_on_c, 0, 70, 100
1, 204438, Note_off_c, 0, 70, 100
1, 204566, Note_on_c, 0, 69, 94
1, 204854, Note_off_c, 0, 69, 94
1, 204983, Note_on_c, 0, 65, 92
1, 205189, Note_off_c, 0, 65, 92
1, 205189, Note_on_c, 0, 60, 85
1, 205741, Note_off_c, 0, 60, 85
1, 206128, Note_on_c, 0, 65, 88
1, 206819, Note_off_c, 0, 65, 88
1, 210343, Note_on_c, 0, 69, 94
1, 210616, Note_off_c, 0, 69, 94
1, 210621, Note_on_c, 0, 72, 105
1, 210780, Note_off_c, 0, 72, 105
1, 210797, Note_on_c, 0, 74, 108
1, 211080, Note_off_c, 0, 74, 108
1, 211892, Note_on_c, 0, 65, 93
1, 212668, Note_off_c, 0, 65, 93
1, 212704, Note_on_c, 0, 65, 91
1, 213502, Note_off_c, 0, 65, 91
1, 216303, Note_on_c, 0, 69, 83
1, 216651, Note_off_c, 0, 69, 83
1, 216815, Note_on_c, 0, 72, 108
1, 217098, Note_off_c, 0, 72, 108
1, 217139, Note_on_c, 0, 74, 109
1, 217458, Note_off_c, 0, 74, 109
1, 217968, Note_on_c, 0, 65, 76
1, 219263, Note_off_c, 0, 65, 76
1, 219361, Note_on_c, 0, 65, 93
1, 219662, Note_off_c, 0, 65, 93
1, 222256, Note_on_c, 0, 65, 80
1, 222575, Note_off_c, 0, 65, 80
1, 222817, Note_on_c, 0, 67, 100
1, 223044, Note_off_c, 0, 67, 100
1, 223148, Note_on_c, 0, 69, 95
1, 223416, Note_off_c, 0, 69, 95
1, 223510, Note_on_c, 0, 72, 109
1, 223814, Note_off_c, 0, 72, 109
1, 223908, Note_on_c, 0, 74, 105
1, 224299, Note_off_c, 0, 74, 105
1, 224764, Note_on_c, 0, 65, 85
1, 226079, Note_off_c, 0, 65, 85
1, 226140, Note_on_c, 0, 68, 106
1, 226387, Note_off_c, 0, 68, 106
1, 227290, Note_on_c, 0, 70, 103
1, 229085, Note_off_c, 0, 70, 103
1, 229142, Note_on_c, 0, 71, 107
1, 229425, Note_off_c, 0, 71, 107
1, 229461, Note_on_c, 0, 70, 104
1, 229773, Note_off_c, 0, 70, 104
1, 229889, Note_on_c, 0, 68, 96
1, 230237, Note_off_c, 0, 68, 96
1, 230358, Note_on_c, 0, 65, 94
1, 230569, Note_off_c, 0, 65, 94
1, 230671, Note_on_c, 0, 60, 79
1, 231019, Note_off_c, 0, 60, 79
1, 231418, Note_on_c, 0, 65, 85
1, 232673, Note_off_c, 0, 65, 85
1, 232890, Note_on_c, 0, 69, 108
1, 233354, Note_off_c, 0, 69, 108
1, 237599, Note_on_c, 0, 65, 91
1, 237794, Note_off_c, 0, 65, 91
1, 237867, Note_on_c, 0, 69, 104
1, 238125, Note_off_c, 0, 69, 104
1, 238192, Note_on_c, 0, 70, 109
1, 238409, Note_off_c, 0, 70, 109
1, 238453, Note_on_c, 0, 69, 84
1, 238685, Note_off_c, 0, 69, 84
1, 238736, Note_on_c, 0, 70, 97
1, 238937, Note_off_c, 0, 70, 97
1, 238998, Note_on_c, 0, 69, 87
1, 239194, Note_off_c, 0, 69, 87
1, 239250, Note_on_c, 0, 70, 108
1, 239466, Note_off_c, 0, 70, 108
1, 239493, Note_on_c, 0, 69, 86
1, 239674, Note_off_c, 0, 69, 86
1, 239785, Note_on_c, 0, 70, 105
1, 240027, Note_off_c, 0, 70, 105
1, 240072, Note_on_c, 0, 69, 92
1, 240260, Note_off_c, 0, 69, 92
1, 240299, Note_on_c, 0, 70, 101
1, 240546, Note_off_c, 0, 70, 101
1, 240578, Note_on_c, 0, 69, 88
1, 240810, Note_off_c, 0, 69, 88
1, 240853, Note_on_c, 0, 70, 98
1, 241136, Note_off_c, 0, 70, 98
1, 241174, Note_on_c, 0, 69, 88
1, 241313, Note_off_c, 0, 69, 88
1, 241333, Note_on_c, 0, 70, 100
1, 241632, Note_off_c, 0, 70, 100
1, 241673, Note_on_c, 0, 69, 88
1, 241838, Note_off_c, 0, 69, 88
1, 241863, Note_on_c, 0, 70, 98
1, 242219, Note_off_c, 0, 70, 98
1, 242257, Note_on_c, 0, 69, 84
1, 242474, Note_off_c, 0, 69, 84
1, 242511, Note_on_c, 0, 70, 87
1, 242738, Note_off_c, 0, 70, 87
1, 242768, Note_on_c, 0, 69, 83
1, 242969, Note_off_c, 0, 69, 83
1, 243087, Note_on_c, 0, 69, 101
1, 243303, Note_off_c, 0, 69, 101
1, 243318, Note_on_c, 0, 70, 99
1, 243581, Note_off_c, 0, 70, 99
1, 243587, Note_on_c, 0, 69, 99
1, 243862, Note_off_c, 0, 69, 99
1, 244013, Note_on_c, 0, 65, 90
1, 244142, Note_off_c, 0, 65, 90
1, 244188, Note_on_c, 0, 60, 67
1, 244398, Note_off_c, 0, 60, 67
1, 244492, Note_on_c, 0, 64, 92
1, 244734, Note_off_c, 0, 64, 92
1, 244788, Note_on_c, 0, 65, 94
1, 245550, Note_off_c, 0, 65, 94
1, 245680, Note_on_c, 0, 63, 83
1, 245839, Note_off_c, 0, 63, 83
1, 245872, Note_on_c, 0, 62, 78
1, 246145, Note_off_c, 0, 62, 78
1, 246181, Note_on_c, 0, 63, 107
1, 246356, Note_off_c, 0, 63, 107
1, 246371, Note_on_c, 0, 62, 81
1, 246928, Note_off_c, 0, 62, 81
1, 246974, Note_on_c, 0, 62, 102
1, 247252, Note_off_c, 0, 62, 102
1, 247370, Note_on_c, 0, 61, 82
1, 247767, Note_off_c, 0, 61, 82
1, 247803, Note_on_c, 0, 61, 103
1, 248122, Note_off_c, 0, 61, 103
1, 248204, Note_on_c, 0, 60, 96
1, 248482, Note_off_c, 0, 60, 96
1, 249881, Note_on_c, 0, 69, 79
1, 250196, Note_off_c, 0, 69, 79
1, 250276, Note_on_c, 0, 72, 114
1, 250580, Note_off_c, 0, 72, 114
1, 250631, Note_on_c, 0, 74, 114
1, 250956, Note_off_c, 0, 74, 114
1, 252359, Note_on_c, 0, 81, 103
1, 252777, Note_off_c, 0, 81, 103
1, 252802, Note_on_c, 0, 77, 110
1, 253044, Note_off_c, 0, 77, 110
1, 253044, Note_on_c, 0, 77, 80
1, 253044, Note_off_c, 0, 77, 80
1, 253916, Note_on_c, 0, 77, 90
1, 254127, Note_off_c, 0, 77, 90
1, 254132, Note_on_c, 0, 76, 101
1, 254746, Note_off_c, 0, 76, 101
1, 254792, Note_on_c, 0, 72, 79
1, 255658, Note_off_c, 0, 72, 79
1, 256917, Note_on_c, 0, 74, 84
1, 257076, Note_off_c, 0, 74, 84
1, 257091, Note_on_c, 0, 70, 103
1, 257343, Note_off_c, 0, 70, 103
1, 257461, Note_on_c, 0, 67, 87
1, 257739, Note_off_c, 0, 67, 87
1, 258894, Note_on_c, 0, 74, 82
1, 259095, Note_off_c, 0, 74, 82
1, 259115, Note_on_c, 0, 72, 102
1, 259403, Note_off_c, 0, 72, 102
1, 259655, Note_on_c, 0, 64, 91
1, 259809, Note_off_c, 0, 64, 91
1, 259819, Note_on_c, 0, 65, 91
1, 260092, Note_off_c, 0, 65, 91
1, 260437, Note_on_c, 0, 70, 105
1, 260669, Note_off_c, 0, 70, 105
1, 260880, Note_on_c, 0, 69, 101
1, 261127, Note_off_c, 0, 69, 101
1, 261292, Note_on_c, 0, 65, 97
1, 261625, Note_off_c, 0, 65, 97
1, 261733, Note_on_c, 0, 63, 81
1, 262124, Note_off_c, 0, 63, 81
1, 262202, Note_on_c, 0, 63, 75
1, 262945, Note_off_c, 0, 63, 75
1, 264730, Note_on_c, 0, 65, 86
1, 264889, Note_off_c, 0, 65, 86
1, 264967, Note_on_c, 0, 68, 98
1, 265705, Note_off_c, 0, 68, 98
1, 265743, Note_on_c, 0, 68, 98
1, 266410, Note_off_c, 0, 68, 98
1, 266464, Note_on_c, 0, 65, 77
1, 266623, Note_off_c, 0, 65, 77
1, 266667, Note_on_c, 0, 68, 93
1, 267224, Note_off_c, 0, 68, 93
1, 267234, Note_on_c, 0, 70, 107
1, 267455, Note_off_c, 0, 70, 107
1, 268330, Note_on_c, 0, 70, 98
1, 268750, Note_off_c, 0, 70, 98
1, 268888, Note_on_c, 0, 71, 112
1, 269104, Note_off_c, 0, 71, 112
1, 269967, Note_on_c, 0, 70, 101
1, 270460, Note_off_c, 0, 70, 101
1, 270525, Note_on_c, 0, 68, 100
1, 270735, Note_off_c, 0, 68, 100
1, 270785, Note_on_c, 0, 65, 86
1, 271322, Note_off_c, 0, 65, 86
1, 271605, Note_on_c, 0, 65, 83
1, 272330, Note_off_c, 0, 65, 83
1, 273026, Note_on_c, 0, 69, 95
1, 273265, Note_off_c, 0, 69, 95
1, 273401, Note_on_c, 0, 69, 103
1, 273576, Note_off_c, 0, 69, 103
1, 273603, Note_on_c, 0, 70, 104
1, 273765, Note_off_c, 0, 70, 104
1, 273793, Note_on_c, 0, 69, 99
1, 274804, Note_off_c, 0, 69, 99
1, 277472, Note_on_c, 0, 70, 110
1, 277962, Note_off_c, 0, 70, 110
1, 277986, Note_on_c, 0, 69, 107
1, 278269, Note_off_c, 0, 69, 107
1, 278269, Note_on_c, 0, 65, 90
1, 278740, Note_off_c, 0, 65, 90
1, 278798, Note_on_c, 0, 60, 75
1, 279784, Note_off_c, 0, 60, 75
1, 279878, Note_on_c, 0, 58, 94
1, 280306, Note_off_c, 0, 58, 94
1, 281844, Note_on_c, 0, 69, 82
1, 282112, Note_off_c, 0, 69, 82
1, 282200, Note_on_c, 0, 70, 108
1, 282581, Note_off_c, 0, 70, 108
1, 282632, Note_on_c, 0, 69, 104
1, 282890, Note_off_c, 0, 69, 104
1, 283091, Note_on_c, 0, 65, 92
1, 283338, Note_off_c, 0, 65, 92
1, 283425, Note_on_c, 0, 58, 82
1, 283492, Note_off_c, 0, 58, 82
1, 283494, Note_on_c, 0, 60, 75
1, 283871, Note_off_c, 0, 60, 75
1, 284306, Note_on_c, 0, 64, 87
1, 284690, Note_off_c, 0, 64, 87
1, 284748, Note_on_c, 0, 65, 79
1, 286054, Note_off_c, 0, 65, 79
1, 286632, Note_on_c, 0, 69, 92
1, 287137, Note_off_c, 0, 69, 92
1, 287213, Note_on_c, 0, 65, 94
1, 287557, Note_off_c, 0, 65, 94
1, 289638, Note_on_c, 0, 68, 96
1, 289834, Note_off_c, 0, 68, 96
1, 289845, Note_on_c, 0, 70, 102
1, 290109, Note_off_c, 0, 70, 102
1, 290136, Note_on_c, 0, 69, 94
1, 290770, Note_off_c, 0, 69, 94
1, 290902, Note_on_c, 0, 65, 89
1, 291293, Note_off_c, 0, 65, 89
1, 291460, Note_on_c, 0, 60, 82
1, 292409, Note_off_c, 0, 60, 82
1, 292409, End_track
0, 0, End_of_file
