0, 0, Header, 1, 1, 192
1, 0, Start_track
1, 0, Title_t, "Melody"
1, 0, Tempo, 247933
1, 0, Key_signature, -4, "major"
1, 0, Time_signature, 4, 2, 24, 8
1, 412, Note_on_c, 0, 72, 103
1, 508, Note_off_c, 0, 72, 103
1, 508, Note_on_c, 0, 73, 121
1, 597, Note_off_c, 0, 73, 121
1, 599, Note_on_c, 0, 72, 114
1, 697, Note_off_c, 0, 72, 114
1, 697, Note_on_c, 0, 70, 116
1, 777, Note_off_c, 0, 70, 116
1, 783, Note_on_c, 0, 68, 120
1, 872, Note_off_c, 0, 68, 120
1, 876, Note_on_c, 0, 67, 105
1, 970, Note_off_c, 0, 67, 105
1, 985, Note_on_c, 0, 64, 112
1, 1041, Note_off_c, 0, 64, 112
1, 1205, Note_on_c, 0, 60, 103
1, 1371, Note_off_c, 0, 60, 103
1, 1397, Note_on_c, 0, 65, 115
1, 1516, Note_off_c, 0, 65, 115
1, 1803, Note_on_c, 0, 72, 113
1, 1928, Note_off_c, 0, 72, 113
1, 2202, Note_on_c, 0, 68, 109
1, 2314, Note_off_c, 0, 68, 109
1, 2491, Note_on_c, 0, 64, 98
1, 2571, Note_off_c, 0, 64, 98
1, 2719, Note_on_c, 0, 71, 121
1, 2833, Note_off_c, 0, 71, 121
1, 2873, Note_on_c, 0, 72, 107
1, 3250, Note_off_c, 0, 72, 107
1, 3261, Note_on_c, 0, 73, 116
1, 3341, Note_off_c, 0, 73, 116
1, 3374, Note_on_c, 0, 72, 106
1, 3477, Note_off_c, 0, 72, 106
1, 3483, Note_on_c, 0, 70, 116
1, 3575, Note_off_c, 0, 70, 116
1, 4707, Note_on_c, 0, 73, 112
1, 4817, Note_off_c, 0, 73, 112
1, 4909, Note_on_c, 0, 77, 119
1, 5293, Note_off_c, 0, 77, 119
1, 5335, Note_on_c, 0, 72, 104
1, 5595, Note_off_c, 0, 72, 104
1, 5610, Note_on_c, 0, 75, 95
1, 5740, Note_off_c, 0, 75, 95
1, 5904, Note_on_c, 0, 73, 120
1, 5984, Note_off_c, 0, 73, 120
1, 6228, Note_on_c, 0, 64, 104
1, 6268, Note_off_c, 0, 64, 104
1, 6268, Note_on_c, 0, 65, 101
1, 6362, Note_off_c, 0, 65, 101
1, 6397, Note_on_c, 0, 72, 121
1, 6473, Note_off_c, 0, 72, 121
1, 7814, Note_on_c, 0, 61, 88
1, 7865, Note_off_c, 0, 61, 88
1, 7950, Note_on_c, 0, 63, 108
1, 8003, Note_off_c, 0, 63, 108
1, 8003, Note_on_c, 0, 65, 113
1, 8113, Note_off_c, 0, 65, 113
1, 8128, Note_on_c, 0, 67, 108
1, 8220, Note_on_c, 0, 68, 115
1, 8220, Note_off_c, 0, 67, 108
1, 8309, Note_off_c, 0, 68, 115
1, 8309, Note_on_c, 0, 70, 111
1, 8401, Note_off_c, 0, 70, 111
1, 8551, Note_on_c, 0, 64, 95
1, 8604, Note_off_c, 0, 64, 95
1, 8608, Note_on_c, 0, 65, 96
1, 8686, Note_off_c, 0, 65, 96
1, 8701, Note_on_c, 0, 67, 110
1, 8784, Note_off_c, 0, 67, 110
1, 8795, Note_on_c, 0, 69, 110
1, 8893, Note_off_c, 0, 69, 110
1, 8906, Note_on_c, 0, 71, 126
1, 8966, Note_off_c, 0, 71, 126
1, 8974, Note_on_c, 0, 72, 116
1, 9086, Note_off_c, 0, 72, 116
1, 9092, Note_on_c, 0, 73, 107
1, 9195, Note_off_c, 0, 73, 107
1, 9195, Note_on_c, 0, 74, 122
1, 9287, Note_off_c, 0, 74, 122
1, 9291, Note_on_c, 0, 76, 121
1, 9389, Note_off_c, 0, 76, 121
1, 9389, Note_on_c, 0, 74, 119
1, 9481, Note_off_c, 0, 74, 119
1, 9501, Note_on_c, 0, 72, 103
1, 9588, Note_off_c, 0, 72, 103
1, 9594, Note_on_c, 0, 71, 117
1, 9672, Note_off_c, 0, 71, 117
1, 9687, Note_on_c, 0, 69, 119
1, 9767, Note_off_c, 0, 69, 119
1, 9767, Note_on_c, 0, 67, 113
1, 9861, Note_off_c, 0, 67, 113
1, 10359, Note_on_c, 0, 80, 126
1, 10444, Note_off_c, 0, 80, 126
1, 10455, Note_on_c, 0, 78, 116
1, 10499, Note_off_c, 0, 78, 116
1, 10505, Note_on_c, 0, 76, 111
1, 10554, Note_off_c, 0, 76, 111
1, 10558, Note_on_c, 0, 75, 121
1, 10650, Note_off_c, 0, 75, 121
1, 10658, Note_on_c, 0, 73, 116
1, 10750, Note_off_c, 0, 73, 116
1, 10756, Note_on_c, 0, 71, 116
1, 10850, Note_on_c, 0, 69, 105
1, 10850, Note_off_c, 0, 71, 116
1, 10939, Note_off_c, 0, 69, 105
1, 10952, Note_on_c, 0, 70, 113
1, 11320, Note_off_c, 0, 70, 113
1, 11762, Note_on_c, 0, 62, 86
1, 11820, Note_off_c, 0, 62, 86
1, 11841, Note_on_c, 0, 63, 97
1, 11910, Note_off_c, 0, 63, 97
1, 11924, Note_on_c, 0, 65, 119
1, 12003, Note_off_c, 0, 65, 119
1, 12031, Note_on_c, 0, 67, 115
1, 12093, Note_off_c, 0, 67, 115
1, 12093, Note_on_c, 0, 69, 120
1, 12185, Note_off_c, 0, 69, 120
1, 12189, Note_on_c, 0, 70, 115
1, 12278, Note_off_c, 0, 70, 115
1, 12311, Note_on_c, 0, 72, 119
1, 12391, Note_off_c, 0, 72, 119
1, 12391, Note_on_c, 0, 69, 109
1, 12485, Note_off_c, 0, 69, 109
1, 12487, Note_on_c, 0, 70, 105
1, 12570, Note_off_c, 0, 70, 105
1, 12588, Note_on_c, 0, 72, 113
1, 12659, Note_off_c, 0, 72, 113
1, 12666, Note_on_c, 0, 74, 119
1, 12771, Note_off_c, 0, 74, 119
1, 12798, Note_on_c, 0, 70, 85
1, 12842, Note_off_c, 0, 70, 85
1, 13745, Note_on_c, 0, 77, 121
1, 13804, Note_off_c, 0, 77, 121
1, 13824, Note_on_c, 0, 72, 107
1, 13926, Note_off_c, 0, 72, 107
1, 13998, Note_on_c, 0, 75, 125
1, 14176, Note_off_c, 0, 75, 125
1, 14193, Note_on_c, 0, 73, 110
1, 14286, Note_off_c, 0, 73, 110
1, 14591, Note_on_c, 0, 72, 117
1, 14782, Note_off_c, 0, 72, 117
1, 14797, Note_on_c, 0, 70, 112
1, 14896, Note_off_c, 0, 70, 112
1, 14900, Note_on_c, 0, 68, 117
1, 14985, Note_off_c, 0, 68, 117
1, 14988, Note_on_c, 0, 67, 103
1, 15090, Note_off_c, 0, 67, 103
1, 15110, Note_on_c, 0, 65, 116
1, 15176, Note_off_c, 0, 65, 116
1, 15187, Note_on_c, 0, 63, 100
1, 15277, Note_off_c, 0, 63, 100
1, 15280, Note_on_c, 0, 61, 104
1, 15362, Note_off_c, 0, 61, 104
1, 15365, Note_on_c, 0, 60, 99
1, 15523, Note_off_c, 0, 60, 99
1, 15625, Note_on_c, 0, 65, 93
1, 15656, Note_off_c, 0, 65, 93
1, 15668, Note_on_c, 0, 64, 97
1, 15713, Note_off_c, 0, 64, 97
1, 15714, Note_on_c, 0, 65, 103
1, 15770, Note_off_c, 0, 65, 103
1, 15773, Note_on_c, 0, 70, 115
1, 15863, Note_off_c, 0, 70, 115
1, 15869, Note_on_c, 0, 67, 107
1, 15943, Note_off_c, 0, 67, 107
1, 15952, Note_on_c, 0, 68, 104
1, 16034, Note_off_c, 0, 68, 104
1, 16076, Note_on_c, 0, 70, 108
1, 16148, Note_off_c, 0, 70, 108
1, 16159, Note_on_c, 0, 72, 113
1, 16247, Note_off_c, 0, 72, 113
1, 16248, Note_on_c, 0, 73, 118
1, 16334, Note_off_c, 0, 73, 118
1, 16340, Note_on_c, 0, 72, 114
1, 16439, Note_off_c, 0, 72, 114
1, 16439, Note_on_c, 0, 70, 117
1, 16518, Note_off_c, 0, 70, 117
1, 16525, Note_on_c, 0, 68, 113
1, 16605, Note_off_c, 0, 68, 113
1, 16605, Note_on_c, 0, 67, 102
1, 16687, Note_off_c, 0, 67, 102
1, 16705, Note_on_c, 0, 64, 105
1, 16815, Note_off_c, 0, 64, 105
1, 16827, Note_on_c, 0, 61, 88
1, 16863, Note_off_c, 0, 61, 88
1, 16867, Note_on_c, 0, 65, 104
1, 17246, Note_off_c, 0, 65, 104
1, 17309, Note_on_c, 0, 72, 108
1, 17402, Note_off_c, 0, 72, 108
1, 17463, Note_on_c, 0, 68, 113
1, 17644, Note_off_c, 0, 68, 113
1, 17655, Note_on_c, 0, 64, 97
1, 17923, Note_off_c, 0, 64, 97
1, 17970, Note_on_c, 0, 72, 120
1, 18055, Note_off_c, 0, 72, 120
1, 18845, Note_on_c, 0, 72, 108
1, 18924, Note_off_c, 0, 72, 108
1, 18927, Note_on_c, 0, 73, 114
1, 19018, Note_on_c, 0, 72, 114
1, 19018, Note_off_c, 0, 73, 114
1, 19120, Note_off_c, 0, 72, 114
1, 19120, Note_on_c, 0, 70, 116
1, 19186, Note_off_c, 0, 70, 116
1, 19192, Note_on_c, 0, 68, 120
1, 19275, Note_off_c, 0, 68, 120
1, 19290, Note_on_c, 0, 65, 114
1, 19400, Note_off_c, 0, 65, 114
1, 19986, Note_on_c, 0, 73, 111
1, 20256, Note_off_c, 0, 73, 111
1, 20368, Note_on_c, 0, 72, 117
1, 20600, Note_off_c, 0, 72, 117
1, 20667, Note_on_c, 0, 69, 115
1, 20763, Note_off_c, 0, 69, 115
1, 20778, Note_on_c, 0, 70, 109
1, 20852, Note_off_c, 0, 70, 109
1, 20855, Note_on_c, 0, 65, 115
1, 20900, Note_off_c, 0, 65, 115
1, 20926, Note_on_c, 0, 61, 98
1, 21006, Note_off_c, 0, 61, 98
1, 21042, Note_on_c, 0, 57, 102
1, 21130, Note_off_c, 0, 57, 102
1, 21164, Note_on_c, 0, 63, 113
1, 21285, Note_off_c, 0, 63, 113
1, 21318, Note_on_c, 0, 61, 106
1, 21483, Note_off_c, 0, 61, 106
1, 21494, Note_on_c, 0, 60, 104
1, 21699, Note_off_c, 0, 60, 104
1, 22945, Note_on_c, 0, 72, 122
1, 23039, Note_off_c, 0, 72, 122
1, 23128, Note_on_c, 0, 72, 116
1, 23214, Note_off_c, 0, 72, 116
1, 23316, Note_on_c, 0, 68, 117
1, 23395, Note_off_c, 0, 68, 117
1, 23407, Note_on_c, 0, 65, 112
1, 23607, Note_off_c, 0, 65, 112
1, 23608, Note_on_c, 0, 61, 99
1, 23698, Note_off_c, 0, 61, 99
1, 23800, Note_on_c, 0, 72, 110
1, 24070, Note_off_c, 0, 72, 110
1, 24114, Note_on_c, 0, 72, 121
1, 24186, Note_off_c, 0, 72, 121
1, 24709, Note_on_c, 0, 67, 117
1, 24769, Note_off_c, 0, 67, 117
1, 24786, Note_on_c, 0, 70, 119
1, 24885, Note_off_c, 0, 70, 119
1, 24894, Note_on_c, 0, 67, 111
1, 24980, Note_off_c, 0, 67, 111
1, 24989, Note_on_c, 0, 68, 113
1, 25118, Note_off_c, 0, 68, 113
1, 25127, Note_on_c, 0, 70, 119
1, 25266, Note_off_c, 0, 70, 119
1, 25266, Note_on_c, 0, 73, 110
1, 25542, Note_off_c, 0, 73, 110
1, 25543, Note_on_c, 0, 71, 116
1, 25659, Note_off_c, 0, 71, 116
1, 26055, Note_on_c, 0, 71, 122
1, 26119, Note_off_c, 0, 71, 122
1, 26123, Note_on_c, 0, 72, 108
1, 26164, Note_off_c, 0, 72, 108
1, 26258, Note_on_c, 0, 72, 120
1, 26319, Note_off_c, 0, 72, 120
1, 26454, Note_on_c, 0, 67, 92
1, 26514, Note_off_c, 0, 67, 92
1, 26518, Note_on_c, 0, 63, 104
1, 26680, Note_off_c, 0, 63, 104
1, 26708, Note_on_c, 0, 61, 105
1, 26858, Note_off_c, 0, 61, 105
1, 26940, Note_on_c, 0, 70, 112
1, 27237, Note_off_c, 0, 70, 112
1, 27237, Note_on_c, 0, 70, 116
1, 27300, Note_off_c, 0, 70, 116
1, 28072, Note_on_c, 0, 72, 103
1, 28169, Note_off_c, 0, 72, 103
1, 28169, Note_on_c, 0, 75, 121
1, 28243, Note_off_c, 0, 75, 121
1, 28260, Note_on_c, 0, 72, 107
1, 28364, Note_on_c, 0, 70, 111
1, 28364, Note_off_c, 0, 72, 107
1, 28446, Note_off_c, 0, 70, 111
1, 28446, Note_on_c, 0, 68, 119
1, 28509, Note_off_c, 0, 68, 119
1, 28511, Note_on_c, 0, 69, 115
1, 28564, Note_off_c, 0, 69, 115
1, 28567, Note_on_c, 0, 68, 122
1, 28604, Note_off_c, 0, 68, 122
1, 28604, Note_on_c, 0, 67, 118
1, 28717, Note_off_c, 0, 67, 118
1, 28717, Note_on_c, 0, 64, 117
1, 28822, Note_off_c, 0, 64, 117
1, 29108, Note_on_c, 0, 74, 124
1, 29161, Note_off_c, 0, 74, 124
1, 29168, Note_on_c, 0, 74, 123
1, 29229, Note_off_c, 0, 74, 123
1, 29236, Note_on_c, 0, 72, 120
1, 29476, Note_off_c, 0, 72, 120
1, 29476, Note_on_c, 0, 74, 117
1, 29520, Note_off_c, 0, 74, 117
1, 29534, Note_on_c, 0, 74, 122
1, 29592, Note_off_c, 0, 74, 122
1, 29596, Note_on_c, 0, 72, 122
1, 29859, Note_off_c, 0, 72, 122
1, 29881, Note_on_c, 0, 74, 118
1, 29934, Note_off_c, 0, 74, 118
1, 29949, Note_on_c, 0, 74, 123
1, 30002, Note_off_c, 0, 74, 123
1, 30002, Note_on_c, 0, 72, 121
1, 30245, Note_off_c, 0, 72, 121
1, 30297, Note_on_c, 0, 70, 112
1, 30369, Note_off_c, 0, 70, 112
1, 30369, Note_on_c, 0, 68, 115
1, 30452, Note_off_c, 0, 68, 115
1, 30456, Note_on_c, 0, 64, 108
1, 30539, Note_off_c, 0, 64, 108
1, 30703, Note_on_c, 0, 67, 100
1, 30767, Note_off_c, 0, 67, 100
1, 30844, Note_on_c, 0, 64, 93
1, 30918, Note_off_c, 0, 64, 93
1, 30925, Note_on_c, 0, 65, 93
1, 31015, Note_off_c, 0, 65, 93
1, 31038, Note_on_c, 0, 67, 108
1, 31117, Note_off_c, 0, 67, 108
1, 31120, Note_on_c, 0, 68, 102
1, 31210, Note_off_c, 0, 68, 102
1, 31221, Note_on_c, 0, 72, 112
1, 31290, Note_off_c, 0, 72, 112
1, 32184, Note_on_c, 0, 64, 92
1, 32218, Note_off_c, 0, 64, 92
1, 32218, Note_on_c, 0, 65, 114
1, 32355, Note_off_c, 0, 65, 114
1, 32355, Note_on_c, 0, 67, 106
1, 32479, Note_on_c, 0, 69, 104
1, 32479, Note_off_c, 0, 67, 106
1, 32539, Note_off_c, 0, 69, 104
1, 32539, Note_on_c, 0, 70, 100
1, 32641, Note_off_c, 0, 70, 100
1, 32642, Note_on_c, 0, 72, 122
1, 32751, Note_off_c, 0, 72, 122
1, 32757, Note_on_c, 0, 73, 111
1, 32823, Note_off_c, 0, 73, 111
1, 32823, Note_on_c, 0, 75, 117
1, 32938, Note_off_c, 0, 75, 117
1, 32941, Note_on_c, 0, 71, 123
1, 32975, Note_off_c, 0, 71, 123
1, 32975, Note_on_c, 0, 72, 122
1, 33219, Note_off_c, 0, 72, 122
1, 33219, Note_on_c, 0, 73, 117
1, 33584, Note_off_c, 0, 73, 117
1, 33587, Note_on_c, 0, 69, 104
1, 33964, Note_off_c, 0, 69, 104
1, 33979, Note_on_c, 0, 70, 113
1, 34325, Note_off_c, 0, 70, 113
1, 34555, Note_on_c, 0, 70, 105
1, 34722, Note_off_c, 0, 70, 105
1, 34728, Note_on_c, 0, 72, 121
1, 34925, Note_off_c, 0, 72, 121
1, 34929, Note_on_c, 0, 73, 113
1, 35052, Note_off_c, 0, 73, 113
1, 36193, Note_on_c, 0, 64, 102
1, 36235, Note_off_c, 0, 64, 102
1, 36263, Note_on_c, 0, 65, 102
1, 36337, Note_off_c, 0, 65, 102
1, 36349, Note_on_c, 0, 67, 111
1, 36428, Note_off_c, 0, 67, 111
1, 36439, Note_on_c, 0, 69, 107
1, 36511, Note_off_c, 0, 69, 107
1, 36514, Note_on_c, 0, 71, 113
1, 36623, Note_off_c, 0, 71, 113
1, 36624, Note_on_c, 0, 72, 107
1, 36726, Note_off_c, 0, 72, 107
1, 36740, Note_on_c, 0, 73, 118
1, 36806, Note_off_c, 0, 73, 118
1, 36818, Note_on_c, 0, 74, 118
1, 36879, Note_off_c, 0, 74, 118
1, 36897, Note_on_c, 0, 76, 115
1, 36988, Note_off_c, 0, 76, 115
1, 36988, Note_on_c, 0, 74, 115
1, 37089, Note_off_c, 0, 74, 115
1, 37089, Note_on_c, 0, 72, 116
1, 37182, Note_off_c, 0, 72, 116
1, 37182, Note_on_c, 0, 71, 115
1, 37381, Note_off_c, 0, 71, 115
1, 37381, Note_on_c, 0, 67, 103
1, 37690, Note_off_c, 0, 67, 103
1, 38424, Note_on_c, 0, 70, 117
1, 38495, Note_off_c, 0, 70, 117
1, 38495, Note_on_c, 0, 66, 97
1, 38556, Note_off_c, 0, 66, 97
1, 38699, Note_on_c, 0, 70, 112
1, 38898, Note_off_c, 0, 70, 112
1, 38921, Note_on_c, 0, 66, 107
1, 38992, Note_off_c, 0, 66, 107
1, 39687, Note_on_c, 0, 65, 110
1, 39762, Note_off_c, 0, 65, 110
1, 39771, Note_on_c, 0, 67, 115
1, 39857, Note_off_c, 0, 67, 115
1, 39869, Note_on_c, 0, 69, 109
1, 39963, Note_off_c, 0, 69, 109
1, 39963, Note_on_c, 0, 70, 115
1, 40038, Note_off_c, 0, 70, 115
1, 40049, Note_on_c, 0, 72, 109
1, 40146, Note_off_c, 0, 72, 109
1, 40146, Note_on_c, 0, 74, 122
1, 40248, Note_off_c, 0, 74, 122
1, 40252, Note_on_c, 0, 72, 119
1, 40506, Note_off_c, 0, 72, 119
1, 40553, Note_on_c, 0, 70, 116
1, 40619, Note_off_c, 0, 70, 116
1, 40623, Note_on_c, 0, 69, 113
1, 40806, Note_off_c, 0, 69, 113
1, 40806, Note_on_c, 0, 65, 110
1, 41237, Note_off_c, 0, 65, 110
1, 41602, Note_on_c, 0, 68, 118
1, 41687, Note_off_c, 0, 68, 118
1, 41705, Note_on_c, 0, 65, 102
1, 41747, Note_off_c, 0, 65, 102
1, 41792, Note_on_c, 0, 67, 109
1, 41875, Note_off_c, 0, 67, 109
1, 41884, Note_on_c, 0, 65, 113
1, 41963, Note_off_c, 0, 65, 113
1, 41969, Note_on_c, 0, 63, 99
1, 42068, Note_off_c, 0, 63, 99
1, 42072, Note_on_c, 0, 62, 109
1, 42151, Note_off_c, 0, 62, 109
1, 42163, Note_on_c, 0, 61, 107
1, 42240, Note_off_c, 0, 61, 107
1, 42255, Note_on_c, 0, 63, 99
1, 42334, Note_off_c, 0, 63, 99
1, 42348, Note_on_c, 0, 65, 100
1, 42430, Note_off_c, 0, 65, 100
1, 42460, Note_on_c, 0, 68, 114
1, 42516, Note_off_c, 0, 68, 114
1, 42564, Note_on_c, 0, 72, 114
1, 42658, Note_off_c, 0, 72, 114
1, 42910, Note_on_c, 0, 70, 103
1, 43215, Note_off_c, 0, 70, 103
1, 43224, Note_on_c, 0, 67, 107
1, 43334, Note_off_c, 0, 67, 107
1, 43334, Note_on_c, 0, 68, 98
1, 43427, Note_off_c, 0, 68, 98
1, 43427, Note_on_c, 0, 70, 90
1, 43520, Note_off_c, 0, 70, 90
1, 43527, Note_on_c, 0, 72, 121
1, 43612, Note_on_c, 0, 73, 120
1, 43612, Note_off_c, 0, 72, 121
1, 43711, Note_off_c, 0, 73, 120
1, 43722, Note_on_c, 0, 72, 102
1, 43802, Note_off_c, 0, 72, 102
1, 43803, Note_on_c, 0, 70, 111
1, 43891, Note_off_c, 0, 70, 111
1, 43898, Note_on_c, 0, 68, 107
1, 43958, Note_off_c, 0, 68, 107
1, 43965, Note_on_c, 0, 67, 104
1, 44044, Note_off_c, 0, 67, 104
1, 44064, Note_on_c, 0, 64, 112
1, 44244, Note_off_c, 0, 64, 112
1, 44244, Note_on_c, 0, 60, 95
1, 44384, Note_off_c, 0, 60, 95
1, 44449, Note_on_c, 0, 65, 107
1, 44757, Note_off_c, 0, 65, 107
1, 44768, Note_on_c, 0, 72, 118
1, 44853, Note_off_c, 0, 72, 118
1, 45224, Note_on_c, 0, 64, 108
1, 45385, Note_off_c, 0, 64, 108
1, 45419, Note_on_c, 0, 64, 107
1, 45485, Note_off_c, 0, 64, 107
1, 45511, Note_on_c, 0, 72, 121
1, 45597, Note_off_c, 0, 72, 121
1, 45984, Note_on_c, 0, 72, 10
1, 46061, Note_off_c, 0, 72, 10
1, 46181, Note_on_c, 0, 72, 111
1, 46266, Note_off_c, 0, 72, 111
1, 46365, Note_on_c, 0, 72, 115
1, 46670, Note_off_c, 0, 72, 115
1, 46687, Note_on_c, 0, 73, 125
1, 46772, Note_off_c, 0, 73, 125
1, 46783, Note_on_c, 0, 72, 116
1, 46873, Note_off_c, 0, 72, 116
1, 46873, Note_on_c, 0, 70, 117
1, 46944, Note_off_c, 0, 70, 117
1, 46945, Note_on_c, 0, 68, 119
1, 47027, Note_off_c, 0, 68, 119
1, 47690, Note_on_c, 0, 73, 124
1, 47767, Note_off_c, 0, 73, 124
1, 47877, Note_on_c, 0, 79, 124
1, 47963, Note_off_c, 0, 79, 124
1, 48106, Note_on_c, 0, 72, 108
1, 48180, Note_off_c, 0, 72, 108
1, 48259, Note_on_c, 0, 75, 118
1, 48537, Note_off_c, 0, 75, 118
1, 48598, Note_on_c, 0, 73, 102
1, 48670, Note_off_c, 0, 73, 102
1, 48741, Note_on_c, 0, 63, 105
1, 48794, Note_off_c, 0, 63, 105
1, 48811, Note_on_c, 0, 65, 106
1, 48915, Note_off_c, 0, 65, 106
1, 49012, Note_on_c, 0, 72, 99
1, 49111, Note_off_c, 0, 72, 99
1, 49221, Note_on_c, 0, 72, 113
1, 49333, Note_off_c, 0, 72, 113
1, 49389, Note_on_c, 0, 75, 117
1, 49649, Note_off_c, 0, 75, 117
1, 49707, Note_on_c, 0, 72, 115
1, 49797, Note_on_c, 0, 73, 120
1, 49797, Note_off_c, 0, 72, 115
1, 49894, Note_off_c, 0, 73, 120
1, 49908, Note_on_c, 0, 65, 99
1, 49979, Note_off_c, 0, 65, 99
1, 50113, Note_on_c, 0, 72, 117
1, 50212, Note_off_c, 0, 72, 117
1, 50309, Note_on_c, 0, 70, 117
1, 50391, Note_off_c, 0, 70, 117
1, 51193, Note_on_c, 0, 61, 86
1, 51259, Note_off_c, 0, 61, 86
1, 51259, Note_on_c, 0, 63, 109
1, 51339, Note_off_c, 0, 63, 109
1, 51339, Note_on_c, 0, 65, 114
1, 51432, Note_off_c, 0, 65, 114
1, 51435, Note_on_c, 0, 67, 122
1, 51526, Note_off_c, 0, 67, 122
1, 51529, Note_on_c, 0, 68, 114
1, 51617, Note_off_c, 0, 68, 114
1, 51624, Note_on_c, 0, 70, 107
1, 51725, Note_off_c, 0, 70, 107
1, 51729, Note_on_c, 0, 71, 119
1, 51804, Note_off_c, 0, 71, 119
1, 51811, Note_on_c, 0, 72, 111
1, 51907, Note_off_c, 0, 72, 111
1, 51913, Note_on_c, 0, 73, 125
1, 52012, Note_off_c, 0, 73, 125
1, 52023, Note_on_c, 0, 74, 123
1, 52102, Note_off_c, 0, 74, 123
1, 52105, Note_on_c, 0, 75, 114
1, 52135, Note_off_c, 0, 75, 114
1, 52149, Note_on_c, 0, 72, 104
1, 52193, Note_off_c, 0, 72, 104
1, 52210, Note_on_c, 0, 72, 110
1, 52296, Note_off_c, 0, 72, 110
1, 52299, Note_on_c, 0, 73, 121
1, 52360, Note_off_c, 0, 73, 121
1, 52363, Note_on_c, 0, 74, 115
1, 52415, Note_off_c, 0, 74, 115
1, 52416, Note_on_c, 0, 73, 121
1, 52491, Note_off_c, 0, 73, 121
1, 52495, Note_on_c, 0, 72, 108
1, 52604, Note_off_c, 0, 72, 108
1, 52605, Note_on_c, 0, 69, 117
1, 52687, Note_off_c, 0, 69, 117
1, 52876, Note_on_c, 0, 70, 110
1, 53147, Note_off_c, 0, 70, 110
1, 53159, Note_on_c, 0, 74, 118
1, 53244, Note_off_c, 0, 74, 118
1, 53629, Note_on_c, 0, 71, 121
1, 53711, Note_off_c, 0, 71, 121
1, 53714, Note_on_c, 0, 72, 121
1, 53810, Note_off_c, 0, 72, 121
1, 53925, Note_on_c, 0, 68, 116
1, 54005, Note_off_c, 0, 68, 116
1, 54118, Note_on_c, 0, 65, 95
1, 54195, Note_off_c, 0, 65, 95
1, 54305, Note_on_c, 0, 63, 115
1, 54357, Note_off_c, 0, 63, 115
1, 54374, Note_on_c, 0, 61, 92
1, 54464, Note_off_c, 0, 61, 92
1, 54482, Note_on_c, 0, 63, 109
1, 54554, Note_off_c, 0, 63, 109
1, 54585, Note_on_c, 0, 65, 117
1, 54678, Note_off_c, 0, 65, 117
1, 54678, Note_on_c, 0, 68, 118
1, 54753, Note_off_c, 0, 68, 118
1, 54753, Note_on_c, 0, 72, 117
1, 54846, Note_off_c, 0, 72, 117
1, 54846, Note_on_c, 0, 71, 114
1, 54942, Note_on_c, 0, 70, 112
1, 54942, Note_off_c, 0, 71, 114
1, 55035, Note_off_c, 0, 70, 112
1, 55061, Note_on_c, 0, 69, 118
1, 55141, Note_off_c, 0, 69, 118
1, 55141, Note_on_c, 0, 68, 117
1, 55234, Note_off_c, 0, 68, 117
1, 55235, Note_on_c, 0, 63, 101
1, 55340, Note_off_c, 0, 63, 101
1, 55523, Note_on_c, 0, 63, 113
1, 55619, Note_off_c, 0, 63, 113
1, 56202, Note_on_c, 0, 62, 107
1, 56279, Note_off_c, 0, 62, 107
1, 56280, Note_on_c, 0, 64, 121
1, 56400, Note_off_c, 0, 64, 121
1, 56400, Note_on_c, 0, 65, 115
1, 56475, Note_off_c, 0, 65, 115
1, 56478, Note_on_c, 0, 67, 121
1, 56612, Note_on_c, 0, 69, 113
1, 56612, Note_off_c, 0, 67, 121
1, 56841, Note_off_c, 0, 69, 113
1, 56841, Note_on_c, 0, 70, 120
1, 57035, Note_off_c, 0, 70, 120
1, 57035, Note_on_c, 0, 68, 122
1, 57449, Note_off_c, 0, 68, 122
1, 57452, Note_on_c, 0, 67, 117
1, 57613, Note_off_c, 0, 67, 117
1, 57614, Note_on_c, 0, 64, 116
1, 57813, Note_off_c, 0, 64, 116
1, 57813, Note_on_c, 0, 64, 117
1, 58018, Note_off_c, 0, 64, 117
1, 58019, Note_on_c, 0, 65, 117
1, 58208, Note_off_c, 0, 65, 117
1, 58400, Note_on_c, 0, 67, 121
1, 58437, Note_off_c, 0, 67, 121
1, 58437, Note_on_c, 0, 68, 125
1, 58623, Note_off_c, 0, 68, 125
1, 58623, Note_on_c, 0, 70, 116
1, 58912, Note_off_c, 0, 70, 116
1, 58918, Note_on_c, 0, 68, 116
1, 59161, Note_off_c, 0, 68, 116
1, 59168, Note_on_c, 0, 65, 108
1, 59475, Note_off_c, 0, 65, 108
1, 59925, Note_on_c, 0, 72, 120
1, 60060, Note_off_c, 0, 72, 120
1, 60064, Note_on_c, 0, 73, 122
1, 60209, Note_off_c, 0, 73, 122
1, 60216, Note_on_c, 0, 72, 123
1, 60427, Note_off_c, 0, 72, 123
1, 60427, Note_on_c, 0, 69, 120
1, 60521, Note_off_c, 0, 69, 120
1, 60527, Note_on_c, 0, 70, 114
1, 60623, Note_off_c, 0, 70, 114
1, 60629, Note_on_c, 0, 65, 113
1, 60711, Note_off_c, 0, 65, 113
1, 60723, Note_on_c, 0, 61, 100
1, 60817, Note_off_c, 0, 61, 100
1, 60818, Note_on_c, 0, 63, 103
1, 60928, Note_off_c, 0, 63, 103
1, 60939, Note_on_c, 0, 60, 106
1, 61081, Note_off_c, 0, 60, 106
1, 61090, Note_on_c, 0, 57, 96
1, 61206, Note_off_c, 0, 57, 96
1, 61210, Note_on_c, 0, 58, 93
1, 61296, Note_off_c, 0, 58, 93
1, 61318, Note_on_c, 0, 65, 113
1, 61605, Note_off_c, 0, 65, 113
1, 62945, Note_on_c, 0, 63, 114
1, 63049, Note_off_c, 0, 63, 114
1, 63049, Note_on_c, 0, 65, 116
1, 63131, Note_off_c, 0, 65, 116
1, 63134, Note_on_c, 0, 67, 122
1, 63224, Note_on_c, 0, 68, 109
1, 63224, Note_off_c, 0, 67, 122
1, 63317, Note_off_c, 0, 68, 109
1, 63317, Note_on_c, 0, 70, 107
1, 63410, Note_off_c, 0, 70, 107
1, 63416, Note_on_c, 0, 72, 121
1, 63515, Note_off_c, 0, 72, 121
1, 63624, Note_on_c, 0, 72, 121
1, 63691, Note_off_c, 0, 72, 121
1, 63694, Note_on_c, 0, 73, 112
1, 63791, Note_off_c, 0, 73, 112
1, 63800, Note_on_c, 0, 71, 117
1, 63894, Note_off_c, 0, 71, 117
1, 63897, Note_on_c, 0, 70, 120
1, 63972, Note_off_c, 0, 70, 120
1, 63976, Note_on_c, 0, 68, 108
1, 64072, Note_off_c, 0, 68, 108
1, 64086, Note_on_c, 0, 65, 117
1, 64177, Note_on_c, 0, 63, 111
1, 64177, Note_off_c, 0, 65, 117
1, 64268, Note_off_c, 0, 63, 111
1, 64268, Note_on_c, 0, 62, 99
1, 64337, Note_off_c, 0, 62, 99
1, 64340, Note_on_c, 0, 61, 118
1, 64407, Note_off_c, 0, 61, 118
1, 64419, Note_on_c, 0, 60, 110
1, 64468, Note_off_c, 0, 60, 110
1, 65971, Note_on_c, 0, 69, 123
1, 66061, Note_off_c, 0, 69, 123
1, 66062, Note_on_c, 0, 70, 121
1, 66237, Note_off_c, 0, 70, 121
1, 66249, Note_on_c, 0, 66, 98
1, 66569, Note_off_c, 0, 66, 98
1, 66723, Note_on_c, 0, 63, 100
1, 66809, Note_off_c, 0, 63, 100
1, 66810, Note_on_c, 0, 65, 116
1, 66919, Note_off_c, 0, 65, 116
1, 66926, Note_on_c, 0, 67, 117
1, 67033, Note_off_c, 0, 67, 117
1, 67033, Note_on_c, 0, 69, 114
1, 67126, Note_off_c, 0, 69, 114
1, 67126, Note_on_c, 0, 73, 114
1, 67217, Note_off_c, 0, 73, 114
1, 67218, Note_on_c, 0, 72, 123
1, 67303, Note_off_c, 0, 72, 123
1, 67321, Note_on_c, 0, 68, 105
1, 67393, Note_off_c, 0, 68, 105
1, 67397, Note_on_c, 0, 70, 115
1, 67476, Note_off_c, 0, 70, 115
1, 67480, Note_on_c, 0, 69, 123
1, 67570, Note_off_c, 0, 69, 123
1, 67570, Note_on_c, 0, 67, 112
1, 67666, Note_off_c, 0, 67, 112
1, 67688, Note_on_c, 0, 65, 98
1, 67776, Note_off_c, 0, 65, 98
1, 67790, Note_on_c, 0, 69, 119
1, 67948, Note_off_c, 0, 69, 119
1, 67962, Note_on_c, 0, 67, 119
1, 68134, Note_off_c, 0, 67, 119
1, 68143, Note_on_c, 0, 65, 117
1, 68320, Note_off_c, 0, 65, 117
1, 68323, Note_on_c, 0, 62, 103
1, 68500, Note_off_c, 0, 62, 103
1, 68582, Note_on_c, 0, 70, 115
1, 68649, Note_off_c, 0, 70, 115
1, 68742, Note_on_c, 0, 72, 123
1, 68852, Note_off_c, 0, 72, 123
1, 68852, Note_on_c, 0, 73, 127
1, 68926, Note_off_c, 0, 73, 127
1, 69035, Note_on_c, 0, 63, 92
1, 69058, Note_off_c, 0, 63, 92
1, 69078, Note_on_c, 0, 65, 89
1, 69168, Note_off_c, 0, 65, 89
1, 69207, Note_on_c, 0, 72, 121
1, 69293, Note_off_c, 0, 72, 121
1, 69664, Note_on_c, 0, 70, 89
1, 69768, Note_off_c, 0, 70, 89
1, 69780, Note_on_c, 0, 68, 118
1, 69859, Note_off_c, 0, 68, 118
1, 69874, Note_on_c, 0, 67, 109
1, 69957, Note_off_c, 0, 67, 109
1, 69968, Note_on_c, 0, 70, 110
1, 70065, Note_off_c, 0, 70, 110
1, 70076, Note_on_c, 0, 73, 105
1, 70161, Note_off_c, 0, 73, 105
1, 70241, Note_on_c, 0, 76, 116
1, 70348, Note_off_c, 0, 76, 116
1, 70349, Note_on_c, 0, 74, 122
1, 70434, Note_off_c, 0, 74, 122
1, 70434, Note_on_c, 0, 75, 118
1, 70538, Note_off_c, 0, 75, 118
1, 70545, Note_on_c, 0, 72, 114
1, 70639, Note_off_c, 0, 72, 114
1, 70645, Note_on_c, 0, 73, 118
1, 70809, Note_off_c, 0, 73, 118
1, 70823, Note_on_c, 0, 72, 107
1, 70935, Note_off_c, 0, 72, 107
1, 70949, Note_on_c, 0, 71, 123
1, 71026, Note_off_c, 0, 71, 123
1, 71026, Note_on_c, 0, 70, 114
1, 71105, Note_off_c, 0, 70, 114
1, 71105, Note_on_c, 0, 69, 117
1, 71198, Note_off_c, 0, 69, 117
1, 71431, Note_on_c, 0, 70, 110
1, 71503, Note_on_c, 0, 72, 115
1, 71503, Note_off_c, 0, 70, 110
1, 71615, Note_off_c, 0, 72, 115
1, 71616, Note_on_c, 0, 73, 125
1, 71777, Note_off_c, 0, 73, 125
1, 71778, Note_on_c, 0, 72, 111
1, 71888, Note_off_c, 0, 72, 111
1, 71899, Note_on_c, 0, 70, 120
1, 71976, Note_off_c, 0, 70, 120
1, 71979, Note_on_c, 0, 68, 110
1, 72108, Note_off_c, 0, 68, 110
1, 72187, Note_on_c, 0, 65, 108
1, 72485, Note_off_c, 0, 65, 108
1, 72936, Note_on_c, 0, 72, 114
1, 73019, Note_off_c, 0, 72, 114
1, 73019, Note_on_c, 0, 73, 126
1, 73109, Note_off_c, 0, 73, 126
1, 73116, Note_on_c, 0, 72, 121
1, 73378, Note_off_c, 0, 72, 121
1, 73389, Note_on_c, 0, 70, 113
1, 73471, Note_off_c, 0, 70, 113
1, 73471, Note_on_c, 0, 68, 114
1, 73572, Note_off_c, 0, 68, 114
1, 73592, Note_on_c, 0, 65, 109
1, 73669, Note_off_c, 0, 65, 109
1, 73863, Note_on_c, 0, 65, 106
1, 74062, Note_off_c, 0, 65, 106
1, 75016, Note_on_c, 0, 72, 105
1, 75090, Note_off_c, 0, 72, 105
1, 75193, Note_on_c, 0, 75, 123
1, 75406, Note_off_c, 0, 75, 123
1, 75409, Note_on_c, 0, 73, 119
1, 75584, Note_off_c, 0, 73, 119
1, 75626, Note_on_c, 0, 64, 106
1, 75757, Note_off_c, 0, 64, 106
1, 75772, Note_on_c, 0, 65, 114
1, 76020, Note_off_c, 0, 65, 114
1, 76099, Note_on_c, 0, 72, 124
1, 76211, Note_off_c, 0, 72, 124
1, 76211, Note_on_c, 0, 73, 125
1, 76471, Note_off_c, 0, 73, 125
1, 76471, Note_on_c, 0, 72, 120
1, 76595, Note_off_c, 0, 72, 120
1, 76595, Note_on_c, 0, 70, 119
1, 76691, Note_off_c, 0, 70, 119
1, 76792, Note_on_c, 0, 70, 104
1, 77092, Note_off_c, 0, 70, 104
1, 78223, Note_on_c, 0, 72, 119
1, 78319, Note_off_c, 0, 72, 119
1, 78447, Note_on_c, 0, 72, 123
1, 78857, Note_off_c, 0, 72, 123
1, 78860, Note_on_c, 0, 72, 117
1, 78956, Note_off_c, 0, 72, 117
1, 79033, Note_on_c, 0, 75, 122
1, 79258, Note_off_c, 0, 75, 122
1, 79258, Note_on_c, 0, 72, 120
1, 79441, Note_off_c, 0, 72, 120
1, 79441, Note_on_c, 0, 70, 115
1, 79610, Note_off_c, 0, 70, 115
1, 79610, Note_on_c, 0, 63, 103
1, 79929, Note_off_c, 0, 63, 103
1, 79930, Note_on_c, 0, 63, 97
1, 80197, Note_off_c, 0, 63, 97
1, 80334, Note_on_c, 0, 66, 110
1, 80676, Note_off_c, 0, 66, 110
1, 80677, Note_on_c, 0, 65, 101
1, 80996, Note_off_c, 0, 65, 101
1, 81397, Note_on_c, 0, 61, 94
1, 81471, Note_off_c, 0, 61, 94
1, 81471, Note_on_c, 0, 63, 98
1, 81529, Note_off_c, 0, 63, 98
1, 81538, Note_on_c, 0, 65, 112
1, 81650, Note_off_c, 0, 65, 112
1, 81657, Note_on_c, 0, 67, 118
1, 81748, Note_off_c, 0, 67, 118
1, 81754, Note_on_c, 0, 68, 119
1, 81840, Note_off_c, 0, 68, 119
1, 81840, Note_on_c, 0, 70, 117
1, 81915, Note_off_c, 0, 70, 117
1, 81915, Note_on_c, 0, 72, 109
1, 82011, Note_off_c, 0, 72, 109
1, 82022, Note_on_c, 0, 73, 123
1, 82102, Note_off_c, 0, 73, 123
1, 82102, Note_on_c, 0, 72, 116
1, 82198, Note_off_c, 0, 72, 116
1, 82202, Note_on_c, 0, 71, 119
1, 82288, Note_off_c, 0, 71, 119
1, 82294, Note_on_c, 0, 70, 105
1, 82385, Note_off_c, 0, 70, 105
1, 82386, Note_on_c, 0, 69, 116
1, 82466, Note_off_c, 0, 69, 116
1, 82466, Note_on_c, 0, 68, 114
1, 82565, Note_off_c, 0, 68, 114
1, 82602, Note_on_c, 0, 63, 99
1, 82843, Note_off_c, 0, 63, 99
1, 83154, Note_on_c, 0, 60, 100
1, 83217, Note_off_c, 0, 60, 100
1, 83253, Note_on_c, 0, 63, 106
1, 83327, Note_off_c, 0, 63, 106
1, 83327, Note_on_c, 0, 65, 109
1, 83423, Note_off_c, 0, 65, 109
1, 83423, Note_on_c, 0, 67, 123
1, 83538, Note_off_c, 0, 67, 123
1, 83538, Note_on_c, 0, 68, 107
1, 83626, Note_off_c, 0, 68, 107
1, 83626, Note_on_c, 0, 70, 122
1, 83701, Note_off_c, 0, 70, 122
1, 83701, Note_on_c, 0, 68, 117
1, 83808, Note_off_c, 0, 68, 117
1, 83809, Note_on_c, 0, 67, 116
1, 83984, Note_off_c, 0, 67, 116
1, 83999, Note_on_c, 0, 64, 113
1, 84190, Note_off_c, 0, 64, 113
1, 84194, Note_on_c, 0, 65, 113
1, 84487, Note_off_c, 0, 65, 113
1, 84487, End_track
0, 0, End_of_file
