0, 0, Header, 1, 1, 840
1, 0, Start_track
1, 0, Title_t, "Melody"
1, 0, Tempo, 512820
1, 0, Key_signature, -1, "major"
1, 0, Time_signature, 4, 2, 24, 8
1, 23809, Note_on_c, 0, 68, 99
1, 24049, Note_off_c, 0, 68, 99
1, 24094, Note_on_c, 0, 69, 98
1, 25324, Note_off_c, 0, 69, 98
1, 25377, Note_on_c, 0, 68, 104
1, 26393, Note_off_c, 0, 68, 104
1, 26446, Note_on_c, 0, 69, 94
1, 28237, Note_off_c, 0, 69, 94
1, 28370, Note_on_c, 0, 68, 106
1, 29606, Note_off_c, 0, 68, 106
1, 29606, Note_on_c, 0, 69, 109
1, 29986, Note_off_c, 0, 69, 109
1, 30043, Note_on_c, 0, 67, 94
1, 30309, Note_off_c, 0, 67, 94
1, 30549, Note_on_c, 0, 65, 104
1, 31645, Note_off_c, 0, 65, 104
1, 31677, Note_on_c, 0, 65, 83
1, 34130, Note_off_c, 0, 65, 83
1, 37273, Note_on_c, 0, 71, 115
1, 38516, Note_off_c, 0, 71, 115
1, 38569, Note_on_c, 0, 70, 113
1, 41390, Note_off_c, 0, 70, 113
1, 41456, Note_on_c, 0, 69, 111
1, 41830, Note_off_c, 0, 69, 111
1, 41856, Note_on_c, 0, 68, 106
1, 42230, Note_off_c, 0, 68, 106
1, 42283, Note_on_c, 0, 69, 110
1, 43071, Note_off_c, 0, 69, 110
1, 43071, Note_on_c, 0, 68, 102
1, 43485, Note_off_c, 0, 68, 102
1, 43538, Note_on_c, 0, 69, 93
1, 44701, Note_off_c, 0, 69, 93
1, 50624, Note_on_c, 0, 70, 113
1, 51814, Note_off_c, 0, 70, 113
1, 51880, Note_on_c, 0, 68, 99
1, 52000, Note_off_c, 0, 68, 99
1, 52026, Note_on_c, 0, 71, 102
1, 53149, Note_off_c, 0, 71, 102
1, 53911, Note_on_c, 0, 68, 99
1, 55208, Note_off_c, 0, 68, 99
1, 55274, Note_on_c, 0, 69, 103
1, 57520, Note_off_c, 0, 69, 103
1, 57966, Note_on_c, 0, 68, 91
1, 58118, Note_off_c, 0, 68, 91
1, 58188, Note_on_c, 0, 69, 110
1, 58950, Note_off_c, 0, 69, 110
1, 59055, Note_on_c, 0, 69, 111
1, 59245, Note_off_c, 0, 69, 111
1, 59270, Note_on_c, 0, 70, 112
1, 60259, Note_off_c, 0, 70, 112
1, 60285, Note_on_c, 0, 68, 96
1, 61809, Note_off_c, 0, 68, 96
1, 64817, Note_on_c, 0, 68, 115
1, 65298, Note_off_c, 0, 68, 115
1, 65458, Note_on_c, 0, 70, 111
1, 66340, Note_off_c, 0, 70, 111
1, 66340, Note_on_c, 0, 70, 80
1, 66340, Note_off_c, 0, 70, 80
1, 67369, Note_on_c, 0, 71, 112
1, 68732, Note_off_c, 0, 71, 112
1, 68772, Note_on_c, 0, 72, 114
1, 69453, Note_off_c, 0, 72, 114
1, 69493, Note_on_c, 0, 73, 111
1, 69827, Note_off_c, 0, 73, 111
1, 69880, Note_on_c, 0, 65, 95
1, 70281, Note_off_c, 0, 65, 95
1, 70334, Note_on_c, 0, 66, 100
1, 72272, Note_off_c, 0, 66, 100
1, 72352, Note_on_c, 0, 67, 92
1, 73608, Note_off_c, 0, 67, 92
1, 73648, Note_on_c, 0, 65, 96
1, 74383, Note_off_c, 0, 65, 96
1, 74891, Note_on_c, 0, 68, 110
1, 75292, Note_off_c, 0, 68, 110
1, 75332, Note_on_c, 0, 67, 113
1, 75545, Note_off_c, 0, 67, 113
1, 75598, Note_on_c, 0, 68, 104
1, 75664, Note_off_c, 0, 68, 104
1, 75690, Note_on_c, 0, 65, 113
1, 76091, Note_off_c, 0, 65, 113
1, 76184, Note_on_c, 0, 60, 103
1, 76504, Note_off_c, 0, 60, 103
1, 76530, Note_on_c, 0, 53, 102
1, 76944, Note_off_c, 0, 53, 102
1, 82518, Note_on_c, 0, 77, 93
1, 82822, Note_off_c, 0, 77, 93
1, 83316, Note_on_c, 0, 72, 107
1, 83686, Note_off_c, 0, 72, 107
1, 84161, Note_on_c, 0, 68, 107
1, 84569, Note_off_c, 0, 68, 107
1, 85538, Note_on_c, 0, 65, 105
1, 85880, Note_off_c, 0, 65, 105
1, 88390, Note_on_c, 0, 68, 109
1, 88741, Note_off_c, 0, 68, 109
1, 88750, Note_on_c, 0, 68, 105
1, 89130, Note_off_c, 0, 68, 105
1, 89139, Note_on_c, 0, 69, 106
1, 89291, Note_off_c, 0, 69, 106
1, 89300, Note_on_c, 0, 68, 99
1, 89575, Note_off_c, 0, 68, 99
1, 89660, Note_on_c, 0, 68, 102
1, 89992, Note_off_c, 0, 68, 102
1, 90068, Note_on_c, 0, 69, 104
1, 90514, Note_off_c, 0, 69, 104
1, 90865, Note_on_c, 0, 65, 96
1, 91635, Note_off_c, 0, 65, 96
1, 91682, Note_on_c, 0, 65, 89
1, 91862, Note_off_c, 0, 65, 89
1, 92071, Note_on_c, 0, 65, 86
1, 93278, Note_off_c, 0, 65, 86
1, 96025, Note_on_c, 0, 62, 92
1, 96281, Note_off_c, 0, 62, 92
1, 96328, Note_on_c, 0, 63, 9
1, 99104, Note_off_c, 0, 63, 9
1, 99132, Note_on_c, 0, 62, 88
1, 99597, Note_off_c, 0, 62, 88
1, 105159, Note_on_c, 0, 61, 93
1, 105292, Note_off_c, 0, 61, 93
1, 105358, Note_on_c, 0, 63, 108
1, 106727, Note_off_c, 0, 63, 108
1, 106746, Note_on_c, 0, 62, 100
1, 107230, Note_off_c, 0, 62, 100
1, 107277, Note_on_c, 0, 60, 96
1, 108779, Note_off_c, 0, 60, 96
1, 110604, Note_on_c, 0, 56, 103
1, 110965, Note_off_c, 0, 56, 103
1, 110993, Note_on_c, 0, 53, 102
1, 111373, Note_off_c, 0, 53, 102
1, 111420, Note_on_c, 0, 53, 103
1, 111733, Note_off_c, 0, 53, 103
1, 111780, Note_on_c, 0, 53, 101
1, 112103, Note_off_c, 0, 53, 101
1, 116819, Note_on_c, 0, 72, 88
1, 116990, Note_off_c, 0, 72, 88
1, 116999, Note_on_c, 0, 77, 93
1, 117160, Note_off_c, 0, 77, 93
1, 117701, Note_on_c, 0, 77, 107
1, 118081, Note_off_c, 0, 77, 107
1, 118100, Note_on_c, 0, 79, 105
1, 118318, Note_off_c, 0, 79, 105
1, 118470, Note_on_c, 0, 77, 105
1, 118935, Note_off_c, 0, 77, 105
1, 118935, Note_on_c, 0, 79, 105
1, 119068, Note_off_c, 0, 79, 105
1, 124402, Note_on_c, 0, 88, 79
1, 124497, Note_off_c, 0, 88, 79
1, 124554, Note_on_c, 0, 90, 108
1, 124829, Note_off_c, 0, 90, 108
1, 124933, Note_on_c, 0, 89, 103
1, 125494, Note_off_c, 0, 89, 103
1, 125589, Note_on_c, 0, 90, 97
1, 125874, Note_off_c, 0, 90, 97
1, 128539, Note_on_c, 0, 80, 104
1, 129809, Note_off_c, 0, 80, 104
1, 129862, Note_on_c, 0, 82, 102
1, 130129, Note_off_c, 0, 82, 102
1, 130155, Note_on_c, 0, 80, 104
1, 130328, Note_off_c, 0, 80, 104
1, 130341, Note_on_c, 0, 82, 101
1, 130568, Note_off_c, 0, 82, 101
1, 130568, Note_on_c, 0, 80, 105
1, 130822, Note_off_c, 0, 80, 105
1, 130848, Note_on_c, 0, 81, 100
1, 131048, Note_off_c, 0, 81, 100
1, 131088, Note_on_c, 0, 80, 105
1, 131221, Note_off_c, 0, 80, 105
1, 131274, Note_on_c, 0, 82, 102
1, 131367, Note_off_c, 0, 82, 102
1, 131393, Note_on_c, 0, 80, 103
1, 131566, Note_off_c, 0, 80, 103
1, 131632, Note_on_c, 0, 82, 103
1, 132086, Note_off_c, 0, 82, 103
1, 132219, Note_on_c, 0, 77, 110
1, 132807, Note_off_c, 0, 77, 110
1, 132927, Note_on_c, 0, 75, 105
1, 133247, Note_off_c, 0, 75, 105
1, 133273, Note_on_c, 0, 77, 104
1, 133433, Note_off_c, 0, 77, 104
1, 133459, Note_on_c, 0, 75, 102
1, 133672, Note_off_c, 0, 75, 102
1, 133738, Note_on_c, 0, 77, 109
1, 133925, Note_off_c, 0, 77, 109
1, 133978, Note_on_c, 0, 75, 106
1, 134138, Note_off_c, 0, 75, 106
1, 134178, Note_on_c, 0, 77, 107
1, 134298, Note_off_c, 0, 77, 107
1, 134312, Note_on_c, 0, 75, 108
1, 134405, Note_off_c, 0, 75, 108
1, 134413, Note_on_c, 0, 74, 108
1, 134508, Note_off_c, 0, 74, 108
1, 134539, Note_on_c, 0, 75, 109
1, 134651, Note_off_c, 0, 75, 109
1, 134670, Note_on_c, 0, 72, 104
1, 135204, Note_off_c, 0, 72, 104
1, 135404, Note_on_c, 0, 68, 105
1, 139923, Note_off_c, 0, 68, 105
1, 140003, Note_on_c, 0, 69, 100
1, 141834, Note_off_c, 0, 69, 100
1, 145048, Note_on_c, 0, 68, 96
1, 145181, Note_off_c, 0, 68, 96
1, 145209, Note_on_c, 0, 72, 108
1, 145389, Note_off_c, 0, 72, 108
1, 145417, Note_on_c, 0, 69, 112
1, 145559, Note_off_c, 0, 69, 112
1, 145578, Note_on_c, 0, 68, 105
1, 145787, Note_off_c, 0, 68, 105
1, 145806, Note_on_c, 0, 69, 106
1, 145967, Note_off_c, 0, 69, 106
1, 145976, Note_on_c, 0, 71, 111
1, 146223, Note_off_c, 0, 71, 111
1, 146251, Note_on_c, 0, 73, 113
1, 146412, Note_off_c, 0, 73, 113
1, 146431, Note_on_c, 0, 75, 112
1, 146602, Note_off_c, 0, 75, 112
1, 146630, Note_on_c, 0, 77, 107
1, 146763, Note_off_c, 0, 77, 107
1, 146810, Note_on_c, 0, 78, 112
1, 146990, Note_off_c, 0, 78, 112
1, 147018, Note_on_c, 0, 80, 109
1, 147217, Note_off_c, 0, 80, 109
1, 147217, Note_on_c, 0, 83, 114
1, 147369, Note_off_c, 0, 83, 114
1, 147414, Note_on_c, 0, 85, 115
1, 147474, Note_off_c, 0, 85, 115
1, 147487, Note_on_c, 0, 84, 117
1, 147634, Note_off_c, 0, 84, 117
1, 147640, Note_on_c, 0, 86, 117
1, 147820, Note_off_c, 0, 86, 117
1, 147833, Note_on_c, 0, 83, 113
1, 148040, Note_off_c, 0, 83, 113
1, 148046, Note_on_c, 0, 84, 116
1, 148286, Note_off_c, 0, 84, 116
1, 150588, Note_on_c, 0, 88, 80
1, 150661, Note_off_c, 0, 88, 80
1, 150745, Note_on_c, 0, 90, 114
1, 151012, Note_off_c, 0, 90, 114
1, 151032, Note_on_c, 0, 89, 114
1, 151199, Note_off_c, 0, 89, 114
1, 151219, Note_on_c, 0, 90, 110
1, 151473, Note_off_c, 0, 90, 110
1, 151499, Note_on_c, 0, 87, 109
1, 151585, Note_off_c, 0, 87, 109
1, 151585, Note_on_c, 0, 86, 103
1, 151671, Note_off_c, 0, 86, 103
1, 151697, Note_on_c, 0, 84, 101
1, 151910, Note_off_c, 0, 84, 101
1, 151943, Note_on_c, 0, 84, 110
1, 152023, Note_off_c, 0, 84, 110
1, 152036, Note_on_c, 0, 82, 108
1, 152149, Note_off_c, 0, 82, 108
1, 152182, Note_on_c, 0, 81, 112
1, 152389, Note_off_c, 0, 81, 112
1, 152422, Note_on_c, 0, 79, 106
1, 152582, Note_off_c, 0, 79, 106
1, 152595, Note_on_c, 0, 77, 110
1, 152795, Note_off_c, 0, 77, 110
1, 152815, Note_on_c, 0, 76, 112
1, 153008, Note_off_c, 0, 76, 112
1, 153021, Note_on_c, 0, 75, 109
1, 153188, Note_off_c, 0, 75, 109
1, 153201, Note_on_c, 0, 72, 110
1, 153421, Note_off_c, 0, 72, 110
1, 153447, Note_on_c, 0, 71, 102
1, 153627, Note_off_c, 0, 71, 102
1, 153867, Note_on_c, 0, 70, 108
1, 154054, Note_off_c, 0, 70, 108
1, 154094, Note_on_c, 0, 69, 108
1, 154200, Note_off_c, 0, 69, 108
1, 154681, Note_on_c, 0, 69, 108
1, 154834, Note_off_c, 0, 69, 108
1, 154860, Note_on_c, 0, 68, 111
1, 155087, Note_off_c, 0, 68, 111
1, 155474, Note_on_c, 0, 65, 108
1, 155901, Note_off_c, 0, 65, 108
1, 156322, Note_on_c, 0, 68, 105
1, 158882, Note_off_c, 0, 68, 105
1, 158908, Note_on_c, 0, 69, 103
1, 160111, Note_off_c, 0, 69, 103
1, 160171, Note_on_c, 0, 68, 102
1, 161762, Note_off_c, 0, 68, 102
1, 161802, Note_on_c, 0, 69, 99
1, 163680, Note_off_c, 0, 69, 99
1, 163686, Note_on_c, 0, 68, 100
1, 164822, Note_off_c, 0, 68, 100
1, 164855, Note_on_c, 0, 69, 101
1, 166004, Note_off_c, 0, 69, 101
1, 166042, Note_on_c, 0, 68, 87
1, 178079, Note_off_c, 0, 68, 87
1, 182509, Note_on_c, 0, 65, 100
1, 182851, Note_off_c, 0, 65, 100
1, 182908, Note_on_c, 0, 65, 110
1, 183250, Note_off_c, 0, 65, 110
1, 183326, Note_on_c, 0, 65, 114
1, 183687, Note_off_c, 0, 65, 114
1, 183725, Note_on_c, 0, 65, 105
1, 184086, Note_off_c, 0, 65, 105
1, 184152, Note_on_c, 0, 65, 107
1, 184494, Note_off_c, 0, 65, 107
1, 190893, Note_on_c, 0, 77, 73
1, 191178, Note_off_c, 0, 77, 73
1, 192147, Note_on_c, 0, 70, 107
1, 192508, Note_off_c, 0, 70, 107
1, 193411, Note_on_c, 0, 71, 107
1, 193753, Note_off_c, 0, 71, 107
1, 194618, Note_on_c, 0, 72, 106
1, 195131, Note_off_c, 0, 72, 106
1, 195207, Note_on_c, 0, 69, 97
1, 195644, Note_off_c, 0, 69, 97
1, 195777, Note_on_c, 0, 65, 99
1, 196119, Note_off_c, 0, 65, 99
1, 196176, Note_on_c, 0, 63, 9
1, 196556, Note_off_c, 0, 63, 9
1, 196613, Note_on_c, 0, 60, 89
1, 196898, Note_off_c, 0, 60, 89
1, 197088, Note_on_c, 0, 65, 98
1, 197582, Note_off_c, 0, 65, 98
1, 197601, Note_on_c, 0, 63, 88
1, 200092, Note_off_c, 0, 63, 88
1, 202564, Note_on_c, 0, 61, 104
1, 206253, Note_off_c, 0, 61, 104
1, 206329, Note_on_c, 0, 59, 99
1, 207926, Note_off_c, 0, 59, 99
1, 210217, Note_on_c, 0, 54, 101
1, 210426, Note_off_c, 0, 54, 101
1, 210511, Note_on_c, 0, 56, 107
1, 213363, Note_off_c, 0, 56, 107
1, 213401, Note_on_c, 0, 55, 100
1, 214713, Note_off_c, 0, 55, 100
1, 216785, Note_on_c, 0, 53, 105
1, 217165, Note_off_c, 0, 53, 105
1, 217241, Note_on_c, 0, 52, 106
1, 217488, Note_off_c, 0, 52, 106
1, 217545, Note_on_c, 0, 53, 105
1, 217982, Note_off_c, 0, 53, 105
1, 225398, Note_on_c, 0, 65, 95
1, 225759, Note_off_c, 0, 65, 95
1, 225797, Note_on_c, 0, 63, 88
1, 228706, Note_off_c, 0, 63, 88
1, 228763, Note_on_c, 0, 60, 83
1, 229732, Note_off_c, 0, 60, 83
1, 229941, Note_on_c, 0, 55, 87
1, 233116, Note_off_c, 0, 55, 87
1, 235835, Note_on_c, 0, 68, 115
1, 236120, Note_off_c, 0, 68, 115
1, 236158, Note_on_c, 0, 68, 112
1, 236633, Note_off_c, 0, 68, 112
1, 236690, Note_on_c, 0, 68, 112
1, 237089, Note_off_c, 0, 68, 112
1, 237108, Note_on_c, 0, 67, 90
1, 237374, Note_off_c, 0, 67, 90
1, 237906, Note_on_c, 0, 65, 88
1, 238229, Note_off_c, 0, 65, 88
1, 238305, Note_on_c, 0, 65, 92
1, 238685, Note_off_c, 0, 65, 92
1, 244837, Note_on_c, 0, 74, 96
1, 244960, Note_off_c, 0, 74, 96
1, 244988, Note_on_c, 0, 77, 92
1, 245159, Note_off_c, 0, 77, 92
1, 245197, Note_on_c, 0, 77, 90
1, 245387, Note_off_c, 0, 77, 90
1, 245596, Note_on_c, 0, 77, 100
1, 245748, Note_off_c, 0, 77, 100
1, 245786, Note_on_c, 0, 77, 112
1, 246213, Note_off_c, 0, 77, 112
1, 246270, Note_on_c, 0, 77, 114
1, 246412, Note_off_c, 0, 77, 114
1, 246744, Note_on_c, 0, 77, 110
1, 246953, Note_off_c, 0, 77, 110
1, 246981, Note_on_c, 0, 77, 100
1, 247142, Note_off_c, 0, 77, 100
1, 247360, Note_on_c, 0, 77, 96
1, 247540, Note_off_c, 0, 77, 96
1, 247730, Note_on_c, 0, 77, 107
1, 247929, Note_off_c, 0, 77, 107
1, 248223, Note_on_c, 0, 77, 97
1, 248432, Note_off_c, 0, 77, 97
1, 248650, Note_on_c, 0, 77, 109
1, 248811, Note_off_c, 0, 77, 109
1, 249039, Note_on_c, 0, 77, 100
1, 249257, Note_off_c, 0, 77, 100
1, 249485, Note_on_c, 0, 77, 105
1, 249684, Note_off_c, 0, 77, 105
1, 250073, Note_on_c, 0, 77, 109
1, 250301, Note_off_c, 0, 77, 109
1, 250320, Note_on_c, 0, 77, 95
1, 250443, Note_off_c, 0, 77, 95
1, 250813, Note_on_c, 0, 77, 109
1, 250984, Note_off_c, 0, 77, 109
1, 251003, Note_on_c, 0, 77, 109
1, 251145, Note_off_c, 0, 77, 109
1, 251392, Note_on_c, 0, 77, 106
1, 251553, Note_off_c, 0, 77, 106
1, 251600, Note_on_c, 0, 77, 108
1, 251761, Note_off_c, 0, 77, 108
1, 252131, Note_on_c, 0, 74, 65
1, 252359, Note_off_c, 0, 74, 65
1, 252435, Note_on_c, 0, 77, 107
1, 252644, Note_off_c, 0, 77, 107
1, 252701, Note_on_c, 0, 79, 92
1, 252891, Note_off_c, 0, 79, 92
1, 253043, Note_on_c, 0, 77, 94
1, 253242, Note_off_c, 0, 77, 94
1, 253460, Note_on_c, 0, 77, 108
1, 253631, Note_off_c, 0, 77, 108
1, 253669, Note_on_c, 0, 77, 109
1, 253811, Note_off_c, 0, 77, 109
1, 254229, Note_on_c, 0, 75, 100
1, 254428, Note_off_c, 0, 75, 100
1, 254722, Note_on_c, 0, 77, 86
1, 254864, Note_off_c, 0, 77, 86
1, 254911, Note_on_c, 0, 77, 109
1, 255110, Note_off_c, 0, 77, 109
1, 255157, Note_on_c, 0, 77, 103
1, 255271, Note_off_c, 0, 77, 103
1, 255385, Note_on_c, 0, 79, 109
1, 255584, Note_off_c, 0, 79, 109
1, 255717, Note_on_c, 0, 77, 109
1, 255935, Note_off_c, 0, 77, 109
1, 256591, Note_on_c, 0, 75, 112
1, 256752, Note_off_c, 0, 75, 112
1, 256771, Note_on_c, 0, 75, 112
1, 256942, Note_off_c, 0, 75, 112
1, 256980, Note_on_c, 0, 77, 111
1, 257170, Note_off_c, 0, 77, 111
1, 257788, Note_on_c, 0, 77, 111
1, 257968, Note_off_c, 0, 77, 111
1, 257996, Note_on_c, 0, 77, 106
1, 258176, Note_off_c, 0, 77, 106
1, 258242, Note_on_c, 0, 77, 115
1, 258365, Note_off_c, 0, 77, 115
1, 258431, Note_on_c, 0, 79, 107
1, 258602, Note_off_c, 0, 79, 107
1, 258839, Note_on_c, 0, 77, 84
1, 259048, Note_off_c, 0, 77, 84
1, 259114, Note_on_c, 0, 75, 98
1, 259304, Note_off_c, 0, 75, 98
1, 260397, Note_on_c, 0, 70, 95
1, 260568, Note_off_c, 0, 70, 95
1, 260625, Note_on_c, 0, 77, 108
1, 260786, Note_off_c, 0, 77, 108
1, 260786, Note_on_c, 0, 77, 80
1, 260786, Note_off_c, 0, 77, 80
1, 260833, Note_on_c, 0, 77, 110
1, 261004, Note_off_c, 0, 77, 110
1, 261023, Note_on_c, 0, 79, 106
1, 261175, Note_off_c, 0, 79, 106
1, 262173, Note_on_c, 0, 72, 97
1, 262287, Note_off_c, 0, 72, 97
1, 262363, Note_on_c, 0, 75, 110
1, 262505, Note_off_c, 0, 75, 110
1, 263132, Note_on_c, 0, 77, 110
1, 263322, Note_off_c, 0, 77, 110
1, 263369, Note_on_c, 0, 79, 106
1, 263521, Note_off_c, 0, 79, 106
1, 263720, Note_on_c, 0, 79, 107
1, 263900, Note_off_c, 0, 79, 107
1, 263938, Note_on_c, 0, 77, 109
1, 264118, Note_off_c, 0, 77, 109
1, 264793, Note_on_c, 0, 75, 109
1, 265040, Note_off_c, 0, 75, 109
1, 265068, Note_on_c, 0, 75, 113
1, 265229, Note_off_c, 0, 75, 113
1, 266046, Note_on_c, 0, 77, 101
1, 266274, Note_off_c, 0, 77, 101
1, 266302, Note_on_c, 0, 79, 105
1, 266463, Note_off_c, 0, 79, 105
1, 266691, Note_on_c, 0, 77, 110
1, 266871, Note_off_c, 0, 77, 110
1, 266880, Note_on_c, 0, 75, 112
1, 267051, Note_off_c, 0, 75, 112
1, 268058, Note_on_c, 0, 72, 106
1, 268248, Note_off_c, 0, 72, 106
1, 268343, Note_on_c, 0, 77, 107
1, 268523, Note_off_c, 0, 77, 107
1, 268979, Note_on_c, 0, 75, 103
1, 269140, Note_off_c, 0, 75, 103
1, 269149, Note_on_c, 0, 77, 111
1, 269301, Note_off_c, 0, 77, 111
1, 269747, Note_on_c, 0, 79, 107
1, 269918, Note_off_c, 0, 79, 107
1, 269918, Note_on_c, 0, 77, 111
1, 270127, Note_off_c, 0, 77, 111
1, 270516, Note_on_c, 0, 75, 110
1, 270706, Note_off_c, 0, 75, 110
1, 271314, Note_on_c, 0, 77, 105
1, 271523, Note_off_c, 0, 77, 105
1, 271561, Note_on_c, 0, 79, 108
1, 271732, Note_off_c, 0, 79, 108
1, 271950, Note_on_c, 0, 79, 105
1, 272130, Note_off_c, 0, 79, 105
1, 272158, Note_on_c, 0, 79, 106
1, 272329, Note_off_c, 0, 79, 106
1, 272557, Note_on_c, 0, 77, 110
1, 272756, Note_off_c, 0, 77, 110
1, 273364, Note_on_c, 0, 77, 108
1, 273544, Note_off_c, 0, 77, 108
1, 273553, Note_on_c, 0, 75, 112
1, 273790, Note_off_c, 0, 75, 112
1, 274607, Note_on_c, 0, 77, 108
1, 274806, Note_off_c, 0, 77, 108
1, 274834, Note_on_c, 0, 79, 107
1, 275005, Note_off_c, 0, 79, 107
1, 275204, Note_on_c, 0, 77, 111
1, 275384, Note_off_c, 0, 77, 111
1, 275593, Note_on_c, 0, 75, 105
1, 275792, Note_off_c, 0, 75, 105
1, 276856, Note_on_c, 0, 72, 85
1, 277008, Note_off_c, 0, 72, 85
1, 277093, Note_on_c, 0, 77, 107
1, 277302, Note_off_c, 0, 77, 107
1, 277311, Note_on_c, 0, 79, 106
1, 277482, Note_off_c, 0, 79, 106
1, 277900, Note_on_c, 0, 77, 106
1, 278099, Note_off_c, 0, 77, 106
1, 278127, Note_on_c, 0, 75, 112
1, 278326, Note_off_c, 0, 75, 112
1, 279010, Note_on_c, 0, 75, 109
1, 279247, Note_off_c, 0, 75, 109
1, 279247, Note_on_c, 0, 77, 109
1, 279418, Note_off_c, 0, 77, 109
1, 279655, Note_on_c, 0, 79, 103
1, 279845, Note_off_c, 0, 79, 103
1, 280082, Note_on_c, 0, 79, 109
1, 280262, Note_off_c, 0, 79, 109
1, 280309, Note_on_c, 0, 79, 109
1, 280461, Note_off_c, 0, 79, 109
1, 280508, Note_on_c, 0, 79, 109
1, 280688, Note_off_c, 0, 79, 109
1, 280726, Note_on_c, 0, 79, 91
1, 280906, Note_off_c, 0, 79, 91
1, 282056, Note_on_c, 0, 76, 108
1, 282208, Note_off_c, 0, 76, 108
1, 282227, Note_on_c, 0, 79, 108
1, 282426, Note_off_c, 0, 79, 108
1, 282445, Note_on_c, 0, 80, 107
1, 282549, Note_off_c, 0, 80, 107
1, 282558, Note_on_c, 0, 77, 95
1, 282729, Note_off_c, 0, 77, 95
1, 282843, Note_on_c, 0, 79, 111
1, 283023, Note_off_c, 0, 79, 111
1, 283061, Note_on_c, 0, 77, 111
1, 283260, Note_off_c, 0, 77, 111
1, 283298, Note_on_c, 0, 77, 108
1, 283516, Note_off_c, 0, 77, 108
1, 284457, Note_on_c, 0, 75, 108
1, 284656, Note_off_c, 0, 75, 108
1, 284675, Note_on_c, 0, 77, 97
1, 284865, Note_off_c, 0, 77, 97
1, 285007, Note_on_c, 0, 79, 107
1, 285178, Note_off_c, 0, 79, 107
1, 285225, Note_on_c, 0, 79, 111
1, 285424, Note_off_c, 0, 79, 111
1, 285443, Note_on_c, 0, 77, 112
1, 285623, Note_off_c, 0, 77, 112
1, 285642, Note_on_c, 0, 77, 104
1, 285841, Note_off_c, 0, 77, 104
1, 288607, Note_on_c, 0, 89, 109
1, 288730, Note_off_c, 0, 89, 109
1, 288749, Note_on_c, 0, 90, 113
1, 288920, Note_off_c, 0, 90, 113
1, 289566, Note_on_c, 0, 78, 113
1, 289879, Note_off_c, 0, 78, 113
1, 289974, Note_on_c, 0, 80, 113
1, 290192, Note_off_c, 0, 80, 113
1, 290277, Note_on_c, 0, 81, 117
1, 291047, Note_off_c, 0, 81, 117
1, 291094, Note_on_c, 0, 79, 110
1, 291445, Note_off_c, 0, 79, 110
1, 291464, Note_on_c, 0, 77, 112
1, 291872, Note_off_c, 0, 77, 112
1, 291938, Note_on_c, 0, 72, 110
1, 292413, Note_off_c, 0, 72, 110
1, 292422, Note_on_c, 0, 67, 110
1, 292640, Note_on_c, 0, 66, 104
1, 292640, Note_off_c, 0, 67, 110
1, 292754, Note_off_c, 0, 66, 104
1, 292887, Note_on_c, 0, 69, 102
1, 293134, Note_off_c, 0, 69, 102
1, 293200, Note_on_c, 0, 65, 112
1, 294417, Note_off_c, 0, 65, 112
1, 294436, Note_on_c, 0, 63, 9
1, 295225, Note_off_c, 0, 63, 9
1, 295272, Note_on_c, 0, 60, 104
1, 295614, Note_off_c, 0, 60, 104
1, 295690, Note_on_c, 0, 56, 103
1, 301433, Note_off_c, 0, 56, 103
1, 303220, Note_on_c, 0, 53, 100
1, 303505, Note_off_c, 0, 53, 100
1, 303562, Note_on_c, 0, 53, 99
1, 303923, Note_off_c, 0, 53, 99
1, 303961, Note_on_c, 0, 53, 101
1, 304331, Note_off_c, 0, 53, 101
1, 304388, Note_on_c, 0, 53, 99
1, 305205, Note_off_c, 0, 53, 99
1, 305205, End_track
0, 0, End_of_file
