0, 0, Header, 1, 1, 192
1, 0, Start_track
1, 0, Title_t, "Melody"
1, 0, Tempo, 218181
1, 0, Time_signature, 4, 2, 24, 8
1, 1715, Note_on_c, 0, 70, 9
1, 1781, Note_off_c, 0, 70, 9
1, 1816, Note_on_c, 0, 65, 9
1, 1861, Note_off_c, 0, 65, 9
1, 1891, Note_on_c, 0, 68, 9
1, 1981, Note_off_c, 0, 68, 9
1, 2015, Note_on_c, 0, 65, 9
1, 2063, Note_off_c, 0, 65, 9
1, 2106, Note_on_c, 0, 67, 77
1, 2369, Note_off_c, 0, 67, 77
1, 2406, Note_on_c, 0, 62, 87
1, 2451, Note_off_c, 0, 62, 87
1, 2504, Note_on_c, 0, 65, 85
1, 2576, Note_off_c, 0, 65, 85
1, 2604, Note_on_c, 0, 62, 80
1, 2651, Note_off_c, 0, 62, 80
1, 2693, Note_on_c, 0, 63, 76
1, 2769, Note_off_c, 0, 63, 76
1, 2783, Note_on_c, 0, 60, 72
1, 2834, Note_off_c, 0, 60, 72
1, 5556, Note_on_c, 0, 74, 96
1, 5600, Note_off_c, 0, 74, 96
1, 5617, Note_on_c, 0, 74, 111
1, 5688, Note_off_c, 0, 74, 111
1, 5703, Note_on_c, 0, 74, 97
1, 5751, Note_off_c, 0, 74, 97
1, 5756, Note_on_c, 0, 74, 9
1, 5804, Note_off_c, 0, 74, 9
1, 5820, Note_on_c, 0, 74, 9
1, 5863, Note_off_c, 0, 74, 9
1, 5877, Note_on_c, 0, 74, 9
1, 5912, Note_off_c, 0, 74, 9
1, 5939, Note_on_c, 0, 74, 9
1, 5986, Note_off_c, 0, 74, 9
1, 5994, Note_on_c, 0, 74, 9
1, 6044, Note_off_c, 0, 74, 9
1, 6061, Note_on_c, 0, 74, 9
1, 6413, Note_off_c, 0, 74, 9
1, 6420, Note_on_c, 0, 75, 94
1, 6620, Note_off_c, 0, 75, 94
1, 6641, Note_on_c, 0, 72, 98
1, 6720, Note_off_c, 0, 72, 98
1, 7213, Note_on_c, 0, 74, 109
1, 7242, Note_off_c, 0, 74, 109
1, 7245, Note_on_c, 0, 74, 101
1, 7296, Note_off_c, 0, 74, 101
1, 7315, Note_on_c, 0, 74, 95
1, 7394, Note_off_c, 0, 74, 95
1, 7404, Note_on_c, 0, 74, 103
1, 7508, Note_off_c, 0, 74, 103
1, 7518, Note_on_c, 0, 74, 76
1, 7682, Note_off_c, 0, 74, 76
1, 7697, Note_on_c, 0, 75, 9
1, 7779, Note_off_c, 0, 75, 9
1, 7805, Note_on_c, 0, 72, 9
1, 7876, Note_off_c, 0, 72, 9
1, 7991, Note_on_c, 0, 67, 9
1, 8167, Note_off_c, 0, 67, 9
1, 8183, Note_on_c, 0, 62, 9
1, 8246, Note_off_c, 0, 62, 9
1, 8256, Note_on_c, 0, 63, 9
1, 8355, Note_off_c, 0, 63, 9
1, 9372, Note_on_c, 0, 63, 116
1, 9442, Note_off_c, 0, 63, 116
1, 9455, Note_on_c, 0, 62, 112
1, 9539, Note_off_c, 0, 62, 112
1, 9560, Note_on_c, 0, 63, 98
1, 9626, Note_off_c, 0, 63, 98
1, 9640, Note_on_c, 0, 65, 98
1, 9724, Note_off_c, 0, 65, 98
1, 9743, Note_on_c, 0, 67, 114
1, 9842, Note_off_c, 0, 67, 114
1, 9857, Note_on_c, 0, 69, 107
1, 9921, Note_off_c, 0, 69, 107
1, 9937, Note_on_c, 0, 70, 96
1, 10016, Note_off_c, 0, 70, 96
1, 10024, Note_on_c, 0, 69, 100
1, 10090, Note_off_c, 0, 69, 100
1, 10102, Note_on_c, 0, 68, 105
1, 10206, Note_off_c, 0, 68, 105
1, 10227, Note_on_c, 0, 70, 102
1, 10289, Note_off_c, 0, 70, 102
1, 10307, Note_on_c, 0, 71, 96
1, 10405, Note_off_c, 0, 71, 96
1, 10417, Note_on_c, 0, 72, 103
1, 10484, Note_off_c, 0, 72, 103
1, 10499, Note_on_c, 0, 73, 9
1, 10599, Note_off_c, 0, 73, 9
1, 10610, Note_on_c, 0, 74, 9
1, 10699, Note_off_c, 0, 74, 9
1, 10706, Note_on_c, 0, 75, 9
1, 10810, Note_off_c, 0, 75, 9
1, 11105, Note_on_c, 0, 72, 69
1, 11167, Note_off_c, 0, 72, 69
1, 11197, Note_on_c, 0, 74, 111
1, 11276, Note_off_c, 0, 74, 111
1, 12692, Note_on_c, 0, 74, 9
1, 12738, Note_off_c, 0, 74, 9
1, 12799, Note_on_c, 0, 74, 9
1, 12854, Note_off_c, 0, 74, 9
1, 12988, Note_on_c, 0, 74, 9
1, 13043, Note_off_c, 0, 74, 9
1, 13174, Note_on_c, 0, 74, 89
1, 13229, Note_off_c, 0, 74, 89
1, 13363, Note_on_c, 0, 74, 104
1, 13627, Note_off_c, 0, 74, 104
1, 13643, Note_on_c, 0, 75, 66
1, 13725, Note_off_c, 0, 75, 66
1, 13861, Note_on_c, 0, 72, 9
1, 14045, Note_off_c, 0, 72, 9
1, 14077, Note_on_c, 0, 72, 9
1, 14156, Note_off_c, 0, 72, 9
1, 15849, Note_on_c, 0, 68, 9
1, 15871, Note_off_c, 0, 68, 9
1, 15924, Note_on_c, 0, 67, 9
1, 15970, Note_off_c, 0, 67, 9
1, 16006, Note_on_c, 0, 68, 9
1, 16081, Note_off_c, 0, 68, 9
1, 16120, Note_on_c, 0, 73, 9
1, 16175, Note_off_c, 0, 73, 9
1, 16192, Note_on_c, 0, 72, 9
1, 16267, Note_off_c, 0, 72, 9
1, 16272, Note_on_c, 0, 74, 64
1, 16356, Note_off_c, 0, 74, 64
1, 16362, Note_on_c, 0, 75, 94
1, 16448, Note_off_c, 0, 75, 94
1, 16461, Note_on_c, 0, 77, 100
1, 16548, Note_off_c, 0, 77, 100
1, 16562, Note_on_c, 0, 79, 95
1, 16635, Note_off_c, 0, 79, 95
1, 16643, Note_on_c, 0, 80, 116
1, 16732, Note_off_c, 0, 80, 116
1, 16738, Note_on_c, 0, 79, 105
1, 16828, Note_off_c, 0, 79, 105
1, 16836, Note_on_c, 0, 78, 9
1, 16906, Note_off_c, 0, 78, 9
1, 16910, Note_on_c, 0, 79, 9
1, 16950, Note_off_c, 0, 79, 9
1, 16959, Note_on_c, 0, 77, 9
1, 17018, Note_off_c, 0, 77, 9
1, 17035, Note_on_c, 0, 76, 9
1, 17115, Note_off_c, 0, 76, 9
1, 17123, Note_on_c, 0, 75, 9
1, 17212, Note_off_c, 0, 75, 9
1, 17221, Note_on_c, 0, 74, 9
1, 17306, Note_off_c, 0, 74, 9
1, 17313, Note_on_c, 0, 72, 9
1, 17395, Note_off_c, 0, 72, 9
1, 17421, Note_on_c, 0, 71, 84
1, 17495, Note_off_c, 0, 71, 84
1, 17518, Note_on_c, 0, 70, 110
1, 17594, Note_off_c, 0, 70, 110
1, 17614, Note_on_c, 0, 69, 99
1, 17682, Note_off_c, 0, 69, 99
1, 17694, Note_on_c, 0, 68, 95
1, 17777, Note_off_c, 0, 68, 95
1, 17814, Note_on_c, 0, 63, 97
1, 17886, Note_off_c, 0, 63, 97
1, 17892, Note_on_c, 0, 60, 38
1, 17957, Note_off_c, 0, 60, 38
1, 17982, Note_on_c, 0, 54, 9
1, 18011, Note_off_c, 0, 54, 9
1, 18027, Note_on_c, 0, 57, 9
1, 18115, Note_off_c, 0, 57, 9
1, 18125, Note_on_c, 0, 58, 9
1, 18246, Note_off_c, 0, 58, 9
1, 18263, Note_on_c, 0, 56, 9
1, 18358, Note_off_c, 0, 56, 9
1, 19619, Note_on_c, 0, 67, 104
1, 19737, Note_off_c, 0, 67, 104
1, 19922, Note_on_c, 0, 67, 110
1, 20113, Note_off_c, 0, 67, 110
1, 20454, Note_on_c, 0, 72, 96
1, 20503, Note_off_c, 0, 72, 96
1, 20623, Note_on_c, 0, 74, 106
1, 20727, Note_off_c, 0, 74, 106
1, 21237, Note_on_c, 0, 72, 94
1, 21317, Note_off_c, 0, 72, 94
1, 21360, Note_on_c, 0, 75, 87
1, 21414, Note_off_c, 0, 75, 87
1, 22019, Note_on_c, 0, 67, 9
1, 22076, Note_off_c, 0, 67, 9
1, 22201, Note_on_c, 0, 67, 58
1, 22673, Note_off_c, 0, 67, 58
1, 22796, Note_on_c, 0, 72, 106
1, 22880, Note_off_c, 0, 72, 106
1, 22885, Note_on_c, 0, 74, 112
1, 22971, Note_off_c, 0, 74, 112
1, 22977, Note_on_c, 0, 75, 94
1, 23060, Note_off_c, 0, 75, 94
1, 23080, Note_on_c, 0, 74, 9
1, 23175, Note_off_c, 0, 74, 9
1, 23581, Note_on_c, 0, 72, 89
1, 23635, Note_off_c, 0, 72, 89
1, 23755, Note_on_c, 0, 71, 93
1, 23827, Note_off_c, 0, 71, 93
1, 24366, Note_on_c, 0, 74, 94
1, 24439, Note_off_c, 0, 74, 94
1, 24467, Note_on_c, 0, 71, 106
1, 24542, Note_off_c, 0, 71, 106
1, 24565, Note_on_c, 0, 72, 108
1, 24624, Note_off_c, 0, 72, 108
1, 24635, Note_on_c, 0, 74, 93
1, 24723, Note_off_c, 0, 74, 93
1, 24732, Note_on_c, 0, 75, 87
1, 24807, Note_off_c, 0, 75, 87
1, 24813, Note_on_c, 0, 78, 105
1, 24865, Note_off_c, 0, 78, 105
1, 24871, Note_on_c, 0, 77, 113
1, 24913, Note_off_c, 0, 77, 113
1, 24913, Note_on_c, 0, 79, 112
1, 24996, Note_off_c, 0, 79, 112
1, 25001, Note_on_c, 0, 80, 102
1, 25106, Note_off_c, 0, 80, 102
1, 25113, Note_on_c, 0, 79, 68
1, 25932, Note_off_c, 0, 79, 68
1, 25940, Note_on_c, 0, 80, 9
1, 26011, Note_off_c, 0, 80, 9
1, 26037, Note_on_c, 0, 73, 78
1, 26118, Note_off_c, 0, 73, 78
1, 26128, Note_on_c, 0, 71, 114
1, 26182, Note_off_c, 0, 71, 114
1, 26714, Note_on_c, 0, 70, 91
1, 26789, Note_off_c, 0, 70, 91
1, 26827, Note_on_c, 0, 67, 109
1, 26892, Note_off_c, 0, 67, 109
1, 26907, Note_on_c, 0, 68, 100
1, 26970, Note_off_c, 0, 68, 100
1, 27008, Note_on_c, 0, 63, 108
1, 27083, Note_off_c, 0, 63, 108
1, 27093, Note_on_c, 0, 59, 91
1, 27155, Note_off_c, 0, 59, 91
1, 27171, Note_on_c, 0, 58, 94
1, 27237, Note_off_c, 0, 58, 94
1, 27280, Note_on_c, 0, 56, 96
1, 27421, Note_off_c, 0, 56, 96
1, 27472, Note_on_c, 0, 58, 109
1, 27667, Note_off_c, 0, 58, 109
1, 28286, Note_on_c, 0, 67, 9
1, 28346, Note_off_c, 0, 67, 9
1, 28363, Note_on_c, 0, 64, 9
1, 28433, Note_off_c, 0, 64, 9
1, 28452, Note_on_c, 0, 65, 9
1, 28517, Note_off_c, 0, 65, 9
1, 28528, Note_on_c, 0, 64, 9
1, 28597, Note_off_c, 0, 64, 9
1, 28632, Note_on_c, 0, 63, 9
1, 28725, Note_off_c, 0, 63, 9
1, 28741, Note_on_c, 0, 66, 9
1, 28827, Note_off_c, 0, 66, 9
1, 28841, Note_on_c, 0, 67, 94
1, 28935, Note_off_c, 0, 67, 94
1, 28949, Note_on_c, 0, 69, 78
1, 29023, Note_off_c, 0, 69, 78
1, 29039, Note_on_c, 0, 70, 105
1, 29115, Note_off_c, 0, 70, 105
1, 29121, Note_on_c, 0, 68, 106
1, 29196, Note_off_c, 0, 68, 106
1, 29211, Note_on_c, 0, 69, 89
1, 29309, Note_off_c, 0, 69, 89
1, 29317, Note_on_c, 0, 67, 103
1, 29396, Note_off_c, 0, 67, 103
1, 29412, Note_on_c, 0, 68, 99
1, 29486, Note_off_c, 0, 68, 99
1, 29504, Note_on_c, 0, 70, 112
1, 29575, Note_off_c, 0, 70, 112
1, 29583, Note_on_c, 0, 71, 106
1, 29680, Note_off_c, 0, 71, 106
1, 29689, Note_on_c, 0, 72, 84
1, 29754, Note_off_c, 0, 72, 84
1, 29769, Note_on_c, 0, 73, 109
1, 29848, Note_off_c, 0, 73, 109
1, 29866, Note_on_c, 0, 74, 112
1, 29952, Note_off_c, 0, 74, 112
1, 29962, Note_on_c, 0, 75, 119
1, 30051, Note_off_c, 0, 75, 119
1, 30068, Note_on_c, 0, 77, 106
1, 30157, Note_off_c, 0, 77, 106
1, 30179, Note_on_c, 0, 79, 76
1, 30251, Note_off_c, 0, 79, 76
1, 30256, Note_on_c, 0, 80, 117
1, 30344, Note_off_c, 0, 80, 117
1, 30347, Note_on_c, 0, 79, 99
1, 30443, Note_off_c, 0, 79, 99
1, 30460, Note_on_c, 0, 76, 113
1, 30530, Note_off_c, 0, 76, 113
1, 30549, Note_on_c, 0, 77, 105
1, 30611, Note_off_c, 0, 77, 105
1, 30630, Note_on_c, 0, 76, 102
1, 30715, Note_off_c, 0, 76, 102
1, 30727, Note_on_c, 0, 75, 101
1, 30797, Note_off_c, 0, 75, 101
1, 30812, Note_on_c, 0, 73, 103
1, 30900, Note_off_c, 0, 73, 103
1, 31316, Note_on_c, 0, 74, 9
1, 31388, Note_off_c, 0, 74, 9
1, 31720, Note_on_c, 0, 75, 91
1, 31796, Note_off_c, 0, 75, 91
1, 32023, Note_on_c, 0, 72, 96
1, 32081, Note_off_c, 0, 72, 96
1, 32300, Note_on_c, 0, 74, 99
1, 32363, Note_off_c, 0, 74, 99
1, 32617, Note_on_c, 0, 75, 99
1, 32692, Note_off_c, 0, 75, 99
1, 32893, Note_on_c, 0, 72, 94
1, 32951, Note_off_c, 0, 72, 94
1, 33179, Note_on_c, 0, 74, 104
1, 33439, Note_off_c, 0, 74, 104
1, 33458, Note_on_c, 0, 75, 9
1, 33781, Note_off_c, 0, 75, 9
1, 33806, Note_on_c, 0, 72, 9
1, 34051, Note_off_c, 0, 72, 9
1, 34068, Note_on_c, 0, 74, 77
1, 34443, Note_off_c, 0, 74, 77
1, 34451, Note_on_c, 0, 75, 100
1, 34530, Note_off_c, 0, 75, 100
1, 34546, Note_on_c, 0, 73, 105
1, 34621, Note_off_c, 0, 73, 105
1, 34636, Note_on_c, 0, 71, 109
1, 34726, Note_off_c, 0, 71, 109
1, 34761, Note_on_c, 0, 69, 114
1, 34821, Note_off_c, 0, 69, 114
1, 34832, Note_on_c, 0, 70, 113
1, 34898, Note_off_c, 0, 70, 113
1, 34914, Note_on_c, 0, 69, 97
1, 34981, Note_off_c, 0, 69, 97
1, 34995, Note_on_c, 0, 68, 90
1, 35079, Note_off_c, 0, 68, 90
1, 35395, Note_on_c, 0, 70, 104
1, 35471, Note_off_c, 0, 70, 104
1, 35483, Note_on_c, 0, 68, 103
1, 35576, Note_off_c, 0, 68, 103
1, 35968, Note_on_c, 0, 70, 98
1, 36056, Note_off_c, 0, 70, 98
1, 37115, Note_on_c, 0, 65, 9
1, 37177, Note_off_c, 0, 65, 9
1, 37276, Note_on_c, 0, 65, 9
1, 37360, Note_off_c, 0, 65, 9
1, 37393, Note_on_c, 0, 62, 9
1, 37459, Note_off_c, 0, 62, 9
1, 37470, Note_on_c, 0, 63, 9
1, 37545, Note_off_c, 0, 63, 9
1, 37562, Note_on_c, 0, 66, 9
1, 37642, Note_off_c, 0, 66, 9
1, 37652, Note_on_c, 0, 67, 9
1, 37740, Note_off_c, 0, 67, 9
1, 37755, Note_on_c, 0, 69, 9
1, 37830, Note_off_c, 0, 69, 9
1, 37841, Note_on_c, 0, 70, 9
1, 37909, Note_off_c, 0, 70, 9
1, 37921, Note_on_c, 0, 69, 9
1, 37997, Note_off_c, 0, 69, 9
1, 38017, Note_on_c, 0, 68, 9
1, 38103, Note_off_c, 0, 68, 9
1, 38106, Note_on_c, 0, 70, 9
1, 38180, Note_off_c, 0, 70, 9
1, 38201, Note_on_c, 0, 71, 9
1, 38276, Note_off_c, 0, 71, 9
1, 38287, Note_on_c, 0, 73, 9
1, 38376, Note_off_c, 0, 73, 9
1, 38396, Note_on_c, 0, 75, 9
1, 38459, Note_off_c, 0, 75, 9
1, 38484, Note_on_c, 0, 77, 9
1, 38554, Note_off_c, 0, 77, 9
1, 38585, Note_on_c, 0, 79, 9
1, 38652, Note_off_c, 0, 79, 9
1, 38659, Note_on_c, 0, 80, 73
1, 38735, Note_off_c, 0, 80, 73
1, 38764, Note_on_c, 0, 75, 115
1, 38841, Note_off_c, 0, 75, 115
1, 38876, Note_on_c, 0, 71, 96
1, 38979, Note_off_c, 0, 71, 96
1, 39727, Note_on_c, 0, 70, 109
1, 39783, Note_off_c, 0, 70, 109
1, 39825, Note_on_c, 0, 70, 108
1, 39892, Note_off_c, 0, 70, 108
1, 39908, Note_on_c, 0, 68, 93
1, 39968, Note_off_c, 0, 68, 93
1, 39994, Note_on_c, 0, 70, 9
1, 40062, Note_off_c, 0, 70, 9
1, 40099, Note_on_c, 0, 61, 9
1, 40166, Note_off_c, 0, 61, 9
1, 40199, Note_on_c, 0, 65, 9
1, 40273, Note_off_c, 0, 65, 9
1, 40288, Note_on_c, 0, 64, 30
1, 40355, Note_off_c, 0, 64, 30
1, 40386, Note_on_c, 0, 66, 110
1, 40456, Note_off_c, 0, 66, 110
1, 40472, Note_on_c, 0, 67, 102
1, 40556, Note_off_c, 0, 67, 102
1, 40582, Note_on_c, 0, 69, 109
1, 40658, Note_off_c, 0, 69, 109
1, 40670, Note_on_c, 0, 70, 112
1, 40750, Note_off_c, 0, 70, 112
1, 40757, Note_on_c, 0, 69, 70
1, 40829, Note_off_c, 0, 69, 70
1, 40859, Note_on_c, 0, 68, 9
1, 40917, Note_off_c, 0, 68, 9
1, 40945, Note_on_c, 0, 70, 9
1, 41010, Note_off_c, 0, 70, 9
1, 41029, Note_on_c, 0, 71, 9
1, 41101, Note_off_c, 0, 71, 9
1, 41116, Note_on_c, 0, 72, 77
1, 41187, Note_off_c, 0, 72, 77
1, 41203, Note_on_c, 0, 75, 104
1, 41274, Note_off_c, 0, 75, 104
1, 41303, Note_on_c, 0, 77, 105
1, 41388, Note_off_c, 0, 77, 105
1, 41400, Note_on_c, 0, 79, 109
1, 41471, Note_off_c, 0, 79, 109
1, 41483, Note_on_c, 0, 80, 106
1, 41914, Note_off_c, 0, 80, 106
1, 41921, Note_on_c, 0, 79, 94
1, 42001, Note_off_c, 0, 79, 94
1, 42020, Note_on_c, 0, 73, 112
1, 42092, Note_off_c, 0, 73, 112
1, 42095, Note_on_c, 0, 71, 105
1, 42194, Note_off_c, 0, 71, 105
1, 42223, Note_on_c, 0, 70, 93
1, 42297, Note_off_c, 0, 70, 93
1, 42955, Note_on_c, 0, 70, 119
1, 43028, Note_off_c, 0, 70, 119
1, 43036, Note_on_c, 0, 69, 109
1, 43102, Note_off_c, 0, 69, 109
1, 43135, Note_on_c, 0, 67, 88
1, 43193, Note_off_c, 0, 67, 88
1, 43227, Note_on_c, 0, 70, 113
1, 43287, Note_off_c, 0, 70, 113
1, 43322, Note_on_c, 0, 71, 107
1, 43389, Note_off_c, 0, 71, 107
1, 43428, Note_on_c, 0, 73, 106
1, 43504, Note_off_c, 0, 73, 106
1, 43515, Note_on_c, 0, 76, 106
1, 43573, Note_off_c, 0, 76, 106
1, 43592, Note_on_c, 0, 77, 94
1, 43685, Note_off_c, 0, 77, 94
1, 43700, Note_on_c, 0, 81, 105
1, 43767, Note_off_c, 0, 81, 105
1, 43777, Note_on_c, 0, 80, 106
1, 43851, Note_off_c, 0, 80, 106
1, 43873, Note_on_c, 0, 79, 100
1, 44144, Note_off_c, 0, 79, 100
1, 44182, Note_on_c, 0, 78, 88
1, 44260, Note_off_c, 0, 78, 88
1, 44273, Note_on_c, 0, 77, 101
1, 44360, Note_off_c, 0, 77, 101
1, 44384, Note_on_c, 0, 76, 95
1, 44440, Note_off_c, 0, 76, 95
1, 44449, Note_on_c, 0, 75, 101
1, 44536, Note_off_c, 0, 75, 101
1, 44553, Note_on_c, 0, 73, 113
1, 44630, Note_off_c, 0, 73, 113
1, 44657, Note_on_c, 0, 72, 101
1, 44738, Note_off_c, 0, 72, 101
1, 44755, Note_on_c, 0, 69, 102
1, 44815, Note_off_c, 0, 69, 102
1, 44835, Note_on_c, 0, 70, 91
1, 44913, Note_off_c, 0, 70, 91
1, 44939, Note_on_c, 0, 69, 98
1, 45027, Note_off_c, 0, 69, 98
1, 45039, Note_on_c, 0, 64, 96
1, 45111, Note_off_c, 0, 64, 96
1, 45121, Note_on_c, 0, 62, 112
1, 45188, Note_off_c, 0, 62, 112
1, 45207, Note_on_c, 0, 59, 108
1, 45252, Note_off_c, 0, 59, 108
1, 45269, Note_on_c, 0, 56, 103
1, 45415, Note_off_c, 0, 56, 103
1, 45787, Note_on_c, 0, 66, 107
1, 45866, Note_off_c, 0, 66, 107
1, 45888, Note_on_c, 0, 63, 100
1, 45955, Note_off_c, 0, 63, 100
1, 45966, Note_on_c, 0, 64, 103
1, 46027, Note_off_c, 0, 64, 103
1, 46047, Note_on_c, 0, 66, 102
1, 46119, Note_off_c, 0, 66, 102
1, 46136, Note_on_c, 0, 67, 112
1, 46241, Note_off_c, 0, 67, 112
1, 46251, Note_on_c, 0, 69, 105
1, 46323, Note_off_c, 0, 69, 105
1, 46327, Note_on_c, 0, 70, 101
1, 46388, Note_off_c, 0, 70, 101
1, 46405, Note_on_c, 0, 69, 102
1, 46462, Note_off_c, 0, 69, 102
1, 46481, Note_on_c, 0, 68, 91
1, 46544, Note_off_c, 0, 68, 91
1, 46579, Note_on_c, 0, 70, 101
1, 46658, Note_off_c, 0, 70, 101
1, 46675, Note_on_c, 0, 71, 112
1, 46751, Note_off_c, 0, 71, 112
1, 46759, Note_on_c, 0, 73, 103
1, 46833, Note_off_c, 0, 73, 103
1, 46850, Note_on_c, 0, 75, 99
1, 46934, Note_off_c, 0, 75, 99
1, 46941, Note_on_c, 0, 77, 94
1, 47023, Note_off_c, 0, 77, 94
1, 47026, Note_on_c, 0, 79, 104
1, 47099, Note_off_c, 0, 79, 104
1, 47107, Note_on_c, 0, 80, 105
1, 47210, Note_off_c, 0, 80, 105
1, 47218, Note_on_c, 0, 79, 109
1, 47306, Note_off_c, 0, 79, 109
1, 47317, Note_on_c, 0, 78, 100
1, 47388, Note_off_c, 0, 78, 100
1, 47395, Note_on_c, 0, 76, 101
1, 47430, Note_off_c, 0, 76, 101
1, 47432, Note_on_c, 0, 74, 93
1, 47504, Note_off_c, 0, 74, 93
1, 47510, Note_on_c, 0, 76, 95
1, 47585, Note_off_c, 0, 76, 95
1, 47602, Note_on_c, 0, 75, 99
1, 47671, Note_off_c, 0, 75, 99
1, 47692, Note_on_c, 0, 73, 113
1, 47769, Note_off_c, 0, 73, 113
1, 47787, Note_on_c, 0, 71, 106
1, 47858, Note_off_c, 0, 71, 106
1, 47891, Note_on_c, 0, 69, 100
1, 47958, Note_off_c, 0, 69, 100
1, 47986, Note_on_c, 0, 70, 93
1, 48061, Note_off_c, 0, 70, 93
1, 48070, Note_on_c, 0, 69, 97
1, 48146, Note_off_c, 0, 69, 97
1, 48158, Note_on_c, 0, 68, 103
1, 48223, Note_off_c, 0, 68, 103
1, 49081, Note_on_c, 0, 77, 119
1, 49166, Note_off_c, 0, 77, 119
1, 49178, Note_on_c, 0, 79, 109
1, 49626, Note_off_c, 0, 79, 109
1, 49637, Note_on_c, 0, 80, 100
1, 49734, Note_off_c, 0, 80, 100
1, 49763, Note_on_c, 0, 79, 99
1, 50192, Note_off_c, 0, 79, 99
1, 50212, Note_on_c, 0, 77, 103
1, 50303, Note_off_c, 0, 77, 103
1, 50379, Note_on_c, 0, 79, 100
1, 50542, Note_off_c, 0, 79, 100
1, 50575, Note_on_c, 0, 80, 9
1, 50938, Note_off_c, 0, 80, 9
1, 50957, Note_on_c, 0, 72, 9
1, 51208, Note_off_c, 0, 72, 9
1, 51242, Note_on_c, 0, 79, 9
1, 51625, Note_off_c, 0, 79, 9
1, 51631, Note_on_c, 0, 80, 105
1, 51738, Note_off_c, 0, 80, 105
1, 51746, Note_on_c, 0, 79, 82
1, 51819, Note_off_c, 0, 79, 82
1, 51833, Note_on_c, 0, 78, 101
1, 51919, Note_off_c, 0, 78, 101
1, 51933, Note_on_c, 0, 76, 106
1, 51988, Note_off_c, 0, 76, 106
1, 52752, Note_on_c, 0, 75, 108
1, 52817, Note_off_c, 0, 75, 108
1, 52833, Note_on_c, 0, 81, 93
1, 52927, Note_off_c, 0, 81, 93
1, 52952, Note_on_c, 0, 71, 9
1, 52998, Note_off_c, 0, 71, 9
1, 53018, Note_on_c, 0, 77, 9
1, 53108, Note_off_c, 0, 77, 9
1, 53135, Note_on_c, 0, 69, 9
1, 53198, Note_off_c, 0, 69, 9
1, 53202, Note_on_c, 0, 75, 9
1, 53281, Note_off_c, 0, 75, 9
1, 53312, Note_on_c, 0, 68, 9
1, 53356, Note_off_c, 0, 68, 9
1, 53385, Note_on_c, 0, 74, 9
1, 53472, Note_off_c, 0, 74, 9
1, 53483, Note_on_c, 0, 69, 46
1, 53533, Note_off_c, 0, 69, 46
1, 53563, Note_on_c, 0, 72, 110
1, 53663, Note_off_c, 0, 72, 110
1, 53874, Note_on_c, 0, 70, 114
1, 53937, Note_off_c, 0, 70, 114
1, 54269, Note_on_c, 0, 68, 95
1, 54332, Note_off_c, 0, 68, 95
1, 54727, Note_on_c, 0, 67, 9
1, 54798, Note_off_c, 0, 67, 9
1, 55012, Note_on_c, 0, 66, 115
1, 55091, Note_off_c, 0, 66, 115
1, 55290, Note_on_c, 0, 70, 100
1, 55356, Note_off_c, 0, 70, 100
1, 55492, Note_on_c, 0, 69, 111
1, 55551, Note_off_c, 0, 69, 111
1, 55676, Note_on_c, 0, 74, 9
1, 55738, Note_off_c, 0, 74, 9
1, 55865, Note_on_c, 0, 75, 9
1, 55913, Note_off_c, 0, 75, 9
1, 56042, Note_on_c, 0, 77, 96
1, 56106, Note_off_c, 0, 77, 96
1, 56235, Note_on_c, 0, 79, 104
1, 56315, Note_off_c, 0, 79, 104
1, 56320, Note_on_c, 0, 80, 104
1, 56390, Note_off_c, 0, 80, 104
1, 56400, Note_on_c, 0, 79, 96
1, 56470, Note_off_c, 0, 79, 96
1, 56477, Note_on_c, 0, 79, 96
1, 56520, Note_off_c, 0, 79, 96
1, 56534, Note_on_c, 0, 78, 102
1, 56619, Note_off_c, 0, 78, 102
1, 56635, Note_on_c, 0, 77, 101
1, 56677, Note_off_c, 0, 77, 101
1, 56691, Note_on_c, 0, 76, 9
1, 56771, Note_off_c, 0, 76, 9
1, 56790, Note_on_c, 0, 75, 9
1, 56856, Note_off_c, 0, 75, 9
1, 56878, Note_on_c, 0, 73, 9
1, 56970, Note_off_c, 0, 73, 9
1, 56987, Note_on_c, 0, 71, 9
1, 57061, Note_off_c, 0, 71, 9
1, 57089, Note_on_c, 0, 69, 9
1, 57146, Note_off_c, 0, 69, 9
1, 57161, Note_on_c, 0, 70, 115
1, 57219, Note_off_c, 0, 70, 115
1, 57243, Note_on_c, 0, 69, 110
1, 57314, Note_off_c, 0, 69, 110
1, 57324, Note_on_c, 0, 68, 95
1, 57394, Note_off_c, 0, 68, 95
1, 57694, Note_on_c, 0, 74, 54
1, 57779, Note_off_c, 0, 74, 54
1, 57789, Note_on_c, 0, 74, 9
1, 57848, Note_off_c, 0, 74, 9
1, 57862, Note_on_c, 0, 74, 9
1, 57950, Note_off_c, 0, 74, 9
1, 57967, Note_on_c, 0, 74, 9
1, 58044, Note_off_c, 0, 74, 9
1, 58065, Note_on_c, 0, 74, 9
1, 58156, Note_off_c, 0, 74, 9
1, 58168, Note_on_c, 0, 75, 74
1, 58260, Note_off_c, 0, 75, 74
1, 58345, Note_on_c, 0, 72, 106
1, 58434, Note_off_c, 0, 72, 106
1, 59204, Note_on_c, 0, 74, 9
1, 59289, Note_off_c, 0, 74, 9
1, 59298, Note_on_c, 0, 74, 95
1, 59351, Note_off_c, 0, 74, 95
1, 59366, Note_on_c, 0, 74, 93
1, 59452, Note_off_c, 0, 74, 93
1, 59464, Note_on_c, 0, 74, 89
1, 59535, Note_off_c, 0, 74, 89
1, 59552, Note_on_c, 0, 74, 100
1, 59656, Note_off_c, 0, 74, 100
1, 59664, Note_on_c, 0, 75, 93
1, 59743, Note_off_c, 0, 75, 93
1, 60524, Note_on_c, 0, 73, 108
1, 60602, Note_off_c, 0, 73, 108
1, 60620, Note_on_c, 0, 71, 107
1, 60683, Note_off_c, 0, 71, 107
1, 60689, Note_on_c, 0, 72, 90
1, 60760, Note_off_c, 0, 72, 90
1, 60775, Note_on_c, 0, 71, 89
1, 60834, Note_off_c, 0, 71, 89
1, 60848, Note_on_c, 0, 70, 94
1, 60932, Note_off_c, 0, 70, 94
1, 60940, Note_on_c, 0, 69, 83
1, 61010, Note_off_c, 0, 69, 83
1, 61036, Note_on_c, 0, 68, 86
1, 61090, Note_off_c, 0, 68, 86
1, 61113, Note_on_c, 0, 63, 82
1, 61180, Note_off_c, 0, 63, 82
1, 61220, Note_on_c, 0, 53, 76
1, 61291, Note_off_c, 0, 53, 76
1, 61319, Note_on_c, 0, 55, 73
1, 61384, Note_off_c, 0, 55, 73
1, 61408, Note_on_c, 0, 56, 73
1, 61760, Note_off_c, 0, 56, 73
1, 61768, Note_on_c, 0, 58, 71
1, 61851, Note_off_c, 0, 58, 71
1, 61861, Note_on_c, 0, 56, 58
1, 61963, Note_off_c, 0, 56, 58
1, 61971, Note_on_c, 0, 57, 9
1, 62039, Note_off_c, 0, 57, 9
1, 62049, Note_on_c, 0, 59, 9
1, 62104, Note_off_c, 0, 59, 9
1, 62136, Note_on_c, 0, 61, 9
1, 62225, Note_off_c, 0, 61, 9
1, 62243, Note_on_c, 0, 65, 9
1, 62530, Note_off_c, 0, 65, 9
1, 62641, Note_on_c, 0, 62, 9
1, 62676, Note_off_c, 0, 62, 9
1, 62682, Note_on_c, 0, 63, 9
1, 62786, Note_off_c, 0, 63, 9
1, 62790, Note_on_c, 0, 65, 9
1, 62858, Note_off_c, 0, 65, 9
1, 62859, Note_on_c, 0, 67, 9
1, 63170, Note_off_c, 0, 67, 9
1, 63316, Note_on_c, 0, 65, 9
1, 63534, Note_off_c, 0, 65, 9
1, 63540, Note_on_c, 0, 62, 9
1, 63604, Note_off_c, 0, 62, 9
1, 63617, Note_on_c, 0, 63, 9
1, 63683, Note_off_c, 0, 63, 9
1, 63710, Note_on_c, 0, 65, 9
1, 63773, Note_off_c, 0, 65, 9
1, 63780, Note_on_c, 0, 67, 9
1, 63882, Note_off_c, 0, 67, 9
1, 63906, Note_on_c, 0, 69, 9
1, 63958, Note_off_c, 0, 69, 9
1, 63966, Note_on_c, 0, 70, 9
1, 64061, Note_off_c, 0, 70, 9
1, 64071, Note_on_c, 0, 69, 9
1, 64143, Note_off_c, 0, 69, 9
1, 64167, Note_on_c, 0, 68, 9
1, 64235, Note_off_c, 0, 68, 9
1, 64254, Note_on_c, 0, 70, 9
1, 64317, Note_off_c, 0, 70, 9
1, 64324, Note_on_c, 0, 74, 9
1, 64389, Note_off_c, 0, 74, 9
1, 64406, Note_on_c, 0, 73, 9
1, 64483, Note_off_c, 0, 73, 9
1, 64489, Note_on_c, 0, 75, 9
1, 64597, Note_off_c, 0, 75, 9
1, 67132, Note_on_c, 0, 74, 80
1, 67203, Note_off_c, 0, 74, 80
1, 67222, Note_on_c, 0, 74, 80
1, 67299, Note_off_c, 0, 74, 80
1, 67314, Note_on_c, 0, 74, 80
1, 67384, Note_off_c, 0, 74, 80
1, 67392, Note_on_c, 0, 74, 80
1, 67471, Note_off_c, 0, 74, 80
1, 67487, Note_on_c, 0, 74, 80
1, 67552, Note_off_c, 0, 74, 80
1, 67568, Note_on_c, 0, 74, 80
1, 67631, Note_off_c, 0, 74, 80
1, 67653, Note_on_c, 0, 74, 80
1, 67711, Note_off_c, 0, 74, 80
1, 67726, Note_on_c, 0, 74, 80
1, 67849, Note_off_c, 0, 74, 80
1, 67865, Note_on_c, 0, 75, 80
1, 73640, Note_off_c, 0, 75, 80
1, 73760, Note_on_c, 0, 77, 80
1, 73828, Note_off_c, 0, 77, 80
1, 73950, Note_on_c, 0, 75, 80
1, 74012, Note_off_c, 0, 75, 80
1, 74114, Note_on_c, 0, 75, 80
1, 74194, Note_off_c, 0, 75, 80
1, 74294, Note_on_c, 0, 75, 80
1, 74457, Note_off_c, 0, 75, 80
1, 74469, Note_on_c, 0, 74, 80
1, 74560, Note_off_c, 0, 74, 80
1, 74655, Note_on_c, 0, 72, 80
1, 74911, Note_off_c, 0, 72, 80
1, 74930, Note_on_c, 0, 72, 80
1, 75019, Note_off_c, 0, 72, 80
1, 75094, Note_on_c, 0, 72, 80
1, 75239, Note_off_c, 0, 72, 80
1, 75267, Note_on_c, 0, 72, 80
1, 75629, Note_off_c, 0, 72, 80
1, 75729, Note_on_c, 0, 72, 80
1, 75795, Note_off_c, 0, 72, 80
1, 75920, Note_on_c, 0, 70, 80
1, 75986, Note_off_c, 0, 70, 80
1, 76461, Note_on_c, 0, 70, 80
1, 76517, Note_off_c, 0, 70, 80
1, 76552, Note_on_c, 0, 70, 80
1, 76613, Note_off_c, 0, 70, 80
1, 76738, Note_on_c, 0, 70, 80
1, 77041, Note_off_c, 0, 70, 80
1, 77178, Note_on_c, 0, 70, 80
1, 77244, Note_off_c, 0, 70, 80
1, 77358, Note_on_c, 0, 68, 80
1, 77547, Note_off_c, 0, 68, 80
1, 77552, Note_on_c, 0, 67, 80
1, 77769, Note_off_c, 0, 67, 80
1, 77906, Note_on_c, 0, 67, 80
1, 78123, Note_off_c, 0, 67, 80
1, 78194, Note_on_c, 0, 67, 80
1, 78459, Note_off_c, 0, 67, 80
1, 79421, Note_on_c, 0, 79, 80
1, 79489, Note_off_c, 0, 79, 80
1, 79685, Note_on_c, 0, 77, 80
1, 79771, Note_off_c, 0, 77, 80
1, 80064, Note_on_c, 0, 77, 80
1, 80140, Note_off_c, 0, 77, 80
1, 80449, Note_on_c, 0, 72, 80
1, 80515, Note_off_c, 0, 72, 80
1, 80801, Note_on_c, 0, 74, 80
1, 80890, Note_off_c, 0, 74, 80
1, 81331, Note_on_c, 0, 75, 80
1, 81591, Note_off_c, 0, 75, 80
1, 81642, Note_on_c, 0, 68, 80
1, 81685, Note_off_c, 0, 68, 80
1, 81736, Note_on_c, 0, 77, 80
1, 81930, Note_off_c, 0, 77, 80
1, 82555, Note_on_c, 0, 77, 80
1, 82823, Note_off_c, 0, 77, 80
1, 82851, Note_on_c, 0, 75, 80
1, 82930, Note_off_c, 0, 75, 80
1, 83210, Note_on_c, 0, 74, 80
1, 83286, Note_off_c, 0, 74, 80
1, 83600, Note_on_c, 0, 72, 80
1, 83688, Note_off_c, 0, 72, 80
1, 84027, Note_on_c, 0, 70, 80
1, 84093, Note_off_c, 0, 70, 80
1, 84568, Note_on_c, 0, 70, 80
1, 84840, Note_off_c, 0, 70, 80
1, 84901, Note_on_c, 0, 64, 80
1, 84935, Note_off_c, 0, 64, 80
1, 84961, Note_on_c, 0, 68, 80
1, 85079, Note_off_c, 0, 68, 80
1, 85842, Note_on_c, 0, 74, 80
1, 85938, Note_off_c, 0, 74, 80
1, 85972, Note_on_c, 0, 75, 80
1, 86112, Note_off_c, 0, 75, 80
1, 86135, Note_on_c, 0, 77, 80
1, 86354, Note_off_c, 0, 77, 80
1, 86361, Note_on_c, 0, 79, 80
1, 86524, Note_off_c, 0, 79, 80
1, 86527, Note_on_c, 0, 80, 80
1, 87209, Note_off_c, 0, 80, 80
1, 87221, Note_on_c, 0, 85, 80
1, 87702, Note_off_c, 0, 85, 80
1, 91981, Note_on_c, 0, 79, 80
1, 92060, Note_off_c, 0, 79, 80
1, 92107, Note_on_c, 0, 70, 80
1, 92170, Note_off_c, 0, 70, 80
1, 92191, Note_on_c, 0, 77, 80
1, 92259, Note_off_c, 0, 77, 80
1, 92293, Note_on_c, 0, 67, 80
1, 92361, Note_off_c, 0, 67, 80
1, 92378, Note_on_c, 0, 75, 80
1, 92445, Note_off_c, 0, 75, 80
1, 92502, Note_on_c, 0, 67, 80
1, 92546, Note_off_c, 0, 67, 80
1, 92563, Note_on_c, 0, 74, 80
1, 92640, Note_off_c, 0, 74, 80
1, 92659, Note_on_c, 0, 65, 80
1, 92717, Note_off_c, 0, 65, 80
1, 92751, Note_on_c, 0, 72, 80
1, 92838, Note_off_c, 0, 72, 80
1, 92861, Note_on_c, 0, 65, 80
1, 92922, Note_off_c, 0, 65, 80
1, 92945, Note_on_c, 0, 70, 80
1, 93022, Note_off_c, 0, 70, 80
1, 93052, Note_on_c, 0, 63, 80
1, 93118, Note_off_c, 0, 63, 80
1, 93150, Note_on_c, 0, 68, 80
1, 93229, Note_off_c, 0, 68, 80
1, 93249, Note_on_c, 0, 59, 80
1, 93300, Note_off_c, 0, 59, 80
1, 93333, Note_on_c, 0, 67, 80
1, 93423, Note_off_c, 0, 67, 80
1, 93447, Note_on_c, 0, 59, 80
1, 93503, Note_off_c, 0, 59, 80
1, 93533, Note_on_c, 0, 65, 80
1, 93624, Note_off_c, 0, 65, 80
1, 93652, Note_on_c, 0, 58, 80
1, 93695, Note_off_c, 0, 58, 80
1, 93729, Note_on_c, 0, 63, 80
1, 93801, Note_off_c, 0, 63, 80
1, 93850, Note_on_c, 0, 55, 80
1, 93902, Note_off_c, 0, 55, 80
1, 93923, Note_on_c, 0, 62, 80
1, 94003, Note_off_c, 0, 62, 80
1, 94048, Note_on_c, 0, 58, 80
1, 94097, Note_off_c, 0, 58, 80
1, 94118, Note_on_c, 0, 60, 80
1, 94207, Note_off_c, 0, 60, 80
1, 94254, Note_on_c, 0, 57, 80
1, 94317, Note_off_c, 0, 57, 80
1, 94339, Note_on_c, 0, 58, 80
1, 94410, Note_off_c, 0, 58, 80
1, 94435, Note_on_c, 0, 54, 80
1, 94498, Note_off_c, 0, 54, 80
1, 94515, Note_on_c, 0, 56, 80
1, 94619, Note_off_c, 0, 56, 80
1, 94619, End_track
0, 0, End_of_file
