0, 0, Header, 1, 1, 192
1, 0, Start_track
1, 0, Title_t, "Melody"
1, 0, Tempo, 229007
1, 0, Time_signature, 4, 2, 24, 8
1, 5353, Note_on_c, 0, 65, 108
1, 5421, Note_off_c, 0, 65, 108
1, 5426, Note_on_c, 0, 67, 122
1, 5504, Note_off_c, 0, 67, 122
1, 5519, Note_on_c, 0, 68, 121
1, 5590, Note_off_c, 0, 68, 121
1, 5608, Note_on_c, 0, 70, 113
1, 5676, Note_off_c, 0, 70, 113
1, 5700, Note_on_c, 0, 74, 118
1, 5768, Note_off_c, 0, 74, 118
1, 5791, Note_on_c, 0, 75, 118
1, 5859, Note_off_c, 0, 75, 118
1, 5892, Note_on_c, 0, 75, 122
1, 5967, Note_off_c, 0, 75, 122
1, 5969, Note_on_c, 0, 77, 122
1, 6081, Note_off_c, 0, 77, 122
1, 6175, Note_on_c, 0, 79, 109
1, 6270, Note_off_c, 0, 79, 109
1, 6355, Note_on_c, 0, 80, 123
1, 6608, Note_off_c, 0, 80, 123
1, 6631, Note_on_c, 0, 79, 121
1, 6702, Note_off_c, 0, 79, 121
1, 6821, Note_on_c, 0, 77, 118
1, 7081, Note_off_c, 0, 77, 118
1, 7388, Note_on_c, 0, 73, 122
1, 7497, Note_off_c, 0, 73, 122
1, 7514, Note_on_c, 0, 71, 106
1, 7575, Note_off_c, 0, 71, 106
1, 7595, Note_on_c, 0, 72, 121
1, 7677, Note_off_c, 0, 72, 121
1, 7704, Note_on_c, 0, 71, 120
1, 7748, Note_off_c, 0, 71, 120
1, 7765, Note_on_c, 0, 70, 109
1, 7850, Note_off_c, 0, 70, 109
1, 7863, Note_on_c, 0, 69, 117
1, 7945, Note_off_c, 0, 69, 117
1, 7955, Note_on_c, 0, 68, 106
1, 8033, Note_off_c, 0, 68, 106
1, 8056, Note_on_c, 0, 70, 108
1, 8141, Note_off_c, 0, 70, 108
1, 8262, Note_on_c, 0, 65, 115
1, 8347, Note_off_c, 0, 65, 115
1, 8470, Note_on_c, 0, 65, 107
1, 8589, Note_off_c, 0, 65, 107
1, 8781, Note_on_c, 0, 63, 108
1, 8900, Note_off_c, 0, 63, 108
1, 8954, Note_on_c, 0, 65, 118
1, 9063, Note_off_c, 0, 65, 118
1, 9134, Note_on_c, 0, 66, 113
1, 9219, Note_off_c, 0, 66, 113
1, 9219, Note_on_c, 0, 68, 114
1, 9287, Note_off_c, 0, 68, 114
1, 9297, Note_on_c, 0, 70, 122
1, 9396, Note_off_c, 0, 70, 122
1, 9402, Note_on_c, 0, 72, 120
1, 9490, Note_off_c, 0, 72, 120
1, 9496, Note_on_c, 0, 73, 120
1, 9584, Note_off_c, 0, 73, 120
1, 9601, Note_on_c, 0, 71, 104
1, 9666, Note_off_c, 0, 71, 104
1, 9669, Note_on_c, 0, 72, 121
1, 9747, Note_off_c, 0, 72, 121
1, 9774, Note_on_c, 0, 71, 111
1, 9839, Note_off_c, 0, 71, 111
1, 9852, Note_on_c, 0, 70, 112
1, 9944, Note_off_c, 0, 70, 112
1, 9950, Note_on_c, 0, 69, 117
1, 10025, Note_off_c, 0, 69, 117
1, 10025, Note_on_c, 0, 72, 115
1, 10127, Note_off_c, 0, 72, 115
1, 10133, Note_on_c, 0, 74, 117
1, 10235, Note_off_c, 0, 74, 117
1, 10235, Note_on_c, 0, 75, 119
1, 10327, Note_off_c, 0, 75, 119
1, 10354, Note_on_c, 0, 77, 120
1, 10436, Note_off_c, 0, 77, 120
1, 10439, Note_on_c, 0, 79, 122
1, 10548, Note_off_c, 0, 79, 122
1, 10548, Note_on_c, 0, 80, 120
1, 10633, Note_off_c, 0, 80, 120
1, 10639, Note_on_c, 0, 79, 122
1, 10727, Note_off_c, 0, 79, 122
1, 10737, Note_on_c, 0, 79, 109
1, 10771, Note_off_c, 0, 79, 109
1, 10783, Note_on_c, 0, 78, 119
1, 10809, Note_off_c, 0, 78, 119
1, 10814, Note_on_c, 0, 77, 111
1, 10882, Note_off_c, 0, 77, 111
1, 10887, Note_on_c, 0, 78, 97
1, 10916, Note_off_c, 0, 78, 97
1, 10918, Note_on_c, 0, 76, 111
1, 11010, Note_off_c, 0, 76, 111
1, 11020, Note_on_c, 0, 75, 118
1, 11108, Note_off_c, 0, 75, 118
1, 11111, Note_on_c, 0, 73, 113
1, 11223, Note_off_c, 0, 73, 113
1, 11607, Note_on_c, 0, 71, 117
1, 11891, Note_off_c, 0, 71, 117
1, 11892, Note_on_c, 0, 68, 118
1, 11957, Note_off_c, 0, 68, 118
1, 12059, Note_on_c, 0, 70, 119
1, 12250, Note_off_c, 0, 70, 119
1, 12253, Note_on_c, 0, 67, 107
1, 12307, Note_off_c, 0, 67, 107
1, 12354, Note_on_c, 0, 68, 115
1, 12436, Note_off_c, 0, 68, 115
1, 12439, Note_on_c, 0, 70, 117
1, 12517, Note_off_c, 0, 70, 117
1, 12517, Note_on_c, 0, 71, 120
1, 12633, Note_off_c, 0, 71, 120
1, 12793, Note_on_c, 0, 73, 121
1, 12895, Note_off_c, 0, 73, 121
1, 13273, Note_on_c, 0, 67, 85
1, 13341, Note_off_c, 0, 67, 85
1, 13442, Note_on_c, 0, 69, 108
1, 13558, Note_off_c, 0, 69, 108
1, 13629, Note_on_c, 0, 70, 120
1, 13707, Note_off_c, 0, 70, 120
1, 13724, Note_on_c, 0, 72, 120
1, 13789, Note_off_c, 0, 72, 120
1, 13806, Note_on_c, 0, 73, 113
1, 13864, Note_off_c, 0, 73, 113
1, 13922, Note_on_c, 0, 75, 113
1, 13976, Note_off_c, 0, 75, 113
1, 14078, Note_on_c, 0, 77, 110
1, 14156, Note_off_c, 0, 77, 110
1, 14183, Note_on_c, 0, 79, 116
1, 14278, Note_off_c, 0, 79, 116
1, 14284, Note_on_c, 0, 80, 122
1, 14396, Note_off_c, 0, 80, 122
1, 15100, Note_on_c, 0, 79, 124
1, 15185, Note_off_c, 0, 79, 124
1, 15205, Note_on_c, 0, 76, 107
1, 15273, Note_off_c, 0, 76, 107
1, 15273, Note_on_c, 0, 79, 112
1, 15317, Note_off_c, 0, 79, 112
1, 15334, Note_on_c, 0, 77, 108
1, 15371, Note_off_c, 0, 77, 108
1, 15384, Note_on_c, 0, 76, 118
1, 15459, Note_off_c, 0, 76, 118
1, 15470, Note_on_c, 0, 75, 115
1, 15567, Note_off_c, 0, 75, 115
1, 15572, Note_on_c, 0, 74, 119
1, 15662, Note_off_c, 0, 74, 119
1, 15662, Note_on_c, 0, 72, 110
1, 15733, Note_off_c, 0, 72, 110
1, 15743, Note_on_c, 0, 71, 119
1, 15808, Note_off_c, 0, 71, 119
1, 15825, Note_on_c, 0, 70, 118
1, 15910, Note_off_c, 0, 70, 118
1, 15930, Note_on_c, 0, 69, 117
1, 15998, Note_off_c, 0, 69, 117
1, 16011, Note_on_c, 0, 68, 110
1, 16082, Note_off_c, 0, 68, 110
1, 16119, Note_on_c, 0, 70, 118
1, 16204, Note_off_c, 0, 70, 118
1, 16215, Note_on_c, 0, 68, 91
1, 16329, Note_off_c, 0, 68, 91
1, 16330, Note_on_c, 0, 65, 86
1, 16360, Note_off_c, 0, 65, 86
1, 16433, Note_on_c, 0, 69, 111
1, 16532, Note_off_c, 0, 69, 111
1, 16543, Note_on_c, 0, 65, 90
1, 16594, Note_off_c, 0, 65, 90
1, 16603, Note_on_c, 0, 70, 122
1, 16678, Note_off_c, 0, 70, 122
1, 16695, Note_on_c, 0, 65, 103
1, 16760, Note_off_c, 0, 65, 103
1, 16782, Note_on_c, 0, 72, 122
1, 16864, Note_off_c, 0, 72, 122
1, 16895, Note_on_c, 0, 68, 95
1, 16938, Note_off_c, 0, 68, 95
1, 16969, Note_on_c, 0, 73, 121
1, 17107, Note_off_c, 0, 73, 121
1, 17122, Note_on_c, 0, 72, 88
1, 17159, Note_off_c, 0, 72, 88
1, 17159, Note_on_c, 0, 75, 121
1, 17247, Note_off_c, 0, 75, 121
1, 17274, Note_on_c, 0, 77, 113
1, 17349, Note_off_c, 0, 77, 113
1, 17417, Note_on_c, 0, 81, 117
1, 17536, Note_off_c, 0, 81, 117
1, 17546, Note_on_c, 0, 80, 119
1, 17621, Note_off_c, 0, 80, 119
1, 17624, Note_on_c, 0, 82, 124
1, 17716, Note_off_c, 0, 82, 124
1, 17801, Note_on_c, 0, 84, 123
1, 18078, Note_off_c, 0, 84, 123
1, 18078, Note_on_c, 0, 82, 122
1, 18362, Note_off_c, 0, 82, 122
1, 18382, Note_on_c, 0, 80, 119
1, 18655, Note_off_c, 0, 80, 119
1, 18668, Note_on_c, 0, 79, 123
1, 18914, Note_off_c, 0, 79, 123
1, 18922, Note_on_c, 0, 77, 112
1, 18961, Note_off_c, 0, 77, 112
1, 18971, Note_on_c, 0, 76, 123
1, 19104, Note_off_c, 0, 76, 123
1, 19665, Note_on_c, 0, 66, 96
1, 19788, Note_off_c, 0, 66, 96
1, 19798, Note_on_c, 0, 68, 119
1, 20287, Note_off_c, 0, 68, 119
1, 20300, Note_on_c, 0, 70, 119
1, 20368, Note_off_c, 0, 70, 119
1, 20374, Note_on_c, 0, 72, 124
1, 20452, Note_off_c, 0, 72, 124
1, 20458, Note_on_c, 0, 73, 123
1, 20550, Note_off_c, 0, 73, 123
1, 21131, Note_on_c, 0, 65, 84
1, 21185, Note_off_c, 0, 65, 84
1, 21188, Note_on_c, 0, 67, 83
1, 21225, Note_on_c, 0, 68, 92
1, 21225, Note_off_c, 0, 67, 83
1, 21269, Note_off_c, 0, 68, 92
1, 21286, Note_on_c, 0, 70, 112
1, 21371, Note_off_c, 0, 70, 112
1, 21374, Note_on_c, 0, 72, 119
1, 21456, Note_off_c, 0, 72, 119
1, 21483, Note_on_c, 0, 73, 118
1, 21571, Note_off_c, 0, 73, 118
1, 21574, Note_on_c, 0, 75, 123
1, 21662, Note_off_c, 0, 75, 123
1, 21662, Note_on_c, 0, 77, 111
1, 21757, Note_off_c, 0, 77, 111
1, 21774, Note_on_c, 0, 79, 125
1, 22027, Note_off_c, 0, 79, 125
1, 22027, Note_on_c, 0, 80, 121
1, 22143, Note_off_c, 0, 80, 121
1, 22796, Note_on_c, 0, 70, 112
1, 22884, Note_off_c, 0, 70, 112
1, 22884, Note_on_c, 0, 72, 119
1, 22935, Note_off_c, 0, 72, 119
1, 22952, Note_on_c, 0, 72, 121
1, 23198, Note_off_c, 0, 72, 121
1, 23208, Note_on_c, 0, 72, 91
1, 23351, Note_off_c, 0, 72, 91
1, 23398, Note_on_c, 0, 72, 123
1, 23473, Note_off_c, 0, 72, 123
1, 23483, Note_on_c, 0, 72, 118
1, 23623, Note_off_c, 0, 72, 118
1, 24033, Note_on_c, 0, 70, 121
1, 24205, Note_off_c, 0, 70, 121
1, 24206, Note_on_c, 0, 67, 95
1, 24312, Note_off_c, 0, 67, 95
1, 24332, Note_on_c, 0, 68, 115
1, 24458, Note_off_c, 0, 68, 115
1, 24476, Note_on_c, 0, 67, 88
1, 24568, Note_off_c, 0, 67, 88
1, 24584, Note_on_c, 0, 66, 94
1, 24618, Note_off_c, 0, 66, 94
1, 24622, Note_on_c, 0, 65, 111
1, 24663, Note_off_c, 0, 65, 111
1, 24670, Note_on_c, 0, 64, 99
1, 24750, Note_off_c, 0, 64, 99
1, 24795, Note_on_c, 0, 62, 97
1, 24888, Note_off_c, 0, 62, 97
1, 24888, Note_on_c, 0, 63, 105
1, 24948, Note_off_c, 0, 63, 105
1, 24973, Note_on_c, 0, 65, 113
1, 25041, Note_off_c, 0, 65, 113
1, 25056, Note_on_c, 0, 66, 108
1, 25132, Note_off_c, 0, 66, 108
1, 25138, Note_on_c, 0, 68, 87
1, 25166, Note_off_c, 0, 68, 87
1, 25166, Note_on_c, 0, 69, 118
1, 25231, Note_off_c, 0, 69, 118
1, 25682, Note_on_c, 0, 67, 92
1, 25725, Note_off_c, 0, 67, 92
1, 25727, Note_on_c, 0, 68, 88
1, 25778, Note_off_c, 0, 68, 88
1, 25831, Note_on_c, 0, 69, 115
1, 25904, Note_off_c, 0, 69, 115
1, 25908, Note_on_c, 0, 70, 113
1, 25993, Note_off_c, 0, 70, 113
1, 26000, Note_on_c, 0, 71, 100
1, 26070, Note_off_c, 0, 71, 100
1, 26091, Note_on_c, 0, 72, 114
1, 26171, Note_off_c, 0, 72, 114
1, 26192, Note_on_c, 0, 73, 111
1, 26277, Note_off_c, 0, 73, 111
1, 26286, Note_on_c, 0, 73, 116
1, 26373, Note_off_c, 0, 73, 116
1, 26480, Note_on_c, 0, 75, 111
1, 26550, Note_off_c, 0, 75, 111
1, 26778, Note_on_c, 0, 77, 120
1, 26868, Note_off_c, 0, 77, 120
1, 26960, Note_on_c, 0, 78, 124
1, 27059, Note_off_c, 0, 78, 124
1, 27141, Note_on_c, 0, 80, 121
1, 27228, Note_off_c, 0, 80, 121
1, 27240, Note_on_c, 0, 82, 116
1, 27339, Note_off_c, 0, 82, 116
1, 28271, Note_on_c, 0, 79, 123
1, 28945, Note_off_c, 0, 79, 123
1, 28957, Note_on_c, 0, 76, 117
1, 29025, Note_off_c, 0, 76, 117
1, 29048, Note_on_c, 0, 75, 123
1, 29240, Note_off_c, 0, 75, 123
1, 29244, Note_on_c, 0, 73, 120
1, 29416, Note_off_c, 0, 73, 120
1, 29427, Note_on_c, 0, 71, 120
1, 29619, Note_off_c, 0, 71, 120
1, 29621, Note_on_c, 0, 70, 118
1, 29749, Note_off_c, 0, 70, 118
1, 30094, Note_on_c, 0, 67, 110
1, 30283, Note_off_c, 0, 67, 110
1, 30290, Note_on_c, 0, 69, 118
1, 30384, Note_off_c, 0, 69, 118
1, 30393, Note_on_c, 0, 70, 120
1, 30470, Note_off_c, 0, 70, 120
1, 30477, Note_on_c, 0, 72, 123
1, 30576, Note_off_c, 0, 72, 123
1, 30580, Note_on_c, 0, 73, 122
1, 30735, Note_off_c, 0, 73, 122
1, 30737, Note_on_c, 0, 75, 122
1, 30958, Note_off_c, 0, 75, 122
1, 30958, Note_on_c, 0, 77, 118
1, 31130, Note_off_c, 0, 77, 118
1, 31134, Note_on_c, 0, 79, 113
1, 31209, Note_off_c, 0, 79, 113
1, 31637, Note_on_c, 0, 79, 125
1, 32048, Note_off_c, 0, 79, 125
1, 32061, Note_on_c, 0, 80, 120
1, 32261, Note_on_c, 0, 79, 116
1, 32261, Note_off_c, 0, 80, 120
1, 32344, Note_off_c, 0, 79, 116
1, 32453, Note_on_c, 0, 77, 121
1, 32625, Note_off_c, 0, 77, 121
1, 32629, Note_on_c, 0, 75, 109
1, 32702, Note_off_c, 0, 75, 109
1, 33152, Note_on_c, 0, 77, 118
1, 33198, Note_off_c, 0, 77, 118
1, 33205, Note_on_c, 0, 76, 119
1, 33302, Note_off_c, 0, 76, 119
1, 33309, Note_on_c, 0, 75, 123
1, 33508, Note_off_c, 0, 75, 123
1, 33525, Note_on_c, 0, 72, 120
1, 33590, Note_off_c, 0, 72, 120
1, 33684, Note_on_c, 0, 68, 104
1, 33757, Note_off_c, 0, 68, 104
1, 33895, Note_on_c, 0, 72, 95
1, 33968, Note_off_c, 0, 72, 95
1, 33968, Note_on_c, 0, 73, 119
1, 34075, Note_off_c, 0, 73, 119
1, 34293, Note_on_c, 0, 73, 102
1, 34340, Note_off_c, 0, 73, 102
1, 34350, Note_on_c, 0, 73, 118
1, 34533, Note_off_c, 0, 73, 118
1, 34540, Note_on_c, 0, 71, 114
1, 34610, Note_off_c, 0, 71, 114
1, 34687, Note_on_c, 0, 72, 117
1, 34794, Note_off_c, 0, 72, 117
1, 34854, Note_on_c, 0, 71, 106
1, 34941, Note_off_c, 0, 71, 106
1, 34954, Note_on_c, 0, 70, 117
1, 35032, Note_off_c, 0, 70, 117
1, 35032, Note_on_c, 0, 69, 113
1, 35112, Note_off_c, 0, 69, 113
1, 35126, Note_on_c, 0, 68, 96
1, 35216, Note_off_c, 0, 68, 96
1, 35245, Note_on_c, 0, 64, 105
1, 35280, Note_off_c, 0, 64, 105
1, 35281, Note_on_c, 0, 65, 86
1, 35334, Note_off_c, 0, 65, 86
1, 35338, Note_on_c, 0, 62, 87
1, 35379, Note_off_c, 0, 62, 87
1, 35392, Note_on_c, 0, 58, 95
1, 35433, Note_off_c, 0, 58, 95
1, 35446, Note_on_c, 0, 57, 105
1, 35488, Note_off_c, 0, 57, 105
1, 35497, Note_on_c, 0, 56, 102
1, 35574, Note_off_c, 0, 56, 102
1, 35578, Note_on_c, 0, 58, 109
1, 35633, Note_off_c, 0, 58, 109
1, 35657, Note_on_c, 0, 62, 95
1, 35739, Note_off_c, 0, 62, 95
1, 35740, Note_on_c, 0, 63, 90
1, 35767, Note_off_c, 0, 63, 90
1, 35768, Note_on_c, 0, 64, 94
1, 35785, Note_off_c, 0, 64, 94
1, 35785, Note_on_c, 0, 65, 89
1, 35848, Note_off_c, 0, 65, 89
1, 35857, Note_on_c, 0, 65, 111
1, 35930, Note_off_c, 0, 65, 111
1, 35951, Note_on_c, 0, 63, 95
1, 35999, Note_off_c, 0, 63, 95
1, 36011, Note_on_c, 0, 64, 97
1, 36166, Note_off_c, 0, 64, 97
1, 36540, Note_on_c, 0, 64, 115
1, 36703, Note_off_c, 0, 64, 115
1, 36703, Note_on_c, 0, 62, 88
1, 36771, Note_off_c, 0, 62, 88
1, 36785, Note_on_c, 0, 63, 98
1, 36863, Note_off_c, 0, 63, 98
1, 36873, Note_on_c, 0, 65, 109
1, 36960, Note_off_c, 0, 65, 109
1, 36978, Note_on_c, 0, 67, 102
1, 37046, Note_off_c, 0, 67, 102
1, 37048, Note_on_c, 0, 69, 119
1, 37147, Note_off_c, 0, 69, 119
1, 37154, Note_on_c, 0, 70, 121
1, 37222, Note_off_c, 0, 70, 121
1, 37229, Note_on_c, 0, 69, 110
1, 37331, Note_off_c, 0, 69, 110
1, 37335, Note_on_c, 0, 68, 99
1, 37420, Note_off_c, 0, 68, 99
1, 37536, Note_on_c, 0, 70, 120
1, 37684, Note_off_c, 0, 70, 120
1, 37691, Note_on_c, 0, 71, 121
1, 37878, Note_off_c, 0, 71, 121
1, 37895, Note_on_c, 0, 70, 116
1, 37970, Note_off_c, 0, 70, 116
1, 38023, Note_on_c, 0, 70, 115
1, 38173, Note_off_c, 0, 70, 115
1, 38173, Note_on_c, 0, 69, 102
1, 38253, Note_off_c, 0, 69, 102
1, 38888, Note_on_c, 0, 61, 87
1, 38926, Note_off_c, 0, 61, 87
1, 39028, Note_on_c, 0, 66, 121
1, 39410, Note_off_c, 0, 66, 121
1, 39487, Note_on_c, 0, 61, 98
1, 39569, Note_off_c, 0, 61, 98
1, 39578, Note_on_c, 0, 60, 110
1, 39621, Note_off_c, 0, 60, 110
1, 39759, Note_on_c, 0, 61, 91
1, 39926, Note_off_c, 0, 61, 91
1, 40008, Note_on_c, 0, 63, 106
1, 40127, Note_off_c, 0, 63, 106
1, 40192, Note_on_c, 0, 65, 114
1, 40303, Note_off_c, 0, 65, 114
1, 40790, Note_on_c, 0, 63, 104
1, 40892, Note_off_c, 0, 63, 104
1, 40976, Note_on_c, 0, 65, 113
1, 41146, Note_off_c, 0, 65, 113
1, 41167, Note_on_c, 0, 66, 117
1, 41281, Note_off_c, 0, 66, 117
1, 41292, Note_on_c, 0, 65, 113
1, 41445, Note_off_c, 0, 65, 113
1, 41467, Note_on_c, 0, 61, 102
1, 41552, Note_off_c, 0, 61, 102
1, 41688, Note_on_c, 0, 60, 112
1, 41748, Note_off_c, 0, 60, 112
1, 42127, Note_on_c, 0, 65, 98
1, 42251, Note_off_c, 0, 65, 98
1, 42317, Note_on_c, 0, 65, 110
1, 42602, Note_off_c, 0, 65, 110
1, 42632, Note_on_c, 0, 67, 119
1, 42726, Note_off_c, 0, 67, 119
1, 42728, Note_on_c, 0, 68, 120
1, 42796, Note_off_c, 0, 68, 120
1, 42805, Note_on_c, 0, 70, 122
1, 42880, Note_off_c, 0, 70, 122
1, 42884, Note_on_c, 0, 67, 96
1, 42978, Note_off_c, 0, 67, 96
1, 42987, Note_on_c, 0, 69, 106
1, 43040, Note_off_c, 0, 69, 106
1, 43052, Note_on_c, 0, 70, 118
1, 43137, Note_off_c, 0, 70, 118
1, 43137, Note_on_c, 0, 71, 112
1, 43183, Note_off_c, 0, 71, 112
1, 43185, Note_on_c, 0, 72, 118
1, 43345, Note_off_c, 0, 72, 118
1, 43437, Note_on_c, 0, 72, 121
1, 43558, Note_off_c, 0, 72, 121
1, 43565, Note_on_c, 0, 71, 118
1, 43640, Note_off_c, 0, 71, 118
1, 43717, Note_on_c, 0, 71, 120
1, 43819, Note_off_c, 0, 71, 120
1, 43823, Note_on_c, 0, 70, 117
1, 43903, Note_off_c, 0, 70, 117
1, 43917, Note_on_c, 0, 70, 116
1, 44077, Note_off_c, 0, 70, 116
1, 44089, Note_on_c, 0, 69, 114
1, 44183, Note_off_c, 0, 69, 114
1, 44187, Note_on_c, 0, 68, 106
1, 44255, Note_off_c, 0, 68, 106
1, 44289, Note_on_c, 0, 69, 118
1, 44349, Note_off_c, 0, 69, 118
1, 44451, Note_on_c, 0, 65, 117
1, 44545, Note_off_c, 0, 65, 117
1, 44549, Note_on_c, 0, 64, 109
1, 44639, Note_off_c, 0, 64, 109
1, 44646, Note_on_c, 0, 62, 94
1, 44733, Note_off_c, 0, 62, 94
1, 44735, Note_on_c, 0, 63, 110
1, 44817, Note_off_c, 0, 63, 110
1, 44831, Note_on_c, 0, 65, 116
1, 44913, Note_off_c, 0, 65, 116
1, 44927, Note_on_c, 0, 67, 104
1, 45019, Note_off_c, 0, 67, 104
1, 45026, Note_on_c, 0, 69, 96
1, 45101, Note_off_c, 0, 69, 96
1, 45113, Note_on_c, 0, 70, 117
1, 45193, Note_off_c, 0, 70, 117
1, 45225, Note_on_c, 0, 67, 89
1, 45279, Note_off_c, 0, 67, 89
1, 45294, Note_on_c, 0, 72, 112
1, 45393, Note_off_c, 0, 72, 112
1, 45480, Note_on_c, 0, 74, 122
1, 45689, Note_off_c, 0, 74, 122
1, 45691, Note_on_c, 0, 77, 120
1, 45978, Note_off_c, 0, 77, 120
1, 45985, Note_on_c, 0, 75, 123
1, 46131, Note_off_c, 0, 75, 123
1, 46189, Note_on_c, 0, 73, 112
1, 46422, Note_off_c, 0, 73, 112
1, 48013, Note_on_c, 0, 79, 124
1, 48521, Note_off_c, 0, 79, 124
1, 48521, Note_on_c, 0, 78, 111
1, 48564, Note_off_c, 0, 78, 111
1, 48564, Note_on_c, 0, 76, 120
1, 48649, Note_off_c, 0, 76, 120
1, 48649, Note_on_c, 0, 75, 121
1, 48753, Note_off_c, 0, 75, 121
1, 48770, Note_on_c, 0, 73, 124
1, 48903, Note_off_c, 0, 73, 124
1, 48903, Note_on_c, 0, 72, 120
1, 49082, Note_off_c, 0, 72, 120
1, 49090, Note_on_c, 0, 73, 89
1, 49144, Note_off_c, 0, 73, 89
1, 49156, Note_on_c, 0, 71, 116
1, 49345, Note_off_c, 0, 71, 116
1, 49941, Note_on_c, 0, 70, 10
1, 50038, Note_off_c, 0, 70, 10
1, 50038, Note_on_c, 0, 72, 50
1, 50120, Note_off_c, 0, 72, 50
1, 50122, Note_on_c, 0, 74, 108
1, 50197, Note_off_c, 0, 74, 108
1, 50197, Note_on_c, 0, 77, 118
1, 50287, Note_off_c, 0, 77, 118
1, 50291, Note_on_c, 0, 76, 115
1, 50417, Note_off_c, 0, 76, 115
1, 50424, Note_on_c, 0, 77, 121
1, 50497, Note_off_c, 0, 77, 121
1, 50514, Note_on_c, 0, 77, 122
1, 50589, Note_off_c, 0, 77, 122
1, 50590, Note_on_c, 0, 79, 127
1, 50670, Note_off_c, 0, 79, 127
1, 50678, Note_on_c, 0, 79, 111
1, 50797, Note_off_c, 0, 79, 111
1, 51355, Note_on_c, 0, 79, 124
1, 51435, Note_off_c, 0, 79, 124
1, 51437, Note_on_c, 0, 80, 114
1, 51505, Note_off_c, 0, 80, 114
1, 51517, Note_on_c, 0, 78, 118
1, 51580, Note_off_c, 0, 78, 118
1, 51587, Note_on_c, 0, 79, 117
1, 51689, Note_off_c, 0, 79, 117
1, 51706, Note_on_c, 0, 77, 118
1, 51866, Note_off_c, 0, 77, 118
1, 51868, Note_on_c, 0, 76, 121
1, 51965, Note_off_c, 0, 76, 121
1, 51974, Note_on_c, 0, 75, 119
1, 52056, Note_off_c, 0, 75, 119
1, 52063, Note_on_c, 0, 72, 115
1, 52155, Note_off_c, 0, 72, 115
1, 52159, Note_on_c, 0, 73, 112
1, 52246, Note_off_c, 0, 73, 112
1, 52267, Note_on_c, 0, 71, 88
1, 52325, Note_off_c, 0, 71, 88
1, 52332, Note_on_c, 0, 72, 112
1, 52456, Note_off_c, 0, 72, 112
1, 52538, Note_on_c, 0, 77, 120
1, 52805, Note_off_c, 0, 77, 120
1, 52817, Note_on_c, 0, 74, 112
1, 52868, Note_off_c, 0, 74, 112
1, 52872, Note_on_c, 0, 75, 114
1, 52927, Note_off_c, 0, 75, 114
1, 53014, Note_on_c, 0, 72, 121
1, 53101, Note_on_c, 0, 73, 121
1, 53101, Note_off_c, 0, 72, 121
1, 53205, Note_off_c, 0, 73, 121
1, 53217, Note_on_c, 0, 71, 107
1, 53321, Note_off_c, 0, 71, 107
1, 53321, Note_on_c, 0, 72, 114
1, 53401, Note_off_c, 0, 72, 114
1, 53405, Note_on_c, 0, 71, 115
1, 53492, Note_off_c, 0, 71, 115
1, 53496, Note_on_c, 0, 70, 107
1, 53588, Note_off_c, 0, 70, 107
1, 53592, Note_on_c, 0, 69, 113
1, 53665, Note_off_c, 0, 69, 113
1, 53667, Note_on_c, 0, 68, 102
1, 53766, Note_off_c, 0, 68, 102
1, 53775, Note_on_c, 0, 65, 114
1, 53855, Note_off_c, 0, 65, 114
1, 53979, Note_on_c, 0, 65, 112
1, 54030, Note_off_c, 0, 65, 112
1, 54054, Note_on_c, 0, 63, 99
1, 54124, Note_off_c, 0, 63, 99
1, 54179, Note_on_c, 0, 66, 114
1, 54249, Note_off_c, 0, 66, 114
1, 54249, Note_on_c, 0, 67, 109
1, 54334, Note_off_c, 0, 67, 109
1, 54382, Note_on_c, 0, 65, 94
1, 54455, Note_off_c, 0, 65, 94
1, 54455, Note_on_c, 0, 70, 117
1, 54547, Note_off_c, 0, 70, 117
1, 54556, Note_on_c, 0, 65, 100
1, 54624, Note_off_c, 0, 65, 100
1, 54638, Note_on_c, 0, 73, 124
1, 54742, Note_off_c, 0, 73, 124
1, 54759, Note_on_c, 0, 68, 96
1, 54812, Note_off_c, 0, 68, 96
1, 54814, Note_on_c, 0, 75, 121
1, 54923, Note_off_c, 0, 75, 121
1, 54954, Note_on_c, 0, 71, 88
1, 54995, Note_off_c, 0, 71, 88
1, 55014, Note_on_c, 0, 77, 122
1, 55096, Note_off_c, 0, 77, 122
1, 55120, Note_on_c, 0, 74, 97
1, 55168, Note_off_c, 0, 74, 97
1, 55202, Note_on_c, 0, 79, 125
1, 55316, Note_off_c, 0, 79, 125
1, 55323, Note_on_c, 0, 80, 118
1, 55366, Note_off_c, 0, 80, 118
1, 55397, Note_on_c, 0, 76, 119
1, 55501, Note_off_c, 0, 76, 119
1, 55917, Note_on_c, 0, 66, 113
1, 56155, Note_off_c, 0, 66, 113
1, 56320, Note_on_c, 0, 61, 108
1, 56487, Note_off_c, 0, 61, 108
1, 56494, Note_on_c, 0, 60, 106
1, 56876, Note_off_c, 0, 60, 106
1, 57326, Note_on_c, 0, 65, 115
1, 57423, Note_off_c, 0, 65, 115
1, 57423, Note_on_c, 0, 67, 117
1, 57500, Note_off_c, 0, 67, 117
1, 57504, Note_on_c, 0, 68, 113
1, 57591, Note_off_c, 0, 68, 113
1, 57598, Note_on_c, 0, 70, 112
1, 57695, Note_off_c, 0, 70, 112
1, 57697, Note_on_c, 0, 72, 115
1, 57789, Note_off_c, 0, 72, 115
1, 57791, Note_on_c, 0, 73, 118
1, 57917, Note_off_c, 0, 73, 118
1, 57933, Note_on_c, 0, 72, 123
1, 58105, Note_off_c, 0, 72, 123
1, 58105, Note_on_c, 0, 71, 112
1, 58253, Note_off_c, 0, 71, 112
1, 58388, Note_on_c, 0, 70, 120
1, 58514, Note_off_c, 0, 70, 120
1, 58515, Note_on_c, 0, 68, 118
1, 58583, Note_off_c, 0, 68, 118
1, 58713, Note_on_c, 0, 61, 96
1, 58973, Note_off_c, 0, 61, 96
1, 58990, Note_on_c, 0, 66, 115
1, 59251, Note_off_c, 0, 66, 115
1, 59301, Note_on_c, 0, 61, 102
1, 59374, Note_off_c, 0, 61, 102
1, 59378, Note_on_c, 0, 60, 105
1, 59730, Note_off_c, 0, 60, 105
1, 60116, Note_on_c, 0, 60, 93
1, 60203, Note_off_c, 0, 60, 93
1, 60215, Note_on_c, 0, 61, 100
1, 60295, Note_off_c, 0, 61, 100
1, 60300, Note_on_c, 0, 64, 96
1, 60390, Note_off_c, 0, 64, 96
1, 60390, Note_on_c, 0, 65, 120
1, 60470, Note_off_c, 0, 65, 120
1, 60471, Note_on_c, 0, 66, 114
1, 60563, Note_off_c, 0, 66, 114
1, 60576, Note_on_c, 0, 68, 104
1, 60675, Note_off_c, 0, 68, 104
1, 60677, Note_on_c, 0, 70, 122
1, 60747, Note_off_c, 0, 70, 122
1, 60756, Note_on_c, 0, 72, 125
1, 60846, Note_off_c, 0, 72, 125
1, 60850, Note_on_c, 0, 73, 124
1, 60957, Note_off_c, 0, 73, 124
1, 60969, Note_on_c, 0, 72, 119
1, 61261, Note_off_c, 0, 72, 119
1, 61266, Note_on_c, 0, 70, 113
1, 61538, Note_off_c, 0, 70, 113
1, 61539, Note_on_c, 0, 68, 119
1, 61699, Note_off_c, 0, 68, 119
1, 61759, Note_on_c, 0, 61, 101
1, 62021, Note_off_c, 0, 61, 101
1, 62038, Note_on_c, 0, 66, 116
1, 62239, Note_off_c, 0, 66, 116
1, 62239, Note_on_c, 0, 61, 99
1, 62358, Note_off_c, 0, 61, 99
1, 62360, Note_on_c, 0, 60, 94
1, 62771, Note_off_c, 0, 60, 94
1, 62771, End_track
0, 0, End_of_file
