0, 0, Header, 1, 1, 192
1, 0, Start_track
1, 0, Title_t, "Melody"
1, 0, Tempo, 500000
1, 0, Key_signature, 0, "major"
1, 0, Time_signature, 4, 2, 24, 8
1, 1945, Note_on_c, 0, 67, 91
1, 1991, Note_off_c, 0, 67, 91
1, 2034, Note_on_c, 0, 72, 115
1, 2135, Note_off_c, 0, 72, 115
1, 2151, Note_on_c, 0, 74, 120
1, 2235, Note_off_c, 0, 74, 120
1, 2235, Note_on_c, 0, 72, 116
1, 2308, Note_off_c, 0, 72, 116
1, 2315, Note_on_c, 0, 74, 120
1, 2404, Note_off_c, 0, 74, 120
1, 2409, Note_on_c, 0, 72, 116
1, 2503, Note_off_c, 0, 72, 116
1, 2758, Note_on_c, 0, 74, 120
1, 2884, Note_off_c, 0, 74, 120
1, 2884, Note_on_c, 0, 72, 115
1, 3114, Note_off_c, 0, 72, 115
1, 3160, Note_on_c, 0, 67, 101
1, 3346, Note_off_c, 0, 67, 101
1, 3360, Note_on_c, 0, 69, 111
1, 3480, Note_off_c, 0, 69, 111
1, 3554, Note_on_c, 0, 72, 120
1, 3648, Note_off_c, 0, 72, 120
1, 3653, Note_on_c, 0, 74, 119
1, 3731, Note_off_c, 0, 74, 119
1, 3743, Note_on_c, 0, 72, 116
1, 3874, Note_off_c, 0, 72, 116
1, 4559, Note_on_c, 0, 73, 119
1, 4619, Note_off_c, 0, 73, 119
1, 4621, Note_on_c, 0, 71, 112
1, 4661, Note_off_c, 0, 71, 112
1, 4664, Note_on_c, 0, 72, 108
1, 4707, Note_off_c, 0, 72, 108
1, 4709, Note_on_c, 0, 70, 117
1, 4759, Note_off_c, 0, 70, 117
1, 4762, Note_on_c, 0, 67, 100
1, 4807, Note_off_c, 0, 67, 100
1, 4813, Note_on_c, 0, 68, 105
1, 4850, Note_off_c, 0, 68, 105
1, 4853, Note_on_c, 0, 69, 117
1, 4898, Note_off_c, 0, 69, 117
1, 4914, Note_on_c, 0, 63, 98
1, 5013, Note_off_c, 0, 63, 98
1, 5461, Note_on_c, 0, 73, 119
1, 5522, Note_off_c, 0, 73, 119
1, 5524, Note_on_c, 0, 74, 121
1, 5636, Note_off_c, 0, 74, 121
1, 5636, Note_on_c, 0, 72, 117
1, 5722, Note_off_c, 0, 72, 117
1, 5759, Note_on_c, 0, 67, 107
1, 5838, Note_off_c, 0, 67, 107
1, 5855, Note_on_c, 0, 65, 108
1, 5989, Note_off_c, 0, 65, 108
1, 6009, Note_on_c, 0, 67, 102
1, 6109, Note_off_c, 0, 67, 102
1, 6112, Note_on_c, 0, 64, 97
1, 6342, Note_off_c, 0, 64, 97
1, 6592, Note_on_c, 0, 69, 116
1, 6697, Note_off_c, 0, 69, 116
1, 6698, Note_on_c, 0, 67, 110
1, 6780, Note_off_c, 0, 67, 110
1, 6787, Note_on_c, 0, 64, 111
1, 6878, Note_off_c, 0, 64, 111
1, 6880, Note_on_c, 0, 62, 108
1, 6970, Note_off_c, 0, 62, 108
1, 6987, Note_on_c, 0, 60, 85
1, 7064, Note_off_c, 0, 60, 85
1, 7066, Note_on_c, 0, 62, 112
1, 7153, Note_off_c, 0, 62, 112
1, 7156, Note_on_c, 0, 64, 114
1, 7246, Note_off_c, 0, 64, 114
1, 7248, Note_on_c, 0, 62, 108
1, 7339, Note_off_c, 0, 62, 108
1, 7341, Note_on_c, 0, 63, 107
1, 7408, Note_off_c, 0, 63, 107
1, 7445, Note_on_c, 0, 68, 107
1, 7623, Note_off_c, 0, 68, 107
1, 7725, Note_on_c, 0, 68, 113
1, 7758, Note_off_c, 0, 68, 113
1, 7768, Note_on_c, 0, 67, 114
1, 7818, Note_off_c, 0, 67, 114
1, 7819, Note_on_c, 0, 69, 113
1, 7887, Note_off_c, 0, 69, 113
1, 7916, Note_on_c, 0, 65, 114
1, 8003, Note_off_c, 0, 65, 114
1, 8013, Note_on_c, 0, 62, 112
1, 8094, Note_off_c, 0, 62, 112
1, 8115, Note_on_c, 0, 60, 102
1, 8212, Note_off_c, 0, 60, 102
1, 8219, Note_on_c, 0, 59, 87
1, 8350, Note_off_c, 0, 59, 87
1, 9247, Note_on_c, 0, 76, 126
1, 9358, Note_off_c, 0, 76, 126
1, 9362, Note_on_c, 0, 79, 127
1, 9439, Note_off_c, 0, 79, 127
1, 9464, Note_on_c, 0, 79, 126
1, 9570, Note_off_c, 0, 79, 126
1, 9627, Note_on_c, 0, 77, 123
1, 9717, Note_off_c, 0, 77, 123
1, 9753, Note_on_c, 0, 79, 124
1, 9838, Note_off_c, 0, 79, 124
1, 9846, Note_on_c, 0, 79, 123
1, 9956, Note_off_c, 0, 79, 123
1, 10019, Note_on_c, 0, 76, 105
1, 10127, Note_off_c, 0, 76, 105
1, 10127, Note_on_c, 0, 79, 125
1, 10193, Note_off_c, 0, 79, 125
1, 10215, Note_on_c, 0, 79, 125
1, 10297, Note_off_c, 0, 79, 125
1, 10392, Note_on_c, 0, 77, 124
1, 10506, Note_off_c, 0, 77, 124
1, 10507, Note_on_c, 0, 79, 124
1, 10587, Note_off_c, 0, 79, 124
1, 10604, Note_on_c, 0, 79, 124
1, 10693, Note_off_c, 0, 79, 124
1, 10799, Note_on_c, 0, 76, 123
1, 10955, Note_off_c, 0, 76, 123
1, 11006, Note_on_c, 0, 72, 116
1, 11111, Note_off_c, 0, 72, 116
1, 11121, Note_on_c, 0, 67, 99
1, 11316, Note_off_c, 0, 67, 99
1, 11966, Note_on_c, 0, 69, 119
1, 12048, Note_off_c, 0, 69, 119
1, 12052, Note_on_c, 0, 70, 100
1, 12092, Note_off_c, 0, 70, 100
1, 12092, Note_on_c, 0, 68, 114
1, 12129, Note_off_c, 0, 68, 114
1, 12135, Note_on_c, 0, 69, 119
1, 12226, Note_off_c, 0, 69, 119
1, 12231, Note_on_c, 0, 68, 118
1, 12323, Note_off_c, 0, 68, 118
1, 12335, Note_on_c, 0, 69, 118
1, 12421, Note_off_c, 0, 69, 118
1, 12513, Note_on_c, 0, 77, 123
1, 12648, Note_off_c, 0, 77, 123
1, 12651, Note_on_c, 0, 76, 122
1, 12831, Note_off_c, 0, 76, 122
1, 12893, Note_on_c, 0, 72, 118
1, 13005, Note_off_c, 0, 72, 118
1, 13015, Note_on_c, 0, 70, 105
1, 13189, Note_off_c, 0, 70, 105
1, 13477, Note_on_c, 0, 81, 123
1, 13569, Note_off_c, 0, 81, 123
1, 13570, Note_on_c, 0, 79, 120
1, 13654, Note_off_c, 0, 79, 120
1, 13661, Note_on_c, 0, 76, 120
1, 13743, Note_off_c, 0, 76, 120
1, 13753, Note_on_c, 0, 72, 113
1, 13840, Note_off_c, 0, 72, 113
1, 14058, Note_on_c, 0, 65, 114
1, 14149, Note_off_c, 0, 65, 114
1, 14159, Note_on_c, 0, 67, 110
1, 14237, Note_off_c, 0, 67, 110
1, 14244, Note_on_c, 0, 65, 113
1, 14336, Note_off_c, 0, 65, 113
1, 14339, Note_on_c, 0, 67, 116
1, 14419, Note_off_c, 0, 67, 116
1, 14424, Note_on_c, 0, 65, 112
1, 14504, Note_off_c, 0, 65, 112
1, 14631, Note_on_c, 0, 72, 118
1, 14794, Note_off_c, 0, 72, 118
1, 14802, Note_on_c, 0, 67, 106
1, 14898, Note_off_c, 0, 67, 106
1, 14904, Note_on_c, 0, 65, 114
1, 14999, Note_off_c, 0, 65, 114
1, 15002, Note_on_c, 0, 63, 110
1, 15083, Note_off_c, 0, 63, 110
1, 15434, Note_on_c, 0, 63, 99
1, 15470, Note_off_c, 0, 63, 99
1, 15477, Note_on_c, 0, 64, 111
1, 15564, Note_off_c, 0, 64, 111
1, 15574, Note_on_c, 0, 65, 117
1, 15657, Note_off_c, 0, 65, 117
1, 15672, Note_on_c, 0, 66, 114
1, 15744, Note_off_c, 0, 66, 114
1, 15757, Note_on_c, 0, 67, 115
1, 15829, Note_off_c, 0, 67, 115
1, 15840, Note_on_c, 0, 72, 118
1, 15925, Note_off_c, 0, 72, 118
1, 16945, Note_on_c, 0, 73, 124
1, 17022, Note_off_c, 0, 73, 124
1, 17022, Note_on_c, 0, 74, 121
1, 17087, Note_off_c, 0, 74, 121
1, 17116, Note_on_c, 0, 69, 120
1, 17183, Note_off_c, 0, 69, 120
1, 17193, Note_on_c, 0, 65, 116
1, 17268, Note_off_c, 0, 65, 116
1, 17275, Note_on_c, 0, 64, 117
1, 17372, Note_off_c, 0, 64, 117
1, 17379, Note_on_c, 0, 61, 105
1, 17446, Note_off_c, 0, 61, 105
1, 17498, Note_on_c, 0, 64, 116
1, 17584, Note_off_c, 0, 64, 116
1, 17596, Note_on_c, 0, 61, 109
1, 17652, Note_off_c, 0, 61, 109
1, 17658, Note_on_c, 0, 62, 98
1, 17744, Note_off_c, 0, 62, 98
1, 17750, Note_on_c, 0, 64, 116
1, 17832, Note_off_c, 0, 64, 116
1, 17850, Note_on_c, 0, 65, 116
1, 17922, Note_off_c, 0, 65, 116
1, 17922, Note_on_c, 0, 67, 118
1, 18014, Note_off_c, 0, 67, 118
1, 18017, Note_on_c, 0, 68, 119
1, 18109, Note_off_c, 0, 68, 119
1, 18117, Note_on_c, 0, 71, 117
1, 18192, Note_off_c, 0, 71, 117
1, 18215, Note_on_c, 0, 72, 121
1, 18267, Note_off_c, 0, 72, 121
1, 18269, Note_on_c, 0, 74, 120
1, 18539, Note_off_c, 0, 74, 120
1, 18561, Note_on_c, 0, 69, 119
1, 18660, Note_off_c, 0, 69, 119
1, 18748, Note_on_c, 0, 69, 111
1, 19045, Note_off_c, 0, 69, 111
1, 19060, Note_on_c, 0, 69, 118
1, 19158, Note_off_c, 0, 69, 118
1, 19347, Note_on_c, 0, 67, 95
1, 19379, Note_off_c, 0, 67, 95
1, 19413, Note_on_c, 0, 69, 112
1, 19493, Note_off_c, 0, 69, 112
1, 19503, Note_on_c, 0, 72, 113
1, 19586, Note_off_c, 0, 72, 113
1, 19611, Note_on_c, 0, 76, 121
1, 19701, Note_off_c, 0, 76, 121
1, 19702, Note_on_c, 0, 72, 114
1, 19782, Note_off_c, 0, 72, 114
1, 19888, Note_on_c, 0, 72, 94
1, 19965, Note_off_c, 0, 72, 94
1, 19983, Note_on_c, 0, 76, 121
1, 20075, Note_off_c, 0, 76, 121
1, 20267, Note_on_c, 0, 72, 112
1, 20386, Note_off_c, 0, 72, 112
1, 20386, End_track
0, 0, End_of_file
