0, 0, Header, 1, 1, 192
1, 0, Start_track
1, 0, Title_t, "Melody"
1, 0, Tempo, 368098
1, 0, Key_signature, -2, "major"
1, 0, Time_signature, 4, 2, 24, 8
1, 4469, Note_on_c, 0, 74, 104
1, 4581, Note_off_c, 0, 74, 104
1, 4686, Note_on_c, 0, 70, 113
1, 5424, Note_off_c, 0, 70, 113
1, 5481, Note_on_c, 0, 68, 100
1, 5565, Note_off_c, 0, 68, 100
1, 5643, Note_on_c, 0, 69, 106
1, 5782, Note_off_c, 0, 69, 106
1, 5791, Note_on_c, 0, 70, 108
1, 5903, Note_off_c, 0, 70, 108
1, 5996, Note_on_c, 0, 70, 102
1, 6201, Note_off_c, 0, 70, 102
1, 7412, Note_on_c, 0, 73, 107
1, 7448, Note_off_c, 0, 73, 107
1, 7451, Note_on_c, 0, 75, 111
1, 8071, Note_off_c, 0, 75, 111
1, 8161, Note_on_c, 0, 73, 111
1, 8266, Note_off_c, 0, 73, 111
1, 8326, Note_on_c, 0, 70, 109
1, 8459, Note_off_c, 0, 70, 109
1, 8486, Note_on_c, 0, 68, 104
1, 8694, Note_off_c, 0, 68, 104
1, 8699, Note_on_c, 0, 64, 90
1, 8734, Note_off_c, 0, 64, 90
1, 8765, Note_on_c, 0, 69, 117
1, 8874, Note_off_c, 0, 69, 117
1, 8931, Note_on_c, 0, 70, 102
1, 9251, Note_off_c, 0, 70, 102
1, 9269, Note_on_c, 0, 70, 118
1, 9341, Note_off_c, 0, 70, 118
1, 10004, Note_on_c, 0, 72, 124
1, 10094, Note_off_c, 0, 72, 124
1, 10100, Note_on_c, 0, 74, 117
1, 10272, Note_on_c, 0, 72, 113
1, 10272, Note_off_c, 0, 74, 117
1, 10374, Note_off_c, 0, 72, 113
1, 10443, Note_on_c, 0, 70, 114
1, 10585, Note_off_c, 0, 70, 114
1, 10597, Note_on_c, 0, 65, 88
1, 10815, Note_off_c, 0, 65, 88
1, 11347, Note_on_c, 0, 67, 100
1, 11398, Note_off_c, 0, 67, 100
1, 11407, Note_on_c, 0, 70, 117
1, 11534, Note_off_c, 0, 70, 117
1, 11535, Note_on_c, 0, 72, 119
1, 11601, Note_off_c, 0, 72, 119
1, 11617, Note_on_c, 0, 74, 115
1, 11738, Note_off_c, 0, 74, 115
1, 11744, Note_on_c, 0, 72, 82
1, 11792, Note_off_c, 0, 72, 82
1, 11798, Note_on_c, 0, 74, 117
1, 11903, Note_off_c, 0, 74, 117
1, 11993, Note_on_c, 0, 70, 118
1, 12117, Note_off_c, 0, 70, 118
1, 12180, Note_on_c, 0, 68, 98
1, 12337, Note_off_c, 0, 68, 98
1, 12341, Note_on_c, 0, 65, 107
1, 12483, Note_off_c, 0, 65, 107
1, 12497, Note_on_c, 0, 65, 104
1, 12577, Note_off_c, 0, 65, 104
1, 13305, Note_on_c, 0, 73, 116
1, 13419, Note_off_c, 0, 73, 116
1, 13487, Note_on_c, 0, 73, 115
1, 13616, Note_off_c, 0, 73, 115
1, 13630, Note_on_c, 0, 73, 112
1, 13695, Note_off_c, 0, 73, 112
1, 14063, Note_on_c, 0, 73, 110
1, 14173, Note_off_c, 0, 73, 110
1, 14236, Note_on_c, 0, 70, 108
1, 14372, Note_off_c, 0, 70, 108
1, 14386, Note_on_c, 0, 68, 105
1, 14462, Note_off_c, 0, 68, 105
1, 14823, Note_on_c, 0, 73, 110
1, 14916, Note_off_c, 0, 73, 110
1, 14988, Note_on_c, 0, 73, 113
1, 15132, Note_off_c, 0, 73, 113
1, 15159, Note_on_c, 0, 73, 112
1, 15224, Note_off_c, 0, 73, 112
1, 15592, Note_on_c, 0, 73, 114
1, 15713, Note_off_c, 0, 73, 114
1, 15772, Note_on_c, 0, 70, 109
1, 15903, Note_off_c, 0, 70, 109
1, 15911, Note_on_c, 0, 68, 107
1, 15981, Note_off_c, 0, 68, 107
1, 16370, Note_on_c, 0, 68, 108
1, 16463, Note_off_c, 0, 68, 108
1, 16486, Note_on_c, 0, 63, 96
1, 16526, Note_off_c, 0, 63, 96
1, 16532, Note_on_c, 0, 68, 110
1, 16649, Note_off_c, 0, 68, 110
1, 16663, Note_on_c, 0, 70, 116
1, 16724, Note_off_c, 0, 70, 116
1, 17092, Note_on_c, 0, 75, 113
1, 17481, Note_off_c, 0, 75, 113
1, 17506, Note_on_c, 0, 73, 105
1, 17610, Note_off_c, 0, 73, 105
1, 17620, Note_on_c, 0, 70, 106
1, 17703, Note_off_c, 0, 70, 106
1, 17858, Note_on_c, 0, 73, 112
1, 17985, Note_off_c, 0, 73, 112
1, 18053, Note_on_c, 0, 73, 109
1, 18189, Note_off_c, 0, 73, 109
1, 18213, Note_on_c, 0, 73, 109
1, 18264, Note_off_c, 0, 73, 109
1, 18616, Note_on_c, 0, 73, 109
1, 18743, Note_off_c, 0, 73, 109
1, 18811, Note_on_c, 0, 70, 110
1, 18945, Note_off_c, 0, 70, 110
1, 18952, Note_on_c, 0, 68, 106
1, 19024, Note_off_c, 0, 68, 106
1, 19370, Note_on_c, 0, 70, 105
1, 19474, Note_off_c, 0, 70, 105
1, 19493, Note_on_c, 0, 70, 104
1, 19776, Note_off_c, 0, 70, 104
1, 20169, Note_on_c, 0, 72, 99
1, 20211, Note_off_c, 0, 72, 99
1, 20219, Note_on_c, 0, 74, 110
1, 20627, Note_off_c, 0, 74, 110
1, 20703, Note_on_c, 0, 70, 113
1, 20824, Note_off_c, 0, 70, 113
1, 20830, Note_on_c, 0, 65, 104
1, 20887, Note_off_c, 0, 65, 104
1, 20893, Note_on_c, 0, 63, 97
1, 21005, Note_off_c, 0, 63, 97
1, 21017, Note_on_c, 0, 65, 101
1, 21097, Note_off_c, 0, 65, 101
1, 21103, Note_on_c, 0, 62, 90
1, 21188, Note_off_c, 0, 62, 90
1, 21266, Note_on_c, 0, 69, 110
1, 21404, Note_on_c, 0, 65, 90
1, 21404, Note_off_c, 0, 69, 110
1, 21450, Note_off_c, 0, 65, 90
1, 21450, Note_on_c, 0, 70, 108
1, 21581, Note_off_c, 0, 70, 108
1, 21589, Note_on_c, 0, 74, 110
1, 21650, Note_off_c, 0, 74, 110
1, 22599, Note_on_c, 0, 79, 77
1, 22628, Note_off_c, 0, 79, 77
1, 22638, Note_on_c, 0, 81, 124
1, 22904, Note_off_c, 0, 81, 124
1, 22976, Note_on_c, 0, 77, 113
1, 23344, Note_off_c, 0, 77, 113
1, 23386, Note_on_c, 0, 74, 110
1, 23490, Note_off_c, 0, 74, 110
1, 23579, Note_on_c, 0, 74, 115
1, 23702, Note_off_c, 0, 74, 115
1, 23710, Note_on_c, 0, 70, 101
1, 23956, Note_off_c, 0, 70, 101
1, 24332, Note_on_c, 0, 77, 116
1, 24470, Note_off_c, 0, 77, 116
1, 24529, Note_on_c, 0, 74, 108
1, 24865, Note_off_c, 0, 74, 108
1, 24894, Note_on_c, 0, 65, 94
1, 24908, Note_off_c, 0, 65, 94
1, 24918, Note_on_c, 0, 70, 110
1, 25041, Note_off_c, 0, 70, 110
1, 25051, Note_on_c, 0, 68, 98
1, 25119, Note_off_c, 0, 68, 98
1, 25798, Note_on_c, 0, 69, 108
1, 25851, Note_off_c, 0, 69, 108
1, 25895, Note_on_c, 0, 70, 100
1, 25954, Note_off_c, 0, 70, 100
1, 25977, Note_on_c, 0, 72, 112
1, 26062, Note_off_c, 0, 72, 112
1, 26064, Note_on_c, 0, 73, 110
1, 26127, Note_off_c, 0, 73, 110
1, 26167, Note_on_c, 0, 75, 111
1, 26243, Note_off_c, 0, 75, 111
1, 26257, Note_on_c, 0, 76, 113
1, 26361, Note_off_c, 0, 76, 113
1, 26375, Note_on_c, 0, 79, 115
1, 26496, Note_off_c, 0, 79, 115
1, 26615, Note_on_c, 0, 79, 100
1, 26663, Note_off_c, 0, 79, 100
1, 26673, Note_on_c, 0, 81, 114
1, 27100, Note_off_c, 0, 81, 114
1, 27119, Note_on_c, 0, 79, 112
1, 27210, Note_off_c, 0, 79, 112
1, 27248, Note_on_c, 0, 77, 111
1, 27331, Note_off_c, 0, 77, 111
1, 27371, Note_on_c, 0, 84, 116
1, 27579, Note_off_c, 0, 84, 116
1, 27600, Note_on_c, 0, 80, 116
1, 27634, Note_on_c, 0, 81, 113
1, 27634, Note_off_c, 0, 80, 116
1, 27787, Note_off_c, 0, 81, 113
1, 27797, Note_on_c, 0, 79, 118
1, 27869, Note_off_c, 0, 79, 118
1, 27879, Note_on_c, 0, 77, 112
1, 27974, Note_off_c, 0, 77, 112
1, 28357, Note_on_c, 0, 73, 109
1, 28414, Note_off_c, 0, 73, 109
1, 28422, Note_on_c, 0, 75, 113
1, 28515, Note_off_c, 0, 75, 113
1, 28521, Note_on_c, 0, 74, 115
1, 28601, Note_off_c, 0, 74, 115
1, 28622, Note_on_c, 0, 70, 108
1, 28722, Note_off_c, 0, 70, 108
1, 28736, Note_on_c, 0, 65, 96
1, 28836, Note_off_c, 0, 65, 96
1, 28838, Note_on_c, 0, 63, 88
1, 29050, Note_off_c, 0, 63, 88
1, 29618, Note_on_c, 0, 67, 79
1, 29657, Note_off_c, 0, 67, 79
1, 29670, Note_on_c, 0, 70, 121
1, 29763, Note_off_c, 0, 70, 121
1, 29782, Note_on_c, 0, 73, 107
1, 29822, Note_off_c, 0, 73, 107
1, 29826, Note_on_c, 0, 74, 118
1, 29975, Note_off_c, 0, 74, 118
1, 29983, Note_on_c, 0, 73, 114
1, 30021, Note_off_c, 0, 73, 114
1, 30035, Note_on_c, 0, 74, 118
1, 30152, Note_off_c, 0, 74, 118
1, 30200, Note_on_c, 0, 70, 115
1, 30338, Note_off_c, 0, 70, 115
1, 30342, Note_on_c, 0, 67, 77
1, 30379, Note_off_c, 0, 67, 77
1, 30395, Note_on_c, 0, 68, 105
1, 30573, Note_off_c, 0, 68, 105
1, 30581, Note_on_c, 0, 65, 100
1, 30710, Note_off_c, 0, 65, 100
1, 30714, Note_on_c, 0, 70, 118
1, 30792, Note_off_c, 0, 70, 118
1, 31845, Note_on_c, 0, 65, 85
1, 31881, Note_off_c, 0, 65, 85
1, 31887, Note_on_c, 0, 70, 103
1, 31995, Note_off_c, 0, 70, 103
1, 32014, Note_on_c, 0, 74, 103
1, 32097, Note_off_c, 0, 74, 103
1, 32114, Note_on_c, 0, 77, 99
1, 32209, Note_off_c, 0, 77, 99
1, 32274, Note_on_c, 0, 77, 112
1, 32459, Note_off_c, 0, 77, 112
1, 32488, Note_on_c, 0, 75, 104
1, 32568, Note_off_c, 0, 75, 104
1, 32655, Note_on_c, 0, 75, 112
1, 32833, Note_off_c, 0, 75, 112
1, 32845, Note_on_c, 0, 76, 100
1, 32930, Note_off_c, 0, 76, 100
1, 33008, Note_on_c, 0, 79, 115
1, 33144, Note_off_c, 0, 79, 115
1, 33152, Note_on_c, 0, 77, 109
1, 33239, Note_off_c, 0, 77, 109
1, 33328, Note_on_c, 0, 82, 116
1, 33402, Note_off_c, 0, 82, 116
1, 33993, Note_on_c, 0, 82, 102
1, 34036, Note_off_c, 0, 82, 102
1, 34044, Note_on_c, 0, 84, 113
1, 34276, Note_off_c, 0, 84, 113
1, 34288, Note_on_c, 0, 82, 110
1, 34322, Note_off_c, 0, 82, 110
1, 34328, Note_on_c, 0, 80, 110
1, 34362, Note_off_c, 0, 80, 110
1, 34368, Note_on_c, 0, 79, 110
1, 34480, Note_off_c, 0, 79, 110
1, 34503, Note_on_c, 0, 77, 107
1, 34564, Note_off_c, 0, 77, 107
1, 34583, Note_on_c, 0, 75, 105
1, 34651, Note_off_c, 0, 75, 105
1, 34672, Note_on_c, 0, 73, 106
1, 34744, Note_off_c, 0, 73, 106
1, 35874, Note_on_c, 0, 75, 107
1, 35995, Note_off_c, 0, 75, 107
1, 36005, Note_on_c, 0, 73, 106
1, 36060, Note_off_c, 0, 73, 106
1, 36072, Note_on_c, 0, 70, 103
1, 36157, Note_off_c, 0, 70, 103
1, 36203, Note_on_c, 0, 68, 93
1, 36268, Note_off_c, 0, 68, 93
1, 36340, Note_on_c, 0, 65, 96
1, 36391, Note_off_c, 0, 65, 96
1, 36439, Note_on_c, 0, 65, 84
1, 36636, Note_off_c, 0, 65, 84
1, 37644, Note_on_c, 0, 74, 99
1, 37695, Note_off_c, 0, 74, 99
1, 37716, Note_on_c, 0, 74, 107
1, 37764, Note_off_c, 0, 74, 107
1, 37770, Note_on_c, 0, 74, 107
1, 37836, Note_off_c, 0, 74, 107
1, 37857, Note_on_c, 0, 74, 97
1, 37908, Note_off_c, 0, 74, 97
1, 37913, Note_on_c, 0, 74, 107
1, 37959, Note_off_c, 0, 74, 107
1, 37965, Note_on_c, 0, 74, 106
1, 37999, Note_off_c, 0, 74, 106
1, 38006, Note_on_c, 0, 74, 106
1, 38034, Note_off_c, 0, 74, 106
1, 38154, Note_on_c, 0, 74, 102
1, 38234, Note_off_c, 0, 74, 102
1, 38338, Note_on_c, 0, 74, 105
1, 38523, Note_off_c, 0, 74, 105
1, 38544, Note_on_c, 0, 74, 104
1, 38724, Note_off_c, 0, 74, 104
1, 38747, Note_on_c, 0, 74, 102
1, 38821, Note_off_c, 0, 74, 102
1, 38891, Note_on_c, 0, 74, 105
1, 38956, Note_off_c, 0, 74, 105
1, 39077, Note_on_c, 0, 74, 103
1, 39170, Note_off_c, 0, 74, 103
1, 39263, Note_on_c, 0, 74, 105
1, 39588, Note_off_c, 0, 74, 105
1, 39602, Note_on_c, 0, 70, 87
1, 39640, Note_off_c, 0, 70, 87
1, 39684, Note_on_c, 0, 74, 112
1, 39815, Note_off_c, 0, 74, 112
1, 39823, Note_on_c, 0, 74, 112
1, 39884, Note_off_c, 0, 74, 112
1, 40475, Note_on_c, 0, 74, 104
1, 40538, Note_off_c, 0, 74, 104
1, 40584, Note_on_c, 0, 75, 106
1, 40652, Note_off_c, 0, 75, 106
1, 40660, Note_on_c, 0, 74, 110
1, 40732, Note_off_c, 0, 74, 110
1, 40817, Note_on_c, 0, 70, 105
1, 41025, Note_off_c, 0, 70, 105
1, 41723, Note_on_c, 0, 78, 116
1, 41774, Note_off_c, 0, 78, 116
1, 41780, Note_on_c, 0, 76, 104
1, 41809, Note_off_c, 0, 76, 104
1, 41813, Note_on_c, 0, 75, 109
1, 41910, Note_off_c, 0, 75, 109
1, 41918, Note_on_c, 0, 73, 99
1, 42141, Note_off_c, 0, 73, 99
1, 42158, Note_on_c, 0, 70, 97
1, 42234, Note_off_c, 0, 70, 97
1, 42351, Note_on_c, 0, 73, 110
1, 42451, Note_off_c, 0, 73, 110
1, 43257, Note_on_c, 0, 65, 84
1, 43303, Note_off_c, 0, 65, 84
1, 43326, Note_on_c, 0, 68, 104
1, 43417, Note_off_c, 0, 68, 104
1, 43440, Note_on_c, 0, 70, 115
1, 43520, Note_off_c, 0, 70, 115
1, 43524, Note_on_c, 0, 71, 116
1, 43615, Note_off_c, 0, 71, 116
1, 43636, Note_on_c, 0, 73, 118
1, 43701, Note_off_c, 0, 73, 118
1, 43707, Note_on_c, 0, 74, 117
1, 43800, Note_off_c, 0, 74, 117
1, 43819, Note_on_c, 0, 76, 119
1, 43887, Note_off_c, 0, 76, 119
1, 43891, Note_on_c, 0, 77, 119
1, 43980, Note_off_c, 0, 77, 119
1, 43992, Note_on_c, 0, 79, 120
1, 44072, Note_off_c, 0, 79, 120
1, 44082, Note_on_c, 0, 80, 121
1, 44205, Note_off_c, 0, 80, 121
1, 44828, Note_on_c, 0, 76, 103
1, 44945, Note_off_c, 0, 76, 103
1, 44955, Note_on_c, 0, 75, 107
1, 45018, Note_off_c, 0, 75, 107
1, 45054, Note_on_c, 0, 73, 102
1, 45132, Note_off_c, 0, 73, 102
1, 45155, Note_on_c, 0, 70, 107
1, 45218, Note_off_c, 0, 70, 107
1, 45405, Note_on_c, 0, 73, 108
1, 45522, Note_off_c, 0, 73, 108
1, 45577, Note_on_c, 0, 73, 107
1, 45760, Note_off_c, 0, 73, 107
1, 46277, Note_on_c, 0, 73, 115
1, 46338, Note_off_c, 0, 73, 115
1, 46355, Note_on_c, 0, 74, 110
1, 46489, Note_off_c, 0, 74, 110
1, 46497, Note_on_c, 0, 73, 101
1, 46526, Note_off_c, 0, 73, 101
1, 46528, Note_on_c, 0, 74, 103
1, 46708, Note_off_c, 0, 74, 103
1, 46725, Note_on_c, 0, 72, 106
1, 46825, Note_off_c, 0, 72, 106
1, 46829, Note_on_c, 0, 70, 106
1, 46924, Note_off_c, 0, 70, 106
1, 46960, Note_on_c, 0, 65, 98
1, 47072, Note_off_c, 0, 65, 98
1, 47091, Note_on_c, 0, 63, 89
1, 47271, Note_off_c, 0, 63, 89
1, 47699, Note_on_c, 0, 63, 85
1, 47743, Note_off_c, 0, 63, 85
1, 47780, Note_on_c, 0, 65, 102
1, 47845, Note_off_c, 0, 65, 102
1, 47868, Note_on_c, 0, 67, 105
1, 47951, Note_off_c, 0, 67, 105
1, 47963, Note_on_c, 0, 69, 107
1, 48035, Note_off_c, 0, 69, 107
1, 48043, Note_on_c, 0, 70, 114
1, 48145, Note_off_c, 0, 70, 114
1, 48153, Note_on_c, 0, 72, 106
1, 48197, Note_off_c, 0, 72, 106
1, 48207, Note_on_c, 0, 73, 112
1, 48262, Note_off_c, 0, 73, 112
1, 48274, Note_on_c, 0, 74, 112
1, 48339, Note_off_c, 0, 74, 112
1, 48400, Note_on_c, 0, 70, 103
1, 48738, Note_off_c, 0, 70, 103
1, 48782, Note_on_c, 0, 70, 106
1, 48911, Note_off_c, 0, 70, 106
1, 48925, Note_on_c, 0, 70, 113
1, 48982, Note_off_c, 0, 70, 113
1, 49437, Note_on_c, 0, 73, 113
1, 49522, Note_off_c, 0, 73, 113
1, 49524, Note_on_c, 0, 74, 111
1, 49632, Note_off_c, 0, 74, 111
1, 49644, Note_on_c, 0, 77, 115
1, 49699, Note_off_c, 0, 77, 115
1, 49705, Note_on_c, 0, 79, 120
1, 49815, Note_off_c, 0, 79, 120
1, 49880, Note_on_c, 0, 80, 116
1, 49988, Note_off_c, 0, 80, 116
1, 50677, Note_on_c, 0, 79, 109
1, 50772, Note_off_c, 0, 79, 109
1, 50795, Note_on_c, 0, 77, 119
1, 50863, Note_off_c, 0, 77, 119
1, 50863, Note_on_c, 0, 76, 118
1, 50980, Note_off_c, 0, 76, 118
1, 50982, Note_on_c, 0, 74, 119
1, 51052, Note_off_c, 0, 74, 119
1, 51058, Note_on_c, 0, 75, 116
1, 51219, Note_off_c, 0, 75, 116
1, 51233, Note_on_c, 0, 73, 115
1, 51328, Note_off_c, 0, 73, 115
1, 51417, Note_on_c, 0, 80, 127
1, 51531, Note_off_c, 0, 80, 127
1, 52190, Note_on_c, 0, 80, 109
1, 52300, Note_off_c, 0, 80, 109
1, 52308, Note_on_c, 0, 77, 118
1, 52373, Note_off_c, 0, 77, 118
1, 52375, Note_on_c, 0, 76, 115
1, 52506, Note_off_c, 0, 76, 115
1, 52508, Note_on_c, 0, 74, 105
1, 52550, Note_off_c, 0, 74, 105
1, 52560, Note_on_c, 0, 75, 113
1, 52740, Note_off_c, 0, 75, 113
1, 52744, Note_on_c, 0, 73, 114
1, 52822, Note_off_c, 0, 73, 114
1, 52928, Note_on_c, 0, 73, 110
1, 53091, Note_off_c, 0, 73, 110
1, 53723, Note_on_c, 0, 79, 118
1, 53829, Note_off_c, 0, 79, 118
1, 53864, Note_on_c, 0, 77, 117
1, 53968, Note_off_c, 0, 77, 117
1, 54004, Note_on_c, 0, 76, 116
1, 54095, Note_off_c, 0, 76, 116
1, 54103, Note_on_c, 0, 75, 110
1, 54247, Note_off_c, 0, 75, 110
1, 54276, Note_on_c, 0, 73, 112
1, 54399, Note_off_c, 0, 73, 112
1, 54403, Note_on_c, 0, 70, 90
1, 54447, Note_off_c, 0, 70, 90
1, 54459, Note_on_c, 0, 73, 107
1, 54622, Note_off_c, 0, 73, 107
1, 54634, Note_on_c, 0, 70, 110
1, 54759, Note_off_c, 0, 70, 110
1, 54788, Note_on_c, 0, 68, 87
1, 55013, Note_off_c, 0, 68, 87
1, 56021, Note_on_c, 0, 60, 79
1, 56055, Note_off_c, 0, 60, 79
1, 56093, Note_on_c, 0, 63, 98
1, 56165, Note_off_c, 0, 63, 98
1, 56188, Note_on_c, 0, 67, 107
1, 56236, Note_off_c, 0, 67, 107
1, 56284, Note_on_c, 0, 70, 117
1, 56358, Note_off_c, 0, 70, 117
1, 56368, Note_on_c, 0, 69, 115
1, 56431, Note_off_c, 0, 69, 115
1, 56458, Note_on_c, 0, 70, 118
1, 56526, Note_off_c, 0, 70, 118
1, 56549, Note_on_c, 0, 72, 117
1, 56625, Note_off_c, 0, 72, 117
1, 56652, Note_on_c, 0, 74, 114
1, 56730, Note_off_c, 0, 74, 114
1, 56747, Note_on_c, 0, 75, 115
1, 56819, Note_off_c, 0, 75, 115
1, 56840, Note_on_c, 0, 77, 116
1, 56908, Note_off_c, 0, 77, 116
1, 56918, Note_on_c, 0, 79, 118
1, 56996, Note_off_c, 0, 79, 118
1, 57019, Note_on_c, 0, 82, 117
1, 57102, Note_off_c, 0, 82, 117
1, 57188, Note_on_c, 0, 84, 81
1, 57225, Note_off_c, 0, 84, 81
1, 57228, Note_on_c, 0, 86, 96
1, 57268, Note_off_c, 0, 86, 96
1, 57287, Note_on_c, 0, 88, 107
1, 57325, Note_off_c, 0, 88, 107
1, 57335, Note_on_c, 0, 87, 121
1, 57379, Note_off_c, 0, 87, 121
1, 57381, Note_on_c, 0, 86, 115
1, 57419, Note_off_c, 0, 86, 115
1, 57423, Note_on_c, 0, 84, 121
1, 57514, Note_off_c, 0, 84, 121
1, 57520, Note_on_c, 0, 83, 116
1, 57581, Note_off_c, 0, 83, 116
1, 57595, Note_on_c, 0, 80, 118
1, 57671, Note_off_c, 0, 80, 118
1, 57673, Note_on_c, 0, 79, 119
1, 57758, Note_off_c, 0, 79, 119
1, 57783, Note_on_c, 0, 78, 112
1, 57853, Note_off_c, 0, 78, 112
1, 57863, Note_on_c, 0, 77, 112
1, 57943, Note_off_c, 0, 77, 112
1, 57953, Note_on_c, 0, 76, 111
1, 58046, Note_off_c, 0, 76, 111
1, 58056, Note_on_c, 0, 75, 113
1, 58132, Note_off_c, 0, 75, 113
1, 58132, Note_on_c, 0, 72, 114
1, 58159, Note_off_c, 0, 72, 114
1, 58163, Note_on_c, 0, 74, 109
1, 58224, Note_off_c, 0, 74, 109
1, 58245, Note_on_c, 0, 70, 115
1, 58340, Note_off_c, 0, 70, 115
1, 58408, Note_on_c, 0, 70, 112
1, 58510, Note_off_c, 0, 70, 112
1, 58511, Note_on_c, 0, 72, 104
1, 58553, Note_off_c, 0, 72, 104
1, 58555, Note_on_c, 0, 74, 111
1, 58603, Note_off_c, 0, 74, 111
1, 58608, Note_on_c, 0, 70, 113
1, 58692, Note_off_c, 0, 70, 113
1, 58776, Note_on_c, 0, 70, 115
1, 58909, Note_off_c, 0, 70, 115
1, 58966, Note_on_c, 0, 70, 107
1, 59211, Note_off_c, 0, 70, 107
1, 59289, Note_on_c, 0, 70, 113
1, 59397, Note_off_c, 0, 70, 113
1, 59397, End_track
0, 0, End_of_file
