0, 0, Header, 1, 1, 192
1, 0, Start_track
1, 0, Title_t, "Melody"
1, 0, Tempo, 212765
1, 0, Key_signature, 2, "major"
1, 0, Time_signature, 4, 2, 24, 8
1, 5152, Note_on_c, 0, 73, 102
1, 5277, Note_off_c, 0, 73, 102
1, 5282, Note_on_c, 0, 71, 104
1, 5361, Note_off_c, 0, 71, 104
1, 5368, Note_on_c, 0, 73, 107
1, 5463, Note_off_c, 0, 73, 107
1, 5497, Note_on_c, 0, 71, 103
1, 5565, Note_off_c, 0, 71, 103
1, 5569, Note_on_c, 0, 69, 114
1, 5931, Note_off_c, 0, 69, 114
1, 5933, Note_on_c, 0, 66, 87
1, 6312, Note_off_c, 0, 66, 87
1, 6735, Note_on_c, 0, 64, 102
1, 6818, Note_off_c, 0, 64, 102
1, 6820, Note_on_c, 0, 66, 100
1, 7115, Note_off_c, 0, 66, 100
1, 7117, Note_on_c, 0, 61, 86
1, 7512, Note_off_c, 0, 61, 86
1, 8471, Note_on_c, 0, 64, 106
1, 8592, Note_off_c, 0, 64, 106
1, 8597, Note_on_c, 0, 63, 104
1, 8695, Note_off_c, 0, 63, 104
1, 8697, Note_on_c, 0, 65, 95
1, 8817, Note_off_c, 0, 65, 95
1, 8824, Note_on_c, 0, 67, 107
1, 8943, Note_off_c, 0, 67, 107
1, 8945, Note_on_c, 0, 69, 104
1, 9049, Note_off_c, 0, 69, 104
1, 9959, Note_on_c, 0, 67, 106
1, 10046, Note_off_c, 0, 67, 106
1, 10051, Note_on_c, 0, 65, 109
1, 10142, Note_off_c, 0, 65, 109
1, 10155, Note_on_c, 0, 64, 93
1, 10234, Note_off_c, 0, 64, 93
1, 10234, Note_on_c, 0, 67, 85
1, 10318, Note_off_c, 0, 67, 85
1, 10352, Note_on_c, 0, 69, 100
1, 10423, Note_off_c, 0, 69, 100
1, 10456, Note_on_c, 0, 71, 99
1, 10537, Note_off_c, 0, 71, 99
1, 10555, Note_on_c, 0, 74, 103
1, 10647, Note_off_c, 0, 74, 103
1, 10654, Note_on_c, 0, 71, 113
1, 10765, Note_off_c, 0, 71, 113
1, 10771, Note_on_c, 0, 72, 95
1, 10805, Note_off_c, 0, 72, 95
1, 10807, Note_on_c, 0, 74, 113
1, 10910, Note_off_c, 0, 74, 113
1, 10916, Note_on_c, 0, 76, 110
1, 11019, Note_off_c, 0, 76, 110
1, 11946, Note_on_c, 0, 74, 110
1, 12044, Note_off_c, 0, 74, 110
1, 12051, Note_on_c, 0, 75, 107
1, 12143, Note_off_c, 0, 75, 107
1, 12218, Note_on_c, 0, 71, 104
1, 12317, Note_off_c, 0, 71, 104
1, 12332, Note_on_c, 0, 74, 117
1, 12428, Note_off_c, 0, 74, 117
1, 12430, Note_on_c, 0, 72, 111
1, 12516, Note_off_c, 0, 72, 111
1, 12519, Note_on_c, 0, 70, 110
1, 12591, Note_off_c, 0, 70, 110
1, 12593, Note_on_c, 0, 67, 98
1, 12665, Note_off_c, 0, 67, 98
1, 12667, Note_on_c, 0, 68, 92
1, 12758, Note_off_c, 0, 68, 92
1, 12769, Note_on_c, 0, 69, 101
1, 12865, Note_off_c, 0, 69, 101
1, 12874, Note_on_c, 0, 67, 106
1, 12964, Note_off_c, 0, 67, 106
1, 12970, Note_on_c, 0, 63, 97
1, 13065, Note_off_c, 0, 63, 97
1, 13903, Note_on_c, 0, 65, 96
1, 13992, Note_off_c, 0, 65, 96
1, 14002, Note_on_c, 0, 67, 105
1, 14085, Note_off_c, 0, 67, 105
1, 14092, Note_on_c, 0, 69, 104
1, 14190, Note_off_c, 0, 69, 104
1, 14192, Note_on_c, 0, 70, 106
1, 14259, Note_off_c, 0, 70, 106
1, 14279, Note_on_c, 0, 72, 120
1, 14513, Note_off_c, 0, 72, 120
1, 14527, Note_on_c, 0, 70, 113
1, 14659, Note_off_c, 0, 70, 113
1, 14678, Note_on_c, 0, 69, 115
1, 14943, Note_off_c, 0, 69, 115
1, 14957, Note_on_c, 0, 69, 108
1, 15289, Note_off_c, 0, 69, 108
1, 15584, Note_on_c, 0, 60, 80
1, 15646, Note_off_c, 0, 60, 80
1, 15653, Note_on_c, 0, 63, 85
1, 15726, Note_off_c, 0, 63, 85
1, 15732, Note_on_c, 0, 65, 97
1, 15836, Note_off_c, 0, 65, 97
1, 15837, Note_on_c, 0, 67, 108
1, 15940, Note_off_c, 0, 67, 108
1, 15949, Note_on_c, 0, 69, 91
1, 16005, Note_off_c, 0, 69, 91
1, 16041, Note_on_c, 0, 70, 101
1, 16102, Note_off_c, 0, 70, 101
1, 16128, Note_on_c, 0, 72, 120
1, 16228, Note_off_c, 0, 72, 120
1, 16238, Note_on_c, 0, 70, 97
1, 16304, Note_off_c, 0, 70, 97
1, 16309, Note_on_c, 0, 72, 109
1, 16422, Note_off_c, 0, 72, 109
1, 16423, Note_on_c, 0, 70, 120
1, 16502, Note_off_c, 0, 70, 120
1, 16509, Note_on_c, 0, 69, 111
1, 16605, Note_off_c, 0, 69, 111
1, 16606, Note_on_c, 0, 65, 108
1, 16705, Note_off_c, 0, 65, 108
1, 17823, Note_on_c, 0, 73, 115
1, 17933, Note_off_c, 0, 73, 115
1, 17941, Note_on_c, 0, 71, 112
1, 18033, Note_off_c, 0, 71, 112
1, 18036, Note_on_c, 0, 73, 127
1, 18286, Note_off_c, 0, 73, 127
1, 18291, Note_on_c, 0, 71, 119
1, 18410, Note_off_c, 0, 71, 119
1, 18414, Note_on_c, 0, 69, 116
1, 18767, Note_off_c, 0, 69, 116
1, 18782, Note_on_c, 0, 66, 102
1, 19096, Note_off_c, 0, 66, 102
1, 19134, Note_on_c, 0, 64, 102
1, 19598, Note_off_c, 0, 64, 102
1, 19601, Note_on_c, 0, 66, 104
1, 19726, Note_off_c, 0, 66, 104
1, 20528, Note_on_c, 0, 62, 103
1, 20620, Note_off_c, 0, 62, 103
1, 20626, Note_on_c, 0, 61, 100
1, 20703, Note_off_c, 0, 61, 100
1, 20703, Note_on_c, 0, 62, 98
1, 20818, Note_off_c, 0, 62, 98
1, 20819, Note_on_c, 0, 64, 111
1, 20900, Note_off_c, 0, 64, 111
1, 20905, Note_on_c, 0, 65, 112
1, 21244, Note_off_c, 0, 65, 112
1, 21247, Note_on_c, 0, 67, 119
1, 21464, Note_off_c, 0, 67, 119
1, 21466, Note_on_c, 0, 69, 124
1, 21684, Note_off_c, 0, 69, 124
1, 21728, Note_on_c, 0, 71, 119
1, 21826, Note_off_c, 0, 71, 119
1, 21831, Note_on_c, 0, 72, 125
1, 21929, Note_off_c, 0, 72, 125
1, 21935, Note_on_c, 0, 73, 122
1, 22005, Note_off_c, 0, 73, 122
1, 22011, Note_on_c, 0, 74, 121
1, 22092, Note_off_c, 0, 74, 121
1, 22093, Note_on_c, 0, 76, 117
1, 22189, Note_off_c, 0, 76, 117
1, 22194, Note_on_c, 0, 74, 117
1, 22297, Note_off_c, 0, 74, 117
1, 22298, Note_on_c, 0, 72, 119
1, 22415, Note_off_c, 0, 72, 119
1, 22418, Note_on_c, 0, 71, 102
1, 22469, Note_off_c, 0, 71, 102
1, 22474, Note_on_c, 0, 69, 110
1, 22556, Note_off_c, 0, 69, 110
1, 22557, Note_on_c, 0, 67, 107
1, 22665, Note_off_c, 0, 67, 107
1, 22682, Note_on_c, 0, 66, 99
1, 22784, Note_off_c, 0, 66, 99
1, 22795, Note_on_c, 0, 65, 99
1, 22887, Note_off_c, 0, 65, 99
1, 22901, Note_on_c, 0, 64, 103
1, 22986, Note_off_c, 0, 64, 103
1, 23640, Note_on_c, 0, 64, 107
1, 23709, Note_off_c, 0, 64, 107
1, 23712, Note_on_c, 0, 63, 100
1, 23789, Note_off_c, 0, 63, 100
1, 23794, Note_on_c, 0, 65, 101
1, 23878, Note_off_c, 0, 65, 101
1, 23885, Note_on_c, 0, 67, 91
1, 23974, Note_off_c, 0, 67, 91
1, 23982, Note_on_c, 0, 70, 95
1, 24023, Note_off_c, 0, 70, 95
1, 24064, Note_on_c, 0, 74, 100
1, 24168, Note_off_c, 0, 74, 100
1, 24175, Note_on_c, 0, 75, 120
1, 24257, Note_off_c, 0, 75, 120
1, 24259, Note_on_c, 0, 74, 123
1, 24354, Note_off_c, 0, 74, 123
1, 24356, Note_on_c, 0, 72, 123
1, 24436, Note_off_c, 0, 72, 123
1, 24443, Note_on_c, 0, 71, 113
1, 24526, Note_off_c, 0, 71, 113
1, 24532, Note_on_c, 0, 74, 119
1, 24626, Note_off_c, 0, 74, 119
1, 24634, Note_on_c, 0, 72, 119
1, 24727, Note_off_c, 0, 72, 119
1, 24735, Note_on_c, 0, 70, 120
1, 24819, Note_off_c, 0, 70, 120
1, 24823, Note_on_c, 0, 69, 120
1, 24915, Note_off_c, 0, 69, 120
1, 24918, Note_on_c, 0, 67, 119
1, 25030, Note_off_c, 0, 67, 119
1, 25038, Note_on_c, 0, 66, 100
1, 25115, Note_off_c, 0, 66, 100
1, 25115, Note_on_c, 0, 64, 99
1, 25200, Note_off_c, 0, 64, 99
1, 25207, Note_on_c, 0, 65, 104
1, 25314, Note_off_c, 0, 65, 104
1, 25324, Note_on_c, 0, 60, 90
1, 25413, Note_off_c, 0, 60, 90
1, 25437, Note_on_c, 0, 62, 88
1, 25494, Note_off_c, 0, 62, 88
1, 25512, Note_on_c, 0, 60, 75
1, 25570, Note_off_c, 0, 60, 75
1, 25575, Note_on_c, 0, 65, 104
1, 25679, Note_off_c, 0, 65, 104
1, 25680, Note_on_c, 0, 67, 113
1, 25784, Note_off_c, 0, 67, 113
1, 25789, Note_on_c, 0, 69, 96
1, 25855, Note_off_c, 0, 69, 96
1, 25862, Note_on_c, 0, 70, 112
1, 25968, Note_off_c, 0, 70, 112
1, 25973, Note_on_c, 0, 72, 123
1, 26241, Note_off_c, 0, 72, 123
1, 26285, Note_on_c, 0, 73, 106
1, 26349, Note_off_c, 0, 73, 106
1, 26354, Note_on_c, 0, 72, 120
1, 26451, Note_off_c, 0, 72, 120
1, 26458, Note_on_c, 0, 70, 117
1, 26572, Note_off_c, 0, 70, 117
1, 26717, Note_on_c, 0, 69, 125
1, 26840, Note_off_c, 0, 69, 125
1, 26863, Note_on_c, 0, 69, 122
1, 26971, Note_off_c, 0, 69, 122
1, 27702, Note_on_c, 0, 61, 88
1, 27799, Note_off_c, 0, 61, 88
1, 27799, Note_on_c, 0, 63, 86
1, 27881, Note_off_c, 0, 63, 86
1, 27886, Note_on_c, 0, 65, 95
1, 27970, Note_off_c, 0, 65, 95
1, 27975, Note_on_c, 0, 67, 111
1, 28087, Note_off_c, 0, 67, 111
1, 28088, Note_on_c, 0, 69, 100
1, 28171, Note_off_c, 0, 69, 100
1, 28180, Note_on_c, 0, 70, 109
1, 28268, Note_off_c, 0, 70, 109
1, 28270, Note_on_c, 0, 72, 101
1, 28376, Note_off_c, 0, 72, 101
1, 28379, Note_on_c, 0, 70, 92
1, 28425, Note_off_c, 0, 70, 92
1, 28430, Note_on_c, 0, 72, 109
1, 28538, Note_off_c, 0, 72, 109
1, 28539, Note_on_c, 0, 70, 120
1, 28633, Note_off_c, 0, 70, 120
1, 28635, Note_on_c, 0, 69, 119
1, 28813, Note_off_c, 0, 69, 119
1, 30163, Note_on_c, 0, 73, 118
1, 30267, Note_off_c, 0, 73, 118
1, 30267, Note_on_c, 0, 76, 124
1, 30502, Note_off_c, 0, 76, 124
1, 30507, Note_on_c, 0, 73, 116
1, 30905, Note_off_c, 0, 73, 116
1, 30911, Note_on_c, 0, 71, 109
1, 31261, Note_off_c, 0, 71, 109
1, 31266, Note_on_c, 0, 69, 113
1, 31415, Note_off_c, 0, 69, 113
1, 31417, Note_on_c, 0, 65, 99
1, 32002, Note_off_c, 0, 65, 99
1, 32011, Note_on_c, 0, 66, 106
1, 32184, Note_off_c, 0, 66, 106
1, 33157, Note_on_c, 0, 62, 101
1, 33256, Note_off_c, 0, 62, 101
1, 33262, Note_on_c, 0, 64, 102
1, 33322, Note_off_c, 0, 64, 102
1, 33326, Note_on_c, 0, 65, 105
1, 33425, Note_off_c, 0, 65, 105
1, 33428, Note_on_c, 0, 67, 108
1, 33518, Note_off_c, 0, 67, 108
1, 33525, Note_on_c, 0, 64, 107
1, 33636, Note_off_c, 0, 64, 107
1, 33638, Note_on_c, 0, 65, 98
1, 33699, Note_off_c, 0, 65, 98
1, 33705, Note_on_c, 0, 62, 91
1, 33784, Note_off_c, 0, 62, 91
1, 33799, Note_on_c, 0, 60, 92
1, 33891, Note_off_c, 0, 60, 92
1, 33894, Note_on_c, 0, 59, 91
1, 33986, Note_off_c, 0, 59, 91
1, 34005, Note_on_c, 0, 63, 77
1, 34082, Note_off_c, 0, 63, 77
1, 34091, Note_on_c, 0, 65, 93
1, 34178, Note_off_c, 0, 65, 93
1, 34180, Note_on_c, 0, 69, 119
1, 34278, Note_off_c, 0, 69, 119
1, 34283, Note_on_c, 0, 67, 114
1, 34368, Note_off_c, 0, 67, 114
1, 34377, Note_on_c, 0, 65, 107
1, 34481, Note_off_c, 0, 65, 107
1, 34486, Note_on_c, 0, 62, 85
1, 34565, Note_off_c, 0, 62, 85
1, 34570, Note_on_c, 0, 63, 77
1, 34640, Note_off_c, 0, 63, 77
1, 34643, Note_on_c, 0, 64, 90
1, 34720, Note_off_c, 0, 64, 90
1, 34744, Note_on_c, 0, 65, 92
1, 34826, Note_off_c, 0, 65, 92
1, 34831, Note_on_c, 0, 67, 94
1, 34921, Note_off_c, 0, 67, 94
1, 34931, Note_on_c, 0, 69, 106
1, 35029, Note_off_c, 0, 69, 106
1, 35030, Note_on_c, 0, 71, 93
1, 35134, Note_off_c, 0, 71, 93
1, 35137, Note_on_c, 0, 72, 96
1, 35207, Note_off_c, 0, 72, 96
1, 35212, Note_on_c, 0, 74, 113
1, 35318, Note_off_c, 0, 74, 113
1, 35328, Note_on_c, 0, 71, 100
1, 35427, Note_off_c, 0, 71, 100
1, 35428, Note_on_c, 0, 72, 105
1, 35489, Note_off_c, 0, 72, 105
1, 35495, Note_on_c, 0, 74, 110
1, 35553, Note_off_c, 0, 74, 110
1, 35554, Note_on_c, 0, 76, 116
1, 35681, Note_off_c, 0, 76, 116
1, 35817, Note_on_c, 0, 75, 117
1, 36174, Note_off_c, 0, 75, 117
1, 36177, Note_on_c, 0, 74, 112
1, 36436, Note_off_c, 0, 74, 112
1, 36477, Note_on_c, 0, 72, 117
1, 36564, Note_off_c, 0, 72, 117
1, 36565, Note_on_c, 0, 71, 109
1, 36655, Note_off_c, 0, 71, 109
1, 36658, Note_on_c, 0, 74, 116
1, 36756, Note_off_c, 0, 74, 116
1, 36756, Note_on_c, 0, 72, 112
1, 36854, Note_off_c, 0, 72, 112
1, 36857, Note_on_c, 0, 70, 119
1, 36947, Note_off_c, 0, 70, 119
1, 36956, Note_on_c, 0, 69, 112
1, 37043, Note_off_c, 0, 69, 112
1, 37046, Note_on_c, 0, 67, 105
1, 37145, Note_off_c, 0, 67, 105
1, 37146, Note_on_c, 0, 63, 91
1, 37232, Note_off_c, 0, 63, 91
1, 37239, Note_on_c, 0, 64, 94
1, 37316, Note_off_c, 0, 64, 94
1, 37329, Note_on_c, 0, 65, 108
1, 37439, Note_off_c, 0, 65, 108
1, 37734, Note_on_c, 0, 62, 94
1, 37794, Note_off_c, 0, 62, 94
1, 37803, Note_on_c, 0, 63, 92
1, 37886, Note_off_c, 0, 63, 92
1, 37888, Note_on_c, 0, 65, 102
1, 37988, Note_off_c, 0, 65, 102
1, 37991, Note_on_c, 0, 67, 110
1, 38091, Note_off_c, 0, 67, 110
1, 38096, Note_on_c, 0, 69, 100
1, 38170, Note_off_c, 0, 69, 100
1, 38187, Note_on_c, 0, 70, 102
1, 38295, Note_off_c, 0, 70, 102
1, 38298, Note_on_c, 0, 72, 109
1, 38379, Note_off_c, 0, 72, 109
1, 38381, Note_on_c, 0, 70, 108
1, 38469, Note_off_c, 0, 70, 108
1, 38475, Note_on_c, 0, 72, 109
1, 38587, Note_off_c, 0, 72, 109
1, 38588, Note_on_c, 0, 70, 119
1, 38816, Note_off_c, 0, 70, 119
1, 38823, Note_on_c, 0, 69, 114
1, 39054, Note_off_c, 0, 69, 114
1, 39056, Note_on_c, 0, 69, 115
1, 39218, Note_off_c, 0, 69, 115
1, 39236, Note_on_c, 0, 69, 115
1, 39368, Note_off_c, 0, 69, 115
1, 39995, Note_on_c, 0, 69, 112
1, 40079, Note_off_c, 0, 69, 112
1, 40085, Note_on_c, 0, 70, 116
1, 40167, Note_off_c, 0, 70, 116
1, 40169, Note_on_c, 0, 72, 107
1, 40271, Note_off_c, 0, 72, 107
1, 40274, Note_on_c, 0, 70, 114
1, 40347, Note_off_c, 0, 70, 114
1, 40349, Note_on_c, 0, 69, 119
1, 40456, Note_off_c, 0, 69, 119
1, 40458, Note_on_c, 0, 67, 102
1, 40574, Note_off_c, 0, 67, 102
1, 40579, Note_on_c, 0, 66, 96
1, 40634, Note_off_c, 0, 66, 96
1, 40642, Note_on_c, 0, 64, 96
1, 40754, Note_off_c, 0, 64, 96
1, 40757, Note_on_c, 0, 65, 111
1, 40850, Note_off_c, 0, 65, 111
1, 40859, Note_on_c, 0, 62, 101
1, 40978, Note_off_c, 0, 62, 101
1, 41672, Note_on_c, 0, 57, 95
1, 41741, Note_off_c, 0, 57, 95
1, 41752, Note_on_c, 0, 58, 101
1, 41817, Note_off_c, 0, 58, 101
1, 41837, Note_on_c, 0, 61, 102
1, 41911, Note_off_c, 0, 61, 102
1, 41942, Note_on_c, 0, 62, 104
1, 42019, Note_off_c, 0, 62, 104
1, 42026, Note_on_c, 0, 64, 112
1, 42118, Note_off_c, 0, 64, 112
1, 42125, Note_on_c, 0, 65, 112
1, 42232, Note_off_c, 0, 65, 112
1, 42240, Note_on_c, 0, 67, 111
1, 42320, Note_off_c, 0, 67, 111
1, 42328, Note_on_c, 0, 68, 116
1, 42399, Note_off_c, 0, 68, 116
1, 42405, Note_on_c, 0, 69, 122
1, 42551, Note_off_c, 0, 69, 122
1, 42553, Note_on_c, 0, 71, 124
1, 42791, Note_off_c, 0, 71, 124
1, 42794, Note_on_c, 0, 73, 117
1, 43174, Note_off_c, 0, 73, 117
1, 43179, Note_on_c, 0, 71, 115
1, 43284, Note_off_c, 0, 71, 115
1, 43291, Note_on_c, 0, 73, 117
1, 43401, Note_off_c, 0, 73, 117
1, 43403, Note_on_c, 0, 69, 121
1, 43537, Note_off_c, 0, 69, 121
1, 43537, Note_on_c, 0, 66, 99
1, 43811, Note_off_c, 0, 66, 99
1, 43815, Note_on_c, 0, 64, 105
1, 44170, Note_off_c, 0, 64, 105
1, 44184, Note_on_c, 0, 66, 106
1, 44296, Note_off_c, 0, 66, 106
1, 45244, Note_on_c, 0, 73, 122
1, 45326, Note_off_c, 0, 73, 122
1, 45333, Note_on_c, 0, 74, 114
1, 45421, Note_off_c, 0, 74, 114
1, 45426, Note_on_c, 0, 76, 110
1, 45516, Note_off_c, 0, 76, 110
1, 45517, Note_on_c, 0, 74, 120
1, 45614, Note_off_c, 0, 74, 120
1, 45632, Note_on_c, 0, 72, 125
1, 45727, Note_off_c, 0, 72, 125
1, 45738, Note_on_c, 0, 71, 105
1, 45793, Note_off_c, 0, 71, 105
1, 45796, Note_on_c, 0, 69, 114
1, 45880, Note_off_c, 0, 69, 114
1, 45883, Note_on_c, 0, 67, 113
1, 45978, Note_off_c, 0, 67, 113
1, 45983, Note_on_c, 0, 65, 113
1, 46067, Note_off_c, 0, 65, 113
1, 46079, Note_on_c, 0, 64, 104
1, 46154, Note_off_c, 0, 64, 104
1, 46159, Note_on_c, 0, 67, 96
1, 46240, Note_off_c, 0, 67, 96
1, 46245, Note_on_c, 0, 69, 101
1, 46340, Note_off_c, 0, 69, 101
1, 46343, Note_on_c, 0, 71, 106
1, 46442, Note_off_c, 0, 71, 106
1, 46442, Note_on_c, 0, 74, 119
1, 46554, Note_off_c, 0, 74, 119
1, 46561, Note_on_c, 0, 71, 117
1, 46658, Note_off_c, 0, 71, 117
1, 46659, Note_on_c, 0, 72, 103
1, 46723, Note_off_c, 0, 72, 103
1, 46724, Note_on_c, 0, 74, 114
1, 46817, Note_off_c, 0, 74, 114
1, 46820, Note_on_c, 0, 76, 115
1, 46905, Note_off_c, 0, 76, 115
1, 46905, Note_on_c, 0, 79, 108
1, 46953, Note_off_c, 0, 79, 108
1, 46956, Note_on_c, 0, 77, 106
1, 47011, Note_off_c, 0, 77, 106
1, 47018, Note_on_c, 0, 77, 114
1, 47151, Note_off_c, 0, 77, 114
1, 47889, Note_on_c, 0, 78, 112
1, 47936, Note_off_c, 0, 78, 112
1, 47937, Note_on_c, 0, 76, 116
1, 47990, Note_off_c, 0, 76, 116
1, 47996, Note_on_c, 0, 75, 120
1, 48124, Note_off_c, 0, 75, 120
1, 48283, Note_on_c, 0, 74, 119
1, 48362, Note_off_c, 0, 74, 119
1, 48363, Note_on_c, 0, 72, 118
1, 48492, Note_off_c, 0, 72, 118
1, 48752, Note_on_c, 0, 71, 113
1, 48844, Note_off_c, 0, 71, 113
1, 48849, Note_on_c, 0, 74, 117
1, 48932, Note_off_c, 0, 74, 117
1, 48937, Note_on_c, 0, 72, 108
1, 49026, Note_off_c, 0, 72, 108
1, 49030, Note_on_c, 0, 70, 121
1, 49113, Note_off_c, 0, 70, 121
1, 49118, Note_on_c, 0, 69, 112
1, 49203, Note_off_c, 0, 69, 112
1, 49212, Note_on_c, 0, 67, 112
1, 49298, Note_off_c, 0, 67, 112
1, 49304, Note_on_c, 0, 67, 96
1, 49403, Note_off_c, 0, 67, 96
1, 49406, Note_on_c, 0, 63, 84
1, 49520, Note_off_c, 0, 63, 84
1, 49522, Note_on_c, 0, 65, 110
1, 49622, Note_off_c, 0, 65, 110
1, 49899, Note_on_c, 0, 62, 94
1, 49998, Note_off_c, 0, 62, 94
1, 50009, Note_on_c, 0, 63, 96
1, 50069, Note_off_c, 0, 63, 96
1, 50074, Note_on_c, 0, 65, 105
1, 50168, Note_off_c, 0, 65, 105
1, 50175, Note_on_c, 0, 67, 111
1, 50270, Note_off_c, 0, 67, 111
1, 50270, Note_on_c, 0, 69, 92
1, 50343, Note_off_c, 0, 69, 92
1, 50355, Note_on_c, 0, 70, 110
1, 50459, Note_off_c, 0, 70, 110
1, 50461, Note_on_c, 0, 72, 103
1, 50568, Note_off_c, 0, 72, 103
1, 50577, Note_on_c, 0, 70, 113
1, 50649, Note_off_c, 0, 70, 113
1, 50649, Note_on_c, 0, 72, 110
1, 50749, Note_off_c, 0, 72, 110
1, 50754, Note_on_c, 0, 74, 101
1, 50845, Note_off_c, 0, 74, 101
1, 50846, Note_on_c, 0, 72, 92
1, 50946, Note_off_c, 0, 72, 92
1, 50956, Note_on_c, 0, 70, 116
1, 51030, Note_off_c, 0, 70, 116
1, 51033, Note_on_c, 0, 69, 116
1, 51172, Note_off_c, 0, 69, 116
1, 51177, Note_on_c, 0, 69, 115
1, 51300, Note_off_c, 0, 69, 115
1, 51467, Note_on_c, 0, 69, 109
1, 51848, Note_off_c, 0, 69, 109
1, 53505, Note_on_c, 0, 72, 120
1, 53584, Note_off_c, 0, 72, 120
1, 53589, Note_on_c, 0, 74, 124
1, 54115, Note_off_c, 0, 74, 124
1, 54120, Note_on_c, 0, 74, 9
1, 54250, Note_off_c, 0, 74, 9
1, 54510, Note_on_c, 0, 74, 122
1, 54887, Note_off_c, 0, 74, 122
1, 54893, Note_on_c, 0, 74, 117
1, 55277, Note_off_c, 0, 74, 117
1, 55283, Note_on_c, 0, 73, 117
1, 55559, Note_off_c, 0, 73, 117
1, 55598, Note_on_c, 0, 71, 114
1, 55699, Note_off_c, 0, 71, 114
1, 55711, Note_on_c, 0, 69, 116
1, 55820, Note_off_c, 0, 69, 116
1, 55824, Note_on_c, 0, 66, 100
1, 56105, Note_off_c, 0, 66, 100
1, 56109, Note_on_c, 0, 64, 101
1, 56460, Note_off_c, 0, 64, 101
1, 56492, Note_on_c, 0, 66, 105
1, 56609, Note_off_c, 0, 66, 105
1, 57559, Note_on_c, 0, 73, 117
1, 57632, Note_off_c, 0, 73, 117
1, 57637, Note_on_c, 0, 74, 115
1, 57733, Note_off_c, 0, 74, 115
1, 57740, Note_on_c, 0, 76, 114
1, 57830, Note_off_c, 0, 76, 114
1, 57832, Note_on_c, 0, 74, 118
1, 57939, Note_off_c, 0, 74, 118
1, 57944, Note_on_c, 0, 72, 120
1, 58042, Note_off_c, 0, 72, 120
1, 58048, Note_on_c, 0, 71, 109
1, 58130, Note_off_c, 0, 71, 109
1, 58135, Note_on_c, 0, 69, 105
1, 58207, Note_off_c, 0, 69, 105
1, 58213, Note_on_c, 0, 67, 107
1, 58316, Note_off_c, 0, 67, 107
1, 58322, Note_on_c, 0, 65, 103
1, 58380, Note_off_c, 0, 65, 103
1, 58385, Note_on_c, 0, 64, 95
1, 58466, Note_off_c, 0, 64, 95
1, 58480, Note_on_c, 0, 67, 92
1, 58566, Note_off_c, 0, 67, 92
1, 58582, Note_on_c, 0, 69, 94
1, 58668, Note_off_c, 0, 69, 94
1, 58677, Note_on_c, 0, 71, 107
1, 58769, Note_off_c, 0, 71, 107
1, 58774, Note_on_c, 0, 74, 110
1, 58878, Note_off_c, 0, 74, 110
1, 58881, Note_on_c, 0, 71, 114
1, 58980, Note_off_c, 0, 71, 114
1, 58989, Note_on_c, 0, 72, 98
1, 59053, Note_off_c, 0, 72, 98
1, 59064, Note_on_c, 0, 74, 106
1, 59146, Note_off_c, 0, 74, 106
1, 59162, Note_on_c, 0, 76, 107
1, 59270, Note_off_c, 0, 76, 107
1, 59281, Note_on_c, 0, 79, 122
1, 59506, Note_off_c, 0, 79, 122
1, 59570, Note_on_c, 0, 77, 124
1, 59822, Note_off_c, 0, 77, 124
1, 59827, Note_on_c, 0, 76, 119
1, 60112, Note_off_c, 0, 76, 119
1, 60112, Note_on_c, 0, 75, 113
1, 60735, Note_off_c, 0, 75, 113
1, 60749, Note_on_c, 0, 74, 116
1, 61029, Note_off_c, 0, 74, 116
1, 61034, Note_on_c, 0, 72, 114
1, 61139, Note_off_c, 0, 72, 114
1, 61145, Note_on_c, 0, 71, 101
1, 61236, Note_off_c, 0, 71, 101
1, 61237, Note_on_c, 0, 74, 107
1, 61304, Note_off_c, 0, 74, 107
1, 61308, Note_on_c, 0, 72, 110
1, 61416, Note_off_c, 0, 72, 110
1, 61420, Note_on_c, 0, 70, 116
1, 61492, Note_off_c, 0, 70, 116
1, 61494, Note_on_c, 0, 69, 109
1, 61579, Note_off_c, 0, 69, 109
1, 61598, Note_on_c, 0, 67, 90
1, 61679, Note_off_c, 0, 67, 90
1, 61692, Note_on_c, 0, 66, 96
1, 61762, Note_off_c, 0, 66, 96
1, 61775, Note_on_c, 0, 64, 86
1, 61871, Note_off_c, 0, 64, 86
1, 61903, Note_on_c, 0, 65, 102
1, 62024, Note_off_c, 0, 65, 102
1, 62136, Note_on_c, 0, 62, 89
1, 62213, Note_off_c, 0, 62, 89
1, 62221, Note_on_c, 0, 63, 91
1, 62279, Note_off_c, 0, 63, 91
1, 62292, Note_on_c, 0, 65, 103
1, 62369, Note_off_c, 0, 65, 103
1, 62379, Note_on_c, 0, 67, 106
1, 62486, Note_off_c, 0, 67, 106
1, 62491, Note_on_c, 0, 69, 95
1, 62546, Note_off_c, 0, 69, 95
1, 62552, Note_on_c, 0, 70, 96
1, 62659, Note_off_c, 0, 70, 96
1, 62669, Note_on_c, 0, 72, 107
1, 62797, Note_off_c, 0, 72, 107
1, 63074, Note_on_c, 0, 72, 107
1, 63168, Note_off_c, 0, 72, 107
1, 63171, Note_on_c, 0, 70, 101
1, 63236, Note_off_c, 0, 70, 101
1, 63239, Note_on_c, 0, 72, 104
1, 63320, Note_off_c, 0, 72, 104
1, 63326, Note_on_c, 0, 70, 119
1, 63416, Note_off_c, 0, 70, 119
1, 63425, Note_on_c, 0, 69, 116
1, 63533, Note_off_c, 0, 69, 116
1, 63548, Note_on_c, 0, 69, 112
1, 63655, Note_off_c, 0, 69, 112
1, 64089, Note_on_c, 0, 61, 78
1, 64149, Note_off_c, 0, 61, 78
1, 64156, Note_on_c, 0, 63, 93
1, 64218, Note_off_c, 0, 63, 93
1, 64228, Note_on_c, 0, 65, 98
1, 64319, Note_off_c, 0, 65, 98
1, 64330, Note_on_c, 0, 67, 100
1, 64420, Note_off_c, 0, 67, 100
1, 64425, Note_on_c, 0, 69, 97
1, 64493, Note_off_c, 0, 69, 97
1, 64504, Note_on_c, 0, 70, 107
1, 64606, Note_off_c, 0, 70, 107
1, 64612, Note_on_c, 0, 72, 113
1, 64706, Note_off_c, 0, 72, 113
1, 64711, Note_on_c, 0, 70, 107
1, 64783, Note_off_c, 0, 70, 107
1, 64784, Note_on_c, 0, 72, 110
1, 64886, Note_off_c, 0, 72, 110
1, 64893, Note_on_c, 0, 70, 121
1, 64965, Note_off_c, 0, 70, 121
1, 64976, Note_on_c, 0, 69, 116
1, 65080, Note_off_c, 0, 69, 116
1, 65086, Note_on_c, 0, 65, 99
1, 65168, Note_off_c, 0, 65, 99
1, 65170, Note_on_c, 0, 67, 108
1, 65257, Note_off_c, 0, 67, 108
1, 65263, Note_on_c, 0, 69, 112
1, 65346, Note_off_c, 0, 69, 112
1, 65351, Note_on_c, 0, 65, 106
1, 65482, Note_off_c, 0, 65, 106
1, 65484, Note_on_c, 0, 62, 100
1, 65681, Note_off_c, 0, 62, 100
1, 66751, Note_on_c, 0, 67, 115
1, 66826, Note_off_c, 0, 67, 115
1, 66826, Note_on_c, 0, 69, 119
1, 67104, Note_off_c, 0, 69, 119
1, 67111, Note_on_c, 0, 68, 118
1, 67223, Note_off_c, 0, 68, 118
1, 67230, Note_on_c, 0, 69, 117
1, 67490, Note_off_c, 0, 69, 117
1, 67492, Note_on_c, 0, 68, 114
1, 67607, Note_off_c, 0, 68, 114
1, 67608, Note_on_c, 0, 69, 117
1, 67856, Note_off_c, 0, 69, 117
1, 67862, Note_on_c, 0, 68, 111
1, 67957, Note_off_c, 0, 68, 111
1, 67959, Note_on_c, 0, 69, 114
1, 68228, Note_off_c, 0, 69, 114
1, 68229, Note_on_c, 0, 65, 110
1, 68346, Note_off_c, 0, 65, 110
1, 68349, Note_on_c, 0, 66, 103
1, 68614, Note_off_c, 0, 66, 103
1, 68621, Note_on_c, 0, 65, 105
1, 68742, Note_off_c, 0, 65, 105
1, 68745, Note_on_c, 0, 66, 100
1, 69013, Note_off_c, 0, 66, 100
1, 69049, Note_on_c, 0, 65, 91
1, 69179, Note_off_c, 0, 65, 91
1, 69182, Note_on_c, 0, 66, 107
1, 69358, Note_off_c, 0, 66, 107
1, 69834, Note_on_c, 0, 64, 108
1, 69902, Note_off_c, 0, 64, 108
1, 69908, Note_on_c, 0, 65, 106
1, 70002, Note_off_c, 0, 65, 106
1, 70007, Note_on_c, 0, 61, 95
1, 70072, Note_off_c, 0, 61, 95
1, 70322, Note_on_c, 0, 64, 110
1, 70399, Note_off_c, 0, 64, 110
1, 70404, Note_on_c, 0, 62, 88
1, 70494, Note_off_c, 0, 62, 88
1, 70514, Note_on_c, 0, 64, 102
1, 70587, Note_off_c, 0, 64, 102
1, 70589, Note_on_c, 0, 65, 93
1, 70663, Note_off_c, 0, 65, 93
1, 70669, Note_on_c, 0, 67, 112
1, 70759, Note_off_c, 0, 67, 112
1, 70766, Note_on_c, 0, 69, 119
1, 70917, Note_off_c, 0, 69, 119
1, 71469, Note_on_c, 0, 76, 99
1, 71497, Note_off_c, 0, 76, 99
1, 71499, Note_on_c, 0, 75, 119
1, 71576, Note_off_c, 0, 75, 119
1, 71579, Note_on_c, 0, 74, 115
1, 71664, Note_off_c, 0, 74, 115
1, 71667, Note_on_c, 0, 72, 116
1, 71775, Note_off_c, 0, 72, 116
1, 71784, Note_on_c, 0, 71, 107
1, 71879, Note_off_c, 0, 71, 107
1, 71881, Note_on_c, 0, 69, 120
1, 71968, Note_off_c, 0, 69, 120
1, 71970, Note_on_c, 0, 67, 107
1, 72051, Note_off_c, 0, 67, 107
1, 72054, Note_on_c, 0, 65, 110
1, 72150, Note_off_c, 0, 65, 110
1, 72172, Note_on_c, 0, 62, 94
1, 72253, Note_off_c, 0, 62, 94
1, 72259, Note_on_c, 0, 63, 86
1, 72333, Note_off_c, 0, 63, 86
1, 72336, Note_on_c, 0, 64, 99
1, 72431, Note_off_c, 0, 64, 99
1, 72782, Note_on_c, 0, 73, 125
1, 72860, Note_off_c, 0, 73, 125
1, 72864, Note_on_c, 0, 74, 118
1, 73037, Note_off_c, 0, 74, 118
1, 73154, Note_on_c, 0, 72, 118
1, 73421, Note_off_c, 0, 72, 118
1, 73433, Note_on_c, 0, 70, 123
1, 73510, Note_off_c, 0, 70, 123
1, 73519, Note_on_c, 0, 69, 115
1, 73615, Note_off_c, 0, 69, 115
1, 73620, Note_on_c, 0, 67, 105
1, 73723, Note_off_c, 0, 67, 105
1, 73729, Note_on_c, 0, 67, 100
1, 73777, Note_off_c, 0, 67, 100
1, 73786, Note_on_c, 0, 64, 99
1, 73910, Note_off_c, 0, 64, 99
1, 73928, Note_on_c, 0, 65, 99
1, 74006, Note_off_c, 0, 65, 99
1, 74400, Note_on_c, 0, 58, 95
1, 74482, Note_off_c, 0, 58, 95
1, 74495, Note_on_c, 0, 62, 95
1, 74599, Note_off_c, 0, 62, 95
1, 74601, Note_on_c, 0, 65, 107
1, 74680, Note_off_c, 0, 65, 107
1, 74691, Note_on_c, 0, 63, 98
1, 74757, Note_off_c, 0, 63, 98
1, 74762, Note_on_c, 0, 65, 105
1, 74865, Note_off_c, 0, 65, 105
1, 74868, Note_on_c, 0, 67, 109
1, 74971, Note_off_c, 0, 67, 109
1, 74976, Note_on_c, 0, 69, 105
1, 75066, Note_off_c, 0, 69, 105
1, 75075, Note_on_c, 0, 70, 116
1, 75135, Note_off_c, 0, 70, 116
1, 75141, Note_on_c, 0, 68, 116
1, 75239, Note_off_c, 0, 68, 116
1, 75242, Note_on_c, 0, 69, 108
1, 75331, Note_off_c, 0, 69, 108
1, 75349, Note_on_c, 0, 72, 85
1, 75427, Note_off_c, 0, 72, 85
1, 75429, Note_on_c, 0, 75, 109
1, 75546, Note_off_c, 0, 75, 109
1, 75549, Note_on_c, 0, 77, 118
1, 75641, Note_off_c, 0, 77, 118
1, 75654, Note_on_c, 0, 77, 113
1, 75724, Note_off_c, 0, 77, 113
1, 75727, Note_on_c, 0, 75, 113
1, 75833, Note_off_c, 0, 75, 113
1, 75842, Note_on_c, 0, 74, 114
1, 75936, Note_off_c, 0, 74, 114
1, 75942, Note_on_c, 0, 72, 119
1, 76045, Note_off_c, 0, 72, 119
1, 76048, Note_on_c, 0, 71, 110
1, 76135, Note_off_c, 0, 71, 110
1, 76150, Note_on_c, 0, 69, 111
1, 76232, Note_off_c, 0, 69, 111
1, 76241, Note_on_c, 0, 70, 116
1, 76322, Note_off_c, 0, 70, 116
1, 76331, Note_on_c, 0, 69, 113
1, 76417, Note_off_c, 0, 69, 113
1, 76420, Note_on_c, 0, 67, 104
1, 76505, Note_off_c, 0, 67, 104
1, 76545, Note_on_c, 0, 63, 80
1, 76603, Note_off_c, 0, 63, 80
1, 76610, Note_on_c, 0, 69, 109
1, 76870, Note_off_c, 0, 69, 109
1, 76884, Note_on_c, 0, 69, 109
1, 76990, Note_off_c, 0, 69, 109
1, 77043, Note_on_c, 0, 73, 113
1, 77363, Note_off_c, 0, 73, 113
1, 77431, Note_on_c, 0, 66, 90
1, 77990, Note_off_c, 0, 66, 90
1, 78008, Note_on_c, 0, 69, 122
1, 78149, Note_off_c, 0, 69, 122
1, 78560, Note_on_c, 0, 66, 109
1, 78647, Note_off_c, 0, 66, 109
1, 78653, Note_on_c, 0, 64, 101
1, 78926, Note_off_c, 0, 64, 101
1, 78931, Note_on_c, 0, 61, 85
1, 79339, Note_off_c, 0, 61, 85
1, 79339, End_track
0, 0, End_of_file
