0, 0, Header, 1, 1, 2520
1, 0, Start_track
1, 0, Title_t, "Melody"
1, 0, Tempo, 508474
1, 0, Key_signature, -1, "major"
1, 0, Time_signature, 4, 2, 24, 8
1, 50864, Note_on_c, 0, 68, 124
1, 51719, Note_off_c, 0, 68, 124
1, 51723, Note_on_c, 0, 67, 124
1, 52384, Note_off_c, 0, 67, 124
1, 52502, Note_on_c, 0, 68, 125
1, 53365, Note_off_c, 0, 68, 125
1, 53400, Note_on_c, 0, 69, 112
1, 61450, Note_off_c, 0, 69, 112
1, 61530, Note_on_c, 0, 68, 120
1, 63916, Note_off_c, 0, 68, 120
1, 64118, Note_on_c, 0, 69, 115
1, 66504, Note_off_c, 0, 69, 115
1, 66544, Note_on_c, 0, 68, 119
1, 68405, Note_off_c, 0, 68, 119
1, 68566, Note_on_c, 0, 69, 113
1, 72571, Note_off_c, 0, 69, 113
1, 72773, Note_on_c, 0, 67, 117
1, 73905, Note_off_c, 0, 67, 117
1, 75321, Note_on_c, 0, 65, 117
1, 76170, Note_off_c, 0, 65, 117
1, 77666, Note_on_c, 0, 60, 111
1, 79001, Note_off_c, 0, 60, 111
1, 95733, Note_on_c, 0, 56, 114
1, 97270, Note_off_c, 0, 56, 114
1, 97314, Note_on_c, 0, 56, 117
1, 97889, Note_off_c, 0, 56, 117
1, 107124, Note_on_c, 0, 56, 118
1, 108591, Note_off_c, 0, 56, 118
1, 108591, Note_on_c, 0, 57, 116
1, 113970, Note_off_c, 0, 57, 116
1, 114005, Note_on_c, 0, 53, 108
1, 114806, Note_off_c, 0, 53, 108
1, 114863, Note_on_c, 0, 53, 111
1, 117380, Note_off_c, 0, 53, 111
1, 127575, Note_on_c, 0, 63, 110
1, 128754, Note_off_c, 0, 63, 110
1, 128897, Note_on_c, 0, 65, 103
1, 129702, Note_off_c, 0, 65, 103
1, 153321, Note_on_c, 0, 79, 119
1, 154385, Note_off_c, 0, 79, 119
1, 154528, Note_on_c, 0, 80, 123
1, 155103, Note_off_c, 0, 80, 123
1, 155304, Note_on_c, 0, 84, 98
1, 156109, Note_off_c, 0, 84, 98
1, 169917, Note_on_c, 0, 79, 90
1, 170200, Note_off_c, 0, 79, 90
1, 170781, Note_on_c, 0, 77, 119
1, 173312, Note_off_c, 0, 77, 119
1, 173427, Note_on_c, 0, 72, 117
1, 174836, Note_off_c, 0, 72, 117
1, 174836, Note_on_c, 0, 69, 117
1, 175411, Note_off_c, 0, 69, 117
1, 175439, Note_on_c, 0, 68, 117
1, 175784, Note_off_c, 0, 68, 117
1, 175812, Note_on_c, 0, 69, 112
1, 176502, Note_off_c, 0, 69, 112
1, 183465, Note_on_c, 0, 68, 117
1, 184759, Note_off_c, 0, 68, 117
1, 184900, Note_on_c, 0, 68, 111
1, 185911, Note_off_c, 0, 68, 111
1, 186133, Note_on_c, 0, 68, 117
1, 187346, Note_off_c, 0, 68, 117
1, 187426, Note_on_c, 0, 67, 106
1, 188275, Note_off_c, 0, 67, 106
1, 188578, Note_on_c, 0, 65, 100
1, 189832, Note_off_c, 0, 65, 100
1, 189993, Note_on_c, 0, 65, 92
1, 193391, Note_off_c, 0, 65, 92
1, 208825, Note_on_c, 0, 65, 112
1, 209978, Note_off_c, 0, 65, 112
1, 210200, Note_on_c, 0, 65, 101
1, 212870, Note_off_c, 0, 65, 101
1, 213011, Note_on_c, 0, 65, 105
1, 214528, Note_off_c, 0, 65, 105
1, 214790, Note_on_c, 0, 64, 85
1, 216327, Note_off_c, 0, 64, 85
1, 234107, Note_on_c, 0, 70, 117
1, 235158, Note_off_c, 0, 70, 117
1, 235299, Note_on_c, 0, 71, 118
1, 236269, Note_off_c, 0, 71, 118
1, 240817, Note_on_c, 0, 71, 117
1, 241680, Note_off_c, 0, 71, 117
1, 244602, Note_on_c, 0, 68, 118
1, 245653, Note_off_c, 0, 68, 118
1, 245835, Note_on_c, 0, 65, 111
1, 246866, Note_off_c, 0, 65, 111
1, 247007, Note_on_c, 0, 60, 94
1, 248139, Note_off_c, 0, 60, 94
1, 248442, Note_on_c, 0, 58, 105
1, 272068, Note_off_c, 0, 58, 105
1, 272371, Note_on_c, 0, 63, 102
1, 272860, Note_off_c, 0, 63, 102
1, 272860, Note_on_c, 0, 62, 101
1, 273435, Note_off_c, 0, 62, 101
1, 273492, Note_on_c, 0, 63, 105
1, 279188, Note_off_c, 0, 63, 105
1, 290062, Note_on_c, 0, 63, 106
1, 290666, Note_off_c, 0, 63, 106
1, 290695, Note_on_c, 0, 62, 96
1, 291281, Note_off_c, 0, 62, 96
1, 291382, Note_on_c, 0, 63, 108
1, 292090, Note_off_c, 0, 63, 108
1, 292130, Note_on_c, 0, 62, 104
1, 292716, Note_off_c, 0, 62, 104
1, 292735, Note_on_c, 0, 63, 108
1, 293741, Note_off_c, 0, 63, 108
1, 293798, Note_on_c, 0, 62, 87
1, 295121, Note_off_c, 0, 62, 87
1, 313245, Note_on_c, 0, 79, 118
1, 314654, Note_off_c, 0, 79, 118
1, 314769, Note_on_c, 0, 81, 117
1, 327370, Note_off_c, 0, 81, 117
1, 327456, Note_on_c, 0, 82, 112
1, 328520, Note_off_c, 0, 82, 112
1, 328635, Note_on_c, 0, 81, 120
1, 330677, Note_off_c, 0, 81, 120
1, 330734, Note_on_c, 0, 79, 114
1, 332201, Note_off_c, 0, 79, 114
1, 332287, Note_on_c, 0, 77, 118
1, 334387, Note_off_c, 0, 77, 118
1, 334444, Note_on_c, 0, 72, 119
1, 336314, Note_off_c, 0, 72, 119
1, 336314, Note_on_c, 0, 67, 118
1, 337349, Note_off_c, 0, 67, 118
1, 337607, Note_on_c, 0, 69, 114
1, 338556, Note_off_c, 0, 69, 114
1, 338584, Note_on_c, 0, 66, 110
1, 338958, Note_off_c, 0, 66, 110
1, 339130, Note_on_c, 0, 68, 117
1, 345142, Note_off_c, 0, 68, 117
1, 345314, Note_on_c, 0, 67, 119
1, 346090, Note_off_c, 0, 67, 119
1, 346205, Note_on_c, 0, 68, 117
1, 348333, Note_off_c, 0, 68, 117
1, 348390, Note_on_c, 0, 65, 118
1, 349770, Note_off_c, 0, 65, 118
1, 349798, Note_on_c, 0, 63, 116
1, 350804, Note_off_c, 0, 63, 116
1, 350890, Note_on_c, 0, 60, 101
1, 352098, Note_off_c, 0, 60, 101
1, 352356, Note_on_c, 0, 60, 114
1, 353219, Note_off_c, 0, 60, 114
1, 353420, Note_on_c, 0, 60, 113
1, 355779, Note_off_c, 0, 60, 113
1, 355922, Note_on_c, 0, 63, 101
1, 356123, Note_off_c, 0, 63, 101
1, 356245, Note_on_c, 0, 65, 110
1, 359035, Note_off_c, 0, 65, 110
1, 359257, Note_on_c, 0, 64, 102
1, 360630, Note_off_c, 0, 64, 102
1, 368404, Note_on_c, 0, 67, 86
1, 369008, Note_off_c, 0, 67, 86
1, 369612, Note_on_c, 0, 72, 97
1, 370302, Note_off_c, 0, 72, 97
1, 370848, Note_on_c, 0, 74, 118
1, 372228, Note_off_c, 0, 74, 118
1, 372228, Note_on_c, 0, 72, 115
1, 372630, Note_off_c, 0, 72, 115
1, 373406, Note_on_c, 0, 67, 116
1, 374528, Note_off_c, 0, 67, 116
1, 376024, Note_on_c, 0, 67, 119
1, 377203, Note_off_c, 0, 67, 119
1, 377289, Note_on_c, 0, 69, 93
1, 377979, Note_off_c, 0, 69, 93
1, 388711, Note_on_c, 0, 77, 117
1, 389034, Note_off_c, 0, 77, 117
1, 389094, Note_on_c, 0, 81, 115
1, 389741, Note_off_c, 0, 81, 115
1, 391096, Note_on_c, 0, 77, 116
1, 392451, Note_off_c, 0, 77, 116
1, 392511, Note_on_c, 0, 75, 117
1, 393138, Note_off_c, 0, 75, 117
1, 413912, Note_on_c, 0, 84, 117
1, 414316, Note_off_c, 0, 84, 117
1, 414417, Note_on_c, 0, 87, 115
1, 415226, Note_off_c, 0, 87, 115
1, 415244, Note_on_c, 0, 89, 113
1, 415592, Note_off_c, 0, 89, 113
1, 415707, Note_on_c, 0, 88, 113
1, 416217, Note_off_c, 0, 88, 113
1, 416255, Note_on_c, 0, 89, 115
1, 418844, Note_off_c, 0, 89, 115
1, 418924, Note_on_c, 0, 90, 120
1, 421108, Note_off_c, 0, 90, 120
1, 421148, Note_on_c, 0, 89, 112
1, 421997, Note_off_c, 0, 89, 112
1, 423574, Note_on_c, 0, 87, 120
1, 427336, Note_off_c, 0, 87, 120
1, 427457, Note_on_c, 0, 86, 120
1, 430167, Note_off_c, 0, 86, 120
1, 431137, Note_on_c, 0, 82, 106
1, 432249, Note_off_c, 0, 82, 106
1, 432766, Note_on_c, 0, 81, 123
1, 433316, Note_off_c, 0, 81, 123
1, 433377, Note_on_c, 0, 80, 122
1, 433614, Note_off_c, 0, 80, 122
1, 433642, Note_on_c, 0, 81, 116
1, 433987, Note_off_c, 0, 81, 116
1, 434044, Note_on_c, 0, 84, 87
1, 434479, Note_off_c, 0, 84, 87
1, 434977, Note_on_c, 0, 79, 117
1, 435199, Note_on_c, 0, 77, 119
1, 435199, Note_off_c, 0, 79, 117
1, 436331, Note_off_c, 0, 77, 119
1, 436573, Note_on_c, 0, 72, 123
1, 437786, Note_off_c, 0, 72, 123
1, 437826, Note_on_c, 0, 68, 116
1, 438857, Note_off_c, 0, 68, 116
1, 438968, Note_on_c, 0, 69, 120
1, 439701, Note_off_c, 0, 69, 120
1, 439837, Note_on_c, 0, 70, 121
1, 441359, Note_off_c, 0, 70, 121
1, 441546, Note_on_c, 0, 69, 114
1, 442638, Note_off_c, 0, 69, 114
1, 442759, Note_on_c, 0, 65, 121
1, 443709, Note_off_c, 0, 65, 121
1, 443769, Note_on_c, 0, 60, 114
1, 445953, Note_off_c, 0, 60, 114
1, 446317, Note_on_c, 0, 58, 117
1, 447470, Note_off_c, 0, 58, 117
1, 447805, Note_on_c, 0, 56, 111
1, 450414, Note_off_c, 0, 56, 111
1, 450584, Note_on_c, 0, 53, 108
1, 451372, Note_off_c, 0, 53, 108
1, 451412, Note_on_c, 0, 57, 112
1, 455053, Note_off_c, 0, 57, 112
1, 455174, Note_on_c, 0, 53, 107
1, 459887, Note_off_c, 0, 53, 107
1, 470021, Note_on_c, 0, 65, 106
1, 470324, Note_off_c, 0, 65, 106
1, 471315, Note_on_c, 0, 68, 121
1, 471881, Note_off_c, 0, 68, 121
1, 471961, Note_on_c, 0, 70, 119
1, 476512, Note_off_c, 0, 70, 119
1, 476613, Note_on_c, 0, 72, 94
1, 477159, Note_off_c, 0, 72, 94
1, 477684, Note_on_c, 0, 72, 97
1, 478230, Note_off_c, 0, 72, 97
1, 478958, Note_on_c, 0, 68, 120
1, 480252, Note_off_c, 0, 68, 120
1, 480312, Note_on_c, 0, 65, 94
1, 480655, Note_off_c, 0, 65, 94
1, 481383, Note_on_c, 0, 65, 110
1, 482556, Note_off_c, 0, 65, 110
1, 482697, Note_on_c, 0, 65, 102
1, 485083, Note_off_c, 0, 65, 102
1, 494317, Note_on_c, 0, 65, 115
1, 501154, Note_off_c, 0, 65, 115
1, 511571, Note_on_c, 0, 65, 104
1, 512127, Note_off_c, 0, 65, 104
1, 512235, Note_on_c, 0, 67, 109
1, 512522, Note_off_c, 0, 67, 109
1, 512536, Note_on_c, 0, 69, 120
1, 512996, Note_off_c, 0, 69, 120
1, 513039, Note_on_c, 0, 68, 123
1, 513470, Note_off_c, 0, 68, 123
1, 513498, Note_on_c, 0, 72, 123
1, 513929, Note_off_c, 0, 72, 123
1, 514015, Note_on_c, 0, 75, 123
1, 514504, Note_off_c, 0, 75, 123
1, 514561, Note_on_c, 0, 78, 122
1, 514992, Note_off_c, 0, 78, 122
1, 515063, Note_on_c, 0, 80, 123
1, 515451, Note_off_c, 0, 80, 123
1, 515451, Note_on_c, 0, 84, 118
1, 515709, Note_off_c, 0, 84, 118
1, 515881, Note_on_c, 0, 85, 125
1, 516370, Note_off_c, 0, 85, 125
1, 516413, Note_on_c, 0, 84, 123
1, 516873, Note_off_c, 0, 84, 123
1, 516901, Note_on_c, 0, 84, 123
1, 517462, Note_off_c, 0, 84, 123
1, 523405, Note_on_c, 0, 65, 112
1, 523890, Note_off_c, 0, 65, 112
1, 524011, Note_on_c, 0, 65, 119
1, 524294, Note_off_c, 0, 65, 119
1, 524455, Note_on_c, 0, 65, 116
1, 524798, Note_off_c, 0, 65, 116
1, 524980, Note_on_c, 0, 65, 117
1, 525344, Note_off_c, 0, 65, 117
1, 525546, Note_on_c, 0, 65, 119
1, 525849, Note_off_c, 0, 65, 119
1, 525990, Note_on_c, 0, 65, 112
1, 526313, Note_off_c, 0, 65, 112
1, 526414, Note_on_c, 0, 66, 116
1, 526859, Note_off_c, 0, 66, 116
1, 526939, Note_on_c, 0, 66, 111
1, 527242, Note_off_c, 0, 66, 111
1, 527383, Note_on_c, 0, 66, 119
1, 527686, Note_off_c, 0, 66, 119
1, 527766, Note_on_c, 0, 66, 117
1, 528008, Note_off_c, 0, 66, 117
1, 528129, Note_on_c, 0, 66, 119
1, 528493, Note_off_c, 0, 66, 119
1, 528695, Note_on_c, 0, 66, 117
1, 529160, Note_off_c, 0, 66, 117
1, 529261, Note_on_c, 0, 66, 119
1, 529402, Note_off_c, 0, 66, 119
1, 529543, Note_on_c, 0, 66, 120
1, 529866, Note_off_c, 0, 66, 120
1, 530027, Note_on_c, 0, 66, 120
1, 530310, Note_off_c, 0, 66, 120
1, 530411, Note_on_c, 0, 66, 121
1, 530714, Note_off_c, 0, 66, 121
1, 530855, Note_on_c, 0, 66, 119
1, 531219, Note_off_c, 0, 66, 119
1, 531320, Note_on_c, 0, 66, 120
1, 531603, Note_off_c, 0, 66, 120
1, 531724, Note_on_c, 0, 66, 121
1, 532067, Note_off_c, 0, 66, 121
1, 532208, Note_on_c, 0, 66, 121
1, 532531, Note_off_c, 0, 66, 121
1, 532632, Note_on_c, 0, 66, 120
1, 532975, Note_off_c, 0, 66, 120
1, 533035, Note_on_c, 0, 66, 121
1, 533277, Note_off_c, 0, 66, 121
1, 533499, Note_on_c, 0, 66, 117
1, 533802, Note_off_c, 0, 66, 117
1, 533862, Note_on_c, 0, 66, 115
1, 534124, Note_off_c, 0, 66, 115
1, 534285, Note_on_c, 0, 67, 116
1, 534608, Note_off_c, 0, 67, 116
1, 534729, Note_on_c, 0, 67, 115
1, 534991, Note_off_c, 0, 67, 115
1, 535152, Note_on_c, 0, 67, 106
1, 535475, Note_off_c, 0, 67, 106
1, 535535, Note_on_c, 0, 67, 117
1, 535838, Note_off_c, 0, 67, 117
1, 535918, Note_on_c, 0, 67, 104
1, 536100, Note_off_c, 0, 67, 104
1, 536221, Note_on_c, 0, 68, 122
1, 536605, Note_off_c, 0, 68, 122
1, 536766, Note_on_c, 0, 68, 121
1, 537130, Note_off_c, 0, 68, 121
1, 537332, Note_on_c, 0, 68, 113
1, 537635, Note_off_c, 0, 68, 113
1, 537776, Note_on_c, 0, 68, 114
1, 537998, Note_off_c, 0, 68, 114
1, 538139, Note_on_c, 0, 68, 121
1, 538543, Note_off_c, 0, 68, 121
1, 538765, Note_on_c, 0, 68, 123
1, 539068, Note_off_c, 0, 68, 123
1, 539189, Note_on_c, 0, 69, 120
1, 539330, Note_off_c, 0, 69, 120
1, 539370, Note_on_c, 0, 68, 122
1, 539632, Note_off_c, 0, 68, 122
1, 539733, Note_on_c, 0, 69, 117
1, 539935, Note_off_c, 0, 69, 117
1, 540096, Note_on_c, 0, 68, 120
1, 540298, Note_off_c, 0, 68, 120
1, 540298, Note_on_c, 0, 71, 114
1, 540560, Note_off_c, 0, 71, 114
1, 540580, Note_on_c, 0, 70, 113
1, 540782, Note_off_c, 0, 70, 113
1, 540903, Note_on_c, 0, 71, 118
1, 541165, Note_off_c, 0, 71, 118
1, 541266, Note_on_c, 0, 70, 115
1, 541589, Note_off_c, 0, 70, 115
1, 541750, Note_on_c, 0, 72, 120
1, 541992, Note_off_c, 0, 72, 120
1, 542072, Note_on_c, 0, 71, 119
1, 542375, Note_off_c, 0, 71, 119
1, 542496, Note_on_c, 0, 73, 121
1, 542678, Note_off_c, 0, 73, 121
1, 542738, Note_on_c, 0, 71, 119
1, 542940, Note_off_c, 0, 71, 119
1, 542980, Note_on_c, 0, 73, 122
1, 543182, Note_off_c, 0, 73, 122
1, 543283, Note_on_c, 0, 72, 122
1, 543626, Note_off_c, 0, 72, 122
1, 543686, Note_on_c, 0, 73, 119
1, 543969, Note_off_c, 0, 73, 119
1, 544029, Note_on_c, 0, 72, 121
1, 544312, Note_off_c, 0, 72, 121
1, 544352, Note_on_c, 0, 73, 122
1, 544635, Note_off_c, 0, 73, 122
1, 544655, Note_on_c, 0, 72, 114
1, 544877, Note_off_c, 0, 72, 114
1, 544957, Note_on_c, 0, 73, 111
1, 545159, Note_off_c, 0, 73, 111
1, 545320, Note_on_c, 0, 71, 114
1, 545744, Note_off_c, 0, 71, 114
1, 545764, Note_on_c, 0, 72, 102
1, 545986, Note_off_c, 0, 72, 102
1, 546046, Note_on_c, 0, 70, 114
1, 546288, Note_off_c, 0, 70, 114
1, 546368, Note_on_c, 0, 69, 108
1, 546590, Note_off_c, 0, 69, 108
1, 546711, Note_on_c, 0, 68, 115
1, 546933, Note_off_c, 0, 68, 115
1, 547034, Note_on_c, 0, 69, 106
1, 547276, Note_off_c, 0, 69, 106
1, 547437, Note_on_c, 0, 68, 112
1, 547720, Note_off_c, 0, 68, 112
1, 547760, Note_on_c, 0, 69, 109
1, 548002, Note_off_c, 0, 69, 109
1, 548042, Note_on_c, 0, 68, 105
1, 548203, Note_off_c, 0, 68, 105
1, 548304, Note_on_c, 0, 69, 109
1, 548546, Note_off_c, 0, 69, 109
1, 548606, Note_on_c, 0, 68, 109
1, 548909, Note_off_c, 0, 68, 109
1, 549030, Note_on_c, 0, 70, 105
1, 549313, Note_off_c, 0, 70, 105
1, 549373, Note_on_c, 0, 69, 109
1, 549656, Note_off_c, 0, 69, 109
1, 549797, Note_on_c, 0, 70, 109
1, 550080, Note_off_c, 0, 70, 109
1, 550120, Note_on_c, 0, 69, 111
1, 550463, Note_off_c, 0, 69, 111
1, 550584, Note_on_c, 0, 70, 112
1, 550826, Note_off_c, 0, 70, 112
1, 550886, Note_on_c, 0, 67, 102
1, 551128, Note_off_c, 0, 67, 102
1, 551168, Note_on_c, 0, 69, 107
1, 551430, Note_off_c, 0, 69, 107
1, 551470, Note_on_c, 0, 67, 104
1, 551753, Note_off_c, 0, 67, 104
1, 551854, Note_on_c, 0, 69, 101
1, 552177, Note_off_c, 0, 69, 101
1, 552197, Note_on_c, 0, 67, 102
1, 552520, Note_off_c, 0, 67, 102
1, 552580, Note_on_c, 0, 69, 103
1, 552741, Note_off_c, 0, 69, 103
1, 552821, Note_on_c, 0, 67, 102
1, 553144, Note_off_c, 0, 67, 102
1, 553245, Note_on_c, 0, 65, 111
1, 553528, Note_off_c, 0, 65, 111
1, 553588, Note_on_c, 0, 66, 105
1, 553871, Note_off_c, 0, 66, 105
1, 553911, Note_on_c, 0, 65, 102
1, 554315, Note_off_c, 0, 65, 102
1, 554355, Note_on_c, 0, 64, 97
1, 554516, Note_off_c, 0, 64, 97
1, 554596, Note_on_c, 0, 65, 90
1, 554757, Note_off_c, 0, 65, 90
1, 554817, Note_on_c, 0, 64, 102
1, 555120, Note_off_c, 0, 64, 102
1, 555200, Note_on_c, 0, 65, 101
1, 555462, Note_off_c, 0, 65, 101
1, 555542, Note_on_c, 0, 64, 97
1, 555825, Note_off_c, 0, 64, 97
1, 555885, Note_on_c, 0, 65, 105
1, 556208, Note_off_c, 0, 65, 105
1, 556268, Note_on_c, 0, 64, 102
1, 556571, Note_off_c, 0, 64, 102
1, 556611, Note_on_c, 0, 65, 104
1, 556934, Note_off_c, 0, 65, 104
1, 557035, Note_on_c, 0, 64, 103
1, 557257, Note_off_c, 0, 64, 103
1, 557317, Note_on_c, 0, 65, 103
1, 557681, Note_off_c, 0, 65, 103
1, 557761, Note_on_c, 0, 64, 102
1, 558003, Note_off_c, 0, 64, 102
1, 558023, Note_on_c, 0, 65, 99
1, 558306, Note_off_c, 0, 65, 99
1, 558326, Note_on_c, 0, 64, 96
1, 558609, Note_off_c, 0, 64, 96
1, 568706, Note_on_c, 0, 81, 121
1, 569698, Note_off_c, 0, 81, 121
1, 570906, Note_on_c, 0, 82, 118
1, 572373, Note_off_c, 0, 82, 118
1, 572416, Note_on_c, 0, 81, 121
1, 573437, Note_off_c, 0, 81, 121
1, 573451, Note_on_c, 0, 77, 121
1, 574774, Note_off_c, 0, 77, 121
1, 574817, Note_on_c, 0, 72, 113
1, 575392, Note_off_c, 0, 72, 113
1, 588640, Note_on_c, 0, 77, 119
1, 591258, Note_off_c, 0, 77, 119
1, 591301, Note_on_c, 0, 79, 117
1, 591804, Note_off_c, 0, 79, 117
1, 592825, Note_on_c, 0, 77, 9
1, 594982, Note_off_c, 0, 77, 9
1, 595212, Note_on_c, 0, 77, 105
1, 595844, Note_off_c, 0, 77, 105
1, 596534, Note_on_c, 0, 77, 118
1, 600000, Note_off_c, 0, 77, 118
1, 613924, Note_on_c, 0, 83, 114
1, 614283, Note_off_c, 0, 83, 114
1, 614369, Note_on_c, 0, 90, 119
1, 616095, Note_off_c, 0, 90, 119
1, 616123, Note_on_c, 0, 89, 117
1, 618007, Note_off_c, 0, 89, 117
1, 618064, Note_on_c, 0, 88, 105
1, 618625, Note_off_c, 0, 88, 105
1, 619085, Note_on_c, 0, 85, 100
1, 619732, Note_off_c, 0, 85, 100
1, 619775, Note_on_c, 0, 83, 115
1, 620422, Note_off_c, 0, 83, 115
1, 620493, Note_on_c, 0, 82, 112
1, 621054, Note_off_c, 0, 82, 112
1, 621097, Note_on_c, 0, 80, 114
1, 621586, Note_off_c, 0, 80, 114
1, 621844, Note_on_c, 0, 77, 119
1, 622390, Note_off_c, 0, 77, 119
1, 622490, Note_on_c, 0, 77, 118
1, 623079, Note_off_c, 0, 77, 118
1, 623136, Note_on_c, 0, 76, 119
1, 623682, Note_off_c, 0, 76, 119
1, 623710, Note_on_c, 0, 75, 119
1, 624285, Note_off_c, 0, 75, 119
1, 624313, Note_on_c, 0, 74, 118
1, 624989, Note_off_c, 0, 74, 118
1, 625017, Note_on_c, 0, 72, 121
1, 625448, Note_off_c, 0, 72, 121
1, 625462, Note_on_c, 0, 71, 117
1, 625893, Note_off_c, 0, 71, 117
1, 625936, Note_on_c, 0, 70, 112
1, 626497, Note_off_c, 0, 70, 112
1, 626540, Note_on_c, 0, 69, 117
1, 627172, Note_off_c, 0, 69, 117
1, 627215, Note_on_c, 0, 68, 116
1, 627761, Note_off_c, 0, 68, 116
1, 627847, Note_on_c, 0, 67, 115
1, 628465, Note_off_c, 0, 67, 115
1, 628508, Note_on_c, 0, 68, 102
1, 628982, Note_off_c, 0, 68, 102
1, 629097, Note_on_c, 0, 65, 118
1, 629614, Note_off_c, 0, 65, 118
1, 629671, Note_on_c, 0, 64, 110
1, 630275, Note_off_c, 0, 64, 110
1, 630346, Note_on_c, 0, 65, 116
1, 630878, Note_off_c, 0, 65, 116
1, 630921, Note_on_c, 0, 66, 113
1, 631640, Note_off_c, 0, 66, 113
1, 631654, Note_on_c, 0, 65, 113
1, 632099, Note_off_c, 0, 65, 113
1, 632170, Note_on_c, 0, 66, 109
1, 633004, Note_off_c, 0, 66, 109
1, 633032, Note_on_c, 0, 65, 110
1, 633406, Note_off_c, 0, 65, 110
1, 633420, Note_on_c, 0, 66, 112
1, 634283, Note_off_c, 0, 66, 112
1, 634340, Note_on_c, 0, 65, 113
1, 634714, Note_off_c, 0, 65, 113
1, 634785, Note_on_c, 0, 66, 116
1, 635489, Note_off_c, 0, 66, 116
1, 635517, Note_on_c, 0, 65, 114
1, 635948, Note_off_c, 0, 65, 114
1, 636019, Note_on_c, 0, 66, 113
1, 636565, Note_off_c, 0, 66, 113
1, 636579, Note_on_c, 0, 68, 117
1, 637255, Note_off_c, 0, 68, 117
1, 637312, Note_on_c, 0, 70, 114
1, 637930, Note_off_c, 0, 70, 114
1, 637973, Note_on_c, 0, 67, 104
1, 638490, Note_off_c, 0, 67, 104
1, 638533, Note_on_c, 0, 68, 114
1, 639424, Note_off_c, 0, 68, 114
1, 639467, Note_on_c, 0, 66, 98
1, 639711, Note_off_c, 0, 66, 98
1, 639754, Note_on_c, 0, 68, 107
1, 640602, Note_off_c, 0, 68, 107
1, 640645, Note_on_c, 0, 66, 97
1, 640903, Note_off_c, 0, 66, 97
1, 640931, Note_on_c, 0, 68, 113
1, 641607, Note_off_c, 0, 68, 113
1, 641621, Note_on_c, 0, 70, 116
1, 642110, Note_off_c, 0, 70, 116
1, 642138, Note_on_c, 0, 71, 116
1, 642756, Note_off_c, 0, 71, 116
1, 642813, Note_on_c, 0, 71, 117
1, 643474, Note_off_c, 0, 71, 117
1, 643545, Note_on_c, 0, 71, 118
1, 644192, Note_off_c, 0, 71, 118
1, 644350, Note_on_c, 0, 71, 102
1, 644724, Note_off_c, 0, 71, 102
1, 644781, Note_on_c, 0, 72, 120
1, 645370, Note_off_c, 0, 72, 120
1, 645413, Note_on_c, 0, 71, 111
1, 645945, Note_off_c, 0, 71, 111
1, 646045, Note_on_c, 0, 72, 117
1, 646649, Note_off_c, 0, 72, 117
1, 646692, Note_on_c, 0, 71, 120
1, 647123, Note_off_c, 0, 71, 120
1, 647223, Note_on_c, 0, 72, 121
1, 647784, Note_off_c, 0, 72, 121
1, 647855, Note_on_c, 0, 71, 118
1, 648430, Note_off_c, 0, 71, 118
1, 648487, Note_on_c, 0, 70, 118
1, 648990, Note_off_c, 0, 70, 118
1, 649004, Note_on_c, 0, 69, 111
1, 649636, Note_off_c, 0, 69, 111
1, 649664, Note_on_c, 0, 68, 108
1, 650181, Note_off_c, 0, 68, 108
1, 650238, Note_on_c, 0, 70, 114
1, 650698, Note_off_c, 0, 70, 114
1, 650784, Note_on_c, 0, 71, 116
1, 651445, Note_off_c, 0, 71, 116
1, 651502, Note_on_c, 0, 70, 112
1, 651919, Note_off_c, 0, 70, 112
1, 651962, Note_on_c, 0, 71, 119
1, 652666, Note_off_c, 0, 71, 119
1, 652694, Note_on_c, 0, 70, 106
1, 653154, Note_off_c, 0, 70, 106
1, 653197, Note_on_c, 0, 71, 114
1, 653988, Note_off_c, 0, 71, 114
1, 654059, Note_on_c, 0, 69, 94
1, 654533, Note_off_c, 0, 69, 94
1, 654533, Note_on_c, 0, 72, 113
1, 655223, Note_off_c, 0, 72, 113
1, 655251, Note_on_c, 0, 69, 96
1, 655639, Note_off_c, 0, 69, 96
1, 655739, Note_on_c, 0, 72, 113
1, 656343, Note_off_c, 0, 72, 113
1, 656443, Note_on_c, 0, 69, 101
1, 656903, Note_off_c, 0, 69, 101
1, 657291, Note_on_c, 0, 74, 109
1, 657693, Note_off_c, 0, 74, 109
1, 657750, Note_on_c, 0, 75, 116
1, 658325, Note_off_c, 0, 75, 116
1, 658382, Note_on_c, 0, 76, 119
1, 659173, Note_off_c, 0, 76, 119
1, 659273, Note_on_c, 0, 77, 117
1, 659503, Note_off_c, 0, 77, 117
1, 659574, Note_on_c, 0, 78, 117
1, 661875, Note_off_c, 0, 78, 117
1, 661875, Note_on_c, 0, 77, 117
1, 662105, Note_off_c, 0, 77, 117
1, 662148, Note_on_c, 0, 76, 120
1, 662665, Note_off_c, 0, 76, 120
1, 662693, Note_on_c, 0, 75, 108
1, 662980, Note_off_c, 0, 75, 108
1, 663023, Note_on_c, 0, 74, 118
1, 663425, Note_off_c, 0, 74, 118
1, 663468, Note_on_c, 0, 72, 118
1, 663842, Note_off_c, 0, 72, 118
1, 663870, Note_on_c, 0, 71, 114
1, 664028, Note_off_c, 0, 71, 114
1, 664085, Note_on_c, 0, 70, 111
1, 664516, Note_off_c, 0, 70, 111
1, 664587, Note_on_c, 0, 71, 106
1, 664975, Note_off_c, 0, 71, 106
1, 665032, Note_on_c, 0, 68, 115
1, 665621, Note_off_c, 0, 68, 115
1, 665664, Note_on_c, 0, 67, 113
1, 665937, Note_off_c, 0, 67, 113
1, 665965, Note_on_c, 0, 68, 113
1, 666626, Note_off_c, 0, 68, 113
1, 666626, Note_on_c, 0, 67, 104
1, 666899, Note_off_c, 0, 67, 104
1, 667031, Note_on_c, 0, 68, 106
1, 667779, Note_off_c, 0, 68, 106
1, 668638, Note_on_c, 0, 70, 116
1, 669515, Note_off_c, 0, 70, 116
1, 669644, Note_on_c, 0, 71, 115
1, 670751, Note_off_c, 0, 71, 115
1, 670808, Note_on_c, 0, 71, 114
1, 671987, Note_off_c, 0, 71, 114
1, 672145, Note_on_c, 0, 68, 117
1, 672490, Note_off_c, 0, 68, 117
1, 672533, Note_on_c, 0, 69, 101
1, 673295, Note_on_c, 0, 65, 107
1, 673295, Note_off_c, 0, 69, 101
1, 674445, Note_off_c, 0, 65, 107
1, 674646, Note_on_c, 0, 65, 100
1, 675782, Note_off_c, 0, 65, 100
1, 675897, Note_on_c, 0, 65, 108
1, 676760, Note_off_c, 0, 65, 108
1, 680917, Note_on_c, 0, 77, 116
1, 682240, Note_off_c, 0, 77, 116
1, 682283, Note_on_c, 0, 79, 116
1, 682872, Note_off_c, 0, 79, 116
1, 683001, Note_on_c, 0, 81, 105
1, 683835, Note_off_c, 0, 81, 105
1, 688538, Note_on_c, 0, 75, 114
1, 688811, Note_off_c, 0, 75, 114
1, 688854, Note_on_c, 0, 77, 115
1, 689184, Note_off_c, 0, 77, 115
1, 689212, Note_on_c, 0, 75, 113
1, 689499, Note_off_c, 0, 75, 113
1, 689527, Note_on_c, 0, 77, 113
1, 689843, Note_off_c, 0, 77, 113
1, 694877, Note_on_c, 0, 70, 107
1, 695251, Note_off_c, 0, 70, 107
1, 697077, Note_on_c, 0, 71, 113
1, 697882, Note_off_c, 0, 71, 113
1, 697939, Note_on_c, 0, 70, 115
1, 701995, Note_off_c, 0, 70, 115
1, 702023, Note_on_c, 0, 71, 116
1, 703490, Note_off_c, 0, 71, 116
1, 703518, Note_on_c, 0, 70, 117
1, 707948, Note_off_c, 0, 70, 117
1, 707948, Note_on_c, 0, 71, 116
1, 708638, Note_off_c, 0, 71, 116
1, 708724, Note_on_c, 0, 65, 115
1, 712348, Note_off_c, 0, 65, 115
1, 712664, Note_on_c, 0, 65, 112
1, 716030, Note_off_c, 0, 65, 112
1, 716407, Note_on_c, 0, 65, 108
1, 727370, Note_off_c, 0, 65, 108
1, 735304, Note_on_c, 0, 65, 101
1, 735678, Note_off_c, 0, 65, 101
1, 735793, Note_on_c, 0, 66, 108
1, 736339, Note_off_c, 0, 66, 108
1, 736339, Note_on_c, 0, 68, 116
1, 736971, Note_off_c, 0, 68, 116
1, 737057, Note_on_c, 0, 70, 125
1, 737689, Note_off_c, 0, 70, 125
1, 737689, Note_on_c, 0, 71, 122
1, 738235, Note_off_c, 0, 71, 122
1, 738321, Note_on_c, 0, 73, 121
1, 738867, Note_off_c, 0, 73, 121
1, 738924, Note_on_c, 0, 71, 121
1, 740678, Note_off_c, 0, 71, 121
1, 740793, Note_on_c, 0, 68, 117
1, 742547, Note_off_c, 0, 68, 117
1, 748962, Note_on_c, 0, 72, 105
1, 749220, Note_off_c, 0, 72, 105
1, 749248, Note_on_c, 0, 75, 120
1, 750398, Note_off_c, 0, 75, 120
1, 751462, Note_on_c, 0, 79, 122
1, 752986, Note_off_c, 0, 79, 122
1, 753072, Note_on_c, 0, 80, 121
1, 754050, Note_off_c, 0, 80, 121
1, 754107, Note_on_c, 0, 79, 121
1, 755344, Note_off_c, 0, 79, 121
1, 755401, Note_on_c, 0, 75, 118
1, 756206, Note_off_c, 0, 75, 118
1, 766821, Note_on_c, 0, 79, 121
1, 792886, Note_off_c, 0, 79, 121
1, 793231, Note_on_c, 0, 75, 114
1, 808478, Note_off_c, 0, 75, 114
1, 814134, Note_on_c, 0, 79, 124
1, 815630, Note_off_c, 0, 79, 124
1, 816155, Note_on_c, 0, 84, 89
1, 816802, Note_off_c, 0, 84, 89
1, 832756, Note_on_c, 0, 79, 97
1, 833273, Note_off_c, 0, 79, 97
1, 833848, Note_on_c, 0, 78, 122
1, 834365, Note_off_c, 0, 78, 122
1, 834537, Note_on_c, 0, 77, 124
1, 837874, Note_off_c, 0, 77, 124
1, 838104, Note_on_c, 0, 77, 127
1, 841441, Note_off_c, 0, 77, 127
1, 841613, Note_on_c, 0, 77, 125
1, 845065, Note_off_c, 0, 77, 125
1, 845180, Note_on_c, 0, 76, 122
1, 848862, Note_off_c, 0, 76, 122
1, 848919, Note_on_c, 0, 77, 120
1, 849970, Note_off_c, 0, 77, 120
1, 850011, Note_on_c, 0, 76, 117
1, 850989, Note_off_c, 0, 76, 117
1, 851219, Note_on_c, 0, 77, 120
1, 851794, Note_off_c, 0, 77, 120
1, 859820, Note_on_c, 0, 75, 106
1, 860337, Note_off_c, 0, 75, 106
1, 861113, Note_on_c, 0, 71, 104
1, 861285, Note_off_c, 0, 71, 104
1, 861342, Note_on_c, 0, 72, 123
1, 862492, Note_off_c, 0, 72, 123
1, 862578, Note_on_c, 0, 68, 100
1, 862836, Note_off_c, 0, 68, 100
1, 862922, Note_on_c, 0, 69, 115
1, 863612, Note_off_c, 0, 69, 115
1, 868790, Note_on_c, 0, 70, 105
1, 869307, Note_off_c, 0, 70, 105
1, 869824, Note_on_c, 0, 71, 105
1, 870313, Note_off_c, 0, 71, 105
1, 870888, Note_on_c, 0, 72, 126
1, 872240, Note_off_c, 0, 72, 126
1, 872268, Note_on_c, 0, 69, 123
1, 873159, Note_off_c, 0, 69, 123
1, 873475, Note_on_c, 0, 65, 119
1, 874539, Note_off_c, 0, 65, 119
1, 874682, Note_on_c, 0, 65, 113
1, 875775, Note_off_c, 0, 65, 113
1, 875947, Note_on_c, 0, 65, 116
1, 877270, Note_off_c, 0, 65, 116
1, 877413, Note_on_c, 0, 63, 106
1, 879225, Note_off_c, 0, 63, 106
1, 893221, Note_on_c, 0, 83, 86
1, 894055, Note_off_c, 0, 83, 86
1, 894184, Note_on_c, 0, 89, 108
1, 894845, Note_off_c, 0, 89, 108
1, 899822, Note_on_c, 0, 79, 118
1, 900570, Note_off_c, 0, 79, 118
1, 900685, Note_on_c, 0, 84, 78
1, 901116, Note_off_c, 0, 84, 78
1, 907963, Note_on_c, 0, 77, 105
1, 908567, Note_off_c, 0, 77, 105
1, 909228, Note_on_c, 0, 74, 110
1, 909717, Note_off_c, 0, 74, 110
1, 910407, Note_on_c, 0, 72, 118
1, 911759, Note_off_c, 0, 72, 118
1, 911816, Note_on_c, 0, 68, 113
1, 912995, Note_off_c, 0, 68, 113
1, 913081, Note_on_c, 0, 65, 115
1, 914174, Note_off_c, 0, 65, 115
1, 914461, Note_on_c, 0, 65, 113
1, 915352, Note_off_c, 0, 65, 113
1, 915553, Note_on_c, 0, 65, 111
1, 919034, Note_off_c, 0, 65, 111
1, 932660, Note_on_c, 0, 68, 115
1, 933206, Note_off_c, 0, 68, 115
1, 933303, Note_on_c, 0, 67, 104
1, 933734, Note_off_c, 0, 67, 104
1, 933771, Note_on_c, 0, 68, 118
1, 934741, Note_off_c, 0, 68, 118
1, 934796, Note_on_c, 0, 67, 113
1, 935241, Note_off_c, 0, 67, 113
1, 935265, Note_on_c, 0, 68, 116
1, 935892, Note_off_c, 0, 68, 116
1, 935931, Note_on_c, 0, 67, 106
1, 936391, Note_off_c, 0, 67, 106
1, 936448, Note_on_c, 0, 68, 116
1, 937037, Note_off_c, 0, 68, 116
1, 937051, Note_on_c, 0, 70, 114
1, 937597, Note_off_c, 0, 70, 114
1, 937640, Note_on_c, 0, 71, 115
1, 938186, Note_off_c, 0, 71, 115
1, 938214, Note_on_c, 0, 72, 118
1, 938861, Note_off_c, 0, 72, 118
1, 938889, Note_on_c, 0, 71, 118
1, 939363, Note_off_c, 0, 71, 118
1, 939406, Note_on_c, 0, 72, 120
1, 940067, Note_off_c, 0, 72, 120
1, 940081, Note_on_c, 0, 71, 116
1, 940584, Note_off_c, 0, 71, 116
1, 940641, Note_on_c, 0, 72, 120
1, 941245, Note_off_c, 0, 72, 120
1, 941245, Note_on_c, 0, 73, 118
1, 941964, Note_off_c, 0, 73, 118
1, 941992, Note_on_c, 0, 71, 120
1, 942596, Note_off_c, 0, 71, 120
1, 942639, Note_on_c, 0, 72, 119
1, 943185, Note_off_c, 0, 72, 119
1, 943199, Note_on_c, 0, 71, 119
1, 943731, Note_off_c, 0, 71, 119
1, 943774, Note_on_c, 0, 70, 116
1, 944392, Note_off_c, 0, 70, 116
1, 944406, Note_on_c, 0, 69, 118
1, 944967, Note_off_c, 0, 69, 118
1, 944981, Note_on_c, 0, 68, 114
1, 945585, Note_off_c, 0, 68, 114
1, 945613, Note_on_c, 0, 67, 110
1, 945871, Note_off_c, 0, 67, 110
1, 945914, Note_on_c, 0, 68, 96
1, 946561, Note_off_c, 0, 68, 96
1, 946647, Note_on_c, 0, 66, 109
1, 947078, Note_off_c, 0, 66, 109
1, 947121, Note_on_c, 0, 65, 108
1, 947638, Note_off_c, 0, 65, 108
1, 947666, Note_on_c, 0, 66, 113
1, 948241, Note_off_c, 0, 66, 113
1, 948269, Note_on_c, 0, 65, 114
1, 948786, Note_off_c, 0, 65, 114
1, 948857, Note_on_c, 0, 67, 115
1, 949576, Note_off_c, 0, 67, 115
1, 949705, Note_on_c, 0, 64, 96
1, 950021, Note_off_c, 0, 64, 96
1, 950064, Note_on_c, 0, 68, 116
1, 950725, Note_off_c, 0, 68, 116
1, 950782, Note_on_c, 0, 65, 99
1, 951328, Note_off_c, 0, 65, 99
1, 951443, Note_on_c, 0, 69, 115
1, 952147, Note_on_c, 0, 70, 112
1, 952147, Note_off_c, 0, 69, 115
1, 952607, Note_off_c, 0, 70, 112
1, 952635, Note_on_c, 0, 71, 113
1, 953196, Note_off_c, 0, 71, 113
1, 953282, Note_on_c, 0, 72, 116
1, 953828, Note_off_c, 0, 72, 116
1, 954015, Note_on_c, 0, 73, 107
1, 954288, Note_off_c, 0, 73, 107
1, 954345, Note_on_c, 0, 74, 118
1, 954848, Note_off_c, 0, 74, 118
1, 954891, Note_on_c, 0, 75, 116
1, 955567, Note_off_c, 0, 75, 116
1, 955624, Note_on_c, 0, 76, 121
1, 956026, Note_off_c, 0, 76, 121
1, 956097, Note_on_c, 0, 77, 119
1, 956701, Note_off_c, 0, 77, 119
1, 956787, Note_on_c, 0, 78, 121
1, 957391, Note_off_c, 0, 78, 121
1, 957419, Note_on_c, 0, 77, 120
1, 957994, Note_off_c, 0, 77, 120
1, 958051, Note_on_c, 0, 76, 117
1, 958626, Note_off_c, 0, 76, 117
1, 958669, Note_on_c, 0, 75, 117
1, 959287, Note_off_c, 0, 75, 117
1, 959301, Note_on_c, 0, 73, 117
1, 959890, Note_off_c, 0, 73, 117
1, 959918, Note_on_c, 0, 72, 117
1, 960407, Note_off_c, 0, 72, 117
1, 960493, Note_on_c, 0, 71, 115
1, 961140, Note_off_c, 0, 71, 115
1, 961168, Note_on_c, 0, 70, 114
1, 961657, Note_off_c, 0, 70, 114
1, 961700, Note_on_c, 0, 69, 116
1, 962318, Note_off_c, 0, 69, 116
1, 962346, Note_on_c, 0, 68, 114
1, 962935, Note_off_c, 0, 68, 114
1, 962978, Note_on_c, 0, 67, 113
1, 963510, Note_off_c, 0, 67, 113
1, 963538, Note_on_c, 0, 65, 114
1, 964228, Note_off_c, 0, 65, 114
1, 964256, Note_on_c, 0, 64, 111
1, 964773, Note_off_c, 0, 64, 111
1, 964844, Note_on_c, 0, 63, 99
1, 965361, Note_off_c, 0, 63, 99
1, 965476, Note_on_c, 0, 61, 107
1, 966051, Note_off_c, 0, 61, 107
1, 966094, Note_on_c, 0, 60, 100
1, 966626, Note_off_c, 0, 60, 100
1, 966813, Note_on_c, 0, 57, 100
1, 966985, Note_off_c, 0, 57, 100
1, 967071, Note_on_c, 0, 57, 112
1, 967358, Note_off_c, 0, 57, 112
1, 967386, Note_on_c, 0, 58, 107
1, 967947, Note_off_c, 0, 58, 107
1, 968076, Note_on_c, 0, 55, 109
1, 968263, Note_off_c, 0, 55, 109
1, 968320, Note_on_c, 0, 55, 108
1, 968607, Note_off_c, 0, 55, 108
1, 968664, Note_on_c, 0, 56, 107
1, 969325, Note_off_c, 0, 56, 107
1, 970490, Note_on_c, 0, 64, 108
1, 971166, Note_off_c, 0, 64, 108
1, 971223, Note_on_c, 0, 65, 104
1, 974804, Note_off_c, 0, 65, 104
1, 980068, Note_on_c, 0, 76, 118
1, 981506, Note_off_c, 0, 76, 118
1, 981549, Note_on_c, 0, 77, 115
1, 984828, Note_off_c, 0, 77, 115
1, 987633, Note_on_c, 0, 75, 115
1, 989042, Note_off_c, 0, 75, 115
1, 989056, Note_on_c, 0, 72, 116
1, 991429, Note_off_c, 0, 72, 116
1, 992718, Note_on_c, 0, 67, 111
1, 994053, Note_off_c, 0, 67, 111
1, 994118, Note_on_c, 0, 68, 118
1, 995729, Note_off_c, 0, 68, 118
1, 995743, Note_on_c, 0, 69, 107
1, 998691, Note_off_c, 0, 69, 107
1, 1002646, Note_on_c, 0, 69, 112
1, 1003926, Note_off_c, 0, 69, 112
1, 1003969, Note_on_c, 0, 70, 119
1, 1005436, Note_off_c, 0, 70, 119
1, 1005522, Note_on_c, 0, 71, 111
1, 1007636, Note_off_c, 0, 71, 111
1, 1008067, Note_on_c, 0, 68, 112
1, 1008886, Note_off_c, 0, 68, 112
1, 1009001, Note_on_c, 0, 68, 119
1, 1009734, Note_off_c, 0, 68, 119
1, 1009820, Note_on_c, 0, 69, 115
1, 1012639, Note_off_c, 0, 69, 115
1, 1012919, Note_on_c, 0, 65, 112
1, 1018785, Note_off_c, 0, 65, 112
1, 1022952, Note_on_c, 0, 76, 119
1, 1024084, Note_off_c, 0, 76, 119
1, 1024185, Note_on_c, 0, 77, 124
1, 1025317, Note_off_c, 0, 77, 124
1, 1025458, Note_on_c, 0, 75, 119
1, 1025822, Note_off_c, 0, 75, 119
1, 1025862, Note_on_c, 0, 74, 119
1, 1026084, Note_off_c, 0, 74, 119
1, 1026205, Note_on_c, 0, 75, 118
1, 1027823, Note_off_c, 0, 75, 118
1, 1027883, Note_on_c, 0, 71, 121
1, 1029137, Note_off_c, 0, 71, 121
1, 1029217, Note_on_c, 0, 72, 121
1, 1033282, Note_off_c, 0, 72, 121
1, 1033383, Note_on_c, 0, 70, 119
1, 1034434, Note_off_c, 0, 70, 119
1, 1034636, Note_on_c, 0, 71, 112
1, 1039187, Note_off_c, 0, 71, 112
1, 1043273, Note_on_c, 0, 72, 108
1, 1043616, Note_off_c, 0, 72, 108
1, 1044445, Note_on_c, 0, 73, 97
1, 1045031, Note_off_c, 0, 73, 97
1, 1045637, Note_on_c, 0, 74, 123
1, 1046992, Note_off_c, 0, 74, 123
1, 1047052, Note_on_c, 0, 75, 124
1, 1048083, Note_off_c, 0, 75, 124
1, 1048143, Note_on_c, 0, 76, 121
1, 1049397, Note_off_c, 0, 76, 121
1, 1049599, Note_on_c, 0, 77, 124
1, 1050124, Note_off_c, 0, 77, 124
1, 1050690, Note_on_c, 0, 81, 124
1, 1051984, Note_off_c, 0, 81, 124
1, 1052024, Note_on_c, 0, 79, 119
1, 1052388, Note_off_c, 0, 79, 119
1, 1062259, Note_on_c, 0, 77, 88
1, 1062784, Note_off_c, 0, 77, 88
1, 1063289, Note_on_c, 0, 77, 121
1, 1065858, Note_off_c, 0, 77, 121
1, 1065878, Note_on_c, 0, 75, 113
1, 1066525, Note_off_c, 0, 75, 113
1, 1067253, Note_on_c, 0, 72, 115
1, 1067718, Note_off_c, 0, 72, 115
1, 1068345, Note_on_c, 0, 67, 116
1, 1068709, Note_off_c, 0, 67, 116
1, 1068830, Note_on_c, 0, 68, 117
1, 1070852, Note_off_c, 0, 68, 117
1, 1070932, Note_on_c, 0, 65, 105
1, 1071437, Note_off_c, 0, 65, 105
1, 1072225, Note_on_c, 0, 68, 120
1, 1073135, Note_off_c, 0, 68, 120
1, 1073296, Note_on_c, 0, 69, 110
1, 1075015, Note_off_c, 0, 69, 110
1, 1075075, Note_on_c, 0, 68, 111
1, 1075762, Note_off_c, 0, 68, 111
1, 1075903, Note_on_c, 0, 69, 120
1, 1078107, Note_off_c, 0, 69, 120
1, 1078187, Note_on_c, 0, 68, 108
1, 1079603, Note_off_c, 0, 68, 108
1, 1079744, Note_on_c, 0, 69, 117
1, 1080249, Note_off_c, 0, 69, 117
1, 1080309, Note_on_c, 0, 68, 121
1, 1081603, Note_off_c, 0, 68, 121
1, 1081683, Note_on_c, 0, 69, 121
1, 1082249, Note_off_c, 0, 69, 121
1, 1082309, Note_on_c, 0, 68, 102
1, 1083178, Note_off_c, 0, 68, 102
1, 1083360, Note_on_c, 0, 69, 121
1, 1084371, Note_off_c, 0, 69, 121
1, 1084411, Note_on_c, 0, 68, 118
1, 1085604, Note_off_c, 0, 68, 118
1, 1085725, Note_on_c, 0, 68, 98
1, 1086918, Note_off_c, 0, 68, 98
1, 1087059, Note_on_c, 0, 69, 120
1, 1087504, Note_off_c, 0, 69, 120
1, 1087564, Note_on_c, 0, 68, 111
1, 1088110, Note_off_c, 0, 68, 111
1, 1088231, Note_on_c, 0, 69, 111
1, 1089545, Note_off_c, 0, 69, 111
1, 1089646, Note_on_c, 0, 68, 102
1, 1090799, Note_off_c, 0, 68, 102
1, 1090900, Note_on_c, 0, 69, 111
1, 1092841, Note_off_c, 0, 69, 111
1, 1092921, Note_on_c, 0, 68, 101
1, 1094458, Note_off_c, 0, 68, 101
1, 1094538, Note_on_c, 0, 69, 112
1, 1096823, Note_off_c, 0, 69, 112
1, 1097025, Note_on_c, 0, 68, 100
1, 1098036, Note_off_c, 0, 68, 100
1, 1098197, Note_on_c, 0, 69, 116
1, 1098722, Note_off_c, 0, 69, 116
1, 1098742, Note_on_c, 0, 68, 114
1, 1099591, Note_off_c, 0, 68, 114
1, 1099671, Note_on_c, 0, 69, 113
1, 1100500, Note_off_c, 0, 69, 113
1, 1100621, Note_on_c, 0, 68, 97
1, 1101834, Note_off_c, 0, 68, 97
1, 1102076, Note_on_c, 0, 69, 113
1, 1103067, Note_off_c, 0, 69, 113
1, 1103107, Note_on_c, 0, 69, 100
1, 1103754, Note_off_c, 0, 69, 100
1, 1103754, End_track
0, 0, End_of_file
