0, 0, Header, 1, 1, 192
1, 0, Start_track
1, 0, Title_t, "Melody"
1, 0, Tempo, 206185
1, 0, Key_signature, -1, "major"
1, 0, Time_signature, 4, 2, 24, 8
1, 4595, Note_on_c, 0, 67, 95
1, 4686, Note_off_c, 0, 67, 95
1, 4693, Note_on_c, 0, 68, 93
1, 4845, Note_off_c, 0, 68, 93
1, 5012, Note_on_c, 0, 67, 102
1, 5194, Note_off_c, 0, 67, 102
1, 5224, Note_on_c, 0, 66, 86
1, 5398, Note_off_c, 0, 66, 86
1, 5401, Note_on_c, 0, 64, 85
1, 5446, Note_off_c, 0, 64, 85
1, 5461, Note_on_c, 0, 65, 88
1, 5582, Note_off_c, 0, 65, 88
1, 5631, Note_on_c, 0, 67, 98
1, 5885, Note_off_c, 0, 67, 98
1, 6220, Note_on_c, 0, 65, 72
1, 6344, Note_off_c, 0, 65, 72
1, 6450, Note_on_c, 0, 67, 103
1, 6598, Note_off_c, 0, 67, 103
1, 6609, Note_on_c, 0, 66, 93
1, 6745, Note_off_c, 0, 66, 93
1, 6760, Note_on_c, 0, 67, 93
1, 6938, Note_off_c, 0, 67, 93
1, 6945, Note_on_c, 0, 64, 80
1, 7024, Note_off_c, 0, 64, 80
1, 7039, Note_on_c, 0, 65, 102
1, 7107, Note_off_c, 0, 65, 102
1, 7137, Note_on_c, 0, 67, 92
1, 7224, Note_off_c, 0, 67, 92
1, 7334, Note_on_c, 0, 68, 93
1, 7425, Note_off_c, 0, 68, 93
1, 7504, Note_on_c, 0, 64, 96
1, 7595, Note_off_c, 0, 64, 96
1, 7712, Note_on_c, 0, 67, 105
1, 7856, Note_off_c, 0, 67, 105
1, 7871, Note_on_c, 0, 66, 93
1, 8000, Note_off_c, 0, 66, 93
1, 8011, Note_on_c, 0, 67, 91
1, 8094, Note_off_c, 0, 67, 91
1, 8094, Note_on_c, 0, 64, 83
1, 8192, Note_off_c, 0, 64, 83
1, 8198, Note_on_c, 0, 65, 93
1, 8265, Note_off_c, 0, 65, 93
1, 8331, Note_on_c, 0, 67, 97
1, 8673, Note_off_c, 0, 67, 97
1, 9167, Note_on_c, 0, 63, 92
1, 9273, Note_off_c, 0, 63, 92
1, 9276, Note_on_c, 0, 62, 90
1, 9352, Note_off_c, 0, 62, 90
1, 9359, Note_on_c, 0, 63, 96
1, 9440, Note_off_c, 0, 63, 96
1, 9441, Note_on_c, 0, 65, 92
1, 9539, Note_off_c, 0, 65, 92
1, 9539, Note_on_c, 0, 67, 97
1, 9645, Note_off_c, 0, 67, 97
1, 9652, Note_on_c, 0, 69, 102
1, 9733, Note_off_c, 0, 69, 102
1, 9738, Note_on_c, 0, 70, 107
1, 9844, Note_off_c, 0, 70, 107
1, 9847, Note_on_c, 0, 69, 109
1, 9926, Note_off_c, 0, 69, 109
1, 9929, Note_on_c, 0, 68, 105
1, 10043, Note_off_c, 0, 68, 105
1, 10046, Note_on_c, 0, 70, 108
1, 10114, Note_off_c, 0, 70, 108
1, 10125, Note_on_c, 0, 71, 103
1, 10231, Note_off_c, 0, 71, 103
1, 10238, Note_on_c, 0, 72, 106
1, 10298, Note_off_c, 0, 72, 106
1, 10298, Note_on_c, 0, 74, 108
1, 10450, Note_off_c, 0, 74, 108
1, 10507, Note_on_c, 0, 74, 112
1, 10841, Note_off_c, 0, 74, 112
1, 10841, Note_on_c, 0, 75, 111
1, 11532, Note_off_c, 0, 75, 111
1, 11547, Note_on_c, 0, 74, 100
1, 11596, Note_off_c, 0, 74, 100
1, 11622, Note_on_c, 0, 69, 100
1, 11675, Note_off_c, 0, 69, 100
1, 11694, Note_on_c, 0, 68, 95
1, 11758, Note_off_c, 0, 68, 95
1, 12267, Note_on_c, 0, 76, 113
1, 12840, Note_off_c, 0, 76, 113
1, 12851, Note_on_c, 0, 72, 80
1, 12889, Note_on_c, 0, 70, 90
1, 12889, Note_off_c, 0, 72, 80
1, 13018, Note_off_c, 0, 70, 90
1, 13747, Note_on_c, 0, 67, 83
1, 13842, Note_off_c, 0, 67, 83
1, 13868, Note_on_c, 0, 69, 100
1, 13951, Note_off_c, 0, 69, 100
1, 13963, Note_on_c, 0, 70, 100
1, 14049, Note_off_c, 0, 70, 100
1, 14051, Note_on_c, 0, 71, 101
1, 14145, Note_off_c, 0, 71, 101
1, 14147, Note_on_c, 0, 72, 105
1, 14217, Note_off_c, 0, 72, 105
1, 14227, Note_on_c, 0, 73, 97
1, 14308, Note_off_c, 0, 73, 97
1, 14321, Note_on_c, 0, 74, 97
1, 14423, Note_off_c, 0, 74, 97
1, 14431, Note_on_c, 0, 76, 106
1, 14549, Note_off_c, 0, 76, 106
1, 14554, Note_on_c, 0, 73, 105
1, 14621, Note_off_c, 0, 73, 105
1, 14626, Note_on_c, 0, 74, 102
1, 14728, Note_off_c, 0, 74, 102
1, 14763, Note_on_c, 0, 72, 101
1, 14844, Note_off_c, 0, 72, 101
1, 14852, Note_on_c, 0, 71, 94
1, 14919, Note_off_c, 0, 71, 94
1, 14935, Note_on_c, 0, 69, 102
1, 15018, Note_off_c, 0, 69, 102
1, 15031, Note_on_c, 0, 67, 92
1, 15152, Note_off_c, 0, 67, 92
1, 15173, Note_on_c, 0, 69, 92
1, 15221, Note_off_c, 0, 69, 92
1, 15239, Note_on_c, 0, 70, 95
1, 15320, Note_off_c, 0, 70, 95
1, 15347, Note_on_c, 0, 71, 72
1, 15423, Note_off_c, 0, 71, 72
1, 15430, Note_on_c, 0, 69, 97
1, 15575, Note_off_c, 0, 69, 97
1, 15593, Note_on_c, 0, 67, 99
1, 15698, Note_off_c, 0, 67, 99
1, 15711, Note_on_c, 0, 64, 91
1, 15781, Note_off_c, 0, 64, 91
1, 15794, Note_on_c, 0, 65, 100
1, 15915, Note_off_c, 0, 65, 100
1, 15936, Note_on_c, 0, 63, 82
1, 15984, Note_off_c, 0, 63, 82
1, 15992, Note_on_c, 0, 64, 88
1, 16092, Note_off_c, 0, 64, 88
1, 16097, Note_on_c, 0, 67, 83
1, 16164, Note_off_c, 0, 67, 83
1, 16191, Note_on_c, 0, 70, 102
1, 16274, Note_off_c, 0, 70, 102
1, 16295, Note_on_c, 0, 72, 88
1, 16365, Note_off_c, 0, 72, 88
1, 16386, Note_on_c, 0, 73, 100
1, 16467, Note_off_c, 0, 73, 100
1, 16475, Note_on_c, 0, 71, 101
1, 16554, Note_off_c, 0, 71, 101
1, 16562, Note_on_c, 0, 72, 97
1, 16672, Note_off_c, 0, 72, 97
1, 16672, Note_on_c, 0, 71, 104
1, 16755, Note_off_c, 0, 71, 104
1, 16763, Note_on_c, 0, 70, 98
1, 16849, Note_off_c, 0, 70, 98
1, 16854, Note_on_c, 0, 69, 103
1, 16940, Note_off_c, 0, 69, 103
1, 16949, Note_on_c, 0, 68, 95
1, 17002, Note_off_c, 0, 68, 95
1, 17044, Note_on_c, 0, 64, 86
1, 17171, Note_off_c, 0, 64, 86
1, 17922, Note_on_c, 0, 62, 93
1, 18011, Note_off_c, 0, 62, 93
1, 18016, Note_on_c, 0, 63, 88
1, 18097, Note_off_c, 0, 63, 88
1, 18113, Note_on_c, 0, 64, 95
1, 18207, Note_off_c, 0, 64, 95
1, 18212, Note_on_c, 0, 65, 91
1, 18328, Note_off_c, 0, 65, 91
1, 18419, Note_on_c, 0, 67, 100
1, 18556, Note_off_c, 0, 67, 100
1, 18556, Note_on_c, 0, 66, 93
1, 18628, Note_off_c, 0, 66, 93
1, 18649, Note_on_c, 0, 64, 89
1, 18719, Note_off_c, 0, 64, 89
1, 18730, Note_on_c, 0, 65, 89
1, 18824, Note_off_c, 0, 65, 89
1, 18824, Note_on_c, 0, 67, 95
1, 18932, Note_off_c, 0, 67, 95
1, 18950, Note_on_c, 0, 71, 91
1, 19004, Note_off_c, 0, 71, 91
1, 19006, Note_on_c, 0, 69, 104
1, 19108, Note_off_c, 0, 69, 104
1, 19108, Note_on_c, 0, 67, 99
1, 19205, Note_off_c, 0, 67, 99
1, 19213, Note_on_c, 0, 69, 94
1, 19275, Note_off_c, 0, 69, 94
1, 19291, Note_on_c, 0, 70, 109
1, 19420, Note_off_c, 0, 70, 109
1, 19423, Note_on_c, 0, 68, 99
1, 19485, Note_off_c, 0, 68, 99
1, 19492, Note_on_c, 0, 69, 105
1, 19589, Note_off_c, 0, 69, 105
1, 19599, Note_on_c, 0, 67, 100
1, 19671, Note_off_c, 0, 67, 100
1, 19684, Note_on_c, 0, 68, 104
1, 19773, Note_off_c, 0, 68, 104
1, 19781, Note_on_c, 0, 70, 107
1, 19862, Note_off_c, 0, 70, 107
1, 19867, Note_on_c, 0, 71, 105
1, 19948, Note_off_c, 0, 71, 105
1, 19956, Note_on_c, 0, 72, 108
1, 20004, Note_off_c, 0, 72, 108
1, 20017, Note_on_c, 0, 73, 105
1, 20081, Note_off_c, 0, 73, 105
1, 20081, Note_on_c, 0, 74, 110
1, 20172, Note_off_c, 0, 74, 110
1, 20185, Note_on_c, 0, 75, 111
1, 20603, Note_off_c, 0, 75, 111
1, 21581, Note_on_c, 0, 68, 89
1, 21672, Note_off_c, 0, 68, 89
1, 21680, Note_on_c, 0, 70, 109
1, 21763, Note_off_c, 0, 70, 109
1, 21771, Note_on_c, 0, 71, 100
1, 21830, Note_off_c, 0, 71, 100
1, 21862, Note_on_c, 0, 77, 113
1, 21905, Note_off_c, 0, 77, 113
1, 21910, Note_on_c, 0, 78, 112
1, 21953, Note_off_c, 0, 78, 112
1, 21966, Note_on_c, 0, 79, 105
1, 22001, Note_off_c, 0, 79, 105
1, 22022, Note_on_c, 0, 80, 109
1, 22051, Note_off_c, 0, 80, 109
1, 22064, Note_on_c, 0, 82, 104
1, 22099, Note_off_c, 0, 82, 104
1, 22099, Note_on_c, 0, 84, 115
1, 22144, Note_off_c, 0, 84, 115
1, 22144, Note_on_c, 0, 85, 113
1, 22200, Note_off_c, 0, 85, 113
1, 22221, Note_on_c, 0, 87, 112
1, 22393, Note_off_c, 0, 87, 112
1, 22944, Note_on_c, 0, 85, 110
1, 23033, Note_off_c, 0, 85, 110
1, 23054, Note_on_c, 0, 86, 118
1, 23594, Note_off_c, 0, 86, 118
1, 23621, Note_on_c, 0, 87, 111
1, 24302, Note_off_c, 0, 87, 111
1, 24342, Note_on_c, 0, 88, 112
1, 24487, Note_off_c, 0, 88, 112
1, 24487, Note_on_c, 0, 87, 111
1, 24946, Note_off_c, 0, 87, 111
1, 25678, Note_on_c, 0, 86, 106
1, 25772, Note_off_c, 0, 86, 106
1, 25785, Note_on_c, 0, 87, 115
1, 25995, Note_off_c, 0, 87, 115
1, 26000, Note_on_c, 0, 85, 109
1, 26089, Note_off_c, 0, 85, 109
1, 26107, Note_on_c, 0, 85, 110
1, 26185, Note_off_c, 0, 85, 110
1, 26185, Note_on_c, 0, 84, 97
1, 26260, Note_off_c, 0, 84, 97
1, 26262, Note_on_c, 0, 81, 103
1, 26362, Note_off_c, 0, 81, 103
1, 26365, Note_on_c, 0, 79, 107
1, 26434, Note_off_c, 0, 79, 107
1, 26434, Note_on_c, 0, 76, 99
1, 26555, Note_off_c, 0, 76, 99
1, 26622, Note_on_c, 0, 83, 92
1, 26751, Note_off_c, 0, 83, 92
1, 26764, Note_on_c, 0, 79, 105
1, 26939, Note_off_c, 0, 79, 105
1, 27001, Note_on_c, 0, 76, 95
1, 27073, Note_off_c, 0, 76, 95
1, 27091, Note_on_c, 0, 74, 98
1, 27188, Note_off_c, 0, 74, 98
1, 27204, Note_on_c, 0, 76, 102
1, 27347, Note_off_c, 0, 76, 102
1, 27357, Note_on_c, 0, 77, 101
1, 27402, Note_off_c, 0, 77, 101
1, 27402, Note_on_c, 0, 75, 106
1, 27461, Note_off_c, 0, 75, 106
1, 27469, Note_on_c, 0, 72, 100
1, 27505, Note_off_c, 0, 72, 100
1, 27511, Note_on_c, 0, 76, 96
1, 27597, Note_off_c, 0, 76, 96
1, 27602, Note_on_c, 0, 74, 111
1, 27691, Note_off_c, 0, 74, 111
1, 27709, Note_on_c, 0, 72, 102
1, 27800, Note_off_c, 0, 72, 102
1, 27800, Note_on_c, 0, 73, 92
1, 27900, Note_off_c, 0, 73, 92
1, 27902, Note_on_c, 0, 71, 102
1, 27991, Note_off_c, 0, 71, 102
1, 27991, Note_on_c, 0, 72, 101
1, 28080, Note_off_c, 0, 72, 101
1, 28080, Note_on_c, 0, 70, 108
1, 28161, Note_off_c, 0, 70, 108
1, 28161, Note_on_c, 0, 71, 102
1, 28274, Note_off_c, 0, 71, 102
1, 28274, Note_on_c, 0, 69, 95
1, 28341, Note_off_c, 0, 69, 95
1, 28354, Note_on_c, 0, 70, 107
1, 28459, Note_off_c, 0, 70, 107
1, 28461, Note_on_c, 0, 68, 94
1, 28542, Note_off_c, 0, 68, 94
1, 28550, Note_on_c, 0, 69, 103
1, 28636, Note_off_c, 0, 69, 103
1, 28636, Note_on_c, 0, 67, 96
1, 28711, Note_off_c, 0, 67, 96
1, 28719, Note_on_c, 0, 68, 98
1, 28797, Note_off_c, 0, 68, 98
1, 28818, Note_on_c, 0, 65, 96
1, 28909, Note_off_c, 0, 65, 96
1, 28914, Note_on_c, 0, 67, 89
1, 29003, Note_off_c, 0, 67, 89
1, 29054, Note_on_c, 0, 64, 91
1, 29132, Note_off_c, 0, 64, 91
1, 29142, Note_on_c, 0, 65, 98
1, 29231, Note_off_c, 0, 65, 98
1, 29409, Note_on_c, 0, 62, 85
1, 29498, Note_off_c, 0, 62, 85
1, 29503, Note_on_c, 0, 63, 86
1, 29770, Note_off_c, 0, 63, 86
1, 29988, Note_on_c, 0, 67, 104
1, 30093, Note_off_c, 0, 67, 104
1, 30111, Note_on_c, 0, 66, 95
1, 30181, Note_off_c, 0, 66, 95
1, 30199, Note_on_c, 0, 64, 80
1, 30277, Note_off_c, 0, 64, 80
1, 30285, Note_on_c, 0, 65, 89
1, 30374, Note_off_c, 0, 65, 89
1, 30379, Note_on_c, 0, 67, 94
1, 30487, Note_off_c, 0, 67, 94
1, 30487, Note_on_c, 0, 68, 93
1, 30568, Note_off_c, 0, 68, 93
1, 30568, Note_on_c, 0, 70, 99
1, 30665, Note_off_c, 0, 70, 99
1, 30673, Note_on_c, 0, 71, 98
1, 30743, Note_off_c, 0, 71, 98
1, 30745, Note_on_c, 0, 72, 104
1, 30823, Note_off_c, 0, 72, 104
1, 30825, Note_on_c, 0, 73, 100
1, 30911, Note_off_c, 0, 73, 100
1, 30919, Note_on_c, 0, 74, 107
1, 31037, Note_off_c, 0, 74, 107
1, 31055, Note_on_c, 0, 75, 106
1, 31146, Note_off_c, 0, 75, 106
1, 31321, Note_on_c, 0, 76, 98
1, 31377, Note_off_c, 0, 76, 98
1, 31379, Note_on_c, 0, 77, 109
1, 31538, Note_off_c, 0, 77, 109
1, 31792, Note_on_c, 0, 79, 108
1, 31946, Note_off_c, 0, 79, 108
1, 31951, Note_on_c, 0, 78, 107
1, 32040, Note_off_c, 0, 78, 107
1, 32040, Note_on_c, 0, 79, 82
1, 32123, Note_off_c, 0, 79, 82
1, 32501, Note_on_c, 0, 76, 102
1, 32606, Note_off_c, 0, 76, 102
1, 32614, Note_on_c, 0, 75, 97
1, 32927, Note_off_c, 0, 75, 97
1, 32954, Note_on_c, 0, 68, 87
1, 33043, Note_off_c, 0, 68, 87
1, 33148, Note_on_c, 0, 64, 87
1, 33231, Note_off_c, 0, 64, 87
1, 33344, Note_on_c, 0, 59, 76
1, 33465, Note_off_c, 0, 59, 76
1, 33637, Note_on_c, 0, 67, 94
1, 33758, Note_off_c, 0, 67, 94
1, 33760, Note_on_c, 0, 66, 87
1, 33878, Note_off_c, 0, 66, 87
1, 34007, Note_on_c, 0, 62, 72
1, 34093, Note_off_c, 0, 62, 72
1, 34095, Note_on_c, 0, 65, 85
1, 34208, Note_off_c, 0, 65, 85
1, 34235, Note_on_c, 0, 62, 82
1, 34316, Note_off_c, 0, 62, 82
1, 34318, Note_on_c, 0, 63, 83
1, 34409, Note_off_c, 0, 63, 83
1, 35460, Note_on_c, 0, 63, 86
1, 35557, Note_off_c, 0, 63, 86
1, 35559, Note_on_c, 0, 62, 82
1, 35653, Note_off_c, 0, 62, 82
1, 35661, Note_on_c, 0, 63, 82
1, 35761, Note_off_c, 0, 63, 82
1, 35774, Note_on_c, 0, 65, 86
1, 35841, Note_off_c, 0, 65, 86
1, 35859, Note_on_c, 0, 67, 84
1, 35953, Note_off_c, 0, 67, 84
1, 35953, Note_on_c, 0, 72, 81
1, 36034, Note_off_c, 0, 72, 81
1, 36050, Note_on_c, 0, 70, 103
1, 36136, Note_off_c, 0, 70, 103
1, 36146, Note_on_c, 0, 68, 95
1, 36229, Note_off_c, 0, 68, 95
1, 36231, Note_on_c, 0, 69, 99
1, 36333, Note_off_c, 0, 69, 99
1, 36424, Note_on_c, 0, 64, 89
1, 36621, Note_off_c, 0, 64, 89
1, 36726, Note_on_c, 0, 67, 100
1, 36853, Note_off_c, 0, 67, 100
1, 36858, Note_on_c, 0, 66, 91
1, 36922, Note_off_c, 0, 66, 91
1, 36927, Note_on_c, 0, 64, 88
1, 36999, Note_off_c, 0, 64, 88
1, 36999, Note_on_c, 0, 65, 87
1, 37093, Note_off_c, 0, 65, 87
1, 37106, Note_on_c, 0, 67, 80
1, 37189, Note_off_c, 0, 67, 80
1, 37191, Note_on_c, 0, 69, 99
1, 37328, Note_off_c, 0, 69, 99
1, 37330, Note_on_c, 0, 70, 101
1, 37786, Note_off_c, 0, 70, 101
1, 37794, Note_on_c, 0, 73, 91
1, 37904, Note_off_c, 0, 73, 91
1, 37966, Note_on_c, 0, 66, 77
1, 38228, Note_off_c, 0, 66, 77
1, 38387, Note_on_c, 0, 65, 91
1, 38492, Note_off_c, 0, 65, 91
1, 38501, Note_on_c, 0, 63, 79
1, 38573, Note_off_c, 0, 63, 79
1, 38574, Note_on_c, 0, 64, 82
1, 38682, Note_off_c, 0, 64, 82
1, 38682, Note_on_c, 0, 62, 77
1, 38760, Note_off_c, 0, 62, 77
1, 38776, Note_on_c, 0, 63, 95
1, 38833, Note_off_c, 0, 63, 95
1, 38855, Note_on_c, 0, 65, 93
1, 38931, Note_off_c, 0, 65, 93
1, 38946, Note_on_c, 0, 67, 90
1, 39018, Note_off_c, 0, 67, 90
1, 39039, Note_on_c, 0, 68, 86
1, 39095, Note_off_c, 0, 68, 86
1, 39103, Note_on_c, 0, 69, 92
1, 39203, Note_off_c, 0, 69, 92
1, 39211, Note_on_c, 0, 70, 95
1, 39300, Note_off_c, 0, 70, 95
1, 39300, Note_on_c, 0, 71, 84
1, 39383, Note_off_c, 0, 71, 84
1, 39401, Note_on_c, 0, 75, 90
1, 39506, Note_off_c, 0, 75, 90
1, 39506, Note_on_c, 0, 73, 93
1, 39587, Note_off_c, 0, 73, 93
1, 39592, Note_on_c, 0, 74, 93
1, 39681, Note_off_c, 0, 74, 93
1, 39699, Note_on_c, 0, 75, 88
1, 39788, Note_off_c, 0, 75, 88
1, 39801, Note_on_c, 0, 73, 99
1, 39876, Note_off_c, 0, 73, 99
1, 39889, Note_on_c, 0, 74, 86
1, 39997, Note_off_c, 0, 74, 86
1, 40002, Note_on_c, 0, 72, 93
1, 40072, Note_off_c, 0, 72, 93
1, 40074, Note_on_c, 0, 71, 91
1, 40160, Note_off_c, 0, 71, 91
1, 40216, Note_on_c, 0, 69, 88
1, 40278, Note_off_c, 0, 69, 88
1, 40283, Note_on_c, 0, 70, 91
1, 40418, Note_off_c, 0, 70, 91
1, 41058, Note_on_c, 0, 74, 104
1, 41155, Note_off_c, 0, 74, 104
1, 41157, Note_on_c, 0, 74, 106
1, 41246, Note_off_c, 0, 74, 106
1, 41281, Note_on_c, 0, 74, 104
1, 41372, Note_off_c, 0, 74, 104
1, 41396, Note_on_c, 0, 74, 100
1, 41493, Note_off_c, 0, 74, 100
1, 41511, Note_on_c, 0, 74, 104
1, 41573, Note_off_c, 0, 74, 104
1, 41581, Note_on_c, 0, 75, 99
1, 41664, Note_off_c, 0, 75, 99
1, 42521, Note_on_c, 0, 81, 100
1, 42657, Note_off_c, 0, 81, 100
1, 42679, Note_on_c, 0, 76, 105
1, 42781, Note_off_c, 0, 76, 105
1, 42786, Note_on_c, 0, 79, 102
1, 42905, Note_off_c, 0, 79, 102
1, 42911, Note_on_c, 0, 76, 97
1, 42983, Note_off_c, 0, 76, 97
1, 42983, Note_on_c, 0, 77, 105
1, 43080, Note_off_c, 0, 77, 105
1, 43782, Note_on_c, 0, 76, 104
1, 43884, Note_off_c, 0, 76, 104
1, 43886, Note_on_c, 0, 77, 99
1, 43969, Note_off_c, 0, 77, 99
1, 43976, Note_on_c, 0, 76, 92
1, 44048, Note_off_c, 0, 76, 92
1, 44049, Note_on_c, 0, 74, 91
1, 44149, Note_on_c, 0, 72, 89
1, 44149, Note_off_c, 0, 74, 91
1, 44240, Note_off_c, 0, 72, 89
1, 44258, Note_on_c, 0, 71, 92
1, 44333, Note_off_c, 0, 71, 92
1, 44349, Note_on_c, 0, 70, 96
1, 44432, Note_off_c, 0, 70, 96
1, 44442, Note_on_c, 0, 69, 95
1, 44514, Note_off_c, 0, 69, 95
1, 44530, Note_on_c, 0, 68, 86
1, 44646, Note_off_c, 0, 68, 86
1, 45327, Note_on_c, 0, 67, 101
1, 45408, Note_off_c, 0, 67, 101
1, 45413, Note_on_c, 0, 66, 90
1, 45448, Note_off_c, 0, 66, 90
1, 45461, Note_on_c, 0, 67, 92
1, 45498, Note_off_c, 0, 67, 92
1, 45498, Note_on_c, 0, 65, 86
1, 45573, Note_off_c, 0, 65, 86
1, 45586, Note_on_c, 0, 64, 93
1, 45675, Note_off_c, 0, 64, 93
1, 45689, Note_on_c, 0, 63, 83
1, 45774, Note_off_c, 0, 63, 83
1, 45774, Note_on_c, 0, 65, 100
1, 45855, Note_off_c, 0, 65, 100
1, 45882, Note_on_c, 0, 61, 82
1, 45965, Note_off_c, 0, 61, 82
1, 45965, Note_on_c, 0, 65, 84
1, 46065, Note_off_c, 0, 65, 84
1, 46067, Note_on_c, 0, 63, 86
1, 46150, Note_off_c, 0, 63, 86
1, 46150, Note_on_c, 0, 65, 98
1, 46236, Note_off_c, 0, 65, 98
1, 46252, Note_on_c, 0, 67, 89
1, 46362, Note_off_c, 0, 67, 89
1, 46364, Note_on_c, 0, 69, 88
1, 46455, Note_off_c, 0, 69, 88
1, 46468, Note_on_c, 0, 70, 99
1, 46584, Note_off_c, 0, 70, 99
1, 47975, Note_on_c, 0, 69, 98
1, 48039, Note_on_c, 0, 67, 89
1, 48039, Note_off_c, 0, 69, 98
1, 48114, Note_off_c, 0, 67, 89
1, 48122, Note_on_c, 0, 65, 91
1, 48200, Note_off_c, 0, 65, 91
1, 48216, Note_on_c, 0, 63, 81
1, 48275, Note_off_c, 0, 63, 81
1, 48318, Note_on_c, 0, 63, 83
1, 48404, Note_off_c, 0, 63, 83
1, 48414, Note_on_c, 0, 68, 92
1, 48511, Note_off_c, 0, 68, 92
1, 49335, Note_on_c, 0, 67, 75
1, 49391, Note_off_c, 0, 67, 75
1, 49415, Note_on_c, 0, 67, 81
1, 49471, Note_off_c, 0, 67, 81
1, 49487, Note_on_c, 0, 69, 97
1, 49576, Note_off_c, 0, 69, 97
1, 49579, Note_on_c, 0, 70, 107
1, 49634, Note_off_c, 0, 70, 107
1, 49640, Note_on_c, 0, 71, 99
1, 49712, Note_off_c, 0, 71, 99
1, 49750, Note_on_c, 0, 72, 103
1, 49833, Note_off_c, 0, 72, 103
1, 49837, Note_on_c, 0, 73, 98
1, 49915, Note_off_c, 0, 73, 98
1, 49915, Note_on_c, 0, 74, 102
1, 50012, Note_off_c, 0, 74, 102
1, 50017, Note_on_c, 0, 75, 96
1, 50117, Note_off_c, 0, 75, 96
1, 50122, Note_on_c, 0, 72, 96
1, 50208, Note_off_c, 0, 72, 96
1, 50218, Note_on_c, 0, 73, 91
1, 50307, Note_off_c, 0, 73, 91
1, 50312, Note_on_c, 0, 71, 87
1, 50382, Note_off_c, 0, 71, 87
1, 50398, Note_on_c, 0, 72, 94
1, 50514, Note_off_c, 0, 72, 94
1, 51133, Note_on_c, 0, 69, 77
1, 51190, Note_off_c, 0, 69, 77
1, 51202, Note_on_c, 0, 70, 100
1, 51277, Note_off_c, 0, 70, 100
1, 51293, Note_on_c, 0, 72, 98
1, 51368, Note_off_c, 0, 72, 98
1, 51397, Note_on_c, 0, 74, 98
1, 51475, Note_off_c, 0, 74, 98
1, 51483, Note_on_c, 0, 77, 106
1, 51558, Note_off_c, 0, 77, 106
1, 51560, Note_on_c, 0, 76, 102
1, 51641, Note_off_c, 0, 76, 102
1, 51668, Note_on_c, 0, 79, 107
1, 51749, Note_off_c, 0, 79, 107
1, 51757, Note_on_c, 0, 81, 106
1, 51835, Note_off_c, 0, 81, 106
1, 51862, Note_on_c, 0, 80, 102
1, 51934, Note_off_c, 0, 80, 102
1, 51952, Note_on_c, 0, 79, 104
1, 52046, Note_off_c, 0, 79, 104
1, 52048, Note_on_c, 0, 78, 100
1, 52134, Note_off_c, 0, 78, 100
1, 52142, Note_on_c, 0, 77, 102
1, 52223, Note_off_c, 0, 77, 102
1, 52241, Note_on_c, 0, 76, 104
1, 52324, Note_on_c, 0, 75, 92
1, 52324, Note_off_c, 0, 76, 104
1, 52424, Note_off_c, 0, 75, 92
1, 53267, Note_on_c, 0, 74, 104
1, 53353, Note_off_c, 0, 74, 104
1, 53361, Note_on_c, 0, 77, 107
1, 53551, Note_off_c, 0, 77, 107
1, 53564, Note_on_c, 0, 79, 102
1, 54445, Note_off_c, 0, 79, 102
1, 54480, Note_on_c, 0, 75, 76
1, 54566, Note_off_c, 0, 75, 76
1, 54636, Note_on_c, 0, 72, 94
1, 54714, Note_off_c, 0, 72, 94
1, 55554, Note_on_c, 0, 79, 9
1, 55797, Note_off_c, 0, 79, 9
1, 55807, Note_on_c, 0, 80, 93
1, 55896, Note_off_c, 0, 80, 93
1, 55904, Note_on_c, 0, 76, 92
1, 55982, Note_off_c, 0, 76, 92
1, 55982, Note_on_c, 0, 75, 95
1, 56049, Note_off_c, 0, 75, 95
1, 56143, Note_on_c, 0, 72, 92
1, 56226, Note_off_c, 0, 72, 92
1, 56937, Note_on_c, 0, 65, 99
1, 57070, Note_off_c, 0, 65, 99
1, 57081, Note_on_c, 0, 62, 91
1, 57167, Note_off_c, 0, 62, 91
1, 57194, Note_on_c, 0, 63, 84
1, 57418, Note_off_c, 0, 63, 84
1, 57453, Note_on_c, 0, 65, 90
1, 57542, Note_off_c, 0, 65, 90
1, 57552, Note_on_c, 0, 67, 90
1, 57633, Note_off_c, 0, 67, 90
1, 57633, Note_on_c, 0, 69, 89
1, 57707, Note_off_c, 0, 69, 89
1, 57710, Note_on_c, 0, 70, 99
1, 57815, Note_off_c, 0, 70, 99
1, 57815, Note_on_c, 0, 69, 94
1, 57892, Note_off_c, 0, 69, 94
1, 57897, Note_on_c, 0, 68, 91
1, 57986, Note_off_c, 0, 68, 91
1, 57988, Note_on_c, 0, 70, 97
1, 58079, Note_off_c, 0, 70, 97
1, 58084, Note_on_c, 0, 71, 95
1, 58175, Note_off_c, 0, 71, 95
1, 58191, Note_on_c, 0, 72, 101
1, 58272, Note_off_c, 0, 72, 101
1, 58274, Note_on_c, 0, 73, 98
1, 58360, Note_off_c, 0, 73, 98
1, 58362, Note_on_c, 0, 74, 103
1, 58456, Note_off_c, 0, 74, 103
1, 58458, Note_on_c, 0, 75, 100
1, 58555, Note_off_c, 0, 75, 100
1, 58557, Note_on_c, 0, 72, 99
1, 58654, Note_off_c, 0, 72, 99
1, 58656, Note_on_c, 0, 73, 94
1, 58774, Note_off_c, 0, 73, 94
1, 58783, Note_on_c, 0, 71, 93
1, 58830, Note_off_c, 0, 71, 93
1, 58840, Note_on_c, 0, 72, 95
1, 58934, Note_off_c, 0, 72, 95
1, 58939, Note_on_c, 0, 71, 91
1, 59036, Note_on_c, 0, 70, 96
1, 59036, Note_off_c, 0, 71, 91
1, 59125, Note_off_c, 0, 70, 96
1, 59129, Note_on_c, 0, 69, 84
1, 59205, Note_off_c, 0, 69, 84
1, 59210, Note_on_c, 0, 68, 89
1, 59280, Note_off_c, 0, 68, 89
1, 59315, Note_on_c, 0, 65, 88
1, 59404, Note_off_c, 0, 65, 88
1, 59420, Note_on_c, 0, 67, 82
1, 59528, Note_off_c, 0, 67, 82
1, 59533, Note_on_c, 0, 64, 83
1, 59605, Note_off_c, 0, 64, 83
1, 59610, Note_on_c, 0, 65, 97
1, 59701, Note_off_c, 0, 65, 97
1, 59822, Note_on_c, 0, 67, 96
1, 60122, Note_off_c, 0, 67, 96
1, 60132, Note_on_c, 0, 68, 93
1, 60564, Note_off_c, 0, 68, 93
1, 60596, Note_on_c, 0, 64, 78
1, 60793, Note_off_c, 0, 64, 78
1, 60793, Note_on_c, 0, 65, 100
1, 61130, Note_off_c, 0, 65, 100
1, 61135, Note_on_c, 0, 67, 96
1, 61240, Note_off_c, 0, 67, 96
1, 61242, Note_on_c, 0, 68, 103
1, 61560, Note_off_c, 0, 68, 103
1, 61570, Note_on_c, 0, 69, 93
1, 61742, Note_off_c, 0, 69, 93
1, 61750, Note_on_c, 0, 70, 107
1, 62058, Note_off_c, 0, 70, 107
1, 62068, Note_on_c, 0, 71, 103
1, 62195, Note_off_c, 0, 71, 103
1, 62216, Note_on_c, 0, 70, 91
1, 62297, Note_off_c, 0, 70, 91
1, 62305, Note_on_c, 0, 71, 84
1, 62415, Note_off_c, 0, 71, 84
1, 63096, Note_on_c, 0, 67, 83
1, 63201, Note_off_c, 0, 67, 83
1, 63282, Note_on_c, 0, 67, 89
1, 63379, Note_off_c, 0, 67, 89
1, 63487, Note_on_c, 0, 67, 89
1, 63597, Note_off_c, 0, 67, 89
1, 63688, Note_on_c, 0, 67, 87
1, 63760, Note_off_c, 0, 67, 87
1, 63765, Note_on_c, 0, 69, 90
1, 63846, Note_off_c, 0, 69, 90
1, 63855, Note_on_c, 0, 68, 89
1, 63922, Note_off_c, 0, 68, 89
1, 63939, Note_on_c, 0, 72, 92
1, 64022, Note_off_c, 0, 72, 92
1, 64040, Note_on_c, 0, 73, 85
1, 64110, Note_off_c, 0, 73, 85
1, 64120, Note_on_c, 0, 74, 91
1, 64230, Note_off_c, 0, 74, 91
1, 64230, Note_on_c, 0, 76, 104
1, 64346, Note_off_c, 0, 76, 104
1, 64348, Note_on_c, 0, 73, 98
1, 64426, Note_off_c, 0, 73, 98
1, 64436, Note_on_c, 0, 74, 95
1, 64557, Note_off_c, 0, 74, 95
1, 64567, Note_on_c, 0, 72, 93
1, 64637, Note_off_c, 0, 72, 93
1, 64647, Note_on_c, 0, 71, 86
1, 64722, Note_off_c, 0, 71, 86
1, 64751, Note_on_c, 0, 69, 83
1, 64834, Note_off_c, 0, 69, 83
1, 64842, Note_on_c, 0, 70, 91
1, 64931, Note_off_c, 0, 70, 91
1, 64936, Note_on_c, 0, 72, 84
1, 65025, Note_off_c, 0, 72, 84
1, 65025, Note_on_c, 0, 73, 89
1, 65111, Note_off_c, 0, 73, 89
1, 65121, Note_on_c, 0, 70, 91
1, 65212, Note_off_c, 0, 70, 91
1, 66036, Note_on_c, 0, 64, 76
1, 66141, Note_off_c, 0, 64, 76
1, 66149, Note_on_c, 0, 67, 79
1, 66265, Note_off_c, 0, 67, 79
1, 66266, Note_on_c, 0, 69, 87
1, 66321, Note_off_c, 0, 69, 87
1, 66335, Note_on_c, 0, 70, 93
1, 66429, Note_off_c, 0, 70, 93
1, 66453, Note_on_c, 0, 74, 105
1, 66547, Note_off_c, 0, 74, 105
1, 66555, Note_on_c, 0, 75, 99
1, 66611, Note_off_c, 0, 75, 99
1, 67113, Note_on_c, 0, 74, 93
1, 67180, Note_off_c, 0, 74, 93
1, 67190, Note_on_c, 0, 75, 104
1, 67406, Note_off_c, 0, 75, 104
1, 67416, Note_on_c, 0, 77, 105
1, 67494, Note_off_c, 0, 77, 105
1, 67499, Note_on_c, 0, 75, 107
1, 67823, Note_off_c, 0, 75, 107
1, 67831, Note_on_c, 0, 73, 98
1, 67917, Note_off_c, 0, 73, 98
1, 67925, Note_on_c, 0, 72, 83
1, 68014, Note_off_c, 0, 72, 83
1, 68016, Note_on_c, 0, 71, 99
1, 68097, Note_off_c, 0, 71, 99
1, 68107, Note_on_c, 0, 70, 102
1, 68201, Note_off_c, 0, 70, 102
1, 68201, Note_on_c, 0, 69, 102
1, 68295, Note_off_c, 0, 69, 102
1, 68308, Note_on_c, 0, 68, 94
1, 68383, Note_off_c, 0, 68, 94
1, 68385, Note_on_c, 0, 63, 93
1, 68493, Note_off_c, 0, 63, 93
1, 69274, Note_on_c, 0, 67, 100
1, 69390, Note_off_c, 0, 67, 100
1, 69398, Note_on_c, 0, 64, 96
1, 69465, Note_off_c, 0, 64, 96
1, 69481, Note_on_c, 0, 65, 89
1, 69562, Note_on_c, 0, 64, 93
1, 69562, Note_off_c, 0, 65, 89
1, 69659, Note_off_c, 0, 64, 93
1, 69670, Note_on_c, 0, 64, 83
1, 69753, Note_off_c, 0, 64, 83
1, 69754, Note_on_c, 0, 65, 102
1, 69851, Note_off_c, 0, 65, 102
1, 69863, Note_on_c, 0, 61, 81
1, 69933, Note_off_c, 0, 61, 81
1, 69933, Note_on_c, 0, 64, 83
1, 70030, Note_off_c, 0, 64, 83
1, 70032, Note_on_c, 0, 63, 89
1, 70121, Note_off_c, 0, 63, 89
1, 70126, Note_on_c, 0, 65, 97
1, 70223, Note_off_c, 0, 65, 97
1, 70225, Note_on_c, 0, 67, 97
1, 70341, Note_off_c, 0, 67, 97
1, 70341, Note_on_c, 0, 69, 95
1, 70401, Note_off_c, 0, 69, 95
1, 70409, Note_on_c, 0, 70, 105
1, 70541, Note_off_c, 0, 70, 105
1, 70546, Note_on_c, 0, 68, 93
1, 70604, Note_off_c, 0, 68, 93
1, 70611, Note_on_c, 0, 69, 103
1, 70711, Note_off_c, 0, 69, 103
1, 70716, Note_on_c, 0, 67, 93
1, 70794, Note_off_c, 0, 67, 93
1, 70794, Note_on_c, 0, 68, 98
1, 70896, Note_off_c, 0, 68, 98
1, 70899, Note_on_c, 0, 70, 101
1, 70990, Note_off_c, 0, 70, 101
1, 70995, Note_on_c, 0, 71, 96
1, 71078, Note_off_c, 0, 71, 96
1, 71080, Note_on_c, 0, 72, 101
1, 71174, Note_off_c, 0, 72, 101
1, 71176, Note_on_c, 0, 73, 102
1, 71257, Note_off_c, 0, 73, 102
1, 71270, Note_on_c, 0, 74, 107
1, 71370, Note_off_c, 0, 74, 107
1, 71372, Note_on_c, 0, 75, 104
1, 71469, Note_off_c, 0, 75, 104
1, 71469, Note_on_c, 0, 72, 105
1, 71571, Note_off_c, 0, 72, 105
1, 71581, Note_on_c, 0, 73, 98
1, 71678, Note_off_c, 0, 73, 98
1, 71678, Note_on_c, 0, 71, 95
1, 71750, Note_off_c, 0, 71, 95
1, 71758, Note_on_c, 0, 72, 103
1, 71839, Note_off_c, 0, 72, 103
1, 71841, Note_on_c, 0, 71, 92
1, 71924, Note_off_c, 0, 71, 92
1, 71929, Note_on_c, 0, 70, 104
1, 72012, Note_off_c, 0, 70, 104
1, 72020, Note_on_c, 0, 71, 103
1, 72122, Note_off_c, 0, 71, 103
1, 72132, Note_on_c, 0, 70, 93
1, 72275, Note_off_c, 0, 70, 93
1, 72602, Note_on_c, 0, 66, 87
1, 72677, Note_off_c, 0, 66, 87
1, 72693, Note_on_c, 0, 71, 99
1, 72793, Note_off_c, 0, 71, 99
1, 72806, Note_on_c, 0, 72, 107
1, 72916, Note_off_c, 0, 72, 107
1, 72934, Note_on_c, 0, 71, 102
1, 73206, Note_off_c, 0, 71, 102
1, 73211, Note_on_c, 0, 71, 94
1, 73265, Note_off_c, 0, 71, 94
1, 73286, Note_on_c, 0, 72, 95
1, 73423, Note_off_c, 0, 72, 95
1, 73453, Note_on_c, 0, 73, 100
1, 73665, Note_off_c, 0, 73, 100
1, 73816, Note_on_c, 0, 74, 99
1, 73975, Note_off_c, 0, 74, 99
1, 74004, Note_on_c, 0, 70, 85
1, 74036, Note_off_c, 0, 70, 85
1, 74046, Note_on_c, 0, 75, 97
1, 74164, Note_off_c, 0, 75, 97
1, 74166, Note_on_c, 0, 72, 75
1, 74203, Note_off_c, 0, 72, 75
1, 74240, Note_on_c, 0, 76, 106
1, 74345, Note_off_c, 0, 76, 106
1, 74366, Note_on_c, 0, 73, 82
1, 74417, Note_off_c, 0, 73, 82
1, 74422, Note_on_c, 0, 77, 108
1, 74538, Note_off_c, 0, 77, 108
1, 74565, Note_on_c, 0, 74, 86
1, 74603, Note_off_c, 0, 74, 86
1, 74603, Note_on_c, 0, 78, 106
1, 74838, Note_off_c, 0, 78, 106
1, 76469, Note_on_c, 0, 75, 81
1, 76517, Note_off_c, 0, 75, 81
1, 76544, Note_on_c, 0, 79, 94
1, 76598, Note_off_c, 0, 79, 94
1, 76611, Note_on_c, 0, 82, 109
1, 76678, Note_off_c, 0, 82, 109
1, 76678, Note_on_c, 0, 84, 107
1, 76723, Note_off_c, 0, 84, 107
1, 76741, Note_on_c, 0, 88, 103
1, 76854, Note_off_c, 0, 88, 103
1, 76867, Note_on_c, 0, 87, 114
1, 77018, Note_off_c, 0, 87, 114
1, 78166, Note_on_c, 0, 84, 94
1, 78257, Note_off_c, 0, 84, 94
1, 78265, Note_on_c, 0, 87, 103
1, 78410, Note_off_c, 0, 87, 103
1, 78453, Note_on_c, 0, 86, 110
1, 78825, Note_off_c, 0, 86, 110
1, 78830, Note_on_c, 0, 85, 99
1, 79673, Note_off_c, 0, 85, 99
1, 79691, Note_on_c, 0, 84, 101
1, 79828, Note_off_c, 0, 84, 101
1, 79833, Note_on_c, 0, 85, 102
1, 79927, Note_off_c, 0, 85, 102
1, 79951, Note_on_c, 0, 84, 99
1, 80515, Note_off_c, 0, 84, 99
1, 80520, Note_on_c, 0, 83, 101
1, 80814, Note_off_c, 0, 83, 101
1, 81332, Note_on_c, 0, 82, 96
1, 81410, Note_off_c, 0, 82, 96
1, 81423, Note_on_c, 0, 86, 106
1, 81493, Note_off_c, 0, 86, 106
1, 81498, Note_on_c, 0, 87, 108
1, 81568, Note_off_c, 0, 87, 108
1, 81584, Note_on_c, 0, 86, 106
1, 81935, Note_off_c, 0, 86, 106
1, 81937, Note_on_c, 0, 85, 101
1, 82718, Note_off_c, 0, 85, 101
1, 82723, Note_on_c, 0, 84, 100
1, 82809, Note_off_c, 0, 84, 100
1, 82822, Note_on_c, 0, 85, 97
1, 82908, Note_off_c, 0, 85, 97
1, 82913, Note_on_c, 0, 84, 99
1, 83391, Note_off_c, 0, 84, 99
1, 83396, Note_on_c, 0, 83, 94
1, 83601, Note_off_c, 0, 83, 94
1, 84674, Note_on_c, 0, 81, 101
1, 84790, Note_off_c, 0, 81, 101
1, 84790, Note_on_c, 0, 82, 105
1, 84873, Note_off_c, 0, 82, 105
1, 84881, Note_on_c, 0, 83, 103
1, 84999, Note_off_c, 0, 83, 103
1, 85004, Note_on_c, 0, 81, 99
1, 85066, Note_off_c, 0, 81, 99
1, 85076, Note_on_c, 0, 79, 100
1, 85227, Note_off_c, 0, 79, 100
1, 85483, Note_on_c, 0, 77, 100
1, 85610, Note_off_c, 0, 77, 100
1, 86180, Note_on_c, 0, 77, 102
1, 86277, Note_off_c, 0, 77, 102
1, 86287, Note_on_c, 0, 80, 105
1, 86376, Note_off_c, 0, 80, 105
1, 86376, Note_on_c, 0, 79, 102
1, 86478, Note_off_c, 0, 79, 102
1, 86496, Note_on_c, 0, 76, 78
1, 86560, Note_off_c, 0, 76, 78
1, 86570, Note_on_c, 0, 77, 100
1, 86691, Note_off_c, 0, 77, 100
1, 86693, Note_on_c, 0, 76, 104
1, 86755, Note_off_c, 0, 76, 104
1, 86763, Note_on_c, 0, 75, 95
1, 86860, Note_off_c, 0, 75, 95
1, 86876, Note_on_c, 0, 72, 101
1, 86959, Note_off_c, 0, 72, 101
1, 86964, Note_on_c, 0, 73, 96
1, 87050, Note_off_c, 0, 73, 96
1, 87050, Note_on_c, 0, 71, 91
1, 87136, Note_off_c, 0, 71, 91
1, 87141, Note_on_c, 0, 72, 95
1, 87216, Note_off_c, 0, 72, 95
1, 87232, Note_on_c, 0, 71, 77
1, 87310, Note_off_c, 0, 71, 77
1, 87318, Note_on_c, 0, 70, 99
1, 87396, Note_off_c, 0, 70, 99
1, 87406, Note_on_c, 0, 69, 93
1, 87495, Note_off_c, 0, 69, 93
1, 87516, Note_on_c, 0, 67, 89
1, 87672, Note_off_c, 0, 67, 89
1, 87685, Note_on_c, 0, 66, 76
1, 87774, Note_off_c, 0, 66, 76
1, 87782, Note_on_c, 0, 67, 79
1, 87976, Note_off_c, 0, 67, 79
1, 88065, Note_on_c, 0, 67, 79
1, 88170, Note_off_c, 0, 67, 79
1, 88283, Note_on_c, 0, 67, 87
1, 88393, Note_off_c, 0, 67, 87
1, 88468, Note_on_c, 0, 67, 93
1, 88554, Note_off_c, 0, 67, 93
1, 88586, Note_on_c, 0, 73, 86
1, 88645, Note_off_c, 0, 73, 86
1, 88647, Note_on_c, 0, 71, 86
1, 88741, Note_off_c, 0, 71, 86
1, 88754, Note_on_c, 0, 72, 94
1, 88824, Note_off_c, 0, 72, 94
1, 88837, Note_on_c, 0, 73, 91
1, 88920, Note_off_c, 0, 73, 91
1, 88930, Note_on_c, 0, 74, 91
1, 88997, Note_off_c, 0, 74, 91
1, 88997, Note_on_c, 0, 76, 100
1, 89072, Note_off_c, 0, 76, 100
1, 89109, Note_on_c, 0, 73, 96
1, 89203, Note_off_c, 0, 73, 96
1, 89221, Note_on_c, 0, 74, 96
1, 89329, Note_off_c, 0, 74, 96
1, 89337, Note_on_c, 0, 72, 96
1, 89401, Note_off_c, 0, 72, 96
1, 89419, Note_on_c, 0, 71, 93
1, 89513, Note_off_c, 0, 71, 93
1, 89515, Note_on_c, 0, 69, 88
1, 89587, Note_off_c, 0, 69, 88
1, 89603, Note_on_c, 0, 70, 97
1, 89692, Note_off_c, 0, 70, 97
1, 89710, Note_on_c, 0, 72, 78
1, 89791, Note_off_c, 0, 72, 78
1, 89799, Note_on_c, 0, 69, 89
1, 89893, Note_off_c, 0, 69, 89
1, 89901, Note_on_c, 0, 70, 80
1, 89909, Note_on_c, 0, 70, 98
1, 89909, Note_off_c, 0, 70, 80
1, 90003, Note_off_c, 0, 70, 98
1, 90003, Note_on_c, 0, 67, 90
1, 90089, Note_off_c, 0, 67, 90
1, 90102, Note_on_c, 0, 64, 86
1, 90164, Note_off_c, 0, 64, 86
1, 90188, Note_on_c, 0, 65, 94
1, 90304, Note_off_c, 0, 65, 94
1, 90322, Note_on_c, 0, 63, 68
1, 90381, Note_off_c, 0, 63, 68
1, 90402, Note_on_c, 0, 64, 87
1, 90507, Note_off_c, 0, 64, 87
1, 90517, Note_on_c, 0, 62, 85
1, 90587, Note_off_c, 0, 62, 85
1, 90597, Note_on_c, 0, 63, 93
1, 90653, Note_off_c, 0, 63, 93
1, 90661, Note_on_c, 0, 65, 92
1, 90736, Note_off_c, 0, 65, 92
1, 90770, Note_on_c, 0, 62, 79
1, 90857, Note_off_c, 0, 62, 79
1, 90922, Note_on_c, 0, 64, 87
1, 91032, Note_off_c, 0, 64, 87
1, 91045, Note_on_c, 0, 65, 89
1, 91136, Note_off_c, 0, 65, 89
1, 91138, Note_on_c, 0, 67, 93
1, 91262, Note_off_c, 0, 67, 93
1, 91272, Note_on_c, 0, 66, 77
1, 91326, Note_off_c, 0, 66, 77
1, 91326, Note_on_c, 0, 70, 98
1, 91444, Note_off_c, 0, 70, 98
1, 91444, Note_on_c, 0, 68, 92
1, 91498, Note_off_c, 0, 68, 92
1, 91514, Note_on_c, 0, 69, 98
1, 91619, Note_off_c, 0, 69, 98
1, 91619, Note_on_c, 0, 67, 88
1, 91694, Note_off_c, 0, 67, 88
1, 91710, Note_on_c, 0, 68, 85
1, 91801, Note_off_c, 0, 68, 85
1, 91814, Note_on_c, 0, 70, 101
1, 91914, Note_off_c, 0, 70, 101
1, 91922, Note_on_c, 0, 71, 88
1, 91994, Note_off_c, 0, 71, 88
1, 92002, Note_on_c, 0, 72, 98
1, 92085, Note_off_c, 0, 72, 98
1, 92090, Note_on_c, 0, 73, 100
1, 92171, Note_off_c, 0, 73, 100
1, 92173, Note_on_c, 0, 74, 106
1, 92291, Note_off_c, 0, 74, 106
1, 92301, Note_on_c, 0, 75, 104
1, 92411, Note_off_c, 0, 75, 104
1, 92411, Note_on_c, 0, 72, 95
1, 92475, Note_off_c, 0, 72, 95
1, 92488, Note_on_c, 0, 73, 101
1, 92598, Note_off_c, 0, 73, 101
1, 92598, Note_on_c, 0, 71, 94
1, 92676, Note_off_c, 0, 71, 94
1, 92686, Note_on_c, 0, 72, 87
1, 92799, Note_off_c, 0, 72, 87
1, 93028, Note_on_c, 0, 77, 109
1, 93165, Note_off_c, 0, 77, 109
1, 93170, Note_on_c, 0, 79, 108
1, 93729, Note_off_c, 0, 79, 108
1, 93729, Note_on_c, 0, 77, 98
1, 93793, Note_off_c, 0, 77, 98
1, 93798, Note_on_c, 0, 76, 102
1, 93884, Note_off_c, 0, 76, 102
1, 93894, Note_on_c, 0, 75, 81
1, 93983, Note_off_c, 0, 75, 81
1, 94058, Note_on_c, 0, 72, 90
1, 94141, Note_off_c, 0, 72, 90
1, 95270, Note_on_c, 0, 67, 90
1, 95383, Note_off_c, 0, 67, 90
1, 95388, Note_on_c, 0, 65, 91
1, 95539, Note_off_c, 0, 65, 91
1, 95547, Note_on_c, 0, 64, 91
1, 95614, Note_off_c, 0, 64, 91
1, 95634, Note_on_c, 0, 63, 87
1, 95687, Note_off_c, 0, 63, 87
1, 95702, Note_on_c, 0, 64, 95
1, 95802, Note_off_c, 0, 64, 95
1, 95804, Note_on_c, 0, 61, 77
1, 95887, Note_off_c, 0, 61, 77
1, 95989, Note_on_c, 0, 63, 89
1, 96105, Note_off_c, 0, 63, 89
1, 96110, Note_on_c, 0, 65, 95
1, 96166, Note_off_c, 0, 65, 95
1, 96174, Note_on_c, 0, 67, 83
1, 96301, Note_off_c, 0, 67, 83
1, 96314, Note_on_c, 0, 65, 79
1, 96359, Note_off_c, 0, 65, 79
1, 96380, Note_on_c, 0, 69, 98
1, 96523, Note_off_c, 0, 69, 98
1, 96895, Note_on_c, 0, 70, 97
1, 97535, Note_off_c, 0, 70, 97
1, 97545, Note_on_c, 0, 71, 94
1, 97861, Note_off_c, 0, 71, 94
1, 97896, Note_on_c, 0, 70, 82
1, 98106, Note_off_c, 0, 70, 82
1, 98116, Note_on_c, 0, 72, 87
1, 98543, Note_off_c, 0, 72, 87
1, 99616, Note_on_c, 0, 65, 77
1, 99745, Note_off_c, 0, 65, 77
1, 99747, Note_on_c, 0, 64, 74
1, 99817, Note_off_c, 0, 64, 74
1, 99822, Note_on_c, 0, 65, 94
1, 99903, Note_off_c, 0, 65, 94
1, 99924, Note_on_c, 0, 67, 93
1, 100010, Note_off_c, 0, 67, 93
1, 100015, Note_on_c, 0, 69, 99
1, 100104, Note_off_c, 0, 69, 99
1, 100120, Note_on_c, 0, 70, 103
1, 100214, Note_off_c, 0, 70, 103
1, 100214, Note_on_c, 0, 67, 93
1, 100289, Note_off_c, 0, 67, 93
1, 100297, Note_on_c, 0, 69, 93
1, 100383, Note_off_c, 0, 69, 93
1, 100383, Note_on_c, 0, 70, 92
1, 100469, Note_off_c, 0, 70, 92
1, 100496, Note_on_c, 0, 72, 94
1, 100590, Note_off_c, 0, 72, 94
1, 100603, Note_on_c, 0, 73, 100
1, 100684, Note_off_c, 0, 73, 100
1, 100692, Note_on_c, 0, 71, 91
1, 100764, Note_off_c, 0, 71, 91
1, 100772, Note_on_c, 0, 72, 93
1, 100863, Note_off_c, 0, 72, 93
1, 100863, Note_on_c, 0, 70, 96
1, 100952, Note_off_c, 0, 70, 96
1, 100952, Note_on_c, 0, 69, 92
1, 101024, Note_off_c, 0, 69, 92
1, 101059, Note_on_c, 0, 69, 88
1, 101129, Note_off_c, 0, 69, 88
1, 101139, Note_on_c, 0, 74, 93
1, 101220, Note_off_c, 0, 74, 93
1, 101222, Note_on_c, 0, 76, 107
1, 101305, Note_off_c, 0, 76, 107
1, 101315, Note_on_c, 0, 77, 107
1, 101417, Note_off_c, 0, 77, 107
1, 101425, Note_on_c, 0, 71, 98
1, 101511, Note_off_c, 0, 71, 98
1, 101521, Note_on_c, 0, 69, 81
1, 101596, Note_off_c, 0, 69, 81
1, 101612, Note_on_c, 0, 69, 77
1, 101687, Note_off_c, 0, 69, 77
1, 101700, Note_on_c, 0, 74, 87
1, 101821, Note_off_c, 0, 74, 87
1, 101821, Note_on_c, 0, 70, 94
1, 101910, Note_off_c, 0, 70, 94
1, 101910, Note_on_c, 0, 67, 88
1, 101974, Note_off_c, 0, 67, 88
1, 101984, Note_on_c, 0, 67, 81
1, 102046, Note_off_c, 0, 67, 81
1, 102073, Note_on_c, 0, 72, 84
1, 102167, Note_off_c, 0, 72, 84
1, 102188, Note_on_c, 0, 69, 94
1, 102279, Note_off_c, 0, 69, 94
1, 102281, Note_on_c, 0, 67, 87
1, 102378, Note_off_c, 0, 67, 87
1, 102378, Note_on_c, 0, 64, 87
1, 102418, Note_off_c, 0, 64, 87
1, 102445, Note_on_c, 0, 68, 98
1, 102561, Note_off_c, 0, 68, 98
1, 102574, Note_on_c, 0, 67, 94
1, 102657, Note_off_c, 0, 67, 94
1, 103165, Note_on_c, 0, 68, 98
1, 103427, Note_off_c, 0, 68, 98
1, 103472, Note_on_c, 0, 65, 76
1, 103558, Note_off_c, 0, 65, 76
1, 103622, Note_on_c, 0, 67, 88
1, 103719, Note_off_c, 0, 67, 88
1, 103819, Note_on_c, 0, 65, 91
1, 103919, Note_off_c, 0, 65, 91
1, 104378, Note_on_c, 0, 67, 101
1, 104505, Note_off_c, 0, 67, 101
1, 104513, Note_on_c, 0, 68, 101
1, 104567, Note_off_c, 0, 68, 101
1, 104688, Note_on_c, 0, 68, 101
1, 104809, Note_off_c, 0, 68, 101
1, 104811, Note_on_c, 0, 67, 94
1, 104908, Note_off_c, 0, 67, 94
1, 104924, Note_on_c, 0, 68, 95
1, 105026, Note_off_c, 0, 68, 95
1, 105061, Note_on_c, 0, 64, 82
1, 105120, Note_off_c, 0, 64, 82
1, 105155, Note_on_c, 0, 67, 86
1, 105265, Note_off_c, 0, 67, 86
1, 105373, Note_on_c, 0, 68, 102
1, 105451, Note_off_c, 0, 68, 102
1, 105456, Note_on_c, 0, 67, 93
1, 105523, Note_off_c, 0, 67, 93
1, 105898, Note_on_c, 0, 67, 88
1, 106022, Note_off_c, 0, 67, 88
1, 106040, Note_on_c, 0, 66, 89
1, 106129, Note_off_c, 0, 66, 89
1, 106201, Note_on_c, 0, 67, 98
1, 106309, Note_off_c, 0, 67, 98
1, 106319, Note_on_c, 0, 66, 93
1, 106529, Note_off_c, 0, 66, 93
1, 106583, Note_on_c, 0, 65, 80
1, 106672, Note_off_c, 0, 65, 80
1, 106699, Note_on_c, 0, 67, 80
1, 106785, Note_off_c, 0, 67, 80
1, 106887, Note_on_c, 0, 68, 102
1, 106970, Note_off_c, 0, 68, 102
1, 106983, Note_on_c, 0, 67, 92
1, 107037, Note_off_c, 0, 67, 92
1, 107469, Note_on_c, 0, 69, 84
1, 107563, Note_off_c, 0, 69, 84
1, 107581, Note_on_c, 0, 65, 83
1, 107645, Note_off_c, 0, 65, 83
1, 107650, Note_on_c, 0, 70, 102
1, 107750, Note_off_c, 0, 70, 102
1, 107758, Note_on_c, 0, 67, 77
1, 107822, Note_off_c, 0, 67, 77
1, 107846, Note_on_c, 0, 71, 100
1, 107927, Note_off_c, 0, 71, 100
1, 107937, Note_on_c, 0, 68, 87
1, 108020, Note_off_c, 0, 68, 87
1, 108020, Note_on_c, 0, 72, 88
1, 108128, Note_off_c, 0, 72, 88
1, 108146, Note_on_c, 0, 69, 77
1, 108191, Note_off_c, 0, 69, 77
1, 108191, Note_on_c, 0, 73, 87
1, 108323, Note_off_c, 0, 73, 87
1, 108341, Note_on_c, 0, 74, 111
1, 108473, Note_off_c, 0, 74, 111
1, 108475, Note_on_c, 0, 75, 103
1, 108923, Note_off_c, 0, 75, 103
1, 108960, Note_on_c, 0, 68, 95
1, 109057, Note_off_c, 0, 68, 95
1, 109059, Note_on_c, 0, 67, 88
1, 109123, Note_off_c, 0, 67, 88
1, 109141, Note_on_c, 0, 68, 97
1, 109219, Note_off_c, 0, 68, 97
1, 109283, Note_on_c, 0, 76, 108
1, 109558, Note_off_c, 0, 76, 108
1, 109590, Note_on_c, 0, 69, 75
1, 109698, Note_off_c, 0, 69, 75
1, 109787, Note_on_c, 0, 69, 89
1, 109876, Note_off_c, 0, 69, 89
1, 110067, Note_on_c, 0, 77, 110
1, 110472, Note_off_c, 0, 77, 110
1, 110482, Note_on_c, 0, 78, 106
1, 110741, Note_off_c, 0, 78, 106
1, 110754, Note_on_c, 0, 77, 97
1, 110802, Note_off_c, 0, 77, 97
1, 110818, Note_on_c, 0, 76, 103
1, 110901, Note_off_c, 0, 76, 103
1, 110919, Note_on_c, 0, 75, 86
1, 110997, Note_off_c, 0, 75, 86
1, 111848, Note_on_c, 0, 62, 75
1, 111910, Note_off_c, 0, 62, 75
1, 111918, Note_on_c, 0, 64, 85
1, 111988, Note_off_c, 0, 64, 85
1, 111990, Note_on_c, 0, 65, 95
1, 112081, Note_off_c, 0, 65, 95
1, 112091, Note_on_c, 0, 66, 88
1, 112150, Note_off_c, 0, 66, 88
1, 112150, Note_on_c, 0, 64, 98
1, 112247, Note_off_c, 0, 64, 98
1, 112274, Note_on_c, 0, 65, 96
1, 112363, Note_off_c, 0, 65, 96
1, 112363, Note_on_c, 0, 62, 90
1, 112463, Note_off_c, 0, 62, 90
1, 112484, Note_on_c, 0, 64, 86
1, 112551, Note_off_c, 0, 64, 86
1, 112564, Note_on_c, 0, 66, 100
1, 112655, Note_off_c, 0, 66, 100
1, 112660, Note_on_c, 0, 67, 89
1, 112746, Note_off_c, 0, 67, 89
1, 112746, Note_on_c, 0, 69, 101
1, 112832, Note_off_c, 0, 69, 101
1, 112842, Note_on_c, 0, 70, 101
1, 112931, Note_off_c, 0, 70, 101
1, 112939, Note_on_c, 0, 71, 96
1, 113017, Note_off_c, 0, 71, 96
1, 113017, Note_on_c, 0, 72, 98
1, 113106, Note_off_c, 0, 72, 98
1, 113124, Note_on_c, 0, 73, 98
1, 113199, Note_off_c, 0, 73, 98
1, 113209, Note_on_c, 0, 74, 106
1, 113306, Note_off_c, 0, 74, 106
1, 113319, Note_on_c, 0, 75, 107
1, 113400, Note_off_c, 0, 75, 107
1, 113410, Note_on_c, 0, 72, 105
1, 113472, Note_off_c, 0, 72, 105
1, 113480, Note_on_c, 0, 73, 98
1, 113596, Note_off_c, 0, 73, 98
1, 113604, Note_on_c, 0, 71, 95
1, 113685, Note_off_c, 0, 71, 95
1, 113685, Note_on_c, 0, 72, 100
1, 113774, Note_off_c, 0, 72, 100
1, 113782, Note_on_c, 0, 71, 96
1, 113882, Note_off_c, 0, 71, 96
1, 113884, Note_on_c, 0, 70, 101
1, 113954, Note_off_c, 0, 70, 101
1, 113972, Note_on_c, 0, 69, 103
1, 114053, Note_off_c, 0, 69, 103
1, 114055, Note_on_c, 0, 67, 96
1, 114152, Note_off_c, 0, 67, 96
1, 114152, Note_on_c, 0, 69, 91
1, 114235, Note_off_c, 0, 69, 91
1, 114237, Note_on_c, 0, 70, 100
1, 114361, Note_off_c, 0, 70, 100
1, 114361, Note_on_c, 0, 69, 83
1, 114425, Note_off_c, 0, 69, 83
1, 114425, Note_on_c, 0, 73, 96
1, 114533, Note_on_c, 0, 71, 97
1, 114533, Note_off_c, 0, 73, 96
1, 114622, Note_off_c, 0, 71, 97
1, 114627, Note_on_c, 0, 72, 98
1, 114724, Note_off_c, 0, 72, 98
1, 114751, Note_on_c, 0, 71, 100
1, 114805, Note_off_c, 0, 71, 100
1, 114826, Note_on_c, 0, 70, 104
1, 114896, Note_off_c, 0, 70, 104
1, 114920, Note_on_c, 0, 69, 103
1, 115006, Note_off_c, 0, 69, 103
1, 115019, Note_on_c, 0, 68, 92
1, 115102, Note_off_c, 0, 68, 92
1, 115107, Note_on_c, 0, 64, 95
1, 115204, Note_off_c, 0, 64, 95
1, 115247, Note_on_c, 0, 60, 81
1, 115290, Note_off_c, 0, 60, 81
1, 115770, Note_on_c, 0, 67, 102
1, 115878, Note_on_c, 0, 64, 91
1, 115878, Note_off_c, 0, 67, 102
1, 115950, Note_off_c, 0, 64, 91
1, 115963, Note_on_c, 0, 65, 94
1, 116054, Note_off_c, 0, 65, 94
1, 116059, Note_on_c, 0, 67, 100
1, 116142, Note_off_c, 0, 67, 100
1, 116152, Note_on_c, 0, 68, 92
1, 116227, Note_off_c, 0, 68, 92
1, 116240, Note_on_c, 0, 70, 107
1, 116326, Note_off_c, 0, 70, 107
1, 116334, Note_on_c, 0, 67, 97
1, 116404, Note_off_c, 0, 67, 97
1, 116414, Note_on_c, 0, 68, 95
1, 116495, Note_off_c, 0, 68, 95
1, 116505, Note_on_c, 0, 69, 101
1, 116596, Note_off_c, 0, 69, 101
1, 116614, Note_on_c, 0, 70, 107
1, 116684, Note_off_c, 0, 70, 107
1, 116686, Note_on_c, 0, 72, 85
1, 116767, Note_off_c, 0, 72, 85
1, 116783, Note_on_c, 0, 74, 105
1, 116912, Note_off_c, 0, 74, 105
1, 117182, Note_on_c, 0, 76, 106
1, 117271, Note_off_c, 0, 76, 106
1, 117284, Note_on_c, 0, 77, 106
1, 117419, Note_off_c, 0, 77, 106
1, 117959, Note_on_c, 0, 79, 103
1, 118031, Note_off_c, 0, 79, 103
1, 118039, Note_on_c, 0, 80, 107
1, 118125, Note_off_c, 0, 80, 107
1, 118125, Note_on_c, 0, 76, 108
1, 118200, Note_off_c, 0, 76, 108
1, 118216, Note_on_c, 0, 79, 105
1, 118307, Note_off_c, 0, 79, 105
1, 118326, Note_on_c, 0, 74, 86
1, 118413, Note_off_c, 0, 74, 86
1, 118422, Note_on_c, 0, 77, 109
1, 118513, Note_off_c, 0, 77, 109
1, 118515, Note_on_c, 0, 70, 86
1, 118587, Note_off_c, 0, 70, 86
1, 118608, Note_on_c, 0, 76, 107
1, 118699, Note_off_c, 0, 76, 107
1, 118715, Note_on_c, 0, 70, 83
1, 118785, Note_off_c, 0, 70, 83
1, 118806, Note_on_c, 0, 76, 100
1, 118895, Note_off_c, 0, 76, 100
1, 118935, Note_on_c, 0, 68, 91
1, 118986, Note_on_c, 0, 74, 109
1, 118986, Note_off_c, 0, 68, 91
1, 119077, Note_off_c, 0, 74, 109
1, 119471, Note_on_c, 0, 73, 108
1, 119562, Note_off_c, 0, 73, 108
1, 119575, Note_on_c, 0, 72, 107
1, 119866, Note_off_c, 0, 72, 107
1, 119871, Note_on_c, 0, 71, 90
1, 119949, Note_off_c, 0, 71, 90
1, 119957, Note_on_c, 0, 72, 96
1, 120038, Note_off_c, 0, 72, 96
1, 120038, Note_on_c, 0, 70, 103
1, 120100, Note_off_c, 0, 70, 103
1, 120121, Note_on_c, 0, 71, 97
1, 120210, Note_off_c, 0, 71, 97
1, 120226, Note_on_c, 0, 69, 88
1, 120290, Note_off_c, 0, 69, 88
1, 120306, Note_on_c, 0, 70, 97
1, 120419, Note_off_c, 0, 70, 97
1, 120419, Note_on_c, 0, 68, 93
1, 120494, Note_off_c, 0, 68, 93
1, 120504, Note_on_c, 0, 69, 102
1, 120585, Note_off_c, 0, 69, 102
1, 120593, Note_on_c, 0, 67, 95
1, 120660, Note_off_c, 0, 67, 95
1, 120668, Note_on_c, 0, 68, 93
1, 120759, Note_off_c, 0, 68, 93
1, 120769, Note_on_c, 0, 69, 101
1, 120847, Note_off_c, 0, 69, 101
1, 120849, Note_on_c, 0, 67, 92
1, 120951, Note_off_c, 0, 67, 92
1, 120953, Note_on_c, 0, 68, 93
1, 121028, Note_off_c, 0, 68, 93
1, 121033, Note_on_c, 0, 69, 99
1, 121133, Note_off_c, 0, 69, 99
1, 121143, Note_on_c, 0, 70, 107
1, 121245, Note_off_c, 0, 70, 107
1, 121623, Note_on_c, 0, 75, 106
1, 121709, Note_off_c, 0, 75, 106
1, 121727, Note_on_c, 0, 68, 95
1, 121802, Note_off_c, 0, 68, 95
1, 122164, Note_on_c, 0, 68, 84
1, 122258, Note_off_c, 0, 68, 84
1, 122266, Note_on_c, 0, 67, 83
1, 122336, Note_off_c, 0, 67, 83
1, 122346, Note_on_c, 0, 68, 102
1, 122429, Note_off_c, 0, 68, 102
1, 122437, Note_on_c, 0, 70, 99
1, 122499, Note_off_c, 0, 70, 99
1, 122517, Note_on_c, 0, 71, 93
1, 122587, Note_off_c, 0, 71, 93
1, 122619, Note_on_c, 0, 72, 104
1, 122689, Note_off_c, 0, 72, 104
1, 122713, Note_on_c, 0, 73, 87
1, 122780, Note_off_c, 0, 73, 87
1, 122790, Note_on_c, 0, 74, 106
1, 122879, Note_off_c, 0, 74, 106
1, 122879, Note_on_c, 0, 75, 108
1, 122968, Note_off_c, 0, 75, 108
1, 122995, Note_on_c, 0, 76, 107
1, 123259, Note_off_c, 0, 76, 107
1, 123286, Note_on_c, 0, 77, 105
1, 123396, Note_off_c, 0, 77, 105
1, 123482, Note_on_c, 0, 78, 108
1, 123606, Note_off_c, 0, 78, 108
1, 126649, Note_on_c, 0, 79, 101
1, 126708, Note_off_c, 0, 79, 101
1, 126708, Note_on_c, 0, 80, 108
1, 126813, Note_off_c, 0, 80, 108
1, 126818, Note_on_c, 0, 79, 105
1, 126890, Note_off_c, 0, 79, 105
1, 126903, Note_on_c, 0, 80, 106
1, 127011, Note_off_c, 0, 80, 106
1, 127013, Note_on_c, 0, 79, 106
1, 127299, Note_off_c, 0, 79, 106
1, 127307, Note_on_c, 0, 80, 104
1, 127401, Note_off_c, 0, 80, 104
1, 127409, Note_on_c, 0, 79, 103
1, 127476, Note_off_c, 0, 79, 103
1, 127484, Note_on_c, 0, 80, 107
1, 127575, Note_off_c, 0, 80, 107
1, 127585, Note_on_c, 0, 79, 105
1, 128041, Note_off_c, 0, 79, 105
1, 128162, Note_on_c, 0, 77, 102
1, 128267, Note_off_c, 0, 77, 102
1, 128434, Note_on_c, 0, 88, 103
1, 128858, Note_off_c, 0, 88, 103
1, 128858, Note_on_c, 0, 86, 100
1, 128966, Note_off_c, 0, 86, 100
1, 128976, Note_on_c, 0, 85, 101
1, 129046, Note_off_c, 0, 85, 101
1, 129067, Note_on_c, 0, 82, 99
1, 129145, Note_off_c, 0, 82, 99
1, 129158, Note_on_c, 0, 81, 107
1, 129230, Note_off_c, 0, 81, 107
1, 129230, Note_on_c, 0, 79, 102
1, 129300, Note_off_c, 0, 79, 102
1, 129305, Note_on_c, 0, 77, 96
1, 129405, Note_off_c, 0, 77, 96
1, 129413, Note_on_c, 0, 76, 101
1, 129513, Note_off_c, 0, 76, 101
1, 129515, Note_on_c, 0, 75, 90
1, 129585, Note_off_c, 0, 75, 90
1, 130095, Note_on_c, 0, 73, 97
1, 130176, Note_off_c, 0, 73, 97
1, 130181, Note_on_c, 0, 71, 86
1, 130259, Note_off_c, 0, 71, 86
1, 130277, Note_on_c, 0, 72, 97
1, 130344, Note_off_c, 0, 72, 97
1, 130360, Note_on_c, 0, 74, 101
1, 130435, Note_off_c, 0, 74, 101
1, 130443, Note_on_c, 0, 75, 98
1, 130691, Note_off_c, 0, 75, 98
1, 130734, Note_on_c, 0, 77, 104
1, 130798, Note_off_c, 0, 77, 104
1, 130803, Note_on_c, 0, 79, 91
1, 130851, Note_off_c, 0, 79, 91
1, 130869, Note_on_c, 0, 80, 104
1, 130936, Note_off_c, 0, 80, 104
1, 130973, Note_on_c, 0, 83, 95
1, 131010, Note_off_c, 0, 83, 95
1, 131034, Note_on_c, 0, 84, 102
1, 131071, Note_off_c, 0, 84, 102
1, 131087, Note_on_c, 0, 86, 109
1, 131132, Note_off_c, 0, 86, 109
1, 131150, Note_on_c, 0, 87, 111
1, 131479, Note_off_c, 0, 87, 111
1, 131484, Note_on_c, 0, 85, 103
1, 131565, Note_off_c, 0, 85, 103
1, 131583, Note_on_c, 0, 84, 101
1, 131680, Note_off_c, 0, 84, 101
1, 131690, Note_on_c, 0, 82, 90
1, 131749, Note_off_c, 0, 82, 90
1, 131786, Note_on_c, 0, 81, 91
1, 131850, Note_off_c, 0, 81, 91
1, 131863, Note_on_c, 0, 79, 98
1, 131935, Note_off_c, 0, 79, 98
1, 131943, Note_on_c, 0, 77, 94
1, 132029, Note_off_c, 0, 77, 94
1, 132047, Note_on_c, 0, 76, 101
1, 132106, Note_off_c, 0, 76, 101
1, 132119, Note_on_c, 0, 75, 92
1, 132200, Note_off_c, 0, 75, 92
1, 132202, Note_on_c, 0, 72, 90
1, 132299, Note_off_c, 0, 72, 90
1, 132304, Note_on_c, 0, 73, 99
1, 132420, Note_off_c, 0, 73, 99
1, 132441, Note_on_c, 0, 71, 93
1, 132519, Note_off_c, 0, 71, 93
1, 132527, Note_on_c, 0, 72, 93
1, 132605, Note_off_c, 0, 72, 93
1, 132610, Note_on_c, 0, 71, 98
1, 132807, Note_off_c, 0, 71, 98
1, 132823, Note_on_c, 0, 70, 81
1, 133041, Note_off_c, 0, 70, 81
1, 133081, Note_on_c, 0, 70, 96
1, 133175, Note_off_c, 0, 70, 96
1, 133183, Note_on_c, 0, 65, 86
1, 133274, Note_off_c, 0, 65, 86
1, 133295, Note_on_c, 0, 71, 92
1, 133589, Note_off_c, 0, 71, 92
1, 133607, Note_on_c, 0, 72, 99
1, 133777, Note_off_c, 0, 72, 99
1, 133779, Note_on_c, 0, 71, 96
1, 133922, Note_off_c, 0, 71, 96
1, 134040, Note_on_c, 0, 72, 101
1, 134121, Note_off_c, 0, 72, 101
1, 134126, Note_on_c, 0, 73, 100
1, 134204, Note_off_c, 0, 73, 100
1, 134225, Note_on_c, 0, 72, 98
1, 134395, Note_off_c, 0, 72, 98
1, 134559, Note_on_c, 0, 75, 87
1, 134621, Note_off_c, 0, 75, 87
1, 134637, Note_on_c, 0, 70, 89
1, 134707, Note_off_c, 0, 70, 89
1, 134755, Note_on_c, 0, 72, 98
1, 134822, Note_off_c, 0, 72, 98
1, 135873, Note_on_c, 0, 67, 81
1, 135943, Note_off_c, 0, 67, 81
1, 135948, Note_on_c, 0, 68, 95
1, 136031, Note_off_c, 0, 68, 95
1, 136036, Note_on_c, 0, 70, 96
1, 136117, Note_off_c, 0, 70, 96
1, 136130, Note_on_c, 0, 71, 91
1, 136208, Note_off_c, 0, 71, 91
1, 136218, Note_on_c, 0, 72, 99
1, 136296, Note_off_c, 0, 72, 99
1, 136298, Note_on_c, 0, 73, 94
1, 136387, Note_off_c, 0, 73, 94
1, 136405, Note_on_c, 0, 74, 106
1, 136475, Note_off_c, 0, 74, 106
1, 136493, Note_on_c, 0, 76, 105
1, 136582, Note_off_c, 0, 76, 105
1, 136587, Note_on_c, 0, 77, 107
1, 136662, Note_off_c, 0, 77, 107
1, 136670, Note_on_c, 0, 79, 105
1, 136745, Note_off_c, 0, 79, 105
1, 136745, Note_on_c, 0, 81, 108
1, 136869, Note_off_c, 0, 81, 108
1, 136877, Note_on_c, 0, 79, 104
1, 136963, Note_on_c, 0, 78, 99
1, 136963, Note_off_c, 0, 79, 104
1, 137068, Note_off_c, 0, 78, 99
1, 137068, Note_on_c, 0, 77, 107
1, 137154, Note_off_c, 0, 77, 107
1, 137154, Note_on_c, 0, 76, 107
1, 137221, Note_off_c, 0, 76, 107
1, 137231, Note_on_c, 0, 74, 87
1, 137312, Note_off_c, 0, 74, 87
1, 137320, Note_on_c, 0, 73, 101
1, 137411, Note_off_c, 0, 73, 101
1, 137435, Note_on_c, 0, 72, 98
1, 137516, Note_off_c, 0, 72, 98
1, 137518, Note_on_c, 0, 70, 93
1, 137604, Note_off_c, 0, 70, 93
1, 137604, Note_on_c, 0, 69, 88
1, 137682, Note_off_c, 0, 69, 88
1, 137706, Note_on_c, 0, 70, 82
1, 137781, Note_off_c, 0, 70, 82
1, 137781, Note_on_c, 0, 67, 91
1, 137872, Note_off_c, 0, 67, 91
1, 137901, Note_on_c, 0, 69, 85
1, 137984, Note_off_c, 0, 69, 85
1, 137984, Note_on_c, 0, 70, 90
1, 138075, Note_on_c, 0, 72, 96
1, 138075, Note_off_c, 0, 70, 90
1, 138153, Note_off_c, 0, 72, 96
1, 138158, Note_on_c, 0, 73, 98
1, 138274, Note_off_c, 0, 73, 98
1, 138274, Note_on_c, 0, 74, 92
1, 138368, Note_off_c, 0, 74, 92
1, 138373, Note_on_c, 0, 72, 92
1, 138443, Note_off_c, 0, 72, 92
1, 138443, Note_on_c, 0, 67, 92
1, 138529, Note_off_c, 0, 67, 92
1, 138542, Note_on_c, 0, 70, 86
1, 138639, Note_off_c, 0, 70, 86
1, 139111, Note_on_c, 0, 71, 95
1, 139254, Note_off_c, 0, 71, 95
1, 139256, Note_on_c, 0, 70, 102
1, 139301, Note_off_c, 0, 70, 102
1, 139306, Note_on_c, 0, 71, 100
1, 139408, Note_off_c, 0, 71, 100
1, 139429, Note_on_c, 0, 70, 99
1, 139896, Note_off_c, 0, 70, 99
1, 139931, Note_on_c, 0, 70, 97
1, 140106, Note_off_c, 0, 70, 97
1, 140162, Note_on_c, 0, 70, 94
1, 140659, Note_off_c, 0, 70, 94
1, 140680, Note_on_c, 0, 68, 86
1, 140752, Note_off_c, 0, 68, 86
1, 140848, Note_on_c, 0, 68, 87
1, 141087, Note_off_c, 0, 68, 87
1, 141478, Note_on_c, 0, 68, 80
1, 141575, Note_off_c, 0, 68, 80
1, 141634, Note_on_c, 0, 68, 92
1, 141723, Note_off_c, 0, 68, 92
1, 141736, Note_on_c, 0, 70, 95
1, 141825, Note_off_c, 0, 70, 95
1, 141849, Note_on_c, 0, 71, 100
1, 142097, Note_off_c, 0, 71, 100
1, 142105, Note_on_c, 0, 70, 91
1, 142529, Note_off_c, 0, 70, 91
1, 142593, Note_on_c, 0, 70, 99
1, 142722, Note_on_c, 0, 69, 90
1, 142722, Note_off_c, 0, 70, 99
1, 142805, Note_off_c, 0, 69, 90
1, 142899, Note_on_c, 0, 70, 92
1, 143101, Note_off_c, 0, 70, 92
1, 143160, Note_on_c, 0, 70, 91
1, 143495, Note_off_c, 0, 70, 91
1, 143684, Note_on_c, 0, 68, 92
1, 143751, Note_off_c, 0, 68, 92
1, 143837, Note_on_c, 0, 67, 85
1, 144065, Note_off_c, 0, 67, 85
1, 144798, Note_on_c, 0, 62, 66
1, 144881, Note_off_c, 0, 62, 66
1, 144883, Note_on_c, 0, 63, 77
1, 144974, Note_off_c, 0, 63, 77
1, 144992, Note_on_c, 0, 64, 88
1, 145083, Note_off_c, 0, 64, 88
1, 145083, Note_on_c, 0, 65, 87
1, 145172, Note_off_c, 0, 65, 87
1, 145172, Note_on_c, 0, 67, 76
1, 145266, Note_off_c, 0, 67, 76
1, 145271, Note_on_c, 0, 69, 86
1, 145360, Note_off_c, 0, 69, 86
1, 145360, Note_on_c, 0, 70, 101
1, 145478, Note_off_c, 0, 70, 101
1, 145478, Note_on_c, 0, 68, 94
1, 145569, Note_off_c, 0, 68, 94
1, 145569, Note_on_c, 0, 69, 99
1, 145663, Note_off_c, 0, 69, 99
1, 145671, Note_on_c, 0, 67, 89
1, 145733, Note_off_c, 0, 67, 89
1, 145735, Note_on_c, 0, 68, 98
1, 145816, Note_off_c, 0, 68, 98
1, 145821, Note_on_c, 0, 70, 99
1, 145907, Note_off_c, 0, 70, 99
1, 145917, Note_on_c, 0, 71, 94
1, 146000, Note_off_c, 0, 71, 94
1, 146016, Note_on_c, 0, 72, 99
1, 146099, Note_off_c, 0, 72, 99
1, 146099, Note_on_c, 0, 73, 97
1, 146166, Note_off_c, 0, 73, 97
1, 146166, Note_on_c, 0, 74, 102
1, 146271, Note_off_c, 0, 74, 102
1, 146279, Note_on_c, 0, 75, 99
1, 146373, Note_off_c, 0, 75, 99
1, 146373, Note_on_c, 0, 72, 100
1, 146454, Note_off_c, 0, 72, 100
1, 146470, Note_on_c, 0, 73, 96
1, 146575, Note_off_c, 0, 73, 96
1, 146577, Note_on_c, 0, 71, 94
1, 146663, Note_off_c, 0, 71, 94
1, 146665, Note_on_c, 0, 72, 102
1, 146732, Note_off_c, 0, 72, 102
1, 146737, Note_on_c, 0, 71, 101
1, 146812, Note_off_c, 0, 71, 101
1, 146822, Note_on_c, 0, 70, 90
1, 146927, Note_off_c, 0, 70, 90
1, 146935, Note_on_c, 0, 69, 97
1, 147029, Note_off_c, 0, 69, 97
1, 147039, Note_on_c, 0, 67, 89
1, 147130, Note_off_c, 0, 67, 89
1, 147135, Note_on_c, 0, 69, 91
1, 147213, Note_off_c, 0, 69, 91
1, 147213, Note_on_c, 0, 70, 94
1, 147318, Note_off_c, 0, 70, 94
1, 147320, Note_on_c, 0, 72, 94
1, 147406, Note_off_c, 0, 72, 94
1, 147406, Note_on_c, 0, 74, 85
1, 147465, Note_off_c, 0, 74, 85
1, 147465, Note_on_c, 0, 77, 113
1, 147575, Note_off_c, 0, 77, 113
1, 147583, Note_on_c, 0, 76, 106
1, 147658, Note_off_c, 0, 76, 106
1, 147666, Note_on_c, 0, 77, 113
1, 147766, Note_off_c, 0, 77, 113
1, 147784, Note_on_c, 0, 79, 105
1, 147865, Note_off_c, 0, 79, 105
1, 147883, Note_on_c, 0, 79, 114
1, 147939, Note_off_c, 0, 79, 114
1, 147971, Note_on_c, 0, 79, 112
1, 148057, Note_off_c, 0, 79, 112
1, 148338, Note_on_c, 0, 81, 109
1, 148497, Note_off_c, 0, 81, 109
1, 148505, Note_on_c, 0, 80, 108
1, 148791, Note_off_c, 0, 80, 108
1, 148815, Note_on_c, 0, 76, 98
1, 148920, Note_off_c, 0, 76, 98
1, 148933, Note_on_c, 0, 73, 74
1, 148995, Note_off_c, 0, 73, 74
1, 149019, Note_on_c, 0, 69, 99
1, 149097, Note_off_c, 0, 69, 99
1, 149110, Note_on_c, 0, 71, 83
1, 149196, Note_off_c, 0, 71, 83
1, 149204, Note_on_c, 0, 68, 85
1, 149276, Note_off_c, 0, 68, 85
1, 149289, Note_on_c, 0, 70, 94
1, 149380, Note_off_c, 0, 70, 94
1, 149388, Note_on_c, 0, 69, 98
1, 149455, Note_off_c, 0, 69, 98
1, 149465, Note_on_c, 0, 68, 93
1, 149554, Note_off_c, 0, 68, 93
1, 149562, Note_on_c, 0, 63, 96
1, 149656, Note_off_c, 0, 63, 96
1, 149658, Note_on_c, 0, 61, 78
1, 149736, Note_off_c, 0, 61, 78
1, 149747, Note_on_c, 0, 58, 82
1, 149853, Note_off_c, 0, 58, 82
1, 150394, Note_on_c, 0, 67, 83
1, 150502, Note_off_c, 0, 67, 83
1, 150504, Note_on_c, 0, 64, 85
1, 150587, Note_off_c, 0, 64, 85
1, 150592, Note_on_c, 0, 65, 85
1, 150659, Note_off_c, 0, 65, 85
1, 150677, Note_on_c, 0, 67, 90
1, 150771, Note_off_c, 0, 67, 90
1, 150771, Note_on_c, 0, 69, 92
1, 150857, Note_off_c, 0, 69, 92
1, 151189, Note_on_c, 0, 68, 89
1, 151291, Note_off_c, 0, 68, 89
1, 151474, Note_on_c, 0, 68, 85
1, 151876, Note_off_c, 0, 68, 85
1, 151889, Note_on_c, 0, 64, 76
1, 152207, Note_off_c, 0, 64, 76
1, 152215, Note_on_c, 0, 67, 92
1, 152315, Note_off_c, 0, 67, 92
1, 152336, Note_on_c, 0, 66, 81
1, 152446, Note_off_c, 0, 66, 81
1, 152446, End_track
0, 0, End_of_file
