0, 0, Header, 1, 1, 192
1, 0, Start_track
1, 0, Title_t, "Melody"
1, 0, Tempo, 431654
1, 0, Key_signature, 2, "major"
1, 0, Time_signature, 4, 2, 24, 8
1, 1396, Note_on_c, 0, 74, 115
1, 1672, Note_off_c, 0, 74, 115
1, 1682, Note_on_c, 0, 72, 89
1, 1777, Note_off_c, 0, 72, 89
1, 1777, Note_on_c, 0, 62, 88
1, 2032, Note_off_c, 0, 62, 88
1, 2658, Note_on_c, 0, 62, 66
1, 2717, Note_off_c, 0, 62, 66
1, 2867, Note_on_c, 0, 69, 105
1, 2947, Note_off_c, 0, 69, 105
1, 2967, Note_on_c, 0, 67, 94
1, 3212, Note_off_c, 0, 67, 94
1, 3242, Note_on_c, 0, 69, 101
1, 3291, Note_off_c, 0, 69, 101
1, 3323, Note_on_c, 0, 62, 87
1, 3407, Note_off_c, 0, 62, 87
1, 3446, Note_on_c, 0, 62, 80
1, 3503, Note_off_c, 0, 62, 80
1, 4175, Note_on_c, 0, 62, 79
1, 4268, Note_off_c, 0, 62, 79
1, 4269, Note_on_c, 0, 65, 91
1, 4359, Note_off_c, 0, 65, 91
1, 4394, Note_on_c, 0, 69, 112
1, 4484, Note_off_c, 0, 69, 112
1, 4491, Note_on_c, 0, 67, 107
1, 4620, Note_off_c, 0, 67, 107
1, 4657, Note_on_c, 0, 69, 114
1, 4762, Note_off_c, 0, 69, 114
1, 4812, Note_on_c, 0, 62, 96
1, 4891, Note_off_c, 0, 62, 96
1, 4930, Note_on_c, 0, 62, 88
1, 4958, Note_off_c, 0, 62, 88
1, 5042, Note_on_c, 0, 65, 102
1, 5132, Note_off_c, 0, 65, 102
1, 5161, Note_on_c, 0, 69, 114
1, 5259, Note_off_c, 0, 69, 114
1, 5262, Note_on_c, 0, 67, 106
1, 5409, Note_off_c, 0, 67, 106
1, 5450, Note_on_c, 0, 69, 106
1, 5535, Note_off_c, 0, 69, 106
1, 5664, Note_on_c, 0, 72, 106
1, 5901, Note_off_c, 0, 72, 106
1, 5913, Note_on_c, 0, 71, 88
1, 6016, Note_off_c, 0, 71, 88
1, 6047, Note_on_c, 0, 72, 105
1, 6155, Note_off_c, 0, 72, 105
1, 6187, Note_on_c, 0, 71, 97
1, 6256, Note_off_c, 0, 71, 97
1, 6320, Note_on_c, 0, 69, 107
1, 6539, Note_off_c, 0, 69, 107
1, 6580, Note_on_c, 0, 65, 95
1, 6678, Note_off_c, 0, 65, 95
1, 6696, Note_on_c, 0, 69, 106
1, 6763, Note_off_c, 0, 69, 106
1, 6764, Note_on_c, 0, 67, 97
1, 6875, Note_off_c, 0, 67, 97
1, 6880, Note_on_c, 0, 69, 107
1, 6926, Note_off_c, 0, 69, 107
1, 6970, Note_on_c, 0, 62, 87
1, 7027, Note_off_c, 0, 62, 87
1, 7067, Note_on_c, 0, 62, 86
1, 7137, Note_off_c, 0, 62, 86
1, 7501, Note_on_c, 0, 74, 117
1, 7624, Note_off_c, 0, 74, 117
1, 7636, Note_on_c, 0, 74, 114
1, 7700, Note_off_c, 0, 74, 114
1, 7732, Note_on_c, 0, 74, 107
1, 7822, Note_off_c, 0, 74, 107
1, 7822, Note_on_c, 0, 74, 108
1, 7970, Note_off_c, 0, 74, 108
1, 8849, Note_on_c, 0, 74, 111
1, 8983, Note_off_c, 0, 74, 111
1, 9052, Note_on_c, 0, 77, 119
1, 9369, Note_off_c, 0, 77, 119
1, 9380, Note_on_c, 0, 74, 117
1, 9480, Note_off_c, 0, 74, 117
1, 9524, Note_on_c, 0, 69, 91
1, 9600, Note_off_c, 0, 69, 91
1, 9647, Note_on_c, 0, 67, 107
1, 9763, Note_off_c, 0, 67, 107
1, 9846, Note_on_c, 0, 65, 82
1, 9913, Note_off_c, 0, 65, 82
1, 9966, Note_on_c, 0, 65, 81
1, 10093, Note_off_c, 0, 65, 81
1, 11293, Note_on_c, 0, 64, 103
1, 11391, Note_off_c, 0, 64, 103
1, 11391, Note_on_c, 0, 65, 105
1, 11478, Note_off_c, 0, 65, 105
1, 11495, Note_on_c, 0, 67, 116
1, 11564, Note_off_c, 0, 67, 116
1, 11574, Note_on_c, 0, 69, 105
1, 11669, Note_off_c, 0, 69, 105
1, 11671, Note_on_c, 0, 73, 119
1, 11771, Note_off_c, 0, 73, 119
1, 11786, Note_on_c, 0, 74, 121
1, 11922, Note_off_c, 0, 74, 121
1, 11930, Note_on_c, 0, 76, 109
1, 12074, Note_off_c, 0, 76, 109
1, 12074, Note_on_c, 0, 79, 115
1, 12164, Note_off_c, 0, 79, 115
1, 12164, Note_on_c, 0, 76, 120
1, 12424, Note_off_c, 0, 76, 120
1, 12441, Note_on_c, 0, 74, 110
1, 12518, Note_off_c, 0, 74, 110
1, 12550, Note_on_c, 0, 72, 88
1, 12615, Note_off_c, 0, 72, 88
1, 12640, Note_on_c, 0, 69, 100
1, 12701, Note_off_c, 0, 69, 100
1, 12711, Note_on_c, 0, 67, 106
1, 12809, Note_off_c, 0, 67, 106
1, 12899, Note_on_c, 0, 62, 88
1, 12977, Note_off_c, 0, 62, 88
1, 13017, Note_on_c, 0, 62, 92
1, 13081, Note_off_c, 0, 62, 92
1, 14231, Note_on_c, 0, 56, 92
1, 14370, Note_off_c, 0, 56, 92
1, 14453, Note_on_c, 0, 63, 85
1, 14527, Note_off_c, 0, 63, 85
1, 14546, Note_on_c, 0, 61, 79
1, 14604, Note_off_c, 0, 61, 79
1, 14615, Note_on_c, 0, 65, 95
1, 14697, Note_off_c, 0, 65, 95
1, 14730, Note_on_c, 0, 68, 112
1, 14815, Note_off_c, 0, 68, 112
1, 14838, Note_on_c, 0, 66, 92
1, 14932, Note_off_c, 0, 66, 92
1, 14932, Note_on_c, 0, 70, 104
1, 15019, Note_off_c, 0, 70, 104
1, 15021, Note_on_c, 0, 72, 99
1, 15116, Note_off_c, 0, 72, 99
1, 15125, Note_on_c, 0, 73, 110
1, 15197, Note_off_c, 0, 73, 110
1, 15197, Note_on_c, 0, 75, 111
1, 15354, Note_off_c, 0, 75, 111
1, 15370, Note_on_c, 0, 72, 97
1, 15481, Note_off_c, 0, 72, 97
1, 15501, Note_on_c, 0, 70, 98
1, 15924, Note_off_c, 0, 70, 98
1, 15953, Note_on_c, 0, 70, 107
1, 16097, Note_off_c, 0, 70, 107
1, 16144, Note_on_c, 0, 68, 94
1, 16301, Note_off_c, 0, 68, 94
1, 16550, Note_on_c, 0, 66, 97
1, 16681, Note_off_c, 0, 66, 97
1, 16738, Note_on_c, 0, 65, 88
1, 16846, Note_off_c, 0, 65, 88
1, 16861, Note_on_c, 0, 68, 110
1, 16959, Note_off_c, 0, 68, 110
1, 17144, Note_on_c, 0, 63, 90
1, 17252, Note_off_c, 0, 63, 90
1, 17252, Note_on_c, 0, 63, 82
1, 17399, Note_off_c, 0, 63, 82
1, 18021, Note_on_c, 0, 56, 90
1, 18082, Note_off_c, 0, 56, 90
1, 18111, Note_on_c, 0, 58, 109
1, 18193, Note_off_c, 0, 58, 109
1, 18216, Note_on_c, 0, 61, 105
1, 18296, Note_off_c, 0, 61, 105
1, 18303, Note_on_c, 0, 63, 106
1, 18393, Note_off_c, 0, 63, 106
1, 18413, Note_on_c, 0, 65, 116
1, 18472, Note_off_c, 0, 65, 116
1, 18487, Note_on_c, 0, 66, 113
1, 18569, Note_off_c, 0, 66, 113
1, 18584, Note_on_c, 0, 68, 117
1, 18682, Note_off_c, 0, 68, 117
1, 18682, Note_on_c, 0, 70, 115
1, 18769, Note_off_c, 0, 70, 115
1, 18784, Note_on_c, 0, 73, 112
1, 18858, Note_off_c, 0, 73, 112
1, 18863, Note_on_c, 0, 74, 113
1, 18961, Note_off_c, 0, 74, 113
1, 19059, Note_on_c, 0, 80, 121
1, 19244, Note_off_c, 0, 80, 121
1, 19289, Note_on_c, 0, 74, 91
1, 19387, Note_off_c, 0, 74, 91
1, 19393, Note_on_c, 0, 73, 109
1, 19444, Note_off_c, 0, 73, 109
1, 19487, Note_on_c, 0, 72, 113
1, 19598, Note_off_c, 0, 72, 113
1, 19618, Note_on_c, 0, 70, 116
1, 19734, Note_off_c, 0, 70, 116
1, 19736, Note_on_c, 0, 68, 113
1, 19790, Note_off_c, 0, 68, 113
1, 19804, Note_on_c, 0, 67, 112
1, 19909, Note_off_c, 0, 67, 112
1, 19917, Note_on_c, 0, 69, 111
1, 19999, Note_off_c, 0, 69, 111
1, 20001, Note_on_c, 0, 73, 117
1, 20114, Note_off_c, 0, 73, 117
1, 20114, Note_on_c, 0, 74, 120
1, 20196, Note_off_c, 0, 74, 120
1, 20208, Note_on_c, 0, 69, 102
1, 20313, Note_off_c, 0, 69, 102
1, 20383, Note_on_c, 0, 69, 91
1, 20571, Note_off_c, 0, 69, 91
1, 21391, Note_on_c, 0, 74, 118
1, 21483, Note_off_c, 0, 74, 118
1, 21501, Note_on_c, 0, 69, 105
1, 21568, Note_off_c, 0, 69, 105
1, 21586, Note_on_c, 0, 62, 86
1, 21691, Note_off_c, 0, 62, 86
1, 21714, Note_on_c, 0, 65, 89
1, 21910, Note_off_c, 0, 65, 89
1, 21962, Note_on_c, 0, 69, 104
1, 22088, Note_off_c, 0, 69, 104
1, 23076, Note_on_c, 0, 74, 115
1, 23163, Note_off_c, 0, 74, 115
1, 23224, Note_on_c, 0, 74, 105
1, 23568, Note_off_c, 0, 74, 105
1, 24098, Note_on_c, 0, 74, 125
1, 24108, Note_off_c, 0, 74, 125
1, 24110, Note_on_c, 0, 74, 121
1, 24221, Note_off_c, 0, 74, 121
1, 24278, Note_on_c, 0, 77, 119
1, 24593, Note_off_c, 0, 77, 119
1, 24673, Note_on_c, 0, 76, 109
1, 24794, Note_off_c, 0, 76, 109
1, 24803, Note_on_c, 0, 74, 116
1, 24880, Note_off_c, 0, 74, 116
1, 24918, Note_on_c, 0, 69, 103
1, 24990, Note_off_c, 0, 69, 103
1, 25066, Note_on_c, 0, 69, 93
1, 25285, Note_off_c, 0, 69, 93
1, 26013, Note_on_c, 0, 79, 127
1, 26031, Note_off_c, 0, 79, 127
1, 26033, Note_on_c, 0, 79, 114
1, 26329, Note_off_c, 0, 79, 114
1, 26339, Note_on_c, 0, 76, 10
1, 27369, Note_off_c, 0, 76, 10
1, 27369, Note_on_c, 0, 76, 108
1, 27480, Note_off_c, 0, 76, 108
1, 27499, Note_on_c, 0, 72, 98
1, 27578, Note_off_c, 0, 72, 98
1, 27592, Note_on_c, 0, 76, 113
1, 27726, Note_off_c, 0, 76, 113
1, 27769, Note_on_c, 0, 79, 106
1, 27890, Note_off_c, 0, 79, 106
1, 27954, Note_on_c, 0, 76, 109
1, 28258, Note_off_c, 0, 76, 109
1, 28268, Note_on_c, 0, 72, 105
1, 28363, Note_off_c, 0, 72, 105
1, 28414, Note_on_c, 0, 72, 100
1, 29105, Note_off_c, 0, 72, 100
1, 29105, Note_on_c, 0, 67, 99
1, 29414, Note_off_c, 0, 67, 99
1, 29426, Note_on_c, 0, 64, 90
1, 29832, Note_off_c, 0, 64, 90
1, 30453, Note_on_c, 0, 72, 107
1, 30582, Note_off_c, 0, 72, 107
1, 30636, Note_on_c, 0, 76, 121
1, 30938, Note_off_c, 0, 76, 121
1, 30956, Note_on_c, 0, 72, 103
1, 31024, Note_off_c, 0, 72, 103
1, 31054, Note_on_c, 0, 76, 125
1, 31159, Note_off_c, 0, 76, 125
1, 31167, Note_on_c, 0, 79, 114
1, 31225, Note_off_c, 0, 79, 114
1, 31230, Note_on_c, 0, 76, 118
1, 31346, Note_off_c, 0, 76, 118
1, 31358, Note_on_c, 0, 72, 99
1, 31605, Note_off_c, 0, 72, 99
1, 31625, Note_on_c, 0, 69, 105
1, 31849, Note_off_c, 0, 69, 105
1, 31978, Note_on_c, 0, 65, 98
1, 32083, Note_off_c, 0, 65, 98
1, 32119, Note_on_c, 0, 69, 112
1, 32467, Note_off_c, 0, 69, 112
1, 32559, Note_on_c, 0, 74, 109
1, 32651, Note_off_c, 0, 74, 109
1, 32687, Note_on_c, 0, 68, 102
1, 32795, Note_off_c, 0, 68, 102
1, 32795, Note_on_c, 0, 67, 99
1, 32875, Note_off_c, 0, 67, 99
1, 32963, Note_on_c, 0, 65, 91
1, 33082, Note_off_c, 0, 65, 91
1, 33140, Note_on_c, 0, 65, 86
1, 33256, Note_off_c, 0, 65, 86
1, 33894, Note_on_c, 0, 62, 79
1, 33938, Note_off_c, 0, 62, 79
1, 33941, Note_on_c, 0, 65, 96
1, 34008, Note_off_c, 0, 65, 96
1, 34044, Note_on_c, 0, 69, 110
1, 34103, Note_off_c, 0, 69, 110
1, 34167, Note_on_c, 0, 73, 104
1, 34177, Note_off_c, 0, 73, 104
1, 34195, Note_on_c, 0, 74, 117
1, 34246, Note_off_c, 0, 74, 117
1, 34300, Note_on_c, 0, 69, 97
1, 34400, Note_off_c, 0, 69, 97
1, 34477, Note_on_c, 0, 67, 99
1, 34610, Note_off_c, 0, 67, 99
1, 34610, Note_on_c, 0, 67, 99
1, 34723, Note_off_c, 0, 67, 99
1, 35882, Note_on_c, 0, 62, 88
1, 35931, Note_off_c, 0, 62, 88
1, 35974, Note_on_c, 0, 69, 117
1, 36054, Note_off_c, 0, 69, 117
1, 36079, Note_on_c, 0, 67, 102
1, 36156, Note_off_c, 0, 67, 102
1, 36217, Note_on_c, 0, 69, 110
1, 36322, Note_off_c, 0, 69, 110
1, 36386, Note_on_c, 0, 62, 89
1, 36466, Note_off_c, 0, 62, 89
1, 36518, Note_on_c, 0, 62, 90
1, 36552, Note_off_c, 0, 62, 90
1, 36614, Note_on_c, 0, 65, 101
1, 36696, Note_off_c, 0, 65, 101
1, 36726, Note_on_c, 0, 69, 122
1, 36795, Note_off_c, 0, 69, 122
1, 36810, Note_on_c, 0, 67, 109
1, 36905, Note_off_c, 0, 67, 109
1, 36905, Note_on_c, 0, 68, 100
1, 36923, Note_off_c, 0, 68, 100
1, 36925, Note_on_c, 0, 69, 119
1, 37105, Note_off_c, 0, 69, 119
1, 37109, Note_on_c, 0, 62, 88
1, 37156, Note_off_c, 0, 62, 88
1, 37192, Note_on_c, 0, 72, 119
1, 37313, Note_off_c, 0, 72, 119
1, 37315, Note_on_c, 0, 71, 107
1, 37343, Note_off_c, 0, 71, 107
1, 37350, Note_on_c, 0, 72, 108
1, 37502, Note_off_c, 0, 72, 108
1, 37502, Note_on_c, 0, 71, 107
1, 37592, Note_off_c, 0, 71, 107
1, 37597, Note_on_c, 0, 69, 106
1, 37695, Note_off_c, 0, 69, 106
1, 37696, Note_on_c, 0, 69, 104
1, 37928, Note_off_c, 0, 69, 104
1, 38504, Note_on_c, 0, 80, 118
1, 38999, Note_off_c, 0, 80, 118
1, 39011, Note_on_c, 0, 77, 116
1, 39083, Note_off_c, 0, 77, 116
1, 39114, Note_on_c, 0, 73, 117
1, 39738, Note_off_c, 0, 73, 117
1, 39799, Note_on_c, 0, 70, 108
1, 39853, Note_off_c, 0, 70, 108
1, 39894, Note_on_c, 0, 68, 106
1, 39997, Note_off_c, 0, 68, 106
1, 40053, Note_on_c, 0, 66, 91
1, 40138, Note_off_c, 0, 66, 91
1, 40212, Note_on_c, 0, 65, 93
1, 40323, Note_off_c, 0, 65, 93
1, 40431, Note_on_c, 0, 63, 81
1, 40567, Note_off_c, 0, 63, 81
1, 40575, Note_on_c, 0, 63, 83
1, 40777, Note_off_c, 0, 63, 83
1, 40789, Note_on_c, 0, 61, 82
1, 40843, Note_off_c, 0, 61, 82
1, 41697, Note_on_c, 0, 65, 106
1, 41758, Note_off_c, 0, 65, 106
1, 41770, Note_on_c, 0, 63, 93
1, 41821, Note_off_c, 0, 63, 93
1, 41872, Note_on_c, 0, 66, 111
1, 41936, Note_off_c, 0, 66, 111
1, 41956, Note_on_c, 0, 65, 85
1, 42005, Note_off_c, 0, 65, 85
1, 42069, Note_on_c, 0, 68, 116
1, 42167, Note_off_c, 0, 68, 116
1, 42169, Note_on_c, 0, 66, 105
1, 42406, Note_off_c, 0, 66, 105
1, 42462, Note_on_c, 0, 70, 112
1, 42511, Note_off_c, 0, 70, 112
1, 42531, Note_on_c, 0, 68, 104
1, 42572, Note_off_c, 0, 68, 104
1, 42590, Note_on_c, 0, 72, 109
1, 42620, Note_off_c, 0, 72, 109
1, 42650, Note_on_c, 0, 70, 100
1, 42923, Note_off_c, 0, 70, 100
1, 43030, Note_on_c, 0, 73, 107
1, 43112, Note_off_c, 0, 73, 107
1, 43229, Note_on_c, 0, 75, 117
1, 43275, Note_off_c, 0, 75, 117
1, 43310, Note_on_c, 0, 72, 98
1, 43464, Note_off_c, 0, 72, 98
1, 43474, Note_on_c, 0, 68, 81
1, 43585, Note_off_c, 0, 68, 81
1, 44452, Note_on_c, 0, 74, 120
1, 44534, Note_off_c, 0, 74, 120
1, 44552, Note_on_c, 0, 76, 118
1, 44629, Note_off_c, 0, 76, 118
1, 44649, Note_on_c, 0, 77, 112
1, 44721, Note_off_c, 0, 77, 112
1, 44744, Note_on_c, 0, 79, 115
1, 45193, Note_off_c, 0, 79, 115
1, 45195, Note_on_c, 0, 76, 122
1, 45967, Note_off_c, 0, 76, 122
1, 45997, Note_on_c, 0, 72, 111
1, 46301, Note_off_c, 0, 72, 111
1, 46307, Note_on_c, 0, 69, 99
1, 46371, Note_off_c, 0, 69, 99
1, 46400, Note_on_c, 0, 72, 110
1, 46464, Note_off_c, 0, 72, 110
1, 46490, Note_on_c, 0, 76, 113
1, 46562, Note_off_c, 0, 76, 113
1, 46567, Note_on_c, 0, 79, 101
1, 46670, Note_off_c, 0, 79, 101
1, 46717, Note_on_c, 0, 76, 117
1, 47096, Note_off_c, 0, 76, 117
1, 47147, Note_on_c, 0, 72, 101
1, 47283, Note_off_c, 0, 72, 101
1, 47334, Note_on_c, 0, 74, 116
1, 47455, Note_off_c, 0, 74, 116
1, 47460, Note_on_c, 0, 72, 103
1, 47635, Note_off_c, 0, 72, 103
1, 47648, Note_on_c, 0, 71, 95
1, 47691, Note_off_c, 0, 71, 95
1, 47718, Note_on_c, 0, 69, 97
1, 47810, Note_off_c, 0, 69, 97
1, 47888, Note_on_c, 0, 69, 77
1, 48120, Note_off_c, 0, 69, 77
1, 48781, Note_on_c, 0, 62, 90
1, 48827, Note_off_c, 0, 62, 90
1, 48875, Note_on_c, 0, 65, 96
1, 48960, Note_off_c, 0, 65, 96
1, 48965, Note_on_c, 0, 69, 116
1, 49047, Note_off_c, 0, 69, 116
1, 49067, Note_on_c, 0, 67, 110
1, 49139, Note_off_c, 0, 67, 110
1, 49159, Note_on_c, 0, 69, 110
1, 49223, Note_off_c, 0, 69, 110
1, 49242, Note_on_c, 0, 73, 121
1, 49340, Note_off_c, 0, 73, 121
1, 49362, Note_on_c, 0, 74, 121
1, 49447, Note_off_c, 0, 74, 121
1, 49458, Note_on_c, 0, 76, 114
1, 49780, Note_off_c, 0, 76, 114
1, 49803, Note_on_c, 0, 72, 98
1, 50045, Note_off_c, 0, 72, 98
1, 50109, Note_on_c, 0, 69, 106
1, 50281, Note_off_c, 0, 69, 106
1, 50366, Note_on_c, 0, 65, 85
1, 50425, Note_off_c, 0, 65, 85
1, 50486, Note_on_c, 0, 68, 106
1, 50563, Note_off_c, 0, 68, 106
1, 50577, Note_on_c, 0, 69, 106
1, 50731, Note_off_c, 0, 69, 106
1, 50747, Note_on_c, 0, 62, 85
1, 50889, Note_off_c, 0, 62, 85
1, 50914, Note_on_c, 0, 62, 83
1, 51053, Note_off_c, 0, 62, 83
1, 51053, End_track
0, 0, End_of_file
