0, 0, Header, 1, 1, 192
1, 0, Start_track
1, 0, Title_t, "Melody"
1, 0, Tempo, 333333
1, 0, Key_signature, -2, "major"
1, 0, Time_signature, 4, 2, 24, 8
1, 1746, Note_on_c, 0, 70, 111
1, 1797, Note_off_c, 0, 70, 111
1, 1922, Note_on_c, 0, 70, 122
1, 1982, Note_off_c, 0, 70, 122
1, 2106, Note_on_c, 0, 70, 123
1, 2226, Note_off_c, 0, 70, 123
1, 2826, Note_on_c, 0, 73, 127
1, 2901, Note_off_c, 0, 73, 127
1, 2916, Note_on_c, 0, 74, 125
1, 3001, Note_off_c, 0, 74, 125
1, 3012, Note_on_c, 0, 73, 118
1, 3088, Note_off_c, 0, 73, 118
1, 3099, Note_on_c, 0, 74, 113
1, 3187, Note_off_c, 0, 74, 113
1, 3258, Note_on_c, 0, 70, 113
1, 3356, Note_off_c, 0, 70, 113
1, 3420, Note_on_c, 0, 70, 105
1, 3658, Note_off_c, 0, 70, 105
1, 4859, Note_on_c, 0, 67, 98
1, 4964, Note_off_c, 0, 67, 98
1, 4995, Note_on_c, 0, 65, 93
1, 5034, Note_off_c, 0, 65, 93
1, 5075, Note_on_c, 0, 72, 124
1, 5166, Note_off_c, 0, 72, 124
1, 5200, Note_on_c, 0, 70, 115
1, 5397, Note_off_c, 0, 70, 115
1, 5460, Note_on_c, 0, 72, 117
1, 5587, Note_off_c, 0, 72, 117
1, 5667, Note_on_c, 0, 67, 97
1, 5767, Note_off_c, 0, 67, 97
1, 5797, Note_on_c, 0, 70, 117
1, 5832, Note_off_c, 0, 70, 117
1, 5873, Note_on_c, 0, 72, 119
1, 5936, Note_off_c, 0, 72, 119
1, 6018, Note_on_c, 0, 70, 107
1, 6282, Note_off_c, 0, 70, 107
1, 6361, Note_on_c, 0, 67, 102
1, 6432, Note_off_c, 0, 67, 102
1, 6530, Note_on_c, 0, 65, 101
1, 6601, Note_off_c, 0, 65, 101
1, 6645, Note_on_c, 0, 65, 98
1, 6802, Note_off_c, 0, 65, 98
1, 7358, Note_on_c, 0, 73, 117
1, 7429, Note_off_c, 0, 73, 117
1, 7447, Note_on_c, 0, 74, 118
1, 7509, Note_off_c, 0, 74, 118
1, 7548, Note_on_c, 0, 73, 98
1, 7597, Note_off_c, 0, 73, 98
1, 7601, Note_on_c, 0, 74, 121
1, 7732, Note_off_c, 0, 74, 121
1, 7812, Note_on_c, 0, 75, 119
1, 7968, Note_off_c, 0, 75, 119
1, 8011, Note_on_c, 0, 72, 107
1, 8176, Note_off_c, 0, 72, 107
1, 8225, Note_on_c, 0, 65, 95
1, 8446, Note_off_c, 0, 65, 95
1, 8943, Note_on_c, 0, 72, 116
1, 9030, Note_off_c, 0, 72, 116
1, 9129, Note_on_c, 0, 72, 116
1, 9249, Note_off_c, 0, 72, 116
1, 9297, Note_on_c, 0, 73, 117
1, 9357, Note_off_c, 0, 73, 117
1, 9367, Note_on_c, 0, 74, 115
1, 9486, Note_off_c, 0, 74, 115
1, 9551, Note_on_c, 0, 70, 104
1, 9729, Note_off_c, 0, 70, 104
1, 9757, Note_on_c, 0, 65, 99
1, 9929, Note_off_c, 0, 65, 99
1, 9940, Note_on_c, 0, 58, 90
1, 10080, Note_off_c, 0, 58, 90
1, 10892, Note_on_c, 0, 65, 106
1, 10932, Note_off_c, 0, 65, 106
1, 10939, Note_on_c, 0, 70, 116
1, 11014, Note_off_c, 0, 70, 116
1, 11100, Note_on_c, 0, 73, 118
1, 11311, Note_off_c, 0, 73, 118
1, 12037, Note_on_c, 0, 65, 80
1, 12089, Note_off_c, 0, 65, 80
1, 12095, Note_on_c, 0, 70, 115
1, 12165, Note_off_c, 0, 70, 115
1, 12237, Note_on_c, 0, 73, 118
1, 12366, Note_off_c, 0, 73, 118
1, 12441, Note_on_c, 0, 73, 118
1, 12543, Note_off_c, 0, 73, 118
1, 12638, Note_on_c, 0, 73, 118
1, 12841, Note_on_c, 0, 74, 103
1, 12841, Note_off_c, 0, 73, 118
1, 12880, Note_off_c, 0, 74, 103
1, 12915, Note_on_c, 0, 72, 111
1, 12998, Note_off_c, 0, 72, 111
1, 13038, Note_on_c, 0, 72, 98
1, 13358, Note_off_c, 0, 72, 98
1, 14261, Note_on_c, 0, 63, 86
1, 14320, Note_off_c, 0, 63, 86
1, 14347, Note_on_c, 0, 66, 88
1, 14390, Note_off_c, 0, 66, 88
1, 14417, Note_on_c, 0, 67, 105
1, 14580, Note_off_c, 0, 67, 105
1, 14612, Note_on_c, 0, 72, 118
1, 14741, Note_off_c, 0, 72, 118
1, 15123, Note_on_c, 0, 65, 97
1, 15153, Note_off_c, 0, 65, 97
1, 15155, Note_on_c, 0, 67, 88
1, 15184, Note_off_c, 0, 67, 88
1, 15215, Note_on_c, 0, 70, 114
1, 15320, Note_off_c, 0, 70, 114
1, 15326, Note_on_c, 0, 72, 118
1, 15413, Note_off_c, 0, 72, 118
1, 15446, Note_on_c, 0, 73, 116
1, 15507, Note_off_c, 0, 73, 116
1, 15541, Note_on_c, 0, 69, 108
1, 15577, Note_off_c, 0, 69, 108
1, 15592, Note_on_c, 0, 66, 105
1, 15691, Note_off_c, 0, 66, 105
1, 15749, Note_on_c, 0, 64, 92
1, 15793, Note_off_c, 0, 64, 92
1, 15803, Note_on_c, 0, 65, 92
1, 16039, Note_off_c, 0, 65, 92
1, 16113, Note_on_c, 0, 70, 118
1, 16212, Note_off_c, 0, 70, 118
1, 16240, Note_on_c, 0, 67, 111
1, 16292, Note_off_c, 0, 67, 111
1, 16330, Note_on_c, 0, 67, 97
1, 16433, Note_off_c, 0, 67, 97
1, 17039, Note_on_c, 0, 69, 106
1, 17101, Note_off_c, 0, 69, 106
1, 17118, Note_on_c, 0, 70, 119
1, 17224, Note_off_c, 0, 70, 119
1, 17228, Note_on_c, 0, 69, 90
1, 17316, Note_off_c, 0, 69, 90
1, 17342, Note_on_c, 0, 70, 117
1, 17501, Note_off_c, 0, 70, 117
1, 17528, Note_on_c, 0, 67, 114
1, 17588, Note_off_c, 0, 67, 114
1, 17679, Note_on_c, 0, 63, 99
1, 17853, Note_off_c, 0, 63, 99
1, 17869, Note_on_c, 0, 63, 104
1, 17909, Note_off_c, 0, 63, 104
1, 18385, Note_on_c, 0, 73, 112
1, 18458, Note_off_c, 0, 73, 112
1, 18466, Note_on_c, 0, 74, 121
1, 18587, Note_off_c, 0, 74, 121
1, 18591, Note_on_c, 0, 73, 103
1, 18666, Note_off_c, 0, 73, 103
1, 18671, Note_on_c, 0, 74, 116
1, 18773, Note_off_c, 0, 74, 116
1, 18794, Note_on_c, 0, 70, 114
1, 18847, Note_off_c, 0, 70, 114
1, 18883, Note_on_c, 0, 66, 109
1, 18898, Note_off_c, 0, 66, 109
1, 18908, Note_on_c, 0, 68, 103
1, 19032, Note_off_c, 0, 68, 103
1, 19032, Note_on_c, 0, 65, 107
1, 19250, Note_off_c, 0, 65, 107
1, 20512, Note_on_c, 0, 68, 104
1, 20549, Note_off_c, 0, 68, 104
1, 20568, Note_on_c, 0, 70, 120
1, 20636, Note_off_c, 0, 70, 120
1, 20675, Note_on_c, 0, 70, 122
1, 20716, Note_off_c, 0, 70, 122
1, 20744, Note_on_c, 0, 72, 120
1, 20836, Note_off_c, 0, 72, 120
1, 20870, Note_on_c, 0, 72, 117
1, 20917, Note_off_c, 0, 72, 117
1, 20933, Note_on_c, 0, 70, 112
1, 21045, Note_off_c, 0, 70, 112
1, 21070, Note_on_c, 0, 70, 114
1, 21115, Note_off_c, 0, 70, 114
1, 21143, Note_on_c, 0, 68, 107
1, 21277, Note_off_c, 0, 68, 107
1, 21296, Note_on_c, 0, 65, 94
1, 21320, Note_off_c, 0, 65, 94
1, 21320, Note_on_c, 0, 68, 110
1, 21409, Note_off_c, 0, 68, 110
1, 21465, Note_on_c, 0, 68, 108
1, 21661, Note_off_c, 0, 68, 108
1, 21663, Note_on_c, 0, 65, 93
1, 21703, Note_off_c, 0, 65, 93
1, 21711, Note_on_c, 0, 68, 99
1, 21843, Note_off_c, 0, 68, 99
1, 21843, Note_on_c, 0, 70, 117
1, 21985, Note_off_c, 0, 70, 117
1, 22088, Note_on_c, 0, 70, 114
1, 22257, Note_off_c, 0, 70, 114
1, 22298, Note_on_c, 0, 72, 120
1, 22455, Note_off_c, 0, 72, 120
1, 23635, Note_on_c, 0, 70, 115
1, 23769, Note_off_c, 0, 70, 115
1, 23779, Note_on_c, 0, 70, 117
1, 23833, Note_off_c, 0, 70, 117
1, 23844, Note_on_c, 0, 72, 104
1, 23933, Note_off_c, 0, 72, 104
1, 23952, Note_on_c, 0, 72, 112
1, 24004, Note_off_c, 0, 72, 112
1, 24012, Note_on_c, 0, 70, 113
1, 24109, Note_off_c, 0, 70, 113
1, 24160, Note_on_c, 0, 70, 116
1, 24205, Note_off_c, 0, 70, 116
1, 24223, Note_on_c, 0, 68, 106
1, 24367, Note_off_c, 0, 68, 106
1, 24380, Note_on_c, 0, 65, 90
1, 24413, Note_off_c, 0, 65, 90
1, 24416, Note_on_c, 0, 68, 110
1, 24492, Note_off_c, 0, 68, 110
1, 24547, Note_on_c, 0, 68, 106
1, 24909, Note_off_c, 0, 68, 106
1, 24914, Note_on_c, 0, 65, 91
1, 24953, Note_off_c, 0, 65, 91
1, 24968, Note_on_c, 0, 68, 112
1, 25120, Note_off_c, 0, 68, 112
1, 25134, Note_on_c, 0, 69, 104
1, 25176, Note_off_c, 0, 69, 104
1, 25209, Note_on_c, 0, 70, 118
1, 25334, Note_off_c, 0, 70, 118
1, 25347, Note_on_c, 0, 65, 93
1, 25603, Note_off_c, 0, 65, 93
1, 26685, Note_on_c, 0, 67, 102
1, 26727, Note_off_c, 0, 67, 102
1, 26766, Note_on_c, 0, 70, 115
1, 26808, Note_off_c, 0, 70, 115
1, 26847, Note_on_c, 0, 74, 124
1, 26909, Note_off_c, 0, 74, 124
1, 26961, Note_on_c, 0, 79, 125
1, 27043, Note_off_c, 0, 79, 125
1, 27113, Note_on_c, 0, 77, 123
1, 27201, Note_off_c, 0, 77, 123
1, 27333, Note_on_c, 0, 73, 103
1, 27368, Note_off_c, 0, 73, 103
1, 27368, Note_on_c, 0, 75, 107
1, 27491, Note_off_c, 0, 75, 107
1, 27511, Note_on_c, 0, 74, 111
1, 27600, Note_off_c, 0, 74, 111
1, 27632, Note_on_c, 0, 72, 114
1, 27676, Note_off_c, 0, 72, 114
1, 27701, Note_on_c, 0, 70, 111
1, 27811, Note_off_c, 0, 70, 111
1, 27836, Note_on_c, 0, 65, 106
1, 27880, Note_off_c, 0, 65, 106
1, 27906, Note_on_c, 0, 62, 86
1, 28051, Note_off_c, 0, 62, 86
1, 28051, Note_on_c, 0, 65, 100
1, 28206, Note_off_c, 0, 65, 100
1, 28206, Note_on_c, 0, 70, 112
1, 28256, Note_off_c, 0, 70, 112
1, 29843, Note_on_c, 0, 77, 123
1, 29927, Note_off_c, 0, 77, 123
1, 29982, Note_on_c, 0, 79, 120
1, 30132, Note_off_c, 0, 79, 120
1, 30519, Note_on_c, 0, 77, 122
1, 30577, Note_off_c, 0, 77, 122
1, 30595, Note_on_c, 0, 76, 105
1, 30678, Note_off_c, 0, 76, 105
1, 30678, Note_on_c, 0, 75, 114
1, 30785, Note_off_c, 0, 75, 114
1, 31318, Note_on_c, 0, 73, 120
1, 31421, Note_off_c, 0, 73, 120
1, 31545, Note_on_c, 0, 73, 117
1, 31715, Note_off_c, 0, 73, 117
1, 31941, Note_on_c, 0, 74, 124
1, 32013, Note_off_c, 0, 74, 124
1, 32036, Note_on_c, 0, 70, 111
1, 32130, Note_off_c, 0, 70, 111
1, 32271, Note_on_c, 0, 67, 112
1, 32320, Note_off_c, 0, 67, 112
1, 32337, Note_on_c, 0, 68, 107
1, 32452, Note_off_c, 0, 68, 107
1, 32453, Note_on_c, 0, 72, 120
1, 32522, Note_off_c, 0, 72, 120
1, 32550, Note_on_c, 0, 75, 124
1, 32600, Note_off_c, 0, 75, 124
1, 32648, Note_on_c, 0, 79, 122
1, 32744, Note_off_c, 0, 79, 122
1, 32776, Note_on_c, 0, 82, 83
1, 32819, Note_off_c, 0, 82, 83
1, 32819, Note_on_c, 0, 85, 116
1, 33014, Note_off_c, 0, 85, 116
1, 33049, Note_on_c, 0, 84, 110
1, 33113, Note_off_c, 0, 84, 110
1, 33142, Note_on_c, 0, 82, 121
1, 33206, Note_off_c, 0, 82, 121
1, 33237, Note_on_c, 0, 80, 115
1, 33290, Note_off_c, 0, 80, 115
1, 33329, Note_on_c, 0, 79, 120
1, 33399, Note_off_c, 0, 79, 120
1, 33447, Note_on_c, 0, 78, 115
1, 33510, Note_off_c, 0, 78, 115
1, 33524, Note_on_c, 0, 77, 112
1, 33606, Note_off_c, 0, 77, 112
1, 33640, Note_on_c, 0, 76, 118
1, 33713, Note_off_c, 0, 76, 118
1, 33732, Note_on_c, 0, 75, 112
1, 33788, Note_off_c, 0, 75, 112
1, 33812, Note_on_c, 0, 72, 115
1, 33899, Note_off_c, 0, 72, 115
1, 34037, Note_on_c, 0, 70, 114
1, 34121, Note_off_c, 0, 70, 114
1, 34199, Note_on_c, 0, 65, 106
1, 34263, Note_off_c, 0, 65, 106
1, 34280, Note_on_c, 0, 63, 105
1, 34357, Note_off_c, 0, 63, 105
1, 34383, Note_on_c, 0, 62, 9
1, 34589, Note_off_c, 0, 62, 9
1, 35189, Note_on_c, 0, 63, 97
1, 35239, Note_off_c, 0, 63, 97
1, 35258, Note_on_c, 0, 64, 99
1, 35309, Note_off_c, 0, 64, 99
1, 35351, Note_on_c, 0, 65, 112
1, 35416, Note_off_c, 0, 65, 112
1, 35445, Note_on_c, 0, 67, 113
1, 35517, Note_off_c, 0, 67, 113
1, 35531, Note_on_c, 0, 69, 113
1, 35598, Note_off_c, 0, 69, 113
1, 35609, Note_on_c, 0, 70, 120
1, 35694, Note_off_c, 0, 70, 120
1, 35711, Note_on_c, 0, 72, 117
1, 35798, Note_off_c, 0, 72, 117
1, 35855, Note_on_c, 0, 72, 106
1, 35885, Note_off_c, 0, 72, 106
1, 35888, Note_on_c, 0, 74, 116
1, 35998, Note_off_c, 0, 74, 116
1, 35998, Note_on_c, 0, 72, 116
1, 36113, Note_off_c, 0, 72, 116
1, 36171, Note_on_c, 0, 74, 116
1, 36349, Note_off_c, 0, 74, 116
1, 36379, Note_on_c, 0, 72, 108
1, 36493, Note_off_c, 0, 72, 108
1, 36509, Note_on_c, 0, 65, 90
1, 37106, Note_on_c, 0, 67, 96
1, 37106, Note_off_c, 0, 65, 90
1, 37150, Note_off_c, 0, 67, 96
1, 37150, Note_on_c, 0, 70, 116
1, 37239, Note_off_c, 0, 70, 116
1, 37276, Note_on_c, 0, 70, 104
1, 37673, Note_off_c, 0, 70, 104
1, 37688, Note_on_c, 0, 67, 79
1, 37731, Note_off_c, 0, 67, 79
1, 37740, Note_on_c, 0, 70, 107
1, 37824, Note_off_c, 0, 70, 107
1, 37857, Note_on_c, 0, 74, 114
1, 37904, Note_off_c, 0, 74, 114
1, 38883, Note_on_c, 0, 82, 121
1, 38929, Note_off_c, 0, 82, 121
1, 38929, Note_on_c, 0, 84, 117
1, 38980, Note_off_c, 0, 84, 117
1, 38988, Note_on_c, 0, 85, 118
1, 39038, Note_off_c, 0, 85, 118
1, 39059, Note_on_c, 0, 86, 120
1, 39254, Note_off_c, 0, 86, 120
1, 39295, Note_on_c, 0, 84, 97
1, 39402, Note_off_c, 0, 84, 97
1, 39465, Note_on_c, 0, 81, 122
1, 39588, Note_off_c, 0, 81, 122
1, 39653, Note_on_c, 0, 82, 123
1, 39749, Note_off_c, 0, 82, 123
1, 39838, Note_on_c, 0, 81, 110
1, 39951, Note_off_c, 0, 81, 110
1, 40057, Note_on_c, 0, 80, 125
1, 40168, Note_off_c, 0, 80, 125
1, 40219, Note_on_c, 0, 79, 124
1, 40282, Note_off_c, 0, 79, 124
1, 40342, Note_on_c, 0, 77, 117
1, 40442, Note_off_c, 0, 77, 117
1, 40638, Note_on_c, 0, 72, 114
1, 40667, Note_on_c, 0, 75, 114
1, 40667, Note_off_c, 0, 72, 114
1, 40770, Note_off_c, 0, 75, 114
1, 40770, Note_on_c, 0, 72, 98
1, 40802, Note_off_c, 0, 72, 98
1, 40802, Note_on_c, 0, 74, 115
1, 40909, Note_off_c, 0, 74, 115
1, 40909, Note_on_c, 0, 72, 117
1, 41002, Note_off_c, 0, 72, 117
1, 41015, Note_on_c, 0, 73, 118
1, 41057, Note_off_c, 0, 73, 118
1, 41102, Note_on_c, 0, 71, 117
1, 41157, Note_off_c, 0, 71, 117
1, 41179, Note_on_c, 0, 72, 112
1, 41281, Note_off_c, 0, 72, 112
1, 41383, Note_on_c, 0, 79, 123
1, 41518, Note_off_c, 0, 79, 123
1, 41525, Note_on_c, 0, 72, 83
1, 41570, Note_off_c, 0, 72, 83
1, 41571, Note_on_c, 0, 78, 116
1, 41687, Note_off_c, 0, 78, 116
1, 41725, Note_on_c, 0, 79, 110
1, 41744, Note_off_c, 0, 79, 110
1, 41744, Note_on_c, 0, 77, 105
1, 41766, Note_off_c, 0, 77, 105
1, 41769, Note_on_c, 0, 71, 115
1, 41841, Note_off_c, 0, 71, 115
1, 41896, Note_on_c, 0, 72, 104
1, 42011, Note_off_c, 0, 72, 104
1, 42845, Note_on_c, 0, 71, 118
1, 42932, Note_off_c, 0, 71, 118
1, 42942, Note_on_c, 0, 72, 119
1, 43026, Note_off_c, 0, 72, 119
1, 43044, Note_on_c, 0, 73, 118
1, 43107, Note_off_c, 0, 73, 118
1, 43152, Note_on_c, 0, 72, 116
1, 43258, Note_off_c, 0, 72, 116
1, 43306, Note_on_c, 0, 70, 106
1, 43454, Note_off_c, 0, 70, 106
1, 43504, Note_on_c, 0, 72, 114
1, 43674, Note_off_c, 0, 72, 114
1, 43684, Note_on_c, 0, 72, 104
1, 43809, Note_off_c, 0, 72, 104
1, 43836, Note_on_c, 0, 67, 110
1, 43954, Note_off_c, 0, 67, 110
1, 43954, Note_on_c, 0, 65, 112
1, 44027, Note_off_c, 0, 65, 112
1, 44060, Note_on_c, 0, 65, 101
1, 44335, Note_off_c, 0, 65, 101
1, 45221, Note_on_c, 0, 63, 103
1, 45274, Note_off_c, 0, 63, 103
1, 45295, Note_on_c, 0, 67, 109
1, 45366, Note_off_c, 0, 67, 109
1, 45382, Note_on_c, 0, 70, 122
1, 45451, Note_off_c, 0, 70, 122
1, 45473, Note_on_c, 0, 69, 104
1, 45574, Note_off_c, 0, 69, 104
1, 45574, Note_on_c, 0, 70, 91
1, 45650, Note_off_c, 0, 70, 91
1, 45664, Note_on_c, 0, 72, 104
1, 45730, Note_off_c, 0, 72, 104
1, 45760, Note_on_c, 0, 74, 103
1, 45866, Note_off_c, 0, 74, 103
1, 45881, Note_on_c, 0, 78, 118
1, 45931, Note_on_c, 0, 81, 89
1, 45931, Note_off_c, 0, 78, 118
1, 46022, Note_off_c, 0, 81, 89
1, 46062, Note_on_c, 0, 79, 114
1, 46188, Note_off_c, 0, 79, 114
1, 46192, Note_on_c, 0, 77, 122
1, 46253, Note_off_c, 0, 77, 122
1, 46347, Note_on_c, 0, 75, 104
1, 46433, Note_off_c, 0, 75, 104
1, 46443, Note_on_c, 0, 77, 106
1, 46483, Note_off_c, 0, 77, 106
1, 46486, Note_on_c, 0, 74, 116
1, 46539, Note_off_c, 0, 74, 116
1, 46546, Note_on_c, 0, 72, 116
1, 46623, Note_off_c, 0, 72, 116
1, 46643, Note_on_c, 0, 70, 113
1, 46706, Note_off_c, 0, 70, 113
1, 46789, Note_on_c, 0, 70, 107
1, 46978, Note_off_c, 0, 70, 107
1, 48337, Note_on_c, 0, 73, 119
1, 48432, Note_off_c, 0, 73, 119
1, 48534, Note_on_c, 0, 73, 113
1, 48692, Note_off_c, 0, 73, 113
1, 48702, Note_on_c, 0, 73, 96
1, 48807, Note_off_c, 0, 73, 96
1, 49046, Note_on_c, 0, 70, 115
1, 49153, Note_off_c, 0, 70, 115
1, 49225, Note_on_c, 0, 70, 117
1, 49347, Note_off_c, 0, 70, 117
1, 49410, Note_on_c, 0, 70, 119
1, 49496, Note_off_c, 0, 70, 119
1, 49523, Note_on_c, 0, 68, 93
1, 49643, Note_off_c, 0, 68, 93
1, 49892, Note_on_c, 0, 73, 117
1, 49999, Note_off_c, 0, 73, 117
1, 50032, Note_on_c, 0, 70, 82
1, 50085, Note_off_c, 0, 70, 82
1, 50088, Note_on_c, 0, 73, 111
1, 50180, Note_off_c, 0, 73, 111
1, 50230, Note_on_c, 0, 73, 117
1, 50298, Note_off_c, 0, 73, 117
1, 50681, Note_on_c, 0, 70, 121
1, 50817, Note_off_c, 0, 70, 121
1, 50825, Note_on_c, 0, 65, 94
1, 50876, Note_off_c, 0, 65, 94
1, 50879, Note_on_c, 0, 70, 107
1, 51013, Note_off_c, 0, 70, 107
1, 51013, Note_on_c, 0, 68, 106
1, 51084, Note_off_c, 0, 68, 106
1, 51466, Note_on_c, 0, 70, 112
1, 51600, Note_off_c, 0, 70, 112
1, 51600, Note_on_c, 0, 65, 89
1, 51646, Note_off_c, 0, 65, 89
1, 51646, Note_on_c, 0, 70, 103
1, 51778, Note_off_c, 0, 70, 103
1, 51778, Note_on_c, 0, 73, 110
1, 51852, Note_off_c, 0, 73, 110
1, 52246, Note_on_c, 0, 75, 115
1, 52273, Note_off_c, 0, 75, 115
1, 52277, Note_on_c, 0, 74, 103
1, 52312, Note_off_c, 0, 74, 103
1, 52312, Note_on_c, 0, 73, 110
1, 52351, Note_off_c, 0, 73, 110
1, 52451, Note_on_c, 0, 73, 99
1, 52561, Note_off_c, 0, 73, 99
1, 52576, Note_on_c, 0, 73, 111
1, 52639, Note_off_c, 0, 73, 111
1, 53034, Note_on_c, 0, 73, 113
1, 53217, Note_off_c, 0, 73, 113
1, 53219, Note_on_c, 0, 74, 123
1, 53276, Note_off_c, 0, 74, 123
1, 53278, Note_on_c, 0, 73, 114
1, 53311, Note_off_c, 0, 73, 114
1, 53322, Note_on_c, 0, 74, 115
1, 53445, Note_off_c, 0, 74, 115
1, 53539, Note_on_c, 0, 70, 118
1, 53623, Note_off_c, 0, 70, 118
1, 53646, Note_on_c, 0, 65, 102
1, 53778, Note_off_c, 0, 65, 102
1, 53822, Note_on_c, 0, 63, 106
1, 53958, Note_off_c, 0, 63, 106
1, 53964, Note_on_c, 0, 62, 106
1, 54009, Note_off_c, 0, 62, 106
1, 54123, Note_on_c, 0, 70, 117
1, 54315, Note_off_c, 0, 70, 117
1, 54329, Note_on_c, 0, 70, 104
1, 54565, Note_off_c, 0, 70, 104
1, 55313, Note_on_c, 0, 70, 101
1, 55355, Note_off_c, 0, 70, 101
1, 55358, Note_on_c, 0, 72, 119
1, 55484, Note_off_c, 0, 72, 119
1, 55550, Note_on_c, 0, 70, 106
1, 55725, Note_off_c, 0, 70, 106
1, 55732, Note_on_c, 0, 72, 117
1, 55813, Note_off_c, 0, 72, 117
1, 55912, Note_on_c, 0, 70, 107
1, 56247, Note_off_c, 0, 70, 107
1, 56257, Note_on_c, 0, 70, 106
1, 56349, Note_off_c, 0, 70, 106
1, 57590, Note_on_c, 0, 82, 125
1, 57663, Note_off_c, 0, 82, 125
1, 57680, Note_on_c, 0, 79, 100
1, 57773, Note_off_c, 0, 79, 100
1, 57783, Note_on_c, 0, 77, 117
1, 57882, Note_off_c, 0, 77, 117
1, 58345, Note_on_c, 0, 76, 104
1, 58472, Note_off_c, 0, 76, 104
1, 58552, Note_on_c, 0, 75, 114
1, 58842, Note_off_c, 0, 75, 114
1, 58842, Note_on_c, 0, 73, 115
1, 58905, Note_off_c, 0, 73, 115
1, 59200, Note_on_c, 0, 70, 119
1, 59352, Note_off_c, 0, 70, 119
1, 59354, Note_on_c, 0, 67, 93
1, 59377, Note_off_c, 0, 67, 93
1, 59379, Note_on_c, 0, 65, 84
1, 59406, Note_off_c, 0, 65, 84
1, 59418, Note_on_c, 0, 68, 91
1, 59546, Note_off_c, 0, 68, 91
1, 59546, Note_on_c, 0, 72, 120
1, 59629, Note_off_c, 0, 72, 120
1, 59917, Note_on_c, 0, 67, 106
1, 59973, Note_off_c, 0, 67, 106
1, 59986, Note_on_c, 0, 65, 98
1, 60103, Note_on_c, 0, 64, 106
1, 60103, Note_off_c, 0, 65, 98
1, 60327, Note_off_c, 0, 64, 106
1, 60336, Note_on_c, 0, 63, 108
1, 60737, Note_off_c, 0, 63, 108
1, 60842, Note_on_c, 0, 63, 112
1, 60949, Note_off_c, 0, 63, 112
1, 60968, Note_on_c, 0, 64, 117
1, 61053, Note_off_c, 0, 64, 117
1, 61077, Note_on_c, 0, 65, 123
1, 61136, Note_off_c, 0, 65, 123
1, 61153, Note_on_c, 0, 67, 121
1, 61215, Note_off_c, 0, 67, 121
1, 61257, Note_on_c, 0, 69, 116
1, 61333, Note_off_c, 0, 69, 116
1, 61343, Note_on_c, 0, 70, 118
1, 61433, Note_off_c, 0, 70, 118
1, 61446, Note_on_c, 0, 72, 119
1, 61511, Note_off_c, 0, 72, 119
1, 61527, Note_on_c, 0, 73, 118
1, 61617, Note_off_c, 0, 73, 118
1, 61633, Note_on_c, 0, 74, 113
1, 61726, Note_off_c, 0, 74, 113
1, 61727, Note_on_c, 0, 75, 116
1, 61833, Note_off_c, 0, 75, 116
1, 61911, Note_on_c, 0, 72, 112
1, 61980, Note_off_c, 0, 72, 112
1, 61989, Note_on_c, 0, 74, 112
1, 62069, Note_off_c, 0, 74, 112
1, 62093, Note_on_c, 0, 70, 117
1, 62178, Note_off_c, 0, 70, 117
1, 62208, Note_on_c, 0, 65, 109
1, 62261, Note_off_c, 0, 65, 109
1, 62306, Note_on_c, 0, 63, 102
1, 62409, Note_off_c, 0, 63, 102
1, 62424, Note_on_c, 0, 65, 112
1, 62475, Note_off_c, 0, 65, 112
1, 62520, Note_on_c, 0, 62, 99
1, 62591, Note_off_c, 0, 62, 99
1, 62607, Note_on_c, 0, 58, 81
1, 62632, Note_off_c, 0, 58, 81
1, 62655, Note_on_c, 0, 70, 114
1, 62865, Note_off_c, 0, 70, 114
1, 62870, Note_on_c, 0, 67, 97
1, 63123, Note_off_c, 0, 67, 97
1, 63238, Note_on_c, 0, 70, 119
1, 63314, Note_off_c, 0, 70, 119
1, 63316, Note_on_c, 0, 69, 114
1, 63368, Note_off_c, 0, 69, 114
1, 63375, Note_on_c, 0, 70, 118
1, 63564, Note_off_c, 0, 70, 118
1, 63564, Note_on_c, 0, 67, 91
1, 63637, Note_off_c, 0, 67, 91
1, 63637, Note_on_c, 0, 70, 118
1, 63817, Note_off_c, 0, 70, 118
1, 63817, Note_on_c, 0, 67, 91
1, 63937, Note_off_c, 0, 67, 91
1, 64004, Note_on_c, 0, 61, 105
1, 64139, Note_off_c, 0, 61, 105
1, 64901, Note_on_c, 0, 69, 112
1, 64971, Note_off_c, 0, 69, 112
1, 64971, Note_on_c, 0, 70, 118
1, 65102, Note_off_c, 0, 70, 118
1, 65107, Note_on_c, 0, 70, 109
1, 65358, Note_off_c, 0, 70, 109
1, 65381, Note_on_c, 0, 67, 95
1, 65460, Note_off_c, 0, 67, 95
1, 65538, Note_on_c, 0, 62, 107
1, 65681, Note_off_c, 0, 62, 107
1, 66632, Note_on_c, 0, 65, 99
1, 66792, Note_off_c, 0, 65, 99
1, 66797, Note_on_c, 0, 67, 95
1, 66880, Note_off_c, 0, 67, 95
1, 66880, Note_on_c, 0, 69, 118
1, 66975, Note_off_c, 0, 69, 118
1, 67042, Note_on_c, 0, 70, 116
1, 67206, Note_off_c, 0, 70, 116
1, 67208, Note_on_c, 0, 72, 112
1, 67251, Note_on_c, 0, 74, 114
1, 67251, Note_off_c, 0, 72, 112
1, 67374, Note_off_c, 0, 74, 114
1, 67376, Note_on_c, 0, 70, 119
1, 67437, Note_off_c, 0, 70, 119
1, 67443, Note_on_c, 0, 72, 115
1, 67552, Note_off_c, 0, 72, 115
1, 67557, Note_on_c, 0, 74, 120
1, 67624, Note_off_c, 0, 74, 120
1, 67630, Note_on_c, 0, 78, 118
1, 67753, Note_off_c, 0, 78, 118
1, 67753, Note_on_c, 0, 79, 122
1, 67829, Note_off_c, 0, 79, 122
1, 67861, Note_on_c, 0, 77, 110
1, 68000, Note_off_c, 0, 77, 110
1, 68009, Note_on_c, 0, 79, 112
1, 68124, Note_off_c, 0, 79, 112
1, 68126, Note_on_c, 0, 80, 118
1, 68329, Note_off_c, 0, 80, 118
1, 68336, Note_on_c, 0, 76, 115
1, 68397, Note_off_c, 0, 76, 115
1, 68401, Note_on_c, 0, 79, 113
1, 68528, Note_off_c, 0, 79, 113
1, 68528, Note_on_c, 0, 78, 112
1, 68600, Note_off_c, 0, 78, 112
1, 68612, Note_on_c, 0, 77, 114
1, 68733, Note_off_c, 0, 77, 114
1, 68733, Note_on_c, 0, 76, 19
1, 68817, Note_off_c, 0, 76, 19
1, 68817, Note_on_c, 0, 75, 111
1, 68888, Note_off_c, 0, 75, 111
1, 68918, Note_on_c, 0, 73, 114
1, 69007, Note_off_c, 0, 73, 114
1, 69007, Note_on_c, 0, 74, 109
1, 69093, Note_off_c, 0, 74, 109
1, 69093, Note_on_c, 0, 70, 104
1, 69194, Note_off_c, 0, 70, 104
1, 69194, Note_on_c, 0, 69, 101
1, 69214, Note_off_c, 0, 69, 101
1, 69214, Note_on_c, 0, 70, 100
1, 69285, Note_off_c, 0, 70, 100
1, 69317, Note_on_c, 0, 67, 103
1, 69365, Note_off_c, 0, 67, 103
1, 69371, Note_on_c, 0, 68, 112
1, 69488, Note_off_c, 0, 68, 112
1, 69488, Note_on_c, 0, 72, 111
1, 69570, Note_off_c, 0, 72, 111
1, 69570, Note_on_c, 0, 67, 94
1, 69677, Note_off_c, 0, 67, 94
1, 69683, Note_on_c, 0, 65, 94
1, 69736, Note_off_c, 0, 65, 94
1, 69752, Note_on_c, 0, 70, 107
1, 69934, Note_off_c, 0, 70, 107
1, 70711, Note_on_c, 0, 75, 111
1, 71870, Note_off_c, 0, 75, 111
1, 71884, Note_on_c, 0, 73, 109
1, 72003, Note_off_c, 0, 73, 109
1, 72082, Note_on_c, 0, 73, 112
1, 72245, Note_off_c, 0, 73, 112
1, 72990, Note_on_c, 0, 70, 118
1, 73046, Note_off_c, 0, 70, 118
1, 73059, Note_on_c, 0, 72, 119
1, 73150, Note_off_c, 0, 72, 119
1, 73170, Note_on_c, 0, 74, 121
1, 73237, Note_off_c, 0, 74, 121
1, 73257, Note_on_c, 0, 75, 120
1, 73339, Note_off_c, 0, 75, 120
1, 73358, Note_on_c, 0, 77, 123
1, 73421, Note_off_c, 0, 77, 123
1, 73434, Note_on_c, 0, 79, 122
1, 73527, Note_off_c, 0, 79, 122
1, 73550, Note_on_c, 0, 82, 124
1, 73630, Note_off_c, 0, 82, 124
1, 73678, Note_on_c, 0, 79, 106
1, 73763, Note_off_c, 0, 79, 106
1, 73764, Note_on_c, 0, 81, 117
1, 73955, Note_off_c, 0, 81, 117
1, 73955, Note_on_c, 0, 79, 124
1, 74018, Note_off_c, 0, 79, 124
1, 74048, Note_on_c, 0, 77, 121
1, 74113, Note_off_c, 0, 77, 121
1, 74126, Note_on_c, 0, 75, 117
1, 74206, Note_off_c, 0, 75, 117
1, 74232, Note_on_c, 0, 73, 113
1, 74269, Note_off_c, 0, 73, 113
1, 74279, Note_on_c, 0, 74, 111
1, 74331, Note_off_c, 0, 74, 111
1, 74334, Note_on_c, 0, 72, 117
1, 74405, Note_off_c, 0, 72, 117
1, 74426, Note_on_c, 0, 70, 113
1, 74533, Note_off_c, 0, 70, 113
1, 74590, Note_on_c, 0, 70, 117
1, 74717, Note_off_c, 0, 70, 117
1, 74815, Note_on_c, 0, 67, 92
1, 75003, Note_off_c, 0, 67, 92
1, 75003, Note_on_c, 0, 68, 117
1, 75309, Note_off_c, 0, 68, 117
1, 75314, Note_on_c, 0, 68, 115
1, 75384, Note_on_c, 0, 67, 98
1, 75384, Note_off_c, 0, 68, 115
1, 75505, Note_off_c, 0, 67, 98
1, 75517, Note_on_c, 0, 67, 120
1, 75553, Note_off_c, 0, 67, 120
1, 75576, Note_on_c, 0, 66, 105
1, 75670, Note_off_c, 0, 66, 105
1, 75684, Note_on_c, 0, 66, 118
1, 75725, Note_off_c, 0, 66, 118
1, 75767, Note_on_c, 0, 65, 109
1, 75849, Note_off_c, 0, 65, 109
1, 75873, Note_on_c, 0, 65, 119
1, 75936, Note_off_c, 0, 65, 119
1, 75948, Note_on_c, 0, 64, 103
1, 76620, Note_off_c, 0, 64, 103
1, 76620, End_track
0, 0, End_of_file
