0, 0, Header, 1, 1, 192
1, 0, Start_track
1, 0, Title_t, "Melody"
1, 0, Tempo, 220588
1, 0, Key_signature, -2, "major"
1, 0, Time_signature, 4, 2, 24, 8
1, 3350, Note_on_c, 0, 74, 112
1, 3435, Note_off_c, 0, 74, 112
1, 3459, Note_on_c, 0, 72, 102
1, 3547, Note_off_c, 0, 72, 102
1, 3554, Note_on_c, 0, 69, 102
1, 3685, Note_off_c, 0, 69, 102
1, 3695, Note_on_c, 0, 65, 105
1, 3851, Note_off_c, 0, 65, 105
1, 3872, Note_on_c, 0, 63, 110
1, 3985, Note_off_c, 0, 63, 110
1, 3985, Note_on_c, 0, 62, 103
1, 4617, Note_off_c, 0, 62, 103
1, 4787, Note_on_c, 0, 68, 111
1, 4818, Note_off_c, 0, 68, 111
1, 4832, Note_on_c, 0, 70, 113
1, 4905, Note_off_c, 0, 70, 113
1, 4905, Note_on_c, 0, 67, 104
1, 5331, Note_off_c, 0, 67, 104
1, 5526, Note_on_c, 0, 62, 124
1, 5639, Note_off_c, 0, 62, 124
1, 5649, Note_on_c, 0, 60, 108
1, 6228, Note_off_c, 0, 60, 108
1, 6360, Note_on_c, 0, 62, 112
1, 6446, Note_off_c, 0, 62, 112
1, 6454, Note_on_c, 0, 63, 115
1, 6564, Note_off_c, 0, 63, 115
1, 6570, Note_on_c, 0, 65, 119
1, 6663, Note_off_c, 0, 65, 119
1, 6677, Note_on_c, 0, 67, 111
1, 6765, Note_off_c, 0, 67, 111
1, 6768, Note_on_c, 0, 70, 107
1, 6846, Note_off_c, 0, 70, 107
1, 6849, Note_on_c, 0, 69, 112
1, 6973, Note_off_c, 0, 69, 112
1, 6983, Note_on_c, 0, 65, 110
1, 7029, Note_off_c, 0, 65, 110
1, 7032, Note_on_c, 0, 67, 107
1, 7188, Note_off_c, 0, 67, 107
1, 7262, Note_on_c, 0, 65, 97
1, 7535, Note_off_c, 0, 65, 97
1, 8625, Note_on_c, 0, 69, 116
1, 8731, Note_off_c, 0, 69, 116
1, 8731, Note_on_c, 0, 70, 110
1, 8844, Note_off_c, 0, 70, 110
1, 8847, Note_on_c, 0, 67, 105
1, 8996, Note_off_c, 0, 67, 105
1, 9059, Note_on_c, 0, 63, 105
1, 9499, Note_off_c, 0, 63, 105
1, 10164, Note_on_c, 0, 74, 117
1, 10252, Note_off_c, 0, 74, 117
1, 10254, Note_on_c, 0, 72, 98
1, 10406, Note_off_c, 0, 72, 98
1, 10445, Note_on_c, 0, 69, 116
1, 10640, Note_off_c, 0, 69, 116
1, 10705, Note_on_c, 0, 65, 114
1, 11124, Note_off_c, 0, 65, 114
1, 12131, Note_on_c, 0, 61, 96
1, 12223, Note_off_c, 0, 61, 96
1, 12240, Note_on_c, 0, 62, 106
1, 12303, Note_off_c, 0, 62, 106
1, 12334, Note_on_c, 0, 64, 124
1, 12412, Note_off_c, 0, 64, 124
1, 12422, Note_on_c, 0, 65, 126
1, 12517, Note_off_c, 0, 65, 126
1, 12517, Note_on_c, 0, 67, 121
1, 12612, Note_off_c, 0, 67, 121
1, 12633, Note_on_c, 0, 69, 109
1, 12714, Note_off_c, 0, 69, 109
1, 12731, Note_on_c, 0, 70, 120
1, 12792, Note_off_c, 0, 70, 120
1, 12805, Note_on_c, 0, 73, 112
1, 12886, Note_off_c, 0, 73, 112
1, 12889, Note_on_c, 0, 74, 118
1, 13259, Note_off_c, 0, 74, 118
1, 13281, Note_on_c, 0, 72, 107
1, 13556, Note_off_c, 0, 72, 107
1, 13573, Note_on_c, 0, 73, 110
1, 13644, Note_off_c, 0, 73, 110
1, 13658, Note_on_c, 0, 74, 113
1, 14038, Note_off_c, 0, 74, 113
1, 14048, Note_on_c, 0, 77, 117
1, 14136, Note_off_c, 0, 77, 117
1, 14217, Note_on_c, 0, 75, 119
1, 14327, Note_off_c, 0, 75, 119
1, 14339, Note_on_c, 0, 74, 105
1, 14857, Note_off_c, 0, 74, 105
1, 15462, Note_on_c, 0, 75, 107
1, 15579, Note_off_c, 0, 75, 107
1, 15585, Note_on_c, 0, 74, 119
1, 15658, Note_off_c, 0, 74, 119
1, 15669, Note_on_c, 0, 72, 116
1, 15747, Note_off_c, 0, 72, 116
1, 15757, Note_on_c, 0, 71, 109
1, 15856, Note_off_c, 0, 71, 109
1, 15866, Note_on_c, 0, 69, 117
1, 15954, Note_off_c, 0, 69, 117
1, 15975, Note_on_c, 0, 67, 104
1, 16088, Note_off_c, 0, 67, 104
1, 16137, Note_on_c, 0, 67, 102
1, 16282, Note_off_c, 0, 67, 102
1, 16310, Note_on_c, 0, 67, 108
1, 16583, Note_off_c, 0, 67, 108
1, 17588, Note_on_c, 0, 64, 108
1, 17652, Note_off_c, 0, 64, 108
1, 17675, Note_on_c, 0, 69, 102
1, 17717, Note_off_c, 0, 69, 102
1, 17717, Note_on_c, 0, 72, 94
1, 17762, Note_off_c, 0, 72, 94
1, 17788, Note_on_c, 0, 72, 119
1, 17844, Note_off_c, 0, 72, 119
1, 17879, Note_on_c, 0, 74, 116
1, 17934, Note_off_c, 0, 74, 116
1, 17962, Note_on_c, 0, 74, 117
1, 18034, Note_off_c, 0, 74, 117
1, 18047, Note_on_c, 0, 72, 99
1, 18153, Note_off_c, 0, 72, 99
1, 18241, Note_on_c, 0, 74, 98
1, 18322, Note_off_c, 0, 74, 98
1, 18352, Note_on_c, 0, 74, 120
1, 18414, Note_off_c, 0, 74, 120
1, 18440, Note_on_c, 0, 72, 106
1, 18511, Note_off_c, 0, 72, 106
1, 18622, Note_on_c, 0, 74, 104
1, 18693, Note_off_c, 0, 74, 104
1, 18717, Note_on_c, 0, 74, 113
1, 18805, Note_off_c, 0, 74, 113
1, 18808, Note_on_c, 0, 72, 103
1, 18907, Note_off_c, 0, 72, 103
1, 18942, Note_on_c, 0, 69, 104
1, 19201, Note_off_c, 0, 69, 104
1, 19201, Note_on_c, 0, 65, 114
1, 19332, Note_off_c, 0, 65, 114
1, 19335, Note_on_c, 0, 62, 110
1, 19416, Note_off_c, 0, 62, 110
1, 19434, Note_on_c, 0, 63, 114
1, 19576, Note_off_c, 0, 63, 114
1, 20776, Note_on_c, 0, 70, 107
1, 20864, Note_off_c, 0, 70, 107
1, 20864, Note_on_c, 0, 74, 110
1, 20935, Note_off_c, 0, 74, 110
1, 20977, Note_on_c, 0, 77, 124
1, 21140, Note_off_c, 0, 77, 124
1, 21157, Note_on_c, 0, 74, 107
1, 21295, Note_off_c, 0, 74, 107
1, 21358, Note_on_c, 0, 75, 96
1, 21485, Note_off_c, 0, 75, 96
1, 21680, Note_on_c, 0, 77, 121
1, 21850, Note_off_c, 0, 77, 121
1, 21986, Note_on_c, 0, 79, 101
1, 22074, Note_off_c, 0, 79, 101
1, 22097, Note_on_c, 0, 81, 110
1, 22974, Note_off_c, 0, 81, 110
1, 23059, Note_on_c, 0, 77, 112
1, 23144, Note_off_c, 0, 77, 112
1, 23250, Note_on_c, 0, 77, 113
1, 23832, Note_off_c, 0, 77, 113
1, 23892, Note_on_c, 0, 74, 88
1, 24005, Note_off_c, 0, 74, 88
1, 24065, Note_on_c, 0, 74, 103
1, 24555, Note_off_c, 0, 74, 103
1, 24583, Note_on_c, 0, 70, 96
1, 25108, Note_off_c, 0, 70, 96
1, 26589, Note_on_c, 0, 69, 113
1, 26681, Note_off_c, 0, 69, 113
1, 26681, Note_on_c, 0, 70, 105
1, 26776, Note_off_c, 0, 70, 105
1, 26793, Note_on_c, 0, 64, 90
1, 26856, Note_off_c, 0, 64, 90
1, 26859, Note_on_c, 0, 65, 116
1, 26947, Note_off_c, 0, 65, 116
1, 26957, Note_on_c, 0, 67, 117
1, 27028, Note_off_c, 0, 67, 117
1, 27049, Note_on_c, 0, 68, 112
1, 27152, Note_off_c, 0, 68, 112
1, 27162, Note_on_c, 0, 66, 112
1, 27215, Note_off_c, 0, 66, 112
1, 27236, Note_on_c, 0, 64, 118
1, 27324, Note_off_c, 0, 64, 118
1, 27341, Note_on_c, 0, 62, 114
1, 27433, Note_off_c, 0, 62, 114
1, 27436, Note_on_c, 0, 63, 115
1, 27521, Note_off_c, 0, 63, 115
1, 27528, Note_on_c, 0, 65, 118
1, 27627, Note_off_c, 0, 65, 118
1, 27634, Note_on_c, 0, 67, 117
1, 27712, Note_off_c, 0, 67, 117
1, 27712, Note_on_c, 0, 70, 100
1, 27790, Note_off_c, 0, 70, 100
1, 27799, Note_on_c, 0, 68, 108
1, 27894, Note_off_c, 0, 68, 108
1, 27905, Note_on_c, 0, 65, 118
1, 27990, Note_off_c, 0, 65, 118
1, 27997, Note_on_c, 0, 66, 104
1, 28060, Note_off_c, 0, 66, 104
1, 28060, Note_on_c, 0, 63, 103
1, 28113, Note_off_c, 0, 63, 103
1, 28116, Note_on_c, 0, 64, 114
1, 28169, Note_off_c, 0, 64, 114
1, 28179, Note_on_c, 0, 65, 116
1, 28232, Note_off_c, 0, 65, 116
1, 28232, Note_on_c, 0, 58, 122
1, 28320, Note_off_c, 0, 58, 122
1, 28348, Note_on_c, 0, 61, 97
1, 28440, Note_off_c, 0, 61, 97
1, 28468, Note_on_c, 0, 65, 116
1, 28542, Note_off_c, 0, 65, 116
1, 28566, Note_on_c, 0, 64, 116
1, 28651, Note_off_c, 0, 64, 116
1, 28651, Note_on_c, 0, 61, 112
1, 28757, Note_off_c, 0, 61, 112
1, 28764, Note_on_c, 0, 63, 117
1, 28835, Note_off_c, 0, 63, 117
1, 28859, Note_on_c, 0, 65, 116
1, 28933, Note_off_c, 0, 65, 116
1, 28957, Note_on_c, 0, 67, 102
1, 29042, Note_off_c, 0, 67, 102
1, 29059, Note_on_c, 0, 69, 108
1, 29119, Note_off_c, 0, 69, 108
1, 29129, Note_on_c, 0, 70, 108
1, 29207, Note_off_c, 0, 70, 108
1, 29240, Note_on_c, 0, 73, 106
1, 29308, Note_off_c, 0, 73, 106
1, 29319, Note_on_c, 0, 74, 120
1, 29429, Note_off_c, 0, 74, 120
1, 29431, Note_on_c, 0, 72, 97
1, 29485, Note_off_c, 0, 72, 97
1, 29498, Note_on_c, 0, 73, 119
1, 29594, Note_off_c, 0, 73, 119
1, 29603, Note_on_c, 0, 70, 102
1, 29698, Note_off_c, 0, 70, 102
1, 29701, Note_on_c, 0, 72, 116
1, 29782, Note_off_c, 0, 72, 116
1, 29788, Note_on_c, 0, 70, 120
1, 29863, Note_off_c, 0, 70, 120
1, 29863, Note_on_c, 0, 71, 116
1, 29969, Note_off_c, 0, 71, 116
1, 29986, Note_on_c, 0, 69, 117
1, 30081, Note_off_c, 0, 69, 117
1, 30081, Note_on_c, 0, 70, 122
1, 30169, Note_on_c, 0, 68, 110
1, 30169, Note_off_c, 0, 70, 122
1, 30236, Note_off_c, 0, 68, 110
1, 30257, Note_on_c, 0, 69, 116
1, 30356, Note_off_c, 0, 69, 116
1, 30356, Note_on_c, 0, 67, 105
1, 30448, Note_off_c, 0, 67, 105
1, 30466, Note_on_c, 0, 68, 114
1, 30547, Note_off_c, 0, 68, 114
1, 30552, Note_on_c, 0, 65, 125
1, 30633, Note_off_c, 0, 65, 125
1, 30643, Note_on_c, 0, 66, 111
1, 30692, Note_off_c, 0, 66, 111
1, 30716, Note_on_c, 0, 65, 105
1, 30762, Note_off_c, 0, 65, 105
1, 30772, Note_on_c, 0, 64, 118
1, 30839, Note_off_c, 0, 64, 118
1, 30856, Note_on_c, 0, 65, 127
1, 30930, Note_off_c, 0, 65, 127
1, 30944, Note_on_c, 0, 63, 112
1, 31025, Note_off_c, 0, 63, 112
1, 31035, Note_on_c, 0, 64, 120
1, 31138, Note_off_c, 0, 64, 120
1, 31138, Note_on_c, 0, 62, 113
1, 31226, Note_off_c, 0, 62, 113
1, 31236, Note_on_c, 0, 63, 108
1, 31399, Note_off_c, 0, 63, 108
1, 32930, Note_on_c, 0, 63, 94
1, 33047, Note_off_c, 0, 63, 94
1, 33061, Note_on_c, 0, 65, 110
1, 33160, Note_off_c, 0, 65, 110
1, 33170, Note_on_c, 0, 67, 112
1, 33269, Note_off_c, 0, 67, 112
1, 33269, Note_on_c, 0, 69, 106
1, 33354, Note_off_c, 0, 69, 106
1, 33357, Note_on_c, 0, 70, 111
1, 33449, Note_off_c, 0, 70, 111
1, 33449, Note_on_c, 0, 73, 110
1, 33541, Note_off_c, 0, 73, 110
1, 33541, Note_on_c, 0, 74, 119
1, 33761, Note_off_c, 0, 74, 119
1, 33846, Note_on_c, 0, 74, 117
1, 34208, Note_off_c, 0, 74, 117
1, 34229, Note_on_c, 0, 73, 107
1, 34346, Note_off_c, 0, 73, 107
1, 34363, Note_on_c, 0, 72, 113
1, 34753, Note_off_c, 0, 72, 113
1, 34818, Note_on_c, 0, 73, 110
1, 34878, Note_off_c, 0, 73, 110
1, 34890, Note_on_c, 0, 74, 112
1, 35042, Note_off_c, 0, 74, 112
1, 35123, Note_on_c, 0, 74, 107
1, 35591, Note_off_c, 0, 74, 107
1, 35591, Note_on_c, 0, 73, 111
1, 35711, Note_off_c, 0, 73, 111
1, 35742, Note_on_c, 0, 72, 101
1, 36200, Note_off_c, 0, 72, 101
1, 36985, Note_on_c, 0, 74, 118
1, 37080, Note_off_c, 0, 74, 118
1, 37087, Note_on_c, 0, 72, 105
1, 37140, Note_off_c, 0, 72, 105
1, 37145, Note_on_c, 0, 68, 106
1, 37186, Note_off_c, 0, 68, 106
1, 37196, Note_on_c, 0, 69, 113
1, 37284, Note_off_c, 0, 69, 113
1, 37301, Note_on_c, 0, 67, 97
1, 37762, Note_off_c, 0, 67, 97
1, 37783, Note_on_c, 0, 67, 110
1, 37911, Note_off_c, 0, 67, 110
1, 38863, Note_on_c, 0, 67, 111
1, 38937, Note_off_c, 0, 67, 111
1, 38951, Note_on_c, 0, 68, 107
1, 39046, Note_off_c, 0, 68, 107
1, 39067, Note_on_c, 0, 70, 109
1, 39170, Note_off_c, 0, 70, 109
1, 39170, Note_on_c, 0, 74, 112
1, 39248, Note_off_c, 0, 74, 112
1, 39255, Note_on_c, 0, 76, 111
1, 39361, Note_off_c, 0, 76, 111
1, 39368, Note_on_c, 0, 73, 106
1, 39446, Note_off_c, 0, 73, 106
1, 39467, Note_on_c, 0, 74, 114
1, 39538, Note_off_c, 0, 74, 114
1, 39541, Note_on_c, 0, 72, 116
1, 39661, Note_off_c, 0, 72, 116
1, 39668, Note_on_c, 0, 71, 116
1, 39845, Note_off_c, 0, 71, 116
1, 39862, Note_on_c, 0, 69, 114
1, 39965, Note_off_c, 0, 69, 114
1, 40046, Note_on_c, 0, 71, 115
1, 40241, Note_off_c, 0, 71, 115
1, 40241, Note_on_c, 0, 69, 117
1, 40447, Note_off_c, 0, 69, 117
1, 40464, Note_on_c, 0, 67, 114
1, 40570, Note_off_c, 0, 67, 114
1, 40577, Note_on_c, 0, 65, 105
1, 40648, Note_off_c, 0, 65, 105
1, 40652, Note_on_c, 0, 67, 111
1, 40993, Note_off_c, 0, 67, 111
1, 42259, Note_on_c, 0, 65, 105
1, 42376, Note_off_c, 0, 65, 105
1, 42400, Note_on_c, 0, 70, 115
1, 42481, Note_off_c, 0, 70, 115
1, 42481, Note_on_c, 0, 73, 107
1, 42580, Note_off_c, 0, 73, 107
1, 42583, Note_on_c, 0, 74, 118
1, 42813, Note_off_c, 0, 74, 118
1, 42816, Note_on_c, 0, 72, 113
1, 42943, Note_off_c, 0, 72, 113
1, 42960, Note_on_c, 0, 73, 112
1, 43009, Note_off_c, 0, 73, 112
1, 43026, Note_on_c, 0, 74, 124
1, 43192, Note_off_c, 0, 74, 124
1, 43195, Note_on_c, 0, 72, 114
1, 43344, Note_off_c, 0, 72, 114
1, 43344, Note_on_c, 0, 74, 110
1, 43468, Note_off_c, 0, 74, 110
1, 43485, Note_on_c, 0, 65, 115
1, 43850, Note_off_c, 0, 65, 115
1, 43853, Note_on_c, 0, 62, 108
1, 43941, Note_off_c, 0, 62, 108
1, 43941, Note_on_c, 0, 63, 118
1, 44083, Note_off_c, 0, 63, 118
1, 45237, Note_on_c, 0, 74, 112
1, 45400, Note_off_c, 0, 74, 112
1, 45425, Note_on_c, 0, 71, 105
1, 45516, Note_off_c, 0, 71, 105
1, 45516, Note_on_c, 0, 77, 124
1, 45711, Note_off_c, 0, 77, 124
1, 45728, Note_on_c, 0, 74, 117
1, 45926, Note_off_c, 0, 74, 117
1, 45936, Note_on_c, 0, 75, 122
1, 46102, Note_off_c, 0, 75, 122
1, 46130, Note_on_c, 0, 72, 104
1, 46240, Note_off_c, 0, 72, 104
1, 46343, Note_on_c, 0, 82, 114
1, 46613, Note_off_c, 0, 82, 114
1, 46634, Note_on_c, 0, 79, 100
1, 46729, Note_off_c, 0, 79, 100
1, 46753, Note_on_c, 0, 77, 116
1, 47015, Note_off_c, 0, 77, 116
1, 47050, Note_on_c, 0, 74, 85
1, 47131, Note_off_c, 0, 74, 85
1, 47138, Note_on_c, 0, 77, 118
1, 47425, Note_off_c, 0, 77, 118
1, 47428, Note_on_c, 0, 74, 101
1, 47520, Note_off_c, 0, 74, 101
1, 47520, Note_on_c, 0, 75, 115
1, 47711, Note_off_c, 0, 75, 115
1, 47725, Note_on_c, 0, 72, 107
1, 47828, Note_off_c, 0, 72, 107
1, 47902, Note_on_c, 0, 73, 102
1, 47976, Note_off_c, 0, 73, 102
1, 47981, Note_on_c, 0, 74, 113
1, 48095, Note_off_c, 0, 74, 113
1, 48113, Note_on_c, 0, 72, 112
1, 48230, Note_off_c, 0, 72, 112
1, 48428, Note_on_c, 0, 70, 106
1, 48541, Note_off_c, 0, 70, 106
1, 48704, Note_on_c, 0, 74, 107
1, 49009, Note_off_c, 0, 74, 107
1, 49015, Note_on_c, 0, 70, 106
1, 49064, Note_off_c, 0, 70, 106
1, 49100, Note_on_c, 0, 72, 92
1, 49227, Note_off_c, 0, 72, 92
1, 49290, Note_on_c, 0, 72, 99
1, 49435, Note_off_c, 0, 72, 99
1, 49481, Note_on_c, 0, 74, 104
1, 49647, Note_off_c, 0, 74, 104
1, 49707, Note_on_c, 0, 74, 109
1, 49852, Note_off_c, 0, 74, 109
1, 49891, Note_on_c, 0, 72, 103
1, 49979, Note_off_c, 0, 72, 103
1, 49986, Note_on_c, 0, 74, 108
1, 50064, Note_off_c, 0, 74, 108
1, 50074, Note_on_c, 0, 72, 106
1, 50169, Note_off_c, 0, 72, 106
1, 50179, Note_on_c, 0, 70, 110
1, 50242, Note_off_c, 0, 70, 110
1, 50249, Note_on_c, 0, 69, 105
1, 50359, Note_off_c, 0, 69, 105
1, 50359, Note_on_c, 0, 67, 112
1, 50440, Note_off_c, 0, 67, 112
1, 50443, Note_on_c, 0, 66, 103
1, 50528, Note_on_c, 0, 64, 104
1, 50528, Note_off_c, 0, 66, 103
1, 50631, Note_off_c, 0, 64, 104
1, 50631, Note_on_c, 0, 65, 116
1, 50712, Note_off_c, 0, 65, 116
1, 50712, Note_on_c, 0, 62, 103
1, 50807, Note_off_c, 0, 62, 103
1, 50835, Note_on_c, 0, 63, 110
1, 50906, Note_off_c, 0, 63, 110
1, 50906, Note_on_c, 0, 65, 115
1, 51016, Note_off_c, 0, 65, 115
1, 51016, Note_on_c, 0, 67, 107
1, 51090, Note_off_c, 0, 67, 107
1, 51090, Note_on_c, 0, 69, 104
1, 51189, Note_off_c, 0, 69, 104
1, 51206, Note_on_c, 0, 70, 105
1, 51298, Note_off_c, 0, 70, 105
1, 51305, Note_on_c, 0, 73, 98
1, 51376, Note_off_c, 0, 73, 98
1, 51376, Note_on_c, 0, 74, 88
1, 51461, Note_off_c, 0, 74, 88
1, 51581, Note_on_c, 0, 70, 102
1, 51747, Note_off_c, 0, 70, 102
1, 51750, Note_on_c, 0, 65, 10
1, 52190, Note_off_c, 0, 65, 10
1, 52190, End_track
0, 0, End_of_file
