0, 0, Header, 1, 1, 192
1, 0, Start_track
1, 0, Title_t, "Melody"
1, 0, Tempo, 431654
1, 0, Key_signature, -1, "major"
1, 0, Time_signature, 4, 2, 24, 8
1, 3173, Note_on_c, 0, 70, 104
1, 3219, Note_off_c, 0, 70, 104
1, 3222, Note_on_c, 0, 71, 109
1, 3252, Note_off_c, 0, 71, 109
1, 3258, Note_on_c, 0, 77, 120
1, 3353, Note_off_c, 0, 77, 120
1, 3362, Note_on_c, 0, 77, 118
1, 3456, Note_off_c, 0, 77, 118
1, 3458, Note_on_c, 0, 75, 97
1, 3496, Note_off_c, 0, 75, 97
1, 4265, Note_on_c, 0, 79, 114
1, 4304, Note_off_c, 0, 79, 114
1, 4432, Note_on_c, 0, 77, 119
1, 4528, Note_off_c, 0, 77, 119
1, 4528, Note_on_c, 0, 77, 118
1, 4636, Note_off_c, 0, 77, 118
1, 4637, Note_on_c, 0, 75, 111
1, 4713, Note_off_c, 0, 75, 111
1, 4725, Note_on_c, 0, 72, 97
1, 4803, Note_off_c, 0, 72, 97
1, 4813, Note_on_c, 0, 67, 95
1, 4880, Note_off_c, 0, 67, 95
1, 4915, Note_on_c, 0, 65, 84
1, 5009, Note_off_c, 0, 65, 84
1, 5021, Note_on_c, 0, 65, 94
1, 5070, Note_off_c, 0, 65, 94
1, 6162, Note_on_c, 0, 79, 121
1, 6218, Note_off_c, 0, 79, 121
1, 6218, Note_on_c, 0, 78, 117
1, 6243, Note_off_c, 0, 78, 117
1, 6243, Note_on_c, 0, 79, 112
1, 6275, Note_off_c, 0, 79, 112
1, 6324, Note_on_c, 0, 77, 114
1, 6432, Note_off_c, 0, 77, 114
1, 6433, Note_on_c, 0, 77, 115
1, 6520, Note_off_c, 0, 77, 115
1, 6527, Note_on_c, 0, 75, 107
1, 6605, Note_off_c, 0, 75, 107
1, 6605, Note_on_c, 0, 72, 94
1, 6713, Note_off_c, 0, 72, 94
1, 6732, Note_on_c, 0, 67, 91
1, 6802, Note_off_c, 0, 67, 91
1, 6930, Note_on_c, 0, 65, 95
1, 6998, Note_off_c, 0, 65, 95
1, 7586, Note_on_c, 0, 68, 94
1, 7620, Note_off_c, 0, 68, 94
1, 7620, Note_on_c, 0, 70, 104
1, 7649, Note_off_c, 0, 70, 104
1, 7725, Note_on_c, 0, 68, 100
1, 7754, Note_off_c, 0, 68, 100
1, 7757, Note_on_c, 0, 70, 103
1, 7784, Note_off_c, 0, 70, 103
1, 7831, Note_on_c, 0, 68, 95
1, 7867, Note_off_c, 0, 68, 95
1, 7870, Note_on_c, 0, 70, 103
1, 7922, Note_off_c, 0, 70, 103
1, 7954, Note_on_c, 0, 68, 98
1, 7990, Note_off_c, 0, 68, 98
1, 7994, Note_on_c, 0, 70, 93
1, 8117, Note_off_c, 0, 70, 93
1, 8119, Note_on_c, 0, 68, 88
1, 8213, Note_off_c, 0, 68, 88
1, 8236, Note_on_c, 0, 65, 86
1, 8395, Note_off_c, 0, 65, 86
1, 8434, Note_on_c, 0, 63, 90
1, 8510, Note_off_c, 0, 63, 90
1, 9280, Note_on_c, 0, 68, 86
1, 9341, Note_off_c, 0, 68, 86
1, 9343, Note_on_c, 0, 70, 113
1, 9422, Note_off_c, 0, 70, 113
1, 9423, Note_on_c, 0, 73, 117
1, 9510, Note_off_c, 0, 73, 117
1, 9513, Note_on_c, 0, 75, 119
1, 9594, Note_off_c, 0, 75, 119
1, 9597, Note_on_c, 0, 77, 120
1, 9688, Note_off_c, 0, 77, 120
1, 9692, Note_on_c, 0, 79, 120
1, 9788, Note_off_c, 0, 79, 120
1, 9795, Note_on_c, 0, 80, 116
1, 9874, Note_off_c, 0, 80, 116
1, 9878, Note_on_c, 0, 85, 116
1, 9933, Note_off_c, 0, 85, 116
1, 9949, Note_on_c, 0, 87, 119
1, 10175, Note_off_c, 0, 87, 119
1, 10184, Note_on_c, 0, 85, 125
1, 10294, Note_off_c, 0, 85, 125
1, 10299, Note_on_c, 0, 85, 120
1, 10378, Note_off_c, 0, 85, 120
1, 10659, Note_on_c, 0, 80, 109
1, 10802, Note_off_c, 0, 80, 109
1, 10820, Note_on_c, 0, 80, 116
1, 10932, Note_off_c, 0, 80, 116
1, 10937, Note_on_c, 0, 80, 115
1, 11029, Note_off_c, 0, 80, 115
1, 11030, Note_on_c, 0, 79, 116
1, 11109, Note_off_c, 0, 79, 116
1, 11112, Note_on_c, 0, 77, 108
1, 11202, Note_off_c, 0, 77, 108
1, 11202, Note_on_c, 0, 75, 104
1, 11290, Note_off_c, 0, 75, 104
1, 11297, Note_on_c, 0, 72, 94
1, 11396, Note_off_c, 0, 72, 94
1, 11403, Note_on_c, 0, 72, 106
1, 11446, Note_off_c, 0, 72, 106
1, 12078, Note_on_c, 0, 81, 121
1, 12119, Note_off_c, 0, 81, 121
1, 12122, Note_on_c, 0, 82, 121
1, 12149, Note_off_c, 0, 82, 121
1, 12152, Note_on_c, 0, 81, 126
1, 12190, Note_off_c, 0, 81, 126
1, 12206, Note_on_c, 0, 79, 110
1, 12452, Note_off_c, 0, 79, 110
1, 12455, Note_on_c, 0, 77, 98
1, 12585, Note_off_c, 0, 77, 98
1, 13278, Note_on_c, 0, 81, 116
1, 13370, Note_off_c, 0, 81, 116
1, 13372, Note_on_c, 0, 79, 107
1, 13396, Note_off_c, 0, 79, 107
1, 13406, Note_on_c, 0, 77, 109
1, 13455, Note_off_c, 0, 77, 109
1, 13459, Note_on_c, 0, 75, 112
1, 13551, Note_off_c, 0, 75, 112
1, 13556, Note_on_c, 0, 75, 107
1, 13650, Note_off_c, 0, 75, 107
1, 13653, Note_on_c, 0, 72, 101
1, 13738, Note_off_c, 0, 72, 101
1, 13837, Note_on_c, 0, 67, 102
1, 13902, Note_on_c, 0, 66, 99
1, 13902, Note_off_c, 0, 67, 102
1, 13938, Note_off_c, 0, 66, 99
1, 13938, Note_on_c, 0, 67, 87
1, 13970, Note_off_c, 0, 67, 87
1, 14687, Note_on_c, 0, 74, 79
1, 14721, Note_off_c, 0, 74, 79
1, 14764, Note_on_c, 0, 77, 117
1, 14845, Note_off_c, 0, 77, 117
1, 14845, Note_on_c, 0, 79, 111
1, 14939, Note_off_c, 0, 79, 111
1, 14939, Note_on_c, 0, 77, 113
1, 15027, Note_off_c, 0, 77, 113
1, 15041, Note_on_c, 0, 77, 113
1, 15128, Note_off_c, 0, 77, 113
1, 15128, Note_on_c, 0, 75, 103
1, 15207, Note_off_c, 0, 75, 103
1, 15212, Note_on_c, 0, 75, 103
1, 15308, Note_off_c, 0, 75, 103
1, 15340, Note_on_c, 0, 72, 102
1, 15379, Note_off_c, 0, 72, 102
1, 15438, Note_on_c, 0, 72, 105
1, 15523, Note_off_c, 0, 72, 105
1, 15533, Note_on_c, 0, 70, 90
1, 15612, Note_off_c, 0, 70, 90
1, 16068, Note_on_c, 0, 79, 115
1, 16556, Note_off_c, 0, 79, 115
1, 16560, Note_on_c, 0, 80, 114
1, 16663, Note_off_c, 0, 80, 114
1, 16668, Note_on_c, 0, 73, 110
1, 16836, Note_off_c, 0, 73, 110
1, 16848, Note_on_c, 0, 73, 113
1, 17191, Note_off_c, 0, 73, 113
1, 17212, Note_on_c, 0, 71, 92
1, 17293, Note_off_c, 0, 71, 92
1, 17298, Note_on_c, 0, 70, 90
1, 17385, Note_off_c, 0, 70, 90
1, 17399, Note_on_c, 0, 68, 83
1, 17438, Note_off_c, 0, 68, 83
1, 18195, Note_on_c, 0, 62, 96
1, 18236, Note_off_c, 0, 62, 96
1, 18241, Note_on_c, 0, 65, 94
1, 18277, Note_off_c, 0, 65, 94
1, 18298, Note_on_c, 0, 62, 92
1, 18336, Note_off_c, 0, 62, 92
1, 18337, Note_on_c, 0, 63, 88
1, 18371, Note_on_c, 0, 65, 99
1, 18371, Note_off_c, 0, 63, 88
1, 18407, Note_off_c, 0, 65, 99
1, 18417, Note_on_c, 0, 66, 95
1, 18458, Note_off_c, 0, 66, 95
1, 18461, Note_on_c, 0, 68, 92
1, 18488, Note_off_c, 0, 68, 92
1, 18491, Note_on_c, 0, 70, 106
1, 18530, Note_off_c, 0, 70, 106
1, 18531, Note_on_c, 0, 69, 107
1, 18567, Note_off_c, 0, 69, 107
1, 18577, Note_on_c, 0, 68, 96
1, 18847, Note_off_c, 0, 68, 96
1, 18857, Note_on_c, 0, 73, 113
1, 18945, Note_off_c, 0, 73, 113
1, 18945, Note_on_c, 0, 77, 115
1, 19041, Note_off_c, 0, 77, 115
1, 19055, Note_on_c, 0, 77, 118
1, 19133, Note_off_c, 0, 77, 118
1, 19134, Note_on_c, 0, 79, 114
1, 19179, Note_off_c, 0, 79, 114
1, 19181, Note_on_c, 0, 80, 117
1, 19224, Note_off_c, 0, 80, 117
1, 19225, Note_on_c, 0, 82, 119
1, 19266, Note_off_c, 0, 82, 119
1, 19269, Note_on_c, 0, 83, 125
1, 19303, Note_off_c, 0, 83, 125
1, 19306, Note_on_c, 0, 84, 127
1, 19322, Note_off_c, 0, 84, 127
1, 19322, Note_on_c, 0, 85, 125
1, 19340, Note_off_c, 0, 85, 125
1, 19340, Note_on_c, 0, 86, 118
1, 19367, Note_off_c, 0, 86, 118
1, 19376, Note_on_c, 0, 87, 116
1, 19439, Note_off_c, 0, 87, 116
1, 19442, Note_on_c, 0, 88, 98
1, 19478, Note_off_c, 0, 88, 98
1, 19915, Note_on_c, 0, 84, 110
1, 19956, Note_off_c, 0, 84, 110
1, 19963, Note_on_c, 0, 87, 104
1, 19988, Note_off_c, 0, 87, 104
1, 20009, Note_on_c, 0, 89, 111
1, 20036, Note_off_c, 0, 89, 111
1, 20039, Note_on_c, 0, 90, 119
1, 20075, Note_off_c, 0, 90, 119
1, 20076, Note_on_c, 0, 90, 103
1, 20114, Note_off_c, 0, 90, 103
1, 20119, Note_on_c, 0, 89, 118
1, 20142, Note_on_c, 0, 88, 118
1, 20142, Note_off_c, 0, 89, 118
1, 20203, Note_off_c, 0, 88, 118
1, 20203, Note_on_c, 0, 90, 90
1, 20252, Note_off_c, 0, 90, 90
1, 20253, Note_on_c, 0, 88, 107
1, 20282, Note_off_c, 0, 88, 107
1, 20283, Note_on_c, 0, 87, 117
1, 20384, Note_off_c, 0, 87, 117
1, 20389, Note_on_c, 0, 85, 113
1, 20467, Note_off_c, 0, 85, 113
1, 20594, Note_on_c, 0, 84, 118
1, 20644, Note_off_c, 0, 84, 118
1, 20760, Note_on_c, 0, 82, 109
1, 20821, Note_off_c, 0, 82, 109
1, 20957, Note_on_c, 0, 80, 112
1, 21004, Note_off_c, 0, 80, 112
1, 21155, Note_on_c, 0, 79, 111
1, 21222, Note_off_c, 0, 79, 111
1, 21243, Note_on_c, 0, 74, 102
1, 21337, Note_off_c, 0, 74, 102
1, 21337, Note_on_c, 0, 75, 111
1, 21416, Note_off_c, 0, 75, 111
1, 22258, Note_on_c, 0, 79, 118
1, 22446, Note_off_c, 0, 79, 118
1, 22446, Note_on_c, 0, 79, 116
1, 22649, Note_off_c, 0, 79, 116
1, 22652, Note_on_c, 0, 77, 111
1, 22735, Note_off_c, 0, 77, 111
1, 22735, Note_on_c, 0, 75, 103
1, 22860, Note_off_c, 0, 75, 103
1, 22867, Note_on_c, 0, 77, 88
1, 22897, Note_off_c, 0, 77, 88
1, 22897, Note_on_c, 0, 75, 102
1, 23025, Note_off_c, 0, 75, 102
1, 23039, Note_on_c, 0, 75, 88
1, 23080, Note_off_c, 0, 75, 88
1, 23866, Note_on_c, 0, 79, 120
1, 23971, Note_off_c, 0, 79, 120
1, 23976, Note_on_c, 0, 77, 113
1, 24050, Note_off_c, 0, 77, 113
1, 24055, Note_on_c, 0, 75, 100
1, 24145, Note_off_c, 0, 75, 100
1, 24184, Note_on_c, 0, 72, 72
1, 24236, Note_off_c, 0, 72, 72
1, 24272, Note_on_c, 0, 68, 88
1, 24370, Note_off_c, 0, 68, 88
1, 24386, Note_on_c, 0, 65, 80
1, 24433, Note_off_c, 0, 65, 80
1, 24442, Note_on_c, 0, 68, 101
1, 24498, Note_off_c, 0, 68, 101
1, 24498, Note_on_c, 0, 67, 94
1, 24547, Note_off_c, 0, 67, 94
1, 24548, Note_on_c, 0, 68, 86
1, 24571, Note_off_c, 0, 68, 86
1, 25373, Note_on_c, 0, 79, 101
1, 25396, Note_off_c, 0, 79, 101
1, 25396, Note_on_c, 0, 77, 119
1, 25488, Note_off_c, 0, 77, 119
1, 25546, Note_on_c, 0, 72, 80
1, 25567, Note_off_c, 0, 72, 80
1, 25572, Note_on_c, 0, 75, 110
1, 25766, Note_off_c, 0, 75, 110
1, 25767, Note_on_c, 0, 75, 110
1, 25875, Note_off_c, 0, 75, 110
1, 25875, Note_on_c, 0, 75, 108
1, 26121, Note_off_c, 0, 75, 108
1, 26134, Note_on_c, 0, 72, 100
1, 26213, Note_off_c, 0, 72, 100
1, 27027, Note_on_c, 0, 65, 84
1, 27050, Note_off_c, 0, 65, 84
1, 27051, Note_on_c, 0, 67, 80
1, 27085, Note_off_c, 0, 67, 80
1, 27090, Note_on_c, 0, 68, 10
1, 27177, Note_off_c, 0, 68, 10
1, 27189, Note_on_c, 0, 70, 113
1, 27279, Note_off_c, 0, 70, 113
1, 27281, Note_on_c, 0, 71, 109
1, 27311, Note_off_c, 0, 71, 109
1, 27315, Note_on_c, 0, 72, 114
1, 27347, Note_off_c, 0, 72, 114
1, 27356, Note_on_c, 0, 73, 113
1, 27392, Note_off_c, 0, 73, 113
1, 27399, Note_on_c, 0, 74, 115
1, 27493, Note_off_c, 0, 74, 115
1, 27501, Note_on_c, 0, 75, 113
1, 27578, Note_off_c, 0, 75, 113
1, 27579, Note_on_c, 0, 77, 118
1, 27651, Note_off_c, 0, 77, 118
1, 27660, Note_on_c, 0, 79, 113
1, 27683, Note_off_c, 0, 79, 113
1, 27689, Note_on_c, 0, 80, 114
1, 27728, Note_off_c, 0, 80, 114
1, 27734, Note_on_c, 0, 83, 103
1, 27762, Note_off_c, 0, 83, 103
1, 27763, Note_on_c, 0, 84, 122
1, 27797, Note_off_c, 0, 84, 122
1, 27798, Note_on_c, 0, 86, 122
1, 27841, Note_off_c, 0, 86, 122
1, 27841, Note_on_c, 0, 87, 111
1, 27877, Note_off_c, 0, 87, 111
1, 27881, Note_on_c, 0, 88, 84
1, 27910, Note_off_c, 0, 88, 84
1, 28587, Note_on_c, 0, 80, 110
1, 28746, Note_on_c, 0, 80, 110
1, 28746, Note_off_c, 0, 80, 110
1, 28878, Note_off_c, 0, 80, 110
1, 28879, Note_on_c, 0, 79, 113
1, 28973, Note_off_c, 0, 79, 113
1, 28974, Note_on_c, 0, 77, 109
1, 29077, Note_off_c, 0, 77, 109
1, 29080, Note_on_c, 0, 75, 102
1, 29152, Note_off_c, 0, 75, 102
1, 29159, Note_on_c, 0, 72, 99
1, 29215, Note_off_c, 0, 72, 99
1, 30275, Note_on_c, 0, 79, 114
1, 30337, Note_off_c, 0, 79, 114
1, 30501, Note_on_c, 0, 77, 116
1, 30704, Note_off_c, 0, 77, 116
1, 30709, Note_on_c, 0, 75, 105
1, 30792, Note_off_c, 0, 75, 105
1, 30888, Note_on_c, 0, 72, 103
1, 31006, Note_off_c, 0, 72, 103
1, 31085, Note_on_c, 0, 65, 91
1, 31177, Note_off_c, 0, 65, 91
1, 31271, Note_on_c, 0, 65, 84
1, 31381, Note_off_c, 0, 65, 84
1, 31471, Note_on_c, 0, 65, 83
1, 31614, Note_off_c, 0, 65, 83
1, 31666, Note_on_c, 0, 65, 82
1, 31767, Note_off_c, 0, 65, 82
1, 31770, Note_on_c, 0, 68, 104
1, 31828, Note_off_c, 0, 68, 104
1, 31829, Note_on_c, 0, 70, 95
1, 31934, Note_off_c, 0, 70, 95
1, 31943, Note_on_c, 0, 68, 96
1, 32010, Note_off_c, 0, 68, 96
1, 32024, Note_on_c, 0, 65, 82
1, 32125, Note_off_c, 0, 65, 82
1, 32126, Note_on_c, 0, 65, 95
1, 32191, Note_off_c, 0, 65, 95
1, 33196, Note_on_c, 0, 71, 89
1, 33234, Note_off_c, 0, 71, 89
1, 33237, Note_on_c, 0, 74, 100
1, 33287, Note_off_c, 0, 74, 100
1, 33287, Note_on_c, 0, 79, 120
1, 33479, Note_off_c, 0, 79, 120
1, 33479, Note_on_c, 0, 79, 118
1, 33571, Note_off_c, 0, 79, 118
1, 33576, Note_on_c, 0, 79, 114
1, 33666, Note_off_c, 0, 79, 114
1, 33673, Note_on_c, 0, 77, 110
1, 33752, Note_off_c, 0, 77, 110
1, 33753, Note_on_c, 0, 75, 105
1, 33856, Note_off_c, 0, 75, 105
1, 34453, Note_on_c, 0, 72, 93
1, 34477, Note_off_c, 0, 72, 93
1, 34479, Note_on_c, 0, 74, 98
1, 34517, Note_off_c, 0, 74, 98
1, 34526, Note_on_c, 0, 74, 115
1, 34551, Note_off_c, 0, 74, 115
1, 34551, Note_on_c, 0, 74, 117
1, 34594, Note_off_c, 0, 74, 117
1, 34594, Note_on_c, 0, 74, 118
1, 34630, Note_off_c, 0, 74, 118
1, 34630, Note_on_c, 0, 74, 115
1, 34669, Note_off_c, 0, 74, 115
1, 34670, Note_on_c, 0, 74, 116
1, 34699, Note_off_c, 0, 74, 116
1, 34699, Note_on_c, 0, 74, 117
1, 34742, Note_off_c, 0, 74, 117
1, 34742, Note_on_c, 0, 74, 116
1, 34787, Note_off_c, 0, 74, 116
1, 34787, Note_on_c, 0, 74, 117
1, 34819, Note_off_c, 0, 74, 117
1, 34822, Note_on_c, 0, 74, 118
1, 34849, Note_off_c, 0, 74, 118
1, 34849, Note_on_c, 0, 74, 109
1, 34888, Note_off_c, 0, 74, 109
1, 34893, Note_on_c, 0, 75, 112
1, 34920, Note_off_c, 0, 75, 112
1, 34920, Note_on_c, 0, 75, 112
1, 34959, Note_off_c, 0, 75, 112
1, 34962, Note_on_c, 0, 75, 114
1, 34981, Note_off_c, 0, 75, 114
1, 34981, Note_on_c, 0, 75, 107
1, 35011, Note_off_c, 0, 75, 107
1, 35013, Note_on_c, 0, 74, 107
1, 35033, Note_off_c, 0, 74, 107
1, 35034, Note_on_c, 0, 72, 103
1, 35066, Note_off_c, 0, 72, 103
1, 35067, Note_on_c, 0, 72, 99
1, 35086, Note_off_c, 0, 72, 99
1, 35086, Note_on_c, 0, 72, 103
1, 35125, Note_off_c, 0, 72, 103
1, 35125, Note_on_c, 0, 72, 110
1, 35157, Note_off_c, 0, 72, 110
1, 35157, Note_on_c, 0, 72, 110
1, 35198, Note_off_c, 0, 72, 110
1, 35198, Note_on_c, 0, 72, 113
1, 35228, Note_off_c, 0, 72, 113
1, 35230, Note_on_c, 0, 72, 109
1, 35259, Note_off_c, 0, 72, 109
1, 35268, Note_on_c, 0, 74, 105
1, 35295, Note_off_c, 0, 74, 105
1, 35296, Note_on_c, 0, 72, 106
1, 35330, Note_off_c, 0, 72, 106
1, 35330, Note_on_c, 0, 72, 98
1, 35359, Note_off_c, 0, 72, 98
1, 35361, Note_on_c, 0, 72, 104
1, 35395, Note_off_c, 0, 72, 104
1, 35397, Note_on_c, 0, 74, 98
1, 35427, Note_off_c, 0, 74, 98
1, 35432, Note_on_c, 0, 72, 95
1, 35466, Note_off_c, 0, 72, 95
1, 35478, Note_on_c, 0, 74, 90
1, 35512, Note_off_c, 0, 74, 90
1, 35515, Note_on_c, 0, 72, 101
1, 35531, Note_off_c, 0, 72, 101
1, 35532, Note_on_c, 0, 70, 96
1, 35615, Note_off_c, 0, 70, 96
1, 36523, Note_on_c, 0, 69, 108
1, 36604, Note_off_c, 0, 69, 108
1, 36606, Note_on_c, 0, 70, 113
1, 36684, Note_off_c, 0, 70, 113
1, 36684, Note_on_c, 0, 73, 113
1, 36860, Note_off_c, 0, 73, 113
1, 36863, Note_on_c, 0, 75, 113
1, 37039, Note_off_c, 0, 75, 113
1, 37039, Note_on_c, 0, 77, 118
1, 37124, Note_off_c, 0, 77, 118
1, 37130, Note_on_c, 0, 79, 117
1, 37216, Note_off_c, 0, 79, 117
1, 37217, Note_on_c, 0, 80, 115
1, 37304, Note_off_c, 0, 80, 115
1, 37305, Note_on_c, 0, 82, 112
1, 37314, Note_off_c, 0, 82, 112
1, 37315, Note_on_c, 0, 80, 112
1, 37403, Note_off_c, 0, 80, 112
1, 37404, Note_on_c, 0, 79, 109
1, 37482, Note_off_c, 0, 79, 109
1, 37482, Note_on_c, 0, 82, 96
1, 37496, Note_off_c, 0, 82, 96
1, 37497, Note_on_c, 0, 80, 112
1, 37578, Note_off_c, 0, 80, 112
1, 37579, Note_on_c, 0, 79, 110
1, 37662, Note_off_c, 0, 79, 110
1, 37671, Note_on_c, 0, 77, 110
1, 37750, Note_off_c, 0, 77, 110
1, 37750, Note_on_c, 0, 75, 95
1, 37773, Note_off_c, 0, 75, 95
1, 37783, Note_on_c, 0, 72, 110
1, 37859, Note_off_c, 0, 72, 110
1, 37859, Note_on_c, 0, 71, 104
1, 37949, Note_off_c, 0, 71, 104
1, 37952, Note_on_c, 0, 70, 105
1, 38033, Note_off_c, 0, 70, 105
1, 38049, Note_on_c, 0, 68, 93
1, 38147, Note_off_c, 0, 68, 93
1, 38172, Note_on_c, 0, 68, 99
1, 38204, Note_off_c, 0, 68, 99
1, 39398, Note_on_c, 0, 77, 115
1, 39519, Note_off_c, 0, 77, 115
1, 39577, Note_on_c, 0, 79, 118
1, 39760, Note_off_c, 0, 79, 118
1, 39760, Note_on_c, 0, 77, 108
1, 39894, Note_off_c, 0, 77, 108
1, 39898, Note_on_c, 0, 75, 106
1, 40121, Note_off_c, 0, 75, 106
1, 40127, Note_on_c, 0, 72, 105
1, 40244, Note_off_c, 0, 72, 105
1, 40340, Note_on_c, 0, 70, 101
1, 40425, Note_off_c, 0, 70, 101
1, 40429, Note_on_c, 0, 69, 96
1, 40461, Note_off_c, 0, 69, 96
1, 40467, Note_on_c, 0, 70, 95
1, 40503, Note_off_c, 0, 70, 95
1, 40530, Note_on_c, 0, 68, 93
1, 40660, Note_off_c, 0, 68, 93
1, 40721, Note_on_c, 0, 65, 90
1, 40884, Note_off_c, 0, 65, 90
1, 40889, Note_on_c, 0, 67, 98
1, 40967, Note_off_c, 0, 67, 98
1, 41289, Note_on_c, 0, 77, 119
1, 41414, Note_off_c, 0, 77, 119
1, 41500, Note_on_c, 0, 79, 119
1, 41619, Note_off_c, 0, 79, 119
1, 41624, Note_on_c, 0, 77, 121
1, 41683, Note_off_c, 0, 77, 121
1, 41684, Note_on_c, 0, 75, 107
1, 41807, Note_off_c, 0, 75, 107
1, 41812, Note_on_c, 0, 72, 109
1, 41891, Note_off_c, 0, 72, 109
1, 42019, Note_on_c, 0, 65, 94
1, 42120, Note_off_c, 0, 65, 94
1, 42201, Note_on_c, 0, 68, 107
1, 42268, Note_off_c, 0, 68, 107
1, 42318, Note_on_c, 0, 70, 111
1, 42363, Note_off_c, 0, 70, 111
1, 42363, Note_on_c, 0, 69, 106
1, 42426, Note_off_c, 0, 69, 106
1, 42475, Note_on_c, 0, 70, 104
1, 42589, Note_off_c, 0, 70, 104
1, 42601, Note_on_c, 0, 70, 110
1, 42657, Note_off_c, 0, 70, 110
1, 42677, Note_on_c, 0, 70, 98
1, 42788, Note_off_c, 0, 70, 98
1, 42818, Note_on_c, 0, 68, 92
1, 42848, Note_off_c, 0, 68, 92
1, 42866, Note_on_c, 0, 71, 110
1, 42909, Note_off_c, 0, 71, 110
1, 42910, Note_on_c, 0, 70, 105
1, 42959, Note_off_c, 0, 70, 105
1, 42962, Note_on_c, 0, 71, 98
1, 42991, Note_off_c, 0, 71, 98
1, 43639, Note_on_c, 0, 79, 120
1, 43753, Note_off_c, 0, 79, 120
1, 43841, Note_on_c, 0, 79, 94
1, 43855, Note_off_c, 0, 79, 94
1, 43855, Note_on_c, 0, 77, 110
1, 43980, Note_on_c, 0, 75, 106
1, 43980, Note_off_c, 0, 77, 110
1, 44047, Note_off_c, 0, 75, 106
1, 44050, Note_on_c, 0, 72, 90
1, 44178, Note_off_c, 0, 72, 90
1, 44203, Note_on_c, 0, 72, 97
1, 44391, Note_off_c, 0, 72, 97
1, 44410, Note_on_c, 0, 65, 83
1, 44455, Note_off_c, 0, 65, 83
1, 44455, Note_on_c, 0, 68, 96
1, 44516, Note_off_c, 0, 68, 96
1, 44516, Note_on_c, 0, 67, 89
1, 44574, Note_off_c, 0, 67, 89
1, 45548, Note_on_c, 0, 65, 97
1, 45589, Note_off_c, 0, 65, 97
1, 45591, Note_on_c, 0, 67, 98
1, 45654, Note_off_c, 0, 67, 98
1, 45654, Note_on_c, 0, 68, 106
1, 45713, Note_off_c, 0, 68, 106
1, 45714, Note_on_c, 0, 69, 111
1, 45773, Note_off_c, 0, 69, 111
1, 45780, Note_on_c, 0, 70, 115
1, 45858, Note_off_c, 0, 70, 115
1, 45867, Note_on_c, 0, 71, 111
1, 46142, Note_off_c, 0, 71, 111
1, 46156, Note_on_c, 0, 70, 112
1, 46346, Note_off_c, 0, 70, 112
1, 46358, Note_on_c, 0, 67, 99
1, 46425, Note_off_c, 0, 67, 99
1, 46437, Note_on_c, 0, 71, 103
1, 46460, Note_off_c, 0, 71, 103
1, 46465, Note_on_c, 0, 70, 106
1, 46503, Note_off_c, 0, 70, 106
1, 46513, Note_on_c, 0, 71, 113
1, 46563, Note_off_c, 0, 71, 113
1, 46564, Note_on_c, 0, 72, 117
1, 46603, Note_off_c, 0, 72, 117
1, 46612, Note_on_c, 0, 73, 118
1, 46955, Note_on_c, 0, 71, 113
1, 46955, Note_off_c, 0, 73, 118
1, 47047, Note_off_c, 0, 71, 113
1, 47048, Note_on_c, 0, 70, 103
1, 47122, Note_off_c, 0, 70, 103
1, 47138, Note_on_c, 0, 66, 87
1, 47216, Note_off_c, 0, 66, 87
1, 47219, Note_on_c, 0, 68, 101
1, 47273, Note_off_c, 0, 68, 101
1, 47282, Note_on_c, 0, 69, 109
1, 47331, Note_off_c, 0, 69, 109
1, 47334, Note_on_c, 0, 70, 116
1, 47419, Note_off_c, 0, 70, 116
1, 47426, Note_on_c, 0, 71, 115
1, 47533, Note_off_c, 0, 71, 115
1, 47533, Note_on_c, 0, 70, 111
1, 47589, Note_off_c, 0, 70, 111
1, 47614, Note_on_c, 0, 68, 94
1, 47732, Note_off_c, 0, 68, 94
1, 47753, Note_on_c, 0, 66, 85
1, 47783, Note_off_c, 0, 66, 85
1, 47790, Note_on_c, 0, 70, 105
1, 47940, Note_off_c, 0, 70, 105
1, 47940, Note_on_c, 0, 70, 97
1, 47998, Note_off_c, 0, 70, 97
1, 48635, Note_on_c, 0, 79, 118
1, 48780, Note_off_c, 0, 79, 118
1, 48827, Note_on_c, 0, 79, 115
1, 48977, Note_off_c, 0, 79, 115
1, 48980, Note_on_c, 0, 80, 107
1, 49608, Note_off_c, 0, 80, 107
1, 49620, Note_on_c, 0, 79, 105
1, 49676, Note_off_c, 0, 79, 105
1, 49956, Note_on_c, 0, 77, 95
1, 50001, Note_off_c, 0, 77, 95
1, 50222, Note_on_c, 0, 79, 119
1, 50286, Note_off_c, 0, 79, 119
1, 50287, Note_on_c, 0, 78, 113
1, 50316, Note_off_c, 0, 78, 113
1, 50319, Note_on_c, 0, 79, 105
1, 50351, Note_off_c, 0, 79, 105
1, 50543, Note_on_c, 0, 77, 114
1, 50581, Note_off_c, 0, 77, 114
1, 50814, Note_on_c, 0, 75, 113
1, 50850, Note_off_c, 0, 75, 113
1, 51152, Note_on_c, 0, 77, 117
1, 51186, Note_off_c, 0, 77, 117
1, 51334, Note_on_c, 0, 78, 108
1, 51363, Note_off_c, 0, 78, 108
1, 51363, Note_on_c, 0, 80, 119
1, 51384, Note_off_c, 0, 80, 119
1, 51394, Note_on_c, 0, 81, 108
1, 51419, Note_off_c, 0, 81, 108
1, 51426, Note_on_c, 0, 87, 124
1, 51473, Note_off_c, 0, 87, 124
1, 51474, Note_on_c, 0, 89, 116
1, 51495, Note_off_c, 0, 89, 116
1, 51727, Note_on_c, 0, 85, 105
1, 51804, Note_off_c, 0, 85, 105
1, 51998, Note_on_c, 0, 84, 121
1, 52139, Note_off_c, 0, 84, 121
1, 52146, Note_on_c, 0, 83, 117
1, 52195, Note_off_c, 0, 83, 117
1, 52403, Note_on_c, 0, 82, 114
1, 52446, Note_off_c, 0, 82, 114
1, 52602, Note_on_c, 0, 79, 106
1, 52696, Note_off_c, 0, 79, 106
1, 52703, Note_on_c, 0, 80, 111
1, 52726, Note_off_c, 0, 80, 111
1, 52727, Note_on_c, 0, 79, 111
1, 52766, Note_off_c, 0, 79, 111
1, 52929, Note_on_c, 0, 77, 112
1, 52976, Note_off_c, 0, 77, 112
1, 53199, Note_on_c, 0, 75, 106
1, 53260, Note_off_c, 0, 75, 106
1, 53376, Note_on_c, 0, 71, 94
1, 53427, Note_off_c, 0, 71, 94
1, 53431, Note_on_c, 0, 68, 91
1, 53502, Note_off_c, 0, 68, 91
1, 53505, Note_on_c, 0, 71, 105
1, 53583, Note_off_c, 0, 71, 105
1, 53594, Note_on_c, 0, 70, 101
1, 53623, Note_off_c, 0, 70, 101
1, 53955, Note_on_c, 0, 65, 81
1, 54007, Note_off_c, 0, 65, 81
1, 54017, Note_on_c, 0, 68, 95
1, 54096, Note_off_c, 0, 68, 95
1, 54119, Note_on_c, 0, 70, 114
1, 54187, Note_off_c, 0, 70, 114
1, 54237, Note_on_c, 0, 70, 113
1, 54344, Note_off_c, 0, 70, 113
1, 54347, Note_on_c, 0, 69, 80
1, 54383, Note_off_c, 0, 69, 80
1, 54386, Note_on_c, 0, 70, 114
1, 54509, Note_off_c, 0, 70, 114
1, 54512, Note_on_c, 0, 71, 115
1, 54573, Note_off_c, 0, 71, 115
1, 54573, Note_on_c, 0, 70, 108
1, 54732, Note_off_c, 0, 70, 108
1, 54732, Note_on_c, 0, 71, 104
1, 54779, Note_off_c, 0, 71, 104
1, 54824, Note_on_c, 0, 70, 109
1, 54909, Note_off_c, 0, 70, 109
1, 54941, Note_on_c, 0, 68, 109
1, 55006, Note_off_c, 0, 68, 109
1, 55056, Note_on_c, 0, 65, 107
1, 55123, Note_off_c, 0, 65, 107
1, 55141, Note_on_c, 0, 68, 108
1, 55200, Note_off_c, 0, 68, 108
1, 55207, Note_on_c, 0, 70, 112
1, 55299, Note_off_c, 0, 70, 112
1, 55318, Note_on_c, 0, 68, 108
1, 55398, Note_off_c, 0, 68, 108
1, 55418, Note_on_c, 0, 69, 110
1, 55521, Note_off_c, 0, 69, 110
1, 55528, Note_on_c, 0, 70, 115
1, 55624, Note_off_c, 0, 70, 115
1, 55636, Note_on_c, 0, 71, 113
1, 55690, Note_off_c, 0, 71, 113
1, 55691, Note_on_c, 0, 72, 115
1, 55736, Note_off_c, 0, 72, 115
1, 55737, Note_on_c, 0, 73, 112
1, 55782, Note_off_c, 0, 73, 112
1, 55785, Note_on_c, 0, 74, 117
1, 55830, Note_off_c, 0, 74, 117
1, 55830, Note_on_c, 0, 75, 115
1, 55924, Note_off_c, 0, 75, 115
1, 55940, Note_on_c, 0, 70, 112
1, 55992, Note_off_c, 0, 70, 112
1, 55992, Note_on_c, 0, 69, 110
1, 56050, Note_off_c, 0, 69, 110
1, 56088, Note_on_c, 0, 67, 106
1, 56127, Note_off_c, 0, 67, 106
1, 56127, Note_on_c, 0, 68, 107
1, 56306, Note_off_c, 0, 68, 107
1, 56318, Note_on_c, 0, 69, 103
1, 56350, Note_off_c, 0, 69, 103
1, 56351, Note_on_c, 0, 70, 113
1, 56394, Note_off_c, 0, 70, 113
1, 56399, Note_on_c, 0, 71, 113
1, 56437, Note_off_c, 0, 71, 113
1, 56440, Note_on_c, 0, 72, 115
1, 56476, Note_off_c, 0, 72, 115
1, 56481, Note_on_c, 0, 73, 111
1, 56502, Note_off_c, 0, 73, 111
1, 56504, Note_on_c, 0, 74, 116
1, 56544, Note_off_c, 0, 74, 116
1, 56545, Note_on_c, 0, 75, 116
1, 56612, Note_off_c, 0, 75, 116
1, 56630, Note_on_c, 0, 73, 107
1, 56697, Note_off_c, 0, 73, 107
1, 57103, Note_on_c, 0, 74, 121
1, 57205, Note_off_c, 0, 74, 121
1, 57205, Note_on_c, 0, 75, 114
1, 57584, Note_off_c, 0, 75, 114
1, 57593, Note_on_c, 0, 72, 107
1, 57667, Note_off_c, 0, 72, 107
1, 58024, Note_on_c, 0, 58, 88
1, 58114, Note_off_c, 0, 58, 88
1, 58123, Note_on_c, 0, 62, 99
1, 58393, Note_off_c, 0, 62, 99
1, 58416, Note_on_c, 0, 65, 93
1, 58495, Note_off_c, 0, 65, 93
1, 58505, Note_on_c, 0, 68, 100
1, 58559, Note_off_c, 0, 68, 100
1, 58561, Note_on_c, 0, 67, 102
1, 58590, Note_off_c, 0, 67, 102
1, 58590, End_track
0, 0, End_of_file
