0, 0, Header, 1, 1, 192
1, 0, Start_track
1, 0, Title_t, "Melody"
1, 0, Tempo, 218181
1, 0, Time_signature, 4, 2, 24, 8
1, 3897, Note_on_c, 0, 74, 98
1, 3994, Note_off_c, 0, 74, 98
1, 4070, Note_on_c, 0, 76, 96
1, 4187, Note_off_c, 0, 76, 96
1, 4263, Note_on_c, 0, 77, 125
1, 4431, Note_off_c, 0, 77, 125
1, 4439, Note_on_c, 0, 80, 110
1, 4468, Note_off_c, 0, 80, 110
1, 4478, Note_on_c, 0, 81, 119
1, 4566, Note_off_c, 0, 81, 119
1, 4578, Note_on_c, 0, 81, 125
1, 4692, Note_off_c, 0, 81, 125
1, 5015, Note_on_c, 0, 81, 116
1, 5126, Note_off_c, 0, 81, 116
1, 5639, Note_on_c, 0, 71, 121
1, 5725, Note_off_c, 0, 71, 121
1, 5732, Note_on_c, 0, 72, 121
1, 5775, Note_off_c, 0, 72, 121
1, 5782, Note_on_c, 0, 71, 114
1, 5857, Note_off_c, 0, 71, 114
1, 5874, Note_on_c, 0, 68, 107
1, 5967, Note_off_c, 0, 68, 107
1, 5981, Note_on_c, 0, 67, 111
1, 6063, Note_off_c, 0, 67, 111
1, 6084, Note_on_c, 0, 66, 117
1, 6155, Note_off_c, 0, 66, 117
1, 6169, Note_on_c, 0, 65, 113
1, 6276, Note_off_c, 0, 65, 113
1, 6297, Note_on_c, 0, 64, 110
1, 6350, Note_off_c, 0, 64, 110
1, 6357, Note_on_c, 0, 63, 106
1, 6450, Note_off_c, 0, 63, 106
1, 6471, Note_on_c, 0, 65, 121
1, 6564, Note_off_c, 0, 65, 121
1, 6574, Note_on_c, 0, 62, 90
1, 6649, Note_off_c, 0, 62, 90
1, 6649, Note_on_c, 0, 65, 115
1, 6731, Note_off_c, 0, 65, 115
1, 6741, Note_on_c, 0, 64, 116
1, 6830, Note_off_c, 0, 64, 116
1, 6844, Note_on_c, 0, 62, 94
1, 6944, Note_off_c, 0, 62, 94
1, 6954, Note_on_c, 0, 63, 114
1, 7036, Note_off_c, 0, 63, 114
1, 7043, Note_on_c, 0, 65, 115
1, 7136, Note_off_c, 0, 65, 115
1, 7139, Note_on_c, 0, 67, 115
1, 7214, Note_off_c, 0, 67, 115
1, 7249, Note_on_c, 0, 64, 97
1, 7310, Note_off_c, 0, 64, 97
1, 7310, Note_on_c, 0, 69, 121
1, 7428, Note_off_c, 0, 69, 121
1, 7463, Note_on_c, 0, 63, 103
1, 7509, Note_off_c, 0, 63, 103
1, 7516, Note_on_c, 0, 71, 122
1, 7616, Note_off_c, 0, 71, 122
1, 7623, Note_on_c, 0, 67, 105
1, 7691, Note_off_c, 0, 67, 105
1, 7716, Note_on_c, 0, 72, 123
1, 7791, Note_off_c, 0, 72, 123
1, 7805, Note_on_c, 0, 68, 99
1, 7876, Note_off_c, 0, 68, 99
1, 7890, Note_on_c, 0, 73, 114
1, 7986, Note_off_c, 0, 73, 114
1, 7986, Note_on_c, 0, 74, 110
1, 8097, Note_off_c, 0, 74, 110
1, 8176, Note_on_c, 0, 75, 108
1, 8283, Note_off_c, 0, 75, 108
1, 8283, Note_on_c, 0, 77, 111
1, 8372, Note_off_c, 0, 77, 111
1, 8379, Note_on_c, 0, 79, 121
1, 8458, Note_off_c, 0, 79, 121
1, 8461, Note_on_c, 0, 80, 123
1, 8723, Note_off_c, 0, 80, 123
1, 8733, Note_on_c, 0, 76, 100
1, 8833, Note_off_c, 0, 76, 100
1, 8843, Note_on_c, 0, 79, 120
1, 8965, Note_on_c, 0, 76, 121
1, 8965, Note_off_c, 0, 79, 120
1, 9036, Note_off_c, 0, 76, 121
1, 9036, Note_on_c, 0, 77, 114
1, 9136, Note_off_c, 0, 77, 114
1, 9139, Note_on_c, 0, 76, 123
1, 9225, Note_off_c, 0, 76, 123
1, 9228, Note_on_c, 0, 75, 121
1, 9296, Note_off_c, 0, 75, 121
1, 9306, Note_on_c, 0, 72, 117
1, 9392, Note_off_c, 0, 72, 117
1, 9395, Note_on_c, 0, 73, 122
1, 9502, Note_off_c, 0, 73, 122
1, 9541, Note_on_c, 0, 68, 105
1, 9595, Note_off_c, 0, 68, 105
1, 9620, Note_on_c, 0, 72, 109
1, 9695, Note_off_c, 0, 72, 109
1, 9763, Note_on_c, 0, 77, 122
1, 9960, Note_off_c, 0, 77, 122
1, 9970, Note_on_c, 0, 75, 123
1, 10142, Note_off_c, 0, 75, 123
1, 10151, Note_on_c, 0, 73, 121
1, 10251, Note_off_c, 0, 73, 121
1, 10263, Note_on_c, 0, 72, 124
1, 10367, Note_off_c, 0, 72, 124
1, 10369, Note_on_c, 0, 71, 119
1, 10483, Note_off_c, 0, 71, 119
1, 10569, Note_on_c, 0, 69, 113
1, 10612, Note_off_c, 0, 69, 113
1, 10620, Note_on_c, 0, 70, 109
1, 10665, Note_off_c, 0, 70, 109
1, 10682, Note_on_c, 0, 70, 123
1, 10779, Note_off_c, 0, 70, 123
1, 11131, Note_on_c, 0, 69, 116
1, 11238, Note_off_c, 0, 69, 116
1, 11669, Note_on_c, 0, 67, 106
1, 11748, Note_off_c, 0, 67, 106
1, 11791, Note_on_c, 0, 69, 104
1, 11873, Note_off_c, 0, 69, 104
1, 11883, Note_on_c, 0, 70, 123
1, 11972, Note_off_c, 0, 70, 123
1, 11972, Note_on_c, 0, 69, 108
1, 12025, Note_off_c, 0, 69, 108
1, 12028, Note_on_c, 0, 72, 110
1, 12175, Note_off_c, 0, 72, 110
1, 12175, Note_on_c, 0, 71, 109
1, 12268, Note_off_c, 0, 71, 109
1, 12271, Note_on_c, 0, 72, 120
1, 12360, Note_off_c, 0, 72, 120
1, 12363, Note_on_c, 0, 71, 119
1, 12434, Note_off_c, 0, 71, 119
1, 12437, Note_on_c, 0, 70, 113
1, 12533, Note_off_c, 0, 70, 113
1, 12540, Note_on_c, 0, 69, 120
1, 12626, Note_off_c, 0, 69, 120
1, 12633, Note_on_c, 0, 68, 107
1, 12715, Note_off_c, 0, 68, 107
1, 12735, Note_on_c, 0, 58, 115
1, 12824, Note_off_c, 0, 58, 115
1, 12836, Note_on_c, 0, 62, 93
1, 12910, Note_off_c, 0, 62, 93
1, 12937, Note_on_c, 0, 65, 115
1, 12981, Note_off_c, 0, 65, 115
1, 12987, Note_on_c, 0, 64, 117
1, 13104, Note_off_c, 0, 64, 117
1, 13116, Note_on_c, 0, 62, 103
1, 13205, Note_off_c, 0, 62, 103
1, 13205, Note_on_c, 0, 63, 114
1, 13301, Note_off_c, 0, 63, 114
1, 13304, Note_on_c, 0, 66, 118
1, 13386, Note_off_c, 0, 66, 118
1, 13389, Note_on_c, 0, 67, 112
1, 13485, Note_off_c, 0, 67, 112
1, 13495, Note_on_c, 0, 68, 102
1, 13563, Note_off_c, 0, 68, 102
1, 13566, Note_on_c, 0, 70, 121
1, 13666, Note_off_c, 0, 70, 121
1, 13715, Note_on_c, 0, 64, 101
1, 13768, Note_off_c, 0, 64, 101
1, 13773, Note_on_c, 0, 69, 118
1, 13880, Note_off_c, 0, 69, 118
1, 13909, Note_on_c, 0, 67, 96
1, 13950, Note_off_c, 0, 67, 96
1, 13954, Note_on_c, 0, 71, 123
1, 14058, Note_off_c, 0, 71, 123
1, 14071, Note_on_c, 0, 69, 95
1, 14139, Note_off_c, 0, 69, 95
1, 14146, Note_on_c, 0, 73, 123
1, 14271, Note_off_c, 0, 73, 123
1, 14278, Note_on_c, 0, 69, 99
1, 14339, Note_off_c, 0, 69, 99
1, 14339, Note_on_c, 0, 74, 120
1, 14446, Note_off_c, 0, 74, 120
1, 14537, Note_on_c, 0, 75, 121
1, 14830, Note_off_c, 0, 75, 121
1, 14837, Note_on_c, 0, 72, 123
1, 14980, Note_off_c, 0, 72, 123
1, 15038, Note_on_c, 0, 72, 122
1, 15137, Note_off_c, 0, 72, 122
1, 15142, Note_on_c, 0, 71, 117
1, 15213, Note_off_c, 0, 71, 117
1, 15215, Note_on_c, 0, 70, 89
1, 15286, Note_off_c, 0, 70, 89
1, 15316, Note_on_c, 0, 72, 117
1, 15418, Note_off_c, 0, 72, 117
1, 15522, Note_on_c, 0, 65, 107
1, 15831, Note_off_c, 0, 65, 107
1, 16260, Note_on_c, 0, 67, 116
1, 16362, Note_off_c, 0, 67, 116
1, 16392, Note_on_c, 0, 64, 111
1, 16453, Note_off_c, 0, 64, 111
1, 16455, Note_on_c, 0, 65, 120
1, 16562, Note_off_c, 0, 65, 120
1, 16577, Note_on_c, 0, 63, 99
1, 16630, Note_off_c, 0, 63, 99
1, 16630, Note_on_c, 0, 64, 115
1, 16755, Note_off_c, 0, 64, 115
1, 16777, Note_on_c, 0, 62, 103
1, 16840, Note_off_c, 0, 62, 103
1, 16840, Note_on_c, 0, 63, 110
1, 16898, Note_off_c, 0, 63, 110
1, 16913, Note_on_c, 0, 65, 108
1, 17025, Note_off_c, 0, 65, 108
1, 17025, Note_on_c, 0, 62, 97
1, 17096, Note_off_c, 0, 62, 97
1, 17103, Note_on_c, 0, 65, 115
1, 17217, Note_off_c, 0, 65, 115
1, 17219, Note_on_c, 0, 64, 114
1, 17308, Note_off_c, 0, 64, 114
1, 17328, Note_on_c, 0, 62, 96
1, 17402, Note_off_c, 0, 62, 96
1, 17404, Note_on_c, 0, 63, 113
1, 17467, Note_off_c, 0, 63, 113
1, 17512, Note_on_c, 0, 66, 115
1, 17592, Note_off_c, 0, 66, 115
1, 17599, Note_on_c, 0, 67, 111
1, 17676, Note_off_c, 0, 67, 111
1, 17681, Note_on_c, 0, 70, 120
1, 17772, Note_off_c, 0, 70, 120
1, 17772, Note_on_c, 0, 69, 120
1, 17876, Note_off_c, 0, 69, 120
1, 17888, Note_on_c, 0, 67, 108
1, 17972, Note_off_c, 0, 67, 108
1, 17984, Note_on_c, 0, 68, 113
1, 18068, Note_off_c, 0, 68, 113
1, 18068, Note_on_c, 0, 70, 121
1, 18144, Note_off_c, 0, 70, 121
1, 18144, Note_on_c, 0, 72, 113
1, 18235, Note_off_c, 0, 72, 113
1, 18237, Note_on_c, 0, 74, 120
1, 18344, Note_off_c, 0, 74, 120
1, 18349, Note_on_c, 0, 75, 124
1, 18451, Note_off_c, 0, 75, 124
1, 18451, Note_on_c, 0, 77, 115
1, 18537, Note_off_c, 0, 77, 115
1, 18537, Note_on_c, 0, 79, 125
1, 18641, Note_off_c, 0, 79, 125
1, 18643, Note_on_c, 0, 80, 123
1, 18717, Note_off_c, 0, 80, 123
1, 18727, Note_on_c, 0, 79, 125
1, 18821, Note_off_c, 0, 79, 125
1, 18826, Note_on_c, 0, 78, 114
1, 18887, Note_off_c, 0, 78, 114
1, 18892, Note_on_c, 0, 76, 118
1, 18939, Note_off_c, 0, 76, 118
1, 18943, Note_on_c, 0, 77, 119
1, 19001, Note_off_c, 0, 77, 119
1, 19005, Note_on_c, 0, 76, 119
1, 19119, Note_off_c, 0, 76, 119
1, 19124, Note_on_c, 0, 75, 93
1, 19185, Note_off_c, 0, 75, 93
1, 19187, Note_on_c, 0, 74, 115
1, 19289, Note_off_c, 0, 74, 115
1, 19291, Note_on_c, 0, 72, 115
1, 19352, Note_off_c, 0, 72, 115
1, 19359, Note_on_c, 0, 71, 119
1, 19448, Note_off_c, 0, 71, 119
1, 19460, Note_on_c, 0, 70, 117
1, 19567, Note_off_c, 0, 70, 117
1, 19569, Note_on_c, 0, 69, 119
1, 19645, Note_off_c, 0, 69, 119
1, 19652, Note_on_c, 0, 68, 106
1, 19746, Note_off_c, 0, 68, 106
1, 19748, Note_on_c, 0, 66, 110
1, 19827, Note_off_c, 0, 66, 110
1, 19959, Note_on_c, 0, 66, 118
1, 20040, Note_off_c, 0, 66, 118
1, 20040, Note_on_c, 0, 64, 111
1, 20144, Note_off_c, 0, 64, 111
1, 20154, Note_on_c, 0, 62, 95
1, 20233, Note_off_c, 0, 62, 95
1, 20243, Note_on_c, 0, 63, 101
1, 20332, Note_off_c, 0, 63, 101
1, 20339, Note_on_c, 0, 66, 111
1, 20418, Note_off_c, 0, 66, 111
1, 20420, Note_on_c, 0, 67, 111
1, 20509, Note_off_c, 0, 67, 111
1, 20511, Note_on_c, 0, 70, 117
1, 20605, Note_off_c, 0, 70, 117
1, 20610, Note_on_c, 0, 68, 110
1, 20758, Note_off_c, 0, 68, 110
1, 20791, Note_on_c, 0, 71, 108
1, 20934, Note_off_c, 0, 71, 108
1, 20946, Note_on_c, 0, 69, 90
1, 20999, Note_off_c, 0, 69, 90
1, 21004, Note_on_c, 0, 73, 113
1, 21118, Note_off_c, 0, 73, 113
1, 21123, Note_on_c, 0, 69, 99
1, 21166, Note_off_c, 0, 69, 99
1, 21188, Note_on_c, 0, 75, 118
1, 21292, Note_off_c, 0, 75, 118
1, 21294, Note_on_c, 0, 77, 117
1, 21411, Note_off_c, 0, 77, 117
1, 21778, Note_on_c, 0, 79, 124
1, 22064, Note_off_c, 0, 79, 124
1, 22076, Note_on_c, 0, 79, 116
1, 22290, Note_off_c, 0, 79, 116
1, 22905, Note_on_c, 0, 77, 121
1, 23234, Note_off_c, 0, 77, 121
1, 23239, Note_on_c, 0, 79, 125
1, 23548, Note_off_c, 0, 79, 125
1, 23573, Note_on_c, 0, 79, 123
1, 23718, Note_off_c, 0, 79, 123
1, 24075, Note_on_c, 0, 74, 103
1, 24169, Note_off_c, 0, 74, 103
1, 24248, Note_on_c, 0, 79, 125
1, 24434, Note_off_c, 0, 79, 125
1, 24454, Note_on_c, 0, 81, 112
1, 24724, Note_off_c, 0, 81, 112
1, 24736, Note_on_c, 0, 79, 123
1, 25078, Note_off_c, 0, 79, 123
1, 25129, Note_on_c, 0, 79, 115
1, 25261, Note_off_c, 0, 79, 115
1, 25612, Note_on_c, 0, 80, 124
1, 25964, Note_off_c, 0, 80, 124
1, 25966, Note_on_c, 0, 79, 125
1, 26229, Note_off_c, 0, 79, 125
1, 26236, Note_on_c, 0, 78, 113
1, 26325, Note_off_c, 0, 78, 113
1, 26327, Note_on_c, 0, 77, 117
1, 26424, Note_off_c, 0, 77, 117
1, 26439, Note_on_c, 0, 76, 120
1, 26530, Note_off_c, 0, 76, 120
1, 26535, Note_on_c, 0, 75, 119
1, 26614, Note_off_c, 0, 75, 119
1, 26621, Note_on_c, 0, 72, 122
1, 26707, Note_off_c, 0, 72, 122
1, 26709, Note_on_c, 0, 73, 113
1, 26818, Note_off_c, 0, 73, 113
1, 26825, Note_on_c, 0, 71, 103
1, 26904, Note_off_c, 0, 71, 103
1, 26909, Note_on_c, 0, 72, 116
1, 27003, Note_off_c, 0, 72, 116
1, 27025, Note_on_c, 0, 71, 118
1, 27101, Note_off_c, 0, 71, 118
1, 27108, Note_on_c, 0, 70, 106
1, 27184, Note_off_c, 0, 70, 106
1, 27186, Note_on_c, 0, 69, 115
1, 27272, Note_off_c, 0, 69, 115
1, 27277, Note_on_c, 0, 68, 104
1, 27374, Note_off_c, 0, 68, 104
1, 27379, Note_on_c, 0, 63, 108
1, 27470, Note_off_c, 0, 63, 108
1, 27510, Note_on_c, 0, 59, 91
1, 27550, Note_off_c, 0, 59, 91
1, 27556, Note_on_c, 0, 58, 91
1, 27595, Note_off_c, 0, 58, 91
1, 27605, Note_on_c, 0, 57, 110
1, 27652, Note_off_c, 0, 57, 110
1, 27658, Note_on_c, 0, 56, 107
1, 27755, Note_off_c, 0, 56, 107
1, 27920, Note_on_c, 0, 58, 110
1, 27981, Note_off_c, 0, 58, 110
1, 27989, Note_on_c, 0, 55, 103
1, 28083, Note_off_c, 0, 55, 103
1, 28093, Note_on_c, 0, 56, 105
1, 28138, Note_off_c, 0, 56, 105
1, 28167, Note_on_c, 0, 65, 96
1, 28225, Note_off_c, 0, 65, 96
1, 28258, Note_on_c, 0, 69, 121
1, 28518, Note_off_c, 0, 69, 121
1, 28525, Note_on_c, 0, 68, 114
1, 28629, Note_off_c, 0, 68, 114
1, 28634, Note_on_c, 0, 67, 107
1, 28720, Note_off_c, 0, 67, 107
1, 28725, Note_on_c, 0, 68, 91
1, 28824, Note_off_c, 0, 68, 91
1, 28824, Note_on_c, 0, 67, 87
1, 28964, Note_off_c, 0, 67, 87
1, 28969, Note_on_c, 0, 69, 110
1, 29076, Note_off_c, 0, 69, 110
1, 29139, Note_on_c, 0, 70, 114
1, 29207, Note_off_c, 0, 70, 114
1, 29214, Note_on_c, 0, 72, 120
1, 29298, Note_off_c, 0, 72, 120
1, 29303, Note_on_c, 0, 74, 121
1, 29392, Note_off_c, 0, 74, 121
1, 29404, Note_on_c, 0, 72, 117
1, 29582, Note_off_c, 0, 72, 117
1, 29602, Note_on_c, 0, 70, 108
1, 29824, Note_off_c, 0, 70, 108
1, 29826, Note_on_c, 0, 69, 106
1, 29943, Note_off_c, 0, 69, 106
1, 30422, Note_on_c, 0, 67, 88
1, 30484, Note_off_c, 0, 67, 88
1, 30498, Note_on_c, 0, 69, 89
1, 30559, Note_off_c, 0, 69, 89
1, 30559, Note_on_c, 0, 70, 106
1, 30653, Note_off_c, 0, 70, 106
1, 30653, Note_on_c, 0, 72, 118
1, 30737, Note_off_c, 0, 72, 118
1, 30737, Note_on_c, 0, 74, 118
1, 30821, Note_off_c, 0, 74, 118
1, 30826, Note_on_c, 0, 75, 125
1, 31117, Note_off_c, 0, 75, 125
1, 31117, Note_on_c, 0, 77, 123
1, 31316, Note_off_c, 0, 77, 123
1, 31329, Note_on_c, 0, 79, 125
1, 31651, Note_off_c, 0, 79, 125
1, 31655, Note_on_c, 0, 80, 118
1, 31707, Note_off_c, 0, 80, 118
1, 31710, Note_on_c, 0, 77, 114
1, 31747, Note_off_c, 0, 77, 114
1, 31763, Note_on_c, 0, 75, 124
1, 31990, Note_off_c, 0, 75, 124
1, 32015, Note_on_c, 0, 72, 113
1, 32140, Note_off_c, 0, 72, 113
1, 32275, Note_on_c, 0, 68, 105
1, 32379, Note_off_c, 0, 68, 105
1, 32394, Note_on_c, 0, 70, 118
1, 32480, Note_off_c, 0, 70, 118
1, 32490, Note_on_c, 0, 72, 118
1, 32576, Note_off_c, 0, 72, 118
1, 32683, Note_on_c, 0, 68, 111
1, 32757, Note_off_c, 0, 68, 111
1, 32764, Note_on_c, 0, 69, 111
1, 32832, Note_on_c, 0, 73, 117
1, 32832, Note_off_c, 0, 69, 111
1, 32964, Note_off_c, 0, 73, 117
1, 33474, Note_on_c, 0, 70, 119
1, 33571, Note_off_c, 0, 70, 119
1, 33573, Note_on_c, 0, 68, 97
1, 33644, Note_off_c, 0, 68, 97
1, 33644, Note_on_c, 0, 69, 114
1, 33743, Note_off_c, 0, 69, 114
1, 33750, Note_on_c, 0, 67, 104
1, 33811, Note_off_c, 0, 67, 104
1, 33846, Note_on_c, 0, 68, 101
1, 33925, Note_off_c, 0, 68, 101
1, 33935, Note_on_c, 0, 67, 111
1, 34006, Note_off_c, 0, 67, 111
1, 34028, Note_on_c, 0, 65, 83
1, 34104, Note_off_c, 0, 65, 83
1, 34111, Note_on_c, 0, 64, 85
1, 34149, Note_off_c, 0, 64, 85
1, 34154, Note_on_c, 0, 65, 103
1, 34215, Note_off_c, 0, 65, 103
1, 34233, Note_on_c, 0, 63, 101
1, 34299, Note_off_c, 0, 63, 101
1, 34333, Note_on_c, 0, 65, 109
1, 34412, Note_off_c, 0, 65, 109
1, 34433, Note_on_c, 0, 67, 97
1, 34578, Note_off_c, 0, 67, 97
1, 34598, Note_on_c, 0, 70, 119
1, 34700, Note_off_c, 0, 70, 119
1, 34712, Note_on_c, 0, 68, 93
1, 34796, Note_off_c, 0, 68, 93
1, 34806, Note_on_c, 0, 69, 113
1, 34913, Note_off_c, 0, 69, 113
1, 34913, Note_on_c, 0, 70, 91
1, 34969, Note_off_c, 0, 70, 91
1, 34976, Note_on_c, 0, 68, 113
1, 35065, Note_off_c, 0, 68, 113
1, 35085, Note_on_c, 0, 70, 115
1, 35164, Note_off_c, 0, 70, 115
1, 35171, Note_on_c, 0, 72, 101
1, 35250, Note_off_c, 0, 72, 101
1, 35252, Note_on_c, 0, 74, 110
1, 35343, Note_off_c, 0, 74, 110
1, 35353, Note_on_c, 0, 77, 121
1, 35462, Note_off_c, 0, 77, 121
1, 35472, Note_on_c, 0, 78, 123
1, 35528, Note_off_c, 0, 78, 123
1, 35530, Note_on_c, 0, 79, 117
1, 35642, Note_off_c, 0, 79, 117
1, 35652, Note_on_c, 0, 78, 119
1, 35726, Note_off_c, 0, 78, 119
1, 35728, Note_on_c, 0, 77, 113
1, 35814, Note_off_c, 0, 77, 113
1, 35816, Note_on_c, 0, 76, 119
1, 35925, Note_off_c, 0, 76, 119
1, 35930, Note_on_c, 0, 75, 107
1, 36009, Note_off_c, 0, 75, 107
1, 36014, Note_on_c, 0, 73, 122
1, 36116, Note_off_c, 0, 73, 122
1, 36118, Note_on_c, 0, 71, 99
1, 36230, Note_off_c, 0, 71, 99
1, 36699, Note_on_c, 0, 70, 112
1, 36788, Note_off_c, 0, 70, 112
1, 36805, Note_on_c, 0, 68, 105
1, 36896, Note_off_c, 0, 68, 105
1, 36901, Note_on_c, 0, 69, 121
1, 36995, Note_off_c, 0, 69, 121
1, 36995, Note_on_c, 0, 65, 119
1, 37071, Note_off_c, 0, 65, 119
1, 37129, Note_on_c, 0, 61, 88
1, 37205, Note_off_c, 0, 61, 88
1, 37664, Note_on_c, 0, 66, 113
1, 37763, Note_off_c, 0, 66, 113
1, 37791, Note_on_c, 0, 62, 97
1, 37882, Note_off_c, 0, 62, 97
1, 37935, Note_on_c, 0, 65, 117
1, 38029, Note_off_c, 0, 65, 117
1, 38057, Note_on_c, 0, 62, 93
1, 38123, Note_off_c, 0, 62, 93
1, 38130, Note_on_c, 0, 64, 110
1, 38181, Note_off_c, 0, 64, 110
1, 38216, Note_on_c, 0, 56, 112
1, 38341, Note_off_c, 0, 56, 112
1, 38379, Note_on_c, 0, 54, 100
1, 38417, Note_off_c, 0, 54, 100
1, 38424, Note_on_c, 0, 56, 102
1, 38526, Note_off_c, 0, 56, 102
1, 38526, Note_on_c, 0, 57, 106
1, 38574, Note_off_c, 0, 57, 106
1, 38607, Note_on_c, 0, 62, 106
1, 38693, Note_off_c, 0, 62, 106
1, 38713, Note_on_c, 0, 64, 109
1, 38792, Note_off_c, 0, 64, 109
1, 38792, Note_on_c, 0, 65, 120
1, 38886, Note_off_c, 0, 65, 120
1, 38886, Note_on_c, 0, 64, 116
1, 38962, Note_off_c, 0, 64, 116
1, 38969, Note_on_c, 0, 63, 98
1, 39058, Note_off_c, 0, 63, 98
1, 39101, Note_on_c, 0, 65, 99
1, 39190, Note_off_c, 0, 65, 99
1, 39271, Note_on_c, 0, 60, 96
1, 39324, Note_off_c, 0, 60, 96
1, 39344, Note_on_c, 0, 62, 101
1, 39410, Note_off_c, 0, 62, 101
1, 39412, Note_on_c, 0, 63, 105
1, 39470, Note_off_c, 0, 63, 105
1, 39472, Note_on_c, 0, 65, 113
1, 39566, Note_off_c, 0, 65, 113
1, 39571, Note_on_c, 0, 67, 112
1, 39675, Note_off_c, 0, 67, 112
1, 39687, Note_on_c, 0, 68, 101
1, 39748, Note_off_c, 0, 68, 101
1, 39760, Note_on_c, 0, 70, 121
1, 39841, Note_off_c, 0, 70, 121
1, 39852, Note_on_c, 0, 69, 117
1, 39923, Note_off_c, 0, 69, 117
1, 39931, Note_on_c, 0, 68, 106
1, 40012, Note_off_c, 0, 68, 106
1, 40035, Note_on_c, 0, 69, 116
1, 40116, Note_off_c, 0, 69, 116
1, 40169, Note_on_c, 0, 71, 102
1, 40209, Note_off_c, 0, 71, 102
1, 40219, Note_on_c, 0, 73, 104
1, 40282, Note_off_c, 0, 73, 104
1, 40316, Note_on_c, 0, 72, 114
1, 40505, Note_off_c, 0, 72, 114
1, 40517, Note_on_c, 0, 74, 123
1, 40673, Note_off_c, 0, 74, 123
1, 40677, Note_on_c, 0, 73, 118
1, 40727, Note_off_c, 0, 73, 118
1, 41611, Note_on_c, 0, 78, 127
1, 42055, Note_off_c, 0, 78, 127
1, 42072, Note_on_c, 0, 75, 99
1, 42148, Note_off_c, 0, 75, 99
1, 42265, Note_on_c, 0, 74, 116
1, 42405, Note_off_c, 0, 74, 116
1, 43166, Note_on_c, 0, 74, 120
1, 43252, Note_off_c, 0, 74, 120
1, 43259, Note_on_c, 0, 75, 126
1, 43496, Note_off_c, 0, 75, 126
1, 43501, Note_on_c, 0, 76, 122
1, 43921, Note_off_c, 0, 76, 122
1, 44009, Note_on_c, 0, 75, 125
1, 44269, Note_off_c, 0, 75, 125
1, 44274, Note_on_c, 0, 74, 120
1, 44749, Note_off_c, 0, 74, 120
1, 44784, Note_on_c, 0, 73, 121
1, 44888, Note_off_c, 0, 73, 121
1, 44910, Note_on_c, 0, 71, 111
1, 44981, Note_off_c, 0, 71, 111
1, 45001, Note_on_c, 0, 72, 121
1, 45064, Note_off_c, 0, 72, 121
1, 45092, Note_on_c, 0, 70, 119
1, 45160, Note_off_c, 0, 70, 119
1, 45160, Note_on_c, 0, 67, 106
1, 45272, Note_off_c, 0, 67, 106
1, 45300, Note_on_c, 0, 69, 116
1, 45363, Note_off_c, 0, 69, 116
1, 45370, Note_on_c, 0, 70, 121
1, 45451, Note_off_c, 0, 70, 121
1, 45456, Note_on_c, 0, 69, 118
1, 45547, Note_off_c, 0, 69, 118
1, 45552, Note_on_c, 0, 68, 101
1, 45638, Note_off_c, 0, 68, 101
1, 45650, Note_on_c, 0, 63, 111
1, 45741, Note_off_c, 0, 63, 111
1, 45761, Note_on_c, 0, 59, 94
1, 45822, Note_off_c, 0, 59, 94
1, 45856, Note_on_c, 0, 56, 106
1, 45917, Note_off_c, 0, 56, 106
1, 45926, Note_on_c, 0, 54, 108
1, 46004, Note_off_c, 0, 54, 108
1, 46004, Note_on_c, 0, 55, 109
1, 46085, Note_off_c, 0, 55, 109
1, 46105, Note_on_c, 0, 56, 111
1, 46288, Note_off_c, 0, 56, 111
1, 46512, Note_on_c, 0, 58, 110
1, 46612, Note_off_c, 0, 58, 110
1, 46623, Note_on_c, 0, 56, 102
1, 46694, Note_off_c, 0, 56, 102
1, 46720, Note_on_c, 0, 57, 95
1, 46776, Note_off_c, 0, 57, 95
1, 46784, Note_on_c, 0, 58, 111
1, 46873, Note_off_c, 0, 58, 111
1, 46876, Note_on_c, 0, 60, 81
1, 46952, Note_off_c, 0, 60, 81
1, 46995, Note_on_c, 0, 69, 118
1, 47240, Note_off_c, 0, 69, 118
1, 47250, Note_on_c, 0, 68, 113
1, 47331, Note_off_c, 0, 68, 113
1, 47348, Note_on_c, 0, 67, 94
1, 47404, Note_off_c, 0, 67, 94
1, 47449, Note_on_c, 0, 69, 114
1, 47558, Note_off_c, 0, 69, 114
1, 47657, Note_on_c, 0, 70, 120
1, 47746, Note_off_c, 0, 70, 120
1, 47860, Note_on_c, 0, 72, 125
1, 47939, Note_off_c, 0, 72, 125
1, 47941, Note_on_c, 0, 74, 118
1, 48186, Note_off_c, 0, 74, 118
1, 48191, Note_on_c, 0, 72, 108
1, 48556, Note_off_c, 0, 72, 108
1, 48913, Note_on_c, 0, 70, 111
1, 48979, Note_off_c, 0, 70, 111
1, 48996, Note_on_c, 0, 69, 123
1, 49100, Note_off_c, 0, 69, 123
1, 49100, Note_on_c, 0, 67, 110
1, 49355, Note_off_c, 0, 67, 110
1, 49383, Note_on_c, 0, 65, 116
1, 49561, Note_off_c, 0, 65, 116
1, 49609, Note_on_c, 0, 63, 109
1, 49680, Note_off_c, 0, 63, 109
1, 49680, Note_on_c, 0, 65, 110
1, 49810, Note_off_c, 0, 65, 110
1, 50152, Note_on_c, 0, 65, 116
1, 50241, Note_off_c, 0, 65, 116
1, 50279, Note_on_c, 0, 62, 100
1, 50347, Note_off_c, 0, 62, 100
1, 50362, Note_on_c, 0, 63, 101
1, 50400, Note_off_c, 0, 63, 101
1, 50405, Note_on_c, 0, 66, 117
1, 50522, Note_off_c, 0, 66, 117
1, 50524, Note_on_c, 0, 67, 116
1, 50615, Note_off_c, 0, 67, 116
1, 50617, Note_on_c, 0, 69, 121
1, 50734, Note_off_c, 0, 69, 121
1, 50736, Note_on_c, 0, 70, 123
1, 50815, Note_off_c, 0, 70, 123
1, 50817, Note_on_c, 0, 69, 114
1, 50891, Note_off_c, 0, 69, 114
1, 50901, Note_on_c, 0, 68, 87
1, 50977, Note_off_c, 0, 68, 87
1, 51005, Note_on_c, 0, 70, 119
1, 51071, Note_off_c, 0, 70, 119
1, 51096, Note_on_c, 0, 71, 121
1, 51193, Note_off_c, 0, 71, 121
1, 51205, Note_on_c, 0, 72, 118
1, 51503, Note_off_c, 0, 72, 118
1, 52448, Note_on_c, 0, 74, 10
1, 52539, Note_off_c, 0, 74, 10
1, 52601, Note_on_c, 0, 73, 123
1, 52710, Note_off_c, 0, 73, 123
1, 52724, Note_on_c, 0, 71, 113
1, 52833, Note_off_c, 0, 71, 113
1, 52833, Note_on_c, 0, 72, 121
1, 52891, Note_off_c, 0, 72, 121
1, 52903, Note_on_c, 0, 70, 121
1, 52977, Note_off_c, 0, 70, 121
1, 52987, Note_on_c, 0, 68, 103
1, 53086, Note_off_c, 0, 68, 103
1, 53093, Note_on_c, 0, 69, 119
1, 53177, Note_off_c, 0, 69, 119
1, 53179, Note_on_c, 0, 70, 115
1, 53258, Note_off_c, 0, 70, 115
1, 53270, Note_on_c, 0, 69, 119
1, 53369, Note_off_c, 0, 69, 119
1, 53369, Note_on_c, 0, 68, 110
1, 53476, Note_off_c, 0, 68, 110
1, 53488, Note_on_c, 0, 63, 112
1, 53569, Note_off_c, 0, 63, 112
1, 53576, Note_on_c, 0, 64, 86
1, 53644, Note_off_c, 0, 64, 86
1, 53702, Note_on_c, 0, 58, 108
1, 53758, Note_off_c, 0, 58, 108
1, 53780, Note_on_c, 0, 56, 104
1, 53864, Note_off_c, 0, 56, 104
1, 53864, Note_on_c, 0, 58, 109
1, 53943, Note_off_c, 0, 58, 109
1, 53965, Note_on_c, 0, 62, 103
1, 54036, Note_off_c, 0, 62, 103
1, 54061, Note_on_c, 0, 63, 91
1, 54132, Note_off_c, 0, 63, 91
1, 54157, Note_on_c, 0, 65, 124
1, 54261, Note_off_c, 0, 65, 124
1, 54281, Note_on_c, 0, 63, 106
1, 54319, Note_off_c, 0, 63, 106
1, 54354, Note_on_c, 0, 64, 117
1, 54435, Note_off_c, 0, 64, 117
1, 54447, Note_on_c, 0, 65, 84
1, 54533, Note_off_c, 0, 65, 84
1, 54542, Note_on_c, 0, 63, 110
1, 54613, Note_off_c, 0, 63, 110
1, 54735, Note_on_c, 0, 64, 121
1, 54821, Note_off_c, 0, 64, 121
1, 54836, Note_on_c, 0, 65, 120
1, 54945, Note_off_c, 0, 65, 120
1, 55019, Note_on_c, 0, 66, 118
1, 55108, Note_off_c, 0, 66, 118
1, 55192, Note_on_c, 0, 67, 120
1, 55276, Note_off_c, 0, 67, 120
1, 55281, Note_on_c, 0, 69, 123
1, 55378, Note_off_c, 0, 69, 123
1, 55487, Note_on_c, 0, 71, 125
1, 55555, Note_off_c, 0, 71, 125
1, 55567, Note_on_c, 0, 70, 123
1, 55612, Note_off_c, 0, 70, 123
1, 55612, Note_on_c, 0, 69, 119
1, 55670, Note_off_c, 0, 69, 119
1, 55687, Note_on_c, 0, 67, 115
1, 55794, Note_off_c, 0, 67, 115
1, 55875, Note_on_c, 0, 68, 125
1, 56025, Note_off_c, 0, 68, 125
1, 56076, Note_on_c, 0, 69, 124
1, 56175, Note_off_c, 0, 69, 124
1, 56210, Note_on_c, 0, 70, 123
1, 56312, Note_off_c, 0, 70, 123
1, 56340, Note_on_c, 0, 71, 121
1, 56434, Note_off_c, 0, 71, 121
1, 56444, Note_on_c, 0, 72, 124
1, 56530, Note_off_c, 0, 72, 124
1, 56535, Note_on_c, 0, 74, 122
1, 56616, Note_off_c, 0, 74, 122
1, 56623, Note_on_c, 0, 75, 123
1, 56702, Note_off_c, 0, 75, 123
1, 56801, Note_on_c, 0, 77, 120
1, 56995, Note_off_c, 0, 77, 120
1, 56997, Note_on_c, 0, 79, 118
1, 57188, Note_off_c, 0, 79, 118
1, 57190, Note_on_c, 0, 77, 121
1, 57312, Note_off_c, 0, 77, 121
1, 59130, Note_on_c, 0, 77, 125
1, 59329, Note_off_c, 0, 77, 125
1, 59351, Note_on_c, 0, 77, 124
1, 59631, Note_on_c, 0, 79, 124
1, 59631, Note_off_c, 0, 77, 124
1, 59980, Note_off_c, 0, 79, 124
1, 60112, Note_on_c, 0, 77, 121
1, 60196, Note_off_c, 0, 77, 121
1, 60280, Note_on_c, 0, 75, 123
1, 60384, Note_off_c, 0, 75, 123
1, 60861, Note_on_c, 0, 77, 124
1, 60952, Note_off_c, 0, 77, 124
1, 60954, Note_on_c, 0, 79, 119
1, 61048, Note_off_c, 0, 79, 119
1, 61129, Note_on_c, 0, 77, 122
1, 61466, Note_off_c, 0, 77, 122
1, 61473, Note_on_c, 0, 74, 108
1, 61585, Note_off_c, 0, 74, 108
1, 61628, Note_on_c, 0, 71, 118
1, 61727, Note_off_c, 0, 71, 118
1, 61824, Note_on_c, 0, 67, 119
1, 61913, Note_off_c, 0, 67, 119
1, 62398, Note_on_c, 0, 70, 118
1, 62479, Note_off_c, 0, 70, 118
1, 62494, Note_on_c, 0, 67, 109
1, 62560, Note_off_c, 0, 67, 109
1, 62580, Note_on_c, 0, 68, 111
1, 62654, Note_off_c, 0, 68, 111
1, 62687, Note_on_c, 0, 70, 119
1, 62774, Note_off_c, 0, 70, 119
1, 62788, Note_on_c, 0, 72, 110
1, 62854, Note_off_c, 0, 72, 110
1, 62859, Note_on_c, 0, 74, 110
1, 62943, Note_off_c, 0, 74, 110
1, 62958, Note_on_c, 0, 77, 119
1, 63039, Note_off_c, 0, 77, 119
1, 63056, Note_on_c, 0, 78, 124
1, 63147, Note_off_c, 0, 78, 124
1, 63154, Note_on_c, 0, 79, 117
1, 63251, Note_off_c, 0, 79, 117
1, 63273, Note_on_c, 0, 78, 122
1, 63340, Note_off_c, 0, 78, 122
1, 63349, Note_on_c, 0, 77, 117
1, 63431, Note_off_c, 0, 77, 117
1, 63450, Note_on_c, 0, 76, 122
1, 63536, Note_off_c, 0, 76, 122
1, 63546, Note_on_c, 0, 75, 121
1, 63604, Note_off_c, 0, 75, 121
1, 63619, Note_on_c, 0, 73, 119
1, 63708, Note_off_c, 0, 73, 119
1, 63713, Note_on_c, 0, 71, 115
1, 63779, Note_off_c, 0, 71, 115
1, 63809, Note_on_c, 0, 68, 101
1, 63900, Note_off_c, 0, 68, 101
1, 63905, Note_on_c, 0, 70, 122
1, 63994, Note_off_c, 0, 70, 122
1, 63999, Note_on_c, 0, 69, 122
1, 64085, Note_off_c, 0, 69, 122
1, 64090, Note_on_c, 0, 68, 117
1, 64166, Note_off_c, 0, 68, 117
1, 64199, Note_on_c, 0, 63, 108
1, 64306, Note_off_c, 0, 63, 108
1, 65267, Note_on_c, 0, 70, 112
1, 65312, Note_off_c, 0, 70, 112
1, 65345, Note_on_c, 0, 72, 101
1, 65428, Note_off_c, 0, 72, 101
1, 65432, Note_on_c, 0, 74, 92
1, 65511, Note_off_c, 0, 74, 92
1, 65522, Note_on_c, 0, 77, 115
1, 65594, Note_off_c, 0, 77, 115
1, 65622, Note_on_c, 0, 76, 108
1, 65711, Note_off_c, 0, 76, 108
1, 65718, Note_on_c, 0, 77, 123
1, 65825, Note_off_c, 0, 77, 123
1, 65827, Note_on_c, 0, 79, 120
1, 65901, Note_off_c, 0, 79, 120
1, 65915, Note_on_c, 0, 79, 114
1, 66002, Note_off_c, 0, 79, 114
1, 66014, Note_on_c, 0, 71, 111
1, 66136, Note_off_c, 0, 71, 111
1, 66626, Note_on_c, 0, 70, 121
1, 66710, Note_off_c, 0, 70, 121
1, 66725, Note_on_c, 0, 67, 108
1, 66819, Note_off_c, 0, 67, 108
1, 66826, Note_on_c, 0, 68, 105
1, 66864, Note_off_c, 0, 68, 105
1, 66894, Note_on_c, 0, 70, 117
1, 66985, Note_off_c, 0, 70, 117
1, 66992, Note_on_c, 0, 65, 85
1, 67081, Note_off_c, 0, 65, 85
1, 67086, Note_on_c, 0, 70, 112
1, 67175, Note_off_c, 0, 70, 112
1, 67180, Note_on_c, 0, 67, 97
1, 67264, Note_off_c, 0, 67, 97
1, 67264, Note_on_c, 0, 69, 106
1, 67366, Note_off_c, 0, 69, 106
1, 67376, Note_on_c, 0, 66, 99
1, 67524, Note_off_c, 0, 66, 99
1, 67577, Note_on_c, 0, 65, 119
1, 67676, Note_off_c, 0, 65, 119
1, 67683, Note_on_c, 0, 63, 98
1, 67739, Note_off_c, 0, 63, 98
1, 67749, Note_on_c, 0, 64, 106
1, 67835, Note_off_c, 0, 64, 106
1, 67837, Note_on_c, 0, 62, 89
1, 67900, Note_off_c, 0, 62, 89
1, 67938, Note_on_c, 0, 63, 100
1, 68014, Note_off_c, 0, 63, 100
1, 68024, Note_on_c, 0, 65, 113
1, 68113, Note_off_c, 0, 65, 113
1, 68227, Note_on_c, 0, 65, 117
1, 68301, Note_off_c, 0, 65, 117
1, 68535, Note_on_c, 0, 62, 102
1, 68644, Note_off_c, 0, 62, 102
1, 68886, Note_on_c, 0, 65, 108
1, 69011, Note_off_c, 0, 65, 108
1, 69217, Note_on_c, 0, 67, 113
1, 69321, Note_off_c, 0, 67, 113
1, 69647, Note_on_c, 0, 69, 105
1, 69751, Note_off_c, 0, 69, 105
1, 70042, Note_on_c, 0, 70, 120
1, 70307, Note_off_c, 0, 70, 120
1, 70312, Note_on_c, 0, 71, 123
1, 70429, Note_off_c, 0, 71, 123
1, 70454, Note_on_c, 0, 70, 118
1, 70683, Note_off_c, 0, 70, 118
1, 70695, Note_on_c, 0, 69, 106
1, 70792, Note_off_c, 0, 69, 106
1, 70804, Note_on_c, 0, 70, 119
1, 70901, Note_off_c, 0, 70, 119
1, 70906, Note_on_c, 0, 68, 107
1, 70985, Note_off_c, 0, 68, 107
1, 70992, Note_on_c, 0, 69, 120
1, 71068, Note_off_c, 0, 69, 120
1, 71085, Note_on_c, 0, 67, 103
1, 71164, Note_off_c, 0, 67, 103
1, 71169, Note_on_c, 0, 68, 117
1, 71289, Note_off_c, 0, 68, 117
1, 71380, Note_on_c, 0, 64, 114
1, 71487, Note_off_c, 0, 64, 114
1, 71494, Note_on_c, 0, 62, 107
1, 71578, Note_off_c, 0, 62, 107
1, 71580, Note_on_c, 0, 63, 112
1, 71646, Note_off_c, 0, 63, 112
1, 71653, Note_on_c, 0, 65, 116
1, 71744, Note_off_c, 0, 65, 116
1, 71744, Note_on_c, 0, 67, 112
1, 71869, Note_off_c, 0, 67, 112
1, 71886, Note_on_c, 0, 69, 117
1, 71949, Note_off_c, 0, 69, 117
1, 71959, Note_on_c, 0, 70, 123
1, 72038, Note_off_c, 0, 70, 123
1, 72038, Note_on_c, 0, 69, 120
1, 72119, Note_off_c, 0, 69, 120
1, 72131, Note_on_c, 0, 70, 101
1, 72164, Note_off_c, 0, 70, 101
1, 72171, Note_on_c, 0, 71, 110
1, 72207, Note_off_c, 0, 71, 110
1, 72219, Note_on_c, 0, 70, 123
1, 72308, Note_off_c, 0, 70, 123
1, 72323, Note_on_c, 0, 71, 110
1, 72397, Note_off_c, 0, 71, 110
1, 72409, Note_on_c, 0, 73, 123
1, 72490, Note_off_c, 0, 73, 123
1, 72492, Note_on_c, 0, 75, 114
1, 72568, Note_off_c, 0, 75, 114
1, 72590, Note_on_c, 0, 77, 120
1, 72674, Note_off_c, 0, 77, 120
1, 72753, Note_on_c, 0, 79, 126
1, 72936, Note_off_c, 0, 79, 126
1, 72943, Note_on_c, 0, 77, 119
1, 73022, Note_off_c, 0, 77, 119
1, 73032, Note_on_c, 0, 76, 122
1, 73075, Note_off_c, 0, 76, 122
1, 73082, Note_on_c, 0, 75, 124
1, 73306, Note_off_c, 0, 75, 124
1, 73341, Note_on_c, 0, 73, 112
1, 73422, Note_off_c, 0, 73, 112
1, 73444, Note_on_c, 0, 71, 98
1, 73587, Note_off_c, 0, 71, 98
1, 73701, Note_on_c, 0, 70, 99
1, 73764, Note_off_c, 0, 70, 99
1, 73789, Note_on_c, 0, 69, 93
1, 73845, Note_off_c, 0, 69, 93
1, 73885, Note_on_c, 0, 68, 89
1, 73925, Note_off_c, 0, 68, 89
1, 73942, Note_on_c, 0, 67, 87
1, 73993, Note_off_c, 0, 67, 87
1, 74028, Note_on_c, 0, 62, 82
1, 74145, Note_off_c, 0, 62, 82
1, 74150, Note_on_c, 0, 58, 93
1, 74236, Note_off_c, 0, 58, 93
1, 74236, Note_on_c, 0, 56, 91
1, 74281, Note_off_c, 0, 56, 91
1, 74281, End_track
0, 0, End_of_file
