0, 0, Header, 1, 1, 192
1, 0, Start_track
1, 0, Title_t, "Melody"
1, 0, Tempo, 600000
1, 0, Key_signature, 0, "major"
1, 0, Time_signature, 4, 2, 24, 8
1, 4086, Note_on_c, 0, 67, 100
1, 4132, Note_off_c, 0, 67, 100
1, 4191, Note_on_c, 0, 72, 114
1, 4367, Note_off_c, 0, 72, 114
1, 4378, Note_on_c, 0, 70, 118
1, 4662, Note_off_c, 0, 70, 118
1, 5702, Note_on_c, 0, 76, 101
1, 5733, Note_off_c, 0, 76, 101
1, 5772, Note_on_c, 0, 78, 124
1, 5929, Note_off_c, 0, 78, 124
1, 5929, Note_on_c, 0, 75, 120
1, 6259, Note_off_c, 0, 75, 120
1, 7198, Note_on_c, 0, 66, 96
1, 7229, Note_off_c, 0, 66, 96
1, 7231, Note_on_c, 0, 70, 116
1, 7283, Note_off_c, 0, 70, 116
1, 7284, Note_on_c, 0, 68, 115
1, 7324, Note_off_c, 0, 68, 115
1, 7340, Note_on_c, 0, 70, 110
1, 7377, Note_off_c, 0, 70, 110
1, 7380, Note_on_c, 0, 71, 124
1, 7430, Note_off_c, 0, 71, 124
1, 7437, Note_on_c, 0, 73, 122
1, 7477, Note_off_c, 0, 73, 122
1, 7477, Note_on_c, 0, 75, 123
1, 7521, Note_off_c, 0, 75, 123
1, 7522, Note_on_c, 0, 76, 123
1, 7568, Note_off_c, 0, 76, 123
1, 7571, Note_on_c, 0, 77, 127
1, 7615, Note_off_c, 0, 77, 127
1, 7616, Note_on_c, 0, 78, 124
1, 7658, Note_off_c, 0, 78, 124
1, 7661, Note_on_c, 0, 77, 124
1, 7714, Note_off_c, 0, 77, 124
1, 7719, Note_on_c, 0, 76, 123
1, 7761, Note_off_c, 0, 76, 123
1, 7764, Note_on_c, 0, 75, 120
1, 7817, Note_off_c, 0, 75, 120
1, 7850, Note_on_c, 0, 72, 111
1, 8019, Note_off_c, 0, 72, 111
1, 8037, Note_on_c, 0, 66, 112
1, 8144, Note_off_c, 0, 66, 112
1, 8145, Note_on_c, 0, 64, 116
1, 8317, Note_off_c, 0, 64, 116
1, 8333, Note_on_c, 0, 63, 115
1, 8693, Note_off_c, 0, 63, 115
1, 10101, Note_on_c, 0, 67, 106
1, 10140, Note_off_c, 0, 67, 106
1, 10158, Note_on_c, 0, 72, 122
1, 10275, Note_off_c, 0, 72, 122
1, 10284, Note_on_c, 0, 75, 123
1, 10467, Note_off_c, 0, 75, 123
1, 10519, Note_on_c, 0, 84, 90
1, 10552, Note_off_c, 0, 84, 90
1, 11099, Note_on_c, 0, 72, 119
1, 11195, Note_off_c, 0, 72, 119
1, 11213, Note_on_c, 0, 69, 124
1, 11313, Note_off_c, 0, 69, 124
1, 11314, Note_on_c, 0, 66, 120
1, 11455, Note_off_c, 0, 66, 120
1, 11467, Note_on_c, 0, 63, 123
1, 11604, Note_off_c, 0, 63, 123
1, 11612, Note_on_c, 0, 63, 121
1, 11639, Note_off_c, 0, 63, 121
1, 11652, Note_on_c, 0, 64, 120
1, 11984, Note_off_c, 0, 64, 120
1, 11994, Note_on_c, 0, 63, 121
1, 12555, Note_off_c, 0, 63, 121
1, 13305, Note_on_c, 0, 75, 96
1, 13340, Note_off_c, 0, 75, 96
1, 13390, Note_on_c, 0, 75, 118
1, 13597, Note_off_c, 0, 75, 118
1, 13603, Note_on_c, 0, 82, 89
1, 13645, Note_off_c, 0, 82, 89
1, 14347, Note_on_c, 0, 76, 122
1, 14438, Note_off_c, 0, 76, 122
1, 14445, Note_on_c, 0, 75, 124
1, 14528, Note_off_c, 0, 75, 124
1, 14531, Note_on_c, 0, 72, 120
1, 14627, Note_off_c, 0, 72, 120
1, 14630, Note_on_c, 0, 68, 122
1, 14717, Note_off_c, 0, 68, 122
1, 14724, Note_on_c, 0, 67, 120
1, 14764, Note_off_c, 0, 67, 120
1, 14780, Note_on_c, 0, 69, 123
1, 14924, Note_off_c, 0, 69, 123
1, 14926, Note_on_c, 0, 68, 124
1, 15029, Note_off_c, 0, 68, 124
1, 15033, Note_on_c, 0, 67, 122
1, 15254, Note_off_c, 0, 67, 122
1, 16179, Note_on_c, 0, 70, 101
1, 16212, Note_off_c, 0, 70, 101
1, 16258, Note_on_c, 0, 73, 117
1, 16300, Note_off_c, 0, 73, 117
1, 16301, Note_on_c, 0, 75, 120
1, 16453, Note_off_c, 0, 75, 120
1, 16478, Note_on_c, 0, 78, 114
1, 16498, Note_off_c, 0, 78, 114
1, 16498, Note_on_c, 0, 80, 122
1, 16529, Note_off_c, 0, 80, 122
1, 17409, Note_on_c, 0, 86, 115
1, 17444, Note_off_c, 0, 86, 115
1, 17449, Note_on_c, 0, 87, 115
1, 17603, Note_off_c, 0, 87, 115
1, 17614, Note_on_c, 0, 86, 120
1, 17671, Note_off_c, 0, 86, 120
1, 17678, Note_on_c, 0, 85, 117
1, 17752, Note_off_c, 0, 85, 117
1, 17753, Note_on_c, 0, 84, 116
1, 17801, Note_off_c, 0, 84, 116
1, 17801, Note_on_c, 0, 82, 120
1, 17853, Note_off_c, 0, 82, 120
1, 17860, Note_on_c, 0, 82, 117
1, 17934, Note_off_c, 0, 82, 117
1, 17956, Note_on_c, 0, 79, 118
1, 17991, Note_off_c, 0, 79, 118
1, 17996, Note_on_c, 0, 80, 120
1, 18048, Note_off_c, 0, 80, 120
1, 18049, Note_on_c, 0, 79, 118
1, 18108, Note_off_c, 0, 79, 118
1, 18113, Note_on_c, 0, 78, 115
1, 18248, Note_off_c, 0, 78, 115
1, 18249, Note_on_c, 0, 77, 125
1, 18268, Note_off_c, 0, 77, 125
1, 18270, Note_on_c, 0, 76, 120
1, 18298, Note_off_c, 0, 76, 120
1, 18300, Note_on_c, 0, 75, 120
1, 18344, Note_off_c, 0, 75, 120
1, 18344, Note_on_c, 0, 74, 115
1, 18383, Note_off_c, 0, 74, 115
1, 18393, Note_on_c, 0, 72, 119
1, 18429, Note_off_c, 0, 72, 119
1, 18438, Note_on_c, 0, 71, 121
1, 18475, Note_off_c, 0, 71, 121
1, 18477, Note_on_c, 0, 70, 120
1, 18525, Note_off_c, 0, 70, 120
1, 18530, Note_on_c, 0, 69, 121
1, 18573, Note_off_c, 0, 69, 121
1, 18578, Note_on_c, 0, 68, 119
1, 18622, Note_off_c, 0, 68, 119
1, 18627, Note_on_c, 0, 67, 117
1, 18667, Note_off_c, 0, 67, 117
1, 18673, Note_on_c, 0, 66, 116
1, 18746, Note_off_c, 0, 66, 116
1, 18756, Note_on_c, 0, 64, 110
1, 18907, Note_off_c, 0, 64, 110
1, 18947, Note_on_c, 0, 63, 9
1, 19161, Note_off_c, 0, 63, 9
1, 19239, Note_on_c, 0, 71, 85
1, 19279, Note_off_c, 0, 71, 85
1, 19323, Note_on_c, 0, 74, 114
1, 19397, Note_off_c, 0, 74, 114
1, 19400, Note_on_c, 0, 75, 111
1, 19486, Note_off_c, 0, 75, 111
1, 19491, Note_on_c, 0, 76, 108
1, 19705, Note_off_c, 0, 76, 108
1, 19710, Note_on_c, 0, 75, 108
1, 19907, Note_off_c, 0, 75, 108
1, 19909, Note_on_c, 0, 72, 106
1, 20001, Note_off_c, 0, 72, 106
1, 20002, Note_on_c, 0, 66, 99
1, 20319, Note_off_c, 0, 66, 99
1, 20670, Note_on_c, 0, 72, 112
1, 20866, Note_off_c, 0, 72, 112
1, 20869, Note_on_c, 0, 72, 106
1, 21162, Note_off_c, 0, 72, 106
1, 21171, Note_on_c, 0, 75, 110
1, 21260, Note_off_c, 0, 75, 110
1, 21269, Note_on_c, 0, 77, 101
1, 21310, Note_off_c, 0, 77, 101
1, 22326, Note_on_c, 0, 67, 99
1, 22366, Note_off_c, 0, 67, 99
1, 22419, Note_on_c, 0, 72, 122
1, 22610, Note_off_c, 0, 72, 122
1, 22624, Note_on_c, 0, 74, 112
1, 22650, Note_off_c, 0, 74, 112
1, 22657, Note_on_c, 0, 75, 111
1, 22866, Note_off_c, 0, 75, 111
1, 22873, Note_on_c, 0, 76, 113
1, 23105, Note_off_c, 0, 76, 113
1, 23112, Note_on_c, 0, 75, 117
1, 23193, Note_off_c, 0, 75, 117
1, 23232, Note_on_c, 0, 68, 116
1, 23445, Note_off_c, 0, 68, 116
1, 23471, Note_on_c, 0, 68, 118
1, 23508, Note_off_c, 0, 68, 118
1, 23515, Note_on_c, 0, 69, 114
1, 23643, Note_off_c, 0, 69, 114
1, 23654, Note_on_c, 0, 68, 111
1, 23743, Note_off_c, 0, 68, 111
1, 23750, Note_on_c, 0, 66, 106
1, 23846, Note_off_c, 0, 66, 106
1, 23862, Note_on_c, 0, 64, 109
1, 23958, Note_off_c, 0, 64, 109
1, 23967, Note_on_c, 0, 63, 98
1, 24282, Note_off_c, 0, 63, 98
1, 25574, Note_on_c, 0, 75, 104
1, 25607, Note_off_c, 0, 75, 104
1, 25681, Note_on_c, 0, 75, 120
1, 25718, Note_off_c, 0, 75, 120
1, 25775, Note_on_c, 0, 75, 120
1, 25804, Note_off_c, 0, 75, 120
1, 25870, Note_on_c, 0, 75, 113
1, 25899, Note_off_c, 0, 75, 113
1, 25967, Note_on_c, 0, 75, 118
1, 26000, Note_off_c, 0, 75, 118
1, 26061, Note_on_c, 0, 75, 121
1, 26100, Note_off_c, 0, 75, 121
1, 26168, Note_on_c, 0, 75, 122
1, 26201, Note_off_c, 0, 75, 122
1, 26267, Note_on_c, 0, 76, 118
1, 26293, Note_off_c, 0, 76, 118
1, 26298, Note_on_c, 0, 75, 120
1, 26389, Note_off_c, 0, 75, 120
1, 26390, Note_on_c, 0, 76, 119
1, 26538, Note_off_c, 0, 76, 119
1, 26547, Note_on_c, 0, 75, 122
1, 26747, Note_off_c, 0, 75, 122
1, 26754, Note_on_c, 0, 72, 121
1, 26839, Note_off_c, 0, 72, 121
1, 26850, Note_on_c, 0, 69, 118
1, 26935, Note_off_c, 0, 69, 118
1, 26942, Note_on_c, 0, 68, 117
1, 27034, Note_off_c, 0, 68, 117
1, 27034, Note_on_c, 0, 66, 116
1, 27214, Note_off_c, 0, 66, 116
1, 27223, Note_on_c, 0, 64, 112
1, 27505, Note_off_c, 0, 64, 112
1, 27523, Note_on_c, 0, 63, 114
1, 27768, Note_off_c, 0, 63, 114
1, 28589, Note_on_c, 0, 66, 112
1, 28624, Note_off_c, 0, 66, 112
1, 28625, Note_on_c, 0, 67, 120
1, 28898, Note_off_c, 0, 67, 120
1, 28914, Note_on_c, 0, 66, 118
1, 29346, Note_off_c, 0, 66, 118
1, 29396, Note_on_c, 0, 63, 115
1, 29423, Note_off_c, 0, 63, 115
1, 29428, Note_on_c, 0, 64, 115
1, 29543, Note_off_c, 0, 64, 115
1, 29556, Note_on_c, 0, 62, 110
1, 29587, Note_on_c, 0, 63, 115
1, 29587, Note_off_c, 0, 62, 110
1, 29689, Note_off_c, 0, 63, 115
1, 29724, Note_on_c, 0, 56, 112
1, 30056, Note_off_c, 0, 56, 112
1, 30056, Note_on_c, 0, 55, 111
1, 30121, Note_off_c, 0, 55, 111
1, 30128, Note_on_c, 0, 60, 109
1, 30291, Note_off_c, 0, 60, 109
1, 31717, Note_on_c, 0, 61, 106
1, 31759, Note_off_c, 0, 61, 106
1, 31760, Note_on_c, 0, 63, 116
1, 31802, Note_off_c, 0, 63, 116
1, 31809, Note_on_c, 0, 65, 120
1, 31857, Note_off_c, 0, 65, 120
1, 31860, Note_on_c, 0, 66, 112
1, 31904, Note_off_c, 0, 66, 112
1, 31905, Note_on_c, 0, 68, 116
1, 31938, Note_off_c, 0, 68, 116
1, 31943, Note_on_c, 0, 69, 114
1, 31983, Note_off_c, 0, 69, 114
1, 31994, Note_on_c, 0, 71, 117
1, 32046, Note_off_c, 0, 71, 117
1, 32051, Note_on_c, 0, 73, 116
1, 32093, Note_off_c, 0, 73, 116
1, 32098, Note_on_c, 0, 75, 117
1, 32137, Note_off_c, 0, 75, 117
1, 32140, Note_on_c, 0, 76, 115
1, 32189, Note_off_c, 0, 76, 115
1, 32190, Note_on_c, 0, 77, 116
1, 32229, Note_off_c, 0, 77, 116
1, 32230, Note_on_c, 0, 78, 116
1, 32460, Note_off_c, 0, 78, 116
1, 32460, Note_on_c, 0, 76, 113
1, 32612, Note_off_c, 0, 76, 113
1, 32618, Note_on_c, 0, 75, 117
1, 32796, Note_off_c, 0, 75, 117
1, 32808, Note_on_c, 0, 72, 112
1, 32990, Note_off_c, 0, 72, 112
1, 33004, Note_on_c, 0, 68, 100
1, 33327, Note_off_c, 0, 68, 100
1, 34739, Note_on_c, 0, 75, 111
1, 34766, Note_off_c, 0, 75, 111
1, 34768, Note_on_c, 0, 77, 103
1, 34801, Note_off_c, 0, 77, 103
1, 34909, Note_on_c, 0, 79, 109
1, 34946, Note_off_c, 0, 79, 109
1, 34955, Note_on_c, 0, 82, 106
1, 34990, Note_off_c, 0, 82, 106
1, 35114, Note_on_c, 0, 81, 112
1, 35131, Note_off_c, 0, 81, 112
1, 35137, Note_on_c, 0, 80, 98
1, 35152, Note_off_c, 0, 80, 98
1, 35159, Note_on_c, 0, 77, 102
1, 35197, Note_off_c, 0, 77, 102
1, 35305, Note_on_c, 0, 75, 112
1, 35344, Note_off_c, 0, 75, 112
1, 35344, Note_on_c, 0, 77, 109
1, 35382, Note_off_c, 0, 77, 109
1, 35443, Note_on_c, 0, 75, 109
1, 35482, Note_off_c, 0, 75, 109
1, 35683, Note_on_c, 0, 72, 117
1, 35717, Note_off_c, 0, 72, 117
1, 35721, Note_on_c, 0, 73, 111
1, 35747, Note_off_c, 0, 73, 111
1, 35760, Note_on_c, 0, 75, 115
1, 35788, Note_off_c, 0, 75, 115
1, 35873, Note_on_c, 0, 77, 118
1, 35917, Note_off_c, 0, 77, 118
1, 35919, Note_on_c, 0, 80, 113
1, 35958, Note_off_c, 0, 80, 113
1, 36062, Note_on_c, 0, 76, 112
1, 36114, Note_off_c, 0, 76, 112
1, 36268, Note_on_c, 0, 75, 113
1, 36295, Note_off_c, 0, 75, 113
1, 36300, Note_on_c, 0, 77, 106
1, 36331, Note_off_c, 0, 77, 106
1, 36440, Note_on_c, 0, 79, 111
1, 36476, Note_off_c, 0, 79, 111
1, 36484, Note_on_c, 0, 82, 105
1, 36520, Note_off_c, 0, 82, 105
1, 36643, Note_on_c, 0, 81, 110
1, 36657, Note_on_c, 0, 80, 104
1, 36657, Note_off_c, 0, 81, 110
1, 36674, Note_off_c, 0, 80, 104
1, 36681, Note_on_c, 0, 77, 108
1, 36720, Note_off_c, 0, 77, 108
1, 36836, Note_on_c, 0, 75, 114
1, 36871, Note_off_c, 0, 75, 114
1, 36871, Note_on_c, 0, 77, 114
1, 36905, Note_off_c, 0, 77, 114
1, 36973, Note_on_c, 0, 75, 112
1, 37002, Note_off_c, 0, 75, 112
1, 37208, Note_on_c, 0, 72, 117
1, 37243, Note_off_c, 0, 72, 117
1, 37254, Note_on_c, 0, 73, 113
1, 37281, Note_off_c, 0, 73, 113
1, 37284, Note_on_c, 0, 75, 111
1, 37321, Note_off_c, 0, 75, 111
1, 37400, Note_on_c, 0, 77, 118
1, 37444, Note_off_c, 0, 77, 118
1, 37447, Note_on_c, 0, 80, 115
1, 37486, Note_off_c, 0, 80, 115
1, 37588, Note_on_c, 0, 76, 116
1, 37636, Note_off_c, 0, 76, 116
1, 37780, Note_on_c, 0, 78, 115
1, 37962, Note_off_c, 0, 78, 115
1, 37980, Note_on_c, 0, 79, 108
1, 38028, Note_off_c, 0, 79, 108
1, 38035, Note_on_c, 0, 82, 107
1, 38077, Note_off_c, 0, 82, 107
1, 38119, Note_on_c, 0, 80, 115
1, 38158, Note_off_c, 0, 80, 115
1, 38163, Note_on_c, 0, 79, 109
1, 38202, Note_off_c, 0, 79, 109
1, 38361, Note_on_c, 0, 75, 121
1, 38387, Note_off_c, 0, 75, 121
1, 38392, Note_on_c, 0, 77, 102
1, 38429, Note_off_c, 0, 77, 102
1, 38538, Note_on_c, 0, 79, 116
1, 38573, Note_off_c, 0, 79, 116
1, 38582, Note_on_c, 0, 82, 109
1, 38619, Note_off_c, 0, 82, 109
1, 38737, Note_on_c, 0, 81, 115
1, 38754, Note_off_c, 0, 81, 115
1, 38755, Note_on_c, 0, 80, 104
1, 38775, Note_off_c, 0, 80, 104
1, 38781, Note_on_c, 0, 77, 109
1, 38821, Note_off_c, 0, 77, 109
1, 38936, Note_on_c, 0, 75, 119
1, 38960, Note_off_c, 0, 75, 119
1, 38973, Note_on_c, 0, 77, 116
1, 39010, Note_off_c, 0, 77, 116
1, 39071, Note_on_c, 0, 75, 117
1, 39106, Note_off_c, 0, 75, 117
1, 39306, Note_on_c, 0, 72, 123
1, 39333, Note_off_c, 0, 72, 123
1, 39346, Note_on_c, 0, 73, 113
1, 39377, Note_off_c, 0, 73, 113
1, 39390, Note_on_c, 0, 75, 119
1, 39425, Note_off_c, 0, 75, 119
1, 39497, Note_on_c, 0, 77, 124
1, 39537, Note_off_c, 0, 77, 124
1, 39538, Note_on_c, 0, 80, 120
1, 39584, Note_off_c, 0, 80, 120
1, 39684, Note_on_c, 0, 76, 121
1, 39730, Note_off_c, 0, 76, 121
1, 39873, Note_on_c, 0, 78, 119
1, 40053, Note_off_c, 0, 78, 119
1, 40080, Note_on_c, 0, 79, 112
1, 40113, Note_off_c, 0, 79, 112
1, 40133, Note_on_c, 0, 82, 111
1, 40175, Note_off_c, 0, 82, 111
1, 40222, Note_on_c, 0, 80, 122
1, 40253, Note_off_c, 0, 80, 122
1, 40253, Note_on_c, 0, 79, 114
1, 40290, Note_off_c, 0, 79, 114
1, 40449, Note_on_c, 0, 78, 123
1, 40501, Note_off_c, 0, 78, 123
1, 40504, Note_on_c, 0, 76, 115
1, 40537, Note_off_c, 0, 76, 115
1, 40593, Note_on_c, 0, 75, 116
1, 40630, Note_off_c, 0, 75, 116
1, 40821, Note_on_c, 0, 75, 118
1, 40865, Note_off_c, 0, 75, 118
1, 40872, Note_on_c, 0, 76, 118
1, 40907, Note_off_c, 0, 76, 118
1, 40910, Note_on_c, 0, 77, 120
1, 40953, Note_off_c, 0, 77, 120
1, 40958, Note_on_c, 0, 78, 118
1, 41012, Note_off_c, 0, 78, 118
1, 41032, Note_on_c, 0, 77, 119
1, 41153, Note_off_c, 0, 77, 119
1, 41153, Note_on_c, 0, 76, 120
1, 41200, Note_off_c, 0, 76, 120
1, 41203, Note_on_c, 0, 75, 121
1, 41246, Note_off_c, 0, 75, 121
1, 41246, Note_on_c, 0, 72, 121
1, 41285, Note_off_c, 0, 72, 121
1, 41291, Note_on_c, 0, 71, 114
1, 41351, Note_off_c, 0, 71, 114
1, 41396, Note_on_c, 0, 79, 118
1, 41427, Note_off_c, 0, 79, 118
1, 41432, Note_on_c, 0, 82, 113
1, 41463, Note_off_c, 0, 82, 113
1, 41591, Note_on_c, 0, 81, 117
1, 41606, Note_off_c, 0, 81, 117
1, 41607, Note_on_c, 0, 80, 110
1, 41623, Note_off_c, 0, 80, 110
1, 41630, Note_on_c, 0, 77, 118
1, 41658, Note_off_c, 0, 77, 118
1, 41789, Note_on_c, 0, 75, 120
1, 41817, Note_off_c, 0, 75, 120
1, 41823, Note_on_c, 0, 77, 117
1, 41856, Note_off_c, 0, 77, 117
1, 41918, Note_on_c, 0, 75, 114
1, 41957, Note_off_c, 0, 75, 114
1, 42160, Note_on_c, 0, 72, 122
1, 42187, Note_off_c, 0, 72, 122
1, 42197, Note_on_c, 0, 73, 117
1, 42220, Note_off_c, 0, 73, 117
1, 42238, Note_on_c, 0, 75, 121
1, 42265, Note_off_c, 0, 75, 121
1, 42342, Note_on_c, 0, 77, 123
1, 42389, Note_off_c, 0, 77, 123
1, 42396, Note_on_c, 0, 80, 120
1, 42431, Note_off_c, 0, 80, 120
1, 42532, Note_on_c, 0, 78, 116
1, 42727, Note_off_c, 0, 78, 116
1, 42741, Note_on_c, 0, 79, 112
1, 42782, Note_off_c, 0, 79, 112
1, 42795, Note_on_c, 0, 82, 115
1, 42831, Note_off_c, 0, 82, 115
1, 42883, Note_on_c, 0, 80, 119
1, 42922, Note_off_c, 0, 80, 119
1, 42922, Note_on_c, 0, 79, 113
1, 42958, Note_off_c, 0, 79, 113
1, 43104, Note_on_c, 0, 78, 119
1, 43175, Note_off_c, 0, 78, 119
1, 43176, Note_on_c, 0, 76, 115
1, 43213, Note_off_c, 0, 76, 115
1, 43252, Note_on_c, 0, 75, 116
1, 43291, Note_off_c, 0, 75, 116
1, 43488, Note_on_c, 0, 75, 117
1, 43536, Note_off_c, 0, 75, 117
1, 43538, Note_on_c, 0, 76, 116
1, 43578, Note_off_c, 0, 76, 116
1, 43583, Note_on_c, 0, 77, 121
1, 43618, Note_off_c, 0, 77, 121
1, 43623, Note_on_c, 0, 78, 119
1, 43671, Note_off_c, 0, 78, 119
1, 43674, Note_on_c, 0, 76, 115
1, 43690, Note_off_c, 0, 76, 115
1, 43690, Note_on_c, 0, 77, 116
1, 43814, Note_off_c, 0, 77, 116
1, 43817, Note_on_c, 0, 76, 119
1, 43860, Note_off_c, 0, 76, 119
1, 43861, Note_on_c, 0, 75, 119
1, 43908, Note_off_c, 0, 75, 119
1, 43917, Note_on_c, 0, 72, 118
1, 43957, Note_off_c, 0, 72, 118
1, 43963, Note_on_c, 0, 71, 113
1, 44015, Note_off_c, 0, 71, 113
1, 44269, Note_on_c, 0, 75, 120
1, 44302, Note_off_c, 0, 75, 120
1, 44304, Note_on_c, 0, 76, 115
1, 44344, Note_off_c, 0, 76, 115
1, 44444, Note_on_c, 0, 77, 118
1, 44479, Note_off_c, 0, 77, 118
1, 44484, Note_on_c, 0, 78, 116
1, 44517, Note_off_c, 0, 78, 116
1, 44620, Note_on_c, 0, 79, 110
1, 44664, Note_off_c, 0, 79, 110
1, 44669, Note_on_c, 0, 80, 122
1, 44718, Note_off_c, 0, 80, 122
1, 44818, Note_on_c, 0, 80, 118
1, 44874, Note_off_c, 0, 80, 118
1, 45002, Note_on_c, 0, 79, 118
1, 45055, Note_off_c, 0, 79, 118
1, 45061, Note_on_c, 0, 80, 119
1, 45101, Note_off_c, 0, 80, 119
1, 45148, Note_on_c, 0, 79, 116
1, 45255, Note_off_c, 0, 79, 116
1, 45255, Note_on_c, 0, 78, 115
1, 45300, Note_off_c, 0, 78, 115
1, 45305, Note_on_c, 0, 77, 122
1, 45349, Note_off_c, 0, 77, 122
1, 45354, Note_on_c, 0, 76, 121
1, 45397, Note_off_c, 0, 76, 121
1, 45399, Note_on_c, 0, 75, 119
1, 45442, Note_off_c, 0, 75, 119
1, 45580, Note_on_c, 0, 76, 118
1, 45655, Note_off_c, 0, 76, 118
1, 45657, Note_on_c, 0, 75, 118
1, 45721, Note_off_c, 0, 75, 118
1, 45722, Note_on_c, 0, 76, 118
1, 45861, Note_off_c, 0, 76, 118
1, 45885, Note_on_c, 0, 75, 119
1, 46054, Note_off_c, 0, 75, 119
1, 46059, Note_on_c, 0, 74, 118
1, 46094, Note_off_c, 0, 74, 118
1, 46094, Note_on_c, 0, 72, 115
1, 46142, Note_off_c, 0, 72, 115
1, 46157, Note_on_c, 0, 65, 120
1, 46214, Note_off_c, 0, 65, 120
1, 46215, Note_on_c, 0, 66, 113
1, 46311, Note_off_c, 0, 66, 113
1, 46329, Note_on_c, 0, 63, 107
1, 46471, Note_off_c, 0, 63, 107
1, 47114, Note_on_c, 0, 87, 114
1, 47149, Note_off_c, 0, 87, 114
1, 47154, Note_on_c, 0, 88, 122
1, 47197, Note_off_c, 0, 88, 122
1, 47199, Note_on_c, 0, 87, 121
1, 47265, Note_off_c, 0, 87, 121
1, 47276, Note_on_c, 0, 90, 120
1, 47398, Note_off_c, 0, 90, 120
1, 47510, Note_on_c, 0, 86, 124
1, 47547, Note_off_c, 0, 86, 124
1, 47552, Note_on_c, 0, 87, 122
1, 47783, Note_off_c, 0, 87, 122
1, 47785, Note_on_c, 0, 86, 119
1, 47890, Note_off_c, 0, 86, 119
1, 47937, Note_on_c, 0, 84, 118
1, 47986, Note_off_c, 0, 84, 118
1, 47999, Note_on_c, 0, 82, 120
1, 48047, Note_off_c, 0, 82, 120
1, 48051, Note_on_c, 0, 80, 123
1, 48098, Note_off_c, 0, 80, 123
1, 48101, Note_on_c, 0, 79, 121
1, 48138, Note_off_c, 0, 79, 121
1, 48138, Note_on_c, 0, 80, 122
1, 48255, Note_off_c, 0, 80, 122
1, 48747, Note_on_c, 0, 81, 120
1, 48920, Note_off_c, 0, 81, 120
1, 48921, Note_on_c, 0, 80, 117
1, 49020, Note_off_c, 0, 80, 117
1, 49022, Note_on_c, 0, 79, 118
1, 49116, Note_off_c, 0, 79, 118
1, 49116, Note_on_c, 0, 78, 122
1, 49220, Note_off_c, 0, 78, 122
1, 49221, Note_on_c, 0, 77, 122
1, 49241, Note_off_c, 0, 77, 122
1, 49242, Note_on_c, 0, 76, 122
1, 49275, Note_off_c, 0, 76, 122
1, 49278, Note_on_c, 0, 75, 121
1, 49305, Note_off_c, 0, 75, 121
1, 49508, Note_on_c, 0, 72, 121
1, 49572, Note_off_c, 0, 72, 121
1, 49574, Note_on_c, 0, 71, 117
1, 49630, Note_off_c, 0, 71, 117
1, 49691, Note_on_c, 0, 66, 116
1, 49802, Note_off_c, 0, 66, 116
1, 49808, Note_on_c, 0, 64, 112
1, 49979, Note_off_c, 0, 64, 112
1, 49988, Note_on_c, 0, 63, 116
1, 50093, Note_off_c, 0, 63, 116
1, 50264, Note_on_c, 0, 72, 113
1, 50288, Note_off_c, 0, 72, 113
1, 50357, Note_on_c, 0, 75, 124
1, 50400, Note_off_c, 0, 75, 124
1, 50402, Note_on_c, 0, 74, 118
1, 50490, Note_off_c, 0, 74, 118
1, 50495, Note_on_c, 0, 75, 121
1, 50607, Note_off_c, 0, 75, 121
1, 51320, Note_on_c, 0, 75, 123
1, 51410, Note_off_c, 0, 75, 123
1, 51411, Note_on_c, 0, 76, 121
1, 51508, Note_off_c, 0, 76, 121
1, 51509, Note_on_c, 0, 75, 123
1, 51602, Note_off_c, 0, 75, 123
1, 51603, Note_on_c, 0, 72, 123
1, 51697, Note_off_c, 0, 72, 123
1, 51702, Note_on_c, 0, 65, 122
1, 51741, Note_off_c, 0, 65, 122
1, 51741, Note_on_c, 0, 66, 122
1, 51804, Note_off_c, 0, 66, 122
1, 51805, Note_on_c, 0, 64, 115
1, 51902, Note_off_c, 0, 64, 115
1, 51907, Note_on_c, 0, 63, 107
1, 52382, Note_off_c, 0, 63, 107
1, 52397, Note_on_c, 0, 63, 117
1, 52435, Note_off_c, 0, 63, 117
1, 52438, Note_on_c, 0, 64, 117
1, 52651, Note_off_c, 0, 64, 117
1, 52651, End_track
0, 0, End_of_file
