0, 0, Header, 1, 1, 192
1, 0, Start_track
1, 0, Title_t, "Melody"
1, 0, Tempo, 342857
1, 0, Key_signature, -1, "major"
1, 0, Time_signature, 4, 2, 24, 8
1, 2579, Note_on_c, 0, 77, 127
1, 2666, Note_off_c, 0, 77, 127
1, 2669, Note_on_c, 0, 80, 118
1, 2750, Note_off_c, 0, 80, 118
1, 2750, Note_on_c, 0, 82, 102
1, 2850, Note_off_c, 0, 82, 102
1, 2856, Note_on_c, 0, 83, 110
1, 2924, Note_off_c, 0, 83, 110
1, 2933, Note_on_c, 0, 84, 100
1, 3024, Note_off_c, 0, 84, 100
1, 3043, Note_on_c, 0, 82, 112
1, 3134, Note_off_c, 0, 82, 112
1, 3140, Note_on_c, 0, 80, 105
1, 3214, Note_off_c, 0, 80, 105
1, 3236, Note_on_c, 0, 77, 109
1, 3395, Note_off_c, 0, 77, 109
1, 3427, Note_on_c, 0, 77, 105
1, 3534, Note_off_c, 0, 77, 105
1, 3540, Note_on_c, 0, 80, 122
1, 3611, Note_off_c, 0, 80, 122
1, 3624, Note_on_c, 0, 81, 105
1, 3724, Note_off_c, 0, 81, 105
1, 3743, Note_on_c, 0, 77, 105
1, 3915, Note_off_c, 0, 77, 105
1, 4009, Note_on_c, 0, 77, 101
1, 4129, Note_off_c, 0, 77, 101
1, 4138, Note_on_c, 0, 75, 109
1, 4190, Note_off_c, 0, 75, 109
1, 4222, Note_on_c, 0, 74, 98
1, 4300, Note_off_c, 0, 74, 98
1, 4319, Note_on_c, 0, 77, 117
1, 4413, Note_off_c, 0, 77, 117
1, 4413, Note_on_c, 0, 73, 101
1, 4455, Note_off_c, 0, 73, 101
1, 4458, Note_on_c, 0, 74, 113
1, 4519, Note_off_c, 0, 74, 113
1, 4522, Note_on_c, 0, 73, 112
1, 4580, Note_off_c, 0, 73, 112
1, 4606, Note_on_c, 0, 72, 91
1, 4667, Note_off_c, 0, 72, 91
1, 4685, Note_on_c, 0, 70, 100
1, 4755, Note_off_c, 0, 70, 100
1, 4761, Note_on_c, 0, 69, 89
1, 4882, Note_off_c, 0, 69, 89
1, 4902, Note_on_c, 0, 72, 110
1, 4984, Note_off_c, 0, 72, 110
1, 4986, Note_on_c, 0, 67, 88
1, 5047, Note_off_c, 0, 67, 88
1, 5074, Note_on_c, 0, 64, 78
1, 5142, Note_off_c, 0, 64, 78
1, 5155, Note_on_c, 0, 65, 106
1, 5269, Note_off_c, 0, 65, 106
1, 5294, Note_on_c, 0, 63, 107
1, 5346, Note_off_c, 0, 63, 107
1, 5636, Note_on_c, 0, 73, 106
1, 5697, Note_off_c, 0, 73, 106
1, 5698, Note_on_c, 0, 74, 123
1, 5777, Note_off_c, 0, 74, 123
1, 5788, Note_on_c, 0, 73, 101
1, 5861, Note_off_c, 0, 73, 101
1, 5895, Note_on_c, 0, 71, 104
1, 5930, Note_off_c, 0, 71, 104
1, 5959, Note_on_c, 0, 68, 103
1, 6001, Note_off_c, 0, 68, 103
1, 6031, Note_on_c, 0, 66, 104
1, 6065, Note_off_c, 0, 66, 104
1, 6089, Note_on_c, 0, 65, 106
1, 6176, Note_off_c, 0, 65, 106
1, 6228, Note_on_c, 0, 63, 103
1, 6288, Note_off_c, 0, 63, 103
1, 6292, Note_on_c, 0, 62, 104
1, 6374, Note_off_c, 0, 62, 104
1, 6437, Note_on_c, 0, 65, 109
1, 6502, Note_off_c, 0, 65, 109
1, 6507, Note_on_c, 0, 67, 96
1, 6548, Note_off_c, 0, 67, 96
1, 6561, Note_on_c, 0, 68, 106
1, 6604, Note_off_c, 0, 68, 106
1, 6610, Note_on_c, 0, 70, 106
1, 6653, Note_off_c, 0, 70, 106
1, 6698, Note_on_c, 0, 71, 103
1, 6780, Note_off_c, 0, 71, 103
1, 6790, Note_on_c, 0, 70, 105
1, 6874, Note_off_c, 0, 70, 105
1, 6898, Note_on_c, 0, 68, 112
1, 6959, Note_off_c, 0, 68, 112
1, 7001, Note_on_c, 0, 65, 104
1, 7140, Note_off_c, 0, 65, 104
1, 7203, Note_on_c, 0, 61, 107
1, 7269, Note_off_c, 0, 61, 107
1, 7287, Note_on_c, 0, 62, 105
1, 7328, Note_off_c, 0, 62, 105
1, 7328, Note_on_c, 0, 65, 98
1, 7369, Note_off_c, 0, 65, 98
1, 7373, Note_on_c, 0, 67, 121
1, 7418, Note_off_c, 0, 67, 121
1, 7436, Note_on_c, 0, 68, 109
1, 7484, Note_off_c, 0, 68, 109
1, 7488, Note_on_c, 0, 69, 99
1, 7517, Note_off_c, 0, 69, 99
1, 7519, Note_on_c, 0, 70, 98
1, 7562, Note_off_c, 0, 70, 98
1, 7564, Note_on_c, 0, 69, 106
1, 7596, Note_off_c, 0, 69, 106
1, 7648, Note_on_c, 0, 65, 115
1, 7753, Note_off_c, 0, 65, 115
1, 7766, Note_on_c, 0, 60, 99
1, 7882, Note_off_c, 0, 60, 99
1, 7959, Note_on_c, 0, 65, 120
1, 8032, Note_off_c, 0, 65, 120
1, 8032, Note_on_c, 0, 67, 103
1, 8080, Note_off_c, 0, 67, 103
1, 8089, Note_on_c, 0, 69, 108
1, 8139, Note_off_c, 0, 69, 108
1, 8150, Note_on_c, 0, 70, 115
1, 8204, Note_off_c, 0, 70, 115
1, 8213, Note_on_c, 0, 72, 115
1, 8373, Note_off_c, 0, 72, 115
1, 8373, Note_on_c, 0, 62, 93
1, 8528, Note_off_c, 0, 62, 93
1, 8715, Note_on_c, 0, 62, 112
1, 8781, Note_off_c, 0, 62, 112
1, 8781, Note_on_c, 0, 65, 107
1, 8833, Note_off_c, 0, 65, 107
1, 8839, Note_on_c, 0, 69, 104
1, 8882, Note_off_c, 0, 69, 104
1, 8882, Note_on_c, 0, 72, 110
1, 8939, Note_off_c, 0, 72, 110
1, 8946, Note_on_c, 0, 62, 115
1, 9016, Note_off_c, 0, 62, 115
1, 9021, Note_on_c, 0, 67, 99
1, 9069, Note_off_c, 0, 67, 99
1, 9077, Note_on_c, 0, 68, 96
1, 9127, Note_off_c, 0, 68, 96
1, 9136, Note_on_c, 0, 71, 106
1, 9257, Note_off_c, 0, 71, 106
1, 9266, Note_on_c, 0, 69, 95
1, 9336, Note_off_c, 0, 69, 95
1, 9347, Note_on_c, 0, 70, 124
1, 9422, Note_off_c, 0, 70, 124
1, 9488, Note_on_c, 0, 66, 97
1, 9545, Note_off_c, 0, 66, 97
1, 9558, Note_on_c, 0, 67, 112
1, 9631, Note_off_c, 0, 67, 112
1, 9649, Note_on_c, 0, 69, 109
1, 9735, Note_off_c, 0, 69, 109
1, 9757, Note_on_c, 0, 70, 97
1, 9823, Note_off_c, 0, 70, 97
1, 9850, Note_on_c, 0, 72, 104
1, 9916, Note_off_c, 0, 72, 104
1, 9943, Note_on_c, 0, 73, 115
1, 9991, Note_off_c, 0, 73, 115
1, 10002, Note_on_c, 0, 74, 113
1, 10056, Note_off_c, 0, 74, 113
1, 10060, Note_on_c, 0, 73, 114
1, 10126, Note_off_c, 0, 73, 114
1, 10135, Note_on_c, 0, 72, 98
1, 10210, Note_off_c, 0, 72, 98
1, 10236, Note_on_c, 0, 67, 98
1, 10297, Note_off_c, 0, 67, 98
1, 10304, Note_on_c, 0, 72, 89
1, 10345, Note_off_c, 0, 72, 89
1, 10345, Note_on_c, 0, 74, 116
1, 10393, Note_off_c, 0, 74, 116
1, 10399, Note_on_c, 0, 77, 115
1, 10490, Note_off_c, 0, 77, 115
1, 10492, Note_on_c, 0, 79, 114
1, 10571, Note_off_c, 0, 79, 114
1, 10577, Note_on_c, 0, 80, 119
1, 10677, Note_off_c, 0, 80, 119
1, 10677, Note_on_c, 0, 76, 123
1, 10725, Note_off_c, 0, 76, 123
1, 10786, Note_on_c, 0, 72, 93
1, 10856, Note_off_c, 0, 72, 93
1, 10858, Note_on_c, 0, 77, 118
1, 11141, Note_off_c, 0, 77, 118
1, 11287, Note_on_c, 0, 72, 80
1, 11364, Note_off_c, 0, 72, 80
1, 11373, Note_on_c, 0, 74, 112
1, 11455, Note_off_c, 0, 74, 112
1, 11464, Note_on_c, 0, 77, 104
1, 11541, Note_off_c, 0, 77, 104
1, 11543, Note_on_c, 0, 79, 121
1, 11643, Note_off_c, 0, 79, 121
1, 11647, Note_on_c, 0, 80, 102
1, 11726, Note_off_c, 0, 80, 102
1, 11730, Note_on_c, 0, 81, 108
1, 11826, Note_off_c, 0, 81, 108
1, 11830, Note_on_c, 0, 82, 95
1, 11898, Note_off_c, 0, 82, 95
1, 11904, Note_on_c, 0, 83, 107
1, 12011, Note_off_c, 0, 83, 107
1, 12011, Note_on_c, 0, 84, 98
1, 12095, Note_off_c, 0, 84, 98
1, 12099, Note_on_c, 0, 86, 115
1, 12195, Note_off_c, 0, 86, 115
1, 12195, Note_on_c, 0, 87, 100
1, 12295, Note_off_c, 0, 87, 100
1, 12299, Note_on_c, 0, 85, 94
1, 12367, Note_off_c, 0, 85, 94
1, 12376, Note_on_c, 0, 86, 108
1, 12478, Note_off_c, 0, 86, 108
1, 12480, Note_on_c, 0, 84, 104
1, 12562, Note_off_c, 0, 84, 104
1, 12566, Note_on_c, 0, 85, 115
1, 12671, Note_off_c, 0, 85, 115
1, 12673, Note_on_c, 0, 83, 111
1, 12741, Note_off_c, 0, 83, 111
1, 12759, Note_on_c, 0, 84, 93
1, 12871, Note_off_c, 0, 84, 93
1, 12875, Note_on_c, 0, 82, 122
1, 12932, Note_off_c, 0, 82, 122
1, 12966, Note_on_c, 0, 81, 112
1, 13062, Note_off_c, 0, 81, 112
1, 13068, Note_on_c, 0, 79, 108
1, 13154, Note_off_c, 0, 79, 108
1, 13154, Note_on_c, 0, 77, 102
1, 13254, Note_off_c, 0, 77, 102
1, 13258, Note_on_c, 0, 75, 102
1, 13335, Note_off_c, 0, 75, 102
1, 13337, Note_on_c, 0, 74, 112
1, 13403, Note_off_c, 0, 74, 112
1, 13405, Note_on_c, 0, 77, 104
1, 13457, Note_off_c, 0, 77, 104
1, 13457, Note_on_c, 0, 81, 107
1, 13537, Note_off_c, 0, 81, 107
1, 13548, Note_on_c, 0, 84, 85
1, 13632, Note_off_c, 0, 84, 85
1, 13641, Note_on_c, 0, 82, 117
1, 13704, Note_off_c, 0, 82, 117
1, 13745, Note_on_c, 0, 73, 90
1, 13806, Note_off_c, 0, 73, 90
1, 13838, Note_on_c, 0, 71, 77
1, 13901, Note_off_c, 0, 71, 77
1, 13928, Note_on_c, 0, 72, 101
1, 14003, Note_off_c, 0, 72, 101
1, 14039, Note_on_c, 0, 82, 104
1, 14114, Note_off_c, 0, 82, 104
1, 14130, Note_on_c, 0, 79, 109
1, 14180, Note_off_c, 0, 79, 109
1, 14214, Note_on_c, 0, 80, 107
1, 14280, Note_off_c, 0, 80, 107
1, 14291, Note_on_c, 0, 81, 102
1, 14341, Note_off_c, 0, 81, 102
1, 14345, Note_on_c, 0, 82, 103
1, 14388, Note_off_c, 0, 82, 103
1, 14392, Note_on_c, 0, 81, 107
1, 14465, Note_off_c, 0, 81, 107
1, 14474, Note_on_c, 0, 79, 111
1, 14576, Note_off_c, 0, 79, 111
1, 14580, Note_on_c, 0, 77, 110
1, 14680, Note_off_c, 0, 77, 110
1, 14684, Note_on_c, 0, 75, 110
1, 14732, Note_off_c, 0, 75, 110
1, 14736, Note_on_c, 0, 79, 115
1, 14786, Note_off_c, 0, 79, 115
1, 14790, Note_on_c, 0, 82, 106
1, 14856, Note_off_c, 0, 82, 106
1, 14865, Note_on_c, 0, 86, 120
1, 14970, Note_off_c, 0, 86, 120
1, 14974, Note_on_c, 0, 85, 102
1, 15067, Note_off_c, 0, 85, 102
1, 15078, Note_on_c, 0, 81, 108
1, 15121, Note_on_c, 0, 80, 109
1, 15121, Note_off_c, 0, 81, 108
1, 15164, Note_off_c, 0, 80, 109
1, 15166, Note_on_c, 0, 78, 110
1, 15232, Note_off_c, 0, 78, 110
1, 15248, Note_on_c, 0, 77, 113
1, 15346, Note_off_c, 0, 77, 113
1, 15348, Note_on_c, 0, 75, 112
1, 15393, Note_off_c, 0, 75, 112
1, 15454, Note_on_c, 0, 74, 102
1, 15527, Note_off_c, 0, 74, 102
1, 15527, Note_on_c, 0, 77, 112
1, 15607, Note_off_c, 0, 77, 112
1, 15611, Note_on_c, 0, 79, 117
1, 15716, Note_off_c, 0, 79, 117
1, 15716, Note_on_c, 0, 76, 88
1, 15777, Note_off_c, 0, 76, 88
1, 15813, Note_on_c, 0, 79, 123
1, 15883, Note_off_c, 0, 79, 123
1, 15885, Note_on_c, 0, 80, 117
1, 15917, Note_off_c, 0, 80, 117
1, 15923, Note_on_c, 0, 79, 117
1, 15996, Note_off_c, 0, 79, 117
1, 15998, Note_on_c, 0, 77, 109
1, 16082, Note_off_c, 0, 77, 109
1, 16093, Note_on_c, 0, 75, 123
1, 16166, Note_off_c, 0, 75, 123
1, 16191, Note_on_c, 0, 72, 88
1, 16289, Note_off_c, 0, 72, 88
1, 16300, Note_on_c, 0, 70, 105
1, 16370, Note_off_c, 0, 70, 105
1, 16379, Note_on_c, 0, 68, 103
1, 16443, Note_off_c, 0, 68, 103
1, 16454, Note_on_c, 0, 65, 86
1, 16490, Note_off_c, 0, 65, 86
1, 16490, Note_on_c, 0, 67, 97
1, 16549, Note_off_c, 0, 67, 97
1, 16558, Note_on_c, 0, 70, 115
1, 16608, Note_off_c, 0, 70, 115
1, 16612, Note_on_c, 0, 71, 108
1, 16664, Note_off_c, 0, 71, 108
1, 16664, Note_on_c, 0, 70, 115
1, 16723, Note_off_c, 0, 70, 115
1, 16739, Note_on_c, 0, 68, 112
1, 16832, Note_off_c, 0, 68, 112
1, 16847, Note_on_c, 0, 65, 93
1, 17029, Note_off_c, 0, 65, 93
1, 17111, Note_on_c, 0, 62, 98
1, 17236, Note_off_c, 0, 62, 98
1, 17236, Note_on_c, 0, 65, 98
1, 17304, Note_off_c, 0, 65, 98
1, 17316, Note_on_c, 0, 68, 103
1, 17398, Note_off_c, 0, 68, 103
1, 17403, Note_on_c, 0, 69, 100
1, 17478, Note_off_c, 0, 69, 100
1, 17510, Note_on_c, 0, 72, 112
1, 17633, Note_off_c, 0, 72, 112
1, 17653, Note_on_c, 0, 62, 113
1, 17723, Note_off_c, 0, 62, 113
1, 17825, Note_on_c, 0, 62, 113
1, 17879, Note_off_c, 0, 62, 113
1, 17885, Note_on_c, 0, 65, 107
1, 17944, Note_off_c, 0, 65, 107
1, 17944, Note_on_c, 0, 69, 102
1, 17987, Note_off_c, 0, 69, 102
1, 17993, Note_on_c, 0, 72, 107
1, 18063, Note_off_c, 0, 72, 107
1, 18088, Note_on_c, 0, 68, 103
1, 18138, Note_off_c, 0, 68, 103
1, 18149, Note_on_c, 0, 69, 107
1, 18192, Note_off_c, 0, 69, 107
1, 18203, Note_on_c, 0, 70, 112
1, 18255, Note_off_c, 0, 70, 112
1, 18268, Note_on_c, 0, 71, 116
1, 18332, Note_off_c, 0, 71, 116
1, 18496, Note_on_c, 0, 70, 122
1, 18580, Note_off_c, 0, 70, 122
1, 18602, Note_on_c, 0, 66, 101
1, 18652, Note_on_c, 0, 67, 109
1, 18652, Note_off_c, 0, 66, 101
1, 18757, Note_off_c, 0, 67, 109
1, 18782, Note_on_c, 0, 69, 108
1, 18857, Note_off_c, 0, 69, 108
1, 18857, Note_on_c, 0, 70, 117
1, 18907, Note_off_c, 0, 70, 117
1, 18941, Note_on_c, 0, 72, 99
1, 19011, Note_off_c, 0, 72, 99
1, 19022, Note_on_c, 0, 73, 113
1, 19134, Note_off_c, 0, 73, 113
1, 19154, Note_on_c, 0, 74, 114
1, 19282, Note_off_c, 0, 74, 114
1, 19316, Note_on_c, 0, 74, 112
1, 19412, Note_off_c, 0, 74, 112
1, 19418, Note_on_c, 0, 73, 119
1, 19511, Note_off_c, 0, 73, 119
1, 19515, Note_on_c, 0, 71, 115
1, 19581, Note_off_c, 0, 71, 115
1, 19599, Note_on_c, 0, 70, 100
1, 19683, Note_off_c, 0, 70, 100
1, 19699, Note_on_c, 0, 68, 111
1, 19788, Note_off_c, 0, 68, 111
1, 19801, Note_on_c, 0, 66, 102
1, 19878, Note_off_c, 0, 66, 102
1, 19953, Note_on_c, 0, 65, 108
1, 20055, Note_off_c, 0, 65, 108
1, 20064, Note_on_c, 0, 67, 115
1, 20121, Note_on_c, 0, 69, 103
1, 20121, Note_off_c, 0, 67, 115
1, 20237, Note_off_c, 0, 69, 103
1, 20269, Note_on_c, 0, 70, 106
1, 20344, Note_off_c, 0, 70, 106
1, 20357, Note_on_c, 0, 72, 114
1, 20503, Note_off_c, 0, 72, 114
1, 20642, Note_on_c, 0, 65, 103
1, 20717, Note_off_c, 0, 65, 103
1, 20739, Note_on_c, 0, 70, 121
1, 20800, Note_off_c, 0, 70, 121
1, 20804, Note_on_c, 0, 72, 100
1, 20845, Note_off_c, 0, 72, 100
1, 20849, Note_on_c, 0, 70, 117
1, 20892, Note_off_c, 0, 70, 117
1, 20917, Note_on_c, 0, 68, 96
1, 20997, Note_off_c, 0, 68, 96
1, 21026, Note_on_c, 0, 70, 112
1, 21089, Note_off_c, 0, 70, 112
1, 21095, Note_on_c, 0, 72, 103
1, 21140, Note_off_c, 0, 72, 103
1, 21151, Note_on_c, 0, 70, 110
1, 21192, Note_off_c, 0, 70, 110
1, 21219, Note_on_c, 0, 68, 114
1, 21303, Note_off_c, 0, 68, 114
1, 21494, Note_on_c, 0, 65, 121
1, 21843, Note_off_c, 0, 65, 121
1, 21843, End_track
0, 0, End_of_file
