0, 0, Header, 1, 1, 192
1, 0, Start_track
1, 0, Title_t, "Melody"
1, 0, Tempo, 394736
1, 0, Key_signature, 0, "major"
1, 0, Time_signature, 4, 2, 24, 8
1, 2632, Note_on_c, 0, 71, 88
1, 2667, Note_off_c, 0, 71, 88
1, 2686, Note_on_c, 0, 72, 98
1, 2737, Note_off_c, 0, 72, 98
1, 2737, Note_on_c, 0, 76, 106
1, 2784, Note_off_c, 0, 76, 106
1, 2787, Note_on_c, 0, 79, 119
1, 2866, Note_off_c, 0, 79, 119
1, 2877, Note_on_c, 0, 84, 106
1, 3012, Note_off_c, 0, 84, 106
1, 3087, Note_on_c, 0, 81, 106
1, 3130, Note_off_c, 0, 81, 106
1, 3145, Note_on_c, 0, 82, 119
1, 3192, Note_off_c, 0, 82, 119
1, 3203, Note_on_c, 0, 81, 118
1, 3262, Note_off_c, 0, 81, 118
1, 3269, Note_on_c, 0, 80, 102
1, 3360, Note_off_c, 0, 80, 102
1, 3367, Note_on_c, 0, 77, 105
1, 3486, Note_off_c, 0, 77, 105
1, 3497, Note_on_c, 0, 75, 119
1, 3592, Note_off_c, 0, 75, 119
1, 3592, Note_on_c, 0, 72, 98
1, 3655, Note_off_c, 0, 72, 98
1, 3670, Note_on_c, 0, 70, 86
1, 3757, Note_off_c, 0, 70, 86
1, 3772, Note_on_c, 0, 68, 105
1, 3859, Note_off_c, 0, 68, 105
1, 3870, Note_on_c, 0, 67, 89
1, 3961, Note_off_c, 0, 67, 89
1, 3961, Note_on_c, 0, 69, 91
1, 4044, Note_off_c, 0, 69, 91
1, 4044, Note_on_c, 0, 72, 84
1, 4147, Note_off_c, 0, 72, 84
1, 4147, Note_on_c, 0, 75, 120
1, 4214, Note_off_c, 0, 75, 120
1, 4225, Note_on_c, 0, 76, 105
1, 4260, Note_off_c, 0, 76, 105
1, 4267, Note_on_c, 0, 75, 100
1, 4326, Note_off_c, 0, 75, 100
1, 4333, Note_on_c, 0, 74, 109
1, 4415, Note_off_c, 0, 74, 109
1, 4415, Note_on_c, 0, 72, 91
1, 4544, Note_off_c, 0, 72, 91
1, 4553, Note_on_c, 0, 67, 86
1, 4604, Note_off_c, 0, 67, 86
1, 4623, Note_on_c, 0, 69, 97
1, 4677, Note_off_c, 0, 69, 97
1, 4677, Note_on_c, 0, 70, 101
1, 4730, Note_off_c, 0, 70, 101
1, 4738, Note_on_c, 0, 71, 109
1, 4808, Note_off_c, 0, 71, 109
1, 4816, Note_on_c, 0, 68, 98
1, 4931, Note_off_c, 0, 68, 98
1, 4931, Note_on_c, 0, 65, 92
1, 5018, Note_off_c, 0, 65, 92
1, 5020, Note_on_c, 0, 67, 100
1, 5101, Note_off_c, 0, 67, 100
1, 5106, Note_on_c, 0, 65, 102
1, 5204, Note_off_c, 0, 65, 102
1, 5215, Note_on_c, 0, 62, 98
1, 5288, Note_off_c, 0, 62, 98
1, 5299, Note_on_c, 0, 63, 99
1, 5372, Note_off_c, 0, 63, 99
1, 5377, Note_on_c, 0, 60, 100
1, 5470, Note_off_c, 0, 60, 100
1, 5498, Note_on_c, 0, 71, 100
1, 5560, Note_off_c, 0, 71, 100
1, 5568, Note_on_c, 0, 72, 94
1, 5669, Note_off_c, 0, 72, 94
1, 5671, Note_on_c, 0, 74, 118
1, 5755, Note_off_c, 0, 74, 118
1, 5760, Note_on_c, 0, 76, 112
1, 5858, Note_off_c, 0, 76, 112
1, 5858, Note_on_c, 0, 77, 111
1, 5951, Note_off_c, 0, 77, 111
1, 5951, Note_on_c, 0, 79, 111
1, 6052, Note_off_c, 0, 79, 111
1, 6153, Note_on_c, 0, 77, 108
1, 6254, Note_off_c, 0, 77, 108
1, 6270, Note_on_c, 0, 75, 120
1, 6360, Note_off_c, 0, 75, 120
1, 6360, Note_on_c, 0, 72, 82
1, 6430, Note_off_c, 0, 72, 82
1, 6438, Note_on_c, 0, 70, 99
1, 6539, Note_off_c, 0, 70, 99
1, 6547, Note_on_c, 0, 68, 93
1, 6676, Note_off_c, 0, 68, 93
1, 6718, Note_on_c, 0, 67, 100
1, 6816, Note_off_c, 0, 67, 100
1, 6821, Note_on_c, 0, 65, 94
1, 6902, Note_off_c, 0, 65, 94
1, 6904, Note_on_c, 0, 64, 76
1, 6985, Note_off_c, 0, 64, 76
1, 6993, Note_on_c, 0, 67, 104
1, 7074, Note_off_c, 0, 67, 104
1, 7093, Note_on_c, 0, 69, 91
1, 7203, Note_off_c, 0, 69, 91
1, 7203, Note_on_c, 0, 72, 101
1, 7369, Note_off_c, 0, 72, 101
1, 8139, Note_on_c, 0, 72, 107
1, 8206, Note_off_c, 0, 72, 107
1, 8211, Note_on_c, 0, 77, 106
1, 8295, Note_off_c, 0, 77, 106
1, 8311, Note_on_c, 0, 81, 110
1, 8392, Note_off_c, 0, 81, 110
1, 8406, Note_on_c, 0, 82, 116
1, 8527, Note_off_c, 0, 82, 116
1, 8532, Note_on_c, 0, 81, 112
1, 8613, Note_off_c, 0, 81, 112
1, 8613, Note_on_c, 0, 77, 101
1, 8697, Note_off_c, 0, 77, 101
1, 8705, Note_on_c, 0, 72, 88
1, 8786, Note_off_c, 0, 72, 88
1, 8786, Note_on_c, 0, 77, 106
1, 8913, Note_off_c, 0, 77, 106
1, 9107, Note_on_c, 0, 77, 107
1, 9194, Note_off_c, 0, 77, 107
1, 9230, Note_on_c, 0, 79, 105
1, 9266, Note_off_c, 0, 79, 105
1, 9274, Note_on_c, 0, 80, 108
1, 9324, Note_off_c, 0, 80, 108
1, 9335, Note_on_c, 0, 79, 111
1, 9399, Note_off_c, 0, 79, 111
1, 9404, Note_on_c, 0, 77, 108
1, 9488, Note_off_c, 0, 77, 108
1, 9493, Note_on_c, 0, 73, 117
1, 9591, Note_off_c, 0, 73, 117
1, 9599, Note_on_c, 0, 70, 91
1, 9726, Note_off_c, 0, 70, 91
1, 9768, Note_on_c, 0, 72, 96
1, 9849, Note_off_c, 0, 72, 96
1, 9863, Note_on_c, 0, 70, 92
1, 9950, Note_off_c, 0, 70, 92
1, 9952, Note_on_c, 0, 69, 83
1, 10053, Note_off_c, 0, 69, 83
1, 10146, Note_on_c, 0, 74, 101
1, 10219, Note_off_c, 0, 74, 101
1, 10235, Note_on_c, 0, 76, 114
1, 10331, Note_off_c, 0, 76, 114
1, 10342, Note_on_c, 0, 77, 109
1, 10446, Note_off_c, 0, 77, 109
1, 10446, Note_on_c, 0, 72, 92
1, 10527, Note_off_c, 0, 72, 92
1, 10535, Note_on_c, 0, 69, 97
1, 10616, Note_off_c, 0, 69, 97
1, 10731, Note_on_c, 0, 73, 103
1, 10818, Note_off_c, 0, 73, 103
1, 10832, Note_on_c, 0, 74, 113
1, 10933, Note_off_c, 0, 74, 113
1, 10933, Note_on_c, 0, 70, 82
1, 11017, Note_off_c, 0, 70, 82
1, 11019, Note_on_c, 0, 69, 113
1, 11103, Note_off_c, 0, 69, 113
1, 11103, Note_on_c, 0, 68, 100
1, 11170, Note_off_c, 0, 68, 100
1, 11170, Note_on_c, 0, 75, 115
1, 11232, Note_off_c, 0, 75, 115
1, 11234, Note_on_c, 0, 73, 104
1, 11276, Note_off_c, 0, 73, 104
1, 11284, Note_on_c, 0, 72, 98
1, 11382, Note_off_c, 0, 72, 98
1, 11384, Note_on_c, 0, 70, 97
1, 11463, Note_off_c, 0, 70, 97
1, 11465, Note_on_c, 0, 71, 95
1, 11634, Note_off_c, 0, 71, 95
1, 11874, Note_on_c, 0, 60, 98
1, 11964, Note_off_c, 0, 60, 98
1, 11969, Note_on_c, 0, 62, 96
1, 12053, Note_off_c, 0, 62, 96
1, 12072, Note_on_c, 0, 64, 96
1, 12159, Note_off_c, 0, 64, 96
1, 12173, Note_on_c, 0, 65, 107
1, 12249, Note_off_c, 0, 65, 107
1, 12260, Note_on_c, 0, 67, 92
1, 12356, Note_off_c, 0, 67, 92
1, 12361, Note_on_c, 0, 70, 97
1, 12454, Note_off_c, 0, 70, 97
1, 12454, Note_on_c, 0, 68, 107
1, 12550, Note_off_c, 0, 68, 107
1, 12566, Note_on_c, 0, 67, 95
1, 12670, Note_off_c, 0, 67, 95
1, 12670, Note_on_c, 0, 65, 89
1, 12751, Note_off_c, 0, 65, 89
1, 12751, Note_on_c, 0, 67, 97
1, 12824, Note_off_c, 0, 67, 97
1, 12843, Note_on_c, 0, 68, 107
1, 12927, Note_off_c, 0, 68, 107
1, 12932, Note_on_c, 0, 70, 112
1, 13022, Note_off_c, 0, 70, 112
1, 13033, Note_on_c, 0, 66, 93
1, 13134, Note_off_c, 0, 66, 93
1, 13145, Note_on_c, 0, 67, 102
1, 13232, Note_off_c, 0, 67, 102
1, 13330, Note_on_c, 0, 60, 92
1, 13400, Note_off_c, 0, 60, 92
1, 13428, Note_on_c, 0, 65, 92
1, 13546, Note_off_c, 0, 65, 92
1, 13546, Note_on_c, 0, 64, 92
1, 13684, Note_off_c, 0, 64, 92
1, 14087, Note_on_c, 0, 67, 96
1, 14149, Note_off_c, 0, 67, 96
1, 14160, Note_on_c, 0, 72, 108
1, 14241, Note_off_c, 0, 72, 108
1, 14246, Note_on_c, 0, 75, 105
1, 14319, Note_off_c, 0, 75, 105
1, 14333, Note_on_c, 0, 77, 101
1, 14403, Note_off_c, 0, 77, 101
1, 14422, Note_on_c, 0, 79, 117
1, 14534, Note_off_c, 0, 79, 117
1, 14542, Note_on_c, 0, 84, 112
1, 14677, Note_off_c, 0, 84, 112
1, 14708, Note_on_c, 0, 84, 112
1, 14818, Note_off_c, 0, 84, 112
1, 14834, Note_on_c, 0, 79, 113
1, 14932, Note_off_c, 0, 79, 113
1, 14940, Note_on_c, 0, 77, 105
1, 15036, Note_off_c, 0, 77, 105
1, 15038, Note_on_c, 0, 76, 104
1, 15125, Note_off_c, 0, 76, 104
1, 15130, Note_on_c, 0, 72, 106
1, 15226, Note_off_c, 0, 72, 106
1, 15336, Note_on_c, 0, 81, 106
1, 15375, Note_off_c, 0, 81, 106
1, 15391, Note_on_c, 0, 82, 114
1, 15495, Note_off_c, 0, 82, 114
1, 15503, Note_on_c, 0, 80, 100
1, 15601, Note_off_c, 0, 80, 100
1, 15606, Note_on_c, 0, 77, 109
1, 15710, Note_off_c, 0, 77, 109
1, 15710, Note_on_c, 0, 75, 105
1, 15806, Note_off_c, 0, 75, 105
1, 15814, Note_on_c, 0, 72, 104
1, 15893, Note_off_c, 0, 72, 104
1, 15893, Note_on_c, 0, 70, 96
1, 15991, Note_off_c, 0, 70, 96
1, 15996, Note_on_c, 0, 66, 102
1, 16100, Note_off_c, 0, 66, 102
1, 16212, Note_on_c, 0, 69, 88
1, 16279, Note_off_c, 0, 69, 88
1, 16295, Note_on_c, 0, 72, 103
1, 16362, Note_off_c, 0, 72, 103
1, 16393, Note_on_c, 0, 75, 126
1, 16438, Note_off_c, 0, 75, 126
1, 16446, Note_on_c, 0, 76, 99
1, 16510, Note_off_c, 0, 76, 99
1, 16515, Note_on_c, 0, 79, 92
1, 16546, Note_off_c, 0, 79, 92
1, 16562, Note_on_c, 0, 81, 113
1, 16638, Note_off_c, 0, 81, 113
1, 16643, Note_on_c, 0, 84, 101
1, 16798, Note_off_c, 0, 84, 101
1, 17060, Note_on_c, 0, 86, 106
1, 17119, Note_off_c, 0, 86, 106
1, 17121, Note_on_c, 0, 83, 112
1, 17169, Note_off_c, 0, 83, 112
1, 17180, Note_on_c, 0, 86, 110
1, 17233, Note_off_c, 0, 86, 110
1, 17233, Note_on_c, 0, 83, 107
1, 17317, Note_off_c, 0, 83, 107
1, 17319, Note_on_c, 0, 82, 125
1, 17406, Note_off_c, 0, 82, 125
1, 17420, Note_on_c, 0, 81, 105
1, 17501, Note_off_c, 0, 81, 105
1, 17512, Note_on_c, 0, 77, 93
1, 17608, Note_off_c, 0, 77, 93
1, 17616, Note_on_c, 0, 78, 95
1, 17695, Note_off_c, 0, 78, 95
1, 17700, Note_on_c, 0, 79, 113
1, 17832, Note_off_c, 0, 79, 113
1, 17880, Note_on_c, 0, 79, 120
1, 17978, Note_off_c, 0, 79, 120
1, 17983, Note_on_c, 0, 78, 94
1, 18019, Note_off_c, 0, 78, 94
1, 18027, Note_on_c, 0, 77, 102
1, 18080, Note_off_c, 0, 77, 102
1, 18080, Note_on_c, 0, 75, 118
1, 18159, Note_off_c, 0, 75, 118
1, 18164, Note_on_c, 0, 72, 91
1, 18254, Note_off_c, 0, 72, 91
1, 18279, Note_on_c, 0, 74, 99
1, 18318, Note_off_c, 0, 74, 99
1, 18326, Note_on_c, 0, 75, 116
1, 18419, Note_off_c, 0, 75, 116
1, 18435, Note_on_c, 0, 73, 114
1, 18545, Note_off_c, 0, 73, 114
1, 18550, Note_on_c, 0, 72, 94
1, 18648, Note_off_c, 0, 72, 94
1, 18653, Note_on_c, 0, 70, 95
1, 18717, Note_off_c, 0, 70, 95
1, 18728, Note_on_c, 0, 68, 100
1, 18824, Note_off_c, 0, 68, 100
1, 18824, Note_on_c, 0, 66, 104
1, 18920, Note_off_c, 0, 66, 104
1, 18936, Note_on_c, 0, 67, 99
1, 19012, Note_off_c, 0, 67, 99
1, 19034, Note_on_c, 0, 65, 98
1, 19087, Note_off_c, 0, 65, 98
1, 19095, Note_on_c, 0, 64, 100
1, 19193, Note_off_c, 0, 64, 100
1, 19204, Note_on_c, 0, 67, 83
1, 19266, Note_off_c, 0, 67, 83
1, 19271, Note_on_c, 0, 69, 91
1, 19386, Note_off_c, 0, 69, 91
1, 19391, Note_on_c, 0, 70, 96
1, 19458, Note_off_c, 0, 70, 96
1, 19472, Note_on_c, 0, 72, 82
1, 19576, Note_off_c, 0, 72, 82
1, 19581, Note_on_c, 0, 73, 122
1, 19682, Note_off_c, 0, 73, 122
1, 19684, Note_on_c, 0, 74, 110
1, 19791, Note_off_c, 0, 74, 110
1, 19793, Note_on_c, 0, 70, 90
1, 19925, Note_off_c, 0, 70, 90
1, 20043, Note_on_c, 0, 72, 98
1, 20155, Note_off_c, 0, 72, 98
1, 20157, Note_on_c, 0, 71, 104
1, 20244, Note_off_c, 0, 71, 104
1, 20249, Note_on_c, 0, 70, 101
1, 20330, Note_off_c, 0, 70, 101
1, 20332, Note_on_c, 0, 72, 104
1, 20413, Note_off_c, 0, 72, 104
1, 20418, Note_on_c, 0, 73, 104
1, 20514, Note_off_c, 0, 73, 104
1, 20528, Note_on_c, 0, 72, 97
1, 20590, Note_off_c, 0, 72, 97
1, 20604, Note_on_c, 0, 77, 108
1, 20742, Note_off_c, 0, 77, 108
1, 20792, Note_on_c, 0, 77, 100
1, 20893, Note_off_c, 0, 77, 100
1, 20907, Note_on_c, 0, 79, 106
1, 20988, Note_off_c, 0, 79, 106
1, 20990, Note_on_c, 0, 81, 112
1, 21102, Note_off_c, 0, 81, 112
1, 21104, Note_on_c, 0, 79, 108
1, 21180, Note_off_c, 0, 79, 108
1, 21180, Note_on_c, 0, 77, 101
1, 21276, Note_off_c, 0, 77, 101
1, 21290, Note_on_c, 0, 75, 104
1, 21391, Note_off_c, 0, 75, 104
1, 21399, Note_on_c, 0, 73, 114
1, 21506, Note_off_c, 0, 73, 114
1, 21514, Note_on_c, 0, 74, 105
1, 21578, Note_off_c, 0, 74, 105
1, 21586, Note_on_c, 0, 70, 86
1, 21679, Note_off_c, 0, 70, 86
1, 21687, Note_on_c, 0, 69, 90
1, 21751, Note_off_c, 0, 69, 90
1, 21762, Note_on_c, 0, 68, 97
1, 21877, Note_on_c, 0, 75, 112
1, 21877, Note_off_c, 0, 68, 97
1, 21953, Note_off_c, 0, 75, 112
1, 21961, Note_on_c, 0, 73, 96
1, 22068, Note_off_c, 0, 73, 96
1, 22079, Note_on_c, 0, 71, 76
1, 22155, Note_off_c, 0, 71, 76
1, 22174, Note_on_c, 0, 72, 90
1, 22320, Note_off_c, 0, 72, 90
1, 22362, Note_on_c, 0, 65, 89
1, 22458, Note_off_c, 0, 65, 89
1, 22458, Note_on_c, 0, 69, 98
1, 22568, Note_off_c, 0, 69, 98
1, 22573, Note_on_c, 0, 67, 86
1, 22677, Note_off_c, 0, 67, 86
1, 23029, Note_on_c, 0, 65, 109
1, 23091, Note_off_c, 0, 65, 109
1, 23093, Note_on_c, 0, 67, 97
1, 23138, Note_off_c, 0, 67, 97
1, 23143, Note_on_c, 0, 68, 99
1, 23196, Note_off_c, 0, 68, 99
1, 23212, Note_on_c, 0, 70, 107
1, 23282, Note_off_c, 0, 70, 107
1, 23296, Note_on_c, 0, 71, 116
1, 23369, Note_off_c, 0, 71, 116
1, 23369, Note_on_c, 0, 72, 99
1, 23425, Note_off_c, 0, 72, 99
1, 23425, Note_on_c, 0, 71, 114
1, 23481, Note_off_c, 0, 71, 114
1, 23495, Note_on_c, 0, 70, 112
1, 23562, Note_off_c, 0, 70, 112
1, 23581, Note_on_c, 0, 68, 97
1, 23688, Note_off_c, 0, 68, 97
1, 23702, Note_on_c, 0, 67, 89
1, 23826, Note_off_c, 0, 67, 89
1, 23876, Note_on_c, 0, 72, 100
1, 23980, Note_off_c, 0, 72, 100
1, 23988, Note_on_c, 0, 71, 100
1, 24055, Note_off_c, 0, 71, 100
1, 24077, Note_on_c, 0, 72, 107
1, 24167, Note_off_c, 0, 72, 107
1, 24189, Note_on_c, 0, 67, 98
1, 24279, Note_off_c, 0, 67, 98
1, 24290, Note_on_c, 0, 64, 89
1, 24363, Note_off_c, 0, 64, 89
1, 24368, Note_on_c, 0, 60, 89
1, 24438, Note_off_c, 0, 60, 89
1, 24471, Note_on_c, 0, 65, 99
1, 24606, Note_off_c, 0, 65, 99
1, 24622, Note_on_c, 0, 64, 95
1, 24726, Note_off_c, 0, 64, 95
1, 24742, Note_on_c, 0, 62, 93
1, 24795, Note_off_c, 0, 62, 93
1, 24800, Note_on_c, 0, 63, 90
1, 24884, Note_off_c, 0, 63, 90
1, 24946, Note_on_c, 0, 60, 107
1, 25033, Note_off_c, 0, 60, 107
1, 25038, Note_on_c, 0, 59, 88
1, 25122, Note_off_c, 0, 59, 88
1, 25124, Note_on_c, 0, 62, 99
1, 25205, Note_off_c, 0, 62, 99
1, 25230, Note_on_c, 0, 55, 99
1, 25390, Note_off_c, 0, 55, 99
1, 25940, Note_on_c, 0, 71, 99
1, 25990, Note_off_c, 0, 71, 99
1, 25998, Note_on_c, 0, 72, 108
1, 26057, Note_off_c, 0, 72, 108
1, 26071, Note_on_c, 0, 72, 117
1, 26127, Note_off_c, 0, 72, 117
1, 26129, Note_on_c, 0, 72, 110
1, 26191, Note_off_c, 0, 72, 110
1, 26207, Note_on_c, 0, 72, 105
1, 26266, Note_off_c, 0, 72, 105
1, 26285, Note_on_c, 0, 72, 111
1, 26338, Note_off_c, 0, 72, 111
1, 26346, Note_on_c, 0, 72, 103
1, 26396, Note_off_c, 0, 72, 103
1, 26412, Note_on_c, 0, 72, 110
1, 26451, Note_off_c, 0, 72, 110
1, 26462, Note_on_c, 0, 72, 108
1, 26580, Note_off_c, 0, 72, 108
1, 26611, Note_on_c, 0, 72, 104
1, 26771, Note_off_c, 0, 72, 104
1, 26790, Note_on_c, 0, 67, 118
1, 26854, Note_off_c, 0, 67, 118
1, 26854, Note_on_c, 0, 72, 111
1, 26907, Note_off_c, 0, 72, 111
1, 26907, Note_on_c, 0, 76, 112
1, 26960, Note_off_c, 0, 76, 112
1, 26960, Note_on_c, 0, 81, 113
1, 27050, Note_off_c, 0, 81, 113
1, 27052, Note_on_c, 0, 79, 115
1, 27159, Note_off_c, 0, 79, 115
1, 27161, Note_on_c, 0, 76, 108
1, 27251, Note_off_c, 0, 76, 108
1, 27256, Note_on_c, 0, 72, 98
1, 27425, Note_off_c, 0, 72, 98
1, 27458, Note_on_c, 0, 76, 118
1, 27500, Note_off_c, 0, 76, 118
1, 27514, Note_on_c, 0, 77, 114
1, 27615, Note_off_c, 0, 77, 114
1, 27623, Note_on_c, 0, 76, 114
1, 27668, Note_off_c, 0, 76, 114
1, 27682, Note_on_c, 0, 77, 109
1, 27746, Note_off_c, 0, 77, 109
1, 27757, Note_on_c, 0, 76, 113
1, 27799, Note_off_c, 0, 76, 113
1, 27807, Note_on_c, 0, 77, 109
1, 27877, Note_off_c, 0, 77, 109
1, 27882, Note_on_c, 0, 75, 95
1, 27910, Note_off_c, 0, 75, 95
1, 27926, Note_on_c, 0, 72, 90
1, 27962, Note_off_c, 0, 72, 90
1, 27970, Note_on_c, 0, 70, 100
1, 28020, Note_off_c, 0, 70, 100
1, 28028, Note_on_c, 0, 68, 101
1, 28146, Note_off_c, 0, 68, 101
1, 28157, Note_on_c, 0, 67, 92
1, 28380, Note_off_c, 0, 67, 92
1, 28515, Note_on_c, 0, 72, 108
1, 28585, Note_off_c, 0, 72, 108
1, 28599, Note_on_c, 0, 76, 104
1, 28683, Note_off_c, 0, 76, 104
1, 28694, Note_on_c, 0, 79, 122
1, 28787, Note_off_c, 0, 79, 122
1, 28792, Note_on_c, 0, 83, 112
1, 28854, Note_off_c, 0, 83, 112
1, 28865, Note_on_c, 0, 84, 9
1, 28986, Note_off_c, 0, 84, 9
1, 29087, Note_on_c, 0, 81, 115
1, 29171, Note_off_c, 0, 81, 115
1, 29176, Note_on_c, 0, 77, 115
1, 29255, Note_off_c, 0, 77, 115
1, 29263, Note_on_c, 0, 76, 107
1, 29350, Note_off_c, 0, 76, 107
1, 29364, Note_on_c, 0, 75, 122
1, 29440, Note_off_c, 0, 75, 122
1, 29440, Note_on_c, 0, 82, 111
1, 29488, Note_off_c, 0, 82, 111
1, 29499, Note_on_c, 0, 80, 109
1, 29541, Note_off_c, 0, 80, 109
1, 29541, Note_on_c, 0, 79, 113
1, 29608, Note_off_c, 0, 79, 113
1, 29630, Note_on_c, 0, 77, 92
1, 29711, Note_off_c, 0, 77, 92
1, 29722, Note_on_c, 0, 76, 109
1, 29829, Note_off_c, 0, 76, 109
1, 29829, Note_on_c, 0, 79, 107
1, 29910, Note_off_c, 0, 79, 107
1, 29921, Note_on_c, 0, 84, 105
1, 30017, Note_off_c, 0, 84, 105
1, 30022, Note_on_c, 0, 83, 91
1, 30084, Note_off_c, 0, 83, 91
1, 30084, Note_on_c, 0, 84, 120
1, 30199, Note_off_c, 0, 84, 120
1, 30213, Note_on_c, 0, 79, 115
1, 30292, Note_off_c, 0, 79, 115
1, 30294, Note_on_c, 0, 76, 102
1, 30401, Note_off_c, 0, 76, 102
1, 30406, Note_on_c, 0, 74, 94
1, 30490, Note_off_c, 0, 74, 94
1, 30535, Note_on_c, 0, 82, 116
1, 30622, Note_off_c, 0, 82, 116
1, 30633, Note_on_c, 0, 80, 95
1, 30658, Note_off_c, 0, 80, 95
1, 30680, Note_on_c, 0, 82, 112
1, 30784, Note_off_c, 0, 82, 112
1, 30786, Note_on_c, 0, 80, 109
1, 30867, Note_off_c, 0, 80, 109
1, 30875, Note_on_c, 0, 77, 97
1, 30954, Note_off_c, 0, 77, 97
1, 30987, Note_on_c, 0, 72, 94
1, 31051, Note_off_c, 0, 72, 94
1, 31065, Note_on_c, 0, 70, 91
1, 31161, Note_off_c, 0, 70, 91
1, 31161, Note_on_c, 0, 69, 97
1, 31245, Note_off_c, 0, 69, 97
1, 31245, Note_on_c, 0, 68, 102
1, 31346, Note_off_c, 0, 68, 102
1, 31360, Note_on_c, 0, 69, 100
1, 31433, Note_off_c, 0, 69, 100
1, 31447, Note_on_c, 0, 72, 100
1, 31585, Note_off_c, 0, 72, 100
1, 32022, Note_on_c, 0, 85, 109
1, 32070, Note_off_c, 0, 85, 109
1, 32078, Note_on_c, 0, 86, 116
1, 32119, Note_off_c, 0, 86, 116
1, 32124, Note_on_c, 0, 87, 123
1, 32179, Note_off_c, 0, 87, 123
1, 32190, Note_on_c, 0, 84, 108
1, 32289, Note_off_c, 0, 84, 108
1, 32290, Note_on_c, 0, 82, 109
1, 32470, Note_off_c, 0, 82, 109
1, 32471, Note_on_c, 0, 80, 106
1, 32552, Note_off_c, 0, 80, 106
1, 32561, Note_on_c, 0, 78, 101
1, 32662, Note_off_c, 0, 78, 101
1, 32663, Note_on_c, 0, 76, 107
1, 32736, Note_off_c, 0, 76, 107
1, 32745, Note_on_c, 0, 77, 110
1, 32866, Note_off_c, 0, 77, 110
1, 32866, Note_on_c, 0, 72, 91
1, 32935, Note_off_c, 0, 72, 91
1, 32938, Note_on_c, 0, 77, 99
1, 33029, Note_off_c, 0, 77, 99
1, 33040, Note_on_c, 0, 79, 118
1, 33137, Note_off_c, 0, 79, 118
1, 33140, Note_on_c, 0, 81, 116
1, 33235, Note_off_c, 0, 81, 116
1, 33235, Note_on_c, 0, 82, 109
1, 33328, Note_off_c, 0, 82, 109
1, 33329, Note_on_c, 0, 84, 110
1, 33430, Note_off_c, 0, 84, 110
1, 33430, Note_on_c, 0, 82, 115
1, 33529, Note_off_c, 0, 82, 115
1, 33546, Note_on_c, 0, 80, 92
1, 33710, Note_off_c, 0, 80, 92
1, 33805, Note_on_c, 0, 77, 116
1, 33914, Note_off_c, 0, 77, 116
1, 33927, Note_on_c, 0, 78, 105
1, 34083, Note_off_c, 0, 78, 105
1, 34170, Note_on_c, 0, 73, 112
1, 34247, Note_off_c, 0, 73, 112
1, 34276, Note_on_c, 0, 72, 97
1, 34417, Note_off_c, 0, 72, 97
1, 34420, Note_on_c, 0, 76, 114
1, 34477, Note_off_c, 0, 76, 114
1, 34488, Note_on_c, 0, 77, 112
1, 34613, Note_off_c, 0, 77, 112
1, 34658, Note_on_c, 0, 80, 92
1, 34705, Note_off_c, 0, 80, 92
1, 34708, Note_on_c, 0, 81, 101
1, 34844, Note_off_c, 0, 81, 101
1, 34851, Note_on_c, 0, 79, 105
1, 34976, Note_off_c, 0, 79, 105
1, 34989, Note_on_c, 0, 77, 102
1, 35187, Note_off_c, 0, 77, 102
1, 35262, Note_on_c, 0, 74, 105
1, 35303, Note_off_c, 0, 74, 105
1, 35320, Note_on_c, 0, 75, 116
1, 35367, Note_off_c, 0, 75, 116
1, 35372, Note_on_c, 0, 74, 120
1, 35449, Note_off_c, 0, 74, 120
1, 35460, Note_on_c, 0, 73, 106
1, 35666, Note_off_c, 0, 73, 106
1, 35751, Note_on_c, 0, 68, 114
1, 35838, Note_off_c, 0, 68, 114
1, 35847, Note_on_c, 0, 67, 104
1, 35914, Note_off_c, 0, 67, 104
1, 35933, Note_on_c, 0, 72, 95
1, 36002, Note_off_c, 0, 72, 95
1, 36005, Note_on_c, 0, 76, 106
1, 36090, Note_off_c, 0, 76, 106
1, 36107, Note_on_c, 0, 81, 116
1, 36200, Note_off_c, 0, 81, 116
1, 36203, Note_on_c, 0, 79, 108
1, 36296, Note_off_c, 0, 79, 108
1, 36297, Note_on_c, 0, 76, 102
1, 36384, Note_off_c, 0, 76, 102
1, 36391, Note_on_c, 0, 72, 96
1, 36587, Note_off_c, 0, 72, 96
1, 36604, Note_on_c, 0, 77, 107
1, 36756, Note_off_c, 0, 77, 107
1, 36759, Note_on_c, 0, 76, 110
1, 36897, Note_off_c, 0, 76, 110
1, 36916, Note_on_c, 0, 74, 102
1, 36955, Note_off_c, 0, 74, 102
1, 36966, Note_on_c, 0, 75, 119
1, 37001, Note_off_c, 0, 75, 119
1, 37008, Note_on_c, 0, 76, 103
1, 37027, Note_off_c, 0, 76, 103
1, 37030, Note_on_c, 0, 75, 97
1, 37053, Note_off_c, 0, 75, 97
1, 37054, Note_on_c, 0, 72, 96
1, 37105, Note_off_c, 0, 72, 96
1, 37110, Note_on_c, 0, 68, 106
1, 37181, Note_off_c, 0, 68, 106
1, 37194, Note_on_c, 0, 67, 105
1, 37265, Note_off_c, 0, 67, 105
1, 37274, Note_on_c, 0, 65, 92
1, 37341, Note_off_c, 0, 65, 92
1, 37358, Note_on_c, 0, 64, 88
1, 37447, Note_off_c, 0, 64, 88
1, 37462, Note_on_c, 0, 67, 100
1, 37523, Note_off_c, 0, 67, 100
1, 37528, Note_on_c, 0, 69, 99
1, 37639, Note_off_c, 0, 69, 99
1, 37676, Note_on_c, 0, 72, 109
1, 37826, Note_off_c, 0, 72, 109
1, 38417, Note_on_c, 0, 67, 117
1, 38472, Note_off_c, 0, 67, 117
1, 38483, Note_on_c, 0, 72, 112
1, 38570, Note_off_c, 0, 72, 112
1, 38570, Note_on_c, 0, 76, 115
1, 38665, Note_off_c, 0, 76, 115
1, 38676, Note_on_c, 0, 77, 100
1, 38751, Note_off_c, 0, 77, 100
1, 38772, Note_on_c, 0, 76, 106
1, 38823, Note_off_c, 0, 76, 106
1, 38872, Note_on_c, 0, 79, 116
1, 39018, Note_off_c, 0, 79, 116
1, 39029, Note_on_c, 0, 76, 109
1, 39116, Note_off_c, 0, 76, 109
1, 39143, Note_on_c, 0, 74, 121
1, 39236, Note_off_c, 0, 74, 121
1, 39243, Note_on_c, 0, 72, 101
1, 39364, Note_off_c, 0, 72, 101
1, 39413, Note_on_c, 0, 81, 127
1, 39502, Note_off_c, 0, 81, 127
1, 39523, Note_on_c, 0, 80, 96
1, 39596, Note_off_c, 0, 80, 96
1, 39607, Note_on_c, 0, 79, 108
1, 39698, Note_off_c, 0, 79, 108
1, 39717, Note_on_c, 0, 78, 109
1, 39796, Note_off_c, 0, 78, 109
1, 39801, Note_on_c, 0, 76, 113
1, 39886, Note_off_c, 0, 76, 113
1, 39903, Note_on_c, 0, 75, 113
1, 39978, Note_off_c, 0, 75, 113
1, 39993, Note_on_c, 0, 73, 116
1, 40082, Note_off_c, 0, 73, 116
1, 40093, Note_on_c, 0, 71, 109
1, 40174, Note_off_c, 0, 71, 109
1, 40189, Note_on_c, 0, 70, 89
1, 40274, Note_off_c, 0, 70, 89
1, 40289, Note_on_c, 0, 68, 102
1, 40360, Note_off_c, 0, 68, 102
1, 40385, Note_on_c, 0, 67, 91
1, 40466, Note_off_c, 0, 67, 91
1, 40491, Note_on_c, 0, 69, 99
1, 40552, Note_off_c, 0, 69, 99
1, 40581, Note_on_c, 0, 72, 95
1, 40654, Note_off_c, 0, 72, 95
1, 40667, Note_on_c, 0, 75, 117
1, 40736, Note_off_c, 0, 75, 117
1, 40755, Note_on_c, 0, 76, 110
1, 40826, Note_off_c, 0, 76, 110
1, 40847, Note_on_c, 0, 79, 110
1, 40924, Note_off_c, 0, 79, 110
1, 40945, Note_on_c, 0, 81, 108
1, 41036, Note_off_c, 0, 81, 108
1, 41061, Note_on_c, 0, 84, 95
1, 41120, Note_off_c, 0, 84, 95
1, 41141, Note_on_c, 0, 86, 125
1, 41196, Note_off_c, 0, 86, 125
1, 41209, Note_on_c, 0, 87, 112
1, 41246, Note_off_c, 0, 87, 112
1, 41251, Note_on_c, 0, 86, 120
1, 41306, Note_off_c, 0, 86, 120
1, 41327, Note_on_c, 0, 84, 110
1, 41398, Note_off_c, 0, 84, 110
1, 41419, Note_on_c, 0, 82, 119
1, 41498, Note_off_c, 0, 82, 119
1, 41521, Note_on_c, 0, 80, 105
1, 41598, Note_off_c, 0, 80, 105
1, 41615, Note_on_c, 0, 78, 93
1, 41678, Note_off_c, 0, 78, 93
1, 41695, Note_on_c, 0, 79, 108
1, 41788, Note_off_c, 0, 79, 108
1, 41807, Note_on_c, 0, 77, 100
1, 41874, Note_off_c, 0, 77, 100
1, 41905, Note_on_c, 0, 76, 114
1, 41994, Note_off_c, 0, 76, 114
1, 42005, Note_on_c, 0, 79, 109
1, 42074, Note_off_c, 0, 79, 109
1, 42101, Note_on_c, 0, 83, 104
1, 42174, Note_off_c, 0, 83, 104
1, 42191, Note_on_c, 0, 84, 109
1, 42262, Note_off_c, 0, 84, 109
1, 42277, Note_on_c, 0, 83, 98
1, 42340, Note_off_c, 0, 83, 98
1, 42371, Note_on_c, 0, 81, 116
1, 42448, Note_off_c, 0, 81, 116
1, 42467, Note_on_c, 0, 81, 125
1, 42520, Note_off_c, 0, 81, 125
1, 42539, Note_on_c, 0, 82, 115
1, 42600, Note_off_c, 0, 82, 115
1, 42605, Note_on_c, 0, 81, 115
1, 42658, Note_off_c, 0, 81, 115
1, 42667, Note_on_c, 0, 80, 101
1, 42734, Note_off_c, 0, 80, 101
1, 42745, Note_on_c, 0, 77, 104
1, 42810, Note_off_c, 0, 77, 104
1, 42843, Note_on_c, 0, 75, 117
1, 42928, Note_off_c, 0, 75, 117
1, 42945, Note_on_c, 0, 72, 101
1, 43018, Note_off_c, 0, 72, 101
1, 43043, Note_on_c, 0, 70, 90
1, 43118, Note_off_c, 0, 70, 90
1, 43135, Note_on_c, 0, 68, 110
1, 43196, Note_off_c, 0, 68, 110
1, 43233, Note_on_c, 0, 67, 104
1, 43320, Note_off_c, 0, 67, 104
1, 43347, Note_on_c, 0, 65, 88
1, 43404, Note_off_c, 0, 65, 88
1, 43411, Note_on_c, 0, 64, 97
1, 43490, Note_off_c, 0, 64, 97
1, 43501, Note_on_c, 0, 65, 99
1, 43562, Note_off_c, 0, 65, 99
1, 43587, Note_on_c, 0, 67, 97
1, 43656, Note_off_c, 0, 67, 97
1, 43681, Note_on_c, 0, 69, 105
1, 43752, Note_off_c, 0, 69, 105
1, 43755, Note_on_c, 0, 70, 95
1, 43840, Note_off_c, 0, 70, 95
1, 43855, Note_on_c, 0, 72, 97
1, 43934, Note_off_c, 0, 72, 97
1, 43951, Note_on_c, 0, 74, 114
1, 43980, Note_off_c, 0, 74, 114
1, 43997, Note_on_c, 0, 75, 122
1, 44052, Note_off_c, 0, 75, 122
1, 44059, Note_on_c, 0, 74, 116
1, 44124, Note_off_c, 0, 74, 116
1, 44133, Note_on_c, 0, 73, 113
1, 44214, Note_off_c, 0, 73, 113
1, 44243, Note_on_c, 0, 70, 92
1, 44320, Note_off_c, 0, 70, 92
1, 44335, Note_on_c, 0, 72, 97
1, 44424, Note_off_c, 0, 72, 97
1, 44425, Note_on_c, 0, 73, 109
1, 44498, Note_off_c, 0, 73, 109
1, 44501, Note_on_c, 0, 75, 111
1, 44584, Note_off_c, 0, 75, 111
1, 44599, Note_on_c, 0, 76, 111
1, 44668, Note_off_c, 0, 76, 111
1, 44701, Note_on_c, 0, 85, 97
1, 44774, Note_off_c, 0, 85, 97
1, 44797, Note_on_c, 0, 83, 99
1, 44866, Note_off_c, 0, 83, 99
1, 44889, Note_on_c, 0, 84, 109
1, 44990, Note_off_c, 0, 84, 109
1, 44999, Note_on_c, 0, 81, 107
1, 45074, Note_off_c, 0, 81, 107
1, 45091, Note_on_c, 0, 77, 112
1, 45178, Note_off_c, 0, 77, 112
1, 45207, Note_on_c, 0, 72, 81
1, 45266, Note_off_c, 0, 72, 81
1, 45277, Note_on_c, 0, 82, 122
1, 45370, Note_off_c, 0, 82, 122
1, 45395, Note_on_c, 0, 81, 118
1, 45460, Note_off_c, 0, 81, 118
1, 45475, Note_on_c, 0, 77, 112
1, 45560, Note_off_c, 0, 77, 112
1, 45691, Note_on_c, 0, 77, 101
1, 45824, Note_off_c, 0, 77, 101
1, 45865, Note_on_c, 0, 74, 109
1, 45976, Note_off_c, 0, 74, 109
1, 45999, Note_on_c, 0, 75, 114
1, 46130, Note_off_c, 0, 75, 114
1, 46157, Note_on_c, 0, 73, 114
1, 46274, Note_off_c, 0, 73, 114
1, 46277, Note_on_c, 0, 70, 79
1, 46356, Note_off_c, 0, 70, 79
1, 46383, Note_on_c, 0, 72, 96
1, 46506, Note_off_c, 0, 72, 96
1, 46563, Note_on_c, 0, 69, 90
1, 46632, Note_off_c, 0, 69, 90
1, 46633, Note_on_c, 0, 70, 91
1, 46660, Note_off_c, 0, 70, 91
1, 46671, Note_on_c, 0, 72, 96
1, 46698, Note_off_c, 0, 72, 96
1, 46715, Note_on_c, 0, 74, 115
1, 46794, Note_off_c, 0, 74, 115
1, 46825, Note_on_c, 0, 76, 124
1, 46884, Note_off_c, 0, 76, 124
1, 46889, Note_on_c, 0, 77, 110
1, 46928, Note_off_c, 0, 77, 110
1, 46939, Note_on_c, 0, 76, 123
1, 47004, Note_off_c, 0, 76, 123
1, 47009, Note_on_c, 0, 75, 110
1, 47092, Note_off_c, 0, 75, 110
1, 47109, Note_on_c, 0, 72, 105
1, 47182, Note_off_c, 0, 72, 105
1, 47213, Note_on_c, 0, 68, 107
1, 47300, Note_off_c, 0, 68, 107
1, 47301, Note_on_c, 0, 72, 95
1, 47350, Note_off_c, 0, 72, 95
1, 47367, Note_on_c, 0, 75, 119
1, 47418, Note_off_c, 0, 75, 119
1, 47433, Note_on_c, 0, 79, 107
1, 47468, Note_off_c, 0, 79, 107
1, 47487, Note_on_c, 0, 82, 119
1, 47562, Note_off_c, 0, 82, 119
1, 47581, Note_on_c, 0, 80, 114
1, 47662, Note_off_c, 0, 80, 114
1, 47673, Note_on_c, 0, 77, 90
1, 47730, Note_off_c, 0, 77, 90
1, 47755, Note_on_c, 0, 79, 116
1, 47854, Note_off_c, 0, 79, 116
1, 47875, Note_on_c, 0, 77, 108
1, 47956, Note_off_c, 0, 77, 108
1, 47961, Note_on_c, 0, 76, 108
1, 48000, Note_off_c, 0, 76, 108
1, 48007, Note_on_c, 0, 79, 106
1, 48046, Note_off_c, 0, 79, 106
1, 48061, Note_on_c, 0, 81, 105
1, 48110, Note_off_c, 0, 81, 105
1, 48135, Note_on_c, 0, 84, 102
1, 48266, Note_off_c, 0, 84, 102
1, 48271, Note_on_c, 0, 82, 112
1, 48407, Note_off_c, 0, 82, 112
1, 48430, Note_on_c, 0, 79, 102
1, 48455, Note_off_c, 0, 79, 102
1, 48472, Note_on_c, 0, 81, 97
1, 48505, Note_off_c, 0, 81, 97
1, 48530, Note_on_c, 0, 79, 119
1, 48619, Note_off_c, 0, 79, 119
1, 48644, Note_on_c, 0, 77, 102
1, 48715, Note_off_c, 0, 77, 102
1, 48736, Note_on_c, 0, 76, 83
1, 48775, Note_off_c, 0, 76, 83
1, 48784, Note_on_c, 0, 75, 114
1, 48845, Note_off_c, 0, 75, 114
1, 48852, Note_on_c, 0, 74, 104
1, 48907, Note_off_c, 0, 74, 104
1, 48928, Note_on_c, 0, 72, 94
1, 48999, Note_off_c, 0, 72, 94
1, 49008, Note_on_c, 0, 70, 100
1, 49065, Note_off_c, 0, 70, 100
1, 49082, Note_on_c, 0, 68, 98
1, 49143, Note_off_c, 0, 68, 98
1, 49204, Note_on_c, 0, 68, 97
1, 49274, Note_off_c, 0, 68, 97
1, 49279, Note_on_c, 0, 67, 98
1, 49360, Note_off_c, 0, 67, 98
1, 49399, Note_on_c, 0, 65, 96
1, 49475, Note_off_c, 0, 65, 96
1, 49500, Note_on_c, 0, 64, 88
1, 49587, Note_off_c, 0, 64, 88
1, 49595, Note_on_c, 0, 67, 89
1, 49657, Note_off_c, 0, 67, 89
1, 49688, Note_on_c, 0, 69, 87
1, 49764, Note_off_c, 0, 69, 87
1, 49786, Note_on_c, 0, 72, 96
1, 49938, Note_off_c, 0, 72, 96
1, 50358, Note_on_c, 0, 67, 108
1, 50406, Note_off_c, 0, 67, 108
1, 50420, Note_on_c, 0, 72, 103
1, 50496, Note_off_c, 0, 72, 103
1, 50515, Note_on_c, 0, 76, 125
1, 50591, Note_off_c, 0, 76, 125
1, 50616, Note_on_c, 0, 77, 112
1, 50697, Note_off_c, 0, 77, 112
1, 50699, Note_on_c, 0, 76, 100
1, 50775, Note_off_c, 0, 76, 100
1, 50780, Note_on_c, 0, 77, 106
1, 50873, Note_off_c, 0, 77, 106
1, 50895, Note_on_c, 0, 76, 111
1, 50979, Note_off_c, 0, 76, 111
1, 50987, Note_on_c, 0, 77, 114
1, 51091, Note_off_c, 0, 77, 114
1, 51096, Note_on_c, 0, 76, 105
1, 51175, Note_off_c, 0, 76, 105
1, 51183, Note_on_c, 0, 72, 101
1, 51295, Note_off_c, 0, 72, 101
1, 51354, Note_on_c, 0, 72, 97
1, 51529, Note_off_c, 0, 72, 97
1, 51554, Note_on_c, 0, 76, 118
1, 51655, Note_off_c, 0, 76, 118
1, 51677, Note_on_c, 0, 77, 112
1, 51778, Note_off_c, 0, 77, 112
1, 51874, Note_on_c, 0, 77, 117
1, 51941, Note_off_c, 0, 77, 117
1, 51949, Note_on_c, 0, 75, 116
1, 52047, Note_off_c, 0, 75, 116
1, 52066, Note_on_c, 0, 72, 91
1, 52136, Note_off_c, 0, 72, 91
1, 52136, Note_on_c, 0, 70, 94
1, 52234, Note_off_c, 0, 70, 94
1, 52253, Note_on_c, 0, 68, 111
1, 52317, Note_off_c, 0, 68, 111
1, 52537, Note_on_c, 0, 67, 95
1, 52695, Note_off_c, 0, 67, 95
1, 52903, Note_on_c, 0, 72, 110
1, 53109, Note_off_c, 0, 72, 110
1, 53786, Note_on_c, 0, 71, 98
1, 53822, Note_off_c, 0, 71, 98
1, 53833, Note_on_c, 0, 72, 103
1, 53886, Note_off_c, 0, 72, 103
1, 53897, Note_on_c, 0, 76, 107
1, 53922, Note_off_c, 0, 76, 107
1, 53933, Note_on_c, 0, 81, 108
1, 54023, Note_off_c, 0, 81, 108
1, 54031, Note_on_c, 0, 79, 104
1, 54183, Note_off_c, 0, 79, 104
1, 54211, Note_on_c, 0, 81, 109
1, 54377, Note_off_c, 0, 81, 109
1, 54419, Note_on_c, 0, 72, 85
1, 54503, Note_off_c, 0, 72, 85
1, 54519, Note_on_c, 0, 75, 109
1, 54586, Note_off_c, 0, 75, 109
1, 54597, Note_on_c, 0, 76, 113
1, 54715, Note_off_c, 0, 76, 113
1, 54723, Note_on_c, 0, 72, 82
1, 54787, Note_off_c, 0, 72, 82
1, 54803, Note_on_c, 0, 73, 106
1, 54918, Note_off_c, 0, 73, 106
1, 54920, Note_on_c, 0, 72, 99
1, 54968, Note_off_c, 0, 72, 99
1, 55007, Note_on_c, 0, 70, 79
1, 55091, Note_off_c, 0, 70, 79
1, 55113, Note_on_c, 0, 68, 102
1, 55257, Note_off_c, 0, 68, 102
1, 55293, Note_on_c, 0, 65, 84
1, 55343, Note_off_c, 0, 65, 84
1, 55359, Note_on_c, 0, 67, 92
1, 55455, Note_off_c, 0, 67, 92
1, 55471, Note_on_c, 0, 65, 96
1, 55527, Note_off_c, 0, 65, 96
1, 55543, Note_on_c, 0, 64, 85
1, 55633, Note_off_c, 0, 64, 85
1, 55658, Note_on_c, 0, 67, 104
1, 55725, Note_off_c, 0, 67, 104
1, 55730, Note_on_c, 0, 69, 105
1, 55820, Note_off_c, 0, 69, 105
1, 55848, Note_on_c, 0, 72, 96
1, 56011, Note_off_c, 0, 72, 96
1, 56132, Note_on_c, 0, 72, 108
1, 56199, Note_off_c, 0, 72, 108
1, 56218, Note_on_c, 0, 71, 121
1, 56291, Note_off_c, 0, 71, 121
1, 56310, Note_on_c, 0, 70, 108
1, 56343, Note_off_c, 0, 70, 108
1, 56345, Note_on_c, 0, 74, 101
1, 56381, Note_off_c, 0, 74, 101
1, 56392, Note_on_c, 0, 77, 106
1, 56457, Note_off_c, 0, 77, 106
1, 56478, Note_on_c, 0, 81, 116
1, 56567, Note_off_c, 0, 81, 116
1, 56582, Note_on_c, 0, 80, 102
1, 56661, Note_off_c, 0, 80, 102
1, 56661, Note_on_c, 0, 78, 94
1, 56742, Note_off_c, 0, 78, 94
1, 56770, Note_on_c, 0, 76, 107
1, 56840, Note_off_c, 0, 76, 107
1, 56851, Note_on_c, 0, 75, 108
1, 56941, Note_off_c, 0, 75, 108
1, 56960, Note_on_c, 0, 73, 106
1, 57041, Note_off_c, 0, 73, 106
1, 57060, Note_on_c, 0, 72, 100
1, 57136, Note_off_c, 0, 72, 100
1, 57150, Note_on_c, 0, 77, 109
1, 57234, Note_off_c, 0, 77, 109
1, 57250, Note_on_c, 0, 77, 108
1, 57320, Note_off_c, 0, 77, 108
1, 57331, Note_on_c, 0, 77, 105
1, 57401, Note_off_c, 0, 77, 105
1, 57434, Note_on_c, 0, 72, 102
1, 57510, Note_off_c, 0, 72, 102
1, 57532, Note_on_c, 0, 69, 105
1, 57608, Note_off_c, 0, 69, 105
1, 57624, Note_on_c, 0, 65, 89
1, 57731, Note_off_c, 0, 65, 89
1, 57827, Note_on_c, 0, 71, 117
1, 57908, Note_off_c, 0, 71, 117
1, 57930, Note_on_c, 0, 72, 103
1, 58014, Note_on_c, 0, 70, 91
1, 58014, Note_off_c, 0, 72, 103
1, 58090, Note_off_c, 0, 70, 91
1, 58106, Note_on_c, 0, 69, 101
1, 58176, Note_off_c, 0, 69, 101
1, 58190, Note_on_c, 0, 68, 107
1, 58302, Note_off_c, 0, 68, 107
1, 58657, Note_on_c, 0, 65, 100
1, 58724, Note_off_c, 0, 65, 100
1, 58738, Note_on_c, 0, 67, 96
1, 58825, Note_off_c, 0, 67, 96
1, 58850, Note_on_c, 0, 69, 119
1, 58931, Note_off_c, 0, 69, 119
1, 58942, Note_on_c, 0, 70, 93
1, 59026, Note_off_c, 0, 70, 93
1, 59048, Note_on_c, 0, 72, 104
1, 59152, Note_off_c, 0, 72, 104
1, 59200, Note_on_c, 0, 70, 102
1, 59236, Note_off_c, 0, 70, 102
1, 59244, Note_on_c, 0, 69, 110
1, 59277, Note_off_c, 0, 69, 110
1, 59293, Note_on_c, 0, 68, 105
1, 59389, Note_off_c, 0, 68, 105
1, 59400, Note_on_c, 0, 72, 111
1, 59464, Note_off_c, 0, 72, 111
1, 59483, Note_on_c, 0, 75, 124
1, 59533, Note_off_c, 0, 75, 124
1, 59552, Note_on_c, 0, 79, 112
1, 59583, Note_off_c, 0, 79, 112
1, 59588, Note_on_c, 0, 80, 118
1, 59658, Note_off_c, 0, 80, 118
1, 59680, Note_on_c, 0, 82, 115
1, 59846, Note_off_c, 0, 82, 115
1, 59865, Note_on_c, 0, 80, 106
1, 59963, Note_off_c, 0, 80, 106
1, 59982, Note_on_c, 0, 79, 113
1, 60114, Note_off_c, 0, 79, 113
1, 60145, Note_on_c, 0, 81, 122
1, 60226, Note_off_c, 0, 81, 122
1, 60245, Note_on_c, 0, 84, 103
1, 60380, Note_off_c, 0, 84, 103
1, 60453, Note_on_c, 0, 81, 118
1, 60495, Note_off_c, 0, 81, 118
1, 60512, Note_on_c, 0, 82, 126
1, 60555, Note_off_c, 0, 82, 126
1, 60564, Note_on_c, 0, 81, 121
1, 60613, Note_off_c, 0, 81, 121
1, 60630, Note_on_c, 0, 80, 109
1, 60717, Note_off_c, 0, 80, 109
1, 60738, Note_on_c, 0, 77, 96
1, 60853, Note_off_c, 0, 77, 96
1, 60914, Note_on_c, 0, 75, 119
1, 61007, Note_off_c, 0, 75, 119
1, 61020, Note_on_c, 0, 72, 94
1, 61138, Note_off_c, 0, 72, 94
1, 61191, Note_on_c, 0, 70, 91
1, 61301, Note_off_c, 0, 70, 91
1, 61326, Note_on_c, 0, 68, 107
1, 61441, Note_off_c, 0, 68, 107
1, 61441, Note_on_c, 0, 67, 99
1, 61480, Note_off_c, 0, 67, 99
1, 61482, Note_on_c, 0, 65, 85
1, 61530, Note_off_c, 0, 65, 85
1, 61549, Note_on_c, 0, 64, 94
1, 61741, Note_off_c, 0, 64, 94
1, 62020, Note_on_c, 0, 67, 104
1, 62073, Note_off_c, 0, 67, 104
1, 62089, Note_on_c, 0, 72, 102
1, 62148, Note_off_c, 0, 72, 102
1, 62159, Note_on_c, 0, 76, 103
1, 62190, Note_off_c, 0, 76, 103
1, 62204, Note_on_c, 0, 77, 119
1, 62283, Note_off_c, 0, 77, 119
1, 62299, Note_on_c, 0, 75, 118
1, 62349, Note_off_c, 0, 75, 118
1, 62368, Note_on_c, 0, 76, 93
1, 62526, Note_off_c, 0, 76, 93
1, 62579, Note_on_c, 0, 72, 105
1, 62635, Note_off_c, 0, 72, 105
1, 62651, Note_on_c, 0, 73, 105
1, 62741, Note_off_c, 0, 73, 105
1, 62766, Note_on_c, 0, 68, 105
1, 62859, Note_off_c, 0, 68, 105
1, 62870, Note_on_c, 0, 67, 95
1, 62951, Note_off_c, 0, 67, 95
1, 62956, Note_on_c, 0, 65, 88
1, 63015, Note_off_c, 0, 65, 88
1, 63031, Note_on_c, 0, 64, 101
1, 63378, Note_off_c, 0, 64, 101
1, 63380, Note_on_c, 0, 60, 95
1, 63837, Note_off_c, 0, 60, 95
1, 63837, End_track
0, 0, End_of_file
