0, 0, Header, 1, 1, 192
1, 0, Start_track
1, 0, Title_t, "Melody"
1, 0, Tempo, 359281
1, 0, Key_signature, -4, "major"
1, 0, Time_signature, 4, 2, 24, 8
1, 1856, Note_on_c, 0, 83, 99
1, 1932, Note_off_c, 0, 83, 99
1, 1939, Note_on_c, 0, 84, 87
1, 2088, Note_off_c, 0, 84, 87
1, 2099, Note_on_c, 0, 88, 88
1, 2199, Note_off_c, 0, 88, 88
1, 2203, Note_on_c, 0, 84, 91
1, 2276, Note_off_c, 0, 84, 91
1, 2287, Note_on_c, 0, 83, 106
1, 2369, Note_off_c, 0, 83, 106
1, 2382, Note_on_c, 0, 82, 104
1, 2463, Note_off_c, 0, 82, 104
1, 2468, Note_on_c, 0, 80, 83
1, 2563, Note_off_c, 0, 80, 83
1, 2566, Note_on_c, 0, 77, 89
1, 2640, Note_off_c, 0, 77, 89
1, 2659, Note_on_c, 0, 82, 94
1, 2737, Note_off_c, 0, 82, 94
1, 2752, Note_on_c, 0, 79, 102
1, 2793, Note_off_c, 0, 79, 102
1, 2797, Note_on_c, 0, 80, 108
1, 2845, Note_off_c, 0, 80, 108
1, 2851, Note_on_c, 0, 79, 97
1, 2883, Note_off_c, 0, 79, 97
1, 2886, Note_on_c, 0, 77, 116
1, 2935, Note_off_c, 0, 77, 116
1, 2946, Note_on_c, 0, 76, 104
1, 3025, Note_off_c, 0, 76, 104
1, 3032, Note_on_c, 0, 75, 116
1, 3119, Note_off_c, 0, 75, 116
1, 3131, Note_on_c, 0, 73, 103
1, 3201, Note_off_c, 0, 73, 103
1, 3212, Note_on_c, 0, 72, 100
1, 3295, Note_off_c, 0, 72, 100
1, 3311, Note_on_c, 0, 70, 95
1, 3375, Note_off_c, 0, 70, 95
1, 3418, Note_on_c, 0, 65, 82
1, 3481, Note_off_c, 0, 65, 82
1, 3494, Note_on_c, 0, 68, 97
1, 3570, Note_off_c, 0, 68, 97
1, 3580, Note_on_c, 0, 65, 82
1, 3683, Note_off_c, 0, 65, 82
1, 3691, Note_on_c, 0, 67, 120
1, 3764, Note_off_c, 0, 67, 120
1, 3784, Note_on_c, 0, 65, 100
1, 3884, Note_off_c, 0, 65, 100
1, 3894, Note_on_c, 0, 60, 88
1, 3958, Note_off_c, 0, 60, 88
1, 4004, Note_on_c, 0, 65, 98
1, 4068, Note_off_c, 0, 65, 98
1, 4082, Note_on_c, 0, 68, 94
1, 4143, Note_off_c, 0, 68, 94
1, 4171, Note_on_c, 0, 72, 98
1, 4282, Note_off_c, 0, 72, 98
1, 4293, Note_on_c, 0, 70, 77
1, 4344, Note_off_c, 0, 70, 77
1, 4361, Note_on_c, 0, 72, 98
1, 4480, Note_off_c, 0, 72, 98
1, 4493, Note_on_c, 0, 70, 94
1, 4641, Note_off_c, 0, 70, 94
1, 4686, Note_on_c, 0, 72, 115
1, 4748, Note_off_c, 0, 72, 115
1, 4758, Note_on_c, 0, 73, 92
1, 4838, Note_off_c, 0, 73, 92
1, 4853, Note_on_c, 0, 75, 117
1, 4924, Note_off_c, 0, 75, 117
1, 4932, Note_on_c, 0, 78, 96
1, 5065, Note_off_c, 0, 78, 96
1, 5073, Note_on_c, 0, 76, 81
1, 5132, Note_off_c, 0, 76, 81
1, 5145, Note_on_c, 0, 78, 96
1, 5268, Note_off_c, 0, 78, 96
1, 5276, Note_on_c, 0, 76, 96
1, 5439, Note_off_c, 0, 76, 96
1, 5448, Note_on_c, 0, 74, 84
1, 5518, Note_off_c, 0, 74, 84
1, 5527, Note_on_c, 0, 75, 118
1, 5625, Note_off_c, 0, 75, 118
1, 5645, Note_on_c, 0, 73, 101
1, 5733, Note_off_c, 0, 73, 101
1, 5761, Note_on_c, 0, 72, 78
1, 5853, Note_off_c, 0, 72, 78
1, 6015, Note_on_c, 0, 71, 127
1, 6038, Note_off_c, 0, 71, 127
1, 6045, Note_on_c, 0, 69, 108
1, 6092, Note_off_c, 0, 69, 108
1, 6102, Note_on_c, 0, 68, 95
1, 6190, Note_off_c, 0, 68, 95
1, 6204, Note_on_c, 0, 66, 103
1, 6297, Note_off_c, 0, 66, 103
1, 6305, Note_on_c, 0, 62, 81
1, 6399, Note_off_c, 0, 62, 81
1, 6408, Note_on_c, 0, 60, 88
1, 6466, Note_off_c, 0, 60, 88
1, 6477, Note_on_c, 0, 61, 92
1, 6608, Note_off_c, 0, 61, 92
1, 6612, Note_on_c, 0, 65, 84
1, 6674, Note_off_c, 0, 65, 84
1, 6699, Note_on_c, 0, 66, 82
1, 6788, Note_off_c, 0, 66, 82
1, 6792, Note_on_c, 0, 71, 98
1, 6842, Note_off_c, 0, 71, 98
1, 6861, Note_on_c, 0, 73, 99
1, 6902, Note_off_c, 0, 73, 99
1, 6907, Note_on_c, 0, 71, 97
1, 6965, Note_off_c, 0, 71, 97
1, 6982, Note_on_c, 0, 70, 103
1, 7026, Note_off_c, 0, 70, 103
1, 7036, Note_on_c, 0, 68, 90
1, 7150, Note_off_c, 0, 68, 90
1, 7160, Note_on_c, 0, 67, 114
1, 7242, Note_off_c, 0, 67, 114
1, 7266, Note_on_c, 0, 65, 85
1, 7409, Note_off_c, 0, 65, 85
1, 7422, Note_on_c, 0, 62, 82
1, 7488, Note_off_c, 0, 62, 82
1, 7497, Note_on_c, 0, 65, 82
1, 7544, Note_off_c, 0, 65, 82
1, 7552, Note_on_c, 0, 67, 99
1, 7628, Note_off_c, 0, 67, 99
1, 7632, Note_on_c, 0, 68, 91
1, 7711, Note_off_c, 0, 68, 91
1, 7724, Note_on_c, 0, 70, 101
1, 7799, Note_off_c, 0, 70, 101
1, 7817, Note_on_c, 0, 71, 86
1, 7938, Note_off_c, 0, 71, 86
1, 7949, Note_on_c, 0, 67, 77
1, 8009, Note_off_c, 0, 67, 77
1, 8012, Note_on_c, 0, 72, 103
1, 8114, Note_off_c, 0, 72, 103
1, 8133, Note_on_c, 0, 67, 93
1, 8185, Note_off_c, 0, 67, 93
1, 8192, Note_on_c, 0, 74, 92
1, 8305, Note_off_c, 0, 74, 92
1, 8314, Note_on_c, 0, 75, 98
1, 8390, Note_off_c, 0, 75, 98
1, 8398, Note_on_c, 0, 76, 99
1, 8505, Note_off_c, 0, 76, 99
1, 8516, Note_on_c, 0, 72, 79
1, 8573, Note_off_c, 0, 72, 79
1, 8593, Note_on_c, 0, 77, 101
1, 8673, Note_off_c, 0, 77, 101
1, 8689, Note_on_c, 0, 78, 96
1, 8781, Note_off_c, 0, 78, 96
1, 8785, Note_on_c, 0, 79, 101
1, 8897, Note_off_c, 0, 79, 101
1, 8905, Note_on_c, 0, 77, 105
1, 8970, Note_off_c, 0, 77, 105
1, 9078, Note_on_c, 0, 75, 105
1, 9165, Note_off_c, 0, 75, 105
1, 9172, Note_on_c, 0, 76, 101
1, 9227, Note_off_c, 0, 76, 101
1, 9230, Note_on_c, 0, 80, 94
1, 9275, Note_off_c, 0, 80, 94
1, 9283, Note_on_c, 0, 83, 109
1, 9374, Note_off_c, 0, 83, 109
1, 9385, Note_on_c, 0, 80, 93
1, 9444, Note_off_c, 0, 80, 93
1, 9458, Note_on_c, 0, 81, 92
1, 9527, Note_off_c, 0, 81, 92
1, 9546, Note_on_c, 0, 82, 109
1, 9645, Note_off_c, 0, 82, 109
1, 9653, Note_on_c, 0, 80, 89
1, 9718, Note_off_c, 0, 80, 89
1, 9727, Note_on_c, 0, 79, 98
1, 9830, Note_off_c, 0, 79, 98
1, 9838, Note_on_c, 0, 77, 99
1, 9924, Note_off_c, 0, 77, 99
1, 9937, Note_on_c, 0, 75, 99
1, 10040, Note_off_c, 0, 75, 99
1, 10047, Note_on_c, 0, 71, 113
1, 10088, Note_off_c, 0, 71, 113
1, 10097, Note_on_c, 0, 67, 85
1, 10233, Note_off_c, 0, 67, 85
1, 10246, Note_on_c, 0, 63, 79
1, 10302, Note_off_c, 0, 63, 79
1, 10329, Note_on_c, 0, 72, 105
1, 10439, Note_off_c, 0, 72, 105
1, 10445, Note_on_c, 0, 68, 86
1, 10520, Note_off_c, 0, 68, 86
1, 10567, Note_on_c, 0, 72, 90
1, 10620, Note_off_c, 0, 72, 90
1, 10621, Note_on_c, 0, 75, 101
1, 10704, Note_off_c, 0, 75, 101
1, 10709, Note_on_c, 0, 79, 98
1, 10813, Note_off_c, 0, 79, 98
1, 10821, Note_on_c, 0, 77, 98
1, 10911, Note_off_c, 0, 77, 98
1, 10920, Note_on_c, 0, 75, 99
1, 11073, Note_off_c, 0, 75, 99
1, 11094, Note_on_c, 0, 74, 92
1, 11274, Note_off_c, 0, 74, 92
1, 11373, Note_on_c, 0, 85, 102
1, 11398, Note_off_c, 0, 85, 102
1, 11402, Note_on_c, 0, 83, 113
1, 11477, Note_off_c, 0, 83, 113
1, 11481, Note_on_c, 0, 82, 99
1, 11573, Note_off_c, 0, 82, 99
1, 11579, Note_on_c, 0, 78, 91
1, 11670, Note_off_c, 0, 78, 91
1, 11683, Note_on_c, 0, 76, 98
1, 11809, Note_off_c, 0, 76, 98
1, 11861, Note_on_c, 0, 77, 96
1, 11967, Note_off_c, 0, 77, 96
1, 11977, Note_on_c, 0, 74, 91
1, 12055, Note_off_c, 0, 74, 91
1, 12062, Note_on_c, 0, 75, 98
1, 12142, Note_off_c, 0, 75, 98
1, 12152, Note_on_c, 0, 77, 100
1, 12234, Note_off_c, 0, 77, 100
1, 12252, Note_on_c, 0, 78, 79
1, 12333, Note_off_c, 0, 78, 79
1, 12337, Note_on_c, 0, 76, 94
1, 12434, Note_off_c, 0, 76, 94
1, 12437, Note_on_c, 0, 75, 101
1, 12530, Note_off_c, 0, 75, 101
1, 12539, Note_on_c, 0, 73, 106
1, 12616, Note_off_c, 0, 73, 106
1, 12638, Note_on_c, 0, 74, 86
1, 12689, Note_off_c, 0, 74, 86
1, 12694, Note_on_c, 0, 75, 97
1, 12734, Note_off_c, 0, 75, 97
1, 12738, Note_on_c, 0, 79, 94
1, 12820, Note_off_c, 0, 79, 94
1, 12820, Note_on_c, 0, 82, 89
1, 12997, Note_off_c, 0, 82, 89
1, 13009, Note_on_c, 0, 80, 103
1, 13107, Note_off_c, 0, 80, 103
1, 13124, Note_on_c, 0, 80, 95
1, 13163, Note_off_c, 0, 80, 95
1, 13172, Note_on_c, 0, 81, 106
1, 13212, Note_off_c, 0, 81, 106
1, 13218, Note_on_c, 0, 82, 102
1, 13250, Note_off_c, 0, 82, 102
1, 13257, Note_on_c, 0, 79, 108
1, 13303, Note_off_c, 0, 79, 108
1, 13310, Note_on_c, 0, 78, 103
1, 13396, Note_off_c, 0, 78, 103
1, 13411, Note_on_c, 0, 77, 100
1, 13494, Note_off_c, 0, 77, 100
1, 13504, Note_on_c, 0, 75, 101
1, 13575, Note_off_c, 0, 75, 101
1, 13603, Note_on_c, 0, 74, 107
1, 13669, Note_off_c, 0, 74, 107
1, 13688, Note_on_c, 0, 71, 76
1, 13756, Note_off_c, 0, 71, 76
1, 13801, Note_on_c, 0, 72, 79
1, 13875, Note_off_c, 0, 72, 79
1, 13891, Note_on_c, 0, 74, 101
1, 13983, Note_off_c, 0, 74, 101
1, 13985, Note_on_c, 0, 71, 87
1, 14059, Note_off_c, 0, 71, 87
1, 14094, Note_on_c, 0, 67, 82
1, 14141, Note_off_c, 0, 67, 82
1, 14179, Note_on_c, 0, 69, 93
1, 14277, Note_off_c, 0, 69, 93
1, 14288, Note_on_c, 0, 67, 75
1, 14349, Note_off_c, 0, 67, 75
1, 14360, Note_on_c, 0, 69, 89
1, 14435, Note_off_c, 0, 69, 89
1, 14455, Note_on_c, 0, 71, 92
1, 14516, Note_off_c, 0, 71, 92
1, 14560, Note_on_c, 0, 67, 92
1, 14646, Note_off_c, 0, 67, 92
1, 14703, Note_on_c, 0, 62, 82
1, 15374, Note_off_c, 0, 62, 82
1, 15621, Note_on_c, 0, 75, 114
1, 15681, Note_off_c, 0, 75, 114
1, 15694, Note_on_c, 0, 76, 102
1, 15749, Note_off_c, 0, 76, 102
1, 15754, Note_on_c, 0, 79, 90
1, 15799, Note_off_c, 0, 79, 90
1, 15803, Note_on_c, 0, 83, 85
1, 15868, Note_off_c, 0, 83, 85
1, 15871, Note_on_c, 0, 86, 100
1, 16006, Note_off_c, 0, 86, 100
1, 16014, Note_on_c, 0, 84, 104
1, 16185, Note_off_c, 0, 84, 104
1, 16202, Note_on_c, 0, 79, 106
1, 16360, Note_off_c, 0, 79, 106
1, 16367, Note_on_c, 0, 76, 90
1, 16449, Note_off_c, 0, 76, 90
1, 16474, Note_on_c, 0, 82, 94
1, 16525, Note_off_c, 0, 82, 94
1, 16535, Note_on_c, 0, 83, 93
1, 16655, Note_off_c, 0, 83, 93
1, 16665, Note_on_c, 0, 81, 99
1, 16765, Note_off_c, 0, 81, 99
1, 16774, Note_on_c, 0, 79, 98
1, 16856, Note_off_c, 0, 79, 98
1, 16865, Note_on_c, 0, 78, 99
1, 16906, Note_off_c, 0, 78, 99
1, 16914, Note_on_c, 0, 78, 86
1, 16952, Note_off_c, 0, 78, 86
1, 16957, Note_on_c, 0, 81, 100
1, 17030, Note_off_c, 0, 81, 100
1, 17049, Note_on_c, 0, 75, 82
1, 17143, Note_off_c, 0, 75, 82
1, 17154, Note_on_c, 0, 73, 91
1, 17230, Note_off_c, 0, 73, 91
1, 17249, Note_on_c, 0, 74, 99
1, 17350, Note_off_c, 0, 74, 99
1, 17358, Note_on_c, 0, 72, 98
1, 17427, Note_off_c, 0, 72, 98
1, 17442, Note_on_c, 0, 69, 74
1, 17537, Note_off_c, 0, 69, 74
1, 17548, Note_on_c, 0, 70, 88
1, 17614, Note_off_c, 0, 70, 88
1, 17627, Note_on_c, 0, 71, 82
1, 17692, Note_off_c, 0, 71, 82
1, 17707, Note_on_c, 0, 74, 98
1, 17787, Note_off_c, 0, 74, 98
1, 17792, Note_on_c, 0, 76, 87
1, 17958, Note_off_c, 0, 76, 87
1, 17983, Note_on_c, 0, 79, 104
1, 18114, Note_off_c, 0, 79, 104
1, 18115, Note_on_c, 0, 74, 83
1, 18165, Note_off_c, 0, 74, 83
1, 18171, Note_on_c, 0, 81, 102
1, 18249, Note_off_c, 0, 81, 102
1, 18277, Note_on_c, 0, 82, 99
1, 18344, Note_off_c, 0, 82, 99
1, 18356, Note_on_c, 0, 83, 97
1, 18452, Note_off_c, 0, 83, 97
1, 18462, Note_on_c, 0, 84, 115
1, 18552, Note_off_c, 0, 84, 115
1, 18560, Note_on_c, 0, 83, 96
1, 18660, Note_off_c, 0, 83, 96
1, 18671, Note_on_c, 0, 79, 86
1, 18729, Note_off_c, 0, 79, 86
1, 18731, Note_on_c, 0, 81, 95
1, 18931, Note_off_c, 0, 81, 95
1, 19046, Note_on_c, 0, 87, 97
1, 19105, Note_off_c, 0, 87, 97
1, 19109, Note_on_c, 0, 88, 102
1, 19298, Note_off_c, 0, 88, 102
1, 19304, Note_on_c, 0, 86, 100
1, 19395, Note_off_c, 0, 86, 100
1, 19412, Note_on_c, 0, 84, 101
1, 19537, Note_off_c, 0, 84, 101
1, 19547, Note_on_c, 0, 81, 86
1, 19591, Note_off_c, 0, 81, 86
1, 19606, Note_on_c, 0, 83, 100
1, 19665, Note_off_c, 0, 83, 100
1, 19682, Note_on_c, 0, 81, 97
1, 19774, Note_off_c, 0, 81, 97
1, 19791, Note_on_c, 0, 76, 90
1, 19875, Note_off_c, 0, 76, 90
1, 19883, Note_on_c, 0, 79, 98
1, 19972, Note_off_c, 0, 79, 98
1, 19986, Note_on_c, 0, 80, 92
1, 20052, Note_off_c, 0, 80, 92
1, 20068, Note_on_c, 0, 76, 92
1, 20169, Note_off_c, 0, 76, 92
1, 20184, Note_on_c, 0, 71, 82
1, 20248, Note_off_c, 0, 71, 82
1, 20277, Note_on_c, 0, 76, 98
1, 20616, Note_off_c, 0, 76, 98
1, 20817, Note_on_c, 0, 87, 87
1, 20911, Note_off_c, 0, 87, 87
1, 20919, Note_on_c, 0, 88, 99
1, 21008, Note_off_c, 0, 88, 99
1, 21017, Note_on_c, 0, 84, 98
1, 21117, Note_off_c, 0, 84, 98
1, 21121, Note_on_c, 0, 80, 86
1, 21200, Note_off_c, 0, 80, 86
1, 21216, Note_on_c, 0, 76, 93
1, 21299, Note_off_c, 0, 76, 93
1, 21307, Note_on_c, 0, 72, 94
1, 21384, Note_off_c, 0, 72, 94
1, 21396, Note_on_c, 0, 68, 89
1, 21485, Note_off_c, 0, 68, 89
1, 21490, Note_on_c, 0, 60, 91
1, 21617, Note_off_c, 0, 60, 91
1, 21869, Note_on_c, 0, 64, 101
1, 21941, Note_off_c, 0, 64, 101
1, 21944, Note_on_c, 0, 65, 92
1, 21995, Note_off_c, 0, 65, 92
1, 22003, Note_on_c, 0, 68, 97
1, 22044, Note_off_c, 0, 68, 97
1, 22052, Note_on_c, 0, 72, 95
1, 22127, Note_off_c, 0, 72, 95
1, 22153, Note_on_c, 0, 77, 97
1, 22300, Note_off_c, 0, 77, 97
1, 22320, Note_on_c, 0, 72, 79
1, 22492, Note_off_c, 0, 72, 79
1, 22636, Note_on_c, 0, 73, 95
1, 22696, Note_off_c, 0, 73, 95
1, 22703, Note_on_c, 0, 77, 82
1, 22759, Note_off_c, 0, 77, 82
1, 22765, Note_on_c, 0, 80, 98
1, 22813, Note_off_c, 0, 80, 98
1, 22821, Note_on_c, 0, 84, 109
1, 22916, Note_off_c, 0, 84, 109
1, 22928, Note_on_c, 0, 82, 86
1, 23084, Note_off_c, 0, 82, 86
1, 23091, Note_on_c, 0, 80, 94
1, 23191, Note_off_c, 0, 80, 94
1, 23197, Note_on_c, 0, 77, 88
1, 23261, Note_off_c, 0, 77, 88
1, 23290, Note_on_c, 0, 79, 104
1, 23348, Note_off_c, 0, 79, 104
1, 23352, Note_on_c, 0, 82, 85
1, 23400, Note_off_c, 0, 82, 85
1, 23407, Note_on_c, 0, 85, 83
1, 23464, Note_off_c, 0, 85, 83
1, 23469, Note_on_c, 0, 88, 105
1, 23604, Note_off_c, 0, 88, 105
1, 23609, Note_on_c, 0, 87, 75
1, 23833, Note_off_c, 0, 87, 75
1, 23960, Note_on_c, 0, 85, 103
1, 24046, Note_off_c, 0, 85, 103
1, 24050, Note_on_c, 0, 83, 93
1, 24091, Note_off_c, 0, 83, 93
1, 24106, Note_on_c, 0, 84, 96
1, 24149, Note_off_c, 0, 84, 96
1, 24158, Note_on_c, 0, 83, 94
1, 24221, Note_off_c, 0, 83, 94
1, 24237, Note_on_c, 0, 82, 99
1, 24326, Note_off_c, 0, 82, 99
1, 24332, Note_on_c, 0, 80, 92
1, 24402, Note_off_c, 0, 80, 92
1, 24422, Note_on_c, 0, 83, 104
1, 24513, Note_off_c, 0, 83, 104
1, 24523, Note_on_c, 0, 81, 97
1, 24614, Note_off_c, 0, 81, 97
1, 24619, Note_on_c, 0, 80, 82
1, 24705, Note_off_c, 0, 80, 82
1, 24713, Note_on_c, 0, 78, 94
1, 24787, Note_off_c, 0, 78, 94
1, 24798, Note_on_c, 0, 77, 85
1, 24900, Note_off_c, 0, 77, 85
1, 24905, Note_on_c, 0, 80, 95
1, 24976, Note_off_c, 0, 80, 95
1, 24985, Note_on_c, 0, 75, 94
1, 25080, Note_off_c, 0, 75, 94
1, 25094, Note_on_c, 0, 72, 74
1, 25171, Note_off_c, 0, 72, 74
1, 25184, Note_on_c, 0, 73, 76
1, 25278, Note_off_c, 0, 73, 76
1, 25286, Note_on_c, 0, 75, 102
1, 25367, Note_off_c, 0, 75, 102
1, 25375, Note_on_c, 0, 76, 86
1, 25449, Note_off_c, 0, 76, 86
1, 25462, Note_on_c, 0, 79, 96
1, 25541, Note_off_c, 0, 79, 96
1, 25554, Note_on_c, 0, 80, 88
1, 25655, Note_off_c, 0, 80, 88
1, 25666, Note_on_c, 0, 78, 105
1, 25746, Note_off_c, 0, 78, 105
1, 25757, Note_on_c, 0, 76, 88
1, 25834, Note_off_c, 0, 76, 88
1, 25855, Note_on_c, 0, 64, 92
1, 25900, Note_off_c, 0, 64, 92
1, 25907, Note_on_c, 0, 68, 76
1, 25949, Note_off_c, 0, 68, 76
1, 25961, Note_on_c, 0, 71, 65
1, 26037, Note_off_c, 0, 71, 65
1, 26056, Note_on_c, 0, 75, 118
1, 26112, Note_off_c, 0, 75, 118
1, 26131, Note_on_c, 0, 73, 79
1, 26237, Note_off_c, 0, 73, 79
1, 26252, Note_on_c, 0, 71, 88
1, 26300, Note_off_c, 0, 71, 88
1, 26313, Note_on_c, 0, 72, 89
1, 26387, Note_off_c, 0, 72, 89
1, 26400, Note_on_c, 0, 75, 96
1, 26471, Note_off_c, 0, 75, 96
1, 26481, Note_on_c, 0, 77, 94
1, 26602, Note_off_c, 0, 77, 94
1, 26611, Note_on_c, 0, 75, 87
1, 26673, Note_off_c, 0, 75, 87
1, 26680, Note_on_c, 0, 79, 103
1, 26775, Note_off_c, 0, 79, 103
1, 26785, Note_on_c, 0, 80, 96
1, 26866, Note_off_c, 0, 80, 96
1, 26880, Note_on_c, 0, 75, 93
1, 26965, Note_off_c, 0, 75, 93
1, 26977, Note_on_c, 0, 73, 105
1, 27046, Note_off_c, 0, 73, 105
1, 27047, Note_on_c, 0, 71, 74
1, 27154, Note_off_c, 0, 71, 74
1, 27167, Note_on_c, 0, 73, 94
1, 27225, Note_off_c, 0, 73, 94
1, 27231, Note_on_c, 0, 74, 100
1, 27287, Note_off_c, 0, 74, 100
1, 27291, Note_on_c, 0, 73, 94
1, 27327, Note_off_c, 0, 73, 94
1, 27331, Note_on_c, 0, 71, 107
1, 27361, Note_off_c, 0, 71, 107
1, 27370, Note_on_c, 0, 69, 90
1, 27433, Note_off_c, 0, 69, 90
1, 27442, Note_on_c, 0, 73, 98
1, 27543, Note_off_c, 0, 73, 98
1, 27555, Note_on_c, 0, 71, 112
1, 27612, Note_off_c, 0, 71, 112
1, 27645, Note_on_c, 0, 68, 87
1, 27717, Note_off_c, 0, 68, 87
1, 27745, Note_on_c, 0, 66, 81
1, 27793, Note_off_c, 0, 66, 81
1, 27822, Note_on_c, 0, 68, 104
1, 28015, Note_off_c, 0, 68, 104
1, 28184, Note_on_c, 0, 61, 82
1, 28240, Note_off_c, 0, 61, 82
1, 28245, Note_on_c, 0, 65, 91
1, 28314, Note_off_c, 0, 65, 91
1, 28323, Note_on_c, 0, 68, 88
1, 28378, Note_off_c, 0, 68, 88
1, 28385, Note_on_c, 0, 70, 88
1, 28569, Note_off_c, 0, 70, 88
1, 28605, Note_on_c, 0, 70, 84
1, 28656, Note_off_c, 0, 70, 84
1, 28663, Note_on_c, 0, 71, 88
1, 28754, Note_off_c, 0, 71, 88
1, 28792, Note_on_c, 0, 65, 73
1, 28906, Note_off_c, 0, 65, 73
1, 28926, Note_on_c, 0, 61, 87
1, 29145, Note_off_c, 0, 61, 87
1, 29260, Note_on_c, 0, 63, 89
1, 29341, Note_off_c, 0, 63, 89
1, 29345, Note_on_c, 0, 67, 88
1, 29440, Note_off_c, 0, 67, 88
1, 29451, Note_on_c, 0, 68, 105
1, 29526, Note_off_c, 0, 68, 105
1, 29534, Note_on_c, 0, 67, 90
1, 29634, Note_off_c, 0, 67, 90
1, 29640, Note_on_c, 0, 65, 103
1, 29714, Note_off_c, 0, 65, 103
1, 29732, Note_on_c, 0, 63, 88
1, 29914, Note_off_c, 0, 63, 88
1, 30012, Note_on_c, 0, 65, 101
1, 30041, Note_off_c, 0, 65, 101
1, 30047, Note_on_c, 0, 63, 100
1, 30089, Note_off_c, 0, 63, 100
1, 30100, Note_on_c, 0, 62, 84
1, 30206, Note_off_c, 0, 62, 84
1, 30216, Note_on_c, 0, 59, 92
1, 30272, Note_off_c, 0, 59, 92
1, 30277, Note_on_c, 0, 60, 90
1, 30390, Note_off_c, 0, 60, 90
1, 30396, Note_on_c, 0, 62, 85
1, 30472, Note_off_c, 0, 62, 85
1, 30483, Note_on_c, 0, 63, 83
1, 30556, Note_off_c, 0, 63, 83
1, 30571, Note_on_c, 0, 67, 111
1, 30626, Note_off_c, 0, 67, 111
1, 30644, Note_on_c, 0, 72, 99
1, 30671, Note_off_c, 0, 72, 99
1, 30692, Note_on_c, 0, 74, 92
1, 30732, Note_off_c, 0, 74, 92
1, 30753, Note_on_c, 0, 74, 97
1, 30811, Note_off_c, 0, 74, 97
1, 30845, Note_on_c, 0, 74, 9
1, 31006, Note_off_c, 0, 74, 9
1, 31006, End_track
0, 0, End_of_file
