0, 0, Header, 1, 1, 840
1, 0, Start_track
1, 0, Title_t, "Melody"
1, 0, Tempo, 437956
1, 0, Key_signature, -3, "major"
1, 0, Time_signature, 4, 2, 24, 8
1, 3016, Note_on_c, 0, 69, 84
1, 3196, Note_off_c, 0, 69, 84
1, 3226, Note_on_c, 0, 72, 89
1, 3418, Note_off_c, 0, 72, 89
1, 3440, Note_on_c, 0, 74, 81
1, 3668, Note_off_c, 0, 74, 81
1, 3757, Note_on_c, 0, 77, 75
1, 3907, Note_off_c, 0, 77, 75
1, 3940, Note_on_c, 0, 79, 95
1, 4126, Note_off_c, 0, 79, 95
1, 4156, Note_on_c, 0, 81, 73
1, 4292, Note_off_c, 0, 81, 73
1, 4353, Note_on_c, 0, 84, 99
1, 4536, Note_off_c, 0, 84, 99
1, 4550, Note_on_c, 0, 86, 91
1, 4730, Note_off_c, 0, 86, 91
1, 4780, Note_on_c, 0, 84, 117
1, 5190, Note_off_c, 0, 84, 117
1, 5280, Note_on_c, 0, 82, 81
1, 5366, Note_off_c, 0, 82, 81
1, 5420, Note_on_c, 0, 84, 91
1, 5588, Note_off_c, 0, 84, 91
1, 5634, Note_on_c, 0, 82, 112
1, 6084, Note_off_c, 0, 82, 112
1, 6115, Note_on_c, 0, 79, 93
1, 6248, Note_off_c, 0, 79, 93
1, 6287, Note_on_c, 0, 81, 96
1, 6455, Note_off_c, 0, 81, 96
1, 6486, Note_on_c, 0, 79, 95
1, 6638, Note_off_c, 0, 79, 95
1, 6688, Note_on_c, 0, 77, 104
1, 6871, Note_off_c, 0, 77, 104
1, 6933, Note_on_c, 0, 75, 87
1, 7089, Note_off_c, 0, 75, 87
1, 7139, Note_on_c, 0, 72, 90
1, 7330, Note_off_c, 0, 72, 90
1, 7451, Note_on_c, 0, 69, 93
1, 7705, Note_off_c, 0, 69, 93
1, 7744, Note_on_c, 0, 72, 100
1, 7904, Note_off_c, 0, 72, 100
1, 7950, Note_on_c, 0, 74, 79
1, 8071, Note_off_c, 0, 74, 79
1, 8125, Note_on_c, 0, 75, 94
1, 8226, Note_off_c, 0, 75, 94
1, 8304, Note_on_c, 0, 77, 106
1, 8527, Note_off_c, 0, 77, 106
1, 8769, Note_on_c, 0, 72, 92
1, 8956, Note_off_c, 0, 72, 92
1, 9034, Note_on_c, 0, 72, 104
1, 9347, Note_off_c, 0, 72, 104
1, 11198, Note_on_c, 0, 67, 91
1, 11448, Note_off_c, 0, 67, 91
1, 11545, Note_on_c, 0, 72, 88
1, 11705, Note_off_c, 0, 72, 88
1, 11744, Note_on_c, 0, 75, 69
1, 11888, Note_off_c, 0, 75, 69
1, 11934, Note_on_c, 0, 77, 93
1, 12258, Note_off_c, 0, 77, 93
1, 12438, Note_on_c, 0, 78, 69
1, 12531, Note_off_c, 0, 78, 69
1, 12562, Note_on_c, 0, 77, 104
1, 12706, Note_off_c, 0, 77, 104
1, 12737, Note_on_c, 0, 75, 97
1, 12905, Note_off_c, 0, 75, 97
1, 13124, Note_on_c, 0, 72, 90
1, 13472, Note_off_c, 0, 72, 90
1, 13581, Note_on_c, 0, 70, 105
1, 13905, Note_off_c, 0, 70, 105
1, 13987, Note_on_c, 0, 67, 85
1, 14292, Note_off_c, 0, 67, 85
1, 14382, Note_on_c, 0, 65, 89
1, 14569, Note_off_c, 0, 65, 89
1, 14764, Note_on_c, 0, 63, 77
1, 15116, Note_off_c, 0, 63, 77
1, 15307, Note_on_c, 0, 66, 102
1, 15573, Note_off_c, 0, 66, 102
1, 15612, Note_on_c, 0, 65, 89
1, 15909, Note_off_c, 0, 65, 89
1, 16034, Note_on_c, 0, 66, 108
1, 16308, Note_off_c, 0, 66, 108
1, 16386, Note_on_c, 0, 65, 83
1, 16691, Note_off_c, 0, 65, 83
1, 16804, Note_on_c, 0, 66, 85
1, 16901, Note_off_c, 0, 66, 85
1, 17002, Note_on_c, 0, 72, 82
1, 17185, Note_off_c, 0, 72, 82
1, 17259, Note_on_c, 0, 63, 119
1, 17513, Note_off_c, 0, 63, 119
1, 17544, Note_on_c, 0, 65, 111
1, 17657, Note_off_c, 0, 65, 111
1, 17703, Note_on_c, 0, 63, 115
1, 17922, Note_off_c, 0, 63, 115
1, 17957, Note_on_c, 0, 60, 78
1, 18391, Note_off_c, 0, 60, 78
1, 19432, Note_on_c, 0, 60, 83
1, 19702, Note_off_c, 0, 60, 83
1, 19748, Note_on_c, 0, 63, 113
1, 20002, Note_off_c, 0, 63, 113
1, 20021, Note_on_c, 0, 65, 82
1, 20224, Note_off_c, 0, 65, 82
1, 20298, Note_on_c, 0, 67, 90
1, 20544, Note_off_c, 0, 67, 90
1, 20602, Note_on_c, 0, 68, 95
1, 20868, Note_off_c, 0, 68, 95
1, 20977, Note_on_c, 0, 70, 86
1, 21145, Note_off_c, 0, 70, 86
1, 21172, Note_on_c, 0, 68, 100
1, 21301, Note_off_c, 0, 68, 100
1, 21379, Note_on_c, 0, 63, 111
1, 21656, Note_off_c, 0, 63, 111
1, 21902, Note_on_c, 0, 65, 84
1, 22132, Note_off_c, 0, 65, 84
1, 22202, Note_on_c, 0, 63, 96
1, 22401, Note_off_c, 0, 63, 96
1, 22812, Note_on_c, 0, 66, 77
1, 23019, Note_off_c, 0, 66, 77
1, 23081, Note_on_c, 0, 69, 85
1, 23319, Note_off_c, 0, 69, 85
1, 23561, Note_on_c, 0, 72, 94
1, 23756, Note_off_c, 0, 72, 94
1, 23838, Note_on_c, 0, 74, 94
1, 24123, Note_off_c, 0, 74, 94
1, 24479, Note_on_c, 0, 71, 70
1, 24706, Note_off_c, 0, 71, 70
1, 24835, Note_on_c, 0, 72, 95
1, 25101, Note_off_c, 0, 72, 95
1, 25179, Note_on_c, 0, 74, 85
1, 25511, Note_off_c, 0, 74, 85
1, 25655, Note_on_c, 0, 75, 85
1, 25983, Note_off_c, 0, 75, 85
1, 26417, Note_on_c, 0, 77, 106
1, 26773, Note_off_c, 0, 77, 106
1, 26906, Note_on_c, 0, 75, 89
1, 27152, Note_off_c, 0, 75, 89
1, 27249, Note_on_c, 0, 72, 113
1, 27468, Note_off_c, 0, 72, 113
1, 27593, Note_on_c, 0, 75, 99
1, 27749, Note_off_c, 0, 75, 99
1, 27776, Note_on_c, 0, 76, 87
1, 27963, Note_off_c, 0, 76, 87
1, 28045, Note_on_c, 0, 77, 97
1, 28428, Note_off_c, 0, 77, 97
1, 28568, Note_on_c, 0, 75, 109
1, 28888, Note_off_c, 0, 75, 109
1, 28997, Note_on_c, 0, 69, 85
1, 29243, Note_off_c, 0, 69, 85
1, 29426, Note_on_c, 0, 72, 88
1, 29743, Note_off_c, 0, 72, 88
1, 29789, Note_on_c, 0, 74, 80
1, 30172, Note_off_c, 0, 74, 80
1, 30629, Note_on_c, 0, 75, 95
1, 30953, Note_off_c, 0, 75, 95
1, 31136, Note_on_c, 0, 72, 80
1, 31312, Note_off_c, 0, 72, 80
1, 31386, Note_on_c, 0, 67, 71
1, 31847, Note_off_c, 0, 67, 71
1, 32704, Note_on_c, 0, 60, 96
1, 32978, Note_off_c, 0, 60, 96
1, 33013, Note_on_c, 0, 61, 109
1, 33232, Note_off_c, 0, 61, 109
1, 33294, Note_on_c, 0, 62, 78
1, 33485, Note_off_c, 0, 62, 78
1, 33555, Note_on_c, 0, 63, 119
1, 33785, Note_off_c, 0, 63, 119
1, 33828, Note_on_c, 0, 65, 90
1, 34043, Note_off_c, 0, 65, 90
1, 34089, Note_on_c, 0, 67, 103
1, 34272, Note_off_c, 0, 67, 103
1, 34315, Note_on_c, 0, 68, 105
1, 34569, Note_off_c, 0, 68, 105
1, 34592, Note_on_c, 0, 70, 125
1, 34873, Note_off_c, 0, 70, 125
1, 34896, Note_on_c, 0, 71, 89
1, 35040, Note_off_c, 0, 71, 89
1, 35067, Note_on_c, 0, 72, 116
1, 35399, Note_off_c, 0, 72, 116
1, 35438, Note_on_c, 0, 67, 106
1, 35837, Note_off_c, 0, 67, 106
1, 36827, Note_on_c, 0, 65, 106
1, 37042, Note_off_c, 0, 65, 106
1, 37159, Note_on_c, 0, 63, 109
1, 37605, Note_off_c, 0, 63, 109
1, 37722, Note_on_c, 0, 60, 101
1, 38070, Note_off_c, 0, 60, 101
1, 38559, Note_on_c, 0, 60, 95
1, 38735, Note_off_c, 0, 60, 95
1, 38832, Note_on_c, 0, 64, 112
1, 38949, Note_off_c, 0, 64, 112
1, 39011, Note_on_c, 0, 65, 98
1, 39218, Note_off_c, 0, 65, 98
1, 39378, Note_on_c, 0, 60, 90
1, 39522, Note_off_c, 0, 60, 90
1, 39643, Note_on_c, 0, 64, 117
1, 39803, Note_off_c, 0, 64, 117
1, 39822, Note_on_c, 0, 65, 85
1, 39994, Note_off_c, 0, 65, 85
1, 40189, Note_on_c, 0, 65, 111
1, 40459, Note_off_c, 0, 65, 111
1, 41022, Note_on_c, 0, 60, 97
1, 41190, Note_off_c, 0, 60, 97
1, 41307, Note_on_c, 0, 63, 105
1, 41627, Note_off_c, 0, 63, 105
1, 41736, Note_on_c, 0, 77, 102
1, 41974, Note_off_c, 0, 77, 102
1, 42111, Note_on_c, 0, 78, 95
1, 42298, Note_off_c, 0, 78, 95
1, 42372, Note_on_c, 0, 79, 96
1, 42571, Note_off_c, 0, 79, 96
1, 42641, Note_on_c, 0, 79, 101
1, 42778, Note_off_c, 0, 79, 101
1, 42840, Note_on_c, 0, 79, 107
1, 43059, Note_off_c, 0, 79, 107
1, 43184, Note_on_c, 0, 79, 93
1, 43317, Note_off_c, 0, 79, 93
1, 43391, Note_on_c, 0, 79, 101
1, 43672, Note_off_c, 0, 79, 101
1, 43726, Note_on_c, 0, 78, 95
1, 43945, Note_off_c, 0, 78, 95
1, 44003, Note_on_c, 0, 79, 100
1, 44143, Note_off_c, 0, 79, 100
1, 44236, Note_on_c, 0, 79, 80
1, 44361, Note_off_c, 0, 79, 80
1, 44466, Note_on_c, 0, 79, 98
1, 44685, Note_off_c, 0, 79, 98
1, 44771, Note_on_c, 0, 79, 82
1, 44931, Note_off_c, 0, 79, 82
1, 45036, Note_on_c, 0, 79, 98
1, 45231, Note_off_c, 0, 79, 98
1, 45328, Note_on_c, 0, 78, 75
1, 45441, Note_off_c, 0, 78, 75
1, 45519, Note_on_c, 0, 77, 89
1, 45667, Note_off_c, 0, 77, 89
1, 45768, Note_on_c, 0, 75, 83
1, 45881, Note_off_c, 0, 75, 83
1, 45963, Note_on_c, 0, 72, 79
1, 46119, Note_off_c, 0, 72, 79
1, 46220, Note_on_c, 0, 75, 98
1, 46450, Note_off_c, 0, 75, 98
1, 46767, Note_on_c, 0, 77, 99
1, 47072, Note_off_c, 0, 77, 99
1, 47459, Note_on_c, 0, 78, 98
1, 47537, Note_off_c, 0, 78, 98
1, 47568, Note_on_c, 0, 77, 97
1, 47661, Note_off_c, 0, 77, 97
1, 47747, Note_on_c, 0, 75, 102
1, 47895, Note_off_c, 0, 75, 102
1, 47938, Note_on_c, 0, 72, 83
1, 48145, Note_off_c, 0, 72, 83
1, 48325, Note_on_c, 0, 70, 103
1, 48516, Note_off_c, 0, 70, 103
1, 48586, Note_on_c, 0, 67, 89
1, 48875, Note_off_c, 0, 67, 89
1, 49156, Note_on_c, 0, 69, 90
1, 49379, Note_off_c, 0, 69, 90
1, 49480, Note_on_c, 0, 72, 83
1, 49785, Note_off_c, 0, 72, 83
1, 49851, Note_on_c, 0, 74, 101
1, 50007, Note_off_c, 0, 74, 101
1, 50284, Note_on_c, 0, 75, 104
1, 50554, Note_off_c, 0, 75, 104
1, 50714, Note_on_c, 0, 72, 96
1, 51031, Note_off_c, 0, 72, 96
1, 51144, Note_on_c, 0, 70, 74
1, 51472, Note_off_c, 0, 70, 74
1, 51605, Note_on_c, 0, 67, 76
1, 51847, Note_off_c, 0, 67, 76
1, 51972, Note_on_c, 0, 65, 80
1, 52136, Note_off_c, 0, 65, 80
1, 52273, Note_on_c, 0, 68, 77
1, 52406, Note_off_c, 0, 68, 77
1, 52460, Note_on_c, 0, 65, 82
1, 52679, Note_off_c, 0, 65, 82
1, 52761, Note_on_c, 0, 63, 110
1, 53078, Note_off_c, 0, 63, 110
1, 53211, Note_on_c, 0, 60, 83
1, 53430, Note_off_c, 0, 60, 83
1, 53703, Note_on_c, 0, 58, 70
1, 53867, Note_off_c, 0, 58, 70
1, 54097, Note_on_c, 0, 55, 89
1, 54269, Note_off_c, 0, 55, 89
1, 54507, Note_on_c, 0, 60, 98
1, 54761, Note_off_c, 0, 60, 98
1, 54815, Note_on_c, 0, 62, 88
1, 55042, Note_off_c, 0, 62, 88
1, 55374, Note_on_c, 0, 62, 98
1, 55577, Note_off_c, 0, 62, 98
1, 55596, Note_on_c, 0, 63, 95
1, 55733, Note_off_c, 0, 63, 95
1, 55756, Note_on_c, 0, 64, 86
1, 55877, Note_off_c, 0, 64, 86
1, 55904, Note_on_c, 0, 63, 82
1, 56029, Note_off_c, 0, 63, 82
1, 56064, Note_on_c, 0, 62, 100
1, 56439, Note_off_c, 0, 62, 100
1, 56638, Note_on_c, 0, 60, 84
1, 56810, Note_off_c, 0, 60, 84
1, 56880, Note_on_c, 0, 63, 108
1, 57287, Note_off_c, 0, 63, 108
1, 58884, Note_on_c, 0, 65, 100
1, 59048, Note_off_c, 0, 65, 100
1, 59091, Note_on_c, 0, 69, 101
1, 59259, Note_off_c, 0, 69, 101
1, 59278, Note_on_c, 0, 68, 95
1, 59481, Note_off_c, 0, 68, 95
1, 59527, Note_on_c, 0, 70, 83
1, 59664, Note_off_c, 0, 70, 83
1, 59699, Note_on_c, 0, 71, 94
1, 59804, Note_off_c, 0, 71, 94
1, 59854, Note_on_c, 0, 73, 94
1, 59975, Note_off_c, 0, 73, 94
1, 60084, Note_on_c, 0, 76, 98
1, 60256, Note_off_c, 0, 76, 98
1, 60295, Note_on_c, 0, 83, 100
1, 60467, Note_off_c, 0, 83, 100
1, 60510, Note_on_c, 0, 80, 96
1, 60658, Note_off_c, 0, 80, 96
1, 60701, Note_on_c, 0, 81, 114
1, 60834, Note_off_c, 0, 81, 114
1, 60880, Note_on_c, 0, 82, 116
1, 61322, Note_off_c, 0, 82, 116
1, 61361, Note_on_c, 0, 75, 100
1, 61466, Note_off_c, 0, 75, 100
1, 61567, Note_on_c, 0, 80, 96
1, 61758, Note_off_c, 0, 80, 96
1, 61793, Note_on_c, 0, 77, 84
1, 61894, Note_off_c, 0, 77, 84
1, 61917, Note_on_c, 0, 78, 102
1, 62069, Note_off_c, 0, 78, 102
1, 62151, Note_on_c, 0, 79, 93
1, 62288, Note_off_c, 0, 79, 93
1, 62342, Note_on_c, 0, 77, 106
1, 62514, Note_off_c, 0, 77, 106
1, 62604, Note_on_c, 0, 75, 89
1, 62744, Note_off_c, 0, 75, 89
1, 62783, Note_on_c, 0, 74, 93
1, 62908, Note_off_c, 0, 74, 93
1, 62998, Note_on_c, 0, 73, 101
1, 63127, Note_off_c, 0, 73, 101
1, 63193, Note_on_c, 0, 75, 86
1, 63416, Note_off_c, 0, 75, 86
1, 63553, Note_on_c, 0, 74, 82
1, 63713, Note_off_c, 0, 74, 82
1, 63736, Note_on_c, 0, 73, 66
1, 63857, Note_off_c, 0, 73, 66
1, 63927, Note_on_c, 0, 70, 91
1, 64060, Note_off_c, 0, 70, 91
1, 64079, Note_on_c, 0, 67, 77
1, 64200, Note_off_c, 0, 67, 77
1, 64262, Note_on_c, 0, 68, 96
1, 64445, Note_off_c, 0, 68, 96
1, 64507, Note_on_c, 0, 66, 104
1, 64659, Note_off_c, 0, 66, 104
1, 64682, Note_on_c, 0, 67, 88
1, 64830, Note_off_c, 0, 67, 88
1, 64884, Note_on_c, 0, 65, 87
1, 65067, Note_off_c, 0, 65, 87
1, 65113, Note_on_c, 0, 63, 101
1, 65418, Note_off_c, 0, 63, 101
1, 65484, Note_on_c, 0, 62, 85
1, 65667, Note_off_c, 0, 62, 85
1, 65721, Note_on_c, 0, 63, 81
1, 65854, Note_off_c, 0, 63, 81
1, 65893, Note_on_c, 0, 65, 87
1, 66088, Note_off_c, 0, 65, 87
1, 66123, Note_on_c, 0, 67, 94
1, 66287, Note_off_c, 0, 67, 94
1, 66302, Note_on_c, 0, 68, 86
1, 66485, Note_off_c, 0, 68, 86
1, 66539, Note_on_c, 0, 70, 88
1, 66691, Note_off_c, 0, 70, 88
1, 66718, Note_on_c, 0, 77, 81
1, 66858, Note_off_c, 0, 77, 81
1, 66893, Note_on_c, 0, 75, 96
1, 67037, Note_off_c, 0, 75, 96
1, 67087, Note_on_c, 0, 73, 68
1, 67294, Note_off_c, 0, 73, 68
1, 67344, Note_on_c, 0, 70, 92
1, 67547, Note_off_c, 0, 70, 92
1, 67574, Note_on_c, 0, 68, 83
1, 67820, Note_off_c, 0, 68, 83
1, 68000, Note_on_c, 0, 67, 93
1, 68183, Note_off_c, 0, 67, 93
1, 68229, Note_on_c, 0, 68, 102
1, 68385, Note_off_c, 0, 68, 102
1, 68424, Note_on_c, 0, 67, 103
1, 68541, Note_off_c, 0, 67, 103
1, 68580, Note_on_c, 0, 65, 93
1, 68736, Note_off_c, 0, 65, 93
1, 68814, Note_on_c, 0, 63, 93
1, 69111, Note_off_c, 0, 63, 93
1, 69244, Note_on_c, 0, 64, 93
1, 69553, Note_off_c, 0, 64, 93
1, 69717, Note_on_c, 0, 64, 84
1, 69900, Note_off_c, 0, 64, 84
1, 69919, Note_on_c, 0, 65, 84
1, 70020, Note_off_c, 0, 65, 84
1, 70082, Note_on_c, 0, 67, 95
1, 70293, Note_off_c, 0, 67, 95
1, 70312, Note_on_c, 0, 68, 86
1, 70429, Note_off_c, 0, 68, 86
1, 70468, Note_on_c, 0, 70, 101
1, 70683, Note_off_c, 0, 70, 101
1, 70726, Note_on_c, 0, 72, 89
1, 70878, Note_off_c, 0, 72, 89
1, 70913, Note_on_c, 0, 73, 101
1, 71030, Note_off_c, 0, 73, 101
1, 71080, Note_on_c, 0, 75, 80
1, 71256, Note_off_c, 0, 75, 80
1, 71295, Note_on_c, 0, 76, 80
1, 71510, Note_off_c, 0, 76, 80
1, 72085, Note_on_c, 0, 76, 97
1, 72229, Note_off_c, 0, 76, 97
1, 72268, Note_on_c, 0, 77, 105
1, 72401, Note_off_c, 0, 77, 105
1, 72428, Note_on_c, 0, 79, 97
1, 72568, Note_off_c, 0, 79, 97
1, 72614, Note_on_c, 0, 81, 112
1, 72766, Note_off_c, 0, 81, 112
1, 72809, Note_on_c, 0, 82, 86
1, 72946, Note_off_c, 0, 82, 86
1, 72992, Note_on_c, 0, 84, 106
1, 73160, Note_off_c, 0, 84, 106
1, 73183, Note_on_c, 0, 85, 95
1, 73308, Note_off_c, 0, 85, 95
1, 73405, Note_on_c, 0, 87, 75
1, 73585, Note_off_c, 0, 87, 75
1, 73655, Note_on_c, 0, 85, 89
1, 73792, Note_off_c, 0, 85, 89
1, 73846, Note_on_c, 0, 84, 101
1, 74018, Note_off_c, 0, 84, 101
1, 74080, Note_on_c, 0, 82, 112
1, 74295, Note_off_c, 0, 82, 112
1, 74318, Note_on_c, 0, 84, 111
1, 74466, Note_off_c, 0, 84, 111
1, 74532, Note_on_c, 0, 82, 79
1, 74700, Note_off_c, 0, 82, 79
1, 74727, Note_on_c, 0, 79, 90
1, 74895, Note_off_c, 0, 79, 90
1, 74938, Note_on_c, 0, 80, 107
1, 75274, Note_off_c, 0, 80, 107
1, 75448, Note_on_c, 0, 77, 108
1, 75548, Note_off_c, 0, 77, 108
1, 75600, Note_on_c, 0, 79, 95
1, 75716, Note_off_c, 0, 79, 95
1, 75771, Note_on_c, 0, 80, 108
1, 75887, Note_off_c, 0, 80, 108
1, 75927, Note_on_c, 0, 82, 112
1, 76099, Note_off_c, 0, 82, 112
1, 76149, Note_on_c, 0, 84, 106
1, 76344, Note_off_c, 0, 84, 106
1, 76379, Note_on_c, 0, 82, 119
1, 76594, Note_off_c, 0, 82, 119
1, 76652, Note_on_c, 0, 80, 106
1, 76879, Note_off_c, 0, 80, 106
1, 76922, Note_on_c, 0, 77, 111
1, 77215, Note_off_c, 0, 77, 111
1, 77485, Note_on_c, 0, 77, 120
1, 77833, Note_off_c, 0, 77, 120
1, 77962, Note_on_c, 0, 77, 107
1, 78118, Note_off_c, 0, 77, 107
1, 78145, Note_on_c, 0, 78, 97
1, 78282, Note_off_c, 0, 78, 97
1, 78305, Note_on_c, 0, 77, 84
1, 78410, Note_off_c, 0, 77, 84
1, 78476, Note_on_c, 0, 75, 92
1, 78609, Note_off_c, 0, 75, 92
1, 78648, Note_on_c, 0, 72, 93
1, 78781, Note_off_c, 0, 72, 93
1, 78827, Note_on_c, 0, 70, 87
1, 79010, Note_off_c, 0, 70, 87
1, 79154, Note_on_c, 0, 69, 106
1, 79314, Note_off_c, 0, 69, 106
1, 79619, Note_on_c, 0, 71, 83
1, 79783, Note_off_c, 0, 71, 83
1, 80045, Note_on_c, 0, 72, 86
1, 80248, Note_off_c, 0, 72, 86
1, 80475, Note_on_c, 0, 75, 102
1, 80662, Note_off_c, 0, 75, 102
1, 80857, Note_on_c, 0, 72, 92
1, 81084, Note_off_c, 0, 72, 92
1, 81248, Note_on_c, 0, 73, 107
1, 81498, Note_off_c, 0, 73, 107
1, 81713, Note_on_c, 0, 74, 82
1, 81900, Note_off_c, 0, 74, 82
1, 82056, Note_on_c, 0, 76, 99
1, 82279, Note_off_c, 0, 76, 99
1, 82392, Note_on_c, 0, 77, 109
1, 82673, Note_off_c, 0, 77, 109
1, 82810, Note_on_c, 0, 79, 115
1, 83005, Note_off_c, 0, 79, 115
1, 83243, Note_on_c, 0, 80, 124
1, 83544, Note_off_c, 0, 80, 124
1, 83727, Note_on_c, 0, 77, 99
1, 83946, Note_off_c, 0, 77, 99
1, 84145, Note_on_c, 0, 72, 95
1, 84430, Note_off_c, 0, 72, 95
1, 84500, Note_on_c, 0, 68, 102
1, 84785, Note_off_c, 0, 68, 102
1, 84925, Note_on_c, 0, 79, 109
1, 85234, Note_off_c, 0, 79, 109
1, 85382, Note_on_c, 0, 78, 111
1, 85691, Note_off_c, 0, 78, 111
1, 85757, Note_on_c, 0, 77, 106
1, 86062, Note_off_c, 0, 77, 106
1, 86183, Note_on_c, 0, 76, 111
1, 86500, Note_off_c, 0, 76, 111
1, 86523, Note_on_c, 0, 74, 81
1, 86687, Note_off_c, 0, 74, 81
1, 87000, Note_on_c, 0, 75, 96
1, 87187, Note_off_c, 0, 75, 96
1, 87230, Note_on_c, 0, 74, 104
1, 87421, Note_off_c, 0, 74, 104
1, 87467, Note_on_c, 0, 71, 92
1, 87737, Note_off_c, 0, 71, 92
1, 88273, Note_on_c, 0, 72, 88
1, 88597, Note_off_c, 0, 72, 88
1, 88643, Note_on_c, 0, 73, 79
1, 88862, Note_off_c, 0, 73, 79
1, 88952, Note_on_c, 0, 75, 78
1, 89214, Note_off_c, 0, 75, 78
1, 89456, Note_on_c, 0, 77, 110
1, 89702, Note_off_c, 0, 77, 110
1, 89768, Note_on_c, 0, 78, 88
1, 89908, Note_off_c, 0, 78, 88
1, 89962, Note_on_c, 0, 79, 104
1, 90095, Note_off_c, 0, 79, 104
1, 90224, Note_on_c, 0, 84, 104
1, 90404, Note_off_c, 0, 84, 104
1, 90548, Note_on_c, 0, 79, 88
1, 90822, Note_off_c, 0, 79, 88
1, 91483, Note_on_c, 0, 77, 112
1, 92121, Note_off_c, 0, 77, 112
1, 92849, Note_on_c, 0, 77, 86
1, 93036, Note_off_c, 0, 77, 86
1, 93176, Note_on_c, 0, 80, 75
1, 93262, Note_off_c, 0, 80, 75
1, 93332, Note_on_c, 0, 77, 79
1, 93414, Note_off_c, 0, 77, 79
1, 93496, Note_on_c, 0, 75, 78
1, 93679, Note_off_c, 0, 75, 78
1, 93722, Note_on_c, 0, 72, 70
1, 93921, Note_off_c, 0, 72, 70
1, 93960, Note_on_c, 0, 70, 73
1, 94277, Note_off_c, 0, 70, 73
1, 94492, Note_on_c, 0, 67, 70
1, 94683, Note_off_c, 0, 67, 70
1, 94788, Note_on_c, 0, 67, 85
1, 95179, Note_off_c, 0, 67, 85
1, 95570, Note_on_c, 0, 60, 72
1, 95879, Note_off_c, 0, 60, 72
1, 96019, Note_on_c, 0, 60, 79
1, 96171, Note_off_c, 0, 60, 79
1, 96225, Note_on_c, 0, 62, 101
1, 96405, Note_off_c, 0, 62, 101
1, 96448, Note_on_c, 0, 63, 102
1, 96675, Note_off_c, 0, 63, 102
1, 96999, Note_on_c, 0, 60, 81
1, 97954, Note_off_c, 0, 60, 81
1, 98169, Note_on_c, 0, 54, 77
1, 98364, Note_off_c, 0, 54, 77
1, 98497, Note_on_c, 0, 56, 68
1, 98626, Note_off_c, 0, 56, 68
1, 98708, Note_on_c, 0, 53, 83
1, 98825, Note_off_c, 0, 53, 83
1, 98864, Note_on_c, 0, 54, 101
1, 99083, Note_off_c, 0, 54, 101
1, 101637, Note_on_c, 0, 72, 99
1, 101767, Note_off_c, 0, 72, 99
1, 101858, Note_on_c, 0, 72, 102
1, 101949, Note_off_c, 0, 72, 102
1, 102068, Note_on_c, 0, 72, 108
1, 102226, Note_off_c, 0, 72, 108
1, 102312, Note_on_c, 0, 72, 96
1, 102465, Note_off_c, 0, 72, 96
1, 102576, Note_on_c, 0, 72, 104
1, 102798, Note_off_c, 0, 72, 104
1, 102898, Note_on_c, 0, 72, 97
1, 103053, Note_off_c, 0, 72, 97
1, 103158, Note_on_c, 0, 72, 90
1, 103263, Note_off_c, 0, 72, 90
1, 103360, Note_on_c, 0, 72, 92
1, 103485, Note_off_c, 0, 72, 92
1, 103582, Note_on_c, 0, 72, 97
1, 103684, Note_off_c, 0, 72, 97
1, 103753, Note_on_c, 0, 72, 110
1, 103950, Note_off_c, 0, 72, 110
1, 104058, Note_on_c, 0, 72, 94
1, 104191, Note_off_c, 0, 72, 94
1, 104274, Note_on_c, 0, 72, 102
1, 104463, Note_off_c, 0, 72, 102
1, 104574, Note_on_c, 0, 72, 90
1, 104804, Note_off_c, 0, 72, 90
1, 104890, Note_on_c, 0, 75, 78
1, 105107, Note_off_c, 0, 75, 78
1, 105173, Note_on_c, 0, 72, 93
1, 105287, Note_off_c, 0, 72, 93
1, 105367, Note_on_c, 0, 70, 95
1, 105481, Note_off_c, 0, 70, 95
1, 105659, Note_on_c, 0, 67, 91
1, 105839, Note_off_c, 0, 67, 91
1, 105958, Note_on_c, 0, 65, 97
1, 106133, Note_off_c, 0, 65, 97
1, 106227, Note_on_c, 0, 63, 91
1, 106446, Note_off_c, 0, 63, 91
1, 106735, Note_on_c, 0, 63, 92
1, 106935, Note_off_c, 0, 63, 92
1, 107032, Note_on_c, 0, 65, 100
1, 107271, Note_off_c, 0, 65, 100
1, 107616, Note_on_c, 0, 65, 102
1, 107746, Note_off_c, 0, 65, 102
1, 107784, Note_on_c, 0, 65, 88
1, 108037, Note_off_c, 0, 65, 88
1, 108081, Note_on_c, 0, 66, 83
1, 108242, Note_off_c, 0, 66, 83
1, 108255, Note_on_c, 0, 65, 96
1, 108410, Note_off_c, 0, 65, 96
1, 108446, Note_on_c, 0, 63, 115
1, 108671, Note_off_c, 0, 63, 115
1, 108751, Note_on_c, 0, 60, 90
1, 109023, Note_off_c, 0, 60, 90
1, 109543, Note_on_c, 0, 58, 82
1, 109826, Note_off_c, 0, 58, 82
1, 110144, Note_on_c, 0, 57, 74
1, 110864, Note_off_c, 0, 57, 74
1, 112332, Note_on_c, 0, 72, 94
1, 112457, Note_off_c, 0, 72, 94
1, 112590, Note_on_c, 0, 72, 99
1, 112787, Note_off_c, 0, 72, 99
1, 112898, Note_on_c, 0, 72, 100
1, 113078, Note_off_c, 0, 72, 100
1, 113164, Note_on_c, 0, 72, 86
1, 113294, Note_off_c, 0, 72, 86
1, 113380, Note_on_c, 0, 72, 103
1, 113591, Note_off_c, 0, 72, 103
1, 113629, Note_on_c, 0, 72, 104
1, 113818, Note_off_c, 0, 72, 104
1, 114434, Note_on_c, 0, 72, 102
1, 115173, Note_off_c, 0, 72, 102
1, 115302, Note_on_c, 0, 75, 88
1, 115638, Note_off_c, 0, 75, 88
1, 116150, Note_on_c, 0, 77, 112
1, 117398, Note_off_c, 0, 77, 112
1, 117546, Note_on_c, 0, 75, 96
1, 117827, Note_off_c, 0, 75, 96
1, 117965, Note_on_c, 0, 77, 84
1, 118051, Note_off_c, 0, 77, 84
1, 118062, Note_on_c, 0, 78, 78
1, 118161, Note_off_c, 0, 78, 78
1, 118178, Note_on_c, 0, 77, 101
1, 118303, Note_off_c, 0, 77, 101
1, 118359, Note_on_c, 0, 75, 103
1, 118587, Note_off_c, 0, 75, 103
1, 118671, Note_on_c, 0, 74, 97
1, 118878, Note_off_c, 0, 74, 97
1, 119229, Note_on_c, 0, 72, 102
1, 119426, Note_off_c, 0, 72, 102
1, 119595, Note_on_c, 0, 72, 99
1, 120257, Note_off_c, 0, 72, 99
1, 120385, Note_on_c, 0, 70, 97
1, 120760, Note_off_c, 0, 70, 97
1, 121244, Note_on_c, 0, 72, 102
1, 121719, Note_off_c, 0, 72, 102
1, 121819, Note_on_c, 0, 75, 93
1, 122414, Note_off_c, 0, 75, 93
1, 122889, Note_on_c, 0, 77, 115
1, 123985, Note_off_c, 0, 77, 115
1, 124249, Note_on_c, 0, 75, 92
1, 124402, Note_off_c, 0, 75, 92
1, 124457, Note_on_c, 0, 77, 102
1, 124587, Note_off_c, 0, 77, 102
1, 124653, Note_on_c, 0, 80, 105
1, 124811, Note_off_c, 0, 80, 105
1, 124849, Note_on_c, 0, 77, 97
1, 125018, Note_off_c, 0, 77, 97
1, 125073, Note_on_c, 0, 75, 94
1, 125348, Note_off_c, 0, 75, 94
1, 125425, Note_on_c, 0, 72, 86
1, 125767, Note_off_c, 0, 72, 86
1, 126078, Note_on_c, 0, 72, 99
1, 126428, Note_off_c, 0, 72, 99
1, 126792, Note_on_c, 0, 72, 90
1, 127042, Note_off_c, 0, 72, 90
1, 127094, Note_on_c, 0, 75, 105
1, 127380, Note_off_c, 0, 75, 105
1, 127555, Note_on_c, 0, 76, 99
1, 127652, Note_off_c, 0, 76, 99
1, 127727, Note_on_c, 0, 77, 111
1, 127994, Note_off_c, 0, 77, 111
1, 128369, Note_on_c, 0, 76, 97
1, 128477, Note_off_c, 0, 76, 97
1, 128502, Note_on_c, 0, 77, 113
1, 128752, Note_off_c, 0, 77, 113
1, 129063, Note_on_c, 0, 76, 98
1, 129193, Note_off_c, 0, 76, 98
1, 129206, Note_on_c, 0, 77, 96
1, 129470, Note_off_c, 0, 77, 96
1, 129603, Note_on_c, 0, 76, 98
1, 129722, Note_off_c, 0, 76, 98
1, 129758, Note_on_c, 0, 77, 94
1, 130016, Note_off_c, 0, 77, 94
1, 130029, Note_on_c, 0, 75, 89
1, 130112, Note_off_c, 0, 75, 89
1, 130162, Note_on_c, 0, 72, 96
1, 130292, Note_off_c, 0, 72, 96
1, 130330, Note_on_c, 0, 70, 101
1, 130480, Note_off_c, 0, 70, 101
1, 130939, Note_on_c, 0, 72, 103
1, 131122, Note_off_c, 0, 72, 103
1, 131180, Note_on_c, 0, 72, 97
1, 131449, Note_off_c, 0, 72, 97
1, 131599, Note_on_c, 0, 67, 91
1, 131782, Note_off_c, 0, 67, 91
1, 131832, Note_on_c, 0, 65, 93
1, 132021, Note_off_c, 0, 65, 93
1, 132118, Note_on_c, 0, 63, 89
1, 132657, Note_off_c, 0, 63, 89
1, 132704, Note_on_c, 0, 60, 74
1, 132829, Note_off_c, 0, 60, 74
1, 133051, Note_on_c, 0, 63, 79
1, 133262, Note_off_c, 0, 63, 79
1, 133415, Note_on_c, 0, 65, 94
1, 133651, Note_off_c, 0, 65, 94
1, 133779, Note_on_c, 0, 66, 86
1, 133854, Note_off_c, 0, 66, 86
1, 133867, Note_on_c, 0, 67, 73
1, 134125, Note_off_c, 0, 67, 73
1, 134269, Note_on_c, 0, 65, 88
1, 134488, Note_off_c, 0, 65, 88
1, 134613, Note_on_c, 0, 63, 98
1, 134963, Note_off_c, 0, 63, 98
1, 135107, Note_on_c, 0, 60, 94
1, 135379, Note_off_c, 0, 60, 94
1, 135490, Note_on_c, 0, 63, 107
1, 135793, Note_off_c, 0, 63, 107
1, 136299, Note_on_c, 0, 60, 97
1, 136616, Note_off_c, 0, 60, 97
1, 136916, Note_on_c, 0, 62, 107
1, 137433, Note_off_c, 0, 62, 107
1, 139712, Note_on_c, 0, 73, 86
1, 139876, Note_off_c, 0, 73, 86
1, 139917, Note_on_c, 0, 74, 94
1, 140089, Note_off_c, 0, 74, 94
1, 140150, Note_on_c, 0, 74, 83
1, 140308, Note_off_c, 0, 74, 83
1, 140402, Note_on_c, 0, 74, 96
1, 140744, Note_off_c, 0, 74, 96
1, 141200, Note_on_c, 0, 74, 98
1, 141771, Note_off_c, 0, 74, 98
1, 142127, Note_on_c, 0, 72, 95
1, 142467, Note_off_c, 0, 72, 95
1, 142600, Note_on_c, 0, 69, 88
1, 142877, Note_off_c, 0, 69, 88
1, 142986, Note_on_c, 0, 65, 88
1, 143436, Note_off_c, 0, 65, 88
1, 143498, Note_on_c, 0, 69, 81
1, 143713, Note_off_c, 0, 69, 81
1, 143791, Note_on_c, 0, 72, 101
1, 144158, Note_off_c, 0, 72, 101
1, 144373, Note_on_c, 0, 74, 85
1, 144834, Note_off_c, 0, 74, 85
1, 145248, Note_on_c, 0, 74, 86
1, 145490, Note_off_c, 0, 74, 86
1, 146034, Note_on_c, 0, 74, 80
1, 146186, Note_off_c, 0, 74, 80
1, 146225, Note_on_c, 0, 75, 103
1, 146428, Note_off_c, 0, 75, 103
1, 146439, Note_on_c, 0, 76, 95
1, 146654, Note_off_c, 0, 76, 95
1, 146826, Note_on_c, 0, 74, 81
1, 147056, Note_off_c, 0, 74, 81
1, 147161, Note_on_c, 0, 72, 102
1, 147395, Note_off_c, 0, 72, 102
1, 147444, Note_on_c, 0, 69, 67
1, 147613, Note_off_c, 0, 69, 67
1, 147679, Note_on_c, 0, 68, 100
1, 147923, Note_off_c, 0, 68, 100
1, 148014, Note_on_c, 0, 67, 97
1, 148398, Note_off_c, 0, 67, 97
1, 148514, Note_on_c, 0, 63, 108
1, 148775, Note_off_c, 0, 63, 108
1, 148830, Note_on_c, 0, 65, 96
1, 149194, Note_off_c, 0, 65, 96
1, 149308, Note_on_c, 0, 62, 88
1, 149572, Note_off_c, 0, 62, 88
1, 149677, Note_on_c, 0, 63, 103
1, 150111, Note_off_c, 0, 63, 103
1, 150177, Note_on_c, 0, 60, 97
1, 150441, Note_off_c, 0, 60, 97
1, 150482, Note_on_c, 0, 60, 98
1, 150866, Note_off_c, 0, 60, 98
1, 151405, Note_on_c, 0, 67, 108
1, 151649, Note_off_c, 0, 67, 108
1, 151699, Note_on_c, 0, 68, 101
1, 151804, Note_off_c, 0, 68, 101
1, 151834, Note_on_c, 0, 69, 91
1, 151978, Note_off_c, 0, 69, 91
1, 152075, Note_on_c, 0, 66, 108
1, 152289, Note_off_c, 0, 66, 108
1, 152327, Note_on_c, 0, 67, 95
1, 152510, Note_off_c, 0, 67, 95
1, 152568, Note_on_c, 0, 70, 114
1, 152874, Note_off_c, 0, 70, 114
1, 152940, Note_on_c, 0, 70, 88
1, 153271, Note_off_c, 0, 70, 88
1, 153382, Note_on_c, 0, 68, 96
1, 153718, Note_off_c, 0, 68, 96
1, 153770, Note_on_c, 0, 63, 107
1, 153892, Note_off_c, 0, 63, 107
1, 153919, Note_on_c, 0, 65, 87
1, 154080, Note_off_c, 0, 65, 87
1, 154297, Note_on_c, 0, 67, 92
1, 154564, Note_off_c, 0, 67, 92
1, 155646, Note_on_c, 0, 62, 103
1, 155751, Note_off_c, 0, 62, 103
1, 155770, Note_on_c, 0, 65, 94
1, 155886, Note_off_c, 0, 65, 94
1, 155947, Note_on_c, 0, 70, 110
1, 156066, Note_off_c, 0, 70, 110
1, 156141, Note_on_c, 0, 74, 95
1, 156280, Note_off_c, 0, 74, 95
1, 156433, Note_on_c, 0, 71, 107
1, 156494, Note_off_c, 0, 71, 107
1, 156507, Note_on_c, 0, 72, 89
1, 156687, Note_off_c, 0, 72, 89
1, 156906, Note_on_c, 0, 72, 115
1, 157162, Note_off_c, 0, 72, 115
1, 157251, Note_on_c, 0, 67, 85
1, 157551, Note_off_c, 0, 67, 85
1, 158505, Note_on_c, 0, 63, 100
1, 158797, Note_off_c, 0, 63, 100
1, 158874, Note_on_c, 0, 67, 92
1, 159210, Note_off_c, 0, 67, 92
1, 159304, Note_on_c, 0, 63, 98
1, 159632, Note_off_c, 0, 63, 98
1, 159670, Note_on_c, 0, 62, 105
1, 159934, Note_off_c, 0, 62, 105
1, 160156, Note_on_c, 0, 60, 88
1, 160387, Note_off_c, 0, 60, 88
1, 160542, Note_on_c, 0, 59, 93
1, 160912, Note_off_c, 0, 59, 93
1, 161368, Note_on_c, 0, 62, 99
1, 161782, Note_off_c, 0, 62, 99
1, 162745, Note_on_c, 0, 62, 80
1, 162884, Note_off_c, 0, 62, 80
1, 163037, Note_on_c, 0, 63, 101
1, 163315, Note_off_c, 0, 63, 101
1, 163607, Note_on_c, 0, 67, 84
1, 163768, Note_off_c, 0, 67, 84
1, 166893, Note_on_c, 0, 65, 104
1, 166962, Note_off_c, 0, 65, 104
1, 166987, Note_on_c, 0, 62, 83
1, 167187, Note_off_c, 0, 62, 83
1, 167309, Note_on_c, 0, 70, 97
1, 167517, Note_off_c, 0, 70, 97
1, 167547, Note_on_c, 0, 72, 96
1, 167744, Note_off_c, 0, 72, 96
1, 167810, Note_on_c, 0, 74, 77
1, 167990, Note_off_c, 0, 74, 77
1, 168040, Note_on_c, 0, 75, 95
1, 168315, Note_off_c, 0, 75, 95
1, 168356, Note_on_c, 0, 74, 81
1, 168511, Note_off_c, 0, 74, 81
1, 168577, Note_on_c, 0, 73, 102
1, 168774, Note_off_c, 0, 73, 102
1, 168826, Note_on_c, 0, 70, 99
1, 169121, Note_off_c, 0, 70, 99
1, 169752, Note_on_c, 0, 70, 96
1, 170147, Note_off_c, 0, 70, 96
1, 170380, Note_on_c, 0, 62, 102
1, 170524, Note_off_c, 0, 62, 102
1, 170557, Note_on_c, 0, 61, 76
1, 170715, Note_off_c, 0, 61, 76
1, 170787, Note_on_c, 0, 63, 93
1, 170959, Note_off_c, 0, 63, 93
1, 171059, Note_on_c, 0, 68, 106
1, 171373, Note_off_c, 0, 68, 106
1, 171431, Note_on_c, 0, 66, 95
1, 171625, Note_off_c, 0, 66, 95
1, 171636, Note_on_c, 0, 67, 93
1, 171872, Note_off_c, 0, 67, 93
1, 172036, Note_on_c, 0, 70, 86
1, 172175, Note_off_c, 0, 70, 86
1, 172258, Note_on_c, 0, 72, 110
1, 172564, Note_off_c, 0, 72, 110
1, 172797, Note_on_c, 0, 70, 114
1, 173100, Note_off_c, 0, 70, 114
1, 173606, Note_on_c, 0, 66, 101
1, 173809, Note_off_c, 0, 66, 101
1, 173828, Note_on_c, 0, 67, 105
1, 174003, Note_off_c, 0, 67, 105
1, 174041, Note_on_c, 0, 65, 92
1, 174213, Note_off_c, 0, 65, 92
1, 174285, Note_on_c, 0, 63, 98
1, 174535, Note_off_c, 0, 63, 98
1, 174562, Note_on_c, 0, 62, 99
1, 174723, Note_off_c, 0, 62, 99
1, 174803, Note_on_c, 0, 64, 84
1, 174995, Note_off_c, 0, 64, 84
1, 175281, Note_on_c, 0, 67, 100
1, 175372, Note_off_c, 0, 67, 100
1, 175430, Note_on_c, 0, 67, 89
1, 175513, Note_off_c, 0, 67, 89
1, 175621, Note_on_c, 0, 61, 105
1, 175843, Note_off_c, 0, 61, 105
1, 176160, Note_on_c, 0, 59, 91
1, 176368, Note_off_c, 0, 59, 91
1, 176476, Note_on_c, 0, 58, 71
1, 176883, Note_off_c, 0, 58, 71
1, 177088, Note_on_c, 0, 72, 97
1, 180561, Note_off_c, 0, 72, 97
1, 181000, Note_on_c, 0, 70, 99
1, 181133, Note_off_c, 0, 70, 99
1, 181152, Note_on_c, 0, 68, 90
1, 181319, Note_off_c, 0, 68, 90
1, 181369, Note_on_c, 0, 65, 100
1, 181577, Note_off_c, 0, 65, 100
1, 181610, Note_on_c, 0, 60, 99
1, 181902, Note_off_c, 0, 60, 99
1, 181938, Note_on_c, 0, 62, 88
1, 182071, Note_off_c, 0, 62, 88
1, 182098, Note_on_c, 0, 65, 90
1, 182234, Note_off_c, 0, 65, 90
1, 182281, Note_on_c, 0, 68, 91
1, 182581, Note_off_c, 0, 68, 91
1, 182647, Note_on_c, 0, 68, 99
1, 182839, Note_off_c, 0, 68, 99
1, 182877, Note_on_c, 0, 67, 89
1, 183007, Note_off_c, 0, 67, 89
1, 183079, Note_on_c, 0, 65, 85
1, 183240, Note_off_c, 0, 65, 85
1, 183253, Note_on_c, 0, 67, 85
1, 183392, Note_off_c, 0, 67, 85
1, 183436, Note_on_c, 0, 68, 91
1, 183647, Note_off_c, 0, 68, 91
1, 183694, Note_on_c, 0, 70, 81
1, 183830, Note_off_c, 0, 70, 81
1, 183874, Note_on_c, 0, 71, 97
1, 184057, Note_off_c, 0, 71, 97
1, 184176, Note_on_c, 0, 72, 104
1, 184432, Note_off_c, 0, 72, 104
1, 184470, Note_on_c, 0, 72, 101
1, 184637, Note_off_c, 0, 72, 101
1, 184653, Note_on_c, 0, 73, 91
1, 184781, Note_off_c, 0, 73, 91
1, 184828, Note_on_c, 0, 75, 81
1, 185117, Note_off_c, 0, 75, 81
1, 185225, Note_on_c, 0, 75, 105
1, 185361, Note_off_c, 0, 75, 105
1, 185411, Note_on_c, 0, 77, 111
1, 185586, Note_off_c, 0, 77, 111
1, 185644, Note_on_c, 0, 78, 107
1, 185952, Note_off_c, 0, 78, 107
1, 186032, Note_on_c, 0, 78, 105
1, 186182, Note_off_c, 0, 78, 105
1, 186215, Note_on_c, 0, 77, 105
1, 186345, Note_off_c, 0, 77, 105
1, 186411, Note_on_c, 0, 75, 93
1, 186616, Note_off_c, 0, 75, 93
1, 186752, Note_on_c, 0, 72, 86
1, 186905, Note_off_c, 0, 72, 86
1, 186952, Note_on_c, 0, 74, 81
1, 187105, Note_off_c, 0, 74, 81
1, 187174, Note_on_c, 0, 75, 85
1, 187343, Note_off_c, 0, 75, 85
1, 187398, Note_on_c, 0, 77, 108
1, 187565, Note_off_c, 0, 77, 108
1, 187598, Note_on_c, 0, 75, 99
1, 187778, Note_off_c, 0, 75, 99
1, 187867, Note_on_c, 0, 73, 74
1, 188039, Note_off_c, 0, 73, 74
1, 188066, Note_on_c, 0, 74, 95
1, 188333, Note_off_c, 0, 74, 95
1, 189003, Note_on_c, 0, 75, 81
1, 189133, Note_off_c, 0, 75, 81
1, 189152, Note_on_c, 0, 76, 100
1, 189277, Note_off_c, 0, 76, 100
1, 189302, Note_on_c, 0, 77, 114
1, 189457, Note_off_c, 0, 77, 114
1, 189504, Note_on_c, 0, 79, 104
1, 189659, Note_off_c, 0, 79, 104
1, 189700, Note_on_c, 0, 80, 112
1, 189875, Note_off_c, 0, 80, 112
1, 189897, Note_on_c, 0, 82, 111
1, 190050, Note_off_c, 0, 82, 111
1, 190119, Note_on_c, 0, 80, 117
1, 190280, Note_off_c, 0, 80, 117
1, 190305, Note_on_c, 0, 79, 115
1, 190483, Note_off_c, 0, 79, 115
1, 190521, Note_on_c, 0, 77, 106
1, 190662, Note_off_c, 0, 77, 106
1, 190706, Note_on_c, 0, 79, 111
1, 190895, Note_off_c, 0, 79, 111
1, 190939, Note_on_c, 0, 77, 104
1, 191100, Note_off_c, 0, 77, 104
1, 191147, Note_on_c, 0, 75, 90
1, 191414, Note_off_c, 0, 75, 90
1, 191458, Note_on_c, 0, 74, 96
1, 191599, Note_off_c, 0, 74, 96
1, 191615, Note_on_c, 0, 75, 90
1, 191815, Note_off_c, 0, 75, 90
1, 191859, Note_on_c, 0, 74, 96
1, 191995, Note_off_c, 0, 74, 96
1, 192011, Note_on_c, 0, 72, 91
1, 192150, Note_off_c, 0, 72, 91
1, 192175, Note_on_c, 0, 71, 95
1, 192358, Note_off_c, 0, 71, 95
1, 192396, Note_on_c, 0, 70, 111
1, 192629, Note_off_c, 0, 70, 111
1, 192648, Note_on_c, 0, 69, 87
1, 192798, Note_off_c, 0, 69, 87
1, 192842, Note_on_c, 0, 68, 99
1, 193014, Note_off_c, 0, 68, 99
1, 193052, Note_on_c, 0, 65, 94
1, 193196, Note_off_c, 0, 65, 94
1, 193234, Note_on_c, 0, 67, 93
1, 193392, Note_off_c, 0, 67, 93
1, 193442, Note_on_c, 0, 68, 101
1, 193617, Note_off_c, 0, 68, 101
1, 193644, Note_on_c, 0, 70, 101
1, 193872, Note_off_c, 0, 70, 101
1, 193891, Note_on_c, 0, 68, 98
1, 193980, Note_off_c, 0, 68, 98
1, 194021, Note_on_c, 0, 75, 114
1, 194252, Note_off_c, 0, 75, 114
1, 194304, Note_on_c, 0, 71, 75
1, 194445, Note_off_c, 0, 71, 75
1, 194475, Note_on_c, 0, 72, 98
1, 194694, Note_off_c, 0, 72, 98
1, 194730, Note_on_c, 0, 74, 90
1, 194913, Note_off_c, 0, 74, 90
1, 194954, Note_on_c, 0, 71, 87
1, 195162, Note_off_c, 0, 71, 87
1, 195198, Note_on_c, 0, 72, 95
1, 195345, Note_off_c, 0, 72, 95
1, 195386, Note_on_c, 0, 73, 92
1, 195564, Note_off_c, 0, 73, 92
1, 195583, Note_on_c, 0, 75, 88
1, 195713, Note_off_c, 0, 75, 88
1, 195729, Note_on_c, 0, 77, 112
1, 195882, Note_off_c, 0, 77, 112
1, 195920, Note_on_c, 0, 81, 98
1, 196087, Note_off_c, 0, 81, 98
1, 196159, Note_on_c, 0, 83, 86
1, 196289, Note_off_c, 0, 83, 86
1, 196322, Note_on_c, 0, 86, 113
1, 196669, Note_off_c, 0, 86, 113
1, 196735, Note_on_c, 0, 86, 102
1, 196929, Note_off_c, 0, 86, 102
1, 197001, Note_on_c, 0, 84, 116
1, 197265, Note_off_c, 0, 84, 116
1, 197476, Note_on_c, 0, 79, 101
1, 197617, Note_off_c, 0, 79, 101
1, 197664, Note_on_c, 0, 75, 83
1, 197939, Note_off_c, 0, 75, 83
1, 198139, Note_on_c, 0, 77, 97
1, 198603, Note_off_c, 0, 77, 97
1, 199387, Note_on_c, 0, 81, 89
1, 199489, Note_off_c, 0, 81, 89
1, 199508, Note_on_c, 0, 82, 94
1, 199602, Note_off_c, 0, 82, 94
1, 199621, Note_on_c, 0, 81, 104
1, 199746, Note_off_c, 0, 81, 104
1, 199771, Note_on_c, 0, 82, 102
1, 199926, Note_off_c, 0, 82, 102
1, 199953, Note_on_c, 0, 81, 103
1, 200128, Note_off_c, 0, 81, 103
1, 200180, Note_on_c, 0, 75, 96
1, 200366, Note_off_c, 0, 75, 96
1, 200421, Note_on_c, 0, 73, 85
1, 200554, Note_off_c, 0, 73, 85
1, 200604, Note_on_c, 0, 71, 85
1, 200720, Note_off_c, 0, 71, 85
1, 200756, Note_on_c, 0, 70, 96
1, 200975, Note_off_c, 0, 70, 96
1, 201002, Note_on_c, 0, 68, 96
1, 201188, Note_off_c, 0, 68, 96
1, 201221, Note_on_c, 0, 66, 93
1, 201371, Note_off_c, 0, 66, 93
1, 201387, Note_on_c, 0, 67, 100
1, 201579, Note_off_c, 0, 67, 100
1, 201612, Note_on_c, 0, 63, 101
1, 201826, Note_off_c, 0, 63, 101
1, 201878, Note_on_c, 0, 70, 99
1, 201989, Note_off_c, 0, 70, 99
1, 202039, Note_on_c, 0, 74, 94
1, 202169, Note_off_c, 0, 74, 94
1, 202177, Note_on_c, 0, 70, 98
1, 202313, Note_off_c, 0, 70, 98
1, 202471, Note_on_c, 0, 72, 94
1, 202646, Note_off_c, 0, 72, 94
1, 202679, Note_on_c, 0, 73, 80
1, 202851, Note_off_c, 0, 73, 80
1, 202878, Note_on_c, 0, 75, 84
1, 203008, Note_off_c, 0, 75, 84
1, 203077, Note_on_c, 0, 77, 107
1, 203216, Note_off_c, 0, 77, 107
1, 203310, Note_on_c, 0, 79, 115
1, 203471, Note_off_c, 0, 79, 115
1, 203507, Note_on_c, 0, 80, 99
1, 203676, Note_off_c, 0, 80, 99
1, 203720, Note_on_c, 0, 82, 110
1, 203953, Note_off_c, 0, 82, 110
1, 203978, Note_on_c, 0, 83, 97
1, 204153, Note_off_c, 0, 83, 97
1, 204175, Note_on_c, 0, 84, 117
1, 204414, Note_off_c, 0, 84, 117
1, 204444, Note_on_c, 0, 79, 87
1, 204733, Note_off_c, 0, 79, 87
1, 204900, Note_on_c, 0, 77, 103
1, 205317, Note_off_c, 0, 77, 103
1, 207039, Note_on_c, 0, 75, 95
1, 207186, Note_off_c, 0, 75, 95
1, 207300, Note_on_c, 0, 84, 127
1, 207653, Note_off_c, 0, 84, 127
1, 207925, Note_on_c, 0, 86, 121
1, 208139, Note_off_c, 0, 86, 121
1, 208152, Note_on_c, 0, 87, 100
1, 208335, Note_off_c, 0, 87, 100
1, 208368, Note_on_c, 0, 86, 94
1, 208482, Note_off_c, 0, 86, 94
1, 208515, Note_on_c, 0, 84, 114
1, 208654, Note_off_c, 0, 84, 114
1, 208673, Note_on_c, 0, 86, 109
1, 208898, Note_off_c, 0, 86, 109
1, 209023, Note_on_c, 0, 84, 108
1, 209284, Note_off_c, 0, 84, 108
1, 209487, Note_on_c, 0, 82, 104
1, 209729, Note_off_c, 0, 82, 104
1, 209921, Note_on_c, 0, 79, 110
1, 210210, Note_off_c, 0, 79, 110
1, 210268, Note_on_c, 0, 78, 85
1, 210407, Note_off_c, 0, 78, 85
1, 210473, Note_on_c, 0, 77, 108
1, 210637, Note_off_c, 0, 77, 108
1, 210687, Note_on_c, 0, 75, 92
1, 211026, Note_off_c, 0, 75, 92
1, 211170, Note_on_c, 0, 72, 95
1, 211465, Note_off_c, 0, 72, 95
1, 211573, Note_on_c, 0, 70, 97
1, 211976, Note_off_c, 0, 70, 97
1, 212078, Note_on_c, 0, 67, 95
1, 212334, Note_off_c, 0, 67, 95
1, 212342, Note_on_c, 0, 69, 90
1, 212586, Note_off_c, 0, 69, 90
1, 212624, Note_on_c, 0, 72, 87
1, 212821, Note_off_c, 0, 72, 87
1, 212912, Note_on_c, 0, 74, 92
1, 213098, Note_off_c, 0, 74, 92
1, 213164, Note_on_c, 0, 75, 109
1, 213461, Note_off_c, 0, 75, 109
1, 213750, Note_on_c, 0, 77, 117
1, 214181, Note_off_c, 0, 77, 117
1, 215767, Note_on_c, 0, 78, 123
1, 215922, Note_off_c, 0, 78, 123
1, 215991, Note_on_c, 0, 79, 121
1, 216158, Note_off_c, 0, 79, 121
1, 216230, Note_on_c, 0, 79, 106
1, 216427, Note_off_c, 0, 79, 106
1, 216524, Note_on_c, 0, 79, 112
1, 216657, Note_off_c, 0, 79, 112
1, 216734, Note_on_c, 0, 79, 104
1, 216903, Note_off_c, 0, 79, 104
1, 216989, Note_on_c, 0, 79, 106
1, 217236, Note_off_c, 0, 79, 106
1, 217302, Note_on_c, 0, 78, 103
1, 217594, Note_off_c, 0, 78, 103
1, 217621, Note_on_c, 0, 79, 104
1, 217793, Note_off_c, 0, 79, 104
1, 217848, Note_on_c, 0, 79, 111
1, 218067, Note_off_c, 0, 79, 111
1, 218100, Note_on_c, 0, 79, 110
1, 218328, Note_off_c, 0, 79, 110
1, 218386, Note_on_c, 0, 79, 109
1, 218611, Note_off_c, 0, 79, 109
1, 218702, Note_on_c, 0, 79, 120
1, 218935, Note_off_c, 0, 79, 120
1, 219071, Note_on_c, 0, 78, 119
1, 219324, Note_off_c, 0, 78, 119
1, 219349, Note_on_c, 0, 79, 120
1, 219529, Note_off_c, 0, 79, 120
1, 219601, Note_on_c, 0, 79, 108
1, 219848, Note_off_c, 0, 79, 108
1, 219900, Note_on_c, 0, 79, 112
1, 220125, Note_off_c, 0, 79, 112
1, 220194, Note_on_c, 0, 79, 109
1, 220383, Note_off_c, 0, 79, 109
1, 220441, Note_on_c, 0, 79, 112
1, 220660, Note_off_c, 0, 79, 112
1, 220715, Note_on_c, 0, 78, 118
1, 220948, Note_off_c, 0, 78, 118
1, 220986, Note_on_c, 0, 79, 103
1, 221228, Note_off_c, 0, 79, 103
1, 221275, Note_on_c, 0, 79, 119
1, 221472, Note_off_c, 0, 79, 119
1, 221538, Note_on_c, 0, 79, 112
1, 221716, Note_off_c, 0, 79, 112
1, 221841, Note_on_c, 0, 79, 111
1, 222044, Note_off_c, 0, 79, 111
1, 222091, Note_on_c, 0, 79, 112
1, 222349, Note_off_c, 0, 79, 112
1, 222390, Note_on_c, 0, 77, 94
1, 222662, Note_off_c, 0, 77, 94
1, 222973, Note_on_c, 0, 75, 97
1, 223192, Note_off_c, 0, 75, 97
1, 223253, Note_on_c, 0, 72, 93
1, 223614, Note_off_c, 0, 72, 93
1, 224281, Note_on_c, 0, 72, 109
1, 225658, Note_off_c, 0, 72, 109
1, 225869, Note_on_c, 0, 75, 92
1, 226319, Note_off_c, 0, 75, 92
1, 226438, Note_on_c, 0, 77, 10
1, 226916, Note_off_c, 0, 77, 10
1, 227353, Note_on_c, 0, 74, 85
1, 227506, Note_off_c, 0, 74, 85
1, 227656, Note_on_c, 0, 78, 94
1, 227881, Note_off_c, 0, 78, 94
1, 227883, Note_on_c, 0, 79, 104
1, 228105, Note_off_c, 0, 79, 104
1, 228138, Note_on_c, 0, 78, 96
1, 228355, Note_off_c, 0, 78, 96
1, 228382, Note_on_c, 0, 77, 108
1, 228677, Note_off_c, 0, 77, 108
1, 228832, Note_on_c, 0, 75, 95
1, 229154, Note_off_c, 0, 75, 95
1, 229270, Note_on_c, 0, 72, 94
1, 229615, Note_off_c, 0, 72, 94
1, 230107, Note_on_c, 0, 72, 102
1, 230574, Note_off_c, 0, 72, 102
1, 230651, Note_on_c, 0, 70, 69
1, 230840, Note_off_c, 0, 70, 69
1, 230948, Note_on_c, 0, 63, 94
1, 231159, Note_off_c, 0, 63, 94
1, 231848, Note_on_c, 0, 70, 94
1, 232298, Note_off_c, 0, 70, 94
1, 232505, Note_on_c, 0, 69, 88
1, 232598, Note_off_c, 0, 69, 88
1, 232641, Note_on_c, 0, 70, 92
1, 233028, Note_off_c, 0, 70, 92
1, 233176, Note_on_c, 0, 68, 108
1, 233493, Note_off_c, 0, 68, 108
1, 233939, Note_on_c, 0, 63, 100
1, 234236, Note_off_c, 0, 63, 100
1, 234365, Note_on_c, 0, 65, 91
1, 234631, Note_off_c, 0, 65, 91
1, 234779, Note_on_c, 0, 68, 100
1, 235002, Note_off_c, 0, 68, 100
1, 235056, Note_on_c, 0, 67, 84
1, 235423, Note_off_c, 0, 67, 84
1, 235622, Note_on_c, 0, 69, 89
1, 235982, Note_off_c, 0, 69, 89
1, 236036, Note_on_c, 0, 72, 96
1, 236337, Note_off_c, 0, 72, 96
1, 236481, Note_on_c, 0, 74, 85
1, 236770, Note_off_c, 0, 74, 85
1, 236805, Note_on_c, 0, 75, 103
1, 237079, Note_off_c, 0, 75, 103
1, 237270, Note_on_c, 0, 77, 100
1, 237587, Note_off_c, 0, 77, 100
1, 237673, Note_on_c, 0, 79, 109
1, 238040, Note_off_c, 0, 79, 109
1, 238145, Note_on_c, 0, 81, 110
1, 238434, Note_off_c, 0, 81, 110
1, 238516, Note_on_c, 0, 86, 112
1, 238927, Note_off_c, 0, 86, 112
1, 239044, Note_on_c, 0, 84, 80
1, 239274, Note_off_c, 0, 84, 80
1, 239309, Note_on_c, 0, 86, 104
1, 239555, Note_off_c, 0, 86, 104
1, 239789, Note_on_c, 0, 84, 112
1, 240121, Note_off_c, 0, 84, 112
1, 240230, Note_on_c, 0, 83, 83
1, 240488, Note_off_c, 0, 83, 83
1, 240550, Note_on_c, 0, 82, 104
1, 240683, Note_off_c, 0, 82, 104
1, 240749, Note_on_c, 0, 81, 95
1, 240940, Note_off_c, 0, 81, 95
1, 241010, Note_on_c, 0, 80, 112
1, 241358, Note_off_c, 0, 80, 112
1, 241471, Note_on_c, 0, 77, 105
1, 241752, Note_off_c, 0, 77, 105
1, 241928, Note_on_c, 0, 79, 109
1, 242272, Note_off_c, 0, 79, 109
1, 242354, Note_on_c, 0, 75, 94
1, 242479, Note_off_c, 0, 75, 94
1, 242541, Note_on_c, 0, 72, 98
1, 242893, Note_off_c, 0, 72, 98
1, 244309, Note_on_c, 0, 72, 94
1, 244543, Note_off_c, 0, 72, 94
1, 244652, Note_on_c, 0, 72, 86
1, 246679, Note_off_c, 0, 72, 86
1, 247661, Note_on_c, 0, 79, 93
1, 247790, Note_off_c, 0, 79, 93
1, 247836, Note_on_c, 0, 84, 125
1, 248301, Note_off_c, 0, 84, 125
1, 248743, Note_on_c, 0, 85, 107
1, 248989, Note_off_c, 0, 85, 107
1, 249012, Note_on_c, 0, 86, 86
1, 249227, Note_off_c, 0, 86, 86
1, 249238, Note_on_c, 0, 85, 95
1, 249437, Note_off_c, 0, 85, 95
1, 249468, Note_on_c, 0, 84, 105
1, 249722, Note_off_c, 0, 84, 105
1, 250179, Note_on_c, 0, 79, 106
1, 250570, Note_off_c, 0, 79, 106
1, 251094, Note_on_c, 0, 72, 98
1, 251262, Note_off_c, 0, 72, 98
1, 251348, Note_on_c, 0, 74, 95
1, 251618, Note_off_c, 0, 74, 95
1, 251731, Note_on_c, 0, 78, 101
1, 251813, Note_off_c, 0, 78, 101
1, 251836, Note_on_c, 0, 79, 105
1, 252133, Note_off_c, 0, 79, 105
1, 252352, Note_on_c, 0, 77, 100
1, 252626, Note_off_c, 0, 77, 100
1, 253201, Note_on_c, 0, 75, 88
1, 253353, Note_off_c, 0, 75, 88
1, 253411, Note_on_c, 0, 72, 99
1, 253524, Note_off_c, 0, 72, 99
1, 253610, Note_on_c, 0, 70, 90
1, 253852, Note_off_c, 0, 70, 90
1, 253996, Note_on_c, 0, 68, 98
1, 254277, Note_off_c, 0, 68, 98
1, 255267, Note_on_c, 0, 67, 95
1, 255591, Note_off_c, 0, 67, 95
1, 256033, Note_on_c, 0, 69, 105
1, 256330, Note_off_c, 0, 69, 105
1, 256427, Note_on_c, 0, 72, 99
1, 256689, Note_off_c, 0, 72, 99
1, 256728, Note_on_c, 0, 73, 84
1, 256904, Note_off_c, 0, 73, 84
1, 256943, Note_on_c, 0, 75, 85
1, 257181, Note_off_c, 0, 75, 85
1, 257239, Note_on_c, 0, 77, 106
1, 257400, Note_off_c, 0, 77, 106
1, 257514, Note_on_c, 0, 79, 104
1, 257703, Note_off_c, 0, 79, 104
1, 257761, Note_on_c, 0, 81, 110
1, 257989, Note_off_c, 0, 81, 110
1, 258100, Note_on_c, 0, 86, 95
1, 258375, Note_off_c, 0, 86, 95
1, 258653, Note_on_c, 0, 84, 110
1, 258934, Note_off_c, 0, 84, 110
1, 259048, Note_on_c, 0, 81, 83
1, 259273, Note_off_c, 0, 81, 83
1, 259325, Note_on_c, 0, 82, 102
1, 259480, Note_off_c, 0, 82, 102
1, 259532, Note_on_c, 0, 81, 90
1, 259737, Note_off_c, 0, 81, 90
1, 259837, Note_on_c, 0, 80, 113
1, 260171, Note_off_c, 0, 80, 113
1, 260365, Note_on_c, 0, 77, 108
1, 260615, Note_off_c, 0, 77, 108
1, 260790, Note_on_c, 0, 75, 95
1, 261149, Note_off_c, 0, 75, 95
1, 261257, Note_on_c, 0, 72, 87
1, 261468, Note_off_c, 0, 72, 87
1, 261607, Note_on_c, 0, 70, 94
1, 261918, Note_off_c, 0, 70, 94
1, 262015, Note_on_c, 0, 68, 97
1, 262335, Note_off_c, 0, 68, 97
1, 262387, Note_on_c, 0, 67, 80
1, 262751, Note_off_c, 0, 67, 80
1, 262931, Note_on_c, 0, 69, 86
1, 263184, Note_off_c, 0, 69, 86
1, 263248, Note_on_c, 0, 72, 82
1, 263556, Note_off_c, 0, 72, 82
1, 263689, Note_on_c, 0, 74, 81
1, 263984, Note_off_c, 0, 74, 81
1, 264167, Note_on_c, 0, 75, 83
1, 264450, Note_off_c, 0, 75, 83
1, 264569, Note_on_c, 0, 77, 92
1, 264869, Note_off_c, 0, 77, 92
1, 264955, Note_on_c, 0, 78, 87
1, 265339, Note_off_c, 0, 78, 87
1, 265391, Note_on_c, 0, 79, 113
1, 265733, Note_off_c, 0, 79, 113
1, 265863, Note_on_c, 0, 78, 105
1, 266191, Note_off_c, 0, 78, 105
1, 266216, Note_on_c, 0, 79, 99
1, 266614, Note_off_c, 0, 79, 99
1, 266675, Note_on_c, 0, 78, 94
1, 266936, Note_off_c, 0, 78, 94
1, 266974, Note_on_c, 0, 77, 107
1, 267141, Note_off_c, 0, 77, 107
1, 267185, Note_on_c, 0, 75, 101
1, 267313, Note_off_c, 0, 75, 101
1, 267549, Note_on_c, 0, 72, 94
1, 267857, Note_off_c, 0, 72, 94
1, 268015, Note_on_c, 0, 70, 89
1, 268290, Note_off_c, 0, 70, 89
1, 268367, Note_on_c, 0, 67, 74
1, 268714, Note_off_c, 0, 67, 74
1, 268853, Note_on_c, 0, 65, 87
1, 269036, Note_off_c, 0, 65, 87
1, 269222, Note_on_c, 0, 65, 86
1, 269645, Note_off_c, 0, 65, 86
1, 269812, Note_on_c, 0, 66, 83
1, 269995, Note_off_c, 0, 66, 83
1, 270033, Note_on_c, 0, 65, 93
1, 270305, Note_off_c, 0, 65, 93
1, 270544, Note_on_c, 0, 63, 67
1, 270791, Note_off_c, 0, 63, 67
1, 270905, Note_on_c, 0, 65, 89
1, 271191, Note_off_c, 0, 65, 89
1, 271252, Note_on_c, 0, 63, 81
1, 271371, Note_off_c, 0, 63, 81
1, 271493, Note_on_c, 0, 60, 87
1, 271696, Note_off_c, 0, 60, 87
1, 274802, Note_on_c, 0, 66, 104
1, 275035, Note_off_c, 0, 66, 104
1, 275065, Note_on_c, 0, 67, 95
1, 275240, Note_off_c, 0, 67, 95
1, 275373, Note_on_c, 0, 70, 99
1, 275531, Note_off_c, 0, 70, 99
1, 275583, Note_on_c, 0, 72, 86
1, 275777, Note_off_c, 0, 72, 86
1, 275966, Note_on_c, 0, 75, 109
1, 276205, Note_off_c, 0, 75, 109
1, 276494, Note_on_c, 0, 72, 84
1, 276719, Note_off_c, 0, 72, 84
1, 276813, Note_on_c, 0, 77, 89
1, 277149, Note_off_c, 0, 77, 89
1, 277243, Note_on_c, 0, 78, 111
1, 277512, Note_off_c, 0, 78, 111
1, 277637, Note_on_c, 0, 79, 109
1, 277901, Note_off_c, 0, 79, 109
1, 278104, Note_on_c, 0, 75, 93
1, 278340, Note_off_c, 0, 75, 93
1, 278351, Note_on_c, 0, 72, 77
1, 278467, Note_off_c, 0, 72, 77
1, 278500, Note_on_c, 0, 80, 83
1, 278836, Note_off_c, 0, 80, 83
1, 278900, Note_on_c, 0, 81, 92
1, 279270, Note_off_c, 0, 81, 92
1, 279342, Note_on_c, 0, 82, 87
1, 279709, Note_off_c, 0, 82, 87
1, 279809, Note_on_c, 0, 80, 88
1, 280159, Note_off_c, 0, 80, 88
1, 280195, Note_on_c, 0, 77, 96
1, 280545, Note_off_c, 0, 77, 96
1, 280659, Note_on_c, 0, 78, 105
1, 280981, Note_off_c, 0, 78, 105
1, 281011, Note_on_c, 0, 79, 99
1, 281222, Note_off_c, 0, 79, 99
1, 281258, Note_on_c, 0, 80, 116
1, 281472, Note_off_c, 0, 80, 116
1, 281508, Note_on_c, 0, 79, 92
1, 281739, Note_off_c, 0, 79, 92
1, 281816, Note_on_c, 0, 77, 102
1, 282124, Note_off_c, 0, 77, 102
1, 282341, Note_on_c, 0, 75, 95
1, 282655, Note_off_c, 0, 75, 95
1, 282705, Note_on_c, 0, 72, 82
1, 282952, Note_off_c, 0, 72, 82
1, 283305, Note_on_c, 0, 79, 97
1, 283547, Note_off_c, 0, 79, 97
1, 283627, Note_on_c, 0, 73, 86
1, 283969, Note_off_c, 0, 73, 86
1, 284083, Note_on_c, 0, 71, 66
1, 284425, Note_off_c, 0, 71, 66
1, 284483, Note_on_c, 0, 72, 80
1, 284855, Note_off_c, 0, 72, 80
1, 285086, Note_on_c, 0, 70, 78
1, 288022, Note_off_c, 0, 70, 78
1, 289018, Note_on_c, 0, 72, 104
1, 289257, Note_off_c, 0, 72, 104
1, 289323, Note_on_c, 0, 68, 103
1, 289540, Note_off_c, 0, 68, 103
1, 289634, Note_on_c, 0, 65, 95
1, 290040, Note_off_c, 0, 65, 95
1, 290416, Note_on_c, 0, 65, 92
1, 290729, Note_off_c, 0, 65, 92
1, 290858, Note_on_c, 0, 65, 99
1, 291190, Note_off_c, 0, 65, 99
1, 291264, Note_on_c, 0, 67, 101
1, 291451, Note_off_c, 0, 67, 101
1, 291458, Note_on_c, 0, 68, 99
1, 291657, Note_off_c, 0, 68, 99
1, 291700, Note_on_c, 0, 70, 92
1, 292040, Note_off_c, 0, 70, 92
1, 292051, Note_on_c, 0, 71, 95
1, 292270, Note_off_c, 0, 71, 95
1, 292320, Note_on_c, 0, 72, 99
1, 292578, Note_off_c, 0, 72, 99
1, 292718, Note_on_c, 0, 72, 99
1, 292878, Note_off_c, 0, 72, 99
1, 292932, Note_on_c, 0, 72, 99
1, 293274, Note_off_c, 0, 72, 99
1, 293402, Note_on_c, 0, 72, 89
1, 293588, Note_off_c, 0, 72, 89
1, 293632, Note_on_c, 0, 74, 88
1, 293824, Note_off_c, 0, 74, 88
1, 293860, Note_on_c, 0, 75, 105
1, 294107, Note_off_c, 0, 75, 105
1, 294285, Note_on_c, 0, 72, 99
1, 294649, Note_off_c, 0, 72, 99
1, 294782, Note_on_c, 0, 68, 92
1, 295004, Note_off_c, 0, 68, 92
1, 295012, Note_on_c, 0, 69, 93
1, 295243, Note_off_c, 0, 69, 93
1, 295290, Note_on_c, 0, 69, 90
1, 295429, Note_off_c, 0, 69, 90
1, 295526, Note_on_c, 0, 66, 105
1, 295745, Note_off_c, 0, 66, 105
1, 295778, Note_on_c, 0, 65, 97
1, 295903, Note_off_c, 0, 65, 97
1, 295930, Note_on_c, 0, 63, 91
1, 296233, Note_off_c, 0, 63, 91
1, 296386, Note_on_c, 0, 62, 104
1, 296814, Note_off_c, 0, 62, 104
1, 297164, Note_on_c, 0, 62, 98
1, 297353, Note_off_c, 0, 62, 98
1, 297386, Note_on_c, 0, 64, 90
1, 297547, Note_off_c, 0, 64, 90
1, 297574, Note_on_c, 0, 65, 97
1, 297713, Note_off_c, 0, 65, 97
1, 297763, Note_on_c, 0, 68, 88
1, 298063, Note_off_c, 0, 68, 88
1, 298154, Note_on_c, 0, 70, 102
1, 298371, Note_off_c, 0, 70, 102
1, 298396, Note_on_c, 0, 68, 109
1, 298571, Note_off_c, 0, 68, 109
1, 298626, Note_on_c, 0, 65, 92
1, 298820, Note_off_c, 0, 65, 92
1, 298850, Note_on_c, 0, 63, 77
1, 299100, Note_off_c, 0, 63, 77
1, 299225, Note_on_c, 0, 68, 96
1, 299397, Note_off_c, 0, 68, 96
1, 299430, Note_on_c, 0, 70, 103
1, 299702, Note_off_c, 0, 70, 103
1, 299710, Note_on_c, 0, 72, 87
1, 299843, Note_off_c, 0, 72, 87
1, 299873, Note_on_c, 0, 74, 84
1, 300001, Note_off_c, 0, 74, 84
1, 300059, Note_on_c, 0, 77, 100
1, 300200, Note_off_c, 0, 77, 100
1, 300252, Note_on_c, 0, 80, 108
1, 300630, Note_off_c, 0, 80, 108
1, 300680, Note_on_c, 0, 78, 109
1, 300863, Note_off_c, 0, 78, 109
1, 300896, Note_on_c, 0, 79, 104
1, 301068, Note_off_c, 0, 79, 104
1, 301095, Note_on_c, 0, 78, 94
1, 301250, Note_off_c, 0, 78, 94
1, 301283, Note_on_c, 0, 77, 108
1, 301477, Note_off_c, 0, 77, 108
1, 301521, Note_on_c, 0, 75, 101
1, 301804, Note_off_c, 0, 75, 101
1, 301945, Note_on_c, 0, 72, 81
1, 302148, Note_off_c, 0, 72, 81
1, 302401, Note_on_c, 0, 80, 108
1, 302737, Note_off_c, 0, 80, 108
1, 302787, Note_on_c, 0, 78, 99
1, 302979, Note_off_c, 0, 78, 99
1, 303017, Note_on_c, 0, 79, 106
1, 303234, Note_off_c, 0, 79, 106
1, 303384, Note_on_c, 0, 84, 123
1, 303567, Note_off_c, 0, 84, 123
1, 303611, Note_on_c, 0, 83, 113
1, 303752, Note_off_c, 0, 83, 113
1, 303768, Note_on_c, 0, 84, 97
1, 303929, Note_off_c, 0, 84, 97
1, 304034, Note_on_c, 0, 79, 95
1, 304201, Note_off_c, 0, 79, 95
1, 304256, Note_on_c, 0, 75, 98
1, 304503, Note_off_c, 0, 75, 98
1, 304650, Note_on_c, 0, 77, 99
1, 304803, Note_off_c, 0, 77, 99
1, 304894, Note_on_c, 0, 79, 91
1, 305019, Note_off_c, 0, 79, 91
1, 305060, Note_on_c, 0, 81, 106
1, 305249, Note_off_c, 0, 81, 106
1, 305313, Note_on_c, 0, 79, 110
1, 305596, Note_off_c, 0, 79, 110
1, 305893, Note_on_c, 0, 74, 68
1, 306238, Note_off_c, 0, 74, 68
1, 306572, Note_on_c, 0, 77, 110
1, 307078, Note_off_c, 0, 77, 110
1, 309485, Note_on_c, 0, 79, 93
1, 309766, Note_off_c, 0, 79, 93
1, 309868, Note_on_c, 0, 84, 97
1, 310179, Note_off_c, 0, 84, 97
1, 310237, Note_on_c, 0, 86, 98
1, 310384, Note_off_c, 0, 86, 98
1, 310414, Note_on_c, 0, 84, 111
1, 310736, Note_off_c, 0, 84, 111
1, 310772, Note_on_c, 0, 82, 107
1, 311106, Note_off_c, 0, 82, 107
1, 311239, Note_on_c, 0, 79, 98
1, 311489, Note_off_c, 0, 79, 98
1, 311569, Note_on_c, 0, 84, 108
1, 311864, Note_off_c, 0, 84, 108
1, 311980, Note_on_c, 0, 86, 94
1, 312110, Note_off_c, 0, 86, 94
1, 312157, Note_on_c, 0, 84, 104
1, 312382, Note_off_c, 0, 84, 104
1, 312476, Note_on_c, 0, 82, 111
1, 312840, Note_off_c, 0, 82, 111
1, 312915, Note_on_c, 0, 79, 101
1, 313182, Note_off_c, 0, 79, 101
1, 313310, Note_on_c, 0, 84, 104
1, 313585, Note_off_c, 0, 84, 104
1, 313668, Note_on_c, 0, 86, 86
1, 313804, Note_off_c, 0, 86, 86
1, 313837, Note_on_c, 0, 84, 107
1, 314040, Note_off_c, 0, 84, 107
1, 314123, Note_on_c, 0, 82, 104
1, 314448, Note_off_c, 0, 82, 104
1, 314598, Note_on_c, 0, 79, 109
1, 314895, Note_off_c, 0, 79, 109
1, 315443, Note_on_c, 0, 84, 93
1, 315540, Note_off_c, 0, 84, 93
1, 315595, Note_on_c, 0, 82, 102
1, 315748, Note_off_c, 0, 82, 102
1, 315781, Note_on_c, 0, 79, 114
1, 316037, Note_off_c, 0, 79, 114
1, 316293, Note_on_c, 0, 77, 98
1, 316473, Note_off_c, 0, 77, 98
1, 316659, Note_on_c, 0, 79, 100
1, 316903, Note_off_c, 0, 79, 100
1, 317003, Note_on_c, 0, 80, 113
1, 317147, Note_off_c, 0, 80, 113
1, 317174, Note_on_c, 0, 79, 89
1, 317341, Note_off_c, 0, 79, 89
1, 317477, Note_on_c, 0, 78, 104
1, 317719, Note_off_c, 0, 78, 104
1, 317933, Note_on_c, 0, 77, 100
1, 318211, Note_off_c, 0, 77, 100
1, 318347, Note_on_c, 0, 77, 94
1, 318608, Note_off_c, 0, 77, 94
1, 318702, Note_on_c, 0, 78, 100
1, 318855, Note_off_c, 0, 78, 100
1, 318882, Note_on_c, 0, 77, 91
1, 319087, Note_off_c, 0, 77, 91
1, 319245, Note_on_c, 0, 75, 93
1, 319523, Note_off_c, 0, 75, 93
1, 319664, Note_on_c, 0, 72, 85
1, 319920, Note_off_c, 0, 72, 85
1, 319992, Note_on_c, 0, 74, 84
1, 320164, Note_off_c, 0, 74, 84
1, 320216, Note_on_c, 0, 75, 97
1, 320416, Note_off_c, 0, 75, 97
1, 320468, Note_on_c, 0, 74, 75
1, 320685, Note_off_c, 0, 74, 75
1, 320801, Note_on_c, 0, 72, 84
1, 321196, Note_off_c, 0, 72, 84
1, 321254, Note_on_c, 0, 69, 90
1, 321585, Note_off_c, 0, 69, 90
1, 321682, Note_on_c, 0, 68, 89
1, 322013, Note_off_c, 0, 68, 89
1, 322079, Note_on_c, 0, 77, 100
1, 322429, Note_off_c, 0, 77, 100
1, 322518, Note_on_c, 0, 75, 83
1, 322940, Note_off_c, 0, 75, 83
1, 323354, Note_on_c, 0, 74, 85
1, 323702, Note_off_c, 0, 74, 85
1, 324305, Note_on_c, 0, 72, 76
1, 324597, Note_off_c, 0, 72, 76
1, 324635, Note_on_c, 0, 74, 89
1, 324779, Note_off_c, 0, 74, 89
1, 324795, Note_on_c, 0, 75, 74
1, 324967, Note_off_c, 0, 75, 74
1, 325083, Note_on_c, 0, 75, 96
1, 325386, Note_off_c, 0, 75, 96
1, 325580, Note_on_c, 0, 74, 84
1, 325755, Note_off_c, 0, 74, 84
1, 325832, Note_on_c, 0, 67, 82
1, 326179, Note_off_c, 0, 67, 82
1, 326343, Note_on_c, 0, 63, 71
1, 326582, Note_off_c, 0, 63, 71
1, 326707, Note_on_c, 0, 65, 60
1, 327088, Note_off_c, 0, 65, 60
1, 327235, Note_on_c, 0, 65, 89
1, 327530, Note_off_c, 0, 65, 89
1, 327967, Note_on_c, 0, 65, 92
1, 328236, Note_off_c, 0, 65, 92
1, 328403, Note_on_c, 0, 65, 81
1, 328614, Note_off_c, 0, 65, 81
1, 328658, Note_on_c, 0, 63, 86
1, 328841, Note_off_c, 0, 63, 86
1, 328854, Note_on_c, 0, 60, 88
1, 329012, Note_off_c, 0, 60, 88
1, 329284, Note_on_c, 0, 58, 81
1, 329528, Note_off_c, 0, 58, 81
1, 329686, Note_on_c, 0, 55, 79
1, 329942, Note_off_c, 0, 55, 79
1, 330056, Note_on_c, 0, 72, 85
1, 330813, Note_off_c, 0, 72, 85
1, 330813, End_track
0, 0, End_of_file
