0, 0, Header, 1, 1, 192
1, 0, Start_track
1, 0, Title_t, "Melody"
1, 0, Tempo, 327868
1, 0, Key_signature, 0, "major"
1, 0, Time_signature, 4, 2, 24, 8
1, 1754, Note_on_c, 0, 76, 88
1, 1849, Note_off_c, 0, 76, 88
1, 1886, Note_on_c, 0, 78, 94
1, 1957, Note_off_c, 0, 78, 94
1, 1957, Note_on_c, 0, 79, 115
1, 2079, Note_off_c, 0, 79, 115
1, 2085, Note_on_c, 0, 76, 95
1, 2146, Note_off_c, 0, 76, 95
1, 2146, Note_on_c, 0, 77, 105
1, 2241, Note_off_c, 0, 77, 105
1, 2261, Note_on_c, 0, 75, 102
1, 2366, Note_off_c, 0, 75, 102
1, 2366, Note_on_c, 0, 76, 97
1, 2457, Note_off_c, 0, 76, 97
1, 2457, Note_on_c, 0, 79, 113
1, 2545, Note_off_c, 0, 79, 113
1, 2558, Note_on_c, 0, 86, 123
1, 2649, Note_off_c, 0, 86, 123
1, 2669, Note_on_c, 0, 84, 76
1, 2753, Note_off_c, 0, 84, 76
1, 2759, Note_on_c, 0, 83, 103
1, 2918, Note_off_c, 0, 83, 103
1, 2924, Note_on_c, 0, 82, 100
1, 2991, Note_off_c, 0, 82, 100
1, 3007, Note_on_c, 0, 83, 92
1, 3040, Note_off_c, 0, 83, 92
1, 3053, Note_on_c, 0, 82, 106
1, 3124, Note_on_c, 0, 81, 94
1, 3124, Note_off_c, 0, 82, 106
1, 3212, Note_off_c, 0, 81, 94
1, 3239, Note_on_c, 0, 80, 105
1, 3361, Note_off_c, 0, 80, 105
1, 3432, Note_on_c, 0, 76, 83
1, 3489, Note_off_c, 0, 76, 83
1, 3519, Note_on_c, 0, 79, 98
1, 3651, Note_off_c, 0, 79, 98
1, 3651, Note_on_c, 0, 77, 99
1, 3718, Note_off_c, 0, 77, 99
1, 3734, Note_on_c, 0, 76, 96
1, 3778, Note_off_c, 0, 76, 96
1, 3784, Note_on_c, 0, 77, 88
1, 3824, Note_off_c, 0, 77, 88
1, 3834, Note_on_c, 0, 76, 111
1, 3905, Note_off_c, 0, 76, 111
1, 3925, Note_on_c, 0, 74, 97
1, 4006, Note_off_c, 0, 74, 97
1, 4036, Note_on_c, 0, 72, 91
1, 4090, Note_off_c, 0, 72, 91
1, 4096, Note_on_c, 0, 73, 100
1, 4174, Note_off_c, 0, 73, 100
1, 4187, Note_on_c, 0, 71, 86
1, 4214, Note_off_c, 0, 71, 86
1, 4214, Note_on_c, 0, 70, 104
1, 4275, Note_off_c, 0, 70, 104
1, 4305, Note_on_c, 0, 69, 95
1, 4410, Note_off_c, 0, 69, 95
1, 4413, Note_on_c, 0, 67, 106
1, 4487, Note_off_c, 0, 67, 106
1, 4487, Note_on_c, 0, 73, 91
1, 4592, Note_off_c, 0, 73, 91
1, 4605, Note_on_c, 0, 75, 96
1, 4666, Note_off_c, 0, 75, 96
1, 4696, Note_on_c, 0, 72, 88
1, 4763, Note_off_c, 0, 72, 88
1, 4786, Note_on_c, 0, 73, 100
1, 4860, Note_off_c, 0, 73, 100
1, 4860, Note_on_c, 0, 74, 102
1, 4989, Note_off_c, 0, 74, 102
1, 5182, Note_on_c, 0, 69, 99
1, 5256, Note_off_c, 0, 69, 99
1, 5256, Note_on_c, 0, 72, 94
1, 5340, Note_off_c, 0, 72, 94
1, 5353, Note_on_c, 0, 69, 87
1, 5414, Note_off_c, 0, 69, 87
1, 5430, Note_on_c, 0, 71, 93
1, 5494, Note_off_c, 0, 71, 93
1, 5507, Note_on_c, 0, 74, 96
1, 5540, Note_off_c, 0, 74, 96
1, 5550, Note_on_c, 0, 77, 119
1, 5634, Note_off_c, 0, 77, 119
1, 5650, Note_on_c, 0, 80, 127
1, 5694, Note_off_c, 0, 80, 127
1, 5717, Note_on_c, 0, 82, 103
1, 5750, Note_on_c, 0, 80, 106
1, 5750, Note_off_c, 0, 82, 103
1, 5811, Note_off_c, 0, 80, 106
1, 5838, Note_on_c, 0, 79, 114
1, 5929, Note_off_c, 0, 79, 114
1, 5929, Note_on_c, 0, 77, 104
1, 6010, Note_off_c, 0, 77, 104
1, 6013, Note_on_c, 0, 76, 104
1, 6118, Note_off_c, 0, 76, 104
1, 6118, Note_on_c, 0, 74, 112
1, 6219, Note_off_c, 0, 74, 112
1, 6219, Note_on_c, 0, 71, 102
1, 6297, Note_off_c, 0, 71, 102
1, 6388, Note_on_c, 0, 73, 103
1, 6489, Note_off_c, 0, 73, 103
1, 6516, Note_on_c, 0, 70, 100
1, 6600, Note_off_c, 0, 70, 100
1, 6600, Note_on_c, 0, 67, 92
1, 6698, Note_off_c, 0, 67, 92
1, 6701, Note_on_c, 0, 68, 108
1, 6779, Note_off_c, 0, 68, 108
1, 6785, Note_on_c, 0, 69, 101
1, 6869, Note_off_c, 0, 69, 101
1, 6896, Note_on_c, 0, 72, 111
1, 6974, Note_off_c, 0, 72, 111
1, 6974, Note_on_c, 0, 68, 96
1, 7024, Note_off_c, 0, 68, 96
1, 7024, Note_on_c, 0, 69, 98
1, 7078, Note_off_c, 0, 69, 98
1, 7088, Note_on_c, 0, 68, 105
1, 7142, Note_off_c, 0, 68, 105
1, 7165, Note_on_c, 0, 67, 104
1, 7266, Note_off_c, 0, 67, 104
1, 7293, Note_on_c, 0, 65, 114
1, 7364, Note_off_c, 0, 65, 114
1, 7364, Note_on_c, 0, 62, 104
1, 7462, Note_off_c, 0, 62, 104
1, 7468, Note_on_c, 0, 63, 101
1, 7569, Note_off_c, 0, 63, 101
1, 7585, Note_on_c, 0, 64, 101
1, 7669, Note_off_c, 0, 64, 101
1, 7669, Note_on_c, 0, 67, 99
1, 7740, Note_off_c, 0, 67, 99
1, 7740, Note_on_c, 0, 69, 100
1, 7848, Note_off_c, 0, 69, 100
1, 7871, Note_on_c, 0, 67, 93
1, 7928, Note_off_c, 0, 67, 93
1, 7928, Note_on_c, 0, 72, 122
1, 8118, Note_off_c, 0, 72, 122
1, 8434, Note_on_c, 0, 67, 116
1, 8491, Note_off_c, 0, 67, 116
1, 8514, Note_on_c, 0, 72, 113
1, 8592, Note_off_c, 0, 72, 113
1, 8608, Note_on_c, 0, 74, 124
1, 8706, Note_off_c, 0, 74, 124
1, 8706, Note_on_c, 0, 75, 120
1, 8790, Note_off_c, 0, 75, 120
1, 8790, Note_on_c, 0, 76, 107
1, 8898, Note_off_c, 0, 76, 107
1, 8904, Note_on_c, 0, 77, 112
1, 8985, Note_off_c, 0, 77, 112
1, 8998, Note_on_c, 0, 78, 114
1, 9079, Note_off_c, 0, 78, 114
1, 9079, Note_on_c, 0, 79, 123
1, 9177, Note_off_c, 0, 79, 123
1, 9183, Note_on_c, 0, 81, 110
1, 9274, Note_off_c, 0, 81, 110
1, 9274, Note_on_c, 0, 82, 124
1, 9379, Note_off_c, 0, 82, 124
1, 9389, Note_on_c, 0, 84, 96
1, 9443, Note_off_c, 0, 84, 96
1, 9443, Note_on_c, 0, 80, 108
1, 9521, Note_off_c, 0, 80, 108
1, 9521, Note_on_c, 0, 81, 98
1, 9554, Note_off_c, 0, 81, 98
1, 9581, Note_on_c, 0, 80, 121
1, 9648, Note_off_c, 0, 80, 121
1, 9661, Note_on_c, 0, 79, 109
1, 9742, Note_off_c, 0, 79, 109
1, 9742, Note_on_c, 0, 77, 103
1, 9837, Note_off_c, 0, 77, 103
1, 9837, Note_on_c, 0, 76, 103
1, 9901, Note_off_c, 0, 76, 103
1, 9904, Note_on_c, 0, 77, 109
1, 9958, Note_on_c, 0, 76, 102
1, 9958, Note_off_c, 0, 77, 109
1, 10015, Note_off_c, 0, 76, 102
1, 10028, Note_on_c, 0, 74, 110
1, 10150, Note_off_c, 0, 74, 110
1, 10150, Note_on_c, 0, 73, 107
1, 10234, Note_off_c, 0, 73, 107
1, 10237, Note_on_c, 0, 74, 88
1, 10335, Note_off_c, 0, 74, 88
1, 10338, Note_on_c, 0, 70, 114
1, 10405, Note_off_c, 0, 70, 114
1, 10432, Note_on_c, 0, 69, 97
1, 10513, Note_off_c, 0, 69, 97
1, 10519, Note_on_c, 0, 67, 104
1, 10586, Note_off_c, 0, 67, 104
1, 10609, Note_on_c, 0, 66, 94
1, 10693, Note_off_c, 0, 66, 94
1, 10699, Note_on_c, 0, 69, 105
1, 10777, Note_off_c, 0, 69, 105
1, 10797, Note_on_c, 0, 72, 100
1, 10885, Note_off_c, 0, 72, 100
1, 10888, Note_on_c, 0, 74, 110
1, 10979, Note_on_c, 0, 75, 116
1, 10979, Note_off_c, 0, 74, 110
1, 11057, Note_off_c, 0, 75, 116
1, 11060, Note_on_c, 0, 76, 96
1, 11093, Note_off_c, 0, 76, 96
1, 11106, Note_on_c, 0, 75, 104
1, 11156, Note_off_c, 0, 75, 104
1, 11156, Note_on_c, 0, 74, 104
1, 11251, Note_off_c, 0, 74, 104
1, 11264, Note_on_c, 0, 72, 102
1, 11372, Note_off_c, 0, 72, 102
1, 11395, Note_on_c, 0, 71, 95
1, 11456, Note_on_c, 0, 80, 100
1, 11456, Note_off_c, 0, 71, 95
1, 11547, Note_off_c, 0, 80, 100
1, 11547, Note_on_c, 0, 77, 110
1, 11638, Note_off_c, 0, 77, 110
1, 11641, Note_on_c, 0, 78, 112
1, 11729, Note_off_c, 0, 78, 112
1, 11739, Note_on_c, 0, 79, 115
1, 11830, Note_off_c, 0, 79, 115
1, 11843, Note_on_c, 0, 79, 114
1, 11897, Note_off_c, 0, 79, 114
1, 11927, Note_on_c, 0, 74, 102
1, 12001, Note_off_c, 0, 74, 102
1, 12011, Note_on_c, 0, 75, 101
1, 12092, Note_off_c, 0, 75, 101
1, 12108, Note_on_c, 0, 76, 96
1, 12182, Note_off_c, 0, 76, 96
1, 12198, Note_on_c, 0, 79, 112
1, 12282, Note_off_c, 0, 79, 112
1, 12285, Note_on_c, 0, 81, 109
1, 12380, Note_off_c, 0, 81, 109
1, 12390, Note_on_c, 0, 79, 101
1, 12451, Note_off_c, 0, 79, 101
1, 12471, Note_on_c, 0, 84, 104
1, 12654, Note_off_c, 0, 84, 104
1, 12786, Note_on_c, 0, 82, 121
1, 12881, Note_off_c, 0, 82, 121
1, 12897, Note_on_c, 0, 84, 87
1, 12961, Note_off_c, 0, 84, 87
1, 12971, Note_on_c, 0, 82, 110
1, 13066, Note_off_c, 0, 82, 110
1, 13066, Note_on_c, 0, 81, 108
1, 13144, Note_off_c, 0, 81, 108
1, 13184, Note_on_c, 0, 80, 114
1, 13262, Note_off_c, 0, 80, 114
1, 13268, Note_on_c, 0, 79, 113
1, 13366, Note_off_c, 0, 79, 113
1, 13376, Note_on_c, 0, 76, 88
1, 13423, Note_off_c, 0, 76, 88
1, 13433, Note_on_c, 0, 79, 108
1, 13548, Note_off_c, 0, 79, 108
1, 13551, Note_on_c, 0, 76, 107
1, 13618, Note_off_c, 0, 76, 107
1, 13638, Note_on_c, 0, 77, 102
1, 13736, Note_off_c, 0, 77, 102
1, 13742, Note_on_c, 0, 84, 102
1, 13826, Note_off_c, 0, 84, 102
1, 13917, Note_on_c, 0, 84, 89
1, 14080, Note_off_c, 0, 84, 89
1, 14443, Note_on_c, 0, 84, 74
1, 14493, Note_off_c, 0, 84, 74
1, 14493, Note_on_c, 0, 83, 114
1, 14526, Note_off_c, 0, 83, 114
1, 14526, Note_on_c, 0, 82, 103
1, 14638, Note_off_c, 0, 82, 103
1, 14668, Note_on_c, 0, 81, 119
1, 14735, Note_off_c, 0, 81, 119
1, 14735, Note_on_c, 0, 80, 107
1, 14894, Note_off_c, 0, 80, 107
1, 14921, Note_on_c, 0, 79, 118
1, 15050, Note_off_c, 0, 79, 118
1, 15050, Note_on_c, 0, 77, 110
1, 15124, Note_off_c, 0, 77, 110
1, 15147, Note_on_c, 0, 75, 107
1, 15235, Note_off_c, 0, 75, 107
1, 15245, Note_on_c, 0, 76, 108
1, 15343, Note_off_c, 0, 76, 108
1, 15343, Note_on_c, 0, 72, 90
1, 15410, Note_off_c, 0, 72, 90
1, 15443, Note_on_c, 0, 71, 107
1, 15521, Note_off_c, 0, 71, 107
1, 15534, Note_on_c, 0, 70, 95
1, 15574, Note_off_c, 0, 70, 95
1, 15574, Note_on_c, 0, 72, 90
1, 15652, Note_off_c, 0, 72, 90
1, 15652, Note_on_c, 0, 70, 101
1, 15699, Note_off_c, 0, 70, 101
1, 15715, Note_on_c, 0, 69, 104
1, 15823, Note_off_c, 0, 69, 104
1, 15823, Note_on_c, 0, 65, 94
1, 15911, Note_off_c, 0, 65, 94
1, 15934, Note_on_c, 0, 62, 92
1, 16012, Note_off_c, 0, 62, 92
1, 16012, Note_on_c, 0, 65, 94
1, 16090, Note_off_c, 0, 65, 94
1, 16120, Note_on_c, 0, 69, 93
1, 16177, Note_off_c, 0, 69, 93
1, 16183, Note_on_c, 0, 70, 106
1, 16237, Note_off_c, 0, 70, 106
1, 16257, Note_on_c, 0, 75, 103
1, 16341, Note_off_c, 0, 75, 103
1, 16374, Note_on_c, 0, 73, 121
1, 16455, Note_off_c, 0, 73, 121
1, 16458, Note_on_c, 0, 72, 103
1, 16549, Note_off_c, 0, 72, 103
1, 16603, Note_on_c, 0, 70, 92
1, 16674, Note_off_c, 0, 70, 92
1, 16711, Note_on_c, 0, 72, 93
1, 16738, Note_off_c, 0, 72, 93
1, 16738, Note_on_c, 0, 74, 83
1, 16775, Note_off_c, 0, 74, 83
1, 16795, Note_on_c, 0, 76, 106
1, 16839, Note_off_c, 0, 76, 106
1, 16849, Note_on_c, 0, 79, 125
1, 16944, Note_off_c, 0, 79, 125
1, 16957, Note_on_c, 0, 76, 92
1, 17021, Note_off_c, 0, 76, 92
1, 17021, Note_on_c, 0, 77, 117
1, 17231, Note_off_c, 0, 77, 117
1, 17231, Note_on_c, 0, 78, 106
1, 17285, Note_on_c, 0, 79, 115
1, 17285, Note_off_c, 0, 78, 106
1, 17332, Note_off_c, 0, 79, 115
1, 17335, Note_on_c, 0, 78, 120
1, 17365, Note_off_c, 0, 78, 120
1, 17365, Note_on_c, 0, 76, 117
1, 17439, Note_off_c, 0, 76, 117
1, 17442, Note_on_c, 0, 75, 103
1, 17496, Note_off_c, 0, 75, 103
1, 17496, Note_on_c, 0, 78, 98
1, 17584, Note_off_c, 0, 78, 98
1, 17584, Note_on_c, 0, 81, 105
1, 17699, Note_off_c, 0, 81, 105
1, 17702, Note_on_c, 0, 86, 109
1, 17875, Note_off_c, 0, 86, 109
1, 17895, Note_on_c, 0, 84, 93
1, 17945, Note_off_c, 0, 84, 93
1, 17955, Note_on_c, 0, 83, 95
1, 18043, Note_off_c, 0, 83, 95
1, 18046, Note_on_c, 0, 81, 94
1, 18130, Note_off_c, 0, 81, 94
1, 18140, Note_on_c, 0, 79, 106
1, 18241, Note_off_c, 0, 79, 106
1, 18241, Note_on_c, 0, 77, 106
1, 18315, Note_off_c, 0, 77, 106
1, 18331, Note_on_c, 0, 76, 101
1, 18422, Note_off_c, 0, 76, 101
1, 18428, Note_on_c, 0, 74, 117
1, 18523, Note_off_c, 0, 74, 117
1, 18529, Note_on_c, 0, 73, 103
1, 18624, Note_on_c, 0, 82, 92
1, 18624, Note_off_c, 0, 73, 103
1, 18708, Note_off_c, 0, 82, 92
1, 18719, Note_on_c, 0, 81, 90
1, 18778, Note_off_c, 0, 81, 90
1, 18791, Note_on_c, 0, 79, 110
1, 18892, Note_off_c, 0, 79, 110
1, 18910, Note_on_c, 0, 77, 81
1, 18986, Note_off_c, 0, 77, 81
1, 18993, Note_on_c, 0, 76, 95
1, 19074, Note_off_c, 0, 76, 95
1, 19074, Note_on_c, 0, 74, 102
1, 19203, Note_on_c, 0, 72, 101
1, 19203, Note_off_c, 0, 74, 102
1, 19291, Note_off_c, 0, 72, 101
1, 19291, Note_on_c, 0, 71, 94
1, 19358, Note_off_c, 0, 71, 94
1, 19391, Note_on_c, 0, 80, 93
1, 19482, Note_off_c, 0, 80, 93
1, 19482, Note_on_c, 0, 77, 98
1, 19566, Note_off_c, 0, 77, 98
1, 19586, Note_on_c, 0, 78, 103
1, 19670, Note_off_c, 0, 78, 103
1, 19683, Note_on_c, 0, 79, 113
1, 19784, Note_off_c, 0, 79, 113
1, 19784, Note_on_c, 0, 77, 90
1, 19865, Note_off_c, 0, 77, 90
1, 19868, Note_on_c, 0, 74, 102
1, 19966, Note_off_c, 0, 74, 102
1, 19966, Note_on_c, 0, 75, 107
1, 20047, Note_off_c, 0, 75, 107
1, 20050, Note_on_c, 0, 76, 96
1, 20131, Note_off_c, 0, 76, 96
1, 20151, Note_on_c, 0, 79, 110
1, 20239, Note_off_c, 0, 79, 110
1, 20239, Note_on_c, 0, 81, 101
1, 20340, Note_off_c, 0, 81, 101
1, 20346, Note_on_c, 0, 79, 93
1, 20417, Note_off_c, 0, 79, 93
1, 20417, Note_on_c, 0, 84, 87
1, 20535, Note_off_c, 0, 84, 87
1, 20535, Note_on_c, 0, 79, 95
1, 20606, Note_off_c, 0, 79, 95
1, 20606, Note_on_c, 0, 86, 101
1, 20707, Note_off_c, 0, 86, 101
1, 20730, Note_on_c, 0, 87, 106
1, 20784, Note_off_c, 0, 87, 106
1, 20834, Note_on_c, 0, 88, 88
1, 20912, Note_off_c, 0, 88, 88
1, 20928, Note_on_c, 0, 86, 103
1, 21012, Note_off_c, 0, 86, 103
1, 21028, Note_on_c, 0, 84, 97
1, 21109, Note_off_c, 0, 84, 97
1, 21142, Note_on_c, 0, 85, 105
1, 21260, Note_off_c, 0, 85, 105
1, 21317, Note_on_c, 0, 85, 105
1, 21388, Note_on_c, 0, 82, 92
1, 21388, Note_off_c, 0, 85, 105
1, 21547, Note_off_c, 0, 82, 92
1, 21744, Note_on_c, 0, 80, 114
1, 21825, Note_off_c, 0, 80, 114
1, 21828, Note_on_c, 0, 81, 115
1, 21865, Note_off_c, 0, 81, 115
1, 21875, Note_on_c, 0, 80, 107
1, 21949, Note_off_c, 0, 80, 107
1, 21949, Note_on_c, 0, 79, 101
1, 22040, Note_off_c, 0, 79, 101
1, 22063, Note_on_c, 0, 77, 110
1, 22147, Note_off_c, 0, 77, 110
1, 22163, Note_on_c, 0, 76, 97
1, 22247, Note_off_c, 0, 76, 97
1, 22260, Note_on_c, 0, 74, 110
1, 22334, Note_off_c, 0, 74, 110
1, 22344, Note_on_c, 0, 73, 96
1, 22445, Note_off_c, 0, 73, 96
1, 22445, Note_on_c, 0, 70, 101
1, 22533, Note_off_c, 0, 70, 101
1, 22539, Note_on_c, 0, 69, 90
1, 22644, Note_off_c, 0, 69, 90
1, 22644, Note_on_c, 0, 67, 111
1, 22722, Note_off_c, 0, 67, 111
1, 22735, Note_on_c, 0, 66, 96
1, 22819, Note_off_c, 0, 66, 96
1, 22825, Note_on_c, 0, 64, 108
1, 22896, Note_off_c, 0, 64, 108
1, 22902, Note_on_c, 0, 72, 87
1, 22973, Note_off_c, 0, 72, 87
1, 23020, Note_on_c, 0, 74, 115
1, 23101, Note_off_c, 0, 74, 115
1, 23107, Note_on_c, 0, 75, 99
1, 23151, Note_off_c, 0, 75, 99
1, 23164, Note_on_c, 0, 74, 116
1, 23228, Note_off_c, 0, 74, 116
1, 23228, Note_on_c, 0, 72, 96
1, 23278, Note_off_c, 0, 72, 96
1, 23281, Note_on_c, 0, 74, 106
1, 23376, Note_off_c, 0, 74, 106
1, 23406, Note_on_c, 0, 72, 101
1, 23562, Note_off_c, 0, 72, 101
1, 23603, Note_on_c, 0, 71, 105
1, 23631, Note_off_c, 0, 71, 105
1, 23635, Note_on_c, 0, 68, 100
1, 23680, Note_off_c, 0, 68, 100
1, 23684, Note_on_c, 0, 67, 94
1, 23751, Note_off_c, 0, 67, 94
1, 23757, Note_on_c, 0, 65, 94
1, 23841, Note_off_c, 0, 65, 94
1, 23841, Note_on_c, 0, 63, 96
1, 23939, Note_off_c, 0, 63, 96
1, 23962, Note_on_c, 0, 60, 105
1, 24043, Note_off_c, 0, 60, 105
1, 24046, Note_on_c, 0, 57, 99
1, 24134, Note_off_c, 0, 57, 99
1, 24218, Note_on_c, 0, 60, 109
1, 24333, Note_off_c, 0, 60, 109
1, 24349, Note_on_c, 0, 57, 96
1, 24410, Note_off_c, 0, 57, 96
1, 24410, Note_on_c, 0, 62, 104
1, 24511, Note_off_c, 0, 62, 104
1, 24541, Note_on_c, 0, 63, 100
1, 24599, Note_off_c, 0, 63, 100
1, 24599, Note_on_c, 0, 64, 96
1, 24694, Note_off_c, 0, 64, 96
1, 24717, Note_on_c, 0, 60, 91
1, 24774, Note_off_c, 0, 60, 91
1, 24793, Note_on_c, 0, 65, 81
1, 24898, Note_off_c, 0, 65, 81
1, 24902, Note_on_c, 0, 66, 109
1, 24978, Note_off_c, 0, 66, 109
1, 24992, Note_on_c, 0, 67, 108
1, 25106, Note_off_c, 0, 67, 108
1, 25110, Note_on_c, 0, 64, 91
1, 25191, Note_off_c, 0, 64, 91
1, 25205, Note_on_c, 0, 65, 86
1, 25291, Note_off_c, 0, 65, 86
1, 25291, Note_on_c, 0, 67, 97
1, 25348, Note_off_c, 0, 67, 97
1, 25376, Note_on_c, 0, 68, 92
1, 25471, Note_off_c, 0, 68, 92
1, 25485, Note_on_c, 0, 72, 112
1, 25580, Note_off_c, 0, 72, 112
1, 25594, Note_on_c, 0, 67, 90
1, 25660, Note_off_c, 0, 67, 90
1, 25683, Note_on_c, 0, 65, 98
1, 25764, Note_off_c, 0, 65, 98
1, 25773, Note_on_c, 0, 64, 104
1, 26184, Note_off_c, 0, 64, 104
1, 26184, End_track
0, 0, End_of_file
