0, 0, Header, 1, 1, 192
1, 0, Start_track
1, 0, Title_t, "Melody"
1, 0, Tempo, 833333
1, 0, Key_signature, 0, "major"
1, 0, Time_signature, 4, 2, 24, 8
1, 1358, Note_on_c, 0, 72, 83
1, 1378, Note_off_c, 0, 72, 83
1, 1378, Note_on_c, 0, 74, 103
1, 1404, Note_off_c, 0, 74, 103
1, 1405, Note_on_c, 0, 76, 103
1, 1446, Note_off_c, 0, 76, 103
1, 1447, Note_on_c, 0, 77, 114
1, 1541, Note_off_c, 0, 77, 114
1, 1541, Note_on_c, 0, 72, 85
1, 1582, Note_off_c, 0, 72, 85
1, 1583, Note_on_c, 0, 69, 95
1, 1626, Note_off_c, 0, 69, 95
1, 1629, Note_on_c, 0, 65, 83
1, 1677, Note_off_c, 0, 65, 83
1, 1691, Note_on_c, 0, 65, 94
1, 1735, Note_off_c, 0, 65, 94
1, 1736, Note_on_c, 0, 69, 75
1, 1765, Note_off_c, 0, 69, 75
1, 1766, Note_on_c, 0, 72, 90
1, 1821, Note_off_c, 0, 72, 90
1, 1829, Note_on_c, 0, 73, 97
1, 1870, Note_off_c, 0, 73, 97
1, 1870, Note_on_c, 0, 74, 94
1, 1892, Note_off_c, 0, 74, 94
1, 1894, Note_on_c, 0, 70, 81
1, 1916, Note_off_c, 0, 70, 81
1, 1921, Note_on_c, 0, 67, 68
1, 1949, Note_off_c, 0, 67, 68
1, 1950, Note_on_c, 0, 72, 106
1, 2153, Note_off_c, 0, 72, 106
1, 2165, Note_on_c, 0, 70, 87
1, 2183, Note_off_c, 0, 70, 87
1, 2185, Note_on_c, 0, 69, 102
1, 2206, Note_off_c, 0, 69, 102
1, 2207, Note_on_c, 0, 68, 99
1, 2235, Note_off_c, 0, 68, 99
1, 2251, Note_on_c, 0, 67, 91
1, 2277, Note_off_c, 0, 67, 91
1, 2279, Note_on_c, 0, 66, 83
1, 2300, Note_off_c, 0, 66, 83
1, 2301, Note_on_c, 0, 68, 98
1, 2323, Note_off_c, 0, 68, 98
1, 2327, Note_on_c, 0, 66, 107
1, 2348, Note_off_c, 0, 66, 107
1, 2348, Note_on_c, 0, 65, 99
1, 2396, Note_off_c, 0, 65, 99
1, 2417, Note_on_c, 0, 63, 102
1, 2537, Note_off_c, 0, 63, 102
1, 2539, Note_on_c, 0, 61, 95
1, 2575, Note_off_c, 0, 61, 95
1, 2599, Note_on_c, 0, 60, 97
1, 2621, Note_off_c, 0, 60, 97
1, 2633, Note_on_c, 0, 63, 96
1, 2657, Note_off_c, 0, 63, 96
1, 2663, Note_on_c, 0, 66, 86
1, 2695, Note_off_c, 0, 66, 86
1, 2696, Note_on_c, 0, 69, 121
1, 2744, Note_off_c, 0, 69, 121
1, 2745, Note_on_c, 0, 68, 108
1, 2775, Note_off_c, 0, 68, 108
1, 2776, Note_on_c, 0, 69, 102
1, 2798, Note_off_c, 0, 69, 102
1, 2803, Note_on_c, 0, 68, 97
1, 2835, Note_off_c, 0, 68, 97
1, 2836, Note_on_c, 0, 66, 98
1, 2856, Note_off_c, 0, 66, 98
1, 2945, Note_on_c, 0, 61, 105
1, 2979, Note_off_c, 0, 61, 105
1, 2983, Note_on_c, 0, 64, 94
1, 3007, Note_off_c, 0, 64, 94
1, 3014, Note_on_c, 0, 65, 83
1, 3056, Note_off_c, 0, 65, 83
1, 3062, Note_on_c, 0, 68, 112
1, 3124, Note_off_c, 0, 68, 112
1, 3164, Note_on_c, 0, 68, 97
1, 3758, Note_off_c, 0, 68, 97
1, 3885, Note_on_c, 0, 77, 89
1, 3941, Note_off_c, 0, 77, 89
1, 3942, Note_on_c, 0, 79, 98
1, 3970, Note_off_c, 0, 79, 98
1, 3970, Note_on_c, 0, 80, 113
1, 3998, Note_off_c, 0, 80, 113
1, 3999, Note_on_c, 0, 79, 112
1, 4023, Note_off_c, 0, 79, 112
1, 4024, Note_on_c, 0, 77, 97
1, 4080, Note_off_c, 0, 77, 97
1, 4081, Note_on_c, 0, 75, 116
1, 4154, Note_off_c, 0, 75, 116
1, 4157, Note_on_c, 0, 73, 99
1, 4207, Note_off_c, 0, 73, 99
1, 4208, Note_on_c, 0, 70, 101
1, 4249, Note_off_c, 0, 70, 101
1, 4252, Note_on_c, 0, 67, 67
1, 4287, Note_off_c, 0, 67, 67
1, 4287, Note_on_c, 0, 72, 99
1, 4347, Note_off_c, 0, 72, 99
1, 4354, Note_on_c, 0, 70, 95
1, 4391, Note_off_c, 0, 70, 95
1, 4391, Note_on_c, 0, 68, 106
1, 4434, Note_off_c, 0, 68, 106
1, 4439, Note_on_c, 0, 60, 95
1, 4482, Note_off_c, 0, 60, 95
1, 4491, Note_on_c, 0, 67, 103
1, 4556, Note_off_c, 0, 67, 103
1, 4556, Note_on_c, 0, 65, 74
1, 4587, Note_on_c, 0, 67, 99
1, 4587, Note_off_c, 0, 65, 74
1, 4639, Note_off_c, 0, 67, 99
1, 4644, Note_on_c, 0, 68, 104
1, 4837, Note_off_c, 0, 68, 104
1, 4837, Note_on_c, 0, 60, 87
1, 4885, Note_off_c, 0, 60, 87
1, 4886, Note_on_c, 0, 65, 92
1, 4899, Note_off_c, 0, 65, 92
1, 4900, Note_on_c, 0, 67, 102
1, 4912, Note_off_c, 0, 67, 102
1, 4912, Note_on_c, 0, 68, 100
1, 4924, Note_off_c, 0, 68, 100
1, 4924, Note_on_c, 0, 70, 97
1, 4942, Note_off_c, 0, 70, 97
1, 4945, Note_on_c, 0, 72, 80
1, 4971, Note_on_c, 0, 77, 114
1, 4971, Note_off_c, 0, 72, 80
1, 4990, Note_off_c, 0, 77, 114
1, 4990, Note_on_c, 0, 72, 99
1, 5004, Note_off_c, 0, 72, 99
1, 5012, Note_on_c, 0, 70, 100
1, 5024, Note_off_c, 0, 70, 100
1, 5041, Note_on_c, 0, 68, 100
1, 5056, Note_off_c, 0, 68, 100
1, 5061, Note_on_c, 0, 72, 91
1, 5084, Note_off_c, 0, 72, 91
1, 5085, Note_on_c, 0, 68, 98
1, 5105, Note_off_c, 0, 68, 98
1, 5105, Note_on_c, 0, 67, 99
1, 5128, Note_off_c, 0, 67, 99
1, 5129, Note_on_c, 0, 65, 81
1, 5147, Note_on_c, 0, 67, 88
1, 5147, Note_off_c, 0, 65, 81
1, 5160, Note_off_c, 0, 67, 88
1, 5161, Note_on_c, 0, 68, 96
1, 5183, Note_off_c, 0, 68, 96
1, 5225, Note_on_c, 0, 71, 96
1, 5245, Note_off_c, 0, 71, 96
1, 5246, Note_on_c, 0, 72, 85
1, 5261, Note_off_c, 0, 72, 85
1, 5261, Note_on_c, 0, 71, 76
1, 5271, Note_off_c, 0, 71, 76
1, 5272, Note_on_c, 0, 70, 98
1, 5573, Note_off_c, 0, 70, 98
1, 5573, Note_on_c, 0, 72, 93
1, 5588, Note_off_c, 0, 72, 93
1, 5589, Note_on_c, 0, 71, 87
1, 5603, Note_off_c, 0, 71, 87
1, 5605, Note_on_c, 0, 70, 99
1, 5620, Note_off_c, 0, 70, 99
1, 5621, Note_on_c, 0, 68, 108
1, 5638, Note_off_c, 0, 68, 108
1, 5666, Note_on_c, 0, 65, 86
1, 5683, Note_off_c, 0, 65, 86
1, 5683, Note_on_c, 0, 64, 84
1, 5702, Note_off_c, 0, 64, 84
1, 5713, Note_on_c, 0, 68, 97
1, 5730, Note_off_c, 0, 68, 97
1, 5734, Note_on_c, 0, 73, 103
1, 5765, Note_off_c, 0, 73, 103
1, 5777, Note_on_c, 0, 72, 105
1, 5961, Note_off_c, 0, 72, 105
1, 5963, Note_on_c, 0, 70, 94
1, 5993, Note_off_c, 0, 70, 94
1, 6257, Note_on_c, 0, 68, 105
1, 6286, Note_off_c, 0, 68, 105
1, 6287, Note_on_c, 0, 69, 105
1, 6320, Note_off_c, 0, 69, 105
1, 6320, Note_on_c, 0, 72, 95
1, 6335, Note_off_c, 0, 72, 95
1, 6336, Note_on_c, 0, 76, 118
1, 6381, Note_off_c, 0, 76, 118
1, 6381, Note_on_c, 0, 79, 109
1, 6437, Note_off_c, 0, 79, 109
1, 6439, Note_on_c, 0, 76, 99
1, 6465, Note_off_c, 0, 76, 99
1, 6466, Note_on_c, 0, 77, 105
1, 6514, Note_off_c, 0, 77, 105
1, 6514, Note_on_c, 0, 79, 97
1, 6558, Note_off_c, 0, 79, 97
1, 6560, Note_on_c, 0, 81, 109
1, 6604, Note_off_c, 0, 81, 109
1, 6604, Note_on_c, 0, 82, 108
1, 6643, Note_off_c, 0, 82, 108
1, 6658, Note_on_c, 0, 83, 94
1, 6683, Note_off_c, 0, 83, 94
1, 6684, Note_on_c, 0, 84, 97
1, 6707, Note_off_c, 0, 84, 97
1, 6708, Note_on_c, 0, 83, 92
1, 6743, Note_off_c, 0, 83, 92
1, 6749, Note_on_c, 0, 82, 99
1, 6795, Note_off_c, 0, 82, 99
1, 6801, Note_on_c, 0, 80, 119
1, 6840, Note_off_c, 0, 80, 119
1, 6843, Note_on_c, 0, 77, 108
1, 6906, Note_off_c, 0, 77, 108
1, 6929, Note_on_c, 0, 79, 118
1, 6993, Note_off_c, 0, 79, 118
1, 6993, Note_on_c, 0, 77, 111
1, 7023, Note_off_c, 0, 77, 111
1, 7023, Note_on_c, 0, 74, 104
1, 7054, Note_off_c, 0, 74, 104
1, 7056, Note_on_c, 0, 72, 89
1, 7096, Note_off_c, 0, 72, 89
1, 7099, Note_on_c, 0, 68, 77
1, 7135, Note_off_c, 0, 68, 77
1, 7142, Note_on_c, 0, 74, 110
1, 7168, Note_off_c, 0, 74, 110
1, 7170, Note_on_c, 0, 75, 95
1, 7191, Note_off_c, 0, 75, 95
1, 7192, Note_on_c, 0, 74, 104
1, 7210, Note_off_c, 0, 74, 104
1, 7212, Note_on_c, 0, 72, 95
1, 7242, Note_off_c, 0, 72, 95
1, 7248, Note_on_c, 0, 74, 103
1, 7275, Note_off_c, 0, 74, 103
1, 7276, Note_on_c, 0, 77, 101
1, 7312, Note_off_c, 0, 77, 101
1, 7313, Note_on_c, 0, 80, 110
1, 7395, Note_off_c, 0, 80, 110
1, 7442, Note_on_c, 0, 82, 90
1, 7456, Note_off_c, 0, 82, 90
1, 7456, Note_on_c, 0, 83, 103
1, 7516, Note_off_c, 0, 83, 103
1, 7530, Note_on_c, 0, 84, 85
1, 8244, Note_off_c, 0, 84, 85
1, 8310, Note_on_c, 0, 83, 103
1, 8337, Note_off_c, 0, 83, 103
1, 8337, Note_on_c, 0, 84, 93
1, 8382, Note_off_c, 0, 84, 93
1, 8384, Note_on_c, 0, 83, 107
1, 8412, Note_off_c, 0, 83, 107
1, 8414, Note_on_c, 0, 84, 89
1, 8448, Note_off_c, 0, 84, 89
1, 8448, Note_on_c, 0, 83, 103
1, 8479, Note_off_c, 0, 83, 103
1, 8490, Note_on_c, 0, 84, 85
1, 8518, Note_off_c, 0, 84, 85
1, 8520, Note_on_c, 0, 80, 111
1, 8558, Note_off_c, 0, 80, 111
1, 8560, Note_on_c, 0, 77, 96
1, 8591, Note_off_c, 0, 77, 96
1, 8591, Note_on_c, 0, 80, 127
1, 8663, Note_off_c, 0, 80, 127
1, 8665, Note_on_c, 0, 77, 98
1, 8699, Note_off_c, 0, 77, 98
1, 8704, Note_on_c, 0, 78, 100
1, 8734, Note_off_c, 0, 78, 100
1, 8739, Note_on_c, 0, 77, 102
1, 8773, Note_off_c, 0, 77, 102
1, 8774, Note_on_c, 0, 78, 98
1, 8816, Note_off_c, 0, 78, 98
1, 8819, Note_on_c, 0, 77, 102
1, 8867, Note_off_c, 0, 77, 102
1, 8869, Note_on_c, 0, 78, 90
1, 8895, Note_off_c, 0, 78, 90
1, 8896, Note_on_c, 0, 76, 102
1, 8918, Note_off_c, 0, 76, 102
1, 8918, Note_on_c, 0, 75, 100
1, 8936, Note_off_c, 0, 75, 100
1, 8937, Note_on_c, 0, 73, 96
1, 8955, Note_off_c, 0, 73, 96
1, 8955, Note_on_c, 0, 75, 118
1, 9007, Note_off_c, 0, 75, 118
1, 9012, Note_on_c, 0, 73, 98
1, 9038, Note_off_c, 0, 73, 98
1, 9041, Note_on_c, 0, 68, 87
1, 9066, Note_off_c, 0, 68, 87
1, 9072, Note_on_c, 0, 71, 97
1, 9099, Note_off_c, 0, 71, 97
1, 9102, Note_on_c, 0, 72, 96
1, 9125, Note_off_c, 0, 72, 96
1, 9128, Note_on_c, 0, 75, 111
1, 9189, Note_off_c, 0, 75, 111
1, 9196, Note_on_c, 0, 75, 117
1, 9279, Note_off_c, 0, 75, 117
1, 9281, Note_on_c, 0, 73, 101
1, 9298, Note_off_c, 0, 73, 101
1, 9298, Note_on_c, 0, 72, 86
1, 9312, Note_off_c, 0, 72, 86
1, 9312, Note_on_c, 0, 75, 93
1, 9326, Note_off_c, 0, 75, 93
1, 9327, Note_on_c, 0, 79, 107
1, 9348, Note_off_c, 0, 79, 107
1, 9350, Note_on_c, 0, 82, 109
1, 9383, Note_off_c, 0, 82, 109
1, 9385, Note_on_c, 0, 79, 107
1, 9430, Note_off_c, 0, 79, 107
1, 9431, Note_on_c, 0, 80, 105
1, 9476, Note_off_c, 0, 80, 105
1, 9476, Note_on_c, 0, 82, 99
1, 9532, Note_off_c, 0, 82, 99
1, 9533, Note_on_c, 0, 84, 104
1, 9590, Note_off_c, 0, 84, 104
1, 9595, Note_on_c, 0, 83, 93
1, 9615, Note_off_c, 0, 83, 93
1, 9617, Note_on_c, 0, 82, 110
1, 9635, Note_off_c, 0, 82, 110
1, 9636, Note_on_c, 0, 80, 100
1, 9674, Note_off_c, 0, 80, 100
1, 9676, Note_on_c, 0, 79, 102
1, 9764, Note_off_c, 0, 79, 102
1, 9779, Note_on_c, 0, 77, 109
1, 9863, Note_off_c, 0, 77, 109
1, 9874, Note_on_c, 0, 77, 112
1, 9940, Note_off_c, 0, 77, 112
1, 9955, Note_on_c, 0, 77, 111
1, 10016, Note_off_c, 0, 77, 111
1, 10024, Note_on_c, 0, 75, 92
1, 10049, Note_off_c, 0, 75, 92
1, 10051, Note_on_c, 0, 74, 96
1, 10072, Note_off_c, 0, 74, 96
1, 10072, Note_on_c, 0, 75, 97
1, 10094, Note_off_c, 0, 75, 97
1, 10094, Note_on_c, 0, 74, 89
1, 10110, Note_off_c, 0, 74, 89
1, 10114, Note_on_c, 0, 72, 101
1, 10147, Note_off_c, 0, 72, 101
1, 10149, Note_on_c, 0, 71, 91
1, 10179, Note_off_c, 0, 71, 91
1, 10179, Note_on_c, 0, 74, 97
1, 10197, Note_off_c, 0, 74, 97
1, 10198, Note_on_c, 0, 77, 102
1, 10232, Note_off_c, 0, 77, 102
1, 10232, Note_on_c, 0, 80, 124
1, 10298, Note_off_c, 0, 80, 124
1, 10298, Note_on_c, 0, 79, 114
1, 10384, Note_off_c, 0, 79, 114
1, 10388, Note_on_c, 0, 74, 98
1, 10428, Note_off_c, 0, 74, 98
1, 10428, Note_on_c, 0, 77, 115
1, 10489, Note_off_c, 0, 77, 115
1, 10489, Note_on_c, 0, 75, 85
1, 10515, Note_off_c, 0, 75, 85
1, 10532, Note_on_c, 0, 67, 83
1, 10576, Note_off_c, 0, 67, 83
1, 10576, Note_on_c, 0, 72, 106
1, 10621, Note_off_c, 0, 72, 106
1, 10621, Note_on_c, 0, 74, 99
1, 10635, Note_off_c, 0, 74, 99
1, 10635, Note_on_c, 0, 75, 95
1, 10661, Note_off_c, 0, 75, 95
1, 10661, Note_on_c, 0, 77, 98
1, 10693, Note_off_c, 0, 77, 98
1, 10693, Note_on_c, 0, 79, 107
1, 10762, Note_off_c, 0, 79, 107
1, 10770, Note_on_c, 0, 69, 99
1, 11062, Note_off_c, 0, 69, 99
1, 11063, Note_on_c, 0, 72, 94
1, 11157, Note_off_c, 0, 72, 94
1, 11206, Note_on_c, 0, 67, 94
1, 11232, Note_off_c, 0, 67, 94
1, 11235, Note_on_c, 0, 63, 86
1, 11260, Note_off_c, 0, 63, 86
1, 11261, Note_on_c, 0, 60, 84
1, 11294, Note_off_c, 0, 60, 84
1, 11297, Note_on_c, 0, 65, 85
1, 11573, Note_off_c, 0, 65, 85
1, 11589, Note_on_c, 0, 65, 85
1, 11620, Note_off_c, 0, 65, 85
1, 11624, Note_on_c, 0, 67, 91
1, 11651, Note_off_c, 0, 67, 91
1, 11653, Note_on_c, 0, 63, 97
1, 11968, Note_off_c, 0, 63, 97
1, 11974, Note_on_c, 0, 59, 93
1, 12013, Note_off_c, 0, 59, 93
1, 12014, Note_on_c, 0, 55, 84
1, 12053, Note_off_c, 0, 55, 84
1, 12077, Note_on_c, 0, 62, 95
1, 12127, Note_off_c, 0, 62, 95
1, 12151, Note_on_c, 0, 60, 85
1, 12184, Note_off_c, 0, 60, 85
1, 12213, Note_on_c, 0, 60, 81
1, 12255, Note_off_c, 0, 60, 81
1, 12277, Note_on_c, 0, 60, 88
1, 12449, Note_off_c, 0, 60, 88
1, 12449, End_track
0, 0, End_of_file
