0, 0, Header, 1, 1, 192
1, 0, Start_track
1, 0, Title_t, "Melody"
1, 0, Tempo, 387096
1, 0, Key_signature, -4, "major"
1, 0, Time_signature, 4, 2, 24, 8
1, 1042, Note_on_c, 0, 65, 93
1, 1099, Note_off_c, 0, 65, 93
1, 1300, Note_on_c, 0, 68, 100
1, 1400, Note_off_c, 0, 68, 100
1, 1492, Note_on_c, 0, 72, 114
1, 1598, Note_off_c, 0, 72, 114
1, 1678, Note_on_c, 0, 75, 119
1, 1798, Note_off_c, 0, 75, 119
1, 1878, Note_on_c, 0, 75, 120
1, 2010, Note_off_c, 0, 75, 120
1, 2076, Note_on_c, 0, 75, 117
1, 2320, Note_off_c, 0, 75, 117
1, 2567, Note_on_c, 0, 65, 83
1, 2650, Note_off_c, 0, 65, 83
1, 2666, Note_on_c, 0, 68, 90
1, 2734, Note_off_c, 0, 68, 90
1, 2796, Note_on_c, 0, 72, 92
1, 2842, Note_off_c, 0, 72, 92
1, 2865, Note_on_c, 0, 75, 120
1, 2994, Note_off_c, 0, 75, 120
1, 3005, Note_on_c, 0, 75, 120
1, 3051, Note_off_c, 0, 75, 120
1, 3171, Note_on_c, 0, 75, 120
1, 3415, Note_off_c, 0, 75, 120
1, 3424, Note_on_c, 0, 79, 113
1, 3459, Note_off_c, 0, 79, 113
1, 3626, Note_on_c, 0, 75, 109
1, 3746, Note_off_c, 0, 75, 109
1, 3754, Note_on_c, 0, 72, 103
1, 3814, Note_off_c, 0, 72, 103
1, 3818, Note_on_c, 0, 68, 91
1, 3864, Note_off_c, 0, 68, 91
1, 3985, Note_on_c, 0, 72, 108
1, 4116, Note_off_c, 0, 72, 108
1, 4139, Note_on_c, 0, 72, 102
1, 4182, Note_off_c, 0, 72, 102
1, 5096, Note_on_c, 0, 72, 115
1, 5150, Note_off_c, 0, 72, 115
1, 5192, Note_on_c, 0, 76, 121
1, 5281, Note_off_c, 0, 76, 121
1, 5309, Note_on_c, 0, 79, 115
1, 5386, Note_off_c, 0, 79, 115
1, 5397, Note_on_c, 0, 77, 115
1, 5520, Note_off_c, 0, 77, 115
1, 5528, Note_on_c, 0, 76, 120
1, 5617, Note_off_c, 0, 76, 120
1, 5683, Note_on_c, 0, 73, 118
1, 5763, Note_off_c, 0, 73, 118
1, 5763, Note_on_c, 0, 72, 114
1, 5855, Note_off_c, 0, 72, 114
1, 5875, Note_on_c, 0, 70, 112
1, 5929, Note_off_c, 0, 70, 112
1, 5952, Note_on_c, 0, 68, 105
1, 5992, Note_off_c, 0, 68, 105
1, 5999, Note_on_c, 0, 70, 100
1, 6038, Note_off_c, 0, 70, 100
1, 6038, Note_on_c, 0, 68, 105
1, 6080, Note_off_c, 0, 68, 105
1, 6085, Note_on_c, 0, 67, 105
1, 6123, Note_off_c, 0, 67, 105
1, 6123, Note_on_c, 0, 65, 106
1, 6224, Note_off_c, 0, 65, 106
1, 6244, Note_on_c, 0, 62, 87
1, 6300, Note_off_c, 0, 62, 87
1, 6311, Note_on_c, 0, 64, 102
1, 6381, Note_off_c, 0, 64, 102
1, 6402, Note_on_c, 0, 64, 91
1, 6460, Note_off_c, 0, 64, 91
1, 6708, Note_on_c, 0, 73, 116
1, 6817, Note_off_c, 0, 73, 116
1, 6828, Note_on_c, 0, 71, 110
1, 6882, Note_off_c, 0, 71, 110
1, 6890, Note_on_c, 0, 72, 116
1, 7005, Note_off_c, 0, 72, 116
1, 7019, Note_on_c, 0, 70, 113
1, 7079, Note_off_c, 0, 70, 113
1, 7087, Note_on_c, 0, 67, 98
1, 7130, Note_off_c, 0, 67, 98
1, 7135, Note_on_c, 0, 69, 108
1, 7177, Note_off_c, 0, 69, 108
1, 7292, Note_on_c, 0, 77, 113
1, 7816, Note_off_c, 0, 77, 113
1, 7841, Note_on_c, 0, 75, 119
1, 7967, Note_off_c, 0, 75, 119
1, 7975, Note_on_c, 0, 77, 85
1, 8046, Note_off_c, 0, 77, 85
1, 8343, Note_on_c, 0, 72, 90
1, 8394, Note_off_c, 0, 72, 90
1, 8402, Note_on_c, 0, 75, 121
1, 8537, Note_off_c, 0, 75, 121
1, 8557, Note_on_c, 0, 77, 119
1, 8791, Note_off_c, 0, 77, 119
1, 8791, Note_on_c, 0, 75, 111
1, 8899, Note_off_c, 0, 75, 111
1, 8919, Note_on_c, 0, 72, 107
1, 8989, Note_off_c, 0, 72, 107
1, 8994, Note_on_c, 0, 70, 108
1, 9047, Note_off_c, 0, 70, 108
1, 9107, Note_on_c, 0, 67, 104
1, 9152, Note_off_c, 0, 67, 104
1, 9152, Note_on_c, 0, 65, 95
1, 9274, Note_off_c, 0, 65, 95
1, 9290, Note_on_c, 0, 63, 90
1, 9337, Note_off_c, 0, 63, 90
1, 9346, Note_on_c, 0, 65, 92
1, 9548, Note_off_c, 0, 65, 92
1, 9898, Note_on_c, 0, 65, 105
1, 9972, Note_off_c, 0, 65, 105
1, 10075, Note_on_c, 0, 65, 95
1, 10137, Note_off_c, 0, 65, 95
1, 10141, Note_on_c, 0, 68, 108
1, 10185, Note_off_c, 0, 68, 108
1, 10192, Note_on_c, 0, 69, 104
1, 10246, Note_off_c, 0, 69, 104
1, 10354, Note_on_c, 0, 65, 100
1, 10446, Note_off_c, 0, 65, 100
1, 10517, Note_on_c, 0, 70, 114
1, 10635, Note_off_c, 0, 70, 114
1, 10723, Note_on_c, 0, 65, 98
1, 10871, Note_off_c, 0, 65, 98
1, 10925, Note_on_c, 0, 71, 110
1, 11040, Note_off_c, 0, 71, 110
1, 11054, Note_on_c, 0, 65, 85
1, 11103, Note_off_c, 0, 65, 85
1, 11108, Note_on_c, 0, 71, 110
1, 11231, Note_off_c, 0, 71, 110
1, 11242, Note_on_c, 0, 72, 115
1, 11296, Note_off_c, 0, 72, 115
1, 11304, Note_on_c, 0, 71, 107
1, 11355, Note_off_c, 0, 71, 107
1, 11355, Note_on_c, 0, 70, 105
1, 11412, Note_off_c, 0, 70, 105
1, 11417, Note_on_c, 0, 68, 102
1, 11500, Note_off_c, 0, 68, 102
1, 11500, Note_on_c, 0, 65, 95
1, 11602, Note_off_c, 0, 65, 95
1, 11628, Note_on_c, 0, 68, 108
1, 11674, Note_off_c, 0, 68, 108
1, 11685, Note_on_c, 0, 70, 106
1, 11814, Note_off_c, 0, 70, 106
1, 11818, Note_on_c, 0, 65, 95
1, 11860, Note_off_c, 0, 65, 95
1, 11860, Note_on_c, 0, 68, 105
1, 11895, Note_off_c, 0, 68, 105
1, 11898, Note_on_c, 0, 70, 97
1, 11941, Note_off_c, 0, 70, 97
1, 11961, Note_on_c, 0, 67, 102
1, 11999, Note_off_c, 0, 67, 102
1, 12005, Note_on_c, 0, 65, 100
1, 12038, Note_off_c, 0, 65, 100
1, 12048, Note_on_c, 0, 63, 92
1, 12149, Note_off_c, 0, 63, 92
1, 12169, Note_on_c, 0, 60, 93
1, 12200, Note_off_c, 0, 60, 93
1, 12235, Note_on_c, 0, 64, 95
1, 12376, Note_off_c, 0, 64, 95
1, 12377, Note_on_c, 0, 65, 100
1, 12474, Note_off_c, 0, 65, 100
1, 12824, Note_on_c, 0, 77, 116
1, 12959, Note_off_c, 0, 77, 116
1, 12966, Note_on_c, 0, 75, 107
1, 13013, Note_off_c, 0, 75, 107
1, 13014, Note_on_c, 0, 80, 119
1, 13137, Note_off_c, 0, 80, 119
1, 13148, Note_on_c, 0, 77, 111
1, 13392, Note_off_c, 0, 77, 111
1, 13416, Note_on_c, 0, 74, 122
1, 13539, Note_off_c, 0, 74, 122
1, 13595, Note_on_c, 0, 68, 108
1, 13702, Note_off_c, 0, 68, 108
1, 13712, Note_on_c, 0, 67, 95
1, 13785, Note_off_c, 0, 67, 95
1, 14370, Note_on_c, 0, 77, 115
1, 14508, Note_off_c, 0, 77, 115
1, 14565, Note_on_c, 0, 80, 116
1, 14731, Note_off_c, 0, 80, 116
1, 14904, Note_on_c, 0, 77, 116
1, 14973, Note_off_c, 0, 77, 116
1, 15033, Note_on_c, 0, 80, 115
1, 15133, Note_off_c, 0, 80, 115
1, 15148, Note_on_c, 0, 84, 118
1, 15219, Note_off_c, 0, 84, 118
1, 15262, Note_on_c, 0, 83, 127
1, 15310, Note_off_c, 0, 83, 127
1, 15373, Note_on_c, 0, 78, 117
1, 15410, Note_off_c, 0, 78, 117
1, 15424, Note_on_c, 0, 77, 117
1, 15507, Note_off_c, 0, 77, 117
1, 15515, Note_on_c, 0, 75, 117
1, 15592, Note_on_c, 0, 72, 111
1, 15592, Note_off_c, 0, 75, 117
1, 15675, Note_off_c, 0, 72, 111
1, 15694, Note_on_c, 0, 70, 111
1, 15726, Note_off_c, 0, 70, 111
1, 15749, Note_on_c, 0, 68, 90
1, 15789, Note_off_c, 0, 68, 90
1, 15811, Note_on_c, 0, 72, 88
1, 15852, Note_off_c, 0, 72, 88
1, 15864, Note_on_c, 0, 74, 111
1, 15916, Note_off_c, 0, 74, 111
1, 15933, Note_on_c, 0, 77, 116
1, 16033, Note_off_c, 0, 77, 116
1, 16038, Note_on_c, 0, 75, 120
1, 16107, Note_off_c, 0, 75, 120
1, 16115, Note_on_c, 0, 72, 110
1, 16227, Note_off_c, 0, 72, 110
1, 16227, Note_on_c, 0, 70, 112
1, 16273, Note_off_c, 0, 70, 112
1, 16304, Note_on_c, 0, 68, 100
1, 16415, Note_off_c, 0, 68, 100
1, 16427, Note_on_c, 0, 65, 88
1, 16519, Note_off_c, 0, 65, 88
1, 16667, Note_on_c, 0, 65, 102
1, 16715, Note_off_c, 0, 65, 102
1, 16715, Note_on_c, 0, 63, 91
1, 16748, Note_off_c, 0, 63, 91
1, 16762, Note_on_c, 0, 65, 102
1, 16805, Note_off_c, 0, 65, 102
1, 16812, Note_on_c, 0, 67, 110
1, 16840, Note_off_c, 0, 67, 110
1, 16846, Note_on_c, 0, 68, 108
1, 16892, Note_off_c, 0, 68, 108
1, 16899, Note_on_c, 0, 67, 105
1, 16942, Note_off_c, 0, 67, 105
1, 16942, Note_on_c, 0, 68, 98
1, 16979, Note_off_c, 0, 68, 98
1, 16999, Note_on_c, 0, 70, 103
1, 17027, Note_off_c, 0, 70, 103
1, 17035, Note_on_c, 0, 71, 108
1, 17069, Note_off_c, 0, 71, 108
1, 17076, Note_on_c, 0, 70, 100
1, 17109, Note_off_c, 0, 70, 100
1, 17121, Note_on_c, 0, 74, 111
1, 17158, Note_off_c, 0, 74, 111
1, 17169, Note_on_c, 0, 73, 112
1, 17209, Note_off_c, 0, 73, 112
1, 17214, Note_on_c, 0, 74, 116
1, 17262, Note_off_c, 0, 74, 116
1, 17268, Note_on_c, 0, 73, 114
1, 17308, Note_off_c, 0, 73, 114
1, 17308, Note_on_c, 0, 74, 119
1, 17344, Note_off_c, 0, 74, 119
1, 17355, Note_on_c, 0, 76, 120
1, 17392, Note_off_c, 0, 76, 120
1, 17398, Note_on_c, 0, 77, 116
1, 17438, Note_off_c, 0, 77, 116
1, 17448, Note_on_c, 0, 76, 116
1, 17482, Note_off_c, 0, 76, 116
1, 17483, Note_on_c, 0, 77, 115
1, 17523, Note_off_c, 0, 77, 115
1, 17543, Note_on_c, 0, 79, 111
1, 17577, Note_off_c, 0, 79, 111
1, 17579, Note_on_c, 0, 80, 117
1, 17614, Note_off_c, 0, 80, 117
1, 17619, Note_on_c, 0, 82, 108
1, 17668, Note_off_c, 0, 82, 108
1, 17674, Note_on_c, 0, 79, 110
1, 17717, Note_off_c, 0, 79, 110
1, 17719, Note_on_c, 0, 77, 114
1, 17754, Note_off_c, 0, 77, 114
1, 17756, Note_on_c, 0, 76, 117
1, 17804, Note_off_c, 0, 76, 117
1, 17804, Note_on_c, 0, 73, 89
1, 17867, Note_off_c, 0, 73, 89
1, 18146, Note_on_c, 0, 73, 91
1, 18176, Note_off_c, 0, 73, 91
1, 18178, Note_on_c, 0, 74, 117
1, 18230, Note_off_c, 0, 74, 117
1, 18235, Note_on_c, 0, 73, 112
1, 18272, Note_off_c, 0, 73, 112
1, 18284, Note_on_c, 0, 71, 110
1, 18331, Note_off_c, 0, 71, 110
1, 18337, Note_on_c, 0, 72, 115
1, 18429, Note_off_c, 0, 72, 115
1, 18430, Note_on_c, 0, 71, 101
1, 18466, Note_off_c, 0, 71, 101
1, 18753, Note_on_c, 0, 77, 116
1, 18850, Note_off_c, 0, 77, 116
1, 18866, Note_on_c, 0, 76, 120
1, 18912, Note_off_c, 0, 76, 120
1, 18929, Note_on_c, 0, 75, 119
1, 19067, Note_off_c, 0, 75, 119
1, 19118, Note_on_c, 0, 74, 117
1, 19244, Note_off_c, 0, 74, 117
1, 19304, Note_on_c, 0, 72, 115
1, 19433, Note_off_c, 0, 72, 115
1, 19441, Note_on_c, 0, 74, 118
1, 19489, Note_off_c, 0, 74, 118
1, 19489, Note_on_c, 0, 75, 120
1, 19641, Note_off_c, 0, 75, 120
1, 19678, Note_on_c, 0, 77, 110
1, 19873, Note_off_c, 0, 77, 110
1, 20082, Note_on_c, 0, 72, 113
1, 20188, Note_off_c, 0, 72, 113
1, 20223, Note_on_c, 0, 74, 117
1, 20269, Note_off_c, 0, 74, 117
1, 20269, Note_on_c, 0, 75, 119
1, 20410, Note_off_c, 0, 75, 119
1, 20426, Note_on_c, 0, 77, 113
1, 20529, Note_off_c, 0, 77, 113
1, 20592, Note_on_c, 0, 80, 117
1, 20681, Note_off_c, 0, 80, 117
1, 20687, Note_on_c, 0, 79, 99
1, 20798, Note_off_c, 0, 79, 99
1, 20816, Note_on_c, 0, 77, 116
1, 21046, Note_off_c, 0, 77, 116
1, 21060, Note_on_c, 0, 75, 118
1, 21160, Note_off_c, 0, 75, 118
1, 21160, Note_on_c, 0, 75, 92
1, 21174, Note_off_c, 0, 75, 92
1, 21233, Note_on_c, 0, 74, 112
1, 21326, Note_off_c, 0, 74, 112
1, 22177, Note_on_c, 0, 85, 104
1, 22212, Note_off_c, 0, 85, 104
1, 22223, Note_on_c, 0, 88, 112
1, 22282, Note_off_c, 0, 88, 112
1, 22301, Note_on_c, 0, 85, 118
1, 22401, Note_off_c, 0, 85, 118
1, 22401, Note_on_c, 0, 84, 85
1, 22498, Note_off_c, 0, 84, 85
1, 22821, Note_on_c, 0, 89, 107
1, 22861, Note_off_c, 0, 89, 107
1, 22861, Note_on_c, 0, 90, 120
1, 23331, Note_off_c, 0, 90, 120
1, 23357, Note_on_c, 0, 87, 114
1, 23443, Note_off_c, 0, 87, 114
1, 23468, Note_on_c, 0, 84, 118
1, 23531, Note_off_c, 0, 84, 118
1, 23548, Note_on_c, 0, 82, 117
1, 23645, Note_off_c, 0, 82, 117
1, 23645, Note_on_c, 0, 80, 114
1, 23708, Note_off_c, 0, 80, 114
1, 23708, Note_on_c, 0, 77, 109
1, 23843, Note_off_c, 0, 77, 109
1, 23844, Note_on_c, 0, 74, 100
1, 23882, Note_off_c, 0, 74, 100
1, 23899, Note_on_c, 0, 77, 114
1, 24034, Note_off_c, 0, 77, 114
1, 24054, Note_on_c, 0, 77, 80
1, 24120, Note_off_c, 0, 77, 80
1, 24252, Note_on_c, 0, 80, 114
1, 24387, Note_off_c, 0, 80, 114
1, 25141, Note_on_c, 0, 77, 119
1, 25207, Note_off_c, 0, 77, 119
1, 25244, Note_on_c, 0, 80, 118
1, 25330, Note_off_c, 0, 80, 118
1, 25353, Note_on_c, 0, 82, 117
1, 25439, Note_off_c, 0, 82, 117
1, 25464, Note_on_c, 0, 83, 121
1, 25547, Note_off_c, 0, 83, 121
1, 25547, Note_on_c, 0, 84, 119
1, 25791, Note_off_c, 0, 84, 119
1, 25801, Note_on_c, 0, 82, 95
1, 25828, Note_off_c, 0, 82, 95
1, 25834, Note_on_c, 0, 84, 103
1, 25866, Note_off_c, 0, 84, 103
1, 25873, Note_on_c, 0, 80, 112
1, 25900, Note_off_c, 0, 80, 112
1, 25900, Note_on_c, 0, 77, 114
1, 25916, Note_off_c, 0, 77, 114
1, 25917, Note_on_c, 0, 75, 113
1, 25980, Note_off_c, 0, 75, 113
1, 25980, Note_on_c, 0, 77, 112
1, 26069, Note_off_c, 0, 77, 112
1, 26535, Note_on_c, 0, 83, 119
1, 26655, Note_off_c, 0, 83, 119
1, 26667, Note_on_c, 0, 84, 122
1, 26988, Note_off_c, 0, 84, 122
1, 26996, Note_on_c, 0, 82, 94
1, 27036, Note_off_c, 0, 82, 94
1, 27037, Note_on_c, 0, 79, 107
1, 27083, Note_off_c, 0, 79, 107
1, 27096, Note_on_c, 0, 77, 109
1, 27145, Note_off_c, 0, 77, 109
1, 27153, Note_on_c, 0, 77, 115
1, 27193, Note_off_c, 0, 77, 115
1, 27672, Note_on_c, 0, 84, 103
1, 27744, Note_off_c, 0, 84, 103
1, 27758, Note_on_c, 0, 88, 113
1, 27845, Note_off_c, 0, 88, 113
1, 27858, Note_on_c, 0, 84, 112
1, 27976, Note_off_c, 0, 84, 112
1, 27990, Note_on_c, 0, 83, 117
1, 28056, Note_off_c, 0, 83, 117
1, 28070, Note_on_c, 0, 80, 116
1, 28162, Note_off_c, 0, 80, 116
1, 28162, Note_on_c, 0, 80, 113
1, 28245, Note_off_c, 0, 80, 113
1, 28259, Note_on_c, 0, 77, 117
1, 28345, Note_off_c, 0, 77, 117
1, 28366, Note_on_c, 0, 75, 117
1, 28397, Note_off_c, 0, 75, 117
1, 28436, Note_on_c, 0, 72, 110
1, 28531, Note_off_c, 0, 72, 110
1, 28547, Note_on_c, 0, 70, 113
1, 28579, Note_off_c, 0, 70, 113
1, 28595, Note_on_c, 0, 68, 105
1, 28710, Note_off_c, 0, 68, 105
1, 28777, Note_on_c, 0, 69, 101
1, 28877, Note_off_c, 0, 69, 101
1, 29493, Note_on_c, 0, 65, 114
1, 29540, Note_off_c, 0, 65, 114
1, 29569, Note_on_c, 0, 68, 9
1, 29643, Note_off_c, 0, 68, 9
1, 29681, Note_on_c, 0, 72, 113
1, 29728, Note_off_c, 0, 72, 113
1, 29733, Note_on_c, 0, 75, 120
1, 29852, Note_off_c, 0, 75, 120
1, 29869, Note_on_c, 0, 77, 115
1, 30043, Note_off_c, 0, 77, 115
1, 30049, Note_on_c, 0, 78, 121
1, 30108, Note_off_c, 0, 78, 121
1, 30124, Note_on_c, 0, 75, 116
1, 30216, Note_off_c, 0, 75, 116
1, 30301, Note_on_c, 0, 80, 119
1, 30424, Note_off_c, 0, 80, 119
1, 30866, Note_on_c, 0, 80, 123
1, 30919, Note_off_c, 0, 80, 123
1, 30932, Note_on_c, 0, 79, 109
1, 30967, Note_off_c, 0, 79, 109
1, 30973, Note_on_c, 0, 77, 118
1, 31047, Note_off_c, 0, 77, 118
1, 31057, Note_on_c, 0, 76, 124
1, 31166, Note_off_c, 0, 76, 124
1, 31179, Note_on_c, 0, 73, 117
1, 31230, Note_off_c, 0, 73, 117
1, 31238, Note_on_c, 0, 72, 114
1, 31358, Note_off_c, 0, 72, 114
1, 31358, Note_on_c, 0, 70, 116
1, 31405, Note_off_c, 0, 70, 116
1, 31441, Note_on_c, 0, 68, 109
1, 31541, Note_off_c, 0, 68, 109
1, 31555, Note_on_c, 0, 77, 120
1, 31609, Note_off_c, 0, 77, 120
1, 31801, Note_on_c, 0, 77, 117
1, 31890, Note_off_c, 0, 77, 117
1, 32171, Note_on_c, 0, 77, 117
1, 32289, Note_off_c, 0, 77, 117
1, 32303, Note_on_c, 0, 74, 91
1, 32347, Note_off_c, 0, 74, 91
1, 32355, Note_on_c, 0, 80, 119
1, 32481, Note_off_c, 0, 80, 119
1, 32490, Note_on_c, 0, 77, 112
1, 32700, Note_off_c, 0, 77, 112
1, 32728, Note_on_c, 0, 75, 116
1, 32811, Note_off_c, 0, 75, 116
1, 33051, Note_on_c, 0, 77, 122
1, 33094, Note_off_c, 0, 77, 122
1, 33112, Note_on_c, 0, 80, 123
1, 33161, Note_off_c, 0, 80, 123
1, 33174, Note_on_c, 0, 77, 115
1, 33225, Note_off_c, 0, 77, 115
1, 33242, Note_on_c, 0, 75, 117
1, 33311, Note_off_c, 0, 75, 117
1, 33311, Note_on_c, 0, 72, 111
1, 33431, Note_off_c, 0, 72, 111
1, 33433, Note_on_c, 0, 70, 115
1, 33480, Note_off_c, 0, 70, 115
1, 33494, Note_on_c, 0, 68, 109
1, 33542, Note_off_c, 0, 68, 109
1, 33584, Note_on_c, 0, 65, 86
1, 33632, Note_off_c, 0, 65, 86
1, 33673, Note_on_c, 0, 68, 105
1, 33773, Note_off_c, 0, 68, 105
1, 34171, Note_on_c, 0, 65, 106
1, 34228, Note_off_c, 0, 65, 106
1, 34228, Note_on_c, 0, 68, 114
1, 34340, Note_off_c, 0, 68, 114
1, 34360, Note_on_c, 0, 70, 123
1, 34406, Note_off_c, 0, 70, 123
1, 34417, Note_on_c, 0, 71, 115
1, 34474, Note_off_c, 0, 71, 115
1, 34474, Note_on_c, 0, 72, 118
1, 34522, Note_off_c, 0, 72, 118
1, 34522, Note_on_c, 0, 72, 120
1, 34591, Note_off_c, 0, 72, 120
1, 34591, Note_on_c, 0, 71, 115
1, 34660, Note_off_c, 0, 71, 115
1, 34665, Note_on_c, 0, 72, 82
1, 34696, Note_off_c, 0, 72, 82
1, 34698, Note_on_c, 0, 72, 119
1, 34761, Note_off_c, 0, 72, 119
1, 34767, Note_on_c, 0, 71, 115
1, 34838, Note_off_c, 0, 71, 115
1, 34840, Note_on_c, 0, 72, 118
1, 34894, Note_off_c, 0, 72, 118
1, 34894, Note_on_c, 0, 72, 115
1, 34951, Note_off_c, 0, 72, 115
1, 34951, Note_on_c, 0, 71, 112
1, 35005, Note_off_c, 0, 71, 112
1, 35005, Note_on_c, 0, 72, 112
1, 35079, Note_off_c, 0, 72, 112
1, 35085, Note_on_c, 0, 72, 118
1, 35145, Note_off_c, 0, 72, 118
1, 35149, Note_on_c, 0, 71, 114
1, 35203, Note_off_c, 0, 71, 114
1, 35211, Note_on_c, 0, 72, 116
1, 35271, Note_off_c, 0, 72, 116
1, 35271, Note_on_c, 0, 72, 116
1, 35345, Note_off_c, 0, 72, 116
1, 35345, Note_on_c, 0, 71, 115
1, 35399, Note_off_c, 0, 71, 115
1, 35399, Note_on_c, 0, 72, 114
1, 35465, Note_off_c, 0, 72, 114
1, 35465, Note_on_c, 0, 72, 113
1, 35536, Note_off_c, 0, 72, 113
1, 35541, Note_on_c, 0, 71, 114
1, 35595, Note_off_c, 0, 71, 114
1, 35595, Note_on_c, 0, 72, 114
1, 35658, Note_on_c, 0, 72, 113
1, 35658, Note_off_c, 0, 72, 114
1, 35695, Note_off_c, 0, 72, 113
1, 35729, Note_on_c, 0, 71, 111
1, 35780, Note_off_c, 0, 71, 111
1, 35780, Note_on_c, 0, 72, 112
1, 35837, Note_off_c, 0, 72, 112
1, 35837, Note_on_c, 0, 72, 113
1, 35911, Note_off_c, 0, 72, 113
1, 35911, Note_on_c, 0, 75, 122
1, 36040, Note_off_c, 0, 75, 122
1, 36044, Note_on_c, 0, 77, 99
1, 36095, Note_off_c, 0, 77, 99
1, 36279, Note_on_c, 0, 80, 122
1, 36399, Note_off_c, 0, 80, 122
1, 36403, Note_on_c, 0, 77, 109
1, 36434, Note_off_c, 0, 77, 109
1, 36662, Note_on_c, 0, 77, 119
1, 36782, Note_off_c, 0, 77, 119
1, 36796, Note_on_c, 0, 75, 96
1, 36839, Note_off_c, 0, 75, 96
1, 37038, Note_on_c, 0, 75, 123
1, 37156, Note_off_c, 0, 75, 123
1, 37169, Note_on_c, 0, 72, 112
1, 37207, Note_off_c, 0, 72, 112
1, 37220, Note_on_c, 0, 75, 122
1, 37404, Note_off_c, 0, 75, 122
1, 37410, Note_on_c, 0, 77, 114
1, 37561, Note_off_c, 0, 77, 114
1, 37574, Note_on_c, 0, 77, 110
1, 37848, Note_off_c, 0, 77, 110
1, 37848, End_track
0, 0, End_of_file
