0, 0, Header, 1, 1, 192
1, 0, Start_track
1, 0, Title_t, "Melody"
1, 0, Tempo, 203389
1, 0, Key_signature, -2, "major"
1, 0, Time_signature, 4, 2, 24, 8
1, 3725, Note_on_c, 0, 72, 106
1, 3844, Note_off_c, 0, 72, 106
1, 3848, Note_on_c, 0, 74, 106
1, 3910, Note_off_c, 0, 74, 106
1, 4008, Note_on_c, 0, 74, 112
1, 5215, Note_off_c, 0, 74, 112
1, 5267, Note_on_c, 0, 72, 100
1, 5361, Note_off_c, 0, 72, 100
1, 5374, Note_on_c, 0, 74, 99
1, 5461, Note_off_c, 0, 74, 99
1, 5534, Note_on_c, 0, 77, 100
1, 5634, Note_off_c, 0, 77, 100
1, 5735, Note_on_c, 0, 74, 114
1, 6781, Note_off_c, 0, 74, 114
1, 6798, Note_on_c, 0, 72, 111
1, 6888, Note_off_c, 0, 72, 111
1, 6890, Note_on_c, 0, 74, 109
1, 6999, Note_off_c, 0, 74, 109
1, 7086, Note_on_c, 0, 81, 114
1, 7122, Note_off_c, 0, 81, 114
1, 7127, Note_on_c, 0, 79, 98
1, 7211, Note_off_c, 0, 79, 98
1, 7281, Note_on_c, 0, 77, 113
1, 8336, Note_off_c, 0, 77, 113
1, 8368, Note_on_c, 0, 74, 115
1, 8452, Note_off_c, 0, 74, 115
1, 8478, Note_on_c, 0, 77, 113
1, 8566, Note_off_c, 0, 77, 113
1, 8656, Note_on_c, 0, 74, 113
1, 9351, Note_off_c, 0, 74, 113
1, 10397, Note_on_c, 0, 76, 126
1, 10507, Note_off_c, 0, 76, 126
1, 10670, Note_on_c, 0, 76, 122
1, 11050, Note_off_c, 0, 76, 122
1, 11095, Note_on_c, 0, 72, 103
1, 11162, Note_off_c, 0, 72, 103
1, 11267, Note_on_c, 0, 72, 114
1, 11443, Note_off_c, 0, 72, 114
1, 11485, Note_on_c, 0, 70, 111
1, 11653, Note_off_c, 0, 70, 111
1, 11680, Note_on_c, 0, 72, 110
1, 11922, Note_off_c, 0, 72, 110
1, 11976, Note_on_c, 0, 76, 122
1, 12093, Note_off_c, 0, 76, 122
1, 12253, Note_on_c, 0, 76, 123
1, 12585, Note_off_c, 0, 76, 123
1, 12615, Note_on_c, 0, 79, 107
1, 12704, Note_off_c, 0, 79, 107
1, 12809, Note_on_c, 0, 79, 122
1, 13000, Note_off_c, 0, 79, 122
1, 13010, Note_on_c, 0, 76, 126
1, 13200, Note_off_c, 0, 76, 126
1, 13206, Note_on_c, 0, 79, 121
1, 13443, Note_off_c, 0, 79, 121
1, 13521, Note_on_c, 0, 76, 119
1, 13607, Note_off_c, 0, 76, 119
1, 13786, Note_on_c, 0, 76, 118
1, 14153, Note_off_c, 0, 76, 118
1, 14168, Note_on_c, 0, 77, 117
1, 14237, Note_off_c, 0, 77, 117
1, 14243, Note_on_c, 0, 76, 120
1, 14319, Note_off_c, 0, 76, 120
1, 14336, Note_on_c, 0, 76, 116
1, 14412, Note_off_c, 0, 76, 116
1, 14412, Note_on_c, 0, 74, 120
1, 14544, Note_off_c, 0, 74, 120
1, 14556, Note_on_c, 0, 72, 111
1, 14609, Note_off_c, 0, 72, 111
1, 14609, Note_on_c, 0, 74, 114
1, 14722, Note_off_c, 0, 74, 114
1, 14722, Note_on_c, 0, 72, 108
1, 14902, Note_off_c, 0, 72, 108
1, 14944, Note_on_c, 0, 70, 113
1, 15017, Note_off_c, 0, 70, 113
1, 15027, Note_on_c, 0, 72, 103
1, 15100, Note_off_c, 0, 72, 103
1, 15100, Note_on_c, 0, 70, 112
1, 15287, Note_off_c, 0, 70, 112
1, 15299, Note_on_c, 0, 69, 110
1, 15412, Note_off_c, 0, 69, 110
1, 15417, Note_on_c, 0, 70, 110
1, 15481, Note_off_c, 0, 70, 110
1, 15493, Note_on_c, 0, 69, 109
1, 15691, Note_off_c, 0, 69, 109
1, 15726, Note_on_c, 0, 67, 110
1, 15789, Note_off_c, 0, 67, 110
1, 15804, Note_on_c, 0, 69, 109
1, 15887, Note_off_c, 0, 69, 109
1, 15899, Note_on_c, 0, 70, 101
1, 15978, Note_off_c, 0, 70, 101
1, 15984, Note_on_c, 0, 67, 107
1, 16085, Note_off_c, 0, 67, 107
1, 16105, Note_on_c, 0, 65, 111
1, 16184, Note_off_c, 0, 65, 111
1, 16190, Note_on_c, 0, 67, 95
1, 16259, Note_off_c, 0, 67, 95
1, 16263, Note_on_c, 0, 65, 98
1, 16994, Note_off_c, 0, 65, 98
1, 17003, Note_on_c, 0, 62, 101
1, 17074, Note_off_c, 0, 62, 101
1, 17232, Note_on_c, 0, 65, 102
1, 17499, Note_off_c, 0, 65, 102
1, 17531, Note_on_c, 0, 69, 112
1, 17618, Note_off_c, 0, 69, 112
1, 19164, Note_on_c, 0, 69, 119
1, 19246, Note_off_c, 0, 69, 119
1, 19255, Note_on_c, 0, 66, 113
1, 19323, Note_off_c, 0, 66, 113
1, 19325, Note_on_c, 0, 65, 109
1, 19353, Note_off_c, 0, 65, 109
1, 19370, Note_on_c, 0, 67, 111
1, 19428, Note_off_c, 0, 67, 111
1, 19438, Note_on_c, 0, 69, 118
1, 19516, Note_off_c, 0, 69, 118
1, 19516, Note_on_c, 0, 70, 118
1, 19594, Note_on_c, 0, 72, 118
1, 19594, Note_off_c, 0, 70, 118
1, 19673, Note_off_c, 0, 72, 118
1, 19681, Note_on_c, 0, 73, 122
1, 19772, Note_off_c, 0, 73, 122
1, 19784, Note_on_c, 0, 74, 119
1, 19892, Note_off_c, 0, 74, 119
1, 19892, Note_on_c, 0, 75, 116
1, 19931, Note_off_c, 0, 75, 116
1, 20465, Note_on_c, 0, 73, 118
1, 20522, Note_off_c, 0, 73, 118
1, 20526, Note_on_c, 0, 74, 122
1, 20639, Note_off_c, 0, 74, 122
1, 20651, Note_on_c, 0, 75, 121
1, 20740, Note_off_c, 0, 75, 121
1, 20748, Note_on_c, 0, 73, 121
1, 20820, Note_off_c, 0, 73, 121
1, 20833, Note_on_c, 0, 74, 118
1, 20909, Note_off_c, 0, 74, 118
1, 20925, Note_on_c, 0, 70, 118
1, 20997, Note_off_c, 0, 70, 118
1, 21020, Note_on_c, 0, 72, 114
1, 21081, Note_off_c, 0, 72, 114
1, 21124, Note_on_c, 0, 69, 100
1, 21174, Note_off_c, 0, 69, 100
1, 21213, Note_on_c, 0, 70, 112
1, 21307, Note_off_c, 0, 70, 112
1, 21398, Note_on_c, 0, 79, 124
1, 21510, Note_off_c, 0, 79, 124
1, 21518, Note_on_c, 0, 79, 119
1, 21615, Note_off_c, 0, 79, 119
1, 22954, Note_on_c, 0, 79, 116
1, 23045, Note_off_c, 0, 79, 116
1, 23057, Note_on_c, 0, 82, 120
1, 23128, Note_off_c, 0, 82, 120
1, 23214, Note_on_c, 0, 85, 121
1, 23298, Note_off_c, 0, 85, 121
1, 23311, Note_on_c, 0, 88, 118
1, 23442, Note_off_c, 0, 88, 118
1, 23455, Note_on_c, 0, 86, 127
1, 23483, Note_off_c, 0, 86, 127
1, 23488, Note_on_c, 0, 85, 99
1, 23519, Note_off_c, 0, 85, 99
1, 23529, Note_on_c, 0, 82, 108
1, 23602, Note_off_c, 0, 82, 108
1, 23621, Note_on_c, 0, 82, 119
1, 23694, Note_off_c, 0, 82, 119
1, 23702, Note_on_c, 0, 81, 117
1, 23785, Note_off_c, 0, 81, 117
1, 23791, Note_on_c, 0, 79, 115
1, 23848, Note_off_c, 0, 79, 115
1, 23857, Note_on_c, 0, 79, 110
1, 23913, Note_off_c, 0, 79, 110
1, 23913, Note_on_c, 0, 80, 104
1, 23944, Note_off_c, 0, 80, 104
1, 23971, Note_on_c, 0, 82, 112
1, 24021, Note_off_c, 0, 82, 112
1, 24022, Note_on_c, 0, 81, 110
1, 24067, Note_off_c, 0, 81, 110
1, 24071, Note_on_c, 0, 79, 117
1, 24165, Note_off_c, 0, 79, 117
1, 24170, Note_on_c, 0, 81, 112
1, 24271, Note_off_c, 0, 81, 112
1, 24286, Note_on_c, 0, 83, 108
1, 24368, Note_off_c, 0, 83, 108
1, 24369, Note_on_c, 0, 84, 117
1, 24479, Note_off_c, 0, 84, 117
1, 26398, Note_on_c, 0, 85, 109
1, 26448, Note_off_c, 0, 85, 109
1, 26448, Note_on_c, 0, 89, 104
1, 26487, Note_off_c, 0, 89, 104
1, 26491, Note_on_c, 0, 90, 113
1, 26593, Note_off_c, 0, 90, 113
1, 26619, Note_on_c, 0, 92, 107
1, 26897, Note_off_c, 0, 92, 107
1, 26907, Note_on_c, 0, 91, 111
1, 27012, Note_off_c, 0, 91, 111
1, 27013, Note_on_c, 0, 92, 111
1, 27107, Note_off_c, 0, 92, 111
1, 27108, Note_on_c, 0, 90, 111
1, 27228, Note_off_c, 0, 90, 111
1, 27241, Note_on_c, 0, 92, 105
1, 27341, Note_off_c, 0, 92, 105
1, 27354, Note_on_c, 0, 90, 93
1, 27475, Note_off_c, 0, 90, 93
1, 27475, Note_on_c, 0, 92, 82
1, 27528, Note_off_c, 0, 92, 82
1, 27582, Note_on_c, 0, 89, 115
1, 27612, Note_off_c, 0, 89, 115
1, 27620, Note_on_c, 0, 90, 83
1, 27666, Note_off_c, 0, 90, 83
1, 27734, Note_on_c, 0, 86, 107
1, 27840, Note_off_c, 0, 86, 107
1, 27849, Note_on_c, 0, 85, 117
1, 27916, Note_off_c, 0, 85, 117
1, 27920, Note_on_c, 0, 87, 105
1, 27947, Note_off_c, 0, 87, 105
1, 28049, Note_on_c, 0, 84, 124
1, 28091, Note_off_c, 0, 84, 124
1, 28097, Note_on_c, 0, 85, 94
1, 28151, Note_off_c, 0, 85, 94
1, 28223, Note_on_c, 0, 80, 116
1, 28272, Note_off_c, 0, 80, 116
1, 28280, Note_on_c, 0, 83, 108
1, 28321, Note_off_c, 0, 83, 108
1, 28367, Note_on_c, 0, 79, 100
1, 28413, Note_off_c, 0, 79, 100
1, 28423, Note_on_c, 0, 77, 120
1, 28514, Note_off_c, 0, 77, 120
1, 28557, Note_on_c, 0, 76, 110
1, 28611, Note_off_c, 0, 76, 110
1, 28616, Note_on_c, 0, 75, 107
1, 28716, Note_off_c, 0, 75, 107
1, 28759, Note_on_c, 0, 68, 106
1, 28809, Note_off_c, 0, 68, 106
1, 28809, Note_on_c, 0, 70, 109
1, 28878, Note_off_c, 0, 70, 109
1, 28941, Note_on_c, 0, 66, 89
1, 28975, Note_off_c, 0, 66, 89
1, 29028, Note_on_c, 0, 70, 109
1, 29104, Note_off_c, 0, 70, 109
1, 29435, Note_on_c, 0, 70, 107
1, 29500, Note_off_c, 0, 70, 107
1, 29512, Note_on_c, 0, 67, 101
1, 29590, Note_off_c, 0, 67, 101
1, 29606, Note_on_c, 0, 69, 101
1, 29681, Note_off_c, 0, 69, 101
1, 29708, Note_on_c, 0, 70, 109
1, 29762, Note_off_c, 0, 70, 109
1, 29777, Note_on_c, 0, 72, 99
1, 29857, Note_off_c, 0, 72, 99
1, 29903, Note_on_c, 0, 69, 103
1, 29970, Note_off_c, 0, 69, 103
1, 29970, Note_on_c, 0, 70, 95
1, 30037, Note_off_c, 0, 70, 95
1, 30056, Note_on_c, 0, 72, 95
1, 30138, Note_off_c, 0, 72, 95
1, 30158, Note_on_c, 0, 73, 114
1, 30230, Note_off_c, 0, 73, 114
1, 30234, Note_on_c, 0, 74, 108
1, 30336, Note_off_c, 0, 74, 108
1, 30342, Note_on_c, 0, 75, 106
1, 30459, Note_off_c, 0, 75, 106
1, 30463, Note_on_c, 0, 73, 110
1, 30521, Note_off_c, 0, 73, 110
1, 30529, Note_on_c, 0, 74, 112
1, 30605, Note_off_c, 0, 74, 112
1, 30617, Note_on_c, 0, 70, 108
1, 30700, Note_off_c, 0, 70, 108
1, 30705, Note_on_c, 0, 72, 91
1, 30766, Note_off_c, 0, 72, 91
1, 30882, Note_on_c, 0, 70, 106
1, 30953, Note_off_c, 0, 70, 106
1, 31024, Note_on_c, 0, 67, 92
1, 31076, Note_off_c, 0, 67, 92
1, 31088, Note_on_c, 0, 69, 102
1, 31186, Note_off_c, 0, 69, 102
1, 31202, Note_on_c, 0, 66, 104
1, 31245, Note_off_c, 0, 66, 104
1, 31281, Note_on_c, 0, 67, 91
1, 31352, Note_off_c, 0, 67, 91
1, 31388, Note_on_c, 0, 65, 95
1, 31444, Note_off_c, 0, 65, 95
1, 31472, Note_on_c, 0, 70, 104
1, 31566, Note_off_c, 0, 70, 104
1, 31601, Note_on_c, 0, 67, 105
1, 31653, Note_off_c, 0, 67, 105
1, 31679, Note_on_c, 0, 69, 107
1, 31747, Note_off_c, 0, 69, 107
1, 31766, Note_on_c, 0, 70, 113
1, 31850, Note_off_c, 0, 70, 113
1, 31930, Note_on_c, 0, 72, 86
1, 31971, Note_off_c, 0, 72, 86
1, 31979, Note_on_c, 0, 74, 102
1, 32031, Note_off_c, 0, 74, 102
1, 32046, Note_on_c, 0, 74, 113
1, 32128, Note_off_c, 0, 74, 113
1, 32802, Note_on_c, 0, 79, 114
1, 32885, Note_off_c, 0, 79, 114
1, 32894, Note_on_c, 0, 77, 116
1, 32989, Note_off_c, 0, 77, 116
1, 32991, Note_on_c, 0, 74, 118
1, 33037, Note_off_c, 0, 74, 118
1, 33045, Note_on_c, 0, 73, 113
1, 33121, Note_off_c, 0, 73, 113
1, 33129, Note_on_c, 0, 72, 111
1, 33200, Note_off_c, 0, 72, 111
1, 33212, Note_on_c, 0, 74, 111
1, 33261, Note_off_c, 0, 74, 111
1, 33261, Note_on_c, 0, 70, 114
1, 33314, Note_off_c, 0, 70, 114
1, 33316, Note_on_c, 0, 67, 112
1, 33374, Note_off_c, 0, 67, 112
1, 33461, Note_on_c, 0, 65, 94
1, 33510, Note_off_c, 0, 65, 94
1, 33530, Note_on_c, 0, 72, 113
1, 33701, Note_off_c, 0, 72, 113
1, 33714, Note_on_c, 0, 70, 111
1, 33801, Note_off_c, 0, 70, 111
1, 33932, Note_on_c, 0, 72, 112
1, 34084, Note_off_c, 0, 72, 112
1, 34118, Note_on_c, 0, 70, 110
1, 34178, Note_off_c, 0, 70, 110
1, 34302, Note_on_c, 0, 72, 110
1, 34465, Note_off_c, 0, 72, 110
1, 34496, Note_on_c, 0, 70, 109
1, 34560, Note_off_c, 0, 70, 109
1, 34691, Note_on_c, 0, 75, 108
1, 34733, Note_off_c, 0, 75, 108
1, 34733, Note_on_c, 0, 77, 114
1, 34761, Note_off_c, 0, 77, 114
1, 34762, Note_on_c, 0, 76, 123
1, 34956, Note_off_c, 0, 76, 123
1, 34973, Note_on_c, 0, 74, 120
1, 35046, Note_off_c, 0, 74, 120
1, 35056, Note_on_c, 0, 72, 110
1, 35208, Note_off_c, 0, 72, 110
1, 35257, Note_on_c, 0, 74, 113
1, 35352, Note_off_c, 0, 74, 113
1, 35460, Note_on_c, 0, 76, 122
1, 35702, Note_off_c, 0, 76, 122
1, 35738, Note_on_c, 0, 67, 99
1, 36102, Note_off_c, 0, 67, 99
1, 37395, Note_on_c, 0, 79, 110
1, 37485, Note_off_c, 0, 79, 110
1, 37504, Note_on_c, 0, 75, 119
1, 37556, Note_off_c, 0, 75, 119
1, 37580, Note_on_c, 0, 74, 123
1, 37658, Note_off_c, 0, 74, 123
1, 37662, Note_on_c, 0, 73, 104
1, 37708, Note_off_c, 0, 73, 104
1, 37710, Note_on_c, 0, 75, 107
1, 37785, Note_off_c, 0, 75, 107
1, 37828, Note_on_c, 0, 71, 113
1, 37882, Note_off_c, 0, 71, 113
1, 37897, Note_on_c, 0, 70, 105
1, 37964, Note_off_c, 0, 70, 105
1, 38010, Note_on_c, 0, 74, 113
1, 38096, Note_off_c, 0, 74, 113
1, 38100, Note_on_c, 0, 69, 115
1, 38153, Note_off_c, 0, 69, 115
1, 38155, Note_on_c, 0, 70, 114
1, 38208, Note_off_c, 0, 70, 114
1, 38216, Note_on_c, 0, 69, 113
1, 38291, Note_off_c, 0, 69, 113
1, 38291, Note_on_c, 0, 67, 109
1, 38355, Note_off_c, 0, 67, 109
1, 38383, Note_on_c, 0, 65, 113
1, 38454, Note_off_c, 0, 65, 113
1, 38462, Note_on_c, 0, 64, 105
1, 38537, Note_off_c, 0, 64, 105
1, 38550, Note_on_c, 0, 65, 109
1, 38650, Note_off_c, 0, 65, 109
1, 38673, Note_on_c, 0, 67, 113
1, 38729, Note_off_c, 0, 67, 113
1, 38749, Note_on_c, 0, 69, 111
1, 38854, Note_off_c, 0, 69, 111
1, 38856, Note_on_c, 0, 70, 111
1, 38921, Note_off_c, 0, 70, 111
1, 38956, Note_on_c, 0, 72, 110
1, 39008, Note_off_c, 0, 72, 110
1, 39016, Note_on_c, 0, 73, 113
1, 39133, Note_off_c, 0, 73, 113
1, 39148, Note_on_c, 0, 68, 96
1, 39197, Note_off_c, 0, 68, 96
1, 39212, Note_on_c, 0, 72, 104
1, 39260, Note_off_c, 0, 72, 104
1, 39268, Note_on_c, 0, 73, 99
1, 39293, Note_off_c, 0, 73, 99
1, 39310, Note_on_c, 0, 69, 112
1, 39378, Note_off_c, 0, 69, 112
1, 39383, Note_on_c, 0, 70, 111
1, 39454, Note_off_c, 0, 70, 111
1, 39544, Note_on_c, 0, 68, 94
1, 39583, Note_off_c, 0, 68, 94
1, 39603, Note_on_c, 0, 69, 113
1, 39681, Note_off_c, 0, 69, 113
1, 39682, Note_on_c, 0, 66, 103
1, 39758, Note_off_c, 0, 66, 103
1, 39790, Note_on_c, 0, 67, 102
1, 39843, Note_off_c, 0, 67, 102
1, 39866, Note_on_c, 0, 69, 111
1, 39950, Note_off_c, 0, 69, 111
1, 39965, Note_on_c, 0, 70, 108
1, 40028, Note_off_c, 0, 70, 108
1, 40049, Note_on_c, 0, 72, 108
1, 40138, Note_off_c, 0, 72, 108
1, 40139, Note_on_c, 0, 74, 105
1, 40258, Note_off_c, 0, 74, 105
1, 40337, Note_on_c, 0, 73, 104
1, 40380, Note_off_c, 0, 73, 104
1, 40381, Note_on_c, 0, 74, 114
1, 40522, Note_off_c, 0, 74, 114
1, 40522, Note_on_c, 0, 72, 107
1, 40578, Note_off_c, 0, 72, 107
1, 40582, Note_on_c, 0, 74, 117
1, 40716, Note_off_c, 0, 74, 117
1, 40720, Note_on_c, 0, 72, 106
1, 40778, Note_off_c, 0, 72, 106
1, 40782, Note_on_c, 0, 74, 120
1, 41032, Note_off_c, 0, 74, 120
1, 41047, Note_on_c, 0, 67, 96
1, 41115, Note_off_c, 0, 67, 96
1, 41231, Note_on_c, 0, 70, 106
1, 41421, Note_off_c, 0, 70, 106
1, 41489, Note_on_c, 0, 70, 108
1, 41576, Note_off_c, 0, 70, 108
1, 42277, Note_on_c, 0, 74, 122
1, 42326, Note_off_c, 0, 74, 122
1, 42434, Note_on_c, 0, 77, 126
1, 42658, Note_off_c, 0, 77, 126
1, 42658, Note_on_c, 0, 74, 126
1, 42852, Note_off_c, 0, 74, 126
1, 42852, Note_on_c, 0, 77, 120
1, 43345, Note_off_c, 0, 77, 120
1, 44980, Note_on_c, 0, 77, 118
1, 45058, Note_off_c, 0, 77, 118
1, 45101, Note_on_c, 0, 77, 121
1, 45162, Note_off_c, 0, 77, 121
1, 45274, Note_on_c, 0, 80, 105
1, 45310, Note_off_c, 0, 80, 105
1, 45312, Note_on_c, 0, 81, 105
1, 45357, Note_off_c, 0, 81, 105
1, 45461, Note_on_c, 0, 81, 104
1, 45740, Note_off_c, 0, 81, 104
1, 46886, Note_on_c, 0, 83, 112
1, 46920, Note_off_c, 0, 83, 112
1, 46928, Note_on_c, 0, 84, 122
1, 46966, Note_off_c, 0, 84, 122
1, 46975, Note_on_c, 0, 83, 116
1, 47031, Note_on_c, 0, 81, 109
1, 47031, Note_off_c, 0, 83, 116
1, 47092, Note_off_c, 0, 81, 109
1, 47130, Note_on_c, 0, 77, 118
1, 47197, Note_off_c, 0, 77, 118
1, 47205, Note_on_c, 0, 76, 119
1, 47283, Note_off_c, 0, 76, 119
1, 47298, Note_on_c, 0, 77, 100
1, 47329, Note_on_c, 0, 74, 117
1, 47329, Note_off_c, 0, 77, 100
1, 47405, Note_off_c, 0, 74, 117
1, 47405, Note_on_c, 0, 73, 112
1, 47491, Note_off_c, 0, 73, 112
1, 47523, Note_on_c, 0, 76, 111
1, 47606, Note_off_c, 0, 76, 111
1, 47612, Note_on_c, 0, 74, 111
1, 47698, Note_off_c, 0, 74, 111
1, 47802, Note_on_c, 0, 74, 121
1, 47986, Note_off_c, 0, 74, 121
1, 48010, Note_on_c, 0, 74, 117
1, 48194, Note_off_c, 0, 74, 117
1, 48199, Note_on_c, 0, 76, 114
1, 48272, Note_off_c, 0, 76, 114
1, 48391, Note_on_c, 0, 77, 121
1, 48626, Note_off_c, 0, 77, 121
1, 48672, Note_on_c, 0, 74, 109
1, 49009, Note_off_c, 0, 74, 109
1, 50010, Note_on_c, 0, 79, 106
1, 50056, Note_off_c, 0, 79, 106
1, 50061, Note_on_c, 0, 77, 111
1, 50154, Note_off_c, 0, 77, 111
1, 50289, Note_on_c, 0, 74, 118
1, 50473, Note_off_c, 0, 74, 118
1, 50482, Note_on_c, 0, 73, 113
1, 50658, Note_off_c, 0, 73, 113
1, 50668, Note_on_c, 0, 72, 106
1, 50846, Note_off_c, 0, 72, 106
1, 50866, Note_on_c, 0, 70, 111
1, 51060, Note_off_c, 0, 70, 111
1, 51062, Note_on_c, 0, 67, 101
1, 51120, Note_off_c, 0, 67, 101
1, 51172, Note_on_c, 0, 70, 109
1, 51236, Note_off_c, 0, 70, 109
1, 51240, Note_on_c, 0, 72, 105
1, 51316, Note_off_c, 0, 72, 105
1, 51346, Note_on_c, 0, 73, 103
1, 51581, Note_off_c, 0, 73, 103
1, 51624, Note_on_c, 0, 72, 102
1, 51708, Note_off_c, 0, 72, 102
1, 51801, Note_on_c, 0, 69, 93
1, 51832, Note_off_c, 0, 69, 93
1, 51832, Note_on_c, 0, 72, 102
1, 51959, Note_off_c, 0, 72, 102
1, 51978, Note_on_c, 0, 74, 92
1, 52012, Note_off_c, 0, 74, 92
1, 52025, Note_on_c, 0, 70, 110
1, 52127, Note_off_c, 0, 70, 110
1, 53088, Note_on_c, 0, 70, 101
1, 53126, Note_off_c, 0, 70, 101
1, 53128, Note_on_c, 0, 69, 114
1, 53163, Note_off_c, 0, 69, 114
1, 53172, Note_on_c, 0, 67, 99
1, 53255, Note_off_c, 0, 67, 99
1, 53323, Note_on_c, 0, 70, 88
1, 53349, Note_off_c, 0, 70, 88
1, 53350, Note_on_c, 0, 72, 113
1, 53539, Note_off_c, 0, 72, 113
1, 53565, Note_on_c, 0, 73, 118
1, 53734, Note_off_c, 0, 73, 118
1, 53744, Note_on_c, 0, 72, 103
1, 53923, Note_off_c, 0, 72, 103
1, 53968, Note_on_c, 0, 70, 109
1, 54022, Note_off_c, 0, 70, 109
1, 54168, Note_on_c, 0, 73, 115
1, 54235, Note_off_c, 0, 73, 115
1, 54239, Note_on_c, 0, 74, 126
1, 54351, Note_off_c, 0, 74, 126
1, 54351, Note_on_c, 0, 77, 119
1, 54492, Note_off_c, 0, 77, 119
1, 54796, Note_on_c, 0, 67, 95
1, 54849, Note_off_c, 0, 67, 95
1, 54880, Note_on_c, 0, 70, 95
1, 54914, Note_off_c, 0, 70, 95
1, 54959, Note_on_c, 0, 72, 106
1, 55067, Note_off_c, 0, 72, 106
1, 55095, Note_on_c, 0, 73, 117
1, 55284, Note_off_c, 0, 73, 117
1, 55288, Note_on_c, 0, 72, 106
1, 55461, Note_off_c, 0, 72, 106
1, 55504, Note_on_c, 0, 70, 106
1, 55664, Note_off_c, 0, 70, 106
1, 55685, Note_on_c, 0, 73, 110
1, 55743, Note_off_c, 0, 73, 110
1, 55758, Note_on_c, 0, 74, 116
1, 55870, Note_off_c, 0, 74, 116
1, 55870, Note_on_c, 0, 78, 119
1, 55979, Note_off_c, 0, 78, 119
1, 55989, Note_on_c, 0, 79, 111
1, 56093, Note_off_c, 0, 79, 111
1, 56172, Note_on_c, 0, 75, 101
1, 56193, Note_on_c, 0, 77, 117
1, 56193, Note_off_c, 0, 75, 101
1, 56284, Note_off_c, 0, 77, 117
1, 56344, Note_on_c, 0, 74, 9
1, 56474, Note_off_c, 0, 74, 9
1, 56532, Note_on_c, 0, 73, 110
1, 56642, Note_off_c, 0, 73, 110
1, 56739, Note_on_c, 0, 72, 103
1, 56806, Note_off_c, 0, 72, 103
1, 56888, Note_on_c, 0, 70, 113
1, 56993, Note_off_c, 0, 70, 113
1, 57105, Note_on_c, 0, 66, 95
1, 57165, Note_off_c, 0, 66, 95
1, 57189, Note_on_c, 0, 73, 115
1, 57261, Note_off_c, 0, 73, 115
1, 57263, Note_on_c, 0, 74, 120
1, 57350, Note_off_c, 0, 74, 120
1, 57359, Note_on_c, 0, 75, 113
1, 57454, Note_off_c, 0, 75, 113
1, 57459, Note_on_c, 0, 73, 115
1, 57537, Note_off_c, 0, 73, 115
1, 57546, Note_on_c, 0, 74, 118
1, 57637, Note_off_c, 0, 74, 118
1, 57652, Note_on_c, 0, 70, 114
1, 57738, Note_off_c, 0, 70, 114
1, 57740, Note_on_c, 0, 72, 99
1, 57798, Note_off_c, 0, 72, 99
1, 57866, Note_on_c, 0, 69, 97
1, 57902, Note_off_c, 0, 69, 97
1, 57933, Note_on_c, 0, 70, 111
1, 58034, Note_off_c, 0, 70, 111
1, 58065, Note_on_c, 0, 68, 94
1, 58121, Note_off_c, 0, 68, 94
1, 58131, Note_on_c, 0, 69, 111
1, 58181, Note_off_c, 0, 69, 111
1, 58181, Note_on_c, 0, 70, 102
1, 58217, Note_off_c, 0, 70, 102
1, 58221, Note_on_c, 0, 68, 110
1, 58301, Note_off_c, 0, 68, 110
1, 58306, Note_on_c, 0, 66, 104
1, 58366, Note_off_c, 0, 66, 104
1, 58424, Note_on_c, 0, 67, 102
1, 58478, Note_off_c, 0, 67, 102
1, 58516, Note_on_c, 0, 69, 108
1, 58592, Note_off_c, 0, 69, 108
1, 58630, Note_on_c, 0, 65, 106
1, 58662, Note_off_c, 0, 65, 106
1, 58682, Note_on_c, 0, 68, 104
1, 58735, Note_off_c, 0, 68, 104
1, 58751, Note_on_c, 0, 69, 92
1, 58819, Note_off_c, 0, 69, 92
1, 58919, Note_on_c, 0, 67, 104
1, 59509, Note_off_c, 0, 67, 104
1, 60702, Note_on_c, 0, 78, 108
1, 60737, Note_off_c, 0, 78, 108
1, 60737, Note_on_c, 0, 77, 115
1, 60780, Note_off_c, 0, 77, 115
1, 60784, Note_on_c, 0, 75, 118
1, 60826, Note_off_c, 0, 75, 118
1, 60826, Note_on_c, 0, 74, 117
1, 60899, Note_off_c, 0, 74, 117
1, 60900, Note_on_c, 0, 73, 114
1, 60923, Note_off_c, 0, 73, 114
1, 60935, Note_on_c, 0, 72, 113
1, 61051, Note_off_c, 0, 72, 113
1, 61061, Note_on_c, 0, 71, 106
1, 61136, Note_off_c, 0, 71, 106
1, 61142, Note_on_c, 0, 70, 111
1, 61221, Note_off_c, 0, 70, 111
1, 61245, Note_on_c, 0, 74, 114
1, 61309, Note_off_c, 0, 74, 114
1, 61343, Note_on_c, 0, 69, 115
1, 61386, Note_off_c, 0, 69, 115
1, 61394, Note_on_c, 0, 70, 117
1, 61441, Note_off_c, 0, 70, 117
1, 61461, Note_on_c, 0, 69, 112
1, 61524, Note_off_c, 0, 69, 112
1, 61537, Note_on_c, 0, 67, 107
1, 61604, Note_off_c, 0, 67, 107
1, 61623, Note_on_c, 0, 65, 112
1, 61712, Note_off_c, 0, 65, 112
1, 61733, Note_on_c, 0, 64, 109
1, 61780, Note_off_c, 0, 64, 109
1, 61807, Note_on_c, 0, 65, 114
1, 61902, Note_off_c, 0, 65, 114
1, 61925, Note_on_c, 0, 66, 100
1, 61971, Note_off_c, 0, 66, 100
1, 61998, Note_on_c, 0, 69, 114
1, 62100, Note_off_c, 0, 69, 114
1, 62115, Note_on_c, 0, 70, 117
1, 62182, Note_off_c, 0, 70, 117
1, 62212, Note_on_c, 0, 72, 107
1, 62281, Note_off_c, 0, 72, 107
1, 62290, Note_on_c, 0, 73, 112
1, 62321, Note_off_c, 0, 73, 112
1, 62338, Note_on_c, 0, 74, 116
1, 62411, Note_off_c, 0, 74, 116
1, 62412, Note_on_c, 0, 73, 116
1, 62485, Note_off_c, 0, 73, 116
1, 62495, Note_on_c, 0, 72, 109
1, 62541, Note_off_c, 0, 72, 109
1, 62579, Note_on_c, 0, 70, 112
1, 62658, Note_off_c, 0, 70, 112
1, 62662, Note_on_c, 0, 69, 112
1, 62709, Note_off_c, 0, 69, 112
1, 62718, Note_on_c, 0, 70, 114
1, 62770, Note_off_c, 0, 70, 114
1, 62793, Note_on_c, 0, 69, 111
1, 62869, Note_off_c, 0, 69, 111
1, 62962, Note_on_c, 0, 65, 109
1, 63046, Note_off_c, 0, 65, 109
1, 63046, Note_on_c, 0, 64, 97
1, 63107, Note_off_c, 0, 64, 97
1, 63118, Note_on_c, 0, 65, 92
1, 63204, Note_off_c, 0, 65, 92
1, 63231, Note_on_c, 0, 67, 104
1, 63318, Note_off_c, 0, 67, 104
1, 63353, Note_on_c, 0, 64, 105
1, 63430, Note_off_c, 0, 64, 105
1, 63445, Note_on_c, 0, 65, 104
1, 63511, Note_off_c, 0, 65, 104
1, 63555, Note_on_c, 0, 64, 103
1, 63607, Note_off_c, 0, 64, 103
1, 63607, Note_on_c, 0, 69, 110
1, 63678, Note_off_c, 0, 69, 110
1, 63704, Note_on_c, 0, 72, 107
1, 63791, Note_off_c, 0, 72, 107
1, 64782, Note_on_c, 0, 72, 119
1, 64855, Note_off_c, 0, 72, 119
1, 64871, Note_on_c, 0, 74, 118
1, 65022, Note_off_c, 0, 74, 118
1, 65066, Note_on_c, 0, 70, 122
1, 65242, Note_off_c, 0, 70, 122
1, 65265, Note_on_c, 0, 69, 117
1, 66184, Note_off_c, 0, 69, 117
1, 66363, Note_on_c, 0, 76, 126
1, 66619, Note_off_c, 0, 76, 126
1, 66653, Note_on_c, 0, 70, 117
1, 66850, Note_off_c, 0, 70, 117
1, 66854, Note_on_c, 0, 69, 112
1, 67303, Note_off_c, 0, 69, 112
1, 67860, Note_on_c, 0, 69, 118
1, 67895, Note_off_c, 0, 69, 118
1, 67898, Note_on_c, 0, 70, 121
1, 67934, Note_off_c, 0, 70, 121
1, 67938, Note_on_c, 0, 69, 111
1, 67995, Note_off_c, 0, 69, 111
1, 68036, Note_on_c, 0, 67, 109
1, 68091, Note_off_c, 0, 67, 109
1, 68125, Note_on_c, 0, 69, 118
1, 68210, Note_off_c, 0, 69, 118
1, 68223, Note_on_c, 0, 70, 114
1, 68270, Note_off_c, 0, 70, 114
1, 68303, Note_on_c, 0, 69, 119
1, 68386, Note_off_c, 0, 69, 119
1, 68400, Note_on_c, 0, 73, 109
1, 68462, Note_off_c, 0, 73, 109
1, 68955, Note_on_c, 0, 73, 113
1, 69000, Note_off_c, 0, 73, 113
1, 69000, Note_on_c, 0, 74, 118
1, 69055, Note_off_c, 0, 74, 118
1, 69069, Note_on_c, 0, 73, 118
1, 69135, Note_off_c, 0, 73, 118
1, 69151, Note_on_c, 0, 72, 111
1, 69220, Note_off_c, 0, 72, 111
1, 69258, Note_on_c, 0, 70, 117
1, 69326, Note_off_c, 0, 70, 117
1, 69348, Note_on_c, 0, 68, 113
1, 69412, Note_off_c, 0, 68, 113
1, 69435, Note_on_c, 0, 73, 111
1, 69470, Note_off_c, 0, 73, 111
1, 69481, Note_on_c, 0, 70, 117
1, 69524, Note_off_c, 0, 70, 117
1, 69548, Note_on_c, 0, 67, 108
1, 69611, Note_off_c, 0, 67, 108
1, 69755, Note_on_c, 0, 67, 110
1, 69822, Note_off_c, 0, 67, 110
1, 69939, Note_on_c, 0, 70, 106
1, 70041, Note_off_c, 0, 70, 106
1, 70130, Note_on_c, 0, 72, 117
1, 70286, Note_off_c, 0, 72, 117
1, 70297, Note_on_c, 0, 70, 108
1, 70389, Note_off_c, 0, 70, 108
1, 70488, Note_on_c, 0, 72, 113
1, 70655, Note_off_c, 0, 72, 113
1, 70700, Note_on_c, 0, 70, 101
1, 70804, Note_off_c, 0, 70, 101
1, 70876, Note_on_c, 0, 72, 114
1, 70945, Note_off_c, 0, 72, 114
1, 70965, Note_on_c, 0, 70, 113
1, 71020, Note_off_c, 0, 70, 113
1, 71032, Note_on_c, 0, 67, 112
1, 71116, Note_off_c, 0, 67, 112
1, 71185, Note_on_c, 0, 67, 112
1, 71413, Note_off_c, 0, 67, 112
1, 71420, Note_on_c, 0, 70, 109
1, 71507, Note_off_c, 0, 70, 109
1, 71560, Note_on_c, 0, 61, 105
1, 71617, Note_off_c, 0, 61, 105
1, 71617, Note_on_c, 0, 67, 109
1, 71800, Note_off_c, 0, 67, 109
1, 71800, Note_on_c, 0, 70, 112
1, 72624, Note_off_c, 0, 70, 112
1, 72684, Note_on_c, 0, 67, 109
1, 72940, Note_off_c, 0, 67, 109
1, 72956, Note_on_c, 0, 67, 108
1, 73045, Note_off_c, 0, 67, 108
1, 73164, Note_on_c, 0, 65, 105
1, 73320, Note_off_c, 0, 65, 105
1, 73359, Note_on_c, 0, 67, 96
1, 74066, Note_off_c, 0, 67, 96
1, 74066, End_track
0, 0, End_of_file
