0, 0, Header, 1, 1, 192
1, 0, Start_track
1, 0, Note_on_c, 0, 74, 116
1, 162, Note_off_c, 0, 74, 116
1, 288, Note_on_c, 0, 71, 114
1, 419, Note_off_c, 0, 71, 114
1, 513, Note_on_c, 0, 69, 113
1, 633, Note_off_c, 0, 69, 113
1, 827, Note_on_c, 0, 66, 114
1, 947, Note_off_c, 0, 66, 114
1, 1109, Note_on_c, 0, 62, 86
1, 1224, Note_off_c, 0, 62, 86
1, 1276, Note_on_c, 0, 71, 107
1, 1314, Title_t, "Melody"
1, 1314, Tempo, 298507
1, 1314, Time_signature, 1, 2, 24, 8
1, 1398, Note_off_c, 0, 71, 107
1, 1468, Note_on_c, 0, 69, 108
1, 1606, Note_off_c, 0, 69, 108
1, 1669, Note_on_c, 0, 71, 105
1, 1773, Note_off_c, 0, 71, 105
1, 2071, Note_on_c, 0, 71, 108
1, 2168, Note_off_c, 0, 71, 108
1, 2253, Note_on_c, 0, 69, 108
1, 2383, Note_off_c, 0, 69, 108
1, 2457, Note_on_c, 0, 66, 101
1, 2569, Note_off_c, 0, 66, 101
1, 2822, Note_on_c, 0, 66, 107
1, 2892, Note_off_c, 0, 66, 107
1, 2918, Note_on_c, 0, 66, 103
1, 2992, Note_off_c, 0, 66, 103
1, 3025, Note_on_c, 0, 69, 110
1, 3144, Note_off_c, 0, 69, 110
1, 3211, Note_on_c, 0, 69, 112
1, 3292, Note_off_c, 0, 69, 112
1, 3431, Note_on_c, 0, 71, 111
1, 3509, Note_off_c, 0, 71, 111
1, 3514, Note_on_c, 0, 69, 107
1, 3592, Note_off_c, 0, 69, 107
1, 3607, Note_on_c, 0, 65, 97
1, 3677, Note_off_c, 0, 65, 97
1, 3732, Note_on_c, 0, 62, 92
1, 3826, Note_off_c, 0, 62, 92
1, 3881, Note_on_c, 0, 62, 92
1, 3978, Note_off_c, 0, 62, 92
1, 4085, Note_on_c, 0, 66, 115
1, 4171, Note_off_c, 0, 66, 115
1, 4384, Note_on_c, 0, 62, 81
1, 4440, Note_off_c, 0, 62, 81
1, 4462, Note_on_c, 0, 62, 85
1, 4523, Note_off_c, 0, 62, 85
1, 4554, Note_on_c, 0, 67, 109
1, 4647, Note_off_c, 0, 67, 109
1, 4734, Note_on_c, 0, 67, 115
1, 4838, Note_off_c, 0, 67, 115
1, 4923, Note_on_c, 0, 71, 107
1, 5029, Note_off_c, 0, 71, 107
1, 5053, Note_on_c, 0, 69, 113
1, 5127, Note_off_c, 0, 69, 113
1, 5225, Note_on_c, 0, 69, 110
1, 5357, Note_off_c, 0, 69, 110
1, 5967, Note_on_c, 0, 67, 95
1, 6045, Note_off_c, 0, 67, 95
1, 6060, Note_on_c, 0, 71, 111
1, 6158, Note_off_c, 0, 71, 111
1, 6257, Note_on_c, 0, 74, 113
1, 6372, Note_off_c, 0, 74, 113
1, 6426, Note_on_c, 0, 76, 121
1, 6538, Note_off_c, 0, 76, 121
1, 6556, Note_on_c, 0, 74, 105
1, 6636, Note_off_c, 0, 74, 105
1, 6749, Note_on_c, 0, 74, 91
1, 7027, Note_off_c, 0, 74, 91
1, 7377, Note_on_c, 0, 71, 114
1, 7466, Note_off_c, 0, 71, 114
1, 7484, Note_on_c, 0, 67, 106
1, 7549, Note_off_c, 0, 67, 106
1, 7560, Note_on_c, 0, 69, 105
1, 7750, Note_off_c, 0, 69, 105
1, 7764, Note_on_c, 0, 66, 111
1, 7876, Note_on_c, 0, 62, 84
1, 7876, Note_off_c, 0, 66, 111
1, 7928, Note_off_c, 0, 62, 84
1, 7957, Note_on_c, 0, 67, 113
1, 8044, Note_off_c, 0, 67, 113
1, 8044, Note_on_c, 0, 66, 100
1, 8070, Note_off_c, 0, 66, 100
1, 8094, Note_on_c, 0, 62, 95
1, 8204, Note_off_c, 0, 62, 95
1, 8543, Note_on_c, 0, 77, 120
1, 8599, Note_off_c, 0, 77, 120
1, 8599, Note_on_c, 0, 78, 119
1, 8662, Note_off_c, 0, 78, 119
1, 8662, Note_on_c, 0, 76, 121
1, 8725, Note_off_c, 0, 76, 121
1, 8751, Note_on_c, 0, 74, 106
1, 8840, Note_off_c, 0, 74, 106
1, 8847, Note_on_c, 0, 71, 111
1, 8914, Note_off_c, 0, 71, 111
1, 8925, Note_on_c, 0, 70, 108
1, 9009, Note_off_c, 0, 70, 108
1, 9025, Note_on_c, 0, 67, 108
1, 9099, Note_off_c, 0, 67, 108
1, 9106, Note_on_c, 0, 69, 111
1, 9201, Note_off_c, 0, 69, 111
1, 9215, Note_on_c, 0, 67, 112
1, 9297, Note_off_c, 0, 67, 112
1, 9304, Note_on_c, 0, 66, 107
1, 9388, Note_off_c, 0, 66, 107
1, 9408, Note_on_c, 0, 62, 91
1, 9450, Note_off_c, 0, 62, 91
1, 9496, Note_on_c, 0, 66, 104
1, 9594, Note_off_c, 0, 66, 104
1, 9595, Note_on_c, 0, 62, 81
1, 9647, Note_off_c, 0, 62, 81
1, 9661, Note_on_c, 0, 64, 102
1, 9752, Note_off_c, 0, 64, 102
1, 9785, Note_on_c, 0, 60, 93
1, 9839, Note_off_c, 0, 60, 93
1, 9852, Note_on_c, 0, 62, 97
1, 9952, Note_off_c, 0, 62, 97
1, 9983, Note_on_c, 0, 59, 94
1, 10037, Note_off_c, 0, 59, 94
1, 10061, Note_on_c, 0, 57, 93
1, 10154, Note_off_c, 0, 57, 93
1, 10154, Note_on_c, 0, 56, 82
1, 10187, Note_off_c, 0, 56, 82
1, 10371, Note_on_c, 0, 65, 102
1, 10412, Note_off_c, 0, 65, 102
1, 10415, Note_on_c, 0, 66, 111
1, 10495, Note_off_c, 0, 66, 111
1, 10496, Note_on_c, 0, 62, 86
1, 10546, Note_off_c, 0, 62, 86
1, 10652, Note_on_c, 0, 63, 102
1, 10695, Note_off_c, 0, 63, 102
1, 10700, Note_on_c, 0, 64, 103
1, 10727, Note_off_c, 0, 64, 103
1, 10737, Note_on_c, 0, 63, 106
1, 10763, Note_off_c, 0, 63, 106
1, 10767, Note_on_c, 0, 64, 106
1, 11019, Note_off_c, 0, 64, 106
1, 11019, Note_on_c, 0, 65, 101
1, 11188, Note_off_c, 0, 65, 101
1, 11199, Note_on_c, 0, 64, 94
1, 11234, Note_off_c, 0, 64, 94
1, 11244, Note_on_c, 0, 62, 92
1, 11350, Note_off_c, 0, 62, 92
1, 12310, Note_on_c, 0, 64, 105
1, 12349, Note_off_c, 0, 64, 105
1, 12363, Note_on_c, 0, 63, 113
1, 12687, Note_off_c, 0, 63, 113
1, 12697, Note_on_c, 0, 64, 103
1, 12775, Note_off_c, 0, 64, 103
1, 12805, Note_on_c, 0, 65, 98
1, 13089, Note_off_c, 0, 65, 98
1, 13102, Note_on_c, 0, 65, 102
1, 13146, Note_off_c, 0, 65, 102
1, 13157, Note_on_c, 0, 64, 101
1, 13256, Note_off_c, 0, 64, 101
1, 13280, Note_on_c, 0, 62, 98
1, 13437, Note_off_c, 0, 62, 98
1, 13507, Note_on_c, 0, 59, 91
1, 13589, Note_off_c, 0, 59, 91
1, 13628, Note_on_c, 0, 53, 101
1, 13668, Note_off_c, 0, 53, 101
1, 13687, Note_on_c, 0, 57, 94
1, 13764, Note_off_c, 0, 57, 94
1, 13795, Note_on_c, 0, 64, 105
1, 13846, Note_off_c, 0, 64, 105
1, 13847, Note_on_c, 0, 62, 104
1, 13878, Note_off_c, 0, 62, 104
1, 13888, Note_on_c, 0, 63, 103
1, 14108, Note_off_c, 0, 63, 103
1, 14115, Note_on_c, 0, 64, 104
1, 14512, Note_off_c, 0, 64, 104
1, 14519, Note_on_c, 0, 65, 97
1, 14570, Note_off_c, 0, 65, 97
1, 14577, Note_on_c, 0, 64, 103
1, 14704, Note_off_c, 0, 64, 103
1, 14725, Note_on_c, 0, 62, 89
1, 14917, Note_off_c, 0, 62, 89
1, 14982, Note_on_c, 0, 58, 94
1, 15039, Note_off_c, 0, 58, 94
1, 15039, Note_on_c, 0, 57, 84
1, 15052, Note_off_c, 0, 57, 84
1, 15507, Note_on_c, 0, 66, 111
1, 15567, Note_off_c, 0, 66, 111
1, 15585, Note_on_c, 0, 69, 125
1, 15684, Note_off_c, 0, 69, 125
1, 15694, Note_on_c, 0, 70, 115
1, 15747, Note_off_c, 0, 70, 115
1, 15757, Note_on_c, 0, 72, 117
1, 15868, Note_off_c, 0, 72, 117
1, 15869, Note_on_c, 0, 70, 109
1, 16114, Note_off_c, 0, 70, 109
1, 16116, Note_on_c, 0, 69, 109
1, 16211, Note_off_c, 0, 69, 109
1, 16225, Note_on_c, 0, 67, 108
1, 16301, Note_off_c, 0, 67, 108
1, 16333, Note_on_c, 0, 65, 98
1, 16364, Note_off_c, 0, 65, 98
1, 16369, Note_on_c, 0, 66, 99
1, 16418, Note_off_c, 0, 66, 99
1, 16424, Note_on_c, 0, 62, 99
1, 16489, Note_off_c, 0, 62, 99
1, 16495, Note_on_c, 0, 59, 90
1, 16572, Note_off_c, 0, 59, 90
1, 16604, Note_on_c, 0, 54, 87
1, 16656, Note_off_c, 0, 54, 87
1, 16683, Note_on_c, 0, 62, 94
1, 16747, Note_off_c, 0, 62, 94
1, 16858, Note_on_c, 0, 66, 102
1, 16964, Note_off_c, 0, 66, 102
1, 17042, Note_on_c, 0, 67, 102
1, 17152, Note_off_c, 0, 67, 102
1, 17168, Note_on_c, 0, 69, 104
1, 17252, Note_off_c, 0, 69, 104
1, 17350, Note_on_c, 0, 69, 88
1, 17600, Note_off_c, 0, 69, 88
1, 18110, Note_on_c, 0, 69, 115
1, 18226, Note_off_c, 0, 69, 115
1, 18227, Note_on_c, 0, 71, 116
1, 18300, Note_off_c, 0, 71, 116
1, 18310, Note_on_c, 0, 71, 116
1, 18344, Note_off_c, 0, 71, 116
1, 18344, Note_on_c, 0, 72, 114
1, 18380, Note_off_c, 0, 72, 114
1, 18390, Note_on_c, 0, 72, 107
1, 18424, Note_off_c, 0, 72, 107
1, 18427, Note_on_c, 0, 74, 102
1, 18512, Note_off_c, 0, 74, 102
1, 18525, Note_on_c, 0, 74, 117
1, 18607, Note_off_c, 0, 74, 117
1, 18612, Note_on_c, 0, 76, 122
1, 18705, Note_off_c, 0, 76, 122
1, 18716, Note_on_c, 0, 73, 109
1, 18792, Note_off_c, 0, 73, 109
1, 18807, Note_on_c, 0, 71, 106
1, 18879, Note_off_c, 0, 71, 106
1, 18894, Note_on_c, 0, 70, 108
1, 18970, Note_off_c, 0, 70, 108
1, 18981, Note_on_c, 0, 69, 108
1, 19080, Note_off_c, 0, 69, 108
1, 19090, Note_on_c, 0, 67, 102
1, 19151, Note_off_c, 0, 67, 102
1, 19172, Note_on_c, 0, 66, 93
1, 19259, Note_off_c, 0, 66, 93
1, 19356, Note_on_c, 0, 64, 97
1, 19440, Note_off_c, 0, 64, 97
1, 19453, Note_on_c, 0, 65, 96
1, 19527, Note_off_c, 0, 65, 96
1, 19642, Note_on_c, 0, 70, 90
1, 19706, Note_off_c, 0, 70, 90
1, 19737, Note_on_c, 0, 75, 112
1, 19844, Note_off_c, 0, 75, 112
1, 19949, Note_on_c, 0, 69, 110
1, 20038, Note_off_c, 0, 69, 110
1, 20043, Note_on_c, 0, 70, 97
1, 20123, Note_off_c, 0, 70, 97
1, 20145, Note_on_c, 0, 69, 95
1, 20222, Note_off_c, 0, 69, 95
1, 20236, Note_on_c, 0, 67, 91
1, 20308, Note_off_c, 0, 67, 91
1, 21271, Note_on_c, 0, 69, 123
1, 21386, Note_off_c, 0, 69, 123
1, 21410, Note_on_c, 0, 69, 120
1, 21555, Note_off_c, 0, 69, 120
1, 21555, Note_on_c, 0, 70, 97
1, 21573, Note_off_c, 0, 70, 97
1, 21582, Note_on_c, 0, 69, 92
1, 21627, Note_off_c, 0, 69, 92
1, 21634, Note_on_c, 0, 69, 119
1, 21748, Note_off_c, 0, 69, 119
1, 21779, Note_on_c, 0, 74, 116
1, 21851, Note_off_c, 0, 74, 116
1, 21954, Note_on_c, 0, 71, 115
1, 22039, Note_off_c, 0, 71, 115
1, 22136, Note_on_c, 0, 67, 110
1, 22226, Note_off_c, 0, 67, 110
1, 22304, Note_on_c, 0, 69, 99
1, 22544, Note_off_c, 0, 69, 99
1, 22705, Note_on_c, 0, 62, 87
1, 22785, Note_off_c, 0, 62, 87
1, 22785, Note_on_c, 0, 66, 107
1, 22895, Note_off_c, 0, 66, 107
1, 22990, Note_on_c, 0, 66, 100
1, 23096, Note_off_c, 0, 66, 100
1, 23185, Note_on_c, 0, 67, 109
1, 23292, Note_off_c, 0, 67, 109
1, 23311, Note_on_c, 0, 69, 111
1, 23395, Note_off_c, 0, 69, 111
1, 23482, Note_on_c, 0, 66, 100
1, 23573, Note_off_c, 0, 66, 100
1, 23680, Note_on_c, 0, 62, 98
1, 23767, Note_off_c, 0, 62, 98
1, 23868, Note_on_c, 0, 59, 93
1, 23967, Note_off_c, 0, 59, 93
1, 24040, Note_on_c, 0, 71, 105
1, 24079, Note_off_c, 0, 71, 105
1, 24079, Note_on_c, 0, 72, 111
1, 24101, Note_off_c, 0, 72, 111
1, 24112, Note_on_c, 0, 73, 111
1, 24143, Note_off_c, 0, 73, 111
1, 24144, Note_on_c, 0, 74, 108
1, 24502, Note_off_c, 0, 74, 108
1, 24526, Note_on_c, 0, 74, 107
1, 24634, Note_off_c, 0, 74, 107
1, 24706, Note_on_c, 0, 74, 107
1, 24874, Note_off_c, 0, 74, 107
1, 25271, Note_on_c, 0, 70, 114
1, 25284, Note_off_c, 0, 70, 114
1, 25287, Note_on_c, 0, 72, 114
1, 25385, Note_off_c, 0, 72, 114
1, 25398, Note_on_c, 0, 69, 100
1, 25564, Note_off_c, 0, 69, 100
1, 25654, Note_on_c, 0, 62, 90
1, 25736, Note_off_c, 0, 62, 90
1, 25794, Note_on_c, 0, 66, 102
1, 25868, Note_off_c, 0, 66, 102
1, 25875, Note_on_c, 0, 69, 111
1, 25966, Note_off_c, 0, 69, 111
1, 25989, Note_on_c, 0, 66, 97
1, 26034, Note_off_c, 0, 66, 97
1, 26048, Note_on_c, 0, 69, 108
1, 26163, Note_off_c, 0, 69, 108
1, 26180, Note_on_c, 0, 66, 98
1, 26241, Note_off_c, 0, 66, 98
1, 26243, Note_on_c, 0, 67, 106
1, 26363, Note_off_c, 0, 67, 106
1, 26397, Note_on_c, 0, 62, 95
1, 26488, Note_off_c, 0, 62, 95
1, 26553, Note_on_c, 0, 66, 95
1, 26759, Note_off_c, 0, 66, 95
1, 27218, Note_on_c, 0, 62, 98
1, 27315, Note_off_c, 0, 62, 98
1, 27326, Note_on_c, 0, 62, 105
1, 27410, Note_off_c, 0, 62, 105
1, 27428, Note_on_c, 0, 66, 118
1, 27510, Note_off_c, 0, 66, 118
1, 27524, Note_on_c, 0, 66, 117
1, 27573, Note_off_c, 0, 66, 117
1, 27573, Note_on_c, 0, 67, 113
1, 27597, Note_off_c, 0, 67, 113
1, 27610, Note_on_c, 0, 67, 117
1, 27708, Note_off_c, 0, 67, 117
1, 27797, Note_on_c, 0, 69, 119
1, 27925, Note_off_c, 0, 69, 119
1, 27936, Note_on_c, 0, 70, 111
1, 28050, Note_off_c, 0, 70, 111
1, 28097, Note_on_c, 0, 70, 109
1, 28212, Note_off_c, 0, 70, 109
1, 28281, Note_on_c, 0, 69, 111
1, 28412, Note_off_c, 0, 69, 111
1, 28471, Note_on_c, 0, 67, 100
1, 28746, Note_off_c, 0, 67, 100
1, 28882, Note_on_c, 0, 62, 101
1, 28922, Note_off_c, 0, 62, 101
1, 28960, Note_on_c, 0, 66, 98
1, 29067, Note_off_c, 0, 66, 98
1, 29143, Note_on_c, 0, 66, 101
1, 29266, Note_off_c, 0, 66, 101
1, 29338, Note_on_c, 0, 67, 106
1, 29452, Note_off_c, 0, 67, 106
1, 29454, Note_on_c, 0, 69, 107
1, 29547, Note_off_c, 0, 69, 107
1, 30278, Note_on_c, 0, 62, 98
1, 30341, Note_off_c, 0, 62, 98
1, 30356, Note_on_c, 0, 66, 110
1, 30446, Note_off_c, 0, 66, 110
1, 30456, Note_on_c, 0, 67, 118
1, 30554, Note_off_c, 0, 67, 118
1, 30560, Note_on_c, 0, 69, 114
1, 30651, Note_off_c, 0, 69, 114
1, 30665, Note_on_c, 0, 76, 120
1, 30712, Note_off_c, 0, 76, 120
1, 30712, Note_on_c, 0, 78, 124
1, 30908, Note_off_c, 0, 78, 124
1, 30930, Note_on_c, 0, 74, 110
1, 31086, Note_off_c, 0, 74, 110
1, 31303, Note_on_c, 0, 68, 94
1, 31326, Note_off_c, 0, 68, 94
1, 31329, Note_on_c, 0, 70, 100
1, 31348, Note_off_c, 0, 70, 100
1, 31355, Note_on_c, 0, 71, 95
1, 31449, Note_off_c, 0, 71, 95
1, 31497, Note_on_c, 0, 69, 100
1, 31520, Note_off_c, 0, 69, 100
1, 31522, Note_on_c, 0, 70, 104
1, 31535, Note_off_c, 0, 70, 104
1, 31535, Note_on_c, 0, 71, 103
1, 31661, Note_off_c, 0, 71, 103
1, 31680, Note_on_c, 0, 69, 110
1, 31795, Note_off_c, 0, 69, 110
1, 31889, Note_on_c, 0, 62, 93
1, 31971, Note_off_c, 0, 62, 93
1, 31984, Note_on_c, 0, 62, 94
1, 32060, Note_off_c, 0, 62, 94
1, 32060, Note_on_c, 0, 65, 96
1, 32092, Note_off_c, 0, 65, 96
1, 32095, Note_on_c, 0, 66, 99
1, 32168, Note_off_c, 0, 66, 99
1, 32189, Note_on_c, 0, 69, 104
1, 32227, Note_off_c, 0, 69, 104
1, 32229, Note_on_c, 0, 70, 103
1, 32252, Note_off_c, 0, 70, 103
1, 32257, Note_on_c, 0, 71, 107
1, 32404, Note_off_c, 0, 71, 107
1, 32444, Note_on_c, 0, 69, 114
1, 32594, Note_off_c, 0, 69, 114
1, 32852, Note_on_c, 0, 64, 102
1, 32888, Note_off_c, 0, 64, 102
1, 32899, Note_on_c, 0, 66, 105
1, 32973, Note_off_c, 0, 66, 105
1, 33039, Note_on_c, 0, 65, 100
1, 33073, Note_off_c, 0, 65, 100
1, 33073, Note_on_c, 0, 66, 103
1, 33208, Note_off_c, 0, 66, 103
1, 33230, Note_on_c, 0, 62, 94
1, 33308, Note_on_c, 0, 61, 88
1, 33308, Note_off_c, 0, 62, 94
1, 33390, Note_off_c, 0, 61, 88
1, 34164, Note_on_c, 0, 77, 116
1, 34203, Note_off_c, 0, 77, 116
1, 34210, Note_on_c, 0, 78, 121
1, 34290, Note_off_c, 0, 78, 121
1, 34306, Note_on_c, 0, 77, 118
1, 34393, Note_off_c, 0, 77, 118
1, 34394, Note_on_c, 0, 78, 116
1, 34530, Note_off_c, 0, 78, 116
1, 34546, Note_on_c, 0, 76, 107
1, 34581, Note_off_c, 0, 76, 107
1, 34586, Note_on_c, 0, 74, 105
1, 34694, Note_off_c, 0, 74, 105
1, 34705, Note_on_c, 0, 70, 110
1, 34880, Note_off_c, 0, 70, 110
1, 34909, Note_on_c, 0, 69, 107
1, 35012, Note_off_c, 0, 69, 107
1, 35046, Note_on_c, 0, 65, 103
1, 35109, Note_off_c, 0, 65, 103
1, 35109, Note_on_c, 0, 66, 98
1, 35182, Note_off_c, 0, 66, 98
1, 35188, Note_on_c, 0, 65, 94
1, 35273, Note_off_c, 0, 65, 94
1, 35287, Note_on_c, 0, 63, 99
1, 35317, Note_off_c, 0, 63, 99
1, 35319, Note_on_c, 0, 64, 94
1, 35399, Note_off_c, 0, 64, 94
1, 35430, Note_on_c, 0, 62, 86
1, 35662, Note_off_c, 0, 62, 86
1, 36029, Note_on_c, 0, 71, 119
1, 36085, Note_off_c, 0, 71, 119
1, 36085, Note_on_c, 0, 72, 117
1, 36571, Note_off_c, 0, 72, 117
1, 36597, Note_on_c, 0, 69, 96
1, 36640, Note_off_c, 0, 69, 96
1, 36655, Note_on_c, 0, 74, 108
1, 36765, Note_off_c, 0, 74, 108
1, 36770, Note_on_c, 0, 69, 108
1, 36867, Note_off_c, 0, 69, 108
1, 37326, Note_on_c, 0, 68, 107
1, 37389, Note_off_c, 0, 68, 107
1, 37425, Note_on_c, 0, 72, 115
1, 37532, Note_off_c, 0, 72, 115
1, 37596, Note_on_c, 0, 71, 112
1, 37767, Note_off_c, 0, 71, 112
1, 37788, Note_on_c, 0, 69, 101
1, 37967, Note_off_c, 0, 69, 101
1, 37973, Note_on_c, 0, 66, 101
1, 38104, Note_off_c, 0, 66, 101
1, 38114, Note_on_c, 0, 62, 91
1, 38204, Note_off_c, 0, 62, 91
1, 38364, Note_on_c, 0, 66, 90
1, 38449, Note_off_c, 0, 66, 90
1, 38477, Note_on_c, 0, 69, 94
1, 38753, Note_off_c, 0, 69, 94
1, 39615, Note_on_c, 0, 65, 108
1, 39717, Note_off_c, 0, 65, 108
1, 39735, Note_on_c, 0, 66, 90
1, 39805, Note_off_c, 0, 66, 90
1, 39967, Note_on_c, 0, 65, 106
1, 40128, Note_off_c, 0, 65, 106
1, 40140, Note_on_c, 0, 66, 101
1, 40190, Note_off_c, 0, 66, 101
1, 40215, Note_on_c, 0, 65, 112
1, 40373, Note_off_c, 0, 65, 112
1, 40373, Note_on_c, 0, 66, 94
1, 40423, Note_off_c, 0, 66, 94
1, 40428, Note_on_c, 0, 65, 102
1, 40569, Note_off_c, 0, 65, 102
1, 40598, Note_on_c, 0, 66, 78
1, 40637, Note_off_c, 0, 66, 78
1, 40683, Note_on_c, 0, 65, 99
1, 41612, Note_off_c, 0, 65, 99
1, 41630, Note_on_c, 0, 67, 106
1, 41735, Note_off_c, 0, 67, 106
1, 41742, Note_on_c, 0, 69, 99
1, 41875, Note_off_c, 0, 69, 99
1, 41879, Note_on_c, 0, 62, 89
1, 42155, Note_off_c, 0, 62, 89
1, 42224, Note_on_c, 0, 65, 87
1, 42255, Note_off_c, 0, 65, 87
1, 42270, Note_on_c, 0, 66, 107
1, 42368, Note_off_c, 0, 66, 107
1, 43000, Note_on_c, 0, 66, 123
1, 43059, Note_off_c, 0, 66, 123
1, 43062, Note_on_c, 0, 67, 118
1, 43155, Note_off_c, 0, 67, 118
1, 43182, Note_on_c, 0, 65, 107
1, 43293, Note_off_c, 0, 65, 107
1, 43300, Note_on_c, 0, 66, 114
1, 43434, Note_off_c, 0, 66, 114
1, 43441, Note_on_c, 0, 67, 110
1, 43915, Note_off_c, 0, 67, 110
1, 43933, Note_on_c, 0, 68, 113
1, 44002, Note_off_c, 0, 68, 113
1, 44013, Note_on_c, 0, 69, 111
1, 44145, Note_off_c, 0, 69, 111
1, 44165, Note_on_c, 0, 62, 87
1, 44422, Note_off_c, 0, 62, 87
1, 44498, Note_on_c, 0, 65, 106
1, 44528, Note_off_c, 0, 65, 106
1, 44531, Note_on_c, 0, 66, 106
1, 44641, Note_off_c, 0, 66, 106
1, 45159, Note_on_c, 0, 62, 100
1, 45254, Note_off_c, 0, 62, 100
1, 45261, Note_on_c, 0, 62, 103
1, 45347, Note_off_c, 0, 62, 103
1, 45353, Note_on_c, 0, 65, 106
1, 45410, Note_on_c, 0, 66, 108
1, 45410, Note_off_c, 0, 65, 106
1, 45442, Note_off_c, 0, 66, 108
1, 45451, Note_on_c, 0, 67, 113
1, 45528, Note_off_c, 0, 67, 113
1, 45535, Note_on_c, 0, 69, 119
1, 45619, Note_off_c, 0, 69, 119
1, 45637, Note_on_c, 0, 69, 111
1, 45717, Note_off_c, 0, 69, 111
1, 45720, Note_on_c, 0, 70, 115
1, 45906, Note_off_c, 0, 70, 115
1, 45917, Note_on_c, 0, 69, 114
1, 46012, Note_off_c, 0, 69, 114
1, 46036, Note_on_c, 0, 67, 97
1, 46270, Note_off_c, 0, 67, 97
1, 46598, Note_on_c, 0, 75, 116
1, 46672, Note_off_c, 0, 75, 116
1, 46672, Note_on_c, 0, 76, 122
1, 47170, Note_off_c, 0, 76, 122
1, 47179, Note_on_c, 0, 78, 120
1, 47261, Note_off_c, 0, 78, 120
1, 47270, Note_on_c, 0, 76, 103
1, 47520, Note_off_c, 0, 76, 103
1, 47539, Note_on_c, 0, 74, 84
1, 47764, Note_off_c, 0, 74, 84
1, 48824, Note_on_c, 0, 75, 115
1, 48915, Note_off_c, 0, 75, 115
1, 48916, Note_on_c, 0, 74, 95
1, 48964, Note_off_c, 0, 74, 95
1, 48973, Note_on_c, 0, 76, 107
1, 49051, Note_off_c, 0, 76, 107
1, 49082, Note_on_c, 0, 78, 114
1, 49147, Note_off_c, 0, 78, 114
1, 49184, Note_on_c, 0, 74, 93
1, 49240, Note_off_c, 0, 74, 93
1, 49361, Note_on_c, 0, 74, 101
1, 49405, Note_off_c, 0, 74, 101
1, 49563, Note_on_c, 0, 71, 90
1, 49623, Note_off_c, 0, 71, 90
1, 49737, Note_on_c, 0, 71, 95
1, 49794, Note_off_c, 0, 71, 95
1, 49925, Note_on_c, 0, 69, 97
1, 50064, Note_off_c, 0, 69, 97
1, 50344, Note_on_c, 0, 66, 89
1, 50396, Note_off_c, 0, 66, 89
1, 50510, Note_on_c, 0, 66, 96
1, 50566, Note_off_c, 0, 66, 96
1, 50705, Note_on_c, 0, 62, 90
1, 50779, Note_off_c, 0, 62, 90
1, 50864, Note_on_c, 0, 62, 94
1, 50954, Note_off_c, 0, 62, 94
1, 51072, Note_on_c, 0, 71, 94
1, 51153, Note_off_c, 0, 71, 94
1, 51252, Note_on_c, 0, 71, 103
1, 51318, Note_off_c, 0, 71, 103
1, 51462, Note_on_c, 0, 69, 100
1, 51552, Note_off_c, 0, 69, 100
1, 51651, Note_on_c, 0, 77, 121
1, 51682, Note_off_c, 0, 77, 121
1, 51682, Note_on_c, 0, 78, 119
1, 51763, Note_off_c, 0, 78, 119
1, 51832, Note_on_c, 0, 77, 117
1, 51959, Note_off_c, 0, 77, 117
1, 52012, Note_on_c, 0, 75, 117
1, 52096, Note_off_c, 0, 75, 117
1, 52237, Note_on_c, 0, 74, 104
1, 52470, Note_off_c, 0, 74, 104
1, 52536, Note_on_c, 0, 69, 91
1, 52689, Note_off_c, 0, 69, 91
1, 53521, Note_on_c, 0, 76, 127
1, 53580, Note_off_c, 0, 76, 127
1, 53584, Note_on_c, 0, 77, 126
1, 53682, Note_off_c, 0, 77, 126
1, 53693, Note_on_c, 0, 74, 87
1, 53903, Note_off_c, 0, 74, 87
1, 53929, Note_on_c, 0, 77, 119
1, 53961, Note_off_c, 0, 77, 119
1, 53964, Note_on_c, 0, 78, 116
1, 54058, Note_off_c, 0, 78, 116
1, 54058, Note_on_c, 0, 76, 105
1, 54077, Note_off_c, 0, 76, 105
1, 54082, Note_on_c, 0, 74, 85
1, 54250, Note_off_c, 0, 74, 85
1, 54256, Note_on_c, 0, 77, 85
1, 54283, Note_off_c, 0, 77, 85
1, 54309, Note_on_c, 0, 79, 113
1, 54393, Note_off_c, 0, 79, 113
1, 54491, Note_on_c, 0, 78, 112
1, 54596, Note_off_c, 0, 78, 112
1, 54596, Note_on_c, 0, 76, 93
1, 54617, Note_off_c, 0, 76, 93
1, 54618, Note_on_c, 0, 74, 99
1, 54669, Note_off_c, 0, 74, 99
1, 55190, Note_on_c, 0, 70, 122
1, 55238, Note_off_c, 0, 70, 122
1, 55240, Note_on_c, 0, 71, 119
1, 55429, Note_off_c, 0, 71, 119
1, 55432, Note_on_c, 0, 76, 119
1, 55523, Note_off_c, 0, 76, 119
1, 55591, Note_on_c, 0, 74, 96
1, 55798, Note_off_c, 0, 74, 96
1, 55837, Note_on_c, 0, 71, 103
1, 55927, Note_off_c, 0, 71, 103
1, 55963, Note_on_c, 0, 69, 102
1, 56045, Note_off_c, 0, 69, 102
1, 56122, Note_on_c, 0, 67, 106
1, 56217, Note_off_c, 0, 67, 106
1, 56247, Note_on_c, 0, 62, 85
1, 56286, Note_off_c, 0, 62, 85
1, 56404, Note_on_c, 0, 75, 113
1, 56480, Note_off_c, 0, 75, 113
1, 56483, Note_on_c, 0, 76, 120
1, 56581, Note_off_c, 0, 76, 120
1, 56581, Note_on_c, 0, 78, 118
1, 56692, Note_off_c, 0, 78, 118
1, 56699, Note_on_c, 0, 75, 114
1, 56758, Note_off_c, 0, 75, 114
1, 56763, Note_on_c, 0, 74, 106
1, 56818, Note_off_c, 0, 74, 106
1, 56841, Note_on_c, 0, 72, 99
1, 56930, Note_off_c, 0, 72, 99
1, 56930, Note_on_c, 0, 71, 104
1, 56985, Note_off_c, 0, 71, 104
1, 57016, Note_on_c, 0, 70, 92
1, 57058, Note_off_c, 0, 70, 92
1, 57073, Note_on_c, 0, 67, 102
1, 57149, Note_off_c, 0, 67, 102
1, 57154, Note_on_c, 0, 69, 102
1, 57259, Note_off_c, 0, 69, 102
1, 57288, Note_on_c, 0, 77, 107
1, 57307, Note_off_c, 0, 77, 107
1, 57309, Note_on_c, 0, 78, 109
1, 57324, Note_off_c, 0, 78, 109
1, 57324, Note_on_c, 0, 79, 111
1, 57429, Note_off_c, 0, 79, 111
1, 57826, Note_on_c, 0, 61, 114
1, 57857, Note_off_c, 0, 61, 114
1, 57857, Note_on_c, 0, 62, 114
1, 57879, Note_off_c, 0, 62, 114
1, 57880, Note_on_c, 0, 63, 109
1, 57898, Note_off_c, 0, 63, 109
1, 57899, Note_on_c, 0, 64, 110
1, 58182, Note_off_c, 0, 64, 110
1, 58191, Note_on_c, 0, 69, 119
1, 58265, Note_off_c, 0, 69, 119
1, 58270, Note_on_c, 0, 67, 110
1, 58359, Note_off_c, 0, 67, 110
1, 58388, Note_on_c, 0, 62, 83
1, 58569, Note_off_c, 0, 62, 83
1, 59207, Note_on_c, 0, 62, 91
1, 59281, Note_off_c, 0, 62, 91
1, 59312, Note_on_c, 0, 67, 112
1, 59397, Note_off_c, 0, 67, 112
1, 59408, Note_on_c, 0, 69, 109
1, 59464, Note_off_c, 0, 69, 109
1, 59464, Note_on_c, 0, 71, 114
1, 59559, Note_off_c, 0, 71, 114
1, 59564, Note_on_c, 0, 74, 119
1, 59661, Note_off_c, 0, 74, 119
1, 59713, Note_on_c, 0, 74, 109
1, 59965, Note_off_c, 0, 74, 109
1, 59978, Note_on_c, 0, 71, 108
1, 60080, Note_off_c, 0, 71, 108
1, 60100, Note_on_c, 0, 67, 102
1, 60169, Note_off_c, 0, 67, 102
1, 60174, Note_on_c, 0, 69, 108
1, 60263, Note_off_c, 0, 69, 108
1, 60291, Note_on_c, 0, 69, 104
1, 60386, Note_off_c, 0, 69, 104
1, 60455, Note_on_c, 0, 69, 96
1, 60679, Note_off_c, 0, 69, 96
1, 60729, Note_on_c, 0, 62, 91
1, 60803, Note_off_c, 0, 62, 91
1, 60844, Note_on_c, 0, 66, 101
1, 60903, Note_off_c, 0, 66, 101
1, 60919, Note_on_c, 0, 67, 102
1, 60999, Note_off_c, 0, 67, 102
1, 61034, Note_on_c, 0, 69, 93
1, 61166, Note_off_c, 0, 69, 93
1, 61203, Note_on_c, 0, 69, 94
1, 61453, Note_off_c, 0, 69, 94
1, 61482, Note_on_c, 0, 67, 105
1, 61579, Note_off_c, 0, 67, 105
1, 61687, Note_on_c, 0, 66, 102
1, 61802, Note_off_c, 0, 66, 102
1, 61858, Note_on_c, 0, 62, 77
1, 61927, Note_off_c, 0, 62, 77
1, 61953, Note_on_c, 0, 64, 98
1, 62046, Note_off_c, 0, 64, 98
1, 62524, Note_on_c, 0, 75, 119
1, 62550, Note_off_c, 0, 75, 119
1, 62551, Note_on_c, 0, 76, 120
1, 62973, Note_off_c, 0, 76, 120
1, 62980, Note_on_c, 0, 74, 98
1, 63081, Note_off_c, 0, 74, 98
1, 63081, Note_on_c, 0, 72, 91
1, 63146, Note_off_c, 0, 72, 91
1, 63149, Note_on_c, 0, 74, 104
1, 63249, Note_off_c, 0, 74, 104
1, 63267, Note_on_c, 0, 77, 110
1, 63371, Note_off_c, 0, 77, 110
1, 64240, Note_on_c, 0, 71, 102
1, 64307, Note_off_c, 0, 71, 102
1, 64314, Note_on_c, 0, 74, 103
1, 64386, Note_off_c, 0, 74, 103
1, 64397, Note_on_c, 0, 77, 110
1, 64481, Note_off_c, 0, 77, 110
1, 64490, Note_on_c, 0, 78, 118
1, 64592, Note_off_c, 0, 78, 118
1, 64621, Note_on_c, 0, 75, 119
1, 64706, Note_off_c, 0, 75, 119
1, 64720, Note_on_c, 0, 76, 113
1, 64835, Note_off_c, 0, 76, 113
1, 64863, Note_on_c, 0, 74, 111
1, 64984, Note_off_c, 0, 74, 111
1, 65000, Note_on_c, 0, 71, 111
1, 65056, Note_off_c, 0, 71, 111
1, 65057, Note_on_c, 0, 72, 107
1, 65223, Note_off_c, 0, 72, 107
1, 65223, Note_on_c, 0, 70, 105
1, 65327, Note_off_c, 0, 70, 105
1, 65368, Note_on_c, 0, 69, 100
1, 65577, Note_off_c, 0, 69, 100
1, 65591, Note_on_c, 0, 67, 103
1, 65691, Note_off_c, 0, 67, 103
1, 65735, Note_on_c, 0, 66, 96
1, 65923, Note_on_c, 0, 67, 101
1, 65923, Note_off_c, 0, 66, 96
1, 65993, Note_off_c, 0, 67, 101
1, 65994, Note_on_c, 0, 69, 100
1, 66106, Note_off_c, 0, 69, 100
1, 66137, Note_on_c, 0, 69, 113
1, 66189, Note_off_c, 0, 69, 113
1, 66196, Note_on_c, 0, 70, 108
1, 66350, Note_off_c, 0, 70, 108
1, 66350, Note_on_c, 0, 69, 107
1, 66475, Note_off_c, 0, 69, 107
1, 66488, Note_on_c, 0, 67, 98
1, 66725, Note_off_c, 0, 67, 98
1, 67433, Note_on_c, 0, 68, 100
1, 67455, Note_off_c, 0, 68, 100
1, 67460, Note_on_c, 0, 70, 114
1, 67490, Note_off_c, 0, 70, 114
1, 67495, Note_on_c, 0, 71, 116
1, 67640, Note_off_c, 0, 71, 116
1, 67642, Note_on_c, 0, 74, 107
1, 67892, Note_off_c, 0, 74, 107
1, 68392, Note_on_c, 0, 68, 109
1, 68430, Note_off_c, 0, 68, 109
1, 68432, Note_on_c, 0, 69, 111
1, 68471, Note_off_c, 0, 69, 111
1, 68471, Note_on_c, 0, 71, 115
1, 68570, Note_off_c, 0, 71, 115
1, 68584, Note_on_c, 0, 71, 110
1, 68674, Note_off_c, 0, 71, 110
1, 68688, Note_on_c, 0, 74, 113
1, 68815, Note_off_c, 0, 74, 113
1, 68818, Note_on_c, 0, 70, 95
1, 68890, Note_off_c, 0, 70, 95
1, 68897, Note_on_c, 0, 71, 104
1, 68999, Note_off_c, 0, 71, 104
1, 69005, Note_on_c, 0, 71, 102
1, 69074, Note_off_c, 0, 71, 102
1, 69077, Note_on_c, 0, 74, 111
1, 69184, Note_off_c, 0, 74, 111
1, 69191, Note_on_c, 0, 70, 94
1, 69248, Note_off_c, 0, 70, 94
1, 69265, Note_on_c, 0, 70, 91
1, 69350, Note_off_c, 0, 70, 91
1, 69445, Note_on_c, 0, 78, 119
1, 69560, Note_off_c, 0, 78, 119
1, 69571, Note_on_c, 0, 74, 106
1, 69666, Note_off_c, 0, 74, 106
1, 69780, Note_on_c, 0, 62, 88
1, 70083, Note_off_c, 0, 62, 88
1, 70149, Note_on_c, 0, 62, 90
1, 70215, Note_off_c, 0, 62, 90
1, 70237, Note_on_c, 0, 66, 109
1, 70340, Note_off_c, 0, 66, 109
1, 70431, Note_on_c, 0, 62, 84
1, 70585, Note_off_c, 0, 62, 84
1, 70628, Note_on_c, 0, 62, 88
1, 70794, Note_off_c, 0, 62, 88
1, 70829, Note_on_c, 0, 62, 89
1, 70927, Note_off_c, 0, 62, 89
1, 70980, Note_on_c, 0, 69, 112
1, 71067, Note_off_c, 0, 69, 112
1, 71124, Note_on_c, 0, 67, 98
1, 71242, Note_off_c, 0, 67, 98
1, 72130, Note_on_c, 0, 73, 115
1, 72161, Note_on_c, 0, 75, 125
1, 72161, Note_off_c, 0, 73, 115
1, 72190, Note_off_c, 0, 75, 125
1, 72213, Note_on_c, 0, 77, 9
1, 72259, Note_off_c, 0, 77, 9
1, 72260, Note_on_c, 0, 78, 9
1, 72907, Note_off_c, 0, 78, 9
1, 72914, Note_on_c, 0, 76, 108
1, 72951, Note_off_c, 0, 76, 108
1, 72971, Note_on_c, 0, 74, 103
1, 73036, Note_off_c, 0, 74, 103
1, 73049, Note_on_c, 0, 71, 97
1, 73097, Note_off_c, 0, 71, 97
1, 73102, Note_on_c, 0, 74, 100
1, 73335, Note_off_c, 0, 74, 100
1, 73961, Note_on_c, 0, 70, 99
1, 74016, Note_off_c, 0, 70, 99
1, 74044, Note_on_c, 0, 74, 107
1, 74118, Note_off_c, 0, 74, 107
1, 74124, Note_on_c, 0, 77, 111
1, 74264, Note_off_c, 0, 77, 111
1, 74283, Note_on_c, 0, 77, 118
1, 74363, Note_off_c, 0, 77, 118
1, 74368, Note_on_c, 0, 78, 118
1, 74439, Note_off_c, 0, 78, 118
1, 74441, Note_on_c, 0, 79, 123
1, 74908, Note_off_c, 0, 79, 123
1, 74926, Note_on_c, 0, 80, 116
1, 75049, Note_off_c, 0, 80, 116
1, 75976, Note_on_c, 0, 71, 110
1, 76074, Note_off_c, 0, 71, 110
1, 76105, Note_on_c, 0, 74, 104
1, 76168, Note_off_c, 0, 74, 104
1, 76169, Note_on_c, 0, 77, 114
1, 76266, Note_off_c, 0, 77, 114
1, 76292, Note_on_c, 0, 77, 121
1, 76426, Note_off_c, 0, 77, 121
1, 76437, Note_on_c, 0, 76, 112
1, 76468, Note_off_c, 0, 76, 112
1, 76471, Note_on_c, 0, 74, 101
1, 76547, Note_off_c, 0, 74, 101
1, 76558, Note_on_c, 0, 76, 121
1, 76671, Note_off_c, 0, 76, 121
1, 76674, Note_on_c, 0, 74, 109
1, 76741, Note_off_c, 0, 74, 109
1, 76746, Note_on_c, 0, 71, 100
1, 76826, Note_off_c, 0, 71, 100
1, 76855, Note_on_c, 0, 67, 105
1, 76927, Note_off_c, 0, 67, 105
1, 76927, Note_on_c, 0, 70, 106
1, 77025, Note_off_c, 0, 70, 106
1, 77082, Note_on_c, 0, 74, 99
1, 77173, Note_off_c, 0, 74, 99
1, 77801, Note_on_c, 0, 76, 124
1, 77983, Note_off_c, 0, 76, 124
1, 78025, Note_on_c, 0, 71, 99
1, 78060, Note_off_c, 0, 71, 99
1, 78079, Note_on_c, 0, 76, 119
1, 78191, Note_off_c, 0, 76, 119
1, 78192, Note_on_c, 0, 74, 100
1, 78241, Note_off_c, 0, 74, 100
1, 78241, Note_on_c, 0, 71, 101
1, 78306, Note_off_c, 0, 71, 101
1, 78312, Note_on_c, 0, 67, 111
1, 78376, Note_off_c, 0, 67, 111
1, 78397, Note_on_c, 0, 64, 98
1, 78450, Note_off_c, 0, 64, 98
1, 78459, Note_on_c, 0, 71, 109
1, 78616, Note_off_c, 0, 71, 109
1, 78665, Note_on_c, 0, 74, 107
1, 78833, Note_off_c, 0, 74, 107
1, 78856, Note_on_c, 0, 71, 106
1, 78943, Note_off_c, 0, 71, 106
1, 78949, Note_on_c, 0, 69, 108
1, 79025, Note_off_c, 0, 69, 108
1, 79039, Note_on_c, 0, 67, 110
1, 79129, Note_off_c, 0, 67, 110
1, 79187, Note_on_c, 0, 61, 87
1, 79223, Note_off_c, 0, 61, 87
1, 79235, Note_on_c, 0, 69, 104
1, 79337, Note_off_c, 0, 69, 104
1, 79343, Note_on_c, 0, 66, 105
1, 79413, Note_off_c, 0, 66, 105
1, 79427, Note_on_c, 0, 62, 94
1, 79560, Note_off_c, 0, 62, 94
1, 79612, Note_on_c, 0, 64, 103
1, 79705, Note_off_c, 0, 64, 103
1, 79708, Note_on_c, 0, 65, 99
1, 79744, Note_off_c, 0, 65, 99
1, 79766, Note_on_c, 0, 62, 95
1, 79894, Note_off_c, 0, 62, 95
1, 79920, Note_on_c, 0, 59, 93
1, 79964, Note_off_c, 0, 59, 93
1, 79978, Note_on_c, 0, 62, 88
1, 80142, Note_off_c, 0, 62, 88
1, 81083, Note_on_c, 0, 70, 118
1, 81153, Note_off_c, 0, 70, 118
1, 81166, Note_on_c, 0, 71, 92
1, 82856, Note_off_c, 0, 71, 92
1, 82882, Note_on_c, 0, 70, 95
1, 82949, Note_off_c, 0, 70, 95
1, 82954, Note_on_c, 0, 69, 106
1, 82987, Note_off_c, 0, 69, 106
1, 82992, Note_on_c, 0, 68, 102
1, 83040, Note_off_c, 0, 68, 102
1, 83045, Note_on_c, 0, 71, 87
1, 83440, Note_off_c, 0, 71, 87
1, 83650, Note_on_c, 0, 57, 94
1, 83739, Note_off_c, 0, 57, 94
1, 83778, Note_on_c, 0, 57, 90
1, 83955, Note_off_c, 0, 57, 90
1, 84008, Note_on_c, 0, 60, 93
1, 84120, Note_off_c, 0, 60, 93
1, 84144, Note_on_c, 0, 57, 92
1, 84208, Note_off_c, 0, 57, 92
1, 84218, Note_on_c, 0, 62, 99
1, 84309, Note_off_c, 0, 62, 99
1, 84328, Note_on_c, 0, 66, 108
1, 84455, Note_off_c, 0, 66, 108
1, 84533, Note_on_c, 0, 62, 91
1, 84580, Note_off_c, 0, 62, 91
1, 84595, Note_on_c, 0, 67, 112
1, 84703, Note_off_c, 0, 67, 112
1, 84771, Note_on_c, 0, 67, 107
1, 84898, Note_off_c, 0, 67, 107
1, 84955, Note_on_c, 0, 69, 109
1, 85099, Note_off_c, 0, 69, 109
1, 85162, Note_on_c, 0, 74, 109
1, 85280, Note_off_c, 0, 74, 109
1, 85296, Note_on_c, 0, 70, 110
1, 85378, Note_off_c, 0, 70, 110
1, 85383, Note_on_c, 0, 71, 99
1, 85595, Note_off_c, 0, 71, 99
1, 85645, Note_on_c, 0, 69, 87
1, 85834, Note_off_c, 0, 69, 87
1, 85834, End_track
0, 0, End_of_file
