0, 0, Header, 1, 1, 192
1, 0, Start_track
1, 0, Title_t, "Melody"
1, 0, Tempo, 231660
1, 0, Time_signature, 1, 2, 24, 8
1, 3942, Note_on_c, 0, 66, 109
1, 4017, Note_off_c, 0, 66, 109
1, 4069, Note_on_c, 0, 69, 118
1, 4159, Note_off_c, 0, 69, 118
1, 4169, Note_on_c, 0, 70, 119
1, 4230, Note_off_c, 0, 70, 119
1, 4243, Note_on_c, 0, 71, 117
1, 4309, Note_off_c, 0, 71, 117
1, 4321, Note_on_c, 0, 72, 122
1, 4504, Note_off_c, 0, 72, 122
1, 4506, Note_on_c, 0, 69, 105
1, 4565, Note_off_c, 0, 69, 105
1, 4575, Note_on_c, 0, 70, 114
1, 4661, Note_off_c, 0, 70, 114
1, 4673, Note_on_c, 0, 68, 113
1, 4759, Note_off_c, 0, 68, 113
1, 4770, Note_on_c, 0, 69, 115
1, 4873, Note_off_c, 0, 69, 115
1, 4886, Note_on_c, 0, 68, 104
1, 4970, Note_off_c, 0, 68, 104
1, 4982, Note_on_c, 0, 67, 93
1, 5086, Note_off_c, 0, 67, 93
1, 5092, Note_on_c, 0, 66, 102
1, 5164, Note_off_c, 0, 66, 102
1, 5169, Note_on_c, 0, 65, 92
1, 5231, Note_off_c, 0, 65, 92
1, 5231, Note_on_c, 0, 64, 85
1, 5281, Note_off_c, 0, 64, 85
1, 5291, Note_on_c, 0, 63, 84
1, 5344, Note_off_c, 0, 63, 84
1, 5358, Note_on_c, 0, 65, 102
1, 5411, Note_off_c, 0, 65, 102
1, 5449, Note_on_c, 0, 62, 96
1, 5527, Note_off_c, 0, 62, 96
1, 5593, Note_on_c, 0, 66, 95
1, 5642, Note_off_c, 0, 66, 95
1, 5651, Note_on_c, 0, 66, 103
1, 5703, Note_off_c, 0, 66, 103
1, 5708, Note_on_c, 0, 65, 102
1, 5745, Note_off_c, 0, 65, 102
1, 6095, Note_on_c, 0, 66, 108
1, 6148, Note_off_c, 0, 66, 108
1, 6158, Note_on_c, 0, 66, 115
1, 6203, Note_off_c, 0, 66, 115
1, 6222, Note_on_c, 0, 67, 108
1, 6271, Note_off_c, 0, 67, 108
1, 6290, Note_on_c, 0, 70, 107
1, 6378, Note_off_c, 0, 70, 107
1, 6385, Note_on_c, 0, 68, 111
1, 6461, Note_off_c, 0, 68, 111
1, 6477, Note_on_c, 0, 69, 105
1, 6513, Note_off_c, 0, 69, 105
1, 6523, Note_on_c, 0, 67, 104
1, 6568, Note_off_c, 0, 67, 104
1, 6570, Note_on_c, 0, 68, 101
1, 6602, Note_off_c, 0, 68, 101
1, 6629, Note_on_c, 0, 65, 102
1, 6683, Note_off_c, 0, 65, 102
1, 6703, Note_on_c, 0, 62, 95
1, 6786, Note_off_c, 0, 62, 95
1, 6807, Note_on_c, 0, 58, 94
1, 6868, Note_off_c, 0, 58, 94
1, 6874, Note_on_c, 0, 62, 107
1, 6970, Note_off_c, 0, 62, 107
1, 7006, Note_on_c, 0, 65, 102
1, 7088, Note_off_c, 0, 65, 102
1, 7102, Note_on_c, 0, 62, 93
1, 7175, Note_off_c, 0, 62, 93
1, 7191, Note_on_c, 0, 58, 86
1, 7261, Note_off_c, 0, 58, 86
1, 7265, Note_on_c, 0, 63, 96
1, 7347, Note_off_c, 0, 63, 96
1, 7413, Note_on_c, 0, 68, 89
1, 7448, Note_off_c, 0, 68, 89
1, 7450, Note_on_c, 0, 70, 102
1, 7532, Note_off_c, 0, 70, 102
1, 7562, Note_on_c, 0, 74, 114
1, 7661, Note_off_c, 0, 74, 114
1, 7978, Note_on_c, 0, 72, 117
1, 8071, Note_off_c, 0, 72, 117
1, 8083, Note_on_c, 0, 74, 110
1, 8147, Note_off_c, 0, 74, 110
1, 8152, Note_on_c, 0, 72, 110
1, 8189, Note_off_c, 0, 72, 110
1, 8206, Note_on_c, 0, 70, 110
1, 8262, Note_off_c, 0, 70, 110
1, 8274, Note_on_c, 0, 68, 108
1, 8353, Note_off_c, 0, 68, 108
1, 8380, Note_on_c, 0, 70, 111
1, 8472, Note_off_c, 0, 70, 111
1, 8488, Note_on_c, 0, 65, 102
1, 8564, Note_off_c, 0, 65, 102
1, 8599, Note_on_c, 0, 62, 95
1, 8656, Note_off_c, 0, 62, 95
1, 8710, Note_on_c, 0, 58, 93
1, 8775, Note_off_c, 0, 58, 93
1, 8790, Note_on_c, 0, 67, 112
1, 8879, Note_off_c, 0, 67, 112
1, 8900, Note_on_c, 0, 62, 86
1, 8933, Note_off_c, 0, 62, 86
1, 8955, Note_on_c, 0, 65, 107
1, 9059, Note_off_c, 0, 65, 107
1, 9098, Note_on_c, 0, 62, 94
1, 9244, Note_off_c, 0, 62, 94
1, 9279, Note_on_c, 0, 62, 94
1, 9327, Note_off_c, 0, 62, 94
1, 9344, Note_on_c, 0, 58, 97
1, 9441, Note_off_c, 0, 58, 97
1, 9458, Note_on_c, 0, 55, 90
1, 9516, Note_off_c, 0, 55, 90
1, 9527, Note_on_c, 0, 60, 95
1, 9636, Note_off_c, 0, 60, 95
1, 9677, Note_on_c, 0, 58, 95
1, 9773, Note_off_c, 0, 58, 95
1, 10125, Note_on_c, 0, 62, 108
1, 10255, Note_off_c, 0, 62, 108
1, 10257, Note_on_c, 0, 63, 101
1, 10324, Note_off_c, 0, 63, 101
1, 10330, Note_on_c, 0, 65, 106
1, 10423, Note_off_c, 0, 65, 106
1, 10425, Note_on_c, 0, 67, 111
1, 10489, Note_off_c, 0, 67, 111
1, 10503, Note_on_c, 0, 69, 122
1, 10604, Note_off_c, 0, 69, 122
1, 10615, Note_on_c, 0, 70, 115
1, 10705, Note_off_c, 0, 70, 115
1, 10706, Note_on_c, 0, 71, 117
1, 10796, Note_off_c, 0, 71, 117
1, 10807, Note_on_c, 0, 72, 119
1, 10978, Note_off_c, 0, 72, 119
1, 10986, Note_on_c, 0, 69, 104
1, 11034, Note_off_c, 0, 69, 104
1, 11048, Note_on_c, 0, 67, 96
1, 11104, Note_off_c, 0, 67, 96
1, 11114, Note_on_c, 0, 70, 110
1, 11222, Note_off_c, 0, 70, 110
1, 11232, Note_on_c, 0, 65, 91
1, 11944, Note_off_c, 0, 65, 91
1, 12251, Note_on_c, 0, 65, 102
1, 12297, Note_off_c, 0, 65, 102
1, 12335, Note_on_c, 0, 63, 84
1, 12428, Note_off_c, 0, 63, 84
1, 12439, Note_on_c, 0, 64, 80
1, 12477, Note_off_c, 0, 64, 80
1, 12489, Note_on_c, 0, 65, 88
1, 12576, Note_off_c, 0, 65, 88
1, 12592, Note_on_c, 0, 63, 73
1, 12643, Note_off_c, 0, 63, 73
1, 12812, Note_on_c, 0, 64, 93
1, 12912, Note_off_c, 0, 64, 93
1, 12939, Note_on_c, 0, 64, 93
1, 13029, Note_off_c, 0, 64, 93
1, 13101, Note_on_c, 0, 65, 107
1, 13173, Note_off_c, 0, 65, 107
1, 13186, Note_on_c, 0, 62, 97
1, 13255, Note_off_c, 0, 62, 97
1, 13294, Note_on_c, 0, 63, 89
1, 13346, Note_off_c, 0, 63, 89
1, 13363, Note_on_c, 0, 74, 99
1, 13490, Note_off_c, 0, 74, 99
1, 13869, Note_on_c, 0, 72, 123
1, 13974, Note_off_c, 0, 72, 123
1, 13976, Note_on_c, 0, 70, 114
1, 14069, Note_off_c, 0, 70, 114
1, 14096, Note_on_c, 0, 69, 115
1, 14203, Note_off_c, 0, 69, 115
1, 14267, Note_on_c, 0, 70, 107
1, 14368, Note_off_c, 0, 70, 107
1, 14385, Note_on_c, 0, 68, 83
1, 14450, Note_off_c, 0, 68, 83
1, 14466, Note_on_c, 0, 69, 75
1, 14516, Note_off_c, 0, 69, 75
1, 14554, Note_on_c, 0, 70, 113
1, 14640, Note_off_c, 0, 70, 113
1, 14708, Note_on_c, 0, 74, 115
1, 14810, Note_off_c, 0, 74, 115
1, 14827, Note_on_c, 0, 72, 112
1, 14896, Note_off_c, 0, 72, 112
1, 14902, Note_on_c, 0, 70, 111
1, 15015, Note_off_c, 0, 70, 111
1, 15050, Note_on_c, 0, 72, 114
1, 15169, Note_off_c, 0, 72, 114
1, 15190, Note_on_c, 0, 70, 111
1, 15286, Note_off_c, 0, 70, 111
1, 15297, Note_on_c, 0, 69, 119
1, 15427, Note_off_c, 0, 69, 119
1, 16160, Note_on_c, 0, 70, 116
1, 16249, Note_off_c, 0, 70, 116
1, 16249, Note_on_c, 0, 71, 122
1, 16302, Note_off_c, 0, 71, 122
1, 16308, Note_on_c, 0, 70, 117
1, 16360, Note_off_c, 0, 70, 117
1, 16382, Note_on_c, 0, 64, 100
1, 16413, Note_off_c, 0, 64, 100
1, 16420, Note_on_c, 0, 63, 107
1, 16456, Note_off_c, 0, 63, 107
1, 16465, Note_on_c, 0, 60, 108
1, 16508, Note_off_c, 0, 60, 108
1, 16510, Note_on_c, 0, 70, 109
1, 16571, Note_off_c, 0, 70, 109
1, 16575, Note_on_c, 0, 71, 116
1, 16622, Note_off_c, 0, 71, 116
1, 16627, Note_on_c, 0, 70, 116
1, 16686, Note_off_c, 0, 70, 116
1, 16693, Note_on_c, 0, 69, 106
1, 16778, Note_off_c, 0, 69, 106
1, 16783, Note_on_c, 0, 67, 100
1, 16850, Note_off_c, 0, 67, 100
1, 16873, Note_on_c, 0, 70, 108
1, 16993, Note_off_c, 0, 70, 108
1, 17004, Note_on_c, 0, 74, 103
1, 17080, Note_off_c, 0, 74, 103
1, 17106, Note_on_c, 0, 67, 77
1, 17195, Note_off_c, 0, 67, 77
1, 17726, Note_on_c, 0, 71, 124
1, 17783, Note_off_c, 0, 71, 124
1, 17787, Note_on_c, 0, 72, 119
1, 17868, Note_off_c, 0, 72, 119
1, 17895, Note_on_c, 0, 75, 109
1, 17999, Note_off_c, 0, 75, 109
1, 18007, Note_on_c, 0, 78, 112
1, 18656, Note_off_c, 0, 78, 112
1, 18685, Note_on_c, 0, 75, 98
1, 18928, Note_off_c, 0, 75, 98
1, 18941, Note_on_c, 0, 71, 99
1, 18973, Note_off_c, 0, 71, 99
1, 18973, Note_on_c, 0, 67, 83
1, 19107, Note_off_c, 0, 67, 83
1, 19387, Note_on_c, 0, 72, 108
1, 19450, Note_off_c, 0, 72, 108
1, 19459, Note_on_c, 0, 73, 116
1, 19546, Note_off_c, 0, 73, 116
1, 19570, Note_on_c, 0, 69, 120
1, 19633, Note_off_c, 0, 69, 120
1, 19640, Note_on_c, 0, 70, 111
1, 19668, Note_off_c, 0, 70, 111
1, 19674, Note_on_c, 0, 71, 114
1, 19725, Note_off_c, 0, 71, 114
1, 19729, Note_on_c, 0, 72, 117
1, 19781, Note_off_c, 0, 72, 117
1, 19789, Note_on_c, 0, 74, 112
1, 19852, Note_off_c, 0, 74, 112
1, 19860, Note_on_c, 0, 72, 115
1, 19964, Note_off_c, 0, 72, 115
1, 19965, Note_on_c, 0, 70, 113
1, 20040, Note_off_c, 0, 70, 113
1, 20047, Note_on_c, 0, 70, 111
1, 20095, Note_off_c, 0, 70, 111
1, 20098, Note_on_c, 0, 69, 110
1, 20218, Note_off_c, 0, 69, 110
1, 20237, Note_on_c, 0, 67, 97
1, 20305, Note_off_c, 0, 67, 97
1, 20311, Note_on_c, 0, 70, 109
1, 20396, Note_off_c, 0, 70, 109
1, 20421, Note_on_c, 0, 65, 99
1, 20492, Note_off_c, 0, 65, 99
1, 20496, Note_on_c, 0, 62, 87
1, 20589, Note_off_c, 0, 62, 87
1, 20603, Note_on_c, 0, 65, 97
1, 20675, Note_off_c, 0, 65, 97
1, 20708, Note_on_c, 0, 77, 113
1, 20807, Note_off_c, 0, 77, 113
1, 20891, Note_on_c, 0, 65, 102
1, 20960, Note_off_c, 0, 65, 102
1, 20985, Note_on_c, 0, 63, 93
1, 21075, Note_off_c, 0, 63, 93
1, 21112, Note_on_c, 0, 66, 101
1, 21184, Note_off_c, 0, 66, 101
1, 21195, Note_on_c, 0, 67, 104
1, 21288, Note_off_c, 0, 67, 104
1, 21378, Note_on_c, 0, 74, 107
1, 21489, Note_off_c, 0, 74, 107
1, 21558, Note_on_c, 0, 75, 108
1, 21669, Note_off_c, 0, 75, 108
1, 21750, Note_on_c, 0, 74, 106
1, 21876, Note_off_c, 0, 74, 106
1, 21934, Note_on_c, 0, 72, 110
1, 21997, Note_off_c, 0, 72, 110
1, 22007, Note_on_c, 0, 69, 100
1, 22086, Note_off_c, 0, 69, 100
1, 22106, Note_on_c, 0, 67, 89
1, 22198, Note_off_c, 0, 67, 89
1, 22220, Note_on_c, 0, 79, 114
1, 22313, Note_off_c, 0, 79, 114
1, 22414, Note_on_c, 0, 67, 110
1, 22513, Note_off_c, 0, 67, 110
1, 22525, Note_on_c, 0, 66, 95
1, 22618, Note_off_c, 0, 66, 95
1, 22628, Note_on_c, 0, 67, 102
1, 22728, Note_off_c, 0, 67, 102
1, 22742, Note_on_c, 0, 70, 109
1, 22828, Note_off_c, 0, 70, 109
1, 22927, Note_on_c, 0, 69, 113
1, 23026, Note_off_c, 0, 69, 113
1, 23109, Note_on_c, 0, 72, 106
1, 23145, Note_off_c, 0, 72, 106
1, 23152, Note_on_c, 0, 79, 109
1, 23210, Note_off_c, 0, 79, 109
1, 24289, Note_on_c, 0, 77, 118
1, 25090, Note_off_c, 0, 77, 118
1, 25110, Note_on_c, 0, 74, 105
1, 25193, Note_off_c, 0, 74, 105
1, 25211, Note_on_c, 0, 70, 95
1, 25284, Note_off_c, 0, 70, 95
1, 25304, Note_on_c, 0, 75, 107
1, 25415, Note_off_c, 0, 75, 107
1, 25421, Note_on_c, 0, 77, 113
1, 25534, Note_off_c, 0, 77, 113
1, 25617, Note_on_c, 0, 74, 108
1, 25739, Note_off_c, 0, 74, 108
1, 25820, Note_on_c, 0, 70, 107
1, 25930, Note_off_c, 0, 70, 107
1, 25992, Note_on_c, 0, 72, 100
1, 26276, Note_off_c, 0, 72, 100
1, 26970, Note_on_c, 0, 78, 108
1, 27308, Note_off_c, 0, 78, 108
1, 27323, Note_on_c, 0, 74, 107
1, 27365, Note_off_c, 0, 74, 107
1, 27376, Note_on_c, 0, 74, 110
1, 27412, Note_off_c, 0, 74, 110
1, 27428, Note_on_c, 0, 70, 103
1, 27459, Note_off_c, 0, 70, 103
1, 27463, Note_on_c, 0, 67, 98
1, 27567, Note_off_c, 0, 67, 98
1, 27570, Note_on_c, 0, 70, 94
1, 27639, Note_off_c, 0, 70, 94
1, 27647, Note_on_c, 0, 72, 109
1, 27772, Note_off_c, 0, 72, 109
1, 28201, Note_on_c, 0, 75, 115
1, 28323, Note_off_c, 0, 75, 115
1, 28332, Note_on_c, 0, 74, 114
1, 28463, Note_off_c, 0, 74, 114
1, 28511, Note_on_c, 0, 70, 114
1, 28611, Note_off_c, 0, 70, 114
1, 28614, Note_on_c, 0, 65, 90
1, 28748, Note_off_c, 0, 65, 90
1, 28752, Note_on_c, 0, 60, 102
1, 28791, Note_off_c, 0, 60, 102
1, 28801, Note_on_c, 0, 70, 109
1, 28892, Note_off_c, 0, 70, 109
1, 28919, Note_on_c, 0, 63, 96
1, 28975, Note_off_c, 0, 63, 96
1, 28982, Note_on_c, 0, 69, 120
1, 29086, Note_off_c, 0, 69, 120
1, 29096, Note_on_c, 0, 70, 108
1, 29200, Note_off_c, 0, 70, 108
1, 29207, Note_on_c, 0, 68, 113
1, 29305, Note_off_c, 0, 68, 113
1, 29324, Note_on_c, 0, 67, 94
1, 29466, Note_off_c, 0, 67, 94
1, 29511, Note_on_c, 0, 66, 101
1, 29603, Note_off_c, 0, 66, 101
1, 29618, Note_on_c, 0, 65, 96
1, 29797, Note_off_c, 0, 65, 96
1, 29866, Note_on_c, 0, 64, 93
1, 29941, Note_off_c, 0, 64, 93
1, 29944, Note_on_c, 0, 63, 94
1, 30035, Note_off_c, 0, 63, 94
1, 30053, Note_on_c, 0, 62, 102
1, 30142, Note_off_c, 0, 62, 102
1, 30168, Note_on_c, 0, 58, 102
1, 30249, Note_off_c, 0, 58, 102
1, 30253, Note_on_c, 0, 57, 98
1, 30332, Note_off_c, 0, 57, 98
1, 30349, Note_on_c, 0, 60, 105
1, 30430, Note_off_c, 0, 60, 105
1, 30473, Note_on_c, 0, 58, 100
1, 30562, Note_off_c, 0, 58, 100
1, 30607, Note_on_c, 0, 54, 92
1, 30687, Note_off_c, 0, 54, 92
1, 30699, Note_on_c, 0, 55, 89
1, 30740, Note_off_c, 0, 55, 89
1, 30752, Note_on_c, 0, 71, 120
1, 30824, Note_off_c, 0, 71, 120
1, 30833, Note_on_c, 0, 72, 115
1, 30916, Note_off_c, 0, 72, 115
1, 30919, Note_on_c, 0, 69, 111
1, 31041, Note_off_c, 0, 69, 111
1, 31061, Note_on_c, 0, 67, 97
1, 31140, Note_off_c, 0, 67, 97
1, 31154, Note_on_c, 0, 70, 103
1, 31264, Note_off_c, 0, 70, 103
1, 31277, Note_on_c, 0, 63, 97
1, 31344, Note_off_c, 0, 63, 97
1, 31355, Note_on_c, 0, 61, 84
1, 31425, Note_off_c, 0, 61, 84
1, 31441, Note_on_c, 0, 58, 96
1, 31523, Note_off_c, 0, 58, 96
1, 31563, Note_on_c, 0, 68, 116
1, 31645, Note_off_c, 0, 68, 116
1, 31672, Note_on_c, 0, 63, 93
1, 31722, Note_off_c, 0, 63, 93
1, 31722, Note_on_c, 0, 67, 108
1, 31809, Note_off_c, 0, 67, 108
1, 31825, Note_on_c, 0, 69, 100
1, 31929, Note_off_c, 0, 69, 100
1, 31932, Note_on_c, 0, 65, 101
1, 31996, Note_off_c, 0, 65, 101
1, 32016, Note_on_c, 0, 60, 92
1, 32120, Note_off_c, 0, 60, 92
1, 32130, Note_on_c, 0, 59, 92
1, 32182, Note_off_c, 0, 59, 92
1, 32194, Note_on_c, 0, 55, 88
1, 32259, Note_off_c, 0, 55, 88
1, 32321, Note_on_c, 0, 60, 87
1, 32523, Note_off_c, 0, 60, 87
1, 33501, Note_on_c, 0, 61, 105
1, 33611, Note_off_c, 0, 61, 105
1, 33617, Note_on_c, 0, 58, 98
1, 33691, Note_off_c, 0, 58, 98
1, 33694, Note_on_c, 0, 61, 98
1, 33803, Note_off_c, 0, 61, 98
1, 33815, Note_on_c, 0, 57, 99
1, 33866, Note_off_c, 0, 57, 99
1, 33873, Note_on_c, 0, 58, 105
1, 33967, Note_off_c, 0, 58, 105
1, 33979, Note_on_c, 0, 61, 91
1, 34107, Note_off_c, 0, 61, 91
1, 34134, Note_on_c, 0, 62, 100
1, 34215, Note_off_c, 0, 62, 100
1, 34231, Note_on_c, 0, 63, 95
1, 34303, Note_off_c, 0, 63, 95
1, 34322, Note_on_c, 0, 64, 89
1, 34400, Note_off_c, 0, 64, 89
1, 34416, Note_on_c, 0, 65, 102
1, 34504, Note_off_c, 0, 65, 102
1, 34528, Note_on_c, 0, 62, 92
1, 34575, Note_off_c, 0, 62, 92
1, 34579, Note_on_c, 0, 58, 88
1, 34615, Note_off_c, 0, 58, 88
1, 34663, Note_on_c, 0, 66, 111
1, 34755, Note_off_c, 0, 66, 111
1, 34769, Note_on_c, 0, 61, 96
1, 34828, Note_off_c, 0, 61, 96
1, 34852, Note_on_c, 0, 67, 117
1, 34942, Note_off_c, 0, 67, 117
1, 34948, Note_on_c, 0, 69, 118
1, 35049, Note_off_c, 0, 69, 118
1, 35061, Note_on_c, 0, 70, 109
1, 35154, Note_off_c, 0, 70, 109
1, 35163, Note_on_c, 0, 71, 114
1, 35234, Note_off_c, 0, 71, 114
1, 35244, Note_on_c, 0, 72, 106
1, 35335, Note_off_c, 0, 72, 106
1, 35353, Note_on_c, 0, 70, 109
1, 35503, Note_off_c, 0, 70, 109
1, 35521, Note_on_c, 0, 69, 113
1, 35620, Note_off_c, 0, 69, 113
1, 35631, Note_on_c, 0, 65, 85
1, 35700, Note_off_c, 0, 65, 85
1, 35717, Note_on_c, 0, 60, 88
1, 35784, Note_off_c, 0, 60, 88
1, 35790, Note_on_c, 0, 70, 104
1, 35906, Note_off_c, 0, 70, 104
1, 35914, Note_on_c, 0, 63, 91
1, 35980, Note_off_c, 0, 63, 91
1, 35987, Note_on_c, 0, 68, 115
1, 36111, Note_off_c, 0, 68, 115
1, 36124, Note_on_c, 0, 70, 104
1, 36188, Note_off_c, 0, 70, 104
1, 36192, Note_on_c, 0, 67, 94
1, 36274, Note_off_c, 0, 67, 94
1, 36293, Note_on_c, 0, 65, 99
1, 36378, Note_off_c, 0, 65, 99
1, 36382, Note_on_c, 0, 63, 91
1, 36446, Note_off_c, 0, 63, 91
1, 36452, Note_on_c, 0, 61, 91
1, 36500, Note_off_c, 0, 61, 91
1, 36506, Note_on_c, 0, 58, 98
1, 36567, Note_off_c, 0, 58, 98
1, 36575, Note_on_c, 0, 62, 100
1, 36667, Note_off_c, 0, 62, 100
1, 36686, Note_on_c, 0, 63, 93
1, 36768, Note_off_c, 0, 63, 93
1, 36779, Note_on_c, 0, 64, 86
1, 36864, Note_off_c, 0, 64, 86
1, 36894, Note_on_c, 0, 65, 103
1, 36986, Note_off_c, 0, 65, 103
1, 37062, Note_on_c, 0, 66, 107
1, 37146, Note_off_c, 0, 66, 107
1, 37153, Note_on_c, 0, 62, 87
1, 37214, Note_off_c, 0, 62, 87
1, 37243, Note_on_c, 0, 58, 94
1, 37324, Note_off_c, 0, 58, 94
1, 37334, Note_on_c, 0, 65, 111
1, 37446, Note_off_c, 0, 65, 111
1, 37450, Note_on_c, 0, 62, 105
1, 37507, Note_off_c, 0, 62, 105
1, 37510, Note_on_c, 0, 60, 90
1, 37567, Note_off_c, 0, 60, 90
1, 37580, Note_on_c, 0, 58, 89
1, 37632, Note_off_c, 0, 58, 89
1, 37647, Note_on_c, 0, 61, 85
1, 37690, Note_off_c, 0, 61, 85
1, 37702, Note_on_c, 0, 63, 98
1, 37778, Note_off_c, 0, 63, 98
1, 38048, Note_on_c, 0, 58, 99
1, 38111, Note_off_c, 0, 58, 99
1, 38322, Note_on_c, 0, 62, 106
1, 38418, Note_off_c, 0, 62, 106
1, 38443, Note_on_c, 0, 58, 96
1, 38506, Note_off_c, 0, 58, 96
1, 38518, Note_on_c, 0, 60, 95
1, 38611, Note_off_c, 0, 60, 95
1, 38622, Note_on_c, 0, 62, 108
1, 38692, Note_off_c, 0, 62, 108
1, 38710, Note_on_c, 0, 63, 96
1, 38788, Note_off_c, 0, 63, 96
1, 38791, Note_on_c, 0, 65, 106
1, 38871, Note_off_c, 0, 65, 106
1, 38880, Note_on_c, 0, 63, 101
1, 38925, Note_off_c, 0, 63, 101
1, 38938, Note_on_c, 0, 58, 98
1, 39052, Note_off_c, 0, 58, 98
1, 39804, Note_on_c, 0, 59, 99
1, 39925, Note_off_c, 0, 59, 99
1, 39929, Note_on_c, 0, 64, 103
1, 40159, Note_off_c, 0, 64, 103
1, 40169, Note_on_c, 0, 59, 108
1, 40266, Note_off_c, 0, 59, 108
1, 40275, Note_on_c, 0, 64, 95
1, 40376, Note_off_c, 0, 64, 95
1, 40386, Note_on_c, 0, 59, 94
1, 40447, Note_off_c, 0, 59, 94
1, 40462, Note_on_c, 0, 64, 100
1, 40538, Note_off_c, 0, 64, 100
1, 40545, Note_on_c, 0, 59, 88
1, 40637, Note_off_c, 0, 59, 88
1, 40661, Note_on_c, 0, 64, 97
1, 40743, Note_off_c, 0, 64, 97
1, 40762, Note_on_c, 0, 59, 92
1, 40845, Note_off_c, 0, 59, 92
1, 40863, Note_on_c, 0, 64, 100
1, 40951, Note_off_c, 0, 64, 100
1, 40962, Note_on_c, 0, 59, 92
1, 41055, Note_off_c, 0, 59, 92
1, 41068, Note_on_c, 0, 64, 96
1, 41152, Note_off_c, 0, 64, 96
1, 41162, Note_on_c, 0, 66, 110
1, 41228, Note_off_c, 0, 66, 110
1, 41247, Note_on_c, 0, 67, 106
1, 41382, Note_off_c, 0, 67, 106
1, 41397, Note_on_c, 0, 66, 115
1, 41493, Note_off_c, 0, 66, 115
1, 41552, Note_on_c, 0, 64, 96
1, 41631, Note_off_c, 0, 64, 96
1, 41639, Note_on_c, 0, 59, 89
1, 41741, Note_off_c, 0, 59, 89
1, 41766, Note_on_c, 0, 62, 89
1, 42081, Note_off_c, 0, 62, 89
1, 42884, Note_on_c, 0, 59, 97
1, 42939, Note_off_c, 0, 59, 97
1, 42957, Note_on_c, 0, 64, 100
1, 43025, Note_off_c, 0, 64, 100
1, 43046, Note_on_c, 0, 66, 112
1, 43136, Note_off_c, 0, 66, 112
1, 43152, Note_on_c, 0, 67, 108
1, 43237, Note_off_c, 0, 67, 108
1, 43243, Note_on_c, 0, 66, 113
1, 43309, Note_off_c, 0, 66, 113
1, 43318, Note_on_c, 0, 65, 109
1, 43419, Note_off_c, 0, 65, 109
1, 43434, Note_on_c, 0, 64, 100
1, 43486, Note_off_c, 0, 64, 100
1, 43493, Note_on_c, 0, 62, 106
1, 43563, Note_off_c, 0, 62, 106
1, 43572, Note_on_c, 0, 60, 97
1, 43618, Note_off_c, 0, 60, 97
1, 43628, Note_on_c, 0, 59, 100
1, 43681, Note_off_c, 0, 59, 100
1, 43693, Note_on_c, 0, 58, 100
1, 43821, Note_off_c, 0, 58, 100
1, 44298, Note_on_c, 0, 69, 121
1, 44417, Note_off_c, 0, 69, 121
1, 44432, Note_on_c, 0, 72, 107
1, 44496, Note_off_c, 0, 72, 107
1, 44505, Note_on_c, 0, 70, 109
1, 44587, Note_off_c, 0, 70, 109
1, 44602, Note_on_c, 0, 69, 113
1, 44711, Note_off_c, 0, 69, 113
1, 44724, Note_on_c, 0, 67, 99
1, 44809, Note_off_c, 0, 67, 99
1, 44823, Note_on_c, 0, 66, 101
1, 44916, Note_off_c, 0, 66, 101
1, 44924, Note_on_c, 0, 65, 97
1, 44992, Note_off_c, 0, 65, 97
1, 45001, Note_on_c, 0, 64, 97
1, 45080, Note_off_c, 0, 64, 97
1, 45098, Note_on_c, 0, 62, 100
1, 45175, Note_off_c, 0, 62, 100
1, 45179, Note_on_c, 0, 58, 92
1, 45255, Note_off_c, 0, 58, 92
1, 45271, Note_on_c, 0, 63, 99
1, 45365, Note_off_c, 0, 63, 99
1, 45384, Note_on_c, 0, 65, 105
1, 45488, Note_off_c, 0, 65, 105
1, 45586, Note_on_c, 0, 60, 92
1, 45640, Note_off_c, 0, 60, 92
1, 45667, Note_on_c, 0, 65, 111
1, 45752, Note_off_c, 0, 65, 111
1, 45770, Note_on_c, 0, 62, 102
1, 45821, Note_off_c, 0, 62, 102
1, 45843, Note_on_c, 0, 69, 125
1, 45951, Note_off_c, 0, 69, 125
1, 45959, Note_on_c, 0, 72, 117
1, 46043, Note_off_c, 0, 72, 117
1, 46053, Note_on_c, 0, 70, 116
1, 46151, Note_off_c, 0, 70, 116
1, 46154, Note_on_c, 0, 69, 115
1, 46234, Note_off_c, 0, 69, 115
1, 46242, Note_on_c, 0, 67, 112
1, 46320, Note_off_c, 0, 67, 112
1, 46337, Note_on_c, 0, 63, 87
1, 46379, Note_off_c, 0, 63, 87
1, 46385, Note_on_c, 0, 60, 89
1, 46427, Note_off_c, 0, 60, 89
1, 46444, Note_on_c, 0, 68, 112
1, 46550, Note_off_c, 0, 68, 112
1, 47129, Note_on_c, 0, 66, 105
1, 47234, Note_off_c, 0, 66, 105
1, 47244, Note_on_c, 0, 67, 109
1, 47290, Note_off_c, 0, 67, 109
1, 47296, Note_on_c, 0, 69, 120
1, 47358, Note_off_c, 0, 69, 120
1, 47370, Note_on_c, 0, 70, 110
1, 47465, Note_off_c, 0, 70, 110
1, 47482, Note_on_c, 0, 71, 113
1, 47565, Note_off_c, 0, 71, 113
1, 47578, Note_on_c, 0, 70, 101
1, 47667, Note_off_c, 0, 70, 101
1, 47682, Note_on_c, 0, 69, 110
1, 47718, Note_off_c, 0, 69, 110
1, 47724, Note_on_c, 0, 67, 107
1, 47816, Note_off_c, 0, 67, 107
1, 47822, Note_on_c, 0, 63, 83
1, 47862, Note_off_c, 0, 63, 83
1, 47898, Note_on_c, 0, 60, 99
1, 47941, Note_off_c, 0, 60, 99
1, 47954, Note_on_c, 0, 69, 120
1, 48072, Note_off_c, 0, 69, 120
1, 48072, Note_on_c, 0, 65, 108
1, 48152, Note_off_c, 0, 65, 108
1, 48156, Note_on_c, 0, 63, 96
1, 48202, Note_off_c, 0, 63, 96
1, 48214, Note_on_c, 0, 60, 89
1, 48318, Note_off_c, 0, 60, 89
1, 48326, Note_on_c, 0, 67, 113
1, 48427, Note_off_c, 0, 67, 113
1, 48443, Note_on_c, 0, 63, 92
1, 48485, Note_off_c, 0, 63, 92
1, 48504, Note_on_c, 0, 68, 127
1, 48632, Note_off_c, 0, 68, 127
1, 48641, Note_on_c, 0, 69, 116
1, 48726, Note_off_c, 0, 69, 116
1, 48734, Note_on_c, 0, 72, 104
1, 48824, Note_off_c, 0, 72, 104
1, 48847, Note_on_c, 0, 64, 99
1, 48883, Note_off_c, 0, 64, 99
1, 48893, Note_on_c, 0, 63, 97
1, 48959, Note_off_c, 0, 63, 97
1, 48998, Note_on_c, 0, 60, 94
1, 49063, Note_off_c, 0, 60, 94
1, 49082, Note_on_c, 0, 62, 100
1, 49196, Note_off_c, 0, 62, 100
1, 49224, Note_on_c, 0, 63, 87
1, 49276, Note_off_c, 0, 63, 87
1, 49304, Note_on_c, 0, 68, 9
1, 49391, Note_off_c, 0, 68, 9
1, 49409, Note_on_c, 0, 70, 95
1, 49470, Note_off_c, 0, 70, 95
1, 49484, Note_on_c, 0, 74, 105
1, 49579, Note_off_c, 0, 74, 105
1, 49586, Note_on_c, 0, 72, 113
1, 49661, Note_off_c, 0, 72, 113
1, 49672, Note_on_c, 0, 70, 104
1, 49757, Note_off_c, 0, 70, 104
1, 49772, Note_on_c, 0, 68, 107
1, 49847, Note_off_c, 0, 68, 107
1, 49875, Note_on_c, 0, 69, 109
1, 49977, Note_off_c, 0, 69, 109
1, 50016, Note_on_c, 0, 76, 112
1, 50097, Note_off_c, 0, 76, 112
1, 50110, Note_on_c, 0, 80, 115
1, 50427, Note_off_c, 0, 80, 115
1, 50437, Note_on_c, 0, 67, 99
1, 50555, Note_off_c, 0, 67, 99
1, 51767, Note_on_c, 0, 77, 115
1, 52376, Note_off_c, 0, 77, 115
1, 52424, Note_on_c, 0, 65, 88
1, 52549, Note_off_c, 0, 65, 88
1, 52619, Note_on_c, 0, 65, 100
1, 52690, Note_off_c, 0, 65, 100
1, 52721, Note_on_c, 0, 74, 111
1, 52840, Note_off_c, 0, 74, 111
1, 52863, Note_on_c, 0, 65, 88
1, 52911, Note_off_c, 0, 65, 88
1, 52917, Note_on_c, 0, 72, 103
1, 53030, Note_off_c, 0, 72, 103
1, 53042, Note_on_c, 0, 75, 103
1, 53144, Note_off_c, 0, 75, 103
1, 53237, Note_on_c, 0, 69, 103
1, 53335, Note_off_c, 0, 69, 103
1, 53421, Note_on_c, 0, 74, 111
1, 53521, Note_off_c, 0, 74, 111
1, 53613, Note_on_c, 0, 72, 96
1, 53703, Note_off_c, 0, 72, 96
1, 54592, Note_on_c, 0, 79, 118
1, 54826, Note_off_c, 0, 79, 118
1, 54838, Note_on_c, 0, 78, 114
1, 54892, Note_off_c, 0, 78, 114
1, 54899, Note_on_c, 0, 77, 115
1, 54977, Note_off_c, 0, 77, 115
1, 54984, Note_on_c, 0, 76, 116
1, 55028, Note_off_c, 0, 76, 116
1, 55032, Note_on_c, 0, 75, 115
1, 55125, Note_off_c, 0, 75, 115
1, 55132, Note_on_c, 0, 74, 110
1, 55223, Note_off_c, 0, 74, 110
1, 55231, Note_on_c, 0, 73, 117
1, 55323, Note_off_c, 0, 73, 117
1, 55333, Note_on_c, 0, 72, 115
1, 55452, Note_off_c, 0, 72, 115
1, 55458, Note_on_c, 0, 72, 94
1, 55549, Note_off_c, 0, 72, 94
1, 55557, Note_on_c, 0, 70, 106
1, 55729, Note_off_c, 0, 70, 106
1, 55738, Note_on_c, 0, 69, 107
1, 55842, Note_off_c, 0, 69, 107
1, 55853, Note_on_c, 0, 60, 89
1, 55910, Note_off_c, 0, 60, 89
1, 55928, Note_on_c, 0, 61, 90
1, 56002, Note_off_c, 0, 61, 90
1, 56004, Note_on_c, 0, 70, 100
1, 56093, Note_off_c, 0, 70, 100
1, 56125, Note_on_c, 0, 62, 98
1, 56192, Note_off_c, 0, 62, 98
1, 56207, Note_on_c, 0, 69, 110
1, 56265, Note_off_c, 0, 69, 110
1, 56273, Note_on_c, 0, 70, 102
1, 56333, Note_off_c, 0, 70, 102
1, 56364, Note_on_c, 0, 69, 105
1, 56471, Note_off_c, 0, 69, 105
1, 56525, Note_on_c, 0, 65, 97
1, 56586, Note_off_c, 0, 65, 97
1, 56601, Note_on_c, 0, 64, 87
1, 56667, Note_off_c, 0, 64, 87
1, 57718, Note_on_c, 0, 74, 100
1, 57809, Note_off_c, 0, 74, 100
1, 57907, Note_on_c, 0, 72, 101
1, 57985, Note_off_c, 0, 72, 101
1, 58093, Note_on_c, 0, 70, 90
1, 58176, Note_off_c, 0, 70, 90
1, 58299, Note_on_c, 0, 69, 107
1, 58464, Note_off_c, 0, 69, 107
1, 58495, Note_on_c, 0, 67, 102
1, 58570, Note_off_c, 0, 67, 102
1, 58621, Note_on_c, 0, 70, 111
1, 58708, Note_off_c, 0, 70, 111
1, 58806, Note_on_c, 0, 72, 108
1, 58904, Note_off_c, 0, 72, 108
1, 59002, Note_on_c, 0, 70, 107
1, 59089, Note_off_c, 0, 70, 107
1, 59182, Note_on_c, 0, 69, 113
1, 59254, Note_off_c, 0, 69, 113
1, 59288, Note_on_c, 0, 63, 89
1, 59335, Note_off_c, 0, 63, 89
1, 59375, Note_on_c, 0, 60, 86
1, 59428, Note_off_c, 0, 60, 86
1, 59461, Note_on_c, 0, 70, 109
1, 59537, Note_off_c, 0, 70, 109
1, 59649, Note_on_c, 0, 69, 112
1, 59736, Note_off_c, 0, 69, 112
1, 59782, Note_on_c, 0, 65, 94
1, 59843, Note_off_c, 0, 65, 94
1, 59862, Note_on_c, 0, 67, 105
1, 59952, Note_off_c, 0, 67, 105
1, 59998, Note_on_c, 0, 63, 93
1, 60067, Note_off_c, 0, 63, 93
1, 60177, Note_on_c, 0, 62, 102
1, 60244, Note_off_c, 0, 62, 102
1, 60336, Note_on_c, 0, 67, 111
1, 60449, Note_off_c, 0, 67, 111
1, 60493, Note_on_c, 0, 62, 92
1, 60528, Note_off_c, 0, 62, 92
1, 60541, Note_on_c, 0, 58, 91
1, 60573, Note_off_c, 0, 58, 91
1, 60613, Note_on_c, 0, 65, 93
1, 60711, Note_off_c, 0, 65, 93
1, 60795, Note_on_c, 0, 74, 113
1, 60876, Note_off_c, 0, 74, 113
1, 61180, Note_on_c, 0, 72, 105
1, 61259, Note_off_c, 0, 72, 105
1, 61319, Note_on_c, 0, 68, 89
1, 61362, Note_off_c, 0, 68, 89
1, 61419, Note_on_c, 0, 69, 95
1, 61485, Note_off_c, 0, 69, 95
1, 61573, Note_on_c, 0, 74, 116
1, 61676, Note_off_c, 0, 74, 116
1, 61682, Note_on_c, 0, 72, 93
1, 61761, Note_off_c, 0, 72, 93
1, 61785, Note_on_c, 0, 67, 91
1, 61872, Note_off_c, 0, 67, 91
1, 61910, Note_on_c, 0, 63, 100
1, 61974, Note_off_c, 0, 63, 100
1, 61987, Note_on_c, 0, 60, 90
1, 62048, Note_off_c, 0, 60, 90
1, 62626, Note_on_c, 0, 67, 115
1, 62708, Note_off_c, 0, 67, 115
1, 62720, Note_on_c, 0, 75, 114
1, 62809, Note_off_c, 0, 75, 114
1, 62833, Note_on_c, 0, 78, 110
1, 63024, Note_off_c, 0, 78, 110
1, 63063, Note_on_c, 0, 72, 99
1, 63138, Note_off_c, 0, 72, 99
1, 64225, Note_on_c, 0, 73, 124
1, 64338, Note_off_c, 0, 73, 124
1, 64348, Note_on_c, 0, 74, 111
1, 64430, Note_off_c, 0, 74, 111
1, 64450, Note_on_c, 0, 73, 123
1, 64558, Note_off_c, 0, 73, 123
1, 64567, Note_on_c, 0, 74, 114
1, 64617, Note_off_c, 0, 74, 114
1, 64673, Note_on_c, 0, 73, 120
1, 64774, Note_off_c, 0, 73, 120
1, 64782, Note_on_c, 0, 74, 109
1, 64840, Note_off_c, 0, 74, 109
1, 64885, Note_on_c, 0, 73, 117
1, 64979, Note_off_c, 0, 73, 117
1, 64990, Note_on_c, 0, 74, 110
1, 65079, Note_off_c, 0, 74, 110
1, 65104, Note_on_c, 0, 73, 119
1, 65185, Note_off_c, 0, 73, 119
1, 65200, Note_on_c, 0, 74, 113
1, 65268, Note_off_c, 0, 74, 113
1, 65319, Note_on_c, 0, 73, 119
1, 65389, Note_off_c, 0, 73, 119
1, 65408, Note_on_c, 0, 74, 116
1, 65475, Note_off_c, 0, 74, 116
1, 65514, Note_on_c, 0, 73, 116
1, 65607, Note_off_c, 0, 73, 116
1, 65622, Note_on_c, 0, 74, 111
1, 65687, Note_off_c, 0, 74, 111
1, 65703, Note_on_c, 0, 71, 109
1, 65819, Note_off_c, 0, 71, 109
1, 65835, Note_on_c, 0, 67, 103
1, 65910, Note_off_c, 0, 67, 103
1, 66778, Note_on_c, 0, 73, 122
1, 66903, Note_off_c, 0, 73, 122
1, 66906, Note_on_c, 0, 74, 106
1, 66982, Note_off_c, 0, 74, 106
1, 66995, Note_on_c, 0, 73, 122
1, 67100, Note_off_c, 0, 73, 122
1, 67112, Note_on_c, 0, 74, 116
1, 67188, Note_off_c, 0, 74, 116
1, 67193, Note_on_c, 0, 73, 121
1, 67284, Note_off_c, 0, 73, 121
1, 67300, Note_on_c, 0, 74, 103
1, 67387, Note_off_c, 0, 74, 103
1, 67394, Note_on_c, 0, 73, 117
1, 67489, Note_off_c, 0, 73, 117
1, 67502, Note_on_c, 0, 74, 105
1, 67583, Note_off_c, 0, 74, 105
1, 67594, Note_on_c, 0, 73, 119
1, 67683, Note_off_c, 0, 73, 119
1, 67695, Note_on_c, 0, 74, 112
1, 67763, Note_off_c, 0, 74, 112
1, 67787, Note_on_c, 0, 73, 118
1, 67886, Note_off_c, 0, 73, 118
1, 67902, Note_on_c, 0, 74, 109
1, 67967, Note_off_c, 0, 74, 109
1, 67975, Note_on_c, 0, 71, 110
1, 68085, Note_off_c, 0, 71, 110
1, 68127, Note_on_c, 0, 67, 102
1, 68187, Note_off_c, 0, 67, 102
1, 68827, Note_on_c, 0, 71, 108
1, 68901, Note_off_c, 0, 71, 108
1, 68903, Note_on_c, 0, 72, 110
1, 69011, Note_off_c, 0, 72, 110
1, 69041, Note_on_c, 0, 69, 92
1, 69293, Note_off_c, 0, 69, 92
1, 70081, Note_on_c, 0, 70, 116
1, 70638, Note_off_c, 0, 70, 116
1, 70705, Note_on_c, 0, 62, 97
1, 70799, Note_off_c, 0, 62, 97
1, 70902, Note_on_c, 0, 65, 105
1, 71024, Note_off_c, 0, 65, 105
1, 71079, Note_on_c, 0, 70, 114
1, 71184, Note_off_c, 0, 70, 114
1, 71200, Note_on_c, 0, 72, 116
1, 71306, Note_off_c, 0, 72, 116
1, 71378, Note_on_c, 0, 74, 115
1, 71492, Note_off_c, 0, 74, 115
1, 71564, Note_on_c, 0, 75, 115
1, 71668, Note_off_c, 0, 75, 115
1, 71755, Note_on_c, 0, 74, 107
1, 71852, Note_off_c, 0, 74, 107
1, 71951, Note_on_c, 0, 70, 102
1, 72050, Note_off_c, 0, 70, 102
1, 72136, Note_on_c, 0, 60, 84
1, 72202, Note_off_c, 0, 60, 84
1, 72225, Note_on_c, 0, 70, 113
1, 72320, Note_off_c, 0, 70, 113
1, 72431, Note_on_c, 0, 65, 96
1, 72508, Note_off_c, 0, 65, 96
1, 72622, Note_on_c, 0, 67, 104
1, 72741, Note_off_c, 0, 67, 104
1, 72770, Note_on_c, 0, 70, 107
1, 72855, Note_off_c, 0, 70, 107
1, 72954, Note_on_c, 0, 69, 110
1, 73033, Note_off_c, 0, 69, 110
1, 73140, Note_on_c, 0, 67, 99
1, 73217, Note_off_c, 0, 67, 99
1, 73337, Note_on_c, 0, 65, 87
1, 73405, Note_off_c, 0, 65, 87
1, 74159, Note_on_c, 0, 80, 116
1, 75002, Note_off_c, 0, 80, 116
1, 75023, Note_on_c, 0, 79, 113
1, 75138, Note_off_c, 0, 79, 113
1, 75156, Note_on_c, 0, 77, 115
1, 75294, Note_off_c, 0, 77, 115
1, 75326, Note_on_c, 0, 74, 110
1, 75527, Note_off_c, 0, 74, 110
1, 75552, Note_on_c, 0, 72, 114
1, 75692, Note_off_c, 0, 72, 114
1, 75708, Note_on_c, 0, 70, 100
1, 75952, Note_off_c, 0, 70, 100
1, 75958, Note_on_c, 0, 68, 103
1, 76083, Note_off_c, 0, 68, 103
1, 76098, Note_on_c, 0, 64, 101
1, 76334, Note_off_c, 0, 64, 101
1, 76346, Note_on_c, 0, 63, 90
1, 76451, Note_off_c, 0, 63, 90
1, 76491, Note_on_c, 0, 63, 92
1, 76675, Note_off_c, 0, 63, 92
1, 76681, Note_on_c, 0, 62, 88
1, 76727, Note_off_c, 0, 62, 88
1, 77134, Note_on_c, 0, 64, 105
1, 77234, Note_off_c, 0, 64, 105
1, 77250, Note_on_c, 0, 61, 92
1, 77535, Note_off_c, 0, 61, 92
1, 78324, Note_on_c, 0, 58, 106
1, 78408, Note_off_c, 0, 58, 106
1, 78416, Note_on_c, 0, 61, 110
1, 78498, Note_off_c, 0, 61, 110
1, 78511, Note_on_c, 0, 63, 112
1, 78595, Note_off_c, 0, 63, 112
1, 78604, Note_on_c, 0, 64, 107
1, 78643, Note_off_c, 0, 64, 107
1, 78653, Note_on_c, 0, 65, 116
1, 78750, Note_off_c, 0, 65, 116
1, 78778, Note_on_c, 0, 64, 97
1, 78827, Note_off_c, 0, 64, 97
1, 78839, Note_on_c, 0, 66, 111
1, 78946, Note_off_c, 0, 66, 111
1, 78955, Note_on_c, 0, 68, 114
1, 79040, Note_off_c, 0, 68, 114
1, 79044, Note_on_c, 0, 66, 107
1, 79089, Note_off_c, 0, 66, 107
1, 79105, Note_on_c, 0, 65, 103
1, 79289, Note_off_c, 0, 65, 103
1, 79338, Note_on_c, 0, 64, 97
1, 79423, Note_off_c, 0, 64, 97
1, 79438, Note_on_c, 0, 62, 90
1, 79563, Note_off_c, 0, 62, 90
1, 80051, Note_on_c, 0, 72, 104
1, 80135, Note_off_c, 0, 72, 104
1, 80149, Note_on_c, 0, 74, 104
1, 80232, Note_off_c, 0, 74, 104
1, 80242, Note_on_c, 0, 72, 112
1, 80352, Note_off_c, 0, 72, 112
1, 80358, Note_on_c, 0, 70, 109
1, 80456, Note_off_c, 0, 70, 109
1, 80472, Note_on_c, 0, 69, 111
1, 80559, Note_off_c, 0, 69, 111
1, 80566, Note_on_c, 0, 67, 103
1, 80617, Note_off_c, 0, 67, 103
1, 80625, Note_on_c, 0, 65, 105
1, 80756, Note_off_c, 0, 65, 105
1, 80756, Note_on_c, 0, 62, 94
1, 80818, Note_off_c, 0, 62, 94
1, 80837, Note_on_c, 0, 63, 98
1, 80928, Note_off_c, 0, 63, 98
1, 80945, Note_on_c, 0, 61, 98
1, 81029, Note_off_c, 0, 61, 98
1, 81388, Note_on_c, 0, 70, 118
1, 81457, Note_off_c, 0, 70, 118
1, 81458, Note_on_c, 0, 72, 116
1, 81569, Note_off_c, 0, 72, 116
1, 81579, Note_on_c, 0, 70, 119
1, 81679, Note_off_c, 0, 70, 119
1, 81700, Note_on_c, 0, 70, 111
1, 81737, Note_off_c, 0, 70, 111
1, 81753, Note_on_c, 0, 69, 111
1, 81859, Note_off_c, 0, 69, 111
1, 81911, Note_on_c, 0, 67, 102
1, 82017, Note_off_c, 0, 67, 102
1, 82057, Note_on_c, 0, 65, 97
1, 82174, Note_off_c, 0, 65, 97
1, 82180, Note_on_c, 0, 63, 80
1, 82272, Note_off_c, 0, 63, 80
1, 82312, Note_on_c, 0, 62, 101
1, 82401, Note_off_c, 0, 62, 101
1, 82438, Note_on_c, 0, 58, 98
1, 82539, Note_off_c, 0, 58, 98
1, 82929, Note_on_c, 0, 59, 100
1, 83036, Note_off_c, 0, 59, 100
1, 83052, Note_on_c, 0, 58, 101
1, 83276, Note_off_c, 0, 58, 101
1, 83350, Note_on_c, 0, 67, 105
1, 83478, Note_off_c, 0, 67, 105
1, 83535, Note_on_c, 0, 69, 106
1, 83639, Note_off_c, 0, 69, 106
1, 83655, Note_on_c, 0, 67, 103
1, 83738, Note_off_c, 0, 67, 103
1, 83814, Note_on_c, 0, 69, 114
1, 83940, Note_off_c, 0, 69, 114
1, 84019, Note_on_c, 0, 70, 109
1, 84119, Note_off_c, 0, 70, 109
1, 84210, Note_on_c, 0, 70, 103
1, 84283, Note_off_c, 0, 70, 103
1, 84300, Note_on_c, 0, 67, 94
1, 84430, Note_off_c, 0, 67, 94
1, 84483, Note_on_c, 0, 63, 96
1, 84588, Note_off_c, 0, 63, 96
1, 84598, Note_on_c, 0, 60, 81
1, 84650, Note_off_c, 0, 60, 81
1, 84680, Note_on_c, 0, 62, 95
1, 84747, Note_off_c, 0, 62, 95
1, 84805, Note_on_c, 0, 65, 110
1, 84871, Note_off_c, 0, 65, 110
1, 84895, Note_on_c, 0, 62, 90
1, 84960, Note_off_c, 0, 62, 90
1, 84984, Note_on_c, 0, 58, 89
1, 85044, Note_off_c, 0, 58, 89
1, 85063, Note_on_c, 0, 63, 96
1, 85145, Note_off_c, 0, 63, 96
1, 85611, Note_on_c, 0, 74, 109
1, 85837, Note_off_c, 0, 74, 109
1, 85851, Note_on_c, 0, 71, 106
1, 85892, Note_off_c, 0, 71, 106
1, 85901, Note_on_c, 0, 70, 107
1, 85949, Note_off_c, 0, 70, 107
1, 85965, Note_on_c, 0, 68, 111
1, 86029, Note_off_c, 0, 68, 111
1, 86038, Note_on_c, 0, 69, 106
1, 86069, Note_off_c, 0, 69, 106
1, 86071, Note_on_c, 0, 68, 102
1, 86101, Note_off_c, 0, 68, 102
1, 86108, Note_on_c, 0, 66, 98
1, 86147, Note_off_c, 0, 66, 98
1, 86152, Note_on_c, 0, 63, 97
1, 86203, Note_off_c, 0, 63, 97
1, 86212, Note_on_c, 0, 61, 94
1, 86245, Note_off_c, 0, 61, 94
1, 86263, Note_on_c, 0, 59, 92
1, 86326, Note_off_c, 0, 59, 92
1, 86351, Note_on_c, 0, 56, 98
1, 86413, Note_off_c, 0, 56, 98
1, 86434, Note_on_c, 0, 54, 94
1, 86521, Note_off_c, 0, 54, 94
1, 87005, Note_on_c, 0, 78, 112
1, 87333, Note_off_c, 0, 78, 112
1, 87348, Note_on_c, 0, 77, 110
1, 87372, Note_off_c, 0, 77, 110
1, 87377, Note_on_c, 0, 75, 116
1, 87408, Note_off_c, 0, 75, 116
1, 87415, Note_on_c, 0, 74, 111
1, 87452, Note_off_c, 0, 74, 111
1, 87473, Note_on_c, 0, 73, 103
1, 87515, Note_off_c, 0, 73, 103
1, 87528, Note_on_c, 0, 72, 107
1, 87568, Note_off_c, 0, 72, 107
1, 87571, Note_on_c, 0, 71, 105
1, 87590, Note_off_c, 0, 71, 105
1, 87600, Note_on_c, 0, 70, 106
1, 87679, Note_off_c, 0, 70, 106
1, 87687, Note_on_c, 0, 69, 108
1, 87723, Note_off_c, 0, 69, 108
1, 87729, Note_on_c, 0, 67, 102
1, 87745, Note_off_c, 0, 67, 102
1, 87762, Note_on_c, 0, 66, 103
1, 87791, Note_off_c, 0, 66, 103
1, 87797, Note_on_c, 0, 63, 96
1, 87846, Note_off_c, 0, 63, 96
1, 87856, Note_on_c, 0, 59, 89
1, 87908, Note_off_c, 0, 59, 89
1, 87946, Note_on_c, 0, 65, 104
1, 87999, Note_off_c, 0, 65, 104
1, 88004, Note_on_c, 0, 67, 98
1, 88052, Note_off_c, 0, 67, 98
1, 88062, Note_on_c, 0, 69, 102
1, 88094, Note_off_c, 0, 69, 102
1, 88106, Note_on_c, 0, 79, 116
1, 88183, Note_off_c, 0, 79, 116
1, 88208, Note_on_c, 0, 71, 104
1, 88276, Note_off_c, 0, 71, 104
1, 89137, Note_on_c, 0, 69, 117
1, 89233, Note_off_c, 0, 69, 117
1, 89243, Note_on_c, 0, 71, 120
1, 89383, Note_off_c, 0, 71, 120
1, 89394, Note_on_c, 0, 71, 124
1, 89486, Note_off_c, 0, 71, 124
1, 89499, Note_on_c, 0, 74, 105
1, 89539, Note_off_c, 0, 74, 105
1, 89546, Note_on_c, 0, 66, 94
1, 89580, Note_off_c, 0, 66, 94
1, 89590, Note_on_c, 0, 70, 113
1, 89673, Note_off_c, 0, 70, 113
1, 89674, Note_on_c, 0, 71, 118
1, 89753, Note_off_c, 0, 71, 118
1, 89759, Note_on_c, 0, 71, 117
1, 89857, Note_off_c, 0, 71, 117
1, 89938, Note_on_c, 0, 71, 108
1, 90094, Note_off_c, 0, 71, 108
1, 90114, Note_on_c, 0, 76, 109
1, 90391, Note_off_c, 0, 76, 109
1, 90416, Note_on_c, 0, 74, 104
1, 90538, Note_off_c, 0, 74, 104
1, 90980, Note_on_c, 0, 66, 105
1, 91035, Note_off_c, 0, 66, 105
1, 91041, Note_on_c, 0, 71, 96
1, 91137, Note_off_c, 0, 71, 96
1, 91151, Note_on_c, 0, 74, 110
1, 91265, Note_off_c, 0, 74, 110
1, 91275, Note_on_c, 0, 76, 108
1, 91342, Note_off_c, 0, 76, 108
1, 91351, Note_on_c, 0, 71, 88
1, 91410, Note_off_c, 0, 71, 88
1, 91438, Note_on_c, 0, 72, 105
1, 91611, Note_off_c, 0, 72, 105
1, 91627, Note_on_c, 0, 69, 110
1, 91743, Note_off_c, 0, 69, 110
1, 91778, Note_on_c, 0, 67, 91
1, 91952, Note_off_c, 0, 67, 91
1, 92693, Note_on_c, 0, 67, 123
1, 92788, Note_off_c, 0, 67, 123
1, 92794, Note_on_c, 0, 70, 118
1, 92870, Note_off_c, 0, 70, 118
1, 92882, Note_on_c, 0, 72, 119
1, 93000, Note_off_c, 0, 72, 119
1, 93014, Note_on_c, 0, 73, 106
1, 93051, Note_off_c, 0, 73, 106
1, 93069, Note_on_c, 0, 73, 114
1, 93110, Note_off_c, 0, 73, 114
1, 93128, Note_on_c, 0, 74, 116
1, 93215, Note_off_c, 0, 74, 116
1, 93228, Note_on_c, 0, 75, 107
1, 93318, Note_off_c, 0, 75, 107
1, 93331, Note_on_c, 0, 78, 109
1, 93393, Note_off_c, 0, 78, 109
1, 93451, Note_on_c, 0, 73, 96
1, 93537, Note_off_c, 0, 73, 96
1, 93917, Note_on_c, 0, 80, 105
1, 94075, Note_off_c, 0, 80, 105
1, 94094, Note_on_c, 0, 74, 104
1, 94181, Note_off_c, 0, 74, 104
1, 94647, Note_on_c, 0, 80, 109
1, 95369, Note_off_c, 0, 80, 109
1, 95411, Note_on_c, 0, 68, 99
1, 95448, Note_off_c, 0, 68, 99
1, 95464, Note_on_c, 0, 67, 98
1, 95519, Note_off_c, 0, 67, 98
1, 95529, Note_on_c, 0, 68, 103
1, 95603, Note_off_c, 0, 68, 103
1, 95612, Note_on_c, 0, 80, 92
1, 95777, Note_off_c, 0, 80, 92
1, 96280, Note_on_c, 0, 74, 112
1, 96412, Note_off_c, 0, 74, 112
1, 96422, Note_on_c, 0, 71, 99
1, 96495, Note_off_c, 0, 71, 99
1, 96514, Note_on_c, 0, 72, 100
1, 96580, Note_off_c, 0, 72, 100
1, 96589, Note_on_c, 0, 79, 112
1, 96772, Note_off_c, 0, 79, 112
1, 96777, Note_on_c, 0, 72, 84
1, 96878, Note_off_c, 0, 72, 84
1, 96878, Note_on_c, 0, 80, 105
1, 97100, Note_off_c, 0, 80, 105
1, 97451, Note_on_c, 0, 78, 117
1, 97549, Note_off_c, 0, 78, 117
1, 97552, Note_on_c, 0, 77, 120
1, 97685, Note_off_c, 0, 77, 120
1, 98145, Note_on_c, 0, 78, 9
1, 98961, Note_off_c, 0, 78, 9
1, 98980, Note_on_c, 0, 75, 115
1, 99095, Note_off_c, 0, 75, 115
1, 99098, Note_on_c, 0, 74, 111
1, 99150, Note_off_c, 0, 74, 111
1, 99169, Note_on_c, 0, 75, 112
1, 99274, Note_off_c, 0, 75, 112
1, 99277, Note_on_c, 0, 78, 116
1, 99624, Note_off_c, 0, 78, 116
1, 99636, Note_on_c, 0, 75, 119
1, 99714, Note_off_c, 0, 75, 119
1, 99727, Note_on_c, 0, 74, 113
1, 99803, Note_off_c, 0, 74, 113
1, 99805, Note_on_c, 0, 75, 116
1, 99913, Note_off_c, 0, 75, 116
1, 99925, Note_on_c, 0, 79, 121
1, 100153, Note_off_c, 0, 79, 121
1, 100158, Note_on_c, 0, 78, 111
1, 100214, Note_off_c, 0, 78, 111
1, 100231, Note_on_c, 0, 77, 106
1, 100298, Note_off_c, 0, 77, 106
1, 100331, Note_on_c, 0, 74, 107
1, 100356, Note_off_c, 0, 74, 107
1, 100367, Note_on_c, 0, 73, 109
1, 100428, Note_off_c, 0, 73, 109
1, 100444, Note_on_c, 0, 72, 102
1, 100504, Note_off_c, 0, 72, 102
1, 100515, Note_on_c, 0, 71, 101
1, 100624, Note_off_c, 0, 71, 101
1, 100659, Note_on_c, 0, 70, 78
1, 100721, Note_off_c, 0, 70, 78
1, 100748, Note_on_c, 0, 68, 82
1, 100820, Note_off_c, 0, 68, 82
1, 100820, End_track
0, 0, End_of_file
