0, 0, Header, 1, 1, 192
1, 0, Start_track
1, 0, Title_t, "Melody"
1, 0, Tempo, 258620
1, 0, Time_signature, 1, 2, 24, 8
1, 4118, Note_on_c, 0, 74, 118
1, 4230, Note_off_c, 0, 74, 118
1, 4237, Note_on_c, 0, 70, 111
1, 4311, Note_off_c, 0, 70, 111
1, 4321, Note_on_c, 0, 67, 111
1, 4420, Note_off_c, 0, 67, 111
1, 4436, Note_on_c, 0, 62, 90
1, 4487, Note_off_c, 0, 62, 90
1, 4494, Note_on_c, 0, 67, 111
1, 4575, Note_off_c, 0, 67, 111
1, 4591, Note_on_c, 0, 70, 110
1, 4662, Note_off_c, 0, 70, 110
1, 4687, Note_on_c, 0, 74, 106
1, 4838, Note_off_c, 0, 74, 106
1, 5225, Note_on_c, 0, 74, 127
1, 5350, Note_off_c, 0, 74, 127
1, 5381, Note_on_c, 0, 72, 108
1, 5468, Note_off_c, 0, 72, 108
1, 5812, Note_on_c, 0, 62, 102
1, 5911, Note_off_c, 0, 62, 102
1, 5923, Note_on_c, 0, 63, 88
1, 5996, Note_off_c, 0, 63, 88
1, 6012, Note_on_c, 0, 67, 109
1, 6086, Note_off_c, 0, 67, 109
1, 6098, Note_on_c, 0, 70, 104
1, 6172, Note_off_c, 0, 70, 104
1, 6181, Note_on_c, 0, 74, 114
1, 6270, Note_off_c, 0, 74, 114
1, 6276, Note_on_c, 0, 72, 110
1, 6364, Note_off_c, 0, 72, 110
1, 6387, Note_on_c, 0, 70, 113
1, 6493, Note_off_c, 0, 70, 113
1, 6842, Note_on_c, 0, 69, 118
1, 6914, Note_off_c, 0, 69, 118
1, 6928, Note_on_c, 0, 67, 107
1, 7026, Note_off_c, 0, 67, 107
1, 7048, Note_on_c, 0, 65, 100
1, 7126, Note_off_c, 0, 65, 100
1, 7164, Note_on_c, 0, 60, 92
1, 7197, Note_off_c, 0, 60, 92
1, 7209, Note_on_c, 0, 70, 100
1, 7273, Note_off_c, 0, 70, 100
1, 7280, Note_on_c, 0, 75, 106
1, 7941, Note_off_c, 0, 75, 106
1, 7955, Note_on_c, 0, 74, 111
1, 8065, Note_off_c, 0, 74, 111
1, 8074, Note_on_c, 0, 72, 105
1, 8148, Note_off_c, 0, 72, 105
1, 8161, Note_on_c, 0, 70, 109
1, 8252, Note_off_c, 0, 70, 109
1, 8262, Note_on_c, 0, 69, 108
1, 8364, Note_off_c, 0, 69, 108
1, 8368, Note_on_c, 0, 67, 95
1, 8435, Note_off_c, 0, 67, 95
1, 8448, Note_on_c, 0, 70, 110
1, 8577, Note_off_c, 0, 70, 110
1, 8648, Note_on_c, 0, 65, 100
1, 8738, Note_off_c, 0, 65, 100
1, 8755, Note_on_c, 0, 63, 89
1, 8824, Note_off_c, 0, 63, 89
1, 8832, Note_on_c, 0, 69, 108
1, 8932, Note_off_c, 0, 69, 108
1, 8943, Note_on_c, 0, 67, 100
1, 9023, Note_off_c, 0, 67, 100
1, 9045, Note_on_c, 0, 65, 106
1, 9137, Note_off_c, 0, 65, 106
1, 9142, Note_on_c, 0, 63, 93
1, 9199, Note_off_c, 0, 63, 93
1, 9239, Note_on_c, 0, 67, 92
1, 9353, Note_off_c, 0, 67, 92
1, 9364, Note_on_c, 0, 63, 90
1, 9428, Note_off_c, 0, 63, 90
1, 9429, Note_on_c, 0, 64, 89
1, 9501, Note_off_c, 0, 64, 89
1, 9509, Note_on_c, 0, 65, 105
1, 9577, Note_off_c, 0, 65, 105
1, 9601, Note_on_c, 0, 62, 86
1, 9659, Note_off_c, 0, 62, 86
1, 9683, Note_on_c, 0, 60, 88
1, 9739, Note_off_c, 0, 60, 88
1, 9761, Note_on_c, 0, 63, 98
1, 9850, Note_off_c, 0, 63, 98
1, 9872, Note_on_c, 0, 60, 92
1, 10026, Note_off_c, 0, 60, 92
1, 10027, Note_on_c, 0, 62, 96
1, 10165, Note_off_c, 0, 62, 96
1, 10260, Note_on_c, 0, 58, 84
1, 10325, Note_off_c, 0, 58, 84
1, 10346, Note_on_c, 0, 60, 102
1, 10430, Note_off_c, 0, 60, 102
1, 10762, Note_on_c, 0, 62, 102
1, 10846, Note_off_c, 0, 62, 102
1, 10855, Note_on_c, 0, 63, 96
1, 10915, Note_off_c, 0, 63, 96
1, 10925, Note_on_c, 0, 65, 110
1, 11045, Note_off_c, 0, 65, 110
1, 11052, Note_on_c, 0, 66, 99
1, 11108, Note_off_c, 0, 66, 99
1, 11117, Note_on_c, 0, 67, 109
1, 11221, Note_off_c, 0, 67, 109
1, 11233, Note_on_c, 0, 65, 104
1, 11318, Note_off_c, 0, 65, 104
1, 11331, Note_on_c, 0, 63, 97
1, 11415, Note_off_c, 0, 63, 97
1, 11437, Note_on_c, 0, 60, 100
1, 11490, Note_off_c, 0, 60, 100
1, 11503, Note_on_c, 0, 61, 89
1, 11582, Note_off_c, 0, 61, 89
1, 11623, Note_on_c, 0, 62, 96
1, 11690, Note_off_c, 0, 62, 96
1, 11824, Note_on_c, 0, 63, 98
1, 11881, Note_off_c, 0, 63, 98
1, 12006, Note_on_c, 0, 61, 88
1, 12080, Note_off_c, 0, 61, 88
1, 12214, Note_on_c, 0, 56, 89
1, 12245, Note_off_c, 0, 56, 89
1, 12256, Note_on_c, 0, 58, 95
1, 12292, Note_off_c, 0, 58, 95
1, 12299, Note_on_c, 0, 59, 99
1, 12385, Note_off_c, 0, 59, 99
1, 12399, Note_on_c, 0, 61, 89
1, 12459, Note_off_c, 0, 61, 89
1, 12474, Note_on_c, 0, 63, 91
1, 12554, Note_off_c, 0, 63, 91
1, 12574, Note_on_c, 0, 58, 98
1, 12651, Note_off_c, 0, 58, 98
1, 12669, Note_on_c, 0, 56, 93
1, 12763, Note_off_c, 0, 56, 93
1, 12810, Note_on_c, 0, 64, 93
1, 12853, Note_off_c, 0, 64, 93
1, 13184, Note_on_c, 0, 68, 107
1, 13250, Note_off_c, 0, 68, 107
1, 13280, Note_on_c, 0, 66, 102
1, 13360, Note_off_c, 0, 66, 102
1, 13383, Note_on_c, 0, 71, 97
1, 13444, Note_off_c, 0, 71, 97
1, 13761, Note_on_c, 0, 72, 109
1, 13823, Note_off_c, 0, 72, 109
1, 13836, Note_on_c, 0, 71, 117
1, 13935, Note_off_c, 0, 71, 117
1, 13939, Note_on_c, 0, 72, 92
1, 14001, Note_off_c, 0, 72, 92
1, 14018, Note_on_c, 0, 74, 117
1, 14123, Note_off_c, 0, 74, 117
1, 14136, Note_on_c, 0, 72, 95
1, 14205, Note_off_c, 0, 72, 95
1, 14215, Note_on_c, 0, 71, 111
1, 14309, Note_off_c, 0, 71, 111
1, 14335, Note_on_c, 0, 68, 108
1, 14419, Note_off_c, 0, 68, 108
1, 14454, Note_on_c, 0, 66, 95
1, 14536, Note_off_c, 0, 66, 95
1, 14545, Note_on_c, 0, 63, 84
1, 14594, Note_off_c, 0, 63, 84
1, 14605, Note_on_c, 0, 69, 105
1, 14679, Note_off_c, 0, 69, 105
1, 14683, Note_on_c, 0, 70, 111
1, 14773, Note_off_c, 0, 70, 111
1, 14780, Note_on_c, 0, 71, 112
1, 14878, Note_off_c, 0, 71, 112
1, 15087, Note_on_c, 0, 71, 104
1, 15340, Note_off_c, 0, 71, 104
1, 15349, Note_on_c, 0, 73, 106
1, 15519, Note_off_c, 0, 73, 106
1, 15523, Note_on_c, 0, 70, 116
1, 15619, Note_off_c, 0, 70, 116
1, 15633, Note_on_c, 0, 69, 110
1, 15693, Note_off_c, 0, 69, 110
1, 15700, Note_on_c, 0, 65, 89
1, 15742, Note_off_c, 0, 65, 89
1, 15748, Note_on_c, 0, 66, 90
1, 15791, Note_off_c, 0, 66, 90
1, 15792, Note_on_c, 0, 67, 109
1, 15895, Note_off_c, 0, 67, 109
1, 15909, Note_on_c, 0, 63, 97
1, 15991, Note_off_c, 0, 63, 97
1, 16012, Note_on_c, 0, 60, 94
1, 16070, Note_off_c, 0, 60, 94
1, 16083, Note_on_c, 0, 58, 90
1, 16133, Note_off_c, 0, 58, 90
1, 16178, Note_on_c, 0, 62, 96
1, 16240, Note_off_c, 0, 62, 96
1, 16259, Note_on_c, 0, 63, 95
1, 16322, Note_off_c, 0, 63, 95
1, 16347, Note_on_c, 0, 64, 93
1, 16411, Note_off_c, 0, 64, 93
1, 16458, Note_on_c, 0, 64, 94
1, 16570, Note_off_c, 0, 64, 94
1, 16611, Note_on_c, 0, 65, 103
1, 16689, Note_off_c, 0, 65, 103
1, 16737, Note_on_c, 0, 62, 89
1, 16784, Note_off_c, 0, 62, 89
1, 16803, Note_on_c, 0, 58, 94
1, 16865, Note_off_c, 0, 58, 94
1, 16886, Note_on_c, 0, 63, 100
1, 16945, Note_off_c, 0, 63, 100
1, 17033, Note_on_c, 0, 70, 109
1, 17159, Note_off_c, 0, 70, 109
1, 17169, Note_on_c, 0, 73, 111
1, 17247, Note_off_c, 0, 73, 111
1, 17263, Note_on_c, 0, 74, 114
1, 17358, Note_off_c, 0, 74, 114
1, 17372, Note_on_c, 0, 76, 115
1, 17429, Note_off_c, 0, 76, 115
1, 17440, Note_on_c, 0, 77, 116
1, 17493, Note_off_c, 0, 77, 116
1, 17504, Note_on_c, 0, 78, 113
1, 17575, Note_off_c, 0, 78, 113
1, 17607, Note_on_c, 0, 76, 106
1, 17748, Note_off_c, 0, 76, 106
1, 18296, Note_on_c, 0, 72, 111
1, 18570, Note_off_c, 0, 72, 111
1, 18574, Note_on_c, 0, 69, 103
1, 18690, Note_off_c, 0, 69, 103
1, 18699, Note_on_c, 0, 65, 94
1, 18949, Note_off_c, 0, 65, 94
1, 20089, Note_on_c, 0, 70, 116
1, 21067, Note_off_c, 0, 70, 116
1, 21113, Note_on_c, 0, 65, 94
1, 21250, Note_off_c, 0, 65, 94
1, 21312, Note_on_c, 0, 65, 89
1, 21408, Note_off_c, 0, 65, 89
1, 21424, Note_on_c, 0, 58, 74
1, 21495, Note_off_c, 0, 58, 74
1, 21508, Note_on_c, 0, 63, 90
1, 21586, Note_off_c, 0, 63, 90
1, 21598, Note_on_c, 0, 58, 85
1, 21647, Note_off_c, 0, 58, 85
1, 21665, Note_on_c, 0, 61, 84
1, 21793, Note_off_c, 0, 61, 84
1, 21808, Note_on_c, 0, 58, 92
1, 21861, Note_off_c, 0, 58, 92
1, 22817, Note_on_c, 0, 62, 102
1, 22923, Note_off_c, 0, 62, 102
1, 22935, Note_on_c, 0, 63, 98
1, 23016, Note_off_c, 0, 63, 98
1, 23038, Note_on_c, 0, 65, 109
1, 23347, Note_off_c, 0, 65, 109
1, 23437, Note_on_c, 0, 62, 98
1, 23571, Note_off_c, 0, 62, 98
1, 24196, Note_on_c, 0, 63, 106
1, 24309, Note_off_c, 0, 63, 106
1, 24318, Note_on_c, 0, 62, 95
1, 24393, Note_off_c, 0, 62, 95
1, 24399, Note_on_c, 0, 63, 101
1, 24478, Note_off_c, 0, 63, 101
1, 24532, Note_on_c, 0, 67, 95
1, 24586, Note_off_c, 0, 67, 95
1, 24592, Note_on_c, 0, 70, 114
1, 24698, Note_off_c, 0, 70, 114
1, 24707, Note_on_c, 0, 71, 114
1, 24791, Note_off_c, 0, 71, 114
1, 24799, Note_on_c, 0, 72, 92
1, 24887, Note_off_c, 0, 72, 92
1, 24897, Note_on_c, 0, 69, 112
1, 24999, Note_off_c, 0, 69, 112
1, 25100, Note_on_c, 0, 67, 104
1, 25171, Note_off_c, 0, 67, 104
1, 25184, Note_on_c, 0, 63, 87
1, 25266, Note_off_c, 0, 63, 87
1, 25280, Note_on_c, 0, 65, 77
1, 25337, Note_off_c, 0, 65, 77
1, 25391, Note_on_c, 0, 69, 96
1, 25489, Note_off_c, 0, 69, 96
1, 25931, Note_on_c, 0, 68, 116
1, 26069, Note_off_c, 0, 68, 116
1, 26081, Note_on_c, 0, 67, 107
1, 26173, Note_off_c, 0, 67, 107
1, 26274, Note_on_c, 0, 65, 105
1, 26347, Note_off_c, 0, 65, 105
1, 26361, Note_on_c, 0, 63, 99
1, 26427, Note_off_c, 0, 63, 99
1, 26437, Note_on_c, 0, 58, 104
1, 26514, Note_off_c, 0, 58, 104
1, 26525, Note_on_c, 0, 61, 95
1, 26606, Note_off_c, 0, 61, 95
1, 26712, Note_on_c, 0, 65, 107
1, 26770, Note_off_c, 0, 65, 107
1, 26784, Note_on_c, 0, 66, 109
1, 26871, Note_off_c, 0, 66, 109
1, 26880, Note_on_c, 0, 67, 106
1, 26943, Note_off_c, 0, 67, 106
1, 27403, Note_on_c, 0, 65, 116
1, 27485, Note_off_c, 0, 65, 116
1, 27494, Note_on_c, 0, 63, 107
1, 27567, Note_off_c, 0, 63, 107
1, 27619, Note_on_c, 0, 58, 108
1, 27690, Note_off_c, 0, 58, 108
1, 27719, Note_on_c, 0, 61, 87
1, 27834, Note_off_c, 0, 61, 87
1, 28868, Note_on_c, 0, 52, 109
1, 28945, Note_off_c, 0, 52, 109
1, 28947, Note_on_c, 0, 54, 108
1, 29045, Note_off_c, 0, 54, 108
1, 29062, Note_on_c, 0, 58, 113
1, 29155, Note_off_c, 0, 58, 113
1, 29168, Note_on_c, 0, 60, 115
1, 29250, Note_off_c, 0, 60, 115
1, 29261, Note_on_c, 0, 61, 111
1, 29335, Note_off_c, 0, 61, 111
1, 29365, Note_on_c, 0, 62, 105
1, 29415, Note_off_c, 0, 62, 105
1, 29429, Note_on_c, 0, 62, 112
1, 29481, Note_off_c, 0, 62, 112
1, 29486, Note_on_c, 0, 63, 104
1, 29571, Note_off_c, 0, 63, 104
1, 29595, Note_on_c, 0, 64, 102
1, 29637, Note_off_c, 0, 64, 102
1, 29659, Note_on_c, 0, 65, 113
1, 29721, Note_off_c, 0, 65, 113
1, 29749, Note_on_c, 0, 67, 110
1, 29830, Note_off_c, 0, 67, 110
1, 29844, Note_on_c, 0, 68, 116
1, 29941, Note_off_c, 0, 68, 116
1, 29951, Note_on_c, 0, 67, 114
1, 30044, Note_off_c, 0, 67, 114
1, 30062, Note_on_c, 0, 65, 102
1, 30150, Note_off_c, 0, 65, 102
1, 30154, Note_on_c, 0, 63, 101
1, 30218, Note_off_c, 0, 63, 101
1, 30236, Note_on_c, 0, 60, 100
1, 30339, Note_off_c, 0, 60, 100
1, 30355, Note_on_c, 0, 61, 95
1, 30425, Note_off_c, 0, 61, 95
1, 30440, Note_on_c, 0, 62, 100
1, 30515, Note_off_c, 0, 62, 100
1, 30565, Note_on_c, 0, 67, 115
1, 30657, Note_off_c, 0, 67, 115
1, 30667, Note_on_c, 0, 64, 94
1, 30709, Note_off_c, 0, 64, 94
1, 30720, Note_on_c, 0, 62, 95
1, 30759, Note_off_c, 0, 62, 95
1, 30775, Note_on_c, 0, 60, 94
1, 30814, Note_off_c, 0, 60, 94
1, 30828, Note_on_c, 0, 70, 105
1, 30970, Note_off_c, 0, 70, 105
1, 30977, Note_on_c, 0, 68, 106
1, 31065, Note_off_c, 0, 68, 106
1, 31110, Note_on_c, 0, 69, 114
1, 31163, Note_off_c, 0, 69, 114
1, 31328, Note_on_c, 0, 68, 110
1, 31446, Note_off_c, 0, 68, 110
1, 31791, Note_on_c, 0, 66, 109
1, 31842, Note_off_c, 0, 66, 109
1, 31854, Note_on_c, 0, 67, 111
1, 31903, Note_off_c, 0, 67, 111
1, 31910, Note_on_c, 0, 68, 121
1, 31984, Note_off_c, 0, 68, 121
1, 31995, Note_on_c, 0, 69, 117
1, 32082, Note_off_c, 0, 69, 117
1, 32089, Note_on_c, 0, 70, 113
1, 32165, Note_off_c, 0, 70, 113
1, 32170, Note_on_c, 0, 72, 106
1, 32234, Note_off_c, 0, 72, 106
1, 32243, Note_on_c, 0, 73, 107
1, 32302, Note_off_c, 0, 73, 107
1, 32308, Note_on_c, 0, 75, 113
1, 32389, Note_off_c, 0, 75, 113
1, 32397, Note_on_c, 0, 76, 109
1, 32479, Note_off_c, 0, 76, 109
1, 32497, Note_on_c, 0, 67, 116
1, 32597, Note_off_c, 0, 67, 116
1, 32605, Note_on_c, 0, 62, 90
1, 32652, Note_off_c, 0, 62, 90
1, 32687, Note_on_c, 0, 60, 95
1, 32724, Note_off_c, 0, 60, 95
1, 32731, Note_on_c, 0, 63, 89
1, 32764, Note_off_c, 0, 63, 89
1, 32787, Note_on_c, 0, 66, 100
1, 32889, Note_off_c, 0, 66, 100
1, 33171, Note_on_c, 0, 53, 108
1, 33291, Note_off_c, 0, 53, 108
1, 33837, Note_on_c, 0, 67, 113
1, 33960, Note_off_c, 0, 67, 113
1, 34040, Note_on_c, 0, 71, 114
1, 34148, Note_off_c, 0, 71, 114
1, 34204, Note_on_c, 0, 67, 119
1, 34302, Note_off_c, 0, 67, 119
1, 34313, Note_on_c, 0, 66, 103
1, 34484, Note_off_c, 0, 66, 103
1, 34498, Note_on_c, 0, 69, 114
1, 34597, Note_off_c, 0, 69, 114
1, 34606, Note_on_c, 0, 65, 107
1, 34693, Note_off_c, 0, 65, 107
1, 34702, Note_on_c, 0, 64, 99
1, 34812, Note_off_c, 0, 64, 99
1, 34827, Note_on_c, 0, 65, 112
1, 34892, Note_off_c, 0, 65, 112
1, 34913, Note_on_c, 0, 63, 101
1, 34969, Note_off_c, 0, 63, 101
1, 34996, Note_on_c, 0, 60, 99
1, 35072, Note_off_c, 0, 60, 99
1, 35084, Note_on_c, 0, 61, 92
1, 35191, Note_off_c, 0, 61, 92
1, 35205, Note_on_c, 0, 65, 107
1, 35273, Note_off_c, 0, 65, 107
1, 35281, Note_on_c, 0, 61, 85
1, 35347, Note_off_c, 0, 61, 85
1, 35387, Note_on_c, 0, 58, 99
1, 35446, Note_off_c, 0, 58, 99
1, 35470, Note_on_c, 0, 63, 97
1, 35555, Note_off_c, 0, 63, 97
1, 35573, Note_on_c, 0, 67, 105
1, 35641, Note_off_c, 0, 67, 105
1, 35651, Note_on_c, 0, 63, 99
1, 35733, Note_off_c, 0, 63, 99
1, 35755, Note_on_c, 0, 58, 98
1, 35840, Note_off_c, 0, 58, 98
1, 35859, Note_on_c, 0, 64, 100
1, 35944, Note_off_c, 0, 64, 100
1, 35960, Note_on_c, 0, 65, 114
1, 36044, Note_off_c, 0, 65, 114
1, 36059, Note_on_c, 0, 61, 82
1, 36143, Note_off_c, 0, 61, 82
1, 36602, Note_on_c, 0, 63, 108
1, 36718, Note_off_c, 0, 63, 108
1, 36729, Note_on_c, 0, 65, 113
1, 36807, Note_off_c, 0, 65, 113
1, 36825, Note_on_c, 0, 61, 100
1, 36897, Note_off_c, 0, 61, 100
1, 36910, Note_on_c, 0, 65, 104
1, 36965, Note_off_c, 0, 65, 104
1, 36977, Note_on_c, 0, 70, 118
1, 37029, Note_off_c, 0, 70, 118
1, 37043, Note_on_c, 0, 69, 112
1, 37107, Note_off_c, 0, 69, 112
1, 37115, Note_on_c, 0, 71, 116
1, 37242, Note_off_c, 0, 71, 116
1, 37309, Note_on_c, 0, 70, 116
1, 37421, Note_off_c, 0, 70, 116
1, 37512, Note_on_c, 0, 65, 108
1, 37620, Note_off_c, 0, 65, 108
1, 37626, Note_on_c, 0, 63, 91
1, 37731, Note_off_c, 0, 63, 91
1, 37736, Note_on_c, 0, 58, 91
1, 37786, Note_off_c, 0, 58, 91
1, 37803, Note_on_c, 0, 61, 87
1, 37909, Note_off_c, 0, 61, 87
1, 38508, Note_on_c, 0, 66, 114
1, 38555, Note_off_c, 0, 66, 114
1, 38576, Note_on_c, 0, 67, 114
1, 38869, Note_off_c, 0, 67, 114
1, 38890, Note_on_c, 0, 68, 118
1, 39235, Note_off_c, 0, 68, 118
1, 39277, Note_on_c, 0, 65, 97
1, 39352, Note_off_c, 0, 65, 97
1, 40227, Note_on_c, 0, 67, 124
1, 40305, Note_off_c, 0, 67, 124
1, 40321, Note_on_c, 0, 68, 117
1, 40433, Note_off_c, 0, 68, 117
1, 40490, Note_on_c, 0, 64, 94
1, 40605, Note_off_c, 0, 64, 94
1, 40697, Note_on_c, 0, 63, 94
1, 40804, Note_off_c, 0, 63, 94
1, 40899, Note_on_c, 0, 61, 85
1, 41035, Note_off_c, 0, 61, 85
1, 41101, Note_on_c, 0, 61, 87
1, 41163, Note_off_c, 0, 61, 87
1, 41206, Note_on_c, 0, 63, 95
1, 41293, Note_off_c, 0, 63, 95
1, 41521, Note_on_c, 0, 58, 84
1, 41592, Note_off_c, 0, 58, 84
1, 41603, Note_on_c, 0, 61, 88
1, 41684, Note_off_c, 0, 61, 88
1, 41703, Note_on_c, 0, 62, 94
1, 41760, Note_off_c, 0, 62, 94
1, 41771, Note_on_c, 0, 63, 104
1, 41867, Note_off_c, 0, 63, 104
1, 41886, Note_on_c, 0, 64, 96
1, 41966, Note_off_c, 0, 64, 96
1, 41978, Note_on_c, 0, 65, 113
1, 42066, Note_off_c, 0, 65, 113
1, 42072, Note_on_c, 0, 67, 118
1, 42176, Note_off_c, 0, 67, 118
1, 42191, Note_on_c, 0, 71, 100
1, 42234, Note_off_c, 0, 71, 100
1, 42255, Note_on_c, 0, 68, 109
1, 42362, Note_off_c, 0, 68, 109
1, 42388, Note_on_c, 0, 69, 93
1, 42430, Note_off_c, 0, 69, 93
1, 43610, Note_on_c, 0, 68, 115
1, 43731, Note_off_c, 0, 68, 115
1, 43746, Note_on_c, 0, 70, 106
1, 43796, Note_off_c, 0, 70, 106
1, 43801, Note_on_c, 0, 71, 106
1, 43924, Note_off_c, 0, 71, 106
1, 43941, Note_on_c, 0, 73, 109
1, 43991, Note_off_c, 0, 73, 109
1, 44017, Note_on_c, 0, 73, 115
1, 44078, Note_off_c, 0, 73, 115
1, 44084, Note_on_c, 0, 75, 111
1, 44153, Note_off_c, 0, 75, 111
1, 44162, Note_on_c, 0, 76, 115
1, 44225, Note_off_c, 0, 76, 115
1, 44243, Note_on_c, 0, 75, 9
1, 44323, Note_off_c, 0, 75, 9
1, 44337, Note_on_c, 0, 72, 98
1, 44403, Note_off_c, 0, 72, 98
1, 44441, Note_on_c, 0, 73, 110
1, 44503, Note_off_c, 0, 73, 110
1, 44539, Note_on_c, 0, 70, 108
1, 44598, Note_off_c, 0, 70, 108
1, 44608, Note_on_c, 0, 68, 111
1, 44704, Note_off_c, 0, 68, 111
1, 44735, Note_on_c, 0, 63, 94
1, 44784, Note_off_c, 0, 63, 94
1, 44799, Note_on_c, 0, 71, 105
1, 44881, Note_off_c, 0, 71, 105
1, 44892, Note_on_c, 0, 72, 107
1, 44932, Note_off_c, 0, 72, 107
1, 44948, Note_on_c, 0, 71, 109
1, 44974, Note_off_c, 0, 71, 109
1, 44991, Note_on_c, 0, 68, 110
1, 45072, Note_off_c, 0, 68, 110
1, 45093, Note_on_c, 0, 66, 95
1, 45155, Note_off_c, 0, 66, 95
1, 45165, Note_on_c, 0, 68, 112
1, 45277, Note_off_c, 0, 68, 112
1, 45299, Note_on_c, 0, 70, 98
1, 45486, Note_off_c, 0, 70, 98
1, 46617, Note_on_c, 0, 79, 107
1, 47276, Note_off_c, 0, 79, 107
1, 47287, Note_on_c, 0, 76, 104
1, 47379, Note_off_c, 0, 76, 104
1, 47399, Note_on_c, 0, 74, 109
1, 47502, Note_off_c, 0, 74, 109
1, 47525, Note_on_c, 0, 74, 108
1, 47586, Note_off_c, 0, 74, 108
1, 47608, Note_on_c, 0, 73, 98
1, 47674, Note_off_c, 0, 73, 98
1, 47685, Note_on_c, 0, 72, 111
1, 47782, Note_off_c, 0, 72, 111
1, 47803, Note_on_c, 0, 71, 108
1, 47907, Note_off_c, 0, 71, 108
1, 47913, Note_on_c, 0, 70, 106
1, 47956, Note_off_c, 0, 70, 106
1, 47972, Note_on_c, 0, 65, 102
1, 48071, Note_off_c, 0, 65, 102
1, 48188, Note_on_c, 0, 60, 92
1, 48251, Note_off_c, 0, 60, 92
1, 48270, Note_on_c, 0, 69, 97
1, 48358, Note_off_c, 0, 69, 97
1, 48426, Note_on_c, 0, 68, 108
1, 48540, Note_off_c, 0, 68, 108
1, 48571, Note_on_c, 0, 66, 94
1, 48615, Note_off_c, 0, 66, 94
1, 48627, Note_on_c, 0, 67, 99
1, 48702, Note_off_c, 0, 67, 99
1, 48731, Note_on_c, 0, 63, 94
1, 48813, Note_off_c, 0, 63, 94
1, 48829, Note_on_c, 0, 60, 98
1, 48916, Note_off_c, 0, 60, 98
1, 48932, Note_on_c, 0, 59, 102
1, 49004, Note_off_c, 0, 59, 102
1, 49016, Note_on_c, 0, 58, 96
1, 49132, Note_off_c, 0, 58, 96
1, 49555, Note_on_c, 0, 74, 112
1, 50721, Note_off_c, 0, 74, 112
1, 50733, Note_on_c, 0, 75, 107
1, 50879, Note_off_c, 0, 75, 107
1, 51609, Note_on_c, 0, 71, 111
1, 51697, Note_off_c, 0, 71, 111
1, 51708, Note_on_c, 0, 70, 116
1, 51799, Note_off_c, 0, 70, 116
1, 51810, Note_on_c, 0, 69, 106
1, 51933, Note_off_c, 0, 69, 106
1, 52778, Note_on_c, 0, 59, 112
1, 53143, Note_off_c, 0, 59, 112
1, 53155, Note_on_c, 0, 71, 108
1, 53216, Note_off_c, 0, 71, 108
1, 53243, Note_on_c, 0, 69, 101
1, 53343, Note_off_c, 0, 69, 101
1, 54312, Note_on_c, 0, 62, 83
1, 54359, Note_off_c, 0, 62, 83
1, 54375, Note_on_c, 0, 74, 107
1, 54468, Note_off_c, 0, 74, 107
1, 54474, Note_on_c, 0, 72, 97
1, 54503, Note_off_c, 0, 72, 97
1, 54503, Note_on_c, 0, 64, 93
1, 54553, Note_off_c, 0, 64, 93
1, 54570, Note_on_c, 0, 68, 88
1, 54672, Note_off_c, 0, 68, 88
1, 54702, Note_on_c, 0, 64, 82
1, 54744, Note_off_c, 0, 64, 82
1, 54769, Note_on_c, 0, 70, 91
1, 54891, Note_off_c, 0, 70, 91
1, 54891, Note_on_c, 0, 64, 89
1, 54951, Note_off_c, 0, 64, 89
1, 54981, Note_on_c, 0, 71, 110
1, 55061, Note_off_c, 0, 71, 110
1, 55080, Note_on_c, 0, 64, 88
1, 55140, Note_off_c, 0, 64, 88
1, 55154, Note_on_c, 0, 69, 107
1, 55271, Note_off_c, 0, 69, 107
1, 55288, Note_on_c, 0, 68, 107
1, 55355, Note_off_c, 0, 68, 107
1, 55443, Note_on_c, 0, 76, 110
1, 55531, Note_off_c, 0, 76, 110
1, 55639, Note_on_c, 0, 67, 114
1, 55721, Note_off_c, 0, 67, 114
1, 55737, Note_on_c, 0, 63, 94
1, 55781, Note_off_c, 0, 63, 94
1, 55835, Note_on_c, 0, 60, 96
1, 55891, Note_off_c, 0, 60, 96
1, 55911, Note_on_c, 0, 67, 108
1, 55986, Note_off_c, 0, 67, 108
1, 56039, Note_on_c, 0, 63, 91
1, 56076, Note_off_c, 0, 63, 91
1, 56104, Note_on_c, 0, 66, 100
1, 56192, Note_off_c, 0, 66, 100
1, 56222, Note_on_c, 0, 63, 83
1, 56261, Note_off_c, 0, 63, 83
1, 56277, Note_on_c, 0, 65, 111
1, 56378, Note_off_c, 0, 65, 111
1, 56415, Note_on_c, 0, 63, 94
1, 56507, Note_off_c, 0, 63, 94
1, 56528, Note_on_c, 0, 63, 96
1, 56668, Note_off_c, 0, 63, 96
1, 56761, Note_on_c, 0, 74, 115
1, 56857, Note_off_c, 0, 74, 115
1, 56951, Note_on_c, 0, 62, 96
1, 57043, Note_off_c, 0, 62, 96
1, 57124, Note_on_c, 0, 62, 93
1, 57224, Note_off_c, 0, 62, 93
1, 57331, Note_on_c, 0, 65, 86
1, 57380, Note_off_c, 0, 65, 86
1, 57415, Note_on_c, 0, 76, 105
1, 57539, Note_off_c, 0, 76, 105
1, 58110, Note_on_c, 0, 67, 98
1, 58214, Note_off_c, 0, 67, 98
1, 58294, Note_on_c, 0, 76, 113
1, 58399, Note_off_c, 0, 76, 113
1, 58487, Note_on_c, 0, 67, 91
1, 58541, Note_off_c, 0, 67, 91
1, 58559, Note_on_c, 0, 74, 115
1, 58672, Note_off_c, 0, 74, 115
1, 58754, Note_on_c, 0, 66, 108
1, 58831, Note_off_c, 0, 66, 108
1, 58850, Note_on_c, 0, 63, 91
1, 58887, Note_off_c, 0, 63, 91
1, 58920, Note_on_c, 0, 65, 105
1, 58990, Note_off_c, 0, 65, 105
1, 59049, Note_on_c, 0, 62, 108
1, 59126, Note_off_c, 0, 62, 108
1, 59148, Note_on_c, 0, 72, 102
1, 59260, Note_off_c, 0, 72, 102
1, 59270, Note_on_c, 0, 69, 94
1, 59335, Note_off_c, 0, 69, 94
1, 59345, Note_on_c, 0, 70, 109
1, 59422, Note_off_c, 0, 70, 109
1, 59678, Note_on_c, 0, 62, 88
1, 59798, Note_off_c, 0, 62, 88
1, 59841, Note_on_c, 0, 65, 107
1, 59927, Note_off_c, 0, 65, 107
1, 59942, Note_on_c, 0, 62, 91
1, 60016, Note_off_c, 0, 62, 91
1, 60035, Note_on_c, 0, 58, 92
1, 60084, Note_off_c, 0, 58, 92
1, 60119, Note_on_c, 0, 63, 100
1, 60238, Note_off_c, 0, 63, 100
1, 60420, Note_on_c, 0, 67, 113
1, 60536, Note_off_c, 0, 67, 113
1, 60599, Note_on_c, 0, 72, 113
1, 60727, Note_off_c, 0, 72, 113
1, 60734, Note_on_c, 0, 68, 86
1, 60771, Note_off_c, 0, 68, 86
1, 60788, Note_on_c, 0, 66, 83
1, 60807, Note_off_c, 0, 66, 83
1, 60825, Note_on_c, 0, 63, 91
1, 60868, Note_off_c, 0, 63, 91
1, 60882, Note_on_c, 0, 70, 108
1, 60980, Note_off_c, 0, 70, 108
1, 61064, Note_on_c, 0, 65, 112
1, 61174, Note_off_c, 0, 65, 112
1, 61182, Note_on_c, 0, 62, 83
1, 61248, Note_off_c, 0, 62, 83
1, 61389, Note_on_c, 0, 65, 113
1, 61470, Note_off_c, 0, 65, 113
1, 61492, Note_on_c, 0, 62, 89
1, 61553, Note_off_c, 0, 62, 89
1, 61570, Note_on_c, 0, 58, 92
1, 61618, Note_off_c, 0, 58, 92
1, 61637, Note_on_c, 0, 63, 104
1, 61730, Note_off_c, 0, 63, 104
1, 61915, Note_on_c, 0, 63, 93
1, 62020, Note_off_c, 0, 63, 93
1, 62101, Note_on_c, 0, 72, 106
1, 62223, Note_off_c, 0, 72, 106
1, 62232, Note_on_c, 0, 69, 89
1, 62286, Note_off_c, 0, 69, 89
1, 62296, Note_on_c, 0, 67, 99
1, 62350, Note_off_c, 0, 67, 99
1, 62368, Note_on_c, 0, 70, 114
1, 62455, Note_off_c, 0, 70, 114
1, 62673, Note_on_c, 0, 62, 92
1, 62786, Note_off_c, 0, 62, 92
1, 62831, Note_on_c, 0, 65, 113
1, 62924, Note_off_c, 0, 65, 113
1, 62935, Note_on_c, 0, 62, 90
1, 62999, Note_off_c, 0, 62, 90
1, 63022, Note_on_c, 0, 58, 93
1, 63079, Note_off_c, 0, 58, 93
1, 63101, Note_on_c, 0, 63, 104
1, 63192, Note_off_c, 0, 63, 104
1, 63429, Note_on_c, 0, 67, 99
1, 63508, Note_off_c, 0, 67, 99
1, 63607, Note_on_c, 0, 71, 110
1, 63723, Note_off_c, 0, 71, 110
1, 63741, Note_on_c, 0, 69, 95
1, 63780, Note_off_c, 0, 69, 95
1, 63796, Note_on_c, 0, 67, 99
1, 63860, Note_off_c, 0, 67, 99
1, 63869, Note_on_c, 0, 70, 106
1, 63979, Note_off_c, 0, 70, 106
1, 64254, Note_on_c, 0, 61, 94
1, 64501, Note_off_c, 0, 61, 94
1, 64535, Note_on_c, 0, 68, 112
1, 65198, Note_off_c, 0, 68, 112
1, 65539, Note_on_c, 0, 67, 120
1, 65650, Note_off_c, 0, 67, 120
1, 65676, Note_on_c, 0, 68, 114
1, 65789, Note_off_c, 0, 68, 114
1, 65792, Note_on_c, 0, 67, 110
1, 65876, Note_off_c, 0, 67, 110
1, 65892, Note_on_c, 0, 65, 109
1, 65964, Note_off_c, 0, 65, 109
1, 65981, Note_on_c, 0, 63, 101
1, 66055, Note_off_c, 0, 63, 101
1, 66087, Note_on_c, 0, 58, 100
1, 66140, Note_off_c, 0, 58, 100
1, 66169, Note_on_c, 0, 66, 105
1, 66273, Note_off_c, 0, 66, 105
1, 66301, Note_on_c, 0, 71, 105
1, 66537, Note_off_c, 0, 71, 105
1, 67623, Note_on_c, 0, 66, 104
1, 67776, Note_off_c, 0, 66, 104
1, 67785, Note_on_c, 0, 70, 113
1, 67853, Note_off_c, 0, 70, 113
1, 67871, Note_on_c, 0, 73, 106
1, 67969, Note_off_c, 0, 73, 106
1, 67983, Note_on_c, 0, 66, 79
1, 68034, Note_off_c, 0, 66, 79
1, 68039, Note_on_c, 0, 70, 112
1, 68170, Note_off_c, 0, 70, 112
1, 68234, Note_on_c, 0, 65, 109
1, 68343, Note_off_c, 0, 65, 109
1, 68354, Note_on_c, 0, 63, 88
1, 68419, Note_off_c, 0, 63, 88
1, 68423, Note_on_c, 0, 69, 105
1, 68571, Note_off_c, 0, 69, 105
1, 68598, Note_on_c, 0, 65, 89
1, 68647, Note_off_c, 0, 65, 89
1, 68712, Note_on_c, 0, 68, 116
1, 68860, Note_off_c, 0, 68, 116
1, 68962, Note_on_c, 0, 67, 98
1, 69205, Note_off_c, 0, 67, 98
1, 69251, Note_on_c, 0, 71, 111
1, 69296, Note_off_c, 0, 71, 111
1, 69308, Note_on_c, 0, 67, 113
1, 69411, Note_off_c, 0, 67, 113
1, 69426, Note_on_c, 0, 63, 95
1, 69509, Note_off_c, 0, 63, 95
1, 69539, Note_on_c, 0, 70, 110
1, 69632, Note_off_c, 0, 70, 110
1, 69725, Note_on_c, 0, 65, 105
1, 69814, Note_off_c, 0, 65, 105
1, 69842, Note_on_c, 0, 62, 85
1, 69891, Note_off_c, 0, 62, 85
1, 69923, Note_on_c, 0, 69, 107
1, 69975, Note_off_c, 0, 69, 107
1, 70803, Note_on_c, 0, 71, 103
1, 70855, Note_off_c, 0, 71, 103
1, 70866, Note_on_c, 0, 74, 110
1, 70971, Note_off_c, 0, 74, 110
1, 71058, Note_on_c, 0, 70, 113
1, 71207, Note_off_c, 0, 70, 113
1, 71447, Note_on_c, 0, 65, 104
1, 71578, Note_off_c, 0, 65, 104
1, 71634, Note_on_c, 0, 67, 111
1, 71733, Note_off_c, 0, 67, 111
1, 71760, Note_on_c, 0, 65, 107
1, 71850, Note_off_c, 0, 65, 107
1, 71931, Note_on_c, 0, 65, 93
1, 71995, Note_off_c, 0, 65, 93
1, 72001, Note_on_c, 0, 62, 99
1, 72116, Note_off_c, 0, 62, 99
1, 72370, Note_on_c, 0, 63, 101
1, 72488, Note_off_c, 0, 63, 101
1, 72625, Note_on_c, 0, 60, 96
1, 72712, Note_off_c, 0, 60, 96
1, 72988, Note_on_c, 0, 62, 96
1, 73114, Note_off_c, 0, 62, 96
1, 73145, Note_on_c, 0, 58, 91
1, 73242, Note_off_c, 0, 58, 91
1, 73257, Note_on_c, 0, 60, 105
1, 73339, Note_off_c, 0, 60, 105
1, 73448, Note_on_c, 0, 57, 93
1, 73498, Note_off_c, 0, 57, 93
1, 73510, Note_on_c, 0, 58, 104
1, 73596, Note_off_c, 0, 58, 104
1, 74379, Note_on_c, 0, 65, 101
1, 75919, Note_off_c, 0, 65, 101
1, 75964, Note_on_c, 0, 62, 101
1, 76142, Note_off_c, 0, 62, 101
1, 76614, Note_on_c, 0, 65, 105
1, 76845, Note_off_c, 0, 65, 105
1, 76865, Note_on_c, 0, 67, 113
1, 76974, Note_off_c, 0, 67, 113
1, 76985, Note_on_c, 0, 65, 106
1, 77041, Note_off_c, 0, 65, 106
1, 77065, Note_on_c, 0, 62, 103
1, 77177, Note_off_c, 0, 62, 103
1, 77395, Note_on_c, 0, 58, 97
1, 77607, Note_off_c, 0, 58, 97
1, 77628, Note_on_c, 0, 60, 101
1, 77737, Note_off_c, 0, 60, 101
1, 77760, Note_on_c, 0, 58, 94
1, 77813, Note_off_c, 0, 58, 94
1, 77824, Note_on_c, 0, 62, 103
1, 77917, Note_off_c, 0, 62, 103
1, 77945, Note_on_c, 0, 65, 103
1, 78004, Note_off_c, 0, 65, 103
1, 78022, Note_on_c, 0, 67, 110
1, 78110, Note_off_c, 0, 67, 110
1, 78133, Note_on_c, 0, 62, 92
1, 78191, Note_off_c, 0, 62, 92
1, 78213, Note_on_c, 0, 65, 111
1, 78297, Note_off_c, 0, 65, 111
1, 78402, Note_on_c, 0, 67, 94
1, 78465, Note_off_c, 0, 67, 94
1, 78530, Note_on_c, 0, 60, 95
1, 78581, Note_off_c, 0, 60, 95
1, 78593, Note_on_c, 0, 60, 99
1, 78658, Note_off_c, 0, 60, 99
1, 78897, Note_on_c, 0, 62, 94
1, 78930, Note_off_c, 0, 62, 94
1, 78935, Note_on_c, 0, 68, 87
1, 78970, Note_off_c, 0, 68, 87
1, 79073, Note_on_c, 0, 62, 97
1, 79185, Note_off_c, 0, 62, 97
1, 79232, Note_on_c, 0, 58, 100
1, 79285, Note_off_c, 0, 58, 100
1, 79325, Note_on_c, 0, 63, 98
1, 79418, Note_off_c, 0, 63, 98
1, 79521, Note_on_c, 0, 67, 111
1, 79614, Note_off_c, 0, 67, 111
1, 80049, Note_on_c, 0, 70, 114
1, 80168, Note_off_c, 0, 70, 114
1, 80280, Note_on_c, 0, 60, 91
1, 80359, Note_off_c, 0, 60, 91
1, 80406, Note_on_c, 0, 62, 93
1, 80468, Note_off_c, 0, 62, 93
1, 80494, Note_on_c, 0, 63, 100
1, 80618, Note_off_c, 0, 63, 100
1, 81129, Note_on_c, 0, 69, 115
1, 81278, Note_off_c, 0, 69, 115
1, 81423, Note_on_c, 0, 58, 93
1, 81516, Note_off_c, 0, 58, 93
1, 81537, Note_on_c, 0, 59, 99
1, 81593, Note_off_c, 0, 59, 99
1, 81617, Note_on_c, 0, 60, 99
1, 81726, Note_off_c, 0, 60, 99
1, 82084, Note_on_c, 0, 65, 111
1, 82146, Note_off_c, 0, 65, 111
1, 82168, Note_on_c, 0, 62, 102
1, 82236, Note_off_c, 0, 62, 102
1, 82257, Note_on_c, 0, 63, 97
1, 82412, Note_off_c, 0, 63, 97
1, 82745, Note_on_c, 0, 62, 102
1, 82822, Note_off_c, 0, 62, 102
1, 82831, Note_on_c, 0, 65, 115
1, 82907, Note_off_c, 0, 65, 115
1, 82915, Note_on_c, 0, 62, 101
1, 82991, Note_off_c, 0, 62, 101
1, 83018, Note_on_c, 0, 58, 90
1, 83075, Note_off_c, 0, 58, 90
1, 83094, Note_on_c, 0, 63, 103
1, 83172, Note_off_c, 0, 63, 103
1, 83206, Note_on_c, 0, 65, 93
1, 83254, Note_off_c, 0, 65, 93
1, 83272, Note_on_c, 0, 63, 106
1, 83361, Note_off_c, 0, 63, 106
1, 83373, Note_on_c, 0, 64, 99
1, 83432, Note_off_c, 0, 64, 99
1, 83442, Note_on_c, 0, 64, 105
1, 83548, Note_off_c, 0, 64, 105
1, 83565, Note_on_c, 0, 65, 108
1, 83623, Note_off_c, 0, 65, 108
1, 83637, Note_on_c, 0, 67, 111
1, 83726, Note_off_c, 0, 67, 111
1, 83732, Note_on_c, 0, 69, 121
1, 83811, Note_off_c, 0, 69, 121
1, 83817, Note_on_c, 0, 70, 120
1, 83857, Note_off_c, 0, 70, 120
1, 83869, Note_on_c, 0, 71, 113
1, 83939, Note_off_c, 0, 71, 113
1, 83959, Note_on_c, 0, 72, 124
1, 84086, Note_off_c, 0, 72, 124
1, 84575, Note_on_c, 0, 69, 120
1, 84704, Note_off_c, 0, 69, 120
1, 84735, Note_on_c, 0, 66, 95
1, 84792, Note_off_c, 0, 66, 95
1, 84793, Note_on_c, 0, 67, 115
1, 84881, Note_off_c, 0, 67, 115
1, 84886, Note_on_c, 0, 69, 114
1, 84978, Note_off_c, 0, 69, 114
1, 84989, Note_on_c, 0, 71, 115
1, 85078, Note_off_c, 0, 71, 115
1, 85085, Note_on_c, 0, 72, 109
1, 85172, Note_off_c, 0, 72, 109
1, 85185, Note_on_c, 0, 74, 106
1, 85253, Note_off_c, 0, 74, 106
1, 85267, Note_on_c, 0, 72, 96
1, 85303, Note_off_c, 0, 72, 96
1, 85317, Note_on_c, 0, 75, 114
1, 85423, Note_off_c, 0, 75, 114
1, 86097, Note_on_c, 0, 69, 106
1, 86242, Note_off_c, 0, 69, 106
1, 86269, Note_on_c, 0, 74, 114
1, 86351, Note_off_c, 0, 74, 114
1, 86364, Note_on_c, 0, 70, 103
1, 86390, Note_off_c, 0, 70, 103
1, 86397, Note_on_c, 0, 69, 104
1, 86430, Note_off_c, 0, 69, 104
1, 86438, Note_on_c, 0, 68, 107
1, 86498, Note_off_c, 0, 68, 107
1, 86507, Note_on_c, 0, 67, 100
1, 86578, Note_off_c, 0, 67, 100
1, 86624, Note_on_c, 0, 74, 100
1, 86678, Note_off_c, 0, 74, 100
1, 86681, Note_on_c, 0, 70, 97
1, 86709, Note_off_c, 0, 70, 97
1, 86719, Note_on_c, 0, 67, 109
1, 86782, Note_off_c, 0, 67, 109
1, 86789, Note_on_c, 0, 66, 98
1, 86847, Note_off_c, 0, 66, 98
1, 86855, Note_on_c, 0, 65, 103
1, 86920, Note_off_c, 0, 65, 103
1, 86937, Note_on_c, 0, 67, 100
1, 86970, Note_off_c, 0, 67, 100
1, 86976, Note_on_c, 0, 70, 106
1, 87038, Note_off_c, 0, 70, 106
1, 87054, Note_on_c, 0, 68, 109
1, 87074, Note_off_c, 0, 68, 109
1, 87077, Note_on_c, 0, 70, 98
1, 87116, Note_off_c, 0, 70, 98
1, 87123, Note_on_c, 0, 63, 91
1, 87184, Note_off_c, 0, 63, 91
1, 87905, Note_on_c, 0, 75, 9
1, 88905, Note_off_c, 0, 75, 9
1, 88910, Note_on_c, 0, 77, 108
1, 89018, Note_off_c, 0, 77, 108
1, 89032, Note_on_c, 0, 74, 111
1, 89109, Note_off_c, 0, 74, 111
1, 89124, Note_on_c, 0, 72, 88
1, 89228, Note_off_c, 0, 72, 88
1, 89232, Note_on_c, 0, 69, 106
1, 89296, Note_off_c, 0, 69, 106
1, 89306, Note_on_c, 0, 67, 103
1, 89340, Note_off_c, 0, 67, 103
1, 89347, Note_on_c, 0, 65, 91
1, 89442, Note_off_c, 0, 65, 91
1, 89459, Note_on_c, 0, 62, 94
1, 89508, Note_off_c, 0, 62, 94
1, 89525, Note_on_c, 0, 70, 101
1, 89653, Note_off_c, 0, 70, 101
1, 89721, Note_on_c, 0, 67, 106
1, 89819, Note_off_c, 0, 67, 106
1, 89819, Note_on_c, 0, 62, 93
1, 89865, Note_off_c, 0, 62, 93
1, 89872, Note_on_c, 0, 64, 80
1, 89913, Note_off_c, 0, 64, 80
1, 89921, Note_on_c, 0, 70, 106
1, 90010, Note_off_c, 0, 70, 106
1, 90020, Note_on_c, 0, 69, 106
1, 90093, Note_off_c, 0, 69, 106
1, 90102, Note_on_c, 0, 67, 109
1, 90191, Note_off_c, 0, 67, 109
1, 90227, Note_on_c, 0, 72, 104
1, 90291, Note_off_c, 0, 72, 104
1, 90403, Note_on_c, 0, 69, 104
1, 90491, Note_off_c, 0, 69, 104
1, 90500, Note_on_c, 0, 67, 108
1, 90598, Note_off_c, 0, 67, 108
1, 90614, Note_on_c, 0, 62, 94
1, 90668, Note_off_c, 0, 62, 94
1, 90705, Note_on_c, 0, 70, 98
1, 90809, Note_off_c, 0, 70, 98
1, 92345, Note_on_c, 0, 79, 102
1, 95068, Note_off_c, 0, 79, 102
1, 95117, Note_on_c, 0, 77, 110
1, 95229, Note_off_c, 0, 77, 110
1, 95681, Note_on_c, 0, 79, 111
1, 95790, Note_off_c, 0, 79, 111
1, 95935, Note_on_c, 0, 75, 112
1, 96054, Note_off_c, 0, 75, 112
1, 96167, Note_on_c, 0, 74, 108
1, 96272, Note_off_c, 0, 74, 108
1, 96388, Note_on_c, 0, 72, 111
1, 96813, Note_off_c, 0, 72, 111
1, 97543, Note_on_c, 0, 67, 121
1, 97664, Note_off_c, 0, 67, 121
1, 97784, Note_on_c, 0, 63, 107
1, 97894, Note_off_c, 0, 63, 107
1, 98041, Note_on_c, 0, 62, 105
1, 98151, Note_off_c, 0, 62, 105
1, 98265, Note_on_c, 0, 60, 103
1, 98556, Note_off_c, 0, 60, 103
1, 98609, Note_on_c, 0, 67, 118
1, 98731, Note_off_c, 0, 67, 118
1, 98843, Note_on_c, 0, 63, 102
1, 98936, Note_off_c, 0, 63, 102
1, 99065, Note_on_c, 0, 62, 104
1, 99145, Note_off_c, 0, 62, 104
1, 99291, Note_on_c, 0, 60, 101
1, 99601, Note_off_c, 0, 60, 101
1, 100058, Note_on_c, 0, 70, 112
1, 100181, Note_off_c, 0, 70, 112
1, 100275, Note_on_c, 0, 65, 103
1, 100356, Note_off_c, 0, 65, 103
1, 100368, Note_on_c, 0, 65, 108
1, 100456, Note_off_c, 0, 65, 108
1, 100478, Note_on_c, 0, 66, 105
1, 100582, Note_off_c, 0, 66, 105
1, 100598, Note_on_c, 0, 65, 110
1, 100703, Note_off_c, 0, 65, 110
1, 100764, Note_on_c, 0, 67, 115
1, 100866, Note_off_c, 0, 67, 115
1, 100945, Note_on_c, 0, 69, 110
1, 101030, Note_off_c, 0, 69, 110
1, 101117, Note_on_c, 0, 72, 109
1, 101200, Note_off_c, 0, 72, 109
1, 101287, Note_on_c, 0, 69, 110
1, 101366, Note_off_c, 0, 69, 110
1, 101375, Note_on_c, 0, 67, 107
1, 101453, Note_off_c, 0, 67, 107
1, 101470, Note_on_c, 0, 63, 91
1, 101512, Note_off_c, 0, 63, 91
1, 101522, Note_on_c, 0, 60, 93
1, 101562, Note_off_c, 0, 60, 93
1, 101584, Note_on_c, 0, 70, 108
1, 101701, Note_off_c, 0, 70, 108
1, 101762, Note_on_c, 0, 65, 108
1, 101857, Note_off_c, 0, 65, 108
1, 101875, Note_on_c, 0, 62, 93
1, 101936, Note_off_c, 0, 62, 93
1, 101947, Note_on_c, 0, 70, 109
1, 102064, Note_off_c, 0, 70, 109
1, 102528, Note_on_c, 0, 65, 117
1, 102617, Note_off_c, 0, 65, 117
1, 102627, Note_on_c, 0, 67, 118
1, 102712, Note_off_c, 0, 67, 118
1, 102719, Note_on_c, 0, 69, 114
1, 102803, Note_off_c, 0, 69, 114
1, 102814, Note_on_c, 0, 70, 115
1, 102879, Note_off_c, 0, 70, 115
1, 102891, Note_on_c, 0, 72, 119
1, 102989, Note_off_c, 0, 72, 119
1, 102997, Note_on_c, 0, 70, 114
1, 103082, Note_off_c, 0, 70, 114
1, 103091, Note_on_c, 0, 69, 110
1, 103186, Note_off_c, 0, 69, 110
1, 103193, Note_on_c, 0, 67, 115
1, 103281, Note_off_c, 0, 67, 115
1, 103288, Note_on_c, 0, 65, 105
1, 103359, Note_off_c, 0, 65, 105
1, 103369, Note_on_c, 0, 63, 98
1, 103450, Note_off_c, 0, 63, 98
1, 103465, Note_on_c, 0, 62, 100
1, 103549, Note_off_c, 0, 62, 100
1, 103841, Note_on_c, 0, 62, 104
1, 103950, Note_off_c, 0, 62, 104
1, 104011, Note_on_c, 0, 58, 107
1, 104130, Note_off_c, 0, 58, 107
1, 104141, Note_on_c, 0, 58, 107
1, 104317, Note_off_c, 0, 58, 107
1, 104364, Note_on_c, 0, 60, 102
1, 104404, Note_off_c, 0, 60, 102
1, 104413, Note_on_c, 0, 62, 103
1, 104458, Note_off_c, 0, 62, 103
1, 104466, Note_on_c, 0, 63, 99
1, 104518, Note_off_c, 0, 63, 99
1, 104527, Note_on_c, 0, 67, 98
1, 104588, Note_off_c, 0, 67, 98
1, 104593, Note_on_c, 0, 69, 94
1, 104632, Note_off_c, 0, 69, 94
1, 104643, Note_on_c, 0, 71, 98
1, 104688, Note_off_c, 0, 71, 98
1, 104740, Note_on_c, 0, 74, 115
1, 104868, Note_off_c, 0, 74, 115
1, 104926, Note_on_c, 0, 70, 116
1, 105080, Note_off_c, 0, 70, 116
1, 105096, Note_on_c, 0, 70, 113
1, 105441, Note_off_c, 0, 70, 113
1, 106134, Note_on_c, 0, 71, 117
1, 106224, Note_off_c, 0, 71, 117
1, 106236, Note_on_c, 0, 73, 103
1, 106300, Note_off_c, 0, 73, 103
1, 106317, Note_on_c, 0, 69, 116
1, 106401, Note_off_c, 0, 69, 116
1, 106415, Note_on_c, 0, 67, 109
1, 106490, Note_off_c, 0, 67, 109
1, 106499, Note_on_c, 0, 65, 107
1, 106586, Note_off_c, 0, 65, 107
1, 106600, Note_on_c, 0, 63, 101
1, 106670, Note_off_c, 0, 63, 101
1, 106684, Note_on_c, 0, 62, 102
1, 106765, Note_off_c, 0, 62, 102
1, 106778, Note_on_c, 0, 60, 103
1, 106844, Note_off_c, 0, 60, 103
1, 106853, Note_on_c, 0, 59, 103
1, 106928, Note_off_c, 0, 59, 103
1, 106984, Note_on_c, 0, 68, 109
1, 107084, Note_off_c, 0, 68, 109
1, 107093, Note_on_c, 0, 63, 88
1, 107134, Note_off_c, 0, 63, 88
1, 107173, Note_on_c, 0, 60, 95
1, 107228, Note_off_c, 0, 60, 95
1, 107240, Note_on_c, 0, 67, 111
1, 107313, Note_off_c, 0, 67, 111
1, 107319, Note_on_c, 0, 62, 95
1, 107352, Note_off_c, 0, 62, 95
1, 107356, Note_on_c, 0, 64, 93
1, 107390, Note_off_c, 0, 64, 93
1, 107400, Note_on_c, 0, 66, 105
1, 107514, Note_off_c, 0, 66, 105
1, 107526, Note_on_c, 0, 67, 110
1, 107568, Note_off_c, 0, 67, 110
1, 107575, Note_on_c, 0, 68, 113
1, 107633, Note_off_c, 0, 68, 113
1, 107644, Note_on_c, 0, 69, 111
1, 107696, Note_off_c, 0, 69, 111
1, 107707, Note_on_c, 0, 71, 113
1, 107778, Note_off_c, 0, 71, 113
1, 107790, Note_on_c, 0, 72, 112
1, 107870, Note_off_c, 0, 72, 112
1, 107883, Note_on_c, 0, 74, 112
1, 107964, Note_off_c, 0, 74, 112
1, 107978, Note_on_c, 0, 75, 117
1, 108055, Note_off_c, 0, 75, 117
1, 108080, Note_on_c, 0, 67, 96
1, 108136, Note_off_c, 0, 67, 96
1, 108154, Note_on_c, 0, 74, 111
1, 108244, Note_off_c, 0, 74, 111
1, 108257, Note_on_c, 0, 75, 103
1, 108309, Note_off_c, 0, 75, 103
1, 108328, Note_on_c, 0, 72, 94
1, 108402, Note_off_c, 0, 72, 94
1, 109374, Note_on_c, 0, 79, 103
1, 109613, Note_off_c, 0, 79, 103
1, 109623, Note_on_c, 0, 77, 120
1, 109674, Note_off_c, 0, 77, 120
1, 109695, Note_on_c, 0, 77, 118
1, 109751, Note_off_c, 0, 77, 118
1, 109759, Note_on_c, 0, 76, 107
1, 109794, Note_off_c, 0, 76, 107
1, 109808, Note_on_c, 0, 76, 109
1, 109851, Note_off_c, 0, 76, 109
1, 109874, Note_on_c, 0, 75, 121
1, 109972, Note_off_c, 0, 75, 121
1, 109987, Note_on_c, 0, 74, 113
1, 110093, Note_off_c, 0, 74, 113
1, 110100, Note_on_c, 0, 73, 98
1, 110151, Note_off_c, 0, 73, 98
1, 110166, Note_on_c, 0, 72, 112
1, 110220, Note_off_c, 0, 72, 112
1, 110224, Note_on_c, 0, 71, 111
1, 110278, Note_off_c, 0, 71, 111
1, 110302, Note_on_c, 0, 70, 111
1, 110415, Note_off_c, 0, 70, 111
1, 110433, Note_on_c, 0, 69, 105
1, 110525, Note_off_c, 0, 69, 105
1, 110545, Note_on_c, 0, 67, 99
1, 110597, Note_off_c, 0, 67, 99
1, 110618, Note_on_c, 0, 69, 107
1, 110683, Note_off_c, 0, 69, 107
1, 110708, Note_on_c, 0, 62, 95
1, 110773, Note_off_c, 0, 62, 95
1, 110791, Note_on_c, 0, 64, 89
1, 110889, Note_off_c, 0, 64, 89
1, 110911, Note_on_c, 0, 69, 107
1, 110986, Note_off_c, 0, 69, 107
1, 111082, Note_on_c, 0, 60, 91
1, 111129, Note_off_c, 0, 60, 91
1, 111151, Note_on_c, 0, 67, 104
1, 111233, Note_off_c, 0, 67, 104
1, 111473, Note_on_c, 0, 65, 106
1, 111546, Note_off_c, 0, 65, 106
1, 111563, Note_on_c, 0, 63, 94
1, 111626, Note_off_c, 0, 63, 94
1, 111637, Note_on_c, 0, 60, 98
1, 111683, Note_off_c, 0, 60, 98
1, 111693, Note_on_c, 0, 61, 92
1, 111760, Note_off_c, 0, 61, 92
1, 111779, Note_on_c, 0, 62, 94
1, 111837, Note_off_c, 0, 62, 94
1, 111860, Note_on_c, 0, 58, 100
1, 111910, Note_off_c, 0, 58, 100
1, 111923, Note_on_c, 0, 57, 89
1, 111967, Note_off_c, 0, 57, 89
1, 112088, Note_on_c, 0, 58, 98
1, 112187, Note_off_c, 0, 58, 98
1, 112259, Note_on_c, 0, 53, 94
1, 112622, Note_off_c, 0, 53, 94
1, 113788, Note_on_c, 0, 62, 109
1, 113900, Note_off_c, 0, 62, 109
1, 113908, Note_on_c, 0, 63, 109
1, 113979, Note_off_c, 0, 63, 109
1, 114001, Note_on_c, 0, 65, 115
1, 114085, Note_off_c, 0, 65, 115
1, 114092, Note_on_c, 0, 66, 109
1, 114159, Note_off_c, 0, 66, 109
1, 114172, Note_on_c, 0, 69, 114
1, 114270, Note_off_c, 0, 69, 114
1, 114289, Note_on_c, 0, 70, 116
1, 114369, Note_off_c, 0, 70, 116
1, 114384, Note_on_c, 0, 69, 110
1, 114475, Note_off_c, 0, 69, 110
1, 114488, Note_on_c, 0, 67, 110
1, 114563, Note_off_c, 0, 67, 110
1, 114577, Note_on_c, 0, 65, 99
1, 114661, Note_off_c, 0, 65, 99
1, 114692, Note_on_c, 0, 64, 101
1, 114747, Note_off_c, 0, 64, 101
1, 114759, Note_on_c, 0, 63, 104
1, 114822, Note_off_c, 0, 63, 104
1, 114843, Note_on_c, 0, 63, 102
1, 114876, Note_off_c, 0, 63, 102
1, 114894, Note_on_c, 0, 60, 97
1, 114957, Note_off_c, 0, 60, 97
1, 114971, Note_on_c, 0, 63, 98
1, 115135, Note_off_c, 0, 63, 98
1, 115154, Note_on_c, 0, 66, 104
1, 115263, Note_off_c, 0, 66, 104
1, 115321, Note_on_c, 0, 62, 94
1, 115458, Note_off_c, 0, 62, 94
1, 115474, Note_on_c, 0, 62, 84
1, 115716, Note_off_c, 0, 62, 84
1, 116260, Note_on_c, 0, 60, 90
1, 116344, Note_off_c, 0, 60, 90
1, 116375, Note_on_c, 0, 63, 97
1, 116440, Note_off_c, 0, 63, 97
1, 116453, Note_on_c, 0, 67, 121
1, 116529, Note_off_c, 0, 67, 121
1, 116534, Note_on_c, 0, 68, 104
1, 116566, Note_off_c, 0, 68, 104
1, 116570, Note_on_c, 0, 69, 117
1, 116642, Note_off_c, 0, 69, 117
1, 116656, Note_on_c, 0, 70, 114
1, 116749, Note_off_c, 0, 70, 114
1, 116761, Note_on_c, 0, 67, 117
1, 116872, Note_off_c, 0, 67, 117
1, 116883, Note_on_c, 0, 63, 89
1, 116949, Note_off_c, 0, 63, 89
1, 116978, Note_on_c, 0, 60, 94
1, 117049, Note_off_c, 0, 60, 94
1, 117057, Note_on_c, 0, 69, 119
1, 117159, Note_off_c, 0, 69, 119
1, 117170, Note_on_c, 0, 65, 104
1, 117224, Note_off_c, 0, 65, 104
1, 118466, Note_on_c, 0, 74, 113
1, 118546, Note_off_c, 0, 74, 113
1, 118557, Note_on_c, 0, 71, 113
1, 118661, Note_off_c, 0, 71, 113
1, 118667, Note_on_c, 0, 72, 116
1, 118754, Note_off_c, 0, 72, 116
1, 118761, Note_on_c, 0, 71, 116
1, 118868, Note_off_c, 0, 71, 116
1, 118876, Note_on_c, 0, 72, 118
1, 118955, Note_off_c, 0, 72, 118
1, 118963, Note_on_c, 0, 71, 114
1, 119031, Note_off_c, 0, 71, 114
1, 119034, Note_on_c, 0, 72, 108
1, 119079, Note_off_c, 0, 72, 108
1, 119101, Note_on_c, 0, 73, 110
1, 119183, Note_off_c, 0, 73, 110
1, 119203, Note_on_c, 0, 74, 121
1, 119268, Note_off_c, 0, 74, 121
1, 119278, Note_on_c, 0, 75, 110
1, 119355, Note_off_c, 0, 75, 110
1, 119376, Note_on_c, 0, 69, 97
1, 119487, Note_off_c, 0, 69, 97
1, 120938, Note_on_c, 0, 67, 120
1, 121022, Note_off_c, 0, 67, 120
1, 121044, Note_on_c, 0, 70, 117
1, 121145, Note_off_c, 0, 70, 117
1, 121179, Note_on_c, 0, 74, 109
1, 122521, Note_off_c, 0, 74, 109
1, 122544, Note_on_c, 0, 72, 101
1, 122644, Note_off_c, 0, 72, 101
1, 122656, Note_on_c, 0, 70, 106
1, 122743, Note_off_c, 0, 70, 106
1, 122761, Note_on_c, 0, 69, 101
1, 122864, Note_off_c, 0, 69, 101
1, 122869, Note_on_c, 0, 67, 103
1, 122938, Note_off_c, 0, 67, 103
1, 122955, Note_on_c, 0, 65, 100
1, 123065, Note_off_c, 0, 65, 100
1, 123078, Note_on_c, 0, 64, 89
1, 123129, Note_off_c, 0, 64, 89
1, 123138, Note_on_c, 0, 63, 96
1, 123219, Note_off_c, 0, 63, 96
1, 123251, Note_on_c, 0, 67, 106
1, 123316, Note_off_c, 0, 67, 106
1, 123335, Note_on_c, 0, 65, 96
1, 123431, Note_off_c, 0, 65, 96
1, 123452, Note_on_c, 0, 63, 95
1, 123513, Note_off_c, 0, 63, 95
1, 123538, Note_on_c, 0, 62, 94
1, 123633, Note_off_c, 0, 62, 94
1, 123664, Note_on_c, 0, 58, 94
1, 123763, Note_off_c, 0, 58, 94
1, 125123, Note_on_c, 0, 67, 117
1, 125200, Note_off_c, 0, 67, 117
1, 125214, Note_on_c, 0, 63, 109
1, 125332, Note_off_c, 0, 63, 109
1, 125350, Note_on_c, 0, 62, 100
1, 125489, Note_off_c, 0, 62, 100
1, 125578, Note_on_c, 0, 60, 94
1, 125669, Note_off_c, 0, 60, 94
1, 125693, Note_on_c, 0, 67, 108
1, 125732, Note_off_c, 0, 67, 108
1, 125746, Note_on_c, 0, 68, 106
1, 125818, Note_off_c, 0, 68, 106
1, 125878, Note_on_c, 0, 67, 106
1, 125928, Note_off_c, 0, 67, 106
1, 125940, Note_on_c, 0, 68, 98
1, 126021, Note_off_c, 0, 68, 98
1, 126036, Note_on_c, 0, 64, 93
1, 126109, Note_off_c, 0, 64, 93
1, 126123, Note_on_c, 0, 63, 98
1, 126214, Note_off_c, 0, 63, 98
1, 126221, Note_on_c, 0, 62, 100
1, 126248, Note_off_c, 0, 62, 100
1, 126256, Note_on_c, 0, 59, 90
1, 126301, Note_off_c, 0, 59, 90
1, 126624, Note_on_c, 0, 66, 101
1, 126680, Note_off_c, 0, 66, 101
1, 126696, Note_on_c, 0, 62, 107
1, 126808, Note_off_c, 0, 62, 107
1, 126829, Note_on_c, 0, 61, 96
1, 126962, Note_off_c, 0, 61, 96
1, 127008, Note_on_c, 0, 59, 95
1, 127070, Note_off_c, 0, 59, 95
1, 127173, Note_on_c, 0, 63, 104
1, 127218, Note_off_c, 0, 63, 104
1, 127258, Note_on_c, 0, 64, 88
1, 127310, Note_off_c, 0, 64, 88
1, 127377, Note_on_c, 0, 63, 111
1, 127407, Note_off_c, 0, 63, 111
1, 127427, Note_on_c, 0, 64, 103
1, 127503, Note_off_c, 0, 64, 103
1, 127537, Note_on_c, 0, 62, 100
1, 127607, Note_off_c, 0, 62, 100
1, 127607, End_track
0, 0, End_of_file
