0, 0, Header, 1, 1, 192
1, 0, Start_track
1, 0, Title_t, "Melody"
1, 0, Tempo, 253164
1, 0, Time_signature, 1, 2, 24, 8
1, 3546, Note_on_c, 0, 70, 108
1, 3601, Note_off_c, 0, 70, 108
1, 3618, Note_on_c, 0, 71, 107
1, 3728, Note_off_c, 0, 71, 107
1, 3761, Note_on_c, 0, 69, 109
1, 3875, Note_off_c, 0, 69, 109
1, 3881, Note_on_c, 0, 70, 109
1, 3984, Note_off_c, 0, 70, 109
1, 4052, Note_on_c, 0, 75, 118
1, 4091, Note_off_c, 0, 75, 118
1, 4099, Note_on_c, 0, 76, 119
1, 4217, Note_off_c, 0, 76, 119
1, 4236, Note_on_c, 0, 73, 111
1, 4324, Note_off_c, 0, 73, 111
1, 4330, Note_on_c, 0, 74, 108
1, 4451, Note_off_c, 0, 74, 108
1, 4462, Note_on_c, 0, 73, 101
1, 4528, Note_off_c, 0, 73, 101
1, 4532, Note_on_c, 0, 71, 103
1, 4593, Note_off_c, 0, 71, 103
1, 4606, Note_on_c, 0, 70, 82
1, 4665, Note_off_c, 0, 70, 82
1, 4671, Note_on_c, 0, 66, 79
1, 4737, Note_off_c, 0, 66, 79
1, 4741, Note_on_c, 0, 68, 94
1, 4833, Note_off_c, 0, 68, 94
1, 4837, Note_on_c, 0, 65, 90
1, 4903, Note_off_c, 0, 65, 90
1, 4916, Note_on_c, 0, 65, 89
1, 5012, Note_off_c, 0, 65, 89
1, 5034, Note_on_c, 0, 65, 87
1, 5139, Note_off_c, 0, 65, 87
1, 5156, Note_on_c, 0, 65, 89
1, 5270, Note_off_c, 0, 65, 89
1, 5294, Note_on_c, 0, 67, 85
1, 5582, Note_off_c, 0, 67, 85
1, 6321, Note_on_c, 0, 62, 103
1, 6413, Note_off_c, 0, 62, 103
1, 6421, Note_on_c, 0, 65, 114
1, 6491, Note_off_c, 0, 65, 114
1, 6495, Note_on_c, 0, 62, 89
1, 6631, Note_off_c, 0, 62, 89
1, 6635, Note_on_c, 0, 61, 89
1, 6692, Note_off_c, 0, 61, 89
1, 6700, Note_on_c, 0, 67, 109
1, 6779, Note_off_c, 0, 67, 109
1, 6779, Note_on_c, 0, 62, 90
1, 6875, Note_off_c, 0, 62, 90
1, 6875, Note_on_c, 0, 60, 91
1, 6967, Note_off_c, 0, 60, 91
1, 7002, Note_on_c, 0, 68, 110
1, 7098, Note_off_c, 0, 68, 110
1, 7098, Note_on_c, 0, 62, 89
1, 7168, Note_off_c, 0, 62, 89
1, 7172, Note_on_c, 0, 60, 87
1, 7242, Note_off_c, 0, 60, 87
1, 7308, Note_on_c, 0, 68, 114
1, 7396, Note_off_c, 0, 68, 114
1, 7418, Note_on_c, 0, 69, 111
1, 7510, Note_off_c, 0, 69, 111
1, 7514, Note_on_c, 0, 65, 103
1, 7593, Note_off_c, 0, 65, 103
1, 7593, Note_on_c, 0, 60, 94
1, 7681, Note_off_c, 0, 60, 94
1, 7689, Note_on_c, 0, 57, 94
1, 7792, Note_off_c, 0, 57, 94
1, 7798, Note_on_c, 0, 55, 82
1, 7890, Note_off_c, 0, 55, 82
1, 7903, Note_on_c, 0, 58, 94
1, 7999, Note_off_c, 0, 58, 94
1, 8005, Note_on_c, 0, 66, 110
1, 8082, Note_on_c, 0, 64, 94
1, 8082, Note_off_c, 0, 66, 110
1, 8165, Note_off_c, 0, 64, 94
1, 8187, Note_on_c, 0, 60, 89
1, 8248, Note_off_c, 0, 60, 89
1, 8265, Note_on_c, 0, 61, 97
1, 8357, Note_off_c, 0, 61, 97
1, 8374, Note_on_c, 0, 62, 99
1, 8497, Note_off_c, 0, 62, 99
1, 9522, Note_on_c, 0, 62, 102
1, 9561, Note_off_c, 0, 62, 102
1, 9565, Note_on_c, 0, 64, 96
1, 9626, Note_off_c, 0, 64, 96
1, 9630, Note_on_c, 0, 65, 89
1, 9704, Note_off_c, 0, 65, 89
1, 9712, Note_on_c, 0, 69, 95
1, 9756, Note_off_c, 0, 69, 95
1, 9767, Note_on_c, 0, 76, 102
1, 9833, Note_off_c, 0, 76, 102
1, 9848, Note_on_c, 0, 70, 104
1, 9958, Note_off_c, 0, 70, 104
1, 9971, Note_on_c, 0, 71, 105
1, 10059, Note_off_c, 0, 71, 105
1, 10067, Note_on_c, 0, 69, 104
1, 10168, Note_off_c, 0, 69, 104
1, 10176, Note_on_c, 0, 67, 95
1, 10237, Note_off_c, 0, 67, 95
1, 10241, Note_on_c, 0, 70, 104
1, 10342, Note_off_c, 0, 70, 104
1, 10355, Note_on_c, 0, 60, 95
1, 10484, Note_off_c, 0, 60, 95
1, 10585, Note_on_c, 0, 61, 85
1, 10688, Note_off_c, 0, 61, 85
1, 10791, Note_on_c, 0, 62, 85
1, 10894, Note_off_c, 0, 62, 85
1, 10962, Note_on_c, 0, 58, 94
1, 11017, Note_off_c, 0, 58, 94
1, 11021, Note_on_c, 0, 60, 85
1, 11065, Note_off_c, 0, 60, 85
1, 11406, Note_on_c, 0, 70, 101
1, 11458, Note_off_c, 0, 70, 101
1, 11480, Note_on_c, 0, 69, 100
1, 11537, Note_off_c, 0, 69, 100
1, 11543, Note_on_c, 0, 68, 91
1, 11602, Note_off_c, 0, 68, 91
1, 11635, Note_on_c, 0, 69, 104
1, 11716, Note_off_c, 0, 69, 104
1, 11716, Note_on_c, 0, 67, 99
1, 11812, Note_off_c, 0, 67, 99
1, 11816, Note_on_c, 0, 65, 95
1, 11895, Note_off_c, 0, 65, 95
1, 11906, Note_on_c, 0, 61, 87
1, 11985, Note_off_c, 0, 61, 87
1, 12328, Note_on_c, 0, 70, 95
1, 12363, Note_off_c, 0, 70, 95
1, 12376, Note_on_c, 0, 72, 104
1, 13157, Note_off_c, 0, 72, 104
1, 13168, Note_on_c, 0, 74, 99
1, 13282, Note_off_c, 0, 74, 99
1, 13282, Note_on_c, 0, 70, 86
1, 13363, Note_off_c, 0, 70, 86
1, 13376, Note_on_c, 0, 72, 98
1, 13468, Note_off_c, 0, 72, 98
1, 13492, Note_on_c, 0, 69, 102
1, 13597, Note_off_c, 0, 69, 102
1, 13685, Note_on_c, 0, 70, 101
1, 13773, Note_off_c, 0, 70, 101
1, 13909, Note_on_c, 0, 70, 96
1, 13946, Note_off_c, 0, 70, 96
1, 13952, Note_on_c, 0, 72, 91
1, 14475, Note_off_c, 0, 72, 91
1, 14481, Note_on_c, 0, 69, 96
1, 14558, Note_off_c, 0, 69, 96
1, 14571, Note_on_c, 0, 67, 99
1, 14661, Note_off_c, 0, 67, 99
1, 14669, Note_on_c, 0, 65, 88
1, 14737, Note_off_c, 0, 65, 88
1, 14745, Note_on_c, 0, 67, 90
1, 14877, Note_off_c, 0, 67, 90
1, 14883, Note_on_c, 0, 69, 81
1, 15136, Note_off_c, 0, 69, 81
1, 15842, Note_on_c, 0, 70, 106
1, 15899, Note_off_c, 0, 70, 106
1, 15907, Note_on_c, 0, 72, 106
1, 16001, Note_off_c, 0, 72, 106
1, 16007, Note_on_c, 0, 73, 102
1, 16128, Note_off_c, 0, 73, 102
1, 16141, Note_on_c, 0, 74, 100
1, 16229, Note_off_c, 0, 74, 100
1, 16229, Note_on_c, 0, 72, 105
1, 16312, Note_off_c, 0, 72, 105
1, 16318, Note_on_c, 0, 70, 103
1, 16432, Note_off_c, 0, 70, 103
1, 16440, Note_on_c, 0, 68, 103
1, 16519, Note_off_c, 0, 68, 103
1, 16527, Note_on_c, 0, 67, 106
1, 16637, Note_off_c, 0, 67, 106
1, 16639, Note_on_c, 0, 61, 89
1, 16702, Note_off_c, 0, 61, 89
1, 16706, Note_on_c, 0, 66, 103
1, 16763, Note_off_c, 0, 66, 103
1, 16767, Note_on_c, 0, 67, 98
1, 16811, Note_off_c, 0, 67, 98
1, 16826, Note_on_c, 0, 68, 91
1, 16867, Note_off_c, 0, 68, 91
1, 16873, Note_on_c, 0, 65, 93
1, 17044, Note_off_c, 0, 65, 93
1, 17055, Note_on_c, 0, 63, 90
1, 17270, Note_off_c, 0, 63, 90
1, 17463, Note_on_c, 0, 74, 101
1, 17568, Note_off_c, 0, 74, 101
1, 17568, Note_on_c, 0, 73, 97
1, 17662, Note_off_c, 0, 73, 97
1, 17670, Note_on_c, 0, 71, 94
1, 17744, Note_off_c, 0, 71, 94
1, 17744, Note_on_c, 0, 72, 103
1, 17854, Note_off_c, 0, 72, 103
1, 18122, Note_on_c, 0, 70, 105
1, 18174, Note_off_c, 0, 70, 105
1, 18180, Note_on_c, 0, 71, 105
1, 18259, Note_off_c, 0, 71, 105
1, 18265, Note_on_c, 0, 72, 98
1, 18353, Note_off_c, 0, 72, 98
1, 18364, Note_on_c, 0, 67, 99
1, 18500, Note_off_c, 0, 67, 99
1, 18790, Note_on_c, 0, 67, 115
1, 18893, Note_off_c, 0, 67, 115
1, 19000, Note_on_c, 0, 64, 98
1, 19070, Note_off_c, 0, 64, 98
1, 19177, Note_on_c, 0, 67, 109
1, 19260, Note_off_c, 0, 67, 109
1, 19282, Note_on_c, 0, 66, 107
1, 19365, Note_off_c, 0, 66, 107
1, 19475, Note_on_c, 0, 62, 99
1, 19576, Note_off_c, 0, 62, 99
1, 19576, Note_on_c, 0, 58, 91
1, 19666, Note_off_c, 0, 58, 91
1, 19681, Note_on_c, 0, 64, 109
1, 19725, Note_off_c, 0, 64, 109
1, 19725, Note_on_c, 0, 65, 105
1, 19832, Note_off_c, 0, 65, 105
1, 19840, Note_on_c, 0, 67, 105
1, 19947, Note_off_c, 0, 67, 105
1, 20008, Note_on_c, 0, 64, 86
1, 20100, Note_off_c, 0, 64, 86
1, 20249, Note_on_c, 0, 65, 103
1, 20345, Note_off_c, 0, 65, 103
1, 20347, Note_on_c, 0, 67, 104
1, 20443, Note_off_c, 0, 67, 104
1, 20454, Note_on_c, 0, 69, 101
1, 20542, Note_off_c, 0, 69, 101
1, 20548, Note_on_c, 0, 70, 106
1, 20618, Note_off_c, 0, 70, 106
1, 20631, Note_on_c, 0, 72, 104
1, 20725, Note_off_c, 0, 72, 104
1, 20758, Note_on_c, 0, 67, 91
1, 20821, Note_off_c, 0, 67, 91
1, 20825, Note_on_c, 0, 68, 103
1, 20926, Note_off_c, 0, 68, 103
1, 20932, Note_on_c, 0, 66, 102
1, 21024, Note_off_c, 0, 66, 102
1, 21057, Note_on_c, 0, 62, 92
1, 21123, Note_off_c, 0, 62, 92
1, 21129, Note_on_c, 0, 58, 89
1, 21188, Note_off_c, 0, 58, 89
1, 21229, Note_on_c, 0, 61, 92
1, 21400, Note_off_c, 0, 61, 92
1, 21400, Note_on_c, 0, 62, 93
1, 21501, Note_off_c, 0, 62, 93
1, 21527, Note_on_c, 0, 59, 90
1, 21599, Note_off_c, 0, 59, 90
1, 21790, Note_on_c, 0, 71, 103
1, 21847, Note_off_c, 0, 71, 103
1, 21847, Note_on_c, 0, 72, 111
1, 21932, Note_off_c, 0, 72, 111
1, 21938, Note_on_c, 0, 78, 101
1, 22290, Note_off_c, 0, 78, 101
1, 22663, Note_on_c, 0, 72, 109
1, 22755, Note_off_c, 0, 72, 109
1, 22757, Note_on_c, 0, 69, 111
1, 22862, Note_off_c, 0, 69, 111
1, 22864, Note_on_c, 0, 67, 106
1, 22943, Note_off_c, 0, 67, 106
1, 22956, Note_on_c, 0, 70, 97
1, 22966, Note_off_c, 0, 70, 97
1, 22966, Note_on_c, 0, 74, 98
1, 23005, Note_off_c, 0, 74, 98
1, 23079, Note_on_c, 0, 60, 85
1, 23129, Note_off_c, 0, 60, 85
1, 23142, Note_on_c, 0, 69, 105
1, 23230, Note_off_c, 0, 69, 105
1, 23254, Note_on_c, 0, 67, 103
1, 23337, Note_off_c, 0, 67, 103
1, 23603, Note_on_c, 0, 76, 104
1, 23642, Note_off_c, 0, 76, 104
1, 23653, Note_on_c, 0, 79, 105
1, 23998, Note_off_c, 0, 79, 105
1, 24979, Note_on_c, 0, 78, 101
1, 25040, Note_off_c, 0, 78, 101
1, 25048, Note_on_c, 0, 80, 105
1, 25442, Note_off_c, 0, 80, 105
1, 25444, Note_on_c, 0, 76, 88
1, 25490, Note_off_c, 0, 76, 88
1, 25496, Note_on_c, 0, 74, 96
1, 25595, Note_off_c, 0, 74, 96
1, 25603, Note_on_c, 0, 72, 94
1, 25662, Note_off_c, 0, 72, 94
1, 26029, Note_on_c, 0, 69, 95
1, 26062, Note_off_c, 0, 69, 95
1, 26064, Note_on_c, 0, 70, 101
1, 26163, Note_off_c, 0, 70, 101
1, 26178, Note_on_c, 0, 69, 98
1, 26428, Note_off_c, 0, 69, 98
1, 26434, Note_on_c, 0, 65, 96
1, 26533, Note_off_c, 0, 65, 96
1, 26764, Note_on_c, 0, 76, 90
1, 26810, Note_off_c, 0, 76, 90
1, 26818, Note_on_c, 0, 79, 107
1, 27020, Note_off_c, 0, 79, 107
1, 27026, Note_on_c, 0, 76, 82
1, 27056, Note_off_c, 0, 76, 82
1, 27060, Note_on_c, 0, 74, 96
1, 27174, Note_off_c, 0, 74, 96
1, 27180, Note_on_c, 0, 72, 97
1, 27246, Note_off_c, 0, 72, 97
1, 28113, Note_on_c, 0, 76, 101
1, 28159, Note_off_c, 0, 76, 101
1, 28165, Note_on_c, 0, 77, 105
1, 28367, Note_off_c, 0, 77, 105
1, 28367, Note_on_c, 0, 72, 94
1, 28496, Note_off_c, 0, 72, 94
1, 28507, Note_on_c, 0, 69, 89
1, 28562, Note_off_c, 0, 69, 89
1, 28564, Note_on_c, 0, 70, 99
1, 28671, Note_off_c, 0, 70, 99
1, 28671, Note_on_c, 0, 67, 106
1, 28785, Note_off_c, 0, 67, 106
1, 28789, Note_on_c, 0, 65, 97
1, 28881, Note_off_c, 0, 65, 97
1, 28894, Note_on_c, 0, 62, 89
1, 28951, Note_off_c, 0, 62, 89
1, 28955, Note_on_c, 0, 69, 92
1, 29139, Note_off_c, 0, 69, 92
1, 29429, Note_on_c, 0, 72, 100
1, 29523, Note_off_c, 0, 72, 100
1, 29531, Note_on_c, 0, 70, 106
1, 29636, Note_off_c, 0, 70, 106
1, 29655, Note_on_c, 0, 70, 102
1, 29892, Note_off_c, 0, 70, 102
1, 29903, Note_on_c, 0, 69, 102
1, 29999, Note_off_c, 0, 69, 102
1, 30001, Note_on_c, 0, 65, 89
1, 30097, Note_off_c, 0, 65, 89
1, 30099, Note_on_c, 0, 67, 101
1, 30226, Note_off_c, 0, 67, 101
1, 30465, Note_on_c, 0, 69, 107
1, 30491, Note_off_c, 0, 69, 107
1, 30495, Note_on_c, 0, 70, 105
1, 30591, Note_off_c, 0, 70, 105
1, 30716, Note_on_c, 0, 72, 96
1, 30808, Note_off_c, 0, 72, 96
1, 30814, Note_on_c, 0, 71, 102
1, 30888, Note_off_c, 0, 71, 102
1, 30896, Note_on_c, 0, 72, 98
1, 30990, Note_off_c, 0, 72, 98
1, 31003, Note_on_c, 0, 70, 96
1, 31058, Note_off_c, 0, 70, 96
1, 31073, Note_on_c, 0, 70, 99
1, 31227, Note_off_c, 0, 70, 99
1, 31229, Note_on_c, 0, 67, 89
1, 31310, Note_off_c, 0, 67, 89
1, 31310, Note_on_c, 0, 68, 99
1, 31417, Note_off_c, 0, 68, 99
1, 31428, Note_on_c, 0, 75, 93
1, 31509, Note_off_c, 0, 75, 93
1, 31699, Note_on_c, 0, 72, 97
1, 31734, Note_off_c, 0, 72, 97
1, 31736, Note_on_c, 0, 73, 95
1, 31812, Note_off_c, 0, 73, 95
1, 31872, Note_on_c, 0, 72, 96
1, 31986, Note_off_c, 0, 72, 96
1, 31995, Note_on_c, 0, 71, 99
1, 32097, Note_off_c, 0, 71, 99
1, 32163, Note_on_c, 0, 68, 100
1, 32273, Note_off_c, 0, 68, 100
1, 32292, Note_on_c, 0, 63, 80
1, 32349, Note_off_c, 0, 63, 80
1, 32353, Note_on_c, 0, 60, 83
1, 32412, Note_off_c, 0, 60, 83
1, 32425, Note_on_c, 0, 68, 98
1, 32570, Note_off_c, 0, 68, 98
1, 32638, Note_on_c, 0, 68, 95
1, 32671, Note_off_c, 0, 68, 95
1, 32673, Note_on_c, 0, 69, 98
1, 32747, Note_off_c, 0, 69, 98
1, 32782, Note_on_c, 0, 60, 79
1, 33001, Note_off_c, 0, 60, 79
1, 33015, Note_on_c, 0, 62, 98
1, 33112, Note_off_c, 0, 62, 98
1, 33117, Note_on_c, 0, 60, 83
1, 33194, Note_off_c, 0, 60, 83
1, 33196, Note_on_c, 0, 64, 90
1, 33297, Note_off_c, 0, 64, 90
1, 33317, Note_on_c, 0, 65, 86
1, 33510, Note_off_c, 0, 65, 86
1, 34268, Note_on_c, 0, 62, 103
1, 34320, Note_off_c, 0, 62, 103
1, 34345, Note_on_c, 0, 64, 97
1, 34513, Note_off_c, 0, 64, 97
1, 34524, Note_on_c, 0, 65, 104
1, 34658, Note_on_c, 0, 62, 85
1, 34658, Note_off_c, 0, 65, 104
1, 34727, Note_off_c, 0, 62, 85
1, 34727, Note_on_c, 0, 66, 103
1, 34832, Note_off_c, 0, 66, 103
1, 34848, Note_on_c, 0, 67, 106
1, 34944, Note_off_c, 0, 67, 106
1, 34950, Note_on_c, 0, 68, 98
1, 35053, Note_off_c, 0, 68, 98
1, 35062, Note_on_c, 0, 69, 104
1, 35119, Note_off_c, 0, 69, 104
1, 35131, Note_on_c, 0, 70, 100
1, 35238, Note_off_c, 0, 70, 100
1, 35244, Note_on_c, 0, 71, 103
1, 35305, Note_off_c, 0, 71, 103
1, 35307, Note_on_c, 0, 72, 96
1, 35437, Note_off_c, 0, 72, 96
1, 35443, Note_on_c, 0, 69, 91
1, 35522, Note_off_c, 0, 69, 91
1, 35524, Note_on_c, 0, 70, 104
1, 35614, Note_off_c, 0, 70, 104
1, 35623, Note_on_c, 0, 68, 94
1, 35667, Note_off_c, 0, 68, 94
1, 35673, Note_on_c, 0, 69, 96
1, 35781, Note_off_c, 0, 69, 96
1, 35815, Note_on_c, 0, 65, 83
1, 36039, Note_off_c, 0, 65, 83
1, 36067, Note_on_c, 0, 62, 96
1, 36157, Note_off_c, 0, 62, 96
1, 36162, Note_on_c, 0, 60, 79
1, 36255, Note_off_c, 0, 60, 79
1, 36255, Note_on_c, 0, 66, 96
1, 36365, Note_off_c, 0, 66, 96
1, 36373, Note_on_c, 0, 67, 95
1, 36452, Note_off_c, 0, 67, 95
1, 36452, Note_on_c, 0, 63, 90
1, 36536, Note_off_c, 0, 63, 90
1, 36555, Note_on_c, 0, 60, 79
1, 36617, Note_off_c, 0, 60, 79
1, 36620, Note_on_c, 0, 61, 88
1, 36750, Note_off_c, 0, 61, 88
1, 36770, Note_on_c, 0, 62, 95
1, 36872, Note_off_c, 0, 62, 95
1, 37307, Note_on_c, 0, 72, 98
1, 37364, Note_off_c, 0, 72, 98
1, 37375, Note_on_c, 0, 74, 100
1, 37561, Note_off_c, 0, 74, 100
1, 37586, Note_on_c, 0, 73, 87
1, 37696, Note_off_c, 0, 73, 87
1, 37696, Note_on_c, 0, 72, 83
1, 37777, Note_off_c, 0, 72, 83
1, 37803, Note_on_c, 0, 71, 92
1, 37892, Note_off_c, 0, 71, 92
1, 38488, Note_on_c, 0, 72, 90
1, 38585, Note_off_c, 0, 72, 90
1, 38666, Note_on_c, 0, 69, 106
1, 38765, Note_off_c, 0, 69, 106
1, 38844, Note_on_c, 0, 60, 85
1, 38907, Note_off_c, 0, 60, 85
1, 38932, Note_on_c, 0, 72, 92
1, 38984, Note_off_c, 0, 72, 92
1, 38984, Note_on_c, 0, 74, 97
1, 39129, Note_off_c, 0, 74, 97
1, 39141, Note_on_c, 0, 77, 103
1, 39185, Note_off_c, 0, 77, 103
1, 39194, Note_on_c, 0, 78, 108
1, 39216, Note_off_c, 0, 78, 108
1, 39216, Note_on_c, 0, 77, 102
1, 39258, Note_off_c, 0, 77, 102
1, 39258, Note_on_c, 0, 76, 98
1, 39309, Note_off_c, 0, 76, 98
1, 39319, Note_on_c, 0, 72, 91
1, 39477, Note_off_c, 0, 72, 91
1, 39482, Note_on_c, 0, 77, 100
1, 39541, Note_off_c, 0, 77, 100
1, 39565, Note_on_c, 0, 71, 96
1, 39650, Note_off_c, 0, 71, 96
1, 39665, Note_on_c, 0, 70, 89
1, 39847, Note_off_c, 0, 70, 89
1, 40418, Note_on_c, 0, 68, 99
1, 40467, Note_off_c, 0, 68, 99
1, 40493, Note_on_c, 0, 69, 99
1, 40556, Note_off_c, 0, 69, 99
1, 40592, Note_on_c, 0, 74, 95
1, 40683, Note_off_c, 0, 74, 95
1, 40698, Note_on_c, 0, 71, 103
1, 40724, Note_off_c, 0, 71, 103
1, 40731, Note_on_c, 0, 69, 100
1, 40805, Note_off_c, 0, 69, 100
1, 40805, Note_on_c, 0, 67, 87
1, 40861, Note_off_c, 0, 67, 87
1, 40889, Note_on_c, 0, 74, 85
1, 40977, Note_off_c, 0, 74, 85
1, 41081, Note_on_c, 0, 74, 97
1, 41177, Note_off_c, 0, 74, 97
1, 41217, Note_on_c, 0, 67, 90
1, 41283, Note_off_c, 0, 67, 90
1, 41285, Note_on_c, 0, 69, 94
1, 41401, Note_off_c, 0, 69, 94
1, 41410, Note_on_c, 0, 74, 96
1, 41495, Note_off_c, 0, 74, 96
1, 41956, Note_on_c, 0, 67, 94
1, 42044, Note_off_c, 0, 67, 94
1, 42044, Note_on_c, 0, 74, 108
1, 42138, Note_on_c, 0, 75, 113
1, 42138, Note_off_c, 0, 74, 108
1, 42179, Note_off_c, 0, 75, 113
1, 42179, Note_on_c, 0, 76, 103
1, 42276, Note_off_c, 0, 76, 103
1, 42285, Note_on_c, 0, 75, 99
1, 42359, Note_off_c, 0, 75, 99
1, 42377, Note_on_c, 0, 76, 103
1, 42419, Note_off_c, 0, 76, 103
1, 42419, Note_on_c, 0, 74, 101
1, 42533, Note_off_c, 0, 74, 101
1, 42533, Note_on_c, 0, 75, 99
1, 42604, Note_off_c, 0, 75, 99
1, 42623, Note_on_c, 0, 67, 101
1, 42750, Note_off_c, 0, 67, 101
1, 42750, Note_on_c, 0, 66, 87
1, 42955, Note_off_c, 0, 66, 87
1, 43514, Note_on_c, 0, 67, 111
1, 43593, Note_off_c, 0, 67, 111
1, 43595, Note_on_c, 0, 66, 109
1, 43676, Note_off_c, 0, 66, 109
1, 43686, Note_on_c, 0, 67, 107
1, 43774, Note_off_c, 0, 67, 107
1, 43774, Note_on_c, 0, 77, 107
1, 43848, Note_off_c, 0, 77, 107
1, 43848, Note_on_c, 0, 79, 109
1, 43940, Note_off_c, 0, 79, 109
1, 43940, Note_on_c, 0, 78, 108
1, 44008, Note_off_c, 0, 78, 108
1, 44008, Note_on_c, 0, 76, 104
1, 44170, Note_off_c, 0, 76, 104
1, 44564, Note_on_c, 0, 73, 100
1, 44678, Note_off_c, 0, 73, 100
1, 44686, Note_on_c, 0, 74, 98
1, 44833, Note_off_c, 0, 74, 98
1, 44872, Note_on_c, 0, 71, 99
1, 44949, Note_off_c, 0, 71, 99
1, 45032, Note_on_c, 0, 62, 90
1, 45117, Note_off_c, 0, 62, 90
1, 45161, Note_on_c, 0, 71, 98
1, 45249, Note_off_c, 0, 71, 98
1, 45251, Note_on_c, 0, 72, 71
1, 45317, Note_off_c, 0, 72, 71
1, 45323, Note_on_c, 0, 69, 103
1, 45411, Note_off_c, 0, 69, 103
1, 45450, Note_on_c, 0, 67, 95
1, 45524, Note_off_c, 0, 67, 95
1, 45539, Note_on_c, 0, 68, 98
1, 45602, Note_off_c, 0, 68, 98
1, 45641, Note_on_c, 0, 79, 106
1, 45720, Note_off_c, 0, 79, 106
1, 45726, Note_on_c, 0, 80, 95
1, 45908, Note_off_c, 0, 80, 95
1, 46605, Note_on_c, 0, 71, 111
1, 46653, Note_off_c, 0, 71, 111
1, 46657, Note_on_c, 0, 72, 113
1, 46841, Note_off_c, 0, 72, 113
1, 46871, Note_on_c, 0, 69, 109
1, 46959, Note_off_c, 0, 69, 109
1, 47077, Note_on_c, 0, 70, 111
1, 47171, Note_off_c, 0, 70, 111
1, 47211, Note_on_c, 0, 72, 104
1, 47303, Note_off_c, 0, 72, 104
1, 47572, Note_on_c, 0, 60, 92
1, 47633, Note_off_c, 0, 60, 92
1, 47633, Note_on_c, 0, 62, 101
1, 47732, Note_off_c, 0, 62, 101
1, 47751, Note_on_c, 0, 64, 93
1, 47885, Note_off_c, 0, 64, 93
1, 47930, Note_on_c, 0, 65, 105
1, 47991, Note_off_c, 0, 65, 105
1, 47998, Note_on_c, 0, 67, 109
1, 48145, Note_off_c, 0, 67, 109
1, 48162, Note_on_c, 0, 62, 93
1, 48212, Note_off_c, 0, 62, 93
1, 48213, Note_on_c, 0, 68, 104
1, 48327, Note_off_c, 0, 68, 104
1, 48327, Note_on_c, 0, 69, 96
1, 48586, Note_off_c, 0, 69, 96
1, 50154, Note_on_c, 0, 62, 96
1, 50222, Note_off_c, 0, 62, 96
1, 50226, Note_on_c, 0, 61, 94
1, 50252, Note_off_c, 0, 61, 94
1, 50256, Note_on_c, 0, 62, 99
1, 50352, Note_off_c, 0, 62, 99
1, 50362, Note_on_c, 0, 64, 99
1, 50450, Note_off_c, 0, 64, 99
1, 50461, Note_on_c, 0, 71, 102
1, 50542, Note_off_c, 0, 71, 102
1, 50545, Note_on_c, 0, 73, 98
1, 50645, Note_off_c, 0, 73, 98
1, 50645, Note_on_c, 0, 68, 108
1, 50724, Note_off_c, 0, 68, 108
1, 50726, Note_on_c, 0, 69, 110
1, 50809, Note_off_c, 0, 69, 110
1, 50815, Note_on_c, 0, 70, 109
1, 50911, Note_off_c, 0, 70, 109
1, 50913, Note_on_c, 0, 71, 111
1, 50994, Note_off_c, 0, 71, 111
1, 50996, Note_on_c, 0, 71, 106
1, 51070, Note_off_c, 0, 71, 106
1, 51085, Note_on_c, 0, 69, 110
1, 51179, Note_off_c, 0, 69, 110
1, 51194, Note_on_c, 0, 67, 93
1, 51288, Note_off_c, 0, 67, 93
1, 51288, Note_on_c, 0, 68, 102
1, 51367, Note_off_c, 0, 68, 102
1, 51384, Note_on_c, 0, 60, 94
1, 51430, Note_off_c, 0, 60, 94
1, 51430, Note_on_c, 0, 61, 92
1, 51478, Note_off_c, 0, 61, 92
1, 51489, Note_on_c, 0, 60, 86
1, 51601, Note_off_c, 0, 60, 86
1, 51607, Note_on_c, 0, 59, 86
1, 51662, Note_off_c, 0, 59, 86
1, 51670, Note_on_c, 0, 58, 81
1, 51898, Note_off_c, 0, 58, 81
1, 52923, Note_on_c, 0, 57, 100
1, 52991, Note_off_c, 0, 57, 100
1, 53002, Note_on_c, 0, 58, 104
1, 53052, Note_off_c, 0, 58, 104
1, 53071, Note_on_c, 0, 60, 102
1, 53150, Note_off_c, 0, 60, 102
1, 53150, Note_on_c, 0, 62, 104
1, 53251, Note_off_c, 0, 62, 104
1, 53268, Note_on_c, 0, 62, 107
1, 53351, Note_off_c, 0, 62, 107
1, 53357, Note_on_c, 0, 64, 98
1, 53467, Note_off_c, 0, 64, 98
1, 53478, Note_on_c, 0, 67, 113
1, 53567, Note_off_c, 0, 67, 113
1, 53567, Note_on_c, 0, 65, 101
1, 53663, Note_off_c, 0, 65, 101
1, 53676, Note_on_c, 0, 62, 101
1, 53750, Note_off_c, 0, 62, 101
1, 53755, Note_on_c, 0, 58, 97
1, 53847, Note_off_c, 0, 58, 97
1, 53855, Note_on_c, 0, 55, 93
1, 53914, Note_off_c, 0, 55, 93
1, 53920, Note_on_c, 0, 57, 96
1, 54023, Note_off_c, 0, 57, 96
1, 54067, Note_on_c, 0, 53, 88
1, 54130, Note_off_c, 0, 53, 88
1, 54340, Note_on_c, 0, 62, 95
1, 54489, Note_off_c, 0, 62, 95
1, 54633, Note_on_c, 0, 63, 100
1, 54738, Note_off_c, 0, 63, 100
1, 54742, Note_on_c, 0, 62, 96
1, 54803, Note_off_c, 0, 62, 96
1, 54827, Note_on_c, 0, 58, 91
1, 54875, Note_on_c, 0, 61, 97
1, 54875, Note_off_c, 0, 58, 91
1, 54967, Note_off_c, 0, 61, 97
1, 55182, Note_on_c, 0, 71, 103
1, 55270, Note_off_c, 0, 71, 103
1, 55322, Note_on_c, 0, 63, 85
1, 55363, Note_off_c, 0, 63, 85
1, 55382, Note_on_c, 0, 60, 84
1, 55450, Note_off_c, 0, 60, 84
1, 55452, Note_on_c, 0, 70, 102
1, 55575, Note_off_c, 0, 70, 102
1, 55636, Note_on_c, 0, 69, 104
1, 55763, Note_off_c, 0, 69, 104
1, 55765, Note_on_c, 0, 67, 92
1, 55844, Note_off_c, 0, 67, 92
1, 55849, Note_on_c, 0, 68, 98
1, 55989, Note_off_c, 0, 68, 98
1, 56135, Note_on_c, 0, 67, 103
1, 56289, Note_off_c, 0, 67, 103
1, 56319, Note_on_c, 0, 60, 93
1, 56378, Note_off_c, 0, 60, 93
1, 56389, Note_on_c, 0, 66, 106
1, 56512, Note_off_c, 0, 66, 106
1, 56512, Note_on_c, 0, 62, 84
1, 56573, Note_off_c, 0, 62, 84
1, 56584, Note_on_c, 0, 66, 104
1, 56687, Note_off_c, 0, 66, 104
1, 56703, Note_on_c, 0, 65, 95
1, 56813, Note_off_c, 0, 65, 95
1, 56840, Note_on_c, 0, 61, 77
1, 56886, Note_off_c, 0, 61, 77
1, 56886, Note_on_c, 0, 60, 88
1, 56974, Note_off_c, 0, 60, 88
1, 57090, Note_on_c, 0, 70, 98
1, 57186, Note_off_c, 0, 70, 98
1, 57205, Note_on_c, 0, 62, 91
1, 57273, Note_off_c, 0, 62, 91
1, 57275, Note_on_c, 0, 60, 91
1, 57349, Note_off_c, 0, 60, 91
1, 57549, Note_on_c, 0, 70, 110
1, 57623, Note_off_c, 0, 70, 110
1, 57627, Note_on_c, 0, 68, 89
1, 57719, Note_off_c, 0, 68, 89
1, 57725, Note_on_c, 0, 69, 104
1, 57808, Note_off_c, 0, 69, 104
1, 57852, Note_on_c, 0, 58, 93
1, 57944, Note_off_c, 0, 58, 93
1, 58209, Note_on_c, 0, 67, 110
1, 58272, Note_off_c, 0, 67, 110
1, 58272, Note_on_c, 0, 65, 104
1, 58307, Note_off_c, 0, 65, 104
1, 58307, Note_on_c, 0, 64, 93
1, 58395, Note_off_c, 0, 64, 93
1, 58406, Note_on_c, 0, 65, 94
1, 58478, Note_off_c, 0, 65, 94
1, 58959, Note_on_c, 0, 65, 109
1, 59040, Note_off_c, 0, 65, 109
1, 59048, Note_on_c, 0, 66, 106
1, 59103, Note_off_c, 0, 66, 106
1, 59131, Note_on_c, 0, 68, 108
1, 59223, Note_off_c, 0, 68, 108
1, 59231, Note_on_c, 0, 69, 103
1, 59310, Note_off_c, 0, 69, 103
1, 59332, Note_on_c, 0, 70, 104
1, 59398, Note_off_c, 0, 70, 104
1, 59411, Note_on_c, 0, 71, 104
1, 59523, Note_off_c, 0, 71, 104
1, 59531, Note_on_c, 0, 71, 95
1, 59586, Note_off_c, 0, 71, 95
1, 59592, Note_on_c, 0, 69, 96
1, 59724, Note_off_c, 0, 69, 96
1, 59732, Note_on_c, 0, 70, 99
1, 59828, Note_off_c, 0, 70, 99
1, 59916, Note_on_c, 0, 67, 106
1, 60006, Note_off_c, 0, 67, 106
1, 60129, Note_on_c, 0, 68, 103
1, 60203, Note_off_c, 0, 68, 103
1, 60302, Note_on_c, 0, 60, 91
1, 60385, Note_off_c, 0, 60, 91
1, 60404, Note_on_c, 0, 67, 106
1, 60492, Note_off_c, 0, 67, 106
1, 60576, Note_on_c, 0, 65, 100
1, 60664, Note_off_c, 0, 65, 100
1, 60681, Note_on_c, 0, 62, 84
1, 60760, Note_off_c, 0, 62, 84
1, 60760, Note_on_c, 0, 63, 96
1, 60856, Note_off_c, 0, 63, 96
1, 60891, Note_on_c, 0, 67, 101
1, 60957, Note_off_c, 0, 67, 101
1, 60968, Note_on_c, 0, 70, 100
1, 61060, Note_off_c, 0, 70, 100
1, 61071, Note_on_c, 0, 74, 102
1, 61139, Note_off_c, 0, 74, 102
1, 61145, Note_on_c, 0, 72, 101
1, 61224, Note_off_c, 0, 72, 101
1, 61224, Note_on_c, 0, 73, 97
1, 61279, Note_off_c, 0, 73, 97
1, 61279, Note_on_c, 0, 71, 100
1, 61325, Note_off_c, 0, 71, 100
1, 61338, Note_on_c, 0, 70, 98
1, 61432, Note_off_c, 0, 70, 98
1, 61443, Note_on_c, 0, 68, 81
1, 61513, Note_off_c, 0, 68, 81
1, 61534, Note_on_c, 0, 69, 91
1, 61639, Note_off_c, 0, 69, 91
1, 62235, Note_on_c, 0, 74, 104
1, 62287, Note_off_c, 0, 74, 104
1, 62293, Note_on_c, 0, 76, 103
1, 62400, Note_off_c, 0, 76, 103
1, 62408, Note_on_c, 0, 77, 108
1, 62487, Note_off_c, 0, 77, 108
1, 62500, Note_on_c, 0, 77, 100
1, 62834, Note_off_c, 0, 77, 100
1, 62834, Note_on_c, 0, 74, 98
1, 62922, Note_off_c, 0, 74, 98
1, 62983, Note_on_c, 0, 72, 95
1, 63075, Note_off_c, 0, 72, 95
1, 63169, Note_on_c, 0, 67, 105
1, 63246, Note_off_c, 0, 67, 105
1, 63303, Note_on_c, 0, 62, 79
1, 63353, Note_on_c, 0, 60, 86
1, 63353, Note_off_c, 0, 62, 79
1, 63427, Note_off_c, 0, 60, 86
1, 63433, Note_on_c, 0, 68, 102
1, 63534, Note_off_c, 0, 68, 102
1, 63538, Note_on_c, 0, 69, 93
1, 63599, Note_off_c, 0, 69, 93
1, 63599, Note_on_c, 0, 65, 97
1, 63695, Note_off_c, 0, 65, 97
1, 63712, Note_on_c, 0, 60, 88
1, 63793, Note_off_c, 0, 60, 88
1, 63801, Note_on_c, 0, 59, 93
1, 63924, Note_off_c, 0, 59, 93
1, 63924, Note_on_c, 0, 67, 94
1, 64025, Note_off_c, 0, 67, 94
1, 64121, Note_on_c, 0, 64, 88
1, 64187, Note_off_c, 0, 64, 88
1, 64308, Note_on_c, 0, 65, 84
1, 64475, Note_off_c, 0, 65, 84
1, 65423, Note_on_c, 0, 61, 101
1, 65506, Note_off_c, 0, 61, 101
1, 65521, Note_on_c, 0, 58, 103
1, 65622, Note_off_c, 0, 58, 103
1, 65644, Note_on_c, 0, 60, 101
1, 65765, Note_off_c, 0, 60, 101
1, 65817, Note_on_c, 0, 61, 103
1, 65898, Note_off_c, 0, 61, 103
1, 65917, Note_on_c, 0, 63, 98
1, 66022, Note_off_c, 0, 63, 98
1, 66026, Note_on_c, 0, 66, 108
1, 66140, Note_off_c, 0, 66, 108
1, 66203, Note_on_c, 0, 68, 110
1, 66286, Note_off_c, 0, 68, 110
1, 66294, Note_on_c, 0, 66, 105
1, 66375, Note_off_c, 0, 66, 105
1, 66379, Note_on_c, 0, 61, 92
1, 66458, Note_off_c, 0, 61, 92
1, 66488, Note_on_c, 0, 70, 106
1, 66576, Note_off_c, 0, 70, 106
1, 66661, Note_on_c, 0, 72, 107
1, 66757, Note_off_c, 0, 72, 107
1, 66776, Note_on_c, 0, 66, 82
1, 66844, Note_off_c, 0, 66, 82
1, 66854, Note_on_c, 0, 68, 102
1, 66977, Note_off_c, 0, 68, 102
1, 66990, Note_on_c, 0, 66, 101
1, 67051, Note_off_c, 0, 66, 101
1, 67055, Note_on_c, 0, 63, 96
1, 67127, Note_off_c, 0, 63, 96
1, 67140, Note_on_c, 0, 58, 93
1, 67221, Note_off_c, 0, 58, 93
1, 67238, Note_on_c, 0, 61, 94
1, 67319, Note_off_c, 0, 61, 94
1, 67319, Note_on_c, 0, 61, 80
1, 67321, Note_off_c, 0, 61, 80
1, 67325, Note_on_c, 0, 66, 95
1, 67404, Note_off_c, 0, 66, 95
1, 67428, Note_on_c, 0, 61, 88
1, 67505, Note_off_c, 0, 61, 88
1, 67513, Note_on_c, 0, 59, 93
1, 67596, Note_off_c, 0, 59, 93
1, 68080, Note_on_c, 0, 73, 102
1, 68139, Note_off_c, 0, 73, 102
1, 68143, Note_on_c, 0, 71, 103
1, 68281, Note_off_c, 0, 71, 103
1, 68285, Note_on_c, 0, 73, 99
1, 68346, Note_off_c, 0, 73, 99
1, 68447, Note_on_c, 0, 68, 104
1, 68541, Note_off_c, 0, 68, 104
1, 68574, Note_on_c, 0, 63, 86
1, 68626, Note_off_c, 0, 63, 86
1, 68626, Note_on_c, 0, 63, 80
1, 68626, Note_off_c, 0, 63, 80
1, 68634, Note_on_c, 0, 60, 86
1, 68702, Note_off_c, 0, 60, 86
1, 68735, Note_on_c, 0, 68, 105
1, 68845, Note_off_c, 0, 68, 105
1, 68939, Note_on_c, 0, 66, 103
1, 69057, Note_off_c, 0, 66, 103
1, 69602, Note_on_c, 0, 68, 108
1, 69679, Note_off_c, 0, 68, 108
1, 69687, Note_on_c, 0, 66, 103
1, 69799, Note_off_c, 0, 66, 103
1, 69801, Note_on_c, 0, 64, 90
1, 69838, Note_off_c, 0, 64, 90
1, 69884, Note_on_c, 0, 73, 97
1, 69945, Note_off_c, 0, 73, 97
1, 69951, Note_on_c, 0, 74, 101
1, 70052, Note_off_c, 0, 74, 101
1, 70054, Note_on_c, 0, 70, 107
1, 70164, Note_off_c, 0, 70, 107
1, 70175, Note_on_c, 0, 66, 91
1, 70243, Note_off_c, 0, 66, 91
1, 70247, Note_on_c, 0, 69, 110
1, 70372, Note_off_c, 0, 69, 110
1, 70400, Note_on_c, 0, 65, 99
1, 70485, Note_off_c, 0, 65, 99
1, 70969, Note_on_c, 0, 63, 101
1, 70993, Note_off_c, 0, 63, 101
1, 71006, Note_on_c, 0, 65, 98
1, 71162, Note_off_c, 0, 65, 98
1, 71170, Note_on_c, 0, 70, 79
1, 71207, Note_off_c, 0, 70, 79
1, 71213, Note_on_c, 0, 72, 89
1, 71250, Note_on_c, 0, 75, 108
1, 71250, Note_off_c, 0, 72, 89
1, 71329, Note_off_c, 0, 75, 108
1, 71331, Note_on_c, 0, 72, 88
1, 71405, Note_off_c, 0, 72, 88
1, 71424, Note_on_c, 0, 74, 99
1, 71512, Note_off_c, 0, 74, 99
1, 71529, Note_on_c, 0, 69, 109
1, 71614, Note_off_c, 0, 69, 109
1, 71625, Note_on_c, 0, 65, 96
1, 71724, Note_off_c, 0, 65, 96
1, 71730, Note_on_c, 0, 62, 93
1, 71782, Note_off_c, 0, 62, 93
1, 71793, Note_on_c, 0, 67, 113
1, 71903, Note_off_c, 0, 67, 113
1, 71918, Note_on_c, 0, 70, 104
1, 72001, Note_off_c, 0, 70, 104
1, 72113, Note_on_c, 0, 63, 94
1, 72192, Note_off_c, 0, 63, 94
1, 72286, Note_on_c, 0, 68, 103
1, 72400, Note_off_c, 0, 68, 103
1, 72408, Note_on_c, 0, 63, 85
1, 72454, Note_off_c, 0, 63, 85
1, 72454, Note_on_c, 0, 60, 83
1, 72548, Note_off_c, 0, 60, 83
1, 72552, Note_on_c, 0, 67, 105
1, 72648, Note_off_c, 0, 67, 105
1, 72700, Note_on_c, 0, 61, 85
1, 72741, Note_off_c, 0, 61, 85
1, 72752, Note_on_c, 0, 68, 99
1, 72822, Note_off_c, 0, 68, 99
1, 72826, Note_on_c, 0, 69, 90
1, 72903, Note_off_c, 0, 69, 90
1, 72911, Note_on_c, 0, 67, 96
1, 72941, Note_off_c, 0, 67, 96
1, 72949, Note_on_c, 0, 65, 93
1, 73039, Note_off_c, 0, 65, 93
1, 73054, Note_on_c, 0, 63, 95
1, 73115, Note_off_c, 0, 63, 95
1, 73119, Note_on_c, 0, 60, 90
1, 73204, Note_off_c, 0, 60, 90
1, 73210, Note_on_c, 0, 61, 95
1, 73306, Note_off_c, 0, 61, 95
1, 73319, Note_on_c, 0, 62, 101
1, 73407, Note_off_c, 0, 62, 101
1, 73437, Note_on_c, 0, 67, 106
1, 73516, Note_off_c, 0, 67, 106
1, 73518, Note_on_c, 0, 70, 108
1, 73588, Note_off_c, 0, 70, 108
1, 73614, Note_on_c, 0, 68, 93
1, 73697, Note_off_c, 0, 68, 93
1, 73705, Note_on_c, 0, 69, 88
1, 73878, Note_off_c, 0, 69, 88
1, 74188, Note_on_c, 0, 69, 114
1, 74223, Note_off_c, 0, 69, 114
1, 74231, Note_on_c, 0, 71, 108
1, 74310, Note_off_c, 0, 71, 108
1, 74329, Note_on_c, 0, 72, 102
1, 74406, Note_off_c, 0, 72, 102
1, 74414, Note_on_c, 0, 73, 109
1, 74486, Note_off_c, 0, 73, 109
1, 74497, Note_on_c, 0, 74, 96
1, 74582, Note_off_c, 0, 74, 96
1, 74612, Note_on_c, 0, 67, 109
1, 74686, Note_off_c, 0, 67, 109
1, 74686, Note_on_c, 0, 66, 102
1, 74760, Note_off_c, 0, 66, 102
1, 74788, Note_on_c, 0, 63, 86
1, 74862, Note_off_c, 0, 63, 86
1, 74868, Note_on_c, 0, 65, 100
1, 74956, Note_off_c, 0, 65, 100
1, 74971, Note_on_c, 0, 73, 94
1, 75004, Note_off_c, 0, 73, 94
1, 75004, Note_on_c, 0, 77, 111
1, 75092, Note_off_c, 0, 77, 111
1, 76291, Note_on_c, 0, 76, 103
1, 76328, Note_off_c, 0, 76, 103
1, 76339, Note_on_c, 0, 79, 108
1, 77305, Note_off_c, 0, 79, 108
1, 77338, Note_on_c, 0, 77, 107
1, 77496, Note_off_c, 0, 77, 107
1, 77511, Note_on_c, 0, 76, 99
1, 77711, Note_off_c, 0, 76, 99
1, 77719, Note_on_c, 0, 74, 100
1, 77873, Note_off_c, 0, 74, 100
1, 77877, Note_on_c, 0, 76, 100
1, 77916, Note_off_c, 0, 76, 100
1, 77929, Note_on_c, 0, 77, 108
1, 78265, Note_off_c, 0, 77, 108
1, 78861, Note_on_c, 0, 72, 99
1, 78902, Note_off_c, 0, 72, 99
1, 78908, Note_on_c, 0, 74, 101
1, 79035, Note_off_c, 0, 74, 101
1, 79037, Note_on_c, 0, 72, 101
1, 79224, Note_off_c, 0, 72, 101
1, 79237, Note_on_c, 0, 69, 96
1, 79327, Note_off_c, 0, 69, 96
1, 79368, Note_on_c, 0, 70, 106
1, 79526, Note_off_c, 0, 70, 106
1, 80325, Note_on_c, 0, 71, 98
1, 80364, Note_off_c, 0, 71, 98
1, 80372, Note_on_c, 0, 72, 96
1, 80589, Note_off_c, 0, 72, 96
1, 80597, Note_on_c, 0, 74, 103
1, 80715, Note_off_c, 0, 74, 103
1, 80717, Note_on_c, 0, 73, 97
1, 80785, Note_off_c, 0, 73, 97
1, 80791, Note_on_c, 0, 72, 100
1, 80896, Note_off_c, 0, 72, 100
1, 80900, Note_on_c, 0, 71, 103
1, 80970, Note_off_c, 0, 71, 103
1, 80970, Note_on_c, 0, 70, 105
1, 81075, Note_off_c, 0, 70, 105
1, 81077, Note_on_c, 0, 71, 98
1, 81171, Note_off_c, 0, 71, 98
1, 81184, Note_on_c, 0, 70, 98
1, 81236, Note_off_c, 0, 70, 98
1, 81561, Note_on_c, 0, 67, 117
1, 81673, Note_off_c, 0, 67, 117
1, 81677, Note_on_c, 0, 68, 109
1, 81859, Note_off_c, 0, 68, 109
1, 81931, Note_on_c, 0, 74, 100
1, 81994, Note_off_c, 0, 74, 100
1, 82095, Note_on_c, 0, 60, 86
1, 82141, Note_off_c, 0, 60, 86
1, 82180, Note_on_c, 0, 67, 106
1, 82430, Note_off_c, 0, 67, 106
1, 83365, Note_on_c, 0, 74, 106
1, 83479, Note_off_c, 0, 74, 106
1, 83483, Note_on_c, 0, 75, 98
1, 83546, Note_off_c, 0, 75, 98
1, 83548, Note_on_c, 0, 73, 81
1, 83572, Note_off_c, 0, 73, 81
1, 83576, Note_on_c, 0, 71, 98
1, 83606, Note_off_c, 0, 71, 98
1, 83614, Note_on_c, 0, 69, 107
1, 83702, Note_off_c, 0, 69, 107
1, 83710, Note_on_c, 0, 72, 95
1, 83762, Note_off_c, 0, 72, 95
1, 83770, Note_on_c, 0, 71, 102
1, 83809, Note_off_c, 0, 71, 102
1, 83815, Note_on_c, 0, 69, 106
1, 83850, Note_off_c, 0, 69, 106
1, 83850, Note_on_c, 0, 69, 103
1, 83856, Note_off_c, 0, 69, 103
1, 83860, Note_on_c, 0, 70, 111
1, 83976, Note_off_c, 0, 70, 111
1, 83991, Note_on_c, 0, 67, 102
1, 84065, Note_off_c, 0, 67, 102
1, 84067, Note_on_c, 0, 68, 102
1, 84161, Note_off_c, 0, 68, 102
1, 84167, Note_on_c, 0, 74, 101
1, 84246, Note_off_c, 0, 74, 101
1, 84261, Note_on_c, 0, 71, 94
1, 84355, Note_off_c, 0, 71, 94
1, 84361, Note_on_c, 0, 72, 94
1, 84440, Note_off_c, 0, 72, 94
1, 84746, Note_on_c, 0, 72, 106
1, 84823, Note_off_c, 0, 72, 106
1, 84826, Note_on_c, 0, 71, 106
1, 84921, Note_off_c, 0, 71, 106
1, 84930, Note_on_c, 0, 72, 105
1, 85007, Note_off_c, 0, 72, 105
1, 85301, Note_on_c, 0, 64, 96
1, 85359, Note_off_c, 0, 64, 96
1, 85383, Note_on_c, 0, 64, 95
1, 85466, Note_off_c, 0, 64, 95
1, 85500, Note_on_c, 0, 64, 95
1, 85623, Note_off_c, 0, 64, 95
1, 85681, Note_on_c, 0, 69, 106
1, 85767, Note_off_c, 0, 69, 106
1, 85782, Note_on_c, 0, 67, 109
1, 85877, Note_off_c, 0, 67, 109
1, 86301, Note_on_c, 0, 62, 105
1, 86387, Note_off_c, 0, 62, 105
1, 86436, Note_on_c, 0, 64, 101
1, 87248, Note_off_c, 0, 64, 101
1, 87254, Note_on_c, 0, 60, 91
1, 87377, Note_off_c, 0, 60, 91
1, 87401, Note_on_c, 0, 62, 102
1, 87493, Note_off_c, 0, 62, 102
1, 87499, Note_on_c, 0, 64, 95
1, 87554, Note_off_c, 0, 64, 95
1, 87563, Note_on_c, 0, 65, 103
1, 87658, Note_off_c, 0, 65, 103
1, 87670, Note_on_c, 0, 64, 95
1, 87741, Note_off_c, 0, 64, 95
1, 87754, Note_on_c, 0, 60, 92
1, 87850, Note_off_c, 0, 60, 92
1, 87858, Note_on_c, 0, 64, 94
1, 87954, Note_off_c, 0, 64, 94
1, 88042, Note_on_c, 0, 64, 84
1, 88319, Note_off_c, 0, 64, 84
1, 89661, Note_on_c, 0, 61, 104
1, 89716, Note_off_c, 0, 61, 104
1, 89718, Note_on_c, 0, 62, 110
1, 90310, Note_off_c, 0, 62, 110
1, 90312, Note_on_c, 0, 60, 94
1, 90428, Note_off_c, 0, 60, 94
1, 90434, Note_on_c, 0, 63, 9
1, 90922, Note_off_c, 0, 63, 9
1, 91230, Note_on_c, 0, 61, 98
1, 91265, Note_off_c, 0, 61, 98
1, 91265, Note_on_c, 0, 62, 108
1, 91394, Note_off_c, 0, 62, 108
1, 91416, Note_on_c, 0, 62, 105
1, 91539, Note_off_c, 0, 62, 105
1, 91545, Note_on_c, 0, 60, 88
1, 91633, Note_off_c, 0, 60, 88
1, 91655, Note_on_c, 0, 63, 98
1, 92002, Note_off_c, 0, 63, 98
1, 92783, Note_on_c, 0, 62, 101
1, 92886, Note_off_c, 0, 62, 101
1, 92888, Note_on_c, 0, 59, 93
1, 93002, Note_off_c, 0, 59, 93
1, 93006, Note_on_c, 0, 62, 102
1, 93107, Note_off_c, 0, 62, 102
1, 93109, Note_on_c, 0, 59, 83
1, 93197, Note_off_c, 0, 59, 83
1, 93221, Note_on_c, 0, 62, 100
1, 93269, Note_off_c, 0, 62, 100
1, 93302, Note_on_c, 0, 67, 103
1, 93442, Note_off_c, 0, 67, 103
1, 93481, Note_on_c, 0, 70, 108
1, 93617, Note_off_c, 0, 70, 108
1, 93678, Note_on_c, 0, 70, 106
1, 93792, Note_off_c, 0, 70, 106
1, 93800, Note_on_c, 0, 71, 93
1, 93940, Note_off_c, 0, 71, 93
1, 94208, Note_on_c, 0, 62, 106
1, 94326, Note_off_c, 0, 62, 106
1, 94330, Note_on_c, 0, 59, 88
1, 94409, Note_off_c, 0, 59, 88
1, 94417, Note_on_c, 0, 60, 92
1, 94527, Note_off_c, 0, 60, 92
1, 94540, Note_on_c, 0, 67, 109
1, 94654, Note_off_c, 0, 67, 109
1, 94742, Note_on_c, 0, 69, 100
1, 94977, Note_off_c, 0, 69, 100
1, 96022, Note_on_c, 0, 72, 102
1, 96101, Note_off_c, 0, 72, 102
1, 96114, Note_on_c, 0, 71, 100
1, 96206, Note_off_c, 0, 71, 100
1, 96219, Note_on_c, 0, 63, 91
1, 96267, Note_off_c, 0, 63, 91
1, 96267, Note_on_c, 0, 60, 93
1, 96319, Note_off_c, 0, 60, 93
1, 96327, Note_on_c, 0, 70, 105
1, 96456, Note_off_c, 0, 70, 105
1, 96467, Note_on_c, 0, 67, 105
1, 96555, Note_off_c, 0, 67, 105
1, 96632, Note_on_c, 0, 69, 103
1, 96803, Note_off_c, 0, 69, 103
1, 97210, Note_on_c, 0, 72, 96
1, 97251, Note_off_c, 0, 72, 96
1, 97251, Note_on_c, 0, 73, 104
1, 97306, Note_off_c, 0, 73, 104
1, 97308, Note_on_c, 0, 72, 98
1, 97378, Note_off_c, 0, 72, 98
1, 97378, Note_on_c, 0, 71, 91
1, 97433, Note_off_c, 0, 71, 91
1, 97435, Note_on_c, 0, 67, 95
1, 97487, Note_off_c, 0, 67, 95
1, 97487, Note_on_c, 0, 70, 108
1, 97623, Note_off_c, 0, 70, 108
1, 97634, Note_on_c, 0, 65, 93
1, 97697, Note_off_c, 0, 65, 93
1, 97785, Note_on_c, 0, 68, 93
1, 98029, Note_off_c, 0, 68, 93
1, 98900, Note_on_c, 0, 65, 95
1, 98966, Note_off_c, 0, 65, 95
1, 98992, Note_on_c, 0, 68, 102
1, 99124, Note_off_c, 0, 68, 102
1, 99132, Note_on_c, 0, 70, 109
1, 99215, Note_off_c, 0, 70, 109
1, 99307, Note_on_c, 0, 71, 96
1, 99342, Note_off_c, 0, 71, 96
1, 99342, Note_on_c, 0, 72, 102
1, 99962, Note_off_c, 0, 72, 102
1, 100020, Note_on_c, 0, 72, 85
1, 100075, Note_off_c, 0, 72, 85
1, 100110, Note_on_c, 0, 68, 93
1, 100215, Note_off_c, 0, 68, 93
1, 100236, Note_on_c, 0, 65, 86
1, 100574, Note_off_c, 0, 65, 86
1, 101199, Note_on_c, 0, 65, 77
1, 101245, Note_off_c, 0, 65, 77
1, 101296, Note_on_c, 0, 68, 109
1, 101411, Note_off_c, 0, 68, 109
1, 101411, Note_on_c, 0, 70, 106
1, 101490, Note_off_c, 0, 70, 106
1, 101571, Note_on_c, 0, 71, 97
1, 101595, Note_off_c, 0, 71, 97
1, 101601, Note_on_c, 0, 72, 107
1, 101700, Note_off_c, 0, 72, 107
1, 101739, Note_on_c, 0, 75, 115
1, 101807, Note_off_c, 0, 75, 115
1, 101807, Note_on_c, 0, 77, 116
1, 102348, Note_off_c, 0, 77, 116
1, 102359, Note_on_c, 0, 72, 96
1, 102499, Note_off_c, 0, 72, 96
1, 102510, Note_on_c, 0, 65, 82
1, 102591, Note_off_c, 0, 65, 82
1, 103024, Note_on_c, 0, 67, 98
1, 103116, Note_off_c, 0, 67, 98
1, 103168, Note_on_c, 0, 67, 101
1, 103207, Note_off_c, 0, 67, 101
1, 103215, Note_on_c, 0, 68, 99
1, 103320, Note_off_c, 0, 68, 99
1, 103342, Note_on_c, 0, 67, 100
1, 103386, Note_off_c, 0, 67, 100
1, 103403, Note_on_c, 0, 68, 91
1, 103508, Note_off_c, 0, 68, 91
1, 103543, Note_on_c, 0, 67, 103
1, 103648, Note_off_c, 0, 67, 103
1, 103663, Note_on_c, 0, 65, 91
1, 103755, Note_off_c, 0, 65, 91
1, 103836, Note_on_c, 0, 67, 88
1, 104051, Note_off_c, 0, 67, 88
1, 105089, Note_on_c, 0, 66, 106
1, 105161, Note_off_c, 0, 66, 106
1, 105162, Note_on_c, 0, 67, 106
1, 105245, Note_off_c, 0, 67, 106
1, 105252, Note_on_c, 0, 63, 97
1, 105337, Note_off_c, 0, 63, 97
1, 105337, Note_on_c, 0, 60, 85
1, 105425, Note_off_c, 0, 60, 85
1, 105438, Note_on_c, 0, 68, 107
1, 105548, Note_off_c, 0, 68, 107
1, 105550, Note_on_c, 0, 69, 100
1, 105642, Note_off_c, 0, 69, 100
1, 105736, Note_on_c, 0, 65, 98
1, 105824, Note_off_c, 0, 65, 98
1, 105903, Note_on_c, 0, 60, 92
1, 106030, Note_off_c, 0, 60, 92
1, 106120, Note_on_c, 0, 55, 88
1, 106214, Note_off_c, 0, 55, 88
1, 106218, Note_on_c, 0, 58, 94
1, 106345, Note_off_c, 0, 58, 94
1, 106380, Note_on_c, 0, 67, 105
1, 106525, Note_off_c, 0, 67, 105
1, 106599, Note_on_c, 0, 64, 94
1, 106706, Note_off_c, 0, 64, 94
1, 106717, Note_on_c, 0, 65, 91
1, 106791, Note_off_c, 0, 65, 91
1, 107543, Note_on_c, 0, 52, 82
1, 107635, Note_off_c, 0, 52, 82
1, 107643, Note_on_c, 0, 53, 86
1, 107810, Note_off_c, 0, 53, 86
1, 107922, Note_on_c, 0, 57, 88
1, 108062, Note_off_c, 0, 57, 88
1, 108130, Note_on_c, 0, 57, 97
1, 108215, Note_off_c, 0, 57, 97
1, 108221, Note_on_c, 0, 60, 94
1, 108295, Note_off_c, 0, 60, 94
1, 108321, Note_on_c, 0, 60, 95
1, 108404, Note_off_c, 0, 60, 95
1, 108421, Note_on_c, 0, 57, 83
1, 108493, Note_off_c, 0, 57, 83
1, 108504, Note_on_c, 0, 58, 92
1, 108622, Note_off_c, 0, 58, 92
1, 108646, Note_on_c, 0, 58, 91
1, 108771, Note_off_c, 0, 58, 91
1, 108821, Note_on_c, 0, 58, 91
1, 108939, Note_off_c, 0, 58, 91
1, 108976, Note_on_c, 0, 62, 100
1, 109147, Note_off_c, 0, 62, 100
1, 109151, Note_on_c, 0, 59, 89
1, 109228, Note_off_c, 0, 59, 89
1, 109245, Note_on_c, 0, 60, 88
1, 109352, Note_off_c, 0, 60, 88
1, 109422, Note_on_c, 0, 69, 96
1, 109536, Note_off_c, 0, 69, 96
1, 109628, Note_on_c, 0, 65, 93
1, 109733, Note_off_c, 0, 65, 93
1, 109773, Note_on_c, 0, 67, 101
1, 109852, Note_off_c, 0, 67, 101
1, 109932, Note_on_c, 0, 62, 92
1, 109965, Note_off_c, 0, 62, 92
1, 109969, Note_on_c, 0, 60, 87
1, 110037, Note_off_c, 0, 60, 87
1, 110303, Note_on_c, 0, 70, 108
1, 110452, Note_off_c, 0, 70, 108
1, 110489, Note_on_c, 0, 68, 99
1, 110599, Note_off_c, 0, 68, 99
1, 110691, Note_on_c, 0, 60, 82
1, 110769, Note_off_c, 0, 60, 82
1, 110769, Note_on_c, 0, 65, 91
1, 110918, Note_off_c, 0, 65, 91
1, 111176, Note_on_c, 0, 72, 100
1, 111272, Note_off_c, 0, 72, 100
1, 111474, Note_on_c, 0, 70, 106
1, 111577, Note_off_c, 0, 70, 106
1, 111682, Note_on_c, 0, 67, 83
1, 111748, Note_off_c, 0, 67, 83
1, 111748, Note_on_c, 0, 74, 99
1, 111825, Note_off_c, 0, 74, 99
1, 112053, Note_on_c, 0, 72, 99
1, 112202, Note_off_c, 0, 72, 99
1, 112228, Note_on_c, 0, 70, 75
1, 112289, Note_off_c, 0, 70, 75
1, 112392, Note_on_c, 0, 77, 104
1, 112477, Note_off_c, 0, 77, 104
1, 112485, Note_on_c, 0, 77, 106
1, 112647, Note_off_c, 0, 77, 106
1, 112686, Note_on_c, 0, 74, 97
1, 112807, Note_off_c, 0, 74, 97
1, 112809, Note_on_c, 0, 72, 88
1, 112899, Note_off_c, 0, 72, 88
1, 112980, Note_on_c, 0, 67, 84
1, 113230, Note_off_c, 0, 67, 84
1, 113877, Note_on_c, 0, 67, 114
1, 113943, Note_off_c, 0, 67, 114
1, 113967, Note_on_c, 0, 68, 104
1, 114077, Note_off_c, 0, 68, 104
1, 114316, Note_on_c, 0, 64, 99
1, 114395, Note_off_c, 0, 64, 99
1, 114399, Note_on_c, 0, 63, 93
1, 114856, Note_off_c, 0, 63, 93
1, 115373, Note_on_c, 0, 67, 112
1, 115487, Note_off_c, 0, 67, 112
1, 115487, Note_on_c, 0, 68, 101
1, 115579, Note_off_c, 0, 68, 101
1, 115634, Note_on_c, 0, 63, 97
1, 116056, Note_off_c, 0, 63, 97
1, 116890, Note_on_c, 0, 67, 103
1, 116958, Note_off_c, 0, 67, 103
1, 116973, Note_on_c, 0, 66, 108
1, 117109, Note_off_c, 0, 66, 108
1, 117133, Note_on_c, 0, 62, 98
1, 117949, Note_off_c, 0, 62, 98
1, 118417, Note_on_c, 0, 67, 112
1, 118496, Note_off_c, 0, 67, 112
1, 118513, Note_on_c, 0, 66, 112
1, 118601, Note_off_c, 0, 66, 112
1, 118653, Note_on_c, 0, 59, 87
1, 118725, Note_off_c, 0, 59, 87
1, 118747, Note_on_c, 0, 62, 84
1, 119174, Note_off_c, 0, 62, 84
1, 119766, Note_on_c, 0, 59, 105
1, 119834, Note_off_c, 0, 59, 105
1, 119842, Note_on_c, 0, 60, 94
1, 120035, Note_off_c, 0, 60, 94
1, 120063, Note_on_c, 0, 57, 89
1, 120144, Note_off_c, 0, 57, 89
1, 120405, Note_on_c, 0, 69, 107
1, 120772, Note_off_c, 0, 69, 107
1, 121110, Note_on_c, 0, 68, 100
1, 121178, Note_off_c, 0, 68, 100
1, 121184, Note_on_c, 0, 69, 99
1, 121307, Note_off_c, 0, 69, 99
1, 121355, Note_on_c, 0, 60, 93
1, 121498, Note_off_c, 0, 60, 93
1, 121960, Note_on_c, 0, 67, 92
1, 122360, Note_off_c, 0, 67, 92
1, 122672, Note_on_c, 0, 64, 91
1, 122718, Note_off_c, 0, 64, 91
1, 122718, Note_on_c, 0, 65, 101
1, 122878, Note_off_c, 0, 65, 101
1, 122915, Note_on_c, 0, 58, 89
1, 123082, Note_off_c, 0, 58, 89
1, 123522, Note_on_c, 0, 67, 110
1, 123572, Note_off_c, 0, 67, 110
1, 123576, Note_on_c, 0, 68, 98
1, 123930, Note_off_c, 0, 68, 98
1, 124233, Note_on_c, 0, 68, 101
1, 124296, Note_off_c, 0, 68, 101
1, 124304, Note_on_c, 0, 69, 103
1, 124359, Note_off_c, 0, 69, 103
1, 124488, Note_on_c, 0, 72, 100
1, 124655, Note_off_c, 0, 72, 100
1, 124974, Note_on_c, 0, 67, 98
1, 125029, Note_off_c, 0, 67, 98
1, 125033, Note_on_c, 0, 69, 100
1, 125193, Note_off_c, 0, 69, 100
1, 125241, Note_on_c, 0, 65, 92
1, 125454, Note_off_c, 0, 65, 92
1, 125454, End_track
0, 0, End_of_file
