0, 0, Header, 1, 1, 2520
1, 0, Start_track
1, 0, Title_t, "Melody"
1, 0, Tempo, 476190
1, 0, Time_signature, 1, 2, 24, 8
1, 52488, Note_on_c, 0, 61, 105
1, 53460, Note_off_c, 0, 61, 105
1, 54120, Note_on_c, 0, 58, 108
1, 55064, Note_off_c, 0, 58, 108
1, 55148, Note_on_c, 0, 56, 99
1, 56031, Note_off_c, 0, 56, 99
1, 56330, Note_on_c, 0, 54, 90
1, 60438, Note_off_c, 0, 54, 90
1, 62688, Note_on_c, 0, 56, 101
1, 63586, Note_off_c, 0, 56, 101
1, 64484, Note_on_c, 0, 58, 107
1, 65290, Note_off_c, 0, 58, 107
1, 65366, Note_on_c, 0, 61, 99
1, 66310, Note_off_c, 0, 61, 99
1, 66640, Note_on_c, 0, 64, 104
1, 72215, Note_off_c, 0, 64, 104
1, 72499, Note_on_c, 0, 63, 103
1, 73604, Note_off_c, 0, 63, 103
1, 74057, Note_on_c, 0, 63, 102
1, 74963, Note_off_c, 0, 63, 102
1, 75009, Note_on_c, 0, 58, 99
1, 75976, Note_off_c, 0, 58, 99
1, 76037, Note_on_c, 0, 61, 95
1, 78494, Note_off_c, 0, 61, 95
1, 83086, Note_on_c, 0, 59, 106
1, 84959, Note_off_c, 0, 59, 106
1, 85058, Note_on_c, 0, 63, 105
1, 85741, Note_off_c, 0, 63, 105
1, 85764, Note_on_c, 0, 58, 106
1, 86585, Note_off_c, 0, 58, 106
1, 86753, Note_on_c, 0, 56, 94
1, 89179, Note_off_c, 0, 56, 94
1, 93080, Note_on_c, 0, 66, 110
1, 94470, Note_off_c, 0, 66, 110
1, 95084, Note_on_c, 0, 63, 105
1, 95675, Note_off_c, 0, 63, 105
1, 95836, Note_on_c, 0, 58, 99
1, 96458, Note_off_c, 0, 58, 99
1, 96688, Note_on_c, 0, 61, 98
1, 98062, Note_off_c, 0, 61, 98
1, 98422, Note_on_c, 0, 62, 99
1, 100664, Note_off_c, 0, 62, 99
1, 103129, Note_on_c, 0, 66, 111
1, 104618, Note_off_c, 0, 66, 111
1, 105140, Note_on_c, 0, 62, 101
1, 106192, Note_off_c, 0, 62, 101
1, 106345, Note_on_c, 0, 58, 97
1, 106859, Note_off_c, 0, 58, 97
1, 106958, Note_on_c, 0, 63, 106
1, 108225, Note_off_c, 0, 63, 106
1, 108301, Note_on_c, 0, 58, 88
1, 108708, Note_off_c, 0, 58, 88
1, 109260, Note_on_c, 0, 64, 103
1, 110757, Note_off_c, 0, 64, 103
1, 110879, Note_on_c, 0, 66, 107
1, 112092, Note_off_c, 0, 66, 107
1, 113489, Note_on_c, 0, 67, 117
1, 114533, Note_off_c, 0, 67, 117
1, 114817, Note_on_c, 0, 67, 112
1, 115838, Note_off_c, 0, 67, 112
1, 116022, Note_on_c, 0, 63, 96
1, 116697, Note_off_c, 0, 63, 96
1, 117157, Note_on_c, 0, 69, 100
1, 118093, Note_off_c, 0, 69, 100
1, 118507, Note_on_c, 0, 69, 108
1, 119466, Note_off_c, 0, 69, 108
1, 119742, Note_on_c, 0, 74, 102
1, 120517, Note_off_c, 0, 74, 102
1, 120586, Note_on_c, 0, 71, 106
1, 121131, Note_off_c, 0, 71, 106
1, 121177, Note_on_c, 0, 67, 96
1, 123373, Note_off_c, 0, 67, 96
1, 125876, Note_on_c, 0, 62, 99
1, 126452, Note_off_c, 0, 62, 99
1, 126759, Note_on_c, 0, 66, 97
1, 127857, Note_off_c, 0, 66, 97
1, 128194, Note_on_c, 0, 66, 105
1, 128862, Note_off_c, 0, 66, 105
1, 129192, Note_on_c, 0, 66, 101
1, 129791, Note_off_c, 0, 66, 101
1, 129898, Note_on_c, 0, 69, 99
1, 130566, Note_off_c, 0, 69, 99
1, 130807, Note_on_c, 0, 64, 93
1, 131330, Note_off_c, 0, 64, 93
1, 131735, Note_on_c, 0, 62, 89
1, 133398, Note_off_c, 0, 62, 89
1, 138160, Note_on_c, 0, 72, 120
1, 139661, Note_off_c, 0, 72, 120
1, 139817, Note_on_c, 0, 74, 112
1, 140551, Note_off_c, 0, 74, 112
1, 140653, Note_on_c, 0, 76, 123
1, 141041, Note_off_c, 0, 76, 123
1, 141159, Note_on_c, 0, 77, 119
1, 141914, Note_off_c, 0, 77, 119
1, 142016, Note_on_c, 0, 77, 112
1, 142194, Note_off_c, 0, 77, 112
1, 142269, Note_on_c, 0, 76, 121
1, 143538, Note_off_c, 0, 76, 121
1, 143581, Note_on_c, 0, 74, 106
1, 144569, Note_off_c, 0, 74, 106
1, 144627, Note_on_c, 0, 72, 117
1, 145671, Note_off_c, 0, 72, 117
1, 146031, Note_on_c, 0, 67, 99
1, 146991, Note_off_c, 0, 67, 99
1, 147121, Note_on_c, 0, 71, 105
1, 148388, Note_off_c, 0, 71, 105
1, 148464, Note_on_c, 0, 69, 101
1, 149462, Note_off_c, 0, 69, 101
1, 149577, Note_on_c, 0, 67, 96
1, 150537, Note_off_c, 0, 67, 96
1, 150729, Note_on_c, 0, 64, 87
1, 151785, Note_off_c, 0, 64, 87
1, 151834, Note_on_c, 0, 65, 90
1, 152843, Note_off_c, 0, 65, 90
1, 155442, Note_on_c, 0, 73, 114
1, 156236, Note_off_c, 0, 73, 114
1, 156320, Note_on_c, 0, 75, 114
1, 156880, Note_off_c, 0, 75, 114
1, 157110, Note_on_c, 0, 72, 118
1, 159003, Note_off_c, 0, 72, 118
1, 159210, Note_on_c, 0, 68, 108
1, 160162, Note_off_c, 0, 68, 108
1, 160960, Note_on_c, 0, 60, 97
1, 161401, Note_off_c, 0, 60, 97
1, 161627, Note_on_c, 0, 67, 93
1, 162878, Note_off_c, 0, 67, 93
1, 163185, Note_on_c, 0, 65, 102
1, 163799, Note_off_c, 0, 65, 102
1, 164467, Note_on_c, 0, 63, 97
1, 165043, Note_off_c, 0, 63, 97
1, 165115, Note_on_c, 0, 60, 95
1, 166217, Note_off_c, 0, 60, 95
1, 166343, Note_on_c, 0, 55, 92
1, 167111, Note_off_c, 0, 55, 92
1, 167293, Note_on_c, 0, 59, 93
1, 168783, Note_off_c, 0, 59, 93
1, 169026, Note_on_c, 0, 66, 101
1, 169955, Note_off_c, 0, 66, 101
1, 170170, Note_on_c, 0, 60, 95
1, 170458, Note_off_c, 0, 60, 95
1, 170484, Note_on_c, 0, 59, 101
1, 170702, Note_off_c, 0, 59, 101
1, 170751, Note_on_c, 0, 58, 96
1, 170973, Note_off_c, 0, 58, 96
1, 171111, Note_on_c, 0, 56, 91
1, 171975, Note_off_c, 0, 56, 91
1, 172105, Note_on_c, 0, 57, 85
1, 173495, Note_off_c, 0, 57, 85
1, 173660, Note_on_c, 0, 65, 96
1, 175414, Note_off_c, 0, 65, 96
1, 175997, Note_on_c, 0, 58, 90
1, 176377, Note_off_c, 0, 58, 90
1, 177252, Note_on_c, 0, 61, 96
1, 177532, Note_off_c, 0, 61, 96
1, 177558, Note_on_c, 0, 62, 94
1, 178022, Note_off_c, 0, 62, 94
1, 180829, Note_on_c, 0, 65, 125
1, 181378, Note_off_c, 0, 65, 125
1, 181450, Note_on_c, 0, 68, 120
1, 182087, Note_off_c, 0, 68, 120
1, 182344, Note_on_c, 0, 72, 127
1, 183645, Note_off_c, 0, 72, 127
1, 183837, Note_on_c, 0, 80, 113
1, 188613, Note_off_c, 0, 80, 113
1, 193820, Note_on_c, 0, 72, 117
1, 195064, Note_off_c, 0, 72, 117
1, 195586, Note_on_c, 0, 75, 111
1, 196185, Note_off_c, 0, 75, 111
1, 196307, Note_on_c, 0, 77, 113
1, 197121, Note_off_c, 0, 77, 113
1, 197451, Note_on_c, 0, 79, 119
1, 202250, Note_off_c, 0, 79, 119
1, 208524, Note_on_c, 0, 70, 118
1, 209599, Note_off_c, 0, 70, 118
1, 209791, Note_on_c, 0, 75, 118
1, 210981, Note_off_c, 0, 75, 118
1, 211103, Note_on_c, 0, 77, 114
1, 212431, Note_off_c, 0, 77, 114
1, 212477, Note_on_c, 0, 75, 113
1, 214665, Note_off_c, 0, 75, 113
1, 217483, Note_on_c, 0, 67, 116
1, 219264, Note_off_c, 0, 67, 116
1, 221260, Note_on_c, 0, 74, 103
1, 223325, Note_off_c, 0, 74, 103
1, 223885, Note_on_c, 0, 72, 119
1, 224998, Note_off_c, 0, 72, 119
1, 225289, Note_on_c, 0, 67, 111
1, 226302, Note_off_c, 0, 67, 111
1, 226816, Note_on_c, 0, 60, 88
1, 227560, Note_off_c, 0, 60, 88
1, 227920, Note_on_c, 0, 70, 110
1, 229033, Note_off_c, 0, 70, 110
1, 229347, Note_on_c, 0, 63, 94
1, 230099, Note_off_c, 0, 63, 94
1, 230206, Note_on_c, 0, 72, 117
1, 234714, Note_off_c, 0, 72, 117
1, 234929, Note_on_c, 0, 67, 99
1, 235382, Note_off_c, 0, 67, 99
1, 235435, Note_on_c, 0, 68, 105
1, 236256, Note_off_c, 0, 68, 105
1, 236793, Note_on_c, 0, 65, 86
1, 239404, Note_off_c, 0, 65, 86
1, 241185, Note_on_c, 0, 67, 100
1, 241730, Note_off_c, 0, 67, 100
1, 241806, Note_on_c, 0, 65, 106
1, 242512, Note_off_c, 0, 65, 106
1, 242734, Note_on_c, 0, 63, 98
1, 243847, Note_off_c, 0, 63, 98
1, 243969, Note_on_c, 0, 58, 94
1, 246088, Note_off_c, 0, 58, 94
1, 253775, Note_on_c, 0, 55, 99
1, 254965, Note_off_c, 0, 55, 99
1, 255771, Note_on_c, 0, 56, 100
1, 256377, Note_off_c, 0, 56, 100
1, 256453, Note_on_c, 0, 58, 103
1, 256952, Note_off_c, 0, 58, 103
1, 257643, Note_on_c, 0, 54, 101
1, 258986, Note_off_c, 0, 54, 101
1, 259577, Note_on_c, 0, 53, 92
1, 261235, Note_off_c, 0, 53, 92
1, 263815, Note_on_c, 0, 53, 98
1, 264559, Note_off_c, 0, 53, 98
1, 265749, Note_on_c, 0, 53, 98
1, 266417, Note_off_c, 0, 53, 98
1, 266509, Note_on_c, 0, 55, 97
1, 267123, Note_off_c, 0, 55, 97
1, 267668, Note_on_c, 0, 52, 90
1, 269127, Note_off_c, 0, 52, 90
1, 269180, Note_on_c, 0, 51, 100
1, 270378, Note_off_c, 0, 51, 100
1, 274118, Note_on_c, 0, 55, 94
1, 275630, Note_off_c, 0, 55, 94
1, 275875, Note_on_c, 0, 58, 104
1, 276712, Note_off_c, 0, 58, 104
1, 276834, Note_on_c, 0, 62, 107
1, 277648, Note_off_c, 0, 62, 107
1, 278115, Note_on_c, 0, 67, 120
1, 281290, Note_off_c, 0, 67, 120
1, 281449, Note_on_c, 0, 65, 110
1, 282232, Note_off_c, 0, 65, 110
1, 282347, Note_on_c, 0, 67, 107
1, 283138, Note_off_c, 0, 67, 107
1, 283483, Note_on_c, 0, 60, 89
1, 285986, Note_off_c, 0, 60, 89
1, 294387, Note_on_c, 0, 63, 111
1, 296015, Note_off_c, 0, 63, 111
1, 296053, Note_on_c, 0, 60, 105
1, 296836, Note_off_c, 0, 60, 105
1, 296997, Note_on_c, 0, 62, 107
1, 298095, Note_off_c, 0, 62, 107
1, 298240, Note_on_c, 0, 63, 109
1, 299576, Note_off_c, 0, 63, 109
1, 299691, Note_on_c, 0, 65, 117
1, 300835, Note_off_c, 0, 65, 117
1, 301341, Note_on_c, 0, 67, 114
1, 302216, Note_off_c, 0, 67, 114
1, 302277, Note_on_c, 0, 68, 120
1, 302945, Note_off_c, 0, 68, 120
1, 303605, Note_on_c, 0, 72, 115
1, 309856, Note_off_c, 0, 72, 115
1, 313265, Note_on_c, 0, 64, 106
1, 314578, Note_off_c, 0, 64, 106
1, 314985, Note_on_c, 0, 66, 93
1, 315522, Note_off_c, 0, 66, 93
1, 315714, Note_on_c, 0, 68, 119
1, 316789, Note_off_c, 0, 68, 119
1, 316896, Note_on_c, 0, 72, 9
1, 318063, Note_off_c, 0, 72, 9
1, 318539, Note_on_c, 0, 74, 106
1, 326042, Note_off_c, 0, 74, 106
1, 326180, Note_on_c, 0, 75, 110
1, 327216, Note_off_c, 0, 75, 110
1, 328030, Note_on_c, 0, 72, 78
1, 328751, Note_off_c, 0, 72, 78
1, 330678, Note_on_c, 0, 67, 109
1, 331722, Note_off_c, 0, 67, 109
1, 331798, Note_on_c, 0, 68, 75
1, 332880, Note_off_c, 0, 68, 75
1, 332995, Note_on_c, 0, 70, 99
1, 333947, Note_off_c, 0, 70, 99
1, 334476, Note_on_c, 0, 59, 89
1, 337686, Note_off_c, 0, 59, 89
1, 338361, Note_on_c, 0, 58, 91
1, 340603, Note_off_c, 0, 58, 91
1, 342515, Note_on_c, 0, 67, 103
1, 343114, Note_off_c, 0, 67, 103
1, 343160, Note_on_c, 0, 65, 90
1, 343866, Note_off_c, 0, 65, 90
1, 344081, Note_on_c, 0, 57, 77
1, 347644, Note_off_c, 0, 57, 77
1, 347997, Note_on_c, 0, 56, 91
1, 350446, Note_off_c, 0, 56, 91
1, 352527, Note_on_c, 0, 67, 107
1, 353287, Note_off_c, 0, 67, 107
1, 353448, Note_on_c, 0, 65, 111
1, 354269, Note_off_c, 0, 65, 111
1, 354414, Note_on_c, 0, 64, 99
1, 356019, Note_off_c, 0, 64, 99
1, 356057, Note_on_c, 0, 72, 115
1, 359029, Note_off_c, 0, 72, 115
1, 359482, Note_on_c, 0, 67, 107
1, 360426, Note_off_c, 0, 67, 107
1, 361293, Note_on_c, 0, 60, 88
1, 361700, Note_off_c, 0, 60, 88
1, 362206, Note_on_c, 0, 70, 100
1, 363619, Note_off_c, 0, 70, 100
1, 363649, Note_on_c, 0, 68, 95
1, 364378, Note_off_c, 0, 68, 95
1, 364930, Note_on_c, 0, 65, 76
1, 366857, Note_off_c, 0, 65, 76
1, 370297, Note_on_c, 0, 74, 112
1, 371464, Note_off_c, 0, 74, 112
1, 371602, Note_on_c, 0, 75, 113
1, 372738, Note_off_c, 0, 75, 113
1, 372807, Note_on_c, 0, 72, 114
1, 374235, Note_off_c, 0, 72, 114
1, 374396, Note_on_c, 0, 68, 92
1, 375271, Note_off_c, 0, 68, 92
1, 375347, Note_on_c, 0, 70, 111
1, 376460, Note_off_c, 0, 70, 111
1, 377343, Note_on_c, 0, 68, 88
1, 377696, Note_off_c, 0, 68, 88
1, 377858, Note_on_c, 0, 79, 115
1, 384500, Note_off_c, 0, 79, 115
1, 385050, Note_on_c, 0, 77, 106
1, 386810, Note_off_c, 0, 77, 106
1, 386939, Note_on_c, 0, 75, 111
1, 388191, Note_off_c, 0, 75, 111
1, 389260, Note_on_c, 0, 70, 99
1, 391441, Note_off_c, 0, 70, 99
1, 394108, Note_on_c, 0, 63, 94
1, 394648, Note_off_c, 0, 63, 94
1, 395360, Note_on_c, 0, 68, 105
1, 396720, Note_off_c, 0, 68, 105
1, 397378, Note_on_c, 0, 68, 102
1, 400099, Note_off_c, 0, 68, 102
1, 400541, Note_on_c, 0, 67, 97
1, 402074, Note_off_c, 0, 67, 97
1, 402333, Note_on_c, 0, 65, 103
1, 403499, Note_off_c, 0, 65, 103
1, 404622, Note_on_c, 0, 63, 94
1, 407138, Note_off_c, 0, 63, 94
1, 413367, Note_on_c, 0, 63, 82
1, 414618, Note_off_c, 0, 63, 82
1, 414833, Note_on_c, 0, 67, 112
1, 416054, Note_off_c, 0, 67, 112
1, 416161, Note_on_c, 0, 68, 122
1, 417382, Note_off_c, 0, 68, 122
1, 417481, Note_on_c, 0, 70, 119
1, 418540, Note_off_c, 0, 70, 119
1, 418747, Note_on_c, 0, 71, 117
1, 420367, Note_off_c, 0, 71, 117
1, 420751, Note_on_c, 0, 70, 103
1, 422417, Note_off_c, 0, 70, 103
1, 422655, Note_on_c, 0, 67, 101
1, 423860, Note_off_c, 0, 67, 101
1, 423990, Note_on_c, 0, 63, 94
1, 425226, Note_off_c, 0, 63, 94
1, 425348, Note_on_c, 0, 60, 92
1, 426039, Note_off_c, 0, 60, 92
1, 426451, Note_on_c, 0, 72, 107
1, 428157, Note_off_c, 0, 72, 107
1, 428580, Note_on_c, 0, 75, 111
1, 429578, Note_off_c, 0, 75, 111
1, 431958, Note_on_c, 0, 65, 111
1, 433056, Note_off_c, 0, 65, 111
1, 434123, Note_on_c, 0, 68, 118
1, 435397, Note_off_c, 0, 68, 118
1, 435473, Note_on_c, 0, 65, 93
1, 436064, Note_off_c, 0, 65, 93
1, 436363, Note_on_c, 0, 72, 115
1, 441086, Note_off_c, 0, 72, 115
1, 444357, Note_on_c, 0, 74, 103
1, 445386, Note_off_c, 0, 74, 103
1, 445946, Note_on_c, 0, 72, 117
1, 447097, Note_off_c, 0, 72, 117
1, 447381, Note_on_c, 0, 67, 110
1, 448172, Note_off_c, 0, 67, 110
1, 448379, Note_on_c, 0, 70, 103
1, 450122, Note_off_c, 0, 70, 103
1, 455690, Note_on_c, 0, 67, 124
1, 457049, Note_off_c, 0, 67, 124
1, 457079, Note_on_c, 0, 70, 101
1, 457578, Note_off_c, 0, 70, 101
1, 458015, Note_on_c, 0, 74, 107
1, 459328, Note_off_c, 0, 74, 107
1, 459412, Note_on_c, 0, 72, 119
1, 460479, Note_off_c, 0, 72, 119
1, 460732, Note_on_c, 0, 70, 111
1, 461799, Note_off_c, 0, 70, 111
1, 461921, Note_on_c, 0, 68, 116
1, 462942, Note_off_c, 0, 68, 116
1, 463349, Note_on_c, 0, 67, 105
1, 464301, Note_off_c, 0, 67, 105
1, 464469, Note_on_c, 0, 65, 113
1, 465405, Note_off_c, 0, 65, 113
1, 465788, Note_on_c, 0, 64, 101
1, 469259, Note_off_c, 0, 64, 101
1, 469781, Note_on_c, 0, 76, 115
1, 471317, Note_off_c, 0, 76, 115
1, 474296, Note_on_c, 0, 72, 113
1, 474964, Note_off_c, 0, 72, 113
1, 475040, Note_on_c, 0, 69, 108
1, 475953, Note_off_c, 0, 69, 108
1, 476083, Note_on_c, 0, 68, 112
1, 477357, Note_off_c, 0, 68, 112
1, 477441, Note_on_c, 0, 75, 114
1, 479614, Note_off_c, 0, 75, 114
1, 489290, Note_on_c, 0, 58, 85
1, 493506, Note_off_c, 0, 58, 85
1, 493866, Note_on_c, 0, 62, 103
1, 494618, Note_off_c, 0, 62, 103
1, 494710, Note_on_c, 0, 65, 94
1, 495086, Note_off_c, 0, 65, 94
1, 495900, Note_on_c, 0, 63, 103
1, 497528, Note_off_c, 0, 63, 103
1, 499709, Note_on_c, 0, 58, 93
1, 501076, Note_off_c, 0, 58, 93
1, 502926, Note_on_c, 0, 62, 100
1, 504392, Note_off_c, 0, 62, 100
1, 504399, Note_on_c, 0, 65, 117
1, 505374, Note_off_c, 0, 65, 117
1, 505427, Note_on_c, 0, 63, 104
1, 506955, Note_off_c, 0, 63, 104
1, 507254, Note_on_c, 0, 55, 93
1, 507960, Note_off_c, 0, 55, 93
1, 508052, Note_on_c, 0, 56, 93
1, 509641, Note_off_c, 0, 56, 93
1, 509879, Note_on_c, 0, 58, 99
1, 511269, Note_off_c, 0, 58, 99
1, 513265, Note_on_c, 0, 67, 116
1, 514685, Note_off_c, 0, 67, 116
1, 514830, Note_on_c, 0, 64, 88
1, 515674, Note_off_c, 0, 64, 88
1, 515958, Note_on_c, 0, 65, 97
1, 518016, Note_off_c, 0, 65, 97
1, 518530, Note_on_c, 0, 60, 102
1, 519889, Note_off_c, 0, 60, 102
1, 520119, Note_on_c, 0, 55, 86
1, 520902, Note_off_c, 0, 55, 86
1, 521232, Note_on_c, 0, 58, 102
1, 522552, Note_off_c, 0, 58, 102
1, 522674, Note_on_c, 0, 56, 98
1, 523695, Note_off_c, 0, 56, 98
1, 526713, Note_on_c, 0, 67, 116
1, 527411, Note_off_c, 0, 67, 116
1, 527526, Note_on_c, 0, 68, 123
1, 532579, Note_off_c, 0, 68, 123
1, 533193, Note_on_c, 0, 67, 99
1, 535043, Note_off_c, 0, 67, 99
1, 535104, Note_on_c, 0, 65, 112
1, 535833, Note_off_c, 0, 65, 112
1, 535971, Note_on_c, 0, 63, 101
1, 536739, Note_off_c, 0, 63, 101
1, 536938, Note_on_c, 0, 57, 83
1, 543934, Note_off_c, 0, 57, 83
1, 544402, Note_on_c, 0, 58, 94
1, 545776, Note_off_c, 0, 58, 94
1, 546121, Note_on_c, 0, 73, 108
1, 547994, Note_off_c, 0, 73, 108
1, 552294, Note_on_c, 0, 67, 124
1, 553891, Note_off_c, 0, 67, 124
1, 553960, Note_on_c, 0, 66, 95
1, 554781, Note_off_c, 0, 66, 95
1, 554857, Note_on_c, 0, 67, 113
1, 556001, Note_off_c, 0, 67, 113
1, 556139, Note_on_c, 0, 70, 112
1, 557037, Note_off_c, 0, 70, 112
1, 557390, Note_on_c, 0, 56, 87
1, 564102, Note_off_c, 0, 56, 87
1, 567481, Note_on_c, 0, 65, 105
1, 568717, Note_off_c, 0, 65, 105
1, 568855, Note_on_c, 0, 64, 91
1, 569899, Note_off_c, 0, 64, 91
1, 569983, Note_on_c, 0, 65, 100
1, 571127, Note_off_c, 0, 65, 100
1, 571234, Note_on_c, 0, 67, 109
1, 572278, Note_off_c, 0, 67, 109
1, 572631, Note_on_c, 0, 63, 98
1, 574228, Note_off_c, 0, 63, 98
1, 577745, Note_on_c, 0, 70, 120
1, 579365, Note_off_c, 0, 70, 120
1, 580125, Note_on_c, 0, 72, 122
1, 581495, Note_off_c, 0, 72, 122
1, 581790, Note_on_c, 0, 67, 94
1, 582304, Note_off_c, 0, 67, 94
1, 582549, Note_on_c, 0, 70, 111
1, 584131, Note_off_c, 0, 70, 111
1, 587702, Note_on_c, 0, 65, 108
1, 588999, Note_off_c, 0, 65, 108
1, 590151, Note_on_c, 0, 67, 117
1, 591786, Note_off_c, 0, 67, 117
1, 591951, Note_on_c, 0, 64, 87
1, 592469, Note_off_c, 0, 64, 87
1, 592685, Note_on_c, 0, 65, 97
1, 594024, Note_off_c, 0, 65, 97
1, 594104, Note_on_c, 0, 62, 100
1, 595017, Note_off_c, 0, 62, 100
1, 595416, Note_on_c, 0, 60, 101
1, 596529, Note_off_c, 0, 60, 101
1, 597058, Note_on_c, 0, 58, 94
1, 597503, Note_off_c, 0, 58, 94
1, 598017, Note_on_c, 0, 63, 99
1, 598992, Note_off_c, 0, 63, 99
1, 600190, Note_on_c, 0, 75, 107
1, 607624, Note_off_c, 0, 75, 107
1, 615580, Note_on_c, 0, 74, 103
1, 617031, Note_off_c, 0, 74, 103
1, 617130, Note_on_c, 0, 77, 118
1, 621953, Note_off_c, 0, 77, 118
1, 622114, Note_on_c, 0, 75, 112
1, 623043, Note_off_c, 0, 75, 112
1, 623603, Note_on_c, 0, 72, 100
1, 624931, Note_off_c, 0, 72, 100
1, 625345, Note_on_c, 0, 70, 100
1, 627656, Note_off_c, 0, 70, 100
1, 632025, Note_on_c, 0, 66, 113
1, 632800, Note_off_c, 0, 66, 113
1, 632876, Note_on_c, 0, 67, 104
1, 633352, Note_off_c, 0, 67, 104
1, 633751, Note_on_c, 0, 63, 9
1, 634780, Note_off_c, 0, 63, 9
1, 635010, Note_on_c, 0, 58, 99
1, 635724, Note_off_c, 0, 58, 99
1, 644932, Note_on_c, 0, 58, 109
1, 646137, Note_off_c, 0, 58, 109
1, 646935, Note_on_c, 0, 62, 103
1, 647664, Note_off_c, 0, 62, 103
1, 647740, Note_on_c, 0, 64, 103
1, 648316, Note_off_c, 0, 64, 103
1, 648838, Note_on_c, 0, 66, 116
1, 650166, Note_off_c, 0, 66, 116
1, 650358, Note_on_c, 0, 62, 87
1, 650780, Note_off_c, 0, 62, 87
1, 651279, Note_on_c, 0, 67, 115
1, 652592, Note_off_c, 0, 67, 115
1, 652661, Note_on_c, 0, 62, 96
1, 653244, Note_off_c, 0, 62, 96
1, 653712, Note_on_c, 0, 72, 112
1, 654994, Note_off_c, 0, 72, 112
1, 655178, Note_on_c, 0, 75, 111
1, 656153, Note_off_c, 0, 75, 111
1, 656368, Note_on_c, 0, 74, 102
1, 657627, Note_off_c, 0, 74, 102
1, 657857, Note_on_c, 0, 67, 93
1, 658555, Note_off_c, 0, 67, 93
1, 658723, Note_on_c, 0, 70, 107
1, 660013, Note_off_c, 0, 70, 107
1, 660243, Note_on_c, 0, 68, 109
1, 660987, Note_off_c, 0, 68, 109
1, 661455, Note_on_c, 0, 62, 90
1, 662583, Note_off_c, 0, 62, 90
1, 662705, Note_on_c, 0, 60, 98
1, 663665, Note_off_c, 0, 60, 98
1, 664333, Note_on_c, 0, 65, 105
1, 664832, Note_off_c, 0, 65, 105
1, 664970, Note_on_c, 0, 66, 104
1, 665722, Note_off_c, 0, 66, 104
1, 665933, Note_on_c, 0, 67, 95
1, 666197, Note_off_c, 0, 67, 95
1, 666305, Note_on_c, 0, 68, 100
1, 666796, Note_off_c, 0, 68, 100
1, 666893, Note_on_c, 0, 70, 96
1, 667789, Note_off_c, 0, 70, 96
1, 667880, Note_on_c, 0, 71, 110
1, 668425, Note_off_c, 0, 71, 110
1, 669013, Note_on_c, 0, 69, 80
1, 669936, Note_off_c, 0, 69, 80
1, 672452, Note_on_c, 0, 68, 104
1, 673677, Note_off_c, 0, 68, 104
1, 674098, Note_on_c, 0, 63, 78
1, 677343, Note_off_c, 0, 63, 78
1, 689395, Note_on_c, 0, 72, 109
1, 690842, Note_off_c, 0, 72, 109
1, 690897, Note_on_c, 0, 74, 112
1, 691242, Note_off_c, 0, 74, 112
1, 691303, Note_on_c, 0, 72, 105
1, 691518, Note_off_c, 0, 72, 105
1, 691521, Note_on_c, 0, 74, 117
1, 691743, Note_off_c, 0, 74, 117
1, 691766, Note_on_c, 0, 75, 120
1, 691965, Note_off_c, 0, 75, 120
1, 692011, Note_on_c, 0, 74, 116
1, 692379, Note_off_c, 0, 74, 116
1, 692448, Note_on_c, 0, 73, 109
1, 692697, Note_off_c, 0, 73, 109
1, 692758, Note_on_c, 0, 71, 110
1, 693168, Note_off_c, 0, 71, 110
1, 693217, Note_on_c, 0, 70, 108
1, 693704, Note_off_c, 0, 70, 108
1, 693761, Note_on_c, 0, 69, 105
1, 694329, Note_off_c, 0, 69, 105
1, 694482, Note_on_c, 0, 68, 103
1, 694850, Note_off_c, 0, 68, 103
1, 694893, Note_on_c, 0, 67, 96
1, 695281, Note_off_c, 0, 67, 96
1, 695328, Note_on_c, 0, 66, 104
1, 695721, Note_off_c, 0, 66, 104
1, 695794, Note_on_c, 0, 65, 99
1, 696058, Note_off_c, 0, 65, 99
1, 696105, Note_on_c, 0, 63, 104
1, 696514, Note_off_c, 0, 63, 104
1, 696558, Note_on_c, 0, 64, 101
1, 696835, Note_off_c, 0, 64, 101
1, 696937, Note_on_c, 0, 66, 111
1, 697179, Note_off_c, 0, 66, 111
1, 697223, Note_on_c, 0, 65, 105
1, 697476, Note_off_c, 0, 65, 105
1, 697518, Note_on_c, 0, 67, 101
1, 697832, Note_off_c, 0, 67, 101
1, 697879, Note_on_c, 0, 68, 101
1, 698370, Note_off_c, 0, 68, 101
1, 698491, Note_on_c, 0, 69, 101
1, 699000, Note_off_c, 0, 69, 101
1, 699089, Note_on_c, 0, 71, 78
1, 699397, Note_off_c, 0, 71, 78
1, 699536, Note_on_c, 0, 62, 92
1, 700130, Note_off_c, 0, 62, 92
1, 700140, Note_on_c, 0, 65, 99
1, 700431, Note_off_c, 0, 65, 99
1, 700472, Note_on_c, 0, 64, 101
1, 700736, Note_off_c, 0, 64, 101
1, 700770, Note_on_c, 0, 63, 86
1, 701047, Note_off_c, 0, 63, 86
1, 701163, Note_on_c, 0, 59, 98
1, 701529, Note_off_c, 0, 59, 98
1, 701629, Note_on_c, 0, 63, 94
1, 702428, Note_off_c, 0, 63, 94
1, 702621, Note_on_c, 0, 60, 99
1, 702958, Note_off_c, 0, 60, 99
1, 703069, Note_on_c, 0, 62, 96
1, 703422, Note_off_c, 0, 62, 96
1, 703575, Note_on_c, 0, 63, 80
1, 703951, Note_off_c, 0, 63, 80
1, 704089, Note_on_c, 0, 67, 86
1, 704365, Note_off_c, 0, 67, 86
1, 706185, Note_on_c, 0, 67, 117
1, 706396, Note_off_c, 0, 67, 117
1, 706438, Note_on_c, 0, 66, 117
1, 706933, Note_off_c, 0, 66, 117
1, 706982, Note_on_c, 0, 67, 113
1, 707220, Note_off_c, 0, 67, 113
1, 707327, Note_on_c, 0, 69, 108
1, 707680, Note_off_c, 0, 69, 108
1, 707779, Note_on_c, 0, 71, 108
1, 708005, Note_off_c, 0, 71, 108
1, 708085, Note_on_c, 0, 72, 112
1, 708357, Note_off_c, 0, 72, 112
1, 708410, Note_on_c, 0, 73, 110
1, 708621, Note_off_c, 0, 73, 110
1, 708674, Note_on_c, 0, 75, 104
1, 708889, Note_off_c, 0, 75, 104
1, 708988, Note_on_c, 0, 79, 115
1, 709410, Note_off_c, 0, 79, 115
1, 709471, Note_on_c, 0, 78, 119
1, 709636, Note_off_c, 0, 78, 119
1, 709682, Note_on_c, 0, 77, 107
1, 709893, Note_off_c, 0, 77, 107
1, 709896, Note_on_c, 0, 74, 101
1, 710237, Note_off_c, 0, 74, 101
1, 713385, Note_on_c, 0, 79, 90
1, 715224, Note_off_c, 0, 79, 90
1, 715919, Note_on_c, 0, 76, 79
1, 716852, Note_off_c, 0, 76, 79
1, 721529, Note_on_c, 0, 79, 121
1, 723022, Note_off_c, 0, 79, 121
1, 723079, Note_on_c, 0, 78, 115
1, 723639, Note_off_c, 0, 78, 115
1, 723708, Note_on_c, 0, 77, 121
1, 724057, Note_off_c, 0, 77, 121
1, 724176, Note_on_c, 0, 76, 125
1, 724529, Note_off_c, 0, 76, 125
1, 724586, Note_on_c, 0, 75, 113
1, 725066, Note_off_c, 0, 75, 113
1, 725162, Note_on_c, 0, 73, 103
1, 725442, Note_off_c, 0, 73, 103
1, 725522, Note_on_c, 0, 72, 112
1, 725906, Note_off_c, 0, 72, 112
1, 725955, Note_on_c, 0, 71, 105
1, 726377, Note_off_c, 0, 71, 105
1, 726457, Note_on_c, 0, 70, 104
1, 726871, Note_off_c, 0, 70, 104
1, 726974, Note_on_c, 0, 69, 99
1, 727688, Note_off_c, 0, 69, 99
1, 727826, Note_on_c, 0, 68, 106
1, 728394, Note_off_c, 0, 68, 106
1, 728455, Note_on_c, 0, 67, 95
1, 728757, Note_off_c, 0, 67, 95
1, 728837, Note_on_c, 0, 66, 101
1, 729360, Note_off_c, 0, 66, 101
1, 729451, Note_on_c, 0, 64, 101
1, 729661, Note_off_c, 0, 64, 101
1, 729742, Note_on_c, 0, 63, 98
1, 730098, Note_off_c, 0, 63, 98
1, 730157, Note_on_c, 0, 60, 96
1, 730734, Note_off_c, 0, 60, 96
1, 730777, Note_on_c, 0, 61, 92
1, 731095, Note_off_c, 0, 61, 92
1, 731192, Note_on_c, 0, 62, 94
1, 731732, Note_off_c, 0, 62, 94
1, 732218, Note_on_c, 0, 68, 88
1, 732628, Note_off_c, 0, 68, 88
1, 732763, Note_on_c, 0, 72, 102
1, 732941, Note_off_c, 0, 72, 102
1, 732994, Note_on_c, 0, 74, 101
1, 733485, Note_off_c, 0, 74, 101
1, 733582, Note_on_c, 0, 76, 115
1, 733868, Note_off_c, 0, 76, 115
1, 733905, Note_on_c, 0, 72, 103
1, 734596, Note_off_c, 0, 72, 103
1, 740087, Note_on_c, 0, 67, 85
1, 740913, Note_off_c, 0, 67, 85
1, 742165, Note_on_c, 0, 67, 95
1, 742775, Note_off_c, 0, 67, 95
1, 742818, Note_on_c, 0, 68, 98
1, 743617, Note_off_c, 0, 68, 98
1, 744054, Note_on_c, 0, 70, 110
1, 745279, Note_off_c, 0, 70, 110
1, 745797, Note_on_c, 0, 71, 99
1, 747109, Note_off_c, 0, 71, 99
1, 747292, Note_on_c, 0, 71, 110
1, 748199, Note_off_c, 0, 71, 110
1, 748307, Note_on_c, 0, 70, 108
1, 748712, Note_off_c, 0, 70, 108
1, 749516, Note_on_c, 0, 67, 77
1, 750547, Note_off_c, 0, 67, 77
1, 751141, Note_on_c, 0, 67, 76
1, 752204, Note_off_c, 0, 67, 76
1, 753008, Note_on_c, 0, 67, 87
1, 753407, Note_off_c, 0, 67, 87
1, 753509, Note_on_c, 0, 68, 95
1, 754324, Note_off_c, 0, 68, 95
1, 754745, Note_on_c, 0, 71, 108
1, 756014, Note_off_c, 0, 71, 108
1, 756591, Note_on_c, 0, 71, 101
1, 757816, Note_off_c, 0, 71, 101
1, 757913, Note_on_c, 0, 71, 94
1, 758722, Note_off_c, 0, 71, 94
1, 758830, Note_on_c, 0, 70, 86
1, 759613, Note_off_c, 0, 70, 86
1, 759758, Note_on_c, 0, 67, 73
1, 761783, Note_off_c, 0, 67, 73
1, 766027, Note_on_c, 0, 72, 104
1, 767598, Note_off_c, 0, 72, 104
1, 767760, Note_on_c, 0, 72, 109
1, 768996, Note_off_c, 0, 72, 109
1, 769212, Note_on_c, 0, 72, 110
1, 770011, Note_off_c, 0, 72, 110
1, 770162, Note_on_c, 0, 70, 96
1, 771096, Note_off_c, 0, 70, 96
1, 771301, Note_on_c, 0, 65, 87
1, 772467, Note_off_c, 0, 65, 87
1, 776052, Note_on_c, 0, 74, 104
1, 783817, Note_off_c, 0, 74, 104
1, 787591, Note_on_c, 0, 67, 105
1, 788951, Note_off_c, 0, 67, 105
1, 790079, Note_on_c, 0, 68, 100
1, 792255, Note_off_c, 0, 68, 100
1, 792454, Note_on_c, 0, 70, 106
1, 793447, Note_off_c, 0, 70, 106
1, 793751, Note_on_c, 0, 70, 107
1, 794814, Note_off_c, 0, 70, 107
1, 795259, Note_on_c, 0, 67, 89
1, 795988, Note_off_c, 0, 67, 89
1, 798023, Note_on_c, 0, 68, 102
1, 800511, Note_off_c, 0, 68, 102
1, 800637, Note_on_c, 0, 70, 101
1, 802691, Note_off_c, 0, 70, 101
1, 802890, Note_on_c, 0, 74, 109
1, 804053, Note_off_c, 0, 74, 109
1, 804179, Note_on_c, 0, 74, 102
1, 805400, Note_off_c, 0, 74, 102
1, 805484, Note_on_c, 0, 72, 109
1, 806313, Note_off_c, 0, 72, 109
1, 808236, Note_on_c, 0, 65, 76
1, 810225, Note_off_c, 0, 65, 76
1, 810409, Note_on_c, 0, 68, 94
1, 812375, Note_off_c, 0, 68, 94
1, 812474, Note_on_c, 0, 72, 112
1, 813917, Note_off_c, 0, 72, 112
1, 814070, Note_on_c, 0, 72, 113
1, 815172, Note_off_c, 0, 72, 113
1, 815367, Note_on_c, 0, 70, 104
1, 816204, Note_off_c, 0, 70, 104
1, 818054, Note_on_c, 0, 62, 81
1, 820285, Note_off_c, 0, 62, 81
1, 820507, Note_on_c, 0, 63, 86
1, 822584, Note_off_c, 0, 63, 86
1, 822699, Note_on_c, 0, 67, 90
1, 824757, Note_off_c, 0, 67, 90
1, 824906, Note_on_c, 0, 64, 88
1, 826015, Note_off_c, 0, 64, 88
1, 826114, Note_on_c, 0, 65, 86
1, 827657, Note_off_c, 0, 65, 86
1, 830249, Note_on_c, 0, 67, 99
1, 832337, Note_off_c, 0, 67, 99
1, 832713, Note_on_c, 0, 65, 82
1, 833565, Note_off_c, 0, 65, 82
1, 833787, Note_on_c, 0, 68, 112
1, 835223, Note_off_c, 0, 68, 112
1, 837926, Note_on_c, 0, 70, 107
1, 840053, Note_off_c, 0, 70, 107
1, 840198, Note_on_c, 0, 68, 89
1, 841046, Note_off_c, 0, 68, 89
1, 841168, Note_on_c, 0, 74, 97
1, 842442, Note_off_c, 0, 74, 97
1, 842585, Note_on_c, 0, 75, 92
1, 862608, Note_off_c, 0, 75, 92
1, 865361, Note_on_c, 0, 74, 107
1, 865863, Note_off_c, 0, 74, 107
1, 867186, Note_on_c, 0, 78, 106
1, 868163, Note_off_c, 0, 78, 106
1, 868217, Note_on_c, 0, 76, 114
1, 869010, Note_off_c, 0, 76, 114
1, 872627, Note_on_c, 0, 74, 102
1, 874436, Note_off_c, 0, 74, 102
1, 879962, Note_on_c, 0, 72, 118
1, 881206, Note_off_c, 0, 72, 118
1, 881421, Note_on_c, 0, 71, 85
1, 882311, Note_off_c, 0, 71, 85
1, 882526, Note_on_c, 0, 72, 97
1, 883217, Note_off_c, 0, 72, 97
1, 883708, Note_on_c, 0, 79, 117
1, 885781, Note_off_c, 0, 79, 117
1, 886096, Note_on_c, 0, 74, 86
1, 887748, Note_off_c, 0, 74, 86
1, 888433, Note_on_c, 0, 72, 75
1, 890279, Note_off_c, 0, 72, 75
1, 892131, Note_on_c, 0, 77, 99
1, 893167, Note_off_c, 0, 77, 99
1, 893458, Note_on_c, 0, 75, 109
1, 895601, Note_off_c, 0, 75, 109
1, 895757, Note_on_c, 0, 72, 108
1, 896863, Note_off_c, 0, 72, 108
1, 897667, Note_on_c, 0, 70, 99
1, 898342, Note_off_c, 0, 70, 99
1, 902451, Note_on_c, 0, 67, 111
1, 905863, Note_off_c, 0, 67, 111
1, 906095, Note_on_c, 0, 63, 99
1, 907391, Note_off_c, 0, 63, 99
1, 907475, Note_on_c, 0, 58, 85
1, 909894, Note_off_c, 0, 58, 85
1, 912401, Note_on_c, 0, 63, 92
1, 913032, Note_off_c, 0, 63, 92
1, 913544, Note_on_c, 0, 70, 111
1, 915023, Note_off_c, 0, 70, 111
1, 915136, Note_on_c, 0, 63, 88
1, 915751, Note_off_c, 0, 63, 88
1, 915751, Note_on_c, 0, 72, 113
1, 918148, Note_off_c, 0, 72, 113
1, 918407, Note_on_c, 0, 75, 111
1, 919881, Note_off_c, 0, 75, 111
1, 920161, Note_on_c, 0, 70, 105
1, 921208, Note_off_c, 0, 70, 105
1, 923783, Note_on_c, 0, 67, 73
1, 927266, Note_off_c, 0, 67, 73
1, 927806, Note_on_c, 0, 65, 78
1, 928551, Note_off_c, 0, 65, 78
1, 928999, Note_on_c, 0, 62, 92
1, 930608, Note_off_c, 0, 62, 92
1, 930608, End_track
0, 0, End_of_file
