0, 0, Header, 1, 1, 192
1, 0, Start_track
1, 0, Title_t, "Melody"
1, 0, Tempo, 451127
1, 0, Key_signature, -4, "major"
1, 0, Time_signature, 4, 2, 24, 8
1, 3112, Note_on_c, 0, 60, 110
1, 3146, Note_off_c, 0, 60, 110
1, 3162, Note_on_c, 0, 63, 108
1, 3301, Note_off_c, 0, 63, 108
1, 3332, Note_on_c, 0, 60, 102
1, 3368, Note_off_c, 0, 60, 102
1, 3372, Note_on_c, 0, 63, 120
1, 3414, Note_off_c, 0, 63, 120
1, 3422, Note_on_c, 0, 60, 110
1, 3521, Note_off_c, 0, 60, 110
1, 3532, Note_on_c, 0, 56, 107
1, 3605, Note_off_c, 0, 56, 107
1, 3614, Note_on_c, 0, 53, 121
1, 3683, Note_off_c, 0, 53, 121
1, 4066, Note_on_c, 0, 61, 115
1, 4109, Note_off_c, 0, 61, 115
1, 4162, Note_on_c, 0, 64, 117
1, 4213, Note_off_c, 0, 64, 117
1, 4259, Note_on_c, 0, 61, 111
1, 4302, Note_off_c, 0, 61, 111
1, 4307, Note_on_c, 0, 57, 108
1, 4388, Note_off_c, 0, 57, 108
1, 4404, Note_on_c, 0, 54, 104
1, 4458, Note_off_c, 0, 54, 104
1, 4491, Note_on_c, 0, 60, 111
1, 4536, Note_off_c, 0, 60, 111
1, 4539, Note_on_c, 0, 63, 120
1, 4590, Note_off_c, 0, 63, 120
1, 4595, Note_on_c, 0, 60, 113
1, 4698, Note_off_c, 0, 60, 113
1, 5184, Note_on_c, 0, 60, 118
1, 5232, Note_off_c, 0, 60, 118
1, 5477, Note_on_c, 0, 54, 104
1, 5513, Note_off_c, 0, 54, 104
1, 5523, Note_on_c, 0, 57, 112
1, 5553, Note_off_c, 0, 57, 112
1, 5562, Note_on_c, 0, 61, 119
1, 5608, Note_off_c, 0, 61, 119
1, 5614, Note_on_c, 0, 60, 116
1, 5657, Note_off_c, 0, 60, 116
1, 5664, Note_on_c, 0, 59, 104
1, 5710, Note_off_c, 0, 59, 104
1, 5716, Note_on_c, 0, 61, 116
1, 5751, Note_off_c, 0, 61, 116
1, 5758, Note_on_c, 0, 62, 109
1, 5795, Note_off_c, 0, 62, 109
1, 5805, Note_on_c, 0, 64, 120
1, 5847, Note_off_c, 0, 64, 120
1, 5852, Note_on_c, 0, 65, 118
1, 5890, Note_off_c, 0, 65, 118
1, 5901, Note_on_c, 0, 67, 127
1, 5943, Note_off_c, 0, 67, 127
1, 5951, Note_on_c, 0, 64, 109
1, 5991, Note_off_c, 0, 64, 109
1, 6002, Note_on_c, 0, 62, 111
1, 6039, Note_off_c, 0, 62, 111
1, 6055, Note_on_c, 0, 60, 84
1, 6094, Note_off_c, 0, 60, 84
1, 6103, Note_on_c, 0, 61, 97
1, 6144, Note_off_c, 0, 61, 97
1, 6199, Note_on_c, 0, 66, 103
1, 6239, Note_off_c, 0, 66, 103
1, 6295, Note_on_c, 0, 69, 117
1, 6334, Note_off_c, 0, 69, 117
1, 6340, Note_on_c, 0, 68, 115
1, 6377, Note_off_c, 0, 68, 115
1, 6390, Note_on_c, 0, 66, 122
1, 6423, Note_off_c, 0, 66, 122
1, 6434, Note_on_c, 0, 64, 105
1, 6470, Note_off_c, 0, 64, 105
1, 6483, Note_on_c, 0, 61, 115
1, 6519, Note_off_c, 0, 61, 115
1, 6533, Note_on_c, 0, 59, 98
1, 6571, Note_off_c, 0, 59, 98
1, 6580, Note_on_c, 0, 57, 110
1, 6610, Note_off_c, 0, 57, 110
1, 6618, Note_on_c, 0, 56, 105
1, 6660, Note_off_c, 0, 56, 105
1, 6669, Note_on_c, 0, 54, 119
1, 6717, Note_off_c, 0, 54, 119
1, 6730, Note_on_c, 0, 52, 104
1, 6792, Note_off_c, 0, 52, 104
1, 6912, Note_on_c, 0, 71, 106
1, 6947, Note_off_c, 0, 71, 106
1, 6960, Note_on_c, 0, 69, 114
1, 6997, Note_off_c, 0, 69, 114
1, 7009, Note_on_c, 0, 68, 109
1, 7052, Note_off_c, 0, 68, 109
1, 7065, Note_on_c, 0, 66, 96
1, 7097, Note_off_c, 0, 66, 96
1, 7165, Note_on_c, 0, 61, 95
1, 7189, Note_off_c, 0, 61, 95
1, 7198, Note_on_c, 0, 63, 114
1, 7240, Note_off_c, 0, 63, 114
1, 7252, Note_on_c, 0, 61, 109
1, 7279, Note_off_c, 0, 61, 109
1, 7301, Note_on_c, 0, 58, 87
1, 7341, Note_off_c, 0, 58, 87
1, 7352, Note_on_c, 0, 59, 106
1, 7385, Note_off_c, 0, 59, 106
1, 7396, Note_on_c, 0, 60, 98
1, 7424, Note_off_c, 0, 60, 98
1, 7435, Note_on_c, 0, 63, 118
1, 7477, Note_off_c, 0, 63, 118
1, 7483, Note_on_c, 0, 66, 103
1, 7516, Note_off_c, 0, 66, 103
1, 7531, Note_on_c, 0, 67, 120
1, 7570, Note_off_c, 0, 67, 120
1, 7575, Note_on_c, 0, 66, 113
1, 7609, Note_off_c, 0, 66, 113
1, 7622, Note_on_c, 0, 64, 117
1, 7664, Note_off_c, 0, 64, 117
1, 7672, Note_on_c, 0, 62, 110
1, 7723, Note_off_c, 0, 62, 110
1, 7730, Note_on_c, 0, 59, 94
1, 7761, Note_off_c, 0, 59, 94
1, 7766, Note_on_c, 0, 57, 95
1, 7813, Note_off_c, 0, 57, 95
1, 7824, Note_on_c, 0, 55, 98
1, 7857, Note_off_c, 0, 55, 98
1, 7873, Note_on_c, 0, 54, 102
1, 7902, Note_off_c, 0, 54, 102
1, 7919, Note_on_c, 0, 52, 100
1, 7951, Note_off_c, 0, 52, 100
1, 7960, Note_on_c, 0, 59, 109
1, 7999, Note_off_c, 0, 59, 109
1, 8012, Note_on_c, 0, 59, 108
1, 8096, Note_off_c, 0, 59, 108
1, 8432, Note_on_c, 0, 69, 117
1, 8475, Note_off_c, 0, 69, 117
1, 8485, Note_on_c, 0, 67, 105
1, 8527, Note_off_c, 0, 67, 105
1, 8539, Note_on_c, 0, 66, 106
1, 8569, Note_off_c, 0, 66, 106
1, 8576, Note_on_c, 0, 64, 116
1, 8616, Note_off_c, 0, 64, 116
1, 8628, Note_on_c, 0, 62, 103
1, 8667, Note_off_c, 0, 62, 103
1, 8683, Note_on_c, 0, 59, 93
1, 8720, Note_off_c, 0, 59, 93
1, 8723, Note_on_c, 0, 61, 115
1, 8769, Note_off_c, 0, 61, 115
1, 8778, Note_on_c, 0, 59, 109
1, 8812, Note_off_c, 0, 59, 109
1, 8822, Note_on_c, 0, 56, 103
1, 8861, Note_off_c, 0, 56, 103
1, 8873, Note_on_c, 0, 57, 103
1, 8909, Note_off_c, 0, 57, 103
1, 8921, Note_on_c, 0, 52, 109
1, 8959, Note_off_c, 0, 52, 109
1, 8963, Note_on_c, 0, 53, 109
1, 8998, Note_off_c, 0, 53, 109
1, 9006, Note_on_c, 0, 57, 107
1, 9045, Note_off_c, 0, 57, 107
1, 9051, Note_on_c, 0, 62, 124
1, 9093, Note_off_c, 0, 62, 124
1, 9098, Note_on_c, 0, 61, 113
1, 9143, Note_off_c, 0, 61, 113
1, 9149, Note_on_c, 0, 59, 105
1, 9183, Note_off_c, 0, 59, 105
1, 9195, Note_on_c, 0, 57, 94
1, 9235, Note_off_c, 0, 57, 94
1, 9244, Note_on_c, 0, 53, 96
1, 9280, Note_off_c, 0, 53, 96
1, 9289, Note_on_c, 0, 56, 102
1, 9334, Note_off_c, 0, 56, 102
1, 9345, Note_on_c, 0, 53, 112
1, 9376, Note_off_c, 0, 53, 112
1, 9382, Note_on_c, 0, 54, 95
1, 9422, Note_off_c, 0, 54, 95
1, 9428, Note_on_c, 0, 56, 120
1, 9475, Note_off_c, 0, 56, 120
1, 9481, Note_on_c, 0, 57, 97
1, 9516, Note_off_c, 0, 57, 97
1, 9527, Note_on_c, 0, 59, 110
1, 9563, Note_off_c, 0, 59, 110
1, 9572, Note_on_c, 0, 61, 103
1, 9608, Note_off_c, 0, 61, 103
1, 9620, Note_on_c, 0, 64, 108
1, 9654, Note_off_c, 0, 64, 108
1, 9658, Note_on_c, 0, 67, 117
1, 9697, Note_off_c, 0, 67, 117
1, 9709, Note_on_c, 0, 68, 122
1, 9748, Note_off_c, 0, 68, 122
1, 9756, Note_on_c, 0, 66, 109
1, 9798, Note_off_c, 0, 66, 109
1, 9808, Note_on_c, 0, 64, 97
1, 9847, Note_off_c, 0, 64, 97
1, 9855, Note_on_c, 0, 68, 108
1, 9899, Note_off_c, 0, 68, 108
1, 9905, Note_on_c, 0, 69, 112
1, 9939, Note_off_c, 0, 69, 112
1, 9945, Note_on_c, 0, 67, 117
1, 9983, Note_off_c, 0, 67, 117
1, 9993, Note_on_c, 0, 65, 121
1, 10036, Note_off_c, 0, 65, 121
1, 10042, Note_on_c, 0, 64, 98
1, 10078, Note_off_c, 0, 64, 98
1, 10087, Note_on_c, 0, 62, 123
1, 10131, Note_off_c, 0, 62, 123
1, 10139, Note_on_c, 0, 60, 105
1, 10179, Note_off_c, 0, 60, 105
1, 10186, Note_on_c, 0, 57, 107
1, 10224, Note_off_c, 0, 57, 107
1, 10229, Note_on_c, 0, 58, 100
1, 10269, Note_off_c, 0, 58, 100
1, 10273, Note_on_c, 0, 62, 116
1, 10319, Note_off_c, 0, 62, 116
1, 10418, Note_on_c, 0, 62, 113
1, 10460, Note_off_c, 0, 62, 113
1, 10472, Note_on_c, 0, 64, 114
1, 10509, Note_off_c, 0, 64, 114
1, 10514, Note_on_c, 0, 61, 114
1, 10560, Note_off_c, 0, 61, 114
1, 10567, Note_on_c, 0, 59, 113
1, 10609, Note_off_c, 0, 59, 113
1, 10615, Note_on_c, 0, 57, 96
1, 10651, Note_off_c, 0, 57, 96
1, 10658, Note_on_c, 0, 61, 106
1, 10699, Note_off_c, 0, 61, 106
1, 10705, Note_on_c, 0, 64, 89
1, 10743, Note_off_c, 0, 64, 89
1, 10754, Note_on_c, 0, 68, 79
1, 10783, Note_off_c, 0, 68, 79
1, 10792, Note_on_c, 0, 71, 112
1, 10835, Note_off_c, 0, 71, 112
1, 10838, Note_on_c, 0, 70, 96
1, 10878, Note_off_c, 0, 70, 96
1, 10885, Note_on_c, 0, 69, 118
1, 10944, Note_off_c, 0, 69, 118
1, 10953, Note_on_c, 0, 61, 104
1, 11006, Note_off_c, 0, 61, 104
1, 11666, Note_on_c, 0, 72, 107
1, 11705, Note_off_c, 0, 72, 107
1, 11714, Note_on_c, 0, 71, 94
1, 11758, Note_off_c, 0, 71, 94
1, 11763, Note_on_c, 0, 70, 107
1, 11796, Note_off_c, 0, 70, 107
1, 11803, Note_on_c, 0, 69, 102
1, 11849, Note_off_c, 0, 69, 102
1, 11853, Note_on_c, 0, 67, 107
1, 11896, Note_off_c, 0, 67, 107
1, 11905, Note_on_c, 0, 65, 110
1, 11946, Note_off_c, 0, 65, 110
1, 11953, Note_on_c, 0, 64, 94
1, 12002, Note_off_c, 0, 64, 94
1, 12007, Note_on_c, 0, 62, 108
1, 12043, Note_off_c, 0, 62, 108
1, 12049, Note_on_c, 0, 60, 92
1, 12092, Note_off_c, 0, 60, 92
1, 12100, Note_on_c, 0, 58, 100
1, 12139, Note_off_c, 0, 58, 100
1, 12152, Note_on_c, 0, 57, 93
1, 12183, Note_off_c, 0, 57, 93
1, 12201, Note_on_c, 0, 57, 87
1, 12230, Note_off_c, 0, 57, 87
1, 12249, Note_on_c, 0, 60, 100
1, 12291, Note_off_c, 0, 60, 100
1, 12297, Note_on_c, 0, 62, 94
1, 12329, Note_off_c, 0, 62, 94
1, 12335, Note_on_c, 0, 64, 116
1, 12370, Note_off_c, 0, 64, 116
1, 12384, Note_on_c, 0, 64, 110
1, 12426, Note_off_c, 0, 64, 110
1, 12489, Note_on_c, 0, 62, 93
1, 12522, Note_off_c, 0, 62, 93
1, 12527, Note_on_c, 0, 64, 109
1, 12556, Note_off_c, 0, 64, 109
1, 12571, Note_on_c, 0, 64, 109
1, 12615, Note_off_c, 0, 64, 109
1, 12622, Note_on_c, 0, 62, 105
1, 12660, Note_off_c, 0, 62, 105
1, 12664, Note_on_c, 0, 64, 114
1, 12727, Note_off_c, 0, 64, 114
1, 12984, Note_on_c, 0, 67, 121
1, 13024, Note_off_c, 0, 67, 121
1, 13037, Note_on_c, 0, 65, 106
1, 13075, Note_off_c, 0, 65, 106
1, 13090, Note_on_c, 0, 64, 97
1, 13224, Note_off_c, 0, 64, 97
1, 13244, Note_on_c, 0, 62, 98
1, 13282, Note_off_c, 0, 62, 98
1, 13290, Note_on_c, 0, 61, 109
1, 13397, Note_off_c, 0, 61, 109
1, 13418, Note_on_c, 0, 70, 108
1, 13462, Note_off_c, 0, 70, 108
1, 13476, Note_on_c, 0, 69, 106
1, 13598, Note_off_c, 0, 69, 106
1, 13621, Note_on_c, 0, 67, 113
1, 13663, Note_off_c, 0, 67, 113
1, 13672, Note_on_c, 0, 65, 112
1, 13730, Note_off_c, 0, 65, 112
1, 13786, Note_on_c, 0, 57, 80
1, 13815, Note_off_c, 0, 57, 80
1, 13818, Note_on_c, 0, 62, 104
1, 13851, Note_off_c, 0, 62, 104
1, 13860, Note_on_c, 0, 64, 108
1, 13899, Note_off_c, 0, 64, 108
1, 13908, Note_on_c, 0, 67, 117
1, 13945, Note_off_c, 0, 67, 117
1, 13950, Note_on_c, 0, 64, 112
1, 13989, Note_off_c, 0, 64, 112
1, 13998, Note_on_c, 0, 63, 113
1, 14044, Note_off_c, 0, 63, 113
1, 14050, Note_on_c, 0, 62, 107
1, 14089, Note_off_c, 0, 62, 107
1, 14098, Note_on_c, 0, 60, 95
1, 14128, Note_off_c, 0, 60, 95
1, 14137, Note_on_c, 0, 57, 95
1, 14187, Note_off_c, 0, 57, 95
1, 14194, Note_on_c, 0, 58, 97
1, 14229, Note_off_c, 0, 58, 97
1, 14240, Note_on_c, 0, 59, 100
1, 14274, Note_off_c, 0, 59, 100
1, 14282, Note_on_c, 0, 62, 119
1, 14318, Note_off_c, 0, 62, 119
1, 14321, Note_on_c, 0, 65, 103
1, 14358, Note_off_c, 0, 65, 103
1, 14367, Note_on_c, 0, 69, 112
1, 14409, Note_off_c, 0, 69, 112
1, 14415, Note_on_c, 0, 67, 103
1, 14448, Note_off_c, 0, 67, 103
1, 14460, Note_on_c, 0, 64, 113
1, 14511, Note_off_c, 0, 64, 113
1, 14564, Note_on_c, 0, 55, 97
1, 14601, Note_off_c, 0, 55, 97
1, 14610, Note_on_c, 0, 57, 105
1, 14656, Note_off_c, 0, 57, 105
1, 14659, Note_on_c, 0, 53, 112
1, 14708, Note_off_c, 0, 53, 112
1, 14756, Note_on_c, 0, 50, 103
1, 14789, Note_off_c, 0, 50, 103
1, 14798, Note_on_c, 0, 52, 107
1, 14833, Note_off_c, 0, 52, 107
1, 14841, Note_on_c, 0, 53, 109
1, 14874, Note_off_c, 0, 53, 109
1, 14883, Note_on_c, 0, 50, 105
1, 14919, Note_off_c, 0, 50, 105
1, 14929, Note_on_c, 0, 52, 105
1, 14971, Note_off_c, 0, 52, 105
1, 14978, Note_on_c, 0, 50, 105
1, 15023, Note_off_c, 0, 50, 105
1, 15031, Note_on_c, 0, 53, 111
1, 15064, Note_off_c, 0, 53, 111
1, 15070, Note_on_c, 0, 57, 103
1, 15105, Note_off_c, 0, 57, 103
1, 15111, Note_on_c, 0, 60, 111
1, 15146, Note_off_c, 0, 60, 111
1, 15158, Note_on_c, 0, 58, 97
1, 15195, Note_off_c, 0, 58, 97
1, 15203, Note_on_c, 0, 59, 106
1, 15233, Note_off_c, 0, 59, 106
1, 15239, Note_on_c, 0, 62, 117
1, 15281, Note_off_c, 0, 62, 117
1, 15290, Note_on_c, 0, 68, 118
1, 15331, Note_off_c, 0, 68, 118
1, 15340, Note_on_c, 0, 67, 113
1, 15377, Note_off_c, 0, 67, 113
1, 15383, Note_on_c, 0, 63, 108
1, 15420, Note_off_c, 0, 63, 108
1, 15426, Note_on_c, 0, 62, 100
1, 15477, Note_off_c, 0, 62, 100
1, 15527, Note_on_c, 0, 65, 114
1, 15568, Note_off_c, 0, 65, 114
1, 15570, Note_on_c, 0, 64, 109
1, 15609, Note_off_c, 0, 64, 109
1, 15612, Note_on_c, 0, 63, 107
1, 15656, Note_off_c, 0, 63, 107
1, 15662, Note_on_c, 0, 65, 117
1, 15708, Note_off_c, 0, 65, 117
1, 15711, Note_on_c, 0, 62, 111
1, 15755, Note_off_c, 0, 62, 111
1, 15757, Note_on_c, 0, 60, 99
1, 15802, Note_off_c, 0, 60, 99
1, 15808, Note_on_c, 0, 58, 95
1, 15847, Note_off_c, 0, 58, 95
1, 15851, Note_on_c, 0, 55, 98
1, 15886, Note_off_c, 0, 55, 98
1, 15899, Note_on_c, 0, 57, 102
1, 15941, Note_off_c, 0, 57, 102
1, 15949, Note_on_c, 0, 60, 121
1, 15994, Note_off_c, 0, 60, 121
1, 16000, Note_on_c, 0, 53, 98
1, 16041, Note_off_c, 0, 53, 98
1, 16046, Note_on_c, 0, 52, 114
1, 16081, Note_off_c, 0, 52, 114
1, 16090, Note_on_c, 0, 51, 103
1, 16135, Note_off_c, 0, 51, 103
1, 16572, Note_on_c, 0, 74, 112
1, 16614, Note_off_c, 0, 74, 112
1, 16620, Note_on_c, 0, 73, 102
1, 16658, Note_off_c, 0, 73, 102
1, 16666, Note_on_c, 0, 72, 101
1, 16700, Note_off_c, 0, 72, 101
1, 16710, Note_on_c, 0, 70, 117
1, 16747, Note_off_c, 0, 70, 117
1, 16754, Note_on_c, 0, 69, 117
1, 16793, Note_off_c, 0, 69, 117
1, 16802, Note_on_c, 0, 67, 118
1, 16839, Note_off_c, 0, 67, 118
1, 16847, Note_on_c, 0, 66, 105
1, 16890, Note_off_c, 0, 66, 105
1, 16899, Note_on_c, 0, 63, 102
1, 16944, Note_off_c, 0, 63, 102
1, 16950, Note_on_c, 0, 62, 95
1, 16987, Note_off_c, 0, 62, 95
1, 16993, Note_on_c, 0, 60, 108
1, 17036, Note_off_c, 0, 60, 108
1, 17041, Note_on_c, 0, 57, 91
1, 17079, Note_off_c, 0, 57, 91
1, 17083, Note_on_c, 0, 55, 109
1, 17125, Note_off_c, 0, 55, 109
1, 17201, Note_on_c, 0, 53, 107
1, 17231, Note_off_c, 0, 53, 107
1, 17240, Note_on_c, 0, 57, 98
1, 17282, Note_off_c, 0, 57, 98
1, 17287, Note_on_c, 0, 60, 91
1, 17318, Note_off_c, 0, 60, 91
1, 17325, Note_on_c, 0, 62, 92
1, 17371, Note_off_c, 0, 62, 92
1, 17374, Note_on_c, 0, 63, 108
1, 17408, Note_off_c, 0, 63, 108
1, 17412, Note_on_c, 0, 62, 102
1, 17462, Note_off_c, 0, 62, 102
1, 17465, Note_on_c, 0, 60, 111
1, 17500, Note_off_c, 0, 60, 111
1, 17510, Note_on_c, 0, 59, 100
1, 17543, Note_off_c, 0, 59, 100
1, 17560, Note_on_c, 0, 57, 104
1, 17590, Note_off_c, 0, 57, 104
1, 17594, Note_on_c, 0, 58, 97
1, 17640, Note_off_c, 0, 58, 97
1, 17648, Note_on_c, 0, 62, 116
1, 17694, Note_off_c, 0, 62, 116
1, 17698, Note_on_c, 0, 64, 102
1, 17736, Note_off_c, 0, 64, 102
1, 17741, Note_on_c, 0, 66, 104
1, 17778, Note_off_c, 0, 66, 104
1, 17783, Note_on_c, 0, 69, 120
1, 17827, Note_off_c, 0, 69, 120
1, 17834, Note_on_c, 0, 66, 117
1, 17873, Note_off_c, 0, 66, 117
1, 17877, Note_on_c, 0, 67, 110
1, 17922, Note_off_c, 0, 67, 110
1, 17929, Note_on_c, 0, 69, 115
1, 17968, Note_off_c, 0, 69, 115
1, 17975, Note_on_c, 0, 70, 115
1, 18011, Note_off_c, 0, 70, 115
1, 18023, Note_on_c, 0, 72, 101
1, 18053, Note_off_c, 0, 72, 101
1, 18063, Note_on_c, 0, 74, 109
1, 18106, Note_off_c, 0, 74, 109
1, 18116, Note_on_c, 0, 73, 110
1, 18155, Note_off_c, 0, 73, 110
1, 18160, Note_on_c, 0, 72, 107
1, 18204, Note_off_c, 0, 72, 107
1, 18211, Note_on_c, 0, 69, 116
1, 18255, Note_off_c, 0, 69, 116
1, 18260, Note_on_c, 0, 64, 98
1, 18308, Note_off_c, 0, 64, 98
1, 18313, Note_on_c, 0, 60, 105
1, 18347, Note_off_c, 0, 60, 105
1, 18353, Note_on_c, 0, 62, 107
1, 18394, Note_off_c, 0, 62, 107
1, 18396, Note_on_c, 0, 58, 116
1, 18438, Note_off_c, 0, 58, 116
1, 18443, Note_on_c, 0, 57, 97
1, 18492, Note_off_c, 0, 57, 97
1, 18494, Note_on_c, 0, 56, 108
1, 18555, Note_off_c, 0, 56, 108
1, 18583, Note_on_c, 0, 57, 101
1, 18616, Note_off_c, 0, 57, 101
1, 18621, Note_on_c, 0, 58, 107
1, 18677, Note_off_c, 0, 58, 107
1, 18684, Note_on_c, 0, 60, 112
1, 18726, Note_off_c, 0, 60, 112
1, 18728, Note_on_c, 0, 61, 97
1, 18776, Note_off_c, 0, 61, 97
1, 18780, Note_on_c, 0, 62, 98
1, 18817, Note_off_c, 0, 62, 98
1, 18818, Note_on_c, 0, 65, 116
1, 18869, Note_off_c, 0, 65, 116
1, 18873, Note_on_c, 0, 62, 92
1, 18912, Note_off_c, 0, 62, 92
1, 18913, Note_on_c, 0, 64, 112
1, 18956, Note_off_c, 0, 64, 112
1, 18963, Note_on_c, 0, 62, 113
1, 19002, Note_off_c, 0, 62, 113
1, 19007, Note_on_c, 0, 60, 108
1, 19049, Note_off_c, 0, 60, 108
1, 19058, Note_on_c, 0, 59, 112
1, 19099, Note_off_c, 0, 59, 112
1, 19106, Note_on_c, 0, 58, 108
1, 19135, Note_off_c, 0, 58, 108
1, 19190, Note_on_c, 0, 57, 108
1, 19239, Note_off_c, 0, 57, 108
1, 19248, Note_on_c, 0, 54, 108
1, 19282, Note_off_c, 0, 54, 108
1, 19285, Note_on_c, 0, 55, 100
1, 19322, Note_off_c, 0, 55, 100
1, 19339, Note_on_c, 0, 57, 107
1, 19376, Note_off_c, 0, 57, 107
1, 19382, Note_on_c, 0, 58, 97
1, 19415, Note_off_c, 0, 58, 97
1, 19432, Note_on_c, 0, 60, 103
1, 19465, Note_off_c, 0, 60, 103
1, 19473, Note_on_c, 0, 62, 114
1, 19506, Note_off_c, 0, 62, 114
1, 19524, Note_on_c, 0, 65, 108
1, 19558, Note_off_c, 0, 65, 108
1, 19564, Note_on_c, 0, 64, 94
1, 19612, Note_off_c, 0, 64, 94
1, 19857, Note_on_c, 0, 69, 117
1, 19903, Note_off_c, 0, 69, 117
1, 19908, Note_on_c, 0, 70, 92
1, 20003, Note_off_c, 0, 70, 92
1, 20009, Note_on_c, 0, 69, 105
1, 20049, Note_off_c, 0, 69, 105
1, 20060, Note_on_c, 0, 68, 116
1, 20103, Note_off_c, 0, 68, 116
1, 20109, Note_on_c, 0, 67, 102
1, 20144, Note_off_c, 0, 67, 102
1, 20150, Note_on_c, 0, 65, 113
1, 20189, Note_off_c, 0, 65, 113
1, 20198, Note_on_c, 0, 63, 113
1, 20234, Note_off_c, 0, 63, 113
1, 20244, Note_on_c, 0, 62, 110
1, 20287, Note_off_c, 0, 62, 110
1, 20294, Note_on_c, 0, 60, 101
1, 20327, Note_off_c, 0, 60, 101
1, 20333, Note_on_c, 0, 58, 91
1, 20369, Note_off_c, 0, 58, 91
1, 20388, Note_on_c, 0, 56, 107
1, 20422, Note_off_c, 0, 56, 107
1, 20428, Note_on_c, 0, 55, 99
1, 20462, Note_off_c, 0, 55, 99
1, 20479, Note_on_c, 0, 50, 102
1, 20509, Note_off_c, 0, 50, 102
1, 20516, Note_on_c, 0, 53, 97
1, 20562, Note_off_c, 0, 53, 97
1, 20580, Note_on_c, 0, 50, 104
1, 20618, Note_off_c, 0, 50, 104
1, 20623, Note_on_c, 0, 53, 105
1, 20658, Note_off_c, 0, 53, 105
1, 20659, Note_on_c, 0, 55, 112
1, 20698, Note_off_c, 0, 55, 112
1, 20701, Note_on_c, 0, 56, 108
1, 20730, Note_off_c, 0, 56, 108
1, 20742, Note_on_c, 0, 58, 111
1, 20782, Note_off_c, 0, 58, 111
1, 20786, Note_on_c, 0, 59, 106
1, 20825, Note_off_c, 0, 59, 106
1, 20835, Note_on_c, 0, 61, 106
1, 20874, Note_off_c, 0, 61, 106
1, 20882, Note_on_c, 0, 62, 111
1, 20923, Note_off_c, 0, 62, 111
1, 20938, Note_on_c, 0, 64, 103
1, 20981, Note_off_c, 0, 64, 103
1, 20984, Note_on_c, 0, 65, 111
1, 21020, Note_off_c, 0, 65, 111
1, 21030, Note_on_c, 0, 67, 120
1, 21065, Note_off_c, 0, 67, 120
1, 21075, Note_on_c, 0, 68, 119
1, 21116, Note_off_c, 0, 68, 119
1, 21123, Note_on_c, 0, 70, 107
1, 21159, Note_off_c, 0, 70, 107
1, 21164, Note_on_c, 0, 72, 110
1, 21210, Note_off_c, 0, 72, 110
1, 21217, Note_on_c, 0, 72, 113
1, 21261, Note_off_c, 0, 72, 113
1, 21268, Note_on_c, 0, 70, 102
1, 21308, Note_off_c, 0, 70, 102
1, 21319, Note_on_c, 0, 68, 115
1, 21354, Note_off_c, 0, 68, 115
1, 21363, Note_on_c, 0, 67, 109
1, 21396, Note_off_c, 0, 67, 109
1, 21412, Note_on_c, 0, 65, 109
1, 21453, Note_off_c, 0, 65, 109
1, 21460, Note_on_c, 0, 63, 99
1, 21507, Note_off_c, 0, 63, 99
1, 21512, Note_on_c, 0, 60, 111
1, 21549, Note_off_c, 0, 60, 111
1, 21553, Note_on_c, 0, 61, 99
1, 21595, Note_off_c, 0, 61, 99
1, 21604, Note_on_c, 0, 65, 113
1, 21642, Note_off_c, 0, 65, 113
1, 21648, Note_on_c, 0, 60, 98
1, 21686, Note_off_c, 0, 60, 98
1, 21694, Note_on_c, 0, 59, 112
1, 21740, Note_off_c, 0, 59, 112
1, 21745, Note_on_c, 0, 58, 105
1, 21785, Note_off_c, 0, 58, 105
1, 21791, Note_on_c, 0, 55, 109
1, 21831, Note_off_c, 0, 55, 109
1, 21839, Note_on_c, 0, 53, 106
1, 21868, Note_off_c, 0, 53, 106
1, 21879, Note_on_c, 0, 48, 103
1, 21926, Note_off_c, 0, 48, 103
1, 21936, Note_on_c, 0, 47, 99
1, 22000, Note_off_c, 0, 47, 99
1, 22079, Note_on_c, 0, 61, 98
1, 22143, Note_off_c, 0, 61, 98
1, 22498, Note_on_c, 0, 52, 110
1, 22557, Note_off_c, 0, 52, 110
1, 22573, Note_on_c, 0, 57, 96
1, 22607, Note_off_c, 0, 57, 96
1, 22613, Note_on_c, 0, 61, 113
1, 22651, Note_off_c, 0, 61, 113
1, 22664, Note_on_c, 0, 59, 104
1, 22697, Note_off_c, 0, 59, 104
1, 22703, Note_on_c, 0, 60, 119
1, 22839, Note_off_c, 0, 60, 119
1, 22845, Note_on_c, 0, 56, 103
1, 22884, Note_off_c, 0, 56, 103
1, 22963, Note_on_c, 0, 53, 108
1, 23024, Note_off_c, 0, 53, 108
1, 23038, Note_on_c, 0, 49, 105
1, 23110, Note_off_c, 0, 49, 105
1, 23143, Note_on_c, 0, 49, 109
1, 23184, Note_off_c, 0, 49, 109
1, 23185, Note_on_c, 0, 53, 106
1, 23230, Note_off_c, 0, 53, 106
1, 23231, Note_on_c, 0, 56, 100
1, 23268, Note_off_c, 0, 56, 100
1, 23270, Note_on_c, 0, 60, 111
1, 23303, Note_off_c, 0, 60, 111
1, 23324, Note_on_c, 0, 60, 116
1, 23362, Note_off_c, 0, 60, 116
1, 23376, Note_on_c, 0, 58, 102
1, 23426, Note_off_c, 0, 58, 102
1, 23612, Note_on_c, 0, 57, 106
1, 23645, Note_off_c, 0, 57, 106
1, 23652, Note_on_c, 0, 61, 113
1, 23695, Note_off_c, 0, 61, 113
1, 23706, Note_on_c, 0, 60, 108
1, 23740, Note_off_c, 0, 60, 108
1, 23754, Note_on_c, 0, 59, 102
1, 23793, Note_off_c, 0, 59, 102
1, 23803, Note_on_c, 0, 57, 108
1, 23832, Note_off_c, 0, 57, 108
1, 23892, Note_on_c, 0, 56, 100
1, 23934, Note_off_c, 0, 56, 100
1, 23940, Note_on_c, 0, 60, 98
1, 23977, Note_off_c, 0, 60, 98
1, 23983, Note_on_c, 0, 62, 106
1, 24022, Note_off_c, 0, 62, 106
1, 24032, Note_on_c, 0, 66, 121
1, 24074, Note_off_c, 0, 66, 121
1, 24080, Note_on_c, 0, 68, 125
1, 24112, Note_off_c, 0, 68, 125
1, 24119, Note_on_c, 0, 65, 100
1, 24167, Note_off_c, 0, 65, 100
1, 24174, Note_on_c, 0, 63, 93
1, 24217, Note_off_c, 0, 63, 93
1, 24219, Note_on_c, 0, 61, 95
1, 24260, Note_off_c, 0, 61, 95
1, 24271, Note_on_c, 0, 62, 99
1, 24305, Note_off_c, 0, 62, 99
1, 24310, Note_on_c, 0, 65, 109
1, 24355, Note_off_c, 0, 65, 109
1, 24361, Note_on_c, 0, 71, 104
1, 24402, Note_off_c, 0, 71, 104
1, 24409, Note_on_c, 0, 70, 107
1, 24445, Note_off_c, 0, 70, 107
1, 24452, Note_on_c, 0, 68, 121
1, 24503, Note_off_c, 0, 68, 121
1, 24508, Note_on_c, 0, 67, 112
1, 24547, Note_off_c, 0, 67, 112
1, 24556, Note_on_c, 0, 65, 104
1, 24591, Note_off_c, 0, 65, 104
1, 24607, Note_on_c, 0, 66, 114
1, 24652, Note_off_c, 0, 66, 114
1, 24658, Note_on_c, 0, 58, 103
1, 24694, Note_off_c, 0, 58, 103
1, 24696, Note_on_c, 0, 61, 95
1, 24741, Note_off_c, 0, 61, 95
1, 24745, Note_on_c, 0, 63, 91
1, 24781, Note_off_c, 0, 63, 91
1, 24788, Note_on_c, 0, 65, 115
1, 24827, Note_off_c, 0, 65, 115
1, 24835, Note_on_c, 0, 68, 125
1, 24875, Note_off_c, 0, 68, 125
1, 24881, Note_on_c, 0, 65, 111
1, 24926, Note_off_c, 0, 65, 111
1, 24939, Note_on_c, 0, 64, 115
1, 24978, Note_off_c, 0, 64, 115
1, 24986, Note_on_c, 0, 63, 107
1, 25012, Note_off_c, 0, 63, 107
1, 25026, Note_on_c, 0, 61, 101
1, 25061, Note_off_c, 0, 61, 101
1, 25073, Note_on_c, 0, 58, 90
1, 25106, Note_off_c, 0, 58, 90
1, 25126, Note_on_c, 0, 59, 99
1, 25159, Note_off_c, 0, 59, 99
1, 25161, Note_on_c, 0, 60, 94
1, 25203, Note_off_c, 0, 60, 94
1, 25213, Note_on_c, 0, 63, 114
1, 25252, Note_off_c, 0, 63, 114
1, 25256, Note_on_c, 0, 66, 117
1, 25300, Note_off_c, 0, 66, 117
1, 25308, Note_on_c, 0, 68, 110
1, 25343, Note_off_c, 0, 68, 110
1, 25353, Note_on_c, 0, 71, 112
1, 25391, Note_off_c, 0, 71, 112
1, 25400, Note_on_c, 0, 69, 109
1, 25438, Note_off_c, 0, 69, 109
1, 25441, Note_on_c, 0, 68, 107
1, 25482, Note_off_c, 0, 68, 107
1, 25490, Note_on_c, 0, 66, 118
1, 25532, Note_off_c, 0, 66, 118
1, 25535, Note_on_c, 0, 64, 105
1, 25565, Note_off_c, 0, 64, 105
1, 25581, Note_on_c, 0, 60, 116
1, 25617, Note_off_c, 0, 60, 116
1, 25621, Note_on_c, 0, 59, 105
1, 25665, Note_off_c, 0, 59, 105
1, 25675, Note_on_c, 0, 57, 98
1, 25712, Note_off_c, 0, 57, 98
1, 25720, Note_on_c, 0, 55, 97
1, 25752, Note_off_c, 0, 55, 97
1, 25758, Note_on_c, 0, 56, 92
1, 25945, Note_off_c, 0, 56, 92
1, 26100, Note_on_c, 0, 61, 109
1, 26138, Note_off_c, 0, 61, 109
1, 26143, Note_on_c, 0, 63, 112
1, 26178, Note_off_c, 0, 63, 112
1, 26182, Note_on_c, 0, 64, 104
1, 26227, Note_off_c, 0, 64, 104
1, 26242, Note_on_c, 0, 66, 104
1, 26272, Note_off_c, 0, 66, 104
1, 26281, Note_on_c, 0, 68, 113
1, 26318, Note_off_c, 0, 68, 113
1, 26325, Note_on_c, 0, 71, 115
1, 26365, Note_off_c, 0, 71, 115
1, 26367, Note_on_c, 0, 70, 99
1, 26423, Note_off_c, 0, 70, 99
1, 26434, Note_on_c, 0, 66, 98
1, 26467, Note_off_c, 0, 66, 98
1, 26473, Note_on_c, 0, 68, 116
1, 26520, Note_off_c, 0, 68, 116
1, 26526, Note_on_c, 0, 64, 112
1, 26567, Note_off_c, 0, 64, 112
1, 26570, Note_on_c, 0, 63, 98
1, 26611, Note_off_c, 0, 63, 98
1, 26627, Note_on_c, 0, 61, 87
1, 26657, Note_off_c, 0, 61, 87
1, 26662, Note_on_c, 0, 66, 111
1, 26707, Note_off_c, 0, 66, 111
1, 26717, Note_on_c, 0, 65, 110
1, 26752, Note_off_c, 0, 65, 110
1, 26759, Note_on_c, 0, 64, 101
1, 26796, Note_off_c, 0, 64, 101
1, 26808, Note_on_c, 0, 63, 109
1, 26849, Note_off_c, 0, 63, 109
1, 26859, Note_on_c, 0, 61, 102
1, 26892, Note_off_c, 0, 61, 102
1, 26899, Note_on_c, 0, 59, 108
1, 26941, Note_off_c, 0, 59, 108
1, 26951, Note_on_c, 0, 58, 97
1, 26982, Note_off_c, 0, 58, 97
1, 26998, Note_on_c, 0, 56, 107
1, 27033, Note_off_c, 0, 56, 107
1, 27057, Note_on_c, 0, 54, 99
1, 27089, Note_off_c, 0, 54, 99
1, 27092, Note_on_c, 0, 55, 97
1, 27122, Note_off_c, 0, 55, 97
1, 27128, Note_on_c, 0, 59, 105
1, 27170, Note_off_c, 0, 59, 105
1, 27177, Note_on_c, 0, 64, 115
1, 27211, Note_off_c, 0, 64, 115
1, 27219, Note_on_c, 0, 63, 107
1, 27256, Note_off_c, 0, 63, 107
1, 27273, Note_on_c, 0, 60, 112
1, 27307, Note_off_c, 0, 60, 112
1, 27378, Note_on_c, 0, 56, 109
1, 27408, Note_off_c, 0, 56, 109
1, 27415, Note_on_c, 0, 55, 92
1, 27448, Note_off_c, 0, 55, 92
1, 27553, Note_on_c, 0, 63, 102
1, 27581, Note_off_c, 0, 63, 102
1, 27586, Note_on_c, 0, 67, 113
1, 27626, Note_off_c, 0, 67, 113
1, 27640, Note_on_c, 0, 68, 108
1, 27675, Note_off_c, 0, 68, 108
1, 27688, Note_on_c, 0, 67, 105
1, 27719, Note_off_c, 0, 67, 105
1, 27724, Note_on_c, 0, 65, 111
1, 27765, Note_off_c, 0, 65, 111
1, 27787, Note_on_c, 0, 63, 86
1, 27826, Note_off_c, 0, 63, 86
1, 27833, Note_on_c, 0, 60, 106
1, 27869, Note_off_c, 0, 60, 106
1, 27878, Note_on_c, 0, 58, 94
1, 27911, Note_off_c, 0, 58, 94
1, 27919, Note_on_c, 0, 56, 108
1, 27959, Note_off_c, 0, 56, 108
1, 27980, Note_on_c, 0, 49, 103
1, 28011, Note_off_c, 0, 49, 103
1, 28030, Note_on_c, 0, 50, 99
1, 28065, Note_off_c, 0, 50, 99
1, 28077, Note_on_c, 0, 54, 113
1, 28113, Note_off_c, 0, 54, 113
1, 28120, Note_on_c, 0, 57, 96
1, 28145, Note_off_c, 0, 57, 96
1, 28154, Note_on_c, 0, 61, 111
1, 28193, Note_off_c, 0, 61, 111
1, 28197, Note_on_c, 0, 62, 109
1, 28228, Note_off_c, 0, 62, 109
1, 28249, Note_on_c, 0, 59, 96
1, 28275, Note_off_c, 0, 59, 96
1, 28283, Note_on_c, 0, 61, 95
1, 28362, Note_off_c, 0, 61, 95
1, 28388, Note_on_c, 0, 64, 106
1, 28422, Note_off_c, 0, 64, 106
1, 28434, Note_on_c, 0, 65, 91
1, 28475, Note_off_c, 0, 65, 91
1, 28481, Note_on_c, 0, 66, 101
1, 28510, Note_off_c, 0, 66, 101
1, 28519, Note_on_c, 0, 69, 113
1, 28565, Note_off_c, 0, 69, 113
1, 28570, Note_on_c, 0, 66, 117
1, 28625, Note_off_c, 0, 66, 117
1, 28896, Note_on_c, 0, 72, 109
1, 28958, Note_off_c, 0, 72, 109
1, 29189, Note_on_c, 0, 75, 105
1, 29230, Note_off_c, 0, 75, 105
1, 29316, Note_on_c, 0, 72, 105
1, 29402, Note_off_c, 0, 72, 105
1, 29418, Note_on_c, 0, 68, 121
1, 29503, Note_off_c, 0, 68, 121
1, 29509, Note_on_c, 0, 76, 88
1, 29676, Note_off_c, 0, 76, 88
1, 29709, Note_on_c, 0, 73, 114
1, 29754, Note_off_c, 0, 73, 114
1, 29765, Note_on_c, 0, 71, 103
1, 29794, Note_off_c, 0, 71, 103
1, 29809, Note_on_c, 0, 68, 116
1, 29853, Note_off_c, 0, 68, 116
1, 29856, Note_on_c, 0, 66, 110
1, 29895, Note_off_c, 0, 66, 110
1, 29901, Note_on_c, 0, 64, 96
1, 29936, Note_off_c, 0, 64, 96
1, 29941, Note_on_c, 0, 63, 109
1, 29994, Note_off_c, 0, 63, 109
1, 29996, Note_on_c, 0, 62, 102
1, 30038, Note_off_c, 0, 62, 102
1, 30056, Note_on_c, 0, 59, 93
1, 30078, Note_off_c, 0, 59, 93
1, 30084, Note_on_c, 0, 61, 108
1, 30136, Note_off_c, 0, 61, 108
1, 30142, Note_on_c, 0, 58, 102
1, 30176, Note_off_c, 0, 58, 102
1, 30182, Note_on_c, 0, 59, 102
1, 30217, Note_off_c, 0, 59, 102
1, 30227, Note_on_c, 0, 61, 114
1, 30268, Note_off_c, 0, 61, 114
1, 30278, Note_on_c, 0, 58, 89
1, 30318, Note_off_c, 0, 58, 89
1, 30320, Note_on_c, 0, 66, 119
1, 30363, Note_off_c, 0, 66, 119
1, 30371, Note_on_c, 0, 65, 110
1, 30407, Note_off_c, 0, 65, 110
1, 30414, Note_on_c, 0, 63, 98
1, 30450, Note_off_c, 0, 63, 98
1, 30460, Note_on_c, 0, 61, 95
1, 30511, Note_off_c, 0, 61, 95
1, 30520, Note_on_c, 0, 57, 93
1, 30548, Note_off_c, 0, 57, 93
1, 30562, Note_on_c, 0, 60, 110
1, 30601, Note_off_c, 0, 60, 110
1, 30610, Note_on_c, 0, 57, 106
1, 30646, Note_off_c, 0, 57, 106
1, 30652, Note_on_c, 0, 58, 103
1, 30692, Note_off_c, 0, 58, 103
1, 30706, Note_on_c, 0, 60, 110
1, 30744, Note_off_c, 0, 60, 110
1, 30799, Note_on_c, 0, 63, 101
1, 30838, Note_off_c, 0, 63, 101
1, 30841, Note_on_c, 0, 65, 105
1, 30872, Note_off_c, 0, 65, 105
1, 30891, Note_on_c, 0, 68, 104
1, 30921, Note_off_c, 0, 68, 104
1, 30934, Note_on_c, 0, 72, 107
1, 30974, Note_off_c, 0, 72, 107
1, 30978, Note_on_c, 0, 73, 111
1, 31025, Note_off_c, 0, 73, 111
1, 31034, Note_on_c, 0, 71, 88
1, 31061, Note_off_c, 0, 71, 88
1, 31073, Note_on_c, 0, 69, 119
1, 31114, Note_off_c, 0, 69, 119
1, 31117, Note_on_c, 0, 68, 115
1, 31161, Note_off_c, 0, 68, 115
1, 31173, Note_on_c, 0, 66, 112
1, 31215, Note_off_c, 0, 66, 112
1, 31222, Note_on_c, 0, 64, 98
1, 31261, Note_off_c, 0, 64, 98
1, 31271, Note_on_c, 0, 61, 109
1, 31304, Note_off_c, 0, 61, 109
1, 31310, Note_on_c, 0, 62, 106
1, 31349, Note_off_c, 0, 62, 106
1, 31358, Note_on_c, 0, 66, 121
1, 31397, Note_off_c, 0, 66, 121
1, 31406, Note_on_c, 0, 61, 109
1, 31442, Note_off_c, 0, 61, 109
1, 31449, Note_on_c, 0, 60, 119
1, 31485, Note_off_c, 0, 60, 119
1, 31490, Note_on_c, 0, 59, 111
1, 31530, Note_off_c, 0, 59, 111
1, 31543, Note_on_c, 0, 57, 100
1, 31576, Note_off_c, 0, 57, 100
1, 31682, Note_on_c, 0, 60, 104
1, 31714, Note_off_c, 0, 60, 104
1, 31726, Note_on_c, 0, 66, 120
1, 31770, Note_off_c, 0, 66, 120
1, 31776, Note_on_c, 0, 64, 106
1, 31804, Note_off_c, 0, 64, 106
1, 31822, Note_on_c, 0, 64, 109
1, 31864, Note_off_c, 0, 64, 109
1, 31933, Note_on_c, 0, 61, 104
1, 31964, Note_off_c, 0, 61, 104
1, 31978, Note_on_c, 0, 59, 108
1, 32014, Note_off_c, 0, 59, 108
1, 32027, Note_on_c, 0, 59, 115
1, 32060, Note_off_c, 0, 59, 115
1, 32127, Note_on_c, 0, 57, 97
1, 32153, Note_off_c, 0, 57, 97
1, 32167, Note_on_c, 0, 59, 107
1, 32194, Note_off_c, 0, 59, 107
1, 32202, Note_on_c, 0, 59, 113
1, 32242, Note_off_c, 0, 59, 113
1, 32252, Note_on_c, 0, 57, 102
1, 32293, Note_off_c, 0, 57, 102
1, 32300, Note_on_c, 0, 59, 115
1, 32346, Note_off_c, 0, 59, 115
1, 32392, Note_on_c, 0, 59, 111
1, 32433, Note_off_c, 0, 59, 111
1, 32486, Note_on_c, 0, 66, 122
1, 32529, Note_off_c, 0, 66, 122
1, 32532, Note_on_c, 0, 64, 106
1, 32576, Note_off_c, 0, 64, 106
1, 32582, Note_on_c, 0, 61, 111
1, 32630, Note_off_c, 0, 61, 111
1, 32735, Note_on_c, 0, 60, 110
1, 32768, Note_off_c, 0, 60, 110
1, 32784, Note_on_c, 0, 60, 109
1, 32836, Note_off_c, 0, 60, 109
1, 32888, Note_on_c, 0, 57, 98
1, 32913, Note_off_c, 0, 57, 98
1, 32930, Note_on_c, 0, 59, 110
1, 32963, Note_off_c, 0, 59, 110
1, 32978, Note_on_c, 0, 59, 109
1, 33007, Note_off_c, 0, 59, 109
1, 33025, Note_on_c, 0, 57, 108
1, 33058, Note_off_c, 0, 57, 108
1, 33068, Note_on_c, 0, 59, 113
1, 33114, Note_off_c, 0, 59, 113
1, 33159, Note_on_c, 0, 59, 104
1, 33207, Note_off_c, 0, 59, 104
1, 33219, Note_on_c, 0, 56, 96
1, 33277, Note_off_c, 0, 56, 96
1, 33293, Note_on_c, 0, 55, 101
1, 33410, Note_off_c, 0, 55, 101
1, 33759, Note_on_c, 0, 69, 115
1, 33801, Note_off_c, 0, 69, 115
1, 33808, Note_on_c, 0, 67, 104
1, 33852, Note_off_c, 0, 67, 104
1, 33860, Note_on_c, 0, 66, 98
1, 33896, Note_off_c, 0, 66, 98
1, 33909, Note_on_c, 0, 64, 107
1, 33948, Note_off_c, 0, 64, 107
1, 33958, Note_on_c, 0, 62, 103
1, 33995, Note_off_c, 0, 62, 103
1, 34006, Note_on_c, 0, 59, 101
1, 34048, Note_off_c, 0, 59, 101
1, 34056, Note_on_c, 0, 57, 95
1, 34094, Note_off_c, 0, 57, 95
1, 34107, Note_on_c, 0, 58, 97
1, 34147, Note_off_c, 0, 58, 97
1, 34151, Note_on_c, 0, 61, 107
1, 34183, Note_off_c, 0, 61, 107
1, 34195, Note_on_c, 0, 64, 103
1, 34224, Note_off_c, 0, 64, 103
1, 34236, Note_on_c, 0, 67, 117
1, 34272, Note_off_c, 0, 67, 117
1, 34285, Note_on_c, 0, 69, 114
1, 34324, Note_off_c, 0, 69, 114
1, 34333, Note_on_c, 0, 66, 102
1, 34370, Note_off_c, 0, 66, 102
1, 34381, Note_on_c, 0, 64, 109
1, 34413, Note_off_c, 0, 64, 109
1, 34421, Note_on_c, 0, 61, 103
1, 34468, Note_off_c, 0, 61, 103
1, 34477, Note_on_c, 0, 59, 96
1, 34509, Note_off_c, 0, 59, 96
1, 34525, Note_on_c, 0, 56, 102
1, 34570, Note_off_c, 0, 56, 102
1, 34575, Note_on_c, 0, 57, 102
1, 34604, Note_off_c, 0, 57, 102
1, 34610, Note_on_c, 0, 58, 99
1, 34647, Note_off_c, 0, 58, 99
1, 34656, Note_on_c, 0, 55, 107
1, 34687, Note_off_c, 0, 55, 107
1, 34699, Note_on_c, 0, 54, 104
1, 34732, Note_off_c, 0, 54, 104
1, 34739, Note_on_c, 0, 52, 111
1, 34775, Note_off_c, 0, 52, 111
1, 34800, Note_on_c, 0, 49, 103
1, 34900, Note_off_c, 0, 49, 103
1, 34905, Note_on_c, 0, 51, 101
1, 34933, Note_off_c, 0, 51, 101
1, 34945, Note_on_c, 0, 53, 99
1, 34999, Note_off_c, 0, 53, 99
1, 35000, Note_on_c, 0, 56, 100
1, 35039, Note_off_c, 0, 56, 100
1, 35048, Note_on_c, 0, 53, 110
1, 35084, Note_off_c, 0, 53, 110
1, 35087, Note_on_c, 0, 54, 100
1, 35128, Note_off_c, 0, 54, 100
1, 35136, Note_on_c, 0, 56, 107
1, 35167, Note_off_c, 0, 56, 107
1, 35179, Note_on_c, 0, 57, 108
1, 35213, Note_off_c, 0, 57, 108
1, 35220, Note_on_c, 0, 59, 112
1, 35269, Note_off_c, 0, 59, 112
1, 35279, Note_on_c, 0, 61, 93
1, 35321, Note_off_c, 0, 61, 93
1, 35325, Note_on_c, 0, 59, 81
1, 35358, Note_off_c, 0, 59, 81
1, 35362, Note_on_c, 0, 64, 114
1, 35403, Note_off_c, 0, 64, 114
1, 35409, Note_on_c, 0, 61, 107
1, 35444, Note_off_c, 0, 61, 107
1, 35457, Note_on_c, 0, 63, 111
1, 35495, Note_off_c, 0, 63, 111
1, 35503, Note_on_c, 0, 61, 111
1, 35550, Note_off_c, 0, 61, 111
1, 35553, Note_on_c, 0, 55, 94
1, 35681, Note_off_c, 0, 55, 94
1, 35682, Note_on_c, 0, 62, 96
1, 35699, Note_off_c, 0, 62, 96
1, 35703, Note_on_c, 0, 65, 120
1, 35742, Note_off_c, 0, 65, 120
1, 35746, Note_on_c, 0, 64, 106
1, 35785, Note_off_c, 0, 64, 106
1, 35788, Note_on_c, 0, 62, 111
1, 35832, Note_off_c, 0, 62, 111
1, 35838, Note_on_c, 0, 60, 101
1, 35875, Note_off_c, 0, 60, 101
1, 35883, Note_on_c, 0, 59, 113
1, 35929, Note_off_c, 0, 59, 113
1, 35937, Note_on_c, 0, 58, 105
1, 35974, Note_off_c, 0, 58, 105
1, 35980, Note_on_c, 0, 54, 91
1, 36015, Note_off_c, 0, 54, 91
1, 36019, Note_on_c, 0, 57, 107
1, 36064, Note_off_c, 0, 57, 107
1, 36071, Note_on_c, 0, 54, 107
1, 36108, Note_off_c, 0, 54, 107
1, 36116, Note_on_c, 0, 55, 99
1, 36148, Note_off_c, 0, 55, 99
1, 36166, Note_on_c, 0, 52, 98
1, 36193, Note_off_c, 0, 52, 98
1, 36198, Note_on_c, 0, 53, 100
1, 36237, Note_off_c, 0, 53, 100
1, 36244, Note_on_c, 0, 62, 122
1, 36290, Note_off_c, 0, 62, 122
1, 36294, Note_on_c, 0, 61, 115
1, 36328, Note_off_c, 0, 61, 115
1, 36355, Note_on_c, 0, 59, 106
1, 36390, Note_off_c, 0, 59, 106
1, 36398, Note_on_c, 0, 57, 96
1, 36438, Note_off_c, 0, 57, 96
1, 36453, Note_on_c, 0, 52, 91
1, 36489, Note_off_c, 0, 52, 91
1, 36497, Note_on_c, 0, 56, 103
1, 36534, Note_off_c, 0, 56, 103
1, 36543, Note_on_c, 0, 53, 106
1, 36583, Note_off_c, 0, 53, 106
1, 36591, Note_on_c, 0, 54, 102
1, 36628, Note_off_c, 0, 54, 102
1, 36641, Note_on_c, 0, 56, 105
1, 36675, Note_off_c, 0, 56, 105
1, 36679, Note_on_c, 0, 57, 101
1, 36715, Note_off_c, 0, 57, 101
1, 36727, Note_on_c, 0, 59, 109
1, 36763, Note_off_c, 0, 59, 109
1, 36770, Note_on_c, 0, 61, 108
1, 36810, Note_off_c, 0, 61, 108
1, 36824, Note_on_c, 0, 64, 98
1, 36855, Note_off_c, 0, 64, 98
1, 36864, Note_on_c, 0, 67, 115
1, 36902, Note_off_c, 0, 67, 115
1, 36917, Note_on_c, 0, 68, 114
1, 36949, Note_off_c, 0, 68, 114
1, 36957, Note_on_c, 0, 66, 109
1, 36999, Note_off_c, 0, 66, 109
1, 37018, Note_on_c, 0, 64, 95
1, 37047, Note_off_c, 0, 64, 95
1, 37055, Note_on_c, 0, 68, 104
1, 37093, Note_off_c, 0, 68, 104
1, 37101, Note_on_c, 0, 69, 109
1, 37135, Note_off_c, 0, 69, 109
1, 37146, Note_on_c, 0, 67, 112
1, 37182, Note_off_c, 0, 67, 112
1, 37192, Note_on_c, 0, 65, 118
1, 37237, Note_off_c, 0, 65, 118
1, 37241, Note_on_c, 0, 64, 100
1, 37279, Note_off_c, 0, 64, 100
1, 37290, Note_on_c, 0, 62, 114
1, 37328, Note_off_c, 0, 62, 114
1, 37339, Note_on_c, 0, 60, 104
1, 37376, Note_off_c, 0, 60, 104
1, 37384, Note_on_c, 0, 57, 99
1, 37420, Note_off_c, 0, 57, 99
1, 37424, Note_on_c, 0, 58, 101
1, 37458, Note_off_c, 0, 58, 101
1, 37470, Note_on_c, 0, 62, 112
1, 37521, Note_off_c, 0, 62, 112
1, 37615, Note_on_c, 0, 63, 97
1, 37658, Note_off_c, 0, 63, 97
1, 37663, Note_on_c, 0, 64, 88
1, 37701, Note_off_c, 0, 64, 88
1, 37703, Note_on_c, 0, 67, 106
1, 37744, Note_off_c, 0, 67, 106
1, 37752, Note_on_c, 0, 74, 114
1, 37791, Note_off_c, 0, 74, 114
1, 37795, Note_on_c, 0, 72, 105
1, 37838, Note_off_c, 0, 72, 105
1, 37844, Note_on_c, 0, 69, 116
1, 37889, Note_off_c, 0, 69, 116
1, 37896, Note_on_c, 0, 67, 97
1, 37938, Note_off_c, 0, 67, 97
1, 37945, Note_on_c, 0, 65, 99
1, 37989, Note_off_c, 0, 65, 99
1, 37993, Note_on_c, 0, 64, 93
1, 38035, Note_off_c, 0, 64, 93
1, 38040, Note_on_c, 0, 65, 106
1, 38067, Note_off_c, 0, 65, 106
1, 38075, Note_on_c, 0, 69, 111
1, 38115, Note_off_c, 0, 69, 111
1, 38128, Note_on_c, 0, 72, 103
1, 38163, Note_off_c, 0, 72, 103
1, 38178, Note_on_c, 0, 76, 103
1, 38215, Note_off_c, 0, 76, 103
1, 38224, Note_on_c, 0, 75, 101
1, 38260, Note_off_c, 0, 75, 101
1, 38264, Note_on_c, 0, 74, 107
1, 38305, Note_off_c, 0, 74, 107
1, 38313, Note_on_c, 0, 73, 116
1, 38351, Note_off_c, 0, 73, 116
1, 38355, Note_on_c, 0, 72, 100
1, 38399, Note_off_c, 0, 72, 100
1, 38409, Note_on_c, 0, 69, 118
1, 38449, Note_off_c, 0, 69, 118
1, 38461, Note_on_c, 0, 67, 105
1, 38510, Note_off_c, 0, 67, 105
1, 38514, Note_on_c, 0, 66, 99
1, 38534, Note_off_c, 0, 66, 99
1, 38534, Note_on_c, 0, 64, 85
1, 38560, Note_off_c, 0, 64, 85
1, 38563, Note_on_c, 0, 61, 79
1, 38606, Note_off_c, 0, 61, 79
1, 38610, Note_on_c, 0, 63, 91
1, 38635, Note_off_c, 0, 63, 91
1, 38644, Note_on_c, 0, 64, 113
1, 38690, Note_off_c, 0, 64, 113
1, 38692, Note_on_c, 0, 62, 107
1, 38750, Note_off_c, 0, 62, 107
1, 38787, Note_on_c, 0, 61, 107
1, 38830, Note_off_c, 0, 61, 107
1, 38839, Note_on_c, 0, 64, 104
1, 38880, Note_off_c, 0, 64, 104
1, 38890, Note_on_c, 0, 67, 107
1, 38918, Note_off_c, 0, 67, 107
1, 38930, Note_on_c, 0, 70, 108
1, 38962, Note_off_c, 0, 70, 108
1, 38977, Note_on_c, 0, 70, 108
1, 39020, Note_off_c, 0, 70, 108
1, 39025, Note_on_c, 0, 69, 108
1, 39060, Note_off_c, 0, 69, 108
1, 39067, Note_on_c, 0, 67, 108
1, 39107, Note_off_c, 0, 67, 108
1, 39109, Note_on_c, 0, 64, 105
1, 39159, Note_off_c, 0, 64, 105
1, 39163, Note_on_c, 0, 62, 104
1, 39197, Note_off_c, 0, 62, 104
1, 39204, Note_on_c, 0, 61, 104
1, 39243, Note_off_c, 0, 61, 104
1, 39259, Note_on_c, 0, 58, 107
1, 39287, Note_off_c, 0, 58, 107
1, 39296, Note_on_c, 0, 57, 103
1, 39368, Note_off_c, 0, 57, 103
1, 39395, Note_on_c, 0, 59, 96
1, 39431, Note_off_c, 0, 59, 96
1, 39443, Note_on_c, 0, 61, 104
1, 39473, Note_off_c, 0, 61, 104
1, 39487, Note_on_c, 0, 64, 104
1, 39520, Note_off_c, 0, 64, 104
1, 39533, Note_on_c, 0, 61, 111
1, 39573, Note_off_c, 0, 61, 111
1, 39579, Note_on_c, 0, 62, 97
1, 39617, Note_off_c, 0, 62, 97
1, 39622, Note_on_c, 0, 64, 102
1, 39664, Note_off_c, 0, 64, 102
1, 39668, Note_on_c, 0, 65, 99
1, 39706, Note_off_c, 0, 65, 99
1, 39710, Note_on_c, 0, 67, 115
1, 39760, Note_off_c, 0, 67, 115
1, 39765, Note_on_c, 0, 68, 99
1, 39810, Note_off_c, 0, 68, 99
1, 39820, Note_on_c, 0, 69, 100
1, 39848, Note_off_c, 0, 69, 100
1, 39860, Note_on_c, 0, 72, 103
1, 39896, Note_off_c, 0, 72, 103
1, 39951, Note_on_c, 0, 71, 109
1, 39986, Note_off_c, 0, 71, 109
1, 39997, Note_on_c, 0, 69, 121
1, 40038, Note_off_c, 0, 69, 121
1, 40044, Note_on_c, 0, 67, 95
1, 40085, Note_off_c, 0, 67, 95
1, 40092, Note_on_c, 0, 66, 118
1, 40134, Note_off_c, 0, 66, 118
1, 40141, Note_on_c, 0, 65, 100
1, 40178, Note_off_c, 0, 65, 100
1, 40329, Note_on_c, 0, 64, 111
1, 40371, Note_off_c, 0, 64, 111
1, 40381, Note_on_c, 0, 63, 110
1, 40424, Note_off_c, 0, 63, 110
1, 40432, Note_on_c, 0, 62, 106
1, 40465, Note_off_c, 0, 62, 106
1, 40482, Note_on_c, 0, 60, 100
1, 40505, Note_off_c, 0, 60, 100
1, 40525, Note_on_c, 0, 57, 102
1, 40554, Note_off_c, 0, 57, 102
1, 40575, Note_on_c, 0, 58, 101
1, 40600, Note_off_c, 0, 58, 101
1, 40612, Note_on_c, 0, 59, 96
1, 40653, Note_off_c, 0, 59, 96
1, 40665, Note_on_c, 0, 55, 102
1, 40688, Note_off_c, 0, 55, 102
1, 40700, Note_on_c, 0, 57, 96
1, 40741, Note_off_c, 0, 57, 96
1, 40746, Note_on_c, 0, 53, 109
1, 40785, Note_off_c, 0, 53, 109
1, 40798, Note_on_c, 0, 51, 102
1, 40932, Note_off_c, 0, 51, 102
1, 40939, Note_on_c, 0, 61, 120
1, 40959, Note_off_c, 0, 61, 120
1, 40964, Note_on_c, 0, 62, 111
1, 41071, Note_off_c, 0, 62, 111
1, 41470, Note_on_c, 0, 55, 91
1, 41510, Note_off_c, 0, 55, 91
1, 41516, Note_on_c, 0, 58, 98
1, 41555, Note_off_c, 0, 58, 98
1, 41561, Note_on_c, 0, 62, 107
1, 41592, Note_off_c, 0, 62, 107
1, 41612, Note_on_c, 0, 63, 107
1, 41647, Note_off_c, 0, 63, 107
1, 41653, Note_on_c, 0, 60, 107
1, 41689, Note_off_c, 0, 60, 107
1, 41702, Note_on_c, 0, 62, 114
1, 41764, Note_off_c, 0, 62, 114
1, 42049, Note_on_c, 0, 55, 94
1, 42088, Note_off_c, 0, 55, 94
1, 42098, Note_on_c, 0, 58, 95
1, 42132, Note_off_c, 0, 58, 95
1, 42142, Note_on_c, 0, 62, 105
1, 42184, Note_off_c, 0, 62, 105
1, 42199, Note_on_c, 0, 63, 98
1, 42236, Note_off_c, 0, 63, 98
1, 42246, Note_on_c, 0, 62, 105
1, 42283, Note_off_c, 0, 62, 105
1, 42291, Note_on_c, 0, 61, 108
1, 42335, Note_off_c, 0, 61, 108
1, 42341, Note_on_c, 0, 60, 102
1, 42375, Note_off_c, 0, 60, 102
1, 42383, Note_on_c, 0, 58, 106
1, 42412, Note_off_c, 0, 58, 106
1, 42425, Note_on_c, 0, 57, 96
1, 42475, Note_off_c, 0, 57, 96
1, 42479, Note_on_c, 0, 55, 99
1, 42516, Note_off_c, 0, 55, 99
1, 42522, Note_on_c, 0, 54, 105
1, 42556, Note_off_c, 0, 54, 105
1, 42568, Note_on_c, 0, 51, 99
1, 42705, Note_off_c, 0, 51, 99
1, 42724, Note_on_c, 0, 49, 111
1, 42754, Note_off_c, 0, 49, 111
1, 42770, Note_on_c, 0, 50, 103
1, 42803, Note_off_c, 0, 50, 103
1, 42859, Note_on_c, 0, 54, 100
1, 42899, Note_off_c, 0, 54, 100
1, 42907, Note_on_c, 0, 57, 106
1, 42945, Note_off_c, 0, 57, 106
1, 42954, Note_on_c, 0, 54, 103
1, 42997, Note_off_c, 0, 54, 103
1, 43002, Note_on_c, 0, 55, 91
1, 43038, Note_off_c, 0, 55, 91
1, 43046, Note_on_c, 0, 57, 111
1, 43076, Note_off_c, 0, 57, 111
1, 43090, Note_on_c, 0, 58, 103
1, 43127, Note_off_c, 0, 58, 103
1, 43136, Note_on_c, 0, 60, 117
1, 43175, Note_off_c, 0, 60, 117
1, 43181, Note_on_c, 0, 61, 98
1, 43221, Note_off_c, 0, 61, 98
1, 43232, Note_on_c, 0, 62, 102
1, 43273, Note_off_c, 0, 62, 102
1, 43277, Note_on_c, 0, 65, 115
1, 43321, Note_off_c, 0, 65, 115
1, 43326, Note_on_c, 0, 62, 109
1, 43360, Note_off_c, 0, 62, 109
1, 43370, Note_on_c, 0, 64, 111
1, 43407, Note_off_c, 0, 64, 111
1, 43413, Note_on_c, 0, 62, 114
1, 43452, Note_off_c, 0, 62, 114
1, 43459, Note_on_c, 0, 60, 109
1, 43498, Note_off_c, 0, 60, 109
1, 43503, Note_on_c, 0, 59, 113
1, 43559, Note_off_c, 0, 59, 113
1, 43563, Note_on_c, 0, 58, 102
1, 43609, Note_off_c, 0, 58, 102
1, 43616, Note_on_c, 0, 55, 96
1, 43652, Note_off_c, 0, 55, 96
1, 43660, Note_on_c, 0, 57, 103
1, 43701, Note_off_c, 0, 57, 103
1, 43712, Note_on_c, 0, 50, 117
1, 43758, Note_off_c, 0, 50, 117
1, 43846, Note_on_c, 0, 57, 101
1, 43894, Note_off_c, 0, 57, 101
1, 43897, Note_on_c, 0, 54, 108
1, 43937, Note_off_c, 0, 54, 108
1, 43949, Note_on_c, 0, 55, 94
1, 43988, Note_off_c, 0, 55, 94
1, 43997, Note_on_c, 0, 57, 107
1, 44030, Note_off_c, 0, 57, 107
1, 44035, Note_on_c, 0, 58, 93
1, 44081, Note_off_c, 0, 58, 93
1, 44085, Note_on_c, 0, 54, 110
1, 44130, Note_off_c, 0, 54, 110
1, 44136, Note_on_c, 0, 55, 94
1, 44175, Note_off_c, 0, 55, 94
1, 44183, Note_on_c, 0, 57, 107
1, 44223, Note_off_c, 0, 57, 107
1, 44228, Note_on_c, 0, 58, 98
1, 44268, Note_off_c, 0, 58, 98
1, 44275, Note_on_c, 0, 60, 111
1, 44314, Note_off_c, 0, 60, 111
1, 44319, Note_on_c, 0, 62, 119
1, 44362, Note_off_c, 0, 62, 119
1, 44368, Note_on_c, 0, 64, 112
1, 44408, Note_off_c, 0, 64, 112
1, 44413, Note_on_c, 0, 65, 112
1, 44459, Note_off_c, 0, 65, 112
1, 44469, Note_on_c, 0, 57, 95
1, 44538, Note_off_c, 0, 57, 95
1, 44556, Note_on_c, 0, 60, 88
1, 44598, Note_off_c, 0, 60, 88
1, 44608, Note_on_c, 0, 62, 108
1, 44646, Note_off_c, 0, 62, 108
1, 44654, Note_on_c, 0, 64, 110
1, 44692, Note_off_c, 0, 64, 110
1, 44699, Note_on_c, 0, 65, 115
1, 44736, Note_off_c, 0, 65, 115
1, 44751, Note_on_c, 0, 67, 106
1, 44779, Note_off_c, 0, 67, 106
1, 44786, Note_on_c, 0, 69, 111
1, 44822, Note_off_c, 0, 69, 111
1, 44838, Note_on_c, 0, 69, 117
1, 44879, Note_off_c, 0, 69, 117
1, 44880, Note_on_c, 0, 67, 104
1, 44927, Note_off_c, 0, 67, 104
1, 44929, Note_on_c, 0, 65, 112
1, 44969, Note_off_c, 0, 65, 112
1, 44978, Note_on_c, 0, 64, 98
1, 45026, Note_off_c, 0, 64, 98
1, 45033, Note_on_c, 0, 63, 105
1, 45066, Note_off_c, 0, 63, 105
1, 45075, Note_on_c, 0, 62, 104
1, 45111, Note_off_c, 0, 62, 104
1, 45117, Note_on_c, 0, 61, 92
1, 45158, Note_off_c, 0, 61, 92
1, 45171, Note_on_c, 0, 60, 89
1, 45194, Note_off_c, 0, 60, 89
1, 45199, Note_on_c, 0, 61, 110
1, 45218, Note_off_c, 0, 61, 110
1, 45225, Note_on_c, 0, 58, 114
1, 45270, Note_off_c, 0, 58, 114
1, 45272, Note_on_c, 0, 57, 86
1, 45330, Note_off_c, 0, 57, 86
1, 45420, Note_on_c, 0, 52, 122
1, 45458, Note_off_c, 0, 52, 122
1, 45465, Note_on_c, 0, 53, 114
1, 45508, Note_off_c, 0, 53, 114
1, 45516, Note_on_c, 0, 55, 104
1, 45557, Note_off_c, 0, 55, 104
1, 45561, Note_on_c, 0, 56, 94
1, 45609, Note_off_c, 0, 56, 94
1, 45614, Note_on_c, 0, 58, 95
1, 45646, Note_off_c, 0, 58, 95
1, 45654, Note_on_c, 0, 60, 107
1, 45691, Note_off_c, 0, 60, 107
1, 45700, Note_on_c, 0, 63, 111
1, 45737, Note_off_c, 0, 63, 111
1, 45743, Note_on_c, 0, 60, 105
1, 45785, Note_off_c, 0, 60, 105
1, 45793, Note_on_c, 0, 61, 95
1, 45836, Note_off_c, 0, 61, 95
1, 45841, Note_on_c, 0, 62, 105
1, 45877, Note_off_c, 0, 62, 105
1, 45884, Note_on_c, 0, 65, 113
1, 45919, Note_off_c, 0, 65, 113
1, 45924, Note_on_c, 0, 68, 120
1, 45977, Note_off_c, 0, 68, 120
1, 45981, Note_on_c, 0, 72, 111
1, 46015, Note_off_c, 0, 72, 111
1, 46021, Note_on_c, 0, 71, 109
1, 46062, Note_off_c, 0, 71, 109
1, 46069, Note_on_c, 0, 67, 113
1, 46112, Note_off_c, 0, 67, 113
1, 46117, Note_on_c, 0, 70, 108
1, 46156, Note_off_c, 0, 70, 108
1, 46159, Note_on_c, 0, 67, 119
1, 46208, Note_off_c, 0, 67, 119
1, 46212, Note_on_c, 0, 62, 102
1, 46260, Note_off_c, 0, 62, 102
1, 46269, Note_on_c, 0, 58, 98
1, 46299, Note_off_c, 0, 58, 98
1, 46304, Note_on_c, 0, 60, 113
1, 46344, Note_off_c, 0, 60, 113
1, 46350, Note_on_c, 0, 60, 117
1, 46414, Note_off_c, 0, 60, 117
1, 46788, Note_on_c, 0, 75, 105
1, 46830, Note_off_c, 0, 75, 105
1, 46844, Note_on_c, 0, 74, 94
1, 46876, Note_off_c, 0, 74, 94
1, 46881, Note_on_c, 0, 73, 111
1, 46931, Note_off_c, 0, 73, 111
1, 46938, Note_on_c, 0, 65, 101
1, 46975, Note_off_c, 0, 65, 101
1, 46980, Note_on_c, 0, 67, 86
1, 47021, Note_off_c, 0, 67, 86
1, 47030, Note_on_c, 0, 70, 110
1, 47068, Note_off_c, 0, 70, 110
1, 47078, Note_on_c, 0, 72, 106
1, 47113, Note_off_c, 0, 72, 106
1, 47130, Note_on_c, 0, 75, 99
1, 47159, Note_off_c, 0, 75, 99
1, 47170, Note_on_c, 0, 72, 106
1, 47207, Note_off_c, 0, 72, 106
1, 47220, Note_on_c, 0, 71, 109
1, 47258, Note_off_c, 0, 71, 109
1, 47263, Note_on_c, 0, 70, 98
1, 47290, Note_off_c, 0, 70, 98
1, 47311, Note_on_c, 0, 68, 112
1, 47349, Note_off_c, 0, 68, 112
1, 47362, Note_on_c, 0, 67, 110
1, 47397, Note_off_c, 0, 67, 110
1, 47407, Note_on_c, 0, 65, 106
1, 47449, Note_off_c, 0, 65, 106
1, 47458, Note_on_c, 0, 63, 98
1, 47493, Note_off_c, 0, 63, 98
1, 47507, Note_on_c, 0, 60, 106
1, 47541, Note_off_c, 0, 60, 106
1, 47548, Note_on_c, 0, 61, 108
1, 47589, Note_off_c, 0, 61, 108
1, 47595, Note_on_c, 0, 66, 111
1, 47738, Note_off_c, 0, 66, 111
1, 47827, Note_on_c, 0, 61, 97
1, 47867, Note_off_c, 0, 61, 97
1, 47869, Note_on_c, 0, 58, 115
1, 47912, Note_off_c, 0, 58, 115
1, 47919, Note_on_c, 0, 59, 111
1, 47961, Note_off_c, 0, 59, 111
1, 47969, Note_on_c, 0, 61, 93
1, 48010, Note_off_c, 0, 61, 93
1, 48020, Note_on_c, 0, 62, 91
1, 48060, Note_off_c, 0, 62, 91
1, 48065, Note_on_c, 0, 64, 98
1, 48110, Note_off_c, 0, 64, 98
1, 48113, Note_on_c, 0, 66, 99
1, 48149, Note_off_c, 0, 66, 99
1, 48159, Note_on_c, 0, 69, 112
1, 48191, Note_off_c, 0, 69, 112
1, 48199, Note_on_c, 0, 72, 107
1, 48236, Note_off_c, 0, 72, 107
1, 48245, Note_on_c, 0, 73, 104
1, 48286, Note_off_c, 0, 73, 104
1, 48295, Note_on_c, 0, 71, 97
1, 48328, Note_off_c, 0, 71, 97
1, 48344, Note_on_c, 0, 69, 88
1, 48376, Note_off_c, 0, 69, 88
1, 48383, Note_on_c, 0, 71, 102
1, 48425, Note_off_c, 0, 71, 102
1, 48437, Note_on_c, 0, 72, 106
1, 48500, Note_off_c, 0, 72, 106
1, 48541, Note_on_c, 0, 72, 96
1, 48578, Note_off_c, 0, 72, 96
1, 48582, Note_on_c, 0, 68, 119
1, 48652, Note_off_c, 0, 68, 119
1, 48680, Note_on_c, 0, 68, 116
1, 48718, Note_off_c, 0, 68, 116
1, 48730, Note_on_c, 0, 65, 103
1, 48773, Note_off_c, 0, 65, 103
1, 48825, Note_on_c, 0, 65, 101
1, 48850, Note_off_c, 0, 65, 101
1, 48866, Note_on_c, 0, 61, 96
1, 48915, Note_off_c, 0, 61, 96
1, 48963, Note_on_c, 0, 61, 98
1, 48997, Note_off_c, 0, 61, 98
1, 49011, Note_on_c, 0, 72, 111
1, 49053, Note_off_c, 0, 72, 111
1, 49109, Note_on_c, 0, 72, 97
1, 49147, Note_off_c, 0, 72, 97
1, 49151, Note_on_c, 0, 73, 109
1, 49217, Note_off_c, 0, 73, 109
1, 49244, Note_on_c, 0, 73, 103
1, 49290, Note_off_c, 0, 73, 103
1, 49295, Note_on_c, 0, 69, 117
1, 49349, Note_off_c, 0, 69, 117
1, 49389, Note_on_c, 0, 69, 106
1, 49430, Note_off_c, 0, 69, 106
1, 49436, Note_on_c, 0, 66, 113
1, 49494, Note_off_c, 0, 66, 113
1, 49531, Note_on_c, 0, 66, 107
1, 49581, Note_off_c, 0, 66, 107
1, 49585, Note_on_c, 0, 62, 104
1, 49640, Note_off_c, 0, 62, 104
1, 49677, Note_on_c, 0, 62, 105
1, 49717, Note_off_c, 0, 62, 105
1, 49729, Note_on_c, 0, 61, 114
1, 49769, Note_off_c, 0, 61, 114
1, 49829, Note_on_c, 0, 61, 100
1, 49855, Note_off_c, 0, 61, 100
1, 49863, Note_on_c, 0, 59, 108
1, 49925, Note_off_c, 0, 59, 108
1, 50106, Note_on_c, 0, 72, 108
1, 50150, Note_off_c, 0, 72, 108
1, 50153, Note_on_c, 0, 73, 108
1, 50196, Note_off_c, 0, 73, 108
1, 50206, Note_on_c, 0, 72, 106
1, 50242, Note_off_c, 0, 72, 106
1, 50259, Note_on_c, 0, 71, 99
1, 50286, Note_off_c, 0, 71, 99
1, 50302, Note_on_c, 0, 70, 101
1, 50341, Note_off_c, 0, 70, 101
1, 50345, Note_on_c, 0, 66, 116
1, 50384, Note_off_c, 0, 66, 116
1, 50392, Note_on_c, 0, 65, 108
1, 50424, Note_off_c, 0, 65, 108
1, 50439, Note_on_c, 0, 64, 108
1, 50477, Note_off_c, 0, 64, 108
1, 50481, Note_on_c, 0, 63, 97
1, 50521, Note_off_c, 0, 63, 97
1, 50530, Note_on_c, 0, 61, 93
1, 50564, Note_off_c, 0, 61, 93
1, 50572, Note_on_c, 0, 58, 96
1, 50609, Note_off_c, 0, 58, 96
1, 50614, Note_on_c, 0, 59, 103
1, 50648, Note_off_c, 0, 59, 103
1, 50650, Note_on_c, 0, 60, 96
1, 50699, Note_off_c, 0, 60, 96
1, 50710, Note_on_c, 0, 63, 105
1, 50742, Note_off_c, 0, 63, 105
1, 50750, Note_on_c, 0, 66, 110
1, 50794, Note_off_c, 0, 66, 110
1, 50807, Note_on_c, 0, 68, 102
1, 50839, Note_off_c, 0, 68, 102
1, 50850, Note_on_c, 0, 71, 104
1, 50896, Note_off_c, 0, 71, 104
1, 50901, Note_on_c, 0, 69, 85
1, 50940, Note_off_c, 0, 69, 85
1, 50945, Note_on_c, 0, 71, 108
1, 50980, Note_off_c, 0, 71, 108
1, 50994, Note_on_c, 0, 69, 104
1, 51036, Note_off_c, 0, 69, 104
1, 51042, Note_on_c, 0, 68, 104
1, 51077, Note_off_c, 0, 68, 104
1, 51086, Note_on_c, 0, 66, 107
1, 51126, Note_off_c, 0, 66, 107
1, 51133, Note_on_c, 0, 64, 96
1, 51171, Note_off_c, 0, 64, 96
1, 51190, Note_on_c, 0, 61, 101
1, 51221, Note_off_c, 0, 61, 101
1, 51228, Note_on_c, 0, 63, 112
1, 51272, Note_off_c, 0, 63, 112
1, 51274, Note_on_c, 0, 60, 115
1, 51324, Note_off_c, 0, 60, 115
1, 51328, Note_on_c, 0, 57, 94
1, 51372, Note_off_c, 0, 57, 94
1, 51377, Note_on_c, 0, 55, 95
1, 51412, Note_off_c, 0, 55, 95
1, 51417, Note_on_c, 0, 56, 105
1, 51597, Note_off_c, 0, 56, 105
1, 51611, Note_on_c, 0, 61, 96
1, 51651, Note_off_c, 0, 61, 96
1, 51656, Note_on_c, 0, 63, 100
1, 51695, Note_off_c, 0, 63, 100
1, 51702, Note_on_c, 0, 64, 99
1, 51737, Note_off_c, 0, 64, 99
1, 51748, Note_on_c, 0, 66, 98
1, 51780, Note_off_c, 0, 66, 98
1, 51790, Note_on_c, 0, 68, 112
1, 51830, Note_off_c, 0, 68, 112
1, 51836, Note_on_c, 0, 71, 108
1, 51876, Note_off_c, 0, 71, 108
1, 51883, Note_on_c, 0, 70, 107
1, 51931, Note_off_c, 0, 70, 107
1, 51940, Note_on_c, 0, 66, 112
1, 51977, Note_off_c, 0, 66, 112
1, 51980, Note_on_c, 0, 68, 112
1, 52022, Note_off_c, 0, 68, 112
1, 52030, Note_on_c, 0, 64, 103
1, 52063, Note_off_c, 0, 64, 103
1, 52068, Note_on_c, 0, 63, 107
1, 52108, Note_off_c, 0, 63, 107
1, 52120, Note_on_c, 0, 62, 114
1, 52177, Note_off_c, 0, 62, 114
1, 52179, Note_on_c, 0, 61, 110
1, 52207, Note_off_c, 0, 61, 110
1, 52224, Note_on_c, 0, 63, 97
1, 52260, Note_off_c, 0, 63, 97
1, 52264, Note_on_c, 0, 64, 105
1, 52302, Note_off_c, 0, 64, 105
1, 52316, Note_on_c, 0, 66, 105
1, 52353, Note_off_c, 0, 66, 105
1, 52358, Note_on_c, 0, 63, 109
1, 52393, Note_off_c, 0, 63, 109
1, 52404, Note_on_c, 0, 61, 120
1, 52461, Note_off_c, 0, 61, 120
1, 52558, Note_on_c, 0, 66, 111
1, 52684, Note_off_c, 0, 66, 111
1, 52698, Note_on_c, 0, 64, 99
1, 52725, Note_off_c, 0, 64, 99
1, 52737, Note_on_c, 0, 63, 108
1, 52770, Note_off_c, 0, 63, 108
1, 52783, Note_on_c, 0, 61, 108
1, 52820, Note_off_c, 0, 61, 108
1, 52828, Note_on_c, 0, 59, 94
1, 52861, Note_off_c, 0, 59, 94
1, 52874, Note_on_c, 0, 55, 91
1, 52911, Note_off_c, 0, 55, 91
1, 52920, Note_on_c, 0, 58, 101
1, 52965, Note_off_c, 0, 58, 101
1, 52974, Note_on_c, 0, 55, 95
1, 53012, Note_off_c, 0, 55, 95
1, 53018, Note_on_c, 0, 57, 93
1, 53054, Note_off_c, 0, 57, 93
1, 53063, Note_on_c, 0, 58, 101
1, 53105, Note_off_c, 0, 58, 101
1, 53113, Note_on_c, 0, 60, 105
1, 53146, Note_off_c, 0, 60, 105
1, 53153, Note_on_c, 0, 63, 110
1, 53192, Note_off_c, 0, 63, 110
1, 53199, Note_on_c, 0, 67, 113
1, 53237, Note_off_c, 0, 67, 113
1, 53245, Note_on_c, 0, 65, 114
1, 53286, Note_off_c, 0, 65, 114
1, 53297, Note_on_c, 0, 63, 104
1, 53337, Note_off_c, 0, 63, 104
1, 53343, Note_on_c, 0, 60, 110
1, 53382, Note_off_c, 0, 60, 110
1, 53390, Note_on_c, 0, 58, 98
1, 53431, Note_off_c, 0, 58, 98
1, 53433, Note_on_c, 0, 56, 104
1, 53476, Note_off_c, 0, 56, 104
1, 53484, Note_on_c, 0, 55, 90
1, 53521, Note_off_c, 0, 55, 90
1, 53526, Note_on_c, 0, 53, 101
1, 53560, Note_off_c, 0, 53, 101
1, 53573, Note_on_c, 0, 51, 99
1, 53609, Note_off_c, 0, 51, 99
1, 53613, Note_on_c, 0, 49, 103
1, 53663, Note_off_c, 0, 49, 103
1, 53670, Note_on_c, 0, 50, 105
1, 53707, Note_off_c, 0, 50, 105
1, 53718, Note_on_c, 0, 54, 105
1, 53757, Note_off_c, 0, 54, 105
1, 53761, Note_on_c, 0, 57, 103
1, 53792, Note_off_c, 0, 57, 103
1, 53802, Note_on_c, 0, 61, 116
1, 53844, Note_off_c, 0, 61, 116
1, 53848, Note_on_c, 0, 59, 105
1, 53894, Note_off_c, 0, 59, 105
1, 53901, Note_on_c, 0, 61, 110
1, 53949, Note_off_c, 0, 61, 110
1, 53953, Note_on_c, 0, 62, 103
1, 53995, Note_off_c, 0, 62, 103
1, 54001, Note_on_c, 0, 64, 105
1, 54043, Note_off_c, 0, 64, 105
1, 54047, Note_on_c, 0, 61, 101
1, 54083, Note_off_c, 0, 61, 101
1, 54089, Note_on_c, 0, 57, 104
1, 54126, Note_off_c, 0, 57, 104
1, 54142, Note_on_c, 0, 54, 96
1, 54175, Note_off_c, 0, 54, 96
1, 54259, Note_on_c, 0, 50, 111
1, 54303, Note_off_c, 0, 50, 111
1, 54310, Note_on_c, 0, 49, 97
1, 54345, Note_off_c, 0, 49, 97
1, 54356, Note_on_c, 0, 47, 111
1, 54397, Note_off_c, 0, 47, 111
1, 54397, End_track
0, 0, End_of_file
